<svg xmlns="http://www.w3.org/2000/svg" viewBox="0 0 62.49 62.18"><defs><style>.cls-1{fill:#180041}.cls-2{fill:#00ed92}</style></defs><g id="Layer_2" data-name="Layer 2"><g id="Layer_2-2" data-name="Layer 2"><path class="cls-1" d="M28.91 1.22a20.19 20.19 0 0 0-18.24 2.23 16.84 16.84 0 0 0-7.19 14.23 2 2 0 0 0 3.9 0 13.05 13.05 0 0 1 5.53-11 16.24 16.24 0 0 1 14.67-1.79C36.21 8 40 17.63 36.65 28.26a21.46 21.46 0 0 1-7.57 11A26.75 26.75 0 0 0 20 52c-.09.27-.2.54-.32.81a9.37 9.37 0 0 1-5.28 5 7.53 7.53 0 0 1-5.9-.31c-3.44-1.7-5.26-6-4.35-10.11a2 2 0 0 0-3.82-.83C-1 52.54 1.67 58.48 6.77 61a11.32 11.32 0 0 0 5 1.18 11.71 11.71 0 0 0 3.93-.69 13.31 13.31 0 0 0 7.53-7.07c.16-.36.31-.73.44-1.1a22.87 22.87 0 0 1 7.7-10.93 25.35 25.35 0 0 0 9-13c3.95-12.7-.76-24.3-11.46-28.17z"/><path class="cls-1" d="M18.42 14.14c2.59-2 6.79-2.16 8.94.66a2 2 0 0 0 3.11-2.36C27.18 8.13 20.72 7.5 16.06 11c-4.94 3.75-5.56 10.49-1.51 16.4a2 2 0 0 0 1.61.84 2 2 0 0 0 1.11-.34 2 2 0 0 0 .5-2.71c-2.37-3.43-3.09-8.19.65-11.05z"/><path class="cls-1" d="M9.85 34.59a2 2 0 0 0-2.49 1.18 6.52 6.52 0 0 0-.09 4.14 6 6 0 0 0 2.54 3.31 5.91 5.91 0 0 0 3.18.92 6.2 6.2 0 0 0 1.59-.21 6.56 6.56 0 0 0 3.9-2.93l.15-.26.14-.25a8.87 8.87 0 0 1 1.39-2A6.84 6.84 0 0 1 22 37.06a11.12 11.12 0 0 0 2.78-2.17 11.93 11.93 0 0 0 2.05-3.1 11.35 11.35 0 0 0 .82-7.55 8.83 8.83 0 0 0-4.78-5.77A2 2 0 0 0 21.13 22a4.93 4.93 0 0 1 2.72 3.24 7.53 7.53 0 0 1-.6 4.94 8.19 8.19 0 0 1-1.37 2.07 6.88 6.88 0 0 1-1.77 1.39 10.76 10.76 0 0 0-2.84 2.23 13.3 13.3 0 0 0-2 2.89l-.12.22a2.7 2.7 0 0 1-1.58 1.19 2.18 2.18 0 0 1-1.7-.24 2.13 2.13 0 0 1-.9-1.19 2.6 2.6 0 0 1 0-1.65 2 2 0 0 0-1.12-2.5z"/><path class="cls-2" d="M47.27 22.87a2 2 0 0 0 0 2.76 6 6 0 0 1 1.67 4.13 5.71 5.71 0 0 1-1.59 4.07 2 2 0 0 0 2.81 2.72 9.67 9.67 0 0 0 2.69-6.82A9.9 9.9 0 0 0 50 22.91a2 2 0 0 0-2.73-.04zM62.49 29.69a20.06 20.06 0 0 0-1.33-7.34A19.19 19.19 0 0 0 57 15.83a2 2 0 1 0-2.81 2.71 15.46 15.46 0 0 1 3.3 5.19 16.12 16.12 0 0 1 1.08 5.94 16.21 16.21 0 0 1-1.08 5.95 15.32 15.32 0 0 1-3.3 5.18 2 2 0 0 0 0 2.76 1.94 1.94 0 0 0 2.81-.02 19.19 19.19 0 0 0 4.14-6.49 20 20 0 0 0 1.33-7.33z"/></g></g></svg>