<svg xmlns="http://www.w3.org/2000/svg" viewBox="0 0 62.05 74.83"><defs><style>.cls-1{fill:#180041}.cls-2{fill:#00ed92}</style></defs><g id="Layer_2" data-name="Layer 2"><g id="Layer_2-2" data-name="Layer 2"><path class="cls-1" d="M18.05 0a1.43 1.43 0 0 0-1 .42l-6.77 6.76a1.41 1.41 0 0 0-.5 1 1.44 1.44 0 0 0 1.34 1.52 1.43 1.43 0 0 0 1-.36l.11-.11L19 2.47a1.44 1.44 0 0 0 0-2 1.42 1.42 0 0 0-.95-.47z"/><path class="cls-2" d="M37 50.59a7.17 7.17 0 0 1 7.15 7.19v14.7H29.78V57.79a7.17 7.17 0 0 1 7.14-7.2zM25.15 36.24a6 6 0 1 1 6-6 6 6 0 0 1-6 6z"/><path class="cls-1" d="M62.05 54.61a1.44 1.44 0 0 0-1.43-1.44H44.8l-.12-.31a10.51 10.51 0 0 0-19.55 0l-.13.31h-4a8.52 8.52 0 0 1-8.52-8.54 8.59 8.59 0 0 1 4.87-7.69l.26-.12.23.16a9.26 9.26 0 0 0 12.35-1.67l.35-.41L34 38.38a4.9 4.9 0 0 0 6.63.3l.35-.29 3.71 3.7a2.8 2.8 0 0 0 3.94 0l3.24-3.25a2.79 2.79 0 0 0 0-3.93l-3.63-3.73.29-.34a4.88 4.88 0 0 0-.3-6.63L26.8 2.83a1.44 1.44 0 0 0-2 0L12.67 15a1.42 1.42 0 0 0-.42 1 1.4 1.4 0 0 0 .41 1l4.82 4.82-.42.35a9.07 9.07 0 0 0-1.86 2.14l-.1.15-.18.06A21 21 0 0 0 21 65.6h3.34V72h-7.7a1.44 1.44 0 1 0 0 2.87h36.51a1.44 1.44 0 1 0 0-2.87h-7.73V56h15.2a1.43 1.43 0 0 0 1.43-1.39zM49.84 36.87L46.71 40 43 36.33l3.13-3.13zM15.71 16L25.82 5.88l20.37 20.35a2 2 0 0 1 0 2.89L39 36.34a2.1 2.1 0 0 1-2.89 0l-4.18-4.14.08-.29a9.3 9.3 0 0 0-6.24-11.58 9.33 9.33 0 0 0-5.34 0l-.28.09zm7.37 6.82a6.45 6.45 0 1 1 0 12.9 6.45 6.45 0 1 1 0-12.9zm1.34 39.94h-3.49A18.12 18.12 0 0 1 13 28.31h.72l.09.5v.5a9.24 9.24 0 0 0 1.47 4.94l.27.43-.43.26A11.4 11.4 0 0 0 21.06 56h3.36zM42.55 72H27.21V56.76a7.68 7.68 0 0 1 7.64-7.7 7.68 7.68 0 0 1 7.66 7.69z"/><path class="cls-1" d="M34.64 58.68h.24a1.94 1.94 0 1 0-.24 0z"/></g></g></svg>