<svg xmlns="http://www.w3.org/2000/svg" viewBox="0 0 110.979 128.417"><path d="M55.71 128.255L.57 96.42V32.75L55.71.916l55.14 31.835V96.42z" fill="#d5c7a4" stroke="#000" stroke-width="1.8"/><path d="M55.709 10.992L9.227 37.79v53.594l46.482 26.795 46.485-26.795V37.79zm44.603 79.312L55.709 116.02 11.105 90.304V38.88l44.604-25.716 44.603 25.716z"/><path d="M55.576 117.196L10.263 91.034V38.71l45.313-26.162L100.89 38.71v52.323z" fill-opacity=".295"/><path d="M31.397 46.005h28.484V90.51H31.397zm0 0" fill="#e8e8e8"/><path d="M34.958 49.565H56.32v19.583H34.958zm0 0M52.76 79.83a7.12 7.12 0 1 1-14.241 0 7.12 7.12 0 0 1 14.241 0zm0 0" fill="#f4f4e6"/><path d="M76.794 70.038a.89.89 0 0 0-.89.89V86.95h-4.451V58.466a.89.89 0 0 0-1.78 0V86.95h-4.451V38.884a.89.89 0 0 0-.89-.89H37.628a.89.89 0 0 0-.89.89v3.56a.89.89 0 0 0 1.78 0v-2.67h24.924V87.84c0 .492.398.89.89.89h12.462a.89.89 0 0 0 .89-.89V70.928a.89.89 0 0 0-.89-.89zm0 0" fill="#5a6470"/><path d="M48.31 79.83a2.67 2.67 0 1 1-5.341-.001 2.67 2.67 0 0 1 5.34 0zm0 0" fill="#e8e8e8"/><path d="M37.628 52.236h2.67v1.78h-2.67zm0 0M37.628 64.697H53.65v1.78H37.628zm0 0" fill="#5a6470"/><path d="M71.85 47.691l-.795-1.593 1.288-.644v-3.56l2.273-1.137.795 1.594-1.288.643v3.56zm0 0M79.862 61.043l-.796-1.593 1.288-.644v-3.56l2.273-1.137.795 1.594-1.288.643v3.56zm0 0" fill="#f98c96"/><g fill="#df994f"><path d="M83.024 72.708h-3.56v-8.9h3.56zm0 0M76.794 60.247h-3.56v-8.902h3.56zm0 0M49.2 59.356l-5.341 2.67v-5.34zm0 0M35.848 42.444h3.56v3.56h-3.56zm0 0"/></g><g fill="#e8e8e8"><path d="M79.464 70.928h-2.67a2.67 2.67 0 0 1 0-5.34h2.67zm0 0M73.233 58.466h-2.67a2.67 2.67 0 0 1 0-5.34h2.67zm0 0"/></g><path d="M83.024 62.917h-3.56a.89.89 0 0 0-.89.89v.89h-1.78a3.553 3.553 0 0 0-.89 6.995V86.95h-4.451V59.356h.89v.89c0 .492.398.89.89.89h3.56a.89.89 0 0 0 .89-.89v-8.9a.89.89 0 0 0-.89-.89h-3.56a.89.89 0 0 0-.89.89v.89h-1.78a3.553 3.553 0 0 0-.89 6.994v27.72h-4.451V38.884a.89.89 0 0 0-.89-.89H37.628a.89.89 0 0 0-.89.89v2.67h-.89a.89.89 0 0 0-.89.89v2.67h-3.56a.89.89 0 0 0-.89.89v44.507c0 .491.398.89.89.89H59.88a.89.89 0 0 0 .89-.89V46.005a.89.89 0 0 0-.89-.89H40.3v-2.67a.89.89 0 0 0-.89-.891h-.89v-1.78h24.923V87.84c0 .492.398.89.89.89h12.462a.89.89 0 0 0 .89-.89V71.818h.89v.89c0 .492.398.89.89.89h3.56a.89.89 0 0 0 .89-.89v-8.9a.89.89 0 0 0-.89-.891zm-8.9-10.681h1.78v7.12h-1.78zm-37.386-8.902h1.78v1.78h-1.78zm22.253 3.56v42.727H32.287V46.895zm9.791 8.902c0-.983.798-1.78 1.78-1.78h1.78v3.56h-1.78a1.78 1.78 0 0 1-1.78-1.78zm9.792 14.242h-1.78a1.78 1.78 0 0 1 0-3.56h1.78zm3.56 1.78h-1.78v-7.12h1.78zm0 0"/><path d="M34.068 49.565v19.583c0 .491.398.89.89.89H56.32a.89.89 0 0 0 .89-.89V49.565a.89.89 0 0 0-.89-.89H34.958a.89.89 0 0 0-.89.89zm1.78.89h19.583v17.803H35.848zm0 0M45.64 71.818a8.01 8.01 0 1 0 8.01 8.011 8.02 8.02 0 0 0-8.01-8.01zm0 14.242a6.23 6.23 0 1 1 6.23-6.23 6.238 6.238 0 0 1-6.23 6.23zm0 0"/><path d="M45.64 76.269a3.56 3.56 0 1 0 0 7.121 3.56 3.56 0 0 0 0-7.121zm0 5.34a1.78 1.78 0 1 1 0-3.56 1.78 1.78 0 0 1 0 3.56zm0 0M37.628 52.236h2.67v1.78h-2.67zm0 0M37.628 64.697H53.65v1.78H37.628zm0 0M43.39 62.784a.89.89 0 0 0 .867.04l5.34-2.67a.89.89 0 0 0 0-1.594l-5.34-2.67a.89.89 0 0 0-1.288.796v5.34c0 .31.16.596.422.758zm1.36-4.658l2.46 1.23-2.46 1.23zm0 0M74.123 42.994l1.288-.643-.795-1.594-2.273 1.137v3.56l-1.288.644.795 1.593 2.273-1.136zm0 0M82.134 59.907v-3.56l1.288-.644-.795-1.594-2.273 1.137v3.56l-1.288.644.796 1.593zm0 0"/></svg>