<svg viewBox="0 0 110.979 128.417" xmlns="http://www.w3.org/2000/svg"><path d="m55.71 128.255-55.14-31.835v-63.67l55.14-31.834 55.14 31.835v63.669z" fill="#e5ce99" stroke="#000" stroke-width="1.8"/><path d="m55.709 10.992-46.482 26.798v53.594l46.482 26.795 46.485-26.795v-53.594zm44.603 79.312-44.603 25.716-44.604-25.716v-51.424l44.604-25.716 44.603 25.716z"/><path d="m55.576 117.196-45.313-26.162v-52.324l45.313-26.162 45.314 26.162v52.323z" fill-opacity=".295"/><path d="m28.374 89v2.684h54.723v-2.478l-6.607-10.118h-41.3z" fill="#ded4b9"/><path d="m28.374 89h54.723v2.89h-54.723z" fill="#847553"/><path d="m37.667 79.294v-42.333h36.343v42.333" fill="#ded4b9"/><path d="m41.796 41.092h28.084v23.128h-28.084z" fill="#fff"/><path d="m37.666 73.306h36.344v5.782h-36.344z" fill="#847553"/><path d="m65.131 61.742h-18.585a2.271 2.271 0 0 1 -2.271-2.272v-13.629a2.271 2.271 0 0 1 2.271-2.271h18.585a2.271 2.271 0 0 1 2.272 2.271v13.63a2.271 2.271 0 0 1 -2.272 2.27z" fill="#a2916c"/><path d="m47.579 49.351a2.271 2.271 0 0 1 2.271-2.271h17.553v-1.239a2.271 2.271 0 0 0 -2.272-2.271h-18.585a2.271 2.271 0 0 0 -2.271 2.271v13.63a2.271 2.271 0 0 0 2.271 2.27h1.033z" fill="#847553"/><path d="m37.666 73.306h8.053v5.782h-8.053z" fill="#a2916c"/><path d="m37.666 70.62h36.344v2.685h-36.344z" fill="#fff"/><path d="m56.664 70.828h13.422v2.478h-13.422z" fill="#ded4b9"/><path d="m58.936 70.828h8.467v5.575h-8.467z" fill="#69777c"/><path d="m37.666 70.62h8.26v2.89h-8.26z" fill="#d3d3d3"/><path d="m36.84 80.74h1.652v1.652h-1.652zm3.304 0h1.652v1.652h-1.652zm31.388 2.478h1.652v1.652h-1.652zm-24.78 2.478h14.868v1.652h-14.868zm29.736 0h2.478v1.652h-2.478zm-35.518-18.998h1.652v1.652h-1.652zm28.084 0h1.652v1.652h-1.652zm-3.304 0h1.652v1.652h-1.652zm-3.304 0h1.652v1.652h-1.652zm-9.086 3.304h1.652v1.652h-1.652zm-2.478 0h1.652v1.652h-1.652z" fill="#69777c"/><path d="m48.405 53.481h-1.652v-4.336a3.101 3.101 0 0 1 3.097-3.098v1.653c-.797 0-1.445.649-1.445 1.446zm-1.653.826h1.652v1.653h-1.652zm14.868 18.999h3.304v1.652h-3.304z" fill="#fff"/><g fill="#1d1d1b"><path d="m74.837 78.262v-42.127h-37.997v42.127h-2.087l-7.206 10.481v3.767h56.375v-3.55l-6.987-10.698zm-36.344-4.13h16.52v-1.652h-16.52v-.826h11.357v-1.654h-11.357v-32.213h34.692v32.215h-1.652v1.652h1.652v.826h-1.652v1.652h1.652v4.13h-34.692zm-9.293 16.726v-1.032h21.683v-1.652h-20.938l5.678-8.26h40.42l5.393 8.26h-3.295v1.652h4.13v1.032h-53.07z"/><path d="m52.534 88.174h3.304v1.652h-3.304zm4.956 0h1.652v1.652h-1.652zm-14.042-7.434h1.652v1.652h-1.652zm3.304 0h1.652v1.652h-1.652zm3.304 0h1.652v1.652h-1.652zm3.304 0h1.652v1.652h-1.652zm3.304 0h1.652v1.652h-1.652zm3.304 0h1.652v1.652h-1.652zm3.304 0h1.652v1.652h-1.652zm3.304 0h1.652v1.652h-1.652zm3.304 0h1.652v1.652h-1.652zm3.304 0h1.652v1.652h-1.652zm-36.344 4.956h1.652v1.652h-1.652zm3.304 0h1.652v1.652h-1.652zm3.304 0h1.652v1.652h-1.652zm19.824 0h1.652v1.652h-1.652zm3.304 0h1.652v1.652h-1.652zm3.304 0h1.652v1.652h-1.652zm3.304 0h1.652v1.652h-1.652zm-37.996-2.478h1.652v1.652h-1.652zm3.304 0h1.652v1.652h-1.652zm3.304 0h1.652v1.652h-1.652zm3.304 0h1.652v1.652h-1.652zm3.304 0h1.652v1.652h-1.652zm3.304 0h1.652v1.652h-1.652zm3.304 0h1.652v1.652h-1.652zm3.304 0h1.652v1.652h-1.652zm3.304 0h1.652v1.652h-1.652zm3.304 0h1.652v1.652h-1.652zm3.304 0h1.652v1.652h-1.652zm6.608 0h1.652v1.652h-1.652zm-42.126 2.478h2.479v1.652h-2.479zm8.26-20.65h29.737v-24.78h-29.737zm1.653-23.129h26.432v21.477h-26.432z"/><path d="m65.131 42.743h-18.585a3.101 3.101 0 0 0 -3.097 3.098v13.63a3.101 3.101 0 0 0 3.097 3.097h18.585a3.101 3.101 0 0 0 3.098-3.098v-13.629a3.101 3.101 0 0 0 -3.098-3.098zm1.446 16.727c0 .797-.648 1.446-1.446 1.446h-18.585a1.447 1.447 0 0 1 -1.445-1.446v-13.629c0-.797.648-1.445 1.445-1.445h18.585c.798 0 1.446.648 1.446 1.445zm-10.738 14.662h2.478v3.097h9.912v-3.097h2.478v-4.13h-14.868zm4.13 1.445v-3.923h6.608v3.923zm9.086-3.097h-.826v-.826h.826zm-11.564-.826h.826v.826h-.826z"/></g></svg>