<svg viewBox="0 0 110.979 128.417" xmlns="http://www.w3.org/2000/svg"><path d="m55.71 128.255-55.14-31.835v-63.67l55.14-31.834 55.14 31.835v63.669z" fill="#e8d2a7" stroke="#000" stroke-width="1.8"/><path d="m55.709 10.992-46.482 26.798v53.594l46.482 26.795 46.485-26.795v-53.594zm44.603 79.312-44.603 25.716-44.604-25.716v-51.424l44.604-25.716 44.603 25.716z"/><path d="m55.576 117.196-45.313-26.162v-52.324l45.313-26.162 45.314 26.162v52.323z" fill-opacity=".295"/><path d="m30.26 40.196h50.19a4.182 4.182 0 0 1 4.182 4.182v43.915a2.091 2.091 0 0 1 -2.09 2.092h-54.374a2.091 2.091 0 0 1 -2.091-2.092v-43.915a4.182 4.182 0 0 1 4.182-4.182zm0 0" fill="#a88e74"/><path d="m31.306 44.378h48.097c.578 0 1.046.468 1.046 1.046v28.231h-50.189v-28.231c0-.578.468-1.046 1.046-1.046zm0 0" fill="#a8a8a8"/><path d="m26.078 73.655h58.552v14.638a2.091 2.091 0 0 1 -2.09 2.092h-54.372a2.091 2.091 0 0 1 -2.091-2.092zm0 0" fill="#eaeae8"/><path d="m80.449 82.02a4.183 4.183 0 1 1 -8.365 0 4.183 4.183 0 0 1 8.365 0zm-12.547 0a4.183 4.183 0 1 1 -8.365 0 4.183 4.183 0 0 1 8.365 0zm0 0" fill="#cbcbcb"/><path d="m30.26 77.837h25.095v8.365h-25.095zm0 0" fill="#f3af3e"/><path d="m35.488 83.065h2.091v3.137h-2.09zm0 0" fill="#da922a"/><path d="m39.67 83.065h2.092v3.137h-2.092zm0 0" fill="#e06661"/><path d="m43.853 83.065h2.091v3.137h-2.091zm4.182 0h2.092v3.137h-2.092zm-14.638-5.228h2.091v3.137h-2.091zm4.183 0h2.09v3.137h-2.09zm4.182 0h2.09v3.137h-2.09zm4.182 0h2.091v3.137h-2.09zm4.183 0h2.09v3.137h-2.09zm0 0" fill="#da922a"/><path d="m62.498 78.303a1.029 1.029 0 0 0 -.202-.201 4.171 4.171 0 0 0 -1.647 1.095c.023.092.058.181.105.264l2.091 3.137a1.045 1.045 0 1 0 1.74-1.16zm12.547 0a1.036 1.036 0 0 0 -.21-.203 4.125 4.125 0 0 0 -1.53.963c-.044.042-.073.092-.113.136a.953.953 0 0 0 .105.264l2.091 3.137a1.045 1.045 0 1 0 1.74-1.16zm0 0" fill="#f3f3f0"/><path d="m33.397 47.515h2.091v2.091h-2.091zm4.183 0h2.09v2.091h-2.09zm4.182 0h2.09v2.091h-2.09zm4.182 0h2.091v2.091h-2.09zm4.183 0h2.09v2.091h-2.09zm4.182 0h2.091v2.091h-2.09zm4.182 0h2.092v2.091h-2.093zm4.183 0h2.09v2.091h-2.09zm4.182 0h2.091v2.091h-2.09zm4.182 0h2.092v2.091h-2.092zm-37.641 4.183h2.091v2.09h-2.091zm4.183 0h2.09v2.09h-2.09zm4.182 0h2.09v2.09h-2.09zm4.182 0h2.091v2.09h-2.09zm4.183 0h2.09v2.09h-2.09zm4.182 0h2.091v2.09h-2.09zm4.182 0h2.092v2.09h-2.093zm4.183 0h2.09v2.09h-2.09zm4.182 0h2.091v2.09h-2.09zm4.182 0h2.092v2.09h-2.092zm-37.641 4.182h2.091v2.091h-2.091zm4.183 0h2.09v2.091h-2.09zm4.182 0h2.09v2.091h-2.09zm4.182 0h2.091v2.091h-2.09zm4.183 0h2.09v2.091h-2.09zm4.182 0h2.091v2.091h-2.09zm4.182 0h2.092v2.091h-2.093zm4.183 0h2.09v2.091h-2.09zm4.182 0h2.091v2.091h-2.09zm4.182 0h2.092v2.091h-2.092zm-37.641 4.182h2.091v2.092h-2.091zm4.183 0h2.09v2.092h-2.09zm4.182 0h2.09v2.092h-2.09zm4.182 0h2.091v2.092h-2.09zm4.183 0h2.09v2.092h-2.09zm4.182 0h2.091v2.092h-2.09zm4.182 0h2.092v2.092h-2.093zm4.183 0h2.09v2.092h-2.09zm4.182 0h2.091v2.092h-2.09zm4.182 0h2.092v2.092h-2.092zm-37.641 4.183h2.091v2.09h-2.091zm4.183 0h2.09v2.09h-2.09zm4.182 0h2.09v2.09h-2.09zm4.182 0h2.091v2.09h-2.09zm4.183 0h2.09v2.09h-2.09zm4.182 0h2.091v2.09h-2.09zm4.182 0h2.092v2.09h-2.093zm4.183 0h2.09v2.09h-2.09zm4.182 0h2.091v2.09h-2.09zm4.182 0h2.092v2.09h-2.092zm-37.641 4.182h2.091v2.091h-2.091zm4.183 0h2.09v2.091h-2.09zm4.182 0h2.09v2.091h-2.09zm4.182 0h2.091v2.091h-2.09zm4.183 0h2.09v2.091h-2.09zm4.182 0h2.091v2.091h-2.09zm4.182 0h2.092v2.091h-2.093zm4.183 0h2.09v2.091h-2.09zm4.182 0h2.091v2.091h-2.09zm4.182 0h2.092v2.091h-2.092zm4.182-20.912h2.092v2.091h-2.091zm0 4.183h2.092v2.09h-2.091zm0 4.182h2.092v2.091h-2.091zm0 4.182h2.092v2.092h-2.091zm0 4.183h2.092v2.09h-2.091zm0 4.182h2.092v2.091h-2.091zm0 0" fill="#9c9c9c"/><path d="m80.654 39.355h-7.68l-16.38-9.679c-.832-.415-1.552-.295-1.835.252-.265.513-.291 1.114.481 1.605l13.77 7.89-38.75-.273a5.234 5.234 0 0 0 -5.228 5.228v43.915a3.137 3.137 0 0 0 3.137 3.137h54.371a3.137 3.137 0 0 0 3.137-3.137v-43.915c-.004-2.886-2.137-5.02-5.023-5.023zm-50.394 1.887 50.394.205c1.732.007 2.932 1.199 2.932 2.931v28.232h-2.092v-28.23c0-.579-.263-.839-.84-.841l-50.394-.205a1.044 1.044 0 0 0 -1.045 1.045v28.231h-2.092v-28.23a3.132 3.132 0 0 1 3.137-3.137zm49.143 31.367h-48.097v-27.185h48.097zm4.183 15.684c0 .578-.469 1.046-1.046 1.046h-54.37a1.046 1.046 0 0 1 -1.046-1.046v-13.592h56.463z"/><path d="m76.266 76.792a5.228 5.228 0 1 0 0 10.455 5.228 5.228 0 0 0 0-10.455zm0 8.365a3.137 3.137 0 0 1 -3.136-3.137 3.103 3.103 0 0 1 .633-1.87l1.634 2.45a1.046 1.046 0 0 0 1.74-1.16l-1.635-2.453c.25-.067.506-.101.764-.104a3.137 3.137 0 1 1 0 6.274zm-12.546-8.365a5.228 5.228 0 1 0 -.001 10.455 5.228 5.228 0 0 0 0-10.455zm0 8.365a3.137 3.137 0 0 1 -3.137-3.137 3.103 3.103 0 0 1 .633-1.87l1.633 2.45a1.046 1.046 0 0 0 1.74-1.16l-1.634-2.453c.25-.067.506-.101.764-.104a3.137 3.137 0 1 1 0 6.274zm-8.365-8.365h-25.095c-.577 0-1.045.468-1.045 1.045v8.365c0 .578.468 1.046 1.045 1.046h25.095c.577 0 1.045-.468 1.045-1.046v-8.365c0-.577-.468-1.045-1.045-1.045zm-1.046 8.365h-4.182v-2.092h-2.092v2.092h-2.09v-2.092h-2.092v2.092h-2.091v-2.092h-2.092v2.092h-2.092v-2.092h-2.09v2.092h-4.183v-6.274h2.091v2.091h2.091v-2.09h2.091v2.09h2.092v-2.09h2.09v2.09h2.092v-2.09h2.091v2.09h2.091v-2.09h2.092v2.09h2.09v-2.09h2.092zm-20.912-37.642h2.091v2.091h-2.091zm4.183 0h2.09v2.091h-2.09zm4.182 0h2.09v2.091h-2.09zm4.182 0h2.091v2.091h-2.09zm4.183 0h2.09v2.091h-2.09zm4.182 0h2.091v2.091h-2.09zm4.182 0h2.092v2.091h-2.093zm4.183 0h2.09v2.091h-2.09zm4.182 0h2.091v2.091h-2.09zm4.182 0h2.092v2.091h-2.092zm-37.641 4.183h2.091v2.09h-2.091zm4.183 0h2.09v2.09h-2.09zm4.182 0h2.09v2.09h-2.09zm4.182 0h2.091v2.09h-2.09zm4.183 0h2.09v2.09h-2.09zm4.182 0h2.091v2.09h-2.09zm4.182 0h2.092v2.09h-2.093zm4.183 0h2.09v2.09h-2.09zm4.182 0h2.091v2.09h-2.09zm4.182 0h2.092v2.09h-2.092zm-37.641 4.182h2.091v2.091h-2.091zm4.183 0h2.09v2.091h-2.09zm4.182 0h2.09v2.091h-2.09zm4.182 0h2.091v2.091h-2.09zm4.183 0h2.09v2.091h-2.09zm4.182 0h2.091v2.091h-2.09zm4.182 0h2.092v2.091h-2.093zm4.183 0h2.09v2.091h-2.09zm4.182 0h2.091v2.091h-2.09zm4.182 0h2.092v2.091h-2.092zm-37.641 4.182h2.091v2.092h-2.091zm4.183 0h2.09v2.092h-2.09zm4.182 0h2.09v2.092h-2.09zm4.182 0h2.091v2.092h-2.09zm4.183 0h2.09v2.092h-2.09zm4.182 0h2.091v2.092h-2.09zm4.182 0h2.092v2.092h-2.093zm4.183 0h2.09v2.092h-2.09zm4.182 0h2.091v2.092h-2.09zm4.182 0h2.092v2.092h-2.092zm-37.641 4.183h2.091v2.09h-2.091zm4.183 0h2.09v2.09h-2.09zm4.182 0h2.09v2.09h-2.09zm4.182 0h2.091v2.09h-2.09zm4.183 0h2.09v2.09h-2.09zm4.182 0h2.091v2.09h-2.09zm4.182 0h2.092v2.09h-2.093zm4.183 0h2.09v2.09h-2.09zm4.182 0h2.091v2.09h-2.09zm4.182 0h2.092v2.09h-2.092zm-37.641 4.182h2.091v2.091h-2.091zm4.183 0h2.09v2.091h-2.09zm4.182 0h2.09v2.091h-2.09zm4.182 0h2.091v2.091h-2.09zm4.183 0h2.09v2.091h-2.09zm4.182 0h2.091v2.091h-2.09zm4.182 0h2.092v2.091h-2.093zm4.183 0h2.09v2.091h-2.09zm4.182 0h2.091v2.091h-2.09zm4.182 0h2.092v2.091h-2.092zm4.182-20.912h2.092v2.091h-2.091zm0 4.183h2.092v2.09h-2.091zm0 4.182h2.092v2.091h-2.091zm0 4.182h2.092v2.092h-2.091zm0 4.183h2.092v2.09h-2.091zm0 4.182h2.092v2.091h-2.091zm0 0"/></svg>