<svg viewBox="0 0 110.979 128.417" xmlns="http://www.w3.org/2000/svg"><path d="m55.71 128.255-55.14-31.835v-63.67l55.14-31.834 55.14 31.835v63.669z" fill="#ea8477" stroke="#000" stroke-width="1.8"/><path d="m55.709 10.992-46.482 26.798v53.594l46.482 26.795 46.485-26.795v-53.594zm44.603 79.312-44.603 25.716-44.604-25.716v-51.424l44.604-25.716 44.603 25.716z"/><path d="m55.576 117.196-45.313-26.162v-52.324l45.313-26.162 45.314 26.162v52.323z" fill-opacity=".295"/><path d="m74.339 74.754v4.363c0 3-1.192 5.877-3.312 7.997l-.08.08h-29.405l-.08-.08a11.31 11.31 0 0 1 -3.313-7.997v-4.363" fill="#946c5a"/><path d="m44.935 64.576-16.963 7.916a5.655 5.655 0 1 0 5.654 5.655l10.178-2.262-1.13 7.917-4.524 13.57a3.393 3.393 0 0 0 3.393 3.393h6.785l4.524-9.047h6.785l4.524 9.047h6.785a3.393 3.393 0 0 0 3.393-3.393l-4.524-13.57-1.13-7.917 10.178 2.262a5.655 5.655 0 1 0 5.654-5.655l-16.963-7.916" fill="#67ac5b"/><path d="m26.84 39.696 2.263-6.785 2.261 6.785 1.131 47.498h-6.785z" fill="#d1d8db"/><path d="m25.71 66.838h6.785v20.356h-6.785z" fill="#946c5a"/><path d="m81.125 39.696 2.261-6.785 2.262 6.785 1.131 47.498h-6.785z" fill="#d1d8db"/><path d="m79.994 66.838h6.785v20.356h-6.785z" fill="#946c5a"/><path d="m64.16 65.707 4.524 10.178 1.131 7.917-10.178 3.392h-6.785l-10.178-3.392 1.13-7.917 4.524-10.178" fill="#fae0b8"/><circle cx="56.24412" cy="84.93268" fill="#74564a" r="2.26182" stroke-width="1.13091"/><path d="m71.964 90.248 1.598 4.791-11.148 2.23-1.646-3.29zm-31.439 0-1.597 4.793 11.147 2.229 1.646-3.29zm32.644-23.052 5.828 2.72-3.232 7.542-3.647-.81zm-32.798 9.453-3.647.81-3.232-7.543 5.828-2.72z" fill="#e25341"/><path d="m76.6 55.529c0-3.044-2.175-5.802-5.694-7.834-.428-9.902-6.818-14.784-14.662-14.784s-14.233 4.882-14.66 14.784c-3.52 2.032-5.696 4.79-5.696 7.834 0 4.756 5.293 8.82 12.78 10.49 2.214 1.923 4.8 3.08 7.576 3.08 2.777 0 5.363-1.157 7.578-3.08 7.486-1.669 12.778-5.734 12.778-10.489z" fill="#97c05c"/><path d="m73.956 49.984a15.161 15.161 0 0 0 -3.052-2.29 19.952 19.952 0 0 0 -.709-4.542l-7.165-1.194-6.786 2.262-6.785-2.262-7.167 1.194a19.942 19.942 0 0 0 -.709 4.543 15.193 15.193 0 0 0 -3.05 2.289l7.533 2.152 3.652-1.217a20.346 20.346 0 0 1 6.437-1.045h.179c2.188 0 4.362.353 6.437 1.045l3.652 1.217z" fill="#e25341"/><path d="m56.244 70.23c-2.828 0-5.622-1.094-8.1-3.17-8.143-1.89-13.387-6.398-13.387-11.531 0-3.202 2.029-6.202 5.732-8.497.646-9.29 6.775-15.252 15.755-15.252 8.981 0 15.11 5.963 15.756 15.252 3.703 2.295 5.732 5.294 5.732 8.497 0 5.133-5.244 9.64-13.388 11.532-2.477 2.075-5.271 3.17-8.1 3.17zm0-36.189c-7.982 0-13.166 5.251-13.53 13.703-.017.386-.23.737-.564.93-3.31 1.91-5.131 4.345-5.131 6.855 0 4.027 4.78 7.799 11.895 9.386.183.041.353.127.495.25 4.224 3.669 9.448 3.669 13.672 0 .141-.122.312-.209.495-.25 7.114-1.587 11.894-5.36 11.894-9.386 0-2.51-1.822-4.945-5.131-6.855a1.131 1.131 0 0 1 -.564-.93c-.363-8.452-5.549-13.703-13.53-13.703z"/><path d="m56.244 45.35c-.12 0-.24-.019-.357-.057l-6.517-2.173-6.509 1.085-.372-2.231 6.786-1.131c.183-.03.368-.016.542.042l6.428 2.143 6.429-2.143c.174-.058.36-.074.544-.042l6.785 1.13-.372 2.232-6.508-1.085-6.519 2.173a1.149 1.149 0 0 1 -.359.058zm10.179 7.917c-.121 0-.242-.02-.358-.058l-3.651-1.217a19.161 19.161 0 0 0 -6.08-.987h-.179c-2.07 0-4.115.331-6.079.987l-3.651 1.217a1.123 1.123 0 0 1 -.669.015l-7.916-2.262.622-2.175 7.58 2.166 3.32-1.107a21.433 21.433 0 0 1 6.793-1.103h.179c2.313 0 4.6.371 6.794 1.103l3.32 1.107 7.58-2.166.622 2.175-7.916 2.262a1.166 1.166 0 0 1 -.311.043z"/><circle cx="48.32775" cy="46.48174" r="2.26182" stroke-width="1.13091"/><circle cx="64.16049" cy="46.48174" r="2.26182" stroke-width="1.13091"/><path d="m56.42 63.445h-.352a19.168 19.168 0 0 1 -10.664-3.229l-2.227-1.484 1.254-1.882 2.227 1.485a16.914 16.914 0 0 0 9.409 2.848h.353c3.36 0 6.613-.985 9.409-2.848l2.227-1.485 1.254 1.882-2.227 1.484a19.158 19.158 0 0 1 -10.662 3.23zm-13.651 11.98 4.525-10.177 2.067.919-4.526 10.177zm20.357-9.257 2.067-.918 4.523 10.178-2.067.918zm-8.012 2.932h2.261v13.57h-2.261z"/><path d="m56.244 78.147h-6.784c-.175 0-.35-.04-.506-.119l-4.523-2.262 1.012-2.023 4.284 2.142h6.518zm0 10.178a3.397 3.397 0 0 1 -3.392-3.393 3.397 3.397 0 0 1 3.392-3.392 3.397 3.397 0 0 1 3.393 3.392 3.397 3.397 0 0 1 -3.393 3.393zm0-4.523c-.623 0-1.13.507-1.13 1.13 0 .624.507 1.131 1.13 1.131.624 0 1.131-.507 1.131-1.13 0-.624-.507-1.131-1.13-1.131z"/><path d="m63.03 78.147h-6.786v-2.262h6.519l4.285-2.143 1.012 2.023-4.523 2.262c-.158.08-.332.12-.507.12zm7.916 23.749h-6.785c-.429 0-.82-.242-1.012-.625l-4.21-8.422h-5.389l-4.212 8.422a1.13 1.13 0 0 1 -1.01.625h-6.786a4.528 4.528 0 0 1 -4.524-4.524c0-.12.02-.242.058-.357l4.523-13.57 2.146.715-4.46 13.379a2.265 2.265 0 0 0 2.257 2.095h6.086l4.212-8.422a1.13 1.13 0 0 1 1.01-.625h6.786c.429 0 .82.242 1.012.625l4.21 8.422h6.087c1.192 0 2.17-.926 2.256-2.096l-4.459-13.38 2.146-.715 4.523 13.571c.039.116.058.237.058.358a4.528 4.528 0 0 1 -4.524 4.524zm-38.991-31.529 12.439-6.787 1.083 1.985-12.438 6.788zm35.06-4.797 1.083-1.986 12.44 6.787-1.083 1.985z"/><path d="m59.637 88.325h-6.785c-.121 0-.242-.019-.358-.057l-10.178-3.393a1.13 1.13 0 0 1 -.76-1.233l.898-6.297-7.758 1.724a6.721 6.721 0 0 1 -1.296 3.151l-1.808-1.36a4.483 4.483 0 0 0 .903-2.714c0-.53.369-.99.886-1.104l10.178-2.262a1.128 1.128 0 0 1 1.364 1.263l-.998 6.983 9.11 3.036h6.419l9.108-3.036-.997-6.982a1.128 1.128 0 0 1 1.364-1.264l10.178 2.262c.518.114.887.574.887 1.104 0 .988.312 1.927.903 2.713l-1.81 1.358a6.735 6.735 0 0 1 -1.295-3.15l-7.758-1.724.899 6.297a1.13 1.13 0 0 1 -.761 1.233l-10.179 3.392a1.09 1.09 0 0 1 -.356.06zm-18.451 3.333.715-2.146 10.178 3.393-.715 2.145zm-2.126 4.56.443-2.218 11.31 2.262-.444 2.218zm21.351-3.314 10.179-3.394.715 2.145-10.177 3.395zm1.264 3.358 11.308-2.264.444 2.218-11.307 2.264z"/><path d="m38.156 66.964 2.248-.25 1.13 10.178-2.248.25zm-5.571 3.71 2.08-.89 3.392 7.916-2.08.89zm38.37 6.218 1.13-10.178 2.249.25-1.131 10.178zm3.476.808 3.395-7.917 2.079.892-3.395 7.916z"/><path d="m32.495 88.325h-6.785a1.13 1.13 0 0 1 -1.131-1.158l1.13-47.498c.003-.112.023-.224.059-.33l2.261-6.786a1.131 1.131 0 0 1 2.147 0l2.262 6.786c.035.106.055.218.057.33l1.131 47.498a1.13 1.13 0 0 1 -1.13 1.158zm-5.627-2.262h4.47l-1.1-46.17-1.135-3.407-1.136 3.407zm13.875 1.931-.08-.08a12.358 12.358 0 0 1 -3.644-8.797v-2.1h2.262v2.1c0 2.719 1.058 5.275 2.98 7.197l.081.08zm31.003 0-1.6-1.6.081-.08a10.111 10.111 0 0 0 2.981-7.197v-2.1h2.262v2.1c0 3.323-1.294 6.446-3.644 8.797z"/><path d="m25.258 84.367a6.787 6.787 0 0 1 -4.072-6.22 6.805 6.805 0 0 1 5.43-6.65l.45 2.217a4.524 4.524 0 1 0 -.904 8.58zm61.973 0-.904-2.073a4.524 4.524 0 0 0 -.904-8.58l.45-2.217a6.805 6.805 0 0 1 5.43 6.65 6.787 6.787 0 0 1 -4.072 6.22zm-53.605-16.398h-9.046a3.397 3.397 0 0 1 -3.393-3.393v-9.046h2.262v9.047c0 .623.508 1.131 1.131 1.131h9.047c.623 0 1.131-.508 1.131-1.13v-9.048h2.262v9.047a3.397 3.397 0 0 1 -3.393 3.393z"/><path d="m25.71 81.54h6.785v2.262h-6.785zm-.8-3.062 6.785-6.785 1.6 1.6-6.786 6.785zm61.87 9.847h-6.786a1.13 1.13 0 0 1 -1.13-1.158l1.13-47.498c.003-.112.023-.224.058-.33l2.262-6.786a1.131 1.131 0 0 1 2.145 0l2.262 6.786c.035.106.056.218.058.33l1.131 47.498a1.13 1.13 0 0 1 -1.13 1.158zm-5.628-2.262h4.469l-1.1-46.17-1.135-3.407-1.135 3.407z"/><path d="m87.91 67.969h-9.047a3.397 3.397 0 0 1 -3.393-3.393v-9.046h2.262v9.047c0 .623.508 1.131 1.13 1.131h9.048c.623 0 1.13-.508 1.13-1.13v-9.048h2.263v9.047a3.397 3.397 0 0 1 -3.393 3.393zm-7.916 13.571h6.785v2.262h-6.785zm-.801-8.248 1.6-1.6 6.784 6.786-1.599 1.6z"/></svg>