<svg xmlns="http://www.w3.org/2000/svg" viewBox="0 0 110.979 128.417"><path d="M55.71 128.255L.57 96.42V32.75L55.71.916l55.14 31.835V96.42z" fill="#f29c37" stroke="#000" stroke-width="1.8"/><path d="M55.709 10.992L9.227 37.79v53.594l46.482 26.795 46.485-26.795V37.79zm44.603 79.312L55.709 116.02 11.105 90.304V38.88l44.604-25.716 44.603 25.716z"/><path d="M55.576 117.196L10.263 91.034V38.71l45.313-26.162L100.89 38.71v52.323z" fill-opacity=".295"/><path fill="#946c5a" d="M31.323 52.384h-4.218V35.513h4.218zM72.447 74.528v4.068c0 2.796-1.111 5.479-3.088 7.456l-.075.075H41.868l-.075-.075a10.546 10.546 0 0 1-3.089-7.456v-4.068"/><path d="M45.031 65.038l-15.817 7.38a5.273 5.273 0 1 0 5.272 5.273l9.49-2.109-1.054 7.381-4.218 12.654a3.163 3.163 0 0 0 3.164 3.163h6.326l4.218-8.435h6.327l4.218 8.435h6.327a3.163 3.163 0 0 0 3.163-3.163L68.23 82.963l-1.054-7.38 9.49 2.108a5.273 5.273 0 1 0 5.272-5.272L66.12 65.038" fill="#67ac5b"/><path fill="#946c5a" d="M84.046 86.127h-4.218V69.255h4.218zM79.828 35.513h4.218v16.871h-4.218zM27.105 69.255h4.218v16.872h-4.218z"/><path fill="#657b88" d="M27.105 69.255h4.218v4.218h-4.218zM27.105 48.166h4.218v4.218h-4.218zM79.828 69.255h4.218v4.218h-4.218zM79.828 48.166h4.218v4.218h-4.218z"/><path fill="#fae0b8" d="M62.957 66.092l4.218 9.49 1.054 7.381-9.49 3.164h-6.327l-9.49-3.164 1.055-7.38 4.217-9.491"/><circle r="2" cy="48" cx="32" fill="#74564a" transform="translate(21.833 33.404) scale(1.05446)"/><path fill="#f29c37" d="M70.233 88.974l1.49 4.468-10.395 2.079-1.534-3.067zM40.919 88.974l-1.49 4.469 10.395 2.078 1.534-3.067zM71.356 67.48l5.434 2.537-3.013 7.032-3.4-.755zM40.775 76.294l-3.4.755-3.014-7.032 5.435-2.536z"/><path d="M74.556 56.602c0-2.838-2.029-5.41-5.31-7.304-.399-9.233-6.357-13.785-13.67-13.785-7.314 0-13.272 4.552-13.67 13.785-3.282 1.894-5.31 4.466-5.31 7.304 0 4.435 4.934 8.224 11.915 9.781 2.064 1.793 4.476 2.872 7.065 2.872 2.588 0 5-1.08 7.065-2.872 6.98-1.557 11.915-5.346 11.915-9.781z" fill="#97c05c"/><path d="M72.09 51.432a14.136 14.136 0 0 0-2.845-2.134 18.603 18.603 0 0 0-.661-4.236l-6.681-1.114-6.327 2.11-6.327-2.11-6.682 1.114a18.593 18.593 0 0 0-.661 4.236 14.166 14.166 0 0 0-2.845 2.134l7.025 2.006 3.404-1.134a18.97 18.97 0 0 1 6.002-.974h.167c2.04 0 4.067.329 6.002.974l3.405 1.134z" fill="#f29c37"/><path d="M55.576 70.31c-2.637 0-5.243-1.02-7.552-2.956-7.594-1.763-12.483-5.966-12.483-10.752 0-2.985 1.892-5.783 5.344-7.922.603-8.662 6.317-14.222 14.69-14.222 8.374 0 14.088 5.56 14.691 14.222 3.453 2.14 5.345 4.936 5.345 7.922 0 4.786-4.89 8.99-12.483 10.752-2.31 1.935-4.915 2.956-7.552 2.956zm0-33.743c-7.443 0-12.276 4.896-12.616 12.776-.016.36-.214.687-.526.868-3.085 1.78-4.784 4.051-4.784 6.39 0 3.756 4.457 7.272 11.09 8.753.172.038.33.118.463.233 3.938 3.42 8.809 3.42 12.747 0 .132-.114.291-.195.462-.233 6.632-1.48 11.09-4.997 11.09-8.752 0-2.34-1.7-4.61-4.785-6.391a1.055 1.055 0 0 1-.526-.868c-.338-7.88-5.173-12.776-12.615-12.776z"/><path d="M55.576 47.112a1.06 1.06 0 0 1-.333-.054l-6.078-2.026-6.069 1.012-.347-2.08 6.327-1.055c.17-.029.344-.015.506.039l5.994 1.998 5.993-1.998c.163-.054.337-.069.507-.04l6.327 1.055-.347 2.08-6.068-1.01-6.078 2.025c-.11.036-.221.054-.334.054zM65.066 54.493c-.113 0-.226-.018-.333-.054l-3.405-1.134a17.866 17.866 0 0 0-5.669-.921h-.167c-1.93 0-3.837.309-5.667.92L46.42 54.44c-.2.068-.42.073-.623.014l-7.382-2.109.58-2.028 7.067 2.02 3.096-1.033a19.984 19.984 0 0 1 6.334-1.028h.167a20 20 0 0 1 6.335 1.028l3.096 1.033 7.067-2.02.58 2.028-7.381 2.109c-.095.026-.193.04-.29.04z"/><circle r="2" cy="14" cx="25" transform="translate(21.833 33.404) scale(1.05446)"/><circle r="2" cy="14" cx="39" transform="translate(21.833 33.404) scale(1.05446)"/><path d="M55.74 63.983h-.329c-3.55 0-6.988-1.04-9.943-3.01l-2.077-1.385 1.17-1.755 2.076 1.385a15.771 15.771 0 0 0 8.773 2.656h.33c3.132 0 6.166-.918 8.772-2.656l2.077-1.385 1.169 1.755-2.076 1.385a17.863 17.863 0 0 1-9.942 3.01zM43.01 75.153l4.22-9.49 1.927.858-4.22 9.489zM61.992 66.522l1.927-.856 4.217 9.49-1.927.856zM54.521 69.255h2.11V81.91h-2.11z"/><path d="M55.576 77.691h-6.327c-.163 0-.326-.038-.471-.11l-4.218-2.11.944-1.886 3.994 1.997h6.078zM55.576 87.181a3.167 3.167 0 0 1-3.164-3.163 3.167 3.167 0 0 1 3.164-3.163 3.167 3.167 0 0 1 3.163 3.163 3.167 3.167 0 0 1-3.163 3.163zm0-4.218c-.581 0-1.055.474-1.055 1.055 0 .58.474 1.054 1.055 1.054.58 0 1.054-.473 1.054-1.054 0-.581-.473-1.055-1.054-1.055z"/><path d="M61.903 77.691h-6.327v-2.109h6.078l3.995-1.998.944 1.886-4.218 2.11a1.052 1.052 0 0 1-.472.111zM69.284 99.835h-6.327c-.4 0-.765-.226-.944-.583l-3.926-7.853h-5.023l-3.927 7.853a1.053 1.053 0 0 1-.943.583h-6.326a4.222 4.222 0 0 1-4.218-4.218c0-.113.018-.226.054-.333l4.218-12.654 2 .668-4.158 12.474a2.112 2.112 0 0 0 2.104 1.954h5.675l3.927-7.853c.178-.357.543-.583.942-.583h6.327c.4 0 .765.226.944.583l3.926 7.853h5.675a2.112 2.112 0 0 0 2.103-1.955L67.23 83.297l2-.668 4.218 12.654c.036.108.054.221.054.334a4.222 4.222 0 0 1-4.218 4.218zM30.876 70.478l13.708-6.395.892 1.91-13.709 6.397zM26.77 83.509c-2.323-1.005-3.883-3.343-3.883-5.819a6.33 6.33 0 0 1 3.796-5.8l.844 1.934a4.218 4.218 0 0 0-2.53 3.866c0 1.647 1.049 3.208 2.61 3.883z"/><path d="M58.74 87.181h-6.328c-.112 0-.225-.018-.333-.054l-9.49-3.163a1.054 1.054 0 0 1-.71-1.15l.839-5.87-7.235 1.607a6.331 6.331 0 0 1-3.737 4.94L30.9 81.56a4.222 4.222 0 0 0 2.531-3.868c0-.494.344-.923.826-1.029l9.49-2.109a1.052 1.052 0 0 1 1.272 1.178l-.93 6.51 8.493 2.831h5.985l8.493-2.83-.93-6.511a1.052 1.052 0 0 1 1.272-1.178l9.49 2.109c.483.106.826.535.826 1.03 0 1.677.994 3.195 2.531 3.866l-.843 1.933a6.327 6.327 0 0 1-3.737-4.942l-7.235-1.607.838 5.872c.072.505-.227.989-.71 1.15l-9.49 3.162a1.038 1.038 0 0 1-.334.055zM84.482 83.464l-.87-1.92c1.521-.69 2.543-2.239 2.543-3.854a4.213 4.213 0 0 0-2.577-3.887l.821-1.942a6.32 6.32 0 0 1 3.865 5.83c0 2.465-1.485 4.731-3.782 5.773zM65.675 65.992l.892-1.911 13.708 6.397-.892 1.911zM41.535 90.289l.667-2 9.49 3.162-.667 2.001zM39.553 94.54l.413-2.067 10.545 2.108-.413 2.068zM59.46 91.451l9.49-3.165.668 2-9.49 3.166zM60.64 94.582l10.543-2.111.414 2.068-10.544 2.11z"/><path d="M38.71 67.264l2.096-.233 1.054 9.49-2.096.233zM33.516 70.724l1.938-.831 3.164 7.381-1.939.83zM69.292 76.521l1.054-9.49 2.096.233-1.054 9.49zM72.533 77.274l3.165-7.381 1.938.831-3.165 7.381zM31.323 87.181h-4.218a1.055 1.055 0 0 1-1.054-1.054V69.255c0-.582.472-1.054 1.054-1.054h4.218c.582 0 1.055.472 1.055 1.054v16.872c0 .582-.473 1.054-1.055 1.054zm-3.163-2.109h2.109V70.31h-2.11zM31.323 53.438h-4.218a1.055 1.055 0 0 1-1.054-1.054V35.513c0-.582.472-1.055 1.054-1.055h4.218c.582 0 1.055.473 1.055 1.055v16.871c0 .582-.473 1.054-1.055 1.054zM28.16 51.33h2.109V36.567h-2.11zM84.046 87.181h-4.218a1.055 1.055 0 0 1-1.054-1.054V69.255c0-.582.472-1.054 1.054-1.054h4.218c.582 0 1.055.472 1.055 1.054v16.872c0 .582-.473 1.054-1.055 1.054zm-3.163-2.109h2.109V70.31h-2.11z"/><path d="M27.105 72.419h4.218v2.109h-4.218zM27.105 47.112h4.218v2.109h-4.218zM29.96 70l-1.491-1.49 2.075-2.075c.502-.503.78-1.172.78-1.882 0-1.148-.732-2.163-1.82-2.526l-1.246-.415a4.762 4.762 0 0 1-3.262-4.525c0-1.274.497-2.473 1.397-3.373l2.076-2.075 1.49 1.49-2.074 2.076a2.648 2.648 0 0 0-.78 1.882c0 1.147.731 2.163 1.82 2.525l1.246.416a4.762 4.762 0 0 1 3.261 4.525 4.741 4.741 0 0 1-1.397 3.373zM81.192 70l-2.075-2.074a4.74 4.74 0 0 1-1.398-3.373 4.764 4.764 0 0 1 3.263-4.526l1.244-.416a2.656 2.656 0 0 0 1.82-2.524c0-.71-.277-1.38-.779-1.882l-2.075-2.075 1.49-1.491 2.076 2.075a4.74 4.74 0 0 1 1.397 3.373 4.764 4.764 0 0 1-3.262 4.526l-1.245.415a2.656 2.656 0 0 0-1.82 2.525c0 .71.278 1.379.78 1.882l2.075 2.075z"/><path d="M84.046 53.438h-4.218a1.055 1.055 0 0 1-1.054-1.054V35.513c0-.582.472-1.055 1.054-1.055h4.218c.582 0 1.055.473 1.055 1.055v16.871c0 .582-.473 1.054-1.055 1.054zm-3.163-2.108h2.109V36.567h-2.11zM79.828 72.419h4.218v2.109h-4.218z"/><path d="M79.828 47.112h4.218v2.109h-4.218zM41.122 86.872l-.075-.075a11.522 11.522 0 0 1-3.397-8.201v-1.96h2.109v1.96c0 2.535.987 4.918 2.78 6.71l.074.075zM70.03 86.872l-1.492-1.49.075-.076a9.428 9.428 0 0 0 2.78-6.71v-1.96h2.109v1.96c0 3.098-1.207 6.01-3.398 8.201z"/></svg>