<svg xmlns="http://www.w3.org/2000/svg" xmlns:xlink="http://www.w3.org/1999/xlink" viewBox="0 0 112.88 128"><defs><style>.cls-1{fill:none;}.cls-2{fill:#111;}.cls-3{stroke:#ef7455;stroke-miterlimit:10;stroke-width:1.12px;fill:url(#linear-gradient);}.cls-4{clip-path:url(#clip-path);}.cls-5{opacity:0.04;}.cls-21,.cls-6{fill:#fff;}.cls-16,.cls-7{opacity:0.3;}.cls-8{opacity:0.15;}.cls-9{fill:url(#linear-gradient-2);}.cls-10{fill:#ea8754;}.cls-11{fill:#f19b68;}.cls-12{fill:url(#linear-gradient-3);}.cls-13,.cls-14{fill:#f3b271;}.cls-14,.cls-18{opacity:0.5;}.cls-15{fill:#ef8754;}.cls-16,.cls-17{fill:#f6f2d5;}.cls-18{fill:#f2a2a1;}.cls-19{fill:#e8e3c7;}.cls-20,.cls-21{opacity:0.8;}</style><linearGradient id="linear-gradient" x1="109.69" y1="4.01" x2="24.55" y2="101.78" gradientUnits="userSpaceOnUse"><stop offset="0.42" stop-color="#120200"/><stop offset="0.95" stop-color="#121212"/></linearGradient><clipPath id="clip-path"><polygon class="cls-1" points="102.83 90.2 102.83 37.8 57.45 11.6 12.07 37.8 12.07 90.2 57.45 116.4 102.83 90.2"/></clipPath><linearGradient id="linear-gradient-2" x1="15.7" y1="62.93" x2="34.86" y2="57.73" gradientUnits="userSpaceOnUse"><stop offset="0" stop-color="#eab7b8"/><stop offset="0.29" stop-color="#f1bc92"/><stop offset="0.48" stop-color="#f5bf7f"/><stop offset="0.79" stop-color="#e0965f"/><stop offset="1" stop-color="#d47e4d"/></linearGradient><linearGradient id="linear-gradient-3" x1="36.2" y1="62.01" x2="76.3" y2="70.42" gradientUnits="userSpaceOnUse"><stop offset="0" stop-color="#f5bf7f"/><stop offset="0.26" stop-color="#efbaa0"/><stop offset="0.49" stop-color="#eab7b8"/><stop offset="0.8" stop-color="#f1bc92"/><stop offset="1" stop-color="#f5bf7f"/></linearGradient></defs><title>infura</title><g id="Layer_2" data-name="Layer 2"><g id="Layer_1-2" data-name="Layer 1"><polygon class="cls-2" points="112.88 96 112.88 32 57.45 0 2.02 32 2.02 96 57.45 128 112.88 96"/><polygon class="cls-3" points="103.45 90.56 103.45 37.44 57.45 10.88 11.45 37.44 11.45 90.56 57.45 117.12 103.45 90.56"/><g class="cls-4"><g class="cls-5"><polygon class="cls-6" points="3 13.85 1.5 11.37 0 13.85 1.5 14.74 3 13.85"/><polygon class="cls-6" points="1.5 15.2 0 14.31 1.5 16.44 3 14.31 1.5 15.2"/><polygon class="cls-6" points="11.62 13.85 10.12 11.37 8.62 13.85 10.12 14.74 11.62 13.85"/><polygon class="cls-6" points="10.12 15.2 8.62 14.31 10.12 16.44 11.62 14.31 10.12 15.2"/><polygon class="cls-6" points="20.23 13.85 18.74 11.37 17.24 13.85 18.74 14.74 20.23 13.85"/><polygon class="cls-6" points="18.74 15.2 17.24 14.31 18.74 16.44 20.24 14.31 18.74 15.2"/><polygon class="cls-6" points="28.85 13.85 27.35 11.37 25.86 13.85 27.35 14.74 28.85 13.85"/><polygon class="cls-6" points="27.35 15.2 25.85 14.31 27.36 16.44 28.85 14.31 27.35 15.2"/><polygon class="cls-6" points="37.47 13.85 35.97 11.37 34.48 13.85 35.97 14.74 37.47 13.85"/><polygon class="cls-6" points="35.97 15.2 34.47 14.31 35.98 16.44 37.47 14.31 35.97 15.2"/><polygon class="cls-6" points="46.09 13.85 44.59 11.37 43.09 13.85 44.59 14.74 46.09 13.85"/><polygon class="cls-6" points="44.59 15.2 43.09 14.31 44.59 16.44 46.09 14.31 44.59 15.2"/><polygon class="cls-6" points="54.7 13.85 53.21 11.37 51.71 13.85 53.21 14.74 54.7 13.85"/><polygon class="cls-6" points="53.21 15.2 51.71 14.31 53.21 16.44 54.71 14.31 53.21 15.2"/><polygon class="cls-6" points="63.32 13.85 61.83 11.37 60.33 13.85 61.83 14.74 63.32 13.85"/><polygon class="cls-6" points="61.83 15.2 60.33 14.31 61.83 16.44 63.33 14.31 61.83 15.2"/><polygon class="cls-6" points="71.94 13.85 70.44 11.37 68.95 13.85 70.44 14.74 71.94 13.85"/><polygon class="cls-6" points="70.44 15.2 68.94 14.31 70.45 16.44 71.94 14.31 70.44 15.2"/><polygon class="cls-6" points="80.56 13.85 79.06 11.37 77.56 13.85 79.06 14.74 80.56 13.85"/><polygon class="cls-6" points="79.06 15.2 77.56 14.31 79.06 16.44 80.56 14.31 79.06 15.2"/><polygon class="cls-6" points="89.18 13.85 87.68 11.37 86.18 13.85 87.68 14.74 89.18 13.85"/><polygon class="cls-6" points="87.68 15.2 86.18 14.31 87.68 16.44 89.18 14.31 87.68 15.2"/><polygon class="cls-6" points="97.8 13.85 96.3 11.37 94.8 13.85 96.3 14.74 97.8 13.85"/><polygon class="cls-6" points="96.3 15.2 94.8 14.31 96.3 16.44 97.8 14.31 96.3 15.2"/><polygon class="cls-6" points="106.41 13.85 104.92 11.37 103.42 13.85 104.92 14.74 106.41 13.85"/><polygon class="cls-6" points="104.92 15.2 103.42 14.31 104.92 16.44 106.42 14.31 104.92 15.2"/><polygon class="cls-6" points="7.14 21.3 5.64 18.81 4.14 21.3 5.64 22.18 7.14 21.3"/><polygon class="cls-6" points="5.64 22.64 4.14 21.75 5.64 23.88 7.14 21.75 5.64 22.64"/><polygon class="cls-6" points="15.75 21.3 14.26 18.81 12.76 21.3 14.26 22.18 15.75 21.3"/><polygon class="cls-6" points="14.26 22.64 12.76 21.75 14.26 23.88 15.76 21.75 14.26 22.64"/><polygon class="cls-6" points="24.37 21.3 22.88 18.81 21.38 21.3 22.88 22.18 24.37 21.3"/><polygon class="cls-6" points="22.88 22.64 21.38 21.75 22.88 23.88 24.38 21.75 22.88 22.64"/><polygon class="cls-6" points="32.99 21.3 31.49 18.81 30 21.3 31.49 22.18 32.99 21.3"/><polygon class="cls-6" points="31.49 22.64 29.99 21.75 31.5 23.88 32.99 21.75 31.49 22.64"/><polygon class="cls-6" points="41.61 21.3 40.11 18.81 38.61 21.3 40.11 22.18 41.61 21.3"/><polygon class="cls-6" points="40.11 22.64 38.61 21.75 40.11 23.88 41.61 21.75 40.11 22.64"/><polygon class="cls-6" points="50.23 21.3 48.73 18.81 47.23 21.3 48.73 22.18 50.23 21.3"/><polygon class="cls-6" points="48.73 22.64 47.23 21.75 48.73 23.88 50.23 21.75 48.73 22.64"/><polygon class="cls-6" points="58.84 21.3 57.35 18.81 55.85 21.3 57.35 22.18 58.84 21.3"/><polygon class="cls-6" points="57.35 22.64 55.85 21.75 57.35 23.88 58.85 21.75 57.35 22.64"/><polygon class="cls-6" points="67.46 21.3 65.97 18.81 64.47 21.3 65.97 22.18 67.46 21.3"/><polygon class="cls-6" points="65.97 22.64 64.47 21.75 65.97 23.88 67.47 21.75 65.97 22.64"/><polygon class="cls-6" points="76.08 21.3 74.58 18.81 73.09 21.3 74.58 22.18 76.08 21.3"/><polygon class="cls-6" points="74.58 22.64 73.08 21.75 74.59 23.88 76.08 21.75 74.58 22.64"/><polygon class="cls-6" points="84.7 21.3 83.2 18.81 81.7 21.3 83.2 22.18 84.7 21.3"/><polygon class="cls-6" points="83.2 22.64 81.7 21.75 83.2 23.88 84.7 21.75 83.2 22.64"/><polygon class="cls-6" points="93.32 21.3 91.82 18.81 90.32 21.3 91.82 22.18 93.32 21.3"/><polygon class="cls-6" points="91.82 22.64 90.32 21.75 91.82 23.88 93.32 21.75 91.82 22.64"/><polygon class="cls-6" points="101.94 21.3 100.44 18.81 98.94 21.3 100.44 22.18 101.94 21.3"/><polygon class="cls-6" points="100.44 22.64 98.94 21.75 100.44 23.88 101.94 21.75 100.44 22.64"/><polygon class="cls-6" points="110.55 21.3 109.06 18.81 107.56 21.3 109.06 22.18 110.55 21.3"/><polygon class="cls-6" points="109.06 22.64 107.56 21.75 109.06 23.88 110.56 21.75 109.06 22.64"/><polygon class="cls-6" points="3 28.74 1.5 26.26 0 28.74 1.5 29.62 3 28.74"/><polygon class="cls-6" points="1.5 30.08 0 29.19 1.5 31.32 3 29.19 1.5 30.08"/><polygon class="cls-6" points="11.62 28.74 10.12 26.26 8.62 28.74 10.12 29.62 11.62 28.74"/><polygon class="cls-6" points="10.12 30.08 8.62 29.19 10.12 31.32 11.62 29.19 10.12 30.08"/><polygon class="cls-6" points="20.23 28.74 18.74 26.26 17.24 28.74 18.74 29.62 20.23 28.74"/><polygon class="cls-6" points="18.74 30.08 17.24 29.19 18.74 31.32 20.24 29.19 18.74 30.08"/><polygon class="cls-6" points="28.85 28.74 27.35 26.26 25.86 28.74 27.35 29.62 28.85 28.74"/><polygon class="cls-6" points="27.35 30.08 25.85 29.19 27.36 31.32 28.85 29.19 27.35 30.08"/><polygon class="cls-6" points="37.47 28.74 35.97 26.26 34.48 28.74 35.97 29.62 37.47 28.74"/><polygon class="cls-6" points="35.97 30.08 34.47 29.19 35.98 31.32 37.47 29.19 35.97 30.08"/><polygon class="cls-6" points="46.09 28.74 44.59 26.26 43.09 28.74 44.59 29.62 46.09 28.74"/><polygon class="cls-6" points="44.59 30.08 43.09 29.19 44.59 31.32 46.09 29.19 44.59 30.08"/><polygon class="cls-6" points="54.7 28.74 53.21 26.26 51.71 28.74 53.21 29.62 54.7 28.74"/><polygon class="cls-6" points="53.21 30.08 51.71 29.19 53.21 31.32 54.71 29.19 53.21 30.08"/><polygon class="cls-6" points="63.32 28.74 61.83 26.26 60.33 28.74 61.83 29.62 63.32 28.74"/><polygon class="cls-6" points="61.83 30.08 60.33 29.19 61.83 31.32 63.33 29.19 61.83 30.08"/><polygon class="cls-6" points="71.94 28.74 70.44 26.26 68.95 28.74 70.44 29.62 71.94 28.74"/><polygon class="cls-6" points="70.44 30.08 68.94 29.19 70.45 31.32 71.94 29.19 70.44 30.08"/><polygon class="cls-6" points="80.56 28.74 79.06 26.26 77.56 28.74 79.06 29.62 80.56 28.74"/><polygon class="cls-6" points="79.06 30.08 77.56 29.19 79.06 31.32 80.56 29.19 79.06 30.08"/><polygon class="cls-6" points="89.18 28.74 87.68 26.26 86.18 28.74 87.68 29.62 89.18 28.74"/><polygon class="cls-6" points="87.68 30.08 86.18 29.19 87.68 31.32 89.18 29.19 87.68 30.08"/><polygon class="cls-6" points="97.8 28.74 96.3 26.26 94.8 28.74 96.3 29.62 97.8 28.74"/><polygon class="cls-6" points="96.3 30.08 94.8 29.19 96.3 31.32 97.8 29.19 96.3 30.08"/><polygon class="cls-6" points="106.41 28.74 104.92 26.26 103.42 28.74 104.92 29.62 106.41 28.74"/><polygon class="cls-6" points="104.92 30.08 103.42 29.19 104.92 31.32 106.42 29.19 104.92 30.08"/><polygon class="cls-6" points="7.14 36.18 5.64 33.7 4.14 36.18 5.64 37.06 7.14 36.18"/><polygon class="cls-6" points="5.64 37.52 4.14 36.64 5.64 38.77 7.14 36.64 5.64 37.52"/><polygon class="cls-6" points="15.75 36.18 14.26 33.7 12.76 36.18 14.26 37.06 15.75 36.18"/><polygon class="cls-6" points="14.26 37.52 12.76 36.64 14.26 38.77 15.76 36.64 14.26 37.52"/><polygon class="cls-6" points="24.37 36.18 22.88 33.7 21.38 36.18 22.88 37.06 24.37 36.18"/><polygon class="cls-6" points="22.88 37.52 21.38 36.64 22.88 38.77 24.38 36.64 22.88 37.52"/><polygon class="cls-6" points="32.99 36.18 31.49 33.7 30 36.18 31.49 37.06 32.99 36.18"/><polygon class="cls-6" points="31.49 37.52 29.99 36.64 31.5 38.77 32.99 36.64 31.49 37.52"/><polygon class="cls-6" points="41.61 36.18 40.11 33.7 38.61 36.18 40.11 37.06 41.61 36.18"/><polygon class="cls-6" points="40.11 37.52 38.61 36.64 40.11 38.77 41.61 36.64 40.11 37.52"/><polygon class="cls-6" points="50.23 36.18 48.73 33.7 47.23 36.18 48.73 37.06 50.23 36.18"/><polygon class="cls-6" points="48.73 37.52 47.23 36.64 48.73 38.77 50.23 36.64 48.73 37.52"/><polygon class="cls-6" points="58.84 36.18 57.35 33.7 55.85 36.18 57.35 37.06 58.84 36.18"/><polygon class="cls-6" points="57.35 37.52 55.85 36.64 57.35 38.77 58.85 36.64 57.35 37.52"/><polygon class="cls-6" points="67.46 36.18 65.97 33.7 64.47 36.18 65.97 37.06 67.46 36.18"/><polygon class="cls-6" points="65.97 37.52 64.47 36.64 65.97 38.77 67.47 36.64 65.97 37.52"/><polygon class="cls-6" points="76.08 36.18 74.58 33.7 73.09 36.18 74.58 37.06 76.08 36.18"/><polygon class="cls-6" points="74.58 37.52 73.08 36.64 74.59 38.77 76.08 36.64 74.58 37.52"/><polygon class="cls-6" points="84.7 36.18 83.2 33.7 81.7 36.18 83.2 37.06 84.7 36.18"/><polygon class="cls-6" points="83.2 37.52 81.7 36.64 83.2 38.77 84.7 36.64 83.2 37.52"/><polygon class="cls-6" points="93.32 36.18 91.82 33.7 90.32 36.18 91.82 37.06 93.32 36.18"/><polygon class="cls-6" points="91.82 37.52 90.32 36.64 91.82 38.77 93.32 36.64 91.82 37.52"/><polygon class="cls-6" points="101.94 36.18 100.44 33.7 98.94 36.18 100.44 37.06 101.94 36.18"/><polygon class="cls-6" points="100.44 37.52 98.94 36.64 100.44 38.77 101.94 36.64 100.44 37.52"/><polygon class="cls-6" points="110.55 36.18 109.06 33.7 107.56 36.18 109.06 37.06 110.55 36.18"/><polygon class="cls-6" points="109.06 37.52 107.56 36.64 109.06 38.77 110.56 36.64 109.06 37.52"/><polygon class="cls-6" points="3 43.62 1.5 41.14 0 43.62 1.5 44.51 3 43.62"/><polygon class="cls-6" points="1.5 44.97 0 44.08 1.5 46.21 3 44.08 1.5 44.97"/><polygon class="cls-6" points="11.62 43.62 10.12 41.14 8.62 43.62 10.12 44.51 11.62 43.62"/><polygon class="cls-6" points="10.12 44.97 8.62 44.08 10.12 46.21 11.62 44.08 10.12 44.97"/><polygon class="cls-6" points="20.23 43.62 18.74 41.14 17.24 43.62 18.74 44.51 20.23 43.62"/><polygon class="cls-6" points="18.74 44.97 17.24 44.08 18.74 46.21 20.24 44.08 18.74 44.97"/><polygon class="cls-6" points="28.85 43.62 27.35 41.14 25.86 43.62 27.35 44.51 28.85 43.62"/><polygon class="cls-6" points="27.35 44.97 25.85 44.08 27.36 46.21 28.85 44.08 27.35 44.97"/><polygon class="cls-6" points="37.47 43.62 35.97 41.14 34.48 43.62 35.97 44.51 37.47 43.62"/><polygon class="cls-6" points="35.97 44.97 34.47 44.08 35.98 46.21 37.47 44.08 35.97 44.97"/><polygon class="cls-6" points="46.09 43.62 44.59 41.14 43.09 43.62 44.59 44.51 46.09 43.62"/><polygon class="cls-6" points="44.59 44.97 43.09 44.08 44.59 46.21 46.09 44.08 44.59 44.97"/><polygon class="cls-6" points="54.7 43.62 53.21 41.14 51.71 43.62 53.21 44.51 54.7 43.62"/><polygon class="cls-6" points="53.21 44.97 51.71 44.08 53.21 46.21 54.71 44.08 53.21 44.97"/><polygon class="cls-6" points="63.32 43.62 61.83 41.14 60.33 43.62 61.83 44.51 63.32 43.62"/><polygon class="cls-6" points="61.83 44.97 60.33 44.08 61.83 46.21 63.33 44.08 61.83 44.97"/><polygon class="cls-6" points="71.94 43.62 70.44 41.14 68.95 43.62 70.44 44.51 71.94 43.62"/><polygon class="cls-6" points="70.44 44.97 68.94 44.08 70.45 46.21 71.94 44.08 70.44 44.97"/><polygon class="cls-6" points="80.56 43.62 79.06 41.14 77.56 43.62 79.06 44.51 80.56 43.62"/><polygon class="cls-6" points="79.06 44.97 77.56 44.08 79.06 46.21 80.56 44.08 79.06 44.97"/><polygon class="cls-6" points="89.18 43.62 87.68 41.14 86.18 43.62 87.68 44.51 89.18 43.62"/><polygon class="cls-6" points="87.68 44.97 86.18 44.08 87.68 46.21 89.18 44.08 87.68 44.97"/><polygon class="cls-6" points="97.8 43.62 96.3 41.14 94.8 43.62 96.3 44.51 97.8 43.62"/><polygon class="cls-6" points="96.3 44.97 94.8 44.08 96.3 46.21 97.8 44.08 96.3 44.97"/><polygon class="cls-6" points="106.41 43.62 104.92 41.14 103.42 43.62 104.92 44.51 106.41 43.62"/><polygon class="cls-6" points="104.92 44.97 103.42 44.08 104.92 46.21 106.42 44.08 104.92 44.97"/><polygon class="cls-6" points="7.14 51.07 5.64 48.58 4.14 51.07 5.64 51.95 7.14 51.07"/><polygon class="cls-6" points="5.64 52.41 4.14 51.52 5.64 53.65 7.14 51.52 5.64 52.41"/><polygon class="cls-6" points="15.75 51.07 14.26 48.58 12.76 51.07 14.26 51.95 15.75 51.07"/><polygon class="cls-6" points="14.26 52.41 12.76 51.52 14.26 53.65 15.76 51.52 14.26 52.41"/><polygon class="cls-6" points="24.37 51.07 22.88 48.58 21.38 51.07 22.88 51.95 24.37 51.07"/><polygon class="cls-6" points="22.88 52.41 21.38 51.52 22.88 53.65 24.38 51.52 22.88 52.41"/><polygon class="cls-6" points="32.99 51.07 31.49 48.58 30 51.07 31.49 51.95 32.99 51.07"/><polygon class="cls-6" points="31.49 52.41 29.99 51.52 31.5 53.65 32.99 51.52 31.49 52.41"/><polygon class="cls-6" points="41.61 51.07 40.11 48.58 38.61 51.07 40.11 51.95 41.61 51.07"/><polygon class="cls-6" points="40.11 52.41 38.61 51.52 40.11 53.65 41.61 51.52 40.11 52.41"/><polygon class="cls-6" points="50.23 51.07 48.73 48.58 47.23 51.07 48.73 51.95 50.23 51.07"/><polygon class="cls-6" points="48.73 52.41 47.23 51.52 48.73 53.65 50.23 51.52 48.73 52.41"/><polygon class="cls-6" points="58.84 51.07 57.35 48.58 55.85 51.07 57.35 51.95 58.84 51.07"/><polygon class="cls-6" points="57.35 52.41 55.85 51.52 57.35 53.65 58.85 51.52 57.35 52.41"/><polygon class="cls-6" points="67.46 51.07 65.97 48.58 64.47 51.07 65.97 51.95 67.46 51.07"/><polygon class="cls-6" points="65.97 52.41 64.47 51.52 65.97 53.65 67.47 51.52 65.97 52.41"/><polygon class="cls-6" points="76.08 51.07 74.58 48.58 73.09 51.07 74.58 51.95 76.08 51.07"/><polygon class="cls-6" points="74.58 52.41 73.08 51.52 74.59 53.65 76.08 51.52 74.58 52.41"/><polygon class="cls-6" points="84.7 51.07 83.2 48.58 81.7 51.07 83.2 51.95 84.7 51.07"/><polygon class="cls-6" points="83.2 52.41 81.7 51.52 83.2 53.65 84.7 51.52 83.2 52.41"/><polygon class="cls-6" points="93.32 51.07 91.82 48.58 90.32 51.07 91.82 51.95 93.32 51.07"/><polygon class="cls-6" points="91.82 52.41 90.32 51.52 91.82 53.65 93.32 51.52 91.82 52.41"/><polygon class="cls-6" points="101.94 51.07 100.44 48.58 98.94 51.07 100.44 51.95 101.94 51.07"/><polygon class="cls-6" points="100.44 52.41 98.94 51.52 100.44 53.65 101.94 51.52 100.44 52.41"/><polygon class="cls-6" points="110.55 51.07 109.06 48.58 107.56 51.07 109.06 51.95 110.55 51.07"/><polygon class="cls-6" points="109.06 52.41 107.56 51.52 109.06 53.65 110.56 51.52 109.06 52.41"/><polygon class="cls-6" points="3 58.51 1.5 56.03 0 58.51 1.5 59.39 3 58.51"/><polygon class="cls-6" points="1.5 59.85 0 58.97 1.5 61.09 3 58.97 1.5 59.85"/><polygon class="cls-6" points="11.62 58.51 10.12 56.03 8.62 58.51 10.12 59.39 11.62 58.51"/><polygon class="cls-6" points="10.12 59.85 8.62 58.97 10.12 61.09 11.62 58.97 10.12 59.85"/><polygon class="cls-6" points="20.23 58.51 18.74 56.03 17.24 58.51 18.74 59.39 20.23 58.51"/><polygon class="cls-6" points="18.74 59.85 17.24 58.97 18.74 61.09 20.24 58.97 18.74 59.85"/><polygon class="cls-6" points="28.85 58.51 27.35 56.03 25.86 58.51 27.35 59.39 28.85 58.51"/><polygon class="cls-6" points="27.35 59.85 25.85 58.97 27.36 61.09 28.85 58.97 27.35 59.85"/><polygon class="cls-6" points="37.47 58.51 35.97 56.03 34.48 58.51 35.97 59.39 37.47 58.51"/><polygon class="cls-6" points="35.97 59.85 34.47 58.97 35.98 61.09 37.47 58.97 35.97 59.85"/><polygon class="cls-6" points="46.09 58.51 44.59 56.03 43.09 58.51 44.59 59.39 46.09 58.51"/><polygon class="cls-6" points="44.59 59.85 43.09 58.97 44.59 61.09 46.09 58.97 44.59 59.85"/><polygon class="cls-6" points="54.7 58.51 53.21 56.03 51.71 58.51 53.21 59.39 54.7 58.51"/><polygon class="cls-6" points="53.21 59.85 51.71 58.97 53.21 61.09 54.71 58.97 53.21 59.85"/><polygon class="cls-6" points="63.32 58.51 61.83 56.03 60.33 58.51 61.83 59.39 63.32 58.51"/><polygon class="cls-6" points="61.83 59.85 60.33 58.97 61.83 61.09 63.33 58.97 61.83 59.85"/><polygon class="cls-6" points="71.94 58.51 70.44 56.03 68.95 58.51 70.44 59.39 71.94 58.51"/><polygon class="cls-6" points="70.44 59.85 68.94 58.97 70.45 61.09 71.94 58.97 70.44 59.85"/><polygon class="cls-6" points="80.56 58.51 79.06 56.03 77.56 58.51 79.06 59.39 80.56 58.51"/><polygon class="cls-6" points="79.06 59.85 77.56 58.97 79.06 61.09 80.56 58.97 79.06 59.85"/><polygon class="cls-6" points="89.18 58.51 87.68 56.03 86.18 58.51 87.68 59.39 89.18 58.51"/><polygon class="cls-6" points="87.68 59.85 86.18 58.97 87.68 61.09 89.18 58.97 87.68 59.85"/><polygon class="cls-6" points="97.8 58.51 96.3 56.03 94.8 58.51 96.3 59.39 97.8 58.51"/><polygon class="cls-6" points="96.3 59.85 94.8 58.97 96.3 61.09 97.8 58.97 96.3 59.85"/><polygon class="cls-6" points="106.41 58.51 104.92 56.03 103.42 58.51 104.92 59.39 106.41 58.51"/><polygon class="cls-6" points="104.92 59.85 103.42 58.97 104.92 61.09 106.42 58.97 104.92 59.85"/><polygon class="cls-6" points="7.14 65.95 5.64 63.47 4.14 65.95 5.64 66.83 7.14 65.95"/><polygon class="cls-6" points="5.64 67.29 4.14 66.41 5.64 68.54 7.14 66.41 5.64 67.29"/><polygon class="cls-6" points="15.75 65.95 14.26 63.47 12.76 65.95 14.26 66.83 15.75 65.95"/><polygon class="cls-6" points="14.26 67.29 12.76 66.41 14.26 68.54 15.76 66.41 14.26 67.29"/><polygon class="cls-6" points="24.37 65.95 22.88 63.47 21.38 65.95 22.88 66.83 24.37 65.95"/><polygon class="cls-6" points="22.88 67.29 21.38 66.41 22.88 68.54 24.38 66.41 22.88 67.29"/><polygon class="cls-6" points="32.99 65.95 31.49 63.47 30 65.95 31.49 66.83 32.99 65.95"/><polygon class="cls-6" points="31.49 67.29 29.99 66.41 31.5 68.54 32.99 66.41 31.49 67.29"/><polygon class="cls-6" points="41.61 65.95 40.11 63.47 38.61 65.95 40.11 66.83 41.61 65.95"/><polygon class="cls-6" points="40.11 67.29 38.61 66.41 40.11 68.54 41.61 66.41 40.11 67.29"/><polygon class="cls-6" points="50.23 65.95 48.73 63.47 47.23 65.95 48.73 66.83 50.23 65.95"/><polygon class="cls-6" points="48.73 67.29 47.23 66.41 48.73 68.54 50.23 66.41 48.73 67.29"/><polygon class="cls-6" points="58.84 65.95 57.35 63.47 55.85 65.95 57.35 66.83 58.84 65.95"/><polygon class="cls-6" points="57.35 67.29 55.85 66.41 57.35 68.54 58.85 66.41 57.35 67.29"/><polygon class="cls-6" points="67.46 65.95 65.97 63.47 64.47 65.95 65.97 66.83 67.46 65.95"/><polygon class="cls-6" points="65.97 67.29 64.47 66.41 65.97 68.54 67.47 66.41 65.97 67.29"/><polygon class="cls-6" points="76.08 65.95 74.58 63.47 73.09 65.95 74.58 66.83 76.08 65.95"/><polygon class="cls-6" points="74.58 67.29 73.08 66.41 74.59 68.54 76.08 66.41 74.58 67.29"/><polygon class="cls-6" points="84.7 65.95 83.2 63.47 81.7 65.95 83.2 66.83 84.7 65.95"/><polygon class="cls-6" points="83.2 67.29 81.7 66.41 83.2 68.54 84.7 66.41 83.2 67.29"/><polygon class="cls-6" points="93.32 65.95 91.82 63.47 90.32 65.95 91.82 66.83 93.32 65.95"/><polygon class="cls-6" points="91.82 67.29 90.32 66.41 91.82 68.54 93.32 66.41 91.82 67.29"/><polygon class="cls-6" points="101.94 65.95 100.44 63.47 98.94 65.95 100.44 66.83 101.94 65.95"/><polygon class="cls-6" points="100.44 67.29 98.94 66.41 100.44 68.54 101.94 66.41 100.44 67.29"/><polygon class="cls-6" points="110.55 65.95 109.06 63.47 107.56 65.95 109.06 66.83 110.55 65.95"/><polygon class="cls-6" points="109.06 67.29 107.56 66.41 109.06 68.54 110.56 66.41 109.06 67.29"/><polygon class="cls-6" points="3 73.39 1.5 70.91 0 73.39 1.5 74.28 3 73.39"/><polygon class="cls-6" points="1.5 74.74 0 73.85 1.5 75.98 3 73.85 1.5 74.74"/><polygon class="cls-6" points="11.62 73.39 10.12 70.91 8.62 73.39 10.12 74.28 11.62 73.39"/><polygon class="cls-6" points="10.12 74.74 8.62 73.85 10.12 75.98 11.62 73.85 10.12 74.74"/><polygon class="cls-6" points="20.23 73.39 18.74 70.91 17.24 73.39 18.74 74.28 20.23 73.39"/><polygon class="cls-6" points="18.74 74.74 17.24 73.85 18.74 75.98 20.24 73.85 18.74 74.74"/><polygon class="cls-6" points="28.85 73.39 27.35 70.91 25.86 73.39 27.35 74.28 28.85 73.39"/><polygon class="cls-6" points="27.35 74.74 25.85 73.85 27.36 75.98 28.85 73.85 27.35 74.74"/><polygon class="cls-6" points="37.47 73.39 35.97 70.91 34.48 73.39 35.97 74.28 37.47 73.39"/><polygon class="cls-6" points="35.97 74.74 34.47 73.85 35.98 75.98 37.47 73.85 35.97 74.74"/><polygon class="cls-6" points="46.09 73.39 44.59 70.91 43.09 73.39 44.59 74.28 46.09 73.39"/><polygon class="cls-6" points="44.59 74.74 43.09 73.85 44.59 75.98 46.09 73.85 44.59 74.74"/><polygon class="cls-6" points="54.7 73.39 53.21 70.91 51.71 73.39 53.21 74.28 54.7 73.39"/><polygon class="cls-6" points="53.21 74.74 51.71 73.85 53.21 75.98 54.71 73.85 53.21 74.74"/><polygon class="cls-6" points="63.32 73.39 61.83 70.91 60.33 73.39 61.83 74.28 63.32 73.39"/><polygon class="cls-6" points="61.83 74.74 60.33 73.85 61.83 75.98 63.33 73.85 61.83 74.74"/><polygon class="cls-6" points="71.94 73.39 70.44 70.91 68.95 73.39 70.44 74.28 71.94 73.39"/><polygon class="cls-6" points="70.44 74.74 68.94 73.85 70.45 75.98 71.94 73.85 70.44 74.74"/><polygon class="cls-6" points="80.56 73.39 79.06 70.91 77.56 73.39 79.06 74.28 80.56 73.39"/><polygon class="cls-6" points="79.06 74.74 77.56 73.85 79.06 75.98 80.56 73.85 79.06 74.74"/><polygon class="cls-6" points="89.18 73.39 87.68 70.91 86.18 73.39 87.68 74.28 89.18 73.39"/><polygon class="cls-6" points="87.68 74.74 86.18 73.85 87.68 75.98 89.18 73.85 87.68 74.74"/><polygon class="cls-6" points="97.8 73.39 96.3 70.91 94.8 73.39 96.3 74.28 97.8 73.39"/><polygon class="cls-6" points="96.3 74.74 94.8 73.85 96.3 75.98 97.8 73.85 96.3 74.74"/><polygon class="cls-6" points="106.41 73.39 104.92 70.91 103.42 73.39 104.92 74.28 106.41 73.39"/><polygon class="cls-6" points="104.92 74.74 103.42 73.85 104.92 75.98 106.42 73.85 104.92 74.74"/><polygon class="cls-6" points="7.14 80.84 5.64 78.36 4.14 80.84 5.64 81.72 7.14 80.84"/><polygon class="cls-6" points="5.64 82.18 4.14 81.29 5.64 83.42 7.14 81.29 5.64 82.18"/><polygon class="cls-6" points="15.75 80.84 14.26 78.36 12.76 80.84 14.26 81.72 15.75 80.84"/><polygon class="cls-6" points="14.26 82.18 12.76 81.29 14.26 83.42 15.76 81.29 14.26 82.18"/><polygon class="cls-6" points="24.37 80.84 22.88 78.36 21.38 80.84 22.88 81.72 24.37 80.84"/><polygon class="cls-6" points="22.88 82.18 21.38 81.29 22.88 83.42 24.38 81.29 22.88 82.18"/><polygon class="cls-6" points="32.99 80.84 31.49 78.36 30 80.84 31.49 81.72 32.99 80.84"/><polygon class="cls-6" points="31.49 82.18 29.99 81.29 31.5 83.42 32.99 81.29 31.49 82.18"/><polygon class="cls-6" points="41.61 80.84 40.11 78.36 38.61 80.84 40.11 81.72 41.61 80.84"/><polygon class="cls-6" points="40.11 82.18 38.61 81.29 40.11 83.42 41.61 81.29 40.11 82.18"/><polygon class="cls-6" points="50.23 80.84 48.73 78.36 47.23 80.84 48.73 81.72 50.23 80.84"/><polygon class="cls-6" points="48.73 82.18 47.23 81.29 48.73 83.42 50.23 81.29 48.73 82.18"/><polygon class="cls-6" points="58.84 80.84 57.35 78.36 55.85 80.84 57.35 81.72 58.84 80.84"/><polygon class="cls-6" points="57.35 82.18 55.85 81.29 57.35 83.42 58.85 81.29 57.35 82.18"/><polygon class="cls-6" points="67.46 80.84 65.97 78.36 64.47 80.84 65.97 81.72 67.46 80.84"/><polygon class="cls-6" points="65.97 82.18 64.47 81.29 65.97 83.42 67.47 81.29 65.97 82.18"/><polygon class="cls-6" points="76.08 80.84 74.58 78.36 73.09 80.84 74.58 81.72 76.08 80.84"/><polygon class="cls-6" points="74.58 82.18 73.08 81.29 74.59 83.42 76.08 81.29 74.58 82.18"/><polygon class="cls-6" points="84.7 80.84 83.2 78.36 81.7 80.84 83.2 81.72 84.7 80.84"/><polygon class="cls-6" points="83.2 82.18 81.7 81.29 83.2 83.42 84.7 81.29 83.2 82.18"/><polygon class="cls-6" points="93.32 80.84 91.82 78.36 90.32 80.84 91.82 81.72 93.32 80.84"/><polygon class="cls-6" points="91.82 82.18 90.32 81.29 91.82 83.42 93.32 81.29 91.82 82.18"/><polygon class="cls-6" points="101.94 80.84 100.44 78.36 98.94 80.84 100.44 81.72 101.94 80.84"/><polygon class="cls-6" points="100.44 82.18 98.94 81.29 100.44 83.42 101.94 81.29 100.44 82.18"/><polygon class="cls-6" points="110.55 80.84 109.06 78.36 107.56 80.84 109.06 81.72 110.55 80.84"/><polygon class="cls-6" points="109.06 82.18 107.56 81.29 109.06 83.42 110.56 81.29 109.06 82.18"/><polygon class="cls-6" points="3 88.28 1.5 85.8 0 88.28 1.5 89.16 3 88.28"/><polygon class="cls-6" points="1.5 89.62 0 88.74 1.5 90.86 3 88.74 1.5 89.62"/><polygon class="cls-6" points="11.62 88.28 10.12 85.8 8.62 88.28 10.12 89.16 11.62 88.28"/><polygon class="cls-6" points="10.12 89.62 8.62 88.74 10.12 90.86 11.62 88.74 10.12 89.62"/><polygon class="cls-6" points="20.23 88.28 18.74 85.8 17.24 88.28 18.74 89.16 20.23 88.28"/><polygon class="cls-6" points="18.74 89.62 17.24 88.74 18.74 90.86 20.24 88.74 18.74 89.62"/><polygon class="cls-6" points="28.85 88.28 27.35 85.8 25.86 88.28 27.35 89.16 28.85 88.28"/><polygon class="cls-6" points="27.35 89.62 25.85 88.74 27.36 90.86 28.85 88.74 27.35 89.62"/><polygon class="cls-6" points="37.47 88.28 35.97 85.8 34.48 88.28 35.97 89.16 37.47 88.28"/><polygon class="cls-6" points="35.97 89.62 34.47 88.74 35.98 90.86 37.47 88.74 35.97 89.62"/><polygon class="cls-6" points="46.09 88.28 44.59 85.8 43.09 88.28 44.59 89.16 46.09 88.28"/><polygon class="cls-6" points="44.59 89.62 43.09 88.74 44.59 90.86 46.09 88.74 44.59 89.62"/><polygon class="cls-6" points="54.7 88.28 53.21 85.8 51.71 88.28 53.21 89.16 54.7 88.28"/><polygon class="cls-6" points="53.21 89.62 51.71 88.74 53.21 90.86 54.71 88.74 53.21 89.62"/><polygon class="cls-6" points="63.32 88.28 61.83 85.8 60.33 88.28 61.83 89.16 63.32 88.28"/><polygon class="cls-6" points="61.83 89.62 60.33 88.74 61.83 90.86 63.33 88.74 61.83 89.62"/><polygon class="cls-6" points="71.94 88.28 70.44 85.8 68.95 88.28 70.44 89.16 71.94 88.28"/><polygon class="cls-6" points="70.44 89.62 68.94 88.74 70.45 90.86 71.94 88.74 70.44 89.62"/><polygon class="cls-6" points="80.56 88.28 79.06 85.8 77.56 88.28 79.06 89.16 80.56 88.28"/><polygon class="cls-6" points="79.06 89.62 77.56 88.74 79.06 90.86 80.56 88.74 79.06 89.62"/><polygon class="cls-6" points="89.18 88.28 87.68 85.8 86.18 88.28 87.68 89.16 89.18 88.28"/><polygon class="cls-6" points="87.68 89.62 86.18 88.74 87.68 90.86 89.18 88.74 87.68 89.62"/><polygon class="cls-6" points="97.8 88.28 96.3 85.8 94.8 88.28 96.3 89.16 97.8 88.28"/><polygon class="cls-6" points="96.3 89.62 94.8 88.74 96.3 90.86 97.8 88.74 96.3 89.62"/><polygon class="cls-6" points="106.41 88.28 104.92 85.8 103.42 88.28 104.92 89.16 106.41 88.28"/><polygon class="cls-6" points="104.92 89.62 103.42 88.74 104.92 90.86 106.42 88.74 104.92 89.62"/><polygon class="cls-6" points="7.14 95.72 5.64 93.24 4.14 95.72 5.64 96.61 7.14 95.72"/><polygon class="cls-6" points="5.64 97.06 4.14 96.18 5.64 98.31 7.14 96.18 5.64 97.06"/><polygon class="cls-6" points="15.75 95.72 14.26 93.24 12.76 95.72 14.26 96.61 15.75 95.72"/><polygon class="cls-6" points="14.26 97.06 12.76 96.18 14.26 98.31 15.76 96.18 14.26 97.06"/><polygon class="cls-6" points="24.37 95.72 22.88 93.24 21.38 95.72 22.88 96.61 24.37 95.72"/><polygon class="cls-6" points="22.88 97.06 21.38 96.18 22.88 98.31 24.38 96.18 22.88 97.06"/><polygon class="cls-6" points="32.99 95.72 31.49 93.24 30 95.72 31.49 96.61 32.99 95.72"/><polygon class="cls-6" points="31.49 97.06 29.99 96.18 31.5 98.31 32.99 96.18 31.49 97.06"/><polygon class="cls-6" points="41.61 95.72 40.11 93.24 38.61 95.72 40.11 96.61 41.61 95.72"/><polygon class="cls-6" points="40.11 97.06 38.61 96.18 40.11 98.31 41.61 96.18 40.11 97.06"/><polygon class="cls-6" points="50.23 95.72 48.73 93.24 47.23 95.72 48.73 96.61 50.23 95.72"/><polygon class="cls-6" points="48.73 97.06 47.23 96.18 48.73 98.31 50.23 96.18 48.73 97.06"/><polygon class="cls-6" points="58.84 95.72 57.35 93.24 55.85 95.72 57.35 96.61 58.84 95.72"/><polygon class="cls-6" points="57.35 97.06 55.85 96.18 57.35 98.31 58.85 96.18 57.35 97.06"/><polygon class="cls-6" points="67.46 95.72 65.97 93.24 64.47 95.72 65.97 96.61 67.46 95.72"/><polygon class="cls-6" points="65.97 97.06 64.47 96.18 65.97 98.31 67.47 96.18 65.97 97.06"/><polygon class="cls-6" points="76.08 95.72 74.58 93.24 73.09 95.72 74.58 96.61 76.08 95.72"/><polygon class="cls-6" points="74.58 97.06 73.08 96.18 74.59 98.31 76.08 96.18 74.58 97.06"/><polygon class="cls-6" points="84.7 95.72 83.2 93.24 81.7 95.72 83.2 96.61 84.7 95.72"/><polygon class="cls-6" points="83.2 97.06 81.7 96.18 83.2 98.31 84.7 96.18 83.2 97.06"/><polygon class="cls-6" points="93.32 95.72 91.82 93.24 90.32 95.72 91.82 96.61 93.32 95.72"/><polygon class="cls-6" points="91.82 97.06 90.32 96.18 91.82 98.31 93.32 96.18 91.82 97.06"/><polygon class="cls-6" points="101.94 95.72 100.44 93.24 98.94 95.72 100.44 96.61 101.94 95.72"/><polygon class="cls-6" points="100.44 97.06 98.94 96.18 100.44 98.31 101.94 96.18 100.44 97.06"/><polygon class="cls-6" points="110.55 95.72 109.06 93.24 107.56 95.72 109.06 96.61 110.55 95.72"/><polygon class="cls-6" points="109.06 97.06 107.56 96.18 109.06 98.31 110.56 96.18 109.06 97.06"/><polygon class="cls-6" points="3 103.17 1.5 100.68 0 103.17 1.5 104.05 3 103.17"/><polygon class="cls-6" points="1.5 104.51 0 103.62 1.5 105.75 3 103.62 1.5 104.51"/><polygon class="cls-6" points="11.62 103.17 10.12 100.68 8.62 103.17 10.12 104.05 11.62 103.17"/><polygon class="cls-6" points="10.12 104.51 8.62 103.62 10.12 105.75 11.62 103.62 10.12 104.51"/><polygon class="cls-6" points="20.23 103.17 18.74 100.68 17.24 103.17 18.74 104.05 20.23 103.17"/><polygon class="cls-6" points="18.74 104.51 17.24 103.62 18.74 105.75 20.24 103.62 18.74 104.51"/><polygon class="cls-6" points="28.85 103.17 27.35 100.68 25.86 103.17 27.35 104.05 28.85 103.17"/><polygon class="cls-6" points="27.35 104.51 25.85 103.62 27.36 105.75 28.85 103.62 27.35 104.51"/><polygon class="cls-6" points="37.47 103.17 35.97 100.68 34.48 103.17 35.97 104.05 37.47 103.17"/><polygon class="cls-6" points="35.97 104.51 34.47 103.62 35.98 105.75 37.47 103.62 35.97 104.51"/><polygon class="cls-6" points="46.09 103.17 44.59 100.68 43.09 103.17 44.59 104.05 46.09 103.17"/><polygon class="cls-6" points="44.59 104.51 43.09 103.62 44.59 105.75 46.09 103.62 44.59 104.51"/><polygon class="cls-6" points="54.7 103.17 53.21 100.68 51.71 103.17 53.21 104.05 54.7 103.17"/><polygon class="cls-6" points="53.21 104.51 51.71 103.62 53.21 105.75 54.71 103.62 53.21 104.51"/><polygon class="cls-6" points="63.32 103.17 61.83 100.68 60.33 103.17 61.83 104.05 63.32 103.17"/><polygon class="cls-6" points="61.83 104.51 60.33 103.62 61.83 105.75 63.33 103.62 61.83 104.51"/><polygon class="cls-6" points="71.94 103.17 70.44 100.68 68.95 103.17 70.44 104.05 71.94 103.17"/><polygon class="cls-6" points="70.44 104.51 68.94 103.62 70.45 105.75 71.94 103.62 70.44 104.51"/><polygon class="cls-6" points="80.56 103.17 79.06 100.68 77.56 103.17 79.06 104.05 80.56 103.17"/><polygon class="cls-6" points="79.06 104.51 77.56 103.62 79.06 105.75 80.56 103.62 79.06 104.51"/><polygon class="cls-6" points="89.18 103.17 87.68 100.68 86.18 103.17 87.68 104.05 89.18 103.17"/><polygon class="cls-6" points="87.68 104.51 86.18 103.62 87.68 105.75 89.18 103.62 87.68 104.51"/><polygon class="cls-6" points="97.8 103.17 96.3 100.68 94.8 103.17 96.3 104.05 97.8 103.17"/><polygon class="cls-6" points="96.3 104.51 94.8 103.62 96.3 105.75 97.8 103.62 96.3 104.51"/><polygon class="cls-6" points="106.41 103.17 104.92 100.68 103.42 103.17 104.92 104.05 106.41 103.17"/><polygon class="cls-6" points="104.92 104.51 103.42 103.62 104.92 105.75 106.42 103.62 104.92 104.51"/><polygon class="cls-6" points="7.14 110.61 5.64 108.13 4.14 110.61 5.64 111.49 7.14 110.61"/><polygon class="cls-6" points="5.64 111.95 4.14 111.06 5.64 113.19 7.14 111.06 5.64 111.95"/><polygon class="cls-6" points="15.75 110.61 14.26 108.13 12.76 110.61 14.26 111.49 15.75 110.61"/><polygon class="cls-6" points="14.26 111.95 12.76 111.06 14.26 113.19 15.76 111.06 14.26 111.95"/><polygon class="cls-6" points="24.37 110.61 22.88 108.13 21.38 110.61 22.88 111.49 24.37 110.61"/><polygon class="cls-6" points="22.88 111.95 21.38 111.06 22.88 113.19 24.38 111.06 22.88 111.95"/><polygon class="cls-6" points="32.99 110.61 31.49 108.13 30 110.61 31.49 111.49 32.99 110.61"/><polygon class="cls-6" points="31.49 111.95 29.99 111.06 31.5 113.19 32.99 111.06 31.49 111.95"/><polygon class="cls-6" points="41.61 110.61 40.11 108.13 38.61 110.61 40.11 111.49 41.61 110.61"/><polygon class="cls-6" points="40.11 111.95 38.61 111.06 40.11 113.19 41.61 111.06 40.11 111.95"/><polygon class="cls-6" points="50.23 110.61 48.73 108.13 47.23 110.61 48.73 111.49 50.23 110.61"/><polygon class="cls-6" points="48.73 111.95 47.23 111.06 48.73 113.19 50.23 111.06 48.73 111.95"/><polygon class="cls-6" points="58.84 110.61 57.35 108.13 55.85 110.61 57.35 111.49 58.84 110.61"/><polygon class="cls-6" points="57.35 111.95 55.85 111.06 57.35 113.19 58.85 111.06 57.35 111.95"/><polygon class="cls-6" points="67.46 110.61 65.97 108.13 64.47 110.61 65.97 111.49 67.46 110.61"/><polygon class="cls-6" points="65.97 111.95 64.47 111.06 65.97 113.19 67.47 111.06 65.97 111.95"/><polygon class="cls-6" points="76.08 110.61 74.58 108.13 73.09 110.61 74.58 111.49 76.08 110.61"/><polygon class="cls-6" points="74.58 111.95 73.08 111.06 74.59 113.19 76.08 111.06 74.58 111.95"/><polygon class="cls-6" points="84.7 110.61 83.2 108.13 81.7 110.61 83.2 111.49 84.7 110.61"/><polygon class="cls-6" points="83.2 111.95 81.7 111.06 83.2 113.19 84.7 111.06 83.2 111.95"/><polygon class="cls-6" points="93.32 110.61 91.82 108.13 90.32 110.61 91.82 111.49 93.32 110.61"/><polygon class="cls-6" points="91.82 111.95 90.32 111.06 91.82 113.19 93.32 111.06 91.82 111.95"/><polygon class="cls-6" points="101.94 110.61 100.44 108.13 98.94 110.61 100.44 111.49 101.94 110.61"/><polygon class="cls-6" points="100.44 111.95 98.94 111.06 100.44 113.19 101.94 111.06 100.44 111.95"/><polygon class="cls-6" points="110.55 110.61 109.06 108.13 107.56 110.61 109.06 111.49 110.55 110.61"/><polygon class="cls-6" points="109.06 111.95 107.56 111.06 109.06 113.19 110.56 111.06 109.06 111.95"/></g></g><path class="cls-7" d="M99.23,64.19a.53.53,0,0,0,0-.13V64s0-.08,0-.12a.28.28,0,0,0,0-.09.49.49,0,0,0,0-.12.28.28,0,0,0,0-.09s0-.08,0-.13v-.08a.51.51,0,0,1,0-.13v-.07l0-.14v-.07l0-.14v-.06l0-.14,0-.05a.83.83,0,0,0,0-.15v0c0-.05,0-.1,0-.15v0c0-.05,0-.1-.05-.15v0c0-.05,0-.1,0-.15h0l-.06-.15h0a.61.61,0,0,0-.07-.14h0c-.32-.68-.72-.87-1,0a11.81,11.81,0,0,1-1.7,3.34A8.75,8.75,0,0,1,94.7,66l-.08-.06,0,0-.16-.12,0,0-.13-.12,0,0-.14-.13,0,0L94,65.32h0l-.12-.14,0,0L93.72,65v0l-.09-.13,0,0-.09-.14,0,0-.08-.13v0a1.09,1.09,0,0,1-.08-.15l0,0s0-.09-.08-.14v0a.54.54,0,0,1-.07-.13v0a1,1,0,0,1-.07-.15l0,0L93,63.64l0-.06a.61.61,0,0,1,0-.12l0-.07,0-.07-.35-.86h0c-.06-.13-.11-.27-.18-.4h0l-.09-.19v0c-.06-.13-.13-.26-.2-.39v0c-.07-.13-.14-.27-.22-.4l0,0-.12-.2v0c0-.06-.09-.13-.14-.2h0l-.14-.2h0l.11-.05h0a2.68,2.68,0,0,0,.33-.18h0l.13-.08,0,0,.13-.09,0,0,.17-.12h0l.18-.13,0,0,.14-.11,0,0,.13-.11.05,0,.15-.13,0,0A1.54,1.54,0,0,0,93.3,59l0,0,.16-.15.06-.06.13-.13.06-.06.13-.14.06-.06.17-.19,0,0L94.3,58l.06-.07.14-.16.06-.09a1,1,0,0,0,.13-.16l.07-.08.15-.19,0-.06.2-.27,0-.06.16-.21a.86.86,0,0,1,.07-.1l.14-.19.07-.11.14-.21.06-.09.21-.32a17.78,17.78,0,0,0,2.07-6.41h0l-.06.1h0c-.43.69-3.16,4.82-7.09,6-1.18.34-2.09.56-2.8.7,1.29-3.06,1.88-7-.12-10.41a26.56,26.56,0,0,0-3-4.36l0,.14c.26.94,1.62,6.63-1.37,10l-.43.46c-.07-.67-.1-1.37-.15-2.08s0-1.18.07-1.77c.08-2.91-2.12-1.43-2.33-1.82-3.58-6.62-7-2.59-7.23-2.85C70.23,40.05,67.55,45,67,44.89a3.45,3.45,0,0,0-3.29.62c-3.84-.15-3.46,4.66-4.22,4.82a3.15,3.15,0,0,0-2.34,1.58,18.23,18.23,0,0,0-5.92-2c-6.75-.76-11.5,3.35-14.13,8.5h0C19.45,68.85,20.87,48.32,20.72,48c-1.13-2.19-2.21-.34-2.94,1.63s-2.16,9.57-1.09,13.87c.15.62.33,1.21.52,1.77h0a1,1,0,0,0,.05.16l.11.3a1.34,1.34,0,0,0,.07.18l.11.3.07.15c0,.1.08.21.13.31l0,.07c.18.4.37.79.57,1.15l0,0c.06.1.11.2.17.29l.06.11.16.26.08.13L19,69l.09.14.16.22.09.13.16.21a1.13,1.13,0,0,1,.1.13l.16.2.11.13.16.19.11.12.16.18.11.11.17.18.12.11.17.16.11.1.18.16.11.1.19.15.11.09.19.15.11.08.2.14.1.07.21.15.09.05.23.15,0,0a10.74,10.74,0,0,0,1.21.63h0l.26.11.07,0,.24.1.1,0,.22.08.11,0,.22.07.12,0,.22.07.12,0,.22.06L26,74l.21.06.13,0,.21,0,.14,0,.21,0,.13,0,.21,0,.13,0,.22,0h.13l.21,0,.13,0,.22,0h.12l.23,0h.11l.23,0h.1l.24,0h.07c.41,0,.82,0,1.22,0h1.05l.2,0H32l.19,0h.14l.18,0,.14,0,.18,0,.13,0,.18,0,.14,0,.17,0,.13,0,.17,0,.14,0,.16,0,.14,0,.16,0,.13,0,.15,0,.14,0,.15,0,.13,0,.15,0,.13,0,.14,0,.13,0,.13,0,.16,0,.1,0,.18.27a13,13,0,0,0,1.13,1.4c.39,2.54-1.69,3.61-2,4.56A4.7,4.7,0,0,0,35,81a2.17,2.17,0,0,0-.91,1.41,5.63,5.63,0,0,0,.25,2.42,6.67,6.67,0,0,0,1.87-1.2,8,8,0,0,0,2.89,1c.32.88.74,1.74.74,1.74a17.12,17.12,0,0,0,1.21-1.55,12,12,0,0,0,3-.3A18.79,18.79,0,0,0,45.79,86a6.53,6.53,0,0,0,1-2.81c1.12-1,.69-1.9.4-2.84h0l.85.2h.06l.37.07.21,0,.32.06.52.07.22,0,.41,0,.2,0L51,81a20.22,20.22,0,0,0,2.92,0,2.91,2.91,0,0,0,0,.78,2,2,0,0,0-.29.7A4.67,4.67,0,0,0,54,84.65a8.07,8.07,0,0,0,1.65-.78,9.13,9.13,0,0,0,2.93.76c.36.71.78,1.38.78,1.38s.53-.61,1-1.29a14,14,0,0,0,3.33-.41,17.15,17.15,0,0,0,1.51,1.13,5.46,5.46,0,0,0,.64-2.63,5,5,0,0,0-.43-2.29l.26-.07.06,0A22.07,22.07,0,0,0,68,79.6h.07c.7,1.87,1.48,4,2.86,4.65,1.11.53,6,.29,7.49-.32a.18.18,0,0,0,.07-.05,2.46,2.46,0,0,1,.82.09,2.25,2.25,0,0,0-.37-1.32,4.14,4.14,0,0,1,1.33.07c.11-.39-.8-2.85-2.46-2.8h0c-.45-1.38-.92-2.65-1-3a2.21,2.21,0,0,1,.84-2.36,5.85,5.85,0,0,0,1,0h0A7,7,0,0,0,80,74.4c3.63-1.61,4.67,1.27,7.69,1.22a2.71,2.71,0,0,0,2.44-1.38l-.09,0c.48-.26.6-1-.29-2.1,1.82.68,5.25.18,5.86-1.77h0l.13,0,.08,0,.14,0,.09,0,.15-.07.08,0,.24-.11c2.5-1.22,2.67-4.28,2.74-5.39,0-.06,0-.13,0-.2v-.28Z"/><path class="cls-8" d="M99.23,64.19a.53.53,0,0,0,0-.13V64s0-.08,0-.12a.28.28,0,0,0,0-.09.49.49,0,0,0,0-.12.28.28,0,0,0,0-.09s0-.08,0-.13v-.08a.51.51,0,0,1,0-.13v-.07l0-.14v-.07l0-.14v-.06l0-.14,0-.05a.83.83,0,0,0,0-.15v0c0-.05,0-.1,0-.15v0c0-.05,0-.1-.05-.15v0c0-.05,0-.1,0-.15h0l-.06-.15h0a.61.61,0,0,0-.07-.14h0c-.32-.68-.72-.87-1,0a11.81,11.81,0,0,1-1.7,3.34A8.75,8.75,0,0,1,94.7,66l-.08-.06,0,0-.16-.12,0,0-.13-.12,0,0-.14-.13,0,0L94,65.32h0l-.12-.14,0,0L93.72,65v0l-.09-.13,0,0-.09-.14,0,0-.08-.13v0a1.09,1.09,0,0,1-.08-.15l0,0s0-.09-.08-.14v0a.54.54,0,0,1-.07-.13v0a1,1,0,0,1-.07-.15l0,0L93,63.64l0-.06a.61.61,0,0,1,0-.12l0-.07,0-.07-.35-.86h0c-.06-.13-.11-.27-.18-.4h0l-.09-.19v0c-.06-.13-.13-.26-.2-.39v0c-.07-.13-.14-.27-.22-.4l0,0-.12-.2v0c0-.06-.09-.13-.14-.2h0l-.14-.2h0l.11-.05h0a2.68,2.68,0,0,0,.33-.18h0l.13-.08,0,0,.13-.09,0,0,.17-.12h0l.18-.13,0,0,.14-.11,0,0,.13-.11.05,0,.15-.13,0,0A1.54,1.54,0,0,0,93.3,59l0,0,.16-.15.06-.06.13-.13.06-.06.13-.14.06-.06.17-.19,0,0L94.3,58l.06-.07.14-.16.06-.09a1,1,0,0,0,.13-.16l.07-.08.15-.19,0-.06.2-.27,0-.06.16-.21a.86.86,0,0,1,.07-.1l.14-.19.07-.11.14-.21.06-.09.21-.32a17.78,17.78,0,0,0,2.07-6.41h0l-.06.1h0c-.43.69-3.16,4.82-7.09,6-1.18.34-2.09.56-2.8.7,1.29-3.06,1.88-7-.12-10.41a26.56,26.56,0,0,0-3-4.36l0,.14c.26.94,1.62,6.63-1.37,10l-.43.46c-.07-.67-.1-1.37-.15-2.08s0-1.18.07-1.77c.08-2.91-2.12-1.43-2.33-1.82-3.58-6.62-7-2.59-7.23-2.85a3.1,3.1,0,0,0-4.22-.44A40.3,40.3,0,0,1,76.1,65.28a41.31,41.31,0,0,1-2.52,14.29,8.76,8.76,0,0,1,2.07-.25,8.59,8.59,0,0,1,2,.23c-.41-1.23-.8-2.31-.83-2.59a2.21,2.21,0,0,1,.84-2.36,5.85,5.85,0,0,0,1,0h0A7,7,0,0,0,80,74.4c3.63-1.61,4.67,1.27,7.69,1.22a2.71,2.71,0,0,0,2.44-1.38l-.09,0c.48-.26.6-1-.29-2.1,1.82.68,5.25.18,5.86-1.77h0l.13,0,.08,0,.14,0,.09,0,.15-.07.08,0,.24-.11c2.5-1.22,2.67-4.28,2.74-5.39,0-.06,0-.13,0-.2v-.28Z"/><path class="cls-9" d="M36.47,57.88C18.81,68.35,20.24,47.81,20.09,47.51c-1.13-2.19-2.22-.33-2.95,1.63S15,58.71,16.05,63c3.06,12.36,13.68,11.65,19.28,10.12C33.28,69.85,33.71,63.29,36.47,57.88Z"/><path class="cls-10" d="M34.14,69.29c-5,2.2-11.42,2.4-17.53-4.47l0,0c3.6,10.52,13.44,9.8,18.76,8.35A9.1,9.1,0,0,1,34.14,69.29Z"/><path class="cls-11" d="M77,74.09A4.06,4.06,0,0,1,74.71,73h0l.24.21c-.7,1.55-3.6,4.15-7.53,5.83.7,1.88,1.48,4,2.86,4.67,1.12.53,6,.29,7.5-.32.88-.37-1.52-6.25-1.6-7A2.22,2.22,0,0,1,77,74.09Z"/><path class="cls-12" d="M73.5,70.48c.13-.31.78-.58,1.52-.8V69.5c-1.45.6-3.25,1.54-4.09,1.38-1.4-.26-4.08-1-1.45-3.25.7-.59-4.22-1.94-5.62-2.34s-1.53-2.09-1.13-2.23,0-.56-.21-.68c-1.39-1.05-5.61-3.66-3.15-5.26.81-.52-1.33-3.76-.36-4.53-2.7-1.19-5.32-2.86-8.42-3.22-14-1.58-19.41,17.9-15.09,24,1.87,2.64,3.86,3.69,5.69,3.95a16.68,16.68,0,0,0,9.15,3.09,19.59,19.59,0,0,0,5.15-.34c9.1,2.63,18.14-3.95,19.45-6.86A4.25,4.25,0,0,1,73.5,70.48Z"/><path class="cls-11" d="M73.09,70.34a9.27,9.27,0,0,1-1.88.56,6.37,6.37,0,0,0,1.88-.56Z"/><path class="cls-10" d="M74.92,73.22a3.49,3.49,0,0,1-1.83-2.88,6.37,6.37,0,0,1-1.88.56,4.93,4.93,0,0,1-1.41.1c-1.39-.22-2.57-1.69-.81-3.23,1.5-1.31-8.46-1.48-6.64-4.83.46-.86-6.51-3.68-3.12-6.3.18-.15-.87-2.32-.82-4.32a3.1,3.1,0,0,1,2.73-3.26c.55-.11.5-2.72,1.94-4.05-3.85-.15-3.46,4.65-4.22,4.81a3.22,3.22,0,0,0-2.35,1.58c-1.16,2.22.68,5.81.44,6-3.39,2.62,3.58,5.44,3.11,6.3-1.81,3.35,8.15,3.52,6.65,4.83-2,1.74-.22,3.34,1.33,3.27a4.92,4.92,0,0,0,1.3-.2c3.14-.51,3.22.45,5.46,1.92,0-.1.1-.19.14-.28Z"/><path class="cls-13" d="M94.16,65.53,94,65.41l0,0-.15-.12,0,0-.13-.12,0,0L93.49,65l0,0-.12-.13h0l-.12-.14,0,0a1.34,1.34,0,0,1-.11-.14l0,0L93,64.35v0a.71.71,0,0,1-.1-.14l0,0a1,1,0,0,0-.08-.14h0a1.09,1.09,0,0,0-.08-.15l0,0-.07-.15,0,0-.06-.13,0,0-.06-.15,0-.05a.61.61,0,0,0-.05-.12l0-.06a.61.61,0,0,0,0-.12l0-.08,0-.07c-.12-.28-.23-.56-.35-.86h0l-.18-.4h0l-.09-.2h0l-.2-.4v0l-.23-.4v0L91,60.3l0,0a2.14,2.14,0,0,0-.13-.19h0l-.15-.2,0,0-.15-.2h0c-.87-1.37-2.42-2.9-5.63-4.32-2.2-1-2.28-3.52-2.43-6.16,0-.58.05-1.17.07-1.77.08-2.91-2.12-1.42-2.33-1.81C76.65,39,73.27,43,73,42.74c-3.4-3.2-6.08,1.76-6.63,1.64-4.93-1.08-4.41,4.51-5.23,4.68-5,1-1.59,7.33-1.91,7.58-3.39,2.62,3.58,5.44,3.12,6.3-1.82,3.35,8.14,3.52,6.64,4.83-2,1.74-.22,3.34,1.33,3.27a4.92,4.92,0,0,0,1.3-.2,9.8,9.8,0,0,0,1.81-.65c-.23.87,1,4.2,4.61,3.93h0a7,7,0,0,0,1.26-.23C83,72.29,84,75.17,87,75.12a2.75,2.75,0,0,0,2.44-1.38l-.09,0-.13.22c-2.16.88-2.56-.83-3.92-1-3.13-.5-5.68-1.91-4.31-4.68a1.89,1.89,0,0,0,0-.75c-.29-.53-1.09.16-.6-.5a1,1,0,0,1,1.85.39c.06.31-.19,0-.41,0s-.35.28-.34.5c.22,5.07,6,2.62,7.52,3.73,2.08.78,6.26,0,5.93-2.7C94.87,67.82,95.38,66.37,94.16,65.53Z"/><path class="cls-14" d="M85.32,72.94c1.36.22,1.76,1.93,3.92,1l.13-.22C87.29,74.58,86.66,73.16,85.32,72.94Z"/><path class="cls-15" d="M85.32,72.94c1.36.22,1.76,1.93,3.92,1l.13-.22C87.29,74.58,86.66,73.16,85.32,72.94Z"/><path class="cls-15" d="M89.08,71.67c-1.55-1.11-7.3,1.34-7.52-3.73,0-.22.19-.5.34-.5s.47.27.41,0A1,1,0,0,0,80.46,67c-.49.66.31,0,.6.5a1.89,1.89,0,0,1,0,.75c-1.37,2.77,1.18,4.18,4.31,4.68,1.34.22,2,1.64,4.05.83C89.85,73.51,90,72.76,89.08,71.67Z"/><path class="cls-16" d="M73.43,70.19l-.34.15h0a3.49,3.49,0,0,0,1.83,2.88l0,0s0,0,0,0A3.77,3.77,0,0,1,73.43,70.19Z"/><path class="cls-17" d="M94.93,55.82c0,.07-.09.13-.13.19S94.89,55.89,94.93,55.82Z"/><path class="cls-17" d="M93,58.15l-.13.13Z"/><path class="cls-17" d="M91.17,59.64l-.32.17Z"/><path class="cls-17" d="M93.67,57.46c-.07.07-.13.15-.19.22S93.6,57.53,93.67,57.46Z"/><path class="cls-17" d="M92.07,59l-.14.11Z"/><path class="cls-17" d="M94.73,56.11c-.06.07-.11.15-.16.22S94.67,56.18,94.73,56.11Z"/><path class="cls-17" d="M91.72,59.29l-.17.11Z"/><path class="cls-17" d="M91.34,59.54l-.13.08Z"/><path class="cls-17" d="M94.28,56.71l-.15.19Z"/><path class="cls-17" d="M92.85,58.33l-.16.16Z"/><path class="cls-17" d="M94.53,56.39c-.07.09-.14.17-.2.26C94.39,56.56,94.46,56.48,94.53,56.39Z"/><path class="cls-17" d="M91.51,59.43l-.13.08Z"/><path class="cls-17" d="M91.89,59.16l-.17.12Z"/><path class="cls-17" d="M93.86,57.23a1.07,1.07,0,0,1-.14.16A1.07,1.07,0,0,0,93.86,57.23Z"/><path class="cls-17" d="M89.91,58.78c1.4-.38,3.29-1.72,5.44-4.81a15.9,15.9,0,0,0,2.08-5.19c-.44.69-3.16,4.83-7.09,5.95a27.72,27.72,0,0,1-4.58,1A12.37,12.37,0,0,1,89.91,58.78Z"/><path class="cls-17" d="M90.72,59.88h0l.11-.06Z"/><path class="cls-17" d="M92.44,58.71l-.14.12Z"/><path class="cls-17" d="M92.66,58.51l-.18.16Z"/><path class="cls-17" d="M95.15,55.51l-.15.2Z"/><path class="cls-17" d="M92.25,58.87l-.13.11Z"/><path class="cls-17" d="M93.23,58l-.13.13Z"/><path class="cls-17" d="M95.42,55.1l-.21.31Z"/><path class="cls-17" d="M93.46,57.69l-.17.19Z"/><path class="cls-17" d="M94.06,57s-.09.1-.13.16S94,57,94.06,57Z"/><path class="cls-17" d="M90.69,59.89h0Z"/><path class="cls-17" d="M90,60.13l-.13,0Z"/><path class="cls-17" d="M89.89,60.17l-.13,0Z"/><path class="cls-17" d="M90.66,59.9l-.13.06Z"/><path class="cls-17" d="M90.51,60l-.45.15Z"/><path class="cls-18" d="M93.72,57.39l0,.07Z"/><path class="cls-18" d="M93.48,57.68h0Z"/><path class="cls-18" d="M95.21,55.41l-.06.1Z"/><path class="cls-18" d="M94.8,56l-.07.1Z"/><path class="cls-18" d="M95,55.71l-.07.11Z"/><path class="cls-18" d="M93.93,57.15l-.07.08Z"/><path class="cls-18" d="M97.43,48.78h0l.06-.1Z"/><path class="cls-18" d="M94.13,56.9l-.07.09Z"/><path class="cls-18" d="M94.33,56.65l0,.06Z"/><path class="cls-18" d="M94.57,56.33l0,.06Z"/><path class="cls-18" d="M92.3,58.83l0,0Z"/><path class="cls-18" d="M91.55,59.4l0,0Z"/><path class="cls-18" d="M91.93,59.13l0,0Z"/><path class="cls-18" d="M91.38,59.51l0,0Z"/><path class="cls-18" d="M91.72,59.28h0Z"/><path class="cls-18" d="M90.85,59.81h0Z"/><path class="cls-18" d="M91.21,59.62l0,0Z"/><path class="cls-18" d="M93.29,57.88l-.06.07Z"/><path class="cls-18" d="M92.9,58.28l-.05,0Z"/><path class="cls-18" d="M93.1,58.08l-.07.07Z"/><path class="cls-18" d="M92.12,59l-.05,0Z"/><path class="cls-18" d="M92.48,58.67l0,0Z"/><path class="cls-18" d="M92.69,58.49l0,0Z"/><path class="cls-13" d="M90.06,60.12h0Z"/><path class="cls-18" d="M90.06,60.12h0Z"/><path class="cls-13" d="M89.76,60.19Z"/><path class="cls-18" d="M89.76,60.19Z"/><path class="cls-13" d="M89.91,60.16h0Z"/><path class="cls-18" d="M89.91,60.16h0Z"/><path class="cls-13" d="M90.53,60h0Z"/><path class="cls-18" d="M90.53,60h0Z"/><path class="cls-13" d="M90.69,59.89h0Z"/><path class="cls-18" d="M90.69,59.89h0Z"/><path class="cls-17" d="M89.91,58.78a8.73,8.73,0,0,1,.64.87h0l.15.2,0,0,.11-.06h0l.32-.17,0,0,.13-.08,0,0,.13-.08,0,0,.17-.11h0l.17-.12,0,0,.14-.11.05,0,.13-.11,0,0,.14-.12,0,0,.18-.16,0,0,.16-.16.05,0,.13-.13.07-.07.13-.13.06-.07.17-.19h0c.06-.07.12-.15.19-.22l0-.07a1.07,1.07,0,0,0,.14-.16l.07-.08c0-.06.09-.11.13-.16l.07-.09.15-.19,0-.06c.06-.09.13-.17.2-.26l0-.06c.05-.07.1-.15.16-.22l.07-.1c0-.06.09-.12.13-.19l.07-.11.15-.2.06-.1.21-.31a17.87,17.87,0,0,0,2.07-6.42l-.06.1A15.9,15.9,0,0,1,95.35,54C93.2,57.06,91.31,58.4,89.91,58.78Z"/><path class="cls-18" d="M89.91,58.78a8.73,8.73,0,0,1,.64.87h0l.15.2,0,0,.11-.06h0l.32-.17,0,0,.13-.08,0,0,.13-.08,0,0,.17-.11h0l.17-.12,0,0,.14-.11.05,0,.13-.11,0,0,.14-.12,0,0,.18-.16,0,0,.16-.16.05,0,.13-.13.07-.07.13-.13.06-.07.17-.19h0c.06-.07.12-.15.19-.22l0-.07a1.07,1.07,0,0,0,.14-.16l.07-.08c0-.06.09-.11.13-.16l.07-.09.15-.19,0-.06c.06-.09.13-.17.2-.26l0-.06c.05-.07.1-.15.16-.22l.07-.1c0-.06.09-.12.13-.19l.07-.11.15-.2.06-.1.21-.31a17.87,17.87,0,0,0,2.07-6.42l-.06.1A15.9,15.9,0,0,1,95.35,54C93.2,57.06,91.31,58.4,89.91,58.78Z"/><path class="cls-17" d="M76.77,56.1c-.1,1.68,5.12,4.57,6.71,4.57S91.41,51.88,87.42,45a26.23,26.23,0,0,0-3-4.35s1.94,6.45-1.34,10.12C79.4,54.91,76.83,55.12,76.77,56.1Z"/><path class="cls-17" d="M95.31,64.39c-.49.63-3.07,2.23-3.23,3.35s1,3.16,3.77,1.81c2.5-1.22,2.67-4.28,2.74-5.38.12-2.06-1-5-1.58-3.13A12.16,12.16,0,0,1,95.31,64.39Z"/><path class="cls-18" d="M87.42,45a26.23,26.23,0,0,0-3-4.35,1.11,1.11,0,0,1,0,.13,35.15,35.15,0,0,1,2.29,3.88c3.39,6.58-2,14.33-4.28,15.78a3.81,3.81,0,0,0,1,.21C85.07,60.67,91.41,51.88,87.42,45Z"/><path class="cls-18" d="M98,61a7.82,7.82,0,0,1,0,3.34c-.27,1.16-1,4.38-3.88,5.22a4.77,4.77,0,0,1-1,.2,3,3,0,0,0,2.74-.23c2.5-1.22,2.67-4.28,2.74-5.38A7.27,7.27,0,0,0,98,61Z"/><path class="cls-10" d="M74.56,73.85l0,0a17.67,17.67,0,0,1-7.23,5.26h0c1.31.07,7.06-2.61,7.49-5.6A3.68,3.68,0,0,1,74.56,73.85Z"/><path class="cls-11" d="M74.56,73.85a36,36,0,0,1-17,4.07,37.63,37.63,0,0,1-10.85-1.56,5.35,5.35,0,0,0-.38,2.58,3.77,3.77,0,0,0,.19.92,20.33,20.33,0,0,0,3.78.58,19.59,19.59,0,0,0,5.15-.34,17.8,17.8,0,0,0,11.88-1,17.67,17.67,0,0,0,7.23-5.26Z"/><path class="cls-13" d="M37.71,63.51a6.53,6.53,0,0,0-3.1,7.8,7.77,7.77,0,0,0,2.08,3.45h0c.41,2.57-1.69,3.65-2,4.6-.13.45-.82,2.45.75,3.65,1.8,1.38,6.85,1.86,9.47.53,3.32-1.69,1.57-3.06,1.5-4.6a4.89,4.89,0,0,1,.56-2.9c2.49-2.13,1.83-6.75,1.53-7.76C47.23,64.15,42.73,60.7,37.71,63.51Z"/><path class="cls-13" d="M66.71,73.89a5.53,5.53,0,0,0-3.27-7.25c-3-1-6.72.29-7.76,3.29a9.84,9.84,0,0,0-.13,4.77c.46,2.3-.86,3.16-1.89,4.66A2.65,2.65,0,0,0,54.4,83c1.8,1.38,6.74,1.59,9.48.51,2.56-1,.61-3,.69-4.56C64.71,76.5,66.43,74.7,66.71,73.89Z"/><path class="cls-19" d="M79.61,82.21a7.91,7.91,0,0,0-2.28,0c-.64,0-1.25-.9-1.28-1.56a1.17,1.17,0,0,1,1.11-1.25C78.81,79.36,79.72,81.83,79.61,82.21Z"/><path class="cls-17" d="M78.66,83.47a7.34,7.34,0,0,0-2.34,0,1.31,1.31,0,0,1,0-2.61A2.6,2.6,0,0,1,78.66,83.47Z"/><path class="cls-17" d="M36,82.48c-.22,1-2.28,1.88-2.28,1.88a5.63,5.63,0,0,1-.25-2.42c.21-1,1-1.71,1.65-1.56S36.24,81.47,36,82.48Z"/><path class="cls-17" d="M41.2,82.73c0,1-2,3.15-2,3.15a11.64,11.64,0,0,1-1.07-3.15,1.53,1.53,0,1,1,3,0Z"/><path class="cls-17" d="M46.09,82c.41,1.51-.93,3.54-.93,3.54a11.68,11.68,0,0,1-2.34-2.37,1.62,1.62,0,0,1,.63-2.2A1.8,1.8,0,0,1,46.09,82Z"/><path class="cls-17" d="M55.75,82.49c-.2.92-2.42,1.65-2.42,1.65A4.76,4.76,0,0,1,53,81.89a1.45,1.45,0,1,1,2.79.6Z"/><path class="cls-17" d="M60.42,82.62c.06.83-1.74,2.88-1.74,2.88a9.7,9.7,0,0,1-1.23-2.69,1.49,1.49,0,1,1,3-.19Z"/><path class="cls-17" d="M65.06,81.84c.46,1.26-.54,3.1-.54,3.1a9.93,9.93,0,0,1-2.17-1.86,1.39,1.39,0,0,1,.37-1.93A1.55,1.55,0,0,1,65.06,81.84Z"/><path class="cls-20" d="M91.13,70.27c-.29.51-.42-.33-.87-.48s-.9.4-.76,0a.86.86,0,0,1,1.08-.55A.8.8,0,0,1,91.13,70.27Z"/><circle cx="84.28" cy="63.75" r="2.98"/><circle class="cls-21" cx="83.34" cy="62.77" r="1.39"/><circle class="cls-21" cx="85.52" cy="64.56" r="0.64"/><path class="cls-6" d="M74.75,114.71l.83-.48-1.43-2.48-.83.48L73,111.7l2.23-1.29.3.53-.83.49,1.43,2.48.83-.48.31.53-2.22,1.28Z"/><path class="cls-6" d="M76.49,109.69l.48-.28,2.6,1.59-1.33-2.32.54-.31,2,3.54-.45.26-2.65-1.63,1.37,2.37-.56.32Z"/><path class="cls-6" d="M80.07,107.62l2.2-1.27.31.54-1.64.94.56,1L83,108l.3.53-1.49.87.86,1.49-.55.32Z"/><path class="cls-6" d="M83.31,105.75l.56-.32,1.34,2.34a.78.78,0,0,0,1.17.33.77.77,0,0,0,.3-1.17l-1.35-2.34.56-.32,1.33,2.31a1.49,1.49,0,1,1-2.57,1.49Z"/><path class="cls-6" d="M87,103.61l1.2-.69a1.22,1.22,0,0,1,1.66.44,1.18,1.18,0,0,1-.07,1.32l1.62,1.12-.61.34-1.53-1-.51.29.85,1.46-.56.32Zm2.1.87a.54.54,0,0,0,.21-.79.57.57,0,0,0-.8-.24l-.64.37.59,1Z"/><path class="cls-6" d="M91.34,101.12l.49-.28,3.27,2.83-.57.33-.71-.64-1.3.75.2.94-.56.32Zm2,1.86L92,101.77l.37,1.77Z"/><path class="cls-6" d="M18.64,28.14l-.48.28-.18-.3.51-.29-.17-.33-.39.22-.17-.3.41-.23-.25-.51.31-.18.25.5.36-.2-.25-.51.32-.18.24.51.49-.29.17.3-.5.3.16.33.4-.23.17.3-.42.24.25.5-.32.19-.25-.5L19,28l.25.5-.32.18Zm.51-.69L19,27.11l-.36.2.17.34Z"/><path class="cls-6" d="M20.16,25.39l.82-.48c.53-.3,1.11-.2,1.63.68s.3,1.44-.23,1.75l-.82.47Zm2,1.58c.37-.21.45-.48,0-1.16s-.66-.74-1-.53l-.44.25,1,1.7Z"/><path class="cls-6" d="M22.91,23.8l1.5-.87.21.37-1.11.64.34.61,1-.59.21.36-1,.59.42.73L25.6,25l.21.37-1.5.86Z"/><path class="cls-6" d="M25.22,22.47l.41-.24,1.72,1.55-.47-2.27.42-.24.55,2.91-.39.23Z"/><path class="cls-6" d="M30.76,21.5a1,1,0,0,1-.38,1.29c-.52.3-1.13.15-1.65-.74s-.33-1.49.19-1.79a1,1,0,0,1,1.31.32l-.31.26a.55.55,0,0,0-.79-.21c-.36.2-.41.52,0,1.2s.69.8,1.05.6a.56.56,0,0,0,.21-.79Z"/><path class="cls-6" d="M31.3,20.57c-.51-.88-.33-1.49.19-1.79s1.13-.15,1.64.74S33.47,21,33,21.31,31.81,21.46,31.3,20.57Zm1.45-.84c-.39-.68-.69-.79-1.05-.58s-.41.52,0,1.2.7.8,1.06.6S33.15,20.42,32.75,19.73Z"/><path class="cls-6" d="M33.38,17.76l.33-.19,1.78,1.08-.92-1.58.38-.22,1.39,2.43-.3.18-1.82-1.12L35.16,20l-.38.22Z"/><path class="cls-6" d="M36,16.22l.89-.51a.85.85,0,0,1,1.16.32.84.84,0,0,1-.3,1.17l-.51.29.54.94-.38.22Zm1.54.62a.43.43,0,0,0,.13-.6.4.4,0,0,0-.57-.17l-.51.3.44.76Z"/><path class="cls-6" d="M39.25,14.37l.33-.19,2.24,1.93-.39.23L41,15.9l-.89.52.13.64-.38.22Zm1.41,1.27-.93-.82L40,16Z"/><path class="cls-6" d="M41.31,13.18l.82-.48a.83.83,0,0,1,1.09,1.21l1.11.76-.42.24-1-.73-.34.2.57,1-.38.22Zm1.44.59a.37.37,0,0,0,.14-.54.39.39,0,0,0-.55-.16l-.44.25.41.7Z"/><path class="cls-6" d="M43.88,11.7l.38-.22.67,1.16L45.14,11l.41-.24-.18,1.5,1.72.84-.45.27-1.34-.66-.06.5.42.72-.38.22Z"/></g></g></svg>