<?xml version="1.0" encoding="utf-8"?>
<!-- Generator: Adobe Illustrator 16.0.0, SVG Export Plug-In . SVG Version: 6.00 Build 0)  -->
<!DOCTYPE svg PUBLIC "-//W3C//DTD SVG 1.1//EN" "http://www.w3.org/Graphics/SVG/1.1/DTD/svg11.dtd">
<svg version="1.1" id="Layer_1" xmlns="http://www.w3.org/2000/svg" xmlns:xlink="http://www.w3.org/1999/xlink" x="0px" y="0px"
	 width="110.851px" height="128px" viewBox="8.84 -8.015 110.851 128" enable-background="new 8.84 -8.015 110.851 128"
	 xml:space="preserve">
<polygon fill="#0CC67F" points="119.691,87.984 64.265,119.984 8.84,87.984 8.84,23.985 64.265,-8.015 119.691,23.985 "/>
<polygon fill="#12A06D" points="109.92,29.44 109.92,82.56 99.54,88.58 99.32,88.7 99.21,88.76 99.1,88.82 90.53,93.78 83.93,97.6 
	68.85,106.33 66.17,107.87 64.02,109.12 59.13,106.29 40,95.22 37.99,94.06 37.29,93.65 18.13,82.56 18.13,29.44 64.02,2.88 "/>
<path fill="#0CC67F" d="M104.959,88.148C90.266,77.037,75.732,65.456,62.025,53.144C55.21,47.021,48.38,40.903,41.807,34.521
	c-4.51-4.379-9.749-8.432-14.139-13.095c-0.536,0.902-1.087,1.794-1.657,2.674c4.368,5.194,9.999,9.463,14.839,14.122
	c7.049,6.784,14.28,13.355,21.545,19.909c13.578,12.247,28.032,23.727,42.61,34.76c0.024-0.082,0.052-0.16,0.077-0.24
	C104.846,91.441,105.725,88.727,104.959,88.148z"/>
<path fill="#0CC67F" d="M51.094,67.993C44.279,61.87,37.448,55.752,30.876,49.37c-4.017-3.9-8.609-7.542-12.668-11.586
	c-0.501,1.002-1.013,1.998-1.533,2.987c4.09,4.398,8.979,8.194,13.245,12.299c7.049,6.784,14.28,13.355,21.544,19.909
	c11.483,10.357,23.595,20.162,35.876,29.615c0.887-0.031,1.771-0.055,2.655-0.057c1.041-0.002,2.267,0.058,3.547,0.089
	C79.016,91.629,64.648,80.17,51.094,67.993z"/>
<path fill="#0CC67F" d="M39.092,81.919c-6.815-6.123-13.646-12.239-20.219-18.622c-2.138-2.075-4.439-4.079-6.737-6.107
	c0.303,1.517,0.331,3.096,0.069,4.621c1.943,1.72,3.884,3.427,5.712,5.187c7.049,6.784,14.28,13.354,21.544,19.908
	c7.043,6.353,14.326,12.497,21.736,18.481c0.656-0.111,1.33-0.16,2.069-0.275c0.938-0.146,1.878-0.326,2.819-0.517
	C56.868,97.288,47.812,89.753,39.092,81.919z"/>
<path fill="#0CC67F" d="M74.027,39.217c-6.814-6.123-13.646-12.241-20.218-18.623c-3.949-3.833-8.451-7.419-12.456-11.381
	c-0.527,0.92-1.192,1.756-1.99,2.475c4.14,4.525,9.13,8.412,13.489,12.607c7.049,6.784,14.281,13.355,21.544,19.909
	c12.486,11.263,25.72,21.87,39.104,32.083c0.359-1.213,0.941-2.365,1.604-3.48C101.044,62.126,87.154,51.01,74.027,39.217z"/>
<path fill="#0CC67F" d="M117.15,51.192c-10.639-8.314-21.105-16.904-31.121-25.901C79.216,19.169,72.385,13.05,65.813,6.668
	c-0.951-0.924-1.938-1.832-2.938-2.736C61.4,4.156,59.927,4.378,58.452,4.58c2.173,1.924,4.36,3.821,6.403,5.788
	c7.051,6.784,14.281,13.355,21.545,19.909c9.793,8.832,20.045,17.256,30.467,25.409C116.697,54.186,116.785,52.651,117.15,51.192z"
	/>
<path fill="#0CC67F" d="M83.95,97.62l-15.101,8.71l-2.68,1.54l-1.52-1.28l-1.71-1.43L39.97,85.85l-1.31-1.1l-1.39-1.17L20.91,69.84
	l-0.07-0.06l-1.03-0.87l-1.68-1.42l-0.18-0.15l-5.87-4.93c0.057-0.264,0.103-0.526,0.15-0.789c0.059-0.37,0.1-0.742,0.122-1.117
	c0.006-0.124,0.009-0.246,0.015-0.37c0.012-0.424,0.013-0.849-0.017-1.273c-0.01-0.2-0.03-0.4-0.05-0.601
	c-0.01-0.12-0.02-0.24-0.04-0.359c-0.03-0.24-0.07-0.471-0.12-0.71c-0.3-1.51-0.88-2.96-1.74-4.22l5.1-15.19l2.45,2.14l0.18,0.16
	l1.68,1.47l45.51,39.78L82.47,96.32l1.46,1.279L83.95,97.62z"/>
<path fill="#0CC67F" d="M118.27,51.894L62.346,4.667L37.671,7.833l75.496,65.31l5.311-12.672
	C117.404,57.775,117.328,54.643,118.27,51.894z"/>
<g id="Layer_3" display="none">
	<path display="inline" fill="#990E16" d="M96.378,36.801c-0.155-0.402-0.364-0.747-0.606-1.046
		c-0.729-2.291-2.008-4.288-4.524-5.073c-6.242-1.948-11.776-3.867-18.363-4.279c-5.965-0.373-10.607,2.098-16.057,3.977
		c-1.699,0.587-3.282,1.403-4.764,2.371c-0.69-0.162-1.43-0.092-2.104,0.317c-0.769,0.469-1.224,1.027-1.541,1.773
		c-2.459,0.985-4.849,3.205-6.199,4.786c-3.882,4.553-7.263,9.954-9.465,15.518c-3.102,7.839-2.75,18.565,7.229,20.322
		c0.892,0.158,1.632-0.101,2.2-0.583c0.064,0.025,0.121,0.062,0.188,0.082c2.403,0.787,4.851,1.218,7.319,1.638
		c1.095,0.851,2.25,1.254,3.674,1.491c0.15,0.025,0.297,0.029,0.445,0.034c1.895,1.083,4.892,1.207,6.732,1.479
		c1.132,0.168,2.144,0.227,3.147,0.313c2.895,1.37,6.36,2.017,9.222,2.119c0.234,0.003,0.46-0.015,0.669-0.05
		c0.718,0.269,1.444,0.521,2.237,0.615c0.062,0.006,0.113,0,0.174,0.006c0.482,0.182,0.96,0.427,1.428,0.602
		c0.814,0.309,1.604,0.235,2.287-0.07c0.906-0.132,1.788-0.662,2.179-1.474c0.013-0.026,0.021-0.051,0.034-0.076
		c0.073-0.131,0.137-0.267,0.182-0.411c0.602-1.396,0.941-2.884,1.213-4.404c1.11-3.479,2.66-7.021,4.133-10.32
		c1.445-3.24,4.313-7.048,4.711-10.515c0.037-0.308-0.01-0.586-0.086-0.847c0.123-0.182,0.244-0.367,0.348-0.58
		c0.902-1.837,1.63-3.702,1.732-5.715c0.342-0.333,0.646-0.752,0.882-1.28c0.627-1.4,0.907-3.041,1.073-4.714
		c0.271-0.369,0.472-0.802,0.563-1.312C96.961,39.85,96.982,38.375,96.378,36.801z"/>
	<path display="inline" fill="#EC1622" d="M85.67,29.482c-0.635-1.269-1.576-0.636-3.279-1.092c-0.451-0.121-0.519,0.21-0.257,0.094
		c-0.247,0.076-0.53-0.014-0.774-0.081c-1.112-0.303-1.864-0.29-3.014-0.005c-0.006,0.002-0.012,0.006-0.018,0.008
		c-2.43-5.104-18.808,0.861-20.775,1.544c-7.505,2.608-13.366,6.921-18.669,12.755c-2.712,2.983-4.217,7.191-5.66,10.901
		c-1.119,2.873-2.85,6.093-2.771,9.251c0.137,5.621,3.028,12.119,9.527,11.879c0.833-0.031,1.319-0.76,1.319-1.449
		c0.532-0.23,0.963-0.697,1.141-1.447c1.202-5.074,0.209-10.725,0.23-16.007c0.372,0.069,0.757,0.122,1.175,0.144
		c1.097,0.058,2.146-0.615,3.219-0.324c1.959,0.531,3.928,1.181,5.634,0.331c0.745-0.067,1.317-0.221,1.958-0.563
		c2.665-0.871,5.382-2.469,7.935-4.027c0.991-0.466,1.925-0.883,2.798-1.378c2.086-1.069,4.127-2.203,6.178-3.387
		c3.05-1.766,3.435-3.503,5.326-6.24c1.428-2.065,3.771-4.721,3.985-7.336c1.399,0.391,2.802,0.331,4.241-0.657
		C86,31.79,86.109,30.358,85.67,29.482z"/>
	<path display="inline" fill="#7A0612" d="M90.369,54.282c-0.123,0.105-0.232,0.226-0.318,0.366c-0.324,0-0.634,0.03-0.932,0.075
		c-2.477,2.768-5.473,4.869-8.215,7.364c-1.656,1.508-3.303,2.987-5.086,4.299c-0.202,0.449-0.348,0.919-0.393,1.392
		c-3.047-0.631-4.443,4.281-1.492,5.354c0.072,0.027,0.145,0.07,0.217,0.104c0.041,0.283,0.143,0.557,0.322,0.798
		c0.48,0.639,0.818,1.194,1.101,1.782c0.017,0.209,0.056,0.42,0.129,0.634c0.147,0.438,0.315,0.856,0.519,1.271
		c0.291,0.6,0.941,0.944,1.61,1.038c0.521,1.3,0.972,2.552,1.376,3.431c0.473,1.021,1.701,1.153,2.641,0.726
		c0.707-2,1.578-3.995,2.405-5.854c1.336-3.01,2.291-6.158,3.587-9.184c0.057-0.135,0.123-0.252,0.195-0.357
		c1.537-3.75,3.063-7.586,4.427-11.386c0.093-0.159,0.151-0.332,0.185-0.51c0.059-0.163,0.121-0.329,0.179-0.493
		C93.382,53.551,91.01,52.779,90.369,54.282z"/>
	<path display="inline" fill="#FFA4AD" d="M49.647,33.339c0.039,0.343-1.126,1.114-1.375,1.338c-0.59,0.533-1.162,1.077-1.723,1.632
		c-0.095-0.107-0.236-0.162-0.417-0.089c-0.868,0.354-1.548,0.938-2.119,1.63c-0.154,0.003-0.317,0.049-0.482,0.166
		c-0.742,0.524-1.296,1.311-1.842,2.024c-0.159,0.208-0.311,0.425-0.376,0.662c-0.014,0.008-0.031,0.009-0.045,0.018
		c-2.328,1.393-3.479,3.761-3.975,6.372c-0.031,0.011-0.062,0.016-0.094,0.036c-1.33,0.855-1.942,2.333-2.607,3.709
		c-0.869,1.796-2.065,3.238-2.294,5.281c-0.021,0.19,0.068,0.313,0.193,0.376c-0.129,0.357-0.255,0.715-0.373,1.07
		c-0.226,0.693-1.048,2.295-0.52,3.006c0.344,0.464,1.604,0.014,0.699-0.455v-0.004c0-0.01,0.395-0.108,0.43-0.327
		c0.343-2.119,1.205-4.057,2.071-6.01c0.681-1.535,1.238-3.131,2.192-4.492c-0.125,1.995,0.051,4.014,0.309,5.762
		c0.014,0.094,0.055,0.169,0.088,0.252c-0.016,0.023-0.036,0.038-0.049,0.066c-0.342,0.731-0.759,1.416-1.216,2.076
		c-0.642,0.763-1.442,1.476-2.033,2.052c-1.153,1.12-2.744,2.206-3.209,3.825c-0.021,0.076-0.023,0.145-0.011,0.205
		c-0.058,0.067-0.119,0.133-0.174,0.199c-0.372,0.443,0.265,1.09,0.64,0.641c1.874-2.235,4.14-4.297,5.758-6.76
		c0.361-0.453,0.669-0.929,0.846-1.438c0.002-0.003,0-0.008,0.002-0.014c0.027-0.055,0.061-0.104,0.087-0.158
		c0.616,0.301,1.412,0.146,1.576-0.674c0.253,0.217,0.76,0.106,0.764-0.329c0.04-4.813,0.847-9.44,3.285-13.646
		c1.217-2.1,2.91-3.878,4.679-5.518c0.61-0.567,2.329-1.504,2.22-2.486C50.49,32.765,49.584,32.758,49.647,33.339z"/>
</g>
<g id="Layer_2" display="none">
	<g display="inline">
		<g>
			<path fill="#05053F" d="M79.563,83.879c-0.065,0.178-0.131,0.354-0.196,0.531c-0.808,2.189,2.659,3.102,3.472,0.957
				c5.237-13.822,10.239-27.737,15.365-41.602c-1.157-0.319-2.314-0.638-3.473-0.957c-0.071,0.195-0.145,0.391-0.215,0.586
				c-0.806,2.183,2.676,3.116,3.471,0.957c0.072-0.195,0.145-0.391,0.217-0.586c0.804-2.184-2.674-3.114-3.473-0.957
				c-5.125,13.865-10.127,27.78-15.364,41.602c1.157,0.318,2.313,0.639,3.472,0.957c0.064-0.178,0.13-0.354,0.195-0.531
				C83.837,82.652,80.355,81.72,79.563,83.879L79.563,83.879z"/>
		</g>
	</g>
	<g display="inline">
		<g>
			<path fill="#05053F" d="M48.205,75.063c-0.157-0.037-0.315-0.073-0.472-0.109c-0.319,1.156-0.638,2.314-0.957,3.471
				c11.397,2.59,22.781,5.241,34.175,7.842c2.26,0.517,3.22-2.949,0.957-3.472c-0.16-0.037-0.32-0.074-0.48-0.11
				c-2.26-0.521-3.219,2.949-0.957,3.472c0.16,0.036,0.32,0.073,0.48,0.11c0.318-1.156,0.638-2.313,0.957-3.472
				c-11.395-2.601-22.778-5.253-34.175-7.841c-2.259-0.514-3.22,2.947-0.957,3.471c0.157,0.037,0.315,0.073,0.472,0.109
				C49.507,79.057,50.466,75.585,48.205,75.063L48.205,75.063z"/>
		</g>
	</g>
	<g display="inline">
		<g>
			<path fill="#05053F" d="M48.289,74.727c-0.103,0.029-0.205,0.061-0.308,0.09c0.319,1.158,0.638,2.314,0.957,3.473
				c7.786-2.313,15.572-4.623,23.354-6.95c2.218-0.663,1.276-4.127-0.957-3.471c-0.108,0.032-0.22,0.063-0.329,0.097
				c-2.223,0.652-1.275,4.127,0.957,3.471c0.109-0.031,0.221-0.063,0.329-0.097c-0.319-1.157-0.638-2.313-0.957-3.471
				c-7.782,2.325-15.568,4.636-23.354,6.948c-2.22,0.66-1.274,4.133,0.957,3.473c0.103-0.03,0.206-0.063,0.308-0.092
				C51.467,77.539,50.521,74.064,48.289,74.727L48.289,74.727z"/>
		</g>
	</g>
	<g display="inline">
		<g>
			<path fill="#05053F" d="M70.646,68.529c-0.104,0.085-0.205,0.17-0.308,0.256c0.849,0.849,1.697,1.697,2.546,2.546
				c7.354-6.198,14.73-12.367,22.094-18.554c1.78-1.496-0.778-4.023-2.545-2.545c-0.104,0.086-0.207,0.173-0.312,0.26
				c-1.783,1.491,0.776,4.024,2.545,2.546c0.104-0.087,0.208-0.173,0.312-0.26c-0.849-0.849-1.696-1.697-2.545-2.545
				c-7.363,6.187-14.74,12.355-22.095,18.554c-1.778,1.5,0.78,4.021,2.546,2.546c0.102-0.086,0.204-0.171,0.307-0.257
				C74.975,69.583,72.414,67.051,70.646,68.529L70.646,68.529z"/>
		</g>
	</g>
	<g display="inline">
		<g>
			<path fill="#05053F" d="M79.307,85.646c0.041,0.069,0.082,0.14,0.123,0.207c1.035-0.604,2.071-1.211,3.107-1.815
				c-2.969-4.974-5.928-9.952-8.883-14.933c-1.035,0.604-2.071,1.211-3.107,1.816c0.041,0.069,0.083,0.141,0.124,0.209
				c1.187,1.993,4.298,0.184,3.108-1.816c-0.041-0.069-0.084-0.14-0.125-0.209c-1.184-1.994-4.295-0.186-3.107,1.816
				c2.955,4.98,5.914,9.959,8.883,14.932c1.188,1.991,4.291,0.188,3.107-1.815c-0.041-0.069-0.082-0.14-0.122-0.207
				C81.236,81.834,78.123,83.645,79.307,85.646L79.307,85.646z"/>
		</g>
	</g>
	<g display="inline">
		<g>
			<path fill="#05053F" d="M78.993,83.441c-0.017,0.107-0.034,0.216-0.052,0.324c1.158,0.317,2.314,0.637,3.473,0.957
				c1.232-8.193,2.473-16.388,3.713-24.58c0.344-2.269-3.12-3.248-3.473-0.957c-0.018,0.115-0.034,0.229-0.053,0.346
				c-0.349,2.271,3.121,3.246,3.471,0.957c0.019-0.115,0.035-0.229,0.055-0.346c-1.156-0.318-2.314-0.638-3.473-0.957
				c-1.24,8.192-2.479,16.387-3.713,24.58c-0.34,2.267,3.117,3.248,3.473,0.957c0.018-0.108,0.033-0.217,0.05-0.324
				C82.814,82.128,79.348,81.152,78.993,83.441L78.993,83.441z"/>
		</g>
	</g>
	<g display="inline">
		<g>
			<path fill="#05053F" d="M78.967,85.691c0.106,0.043,0.213,0.084,0.319,0.127c0.319-1.157,0.638-2.314,0.957-3.473
				c-8.077-3.111-16.143-6.254-24.22-9.365c-2.173-0.836-3.093,2.64-0.957,3.473c0.113,0.044,0.227,0.088,0.34,0.132
				c2.166,0.845,3.095-2.638,0.957-3.471c-0.113-0.046-0.227-0.089-0.34-0.134c-0.319,1.158-0.638,2.314-0.957,3.473
				c8.077,3.111,16.143,6.254,24.22,9.365c2.175,0.838,3.087-2.633,0.957-3.473c-0.106-0.041-0.214-0.082-0.319-0.125
				C77.762,81.369,76.833,84.854,78.967,85.691L78.967,85.691z"/>
		</g>
	</g>
	<g display="inline">
		<g>
			<path fill="#05053F" d="M49.697,79.07c0.048,0.014,0.096,0.025,0.144,0.037c0.319-1.156,0.638-2.313,0.957-3.472
				C47.16,74.75,43.52,73.87,39.885,72.97c-2.253-0.559-3.208,2.902-0.957,3.472c0.051,0.014,0.102,0.025,0.153,0.039
				c2.252,0.568,3.207-2.902,0.957-3.472c-0.051-0.014-0.102-0.026-0.153-0.039c-0.319,1.157-0.638,2.314-0.957,3.472
				c3.635,0.9,7.275,1.781,10.913,2.668c2.254,0.55,3.207-2.896,0.957-3.473c-0.048-0.012-0.096-0.023-0.144-0.035
				C48.404,75.021,47.45,78.495,49.697,79.07L49.697,79.07z"/>
		</g>
	</g>
	<g display="inline">
		<g>
			<path fill="#05053F" d="M53.556,57.521c0.057-0.086,0.114-0.172,0.171-0.258c-1.036-0.605-2.072-1.212-3.108-1.818
				c-4.1,6.254-8.237,12.486-12.331,18.744c-1.277,1.951,1.833,3.74,3.108,1.815c0.058-0.087,0.116-0.175,0.174-0.263
				c1.287-1.941-1.833-3.742-3.108-1.816c-0.058,0.088-0.116,0.176-0.174,0.264c1.036,0.604,2.072,1.211,3.108,1.815
				c4.094-6.258,8.231-12.487,12.331-18.741c1.277-1.95-1.837-3.745-3.108-1.818c-0.057,0.086-0.114,0.173-0.171,0.259
				C49.165,57.648,52.284,59.451,53.556,57.521L53.556,57.521z"/>
		</g>
	</g>
	<g display="inline">
		<g>
			<path fill="#05053F" d="M39.019,46.854c-0.01-0.132-0.021-0.264-0.031-0.396c-1.2,0-2.4,0-3.6,0
				c0.767,9.493,1.512,18.987,2.28,28.479c0.186,2.297,3.784,2.315,3.6,0c-0.01-0.133-0.021-0.268-0.032-0.399
				c-0.183-2.298-3.784-2.315-3.6,0c0.01,0.133,0.021,0.267,0.032,0.399c1.2,0,2.4,0,3.6,0c-0.768-9.492-1.513-18.987-2.279-28.479
				c-0.186-2.296-3.784-2.316-3.6,0c0.011,0.132,0.021,0.264,0.032,0.396C35.602,49.153,39.203,49.17,39.019,46.854L39.019,46.854z"
				/>
		</g>
	</g>
	<g display="inline">
		<g>
			<path fill="#05053F" d="M38.334,53.579c-0.061-0.005-0.121-0.011-0.182-0.016c-2.316-0.203-2.29,3.391,0,3.6
				c4.563,0.417,9.125,0.84,13.689,1.247c2.316,0.206,2.289-3.387,0-3.601c-0.064-0.006-0.129-0.012-0.193-0.018
				c-2.312-0.215-2.291,3.387,0,3.6c0.064,0.006,0.129,0.012,0.193,0.02c0-1.2,0-2.4,0-3.601c-4.564-0.406-9.126-0.83-13.689-1.247
				c0,1.2,0,2.4,0,3.6c0.061,0.005,0.121,0.011,0.182,0.016C40.648,57.382,40.628,53.78,38.334,53.579L38.334,53.579z"/>
		</g>
	</g>
	<g display="inline">
		<g>
			<path fill="#05053F" d="M30.054,60.512c-0.03,0.034-0.06,0.069-0.09,0.104c-1.516,1.741,1.018,4.3,2.546,2.546
				c2.168-2.489,4.329-4.985,6.508-7.465c-0.849-0.849-1.697-1.697-2.546-2.546c-0.03,0.035-0.061,0.07-0.091,0.105
				c-1.511,1.746,1.024,4.305,2.546,2.546c0.03-0.035,0.061-0.07,0.091-0.104c1.509-1.744-1.008-4.296-2.546-2.546
				c-2.179,2.48-4.339,4.976-6.508,7.465c0.849,0.849,1.697,1.696,2.546,2.546c0.03-0.035,0.06-0.069,0.09-0.104
				C34.116,61.314,31.581,58.757,30.054,60.512L30.054,60.512z"/>
		</g>
	</g>
	<g display="inline">
		<g>
			<path fill="#05053F" d="M53.26,55.123c-0.087-0.063-0.175-0.126-0.262-0.189c-0.606,1.036-1.211,2.073-1.817,3.109
				c6.294,4.538,12.581,9.086,18.877,13.62c1.889,1.36,3.676-1.763,1.815-3.108c-0.088-0.063-0.177-0.129-0.267-0.193
				c-1.883-1.363-3.678,1.763-1.815,3.109c0.088,0.063,0.177,0.129,0.267,0.192c0.604-1.036,1.211-2.072,1.815-3.108
				c-6.296-4.533-12.583-9.082-18.876-13.621c-1.888-1.361-3.68,1.764-1.817,3.109c0.087,0.063,0.175,0.126,0.262,0.189
				C53.329,59.593,55.123,56.468,53.26,55.123L53.26,55.123z"/>
		</g>
	</g>
	<g display="inline">
		<g>
			<path fill="#05053F" d="M52.258,54.933c-0.097,0.047-0.194,0.094-0.292,0.142c0.606,1.036,1.211,2.073,1.817,3.108
				c6.97-3.411,13.958-6.783,20.925-10.199c2.086-1.023,0.26-4.116-1.817-3.108c-0.099,0.047-0.195,0.095-0.295,0.143
				c-2.089,1.013-0.263,4.117,1.816,3.108c0.1-0.048,0.197-0.095,0.296-0.143c-0.604-1.036-1.212-2.072-1.817-3.108
				c-6.967,3.417-13.955,6.789-20.924,10.199c-2.086,1.021-0.26,4.119,1.817,3.109c0.097-0.049,0.195-0.096,0.292-0.143
				C56.163,57.025,54.336,53.922,52.258,54.933L52.258,54.933z"/>
		</g>
	</g>
	<g display="inline">
		<g>
			<path fill="#05053F" d="M69.923,69.561c-0.008,0.104-0.016,0.207-0.022,0.311c1.199,0,2.399,0,3.601,0
				c0.545-7.813,1.087-15.626,1.658-23.438c-1.2,0-2.4,0-3.601,0c-0.008,0.11-0.016,0.22-0.022,0.33
				c-0.163,2.318,3.438,2.302,3.601,0c0.008-0.11,0.016-0.22,0.022-0.33c0.163-2.319-3.433-2.3-3.601,0
				c-0.57,7.811-1.113,15.624-1.658,23.438c-0.162,2.32,3.429,2.298,3.601,0c0.007-0.104,0.015-0.206,0.022-0.311
				C73.695,67.243,70.094,67.26,69.923,69.561L69.923,69.561z"/>
		</g>
	</g>
	<g display="inline">
		<g>
			<path fill="#05053F" d="M74.438,45.053c-0.086-0.018-0.172-0.036-0.256-0.055c-0.32,1.157-0.64,2.314-0.957,3.472
				c6.516,1.329,13.03,2.662,19.539,4.03c0.318-1.157,0.639-2.314,0.957-3.471c-0.093-0.019-0.185-0.038-0.275-0.057
				c-2.266-0.466-3.23,3.003-0.957,3.472c0.092,0.019,0.184,0.038,0.275,0.057c2.264,0.466,3.229-2.994,0.957-3.471
				c-6.509-1.369-13.023-2.701-19.539-4.031c-2.265-0.461-3.231,2.988-0.957,3.472c0.084,0.018,0.17,0.036,0.256,0.055
				C75.745,49.006,76.708,45.536,74.438,45.053L74.438,45.053z"/>
		</g>
	</g>
	<g display="inline">
		<g>
			<path fill="#05053F" d="M83.499,33.077c-0.054-0.078-0.104-0.156-0.158-0.234c-1.036,0.605-2.071,1.211-3.108,1.817
				c3.881,5.607,7.713,11.251,11.543,16.893c1.037-0.604,2.072-1.211,3.108-1.817c-0.054-0.079-0.108-0.158-0.161-0.237
				c-1.307-1.9-4.429-0.102-3.109,1.817c0.055,0.079,0.109,0.158,0.162,0.237c1.305,1.898,4.418,0.112,3.108-1.817
				c-3.829-5.642-7.661-11.286-11.543-16.893c-1.309-1.89-4.413-0.12-3.108,1.817c0.054,0.078,0.104,0.156,0.158,0.235
				C81.68,36.808,84.8,35.008,83.499,33.077L83.499,33.077z"/>
		</g>
	</g>
	<g display="inline">
		<g>
			<path fill="#05053F" d="M81.027,31.627c-0.036,0.011-0.073,0.021-0.111,0.032c0.318,1.157,0.639,2.314,0.957,3.472
				c2.832-0.869,5.667-1.73,8.505-2.576c-0.319-1.157-0.638-2.314-0.957-3.471c-0.04,0.012-0.079,0.024-0.119,0.036
				c-2.214,0.675-1.27,4.15,0.957,3.472c0.04-0.012,0.079-0.024,0.119-0.037c2.213-0.675,1.274-4.136-0.957-3.471
				c-2.838,0.846-5.673,1.707-8.505,2.576c-2.211,0.679-1.281,4.116,0.957,3.472c0.038-0.011,0.074-0.021,0.111-0.032
				C84.212,34.458,83.266,30.984,81.027,31.627L81.027,31.627z"/>
		</g>
	</g>
	<g display="inline">
		<g>
			<path fill="#05053F" d="M79.256,26.532c-0.021-0.027-0.04-0.054-0.061-0.082c-1.035,0.606-2.071,1.211-3.107,1.817
				c1.488,1.93,2.954,3.89,4.385,5.862c1.035-0.605,2.071-1.211,3.107-1.817c-0.021-0.027-0.041-0.055-0.063-0.082
				c-0.593-0.779-1.539-1.187-2.463-0.646c-0.77,0.451-1.24,1.68-0.646,2.463c0.021,0.027,0.042,0.054,0.063,0.082
				c0.592,0.779,1.539,1.187,2.463,0.646c0.783-0.459,1.223-1.667,0.646-2.463c-1.431-1.973-2.896-3.933-4.384-5.862
				c-0.598-0.775-1.534-1.189-2.463-0.646c-0.785,0.46-1.221,1.665-0.646,2.462c0.02,0.027,0.039,0.055,0.059,0.082
				c0.574,0.794,1.557,1.177,2.463,0.646C79.396,28.535,79.83,27.33,79.256,26.532L79.256,26.532z"/>
		</g>
	</g>
	<g display="inline">
		<g>
			<path fill="#05053F" d="M78.012,25.331c-0.054-0.017-0.105-0.033-0.158-0.049c-0.319,1.157-0.64,2.314-0.957,3.471
				c4.041,1.212,8.086,2.417,12.117,3.661c0.318-1.157,0.639-2.314,0.957-3.471c-0.058-0.018-0.113-0.035-0.172-0.052
				c-2.229-0.674-3.173,2.801-0.957,3.472c0.059,0.017,0.114,0.035,0.172,0.052c2.229,0.675,3.168-2.79,0.957-3.471
				c-4.031-1.244-8.076-2.449-12.117-3.661c-2.232-0.669-3.164,2.781-0.957,3.471c0.053,0.017,0.104,0.033,0.158,0.05
				C79.275,29.498,80.219,26.022,78.012,25.331L78.012,25.331z"/>
		</g>
	</g>
	<g display="inline">
		<g>
			<path fill="#05053F" d="M83.172,34.746c0.038-0.058,0.076-0.115,0.115-0.172c-1.036-0.605-2.072-1.211-3.109-1.817
				c-2.74,4.195-5.525,8.362-8.285,12.544c-1.283,1.944,1.834,3.743,3.108,1.817c0.039-0.059,0.078-0.118,0.117-0.176
				c1.284-1.943-1.835-3.744-3.109-1.817c-0.038,0.059-0.077,0.118-0.116,0.177c1.037,0.605,2.072,1.211,3.108,1.817
				c2.761-4.183,5.545-8.349,8.286-12.544c1.275-1.954-1.827-3.732-3.109-1.817c-0.037,0.057-0.076,0.115-0.115,0.172
				C78.768,34.864,81.889,36.664,83.172,34.746L83.172,34.746z"/>
		</g>
	</g>
	<g display="inline">
		<g>
			<path fill="#05053F" d="M89.893,32.798c4.961,0.12,6.156,6.034,4.902,9.867c-0.725,2.213,2.753,3.153,3.471,0.957
				c2.025-6.192-1.074-14.249-8.373-14.424C87.568,29.143,87.574,32.743,89.893,32.798L89.893,32.798z"/>
		</g>
	</g>
	<g display="inline">
		<g>
			<path fill="#05053F" d="M35.702,45.53c-4.812,5.287-7.076,13.731-6.826,20.771c0.228,6.429,5.313,8.839,10.601,10.446
				c2.227,0.678,3.171-2.797,0.957-3.471c-6.214-1.892-8.78-4.68-7.687-11.618c0.746-4.733,2.225-9.985,5.5-13.584
				C39.807,46.364,37.268,43.81,35.702,45.53L35.702,45.53z"/>
		</g>
	</g>
	<g display="inline">
		<g>
			<path fill="#05053F" d="M38.153,48.049c3.929-6.803,9.089-11.433,16.081-14.927c3.422-1.71,7.082-2.849,10.78-3.781
				c1.864-0.471,3.738-0.669,5.654-0.751c0.799-0.035,5.246,0.637,4.646-0.827c0.867,2.118,4.352,1.192,3.471-0.957
				c-0.98-2.395-4.473-1.851-6.6-1.831c-5.119,0.048-9.848,1.162-14.668,2.868c-9.707,3.436-17.323,9.472-22.473,18.389
				C33.882,48.246,36.993,50.058,38.153,48.049L38.153,48.049z"/>
		</g>
	</g>
</g>
<g id="Layer_7">
	<g>
		<path fill="#EAA978" d="M49.169,54.785c0-0.096,0-0.147,0-0.229c-0.002,0.117-0.004,0.229-0.006,0.229H49.169z"/>
		<g>
			<path fill="#EAA978" d="M80.713,43.128c-0.011-1.479-0.007-0.247-0.025-0.341c-0.217-1.005-1.515-1.252-2.002-0.562
				c-0.235-0.043-0.484-0.148-0.715-0.06c0.021-0.07,0.049-0.201,0.053-0.274c0.275-4.506-1.06-8.482-3.408-12.083
				c-0.454-0.85-1.018-1.687-1.768-2.46c-0.394-0.408-0.848-0.434-1.211-0.244c-0.221-0.231-0.41-0.484-0.652-0.701
				c-2.147-1.924-5.566-1.906-8.979-1.408c-0.282-0.479-0.896-0.771-1.513-0.449c-0.271,0.142-0.535,0.296-0.793,0.457
				c-0.009-0.193-0.024-0.33-0.052-0.336c-0.439-0.111-0.889,0.043-1.313-0.146c0.007,0.003-0.005,0.412-0.013,0.618
				c-0.26-0.122-0.575-0.164-0.895-0.05c-0.089,0.032-0.402,0.078-0.42,0.113c0.011,0.01,0.122,0.015,0.109,0.024
				c-0.573,0.221-1.042,0.464-1.562,0.746c-0.695,0.207-1.372,0.335-2.105,0.514c-0.695,0.168-0.881,0.899-0.7,1.474
				c-0.581,0.48-1.144,0.983-1.72,1.517c-0.165,0.15-0.256,0.351-0.291,0.563c-0.128,0.079-0.244,0.178-0.342,0.317
				c-1.178,1.679-1.963,3.443-2.499,5.417c-0.468,1.726-0.376,3.451-0.421,5.187c-0.081-0.015-0.148-0.003-0.228-0.012
				c-0.019-0.408-0.264-0.772-0.808-0.852c-1.563-0.229-1.923,0.922-2.124,2.273c-0.004,0.029,0.004,0.057,0.002,0.086
				c-0.422,1.128-0.579,2.13-0.282,3.398c0.212,0.895,1.254,0.987,1.871,0.494c0.341-0.273,0.559-0.652,0.751-1.044
				c-0.112,1.611-0.487,3.262,0.382,4.827c0.206,0.371,0.583,0.547,0.961,0.544c0.066,0.522,0.133,1.05,0.19,1.595
				c0.059,0.577,0.441,0.915,0.87,1.027c0.032,0.101,0.063,0.756,0.096,0.856c0.004,0.027,0.009-1.429,0.013,0.404
				c0.002-0.14,0.004-0.289,0.007-0.282c0.218,1.595,0.605,2.75,1.673,4.002c0.155,0.184,0.33,0.132,0.509,0.18
				c2.13,2.705,5.65,2.742,8.987,2.576c0.766,0.415,1.638,0.648,2.667,0.686c0.562,0.021,0.916-0.393,1.04-0.854
				c0.643-0.022,1.243-0.014,1.815-0.006c-0.104,0.307,0.041,0.687,0.443,0.643c1.201-0.132,2.453,0.184,3.638-0.084
				c1.374-0.311,2.551-0.902,3.706-1.702c0.033-0.022,0.063-0.051,0.098-0.075c0.527,0.15,1.141-0.037,1.341-0.733
				c0.083-0.255,0.148-0.513,0.224-0.769c0.812-1.078,1.244-2.369,1.121-3.824c-0.004-0.039-0.021-0.068-0.029-0.102
				c0.24-0.723,0.49-1.442,0.762-2.156c1.079-1.801,2.344-3.51,3.076-5.356c0.054-0.097,0.137-0.158,0.161-0.287
				c0.036-0.202,0.625-0.37,0.653-0.533c0.297-1.005,0.781-2.062,0.781-3.201C81.843,42.659,81.275,42.893,80.713,43.128z"/>
			<polygon fill="#EAA978" points="57,25.205 57.006,25.202 57,25.2 			"/>
		</g>
	</g>
	<path fill="#EAA978" d="M69.277,70.58c-0.662-0.137-1.303-0.258-1.977-0.32c-0.947-0.087-1.794,0.482-2.764,0.326
		c-1.562-0.252-2.882-0.968-4.507-0.979c-0.328-0.004-0.609,0.144-0.811,0.365c-0.285-0.063-0.622,0.184-0.595,0.484
		c0.104,1.201,0.315,2.37,0.292,3.584c-0.028,1.477-0.299,2.934-0.292,4.416c0.002,0.436,0.543,0.663,0.854,0.354
		c0.032-0.03,0.063-0.063,0.095-0.095c0.094,0.14,0.231,0.263,0.415,0.354c1.359,1.421,4.014,0.878,5.712,1.402
		c0.675,0.211,1.151-0.201,1.313-0.722c0.584-0.29,1.121-0.784,1.543-1.368c0.072,0.081,0.164,0.137,0.254,0.196
		c0.002-0.177,0.01-0.339,0.008-0.38c-0.021-0.479-0.021-0.957-0.055-1.436c-0.078-1.104-0.158-2.236,0.223-3.297
		c0.162-0.451,0.431-0.781,0.752-1.004c-0.021-0.009-0.037-0.021-0.059-0.029C70.262,71.891,70.271,70.782,69.277,70.58z"/>
	<path fill="#562C0F" d="M80.82,60.014c0.029-0.281,0.074-0.564,0.092-0.848c0.029-0.535-0.325-0.879-0.756-1.018
		c-0.004-0.961-0.035-1.924-0.1-2.888c0.192-1.367,0.389-2.733,0.389-4.112c0-1.23-1.979-1.568-2.196-0.297
		c-0.476,2.776-1.56,5.335-2.138,8.057c-0.646,0.692-1.291,1.396-1.918,2.108c-0.31,0.172-0.618,0.348-0.932,0.512
		c-0.373,0.168-0.757,0.354-1.135,0.558c-0.168-0.114-0.369-0.203-0.631-0.216c-3.487-0.154-6.458,1.295-10.05,0.6
		c-0.492-0.095-0.907,0.119-1.158,0.446c-1.224-0.544-2.338-0.663-3.8-0.673c-0.243-0.003-0.437,0.066-0.596,0.174
		c-0.332-0.16-0.643-0.207-0.997-0.354C54.613,61.945,54.345,62,54.043,62c-0.007,0-0.021,0-0.029,0c-0.671-1-1.44-1.29-2.542-1.706
		c-0.037-0.014-0.072-0.075-0.109-0.087c-1.466-1.482-2.395-3.527-2.425-6.035c-0.024-1.441-2.255-1.464-2.237-0.02
		c0.041,2.53-0.33,5.792,0.111,8.577c-0.45,0.756-0.763,1.664-0.911,2.297c-0.114,0.492,0.104,0.971,0.494,1.226
		c-0.435,0.563-0.898,1.11-1.417,1.635c-0.854,0.859,0.041,2.034,1.088,1.869c2.261-0.354,4.382-1.153,6.694-1.267
		c2.039-0.1,3.752,0.201,5.601-0.131c0.175,0.235,0.444,0.406,0.832,0.41c3.931,0.045,9.752,1.379,13.805,0.09
		c-0.002,0.729,0.789,1.479,1.676,1.063c0.346-0.184,0.588-0.322,0.782-0.457c0.81-0.482,1.524-1.074,2.147-1.762
		c0.408-0.016,0.795-0.24,0.94-0.78c0.033-0.119,0.046-0.235,0.063-0.353c0.318,0.3,0.789,0.438,1.285,0.183
		c0.627-0.323,0.944-0.817,0.928-1.526c-0.012-0.424-0.221-0.707-0.5-0.883c0.066-0.127,0.115-0.267,0.127-0.421
		C80.529,62.614,80.663,61.313,80.82,60.014z"/>
	<path fill="#20A091" d="M90.75,90.92c-0.06,0.08-0.14,0.15-0.22,0.2c0.01,0.18,0.02,0.36,0.029,0.54
		c0.03,0.7,0.011,1.41-0.029,2.12c-0.011,0.02-0.011,0.029,0,0.05L88,95.29l-4.05,2.33l-15.101,8.71l-2.68,1.54l-2.15,1.25
		l-4.89-2.83L40,95.26l-2.01-1.16v-0.04c0.11-0.68,0.22-1.329,0.32-1.92c0.08-0.51,0.15-0.979,0.19-1.37
		c0.06-0.71,0.08-1.59,0.09-2.55c-0.04-0.71-0.02-1.43,0-2.09v-0.01c0.02-0.51,0.05-0.97,0.07-1.37c0.01-0.19,0.02-0.36,0.02-0.51
		c0-0.01,0.01-0.01,0.01-0.021c0.05-0.819,0.14-1.64,0.29-2.399c0.26-1.37,0.69-2.59,1.4-3.471c0.1-0.27,0.19-0.54,0.32-0.819
		c0.24-0.54,1.06-0.721,1.53-0.41c0.12,0.01,0.23,0.01,0.35,0.02c0.05,0,0.1,0,0.15,0.011c0.29,0.01,0.57,0.02,0.86,0.029
		c0.12,0.011,0.23,0.021,0.35,0.021c3.48-1.79,9.13-2.13,12.94-1.12c0.43,0.12,0.77,0.53,0.82,0.97c0.12,0.22,0.19,0.48,0.15,0.78
		c-0.08,0.49-0.17,0.979-0.25,1.46c0.27,0.15,0.56,0.31,0.57,0.32c0.96,0.819,1.27,1.189,2.67,1.409
		c0.43,0.07,0.87,0.171,1.32,0.271c1.07-0.07,2.13-0.1,3.16,0.04c0.59,0.07,1.18,0.189,1.76,0.38c0.02-0.01,0.04-0.01,0.05-0.02
		c0.39-0.62,0.91-0.881,1.57-0.881c0.229-0.22,0.45-0.439,0.67-0.659c0.06-0.341,0.13-0.69,0.189-1.03
		c-0.02-0.79-0.029-1.58,0.021-2.37c0.05-0.64,1.05-0.64,1,0v0.08c0.36-0.49,1.12-0.69,1.71-0.18c0.1,0.08,0.18,0.18,0.27,0.27
		c0.301-0.18,0.641-0.34,1.061-0.46c0.13-0.04,0.26-0.01,0.39,0c0.221-0.16,0.521-0.25,0.86-0.19c1.189,0.2,2.45,0.36,3.71,0.551
		c1.72-0.03,3.41,0.05,5.11,0.229c0.09-0.069,0.17-0.14,0.26-0.2c0.979-0.659,2.17-0.68,2.75,0.66c0.03,0.01,0.069,0.01,0.1,0.021
		c0.141,0.02,0.28,0.08,0.42,0.109c0.23-0.55,0.891-0.83,1.42-0.689c0.341,0.069,0.63,0.33,0.721,0.78
		c0.029,0.189,0.069,0.39,0.1,0.6c0.09,0.51,0.17,1.05,0.26,1.52c0.2,0.08,0.38,0.351,0.49,0.641c0,0.01,0,0.029,0.01,0.05
		c0.03,0.1,0.061,0.19,0.07,0.28s0.01-1.09,0.02,0.17c0.011,0.17,0.011,0.38,0.011,0.64h0.01v-0.38c0.22,1.78,0.3,3.06,0.37,4.84
		c0.02,0.17,0.03,0.34,0.05,0.51c0.12,1.19,0.21,2.391,0.23,3.61C90.99,90.51,90.9,90.75,90.75,90.92z"/>
	<path fill="#128776" d="M87.387,78.041c-2.089-1.542-5.129-1.331-7.553-1.874c0.073,0.017,0.091,0.292,0.081,0.697
		c-0.167-0.026-0.337-0.058-0.503-0.082C76.057,76.296,73,75.8,69,75.833c0,0.001,0,5,0,5c4-0.04,8.584,0.517,12.557,1.324
		c3.488,0.709,6.547,3.386,7.282,6.889c0.007,0.419,0.076,0.804,0.06,1.115C88.994,88.409,89,86.752,89,85.16v-0.883
		c0,0.152-0.039,0.306-0.064,0.459C89.118,82.367,89.307,79.458,87.387,78.041z"/>
	<path fill="#CB8A5C" d="M69.295,71.327c-0.338-0.563-0.859-0.757-1.363-0.704c-0.32-0.262-0.742-0.405-1.246-0.318
		c-1.889,0.322-3.809-0.188-5.708-0.379C60.856,69.896,60.727,70,60.583,70H60.25c-0.267,0-0.492-0.064-0.685,0.03
		c-1.335-0.067-2.242,1.892-0.822,2.743c2.24,1.347,4.637,1.733,7.209,1.752C67.682,74.537,70.719,73.706,69.295,71.327z"/>
	<path fill="#472108" d="M79.841,53.962c1.646-1.01,0.14-3.605-1.514-2.591c-1.55,0.95-1.08,3.998-1.093,5.496
		c-0.002,0.175,0.007,0.38,0.013,0.576c-0.575,0.01-1.118,0.332-1.276,1.074c-0.137,0.639-0.242,1.278-0.324,1.924
		c-0.524-1.676-3.223-0.873-2.842,0.957c0.451,2.186,0,4.457,0.334,6.666c0.27,1.791,2.829,1.186,2.909-0.459
		c0.479,0.319,1.13,0.343,1.647,0.025c0.572,0.084,1.166-0.163,1.517-0.708c1.158-1.798,0.938-4.628,0.986-6.662
		c0.034-1.476,0.028-2.952,0.046-4.428c0.007-0.583,0.023-1.165,0.05-1.747C80.34,53.087,80.619,53.485,79.841,53.962z"/>
	<path fill="#CB8A5C" d="M80.863,42.935c-0.01-0.029-0.027-0.047-0.037-0.075c-0.225-1.046-0.483-2.079-0.881-3.091
		c-0.498-1.269-2.109-1.235-2.74-0.46c-0.441-2.299-1.064-4.606-1.779-6.822c0.111-0.297,0.157-0.627,0.104-0.968
		c-0.219-1.429-1.23-2.38-1.75-3.667c-0.258-0.639-0.785-1.108-1.459-1.098c-0.549-0.614-1.174-1.143-1.896-1.548
		c-0.393-0.22-0.773-0.243-1.109-0.146c-0.17-0.419-0.537-0.751-0.998-0.922c-0.129-0.047-0.252-0.078-0.375-0.109
		c-0.144-0.12-0.295-0.226-0.449-0.328c-0.355,0.308-0.818,0.501-1.324,0.53c-0.607,0.034-1.234-0.039-1.806-0.251
		c-0.196-0.073-0.391-0.171-0.586-0.264c-0.018,0.045-0.041,0.089-0.054,0.136c-0.227,0.823,0.274,1.583,1.047,1.845
		c0.448,0.153,0.76,0.275,1.188,0.551c0.016,0.015,0.055,0.05,0.121,0.109c0.24,0.225,0.441,0.416,0.773,0.507
		c0.193,0.03,0.312,0.048,0.371,0.056c0.102,0.03,0.201,0.076,0.297,0.111c0.244,0.09,0.496,0.084,0.736,0.021
		c0.104,0.287,0.309,0.551,0.654,0.745c4.48,2.51,4.271,11.594,4.38,15.879c0.095,3.735,0.856,8.913-0.065,12.715
		c-0.269,0.32-0.422,0.748-0.336,1.26c0.026,0.166,0.055,0.334,0.082,0.5c0.264,1.588,2.452,1.267,2.893,0
		c0.859-2.468,0.51-4.942,0.41-7.49c0.387,0.002,0.77-0.132,1.037-0.431c1.086-1.212,2.072-2.382,2.744-3.714
		c0.672-0.129,1.262-0.628,1.195-1.43C81.18,44.238,81.105,43.751,80.863,42.935z M77.559,44.88c0.041-0.854,0.078-1.71,0.053-2.56
		c0.104,0.388,0.199,0.777,0.285,1.169C77.854,43.99,77.734,44.451,77.559,44.88z"/>
</g>
<g>
	<path fill="#05053F" d="M80.195,48.704c-0.73-10.978-1.016-25.441-15.288-25.729c-1.444-0.029-1.44,2.208,0,2.237
		c12.735,0.258,12.417,13.97,13.051,23.492C78.055,50.136,80.291,50.145,80.195,48.704L80.195,48.704z"/>
</g>
<g>
	<path fill="#05053F" d="M57,70c0,0,0,5,0,9h2c0-4,0-6,0-9H57L57,70z"/>
</g>
<g>
	<path fill="#05053F" d="M57,75c0,0-8,0-13,0c-3,0-3,2,0,2c5,0,9,0,13,0C59,77,59,75,57,75C57,75,59,75,57,75z"/>
</g>
<g>
	<path fill="#05053F" d="M57.468,79.441c2.24,2.19,5.56,3.185,8.64,2.617c1.418-0.261,0.814-2.416-0.594-2.156
		c-2.276,0.418-4.83-0.443-6.464-2.043C58.018,76.852,56.435,78.432,57.468,79.441L57.468,79.441z"/>
</g>
<g>
	<path fill="#05053F" d="M72.133,49.684c-1.525,1.189-3.688,0.798-4.943-0.56c-0.98-1.061-2.562,0.524-1.582,1.582
		c2.16,2.334,5.649,2.477,8.107,0.559C74.852,50.38,73.256,48.808,72.133,49.684L72.133,49.684z"/>
</g>
<g>
	<path fill="#05053F" d="M47.194,48.704c0.634-9.522,0.315-23.234,13.05-23.492c1.44-0.029,1.445-2.267,0-2.237
		c-14.272,0.288-14.559,14.751-15.288,25.729C44.861,50.145,47.098,50.136,47.194,48.704L47.194,48.704z"/>
</g>
<g>
	<path fill="#05053F" d="M68,70c0,0,0,5,0,9h2c0-4,0-6,0-9H68L68,70z"/>
</g>
<g>
	<path fill="#05053F" d="M70.042,78.167c0.017-0.194,0.063-0.382,0.12-0.562c-0.135,0.052-0.266,0.133-0.389,0.254
		c-1.635,1.6-4.188,2.461-6.463,2.043c-1.409-0.26-2.012,1.896-0.594,2.156c2.466,0.453,5.077-0.106,7.175-1.469
		C69.951,79.783,69.973,78.971,70.042,78.167z"/>
</g>
<g>
	<path fill="#05053F" d="M51.437,51.266c2.458,1.917,5.947,1.775,8.109-0.559c0.979-1.058-0.602-2.643-1.582-1.582
		c-1.256,1.357-3.419,1.749-4.945,0.56C51.896,48.808,50.301,50.38,51.437,51.266L51.437,51.266z"/>
</g>
<g>
	<path fill="#05053F" d="M65.965,37.045c-1.729-2.642-6.4-2.281-7.451,0.733c-0.475,1.366,1.688,1.948,2.16,0.594
		c0.397-1.14,2.732-1.154,3.36-0.198C64.82,39.377,66.758,38.257,65.965,37.045L65.965,37.045z"/>
</g>
<g>
	<path fill="#05053F" d="M67.708,29.933c-2.905-2.009-7.568-1.45-10.212,0.734c-1.114,0.92,0.478,2.493,1.582,1.582
		c1.903-1.571,5.471-1.79,7.503-0.385C67.77,32.687,68.889,30.747,67.708,29.933L67.708,29.933z"/>
</g>
<g>
	<path fill="#05053F" d="M59.171,25.268c0,0,4.98-0.063,6.979-0.063L66,23c-2,0-5,0-7,0s-2,2,0,2C59,25,57.171,25.268,59.171,25.268
		z"/>
</g>
<g>
	<path fill="#05053F" d="M77.914,48.635c-1.588,1.795-1.469,4.003-1.588,6.303c-0.319,6.115-9.264,5.996-13.438,6.05
		c-4.336,0.057-11.759-0.231-13.328-5.243c-0.787-2.511-0.618-5.182-3.013-6.726c-1.214-0.785-2.336,1.153-1.127,1.932
		c3.079,1.988,1.232,7.352,4.98,9.548c3.814,2.237,8.14,2.655,12.488,2.726c4.092,0.064,8.203-0.369,11.883-2.238
		c1.266-0.644,2.82-2.129,3.265-3.502c0.715-2.219-0.089-5.517,1.46-7.268C80.449,49.141,78.871,47.553,77.914,48.635L77.914,48.635
		z"/>
</g>
<g>
	<path fill="#05053F" d="M44.598,46.694c-0.33,0.58,0.119,0.506-0.008,0.332c-0.192-0.266-0.304-0.58-0.412-0.886
		c-0.198-0.571-0.275-1.161-0.192-1.761c0.153-1.077,0.728-3.736,2.138-3.762c1.441-0.027,1.444-2.265,0-2.237
		c-3.07,0.058-4.53,4.226-4.401,6.815c0.065,1.309,0.594,2.95,1.672,3.771c1.263,0.96,2.486,0.004,3.135-1.142
		C47.242,46.566,45.308,45.438,44.598,46.694L44.598,46.694z"/>
</g>
<g>
	<path fill="#05053F" d="M79.051,48.225c2.042,1.551,3.736-0.379,3.947-2.427c0.27-2.609-0.844-5.51-3.24-6.776
		c-1.273-0.672-2.402,1.257-1.127,1.932c1.352,0.713,2.006,2.124,2.152,3.603c0.059,0.608,0.011,1.203-0.174,1.785
		c-0.125,0.398,0.002,0.281-0.432-0.048C79.027,45.42,77.917,47.365,79.051,48.225L79.051,48.225z"/>
</g>
<g>
	<path fill="#05053F" d="M79,48c0,0,0,10,0,17h3c0-7,0-10.34,0-17H79L79,48z"/>
</g>
<g>
	<path fill="#05053F" d="M79.934,64.301c-2.42,6.215-13.386,4.737-18.606,4.285c-5.388-0.467-12.355-2.298-17.025,1.27
		c-1.131,0.862-0.02,2.809,1.127,1.933c5.345-4.081,16.37-0.649,22.809-0.636c5.191,0.012,11.727-0.797,13.854-6.256
		C82.616,63.55,80.45,62.973,79.934,64.301L79.934,64.301z"/>
</g>
<g>
	<path fill="#05053F" d="M45.551,71.176c1.232-2.689,1.012-5.857,2.377-8.46c0.671-1.276-1.26-2.407-1.932-1.13
		c-1.39,2.646-1.143,5.768-2.376,8.46C43.023,71.35,44.951,72.484,45.551,71.176L45.551,71.176z"/>
</g>
<g>
	<path fill="#05053F" d="M48,64c0,0,0-9,0-14h-3c0,5,0,9,0,14H48L48,64z"/>
</g>
<ellipse fill="#05053F" cx="69.861" cy="44.147" rx="2.132" ry="3.181"/>
<ellipse fill="#05053F" cx="56.437" cy="44.147" rx="2.133" ry="3.181"/>
<circle fill="#FFFFFF" cx="54.995" cy="44.822" r="0.944"/>
<circle fill="#FFFFFF" cx="68.418" cy="44.822" r="0.944"/>
<path fill="#05053F" d="M43.59,77.18c-0.19,0.09-0.43,0.11-0.71,0.011c-0.05-0.011-0.1-0.03-0.15-0.04
	c-0.05-0.011-0.1-0.011-0.15-0.011c-1.28,0-2.15,2.91-2.39,3.771c-0.17,0.59-0.26,1.17-0.29,1.729c-0.08,1.07,0.02,2.12,0.07,3.21
	C39.99,86.17,40,86.5,40,86.84v8.42l-2.01-1.16l-0.7-0.409v-8.4c0-0.13-0.01-0.26-0.04-0.38c-0.01-0.07-0.02-0.141-0.04-0.2
	c0.01-0.36,0.03-0.74,0.06-1.13c0.05-0.93,0.16-1.95,0.38-2.96c0.21-0.95,0.53-1.89,1.02-2.75c0.94-1.67,2.48-3.58,4.63-2.84
	C44.37,75.4,44.33,76.84,43.59,77.18z"/>
<g>
	<path fill="#05053F" d="M70,77c0,0,9,0,14,0c2,0,2-2,0-2c-5,0-9,0-14,0C68,75,68,77,70,77C70,77,68,77,70,77z"/>
</g>
<path fill="#05053F" d="M90.75,86v7.7l-0.22,0.13L88,95.29v-8.45c0-2.06,0.33-3.88-0.24-5.93c-0.26-0.92-1.279-4.22-2.72-3.72
	c-0.51,0.17-0.89-0.011-1.09-0.341c-0.36-0.56-0.22-1.52,0.64-1.819c1.76-0.601,3.11,0.56,4.05,1.92c0.221,0.3,0.41,0.609,0.58,0.92
	c0.09,0.149,0.17,0.3,0.24,0.46c0.34,0.689,0.57,1.42,0.75,2.16c0,0.01,0,0.029,0.01,0.05c0.03,0.15,0.061,0.3,0.09,0.45
	C90.67,82.86,90.65,84.73,90.75,86z"/>
<path opacity="0.13" enable-background="new    " d="M64.02,2.86L17.95,29.42v53.12l19.34,11.15l0.7,0.409L40,95.26l19.13,11.03
	l4.89,2.82l2.15-1.24l2.68-1.54l15.101-8.71L88,95.29l2.53-1.46l0.22-0.13l19.35-11.16V29.42L64.02,2.86z M64.65,106.59l-0.63,0.37
	l-2.74-1.58l-0.3-0.17l-0.02-0.01L40,93.11l-1.69-0.971l-1.02-0.59L19.81,81.47V30.5L64.02,5.02l44.21,25.48v50.97L90.75,91.55
	l-0.19,0.11L88,93.13l-5.53,3.19L64.65,106.59z"/>
</svg>
