<?xml version="1.0" encoding="UTF-8"?>
<svg width="470px" height="512px" viewBox="0 0 470 512" version="1.1" xmlns="http://www.w3.org/2000/svg" xmlns:xlink="http://www.w3.org/1999/xlink">
    <!-- Generator: Sketch 51.3 (57544) - http://www.bohemiancoding.com/sketch -->
    <title>alchemist</title>
    <desc>Created with Sketch.</desc>
    <defs></defs>
    <g id="Page-1" stroke="none" stroke-width="1" fill="none" fill-rule="evenodd">
        <g id="alchemist" fill-rule="nonzero">
            <path d="M464.291,129.408 L240.291,1.408 C237.006,-0.469 232.995,-0.469 229.71,1.408 L5.71,129.408 C2.382,131.307 0.334,134.848 0.334,138.667 L0.334,373.334 C0.334,377.153 2.382,380.694 5.71,382.593 L229.71,510.593 C231.353,511.532 233.166,512.001 235.001,512.001 C236.836,512.001 238.649,511.532 240.292,510.593 L464.292,382.593 C467.62,380.694 469.668,377.153 469.668,373.334 L469.668,138.667 C469.667,134.848 467.619,131.307 464.291,129.408 Z" id="Shape" fill="#E69851"></path>
            <g id="Group" transform="translate(33.866300, 54.866300)">
                <path d="M402.267136,201.133568 C402.267136,312.218003 312.218003,402.267136 201.133568,402.267136 C90.0491334,402.267136 0,312.218003 0,201.133568 C0,90.0491334 90.0491334,0 201.133568,0 C312.218003,0 402.267136,90.0491334 402.267136,201.133568 Z" id="Shape" fill="#F4D706"></path>
                <path d="M203.153006,402.242584 C313.178617,401.156139 402.05844,311.748437 402.260998,201.514131 L253.654301,52.907434 L148.612835,91.1417169 L216.727435,159.256317 L125.168326,324.254835 L203.153006,402.242584 Z" id="Shape" fill="#D6BD09"></path>
                <path d="M240.202634,148.910533 L240.202634,59.208203 L162.064502,59.208203 L162.064502,148.910533 C122.212827,164.525884 93.9928685,203.318735 93.9928685,248.703916 C93.9928685,307.87529 141.959125,355.844614 201.133568,355.844614 C260.308011,355.844614 308.274268,307.87529 308.274268,248.703916 C308.274268,203.318735 280.054309,164.525884 240.202634,148.910533 Z" id="Shape" fill="#FFFFFF"></path>
                <path d="M240.202634,148.910533 L240.202634,59.208203 L200.823594,59.208203 L200.823594,355.841546 C200.927941,355.841546 201.029221,355.844614 201.133568,355.844614 C260.308011,355.844614 308.274268,307.87529 308.274268,248.703916 C308.274268,203.318735 280.054309,164.525884 240.202634,148.910533 Z" id="Shape" fill="#F2F6FC"></path>
                <path d="M254.995478,232.232299 C242.212865,234.969896 229.433321,231.32079 216.653777,227.668615 C186.356069,218.240479 157.049666,204.359145 126.543263,199.543797 C116.587249,214.066565 110.756046,231.639972 110.756046,250.576039 C110.756046,300.491145 151.218463,340.953562 201.133568,340.953562 C251.048673,340.953562 291.51109,300.491145 291.51109,250.576039 C291.51109,237.219513 288.607765,224.544317 283.405717,213.136641 C275.435382,221.640991 267.231799,229.571428 254.995478,232.232299 Z" id="Shape" fill="#22D140"></path>
                <path d="M283.405717,213.136641 C275.435382,221.640991 267.231799,229.571428 254.995478,232.232299 C242.215934,234.969896 229.433321,231.317721 216.653777,227.665546 C211.350451,226.017463 206.077815,224.228204 200.823594,222.377564 L200.823594,340.950492 C200.927941,340.950492 201.029221,340.953562 201.133568,340.953562 C251.048673,340.953562 291.51109,300.491145 291.51109,250.576039 C291.51109,237.219513 288.607765,224.544317 283.405717,213.136641 Z" id="Shape" fill="#21B869"></path>
                <polygon id="Shape" fill="#E1E1E6" points="148.612835 52.907434 253.654301 52.907434 253.654301 91.1417169 148.612835 91.1417169"></polygon>
                <polygon id="Shape" fill="#D2D2D7" points="200.823594 52.907434 253.654301 52.907434 253.654301 91.1417169 200.823594 91.1417169"></polygon>
                <path d="M188.538168,252.583201 C188.538168,262.339726 180.629214,270.24868 170.872689,270.24868 C161.116164,270.24868 153.20721,262.339726 153.20721,252.583201 C153.20721,242.826676 161.116164,234.917722 170.872689,234.917722 C180.629214,234.917722 188.538168,242.826676 188.538168,252.583201 Z" id="Shape" fill="#1CE878"></path>
                <path d="M240.162736,189.86093 C240.162736,199.617455 232.253783,207.529478 222.497257,207.529478 C212.740733,207.529478 204.831779,199.617455 204.831779,189.86093 C204.831779,180.104405 212.740733,172.195452 222.497257,172.195452 C232.253783,172.195452 240.162736,180.104405 240.162736,189.86093 Z" id="Shape" fill="#00E065"></path>
                <path d="M237.575523,299.576566 C237.575523,307.902911 230.826672,314.654832 222.497257,314.654832 C214.170912,314.654832 207.418992,307.902911 207.418992,299.576566 C207.418992,291.247151 214.170912,284.495231 222.497257,284.495231 C230.826672,284.495231 237.575523,291.247151 237.575523,299.576566 Z" id="Shape" fill="#00E065"></path>
                <path d="M196.4195,123.529451 C196.4195,129.870118 191.278833,135.010785 184.941235,135.010785 C178.600568,135.010785 173.459902,129.870118 173.459902,123.529451 C173.459902,117.188784 178.600568,112.051187 184.941235,112.051187 C191.278833,112.051187 196.4195,117.188784 196.4195,123.529451 Z" id="Shape" fill="#1CE878"></path>
            </g>
        </g>
    </g>
</svg>