<?xml version="1.0" encoding="utf-8"?>
<!-- Generator: Adobe Illustrator 21.0.2, SVG Export Plug-In . SVG Version: 6.00 Build 0)  -->
<svg version="1.1" id="Layer_1" xmlns="http://www.w3.org/2000/svg" xmlns:xlink="http://www.w3.org/1999/xlink" x="0px" y="0px"
	 viewBox="0 0 110.9 128" style="enable-background:new 0 0 110.9 128;" xml:space="preserve">
<style type="text/css">
	.st0{fill:#FFBF3E;}
	.st1{fill:#F4E0D3;}
	.st2{fill:#F4F4F4;}
	.st3{fill:#EDEDED;}
	.st4{fill:#966A60;}
	.st5{fill:#FFFFFF;}
	.st6{fill:#64B5FF;}
	.st7{fill:#F495A8;}
	.st8{opacity:0.75;}
	.st9{clip-path:url(#SVGID_2_);}
	.st10{clip-path:url(#SVGID_4_);fill:url(#SVGID_5_);}
	.st11{clip-path:url(#SVGID_7_);fill:url(#SVGID_8_);}
	.st12{clip-path:url(#SVGID_10_);fill:url(#SVGID_11_);}
	.st13{clip-path:url(#SVGID_13_);fill:url(#SVGID_14_);}
	.st14{clip-path:url(#SVGID_16_);fill:url(#SVGID_17_);}
	.st15{clip-path:url(#SVGID_19_);fill:url(#SVGID_20_);}
	.st16{fill:#E5E5E5;}
	.st17{fill:#CCCCCC;}
	.st18{fill:#EF142E;}
	.st19{fill:#FF0055;}
	.st20{fill:#FF008C;}
	.st21{fill:#CD00FF;}
	.st22{fill:#6300FF;}
	.st23{fill:#000DF9;}
	.st24{fill:#0068FF;}
	.st25{fill:#00DBFF;}
	.st26{fill:#00FFA3;}
	.st27{fill:#00FF30;}
	.st28{fill:#A2FF00;}
	.st29{fill:#FFEC00;}
	.st30{fill:#FFB000;}
	.st31{fill:#FF4E00;}
	.st32{fill:#FF0C00;}
	.st33{fill:#E2BEAA;}
	.st34{opacity:0.11;}
	.st35{clip-path:url(#SVGID_22_);}
	.st36{opacity:0.13;enable-background:new    ;}
	.st37{clip-path:url(#SVGID_24_);}
	.st38{fill:#63392E;}
	.st39{fill:#D7723B;}
	.st40{fill:#555759;}
	.st41{opacity:0.15;clip-path:url(#SVGID_26_);enable-background:new    ;}
	.st42{fill:#E59776;}
	.st43{fill:none;}
	.st44{clip-path:url(#SVGID_28_);fill:#E6E6E6;}
	.st45{opacity:0.15;clip-path:url(#SVGID_30_);enable-background:new    ;}
	.st46{opacity:0.15;clip-path:url(#SVGID_32_);enable-background:new    ;}
	.st47{opacity:0.15;clip-path:url(#SVGID_34_);enable-background:new    ;}
	.st48{opacity:0.15;clip-path:url(#SVGID_36_);enable-background:new    ;}
	.st49{clip-path:url(#SVGID_38_);fill:#E6E6E6;}
	.st50{opacity:0.15;clip-path:url(#SVGID_40_);enable-background:new    ;}
	.st51{opacity:0.15;clip-path:url(#SVGID_42_);enable-background:new    ;}
	.st52{opacity:0.15;clip-path:url(#SVGID_44_);enable-background:new    ;}
	.st53{opacity:0.15;clip-path:url(#SVGID_46_);enable-background:new    ;}
	.st54{opacity:0.15;clip-path:url(#SVGID_48_);enable-background:new    ;}
	.st55{opacity:0.15;clip-path:url(#SVGID_50_);enable-background:new    ;}
	.st56{opacity:0.15;clip-path:url(#SVGID_52_);enable-background:new    ;}
	.st57{opacity:0.15;clip-path:url(#SVGID_54_);enable-background:new    ;}
	.st58{opacity:0.15;clip-path:url(#SVGID_56_);enable-background:new    ;}
	.st59{clip-path:url(#SVGID_58_);fill:#B3B3B3;}
	.st60{clip-path:url(#SVGID_60_);fill:#B3B3B3;}
	.st61{clip-path:url(#SVGID_62_);fill:#B3B3B3;}
	.st62{fill:#FFFBDD;}
	.st63{opacity:0.4;}
	.st64{clip-path:url(#SVGID_64_);fill:#F9EC31;}
	.st65{fill:#FAEA75;}
	.st66{clip-path:url(#SVGID_66_);fill:#FFFFFF;}
	.st67{clip-path:url(#SVGID_68_);fill:#FFFFFF;}
	.st68{fill:#404041;}
	.st69{fill:#4C2922;}
</style>
<polygon class="st0" points="111.0388,96.2051 55.2896,128.0703 0.103,95.8291 -0.0208,31.9971 55.8482,0.0713 111.0388,32.3135 "/>
<path class="st1" d="M101.7951,37.1875l-0.0292,6.5293l-0.0702,16.4404l-0.0409,8.4492l-0.0196,5.8106l-0.0097,3.0195
	l-0.0098,1.0801v0.4902l-0.0507,11.3203l-0.0107,0.0098l-0.6795,0.3897l-0.7487,0.4101l-4.1518,2.3799l-0.1989,0.1104
	l-1.1191,0.6494l-0.8081,0.4599l-1.4077,0.8018l-0.7194,0.4082l-0.5985,0.3418l-0.2398,0.1289l-0.1307,0.0498l-0.1092,0.0713
	l-2.1456,1.2187l-0.6483,0.3702l-0.2389,0.1396l-0.1706,0.1016l-0.0097,0.0097l-0.3393,0.1895l-0.2993,0.1699l-0.658,0.3701
	l-0.3909,0.2207l-0.04,0.0293l-0.7194,0.4092v0.0107l-0.5186,0.2901l-0.4504,0.25l-0.0195,0.0205h-0.0098l-1.2283,0.71l-0.31,0.1806
	l-0.2389,0.1406l-0.6287,0.3692l-1.2674,0.7217l-0.1209,0.0683l-0.08,0.0508l-0.4094,0.2285l-0.0293,0.0108l-0.1599,0.0908v0.0097
	l-0.7779,0.4502l-0.1793,0.0909l-0.0215,0.0195l-0.039,0.0205l-0.8988,0.5195l-0.1092,0.0498l-0.0896,0.0508l-0.0702,0.0401
	l-0.1307,0.0791l-0.0487,0.0302l-0.3003,0.17l-0.0195,0.0097l-0.0897,0.0518l-0.1598,0.0888h-0.0098l-0.0215,0.0098l-0.6882,0.4102
	l-1.009,0.58l-0.4484,0.25v0.0098l-1.4174,0.8008l-0.1102,0.0693l-0.4298,0.2412l-1.0578,0.6192l-0.1491,0.0801l-0.6298,0.3496
	l-0.0594,0.0312l-1.2274,0.71l-1.7469,1l-0.5294,0.3095l-0.5098,0.2891l-0.3091,0.1807l-0.8501,0.4795l-0.309,0.1806l-0.04,0.0293
	l-1.0079,0.5713l-1.0188,0.5791l-0.0107,0.0098l-0.3003,0.1699l-0.1287,0.0801l-0.2291,0.1299l-1.0187,0.58l-0.9983,0.5704
	l-1.0392,0.5908l-0.2496,0.1386l-0.2086,0.1202l-1.0099,0.5898l-0.9671,0.54l-0.5595,0.3213h-0.0098l-0.3197,0.1885l-0.4796,0.2793
	l-1.4175-0.8301l-0.7584-0.4492l-0.08-0.04l-0.0292-0.0108l-0.2398-0.1386l-1.4974-0.8809l-0.1892-0.1103l-0.5391-0.3194
	l-2.2753-1.3301l-0.35-0.1992l-0.1599-0.0908l-0.0399-0.04l-0.2778-0.1592l-0.1209-0.0703l-0.9573-0.5489l-0.7-0.4111
	l-0.1004-0.0605l-2.4956-1.46l-0.0097-0.0098l-0.9291-0.54l-0.3899-0.2402l-0.1989-0.1094l-0.0098-0.0098h-0.0107l-0.2701-0.1592
	l-0.1189-0.0713l-0.8101-0.4785l-0.6873-0.3906l-0.889-0.5107l-0.1696-0.1094l-0.3792-0.2207l-1.0187-0.5996l-1.6963-0.9903
	l-0.6492-0.3789l-0.04-0.0312l-0.2291-0.1299l-0.3801-0.2197l-0.199-0.1192l-0.2905-0.1699l-0.1891-0.1113l-0.1395-0.0899
	l-0.0107-0.0097l-0.0692-0.0391l-1.7675-1.0205l-0.0195-0.0107l-0.5498-0.3194l-0.7876-0.4599l-0.1307-0.0801l-0.0292-0.0205
	l-0.4591-0.2598l-0.2896-0.1806l-0.7487-0.4385l-1.7567-1.0313l-2.0764-1.2099L24.025,98.291l-0.0897-0.0517l-0.1199-0.0694
	l-0.3091-0.1806l-0.0702-0.0401l-0.0098-0.0097l-0.2105-0.1202H23.206l-0.0097-0.0107L22.1785,97.21
	c-0.0097-0.0118-0.0097-0.0118-0.0205-0.0118l-0.0497-0.0293l-0.6785-0.3994l-1.1288-0.6601l-1.0177-0.5899l-2.096-1.2402
	l-0.2905-0.1699c0,0-0.0097,0-0.0195-0.0108l-0.2788-0.1591l-0.0409-0.0206l-0.0098-0.0097l-0.2291-0.1309L15.8498,93.5H15.84
	l-2.5268-1.4805l-3.2638-1.8994L9.83,89.9893l-0.0799-0.0401l-0.0302-0.0205l0.0994-22.8594l0.0507-11.3398l0.0097-1.7002
	L9.9499,36.791l0.9281-0.54l3.6831-2.1016l9.733-5.5693l1.9867-1.1504l0.0994-0.0596l0.7595-0.4404l0.7184-0.3887l0.699-0.4014
	l2.6556-1.5195l1.587-0.9092l0.1696-0.0908l1.5178-0.8603l0.1092-0.0606l0.0302-0.0205l0.7584-0.4394l0.0205-0.0098l0.389-0.2207
	l0.2193-0.1299L36.234,21.75l1.0977-0.6416l0.5187-0.3008l1.2984-0.7285l0.9886-0.5615l0.6873-0.4092l1.397-0.79h0.0107
	l0.0507-0.0284l0.0595-0.04l1.8775-1.0615l0.5284-0.3106l1.8572-1.0605c0-0.0108,0.0097-0.0108,0.0097-0.0108l0.2291-0.1298
	l0.2993-0.17l0.8687-0.5l0.1891-0.0996l0.27-0.1592l0.1102-0.0615l0.0097-0.0107l5.9486-3.4199l1.4487-0.8194l1.047,0.6192
	l5.6015,3.2802h0.0098l0.817,0.4795l0.0409,0.0205l0.1491,0.0899l0.5098,0.2998l1.9263,1.1201l1.0588,0.6201l3.8341,2.2412
	l6.0899,3.5489l0.8978,0.5312l1.0373,0.6084l0.8793,0.5l0.6181,0.3691l0.0897,0.0508l0.2213,0.1299l0.4787,0.2705l0.8676,0.5
	l0.9183,0.5606h0.0205l0.5791,0.33l1.358,0.8008l0.2291,0.1309l0.5673,0.3291l0.0897,0.0596l1.3395,0.7812l0.2193,0.1289h0.0098
	l0.0897,0.0606l0.1501,0.0791l0.4592,0.2714l1.1785,0.6885l2.1252,1.2393l0.0409,0.0312v0.0088l0.2603,0.1406l0.4787,0.2901
	l0.1696,0.1015l1.4565,0.8487l0.7204,0.4101l1.2068,0.71l0.7789,0.4502l0.4377,0.25l0.1307,0.081l1.8063,1.0489l2.5961,1.5205
	L101.7951,37.1875z"/>
<path class="st2" d="M101.7951,37.1875l-0.0292,6.5293l-0.0702,16.4404l-0.0409,8.4492L48.759,67.7158L9.8271,67.0664
	l0.0497-11.3408l0.0098-1.6992l0.0702-17.2383l0.9281-0.5401l3.6839-2.1015l9.733-5.5694l1.9867-1.1503l0.0994-0.0596l0.7585-0.4404
	l0.7194-0.3887l0.698-0.4014l2.6556-1.5195l1.587-0.9092l0.1697-0.0908l1.5178-0.8604l0.1101-0.0605l0.0293-0.0205l0.7585-0.4395
	l0.0205-0.0107l0.3889-0.2197l0.2203-0.1299l0.2194-0.1289l1.0977-0.6416l0.5196-0.3008l1.2975-0.7285l0.9875-0.5616l0.6883-0.4091
	l1.3979-0.7901h0.0097l0.0507-0.0283l0.0605-0.04l1.8766-1.0625l0.5274-0.3096l1.8581-1.0605c0-0.0108,0.0098-0.0108,0.0098-0.0108
	l0.2291-0.1299l0.2993-0.1699l0.8686-0.5l0.1901-0.0996l0.269-0.1592l0.1092-0.0625l0.0108-0.0097l5.9495-3.42l1.4467-0.8203
	l1.049,0.6201l5.5996,3.2803h0.0107l0.818,0.4785l0.0409,0.0215l0.1481,0.0899l0.5109,0.2998l1.9262,1.1201l1.0577,0.6201
	l3.8341,2.2412l6.089,3.5488l0.8988,0.5313l1.0373,0.6074l0.8794,0.5l0.618,0.3701l0.0896,0.0498l0.2203,0.1309l0.4797,0.2705
	l0.8676,0.5l0.9184,0.5605h0.0215l0.5771,0.3291l1.3589,0.8018l0.2281,0.1309l0.5693,0.3291l0.0897,0.0595l1.3375,0.7813
	l0.2203,0.1289h0.0098l0.0896,0.0596l0.1501,0.08l0.4592,0.2715l1.1786,0.6875l2.1252,1.2403l0.0409,0.0312v0.0088l0.2592,0.1396
	l0.4797,0.2901l0.1696,0.1025l1.4565,0.8487l0.7194,0.4101l1.2089,0.71l0.7779,0.4502l0.4386,0.25l0.1297,0.081l1.8064,1.0488
	l2.597,1.5206L101.7951,37.1875z"/>
<path class="st3" d="M47.4781,67.5381l-0.6259-51.8594l-0.23,0.1299c0,0-0.0117,0-0.0117,0.0098l-1.8562,1.0605l-0.5274,0.3106
	L42.3483,18.25l-0.0594,0.04l-0.0498,0.0293h-0.0097l-1.3979,0.7901l-0.6883,0.4092l-0.9875,0.5605l-1.2995,0.7305l-0.5186,0.2998
	L36.2399,21.75l-0.2203,0.1299l-0.2193,0.1308l-0.388,0.2198l-0.0205,0.0097l-0.7595,0.4405l-0.0283,0.0195l-0.1111,0.0615
	l-1.5168,0.8584l-0.1706,0.0908l-1.5871,0.9092l-2.6554,1.5205L27.8659,26.54l-0.7204,0.3907l-0.7575,0.4384l-0.1013,0.0616
	l-1.9868,1.1484l-9.733,5.5703l-3.683,2.1006l-0.9271,0.54L9.8846,54.0273l-0.0088,1.6993L9.8251,67.0674L9.7277,89.9287
	l0.0283,0.0195l0.081,0.0401l0.2183,0.1299l3.2638,1.8994l2.5269,1.4804h0.0098l0.4699,0.2793l0.2281,0.1299l0.0097,0.0108
	l0.041,0.0205l0.2807,0.1601c0.0078,0.0098,0.0195,0.0098,0.0195,0.0098l0.2896,0.1699"/>
<rect x="53.7483" y="28.7158" class="st4" width="15.7225" height="21.6406"/>
<rect x="54.8713" y="30.0117" class="st5" width="13.4764" height="18.916"/>
<polygon class="st4" points="39.0864,50.251 25.693,59.4395 25.693,29.4248 39.1392,29.4248 "/>
<polygon class="st5" points="38.4704,49.7764 26.9456,57.377 26.9456,31.1377 38.4704,31.1377 "/>
<polygon class="st4" points="90.7042,30.6475 90.7042,50.3574 74.9818,50.3574 74.9818,28.7178 87.4004,28.7178 88.3684,29.2891 "/>
<rect x="76.1057" y="30.0117" class="st5" width="13.4764" height="18.916"/>
<rect x="56.8678" y="31.5215" class="st6" width="9.5644" height="1.6035"/>
<rect x="56.2647" y="32.459" class="st6" width="6.2577" height="1.6035"/>
<path class="st7" d="M63.0913,44.543h-5.4591c-0.0936,0-0.1716-0.0782-0.1716-0.1719c0-0.0947,0.078-0.1719,0.1716-0.1719h5.4591
	c0.0955,0,0.1716,0.0772,0.1716,0.1719C63.2629,44.4648,63.1869,44.543,63.0913,44.543"/>
<path class="st7" d="M63.0913,45.5117h-5.4591c-0.0936,0-0.1716-0.0781-0.1716-0.1719c0-0.0947,0.078-0.1718,0.1716-0.1718h5.4591
	c0.0955,0,0.1716,0.0771,0.1716,0.1718C63.2629,45.4336,63.1869,45.5117,63.0913,45.5117"/>
<path class="st7" d="M63.0913,46.4805h-5.4591c-0.0936,0-0.1716-0.0782-0.1716-0.1729c0-0.0947,0.078-0.1719,0.1716-0.1719h5.4591
	c0.0955,0,0.1716,0.0772,0.1716,0.1719C63.2629,46.4023,63.1869,46.4805,63.0913,46.4805"/>
<g class="st8">
	<defs>
		<rect id="SVGID_1_" x="28.3728" y="36.3066" class="st8" width="6.0042" height="10.3809"/>
	</defs>
	<clipPath id="SVGID_2_">
		<use xlink:href="#SVGID_1_"  style="overflow:visible;"/>
	</clipPath>
	<g class="st9">
		<g>
			<defs>
				<path id="SVGID_3_" d="M30.2592,37.1367c-2.1272,1.7871-2.7618,6.5762-0.2798,8.5635c1.4272,1.1426,3.8019,1.2861,4.303,0.4678
					c0.7273-1.1836-3.0308-3.4414-2.557-6.8428c0.2028-1.459,1.1007-2.5293,0.6853-2.9072
					C32.0451,36.084,30.9484,36.5566,30.2592,37.1367"/>
			</defs>
			<clipPath id="SVGID_4_">
				<use xlink:href="#SVGID_3_"  style="overflow:visible;"/>
			</clipPath>
			
				<linearGradient id="SVGID_5_" gradientUnits="userSpaceOnUse" x1="-641.3793" y1="19.7834" x2="-640.3815" y2="19.7834" gradientTransform="matrix(6.0137 0 0 6.0137 3885.4397 -77.4361)">
				<stop  offset="0" style="stop-color:#00E7EF"/>
				<stop  offset="1" style="stop-color:#1BFFDD"/>
			</linearGradient>
			<rect x="27.4974" y="36.084" class="st10" width="7.5123" height="10.9023"/>
		</g>
	</g>
</g>
<g>
	<g>
		<defs>
			<path id="SVGID_6_" d="M35.8636,33.127v13.4169c0,0.4356,0.3569,0.7911,0.7896,0.7911c0.4348,0,0.7916-0.3555,0.7916-0.7911
				V33.127c0-0.4366-0.3568-0.792-0.7916-0.792C36.2205,32.335,35.8636,32.6904,35.8636,33.127"/>
		</defs>
		<clipPath id="SVGID_7_">
			<use xlink:href="#SVGID_6_"  style="overflow:visible;"/>
		</clipPath>
		
			<linearGradient id="SVGID_8_" gradientUnits="userSpaceOnUse" x1="-393.5572" y1="69.5796" x2="-392.5585" y2="69.5796" gradientTransform="matrix(1.5833 0 0 1.5833 658.9827 -70.3303)">
			<stop  offset="0" style="stop-color:#00E7EF"/>
			<stop  offset="1" style="stop-color:#1BFFDD"/>
		</linearGradient>
		<rect x="35.8636" y="32.335" class="st11" width="1.5812" height="15"/>
	</g>
</g>
<g>
	<g>
		<defs>
			<path id="SVGID_9_" d="M27.7937,50.418c0.0371,0.2636,0.4582,0.4023,0.6239,0.458c1.9128,0.6299,4.5907-2.1641,4.3274-2.624
				c-0.039-0.0684-0.1501-0.0997-0.3138-0.0997C31.3062,48.1523,27.6875,49.6064,27.7937,50.418"/>
		</defs>
		<clipPath id="SVGID_10_">
			<use xlink:href="#SVGID_9_"  style="overflow:visible;"/>
		</clipPath>
		
			<linearGradient id="SVGID_11_" gradientUnits="userSpaceOnUse" x1="-622.9682" y1="23.5268" x2="-621.9707" y2="23.5268" gradientTransform="matrix(4.9789 0 0 4.9789 3129.4905 -67.3087)">
			<stop  offset="0" style="stop-color:#00E7EF"/>
			<stop  offset="1" style="stop-color:#1BFFDD"/>
		</linearGradient>
		<rect x="27.6875" y="48.1523" class="st12" width="5.3208" height="3.3536"/>
	</g>
</g>
<g>
	<g>
		<defs>
			<path id="SVGID_12_" d="M29.5406,53.001c0.2282,0.5039,4.7934-0.5537,6.9059-3.5c0.234-0.3281,0.4728-0.666,0.3743-0.792
				c-0.0292-0.0361-0.0858-0.0537-0.1637-0.0537C35.4931,48.6553,29.257,52.3711,29.5406,53.001"/>
		</defs>
		<clipPath id="SVGID_13_">
			<use xlink:href="#SVGID_12_"  style="overflow:visible;"/>
		</clipPath>
		
			<linearGradient id="SVGID_14_" gradientUnits="userSpaceOnUse" x1="-657.2093" y1="16.5974" x2="-656.2114" y2="16.5974" gradientTransform="matrix(7.3243 0 0 7.3243 4843.1338 -70.484)">
			<stop  offset="0" style="stop-color:#00E7EF"/>
			<stop  offset="1" style="stop-color:#1BFFDD"/>
		</linearGradient>
		<rect x="29.257" y="48.6553" class="st13" width="7.6623" height="4.8496"/>
	</g>
</g>
<g>
	<g>
		<defs>
			<path id="SVGID_15_" d="M29.3964,32.3594c-0.1764,0.1455-0.2027,0.4092-0.0565,0.5869l2.1115,2.5762
				c0.1443,0.1777,0.4075,0.2011,0.5849,0.0586c0.1775-0.1465,0.2028-0.4112,0.0576-0.587l-2.1125-2.5771
				c-0.082-0.0996-0.2008-0.1514-0.3217-0.1514C29.568,32.2656,29.4735,32.2969,29.3964,32.3594"/>
		</defs>
		<clipPath id="SVGID_16_">
			<use xlink:href="#SVGID_15_"  style="overflow:visible;"/>
		</clipPath>
		
			<linearGradient id="SVGID_17_" gradientUnits="userSpaceOnUse" x1="-628.803" y1="-80.4196" x2="-627.802" y2="-80.4196" gradientTransform="matrix(2.6446 3.2198 -3.2198 2.6446 1433.3789 2269.6667)">
			<stop  offset="0" style="stop-color:#00E7EF"/>
			<stop  offset="1" style="stop-color:#1BFFDD"/>
		</linearGradient>
		<polygon class="st14" points="31.0128,30.7686 33.9334,34.3311 30.421,37.2207 27.4993,33.6592 		"/>
	</g>
</g>
<g>
	<g>
		<defs>
			<path id="SVGID_18_" d="M31.7049,32.0469c-0.1774,0.1465-0.2017,0.4111-0.0565,0.5869l2.1115,2.5771
				c0.1442,0.1758,0.4085,0.2012,0.5849,0.0567c0.1775-0.1446,0.2028-0.4092,0.0585-0.5869l-2.1125-2.5752
				c-0.0819-0.1006-0.2017-0.1504-0.3226-0.1504C31.8755,31.9541,31.7809,31.9834,31.7049,32.0469"/>
		</defs>
		<clipPath id="SVGID_19_">
			<use xlink:href="#SVGID_18_"  style="overflow:visible;"/>
		</clipPath>
		
			<linearGradient id="SVGID_20_" gradientUnits="userSpaceOnUse" x1="-628.8018" y1="-80.4189" x2="-627.8021" y2="-80.4189" gradientTransform="matrix(2.6446 3.2198 -3.2198 2.6446 1435.6914 2269.3542)">
			<stop  offset="0" style="stop-color:#00E7EF"/>
			<stop  offset="1" style="stop-color:#1BFFDD"/>
		</linearGradient>
		<polygon class="st15" points="33.3212,30.458 36.2409,34.0186 32.7305,36.9072 29.8098,33.3467 		"/>
	</g>
</g>
<g>
	<rect x="54.8713" y="30.0127" class="st16" width="13.5077" height="0.4385"/>
	<rect x="76.0842" y="30.0127" class="st16" width="13.5077" height="0.4385"/>
	<rect x="53.7483" y="50.3555" class="st17" width="15.7431" height="0.375"/>
	<rect x="69.4922" y="28.7617" class="st17" width="0.4173" height="21.9697"/>
	<rect x="74.9924" y="50.3555" class="st17" width="15.744" height="0.375"/>
	<path class="st17" d="M90.7364,30.8721v19.8584h0.4163V31.0674C90.9956,31.0225,90.8563,30.959,90.7364,30.8721"/>
</g>
<path class="st18" d="M81.2861,41.2607l-2.753-2.4462c-1.1757-1.0479-1.283-2.8643-0.2399-4.0411l2.1798-2.458
	c1.0432-1.1787,2.8583-1.2841,4.0331-0.2402l2.752,2.4502c1.1756,1.0449,1.2839,2.8613,0.2398,4.041l-2.1778,2.457
	C84.277,42.1982,82.4608,42.3066,81.2861,41.2607"/>
<path class="st19" d="M81.2861,41.6201l-2.753-2.4482c-1.1757-1.0459-1.283-2.8633-0.2399-4.041l2.1798-2.4571
	c1.0432-1.1777,2.8583-1.2842,4.0331-0.2402l2.752,2.4502c1.1756,1.0449,1.2839,2.8623,0.2398,4.041l-2.1778,2.4561
	C84.277,42.5576,82.4608,42.666,81.2861,41.6201"/>
<path class="st20" d="M81.2861,41.9795l-2.753-2.4473c-1.1757-1.0468-1.283-2.8642-0.2399-4.041l2.1798-2.458
	c1.0432-1.1777,2.8583-1.2842,4.0331-0.2402l2.752,2.4502c1.1756,1.0449,1.2839,2.8623,0.2398,4.041l-2.1778,2.457
	C84.277,42.917,82.4608,43.0254,81.2861,41.9795"/>
<path class="st21" d="M81.2861,42.3389l-2.753-2.4473c-1.1757-1.0469-1.283-2.8633-0.2399-4.041l2.1798-2.458
	c1.0432-1.1778,2.8583-1.2832,4.0331-0.2393l2.752,2.4492c1.1756,1.0459,1.2839,2.8623,0.2398,4.0411l-2.1778,2.457
	C84.277,43.2764,82.4608,43.3848,81.2861,42.3389"/>
<path class="st22" d="M81.2861,42.6982l-2.753-2.4472c-1.1757-1.0469-1.283-2.8643-0.2399-4.041l2.1798-2.458
	c1.0432-1.1778,2.8583-1.2842,4.0331-0.2403l2.752,2.4502c1.1756,1.0449,1.2839,2.8623,0.2398,4.041L85.3201,42.46
	C84.277,43.6357,82.4608,43.7441,81.2861,42.6982"/>
<path class="st23" d="M81.2861,43.0576l-2.753-2.4472c-1.1757-1.0459-1.283-2.8633-0.2399-4.0411l2.1798-2.457
	c1.0432-1.1787,2.8583-1.2842,4.0331-0.2402l2.752,2.4502c1.1756,1.0449,1.2839,2.8613,0.2398,4.041l-2.1778,2.456
	C84.277,43.9951,82.4608,44.1025,81.2861,43.0576"/>
<path class="st24" d="M81.2861,43.417l-2.753-2.4473c-1.1757-1.0468-1.283-2.8633-0.2399-4.041l2.1798-2.458
	c1.0432-1.1777,2.8583-1.2832,4.0331-0.2393l2.752,2.4493c1.1756,1.0449,1.2839,2.8623,0.2398,4.041l-2.1778,2.457
	C84.277,44.3545,82.4608,44.4629,81.2861,43.417"/>
<path class="st25" d="M81.2861,43.7764l-2.753-2.4473c-1.1757-1.0469-1.283-2.8643-0.2399-4.041l2.1798-2.458
	c1.0432-1.1778,2.8583-1.2842,4.0331-0.2403l2.752,2.4502c1.1756,1.045,1.2839,2.8623,0.2398,4.0411l-2.1778,2.457
	C84.277,44.7139,82.4608,44.8223,81.2861,43.7764"/>
<path class="st26" d="M81.2861,44.1357l-2.753-2.4462c-1.1757-1.0479-1.283-2.8643-0.2399-4.0411l2.1798-2.458
	c1.0432-1.1787,2.8583-1.2841,4.0331-0.2402l2.752,2.4502c1.1756,1.0449,1.2839,2.8613,0.2398,4.041l-2.1778,2.457
	C84.277,45.0732,82.4608,45.1816,81.2861,44.1357"/>
<path class="st27" d="M81.2861,44.4951l-2.753-2.4482c-1.1757-1.0459-1.283-2.8633-0.2399-4.041l2.1798-2.4571
	c1.0432-1.1777,2.8583-1.2842,4.0331-0.2402l2.752,2.4502c1.1756,1.0449,1.2839,2.8623,0.2398,4.041l-2.1778,2.4561
	C84.277,45.4326,82.4608,45.541,81.2861,44.4951"/>
<path class="st28" d="M81.2861,44.8545l-2.753-2.4473c-1.1757-1.0468-1.283-2.8642-0.2399-4.041l2.1798-2.458
	c1.0432-1.1777,2.8583-1.2842,4.0331-0.2402l2.752,2.4502c1.1756,1.0449,1.2839,2.8623,0.2398,4.041l-2.1778,2.457
	C84.277,45.792,82.4608,45.9004,81.2861,44.8545"/>
<path class="st29" d="M81.2861,45.2139l-2.753-2.4473c-1.1757-1.0469-1.283-2.8633-0.2399-4.041l2.1798-2.458
	c1.0432-1.1778,2.8583-1.2832,4.0331-0.2393l2.752,2.4492c1.1756,1.0459,1.2839,2.8623,0.2398,4.0411l-2.1778,2.457
	C84.277,46.1514,82.4608,46.2598,81.2861,45.2139"/>
<path class="st30" d="M81.2861,45.5732l-2.753-2.4472c-1.1757-1.0469-1.283-2.8643-0.2399-4.041l2.1798-2.458
	c1.0432-1.1778,2.8583-1.2842,4.0331-0.2403l2.752,2.4502c1.1756,1.0449,1.2839,2.8623,0.2398,4.041l-2.1778,2.4571
	C84.277,46.5107,82.4608,46.6191,81.2861,45.5732"/>
<path class="st31" d="M81.2861,45.9326l-2.753-2.4472c-1.1757-1.0459-1.283-2.8633-0.2399-4.0411l2.1798-2.457
	c1.0432-1.1787,2.8583-1.2842,4.0331-0.2402l2.752,2.4502c1.1756,1.0449,1.2839,2.8613,0.2398,4.041l-2.1778,2.456
	C84.277,46.8701,82.4608,46.9775,81.2861,45.9326"/>
<path class="st32" d="M81.2861,46.292l-2.753-2.4473c-1.1757-1.0468-1.283-2.8633-0.2399-4.041l2.1798-2.458
	c1.0432-1.1777,2.8583-1.2832,4.0331-0.2393l2.752,2.4493c1.1756,1.0449,1.2839,2.8623,0.2398,4.041l-2.1778,2.457
	C84.277,47.2295,82.4608,47.3379,81.2861,46.292"/>
<polyline class="st33" points="53.2043,67.7939 25.7076,98.7178 26.1414,99.0371 53.3194,67.8027 "/>
<polyline class="st33" points="61.3074,67.8662 34.0835,104.1348 34.5183,104.5146 61.4224,67.8779 "/>
<polyline class="st33" points="68.575,68.1279 41.5665,108.668 42.0052,109.0986 68.6899,68.1426 "/>
<polygon class="st33" points="76.7492,68.3076 51.2624,114.2178 50.7243,113.8975 76.6283,68.2881 "/>
<path class="st33" d="M65.5051,110.9844l18.609-42.4365l-0.1199,0.0009L64.7194,111.376
	C64.9826,111.2471,65.238,111.1064,65.5051,110.9844"/>
<path class="st33" d="M80.8103,102.0264c0.1229-0.1123,0.2516-0.1914,0.3821-0.2578l12.9462-33.2471l-0.1092,0.0058
	l-13.5349,33.7754C80.5998,102.2109,80.707,102.123,80.8103,102.0264"/>
<path class="st33" d="M100.5201,76.9355l-0.312,1.0157l-0.9935,3.2685l-3.3993,11.1416l-0.4991,1.6407
	c0.1345-0.1387,0.3022-0.2491,0.5049-0.3213l0.5128-1.7256l2.9645-10.0713l1.0187-3.4551l0.272-0.9355L100.5201,76.9355z"/>
<g class="st34">
	<g>
		<g>
			<defs>
				<rect id="SVGID_21_" x="55.3295" y="96.002" width="21.712" height="4.5"/>
			</defs>
			<clipPath id="SVGID_22_">
				<use xlink:href="#SVGID_21_"  style="overflow:visible;"/>
			</clipPath>
			<path class="st35" d="M77.0415,98.251c0,1.2422-4.8606,2.25-10.856,2.25c-5.9953,0-10.856-1.0078-10.856-2.25
				s4.8607-2.25,10.856-2.25C72.1809,96.001,77.0415,97.0088,77.0415,98.251"/>
		</g>
	</g>
</g>
<g class="st36">
	<g>
		<g>
			<defs>
				<rect id="SVGID_23_" x="9.7492" y="10.415" width="92.2186" height="106.2305"/>
			</defs>
			<clipPath id="SVGID_24_">
				<use xlink:href="#SVGID_23_"  style="overflow:visible;"/>
			</clipPath>
			<path class="st37" d="M45.6463,18.4248v0.0908l0.1599-0.0908H45.6463z M45.6463,18.4248v0.0908l0.1599-0.0908H45.6463z
				 M101.9082,37.1465l-0.1014-0.0625l-0.0399-0.0186l-2.5337-1.5l-0.311-0.1826l-0.1004-0.0596l-0.0605-0.0302l-0.15-0.0801
				l-0.4377-0.25l-0.1317-0.0801l-0.0896-0.0498l-0.2593-0.1601l-0.618-0.3575l-0.8794-0.5215h-0.0097l-1.2771-0.7402
				l-0.0907-0.0498l-0.4396-0.2598l-1.7957-1.04l-0.5995-0.3603l-0.08-0.0499l-0.0399-0.0185l-3.4744-2.0215l-1.1367-0.6699
				l-1.0392-0.5986l-0.2398-0.1426l-0.6687-0.3897l-1.2478-0.7295l-0.5382-0.3105l-0.7994-0.4688l-1.7566-1.0214L80.822,24.833
				l-0.2291-0.1299l-0.8686-0.5l-0.2398-0.1386l-0.7682-0.4415l-0.1599-0.0986l-0.6785-0.3926l-0.23-0.1298l-0.2496-0.1475
				l-0.6279-0.3701c-0.0107,0-0.0107-0.0117-0.0107-0.0117l-0.7886-0.46l-0.6396-0.3691l-3.643-2.1309l-0.699-0.4082L70.82,19.002
				l-0.7088-0.3975l-0.2993-0.1826l-1.2673-0.75l-1.4779-0.8574l-0.4699-0.2715l-0.967-0.5586l-2.1174-1.2412l-0.7877-0.4502
				l-0.9183-0.5401l-0.9495-0.5498l-4.771-2.79l-2.4858,1.4199l-3.4139,1.9502l-0.6083,0.3496l-0.0692,0.0401l-1.2995,0.7402
				l-0.4991,0.29l-4.0612,2.3213l-0.0693,0.0401l-0.2895,0.1699l-0.3003,0.1689l-0.31,0.1699l-0.2906,0.17l-0.1579,0.0898
				l-0.1404,0.0703l-0.3003,0.1699l-0.2592,0.1495l-0.4592,0.2705l-2.3562,1.3496l-4.1529,2.3701l-1.8269,1.04L31.04,24.7344
				l-0.1794,0.0986l-1.1581,0.6602l-4.2631,2.4297l-0.3597,0.2099l-0.2788,0.1602l-1.4272,0.8125l-3.5738,2.0586h-0.0097
				l-7.448,4.25l-0.1794,0.1113l-1.8873,1.0801l-0.2983,0.1582l-0.0409,9.5117l-0.0292,6.5273v0.5l-0.0302,5.7627v0.7588
				l-0.08,18.21L9.7472,89.8838l0.0497,0.0303l2.8847,1.6914l0.4094,0.2373l0.0507,0.0302l0.5284,0.3116l0.3694,0.2099
				l2.5161,1.4795l2.3358,1.3614h0.0195l0.5089,0.2988l0.0702,0.0498l0.0507,0.0215h0.0292l0.9787,0.5898l1.5773,0.919
				l0.2593,0.1484l0.8383,0.4902l1.2079,0.71l0.4883,0.2803l0.5596,0.3213l0.5986,0.3486l3.3544,1.9599l2.0872,1.21l0.4289,0.2598
				l0.1891,0.1103h0.0098l0.3899,0.2198l2.9645,1.7402l1.2975,0.75l0.0302,0.0205l0.6892,0.4082l6.4283,3.75l0.4893,0.29
				l1.3882,0.8018h0.0098l0.8384,0.5l0.2398,0.1396l0.1004,0.0596l0.4377,0.2617l0.15,0.0791l0.3198,0.1895l0.0896,0.0498
				l1.1376,0.6601v0.0098l0.7487,0.4326l0.1394,0.0801l0.5401,0.3086l0.1491,0.0801l0.27,0.1504l0.2399,0.1582l0.2183,0.1308
				l0.2399,0.1407l0.0301,0.0195l0.0302,0.0127l0.0293,0.0185l3.0045,1.75l0.1803,0.0996l0.4192,0.25l0.2291,0.1329l0.5596-0.3125
				l0.1404-0.0801l1.8474-1.0586l1.7363-1l0.5994-0.3311l0.1882-0.1103l2.3962-1.3701l0.1892-0.1075l0.3899-0.2314l0.0195-0.0098
				l0.9388-0.5302l0.6386-0.3575l0.0702-0.04l1.4681-0.8525l0.1599-0.0899l0.3294-0.1787l0.5987-0.3525l0.1306-0.0674l0.2788-0.1611
				l0.0487-0.0303l0.2213-0.1299l0.1297-0.0703l0.7487-0.4199l0.3588-0.21l0.0906-0.0498l0.9076-0.5205l0.2496-0.1406l0.1803-0.1094
				l0.3988-0.2207l1.3667-0.7793l0.1696-0.1006l0.7-0.3994l0.5196-0.2881l0.0205-0.0127l0.1199-0.0674l0.4689-0.2715l0.6883-0.3974
				l2.5356-1.4502l0.2096-0.1211l0.5898-0.3301l0.1297-0.0703l0.0098-0.0098l0.6297-0.3603l0.2399-0.1397l0.2183-0.1299
				l0.5791-0.3203l0.2807-0.1601l1.0266-0.5996l0.3909-0.2188l0.2388-0.1426l0.0906-0.0498l0.0995-0.0586l0.3587-0.2011
				l0.3393-0.1905l2.7959-1.5996l0.4591-0.2588l0.0595-0.04l0.429-0.25l0.0799-0.04v-0.0108l0.2496-0.1318l0.0118-0.0098
				l0.2496-0.1396l0.2993-0.169l2.4264-1.3925l0.1589-0.0899l0.1413-0.0801l0.0683-0.04l0.0916-0.0498l1.587-0.9102l0.2983-0.1699
				l0.2291-0.1299l0.0108-0.0097l0.8579-0.4903l0.2398-0.1601l0.0682-0.0284l0.1307-0.0791h0.039l0.5206-0.3027l0.0301-0.0195
				l0.4592-0.2588l0.888-0.5127l0.0205-0.0098l5.1414-2.9297l0.0507-0.0302l0.0283-6.9297l0.0303-5.919v-0.4414l0.0098-2.0293
				v-2.1191l0.0117-0.1816v-2.0801l0.0098-2.0674l0.0799-18.3125l0.0595-13.04L101.9082,37.1465z M99.941,73.0664l-0.0098,1.9082
				l-0.0097,2.4219v0.4375l-0.0507,11.3799l-1.1971,0.6826l-3.2249,1.8486l-1.7967,1.0313l-0.619,0.3574l-0.1092,0.0625
				l-0.0897,0.0488l-0.0205,0.0098l-0.4494,0.2597l-0.1696,0.1016l-0.269,0.1397l-0.5693,0.33l-0.1092,0.0625l-0.31,0.1787
				l-0.4991,0.2901l-2.2861,1.3096l-0.6687,0.3798l-0.0302,0.0127l-0.0896,0.0489l-0.0702,0.04l-0.1395,0.0811l-3.4734,1.9882
				l-0.31,0.1807l-0.1297,0.0693l-0.1804,0.1006l-0.3392,0.1885l-0.3802,0.2227l-0.9378,0.54l-0.1989,0.1201l-0.0507,0.0274
				l-0.039,0.0214l-0.5693,0.3174l-0.2096,0.1201l-0.5196,0.3028h-0.0107l-0.2389,0.1386l-0.1696,0.0997l-0.27,0.1503
				l-0.0906,0.0499l-3.3438,1.9013l-0.4095,0.2373l-0.5888,0.3428l-0.2106,0.1182l-2.3055,1.3193l-0.1804,0.1025l-0.4192,0.2286
				l-0.3295,0.1914l-0.0487,0.0273l-0.4095,0.2402l-0.1413,0.0801l-0.0799,0.0498l-0.3675,0.21l-0.1413,0.0801l-0.739,0.4199
				l-0.1394,0.0801l-0.2399,0.1425l-0.1013,0.0586l-0.1794,0.0996l-0.2398,0.1426l-0.0284,0.0186l-0.1296,0.0703l-0.9388,0.5312
				l-0.5088,0.2901l-0.3792,0.2187l-0.2612,0.1504l-0.0897,0.0508l-1.316,0.75l-1.4477,0.8301l-0.2213,0.1299l-0.2184,0.1289
				l-0.31,0.1797l-0.1501,0.0703l-0.8082,0.4697l-0.0692,0.04l-0.62,0.3614l-1.0275,0.58l-0.6083,0.3487l-0.9378,0.54
				l-1.3668,0.7813l-1.3579,0.7685l-0.619-0.3574l-0.7194-0.4209l-2.1252-1.2305l-0.0302-0.0195l-0.1199-0.0703l-0.0497-0.0303
				l-0.1395-0.0801l-0.3705-0.2099l-0.3295-0.1875l-0.1696-0.1114l-0.0896-0.0595l-0.5996-0.3418l-0.3987-0.2285l-0.1405-0.0801
				l-0.0682-0.0401l-0.89-0.5214l-0.5274-0.3096l-0.739-0.4199l-0.0896-0.0596l-0.1413-0.0791l-0.659-0.3828l-0.0994-0.0674
				l-0.0205-0.0098l-2.9255-1.7002l-3.0446-1.7812l-3.1448-1.8399l-0.739-0.4287l-0.0195-0.0127l-2.6848-1.5673l-0.5401-0.3125
				l-0.7876-0.4698l-0.27-0.1504l-0.0302-0.0097l-0.3197-0.1885l-0.1394-0.0791l-3.6937-2.1709l-0.2291-0.1318l-0.5898-0.3399
				l-2.405-1.3974l-0.1696-0.1026l-0.5098-0.29l-0.6785-0.3975l-1.0578-0.6201l-0.3091-0.1826l-0.2905-0.1699l-0.1189-0.0596
				h-0.0098l-4.7319-2.7715l-0.5889-0.3496l-0.6297-0.3701l-0.6687-0.3897l-0.08-0.0488l-0.0293-0.0127l-0.3899-0.2197
				l-3.0553-1.7998l0.1307-29v-0.3106l0.0292-6.2109v-0.5l0.0311-7.7998l0.0292-7.1475l0.5186-0.3027l1.1991-0.6797l1.4662-0.8301
				l0.6999-0.4101l6.4682-3.6973l0.3598-0.2002l2.1057-1.2012l0.5497-0.3203l0.2086-0.1201l4.772-2.7373l0.2895-0.1699
				l0.3792-0.2002l1.8766-1.0811l0.0302-0.0215l9.5935-5.4785l2.2753-1.2988l0.7194-0.4199l0.2993-0.1719l0.1589-0.0908l0.4299-0.25
				l0.309-0.1699l0.3003-0.1602l0.8579-0.5l1.7977-1.0273l0.0702-0.0401l0.6083-0.3525l2.8749-1.6475l0.7984-0.4512l1.1084-0.6289
				l1.1181-0.6298l4.6013,2.6787l0.1696,0.0996l1.8678,1.1025l0.2593,0.1475l2.6145,1.5215l0.2905,0.1699l0.5382,0.3096l1.7177,1
				l0.2593,0.1503l0.5088,0.2999l0.8988,0.5302l0.3295,0.1895l0.7487,0.4316l0.7984,0.459l0.8881,0.5195l0.2895,0.17l0.2993,0.1826
				l0.3003,0.1699l0.2788,0.1689l0.0409,0.0196l0.2593,0.1504l2.9343,1.7099l0.3899,0.2198l0.3588,0.2226l0.1501,0.0899
				l0.6785,0.3886l1.9263,1.1299l0.7194,0.4199l0.969,0.5703l0.1891,0.1114l0.4485,0.2685h0.0097l0.9593,0.5615l1.6465,0.961
				l2.8456,1.6572l0.5994,0.3525l0.04,0.0186l0.1189,0.0703l2.0472,1.2012l0.1199,0.0674l0.7088,0.4101l0.4386,0.2617l0.2389,0.1397
				l0.2798,0.1611l1.3082,0.7588l0.0098,0.0098l0.1287,0.0703l0.0409,0.0195l0.3295,0.2002l0.1189,0.0703l0.739,0.4297l0.579,0.3301
				l0.2096,0.1201l0.2602,0.1514l0.039,0.0185l0.4893,0.2901l0.6298,0.3701l0.4289,0.25l0.0389,0.0195l0.4095,0.2403l1.4876,0.8701
				l-0.0604,11.6201v0.3496l-0.0098,2.5898v0.5l-0.0293,6.5v0.0215l-0.0409,8.3096l-0.0098,2.46l-0.0107,1.8701v0.5947H99.941z
				 M45.6463,18.4248v0.0908l0.1599-0.0908H45.6463z M45.6463,18.4248v0.0908l0.1599-0.0908H45.6463z M45.6463,18.4248v0.0908
				l0.1599-0.0908H45.6463z"/>
		</g>
	</g>
</g>
<path class="st38" d="M75.4447,82.3926l-0.2671-1.1778c-0.0195-0.08-0.0857-0.1513-0.1715-0.1826l-0.7994-0.289
	c-0.119-0.043-0.196-0.1612-0.1755-0.2618c0.0215-0.1025,0.1346-0.1494,0.2535-0.1064l0.4367,0.1592
	c0.1521,0.0547,0.2856-0.041,0.2516-0.1865l-0.1287-0.5411c-0.0235-0.1084,0.0477-0.1992,0.1647-0.1992
	c0.0283,0,0.0595,0.0069,0.0849,0.0147c0.0837,0.0302,0.1559,0.1015,0.1745,0.1845l0.6755,2.9112c0,0,0,0.0078,0,0.0127"/>
<path class="st39" d="M57.6848,75.7119l-2.2812,5.9453c0.0351,0.0137,0.0644,0.0489,0.0537,0.0957
	c-0.0985,0.4102-0.2418,0.7715-0.4173,1.1543c-0.0273,0.0596-0.1004,0.0606-0.1356,0.0293l-3.7629,1.6114l1.4184,0.4345
	l-1.1747,1.1817l5.7204-1.4952l3.4472-3.9375L57.6848,75.7119z"/>
<path class="st38" d="M57.2939,84.8555c-0.0351,0.0341-0.079,0.0605-0.1267,0.0703l-5.7215,1.4951
	c-0.115,0.0283-0.234-0.0244-0.2905-0.1289c-0.0585-0.1025-0.0409-0.2315,0.0429-0.3154l0.8637-0.8702l-0.9973-0.3046
	c-0.1082-0.0332-0.4923-0.2178-0.4962-0.3321c-0.0049-0.1123,0.0644-0.2168,0.4806-0.1699l3.9707-1.4883l2.4177-7.1933
	c0.0526-0.1377,0.2046-0.2051,0.3412-0.1534c0.1384,0.0528,0.2046,0.2051,0.152,0.3418l-2.5366,7.2354
	c-0.0274,0.0693-0.2944,0.1885-0.3666,0.2148l-3.061,1.2676l0.6707,0.2031c0.0887,0.0274,0.1569,0.1006,0.1813,0.1895
	c0.0215,0.0898-0.0039,0.1846-0.0702,0.251l-0.5245,0.5293l4.7417-1.2686l3.3925-3.874c0.0955-0.1084,0.2632-0.1211,0.3724-0.0234
	c0.1082,0.0966,0.1209,0.2636,0.0234,0.374l-3.4471,3.9375C57.3017,84.8477,57.2978,84.8516,57.2939,84.8555"/>
<polygon class="st40" points="51.1416,84.5488 52.559,84.9824 51.3853,86.1641 53.6586,85.6328 53.3038,83.7383 "/>
<path class="st38" d="M53.8283,85.8018c-0.0292,0.0302-0.0692,0.0537-0.114,0.0634l-2.2753,0.5313
	c-0.1024,0.0244-0.2096-0.0235-0.2613-0.1162c-0.0517-0.0928-0.0361-0.208,0.0389-0.2842l0.8959-0.9014l-1.0392-0.3164
	c-0.1004-0.0293-0.4768-0.206-0.4797-0.3076c-0.0029-0.1035,0.0604-0.1953,0.154-0.2305l2.4732-0.7246
	c0.0654-0.0244,0.1395-0.0195,0.2008,0.0166c0.0614,0.0342,0.1043,0.0938,0.116,0.1631l0.3549,1.8955
	C53.9082,85.6699,53.8829,85.7471,53.8283,85.8018 M52.1379,85.7441l1.2468-0.291l-0.2622-1.3935l-1.24,0.4668l0.7468,0.2275
	c0.0799,0.0234,0.1404,0.0889,0.1598,0.1699c0.0205,0.0811-0.0019,0.167-0.0624,0.2266L52.1379,85.7441z"/>
<polygon class="st39" points="62.3778,97.2197 61.0871,97.2197 57.6214,91.2988 61.6115,93.5605 "/>
<path class="st38" d="M62.3788,97.4844h-1.2917c-0.0955,0-0.1813-0.0508-0.2281-0.1309l-3.4666-5.9209
	c-0.0614-0.1035-0.0428-0.2334,0.041-0.3193c0.0838-0.085,0.2144-0.1035,0.3167-0.0449l3.9911,2.2617
	c0.0653,0.0381,0.1121,0.1025,0.1287,0.1777l0.7672,3.6572c0.0157,0.0782-0.0039,0.1592-0.0545,0.2217
	C62.5337,97.4482,62.4587,97.4844,62.3788,97.4844 M61.2372,96.9541h0.815l-0.6746-3.2217l-3.0318-1.7178L61.2372,96.9541z"/>
<g>
	<g>
		<g>
			<defs>
				<rect id="SVGID_25_" x="57.6214" y="91.2988" width="4.7564" height="5.92"/>
			</defs>
			<clipPath id="SVGID_26_">
				<use xlink:href="#SVGID_25_"  style="overflow:visible;"/>
			</clipPath>
			<polygon class="st41" points="62.3778,97.2197 61.0871,97.2197 57.6214,91.2988 61.6115,93.5605 			"/>
		</g>
	</g>
</g>
<path class="st39" d="M79.5684,69.0703l0.9778-0.7812l-7.1954-2.4942L62.8067,78.2725l-4.7613-1.9629l-0.1969,6.9218l-0.9066,2.9668
	c-0.5255,1.7198-0.2759,3.5811,0.6814,5.1016c1.1288,1.792,3.0952,2.8789,5.2096,2.8789h3.5086
	c3.9521,0,7.3845-2.7217,8.2941-6.5771l1.2751-3.4336l0.0838-0.0098l3.0825-1.8389l0.5595-4.1855l1.6807,1.1455
	c1.4302-3.541-0.7857-6.7354-0.7857-6.7354l1.5549,0.5313C82.3721,71.0537,79.5684,69.0703,79.5684,69.0703"/>
<path class="st38" d="M66.3396,94.4434H62.833c-2.2197,0-4.2504-1.1231-5.4348-3.003c-1.0002-1.5879-1.2585-3.5254-0.7097-5.3193
	l0.8958-2.9326l0.196-6.8858c0.002-0.0869,0.0468-0.167,0.1209-0.2138c0.0722-0.0489,0.1638-0.0576,0.2437-0.0235l4.5838,1.8887
	L73.149,65.623c0.0712-0.0839,0.1862-0.1142,0.2886-0.0781l7.1944,2.4922c0.0906,0.0322,0.1579,0.1104,0.1735,0.2061
	c0.0166,0.0957-0.0195,0.1904-0.0945,0.2509l-0.7127,0.5713c0.7282,0.5811,2.5999,2.2666,2.3456,4.0469
	c-0.0108,0.0781-0.0556,0.1465-0.1239,0.1885c-0.0663,0.041-0.1481,0.0488-0.2222,0.0234l-0.8871-0.3027
	c0.1882,0.3642,0.4134,0.8701,0.6005,1.4844c0.3529,1.1728,0.6161,2.9697-0.1501,4.872c-0.0313,0.0733-0.0936,0.1309-0.1677,0.1534
	c-0.0761,0.0224-0.1599,0.0117-0.2271-0.0342l-1.3268-0.9033l-0.5021,3.7587c-0.0127,0.0801-0.0594,0.1524-0.1267,0.1934
	l-3.0854,1.8389c-0.0059,0.0039-0.0137,0.0078-0.0205,0.0127l-1.2186,3.2802c-0.4553,1.9151-1.555,3.6426-3.0952,4.8633
	C70.2468,93.7686,68.3088,94.4434,66.3396,94.4434 M58.298,76.7012l-0.1863,6.5381c0,0.0234-0.0039,0.0468-0.0117,0.0693
	l-0.9066,2.9678c-0.503,1.6455-0.2671,3.4257,0.6503,4.8818c1.0889,1.7266,2.9518,2.7559,4.9884,2.7559h3.5075
	c1.8513,0,3.6714-0.6348,5.1238-1.7852c1.4526-1.1533,2.4878-2.7812,2.9129-4.5879c0.002-0.0107,0.0059-0.0215,0.0098-0.0303
	l1.2751-3.4355c0.0351-0.0938,0.1209-0.1602,0.2203-0.1709l0.0254-0.0029l2.9246-1.7442l0.5401-4.0586
	c0.0137-0.0898,0.0722-0.1689,0.156-0.207c0.0838-0.0361,0.1803-0.0273,0.2554,0.0234l1.4038,0.9561
	c0.4562-1.3164,0.464-2.7275,0.0244-4.1934c-0.3578-1.1914-0.8939-1.9756-0.8978-1.9824c-0.0644-0.0947-0.0624-0.2207,0.0058-0.3105
	c0.0683-0.0918,0.1882-0.128,0.2964-0.0918l1.2245,0.4189c-0.0585-1.7305-2.3962-3.4062-2.4216-3.4248
	c-0.0683-0.0478-0.1102-0.125-0.1121-0.209c-0.002-0.083,0.035-0.1621,0.1004-0.2138l0.6024-0.4825l-6.5705-2.2773L63.0114,78.4443
	c-0.0741,0.0879-0.1969,0.1172-0.3032,0.0733L58.298,76.7012z"/>
<polyline class="st39" points="73.8041,89.7617 69.9036,97.2646 68.6471,97.7363 67.9852,92.7148 "/>
<path class="st38" d="M68.648,98c-0.0487,0-0.0955-0.0127-0.1384-0.0381c-0.0683-0.041-0.1131-0.1113-0.1248-0.1904L67.7219,92.75
	c-0.0186-0.1455,0.0839-0.2773,0.2281-0.2969c0.1462-0.0195,0.2788,0.083,0.2983,0.2285l0.6181,4.6895l0.85-0.3174l3.8547-7.4141
	c0.0663-0.1308,0.2261-0.1806,0.3548-0.1123c0.1307,0.0665,0.1794,0.2276,0.1112,0.3565l-3.8975,7.5039
	c-0.0313,0.0586-0.082,0.1035-0.1424,0.126l-1.2586,0.4707C68.7104,97.9941,68.6773,98,68.648,98"/>
<path class="st39" d="M73.9795,87.291c0.0108-0.0351,0.0224-0.0703,0.038-0.1055c0.1258-0.3125,0.3101-0.6025,0.4485-0.9101
	c0.1725-0.3858,0.3451-0.7793,0.544-1.1563l-4.5263,0.1358l1.3278,0.581l-1.0168,1.4239L73.9795,87.291z"/>
<path class="st39" d="M75.2068,80.7539l0.4241,3.8018c0.039-0.0186,0.0965-0.0078,0.118,0.0449
	c0.2066,0.4932,0.039,0.9736-0.1891,1.4277c-0.2067,0.4131-0.271,0.8389-0.3373,1.2774l3.0298,0.0302
	c0.0235-0.1777,0.0605-0.375,0.1521-0.5146c0.0039-0.0068,0.0107-0.0147,0.0166-0.0225c-0.002-0.0136,0.0009-0.0273,0.0107-0.0449
	c0.0331-0.0615,0.0565-0.1279,0.0839-0.1904c0.0059-0.0127,0.0156-0.0215,0.0243-0.0264l0.8471-6.5498L75.2068,80.7539z"/>
<path class="st38" d="M75.4974,85.4385c0.0087-0.0088,0.386-0.1572,0.3938-0.167c0.0477-0.0567,0.0702-0.1299,0.0624-0.2031
	l-0.4816-4.3448c-0.0176-0.1445-0.1462-0.25-0.2925-0.2314c-0.1462,0.0146-0.2496,0.1455-0.232,0.292l0.4416,3.9717
	C75.5267,84.9561,75.3219,85.2754,75.4974,85.4385"/>
<path class="st38" d="M79.4212,79.7236c-0.1452-0.0185-0.2778,0.083-0.2954,0.2295l-0.7643,5.9073
	c0.0351-0.0635,0.0731-0.1221,0.1228-0.1778c0.1327-0.1484,0.2867-0.2431,0.3939-0.4219c0.0399-0.0634,0.076-0.1279,0.117-0.1875
	l0.6551-5.0546C79.6688,79.875,79.5664,79.7432,79.4212,79.7236"/>
<path class="st42" d="M63.2785,89.3984c0,2.4561,2.3124,4.4454-0.6004,4.4454c-2.9129,0-5.2721-1.9893-5.2721-4.4454
	c0-2.455,0.8189-4.8818,3.685-4.4443C63.9376,85.3867,63.2785,86.9434,63.2785,89.3984"/>
<line class="st43" x1="73.7641" y1="81.7852" x2="75.2907" y2="82.0537"/>
<path class="st38" d="M75.2927,82.3174c-0.0156,0-0.0303-0.001-0.0468-0.0039l-1.5285-0.2676
	c-0.1443-0.0244-0.2389-0.1631-0.2145-0.3066c0.0254-0.1455,0.1638-0.2403,0.3061-0.2159l1.5286,0.2686
	c0.1434,0.0234,0.2398,0.1621,0.2144,0.3047C75.5306,82.2266,75.4175,82.3174,75.2927,82.3174"/>
<polygon class="st40" points="61.0871,97.2129 62.3778,97.2129 62.216,96.4355 60.6309,96.4355 "/>
<path class="st38" d="M62.3778,97.4521h-1.2907c-0.0858,0-0.1618-0.0449-0.2066-0.1191l-0.4543-0.7773
	c-0.0429-0.0723-0.0448-0.1651,0-0.2373c0.0409-0.0743,0.1189-0.1202,0.2048-0.1202h1.5851c0.1111,0,0.2105,0.0791,0.232,0.1875
	l0.1638,0.7784c0.0136,0.0713-0.004,0.1435-0.0488,0.2002C62.5162,97.4189,62.4499,97.4521,62.3778,97.4521 M61.2235,96.9746h0.8618
	l-0.0624-0.3017h-0.9768L61.2235,96.9746z"/>
<polygon class="st40" points="68.648,97.7275 69.9036,97.2588 70.2468,96.6025 68.4999,96.6025 "/>
<path class="st38" d="M68.648,97.9668c-0.0428,0-0.0858-0.0107-0.1228-0.0342c-0.0624-0.0351-0.1033-0.1006-0.1131-0.1728
	l-0.1481-1.125c-0.0098-0.0655,0.0127-0.1368,0.0575-0.1875c0.0448-0.0498,0.1101-0.0811,0.1784-0.0811h1.7488
	c0.082,0,0.1599,0.044,0.2028,0.1162c0.0428,0.0694,0.0467,0.1582,0.0078,0.2315l-0.3432,0.6552
	c-0.0273,0.0518-0.0721,0.0918-0.1277,0.1133l-1.2576,0.4697C68.7046,97.9619,68.6754,97.9668,68.648,97.9668 M68.7709,96.8418
	l0.0741,0.5605l0.891-0.333l0.117-0.2275H68.7709z"/>
<g>
	<g>
		<g>
			<defs>
				<rect id="SVGID_27_" x="78.4415" y="86.4189" width="0.1189" height="0.2276"/>
			</defs>
			<clipPath id="SVGID_28_">
				<use xlink:href="#SVGID_27_"  style="overflow:visible;"/>
			</clipPath>
			<path class="st44" d="M78.4434,86.5986c0.0313,0.0118,0.0615,0.0264,0.0858,0.0459l0.0311-0.2256
				c-0.0389,0.0538-0.0761,0.1104-0.1092,0.1651L78.4434,86.5986z"/>
		</g>
	</g>
</g>
<g>
	<g>
		<g>
			<defs>
				<rect id="SVGID_29_" x="77.377" y="67.8623" width="4.728" height="18.7471"/>
			</defs>
			<clipPath id="SVGID_30_">
				<use xlink:href="#SVGID_29_"  style="overflow:visible;"/>
			</clipPath>
			<path class="st45" d="M80.7246,72.6846l1.3804,0.2988c-0.2203-1.9785-2.5668-3.6641-2.5932-3.6826l-0.23-0.1621l1.1249-0.8321
				c-0.233-0.083-0.6843-0.4052-1.0118-0.4423h-0.6464v1.5888l-1.3707,0.6719l2.5406,1.3838l-2.0697,0.1152
				c0,0,2.9938,3.1719,2.8368,5.8272l-1.8288-0.5157l-1.0684,9.1475c0.1716,0.1611,0.3197,0.3438,0.4679,0.5264
				c0.0069-0.0117,0.0137-0.0215,0.0176-0.0293c0.0858-0.1572,0.1911-0.3223,0.3266-0.4444l1.0713-8.0087l1.6202,1.0732
				c1.3492-3.1006-0.3743-6.0361-0.3918-6.0762L80.7246,72.6846z"/>
		</g>
	</g>
</g>
<path class="st40" d="M61.9664,73.0488l-0.0634,0.0303c0.0244-0.002,0.0536-0.0029,0.079-0.0039L61.9664,73.0488z"/>
<polyline class="st39" points="58.4666,81.7549 59.0437,82.9971 59.5858,82.4648 "/>
<path class="st38" d="M59.0437,83.1826c-0.0117,0-0.0215-0.001-0.0331-0.0039c-0.0585-0.0107-0.1091-0.0488-0.1345-0.1025
	l-0.5772-1.2432c-0.0428-0.0918-0.0029-0.2031,0.0897-0.2461c0.0935-0.043,0.2028-0.0029,0.2457,0.0899l0.4679,1.0039l0.3539-0.3477
	c0.0732-0.0723,0.1901-0.0703,0.2612,0.0029c0.0722,0.0743,0.0712,0.1914-0.0029,0.2618l-0.5411,0.5312
	C59.1393,83.1631,59.0916,83.1826,59.0437,83.1826"/>
<polyline class="st39" points="65.0001,81.7549 62.5669,83.6904 62.2442,82.6357 "/>
<path class="st38" d="M62.5689,83.875c-0.0195,0-0.037-0.0029-0.0566-0.0088c-0.0575-0.0176-0.1033-0.0635-0.1209-0.1221
	l-0.3236-1.0537c-0.0311-0.0986,0.0235-0.2021,0.1229-0.2314c0.0974-0.0293,0.1989,0.0244,0.23,0.1221l0.2438,0.7949l2.2187-1.7666
	c0.08-0.0635,0.197-0.0498,0.2613,0.0302c0.0633,0.0801,0.0506,0.1954-0.0293,0.2608l-2.4313,1.9346
	C62.6507,83.8613,62.6098,83.875,62.5689,83.875"/>
<polyline class="st39" points="62.7863,81.9463 60.1717,84.0986 59.4669,81.8359 "/>
<path class="st38" d="M60.1727,84.2842c-0.0195,0-0.0351-0.002-0.0536-0.0078c-0.0595-0.0176-0.1043-0.0635-0.1238-0.1221
	l-0.7039-2.2656c-0.0312-0.0977,0.0234-0.2002,0.1209-0.2305c0.0974-0.0293,0.2008,0.0225,0.232,0.1211l0.6219,2.002l2.4011-1.9776
	c0.08-0.0654,0.1959-0.0547,0.2622,0.0244c0.0634,0.0791,0.0526,0.1953-0.0254,0.2617l-2.6145,2.1514
	C60.2565,84.2686,60.2136,84.2842,60.1727,84.2842"/>
<path class="st39" d="M77.6002,66.2012c0.0068,0.0869,0.0205,0.1748,0.0478,0.2558c0.0205,0.0674,0.0487,0.1319,0.0896,0.1856
	c0.2379,0.3262,1.8249,0.3867,2.0316,0.3935l0.0019-0.0019l0.2759-0.002c0.3743-0.0029,0.7117-0.042,1.0109-0.1162
	c0.3451-0.0849,0.6395-0.2168,0.8813-0.3945c0.0215-0.0166,0.0428-0.0322,0.0634-0.0488c0.0731-0.0606,0.1452-0.125,0.2085-0.1934
	c0.0127-0.0147,0.0245-0.0273,0.0341-0.041c0.0351-0.041,0.0702-0.082,0.0985-0.124c0.0262-0.0372,0.0536-0.0743,0.076-0.1114
	c0.1804-0.2939,0.2506-0.5927,0.2759-0.8008c-0.2555,0.001-0.4972-0.0078-0.7253-0.0234c-1.6836-0.1211-2.6165-0.6777-3.1312-1.2031
	c-0.4883-0.5-0.5986-0.9707-0.6063-1.0147l-0.0186-0.0839l1.2566-3.4141l0.0994-0.2695c-1.7216-1.5108-4.7202-1.5948-4.7514-1.5957
	l-0.5343-0.0108l0.9964-1.5156c-2.5201-1.9121-5.8297-1.5283-5.8628-1.5234l-0.5595,0.0683l0.6804-1.3125
	c-1.8484-0.5644-3.488-0.2851-4.6617,0.1328l0.1326,0.7217l0.1287,0.7051v0.0215c0,0.0478-0.0039,0.4892-0.427,0.8896
	c-0.503,0.4766-1.3609,0.6748-2.5512,0.5908c-0.001,0-0.0029-0.0009-0.0049-0.0009c-2.8914-0.2071-2.8972-1.3526-2.8894-1.4825
	l0.0019-0.0166l0.0039-0.0175l0.3783-1.9258c-0.1102-0.0186-0.2223-0.0332-0.3354-0.042c-0.1833-0.0166-0.3666-0.0205-0.5576-0.0137
	l0.271,1.8838l-0.5069-0.2559c-0.0195-0.0097-1.5539-0.7646-3.2853-0.625c-0.351,0.0284-0.7078,0.0938-1.0626,0.2071l0.3939,1.9707
	v0.001l-0.5128-0.212c-0.2671-0.1064-0.8403-0.2197-1.5968-0.1562c-0.3704,0.0293-0.7838,0.1025-1.2283,0.2392l0.3324,1.7452
	l-1.2274,0.0263c-0.0254,0.4492-0.0731,1.4219-0.0896,2.6201l0.0555,0.0333c-0.0048,0.0068-0.0224,0.038-0.0575,0.0849
	c-0.0205,1.8281,0.0303,4.1494,0.3315,5.9629l1.5052,0.332l-0.2818,0.3711c-0.0224,0.0303-0.5654,0.7725-0.3665,1.8789
	l1.3219,1.3106l0.5976,2.8847l1.2478,0.5108l-0.4386,3.4072l1.9594-0.4521l-0.6765,2.1904l0.6912-0.2002l0.3519-0.1016
	l0.3529-0.1015l2.0765-0.6016l0.0458,1.2715l3.6801-1.4844l2.5717,0.7364l2.1681-2.7071l1.0899,0.1172l0.8091,0.0879l0.8969-1.3086
	l1.4428,0.4775l0.8657-1.7714l1.8278,0.6279l0.6464-1.5283l1.7723,0.5859l0.2291-1.7383l1.6602-0.2256l-0.4289-1.6347l1.4661-0.4795
	l0.0741-1.2002c-0.1169-0.0029-0.3421-0.0098-0.6121-0.0303c-0.6707-0.0508-1.6222-0.1865-1.8854-0.5381
	c-0.1268-0.1679-0.1395-0.3691-0.0955-0.5674c0.0215-0.0966,0.0546-0.1904,0.0955-0.2812c0.0429-0.0977,0.0955-0.1904,0.1462-0.2734
	c0.1336-0.212,0.2671-0.3584,0.2671-0.3584s-0.0351,0.1484-0.0478,0.3427C77.5943,66.0215,77.5934,66.1113,77.6002,66.2012"/>
<path class="st39" d="M48.2989,61.4688c0.113,0.4023,0.4386,1.0615,1.3608,1.0791c-0.0146-0.5225-0.0195-1.0381-0.0175-1.5245
	C49.3205,61.248,48.876,61.4492,48.2989,61.4688"/>
<path class="st38" d="M83.3002,64.874l-0.0215-0.2832l-0.2827,0.0088c-3.3302,0.1055-4.0388-1.3437-4.1607-1.6904l1.4272-3.8799
	l-0.1385-0.1357c-1.4408-1.3916-3.7415-1.7598-4.769-1.8565l0.7174-1.0898l-0.2066-0.17c-2.1438-1.7714-4.8392-1.8964-5.9768-1.8584
	l0.4962-0.955l-0.3207-0.1143c-2.1086-0.748-3.9668-0.4746-5.2964-0.0156l0.0556,0.3027l0.0078,0.0352l0.0477,0.2656
	c1.1737-0.4189,2.8125-0.6973,4.6618-0.1348l-0.6824,1.3116l0.5595-0.0694c0.0331-0.0039,3.3428-0.3877,5.8608,1.5254
	l-0.9944,1.5137l0.5343,0.0117c0.0312,0.001,3.0298,0.085,4.7534,1.5977L79.4729,59.46l-1.2576,3.415l0.0176,0.084
	c0.0098,0.042,0.1189,0.5137,0.6083,1.0137c0.5127,0.5253,1.4467,1.082,3.1292,1.2031c0.2281,0.0176,0.4719,0.0244,0.7272,0.0234
	c-0.0263,0.208-0.0974,0.5069-0.2778,0.8008c-0.0224,0.0371-0.0477,0.0742-0.0731,0.1123c-0.0312,0.042-0.0644,0.083-0.0994,0.124
	c-0.0117,0.0127-0.0215,0.0254-0.0341,0.041c-0.0653,0.0674-0.1355,0.1329-0.2105,0.1924c-0.0206,0.0186-0.041,0.0323-0.0634,0.0479
	c-0.2399,0.1787-0.5343,0.3105-0.8794,0.3955c-0.2993,0.0752-0.6366,0.1142-1.0128,0.1162l-0.2759,0.0029v0.001
	c-0.2066-0.0059-1.7947-0.0674-2.0316-0.3936c-0.0409-0.0546-0.0692-0.1162-0.0915-0.1855
	c-0.0254-0.0811-0.039-0.1689-0.0458-0.2559c-0.0079-0.0888-0.0059-0.1796-0.002-0.2597c0.0146-0.1953,0.0497-0.3447,0.0497-0.3447
	s-0.1336,0.1464-0.2671,0.3583c-0.0526,0.0831-0.1033,0.1758-0.1462,0.2735c-0.0409,0.0918-0.076,0.1855-0.0964,0.2803
	c-0.0429,0.1992-0.0303,0.4004,0.0964,0.5693c0.2642,0.3516,1.2147,0.4873,1.8864,0.5371c0.27,0.0205,0.4923,0.0273,0.6112,0.0313
	l-0.0741,1.1992l-1.4662,0.4804l0.4289,1.6329l-1.6611,0.2275l-0.2282,1.7363l-1.7742-0.5859l-0.6454,1.5293l-1.8288-0.6279
	l-0.8657,1.7714l-1.4428-0.4775l-0.8959,1.3076L68.4706,75.75l-1.0899-0.1182l-2.17,2.7071l-2.5678-0.7344l-3.6821,1.4824
	l-0.0458-1.2705l-2.0755,0.5996l-0.3519,0.1026l-0.3529,0.1015l-0.6902,0.2002l0.6745-2.1914l-1.9594,0.4522l0.4406-3.4053
	l-1.2498-0.5127l-0.5957-2.8838l-1.3229-1.3096c-0.1989-1.1064,0.3432-1.8496,0.3666-1.8808l0.2827-0.3701l-1.5052-0.3311
	c-0.3032-1.8135-0.3529-4.1367-0.3314-5.9648c0.0331-0.0469,0.0526-0.0772,0.0565-0.084l-0.0546-0.0332
	c0.0166-1.1963,0.0634-2.1709,0.0877-2.6202l1.2294-0.0263l-0.3334-1.7461c0.4435-0.1367,0.8579-0.208,1.2292-0.2393
	c0.7556-0.0625,1.3298,0.0508,1.5959,0.1573l0.5118,0.2109l-0.3929-1.9697c0.3539-0.1153,0.7117-0.1787,1.0616-0.2071
	c1.7314-0.1406,3.2658,0.6153,3.2853,0.6241l0.5089,0.2558l-0.271-1.8838c0.1872-0.0068,0.3743-0.0019,0.5556,0.0127
	c0.1131,0.0098,0.2252,0.0254,0.3354,0.042l0.0575-0.293c-0.0906-0.0136-0.1843-0.0263-0.2778-0.0361l0.0019-0.001l0,0
	c0.0936,0.0108,0.1862,0.0235,0.2759,0.0371l0.0594-0.2939c-0.4337-0.0693-0.8958-0.0898-1.3784-0.0342l-0.3032,0.0352l0.2017,1.414
	c-0.8725-0.33-2.7432-0.8505-4.5613-0.1425l-0.2311,0.0908l0.2886,1.4531c-0.581-0.1142-1.6407-0.1885-2.9909,0.2871l-0.2408,0.084
	l0.2973,1.5635l-1.0703,0.0224l-0.0195,0.2715c-0.0079,0.1074-0.0877,1.3242-0.1092,2.9551
	c-0.2642,0.2773-0.7896,0.668-1.6105,0.6094c-0.0117,0-0.0215-0.001-0.0331-0.003l-0.3081-0.0263l0.0273,0.3086
	c0.002,0.0195,0.1794,1.7246,1.7938,1.8379c0.0507,0.0048,0.1053,0.0068,0.1589,0.0078c0.0477,1.2519,0.1511,2.5283,0.348,3.626
	l0.0351,0.1923l1.0431,0.2305c-0.1989,0.417-0.43,1.1475-0.2359,2.0645l0.0185,0.0878l1.3249,1.3096l0.6239,3.0186l1.1171,0.458
	l-0.4903,3.8008l1.786-0.4112l-0.6941,2.2549l1.1785-0.3398l0.2262-0.0655l0.1267-0.0371l0.351-0.1015l1.9146-0.5528l0.0487,1.3555
	l3.7727-1.5215l0.503-0.2012l2.755,0.7872l2.2119-2.7627l1.9263,0.2089l0.8471-1.2314l1.5121,0.5l0.8627-1.7686l1.8552,0.6397
	l0.6483-1.5361l1.9361,0.6396l0.2632-1.999l1.8756-0.2559l-0.4563-1.7402l1.3161-0.4316l0.0722-1.1504l0.0301-0.5205
	c1.0207-0.0567,1.8006-0.3702,2.3192-0.9375c0.0311-0.0323,0.0604-0.0655,0.0877-0.1016c0,0,0.0048,0.001,0.0068,0.0019
	c0.0556-0.0683,0.1082-0.1416,0.1589-0.2187c0.0019-0.0049,0.0049-0.0107,0.0068-0.0147c0.0458-0.0732,0.0887-0.1503,0.1277-0.2324
	l-0.0048,0.0049c0.0127-0.0254,0.0244-0.0508,0.034-0.0762C83.3391,65.4424,83.3041,64.9053,83.3002,64.874 M48.2989,61.4668
	c0.5771-0.0195,1.0216-0.2207,1.3433-0.4453c0,0.4873,0.0039,1.0029,0.0195,1.5244C48.7396,62.5273,48.4139,61.8691,48.2989,61.4668
	"/>
<path class="st38" d="M54.5301,61.1152c0.0059-0.0185,0.0098-0.0361,0.0118-0.0556c0.0117-0.1602-0.1405-0.3037-0.3412-0.3194
	c-0.1482-0.0127-0.2808,0.0479-0.3471,0.1455l-0.0146,0.0225c-0.1618,0.2744-0.2837,0.6943-0.3217,1.1748
	c-0.0341,0.4365,0.0088,0.8389,0.1043,1.1309c0.0098,0.0254,0.0176,0.0527,0.0273,0.0781l0.0098,0.0254
	c0.039,0.083,0.1228,0.1504,0.2301,0.1806c0.0282,0.0088,0.0565,0.0147,0.0878,0.0166c0.2017,0.0176,0.3752-0.1015,0.3879-0.2617
	c0.002-0.0195,0-0.0371-0.0019-0.0556c-0.002-0.0186-0.0078-0.0342-0.0137-0.0498c-0.0702-0.2774-0.0965-0.628-0.0663-1.0059
	c0.0292-0.377,0.1131-0.7178,0.2262-0.9795C54.5176,61.1465,54.5262,61.1318,54.5301,61.1152"/>
<path class="st38" d="M68.2435,61.8633c0.0068-0.0205,0.0107-0.0401,0.0126-0.0615c0.0167-0.1836-0.1579-0.3477-0.3869-0.3663
	c-0.1677-0.0126-0.3188,0.0547-0.3929,0.1631c-0.0059,0.0108-0.0117,0.0196-0.0176,0.0284c-0.1862,0.3125-0.3236,0.79-0.3685,1.3339
	c-0.0448,0.543,0.0156,1.0362,0.1462,1.375c0.0039,0.0098,0.0078,0.0205,0.0117,0.0293c0.0565,0.1202,0.194,0.2119,0.3617,0.2266
	c0.0166,0,0.0303,0,0.0468,0c0.2085,0,0.3811-0.127,0.3948-0.2979c0.0019-0.0214,0-0.0419-0.0039-0.0625
	c0-0.0136-0.0059-0.0224-0.0078-0.0351c-0.002-0.0078-0.004-0.0156-0.0069-0.0215c-0.079-0.3154-0.1082-0.7139-0.0731-1.1435
	c0.0341-0.4297,0.1287-0.8165,0.2573-1.1143C68.2289,61.9004,68.2376,61.8828,68.2435,61.8633"/>
<g>
	<g>
		<g>
			<defs>
				<rect id="SVGID_31_" x="77.7503" y="63.9727" width="4.9454" height="2.2783"/>
			</defs>
			<clipPath id="SVGID_32_">
				<use xlink:href="#SVGID_31_"  style="overflow:visible;"/>
			</clipPath>
			<path class="st46" d="M82.0231,66.209c0.1091-0.0205,0.2164-0.0547,0.3216-0.0977c0.0274-0.0371,0.0527-0.0742,0.0741-0.1113
				c0.1833-0.2939,0.2516-0.5928,0.2769-0.8008c-0.2555,0.001-0.4972-0.0078-0.7253-0.0234
				c-1.6836-0.1201-2.6165-0.6778-3.1302-1.2022l-1.0899,0.3594c0,0,1.0431,0.957,2.2743,1.5215
				c0.2379,0.1064,0.4816,0.2012,0.7292,0.2705C81.1867,66.2461,81.6214,66.292,82.0231,66.209"/>
		</g>
	</g>
</g>
<g>
	<g>
		<g>
			<defs>
				<rect id="SVGID_33_" x="58.6148" y="75.5918" width="1.1026" height="1.3437"/>
			</defs>
			<clipPath id="SVGID_34_">
				<use xlink:href="#SVGID_33_"  style="overflow:visible;"/>
			</clipPath>
			<path class="st47" d="M59.0126,75.6494c-0.0663-0.0996-0.2203-0.0635-0.2359,0.0547l-0.1589,1.083
				c-0.0127,0.083,0.0565,0.1543,0.1394,0.1465l0.8423-0.0654c0.0994-0.0088,0.153-0.1202,0.0974-0.2032L59.0126,75.6494z"/>
		</g>
	</g>
</g>
<g>
	<g>
		<g>
			<defs>
				<rect id="SVGID_35_" x="68.4686" y="67.6162" width="11.2635" height="8.2256"/>
			</defs>
			<clipPath id="SVGID_36_">
				<use xlink:href="#SVGID_35_"  style="overflow:visible;"/>
			</clipPath>
			<path class="st48" d="M79.7321,67.6465c-0.1169-0.0039-0.3431-0.0117-0.6092-0.0303l-0.0575,0.8047l-1.5832,0.4941l0.3627,1.5723
				l-1.3998,0.1758l-0.271,1.5205l-1.4916-0.4697l-0.7584,1.5664l-1.7158-0.5498l-0.8988,1.6035l-1.5226-0.3418l-1.3181,1.7617
				l0.8082,0.0869l0.8978-1.3066l1.4428,0.4765l0.8657-1.7714l1.8289,0.6289l0.6453-1.5303l1.7743,0.5859l0.2281-1.7373
				l1.6592-0.2265l-0.427-1.6319l1.4661-0.4814L79.7321,67.6465z"/>
		</g>
	</g>
</g>
<g>
	<g>
		<g>
			<defs>
				<rect id="SVGID_37_" x="81.058" y="66.5186" width="0.8813" height="0.3945"/>
			</defs>
			<clipPath id="SVGID_38_">
				<use xlink:href="#SVGID_37_"  style="overflow:visible;"/>
			</clipPath>
			<path class="st49" d="M81.9393,66.5186l-0.8794,0.3964C81.4031,66.8291,81.6955,66.6973,81.9393,66.5186"/>
		</g>
	</g>
</g>
<g>
	<g>
		<g>
			<defs>
				<rect id="SVGID_39_" x="67.3691" y="63.6748" width="2.9265" height="1.4863"/>
			</defs>
			<clipPath id="SVGID_40_">
				<use xlink:href="#SVGID_39_"  style="overflow:visible;"/>
			</clipPath>
			<path class="st50" d="M67.6576,64.5928c-0.1033,0.1279-0.193,0.2568-0.269,0.376c-0.0731,0.1162,0.0634,0.246,0.1794,0.1699
				c0.9612-0.6465,2.0063-0.4649,2.5658-0.2881c0.115,0.0371,0.2086-0.0986,0.1365-0.1943l-0.7019-0.9258
				c-0.0215-0.0303-0.0565-0.0508-0.0935-0.0528c-0.5908-0.0302-1.0685,0.2041-1.435,0.5205
				c0.0039,0.0108,0.0078,0.0206,0.0097,0.0352c0.0039,0.0195,0.0039,0.041,0.002,0.0615
				C68.0378,64.4648,67.8662,64.5918,67.6576,64.5928"/>
		</g>
	</g>
</g>
<g>
	<g>
		<g>
			<defs>
				<rect id="SVGID_41_" x="52.3757" y="62.9355" width="1.7567" height="1.1006"/>
			</defs>
			<clipPath id="SVGID_42_">
				<use xlink:href="#SVGID_41_"  style="overflow:visible;"/>
			</clipPath>
			<path class="st51" d="M53.8907,63.498c-0.1072-0.0292-0.1911-0.0976-0.23-0.1806l-0.0098-0.0264
				c-0.0098-0.0234-0.0186-0.0517-0.0274-0.0781c-0.1735-0.1436-0.3879-0.25-0.6502-0.2764
				c-0.0302-0.0019-0.0614,0.0098-0.0809,0.0313l-0.4855,0.4961c-0.0663,0.0683-0.0098,0.1826,0.0858,0.1689
				c0.3627-0.0547,0.969-0.0557,1.4799,0.3809c0.0799,0.0674,0.1959-0.0244,0.15-0.1201
				C54.0642,63.7666,53.9882,63.6289,53.8907,63.498"/>
		</g>
	</g>
</g>
<g>
	<g>
		<g>
			<defs>
				<rect id="SVGID_43_" x="56.6671" y="75.2773" width="1.2205" height="1.6856"/>
			</defs>
			<clipPath id="SVGID_44_">
				<use xlink:href="#SVGID_43_"  style="overflow:visible;"/>
			</clipPath>
			<path class="st52" d="M57.6126,75.3232l-0.9163,1.0977c-0.0585,0.0693-0.0274,0.1768,0.0585,0.207l0.3977,0.1348l0.2496,0.085
				l0.2496,0.0859l0.0634,0.0215c0.0858,0.0303,0.1764-0.0352,0.1716-0.127l-0.0088-0.3105l-0.0176-0.5088l-0.0176-0.5098
				l-0.0029-0.0967C57.8378,75.2832,57.6887,75.2314,57.6126,75.3232"/>
		</g>
	</g>
</g>
<g>
	<g>
		<g>
			<defs>
				<rect id="SVGID_45_" x="55.3919" y="74.9717" width="1.4487" height="0.8906"/>
			</defs>
			<clipPath id="SVGID_46_">
				<use xlink:href="#SVGID_45_"  style="overflow:visible;"/>
			</clipPath>
			<path class="st53" d="M56.6982,74.9727l-1.1873,0.1123c-0.1112,0.0107-0.1579,0.1494-0.0761,0.2246l0.5517,0.5175
				c0.0517,0.0469,0.1287,0.0459,0.1804-0.0019l0.6356-0.6279C56.8884,75.1104,56.8191,74.9609,56.6982,74.9727"/>
		</g>
	</g>
</g>
<g>
	<g>
		<g>
			<defs>
				<rect id="SVGID_47_" x="64.8773" y="52.9854" width="14.693" height="6.4736"/>
			</defs>
			<clipPath id="SVGID_48_">
				<use xlink:href="#SVGID_47_"  style="overflow:visible;"/>
			</clipPath>
			<path class="st54" d="M68.3927,53.6758l-0.2886,1.7783c0,0,3.1137-0.96,6.4516,0.832l-1.2283,2.0596
				c0,0,3.9365-0.3613,5.3842,1.0713l0.7624,0.042l0.1003-0.2666c-1.7235-1.5127-4.7212-1.5967-4.7534-1.5977l-0.5362-0.0117
				l0.9964-1.5137c-2.5191-1.913-5.8277-1.5293-5.8628-1.5254l-0.5595,0.0704l0.6804-1.3135
				c-1.8484-0.5625-3.488-0.2842-4.6598,0.1338l0.1307,0.7226C65.5461,53.9023,66.9186,53.3604,68.3927,53.6758"/>
		</g>
	</g>
</g>
<g>
	<g>
		<g>
			<defs>
				<rect id="SVGID_49_" x="54.1733" y="53.8691" width="1.0606" height="2.1768"/>
			</defs>
			<clipPath id="SVGID_50_">
				<use xlink:href="#SVGID_49_"  style="overflow:visible;"/>
			</clipPath>
			<path class="st55" d="M54.5673,56.0459c0,0-0.1658-1.6572,0.6687-2.1768c-0.351,0.0293-0.7078,0.0918-1.0616,0.2071
				L54.5673,56.0459z"/>
		</g>
	</g>
</g>
<g>
	<g>
		<g>
			<defs>
				<rect id="SVGID_51_" x="58.7591" y="52.8623" width="0.5556" height="1.8867"/>
			</defs>
			<clipPath id="SVGID_52_">
				<use xlink:href="#SVGID_51_"  style="overflow:visible;"/>
			</clipPath>
			<path class="st56" d="M59.3129,52.8779c-0.1804-0.0156-0.3666-0.0205-0.5547-0.0127l0.27,1.8838
				C59.0282,54.749,59.1724,53.4668,59.3129,52.8779"/>
		</g>
	</g>
</g>
<g>
	<g>
		<g>
			<defs>
				<rect id="SVGID_53_" x="51.2293" y="55.6777" width="1.2283" height="1.9854"/>
			</defs>
			<clipPath id="SVGID_54_">
				<use xlink:href="#SVGID_53_"  style="overflow:visible;"/>
			</clipPath>
			<path class="st57" d="M51.5617,57.6631c0,0,0.0614-1.4365,0.8959-1.9844c-0.3704,0.0303-0.7838,0.1026-1.2283,0.2383
				L51.5617,57.6631z"/>
		</g>
	</g>
</g>
<g>
	<g>
		<g>
			<defs>
				<rect id="SVGID_55_" x="54.7369" y="57.7949" width="2.2987" height="9.6817"/>
			</defs>
			<clipPath id="SVGID_56_">
				<use xlink:href="#SVGID_55_"  style="overflow:visible;"/>
			</clipPath>
			<path class="st58" d="M57.018,58.0234c0.08-0.1787-0.1637-0.3164-0.2768-0.1601c-2.0102,2.7695-2.0043,9.2578-2.0043,9.2578
				v0.001c0.3666,0.0078,0.7857,0.125,1.1883,0.3535C55.4036,62.5908,56.3736,59.4756,57.018,58.0234"/>
		</g>
	</g>
</g>
<g>
	<g>
		<g>
			<defs>
				<rect id="SVGID_57_" x="62.5669" y="68.1016" width="1.8971" height="1.7314"/>
			</defs>
			<clipPath id="SVGID_58_">
				<use xlink:href="#SVGID_57_"  style="overflow:visible;"/>
			</clipPath>
			<path class="st59" d="M63.8693,69.375c0.4855-0.4209,0.7214-0.9453,0.5265-1.1719c-0.1951-0.2256-0.7487-0.0654-1.2332,0.3555
				c-0.4865,0.4209-0.7223,0.9453-0.5255,1.1719C62.8311,69.9561,63.3838,69.7969,63.8693,69.375"/>
		</g>
	</g>
</g>
<g>
	<g>
		<g>
			<defs>
				<rect id="SVGID_59_" x="54.4073" y="67.8828" width="0.932" height="1.1514"/>
			</defs>
			<clipPath id="SVGID_60_">
				<use xlink:href="#SVGID_59_"  style="overflow:visible;"/>
			</clipPath>
			<path class="st60" d="M55.2632,69.0186c0.1423-0.0997,0.082-0.4288-0.1326-0.7325c-0.2164-0.3086-0.5049-0.4756-0.6473-0.373
				c-0.1405,0.0986-0.08,0.4277,0.1345,0.7334c0.0703,0.1025,0.1501,0.1875,0.2321,0.2549
				c0.0955,0.0322,0.2261,0.0781,0.3879,0.1338C55.2457,69.0303,55.2555,69.0254,55.2632,69.0186"/>
		</g>
	</g>
</g>
<g>
	<g>
		<g>
			<defs>
				<rect id="SVGID_61_" x="54.85" y="68.9023" width="0.3879" height="0.1456"/>
			</defs>
			<clipPath id="SVGID_62_">
				<use xlink:href="#SVGID_61_"  style="overflow:visible;"/>
			</clipPath>
			<path class="st61" d="M55.2379,69.0342c-0.1618-0.0547-0.2944-0.1006-0.3899-0.1328
				C54.9961,69.0225,55.1415,69.0762,55.2379,69.0342"/>
		</g>
	</g>
</g>
<path class="st62" d="M61.4127,46.6182l-0.3471,1.7343c0.4318,0.4698,1.1036,0.9961,2.0881,1.2823
	c0.1599,0.0459,0.3315,0.0869,0.5099,0.1191l-0.3909-2.1885c-0.1462-0.04-0.2866-0.0859-0.4251-0.1367
	C62.3212,47.2354,61.8416,46.9658,61.4127,46.6182"/>
<path class="st62" d="M60.9428,48.9668l-0.3334,1.6641c0.4016,0.5263,1.3141,1.4453,2.9207,1.7207
	c0.193,0.0332,0.3977,0.0576,0.6102,0.0693l-0.3802-2.126c-0.1852-0.0273-0.3607-0.0605-0.5303-0.1015
	C62.2033,49.9414,61.4585,49.4502,60.9428,48.9668"/>
<path class="st62" d="M63.7952,55.5215c-2.0822-0.1572-3.2443-1.2686-3.7727-1.957l-0.269,1.3408
	c0.0175,0.0996,0.2134,0.7715,2.402,0.9375c0.002,0.001,0.0039,0.001,0.0039,0.001c0.9125,0.0693,1.4759-0.0518,1.825-0.2178
	c0.0594-0.0293,0.1111-0.0586,0.1598-0.0869c-0.0595-0.002-0.117-0.003-0.1735-0.0059
	C63.9122,55.5293,63.8537,55.5264,63.7952,55.5215"/>
<path class="st62" d="M62.6527,44.0986l-0.0897-0.5068c-0.0292-0.166-0.1579-0.2256-0.27-0.2266h-0.0117
	c-0.1062,0.003-0.231,0.0606-0.2622,0.2207l-0.0195,0.0928c0.115,0.0899,0.2359,0.1729,0.3587,0.251
	C62.4568,43.9902,62.5533,44.0459,62.6527,44.0986"/>
<path class="st62" d="M62.4519,44.5791c-0.195-0.1016-0.3841-0.2148-0.5615-0.3398l-0.3598,1.7949
	c0.3657,0.334,0.7789,0.6035,1.2332,0.8017c0.1326,0.0577,0.2681,0.1094,0.4075,0.1553l-0.4056-2.2637
	C62.6585,44.6836,62.5552,44.6338,62.4519,44.5791"/>
<path class="st62" d="M64.3567,53.6357l-0.0546-0.3027l-0.0546-0.3047l-0.0146-0.081c-0.078-0.003-0.153-0.0069-0.2291-0.0147
	c-0.1365-0.0097-0.27-0.0244-0.3978-0.043c-1.5695-0.2226-2.5697-1.0039-3.1273-1.6074l-0.23,1.1485l-0.0585,0.2949l-0.0254,0.1211
	c0.0273,0.0508,0.0741,0.126,0.1385,0.2246c0.384,0.5644,1.4583,1.7949,3.5962,1.9346c0.2125,0.0166,0.4338,0.0185,0.6668,0.0078
	c0.0136-0.0469,0.0185-0.0821,0.0205-0.1006L64.3567,53.6357z"/>
<g class="st63">
	<g>
		<g>
			<defs>
				<rect id="SVGID_63_" x="62.2393" y="43.1328" width="2.7335" height="12.8672"/>
			</defs>
			<clipPath id="SVGID_64_">
				<use xlink:href="#SVGID_63_"  style="overflow:visible;"/>
			</clipPath>
			<polygon class="st64" points="64.8442,54.2393 64.693,53.5049 64.6863,53.4766 64.6317,53.207 64.5693,52.9043 64.1208,50.7363 
				63.9707,50.0039 63.9259,49.7871 63.4433,47.4502 63.3595,47.0469 62.8788,44.7188 62.7638,44.1572 62.5903,43.3193 
				62.2393,43.1338 62.2725,43.3652 62.3524,43.9297 62.446,44.5791 62.7677,46.8359 62.8516,47.4277 63.1664,49.6328 
				63.2464,50.1895 63.5534,52.3477 63.6314,52.8857 63.688,53.292 63.7338,53.6064 63.7786,53.9219 63.9317,55.002 
				64.0077,55.5264 64.0214,55.6191 64.0585,55.8867 64.075,56.001 64.8636,55.4971 64.9729,54.8633 			"/>
		</g>
	</g>
</g>
<path class="st65" d="M65.1386,54.8613l-0.1287-0.7031l-0.1326-0.7236l-0.0478-0.2637l-0.0058-0.0352l-0.0556-0.3017l-1.704-9.335
	c-0.0702-0.3886-0.3821-0.6513-0.7769-0.6543c-0.3929-0.0029-0.7098,0.2559-0.7858,0.6436l-1.7362,8.8467l-0.0575,0.2939
	l-0.0575,0.292l-0.3783,1.9268l-0.0039,0.0175v0.0166c-0.0107,0.1299-0.0039,1.2754,2.8875,1.4825
	c0.002,0.0009,0.0039,0.0009,0.0049,0.0009c1.1903,0.086,2.0482-0.1132,2.5512-0.5908c0.4231-0.3984,0.427-0.8418,0.427-0.8906
	V54.8613L65.1386,54.8613z M62.1925,55.8447c-2.1895-0.1562-2.3883-0.8301-2.4059-0.9287l0.2631-1.3408
	c0.5314,0.6865,1.6982,1.793,3.7806,1.9404c0.0584,0.0039,0.1179,0.0078,0.1774,0.0108c0.0565,0.0029,0.1131,0.0039,0.1716,0.0049
	c-0.0468,0.0292-0.1004,0.0595-0.1579,0.0888c-0.349,0.168-0.9115,0.2901-1.823,0.2246H62.1925z M62.0112,43.5879
	c0.0302-0.1602,0.153-0.2188,0.2612-0.2227c0.0049,0,0.0088-0.0009,0.0127-0.0009c0.1082,0.0009,0.2389,0.0615,0.27,0.2275
	l0.0916,0.5059c-0.0994-0.0528-0.196-0.1075-0.2925-0.168c-0.1228-0.0772-0.2437-0.1602-0.3597-0.249L62.0112,43.5879z
	 M62.446,44.5801c0.1034,0.0517,0.2086,0.1015,0.3158,0.1465l0.4115,2.2617c-0.1395-0.0449-0.2749-0.0977-0.4056-0.1524
	c-0.4562-0.1982-0.8715-0.4648-1.238-0.7978l0.3529-1.7949C62.0619,44.3672,62.25,44.4775,62.446,44.5801 M62.8516,47.4268
	c0.1394,0.0507,0.2827,0.0966,0.427,0.1367l0.3997,2.1875c-0.1804-0.0322-0.351-0.0713-0.5128-0.1182
	c-0.9826-0.2812-1.6592-0.8047-2.092-1.2715l0.3412-1.7363C61.8455,46.9668,62.3261,47.2363,62.8516,47.4268 M63.2464,50.1895
	c0.1686,0.041,0.3461,0.0732,0.5303,0.1015l0.387,2.125c-0.2125-0.0127-0.4163-0.0361-0.6102-0.0683
	c-1.6075-0.2686-2.522-1.1836-2.9275-1.71l0.3275-1.665C61.4712,49.4551,62.2179,49.9414,63.2464,50.1895 M60.2721,52.4404
	l0.2271-1.1504c0.5606,0.6026,1.5628,1.3799,3.1322,1.5957c0.1287,0.0186,0.2613,0.0332,0.3997,0.042
	c0.0741,0.0059,0.1521,0.0108,0.2301,0.0127l0.0137,0.0811l0.0555,0.3066l0.0556,0.3018l0.233,1.2764
	c-0.002,0.0185-0.0068,0.0546-0.0205,0.1005c-0.232,0.0098-0.4543,0.0078-0.6648-0.0039c-2.1408-0.1328-3.2181-1.3584-3.6031-1.9218
	c-0.0663-0.0977-0.1111-0.1748-0.1404-0.2237l0.0234-0.1211L60.2721,52.4404z"/>
<g class="st63">
	<g>
		<g>
			<defs>
				<rect id="SVGID_65_" x="61.9352" y="55.8965" width="13.9385" height="13.9629"/>
			</defs>
			<clipPath id="SVGID_66_">
				<use xlink:href="#SVGID_65_"  style="overflow:visible;"/>
			</clipPath>
			<path class="st66" d="M75.8561,63.376c-0.2749,3.8457-3.6109,6.7392-7.4479,6.4648c-3.84-0.2744-6.7304-3.6152-6.4545-7.4619
				c0.2739-3.8447,3.6089-6.7383,7.4489-6.4648C73.2396,56.1895,76.13,59.5303,75.8561,63.376"/>
		</g>
	</g>
</g>
<g class="st63">
	<g>
		<g>
			<defs>
				<rect id="SVGID_67_" x="50.1122" y="56.3877" width="6.2234" height="10.7324"/>
			</defs>
			<clipPath id="SVGID_68_">
				<use xlink:href="#SVGID_67_"  style="overflow:visible;"/>
			</clipPath>
			<path class="st67" d="M56.3122,61.9746c-0.2105,2.9609-1.7664,5.2647-3.4705,5.1426c-1.7059-0.1221-2.9167-2.6221-2.7062-5.583
				c0.2125-2.961,1.7664-5.2627,3.4724-5.1416C55.314,56.5146,56.5247,59.0146,56.3122,61.9746"/>
		</g>
	</g>
</g>
<path class="st68" d="M66.3678,70.0889c-1.237-0.4346-2.3484-1.1866-3.2297-2.2051c-1.3336-1.544-1.9887-3.5156-1.8445-5.5518
	c0.1462-2.0361,1.0743-3.8935,2.6146-5.2295c1.5402-1.3369,3.5076-1.9931,5.5401-1.8486c2.0325,0.1455,3.8867,1.0762,5.2223,2.6182
	c1.3346,1.5429,1.9887,3.5156,1.8435,5.5517c-0.1452,2.0352-1.0733,3.8936-2.6136,5.2295c-1.5402,1.336-3.5075,1.9932-5.5401,1.8477
	C67.6712,70.4512,67.0025,70.3105,66.3678,70.0889 M71.0013,56.915c-0.5244-0.1845-1.0781-0.2998-1.6465-0.3408
	c-3.4695-0.248-6.4934,2.377-6.7421,5.8535c-0.2066,2.9024,1.588,5.4942,4.2065,6.4151c0.5167,0.1816,1.0645,0.2978,1.6358,0.3388
	c1.6807,0.1202,3.3067-0.4218,4.5799-1.5273c1.2741-1.1045,2.0413-2.6416,2.1622-4.3252c0.1189-1.6846-0.4212-3.3135-1.5247-4.5889
	C72.9423,57.8965,72.0249,57.2744,71.0013,56.915"/>
<path class="st68" d="M52.1457,67.6406c-1.7431-0.6113-2.8837-3.1377-2.6692-6.1543c0.1112-1.5459,0.5674-2.9834,1.2868-4.0508
	c0.7935-1.1738,1.8191-1.7792,2.8914-1.7021c1.0704,0.0752,2.0004,0.8213,2.6184,2.0977c0.5625,1.1572,0.8102,2.6455,0.6981,4.1923
	c-0.2399,3.376-2.0746,5.9034-4.1763,5.753C52.5708,67.7598,52.3523,67.7148,52.1457,67.6406 M53.8614,57.1162
	c-0.1013-0.0342-0.2007-0.0566-0.3022-0.0635c-0.5693-0.041-1.1893,0.3692-1.7001,1.125c-0.5928,0.875-0.969,2.084-1.0616,3.4014
	c-0.0965,1.3174,0.1062,2.5674,0.5683,3.5195c0.3958,0.8213,0.9534,1.3145,1.5227,1.3555c0.5713,0.041,1.1913-0.3682,1.7001-1.125
	c0.5928-0.876,0.971-2.084,1.0645-3.4014c0.0936-1.3173-0.1091-2.5673-0.5693-3.5205
	C54.7563,57.7324,54.3216,57.2783,53.8614,57.1162"/>
<path class="st68" d="M55.7614,63.4316c-0.2739-0.0966-0.4611-0.3662-0.4396-0.6718c0.0254-0.3653,0.3422-0.6397,0.7058-0.6123
	l6.2294,0.4453c0.3627,0.0273,0.6376,0.3427,0.6112,0.708c-0.0264,0.3642-0.3422,0.6396-0.7058,0.6123l-6.2284-0.4463
	C55.8736,63.4629,55.817,63.4512,55.7614,63.4316"/>
<path class="st68" d="M75.0919,64.2041c-0.2749-0.0967-0.4621-0.3682-0.4406-0.6728c0.0254-0.3643,0.3431-0.6397,0.7078-0.6114
	l6.5588,0.4697c0.3646,0.0254,0.6376,0.3428,0.6122,0.7081c-0.0274,0.3632-0.3432,0.6386-0.7059,0.6113l-6.5607-0.4697
	C75.203,64.2354,75.1455,64.2236,75.0919,64.2041"/>
<path class="st38" d="M64.4659,69.8662c0.6278-0.4551,0.9739-1.0498,0.8608-1.6191c-0.1902-0.961-1.6164-1.4873-3.1829-1.1748
	c-0.8013,0.1601-1.4847,0.5068-1.9341,0.9375h-0.001c-2.5629,1.539-3.2872,0.4707-3.2872,0.4707
	c-0.1785-0.3721-0.5323-0.7471-1.0129-1.0215c-0.4026-0.2285-0.8218-0.3457-1.1883-0.3535
	c-0.4357-0.0127-0.7955,0.1308-0.9612,0.4238c-0.3071,0.54,0.1598,1.3848,1.0402,1.8857c0.1764,0.1016,0.3548,0.1788,0.5333,0.2364
	c0.079,0.0322,0.1588,0.0625,0.2408,0.0927C55.5733,69.7441,61.6242,71.7344,64.4659,69.8662 M63.1479,68.541
	c0.4855-0.4219,1.0372-0.581,1.2321-0.3535c0.196,0.2246-0.0409,0.75-0.5245,1.1709c-0.4865,0.4219-1.0392,0.582-1.2341,0.3545
	C62.4265,69.4873,62.6624,68.9629,63.1479,68.541 M55.2457,69.0029c-0.0078,0.0049-0.0175,0.0108-0.0253,0.0147
	c-0.0975,0.0429-0.2418-0.0117-0.388-0.1328c-0.0819-0.0655-0.1618-0.1514-0.233-0.2549c-0.2154-0.3067-0.2739-0.6358-0.1336-0.7334
	c0.1424-0.1026,0.4308,0.0644,0.6473,0.3721C55.3276,68.5732,55.387,68.9023,55.2457,69.0029"/>
<path class="st69" d="M63.8537,69.3584c0.4874-0.4229,0.7233-0.9453,0.5264-1.1729c-0.195-0.2255-0.7467-0.0664-1.2321,0.3555
	c-0.4855,0.4209-0.7214,0.9453-0.5265,1.1719S63.3683,69.7803,63.8537,69.3584"/>
<path class="st69" d="M55.1112,68.2676c-0.2145-0.3067-0.503-0.4737-0.6454-0.3731c-0.1423,0.1016-0.0819,0.4307,0.1326,0.7354
	c0.0722,0.1025,0.154,0.1885,0.234,0.2549c0.1462,0.1211,0.2925,0.1748,0.388,0.1318c0.0097-0.0039,0.0175-0.0088,0.0234-0.0137
	C55.3861,68.9023,55.3276,68.5742,55.1112,68.2676"/>
<polygon class="st62" points="62.6936,39.2764 63.7387,38.7031 62.7307,38.1982 "/>
<polygon class="st62" points="62.3622,38.1836 61.2976,38.6191 62.3251,39.2666 "/>
<polygon class="st62" points="62.3758,37.8184 62.3758,37.8193 62.4519,37.8203 "/>
<path class="st62" d="M63.4735,38.1592l0.2145,0.1054l-0.9047-1.6328c-0.0136,0.3819-0.0273,0.7735-0.0389,1.1621
	C62.988,37.916,63.2337,38.0391,63.4735,38.1592"/>
<path class="st62" d="M62.4167,36.6094l-1.0411,1.5791c0.3294-0.1348,0.6667-0.2715,1.0002-0.4082
	C62.3895,37.3896,62.4031,36.9941,62.4167,36.6094"/>
<path class="st62" d="M62.6137,41.0684l0.8248-1.0772c-0.2651,0.1445-0.5353,0.291-0.8033,0.4356L62.6137,41.0684z"/>
<path class="st62" d="M62.2471,41.0557c0.0059-0.2119,0.0156-0.4278,0.0215-0.6416c-0.2574-0.1621-0.5177-0.3282-0.7702-0.4893
	L62.2471,41.0557z"/>
<path class="st7" d="M60.8141,38.749l0.3685,0.2334c0.3938,0.2471,0.7994,0.503,1.1971,0.7569
	c0.0331,0.0195,0.0654,0.0302,0.0994,0.0341c0.0059,0.001,0.0079,0.001,0.0118,0.001c0.0389,0.001,0.078-0.0098,0.1169-0.0293
	c0.1131-0.0654,0.2321-0.1289,0.3471-0.1924l1.2576-0.6884c0.0175-0.0098,0.0663-0.0372,0.0916-0.1006
	c0.0234-0.0557,0.0185-0.1123-0.0147-0.1719c-0.503-0.9092-1.0051-1.8135-1.4905-2.6914c-0.0225-0.042-0.0585-0.0938-0.1297-0.1162
	l-0.0108-0.0039l-0.0487-0.002l-0.0263,0.0039c-0.0751,0.0205-0.116,0.0811-0.1316,0.1026
	c-0.4426,0.6757-0.8949,1.3613-1.3336,2.0293l-0.3647,0.5537c-0.035,0.0537-0.0468,0.1054-0.035,0.1552
	C60.7244,38.6582,60.7478,38.707,60.8141,38.749 M62.7833,36.6318l0.9047,1.6338l-0.2125-0.1045
	c-0.2418-0.1211-0.4874-0.2441-0.7331-0.3662C62.7579,37.4072,62.7697,37.0146,62.7833,36.6318 M62.6936,39.2764l0.037-1.0772
	l1.008,0.5039L62.6936,39.2764z M62.3758,37.8184l0.0761,0.0029l-0.0761-0.001V37.8184z M62.4167,36.6094
	c-0.0136,0.3857-0.0273,0.7793-0.0399,1.1719c-0.3334,0.1347-0.6717,0.2724-1.0003,0.4072L62.4167,36.6094z M62.3622,38.1836
	l-0.0371,1.083l-1.0275-0.6465L62.3622,38.1836z"/>
<path class="st7" d="M64.1442,39.2373c-0.0565-0.0117-0.1033,0.0078-0.1385,0.0264l-0.5624,0.3056
	c-0.3227,0.1758-0.6542,0.3555-0.9798,0.5323c-0.3743-0.2364-0.7526-0.4786-1.1191-0.711l-0.2418-0.1543
	c-0.0448-0.0273-0.0896-0.0566-0.1365-0.0849c-0.0487-0.0313-0.1092-0.0371-0.1657-0.0166
	c-0.0526,0.0215-0.0916,0.0644-0.1092,0.1201c-0.0224,0.082,0.0186,0.1445,0.0331,0.167c0.5128,0.7734,1.0197,1.541,1.5121,2.2832
	c0.0156,0.0244,0.0487,0.0742,0.1121,0.1045l0.0146,0.0078l0.0771,0.0019l0.0127-0.0039c0.0633-0.0195,0.0984-0.0595,0.1209-0.0898
	c0.4153-0.542,0.8383-1.0947,1.2478-1.6289l0.2983-0.3926c0.0448-0.0576,0.0896-0.1162,0.1355-0.1748
	c0.039-0.0537,0.0488-0.1191,0.0264-0.1797C64.2592,39.2939,64.2086,39.251,64.1442,39.2373 M62.6137,41.0684l0.0215-0.6416
	c0.2671-0.1455,0.5382-0.2911,0.8013-0.4366L62.6137,41.0684z M62.2686,40.4141c-0.0078,0.2138-0.0166,0.4306-0.0215,0.6425
	l-0.7487-1.1308C61.7519,40.0859,62.0131,40.252,62.2686,40.4141"/>
<path class="st7" d="M66.0656,39.083c-0.1062-0.0107-0.2009,0.0674-0.2105,0.1748c-0.0108,0.1055,0.0673,0.2002,0.1725,0.211
	c0.1072,0.0117,0.2008-0.0674,0.2115-0.1749C66.2499,39.1875,66.172,39.0947,66.0656,39.083"/>
<path class="st7" d="M60.0634,42.6494c-0.1053-0.0107-0.2008,0.0664-0.2105,0.1748c-0.0127,0.1045,0.0653,0.2002,0.1716,0.2119
	c0.1062,0.0098,0.2007-0.0683,0.2124-0.1748C60.2467,42.7549,60.1688,42.6611,60.0634,42.6494"/>
<path class="st65" d="M59.2738,40.8525c-0.0526-0.0625-0.1481-0.0722-0.2125-0.0205l-0.2232,0.1826l-0.1843-0.2226
	c-0.0526-0.0645-0.1472-0.0742-0.2125-0.0205c-0.0634,0.0537-0.0731,0.1474-0.0215,0.2129l0.1833,0.2226l-0.2222,0.1836
	c-0.0644,0.0547-0.0741,0.1494-0.0215,0.2139c0.0273,0.0312,0.0643,0.0518,0.1043,0.0557c0.0399,0.0039,0.078-0.0079,0.1101-0.0342
	l0.2213-0.1836l0.1843,0.2236c0.0263,0.0322,0.0634,0.0498,0.1033,0.0537c0.0399,0.0039,0.078-0.0068,0.1092-0.0342
	c0.0633-0.0527,0.0741-0.1464,0.0215-0.2128L59.0302,41.25l0.2222-0.1836C59.3167,41.0137,59.3264,40.918,59.2738,40.8525"/>
<path class="st65" d="M67.0805,36.7861l0.2262-0.1777c0.0663-0.0518,0.078-0.1475,0.0273-0.2139
	c-0.0516-0.0654-0.1471-0.0771-0.2125-0.0254l-0.2281,0.1788l-0.1774-0.2276c-0.0507-0.0654-0.1462-0.0781-0.2125-0.0254
	c-0.0644,0.0518-0.078,0.1465-0.0254,0.2129l0.1774,0.2266l-0.2261,0.1777c-0.0663,0.0527-0.0781,0.1455-0.0274,0.2129
	c0.0274,0.0342,0.0644,0.0547,0.1053,0.0586c0.037,0.0029,0.0761-0.0068,0.1072-0.0313l0.2262-0.1777l0.1794,0.2266
	c0.0254,0.0342,0.0624,0.0547,0.1033,0.0586c0.038,0.0039,0.077-0.0069,0.1072-0.0323c0.0663-0.0507,0.078-0.1455,0.0273-0.2119
	L67.0805,36.7861z"/>
<path class="st65" d="M64.4328,41.7119c-0.0663,0.0527-0.0781,0.1475-0.0264,0.2129l0.1774,0.2285l-0.2271,0.1778
	c-0.0653,0.0517-0.077,0.1464-0.0264,0.2128c0.0264,0.0332,0.0654,0.0547,0.1043,0.0586c0.039,0.0039,0.078-0.0078,0.1072-0.0322
	l0.2282-0.1777l0.1774,0.2275c0.0254,0.0342,0.0643,0.0537,0.1053,0.0576c0.037,0.0049,0.0741-0.0068,0.1062-0.0293
	c0.0653-0.0537,0.078-0.1484,0.0244-0.2138l-0.1774-0.2285l0.2281-0.1778c0.0644-0.0517,0.0761-0.1465,0.0254-0.2119
	c-0.0517-0.0664-0.1452-0.0781-0.2125-0.0264l-0.2262,0.1778l-0.1774-0.2276C64.5946,41.6719,64.4981,41.6611,64.4328,41.7119"/>
<path class="st65" d="M65.0216,36.5791c0.1053,0.0117,0.2009-0.0664,0.2106-0.1738c0.0117-0.1055-0.0664-0.2012-0.1716-0.211
	c-0.1072-0.0117-0.2027,0.0674-0.2125,0.1739C64.8383,36.4756,64.9163,36.5693,65.0216,36.5791"/>
<path class="st65" d="M59.46,38.4375c-0.1062-0.0117-0.2007,0.0664-0.2105,0.1738c-0.0108,0.1055,0.0673,0.2012,0.1725,0.211
	c0.1073,0.0117,0.2018-0.0674,0.2116-0.1739C59.6443,38.542,59.5663,38.4492,59.46,38.4375"/>
<line class="st43" x1="67.3456" y1="71.1143" x2="67.5319" y2="71.9678"/>
<path class="st39" d="M77.7025,85.5684c-0.6532-0.3116-1.2965-0.0635-1.6767,0.5205c-0.1706,0.2578-0.3383,0.5175-0.506,0.7744
	c-0.2105,0.3222-0.4318,0.623-0.5381,1.001c-0.0556,0.1953-0.0673,0.4082-0.0712,0.6103c0,0.0098-0.002,0.0303-0.0039,0.0537
	c0.0019-0.0019,0.0019,0.0059-0.002,0.0293c-0.0019,0.0391-0.0039,0.0791,0.0039,0.086c-0.0107-0.0098-0.0146-0.0225-0.0166-0.0391
	c-0.0039,0.0137-0.0088,0.0283-0.0146,0.0469c-0.0196,0.0595-0.038,0.1152-0.0585,0.1738
	c-0.0916,0.0576-0.1755,0.1309-0.2496,0.2197c-0.4134,0.4932-0.4602,1.3155,0.076,1.7569c0.7155,0.5888,1.242,1.6533,1.7119,0.8291
	c0.1248-0.2149,0.6824-1.6875,0.7663-1.9219c0.0682-0.1944,0.152-0.3887,0.2007-0.5879c0.0468-0.1895,0.0663-0.3906,0.0683-0.5898
	c0.0468-0.0635,0.0857-0.1417,0.1267-0.2042c0.233-0.3593,0.468-0.7187,0.702-1.0761
	C78.5779,86.7021,78.2719,85.8389,77.7025,85.5684"/>
<path class="st39" d="M74.9067,88.5283c-0.0059,0.0049-0.0176,0.042-0.0147,0.0762c0.0068-0.0195,0.0108-0.0342,0.0127-0.0469
	C74.9047,88.5498,74.9067,88.5391,74.9067,88.5283"/>
<polygon class="st40" points="74.8462,89.7617 73.9737,91.8662 75.0489,90.8916 75.9254,92.4063 76.8134,90.4102 "/>
<path class="st38" d="M76.1427,92.5029c-0.037,0.0811-0.115,0.1358-0.2046,0.1407c-0.0898,0.0058-0.1736-0.0411-0.2184-0.1172
	l-0.7292-1.2608l-0.8559,0.7764c-0.0829,0.0752-0.2056,0.082-0.2983,0.0176c-0.0897-0.0625-0.1248-0.1836-0.0819-0.2852
	l0.8715-2.1045c0.002-0.0019,0.002-0.0039,0.002-0.0039c0.0516-0.1133,0.1774-0.1689,0.2924-0.1299l1.9683,0.6475
	c0.0634,0.0215,0.116,0.0684,0.1433,0.1309c0.0263,0.0615,0.0263,0.1328,0,0.1923L76.1427,92.5029z M74.5995,90.9766l0.2896-0.2618
	c0.0526-0.0478,0.1258-0.0683,0.1969-0.0576c0.0703,0.0098,0.1327,0.0528,0.1677,0.1153l0.6434,1.1093l0.5908-1.3281l-1.5071-0.498
	L74.5995,90.9766z"/>
<path class="st40" d="M59.4299,73.9941c-0.739,0.4034-1.6632,0.1309-2.0668-0.6074c-0.4026-0.7392-0.1306-1.666,0.6073-2.0693
	c0.738-0.4033,1.6632-0.1319,2.0658,0.6084C60.4398,72.6641,60.1668,73.5918,59.4299,73.9941"/>
<path class="st7" d="M58.2073,73.9775c-0.1481-0.0566-0.8189-0.3125-0.9553-0.9238c-0.0702-0.3144,0.0331-0.5898,0.0819-0.7236
	c0.0351-0.0869,0.0722-0.1651,0.1151-0.2363c0.4621,0.1943,0.8091,0.5292,1.2556,0.958c0.3314,0.3193,0.5595,0.538,0.7409,0.8632
	c-0.0936,0.0596-0.2008,0.1114-0.3236,0.1455C58.7182,74.1738,58.375,74.043,58.2073,73.9775"/>
<path class="st38" d="M58.2142,74.2637c-0.039-0.0137-0.0732-0.0264-0.1004-0.0381c-0.6141-0.2344-1.0138-0.6299-1.1211-1.1123
	c-0.0876-0.3936,0.041-0.7305,0.0955-0.876c0.0351-0.0967,0.082-0.1885,0.1346-0.2783c0.0683-0.1113,0.2086-0.1572,0.3285-0.1074
	c0.5079,0.2138,0.8735,0.5654,1.3366,1.0127c0.3412,0.3271,0.5869,0.5644,0.7876,0.9228c0.0683,0.1221,0.0312,0.2764-0.0857,0.3525
	c-0.1248,0.0801-0.2574,0.1407-0.3977,0.1797C58.7806,74.4316,58.4228,74.3379,58.2142,74.2637 M57.5717,72.4512
	c-0.0448,0.1211-0.1121,0.3232-0.0634,0.5449c0.0673,0.3096,0.3442,0.5625,0.7926,0.7353l-0.0936,0.2461l0.0936-0.2461
	c0.1481,0.0577,0.4289,0.1631,0.7477,0.0743c0.002-0.001,0.0049-0.001,0.0069-0.001c-0.1385-0.1807-0.3091-0.3457-0.5324-0.5615
	C58.1645,72.8994,57.8867,72.6338,57.5717,72.4512"/>
<path class="st38" d="M58.1079,74.3438c-0.4036-0.1417-0.7565-0.4268-0.9778-0.8301c-0.4728-0.8662-0.151-1.9571,0.7137-2.4297
	c0.8637-0.4727,1.9517-0.1524,2.4244,0.7148c0.4719,0.8653,0.1511,1.9561-0.7136,2.4278
	C59.0944,74.4775,58.57,74.5059,58.1079,74.3438 M59.1159,71.4678c-0.3236-0.1153-0.6931-0.0967-1.0197,0.082
	c-0.6083,0.333-0.8334,1.0996-0.502,1.71c0.3324,0.6093,1.0987,0.8359,1.7069,0.5029c0.6093-0.333,0.8345-1.1006,0.5031-1.71
	C59.6502,71.7676,59.4006,71.5664,59.1159,71.4678"/>
<path class="st38" d="M78.9699,85.0244c-0.1443,0.0459-0.2886,0.0957-0.4279,0.1572c-0.0166,0.0518-0.0439,0.0997-0.0751,0.1446
	c-0.002,0.0049-0.0059,0.0097-0.0078,0.0146l-2.5054,6.4424L75.2673,90.75c-0.0448-0.0674-0.117-0.1104-0.195-0.1172
	c-0.08-0.0068-0.1579,0.0215-0.2145,0.0791l-0.1911,0.1944l1.2713-5.7051c-0.2164,0.1054-0.4173-0.1533-0.6513-0.0928l-0.429,1.8965
	l-1.0723,4.8428c-0.0409,0.1171,0.0059,0.247,0.1111,0.3134c0.1034,0.0635,0.2418,0.0479,0.3276-0.04l0.7837-0.8057L75.7957,92.5
	c0.0546,0.082,0.1501,0.127,0.2486,0.1152c0.0984-0.0107,0.1823-0.0742,0.2193-0.166l2.7725-7.1357l0.0019-0.0039
	C79.0751,85.21,79.0478,85.0967,78.9699,85.0244"/>
<g>
	<path class="st5" d="M17.8964,30.4377c-0.21,0.121-0.5248,0.302-0.9428,0.5438c-0.2424-0.4205-0.6066-1.0532-1.0933-1.8981
		c-0.2099,0.1219-0.5266,0.3048-0.9511,0.5495c0.2424,0.4196,0.6075,1.0532,1.0942,1.8981
		c-0.2108,0.1219-0.5256,0.3028-0.9446,0.5458c-0.2041-0.3567-0.5129-0.8927-0.9267-1.609
		c-0.1703-0.2966-0.3819-0.6646-0.6364-1.1067c-0.2575-0.4459-0.556-0.965-0.8977-1.5565
		c-0.0739-0.1295-0.0917-0.2675-0.0513-0.4167c0.0385-0.1426,0.1238-0.2524,0.2559-0.3292c0.4208-0.242,1.0524-0.6076,1.8957-1.0953
		c0.1284-0.074,0.2662-0.0927,0.4122-0.057c0.1443,0.0423,0.2529,0.1268,0.3278,0.2564
		C15.9859,27.1165,16.8067,28.5405,17.8964,30.4377z M15.3156,28.1373c-0.0225-0.0385-0.0543-0.0939-0.0974-0.1672
		c-0.1002-0.1755-0.2508-0.4374-0.4512-0.7838c-0.2108,0.1219-0.5276,0.3038-0.9502,0.5486
		c0.1198,0.2112,0.3023,0.5285,0.5485,0.9518C14.579,28.5629,14.8958,28.3801,15.3156,28.1373z"/>
	<path class="st5" d="M19.8507,26.1423c0.1274-0.0731,0.2662-0.0909,0.415-0.0504c0.1415,0.0376,0.2511,0.123,0.3278,0.2573
		c0.2415,0.4196,0.6075,1.0532,1.0942,1.8981c-0.2099,0.121-0.5247,0.3028-0.9445,0.5457
		c-0.2415-0.4214-0.6066-1.0541-1.0934-1.8989c-0.2099,0.1209-0.5266,0.3038-0.9502,0.5494
		c0.2424,0.4196,0.6075,1.0532,1.0933,1.8981c-0.2099,0.121-0.5248,0.3029-0.9427,0.5458
		c-0.2434-0.4205-0.6065-1.0532-1.0942-1.8981c-0.1208-0.2112-0.3023-0.5267-0.5439-0.9463
		c-0.1216-0.2102-0.2733-0.4731-0.4567-0.7913c-0.1816-0.3173-0.3951-0.6862-0.6375-1.1058
		c0.2108-0.1219,0.5257-0.3038,0.9446-0.5458c0.3158-0.1838,0.7918-0.4575,1.4253-0.8242c0.1275-0.0732,0.2642-0.0937,0.4104-0.0579
		c0.1443,0.0432,0.2547,0.1277,0.3287,0.2572c0.1825,0.3173,0.4577,0.7932,0.8227,1.4278c0.073,0.1286,0.0936,0.2665,0.0579,0.412
		C20.0644,25.9594,19.9781,26.0692,19.8507,26.1423z M19.1051,25.9487c-0.0225-0.0385-0.0543-0.0949-0.0974-0.168
		c-0.1002-0.1756-0.2518-0.4365-0.4521-0.7839c-0.2099,0.121-0.5266,0.3029-0.9492,0.5495
		c0.1198,0.2102,0.3023,0.5275,0.5476,0.9509C18.3686,26.3734,18.6853,26.1906,19.1051,25.9487z"/>
	<path class="st5" d="M23.2888,22.2616c-0.4198,0.2419-0.7346,0.4229-0.9435,0.5438c1.0942,1.9009,1.8224,3.1654,2.1856,3.7962
		c-0.4741,0.2748-0.7918,0.4586-0.9492,0.5495c-1.0924-1.8971-1.8206-3.1616-2.1866-3.7962
		c-0.4713,0.2728-0.7844,0.4538-0.9436,0.5447c-0.1367-0.2356-0.2489-0.4327-0.3407-0.5914
		c-0.0917-0.1586-0.1591-0.276-0.2031-0.3539c1.4197-0.8213,2.3671-1.3681,2.8384-1.64
		C22.9865,21.7349,23.169,22.0504,23.2888,22.2616z"/>
	<path class="st5" d="M28.3582,19.9667c-0.0618-0.1071-0.1536-0.2647-0.2753-0.4759c-0.2099,0.1209-0.5266,0.3038-0.9502,0.5485
		c0.366,0.6346,0.9117,1.5846,1.6418,2.85c0.2137-0.1238,0.5304-0.3067,0.9502-0.5486c-0.1236-0.2141-0.3061-0.5322-0.5485-0.951
		c-0.1069,0.06-0.2652,0.1519-0.4751,0.2738c-0.1208-0.2112-0.3024-0.5267-0.5439-0.9463c0.3158-0.1828,0.7899-0.4575,1.4197-0.8205
		c0.1207,0.2113,0.3023,0.5267,0.5438,0.9463c0.1826,0.3173,0.4568,0.7913,0.819,1.4222c0.0768,0.1333,0.0964,0.2694,0.0589,0.413
		c-0.0413,0.1483-0.1257,0.2599-0.2541,0.3349c-0.4226,0.2448-1.0561,0.6095-1.8938,1.0952
		c-0.1331,0.076-0.2717,0.0938-0.416,0.0514c-0.1462-0.0357-0.2585-0.1202-0.3353-0.2535
		c-0.1816-0.3173-0.4568-0.7932-0.8218-1.4278c-0.1517-0.2618-0.3389-0.5876-0.5635-0.979
		c-0.2284-0.3971-0.4961-0.8608-0.8004-1.3884c-0.0739-0.1295-0.0917-0.2675-0.0523-0.4176
		c0.0385-0.1408,0.1238-0.2515,0.2578-0.3283c0.4198-0.242,1.0514-0.6067,1.8948-1.0943c0.1284-0.075,0.2642-0.0946,0.4113-0.0589
		c0.1433,0.0423,0.2538,0.1287,0.3278,0.2583c0.1245,0.2149,0.307,0.5313,0.5485,0.9518
		C29.0909,19.5429,28.7761,19.7238,28.3582,19.9667z"/>
	<path class="st5" d="M35.0018,20.5517c-0.2099,0.121-0.5247,0.302-0.9436,0.5448c-0.2424-0.4205-0.6075-1.0532-1.0942-1.8981
		c-0.2099,0.121-0.5266,0.3048-0.9492,0.5495c0.2414,0.4196,0.6065,1.0532,1.0933,1.8981c-0.2099,0.121-0.5248,0.3028-0.9436,0.5457
		c-0.2059-0.3566-0.513-0.8927-0.9267-1.6099c-0.1713-0.2957-0.3819-0.6636-0.6365-1.1058
		c-0.2583-0.4458-0.5559-0.965-0.8976-1.5564c-0.0749-0.1296-0.0926-0.2675-0.0531-0.4167
		c0.0394-0.1426,0.1238-0.2524,0.2577-0.3293c0.4189-0.2428,1.0504-0.6076,1.8957-1.0952c0.1274-0.074,0.2642-0.0937,0.4103-0.0579
		c0.1443,0.0432,0.2539,0.1277,0.3287,0.2572C33.0904,17.2314,33.9104,18.6545,35.0018,20.5517z M32.4201,18.2521
		c-0.0216-0.0385-0.0553-0.0938-0.0964-0.1671c-0.1011-0.1755-0.2528-0.4375-0.4531-0.7838
		c-0.2099,0.121-0.5266,0.3038-0.9502,0.5486c0.1216,0.2112,0.3042,0.5275,0.5485,0.9518
		C31.6844,18.6788,32.0012,18.4951,32.4201,18.2521z"/>
	<path class="st5" d="M38.2466,17.415c0.2414,0.4215,0.4231,0.7369,0.5448,0.9463c-0.9465,0.5466-1.5791,0.9114-1.8957,1.0942
		c-0.3505,0.2035-0.5867,0.3404-0.7066,0.4098c-0.1199,0.0685-0.1977,0.1144-0.237,0.1369
		c-0.6843-1.1885-1.2543-2.1769-1.7074-2.9664c-0.4549-0.7885-0.7957-1.3827-1.0231-1.776c0.476-0.2748,0.79-0.4576,0.9436-0.5458
		c1.0924,1.8963,1.8206,3.1616,2.1866,3.7962C37.1952,18.0236,37.8268,17.657,38.2466,17.415z"/>
	<path class="st5" d="M42.0361,15.2255c0.2434,0.4205,0.424,0.736,0.5448,0.9453c-0.9465,0.5476-1.5781,0.9124-1.8948,1.0961
		c-0.3514,0.2026-0.5867,0.3395-0.7066,0.4088c-0.1199,0.0675-0.1996,0.1145-0.238,0.1369
		c-0.6843-1.1875-1.2543-2.1769-1.7074-2.9663c-0.4549-0.7886-0.7956-1.3818-1.0222-1.7761
		c0.4742-0.2747,0.7891-0.4576,0.9428-0.5458c1.0933,1.8972,1.8206,3.1616,2.1866,3.7963
		C40.9847,15.8332,41.6163,15.4684,42.0361,15.2255z"/>
	<path class="st5" d="M42.2891,11.2794c0.2425,0.4215,0.425,0.7379,0.5486,0.9518c0.6335-0.3656,1.1076-0.6404,1.4253-0.8233
		c0.2415,0.4215,0.4222,0.7369,0.5438,0.9463c-0.6334,0.3656-1.1085,0.6404-1.4253,0.8223c0.2415,0.4215,0.424,0.7388,0.5485,0.9519
		c0.8435-0.4867,1.4741-0.8515,1.8939-1.0943c0.2434,0.4205,0.424,0.7359,0.5447,0.9453c-0.8387,0.4858-1.4703,0.8505-1.8948,1.0952
		c-0.4198,0.2429-0.7346,0.4238-0.9436,0.5448c-0.2415-0.4205-0.4231-0.7359-0.5447-0.9453
		c-0.1236-0.2149-0.2312-0.4008-0.3221-0.5594c-0.0917-0.1587-0.1666-0.2891-0.2255-0.3924
		c-0.2752-0.4769-0.4559-0.7914-0.5439-0.9463c-0.2742-0.475-0.4577-0.7923-0.5485-0.9509
		c-0.2723-0.4723-0.454-0.7876-0.5439-0.9463c0.4742-0.2748,0.7891-0.4557,0.9428-0.5458c0.9502-0.5476,1.5818-0.9124,1.8948-1.0942
		c0.2715,0.4722,0.4539,0.7876,0.5447,0.9462C43.3442,10.6709,42.7126,11.0357,42.2891,11.2794z"/>
	<path class="st5" d="M48.323,9.6869c0.1284-0.074,0.2661-0.0899,0.415-0.0504c0.1415,0.0376,0.252,0.123,0.3287,0.2564
		c0.2414,0.4205,0.6065,1.0542,1.0933,1.899c-0.2099,0.1218-0.5248,0.3028-0.9446,0.5448
		c-0.2415-0.4205-0.6065-1.0532-1.0933-1.8981c-0.2099,0.1218-0.5266,0.3047-0.9502,0.5494
		c0.2424,0.4197,0.6075,1.0532,1.0933,1.8981c-0.21,0.121-0.5248,0.3029-0.9427,0.5458c-0.2434-0.4215-0.6065-1.0542-1.0933-1.899
		c-0.1217-0.2102-0.3034-0.5257-0.5448-0.9453c-0.1217-0.2112-0.2724-0.4731-0.4568-0.7913
		c-0.1815-0.3173-0.395-0.6862-0.6365-1.1068c0.2099-0.121,0.5247-0.3019,0.9436-0.5448c0.3167-0.1828,0.7918-0.4585,1.4253-0.8242
		c0.1274-0.074,0.2652-0.0937,0.4113-0.0579c0.1452,0.0432,0.2539,0.1277,0.3278,0.2573c0.1826,0.3172,0.4578,0.7931,0.8228,1.4277
		c0.073,0.1286,0.0936,0.2657,0.0579,0.412C48.5366,9.504,48.4514,9.6129,48.323,9.6869z M47.5773,9.4923
		c-0.0224-0.0385-0.0543-0.0939-0.0973-0.1671c-0.1002-0.1756-0.2508-0.4375-0.4512-0.7839
		c-0.2108,0.1219-0.5276,0.3038-0.9503,0.5486c0.1198,0.2112,0.3024,0.5275,0.5476,0.9519
		C46.8409,9.918,47.1575,9.7352,47.5773,9.4923z"/>
	<path class="st5" d="M51.7955,4.5252c0.0892,1.4931,0.158,2.6109,0.2045,3.3551c0.5448,0.9481,0.9548,1.6597,1.23,2.1366
		c-0.476,0.2747-0.7927,0.4595-0.9502,0.5494c-0.6169-1.0682-1.0259-1.7807-1.2309-2.1365
		c-1.401-0.9279-2.3348-1.5459-2.7974-1.8567c0.5305-0.3066,0.8837-0.5101,1.0589-0.6123c0.798,0.5616,1.3317,0.9382,1.5996,1.125
		c-0.0886-0.9723-0.1453-1.6217-0.1742-1.9483C51.207,4.8656,51.5593,4.6621,51.7955,4.5252z"/>
</g>
<polygon class="st5" points="9.7911,34.5945 12.1158,33.287 9.3356,30.772 "/>
<polyline class="st5" points="10.4877,32.1097 10.7688,31.0121 13.1215,32.7133 10.2835,34.3367 "/>
<path class="st5" d="M6.5079,29.8477l3.2151,5.7361l4.2755-2.4048l-3.2151-5.7361L6.5079,29.8477z M12.7183,32.4237l-2.9623,1.6662
	l-2.1606-3.8547l2.9623-1.6662L12.7183,32.4237z"/>
<ellipse transform="matrix(0.8716 -0.4902 0.4902 0.8716 -13.4003 8.8566)" class="st5" cx="10.2058" cy="30.0076" rx="0.7533" ry="0.754"/>
</svg>
