<?xml version="1.0" encoding="utf-8"?>
<!-- Generator: Adobe Illustrator 21.0.2, SVG Export Plug-In . SVG Version: 6.00 Build 0)  -->
<svg version="1.1" id="Layer_1" xmlns="http://www.w3.org/2000/svg" xmlns:xlink="http://www.w3.org/1999/xlink" x="0px" y="0px"
	 viewBox="0 0 110.8542 127.9063" style="enable-background:new 0 0 110.8542 127.9063;" xml:space="preserve">
<style type="text/css">
	.st0{fill:#3386FF;}
	.st1{fill:#FFFFFF;}
	.st2{opacity:0.13;enable-background:new    ;}
	.st3{fill:#15003E;}
	.st4{opacity:0.2;fill:#3386FF;}
	.st5{fill:#FFC145;}
	.st6{fill:#9393B5;}
	.st7{fill:#0E2947;}
	.st8{fill:#EDBA54;}
	.st9{fill:#143954;}
	.st10{fill:#0092FF;}
	.st11{fill:#FFE292;}
	.st12{fill:#0FCE7C;}
	.st13{fill:#079973;}
	.st14{fill:#3BFFA6;}
	.st15{fill:#40F4DE;}
	.st16{fill:#E6E6FF;}
	.st17{fill:#D6D6EA;}
	.st18{fill:#1866C4;}
	.st19{fill:#57BBFF;}
</style>
<g id="Layer_63_5_">
	<polygon class="st0" points="110.929,95.9134 55.5032,127.9134 0.0794,95.9134 0.0794,31.9134 55.5032,-0.0866 110.929,31.9134 	
		"/>
</g>
<path class="st1" d="M101.7024,37.6204V90.761l-0.0107,0.0098l-0.0195,0.0098l-0.4102,0.2402l-0.3701,0.2109l-0.6201,0.3496
	l-4.1494,2.3897l-0.0108,0.0107l-0.1299,0.0791l-0.0595,0.0303l-0.5498,0.3203l-0.8008,0.4492l-0.0996,0.0606l-0.4795,0.2793
	l-1.1309,0.6504l-0.8496,0.4902l-0.7402,0.4297l-0.2393,0.1309l-0.1308,0.0488l-0.1094,0.0703l-1,0.5703l-0.0303,0.0195l-2,1.1504
	l-0.5098,0.2901l-0.1406,0.0801l-0.0293,0.0205l-0.1406,0.08l-0.0098,0.0098l-1.04,0.5898l-0.04,0.0293l-0.0694,0.0411
	l-1.1601,0.6699l-0.4502,0.2597l-0.0098,0.0098l-0.0107,0.0098h-0.0098l-0.4199,0.2402l-1.1201,0.6504l-0.8702,0.5195l-1.1796,0.67
	l-0.0801,0.0507l-0.1201,0.0694l-0.0401,0.0302l-0.04,0.0196l-0.0196,0.0097l-0.1005,0.0606l-0.2901,0.1699l-0.0293,0.0098
	l-0.1601,0.0898v0.0098l-0.4004,0.2305l-0.2696,0.1601l-0.1103,0.0606l-0.1797,0.0898l-0.0205,0.0195l-0.04,0.0196l-0.6895,0.3906
	l-0.0605,0.04l-0.2393,0.1397l-0.0205,0.0097l-0.29,0.17l-0.1495,0.08l-0.2207,0.1309l-0.2392,0.1397h-0.0108l-0.4199,0.25
	l-0.29,0.1699l-0.0293,0.0205l-0.3008,0.1699l-1.3594,0.7891l-0.5,0.291l-0.25,0.1396l-0.7002,0.3994l-0.0302,0.0206h-0.0098
	l-0.3096,0.1796l-0.0508,0.0303l-0.2392,0.1504l-0.8408,0.4795l-0.6299,0.3603l-0.0596,0.0293l-0.5,0.2911
	c-0.0098,0.0097-0.0098,0.0097-0.0098,0l-0.5302,0.3095l-0.2901,0.17l-0.7597,0.4404l-0.0508,0.0293l-0.0498,0.0303l-0.0293,0.0097
	c0,0.0108-0.0108,0.0108-0.0108,0.0108l-0.0195,0.0195l-0.25,0.1396l-1,0.5801l-0.1699,0.1006l-0.0401,0.0195l-0.3798,0.2207
	l-1.42,0.8194l-0.3603,0.2099l-0.0899,0.0498l-0.2402,0.1397l-0.7998,0.4609l-0.2598,0.1494l-0.2802,0.1602l-0.0098,0.0107
	l-0.2002,0.1192l-0.2305,0.1308l-0.3496,0.1993l-0.83,0.4804l-0.0098,0.0098l-0.0899,0.0498l-1.3203,0.7607l-0.0205,0.0098
	l-0.79,0.459l-0.6094,0.3506h-0.0098l-1.4101,0.8095l-0.0205,0.0206l-0.25,0.1396l-0.5596,0.3203h-0.0098l-0.1308,0.0801
	l-0.1895,0.1094l-0.2705,0.1601h-0.0097l-0.2002,0.1201l-0.0596-0.0302l-1.1397-0.6602l-0.0205-0.0098l-0.2002-0.1191
	l-0.8496-0.4902l-0.0302-0.0098l-0.3301-0.1904l-0.0098-0.0108l-1.4004-0.8086l-0.0097-0.0107l-0.0196-0.0098l-1.3701-0.79
	l-0.0303-0.0195h-0.0097l-0.8301-0.4805l-0.0596-0.04l-0.3408-0.1905l-0.1797-0.1094l-0.0195-0.0097l-0.6602-0.3809l-0.04-0.0293
	l-0.0899-0.0508l-0.1005-0.0595l-0.1299-0.0694l-0.2696-0.1601l-0.1201-0.0703h-0.0107l-0.7197-0.42l-0.2403-0.1308l-0.3896-0.2295
	l-0.0498-0.0303l-0.0303-0.0195l-1.3994-0.8106h-0.0108l-0.1093-0.0703l-0.3702-0.2187h-0.0097l-0.2705-0.1602l-0.6201-0.3603
	l-0.0303-0.0108l-0.0596-0.039l-0.04-0.0196l-1.2901-0.75l-0.3896-0.2304l-0.6807-0.3907l-0.5791-0.33l-0.1103-0.0596l-1-0.5801
	l-1.7198-1c-0.0107-0.0097-0.0205-0.0205-0.0302-0.0205l-1.3203-0.7598l-3.92-2.2597l-0.1601-0.0899l-0.5694-0.33l-0.4707-0.2696
	l-0.4394-0.2597l-0.2998-0.17l-0.3809-0.2207l-0.9892-0.58l-0.0401-0.0196l-2.7402-1.5898l-0.0996-0.0606l-0.1807-0.0996
	l-0.6699-0.3808l-0.8203-0.4698l-0.0899-0.0498l-0.5-0.29l-0.0097-0.0098l-0.0801-0.0498h-0.0098l-0.1201-0.0703h-0.0098
	l-0.3105-0.1797l-0.7295-0.4199c-0.0098-0.0098-0.0098-0.0098-0.0205-0.0098l-1.8594-1.08l-1.0205-0.5909l-2.1094-1.2295
	l-0.0908-0.0507l-0.1992-0.1192c0,0-0.0107,0-0.0205-0.0097l-0.2803-0.1602l-0.5293-0.3008l-0.8203-0.4795l-0.0596-0.04h-0.0107
	c0,0,0,0-0.0098,0l-0.4902-0.29l-0.6992-0.3995l-0.6807-0.3906l-1.2197-0.7099l-0.0996-0.0596h-0.0108l-0.33-0.1904l-0.4092-0.2403
	h-0.0108l-0.4296-0.25l-0.9903-0.5693l-0.0801-0.041L9.7024,90.761V37.6204l0.7793-0.4492l1.5899-0.9199l0.3603-0.211l3.3799-1.9492
	l1.0606-0.6094l5.7793-3.3408h0.0107l0.9092-0.5205l1.0508-0.6191l1.8193-1.0508h0.0107l0.8692-0.5098l3.6308-2.0801l0.6397-0.3789
	l0.9404-0.541l0.1699-0.0898l1.6592-0.9492l0.7803-0.4512l0.3799-0.2188l0.4404-0.2607l0.6699-0.3897l0.4297-0.2597l0.5205-0.3008
	l0.5-0.2793l0.5899-0.3398l1.1894-0.6807l0.6905-0.4102l0.75-0.4296l0.6503-0.3702h0.0098l0.0498-0.0293l0.4297-0.25l5.29-3.0507
	l0.1104-0.0606l0.0801-0.0488l0.2695-0.1602l5.5205-3.1904l0.5498-0.3193l1.4404-0.8301l0.5098,0.2988l1.0899,0.6309l2.8603,1.6504
	l3.0898,1.789l2.5997,1.5l0.2197,0.1309l4.6904,2.6992l0.9805,0.5703l5.1299,2.96l0.9101,0.5205l1.0391,0.6094l2.3008,1.3105
	l0.8701,0.5l0.6894,0.3994l0.8301,0.4795l0.4902,0.2813l0.5801,0.3398l0.2998,0.1699l0.7998,0.459l0.0899,0.0606l1.8105,1.04
	l2.1602,1.2402l1.1191,0.6494l0.5,0.2911l0.0401,0.0293v0.0097l0.2607,0.1406l0.6592,0.3897l1.4609,0.8398l1.9395,1.1202
	l0.7802,0.4394l0.4395,0.25l0.4902,0.2813l1.4502,0.8398l0.17,0.0996l0.8496,0.4902L101.7024,37.6204z"/>
<g id="Layer_2_6_">
	<g id="Layer_16_6_">
		<path class="st2" d="M55.6712,11.0862L9.6019,37.6458v53.1211l1.6699,0.96l0.6299,0.3691h0.0097l8.4297,4.8603l1.0401,0.5997
			l9.3408,5.3808l1.04,0.5996l2.1797,1.2598l0.4902,0.2803l0.4297,0.2597l0.3701,0.21l3.1299,1.7998l3.3096,1.9102l1.2803,0.7402
			v0.0098l12.7197,7.3203l34.29-19.7705l1.0508-0.6094l10.7295-6.1797V37.6458L55.6712,11.0862z M99.8714,89.6966l-12.5703,7.25
			l-1.0596,0.6094l-30.5703,17.6308l-12.5098-7.2099L25.0813,97.556l-1.0498-0.6094l-12.58-7.25V38.7259l44.2197-25.4893
			l44.2002,25.4893V89.6966z"/>
	</g>
</g>
<g>
	<path class="st3" d="M69.1585,114.7698l1.5654-0.8994l0.0713,0.1231c0.1651,0.2851,0.2754,0.5585,0.336,0.8144
		c0.0498,0.2412,0.0488,0.4951-0.0049,0.7617c-0.1241,0.5977-0.4571,1.0518-1,1.3653c-0.5303,0.3046-1.0938,0.375-1.6924,0.2099
		c-0.5996-0.167-1.0537-0.5205-1.3633-1.0586c-0.3164-0.5498-0.3926-1.1259-0.2285-1.7304s0.5205-1.0664,1.0723-1.3848
		c0.2959-0.1699,0.6074-0.2686,0.9335-0.2959c0.3135-0.0215,0.669,0.0361,1.0616,0.1699l-0.1836,0.626
		c-0.5488-0.2354-1.0469-0.2246-1.4922,0.0322c-0.4024,0.2305-0.6582,0.5615-0.7705,0.9961
		c-0.1153,0.4268-0.0547,0.8457,0.1806,1.2549c0.2422,0.4228,0.5928,0.6826,1.0528,0.7812
		c0.4297,0.0899,0.8086,0.0401,1.1416-0.1503c0.2803-0.1612,0.4775-0.4004,0.5928-0.7188c0.1132-0.3203,0.1084-0.6191-0.0176-0.9023
		l-0.9463,0.5439L69.1585,114.7698z"/>
	
		<rect x="72.7512" y="110.4329" transform="matrix(0.8665 -0.4992 0.4992 0.8665 -46.4637 51.5213)" class="st3" width="0.6595" height="4.3716"/>
	<polygon class="st3" points="75.8479,109.219 77.7181,112.471 77.1478,112.7991 75.2767,109.5491 74.4056,110.0501 74.096,109.513 
		76.4065,108.1829 76.7151,108.72 	"/>
	<path class="st3" d="M81.0062,105.805l0.3886,0.6767c-0.4902-0.0869-0.9121-0.0283-1.2646,0.1748
		c-0.3887,0.2247-0.6377,0.5538-0.7432,0.9854c-0.1084,0.4326-0.0459,0.8506,0.1856,1.2529
		c0.2275,0.3975,0.5566,0.6563,0.9814,0.7754c0.4258,0.1182,0.832,0.0654,1.2236-0.1582c0.1993-0.1162,0.3526-0.2471,0.4551-0.3935
		c0.0596-0.0782,0.1162-0.168,0.168-0.2725c0.0517-0.1045,0.1025-0.2227,0.1504-0.3555l0.3974,0.6905
		c-0.2197,0.375-0.5117,0.665-0.8711,0.873c-0.541,0.3115-1.1113,0.3867-1.7109,0.2305c-0.6016-0.1621-1.0566-0.5117-1.3672-1.0498
		c-0.2773-0.4825-0.3633-1.0049-0.2627-1.5664c0.124-0.6895,0.501-1.2129,1.124-1.5713
		C80.2005,105.9007,80.5823,105.803,81.0062,105.805"/>
	<path class="st1" d="M83.7776,105.6351c-0.3066-0.5332-0.374-1.1036-0.2041-1.71c0.17-0.6074,0.5274-1.0684,1.0733-1.3838
		c0.54-0.3096,1.1142-0.3828,1.7217-0.2197c0.6113,0.164,1.0712,0.5156,1.3828,1.0566c0.3125,0.544,0.3857,1.1192,0.2138,1.7227
		c-0.1718,0.6054-0.5341,1.0683-1.0869,1.3857c-0.4892,0.2832-1.0263,0.3643-1.6103,0.251
		C84.6233,106.6106,84.1272,106.2425,83.7776,105.6351 M84.3567,105.3099c0.2412,0.4179,0.5801,0.6816,1.0166,0.789
		c0.4346,0.1084,0.836,0.0576,1.2032-0.1533c0.3974-0.2285,0.6533-0.5586,0.7695-0.9902c0.1123-0.4356,0.0557-0.8526-0.1758-1.251
		c-0.2324-0.4043-0.5615-0.665-0.9883-0.7822c-0.4267-0.1211-0.8388-0.0674-1.2343,0.1611
		c-0.3946,0.2275-0.6475,0.5557-0.7608,0.9863C84.0716,104.4983,84.1282,104.9114,84.3567,105.3099"/>
	
		<rect x="89.7356" y="100.6582" transform="matrix(0.8663 -0.4995 0.4995 0.8663 -39.3312 58.7403)" class="st3" width="0.6597" height="4.3707"/>
	<polygon class="st3" points="93.6585,103.2981 91.3294,99.2513 95.7571,100.552 94.2415,97.9183 94.8118,97.5901 97.1263,101.6106 
		92.7024,100.3167 94.2298,102.969 	"/>
</g>
<path class="st4" d="M85.2083,85.5208c0,0.8633-0.6992,1.5625-1.5625,1.5625h-59.875c-0.8633,0-1.5625-0.6992-1.5625-1.5625l0,0
	c0-0.8633,0.6992-1.5625,1.5625-1.5625h59.875C84.5091,83.9583,85.2083,84.6575,85.2083,85.5208L85.2083,85.5208z"/>
<path class="st4" d="M85.2083,90.2708c0,0.8633-0.6992,1.5625-1.5625,1.5625h-59.875c-0.8633,0-1.5625-0.6992-1.5625-1.5625l0,0
	c0-0.8633,0.6992-1.5625,1.5625-1.5625h59.875C84.5091,88.7083,85.2083,89.4075,85.2083,90.2708L85.2083,90.2708z"/>
<path class="st4" d="M90.0833,70.4583c0,6.627-5.373,12-12,12h-46.25c-6.627,0-12-5.373-12-12v-23.625c0-6.627,5.373-12,12-12h46.25
	c6.627,0,12,5.373,12,12V70.4583z"/>
<g>
	<g>
		<path class="st5" d="M30.7005,54.2005c0.2383-0.7412,1.3955-0.3858,1.1572,0.3584c-0.5508,1.7129-0.041,2.7959,0.8115,4.2676
			c0.3067,0.5302,0.4239,1.0781,0.9073,1.5088c0.332,0.2949,0.6425,0.3769,0.9091,0.7519c0.4444,0.6289-0.4423,1.4561-0.8925,0.8203
			c-0.3789-0.5351-1.0381-0.7051-1.4024-1.2724c-0.3994-0.6192-0.7451-1.3926-1.0908-2.042
			C30.3118,57.1214,30.1937,55.7815,30.7005,54.2005"/>
	</g>
	<g>
		<path class="st5" d="M79.8021,53.2884c-0.2393-0.7403-1.3965-0.3848-1.1573,0.3594c0.5508,1.7119,0.0401,2.7949-0.8125,4.2685
			c-0.3056,0.5303-0.4228,1.0772-0.9072,1.5078c-0.333,0.2949-0.6426,0.377-0.9082,0.752
			c-0.4453,0.6279,0.4414,1.4551,0.8906,0.8203c0.3799-0.5352,1.0381-0.7061,1.4043-1.2744
			c0.3985-0.6182,0.7422-1.3916,1.0899-2.0401C80.1907,56.2103,80.3089,54.8694,79.8021,53.2884"/>
	</g>
	<g>
		<path class="st6" d="M44.2093,71.8753c0.1377-0.0908,0.2451-0.2207,0.3164-0.3662c0.5205-0.2207,0.8955-0.7071,1.3808-1.0821
			c0.0762-0.04,0.1534-0.0751,0.2344-0.1064c0.3154,0.1006,0.6836,0.0498,0.9444-0.2061c0.0918-0.0908,0.1845-0.1816,0.2753-0.2714
			c0.4727-0.4659,0.1915-1.1602-0.3066-1.4287c-0.3887-0.6387-1.0547-1.1807-1.4805-1.7217
			c-0.248-0.3135-0.5947-0.3506-0.8974-0.2295c-0.0918-0.0987-0.2002-0.1807-0.3174-0.2373
			c-0.0381-0.083-0.0879-0.1553-0.1475-0.2217c-0.0381-0.4316-0.3535-0.8535-0.8652-0.7988
			c-0.0273,0.0039-0.0576,0.0107-0.085,0.0146c-0.0078-0.083-0.0224-0.165-0.0517-0.2422
			c-0.1455-0.3564-0.5127-0.5634-0.8946-0.5244c-0.3574,0.0391-0.6709,0.1602-0.9746,0.3526
			c-0.4677,0.2939-0.8906,0.7382-0.7695,1.33c0.0586,0.2852,0.3115,0.5567,0.6055,0.6582c0.0195,0.3418,0.2734,0.6748,0.5986,0.8252
			c-0.0801,0.211-0.0693,0.4356,0.0088,0.6338c-0.2148,0.4727,0.0107,1.1074,0.5088,1.293
			c0.0244,0.3271,0.2168,0.6494,0.4961,0.8154c-0.1397,0.4317-0.1153,0.8985,0.1504,1.252
			C43.2386,72.013,43.7718,72.1634,44.2093,71.8753"/>
	</g>
	<g>
		<path class="st7" d="M42.0188,64.1585c3.17,3.1689,6.3389,6.3398,9.5079,9.5098c0.5879,0.5859,1.5-0.3252,0.9121-0.9121
			c-3.17-3.17-6.3399-6.3389-9.5078-9.5088C42.3431,62.6595,41.431,63.5716,42.0188,64.1585"/>
	</g>
	<g>
		<path class="st7" d="M39.6019,65.8245c3.622,7.6397,5.0566,10.6602,5.7587,12.1465c0.3584,0.7529,1.4698,0.0957,1.1163-0.6504
			c-0.7041-1.4824-2.1358-4.5059-5.7618-12.1465C40.3587,64.4231,39.2474,65.0784,39.6019,65.8245"/>
	</g>
	<g>
		<path class="st7" d="M40.4583,66.0042c0.7578-0.5518,1.5215-1.0938,2.2656-1.6631c0.2793-0.2119,0.4258-0.5508,0.2305-0.8799
			c-0.1602-0.2773-0.6016-0.4453-0.8809-0.2324c-0.7451,0.5674-1.5097,1.1084-2.2656,1.6631
			C39.1438,65.3782,39.7864,66.4983,40.4583,66.0042"/>
	</g>
	<g>
		<path class="st7" d="M39.2786,62.6897c0.4121,0.6299,0.8223,1.2598,1.2324,1.8916c0.4522,0.6924,1.5694,0.0479,1.1143-0.6533
			c-0.4102-0.6279-0.8223-1.2588-1.2334-1.8886C39.9407,61.3479,38.8235,61.9915,39.2786,62.6897"/>
	</g>
	<g>
		<path class="st6" d="M24.8196,64.0188c0.8399-0.8691,1.8936-1.2529,2.9502-1.788c0.5059-0.2539,0.9414-0.5899,1.4199-0.8868
			c0.3526-0.2168,0.9883-0.3584,1.418-0.5849c-0.3535-0.8154-1.1211-1.4697-1.5039-2.2393
			c-0.7822,0.4512-1.667,0.7442-2.2549,1.3975c-0.5224,0.5781-1.3369-0.3174-0.8193-0.8926
			c0.8398-0.9297,2.1494-1.0986,3.0547-1.9785c0.3574-0.3486,1.0654-0.0557,1.0146,0.4658
			c-0.0517,0.5176,0.7979,1.1836,1.0596,1.6426c0.2295,0.4023,0.5937,1.0205,0.6865,1.4756
			c0.0889,0.456,0.0752,0.6816-0.3213,0.9873c-0.3672,0.2812-1.0019,0.374-1.4082,0.582c-0.497,0.2549-0.9218,0.6338-1.4082,0.9092
			c-1.0576,0.6006-2.2021,0.9033-3.0693,1.8037C25.0979,65.4749,24.2786,64.5813,24.8196,64.0188"/>
	</g>
	<g>
		<path class="st6" d="M21.9456,61.1653c0.7803,0,0.7412,1.211-0.0381,1.211C21.1263,62.3763,21.1673,61.1653,21.9456,61.1653"/>
	</g>
	<g>
		<path class="st6" d="M24.1233,64.7874c0.7803,0,0.7403,1.21-0.0371,1.21C23.305,65.9974,23.345,64.7874,24.1233,64.7874"/>
	</g>
	<g>
		<path class="st6" d="M22.1292,61.6351c0.2607-0.377,0.6514-0.5645,1.0811-0.6934c-0.002-0.0488-0.0147-0.0938-0.0069-0.1475
			c0.0205-0.1416,0.0908-0.2451,0.1797-0.3505c0.2051-0.2364,0.4688-0.2276,0.6738-0.1045
			c0.7803-0.6221,1.8526-0.9844,2.8155-1.3233c0.58-0.4033,1.2246-0.7236,1.7978-1.1396c0.2041-0.1494,0.4688-0.1075,0.6563,0.0361
			c0.25-0.0059,0.5117,0.1416,0.6006,0.3936c0.2421,0.6835,0.6679,1.2373,0.8164,1.9521c0.1025,0.0772,0.2089,0.1563,0.3173,0.2373
			c0.2647,0.1953,0.208,0.5918,0.0284,0.8125c-0.6231,0.7715-1.625,1.1289-2.4922,1.5469
			c-1.1045,0.5351-2.1475,1.0644-3.2696,1.5342c-0.0771,0.3945-0.2382,0.7666-0.4765,1.0556
			c-0.1895,0.2266-0.6143,0.2539-0.8174,0.0293c-0.8272-0.914-1.3174-2.1777-1.8818-3.2578
			C22.0618,62.0472,22.0101,61.8118,22.1292,61.6351"/>
	</g>
	<g>
		<path class="st7" d="M31.8509,60.8929c-3.3809,2.0244-6.7637,4.0508-10.1465,6.0771c-0.5029,0.3008-0.0449,1.0889,0.4609,0.7871
			c3.3809-2.0263,6.7637-4.0517,10.1446-6.0791C32.8138,61.3772,32.3558,60.5882,31.8509,60.8929"/>
	</g>
	<g>
		<path class="st7" d="M29.9017,56.136c-3.7696,2.211-7.5391,4.4239-11.3067,6.6358c-0.5068,0.2959-0.0488,1.0849,0.459,0.7861
			c3.7686-2.2119,7.5381-4.4238,11.3076-6.6357C30.8675,56.6263,30.4075,55.8382,29.9017,56.136"/>
	</g>
	<g>
		<path class="st8" d="M17.7913,64.3968c-0.3945,1.581,0.5645,3.1836,2.1465,3.5791c1.5771,0.3955,3.1816-0.5635,3.5771-2.1426
			c0.3955-1.582-0.5644-3.1846-2.1435-3.5791C19.7884,61.8597,18.1878,62.8177,17.7913,64.3968"/>
	</g>
	<g>
		<path class="st9" d="M20.6556,68.3685L20.6556,68.3685c-0.2657,0-0.5323-0.0323-0.793-0.0977
			c-1.7412-0.4365-2.8018-2.208-2.3672-3.9473c0.3652-1.4502,1.6621-2.4619,3.1553-2.4619c0.2666,0,0.5342,0.0332,0.793,0.0977
			c0.8447,0.2109,1.5537,0.7373,2.0009,1.4824c0.4463,0.7461,0.5762,1.623,0.3643,2.4648
			C23.4466,67.3567,22.1507,68.3685,20.6556,68.3685z M20.6507,62.469c-1.2139,0-2.2695,0.8243-2.5645,2.003
			c-0.3545,1.414,0.5098,2.8545,1.9239,3.209c0.2128,0.0537,0.4296,0.081,0.6455,0.081c1.2148,0,2.2685-0.8242,2.5634-2.0029
			c0.1719-0.6865,0.0674-1.3975-0.2959-2.0049c-0.3632-0.6064-0.9414-1.0332-1.6269-1.2051
			C21.0853,62.4954,20.8685,62.469,20.6507,62.469z"/>
	</g>
	<g>
		<path class="st10" d="M18.7767,70.2991c-0.1036,0.4151,0.1484,0.835,0.5644,0.9395c0.4141,0.1045,0.836-0.1485,0.9385-0.5616
			l0.7285-2.9023c0.1045-0.417-0.1484-0.8379-0.5625-0.9414c-0.416-0.1025-0.8359,0.1484-0.9404,0.5645L18.7767,70.2991z"/>
	</g>
	<g>
		<path class="st9" d="M19.5296,71.5677L19.5296,71.5677c-0.0889,0-0.1768-0.0117-0.2637-0.0342
			c-0.5752-0.1445-0.9277-0.7315-0.7842-1.3086l0.7276-2.9023c0.1426-0.5655,0.7383-0.9248,1.3095-0.7842
			c0.5762,0.1455,0.9278,0.7324,0.7833,1.3105l-0.7266,2.9024C20.4544,71.2308,20.0247,71.5677,19.5296,71.5677z M20.2562,67.1145
			c-0.2159,0-0.4043,0.1465-0.4571,0.3575l-0.7285,2.9013c-0.0615,0.251,0.0928,0.5079,0.3447,0.5704
			c0.2471,0.0654,0.5078-0.0938,0.5694-0.3409l0.7275-2.9023c0.0645-0.2529-0.0898-0.5098-0.3418-0.5723
			C20.3333,67.1194,20.2942,67.1145,20.2562,67.1145z"/>
	</g>
	<g>
		<path class="st10" d="M15.1839,67.3665c-0.3594,0.2324-0.4619,0.7119-0.2266,1.0732c0.2324,0.3575,0.7139,0.459,1.0733,0.2256
			l2.5048-1.6357c0.3584-0.2334,0.46-0.7129,0.2266-1.0723c-0.2344-0.3574-0.7139-0.459-1.0723-0.2246L15.1839,67.3665z"/>
	</g>
	<g>
		<path class="st9" d="M15.6067,69.094L15.6067,69.094c-0.3652,0-0.7041-0.1816-0.9043-0.4873
			c-0.1582-0.2441-0.2119-0.5332-0.1513-0.8154c0.0595-0.2812,0.2265-0.5225,0.4677-0.6797l2.504-1.6338
			c0.4814-0.3144,1.1796-0.1689,1.4931,0.3135c0.3252,0.499,0.1826,1.169-0.3135,1.4932l-2.5058,1.6347
			C16.0208,69.0335,15.8167,69.094,15.6067,69.094z M18.1116,65.9104c-0.0908,0-0.1787,0.0274-0.2558,0.0762l-2.5059,1.6348
			c-0.1064,0.0683-0.1787,0.1738-0.2031,0.2959c-0.0283,0.123-0.0039,0.251,0.0644,0.3564
			c0.0879,0.1338,0.2354,0.2119,0.3955,0.2119l0,0c0.0909,0,0.1807-0.0244,0.2579-0.0752l2.5058-1.6347
			c0.2168-0.1426,0.2783-0.4346,0.1367-0.6533C18.4202,65.9895,18.2728,65.9104,18.1116,65.9104z"/>
	</g>
	<g>
		<path class="st5" d="M30.6644,56.2542c0.0039,0.1719,0.0898,0.2744,0.2041,0.3232c-0.0723,0.4815-0.0489,0.9746,0.0703,1.4532
			c-0.0117,0.0507-0.0176,0.1064-0.0059,0.1611c0.1436,0.7021,0.3359,1.7793,1.1777,1.8311
			c0.0323,0.0605,0.0801,0.1044,0.1299,0.1376c0.6709,0.837,1.5948,1.3926,2.5664,2.0254c0.17,0.1094,0.3955,0.0879,0.5391-0.0332
			c2.8135,1.0762,5.0146-0.4951,6.6816-2.622c0.1221-0.1563,0.1045-0.3135,0.0196-0.4336c0.6211-0.9492,1.1924-2.086,1.0722-2.9805
			c-0.0146-0.1143-0.0937-0.2041-0.1953-0.2627c0.0108-0.543-0.0283-1.2148-0.4053-1.4482
			c-0.2148-0.6309-0.5048-1.2403-0.8291-1.8604c-0.123-0.2344-0.3564-0.2627-0.541-0.1719
			c-0.3134-0.7148-1.1601-1.2871-1.955-1.3711c-0.9483-0.7734-2.0157-1.3505-3.3116-1.3144c-1.0351,0.0273-2.5088,1.207-3.0127,2.04
			c-0.0058,0.0098-0.0078,0.0205-0.0136,0.0313c-0.6651,0.3965-1.2071,0.9336-1.6094,1.6347
			c-0.2432,0.4278-0.5029,1.1866-0.3223,1.71c-0.1064,0.0557-0.1914,0.1543-0.2129,0.3057
			C30.6624,55.7464,30.6614,55.9124,30.6644,56.2542 M34.6897,55.3606c0.1163-0.1562,0.2647-0.2793,0.4317-0.3574
			c0.0254-0.1191,0.0517-0.2373,0.083-0.3554c0.1885-0.1231,0.3711-0.2579,0.5498-0.3985c0.0859,0.0723,0.1992,0.1123,0.3379,0.086
			c0.4531-0.0889,0.9941-0.1485,1.5058-0.2637c-0.0068,0.1621,0.0645,0.3203,0.2452,0.375
			c0.7412,0.2275,1.0537,1.2392,1.4394,1.8779c0.002,0.0049,0.0029,0.0088,0.0069,0.0147v-0.001
			c0.0205,0.0322,0.039,0.0693,0.0605,0.0986c0.0273,0.0391,0.0596,0.0654,0.0928,0.0889
			c-0.1406,0.3066-0.2774,0.6172-0.4024,0.9306c-0.1933,0.2979-0.4023,0.5889-0.6054,0.8838
			c-0.0694-0.0615-0.1543-0.1025-0.251-0.1084c-0.292-0.0166-0.7139,0.1895-1.0938,0.4746
			c-0.0351,0.0157-0.0722,0.0323-0.1054,0.0489c-0.2979-0.0869-0.6006-0.1494-0.9043-0.21c-0.0889-0.1533-0.2022-0.25-0.333-0.3115
			c-0.3584,0.0557-0.7256-0.1162-0.9327-0.4356C34.3978,57.1468,34.1946,56.0228,34.6897,55.3606"/>
	</g>
	<g>
		<path class="st11" d="M38.7464,62.8392c0.0986-0.044,0.1933-0.0938,0.289-0.1446c0.1846-0.1943,0.4102-0.3486,0.6456-0.4814
			c0.1552-0.0899,0.3281,0.041,0.3281,0.1865c0.6426-0.7158,1.1426-1.4365,1.499-2.2002c0.0215-0.0215,0.044-0.0303,0.0635-0.0586
			c0.8076-1.1201,0.9951-2.5957,0.998-3.9443c0.0039-1.3555-0.0644-3.0674-1.0371-4.1162c-0.2334-0.252-0.5664-0.1201-0.6914,0.1133
			c-0.7285-1.1026-1.7676-1.9502-3.1435-2.2413c-0.544-0.1142-0.7168,0.7334-0.1719,0.8418
			c2.2646,0.4561,3.1972,2.6133,3.6426,4.6504c0.6416,2.9151-0.3741,5.0616-2.4268,7.0371
			c-0.1406,0.1368-0.1504,0.2989-0.0898,0.4356C38.6731,62.887,38.7034,62.8577,38.7464,62.8392"/>
	</g>
	<g>
		<path class="st7" d="M36.6966,63.2181c-1.7324,0-3.3897-0.6455-4.667-1.8194c-2.8018-2.5722-2.9873-6.9472-0.415-9.75
			c1.3046-1.4189,3.1591-2.2324,5.0859-2.2324c1.7324,0,3.3896,0.6445,4.665,1.8174c1.3584,1.2471,2.1494,2.9482,2.2256,4.79
			c0.0791,1.8418-0.5635,3.6045-1.8096,4.9619C40.4769,62.4036,38.6233,63.2181,36.6966,63.2181z M36.7005,50.3274
			c-1.6729,0-3.2813,0.7061-4.4131,1.9375c-2.2344,2.4336-2.0723,6.2295,0.3584,8.4629c1.1084,1.0186,2.5479,1.5791,4.0508,1.5791
			c1.6719,0,3.2812-0.707,4.4121-1.9384c1.083-1.1778,1.6416-2.7071,1.5732-4.3057c-0.0664-1.5986-0.7539-3.0752-1.9316-4.1592
			C39.6429,50.888,38.2034,50.3274,36.7005,50.3274z"/>
	</g>
	<g>
		<path class="st7" d="M36.7728,59.346h-0.001c-0.7295,0-1.4278-0.2715-1.9658-0.7666c-1.1807-1.084-1.2579-2.9277-0.1748-4.1074
			c0.5498-0.5977,1.3291-0.9405,2.1416-0.9405c0.7304,0,1.4277,0.2725,1.9648,0.7657c1.1807,1.084,1.2598,2.9267,0.1758,4.1074
			C38.3646,59.0042,37.5843,59.346,36.7728,59.346z M36.7728,54.4437c-0.5586,0-1.0928,0.2353-1.4707,0.6455
			c-0.7422,0.8095-0.6895,2.0761,0.121,2.8193c0.3682,0.3398,0.8477,0.5264,1.3487,0.5264h0.001
			c0.5566,0,1.0918-0.2373,1.4677-0.6465c0.7451-0.8106,0.6924-2.0752-0.1201-2.8194
			C37.7522,54.6302,37.2728,54.4437,36.7728,54.4437z"/>
	</g>
	<g>
		<path class="st10" d="M14.8079,63.3157c-0.4258,0.0469-0.7314,0.4297-0.6855,0.8555c0.0488,0.4267,0.4326,0.7314,0.8574,0.6836
			l2.9746-0.3311c0.4248-0.0478,0.7305-0.4306,0.6826-0.8554c-0.0469-0.4268-0.4297-0.7325-0.8555-0.6856L14.8079,63.3157z"/>
	</g>
	<g>
		<path class="st9" d="M14.8929,65.1634c-0.5498,0-1.0098-0.4121-1.0713-0.959c-0.0654-0.5918,0.3613-1.126,0.9531-1.1914
			l2.9736-0.333c0.6153-0.0655,1.128,0.3681,1.1905,0.9551c0.0332,0.2832-0.0469,0.5644-0.2266,0.791
			c-0.1807,0.2256-0.4375,0.3672-0.7256,0.3994l-2.9736,0.3301C14.9739,65.1604,14.9329,65.1634,14.8929,65.1634z M17.8665,63.2815
			l-3.0244,0.335c-0.2588,0.0293-0.4463,0.2627-0.416,0.5205c0.0254,0.2393,0.2265,0.419,0.4668,0.419l0.0537-0.003l2.9736-0.332
			c0.124-0.0137,0.2373-0.0752,0.3154-0.1748c0.0782-0.0977,0.1143-0.2207,0.0987-0.3438
			C18.3089,63.4612,18.1077,63.2815,17.8665,63.2815z"/>
	</g>
	<g>
		<path class="st6" d="M66.2913,70.9632c-0.1377-0.0899-0.2441-0.2188-0.3154-0.3662c-0.5215-0.2207-0.8955-0.7061-1.3799-1.0811
			c-0.0772-0.04-0.1543-0.0752-0.2354-0.1074c-0.3144,0.1016-0.6845,0.0508-0.9443-0.2051
			c-0.0918-0.0898-0.1836-0.1816-0.2744-0.2715c-0.4727-0.4668-0.1943-1.1601,0.3066-1.4297
			c0.3887-0.6377,1.0528-1.1816,1.4795-1.7207c0.2481-0.3134,0.5948-0.3496,0.8985-0.2295
			c0.0908-0.0986,0.1992-0.1806,0.3164-0.2382c0.0381-0.0821,0.0888-0.1553,0.1484-0.2217
			c0.0371-0.4317,0.3516-0.8526,0.8633-0.7979c0.0283,0.0039,0.0576,0.0098,0.0869,0.0157c0.0059-0.084,0.0215-0.1661,0.0518-0.2442
			c0.1445-0.3564,0.5127-0.5625,0.8935-0.5224c0.3584,0.0371,0.6709,0.1591,0.9746,0.3505
			c0.4678,0.2959,0.8916,0.7393,0.7696,1.3301c-0.0596,0.2862-0.3106,0.5576-0.6045,0.6582
			c-0.0205,0.3418-0.2744,0.6758-0.5996,0.8252c0.08,0.211,0.0703,0.4365-0.0088,0.6348c0.2148,0.4717-0.0098,1.1074-0.5078,1.293
			c-0.0254,0.3271-0.2178,0.6484-0.4971,0.8154c0.1396,0.4307,0.1162,0.8984-0.1494,1.251
			C67.263,71.1019,66.7288,71.2532,66.2913,70.9632"/>
	</g>
	<g>
		<path class="st7" d="M68.4837,63.2474c-3.1699,3.1699-6.3408,6.3398-9.5078,9.5088c-0.5889,0.5869-1.5-0.3243-0.9131-0.9122
			c3.1689-3.1699,6.3398-6.3388,9.5078-9.5078C68.1595,61.7483,69.0716,62.6595,68.4837,63.2474"/>
	</g>
	<g>
		<path class="st7" d="M70.9007,64.9114c-3.6231,7.6416-5.0576,10.6612-5.7598,12.1485c-0.3584,0.7509-1.4687,0.0957-1.1162-0.6504
			c0.7041-1.4825,2.1357-4.5059,5.7617-12.1465C70.1429,63.511,71.2552,64.1663,70.9007,64.9114"/>
	</g>
	<g>
		<path class="st7" d="M70.0433,65.0921c-0.7569-0.5518-1.5205-1.0938-2.2657-1.6631c-0.2793-0.2109-0.4248-0.5498-0.2295-0.8799
			c0.1592-0.2773,0.6006-0.4443,0.8799-0.2314c0.7461,0.5654,1.5088,1.1084,2.2657,1.6621
			C71.3567,64.4661,70.7142,65.5882,70.0433,65.0921"/>
	</g>
	<g>
		<path class="st7" d="M71.2229,61.7786c-0.4121,0.6299-0.8222,1.2598-1.2324,1.8906c-0.4511,0.6924-1.5683,0.0479-1.1133-0.6523
			c0.4092-0.6289,0.8213-1.2588,1.2334-1.8887C70.5608,60.4349,71.6771,61.0804,71.2229,61.7786"/>
	</g>
	<g>
		<path class="st12" d="M52.9466,62.3323c-0.9131-0.3105-2.1797-0.9277-2.6065-1.8857c-0.0322-0.0362-0.0654-0.0703-0.0957-0.1094
			c-0.1396-0.1719-0.1308-0.3525-0.0468-0.4883c-0.003-0.0234-0.0059-0.0439-0.0059-0.0664
			c-0.1572-0.4101-0.2637-0.8594-0.3555-1.2715c-0.2021-0.4902-0.2402-1.0566-0.1269-1.5986
			c0.0224-0.1367,0.0556-0.2656,0.0986-0.3848c-0.0215-0.3095,0.0332-0.6308,0.1602-0.9433
			c0.2597-0.6446,0.8154-1.458,1.5215-1.7051c1.2705-1.0459,3.1074-1.9756,4.6367-1.1055c0.08,0.045,0.1279,0.1084,0.1611,0.1787
			c0.4502-0.1015,1.0742,0.1329,1.3691,0.4112c0.1866,0.1767,0.1739,0.4228,0.0674,0.5967
			c0.0117,0.0068,0.0244,0.0166,0.0371,0.0263c0.1309-0.0127,0.2657,0.0215,0.3672,0.1299c0.375,0.4072,0.7031,0.7744,0.9365,1.2793
			c0.0352,0.0781,0.042,0.1514,0.0352,0.2217c0.0361,0.039,0.0684,0.0781,0.1055,0.1172c0.1806,0.1806,0.1045,0.4238-0.0576,0.5732
			c0.2822,1.1699,0.4218,3.0518-0.5079,3.8184c-0.2382,0.4511-0.6582,0.831-1.0752,1.0966
			c-0.5117,0.6719-1.3466,1.1553-2.163,1.2041C54.5882,62.6243,53.721,62.5999,52.9466,62.3323"/>
	</g>
	<g>
		<path class="st13" d="M56.4603,61.9573c1.5673-1.3086,1.7753-2.6572,1.5712-4.6386c-0.1611-1.5323-0.6328-2.7286-1.9101-3.6124
			c-0.9893-0.6865-2.2178-0.4316-3.3496-0.3916c-0.5528,0.0206-0.6065-0.8418-0.0518-0.8574
			c1.6875-0.0488,2.8496-0.165,4.3242,0.8447c0.2344,0.1592,0.4414,0.3624,0.627,0.586c0.0967-0.0166,0.2041,0.0068,0.3096,0.0869
			c0.9824,0.7354,1.164,1.8525,1.3476,3.002c0.1631,1.039,0.5908,2.3466-0.3096,3.1718c-0.1113,0.1006-0.2363,0.1231-0.3496,0.1006
			c-0.2851,0.8506-0.8017,1.6367-1.6142,2.3301C56.6341,62.9358,56.0335,62.3138,56.4603,61.9573"/>
	</g>
	<g>
		<path class="st14" d="M51.5989,61.8792c-0.0049-0.002-0.0068-0.0068-0.0107-0.0088c-0.6885-0.3701-1.1123-1.1142-1.5596-1.8096
			c-0.0898-0.1357-0.084-0.2773-0.0332-0.3974c-0.1475-0.3506-0.2363-0.7256-0.2891-1.1104
			c-0.1406-0.3828-0.2324-0.7744-0.2109-1.1787c0.0498-0.9043,0.3301-1.8906,0.9092-2.6162c0.0361-0.0977,0.1016-0.165,0.1807-0.21
			c0.0722-0.0732,0.1425-0.1474,0.2216-0.2138c0.1162-0.0967,0.2354-0.1153,0.3399-0.0821
			c0.1709-0.5371,0.4345-1.0302,0.8213-1.4453c0.3789-0.4072,0.9843,0.2022,0.6064,0.6075
			c-2.5293,2.7109,1.4258,10.4609,5.2197,8.2001c0.4766-0.2851,0.7803,0.2667,0.3077,0.5489
			c-0.9463,0.5615-1.7969,0.834-2.6944,0.5693c-0.0488,0.1406-0.1523,0.2598-0.3359,0.2959
			C53.8636,63.2522,52.5979,62.4915,51.5989,61.8792"/>
	</g>
	<g>
		<path class="st1" d="M56.347,63.0511c-0.3028-0.1006-0.6924-0.2285-1.2022-0.3887c-6.123-1.9326-4.5097-8.8096-4.5097-8.8096
			l-1.1114,3.9395l1.9326,4.1885c0,0,3.0997,0.8261,4.7247,1.2041C56.2376,63.1409,56.2903,63.095,56.347,63.0511"/>
	</g>
	<g>
		<path class="st1" d="M51.3646,60.1321c0.4648-0.1826,0.5332-1.1093,0.1542-2.0644c-0.3789-0.9571-1.0615-1.5821-1.5263-1.3985
			c-0.4639,0.1846-0.5342,1.1084-0.1543,2.0645C50.2161,59.6907,50.9007,60.3157,51.3646,60.1321"/>
	</g>
	<g>
		<path class="st9" d="M54.5726,63.556c-3.2969,0-5.9786-2.6827-5.9786-5.9795c0-3.2969,2.6817-5.9786,5.9786-5.9786
			c3.2968,0,5.9795,2.6817,5.9795,5.9786C60.5521,60.8733,57.8694,63.556,54.5726,63.556z M54.5726,52.8157
			c-2.628,0-4.7637,2.1358-4.7637,4.7608c0,2.6279,2.1357,4.7636,4.7637,4.7636c2.6269,0,4.7646-2.1357,4.7646-4.7636
			C59.3372,54.9515,57.1995,52.8157,54.5726,52.8157z"/>
	</g>
	<g>
		<path class="st15" d="M57.9329,71.1585c0,1.6807,1.3604,3.042,3.042,3.042c1.6807,0,3.0439-1.3613,3.0439-3.042
			c0-1.6826-1.3632-3.044-3.0439-3.044C59.2933,68.1145,57.9329,69.4759,57.9329,71.1585"/>
	</g>
	<g>
		<path class="st15" d="M48.8372,71.1585c0,1.6807,1.3613,3.042,3.044,3.042c1.6806,0,3.0439-1.3613,3.0439-3.042
			c0-1.6826-1.3633-3.044-3.0439-3.044C50.1985,68.1145,48.8372,69.4759,48.8372,71.1585"/>
	</g>
	<g>
		<path class="st16" d="M45.1604,68.2132c0.0684-0.208,0.1612-0.3975,0.2627-0.5791c0.2061-0.4121,0.4454-0.8067,0.6836-1.2061
			c0.1485-0.249,0.3633-0.3926,0.5987-0.4619c0.0908-0.4912,0.4384-0.9297,0.997-0.9766c2.7227-0.2265,5.4366-0.3339,8.1426,0.0782
			c2.4365,0.3711,5.0938-0.501,7.4268,0.3984c0.6719,0.2588,0.834,1.001,0.6299,1.6094c0.1406,0.0088,0.2793,0.0117,0.4179,0.0215
			c1.4004,0.0859,1.3096,2.3691-0.0722,2.4355c-0.2862,0.0137-0.5733,0.0186-0.8584,0.0264
			c-0.3633,0.2558-0.875,0.376-1.2813,0.2236c-0.1181-0.0439-0.2217-0.1045-0.3154-0.1806c-2.043,0.0302-4.0918-0.0049-6.1328-0.001
			c-2.7403,0.0039-5.5547,0.1836-8.2852-0.1231c-0.0693,0.1016-0.1484,0.1836-0.2353,0.25
			c-0.3409,0.2637-0.794,0.2871-1.1914,0.1289C45.3333,69.6253,44.8558,68.9954,45.1604,68.2132"/>
	</g>
	<g>
		<path class="st17" d="M68.4017,79.5179c0.0625-0.1055,0.1015-0.2217,0.1347-0.3399c-0.206,0.0176-0.4072,0.0108-0.5967-0.0342
			c-0.1142,0.0411-0.2314,0.0762-0.3564,0.087c-1.4844,0.1328-1.8428-1.1182-1.7725-2.6475
			c-0.0351-0.042-0.0712-0.0801-0.0986-0.1289c-0.7773-1.4063-0.4512-2.8066-0.1846-4.2559
			c-0.0117-0.0947-0.0146-0.1943,0.002-0.2929c0.0225-0.1328,0.0322-0.2666,0.0498-0.3994c0-0.004-0.001-0.0069,0-0.0127
			c0.0127-0.1104,0.0293-0.2217,0.0439-0.3311c0.0079-0.0791,0.0225-0.1582,0.0303-0.2383h0.001
			c0.0127-0.0898,0.0215-0.1797,0.0342-0.2705c0.0429-0.2861,0.2031-0.4766,0.4101-0.5898
			c-0.0322-0.0205-0.0605-0.044-0.0937-0.0586c-0.208-0.1065-0.4551-0.1582-0.7442-0.1299c-0.9922,0.124-1.9765,0.2275-2.9599,0.29
			c-1.3545-0.0127-2.7119-0.0361-4.0664-0.042c-0.1328,0-0.253,0.0254-0.3643,0.0655c-0.5293-0.0655-1.0586-0.1114-1.5937-0.1084
			c-0.0391,0-0.0684,0.0088-0.1036,0.0136c-0.33-0.0136-0.6562-0.0214-0.9882-0.0136c-0.0606,0.0039-0.1123,0.0136-0.167,0.0224
			c-0.1211-0.0136-0.2412-0.0254-0.3653-0.039c-0.3916-0.0821-0.7168,0.0468-0.9541,0.2763
			c-0.6132-0.0371-1.2343-0.0586-1.8496-0.0586c-0.2431,0-0.4843,0.0039-0.7246,0.0079c-0.207-0.1319-0.456-0.209-0.7353-0.2002
			c-1.7354,0.0507-3.459,0.1152-5.1866-0.0928c-0.5156-0.0645-0.9121,0.1377-1.164,0.4463
			c-0.1074,0.0088-0.2158,0.0185-0.3242,0.0244c0.039,2.6582-0.0401,5.3603-0.0811,8.0156
			c-0.0059,0.4824-0.334,0.7988-0.7607,0.8985c2.3828,0.2128,4.957,0.2343,7.3877,0.0468c0.1503,0.0215,0.3046,0.044,0.456,0.0684
			c0.499,0.0732,0.9981,0.1543,1.5068,0.2334c0.1954,0.0312,0.3624,0.0137,0.5127-0.0469c0.2491-0.0908,0.4336-0.2851,0.5489-0.5234
			c0.5586,0.0293,1.1152,0.0429,1.6728,0.0429c0.0723,0.0567,0.1426,0.1026,0.2139,0.1416c0.3984,0.2364,0.7783,0.2666,1.1611,0.208
			c0.3614,0.0762,0.7217,0.1348,1.1377,0.1407c0.1504,0.0029,0.2852-0.0176,0.4053-0.0518
			c0.0889,0.0518,0.1894,0.0928,0.2978,0.1231H45.4505c-0.1524,0.1562-0.3672,0.2607-0.6563,0.2539
			c-1.5361-0.0205-0.5937,0.1279-2.1142,0.166c-0.3653,0.0088-0.6914-0.0127-0.9834-0.085v4.8789h27.1347V79.764h-0.6152
			c0.0293-0.0293,0.0498-0.0625,0.0733-0.0957c0.0732,0,0.1445,0.0048,0.2148,0.0029c0.2041-0.0098,0.4141-0.0313,0.6211-0.0606
			C69.3323,79.5843,69.0013,79.5481,68.4017,79.5179 M59.2757,79.764c0.291-0.0303,0.5879-0.0713,0.8838-0.1192
			c0.2988-0.0527,0.6543-0.1709,0.956-0.0898c0.253,0.0703,0.4981,0.1406,0.7393,0.209H59.2757z"/>
	</g>
	<g>
		<path class="st17" d="M63.7542,79.764c0.0244-0.0196,0.043-0.0459,0.0664-0.0664c0.0898,0.0205,0.1826,0.0468,0.2725,0.0664
			H63.7542z"/>
	</g>
	<g>
		<path class="st17" d="M64.0364,79.4212c0.0039-0.0098,0.0117-0.0186,0.0166-0.0274c0.0742,0,0.1475,0.004,0.2246,0.0088
			c0.3858,0.0069,0.7745,0.0118,1.17,0.0254C64.931,79.4183,64.4388,79.4153,64.0364,79.4212"/>
	</g>
	<g>
		<path class="st14" d="M48.0433,62.3812c-0.543,0.1972-0.9024,0.791-0.7344,1.3847c0.0674,0.3047,0.2471,0.5576,0.4795,0.7236
			c0.039,0.0586,0.0801,0.1143,0.1435,0.1631c0.0313,0.0235,0.0703,0.0655,0.1035,0.1016c0.0362,0.0879,0.0792,0.1738,0.1368,0.2549
			c0.1777,0.2441,0.4179,0.3584,0.6894,0.4736c0.375,0.1572,0.8789-0.0264,1.1533-0.2949c0.2696-0.2676,0.4024-0.6777,0.3272-1.0547
			C49.4476,63.7151,48.6624,63.1302,48.0433,62.3812"/>
	</g>
	<g>
		<path class="st12" d="M60.4896,63.095c0.0429-0.0908,0.0839-0.1826,0.1318-0.2676c0.3047-0.5312,0.9111-0.8125,1.4961-0.5351
			c0.5078,0.2402,0.8554,0.9717,0.5342,1.4961c-0.0118,0.0195-0.0245,0.04-0.0352,0.0615
			c-0.0371,0.0674-0.0674,0.1338-0.1016,0.2021c-0.1689,0.336-0.4003,0.7071-0.7451,0.8868
			c-0.166,0.0879-0.3408,0.1396-0.5176,0.1533c-0.1523,0.1045-0.3447,0.1719-0.583,0.1719c-0.0439,0-0.0849-0.0088-0.1289-0.0137
			c0,0,0,0.001-0.0039,0.001c-0.6562,0-0.9629-0.4825-0.9599-0.9883C59.514,63.7151,59.805,63.136,60.4896,63.095"/>
	</g>
	<g>
		<path class="st6" d="M67.5862,79.722c0.2373-0.0088,0.4678-0.0137,0.6826-0.0137c0.2842,0,0.5665,0,0.8565-0.0039
			c0.5391-0.0029-2.1436-0.0147-4.0811-0.0283C65.8694,79.803,66.7796,79.7493,67.5862,79.722"/>
	</g>
	<g>
		<path class="st6" d="M65.0442,79.6761c-0.1132-0.0157-0.2255-0.0371-0.3339-0.0625c-0.4854,0.0127-0.9707,0.0254-1.4561,0.0371
			C62.9163,79.6604,63.8353,79.6683,65.0442,79.6761"/>
	</g>
	<g>
		<path class="st6" d="M68.8313,80.5667c-0.08-0.1104-0.206-0.2002-0.3652-0.2393c-0.0117-0.0078-0.0254-0.0146-0.039-0.0175
			c-0.0284-0.0518-0.0694-0.0948-0.1114-0.1377c0.4571,0.0009,0.8057,0.0029,0.959,0.0039
			c-0.3369-0.0274-0.6758-0.042-1.0117-0.0537c-0.1611-0.1358-0.3828-0.208-0.6211-0.1426
			c-0.0996,0.0244-0.1992,0.0547-0.2949,0.0801c-0.0401,0.0097-0.0684,0.0263-0.1006,0.042
			c-0.5938-0.001-1.1885,0.0117-1.7842,0.0361c-0.0947-0.1152-0.2324-0.1904-0.4209-0.1983
			c-0.5889-0.0205-1.1787,0.0206-1.7705,0.0967c-0.1533-0.0752-0.3291-0.0986-0.4893-0.0322
			c-0.0908,0.0371-0.1669,0.0879-0.2461,0.1416c-0.0126,0.002-0.0244,0.0029-0.0361,0.0049c-0.0459,0-0.0322,0.0019,0.0215,0.0019
			c-0.0195,0.0118-0.0391,0.0205-0.0566,0.0323c-0.1084-0.0254-0.2149-0.0469-0.3223-0.0645
			c-0.0693-0.0254-0.1455-0.043-0.2402-0.043c-0.0313,0-0.0655-0.0019-0.0996-0.0019c-0.46-0.0537-0.9356-0.0576-1.418-0.0361
			c-0.8897-0.0352-1.791-0.0655-2.6602,0.0029c0-0.0078-0.0039-0.0176-0.0039-0.0244c0.8115-0.1621,1.6504-0.3985,2.4453-0.7315
			c0.0078,0.0039,0.0166,0.0039,0.0293,0.0098c0.0469,0.0215,0.0996,0.0391,0.1553,0.0478c0.0029,0,0.0088,0.0039,0.0137,0.0039
			c0.0283,0.004,0.0547,0.004,0.081,0.0079h0.0508c0.2676,0.0254,0.5283,0.0312,0.791,0.0166
			c0.8672,0.0185,1.7354,0.0351,2.5938-0.0469c0.126,0.0654,0.2597,0.1211,0.3974,0.168c0.1397,0.0488,0.2842,0.0869,0.4327,0.1201
			c0.7402-0.0196,1.4794-0.0332,2.2187-0.0391c0.1172,0.0703,0.2539,0.0986,0.3945,0.0606
			c0.1416-0.0332,0.2793-0.0723,0.4219-0.1075c0.1875-0.0498,0.2998-0.1875,0.3516-0.3554
			c-0.0557-0.0069-0.1094-0.0176-0.1631-0.0293c-0.1104,0.042-0.2266,0.0761-0.3506,0.0879
			c-0.5283,0.0468-0.9082-0.087-1.1816-0.3409c0.0156-0.08,0.0205-0.1709,0.0371-0.2793c0.0078-0.0537,0-0.1035-0.0157-0.1494
			c0.086-2.2627,0.1407-4.6562-0.0976-6.8974c-0.0029-0.044-0.0254-0.0782-0.0527-0.1084
			c-0.0235-0.2617-0.0538-0.5235-0.0928-0.7735c-0.0293-0.1865-0.2315-0.3086-0.3994-0.2949
			c0.0547-0.1006,0.122-0.1894,0.208-0.2568c0.0068-0.041,0.0166-0.083,0.0166-0.124c-0.0098-0.3233-0.2207-0.6397-0.6309-0.6397
			h-0.5654c0.0791-0.0742,0.1357-0.1641,0.1514-0.2842c0.0097-0.0429,0.0175-0.0898,0.0253-0.1328
			c0.0743-0.1641,0.1026-0.3017,0.0997-0.4824c0.0351-0.1631,0.0732-0.3262,0.1132-0.4893
			c0.1534-0.6972-0.7539-0.8994-1.1377-0.4433c-0.4355-0.0772-0.8545-0.1289-1.2959-0.1494
			c0.1036-0.0352,0.1983-0.0909,0.2823-0.1905c0.165-0.1767,0.25-0.3125,0.3789-0.5361c0.124-0.2188,0.0439-0.5244-0.1289-0.7061
			c0.0859-0.3125-0.0205-0.6816-0.3916-0.7763c-0.4385-0.1114-0.8633-0.127-1.2881-0.0996c-0.0088,0-0.0166-0.0049-0.0303-0.0049
			c-0.0566,0-0.1113,0.0049-0.1631,0.0097c0,0,0-0.0048-0.0049-0.0048c-0.0293,0.0048-0.0634,0.0048-0.0976,0.0107
			c-0.0235,0-0.0469,0.0029-0.0713,0.0068c0.1689,0.6143,0.3086,1.25,0.4121,1.8985c0.0205,0.0097,0.0322,0.0224,0.0547,0.0254
			c0.085,0.0302,0.1758,0.0527,0.2637,0.0605c0.0879,0.1328,0.2158,0.2412,0.3711,0.2988
			c-0.0352-0.0048-0.0635-0.0048-0.0997-0.0048c-0.1972,0.0009-0.374-0.0313-0.5478-0.0733
			c0.2168,1.5733,0.2285,3.1904-0.0645,4.6416c-0.2548,1.2617-0.6308,2.2783-1.205,3.208c-0.0459,0.125-0.0879,0.2422-0.1309,0.3438
			c-0.6728,1.5595-1.9775,2.5654-3.3984,3.4179c-0.1524,0.0928-0.2334,0.211-0.2657,0.3331
			c-0.4668,0.1162-0.9355,0.1845-1.3935,0.1845c-0.0264,0-0.0527,0-0.0752,0.0059c-0.1875,0.0127-0.3106,0.0713-0.377,0.1504
			c0.0313,0.1494,0.0586,0.2998,0.087,0.4521c0.1279,0.1211,0.3339,0.2139,0.6074,0.2139c0.2588,0,0.5381-0.0127,0.8213-0.0391
			v0.292c-0.1055,0.2031-0.1123,0.4463,0,0.6397c0,1.3281-0.002,2.6523,0.0048,3.9804h12.4366
			c0.039-0.0537,0.0674-0.1132,0.08-0.1767c0.0088-0.0313,0.0186-0.0645,0.0186-0.0996c0.0469-0.6426,0.0557-1.3555-0.0186-2.0576
			c-0.0126-0.1202-0.0244-0.2403-0.041-0.3604c-0.0097-0.3105-0.0566-0.6211-0.1552-0.8857
			c0.081-0.0391,0.1455-0.0899,0.1962-0.1495C69.0218,81.1653,69.0218,80.8099,68.8313,80.5667"/>
	</g>
	<g>
		<path class="st1" d="M48.4964,62.8411c-0.0371,0.6787,0.1533,1.3154,0.3594,1.9492c0.0859,0.2598-0.3086,0.4287-0.3965,0.1641
			c-0.2334-0.6973-0.4258-1.3926-0.3936-2.1338C48.0794,62.5433,48.513,62.5647,48.4964,62.8411"/>
	</g>
	<g>
		<rect x="40.7132" y="80.2171" class="st1" width="3.0381" height="5.2461"/>
	</g>
	<g>
		<path class="st7" d="M41.2806,79.2522c14.9316,0,12.8476,0,27.7802,0c0.6221,0,0.6221,0.9668,0,0.9668H41.2806
			C40.6575,80.219,40.6575,79.2522,41.2806,79.2522"/>
	</g>
	<g>
		<path class="st7" d="M45.0726,69.262c6.8037,0,13.6064,0,20.4111-0.001c0.6221,0,0.6221,0.9678,0,0.9678
			c-6.8047,0.001-13.6074,0.001-20.4111,0.001C44.4476,70.2298,44.4476,69.262,45.0726,69.262"/>
	</g>
	<g>
		<path class="st7" d="M64.7854,69.3147V67.345c0-0.6221,0.9649-0.6221,0.9649,0v1.9697
			C65.7503,69.9388,64.7854,69.9388,64.7854,69.3147"/>
	</g>
	<g>
		<path class="st7" d="M44.4817,69.4231v-1.9882c0-0.6211,0.9668-0.6211,0.9668,0v1.9882
			C45.4485,70.0472,44.4817,70.0472,44.4817,69.4231"/>
	</g>
	<g>
		<path class="st7" d="M44.9114,67.6507c-0.624,0-0.624-0.9668,0-0.9668C45.5345,66.6839,45.5345,67.6507,44.9114,67.6507"/>
	</g>
	<g>
		<path class="st7" d="M44.9114,66.6839h20.3389c0.623,0,0.623,0.9668,0,0.9668c-6.7803,0-13.5606,0-20.3389,0
			C44.2874,67.6507,44.2874,66.6839,44.9114,66.6839"/>
	</g>
	<g>
		<path class="st7" d="M64.1927,66.4632v0.0293c0,0.623-0.9668,0.623-0.9668,0v-1.6084c0-0.624,0.9668-0.624,0.9668,0v1.6084
			c0,0.623-0.9668,0.623-0.9668,0v-0.0293C63.2259,65.8401,64.1927,65.8401,64.1927,66.4632"/>
	</g>
	<g>
		<path class="st7" d="M63.6038,65.4485c-5.5918,0-11.1855,0-16.7764,0c-0.623,0-0.623-0.9658,0-0.9658
			c5.5909,0,11.1846,0,16.7764,0C64.2269,64.4827,64.2269,65.4485,63.6038,65.4485"/>
	</g>
	<g>
		<path class="st7" d="M45.931,66.6839v-1.7725c0-0.623,0.9668-0.623,0.9668,0v1.7725C46.8978,67.306,45.931,67.306,45.931,66.6839"
			/>
	</g>
	<g>
		<path class="st7" d="M62.1165,64.552v-3.0419c0-0.625,0.9668-0.625,0.9668,0v3.0419
			C63.0833,65.1761,62.1165,65.1761,62.1165,64.552"/>
	</g>
	<g>
		<path class="st7" d="M62.762,61.7435c-1.0488,1.0517-2.1016,2.1005-3.1514,3.1513c-0.4404,0.4424-1.124-0.2422-0.6826-0.6826
			c1.0498-1.0508,2.0996-2.1025,3.1504-3.1523C62.5208,60.6185,63.2044,61.3011,62.762,61.7435"/>
	</g>
	<g>
		<path class="st7" d="M49.8685,64.6097c-0.8008-0.8018-1.5997-1.6006-2.4004-2.4004c-0.4414-0.4424,0.2441-1.126,0.6855-0.6846
			c0.7988,0.8018,1.5986,1.6006,2.3975,2.4004C50.9925,64.3675,50.3099,65.0491,49.8685,64.6097"/>
	</g>
	<g>
		<path class="st7" d="M48.1507,61.9026v2.4707c0,0.6241-0.9658,0.6241-0.9658,0v-2.4707
			C47.1849,61.2806,48.1507,61.2806,48.1507,61.9026"/>
	</g>
	<g>
		<path class="st9" d="M69.0345,84.4505H44.0296c-0.294,0-0.2949,0.456,0,0.456h0.0498c0.2939,0,0.2949-0.456,0-0.456h-2.9648
			c-0.295,0-0.295,0.456,0,0.456h2.9648c0.2939,0,0.2949-0.456,0-0.456h-0.0498c-0.294,0-0.2949,0.456,0,0.456h25.0049
			C69.3274,84.9065,69.3284,84.4505,69.0345,84.4505"/>
	</g>
	<g>
		<path class="st10" d="M66.3665,82.1058c0,0.4365-0.3535,0.7929-0.792,0.7929H44.7737c-0.4384,0-0.7939-0.3564-0.7939-0.7929
			c0-0.4385,0.3555-0.794,0.7939-0.794h20.8008C66.013,81.3118,66.3665,81.6673,66.3665,82.1058"/>
	</g>
	<g>
		<path class="st9" d="M65.5745,83.2015H44.7737c-0.6054,0-1.0966-0.4912-1.0966-1.0957c0-0.6055,0.4912-1.0987,1.0966-1.0987
			h20.8008c0.6045,0,1.0957,0.4932,1.0957,1.0987C66.6702,82.7103,66.179,83.2015,65.5745,83.2015z M44.7737,81.6155
			c-0.2705,0-0.4883,0.2207-0.4883,0.4903c0,0.2695,0.2178,0.4892,0.4883,0.4892h20.8008c0.2686,0,0.4873-0.2197,0.4873-0.4892
			c0-0.2696-0.2187-0.4903-0.4873-0.4903H44.7737z"/>
	</g>
	<g>
		<path class="st7" d="M41.7298,84.5325v-4.7588c0-0.5879-0.9111-0.5888-0.9111,0v4.7588
			C40.8187,85.1204,41.7298,85.1204,41.7298,84.5325"/>
	</g>
	<g>
		<path class="st7" d="M69.5413,84.5325v-4.7588c0-0.5879-0.9121-0.5888-0.9121,0v4.7588
			C68.6292,85.1204,69.5413,85.1204,69.5413,84.5325"/>
	</g>
	<g>
		<path class="st7" d="M41.136,85.1175h27.9942c0.5869,0,0.5879-0.9112,0-0.9112H41.136
			C40.5491,84.2063,40.5481,85.1175,41.136,85.1175"/>
	</g>
	<g>
		<path class="st7" d="M65.1468,70.0813l1.0752,1.1407c0.4043,0.4267,1.0478-0.2178,0.6455-0.6446l-1.0762-1.1406
			C65.388,69.0091,64.7444,69.6556,65.1468,70.0813"/>
	</g>
	<g>
		<path class="st7" d="M66.1146,70.9368v7.9277c0,0.586,0.9101,0.587,0.9101,0v-0.2167c0-0.5879-0.9101-0.5889-0.9101,0v0.2167
			c0,0.586,0.9101,0.587,0.9101,0v-7.9277C67.0247,70.3489,66.1146,70.3489,66.1146,70.9368"/>
	</g>
	<g>
		<path class="st7" d="M44.5228,69.4368c-0.3584,0.3799-0.7188,0.7598-1.0762,1.1406c-0.4014,0.4248,0.2412,1.0713,0.6435,0.6446
			l1.0772-1.1407C45.5696,69.6556,44.9271,69.0091,44.5228,69.4368"/>
	</g>
	<g>
		<path class="st7" d="M43.2864,70.9368v8.4951c0,0.586,0.9131,0.5879,0.9131,0v-0.2314c0-0.5869-0.9131-0.5879-0.9131,0v0.2314
			c0,0.586,0.9131,0.5879,0.9131,0v-8.4951C44.1995,70.3489,43.2864,70.3489,43.2864,70.9368"/>
	</g>
	<g>
		<path class="st6" d="M85.6819,63.1087c-0.8388-0.8701-1.8935-1.2539-2.9502-1.7891c-0.5058-0.2549-0.9404-0.5898-1.4199-0.8867
			c-0.3525-0.2168-0.9883-0.3594-1.4189-0.5859c0.3545-0.8155,1.123-1.4698,1.5039-2.2373
			c0.7832,0.4492,1.6689,0.7422,2.2568,1.3965c0.5205,0.5771,1.3369-0.3174,0.8174-0.8936
			c-0.8379-0.9307-2.1494-1.0977-3.0537-1.9785c-0.3584-0.3496-1.0654-0.0557-1.0137,0.4648
			c0.0508,0.5196-0.7978,1.1856-1.0605,1.6436c-0.2285,0.4033-0.5938,1.0215-0.6856,1.4765
			c-0.0908,0.4561-0.0762,0.6807,0.3213,0.9873c0.3652,0.2813,1.001,0.3741,1.4072,0.5811
			c0.4981,0.2549,0.9219,0.6338,1.4073,0.9102c1.0586,0.6005,2.2011,0.9023,3.0703,1.8027
			C85.4046,64.5628,86.2229,63.6692,85.6819,63.1087"/>
	</g>
	<g>
		<path class="st6" d="M88.556,60.2532c-0.7803,0-0.7413,1.211,0.038,1.211C89.3743,61.4642,89.3353,60.2532,88.556,60.2532"/>
	</g>
	<g>
		<path class="st6" d="M86.3782,63.8753c-0.7812,0-0.7412,1.21,0.0381,1.21C87.1966,65.0853,87.1575,63.8753,86.3782,63.8753"/>
	</g>
	<g>
		<path class="st6" d="M88.3714,60.7239c-0.2608-0.3769-0.6494-0.5654-1.0791-0.6933c0.0019-0.0489,0.0146-0.0948,0.0058-0.1475
			c-0.0214-0.1416-0.0898-0.2451-0.1787-0.3496c-0.205-0.2383-0.4687-0.2305-0.6738-0.1055
			c-0.7803-0.622-1.8555-0.9853-2.8174-1.3242c-0.5801-0.4033-1.2236-0.7236-1.7969-1.1396
			c-0.2031-0.1485-0.4707-0.1075-0.6572,0.0371c-0.249-0.0059-0.5097,0.1406-0.5986,0.3925
			c-0.2432,0.6836-0.669,1.2383-0.8174,1.9532c-0.1035,0.0771-0.208,0.1552-0.3164,0.2363
			c-0.2656,0.1963-0.208,0.5918-0.0293,0.8145c0.623,0.7695,1.625,1.1269,2.4922,1.5459c1.1045,0.5351,2.1475,1.0644,3.2705,1.5341
			c0.0762,0.3936,0.2363,0.7666,0.4766,1.0547c0.1894,0.2266,0.6132,0.2549,0.8144,0.0283
			c0.8281-0.9121,1.3193-2.1757,1.8848-3.2558C88.4397,61.136,88.4925,60.8987,88.3714,60.7239"/>
	</g>
	<g>
		<path class="st7" d="M78.1907,60.7669c3.3809,2.0283,6.7637,4.0518,10.1465,6.0771c0.5049,0.3028,0.9629-0.4843,0.459-0.7861
			c-3.3828-2.0254-6.7637-4.0508-10.1455-6.0781C78.1468,59.677,77.6868,60.4651,78.1907,60.7669"/>
	</g>
	<g>
		<path class="st7" d="M80.1399,56.011c3.7696,2.2129,7.5391,4.4229,11.3077,6.6348c0.5068,0.2998,0.9668-0.4902,0.4599-0.7852
			c-3.7685-2.2128-7.539-4.4248-11.3076-6.6367C80.094,54.9261,79.6341,55.7142,80.1399,56.011"/>
	</g>
	<g>
		<path class="st8" d="M92.7103,63.4866c0.3955,1.5801-0.5635,3.1807-2.1456,3.5781c-1.5791,0.3965-3.1816-0.5634-3.5771-2.1445
			c-0.3965-1.5801,0.5625-3.1826,2.1436-3.5781C90.7122,60.9476,92.3147,61.9056,92.7103,63.4866"/>
	</g>
	<g>
		<path class="st9" d="M89.845,67.4573c-1.4941,0-2.789-1.0127-3.1523-2.4629c-0.211-0.8427-0.0811-1.7177,0.3652-2.4638
			c0.4463-0.7452,1.1563-1.2715,1.999-1.4825c0.2598-0.0654,0.5274-0.0976,0.794-0.0976c1.4941,0,2.79,1.0107,3.1543,2.4619
			c0.4355,1.7393-0.626,3.5098-2.3653,3.9463C90.3792,67.4251,90.1126,67.4573,89.845,67.4573z M89.8509,61.5569
			c-0.2168,0-0.4346,0.0274-0.6455,0.0801c-0.6866,0.1719-1.2647,0.5996-1.627,1.2061c-0.3633,0.6064-0.4678,1.3173-0.2959,2.0039
			c0.2949,1.1797,1.3487,2.0039,2.5625,2.0039c0.2168,0,0.4346-0.0274,0.6465-0.0811c1.4141-0.3545,2.2793-1.7949,1.9238-3.2099
			C92.1204,62.3812,91.0647,61.5569,89.8509,61.5569z"/>
	</g>
	<g>
		<path class="st10" d="M91.7249,69.388c0.1035,0.415-0.1484,0.8349-0.5654,0.9404c-0.4121,0.1035-0.834-0.1484-0.9375-0.5635
			l-0.7285-2.9023c-0.1045-0.417,0.1484-0.8369,0.5634-0.9414c0.4151-0.1035,0.835,0.1494,0.9405,0.5654L91.7249,69.388z"/>
	</g>
	<g>
		<path class="st9" d="M90.971,70.6556c-0.4941,0-0.9238-0.336-1.0459-0.8164l-0.7266-2.9024
			c-0.1435-0.5771,0.208-1.166,0.7842-1.3105c0.5733-0.1416,1.166,0.2187,1.3096,0.7861l0.7275,2.9004
			c0.1436,0.5781-0.209,1.165-0.7842,1.3096C91.1487,70.6429,91.0608,70.6556,90.971,70.6556z M90.2464,66.2015
			c-0.0381,0-0.0772,0.0058-0.1162,0.0136c-0.252,0.0645-0.4053,0.3213-0.3428,0.5743l0.7285,2.9013
			c0.0615,0.2481,0.3174,0.4072,0.5703,0.3428c0.252-0.0635,0.4063-0.3203,0.3438-0.5723l-0.7276-2.8994
			C90.6487,66.3489,90.4622,66.2015,90.2464,66.2015z"/>
	</g>
	<g>
		<path class="st10" d="M95.3177,66.4554c0.3594,0.2334,0.4599,0.7119,0.2275,1.0732c-0.2344,0.3574-0.7158,0.458-1.0732,0.2236
			l-2.5049-1.6337c-0.3604-0.2344-0.4609-0.7129-0.2266-1.0723c0.2334-0.3584,0.7129-0.46,1.0723-0.2256L95.3177,66.4554z"/>
	</g>
	<g>
		<path class="st9" d="M94.8948,68.1819c-0.209,0-0.414-0.0605-0.5888-0.1748l-2.5059-1.6338
			c-0.2422-0.1582-0.4082-0.3984-0.4668-0.6806c-0.0596-0.2823-0.0049-0.5703,0.1523-0.8135
			c0.3145-0.4795,1.0108-0.6299,1.4932-0.3125l2.5049,1.6348c0.2402,0.1552,0.4072,0.3964,0.4668,0.6767
			c0.0596,0.2842,0.0058,0.5723-0.1514,0.8155C95.5979,68.0003,95.2601,68.1819,94.8948,68.1819z M92.389,64.9983
			c-0.1602,0-0.3077,0.0801-0.3936,0.2129c-0.0693,0.1075-0.0937,0.2325-0.0683,0.3565c0.0263,0.1211,0.0976,0.2275,0.205,0.2959
			l2.5059,1.6338c0.2109,0.1396,0.5156,0.0742,0.6523-0.1348c0.0684-0.1055,0.0928-0.2334,0.0645-0.3564
			c-0.0254-0.1221-0.0977-0.2276-0.2012-0.295l-2.5068-1.6357C92.5687,65.0257,92.4817,64.9983,92.389,64.9983z"/>
	</g>
	<g>
		<path class="st5" d="M79.7913,54.4993c-0.0225-0.1523-0.1064-0.2519-0.2139-0.3066c0.1817-0.5225-0.0791-1.2823-0.3232-1.711
			c-0.4023-0.7002-0.9434-1.2373-1.6094-1.6338c-0.0039-0.0117-0.0078-0.0224-0.0117-0.0312
			c-0.5049-0.833-1.9785-2.0137-3.0137-2.041c-1.2968-0.0362-2.3623,0.54-3.3105,1.3154c-0.7959,0.084-1.6436,0.6553-1.9561,1.3701
			c-0.1855-0.0898-0.4179-0.0625-0.541,0.1729c-0.3242,0.6191-0.6142,1.2285-0.831,1.8594
			c-0.375,0.2343-0.4141,0.9052-0.4043,1.4502c-0.0996,0.0566-0.1797,0.1474-0.1944,0.2617
			c-0.1191,0.8935,0.4492,2.0302,1.0733,2.9785c-0.0869,0.1221-0.1026,0.2793,0.0195,0.4355
			c1.667,2.127,3.8662,3.6993,6.6797,2.6221c0.1435,0.1201,0.3701,0.1426,0.54,0.0313c0.9717-0.6319,1.8946-1.1875,2.5655-2.0245
			c0.0507-0.0332,0.0986-0.0761,0.1298-0.1377c0.8438-0.0517,1.0352-1.1279,1.1797-1.83c0.0108-0.0547,0.0049-0.1104-0.0058-0.1621
			c0.1172-0.4776,0.1416-0.9727,0.0693-1.4522c0.1143-0.0488,0.2002-0.1514,0.2022-0.3242
			C79.8411,55.0013,79.8382,54.8353,79.7913,54.4993 M75.6849,56.887c-0.2041,0.3184-0.5723,0.4912-0.9317,0.4346
			c-0.1289,0.0605-0.2441,0.1592-0.331,0.3125c-0.3047,0.0605-0.6065,0.123-0.9053,0.209
			c-0.0342-0.0157-0.0703-0.0323-0.1055-0.0489c-0.3789-0.2851-0.8008-0.4902-1.0947-0.4746
			c-0.0957,0.0078-0.1797,0.0479-0.25,0.1084c-0.2021-0.2939-0.4111-0.5849-0.6055-0.8828c-0.124-0.3135-0.2607-0.624-0.4033-0.9307
			c0.0332-0.0234,0.0674-0.0488,0.0938-0.0898c0.0214-0.0303,0.04-0.0664,0.0605-0.0967l0.001,0.001
			c0.0029-0.0068,0.0039-0.0117,0.0058-0.0166c0.3858-0.6406,0.6973-1.6504,1.4385-1.8779c0.1817-0.0537,0.252-0.2129,0.2461-0.375
			c0.5117,0.1172,1.0527,0.1748,1.5059,0.2646c0.1386,0.0274,0.2519-0.0156,0.3379-0.0869
			c0.1787,0.1416,0.3613,0.2754,0.5507,0.3994c0.0303,0.1172,0.0567,0.2363,0.0831,0.3535c0.166,0.0801,0.3144,0.2022,0.4316,0.3594
			C76.3079,55.1106,76.1048,56.2356,75.6849,56.887"/>
	</g>
	<g>
		<path class="st11" d="M71.7562,61.927c-0.0997-0.0429-0.1963-0.0937-0.2911-0.1445c-0.1826-0.1943-0.4091-0.3486-0.6445-0.4814
			c-0.1553-0.0889-0.3281,0.041-0.3271,0.1875c-0.6436-0.7168-1.1446-1.4375-1.501-2.2012
			c-0.0205-0.0195-0.044-0.0303-0.0625-0.0586c-0.8067-1.1191-0.9942-2.5947-0.9981-3.9434
			c-0.0039-1.3554,0.0635-3.0683,1.0381-4.1181c0.2324-0.251,0.5654-0.1182,0.6895,0.1152
			c0.7304-1.1045,1.7685-1.9502,3.1445-2.2412c0.5439-0.1143,0.7168,0.7324,0.1719,0.8408
			c-2.2656,0.4561-3.1963,2.6153-3.6436,4.6514c-0.6406,2.915,0.374,5.0596,2.4268,7.0371
			c0.1416,0.1377,0.1523,0.2998,0.0908,0.4365C71.8265,61.9759,71.7991,61.9466,71.7562,61.927"/>
	</g>
	<g>
		<path class="st7" d="M73.805,62.3069L73.805,62.3069c-1.9278,0-3.7813-0.8144-5.085-2.2334
			c-1.2461-1.3564-1.8906-3.1191-1.8115-4.9609c0.0791-1.8418,0.8691-3.543,2.2256-4.79c1.2763-1.1739,2.9346-1.8184,4.667-1.8184
			c1.9277,0,3.7812,0.8135,5.0859,2.2334c1.2451,1.3574,1.8887,3.1191,1.8106,4.9609c-0.0782,1.8409-0.8682,3.543-2.2276,4.7891
			C77.1946,61.6614,75.5374,62.3069,73.805,62.3069z M73.8011,49.4163c-1.5039,0-2.9424,0.5596-4.0498,1.5762
			c-1.1778,1.084-1.8653,2.5605-1.9307,4.1582c-0.0693,1.5996,0.4883,3.1279,1.5713,4.3056
			c1.1299,1.2315,2.7402,1.9395,4.4131,1.9395l0,0c1.5039,0,2.9414-0.5605,4.0498-1.5801c1.1787-1.082,1.8662-2.5566,1.9316-4.1553
			c0.0694-1.5986-0.4902-3.1279-1.5732-4.3066C77.0833,50.1214,75.4739,49.4163,73.8011,49.4163z"/>
	</g>
	<g>
		<path class="st7" d="M73.7278,58.4349c-0.8105,0-1.5908-0.3438-2.1386-0.9414c-1.084-1.1797-1.0059-3.0225,0.1738-4.1065
			c0.5391-0.4941,1.2363-0.7666,1.9648-0.7666c0.8125,0,1.5928,0.3428,2.1416,0.9404c0.5254,0.5723,0.7979,1.3135,0.7647,2.0899
			c-0.0342,0.7754-0.3672,1.4922-0.9395,2.0176C75.1575,58.1614,74.4593,58.4349,73.7278,58.4349z M73.7278,53.5315
			c-0.499,0-0.9775,0.1875-1.3466,0.5264c-0.8116,0.7441-0.8653,2.0088-0.1202,2.8184c0.7149,0.7802,2.0371,0.8379,2.8164,0.1191
			c0.3936-0.3603,0.6221-0.8516,0.6465-1.3828c0.0215-0.5322-0.166-1.043-0.5263-1.4346
			C74.8216,53.7669,74.2864,53.5315,73.7278,53.5315z"/>
	</g>
	<g>
		<path class="st10" d="M95.6927,62.4036c0.4267,0.0469,0.7314,0.4307,0.6855,0.8565c-0.0478,0.4248-0.4306,0.7314-0.8574,0.6816
			l-2.9727-0.3301c-0.4257-0.0469-0.7304-0.4306-0.6835-0.8545c0.0468-0.4277,0.4296-0.7324,0.8564-0.6855L95.6927,62.4036z"/>
	</g>
	<g>
		<path class="st9" d="M95.6077,64.2513c-0.039,0-0.0791-0.002-0.1191-0.0059l-2.9746-0.331
			c-0.2862-0.0323-0.543-0.1739-0.7237-0.3995c-0.1797-0.2265-0.2597-0.5068-0.2275-0.7939
			c0.0635-0.585,0.5869-1.0127,1.1904-0.9522l2.9737,0.3321c0.5918,0.0664,1.0195,0.6015,0.9531,1.1924
			C96.6185,63.8401,96.1585,64.2513,95.6077,64.2513z M92.681,62.3733c-0.2891,0-0.4893,0.1787-0.5137,0.4161
			c-0.0156,0.125,0.0205,0.248,0.0976,0.3466c0.0801,0.0967,0.1914,0.1602,0.3164,0.1739l3.0264,0.3339
			c0.2402,0,0.4424-0.1796,0.4678-0.4189c0.0303-0.2568-0.1572-0.4902-0.416-0.5195l-2.9727-0.3321
			C92.6849,62.3733,92.6829,62.3733,92.681,62.3733z"/>
	</g>
	<g>
		<path class="st0" d="M60.2122,48.0716c-0.0752-0.2451-0.3135-0.3711-0.5605-0.3194c-0.6573,0.1436-0.9854,1.1104-1.2188,2.0518
			c-0.2012,0.373-0.4014,0.7471-0.6035,1.1221c-0.3418,0.581-0.7481,1.1494-1.0215,1.7685
			c-0.0664,0.1133-0.1308,0.2266-0.1953,0.3389c-1.5215-0.7959-3.5879-0.2627-5.1094,0.3818
			c-0.123-0.3789-0.4238-1.2177-0.5478-1.5986c-0.0967-0.3691-0.1944-0.7363-0.2735-1.1133
			c-0.0478-0.2285-0.205-0.3242-0.374-0.3271l-0.0283-1.5225c-0.0108-0.5869-0.9229-0.5898-0.9111,0
			c0.0273,1.4844,0.0556,2.9717,0.083,4.457c0.0156,0.8457-0.0977,1.8321,0.0859,2.6954c-0.2021,0.1591-0.292,0.4599-0.0508,0.6621
			c0.5127,0.4355,1.0469,0.8037,1.6143,1.1445c0.0459,0.1045,0.1338,0.1894,0.2822,0.2168
			c0.0283,0.0068,0.0596,0.0078,0.0889,0.0117c0.0215,0.0127,0.039,0.0264,0.0605,0.0371c0.1455,0.0811,0.2852,0.0713,0.3994,0.0137
			c0.6075,0.0439,1.2735,0.042,1.7998,0.2637c0.0577,0.1064,0.1407,0.1962,0.2481,0.2402c0.042,0.0176,0.084,0.0342,0.1269,0.0518
			c0.0332,0.0126,0.0616,0.0117,0.0909,0.0156c0.0205,0.0215,0.0459,0.0381,0.0654,0.0615
			c0.1055,0.1201,0.2939,0.1572,0.4433,0.1162c0.0206-0.0049,0.0401-0.0098,0.0596-0.0146c0.1416-0.0391,0.292-0.167,0.3194-0.3184
			c0.0019-0.0146,0.0039-0.0283,0.0058-0.041c0.2168-0.0342,0.4317-0.0654,0.6475-0.0986c0.9726,0.0742,2.2217-0.0938,2.8994-0.587
			c0.1133-0.0849,0.2129-0.1836,0.3047-0.289c0.2383,0.1738,0.6582,0.1289,0.7265-0.2227l0.168-0.2627
			c0.1279-0.1006,0.1465-0.2968,0.1182-0.4433c-0.1758-0.836-0.0752-1.5537,0.0029-2.3838c0.0117-0.1221-0.0283-0.2178-0.0947-0.291
			c0.0468-1.0655,0.084-2.1299,0.1181-3.1944c0.002-0.0791-0.0214-0.1465-0.0556-0.207c0.0322-0.2871,0.0713-0.5732,0.1269-0.8672
			C60.1614,49.0579,60.3782,48.6224,60.2122,48.0716"/>
	</g>
	<g>
		<polyline class="st18" points="58.9485,48.1976 58.2659,58.0491 59.7073,57.5169 60.1653,47.7171 58.3147,49.6673 		"/>
	</g>
	<g>
		<polyline class="st19" points="49.2767,48.0716 49.2259,57.262 50.9114,57.7571 50.9661,51.6145 49.4778,48.3001 		"/>
	</g>
	<g>
		<polygon class="st19" points="53.6565,58.2376 54.3782,55.5423 54.5667,59.137 		"/>
	</g>
	<g>
		<path class="st7" d="M49.1673,57.597c1.3515,0.9023,2.8906,1.3554,4.5146,1.3457c0.5869-0.0039,0.5869-0.916,0-0.9112
			c-1.4785,0.0088-2.8252-0.4003-4.0537-1.2207C49.139,56.4827,48.6819,57.2728,49.1673,57.597"/>
	</g>
	<g>
		<path class="st7" d="M53.3802,58.7288c0.1972,0.291,0.415,0.5664,0.6123,0.8555c0.3281,0.4834,1.1181,0.0273,0.7861-0.46
			c-0.1963-0.29-0.4121-0.5654-0.6103-0.8545C53.8411,57.7864,53.0501,58.2425,53.3802,58.7288"/>
	</g>
	<g>
		<path class="st7" d="M54.6507,59.7444c0.332-0.25,0.6621-0.5029,0.9912-0.7549c0.1992-0.1513,0.2969-0.3916,0.1641-0.623
			c-0.1104-0.1943-0.4278-0.3125-0.6231-0.1641c-0.332,0.25-0.6621,0.5039-0.9922,0.7549c-0.1972,0.1504-0.2949,0.3906-0.1631,0.624
			C54.137,59.7747,54.4563,59.8929,54.6507,59.7444"/>
	</g>
	<g>
		<path class="st7" d="M55.4856,58.9808c1.5918-0.0274,3.1026-0.378,4.5508-1.0362c0.5323-0.2431,0.0703-1.0302-0.4609-0.7881
			c-1.2979,0.5909-2.6641,0.8887-4.0899,0.9122C54.8997,58.0784,54.8987,58.9915,55.4856,58.9808"/>
	</g>
	<g>
		<path class="st7" d="M49.6058,56.8323V46.3255c0-0.5879-0.9121-0.5879-0.9121,0v10.5068
			C48.6937,57.4192,49.6058,57.4202,49.6058,56.8323"/>
	</g>
	<g>
		<path class="st7" d="M48.7991,46.4573c0.7002,2.2276,1.4024,4.458,2.1026,6.6865c0.1757,0.5577,1.0556,0.3194,0.8789-0.2431
			c-0.7012-2.2285-1.4004-4.457-2.1016-6.6865C49.5032,45.6575,48.6224,45.8948,48.7991,46.4573"/>
	</g>
	<g>
		<path class="st7" d="M60.594,57.3392V46.4007c0-0.5869-0.9111-0.5869-0.9111,0v10.9385
			C59.6829,57.9261,60.594,57.9261,60.594,57.3392"/>
	</g>
	<g>
		<path class="st7" d="M59.72,45.927l-3.4238,6.4434c-0.2754,0.5186,0.5098,0.9805,0.7871,0.4619
			c1.1406-2.1484,2.2822-4.2969,3.4238-6.4443C60.7835,45.8704,59.9964,45.4085,59.72,45.927"/>
	</g>
	<g>
		<path class="st12" d="M52.9026,55.762c0,0.4111-0.33,0.7422-0.7392,0.7422s-0.7422-0.3311-0.7422-0.7422
			c0-0.4092,0.333-0.7402,0.7422-0.7402S52.9026,55.3528,52.9026,55.762"/>
	</g>
	<g>
		<path class="st12" d="M57.8978,55.8587c0,0.4092-0.3311,0.7402-0.7403,0.7402c-0.4092,0-0.7412-0.331-0.7412-0.7402
			c0-0.4092,0.332-0.7412,0.7412-0.7412C57.5667,55.1175,57.8978,55.4495,57.8978,55.8587"/>
	</g>
	<g>
		<path class="st1" d="M52.305,55.6302c0,0.1572-0.1279,0.2851-0.2862,0.2851c-0.1562,0-0.2832-0.1279-0.2832-0.2851
			c0-0.1563,0.127-0.2842,0.2832-0.2842C52.1771,55.346,52.305,55.4739,52.305,55.6302"/>
	</g>
	<g>
		<path class="st1" d="M57.3099,55.6585c0,0.1572-0.1289,0.2842-0.2852,0.2842c-0.1572,0-0.2851-0.127-0.2851-0.2842
			c0-0.1572,0.1279-0.2842,0.2851-0.2842C57.181,55.3743,57.3099,55.5013,57.3099,55.6585"/>
	</g>
</g>
<circle class="st4" cx="28.4583" cy="40.5833" r="1"/>
<circle class="st4" cx="33.4593" cy="40.5833" r="1"/>
<circle class="st4" cx="38.4603" cy="40.5833" r="1"/>
<circle class="st4" cx="43.4612" cy="40.5833" r="1"/>
<circle class="st4" cx="48.4622" cy="40.5833" r="1"/>
<circle class="st4" cx="53.4632" cy="40.5833" r="1"/>
<circle class="st4" cx="58.4642" cy="40.5833" r="1"/>
<circle class="st4" cx="63.4651" cy="40.5833" r="1"/>
<circle class="st4" cx="68.4661" cy="40.5833" r="1"/>
<circle class="st4" cx="73.4671" cy="40.5833" r="1"/>
<circle class="st4" cx="78.4681" cy="40.5833" r="1"/>
<circle class="st4" cx="83.469" cy="40.5833" r="1"/>
</svg>
