<svg id="Layer_1" data-name="Layer 1" xmlns="http://www.w3.org/2000/svg" xmlns:xlink="http://www.w3.org/1999/xlink" viewBox="0 0 110.9 128"><defs><style>.cls-1{font-size:4px;fill:none;font-family:DDCHardware-Regular, DDC Hardware;letter-spacing:-0.03em;}.cls-2{letter-spacing:-0.02em;}.cls-3{fill:url(#linear-gradient);}.cls-4{opacity:0.13;isolation:isolate;}.cls-5{fill:#fffbdd;}.cls-6{fill:#474747;}.cls-7{clip-path:url(#clip-path);}.cls-8{fill:#5e5e5e;}.cls-9{fill:#d8733b;}.cls-10{fill:#633a2f;}.cls-11{fill:#fff;}.cls-12{fill:#545659;}.cls-13{fill:#f27d7f;}.cls-14{fill:#3f2926;}.cls-15{fill:#fdfadc;}.cls-16{fill:#fbf5b5;}.cls-17{fill:#fcf4a2;}.cls-18{fill:#f496a9;}.cls-19{fill:#fbe974;}.cls-20{fill:#c96836;}.cls-21{fill:#72402e;}.cls-22{fill:#c26034;}.cls-23{fill:#5c3025;}.cls-24{fill:#535355;}.cls-25{fill:#d86f66;}</style><linearGradient id="linear-gradient" x1="0.12" y1="64.14" x2="110.97" y2="64.14" gradientUnits="userSpaceOnUse"><stop offset="0" stop-color="#fff"/><stop offset="1" stop-color="#242525" stop-opacity="0.5"/></linearGradient><clipPath id="clip-path"><text class="cls-1" transform="translate(-20.75 -6.3)">#ETHDENVER#BEABUFFICORN#ETHDENVER#BEABUFFICORN#ETHDENVER#BE<tspan class="cls-2" x="151.24" y="0">-</tspan><tspan x="0" y="3">ABUFFICORN#ETHDENVER#BEABUFFICORN#ETHDENVER#BEABUFFICORN#ETHDENVER#BEABUFFIC</tspan><tspan x="0" y="6">ORN#ETHDENVER#BEABUFFICORN#ETHDENVER#BEABUFFICORN#ETHDENVER#BEABUFFICORN#ET</tspan><tspan x="0" y="9">HDENVER#BEABUFFICORN#ETHDENVER#BEABUFFICORN#ETHDENVER#BEABUFFICORN#ETHDENVER</tspan><tspan x="0" y="12">#BEABUFFICORN#ETHDENVER#BEABUFFICORN#ETHDENVER#BEABUFFICORN#ETHDENVER#BEABU</tspan><tspan x="0" y="15">FFICORN#ETHDENVER#BEABUFFICORN#ETHDENVER#BEABUFFICORN#ETHDENVER#BEABUFFICORN</tspan><tspan x="0" y="18">#ETHDENVER#BEABUFFICORN#ETHDENVER#BEABUFFICORN#ETHDENVER#BEABUFFICORN#ETHDEN</tspan><tspan x="0" y="21">VER#BEABUFFICORN#ETHDENVER#BEABUFFICORN#ETHDENVER#BEABUFFICORN#ETHDENVER#BE</tspan><tspan x="0" y="24">ABUFFICORN#ETHDENVER#BEABUFFICORN#ETHDENVER#BEABUFFICORN#ETHDENVER#BEABUFFIC</tspan><tspan x="0" y="27">ORN#ETHDENVER#BEABUFFICORN#ETHDENVER#BEABUFFICORN#ETHDENVER#BEABUFFICORN#ET</tspan><tspan x="0" y="30">HDENVER#BEABUFFICORN#ETHDENVER#BEABUFFICORN#ETHDENVER#BEABUFFICORN#ETHDENVER</tspan><tspan x="0" y="33">#BEABUFFICORN#ETHDENVER#BEABUFFICORN#ETHDENVER#BEABUFFICORN#ETHDENVER#BEABU</tspan><tspan x="0" y="36">FFICORN#ETHDENVER#BEABUFFICORN#ETHDENVER#BEABUFFICORN#ETHDENVER#BEABUFFICORN</tspan><tspan x="0" y="39">#ETHDENVER#BEABUFFICORN#ETHDENVER#BEABUFFICORN#ETHDENVER#BEABUFFICORN#ETHDEN</tspan><tspan x="0" y="42">VER#BEABUFFICORN#ETHDENVER#BEABUFFICORN#ETHDENVER#BEABUFFICORN#ETHDENVER#BE</tspan><tspan x="0" y="45">ABUFFICORN#ETHDENVER#BEABUFFICORN#ETHDENVER#BEABUFFICORN#ETHDENVER#BEABUFFIC</tspan><tspan x="0" y="48">ORN#ETHDENVER#BEABUFFICORN#ETHDENVER#BEABUFFICORN#ETHDENVER#BEABUFFICORN#ET</tspan><tspan x="0" y="51">HDENVER#BEABUFFICORN#ETHDENVER#BEABUFFICORN#ETHDENVER#BEABUFFICORN#ETHDENVER</tspan><tspan x="0" y="54">#BEABUFFICORN#ETHDENVER#BEABUFFICORN#ETHDENVER#BEABUFFICORN#ETHDENVER#BEABU</tspan><tspan x="0" y="57">FFICORN#ETHDENVER#BEABUFFICORN#ETHDENVER#BEABUFFICORN#ETHDENVER#BEABUFFICORN</tspan><tspan x="0" y="60">#ETHDENVER#BEABUFFICORN#ETHDENVER#BEABUFFICORN#ETHDENVER#BEABUFFICORN#ETHDEN</tspan><tspan x="0" y="63">VER#BEABUFFICORN#ETHDENVER#BEABUFFICORN#ETHDENVER#BEABUFFICORN#ETHDENVER#BE</tspan><tspan x="0" y="66">ABUFFICORN#ETHDENVER#BEABUFFICORN#ETHDENVER#BEABUFFICORN#ETHDENVER#BEABUFFIC</tspan><tspan x="0" y="69">ORN#ETHDENVER#BEABUFFICORN#ETHDENVER#BEABUFFICORN#ETHDENVER#BEABUFFICORN#ET</tspan><tspan x="0" y="72">HDENVER#BEABUFFICORN#ETHDENVER#BEABUFFICORN#ETHDENVER#BEABUFFICORN#ETHDENVER</tspan><tspan x="0" y="75">#BEABUFFICORN#ETHDENVER#BEABUFFICORN#ETHDENVER#BEABUFFICORN#ETHDENVER#BEABU</tspan><tspan x="0" y="78">FFICORN#ETHDENVER#BEABUFFICORN#ETHDENVER#BEABUFFICORN#ETHDENVER#BEABUFFICORN</tspan><tspan x="0" y="81">#ETHDENVER#BEABUFFICORN#ETHDENVER#BEABUFFICORN#ETHDENVER#BEABUFFICORN#ETHDEN</tspan><tspan x="0" y="84">VER#BEABUFFICORN#ETHDENVER#BEABUFFICORN#ETHDENVER#BEABUFFICORN#ETHDENVER#BE</tspan><tspan x="0" y="87">ABUFFICORN#ETHDENVER#BEABUFFICORN#ETHDENVER#BEABUFFICORN#ETHDENVER#BEABUFFIC</tspan><tspan x="0" y="90">ORN#ETHDENVER#BEABUFFICORN#ETHDENVER#BEABUFFICORN#ETHDENVER#BEABUFFICORN#ET</tspan><tspan x="0" y="93">HDENVER#BEABUFFICORN#ETHDENVER#BEABUFFICORN#ETHDENVER#BEABUFFICORN#ETHDENVER</tspan><tspan x="0" y="96">#BEABUFFICORN#ETHDENVER#BEABUFFICORN#ETHDENVER#BEABUFFICORN#ETHDENVER#BEABU</tspan><tspan x="0" y="99">FFICORN#ETHDENVER#BEABUFFICORN#ETHDENVER#BEABUFFICORN#ETHDENVER#BEABUFFICORN</tspan><tspan x="0" y="102">#ETHDENVER#BEABUFFICORN#ETHDENVER#BEABUFFICORN#ETHDENVER#BEABUFFICORN#ETHDEN</tspan><tspan x="0" y="105">VER#BEABUFFICORN#ETHDENVER#BEABUFFICORN#ETHDENVER#BEABUFFICORN#ETHDENVER#BE</tspan><tspan x="0" y="108">ABUFFICORN#ETHDENVER#BEABUFFICORN#ETHDENVER#BEABUFFICORN#ETHDENVER#BEABUFFIC</tspan><tspan x="0" y="111">ORN#ETHDENVER#BEABUFFICORN#ETHDENVER#BEABUFFICORN#ETHDENVER#BEABUFFICORN#ET</tspan><tspan x="0" y="114">HDENVER#BEABUFFICORN#ETHDENVER#BEABUFFICORN#ETHDENVER#BEABUFFICORN#ETHDENVER</tspan><tspan x="0" y="117">#BEABUFFICORN#ETHDENVER#BEABUFFICORN#ETHDENVER#BEABUFFICORN#ETHDENVER#BEABU</tspan><tspan x="0" y="120">FFICORN#ETHDENVER#BEABUFFICORN#ETHDENVER#BEABUFFICORN#ETHDENVER#BEABUFFICORN</tspan><tspan x="0" y="123">#ETHDENVER#BEABUFFICORN#ETHDENVER#BEABUFFICORN#ETHDENVER#BEABUFFICORN#ETHDEN</tspan><tspan x="0" y="126">VER#BEABUFFICORN#ETHDENVER#BEABUFFICORN#ETHDENVER#BEABUFFICORN#ETHDENVER#BE</tspan><tspan x="0" y="129">ABUFFICORN#ETHDENVER#BEABUFFICORN#ETHDENVER#BEABUFFICORN#ETHDENVER#BEABUFFIC</tspan><tspan x="0" y="132">ORN</tspan></text></clipPath></defs><title>Artboard 1</title><polygon class="cls-3" points="110.97 96.13 55.54 128.13 0.12 96.13 0.12 32.14 55.54 0.14 110.97 32.14 110.97 96.13"/><g class="cls-4"><path d="M101.46,37.5l-2.9-1.68-.16-.09-.15-.08-.44-.25-.13-.08-.09,0-1.77-1h0l-1.08-.62-.29-.17L94,33.2l-1.81-1-.68-.4,0,0-3.49-2-1.14-.66-1-.6-.24-.14L84.89,28l-1.26-.73-.54-.31-.8-.46,0,0-1.73-1-.14-.08-.23-.13-.87-.5L79,24.58l-.77-.44-.16-.09-.68-.39-6.22-3.59-.7-.41-.17-.1L70,19.38l-.39-.22-.3-.18-1.28-.74-1.48-.85-.47-.27-1-.56L63,15.33l-.79-.45-.92-.53-1-.55-2.7-1.56L55.54,11l-2.48,1.43-3.41,2-.61.35-.07,0-1.3.75-.5.29L41.7,19l-3.52,2L34,23.43l-1.83,1.05-1.7,1-.18.1-1.15.67-4.26,2.45-.36.21-.28.16-1.43.82-3.57,2.07h0l-7.44,4.29-.18.11L9.77,37.42l-.3.17V90.71L12,92.19l.38.22.41.24.05,0,.5.29,0,0,.37.21,2.53,1.47L18.65,96h0l.51.29.07,0,.05,0h0l1,.59,1.58.91.26.15.84.49,1.22.7.49.28.56.32.6.34,3.37,2,2.09,1.2.44.26.19.11h0l.39.22,3,1.72,1.3.75,0,0,.69.4,6.46,3.73.49.28,1.39.8h0l.84.49.24.14.1.06.45.26.15.08.32.19.09.05,1.14.65h0l.75.43.14.08.54.31.15.08.27.15.25.15.22.13.24.14,0,0h0l0,0,3,1.74.18.1.43.25.23.14.55-.33.14-.08,1.85-1.07,1.74-1,.59-.34.18-.1L63,113l.19-.11.39-.22h0l.93-.53.65-.37.07,0,1.47-.85.16-.09.33-.19.6-.36.13-.06.27-.16,0,0,.22-.13.13-.07.75-.43.36-.21.09,0,.91-.53.25-.13.18-.12.4-.22,1.36-.78.17-.1.7-.4.52-.3h0l.12-.07.47-.27.69-.4,2.53-1.47.21-.11.59-.34.13-.07h0l.63-.36.24-.14.21-.14.58-.33.28-.15,1-.6.39-.22.24-.14.09-.06.1-.06.36-.21.34-.19,1.39-.8,1.4-.81.46-.26.06,0,.43-.25.08,0h0l.25-.14h0l.24-.14.3-.17,2.43-1.4.16-.09.14-.08.07,0,.09,0,1.58-.92.3-.17.23-.13h0l.86-.49.24-.16.07,0,.13-.08h0l.52-.3,0,0,.46-.26.88-.51h0l.47-.27,4.67-2.69.05,0V37.59ZM99.74,89.64l-1.19.69-3.22,1.86-.8.46-1,.58-.62.36-.11.06-.09,0h0l-.45.26-.16.1-.27.15-.57.33-.11.06-.31.18-.5.29L88,96.4l-.67.39h0l-.09,0-.07,0L87,97l-3.47,2-.31.18-.13.07-.18.1-.35.2-.37.22-.94.54-.2.12,0,0,0,0-.57.33-.21.12-.51.3h0l-.24.14-.17.1-.28.15-.09,0-3.34,1.92-.41.24-.59.34-.2.12-2.31,1.33-.18.1-.42.24-.33.19,0,0-.41.24-.14.08-.08,0-.37.21-.14.08-.74.43-.14.08-.24.14-.1.07-.18.09-.24.14,0,0-.12.08-.94.52-.51.31-.38.22-.26.14-.09.06-1.32.75-1.44.83-.22.14-.22.12-.31.19-.15.08-.81.47-.07,0-.62.36-1,.59-.61.35-.94.54-1.37.79-1.35.78-.62-.36-.73-.42-2.13-1.22,0,0-.12-.06,0,0-.14-.08-.37-.21-.33-.19-.17-.1-.1-.06-.6-.35-.4-.22-.14-.08-.07,0-.89-.51-.53-.32-.74-.42-.09-.06-.14-.08-.67-.38-.1-.06h0l-2.93-1.7-3.06-1.77-3.16-1.82-.74-.43h0l-2.7-1.56-.54-.31-.79-.46-.27-.15h0l-.32-.19-.14-.08-3.71-2.15-.23-.13-.6-.34L24.7,97.36l-.17-.1L24,97l-.68-.39L22.27,96,22,95.78l-.29-.17-.12-.06h0l-3.7-2.14-1.05-.61-.59-.34-.63-.37-.68-.39-.08,0h0l-.35-.2,0,0-3.07-1.78v-51l.52-.3,1.2-.69,1.46-.84.7-.41,6.47-3.73.35-.2,2.11-1.21.55-.32.21-.12,4.77-2.76.29-.17.37-.21,1.88-1.08,0,0,9.59-5.53,2.27-1.31L47.16,18,49,17l.07,0,.61-.35,2.87-1.66.8-.46,1.1-.63,1.12-.64.13.07,4.49,2.59.17.1L62.2,17l.26.15,2.62,1.51.3.17.54.31,1.72,1,.26.15.51.3.91.52.33.19.49.28.26.15.81.46,2.1,1.22,3.2,1.84.39.22.37.22.15.09.68.39L80,27.31l.71.41.22.13.76.44.19.11.45.27h0l1,.55,1.66,1,3.45,2,0,0,.12.07,2.06,1.19.29.17.54.31.44.25.24.14.28.16,1.32.76.14.08,0,0,.33.19,1.44.83.21.12.26.15,1.6.92,1.94,1.12v51Z"/></g><polygon class="cls-5" points="66.84 34.93 66.84 34.93 66.92 34.91 66.84 34.93"/><path class="cls-6" d="M13.68,31.45l-1,.57L13,33.1l-1,.61-.32-1.08-.74.43-.41-.71.92-.54-.3-1-.7.41L10,30.5l.88-.52-.28-1,1-.61.29,1,1-.57-.29-1,1-.6.29,1,.73-.43.41.71-.92.54.3,1,.7-.4.41.71-.88.51L15,31.93l-1,.6Zm-.51-1.87-1,.6.33,1.06,1-.59Z"/><path class="cls-6" d="M15,26.49l2.67-1.56.51.88-1.62,1,.41.71,1.41-.82.5.87-1.4.82.43.74,1.62-.95L20,29l-2.67,1.55Z"/><path class="cls-6" d="M21.16,22.87l.52.88-.93.54,1.87,3.2-1.05.62-1.87-3.2-.93.54-.51-.89Z"/><path class="cls-6" d="M27.43,24.69l-1.06.61-.94-1.62-1,.58.95,1.62-1.06.62-2.38-4.08,1-.62.91,1.56,1-.58L24,21.22,25,20.61Z"/><path class="cls-6" d="M28.4,18.65a1,1,0,0,1,1.31.34l1.41,2.42a1,1,0,0,1-.34,1.32L28.59,24,26.2,19.93Zm.47,1.3a.33.33,0,0,0-.47-.13l-.63.37,1.35,2.32.63-.36a.33.33,0,0,0,.13-.47Z"/><path class="cls-6" d="M30.35,17.51,33,16l.51.88-1.62,1,.42.71,1.4-.82.51.87-1.41.82.44.74,1.62-1,.51.89-2.67,1.55Z"/><path class="cls-6" d="M36.07,16.63l1.31,2.25-1,.56L34,15.36l1-.56,2.54,1.53-1.32-2.25,1-.56,2.38,4.08-1,.58Z"/><path class="cls-6" d="M41.37,11.08l1.17,4.79-1,.6L38,13.07l1.13-.65,2.08,2.26-.83-3Z"/><path class="cls-6" d="M42.13,10.64,44.8,9.08l.51.88-1.62.94.41.72,1.41-.82.51.87-1.41.82.43.74,1.62-1,.52.88-2.67,1.56Z"/><path class="cls-6" d="M48.38,7a.53.53,0,0,1,.72.19l1.1,1.87a.55.55,0,0,1-.2.73l0,0,1.26,1-1,.6-1.26-1-.45.26.76,1.3-1.06.61L45.81,8.49Zm0,1.28a.09.09,0,0,0-.09,0l-.87.51L48,9.84l.87-.51a.07.07,0,0,0,0-.08Z"/><path class="cls-6" d="M59,122.16l-1,.58.32,1.07-1,.61L57,123.34l-.73.43-.42-.71.93-.54-.3-1-.7.41-.42-.7.89-.52-.28-1,1-.61.28,1,1-.57-.29-1,1-.6.29,1,.73-.42.41.7-.92.54.3,1,.7-.41.41.71-.88.51.32,1.08-1,.6Zm-.51-1.87-1,.6.32,1.07,1-.6Z"/><path class="cls-6" d="M62.64,121.29l-2.38-4.09,2.51-1.47a.59.59,0,0,1,.85.2l.53.91a.77.77,0,0,1-.19,1,.79.79,0,0,1,.95.27l.52.89a.58.58,0,0,1-.24.84Zm.18-4.41a.08.08,0,0,0-.1,0l-.94.55.49.85.94-.55a.07.07,0,0,0,0-.1Zm.93,1.6a.08.08,0,0,0-.1,0l-.94.55.52.9,1-.55a.06.06,0,0,0,0-.09Z"/><path class="cls-6" d="M64.41,114.78l2.67-1.56.51.88-1.62,1,.42.71,1.4-.82.51.87-1.41.82.43.74,1.63-1,.51.89-2.67,1.55Z"/><path class="cls-6" d="M73.47,115l-1,.61-.59-1-.93.54.59,1-1,.62-2.1-3.61a.52.52,0,0,1,.2-.76l2.07-1.21a.54.54,0,0,1,.76.2Zm-2.16-1.29-.72-1.22a.14.14,0,0,0-.21,0l-.65.38a.14.14,0,0,0-.06.2l.72,1.22Z"/><path class="cls-6" d="M74.59,114.32l-2.38-4.09,2.52-1.47a.59.59,0,0,1,.85.2l.52.91a.75.75,0,0,1-.18,1,.77.77,0,0,1,.94.27l.52.89a.57.57,0,0,1-.24.84Zm.19-4.41a.08.08,0,0,0-.1,0l-1,.55.5.85.94-.55a.07.07,0,0,0,0-.1Zm.93,1.6s-.06-.06-.1,0l-1,.55.53.9.94-.55a.06.06,0,0,0,0-.09Z"/><path class="cls-6" d="M77.42,107.2l1.84,3.14a.05.05,0,0,0,.08,0l.77-.44a.07.07,0,0,0,0-.1l-1.83-3.14,1-.62,2.11,3.62a.53.53,0,0,1-.19.74l-2.07,1.2a.53.53,0,0,1-.73-.19l-2.11-3.62Z"/><path class="cls-6" d="M80.52,105.39l2.59-1.51.51.87-1.54.9.54.93L84,105.8l.51.87-1.33.78.82,1.41-1,.61Z"/><path class="cls-6" d="M84,103.34l2.59-1.51.51.88-1.54.9.54.92,1.33-.77.51.87-1.33.78.82,1.41-1,.61Z"/><path class="cls-6" d="M91,104.77l-1,.61-2.38-4.08,1-.61Z"/><path class="cls-6" d="M94.2,100.84l.61,1.06a.54.54,0,0,1-.2.75l-2,1.19a.52.52,0,0,1-.74-.19L90,100.49a.53.53,0,0,1,.19-.73l2-1.2a.56.56,0,0,1,.75.18l.62,1.06-1.06.61-.33-.57s-.07,0-.09,0l-.77.45a.07.07,0,0,0,0,.1l1.28,2.2a.08.08,0,0,0,.1,0l.77-.45s0,0,0-.09l-.34-.58Z"/><path class="cls-6" d="M96.24,96.22a.54.54,0,0,1,.76.2l1.82,3.13a.52.52,0,0,1-.2.76l-2.1,1.22a.51.51,0,0,1-.75-.2L93.94,98.2a.53.53,0,0,1,.2-.75Zm0,1.29a.08.08,0,0,0-.11,0l-.82.48a.08.08,0,0,0,0,.1l1.28,2.2a.07.07,0,0,0,.09,0l.82-.48a.08.08,0,0,0,0-.1Z"/><path class="cls-6" d="M100.41,93.79a.53.53,0,0,1,.72.2l1.09,1.87a.53.53,0,0,1-.19.72l0,0,1.26,1-1,.6-1.26-1-.45.26.76,1.3-1.06.61-2.38-4.08Zm0,1.28a.07.07,0,0,0-.09,0l-.87.5.63,1.09.87-.51a.07.07,0,0,0,0-.08Z"/><path class="cls-6" d="M104,94.17l1.31,2.25-1,.56L102,92.9l1-.57,2.53,1.54-1.31-2.25,1-.57,2.38,4.09-1,.58Z"/><path class="cls-6" d="M57.41,8.43l-1-.57-.78.82-1-.6.78-.81-.74-.43.41-.71.92.53.74-.76L56,5.49l.41-.71.89.51.7-.72,1,.6-.69.73,1,.56.7-.73,1,.6-.69.72.73.42-.41.71-.92-.53L59,8.42l.7.4-.41.71L58.44,9l-.77.82-1-.6Zm1.37-1.38-1-.59L57,7.27l1,.59Z"/><path class="cls-6" d="M60,11.17l2.36-4.1,2.52,1.45a.57.57,0,0,1,.25.83l-.52.91a.77.77,0,0,1-.93.32.78.78,0,0,1,.24,1l-.52.89a.57.57,0,0,1-.84.21Zm3.91-2a.07.07,0,0,0,0-.1l-1-.54-.49.85,1,.54a.07.07,0,0,0,.1,0ZM63,10.74a.08.08,0,0,0,0-.11l-1-.54-.52.9.95.55a.07.07,0,0,0,.09,0Z"/><path class="cls-6" d="M66.52,9.47,69.2,11l-.51.88L67.06,11l-.41.72,1.41.81-.5.87-1.41-.81-.43.74,1.63.94-.51.88-2.68-1.54Z"/><path class="cls-6" d="M70.86,17.42l-1.06-.61.59-1-.93-.53-.58,1-1.06-.61,2.08-3.62a.53.53,0,0,1,.76-.2L72.74,13a.53.53,0,0,1,.2.76Zm0-2.52.71-1.23c0-.07,0-.15-.08-.2l-.65-.38a.15.15,0,0,0-.2.05L70,14.37Z"/><path class="cls-6" d="M72,18.07,74.35,14l2.52,1.45a.57.57,0,0,1,.25.83l-.52.91a.77.77,0,0,1-.93.32.77.77,0,0,1,.23,1l-.51.89a.58.58,0,0,1-.85.21Zm3.91-2a.07.07,0,0,0,0-.1l-.94-.54-.49.85,1,.54s.07,0,.1,0ZM75,17.64a.09.09,0,0,0,0-.11L74,17l-.52.9.94.55a.07.07,0,0,0,.1,0Z"/><path class="cls-6" d="M79.57,17l-1.82,3.16a.08.08,0,0,0,0,.09l.77.44a.09.09,0,0,0,.1,0l1.81-3.16,1.06.61-2.09,3.63a.54.54,0,0,1-.73.2l-2.08-1.2a.53.53,0,0,1-.19-.73l2.08-3.63Z"/><path class="cls-6" d="M82.68,18.76l2.6,1.5-.51.88-1.54-.89-.54.93L84,22l-.5.87-1.34-.77-.81,1.42-1-.61Z"/><path class="cls-6" d="M86.2,20.79l2.6,1.49-.51.88-1.54-.89-.54.93,1.34.77-.51.88-1.33-.77-.81,1.41-1.06-.6Z"/><path class="cls-6" d="M88.41,27.52l-1-.61,2.36-4.1,1,.61Z"/><path class="cls-6" d="M93.43,28.36l-.61,1.07a.55.55,0,0,1-.75.19L90,28.43a.53.53,0,0,1-.2-.73l1.82-3.17a.54.54,0,0,1,.74-.19l2.06,1.18a.56.56,0,0,1,.21.74l-.61,1-1-.6.32-.58a.07.07,0,0,0,0-.09l-.77-.45a.08.08,0,0,0-.11,0l-1.27,2.2a.08.08,0,0,0,0,.1l.78.45a.09.09,0,0,0,.09,0l.33-.58Z"/><path class="cls-6" d="M98.45,27.84a.52.52,0,0,1,.21.75l-1.81,3.14a.51.51,0,0,1-.75.2L94,30.72a.51.51,0,0,1-.2-.75l1.8-3.14a.53.53,0,0,1,.76-.21Zm-1.12.62a.08.08,0,0,0,0-.11l-.83-.48a.07.07,0,0,0-.09,0l-1.27,2.2a.07.07,0,0,0,0,.09l.83.48a.08.08,0,0,0,.1,0Z"/><path class="cls-6" d="M102.63,30.24a.54.54,0,0,1,.2.73l-1.08,1.87a.55.55,0,0,1-.73.2l0,0-.25,1.59-1-.59.24-1.59-.45-.26-.75,1.3-1.06-.61,2.36-4.1Zm-1.13.6a.07.07,0,0,0,0-.09l-.87-.5L100,31.34l.88.5a.05.05,0,0,0,.08,0Z"/><path class="cls-6" d="M104.09,33.53l-1.3,2.26-1-.56,2.36-4.1,1,.56-.07,3,1.3-2.25,1,.55L105,37.05l-1-.57Z"/><path class="cls-6" d="M105.16,45.07V43.93l-1.09-.27v-1.2l1.09.27v-.85H106V43l1,.26v-.81h.81v1l1,.25V44.9l-1-.25v1.13l1,.24v1.19l-1-.24v.84H107V46.74l-1-.26v.81h-.82v-1L104.06,46V44.79Zm1.87.52,0-1.19L106,44.13v1.18Z"/><path class="cls-6" d="M108.77,48.7l0,3.09h-1l0-1.88h-.83v1.62h-1V49.89h-.85l0,1.88h-1l0-3.09Z"/><path class="cls-6" d="M108.71,55.89h-1V54.8l-3.71,0V53.55l3.71,0V52.51h1Z"/><path class="cls-6" d="M103.94,60.34V59.12l1.88,0V58L104,58V56.74l4.73,0V58l-1.81,0v1.15l1.81,0v1.22Z"/><path class="cls-6" d="M108.63,64.26a1,1,0,0,1-1,.95l-2.81,0a1,1,0,0,1-1-1l0-2.54,4.73,0ZM107.28,64a.33.33,0,0,0,.34-.34v-.73l-2.69,0v.73a.33.33,0,0,0,.34.34Z"/><path class="cls-6" d="M108.61,66.52l0,3.09h-1l0-1.87h-.83v1.62h-1V67.71h-.85l0,1.88h-1l0-3.09Z"/><path class="cls-6" d="M106.44,71.89l-2.6,0V70.74l4.73.05v1.12L106,73.3l2.6,0v1.12l-4.72,0V73.24Z"/><path class="cls-6" d="M108.5,79.28l-4.72-1.45,0-1.18,4.73-1.33v1.3l-3,.64,3,.81Z"/><path class="cls-6" d="M108.49,80.16l0,3.09h-1l0-1.88h-.83l0,1.63h-1V81.34h-.85l0,1.87h-1l0-3.09Z"/><path class="cls-6" d="M108.43,87.39a.54.54,0,0,1-.54.53l-2.16,0a.54.54,0,0,1-.53-.54v0l-1.51.57,0-1.2,1.5-.57v-.52h-1.49V84.38l4.72,0Zm-1.08-.69s.07,0,.07-.06v-1h-1.26v1a.06.06,0,0,0,.06.06Z"/><path class="cls-6" d="M13,99.05l-1-.58-.78.81-1-.61.78-.81-.73-.43.41-.71.93.55.74-.76-.7-.41.41-.71.89.53.7-.72,1,.61-.7.72,1,.57.7-.71,1,.6-.7.72.73.43-.42.71-.91-.55-.74.76.69.41-.42.71L14,99.66l-.78.8-1-.6Zm1.39-1.36-1-.6-.77.8,1,.6Z"/><path class="cls-6" d="M18,97.75l2.66,1.57-.51.88-1.62-1-.42.71,1.4.83-.51.87-1.4-.83-.44.74,1.62,1-.52.88-2.66-1.57Z"/><path class="cls-6" d="M24.14,101.4l-.52.89-.92-.55-1.89,3.19-1-.62,1.89-3.19-.93-.55.52-.88Z"/><path class="cls-6" d="M25.6,107.76l-1.05-.62,1-1.61-1-.59-1,1.61-1-.62,2.4-4.07,1.05.62L25,104l1,.59.92-1.56,1.05.62Z"/><path class="cls-6" d="M31.35,105.67a1,1,0,0,1,.34,1.31l-1.43,2.41a1,1,0,0,1-1.31.35l-2.19-1.3,2.4-4.07Zm-.91,1a.32.32,0,0,0-.12-.47l-.62-.37-1.37,2.31.62.37a.32.32,0,0,0,.47-.12Z"/><path class="cls-6" d="M33.3,106.82,36,108.39l-.52.87-1.62-1-.42.71,1.4.83-.51.86-1.4-.82-.44.73,1.62,1-.52.88-2.66-1.57Z"/><path class="cls-6" d="M36.85,111.39l-1.32,2.24-1-.57L37,109l1,.57-.11,3,1.33-2.24,1,.57-2.4,4.07-1-.59Z"/><path class="cls-6" d="M44.28,113.31l-3.62,3.35-1-.6,1.22-4.77L42,112l-1,2.92,2.21-2.19Z"/><path class="cls-6" d="M45,113.76l2.65,1.57-.51.87-1.62-1-.42.71,1.4.82-.51.87-1.4-.82-.44.73,1.62,1-.52.88-2.66-1.57Z"/><path class="cls-6" d="M51.26,117.44a.52.52,0,0,1,.19.72L50.35,120a.55.55,0,0,1-.73.19l0,0-.26,1.58-1-.6.26-1.59-.45-.27-.76,1.29L46.3,120l2.41-4.07Zm-1.13.58a.1.1,0,0,0,0-.09l-.87-.51-.64,1.08.86.52s.08,0,.09,0Z"/><path class="cls-6" d="M6.27,91.54v1.14l1.09.26v1.2l-1.09-.26v.85H5.45V93.66l-1-.25v.81H3.6v-1l-1-.24v-1.2l1,.24V90.86l-1-.24V89.43l1,.24v-.85h.82v1.07l1,.25v-.81h.82v1l1.09.27v1.19ZM4.39,91v1.19l1.09.26V91.31Z"/><path class="cls-6" d="M7.35,87.94H2.62V85a.58.58,0,0,1,.6-.63h1A.75.75,0,0,1,5,85a.79.79,0,0,1,.72-.68h1a.58.58,0,0,1,.6.63ZM3.64,85.57a.07.07,0,0,0-.08.07v1.09h1V85.64s0-.07-.08-.07Zm1.85,0a.07.07,0,0,0-.08.07v1.09h1V85.64a.06.06,0,0,0-.07-.07Z"/><path class="cls-6" d="M2.62,83.13V80h1v1.88h.82V80.3h1v1.62h.86V80h1v3.09Z"/><path class="cls-6" d="M7.34,75.4v1.22H6.17v1.07H7.35v1.22H3.17a.52.52,0,0,1-.55-.55V76a.53.53,0,0,1,.55-.56ZM5.15,76.62H3.72a.15.15,0,0,0-.14.17v.76a.13.13,0,0,0,.13.14H5.15Z"/><path class="cls-6" d="M7.34,74.1H2.62V71.19a.57.57,0,0,1,.59-.63h1A.77.77,0,0,1,5,71.2a.79.79,0,0,1,.71-.68h1a.58.58,0,0,1,.6.63ZM3.63,71.73a.08.08,0,0,0-.08.07v1.09h1V71.8a.06.06,0,0,0-.07-.07Zm1.85,0a.08.08,0,0,0-.08.07v1.09h1V71.8a.07.07,0,0,0-.07-.07Z"/><path class="cls-6" d="M2.61,68.07H6.26A.06.06,0,0,0,6.32,68v-.89s0-.08-.06-.08H2.61V65.83H6.8a.53.53,0,0,1,.54.54v2.39a.54.54,0,0,1-.54.54H2.61Z"/><path class="cls-6" d="M2.61,64.48v-3h1v1.78H4.7V61.73h1v1.54H7.34v1.21Z"/><path class="cls-6" d="M2.61,60.42v-3h1v1.78H4.7V57.67h1v1.54H7.34v1.21Z"/><path class="cls-6" d="M7.34,55.15v1.21H2.61V55.15Z"/><path class="cls-6" d="M5.57,50.38H6.79a.55.55,0,0,1,.54.56v2.37a.53.53,0,0,1-.53.54H3.14a.54.54,0,0,1-.53-.54V50.94a.55.55,0,0,1,.53-.56H4.36V51.6H3.7a.09.09,0,0,0-.08.07v.89a.08.08,0,0,0,.08.07H6.24a.07.07,0,0,0,.07-.08v-.89a.08.08,0,0,0-.07-.06H5.57Z"/><path class="cls-6" d="M2.6,46.29a.53.53,0,0,1,.56-.55H6.78a.51.51,0,0,1,.55.55v2.43a.52.52,0,0,1-.55.55H3.16a.53.53,0,0,1-.56-.55ZM3.7,47a.07.07,0,0,0-.07.07v1a.07.07,0,0,0,.07.06H6.25A.06.06,0,0,0,6.31,48V47s0-.08-.06-.08Z"/><path class="cls-6" d="M2.6,41.47a.54.54,0,0,1,.53-.54H5.3a.55.55,0,0,1,.53.54v0l1.5-.58v1.19l-1.5.59v.52h1.5v1.21H2.6Zm1.09.68a.07.07,0,0,0-.07.06v1H4.88v-1a.07.07,0,0,0-.06-.06Z"/><path class="cls-6" d="M4.73,38.56h2.6v1.12H2.6V38.56l2.6-1.41H2.6V36H7.33v1.15Z"/><g class="cls-7"><polygon class="cls-8" points="55.52 14.22 12.22 39.22 12.22 89.22 55.52 114.22 98.82 89.22 98.82 39.22 55.52 14.22"/></g><g id="peeking"><path class="cls-9" d="M37.83,86.64c0-.49.4-.78.83-1.1a2.24,2.24,0,0,0,1.19-1.7,15,15,0,0,0,0-2.19l-.43-.15a4.84,4.84,0,0,1-1-.39c-1.59-.83-2.46-2.3-2-3.27A1.82,1.82,0,0,1,38.16,77a4.52,4.52,0,0,1,2.12.56,4.41,4.41,0,0,1,1.86,1.75h0s1.34,1.85,5.79-1h0a7,7,0,0,1,3.38-1.77c2.76-.64,5.31.21,5.7,1.89a3,3,0,0,1-1.43,2.92l1-.23a7.22,7.22,0,0,1,3.36,0,7,7,0,0,1,.69.21,4.94,4.94,0,0,1,.57.26l.18.11a3,3,0,0,1,1.43,1.93c.67,3-.76,5.29-4.15,6.51a22,22,0,0,1-6.37.94c-.86,0-1.69,0-2.45,0a30.76,30.76,0,0,1-3.11-.26,8.28,8.28,0,0,1-1-.19l-.45-.12-.45-.13a27.07,27.07,0,0,1-6.26-2.65c-.34-.24-.74-.56-.75-1M36.21,66.09l0,0a.68.68,0,0,1,.6-.28.61.61,0,0,1,.63.55s0,.07,0,.1a.2.2,0,0,1,0,.08,5.72,5.72,0,0,0-.34,1.75A5.61,5.61,0,0,0,37.25,70a.29.29,0,0,1,0,.09.34.34,0,0,1,0,.1.6.6,0,0,1-.67.49l-.16,0a.65.65,0,0,1-.42-.31l0,0,0-.14a5.16,5.16,0,0,1-.25-2,5.1,5.1,0,0,1,.5-2.1m24.2.45a.78.78,0,0,1,.69-.32.68.68,0,0,1,.71.63.43.43,0,0,1,0,.11.36.36,0,0,1,0,.09,7.08,7.08,0,0,0-.2,4l0,0s0,0,0,.07a.37.37,0,0,1,0,.11.65.65,0,0,1-.68.55h-.09a.79.79,0,0,1-.65-.38l0,0A5.74,5.74,0,0,1,59.81,69a5.81,5.81,0,0,1,.58-2.38l0,0M41.29,97.3l.62-.2.61-.2,3.65-1.18L46.32,98l6.44-2.83,4.6,1.15L61,91.37l1.94.14,1.44.11,1.52-2.36,2.58.76L70,86.84l3.28,1,1.06-2.74,3.17.93L77.77,83l2.93-.5-.85-2.86,2.57-.93.06-2.13c-.21,0-.61,0-1.09,0-1.19-.05-2.88-.24-3.37-.85a1.18,1.18,0,0,1-.2-1,2.21,2.21,0,0,1,.15-.5,3.75,3.75,0,0,1,.25-.49,4.88,4.88,0,0,1,.45-.65,3.44,3.44,0,0,0-.07.61,3.7,3.7,0,0,0,0,.46,1.71,1.71,0,0,0,.09.45,1.11,1.11,0,0,0,.18.32c.44.56,3.25.58,3.62.58h0l.49,0a7.74,7.74,0,0,0,1.78-.27,4.51,4.51,0,0,0,1.54-.74l.11-.09a3.06,3.06,0,0,0,.36-.36l.06-.07c.06-.08.12-.15.17-.23a1.32,1.32,0,0,0,.12-.2A3.41,3.41,0,0,0,87.59,72c-.45,0-.88,0-1.29,0-3-.12-4.67-1-5.61-2a4,4,0,0,1-1.14-1.76l0-.15,2-6.11.16-.48C78.57,59,73.25,59,73.2,59h-1l1.68-2.74C69.35,53.07,63.51,53.94,63.45,54l-1,.15,1.14-2.36a13.15,13.15,0,0,0-8.26.5l.28,1.27.27,1.24v0a2.28,2.28,0,0,1-.71,1.6c-.86.87-2.37,1.27-4.48,1.19h0c-5.14-.2-5.21-2.23-5.21-2.46v-.06l.56-3.43-.6-.05a8,8,0,0,0-1,0l.59,3.32-.92-.42a12.28,12.28,0,0,0-5.86-.92,8.68,8.68,0,0,0-1.87.43l.81,3.46-.92-.34a6.67,6.67,0,0,0-2.83-.19,11.06,11.06,0,0,0-2.17.49L32,60.48l-2.17.12c0,.8-.05,2.52,0,4.64l.1.06-.1.15A65.31,65.31,0,0,0,30.74,76l2.69.5-.48.67a4.51,4.51,0,0,0-.55,3.35l2.42,2.24,1.23,5.07,2.24.83-.59,6,3.45-.91-1.07,3.91Z"/><path class="cls-9" d="M26.43,67.4a2.44,2.44,0,0,0,2.47,1.83q-.07-1.4-.12-2.7a4.31,4.31,0,0,1-2.35.87"/><path class="cls-10" d="M26.43,67.4a2.44,2.44,0,0,0,2.47,1.83c0-.93-.09-1.84-.12-2.7a4.31,4.31,0,0,1-2.35.87m62.21,4a4.55,4.55,0,0,1-.34,2.07h0l-.06.12h0a4.39,4.39,0,0,1-.47.85h0l-.15.18a5.81,5.81,0,0,1-4.06,1.79l0,.92,0,2-2.31.84.9,3.05-3.3.56-.36,3.55-3.46-1-1.06,2.75-3.33-1L69.1,91.29l-2.7-.8L65,92.72l-3.43-.26-3.76,5-4.93-1.24-.87.39-6.6,2.91-.17-2.4-3.35,1.09a3.74,3.74,0,0,0-.91.3c-.15,0-.31.08-.46.14h0l-1.94.63,1.1-4-3.14.83.65-6.75-2-.74-1.27-5.31-2.42-2.24,0-.15a5.67,5.67,0,0,1,.3-3.67l-1.86-.35-.08-.34A48.57,48.57,0,0,1,29,70.15h-.28C25.81,70,25.4,67,25.4,67l-.07-.54.55,0h.05a3.54,3.54,0,0,0,2.82-1.17c-.05-2.89,0-5,0-5.24l0-.48,1.89-.1-.62-2.75.43-.16a10.12,10.12,0,0,1,5.28-.68l-.59-2.55.4-.18a11.72,11.72,0,0,1,8.09,0l-.44-2.49.54-.08a9.07,9.07,0,0,1,2.44,0l-.08.52-.09.52-.6-.05a6.43,6.43,0,0,0-1,0l.59,3.31-.92-.42a12.28,12.28,0,0,0-5.86-.92,8.68,8.68,0,0,0-1.87.43l.81,3.46-.92-.34a6.69,6.69,0,0,0-2.83-.19,11.06,11.06,0,0,0-2.17.49L32,60.48l-2.17.12c0,.8-.05,2.52,0,4.64l.1.06-.1.15A65.31,65.31,0,0,0,30.74,76l2.69.5-.48.67a4.51,4.51,0,0,0-.55,3.35l2.42,2.24L36,87.8l2.25.84-.59,6,3.45-.91-1.07,3.91,1.21-.39.62-.2.61-.2,3.65-1.18L46.32,98l6.44-2.83,4.6,1.15L61,91.37l1.94.14,1.44.11,1.52-2.36,2.58.76L70,86.84l3.28,1,1.06-2.74,3.17.93L77.77,83l2.93-.5-.85-2.86,2.57-.93.06-2.13c-.21,0-.61,0-1.09,0-1.19-.05-2.88-.24-3.37-.85a1.18,1.18,0,0,1-.2-1,2.21,2.21,0,0,1,.15-.5c.07-.17.16-.34.24-.49a5.5,5.5,0,0,1,.46-.65,3.44,3.44,0,0,0-.07.61,3.7,3.7,0,0,0,0,.46,1.71,1.71,0,0,0,.09.45,1.38,1.38,0,0,0,.17.32c.45.56,3.26.58,3.63.58h0l.49,0a7.74,7.74,0,0,0,1.78-.27,4.51,4.51,0,0,0,1.54-.74l.11-.09a3.06,3.06,0,0,0,.36-.36l.06-.07c.06-.08.12-.15.17-.23a1.32,1.32,0,0,0,.12-.2A3.41,3.41,0,0,0,87.59,72c-.45,0-.88,0-1.29,0-3-.12-4.67-1-5.61-2a4,4,0,0,1-1.14-1.76l0-.15,2-6.11.16-.48C78.57,59,73.25,59,73.2,59h-1l1.68-2.74C69.35,53.07,63.51,53.94,63.45,54l-1,.15,1.14-2.36a13.15,13.15,0,0,0-8.26.5l-.1-.46v-.06l-.12-.54a14.11,14.11,0,0,1,9.39-.27l.57.18-.82,1.72c2-.13,6.8-.07,10.7,2.94l.37.29-1.21,2c1.83.11,5.93.63,8.56,3l.25.23-2.3,7c.23.61,1.57,3.13,7.47,2.75l.5,0Z"/><path class="cls-10" d="M45.47,83.25a.85.85,0,0,0,.25-.42l-1-.16-.32,0c-.81-.1-1.63-.24-2.45-.41a.72.72,0,0,0,.49.8l2.05.32.54.08a.53.53,0,0,0,.44-.16m10.66,6.53a14,14,0,0,0,1.9-.44c-.69-1.36-3.65-2.79-7.31-3.06l-.82,0h0c-.41,0-.82,0-1.23,0s-1,.06-1.47.12c-2.42.28-4.38,1-5.17,2a33.5,33.5,0,0,0,3.26,1.13l.45.13.46.11a5.68,5.68,0,0,0,.68.13,34.65,34.65,0,0,0,9.28-.06m1.46-7.33a.74.74,0,0,0,.18-.48v-.11h-.11l-.52.08-.35.07-.24.06a32.81,32.81,0,0,1-5.3.82.79.79,0,0,0,.33.47,1,1,0,0,0,.7.15l2.78-.42,1.82-.28H57a1.08,1.08,0,0,0,.45-.2.61.61,0,0,0,.16-.16m1.06,6.66c2.74-1.07,3.8-2.82,3.25-5.32a2.08,2.08,0,0,0-1-1.35,3.88,3.88,0,0,0-.9-.39,4.8,4.8,0,0,0-.79-.17,6.53,6.53,0,0,0-.78,0,1.21,1.21,0,0,1,0,.38,1.51,1.51,0,0,1-.27.61l0,0a1.62,1.62,0,0,1-1,.59l-.74.12-1.91.29-1.9.29-.14,0a1.77,1.77,0,0,1-.32,0,1.67,1.67,0,0,1-.84-.27,1.43,1.43,0,0,1-.63-1c-.94,0-1.91.06-2.9,0h-.46l-.85-.06a1.59,1.59,0,0,1-.47.84,1.2,1.2,0,0,1-.86.33h-.12l-2.59-.4a1.38,1.38,0,0,1-1-1.59l-.53-.14a17.81,17.81,0,0,1,0,2,3.14,3.14,0,0,1-1.57,2.4,2.77,2.77,0,0,0-.42.34,1.69,1.69,0,0,0,.31.27,15.73,15.73,0,0,0,2.28,1.17c1.05-1.46,4.05-2.43,7.69-2.49h1.17c.34,0,.68,0,1,.07,3.56.37,6.63,1.79,7.4,3.44M47.93,78.32a7,7,0,0,1,3.38-1.77c2.75-.64,5.31.21,5.7,1.89a3,3,0,0,1-1.43,2.92l1-.23a7.22,7.22,0,0,1,3.36,0,7,7,0,0,1,.69.21,4.94,4.94,0,0,1,.57.26l.18.11a3,3,0,0,1,1.43,1.93c.67,3-.76,5.29-4.15,6.51a21.6,21.6,0,0,1-6.37.93c-.86,0-1.69,0-2.45,0a30.76,30.76,0,0,1-3.11-.26,8.28,8.28,0,0,1-1-.19l-.45-.12-.45-.13a27.07,27.07,0,0,1-6.26-2.65c-.34-.24-.74-.56-.75-1s.4-.78.83-1.1a2.24,2.24,0,0,0,1.19-1.7,15,15,0,0,0,0-2.19l-.43-.15a4.84,4.84,0,0,1-1-.39c-1.59-.83-2.46-2.3-2-3.27A1.82,1.82,0,0,1,38.16,77h.16a4.76,4.76,0,0,1,2,.56,4.41,4.41,0,0,1,1.86,1.75s1.34,1.85,5.79-1"/><path class="cls-10" d="M61.79,67a.36.36,0,0,1,0,.09,7.08,7.08,0,0,0-.2,4l0,0s0,0,0,.07a.37.37,0,0,1,0,.11.65.65,0,0,1-.68.55h-.09a.79.79,0,0,1-.65-.38l0,0A5.74,5.74,0,0,1,59.81,69a5.81,5.81,0,0,1,.58-2.38l0,0a.8.8,0,0,1,.69-.31.68.68,0,0,1,.71.63.43.43,0,0,1,0,.11"/><path class="cls-11" d="M57.77,82a.74.74,0,0,1-.18.48.61.61,0,0,1-.16.16,1,1,0,0,1-.45.19h-.1l-1.82.28-2.78.42a1,1,0,0,1-.7-.15.79.79,0,0,1-.33-.47,32.81,32.81,0,0,0,5.3-.82l.24-.06.35-.07.52-.08h.11V82"/><path class="cls-11" d="M45.72,82.83a.93.93,0,0,1-.25.43.55.55,0,0,1-.44.15l-.54-.08L42.44,83a.72.72,0,0,1-.49-.8c.82.17,1.64.31,2.45.41l.32,0,1,.16"/><path class="cls-10" d="M37.45,66.42a.2.2,0,0,1,0,.08,5.72,5.72,0,0,0-.34,1.75A5.61,5.61,0,0,0,37.25,70a.29.29,0,0,1,0,.09.34.34,0,0,1,0,.1.6.6,0,0,1-.67.49l-.16,0a.65.65,0,0,1-.42-.31l0,0s0-.09,0-.14a5.16,5.16,0,0,1-.25-2,5.1,5.1,0,0,1,.5-2.1l0,0a.68.68,0,0,1,.6-.28.59.59,0,0,1,.62.55.31.31,0,0,1,0,.1"/><path class="cls-12" d="M60.89,82.44a4,4,0,0,0-.89-.39,5.16,5.16,0,0,0-.8-.17,6.53,6.53,0,0,0-.78,0,1.21,1.21,0,0,1,0,.38,1.51,1.51,0,0,1-.27.61l0,0a1.6,1.6,0,0,1-1,.59l-.74.12-1.91.29-1.9.29-.14,0a1.77,1.77,0,0,1-.32,0,1.67,1.67,0,0,1-.84-.27,1.43,1.43,0,0,1-.63-1c-.94,0-1.91.06-2.9,0h-.46l-.85-.06a1.59,1.59,0,0,1-.47.84,1.2,1.2,0,0,1-.86.33h-.12l-2.59-.4a1.39,1.39,0,0,1-1-1.59l-.53-.14a17.81,17.81,0,0,1,0,2,3.14,3.14,0,0,1-1.57,2.4,3.59,3.59,0,0,0-.43.34,2.59,2.59,0,0,0,.32.27,15.73,15.73,0,0,0,2.28,1.17c1.05-1.46,4.05-2.43,7.69-2.49h1.17c.34,0,.68,0,1,.07,3.56.37,6.63,1.79,7.4,3.44,2.74-1.07,3.8-2.82,3.25-5.32a2.08,2.08,0,0,0-1-1.35"/><path class="cls-13" d="M50.72,86.28l-.82,0h0c-.41,0-.82,0-1.22,0s-1,.06-1.48.12c-2.42.28-4.38,1-5.17,2a33.5,33.5,0,0,0,3.26,1.13l.45.13.46.11a5.68,5.68,0,0,0,.68.13,34.65,34.65,0,0,0,9.28-.06,12.6,12.6,0,0,0,1.9-.45c-.69-1.35-3.65-2.78-7.31-3"/><path class="cls-14" d="M55.33,78.39c-.35-.39-1.32-.07-2.16.7s-1.22,1.72-.87,2.1,1.33.08,2.17-.69,1.22-1.72.86-2.11"/><path class="cls-14" d="M37.76,78.44c-.25.19-.13.77.27,1.3a2.49,2.49,0,0,0,.43.43c.27.21.53.3.69.22l.05,0c.24-.19.12-.76-.28-1.29s-.92-.81-1.16-.63"/><path class="cls-15" d="M48.13,44.57l-.48,3a8.19,8.19,0,0,0,5.29,2.85,9.07,9.07,0,0,0,1.08.09l-.81-3.73c-.33,0-.64-.09-.94-.15a9,9,0,0,1-4.14-2"/><path class="cls-15" d="M48.82,40.39l-.51,3.09a8,8,0,0,0,3.78,2.13,6.51,6.51,0,0,0,.92.18L52.17,42l-.76-.22a8.86,8.86,0,0,1-2.59-1.34"/><path class="cls-15" d="M53.61,56a9,9,0,0,1-6.81-3.22l-.39,2.39c0,.18.43,1.36,4.31,1.51h0A6.44,6.44,0,0,0,54,56.15l.28-.16h-.62"/><polygon class="cls-15" points="50.32 27.91 52.08 26.81 50.28 26.04 50.32 27.91"/><polygon class="cls-15" points="49.63 26.05 47.83 26.91 49.68 27.93 49.63 26.05"/><path class="cls-15" d="M51.56,25.89l.38.17-1.73-2.74c0,.66,0,1.35,0,2l1.3.55"/><polygon class="cls-15" points="49.62 25.41 49.62 25.42 49.75 25.41 49.62 25.41"/><path class="cls-15" d="M49.57,23.32l-1.64,2.84,1.69-.81c0-.68,0-1.36,0-2"/><path class="cls-15" d="M50.36,31l1.32-1.95-1.34.83Z"/><path class="cls-15" d="M49.72,31c0-.37,0-.74,0-1.11l-1.39-.77Z"/><path class="cls-15" d="M50.86,35.85l-.2-.89a.46.46,0,0,0-.49-.38h0a.46.46,0,0,0-.45.41l0,.16a7.39,7.39,0,0,0,.66.42,4.44,4.44,0,0,0,.53.28"/><path class="cls-15" d="M50.53,36.72a10.2,10.2,0,0,1-1-.57L49,39.35a7.84,7.84,0,0,0,2.24,1.34c.23.09.48.17.73.25l-.87-4a5.55,5.55,0,0,1-.56-.24"/><path class="cls-15" d="M54.48,52.61l-.11-.53-.12-.54,0-.14h-.41c-.24,0-.48,0-.71,0a9.19,9.19,0,0,1-5.64-2.64l-.33,2-.09.52,0,.22a3.28,3.28,0,0,0,.26.38,8.08,8.08,0,0,0,6.49,3.2c.37,0,.77,0,1.18,0a1.05,1.05,0,0,0,0-.18Z"/><path class="cls-16" d="M50.21,34.58m0,0a.47.47,0,0,1,.45.36.47.47,0,0,0-.45-.36"/><path class="cls-17" d="M50.21,34.58h-.06l.18,1a5.36,5.36,0,0,0,.53.28l-.2-.89v0a.47.47,0,0,0-.45-.36h0"/><path class="cls-17" d="M50.53,36.72l.7,4c.23.09.48.17.73.25l-.87-4a5.55,5.55,0,0,1-.56-.24"/><path class="cls-17" d="M51.41,41.73l.68,3.88a6.51,6.51,0,0,0,.92.18L52.17,42l-.76-.22"/><path class="cls-16" d="M52.94,50.39a8.56,8.56,0,0,0,.91.08,8.56,8.56,0,0,1-.91-.08m1.08.09h0m-.17,0h0"/><path class="cls-17" d="M52.27,46.6l.67,3.79a8.56,8.56,0,0,0,.91.08H54l-.81-3.73c-.33,0-.64-.09-.94-.15"/><path class="cls-17" d="M53.1,51.34l.13.71.1.56.09.55.34,1.91c.37,0,.77,0,1.18,0a1.05,1.05,0,0,0,0-.18l-.49-2.25-.11-.53-.12-.54,0-.14h-.41c-.24,0-.48,0-.71,0"/><path class="cls-17" d="M54.23,56h-.31l0,.16.28-.16"/><path class="cls-18" d="M49.63,26.05l0,1.88-1.85-1Zm-.06-2.73c0,.67,0,1.35,0,2l-1.69.81Zm0,2.1h0Zm.7,2.49,0-1.87,1.8.77Zm-.11-4.59,1.73,2.74-.38-.17-1.3-.55c0-.67,0-1.36,0-2M47,27.18l.66.37,2.15,1.19a.41.41,0,0,0,.18.05h0a.39.39,0,0,0,.2-.06l.58-.37L52.91,27a.33.33,0,0,0,.11-.48l-2.86-4.51a.41.41,0,0,0-.23-.19h-.15a.39.39,0,0,0-.22.19c-.7,1.21-1.41,2.45-2.11,3.65l-.58,1a.34.34,0,0,0,0,.27.31.31,0,0,0,.18.21"/><path class="cls-18" d="M49.7,29.92c0,.37,0,.74,0,1.11l-1.41-1.88,1.39.77m.66,1.1,0-1.12,1.34-.83Zm2.23-3.27-.94.59-1.65,1-2-1.12L47.56,28l-.25-.13a.31.31,0,0,0-.28,0,.29.29,0,0,0-.18.22.32.32,0,0,0,.07.29c1,1.29,1.93,2.56,2.85,3.8a.49.49,0,0,0,.21.17h.18a.5.5,0,0,0,.2-.17l2-2.95.48-.7.21-.32a.34.34,0,0,0,0-.31.35.35,0,0,0-.25-.19.43.43,0,0,0-.24.06"/><path class="cls-18" d="M56.12,27.9a.33.33,0,0,0,.35-.32.34.34,0,0,0-.32-.35.34.34,0,1,0,0,.67"/><path class="cls-18" d="M46.07,34.68a.34.34,0,1,0,0-.67.34.34,0,0,0-.35.32.34.34,0,0,0,.32.35"/><path class="cls-19" d="M47.13,50.75l.33-2a9.19,9.19,0,0,0,5.64,2.64c.23,0,.47,0,.71,0h.41l0,.14.12.54.11.53L55,54.86a1.05,1.05,0,0,1,0,.18c-.41,0-.81,0-1.18,0a8.08,8.08,0,0,1-6.49-3.2,3.28,3.28,0,0,1-.26-.38l0-.22Zm5.14-4.15c.3.06.61.11.94.15L54,50.48a9.07,9.07,0,0,1-1.08-.09,8.19,8.19,0,0,1-5.29-2.85l.48-3a9,9,0,0,0,4.14,2m-.86-4.87.76.22L53,45.79a6.51,6.51,0,0,1-.92-.18,8,8,0,0,1-3.78-2.13l.51-3.09a8.86,8.86,0,0,0,2.59,1.34m-.88-5a5.55,5.55,0,0,0,.56.24l.87,4c-.25-.08-.5-.16-.73-.25A7.84,7.84,0,0,1,49,39.35l.52-3.2a10.2,10.2,0,0,0,1,.57M49.7,35a.46.46,0,0,1,.45-.41h0a.46.46,0,0,1,.49.38l.2.89a5.36,5.36,0,0,1-.53-.28,7.39,7.39,0,0,1-.66-.42Zm1,21.67c-3.88-.15-4.28-1.33-4.31-1.51l.39-2.39A9,9,0,0,0,53.61,56h.62l-.28.16a6.44,6.44,0,0,1-3.22.51Zm5.17-1.91-.27-1.24-.28-1.27-.1-.46v-.06l-.12-.54L51.56,34.77a1.41,1.41,0,0,0-2.77.07L46.22,50.59l-.08.52-.09.52-.56,3.43v.06c0,.23.07,2.26,5.21,2.46h0c2.11.08,3.62-.32,4.48-1.19a2.28,2.28,0,0,0,.71-1.6Z"/><path class="cls-19" d="M44.55,31a.26.26,0,0,0-.37,0l-.37.34-.34-.37a.27.27,0,0,0-.37,0,.28.28,0,0,0,0,.38l.34.36-.37.34a.26.26,0,0,0,0,.37.26.26,0,0,0,.18.09.28.28,0,0,0,.19-.07l.36-.34.34.37a.27.27,0,0,0,.19.08.27.27,0,0,0,.2-.44l-.34-.37.37-.34a.27.27,0,0,0,0-.37"/><path class="cls-19" d="M57.67,23.15l.38-.33a.26.26,0,1,0-.35-.39l-.37.33L57,22.38a.28.28,0,0,0-.37,0,.27.27,0,0,0,0,.37l.33.38-.37.33a.27.27,0,0,0,0,.37.34.34,0,0,0,.19.09.24.24,0,0,0,.18-.07l.38-.33.33.38a.34.34,0,0,0,.19.09.27.27,0,0,0,.2-.44Z"/><path class="cls-19" d="M53.58,32a.26.26,0,0,0,0,.37l.33.37-.38.33a.26.26,0,0,0,0,.37.24.24,0,0,0,.18.09.31.31,0,0,0,.19-.06l.37-.33.33.37a.25.25,0,0,0,.19.09.26.26,0,0,0,.21-.44l-.33-.37.37-.33a.26.26,0,0,0-.34-.4l-.38.34L54,32a.26.26,0,0,0-.37,0"/><path class="cls-19" d="M54.08,23a.32.32,0,0,0,.35-.32.33.33,0,0,0-.32-.35.35.35,0,0,0-.35.33.33.33,0,0,0,.32.34"/><path class="cls-19" d="M44.63,26.78a.34.34,0,1,0,0,.67.32.32,0,0,0,.35-.32.33.33,0,0,0-.32-.35"/><path class="cls-20" d="M80.69,70.08l-1.91.7a17.94,17.94,0,0,0,4.11,2.56,9.17,9.17,0,0,0,1.31.44,6.11,6.11,0,0,0,1.18.17,3.45,3.45,0,0,0,1.07-.1,2.73,2.73,0,0,0,.57-.19l.1-.15,0-.05a3.43,3.43,0,0,0,.34-.81,4.3,4.3,0,0,0,.11-.62H86.3c-3-.12-4.67-1-5.61-2"/><path class="cls-21" d="M87.59,72h0m-.11.62a3.43,3.43,0,0,1-.34.81l0,.05,0-.05a3.43,3.43,0,0,0,.34-.81"/><path class="cls-20" d="M46.05,91.77a.23.23,0,0,0-.24.21l-.22,1.92a.23.23,0,0,0,.22.26h0L47.33,94a.23.23,0,0,0,.16-.36l-1.27-1.76a.25.25,0,0,0-.17-.1"/><path class="cls-20" d="M82.48,76.53c-.2,0-.56,0-1,0h-.09l0,1.43-2.78,1,.74,2.76-2.48.39-.39,2.71L73.76,84l-1.25,2.82L69.44,86l-1.5,2.89-2.72-.52L63,91.51h0l1.44.11,1.52-2.36,2.58.76L70,86.84l3,.91.29.09.79-2,.27-.7,1.22.36,1.95.57.3-3V83l1-.18,1.91-.32-.84-2.82v0h0l2.57-.93Z"/><path class="cls-21" d="M82.48,76.53h0l-.06,2.13h0Zm-2.63,3.06h0v0Zm.85,2.86h0l-1.91.32,1.91-.32ZM77.76,83l-.3,3h0ZM74.29,85.1l-.27.7.27-.7,1.22.36Zm-1.35,2.65.29.09ZM63,91.51h0l1.44.11L63,91.51Z"/><path class="cls-22" d="M86.32,74.41l-1.54.74a4,4,0,0,0,.64-.22l.24-.11a4.33,4.33,0,0,0,.66-.41"/><path class="cls-23" d="M85.66,74.82l-.24.11.24-.11"/><path class="cls-20" d="M64.08,70.1h0a3.53,3.53,0,0,0-2.51,1h0s0,0,0,.07a.22.22,0,0,1,0,.08v0h0a.52.52,0,0,1-.18.36.8.8,0,0,1-.5.19,6.27,6.27,0,0,0-.46.68.22.22,0,0,0,.19.33.27.27,0,0,0,.14,0,4.77,4.77,0,0,1,3.07-.89,6.67,6.67,0,0,1,1.46.23h0a.22.22,0,0,0,.18-.36l-1.3-1.6a.21.21,0,0,0-.16-.08"/><path class="cls-21" d="M61.57,71.09h0s0,0,0,.07a.22.22,0,0,1,0,.08.22.22,0,0,0,0-.08s0,0,0-.07h0m-.16.54a.8.8,0,0,1-.5.19h0a.8.8,0,0,0,.5-.19"/><path class="cls-20" d="M34.79,69.73a.2.2,0,0,0-.14.06l-.83.91a.17.17,0,0,0,.12.29h0a3.56,3.56,0,0,1,.84-.06,3,3,0,0,1,1.8.65l.1,0a.18.18,0,0,0,.17-.25,4.94,4.94,0,0,0-.44-.69.67.67,0,0,1-.28-.14l-.07-.06L36,70.36l0,0s0-.08,0-.12v0a2.14,2.14,0,0,0-1.17-.45h0"/><path class="cls-21" d="M36,70.2h0s0,.08,0,.12l0,0a.44.44,0,0,0,.08.11.44.44,0,0,1-.08-.11l0,0s0-.08,0-.12m.2.33h0a.67.67,0,0,0,.28.14h0a.67.67,0,0,1-.28-.14"/><path class="cls-20" d="M43.91,91.29a.21.21,0,0,0-.19.08l-1.56,2a.23.23,0,0,0,.12.36L43,94l.45.13.44.14.12,0h.06A.24.24,0,0,0,44.3,94l0-.55-.06-.9-.05-.9,0-.17a.21.21,0,0,0-.22-.21"/><path class="cls-20" d="M42.12,90.8h0L40,91.07a.24.24,0,0,0-.13.41l1,.88a.24.24,0,0,0,.14,0,.21.21,0,0,0,.18-.07l1.09-1.15a.23.23,0,0,0-.16-.39"/><path class="cls-20" d="M60.75,51.3h-.11a13.14,13.14,0,0,0-4.86.78l-.44.16.28,1.27a10.28,10.28,0,0,1,4.9-1.16,8,8,0,0,1,1.07.12l-.41,3.16a14.5,14.5,0,0,1,4.89-.57,16.19,16.19,0,0,1,6.59,1.67L70.6,60.44a25.36,25.36,0,0,1,3.71-.13c2.09.08,4.54.47,5.89,1.72l1.35,0h0l0-.14.11-.34c-2.63-2.15-6.78-2.49-8.1-2.54H72.25l1.68-2.74a14.76,14.76,0,0,0-7.87-2.45,14.5,14.5,0,0,0-2.61.1l-1,.15h0l.74-1.53.4-.83a13,13,0,0,0-2.85-.44"/><path class="cls-21" d="M60.64,51.3a13.14,13.14,0,0,0-4.86.78,13.14,13.14,0,0,1,4.86-.78m2.56,1.27-.74,1.53h0ZM73.93,56.3h0L72.25,59h0l1.68-2.74m7.67,5.62,0,.14h0Z"/><path class="cls-20" d="M45.33,51.57a6,6,0,0,0-.73,0h-.13l.59,3.32s.18-2.28.39-3.32h-.12m-.27,3.33Z"/><path class="cls-21" d="M45.34,51.57h0m-.74,0h-.13l.59,3.32h0l-.59-3.32h.13"/><path class="cls-20" d="M33.47,56.92h-.12l-.71.12a11.21,11.21,0,0,0-1.34.36l.52,2.3.17.77s0-2.54,1.48-3.56"/><path class="cls-21" d="M33.35,56.93l-.71.12.71-.12m-2.05.48h0l.52,2.3-.52-2.3"/><path class="cls-20" d="M38.28,53.56l-.53.08a6.36,6.36,0,0,0-.73.16c-.2.05-.4.12-.61.19l.4,1.71.41,1.75c0-.14-.35-3,1.06-3.89m-1.06,3.89Z"/><path class="cls-21" d="M38.28,53.56l-.53.08.53-.08h0M37,53.8c-.2.05-.4.12-.61.19h0c.21-.07.41-.14.61-.19m-.21,1.9.41,1.75h0Z"/><path class="cls-20" d="M41.42,60.41a.28.28,0,0,0-.24.13c-3.39,5-3,16.42-3,16.49h.16a4.76,4.76,0,0,1,2,.56c-1.2-8.61.34-14.18,1.4-16.78a.29.29,0,0,0-.26-.4"/><path class="cls-21" d="M38.32,77h0a4.76,4.76,0,0,1,2,.56h0a4.76,4.76,0,0,0-2-.56"/><path class="cls-24" d="M58.63,81.83h-.21a1.09,1.09,0,0,1,0,.18,1.36,1.36,0,0,1,0,.2,1.62,1.62,0,0,1-.23.56l0,0h0l0,0a1.6,1.6,0,0,1-1,.59l-.58.09-.16,0-1.91.29-1,.15-.93.14-.14,0a1.77,1.77,0,0,1-.32,0,1.84,1.84,0,0,1-.42-.07,2,2,0,0,1-.42-.2,1.6,1.6,0,0,1-.33-.3,1.44,1.44,0,0,1-.3-.68c-.94,0-1.91.06-2.9,0l1.49,2.56,0,0h1c.34,0,.68,0,1,.07,3.56.37,6.63,1.79,7.4,3.44C60.85,88.25,62,87,62,85.18a4.51,4.51,0,0,0,0-.63,5.21,5.21,0,0,0-.12-.76.57.57,0,0,0,0-.14,2,2,0,0,0-.8-1.09l-.17-.12-.1-.06a4,4,0,0,0-.79-.33l-.1,0-.52-.11-.18,0-.57,0"/><path class="cls-25" d="M50.72,86.28c1.59.5,5,1.76,5.41,3.5a12.6,12.6,0,0,0,1.9-.45A3.46,3.46,0,0,0,57,88.21a13.1,13.1,0,0,0-6.24-1.93"/><path class="cls-20" d="M28.78,66.53a3.79,3.79,0,0,1-.63.4,4.47,4.47,0,0,1-1.72.47,3,3,0,0,0,.44.88,2.31,2.31,0,0,0,1.86,1h.17c0-.1,0-.2,0-.3,0-.82-.07-1.63-.1-2.4"/><path class="cls-21" d="M28.78,66.53a3.79,3.79,0,0,1-.63.4,3.79,3.79,0,0,0,.63-.4h0m-2.35.87h0a3,3,0,0,0,.44.88,3,3,0,0,1-.44-.88m2.45,1.53h0c0,.1,0,.2,0,.3h0c0-.1,0-.2,0-.3"/></g></svg>