<svg enable-background="new 0 0 110.8542 127.9063" viewBox="0 0 110.8542 127.9063" xmlns="http://www.w3.org/2000/svg"><path d="m110.9287 95.8301-55.4258 32-55.4238-32v-64l55.4238-32 55.4258 32z" fill="#ffcd2d"/><path d="m102.0771 37.5371v53.1406l-.0107.0098-.0195.0098-.4102.2402-.3701.2109-.6201.3496-4.1494 2.3897-.0108.0107-.1299.0791-.0595.0303-.5498.3203-.8008.4492-.0996.0606-.4795.2793-1.1309.6504-.8496.4902-.7402.4297-.2393.1309-.1308.0488-.1094.0703-1 .5703-.0303.0195-2 1.1504-.5097.2901-.1407.0801-.0293.0205-.1406.08-.0098.0098-1.04.5898-.04.0293-.0694.0411-1.1601.6699-.4502.2597-.0098.0098-.0107.0098h-.0098l-.4199.2402-1.1201.6504-.8702.5195-1.1796.67-.0801.0507-.1201.0694-.0401.0302-.04.0196-.0195.0097-.1006.0606-.2901.1699-.0293.0098-.1601.0898v.0098l-.4004.2305-.2695.1601-.1104.0606-.1797.0898-.0205.0195-.04.0196-.6895.3906-.0605.04-.2393.1397-.0205.0097-.29.17-.1495.08-.2207.1309-.2392.1397h-.0108l-.4199.25-.29.1699-.0293.0205-.3008.1699-1.3594.7891-.5.291-.25.1396-.7002.3994-.0302.0206h-.0098l-.3096.1796-.0508.0303-.2392.1504-.8408.4795-.6299.3603-.0596.0293-.5.2911c-.0098.0097-.0098.0097-.0098 0l-.5302.3095-.2901.17-.7597.4404-.0508.0293-.0498.0303-.0293.0097c0 .0108-.0108.0108-.0108.0108l-.0195.0195-.25.1396-1 .5801-.1699.1006-.04.0195-.3799.2207-1.42.8194-.3603.2099-.0898.0498-.2403.1397-.7998.4609-.2598.1494-.2802.1602-.0098.0107-.2002.1192-.2305.1308-.3496.1993-.83.4804-.0098.0098-.0899.0498-1.3203.7607-.0205.0098-.79.459-.6094.3506h-.0098l-1.4101.8095-.0205.0206-.25.1396-.5596.3203h-.0098l-.1308.0801-.1895.1094-.2705.1601h-.0097l-.2002.1201-.0596-.0302-1.1397-.6602-.0205-.0098-.2002-.1191-.8496-.4902-.0302-.0098-.3301-.1904-.0098-.0108-1.4004-.8086-.0097-.0107-.0196-.0098-1.3701-.79-.0303-.0195h-.0097l-.8301-.4805-.0596-.04-.3408-.1905-.1797-.1094-.0195-.0097-.6602-.3809-.04-.0293-.0899-.0508-.1005-.0595-.1299-.0694-.2696-.1601-.1201-.0703h-.0107l-.7197-.42-.2403-.1308-.3896-.2295-.0498-.0303-.0303-.0195-1.3994-.8106h-.0108l-.1093-.0703-.3701-.2187h-.0098l-.2705-.1602-.6201-.3603-.0303-.0108-.0596-.039-.04-.0196-1.2901-.75-.3896-.2304-.6807-.3907-.5791-.33-.1103-.0596-1-.5801-1.7198-1c-.0107-.0097-.0205-.0205-.0302-.0205l-1.3203-.7598-3.92-2.2597-.1601-.0899-.5694-.33-.4707-.2696-.4394-.2597-.2998-.17-.3809-.2207-.9892-.58-.0401-.0196-2.7402-1.5898-.0996-.0606-.1807-.0996-.6699-.3808-.8203-.4698-.0899-.0498-.5-.29-.0097-.0098-.0801-.0498h-.0098l-.1201-.0703h-.0097l-.3106-.1797-.7295-.4199c-.0098-.0098-.0098-.0098-.0205-.0098l-1.8594-1.08-1.0205-.5909-2.1094-1.2295-.0908-.0507-.1992-.1192s-.0107 0-.0205-.0097l-.2803-.1602-.5293-.3008-.8203-.4795-.0596-.04h-.0107s0 0-.0098 0l-.4902-.29-.6992-.3995-.6807-.3906-1.2197-.7099-.0996-.0596h-.0108l-.33-.1904-.4092-.2403h-.0108l-.4296-.25-.9903-.5693-.0801-.041-.0293-.0196v-53.1406l.7793-.4492 1.5899-.9199.3603-.211 3.3799-1.9492 1.0606-.6094 5.7793-3.3408h.0107l.9092-.5205 1.0508-.6191 1.8193-1.0508h.0107l.8692-.5098 3.6308-2.0801.6397-.3789.9404-.541.1699-.0898 1.6592-.9492.7803-.4512.3799-.2188.4404-.2607.6699-.3897.4297-.2597.5205-.3008.5-.2793.5899-.3398 1.1894-.6807.6905-.4102.75-.4296.6503-.3702h.0098l.0498-.0293.4297-.25 5.29-3.0507.1104-.0606.0801-.0488.2695-.1602 5.5205-3.1904.5498-.3193 1.4404-.8301.5098.2988 1.0899.6309 2.8603 1.6504 3.0899 1.789 2.5996 1.5.2197.1309 4.6904 2.6992.9805.5703 5.1299 2.96.9101.5205 1.0391.6094 2.3008 1.3105.8701.5.6894.3994.8301.4795.4903.2813.58.3398.2998.1699.7998.459.0899.0606 1.8105 1.04 2.1602 1.2402 1.1191.6494.5.2911.0401.0293v.0097l.2607.1406.6592.3897 1.4609.8398 1.9395 1.1202.7803.4394.4394.25.4902.2813 1.4502.8398.17.0996.8496.4902z" fill="#fff"/><path d="m56.0459 11.0029-46.0693 26.5601v53.1206l1.6699.96.6299.3691h.0097l8.4297 4.8603 1.0401.5997 9.3408 5.3808 1.04.5996 2.1797 1.2598.4902.2803.4297.2597.3701.21 3.1299 1.7998 3.3096 1.9102 1.2803.7402v.0098l12.7197 7.3203 34.29-19.7705 1.0508-.6094 10.7295-6.1797v-53.1206zm44.2002 78.6104-12.5703 7.25-1.0596.6094-30.5703 17.6308-12.5098-7.2099-18.08-10.4209-1.0498-.6094-12.5801-7.25v-50.9702l44.2197-25.4898 44.2002 25.4898z" opacity=".13"/><path d="m69.5703 114.6865 1.5654-.8994.0713.1231c.1651.2851.2754.5585.336.8144.0498.2412.0488.4951-.0049.7617-.124.5977-.457 1.0518-1 1.3653-.5303.3046-1.0938.375-1.6924.2099-.5996-.167-1.0537-.5205-1.3633-1.0586-.3164-.5498-.3926-1.1259-.2285-1.7304s.5205-1.0664 1.0723-1.3848c.2959-.1699.6074-.2686.9336-.2959.3134-.0215.6689.0361 1.0615.1699l-.1836.626c-.5488-.2354-1.0469-.2246-1.4922.0322-.4023.2305-.6582.5615-.7705.9961-.1152.4268-.0547.8457.1807 1.2549.2422.4228.5927.6826 1.0527.7812.4297.0899.8086.0401 1.1416-.1503.2803-.1612.4775-.4004.5928-.7188.1133-.3203.1084-.6191-.0176-.9023l-.9463.5439z" fill="#15003e"/><path d="m73.1629 110.3496h.6596v4.3717h-.6596z" fill="#15003e" transform="matrix(.8665 -.4992 .4992 .8665 -46.3625 51.7067)"/><path d="m76.2598 109.1357 1.8701 3.252-.5703.3281-1.8711-3.25-.8711.501-.3096-.5371 2.3106-1.3301.3086.5371z" fill="#15003e"/><path d="m81.418 105.7217.3886.6767c-.4902-.0869-.9121-.0283-1.2646.1748-.3887.2247-.6377.5538-.7432.9854-.1084.4326-.0459.8506.1856 1.2529.2275.3975.5566.6563.9814.7754.4258.1182.8321.0654 1.2237-.1582.1992-.1162.3525-.2471.455-.3935.0596-.0782.1162-.168.168-.2725s.1025-.2227.1504-.3555l.3975.6905c-.2198.375-.5118.665-.8711.873-.5411.3115-1.1114.3867-1.711.2305-.6015-.1621-1.0566-.5117-1.3672-1.0498-.2773-.4825-.3632-1.0049-.2627-1.5664.1241-.6895.501-1.2129 1.1241-1.5713.3398-.1963.7216-.294 1.1455-.292" fill="#15003e"/><path d="m84.1895 105.5518c-.3067-.5332-.3741-1.1036-.2041-1.71.1699-.6074.5273-1.0684 1.0732-1.3838.54-.3096 1.1143-.3828 1.7217-.2197.6113.164 1.0713.5156 1.3828 1.0566.3125.544.3857 1.1192.2139 1.7227-.1719.6054-.5342 1.0683-1.087 1.3857-.4892.2832-1.0263.3643-1.6103.251-.6445-.127-1.1406-.4951-1.4902-1.1025m.5791-.3252c.2412.4179.58.6816 1.0166.789.4345.1084.8359.0576 1.2031-.1533.3974-.2285.6533-.5586.7695-.9902.1123-.4356.0557-.8526-.1758-1.251-.2324-.4043-.5615-.665-.9882-.7822-.4268-.1211-.8389-.0674-1.2344.1611-.3946.2275-.6475.5557-.7608.9863-.1152.4287-.0586.8418.17 1.2403" fill="#fff"/><path d="m90.1475 100.5749h.6597v4.3707h-.6597z" fill="#15003e" transform="matrix(.8663 -.4996 .4996 .8663 -39.2378 58.9447)"/><path d="m94.0703 103.2148-2.3291-4.0468 4.4277 1.3007-1.5156-2.6337.5703-.3282 2.3145 4.0205-4.4238-1.2939 1.5273 2.6523z" fill="#15003e"/><path d="m69.8333 96.0417h-28.3333c-6.6 0-12-5.4-12-12v-42c0-6.6 5.4-12 12-12h28.3333c6.6 0 12 5.4 12 12v42c0 6.6-5.4 12-12 12z" fill="#ffcd2d" opacity=".36"/><path d="m45.3666 55.4356c.2809.0662.0571.0147-.0218-.028-.0875-.0473-.1709-.1016-.2533-.157-.1537-.1033-.3022-.214-.4601-.3109-.314-.1926-.6529-.3365-.9963-.4672-.4124-.157-.8301-.2986-1.246-.446-.0044-.0015-.008-.0028-.0119-.0042-.0082-.0035-.0172-.0072-.0277-.0116-.0787-.0327-.1579-.0639-.236-.0981-.1773-.0777-.3507-.1637-.519-.2593-.14-.0795-.2721-.1932-.4166-.2618.0417.0198.0699.0334.0893.0428-.0327-.017-.0817-.044-.1091-.0656-.0861-.0675-.1702-.1375-.2522-.2099-.123-.1086-.241-.2228-.354-.3418-.0491-.0517-.133-.1167-.1652-.1824.1061.1278.1188.1419.038.0422-.0339-.0429-.0672-.0863-.0998-.1303-.3669-.4866-1.0697-.7375-1.6136-.3551-.0309.0218-.061.0452-.09.0702-.2724-.0449-.6061.0091-.8293.166-.4714.3314-.7654 1.1041-.3551 1.6136.5524.686 1.1902 1.1951 1.9866 1.576.1063.0509.2131.1012.3156.1595.0161.0094.0322.0189.0484.0283.0353.0357.1682.1378.18.1483.0616.0551.1214.1122.1819.1685.333.3103.6965.582 1.0857.8188.6555.3988 1.3658.7334 2.0641 1.0498.7896.3577 1.6145.6703 2.4729.8102.7925.1292 1.3879-.3889 1.4332-1.1736.0631-1.0989-.8284-1.9532-1.8387-2.1914z" fill="#e8eee6"/><path d="m41.2671 53.4344c.035.0182.0503.0245 0 0z" fill="#e8eee6"/><path d="m61.4104 43.6448c.0088-.2189-.0738-.4426-.2101-.6317.1497-.3806.2263-.7855.1802-1.2055-.0883-.8039-.5354-1.5582-1.279-1.9172-.4659-.2249-.944-.2306-1.4415-.1377-.1517.0283-.2982.0709-.446.1147-.0675.02-.1364.0366-.2034.0579-.0055.0012-.0095.0021-.0145.0032-.0023.0002-.004.0004-.0065.0007-.0188.0004-.0375.0008-.0563.0013-.0111-.0019-.0238-.0041-.0397-.0066-.0261-.006-.0523-.012-.0784-.018-.1584-.0384-.3122-.093-.467-.1434-.3548-.1154-.7132-.1854-1.0891-.1828-.3237.0022-.6354.1665-.8498.4124-.1846-.433-.6507-.7623-1.1208-.7266-.6332.0481-1.0087.4694-1.1099 1.0417-.6106-.1341-1.2095.2015-1.5134.7356-.3355.5896-.3819 1.2936-.3831 1.9559-.0012.6227.003 1.2454.0046 1.8681.0036 1.4211.0071 2.8423.0107 4.2634.0015.611.5871 1.1787 1.2037 1.1318.2425-.0184.4625-.1003.6428-.2301.1758.2269.429.3816.7692.4156.3628.0362.6748-.0884.906-.314.2695.2744.6968.4071 1.059.3464.3655-.0613.7185-.3199.8843-.6632.2355.2449.5761.3798.9222.3585.0547.2584.3395.5633.5669.6711.2366.1122.4762.1524.7356.1089.417-.07.7097-.3263.861-.6731.1254.0421.2582.061.393.0507.6423-.0488 1.1385-.5496 1.1318-1.2037-.0188-1.8283-.0358-3.6571.0375-5.4843z" fill="#e8eee6"/><path d="m61.4975 33.2488c-.1392-.5269-.4928-1.0402-.7468-1.5202-.2399-.4534-.4523-.943-.7347-1.3714-.1873-.2841-.4579-.5398-.7731-.6742-.3258-.1389-.6088-.1684-.9526-.2061.2104.0228-.1116-.0162-.1874-.0284-.1193-.0192-.2379-.0423-.3557-.0691-.0992-.0226-.1976-.0487-.2955-.0767.0246-.0578.0436-.1185.0563-.1825.01-.1004.0201-.2009.0301-.3013-.008-.2142-.0691-.412-.1834-.5933l-.1949-.2318c-.151-.137-.3257-.2292-.5241-.2766-.0249-.0081-.0498-.0162-.0748-.0242-.1533-.042-.3052-.0434-.4558-.0042-.1586.0126-.3049.0651-.4388.1575-.1345.0794-.2405.1851-.3178.317-.0972.1162-.1607.2502-.1906.4019-.01.1004-.0201.2009-.0301.3013.0048.129.0292.2519.0726.3689-.4933.1537-.9952.2924-1.4814.467-.6489.2329-1.1168.609-1.4689 1.2029-.6007 1.0131-1.1233 2.2821-.9602 3.48.0436.3202.1315.5991.3783.8251.207.1896.5407.3283.8254.3067.3762-.0286.7808-.2569.9922-.592.9077.1221 1.8135.1531 2.729.1321.4801-.011.956-.0085 1.4354.017.0142.0008.0236.0012.0306.0014.0322.0062.064.0133.093.0178.112.0174.2233.0384.3337.064.1102.0255.2172.0635.3269.0901.0019.0005.003.0007.0048.0012.0655.0288.146.0652.1516.0678.1638.0763.3443.1154.5245.1187.0008.0013.0016.0028.0025.0041.1513.2368.4381.4555.719.5084.3013.0568.6362.0284.8946-.1533.2657-.1868.397-.417.5084-.719.2265-.6146.4345-1.1574.2577-1.8266z" fill="#e8eee6"/><path d="m70.7607 58.6928c-.0456-.0375-.2307-.1597-.2363-.2205.1061.1303.1205.1444.0432.0426-.0151-.0224-.0302-.0447-.0452-.0671-.0281-.0435-.0543-.0882-.0789-.1338-.0531-.122-.1075-.2436-.1655-.3633-.236-.4873-.6476-.8247-1.0879-1.1189-.7212-.4819-1.5345-.8259-2.3544-1.1027-.0114-.3771-.0282-.7542-.0506-1.131-.0362-.6089-.5625-1.1805-1.2037-1.1318-.6164.0468-1.1706.5513-1.1318 1.2037.0891 1.4982.0909 2.9995.0055 4.498-.0348.6111.6127 1.1767 1.2037 1.1318s.9834-.4294 1.0989-.9609c.0101.003.0202.006.0302.0091.023.0096.0489.0204.0603.026.0443.0215.0876.0445.1304.0688.032.0182.063.0384.0945.0576.1541.1276.3076.2533.4549.3895.353.3262.6999.6506 1.1067.9113.7652.4904 1.6347.1613 2.1977-.4577.4076-.4484.4185-1.2474-.0717-1.6507z" fill="#e8eee6"/><path d="m40.2257 52.2986-1.9646 2.3374c-1.0081-.8958-1.9134-1.8627-2.7207-2.8494-.8545-1.0444-1.6002-2.1117-2.243-3.1427-2.3185-3.7149-3.3132-6.959-3.3132-6.959-.1114-.0447-.2113-.1178-.2888-.2157l-1.7916-2.2703c-.3017-.3828-.1248-.949.34-1.0917l-.1596.0472-.6711-2.2574 1.1558-.3435.6711 2.2569.0477-.0139-.9067-3.0493 1.3342-.3967.9067 3.0493.8456-.2515-.5811-1.9551 1.1553-.3435.5816 1.9551-.3559.1059c.4598-.1367.9157.2237.8898.7024l-.1556 2.8489c-.0159.2943-.2157.5473-.4981.6313 0 0 .4623 1.1225 1.3422 2.7515.4887.9042 1.1056 1.9641 1.8443 3.0751.613.9232 1.31 1.8816 2.086 2.8147.7446.8957 1.5624 1.7682 2.4497 2.564z" fill="#e8eee6"/><path d="m51.2059 25.1689c0-.511.4141-.9251.9251-.9251s.9251.4141.9251.9251c0 .3017-.1442.5697-.3679.7382-.1551.1173-.348.1869-.5573.1869-.511.0001-.925-.414-.925-.9251z" fill="#e8eee6"/><path d="m57.4814 21.6643c0-.511.4141-.9251.9251-.9251s.9251.4141.9251.9251-.4141.9251-.9251.9251c-.0293 0-.0582-.0015-.0865-.0045-.4708-.0432-.8386-.4389-.8386-.9206z" fill="#e8eee6"/><path d="m52.5456 43.9512h7.6962v3.262h-7.6962z" fill="#e8eee6"/><path d="m49.6683 37.6946c0-.8928.3619-1.7011.947-2.2867.5851-.5851 1.3939-.947 2.2867-.947h6.9834c.515 0 1.0022.1203 1.4342.3346 1.0663.5289 1.7995 1.6285 1.7995 2.8991 0 .8928-.3619 1.7016-.947 2.2867-.5851.5856-1.3939.9475-2.2867.9475h-6.9834c-1.7861 0-3.2337-1.4481-3.2337-3.2342z" fill="#e8eee6"/><path d="m69.312 100.3178v1.3546c0 1.12-2.6928 2.0357-6.015 2.0357-3.3217 0-6.0145-1.0439-6.0145-2.0357v-1.4168s.346 1.3218 3.433 1.8144c-1.8592-.349-3.1333-1.0399-3.1333-1.7066 0-.4275.0537-.8431.1546-1.2418.4767-1.8786 2.0108-3.3734 3.9813-3.9033l-.3669-2.7246-.4693-3.4877-.4862-3.6095-.4921-3.6567-.4802-3.5663-.35-2.5994h-5.5134l-.35 2.5994-.48 3.5664-.4921 3.6567-.4862 3.6095-.4693 3.4877-.3669 2.7246c2.3886.6423 4.1359 2.7023 4.1359 5.1451 0 .9281-2.4711 1.9039-5.5517 1.9377 5.326-.0393 5.8375-1.9959 5.8375-1.9959v1.4168c0 .9917-2.6874 2.0357-6.0026 2.0357s-6.0026-.9157-6.0026-2.0357v-1.3546s.5349 1.8925 5.8256 1.9338c-3.0751-.0318-5.5398-.8913-5.5398-1.9377 0-2.5114 1.8473-4.6186 4.3393-5.1953l1.3188-10.1664.4668-3.5991.4653-3.5876.349-2.6894c-.6308-.4201-1.0757-1.1031-1.1727-1.9049l-1.5689-13.0267c-.6776.0547-1.283-.435-1.3661-1.116l-.5006-4.1151c-.085-.6969.4106-1.3313 1.1071-1.4183.0179-.0582.0467-.1119.084-.1586.0005-.0005.001-.0015.0015-.0025.0452-.0731.7864-1.2562 1.8701-2.2673.0452-.0423.0905-.084.1367-.1248.6338-.5717 1.3253-1.0643 1.7866-1.373.3226-.2157.5329-.3415.5329-.3415h9.8517s.2331.1397.5856.3768c.3619.2436.8486.5906 1.3367.9947.18.1486.3599.3057.5339.4678 1.0837 1.0111 1.8249 2.1942 1.8701 2.2673.0005.001.001.002.0015.0025.0776.0969.1178.2232.1014.3574l-2.3459 19.4772c-.1039.8605-.609 1.5848-1.3149 1.9934l.3375 2.6009.4653 3.5876.4668 3.5991 1.3188 10.1664c2.492.5767 4.3393 2.6839 4.3393 5.1953 0 .5334-.6398 1.0176-1.6743 1.369 1.7323-.5726 1.9709-1.4147 1.9709-1.4147z" fill="#e8eee6"/><path d="m78.4106 80.5622h.1735v2.3548h-1.206v-2.3548h-.0497v3.1815h-1.3919v-3.1815h-.8819v2.0396h-1.206v-2.0396h.3714c-.4792 0-.8143-.4752-.6527-.9271l.9609-2.6864c.0994-.2774.3624-.4628.6577-.4628 0 0-.1233-1.208-.5031-3.0204-.2103-1.0061-.4996-2.1977-.8908-3.4733-.3246-1.0598-.7193-2.1768-1.1975-3.2923-.4588-1.0713-.9942-2.1406-1.6176-3.1556-.6363-1.036-1.3646-2.0158-2.1972-2.8837l2.156-2.1575c1.0042 1.0459 1.8602 2.1828 2.5904 3.3605.7114 1.1463 1.3034 2.3309 1.7961 3.5071.5215 1.2443.9316 2.4796 1.2542 3.6513 1.1637 4.2214 1.1926 7.6147 1.1926 7.6147.094.0741.169.1725.2158.2888l1.0703 2.6869c.1807.4552-.1543.9498-.6445.9498z" fill="#e8eee6"/><path d="m58.0376 29.0948h-.5965c0-.5775-.4699-1.0474-1.0474-1.0474s-1.0474.4698-1.0474 1.0474h-.5965c0-.9064.7375-1.6439 1.6439-1.6439s1.6439.7375 1.6439 1.6439z" fill="#11083a"/><path d="m43.618 99.4201h-8.7685c-.1647 0-.2983-.1335-.2983-.2983s.1335-.2983.2983-.2983h8.7685c.1647 0 .2983.1335.2983.2983s-.1336.2983-.2983.2983z" fill="#11083a"/><path d="m77.7843 99.4201h-8.7685c-.1647 0-.2983-.1335-.2983-.2983s.1336-.2983.2983-.2983h8.7685c.1647 0 .2983.1335.2983.2983s-.1335.2983-.2983.2983z" fill="#11083a"/><path d="m57.7372 99.4201h-2.6857c-.1647 0-.2983-.1335-.2983-.2983s.1335-.2983.2983-.2983h2.6857c.1647 0 .2983.1335.2983.2983s-.1336.2983-.2983.2983z" fill="#11083a"/><path d="m52.7936 35.2316c-.4812.7009-.7621 1.549-.7621 2.4632s.2809 1.7622.7621 2.4632h-.0646c-1.3601 0-2.4627-1.1031-2.4627-2.4632 0-.68.2754-1.296.7213-1.7419.4459-.4454 1.0613-.7213 1.7414-.7213z" fill="#11083a"/><path d="m62.521 37.6948c0 .68-.2754 1.296-.7213 1.7419-.4459.4454-1.0613.7213-1.7414.7213h-.0646c.4812-.7009.7621-1.549.7621-2.4632s-.2809-1.7622-.7621-2.4632h.0646c1.3602 0 2.4627 1.1031 2.4627 2.4632z" fill="#11083a"/><path d="m59.8854 41.227h-6.9834c-1.9475 0-3.5319-1.5846-3.5319-3.5324 0-.943.3673-1.83 1.0343-2.4975.6671-.6671 1.5541-1.0345 2.4977-1.0345h6.9834c.5505 0 1.0776.123 1.5667.3656 1.2122.6013 1.9653 1.8146 1.9653 3.1664 0 .9435-.3673 1.8305-1.0343 2.4976-.667.6673-1.554 1.0348-2.4978 1.0348zm-6.9834-6.4678c-.7843 0-1.5214.3053-2.0758.8596-.5543.5548-.8596 1.292-.8596 2.0758 0 1.6189 1.3168 2.9359 2.9354 2.9359h6.9834c.7844 0 1.5216-.3054 2.0757-.86.5544-.5544.8597-1.2917.8597-2.0759 0-1.1235-.626-2.1321-1.6338-2.632-.406-.2014-.8439-.3035-1.3016-.3035h-6.9834z" fill="#11083a"/><path d="m60.7558 37.6948c0 .9142-.2809 1.7622-.7621 2.4632h-7.2001c-.4812-.7009-.7621-1.549-.7621-2.4632s.2809-1.7622.7621-2.4632h7.2001c.4812.7009.7621 1.549.7621 2.4632z" fill="#48b980"/><circle cx="57.6749" cy="37.1634" fill="#fff" r="1.1818"/><circle cx="59.2232" cy="38.9302" fill="#fff" r=".4778"/><path d="m61.6178 49.5755h-10.4482v-8.9147h.5965v8.3182h9.2552v-8.3515h.5965z" fill="#11083a"/><path d="m61.6176 34.7956h-.5965v-.9242c0-2.5516-2.0759-4.6274-4.6274-4.6274-2.5516 0-4.6274 2.0759-4.6274 4.6274v.8945h-.5965v-.8945c0-2.8805 2.3434-5.224 5.224-5.224 2.8805 0 5.224 2.3434 5.224 5.224v.9242z" fill="#11083a"/><path d="m52.5456 43.9512h7.6962v3.262h-7.6962z" fill="#ffcc2c"/><g fill="#11083a"><path d="m60.2418 47.5115h-7.6962c-.1647 0-.2983-.1335-.2983-.2983v-3.262c0-.1647.1335-.2983.2983-.2983h7.6962c.1647 0 .2983.1336.2983.2983v3.262c0 .1647-.1336.2983-.2983.2983zm-7.398-.5966h7.0997v-2.6655h-7.0997z"/><path d="m60.2416 46.4029c-.4313 0-.6415-.3043-.795-.5264-.144-.2084-.2014-.269-.3042-.269-.1029 0-.1603.0606-.3043.269-.1535.2221-.3638.5264-.795.5264-.4313 0-.6415-.3042-.795-.5264-.144-.2084-.2015-.269-.3043-.269s-.1603.0606-.3043.269c-.1535.2221-.3638.5264-.795.5264-.4313 0-.6415-.3042-.795-.5264-.144-.2084-.2015-.269-.3044-.269s-.1603.0606-.3044.269c-.1536.2221-.3638.5264-.7951.5264s-.6416-.3042-.7951-.5264c-.1441-.2084-.2015-.269-.3044-.269-.1647 0-.2983-.1335-.2983-.2983s.1335-.2983.2983-.2983c.4313 0 .6416.3042.7951.5264.1441.2084.2015.269.3044.269s.1603-.0606.3044-.269c.1535-.2221.3638-.5264.7951-.5264s.6416.3042.7951.5264c.144.2084.2015.269.3043.269.1029 0 .1603-.0606.3043-.269.1535-.2221.3638-.5264.795-.5264s.6415.3042.795.5264c.144.2084.2015.269.3043.269.1029 0 .1603-.0606.3043-.269.1535-.2221.3638-.5264.795-.5264s.6415.3042.795.5264c.144.2084.2014.269.3042.269.1647 0 .2983.1335.2983.2983s-.1336.2983-.2983.2983z"/><path d="m60.7483 75.8725h-8.7093c-.5891 0-1.1587-.1724-1.6475-.4986-.7237-.4819-1.1988-1.2536-1.3032-2.1172l-2.3459-19.4773c-.0132-.108-.0037-.2162.0282-.3213.0255-.0831.064-.1601.1149-.23l.0027-.0055.0213-.0264c.1491-.1844.3703-.2902.6068-.2902h17.7547c.2365 0 .4577.1058.6068.2902l.0239.0318c.1165.1596.1672.3542.1431.5517l-2.3458 19.4769c-.1114.9222-.6577 1.7506-1.4616 2.2158-.4501.2617-.9652.4001-1.4891.4001zm-13.385-22.2867c-.0097.0146-.0171.0302-.0222.0466-.0073.0241-.0096.0496-.0065.0751l2.3459 19.4777c.0835.6901.4632 1.307 1.0418 1.6923.3906.2607.8458.3984 1.3166.3984h8.7093c.4187 0 .8301-.1105 1.1899-.3195.6429-.3722 1.0796-1.0342 1.1686-1.7712l2.3459-19.4776c.0064-.0523-.0095-.0926-.0276-.1203l-.0207-.0189-.0079-.0159c-.0251-.0237-.0662-.0499-.1255-.0499h-17.7546c-.059 0-.1.0259-.1251.0495l-.0067.0138z"/><path d="m47.3406 53.607-.1997-.2197h-.2997l.0501-.1252-.018-.009.0145-.0263c.0321-.0519.7995-1.2827 1.9203-2.3284.0472-.0441.0945-.0878.1429-.1304.6409-.578 1.3426-1.0791 1.818-1.3972.3252-.2175.5368-.3443.5457-.3496l.3062.5119c-.002.0012-.2087.1252-.5202.3335-.459.3072-1.1358.7902-1.7527 1.3466-.0466.0411-.0897.0809-.1329.1213-1.0179.9497-1.7271 2.0581-1.8125 2.194l-.0183.0375z"/><path d="m65.4467 53.607-.0423-.0385-.0194-.0394c-.0837-.1334-.7935-1.2436-1.8127-2.1945-.1642-.1529-.3393-.3064-.5204-.4559-.4979-.4122-.989-.7589-1.3134-.9773-.3406-.2292-.5701-.367-.5724-.3684l.3066-.5117c.0098.0059.244.1465.5989.3852.3356.2259.844.5849 1.3604 1.0124.1899.1568.374.3181.547.4793 1.0487.9785 1.788 2.1189 1.9052 2.3042l.0614.0645.0005.1203h-.2997.0014l-.0099.0094zm.1936-.2197h.006zm-.2907 0h.2891z"/><path d="m47.7104 60.4967c-.7884 0-1.4598-.5853-1.557-1.3824l-.5006-4.1151c-.1043-.8551.5041-1.6379 1.3577-1.7491l.0185-.0036.031-.0002v.2983l.0554.2929-.0226.0022.0002.0013c-.5325.0665-.9129.5538-.848 1.0862l.5006 4.1152c.0635.5215.5232.8968 1.046.8547l.0073-.0005c.0117-.0007.0237-.0022.0354-.0035l.0679.5926c-.0218.0025-.0441.0049-.066.0062-.0422.0032-.0842.0048-.1258.0048z"/><path d="m30.2439 42.0327c-.1262 0-.2522-.0237-.3702-.0709-.1618-.065-.3041-.1712-.412-.3075l-1.7919-2.2707c-.2028-.2573-.2655-.5973-.1679-.9098.0975-.3122.3422-.5558.6545-.6517l4.0261-1.1973c.3085-.0918.6436-.0275.8964.1719.253.1995.3937.5107.3763.8325v.0002l-.1556 2.8489c-.0227.419-.3084.7811-.7109.9009l-2.0611.6125c-.0924.0274-.1881.041-.2837.041zm-.8322-3.9619-1.0827.3222c-.1235.0379-.2184.1324-.2577.2585-.0395.1264-.0151.2586.0668.3626l1.7915 2.2702c.0433.0546.1008.0976.1659.1237.0828.0331.1762.0373.2623.0117l2.0609-.6124c.1615-.048.2762-.1933.2853-.3615l.1556-2.8489c.007-.1302-.0477-.2513-.1501-.332-.1021-.0806-.2324-.1055-.357-.0684z"/><path d="m29.087 38.1674-1.0767-3.621 1.906-.5667 1.0767 3.6211zm-.335-3.2193.7367 2.4775.7625-.2267-.7367-2.4775z"/><path d="m27.8833 38.5249-.841-2.8288 1.7275-.5134.7685 2.5843v.2664zm-.0992-2.4269.5012 1.6857.5841-.1737-.5012-1.6856z"/><path d="m31.2667 37.5191-.7511-2.5269 1.727-.5135.7517 2.5269zm-.0093-2.1251.4112 1.3834.5839-.1735-.4115-1.3834z"/><path d="m45.8337 55.8955c-.9495-.2678-1.9009-.6714-2.8276-1.1996-1.0039-.5712-2.0063-1.303-2.9794-2.1751-.841-.7544-1.6754-1.6276-2.48-2.5955-.7211-.8671-1.4294-1.8228-2.105-2.8403-.6516-.9801-1.2768-2.0225-1.8582-3.0983-.8773-1.6241-1.3365-2.7333-1.3556-2.7797l.5516-.2272c.0046.0111.4677 1.1292 1.3288 2.7234.5727 1.0598 1.1885 2.0866 1.8302 3.0517.664.9999 1.3593 1.9383 2.0669 2.7891.7861.9457 1.6002 1.7978 2.4195 2.5328.9414.8437 1.9092 1.5505 2.8763 2.1008.8849.5044 1.7914.8892 2.6944 1.1439z"/><path d="m46.3585 59.2683c-2.9983-.6986-5.7893-2.182-8.2954-4.4093-.9582-.8514-1.8845-1.8215-2.7534-2.8835-.7989-.9764-1.561-2.0442-2.2652-3.1738-2.3123-3.705-3.3352-6.9966-3.3452-7.0294l.5703-.1749c.0099.0321 1.0123 3.2534 3.2811 6.8886.6909 1.1081 1.438 2.155 2.2208 3.1118.849 1.0376 1.7533 1.9848 2.688 2.8153 2.431 2.1604 5.1342 3.5985 8.0346 4.2742z"/><path d="m40.9031 55.4795h3.0497v.5965h-3.0497z" transform="matrix(.4761 -.8794 .8794 .4761 -26.8222 66.5344)"/><path d="m38.4895 54.8279-.4566-.3838 1.9768-2.3512.2204.2095.2239.1881z"/><path d="m35.141 50.4623h3.0345v.5966h-3.0345z" transform="matrix(.7367 -.6762 .6762 .7367 -24.6733 38.1551)"/><path d="m33.0193 47.4838h2.9488v.5965h-2.9488z" transform="matrix(.8113 -.5846 .5846 .8113 -21.4262 29.1834)"/><path d="m31.2527 44.1509h2.7344v.5965h-2.7344z" transform="matrix(.8971 -.4419 .4419 .8971 -16.2843 18.9901)"/><path d="m65.1637 60.497c-.0631 0-.1268-.0038-.191-.0116l.072-.5922c.534.0652 1.0216-.3168 1.0866-.851l.5005-4.1152c.065-.5342-.3168-1.0216-.851-1.0866l.072-.5922c.8607.1047 1.4757.8901 1.3711 1.7508l-.5005 4.1152c-.0968.7966-.7767 1.3828-1.5597 1.3828z"/><path d="m78.4106 80.8605h-4.1906c-.322 0-.6249-.1572-.8104-.4206-.1856-.2635-.2316-.6019-.1231-.9053l.9609-2.6864c.1417-.3952.5188-.6606.9385-.6606h2.15c.2239 0 .4435.0765.6184.2153.1355.1068.242.2492.3071.4112l1.0706 2.6877c.1217.3062.0839.6516-.101.924-.1848.2722-.4914.4347-.8204.4347zm-3.2247-4.0763c-.1686 0-.3201.1066-.3769.2652l-.9609 2.6862c-.0439.1227-.026.2543.0491.3608s.1927.1676.3228.1676h4.1907c.133 0 .2521-.0631.3268-.1732.0749-.1103.0895-.2445.0403-.3684l-1.0702-2.6866c-.026-.0646-.0687-.1219-.1233-.1649-.0707-.0561-.1586-.0867-.2484-.0867z"/><path d="m77.6267 84.042h-1.9884v-3.778h1.9884zm-1.3919-.5965h.7954v-2.585h-.7954z"/><path d="m78.8824 83.2153h-1.8025v-2.9513h1.8025zm-1.206-.5965h.6094v-1.7583h-.6094z"/><path d="m75.3529 82.9002h-1.8025v-2.6362h1.8025zm-1.206-.5966h.6094v-1.4431h-.6094z"/><path d="m74.8892 76.5163c-.0012-.012-.1267-1.2159-.4983-2.9896-.2459-1.1763-.5433-2.336-.8841-3.447-.352-1.1491-.7512-2.2467-1.1865-3.2623-.4843-1.1308-1.0219-2.1795-1.5976-3.1171-.6611-1.0764-1.3873-2.0297-2.1583-2.8333-.706-.7368-1.4653-1.364-2.2567-1.8643l.3188-.5042c.8323.5261 1.6292 1.1841 2.3685 1.9557.8003.8342 1.5526 1.8213 2.236 2.934.591.9623 1.1419 2.037 1.6376 3.1943.4437 1.0352.8503 2.1531 1.2085 3.3225.346 1.1283.648 2.3057.8976 3.4996.3786 1.8068.5027 3.0012.5078 3.0512z"/><path d="m77.4706 76.6392c-.0003-.0336-.0431-3.4071-1.1818-7.538-.3475-1.2621-.7653-2.4785-1.2418-3.6152-.5179-1.2365-1.1149-2.4023-1.7744-3.4651-.7586-1.2234-1.6172-2.3374-2.5521-3.3112-1.1717-1.222-2.4942-2.2566-3.9308-3.0752l.2953-.5183c1.4865.847 2.8545 1.9171 4.0659 3.1805.9636 1.0037 1.848 2.1509 2.6286 3.4097.676 1.0895 1.2876 2.2836 1.8176 3.5491.4862 1.1601.9124 2.4007 1.2667 3.6872 1.1607 4.2103 1.203 7.6571 1.2033 7.6914z"/><path d="m68.3326 59.2835h3.0501v.5965h-3.0501z" transform="matrix(.7069 -.7074 .7074 .7069 -21.6673 66.8795)"/><path d="m70.7246 62.4057h3.0538v.5966h-3.0538z" transform="matrix(.8349 -.5504 .5504 .8349 -22.5838 50.1209)"/><path d="m72.4412 65.737h3.0345v.5965h-3.0345z" transform="matrix(.8989 -.4381 .4381 .8989 -21.456 39.08)"/><path d="m73.71 69.2089h2.9488v.5966h-2.9488z" transform="matrix(.9443 -.3291 .3291 .9443 -18.6862 28.6139)"/><path d="m74.6634 72.9375h2.7344v.5966h-2.7344z" transform="matrix(.9858 -.168 .168 .9858 -11.2206 13.8106)"/><path d="m60.9722 72.9872h-8.8221c-.6523 0-1.1922-.4895-1.2559-1.1387l-1.2757-13.0018c-.0267-.2729.0635-.5459.2477-.7491s.4471-.3197.7213-.3197h11.6302c.2698 0 .5298.1134.7134.311s.2775.4653.2576.7343l-.958 12.9948c-.0483.6556-.6011 1.1692-1.2585 1.1692zm-10.3847-14.6127c-.1078 0-.207.044-.2794.1238s-.1065.1829-.0959.2901l1.2757 13.0018c.0335.3423.3183.6004.6622.6004h8.8221c.3467 0 .6381-.2708.6636-.6164l.958-12.9949c.0078-.1057-.0277-.2068-.0998-.2844-.0721-.0777-.1703-.1204-.2763-.1204z"/><path d="m49.3347 102.6005c-.0614 0-.1218 0-.1821-.0011-1.5176-.0157-2.9447-.2305-4.0163-.605-1.1884-.4153-1.8166-.9793-1.8166-1.6309 0-2.6073 1.8794-4.8632 4.5703-5.4859l.4202-.0972-.0618.4608c-.0075.0583.0094.1167.048.163.0384.0462.0926.0734.1525.0767l1.9176.1044c.1101.0055.2089-.0751.2236-.1846l.0751-.5584.3278.0882c1.2286.3303 2.3356 1.0395 3.1173 1.9967.8109.993 1.2395 2.1814 1.2395 3.4364 0 .5963-.6453 1.159-1.8171 1.5846-1.1118.4037-2.5429.6351-4.0296.6514-.0537.0009-.1108.0009-.1684.0009zm0-.5965c.0538.0003.1071 0 .1594-.001 3.2633-.0358 5.2591-1.0818 5.2591-1.6395 0-2.1358-1.4636-4.0508-3.598-4.7617-.1047.3523-.4442.5996-.821.5791l-1.9175-.1044c-.2239-.0119-.4351-.1179-.5789-.2907-.0604-.0725-.107-.1545-.1387-.2417-2.2436.6585-3.783 2.5972-3.783 4.8194 0 .3532.5429.7624 1.4169 1.0678 1.0118.3536 2.3713.5566 3.8278.5717.0591.0011.1155.0012.1739.001z"/><path d="m55.3373 100.3054v1.4168c0 .9917-2.6874 2.0357-6.0026 2.0357s-6.0026-.9157-6.0026-2.0357v-1.3546s.5349 1.8925 5.8256 1.9338c.0587.001.1173.001.177.001.0557 0 .1109 0 .165-.001 5.3261-.0394 5.8376-1.996 5.8376-1.996z"/><path d="m42.3271 85.0981h19.8214v.5965h-19.8214z" transform="matrix(.1335 -.9911 .9911 .1335 -39.3664 125.7695)"/><path d="m39.152 84.8488h20.2104v.5965h-20.2104z" transform="matrix(.1286 -.9917 .9917 .1286 -41.5166 123.0471)"/><path d="m51.4109 76.4826h.5966v3.0235h-.5966z" transform="matrix(.1185 -.993 .993 .1185 -31.8643 120.0946)"/><path d="m50.9383 80.068h.5965v3.0064h-.5965z" transform="matrix(.1121 -.9937 .9937 .1121 -35.5634 123.3423)"/><path d="m50.4587 83.7051h.5965v2.9882h-.5965z" transform="matrix(.1321 -.9912 .9912 .1321 -40.4023 124.2525)"/><path d="m49.9918 87.3573h.5965v2.9451h-.5965z" transform="matrix(.1196 -.9928 .9928 .1196 -43.9183 128.1314)"/><path d="m49.5398 90.8329h.5966v2.9172h-.5966z" transform="matrix(.1388 -.9903 .9903 .1388 -48.4778 128.8366)"/><path d="m63.299 102.6005c-.9147 0-1.8025-.0799-2.6387-.2373-1.6322-.3064-3.3764-.9926-3.3764-1.9997 0-.4433.055-.8857.1637-1.315.5024-1.9798 2.1091-3.5577 4.193-4.1181l.3278-.0882.0751.5581c.0147.1098.1124.1901.2237.1849l1.9172-.1044c.0602-.0032.1144-.0304.1528-.0767.0386-.0463.0555-.1047.0478-.1643l-.0616-.4595.4202.0972c2.6909.6226 4.5703 2.8785 4.5703 5.4859 0 .6633-.6489 1.2343-1.8765 1.6514-.0169.006-.0364.0124-.0569.0189-1.1004.3651-2.5514.5668-4.0815.5668zm-1.8205-6.9987c-1.7205.5719-3.0288 1.9238-3.4526 3.5934-.0965.3813-.1454.7745-.1454 1.1684 0 .3616.8966 1.0393 2.8901 1.4134.8.1507 1.6506.2271 2.5284.2271 1.468 0 2.8523-.1909 3.8979-.5376.0183-.0058.0317-.0102.0455-.0151.9111-.3096 1.4751-.726 1.4751-1.0877 0-2.2222-1.5394-4.161-3.783-4.8194-.0317.0873-.0783.1693-.1386.2417-.1438.1728-.3549.2787-.5792.2907l-1.917.1044c-.3778.0203-.7164-.2269-.8212-.5793z"/><path d="m60.0977 75.4856h.5965v19.8214h-.5965z" transform="matrix(.9911 -.1334 .1334 .9911 -10.8538 8.8217)"/><path d="m64.3807 95.2066-2.5999-20.0427.5917-.0762.3489 2.6891 2.2509 17.3531z"/><path d="m59.4129 77.696h3.0234v.5966h-3.0234z" transform="matrix(.993 -.1185 .1185 .993 -8.8119 7.768)"/><path d="m59.8941 81.2729h3.0064v.5965h-3.0064z" transform="matrix(.9937 -.1121 .1121 .9937 -8.7606 7.4001)"/><path d="m60.3827 84.901h2.9882v.5965h-2.9882z" transform="matrix(.9912 -.1322 .1322 .9912 -10.7175 8.9252)"/><path d="m60.8711 88.5315h2.9451v.5965h-2.9451z" transform="matrix(.9928 -.1196 .1196 .9928 -10.1787 8.0958)"/><path d="m61.3371 91.9932h2.9172v.5966h-2.9172z" transform="matrix(.9903 -.1388 .1388 .9903 -12.2042 9.6112)"/><path d="m69.312 100.3178v1.3546c0 1.12-2.6928 2.0357-6.015 2.0357-3.3217 0-6.0145-1.0439-6.0145-2.0357v-1.4168s.346 1.3218 3.433 1.8144c.7069.1128 1.5579.1824 2.5815.1824 1.8254 0 3.1025-.2157 3.9938-.5031.0174-.0055.0338-.0109.0507-.0169 1.7319-.5725 1.9705-1.4146 1.9705-1.4146z"/><path d="m54.6502 25.4196h6.7807v.5966h-6.7807z" transform="matrix(.0889 -.996 .996 .0889 27.2668 81.2434)"/><path d="m53.4986 25.3018h.5965v4.2057h-.5965z" transform="matrix(.8037 -.595 .595 .8037 -5.7472 37.3859)"/><path d="m52.131 26.3923c-.6746 0-1.2234-.5488-1.2234-1.2234s.5488-1.2234 1.2234-1.2234 1.2234.5488 1.2234 1.2234c0 .3875-.1774.7434-.4867.9764-.2134.1615-.4684.247-.7367.247zm0-1.8502c-.3456 0-.6269.2812-.6269.6268s.2812.6268.6269.6268c.1374 0 .2679-.0437.3773-.1265.1587-.1196.2495-.3018.2495-.5003 0-.3456-.2812-.6268-.6268-.6268z"/><path d="m58.4065 22.8877c-.0397 0-.0793-.0021-.1177-.0061-.6287-.0577-1.1057-.5812-1.1057-1.2173 0-.6746.5488-1.2234 1.2234-1.2234.6745 0 1.2234.5488 1.2234 1.2234-.0001.6746-.5489 1.2234-1.2234 1.2234zm0-1.8502c-.3456 0-.6269.2812-.6269.6268 0 .3258.244.5939.5676.6236.0217.0023.0403.0032.0592.0032.3456 0 .6268-.2812.6268-.6268s-.2811-.6268-.6267-.6268z"/></g><path d="m49.7961 51.541c-.1299 0-.2603-.0203-.3875-.0613-.2852-.0919-.529-.2833-.6863-.539l.508-.3127c.0829.1347.2112.2355.3613.2838.1683.0542.3478.0397.5053-.041.1574-.0807.2739-.2179.3282-.3863l.184-.5698c.0192-.0599.0299-.1222.0317-.1845.0028-.097-.0154-.1915-.0542-.2809l.5472-.2374c.0728.1678.1086.353.1033.5353-.0033.1184-.0235.2362-.0601.3501l-.1841.5703c-.1031.3199-.3246.5807-.6238.7341-.1804.0925-.376.1393-.573.1393z" fill="#ffcc2e"/><path d="m50.7371 53.9137c-.4482 0-.8827-.2396-1.1101-.6609l-.2841-.5266c-.3297-.6109-.1009-1.3762.51-1.7059.296-.1597.6364-.1946.9586-.0983s.5876.3124.7474.6083l.2842.5266c.1597.2959.1946.6364.0983.9586s-.3124.5876-.6083.7473c-.1898.1024-.3943.1509-.596.1509zm-.2872-2.4482c-.1084 0-.2157.0269-.3138.0798-.3214.1735-.4418.5762-.2683.8976l.2841.5266c.1735.3214.5762.4418.8977.2683.1557-.084.2694-.2237.3201-.3932s.0323-.3487-.0518-.5044l-.2842-.5266c-.084-.1557-.2237-.2694-.3932-.3201-.0628-.0187-.1269-.028-.1906-.028z" fill="#ffcc2e"/><path d="m52.7504 55.5304c-.2253 0-.4531-.0603-.6585-.1869l-.5094-.3139c-.591-.3643-.7755-1.1414-.4112-1.7324.3641-.5909 1.1413-.7755 1.7323-.4113l.5094.3139c.591.3642.7755 1.1414.4113 1.7324-.2376.3856-.6511.5982-1.0739.5982zm-.5061-2.2353c-.0513 0-.103.006-.1542.0182-.1722.0409-.3181.1463-.4109.297-.1917.311-.0946.7199.2164.9116l.5093.3139c.311.1917.7199.0946.9116-.2164.1916-.311.0945-.7199-.2164-.9116l-.5094-.3139c-.1058-.0653-.2251-.0988-.3464-.0988z" fill="#ffcc2e"/><path d="m55.3763 56.0999c-.0123 0-.0247-.0002-.037-.0005l-.5981-.0172c-.3362-.0096-.6485-.1496-.8794-.3941s-.3527-.5643-.343-.9005c.0199-.6939.6019-1.2423 1.2946-1.2224l.5981.0172c.3362.0096.6484.1496.8793.3942.2309.2445.3527.5643.343.9005-.0096.3362-.1496.6484-.3941.8793-.2355.2222-.5409.3435-.8634.3435zm-.5993-1.9387c-.3566 0-.6517.2847-.662.6435-.0051.1769.059.3452.1805.4738.1215.1287.2858.2023.4627.2074l.5981.0172c.1782.0055.3452-.059.4739-.1805.1286-.1215.2023-.2858.2074-.4627.005-.1769-.059-.3452-.1805-.4738s-.2858-.2023-.4626-.2074l-.5981-.0172c-.0066-.0003-.013-.0003-.0194-.0003z" fill="#ffcc2e"/><path d="m57.3632 56.0697c-.2543 0-.5022-.0771-.7155-.2252-.2762-.1918-.4612-.4797-.5209-.8107-.1233-.6832.3323-1.3393 1.0155-1.4625l.5889-.1062c.3307-.0597.6653.0131.9415.2049s.4612.4797.5209.8107c.1233.6832-.3323 1.3393-1.0155 1.4625l-.5889.1062c-.0753.0136-.1509.0203-.226.0203zm.5929-2.0282c-.0395 0-.0793.0035-.1189.0107l-.5889.1062c-.3595.0648-.5992.4101-.5344.7695.0314.1742.1288.3256.2741.4266.1453.1009.3212.1392.4954.1078l.5889-.1062c.3595-.0648.5992-.4101.5344-.7696-.0314-.1741-.1288-.3256-.2741-.4266-.1122-.0778-.2427-.1184-.3765-.1184z" fill="#ffcc2e"/><path d="m59.7075 55.0146c-.4482 0-.8827-.2396-1.11-.6609-.3297-.6109-.1009-1.3762.51-1.7059l.5266-.2842c.611-.3296 1.3762-.1009 1.7059.51.3297.6109.1009 1.3762-.51 1.7059l-.5266.2842c-.1897.1024-.3942.1509-.5959.1509zm.5233-2.2053c-.1062 0-.2137.0255-.3135.0794l-.5266.2842c-.3214.1735-.4418.5762-.2683.8976s.576.4419.8976.2683l.5266-.2842c.3215-.1735.4419-.5762.2684-.8976-.1196-.2217-.3483-.3477-.5842-.3477z" fill="#ffcc2e"/><path d="m61.6029 53.3505c-.2751 0-.5412-.0897-.7632-.2599-.551-.4222-.6558-1.2141-.2336-1.7651l.3639-.4749c.4223-.551 1.2142-.6557 1.7652-.2335.267.2046.4382.5008.4823.8342s-.0443.664-.2488.9309l-.3639.4749c-.2046.2669-.5008.4382-.8342.4823-.056.0075-.112.0111-.1677.0111zm.3674-2.3963c-.1993 0-.3964.0893-.5266.2593l-.3639.4749c-.2222.29-.1671.7066.1229.9288.1405.1076.3143.1541.4898.131.1754-.0232.3313-.1134.4389-.2538l.3639-.4749c.1077-.1405.1542-.3144.131-.4898s-.1134-.3313-.2538-.4389c-.12-.0921-.2616-.1366-.4022-.1366z" fill="#ffcc2e"/><path d="m62.862 51.0268c-.0471 0-.0944-.0026-.1419-.0079-.6462-.0725-1.1378-.6375-1.1191-1.2863.0011-.0395.0045-.0755.0073-.1025l.0364-.3289.5929.0657-.0362.3267c-.0018.0172-.0036.0367-.0042.0562-.0098.3411.249.6382.5892.6763.1758.0195.3489-.0307.4871-.1416l.3735.4651c-.2255.1811-.5.2772-.785.2772z" fill="#ffcc2e"/><path d="m57.1488 63.6773h-.6907c-.1234 0-.2235-.1001-.2235-.2235s.1001-.2235.2235-.2235h.6907c.1234 0 .2235.1001.2235.2235-.0001.1235-.1002.2235-.2235.2235z" fill="#11083a"/><path d="m58.374 64.069.7343-.692c-.5619-.5619-1.3381-.9094-2.1955-.9094-1.7148 0-3.1049 1.3901-3.1049 3.1049s1.3901 3.1049 3.1049 3.1049c.6392 0 1.2013.2333 1.695-.0978l.6145.085-.0176-.9976-1.7597-1.3935.3783-1.7818z" fill="#fff"/><path d="m58.6242 67.2305-.4377-.424c.3223-.3326.4998-.7709.4998-1.2341 0-.4835-.191-.9353-.5379-1.2722l-.2283-.2218.2448-.2311.2086.221.1995-.2053c.4661.4527.7227 1.0598.7227 1.7094 0 .6224-.2385 1.2112-.6715 1.6581z" fill="#48b980"/><path d="m56.2118 65.5724c0-.3872.3138-.701.701-.701s.7011.3138.7011.701c0 .3871-.3139.701-.7011.701-.3872.0001-.701-.3138-.701-.701z" fill="#e8eee6"/><path d="m59.1082 63.3769-1.7718 1.6371" fill="none"/><path d="m57.2435 66.1906 1.2736.9587.6877.5176v1.3151l-1.3814-.0665z" fill="#fff"/><path d="m58.3354 66.6308-.6144-.4623c.1238-.167.1973-.3728.1973-.596 0-.1973-.0577-.3813-.1566-.5364l.5707-.5274.2436-.2252.007.0075.2033-.1914.5259-.4956.003-.003.2307-.2172-.2222-.2222c-.6199-.6199-1.4371-.9709-2.3101-.9962v-.4728c0-.1233-.0999-.2232-.2232-.2232s-.2237.0999-.2237.2232v.4877c-.2098.0214-.4136.0626-.6104.1203v-.608c0-.1233-.1004-.2232-.2237-.2232s-.2232.0999-.2232.2232v.774c-1.1816.5359-2.0063 1.726-2.0063 3.1059 0 1.8617 1.4998 3.3783 3.3545 3.4082v.0015h2.6521v-1.4675l-.687-.517zm.5647 1.7418h-1.9874c-.772 0-1.4719-.3142-1.979-.8212-.507-.5071-.8212-1.207-.8212-1.979 0-1.544 1.2562-2.8002 2.8002-2.8002.6413 0 1.2492.2143 1.7429.608l-1.3646 1.2612c-.1168-.0477-.2446-.0746-.3783-.0746-.5543 0-1.0056.4509-1.0056 1.0056s.4514 1.0057 1.0056 1.0057c.0989 0 .1939-.0149.2839-.0413l.1437.1084 1.5599 1.1737v.5537zm-1.5912-2.8002c0 .2187-.1775.3962-.3962.3962-.2182 0-.3962-.1775-.3962-.3962s.178-.3962.3962-.3962c.2187 0 .3962.1775.3962.3962z" fill="#11083a"/></svg>