<?xml version="1.0" encoding="utf-8"?>
<!-- Generator: Adobe Illustrator 23.0.1, SVG Export Plug-In . SVG Version: 6.00 Build 0)  -->
<svg version="1.1" xmlns="http://www.w3.org/2000/svg" xmlns:xlink="http://www.w3.org/1999/xlink" x="0px" y="0px"
	 viewBox="0 0 110.8047 127.667" style="enable-background:new 0 0 110.8047 127.667;" xml:space="preserve">
<style type="text/css">
	.st0{fill:#00C16E;}
	.st1{fill:#121317;}
	.st2{fill:#0FCE7C;}
	.st3{fill:none;stroke:#00C16E;stroke-width:2;stroke-miterlimit:10;}
	.st4{fill:#A2F6D2;}
	.st5{opacity:0.13;enable-background:new    ;}
	.st6{opacity:0.21;fill:url(#SVGID_1_);enable-background:new    ;}
	.st7{opacity:0.06;fill:url(#SVGID_2_);enable-background:new    ;}
	.st8{opacity:0.06;fill:url(#SVGID_3_);enable-background:new    ;}
	.st9{opacity:0.06;fill:url(#SVGID_4_);enable-background:new    ;}
	.st10{opacity:0.06;fill:url(#SVGID_5_);enable-background:new    ;}
	.st11{opacity:0.06;fill:url(#SVGID_6_);enable-background:new    ;}
	.st12{opacity:0.06;fill:url(#SVGID_7_);enable-background:new    ;}
	.st13{opacity:0.06;fill:url(#SVGID_8_);enable-background:new    ;}
	.st14{opacity:0.06;fill:url(#SVGID_9_);enable-background:new    ;}
	.st15{opacity:0.06;fill:url(#SVGID_10_);enable-background:new    ;}
	.st16{opacity:0.06;fill:url(#SVGID_11_);enable-background:new    ;}
	.st17{opacity:0.06;fill:url(#SVGID_12_);enable-background:new    ;}
	.st18{opacity:0.06;fill:url(#SVGID_13_);enable-background:new    ;}
	.st19{opacity:0.06;fill:url(#SVGID_14_);enable-background:new    ;}
	.st20{opacity:0.06;fill:url(#SVGID_15_);enable-background:new    ;}
	.st21{opacity:0.06;fill:url(#SVGID_16_);enable-background:new    ;}
	.st22{opacity:0.06;fill:url(#SVGID_17_);enable-background:new    ;}
	.st23{opacity:0.06;fill:url(#SVGID_18_);enable-background:new    ;}
	.st24{opacity:0.49;fill:url(#SVGID_19_);}
	.st25{opacity:0.49;fill:url(#SVGID_20_);}
	.st26{opacity:0.49;fill:url(#SVGID_21_);}
	.st27{opacity:0.49;fill:url(#SVGID_22_);}
	.st28{opacity:0.49;fill:url(#SVGID_23_);}
	.st29{opacity:0.49;fill:url(#SVGID_24_);}
	.st30{opacity:0.49;fill:url(#SVGID_25_);}
	.st31{opacity:0.49;fill:url(#SVGID_26_);}
	.st32{opacity:0.6;fill:url(#SVGID_27_);}
	.st33{opacity:0.6;fill:url(#SVGID_28_);}
	.st34{opacity:0.6;fill:url(#SVGID_29_);}
	.st35{opacity:0.6;fill:url(#SVGID_30_);}
	.st36{opacity:0.6;fill:url(#SVGID_31_);}
	.st37{opacity:0.6;fill:url(#SVGID_32_);}
	.st38{opacity:0.6;fill:url(#SVGID_33_);}
	.st39{opacity:0.6;fill:url(#SVGID_34_);}
</style>
<g id="Layer_1">
	<g id="Layer_63_12_">
		<polygon class="st0" points="110.8506,95.667 55.4229,127.667 0,95.667 0,31.667 55.4229,-0.333 110.8506,31.667 		"/>
	</g>
	<path class="st1" d="M101.74,37.196v53.14l-0.01,0.01l-0.68,0.39l-0.74,0.42l-0.66,0.38l-1,0.58L96.16,93.546l-0.2,0.12l-1.93,1.11
		l-2.72,1.57l-0.24,0.13l-0.13,0.05l-0.11,0.07l-2.14,1.23l-0.65,0.37l-0.24,0.14l-0.17,0.1l-0.01,0.01l-0.34,0.19l-0.3,0.17
		l-1.05,0.6l-0.04,0.03l-0.72,0.41v0.01l-0.51,0.29l-0.45,0.26l-0.02,0.02h-0.01l-1.07,0.6201l-0.16,0.09l-0.31,0.18l-0.24,0.14
		l-0.63,0.38l-0.37,0.21l-0.8,0.46l-0.09,0.05l-0.12,0.07l-0.08,0.05l-0.41,0.2401l-0.03,0.0099l-0.16,0.09v0.01l-0.78,0.45
		l-0.06,0.03l-0.12,0.06l-0.02,0.02l-0.04,0.02l-0.9,0.52l-0.11,0.06l-0.16,0.09l-0.13,0.08l-0.05,0.03l-0.3,0.17l-0.02,0.01
		l-0.08,0.05l-0.16,0.09h-0.01l-0.71,0.42l-1.01,0.59l-0.45,0.25v0.01l-1.42,0.81l-0.11,0.07l-0.42,0.24l-1.06,0.62l-0.15,0.08
		l-0.63,0.36l-0.06,0.03l-1.23,0.71l-1.74,1.01l-0.53,0.31l-0.82,0.47l-0.85,0.49l-0.31,0.1801l-0.04,0.03l-2.02,1.16l-0.01,0.0099
		l-0.3,0.17l-0.13,0.08l-2.24,1.29l-1.04,0.6l-0.25,0.14l-0.21,0.12l-1.01,0.59l-0.96,0.55l-0.56,0.32h-0.01l-0.32,0.19l-0.48,0.28
		l-1.42-0.82l-0.77-0.45l-0.08-0.04l-0.03-0.01l-0.24-0.14l-1.5-0.87l-3.02-1.75l-0.35-0.2l-0.16-0.09l-0.04-0.03l-0.28-0.16
		l-0.12-0.07l-0.96-0.55l-0.71-0.41l-0.1-0.0601l-2.5-1.4399l-0.0099-0.01l-0.9301-0.54l-0.6-0.35l-0.29-0.17l-0.12-0.07l-0.81-0.47
		l-0.69-0.39l-0.89-0.51l-0.17-0.1l-0.38-0.22l-1.03-0.6l-1.7-0.98l-0.65-0.38l-0.04-0.03l-0.23-0.13l-0.39-0.22l-0.2-0.11
		l-0.29-0.17l-0.19-0.11l-0.14-0.09l-0.0099-0.01l-0.07-0.04l-1.03-0.59l-0.74-0.42l-0.02-0.01l-0.55-0.32l-0.43-0.25l-0.37-0.21
		l-0.13-0.08l-0.03-0.02l-0.27-0.15l-0.19-0.11l-0.29-0.17l-0.75-0.44l-0.48-0.28l-1.28-0.7401l-2.09-1.2l-0.82-0.47l-0.09-0.05
		l-0.12-0.07l-0.31-0.18l-0.07-0.04l-0.01-0.01l-0.21-0.12h-0.01l-0.0099-0.01l-1.03-0.59c-0.01-0.01-0.01-0.01-0.02-0.01
		l-0.05-0.03l-1.81-1.05l-1.02-0.59l-2.11-1.23l-0.29-0.17c0,0-0.01,0-0.02-0.0099l-0.28-0.16l-0.04-0.02l-0.01-0.01l-0.23-0.13
		l-0.47-0.27h-0.01l-1.33-0.77l-1-0.58l-0.21-0.12l-3.5-2.02l-0.08-0.04l-0.03-0.02v-53.14l0.93-0.54l13.4-7.73l1.99-1.16l0.1-0.06
		l4.83-2.77l1.58-0.92l0.17-0.09l1.52-0.87l0.14-0.08l0.78-0.45l0.38-0.22L36,22.046l1.1-0.65l0.52-0.3l1.3-0.74l0.98-0.56
		l0.69-0.41l1.4-0.8H42l0.05-0.03l0.06-0.04l2.4-1.38l1.86-1.07c0-0.01,0.01-0.01,0.01-0.01l1.39-0.8l0.19-0.11l0.27-0.16l0.11-0.06
		L48.35,14.916l5.95-3.44l1.44-0.83l1.06,0.62l5.62,3.25h0.01l0.82,0.48l0.04,0.02l0.66,0.38l1.94,1.12l1.06,0.61l2.67,1.54
		l1.18,0.68l7.02,4.05l1.04,0.61l1.6,0.91l0.22,0.13l0.48,0.27l0.8701,0.5l0.92,0.55c0,0,0.01,0,0.02,0l0.58,0.33l1.37,0.79
		l0.8,0.46l0.09,0.06l1.34,0.77l0.22,0.13h0.01l0.09,0.06l0.15,0.08l0.47,0.27l1.18,0.68l2.13,1.23l0.04,0.03v0.01l0.26,0.14
		l0.66,0.39l1.46,0.84l1.2,0.69l0.74,0.43l0.78,0.44l0.44,0.25l1.94,1.12L101.74,37.196z"/>
	<rect x="55.1651" y="45.5988" class="st0" width="2.421" height="7.0309"/>
	<path class="st0" d="M56.3756,46.6316L56.3756,46.6316c-3.7457,0-6.7822-3.0365-6.7822-6.7822v-8.7322
		c0-1.0314,0.8361-1.8676,1.8676-1.8676h10.2325c0.8087,0,1.4643,0.6556,1.4643,1.4643v9.1355
		C63.1577,43.5951,60.1213,46.6316,56.3756,46.6316z"/>
	<path class="st2" d="M66.0198,103.0106H47.1666c-1.7877,0-3.2369-1.4492-3.2369-3.2369V80.9205
		c0-1.7877,1.4492-3.2369,3.2369-3.2369h18.8532c1.7877,0,3.2369,1.4492,3.2369,3.2369v18.8532
		C69.2566,101.5614,67.8075,103.0106,66.0198,103.0106z"/>
	<path class="st0" d="M64.2367,31.2282H48.5144c-0.3505,0-0.6347-0.2842-0.6347-0.6347v-2.0347
		c0-0.3505,0.2842-0.6347,0.6347-0.6347h15.7223c0.3505,0,0.6347,0.2842,0.6347,0.6347v2.0347
		C64.8714,30.9441,64.5872,31.2282,64.2367,31.2282z"/>
	<path class="st3" d="M62.1621,29.5762c3.2635,0,5.9091,2.6456,5.9091,5.9091c0,3.2635-2.6456,5.9091-5.9091,5.9091"/>
	<path class="st3" d="M50.6042,29.5762c-3.2635,0-5.9091,2.6456-5.9091,5.9091c0,3.2635,2.6456,5.9091,5.9091,5.9091"/>
	<g>
		<path class="st2" d="M95.91,77.186H77.06c-2.06,0-3.74,1.67-3.74,3.73v18.86c0,2.06,1.68,3.73,3.74,3.73h1.81l0.06-0.03l0.78-0.45
			v-0.01l0.16-0.09l0.03-0.0099l0.41-0.2401l0.08-0.05l0.12-0.07l0.09-0.05h-3.54c-1.51,0-2.74-1.22-2.74-2.73v-18.86
			c0-1.51,1.23-2.73,2.74-2.73h18.85c1.51,0,2.7401,1.22,2.7401,2.73v11.2l1-0.58v-10.62C99.65,78.856,97.97,77.186,95.91,77.186z"
			/>
	</g>
	<path class="st0" d="M60.3751,54.5146h-7.999v-1.7347c0-0.3733,0.3026-0.676,0.676-0.676h6.5021c0.4534,0,0.821,0.3676,0.821,0.821
		V54.5146z"/>
	<path class="st4" d="M63.4289,30.0394H49.4736c-0.3111,0-0.5634-0.1358-0.5634-0.3034v-0.9726
		c0-0.1676,0.2522-0.3034,0.5634-0.3034h13.9552c0.3111,0,0.5634,0.1358,0.5634,0.3034v0.9726
		C63.9922,29.9035,63.74,30.0394,63.4289,30.0394z"/>
	<g>
		<path class="st2" d="M36.15,77.186H17.3c-2.06,0-3.74,1.67-3.74,3.73v11.62l1,0.58v-12.2c0-1.51,1.23-2.73,2.74-2.73h18.85
			c1.5099,0,2.74,1.22,2.74,2.73v18.86c0,1.51-1.23,2.73-2.74,2.73h-5.34l0.43,0.25l0.55,0.32l0.02,0.01l0.74,0.42h3.6
			c2.06,0,3.74-1.67,3.74-3.73v-18.86C39.89,78.856,38.21,77.186,36.15,77.186z"/>
	</g>
	<path class="st2" d="M55.0586,83.9386c0,0,1.892-4.5467,0.9505-10.6279l-0.9505-1.371l3.249,0.3226l-0.3876,1.198
		c0,0,0.577,7.0854-0.9463,10.4782"/>
	<circle class="st4" cx="56.5318" cy="60.0701" r="8.7691"/>
	<path class="st2" d="M56.2534,73.232c0,0-9.3136,1.1131-11.8739-11.1317c0,0,0.0371-0.2969-0.6308-0.8534
		c0,0,9.7666-0.8752,12.6746,7.1798c0,0-0.6402-9.9734,12.4632-14.7251c0,0,0.9515-0.3221,1.0146-0.6797
		c0.0631-0.3576,4.5421,14.6862-11.9812,20.4385"/>
	<g id="Layer_2_7_">
		<g id="Layer_16_7_">
			<path class="st5" d="M100.085,86.7168c-0.0293-0.04-0.0498-0.0703-0.0596-0.1104v0.6797
				c0.0195-0.0195,0.0303-0.039,0.0498-0.0498c-0.0098-0.0996-0.0195-0.1894-0.0303-0.2793
				C100.0654,86.877,100.0752,86.7969,100.085,86.7168z"/>
			<path class="st5" d="M100.085,86.7168c-0.0293-0.04-0.0498-0.0703-0.0596-0.1104v0.6797
				c0.0195-0.0195,0.0303-0.039,0.0498-0.0498c-0.0098-0.0996-0.0195-0.1894-0.0303-0.2793
				C100.0654,86.877,100.0752,86.7969,100.085,86.7168z"/>
			<path class="st5" d="M100.085,86.7168c-0.0293-0.04-0.0498-0.0703-0.0596-0.1104v0.6797
				c0.0195-0.0195,0.0303-0.039,0.0498-0.0498c-0.0098-0.0996-0.0195-0.1894-0.0303-0.2793
				C100.0654,86.877,100.0752,86.7969,100.085,86.7168z"/>
			<path class="st5" d="M100.085,86.7168c-0.0293-0.04-0.0498-0.0703-0.0596-0.1104v0.6797
				c0.0195-0.0195,0.0303-0.039,0.0498-0.0498c-0.0098-0.0996-0.0195-0.1894-0.0303-0.2793
				C100.0654,86.877,100.0752,86.7969,100.085,86.7168z"/>
		</g>
	</g>
	
		<radialGradient id="SVGID_1_" cx="56.4491" cy="81.9575" r="39.1717" gradientTransform="matrix(1 0 0 -1 0 129.276)" gradientUnits="userSpaceOnUse">
		<stop  offset="0.2877" style="stop-color:#FFFFFF"/>
		<stop  offset="1" style="stop-color:#FFFFFF;stop-opacity:0"/>
	</radialGradient>
	<circle class="st6" cx="56.4491" cy="47.3185" r="39.1717"/>
	
		<radialGradient id="SVGID_2_" cx="72.1618" cy="61.0065" r="0.3616" gradientTransform="matrix(1 0 0 -1 0 129.276)" gradientUnits="userSpaceOnUse">
		<stop  offset="0.2877" style="stop-color:#FFFFFF"/>
		<stop  offset="1" style="stop-color:#FFFFFF;stop-opacity:0"/>
	</radialGradient>
	<circle class="st7" cx="72.1618" cy="68.2695" r="0.3616"/>
	
		<radialGradient id="SVGID_3_" cx="86.1218" cy="51.5707" r="0.3616" gradientTransform="matrix(1 0 0 -1 0 129.276)" gradientUnits="userSpaceOnUse">
		<stop  offset="0.2877" style="stop-color:#FFFFFF"/>
		<stop  offset="1" style="stop-color:#FFFFFF;stop-opacity:0"/>
	</radialGradient>
	<circle class="st8" cx="86.1218" cy="77.7053" r="0.3616"/>
	
		<radialGradient id="SVGID_4_" cx="97.426" cy="99.521" r="0.5314" gradientTransform="matrix(1 0 0 -1 0 129.276)" gradientUnits="userSpaceOnUse">
		<stop  offset="0.2877" style="stop-color:#FFFFFF"/>
		<stop  offset="1" style="stop-color:#FFFFFF;stop-opacity:0"/>
	</radialGradient>
	<circle class="st9" cx="97.426" cy="29.755" r="0.5314"/>
	
		<radialGradient id="SVGID_5_" cx="75.1733" cy="107.703" r="0.5314" gradientTransform="matrix(1 0 0 -1 0 129.276)" gradientUnits="userSpaceOnUse">
		<stop  offset="0.2877" style="stop-color:#FFFFFF"/>
		<stop  offset="1" style="stop-color:#FFFFFF;stop-opacity:0"/>
	</radialGradient>
	<circle class="st10" cx="75.1733" cy="21.573" r="0.5314"/>
	
		<radialGradient id="SVGID_6_" cx="63.4279" cy="103.027" r="0.4637" gradientTransform="matrix(1 0 0 -1 0 129.276)" gradientUnits="userSpaceOnUse">
		<stop  offset="0.2877" style="stop-color:#FFFFFF"/>
		<stop  offset="1" style="stop-color:#FFFFFF;stop-opacity:0"/>
	</radialGradient>
	<circle class="st11" cx="63.4279" cy="26.249" r="0.4637"/>
	
		<radialGradient id="SVGID_7_" cx="94.3511" cy="81.4938" r="0.4637" gradientTransform="matrix(1 0 0 -1 0 129.276)" gradientUnits="userSpaceOnUse">
		<stop  offset="0.2877" style="stop-color:#FFFFFF"/>
		<stop  offset="1" style="stop-color:#FFFFFF;stop-opacity:0"/>
	</radialGradient>
	<circle class="st12" cx="94.3511" cy="47.7822" r="0.4637"/>
	
		<radialGradient id="SVGID_8_" cx="80.1453" cy="66.0464" r="0.4637" gradientTransform="matrix(1 0 0 -1 0 129.276)" gradientUnits="userSpaceOnUse">
		<stop  offset="0.2877" style="stop-color:#FFFFFF"/>
		<stop  offset="1" style="stop-color:#FFFFFF;stop-opacity:0"/>
	</radialGradient>
	<circle class="st13" cx="80.1453" cy="63.2296" r="0.4637"/>
	
		<radialGradient id="SVGID_9_" cx="91.2496" cy="65.5827" r="0.4637" gradientTransform="matrix(1 0 0 -1 0 129.276)" gradientUnits="userSpaceOnUse">
		<stop  offset="0.2877" style="stop-color:#FFFFFF"/>
		<stop  offset="1" style="stop-color:#FFFFFF;stop-opacity:0"/>
	</radialGradient>
	<circle class="st14" cx="91.2496" cy="63.6933" r="0.4637"/>
	
		<radialGradient id="SVGID_10_" cx="77.5809" cy="87.1178" r="0.4637" gradientTransform="matrix(1 0 0 -1 0 129.276)" gradientUnits="userSpaceOnUse">
		<stop  offset="0.2877" style="stop-color:#FFFFFF"/>
		<stop  offset="1" style="stop-color:#FFFFFF;stop-opacity:0"/>
	</radialGradient>
	<circle class="st15" cx="77.5809" cy="42.1582" r="0.4637"/>
	
		<radialGradient id="SVGID_11_" cx="38.8863" cy="64.6003" r="0.3616" gradientTransform="matrix(1 0 0 -1 0 129.276)" gradientUnits="userSpaceOnUse">
		<stop  offset="0.2877" style="stop-color:#FFFFFF"/>
		<stop  offset="1" style="stop-color:#FFFFFF;stop-opacity:0"/>
	</radialGradient>
	<circle class="st16" cx="38.8863" cy="64.6757" r="0.3616"/>
	
		<radialGradient id="SVGID_12_" cx="14.523" cy="72.1449" r="0.4637" gradientTransform="matrix(1 0 0 -1 0 129.276)" gradientUnits="userSpaceOnUse">
		<stop  offset="0.2877" style="stop-color:#FFFFFF"/>
		<stop  offset="1" style="stop-color:#FFFFFF;stop-opacity:0"/>
	</radialGradient>
	<circle class="st17" cx="14.523" cy="57.1311" r="0.4637"/>
	
		<radialGradient id="SVGID_13_" cx="25.7294" cy="66.5101" r="0.4637" gradientTransform="matrix(1 0 0 -1 0 129.276)" gradientUnits="userSpaceOnUse">
		<stop  offset="0.2877" style="stop-color:#FFFFFF"/>
		<stop  offset="1" style="stop-color:#FFFFFF;stop-opacity:0"/>
	</radialGradient>
	<circle class="st18" cx="25.7294" cy="62.7659" r="0.4637"/>
	
		<radialGradient id="SVGID_14_" cx="48.5409" cy="108.3384" r="0.4637" gradientTransform="matrix(1 0 0 -1 0 129.276)" gradientUnits="userSpaceOnUse">
		<stop  offset="0.2877" style="stop-color:#FFFFFF"/>
		<stop  offset="1" style="stop-color:#FFFFFF;stop-opacity:0"/>
	</radialGradient>
	<circle class="st19" cx="48.5409" cy="20.9376" r="0.4637"/>
	
		<radialGradient id="SVGID_15_" cx="52.7135" cy="101.1817" r="0.4124" gradientTransform="matrix(-1 0 0 -1 77.7726 129.276)" gradientUnits="userSpaceOnUse">
		<stop  offset="0.2877" style="stop-color:#FFFFFF"/>
		<stop  offset="1" style="stop-color:#FFFFFF;stop-opacity:0"/>
	</radialGradient>
	<circle class="st20" cx="25.0591" cy="28.0943" r="0.4124"/>
	
		<radialGradient id="SVGID_16_" cx="43.1428" cy="97.1033" r="0.3598" gradientTransform="matrix(-1 0 0 -1 77.7726 129.276)" gradientUnits="userSpaceOnUse">
		<stop  offset="0.2877" style="stop-color:#FFFFFF"/>
		<stop  offset="1" style="stop-color:#FFFFFF;stop-opacity:0"/>
	</radialGradient>
	<circle class="st21" cx="34.6299" cy="32.1727" r="0.3598"/>
	
		<radialGradient id="SVGID_17_" cx="50.6878" cy="83.933" r="0.3598" gradientTransform="matrix(-1 0 0 -1 77.7726 129.276)" gradientUnits="userSpaceOnUse">
		<stop  offset="0.2877" style="stop-color:#FFFFFF"/>
		<stop  offset="1" style="stop-color:#FFFFFF;stop-opacity:0"/>
	</radialGradient>
	<circle class="st22" cx="27.0848" cy="45.343" r="0.3598"/>
	
		<radialGradient id="SVGID_18_" cx="31.7904" cy="99.6665" r="0.3598" gradientTransform="matrix(-1 0 0 -1 77.7726 129.276)" gradientUnits="userSpaceOnUse">
		<stop  offset="0.2877" style="stop-color:#FFFFFF"/>
		<stop  offset="1" style="stop-color:#FFFFFF;stop-opacity:0"/>
	</radialGradient>
	<circle class="st23" cx="45.9823" cy="29.6095" r="0.3598"/>
	<path class="st4" d="M46.3778,58.6882c0,0,0.2731-3.7186,3.3905-6.1455c0,0,0.936-0.6506,1.2422-2.3058
		c0.0446-0.2412-0.0199-0.1-0.0199-0.1s-3.5255,2.2571-4.5753,4.1921S46.3778,58.6882,46.3778,58.6882z"/>
	<path class="st4" d="M56.3831,44.9902L56.3831,44.9902c-3.0383,0-5.5012-2.3917-5.5012-5.342v-6.878
		c0-0.8124,0.6782-1.471,1.5149-1.471h8.2999c0.656,0,1.1877,0.5164,1.1877,1.1533v7.1956
		C61.8844,42.5985,59.4214,44.9902,56.3831,44.9902z"/>
	<path class="st4" d="M66.0145,53.4133c0,0-3.0887-0.641-4.7312-3.2992c0,0-0.306-0.8285-1.5591-0.7192
		c0,0,1.291-1.125,2.9156,0.2276c1.6246,1.3527,0.6579,1.7472,3.4805,3.7655"/>
	<g>
		<path class="st0" d="M55.782,34.6946h-1.5645l0.75-1.2773h2.1797v9.0469H55.782V34.6946z"/>
	</g>
	<radialGradient id="SVGID_19_" cx="69.0717" cy="35.9324" r="14.0534" gradientUnits="userSpaceOnUse">
		<stop  offset="0.2877" style="stop-color:#FFFFFF"/>
		<stop  offset="1" style="stop-color:#FFFFFF;stop-opacity:0"/>
	</radialGradient>
	<path class="st24" d="M75.4599,43.6381l-5.4479-2.3217c-0.5873-0.2503-0.9773,0.6621-0.389,0.9128l5.4479,2.3217
		C75.6582,44.8012,76.0482,43.8888,75.4599,43.6381z"/>
	<radialGradient id="SVGID_20_" cx="69.0717" cy="35.9324" r="14.0534" gradientUnits="userSpaceOnUse">
		<stop  offset="0.2877" style="stop-color:#FFFFFF"/>
		<stop  offset="1" style="stop-color:#FFFFFF;stop-opacity:0"/>
	</radialGradient>
	<path class="st25" d="M76.9013,44.2524c-0.5873-0.2503-0.9773,0.6621-0.389,0.9128
		C77.0996,45.4154,77.4895,44.5031,76.9013,44.2524z"/>
	<radialGradient id="SVGID_21_" cx="69.0717" cy="35.9324" r="14.0534" gradientUnits="userSpaceOnUse">
		<stop  offset="0.2877" style="stop-color:#FFFFFF"/>
		<stop  offset="1" style="stop-color:#FFFFFF;stop-opacity:0"/>
	</radialGradient>
	<path class="st26" d="M76.846,37.9248l-5.9044-0.456c-0.6365-0.0492-0.714,0.94-0.0764,0.9892l5.9044,0.456
		C77.4062,38.9632,77.4836,37.974,76.846,37.9248z"/>
	<radialGradient id="SVGID_22_" cx="69.0717" cy="35.9324" r="14.0534" gradientUnits="userSpaceOnUse">
		<stop  offset="0.2877" style="stop-color:#FFFFFF"/>
		<stop  offset="1" style="stop-color:#FFFFFF;stop-opacity:0"/>
	</radialGradient>
	<path class="st27" d="M78.4082,38.0454c-0.6365-0.0492-0.714,0.94-0.0764,0.9892C78.9683,39.0838,79.0457,38.0947,78.4082,38.0454z
		"/>
	<radialGradient id="SVGID_23_" cx="69.0717" cy="35.9324" r="14.0534" gradientUnits="userSpaceOnUse">
		<stop  offset="0.2877" style="stop-color:#FFFFFF"/>
		<stop  offset="1" style="stop-color:#FFFFFF;stop-opacity:0"/>
	</radialGradient>
	<path class="st28" d="M77.2507,33.2349l-5.8935,0.5803c-0.6354,0.0626-0.5392,1.0501,0.0972,0.9874l5.8935-0.5803
		C77.9833,34.1598,77.8871,33.1723,77.2507,33.2349z"/>
	<radialGradient id="SVGID_24_" cx="69.0717" cy="35.9324" r="14.0534" gradientUnits="userSpaceOnUse">
		<stop  offset="0.2877" style="stop-color:#FFFFFF"/>
		<stop  offset="1" style="stop-color:#FFFFFF;stop-opacity:0"/>
	</radialGradient>
	<path class="st29" d="M78.81,33.0814c-0.6354,0.0626-0.5392,1.0501,0.0972,0.9874C79.5425,34.0063,79.4463,33.0187,78.81,33.0814z"
		/>
	<radialGradient id="SVGID_25_" cx="69.0717" cy="35.9324" r="14.0534" gradientUnits="userSpaceOnUse">
		<stop  offset="0.2877" style="stop-color:#FFFFFF"/>
		<stop  offset="1" style="stop-color:#FFFFFF;stop-opacity:0"/>
	</radialGradient>
	<path class="st30" d="M76.5416,28.6826l-5.7534,1.4028c-0.6203,0.1512-0.3862,1.1154,0.235,0.9639l5.7534-1.4028
		C77.3969,29.4953,77.1629,28.5311,76.5416,28.6826z"/>
	<radialGradient id="SVGID_26_" cx="69.0717" cy="35.9324" r="14.0534" gradientUnits="userSpaceOnUse">
		<stop  offset="0.2877" style="stop-color:#FFFFFF"/>
		<stop  offset="1" style="stop-color:#FFFFFF;stop-opacity:0"/>
	</radialGradient>
	<path class="st31" d="M78.0639,28.3114c-0.6203,0.1512-0.3862,1.1154,0.235,0.9639
		C78.9191,29.1241,78.6851,28.1599,78.0639,28.3114z"/>
	<radialGradient id="SVGID_27_" cx="43.2294" cy="34.8382" r="13.3468" gradientUnits="userSpaceOnUse">
		<stop  offset="0.2877" style="stop-color:#FFFFFF"/>
		<stop  offset="1" style="stop-color:#FFFFFF;stop-opacity:0"/>
	</radialGradient>
	<path class="st32" d="M37.4383,43.6381l5.4479-2.3217c0.5873-0.2503,0.9773,0.6621,0.389,0.9128l-5.4479,2.3217
		C37.24,44.8012,36.85,43.8888,37.4383,43.6381z"/>
	<radialGradient id="SVGID_28_" cx="43.2294" cy="34.8382" r="13.3468" gradientUnits="userSpaceOnUse">
		<stop  offset="0.2877" style="stop-color:#FFFFFF"/>
		<stop  offset="1" style="stop-color:#FFFFFF;stop-opacity:0"/>
	</radialGradient>
	<path class="st33" d="M35.9969,44.2524c0.5873-0.2503,0.9773,0.6621,0.389,0.9128C35.7986,45.4154,35.4087,44.5031,35.9969,44.2524
		z"/>
	<radialGradient id="SVGID_29_" cx="43.2294" cy="34.8382" r="13.3468" gradientUnits="userSpaceOnUse">
		<stop  offset="0.2877" style="stop-color:#FFFFFF"/>
		<stop  offset="1" style="stop-color:#FFFFFF;stop-opacity:0"/>
	</radialGradient>
	<path class="st34" d="M36.0522,37.9248l5.9044-0.456c0.6365-0.0492,0.714,0.94,0.0764,0.9892l-5.9044,0.456
		C35.492,38.9632,35.4146,37.974,36.0522,37.9248z"/>
	<radialGradient id="SVGID_30_" cx="43.2294" cy="34.8382" r="13.3468" gradientUnits="userSpaceOnUse">
		<stop  offset="0.2877" style="stop-color:#FFFFFF"/>
		<stop  offset="1" style="stop-color:#FFFFFF;stop-opacity:0"/>
	</radialGradient>
	<path class="st35" d="M34.49,38.0454c0.6365-0.0492,0.714,0.94,0.0764,0.9892C33.9299,39.0838,33.8525,38.0947,34.49,38.0454z"/>
	<radialGradient id="SVGID_31_" cx="43.2294" cy="34.8382" r="13.3468" gradientUnits="userSpaceOnUse">
		<stop  offset="0.2877" style="stop-color:#FFFFFF"/>
		<stop  offset="1" style="stop-color:#FFFFFF;stop-opacity:0"/>
	</radialGradient>
	<path class="st36" d="M35.6475,33.2349l5.8935,0.5803c0.6354,0.0626,0.5392,1.0501-0.0972,0.9874l-5.8935-0.5803
		C34.9149,34.1598,35.0111,33.1723,35.6475,33.2349z"/>
	<radialGradient id="SVGID_32_" cx="43.2294" cy="34.8382" r="13.3468" gradientUnits="userSpaceOnUse">
		<stop  offset="0.2877" style="stop-color:#FFFFFF"/>
		<stop  offset="1" style="stop-color:#FFFFFF;stop-opacity:0"/>
	</radialGradient>
	<path class="st37" d="M34.0883,33.0814c0.6354,0.0626,0.5392,1.0501-0.0972,0.9874
		C33.3557,34.0063,33.4519,33.0187,34.0883,33.0814z"/>
	<radialGradient id="SVGID_33_" cx="43.2294" cy="34.8382" r="13.3468" gradientUnits="userSpaceOnUse">
		<stop  offset="0.2877" style="stop-color:#FFFFFF"/>
		<stop  offset="1" style="stop-color:#FFFFFF;stop-opacity:0"/>
	</radialGradient>
	<path class="st38" d="M36.3566,28.6826l5.7534,1.4028c0.6203,0.1512,0.3862,1.1154-0.235,0.9639l-5.7534-1.4028
		C35.5013,29.4953,35.7353,28.5311,36.3566,28.6826z"/>
	<radialGradient id="SVGID_34_" cx="43.2294" cy="34.8382" r="13.3468" gradientUnits="userSpaceOnUse">
		<stop  offset="0.2877" style="stop-color:#FFFFFF"/>
		<stop  offset="1" style="stop-color:#FFFFFF;stop-opacity:0"/>
	</radialGradient>
	<path class="st39" d="M34.8344,28.3114c0.6203,0.1512,0.3862,1.1154-0.235,0.9639C33.9791,29.1241,34.2131,28.1599,34.8344,28.3114
		z"/>
</g>
<g id="Layer_2">
	<path class="st5" d="M98.835,35.457l-0.3096-0.1709l-0.5703-0.3291l-0.0899-0.0507l-1.7695-1.0293H96.085l-1.3692-0.7901
		l-2.9707-1.7099l-3.4892-2.0108l-1.1407-0.6592l-1.04-0.6006l-0.2402-0.1396l-1.9297-1.1104l-1.3399-0.7695l-1.7705-1.0205
		l-0.1396-0.0801l-0.2295-0.1299l-0.8701-0.5l-0.2403-0.1396l-7.83-4.5098l-0.8702-0.5107l-1.0097-0.5801l-2.7598-1.5898
		l-3.5703-2.0596l-0.79-0.4502l-0.92-0.5303l-0.9599-0.5498l-4.7901-2.7695l-2.4804,1.4297l-4.0196,2.3203l-1.3701,0.79l-0.5,0.2901
		l-5.4697,3.1494l-3.5205,2.0303l-4.1397,2.3896l-1.83,1.0498l-1.7002,0.9805l-0.1797,0.0996l-1.1504,0.6699l-4.2598,2.4502
		l-0.3603,0.21l-0.2793,0.1601l-1.4307,0.8203l-3.5693,2.0694h-0.0108l-7.4394,4.29l-2.0606,1.1904l-0.2998,0.17v53.1201
		l0.3701,0.2197l0.3907,0.2197l2.1894,1.2608l0.4102,0.2392l0.0498,0.0303l0.25,0.1504l0.2803,0.1602l0.3701,0.2099l2.5293,1.4697
		l2.3408,1.3497c0,0,0.0098,0,0.0195,0l0.5098,0.29l0.0703,0.0508l0.0498,0.0195h0.0303l0.9902,0.5898l1.5801,0.9102l1.0996,0.6397
		l1.2197,0.7001l0.4903,0.2803l0.5595,0.3203l0.6006,0.3399l3.3701,1.9502l2.0899,1.1992l0.4394,0.2607l0.1905,0.1094h0.0097
		l0.3906,0.2197l2.9795,1.7207l1.2998,0.75l0.0303,0.0196l0.6904,0.4004l3.7393,2.1601l0.2803,0.1602l0.7803,0.4492l1.6601,0.96
		l0.2695,0.1601l0.2198,0.1201l1.3906,0.7998h0.0098l0.8398,0.4903l0.2402,0.1396l0.0996,0.0606l0.4502,0.2597l0.1299,0.0703
		l0.0205,0.0098l0.0196,0.0098l0.2998,0.1806l0.0908,0.0498l0.2392,0.1299l0.3799,0.2295l0.5205,0.2901c0,0,0,0,0,0.0107
		l0.75,0.4297l0.1397,0.0801l0.54,0.3095l0.1504,0.0801l0.2695,0.1504l0.25,0.1494l0.2207,0.1309l0.2393,0.1396l0.0303,0.0196
		l0.0303,0.0107l0.0302,0.0195l0.71,0.4102l2.2998,1.3301l0.1797,0.0996l0.4297,0.25l0.2304,0.1299l0.5498-0.3194l0.1407-0.0801
		l3.5898-2.0703l0.5899-0.3398l0.1894-0.1104l2.4004-1.3799l0.1904-0.1093l0.3897-0.2305l0.0195-0.0098l1.5703-0.9004l0.0703-0.04
		l1.4698-0.8496l0.1601-0.0898l0.3301-0.1905l0.5996-0.3496l0.1299-0.0703l0.2705-0.1602l0.0498-0.0302l0.2197-0.1299l0.1299-0.0693
		l0.75-0.4307l0.3604-0.21l0.0898-0.0498l0.9102-0.5195l0.4296-0.25l0.4004-0.2305l1.3604-0.7802l0.1699-0.0997l0.6992-0.4003
		l0.5205-0.2999l0.0196-0.0097l0.1201-0.0703l0.4707-0.2696l3.2197-1.8603l0.21-0.1201l0.5898-0.3399l0.1299-0.0703l0.0098-0.0098
		l0.6308-0.3593l0.2393-0.1407l0.2099-0.1298l0.5801-0.3301l0.2803-0.1602l1.0303-0.5996l0.3896-0.2197l0.2403-0.1406l0.0898-0.0498
		l0.0996-0.0596l0.7002-0.4004l1.3906-0.7998l1.3994-0.8105l0.46-0.2598l0.0605-0.0401l0.4297-0.25l0.0801-0.04v-0.0098l0.25-0.1396
		l0.0098-0.0107l0.2402-0.1397l0.2998-0.1699l1.2705-0.7305l1.1592-0.6699l0.1602-0.0899l0.1406-0.08l0.0693-0.0401l0.0899-0.0498
		l1.3701-0.7998l0.2099-0.1201l0.3008-0.1699l0.2393-0.1397l0.8603-0.4902l0.2403-0.1602l0.0693-0.04l0.1309-0.0801h0.039
		l0.5205-0.2998l0.0303-0.0205l0.46-0.2598l0.3398-0.1894l0.5401-0.3203l0.0195-0.0098l5.1406-2.9599l0.0498-0.0303V37.2266
		L98.835,35.457z M100.0254,89.2764l-1.2002,0.6904l-3.2197,1.8594l-2.4199,1.4004l-0.1104,0.0595l-0.0898,0.0508l-0.0196,0.0098
		l-0.2099,0.1201l-0.2403,0.1396l-0.1601,0.1006l-0.2705,0.1494l-0.5694,0.3301l-0.1103,0.0606l-0.3096,0.1797l-0.5,0.29
		l-1.1406,0.6602l-1.1397,0.6591l-0.6699,0.3907l-0.0303,0.0097l-0.0898,0.0498l-0.0703,0.0401l-0.1397,0.08l-3.4697,2l-0.4404,0.25
		l-0.1797,0.1006l-0.3399,0.1993l-0.3798,0.2207l-0.9405,0.54l-0.2002,0.1191l-0.0498,0.0303l-0.04,0.0205l-0.5703,0.3301
		l-0.21,0.1191l-0.5097,0.3008h-0.0098l-0.2402,0.1397l-0.17,0.0996l-0.2705,0.1504l-0.0898,0.0498l-3.75,2.1601l-0.5899,0.3399
		l-0.2099,0.1201l-2.2998,1.3301l-0.1797,0.0996l-0.4199,0.2402l-0.3301,0.1904l-0.46,0.2696l-0.1406,0.08l-0.0801,0.0499
		l-0.3701,0.2099l-0.1396,0.0801l-0.7403,0.4307l-0.1396,0.08l-0.2403,0.1397l-0.0996,0.0596l-0.1806,0.1005l-0.2393,0.1397
		l-0.0303,0.0205l-0.1201,0.0693l-0.9394,0.5303l-0.5108,0.2998l-0.3799,0.2197l-0.2597,0.1504l-0.0899,0.0498l-2.9804,1.7207
		l-0.2198,0.1299l-0.3095,0.1797l-0.1504,0.0801l-0.8106,0.4697l-0.0693,0.04l-0.6201,0.3604l-1.0205,0.5898l-0.6094,0.3497
		l-2.3106,1.33l-1.3496,0.7803l-0.6201-0.3603l-0.7295-0.42l-2.1308-1.2197l-0.0293-0.0195l-0.1201-0.0703l-0.0499-0.0303
		l-0.1406-0.0801l-0.3701-0.21l-0.3301-0.1894l-0.1699-0.1006l-0.0996-0.0596l-0.5996-0.3398l-0.1406-0.0801l-0.25-0.1504h-0.0098
		l-0.1397-0.0801l-0.0703-0.04l-0.3603-0.2002l-0.5293-0.3096l-0.4805-0.2802l-0.0498-0.0293l-0.54-0.3106l-0.2002-0.1103
		l-0.0899-0.0596l-0.1396-0.0801l-0.6699-0.3799l-0.1006-0.0595l-0.0196-0.0108l-2.9306-1.6894l-0.4893-0.2901l-1.5908-0.9199
		l-0.5293-0.3008l-0.2305-0.1298l-0.2197-0.1299l-3.1601-1.8194l-0.7403-0.4306l-0.0195-0.0098l-2.7002-1.5596l-0.54-0.3105
		l-0.7901-0.46l-0.2695-0.1504l-0.0303-0.0097l-0.3203-0.1895l-0.1396-0.0801l-3.71-2.1504l-0.2305-0.1298l-0.5996-0.3399
		l-2.4101-1.3896l-0.6797-0.3907l-0.6807-0.3896l-1.0693-0.6201l-0.3106-0.1797l-0.29-0.1699l-0.1201-0.0606c0,0,0,0-0.0098,0
		l-4.75-2.75l-0.5898-0.3398l-0.6299-0.3701l-0.6797-0.3897l-0.0801-0.0508l-0.0303-0.0097l-0.3896-0.2198l-0.4004-0.2304
		l-2.6699-1.5498V38.3066l0.5195-0.2998l2.6602-1.5302l0.7002-0.4102l6.4697-3.7295l0.3506-0.2002l2.1093-1.2099l0.5508-0.3204
		l0.21-0.1201l4.7695-2.7597l0.2901-0.17l0.3701-0.2099l1.8799-1.0801l0.0302-0.0195l9.5899-5.5303l2.2695-1.3105l3.0703-1.7696
		l1.8701-1.0801l3.4795-2.0097l0.8008-0.46l1.0996-0.6299l1.1201-0.6406l4.6202,2.6602l0.1699,0.0996l1.8799,1.0908l0.2597,0.1494
		l2.9199,1.6807l2.5206,1.4492l0.5097,0.3008l0.9102,0.5195l1.8799,1.0801l2.1103,1.2197l3.1992,1.8399l0.7608,0.4404l2.7597,1.5996
		l0.7198,0.4101l1.1699,0.6797l0.4502,0.2705h0.0097l0.96,0.5498l5.1104,2.9502l0.04,0.0196l0.1201,0.0703l2.0596,1.1904
		l1.2705,0.7295l0.5195,0.2998l1.3203,0.7608l0.1397,0.08l0.3701,0.21l1.6504,0.9492l0.2598,0.1504l3.54,2.04V89.2764z"/>
</g>
</svg>
