<svg enable-background="new 0 0 110.8047 127.667" viewBox="0 0 110.8047 127.667" xmlns="http://www.w3.org/2000/svg" xmlns:xlink="http://www.w3.org/1999/xlink"><linearGradient id="a"><stop offset=".2877" stop-color="#fff"/><stop offset="1" stop-color="#fff" stop-opacity="0"/></linearGradient><radialGradient id="b" cx="56.4491" cy="81.9575" gradientTransform="matrix(1 0 0 -1 0 129.276)" gradientUnits="userSpaceOnUse" r="39.1717" xlink:href="#a"/><radialGradient id="c" cx="72.1618" cy="61.0065" gradientTransform="matrix(1 0 0 -1 0 129.276)" gradientUnits="userSpaceOnUse" r=".3616" xlink:href="#a"/><radialGradient id="d" cx="86.1218" cy="51.5707" gradientTransform="matrix(1 0 0 -1 0 129.276)" gradientUnits="userSpaceOnUse" r=".3616" xlink:href="#a"/><radialGradient id="e" cx="97.426" cy="99.521" gradientTransform="matrix(1 0 0 -1 0 129.276)" gradientUnits="userSpaceOnUse" r=".5314" xlink:href="#a"/><radialGradient id="f" cx="75.1733" cy="107.703" gradientTransform="matrix(1 0 0 -1 0 129.276)" gradientUnits="userSpaceOnUse" r=".5314" xlink:href="#a"/><radialGradient id="g" cx="63.1708" cy="105.0352" gradientTransform="matrix(1 0 0 -1 0 129.276)" gradientUnits="userSpaceOnUse" r=".4637" xlink:href="#a"/><radialGradient id="h" cx="42.186" cy="96.3817" gradientTransform="matrix(1 0 0 -1 0 129.276)" gradientUnits="userSpaceOnUse" r=".4637" xlink:href="#a"/><radialGradient id="i" cx="38.8863" cy="64.6003" gradientTransform="matrix(1 0 0 -1 0 129.276)" gradientUnits="userSpaceOnUse" r=".3616" xlink:href="#a"/><radialGradient id="j" cx="14.523" cy="72.1449" gradientTransform="matrix(1 0 0 -1 0 129.276)" gradientUnits="userSpaceOnUse" r=".4637" xlink:href="#a"/><radialGradient id="k" cx="25.7294" cy="66.5101" gradientTransform="matrix(1 0 0 -1 0 129.276)" gradientUnits="userSpaceOnUse" r=".4637" xlink:href="#a"/><radialGradient id="l" cx="22.6957" cy="88.0296" gradientTransform="matrix(1 0 0 -1 0 129.276)" gradientUnits="userSpaceOnUse" r=".4637" xlink:href="#a"/><radialGradient id="m" cx="48.5409" cy="108.3384" gradientTransform="matrix(1 0 0 -1 0 129.276)" gradientUnits="userSpaceOnUse" r=".4637" xlink:href="#a"/><linearGradient id="n"><stop offset="0" stop-color="#fff"/><stop offset="1" stop-color="#fff" stop-opacity=".4"/></linearGradient><linearGradient id="o" gradientUnits="userSpaceOnUse" x1="59.4777" x2="53.6015" xlink:href="#n" y1="38.1581" y2="52.3364"/><linearGradient id="p" gradientUnits="userSpaceOnUse" x1="62.9678" x2="57.0916" xlink:href="#n" y1="39.6045" y2="53.7829"/><linearGradient id="q" gradientUnits="userSpaceOnUse" x1="66.1071" x2="60.2309" xlink:href="#n" y1="40.9056" y2="55.084"/><radialGradient id="r" cx="52.7135" cy="101.1817" gradientTransform="matrix(-1 0 0 -1 77.7726 129.276)" gradientUnits="userSpaceOnUse" r=".4124" xlink:href="#a"/><radialGradient id="s" cx="43.3999" cy="99.1115" gradientTransform="matrix(-1 0 0 -1 77.7726 129.276)" gradientUnits="userSpaceOnUse" r=".3598" xlink:href="#a"/><radialGradient id="t" cx="32.0475" cy="101.6747" gradientTransform="matrix(-1 0 0 -1 77.7726 129.276)" gradientUnits="userSpaceOnUse" r=".3598" xlink:href="#a"/><linearGradient id="u" gradientTransform="matrix(-.9645 .2642 .2642 .9645 64.6036 -8.1229)" gradientUnits="userSpaceOnUse" x1="31.0507" x2="26.257" xlink:href="#n" y1="38.2279" y2="49.7944"/><linearGradient id="v" gradientTransform="matrix(-.9645 .2642 .2642 .9645 64.6036 -8.1229)" gradientUnits="userSpaceOnUse" x1="33.8979" x2="29.1042" xlink:href="#n" y1="39.4079" y2="50.9744"/><linearGradient id="w" gradientTransform="matrix(-.9645 .2642 .2642 .9645 64.6036 -8.1229)" gradientUnits="userSpaceOnUse" x1="36.4589" x2="31.6652" xlink:href="#n" y1="40.4693" y2="52.0358"/><path d="m110.8506 95.667-55.4277 32-55.4229-32v-64l55.4229-32 55.4277 32z" fill="#00c16e"/><path d="m101.74 37.196v53.14l-.01.01-.68.39-.74.42-.66.38-1 .58-2.49 1.43-.2.12-1.93 1.11-2.72 1.57-.24.13-.13.05-.11.07-2.14 1.23-.65.37-.24.14-.17.1-.01.01-.34.19-.3.17-1.05.6-.04.03-.72.41v.01l-.51.29-.45.26-.02.02h-.01l-1.07.6201-.16.09-.31.18-.24.14-.63.38-.37.21-.8.46-.09.05-.12.07-.08.05-.41.2401-.03.0099-.16.09v.01l-.78.45-.06.03-.12.06-.02.02-.04.02-.9.52-.11.06-.16.09-.13.08-.05.03-.3.17-.02.01-.08.05-.16.09h-.01l-.71.42-1.01.59-.45.25v.01l-1.42.81-.11.07-.42.24-1.06.62-.15.08-.63.36-.06.03-1.23.71-1.74 1.01-.53.31-.82.47-.85.49-.31.1801-.04.03-2.02 1.16-.01.0099-.3.17-.13.08-2.24 1.29-1.04.6-.25.14-.21.12-1.01.59-.96.55-.56.32h-.01l-.32.19-.48.28-1.42-.82-.77-.45-.08-.04-.03-.01-.24-.14-1.5-.87-3.02-1.75-.35-.2-.16-.09-.04-.03-.28-.16-.12-.07-.96-.55-.71-.41-.1-.0601-2.5-1.4399-.0099-.01-.9301-.54-.6-.35-.29-.17-.12-.07-.81-.47-.69-.39-.89-.51-.17-.1-.38-.22-1.03-.6-1.7-.98-.65-.38-.04-.03-.23-.13-.39-.22-.2-.11-.29-.17-.19-.11-.14-.09-.0099-.01-.07-.04-1.03-.59-.74-.42-.02-.01-.55-.32-.43-.25-.37-.21-.13-.08-.03-.02-.27-.15-.19-.11-.29-.17-.75-.44-.48-.28-1.28-.7401-2.09-1.2-.82-.47-.09-.05-.12-.07-.31-.18-.07-.04-.01-.01-.21-.12h-.01l-.0099-.01-1.03-.59c-.01-.01-.01-.01-.02-.01l-.05-.03-1.81-1.05-1.02-.59-2.11-1.23-.29-.17s-.01 0-.02-.0099l-.28-.16-.04-.02-.01-.01-.23-.13-.47-.27h-.01l-1.33-.77-1-.58-.21-.12-3.5-2.02-.08-.04-.03-.02v-53.14l.93-.54 13.4-7.73 1.99-1.16.1-.06 4.83-2.77 1.58-.92.17-.09 1.52-.87.14-.08.78-.45.38-.22.4398-.2601 1.1-.65.52-.3 1.3-.74.98-.56.69-.41 1.4-.8h.01l.05-.03.06-.04 2.4-1.38 1.86-1.07c0-.01.01-.01.01-.01l1.39-.8.19-.11.27-.16.11-.06.01-.01 5.95-3.44 1.44-.83 1.06.62 5.62 3.25h.01l.82.48.04.02.66.38 1.94 1.12 1.06.61 2.67 1.54 1.18.68 7.02 4.05 1.04.61 1.6.91.22.13.48.27.8701.5.92.55h.02l.58.33 1.37.79.8.46.09.06 1.34.77.22.13h.01l.09.06.15.08.47.27 1.18.68 2.13 1.23.04.03v.01l.26.14.66.39 1.46.84 1.2.69.74.43.78.44.44.25 1.94 1.12z" fill="#121317"/><g fill="#0fce7c"><path d="m66.0198 103.0106h-18.8532c-1.7877 0-3.2369-1.4492-3.2369-3.2369v-18.8532c0-1.7877 1.4492-3.2369 3.2369-3.2369h18.8532c1.7877 0 3.2369 1.4492 3.2369 3.2369v18.8532c-.0001 1.7877-1.4492 3.2369-3.2369 3.2369z"/><path d="m95.91 77.186h-18.85c-2.06 0-3.74 1.67-3.74 3.73v18.86c0 2.06 1.68 3.73 3.74 3.73h1.81l.06-.03.78-.45v-.01l.16-.09.03-.0099.41-.2401.08-.05.12-.07.09-.05h-3.54c-1.51 0-2.74-1.22-2.74-2.73v-18.86c0-1.51 1.23-2.73 2.74-2.73h18.85c1.51 0 2.7401 1.22 2.7401 2.73v11.2l1-.58v-10.62c-.0001-2.06-1.6801-3.73-3.7401-3.73z"/><path d="m36.15 77.186h-18.85c-2.06 0-3.74 1.67-3.74 3.73v11.62l1 .58v-12.2c0-1.51 1.23-2.73 2.74-2.73h18.85c1.5099 0 2.74 1.22 2.74 2.73v18.86c0 1.51-1.23 2.73-2.74 2.73h-5.34l.43.25.55.32.02.01.74.42h3.6c2.06 0 3.74-1.67 3.74-3.73v-18.86c0-2.06-1.68-3.73-3.74-3.73z"/><path d="m55.0586 83.9386s1.892-4.5467.9505-10.6279l-.9505-1.371 3.249.3226-.3876 1.198s.577 7.0854-.9463 10.4782"/></g><circle cx="56.5318" cy="60.0701" fill="#a2f6d2" r="8.7691"/><path d="m56.2534 73.232s-9.3136 1.1131-11.8739-11.1317c0 0 .0371-.2969-.6308-.8534 0 0 9.7666-.8752 12.6746 7.1798 0 0-.6402-9.9734 12.4632-14.7251 0 0 .9515-.3221 1.0146-.6797s4.5421 14.6862-11.9812 20.4385" fill="#0fce7c"/><path d="m100.085 86.7168c-.0293-.04-.0498-.0703-.0596-.1104v.6797c.0195-.0195.0303-.039.0498-.0498-.0098-.0996-.0195-.1894-.0303-.2793.0205-.08.0303-.1601.0401-.2402z" opacity=".13"/><path d="m100.085 86.7168c-.0293-.04-.0498-.0703-.0596-.1104v.6797c.0195-.0195.0303-.039.0498-.0498-.0098-.0996-.0195-.1894-.0303-.2793.0205-.08.0303-.1601.0401-.2402z" opacity=".13"/><path d="m100.085 86.7168c-.0293-.04-.0498-.0703-.0596-.1104v.6797c.0195-.0195.0303-.039.0498-.0498-.0098-.0996-.0195-.1894-.0303-.2793.0205-.08.0303-.1601.0401-.2402z" opacity=".13"/><path d="m100.085 86.7168c-.0293-.04-.0498-.0703-.0596-.1104v.6797c.0195-.0195.0303-.039.0498-.0498-.0098-.0996-.0195-.1894-.0303-.2793.0205-.08.0303-.1601.0401-.2402z" opacity=".13"/><circle cx="56.4491" cy="47.3185" fill="url(#b)" opacity=".21" r="39.1717"/><circle cx="72.1618" cy="68.2695" fill="url(#c)" opacity=".06" r=".3616"/><circle cx="86.1218" cy="77.7053" fill="url(#d)" opacity=".06" r=".3616"/><circle cx="97.426" cy="29.755" fill="url(#e)" opacity=".06" r=".5314"/><circle cx="75.1733" cy="21.573" fill="url(#f)" opacity=".06" r=".5314"/><circle cx="63.1708" cy="24.2408" fill="url(#g)" opacity=".06" r=".4637"/><circle cx="42.186" cy="32.8943" fill="url(#h)" opacity=".06" r=".4637"/><circle cx="38.8863" cy="64.6757" fill="url(#i)" opacity=".06" r=".3616"/><circle cx="14.523" cy="57.1311" fill="url(#j)" opacity=".06" r=".4637"/><circle cx="25.7294" cy="62.7659" fill="url(#k)" opacity=".06" r=".4637"/><circle cx="22.6957" cy="41.2464" fill="url(#l)" opacity=".06" r=".4637"/><circle cx="48.5409" cy="20.9376" fill="url(#m)" opacity=".06" r=".4637"/><path d="m67.5644 32.022 3.1453 3.7193c.137.162.1729.3867.0931.5834l-3.017 7.4366c-.1578.3889-.6672.4804-.9504.1708l-7.5995-8.3073c-.3412-.3729-.178-.9741.3049-1.1233z" fill="#0fce7c"/><path d="m90.7426 31.1133c-1.4728-.542-2.8182-1.3068-4.1288-2.1354l-19.2511 3.4768 2.4929 3.0071 21.2684-3.9892-.1049-.3502c-.0817.0231-.1714.0296-.2765-.0091z" fill="#0fce7c"/><path d="m99.5659 35.8423-4.09 4.22c-2.43 2.5-6.44 2.56-8.94.1299l-11.43-11.09c-2.19-2.12-2.52-5.44-.94-7.92l1.18.68 7.02 4.05 1.04.61 1.6.91.22.13.48.27.8701.5.92.55h.02l.58.33 1.37.79.8.46.09.06 1.34.77.22.13h.01l.09.06.15.08.47.27 1.18.68 2.13 1.23.04.03v.01l.26.14.66.39 1.46.84z" fill="#0fce7c"/><path d="m60.0169 35.4413 3.0123 3.0679 5.4664-3.2224-1.2339-2.4154z" fill="#a2f6d2"/><path d="m69.0234 32.8441.9142 1.0484 7.7493-1.468-1.0104-1.1867" fill="#a2f6d2"/><path d="m76.4394 22.8635c-.3735-.1782-.7502-.3495-1.1291-.5167-.7653 1.9122-.6642 4.639 3.1212 7.6926 0 0-2.391-3.158-1.9921-7.1759z" fill="#a2f6d2"/><path d="m58.759 39.0184c-3.1698 3.7092-4.8335 8.2043-4.8009 13.0885.0049.7314 1.142.733 1.1371 0-.0305-4.5808 1.4864-8.7956 4.4679-12.2845.4729-.5535-.3278-1.3615-.8041-.804z" fill="url(#o)" opacity=".28"/><path d="m61.484 41.8358c-1.9993 2.406-2.6632 5.3122-2.977 8.3605-.0749.7272 1.0628.722 1.1371 0 .28-2.7193.8545-5.4029 2.644-7.5564.4645-.559-.3357-1.3677-.8041-.8041z" fill="url(#p)" opacity=".28"/><path d="m63.3635 45.7981c-.4837.8714-.7531 1.786-.8398 2.7775-.0637.7288 1.0737.7246 1.1371 0 .0686-.7842.3031-1.5165.6845-2.2036.3555-.6404-.6262-1.2145-.9818-.5739z" fill="url(#q)" opacity=".28"/><circle cx="25.0591" cy="28.0943" fill="url(#r)" opacity=".06" r=".4124"/><circle cx="34.3728" cy="30.1645" fill="url(#s)" opacity=".06" r=".3598"/><circle cx="45.7252" cy="27.6013" fill="url(#t)" opacity=".06" r=".3598"/><path d="m37.7118 32.9135-2.5659 3.0341c-.1118.1322-.1411.3155-.076.4759l2.4612 6.0666c.1287.3173.5443.3919.7754.1393l6.1995-6.7769c.2783-.3042.1452-.7946-.2488-.9164z" fill="#0fce7c"/><path d="m18.8034 32.1722c1.2015-.4421 2.2991-1.0661 3.3682-1.742l15.7047 2.8363-2.0336 2.4532-17.3504-3.2543.0856-.2857c.0666.0187.1398.024.2255-.0075z" fill="#0fce7c"/><path d="m11.6055 36.03 3.3366 3.4426c1.9823 2.0395 5.2536 2.0884 7.2931.106l9.3244-9.047c1.7866-1.7295 2.0558-4.4379.7668-6.461l-.9626.5547-5.7268 3.3039-.8484.4976-1.3053.7424-.1794.1061-.3916.2202-.7098.4079-.7505.4487s-.0082 0-.0163 0l-.4732.2692-1.1176.6445-.6526.3753-.0734.0489-1.0932.6282-.1794.1061h-.0082l-.0734.0489-.1224.0653-.3834.2202-.9626.5547-1.7376 1.0034-.0326.0244v.0082l-.2121.1142-.5384.3182-1.1911.6852z" fill="#0fce7c"/><path d="m43.8689 35.7029-2.4574 2.5028-4.4593-2.6289 1.0065-1.9704z" fill="#a2f6d2"/><path d="m36.5215 33.5842-.7457.8552-6.3218-1.1975.8243-.9682" fill="#a2f6d2"/><path d="m30.4717 25.4422c.3047-.1454.612-.2852.9211-.4215.6243 1.56.5418 3.7844-2.5462 6.2755 0-.0001 1.9505-2.5764 1.6251-5.854z" fill="#a2f6d2"/><path d="m45.5071 37.4723c3.2935 2.2352 5.5713 5.4134 6.5984 9.2632.1538.5765-.7405.8229-.8947.2451-.9633-3.6107-3.0652-6.6-6.163-8.7024-.4915-.3335-.0357-1.1418.4593-.8059z" fill="url(#u)" opacity=".28"/><path d="m43.9702 40.2764c2.0916 1.4622 3.2403 3.6056 4.1443 5.9364.2157.556-.6806.7971-.8947.2451-.8064-2.0792-1.8368-4.0668-3.709-5.3755-.4858-.3397-.0306-1.1485.4594-.806z" fill="url(#v)" opacity=".28"/><path d="m43.3455 43.799c.5684.5813.9775 1.2429 1.2594 2.0044.2072.5597-.6887.8015-.8947.2451-.223-.6022-.5653-1.1278-1.0135-1.5862-.4177-.4273.2309-1.0907.6488-.6633z" fill="url(#w)" opacity=".28"/><path d="m98.835 35.457-.3096-.1709-.5703-.3291-.0899-.0507-1.7695-1.0293h-.0107l-1.3692-.7901-2.9707-1.7099-3.4892-2.0108-1.1407-.6592-1.04-.6006-.2402-.1396-1.9297-1.1104-1.3399-.7695-1.7705-1.0205-.1396-.0801-.2295-.1299-.8701-.5-.2403-.1396-7.83-4.5098-.8702-.5107-1.0097-.5801-2.7598-1.5898-3.5703-2.0596-.79-.4502-.92-.5303-.9599-.5498-4.7901-2.7695-2.4804 1.4297-4.0196 2.3203-1.3701.79-.5.2901-5.4697 3.1494-3.5205 2.0303-4.1397 2.3896-1.83 1.0498-1.7002.9805-.1797.0996-1.1504.6699-4.2598 2.4502-.3603.21-.2793.1601-1.4307.8203-3.5693 2.0694h-.0108l-7.4394 4.29-2.0606 1.1904-.2998.17v53.1201l.3701.2197.3907.2197 2.1894 1.2608.4102.2392.0498.0303.25.1504.2803.1602.3701.2099 2.5293 1.4697 2.3408 1.3497h.0195l.5098.29.0703.0508.0498.0195h.0303l.9902.5898 1.5801.9102 1.0996.6397 1.2197.7001.4903.2803.5595.3203.6006.3399 3.3701 1.9502 2.0899 1.1992.4394.2607.1905.1094h.0097l.3906.2197 2.9795 1.7207 1.2998.75.0303.0196.6904.4004 3.7393 2.1601.2803.1602.7803.4492 1.6601.96.2695.1601.2198.1201 1.3906.7998h.0098l.8398.4903.2402.1396.0996.0606.4502.2597.1299.0703.0205.0098.0196.0098.2998.1806.0908.0498.2392.1299.3799.2295.5205.2901v.0107l.75.4297.1397.0801.54.3095.1504.0801.2695.1504.25.1494.2207.1309.2393.1396.0303.0196.0303.0107.0302.0195.71.4102 2.2998 1.3301.1797.0996.4297.25.2304.1299.5498-.3194.1407-.0801 3.5898-2.0703.5899-.3398.1894-.1104 2.4004-1.3799.1904-.1093.3897-.2305.0195-.0098 1.5703-.9004.0703-.04 1.4698-.8496.1601-.0898.3301-.1905.5996-.3496.1299-.0703.2705-.1602.0498-.0302.2197-.1299.1299-.0693.75-.4307.3604-.21.0898-.0498.9102-.5195.4296-.25.4004-.2305 1.3604-.7802.1699-.0997.6992-.4003.5205-.2999.0196-.0097.1201-.0703.4707-.2696 3.2197-1.8603.21-.1201.5898-.3399.1299-.0703.0098-.0098.6308-.3593.2393-.1407.2099-.1298.5801-.3301.2803-.1602 1.0303-.5996.3896-.2197.2403-.1406.0898-.0498.0996-.0596.7002-.4004 1.3906-.7998 1.3994-.8105.46-.2598.0605-.0401.4297-.25.0801-.04v-.0098l.25-.1396.0098-.0107.2402-.1397.2998-.1699 1.2705-.7305 1.1592-.6699.1602-.0899.1406-.08.0693-.0401.0899-.0498 1.3701-.7998.2099-.1201.3008-.1699.2393-.1397.8603-.4902.2403-.1602.0693-.04.1309-.0801h.039l.5205-.2998.0303-.0205.46-.2598.3398-.1894.5401-.3203.0195-.0098 5.1406-2.9599.0498-.0303v-53.1201zm1.1904 53.8194-1.2002.6904-3.2197 1.8594-2.4199 1.4004-.1104.0595-.0898.0508-.0196.0098-.2099.1201-.2403.1396-.1601.1006-.2705.1494-.5694.3301-.1103.0606-.3096.1797-.5.29-1.1406.6602-1.1397.6591-.6699.3907-.0303.0097-.0898.0498-.0703.0401-.1397.08-3.4697 2-.4404.25-.1797.1006-.3399.1993-.3798.2207-.9405.54-.2002.1191-.0498.0303-.04.0205-.5703.3301-.21.1191-.5097.3008h-.0098l-.2402.1397-.17.0996-.2705.1504-.0898.0498-3.75 2.1601-.5899.3399-.2099.1201-2.2998 1.3301-.1797.0996-.4199.2402-.3301.1904-.46.2696-.1406.08-.0801.0499-.3701.2099-.1396.0801-.7403.4307-.1396.08-.2403.1397-.0996.0596-.1806.1005-.2393.1397-.0303.0205-.1201.0693-.9394.5303-.5108.2998-.3799.2197-.2597.1504-.0899.0498-2.9804 1.7207-.2198.1299-.3095.1797-.1504.0801-.8106.4697-.0693.04-.6201.3604-1.0205.5898-.6094.3497-2.3106 1.33-1.3496.7803-.6201-.3603-.7295-.42-2.1308-1.2197-.0293-.0195-.1201-.0703-.0499-.0303-.1406-.0801-.3701-.21-.3301-.1894-.1699-.1006-.0996-.0596-.5996-.3398-.1406-.0801-.25-.1504h-.0098l-.1397-.0801-.0703-.04-.3603-.2002-.5293-.3096-.4805-.2802-.0498-.0293-.54-.3106-.2002-.1103-.0899-.0596-.1396-.0801-.6699-.3799-.1006-.0595-.0196-.0108-2.9306-1.6894-.4893-.2901-1.5908-.9199-.5293-.3008-.2305-.1298-.2197-.1299-3.1601-1.8194-.7403-.4306-.0195-.0098-2.7002-1.5596-.54-.3105-.7901-.46-.2695-.1504-.0303-.0097-.3203-.1895-.1396-.0801-3.71-2.1504-.2305-.1298-.5996-.3399-2.4101-1.3896-.6797-.3907-.6807-.3896-1.0693-.6201-.3106-.1797-.29-.1699-.1201-.0606s0 0-.0098 0l-4.75-2.75-.5898-.3398-.6299-.3701-.6797-.3897-.0801-.0508-.0303-.0097-.3896-.2198-.4004-.2304-2.6699-1.5498v-50.9698l.5195-.2998 2.6602-1.5302.7002-.4102 6.4697-3.7295.3506-.2002 2.1093-1.2099.5508-.3204.21-.1201 4.7695-2.7597.2901-.17.3701-.2099 1.8799-1.0801.0302-.0195 9.5899-5.5303 2.2695-1.3105 3.0703-1.7696 1.8701-1.0801 3.4795-2.0097.8008-.46 1.0996-.6299 1.1201-.6406 4.6202 2.6602.1699.0996 1.8799 1.0908.2597.1494 2.9199 1.6807 2.5206 1.4492.5097.3008.9102.5195 1.8799 1.0801 2.1103 1.2197 3.1992 1.8399.7608.4404 2.7597 1.5996.7198.4101 1.1699.6797.4502.2705h.0097l.96.5498 5.1104 2.9502.04.0196.1201.0703 2.0596 1.1904 1.2705.7295.5195.2998 1.3203.7608.1397.08.3701.21 1.6504.9492.2598.1504 3.54 2.04z" opacity=".13"/></svg>