<?xml version="1.0" encoding="UTF-8" standalone="no"?>
<!-- Generator: Adobe Illustrator 21.0.2, SVG Export Plug-In . SVG Version: 6.00 Build 0)  -->

<svg
   xmlns:dc="http://purl.org/dc/elements/1.1/"
   xmlns:cc="http://creativecommons.org/ns#"
   xmlns:rdf="http://www.w3.org/1999/02/22-rdf-syntax-ns#"
   xmlns:svg="http://www.w3.org/2000/svg"
   xmlns="http://www.w3.org/2000/svg"
   xmlns:sodipodi="http://sodipodi.sourceforge.net/DTD/sodipodi-0.dtd"
   xmlns:inkscape="http://www.inkscape.org/namespaces/inkscape"
   version="1.1"
   x="0px"
   y="0px"
   viewBox="0 0 110.979 128.417"
   enable-background="new 0 0 110.979 128.417"
   xml:space="preserve"
   id="svg415"
   sodipodi:docname="eth5.svg"
   inkscape:version="0.92.2 5c3e80d, 2017-08-06"><metadata
     id="metadata421"><rdf:RDF><cc:Work
         rdf:about=""><dc:format>image/svg+xml</dc:format><dc:type
           rdf:resource="http://purl.org/dc/dcmitype/StillImage" /><dc:title /></cc:Work></rdf:RDF></metadata><defs
     id="defs419" /><sodipodi:namedview
     pagecolor="#ffffff"
     bordercolor="#666666"
     borderopacity="1"
     objecttolerance="10"
     gridtolerance="10"
     guidetolerance="10"
     inkscape:pageopacity="0"
     inkscape:pageshadow="2"
     inkscape:window-width="1440"
     inkscape:window-height="856"
     id="namedview417"
     showgrid="false"
     inkscape:zoom="3.4234713"
     inkscape:cx="-0.16026706"
     inkscape:cy="51.754492"
     inkscape:window-x="0"
     inkscape:window-y="1"
     inkscape:window-maximized="1"
     inkscape:current-layer="svg415"
     showguides="true"
     inkscape:guide-bbox="true" /><g
     id="Layer_1" /><g
     id="g5"
     transform="translate(0.15372898,0.37381641)"
     style="fill:#f1fed0;fill-opacity:1;stroke:#000000;stroke-opacity:1;stroke-width:1.8;stroke-miterlimit:4;stroke-dasharray:none"><polygon
       style="fill:#f1fed0;fill-opacity:1;stroke:#000000;stroke-opacity:1;stroke-width:1.8;stroke-miterlimit:4;stroke-dasharray:none"
       id="polygon3"
       points="55.556,127.881 0.417,96.047 0.417,32.377 55.556,0.542 110.696,32.377 110.696,96.046 " /></g><g
     id="g9"
     transform="translate(0.15372898,0.37381641)"
     style="fill:#000000;fill-opacity:0.29523811"><polygon
       style="fill:#000000;fill-opacity:0.29523811"
       id="polygon7"
       points="55.422,116.822 10.109,90.66 10.109,38.337 55.422,12.175 100.736,38.337 100.736,90.66 " /></g><g
     id="g13"
     enable-background="new    "
     transform="translate(0.15372898,0.37381641)"
     style="fill:#000000;fill-opacity:1"><path
       style="fill:#000000;fill-opacity:1"
       inkscape:connector-curvature="0"
       id="path11"
       d="M 55.555,10.618 9.073,37.416 V 91.01 L 55.555,117.805 102.04,91.01 V 37.416 Z M 100.158,89.93 55.555,115.646 10.951,89.93 V 38.506 L 55.555,12.79 100.158,38.506 Z" /></g><g
     id="border" /><g
     id="g6263"
     transform="matrix(0.04851667,0,0,0.04165631,44.135969,68.925307)" /><g
     id="g6265"
     transform="matrix(0.04851667,0,0,0.04165631,44.135969,68.925307)" /><g
     id="g6267"
     transform="matrix(0.04851667,0,0,0.04165631,44.135969,68.925307)" /><g
     id="g6269"
     transform="matrix(0.04851667,0,0,0.04165631,44.135969,68.925307)" /><g
     id="g6271"
     transform="matrix(0.04851667,0,0,0.04165631,44.135969,68.925307)" /><g
     id="g6273"
     transform="matrix(0.04851667,0,0,0.04165631,44.135969,68.925307)" /><g
     id="g6275"
     transform="matrix(0.04851667,0,0,0.04165631,44.135969,68.925307)" /><g
     id="g6277"
     transform="matrix(0.04851667,0,0,0.04165631,44.135969,68.925307)" /><g
     id="g6279"
     transform="matrix(0.04851667,0,0,0.04165631,44.135969,68.925307)" /><g
     id="g6281"
     transform="matrix(0.04851667,0,0,0.04165631,44.135969,68.925307)" /><g
     id="g6283"
     transform="matrix(0.04851667,0,0,0.04165631,44.135969,68.925307)" /><g
     id="g6285"
     transform="matrix(0.04851667,0,0,0.04165631,44.135969,68.925307)" /><g
     id="g6287"
     transform="matrix(0.04851667,0,0,0.04165631,44.135969,68.925307)" /><g
     id="g6289"
     transform="matrix(0.04851667,0,0,0.04165631,44.135969,68.925307)" /><g
     id="g6291"
     transform="matrix(0.04851667,0,0,0.04165631,44.135969,68.925307)" /><g
     id="g13827"
     transform="matrix(0.14591055,0,0,0.14534004,18.224642,23.392831)"><g
       id="g13815"><g
         id="g13751"><g
           id="g13737"><g
             id="g13735"><polygon
               id="polygon13733"
               points="192.789,261.305 256,291.365 256,369.331 192.789,339.271 "
               style="fill:#a7d16c" /></g></g><g
           id="g13743"><g
             id="g13741"><polygon
               id="polygon13739"
               points="319.211,261.305 256,291.365 256,369.331 319.211,339.271 "
               style="fill:#87b45f" /></g></g><g
           id="g13749"><g
             id="g13747"><polygon
               id="polygon13745"
               points="192.789,261.305 256,291.365 319.211,261.305 256,231.244 "
               style="fill:#b4e173" /></g></g></g><g
         id="g13793"><g
           id="g13771"><g
             id="g13757"><g
               id="g13755"><polygon
                 id="polygon13753"
                 points="7.5,350.253 70.711,380.314 70.711,458.279 7.5,428.219 "
                 style="fill:#a7d16c" /></g></g><g
             id="g13763"><g
               id="g13761"><polygon
                 id="polygon13759"
                 points="133.921,350.253 70.711,380.314 70.711,458.279 133.921,428.219 "
                 style="fill:#87b45f" /></g></g><g
             id="g13769"><g
               id="g13767"><polyline
                 id="polyline13765"
                 points="133.921,350.253 70.711,320.192 7.5,350.253 70.711,380.314 137.935,350.253               "
                 style="fill:#b4e173" /></g></g></g><g
           id="g13791"><g
             id="g13777"><g
               id="g13775"><polygon
                 id="polygon13773"
                 points="378.079,350.253 441.289,380.314 441.289,458.279 378.079,428.219 "
                 style="fill:#a7d16c" /></g></g><g
             id="g13783"><g
               id="g13781"><polygon
                 id="polygon13779"
                 points="504.5,350.253 441.289,380.314 441.289,458.279 504.5,428.219 "
                 style="fill:#87b45f" /></g></g><g
             id="g13789"><g
               id="g13787"><polygon
                 id="polygon13785"
                 points="378.079,350.253 441.289,380.314 504.5,350.253 441.289,320.192 "
                 style="fill:#b4e173" /></g></g></g></g><g
         id="g13813"><g
           id="g13799"><g
             id="g13797"><polygon
               id="polygon13795"
               points="192.789,83.791 256,113.851 256,191.817 192.789,161.757 "
               style="fill:#a7d16c" /></g></g><g
           id="g13805"><g
             id="g13803"><polygon
               id="polygon13801"
               points="319.211,83.791 256,113.851 256,191.817 319.211,161.757 "
               style="fill:#87b45f" /></g></g><g
           id="g13811"><g
             id="g13809"><polygon
               id="polygon13807"
               points="192.789,83.791 256,113.851 319.211,83.791 256,53.73 "
               style="fill:#b4e173" /></g></g></g></g><g
       id="g13825"><path
         id="path13817"
         d="m 508.506,343.912 c -0.127,-0.08 -0.261,-0.142 -0.391,-0.214 -0.118,-0.075 -0.245,-0.149 -0.393,-0.219 l -63.21,-30.061 c -2.038,-0.969 -4.404,-0.969 -6.442,0 l -63.211,30.061 c -0.047,0.022 -0.078,0.048 -0.123,0.071 -0.224,0.112 -0.448,0.226 -0.662,0.362 -1.249,0.789 -2.204,1.921 -2.8,3.224 l -44.562,-21.192 v -64.639 c 0,-2.573 -1.319,-4.966 -3.494,-6.341 -0.056,-0.035 -0.115,-0.06 -0.172,-0.094 -0.17,-0.111 -0.372,-0.224 -0.613,-0.338 l -0.054,-0.026 c 0,0 -0.001,0 -0.001,-0.001 L 263.5,226.506 v -29.951 l 58.932,-28.026 c 2.614,-1.243 4.279,-3.879 4.279,-6.773 V 83.791 c 0,-2.573 -1.319,-4.966 -3.494,-6.341 -0.056,-0.035 -0.115,-0.06 -0.172,-0.094 -0.17,-0.111 -0.372,-0.224 -0.613,-0.338 l -0.051,-0.024 c -0.002,-0.001 -0.004,-0.002 -0.006,-0.003 L 259.222,46.957 c -2.038,-0.97 -4.404,-0.97 -6.442,0 l -63.154,30.034 c -0.001,0.001 -0.003,0.001 -0.004,0.002 l -0.053,0.025 c -0.241,0.115 -0.443,0.227 -0.613,0.338 -0.056,0.034 -0.116,0.059 -0.172,0.094 -2.175,1.375 -3.494,3.768 -3.494,6.341 v 14.214 c 0,4.142 3.358,7.5 7.5,7.5 4.142,0 7.5,-3.358 7.5,-7.5 v -2.342 l 48.21,22.927 v 61.356 l -48.21,-22.927 v -28.014 c 0,-4.142 -3.358,-7.5 -7.5,-7.5 -4.142,0 -7.5,3.358 -7.5,7.5 v 32.752 c 0,2.894 1.665,5.53 4.279,6.773 l 58.932,28.026 v 29.951 l -58.873,27.998 c -0.003,0.001 -0.006,0.003 -0.009,0.004 l -0.05,0.024 c -0.241,0.115 -0.442,0.227 -0.613,0.338 -0.056,0.034 -0.116,0.059 -0.172,0.094 -2.175,1.375 -3.494,3.768 -3.494,6.341 v 65.339 l -44.321,21.077 c -0.557,-1.551 -1.608,-2.903 -3.042,-3.809 -0.144,-0.091 -0.296,-0.162 -0.445,-0.243 -0.1,-0.065 -0.212,-0.129 -0.34,-0.19 L 73.931,313.419 c -2.038,-0.969 -4.404,-0.969 -6.442,0 L 4.279,343.48 c -0.242,0.115 -0.444,0.228 -0.615,0.34 -0.056,0.033 -0.115,0.058 -0.17,0.093 C 1.319,345.286 0,347.68 0,350.253 v 77.966 c 0,2.895 1.665,5.53 4.279,6.773 l 63.21,30.061 c 2.014,0.959 4.428,0.955 6.442,0 l 63.211,-30.061 c 2.614,-1.243 4.279,-3.879 4.279,-6.773 v -64.102 l 44.782,-21.296 c 0.742,1.377 1.896,2.525 3.365,3.224 l 63.21,30.061 c 2.014,0.959 4.428,0.955 6.442,0 l 63.21,-30.061 c 1.667,-0.793 2.943,-2.156 3.652,-3.788 l 44.495,21.16 v 64.802 c 0,2.895 1.665,5.53 4.279,6.773 l 63.211,30.061 c 2.014,0.959 4.428,0.955 6.442,0 l 63.21,-30.061 c 2.614,-1.243 4.279,-3.879 4.279,-6.773 v -77.966 c 0.002,-2.573 -1.317,-4.967 -3.492,-6.341 -0.127,-0.08 2.175,1.374 0,0 z M 311.71,157.018 263.5,179.945 V 118.59 L 311.71,95.663 Z M 210.253,83.791 256,62.035 301.747,83.791 256,105.547 Z M 256,264.664 c 4.142,0 7.5,-3.357 7.5,-7.5 V 243.116 L 301.747,261.305 256,283.06 210.253,261.305 248.5,243.116 v 14.048 c 0,4.142 3.358,7.5 7.5,7.5 z M 70.71,328.497 116.457,350.253 70.71,372.008 24.964,350.253 Z M 15,362.125 63.21,385.052 v 61.355 L 15,423.48 Z M 126.421,423.48 78.21,446.407 v -61.355 l 48.211,-22.927 V 423.48 Z M 231.167,313.132 c -1.778,-3.74 -6.252,-5.331 -9.994,-3.553 l -20.884,9.932 v -46.334 l 48.21,22.927 v 61.355 l -46.54,-22.132 25.656,-12.201 c 3.741,-1.78 5.332,-6.254 3.552,-9.994 z m 32.333,44.327 v -61.355 l 48.21,-22.927 v 45.634 l -19.412,-9.231 c -3.742,-1.777 -8.216,-0.188 -9.994,3.553 -1.779,3.74 -0.189,8.215 3.552,9.994 l 24.919,11.851 z m 122.079,6.356 c 0.278,-0.378 0.536,-0.776 0.745,-1.216 0.016,-0.033 0.026,-0.067 0.042,-0.1 l 11.937,5.677 c 3.741,1.777 8.215,0.188 9.994,-3.553 1.779,-3.74 0.188,-8.215 -3.552,-9.994 l -9.202,-4.376 45.747,-21.756 45.746,21.756 -45.747,21.755 -8.744,-4.158 c -3.742,-1.778 -8.215,-0.188 -9.994,3.553 -1.778,3.74 -0.188,8.215 3.553,9.994 l 7.686,3.654 v 61.355 L 385.579,423.479 Z M 497,423.48 448.79,446.407 V 385.052 L 497,362.125 Z"
         inkscape:connector-curvature="0" /><circle
         id="circle13819"
         r="7.5040002"
         cy="404.26599"
         cx="38.213001" /><circle
         id="circle13821"
         r="7.5040002"
         cy="83.791"
         cx="256" /><circle
         id="circle13823"
         r="7.5040002"
         cy="404.26599"
         cx="473.94" /></g></g></svg>