<?xml version="1.0" encoding="utf-8"?>
<!-- Generator: Adobe Illustrator 16.0.0, SVG Export Plug-In . SVG Version: 6.00 Build 0)  -->
<!DOCTYPE svg PUBLIC "-//W3C//DTD SVG 1.1//EN" "http://www.w3.org/Graphics/SVG/1.1/DTD/svg11.dtd">
<svg version="1.1" xmlns="http://www.w3.org/2000/svg" xmlns:xlink="http://www.w3.org/1999/xlink" x="0px" y="0px"
	 width="110.979px" height="128.417px" viewBox="0 0 110.979 128.417" enable-background="new 0 0 110.979 128.417"
	 xml:space="preserve">
<g id="Layer_1">
	<g id="Layer_24_1_">
		<polygon fill="#190C3C" points="110.979,96.171 55.48,128.229 -0.02,96.171 -0.02,32.056 55.48,0 110.979,32.056 		"/>
	</g>
</g>
<g id="Layer_4">
	<g id="Layer_63">
		<path fill="#FFFFFF" d="M101.923,38.139v53.14l-0.01,0.01l-0.3,0.18l-0.15,0.08c-0.01,0.01-0.01,0.01-0.02,0.01l-0.16,0.091
			l-0.79,0.449l-6.28,3.62l-2.72,1.57l-0.24,0.13l-0.13,0.05l-0.11,0.07l-2.779,1.6l-0.25,0.141l-0.271,0.16l-0.63,0.359l-0.67,0.38
			l-0.3,0.17l-0.04,0.03l-0.76,0.44l-0.87,0.5l-0.28,0.159l-1,0.58l-0.34,0.2l-0.87,0.521l-1.38,0.79l-1.46,0.85l-0.181,0.09
			l-0.02,0.021l-1.71,0.979l-0.96,0.561l-4.62,2.67l-0.38,0.22l-0.25,0.14l-0.061,0.03l-1.54,0.9l-0.239,0.13l-0.38,0.22l-1.19,0.69
			l-0.15,0.09l-0.449,0.26l-0.9,0.521l-0.43,0.25l-1.15,0.659l-1.11,0.641l-0.01,0.01l-0.43,0.25l-1.45,0.84l-0.11,0.061
			l-1.819,1.05l-0.65,0.37l-1.35,0.779l-0.971,0.561l-0.729,0.42l-3.05-1.76l-0.65-0.38l-1.81-1.04l-0.13-0.08l-1.69-0.971
			l-0.24-0.14l-0.04-0.03l-1.01-0.58l-0.1-0.06l-0.96-0.55l-0.05-0.03l-0.49-0.28l-0.87-0.51l-1.3-0.75l-0.5-0.29l-0.6-0.35
			l-1.55-0.9l-0.3-0.17l-0.39-0.22l-5.09-2.95l-0.39-0.22l-0.49-0.28l-0.33-0.2l-1.85-1.06l-0.57-0.33l-0.57-0.33l-1.14-0.66
			l-0.16-0.09l-1.24-0.72l-0.43-0.25l-0.26-0.15l-0.42-0.25l-0.17-0.1l-1.94-1.11l-0.16-0.09l-0.64-0.37l-0.09-0.05l-0.4-0.23
			l-3.45-2l-0.82-0.47l-0.78-0.45l-0.22-0.13l-1.11-0.65l-6.83-3.939l-0.08-0.04l-0.59-0.34v-53.14l0.91-0.52l0.27-0.16l2.02-1.17
			l0.46-0.26l2.85-1.64l0.27-0.16l2.79-1.61l0.82-0.47l0.62-0.36l0.27-0.16l1.65-0.95l0.29-0.17l0.27-0.16l0.41-0.23l0.19-0.11
			l0.24-0.14l1.99-1.16l4.02-2.31l0.8-0.46l0.11-0.06l1.58-0.92l0.17-0.09l1.66-0.95l1.16-0.67l1.54-0.91l0.52-0.3l2.28-1.3
			l0.69-0.41l1.46-0.83l5.72-3.3l0.46-0.27l2.23-1.29l3.84-2.22l1.44-0.83l1.061,0.62l6.489,3.75l13.62,7.86l0.45,0.26l0.04,0.02
			l0.36,0.21l0.06,0.03l1.04,0.61l1.9,1.08l0.399,0.23l0.87,0.5l1.521,0.88l1.369,0.79l0.03,0.02l0.521,0.3l0.25,0.14l0.09,0.06
			l0.7,0.4l1.109,0.64l3.78,2.18l0.02,0.01l0.021,0.02v0.01l0.26,0.14l0.66,0.39l1.46,0.84l1.94,1.12l0.779,0.44l0.44,0.25
			l1.939,1.12L101.923,38.139z"/>
	</g>
	<g id="Layer_2_6_">
		<g id="Layer_16_5_">
			<path opacity="0.13" enable-background="new    " d="M9.826,38.141v53.121l46.072,26.559l46.074-26.559V38.141L55.898,11.58
				L9.826,38.141z M100.107,39.221v50.971l-44.209,25.489L11.687,90.192V39.221l44.211-25.489L100.107,39.221z"/>
		</g>
	</g>
	<g>
		<g>
			<path fill="#C0FFC0" d="M99.103,36.508l-1.939-1.12l-0.44-0.25l-0.779-0.44l-1.94-1.12l-1.46-0.84l-0.66-0.39l-0.26-0.14v-0.01
				l-0.021-0.02c-0.01,0.01-0.029,0.01-0.039,0.01c-2.221,0.39-4.461,0.84-6.711,0.98c-9.09,0.58-18.84,0.76-27.1-3.7
				c-3.79-2.04-7.89-5.55-7.96-10.22c-0.03-1.62,0.37-3.18,1.1-4.61h-0.25l-2.23,1.29l-0.46,0.27l-5.72,3.3l-1.46,0.83l-0.69,0.41
				l-2.28,1.3l-0.52,0.3l-1.54,0.91l-1.16,0.67l-1.66,0.95l-0.17,0.09l-1.39,0.81c-0.346,0.229-0.71,0.438-1.106,0.612
				c0.002,0.006,0.003,0.012,0.006,0.019l-4.02,2.31l-1.99,1.16l-0.24,0.14l-0.19,0.11l-0.41,0.23l-0.27,0.16l-0.29,0.17l-1.65,0.95
				l-0.27,0.16l-0.62,0.36l-0.82,0.47l-2.79,1.61l-0.27,0.16l-2.85,1.64l-0.46,0.26l-2.02,1.17l-0.27,0.16l-0.91,0.52v0.959
				c0.201,1.054,0.197,2.136,0,3.185v18.166h92v-22.31L99.103,36.508z"/>
		</g>
		<g>
			<g>
				<circle fill="#F9FCEB" cx="36.772" cy="51.216" r="14.406"/>
			</g>
			<g>
				<g>
					<path fill="#F9FCEB" d="M11.482,42.087c3.002,1.214,6.005,2.426,9.007,3.639c0.545,0.221,0.78-0.661,0.242-0.879
						c-3.002-1.213-6.004-2.426-9.006-3.639C11.179,40.988,10.945,41.87,11.482,42.087L11.482,42.087z"/>
				</g>
			</g>
			<g>
				<g>
					<path fill="#F9FCEB" d="M18.554,50.758c-2.88-0.22-5.75-0.45-8.63-0.67v-0.91c2.86,0.23,5.72,0.45,8.59,0.67
						C19.093,49.898,19.133,50.809,18.554,50.758z"/>
				</g>
			</g>
			<g>
				<g>
					<path fill="#F9FCEB" d="M25.023,38.588c-0.31-0.33-0.62-0.67-0.92-1c-0.08-0.08-0.15-0.15-0.22-0.23
						c-0.21-0.24-0.43-0.47-0.65-0.7c-0.09-0.11-0.19-0.21-0.28-0.31c-1.15-1.25-2.31-2.49-3.46-3.73l0.82-0.47
						c1.3,1.41,2.6,2.82,3.91,4.23c0.09,0.1,0.19,0.21,0.28,0.31c0.08,0.08,0.16,0.17,0.24,0.25c0.07,0.08,0.14,0.16,0.21,0.24
						c0.24,0.25,0.48,0.51,0.71,0.76C26.063,38.369,25.423,39.019,25.023,38.588z"/>
				</g>
			</g>
			<g>
				<g>
					<path fill="#F9FCEB" d="M33.624,33.548c-0.02-0.05-0.04-0.11-0.06-0.16c-0.02-0.07-0.05-0.15-0.07-0.22
						c-0.01-0.03-0.02-0.07-0.04-0.1v-0.01c-0.02-0.07-0.05-0.15-0.07-0.22c-0.01-0.01-0.01-0.03-0.02-0.04
						c-0.01-0.04-0.02-0.07-0.03-0.11c-0.48-1.44-0.97-2.87-1.45-4.31c-0.04-0.13-0.08-0.25-0.12-0.38
						c-0.02-0.03-0.03-0.07-0.04-0.1c-0.02-0.06-0.04-0.11-0.06-0.17c0-0.01,0-0.01,0-0.02c-0.01-0.01-0.01-0.01-0.01-0.02
						c-0.01-0.03-0.02-0.06-0.03-0.09c0-0.01-0.01-0.02-0.01-0.04c-0.03-0.07-0.05-0.15-0.08-0.22
						c-0.15-0.459-0.31-0.918-0.459-1.376c-0.259,0.154-0.533,0.292-0.817,0.418c0.002,0.006,0.003,0.012,0.006,0.019
						c0.19,0.56,0.37,1.13,0.56,1.69c0.04,0.11,0.08,0.22,0.11,0.33c0.34,1,0.67,2,1.01,3c0.16,0.47,0.31,0.93,0.47,1.4
						c0.21,0.63,0.42,1.25,0.63,1.88c0.08,0.24,0.16,0.48,0.24,0.72c0.18,0.55,1.06,0.31,0.88-0.25
						C33.983,34.628,33.804,34.088,33.624,33.548z"/>
				</g>
			</g>
			<g>
				<g>
					<path fill="#F9FCEB" d="M41.494,25.538c-0.504,3.2-1.008,6.397-1.512,9.597c-0.09,0.574,0.788,0.822,0.879,0.242
						c0.503-3.198,1.007-6.397,1.511-9.597C42.462,25.206,41.585,24.958,41.494,25.538L41.494,25.538z"/>
				</g>
			</g>
			<g>
				<g>
					<path fill="#F9FCEB" d="M42.22,24.342c0.023-0.007,0.048-0.011,0.073-0.018c0.242-0.054,0.382-0.329,0.319-0.561
						c-0.068-0.247-0.319-0.373-0.561-0.318c-0.024,0.006-0.049,0.011-0.074,0.017c-0.242,0.055-0.383,0.329-0.318,0.561
						C41.728,24.271,41.977,24.396,42.22,24.342L42.22,24.342z"/>
				</g>
			</g>
			<g>
				<g>
					<path fill="#F9FCEB" d="M51.27,29.3c-1.792,2.698-3.583,5.396-5.373,8.094c-0.327,0.491,0.464,0.947,0.787,0.46
						c1.79-2.698,3.581-5.396,5.372-8.094C52.383,29.269,51.592,28.814,51.27,29.3L51.27,29.3z"/>
				</g>
			</g>
			<g>
				<g>
					<path fill="#F9FCEB" d="M52.425,28.44c0.023,0.005,0.049,0.01,0.074,0.016c0.243,0.051,0.492-0.067,0.56-0.317
						c0.063-0.228-0.074-0.51-0.318-0.562c-0.025-0.004-0.049-0.01-0.075-0.015c-0.242-0.051-0.49,0.067-0.56,0.318
						C52.042,28.108,52.18,28.39,52.425,28.44L52.425,28.44z"/>
				</g>
			</g>
			<g>
				<g>
					<path fill="#F9FCEB" d="M58.83,35.357c-2.715,1.767-5.427,3.535-8.14,5.302c-0.491,0.319-0.036,1.109,0.459,0.788
						c2.714-1.768,5.426-3.534,8.14-5.302C59.78,35.825,59.322,35.036,58.83,35.357L58.83,35.357z"/>
				</g>
			</g>
			<g>
				<g>
					<path fill="#F9FCEB" d="M60.245,35.091c0.021,0.015,0.041,0.029,0.062,0.044c0.204,0.143,0.507,0.036,0.623-0.164
						c0.136-0.229,0.04-0.481-0.162-0.623c-0.021-0.015-0.042-0.029-0.063-0.043c-0.201-0.145-0.504-0.038-0.622,0.162
						C59.948,34.695,60.042,34.948,60.245,35.091L60.245,35.091z"/>
				</g>
			</g>
			<g>
				<g>
					<path fill="#F9FCEB" d="M61.833,47.206c-3.066,1.044-6.132,2.087-9.198,3.132c-0.553,0.188-0.315,1.068,0.243,0.877
						c3.065-1.042,6.131-2.086,9.196-3.13C62.629,47.897,62.39,47.017,61.833,47.206L61.833,47.206z"/>
				</g>
			</g>
		</g>
		<g>
			<g>
				<path fill="#7BFF8E" d="M66.05,46.271c0.018,0.019,0.034,0.038,0.052,0.057c0.16,0.189,0.478,0.167,0.644,0
					c0.186-0.184,0.163-0.456,0-0.644c-0.018-0.02-0.033-0.039-0.051-0.058c-0.162-0.188-0.479-0.165-0.645,0
					C65.866,45.813,65.889,46.084,66.05,46.271L66.05,46.271z"/>
			</g>
		</g>
		<g>
			<path fill="#77E084" d="M78.933,104.508l0.181-0.09l1.46-0.85l1.38-0.79l0.87-0.521l0.34-0.2l1-0.58l0.28-0.159l0.87-0.5
				l0.76-0.44l0.04-0.03l0.3-0.17l0.67-0.38l0.63-0.359l0.271-0.16l0.25-0.141l2.779-1.6l0.11-0.07l0.13-0.05l0.24-0.13l2.72-1.57
				l6.28-3.62l0.79-0.449l0.16-0.091c0.01,0,0.01,0,0.02-0.01l0.15-0.08l0.3-0.18l0.01-0.01v-39.58c-0.229-0.04-0.399,0.1-0.47,0.27
				c-0.47,0.33-0.96,0.59-1.45,0.81c-1.13,0.19-2.22,0.52-3.3,0.9c-0.87,0.16-1.771,0.29-2.67,0.47c-1.37-0.45-2.681-0.98-4.12-1.15
				c-1.32-0.15-2.62,0.75-3.8,1.16c-1.66,0.58-3.54-0.56-5.07-1.11c-0.79-0.28-1.63-0.39-2.479-0.43
				c-0.221-0.01-0.44-0.01-0.66-0.01c-0.08-0.01-0.15-0.01-0.23-0.01h-1.13c-0.08,0-0.15,0.02-0.21,0.05
				c-0.8-0.61-1.89-0.88-2.82-1.17c-1.59-0.49-3.18-0.67-4.84-0.69c-1.87-0.02-3.689,0.41-5.55,0.5c-0.45,0.02-1.13,0-1.79,0.06
				c-0.04,0-0.07,0-0.11,0.01c-0.31,0.03-0.62,0.07-0.899,0.15c-0.36,0.09-0.681,0.24-0.891,0.45c-0.069,0.08-0.109,0.16-0.119,0.25
				c-2.25,0.53-4.63,0.21-6.871,0.84c-0.49,0.14-0.98,0.31-1.46,0.49c-0.79,0.3-1.57,0.63-2.38,0.89c-1.65,0.53-3.41,0.45-5.12,0.38
				c-3.33-0.15-6.84-0.79-9.65-2.67c-2.15-1.43-3.69-2.48-6.33-1.55c-0.08,0.03-0.14,0.08-0.19,0.13c-0.81,0.23-2.26-0.49-3.01-0.68
				c-0.68-0.17-1.27-0.19-1.88-0.09c-0.37,0.05-0.75,0.15-1.16,0.27c-1.54,0.45-2.99,1.2-4.45,1.84c-0.7,0.31-1.34,0.74-2.04,1.01
				c-0.23,0.09-1.59-0.68-2.04-0.73c-0.91-0.09-1.86,0.06-2.81,0.23v38.71l0.59,0.34v0.12c0.03-0.03,0.05-0.061,0.08-0.08
				l6.83,3.939l1.11,0.65l0.22,0.13l0.78,0.45l0.82,0.47l3.45,2l0.4,0.23l0.09,0.05l0.64,0.37l0.16,0.09l1.94,1.11l0.17,0.1
				l0.42,0.25l0.26,0.15l0.43,0.25l1.24,0.72l0.16,0.09l1.14,0.66l0.57,0.33l0.57,0.33l1.85,1.06l0.33,0.2l0.49,0.28l0.39,0.22
				l5.09,2.95l0.39,0.22l0.3,0.17l1.55,0.9l0.6,0.35l0.5,0.29l1.3,0.75l0.87,0.51l0.49,0.28l0.05,0.03l0.96,0.55l0.1,0.06l1.01,0.58
				l0.04,0.03l0.24,0.14l1.69,0.971l0.13,0.08l1.81,1.04l0.65,0.38l3.05,1.76l0.729-0.42l0.971-0.561l1.35-0.779l0.65-0.37
				l1.819-1.05l0.11-0.061l1.45-0.84l0.43-0.25l0.01-0.01l1.11-0.641l1.15-0.659l0.43-0.25l0.9-0.521l0.449-0.26l0.15-0.09
				l1.19-0.69l0.38-0.22l0.239-0.13l1.54-0.9l0.061-0.03l0.25-0.14l0.38-0.22l4.62-2.67l0.96-0.561l1.71-0.979L78.933,104.508z"/>
			<path fill="#77E084" d="M91.053,69.289c-0.01,0.07-0.02,0.14-0.029,0.2c-0.011,0.06-0.021,0.109-0.03,0.16
				C90.963,69.109,91.053,68.888,91.053,69.289z"/>
			<path fill="#77E084" d="M68.124,51.708c0.41-0.02,0.84-0.03,1.27-0.02c-0.67,0.02-1.34,0.05-1.989,0.07
				C67.643,51.738,67.883,51.718,68.124,51.708z"/>
			<path fill="#77E084" d="M18.543,52.278c-0.22,0.13-0.44,0.25-0.67,0.37c-0.08,0.04-0.15,0.08-0.2,0.11
				c-0.08,0.03-0.17,0.06-0.3,0.11c-0.14,0.06-0.28,0.11-0.43,0.16C17.474,52.769,18.003,52.519,18.543,52.278z"/>
		</g>
		<g>
			<g>
				<circle fill="#F8FFFC" cx="35.778" cy="40.802" r="0.334"/>
				<path fill="#12AD5F" d="M36.253,40.718c-0.01-0.05-0.03-0.1-0.05-0.15c-0.01-0.03-0.03-0.05-0.06-0.08
					c-0.03-0.04-0.07-0.08-0.11-0.09c-0.05-0.05-0.1-0.07-0.16-0.07c-0.03-0.02-0.06-0.02-0.1-0.02h-0.01
					c-0.03,0-0.04,0.01-0.07,0.01c-0.06,0.01-0.11,0.03-0.16,0.06c-0.02,0.01-0.04,0.03-0.06,0.05c-0.08,0.06-0.13,0.14-0.16,0.23
					c-0.02,0.07-0.02,0.15-0.01,0.23c0.01,0.05,0.03,0.1,0.05,0.15c0.05,0.09,0.13,0.17,0.23,0.2c0.06,0.04,0.12,0.05,0.19,0.05
					c0.03,0,0.06,0,0.09-0.01c0.08-0.01,0.14-0.04,0.2-0.09c0.04-0.02,0.08-0.06,0.11-0.11c0-0.01,0.01-0.01,0.01-0.02
					C36.253,40.958,36.284,40.838,36.253,40.718z M35.593,40.838c-0.01-0.1,0.05-0.2,0.15-0.22h0.04c0.08,0,0.16,0.06,0.18,0.15
					c0,0.05-0.01,0.1-0.04,0.14c-0.02,0.04-0.07,0.06-0.11,0.07C35.713,40.999,35.613,40.929,35.593,40.838z"/>
			</g>
			<g>
				<circle fill="#F8FFFC" cx="37.533" cy="42.704" r="0.334"/>
				<path fill="#12AD5F" d="M37.974,42.519v-0.01c-0.04-0.1-0.12-0.18-0.21-0.22c-0.09-0.06-0.2-0.08-0.32-0.06
					c-0.04,0.01-0.07,0.02-0.1,0.04c-0.1,0.03-0.18,0.1-0.23,0.19c-0.06,0.09-0.08,0.21-0.06,0.33c0.01,0.03,0.01,0.06,0.03,0.08
					c0.03,0.1,0.1,0.19,0.19,0.24c0.08,0.05,0.16,0.08,0.26,0.08h0.09c0.12-0.03,0.23-0.1,0.31-0.21c0.03-0.04,0.05-0.09,0.07-0.13
					c0.02-0.07,0.02-0.15,0.01-0.23C38.003,42.579,37.994,42.548,37.974,42.519z M37.354,42.738c-0.02-0.1,0.05-0.2,0.15-0.21
					c0.01-0.01,0.02-0.01,0.03-0.01c0.09,0,0.16,0.07,0.18,0.15c0.01,0.05,0,0.1-0.03,0.14c-0.03,0.04-0.07,0.07-0.12,0.07
					C37.463,42.898,37.374,42.838,37.354,42.738z"/>
			</g>
			<g>
				<circle fill="#F8FFFC" cx="27.211" cy="39.675" r="0.334"/>
				<path fill="#12AD5F" d="M27.653,39.479c-0.09-0.2-0.3-0.32-0.53-0.28c-0.05,0.01-0.09,0.02-0.13,0.05
					c-0.07,0.03-0.14,0.08-0.18,0.15c-0.02,0.02-0.03,0.05-0.04,0.08c-0.02,0.02-0.03,0.04-0.03,0.07
					c-0.02,0.06-0.02,0.14-0.01,0.21c0.01,0.04,0.02,0.07,0.04,0.1c0,0.03,0.02,0.06,0.04,0.08c0.04,0.08,0.12,0.14,0.21,0.18
					l0.02,0.01c0.05,0.02,0.11,0.03,0.17,0.03c0.02,0,0.05,0,0.08-0.01c0.02,0,0.04-0.01,0.05-0.02c0.11-0.02,0.19-0.08,0.26-0.17
					l0.01-0.01c0.04-0.05,0.06-0.1,0.07-0.16c0.02-0.06,0.02-0.13,0.01-0.2C27.684,39.548,27.673,39.508,27.653,39.479z
					 M27.034,39.708c-0.01-0.05,0-0.1,0.03-0.14s0.07-0.06,0.12-0.07c0.01-0.01,0.02-0.01,0.03-0.01c0.09,0,0.16,0.07,0.18,0.15
					c0.01,0.05-0.01,0.1-0.03,0.14c-0.03,0.04-0.07,0.07-0.12,0.08C27.144,39.869,27.043,39.809,27.034,39.708z"/>
			</g>
			<g>
				<circle fill="#F8FFFC" cx="30.775" cy="46.58" r="0.334"/>
				<path fill="#12AD5F" d="M31.193,46.338c0-0.01-0.02-0.02-0.02-0.02c-0.03-0.06-0.09-0.12-0.15-0.15h-0.01
					c-0.02-0.02-0.04-0.04-0.07-0.05c-0.08-0.03-0.16-0.04-0.25-0.02c-0.02,0-0.04,0.01-0.05,0.02c-0.11,0.02-0.19,0.09-0.26,0.17
					l-0.01,0.01c-0.06,0.09-0.09,0.2-0.09,0.31c0,0.02,0.01,0.04,0.01,0.06c0.02,0.09,0.06,0.18,0.13,0.24
					c0.08,0.1,0.21,0.16,0.35,0.16c0.03,0,0.06-0.01,0.09-0.01c0.26-0.05,0.44-0.3,0.39-0.56
					C31.244,46.438,31.224,46.389,31.193,46.338z M30.593,46.608c-0.01-0.05,0-0.09,0.03-0.13c0.03-0.04,0.07-0.07,0.12-0.08h0.03
					c0.09,0,0.17,0.06,0.18,0.15c0.02,0.1-0.05,0.19-0.15,0.21C30.704,46.778,30.613,46.708,30.593,46.608z"/>
			</g>
			<g>
				<circle fill="#F8FFFC" cx="42.097" cy="38.282" r="0.334"/>
				<path fill="#12AD5F" d="M42.483,37.988c-0.01,0-0.01-0.01-0.01-0.01c-0.03-0.03-0.05-0.06-0.08-0.08
					c-0.09-0.07-0.22-0.11-0.35-0.09h-0.01c-0.01,0-0.01,0-0.02,0h-0.02c-0.11,0.02-0.19,0.07-0.26,0.16
					c-0.08,0.08-0.13,0.2-0.13,0.33c0,0.03,0.01,0.04,0.01,0.07c0.02,0.08,0.05,0.14,0.09,0.2l0.01,0.02c0.01,0,0.01,0,0.02,0.01
					c0.07,0.08,0.16,0.14,0.27,0.15c0.03,0.02,0.06,0.02,0.09,0.02c0.03,0,0.06,0,0.09-0.01c0.04-0.01,0.08-0.02,0.12-0.05
					c0.08-0.02,0.14-0.08,0.19-0.15c0.07-0.09,0.1-0.19,0.08-0.31v-0.05C42.563,38.119,42.523,38.048,42.483,37.988z M42.063,38.099
					h0.03c0.09,0,0.17,0.06,0.18,0.15c0.01,0.05,0,0.1-0.03,0.14c-0.02,0.04-0.07,0.06-0.12,0.07c-0.09,0.02-0.19-0.05-0.21-0.14
					C41.903,38.218,41.963,38.119,42.063,38.099z"/>
			</g>
			<g>
				<circle fill="#F8FFFC" cx="46.531" cy="41.937" r="0.335"/>
				<path fill="#12AD5F" d="M46.983,41.769v-0.01c0-0.02-0.01-0.03-0.02-0.04c-0.04-0.09-0.12-0.17-0.21-0.21
					c-0.05-0.03-0.11-0.05-0.17-0.05c-0.04-0.01-0.09-0.01-0.14,0c-0.06,0.01-0.11,0.03-0.16,0.06c-0.06,0.03-0.11,0.08-0.15,0.14
					c-0.08,0.11-0.1,0.23-0.08,0.36c0,0.01,0,0.01,0.01,0.02c0.02,0.11,0.07,0.2,0.15,0.26c0.08,0.08,0.2,0.12,0.32,0.12h0.08
					c0.17-0.04,0.31-0.15,0.37-0.3c0.03-0.08,0.04-0.17,0.03-0.27C47.003,41.818,47.003,41.798,46.983,41.769z M46.354,41.968
					c-0.01-0.05,0-0.1,0.03-0.14c0.02-0.04,0.07-0.06,0.12-0.07h0.03c0.09,0,0.16,0.06,0.18,0.15c0.02,0.09-0.05,0.19-0.15,0.21
					C46.463,42.128,46.374,42.068,46.354,41.968z"/>
			</g>
			<g>
				<circle fill="#F8FFFC" cx="39.715" cy="35.122" r="0.334"/>
				<path fill="#12AD5F" d="M40.144,34.889c-0.03-0.04-0.06-0.08-0.1-0.12c-0.06-0.06-0.14-0.11-0.24-0.12
					c-0.05-0.02-0.11-0.02-0.17-0.01c-0.05,0.01-0.1,0.03-0.14,0.05c-0.1,0.05-0.18,0.14-0.22,0.24c-0.04,0.08-0.05,0.18-0.04,0.28
					c0,0.01,0,0.02,0.01,0.03c0.01,0.06,0.03,0.11,0.06,0.15c0.06,0.09,0.15,0.15,0.24,0.19c0.06,0.02,0.11,0.03,0.17,0.03
					c0.03,0,0.06,0,0.09-0.01h0.01c0.09-0.02,0.18-0.06,0.24-0.13c0.01,0,0.02-0.01,0.02-0.03c0.02-0.01,0.03-0.02,0.04-0.04
					c0.05-0.07,0.08-0.13,0.08-0.21v-0.01c0.01-0.04,0.01-0.09,0-0.14C40.184,34.988,40.164,34.938,40.144,34.889z M39.684,34.938
					h0.03c0.09,0,0.17,0.06,0.18,0.15c0.01,0.05,0,0.1-0.03,0.14c-0.03,0.04-0.07,0.06-0.12,0.07c-0.1,0.02-0.19-0.05-0.21-0.15
					C39.514,35.059,39.583,34.958,39.684,34.938z"/>
			</g>
			<g>
				<circle fill="#F8FFFC" cx="42.103" cy="44.035" r="0.335"/>
				<path fill="#12AD5F" d="M42.574,43.918c-0.02-0.08-0.05-0.15-0.11-0.2c-0.03-0.04-0.07-0.08-0.12-0.1
					c-0.05-0.04-0.12-0.06-0.19-0.06c-0.04-0.01-0.09-0.01-0.13,0c-0.09,0.01-0.18,0.05-0.25,0.13c-0.03,0.01-0.05,0.04-0.07,0.07
					c-0.04,0.06-0.07,0.13-0.08,0.2c-0.01,0.05-0.01,0.11,0,0.16c0.04,0.23,0.24,0.4,0.48,0.4h0.08c0.15-0.03,0.27-0.12,0.34-0.24
					c0.05-0.08,0.08-0.18,0.06-0.28v-0.03c0-0.01,0-0.01,0-0.02C42.583,43.938,42.583,43.929,42.574,43.918z M41.923,44.068
					c-0.01-0.05,0-0.1,0.03-0.14c0.03-0.04,0.07-0.07,0.12-0.07c0.01-0.01,0.02-0.01,0.03-0.01c0.09,0,0.16,0.07,0.18,0.15
					c0.02,0.1-0.05,0.2-0.15,0.22C42.034,44.229,41.943,44.168,41.923,44.068z"/>
			</g>
			<g>
				<circle fill="#F8FFFC" cx="61.325" cy="36.248" r="0.335"/>
				<path fill="#12AD5F" d="M61.803,36.159c-0.02-0.1-0.06-0.18-0.14-0.25c-0.1-0.11-0.26-0.17-0.42-0.14
					c-0.03,0-0.061,0.01-0.08,0.03c-0.1,0.02-0.18,0.08-0.24,0.17v0.01c-0.05,0.07-0.07,0.14-0.08,0.21c-0.01,0.04-0.01,0.09,0,0.14
					c0.01,0.06,0.03,0.11,0.061,0.16c0,0.01,0.02,0.03,0.029,0.05c0.061,0.09,0.15,0.15,0.25,0.18h0.011
					c0.04,0.01,0.09,0.02,0.13,0.02c0.029,0,0.06-0.01,0.09-0.01c0.01,0,0.01,0,0.02-0.01c0.101-0.01,0.19-0.07,0.261-0.16
					c0.01,0,0.02-0.02,0.029-0.03c0.061-0.1,0.091-0.21,0.091-0.32C61.803,36.188,61.803,36.179,61.803,36.159z M61.353,36.429
					c-0.1,0.02-0.189-0.05-0.21-0.15c-0.01-0.05,0-0.1,0.03-0.13c0.03-0.04,0.07-0.07,0.12-0.08h0.03c0.09,0,0.17,0.06,0.18,0.15
					c0.01,0.05,0,0.09-0.03,0.13C61.444,36.389,61.404,36.418,61.353,36.429z"/>
			</g>
			<g>
				<circle fill="#F8FFFC" cx="54.72" cy="45.633" r="0.335"/>
				<path fill="#12AD5F" d="M55.184,45.488c-0.01-0.04-0.03-0.08-0.05-0.11c0-0.01-0.01-0.02-0.02-0.03
					c-0.08-0.11-0.21-0.19-0.35-0.19c-0.04-0.01-0.09-0.01-0.13,0c-0.06,0.01-0.12,0.03-0.17,0.07c-0.09,0.05-0.16,0.13-0.2,0.23
					c-0.03,0.08-0.04,0.17-0.02,0.26c0,0.02,0.01,0.04,0.02,0.06c0,0.01,0,0.01,0.01,0.02v0.01c0.05,0.15,0.19,0.27,0.35,0.29
					c0.03,0.02,0.06,0.02,0.1,0.02c0.03,0,0.05,0,0.08-0.01c0.08-0.01,0.16-0.05,0.22-0.1c0.04-0.03,0.07-0.06,0.1-0.1
					c0.03-0.04,0.05-0.08,0.06-0.12c0.02-0.04,0.02-0.07,0.02-0.11c0.01-0.04,0.01-0.09,0-0.13
					C55.204,45.528,55.193,45.508,55.184,45.488z M54.684,45.449h0.04c0.09,0,0.16,0.07,0.18,0.15c0.01,0.05-0.01,0.1-0.03,0.14
					c-0.03,0.04-0.07,0.07-0.12,0.07c-0.1,0.02-0.2-0.05-0.21-0.14C54.523,45.568,54.593,45.468,54.684,45.449z"/>
			</g>
			<g>
				<circle fill="#F8FFFC" cx="72.627" cy="35.942" r="0.335"/>
				<path fill="#12AD5F" d="M72.543,35.458c-0.27,0.05-0.44,0.3-0.4,0.57c0,0.01,0,0.01,0.011,0.02c0.029,0.12,0.1,0.22,0.189,0.29
					l0.061,0.03c0.069,0.04,0.14,0.06,0.22,0.06c0.01,0,0.01,0,0.02,0c0.021,0,0.051,0,0.07-0.01c0.26-0.04,0.44-0.3,0.39-0.56
					C73.064,35.599,72.814,35.418,72.543,35.458z M72.444,35.968c-0.011-0.09,0.05-0.19,0.149-0.21h0.03c0.09,0,0.17,0.06,0.18,0.15
					c0.021,0.1-0.05,0.2-0.14,0.21C72.564,36.139,72.463,36.068,72.444,35.968z"/>
			</g>
			<g>
				<circle fill="#F8FFFC" cx="67.311" cy="35.987" r="0.335"/>
				<path fill="#12AD5F" d="M67.753,35.789c-0.09-0.2-0.3-0.32-0.53-0.28c-0.13,0.02-0.239,0.09-0.31,0.2
					c-0.01,0.02-0.03,0.04-0.03,0.06c-0.06,0.1-0.069,0.2-0.05,0.3c0.01,0.08,0.04,0.15,0.11,0.21c0.05,0.09,0.149,0.16,0.27,0.17
					c0.03,0.02,0.061,0.02,0.101,0.02h0.079l0.011-0.01c0.109-0.02,0.21-0.08,0.279-0.16c0.011-0.01,0.021-0.02,0.03-0.03
					c0.04-0.06,0.061-0.12,0.08-0.18c0.01-0.06,0.01-0.13,0-0.19C67.784,35.858,67.774,35.818,67.753,35.789z M67.343,36.168
					c-0.1,0.02-0.2-0.05-0.21-0.15c-0.01-0.05,0-0.1,0.03-0.14s0.07-0.06,0.12-0.07h0.03c0.09,0,0.159,0.06,0.18,0.15
					c0.01,0.04,0,0.09-0.03,0.13S67.393,36.159,67.343,36.168z"/>
			</g>
			<g>
				<circle fill="#F8FFFC" cx="71.351" cy="40.292" r="0.334"/>
				<path fill="#12AD5F" d="M71.713,39.979v-0.01c-0.06-0.06-0.13-0.11-0.21-0.13c-0.08-0.03-0.16-0.04-0.24-0.02
					c-0.04,0.01-0.08,0.02-0.109,0.04c-0.101,0.04-0.181,0.11-0.221,0.2c-0.04,0.05-0.06,0.11-0.06,0.18
					c-0.01,0.05-0.01,0.09,0,0.14c0.01,0.05,0.03,0.09,0.05,0.14v0.01c0.01,0.01,0.01,0.01,0.01,0.02
					c0.091,0.14,0.24,0.23,0.42,0.23c0.021,0,0.051,0,0.08-0.01c0.271-0.04,0.44-0.3,0.4-0.56
					C71.814,40.119,71.774,40.039,71.713,39.979z M71.173,40.329c-0.02-0.1,0.05-0.2,0.141-0.22h0.039c0.091,0,0.16,0.06,0.181,0.15
					c0.01,0.1-0.05,0.2-0.15,0.21C71.284,40.488,71.194,40.418,71.173,40.329z"/>
			</g>
			<g>
				<circle fill="#F8FFFC" cx="51.046" cy="37.115" r="0.335"/>
				<path fill="#12AD5F" d="M51.514,37.019c0-0.01,0-0.01,0-0.01c0-0.03-0.01-0.06-0.03-0.09c-0.06-0.16-0.21-0.27-0.38-0.28
					c-0.04-0.01-0.09-0.01-0.14,0c-0.06,0.01-0.12,0.03-0.17,0.07c-0.02,0-0.04,0.02-0.06,0.04c-0.04,0.02-0.06,0.05-0.09,0.09
					c-0.04,0.05-0.06,0.11-0.08,0.17c-0.01,0.06-0.01,0.13,0,0.19c0.01,0.05,0.03,0.1,0.05,0.14c0.05,0.09,0.13,0.17,0.22,0.2
					c0.05,0.04,0.11,0.05,0.17,0.05c0.01,0.01,0.03,0.01,0.04,0.01h0.09c0.06-0.02,0.11-0.04,0.17-0.08h0.01
					c0.05-0.03,0.1-0.08,0.13-0.13c0.01-0.02,0.02-0.03,0.03-0.05c0.02-0.03,0.03-0.06,0.04-0.1c0.02-0.06,0.02-0.14,0.01-0.21
					L51.514,37.019z M50.863,37.148c-0.01-0.05,0-0.1,0.03-0.14c0.03-0.04,0.07-0.06,0.12-0.07c0.01,0,0.02-0.01,0.03-0.01
					c0.09,0,0.17,0.07,0.18,0.16c0.01,0.04,0,0.09-0.03,0.13c-0.03,0.04-0.07,0.07-0.12,0.08
					C50.974,37.309,50.883,37.249,50.863,37.148z"/>
			</g>
			<g>
				<circle fill="#F8FFFC" cx="44.053" cy="34.228" r="0.334"/>
				<path fill="#12AD5F" d="M44.503,34.059c-0.01-0.06-0.04-0.11-0.09-0.15c-0.06-0.08-0.16-0.14-0.26-0.15
					c-0.06-0.02-0.12-0.02-0.19-0.01c-0.02,0-0.04,0.01-0.05,0.02c-0.1,0.02-0.18,0.08-0.25,0.17l-0.01,0.01
					c-0.05,0.07-0.07,0.14-0.08,0.22c-0.01,0.04-0.01,0.09,0,0.14c0.01,0.06,0.03,0.11,0.06,0.16c0.02,0.05,0.05,0.09,0.1,0.13
					c0.05,0.05,0.12,0.09,0.2,0.1c0.02,0.01,0.05,0.02,0.08,0.01c0.01,0.01,0.03,0.01,0.04,0.01c0.03,0,0.06-0.01,0.08-0.01
					c0.01,0,0.02-0.01,0.03-0.01c0.03-0.01,0.06-0.02,0.09-0.04c0.07-0.02,0.12-0.07,0.17-0.13c0.01,0,0.02-0.01,0.03-0.02
					c0.03-0.04,0.05-0.08,0.06-0.12c0.02-0.08,0.03-0.16,0.02-0.25C44.523,34.108,44.523,34.079,44.503,34.059z M43.874,34.258
					c-0.01-0.05,0-0.09,0.03-0.13c0.03-0.05,0.07-0.07,0.12-0.08h0.03c0.09,0,0.16,0.06,0.18,0.15c0.01,0.05,0,0.09-0.03,0.13
					c-0.03,0.04-0.07,0.07-0.12,0.08C43.983,34.429,43.894,34.358,43.874,34.258z"/>
			</g>
			<g>
				
					<rect x="25.469" y="42.994" transform="matrix(0.4429 0.8966 -0.8966 0.4429 54.8405 -1.9704)" fill="#12AD5F" width="7.074" height="0.303"/>
			</g>
			<g>
				
					<rect x="33.151" y="40.207" transform="matrix(0.7574 0.6529 -0.6529 0.7574 36.57 -11.1589)" fill="#12AD5F" width="0.304" height="6.863"/>
			</g>
			<g>
				
					<rect x="35.839" y="41.613" transform="matrix(0.6358 0.7718 -0.7718 0.6358 45.613 -13.145)" fill="#12AD5F" width="1.795" height="0.305"/>
			</g>
			<g>
				
					<rect x="38.705" y="36.473" transform="matrix(0.3368 0.9416 -0.9416 0.3368 62.9111 -10.4258)" fill="#12AD5F" width="0.304" height="5.951"/>
			</g>
			<g>
				
					<rect x="37.771" y="43.104" transform="matrix(0.9555 0.2951 -0.2951 0.9555 14.5404 -9.8309)" fill="#12AD5F" width="4.138" height="0.304"/>
			</g>
			<g>
				
					<rect x="39.651" y="41.043" transform="matrix(0.0311 0.9995 -0.9995 0.0311 82.0974 -2.3002)" fill="#12AD5F" width="5.169" height="0.304"/>
			</g>
			<g>
				
					<rect x="44.192" y="41" transform="matrix(0.4734 0.8808 -0.8808 0.4734 61.3466 -16.3447)" fill="#12AD5F" width="0.303" height="4.273"/>
			</g>
			<g>
				
					<rect x="41.663" y="37.917" transform="matrix(0.2973 0.9548 -0.9548 0.2973 68.2303 -16.568)" fill="#12AD5F" width="7.414" height="0.303"/>
			</g>
			<g>
				
					<rect x="43.026" y="34.389" transform="matrix(0.9265 0.3764 -0.3764 0.9265 16.8675 -13.5759)" fill="#12AD5F" width="0.304" height="3.982"/>
			</g>
			<g>
				
					<rect x="44.096" y="35.398" transform="matrix(0.9178 0.3971 -0.3971 0.9178 18.028 -15.968)" fill="#12AD5F" width="6.956" height="0.304"/>
			</g>
			<g>
				
					<rect x="46.404" y="43.633" transform="matrix(0.8922 0.4517 -0.4517 0.8922 25.235 -18.1456)" fill="#12AD5F" width="8.443" height="0.304"/>
			</g>
			<g>
				
					<rect x="48.569" y="41.222" transform="matrix(0.4123 0.911 -0.911 0.4123 68.7718 -23.8632)" fill="#12AD5F" width="8.626" height="0.304"/>
			</g>
			<g>
				
					<rect x="57.339" y="41.882" transform="matrix(0.3945 0.9189 -0.9189 0.3945 75.7345 -25.8625)" fill="#12AD5F" width="0.304" height="5.306"/>
			</g>
			<g>
				
					<rect x="51.325" y="37.463" transform="matrix(0.9838 0.1793 -0.1793 0.9838 7.6254 -9.1495)" fill="#12AD5F" width="6.218" height="0.303"/>
			</g>
			<g>
				
					<rect x="59.328" y="35.174" transform="matrix(0.2832 0.9591 -0.9591 0.2832 77.8823 -30.701)" fill="#12AD5F" width="0.303" height="3.158"/>
			</g>
			<g>
				
					<rect x="60.324" y="36.281" transform="matrix(0.753 0.658 -0.658 0.753 39.485 -30.5816)" fill="#12AD5F" width="0.303" height="2.041"/>
			</g>
			<g>
				
					<rect x="48.654" y="36.525" transform="matrix(0.7331 0.6801 -0.6801 0.7331 39.8973 -22.6469)" fill="#12AD5F" width="0.304" height="5.979"/>
			</g>
			<g>
				
					<rect x="43.12" y="34.482" transform="matrix(0.9851 0.1722 -0.1722 0.9851 7.4092 -6.8657)" fill="#12AD5F" width="0.303" height="9.568"/>
			</g>
			<g>
				
					<rect x="39.273" y="36.55" transform="matrix(0.6284 0.7779 -0.7779 0.6284 43.7474 -18.1817)" fill="#12AD5F" width="3.265" height="0.304"/>
			</g>
			<g>
				
					<rect x="41.732" y="32.794" transform="matrix(0.2072 0.9783 -0.9783 0.2072 67.1265 -13.4862)" fill="#12AD5F" width="0.304" height="3.76"/>
			</g>
			<g>
				
					<rect x="37.568" y="34.819" transform="matrix(0.8231 0.568 -0.568 0.8231 28.2244 -14.7097)" fill="#12AD5F" width="0.304" height="6.249"/>
			</g>
			<g>
				
					<rect x="39.624" y="37.537" transform="matrix(0.7191 0.6949 -0.6949 0.7191 39.253 -16.2887)" fill="#12AD5F" width="0.302" height="5.748"/>
			</g>
			<g>
				
					<rect x="27.514" y="39.926" transform="matrix(0.9935 0.1141 -0.1141 0.9935 4.7796 -3.3394)" fill="#12AD5F" width="8.087" height="0.303"/>
			</g>
			<g>
				
					<rect x="34.019" y="41.054" transform="matrix(0.4683 0.8836 -0.8836 0.4683 57.5565 -6.4896)" fill="#12AD5F" width="0.303" height="7.053"/>
			</g>
			<g>
				
					<rect x="64.142" y="33.324" transform="matrix(0.0288 0.9996 -0.9996 0.0288 98.4176 -29.3158)" fill="#12AD5F" width="0.305" height="5.33"/>
			</g>
			<g>
				
					<rect x="66.674" y="38.02" transform="matrix(0.6998 0.7143 -0.7143 0.6998 48.0696 -38.0406)" fill="#12AD5F" width="5.243" height="0.304"/>
			</g>
			<g>
				
					<rect x="69.106" y="39.086" transform="matrix(0.321 0.9471 -0.9471 0.321 85.8025 -37.7913)" fill="#12AD5F" width="0.304" height="3.72"/>
			</g>
			<g>
				
					<rect x="66.105" y="36.089" transform="matrix(0.9254 0.3789 -0.3789 0.9254 19.4723 -22.244)" fill="#12AD5F" width="0.303" height="4.534"/>
			</g>
			<g>
				
					<rect x="60.624" y="37.969" transform="matrix(0.5379 0.843 -0.843 0.5379 61.0177 -35.0751)" fill="#12AD5F" width="3.758" height="0.303"/>
			</g>
			<g>
				
					<rect x="67.637" y="35.92" transform="matrix(0.9982 0.06 -0.06 0.9982 2.2894 -4.1355)" fill="#12AD5F" width="4.804" height="0.304"/>
			</g>
			<g>
				
					<rect x="71.925" y="36.205" transform="matrix(0.9713 0.238 -0.238 0.9713 11.1401 -16.0589)" fill="#12AD5F" width="0.304" height="3.803"/>
			</g>
		</g>
		<g>
			<g>
				<circle fill="#F8FFFC" cx="38.946" cy="28.816" r="0.335"/>
				<path fill="#12AD5F" d="M39.374,28.599c-0.11-0.24-0.42-0.34-0.65-0.22c-0.06,0.03-0.12,0.08-0.16,0.14v0.01
					c-0.03,0.04-0.06,0.08-0.08,0.14c0,0.01,0,0.01,0,0.02v0.01c-0.04,0.11-0.03,0.23,0.03,0.34c0.03,0.05,0.06,0.09,0.1,0.13
					c0.02,0.02,0.05,0.04,0.08,0.06c0.03,0.02,0.08,0.04,0.12,0.05h0.01c0.04,0.01,0.08,0.02,0.12,0.02c0.01,0,0.01,0,0.02,0h0.03
					c0.02,0,0.05-0.01,0.07-0.01c0.04-0.01,0.07-0.02,0.1-0.04c0.04-0.02,0.07-0.04,0.1-0.08c0.01,0.01,0.01,0,0.02-0.02
					c0.01,0,0.02-0.01,0.03-0.02v-0.01c0.05-0.04,0.08-0.09,0.1-0.15c0.02-0.05,0.02-0.1,0.02-0.15
					C39.434,28.738,39.414,28.668,39.374,28.599z M39.034,28.979c-0.09,0.04-0.21,0.01-0.25-0.08c-0.02-0.04-0.03-0.09-0.01-0.14
					c0.01-0.05,0.05-0.08,0.09-0.11c0.03-0.01,0.05-0.02,0.08-0.02c0.07,0,0.13,0.04,0.16,0.1c0.03,0.05,0.03,0.1,0.02,0.14
					C39.104,28.918,39.074,28.958,39.034,28.979z"/>
			</g>
			<g>
				<circle fill="#F8FFFC" cx="36.713" cy="27.505" r="0.334"/>
				<path fill="#12AD5F" d="M37.144,27.289c-0.12-0.24-0.42-0.33-0.65-0.22c-0.17,0.09-0.27,0.26-0.27,0.44
					c0,0.08,0.02,0.15,0.06,0.22c0.01,0.03,0.03,0.06,0.06,0.08l0.01,0.01c0.06,0.08,0.15,0.14,0.26,0.15
					c0.03,0.02,0.07,0.02,0.1,0.02c0.08,0,0.15-0.02,0.22-0.05c0.03-0.02,0.06-0.04,0.09-0.07c0.07-0.05,0.12-0.12,0.15-0.21
					c0.01-0.02,0.01-0.03,0.01-0.04v-0.01C37.213,27.488,37.193,27.378,37.144,27.289z M36.554,27.588
					c-0.05-0.09-0.01-0.2,0.08-0.25c0.02-0.01,0.05-0.02,0.08-0.02c0.07,0,0.13,0.04,0.16,0.1c0.02,0.05,0.03,0.1,0.01,0.14
					c-0.01,0.05-0.04,0.09-0.09,0.11C36.704,27.708,36.593,27.679,36.554,27.588z"/>
			</g>
			<g>
				<circle fill="#F8FFFC" cx="47.47" cy="27.403" r="0.335"/>
				<path fill="#12AD5F" d="M47.903,27.179c-0.12-0.23-0.42-0.33-0.65-0.21c-0.18,0.09-0.28,0.28-0.27,0.47
					c0.01,0.07,0.02,0.13,0.05,0.19c0.02,0.04,0.04,0.07,0.07,0.1c0.01,0.01,0.03,0.02,0.04,0.03c0.08,0.07,0.17,0.12,0.28,0.12
					c0.02,0.01,0.03,0.01,0.05,0.01s0.03,0,0.05-0.01h0.01c0.05,0,0.11-0.02,0.16-0.04c0.04-0.02,0.08-0.05,0.11-0.08
					c0.02-0.01,0.03-0.03,0.04-0.05c0.07-0.08,0.11-0.18,0.11-0.29C47.963,27.338,47.943,27.258,47.903,27.179z M47.383,27.238
					c0.03-0.01,0.06-0.02,0.09-0.02c0.07,0,0.13,0.04,0.16,0.1c0.04,0.09,0.01,0.2-0.08,0.25c-0.09,0.04-0.2,0-0.25-0.08
					C47.264,27.398,47.293,27.289,47.383,27.238z"/>
			</g>
			<g>
				<circle fill="#F8FFFC" cx="33.632" cy="33.063" r="0.335"/>
				<path fill="#12AD5F" d="M34.093,32.918c0-0.01-0.01-0.03-0.02-0.04v-0.01c0-0.01,0-0.02-0.01-0.03
					c-0.03-0.05-0.07-0.1-0.12-0.14c-0.02-0.02-0.04-0.03-0.06-0.04c-0.09-0.06-0.2-0.09-0.31-0.08c-0.05,0.01-0.11,0.03-0.16,0.05
					c-0.03,0.01-0.06,0.03-0.08,0.06c-0.01,0-0.02,0.01-0.03,0.02c-0.14,0.13-0.2,0.33-0.12,0.51c0,0.02,0.01,0.04,0.02,0.06
					c0.05,0.11,0.14,0.19,0.25,0.23c0.05,0.03,0.11,0.04,0.17,0.04h0.01c0.07,0,0.15-0.02,0.22-0.05c0,0,0.01,0,0.01-0.01
					c0.1-0.05,0.17-0.13,0.2-0.23C34.124,33.159,34.133,33.028,34.093,32.918z M33.494,33.168c-0.01,0-0.02-0.01-0.02-0.02
					c-0.01-0.03-0.02-0.06-0.02-0.08v-0.01c0-0.07,0.04-0.12,0.1-0.16c0.02-0.01,0.05-0.02,0.08-0.02c0.07,0,0.13,0.04,0.16,0.1
					c0.05,0.09,0.01,0.2-0.08,0.25C33.633,33.269,33.534,33.238,33.494,33.168z"/>
			</g>
			<g>
				<circle fill="#F8FFFC" cx="28.327" cy="30.855" r="0.335"/>
				<path fill="#12AD5F" d="M28.764,30.639c0-0.01-0.01-0.02-0.01-0.02c-0.06-0.09-0.14-0.16-0.23-0.2c-0.13-0.07-0.28-0.07-0.42,0
					c-0.11,0.06-0.2,0.16-0.24,0.29c-0.01,0.04-0.02,0.07-0.01,0.11c-0.02,0.08,0,0.17,0.04,0.26c0.01,0.03,0.03,0.05,0.05,0.07
					c0,0.01,0.01,0.03,0.03,0.04c0.06,0.07,0.16,0.12,0.26,0.14c0.03,0.01,0.06,0.01,0.09,0.01c0.03,0,0.06,0,0.09-0.01
					c0.05-0.01,0.09-0.02,0.13-0.04c0.05-0.03,0.1-0.06,0.14-0.1c0.05-0.05,0.09-0.11,0.11-0.18
					C28.833,30.878,28.824,30.749,28.764,30.639z M28.164,30.938c-0.02-0.04-0.02-0.09-0.01-0.14c0.02-0.05,0.05-0.08,0.09-0.11
					c0.03-0.01,0.05-0.02,0.08-0.02c0.07,0,0.14,0.04,0.17,0.1c0.02,0.05,0.02,0.1,0.01,0.14c-0.02,0.05-0.05,0.09-0.09,0.11
					C28.324,31.059,28.204,31.028,28.164,30.938z"/>
			</g>
			<g>
				<circle fill="#F8FFFC" cx="36.829" cy="35.394" r="0.335"/>
				<path fill="#12AD5F" d="M37.264,35.179c-0.03-0.06-0.08-0.11-0.13-0.15c-0.08-0.07-0.18-0.11-0.28-0.12
					c-0.08-0.01-0.16,0.01-0.24,0.05c-0.01,0-0.02,0.01-0.02,0.01c-0.1,0.05-0.17,0.13-0.2,0.23c-0.02,0.02-0.02,0.03-0.03,0.05
					c-0.02,0.07-0.03,0.15-0.01,0.22c0,0.05,0.01,0.1,0.04,0.15c0.03,0.05,0.06,0.09,0.1,0.12c0.09,0.09,0.21,0.14,0.34,0.14
					c0.07,0,0.15-0.02,0.22-0.05c0.08-0.04,0.14-0.1,0.18-0.17l0.01-0.01c0.06-0.1,0.08-0.21,0.06-0.32
					C37.304,35.278,37.293,35.229,37.264,35.179z M36.664,35.479c-0.02-0.04-0.02-0.09-0.01-0.14c0.02-0.05,0.05-0.08,0.09-0.11
					c0.03-0.01,0.06-0.02,0.09-0.02c0.07,0,0.13,0.04,0.16,0.1c0.04,0.09,0.01,0.2-0.08,0.25
					C36.824,35.599,36.713,35.568,36.664,35.479z"/>
			</g>
			<g>
				<circle fill="#F8FFFC" cx="31.954" cy="27.56" r="0.335"/>
				<path fill="#12AD5F" d="M32.423,27.488c0-0.05-0.01-0.1-0.04-0.15c-0.11-0.23-0.42-0.33-0.65-0.21c-0.1,0.05-0.17,0.12-0.2,0.21
					c-0.02,0.02-0.03,0.05-0.04,0.07c-0.01,0.02-0.01,0.04-0.01,0.06c-0.02,0.08-0.01,0.18,0.02,0.26c0,0.02,0.01,0.03,0.02,0.05
					c0,0.01,0.02,0.02,0.02,0.02c0.03,0.08,0.09,0.14,0.16,0.18c0.02,0.01,0.04,0.02,0.06,0.02c0.02,0.02,0.05,0.03,0.08,0.03
					c0.03,0.02,0.07,0.02,0.11,0.02c0.03,0,0.05,0,0.08-0.01h0.01c0.05-0.01,0.09-0.02,0.13-0.04c0.09-0.05,0.16-0.12,0.2-0.21
					C32.423,27.699,32.443,27.599,32.423,27.488z M31.793,27.639c-0.02-0.04-0.03-0.09-0.01-0.14c0.01-0.04,0.04-0.08,0.09-0.1
					c0.02-0.01,0.05-0.02,0.08-0.02c0.07,0,0.13,0.04,0.16,0.1c0.05,0.09,0.01,0.2-0.08,0.24
					C31.943,27.769,31.833,27.729,31.793,27.639z"/>
			</g>
			<g>
				<circle fill="#F8FFFC" cx="25.409" cy="36.781" r="0.335"/>
				<path fill="#12AD5F" d="M25.843,36.559c-0.02-0.04-0.06-0.08-0.09-0.12c-0.07-0.07-0.17-0.12-0.27-0.13
					c-0.06-0.01-0.11-0.01-0.17,0c-0.05,0.01-0.09,0.02-0.13,0.04s-0.08,0.05-0.11,0.08c-0.01,0.01-0.02,0.03-0.03,0.04
					c-0.06,0.07-0.1,0.15-0.11,0.23c-0.01,0.05-0.01,0.1,0,0.15c0,0.05,0.02,0.1,0.04,0.15s0.05,0.09,0.09,0.12
					c0.09,0.1,0.21,0.15,0.35,0.15c0.03,0,0.05,0,0.08-0.01c0.05-0.01,0.1-0.02,0.14-0.04c0.05-0.03,0.09-0.06,0.13-0.1
					c0.02-0.02,0.04-0.05,0.05-0.08c0.03-0.03,0.05-0.07,0.06-0.11c0.02-0.06,0.03-0.12,0.02-0.19
					C25.894,36.679,25.874,36.619,25.843,36.559z M25.244,36.869c-0.04-0.09-0.01-0.2,0.08-0.25c0.03-0.01,0.06-0.02,0.08-0.02
					c0.07,0,0.14,0.04,0.17,0.1c0.02,0.04,0.02,0.09,0.01,0.14c-0.02,0.04-0.05,0.08-0.09,0.11
					C25.403,36.988,25.293,36.949,25.244,36.869z"/>
			</g>
			<g>
				<circle fill="#F8FFFC" cx="32.939" cy="37.51" r="0.334"/>
				<path fill="#12AD5F" d="M33.374,37.289c-0.01-0.02-0.03-0.04-0.05-0.06c-0.01-0.02-0.03-0.05-0.05-0.06
					c-0.04-0.04-0.09-0.07-0.14-0.09c-0.06-0.04-0.14-0.05-0.22-0.05c-0.03,0-0.06,0.01-0.09,0.01c-0.03,0.01-0.06,0.03-0.1,0.04
					c-0.01,0-0.01,0.01-0.02,0.02c-0.03,0.01-0.06,0.03-0.08,0.05c-0.06,0.05-0.11,0.11-0.13,0.18c-0.01,0.01-0.02,0.02-0.02,0.03
					c-0.01,0.04-0.02,0.07-0.01,0.11c-0.01,0.01-0.01,0.02-0.01,0.02c-0.01,0.08,0.01,0.17,0.05,0.24c0.01,0.02,0.03,0.05,0.05,0.07
					c0.08,0.13,0.23,0.2,0.39,0.2c0.04,0,0.07-0.01,0.11-0.01c0.04-0.01,0.07-0.02,0.11-0.04c0.06-0.03,0.11-0.07,0.16-0.13
					c0.03-0.04,0.06-0.1,0.08-0.16c0.02-0.07,0.03-0.15,0.01-0.23C33.414,37.378,33.403,37.329,33.374,37.289z M32.773,37.599
					c-0.02-0.05-0.02-0.1-0.01-0.14c0.02-0.05,0.04-0.07,0.07-0.1l0.01-0.01h0.01c0.03-0.01,0.06-0.02,0.09-0.02
					c0.06,0,0.13,0.04,0.16,0.1c0.02,0.04,0.02,0.09,0.01,0.14c-0.02,0.05-0.05,0.08-0.09,0.1
					C32.934,37.718,32.824,37.679,32.773,37.599z"/>
			</g>
			<g>
				
					<rect x="36.85" y="28.02" transform="matrix(0.8327 0.5537 -0.5537 0.8327 21.9131 -16.188)" fill="#12AD5F" width="1.795" height="0.304"/>
			</g>
			<g>
				
					<rect x="36.241" y="28.03" transform="matrix(0.5941 0.8044 -0.8044 0.5941 39.7138 -16.6894)" fill="#12AD5F" width="0.304" height="5.95"/>
			</g>
			<g>
				
					<rect x="32.277" y="27.495" transform="matrix(1 0.0047 -0.0047 1 0.1309 -0.1618)" fill="#12AD5F" width="4.138" height="0.304"/>
			</g>
			<g>
				
					<rect x="30.067" y="30.164" transform="matrix(0.32 0.9474 -0.9474 0.32 50.9253 -10.3204)" fill="#12AD5F" width="5.17" height="0.302"/>
			</g>
			<g>
				
					<rect x="29.919" y="26.935" transform="matrix(0.7087 0.7055 -0.7055 0.7087 29.2691 -12.7469)" fill="#12AD5F" width="0.304" height="4.273"/>
			</g>
			<g>
				
					<rect x="26.856" y="34.066" transform="matrix(0.562 0.8271 -0.8271 0.562 41.6875 -10.2916)" fill="#12AD5F" width="7.412" height="0.304"/>
			</g>
			<g>
				
					<rect x="33" y="33.206" transform="matrix(0.9959 0.0902 -0.0902 0.9959 3.3116 -2.8481)" fill="#12AD5F" width="0.303" height="3.981"/>
			</g>
			<g>
				
					<rect x="25.706" y="37.116" transform="matrix(0.9936 0.1133 -0.1133 0.9936 4.4093 -3.066)" fill="#12AD5F" width="6.957" height="0.305"/>
			</g>
			<g>
				<polygon fill="#12AD5F" points="28.054,30.858 28.034,30.999 28.034,31.008 28.014,31.099 28.003,31.159 27.983,31.159 
					27.943,31.148 23.414,30.349 23.824,30.119 27.854,30.818 27.994,30.849 				"/>
			</g>
			<g>
				<polygon fill="#12AD5F" points="25.374,36.378 25.264,36.479 25.144,36.579 25.074,36.499 25.043,36.468 24.983,36.398 
					20.934,31.789 21.204,31.628 25.313,36.309 				"/>
			</g>
			<g>
				<path fill="none" stroke="#12AD5F" stroke-miterlimit="10" d="M21.464,37.506"/>
			</g>
			<g>
				<path fill="none" stroke="#12AD5F" stroke-miterlimit="10" d="M25.11,36.933"/>
			</g>
			<g>
				
					<rect x="26.703" y="30.845" transform="matrix(0.8989 0.4382 -0.4382 0.8989 17.5418 -8.3465)" fill="#12AD5F" width="0.304" height="5.979"/>
			</g>
			<g>
				
					<rect x="27.438" y="32.31" transform="matrix(0.1183 0.993 -0.993 0.1183 60.6439 -3.3736)" fill="#12AD5F" width="9.567" height="0.304"/>
			</g>
			<g>
				
					<rect x="33.598" y="34.077" transform="matrix(0.8271 0.562 -0.562 0.8271 25.3263 -13.8829)" fill="#12AD5F" width="3.265" height="0.303"/>
			</g>
			<g>
				
					<rect x="34.732" y="34.572" transform="matrix(0.4841 0.875 -0.875 0.4841 49.8908 -11.7189)" fill="#12AD5F" width="0.304" height="3.76"/>
			</g>
			<g>
				
					<rect x="37.767" y="28.991" transform="matrix(0.9517 0.307 -0.307 0.9517 11.6927 -10.0916)" fill="#12AD5F" width="0.304" height="6.249"/>
			</g>
			<g>
				
					<rect x="35.083" y="27.476" transform="matrix(0.8909 0.4543 -0.4543 0.8909 17.6333 -12.6942)" fill="#12AD5F" width="0.303" height="5.748"/>
			</g>
			<g>
				
					<rect x="43.044" y="24.238" transform="matrix(0.1806 0.9836 -0.9836 0.1806 63.2108 -19.3109)" fill="#12AD5F" width="0.303" height="8.086"/>
			</g>
		</g>
		<g>
			<g>
				<circle fill="#F8FFFC" cx="22.805" cy="45.786" r="0.335"/>
				<path fill="#12AD5F" d="M23.133,45.429c-0.06-0.05-0.13-0.09-0.2-0.1c-0.05-0.02-0.08-0.03-0.13-0.01h-0.02
					c-0.13,0-0.25,0.05-0.34,0.14c-0.04,0.04-0.07,0.08-0.09,0.13v0.01c-0.01,0.03-0.02,0.06-0.02,0.1
					c-0.01,0.04-0.01,0.07-0.01,0.11c0,0.01,0,0.01,0,0.02c0,0.06,0.02,0.12,0.04,0.17c0.03,0.06,0.07,0.11,0.11,0.15
					c0.09,0.08,0.21,0.12,0.33,0.12c0.1,0,0.2-0.03,0.28-0.09h0.01c0.03-0.02,0.05-0.03,0.07-0.06c0.07-0.07,0.11-0.15,0.11-0.24
					C23.313,45.718,23.264,45.548,23.133,45.429z M22.684,45.918c-0.04-0.03-0.06-0.08-0.06-0.13c0-0.04,0.01-0.09,0.05-0.13
					c0.03-0.03,0.08-0.05,0.13-0.05c0.05,0,0.09,0.01,0.12,0.04c0.08,0.07,0.08,0.19,0.02,0.26
					C22.874,45.979,22.753,45.988,22.684,45.918z"/>
			</g>
			<g>
				<circle fill="#F8FFFC" cx="23.253" cy="43.236" r="0.335"/>
				<path fill="#12AD5F" d="M23.724,43.128v-0.01c-0.02-0.1-0.07-0.17-0.14-0.24c-0.01-0.01-0.02-0.02-0.03-0.02
					c-0.13-0.1-0.3-0.13-0.46-0.07c-0.08,0.02-0.15,0.06-0.2,0.12c-0.02,0.02-0.04,0.05-0.05,0.08c-0.02,0-0.02,0.01-0.01,0.02
					c-0.06,0.09-0.08,0.2-0.06,0.3v0.01c0.01,0.1,0.06,0.2,0.15,0.28c0.03,0.02,0.06,0.04,0.09,0.05c0.07,0.05,0.16,0.07,0.24,0.07
					c0.02,0,0.04,0,0.06-0.01c0.12-0.01,0.22-0.06,0.3-0.14c0.09-0.1,0.13-0.22,0.13-0.35
					C23.744,43.188,23.733,43.159,23.724,43.128z M23.124,43.108c0.03-0.03,0.08-0.05,0.13-0.05c0.05,0,0.09,0.01,0.12,0.04
					c0.04,0.04,0.06,0.08,0.06,0.13s-0.01,0.1-0.05,0.13c-0.06,0.07-0.18,0.08-0.25,0.01C23.054,43.298,23.054,43.188,23.124,43.108
					z"/>
			</g>
			<g>
				<circle fill="#F8FFFC" cx="16.969" cy="42.29" r="0.335"/>
				<path fill="#12AD5F" d="M17.403,42.068c-0.03-0.05-0.07-0.1-0.11-0.14c-0.03-0.03-0.07-0.05-0.11-0.07
					c-0.16-0.08-0.36-0.06-0.5,0.06l-0.02,0.01c-0.02,0-0.03,0.01-0.05,0.03c-0.09,0.09-0.13,0.21-0.13,0.33
					c0,0.13,0.05,0.27,0.16,0.36l0.01,0.01c0.08,0.07,0.18,0.11,0.29,0.11c0.01,0.01,0.02,0.01,0.03,0.01c0.1,0,0.2-0.04,0.29-0.1
					c0-0.01,0.01-0.01,0.02-0.01l0.14-0.23c0.01-0.01,0.02-0.03,0.01-0.05c0.02-0.04,0.02-0.08,0.02-0.12
					C17.454,42.199,17.434,42.128,17.403,42.068z M16.843,42.429c-0.07-0.07-0.08-0.19-0.01-0.26c0.04-0.04,0.08-0.06,0.14-0.06
					c0.04,0,0.09,0.02,0.12,0.05c0.03,0.03,0.06,0.08,0.06,0.12c0,0.05-0.02,0.1-0.05,0.14
					C17.034,42.488,16.914,42.488,16.843,42.429z"/>
			</g>
			<g>
				<circle fill="#F8FFFC" cx="17.185" cy="36.549" r="0.335"/>
				<path fill="#12AD5F" d="M17.543,36.229c-0.01-0.02-0.02-0.03-0.03-0.04c-0.13-0.11-0.31-0.15-0.47-0.09
					c-0.08,0.01-0.16,0.06-0.22,0.12c-0.02,0.02-0.03,0.04-0.04,0.07c-0.01,0.01-0.02,0.02-0.03,0.04
					c-0.04,0.07-0.06,0.15-0.05,0.24c0,0.02,0,0.05,0.01,0.07c0,0.06,0.03,0.11,0.06,0.16c0.02,0.04,0.05,0.08,0.08,0.11
					c0.04,0.04,0.09,0.07,0.14,0.09c0.06,0.03,0.13,0.04,0.19,0.04c0.14,0,0.27-0.06,0.36-0.16c0.01-0.01,0.01-0.01,0.01-0.02
					c0.07-0.08,0.11-0.18,0.11-0.28c0.01-0.02,0.01-0.03,0.01-0.05C17.664,36.418,17.624,36.309,17.543,36.229z M17.063,36.688
					c-0.04-0.04-0.06-0.08-0.06-0.13c0-0.05,0.01-0.1,0.05-0.13c0.03-0.04,0.08-0.06,0.13-0.06c0.05,0,0.09,0.02,0.12,0.05
					c0.04,0.03,0.06,0.07,0.06,0.12c0.01,0.05-0.01,0.1-0.04,0.13C17.253,36.749,17.133,36.749,17.063,36.688z"/>
			</g>
			<g>
				<circle fill="#F8FFFC" cx="15.9" cy="46.101" r="0.335"/>
				<path fill="#12AD5F" d="M16.354,45.958c-0.01-0.08-0.06-0.16-0.12-0.22c-0.01-0.01-0.01-0.01-0.02-0.01
					c-0.08-0.07-0.18-0.1-0.28-0.1c-0.1-0.01-0.18,0-0.26,0.06h-0.01c-0.05,0.01-0.09,0.04-0.12,0.08
					c-0.04,0.04-0.07,0.08-0.09,0.13c-0.08,0.19-0.04,0.42,0.12,0.56c0.09,0.08,0.2,0.13,0.33,0.13c0.13,0,0.26-0.06,0.36-0.16
					c0.04-0.05,0.08-0.1,0.09-0.16v-0.01C16.394,46.159,16.394,46.059,16.354,45.958z M15.773,46.238
					c-0.07-0.07-0.07-0.19-0.01-0.26c0.04-0.04,0.09-0.06,0.14-0.06c0.04,0,0.09,0.02,0.12,0.05c0.07,0.07,0.08,0.18,0.01,0.26
					C15.963,46.298,15.854,46.298,15.773,46.238z"/>
			</g>
			<g>
				<circle fill="#F8FFFC" cx="21.54" cy="38.796" r="0.335"/>
				<path fill="#12AD5F" d="M21.983,38.619c-0.01-0.05-0.04-0.1-0.08-0.14v-0.01c-0.02-0.02-0.02-0.02-0.03-0.03
					c-0.03-0.03-0.07-0.05-0.11-0.06c-0.1-0.06-0.21-0.07-0.31-0.04c-0.09,0-0.17,0.04-0.23,0.1c-0.02,0.01-0.03,0.02-0.04,0.03
					c-0.01,0.01-0.02,0.02-0.02,0.03c-0.05,0.06-0.09,0.13-0.1,0.21c-0.01,0.04-0.01,0.07-0.01,0.11c0,0.01,0,0.03,0.01,0.04
					c0,0.06,0.02,0.12,0.06,0.18c0.02,0.04,0.05,0.08,0.09,0.12c0.07,0.06,0.15,0.1,0.25,0.11c0.02,0.01,0.05,0.01,0.08,0.01
					c0.08,0,0.16-0.02,0.23-0.07c0.05-0.01,0.09-0.04,0.12-0.08c0.09-0.09,0.13-0.21,0.13-0.32
					C22.023,38.749,22.014,38.679,21.983,38.619z M21.414,38.929c-0.03-0.03-0.05-0.08-0.06-0.12c0-0.05,0.02-0.1,0.05-0.14
					c0.04-0.03,0.08-0.06,0.14-0.06c0.04,0,0.09,0.02,0.12,0.05c0.07,0.07,0.08,0.19,0.01,0.26
					C21.604,38.988,21.483,38.999,21.414,38.929z"/>
			</g>
			<g>
				<circle fill="#F8FFFC" cx="12.559" cy="43.194" r="0.334"/>
				<path fill="#12AD5F" d="M13.014,43.008c-0.02-0.03-0.03-0.05-0.05-0.08c-0.02-0.03-0.05-0.06-0.08-0.09
					c-0.01-0.01-0.01-0.01-0.02-0.01c-0.03-0.03-0.06-0.05-0.09-0.05c-0.07-0.04-0.14-0.06-0.21-0.06c-0.05,0-0.1,0.01-0.15,0.03
					c-0.08,0.01-0.15,0.06-0.21,0.12c-0.02,0.02-0.04,0.05-0.05,0.08c-0.12,0.19-0.09,0.44,0.08,0.6c0.09,0.09,0.2,0.13,0.33,0.13
					c0.08,0,0.16-0.02,0.23-0.06c0.04-0.02,0.09-0.06,0.12-0.1c0.04-0.04,0.07-0.08,0.08-0.13c0.03-0.06,0.05-0.11,0.05-0.17v-0.04
					C13.043,43.119,13.034,43.059,13.014,43.008z M12.434,43.329c-0.07-0.07-0.08-0.18-0.01-0.26c0.04-0.04,0.08-0.06,0.14-0.06
					c0.04,0,0.08,0.02,0.12,0.05c0.03,0.03,0.06,0.08,0.06,0.13s-0.02,0.09-0.05,0.13C12.624,43.389,12.503,43.398,12.434,43.329z"
					/>
			</g>
			<g>
				
					<rect x="22.838" y="43.541" transform="matrix(0.9734 0.2293 -0.2293 0.9734 10.8029 -4.0876)" fill="#12AD5F" width="0.305" height="1.796"/>
			</g>
			<g>
				
					<rect x="16.886" y="44.008" transform="matrix(0.8392 0.5438 -0.5438 0.8392 27.2054 -3.7007)" fill="#12AD5F" width="5.951" height="0.303"/>
			</g>
			<g>
				
					<rect x="20.224" y="40.916" transform="matrix(0.3446 0.9388 -0.9388 0.3446 53.1642 5.9888)" fill="#12AD5F" width="4.138" height="0.303"/>
			</g>
			<g>
				
					<rect x="19.049" y="37.827" transform="matrix(0.6337 0.7736 -0.7736 0.6337 38.2974 -0.0497)" fill="#12AD5F" width="0.304" height="5.171"/>
			</g>
			<g>
				
					<rect x="17.33" y="37.407" transform="matrix(0.9114 0.4116 -0.4116 0.9114 17.1859 -4.6832)" fill="#12AD5F" width="4.273" height="0.305"/>
			</g>
			<g>
				
					<rect x="14.661" y="36.11" transform="matrix(0.8172 0.5764 -0.5764 0.8172 25.6572 -1.2591)" fill="#12AD5F" width="0.304" height="7.414"/>
			</g>
			<g>
				
					<rect x="14.649" y="40.595" transform="matrix(0.2618 0.9651 -0.9651 0.2618 52.0275 17.1527)" fill="#12AD5F" width="0.304" height="3.981"/>
			</g>
			<g>
				<polygon fill="#12AD5F" points="12.463,42.929 12.313,42.968 12.164,43.008 12.153,42.949 11.983,42.289 11.724,41.208 
					11.713,41.208 10.833,37.619 11.104,37.458 12.074,41.349 12.343,42.438 12.414,42.749 12.454,42.878 				"/>
			</g>
			<g>
				<polygon fill="#12AD5F" points="17.083,36.298 16.934,36.329 16.874,36.338 16.863,36.338 16.793,36.349 16.793,36.329 
					16.784,36.289 16.434,34.389 16.704,34.229 17.043,36.099 17.074,36.238 				"/>
			</g>
			<g>
				<path fill="none" stroke="#12AD5F" stroke-miterlimit="10" d="M8.556,32.439"/>
			</g>
			<g>
				<path fill="none" stroke="#12AD5F" stroke-miterlimit="10" d="M10.368,35.657"/>
			</g>
			<g>
				<polygon fill="#12AD5F" points="16.874,36.338 16.854,36.528 16.854,36.539 16.843,36.648 16.713,36.639 13.124,36.289 
					13.583,36.028 16.753,36.329 16.793,36.329 16.863,36.338 				"/>
			</g>
			<g>
				
					<rect x="16.887" y="35.976" transform="matrix(0.4562 0.8899 -0.8899 0.4562 45.5371 7.0027)" fill="#12AD5F" width="0.304" height="9.567"/>
			</g>
			<g>
				
					<rect x="16.283" y="42.564" transform="matrix(0.9718 0.2357 -0.2357 0.9718 10.8819 -2.6289)" fill="#12AD5F" width="0.304" height="3.265"/>
			</g>
			<g>
				
					<rect x="12.35" y="44.495" transform="matrix(0.7578 0.6525 -0.6525 0.7578 32.5784 1.5288)" fill="#12AD5F" width="3.76" height="0.305"/>
			</g>
			<g>
				
					<rect x="19.202" y="42.852" transform="matrix(0.0418 0.9991 -0.9991 0.0418 64.4821 24.7193)" fill="#12AD5F" width="0.304" height="6.248"/>
			</g>
			<g>
				
					<rect x="17.197" y="42.693" transform="matrix(0.9935 0.1141 -0.1141 0.9935 5.0195 -2.0102)" fill="#12AD5F" width="5.747" height="0.304"/>
			</g>
		</g>
		<g>
			
				<rect x="24.871" y="38.123" transform="matrix(0.5018 0.865 -0.865 0.5018 46.1872 -3.6407)" fill="#12AD5F" width="2.765" height="0.304"/>
		</g>
		<g>
			
				<rect x="32.533" y="38.989" transform="matrix(0.7023 0.7119 -0.7119 0.7023 38.1085 -12.8398)" fill="#12AD5F" width="3.743" height="0.304"/>
		</g>
		<g>
			
				<rect x="38.112" y="34.14" transform="matrix(0.2011 0.9796 -0.9796 0.2011 65.1372 -9.2897)" fill="#12AD5F" width="0.304" height="2.295"/>
		</g>
		<g>
			
				<rect x="36.524" y="31.8" transform="matrix(0.0981 0.9952 -0.9952 0.0981 67.3109 -10.3701)" fill="#12AD5F" width="5.707" height="0.305"/>
		</g>
		<g>
			
				<rect x="38.105" y="31.34" transform="matrix(0.7036 0.7106 -0.7106 0.7036 34.6625 -20.122)" fill="#12AD5F" width="6.697" height="0.305"/>
		</g>
		<g>
			
				<rect x="45.622" y="27.34" transform="matrix(0.8947 0.4466 -0.4466 0.8947 18.5926 -17.1942)" fill="#12AD5F" width="0.303" height="7.012"/>
		</g>
		<g>
			
				<rect x="44.462" y="32.091" transform="matrix(0.3475 0.9377 -0.9377 0.3475 62.4066 -25.1932)" fill="#12AD5F" width="9.687" height="0.305"/>
		</g>
		<g>
			
				<rect x="46.572" y="31.55" transform="matrix(0.8452 0.5345 -0.5345 0.8452 25.374 -24.1913)" fill="#12AD5F" width="15.742" height="0.304"/>
		</g>
		<g>
			
				<rect x="23.031" y="46.244" transform="matrix(0.9946 0.1033 -0.1033 0.9946 4.9366 -2.515)" fill="#12AD5F" width="7.429" height="0.304"/>
		</g>
		<g>
			
				<rect x="25.116" y="39.272" transform="matrix(0.6683 0.7439 -0.7439 0.6683 39.2727 -5.0218)" fill="#12AD5F" width="0.304" height="4.517"/>
		</g>
		<g>
			
				<rect x="21.812" y="39.023" transform="matrix(0.9761 0.2175 -0.2175 0.9761 9.1025 -4.3638)" fill="#12AD5F" width="5.131" height="0.304"/>
		</g>
		<g>
			
				<rect x="23.285" y="35.884" transform="matrix(0.4356 0.9001 -0.9001 0.4356 47.199 0.2028)" fill="#12AD5F" width="0.305" height="3.715"/>
		</g>
		<g>
			
				<rect x="17.518" y="36.313" transform="matrix(0.9998 0.0222 -0.0222 0.9998 0.8157 -0.4643)" fill="#12AD5F" width="7.558" height="0.303"/>
		</g>
		<g>
			<path fill="#4EB58D" d="M90.723,85.008c-0.08-0.1-0.159-0.189-0.25-0.28c-0.05-0.06-0.109-0.109-0.17-0.159
				c-0.149-0.16-0.31-0.301-0.489-0.41c-0.58-0.391-1.271-0.61-1.94-0.58c-0.12,0-0.24,0.01-0.36,0.03
				c-0.05,0.01-0.09,0.02-0.13,0.029c-0.02,0-0.03,0.011-0.05,0.021c-0.15,0.02-0.29,0.08-0.43,0.149
				c-0.061,0.021-0.11,0.051-0.17,0.08c0-0.06-0.011-0.109-0.04-0.16c-0.011-0.01-0.011-0.02-0.021-0.029v-0.01
				c-0.03-0.04-0.05-0.08-0.09-0.12c-0.35-0.431-1.07-0.551-1.57-0.391c-0.12,0.04-0.22,0.12-0.29,0.221
				c-0.54-0.091-1.09-0.131-1.659-0.141c-1.771-0.01-4.221,0.2-5.86,1.13c-0.3-0.01-0.59-0.02-0.89-0.02
				c-0.171,0-0.351,0.01-0.521,0.01c0.18-0.189,0.35-0.38,0.51-0.58c1.42-1.729,2.11-3.91,3.74-5.5c2.26-2.2,4.54-5.88,3.98-9.13
				c-0.261-1.479-0.971-2.74-1.851-3.9c0.05-0.09,0.101-0.189,0.13-0.29c0.07-0.159,0.12-0.319,0.15-0.479
				c0.05-0.21,0.08-0.43,0.09-0.65c0.1-0.06,0.17-0.13,0.2-0.25c0.02-0.1,0.02-0.23-0.04-0.32c-0.01-0.01-0.021-0.02-0.021-0.02
				c0-0.01-0.01-0.04-0.01-0.06c0-0.04,0.01-0.08,0.01-0.12c0-0.07,0.011-0.12,0.021-0.19c0-0.01,0.01-0.02,0.01-0.04
				c0.021-0.13-0.01-0.25-0.13-0.32c-0.01-0.01-0.02-0.01-0.04-0.01c-0.05-0.02-0.12-0.03-0.19-0.01
				c-0.039-0.12-0.09-0.24-0.149-0.35l-0.14-0.27c-0.28-0.55-0.681-0.92-1.141-1.15c-0.06-0.09-0.12-0.19-0.189-0.29
				c-0.07-0.11-0.141-0.22-0.23-0.33c-0.25-1.67-1.36-3.18-1.72-4.84c-0.09-0.45-0.32-0.85-0.62-1.19
				c-0.07-0.49-0.18-0.98-0.26-1.48c-0.03-0.11-0.04-0.22-0.061-0.33c-0.05-0.38-0.31-0.83-0.43-1.2l-0.12-0.39
				c-0.01-0.03-0.01-0.05-0.02-0.08c0.17-0.91-0.091-2-0.75-2.7c-0.181-1.15-1.03-2.24-1.921-3.09c-0.18-0.71-0.52-1.34-1.21-1.74
				c-0.159-0.08-0.39-0.16-0.649-0.24c-0.05-0.63-0.4-1.25-1.12-1.54c-0.48-0.18-0.94-0.36-1.41-0.51c-0.17-0.05-0.34-0.1-0.52-0.15
				c-0.471-0.12-0.95-0.2-1.45-0.19c-0.21,0.01-0.42,0.02-0.63,0.06c-0.021-0.01-0.03-0.01-0.04-0.01s-0.021,0-0.021,0.02
				c-0.01,0-0.02,0.01-0.029,0.01c-0.011-0.02-0.03-0.05-0.04-0.07c-0.04-0.08-0.091-0.16-0.141-0.23l-0.01-0.01
				c-0.34-0.45-0.82-0.67-1.41-0.66c-0.02,0-0.05,0-0.07,0.01c-0.039-0.01-0.09,0-0.13,0.01c-0.05-0.01-0.09,0-0.14,0.01
				c-0.01,0-0.01,0-0.02,0h-0.011c-0.01,0-0.02,0-0.029,0.01c-0.23,0.03-0.46,0.07-0.681,0.13c-0.09,0.02-0.189,0.04-0.279,0.07
				c-0.171,0.05-0.341,0.11-0.5,0.17c-0.171-0.12-0.351-0.22-0.551-0.26c-0.069-0.02-0.14-0.03-0.21-0.04
				c-0.58-0.13-1.17-0.21-1.739-0.35c-0.601-0.13-1.091-0.87-1.49-1.32c-0.021-0.03-0.05-0.06-0.07-0.08
				c-0.05-0.05-0.09-0.1-0.14-0.15c-0.23-0.26-0.471-0.51-0.71-0.76c-0.08-0.08-0.17-0.17-0.25-0.25c-0.08-0.07-0.16-0.14-0.23-0.21
				c-0.24-0.21-0.49-0.41-0.75-0.59h-0.01c-0.26-0.18-0.51-0.33-0.8-0.46c-1.83-0.83-3.39-0.2-4.36,1.13
				c-0.16,0.07-0.32,0.16-0.46,0.26c0,0,0,0-0.01,0c-0.06,0.05-0.1,0.09-0.16,0.15c-0.08,0.08-0.16,0.17-0.22,0.27
				c-0.07,0.11-0.13,0.23-0.18,0.36c-0.05,0.15-0.08,0.32-0.08,0.5v0.09c-0.01,0.19-0.04,0.38-0.08,0.57
				c-0.11,0.47-0.32,0.92-0.53,1.36c-0.37-0.08-0.7,0.1-0.92,0.39c-0.24,0.32-0.27,0.78,0.15,0.94c0.06,0.02,0.12,0.02,0.17,0
				c-0.19,0.55-0.27,1.13-0.08,1.77c0.02,0.07,0.04,0.15,0.07,0.22c0.05,0.15,0.1,0.29,0.17,0.43c0.08,0.21,0.18,0.41,0.29,0.61
				c0.06,0.1,0.12,0.2,0.19,0.3c0,0.01,0,0.01,0,0.01c0.21,0.31,0.48,0.61,0.76,0.84c0.01,0,0.02,0.01,0.03,0.02
				c0.04,0.03,0.09,0.07,0.13,0.1c0.23,0.19,0.53,0.3,0.83,0.38c0.04,0.02,0.08,0.05,0.13,0.06c0.35,0.09,0.74,0.1,1.16,0.01
				c0.18-0.03,0.35-0.09,0.51-0.17c0.13-0.04,0.25-0.1,0.37-0.18c0.07-0.03,0.13-0.07,0.19-0.13c0.1-0.06,0.2-0.13,0.28-0.22
				c0.02-0.01,0.04-0.03,0.06-0.05c0.02-0.01,0.03-0.02,0.05-0.04c0,0.01,0.01,0.03,0.01,0.04c0.01,0.01,0.01,0.03,0.01,0.04
				c0.06,0.19,0.11,0.36,0.14,0.56c0,0.01,0,0.01,0,0.01c0,0.08,0.01,0.16,0.01,0.24c0.01,0.91,0.99,1.79,1.88,1.57
				c0.12-0.02,0.229-0.07,0.34-0.14c0.04-0.02,0.08-0.05,0.12-0.08c0.27-0.21,0.59-0.17,0.93-0.06c0.13,0.05,0.261,0.1,0.391,0.15
				c0.029,0.02,0.069,0.03,0.1,0.04h0.01c0.061,0.03,0.12,0.06,0.181,0.09h0.01c0.05,0.02,0.1,0.03,0.149,0.05
				c0.091,0.03,0.171,0.06,0.261,0.08c0.279,0.06,0.569,0.09,0.85,0.09c0.01,0,0.01,0.01,0.021,0c0.05,0,0.109,0,0.159-0.02
				c0,0,0,0,0.011,0c0.199,0,0.38-0.03,0.569-0.09h0.011c0.22-0.05,0.42-0.12,0.619-0.23c0.011,0,0.011-0.01,0.011-0.01
				c0.01,0,0.01,0,0.02,0c0.061-0.02,0.101-0.05,0.15-0.08c-0.01,0.02-0.01,0.04-0.021,0.06c-0.04,0.17-0.09,0.34-0.14,0.5
				c-0.31,1.07-0.69,2.08-1.15,3.07c-0.39,0.88-0.859,1.76-1.38,2.64c-0.649,1.09-1.02,1.86-1.56,2.46
				c-0.62,0.66-1.32,1.36-1.61,2.23c-0.02,0.03-0.03,0.06-0.04,0.09v0.01c-0.04,0.11-0.06,0.22-0.08,0.34
				c-0.01,0.01-0.01,0.02-0.01,0.03c-0.02,0.12-0.04,0.24-0.05,0.36v0.06c-0.01,0.08-0.021,0.15-0.01,0.23
				c-0.011,0.05-0.011,0.1-0.011,0.15c-1.709-0.05-3.61-0.08-5.07,0.49c-0.48,0.18-0.92,0.43-1.28,0.77
				c-0.44-0.04-0.87-0.09-1.29-0.16c-0.41-0.07-0.97-0.03-1.52-0.03c-0.59-0.01-1.15-0.08-1.49-0.41c-0.06-0.06-0.12-0.12-0.19-0.17
				c-0.29-0.23-0.65-0.38-1.02-0.46c-0.01,0-0.01-0.01-0.02-0.01c-0.43-0.1-0.88-0.09-1.29,0.02c-0.04,0.01-0.08,0.03-0.11,0.04
				c-0.19,0.05-0.37,0.13-0.53,0.25c-0.06,0.03-0.11,0.06-0.16,0.1l-0.06,0.06c-0.06,0.05-0.11,0.1-0.15,0.16l-0.01,0.01
				c-0.07,0.09-0.14,0.17-0.2,0.28c-0.06,0.09-0.1,0.19-0.13,0.29c-0.07,0.2-0.09,0.4-0.07,0.6c0,0.09,0.02,0.19,0.04,0.28
				c-0.04,0-0.08,0-0.12,0.01c-0.03-0.01-0.07,0-0.1,0c-0.24,0.02-0.5,0.09-0.73,0.2c-0.38,0.19-0.7,0.49-0.82,0.88
				c-0.05,0.12-0.07,0.25-0.07,0.38c-0.01,0.01-0.01,0.01,0,0.01c0,0.05,0,0.09,0.01,0.14c0.02,0.14,0.04,0.28,0.06,0.41
				c0.05,0.32,0.13,0.61,0.29,0.89c0.02,0.05,0.04,0.09,0.07,0.14c0.03,0.05,0.07,0.09,0.1,0.14c0.16,0.21,0.42,0.41,0.59,0.62
				c0.1,0.12,0.17,0.24,0.19,0.37c0.05,0.23,0.15,0.431,0.3,0.601c0.32,0.39,0.84,0.609,1.33,0.64c0.13,0.01,0.26,0.01,0.38,0h0.01
				c0.19,0,0.37-0.03,0.54-0.08h0.01c0.86-0.2,1.55-0.77,2.12-1.53c0.16-0.22,0.3-0.42,0.46-0.609c0.14-0.181,0.3-0.34,0.5-0.471
				c0.02-0.02,0.03-0.029,0.05-0.04c0.4-0.27,1.44,0.15,1.86,0.23c0.63,0.11,1.26,0.25,1.91,0.39c0.73,0.16,1.47,0.32,2.21,0.44
				c0.07,0.01,0.14,0.02,0.21,0.03c0.28,0.04,0.55,0.069,0.82,0.08c0.18,0.02,0.35,0.029,0.53,0.039
				c-0.04,0.03-0.09,0.061-0.13,0.091c-1.39,0.6-2.55,1.399-2.96,3.17c-0.18,0.76-0.11,1.62,0.26,2.33c-0.03,0.35,0,0.72,0.13,1.06
				c0.53,1.44,1.31,3.1,2.31,4.41c-0.06,1.47,0.71,2.7,1.16,4.06c0.52,1.57,1.11,3.44,1.27,5.08c0.09,0.94-0.03,2.17,0.04,3.33
				c0.03,0.47,0.09,0.92,0.21,1.33c0.141,0.54,0.391,1.021,0.78,1.4c0.899,0.859,2.04,0.819,2.97,0.12
				c1.01,0.739,2.271,1.05,3.26,0.279c0.631-0.489,0.99-1.06,1.16-1.689c0.01-0.04,0.021-0.07,0.03-0.11c0,0.01,0.01,0.03,0.01,0.05
				c0.4,1.58,1.17,19.301,2.42,20.17c0.011,0.011,0.021,0.011,0.03,0.011l1.19-0.69l0.38-0.22l0.239-0.13l1.54-0.9l0.061-0.03
				l0.25-0.14l0.38-0.22l4.62-2.67l0.96-0.561l1.71-0.979l0.02-0.021l0.181-0.09l1.46-0.85l1.38-0.79l0.87-0.521l0.34-0.2l1-0.58
				l0.28-0.159l0.87-0.5c0.55-3.801,1.109-7.23,1.64-7.42c1.88-0.65,3.02-2.12,3.66-3.851c0.13-0.33,0.239-0.68,0.319-1.03
				c0.15-0.569,0.25-1.159,0.311-1.739C91.314,86.138,91.103,85.518,90.723,85.008z M68.324,80.329c-0.19,0.21-0.37,0.43-0.54,0.649
				c-0.01,0.011-0.021,0.03-0.03,0.051c-1.15,1.46-2.08,3.189-2.57,4.96c0,0.01,0,0.02,0,0.02c-0.109,0.391-0.199,0.75-0.26,1.141
				c-0.03,0.13-0.04,0.25-0.06,0.38c-0.03-0.11-0.061-0.221-0.09-0.34c-0.381-1.511-0.681-3.11-1.19-4.591
				c-0.02-0.08-0.06-0.159-0.09-0.239c-0.29-1.66-1.15-3.33-2.26-4.46c-0.16-0.41-0.32-0.801-0.5-1.2
				c-0.04-0.101-0.08-0.21-0.131-0.311c0.011-0.02,0.021-0.05,0.03-0.069c0.15-0.4,0.25-0.811,0.32-1.24
				c0.02-0.19,0.04-0.39,0.05-0.59c0.11,0.05,0.21,0.1,0.32,0.149c2.56,1.2,5.7,1.771,8.75,1.561c0.109,0,0.22-0.01,0.33-0.021
				c0.14-0.01,0.29-0.02,0.43-0.04c-0.89,1.12-1.82,2.34-2.33,3.66C68.433,79.968,68.374,80.149,68.324,80.329z M63.234,64.878
				c0,0,0.01,0,0-0.01c-0.021-0.3-0.051-0.6-0.08-0.89h0.1c0.01,0,0.01,0,0.01,0c0.12,0,0.221-0.01,0.34-0.03
				c0.33-0.04,0.65-0.14,0.931-0.29c0.12-0.07,0.24-0.14,0.35-0.23c0.12-0.09,0.23-0.2,0.33-0.32c0.36-0.45,0.59-0.82,0.78-1.32
				c0.01-0.01,0.01-0.01,0.01-0.02c0.03-0.05,0.05-0.12,0.08-0.18c0-0.01,0.01-0.02,0.01-0.03c0.061-0.17,0.11-0.33,0.17-0.49
				c0.021-0.07,0.04-0.13,0.061-0.19c0.02-0.05,0.04-0.1,0.06-0.15c0.01,0.02,0.01,0.05,0.021,0.07v0.03
				c0.199,0.64,0.46,1.25,0.85,1.8c0.26,0.37,0.57,0.68,0.91,0.93c-0.021,0.17-0.03,0.34-0.03,0.52c0.03,0.35,0.07,0.71,0.13,1.07
				c-0.029,0.06-0.06,0.109-0.08,0.17c-0.119,0.229-0.189,0.47-0.22,0.71c-0.01,0.01-0.01,0.029-0.01,0.04
				c-1.51-0.431-3.12-0.57-4.66-0.2c0-0.061,0-0.11-0.01-0.17c-0.01-0.21-0.021-0.41-0.04-0.62
				C63.244,65.008,63.234,64.949,63.234,64.878z"/>
			<path fill="#4EB58D" d="M66.183,61.119c-0.109,0.05-0.239,0.06-0.359,0.03h-0.01c0.01,0.02,0.02,0.03,0.029,0.04
				c0.061,0.11,0.141,0.23,0.221,0.36c-0.011,0.07-0.03,0.15-0.061,0.22c0.03-0.05,0.05-0.12,0.08-0.18c0-0.01,0.01-0.02,0.01-0.03
				c0.061-0.17,0.11-0.33,0.17-0.49C66.234,61.079,66.213,61.099,66.183,61.119z"/>
			<path fill="#4EB58D" d="M66.183,61.119c-0.109,0.05-0.239,0.06-0.359,0.03c0,0.01,0.01,0.03,0.02,0.04
				c0.061,0.11,0.141,0.23,0.221,0.36c-0.011,0.07-0.03,0.15-0.061,0.22c0.03-0.05,0.05-0.12,0.08-0.18c0-0.01,0.01-0.02,0.01-0.03
				c0.061-0.17,0.11-0.33,0.17-0.49C66.234,61.079,66.213,61.099,66.183,61.119z"/>
			<path fill="#4EB58D" d="M66.183,61.119c-0.109,0.05-0.239,0.06-0.359,0.03c0,0.01,0.01,0.03,0.02,0.04
				c0.061,0.11,0.141,0.23,0.221,0.36c-0.011,0.07-0.03,0.15-0.061,0.22c0.03-0.05,0.05-0.12,0.08-0.18c0-0.01,0.01-0.02,0.01-0.03
				c0.061-0.17,0.11-0.33,0.17-0.49C66.234,61.079,66.213,61.099,66.183,61.119z"/>
			<path fill="#4EB58D" d="M66.183,61.119c-0.109,0.05-0.239,0.06-0.359,0.03c0,0.01,0.01,0.03,0.02,0.04
				c0.061,0.11,0.141,0.23,0.221,0.36c-0.011,0.07-0.03,0.15-0.061,0.22c0.03-0.05,0.05-0.12,0.08-0.18c0-0.01,0.01-0.02,0.01-0.03
				c0.061-0.17,0.11-0.33,0.17-0.49C66.234,61.079,66.213,61.099,66.183,61.119z"/>
			<path fill="#4EB58D" d="M66.183,61.119c-0.109,0.05-0.239,0.06-0.359,0.03c0,0.01,0.01,0.03,0.02,0.04
				c0.061,0.11,0.141,0.23,0.221,0.36c-0.011,0.07-0.03,0.15-0.061,0.22c0.03-0.05,0.05-0.12,0.08-0.18c0-0.01,0.01-0.02,0.01-0.03
				c0.061-0.17,0.11-0.33,0.17-0.49C66.234,61.079,66.213,61.099,66.183,61.119z"/>
			<path fill="#4EB58D" d="M66.183,61.119c-0.109,0.05-0.239,0.06-0.359,0.03c0,0.01,0.01,0.03,0.02,0.04
				c0.061,0.11,0.141,0.23,0.221,0.36c-0.011,0.07-0.03,0.15-0.061,0.22c0.03-0.05,0.05-0.12,0.08-0.18c0-0.01,0.01-0.02,0.01-0.03
				c0.061-0.17,0.11-0.33,0.17-0.49C66.234,61.079,66.213,61.099,66.183,61.119z"/>
			<path fill="#4EB58D" d="M66.183,61.119c-0.109,0.05-0.239,0.06-0.359,0.03c0,0.01,0.01,0.03,0.02,0.04
				c0.061,0.11,0.141,0.23,0.221,0.36c-0.011,0.07-0.03,0.15-0.061,0.22c0.03-0.05,0.05-0.12,0.08-0.18c0-0.01,0.01-0.02,0.01-0.03
				c0.061-0.17,0.11-0.33,0.17-0.49C66.234,61.079,66.213,61.099,66.183,61.119z"/>
			<path fill="#4EB58D" d="M66.183,61.119c-0.109,0.05-0.239,0.06-0.359,0.03c0,0.01,0.01,0.03,0.02,0.04
				c0.061,0.11,0.141,0.23,0.221,0.36c-0.011,0.07-0.03,0.15-0.061,0.22c0.03-0.05,0.05-0.12,0.08-0.18c0-0.01,0.01-0.02,0.01-0.03
				c0.061-0.17,0.11-0.33,0.17-0.49C66.234,61.079,66.213,61.099,66.183,61.119z"/>
			<path fill="#4EB58D" d="M66.183,61.119c-0.109,0.05-0.239,0.06-0.359,0.03c0,0.01,0.01,0.03,0.02,0.04
				c0.061,0.11,0.141,0.23,0.221,0.36c-0.011,0.07-0.03,0.15-0.061,0.22c0.03-0.05,0.05-0.12,0.08-0.18c0-0.01,0.01-0.02,0.01-0.03
				c0.061-0.17,0.11-0.33,0.17-0.49C66.234,61.079,66.213,61.099,66.183,61.119z"/>
		</g>
		<g>
			<path fill="#4F9E59" d="M78.933,104.508l0.181-0.09l1.46-0.85l1.38-0.79l0.87-0.521l0.34-0.2l1-0.58l0.28-0.159l0.87-0.5
				l0.76-0.44l0.04-0.03l0.3-0.17l0.67-0.38l0.63-0.359l0.271-0.16l0.25-0.141l2.779-1.6l0.11-0.07l0.13-0.05l0.24-0.13l2.72-1.57
				l6.28-3.62l0.79-0.449l0.16-0.091c0.01,0,0.01,0,0.02-0.01l0.15-0.08c-0.03-0.29-0.061-0.58-0.07-0.87
				c0.09-0.56,0.22-1.09,0.38-1.6v-3.64c-0.43,0.779-0.77,1.6-1.04,2.46c-0.02,0.02-0.05,0.05-0.069,0.08
				c-0.311,0.59-0.461,1.18-0.5,1.76c-0.08,0.18-0.16,0.359-0.221,0.55c-0.01-0.32-0.01-0.63,0-0.94c0.46-1.56,1.09-3.04,1.83-4.47
				v-2.149c-0.63,0.829-1.189,1.75-1.68,2.71c-0.04-0.03-0.08-0.04-0.13-0.051c0.12-0.239,0.25-0.479,0.38-0.71
				c0.14-0.26-0.15-0.529-0.38-0.42c0.31-1.359,0.67-2.71,0.97-4.09c0.06-0.3-0.33-0.479-0.5-0.21c-1.21,2.021-1.86,4.45-2.19,6.91
				c-0.39,0.96-0.609,1.99-0.689,3.03c-0.12,0.75-0.19,1.51-0.21,2.27c-0.09-0.07-0.19-0.12-0.28-0.18
				c-0.02-1.57-0.02-3.15-0.25-4.7c0.21-1.78,0.74-3.41,1.271-5.13c0.09-0.3-0.311-0.54-0.521-0.311c-0.76,0.811-1.27,1.79-1.6,2.86
				c-0.141-0.17-0.44-0.24-0.61-0.06c-0.5,0.5-0.85,1.05-1.12,1.64c-0.04-0.25-0.08-0.49-0.12-0.73
				c-0.22-1.22-0.31-2.699-1.14-3.689c-0.11-0.13-0.29-0.01-0.3,0.13c-0.05,0.521-0.03,1.08,0.04,1.65
				c-0.24,1.13-0.19,2.29-0.2,3.439c-0.021,1.05-0.04,2.09,0.12,3.11c-0.47-0.04-0.96-0.061-1.45-0.07
				c-0.05-0.12-0.09-0.25-0.13-0.38v-0.01c-0.12-0.37-0.21-0.75-0.271-1.141c-0.109-0.67-0.149-1.359-0.17-2.06
				c-0.02-0.38-0.02-0.78-0.029-1.16c0.01-0.01,0-0.02,0-0.02c0-0.09-0.011-0.181-0.011-0.271c-0.01-0.43-0.029-0.87-0.06-1.3
				c-0.01-0.13-0.021-0.25-0.03-0.38c-0.02-0.23-0.38-0.41-0.5-0.13c-0.04,0.09-0.08,0.189-0.109,0.29
				c-0.091,0.21-0.15,0.439-0.21,0.67c-0.021,0.069-0.04,0.14-0.051,0.22c-0.34,1.49-0.21,3.19,0.28,4.73
				c-0.11-0.08-0.22-0.15-0.33-0.23c-0.01-0.01-0.01-0.03-0.02-0.04c-0.44-1.149-0.45-2.37-0.771-3.55c-0.06-0.22-0.399-0.23-0.46,0
				c-0.25,1.02-0.12,2,0.12,3.01c0.01,0,0.01,0.01,0.01,0.01c-0.01,0-0.02-0.01-0.029-0.01c-0.881-0.35-1.561,0.79-1.15,1.5
				c0.16,0.29,0.35,0.561,0.54,0.83c-0.28,0.13-0.51,0.3-0.7,0.49c-0.04,0.01-0.09,0.01-0.13,0.02c0-0.01-0.01-0.01-0.01-0.02
				c-0.11-0.23-0.221-0.45-0.351-0.66c-0.05-0.48-0.09-0.95-0.12-1.43c-0.069-1.181-0.1-2.37-0.229-3.57
				c-0.01-0.14-0.09-0.24-0.19-0.29c-0.18-0.11-0.439-0.07-0.51,0.2c-0.3,1.17-0.36,2.479-0.22,3.79c-0.03-0.01-0.07-0.01-0.11-0.01
				c-0.3-0.24-0.63-0.41-1-0.48c-0.28-0.05-0.64,0.13-0.71,0.41c-0.08-0.14-0.229-0.2-0.37-0.18c-0.17-1.08-0.319-2.16-0.569-3.25
				c-0.051-0.21-0.4-0.221-0.44,0c-0.19,1.149-0.17,2.34,0.03,3.51c-0.09-0.11-0.17-0.22-0.25-0.32c-0.311-0.38-0.82,0.04-0.75,0.44
				c-0.05-0.061-0.101-0.11-0.16-0.16c-0.84-0.82-1.49-1.93-1.78-3.061c-0.14-0.54-0.899-0.3-0.819,0.221
				c0.149,0.949,0.489,1.72,1.1,2.47c0.06,0.08,0.13,0.15,0.2,0.229c-0.101,0.08-0.181,0.2-0.181,0.33
				c-0.01,0.21-0.05,0.57-0.01,0.9c-1.09-1.33-1.91-2.8-2.83-4.26c-0.14-0.23-0.479-0.08-0.43,0.18c0.33,1.69,1.15,3.07,2.2,4.3
				c-0.19-0.01-0.41,0.04-0.67,0.15c-0.101,0.04-0.16,0.11-0.2,0.2c-0.71-0.891-1.23-1.891-1.94-2.761
				c-0.13-0.17-0.45-0.04-0.43,0.181c0.12,1.029,0.62,2.01,1.32,2.899c-0.13-0.069-0.261-0.149-0.4-0.21
				c-0.17-0.09-0.32-0.08-0.45-0.02c-0.45-1.08-0.72-2.25-1.04-3.351c-0.08-0.27-0.47-0.21-0.479,0.07
				c-0.04,1.17,0.17,2.28,0.56,3.33c-0.069,0.05-0.12,0.11-0.17,0.19c-0.13-0.131-0.26-0.25-0.399-0.37
				c-0.33-1.641-0.49-3.33-0.83-5.05c-0.051-0.261-0.44-0.29-0.54-0.07c-0.091,0.02-0.16,0.07-0.2,0.18
				c-0.4,1.141-0.61,2.51-0.601,3.87c-0.18-0.35-0.67-0.3-0.829-0.02c-0.03,0.01-0.07,0.02-0.101,0.029
				c-0.12-1.68,0.12-3.3,0.26-4.979c0.03-0.25-0.359-0.351-0.47-0.13c-1.04,2.12-0.96,4.569-0.59,6.84
				c-0.14-0.021-0.271-0.05-0.35-0.061c-0.221-0.029-0.36,0.16-0.381,0.351c-0.149-0.03-0.29-0.061-0.439-0.09
				c-0.18-1.69-0.05-3.45-0.19-5.141c-0.02-0.279-0.439-0.37-0.51-0.069c-0.36,1.63-0.51,3.46-0.28,5.22
				c-0.109,0.09-0.17,0.24-0.16,0.38c-0.14-0.03-0.27-0.06-0.399-0.07c-0.07-1.6,0.31-3.649,0.22-4.39
				c-0.02-0.19-0.24-0.271-0.359-0.1c-0.48,0.699-0.86,2.71-0.721,4.409c-0.229,0-0.46,0.011-0.68,0.04
				c0.02-0.41,0.07-0.83,0.18-1.27c0.221-0.87,0.51-1.73,0.601-2.63c0.029-0.24-0.311-0.28-0.42-0.11
				c-0.41,0.61-0.87,1.55-1.171,2.55c-0.01,0.05-0.029,0.101-0.039,0.15c0-0.021,0.01-0.05,0.01-0.07c0.05-0.27,0.09-0.55,0.12-0.81
				c0.02-0.25,0.01-0.49,0.02-0.7c0-0.01,0-0.021-0.01-0.04c-0.021-0.19-0.28-0.3-0.38-0.11c-0.32,0.62-0.58,1.36-0.681,2.101
				c-0.029-0.16-0.069-0.311-0.109-0.471c-0.36-1.609-0.891-3.17-1.86-4.5c-0.12-0.17-0.399-0.079-0.34,0.141
				c0.57,2.06,1.25,4.08,1.77,6.16c-0.21-0.051-0.409-0.09-0.609-0.141c-1.32-1.68-1.17-3.93-2.4-5.699
				c-0.08-0.11-0.25-0.101-0.3,0.01c-0.12-0.13-0.37-0.09-0.36,0.12c0.04,1.42,0.011,2.84-0.04,4.25
				c-0.359-0.11-0.72-0.21-1.069-0.29c0.12-1.09,0.22-2.181,0.31-3.25c0.01-0.101-0.04-0.16-0.12-0.19
				c0.351-0.99,0.551-2,0.511-2.939c-0.011-0.23-0.351-0.36-0.46-0.131c-0.48,1.03-0.761,2.15-1.141,3.23
				c-0.03,0.03-0.05,0.07-0.06,0.12c-0.021,0.05-0.03,0.1-0.04,0.149c-0.061,0.141-0.11,0.29-0.17,0.44
				c-0.061,0.12-0.11,0.24-0.17,0.36c-0.091-0.11-0.301-0.141-0.37,0.02c-0.101,0.22-0.221,0.44-0.34,0.66
				c-0.011,0.01,0,0.02,0,0.02c-0.101,0.171-0.2,0.32-0.311,0.49c-0.17,0.311-0.37,0.62-0.55,0.931
				c-0.14,0.229-0.28,0.47-0.41,0.699c-0.04-1.47-0.17-2.949-0.51-4.39c-0.08-0.36-0.69-0.39-0.75,0c-0.22,1.43-0.24,2.88-0.23,4.33
				c-0.06,0-0.13,0.01-0.2,0.02c-0.18,0.04-0.37,0.08-0.55,0.13c0.26-2.01,0.42-4.029,0.57-5.97c0.04-0.43-0.57-0.45-0.7-0.1
				c-0.72,2.01-1.06,4.109-1.42,6.2c-0.13-0.19-0.25-0.4-0.33-0.49c-0.26-0.271-0.56-0.5-0.89-0.65c0.56-1.729,1.52-3.34,2.04-5.1
				c0.08-0.26-0.33-0.45-0.46-0.19c-0.78,1.65-1.7,3.351-2.21,5.13c-0.13-0.01-0.27-0.01-0.41,0c0.43-1.47,0.87-2.93,1.15-4.43
				c0.04-0.26-0.31-0.45-0.45-0.189c-0.42,0.789-0.79,1.6-1.12,2.43c-0.06-0.391-0.12-0.771-0.19-1.15
				c-0.04-0.229-0.4-0.17-0.4,0.061c-0.02,0.819,0.01,1.649,0.07,2.479c-0.14,0.41-0.27,0.811-0.4,1.22
				c-0.12,0.061-0.24,0.12-0.36,0.19c-0.03-0.65-0.04-1.31-0.03-1.97c0.02-0.57,0.06-1.15,0.12-1.721
				c0.28-0.579,0.57-1.159,0.86-1.739c0.13-0.271-0.2-0.55-0.43-0.33c-0.08,0.09-0.16,0.18-0.24,0.26c-0.07-0.13-0.23-0.2-0.34-0.11
				c-0.05-0.1-0.15-0.17-0.26-0.18c0.34-0.75,0.65-1.51,0.92-2.28c0.09-0.26-0.28-0.489-0.46-0.27c-1.84,2.24-3.18,5.06-4.33,7.75
				c0.07-0.64,0.12-1.28,0.15-1.93c0.26-0.641,0.5-1.29,0.66-1.971c0.07-0.31-0.3-0.54-0.54-0.31c-1.21,1.13-1.92,2.52-2.42,4.06
				c0.28-1.859,0.51-3.72,0.65-5.58c0.02-0.33-0.45-0.359-0.55-0.08c-0.74,2.12-1.2,4.351-1.51,6.62
				c-0.12-0.13-0.26-0.229-0.42-0.279c0.35-1.301,0.69-2.61,0.62-3.91c-0.02-0.32-0.42-0.431-0.59-0.16
				c-0.52,0.79-0.87,1.71-1.1,2.68c-0.02-0.029-0.03-0.06-0.05-0.09c0.56-1.56,1.09-3.13,1.46-4.729c0.05-0.21-0.26-0.37-0.36-0.15
				c-0.76,1.58-1.53,3.229-2.21,4.91c-0.04,0.069-0.07,0.149-0.09,0.24c-0.17,0.43-0.34,0.869-0.5,1.31
				c-0.01,0.01-0.02,0.03-0.04,0.05c-0.03-0.01-0.06-0.01-0.09-0.01c-0.02-0.39-0.07-0.771-0.16-1.12c0.54-1.16,1.12-2.31,1.46-3.56
				c0.06-0.2-0.23-0.33-0.33-0.15c-0.54,1-1.11,2.021-1.61,3.07c-0.05-0.011-0.11,0-0.17,0.01c0.45-1.771,0.86-3.56,1.21-5.36
				c0.05-0.25-0.28-0.33-0.37-0.1c-0.92,2.26-1.56,4.61-2.21,6.96c-0.1-0.22-0.24-0.42-0.43-0.59c0.02-0.061,0.03-0.13,0.04-0.19
				c0.34-1.2,0.66-2.399,0.93-3.609c0.11-0.471-0.52-0.61-0.7-0.19c-0.28,0.68-0.55,1.37-0.8,2.07c-0.04,0.02-0.09,0.05-0.13,0.09
				c-0.43,0.47-0.7,1.1-0.84,1.79c-0.35,0.41-0.53,1.14-0.63,1.81h-0.06c0.07-0.47,0.16-0.939,0.27-1.41
				c0.42-1.869,1.32-3.63,1.63-5.52c0.05-0.33-0.39-0.72-0.66-0.38c-0.4,0.51-0.76,1.09-1.08,1.71c-0.74,0.75-1.4,1.61-1.95,2.56
				c0.37-0.91,0.76-1.81,0.98-2.76c0.08-0.33-0.32-0.58-0.57-0.33c-0.83,0.8-1.4,1.87-1.84,3.01c0.38-1.699,0.9-3.47,0.83-5.13
				c-0.01-0.33-0.47-0.59-0.72-0.29c-0.01,0.021-0.03,0.04-0.05,0.061c-0.08-0.01-0.17,0.01-0.25,0.09
				c-0.41,0.49-0.75,1.05-1.05,1.64c0,0,0,0,0,0.011c-0.93,1.68-1.54,3.5-1.99,5.38c-0.03-0.37-0.07-0.74-0.11-1.11
				c0.13-2.01,0.62-3.98,1.08-5.94c0.06-0.26-0.26-0.38-0.41-0.17c-0.71,1.011-1.19,2.13-1.49,3.301
				c-0.06,0.149-0.12,0.31-0.18,0.47c0.1-0.46,0.2-0.91,0.28-1.37c0.06-0.37-0.37-0.54-0.59-0.25c-0.59,0.77-1,1.68-1.26,2.65
				c0.01-0.08,0.03-0.16,0.04-0.24c0-0.01,0-0.01,0-0.021c0.25-1.35,0.58-2.689,0.72-4.05c0.03-0.3-0.4-0.37-0.53-0.149
				c-1.1,1.84-1.58,4.039-1.72,6.279h-0.14c0.08-2.1,0.28-4.24,0.04-6.29c-0.05-0.41-0.56-0.479-0.72-0.09
				c-0.63,1.5-0.73,3.25-0.69,4.96c-0.14-1.12-0.34-2.229-0.69-3.28c-0.09-0.29-0.59-0.359-0.64,0c-0.19,1.33-0.2,2.721-0.09,4.131
				c-0.16,0.189-0.27,0.42-0.3,0.659c-0.01,0.04-0.01,0.07-0.01,0.101c-0.06-0.12-0.11-0.24-0.17-0.36
				c-0.04-0.07-0.11-0.12-0.18-0.149c-0.35-1.62-0.78-3.23-1.49-4.671c-0.12-0.26-0.49-0.14-0.53,0.11
				c-0.05-0.37-0.1-0.729-0.17-1.09c-0.04-0.23-0.42-0.23-0.47,0c-0.39,2.12-0.06,4.44,0.47,6.64c-0.03,0.07-0.07,0.141-0.09,0.2
				c-0.59-1.43-1.06-2.91-1.65-4.33c-0.1-0.25-0.5-0.24-0.49,0.061c0.03,1.37,0.42,2.67,0.92,3.93c-0.13,0.01-0.25,0.04-0.36,0.07
				c-0.52-1.471-1-2.96-1.65-4.38c-0.06-0.141-0.2-0.171-0.32-0.131c-0.4-1.38-0.9-2.71-1.55-3.939c-0.14-0.25-0.47-0.061-0.43,0.18
				c0.38,2.58,1.09,5.12,1.76,7.66c-0.4-0.46-0.81-0.9-1.25-1.32c-0.03-0.029-0.06-0.05-0.09-0.06c-0.07-1.05-0.22-2.09-0.56-3.05v6
				l0.59,0.34c0-0.28,0.01-0.55,0.01-0.83v-0.36c0.15,0.32,0.31,0.63,0.48,0.931c-0.15,0.06-0.29,0.159-0.41,0.3l6.83,3.939
				l1.11,0.65l0.22,0.13l0.78,0.45l0.82,0.47l3.45,2l0.4,0.23l0.09,0.05l0.64,0.37l0.16,0.09l1.94,1.11l0.17,0.1l0.42,0.25
				l0.26,0.15l0.43,0.25l1.24,0.72l0.16,0.09l1.14,0.66l0.57,0.33l0.57,0.33l1.85,1.06l0.33,0.2l0.49,0.28l0.39,0.22l5.09,2.95
				l0.39,0.22l0.3,0.17l1.55,0.9l0.6,0.35l0.5,0.29l1.3,0.75l0.87,0.51l0.49,0.28l0.05,0.03l0.96,0.55l0.1,0.06l1.01,0.58l0.04,0.03
				l0.24,0.14l1.69,0.971l0.13,0.08l1.81,1.04l0.65,0.38l3.05,1.76l0.729-0.42l0.971-0.561l1.35-0.779l0.65-0.37l1.819-1.05
				l0.11-0.061l1.45-0.84l0.43-0.25l0.01-0.01l1.11-0.641l1.15-0.659l0.43-0.25l0.9-0.521l0.449-0.26l0.15-0.09l1.19-0.69l0.38-0.22
				l0.239-0.13l1.54-0.9l0.061-0.03l0.25-0.14l0.38-0.22l4.62-2.67l0.96-0.561l1.71-0.979L78.933,104.508z M93.734,87.708
				c0.04,0.13,0.08,0.25,0.119,0.38c-0.109,0.7-0.14,1.42-0.13,2.15c-0.02,0-0.04-0.011-0.06-0.011
				C93.704,89.388,93.713,88.548,93.734,87.708z M16.403,89.598c-0.07-0.37-0.14-0.739-0.2-1.12c-0.05-0.289-0.08-0.569-0.11-0.859
				c0.12,0.649,0.26,1.3,0.42,1.939C16.474,89.569,16.434,89.588,16.403,89.598z M47.083,86.619c-1.06,1.51-1.81,3.27-2.37,5.12
				h-0.23c0.77-2.03,1.82-3.95,2.76-5.91C47.184,86.088,47.133,86.348,47.083,86.619z M58.433,90.399
				c-0.109-0.021-0.21-0.03-0.319-0.051c0.08-0.39,0.149-0.779,0.22-1.159c0.17-0.33,0.34-0.66,0.49-1
				C58.704,88.918,58.564,89.659,58.433,90.399z M60.893,91.098c-0.01-0.71-0.04-1.409-0.09-2.109c0.19,0.85,0.46,1.68,0.851,2.439
				C61.404,91.308,61.154,91.199,60.893,91.098z"/>
			<path fill="#4F9E59" d="M4.083,119.338c0.13,0.05,0.28,0.05,0.4,0C4.343,119.348,4.213,119.348,4.083,119.338z"/>
			<path fill="#4F9E59" d="M72.303,92.659c-0.01-0.09-0.04-0.17-0.09-0.23c0.021-0.09,0.04-0.18,0.061-0.27
				c0.029,0.05,0.06,0.1,0.09,0.149v0.07c0.02,0.14,0.02,0.25,0.02,0.34C72.353,92.699,72.333,92.678,72.303,92.659z"/>
			<path fill="#4F9E59" d="M95.664,86.739c-0.05,0.12-0.09,0.239-0.14,0.35c0.069-0.27,0.14-0.55,0.22-0.83
				C95.713,86.418,95.683,86.579,95.664,86.739z"/>
		</g>
		<g>
			<g>
				<path fill="#15013D" d="M51.889,37.009c-0.829,0.783-1.137,1.757-0.951,2.874c0.146-0.191,0.292-0.384,0.438-0.576
					c-3.884,0.03-0.303,5.726-0.06,7.412c0.084,0.58,0.962,0.332,0.878-0.242c-0.162-1.127-3.089-6.242-0.818-6.259
					c0.319-0.003,0.486-0.288,0.439-0.577c-0.136-0.824,0.138-1.439,0.718-1.987C52.962,37.25,52.315,36.605,51.889,37.009
					L51.889,37.009z"/>
			</g>
		</g>
		<g>
			<g>
				<path fill="#15013D" d="M51.134,45.157c0.325,0.437,0.861,0.765,0.942,1.333c0.034,0.247,0.344,0.378,0.56,0.319
					c0.262-0.072,0.354-0.315,0.318-0.561c-0.101-0.702-0.643-1.028-1.033-1.552c-0.148-0.199-0.391-0.301-0.624-0.164
					C51.102,44.648,50.986,44.957,51.134,45.157L51.134,45.157z"/>
			</g>
		</g>
		<g>
			<g>
				<path fill="#15013D" d="M52.138,37.649c0.995-0.567,1.835-1.353,2.813-1.947c1.877-1.141,3.179,0.442,4.17,1.858
					c1.365,1.951,3.786,2.938,6.125,2.338c0.568-0.146,0.326-1.025-0.243-0.879c-1.956,0.502-3.925-0.329-5.095-1.918
					c-0.729-0.99-1.324-1.93-2.469-2.479c-2.181-1.049-4.076,1.279-5.76,2.24C51.167,37.153,51.627,37.94,52.138,37.649
					L52.138,37.649z"/>
			</g>
		</g>
		<g>
			<g>
				<path fill="#15013D" d="M50.951,45.366c1.101,0.158,4.193,2.715,4.813,0.669c0.172-0.564-0.708-0.803-0.878-0.242
					c-0.145,0.475-3.19-1.234-3.694-1.306C50.619,44.405,50.371,45.283,50.951,45.366L50.951,45.366z"/>
			</g>
		</g>
		<g>
			<g>
				<path fill="#15013D" d="M54.961,45.808c0.21,0.849,0.66,1.749,1.257,2.388c0.277,0.295,0.635,0.474,1.041,0.396
					c0.463-0.086,0.675-0.648,0.785-1.038c0.157-0.566-0.722-0.808-0.88-0.243c-0.041,0.146-0.083,0.275-0.162,0.404
					c-0.009,0.014,0.043-0.012,0.075,0.001c-0.217-0.094-0.368-0.338-0.495-0.524c-0.328-0.489-0.601-1.055-0.742-1.628
					C55.702,44.994,54.822,45.237,54.961,45.808L54.961,45.808z"/>
			</g>
		</g>
		<g>
			<g>
				<path fill="#15013D" d="M57.756,47.965c0.308,0.017,0.601,0.134,0.911,0.151c-0.131-0.075-0.262-0.149-0.393-0.224
					c0.08,0.107,0.16,0.205,0.259,0.296c0.082,0.076,0.21,0.142,0.272,0.235c0.154,0.236,0.508,0.318,0.715,0.092
					c0.202-0.219,0.322-0.454,0.42-0.732c0.199-0.556-0.683-0.792-0.877-0.242c-0.045,0.128-0.095,0.229-0.187,0.33
					c0.239,0.03,0.477,0.061,0.716,0.092c-0.156-0.238-0.405-0.426-0.604-0.624c-0.149-0.15-0.353-0.125-0.544-0.166
					c-0.23-0.049-0.451-0.106-0.689-0.119C57.168,47.02,57.171,47.932,57.756,47.965L57.756,47.965z"/>
			</g>
		</g>
		<g>
			<g>
				<path fill="#15013D" d="M59.577,48.358c0.399,0.187,0.752,0.613,1.173,0.73c0.323,0.089,0.721-0.086,0.995-0.243
					c0.648-0.372,1.021-1.15,1.343-1.79c0.262-0.523-0.524-0.986-0.787-0.46c-0.224,0.445-0.447,0.896-0.785,1.268
					c-0.101,0.109-0.404,0.398-0.572,0.29c-0.308-0.196-0.573-0.427-0.905-0.582C59.507,47.325,59.044,48.111,59.577,48.358
					L59.577,48.358z"/>
			</g>
		</g>
		<g>
			<g>
				<path fill="#15013D" d="M65.259,40.642c0.069-0.495,0.21-0.88,0.566-1.166c-0.254-0.148-0.508-0.295-0.762-0.444
					c-0.487,1.768-1.402,3.297-2.055,4.988c-0.634,1.638-0.971,3.361-1.636,4.992c-1.269,3.108-2.858,6.904-5.229,9.339
					c-0.412,0.421,0.232,1.066,0.644,0.645c2.277-2.338,3.738-5.795,5.04-8.742c0.718-1.624,1.197-3.276,1.695-4.976
					c0.608-2.074,1.841-3.9,2.42-6.003c0.13-0.476-0.426-0.713-0.762-0.443c-0.268,0.214-0.718,0.971-0.801,1.567
					C64.298,40.975,65.178,41.222,65.259,40.642L65.259,40.642z"/>
			</g>
		</g>
		<g>
			<g>
				<path fill="#15013D" d="M56.662,58.69c-0.101-0.025-0.202-0.051-0.304-0.077c-0.409-0.102-0.819,0.46-0.442,0.761
					c1.515,1.216,3.263,2.196,4.931,3.179c0.557,0.329,3.386,2.391,4.068,1.53c0.36-0.455-0.279-1.104-0.645-0.643
					c0.161-0.205,0.204-0.058-0.166-0.193c-0.356-0.132-0.699-0.322-1.038-0.497c-0.877-0.454-1.728-0.961-2.573-1.469
					c-1.323-0.795-2.727-1.583-3.934-2.551c-0.147,0.254-0.297,0.508-0.444,0.762c0.102,0.025,0.203,0.05,0.306,0.076
					C56.991,59.711,57.232,58.833,56.662,58.69L56.662,58.69z"/>
			</g>
		</g>
		<g>
			<g>
				<path fill="#15013D" d="M65.427,63.837c0.039-0.665,0.353-1.328,0.55-1.962c0.058-0.186,0.103-0.379,0.15-0.568
					c0.026-0.102,0.053-0.2,0.082-0.3c0.062-0.225,0.187-0.266-0.086-0.175c-0.149-0.039-0.297-0.078-0.444-0.117
					c0.012,0.009,0.022,0.018,0.034,0.027c0.45,0.369,1.099-0.272,0.644-0.644c-0.633-0.519-0.935,0.331-1.067,0.813
					c-0.266,0.955-0.715,1.938-0.773,2.926C64.481,64.425,65.392,64.422,65.427,63.837L65.427,63.837z"/>
			</g>
		</g>
		<g>
			<g>
				<path fill="#15013D" d="M66.416,60.725c0-0.101,0-0.203,0-0.304c-0.3,0.041-0.598,0.08-0.896,0.122
					c0.308,1.093,3.593,4.704,2.472,5.633c-0.453,0.375,0.196,1.016,0.645,0.644c1.916-1.587-1.806-4.99-2.236-6.519
					c-0.141-0.495-0.895-0.396-0.895,0.121c0,0.102,0,0.203,0,0.304C65.504,61.312,66.416,61.312,66.416,60.725L66.416,60.725z"/>
			</g>
		</g>
		<g>
			<g>
				<path fill="#15013D" d="M68.543,66.408c-2.388-1.827-6.265-1.18-9.09-1.384c-2.909-0.208-6.271-0.092-8.091,2.534
					c-1.705,2.461,0.605,6.448,1.669,8.701c2.06,4.36,3.053,9.432,3.128,14.238c0.011,0.587,0.922,0.587,0.912,0
					c-0.061-3.834-0.762-7.699-1.93-11.344c-0.976-3.048-2.99-5.863-3.358-9.077c-0.46-4.019,4.504-4.31,7.311-4.163
					c1.319,0.068,2.623,0.166,3.946,0.184c1.699,0.024,3.633,0.02,5.044,1.097C68.55,67.551,69.003,66.759,68.543,66.408
					L68.543,66.408z"/>
			</g>
		</g>
		<g>
			<g>
				<path fill="#15013D" d="M60.415,74.547c-0.034,2.732,1.692,4.976,2.674,7.414c0.499,1.234,0.845,2.536,1.125,3.837
					c0.158,0.735,0.25,1.479,0.312,2.229c0.029,0.352,0.181,2.138-0.087,2.306c-0.497,0.31-0.041,1.099,0.459,0.786
					c0.644-0.402,0.543-1.533,0.565-2.19c0.055-1.593-0.304-3.227-0.698-4.759c-0.375-1.452-0.915-2.84-1.579-4.183
					c-0.854-1.73-1.884-3.449-1.859-5.439C61.333,73.959,60.422,73.96,60.415,74.547L60.415,74.547z"/>
			</g>
		</g>
		<g>
			<g>
				<path fill="#15013D" d="M65.32,86.337c-0.012-0.005-0.022-0.008-0.035-0.01c0.11,0.146,0.224,0.292,0.334,0.438
					c-0.044-0.804,0.429-1.851,0.704-2.603c0.761-2.078,1.706-3.851,3.064-5.599c0.845-1.087,1.718-2.133,2.36-3.357
					c0.746-1.429,0.82-2.957,0.82-4.532c0-0.587-0.912-0.587-0.912,0c0,1.908-0.251,3.452-1.282,5.084
					c-0.893,1.412-2.064,2.633-2.985,4.029c-0.888,1.342-1.44,2.755-1.99,4.257c-0.292,0.795-0.737,1.859-0.69,2.721
					c0.012,0.206,0.131,0.384,0.335,0.44c0.012,0.003,0.022,0.006,0.036,0.01C65.645,87.374,65.885,86.494,65.32,86.337
					L65.32,86.337z"/>
			</g>
		</g>
		<g>
			<g>
				<path fill="#15013D" d="M60.522,74.987c1.787,0.328,3.435,1.132,5.224,1.457c1.391,0.252,2.829,0.298,4.238,0.307
					c0.588,0.003,0.588-0.908,0-0.911c-1.479-0.01-2.962-0.087-4.418-0.352c-1.645-0.299-3.154-1.078-4.803-1.381
					C60.189,74.002,59.945,74.88,60.522,74.987L60.522,74.987z"/>
			</g>
		</g>
		<g>
			<g>
				<path fill="#15013D" d="M81.829,65.131c0.288,0.526,0.583,0.938,1.001,1.365c0.809,0.823,0.993,1.965,1.07,3.066
					c0.14,2.013-0.392,3.696-1.457,5.39c-1.037,1.646-2.41,3.076-3.683,4.542c-1.427,1.641-2.479,3.539-3.856,5.211
					c-0.372,0.451,0.27,1.099,0.644,0.646c1.473-1.786,2.621-3.79,4.144-5.543c1.434-1.649,2.896-3.269,4.004-5.162
					c1.013-1.732,1.222-3.562,1.086-5.534c-0.138-1.975-1.294-2.846-2.165-4.44C82.334,64.156,81.547,64.616,81.829,65.131
					L81.829,65.131z"/>
			</g>
		</g>
		<g>
			<g>
				<path fill="#15013D" d="M76.029,84.786c2.104-0.49,4.239-0.547,6.371-0.807c0.816-0.101,4.141-0.867,4.66-0.011
					c0.305,0.502,1.093,0.044,0.786-0.461c-0.741-1.225-3.182-0.702-4.31-0.578c-2.584,0.279-5.212,0.387-7.75,0.977
					C75.215,84.039,75.458,84.919,76.029,84.786L76.029,84.786z"/>
			</g>
		</g>
		<g>
			<g>
				<path fill="#15013D" d="M86.633,83.388c-0.62,2.064-0.735,4.367-1.003,6.502c-0.073,0.581,0.839,0.575,0.912,0
					c0.257-2.054,0.372-4.271,0.971-6.258C87.682,83.067,86.803,82.828,86.633,83.388L86.633,83.388z"/>
			</g>
		</g>
		<g>
			<g>
				<path fill="#15013D" d="M87.725,84.48c0.586-0.123,1.163-0.171,1.76-0.144c0.93,0.042,1.274,0.53,1.308,1.413
					c0.043,1.182-0.413,2.354-0.301,3.532c0.056,0.581,0.967,0.586,0.911,0c-0.136-1.423,0.947-3.652,0.014-4.938
					c-0.871-1.202-2.647-1.016-3.934-0.74C86.91,83.725,87.153,84.602,87.725,84.48L87.725,84.48z"/>
			</g>
		</g>
		<g>
			<g>
				<path fill="#15013D" d="M68.572,67.316c3.377,1.27,7.219,1.172,10.447-0.414c1.008-0.494,5.668-2.67,4.347-4.433
					c-0.349-0.464-1.141-0.011-0.787,0.46c0.677,0.901-3.9,3.132-4.535,3.435c-2.798,1.331-6.384,1.143-9.229,0.072
					C68.263,66.23,68.028,67.111,68.572,67.316L68.572,67.316z"/>
			</g>
		</g>
		<g>
			<g>
				<path fill="#15013D" d="M65.578,39.624c0.408,0.221,0.876,0.319,1.291,0.532c0.8,0.409-0.76,1.689-1.076,2.141
					c-0.546,0.777-0.863,1.727-1.279,2.575c-0.53,1.079-1.619,1.399-2.446,2.164c-0.433,0.398,0.214,1.042,0.644,0.644
					c0.979-0.904,1.918-1.127,2.588-2.349c0.808-1.468,1.325-2.801,2.539-4.02c1.356-1.364-0.909-1.994-1.801-2.475
					C65.519,38.558,65.059,39.344,65.578,39.624L65.578,39.624z"/>
			</g>
		</g>
		<g>
			<g>
				<path fill="#15013D" d="M67.756,40.547c2.637,0.058,4.917,2.28,6.406,4.276c1.598,2.142,2.492,4.765,3.34,7.269
					c0.744,2.193,1.204,4.444,2.237,6.529c0.777,1.572,1.167,3.456,2.914,4.244c0.531,0.24,0.996-0.546,0.46-0.788
					c-1.178-0.53-1.65-1.688-2.114-2.813c-0.443-1.066-0.979-2.085-1.35-3.18c-0.889-2.617-1.538-5.274-2.604-7.836
					c-1.538-3.704-4.792-8.513-9.29-8.612C67.168,39.623,67.169,40.534,67.756,40.547L67.756,40.547z"/>
			</g>
		</g>
		<g>
			<g>
				<path fill="#15013D" d="M57.377,59.875c-1.955-1.149-4.292,0.125-6.27,0.585c-1.552,0.36-3.592,0.556-4.958-0.359
					c-0.609-0.407-1.272-1.21-2.065-1.198c-0.586,0.008-0.587,0.92,0,0.911c0.629-0.008,1.623,1.109,2.158,1.421
					c0.92,0.539,2.209,0.419,3.215,0.345c1.151-0.086,2.227-0.303,3.326-0.639c1.286-0.395,2.87-1.021,4.136-0.278
					C57.426,60.96,57.885,60.173,57.377,59.875L57.377,59.875z"/>
			</g>
		</g>
		<g>
			<g>
				<path fill="#15013D" d="M46.591,65.281c2.406-0.008,4.797-0.095,7.095,0.744c0.552,0.201,0.791-0.68,0.241-0.879
					c-2.373-0.866-4.846-0.785-7.336-0.775C46.003,64.372,46.003,65.285,46.591,65.281L46.591,65.281z"/>
			</g>
		</g>
		<g>
			<g>
				<path fill="#15013D" d="M61.979,65.57c0.842-0.124,1.596-0.772,1.626-1.655c0.02-0.588-0.892-0.587-0.912,0
					c-0.016,0.482-0.544,0.715-0.957,0.775c-0.246,0.036-0.378,0.344-0.318,0.562C61.49,65.512,61.733,65.605,61.979,65.57
					L61.979,65.57z"/>
			</g>
		</g>
		<g>
			<g>
				<path fill="#15013D" d="M46.197,64.673c-0.454,0.708-0.938,1.389-1.501,2.013c-0.128,0.141-0.263,0.271-0.401,0.4
					c-0.08,0.075-0.028,0.101-0.12-0.073c-0.111-0.208-0.142-0.483-0.183-0.713c-0.097-0.579-0.977-0.334-0.877,0.241
					c0.1,0.579,0.438,1.788,1.29,1.5c0.565-0.189,0.964-0.726,1.332-1.169c0.457-0.549,0.863-1.14,1.249-1.741
					C47.304,64.636,46.516,64.179,46.197,64.673L46.197,64.673z"/>
			</g>
		</g>
		<g>
			<g>
				<path fill="#15013D" d="M43.674,66.817c-0.505-0.097-0.936,0.08-1.433,0.126c-0.252,0.023-0.242-0.091-0.225-0.311
					c0.018-0.249,0.084-0.492,0.093-0.743c0.022-0.589-0.889-0.585-0.911,0c-0.027,0.695-0.292,1.332,0.378,1.815
					c0.578,0.417,1.253-0.124,1.855-0.009C44.006,67.805,44.251,66.926,43.674,66.817L43.674,66.817z"/>
			</g>
		</g>
		<g>
			<g>
				<path fill="#15013D" d="M41.808,66.028c-0.424-0.222-0.727-0.505-1.045-0.858c-0.041-0.045-0.089-0.092-0.125-0.143
					c-0.08-0.107,0.017,0.017,0.003,0.072c0.043-0.168,0.185-0.348,0.268-0.499c0.284-0.516-0.503-0.975-0.787-0.459
					c-0.239,0.438-0.583,0.919-0.233,1.398c0.388,0.529,0.878,0.973,1.462,1.275C41.869,67.086,42.33,66.299,41.808,66.028
					L41.808,66.028z"/>
			</g>
		</g>
		<g>
			<g>
				<path fill="#15013D" d="M40.68,64.368c-0.216-0.29-0.5-0.568-0.643-0.905c-0.151-0.36,0.608-0.505,0.803-0.557
					c0.653-0.169,1.167-0.437,1.511-1.041c0.29-0.512-0.497-0.97-0.787-0.459c-0.424,0.748-1.404,0.551-2.01,1.081
					c-0.886,0.772-0.203,1.616,0.339,2.34C40.241,65.292,41.033,64.839,40.68,64.368L40.68,64.368z"/>
			</g>
		</g>
		<g>
			<g>
				<path fill="#15013D" d="M42.66,61.314c-0.162-0.2-0.554-0.578-0.297-0.814c0.342-0.318,0.928-0.478,1.345-0.672
					c0.531-0.25,0.068-1.036-0.46-0.788c-0.609,0.286-1.319,0.506-1.741,1.061c-0.461,0.608,0.136,1.396,0.511,1.856
					C42.387,62.415,43.027,61.767,42.66,61.314L42.66,61.314z"/>
			</g>
		</g>
		<g>
			<g>
				<path fill="#15013D" d="M41.35,59.875c-0.289,0.127-0.488,0.381-0.701,0.603c-0.142,0.148-0.177,0.373-0.072,0.553
					c0.182,0.313,0.307,0.619,0.318,0.984c0.017,0.587,0.929,0.589,0.911,0c-0.016-0.526-0.18-0.992-0.443-1.444
					c-0.022,0.184-0.046,0.369-0.069,0.552c0.16-0.167,0.297-0.366,0.514-0.46C42.347,60.427,41.881,59.641,41.35,59.875
					L41.35,59.875z"/>
			</g>
		</g>
	</g>
</g>
<g id="Layer_3">
</g>
<g id="Layer_2">
</g>
</svg>
