<?xml version="1.0" encoding="utf-8"?>
<!-- Generator: Adobe Illustrator 16.0.0, SVG Export Plug-In . SVG Version: 6.00 Build 0)  -->
<!DOCTYPE svg PUBLIC "-//W3C//DTD SVG 1.1//EN" "http://www.w3.org/Graphics/SVG/1.1/DTD/svg11.dtd">
<svg version="1.1" id="Layer_1" xmlns="http://www.w3.org/2000/svg" xmlns:xlink="http://www.w3.org/1999/xlink" x="0px" y="0px"
	 width="515.754px" height="595.279px" viewBox="39.763 123.306 515.754 595.279"
	 enable-background="new 39.763 123.306 515.754 595.279" xml:space="preserve">
<polygon fill="#22D140" points="39.763,569.766 297.407,718.585 555.517,569.766 555.517,272.125 297.407,123.306 39.763,272.125 
	"/>
<g>
	<g>
		<defs>
			<polygon id="SVGID_1_" points="156.726,177.02 15.812,420.713 156.726,664.87 438.554,664.87 579.468,420.713 438.554,177.02 			
				"/>
		</defs>
		<clipPath id="SVGID_2_">
			<use xlink:href="#SVGID_1_"  overflow="visible"/>
		</clipPath>
		<g opacity="0.13" clip-path="url(#SVGID_2_)">
			<polygon points="510.173,430.014 562.261,415.132 432.043,376.066 515.754,268.637 478.084,281.659 492.501,258.406 
				387.862,294.681 392.048,177.485 339.96,252.825 318.103,163.068 281.363,240.268 238.113,176.555 240.903,288.169 
				127.892,218.875 148.82,279.333 113.475,266.312 171.143,342.117 176.724,358.859 33.02,393.274 69.759,410.946 65.109,412.342 
				84.642,417.922 166.028,457.452 88.827,583.484 228.346,534.653 238.113,575.113 235.786,649.523 250.669,628.131 
				262.76,678.822 323.218,553.256 389.257,650.453 387.862,582.555 453.436,623.015 419.487,526.747 514.36,561.161 446.925,472.8 
				548.309,448.616 			"/>
		</g>
	</g>
	<g>
		<defs>
			<polygon id="SVGID_3_" points="156.726,177.02 15.812,420.713 156.726,664.87 438.554,664.87 579.468,420.713 438.554,177.02 			
				"/>
		</defs>
		<clipPath id="SVGID_4_">
			<use xlink:href="#SVGID_3_"  overflow="visible"/>
		</clipPath>
		<g clip-path="url(#SVGID_4_)">
			<g>
				<path fill="#A2F9A2" d="M178.119,634.177c-3.256,0-6.046-1.396-8.837-3.256c-4.65-4.186-0.93-10.231,1.396-13.487
					c0.93-1.395,2.325-3.255,2.325-4.186c0.931-5.115,2.325-6.976,6.046-9.301c0.931-0.465,1.396-0.93,2.325-0.93
					c1.396-0.931,2.791-1.396,5.581-4.186c2.325-2.326,5.581-5.581,9.301-9.767c3.721-4.186,8.371-8.836,12.092-13.022
					c7.441-7.44,7.906-13.021,8.371-20.462c0.465-4.651,1.396-7.441,2.791-11.627c0.93-3.256,2.325-7.441,4.186-13.487
					c2.79-11.161,1.395-13.021-0.466-15.347c-0.465-0.465-0.465-0.93-0.93-1.396c-1.396-2.325-5.581-4.186-8.371-4.65
					c-4.186-0.465-6.976-0.93-10.231-4.65c-0.465,0-1.86,0.465-4.65,2.79c-2.325,1.86-6.511,2.791-10.231,2.791
					c-5.116,0-9.302-2.326-10.696-6.046c-0.931-2.325-1.396-4.651-0.466-6.977c1.86-4.186,7.441-6.511,14.417-8.836
					c1.396-0.465,2.325-0.93,3.721-1.396c1.396-0.465,5.581-2.325,6.511-2.79c0,0,0-0.93,0-1.396c0-0.93,0-1.86,0.465-3.255
					c0.466-3.721-1.395-6.046-4.65-9.302c-0.465-0.465-0.93-0.93-1.395-1.395c-1.86-1.86-2.791-3.721-3.256-5.116
					c-0.93-1.396-1.396-2.79-3.721-5.581c-3.255-3.72-7.906-4.186-13.486-4.186h-1.86c-2.791,0-6.046,0.466-9.767,0.931
					c-3.255,0.465-6.511,0.93-9.767,0.93c-3.72,0-4.65,0.466-6.511,0.931c-1.395,0.465-2.79,0.93-5.58,1.395h-0.466
					c-2.79,0.466-5.58,0.931-7.905,0.931c-2.791,0-5.581-0.465-8.837-1.86c-2.325-0.93-6.046-2.79-6.511-6.046
					c-0.93-3.721,1.86-6.511,4.186-8.836c3.256-3.256,7.906-3.256,11.162-3.256c3.255,0,6.511,0.465,9.766,0.465
					c1.86,0,3.256,0.466,5.116,0.466c1.395,0,2.325,0,3.72,0c4.187,0,6.512-0.931,9.302-1.396c0.93,0,1.396-0.465,2.325-0.465
					c1.86-0.465,3.721-0.931,5.581-0.931c6.511-0.93,8.836-1.86,9.301-4.65c0.465-4.65,0-8.371-1.395-11.161
					c-4.186-7.906-19.533-12.557-40.926-12.557c-6.046,0-12.092,0.465-16.277,0.93l-2.325,0.465
					c-2.79,0.466-6.046,0.931-8.836,0.931c-2.325,0-4.186,0-5.581-0.465c-6.511-1.86-12.557-7.906-11.161-15.348
					c0.93-6.046,6.511-9.301,11.161-10.231c1.396-0.465,2.325-0.465,3.721-0.465c3.255,0,6.046,0.465,9.301,1.395
					c14.417,3.255,29.299,6.976,43.716,10.697c1.86,0.465,3.721,0.93,5.581,1.86c5.581,1.86,11.627,3.72,16.742,3.72
					c2.79,0,5.116-0.465,6.976-1.859c1.396-0.931,2.791-2.326,4.186-4.651c1.86-2.791,2.791-5.581,2.326-7.441
					c-0.466-0.465-0.931-0.93-1.396-1.396c-8.836-8.371-12.092-12.557-10.696-16.277c0.465-0.93,1.395-2.791,5.115-2.791
					c0.931,0,2.325,0,4.186,0.465c2.325,0.465,4.186,0.93,6.046,0.93c1.396,0,3.256,0,5.581-0.465l0,0
					c0-0.93-0.931-2.326-0.931-3.721c-0.465-0.93-0.93-2.325-0.93-3.255c-1.396-4.186-3.721-8.371-6.046-12.557
					c-0.93-1.395-1.86-2.791-2.79-4.65c-4.186-6.976-6.046-16.277-6.046-22.788c0-2.791,0.465-5.581,2.325-6.976
					c2.325-2.326,6.046-2.791,8.371-2.791c0.93,0,1.86,0,2.79,0h0.465c1.86,0,4.187-0.465,6.046-1.395
					c2.326-0.93,4.651-1.396,7.441-1.396s5.581,0.93,8.371,2.791c2.325,1.86,4.65,3.255,6.976,4.651c-0.93-1.86-0.93-4.186,0-7.441
					c0.931-2.79,3.256-4.186,6.512-4.186c3.255,0,7.44,1.86,13.021,5.116c3.721,0,12.092-5.116,13.021-6.976
					c0.465-0.93-0.465-2.791-0.93-4.651c-0.931-2.791-1.86-6.046-2.326-8.836c-2.79-10.696-5.58-20.928-11.161-30.229
					c-2.325-4.186-5.115-8.371-7.906-12.557c-3.721-5.581-7.44-11.162-10.231-17.207c-0.465-1.396-1.395-2.326-2.325-3.255
					c-2.79-3.721-4.65-6.511-4.186-16.277c0.465-7.441,4.186-8.836,6.511-8.836c5.116,0,10.696,6.976,13.487,11.162
					c2.79,3.721,2.79,8.371,3.255,12.092c0.466,3.72,0.466,6.976,2.326,9.766c16.276,22.788,30.693,33.95,41.855,33.95
					c0.93,0,1.395,0,2.325,0c0-4.65-0.931-9.767-1.86-14.882c-2.325-11.162-4.65-22.323-6.511-33.485l-3.256-16.742
					c-0.93-3.72,0.931-7.906,4.65-9.301c2.326-1.395,5.116-1.86,7.906-1.86c9.302,0,18.603,7.906,20.463,18.138
					c1.396,7.441-0.931,14.417-2.79,21.393c-1.86,6.511-3.721,12.557-2.326,18.603c1.396,5.581,5.581,10.231,10.697,13.022
					l15.347,1.395c9.767-4.186,14.882-16.277,11.161-26.508c-0.93-2.326-0.465-4.651,0.931-6.976s3.721-3.721,6.046-3.721
					c0.465,0,0.93,0,1.395,0c10.697,0,16.743,8.836,17.208,23.718c0,7.906,2.79,12.092,8.371,12.557c0.465,0,0.465,0,0.93,0
					c3.256,0,5.116-1.86,6.046-3.256l0,0c0.465-0.93,0.931-1.395,1.396-2.325c0.465-1.395,0.93-2.791,0.93-4.186
					c0-3.255,1.396-6.046,4.186-7.441c1.396-3.255,2.791-6.976,4.651-9.766c3.255-3.721,6.511-7.441,11.161-7.441
					c1.86,0,3.721,0.465,5.115,1.396c1.396,0.93,2.326,2.325,2.791,3.72c0.93,4.651-2.325,10.697-6.977,17.672l-0.93,1.86
					c-2.325,3.721-6.976,12.092-10.696,19.998c-1.396,2.326-2.791,5.116-3.721,6.976c12.092,0.465,23.253,6.046,30.229,14.882
					c2.79,3.256,5.115,7.441,6.976,11.162c3.255,6.046,6.511,11.626,11.626,14.882c1.396,0.93,2.791,1.395,4.187,1.395
					c2.79,0,5.58-2.325,8.836-4.651c3.255-2.79,6.976-5.581,11.626-6.976c1.396-0.465,2.326-0.465,3.721-0.465
					c8.371,0,14.417,5.581,14.882,13.487c0.466,10.231-7.905,16.742-16.276,19.067c-3.256,0.93-6.046,0.93-9.302,1.396
					c-2.325,0-5.115,0.465-7.441,0.93c-1.859,0.465-3.72,0.93-6.045,1.395c0.93,2.791,1.395,5.581,1.859,8.371
					c0.931,6.046,0.466,12.557-0.93,18.138c0.465,0.93,1.396,1.86,2.79,2.325c1.86,0.93,4.186,1.86,6.511,1.86
					c6.046,0,12.558-3.721,18.138-7.441c1.396-0.93,2.325-1.86,3.721-2.326c6.976-4.65,13.952-9.301,22.323-11.161
					c2.325-0.465,5.115-0.93,7.44-0.93c6.512,0,12.092,1.86,15.813,6.045c3.256,2.791,4.65,6.976,5.115,11.162
					c0,3.721-1.395,7.441-4.186,10.231c-5.58,5.581-13.951,5.581-20.928,6.046h-1.86c-0.93,0-2.325,0.465-3.255,0.465
					c-0.465,0-1.396,0-1.86,0c-8.836,0.465-17.207,1.396-26.044,3.255c0.931,0.93,1.396,1.86,1.86,2.791
					c0.931,2.326,1.396,6.045-1.395,10.697c-3.721,5.58-9.767,8.371-19.067,8.371c-4.187,0-8.372-0.465-11.627-0.931l-2.325-0.465
					c0,3.256-0.931,6.511-1.86,9.767c0.465,0.465,0.93,0.93,1.396,1.86c6.511,1.395,13.486,1.86,20.462,1.86
					c5.581,0,10.697-0.466,16.277-1.396c0.931,0,2.325-0.465,3.256-0.465c3.721-0.465,6.976-1.396,10.696-1.396
					c4.186,0,7.906,0.931,10.696,2.79c6.046,3.721,10.696,11.627,7.906,19.533c-1.396,4.186-5.115,9.301-13.952,9.301
					c-6.511,0-13.952-2.79-19.997-5.115c-1.86-0.465-3.256-1.396-4.651-1.86c-0.465,0-1.395-0.465-1.86-0.465c0,0-0.465,0-0.93,0
					c-5.115-0.931-10.231-1.86-15.813-1.86c-5.115,0-9.766,0.465-14.882,1.395c-0.465,0.466-0.93,0.931-1.395,1.396
					c-3.721,3.256-7.441,4.65-11.627,6.511c-2.325,0.931-4.65,1.86-6.976,3.256c-5.116,3.255-4.186,6.511-0.931,14.882
					c0.931,2.325,1.86,4.65,2.325,6.976c8.371,7.906,17.208,14.417,26.974,19.998c9.302,5.116,19.533,9.767,32.09,13.487
					c4.65,1.395,9.301,2.325,13.951,3.72c6.512,1.396,13.022,2.791,19.533,5.581c8.371,3.256,16.277,11.161,14.417,21.393
					c-1.396,8.837-10.231,13.952-18.138,13.952l0,0c-8.836,0-16.742-5.115-23.253-9.301c-1.396-0.931-3.256-1.86-4.65-2.791
					c-9.767-6.046-19.998-12.092-30.229-17.672c-12.557-6.977-26.044-13.952-39.53-20.463c-0.465,1.86-0.93,3.721-1.396,5.581
					c-0.465,1.395-1.395,3.255-2.325,4.65c1.396,0.93,3.256,1.395,5.116,1.86c1.86,0.465,3.72,1.395,5.58,2.325
					c5.581,2.79,10.231,8.371,10.696,14.417c0.466,4.186-0.93,8.371-4.186,11.161c-2.325,2.325-5.115,3.256-8.371,3.256
					c-6.046,0-11.161-4.651-15.347-8.837c3.256,4.651,6.976,9.302,11.161,13.022c0.931,0.93,2.326,1.86,3.256,2.79
					c4.65,3.721,9.767,7.906,10.696,15.347c0.465,3.721-0.465,7.906-2.79,10.697c-2.325,2.79-5.116,4.186-8.836,4.65
					c-0.466,0-1.396,0-1.86,0c-15.813,0-25.114-21.858-30.229-33.484l-0.465-1.396c-2.325-5.581-4.65-11.627-7.906-17.207
					c-1.396,0.465-3.256,1.395-4.65,1.86c-4.186,1.86-8.371,4.65-12.557,6.976c-5.116,3.256-10.696,6.511-16.277,8.836
					c2.325,3.721,5.115,7.906,8.371,11.627c1.86,2.325,3.721,4.65,5.115,6.976c8.371,12.557,9.302,25.579,2.326,35.811
					c-1.396,1.859-3.721,3.255-6.046,3.255c-2.326,0-4.186-0.93-5.581-2.325c-7.441-8.371-11.162-18.138-14.882-27.903
					c-0.466-1.396-1.396-3.256-1.86-4.651c-3.256-8.836-6.977-14.882-11.627-18.603c-4.186-0.93-8.836-2.325-12.557-4.186
					c-0.465,0-0.465,0-0.93,0s-0.93,0-1.396,0c0,1.86,1.396,3.721,4.65,6.511c1.86,1.86,4.186,3.256,5.581,5.581
					s1.396,5.116,0,7.441s-4.186,4.186-7.44,4.186c-0.466,0-1.396,0-1.86,0c-5.116-1.396-6.977-2.791-9.302-4.651
					c-2.79-2.325-6.046-4.186-9.766-5.115l0,0c-2.326-0.465-4.651-3.256-5.581-4.65l0,0c-1.396-1.396-1.396-2.791-1.86-4.186
					c0,0,0,0,0-0.465l0,0c-2.79-2.326-11.627-5.116-20.463-6.046c-0.93,0-1.396,0-2.325,0c-4.186,0-6.046,1.395-7.441,2.79
					c-3.255-2.79-3.72-2.79-4.186-2.325c-0.465,0.465-0.93,0.465-1.395,0.93c-0.931,0.931-3.721,2.326-3.721,3.256
					c-0.465,1.396-1.396,3.255-2.325,5.115c-1.396,2.326-2.791,5.116-3.721,7.906c-1.86,6.046-5.115,11.162-11.627,16.277
					c-4.65,3.721-10.696,11.627-13.951,16.277l-1.396,1.86c-2.79,3.721-6.511,10.231-7.906,13.486
					c-1.396,3.256-4.186,6.977-9.301,11.627C184.63,632.781,181.374,634.177,178.119,634.177z"/>
				<path fill="#2F8030" d="M294.385,195.622c7.905,0,15.347,6.976,16.742,15.347c2.79,13.952-8.837,26.508-5.116,39.996
					c1.86,6.976,6.976,12.557,13.487,15.812l16.742,1.395l0,0c12.557-4.65,18.603-19.533,13.951-31.624
					c-0.93-2.791,1.396-5.581,3.721-5.581c0.465,0,0.931,0,0.931,0c10.696,0,13.486,11.162,13.486,19.998
					c0,7.441,2.79,14.882,11.627,15.812c0.465,0,0.465,0,0.93,0c3.721,0,6.976-1.86,8.836-4.651c0.466-0.93,0.931-1.86,1.86-2.79
					c0.931-1.86,1.396-4.186,1.396-6.046c0-2.325,1.396-3.721,3.256-4.186c1.395-3.721,2.79-7.441,4.65-10.231
					c2.79-3.721,5.58-6.046,8.371-6.046c0.93,0,2.325,0.465,3.255,0.93c4.186,2.791-2.79,12.557-6.046,18.137
					c-3.72,5.581-12.557,23.718-16.276,30.694c-0.466,0.465-0.931,1.395-0.931,1.86c1.396,0,2.325,0,3.721,0
					c11.161,0,22.323,4.65,29.764,13.487c6.977,8.371,9.767,21.393,19.533,26.974c2.325,1.395,4.186,1.86,6.046,1.86
					c7.906,0,13.021-9.767,21.393-11.627c0.93,0,1.86-0.465,2.79-0.465c5.581,0,10.696,3.72,11.162,10.231
					c0.465,7.906-6.511,13.487-13.487,15.347c-5.58,1.395-11.161,0.93-16.277,1.86c-3.255,0.465-6.511,1.396-9.766,2.791
					c1.395,3.721,2.325,6.976,2.79,10.696c0.93,6.046,0.465,12.557-1.396,18.138c0.931,1.86,2.325,3.721,4.651,5.116
					c2.79,1.395,5.58,1.86,7.905,1.86c6.977,0,14.417-4.186,19.998-7.906c7.906-5.116,15.347-11.162,25.113-13.022
					c2.325-0.465,4.186-0.93,6.511-0.93c5.116,0,9.767,1.395,13.487,5.115c4.65,4.186,5.115,11.627,0.465,15.813
					c-5.115,5.116-13.486,4.65-19.998,4.65l0,0c-0.93,0-1.86,0.465-2.79,0.465c-0.465,0-1.396,0-1.86,0
					c-9.301,0.465-18.138,1.395-26.974,3.255c-2.79,0.465-5.581,0.93-7.906,1.86c6.046,1.86,10.231,6.976,6.046,13.021
					c-3.255,5.116-9.766,6.511-16.277,6.511c-5.115,0-10.231-0.93-13.951-1.395c-1.396,0-2.791-0.466-3.721-0.466
					c0.465,5.116-0.465,10.231-2.791,14.883c1.396,0.93,2.326,2.325,3.256,3.72c7.441,1.396,14.882,2.325,22.788,2.325
					c5.581,0,11.161-0.465,16.742-1.395c4.186-0.931,9.302-1.86,13.487-1.86c3.255,0,6.046,0.465,8.836,2.325
					c4.65,2.79,8.371,9.301,6.046,14.882c-1.86,5.116-5.581,6.977-10.231,6.977c-7.441,0-17.207-4.651-23.719-6.977
					c-0.465,0-1.395-0.465-1.859-0.465c-0.466,0-0.931-0.465-1.396-0.465c-5.581-0.931-10.696-1.86-16.277-1.86
					s-11.161,0.465-16.742,1.86c-0.465,0.93-1.396,1.395-1.86,1.86c-5.115,4.65-12.092,5.58-17.672,9.301
					c-8.372,5.116-5.116,12.092-2.326,19.533c0.931,2.325,1.86,4.65,2.326,6.976c8.371,8.371,18.137,15.347,28.368,21.393
					s21.394,10.231,33.02,13.952c10.696,3.255,22.323,5.115,33.02,8.836c6.976,2.791,13.952,8.836,12.557,17.207
					c-1.396,6.512-7.906,10.697-14.417,10.697c0,0,0,0-0.465,0c-9.302,0-18.138-7.441-25.578-12.092
					c-10.231-6.046-19.998-12.092-30.229-17.673c-14.417-7.906-28.834-15.347-43.716-22.788c-0.465,0.466-0.465,0.466-0.931,0.466
					c0,2.79-0.465,5.58-1.859,8.836c-0.931,2.79-2.326,4.65-4.186,6.976c4.186,3.721,9.301,4.186,14.417,6.976
					c6.511,3.256,13.021,13.022,5.58,19.533c-1.86,1.86-4.186,2.325-6.046,2.325c-6.511,0-12.557-7.906-16.742-12.557
					c-2.79-3.256-5.115-6.046-7.906-9.302c-0.93,0.466-1.86,0.931-2.79,1.396c4.65,11.627,11.627,21.858,20.463,30.694
					c5.115,4.65,12.092,8.371,13.021,15.813c0.465,5.58-2.79,10.696-8.371,11.626c-0.465,0-0.93,0-1.396,0
					c-13.951,0-22.788-21.857-27.438-32.554c-2.79-6.046-6.046-13.952-10.231-20.463c-2.79,0.93-5.115,1.86-7.44,3.255
					c-10.696,5.116-20.928,13.487-32.09,17.207c3.256,8.372,11.162,15.813,15.348,22.323c6.511,9.302,9.301,21.858,2.325,31.625
					c-0.931,0.93-1.86,1.859-3.256,1.859c-0.93,0-2.325-0.465-3.255-1.395c-8.371-9.302-11.627-20.463-16.277-31.625
					c-2.791-7.44-6.977-15.812-13.021-20.928c-4.651-0.93-9.302-2.325-13.487-4.186c-0.465,0-0.465,0-0.93,0h-0.465
					c-1.396,0-2.326-0.465-3.256-1.395c-6.511,9.766,5.581,13.021,8.836,19.067c1.86,2.79-0.93,6.046-4.186,6.046
					c-0.465,0-0.465,0-0.93,0c-4.65-0.931-6.046-2.325-7.906-3.721c-3.256-2.79-6.976-5.115-11.161-6.046l0,0
					c-1.396,0-3.721-3.721-3.721-3.721c-1.396-1.395-0.465-2.325-1.396-4.186l-0.465-0.465c-3.721-3.256-13.487-5.581-22.788-6.976
					c-0.93,0-1.86,0-2.79,0c-6.977,0-9.302,3.255-11.162,4.65c-2.325,1.396-5.58,3.721-6.511,6.046
					c-0.465,2.79-4.65,6.976-6.046,13.021c-1.395,5.581-4.65,9.767-10.231,14.417c-5.58,4.65-12.557,13.952-15.812,18.138
					c-3.256,4.186-6.977,11.161-8.371,13.952c-1.396,3.255-5.116,7.44-8.371,10.696c-1.86,1.86-3.721,2.325-6.046,2.325
					s-4.186-0.931-6.046-2.325c-3.721-3.721,3.721-9.767,4.65-13.952c0.93-4.65,1.396-5.581,4.65-6.976
					c2.791-1.396,4.186-1.396,8.836-5.581c4.651-4.65,13.487-14.882,21.394-23.253s8.836-15.348,9.301-22.788
					c0.465-7.441,3.256-10.231,6.977-24.648c3.72-13.952,0.465-15.813-1.396-19.533c-2.325-3.72-6.976-5.58-11.161-6.045
					c-3.721-0.466-5.581-0.931-8.371-3.721c-0.931-0.931-1.396-0.931-2.326-0.931c-2.325,0-5.115,1.86-6.976,3.256
					c-1.396,0.93-4.65,2.325-8.371,2.325c-3.256,0-6.046-0.93-7.441-4.186c-2.79-6.511,5.581-8.371,15.813-12.092
					s7.906-3.721,8.836-10.231c0.931-6.511-3.72-9.767-6.976-13.486c-3.256-3.721-2.325-4.651-6.976-10.696
					c-4.186-5.116-10.697-5.581-16.277-5.581c-0.465,0-1.396,0-1.86,0c-6.046,0-12.557,1.395-19.533,1.86
					c-6.976,0.465-6.045,1.395-12.557,2.79c-3.255,0.465-5.58,0.931-7.905,0.931c-2.326,0-4.651-0.466-7.906-1.86
					c-6.511-2.791-5.116-5.116-1.396-8.837c1.86-1.86,5.116-2.325,8.836-2.325c4.186,0,9.767,0.931,14.417,0.931
					c1.396,0,2.791,0,3.721,0c6.046,0,8.836-1.396,12.557-2.325c6.046-1.86,16.742-0.466,17.207-8.837
					c0.466-4.186,0-8.836-1.859-13.021c-5.116-9.301-26.509-12.557-43.717-12.557c-6.511,0-12.557,0.465-16.742,0.93
					c-3.72,0.466-6.976,1.396-10.696,1.396c-1.86,0-3.255,0-5.115-0.465c-5.116-1.396-9.767-6.046-8.837-11.162
					c0.931-3.721,4.651-6.511,8.372-7.441c0.93,0,2.325-0.465,3.255-0.465c2.79,0,5.581,0.465,8.836,1.396
					c14.417,3.255,29.299,6.511,43.716,10.697c6.512,1.859,15.348,5.58,23.719,5.58c3.255,0,6.046-0.465,8.836-2.325
					c2.325-1.396,4.186-3.721,5.581-6.046c1.86-3.255,3.721-6.976,2.79-11.161c0-0.93-17.672-15.347-10.696-15.347
					c0.93,0,1.86,0,3.256,0.465c2.79,0.465,4.65,0.93,6.976,0.93c1.86,0,3.721-0.465,6.046-0.465
					c5.115-0.93,2.79-5.116,0.465-11.627c-1.86-6.511-5.581-11.626-9.301-17.672c-3.721-6.045-5.581-14.417-5.581-20.928
					c-0.465-5.116,3.255-6.046,6.976-6.046c0.931,0,1.86,0,2.791,0c0.465,0,0.465,0,0.93,0c5.115,0,9.302-2.79,13.487-2.79
					c1.859,0,4.186,0.465,6.511,2.325c4.186,3.255,10.696,7.441,15.812,7.441c-0.93-4.65-5.58-6.511-3.255-12.092
					c0.465-1.395,1.86-1.86,3.255-1.86c3.256,0,8.371,2.79,10.696,4.65c0.466,0.465,1.396,0.465,1.86,0.465
					c5.116,0,15.813-6.046,16.277-9.767c0.465-2.325,0-4.186-0.93-6.511c-4.186-13.952-6.511-27.438-13.487-39.996
					c-5.58-9.766-13.021-19.067-18.137-29.299c-3.256-6.046-6.977-5.116-6.046-17.672c0.465-3.721,1.395-5.116,2.79-5.116
					c3.256,0,8.371,6.976,10.231,9.766c4.186,6.511,0.93,15.347,5.581,21.858c20.462,28.369,34.879,35.345,44.646,35.345
					c1.86,0,3.721-0.465,5.581-0.93c0.93-6.046-0.465-12.557-1.396-18.603c-3.255-16.742-6.511-33.02-9.767-49.762
					c-0.465-2.325,0.466-4.651,2.791-5.581C290.199,196.087,292.525,195.622,294.385,195.622 M294.385,188.181L294.385,188.181
					c-3.256,0-6.511,0.93-9.302,2.325c-5.115,2.326-7.906,7.906-6.511,13.487l3.256,16.742c2.325,11.162,4.65,22.323,6.511,33.02
					v0.465c0.465,3.72,1.395,6.976,1.86,10.696c-6.977-0.93-19.068-7.441-37.205-32.554c-1.396-1.86-1.396-4.651-1.86-7.906
					c-0.465-4.186-0.465-9.301-3.721-13.952c-3.721-6.045-9.767-13.021-16.277-13.021c-2.325,0-9.301,0.93-10.231,12.092
					c-0.93,11.161,1.396,14.882,5.116,19.067c0.93,0.93,1.395,1.395,1.86,2.791c3.255,6.045,6.976,11.626,10.696,17.207
					c2.79,4.186,5.58,8.371,7.906,12.092c5.115,9.301,7.905,19.067,10.696,29.299c0.93,2.791,1.395,6.046,2.325,8.836
					c0,0.465,0.465,1.395,0.465,2.325c-1.86,1.86-6.511,4.186-8.836,4.65c-5.581-3.255-9.767-5.115-13.487-5.115
					c-4.65,0-8.371,2.325-9.766,6.511c-0.466,0.93-0.466,1.395-0.466,2.325c-0.465,0-0.465-0.465-0.93-0.465
					c-3.256-2.326-6.976-3.721-10.696-3.721c-3.256,0-6.046,0.93-8.836,1.86c-1.86,0.465-3.721,1.395-5.116,1.395h-0.465
					c-0.931,0-2.325,0-3.256,0l0,0c-1.86,0-6.976,0-10.696,3.721c-1.396,1.86-3.721,4.65-3.255,9.766
					c0.465,6.511,2.325,16.277,6.976,24.183c0.93,1.396,1.86,3.256,2.79,4.651c2.325,4.186,4.65,7.441,6.046,11.626
					c0.465,0.93,0.465,1.86,0.931,2.791c-0.466,0-0.466,0-0.931,0c-1.396,0-2.79,0-5.115-0.93c-1.86-0.465-3.721-0.93-5.116-0.93
					l0,0c-5.58,0-7.906,4.186-8.371,5.116c-2.325,6.046,2.791,11.626,11.627,19.998c0,0,0,0,0.465,0.465
					c-0.465,1.395-0.93,2.79-1.86,4.186c-0.93,1.86-1.86,2.79-2.79,3.255c-1.396,0.93-2.791,0.93-5.116,0.93
					c-4.65,0-10.696-1.86-15.812-3.255c-1.86-0.465-4.186-1.396-6.046-1.86c-14.417-3.721-29.299-7.441-43.716-10.696
					c-3.721-0.93-6.511-1.396-10.231-1.396c-1.396,0-3.256,0-4.65,0.465c-7.441,1.395-13.022,6.511-14.417,13.021
					c-1.86,9.301,6.045,17.208,13.951,19.533c1.86,0.465,4.186,0.93,6.511,0.93c3.256,0,6.512-0.465,9.767-0.93l1.86-0.465
					c4.186-0.465,10.231-0.931,15.813-0.931c19.532,0,34.414,4.186,37.67,10.696c0.93,1.86,1.395,5.116,0.93,8.837
					c-0.93,0.465-4.186,0.93-6.046,1.395c-1.86,0.466-4.186,0.466-6.046,0.931c-0.93,0.465-1.395,0.465-2.325,0.93
					c-2.79,0.931-4.65,1.396-8.371,1.396c-0.93,0-1.86,0-3.255,0c-1.396,0-3.256-0.465-5.116-0.465
					c-3.255-0.465-6.976-0.465-9.766-0.465c-4.186,0-9.767,0.465-13.952,4.65c-1.86,1.86-6.511,6.511-5.116,12.092
					c1.396,5.58,6.977,7.905,8.837,8.836c4.186,1.396,6.976,2.325,10.231,2.325c2.79,0,5.58-0.465,8.371-0.93h0.465
					c2.79-0.466,4.65-0.931,6.046-1.396c1.395-0.465,2.325-0.931,5.58-0.931c3.721,0,6.977-0.465,10.231-0.93
					c3.256-0.465,6.512-0.93,9.302-0.93h0.93h0.931c5.58,0,8.836,0.465,10.696,2.79s2.79,3.721,3.255,5.115
					c0.931,1.396,1.86,3.256,3.721,5.581c0.465,0.465,0.931,0.93,1.396,1.396c2.79,3.255,3.721,4.186,3.721,6.046
					c0,1.395-0.465,2.325-0.465,2.79c-0.931,0.465-1.86,0.93-4.187,1.86c-1.395,0.465-2.325,0.93-3.72,1.396
					c-7.441,2.79-13.952,5.115-16.277,10.696c-0.931,2.325-1.396,5.58,0.465,9.766c2.325,5.116,7.441,8.371,14.417,8.371
					c4.65,0,9.767-1.395,12.557-3.72c0.931-0.466,1.396-0.931,1.86-1.396c3.256,2.79,6.511,3.256,10.231,3.721
					c3.255,0.465,5.581,1.86,6.046,2.79c0.465,0.465,0.465,0.931,0.93,1.396c0.931,1.395,1.86,2.79-0.465,12.092
					c-1.396,6.046-2.79,10.231-4.186,13.021c-1.396,4.186-2.325,7.441-2.79,12.557c-0.466,6.511-0.931,11.627-7.441,18.138
					c-4.186,4.186-8.371,8.836-12.092,13.021s-6.976,7.906-9.301,9.767c-2.325,2.325-3.256,2.79-4.65,3.255
					c-0.931,0.466-1.86,0.931-2.791,1.396c-5.115,2.79-6.976,6.046-7.906,12.092c0,0.465-0.93,1.86-1.86,2.79
					c-2.325,3.721-7.905,11.627-0.93,18.138c3.256,2.79,6.976,4.65,11.161,4.65s7.906-1.86,11.162-4.65
					c5.581-5.581,8.371-9.302,9.767-13.021c0.93-2.326,4.186-8.371,7.44-12.557l1.396-1.86c3.255-4.186,9.301-12.092,13.486-15.348
					c6.977-5.58,10.696-11.161,12.557-18.138c0.931-2.325,2.325-5.115,3.256-6.976c0.93-1.86,1.86-3.255,2.79-5.115
					c0.465-0.466,1.86-1.396,2.325-1.86c0.466-0.465,0.931-0.465,1.396-0.931c0.465-0.465,0.93-0.93,1.86-1.395
					c1.396-1.396,2.325-1.86,5.115-1.86c0.466,0,1.396,0,1.86,0c8.371,0.93,14.882,2.79,17.673,4.186
					c0.465,1.395,0.93,2.79,2.325,4.65c1.396,2.325,4.186,5.581,7.906,6.046c2.79,0.93,5.58,2.325,7.44,4.186
					c2.791,2.325,5.116,4.186,11.162,5.581c0.93,0,1.86,0.465,2.79,0.465c4.186,0,8.371-2.325,10.231-6.046
					c1.86-3.256,1.86-7.441-0.465-10.696c-0.931-1.396-1.396-2.325-2.326-3.256c0.931,0,1.86,0.465,2.791,0.465
					c3.721,3.256,6.976,8.837,9.766,16.742c0.466,1.396,1.396,3.256,1.86,4.651c3.721,10.231,7.441,20.463,15.813,29.299
					c2.325,2.325,5.115,3.721,8.371,3.721c3.721,0,6.976-1.86,9.302-4.651c7.905-11.161,6.976-26.043-2.326-39.53
					c-1.395-2.325-3.255-4.65-5.58-7.44c-1.86-2.325-4.186-5.116-5.581-7.441c4.65-2.325,8.836-4.65,13.021-7.44
					c4.186-2.325,7.906-4.651,12.092-6.977c0.465,0,0.931-0.465,1.396-0.465c2.325,4.65,4.65,9.302,6.511,13.952v0.465l0.465,0.93
					c5.116,12.557,14.882,35.811,33.484,35.811c0.931,0,1.396,0,2.325,0c4.186-0.466,8.371-2.791,11.162-6.046
					c2.79-3.721,4.186-8.371,3.721-13.487c-0.931-8.371-6.977-13.486-12.092-17.672c-0.465,0-0.465-0.466-0.931-0.466
					c3.721,0,6.977-1.395,9.767-4.186c4.186-3.72,6.046-8.836,5.581-14.417c-0.931-7.905-6.977-14.416-13.022-17.207
					c-1.859-0.93-4.186-1.86-6.045-2.325c-0.466,0-0.931-0.465-1.396-0.465c0.465-0.465,0.465-0.931,0.465-1.396
					s0.465-0.93,0.465-1.395c12.092,6.045,23.719,12.091,35.345,18.602c10.231,5.581,20.463,11.627,30.229,17.208
					c1.396,0.93,2.79,1.86,4.65,2.79c6.976,4.65,15.348,9.767,25.113,9.767h0.465c9.302,0,19.533-6.046,21.394-16.742
					c2.325-12.092-6.977-21.394-16.742-25.113c-6.511-2.325-13.487-4.186-19.998-5.581c-4.65-0.93-9.301-2.325-13.952-3.721
					c-12.091-3.721-22.322-8.371-31.624-13.486c-9.301-5.116-17.672-11.627-25.578-18.603c-0.465-1.86-1.396-4.186-2.325-6.046
					v-0.465c-3.721-8.372-3.256-8.837-0.466-10.231c1.86-0.931,4.186-1.86,6.512-2.791c4.186-1.86,8.371-3.255,12.557-6.976
					c0.465-0.465,0.465-0.465,0.93-0.931c4.186-0.93,8.371-0.93,13.021-0.93c5.116,0,10.231,0.465,14.882,1.396h0.466
					c0.465,0.465,1.395,0.465,1.86,0.465c1.395,0.465,2.79,0.93,4.65,1.86c6.511,2.325,13.952,5.58,21.393,5.58
					c8.371,0,14.417-4.186,17.207-11.626c3.256-9.767-2.325-19.067-9.301-23.719c-3.721-2.325-7.906-3.255-12.557-3.255
					c-4.186,0-7.906,0.93-11.627,1.396c-0.93,0-2.325,0.465-3.255,0.465c-5.116,0.93-10.231,1.395-15.813,1.395
					s-11.627-0.465-17.207-1.395c0.465-1.396,0.93-2.791,0.93-4.186c3.256,0.465,6.977,0.93,11.162,0.93
					c10.231,0,17.672-3.255,22.322-9.767c2.791-4.186,3.256-8.836,2.326-13.021c6.976-1.395,13.951-1.86,20.462-2.325
					c0.466,0,1.396,0,1.86,0c1.396,0,2.325,0,3.721-0.465h1.396c6.976,0,16.277,0,23.253-6.976
					c3.256-3.255,5.115-7.906,5.115-12.557c0-5.116-2.325-9.767-6.045-13.487c-4.651-4.651-11.162-6.976-18.603-6.976
					c-2.791,0-5.581,0.465-8.371,0.93c-9.302,2.325-16.277,6.976-23.719,11.626c-1.396,0.93-2.325,1.86-3.721,2.325
					c-4.65,3.256-10.696,6.511-15.812,6.511c-1.86,0-3.256-0.465-4.651-1.396c0,0-0.465,0-0.465-0.465
					c1.396-6.046,1.396-12.092,0.465-17.672c0-1.86-0.465-3.255-0.93-5.116c0.93,0,1.396-0.465,2.325-0.465
					c2.325-0.465,4.65-0.465,6.976-0.93c3.256-0.465,6.512-0.465,9.767-1.396c11.627-2.79,19.533-12.091,19.067-22.323
					c-0.465-9.767-8.371-16.742-18.137-16.742c-1.396,0-2.791,0-4.186,0.465c-5.581,1.396-9.767,4.651-13.487,7.441
					c-2.325,1.86-4.65,4.186-6.511,4.186c-0.465,0-1.396-0.465-2.325-0.93c-4.186-2.325-6.977-7.906-10.231-13.486
					c-2.325-4.186-4.186-7.906-7.441-11.627c-6.976-8.371-16.742-13.952-27.438-15.812c0.465-0.93,0.93-1.395,1.396-2.325
					c3.721-7.441,8.371-16.277,10.696-19.533l0.93-1.86c5.116-7.906,8.371-14.417,6.977-20.463c-0.465-2.79-2.325-4.65-4.65-6.046
					c-2.326-1.395-4.651-2.325-6.977-2.325c-6.046,0-10.231,4.186-13.952,8.371c-2.325,2.791-3.72,6.046-5.115,9.301
					c-3.256,2.326-5.116,5.581-4.65,9.767c0,0.93,0,1.86-0.466,2.791c-0.465,0.465-0.93,1.395-0.93,1.86l0,0
					c-0.465,0.93-1.86,1.396-3.256,1.396h-0.465c-1.395,0-4.65-0.465-5.115-8.836c0-16.742-7.906-26.974-20.463-26.974
					c-0.465,0-0.93,0-1.86,0c-3.721,0.465-6.976,2.325-8.836,5.581c-1.86,3.255-2.325,6.511-0.931,9.766
					c3.256,7.906-0.93,18.137-8.371,21.858l-13.486-0.93c-4.186-2.325-7.441-6.511-8.371-10.696
					c-1.396-5.116,0.465-10.231,2.325-16.742c2.325-6.976,4.65-14.417,2.79-22.788C316.242,197.482,306.011,188.181,294.385,188.181
					L294.385,188.181z"/>
			</g>
			<g>
				<path fill="#266626" d="M264.156,526.747c-3.721-1.86-7.906-0.466-9.767,3.255l-19.532,39.065l-1.396,3.256l0.931,2.79
					l15.347,39.995c0.931,1.86,2.79,3.256,5.116,2.791c2.325-0.466,3.72-2.791,3.255-5.581l-8.836-38.601l18.603-36.739
					C269.272,533.258,267.876,528.607,264.156,526.747z"/>
				<path fill="#266626" d="M210.208,447.687c2.79-3.256,2.325-7.906-0.465-10.231c-3.256-2.791-7.906-2.325-10.231,0.465
					l-29.299,33.484l-45.111-5.115c-2.79-0.466-5.115,1.395-5.581,4.186c-0.465,2.79,1.396,5.115,4.186,5.58l47.901,7.906
					l3.256,0.465l2.325-2.325L210.208,447.687C209.743,448.151,210.208,448.151,210.208,447.687z"/>
				<path fill="#266626" d="M203.233,370.486c4.186,0.93,7.906-1.396,8.836-5.581s-1.396-7.906-5.581-8.836l-49.296-11.162
					l-2.326-0.465l-1.86,0.93l-41.39,20.463c-1.396,0.93-2.326,2.791-1.86,4.186c0.465,1.86,2.79,3.255,4.65,2.326l41.855-12.557
					L203.233,370.486z"/>
				<path fill="#266626" d="M414.37,359.324l22.788-29.299l2.791-3.721l-1.86-3.72l-13.487-27.439
					c-0.93-2.325-3.721-3.255-6.046-2.325c-2.79,0.93-4.186,3.721-3.255,6.046l7.906,25.113l-20.463,26.509
					c-2.326,3.255-1.86,7.906,1.395,10.231C407.395,363.045,412.045,362.58,414.37,359.324z"/>
				<path fill="#266626" d="M493.431,405.365c-1.86-1.86-4.65-1.86-6.511-0.465l-23.253,20.928L422.741,404.9h-0.465
					c-3.721-1.86-7.906,0-9.767,3.721c-1.859,3.721,0,7.906,3.721,9.766l45.576,19.998l3.721,1.86l2.79-2.79l24.648-25.579
					C495.291,410.016,495.291,407.226,493.431,405.365z"/>
				<path fill="#266626" d="M433.438,477.45c-3.255-2.325-7.905-0.931-10.23,2.325c-2.326,3.256-0.931,7.906,2.325,10.231
					l45.11,27.438l-4.186,33.95c-0.465,2.325,0.931,4.65,3.256,5.115s5.115-0.93,5.581-3.255l10.231-38.136l1.395-4.65l-4.65-2.79
					L433.438,477.45z"/>
				<path fill="#2F8030" d="M184.165,255.615c-1.86,0-3.256,1.395-3.256,3.255s1.396,3.255,3.256,3.255
					c38.6-0.465,66.038,24.184,75.805,40.926c0.465,0.93,1.86,1.86,2.79,1.86c0.466,0,0.931,0,1.86-0.465
					c1.396-0.93,2.325-2.791,1.396-4.65C257.18,284.449,228.811,255.15,184.165,255.615z"/>
				<path fill="#2F8030" d="M383.676,200.738c-37.67,2.791-55.807,36.275-66.038,61.388c-0.931,1.86,0,3.721,1.86,4.186
					c0.465,0,0.93,0.465,1.395,0.465c1.396,0,2.791-0.93,3.256-1.86c9.766-23.253,26.509-54.877,60.458-57.203
					c1.86,0,3.255-1.86,3.255-3.721C386.932,202.133,385.536,200.738,383.676,200.738z"/>
			</g>
			<g>
				<g opacity="0.62">
					<path fill="#266626" d="M469.855,658.176c-2.851,2.754-6.214,4.883-10.156,5.765c-2.313,0.518-4.733,0.701-7.135,0.566
						l64.121,127.791l16.742-6.977L469.855,658.176z"/>
					<path fill="#266626" d="M440.156,628.71c1.76-1.031,4.321-1.764,6.358-1.764c2.621,1.052,3.551,1.125,2.791,0.219
						c-0.063-0.015-0.124-0.029-0.187-0.045c1.516-0.458,2.727-1.473,3.97-2.473l-49.415-98.831l69.295-72.55l-51.157-126.032
						c-6.046-14.882-22.788-21.858-37.67-15.812L261.83,361.185c-14.882,6.046-21.858,22.788-15.813,37.67l46.042,112.08
						c5.58,13.021,18.602,21.393,32.554,20.928l59.993-2.79l51.768,103.17C437.399,630.824,438.658,629.588,440.156,628.71z"/>
				</g>
				<g>
					<path fill="#81A581" stroke="#266626" stroke-width="1.1653" stroke-linecap="round" stroke-miterlimit="10" d="
						M464.074,619.485c2.14-0.89,4.328-1.615,6.536-2.318c0.668-0.213,1.053-0.349,1.247-0.417c0.817-0.69,1.677-1.317,2.605-1.844
						c0.228-0.138,0.453-0.249,0.68-0.368l-50.076-123.602l-19.067,7.906l50.555,124.783
						C458.886,621.843,461.293,620.643,464.074,619.485z"/>
					<g opacity="0.62">
						<path fill="#266626" d="M476.538,649.646c-0.125,0.096-0.249,0.192-0.378,0.283c-2.064,3.534-4.634,6.951-7.783,9.577
							l52.493,129.07l9.766-3.256L476.538,649.646z"/>
						<path fill="#266626" d="M455.546,622.925c2.783-1.489,5.677-2.747,8.67-3.753c0.051-0.018,0.103-0.025,0.154-0.041
							l-50.93-127.729l-11.162,5.58l51.652,127.003C454.445,623.597,454.975,623.23,455.546,622.925z"/>
					</g>
					<g>
						<path fill="none" d="M344.146,375.602c6.046-2.326,8.837-9.301,6.512-15.347c-2.326-6.046-9.302-8.836-15.348-6.511
							c-6.046,2.325-8.836,9.301-6.511,15.347C331.124,375.136,338.1,378.392,344.146,375.602z"/>
						<path fill="none" d="M341.821,401.18c2.325,6.046,9.302,8.836,15.348,6.511s8.836-9.301,6.511-15.347
							s-9.302-8.836-15.348-6.511C342.286,388.158,339.495,395.134,341.821,401.18z"/>
						<path fill="none" d="M382.281,360.254c6.046-2.325,8.836-9.301,6.511-15.347s-9.302-8.836-15.347-6.511
							c-6.046,2.325-8.837,9.301-6.512,15.347C369.725,359.789,376.236,362.58,382.281,360.254z"/>
						<path fill="none" d="M379.956,385.368c2.325,6.046,9.301,8.836,15.347,6.511c6.046-2.325,8.836-9.301,6.511-15.347
							c-2.325-6.046-9.301-8.836-15.347-6.511C380.421,372.346,377.631,379.322,379.956,385.368z"/>
						<path fill="none" d="M325.078,407.69c-2.325-6.046-9.301-8.836-15.347-6.511s-8.836,9.302-6.511,15.348
							c2.325,6.045,9.301,8.836,15.347,6.511S327.404,413.736,325.078,407.69z"/>
						<path fill="none" d="M312.057,376.066c-2.325-6.046-9.301-8.836-15.347-6.511s-8.836,9.301-6.511,15.347
							c2.325,6.045,9.301,8.836,15.347,6.511S314.847,382.112,312.057,376.066z"/>
						<path fill="none" d="M418.556,369.556c2.325,6.046,9.302,8.836,15.348,6.511s8.836-9.301,6.511-15.347
							c-2.325-6.045-9.302-8.836-15.348-6.511C418.556,356.999,415.766,363.51,418.556,369.556z"/>
						<path fill="none" d="M420.881,344.442c6.046-2.326,8.837-9.301,6.512-15.347c-2.326-6.046-9.302-8.836-15.348-6.511
							c-6.046,2.325-8.836,9.301-6.511,15.347C407.86,343.977,414.836,346.768,420.881,344.442z"/>
						<g>
							<path fill="#FFFFFF" d="M333.914,512.795c-13.021,0-24.647-7.906-29.764-19.998l-46.506-113.475
								c-3.256-7.906-3.256-16.742,0-25.113c3.256-7.906,9.767-14.417,17.672-17.672l126.962-52.087
								c3.721-1.396,7.906-2.325,12.092-2.325c13.487,0,25.113,7.906,30.229,20.462l46.506,113.475
								c5.116,12.557,1.86,27.439-8.371,36.275l-63.248,55.343l-83.712,5.115C335.31,512.795,334.38,512.795,333.914,512.795z
								 M456.226,414.201c-1.395,0-2.79,0.466-3.72,0.931l-120.451,49.297c-5.116,2.325-6.977,7.44-6.046,11.626
								c0.93,3.721,3.72,7.906,8.836,7.906h0.465l73.015-4.65l54.413-47.437c4.65-4.186,3.255-8.371,2.79-10.231
								C464.598,417.922,460.877,414.201,456.226,414.201z M314.382,403.04c-1.396,0-2.325,0-3.255,0.465
								c-2.326,0.931-4.186,2.791-5.116,4.651c-0.93,2.325-0.93,4.65,0,6.976c1.396,3.255,4.65,5.581,8.371,5.581
								c1.396,0,2.325,0,3.256-0.466c2.325-0.93,4.186-2.79,5.115-4.65c0.931-1.86,0.931-4.65,0-6.976
								C321.358,405.365,318.103,403.04,314.382,403.04z M352.517,387.693c-1.395,0-2.325,0-3.255,0.465
								c-4.65,1.86-6.976,6.976-5.116,11.627c1.396,3.255,4.651,5.58,8.372,5.58c1.395,0,2.325,0,3.255-0.465
								c4.65-1.86,6.976-6.976,5.116-11.626C359.493,389.553,356.238,387.693,352.517,387.693z M391.117,371.881
								c-1.396,0-2.325,0-3.256,0.465c-4.65,1.86-6.976,6.976-5.115,11.626c1.396,3.255,4.65,5.581,8.371,5.581
								c1.396,0,2.325,0,3.256-0.465c2.325-0.93,4.186-2.791,5.115-4.651c0.931-2.325,0.931-4.65,0-6.976
								C398.093,374.206,394.373,371.881,391.117,371.881z M301.361,371.416c-1.396,0-2.325,0-3.256,0.465
								c-2.325,0.93-4.186,2.791-5.115,4.651c-0.93,2.325-0.93,4.65,0,6.976c1.396,3.255,4.65,5.581,8.371,5.581
								c1.396,0,2.325,0,3.256-0.465c2.325-0.93,4.185-2.79,5.115-4.65c0.93-2.325,0.93-4.651,0-6.976
								C308.336,373.741,305.081,371.416,301.361,371.416z M429.252,356.069c-1.395,0-2.325,0-3.255,0.465
								c-4.65,1.86-6.976,6.976-5.116,11.626c1.396,3.256,4.651,5.581,8.371,5.581c1.396,0,2.326,0,3.256-0.465
								c4.65-1.86,6.976-6.976,5.116-11.626C436.229,358.394,432.973,356.069,429.252,356.069z M339.495,355.604
								c-1.396,0-2.325,0-3.255,0.465c-2.326,0.93-4.186,2.791-5.116,4.65c-0.93,2.326-0.93,4.651,0,6.976
								c1.396,3.255,4.65,5.581,8.371,5.581c1.396,0,2.325,0,3.256-0.465c4.65-1.86,6.976-6.976,5.115-11.626
								C346.472,357.929,343.216,355.604,339.495,355.604z M378.096,340.257c-1.396,0-2.325,0-3.256,0.465
								c-2.325,0.93-4.186,2.791-5.115,4.65c-0.931,2.326-0.931,4.651,0,6.976c1.395,3.255,4.65,5.581,8.371,5.581
								c1.396,0,2.325,0,3.255-0.465c2.326-0.93,4.186-2.79,5.116-4.65c0.93-2.325,0.93-4.651,0-6.976
								C385.072,342.582,381.817,340.257,378.096,340.257z M416.231,324.444c-1.395,0-2.325,0-3.255,0.465
								c-4.651,1.86-6.977,6.976-5.116,11.626c1.396,3.255,4.65,5.581,8.371,5.581c1.396,0,2.325,0,3.256-0.465
								c4.65-1.86,6.976-6.976,5.115-11.626C423.207,326.77,419.951,324.444,416.231,324.444z"/>
							<path fill="#286628" d="M414.836,285.379c11.626,0,22.787,6.976,27.438,18.603l46.506,113.475
								c4.65,11.627,1.396,25.113-7.906,33.02l-62.318,54.412l-82.781,5.116c-0.465,0-1.395,0-1.86,0
								c-11.626,0-22.322-6.977-26.974-18.138l-46.506-113.476c-6.046-15.347,0.931-32.554,16.277-39.065l126.962-52.087
								C407.395,285.844,411.115,285.379,414.836,285.379 M416.231,345.372c1.396,0,2.791-0.465,4.65-0.93
								c6.046-2.326,8.837-9.301,6.512-15.347c-1.86-4.651-6.046-7.441-10.697-7.441c-1.395,0-2.79,0.465-4.65,0.93
								c-6.046,2.325-8.836,9.301-6.511,15.347C407.395,342.582,411.58,345.372,416.231,345.372 M378.096,360.719
								c1.395,0,2.79-0.465,4.65-0.93c6.046-2.325,8.836-9.301,6.511-15.347c-1.86-4.651-6.046-7.441-10.696-7.441
								c-1.396,0-2.79,0.465-4.65,0.93c-6.046,2.326-8.836,9.301-6.511,15.347C368.794,358.394,373.446,360.719,378.096,360.719
								 M339.495,376.532c1.396,0,2.791-0.465,4.65-0.93c6.046-2.326,8.837-9.301,6.512-15.347
								c-1.86-4.651-6.046-7.441-10.697-7.441c-1.395,0-2.79,0.465-4.65,0.93c-6.046,2.325-8.836,9.301-6.511,15.347
								C330.659,373.741,334.845,376.532,339.495,376.532 M429.252,376.997c1.396,0,2.791-0.465,4.651-0.93
								c6.046-2.325,8.836-9.301,6.511-15.347c-1.86-4.65-6.046-7.441-10.696-7.441c-1.396,0-2.791,0.465-4.651,0.93
								c-6.045,2.325-8.836,9.301-6.511,15.347C420.416,374.206,424.602,376.997,429.252,376.997 M301.361,392.344
								c1.396,0,2.79-0.465,4.65-0.93c6.046-2.325,8.836-9.301,6.511-15.347c-1.86-4.65-6.046-7.441-10.696-7.441
								c-1.395,0-2.79,0.465-4.65,0.93c-6.046,2.325-8.836,9.301-6.511,15.347C292.525,389.553,296.71,392.344,301.361,392.344
								 M391.117,392.809c1.396,0,2.79-0.465,4.65-0.93c6.046-2.325,8.837-9.301,6.511-15.347
								c-1.859-4.651-6.045-7.441-10.696-7.441c-1.395,0-2.79,0.465-4.65,0.93c-6.046,2.326-8.836,9.301-6.511,15.347
								C381.817,390.019,386.467,392.809,391.117,392.809 M352.517,408.156c1.396,0,2.791-0.466,4.651-0.931
								c6.046-2.325,8.836-9.301,6.511-15.347c-1.86-4.65-6.046-7.441-10.696-7.441c-1.396,0-2.791,0.465-4.651,0.93
								c-6.045,2.325-8.836,9.301-6.511,15.347C343.681,405.365,347.866,408.156,352.517,408.156 M314.382,423.968
								c1.396,0,2.79-0.465,4.65-0.93c6.046-2.325,8.837-9.302,6.511-15.348c-1.859-4.65-6.045-7.44-10.696-7.44
								c-1.395,0-2.79,0.465-4.65,0.93c-6.046,2.325-8.836,9.302-6.511,15.348C305.081,421.178,309.732,423.968,314.382,423.968
								 M335.31,486.286h0.465c0,0,0,0,0.466,0l73.015-4.186l55.342-48.366c0,0,0,0,0.466,0c8.836-7.906,1.86-21.858-8.837-21.858
								c-1.395,0-3.255,0.466-5.115,0.931l-119.986,48.831C318.568,466.754,321.823,486.286,335.31,486.286 M414.836,279.798
								c-4.651,0-9.302,0.93-13.487,2.791l-126.962,51.622c-8.836,3.72-15.347,10.231-19.067,19.067
								c-3.721,8.836-3.721,18.138,0,26.974l46.506,113.476c5.581,13.021,18.138,21.393,32.089,21.393c0.466,0,1.396,0,2.326,0
								l82.781-5.115h1.859l1.396-1.396l62.783-54.412c11.162-9.767,14.883-25.579,9.302-39.065l-46.507-113.476
								C442.275,288.169,429.252,279.798,414.836,279.798L414.836,279.798z M416.231,339.792c-2.79,0-4.65-1.395-6.046-3.72
								c-1.395-3.256,0-6.976,3.256-8.371c0.93-0.465,1.396-0.465,2.325-0.465c2.79,0,4.65,1.395,6.046,3.721
								c0.465,1.395,0.465,3.255,0,4.65s-1.86,2.791-3.256,3.255C418.091,339.792,417.161,339.792,416.231,339.792L416.231,339.792z
								 M378.096,355.604c-2.791,0-4.65-1.395-6.046-3.72c-1.396-3.255,0-6.976,3.255-8.371c0.931-0.465,1.396-0.465,2.326-0.465
								c2.79,0,4.65,1.396,6.045,3.721c0.466,1.395,0.466,3.255,0,4.65c-0.465,1.396-1.859,2.791-3.255,3.256
								C379.49,355.139,378.561,355.604,378.096,355.604L378.096,355.604z M339.495,370.951c-2.79,0-4.65-1.395-6.046-3.72
								c-0.465-1.396-0.465-3.256,0-4.651s1.86-2.791,3.256-3.255c0.93-0.465,1.395-0.465,2.325-0.465c2.79,0,4.65,1.395,6.046,3.72
								c1.396,3.255,0,6.976-3.256,8.371C341.356,370.951,340.426,370.951,339.495,370.951L339.495,370.951z M429.252,371.416
								c-2.79,0-4.65-1.396-6.045-3.721c-0.466-1.395-0.466-3.255,0-4.65c0.465-1.396,1.859-2.791,3.255-3.256
								c0.931-0.465,1.396-0.465,2.325-0.465c2.791,0,4.65,1.395,6.046,3.721c1.396,3.255-0.465,6.976-3.255,8.371
								C430.648,371.416,430.183,371.416,429.252,371.416L429.252,371.416z M301.361,386.763c-2.79,0-4.65-1.395-6.046-3.72
								c-0.465-1.395-0.465-3.255,0-4.651c0.465-1.395,1.86-2.79,3.256-3.255c0.93-0.465,1.395-0.465,2.325-0.465
								c2.79,0,4.65,1.395,6.046,3.72c0.465,1.396,0.465,3.256,0,4.651c-0.466,1.395-1.86,2.791-3.256,3.255
								C302.756,386.763,302.29,386.763,301.361,386.763L301.361,386.763z M391.117,387.228c-2.79,0-4.65-1.395-6.046-3.721
								c-1.396-3.255,0-6.976,3.256-8.371c0.93-0.465,1.395-0.465,2.325-0.465c2.79,0,4.65,1.395,6.046,3.72
								c0.465,1.396,0.465,3.256,0,4.651s-1.86,2.791-3.256,3.255C392.513,387.228,391.582,387.228,391.117,387.228L391.117,387.228
								z M352.517,403.04c-2.79,0-4.65-1.396-6.045-3.721c-1.396-3.255,0-6.976,3.255-8.371c0.931-0.465,1.396-0.465,2.325-0.465
								c2.791,0,4.65,1.395,6.046,3.721c1.396,3.255,0,6.976-3.255,8.371C354.377,402.575,353.448,403.04,352.517,403.04
								L352.517,403.04z M314.382,418.387c-2.79,0-4.65-1.395-6.046-3.72c-0.465-1.396-0.465-3.256,0-4.651
								c0.465-1.395,1.86-2.79,3.256-3.255c0.93-0.465,1.395-0.465,2.325-0.465c2.79,0,4.65,1.395,6.046,3.72
								c0.465,1.396,0.465,3.256,0,4.651c-0.465,1.395-1.86,2.79-3.256,3.255C315.778,418.387,315.313,418.387,314.382,418.387
								L314.382,418.387z M335.31,480.706c-3.721,0-6.046-2.791-6.511-5.581s0.465-6.511,4.186-8.371l119.986-49.297
								c0.93-0.465,1.86-0.465,2.79-0.465c3.256,0,6.046,2.79,6.977,5.115c0.465,1.396,0.93,4.651-1.86,6.977l0,0l-53.482,47.436
								l-71.62,4.187H335.31L335.31,480.706L335.31,480.706z"/>
						</g>
					</g>
				</g>
			</g>
			<circle fill="#266626" cx="383.676" cy="204.458" r="11.161"/>
			<circle fill="#266626" cx="184.165" cy="258.871" r="11.162"/>
		</g>
	</g>
</g>
<path fill="#2F8030" d="M83.479,297.238l214.394-123.706l214.394,123.706v247.413L297.872,668.358L83.479,544.651V297.238
	L83.479,297.238z M39.763,272.125v297.641l258.109,148.819l257.645-148.819V272.125L297.872,123.306L39.763,272.125L39.763,272.125z
	"/>
<g opacity="0.13">
	<path d="M94.64,303.749l203.232-117.195L500.64,303.749v234.392L297.872,655.337L94.64,538.141V303.749L94.64,303.749z
		 M83.944,297.238v247.413l213.929,123.707l213.929-123.707V297.704L297.872,173.997L83.944,297.238L83.944,297.238z"/>
</g>
</svg>
