<?xml version="1.0" encoding="utf-8"?>
<!-- Generator: Adobe Illustrator 16.0.0, SVG Export Plug-In . SVG Version: 6.00 Build 0)  -->
<!DOCTYPE svg PUBLIC "-//W3C//DTD SVG 1.1//EN" "http://www.w3.org/Graphics/SVG/1.1/DTD/svg11.dtd">
<svg version="1.1" xmlns="http://www.w3.org/2000/svg" xmlns:xlink="http://www.w3.org/1999/xlink" x="0px" y="0px"
	 width="111.167px" height="128.417px" viewBox="0 0 111.167 128.417" enable-background="new 0 0 111.167 128.417"
	 xml:space="preserve">
<g id="Layer_1">
</g>
<g id="Layer_4">
	<g id="Layer_63">
		<polygon fill="#D89000" points="111.167,96.417 55.742,128.417 0.318,96.417 0.318,32.418 55.742,0.418 111.167,32.418 		"/>
		<polygon fill="#F4D706" points="56.242,11.596 63.792,15.958 78.322,24.346 79.363,24.947 81.662,26.266 82.533,26.766 
			86.222,28.897 86.312,28.947 88.123,29.987 91.902,32.176 91.943,32.197 91.943,32.208 92.203,32.357 92.863,32.737 
			94.322,33.577 96.261,34.697 97.042,35.147 97.482,35.397 99.421,36.516 102.242,38.147 102.242,91.277 102.232,91.287 
			100.812,92.107 91.812,97.296 91.572,97.417 91.443,97.477 91.332,97.537 88.302,99.277 86.431,100.357 86.392,100.386 
			83.142,102.266 80.892,103.566 79.431,104.416 79.251,104.515 79.232,104.527 77.521,105.515 76.562,106.066 71.943,108.736 
			71.312,109.107 71.251,109.136 67.751,111.156 63.712,113.486 63.703,113.496 63.271,113.746 56.193,117.835 48.623,113.457 
			48.582,113.437 46.511,112.236 41.152,109.136 40.462,108.736 35.373,105.796 34.492,105.287 34.162,105.095 32.312,104.027 
			31.742,103.697 24.613,99.577 24.521,99.527 19.851,96.827 10.242,91.277 10.242,38.147 24.572,29.867 31.492,25.877 
			33.072,24.967 33.242,24.867 34.902,23.917 36.062,23.247 37.601,22.346 40.402,20.737 41.091,20.336 42.552,19.497 
			48.271,16.197 48.732,15.937 		"/>
	</g>
	<g id="Layer_69">
		<g>
			<g>
				<path fill="#D89000" d="M91.031,30.368h-6.459v6.459h-6.461v-6.459h-6.459v-6.463h6.459v-6.461h6.461v6.461h6.459V30.368"/>
			</g>
		</g>
		<g>
			<g>
				<path fill="#C9AC00" d="M69.226,38.368h-6.459v6.459h-6.463v-6.459h-6.459v-6.463h6.459v-6.461h6.463v6.461h6.459V38.368"/>
			</g>
		</g>
		<g>
			<g>
				<path fill="#D89000" d="M47.226,32.368h-6.459v6.459h-6.463v-6.459h-6.459v-6.463h6.459v-6.461h6.463v6.461h6.459V32.368"/>
			</g>
		</g>
		<g>
			<g>
				<path fill="#D89000" d="M24.345,54.875h-6.459v6.459h-6.461v-6.459H4.966v-6.463h6.459v-6.461h6.461v6.461h6.459V54.875"/>
			</g>
		</g>
		<g>
			<g>
				<path fill="#D89000" d="M97.656,56.243h-6.459v6.459h-6.461v-6.459h-6.459v-6.464h6.459v-6.46h6.461v6.46h6.459V56.243"/>
			</g>
		</g>
		<g>
			<g>
				<path fill="#D89000" d="M82.357,67.392h-6.459v6.459h-6.463v-6.459h-6.459v-6.463h6.459v-6.463h6.463v6.463h6.459V67.392"/>
			</g>
		</g>
		<g>
			<g>
				<path fill="#C9AC00" d="M59.357,58.392h-6.459v6.459h-6.462v-6.459h-6.459v-6.463h6.459v-6.462h6.462v6.462h6.459V58.392"/>
			</g>
		</g>
		<g>
			<g>
				<path fill="#D89000" d="M34.894,82.231h-6.459v6.459h-6.463v-6.459h-6.459v-6.463h6.459v-6.461h6.463v6.461h6.459V82.231"/>
			</g>
		</g>
		<g>
			<g>
				<path fill="#D89000" d="M103.931,80.898h-6.459v6.459h-6.461v-6.459h-6.459v-6.463h6.459v-6.461h6.461v6.461h6.459V80.898"/>
			</g>
		</g>
		<g>
			<g>
				<path fill="#D89000" d="M88.632,95.011v-6.462h-6.461v6.462h-6.459v6.463h6.459v6.459h5.443
					c0.301-0.543,0.627-1.055,1.018-1.484v-4.975h6.459v-6.463H88.632z"/>
			</g>
		</g>
	</g>
	<g id="Layer_68">
		<g>
			<g>
				<path fill="#1A4674" d="M79.408,33.699c0-0.922-0.197-1.738-0.596-2.437c-0.393-0.688-0.979-1.264-1.766-1.72
					c-6.498-3.748-13.004-7.483-19.5-11.235c-1.752-1.01-3.449-0.973-5.188,0.052c-2.588,1.526-15.538,8.945-19.398,11.181
					c-1.588,0.92-2.361,2.328-2.361,4.159c-0.004,7.536,0,15.072-0.004,22.606c0,0.902,0.189,1.701,0.571,2.392
					c0.392,0.707,0.986,1.3,1.792,1.767c3.859,2.235,16.813,9.655,19.398,11.181c1.739,1.027,3.438,1.063,5.188,0.051
					c6.498-3.751,13.004-7.486,19.502-11.233c0.805-0.466,1.402-1.061,1.793-1.768c0.383-0.689,0.572-1.489,0.572-2.391
					C79.412,56.303,79.412,41.236,79.408,33.699"/>
			</g>
			<g>
				<path fill="#1A4674" d="M55.079,44.929L31.167,58.697c0.393,0.707,0.986,1.3,1.793,1.767
					c3.857,2.235,16.812,9.655,19.398,11.181c1.738,1.027,3.436,1.063,5.188,0.051c6.496-3.751,13.002-7.486,19.502-11.233
					c0.805-0.466,1.4-1.061,1.793-1.768L55.079,44.929"/>
			</g>
			<g>
				<path fill="#1A4674" d="M47.996,49.006c1.393,2.429,4.007,4.066,7.008,4.066c3.02,0,5.65-1.657,7.035-4.114l-6.96-4.03
					L47.996,49.006"/>
			</g>
			<g>
				<path fill="#1A4674" d="M79.408,33.699c0-0.922-0.197-1.738-0.596-2.437L55.079,44.929l23.763,13.765
					c0.381-0.689,0.57-1.489,0.57-2.391C79.412,56.303,79.412,41.236,79.408,33.699"/>
			</g>
			<g>
				<path fill="#FFFFFF" d="M78.103,45.912h-1.855v1.857H74.39v-1.857h-1.857v-1.855h1.857v-1.857h1.857v1.857h1.855V45.912"/>
			</g>
			<g>
				<path fill="#FFFFFF" d="M71.326,45.912h-1.854v1.857h-1.859v-1.857h-1.855v-1.855h1.855v-1.857h1.857v1.857h1.855V45.912"/>
			</g>
			<g>
				<path fill="#FFFFFF" d="M62.039,48.958c-1.385,2.457-4.016,4.114-7.035,4.114c-3,0-5.615-1.638-7.008-4.066
					c-0.676-1.181-1.064-2.546-1.064-4.005c0-4.458,3.613-8.073,8.072-8.073c2.98,0,5.584,1.619,6.98,4.022l7.055-4.063
					c-2.805-4.841-8.039-8.097-14.036-8.097c-8.954,0-16.212,7.258-16.212,16.21c0,2.938,0.781,5.691,2.147,8.066
					c2.798,4.867,8.048,8.145,14.064,8.145c6.026,0,11.286-3.291,14.079-8.171L62.039,48.958"/>
			</g>
		</g>
	</g>
	<path fill-rule="evenodd" clip-rule="evenodd" fill="#D89000" d="M74.57,112.132c-2.076-4.863-4.162-9.717-6.242-14.58
		c-0.076-0.18-0.148-0.382-0.148-0.575c-0.006-4.43-0.004-8.861-0.002-13.293c0-0.144,0.021-0.287,0.035-0.439
		c0.182-0.01,0.316-0.016,0.449-0.021c0.572-0.019,0.84-0.222,0.844-0.648c0.006-0.447-0.266-0.654-0.875-0.656
		c-1.246-0.004-2.494-0.004-3.74-0.004c-2.189,0-4.381,0.004-6.57,0.007c-0.602,0-0.883,0.221-0.879,0.656
		c0.006,0.417,0.287,0.627,0.85,0.646c0.148,0.005,0.293,0.022,0.445,0.033v13.388c-0.113-0.194-0.156-0.264-0.195-0.335
		c-1.658-3.178-4.154-5.431-7.486-6.743c-0.336-0.134-0.404-0.31-0.404-0.636c0.01-4.45,0.004-8.897,0.006-13.346
		c0-0.16,0.023-0.319,0.039-0.521c0.254,0,0.454,0.015,0.651-0.001c0.394-0.028,0.632-0.243,0.638-0.639
		c0.008-0.377-0.229-0.581-0.582-0.65c-0.114-0.021-0.235-0.012-0.354-0.012c-3.386,0-6.772,0-10.16,0.003
		c-0.134,0-0.272-0.01-0.404,0.014c-0.36,0.064-0.581,0.28-0.569,0.655c0.012,0.365,0.213,0.596,0.594,0.624
		c0.217,0.016,0.436,0.002,0.701,0.002c0.02,0.217,0.04,0.35,0.04,0.48c0.004,4.482,0,8.963,0.009,13.446
		c0.002,0.33-0.147,0.44-0.418,0.58c-1.078,0.549-2.225,1.018-3.18,1.738c-4.201,3.17-6.198,7.42-5.77,12.687
		c0.69,8.471,8.795,14.404,17.084,12.537c1.202-0.273,2.389,1.453,3.616,1.057c0.667,1.027,2.169,0.709,3.458,0.707
		c5.309-0.004,10.121-1.395,15.43-1.432c0.598-0.006,1.252-0.166,1.783-0.445C74.787,115.611,75.298,113.843,74.57,112.132z
		 M57.931,99.2c-0.371,0.774-0.707,1.563-1.016,2.365c-0.102,0.264-0.23,0.412-0.439,0.48c-0.238-0.549-0.535-1.063-0.779-1.473
		c-0.672-1.137-1.451-2.208-2.252-3.257c-0.984-1.281-1.98-2.564-3.175-3.659c-0.861-0.792-1.776-1.557-2.767-2.179
		c0-0.377-0.001-0.752-0.001-1.125c0.001-2.403-0.017-4.807-0.011-7.21c0.004-1.033-0.001-2.066,0.007-3.102
		c0.005-0.627,0.102-1.444-0.196-2.034c0.563-0.001,1.122-0.013,1.678-0.049c0.125-0.01,0.244-0.038,0.357-0.087
		c0.002,3.844,0.002,7.686,0.004,11.527c0,0.898,0.039,0.934,0.86,1.236c3.702,1.369,6.263,3.911,7.745,7.556
		C58.091,98.538,58.101,98.843,57.931,99.2z M72.681,115.248c-0.051-1.023-0.457-1.994-0.961-2.93
		c-1.152-2.727-2.313-5.447-3.451-8.182c-0.031-0.076-0.066-0.148-0.104-0.211c-0.568-1.4-1.225-2.798-2.008-4.09
		c-0.029-0.05-0.064-0.099-0.096-0.145c-0.01-0.619-0.021-1.235-0.023-1.848c-0.002-1.439-0.008-2.878-0.008-4.318
		c-0.008-3.223,0.031-6.448-0.004-9.672c0-0.214-0.061-0.417-0.158-0.599h1.002c0,0.231,0,0.43,0,0.625
		c-0.006,4.264-0.002,8.525-0.02,12.786c-0.002,0.607,0.143,1.148,0.381,1.702c2.076,4.804,4.141,9.612,6.188,14.431
		C73.841,113.791,73.488,114.767,72.681,115.248z"/>
	<g id="Layer_2_1_">
		<g id="Layer_16">
			<path opacity="0.13" enable-background="new    " d="M10.168,38.152v53.121l46.073,26.559l46.074-26.559V38.152l-46.074-26.56
				L10.168,38.152z M100.451,39.232v50.97l-44.209,25.49l-44.211-25.49v-50.97l44.211-25.489L100.451,39.232z"/>
		</g>
	</g>
</g>
<g id="Layer_3">
</g>
<g id="Layer_2">
</g>
</svg>
