<svg xmlns="http://www.w3.org/2000/svg" xmlns:xlink="http://www.w3.org/1999/xlink" width="111.167" height="128.417" viewBox="0 0 111.167 128.417"><path fill="#E0658B" d="M110.851 96.417l-55.426 32L0 96.417V32.418l55.425-32 55.426 32z"/><path fill="#F48C8C" d="M55.925 11.596l7.549 4.362 14.531 8.388 1.039.601 2.301 1.319.869.5 3.692 2.131.09.05 1.808 1.04 3.781 2.189.04.021v.011l.259.149.66.38 1.461.84 1.94 1.12.779.45.442.25 1.939 1.119 2.82 1.631v53.13l-.009.01-1.42.82-9 5.189-.241.121-.13.06-.11.06-3.029 1.74-1.871 1.08-.039.029-3.25 1.88-2.25 1.301-1.461.85-.18.099-.019.011-1.711.989-.959.551-4.621 2.67-.629.37-.061.029-3.5 2.021-4.039 2.33-.012.01-.429.25-7.08 4.089-7.571-4.379-.039-.02-2.07-1.2-5.36-3.101-.69-.399-5.09-2.941-.88-.509-.33-.191-1.851-1.069-.569-.33-7.13-4.12-.091-.05-4.67-2.7-9.609-5.55v-53.13l14.33-8.28 6.92-3.99 1.58-.91.17-.1 1.66-.95 1.159-.67 1.54-.901 2.801-1.609.689-.401 1.46-.839 5.721-3.3.459-.26z"/><g fill="#E0658B"><path d="M30.916 40.708h-4.735V17.772h4.735zm10.506 0h-4.734V17.772h4.734z"/><path d="M22.333 26.354V21.62h22.936v4.734zm0 10.506v-4.735h22.936v4.735z"/></g><g fill="#E0658B"><path d="M73.312 44.998h-4.734V22.063h4.734zm10.508 0h-4.735V22.063h4.735z"/><path d="M64.73 30.645V25.91h22.937v4.735zm0 10.506v-4.735h22.937v4.735z"/></g><g fill="#E0658B"><path d="M13.475 76.343H8.739V53.407h4.736zm10.506 0h-4.733V53.407h4.733z"/><path d="M4.893 61.989v-4.735H27.83v4.735zm0 10.507v-4.737H27.83v4.737z"/></g><g fill="#E0658B"><path d="M88.902 80.83h-4.735V57.895h4.735zm10.508 0h-4.737V57.895h4.737z"/><path d="M80.32 66.476v-4.734h22.935v4.734zm0 10.504v-4.734h22.935v4.734z"/></g><g fill="#E0658B"><path d="M74.546 113.265h-4.734V90.33h4.734zm9.008-2.082H78.82V88.248h4.734z"/><path d="M65.964 98.912v-4.735h22.938v4.735zm0 10.505v-4.734h22.938v4.734z"/></g><g fill="#E0658B"><path d="M29.508 107.05h-4.735V84.115h4.735zm10.508 0H35.28V84.115h4.736z"/><path d="M20.926 92.697v-4.735h22.937v4.735zm0 10.506v-4.735h22.937v4.735z"/></g><defs><path id="a" d="M30.093 17.114h51.166V74.62H30.093z"/></defs><clipPath id="b"><use xlink:href="#a" overflow="visible"/></clipPath><path clip-path="url(#b)" fill="#692876" d="M81.255 34.021c0-.966-.207-1.821-.625-2.555-.41-.722-1.025-1.326-1.85-1.804-6.813-3.927-13.631-7.843-20.441-11.774-1.834-1.06-3.613-1.021-5.436.054-2.712 1.599-16.285 9.376-20.331 11.719-1.666.965-2.476 2.44-2.477 4.358-.002 7.898 0 15.797-.002 23.695 0 .945.199 1.783.598 2.506.411.743 1.035 1.365 1.879 1.853 4.045 2.344 17.621 10.119 20.332 11.719 1.822 1.076 3.602 1.114 5.439.053 6.809-3.931 13.627-7.847 20.441-11.773.844-.489 1.467-1.109 1.879-1.852.398-.723.598-1.562.598-2.507 0-.001 0-15.793-.004-23.692"/><defs><path id="c" d="M30.093 17.114h51.166V74.62H30.093z"/></defs><clipPath id="d"><use xlink:href="#c" overflow="visible"/></clipPath><path clip-path="url(#d)" fill="#692876" d="M55.755 45.791L30.691 60.22c.411.743 1.035 1.364 1.879 1.852 4.045 2.344 17.621 10.119 20.332 11.72 1.822 1.075 3.602 1.114 5.439.053 6.809-3.931 13.627-7.847 20.441-11.773.844-.489 1.467-1.11 1.879-1.853L55.755 45.791"/><path fill="#692876" d="M48.331 50.064a8.458 8.458 0 0 0 14.718-.049l-7.293-4.225-7.425 4.274"/><path fill="#692876" d="M81.255 34.021c0-.966-.207-1.821-.625-2.555L55.755 45.791l24.906 14.428c.398-.721.598-1.56.598-2.506 0-.001 0-15.793-.004-23.692"/><path fill="#FFF" d="M63.048 50.015a8.453 8.453 0 0 1-7.371 4.313 8.455 8.455 0 0 1-7.347-4.264 8.462 8.462 0 0 1 7.347-12.659 8.45 8.45 0 0 1 7.316 4.217l7.395-4.258c-2.938-5.074-8.426-8.488-14.711-8.488-9.387 0-16.993 7.607-16.993 16.991 0 3.079.819 5.966 2.25 8.455 2.932 5.101 8.435 8.535 14.741 8.535 6.316 0 11.83-3.447 14.756-8.563l-7.383-4.279m9.346-.026h-1.682v-8.14h1.682zm3.729 0h-1.68v-8.14h1.68z"/><path fill="#FFF" d="M69.347 44.895v-1.68h8.141v1.68zm0 3.729v-1.681h8.141v1.681z"/><g><path opacity=".13" d="M9.819 38.162v53.121l46.073 26.559 46.074-26.559V38.162l-46.074-26.56-46.073 26.56zm90.282 1.08v50.971l-44.209 25.49-44.211-25.49V39.242l44.211-25.488 44.209 25.488z"/></g><path fill-rule="evenodd" clip-rule="evenodd" fill="#692876" d="M79.126 78.809c-.16-.476-.053-.396-.563-.397-6.348-.016-12.697-.027-19.043-.038-6.002-.01-12.004-.018-18.003-.026-.633-.001-.67.004-.853.518-2.536-.087-5.088-.012-7.625.006-2.305.016-4.861-.239-7.19.11a1.583 1.583 0 0 0-.632.119c-.146.03-.295.053-.439.088a.184.184 0 0 0-.115.088.456.456 0 0 0-.277.192c-.245.363-.095.898.169 1.229.021.189.145.404.379.629a9.535 9.535 0 0 0 1.597 1.224c1.541.955 3.233 1.617 4.95 2.231 2.939 1.055 5.937 1.947 8.953 2.784.229.065.307.162.315.383.014.44.068.88.088 1.32.006.083.03.139.074.183.302.903 1.691 1.017 3.004 1.427 3.055.955 3.893 5.027 1.83 7.246-.725.781-1.643 1.354-2.566 1.865-.444.12-.875.297-1.264.495-.429.219-1.081.759-1.114 1.319a.695.695 0 0 0-.18.654c.026.678.037 1.358.064 2.037.025.58.068 1.163.104 1.771h.332c.769.002 1.542-.042 2.308.019.527.039.96-.049 1.307-.348.639-.201 1.229-.518 1.887-.752 1.697-.603 3.419-.937 5.181-1.125 2.827.028 5.653.058 8.481.08 2.242.317 4.406.926 6.096 2.012a.593.593 0 0 0 .441.088.608.608 0 0 0 .162.031c1.199.015 2.4.01 3.6.008.094 0 .18-.01.307-.016 0-.973-.012-1.924.006-2.873.008-.445-.09-.824-.438-1.084-.277-.871-1.23-1.878-1.588-2.365-1.992-2.734-3.799-4.49-2.109-8.134 1.605-3.459 6.164-4.78 9.264-6.447 1.359-.73 2.639-.993 2.828-2.192.18-.113.264-.271.264-.508.004-.405 0-.81.012-1.213.012-.42-.012-.848.063-1.257.086-.471.086-.922-.067-1.381zm-8.468 3.623H45.042c-1.273 0-1.273-1.976 0-1.976h25.615c1.276.001 1.276 1.976.001 1.976zm4.156-.474l-.063.062c-.902.902-2.299-.494-1.396-1.396l.063-.062c.902-.902 2.298.494 1.396 1.396z"/></svg>