<?xml version="1.0" encoding="utf-8"?>
<!-- Generator: Adobe Illustrator 16.0.0, SVG Export Plug-In . SVG Version: 6.00 Build 0)  -->
<!DOCTYPE svg PUBLIC "-//W3C//DTD SVG 1.1//EN" "http://www.w3.org/Graphics/SVG/1.1/DTD/svg11.dtd">
<svg version="1.1" id="Layer_1" xmlns="http://www.w3.org/2000/svg" xmlns:xlink="http://www.w3.org/1999/xlink" x="0px" y="0px"
	 width="111px" height="128.479px" viewBox="0 0 111 128.479" enable-background="new 0 0 111 128.479" xml:space="preserve">
<g id="Layer_63_8_">
	<polygon fill="#EA2F21" points="110.851,96.479 55.423,128.479 0,96.479 0,32.479 55.423,0.479 110.851,32.479 	"/>
</g>
<radialGradient id="SVGID_1_" cx="55.9243" cy="64.7686" r="49.688" gradientUnits="userSpaceOnUse">
	<stop  offset="0" style="stop-color:#00D431"/>
	<stop  offset="1" style="stop-color:#007F5A"/>
</radialGradient>
<path fill="url(#SVGID_1_)" d="M101.925,38.199v53.14l-0.01,0.01l-0.68,0.391l-0.74,0.42l-4.15,2.39l-0.201,0.12l-1.93,1.11
	l-2.719,1.569l-0.24,0.13l-0.131,0.051l-0.109,0.069l-3.029,1.74l-0.521,0.3l-0.299,0.17l-1.051,0.601l-0.039,0.029l-1.23,0.71
	l-0.451,0.261l-0.02,0.02h-0.01l-1.539,0.89l-0.24,0.141l-0.631,0.38l-1.26,0.72l-0.119,0.07l-0.08,0.05l-0.41,0.24l-0.031,0.01
	l-0.16,0.09v0.011l-0.779,0.449l-0.18,0.09l-0.02,0.021l-0.041,0.02l-1.01,0.58l-0.16,0.091l-0.129,0.079l-0.371,0.21l-0.24,0.141
	h-0.01l-0.709,0.42l-3.41,1.97l-1.211,0.7l-0.629,0.36l-0.061,0.029l-2.971,1.721l-0.529,0.31l-4.041,2.33l-0.01,0.01l-0.301,0.17
	l-0.129,0.08l-4.75,2.74l-0.961,0.55l-0.561,0.32h-0.01l-0.32,0.189l-0.479,0.28l-1.42-0.82l-0.852-0.489l-0.029-0.011l-0.24-0.14
	l-1.5-0.87l-3.369-1.95l-0.16-0.09l-0.041-0.029l-2.068-1.19l-2.611-1.51l-2.75-1.601l-0.689-0.39l-1.439-0.83l-3.65-2.12
	l-0.391-0.22l-0.49-0.28l-0.33-0.2l-0.01-0.01l-1.839-1.05l-0.57-0.33l-1.71-0.99l-0.75-0.439l-1.76-1.021l-2.09-1.2l-0.82-0.47
	l-0.09-0.05l-0.12-0.07l-0.38-0.22l-0.01-0.01l-0.21-0.12h-0.011l-1.04-0.601c-0.01-0.01-0.01-0.01-0.02-0.01l-1.86-1.08l-1.02-0.59
	l-2.11-1.229l-0.29-0.17c0,0-0.01,0-0.02-0.011l-0.28-0.16l-3.3-1.899l-3.5-2.021l-0.08-0.04l-0.03-0.02v-53.14l0.93-0.54l13.4-7.73
	l1.99-1.16l4.93-2.83l1.579-0.92l0.17-0.09l1.66-0.95l0.781-0.449l0.379-0.221l0.439-0.26l1.102-0.65l0.52-0.3l1.299-0.74l0.98-0.56
	l0.691-0.41l1.398-0.8h0.01l0.051-0.03l5.721-3.3l0.189-0.11l0.27-0.159l6.07-3.511l1.439-0.83l1.061,0.62l6.49,3.75l2.602,1.5
	l4.91,2.83l7.02,4.05l1.039,0.61l2.301,1.31l0.869,0.5l0.92,0.551c0,0,0.01,0,0.021,0l0.58,0.33l1.369,0.79l0.801,0.46l0.09,0.06
	l1.809,1.04l1.65,0.95l2.131,1.229l0.039,0.03v0.01l0.26,0.141l0.66,0.39l1.461,0.84l1.939,1.12l0.779,0.44l0.441,0.25l1.939,1.119
	L101.925,38.199z"/>
<polygon fill="#1FA338" points="75.351,95.048 79.517,97.465 83.434,95.298 87.684,95.048 80.517,83.798 84.351,83.548 
	77.601,72.632 79.351,72.298 71.934,60.632 74.601,60.548 67.601,49.965 68.267,48.465 61.934,38.132 55.934,34.215 50.684,37.798 
	43.851,47.715 45.184,49.715 37.434,60.882 40.684,60.715 33.017,71.965 34.851,72.382 27.684,83.548 31.267,83.715 24.601,94.632 
	28.101,95.048 32.017,97.465 36.767,95.048 41.767,97.465 46.851,95.132 50.351,97.798 55.934,95.048 61.267,97.548 66.351,94.715 
	69.934,97.632 "/>
<polygon fill="#604530" points="61.125,114.859 60.955,114.96 60.755,115.08 56.585,117.479 55.895,117.88 55.665,117.75 
	55.055,117.399 52.045,115.66 52.015,115.64 51.984,115.63 51.955,115.609 51.715,115.47 51.494,115.34 51.465,115.32 
	51.015,115.06 51.015,105.78 51.068,99.121 55.625,95.72 55.725,95.51 55.935,95.05 56.114,95.45 56.244,95.74 61.256,98.746 
	60.935,106.12 61.074,112.75 "/>
<g>
	<circle fill="#FFCE08" cx="47.662" cy="66.652" r="1.563"/>
	
		<ellipse transform="matrix(0.6123 0.7907 -0.7907 0.6123 70.9617 -12.4579)" fill="#FFFFFF" cx="48.183" cy="66.122" rx="0.646" ry="0.398"/>
</g>
<g>
	<circle fill="#8E2ABE" cx="56.225" cy="67.184" r="1.563"/>
	
		<ellipse transform="matrix(0.6123 0.7907 -0.7907 0.6123 74.7017 -19.0218)" fill="#FFFFFF" cx="56.745" cy="66.653" rx="0.646" ry="0.398"/>
</g>
<g>
	<circle fill="#8E2ABE" cx="70.818" cy="69.215" r="1.563"/>
	
		<ellipse transform="matrix(0.6123 0.7907 -0.7907 0.6123 81.9662 -29.7729)" fill="#FFFFFF" cx="71.339" cy="68.685" rx="0.646" ry="0.398"/>
</g>
<g>
	<circle fill="#3E00FF" cx="75.475" cy="76.621" r="1.563"/>
	
		<ellipse transform="matrix(0.6123 0.7907 -0.7907 0.6123 89.6274 -30.5827)" fill="#FFFFFF" cx="75.995" cy="76.091" rx="0.646" ry="0.398"/>
</g>
<g>
	<circle fill="#3E00FF" cx="53.318" cy="79.965" r="1.563"/>
	
		<ellipse transform="matrix(0.6123 0.7907 -0.7907 0.6123 83.6804 -11.7683)" fill="#FFFFFF" cx="53.839" cy="79.435" rx="0.646" ry="0.398"/>
</g>
<g>
	<circle fill="#25E899" cx="49.475" cy="87.902" r="1.563"/>
	
		<ellipse transform="matrix(0.6123 0.7907 -0.7907 0.6123 88.4659 -5.6516)" fill="#FFFFFF" cx="49.995" cy="87.372" rx="0.646" ry="0.398"/>
</g>
<g>
	<circle fill="#FFCE08" cx="60.568" cy="87.121" r="1.563"/>
	
		<ellipse transform="matrix(0.6123 0.7907 -0.7907 0.6123 92.1496 -14.7258)" fill="#FFFFFF" cx="61.089" cy="86.591" rx="0.646" ry="0.398"/>
</g>
<g>
	<circle fill="#3E00FF" cx="71.662" cy="90.184" r="1.563"/>
	
		<ellipse transform="matrix(0.6123 0.7907 -0.7907 0.6123 98.8724 -22.3096)" fill="#FFFFFF" cx="72.183" cy="89.653" rx="0.646" ry="0.398"/>
</g>
<g>
	<circle fill="#8E2ABE" cx="39.193" cy="90.621" r="1.563"/>
	
		<ellipse transform="matrix(0.6123 0.7907 -0.7907 0.6123 86.629 3.5315)" fill="#FFFFFF" cx="39.714" cy="90.091" rx="0.646" ry="0.398"/>
</g>
<g>
	<circle fill="#F9006C" cx="37.287" cy="78.496" r="1.563"/>
	
		<ellipse transform="matrix(0.6123 0.7907 -0.7907 0.6123 76.3032 0.3374)" fill="#FFFFFF" cx="37.808" cy="77.966" rx="0.646" ry="0.398"/>
</g>
<g>
	<circle fill="#25E899" cx="65.787" cy="57.152" r="1.563"/>
	
		<ellipse transform="matrix(0.6123 0.7907 -0.7907 0.6123 70.4782 -30.4719)" fill="#FFFFFF" cx="66.308" cy="56.622" rx="0.646" ry="0.398"/>
</g>
<g>
	<circle fill="#25E899" cx="55.912" cy="42.902" r="1.563"/>
	
		<ellipse transform="matrix(0.6123 0.7907 -0.7907 0.6123 55.3825 -28.1895)" fill="#FFFFFF" cx="56.433" cy="42.372" rx="0.646" ry="0.398"/>
</g>
<polygon fill="#FFCE08" points="56.309,21.097 58.355,27.397 64.98,27.397 59.621,31.291 61.668,37.592 56.309,33.698 
	50.949,37.592 52.996,31.291 47.637,27.397 54.262,27.397 "/>
<path fill="#007018" d="M53.306,81.95c-1.5,1.122-2.977-1.571-1.932-2.747c0.712-0.801,1.683-1.225,1.767-2.405
	c0.046-0.644-0.954-0.64-1,0c-0.061,0.845-1.261,1.355-1.72,1.988c-0.51,0.702-0.54,1.474-0.312,2.291
	c0.427,1.529,2.256,2.818,3.7,1.736C54.319,82.432,53.822,81.563,53.306,81.95z"/>
<path fill="#007018" d="M72.618,70.703c-0.127-0.065-0.247-0.133-0.364-0.213c-0.012-0.008-0.016-0.019-0.027-0.027
	c-0.317,0.191-0.613,0.406-0.939,0.614c-0.631,0.404-1.954,0.187-2.392-0.418c-0.479-0.664-0.402-2.369,0.62-2.486
	c0.633-0.072,0.64-1.073,0-1c-1.713,0.196-2.23,2.176-1.674,3.608c0.327,0.842,1.181,1.349,2.059,1.432
	c0.532,0.051,1.071,0.04,1.582-0.128c0.518-0.17,0.863-0.621,1.347-0.849c-0.037-0.039-0.072-0.084-0.099-0.145
	C72.67,70.954,72.637,70.829,72.618,70.703z"/>
<path fill="#005B25" d="M87.191,93.816c-0.573-0.084-1.121-0.033-1.698-0.011c-0.753,0.028-1.469-0.188-2.227-0.09
	c-0.343,0.045-0.494,0.359-0.465,0.625c-0.735,0.297-1.456,0.618-2.17,0.978c-0.381,0.192-0.866,0.398-1.252,0.686
	c-0.909-0.614-1.832-1.224-2.551-2.059c-0.039-0.045-0.082-0.07-0.124-0.096c0.076-0.041,0.154-0.078,0.23-0.119
	c0.568-0.307,0.063-1.17-0.504-0.863c-1.439,0.777-2.926,1.487-4.418,2.157c-0.401,0.181-1.083,0.404-1.63,0.723
	c-0.981-0.43-1.927-0.974-2.74-1.654c0.073-0.017,0.14-0.048,0.215-0.062c0.634-0.112,0.364-1.076-0.266-0.965
	c-1.044,0.186-1.964,0.704-2.88,1.215c-1.194,0.665-2.45,1.261-3.745,1.702c-0.08,0.027-0.144,0.069-0.194,0.119
	c-1.281-0.69-2.521-1.458-3.814-2.128c-0.039-0.32-0.373-0.614-0.735-0.399c-0.021,0.013-0.044,0.022-0.064,0.034
	c-0.204-0.015-0.381,0.099-0.48,0.257c-1.058,0.554-2.217,0.987-3.326,1.392c-0.028,0.011-0.059,0.023-0.087,0.034
	c-1.789-0.83-3.101-1.183-4.311-3.031c-0.527-0.807-0.9-1.603-1.127-2.403c0.005,0.007,0.009,0.013,0.014,0.02
	c0.671,0.867,1.873,0.935,2.849,0.654c0.618-0.178,0.355-1.144-0.266-0.965c-1.687,0.485-2.766-0.982-1.94-2.514
	c0.175-0.324,0.418-0.614,0.651-0.898c0.122-0.148,0.253-0.286,0.388-0.424c0.257-0.262,0.276-0.103,0.135-0.312
	c0,0,0.001-0.001,0.002-0.001c0.241,0.343,0.694,0.229,0.863-0.043c0.021,0.066,0.059,0.133,0.118,0.194
	c0.508,0.525,1.217,0.663,1.852,0.974c0.186,0.091,0.36,0.057,0.497-0.033c0.313,0.142,0.604,0.322,0.896,0.5
	c0.134,0.082,0.436,0.172,0.605,0.273c-0.054,0.384,0.469,0.769,0.856,0.432c0.726-0.63,1.873-0.895,2.711-1.359
	c0.178-0.099,0.36-0.189,0.542-0.281c-0.33,0.845-0.322,1.831,0.086,2.777c0.338,0.783,1.156,1.52,2.03,1.592
	c1.207,0.099,1.984-0.559,2.798-1.354c0.462-0.451-0.246-1.158-0.707-0.707c-0.408,0.398-0.781,0.799-1.327,1.003
	c-0.041-0.071-0.098-0.138-0.192-0.186c-0.501-0.254-1.331-0.505-1.52-1.097c-0.07-0.221-0.242-0.324-0.422-0.343
	c-0.234-1.159,0.552-2.349,1.697-2.709c0.201-0.063,0.297-0.211,0.325-0.372c0.054,0.009,0.106,0.01,0.159,0.009
	c0.019,0.013,0.023,0.031,0.047,0.042c2.065,0.941,4.251,1.678,6.292,2.646c0.022,0.011,0.044,0.009,0.066,0.017
	c0.134,0.188,0.372,0.291,0.625,0.13c0.926-0.589,1.913-1.091,2.869-1.628c0.298-0.167,0.856-0.394,1.346-0.672
	c1.535,0.758,3.075,1.406,4.692,2.003c0.121,0.267,0.436,0.424,0.69,0.226c0.217,0,0.368-0.157,0.418-0.354
	c0.195-0.134,0.409-0.251,0.594-0.378c0.364-0.253,0.723-0.515,1.078-0.779c0.583-0.434,1.077-0.994,1.75-1.292
	c0.589-0.261,0.08-1.122-0.504-0.863c-0.75,0.332-1.315,0.968-1.965,1.451c-0.488,0.363-1.132,0.683-1.626,1.092
	c-1.483-0.541-2.901-1.132-4.307-1.811c0.023-0.042,0.056-0.083,0.069-0.127c0.189-0.6-0.715-0.857-0.942-0.306
	c-0.002-0.001-0.003-0.002-0.005-0.003c0.071-0.185,0.141-0.181-0.055-0.057c-0.009,0.006-0.019,0.011-0.027,0.017
	c-0.061-0.031-0.12-0.059-0.181-0.09c-0.452-0.234-0.854,0.256-0.722,0.618c-0.39,0.224-0.78,0.446-1.173,0.665
	c-0.742,0.416-1.5,0.817-2.227,1.262c-0.435-0.205-0.876-0.398-1.321-0.587c-0.021-0.033-0.032-0.07-0.065-0.101
	c-0.224-0.202-0.573-0.296-0.861-0.367c-0.299-0.074-0.592-0.193-0.884-0.321c0.339-0.202,0.392-0.8-0.095-0.908
	c-1.298-0.29-2.422-1.032-3.779-1.08c-0.459-0.016-0.584,0.481-0.391,0.78c-0.109-0.034-0.229-0.04-0.36,0.038
	c-0.585,0.347-1.2,0.644-1.816,0.939c-0.077-0.061-0.175-0.102-0.307-0.091c-0.839,0.066-1.464,0.592-2.221,0.896
	c-0.39,0.156-1.013,0.348-1.272,0.744c-0.19-0.1-0.392-0.187-0.569-0.292c-0.4-0.238-0.813-0.442-1.221-0.666
	c-0.308-0.169-0.605-0.354-0.902-0.541c-0.17-0.107-0.338-0.219-0.503-0.334c-0.295-0.204-0.119-0.231-0.146,0.068
	c0.032-0.359-0.267-0.509-0.546-0.465c0.024-0.266-0.13-0.56-0.474-0.577c-0.67-0.035-1.313,0.828-1.794,1.193
	c-0.224,0.17-0.445,0.329-0.66,0.487c0.022-0.058,0.037-0.114,0.062-0.173c0.249-0.595-0.72-0.852-0.965-0.266
	c-0.084,0.201-0.147,0.393-0.217,0.586c-0.147-0.377-0.801-0.46-0.95,0.039c-0.12,0.403-0.21,0.803-0.29,1.202
	c-0.063-0.114-0.163-0.191-0.28-0.231c0.03-0.185-0.03-0.376-0.236-0.478c-0.353-0.174-0.705-0.33-1.055-0.489
	c0.285-0.183,0.396-0.638,0.012-0.845c-0.047-0.025-0.082-0.073-0.127-0.104c0.011-0.067,0.008-0.141-0.017-0.221
	c-0.536-1.796-1.09-3.305-0.825-5.24c0.153-1.129,0.854-2.538,1.798-3.612c0.386-0.232,0.769-0.467,1.143-0.721
	c0.197-0.134,0.376-0.283,0.554-0.434c0.55,0.368,1.16,0.618,1.779,0.91c0.413,0.194,0.928,0.58,1.431,0.741
	c0.031,0.28,0.258,0.537,0.604,0.428c1.102-0.35,2.061-0.976,3.077-1.509c0.674-0.353,1.396-0.589,2.105-0.859
	c1.656,1.002,3.616,1.482,5.081,2.781c0.143,0.127,0.304,0.146,0.449,0.11c0.167,0.228,0.483,0.333,0.716,0.057
	c0.501-0.597,1.189-0.938,1.854-1.316c-0.152,0.55-0.208,1.129-0.18,1.604c0.048,0.828,0.598,1.706,1.284,2.162
	c0.384,0.256,0.73,0.376,1.188,0.404c0.573,0.035,0.948-0.475,1.466-0.602c0.626-0.154,0.36-1.119-0.266-0.965
	c-0.573,0.142-1.023,0.749-1.666,0.444c-0.586-0.277-0.981-1.011-1.018-1.632c-0.047-0.798,0.261-2.42,1.316-2.33
	c0.188,0.016,0.313-0.063,0.391-0.177c0.101-0.059,0.184-0.142,0.217-0.273c0.011-0.029,0.021-0.059,0.032-0.089
	c0.063-0.115,0.068-0.226,0.049-0.327c1.078,0.793,2.444,1.23,3.645,1.787c0.448,0.208,1.249,0.89,1.847,0.852
	c0.14,0.108,0.33,0.149,0.53,0.034c0.166-0.095,0.316-0.208,0.464-0.325c-0.047,0.18-0.065,0.357-0.085,0.534
	c-0.146,0.14-0.21,0.35-0.063,0.57c0.022,0.033,0.041,0.067,0.063,0.102c0.007,0.063,0,0.133,0.012,0.195
	c0.188,0.973,1.138,1.952,2.068,2.243c0.507,0.159,0.965,0.18,1.483,0.07c0.694-0.146,1.046-0.798,1.641-1.098
	c0.576-0.29,0.07-1.152-0.504-0.863c-0.505,0.254-0.828,0.721-1.319,0.935c-0.051-0.118-0.146-0.221-0.296-0.277
	c-0.517-0.193-1.171-0.309-1.577-0.701c-0.242-0.234-0.399-0.575-0.571-0.881c-0.069-1.108,1.149-2.664,2.183-2.602
	c0.441,0.026,0.571-0.431,0.407-0.736c0.006-0.001,0.012-0.001,0.017-0.002c0.186-0.033,0.371-0.067,0.558-0.097
	c0.084-0.014,0.17-0.021,0.255-0.025c0.188-0.013,0.175,0.074-0.006-0.078c0.489,0.414,1.2-0.29,0.707-0.707
	c-0.334-0.283-0.774-0.233-1.188-0.161c0.276-0.5-0.529-0.942-0.89-0.445c-0.077,0.106-0.168,0.203-0.255,0.303
	c-0.174-0.092-0.395-0.101-0.584,0.054c-0.61,0.497-1.22,0.992-1.807,1.518c-0.955,0.855-1.394,0.911-2.466,0.321
	c-1.157-0.637-2.299-1.321-3.616-1.551c-0.118-0.021-0.219,0.005-0.308,0.048c-0.15-0.258-0.495-0.406-0.762-0.127
	c-1.337,1.398-3.438,1.916-4.757,3.296c-0.384-0.333-0.798-0.611-1.229-0.859c0.049-0.193,0.004-0.412-0.2-0.557
	c-0.953-0.675-1.834-1.457-2.875-2c-0.023-0.013-0.046-0.012-0.069-0.02c-0.076-0.07-0.173-0.117-0.279-0.125
	c-0.041-0.066-0.094-0.123-0.167-0.161c-0.081-0.096-0.201-0.165-0.361-0.18c-0.397-0.036-0.796,0.036-1.062,0.355
	c-0.029,0.036-0.049,0.073-0.068,0.11c-0.005,0.006-0.011,0.009-0.016,0.015c-0.041,0.049-0.07,0.1-0.09,0.151
	c-0.191,0.124-0.307,0.344-0.216,0.546c-0.422,0.162-0.847,0.317-1.265,0.485c-0.955,0.386-1.803,0.979-2.744,1.384
	c-0.014-0.02-0.016-0.046-0.033-0.063c0.173-0.22,0.191-0.55-0.13-0.707c-0.502-0.245-1.174-0.456-1.706-0.79
	c0.035-0.177-0.031-0.36-0.252-0.46c-0.208-0.094-0.396-0.202-0.584-0.334c-0.113-0.079-0.232-0.093-0.344-0.066
	c-0.043-0.033-0.091-0.063-0.144-0.081c-0.104-0.271-0.451-0.446-0.725-0.269c-0.754,0.489-1.516,0.963-2.283,1.432
	c-0.107-0.094-0.252-0.147-0.431-0.107c-0.338,0.077-0.789,0.348-1.137,0.696c-0.208-0.187-0.576-0.227-0.787,0.075
	c-0.145,0.207-0.261,0.429-0.355,0.661c-0.027-0.031-0.049-0.064-0.086-0.091c-0.09-0.071-0.181-0.143-0.271-0.213
	c0.04-0.226-0.054-0.457-0.348-0.504c-0.165-0.026-0.316-0.076-0.466-0.133c-0.085-0.067-0.173-0.098-0.26-0.108l-0.1-0.044
	c-0.343-0.229-0.671-0.42-1.001-0.543c0.003-0.184-0.064-0.334-0.222-0.455c-0.343-0.264-0.747-0.296-1.16-0.231
	c-0.094-0.125-0.249-0.192-0.407-0.207c-1.363-0.131-2.41,0.873-3.116,1.952c-0.041,0.063-0.059,0.127-0.066,0.191
	c-0.178,0.238-0.35,0.482-0.514,0.735c-0.412,0.339-0.697,0.806-0.95,1.3c-0.233,0.371-0.457,0.783-0.647,1.21
	c-0.339,0.572-0.716,1.123-1.101,1.664c-0.521,0.733-1.084,2.217-1.875,2.678c-0.529,0.308-0.143,0.985,0.385,0.914
	c0.195-0.026,0.362-0.063,0.512-0.111c0.207,0.19,0.576,0.228,0.787-0.077c0.053-0.077,0.101-0.156,0.153-0.233
	c0.027,0.014,0.041,0.038,0.073,0.047c0.324,0.089,0.646,0.145,0.966,0.175c0.438,0.188,0.86,0.382,1.356,0.478
	c0.021,0.004,0.044,0.005,0.065,0.009c0.242,0.199,0.568,0.361,0.923,0.487c0.367,0.329,0.738,0.653,1.123,0.961
	c0.035,0.119,0.094,0.23,0.197,0.298c0.023,0.015,0.039,0.024,0.061,0.038c-0.069,0.021-0.141,0.043-0.202,0.095
	c0.001-0.005,0.002-0.009,0.003-0.014c0.072-0.432-0.321-0.778-0.734-0.564c-0.145,0.074-0.279,0.16-0.408,0.254
	c-0.081-0.279-0.381-0.399-0.648-0.298c0.034-0.14,0.006-0.271-0.067-0.374c0.005-0.008,0.01-0.016,0.016-0.023
	c0.384-0.524-0.48-1.007-0.863-0.504c-0.82,1.075-1.555,2.201-2.259,3.348c-0.558,0.682-0.992,1.427-1.374,2.231
	c-0.013,0.011-0.027,0.016-0.039,0.027c-0.886,0.881-1.573,1.83-2.161,2.935c-0.068,0.129-0.066,0.264-0.025,0.386
	c-0.092,0.116-0.184,0.233-0.271,0.353c-0.215,0.054-0.415,0.227-0.438,0.473c-0.01,0.099-0.019,0.195-0.028,0.294
	c-0.064,0.02-0.122,0.036-0.188,0.057c-0.527,0.163-0.446,1.002,0.133,0.982c0.468-0.016,0.85-0.106,1.215-0.32
	c0.094-0.027,0.188-0.051,0.281-0.076c0.412-0.09,0.832-0.147,1.295-0.146c0.059,0,0.109-0.014,0.158-0.031
	c0.022,0.032,0.039,0.064,0.072,0.094s0.069,0.049,0.103,0.076c0,0.001-0.001,0.001-0.001,0.002
	c0.004,0.002,0.008,0.004,0.012,0.007c1.306,1.102,2.818,1.663,4.363,2.368c0.435,0.198,0.804-0.18,0.736-0.534
	c0.075-0.004,0.152-0.015,0.226-0.05c0.577-0.273,0.571-0.277,1.022-0.671c0.609-0.117,1.122-0.361,1.579-0.865
	c0.117-0.129,0.148-0.271,0.13-0.404c0.571,0.318,1.167,0.585,1.779,0.811c0.457,0.224,0.921,0.437,1.36,0.672
	c0.214,0.101,0.417,0.049,0.56-0.07c0.025,0.006,0.05,0.014,0.075,0.021c-0.059,0.16-0.035,0.353,0.097,0.514
	c0.868,1.056,1.902,0.595,2.843-0.15c0.701-0.296,1.294-0.792,2.022-1.061c0.378-0.14,0.755-0.383,0.912-0.759
	c0.309,0.465,0.633,0.928,0.979,1.409c0.338,0.472,1.074,0.103,0.927-0.361c0.207,0.138,0.415,0.276,0.62,0.416
	c0.378,0.258,0.831,0.651,1.305,0.976c-0.004,0.376,0.469,0.645,0.78,0.426c0.171,0.065,0.341,0.116,0.508,0.126
	c0.52,0.031,0.61-0.604,0.294-0.876c0.199-0.109,0.421-0.194,0.645-0.274c0.083-0.008,0.157-0.035,0.224-0.078
	c0.337-0.112,0.669-0.213,0.941-0.337c0.913-0.418,1.861-0.739,2.755-1.19c1.745,0.88,3.376,1.965,5.14,2.813
	c0.562,0.271,1.046-0.53,0.544-0.833c0.803-0.312,1.59-0.662,2.365-1.038c0.794-0.385,1.548-0.862,2.353-1.215
	c0.023,0.075,0.062,0.149,0.137,0.216c0.007,0.006,0.015,0.011,0.021,0.017c-0.145,0.179-0.187,0.438,0.02,0.65
	c0.792,0.813,1.861,1.12,2.83,1.64c0.084,0.136,0.238,0.215,0.399,0.23c0.3,0.188,0.578,0.009,0.685-0.246
	c0.145,0.056,0.286,0.119,0.432,0.171c0.511,0.181,0.769-0.465,0.485-0.806c0.449-0.22,0.905-0.424,1.361-0.628
	c1.023-0.456,2.036-0.957,3.034-1.475c-0.021,0.091-0.01,0.186,0.022,0.279c-0.195,0.173-0.292,0.489-0.082,0.75
	c0.582,0.725,1.528,0.979,2.269,1.495c0.176,0.123,0.345,0.103,0.478,0.016c0.044,0.029,0.087,0.06,0.131,0.089
	c0.039,0.315,0.377,0.534,0.654,0.441c0.316,0.208,0.739-0.085,0.739-0.436v-0.209c0-0.004-0.002-0.006-0.002-0.009
	c0.31-0.18,0.676-0.322,0.913-0.44c0.893-0.446,1.779-0.857,2.722-1.193c0.158-0.057,0.254-0.166,0.303-0.291
	c0.259,0.017,0.517,0.046,0.781,0.076c0.662,0.076,1.325-0.091,1.983,0.007C87.557,94.874,87.828,93.91,87.191,93.816z
	 M34.862,77.906c0.21-0.259,0.397-0.531,0.56-0.821c0.234-0.238,0.44-0.496,0.646-0.756c0.037,0.006,0.072,0.015,0.114,0.011
	c0.341-0.029,0.614-0.136,0.919-0.287c0.385-0.191,0.805,0.006,1.162,0.177c0.043,0.021,0.084,0.023,0.126,0.032
	c0.013,0.089,0.04,0.179,0.106,0.265c0.368,0.472,0.365,0.479,0.745,0.712c0.128,0.118,0.271,0.229,0.405,0.343
	c0.002,0.284-0.011,0.572-0.039,0.864c-0.063,0.099-0.098,0.219-0.074,0.36c0.012,0.064,0.022,0.13,0.033,0.194
	c-0.002,0.017-0.01,0.03-0.009,0.048c0.002,0.07,0.009,0.139,0.013,0.208c-0.058,0.039-0.109,0.092-0.152,0.165
	c-0.223,0.377-0.771,1.1-1.361,1.466c-0.025-0.01-0.046-0.023-0.074-0.029c-0.574-0.108-1.363-0.285-2.043-0.604
	C35.556,79.583,35.351,78.533,34.862,77.906z M36.375,85.513c0.033-0.111,0.039-0.233,0.003-0.345
	c0.542-0.146,1.031-0.343,1.482-0.607c-0.438,0.288-0.811,0.664-1.116,1.083C36.639,85.548,36.512,85.496,36.375,85.513z
	 M40.416,92.521c-0.843,0.052-1.697,0.265-2.484,0.064c-0.233-0.226-0.482-0.427-0.742-0.616c0.139-0.851-0.129-1.677-0.228-2.496
	c0.01-0.014,0.019-0.027,0.028-0.04c0.023-0.01,0.047-0.018,0.07-0.035c0.25-0.188,0.48-0.392,0.709-0.599
	c0.232-0.09,0.469-0.17,0.706-0.244c0.729,0.009,1.454,0.1,2.185,0.141c0.18,0.25,0.36,0.501,0.531,0.755
	c-0.002,0.02-0.009,0.036-0.008,0.057c0.027,0.524,0.063,0.822,0.143,1.342c0.01,0.065,0.033,0.119,0.06,0.166
	C41.016,91.492,40.689,91.976,40.416,92.521z M41.341,84.354c-0.058-0.216-0.272-0.405-0.49-0.389
	c-0.258,0.021-0.482,0.085-0.692,0.17c-0.091-0.155-0.254-0.271-0.433-0.254c-0.567,0.054-1.119,0.245-1.619,0.53
	c0.151-0.103,0.3-0.212,0.441-0.335c0.073-0.001,0.147-0.015,0.22-0.056c0.485-0.275,1.029-0.583,1.507-0.951
	c0.14,0.195,0.295,0.38,0.435,0.563c0.197,0.261,0.508,0.279,0.715,0.14c0.149,0.406,0.341,0.779,0.576,1.094
	C41.77,84.72,41.551,84.548,41.341,84.354z"/>
<path fill="#007018" d="M73.355,90.776c-0.518,1.056-1.333,2.201-2.658,1.592c-1.057-0.485-1.387-2.737-0.221-3.283
	c0.584-0.273,0.076-1.135-0.504-0.863c-1.711,0.802-1.442,3.575-0.257,4.681c1.733,1.618,3.691,0.036,4.503-1.622
	C74.501,90.704,73.639,90.197,73.355,90.776z"/>
<path fill="#005B25" d="M71.256,60.265c-0.085-0.034-0.179-0.054-0.289-0.032c-0.795,0.157-1.411,0.839-1.976,1.372
	c-0.253,0.239-0.516,0.475-0.783,0.707c-0.593,0.421-1.192,0.833-1.791,1.242c-0.03-0.026-0.058-0.055-0.102-0.071
	c-0.938-0.358-1.804-0.879-2.709-1.314c-0.035-0.149-0.136-0.287-0.333-0.353c-0.219-0.072-0.424-0.169-0.628-0.27
	c-0.021-0.123-0.095-0.235-0.253-0.305c-0.154-0.067-0.303-0.111-0.455-0.144c0.314-0.265,0.222-0.9-0.297-0.883
	c-0.416,0.015-0.854,0.339-1.249,0.697c-0.256-0.012-0.5,0.223-0.521,0.497c-0.102,0.1-0.199,0.194-0.286,0.27
	c-0.289,0.251-0.587,0.479-0.888,0.705c-0.126-0.059-0.275-0.067-0.434,0.024c-0.78,0.456-1.591,0.815-2.243,1.444
	c-0.014-0.134-0.074-0.265-0.211-0.361c-0.569-0.401-1.112-0.995-1.806-1.18c-0.498-0.315-0.99-0.641-1.475-0.979
	c-0.02-0.016-0.03-0.035-0.053-0.049c-0.061-0.037-0.121-0.073-0.183-0.109c0.222-0.325-0.039-0.9-0.535-0.775
	c-0.225,0.057-0.44,0.135-0.656,0.214c-0.317-0.295-0.852-0.028-0.84,0.362c-1.585,0.79-2.999,2.004-4.64,2.633
	c-0.203-0.132-0.422-0.244-0.643-0.352c0.21-0.154,0.219-0.486,0.058-0.707c0.165,0.103,0.335,0.203,0.518,0.307
	c0.234,0.133,0.487,0.038,0.636-0.137c0.047,0.061,0.088,0.127,0.138,0.184c0.423,0.488,1.127-0.222,0.707-0.707
	c-1.95-2.255-1.046-8.119,0.771-10.88c0.457-0.268,0.908-0.547,1.372-0.805c0.475-0.264,0.955-0.518,1.427-0.786
	c0.133-0.07,0.259-0.149,0.378-0.239c0.032-0.023,0.067-0.042,0.102-0.06c0.584,0.498,1.266,0.861,1.951,1.198
	c0.381,0.187,0.733,0.417,1.09,0.645c0.428,0.271,1.18,0.58,1.479,0.991c0.144,0.197,0.358,0.244,0.549,0.201
	c0.076,0.003,0.156-0.007,0.238-0.043c0.771-0.339,1.433-0.935,2.167-1.354c0.81-0.461,1.588-0.966,2.373-1.462
	c0.481,0.339,1.081,0.574,1.576,0.788c0.474,0.204,0.864,0.423,1.297,0.694c0.43,0.271,1.038,0.304,1.44,0.63
	c0.106,0.086,0.222,0.113,0.333,0.112c0.173,0.202,0.476,0.286,0.707,0.034c0.203-0.221,0.378-0.463,0.591-0.675
	c0.197-0.197,0.4-0.348,0.571-0.573c0.392-0.513-0.479-1.01-0.863-0.504c-0.136,0.179-0.347,0.303-0.506,0.461
	c-0.104,0.104-0.194,0.22-0.286,0.335c-0.594-0.407-1.336-0.568-1.932-0.979c-0.427-0.295-0.976-0.447-1.44-0.668
	c-0.189-0.09-0.48-0.209-0.738-0.351c0.026-0.33-0.284-0.672-0.647-0.525c-0.165-0.091-0.361-0.074-0.514,0.014
	c-0.039,0.02-0.063,0.05-0.095,0.077c-0.021,0.02-0.042,0.036-0.06,0.059c-0.02,0.027-0.035,0.054-0.049,0.086
	c-0.032,0.067-0.051,0.14-0.042,0.22c-0.621,0.396-1.239,0.796-1.877,1.168c-0.23,0.135-0.46,0.284-0.688,0.437
	c-0.098-0.165-0.277-0.263-0.516-0.166c-0.528,0.215-1.048,0.45-1.567,0.688c-0.01,0.005-0.02,0.004-0.03,0.009
	c-0.006,0.003,0.143-0.114,0.137-0.112c-0.401-0.27-0.99-0.383-1.379-0.63c-0.855-0.544-1.85-0.891-2.621-1.562
	c-0.019-0.174-0.127-0.329-0.356-0.372c-0.298-0.056-0.627,0.092-0.943,0.286c0.027-0.096,0.021-0.201-0.014-0.299
	c0.35-0.354,0.054-0.92-0.415-0.836c-0.517-2.686,0.813-5.866,2.1-8.498c1.215-1.186,2.564-2.309,4.001-3.232
	c0.819,0.445,1.59,0.942,2.39,1.451c0.527,0.335,1.025,0.747,1.519,1.131c0.459,0.358,1.196,0.792,1.528,1.273
	c0.363,0.527,1.23,0.028,0.863-0.504c-0.659-0.957-1.862-1.647-2.792-2.329c-0.848-0.621-1.718-1.208-2.632-1.717
	c0.115-0.374-0.28-0.849-0.718-0.593c-0.064,0.038-0.125,0.086-0.189,0.124c-0.026-0.013-0.052-0.027-0.078-0.04
	c-0.438-0.207-0.833,0.235-0.748,0.582c-0.742,0.501-1.469,1.036-2.16,1.618c-0.092-0.398-0.672-0.624-0.9-0.167
	c-0.212,0.425-0.438,0.871-0.666,1.332c-0.184-0.137-0.443-0.163-0.631,0.046c-0.998,1.111-1.923,2.442-2.619,3.844
	c-0.066,0.115-0.134,0.23-0.198,0.345c-0.192,0.305-0.362,0.623-0.538,0.938c-0.103,0.009-0.204,0.042-0.29,0.123
	c-1.244,1.179-1.822,2.524-2.792,3.869c-0.107,0.149-0.073,0.353,0,0.505c0.009,0.019,0.016,0.029,0.024,0.047
	c-0.236,0.158-0.354,0.486-0.087,0.744c0.209,0.201,0.392,0.424,0.577,0.644c-0.047,0.161-0.027,0.342,0.11,0.481
	c0.474,0.483,0.481,0.482,1.061,0.85c0.296,0.188,0.58,0.017,0.688-0.237c0.249-0.005,0.5-0.047,0.757-0.102
	c-0.169,0.182-0.332,0.38-0.488,0.599c-0.122,0.072-0.245,0.144-0.368,0.214c-0.213-0.085-0.48-0.043-0.623,0.196
	c-0.013,0.021-0.022,0.046-0.035,0.067c-0.114-0.134-0.22-0.274-0.327-0.414c0.136-0.335-0.224-0.683-0.557-0.645
	c-0.421-0.245-1.053,0.192-0.706,0.642c0.007,0.009,0.014,0.019,0.021,0.027c-0.388,0.506-0.726,1.016-1.031,1.539
	c-0.529,0.811-1.013,1.646-1.466,2.499c-0.09,0.016-0.18,0.057-0.258,0.142c-1.113,1.206-1.909,2.654-2.559,4.156
	c-0.28,0.252-0.524,0.54-0.728,0.883c-0.238,0.401,0.15,0.813,0.564,0.734h0.149c0.107,0.068,0.241,0.105,0.392,0.083
	c0.181-0.028,0.361-0.056,0.542-0.083c0.337-0.052,0.428-0.45,0.298-0.721c0.031-0.065,0.063-0.13,0.094-0.196
	c0.094,0.006,0.188-0.013,0.269-0.077c0.101,0.199,0.252,0.406,0.479,0.615c0.049,0.045,0.103,0.077,0.157,0.101
	c0.091,0.221,0.222,0.428,0.426,0.649c0.126,0.137,0.288,0.153,0.438,0.118c0.064,0.152,0.138,0.294,0.22,0.428
	c-0.228-0.145-0.458-0.285-0.712-0.342c-0.137-0.03-0.248-0.002-0.345,0.049c0.093-0.456-0.423-0.929-0.809-0.503
	c-0.695,0.768-1.35,1.672-1.504,2.721c-0.009,0.061-0.001,0.114,0.009,0.168c-1.059,1.437-2.17,3.029-3.072,4.687l-0.003,0.003
	c-0.847,0.882-1.515,1.963-2.62,2.552c-0.447,0.237-0.233,0.932,0.252,0.932h0.197c0.061,0.086,0.147,0.149,0.25,0.181
	c0.189,0.085,0.428,0.059,0.578-0.084c0.041,0.023,0.084,0.046,0.136,0.056c0.154,0.228,0.494,0.347,0.776,0.118
	c0.08-0.065,0.154-0.137,0.232-0.203c0.028,0.003,0.048,0.02,0.08,0.017c0.75-0.075,1.449,0.115,2.166,0.277
	c0.123,0.094,0.247,0.187,0.374,0.279c0.181,0.132,0.355,0.108,0.489,0.014c0.021,0.398,0.062,0.795,0.155,1.188
	c0.151,0.627,1.115,0.361,0.965-0.266c-0.457-1.9,0.95-8.485,3.535-9.8c0.484,0.383,1.082,0.586,1.583,0.946
	c0.042,0.053,0.101,0.087,0.161,0.115c-0.081,0.058-0.163,0.114-0.238,0.176c-0.411,0.334-0.609,0.922-0.745,1.413
	c-0.267,0.961,0.14,1.838,0.834,2.48c0.565,0.523,1.354,0.979,2.131,1.057c0.912,0.091,1.345-0.341,1.813-1.045
	c0.358-0.538-0.509-1.039-0.863-0.504c-0.343,0.516-0.566,0.651-1.189,0.478c-0.554-0.154-1.057-0.548-1.449-0.951
	c-0.588-0.604-0.365-1.663,0.178-2.221c0.445-0.459,0.991-0.636,1.324-1.219c0.072-0.126,0.078-0.247,0.05-0.355
	c1.228-0.694,2.385-1.579,3.657-2.155c0.47,0.388,1.055,0.658,1.569,0.959c0.563,0.331,1.084,0.773,1.62,1.148
	c0.21,0.146,0.471,0.288,0.718,0.442c-1.445,0.808-2.338,2.211-1.653,3.884c0.662,1.617,2.528,2.582,4.109,1.632
	c0.553-0.332,0.05-1.196-0.504-0.863c-1.186,0.712-2.309-0.224-2.761-1.327c-0.497-1.215,0.594-2.129,1.557-2.602
	c0.051-0.025,0.083-0.059,0.118-0.092c0.158,0.026,0.313-0.054,0.422-0.18c0.067,0.026,0.14,0.042,0.218,0.036
	c0.104,0.144,0.272,0.233,0.497,0.162c1.03-0.325,1.995-1.348,2.815-2.009c0.307-0.247,0.602-0.508,0.897-0.766
	c0.563,0.402,1.259,0.644,1.886,0.891c1.196,0.472,2.528,0.865,3.642,1.499c0.066,0.038,0.133,0.058,0.196,0.065
	c0.117,0.042,0.252,0.044,0.392-0.023c0.791-0.379,1.467-0.924,2.129-1.49c0.364-0.26,0.73-0.517,1.084-0.788
	c0.576-0.442,1.232-0.758,1.824-1.169c0.178-0.018,0.343-0.124,0.401-0.352c0.007-0.026,0.013-0.052,0.02-0.078
	C72.189,60.264,71.631,60,71.256,60.265z M43.893,62.401c-0.028-0.143-0.11-0.274-0.24-0.356c0.08-0.089,0.159-0.179,0.238-0.268
	c0.022-0.025,0.029-0.052,0.046-0.078c0.259,0.264,0.542,0.479,0.849,0.683c-0.037-0.011-0.059-0.038-0.102-0.042
	C44.403,62.317,44.141,62.342,43.893,62.401z"/>
<path fill="#007018" d="M56.684,44.55c-0.826,0.808-2.213,0.327-2.715-0.569c-0.415-0.741-0.233-2.011,0.528-2.438
	c0.563-0.314,0.059-1.179-0.504-0.863c-1.33,0.744-1.453,2.533-0.888,3.806c0.695,1.566,3.091,1.938,4.285,0.771
	C57.853,44.806,57.145,44.099,56.684,44.55z"/>
<path fill="#007018" d="M52.159,56.188c-0.064,0.328-0.075,0.66-0.133,0.988c-0.112,0.648-0.996,0.653-1.491,0.691
	c-1.235,0.095-1.796-1.37-1.453-2.373c0.053-0.152,0.031-0.283-0.033-0.385c-0.036,0.071-0.086,0.139-0.166,0.193
	c-0.309,0.212-0.743,0.627-0.887,1.056c0.104,1.194,0.863,2.434,2.118,2.511c0.716,0.045,1.554-0.053,2.175-0.43
	c0.746-0.451,0.688-1.246,0.835-1.986C53.248,55.823,52.284,55.555,52.159,56.188z"/>
<path fill="#007018" d="M67.033,58.271c-0.207,0.984-1.47,1.046-2.213,0.691c-1.08-0.517-1.135-1.817-0.602-2.744
	c0.322-0.56-0.542-1.063-0.863-0.504c-0.841,1.46-0.541,3.237,0.96,4.111c1.259,0.732,3.352,0.283,3.683-1.289
	C68.13,57.907,67.166,57.64,67.033,58.271z"/>
<path fill="#2AD621" d="M73.625,59.744c-0.026-0.034-0.058-0.063-0.085-0.097c0.003-0.002,0.005-0.003,0.007-0.005
	c-2.188-2.533-3.446-5.662-5.234-8.461c-0.133-0.209-0.343-0.261-0.531-0.217c-0.063-0.201-0.12-0.401-0.168-0.602
	c-0.149-0.627-1.114-0.361-0.965,0.266c0.434,1.82,1.461,3.544,2.156,5.281c0.457,1.139,0.981,2.229,1.506,3.326
	c-1.17,0.925-2.623,1.429-3.838,2.297c-0.521,0.371-0.021,1.239,0.504,0.863c1.193-0.852,2.58-1.38,3.758-2.236
	c0.067,0.155,0.204,0.276,0.428,0.273h0.031c0.275-0.005,0.438-0.199,0.471-0.428c0.02,0.022,0.029,0.038,0.051,0.063
	c0.244,0.28,0.625,0.144,0.779-0.124c0.078,0.087,0.159,0.171,0.232,0.263c0.039,0.047,0.073,0.097,0.113,0.143
	C73.208,60.776,73.973,60.194,73.625,59.744z"/>
<path fill="#2AD621" d="M76.457,68.096c-1.524-1.901-3.369-4.033-4.457-6.227c-0.108-0.219-0.294-0.284-0.47-0.249
	c-0.108-0.231-0.226-0.462-0.323-0.694c-0.246-0.585-1.215-0.328-0.965,0.266c0.762,1.809,1.845,3.509,2.76,5.249
	c0.631,1.2,1.276,2.401,1.967,3.574c-0.539,0.642-1.253,1.087-1.91,1.597c-0.834,0.647-1.583,1.427-2.344,2.156
	c-0.467,0.447,0.242,1.153,0.707,0.707c0.767-0.734,1.535-1.467,2.344-2.156c0.541-0.461,1.135-0.824,1.639-1.315
	c-0.074,0.287,0.063,0.628,0.445,0.618c0.037-0.001,0.069,0.005,0.105,0.005c0.041,0.061,0.078,0.124,0.119,0.185
	c0.25,0.364,0.708,0.286,0.888-0.083c0.489,0.095,0.962,0.236,1.474,0.376c0.375,0.102,0.706-0.248,0.615-0.615
	C78.744,70.252,77.234,69.065,76.457,68.096z"/>
<path fill="#2AD621" d="M83.602,82.346c-0.087-0.055-0.179-0.095-0.269-0.141c-0.102-0.1-0.203-0.199-0.299-0.304
	c-0.37-0.461-0.724-0.923-1.07-1.388c-1.063-1.604-1.861-3.419-3.136-4.871c-0.063-0.071-0.132-0.11-0.201-0.135
	c-0.188-0.308-0.375-0.612-0.561-0.925c-0.02-0.055-0.041-0.108-0.082-0.159c-0.042-0.052-0.083-0.104-0.125-0.156
	c-0.055-0.068-0.119-0.107-0.186-0.132c-0.048-0.1-0.094-0.199-0.143-0.298c-0.283-0.58-1.146-0.072-0.863,0.504
	c0.718,1.468,1.417,2.944,2.138,4.411c0.511,1.039,1.147,2.073,1.714,3.121c-0.724,0.475-1.445,0.947-2.149,1.455
	c-0.532,0.384-1.093,0.732-1.645,1.091c-0.059-0.076-0.144-0.138-0.274-0.156c-1.273-0.183-2.275-1.109-3.531-1.375
	c-0.629-0.133-0.896,0.831-0.266,0.965c1.112,0.234,2.023,0.988,3.109,1.284c-0.233,0.417,0.201,1.035,0.65,0.696
	c0.687-0.519,1.465-0.938,2.172-1.438c0.789-0.557,1.58-1.101,2.382-1.633c0.128,0.267,0.261,0.533,0.368,0.803
	c0.235,0.592,1.203,0.334,0.965-0.266c-0.035-0.09-0.082-0.178-0.121-0.267c0.077,0.02,0.156,0.034,0.233,0.054
	c0.236,0.075,0.471,0.153,0.71,0.234c0.199,0.067,0.379-0.017,0.496-0.157C83.886,82.978,83.96,82.571,83.602,82.346z"/>
<path fill="#2AD621" d="M87.173,93.854c0.011-0.103,0.002-0.206-0.048-0.298c-0.093-0.173-0.197-0.333-0.303-0.492
	c-0.019-0.08-0.051-0.159-0.119-0.234c-0.076-0.084-0.153-0.167-0.229-0.251c-0.362-0.465-0.762-0.897-1.177-1.343
	c-0.047-0.051-0.101-0.086-0.156-0.109c-0.649-0.718-1.277-1.45-1.828-2.241c-0.279-0.529-0.573-1.046-0.906-1.517
	c-0.118-0.168-0.278-0.228-0.432-0.225c-0.426-0.746-0.813-1.519-0.955-2.281c-0.055-0.293-0.291-0.387-0.517-0.347
	c-0.038-0.63-1.023-0.631-0.997,0.011c0.061,1.468,0.972,2.704,1.514,4.031c0.828,2.027,1.897,3.935,2.773,5.939
	c0.163,0.373,0.566,0.305,0.777,0.057c0.725,0.335,1.59,0.339,2.35,0.08C87.246,94.522,87.389,94.131,87.173,93.854z"/>
<path fill="#2AD621" d="M68.051,48.176c-0.51-1.513-1.861-2.882-2.738-4.213c-1.176-1.787-2.734-3.82-3.48-5.818
	c-0.224-0.599-1.19-0.34-0.965,0.266c0.605,1.619,1.74,2.98,2.594,4.476c0.554,0.968,1.197,1.881,1.785,2.827
	c0.271,0.438,0.716,0.964,1.109,1.492c-0.449,0.423-0.902,0.843-1.361,1.255c-0.836-0.369-1.705-0.668-2.574-0.946
	c-0.537-0.171-0.895,0.66-0.385,0.914c0.041,0.021,0.083,0.042,0.125,0.063c0.058,0.028,0.113,0.038,0.168,0.046
	c0.639,0.205,1.273,0.421,1.893,0.674c-0.187,0.418,0.229,0.987,0.662,0.655c0.094-0.071,0.175-0.156,0.266-0.23
	c0.357,0.181,0.708,0.377,1.043,0.605c0.534,0.364,1.033-0.502,0.504-0.863c-0.04-0.027-0.084-0.048-0.124-0.074
	c0.013-0.013,0.026-0.024,0.039-0.037c0.235-0.179,0.436-0.4,0.583-0.638C67.513,48.979,68.231,48.713,68.051,48.176z"/>
<path fill="#AF8015" d="M61.247,36.013c-3.319-1.576-7.196-5.833-6.332-9.873c0.134-0.629-0.83-0.896-0.965-0.266
	c-0.078,0.364-0.111,0.729-0.126,1.095c-0.07,0.075-0.126,0.166-0.142,0.287c-0.009,0.073-0.009,0.145-0.016,0.216
	c-0.304-0.097-0.594-0.11-0.949-0.015c-0.693-0.164-1.281-0.246-2.024-0.2c-0.713,0.043-1.46-0.325-2.219-0.292
	c-0.391,0.018-0.607,0.408-0.432,0.752c0.389,0.762,1.061,1.073,1.81,1.438c1.057,0.515,1.989,1.873,3.169,2.131
	c-0.386,1.38-1.095,2.627-1.467,4.004c-0.047,0.176-0.007,0.315,0.074,0.419c-0.101,0.147-0.199,0.296-0.3,0.444
	c-0.429,0.5,0.205,1.096,0.707,0.707c1.106-0.856,2.223-2.192,3.461-2.839c0.134-0.07,0.205-0.168,0.234-0.273
	c0.19-0.118,0.37-0.259,0.544-0.427c1.272,1.539,2.883,2.803,4.468,3.555C61.322,37.151,61.83,36.289,61.247,36.013z"/>
<path fill="#422817" d="M61.35,98.893c0.29-0.068,0.545-0.391,0.369-0.742c-0.358-0.717-1.113-1.052-1.953-1.217
	c-0.271-0.227-0.559-0.417-0.858-0.527c0.043-0.227-0.044-0.471-0.331-0.549c-0.551-0.148-1.115-0.205-1.682-0.21
	c0.009-0.088-0.003-0.182-0.051-0.278c-0.004-0.008-0.007-0.015-0.011-0.022c-0.095-0.191-0.364-0.296-0.564-0.229
	c-0.519,0.172-0.982,0.462-1.435,0.773c-0.844,0.202-1.665,0.514-2.441,0.896c-0.287,0.129-0.579,0.244-0.895,0.289
	c-0.235,0.033-0.342,0.213-0.353,0.408c-0.077,0.048-0.159,0.093-0.235,0.143c-0.37,0.242-0.299,0.774,0.119,0.914
	c0.063,0.021,0.125,0.041,0.188,0.063c0.044,0.015,0.082,0.014,0.12,0.014c-0.119,0.119-0.239,0.238-0.341,0.369
	c-0.112,0.144-0.128,0.303-0.093,0.448c-0.084,0.496,0.64,0.862,0.909,0.345c0.081-0.155,0.188-0.29,0.288-0.431
	c0.013-0.012,0.027-0.016,0.04-0.03c0.172-0.198,0.393-0.363,0.63-0.515c2.318-1.356,6.517-1.251,7.897,0.819
	c0.355,0.534,1.223,0.034,0.863-0.504C61.478,99.038,61.409,98.969,61.35,98.893z"/>
<g>
	<g>
		<g>
			<path fill="#EAE134" d="M78.226,43.925c0-0.265,0-0.53,0-0.795c0-0.645-1-0.645-1,0c0,0.113,0,0.227,0,0.34c0,0.645,1,0.645,1,0
				c0-0.265,0-0.53,0-0.795c0-0.645-1-0.645-1,0c0,0.265,0,0.53,0,0.795c0,0.645,1,0.645,1,0c0-0.113,0-0.227,0-0.34
				c0-0.645-1-0.645-1,0c0,0.265,0,0.53,0,0.795C77.226,44.57,78.226,44.57,78.226,43.925L78.226,43.925z"/>
		</g>
	</g>
	<g>
		<g>
			<path fill="#EAE134" d="M77.706,41.237c0.645,0,0.645-1,0-1S77.062,41.237,77.706,41.237L77.706,41.237z"/>
		</g>
	</g>
	<g>
		<g>
			<path fill="#EAE134" d="M79.361,41.133c0.406,0,0.813,0,1.219,0c0.645,0,0.645-1,0-1c-0.406,0-0.813,0-1.219,0
				C78.717,40.133,78.717,41.133,79.361,41.133L79.361,41.133z"/>
		</g>
	</g>
	<g>
		<g>
			<path fill="#EAE134" d="M78.299,38.82c0-0.354,0-0.708,0-1.063c0-0.645-1-0.645-1,0c0,0.354,0,0.708,0,1.063
				C77.299,39.465,78.299,39.465,78.299,38.82L78.299,38.82z"/>
		</g>
	</g>
	<g>
		<g>
			<path fill="#EAE134" d="M76.08,40.289c-0.448,0-0.896,0-1.344,0c-0.645,0-0.645,1,0,1c0.448,0,0.896,0,1.344,0
				C76.725,41.289,76.725,40.289,76.08,40.289L76.08,40.289z"/>
		</g>
	</g>
</g>
<g>
	<g>
		<g>
			<path fill="#EAE134" d="M92.578,46.943c0-0.265,0-0.53,0-0.795c0-0.645-1-0.645-1,0c0,0.113,0,0.227,0,0.34c0,0.645,1,0.645,1,0
				c0-0.265,0-0.53,0-0.795c0-0.645-1-0.645-1,0c0,0.265,0,0.53,0,0.795c0,0.645,1,0.645,1,0c0-0.113,0-0.227,0-0.34
				c0-0.645-1-0.645-1,0c0,0.265,0,0.53,0,0.795C91.578,47.588,92.578,47.588,92.578,46.943L92.578,46.943z"/>
		</g>
	</g>
	<g>
		<g>
			<path fill="#EAE134" d="M92.059,44.256c0.645,0,0.645-1,0-1S91.414,44.256,92.059,44.256L92.059,44.256z"/>
		</g>
	</g>
	<g>
		<g>
			<path fill="#EAE134" d="M93.714,44.151c0.406,0,0.813,0,1.219,0c0.645,0,0.645-1,0-1c-0.406,0-0.813,0-1.219,0
				C93.069,43.151,93.069,44.151,93.714,44.151L93.714,44.151z"/>
		</g>
	</g>
	<g>
		<g>
			<path fill="#EAE134" d="M92.651,41.839c0-0.354,0-0.708,0-1.063c0-0.645-1-0.645-1,0c0,0.354,0,0.708,0,1.063
				C91.651,42.484,92.651,42.484,92.651,41.839L92.651,41.839z"/>
		</g>
	</g>
	<g>
		<g>
			<path fill="#EAE134" d="M90.433,43.308c-0.448,0-0.896,0-1.344,0c-0.645,0-0.645,1,0,1c0.448,0,0.896,0,1.344,0
				C91.077,44.308,91.077,43.308,90.433,43.308L90.433,43.308z"/>
		</g>
	</g>
</g>
<g>
	<g>
		<g>
			<path fill="#EAE134" d="M82.994,58.11c0-0.265,0-0.53,0-0.795c0-0.645-1-0.645-1,0c0,0.113,0,0.227,0,0.34c0,0.645,1,0.645,1,0
				c0-0.265,0-0.53,0-0.795c0-0.645-1-0.645-1,0c0,0.265,0,0.53,0,0.795c0,0.645,1,0.645,1,0c0-0.113,0-0.227,0-0.34
				c0-0.645-1-0.645-1,0c0,0.265,0,0.53,0,0.795C81.994,58.755,82.994,58.755,82.994,58.11L82.994,58.11z"/>
		</g>
	</g>
	<g>
		<g>
			<path fill="#EAE134" d="M82.475,55.423c0.645,0,0.645-1,0-1S81.83,55.423,82.475,55.423L82.475,55.423z"/>
		</g>
	</g>
	<g>
		<g>
			<path fill="#EAE134" d="M84.13,55.318c0.406,0,0.813,0,1.219,0c0.645,0,0.645-1,0-1c-0.406,0-0.813,0-1.219,0
				C83.485,54.318,83.485,55.318,84.13,55.318L84.13,55.318z"/>
		</g>
	</g>
	<g>
		<g>
			<path fill="#EAE134" d="M83.067,53.006c0-0.354,0-0.708,0-1.063c0-0.645-1-0.645-1,0c0,0.354,0,0.708,0,1.063
				C82.067,53.651,83.067,53.651,83.067,53.006L83.067,53.006z"/>
		</g>
	</g>
	<g>
		<g>
			<path fill="#EAE134" d="M80.849,54.475c-0.448,0-0.896,0-1.344,0c-0.645,0-0.645,1,0,1c0.448,0,0.896,0,1.344,0
				C81.493,55.475,81.493,54.475,80.849,54.475L80.849,54.475z"/>
		</g>
	</g>
</g>
<g>
	<g>
		<g>
			<path fill="#EAE134" d="M94.412,63.944c0-0.265,0-0.53,0-0.795c0-0.645-1-0.645-1,0c0,0.113,0,0.227,0,0.34c0,0.645,1,0.645,1,0
				c0-0.265,0-0.53,0-0.795c0-0.645-1-0.645-1,0c0,0.265,0,0.53,0,0.795c0,0.645,1,0.645,1,0c0-0.113,0-0.227,0-0.34
				c0-0.645-1-0.645-1,0c0,0.265,0,0.53,0,0.795C93.412,64.589,94.412,64.589,94.412,63.944L94.412,63.944z"/>
		</g>
	</g>
	<g>
		<g>
			<path fill="#EAE134" d="M93.893,61.257c0.645,0,0.645-1,0-1S93.248,61.257,93.893,61.257L93.893,61.257z"/>
		</g>
	</g>
	<g>
		<g>
			<path fill="#EAE134" d="M95.548,61.152c0.406,0,0.813,0,1.219,0c0.645,0,0.645-1,0-1c-0.406,0-0.813,0-1.219,0
				C94.903,60.152,94.903,61.152,95.548,61.152L95.548,61.152z"/>
		</g>
	</g>
	<g>
		<g>
			<path fill="#EAE134" d="M94.485,58.84c0-0.354,0-0.708,0-1.063c0-0.645-1-0.645-1,0c0,0.354,0,0.708,0,1.063
				C93.485,59.485,94.485,59.485,94.485,58.84L94.485,58.84z"/>
		</g>
	</g>
	<g>
		<g>
			<path fill="#EAE134" d="M92.267,60.309c-0.448,0-0.896,0-1.344,0c-0.645,0-0.645,1,0,1c0.448,0,0.896,0,1.344,0
				C92.911,61.309,92.911,60.309,92.267,60.309L92.267,60.309z"/>
		</g>
	</g>
</g>
<g>
	<g>
		<g>
			<path fill="#EAE134" d="M87.912,73.86c0-0.266,0-0.53,0-0.795c0-0.646-1-0.646-1,0c0,0.113,0,0.227,0,0.34c0,0.645,1,0.645,1,0
				c0-0.266,0-0.529,0-0.795c0-0.645-1-0.645-1,0c0,0.266,0,0.529,0,0.795c0,0.645,1,0.645,1,0c0-0.113,0-0.227,0-0.34
				c0-0.646-1-0.646-1,0c0,0.265,0,0.529,0,0.795C86.912,74.505,87.912,74.505,87.912,73.86L87.912,73.86z"/>
		</g>
	</g>
	<g>
		<g>
			<path fill="#EAE134" d="M87.393,71.173c0.645,0,0.645-1,0-1S86.748,71.173,87.393,71.173L87.393,71.173z"/>
		</g>
	</g>
	<g>
		<g>
			<path fill="#EAE134" d="M89.048,71.068c0.406,0,0.813,0,1.219,0c0.645,0,0.645-1,0-1c-0.406,0-0.813,0-1.219,0
				C88.403,70.068,88.403,71.068,89.048,71.068L89.048,71.068z"/>
		</g>
	</g>
	<g>
		<g>
			<path fill="#EAE134" d="M87.985,68.756c0-0.354,0-0.708,0-1.063c0-0.646-1-0.646-1,0c0,0.354,0,0.708,0,1.063
				C86.985,69.401,87.985,69.401,87.985,68.756L87.985,68.756z"/>
		</g>
	</g>
	<g>
		<g>
			<path fill="#EAE134" d="M85.767,70.225c-0.448,0-0.896,0-1.344,0c-0.645,0-0.645,1,0,1c0.448,0,0.896,0,1.344,0
				C86.411,71.225,86.411,70.225,85.767,70.225L85.767,70.225z"/>
		</g>
	</g>
</g>
<g>
	<g>
		<g>
			<path fill="#EAE134" d="M93.495,85.693c0-0.266,0-0.53,0-0.796c0-0.645-1-0.645-1,0c0,0.114,0,0.228,0,0.341c0,0.645,1,0.645,1,0
				c0-0.265,0-0.53,0-0.795c0-0.645-1-0.645-1,0c0,0.265,0,0.53,0,0.795c0,0.645,1,0.645,1,0c0-0.113,0-0.227,0-0.341
				c0-0.645-1-0.645-1,0c0,0.266,0,0.53,0,0.796C92.495,86.338,93.495,86.338,93.495,85.693L93.495,85.693z"/>
		</g>
	</g>
	<g>
		<g>
			<path fill="#EAE134" d="M92.976,83.006c0.645,0,0.645-1,0-1S92.331,83.006,92.976,83.006L92.976,83.006z"/>
		</g>
	</g>
	<g>
		<g>
			<path fill="#EAE134" d="M94.631,82.901c0.406,0,0.813,0,1.219,0c0.645,0,0.645-1,0-1c-0.406,0-0.813,0-1.219,0
				C93.986,81.901,93.986,82.901,94.631,82.901L94.631,82.901z"/>
		</g>
	</g>
	<g>
		<g>
			<path fill="#EAE134" d="M93.568,80.589c0-0.354,0-0.708,0-1.063c0-0.645-1-0.645-1,0c0,0.354,0,0.708,0,1.063
				C92.568,81.233,93.568,81.233,93.568,80.589L93.568,80.589z"/>
		</g>
	</g>
	<g>
		<g>
			<path fill="#EAE134" d="M91.35,82.058c-0.448,0-0.896,0-1.344,0c-0.645,0-0.645,1,0,1c0.448,0,0.896,0,1.344,0
				C91.994,83.058,91.994,82.058,91.35,82.058L91.35,82.058z"/>
		</g>
	</g>
</g>
<g>
	<g>
		<g>
			<path fill="#EAE134" d="M26.244,74.944c0-0.266,0-0.53,0-0.795c0-0.646-1-0.646-1,0c0,0.113,0,0.227,0,0.34c0,0.645,1,0.645,1,0
				c0-0.266,0-0.529,0-0.795c0-0.645-1-0.645-1,0c0,0.266,0,0.529,0,0.795c0,0.645,1,0.645,1,0c0-0.113,0-0.227,0-0.34
				c0-0.646-1-0.646-1,0c0,0.265,0,0.529,0,0.795C25.244,75.589,26.244,75.589,26.244,74.944L26.244,74.944z"/>
		</g>
	</g>
	<g>
		<g>
			<path fill="#EAE134" d="M25.725,72.257c0.645,0,0.645-1,0-1S25.08,72.257,25.725,72.257L25.725,72.257z"/>
		</g>
	</g>
	<g>
		<g>
			<path fill="#EAE134" d="M27.38,72.152c0.406,0,0.813,0,1.219,0c0.645,0,0.645-1,0-1c-0.406,0-0.813,0-1.219,0
				C26.735,71.152,26.735,72.152,27.38,72.152L27.38,72.152z"/>
		</g>
	</g>
	<g>
		<g>
			<path fill="#EAE134" d="M26.317,69.84c0-0.354,0-0.708,0-1.063c0-0.646-1-0.646-1,0c0,0.354,0,0.708,0,1.063
				C25.317,70.485,26.317,70.485,26.317,69.84L26.317,69.84z"/>
		</g>
	</g>
	<g>
		<g>
			<path fill="#EAE134" d="M24.099,71.309c-0.448,0-0.896,0-1.344,0c-0.645,0-0.645,1,0,1c0.448,0,0.896,0,1.344,0
				C24.744,72.309,24.744,71.309,24.099,71.309L24.099,71.309z"/>
		</g>
	</g>
</g>
<g>
	<g>
		<g>
			<path fill="#EAE134" d="M20.411,86.778c0-0.265,0-0.53,0-0.796c0-0.645-1-0.645-1,0c0,0.114,0,0.228,0,0.341c0,0.645,1,0.645,1,0
				c0-0.265,0-0.53,0-0.795c0-0.645-1-0.645-1,0c0,0.265,0,0.53,0,0.795c0,0.645,1,0.645,1,0c0-0.113,0-0.227,0-0.341
				c0-0.645-1-0.645-1,0c0,0.266,0,0.531,0,0.796C19.411,87.423,20.411,87.423,20.411,86.778L20.411,86.778z"/>
		</g>
	</g>
	<g>
		<g>
			<path fill="#EAE134" d="M19.892,84.091c0.645,0,0.645-1,0-1S19.247,84.091,19.892,84.091L19.892,84.091z"/>
		</g>
	</g>
	<g>
		<g>
			<path fill="#EAE134" d="M21.547,83.986c0.406,0,0.813,0,1.219,0c0.645,0,0.645-1,0-1c-0.406,0-0.813,0-1.219,0
				C20.902,82.986,20.902,83.986,21.547,83.986L21.547,83.986z"/>
		</g>
	</g>
	<g>
		<g>
			<path fill="#EAE134" d="M20.484,81.674c0-0.354,0-0.708,0-1.063c0-0.645-1-0.645-1,0c0,0.354,0,0.708,0,1.063
				C19.484,82.318,20.484,82.318,20.484,81.674L20.484,81.674z"/>
		</g>
	</g>
	<g>
		<g>
			<path fill="#EAE134" d="M18.266,83.143c-0.448,0-0.896,0-1.344,0c-0.645,0-0.645,1,0,1c0.448,0,0.896,0,1.344,0
				C18.911,84.143,18.911,83.143,18.266,83.143L18.266,83.143z"/>
		</g>
	</g>
</g>
<g>
	<g>
		<g>
			<path fill="#EAE134" d="M19.079,65.694c0-0.266,0-0.53,0-0.796c0-0.645-1-0.645-1,0c0,0.113,0,0.228,0,0.341c0,0.645,1,0.645,1,0
				c0-0.265,0-0.53,0-0.795c0-0.645-1-0.645-1,0c0,0.265,0,0.53,0,0.795c0,0.645,1,0.645,1,0c0-0.113,0-0.228,0-0.341
				c0-0.645-1-0.645-1,0c0,0.266,0,0.53,0,0.796C18.079,66.339,19.079,66.339,19.079,65.694L19.079,65.694z"/>
		</g>
	</g>
	<g>
		<g>
			<path fill="#EAE134" d="M18.56,63.007c0.645,0,0.645-1,0-1S17.915,63.007,18.56,63.007L18.56,63.007z"/>
		</g>
	</g>
	<g>
		<g>
			<path fill="#EAE134" d="M20.215,62.902c0.406,0,0.813,0,1.219,0c0.645,0,0.645-1,0-1c-0.406,0-0.813,0-1.219,0
				C19.57,61.902,19.57,62.902,20.215,62.902L20.215,62.902z"/>
		</g>
	</g>
	<g>
		<g>
			<path fill="#EAE134" d="M19.152,60.59c0-0.354,0-0.708,0-1.063c0-0.645-1-0.645-1,0c0,0.354,0,0.708,0,1.063
				C18.152,61.235,19.152,61.235,19.152,60.59L19.152,60.59z"/>
		</g>
	</g>
	<g>
		<g>
			<path fill="#EAE134" d="M16.934,62.059c-0.448,0-0.896,0-1.344,0c-0.645,0-0.645,1,0,1c0.448,0,0.896,0,1.344,0
				C17.579,63.059,17.579,62.059,16.934,62.059L16.934,62.059z"/>
		</g>
	</g>
</g>
<g>
	<g>
		<g>
			<path fill="#EAE134" d="M31.827,55.61c0-0.265,0-0.53,0-0.795c0-0.645-1-0.645-1,0c0,0.113,0,0.227,0,0.34c0,0.645,1,0.645,1,0
				c0-0.265,0-0.53,0-0.795c0-0.645-1-0.645-1,0c0,0.265,0,0.53,0,0.795c0,0.645,1,0.645,1,0c0-0.113,0-0.227,0-0.34
				c0-0.645-1-0.645-1,0c0,0.265,0,0.53,0,0.795C30.827,56.255,31.827,56.255,31.827,55.61L31.827,55.61z"/>
		</g>
	</g>
	<g>
		<g>
			<path fill="#EAE134" d="M31.308,52.923c0.645,0,0.645-1,0-1S30.663,52.923,31.308,52.923L31.308,52.923z"/>
		</g>
	</g>
	<g>
		<g>
			<path fill="#EAE134" d="M32.963,52.818c0.406,0,0.813,0,1.219,0c0.645,0,0.645-1,0-1c-0.406,0-0.813,0-1.219,0
				C32.318,51.818,32.318,52.818,32.963,52.818L32.963,52.818z"/>
		</g>
	</g>
	<g>
		<g>
			<path fill="#EAE134" d="M31.9,50.506c0-0.354,0-0.708,0-1.063c0-0.645-1-0.645-1,0c0,0.354,0,0.708,0,1.063
				C30.9,51.151,31.9,51.151,31.9,50.506L31.9,50.506z"/>
		</g>
	</g>
	<g>
		<g>
			<path fill="#EAE134" d="M29.682,51.975c-0.448,0-0.896,0-1.344,0c-0.645,0-0.645,1,0,1c0.448,0,0.896,0,1.344,0
				C30.327,52.975,30.327,51.975,29.682,51.975L29.682,51.975z"/>
		</g>
	</g>
</g>
<g>
	<g>
		<g>
			<path fill="#EAE134" d="M22.745,46.36c0-0.265,0-0.53,0-0.795c0-0.645-1-0.645-1,0c0,0.113,0,0.227,0,0.34c0,0.645,1,0.645,1,0
				c0-0.265,0-0.53,0-0.795c0-0.645-1-0.645-1,0c0,0.265,0,0.53,0,0.795c0,0.645,1,0.645,1,0c0-0.113,0-0.227,0-0.34
				c0-0.645-1-0.645-1,0c0,0.265,0,0.53,0,0.795C21.745,47.005,22.745,47.005,22.745,46.36L22.745,46.36z"/>
		</g>
	</g>
	<g>
		<g>
			<path fill="#EAE134" d="M22.226,43.673c0.645,0,0.645-1,0-1S21.581,43.673,22.226,43.673L22.226,43.673z"/>
		</g>
	</g>
	<g>
		<g>
			<path fill="#EAE134" d="M23.881,43.568c0.406,0,0.813,0,1.219,0c0.645,0,0.645-1,0-1c-0.406,0-0.813,0-1.219,0
				C23.236,42.568,23.236,43.568,23.881,43.568L23.881,43.568z"/>
		</g>
	</g>
	<g>
		<g>
			<path fill="#EAE134" d="M22.818,41.256c0-0.354,0-0.708,0-1.063c0-0.645-1-0.645-1,0c0,0.354,0,0.708,0,1.063
				C21.818,41.901,22.818,41.901,22.818,41.256L22.818,41.256z"/>
		</g>
	</g>
	<g>
		<g>
			<path fill="#EAE134" d="M20.6,42.725c-0.448,0-0.896,0-1.344,0c-0.645,0-0.645,1,0,1c0.448,0,0.896,0,1.344,0
				C21.245,43.725,21.245,42.725,20.6,42.725L20.6,42.725z"/>
		</g>
	</g>
</g>
<g>
	<g>
		<g>
			<path fill="#EAE134" d="M39.495,41.277c0-0.265,0-0.53,0-0.795c0-0.645-1-0.645-1,0c0,0.113,0,0.227,0,0.34c0,0.645,1,0.645,1,0
				c0-0.265,0-0.53,0-0.795c0-0.645-1-0.645-1,0c0,0.265,0,0.53,0,0.795c0,0.645,1,0.645,1,0c0-0.113,0-0.227,0-0.34
				c0-0.645-1-0.645-1,0c0,0.265,0,0.53,0,0.795C38.495,41.922,39.495,41.922,39.495,41.277L39.495,41.277z"/>
		</g>
	</g>
	<g>
		<g>
			<path fill="#EAE134" d="M38.976,38.59c0.645,0,0.645-1,0-1S38.331,38.59,38.976,38.59L38.976,38.59z"/>
		</g>
	</g>
	<g>
		<g>
			<path fill="#EAE134" d="M40.631,38.485c0.406,0,0.813,0,1.219,0c0.645,0,0.645-1,0-1c-0.406,0-0.813,0-1.219,0
				C39.986,37.485,39.986,38.485,40.631,38.485L40.631,38.485z"/>
		</g>
	</g>
	<g>
		<g>
			<path fill="#EAE134" d="M39.568,36.173c0-0.354,0-0.708,0-1.063c0-0.645-1-0.645-1,0c0,0.354,0,0.708,0,1.063
				C38.568,36.818,39.568,36.818,39.568,36.173L39.568,36.173z"/>
		</g>
	</g>
	<g>
		<g>
			<path fill="#EAE134" d="M37.35,37.642c-0.448,0-0.896,0-1.344,0c-0.645,0-0.645,1,0,1c0.448,0,0.896,0,1.344,0
				C37.995,38.642,37.995,37.642,37.35,37.642L37.35,37.642z"/>
		</g>
	</g>
</g>
<polygon fill="none" stroke="#1B1B1B" stroke-miterlimit="10" points="56.225,20.368 58.421,27.129 65.529,27.129 59.779,31.308 
	61.976,38.067 56.225,33.89 50.474,38.067 52.67,31.308 46.92,27.129 54.028,27.129 "/>
<g>
	<g>
		<path fill="#1B1B1B" d="M60.585,36.925c2.486,3.695,4.972,7.39,7.458,11.084c0.357,0.532,1.225,0.032,0.863-0.504
			c-2.486-3.695-4.972-7.39-7.458-11.084C61.091,35.889,60.224,36.389,60.585,36.925L60.585,36.925z"/>
	</g>
	<g>
		<path fill="#1B1B1B" d="M68.246,47.633c-0.861,0.861-1.722,1.722-2.583,2.583c-0.456,0.456,0.251,1.163,0.707,0.707
			c0.861-0.861,1.722-1.722,2.583-2.583C69.409,47.884,68.702,47.177,68.246,47.633L68.246,47.633z"/>
	</g>
	<g>
		<path fill="#1B1B1B" d="M66.116,50.159c-1.705-0.758-3.412-1.515-5.118-2.271c-0.584-0.259-1.093,0.603-0.504,0.863
			c1.705,0.758,3.412,1.514,5.118,2.271C66.195,51.282,66.705,50.421,66.116,50.159L66.116,50.159z"/>
	</g>
	<g>
		<path fill="#1B1B1B" d="M56.685,50.979c1.988-1.032,3.977-2.063,5.965-3.095c0.573-0.297,0.067-1.16-0.504-0.863
			c-1.989,1.031-3.978,2.063-5.965,3.095C55.607,50.413,56.113,51.276,56.685,50.979L56.685,50.979z"/>
	</g>
	<g>
		<path fill="#1B1B1B" d="M66.647,49.737c2.486,3.653,4.972,7.307,7.458,10.959c0.36,0.53,1.228,0.03,0.863-0.504
			c-2.486-3.653-4.972-7.307-7.458-10.959C67.15,48.703,66.283,49.203,66.647,49.737L66.647,49.737z"/>
	</g>
	<g>
		<path fill="#1B1B1B" d="M74.662,60.174c-1.344,0.003-2.688,0.007-4.031,0.01c-0.645,0.001-0.645,1.001,0,1
			c1.344-0.003,2.688-0.007,4.031-0.01C75.307,61.173,75.307,60.173,74.662,60.174L74.662,60.174z"/>
	</g>
	<g>
		<path fill="#1B1B1B" d="M66.675,63.626c1.75-1.051,3.5-2.101,5.25-3.15c0.553-0.331,0.05-1.196-0.504-0.863
			c-1.751,1.05-3.501,2.1-5.25,3.15C65.618,63.094,66.121,63.959,66.675,63.626L66.675,63.626z"/>
	</g>
	<g>
		<path fill="#1B1B1B" d="M66.477,62.689c-1.527-0.841-3.055-1.681-4.583-2.521c-0.565-0.312-1.069,0.553-0.504,0.863
			c1.527,0.84,3.056,1.68,4.583,2.521C66.537,63.864,67.042,63,66.477,62.689L66.477,62.689z"/>
	</g>
	<g>
		<path fill="#1B1B1B" d="M56.508,63.834c1.844-1.278,3.688-2.555,5.531-3.833c0.526-0.364,0.027-1.232-0.504-0.863
			c-1.844,1.278-3.688,2.555-5.531,3.833C55.478,63.335,55.977,64.202,56.508,63.834L56.508,63.834z"/>
	</g>
	<g>
		<path fill="#1B1B1B" d="M71.48,61.279c2.486,3.695,4.972,7.39,7.458,11.084c0.357,0.532,1.225,0.032,0.863-0.504
			c-2.486-3.695-4.972-7.39-7.458-11.084C71.986,60.243,71.119,60.743,71.48,61.279L71.48,61.279z"/>
	</g>
	<g>
		<path fill="#1B1B1B" d="M79.495,71.841c-1.632,0.003-3.264,0.007-4.896,0.01c-0.645,0.001-0.645,1.001,0,1
			c1.632-0.003,3.264-0.007,4.896-0.01C80.14,72.84,80.14,71.84,79.495,71.841L79.495,71.841z"/>
	</g>
	<g>
		<path fill="#1B1B1B" d="M71.609,75.215c1.405-1.153,2.813-2.306,4.219-3.459c0.499-0.409-0.213-1.112-0.707-0.707
			c-1.406,1.153-2.813,2.306-4.219,3.459C70.403,74.917,71.115,75.62,71.609,75.215L71.609,75.215z"/>
	</g>
	<g>
		<path fill="#1B1B1B" d="M71.31,74.356c-1.735-0.831-3.472-1.66-5.208-2.489c-0.578-0.276-1.086,0.586-0.504,0.863
			c1.735,0.83,3.472,1.659,5.208,2.489C71.384,75.497,71.892,74.635,71.31,74.356L71.31,74.356z"/>
	</g>
	<g>
		<path fill="#1B1B1B" d="M60.789,76.146c2.125-1.519,4.298-2.97,6.411-4.505c0.517-0.375,0.019-1.243-0.504-0.863
			c-2.114,1.535-4.287,2.985-6.411,4.505C59.766,75.654,60.264,76.522,60.789,76.146L60.789,76.146z"/>
	</g>
	<g>
		<path fill="#1B1B1B" d="M76.834,72.8c2.424,3.591,4.847,7.182,7.271,10.771c0.358,0.531,1.226,0.032,0.863-0.504
			c-2.424-3.591-4.847-7.182-7.271-10.771C77.339,71.765,76.472,72.264,76.834,72.8L76.834,72.8z"/>
	</g>
	<g>
		<path fill="#1B1B1B" d="M84.661,83.049c-1.344,0.003-2.688,0.007-4.031,0.01c-0.645,0.001-0.645,1.001,0,1
			c1.344-0.003,2.688-0.007,4.031-0.01C85.306,84.048,85.306,83.048,84.661,83.049L84.661,83.049z"/>
	</g>
	<g>
		<path fill="#1B1B1B" d="M76.674,86.501c1.331-0.799,2.662-1.598,3.993-2.396c0.553-0.331,0.05-1.196-0.504-0.863
			c-1.331,0.799-2.663,1.597-3.993,2.396C75.617,85.969,76.12,86.834,76.674,86.501L76.674,86.501z"/>
	</g>
	<g>
		<path fill="#1B1B1B" d="M76.476,85.564c-1.526-0.841-3.055-1.681-4.583-2.521c-0.564-0.312-1.069,0.553-0.504,0.863
			c1.527,0.84,3.056,1.68,4.583,2.521C76.536,86.739,77.041,85.875,76.476,85.564L76.476,85.564z"/>
	</g>
	<g>
		<path fill="#1B1B1B" d="M67.632,86.501c1.804-1.083,3.608-2.165,5.411-3.248c0.553-0.331,0.05-1.196-0.504-0.863
			c-1.804,1.083-3.607,2.165-5.411,3.248C66.575,85.969,67.078,86.834,67.632,86.501L67.632,86.501z"/>
	</g>
	<g>
		<path fill="#1B1B1B" d="M67.434,85.564c-2.172-0.991-4.346-1.979-6.52-2.969c-0.582-0.266-1.091,0.597-0.504,0.863
			c2.173,0.99,4.347,1.978,6.52,2.969C67.512,86.693,68.02,85.832,67.434,85.564L67.434,85.564z"/>
	</g>
	<g>
		<path fill="#1B1B1B" d="M79.854,83.862c2.486,3.695,4.972,7.39,7.458,11.084c0.357,0.532,1.225,0.032,0.863-0.504
			c-2.486-3.695-4.972-7.39-7.458-11.084C80.36,82.826,79.493,83.326,79.854,83.862L79.854,83.862z"/>
	</g>
	<g>
		<path fill="#1B1B1B" d="M87.869,94.424c-1.344,0.003-2.688,0.007-4.031,0.01c-0.645,0.001-0.645,1.001,0,1
			c1.344-0.003,2.688-0.007,4.031-0.01C88.514,95.423,88.514,94.423,87.869,94.424L87.869,94.424z"/>
	</g>
	<g>
		<path fill="#1B1B1B" d="M79.882,97.876c1.331-0.799,2.662-1.598,3.993-2.396c0.553-0.331,0.05-1.196-0.504-0.863
			c-1.332,0.799-2.663,1.597-3.993,2.396C78.825,97.344,79.328,98.209,79.882,97.876L79.882,97.876z"/>
	</g>
	<g>
		<path fill="#1B1B1B" d="M79.684,96.939c-1.527-0.841-3.055-1.681-4.583-2.521c-0.565-0.312-1.069,0.553-0.504,0.863
			c1.527,0.84,3.056,1.68,4.583,2.521C79.744,98.114,80.249,97.25,79.684,96.939L79.684,96.939z"/>
	</g>
	<g>
		<path fill="#1B1B1B" d="M70.652,98.001c2.196-1.318,4.394-2.637,6.59-3.954c0.553-0.331,0.05-1.196-0.504-0.863
			c-2.197,1.317-4.395,2.635-6.59,3.954C69.596,97.469,70.099,98.334,70.652,98.001L70.652,98.001z"/>
	</g>
	<g>
		<path fill="#1B1B1B" d="M70.454,97.064c-1.43-0.803-2.859-1.604-4.29-2.406c-0.563-0.315-1.066,0.548-0.504,0.863
			c1.43,0.802,2.86,1.604,4.29,2.406C70.513,98.244,71.017,97.38,70.454,97.064L70.454,97.064z"/>
	</g>
	<g>
		<path fill="#1B1B1B" d="M61.777,98.001c2.143-1.287,4.287-2.573,6.43-3.859c0.553-0.331,0.05-1.196-0.504-0.863
			c-2.144,1.286-4.287,2.572-6.43,3.859C60.721,97.469,61.224,98.334,61.777,98.001L61.777,98.001z"/>
	</g>
	<g>
		<path fill="#1B1B1B" d="M61.579,97.064c-1.814-0.824-3.631-1.646-5.446-2.469c-0.582-0.265-1.091,0.598-0.504,0.863
			c1.814,0.823,3.631,1.646,5.446,2.469C61.657,98.192,62.166,97.33,61.579,97.064L61.579,97.064z"/>
	</g>
	<g>
		<path fill="#1B1B1B" d="M61.755,97.81v16.69l-0.63,0.359l-0.17,0.101l-0.2,0.12V97.81c0-0.01,0-0.01,0-0.02
			c0.01-0.23,0.149-0.38,0.319-0.44c0,0,0,0,0.011,0c0.27-0.09,0.609,0.04,0.659,0.38C61.755,97.75,61.755,97.78,61.755,97.81z"/>
	</g>
</g>
<g>
	<g>
		<path fill="#1B1B1B" d="M50.771,36.421c-2.486,3.694-4.972,7.389-7.458,11.084c-0.361,0.536,0.506,1.036,0.863,0.504
			c2.486-3.694,4.972-7.389,7.458-11.084C51.995,36.389,51.128,35.889,50.771,36.421L50.771,36.421z"/>
	</g>
	<g>
		<path fill="#1B1B1B" d="M43.266,48.34c0.861,0.861,1.722,1.722,2.583,2.583c0.456,0.456,1.163-0.251,0.707-0.707
			c-0.861-0.861-1.722-1.722-2.583-2.583C43.517,47.177,42.81,47.884,43.266,48.34L43.266,48.34z"/>
	</g>
	<g>
		<path fill="#1B1B1B" d="M46.606,51.022c1.706-0.758,3.413-1.514,5.118-2.271c0.589-0.261,0.08-1.122-0.504-0.863
			c-1.706,0.757-3.413,1.514-5.118,2.271C45.514,50.421,46.023,51.282,46.606,51.022L46.606,51.022z"/>
	</g>
	<g>
		<path fill="#1B1B1B" d="M56.497,50.2c-2.14-1.062-4.282-2.12-6.424-3.179c-0.575-0.285-1.082,0.577-0.504,0.863
			c2.142,1.06,4.283,2.118,6.424,3.179C56.568,51.349,57.075,50.486,56.497,50.2L56.497,50.2z"/>
	</g>
	<g>
		<path fill="#1B1B1B" d="M44.708,49.233c-2.486,3.652-4.972,7.306-7.458,10.959c-0.364,0.534,0.503,1.034,0.863,0.504
			c2.486-3.652,4.972-7.306,7.458-10.959C45.936,49.203,45.068,48.703,44.708,49.233L44.708,49.233z"/>
	</g>
	<g>
		<path fill="#1B1B1B" d="M37.557,61.174c1.344,0.003,2.688,0.007,4.031,0.01c0.645,0.001,0.645-0.999,0-1
			c-1.344-0.003-2.688-0.007-4.031-0.01C36.912,60.173,36.912,61.173,37.557,61.174L37.557,61.174z"/>
	</g>
	<g>
		<path fill="#1B1B1B" d="M46.048,62.763c-1.749-1.051-3.499-2.101-5.25-3.15c-0.554-0.333-1.057,0.532-0.504,0.863
			c1.75,1.05,3.5,2.1,5.25,3.15C46.098,63.959,46.601,63.094,46.048,62.763L46.048,62.763z"/>
	</g>
	<g>
		<path fill="#1B1B1B" d="M46.246,63.553c1.645-0.917,3.29-1.833,4.934-2.75c0.563-0.314,0.06-1.178-0.504-0.863
			c-1.645,0.917-3.29,1.832-4.934,2.75C45.179,63.004,45.683,63.867,46.246,63.553L46.246,63.553z"/>
	</g>
	<g>
		<path fill="#1B1B1B" d="M56.508,62.971c-1.87-1.229-3.742-2.458-5.613-3.688c-0.54-0.355-1.041,0.511-0.504,0.863
			c1.87,1.23,3.742,2.458,5.613,3.688C56.544,64.189,57.045,63.323,56.508,62.971L56.508,62.971z"/>
	</g>
	<g>
		<path fill="#1B1B1B" d="M39.875,60.775c-2.486,3.694-4.972,7.389-7.458,11.084c-0.361,0.536,0.506,1.036,0.863,0.504
			c2.486-3.694,4.972-7.389,7.458-11.084C41.1,60.743,40.232,60.243,39.875,60.775L39.875,60.775z"/>
	</g>
	<g>
		<path fill="#1B1B1B" d="M32.724,72.841c1.632,0.003,3.264,0.007,4.896,0.01c0.645,0.001,0.645-0.999,0-1
			c-1.632-0.003-3.264-0.007-4.896-0.01C32.079,71.84,32.079,72.84,32.724,72.841L32.724,72.841z"/>
	</g>
	<g>
		<path fill="#1B1B1B" d="M41.316,74.508c-1.405-1.153-2.813-2.306-4.219-3.459c-0.494-0.405-1.206,0.298-0.707,0.707
			c1.406,1.153,2.813,2.306,4.219,3.459C41.104,75.62,41.815,74.917,41.316,74.508L41.316,74.508z"/>
	</g>
	<g>
		<path fill="#1B1B1B" d="M41.413,75.22c1.527-0.841,3.056-1.681,4.583-2.521c0.565-0.311,0.061-1.174-0.504-0.863
			c-1.528,0.84-3.057,1.68-4.583,2.521C40.344,74.667,40.849,75.531,41.413,75.22L41.413,75.22z"/>
	</g>
	<g>
		<path fill="#1B1B1B" d="M50.152,74.43c-1.885-1.311-3.771-2.618-5.656-3.928c-0.531-0.369-1.03,0.498-0.504,0.863
			c1.885,1.31,3.771,2.618,5.656,3.928C50.179,75.662,50.678,74.795,50.152,74.43L50.152,74.43z"/>
	</g>
	<g>
		<path fill="#1B1B1B" d="M50.351,75.22c1.527-0.841,3.056-1.681,4.583-2.521c0.565-0.311,0.061-1.174-0.504-0.863
			c-1.528,0.84-3.057,1.68-4.583,2.521C49.281,74.667,49.786,75.531,50.351,75.22L50.351,75.22z"/>
	</g>
	<g>
		<path fill="#1B1B1B" d="M60.664,75.346c-2.057-1.419-4.004-2.989-6.063-4.406c-0.532-0.367-1.031,0.5-0.504,0.863
			c2.058,1.417,4.005,2.987,6.063,4.406C60.692,76.576,61.191,75.709,60.664,75.346L60.664,75.346z"/>
	</g>
	<g>
		<path fill="#1B1B1B" d="M34.521,72.296c-2.424,3.59-4.847,7.181-7.271,10.771c-0.362,0.536,0.505,1.035,0.863,0.504
			c2.424-3.59,4.847-7.181,7.271-10.771C35.747,72.264,34.88,71.765,34.521,72.296L34.521,72.296z"/>
	</g>
	<g>
		<path fill="#1B1B1B" d="M27.558,84.049c1.344,0.003,2.688,0.007,4.031,0.01c0.645,0.001,0.645-0.999,0-1
			c-1.344-0.003-2.688-0.007-4.031-0.01C26.913,83.048,26.913,84.048,27.558,84.049L27.558,84.049z"/>
	</g>
	<g>
		<path fill="#1B1B1B" d="M36.049,85.638c-1.33-0.8-2.662-1.598-3.993-2.396c-0.554-0.333-1.057,0.532-0.504,0.863
			c1.331,0.799,2.662,1.598,3.993,2.396C36.099,86.834,36.602,85.969,36.049,85.638L36.049,85.638z"/>
	</g>
	<g>
		<path fill="#1B1B1B" d="M36.247,86.428c1.527-0.841,3.056-1.681,4.583-2.521c0.565-0.311,0.061-1.175-0.504-0.863
			c-1.528,0.84-3.057,1.68-4.583,2.521C35.178,85.875,35.683,86.739,36.247,86.428L36.247,86.428z"/>
	</g>
	<g>
		<path fill="#1B1B1B" d="M45.091,85.638c-1.804-1.083-3.607-2.165-5.411-3.248c-0.554-0.333-1.057,0.532-0.504,0.863
			c1.803,1.083,3.607,2.165,5.411,3.248C45.141,86.834,45.644,85.969,45.091,85.638L45.091,85.638z"/>
	</g>
	<g>
		<path fill="#1B1B1B" d="M45.289,86.428c1.527-0.841,3.056-1.681,4.583-2.521c0.565-0.311,0.062-1.175-0.504-0.863
			c-1.528,0.84-3.056,1.68-4.583,2.521C44.22,85.875,44.725,86.739,45.289,86.428L45.289,86.428z"/>
	</g>
	<g>
		<path fill="#1B1B1B" d="M54.133,85.638c-1.723-1.035-3.446-2.068-5.17-3.103c-0.554-0.333-1.057,0.532-0.504,0.863
			c1.723,1.034,3.446,2.067,5.17,3.103C54.183,86.834,54.686,85.969,54.133,85.638L54.133,85.638z"/>
	</g>
	<g>
		<path fill="#1B1B1B" d="M54.331,86.428c2.111-0.948,4.223-1.896,6.333-2.844c0.588-0.264,0.079-1.125-0.504-0.863
			c-2.111,0.947-4.223,1.896-6.333,2.844C53.239,85.828,53.748,86.689,54.331,86.428L54.331,86.428z"/>
	</g>
	<g>
		<path fill="#1B1B1B" d="M31.501,83.358c-2.486,3.694-4.972,7.389-7.458,11.084c-0.361,0.536,0.506,1.036,0.863,0.504
			c2.486-3.694,4.972-7.389,7.458-11.084C32.726,83.326,31.858,82.826,31.501,83.358L31.501,83.358z"/>
	</g>
	<g>
		<path fill="#1B1B1B" d="M24.35,95.424c1.344,0.003,2.688,0.007,4.031,0.01c0.645,0.001,0.645-0.999,0-1
			c-1.344-0.003-2.688-0.007-4.031-0.01C23.705,94.423,23.705,95.423,24.35,95.424L24.35,95.424z"/>
	</g>
	<g>
		<path fill="#1B1B1B" d="M32.841,97.013c-1.33-0.8-2.661-1.598-3.993-2.396c-0.554-0.333-1.057,0.532-0.504,0.863
			c1.331,0.799,2.662,1.598,3.993,2.396C32.891,98.209,33.394,97.344,32.841,97.013L32.841,97.013z"/>
	</g>
	<g>
		<path fill="#1B1B1B" d="M33.039,97.803c1.527-0.841,3.056-1.681,4.583-2.521c0.565-0.311,0.062-1.175-0.504-0.863
			c-1.528,0.84-3.056,1.68-4.583,2.521C31.97,97.25,32.475,98.114,33.039,97.803L33.039,97.803z"/>
	</g>
	<g>
		<path fill="#1B1B1B" d="M42.07,97.138c-2.195-1.319-4.393-2.637-6.59-3.954c-0.554-0.333-1.057,0.532-0.504,0.863
			c2.196,1.317,4.394,2.636,6.59,3.954C42.12,98.334,42.623,97.469,42.07,97.138L42.07,97.138z"/>
	</g>
	<g>
		<path fill="#1B1B1B" d="M42.269,97.928c1.527-0.841,3.056-1.681,4.583-2.521c0.565-0.311,0.061-1.175-0.504-0.863
			c-1.528,0.84-3.057,1.68-4.583,2.521C41.199,97.375,41.704,98.239,42.269,97.928L42.269,97.928z"/>
	</g>
	<g>
		<path fill="#1B1B1B" d="M50.945,97.138c-2.143-1.287-4.286-2.573-6.43-3.859c-0.554-0.333-1.057,0.532-0.504,0.863
			c2.143,1.286,4.287,2.572,6.43,3.859C50.995,98.334,51.498,97.469,50.945,97.138L50.945,97.138z"/>
	</g>
	<g>
		<path fill="#1B1B1B" d="M51.144,97.928c1.611-0.792,3.223-1.583,4.833-2.375c0.579-0.284,0.072-1.146-0.504-0.863
			c-1.611,0.792-3.223,1.583-4.833,2.375C50.061,97.349,50.567,98.211,51.144,97.928L51.144,97.928z"/>
	</g>
	<g>
		<path fill="#1B1B1B" d="M51.465,97.77v17.551l-0.45-0.261l-0.04-0.02l-0.15-0.08l-0.359-0.21V97.81c0-0.029,0-0.05,0.01-0.069
			c0-0.011,0-0.011,0-0.011c0.05-0.34,0.39-0.47,0.66-0.38c0.01,0,0.01,0,0.01,0C51.314,97.41,51.444,97.55,51.465,97.77z"/>
	</g>
</g>
<g>
	<circle fill="none" stroke="#1B1B1B" stroke-miterlimit="10" cx="65.788" cy="57.132" r="1.917"/>
	<g>
		<g>
			<path fill="#1B1B1B" d="M66.256,55.184c0-0.552,0-1.104,0-1.656c0-0.645-1-0.645-1,0c0,0.552,0,1.104,0,1.656
				C65.256,55.829,66.256,55.829,66.256,55.184L66.256,55.184z"/>
		</g>
	</g>
</g>
<g>
	<circle fill="none" stroke="#1B1B1B" stroke-miterlimit="10" cx="60.663" cy="87.027" r="1.917"/>
	<g>
		<g>
			<path fill="#1B1B1B" d="M61.131,85.079c0-0.552,0-1.104,0-1.656c0-0.645-1-0.645-1,0c0,0.552,0,1.104,0,1.656
				C60.131,85.724,61.131,85.724,61.131,85.079L61.131,85.079z"/>
		</g>
	</g>
</g>
<g>
	<circle fill="none" stroke="#1B1B1B" stroke-miterlimit="10" cx="71.663" cy="90.152" r="1.917"/>
	<g>
		<g>
			<path fill="#1B1B1B" d="M72.131,88.204c0-0.552,0-1.104,0-1.656c0-0.645-1-0.645-1,0c0,0.552,0,1.104,0,1.656
				C71.131,88.849,72.131,88.849,72.131,88.204L72.131,88.204z"/>
		</g>
	</g>
</g>
<g>
	<circle fill="none" stroke="#1B1B1B" stroke-miterlimit="10" cx="49.538" cy="87.902" r="1.917"/>
	<g>
		<g>
			<path fill="#1B1B1B" d="M50.006,85.954c0-0.552,0-1.104,0-1.656c0-0.645-1-0.645-1,0c0,0.552,0,1.104,0,1.656
				C49.006,86.599,50.006,86.599,50.006,85.954L50.006,85.954z"/>
		</g>
	</g>
</g>
<g>
	<circle fill="none" stroke="#1B1B1B" stroke-miterlimit="10" cx="39.163" cy="90.59" r="1.917"/>
	<g>
		<g>
			<path fill="#1B1B1B" d="M39.631,88.642c0-0.552,0-1.104,0-1.656c0-0.645-1-0.645-1,0c0,0.552,0,1.104,0,1.656
				C38.631,89.286,39.631,89.286,39.631,88.642L39.631,88.642z"/>
		</g>
	</g>
</g>
<g>
	<circle fill="none" stroke="#1B1B1B" stroke-miterlimit="10" cx="53.288" cy="79.902" r="1.917"/>
	<g>
		<g>
			<path fill="#1B1B1B" d="M53.756,77.954c0-0.552,0-1.104,0-1.656c0-0.645-1-0.645-1,0c0,0.552,0,1.104,0,1.656
				C52.756,78.599,53.756,78.599,53.756,77.954L53.756,77.954z"/>
		</g>
	</g>
</g>
<g>
	<circle fill="none" stroke="#1B1B1B" stroke-miterlimit="10" cx="37.351" cy="78.465" r="1.917"/>
	<g>
		<g>
			<path fill="#1B1B1B" d="M37.818,76.517c0-0.553,0-1.104,0-1.656c0-0.645-1-0.645-1,0c0,0.553,0,1.104,0,1.656
				C36.818,77.161,37.818,77.161,37.818,76.517L37.818,76.517z"/>
		</g>
	</g>
</g>
<g>
	<circle fill="none" stroke="#1B1B1B" stroke-miterlimit="10" cx="75.476" cy="76.59" r="1.917"/>
	<g>
		<g>
			<path fill="#1B1B1B" d="M75.943,74.642c0-0.553,0-1.104,0-1.656c0-0.645-1-0.645-1,0c0,0.553,0,1.104,0,1.656
				C74.943,75.286,75.943,75.286,75.943,74.642L75.943,74.642z"/>
		</g>
	</g>
</g>
<g>
	<circle fill="none" stroke="#1B1B1B" stroke-miterlimit="10" cx="47.663" cy="66.652" r="1.917"/>
	<g>
		<g>
			<path fill="#1B1B1B" d="M48.131,64.704c0-0.552,0-1.104,0-1.656c0-0.645-1-0.645-1,0c0,0.552,0,1.104,0,1.656
				C47.131,65.349,48.131,65.349,48.131,64.704L48.131,64.704z"/>
		</g>
	</g>
</g>
<g>
	<circle fill="none" stroke="#1B1B1B" stroke-miterlimit="10" cx="55.933" cy="42.902" r="1.917"/>
	<g>
		<g>
			<path fill="#1B1B1B" d="M56.4,40.954c0-0.552,0-1.104,0-1.656c0-0.645-1-0.645-1,0c0,0.552,0,1.104,0,1.656
				C55.4,41.599,56.4,41.599,56.4,40.954L56.4,40.954z"/>
		</g>
	</g>
</g>
<g>
	<circle fill="none" stroke="#1B1B1B" stroke-miterlimit="10" cx="56.163" cy="67.132" r="1.917"/>
	<g>
		<g>
			<path fill="#1B1B1B" d="M56.631,65.184c0-0.552,0-1.104,0-1.656c0-0.645-1-0.645-1,0c0,0.552,0,1.104,0,1.656
				C55.631,65.829,56.631,65.829,56.631,65.184L56.631,65.184z"/>
		</g>
	</g>
</g>
<g>
	<polygon fill="#FFFFFF" points="72.077,67.87 72.541,68.784 72.188,70.28 71.35,69.595 71.497,68.498 	"/>
	<path fill="#15003E" d="M70.838,67.563c-0.097,0-0.176-0.079-0.176-0.175V66.01c0-0.097,0.079-0.175,0.176-0.175
		c0.096,0,0.174,0.078,0.174,0.175v1.379C71.012,67.484,70.934,67.563,70.838,67.563"/>
	<line fill="#FFFFFF" x1="70.577" y1="67.389" x2="71.118" y2="67.389"/>
	<path fill="#15003E" d="M71.118,67.563h-0.541c-0.097,0-0.175-0.079-0.175-0.175c0-0.097,0.078-0.175,0.175-0.175h0.541
		c0.097,0,0.175,0.078,0.175,0.175C71.293,67.484,71.215,67.563,71.118,67.563"/>
	<path fill="#FFFFFF" d="M72.077,67.87l0.574-0.542c-0.439-0.439-1.047-0.712-1.718-0.712c-1.343,0-2.431,1.088-2.431,2.43
		c0,1.343,1.088,2.431,2.431,2.431c0.5,0,0.939,0.183,1.326-0.076l0.481,0.066l-0.015-0.781l-1.377-1.091l0.297-1.395L72.077,67.87"
		/>
	<path fill="#15003E" d="M70.934,71.715c-1.472,0-2.669-1.197-2.669-2.669c0-1.471,1.197-2.668,2.669-2.668
		c0.713,0,1.383,0.277,1.887,0.781l0.174,0.174l-0.754,0.71l-0.327-0.347l0.386-0.364c-0.387-0.31-0.863-0.478-1.365-0.478
		c-1.209,0-2.191,0.983-2.191,2.191c0,1.209,0.982,2.192,2.191,2.192"/>
	<path fill="#0FCE7C" d="M72.272,70.344l-0.343-0.332c0.253-0.26,0.392-0.603,0.392-0.966c0-0.378-0.149-0.731-0.421-0.995
		l-0.179-0.174l0.191-0.181l0.163,0.173l0.156-0.161c0.365,0.354,0.565,0.83,0.565,1.338C72.798,69.533,72.611,69.994,72.272,70.344
		"/>
	<path fill="#EFF4EE" d="M70.385,69.046c0-0.303,0.245-0.548,0.549-0.548c0.303,0,0.549,0.245,0.549,0.548
		c0,0.304-0.246,0.549-0.549,0.549C70.63,69.595,70.385,69.35,70.385,69.046"/>
	<path fill="#15003E" d="M70.934,69.833c-0.435,0-0.787-0.353-0.787-0.787c0-0.434,0.353-0.787,0.787-0.787
		c0.434,0,0.787,0.354,0.787,0.787C71.721,69.48,71.367,69.833,70.934,69.833 M70.934,68.736c-0.172,0-0.311,0.139-0.311,0.31
		s0.139,0.311,0.311,0.311c0.171,0,0.311-0.14,0.311-0.311S71.104,68.736,70.934,68.736"/>
	<line fill="#15003E" x1="72.651" y1="67.328" x2="71.265" y2="68.609"/>
	
		<rect x="71.72" y="67.025" transform="matrix(0.6789 0.7343 -0.7343 0.6789 73.0138 -31.0093)" fill="#15003E" width="0.476" height="1.888"/>
	<polyline fill="#FFFFFF" points="71.192,69.53 72.188,70.28 72.727,70.686 72.727,71.715 71.646,71.663 	"/>
	<polygon fill="#15003E" points="72.966,71.715 70.891,71.715 70.891,71.238 72.488,71.238 72.488,70.805 71.049,69.721 
		71.336,69.34 72.966,70.566 	"/>
	<path fill="#15003E" d="M70.01,68.044c-0.097,0-0.175-0.078-0.175-0.174v-1.86c0-0.097,0.078-0.175,0.175-0.175
		s0.175,0.078,0.175,0.175v1.86C70.185,67.966,70.106,68.044,70.01,68.044"/>
</g>
<g>
	<g>
		<path fill="#15003E" d="M71.579,66.59c0-0.729,0-1.459,0-2.188c0-0.322-0.5-0.322-0.5,0c0,0.729,0,1.458,0,2.188
			C71.079,66.912,71.579,66.912,71.579,66.59L71.579,66.59z"/>
	</g>
</g>
<g>
	<g>
		<polygon fill="#FFFFFF" points="52.379,54.519 52.843,55.433 52.49,56.929 51.651,56.243 51.799,55.146 		"/>
		<path fill="#15003E" d="M51.14,54.212c-0.097,0-0.176-0.079-0.176-0.175v-1.379c0-0.097,0.079-0.175,0.176-0.175
			c0.096,0,0.174,0.078,0.174,0.175v1.379C51.313,54.133,51.235,54.212,51.14,54.212"/>
		<line fill="#FFFFFF" x1="50.879" y1="54.037" x2="51.42" y2="54.037"/>
		<path fill="#15003E" d="M51.42,54.212h-0.541c-0.097,0-0.175-0.079-0.175-0.175c0-0.097,0.078-0.175,0.175-0.175h0.541
			c0.097,0,0.175,0.078,0.175,0.175C51.595,54.133,51.517,54.212,51.42,54.212"/>
		<path fill="#FFFFFF" d="M52.379,54.519l0.574-0.542c-0.439-0.439-1.047-0.712-1.718-0.712c-1.343,0-2.431,1.088-2.431,2.43
			c0,1.343,1.088,2.431,2.431,2.431c0.5,0,0.939,0.183,1.326-0.076l0.481,0.066l-0.015-0.781l-1.377-1.091l0.297-1.395
			L52.379,54.519"/>
		<path fill="#15003E" d="M51.235,58.363c-1.472,0-2.669-1.197-2.669-2.669c0-1.471,1.197-2.668,2.669-2.668
			c0.713,0,1.383,0.277,1.887,0.781l0.174,0.174l-0.754,0.71l-0.327-0.347l0.386-0.364c-0.387-0.31-0.863-0.478-1.365-0.478
			c-1.209,0-2.191,0.983-2.191,2.191c0,1.209,0.982,2.192,2.191,2.192"/>
		<path fill="#0FCE7C" d="M52.574,56.992l-0.343-0.332c0.253-0.26,0.392-0.603,0.392-0.966c0-0.378-0.149-0.731-0.421-0.995
			l-0.179-0.174l0.191-0.181l0.163,0.173l0.156-0.161c0.365,0.354,0.565,0.83,0.565,1.338C53.1,56.182,52.913,56.643,52.574,56.992"
			/>
		<path fill="#EFF4EE" d="M50.687,55.694c0-0.303,0.245-0.548,0.549-0.548c0.303,0,0.549,0.245,0.549,0.548
			c0,0.304-0.246,0.549-0.549,0.549C50.932,56.243,50.687,55.998,50.687,55.694"/>
		<path fill="#15003E" d="M51.235,56.481c-0.435,0-0.787-0.353-0.787-0.787c0-0.434,0.353-0.787,0.787-0.787
			c0.434,0,0.787,0.354,0.787,0.787C52.022,56.129,51.669,56.481,51.235,56.481 M51.235,55.385c-0.172,0-0.311,0.139-0.311,0.31
			s0.139,0.311,0.311,0.311c0.171,0,0.311-0.14,0.311-0.311S51.406,55.385,51.235,55.385"/>
		<line fill="#15003E" x1="52.953" y1="53.977" x2="51.566" y2="55.258"/>
		
			<rect x="52.022" y="53.673" transform="matrix(0.6789 0.7343 -0.7343 0.6789 56.8848 -20.8334)" fill="#15003E" width="0.476" height="1.888"/>
		<polyline fill="#FFFFFF" points="51.494,56.179 52.49,56.929 53.028,57.334 53.028,58.363 51.948,58.312 		"/>
		<polygon fill="#15003E" points="53.268,58.363 51.192,58.363 51.192,57.887 52.79,57.887 52.79,57.453 51.351,56.369 
			51.638,55.988 53.268,57.215 		"/>
		<path fill="#15003E" d="M50.312,54.692c-0.097,0-0.175-0.078-0.175-0.174v-1.86c0-0.097,0.078-0.175,0.175-0.175
			s0.175,0.078,0.175,0.175v1.86C50.486,54.614,50.408,54.692,50.312,54.692"/>
	</g>
	<g>
		<g>
			<path fill="#15003E" d="M51.881,53.238c0-0.729,0-1.458,0-2.188c0-0.322-0.5-0.322-0.5,0c0,0.729,0,1.458,0,2.188
				C51.381,53.561,51.881,53.561,51.881,53.238L51.881,53.238z"/>
		</g>
	</g>
</g>
<g>
	<g>
		<polygon fill="#FFFFFF" points="67.066,75.394 67.53,76.308 67.178,77.804 66.339,77.118 66.486,76.021 		"/>
		<path fill="#15003E" d="M65.827,75.087c-0.097,0-0.176-0.079-0.176-0.175v-1.379c0-0.097,0.079-0.175,0.176-0.175
			c0.096,0,0.174,0.078,0.174,0.175v1.379C66.001,75.008,65.923,75.087,65.827,75.087"/>
		<line fill="#FFFFFF" x1="65.566" y1="74.912" x2="66.107" y2="74.912"/>
		<path fill="#15003E" d="M66.107,75.087h-0.541c-0.097,0-0.175-0.079-0.175-0.175c0-0.097,0.078-0.175,0.175-0.175h0.541
			c0.097,0,0.175,0.078,0.175,0.175C66.282,75.008,66.204,75.087,66.107,75.087"/>
		<path fill="#FFFFFF" d="M67.066,75.394l0.574-0.542c-0.439-0.439-1.047-0.712-1.718-0.712c-1.343,0-2.431,1.088-2.431,2.43
			c0,1.343,1.088,2.431,2.431,2.431c0.5,0,0.939,0.183,1.326-0.076l0.481,0.066l-0.015-0.781l-1.377-1.091l0.297-1.395
			L67.066,75.394"/>
		<path fill="#15003E" d="M65.923,79.238c-1.472,0-2.669-1.197-2.669-2.669c0-1.471,1.197-2.668,2.669-2.668
			c0.713,0,1.383,0.277,1.887,0.781l0.174,0.174l-0.754,0.71l-0.327-0.347l0.386-0.364c-0.387-0.31-0.863-0.478-1.365-0.478
			c-1.209,0-2.191,0.983-2.191,2.191c0,1.209,0.982,2.192,2.191,2.192"/>
		<path fill="#0FCE7C" d="M67.262,77.867l-0.343-0.332c0.253-0.26,0.392-0.603,0.392-0.966c0-0.378-0.149-0.731-0.421-0.995
			L66.711,75.4l0.191-0.181l0.163,0.173l0.156-0.161c0.365,0.354,0.565,0.83,0.565,1.338C67.787,77.057,67.601,77.518,67.262,77.867
			"/>
		<path fill="#EFF4EE" d="M65.374,76.569c0-0.303,0.245-0.548,0.549-0.548c0.303,0,0.549,0.245,0.549,0.548
			c0,0.304-0.246,0.549-0.549,0.549C65.619,77.118,65.374,76.873,65.374,76.569"/>
		<path fill="#15003E" d="M65.923,77.356c-0.435,0-0.787-0.353-0.787-0.787c0-0.434,0.353-0.787,0.787-0.787
			c0.434,0,0.787,0.354,0.787,0.787C66.71,77.004,66.356,77.356,65.923,77.356 M65.923,76.26c-0.172,0-0.311,0.139-0.311,0.31
			s0.139,0.311,0.311,0.311c0.171,0,0.311-0.14,0.311-0.311S66.094,76.26,65.923,76.26"/>
		<line fill="#15003E" x1="67.641" y1="74.852" x2="66.254" y2="76.133"/>
		
			<rect x="66.71" y="74.548" transform="matrix(0.6789 0.7343 -0.7343 0.6789 76.9289 -24.9142)" fill="#15003E" width="0.476" height="1.888"/>
		<polyline fill="#FFFFFF" points="66.182,77.054 67.178,77.804 67.716,78.209 67.716,79.238 66.636,79.187 		"/>
		<polygon fill="#15003E" points="67.955,79.238 65.88,79.238 65.88,78.762 67.478,78.762 67.478,78.328 66.038,77.244 
			66.325,76.863 67.955,78.09 		"/>
		<path fill="#15003E" d="M64.999,75.567c-0.097,0-0.175-0.078-0.175-0.174v-1.86c0-0.097,0.078-0.175,0.175-0.175
			s0.175,0.078,0.175,0.175v1.86C65.174,75.489,65.096,75.567,64.999,75.567"/>
	</g>
	<g>
		<g>
			<path fill="#15003E" d="M66.568,74.113c0-0.729,0-1.458,0-2.188c0-0.322-0.5-0.322-0.5,0c0,0.729,0,1.458,0,2.188
				C66.068,74.436,66.568,74.436,66.568,74.113L66.568,74.113z"/>
		</g>
	</g>
</g>
<polygon fill="#EA2F21" stroke="#0D2801" stroke-width="0.5" stroke-miterlimit="10" points="58.596,68.592 56.141,70.009 
	53.687,68.592 53.687,65.758 56.141,64.341 58.596,65.758 "/>
<polygon fill="#EA2F21" stroke="#0D2801" stroke-width="0.5" stroke-miterlimit="10" points="68.658,58.404 66.203,59.821 
	63.749,58.404 63.749,55.57 66.203,54.153 68.658,55.57 "/>
<g id="Layer_2_8_">
	<g id="Layer_16_8_">
		<path opacity="0.13" enable-background="new    " d="M98.034,35.93l-0.09-0.05l-1.77-1.03h-0.01l-1.37-0.79l-2.971-1.71
			l-7.84-4.52l-1.34-0.771l-1.77-1.02l-1.24-0.71l-8.07-4.65l-1.88-1.09l-7.12-4.1l-0.92-0.53l-0.96-0.55l-4.79-2.771l-2.479,1.431
			l-4.021,2.319l-1.87,1.08l-5.47,3.15l-3.521,2.029l-4.14,2.391l-1.83,1.05l-1.7,0.98l-0.18,0.1l-1.15,0.67l-4.26,2.45l-0.64,0.37
			l-1.43,0.819l-11.021,6.36l-2.06,1.19L9.824,38.2v53.12l9.181,5.31c0,0,0.01,0,0.02,0l0.51,0.29l0.07,0.05l0.05,0.021h0.03
			l0.99,0.59l3.899,2.25l0.49,0.279l0.561,0.32l0.6,0.34l6.1,3.521l0.391,0.22l2.979,1.72l1.33,0.771l7.15,4.13l0.49,0.28
			l2.239,1.29l0.24,0.14l0.05,0.03l0.05,0.029l0.45,0.261l0.15,0.08l0.32,0.189l0.09,0.05l1.14,0.65c0,0,0,0,0,0.01l0.75,0.431
			l0.32,0.18l0.359,0.21l0.15,0.08l0.04,0.02l0.45,0.261l0.029,0.02l0.221,0.13l0.24,0.14l0.029,0.021l0.03,0.01l0.03,0.021
			l3.01,1.739l0.61,0.351l0.229,0.13l0.69-0.4l4.17-2.399l0.2-0.12l0.17-0.101l0.63-0.359l1.6-0.92l0.19-0.11l0.39-0.229
			l0.021-0.011l1.569-0.899l0.07-0.04l1.47-0.851l1.09-0.63l0.13-0.069l0.271-0.16l0.05-0.03l0.22-0.13l0.131-0.07l1.109-0.64
			l0.09-0.05l1.34-0.771l0.4-0.229l2.23-1.28l0.52-0.3l0.14-0.08l3.69-2.13l0.21-0.12l0.59-0.34l2.08-1.2l1.03-0.601l0.39-0.22
			l0.24-0.14l0.09-0.05l0.101-0.061l0.699-0.399l2.79-1.61l0.521-0.3l0.43-0.25l3.47-2l0.141-0.08l0.069-0.04l3.07-1.771
			l0.311-0.199l0.13-0.08h0.04l0.52-0.301l0.03-0.02l0.46-0.26l0.88-0.51l0.02-0.011l5.19-2.989V38.2L98.034,35.93z M100.104,90.25
			l-4.42,2.55l-2.42,1.4l-0.11,0.06l-0.09,0.05l-0.47,0.271l-0.43,0.25l-0.99,0.569l-0.5,0.29l-3.07,1.771l-0.07,0.04l-0.14,0.08
			l-3.47,2l-0.44,0.25l-0.52,0.3l-0.38,0.22l-0.94,0.54l-0.25,0.15l-0.04,0.02l-0.57,0.33l-1.409,0.811l-0.091,0.05l-3.75,2.16
			l-0.59,0.34l-0.21,0.12l-2.479,1.43l-0.42,0.24l-0.79,0.46l-0.141,0.08l-0.449,0.26l-1.021,0.59l-0.24,0.141l-0.1,0.06l-0.18,0.1
			l-0.24,0.141l-0.03,0.02l-1.06,0.601l-1.15,0.67l-0.09,0.05l-2.98,1.72l-0.22,0.13l-0.31,0.181l-0.15,0.08l-0.81,0.47l-0.07,0.04
			l-0.05,0.029l-0.681,0.391l-0.319,0.189l-3.511,2.021l-1.35,0.78l-0.62-0.36l-0.729-0.42l-2.13-1.22l-0.03-0.021l-0.12-0.07
			l-0.05-0.029l-0.141-0.08l-0.369-0.21l-0.24-0.141l-0.26-0.149l-0.101-0.061l-0.09-0.05l-0.55-0.31l-0.36-0.21l-0.14-0.08
			l-0.07-0.04l-0.89-0.51l-1.271-0.73l-0.09-0.06l-0.14-0.08l-0.67-0.38l-0.101-0.061l-0.02-0.01l-2.931-1.69l-3.06-1.77l-3.9-2.25
			l-2.72-1.57l-0.54-0.31l-5.26-3.04l-0.23-0.13l-0.6-0.341l-2.41-1.39l-0.68-0.39l-1.75-1.01l-0.311-0.181l-0.29-0.17l-0.119-0.06
			c0,0,0,0-0.011,0l-10.22-5.91V39.28l0.521-0.301l2.659-1.529l7.521-4.341l2.66-1.529l0.21-0.12l4.77-2.76l0.29-0.17l0.37-0.21
			l1.88-1.08l0.03-0.021l9.59-5.53l2.271-1.31l3.069-1.771l1.87-1.079l5.38-3.101l1.12-0.64l4.79,2.76l1.88,1.09l0.26,0.15
			l2.92,1.68l3.94,2.271l1.88,1.08l2.11,1.22l3.96,2.28l2.76,1.6l0.72,0.41l1.17,0.68l8.75,5.05l1.271,0.73l0.52,0.3l1.32,0.76
			l0.14,0.08l0.37,0.21l1.65,0.95l0.26,0.15l3.54,2.04V90.25z"/>
	</g>
</g>
</svg>
