<?xml version="1.0" encoding="utf-8"?>
<!-- Generator: Adobe Illustrator 16.0.0, SVG Export Plug-In . SVG Version: 6.00 Build 0)  -->
<!DOCTYPE svg PUBLIC "-//W3C//DTD SVG 1.1//EN" "http://www.w3.org/Graphics/SVG/1.1/DTD/svg11.dtd">
<svg version="1.1" xmlns="http://www.w3.org/2000/svg" xmlns:xlink="http://www.w3.org/1999/xlink" x="0px" y="0px"
	 width="110.979px" height="128.417px" viewBox="0 0 110.979 128.417" enable-background="new 0 0 110.979 128.417"
	 xml:space="preserve">
<g id="Layer_1">
	<g id="Layer_24_1_">
		<polygon fill="#190C3C" points="110.979,96.171 55.48,128.229 -0.02,96.171 -0.02,32.056 55.48,0 110.979,32.056 		"/>
	</g>
</g>
<g id="Layer_4">
	<g id="Layer_63">
		<path fill="#FFFFFF" d="M101.923,38.139v53.14l-0.01,0.01l-0.45,0.26c-0.01,0.01-0.01,0.01-0.02,0.01l-0.16,0.091l-0.79,0.449
			l-6.28,3.62l-2.72,1.57l-0.24,0.13l-0.13,0.05l-0.11,0.07l-2.779,1.6l-0.25,0.141l-0.271,0.16l-0.63,0.359l-0.67,0.38l-0.3,0.17
			l-0.04,0.03l-1.63,0.94l-0.28,0.159l-1,0.58l-0.34,0.2l-0.87,0.521l-1.38,0.79l-1.46,0.85l-0.181,0.09l-0.02,0.021l-1.71,0.979
			l-0.96,0.561l-4.62,2.67l-0.38,0.22l-0.25,0.14l-0.061,0.03l-1.54,0.9l-0.239,0.13l-0.38,0.22l-1.341,0.78l-0.449,0.26l-0.9,0.521
			l-0.43,0.25l-1.15,0.659l-1.11,0.641l-0.01,0.01l-0.43,0.25l-1.45,0.84l-0.11,0.061l-1.819,1.05l-0.65,0.37l-1.35,0.779
			l-0.971,0.561l-0.729,0.42l-3.05-1.76l-0.65-0.38l-1.81-1.04l-0.13-0.08l-1.69-0.971l-0.24-0.14l-0.04-0.03l-1.01-0.58l-0.1-0.06
			l-0.96-0.55l-0.05-0.03l-0.49-0.28l-0.87-0.51l-1.3-0.75l-0.5-0.29l-0.6-0.35l-1.55-0.9l-0.3-0.17l-0.39-0.22l-5.09-2.95
			l-0.39-0.22l-0.49-0.28l-0.33-0.2l-1.85-1.06l-0.57-0.33l-0.57-0.33l-1.14-0.66l-0.16-0.09l-1.24-0.72l-0.43-0.25l-0.26-0.15
			l-0.42-0.25l-0.17-0.1l-1.94-1.11l-0.16-0.09l-0.64-0.37l-0.09-0.05l-0.4-0.23l-3.45-2l-0.82-0.47l-0.78-0.45l-0.22-0.13
			l-1.11-0.65l-7.5-4.319v-53.14l12.93-7.46l0.29-0.17l0.87-0.5l0.24-0.14l1.99-1.16l4.93-2.83l1.58-0.92l0.17-0.09l1.66-0.95
			l1.16-0.67l1.54-0.91l0.52-0.3l2.28-1.3l0.69-0.41l1.46-0.83l5.72-3.3l0.46-0.27l6.07-3.51l1.44-0.83l1.061,0.62l6.489,3.75
			l13.62,7.86l0.45,0.26l0.04,0.02l0.36,0.21l0.06,0.03l1.04,0.61l1.9,1.08l0.399,0.23l0.87,0.5l1.521,0.88l1.369,0.79l0.03,0.02
			l0.521,0.3l0.25,0.14l0.09,0.06l0.7,0.4l1.109,0.64l3.78,2.18l0.04,0.03v0.01l0.26,0.14l0.66,0.39l1.46,0.84l1.94,1.12l0.779,0.44
			l0.44,0.25l1.939,1.12L101.923,38.139z"/>
	</g>
	<g id="Layer_2_6_">
		<g id="Layer_16_5_">
			<path opacity="0.13" enable-background="new    " d="M9.826,38.141v53.121l46.072,26.559l46.074-26.559V38.141L55.898,11.58
				L9.826,38.141z M100.107,39.221v50.971l-44.209,25.489L11.687,90.192V39.221l44.211-25.489L100.107,39.221z"/>
		</g>
	</g>
	<g>
		<path fill="#DEDBED" d="M102.064,72.079c-0.051-0.04-0.091-0.07-0.141-0.101V38.139l-2.82-1.63l-1.939-1.12l-0.44-0.25
			l-0.779-0.44l-1.94-1.12l-1.46-0.84l-0.66-0.39l-0.26-0.14v-0.01l-0.04-0.03l-3.78-2.18l-1.109-0.64l-0.7-0.4l-0.09-0.06
			l-0.25-0.14l-0.521-0.3l-0.03-0.02l-1.369-0.79l-1.521-0.88l-0.87-0.5l-0.399-0.23l-1.9-1.08l-1.04-0.61l-0.06-0.03l-0.36-0.21
			l-0.04-0.02l-0.45-0.26l-13.62-7.86l-6.489-3.75l-1.061-0.62l-1.44,0.83l-6.07,3.51l-0.46,0.27l-5.72,3.3l-1.46,0.83l-0.69,0.41
			l-2.28,1.3l-0.52,0.3l-1.54,0.91l-1.16,0.67l-1.66,0.95l-0.17,0.09l-1.58,0.92l-4.93,2.83l-1.99,1.16l-0.24,0.14l-0.87,0.5
			l-0.29,0.17l-12.93,7.46v53.14l7.5,4.319l1.11,0.65l0.22,0.13l0.78,0.45l0.82,0.47l3.45,2c-0.007,0.02-0.014,0.039-0.021,0.058
			c1.155,0.273,2.223,0.788,3.15,1.486c0.721,0.364,1.36,0.818,1.902,1.359l0.719,0.417l0.16,0.09l1.14,0.66l0.57,0.33l0.57,0.33
			l1.85,1.06l0.33,0.2l0.49,0.28l0.39,0.22l5.09,2.95l0.39,0.22l0.3,0.17l1.55,0.9l0.6,0.35l0.5,0.29l1.3,0.75l0.87,0.51l0.49,0.28
			l0.05,0.03l0.96,0.55l0.1,0.06l1.01,0.58l0.04,0.03l0.24,0.14l1.69,0.971l0.13,0.08l1.81,1.04l0.65,0.38l3.05,1.76l0.729-0.42
			l0.971-0.561l1.35-0.779l0.65-0.37l1.819-1.05l0.11-0.061l1.45-0.84l0.43-0.25l0.01-0.01l1.11-0.641l1.15-0.659l0.43-0.25
			l0.9-0.521l0.449-0.26l1.341-0.78l0.38-0.22c0.54-0.05,1.09-0.101,1.63-0.13c-0.46-0.011-0.931-0.011-1.391,0l1.54-0.9l0.061-0.03
			l0.25-0.14l0.38-0.22l4.62-2.67l0.96-0.561l1.71-0.979l0.02-0.021l0.181-0.09l1.46-0.85l1.38-0.79l0.87-0.521l0.34-0.2l1-0.58
			l0.28-0.159l1.63-0.94l0.04-0.03l0.3-0.17l0.67-0.38l0.63-0.359l0.271-0.16l0.25-0.141l2.779-1.6l0.11-0.07l0.13-0.05l0.24-0.13
			l2.72-1.57l6.28-3.62l0.79-0.449l0.16-0.091c0.01,0,0.01,0,0.02-0.01c0.017-0.002,0.031-0.007,0.048-0.01
			c0.125-0.246,0.263-0.485,0.412-0.718V72.189h0.09c0.11,0.01,0.21,0.02,0.311,0.029c0-0.01,0.01-0.02,0.02-0.029
			c0-0.03,0.021-0.061,0.04-0.08C102.284,72.088,102.173,72.079,102.064,72.079z"/>
		<path fill="#F5F5FA" d="M101.923,39.238v6.1C101.473,43.338,101.463,41.238,101.923,39.238z"/>
		<path fill="#F5F5FA" d="M69.393,110.029l-0.239,0.13c0.54-0.05,1.09-0.101,1.63-0.13
			C70.324,110.018,69.853,110.018,69.393,110.029z M65.314,110.378c0.199,0.09,0.43,0.13,0.689,0.1c0.311-0.039,0.62-0.069,0.94-0.1
			H65.314z M42.983,110.378l0.5,0.29c0.63,0,1.25,0,1.87,0.01c1.33,0.03,2.66,0.05,3.99,0.05c0.41,0.011,0.72-0.13,0.94-0.35H42.983
			z M69.393,110.029l-0.239,0.13c0.54-0.05,1.09-0.101,1.63-0.13C70.324,110.018,69.853,110.018,69.393,110.029z M65.314,110.378
			c0.199,0.09,0.43,0.13,0.689,0.1c0.311-0.039,0.62-0.069,0.94-0.1H65.314z M42.983,110.378l0.5,0.29c0.63,0,1.25,0,1.87,0.01
			c1.33,0.03,2.66,0.05,3.99,0.05c0.41,0.011,0.72-0.13,0.94-0.35H42.983z M69.393,110.029l-0.239,0.13
			c0.54-0.05,1.09-0.101,1.63-0.13C70.324,110.018,69.853,110.018,69.393,110.029z M65.314,110.378c0.199,0.09,0.43,0.13,0.689,0.1
			c0.311-0.039,0.62-0.069,0.94-0.1H65.314z M42.983,110.378l0.5,0.29c0.63,0,1.25,0,1.87,0.01c1.33,0.03,2.66,0.05,3.99,0.05
			c0.41,0.011,0.72-0.13,0.94-0.35H42.983z M87.643,99.249c-0.25,0.05-0.5,0.1-0.75,0.14c-0.239,0.051-0.47,0.09-0.699,0.13
			c-0.721,0.131-1.44,0.261-2.16,0.381h-0.01c-0.101,0.02-0.19,0.029-0.29,0.05c-0.381,0.069-0.761,0.13-1.141,0.189
			c-2.5,0.41-5.01,0.771-7.529,1.08c-12.5,1.55-25.13,1.96-37.701,1.221c-2.99-0.181-5.99-0.41-8.98-0.74
			c-0.17-0.01-0.34-0.03-0.5-0.05l0.43,0.25l1.24,0.72l0.16,0.09l1.14,0.66l0.57,0.33l0.57,0.33l1.85,1.06l0.33,0.2l0.49,0.28
			l0.39,0.22l5.09,2.95l0.39,0.22l0.3,0.17l1.55,0.9l0.6,0.35l0.5,0.29c0.63,0,1.25,0,1.87,0.01c1.33,0.03,2.66,0.05,3.99,0.05
			c0.41,0.011,0.72-0.13,0.94-0.35c0.11-0.1,0.19-0.22,0.25-0.36c0.09-0.189,0.13-0.409,0.12-0.619
			c2.06,0.149,4.09,0.069,6.11-0.141c0.09,0.311,0.271,0.59,0.561,0.75c0.21,0.12,0.479,0.19,0.81,0.16
			c0.65-0.05,1.29-0.09,1.94-0.16c1.5-0.109,3.01-0.25,4.51-0.41c0.06,0.15,0.15,0.301,0.26,0.42c0.12,0.16,0.28,0.28,0.471,0.36
			c0.199,0.09,0.43,0.13,0.689,0.1c0.311-0.039,0.62-0.069,0.94-0.1c0.729-0.08,1.47-0.16,2.21-0.22c0.54-0.05,1.09-0.101,1.63-0.13
			c-0.46-0.011-0.931-0.011-1.391,0l1.54-0.9l0.061-0.03l0.25-0.14l0.38-0.22l4.62-2.67l0.96-0.561l1.71-0.979l0.02-0.021
			l0.181-0.09l1.46-0.85l1.38-0.79l0.87-0.521l0.34-0.2l1-0.58l0.28-0.159l1.63-0.94l0.04-0.03l0.3-0.17l0.67-0.38l0.63-0.359
			l0.271-0.16l0.25-0.141C88.034,99.178,87.833,99.218,87.643,99.249z M52.173,115.689l0.65,0.38l3.05,1.76l0.729-0.42l0.971-0.561
			l1.35-0.779l0.65-0.37C57.103,115.699,54.644,115.699,52.173,115.689z M42.983,110.378l0.5,0.29c0.63,0,1.25,0,1.87,0.01
			c1.33,0.03,2.66,0.05,3.99,0.05c0.41,0.011,0.72-0.13,0.94-0.35H42.983z M65.314,110.378c0.199,0.09,0.43,0.13,0.689,0.1
			c0.311-0.039,0.62-0.069,0.94-0.1H65.314z M69.393,110.029l-0.239,0.13c0.54-0.05,1.09-0.101,1.63-0.13
			C70.324,110.018,69.853,110.018,69.393,110.029z M42.983,110.378l0.5,0.29c0.63,0,1.25,0,1.87,0.01c1.33,0.03,2.66,0.05,3.99,0.05
			c0.41,0.011,0.72-0.13,0.94-0.35H42.983z M65.314,110.378c0.199,0.09,0.43,0.13,0.689,0.1c0.311-0.039,0.62-0.069,0.94-0.1H65.314
			z M69.393,110.029l-0.239,0.13c0.54-0.05,1.09-0.101,1.63-0.13C70.324,110.018,69.853,110.018,69.393,110.029z M42.983,110.378
			l0.5,0.29c0.63,0,1.25,0,1.87,0.01c1.33,0.03,2.66,0.05,3.99,0.05c0.41,0.011,0.72-0.13,0.94-0.35H42.983z M65.314,110.378
			c0.199,0.09,0.43,0.13,0.689,0.1c0.311-0.039,0.62-0.069,0.94-0.1H65.314z M69.393,110.029l-0.239,0.13
			c0.54-0.05,1.09-0.101,1.63-0.13C70.324,110.018,69.853,110.018,69.393,110.029z"/>
		<path fill="none" d="M9.923,82.348c1.03,0.221,2.03,0.521,3.02,0.88c0.77,0.24,1.51,0.54,2.24,0.9c0.48,0.24,0.7,0.61,0.73,0.99
			c0.01,0.04,0.01,0.07,0.01,0.109c0.05,0.011,0.1,0.021,0.15,0.03c0.09,0.021,0.19,0.03,0.3,0.04c0.59,0.05,1.24,0.4,1.37,1.05
			c0.06,0.311,0.12,0.62,0.19,0.94c0.98,1.29,1.52,2.86,1.22,4.5c0.04,0.229,0.01,0.439-0.06,0.64c0.06,0.3,0.11,0.601,0.13,0.9
			c0.02,0.27,0.02,0.53,0.01,0.79c0.08,0.24,0.08,0.51-0.04,0.81c-0.02,0.061-0.04,0.12-0.06,0.181c-0.08,0.43-0.21,0.859-0.38,1.27
			"/>
		<path fill="#FFFFFF" d="M85.133,28.449l-0.03-0.02l-1.369-0.79l-1.521-0.88l-0.87-0.5l-0.399-0.23l-1.9-1.08l-1.04-0.61
			l-0.06-0.03l-0.36-0.21c-0.07,0.15-0.11,0.31-0.12,0.49c0,0.05,0,0.1-0.01,0.15c-0.01,0.25,0.07,0.51,0.21,0.73
			c0.01,0.02,0.03,0.04,0.05,0.07c0.04,0.08,0.101,0.15,0.16,0.21c0.06,0.09,0.11,0.16,0.2,0.24c0,0,0,0.01,0.01,0.02
			c0,0.01,0.01,0.02,0.02,0.03c0.08,0.09,0.16,0.18,0.261,0.26c-0.07,0.05-0.13,0.1-0.19,0.17c-0.01,0-0.02,0.01-0.03,0.04
			c-0.68,0.74-0.449,2.22,0.721,2.36c0.09,0.02,0.18,0.02,0.27,0.02c0.08,0,0.16-0.01,0.24-0.01c0.17-0.01,0.35-0.01,0.52-0.02
			c1.921-0.06,3.841-0.1,5.761-0.11L85.133,28.449z"/>
		<path fill="#EEEDF6" d="M80.963,28.449c-0.29,0.25-0.68,0.41-1.07,0.41c-0.199,0-0.399-0.04-0.579-0.13
			c-0.11-0.05-0.211-0.11-0.301-0.18c-0.01-0.01-0.01-0.02-0.01-0.02l-0.01-0.01c0,0-0.01,0-0.021-0.01
			c-0.04-0.04-0.069-0.07-0.109-0.11c-0.03-0.03-0.05-0.07-0.07-0.1c-0.03-0.03-0.05-0.06-0.07-0.09c-0.33-0.52-0.52-1.09-0.58-1.7
			c-0.02-0.11-0.029-0.23-0.029-0.35v-0.01c-0.011-0.03-0.011-0.07-0.011-0.11v-0.18c-0.02-0.01-0.039-0.03-0.06-0.04
			c-0.12-0.08-0.24-0.17-0.33-0.28c-0.02-0.03-0.04-0.05-0.05-0.07c-0.22-0.3-0.32-0.69-0.19-1.16c0.021-0.08,0.04-0.16,0.07-0.23
			l0.04,0.02l0.36,0.21l0.06,0.03l1.04,0.61l1.9,1.08c0.02,0.27,0.1,0.52,0.239,0.74C81.603,27.418,81.414,28.059,80.963,28.449z"/>
		<path fill="#63BF8B" d="M86.893,99.388c-0.279-0.62-0.59-1.239-0.909-1.85c-0.051-0.2-0.091-0.4-0.131-0.6
			c0.08-0.24,0.08-0.511-0.02-0.82c-0.07-0.18-0.13-0.36-0.2-0.55c-0.02-0.12-0.06-0.24-0.12-0.341
			c-0.47-1.38-0.979-2.739-1.51-4.09c0.24-0.3,0.33-0.699,0.14-1.189c-0.72-1.851-1.439-3.71-2.159-5.561
			c-0.15-0.399-0.42-0.66-0.74-0.81c0-0.01,0-0.01,0-0.021c-1.28-3.58-2.63-7.02-3.07-10.819c-0.189-1.69-0.729-2.95-1.55-4.41
			c-0.79-1.39-0.67-3.021-1.39-4.47c-0.07-0.14-0.141-0.24-0.23-0.34c0.021-0.12,0-0.25-0.08-0.35c-0.05-0.09-0.1-0.17-0.16-0.24
			c-0.05-0.12-0.16-0.19-0.27-0.2c-0.01-0.03-0.021-0.05-0.03-0.08c0.01-0.03,0.03-0.06,0.03-0.1c0.09-0.44-0.05-0.85-0.41-1.09
			c-0.06-0.23-0.12-0.45-0.2-0.66v-0.06c0-0.5-0.03-1.08-0.34-1.44c-0.01-0.08-0.03-0.17-0.07-0.27c-0.1-0.27-0.38-0.37-0.609-0.29
			c-0.011,0-0.011,0.01-0.021,0.01c-0.01-0.02-0.02-0.05-0.02-0.07c0.01,0,0.01-0.01,0.02-0.01c0.2-0.14,0.32-0.4,0.19-0.69
			c-0.28-0.63,0.01-1.33-0.24-1.96c-0.229-0.58-0.67-0.66-1.03-1.02c-0.09-0.09-0.16-0.18-0.21-0.27l-0.01-0.01
			c-0.15-0.22-0.21-0.46-0.229-0.71c0-0.01,0-0.01,0-0.02c-0.04-0.34-0.03-0.71-0.101-1.1c-0.04-0.26-0.1-0.51-0.18-0.76v-0.01
			c0.189-1.34-0.59-2.68-1.04-3.93c-0.36-1.02-0.76-2.02-1.16-3.03c0.22-0.51,0.1-1.05,0.01-1.61c-0.13-0.78-0.319-1.54-0.45-2.32
			c-0.079-0.42-0.5-0.49-0.8-0.32c-0.01,0-0.02,0-0.029,0.01c-0.051-0.21-0.101-0.42-0.16-0.63c0-0.01,0.01-0.02,0.01-0.03
			c0.32-0.71-0.17-1.24-0.45-1.93c-0.16-0.39-0.09-0.81-0.21-1.2c-0.07-0.23-0.2-0.41-0.34-0.58c0.01-0.02,0.04-0.05,0.05-0.07
			c0.11-0.2,0.08-0.39,0.01-0.59c-0.02-0.05-0.04-0.09-0.069-0.12c-0.08-0.15-0.23-0.23-0.38-0.24c-0.011,0-0.011,0-0.021,0
			c-0.04-0.08-0.09-0.15-0.16-0.2c-0.3-0.23-0.71-0.15-0.91,0.17c0,0,0,0.01-0.01,0.01c-0.04,0.08-0.07,0.16-0.09,0.24
			c-0.03,0.16,0,0.33,0.07,0.48c0,0.01,0,0.03,0.01,0.04c0.01,0.05,0.04,0.08,0.08,0.12c-0.021,0.04-0.039,0.079-0.05,0.129
			c0,0-0.001,0-0.002,0c-0.02-0.01-0.038-0.01-0.059-0.02c-0.01,0-0.02-0.01-0.03-0.01c-0.079-0.05-0.159-0.08-0.25-0.11
			c-0.069-0.02-0.149-0.04-0.229-0.05c-0.11-0.02-0.22-0.04-0.34-0.06c-0.49-0.07-0.98,0-1.47,0.01c-0.101,0-0.19,0.02-0.271,0.05
			c-1.87-0.09-3.75-0.01-5.62-0.01c-1.79,0.01-3.7-0.19-5.48,0.05c-0.05-0.02-0.12-0.03-0.18-0.02c-0.12-0.01-0.23-0.01-0.34,0
			c-0.11,0.01-0.23,0.01-0.34,0.02c-0.03,0.01-0.07,0.01-0.1,0.02c-0.3-0.07-0.6-0.12-0.91-0.12h-0.05
			c-0.15,0.01-0.27,0.04-0.4,0.08c0.02-0.04,0.04-0.08,0.07-0.12c0.04-0.11,0.08-0.23,0.09-0.39c0.01-0.12-0.01-0.22-0.07-0.3
			c-0.04-0.09-0.11-0.15-0.2-0.19c-0.05-0.02-0.12-0.03-0.18-0.04c-0.2-0.28-0.58-0.42-0.92-0.24c-0.11,0.05-0.22,0.15-0.31,0.28
			c-0.03,0.05-0.06,0.09-0.09,0.14c-0.28,0.47-0.39,0.97-0.49,1.52c-0.04,0.19,0.03,0.36,0.13,0.49c-0.19,0.31-0.37,0.59-0.44,0.73
			c-0.24,0.61-0.26,1.27-0.61,1.84c-0.43,0.7-1.53,1.49-1.2,2.45c0.06,0.19,0.17,0.34,0.3,0.45c-0.04,0.16-0.07,0.31-0.12,0.46
			c-0.05,0.16-0.09,0.32-0.14,0.49c-0.26,0.23-0.52,0.45-0.68,0.85c-0.19,0.49-0.21,0.98-0.1,1.48c-0.22,0.07-0.4,0.28-0.35,0.6
			c0.24,1.75-1.42,3.23-1.27,5.02c0,0.08,0.02,0.16,0.05,0.23c-0.36,0.68-0.72,1.38-1.05,2.08c-0.02,0.05-0.04,0.09-0.06,0.13
			c-0.24,0.35-0.46,0.7-0.63,1.09c-0.26,0.58-0.43,1.19-0.62,1.79c-0.17,0.42-0.34,0.84-0.49,1.27c-0.14,0.36,0.06,0.67,0.35,0.82
			c-0.06,0.18-0.13,0.36-0.19,0.54c-0.25,0.08-0.47,0.27-0.57,0.55c-0.94,2.51-1.89,5.01-2.86,7.5c-0.15,0.37-0.3,0.75-0.43,1.14
			c-0.08,0.22-0.06,0.42,0.01,0.58c-0.74,1.59-1.32,3.271-2.12,4.851c-0.48,0.939-1.02,1.85-1.31,2.89c-0.3,1.09-0.4,2.26-0.56,3.38
			c-0.6,1.13-1.04,2.36-1.51,3.54c-0.59,1.5-1.34,3.16-1.56,4.76c-0.61,1.32-1.24,2.66-1.75,4.021c-0.04,0.09-0.08,0.18-0.1,0.279
			c-0.19,0.53-0.38,1.061-0.53,1.591c-0.05,0.18-0.04,0.35,0.01,0.489c-0.11,0.24-0.21,0.49-0.3,0.74
			c-0.433,1.237-0.891,2.456-1.125,3.749c0.88,0.33,1.647,0.796,2.299,1.367c0.132,0.067,0.273,0.124,0.398,0.199
			c0.062-0.149,0.125-0.293,0.187-0.445c0.87-2.1,1.59-4.16,1.48-6.45c0.16-0.24,0.25-0.53,0.26-0.82c0.04-0.1,0.09-0.199,0.14-0.3
			c0.16,0.221,0.39,0.4,0.7,0.471c0.08,0.02,0.15,0.029,0.23,0.04c0.09,0.029,0.19,0.039,0.28,0.05c0.09,0.029,0.17,0.04,0.26,0.05
			h0.01c0.16,0.03,0.31,0.05,0.46,0.06c0.05,0.011,0.1,0.021,0.15,0.021c1.63,0.17,3.29,0.06,4.92,0.01
			c2.08-0.07,4.15-0.09,6.24-0.09h12.76c4.15,0,8.31-0.01,12.47-0.01c0.649,0,1.3,0,1.949,0.01c3.16,0.03,6.33,0.11,9.48,0
			c0.18,0,0.37-0.01,0.55-0.021c0.2-0.01,0.4-0.01,0.601-0.029c0.159,0,0.31-0.011,0.47-0.021c0.02,0,0.03,0,0.05-0.01
			c0.271-0.02,0.49-0.11,0.67-0.23c0.33,0.87,0.64,1.75,0.94,2.631c0.02,0.109,0.04,0.22,0.06,0.33c-0.2,0.369-0.229,0.819,0.03,1.3
			c0.14,0.25,0.28,0.5,0.41,0.76c0.1,0.4,0.21,0.8,0.33,1.2c0.13,0.51,0.279,1.02,0.43,1.529l0.28-0.159l1.63-0.94l0.04-0.03
			l0.3-0.17l0.67-0.38C87.024,99.659,86.954,99.518,86.893,99.388z M48.003,38.028c0.15-0.26,0.24-0.52,0.31-0.77
			c0.01,0,0.01,0.01,0.02,0.01c0.02,0.02,0.05,0.04,0.08,0.06c0.11,0.06,0.21,0.11,0.31,0.16h0.01c0.04,0.02,0.08,0.04,0.13,0.05
			h0.01c0.14,0.06,0.27,0.09,0.45,0.09c0.27,0,0.52-0.03,0.78-0.09c0.95,0.27,2.08,0.14,3.05,0.16c1.23,0.03,2.46,0,3.69,0.03
			c1.13,0.03,2.271,0.04,3.41,0.06c0.16,0,0.32,0.01,0.48,0.01c0.29,0.01,0.569,0.02,0.85,0c0.38-0.01,0.75-0.06,1.1-0.17
			c0.45,0.01,0.9,0.06,1.351,0c0.229-0.04,0.46-0.07,0.66-0.14h0.01c0.02-0.02,0.05-0.03,0.07-0.04c0.029-0.01,0.05-0.02,0.079-0.04
			c0,0.03,0.011,0.05,0.011,0.08c0,0,0,0,0.01,0c0,0.1,0.03,0.21,0.06,0.31c-0.01,0.01-0.01,0.01-0.01,0.01s0,0.01,0.01,0.01
			c0.021,0.09,0.04,0.17,0.08,0.26c0.03,0.12,0.07,0.23,0.11,0.35c0.02,0.03,0.03,0.07,0.04,0.1c-0.061-0.02-0.13-0.03-0.19-0.04
			c-0.09-0.03-0.18-0.05-0.27-0.06c-1.021-0.19-2.11-0.08-3.12-0.08c-1.57-0.01-3.15-0.07-4.73-0.06
			c-1.479,0.02-2.959,0.04-4.45,0.05c-1.24,0-2.54-0.1-3.79,0.05c-0.1,0.01-0.21,0.02-0.31,0.04c-0.07,0.01-0.15,0.02-0.22,0.03
			c-0.46,0.09-0.51,0.76-0.17,0.99c0.03,0.02,0.06,0.03,0.1,0.04c0.01-0.01,0.01,0,0.01,0c0.02,0.01,0.04,0.02,0.06,0.02
			c0.01,0,0.01,0,0.02,0c0.06,0.01,0.11,0.02,0.17,0.03c0.01,0.01,0.03,0.01,0.04,0.01h0.02c1.25,0.19,2.53,0.09,3.79,0.09
			c1.58,0,3.15,0.03,4.729,0.04c1.48,0.01,2.971-0.05,4.45-0.05c1.221,0,2.57,0.15,3.771-0.16c0.05-0.01,0.1-0.02,0.14-0.04
			c0.061-0.01,0.11-0.03,0.16-0.05c0.04,0,0.07-0.02,0.11-0.03c0.01,0.04,0.029,0.08,0.04,0.12c0.02,0.06,0.04,0.13,0.06,0.19
			c0.02,0.05,0.03,0.1,0.05,0.15c0,0,0,0.01,0,0.02c0.061,0.16,0.11,0.32,0.15,0.48c0.01,0.02,0.02,0.04,0.02,0.06
			c0.03,0.09,0.061,0.18,0.08,0.28v0.01l0.01,0.01c0.011,0.04,0.021,0.07,0.03,0.11c-0.12-0.02-0.25-0.04-0.37-0.06
			c-0.13-0.02-0.26-0.04-0.39-0.05c-1.021-0.1-2.05-0.04-3.07-0.04c-1.689,0-3.37-0.01-5.06-0.01c-1.59,0-3.19-0.01-4.78-0.01
			c-0.76,0-1.54-0.03-2.31-0.02c-0.23-0.02-0.47-0.01-0.73,0.01c-0.37,0.01-0.79-0.03-1.15,0.07c-0.05,0.01-0.09,0.02-0.13,0.04
			c-0.02,0-0.04,0.01-0.06,0.02c-0.11-0.06-0.2-0.08-0.28-0.08c0.01-0.03,0.02-0.06,0.03-0.09c0-0.01,0-0.01,0-0.01
			c0.02-0.07,0.03-0.13,0.05-0.19c0.05-0.17,0.09-0.32,0.13-0.46c0.08-0.29-0.06-0.54-0.26-0.68
			C47.664,38.809,47.784,38.409,48.003,38.028z M46.653,42.648c0.25-0.32,0.46-0.73,0.63-1.15c0.04,0.12,0.12,0.22,0.24,0.29
			c0.02,0.01,0.05,0.02,0.08,0.03l0.01,0.01h0.01c0.03,0.01,0.07,0.02,0.1,0.02c0.08,0.02,0.15,0.04,0.23,0.05
			c0.01,0.01,0.02,0.01,0.03,0.01c1.31,0.26,2.66,0.17,3.99,0.17c1.69,0,3.37-0.01,5.06-0.01c1.59,0,3.189-0.01,4.78-0.01
			c1.34,0,2.72,0.1,4.039-0.14c0.021,0,0.03,0,0.04-0.01c0.021,0,0.04,0,0.051-0.01c0.08-0.01,0.149-0.02,0.22-0.04
			c0.01,0,0.03-0.01,0.04-0.01c0.02,0.08,0.05,0.17,0.07,0.26v0.01c0.01,0.01,0.01,0.01,0.01,0.02c0.08,0.26,0.149,0.54,0.24,0.81
			c0.01,0.03,0.02,0.07,0.029,0.1c0.021,0.07,0.04,0.13,0.061,0.19c-0.17-0.1-0.33-0.17-0.49-0.21c-0.35-0.08-0.72-0.04-1.21-0.01
			c-0.94,0.05-1.86,0-2.8,0c-1.96,0-3.92-0.04-5.88-0.06c-1.86-0.01-3.73,0.03-5.59,0.08c-0.71,0.02-1.56-0.09-2.37-0.09
			c-0.34,0-0.68,0.02-1,0.09c-0.22,0.03-0.43,0.09-0.63,0.19c-0.07,0.02-0.14,0.05-0.21,0.09
			C46.523,43.099,46.604,42.869,46.653,42.648z M46.104,44.199c0.01,0,0.01,0,0.01,0c0.13,0.11,0.26,0.2,0.41,0.27
			c0.08,0.04,0.17,0.08,0.26,0.11c0.02,0.01,0.04,0.02,0.06,0.02c0.06,0.02,0.1,0.04,0.15,0.05h0.01c1.04,0.28,2.32,0.02,3.36,0.04
			c1.96,0.04,3.92,0.1,5.871,0.09c1.869-0.02,3.729-0.09,5.6-0.07c1,0.01,1.97-0.08,2.97,0c0.69,0.05,1.15,0.11,1.66-0.13
			c0.01,0,0.021-0.01,0.03-0.02c0.12-0.05,0.24-0.13,0.37-0.23c0.029-0.02,0.06-0.05,0.08-0.08c0.01,0.03,0.02,0.06,0.029,0.09
			c0.03,0.08,0.051,0.16,0.08,0.24c0,0.01,0.011,0.01,0.011,0.01v0.01c0.039,0.13,0.079,0.26,0.13,0.39c0,0.01,0,0.01,0,0.02
			c0.13,0.38,0.26,0.77,0.39,1.15h0.01c0.03,0.11,0.07,0.21,0.11,0.32c0.01,0.04,0.02,0.07,0.04,0.11
			c0.04,0.11,0.08,0.23,0.109,0.34c-0.039-0.12-0.119-0.24-0.239-0.33c-0.07-0.06-0.15-0.12-0.25-0.16h-0.011
			c-0.09-0.03-0.18-0.06-0.289-0.07c-0.04-0.01-0.091-0.01-0.131-0.01c-1.79-0.2-3.659-0.06-5.47-0.06c-1.86,0-3.729-0.03-5.59-0.01
			c-1.78,0.02-3.54,0.18-5.33,0.17c-1.33,0-2.9-0.26-4.24,0.11c-0.04,0.01-0.08,0.02-0.12,0.03c-0.18,0.06-0.36,0.13-0.53,0.21
			c0.06-0.12,0.11-0.23,0.17-0.35v-0.01c0-0.01,0.01-0.02,0.01-0.03c0.03-0.06,0.04-0.13,0.04-0.18c-0.01-0.01,0-0.01,0-0.01
			c-0.01-0.22-0.17-0.38-0.36-0.41C45.733,45.278,45.923,44.738,46.104,44.199z M42.593,54.838c0.24-0.35,0.5-0.7,0.75-1.06
			c0.31-0.45,0.6-0.91,0.81-1.42c0.15,0.03,0.31,0.04,0.46-0.01c0.03,0,0.06-0.01,0.09-0.02c0.1-0.04,0.19-0.09,0.26-0.15
			c0.02-0.02,0.04-0.03,0.06-0.05c0.03,0,0.06-0.01,0.08-0.02c0.18-0.04,0.27-0.27,0.17-0.41c-0.01,0-0.01-0.01-0.01-0.01v-0.05
			c0.11,0.03,0.22,0.05,0.33,0.06c1.45,0.27,3.13,0.05,4.55,0.06c1.89,0.01,3.77,0.02,5.66,0.05c1.79,0.02,3.58-0.01,5.37-0.02
			c1.101-0.01,2.24,0.1,3.34-0.01c0.16,0.18,0.4,0.3,0.721,0.3c0.109,0,0.22,0,0.319-0.01c0.46,0,0.931,0,1.391-0.03
			c0.26-0.01,0.51-0.06,0.739-0.12c0.21,0,0.45-0.04,0.66-0.13l0.12-0.06c0.021-0.01,0.04-0.02,0.05-0.03
			c0.15-0.09,0.271-0.22,0.33-0.38c0.03-0.07,0.04-0.15,0.04-0.23c0.01-0.01,0.01-0.03,0.01-0.04v-0.01c0-0.06-0.01-0.1-0.02-0.15
			v-0.01c-0.021-0.1-0.07-0.19-0.13-0.27c0-0.01-0.01-0.01-0.01-0.01c-0.141-0.18-0.351-0.29-0.57-0.36
			c-0.09-0.03-0.17-0.05-0.26-0.06h-0.011c-0.079-0.01-0.159-0.01-0.229-0.01c-0.23-0.06-0.46-0.1-0.72-0.11
			c-0.46-0.03-0.92-0.03-1.38-0.04c-1.33-0.34-2.74-0.18-4.11-0.18c-1.89,0-3.771-0.04-5.65-0.02c-1.79,0.02-3.59,0.04-5.37,0.05
			c-1.59,0.01-3.52-0.26-5.1,0.1c-0.16,0.04-0.32,0.08-0.47,0.13c-0.1,0.03-0.19,0.08-0.26,0.13c-0.01-0.12-0.03-0.25-0.07-0.38
			c-0.01-0.03-0.02-0.06-0.04-0.08c-0.01-0.03-0.03-0.06-0.04-0.08c0.01-0.08,0.02-0.16,0.04-0.24c0.28-0.68,0.57-1.34,0.87-2
			c0.04,0.08,0.1,0.16,0.19,0.21c0.05,0.03,0.1,0.05,0.15,0.07c0.08,0.04,0.16,0.08,0.24,0.11c0.07,0.02,0.14,0.05,0.21,0.07
			c0.02,0,0.04,0.01,0.06,0.02c1.28,0.37,2.76,0.13,4.06,0.12c1.88,0,3.72,0.15,5.6,0.17c1.77,0.03,3.54,0,5.32,0
			c1.93,0,3.949,0.16,5.87-0.07c0.109-0.01,0.199-0.04,0.289-0.08c0.08-0.02,0.15-0.06,0.211-0.11c0.02-0.01,0.039-0.03,0.06-0.05
			c0.11-0.09,0.19-0.21,0.24-0.34c0.029-0.07,0.05-0.14,0.05-0.21c0,0,0.01-0.01,0-0.02c0.01,0,0.01,0,0.01,0
			c0-0.06,0-0.11-0.01-0.17v-0.01c0-0.03-0.01-0.07-0.01-0.1c0.02,0.04,0.029,0.08,0.05,0.12v0.01c0.01,0.04,0.02,0.07,0.04,0.11
			c0.01,0.02,0.01,0.04,0.02,0.06c0.011,0.03,0.021,0.06,0.03,0.09c0,0.01,0,0.01,0,0.01c0.01,0.02,0.021,0.03,0.021,0.04
			c0.039,0.11,0.079,0.22,0.119,0.33c0.221,0.59,0.41,1.3,0.641,2c0.04,0.05,0.06,0.11,0.06,0.17c0.21,0.64,0.46,1.26,0.8,1.76
			c0.061,1.13,0.511,2.14,0.92,3.25c-0.02,0.02-0.029,0.04-0.05,0.06c-0.1,0.07-0.17,0.16-0.22,0.27c-0.03,0.06-0.04,0.14-0.04,0.21
			c-0.01-0.04-0.03-0.08-0.06-0.11c-0.021-0.04-0.061-0.08-0.091-0.12c-0.069-0.05-0.149-0.1-0.25-0.14
			c-0.199-0.07-0.409-0.13-0.609-0.19c-0.101-0.02-0.19-0.04-0.28-0.06c-1.75-0.35-3.75-0.07-5.479-0.08
			c-2.351,0-4.7-0.01-7.051-0.01c-4.2-0.01-8.45-0.16-12.649-0.03c-0.2,0.01-0.41,0.02-0.62,0.03c-0.18,0-0.36,0.01-0.54,0.02
			c-0.03,0-0.06,0.01-0.08,0.02C42.583,54.858,42.583,54.849,42.593,54.838z M41.434,60.568c0.06-0.21,0.11-0.42,0.16-0.64
			c0.23-1.03,0.39-2.06,0.49-3.02c0.02-0.19-0.07-0.35-0.21-0.44c0.01-0.03,0.02-0.06,0.04-0.09c0.14,0.21,0.38,0.37,0.75,0.38
			c0.11,0.01,0.22,0.01,0.33,0.01h0.01c0.06,0.01,0.11,0.01,0.17,0.01c0.04,0,0.07,0.01,0.11,0c0.11,0.01,0.22,0.02,0.33,0.01
			c0.02,0.01,0.05,0.01,0.07,0.01c4.24,0.15,8.54,0,12.79-0.01c2.25-0.01,4.511-0.01,6.771-0.02c1.99,0,4.38,0.38,6.32-0.22
			c0.06-0.02,0.109-0.03,0.159-0.05c0.061-0.02,0.11-0.04,0.17-0.06c0.011,0,0.021-0.01,0.021-0.01c0.17-0.06,0.28-0.17,0.35-0.3
			c0.051-0.08,0.08-0.17,0.08-0.26c0.01-0.01,0.01-0.02,0-0.03c0.01-0.03,0.01-0.05,0.01-0.08c0.011,0.02,0.011,0.05,0.03,0.07
			c0,0.01,0,0.03,0.01,0.04c0.021,0.06,0.04,0.12,0.061,0.18c0.03,0.06,0.05,0.13,0.08,0.2c0.13,0.3,0.28,0.6,0.43,0.9
			c-0.3,1.03,0.2,1.85,0.811,2.66c-0.021,0.04-0.04,0.08-0.04,0.12l-0.011,0.01c-0.01,0.01-0.01,0.02-0.01,0.03
			c-0.03,0.16-0.05,0.33-0.06,0.5c-0.021-0.01-0.04-0.02-0.07-0.03c-0.03-0.01-0.07-0.02-0.1-0.02c-0.21-0.05-0.42-0.1-0.641-0.13
			c-2.229-0.39-4.67-0.1-6.91-0.11c-2.64-0.01-5.29,0-7.93,0.01c-2.64,0-5.28,0.01-7.92,0.02c-1.85,0.01-4.28-0.38-6.13,0.27
			c-0.08,0.03-0.15,0.06-0.23,0.09c-0.11,0.04-0.22,0.09-0.33,0.15C41.403,60.668,41.423,60.619,41.434,60.568z M38.874,66.199
			c0.21-0.42,0.41-0.84,0.61-1.271c0.25-0.52,0.56-0.979,0.85-1.5c0.17-0.3,0.32-0.61,0.46-0.94l0.18-0.45
			c0.13,0.09,0.26,0.16,0.39,0.23c0.05,0.03,0.1,0.05,0.15,0.07c0.09,0.05,0.17,0.09,0.26,0.12c1.88,0.74,4.39,0.32,6.31,0.32
			c2.64,0.01,5.28,0.02,7.92,0.03c2.64,0.01,5.29,0.02,7.93,0.01c2.46-0.01,5.181,0.33,7.58-0.25c0.021,0,0.051,0,0.07-0.01
			c0.06-0.02,0.12-0.04,0.17-0.07c0.021,0,0.05-0.01,0.07-0.03c0.22-0.11,0.37-0.3,0.45-0.52c0.02-0.03,0.029-0.07,0.04-0.1
			c0.029,0,0.06,0,0.09-0.01h0.01c0.02,0,0.03,0,0.04-0.01h0.01c-0.01,0.03-0.01,0.05-0.01,0.08v0.36
			c0.05,0.21,0.149,0.42,0.25,0.62c0.05,0.08,0.1,0.17,0.16,0.26c0.029,0.18,0.069,0.37,0.12,0.55c-0.36,0.4-0.511,0.99-0.21,1.6
			c0.319,0.65,0.449,1.33,0.59,2.01c0,0.05,0.01,0.101,0.02,0.141c0.03,0.17,0.061,0.34,0.101,0.51c-0.021,0-0.03-0.01-0.051-0.01
			c-0.119-0.03-0.229-0.051-0.35-0.07c-0.89-0.141-1.84-0.061-2.74-0.061c-1.49-0.01-2.99-0.01-4.49-0.01h-9.52
			c-3.09,0-6.17,0.01-9.25,0.04c-2.46,0.021-5.04-0.24-7.52-0.11c-0.38,0.021-0.75,0.051-1.12,0.091h-0.01
			c-0.11,0.01-0.21,0.029-0.32,0.04C38.343,67.298,38.593,66.749,38.874,66.199z M35.324,77.539c0.1-0.26,0.21-0.51,0.32-0.771
			c0.06-0.149,0.12-0.3,0.18-0.449c0.52-1.25,1.68-2.96,1.21-4.341c0.19-0.569,0.34-1.159,0.45-1.75c0.09,0.04,0.19,0.061,0.29,0.08
			c0.15,0.021,0.31,0.04,0.46,0.061c0.01,0,0.03,0.01,0.04,0c0.12,0.02,0.23,0.03,0.34,0.04c0.03,0.01,0.05,0.01,0.07,0.01
			c0.13,0.01,0.25,0.021,0.37,0.03c0.03,0,0.05,0.01,0.07,0h0.01c2.53,0.18,5.15-0.11,7.66-0.08c3.18,0.03,6.36,0.05,9.54,0.04
			h13.73c1.18,0,2.46,0.14,3.6-0.21c0.01,0,0.03,0,0.04-0.01c0.02,0,0.03-0.011,0.05-0.021c0.18-0.05,0.36-0.12,0.53-0.21
			c0.06,0.11,0.13,0.21,0.189,0.32c0.24,0.41,0.471,0.819,0.62,1.279c0.25,0.83,0.28,1.7,0.37,2.551
			c0.101,0.899,0.271,1.779,0.49,2.659c0.03,0.131,0.07,0.271,0.1,0.4c0,0.01,0,0.01,0,0.021c0.021,0.069,0.04,0.149,0.07,0.22
			c0.01,0.069,0.03,0.13,0.05,0.2c0,0.01,0.01,0.02,0.01,0.029c-0.04-0.01-0.09-0.02-0.13-0.029
			c-0.04-0.011-0.069-0.021-0.109-0.021c-1.13-0.25-2.32-0.2-3.48-0.32c-1.76-0.18-3.51-0.18-5.27-0.21
			c-3.66-0.05-7.32-0.08-10.98-0.09c-3.56-0.01-7.13,0.04-10.69,0.05c-1.79,0.011-3.57,0.021-5.35,0.03
			c-1.31,0.01-2.58-0.08-3.77,0.29c-0.24,0.07-0.48,0.16-0.71,0.271c-0.17,0.08-0.34,0.17-0.5,0.279c-0.01,0-0.02,0.011-0.02,0.021
			C35.224,77.789,35.273,77.659,35.324,77.539z M80.963,91.289c-0.01,0-0.01,0-0.02,0c-0.15-0.01-0.301-0.021-0.45-0.021
			c-0.17-0.01-0.351-0.02-0.521-0.01c-0.09-0.02-0.17-0.02-0.26-0.01h-0.01c-0.94-0.05-1.89-0.06-2.84-0.06
			c-0.101-0.011-0.2-0.011-0.3,0c-0.19-0.011-0.391-0.011-0.58-0.011c-2.5,0-5.011,0.061-7.5,0.061c-4.261,0-8.511,0-12.76-0.011
			h-12.48c-2.08,0-4.16-0.01-6.24-0.079c-1.7-0.051-3.45-0.181-5.15,0c-0.3,0.029-0.59,0.069-0.89,0.13h-0.01
			c-0.14,0.01-0.27,0.04-0.41,0.069c0.2-0.64,0.35-1.3,0.42-1.97c0.83-0.88,1.13-2.31,1.51-3.39c0.34-0.96,0.7-1.91,0.96-2.891
			c0.22-0.79,0.33-1.59,0.56-2.37c0.26-0.609,0.51-1.229,0.77-1.84c0.03,0.12,0.07,0.24,0.15,0.351c0.07,0.109,0.16,0.2,0.28,0.279
			c0.14,0.091,0.27,0.171,0.41,0.24c0.09,0.04,0.19,0.09,0.28,0.12c0.26,0.12,0.53,0.2,0.79,0.271c1.03,0.25,2.09,0.199,3.22,0.21
			c1.78,0,3.56,0.01,5.35,0.02c3.66,0.01,7.31,0.061,10.97,0.05c3.57-0.01,7.13-0.029,10.7-0.08c0.31-0.01,0.63-0.01,0.95-0.01
			c0.26,0.01,0.529,0.01,0.79-0.01c0.76,0,1.51-0.021,2.27-0.061c1.47,0.051,2.92,0.21,4.37,0.23c0.25,0.01,0.49,0.01,0.74,0.01
			c0.13,0,0.25-0.03,0.35-0.069c0.04-0.021,0.07-0.04,0.101-0.061c0.08-0.05,0.149-0.12,0.199-0.2c0.011,0,0.011-0.01,0.011-0.02
			c0,0,0.01,0,0.01-0.01c0.08-0.12,0.13-0.28,0.13-0.431c0.05,0.141,0.1,0.29,0.15,0.431h0.01v0.02c0.06,0.19,0.13,0.38,0.2,0.56
			c0.02,0.061,0.04,0.12,0.06,0.171c0,0.01,0,0.02,0.01,0.02c0,0.01,0,0.021,0.011,0.03c0,0.029,0.01,0.05,0.02,0.069
			c0,0.021,0.01,0.04,0.021,0.061c0.39,1.08,0.789,2.16,1.18,3.229c0.149,0.42,0.43,0.69,0.76,0.841
			c0.41,1.069,0.82,2.13,1.23,3.199c-0.15,0.24-0.23,0.511-0.221,0.82c0,0,0.011,0,0,0.01c0.011,0.17,0.051,0.37,0.12,0.55
			c0.09,0.211,0.181,0.431,0.271,0.641c0.02,0.04,0.029,0.08,0.05,0.12c0.02,0.05,0.04,0.109,0.06,0.16
			c0.011,0,0.011,0.01,0.011,0.02c0.01,0.021,0.02,0.04,0.02,0.05c0.08,0.17,0.14,0.33,0.21,0.5v0.01
			c0.01,0.021,0.021,0.04,0.03,0.061H80.963z"/>
		<path fill="#63BF8B" d="M66.083,111.939l0.9-0.521l0.449-0.26l1.341-0.78l0.263-0.152c0.101-0.065,0.196-0.136,0.301-0.197
			c-1.501-0.011-2.992-0.021-4.494-0.011c-1.59-0.01-3.18-0.01-4.77-0.01h-3.26c-2.09,0-4.181,0-6.28,0.01
			c-2.71,0-5.43,0-8.15,0.011l0.6,0.35l0.5,0.29l1.3,0.75l0.87,0.51c3.72,0.011,7.44,0.011,11.161,0.011H66.083z"/>
		<path fill="#63BF8B" d="M56.534,112.218c-3.46,0-6.93,0-10.39-0.01l0.05,0.03l0.96,0.55l0.1,0.06l1.01,0.58l0.04,0.03l0.24,0.14
			l1.69,0.971h6.3c1.66,0,3.31,0.01,4.97,0.02l1.45-0.84l0.43-0.25l0.01-0.01l1.11-0.641l1.15-0.659L56.534,112.218z"/>
		<path fill="#FFFFFF" d="M29.354,42.218c-0.01,0.08-0.02,0.17-0.02,0.25c-0.02,0.18-0.03,0.35-0.05,0.53
			c-0.01,0.02-0.01,0.04-0.01,0.05c-0.02,0.12-0.03,0.23-0.04,0.35c-0.11,0.73-0.79,1-1.43,0.9c-0.16,0.27-0.44,0.49-0.77,0.6
			c-0.04,0.01-0.09,0.02-0.13,0.04c-0.14,0.24-0.35,0.44-0.61,0.54c-0.14,0.05-0.3,0.08-0.47,0.07c-0.11,0-0.21-0.02-0.33-0.05
			l-0.36-0.12c-0.13-0.04-0.27-0.07-0.41-0.09h-14.8v-7.15l12.93-7.46l0.29-0.17c0.07,0.12,0.13,0.24,0.19,0.36
			c0.32,0.2,0.56,0.54,0.61,1.01c0.03,0.26,0.06,0.52,0.09,0.77c0.16,0.55,0.27,1.07,0.32,1.54c0.02,0.2,0.03,0.39,0.03,0.57
			c0.13,0.05,0.24,0.11,0.34,0.2c0.21,0.14,0.37,0.35,0.46,0.58c1.46-0.13,2.83,0.5,3.36,2.01c0.06,0.17,0.07,0.34,0.04,0.5
			c0.53,0.11,1,0.51,1.03,1.22c0.03,0.55,0.13,1.09,0.22,1.63C29.914,41.458,29.704,41.929,29.354,42.218z"/>
		<path fill="#2A2771" d="M26.313,46.088c-0.08,0.2-0.27,0.36-0.56,0.36H9.923v-1.29h15.83c0.05,0,0.09,0,0.13,0.01
			c0.2,0.04,0.33,0.16,0.41,0.31C26.394,45.659,26.403,45.898,26.313,46.088z"/>
		<path fill="#2A2771" d="M22.123,36.388c5.448-3.913,10.422,6.554,4.145,8.448c-0.794,0.24-0.455,1.484,0.342,1.243
			c8.188-2.469,1.76-15.758-5.137-10.804C20.802,35.755,21.446,36.875,22.123,36.388L22.123,36.388z"/>
		<path fill="#2A2771" d="M25.034,34.199c0,0.09,0,0.17-0.01,0.26c-0.02,0.23-0.14,0.4-0.3,0.5c-0.39,0.26-1.04,0.09-0.99-0.5
			c0-0.07,0.01-0.13,0.01-0.2c0.07-1.33-0.28-2.53-0.89-3.58l0.29-0.17l0.87-0.5C24.724,31.218,25.113,32.628,25.034,34.199z"/>
		<path fill="#FFFFFF" d="M77.23,80.731c-1.26,0.043-2.386,0.695-2.854,2.027c-0.06,0.168-0.069,0.336-0.045,0.502
			c-0.529,0.104-1,0.507-1.032,1.217c-0.025,0.553-0.123,1.087-0.213,1.635c-0.089,0.555,0.131,1.023,0.476,1.311
			c0.008,0.086,0.018,0.174,0.026,0.258c0.015,0.174,0.029,0.351,0.048,0.526c0.003,0.017,0.005,0.034,0.006,0.051
			c0.002,0,0.002,0,0.002,0c0.015,0.115,0.029,0.229,0.044,0.344c0.104,0.732,0.79,1.003,1.422,0.902
			c0.168,0.277,0.44,0.488,0.77,0.6c0.045,0.015,0.092,0.026,0.137,0.043c0.249,0.448,0.745,0.744,1.407,0.559
			c0.125-0.034,0.243-0.075,0.36-0.118c0.137-0.038,0.273-0.07,0.414-0.095h2.526C79.689,87.198,77.895,84.077,77.23,80.731
			L77.23,80.731z"/>
		<path fill="#FFFFFF" d="M101.444,91.558c0.01,0,0.01,0,0.02-0.01c0.108-0.011,0.216-0.033,0.323-0.057
			c0.056-0.079,0.119-0.152,0.178-0.229c-0.014,0.002-0.028,0.006-0.041,0.006V72.189h0.09c0.11,0.01,0.21,0.02,0.311,0.029
			c0-0.01,0.01-0.02,0.02-0.029c-0.06-0.021-0.13-0.03-0.189-0.04c0-0.011-0.011-0.011-0.011-0.011
			c-0.029-0.02-0.05-0.04-0.079-0.06c-0.051-0.04-0.091-0.07-0.141-0.101c-0.52-0.3-1.149-0.229-1.56,0.12
			c-0.11,0.021-0.23,0.03-0.34,0.051c-0.101,0.02-0.19,0.05-0.271,0.09s-0.16,0.09-0.22,0.149c-0.04,0.04-0.08,0.07-0.11,0.11
			c-0.29,0.03-0.57,0.08-0.84,0.16c-0.08,0.01-0.15,0.03-0.22,0.06c-0.32,0.101-0.61,0.24-0.88,0.41
			c-0.45,0.29-0.83,0.67-1.051,1.15c-0.05,0.069-0.08,0.14-0.109,0.22c-0.03,0.01-0.05,0.02-0.08,0.04
			c-0.13,0.05-0.26,0.12-0.391,0.2c-0.289,0.189-0.55,0.42-0.779,0.67c-0.17,0.189-0.32,0.39-0.45,0.609
			c-0.01,0.011-0.01,0.021-0.021,0.03c-0.02,0.01-0.039,0.021-0.06,0.03c-0.03-0.061-0.07-0.12-0.1-0.18
			c-0.221-0.381-0.46-0.761-0.721-1.12c0.221-0.521,0.12-1.16-0.52-1.561c-0.58-0.359-1.25-0.66-1.96-0.899
			c-0.08-0.03-0.16-0.051-0.24-0.08c-0.02-0.021-0.05-0.05-0.08-0.07l-0.21-0.21c-0.31-0.29-0.7-0.37-1.06-0.32
			c-0.15-0.16-0.33-0.29-0.54-0.35c-0.8-0.25-1.59-0.23-2.41-0.22c-0.37,0.01-0.65,0.13-0.851,0.31
			c-1.039,0.14-2.05,0.62-2.819,1.33c-1.21,0.24-2.25,1.31-3.05,2.62v0.01c0.04,0.16,0.08,0.311,0.13,0.47
			c0.279,1.061,0.569,2.12,0.89,3.17c0.4,1.391,0.84,2.78,1.32,4.15c0.149,0.44,0.09,0.82-0.09,1.1c0.51,1.57,1.06,3.131,1.56,4.7
			c0.36,0.44,0.65,0.92,0.88,1.44c0.021,0.04,0.04,0.08,0.05,0.12h10.48c0.13,0.67,0.71,1.25,1.56,0.989
			C98.253,91.018,99.914,91.739,101.444,91.558z"/>
		<path fill="#EEEDF6" d="M99.534,72.388c0.75-0.17,1.55-0.239,2.39-0.199v2.609c-1.979-0.2-4.05,0.61-5.34,2.51
			c-0.65,0.971-1.95,0.61-2.34-0.17c-0.16-0.319-0.16-0.72,0.12-1.13c0.029-0.04,0.05-0.08,0.08-0.109
			c0-0.011,0.01-0.011,0.01-0.011c0.17-0.26,0.36-0.5,0.55-0.729c0.72-0.86,1.561-1.54,2.48-2.03c0.26-0.14,0.52-0.26,0.79-0.36
			c0.1-0.04,0.21-0.079,0.31-0.109C98.893,72.548,99.204,72.458,99.534,72.388z"/>
		<path fill="#EEEDF6" d="M101.574,88.739c0.12-0.03,0.24-0.07,0.35-0.11v2.64c-0.6,0.021-1.03-0.399-1.18-0.899
			C100.524,89.739,100.744,88.968,101.574,88.739z"/>
		<path fill="#2A2771" d="M80.682,90.364h-3.516c-0.831,0-0.831,1.289,0,1.289h3.882C80.941,91.22,80.817,90.791,80.682,90.364
			L80.682,90.364z"/>
		<path fill="#2A2771" d="M101.444,91.558c0.01,0,0.01,0,0.02-0.01c0.129-0.013,0.255-0.051,0.381-0.084
			c0.035-0.065,0.064-0.135,0.101-0.199c-0.007,0-0.015,0.003-0.021,0.003v-0.899h-17.25c0.021,0.04,0.04,0.08,0.05,0.12
			c0.051,0.09,0.101,0.189,0.13,0.29c0.021,0.02,0.03,0.05,0.04,0.069c0.15,0.23,0.23,0.48,0.24,0.74
			c0.01,0.021,0.01,0.04,0.01,0.061h16.141L101.444,91.558z"/>
		<path fill="#2A2771" d="M76.65,90.042c-4.844-1.461-2.987-8.023,0.616-9.147c-0.092-0.436-0.163-0.875-0.215-1.317
			c-4.645,1.354-7.102,9.791-0.744,11.708C77.105,91.526,77.445,90.282,76.65,90.042L76.65,90.042z"/>
		<path fill="#2A2771" d="M95.342,76.74c-0.998-8.273-11.425-7.819-15.677-2.633c0.001,0.007,0.005,0.015,0.005,0.021
			c0.145,0.561,0.293,1.12,0.442,1.679c3.139-5.184,13.054-6.432,13.94,0.933C94.153,77.556,95.442,77.565,95.342,76.74
			L95.342,76.74z"/>
		<path fill="#2A2771" d="M101.923,71.978c0.05,0.03,0.09,0.061,0.141,0.101c-0.04,0-0.091-0.01-0.141-0.01
			c-0.75-0.04-1.479,0.02-2.17,0.17c-0.49,0.109-0.95,0.27-1.39,0.479c-0.03,0.021-0.061,0.03-0.09,0.05
			c-0.71,0.351-1.341,0.851-1.841,1.511c-0.08,0.08-0.14,0.17-0.189,0.26c-0.25,0.34-0.45,0.71-0.62,1.13
			c-0.08,0.2-0.22,0.32-0.39,0.37c-0.2,0.09-0.431,0.07-0.61-0.021c-0.07-0.04-0.12-0.079-0.17-0.13c-0.12-0.14-0.17-0.33-0.08-0.56
			c0.12-0.29,0.25-0.561,0.4-0.82c1.489-2.689,4.27-3.78,7.149-3.68V71.978z"/>
		<path fill="#2A2771" d="M21.054,92.529c-0.03,1.55-0.29,3.21-0.7,4.77l-0.82-0.47l-0.78-0.45l-0.22-0.13
			c0.28-1.22,0.5-2.51,0.55-3.72c0.14-2.95-0.98-5.44-3.01-7.271c-0.05-0.05-0.1-0.1-0.16-0.14c-0.5-0.44-1.06-0.84-1.66-1.19
			c-1.15-0.68-2.72-1.12-4.33-1.29v-2.06c2.07,0.189,4.1,0.79,5.58,1.75C19.164,84.708,21.144,88.069,21.054,92.529z"/>
		<path fill="#2A2771" d="M85.994,28.949l0.7,0.4h-7.4c-0.03,0-0.06,0-0.08-0.01c-0.25-0.04-0.37-0.26-0.35-0.47
			c0.01-0.12,0.06-0.25,0.149-0.32c0,0,0-0.01,0.011-0.01c0.06-0.06,0.159-0.09,0.27-0.09h5.84l0.521,0.3l0.25,0.14L85.994,28.949z"
			/>
		<path fill="#2A2771" d="M79.374,28.878c0.03,0.16-0.03,0.34-0.16,0.46c-0.1,0.09-0.229,0.13-0.399,0.09
			c-0.75-0.19-1.03-1.15-1.261-1.8c-0.31-0.86-0.51-1.86-0.529-2.78c-0.011-0.36,0.02-0.7,0.069-1.03l0.45,0.26l0.04,0.02l0.36,0.21
			c-0.021,0.18-0.021,0.36-0.011,0.54c0.011,0.32,0.051,0.64,0.11,0.97c0.01,0.05,0.021,0.11,0.03,0.17c0,0,0,0.01,0.01,0.02
			c0,0.05,0.01,0.09,0.03,0.14v0.01c0.01,0.1,0.04,0.21,0.06,0.31c0.04,0.17,0.09,0.34,0.141,0.5c0.069,0.26,0.25,0.95,0.479,1.33
			c0.021,0.03,0.04,0.07,0.07,0.1c0.029,0.05,0.069,0.09,0.109,0.11c0.011,0.01,0.021,0.01,0.021,0.01l0.01,0.01
			c0.01,0.01,0.01,0.01,0.021,0.01c0.01,0,0.02,0.01,0.029,0.01c0.12,0.03,0.21,0.1,0.261,0.18
			C79.343,28.769,79.364,28.818,79.374,28.878z"/>
		<path fill="#190C3C" d="M47.664,35.068c-0.05-0.15-0.16-0.23-0.28-0.23c-0.04,0-0.08,0.01-0.11,0.02
			c-0.13,0.06-0.28,0.21-0.38,0.49c-7.799,21.586-15.258,42.373-23.086,63.94c0.451,0.222,0.868,0.479,1.25,0.774
			c0.007,0.005,0.016,0.008,0.023,0.013c0.005-0.013,0.01-0.024,0.014-0.037c4.87-13.4,9.71-26.82,14.56-40.22
			c0.06-0.18,0.13-0.36,0.19-0.54c0.7-1.92,1.39-3.85,2.09-5.77c2.25-6.19,3.44-11.66,5.68-17.85c0.01-0.04,0.03-0.08,0.03-0.12
			C47.704,35.338,47.704,35.188,47.664,35.068z"/>
		<path fill="#190C3C" d="M48.764,35.349c-0.02,0.03-0.03,0.06-0.04,0.09c-0.01,0.03-0.02,0.07-0.03,0.1
			c-0.09,0.26-0.17,0.52-0.26,0.78c-0.01,0.02-0.02,0.04-0.02,0.07c-6.95,21.15-13.95,42.28-20.94,63.41
			c-0.147,0.442-0.294,0.883-0.431,1.325c0.458,0.222,0.884,0.479,1.271,0.774c0.02-0.069,0.04-0.13,0.07-0.199
			c0.77-2.34,1.54-4.69,2.31-7.03c0.01-0.01,0.01-0.01,0.01-0.02c0.06-0.181,0.12-0.351,0.17-0.53c0.02-0.04,0.04-0.09,0.05-0.13
			c0.11-0.34,0.22-0.681,0.33-1.021c0.09-0.25,0.17-0.51,0.25-0.76c0.02-0.03,0.03-0.06,0.03-0.09c0.07-0.21,0.14-0.41,0.21-0.62
			c0.04-0.12,0.08-0.23,0.11-0.35c0.06-0.171,0.12-0.33,0.17-0.5c1.06-3.23,2.13-6.45,3.18-9.681c0.06-0.16,0.11-0.319,0.16-0.47
			c0.04-0.12,0.08-0.24,0.11-0.35c0.05-0.131,0.09-0.261,0.13-0.391c0.08-0.229,0.16-0.46,0.23-0.68c0.02-0.061,0.03-0.11,0.05-0.16
			c0.08-0.229,0.15-0.46,0.23-0.69c0.07-0.21,0.14-0.42,0.2-0.619c0.03-0.091,0.06-0.181,0.09-0.271c0.06-0.189,0.13-0.38,0.19-0.57
			c0.64-1.96,1.28-3.909,1.92-5.859c0.01-0.01,0.01-0.021,0.01-0.021c0.03-0.09,0.06-0.18,0.09-0.27c0.02-0.07,0.05-0.141,0.07-0.2
			c0.02-0.08,0.05-0.16,0.07-0.229c0.1-0.311,0.2-0.61,0.3-0.91c0.08-0.24,0.16-0.48,0.24-0.721c0.06-0.18,0.12-0.359,0.17-0.529
			c0.04-0.101,0.07-0.2,0.1-0.301c0.05-0.149,0.1-0.289,0.14-0.43c0.47-1.41,0.93-2.81,1.39-4.21v-0.01
			c0.01-0.03,0.02-0.06,0.03-0.08c0.06-0.18,0.12-0.36,0.17-0.53c0.01-0.01,0.01-0.01,0.01-0.01c0.02-0.07,0.04-0.13,0.06-0.19
			c0.05-0.15,0.1-0.3,0.15-0.45c0.02-0.06,0.03-0.11,0.05-0.16c0.07-0.21,0.14-0.42,0.21-0.63c0.05-0.16,0.1-0.31,0.15-0.46
			c0.01-0.03,0.02-0.06,0.03-0.09c0.06-0.19,0.12-0.37,0.18-0.55c0.32-0.97,0.64-1.93,0.96-2.9v-0.01c0.03-0.08,0.05-0.16,0.08-0.24
			c0.02-0.07,0.05-0.15,0.07-0.22c0.08-0.23,0.16-0.47,0.23-0.7c0.04-0.11,0.08-0.22,0.12-0.33c0-0.01,0-0.01,0-0.01
			c0.02-0.07,0.04-0.13,0.06-0.2c0.04-0.13,0.09-0.26,0.13-0.39c0.01-0.04,0.03-0.08,0.04-0.12c0.05-0.14,0.09-0.28,0.14-0.42
			c0.05-0.15,0.1-0.31,0.15-0.46c0.17-0.53,0.34-1.05,0.5-1.58c0.02-0.06,0.04-0.11,0.06-0.17c0-0.01,0-0.01,0-0.02
			c0.01-0.02,0.02-0.03,0.02-0.05c0.02-0.08,0.05-0.15,0.07-0.23c0.01-0.02,0.02-0.05,0.02-0.07c0.01-0.04,0.03-0.07,0.04-0.11
			c0.06-0.21,0.12-0.41,0.18-0.62c0.05-0.16,0.1-0.32,0.15-0.48c0.03-0.12,0.07-0.24,0.1-0.36c0.03-0.09,0.06-0.18,0.08-0.27
			c0.03-0.07,0.05-0.14,0.07-0.22c0.14-0.47,0.27-0.95,0.41-1.43c0,0,0,0,0-0.01c0.04-0.13,0.08-0.26,0.11-0.4
			c0.01-0.02,0.02-0.05,0.02-0.07c0.05-0.16,0.09-0.32,0.14-0.48c0.03-0.11,0.06-0.21,0.09-0.32c0-0.01,0-0.01,0-0.01
			c0.01-0.04,0.02-0.07,0.03-0.11c0.03-0.11,0.06-0.21,0.09-0.32c0-0.01,0.01-0.02,0.01-0.03c0.04-0.13,0.07-0.27,0.11-0.41
			c0.11-0.39,0.22-0.78,0.32-1.17c0.01-0.01,0.01-0.02,0.01-0.03c0.04-0.12,0.07-0.24,0.1-0.36c0,0,0,0,0-0.01v-0.01
			c0.06-0.17,0.1-0.34,0.15-0.52c0.01-0.01,0.01-0.03,0.01-0.05c0.04-0.12,0.07-0.24,0.1-0.36c0.03-0.1,0.06-0.2,0.08-0.3
			c0.04-0.1,0.06-0.21,0.09-0.31c0.01-0.03,0.02-0.06,0.02-0.09c0.09-0.3,0.17-0.59,0.25-0.89v-0.01c0.03-0.08,0.05-0.14,0.07-0.22
			c0-0.01,0-0.01,0.01-0.02c0.04-0.17,0.09-0.34,0.14-0.5c0.03-0.11,0.06-0.22,0.09-0.32c0-0.02,0.01-0.03,0.01-0.04
			c0.02-0.08,0.05-0.16,0.07-0.24c0-0.02,0.01-0.03,0.01-0.04c0.03-0.12,0.07-0.24,0.1-0.36c0.05-0.17,0.1-0.33,0.14-0.49
			c0.01,0,0.01,0,0.01,0v-0.01c0.02-0.09,0.05-0.18,0.08-0.27c0-0.01,0-0.02,0.01-0.03c0-0.02,0-0.03,0.01-0.04
			c0-0.03,0.01-0.05,0.02-0.07c0.03-0.13,0.07-0.25,0.11-0.37c0.03-0.12,0.07-0.24,0.1-0.35c0.02-0.08,0.05-0.17,0.07-0.25
			c0.01-0.01,0.01-0.03,0.02-0.04c0.03-0.1,0.06-0.21,0.09-0.31c0.03-0.09,0.06-0.19,0.08-0.28c0.03-0.09,0.06-0.17,0.08-0.26h0.01
			c0-0.02,0.01-0.03,0.01-0.05c0.04-0.13,0.08-0.27,0.13-0.4c0.03-0.11,0.06-0.21,0.1-0.32c0.02-0.08,0.04-0.15,0.07-0.23
			c0.03-0.09,0.06-0.18,0.09-0.27c0-0.01,0-0.03,0.01-0.04c0.05-0.18,0.11-0.35,0.17-0.53c0.05-0.14,0.07-0.26,0.07-0.36
			C49.523,34.809,49.003,34.718,48.764,35.349z"/>
		<polygon fill="#190C3C" points="66.984,111.418 66.083,111.939 65.654,112.189 64.503,112.848 47.253,112.848 47.153,112.789 
			46.193,112.239 46.144,112.208 45.653,111.928 44.784,111.418 		"/>
		<polygon fill="#190C3C" points="61.393,114.649 59.574,115.699 58.923,116.069 52.824,116.069 52.173,115.689 50.363,114.649 		
			"/>
		<path fill="#190C3C" d="M69.154,110.159l-0.38,0.22H42.983l-0.6-0.35l-1.55-0.9l-0.3-0.17h30.71l-0.25,0.14l-0.061,0.03l-1.54,0.9
			"/>
		<path fill="#190C3C" d="M31.21,92.964h49.539c0.728,0,0.729-0.847,0-0.847h-0.354c-0.725,0-0.725,0.847,0,0.847h0.354v-0.847
			H31.21C30.484,92.118,30.484,92.964,31.21,92.964L31.21,92.964z"/>
		<path fill="#190C3C" d="M31.378,94.036h-0.189v0.848H80.77c0.727,0,0.728-0.848,0-0.848h-0.206c-0.726,0-0.728,0.848,0,0.848
			h0.206v-0.848H31.189c-0.727,0-0.727,0.848,0,0.848h0.189C32.104,94.883,32.106,94.036,31.378,94.036L31.378,94.036z"/>
		<path fill="#190C3C" d="M31.801,94.489V92.57c0-0.547-1.154-0.547-1.154,0v1.919C30.647,95.033,31.801,95.033,31.801,94.489
			L31.801,94.489z"/>
		<path fill="#190C3C" d="M81.298,94.516v-1.543c0-0.543-1.128-0.545-1.128,0v0.02c0,0.545,1.128,0.545,1.128,0v-0.02H80.17v1.543
			C80.17,95.061,81.298,95.063,81.298,94.516L81.298,94.516z"/>
		<path fill="#190C3C" d="M31.436,91.497h49.055V90.65h-0.282c-0.727,0-0.727,0.847,0,0.847h0.282c0.725,0,0.727-0.847,0-0.847
			H31.436C30.711,90.65,30.709,91.497,31.436,91.497L31.436,91.497z"/>
		<path fill="#190C3C" d="M35.384,79.079h41.589c0.608,0,0.608-0.846,0-0.846h-0.299c-0.609,0-0.609,0.846,0,0.846h0.299v-0.846
			H35.384C34.775,78.233,34.775,79.079,35.384,79.079L35.384,79.079z"/>
		<path fill="#190C3C" d="M35.526,80.151h-0.16v0.847h41.624c0.607,0,0.609-0.847,0-0.847h-0.174c-0.61,0-0.612,0.847,0,0.847h0.174
			v-0.847H35.367c-0.609,0-0.609,0.847,0,0.847h0.16C36.136,80.998,36.136,80.151,35.526,80.151L35.526,80.151z"/>
		<path fill="#190C3C" d="M35.881,80.602v-1.919c0-0.544-0.97-0.546-0.97,0v1.919C34.911,81.147,35.881,81.149,35.881,80.602
			L35.881,80.602z"/>
		<path fill="#190C3C" d="M77.432,80.63v-1.541c0-0.546-0.946-0.548-0.946,0v0.018c0,0.544,0.946,0.546,0.946,0v-0.018h-0.946v1.541
			C76.486,81.174,77.432,81.176,77.432,80.63L77.432,80.63z"/>
		<path fill="#190C3C" d="M35.574,77.612h41.18v-0.846h-0.236c-0.609,0-0.609,0.846,0,0.846h0.236c0.61,0,0.612-0.846,0-0.846
			h-41.18C34.965,76.766,34.963,77.612,35.574,77.612L35.574,77.612z"/>
		<path fill="#190C3C" d="M38.632,69.276h35.45c0.521,0,0.521-0.721,0-0.721h-0.253c-0.52,0-0.52,0.721,0,0.721h0.253v-0.721h-35.45
			C38.113,68.555,38.111,69.276,38.632,69.276L38.632,69.276z"/>
		<path fill="#190C3C" d="M38.752,70.19h-0.135v0.722h35.481c0.519,0,0.519-0.722,0-0.722H73.95c-0.52,0-0.52,0.722,0,0.722h0.148
			V70.19H38.617c-0.519,0-0.521,0.722,0,0.722h0.135C39.271,70.912,39.273,70.19,38.752,70.19L38.752,70.19z"/>
		<path fill="#190C3C" d="M39.054,70.575v-1.637c0-0.463-0.825-0.463-0.825,0v1.637C38.229,71.038,39.054,71.04,39.054,70.575
			L39.054,70.575z"/>
		<path fill="#190C3C" d="M74.474,70.599v-1.315c0-0.465-0.807-0.465-0.807,0v0.016c0,0.465,0.807,0.465,0.807,0v-0.016h-0.807
			v1.315C73.667,71.063,74.474,71.064,74.474,70.599L74.474,70.599z"/>
		<path fill="#190C3C" d="M38.793,68.024h35.103v-0.722h-0.2c-0.52,0-0.521,0.722,0,0.722h0.2c0.521,0,0.521-0.722,0-0.722H38.793
			C38.274,67.302,38.274,68.024,38.793,68.024L38.793,68.024z"/>
		<path fill="#190C3C" d="M41.14,61.658h30.975c0.453,0,0.453-0.632,0-0.632h-0.223c-0.453,0-0.453,0.632,0,0.632h0.223v-0.632
			H41.14C40.687,61.026,40.687,61.658,41.14,61.658L41.14,61.658z"/>
		<path fill="#190C3C" d="M41.245,62.457h-0.118v0.629h31c0.454,0,0.454-0.629,0-0.629h-0.13c-0.453,0-0.453,0.629,0,0.629h0.13
			v-0.629h-31c-0.455,0-0.455,0.629,0,0.629h0.118C41.698,63.085,41.7,62.457,41.245,62.457L41.245,62.457z"/>
		<path fill="#190C3C" d="M41.509,62.791v-1.428c0-0.406-0.721-0.407-0.721,0v1.428C40.789,63.197,41.509,63.199,41.509,62.791
			L41.509,62.791z"/>
		<path fill="#190C3C" d="M72.458,62.813v-1.149c0-0.406-0.706-0.406-0.706,0v0.013c0,0.406,0.706,0.408,0.706,0v-0.013h-0.706
			v1.149C71.751,63.218,72.458,63.218,72.458,62.813L72.458,62.813z"/>
		<path fill="#190C3C" d="M41.282,60.565h30.671v-0.632h-0.178c-0.453,0-0.453,0.632,0,0.632h0.178c0.452,0,0.454-0.632,0-0.632
			H41.282C40.828,59.933,40.828,60.565,41.282,60.565L41.282,60.565z"/>
		<path fill="#190C3C" d="M43.298,55.863h26.934c0.396,0,0.396-0.54,0-0.54h-0.193c-0.395,0-0.395,0.54,0,0.54h0.193v-0.54H43.298
			C42.903,55.323,42.903,55.863,43.298,55.863L43.298,55.863z"/>
		<path fill="#190C3C" d="M43.389,56.544h-0.103v0.539h26.958c0.396,0,0.396-0.539,0-0.539h-0.112c-0.395,0-0.395,0.539,0,0.539
			h0.112v-0.539H43.286c-0.395,0-0.395,0.539,0,0.539h0.103C43.784,57.083,43.784,56.544,43.389,56.544L43.389,56.544z"/>
		<path fill="#190C3C" d="M43.618,56.833V55.61c0-0.346-0.626-0.347-0.626,0v1.222C42.992,57.179,43.618,57.179,43.618,56.833
			L43.618,56.833z"/>
		<path fill="#190C3C" d="M70.531,56.851v-0.983c0-0.347-0.614-0.347-0.614,0v0.012c0,0.346,0.614,0.348,0.614,0v-0.012h-0.614
			v0.983C69.917,57.197,70.531,57.197,70.531,56.851L70.531,56.851z"/>
		<path fill="#190C3C" d="M43.421,54.928h26.67v-0.54h-0.154c-0.395,0-0.395,0.54,0,0.54h0.154c0.395,0,0.395-0.54,0-0.54h-26.67
			C43.025,54.388,43.025,54.928,43.421,54.928L43.421,54.928z"/>
		<path fill="#190C3C" d="M44.479,51.081h24.267c0.356,0,0.356-0.486,0-0.486h-0.171c-0.357,0-0.357,0.486,0,0.486h0.171v-0.486
			H44.479C44.124,50.595,44.123,51.081,44.479,51.081L44.479,51.081z"/>
		<path fill="#190C3C" d="M44.562,51.696h-0.092v0.486h24.288c0.355,0,0.355-0.486,0-0.486h-0.103c-0.355,0-0.355,0.486,0,0.486
			h0.103v-0.486H44.469c-0.356,0-0.356,0.486,0,0.486h0.092C44.917,52.182,44.917,51.696,44.562,51.696L44.562,51.696z"/>
		<path fill="#190C3C" d="M44.768,51.955v-1.101c0-0.312-0.564-0.313-0.564,0v1.101C44.204,52.267,44.768,52.267,44.768,51.955
			L44.768,51.955z"/>
		<path fill="#190C3C" d="M69.015,51.971v-0.885c0-0.313-0.552-0.313-0.552,0v0.011c0,0.312,0.552,0.312,0.552,0v-0.011h-0.552
			v0.885C68.463,52.284,69.015,52.284,69.015,51.971L69.015,51.971z"/>
		<path fill="#190C3C" d="M44.59,50.239h24.03v-0.486h-0.139c-0.354,0-0.354,0.486,0,0.486h0.139c0.355,0,0.355-0.486,0-0.486H44.59
			C44.234,49.753,44.234,50.239,44.59,50.239L44.59,50.239z"/>
		<path fill="#190C3C" d="M45.956,47.356H67.82c0.32,0,0.32-0.438,0-0.438h-0.156c-0.319,0-0.319,0.438,0,0.438h0.156v-0.438H45.956
			C45.636,46.918,45.635,47.356,45.956,47.356L45.956,47.356z"/>
		<path fill="#190C3C" d="M46.031,47.91h-0.084v0.438h21.884c0.32,0,0.32-0.438,0-0.438h-0.092c-0.32,0-0.32,0.438,0,0.438h0.092
			V47.91H45.946c-0.32,0-0.32,0.438,0,0.438h0.084C46.351,48.348,46.351,47.91,46.031,47.91L46.031,47.91z"/>
		<path fill="#190C3C" d="M46.216,48.144v-0.992c0-0.282-0.509-0.282-0.509,0v0.992C45.707,48.425,46.216,48.426,46.216,48.144
			L46.216,48.144z"/>
		<path fill="#190C3C" d="M68.063,48.158v-0.797c0-0.281-0.497-0.282-0.497,0v0.01c0,0.282,0.497,0.282,0.497,0v-0.01h-0.497v0.797
			C67.566,48.439,68.063,48.44,68.063,48.158L68.063,48.158z"/>
		<path fill="#190C3C" d="M46.055,46.598h21.649V46.16h-0.122c-0.32,0-0.322,0.438,0,0.438h0.122c0.32,0,0.322-0.438,0-0.438H46.055
			C45.735,46.16,45.735,46.598,46.055,46.598L46.055,46.598z"/>
		<path fill="#190C3C" d="M46.757,44.063h20.453c0.301,0,0.301-0.409,0-0.409h-0.146c-0.3,0-0.3,0.409,0,0.409h0.146v-0.409H46.757
			C46.456,43.653,46.456,44.063,46.757,44.063L46.757,44.063z"/>
		<path fill="#190C3C" d="M46.826,44.581h-0.079v0.41h20.47c0.301,0,0.301-0.41,0-0.41h-0.084c-0.3,0-0.3,0.41,0,0.41h0.084v-0.41
			h-20.47c-0.299,0-0.299,0.41,0,0.41h0.079C47.125,44.99,47.125,44.581,46.826,44.581L46.826,44.581z"/>
		<path fill="#190C3C" d="M47,44.799v-0.929c0-0.263-0.477-0.264-0.477,0v0.929C46.524,45.063,47,45.063,47,44.799L47,44.799z"/>
		<path fill="#190C3C" d="M67.435,44.813v-0.745c0-0.264-0.465-0.264-0.465,0v0.009c0,0.262,0.465,0.263,0.465,0v-0.009H66.97v0.745
			C66.97,45.077,67.435,45.077,67.435,44.813L67.435,44.813z"/>
		<path fill="#190C3C" d="M46.849,43.353h20.254v-0.409h-0.117c-0.3,0-0.301,0.409,0,0.409h0.117c0.298,0,0.301-0.409,0-0.409
			H46.849C46.55,42.944,46.55,43.353,46.849,43.353L46.849,43.353z"/>
		<path fill="#190C3C" d="M47.728,41.313h18.43c0.27,0,0.27-0.369,0-0.369h-0.134c-0.27,0-0.27,0.369,0,0.369h0.134v-0.369h-18.43
			C47.458,40.944,47.458,41.313,47.728,41.313L47.728,41.313z"/>
		<path fill="#190C3C" d="M47.791,41.78H47.72v0.369h18.444c0.271,0,0.271-0.369,0-0.369h-0.077c-0.271,0-0.271,0.369,0,0.369h0.077
			V41.78H47.72c-0.269,0-0.269,0.369,0,0.369h0.071C48.06,42.148,48.06,41.78,47.791,41.78L47.791,41.78z"/>
		<path fill="#190C3C" d="M47.949,41.976V41.14c0-0.236-0.429-0.237-0.429,0v0.836C47.52,42.214,47.949,42.215,47.949,41.976
			L47.949,41.976z"/>
		<path fill="#190C3C" d="M66.361,41.989v-0.672c0-0.237-0.42-0.238-0.42,0v0.008c0,0.237,0.42,0.238,0.42,0v-0.008h-0.42v0.672
			C65.941,42.226,66.361,42.227,66.361,41.989L66.361,41.989z"/>
		<path fill="#190C3C" d="M47.812,40.673H66.06v-0.368h-0.104c-0.271,0-0.271,0.368,0,0.368h0.104c0.27,0,0.27-0.368,0-0.368H47.812
			C47.543,40.305,47.543,40.673,47.812,40.673L47.812,40.673z"/>
		<path fill="#190C3C" d="M48.108,39.029h17.471c0.257,0,0.257-0.35,0-0.35h-0.125c-0.254,0-0.256,0.35,0,0.35h0.125v-0.35H48.108
			C47.854,38.68,47.852,39.029,48.108,39.029L48.108,39.029z"/>
		<path fill="#190C3C" d="M48.169,39.473h-0.068v0.35h17.485c0.258,0,0.258-0.35,0-0.35h-0.073c-0.255,0-0.257,0.35,0,0.35h0.073
			v-0.35H48.101c-0.256,0-0.256,0.35,0,0.35h0.068C48.423,39.822,48.423,39.473,48.169,39.473L48.169,39.473z"/>
		<path fill="#190C3C" d="M48.316,39.659v-0.792c0-0.225-0.408-0.225-0.408,0v0.792C47.909,39.884,48.316,39.884,48.316,39.659
			L48.316,39.659z"/>
		<path fill="#190C3C" d="M65.773,39.67v-0.637c0-0.225-0.398-0.225-0.398,0v0.007c0,0.225,0.398,0.226,0.398,0v-0.007h-0.398v0.637
			C65.375,39.896,65.773,39.896,65.773,39.67L65.773,39.67z"/>
		<path fill="#190C3C" d="M48.188,38.424h17.298v-0.35h-0.1c-0.255,0-0.255,0.35,0,0.35h0.1c0.256,0,0.258-0.35,0-0.35H48.188
			C47.932,38.074,47.932,38.424,48.188,38.424L48.188,38.424z"/>
		<path fill="#190C3C" d="M48.523,37.088h16.444c0.24,0,0.242-0.315,0-0.315h-0.118c-0.239,0-0.239,0.315,0,0.315h0.118v-0.315
			H48.523C48.282,36.773,48.282,37.088,48.523,37.088L48.523,37.088z"/>
		<path fill="#190C3C" d="M48.58,37.487h-0.063v0.314h16.458c0.238,0,0.24-0.314,0-0.314h-0.07c-0.24,0-0.241,0.314,0,0.314h0.07
			v-0.314H48.517c-0.242,0-0.242,0.314,0,0.314h0.063C48.819,37.802,48.819,37.487,48.58,37.487L48.58,37.487z"/>
		<path fill="#190C3C" d="M48.719,37.656v-0.715c0-0.202-0.384-0.202-0.384,0v0.715C48.335,37.857,48.719,37.858,48.719,37.656
			L48.719,37.656z"/>
		<path fill="#190C3C" d="M65.15,37.666v-0.574c0-0.203-0.374-0.204-0.374,0v0.007c0,0.203,0.374,0.204,0.374,0v-0.007h-0.374v0.574
			C64.776,37.868,65.15,37.868,65.15,37.666L65.15,37.666z"/>
		<path fill="#190C3C" d="M48.598,36.542H64.88v-0.314h-0.093c-0.241,0-0.243,0.314,0,0.314h0.093c0.241,0,0.241-0.314,0-0.314
			H48.598C48.357,36.228,48.356,36.542,48.598,36.542L48.598,36.542z"/>
		<path fill="#190C3C" d="M47.434,35.542h1.775c0.456,0,0.458-0.711,0-0.711h-1.775C46.977,34.831,46.975,35.542,47.434,35.542
			L47.434,35.542z"/>
		<path fill="#190C3C" d="M87.643,99.249c0.03,0.06,0.051,0.13,0.07,0.19l-0.63,0.359l-0.67,0.38c-0.08-0.22-0.15-0.439-0.22-0.66
			c-4.46-13.59-8.891-27.189-13.33-40.78c-0.011-0.02-0.011-0.05-0.021-0.07c-0.43-1.31-0.859-2.63-1.29-3.94l-0.01-0.01
			c-0.07-0.24-0.15-0.47-0.229-0.71c0-0.01,0-0.01,0-0.02c-0.141-0.4-0.271-0.81-0.4-1.21c-1.45-4.46-2.25-7.96-3.32-11.87
			c-0.06-0.21-0.12-0.43-0.18-0.65c-0.39-1.38-0.811-2.81-1.32-4.36c-0.01-0.04-0.029-0.08-0.029-0.12
			c-0.03-0.09-0.04-0.17-0.04-0.25c0-0.27,0.13-0.43,0.3-0.44c0.01-0.01,0.01-0.01,0.01,0c0.17,0,0.37,0.16,0.49,0.53
			c4.87,14.95,9.47,28.99,14.18,43.359c1.23,3.771,2.47,7.561,3.74,11.391c0.01,0.04,0.02,0.08,0.03,0.12
			c0.04,0.12,0.079,0.239,0.119,0.359c0.08,0.25,0.16,0.5,0.24,0.74c0.01,0.021,0.021,0.04,0.03,0.061
			C85.984,94.159,86.814,96.689,87.643,99.249z"/>
		<path fill="#190C3C" d="M84.034,99.899c0.14,0.47,0.28,0.949,0.41,1.42l-0.28,0.159l-1,0.58c-0.19-0.64-0.38-1.279-0.57-1.92
			c-0.52-1.75-1.04-3.51-1.56-5.27c0-0.01-0.01-0.021-0.01-0.04c-0.08-0.26-0.16-0.521-0.23-0.79c-0.01-0.01-0.01-0.03-0.02-0.05
			c-0.061-0.2-0.12-0.4-0.171-0.601c-0.05-0.14-0.09-0.279-0.13-0.42c-0.029-0.1-0.06-0.21-0.09-0.319
			c-0.05-0.16-0.1-0.33-0.149-0.5c0-0.011-0.011-0.021-0.011-0.03c-0.05-0.15-0.09-0.311-0.14-0.47
			c-0.01-0.051-0.03-0.101-0.04-0.15c-0.01-0.01-0.01-0.021-0.01-0.03c-0.021-0.069-0.04-0.14-0.061-0.21
			c-0.05-0.16-0.1-0.319-0.149-0.49c-0.01-0.04-0.021-0.079-0.03-0.119c-0.02-0.051-0.04-0.101-0.05-0.16
			c-0.01-0.04-0.021-0.08-0.04-0.12c-0.91-3.11-1.83-6.22-2.75-9.33c0,0,0-0.01,0-0.021c0,0-0.01-0.01-0.01-0.02
			c-0.021-0.07-0.04-0.15-0.07-0.23c-0.05-0.199-0.11-0.399-0.17-0.6c0,0,0,0-0.01-0.01c0,0,0,0,0-0.01
			c-0.04-0.131-0.08-0.261-0.12-0.4c-0.03-0.1-0.061-0.21-0.09-0.32c-0.03-0.109-0.07-0.229-0.101-0.35
			c-0.02-0.04-0.03-0.08-0.04-0.12c-0.04-0.13-0.08-0.26-0.109-0.39c-0.04-0.11-0.07-0.23-0.101-0.341
			c-0.06-0.21-0.13-0.409-0.189-0.619c0-0.011,0-0.011,0-0.021c-0.08-0.27-0.16-0.55-0.24-0.82c-0.58-1.939-1.15-3.89-1.72-5.829
			c0-0.011-0.011-0.021-0.011-0.03c-0.069-0.23-0.13-0.45-0.199-0.681c0-0.01-0.011-0.029-0.011-0.039
			c0-0.011-0.01-0.011-0.01-0.021c-0.03-0.11-0.06-0.21-0.09-0.32c-0.061-0.189-0.11-0.38-0.17-0.569
			c-0.07-0.24-0.141-0.48-0.21-0.721c-0.05-0.18-0.11-0.35-0.16-0.529c-0.01-0.051-0.03-0.11-0.04-0.16
			c-0.06-0.19-0.12-0.38-0.17-0.57c-0.42-1.399-0.83-2.81-1.24-4.21c-0.05-0.17-0.109-0.35-0.16-0.52
			c-0.01-0.04-0.02-0.07-0.029-0.11c-0.08-0.27-0.16-0.53-0.23-0.8c-0.07-0.21-0.13-0.42-0.189-0.63
			c-0.051-0.15-0.091-0.31-0.141-0.46c-0.02-0.09-0.05-0.19-0.08-0.28c-0.029-0.12-0.069-0.24-0.1-0.36
			c-0.28-0.95-0.561-1.89-0.84-2.84c-0.021-0.06-0.04-0.11-0.051-0.17c-0.039-0.12-0.069-0.25-0.109-0.37
			c-0.01-0.02-0.01-0.03-0.021-0.05c-0.06-0.21-0.12-0.43-0.18-0.64c-0.06-0.18-0.11-0.36-0.16-0.54c-0.04-0.11-0.069-0.22-0.1-0.33
			c-0.01-0.02-0.01-0.04-0.021-0.06c-0.05-0.18-0.109-0.36-0.16-0.54c-0.119-0.42-0.25-0.84-0.369-1.26
			c-0.101-0.32-0.19-0.64-0.28-0.95c-0.01-0.05-0.03-0.1-0.04-0.15c0-0.01-0.01-0.02-0.01-0.03c-0.021-0.07-0.04-0.14-0.061-0.21
			c-0.01-0.03-0.02-0.06-0.02-0.09c-0.061-0.21-0.12-0.42-0.181-0.62c-0.04-0.16-0.09-0.32-0.13-0.48
			c-0.029-0.12-0.069-0.24-0.1-0.36c0-0.02-0.01-0.04-0.01-0.06h-0.011c-0.029-0.14-0.069-0.29-0.109-0.43
			c-0.12-0.47-0.24-0.94-0.36-1.4c-0.03-0.1-0.05-0.19-0.07-0.28c-0.02-0.05-0.029-0.11-0.039-0.16
			c-0.051-0.19-0.091-0.37-0.131-0.55c-0.05-0.15-0.08-0.3-0.109-0.44c-0.03-0.11-0.061-0.22-0.08-0.32
			c-0.03-0.08-0.05-0.16-0.061-0.24c-0.02-0.07-0.04-0.14-0.05-0.2c-0.1-0.39-0.189-0.78-0.29-1.17c-0.029-0.14-0.06-0.27-0.09-0.41
			c0-0.01-0.01-0.01-0.01-0.02c-0.04-0.17-0.08-0.33-0.12-0.5c-0.03-0.13-0.07-0.27-0.09-0.41c-0.03-0.1-0.061-0.2-0.08-0.3
			c-0.03-0.1-0.05-0.21-0.08-0.32c-0.01-0.02-0.01-0.05-0.021-0.08c-0.06-0.26-0.13-0.53-0.189-0.8
			c-0.021-0.07-0.04-0.15-0.061-0.23c-0.01-0.04-0.02-0.09-0.039-0.14c-0.03-0.16-0.07-0.31-0.11-0.47
			c-0.03-0.12-0.061-0.24-0.09-0.36c-0.021-0.07-0.04-0.15-0.061-0.23c0-0.01-0.01-0.03-0.01-0.05c-0.03-0.12-0.06-0.24-0.09-0.36
			c-0.04-0.16-0.09-0.32-0.13-0.49c-0.03-0.11-0.061-0.23-0.09-0.35c0-0.01-0.011-0.03-0.021-0.04c-0.02-0.13-0.06-0.27-0.1-0.4
			c-0.03-0.12-0.061-0.23-0.09-0.35c-0.011-0.06-0.03-0.13-0.051-0.19c0-0.02-0.01-0.04-0.02-0.06c-0.03-0.12-0.061-0.24-0.09-0.35
			c-0.021-0.09-0.05-0.19-0.08-0.28c0-0.01,0-0.03-0.01-0.04c-0.011-0.05-0.03-0.11-0.04-0.16v-0.01
			c-0.011-0.03-0.021-0.07-0.03-0.1c-0.04-0.13-0.08-0.27-0.11-0.4c-0.029-0.11-0.06-0.21-0.09-0.32c-0.03-0.08-0.05-0.15-0.07-0.23
			c-0.02-0.07-0.04-0.14-0.06-0.21c-0.01-0.03-0.021-0.06-0.03-0.1c-0.029-0.11-0.069-0.23-0.1-0.34
			c-0.04-0.14-0.061-0.27-0.05-0.37c0.02-0.52,0.51-0.59,0.729-0.01c0.03,0.04,0.05,0.09,0.061,0.14c0.01,0.03,0.02,0.07,0.029,0.1
			c0.71,2.42,1.42,4.82,2.12,7.21c0.04,0.12,0.07,0.23,0.11,0.35c0.04,0.13,0.07,0.25,0.109,0.38c0.03,0.08,0.051,0.17,0.07,0.25
			c1.601,5.4,3.18,10.75,4.771,16.07c0.029,0.11,0.06,0.21,0.09,0.31c3.85,12.99,7.689,25.871,11.63,39.19
			c0.04,0.13,0.08,0.26,0.11,0.391H84.034z"/>
		<path fill="#190C3C" d="M66.282,35.079c-0.592-0.019-1.182-0.038-1.772-0.055c-0.459-0.015-0.457,0.696,0,0.711
			c0.591,0.018,1.181,0.037,1.772,0.055C66.739,35.804,66.739,35.093,66.282,35.079L66.282,35.079z"/>
	</g>
</g>
<g id="Layer_3">
</g>
<g id="Layer_2">
</g>
</svg>
