<svg enable-background="new 0 0 110.9167 128.161" viewBox="0 0 110.9167 128.161" xmlns="http://www.w3.org/2000/svg"><path d="m110.9383 32.0617v64l-55.42 32-44.35-25.6-.2-.12-10.88-6.28v-64l55.43-32z" fill="#f48ea8"/><path d="m102.0279 37.6811v53.14l-.0099.01-1.09.62-.33.19-.13.07-.88.51-.14.08-3 1.73-.2.12-1.93 1.11-.16.09-1.48.86-.47.27-.14.08-.47.27-.24.13-.03.01-.1.04-.11.07-2.46 1.41-.57.33-.8199.47-1.05.6-.04.03-1.23.71-.45.26-.02.02h-.01l-.47.27-1.07.6201-.87.52-.16.09-1.1.63-.05.03-.07.04-.08.05-.41.24-.03.01-.05.03-.05.02-.06.04v.01l-.29.17-.49.28-.18.09-.02.02-.04.02-1.01.58-.14.08-.15.09-.05.03-.32.1801-.24.14h-.01l-.07.04-.64.38-.2.12-.33.19-.25.14c0 .01-.01.01-.01.01l-.47.27-.42.24-.04.03-.57.33-.12.07-2.21 1.27-.63.36-.06.03-1.12.65-.33.19-2.05 1.19-.02.01-.01.01-.4.23-.35.2-.5.29-.14.08-1.25.72-.98.57-.39.22-.01.01-.43.25-.4.23-2.36 1.36-.36.21-.04.02-.18.1-.5.29-1.87 1.08-.56.32h-.01l-.32.19-.48.28-.14-.08-1.28-.74-.85-.4901-.03-.0099-.91-.53-.17-.1-.05-.03-.18-.1-.43-.25-.17-.1-3.36-1.94-.04-.03-2.07-1.19-4.24-2.46-.51-.3-.61-.35-.69-.39-.93-.54-.22-.12-.09-.06-.03-.02-2.23-1.29-1.22-.71-.37-.21-.39-.22-.08-.05-.15-.08-.26-.15-.24-.15-.09-.05-.35-.2-.08-.05-.08-.04-.04-.03-1.3-.74-.05-.03-.15-.08-.37-.22-1.71-.99-2.51-1.46-2.09-1.2-.82-.47-.09-.05-.5-.29-.01-.01-.21-.12h-.0099l-1.04-.6c-.01-.01-.01-.01-.02-.01l-1.86-1.08-1.02-.59-1.33-.77-.72-.43-.04-.02-.02-.01-.29-.17s-.01 0-.02-.01l-.26-.15-.02-.0099-3.3-1.9-1.81-1.05-.77-.44-.83-.48-.09-.05-.08-.04-.03-.02v-53.14l1.8-1.03 3.86-2.23.77-.46h.01l.25-.14.58-.33 1.75-1.0099 2.27-1.31.82-.48.15-.09 2.07-1.19.98-.57 1.01-.59.42-.24.45-.26.25-.14h.01l.57-.33 3.23-1.86 1.58-.92.17-.09 1.66-.95.78-.45.38-.22.44-.26 1.1-.65.33-.19.19-.11 2.28-1.3.69-.41 1.38-.79.02-.01h.01l.05-.03 5.72-3.3.19-.11.27-.16 2.86-1.65 3.21-1.86 1.44-.83 1.06.62 6.4901 3.75 2.6 1.5 3.95 2.28 1.34.77 2.85 1.64 3.79 2.19 1.04.61 2.3 1.3101.87.5 1.52.8799 1.37.79.8.46.09.06 1.81 1.04 3.78 2.18.04.03v.01l.26.14.26.16.4.23.92.53.54.31.02.01 1.92 1.11.78.44.44.25 1.9399 1.1201.25.14z" fill="#ffd9e6"/><g fill="#e57c9f"><path d="m86.8789 59.5375c-.7074-.882-1.6445-1.4791-2.655-1.9385-2.6183-1.1667-5.3376-1.9844-8.1764-2.3335-.689-.0826-.836-.3215-.7717-.9187.0275-.2572.0183-.5329 0-.7993-.0459-.4685.1837-.5788.5971-.5237 2.6826.3583 5.3285.9095 7.91 1.7455.4502.1378.983.983 1.2861.3583.2297-.4593-.7074-.735-1.2035-.9096-2.0855-.7533-4.2444-1.2494-6.4309-1.5158-1.4056-.1746-2.1589-.5513-2.8939-1.9568-.8452-1.6169-1.424-3.1879-1.5894-4.9702-.0275-.2939-.1102-.5879-.1929-.8819-.4318-1.378-1.1024-1.9109-2.5356-1.9844-.3032-.0183-.5788.0092-.8085-.2756-.6247-.7441-1.4056-1.3137-2.3978-1.7455 1.3872-.8452 1.5066-2.0855 1.3229-3.3992-.2573-1.8925-1.0841-2.5264-2.9031-2.2049-.983.1654-1.5893.9922-2.1222 1.718-.4226.588-.8268.7533-1.4975.6339-.9922-.1654-1.9844-.1654-2.995-.0367-2.1956.2756-4.373.3583-6.5503-.294-1.6996-.5053-3.4359-.294-5.1263.2756-1.2403.4226-2.3703 1.0565-3.5278 1.7088-.6155-1.1943-1.2219-2.3611-2.1589-3.2981-1.5985-1.6077-3.142-1.3321-4.0974.7349-1.0381 2.2508-.441 4.5016 1.7455 5.9715.7901.5329.7349.9003.3307 1.6169-1.2862 2.3059-2.5815 4.621-3.7207 7.0005-.3859.8085-.7901 1.0197-1.6077 1.0933-3.3257.3123-6.3574 1.525-9.2145 3.2154-.2021.1102-.5971.2205-.3399.5696.1746.2481.4226.0367.6155-.0827.9738-.5971 1.9936-1.1024 3.0409-1.5526 2.1865-.9187 4.4373-1.5801 6.8627-1.6628-.3399 1.6904-.3399 1.6812-1.9384 1.8834-.4593.0643-.9187.1562-1.378.2572-.2665.0643-.735.0367-.6339.4502.1102.4134.5145.1286.7809.1011.3675-.0368.7257-.1654 1.0933-.1838.395-.0184 1.0565-.4042 1.1392.0275.101.4961-.101 1.1852-.6155 1.5894-.1746.1378-.4042.2297-.6155.3307-.5145.2572-.983.5604-1.4056.9554-1.6077 1.5159-1.5709 3.2246.1286 4.6394 1.4148 1.176 3.096 1.8374 4.7956 2.4621.2205.0735.5053.1562.5788-.1745.046-.2297-.2113-.3032-.395-.3675-.5604-.2205-1.13-.4042-1.6812-.6523-1.2218-.542-2.4253-1.1392-3.3808-2.113-.5604-.5788-.8268-1.2402-.5512-2.0119.4226-1.1759 1.3045-1.8649 2.4897-2.3243-.046 2.8847 1.0473 4.4189 3.6931 5.2274.9004.2756 1.8099.4961 2.7286.6614 1.7547.3124 3.4451.7717 5.0252 1.6261 2.2784 1.2402 4.7405 1.2861 7.2026.8636 2.2416-.3767 4.4465-.7717 6.7524-.5696 2.113.1746 4.2076-.0368 6.1461-1.0841.5329-.2939 1.13-.3399 1.7547-.3123 1.5893.0735 3.1235-.2205 4.5751-.882.6247-.2848 1.4424-.6982 1.424-1.3137-.0367-1.424.8544-2.0946 1.7639-2.8387.046-.046.0919-.1102.1102-.1654.1562-.5328.5604-.6063 1.029-.542.9462.147 1.92.2205 2.8387.4777.8544.2388 1.9201.3858 2.0303 1.6077.0643.7809-.6339 1.4883-1.9936 1.8098-1.718.4042-3.3348.9738-4.7772 2.0119-.4594.3307-1.0381.4226-1.6077.4961-1.2311.1654-2.4346.4961-3.6748.6431 2.0579.2113 4.1065.2297 5.9347-.8911 1.1852-.7166 2.3978-1.3046 3.7759-1.571.7901-.147 1.5526-.4226 2.1773-.9646 1.1208-.9738.9187-2.3703-.3859-3.0593-1.3229-.689-2.7652-.8085-4.1892-.9738-.4777-.0643-.7993-.0735-.6063-.6706.0643-.2205.0918-.4777.0551-.6982-.1378-.836.2481-.9371.9646-.8177 2.6183.4134 5.1539 1.1484 7.5884 2.2049.9554.4042 1.8466.9462 2.5356 1.7639 1.0013 1.1851.937 2.4897-.1654 3.5737-.6523.6431-1.4148 1.1024-2.2508 1.4883-.1746.0826-.4226.1562-.3307.4134.1102.3215.3674.1837.5788.0919.9278-.4226 1.7731-.9462 2.4896-1.6812 1.2311-1.2493 1.3046-2.7651.2022-4.1524zm-22.2416-23.2613c1.3137-1.1576 2.5815-.7993 3.0593.8819.3215 1.1576.2572 1.7271-.4777 2.8388.2113-1.0289.3124-1.819.1838-2.6275-.0919-.5604-.2481-1.0657-.882-1.1852-.6431-.1194-1.0933.2021-1.4056.735-.1102.1746-.1837.3582-.2573.542-.4869 1.176-.4869 1.176-1.7823.5513.7166-.4593.9738-1.2311 1.5618-1.7363zm9.8024 19.8622c-.0551.1929.0092.2848.0551.4226.4777 1.7639-.8727 3.4267-2.6826 3.2706-.395-.0368-.7993-.1102-1.1759-.2389-1.424-.4869-2.9123-.8636-4.2352-1.5526-2.2783-1.1852-4.3454-.7166-6.4676.3215-1.2402.6064-2.5907.9279-3.9596 1.0565-1.3505.1286-2.6275.4685-3.9137.8636-1.571.4685-3.1603.8728-4.8323.9462-1.2127.0551-2.0119-.5328-2.3978-1.7547-.0827-.2848-.1746-.5696-.2481-.8636-.0459-.1838-.1562-.3491-.3215-.3216-.2113.046-.2573.2297-.2389.4685.1562 1.7823 1.8099 3.1052 3.6013 3.0042 1.4332-.0735 2.8112-.4134 4.1709-.7533 2.0854-.5237 4.1801-.8452 6.3298-.9003 1.2954-.0276 2.5081-.441 3.6564-1.0014.6522-.3123 1.2678-.3583 1.9384-.2113 2.6826.5788 5.3468 1.2494 8.0845 1.5159.6156.0551.6798.4685.6247.9278-.0826.7074-.6063 1.0841-1.1851 1.3872-1.3137.6707-2.7469.9095-4.1892.8544-.836-.0275-1.6077.0551-2.3243.4318-1.5617.8177-3.2246 1.0381-4.9609 1.0014-1.6996-.0275-3.4267-.147-5.0988.0827-1.424.1929-2.8388.4502-4.2812.6063-1.7639.1838-3.4175.0919-4.9518-.8085-2.0028-1.1759-4.2444-1.5709-6.4676-2.0211-.9554-.2021-1.9017-.441-2.7745-.8728-1.5893-.7809-2.7652-2.8204-1.8649-4.9518.395-.9462.7441-1.9292 1.0105-2.9306.4961-1.9017 1.4056-3.6013 2.3059-5.3192.8452-1.5985 1.672-3.2062 2.5907-4.7588.4226-.7166.4318-1.0473-.3766-1.5159-2.2784-1.3229-2.949-3.3165-1.9936-5.5214.7533-1.718 1.8466-1.9476 3.1603-.6431.8728.8544 1.4883 1.8925 1.9568 3.0133.2297.5604.4226.8085 1.0657.3766 3.0225-2.0119 6.2563-2.7285 9.8209-1.5158 1.4332.4869 2.9214.1102 4.3821-.0368 1.6077-.1654 3.2062-.2664 4.7497.3491.1837.0735.395.1286.542.2481 1.6353 1.3229 3.2705 2.6458 5.0436 3.785.1562.101.2481.294.395.4777-.4502.248-.8636.4685-1.2678.6982-.1654.0918-.4042.2113-.2848.441.1562.294.3767.1286.5972.0275.7625-.3858 1.4699-.8268 2.4346-.7166 1.0013.1194 1.5066.6614 1.7547 1.5159.1746.5696.2573 1.1851.3124 1.7822.1194 1.3505.4777 2.5632 1.2953 3.7208 1.2038 1.6906 1.112 3.6658.6158 5.6135z"/><path d="m66.4728 76.5364c1.8288.0216 3.5669-.2665 5.2743-1.0134 2.754-1.2048 5.5933-2.177 8.5927-2.6379 1.5202-.2336 2.9839-.7348 4.3971-1.3645 1.0582-.4715 1.9829-1.0886 2.6628-2.0579.4241-.6045.9645-1.126 1.5904-1.5197 1.4073-.8853 2.5941-1.9969 3.6001-3.3143.144-.1886.2829-.5783.596-.3372.2975.229-.0012.4888-.1557.6829-.8775 1.1024-1.7926 2.1681-3.0017 2.9338-.97.6143-1.8219 1.3576-2.5019 2.293-.6539.8995-1.6016 1.4077-2.5836 1.8484-1.2543.5629-2.5552 1.0239-3.9083 1.2502-3.5514.5941-6.8956 1.8096-10.205 3.1809-2.0005.8289-4.1317.6793-6.2395.5081-.2193-.0178-.5451-.015-.4993-.3446.044-.3168.3549-.2264.5769-.2152.6018.0303 1.2032.0708 1.8047.1074z"/><path d="m62.4912 73.5714c-3.5692-.3056-7.4454.5648-11.3616.9073-1.8564.1624-3.6722.0738-5.4478-.5228-.2709-.091-.7292-.1054-.6361-.4695.1028-.4019.4894-.1532.7525-.0654 2.5194.8404 5.0595.6256 7.6007.1402 1.1047-.211 2.2334-.1574 3.3419-.2384 2.147-.1569 4.2835-.4897 6.4626-.3843 2.8505.1379 5.6929-.1239 8.4742-.8454 1.7636-.4574 3.4294-1.1214 4.893-2.2374.1826-.1392.3858-.5136.6532-.1892.2591.3144-.1171.4676-.3026.6146-1.5814 1.2537-3.4215 1.9459-5.3553 2.4232-2.8509.7038-5.7576.8541-9.0747.8671z"/><path d="m70.6402 67.3884c-2.8837.6438-5.8254.8826-8.6032 2.0008-3.0659 1.2342-6.2657.7762-9.4218.2632-1.95-.3169-3.9443-.2693-5.8738-.7396-.1623-.0396-.3305-.0599-.4881-.1125-.1801-.0602-.4525-.0842-.411-.3459.057-.3592.3666-.2246.5653-.1806 2.6559.5877 5.389.58 8.059 1.0536 3.083.5469 6.0535.1615 8.9658-.9677 2.3123-.8965 4.7205-1.2862 7.2078-.9713z"/><path d="m93.3334 60.2441c-.0657 1.4616-.7771 2.6393-1.9504 3.3497-2.8247 1.7103-5.2299 3.945-7.8097 5.9608-.9576.7482-2.0688 1.0581-3.2521 1.1686-.2313.0216-.5158.055-.5193-.2883-.0025-.2482.2297-.3112.4339-.3081 1.9111.0292 3.2329-1.1376 4.5631-2.2634 1.813-1.5342 3.5813-3.1149 5.6732-4.2903 1.0042-.5642 1.7884-1.3967 2.1666-2.5437.3841-1.1649-.0999-2.023-.952-2.739-.7486-.6291-1.618-1.0597-2.522-1.4231-.1772-.0713-.4164-.1399-.3192-.4042.0321-.0872.2047-.1704.3156-.1738 1.3296-.0406 3.9673 2.2323 4.1421 3.5581.0174.1326.0206.267.0302.3967z"/><path d="m19.1278 62.4287c-.0134-1.5634.6855-2.8384 1.6385-4.004.149-.1823.3167-.5336.6211-.2397.2406.2323-.0442.4093-.1749.5887-.2168.2975-.4452.5881-.6403.8995-1.3709 2.1885-1.2319 4.1419.6703 5.8807 2.4769 2.2642 5.2744 4.1138 8.181 5.7921.2321.134.7458.1401.596.518-.19.4792-.5999.1158-.8444-.023-2.9479-1.674-5.738-3.5834-8.2848-5.8223-1.0564-.9287-1.769-2.1019-1.7625-3.59z"/><path d="m23.5781 62.1983c.0224 1.4988.8602 2.363 1.836 3.1015 1.3398 1.0138 2.8547 1.7417 4.3756 2.4316 1.7995.8162 3.5689 1.6786 5.2454 2.7281.9728.609 2.0452.974 3.1635 1.209.2032.0427.4658.0962.4378.3206-.0374.2993-.3182.279-.5609.2281-.8857-.186-1.782-.3856-2.5517-.8649-2.7614-1.7196-5.7883-2.9185-8.6398-4.4594-1.0652-.5756-2.0886-1.2051-2.888-2.1364-.5809-.6767-.989-1.4296-.9673-2.354.0069-.2958-.0326-.7339.3284-.7414.4908-.0102.1998.4312.221.5372z"/><path d="m68.3193 69.9724c-.2816-.0008-.5335.0911-.5997-.1727-.0908-.3616.235-.3391.4429-.3851.848-.1877 1.7086-.326 2.5469-.5492 1.5281-.4069 2.9463-.9942 4.1308-2.1352 1.2631-1.2166 2.9167-1.7134 4.5996-2.0782 1.1841-.2567 2.3101-.6582 3.297-1.3819.516-.3784 1.0077-.7837 1.1302-1.4709.0415-.2331.0861-.5188.4227-.3952.3143.1154.1628.3846.1182.6045-.135.666-.5786 1.1223-1.0783 1.5221-.9818.7856-2.1072 1.3011-3.3284 1.5619-2.0602.4399-3.8937 1.221-5.5194 2.6551-1.7383 1.5333-4.0528 1.7974-6.1625 2.2248z"/><path d="m48.1378 71.4513c-3.0677.3492-5.794-.6428-8.4184-2.095-1.3134-.7267-2.6335-1.4487-4.0574-1.9546-.2069-.0735-.6464-.0902-.4561-.484.1604-.3319.4878-.0993.7097-.0102.7429.2981 1.4902.595 2.2025.9577 5.9688 3.0398 5.9666 3.0381 12.7096 3.0617.4251.0015 1.2094-.2694 1.2168.2396.0077.5247-.769.2512-1.1949.2716-.9021.0433-1.8076.0132-2.7118.0132z"/><path d="m25.2077 59.4314c-.0003-.4166.1833-.9148.5432-1.3328.8472-.9837 1.97-1.5867 3.0942-2.1795.2326-.1226.5786-.2436.7069.0659.1618.3904-.2621.343-.4745.4487-.9001.4477-1.762.9646-2.5121 1.6341-1.0219.9122-1.0698 1.9501-.155 2.9837.2856.3227.6062.6425.972.8615 1.6848 1.0088 3.0241 2.42 4.4468 3.7356.167.1544.4541.2946.2067.5483-.2157.2212-.4535.0144-.6055-.1465-1.5701-1.6615-3.428-2.9757-5.2121-4.3821-.6444-.5079-1.0341-1.2243-1.0106-2.2369z"/><path d="m46.405 76.7743c-1.9701.0237-3.8432-.3996-5.6927-1.0703-1.4717-.5337-3.0049-.8966-4.5056-1.3522-.2244-.0681-.6425-.0353-.5538-.4187.0851-.3678.4416-.2098.6775-.1415 1.6024.4645 3.2403.8423 4.7897 1.4457 2.1142.8234 4.2923.982 6.5108 1.0145.2576.0038.7224-.1856.7157.2575-.0065.4283-.4724.2304-.7357.2551-.3989.0375-.8037.0099-1.2059.0099z"/><path d="m38.1053 38.6957c.1014-.7806-.0113-1.9364 1.0844-2.2215 1.0656-.2772 1.5058.7665 1.9711 1.5206.5667.9184.9161 1.9236 1.0433 3.0006.1111.9414-.1795 1.2585-1.1595 1.2627-1.5841.0067-2.9577-1.5946-2.9393-3.5624z"/><path d="m56.1564 49.8557c-1.5474-.0551-2.5304-.7603-2.4833-1.7816.0497-1.0788 1.2806-2.3319 2.2874-2.3289 1.0722.0033 2.1962 1.2539 2.1492 2.3914-.0413 1.0004-.9006 1.7566-1.9533 1.7191z"/><path d="m72.1518 46.7151c-.0189 1.1631-1.0803 2.105-2.3565 2.0913-.9792-.0105-1.5149-.4981-1.4832-1.35.0466-1.2529 1.1983-2.5247 2.2774-2.5148 1.0257.0093 1.5807.6394 1.5623 1.7735z"/><path d="m47.0157 44.7791c-1.0029-.0025-1.8436-.7216-2.8951-.6211-.3065.0293-.1218-.3321.0361-.5104.9951-1.1238 2.0601-1.2722 3.361-.4474.3948.2503.8009.5332.8217 1.0538.0103.255-.7569.5337-1.3237.5251z"/><path d="m55.3388 43.8878c.5054-.0428.9994.1653 1.4785.4056.4771.2394.9602.4763 1.4037.7701.3253.2155 1.1445.1505.9235.5996-.2534.515-.8668-.0106-1.3-.177-.2774-.1065-.5223-.2956-.7865-.4389-1.8037-.9778-2.709-.8098-4.1157.7202-.1973.2146-.3654.7786-.7137.4815-.3951-.337.133-.6352.3414-.881.873-1.03 1.7473-1.4872 2.7688-1.4801z"/><path d="m39.1503 49.1363c.0458-.2044.0626-.4466.1548-.6556.175-.3969.1932-1.1857.6831-1.0265.5364.1743-.1203.7071-.1262 1.1029-.0029.1941-.1012.385-.1258.5812-.0209.1666.0083.3465.1949.416.195.0726.3128-.0603.3898-.212.1507-.2969.2812-.604.4302-.9018.121-.2418.2757-.5477.5801-.4471.6971.2305.9005-.0852.9335-.7017.0068-.1279.118-.2531.2725-.2254.0786.0141.1707.0939.2091.1685.2321.4503-.1696 1.4069-.6467 1.3505-.8269-.0977-.9964.4094-1.2447.9638-.187.4175-.5038.7365-1.0215.6109-.5058-.1228-.6327-.5381-.6831-1.0237z"/><path d="m40.6012 56.0381c.4115-.2825.2966-.646.3686-.9537.0924-.3952.2361-.7843.7208-.8437.1136-.0139.2688.0405.3523.1192.1098.1034.0712.2734-.0651.3271-.575.2264-.431.7519-.532 1.1847-.0928.398-.2337.7832-.7665.7602-.5606-.0242-.758-.395-.7563-.8685.0021-.5643.0886-1.1279.1175-1.6928.0115-.2241-.0955-.5393.2195-.559.3556-.0222.3753.3478.3865.5924.0286.6235-.2903 1.2379-.0453 1.9341z"/><path d="m63.6359 51.547c.0534-1.3287-.2493-2.5762-.8395-3.7597-.1033-.2072-.2734-.4441.0536-.574.2334-.0927.3512.1337.4371.3106.7575 1.5594 1.1513 3.1782.8051 4.9211-.0405.2041-.0492.4635-.2894.4423-.3105-.0273-.2697-.3039-.2364-.5448.0363-.2633.0474-.5301.0695-.7955z"/><path d="m72.43 54.9462c.0563.4703.8802-.039.7931.6362-.0475.3677-.2236.6841-.6203.653-.5575-.0437-.507-.5267-.5237-.9206-.0088-.2077.0407-.4004.3509-.3686z"/><path d="m71.9758 52.653c.1817-.0061.436.0333.3704.2822-.112.425-.5197.5736-.8996.6645-.2603.0623-.4577-.1109-.4163-.3953.0784-.5373.5491-.4689.9455-.5514z"/><path d="m72.8269 50.355c-.0686.4249-.1108.8096-.5353.9201-.1792.0467-.355-.2034-.2679-.2852.3248-.3049.0375-.9275.5078-1.0642.3146-.0914.2334.2972.2954.4293z"/><path d="m47.7058 55.4816c-.0829.2713-.0514.6522-.3941.6334-.3147-.0172-.4874-.3429-.5216-.6493-.0375-.3364.1728-.6552.4758-.6602.3893-.0065.2973.4514.4399.6761z"/><path d="m50.8969 58.9265c-.2715-.0935-.2866-.3637-.3128-.6185-.024-.2337-.0118-.5246.3047-.465.3007.0566.3042.3776.3113.6418.0057.2071-.0165.398-.3032.4417z"/><path d="m74.2615 54.6115c.0127-.0751-.0146-.1336-.0576-.1756.1246-.2558-.0169-.4884-.1939-.6811-.0283-.0309-.0631-.0449-.099-.0501-.0808-.1964-.4166-.1725-.3828.063.0007.0052.0007.0104.0013.0155-.0269.0476-.0353.106-.0253.1646.01.0591.02.1182.0301.1772.0019.0154.0044.0308.0078.046.0134.0787.0267.1574.04.2362.0237.1401.031.2971.1444.3981.0563.0502.1246.071.1934.0727.0865.0356.1882.0136.2371-.0871.0522-.046.0921-.1061.1045-.1794z"/><path d="m73.3011 51.8316c-.0681.1465-.1445.2882-.2294.4256-.136.2198.2192.4057.3545.1871.085-.1374.1614-.279.2295-.4255.1084-.2335-.2455-.4217-.3546-.1872z"/><path d="m48.3775 56.4483c-.1723-.1274-.3889.0586-.3324.2127-.0629.0273-.1073.0858-.0937.1777.0173.1168.0585.2217.0878.3352.029.1125.0343.2298.0419.3453.0152.2319.2935.2401.3778.0701.099.0258.2181-.0117.2541-.1381.1041-.3656-.0283-.7758-.3355-1.0029z"/><path d="m48.6901 53.1559c.0039-.0057.0072-.0117.0111-.0174.1461-.2124-.2098-.3975-.3545-.1871-.1393.2026-.2698.4374-.3274.6787-.0418.175-.0081.4572.2191.4798.1966.0195.3564-.2434.4316-.395.0906-.1823.0999-.3774.0201-.559z"/><path d="m52.9094 55.1007c-.2058-.0714-.4687-.0503-.6793-.0164-.0766.0123-.126.0594-.1547.116-.1317.0129-.255.1554-.1632.3032.1104.1778.3489.1882.5393.1831.1814-.0048.4767-.0365.6052-.1826.1329-.1508.015-.347-.1473-.4033z"/><path d="m52.5594 56.8617c-.0511-.0955-.1907-.1159-.2769-.0609-.0171.0109-.0286.0254-.0407.0394-.0102.001-.0203-.0004-.0305.0018-.3448.0751-.3412.5754-.006.6621.1571.0406.3183-.0395.3922-.1816.0794-.1525.0385-.3176-.0381-.4608z"/><path d="m50.3179 52.1881c-.0109-.1012-.0808-.1589-.1591-.1776-.0107-.141-.1557-.2682-.2963-.1588-.2953.2297-.249.886-.0111 1.1434.0461.0498.1323.0644.1946.0437.2833-.0939.2978-.6108.2719-.8507z"/><path d="m51.1655 53.7565c-.1137-.1004-.2772-.1344-.4241-.1337-.0615.0003-.1065.0242-.1376.0588-.2142.0239-.4132.1786-.4733.3886-.0389.1357-.0006.2814.131.3499.1213.0632.2978.0504.4308.0551.2762.0097.5045-.108.5554-.3978.0214-.1208.0149-.2351-.0822-.3209z"/><path d="m50.8393 55.6587c-.0778-.1191-.2836-.1275-.3461.0144l-.0935.2123c-.0334.0758-.0166.1448.0214.1982-.0002.0008-.0008.0013-.001.0021-.0502.2003-.0416.4008.0293.595.0474.1299.2415.2055.3392.0763.2452-.3241.2761-.7532.0507-1.0983z"/><path d="m49.1145 54.2009c-.0738-.0652-.1865-.0823-.2688.0148-.1475.174-.2572.5992.0352.7016.2668.0934.4973-.2793.5338-.4949.0317-.1879-.1738-.2862-.3002-.2215z"/><path d="m49.8756 57.7293c-.0631-.0999-.1828-.1466-.2949-.1081-.1333.0458-.1586.1891-.1928.3084-.009.0314-.0105.0602-.0063.0862-.0157.0217-.0314.0435-.0472.0652-.0634.0876-.0741.2041.0123.2832.0727.0666.2194.0759.2832-.0123.1162-.1605.381-.4086.2457-.6226z"/><path d="m49.597 55.635c-.326-.0031-.5318.3044-.4811.6059.0204.1211.2063.1851.2994.1097.103-.0834.17-.1749.2048-.304.0013-.0048-.0001-.0085.0008-.0131.245-.0111.2291-.3961-.0239-.3985z"/><path d="m53.1646 53.2889c-.0964-.0271-.175-.0029-.2506.0349-.0568-.0352-.1285-.0472-.2028-.0068-.0986.0536-.2147.06-.3115.122-.0965.0619-.1661.156-.1866.2692-.0338.1873.2063.3418.343.181.0008-.0009.0025-.0012.0033-.0021.0231.0183.0511.0329.0888.0382.2689.0383.5435-.0859.6482-.3478.0489-.1224.0023-.2509-.1318-.2886z"/><path d="m52.2515 52.4784c-.128.4004-.4771.518-.8437.5641-.2152.027-.414-.1304-.3953-.3491.0441-.5141.6296-.3148.8881-.6003.087-.0961.3302.1405.3509.3853z"/></g><path d="m96.9016 34.7183-.53-.3-.72-.42-.77-.45-.11-.06-.49-.28-.51-.29-.9-.52-7.25-4.18-1.71-.98-.72-.42-.45-.26-.49-.29-.05-.02-.42-.25-.41-.24-5.33-3.07-19.5-11.24-.53-.31-.47.27-17.11 9.88-5.02 2.9-1.3.75-.53.31-.1.05c-.01 0-.01 0-.01 0l-.25.15-.42.25-.3.17-.27.16-.18.1-1.5.87h-.01l-1.78 1.02-.0099.01-.58.34-.76.43-.01.0099-.03.02-3.25 1.87h-.01l-2.38 1.37-1 .58-2.98 1.72-4.23 2.4399-1.54.89v53.12l.07.04 1.72 1 .75.43.15.08 4.32 2.5.69.39 4 2.32.46.26 1.3.75 3.3799 1.95 5.38 3.1.69.4.07.04.15.08.11.07.18.1.04.02 1.91 1.11.88.5 1.33.78.89.5099.1801.1.31.18.19.11.48.28 3.57 2.05.09.05.44.26.62.36.72.42h.01l.53.3 1.51.87 3.17 1.84 4.48 2.58 1.03.6.23.13.02-.0099.19-.11.14-.08.03-.02.31-.18 1.81-1.03.09-.05.69-.4.5-.29.24-.14 3.85-2.22 2.4499-1.41.74-.43.66-.38.67-.39.44-.26 2.33-1.34.39-.22h.0099l.23-.14.21-.12.63-.36.8-.46 1.2599-.73.46-.27h.01l.46-.27.0099-.01.25-.14.53-.31.37-.21.35-.21.55-.31.21-.13.32-.18.43-.24.02-.01.05-.03.13-.08.24-.13 3.78-2.18.38-.22 1.11-.65 2.97-1.71 1.56-.9 8.53-4.92h.01l.06-.04 2.65-1.53.9-.52 1.03-.59v-53.12zm3.3 55.03-.52.3-.32.18-.58.34-7.59 4.38-4.67 2.69-3.12 1.8-1.28.7401-.72.41-2.93 1.69-.07.05-.16.09-.18.11-.57.32-.89.51-.22.13-.05.03-.81.47-.09.05-3.91 2.25-.08.05-.79.45-.08.05-.91.53-2.15 1.24-1.54.89-1.68.97-1.1.63-2.97 1.72-1.23.71-.06.04h-.02l-.75.44-.28.15-1.8701 1.08-3.45-1.9901-1.23-.71-.61-.35-1.81-1.05-.72-.41-.69-.4-5.26-3.03-.77-.45-.05-.03-1.79-1.03-2.0601-1.18-.9-.52-.58-.34-.25-.15-.43-.25-.21-.12-1.75-1.01-.31-.18-.19-.11-1.5-.8701-3.42-1.97-3.91-2.26-1.76-1.01-3.42-1.97-4.91-2.84-.9-.51-.39-.23-.23-.13-.67-.39v-50.97l3.91-2.26 2.98-1.72.93-.54h.01l.06-.04 3.2-1.85h.01l1.36-.79h.01l1.79-1.03 1.25-.72.43-.25h.01l.76-.44.46-.27h.01l2.98-1.72c.0099-.01.0099-.01.02-.01l.78-.45.35-.2.2-.12.29-.17.17-.1.27-.15.04-.02 8.03-4.64 13.39-7.73.47-.27.53.31 16.83 9.71 6.98 4.03.05.03.32.18.11.06.44.26.35.2 1.23.71 1.94 1.12 7.02 4.04 1.41.81.55.32.04.03.77.44.19.11.54.31.53.31 4.36 2.51v50.9701z" opacity=".13"/><path d="m26.1967 81.1239v.903c-.4404-.3684-.8957-.5534-1.3668-.5534-.5188 0-.9558.1867-1.311.5593-.3577.3709-.5363.8245-.5363 1.3609 0 .5295.1786.9763.5363 1.3404.3573.3641.7955.5457 1.3144.5457.2682 0 .4958-.0435.6834-.1305.1045-.0435.2132-.1023.3253-.1765s.2306-.1637.3547-.2686v.9192c-.4357.2464-.8936.3692-1.3732.3692-.7218 0-1.3374-.2515-1.8477-.7546-.5078-.5082-.7619-1.1213-.7619-1.8383 0-.6429.2127-1.2159.6378-1.7198.5231-.6165 1.2001-.9251 2.0306-.9251.4532-.0001.8915.1227 1.3144.3691z" fill="#e57c9f"/><path d="m26.9061 83.3545c0-.7111.2605-1.3216.7815-1.8315.5188-.5099 1.1426-.7648 1.8707-.7648.7192 0 1.3361.2567 1.8507.7717.5167.5142.7751 1.1323.7751 1.8537 0 .7256-.2596 1.3421-.7785 1.8477-.521.5082-1.1498.7614-1.8865.7614-.6519 0-1.2372-.2251-1.7561-.6762-.5712-.4997-.8569-1.1537-.8569-1.962zm.7687.0093c0 .5585.1872 1.0172.5623 1.3771.3726.359.8032.5389 1.2918.5389.5295 0 .9763-.1825 1.3404-.5491.3641-.3709.5461-.822.5461-1.354 0-.538-.1799-.9891-.5393-1.3532-.3577-.3667-.8002-.55-1.3276-.55-.5257 0-.9691.1833-1.331.55-.3619.3615-.5427.8083-.5427 1.3403z" fill="#e57c9f"/><path d="m33.1421 85.9014v-5.0486h1.0594c.5078 0 .9089.0503 1.2035.1501.3159.0981.6024.2652.8599.5005.521.4749.7815 1.0999.7815 1.8733 0 .7768-.2716 1.4043-.8143 1.8835-.2724.2404-.5581.4067-.8569.5005-.2788.0938-.6745.1407-1.1869.1407zm.7619-.7163h.3432c.3423 0 .6267-.0358.8535-.1074.2268-.0767.4319-.1978.6148-.3632.3752-.3419.5623-.7879.5623-1.3378 0-.5534-.185-1.0027-.5555-1.3472-.3338-.307-.8254-.4604-1.4751-.4604h-.3432z" fill="#e57c9f"/><path d="m40.7905 81.569h-2.0242v1.2125h1.9654v.7162h-1.9654v1.6874h2.0242v.7162h-2.7861v-5.0486h2.7861z" fill="#e57c9f"/><path d="m41.1862 83.9624h1.4585v.6412h-1.4585z" fill="#e57c9f"/><path d="m46.0357 81.569h-2.0242v1.2125h1.9654v.7162h-1.9654v1.6874h2.0242v.7162h-2.7861v-5.0486h2.7861z" fill="#e57c9f"/><path d="m50.0023 84.6752h-2.1615l-.5623 1.2261h-.8211l2.4983-5.3658 2.4101 5.3658h-.8339zm-.3104-.7162-.7491-1.7164-.7848 1.7164z" fill="#e57c9f"/><path d="m53.3891 81.569v4.3324h-.7614v-4.3324h-1.1613v-.7162h3.0807v.7162z" fill="#e57c9f"/><path d="m55.9889 80.8527v5.0486h-.7623v-5.0486z" fill="#e57c9f"/><path d="m57.2022 85.9014v-5.3923l3.6827 3.8523v-3.5087h.7614v5.3556l-3.6818-3.8421v3.5352z" fill="#e57c9f"/><path d="m65.4518 83.2726h2.0865v.1663c0 .3794-.0443.7154-.1339 1.007-.087.2703-.2345.5235-.4417.7589-.469.5278-1.065.7913-1.7889.7913-.706 0-1.3105-.2549-1.8145-.7648-.5039-.5125-.7555-1.1272-.7555-1.8443 0-.7324.2567-1.354.7683-1.8639.5125-.5125 1.1357-.7682 1.8708-.7682.3948 0 .7631.0801 1.105.2422.3274.1612.6489.4229.9652.7845l-.5431.5198c-.4144-.5517-.9192-.8279-1.5143-.8279-.5338 0-.9814.185-1.3438.5534-.3615.3615-.5423.8151-.5423 1.36 0 .5628.2012 1.0258.6045 1.3898.3769.3377.7862.5065 1.2261.5065.3752 0 .712-.1262 1.0104-.3794.2984-.255.4656-.5602.5005-.9149h-1.2594v-.7163z" fill="#e57c9f"/><path d="m71.3249 82.8275h2.1777v-1.9748h.7623v5.0486h-.7623v-2.3576h-2.1777v2.3576h-.7623v-5.0486h.7623z" fill="#e57c9f"/><path d="m76.2363 80.8527v5.0486h-.7623v-5.0486z" fill="#e57c9f"/><path d="m78.2119 83.8507v2.0507h-.7623v-5.0486h.8637c.4229 0 .7418.029.9584.0878.2174.0588.4093.1705.5747.3342.2899.2831.4357.6404.4357 1.0718 0 .4621-.1552.8288-.4647 1.0991s-.7273.405-1.2526.405zm0-.706h.2848c.6992 0 1.0496-.2694 1.0496-.8075 0-.521-.3607-.7819-1.0829-.7819h-.2515z" fill="#e57c9f"/><path d="m81.8281 83.8507v2.0507h-.7623v-5.0486h.8637c.4229 0 .7418.029.9584.0878.2174.0588.4093.1705.5747.3342.2899.2831.4357.6404.4357 1.0718 0 .4621-.1552.8288-.4647 1.0991s-.7273.405-1.2526.405zm0-.706h.2848c.6992 0 1.0496-.2694 1.0496-.8075 0-.521-.3607-.7819-1.0829-.7819h-.2515z" fill="#e57c9f"/><path d="m84.4313 83.3545c0-.7111.2609-1.3216.7819-1.8315.5184-.5099 1.1417-.7648 1.8699-.7648.7197 0 1.337.2567 1.8511.7717.5167.5142.7751 1.1323.7751 1.8537 0 .7256-.2592 1.3421-.7785 1.8477-.521.5082-1.1503.7614-1.887.7614-.6514 0-1.2372-.2251-1.7556-.6762-.5713-.4997-.8569-1.1537-.8569-1.962zm.7682.0093c0 .5585.1876 1.0172.5628 1.3771.3726.359.8032.5389 1.2918.5389.5295 0 .9763-.1825 1.3404-.5491.3641-.3709.5466-.822.5466-1.354 0-.538-.1799-.9891-.5397-1.3532-.3581-.3667-.7998-.55-1.3276-.55-.5252 0-.9695.1833-1.331.55-.3617.3615-.5433.8083-.5433 1.3403z" fill="#e57c9f"/><path d="m35.5739 90.4689-.2778.165c-.0522-.0908-.1016-.1494-.1489-.1768-.0488-.0313-.1123-.0469-.1895-.0469-.0952 0-.1743.0264-.2373.0811-.0625.0527-.0938.1191-.0938.2002 0 .1104.082.2002.2471.2676l.2266.0928c.1846.0742.3193.165.4048.2725.085.1074.1279.2393.1279.3955 0 .209-.0698.3818-.209.5176-.1401.1377-.3145.2061-.5225.2061-.1973 0-.3599-.0586-.4883-.1748-.127-.1172-.2056-.2813-.2373-.4932l.3477-.0762c.0156.1328.043.2256.082.2764.0708.0977.1738.1475.3091.1475.1069 0 .1958-.0361.2666-.1074.0703-.0723.106-.1631.106-.2725 0-.0439-.0063-.085-.0186-.1211-.0122-.0371-.0313-.0713-.0571-.1016-.0264-.0313-.0601-.0605-.1011-.0869-.041-.0273-.0903-.0527-.147-.0771l-.2192-.0918c-.311-.1309-.4668-.3232-.4668-.5762 0-.1709.0654-.3135.1958-.4287s.293-.1738.4873-.1738c.2617-.0001.4663.1278.6133.3827z" fill="#e57c9f"/><path d="m37.381 91.8507h-.9727l-.2529.5518h-.3696l1.124-2.415 1.0845 2.415h-.375zm-.1396-.3222-.3374-.7725-.353.7725z" fill="#e57c9f"/><path d="m38.9054 90.4533v1.9492h-.3428v-1.9492h-.5225v-.3223h1.3862v.3223z" fill="#e57c9f"/><path d="m40.0754 90.131v1.3682c0 .1953.0317.3379.0957.4277.0947.1309.229.1963.4014.1963.1738 0 .3081-.0654.4033-.1963.064-.0869.0957-.2295.0957-.4277v-1.3682h.3428v1.4619c0 .2393-.0747.4365-.2236.5918-.168.1729-.3735.2588-.6182.2588-.2441 0-.4497-.0859-.6162-.2588-.1494-.1553-.2236-.3525-.2236-.5918v-1.4619z" fill="#e57c9f"/><path d="m42.7287 91.4347.7031.9678h-.4194l-.6489-.9297h-.0615v.9297h-.3428v-2.2715h.4014c.3003 0 .5171.0557.6504.1689.1475.125.2207.291.2207.4971 0 .1611-.0459.2988-.1382.415s-.2139.1895-.3648.2227zm-.4268-.2607h.1089c.3247 0 .4868-.124.4868-.3721 0-.2324-.1577-.3486-.4736-.3486h-.1221z" fill="#e57c9f"/><path d="m43.7731 92.4025v-2.2715h.4766c.2285 0 .4092.0225.5415.0674.1421.0439.271.1191.3867.2246.2349.2139.3521.4951.3521.8438s-.1221.6318-.3667.8477c-.1226.1074-.251.1826-.3853.2246-.1255.042-.3037.0635-.5342.0635h-.4707zm.3428-.3223h.1543c.1538 0 .2822-.0166.3843-.0488.1021-.0342.1938-.0889.2764-.1631.1689-.1543.2534-.3545.2534-.6016 0-.249-.0835-.4512-.2505-.6064-.1499-.1387-.3711-.207-.6636-.207h-.1543z" fill="#e57c9f"/><path d="m47.2961 91.8507h-.9727l-.2529.5518h-.3696l1.124-2.415 1.0845 2.415h-.375zm-.1397-.3222-.3374-.7725-.353.7725z" fill="#e57c9f"/><path d="m48.6525 91.4211-.7417-1.29h.3945l.519.9072.521-.9072h.3945l-.7446 1.29v.9814h-.3428v-.9814z" fill="#e57c9f"/><path d="m52.6105 90.2531v.4053c-.1982-.165-.4033-.248-.6152-.248-.2334 0-.4302.084-.5898.251-.1611.167-.2412.3711-.2412.6123 0 .2383.0801.4395.2412.6035.1606.1641.3579.2461.5913.2461.1206 0 .2231-.0195.3076-.0596.0474-.0195.0962-.0459.1465-.0791s.1035-.0732.1597-.1201v.4131c-.1963.1104-.4023.166-.6182.166-.3247 0-.6016-.1133-.8311-.3398-.229-.2285-.3433-.5039-.3433-.8271 0-.2891.0957-.5469.2871-.7734.2354-.2783.54-.417.9141-.417.2036-.0002.4009.0555.5913.1668z" fill="#e57c9f"/><path d="m52.9299 91.256c0-.3193.1177-.5947.3521-.8242.2334-.2295.5137-.3438.8413-.3438.3237 0 .6016.1152.833.3467.2324.2324.3486.5098.3486.835 0 .3262-.1167.6035-.3501.8311-.2344.2285-.5176.3428-.8491.3428-.293 0-.5566-.1016-.79-.3047-.2569-.2247-.3858-.5186-.3858-.8829zm.3461.0049c0 .251.084.457.2529.6191.168.1621.3613.2432.5811.2432.2388 0 .4395-.083.6035-.2471.1636-.167.2456-.3701.2456-.6094 0-.2422-.0811-.4453-.2427-.6094-.1611-.165-.3599-.2471-.5977-.2471-.2363 0-.436.082-.5986.2471-.163.1632-.2441.3643-.2441.6036z" fill="#e57c9f"/><path d="m55.7365 92.4025v-2.2715h.4771c.2285 0 .4082.0225.541.0674.1426.0439.2715.1191.3867.2246.2344.2139.3516.4951.3516.8438s-.1211.6318-.3652.8477c-.123.1074-.252.1826-.3867.2246-.125.042-.3027.0635-.5332.0635h-.4713zm.3423-.3223h.1543c.1543 0 .2832-.0166.3848-.0488.1016-.0342.1934-.0889.2773-.1631.168-.1543.252-.3545.252-.6016 0-.249-.084-.4512-.25-.6064-.1504-.1387-.3711-.207-.6641-.207h-.1543z" fill="#e57c9f"/><path d="m58.2673 90.131v2.2715h-.3428v-2.2715z" fill="#e57c9f"/><path d="m58.8132 92.4025v-2.4268l1.6563 1.7334v-1.5781h.3428v2.4102l-1.6563-1.7295v1.5908z" fill="#e57c9f"/><path d="m62.5251 91.2199h.9385v.0742c0 .1709-.0195.3223-.0596.4531-.04.1221-.1055.2363-.1992.3418-.2109.2373-.4785.3564-.8047.3564-.3174 0-.5898-.1152-.8164-.3447-.2266-.2305-.3398-.5068-.3398-.8301 0-.3291.1152-.6094.3457-.8389.2305-.2305.5107-.3457.8418-.3457.1777 0 .3428.0371.4971.1094.1475.0723.292.1904.4336.3525l-.2441.2344c-.1855-.248-.4131-.3721-.6807-.3721-.2402 0-.4424.083-.6055.248-.1621.1631-.2441.3672-.2441.6123 0 .2529.0908.4619.2725.626.1699.1514.3535.2275.5518.2275.1689 0 .3203-.0566.4551-.1709.1338-.1143.209-.252.2246-.4111h-.5664v-.3221z" fill="#e57c9f"/><path d="m66.11 90.4689-.2783.165c-.0518-.0908-.1016-.1494-.1484-.1768-.0488-.0313-.1123-.0469-.1895-.0469-.0957 0-.1738.0264-.2373.0811-.0625.0527-.0938.1191-.0938.2002 0 .1104.082.2002.2471.2676l.2266.0928c.1846.0742.3193.165.4043.2725.0859.1074.1279.2393.1279.3955 0 .209-.0693.3818-.209.5176-.1396.1377-.3135.2061-.5215.2061-.1973 0-.3604-.0586-.4893-.1748-.126-.1172-.2051-.2813-.2363-.4932l.3467-.0762c.0156.1328.0439.2256.083.2764.0703.0977.1738.1475.3086.1475.1074 0 .1963-.0361.2666-.1074.0703-.0723.1055-.1631.1055-.2725 0-.0439-.0059-.085-.0176-.1211-.0127-.0371-.0322-.0713-.0576-.1016-.0264-.0313-.0596-.0605-.1006-.0869-.042-.0273-.0908-.0527-.1475-.0771l-.2197-.0918c-.3105-.1309-.4658-.3232-.4658-.5762 0-.1709.0645-.3135.1953-.4287s.293-.1738.4873-.1738c.2618-.0001.4659.1278.6133.3827z" fill="#e57c9f"/><path d="m67.9167 91.8507h-.9727l-.2529.5518h-.3691l1.124-2.415 1.085 2.415h-.375zm-.1397-.3222-.3369-.7725-.3525.7725z" fill="#e57c9f"/><path d="m69.1569 90.131v1.9492h.668v.3223h-1.0107v-2.2715z" fill="#e57c9f"/><path d="m70.0378 91.256c0-.3193.1172-.5947.3516-.8242.2334-.2295.5137-.3438.8418-.3438.3232 0 .6006.1152.833.3467.2324.2324.3486.5098.3486.835 0 .3262-.1172.6035-.3506.8311-.2344.2285-.5176.3428-.8486.3428-.2939 0-.5566-.1016-.79-.3047-.2579-.2247-.3858-.5186-.3858-.8829zm.3457.0049c0 .251.084.457.2529.6191.168.1621.3613.2432.5811.2432.2383 0 .4395-.083.6035-.2471.1641-.167.2461-.3701.2461-.6094 0-.2422-.0811-.4453-.2432-.6094-.1611-.165-.3604-.2471-.5977-.2471-.2363 0-.4355.082-.5986.2471-.1631.1632-.2441.3643-.2441.6036z" fill="#e57c9f"/><path d="m72.7301 91.256c0-.3193.1172-.5947.3516-.8242.2334-.2295.5137-.3438.8418-.3438.3232 0 .6006.1152.833.3467.2324.2324.3486.5098.3486.835 0 .3262-.1172.6035-.3506.8311-.2344.2285-.5176.3428-.8486.3428-.2939 0-.5566-.1016-.79-.3047-.2578-.2247-.3858-.5186-.3858-.8829zm.3457.0049c0 .251.084.457.2529.6191.168.1621.3613.2432.5811.2432.2383 0 .4395-.083.6035-.2471.1641-.167.2461-.3701.2461-.6094 0-.2422-.0811-.4453-.2432-.6094-.1611-.165-.3604-.2471-.5977-.2471-.2363 0-.4355.082-.5986.2471-.163.1632-.2441.3643-.2441.6036z" fill="#e57c9f"/><path d="m75.5358 92.4025v-2.4268l1.6563 1.7334v-1.5781h.3428v2.4102l-1.6563-1.7295v1.5908z" fill="#e57c9f"/><path d="m82.5729 88.2917h-53.8125c-.2234 0-.4063-.1828-.4063-.4063 0-.2234.1828-.4063.4063-.4063h53.8125c.2234 0 .4063.1828.4063.4063 0 .2235-.1828.4063-.4063.4063z" fill="#e57c9f"/></svg>