<svg xmlns="http://www.w3.org/2000/svg" width="110.979" height="128.417" viewBox="0 0 110.979 128.417"><path fill="#2F2A5B" d="M110.979 96.171L55.48 128.229-.02 96.171V32.056L55.48 0l55.499 32.056z"/><path fill="#FFF" d="M101.923 38.139v53.14l-.01.01-.45.26c-.01.011-.01.011-.021.011l-.159.091-.79.449-6.28 3.62-2.72 1.569-.24.131-.13.05-.11.069-2.779 1.601-.25.141-.271.16-.63.358-.67.381-.301.17-.04.029-1.63.94-.279.159-1 .58-.341.199-.869.521-1.381.79-1.46.851-.181.09-.02.021-1.71.979-.96.561-4.62 2.67-.38.221-.25.14-.062.03-1.54.899-.239.13-.38.221-1.341.779-.449.26-.899.521-.431.25-1.149.659-1.11.641-.01.011-.43.25-1.45.84-.11.061-1.818 1.051-.65.369-1.35.779-.972.561-.729.42-3.05-1.76-.65-.38-1.811-1.04-.13-.08-1.689-.971-.24-.141-.04-.029-1.01-.58-.101-.061-.96-.55-.05-.03-.49-.279-.869-.51-1.301-.75-.5-.291-.6-.35-1.55-.9-.3-.17-.391-.22-5.09-2.95-.39-.22-.49-.28-.33-.199-1.85-1.061-.57-.33-.57-.33-1.14-.66-.16-.09-1.24-.72-.43-.25-.26-.149-.42-.25-.17-.101-1.94-1.11-.16-.09-.64-.369-.09-.051-.4-.23-3.45-2-.819-.469-.78-.451-.22-.129-1.11-.65-7.5-4.319v-53.14l12.93-7.46.29-.17.87-.5.24-.14 1.99-1.16 4.93-2.83 1.58-.92.17-.09 1.66-.95 1.16-.67 1.54-.91.52-.3 2.28-1.3.689-.41 1.46-.83 5.721-3.3.46-.27 6.069-3.51 1.44-.83 1.061.62 6.489 3.75 13.62 7.86.45.26.04.02.359.21.061.03 1.04.61 1.899 1.08.399.23.87.5 1.521.88 1.369.79.03.02.521.3.25.14.091.06.699.4 1.109.64 3.78 2.18.04.03v.01l.26.14.66.39 1.46.84 1.939 1.12.779.44.44.25 1.938 1.12 2.829 1.626z"/><path opacity=".13" d="M9.826 38.141v53.121l46.071 26.559 46.074-26.559V38.141L55.898 11.58 9.826 38.141zm90.281 1.08v50.971l-44.209 25.489-44.211-25.489V39.221l44.211-25.489 44.209 25.489z"/><path fill="#DEDBED" d="M102.064 72.08a1.506 1.506 0 0 0-.141-.102V38.139l-2.82-1.63-1.938-1.12-.44-.25-.779-.44-1.939-1.12-1.46-.84-.66-.39-.26-.14v-.01l-.04-.03-3.78-2.18-1.109-.64-.699-.4-.091-.06-.25-.14-.521-.3-.03-.02-1.369-.79-1.521-.88-.87-.5-.399-.23-1.899-1.08-1.04-.61-.061-.03-.359-.21-.04-.02-.45-.26-13.62-7.86-6.489-3.75-1.061-.62-1.44.83-6.069 3.51-.46.27-5.721 3.3-1.46.83-.689.41-2.28 1.3-.52.3-1.54.91-1.16.67-1.66.95-.17.09-1.58.92-4.93 2.83-1.99 1.16-.24.14-.87.5-.29.17-12.93 7.46v53.14l7.5 4.319 1.11.649.22.131.78.449.819.471 3.45 2-.021.058a8.479 8.479 0 0 1 3.149 1.485c.721.365 1.36.818 1.902 1.359l.719.418.16.09 1.14.66.57.329.57.33 1.85 1.06.33.201.49.279.39.221 5.09 2.949.391.221.3.17 1.55.899.6.351.5.289 1.301.75.869.511.49.28.05.029.96.551.101.06 1.01.58.04.03.24.14 1.689.971.131.08 1.81 1.04.65.38 3.05 1.761.729-.42.972-.562 1.35-.779.65-.37 1.818-1.05.11-.062 1.45-.84.43-.25.01-.01 1.11-.641 1.149-.659.431-.25.899-.521.449-.261 1.341-.78.38-.22c.54-.05 1.091-.101 1.631-.13-.46-.011-.932-.011-1.392 0l1.54-.9.062-.029.25-.141.38-.22 4.62-2.67.96-.562 1.71-.979.02-.021.182-.09 1.46-.85 1.38-.79.87-.521.34-.2 1-.58.279-.159 1.631-.939.039-.03.301-.17.67-.38.63-.359.271-.16.25-.141 2.779-1.6.11-.07.13-.051.24-.129 2.72-1.57 6.28-3.62.79-.449.159-.091c.011 0 .011 0 .021-.01.017-.002.031-.008.048-.01a8.55 8.55 0 0 1 .412-.719V72.189h.09l.312.029c0-.01.01-.021.02-.029 0-.029.021-.061.04-.08a1.663 1.663 0 0 0-.329-.029z"/><path fill="#F5F5FA" d="M101.923 39.238v6.1c-.45-2-.46-4.1 0-6.1zm-32.53 70.791l-.239.131a40.7 40.7 0 0 1 1.631-.131 29.363 29.363 0 0 0-1.392 0zm-4.079.349c.199.09.431.129.689.1.311-.039.62-.068.939-.1h-1.628zm-22.331 0l.5.289c.63 0 1.25 0 1.87.011 1.33.03 2.66.05 3.99.05.41.011.72-.13.94-.35h-7.3zm26.41-.349l-.239.131a40.7 40.7 0 0 1 1.631-.131 29.363 29.363 0 0 0-1.392 0zm-4.079.349c.199.09.431.129.689.1.311-.039.62-.068.939-.1h-1.628zm-22.331 0l.5.289c.63 0 1.25 0 1.87.011 1.33.03 2.66.05 3.99.05.41.011.72-.13.94-.35h-7.3zm26.41-.349l-.239.131a40.7 40.7 0 0 1 1.631-.131 29.363 29.363 0 0 0-1.392 0zm-4.079.349c.199.09.431.129.689.1.311-.039.62-.068.939-.1h-1.628zm-22.331 0l.5.289c.63 0 1.25 0 1.87.011 1.33.03 2.66.05 3.99.05.41.011.72-.13.94-.35h-7.3zm44.66-11.128c-.25.049-.5.1-.75.14-.239.051-.47.09-.699.13-.721.131-1.439.261-2.159.381h-.011c-.101.02-.189.029-.29.051-.381.068-.761.129-1.141.188-2.5.409-5.01.771-7.529 1.08-12.5 1.55-25.13 1.96-37.701 1.221a183.56 183.56 0 0 1-8.979-.739 8.447 8.447 0 0 1-.5-.051l.43.25 1.24.721.16.09 1.14.66.57.33.57.329 1.85 1.06.33.201.49.279.39.221 5.09 2.949.391.221.3.17 1.55.899.6.351.5.289c.63 0 1.25 0 1.87.011 1.33.03 2.66.05 3.99.05.41.012.72-.13.94-.35a1.06 1.06 0 0 0 .25-.36c.09-.188.13-.409.119-.619 2.061.149 4.091.069 6.11-.141.09.311.271.59.562.75.21.12.479.19.81.159.65-.049 1.29-.09 1.94-.159 1.5-.109 3.01-.25 4.51-.41.06.149.149.301.26.42.12.16.28.28.471.36.199.09.431.13.689.1.311-.039.62-.068.939-.1.729-.08 1.471-.16 2.21-.221.54-.05 1.091-.101 1.631-.13-.46-.011-.932-.011-1.392 0l1.54-.899.062-.03.25-.14.38-.221 4.62-2.67.96-.561 1.71-.979.02-.021.181-.09 1.461-.851 1.38-.79.87-.521.34-.199 1-.58.279-.159 1.631-.94.039-.029.301-.17.67-.381.63-.358.271-.16.25-.141c-.205.037-.406.077-.596.109zm-35.47 16.439l.649.38 3.051 1.761.729-.42.971-.562 1.351-.779.649-.37c-2.47 0-4.929 0-7.4-.01zm-9.19-5.311l.5.289c.63 0 1.25 0 1.87.011 1.33.03 2.66.05 3.99.05.41.011.72-.13.94-.35h-7.3zm22.331 0c.199.09.431.129.689.1.311-.039.62-.068.939-.1h-1.628zm4.079-.349l-.239.131a40.7 40.7 0 0 1 1.631-.131 29.363 29.363 0 0 0-1.392 0zm-26.41.349l.5.289c.63 0 1.25 0 1.87.011 1.33.03 2.66.05 3.99.05.41.011.72-.13.94-.35h-7.3zm22.331 0c.199.09.431.129.689.1.311-.039.62-.068.939-.1h-1.628zm4.079-.349l-.239.131a40.7 40.7 0 0 1 1.631-.131 29.363 29.363 0 0 0-1.392 0zm-26.41.349l.5.289c.63 0 1.25 0 1.87.011 1.33.03 2.66.05 3.99.05.41.011.72-.13.94-.35h-7.3zm22.331 0c.199.09.431.129.689.1.311-.039.62-.068.939-.1h-1.628zm4.079-.349l-.239.131a40.7 40.7 0 0 1 1.631-.131 29.363 29.363 0 0 0-1.392 0z"/><path fill="none" d="M9.923 82.348c1.03.221 2.03.521 3.02.88.771.24 1.511.54 2.24.9.48.24.7.609.73.99.01.039.01.069.01.108l.149.03c.091.021.19.029.301.039.59.051 1.239.4 1.37 1.051.06.311.119.619.189.939.98 1.291 1.521 2.86 1.22 4.5.04.229.011.439-.06.641a6.517 6.517 0 0 1 .14 1.689c.08.24.08.51-.04.811l-.06.181c-.08.431-.21.858-.38 1.271"/><path fill="#FFF" d="M85.133 28.449l-.03-.02-1.369-.79-1.521-.88-.87-.5-.399-.23-1.899-1.08-1.04-.61-.061-.03-.359-.21c-.07.15-.11.31-.12.49 0 .05 0 .1-.01.15-.011.25.069.51.21.73.01.02.029.04.05.07.04.08.101.15.16.21.06.09.109.16.2.24 0 0 0 .01.01.02 0 .01.01.02.02.03.08.09.16.18.261.26-.069.05-.13.1-.189.17-.01 0-.021.01-.03.04-.68.74-.449 2.22.722 2.36.09.02.18.02.27.02.08 0 .16-.01.24-.01.17-.01.35-.01.52-.02 1.921-.06 3.841-.1 5.761-.11l-.527-.3z"/><path fill="#EEEDF6" d="M80.963 28.449c-.29.25-.68.41-1.07.41-.199 0-.398-.04-.579-.13a1.528 1.528 0 0 1-.301-.18c-.01-.01-.01-.02-.01-.02l-.01-.01s-.011 0-.021-.01l-.109-.11c-.029-.03-.05-.07-.069-.1a.55.55 0 0 1-.07-.09c-.33-.52-.52-1.09-.58-1.7-.02-.11-.029-.23-.029-.35v-.01c-.011-.03-.011-.07-.011-.11v-.18c-.02-.01-.039-.03-.06-.04-.12-.08-.24-.17-.33-.28-.021-.03-.04-.05-.05-.07-.221-.3-.32-.69-.19-1.16.021-.08.04-.16.07-.23l.04.02.359.21.061.03 1.04.61 1.899 1.08c.021.27.101.52.239.74.421.649.232 1.29-.219 1.68z"/><path fill="#63BF8B" d="M86.893 99.388a35.53 35.53 0 0 0-.909-1.85c-.051-.201-.091-.4-.131-.601.08-.24.08-.511-.02-.819-.07-.181-.13-.361-.2-.551-.021-.12-.06-.24-.12-.341a94.203 94.203 0 0 0-1.51-4.09c.24-.3.33-.699.14-1.189-.72-1.851-1.438-3.71-2.159-5.561a1.418 1.418 0 0 0-.739-.81v-.021c-1.28-3.58-2.631-7.02-3.07-10.819-.189-1.69-.729-2.95-1.55-4.409-.79-1.391-.67-3.021-1.391-4.471a1.475 1.475 0 0 0-.229-.34c.021-.12 0-.25-.08-.35-.05-.09-.1-.17-.16-.24a.326.326 0 0 0-.27-.2c-.011-.03-.021-.05-.03-.08.01-.03.03-.06.03-.1.09-.44-.051-.85-.41-1.09-.061-.23-.12-.45-.2-.66v-.06c0-.5-.03-1.08-.34-1.44-.01-.08-.03-.17-.07-.27a.477.477 0 0 0-.608-.29c-.012 0-.012.01-.021.01a.185.185 0 0 1-.02-.07c.01 0 .01-.01.02-.01.2-.14.32-.4.19-.69-.28-.63.01-1.33-.24-1.96-.229-.58-.67-.66-1.03-1.02-.09-.09-.16-.18-.21-.27l-.01-.01a1.41 1.41 0 0 1-.229-.71v-.02c-.04-.34-.029-.71-.101-1.1-.04-.26-.101-.51-.18-.76v-.01c.188-1.34-.591-2.68-1.04-3.93-.36-1.02-.761-2.02-1.16-3.03.22-.51.1-1.05.01-1.61-.13-.78-.319-1.54-.45-2.32-.079-.42-.5-.49-.8-.32-.01 0-.02 0-.029.01-.051-.21-.101-.42-.16-.63 0-.01.011-.02.011-.03.319-.71-.17-1.24-.45-1.93-.16-.39-.09-.81-.21-1.2-.07-.23-.2-.41-.34-.58.01-.02.04-.05.05-.07.11-.2.08-.39.01-.59a.378.378 0 0 0-.068-.12.462.462 0 0 0-.381-.24h-.021a.526.526 0 0 0-.16-.2.616.616 0 0 0-.91.17s0 .01-.01.01c-.04.08-.07.16-.09.24-.03.16 0 .33.069.48 0 .01 0 .03.011.04.01.05.04.08.08.12a.534.534 0 0 0-.051.129h-.002c-.02-.01-.038-.01-.059-.02-.01 0-.021-.01-.03-.01a1.079 1.079 0 0 0-.25-.11 1.46 1.46 0 0 0-.229-.05l-.34-.06c-.49-.07-.98 0-1.471.01a.773.773 0 0 0-.271.05c-1.87-.09-3.75-.01-5.62-.01-1.79.01-3.7-.19-5.48.05a.358.358 0 0 0-.18-.02 1.93 1.93 0 0 0-.34 0c-.11.01-.23.01-.34.02-.03.01-.07.01-.101.021-.3-.07-.6-.12-.909-.12h-.051c-.149.01-.27.04-.399.08a.82.82 0 0 1 .069-.12c.04-.11.08-.23.091-.39a.428.428 0 0 0-.07-.3.372.372 0 0 0-.2-.19c-.05-.02-.12-.03-.18-.04-.2-.28-.58-.42-.92-.24a.811.811 0 0 0-.311.28c-.029.05-.06.09-.09.14-.28.47-.39.97-.49 1.52-.04.19.03.36.13.49-.189.31-.369.59-.439.73-.24.61-.26 1.27-.61 1.84-.43.7-1.529 1.49-1.2 2.45.061.19.171.34.301.45-.04.16-.07.31-.12.46-.05.16-.09.32-.141.49-.26.23-.52.45-.68.85-.189.49-.21.98-.1 1.48-.221.07-.4.28-.351.6.24 1.75-1.42 3.23-1.27 5.02 0 .08.02.16.05.23a50.564 50.564 0 0 0-1.111 2.21c-.239.35-.46.7-.63 1.09-.26.58-.43 1.19-.62 1.79-.17.42-.34.84-.489 1.27-.141.36.06.67.35.82-.06.18-.13.36-.19.54-.25.08-.47.27-.569.55a621.09 621.09 0 0 1-2.86 7.5c-.149.37-.3.75-.43 1.14a.762.762 0 0 0 .01.58c-.74 1.591-1.32 3.271-2.12 4.852-.479.939-1.02 1.85-1.31 2.891-.3 1.09-.4 2.26-.561 3.379-.6 1.131-1.04 2.36-1.51 3.541-.59 1.5-1.34 3.159-1.56 4.76-.61 1.32-1.24 2.66-1.75 4.021-.04.091-.08.181-.101.279-.189.53-.38 1.062-.529 1.591a.8.8 0 0 0 .01.489c-.11.239-.21.489-.3.739-.434 1.237-.892 2.457-1.125 3.75.88.33 1.646.795 2.299 1.367.132.066.272.123.397.198l.188-.444c.87-2.101 1.59-4.16 1.479-6.451.16-.239.25-.529.261-.819.039-.101.09-.199.14-.3.16.221.39.4.7.471.08.02.149.029.229.04.09.028.19.039.28.05.09.029.17.04.26.051h.01c.16.029.311.049.46.06a.722.722 0 0 0 .15.021c1.63.17 3.29.061 4.92.01 2.08-.069 4.15-.09 6.24-.09h12.76c4.15 0 8.311-.01 12.47-.01.649 0 1.301 0 1.949.01 3.16.03 6.33.11 9.48 0 .18 0 .37-.01.55-.021.2-.011.399-.011.601-.029.159 0 .311-.011.471-.021.02 0 .029 0 .05-.01.271-.021.49-.11.67-.23.33.87.64 1.75.939 2.631l.061.33c-.2.369-.229.818.03 1.3.14.25.279.5.409.761.101.399.21.799.33 1.199.13.51.279 1.021.431 1.529l.279-.159 1.631-.94.039-.029.301-.17.67-.381c-.059-.142-.129-.284-.19-.414zm-38.89-61.36c.149-.26.24-.52.31-.77.01 0 .01.01.021.01.02.02.05.04.08.06.109.06.21.11.31.16h.01c.04.02.08.04.13.05h.011c.14.06.27.09.449.09.271 0 .521-.03.78-.09.95.27 2.08.14 3.05.16 1.23.03 2.46 0 3.69.03 1.13.03 2.271.04 3.41.06.16 0 .319.01.479.01.29.01.569.02.851 0 .38-.01.75-.06 1.1-.17.45.01.9.06 1.352 0 .229-.04.46-.07.659-.14h.011c.02-.02.05-.03.069-.04a.28.28 0 0 0 .079-.04c0 .03.011.05.011.08h.011c0 .1.029.21.06.31l-.01.01s0 .01.01.01c.021.09.04.17.08.26.03.12.07.23.11.35.02.03.029.07.04.1-.062-.02-.13-.03-.19-.04a1.31 1.31 0 0 0-.27-.06c-1.021-.19-2.11-.08-3.12-.08-1.57-.01-3.15-.07-4.73-.06-1.479.02-2.959.04-4.45.05-1.239 0-2.54-.1-3.79.05-.1.01-.21.02-.31.04l-.22.03c-.46.09-.51.76-.17.99.029.021.06.03.1.04.01-.01.01 0 .01 0 .021.01.04.02.061.02h.02l.17.03c.011.01.03.01.04.01h.021c1.25.19 2.529.09 3.79.09 1.58 0 3.149.03 4.729.04 1.48.01 2.972-.05 4.45-.05 1.221 0 2.57.15 3.771-.16.05-.01.1-.021.14-.04.061-.01.11-.03.16-.05.04 0 .069-.02.109-.03.011.04.029.08.04.12.021.06.04.13.061.189.02.05.029.1.05.15v.02c.061.16.11.32.15.48.01.02.02.04.02.06.03.09.062.18.08.28v.01l.01.01c.011.04.021.07.03.11l-.37-.06c-.13-.02-.26-.04-.39-.05-1.021-.1-2.051-.04-3.07-.04-1.689 0-3.37-.01-5.06-.01-1.591 0-3.19-.01-4.78-.01-.76 0-1.54-.03-2.311-.02-.229-.02-.47-.01-.729.01-.37.01-.79-.03-1.15.07-.05.01-.09.02-.13.04-.02 0-.04.01-.06.02a.573.573 0 0 0-.28-.08l.03-.09v-.01c.02-.07.029-.13.05-.19.05-.17.09-.32.13-.46.08-.29-.06-.54-.26-.68.116-.408.236-.808.455-1.189zm-1.35 4.62c.25-.32.46-.73.631-1.15.039.12.119.22.239.29.021.01.05.02.08.03l.01.01h.011c.029.01.069.02.1.02.08.02.15.04.23.05.01.01.02.01.029.01 1.311.26 2.66.17 3.99.17 1.69 0 3.37-.01 5.061-.01 1.59 0 3.188-.01 4.779-.01 1.34 0 2.721.1 4.039-.14.021 0 .03 0 .04-.01.021 0 .04 0 .051-.01.08-.01.149-.02.221-.04.01 0 .029-.01.04-.01.02.08.05.17.069.26v.01c.011.01.011.01.011.02.079.26.148.54.239.81.011.03.021.07.029.1.021.07.04.13.061.19a1.85 1.85 0 0 0-.489-.21c-.351-.08-.721-.04-1.21-.01-.94.05-1.86 0-2.801 0-1.96 0-3.92-.04-5.88-.06-1.859-.01-3.729.03-5.59.08-.71.02-1.56-.09-2.37-.09-.34 0-.68.021-1 .09-.22.03-.43.09-.63.19a.95.95 0 0 0-.21.09c.09-.219.171-.449.22-.67zm-.549 1.551h.01c.131.11.261.2.41.271.08.04.17.08.261.11.02.01.04.02.06.02.06.02.1.04.15.05h.01c1.04.28 2.32.02 3.359.04 1.961.04 3.921.1 5.871.09 1.869-.02 3.729-.09 5.601-.07 1 .01 1.97-.08 2.97 0 .69.05 1.15.11 1.66-.13.01 0 .021-.01.03-.02.119-.05.239-.13.369-.23a.304.304 0 0 0 .08-.08c.011.03.021.06.029.09.03.08.051.16.08.24 0 .01.011.01.011.01v.01c.039.13.079.26.13.39v.02c.131.38.261.77.391 1.15h.01c.03.11.07.21.11.32.01.04.02.07.04.11.04.11.08.23.108.34a.684.684 0 0 0-.238-.33.894.894 0 0 0-.25-.16h-.012c-.09-.03-.18-.06-.289-.07-.04-.01-.091-.01-.131-.01-1.79-.2-3.659-.06-5.47-.06-1.86 0-3.729-.03-5.59-.01-1.78.02-3.54.18-5.33.17-1.33 0-2.9-.26-4.24.11l-.12.03c-.18.06-.359.13-.53.21.061-.12.11-.23.171-.35v-.01c0-.01.01-.02.01-.03.029-.06.04-.13.04-.18-.011-.01 0-.01 0-.01a.43.43 0 0 0-.36-.41c.218-.542.408-1.082.589-1.621zm-3.511 10.639c.24-.35.5-.7.75-1.06.31-.45.6-.91.81-1.42.15.03.311.04.46-.01.03 0 .061-.01.091-.02.1-.04.189-.09.26-.15.02-.02.04-.03.06-.05.03 0 .061-.01.08-.02.181-.04.271-.27.17-.41-.01 0-.01-.01-.01-.01v-.05c.11.03.22.05.33.06 1.45.271 3.13.05 4.55.06 1.891.01 3.771.02 5.66.05 1.79.02 3.58-.01 5.37-.02 1.101-.01 2.24.1 3.34-.01.16.18.4.3.721.3.109 0 .221 0 .319-.01.46 0 .931 0 1.391-.03.261-.01.511-.06.739-.12.21 0 .45-.04.66-.13l.12-.06c.021-.01.04-.02.05-.03.15-.09.271-.22.33-.38.03-.07.04-.15.04-.23.01-.01.01-.03.01-.04v-.01c0-.06-.01-.1-.02-.15v-.01a.691.691 0 0 0-.13-.27c0-.01-.011-.01-.011-.01-.141-.18-.351-.29-.569-.36-.09-.03-.17-.05-.261-.06h-.011c-.079-.01-.159-.01-.229-.01-.23-.06-.46-.1-.721-.11-.46-.03-.92-.03-1.38-.04-1.33-.34-2.739-.18-4.109-.18-1.891 0-3.771-.04-5.65-.02-1.79.02-3.59.04-5.37.05-1.59.01-3.52-.26-5.1.1-.16.04-.32.08-.471.13-.1.03-.189.08-.26.13-.01-.12-.029-.25-.069-.38-.011-.03-.021-.06-.04-.08-.011-.03-.03-.06-.04-.08.01-.08.02-.16.04-.24.279-.68.569-1.34.869-2 .04.08.101.16.19.21.05.03.1.05.15.07.08.04.159.08.239.11.07.02.141.05.21.07.021 0 .04.01.061.02 1.28.37 2.76.13 4.06.12 1.88 0 3.721.15 5.601.17 1.77.03 3.54 0 5.319 0 1.931 0 3.949.16 5.87-.07a.888.888 0 0 0 .289-.08.54.54 0 0 0 .211-.11c.021-.01.039-.03.061-.05a.821.821 0 0 0 .239-.34.557.557 0 0 0 .051-.21s.01-.01 0-.02h.01c0-.06 0-.11-.01-.17v-.01c0-.03-.011-.07-.011-.1.021.04.029.08.051.12v.01c.01.04.02.07.04.11.01.02.01.04.02.06l.03.09v.01c.01.02.021.03.021.04l.119.33c.221.59.41 1.3.642 2 .039.05.06.11.06.17.21.64.46 1.26.8 1.76.062 1.13.511 2.14.92 3.25-.02.02-.028.04-.05.06-.1.07-.17.16-.22.27-.03.06-.04.14-.04.21a.232.232 0 0 0-.061-.11c-.021-.04-.061-.08-.091-.12a1.08 1.08 0 0 0-.25-.14c-.199-.07-.409-.13-.608-.19-.102-.02-.19-.04-.28-.06-1.75-.35-3.75-.07-5.479-.08-2.351 0-4.699-.01-7.051-.01-4.2-.01-8.45-.16-12.648-.03l-.62.03c-.181 0-.36.01-.54.02-.03 0-.061.01-.08.02-.004-.02-.004-.029.006-.04zm-1.159 5.73c.061-.21.11-.42.16-.64.23-1.03.39-2.06.49-3.02a.457.457 0 0 0-.21-.44c.01-.03.02-.06.04-.09.14.21.38.37.75.38.109.01.22.01.33.01h.01c.06.01.109.01.17.01.04 0 .07.01.11 0 .109.01.22.02.329.01.021.01.051.01.07.01 4.24.15 8.54 0 12.79-.01 2.25-.01 4.511-.01 6.771-.02 1.989 0 4.38.38 6.319-.22.061-.02.109-.03.159-.05.062-.02.11-.04.17-.06.011 0 .021-.01.021-.01.17-.06.279-.17.35-.3.051-.08.08-.17.08-.26.01-.01.01-.02 0-.03.01-.03.01-.05.01-.08.012.02.012.05.03.07 0 .01 0 .03.01.04.021.06.04.12.062.18.029.06.05.13.08.2.13.3.279.6.43.9-.3 1.03.2 1.85.811 2.66a.271.271 0 0 0-.04.12l-.011.01c-.01.01-.01.02-.01.03-.03.16-.05.33-.061.5-.021-.01-.039-.021-.069-.03s-.07-.02-.101-.02c-.21-.05-.42-.1-.641-.13-2.229-.39-4.67-.1-6.91-.11-2.64-.01-5.29 0-7.93.01-2.64 0-5.28.01-7.92.02-1.851.01-4.28-.38-6.13.27-.08.03-.15.06-.23.09-.11.04-.22.09-.33.15.01-.05.03-.099.041-.15zm-2.56 5.631c.21-.42.41-.84.609-1.271.25-.52.561-.979.851-1.5.17-.3.319-.61.46-.94l.18-.45c.13.09.26.16.39.23.051.03.101.05.15.07.09.05.17.09.26.12 1.88.74 4.391.32 6.311.32l7.92.03c2.64.01 5.29.02 7.93.01 2.46-.01 5.181.33 7.58-.25.021 0 .051 0 .07-.01.06-.02.12-.04.17-.07.021 0 .05-.01.07-.03.22-.11.369-.3.449-.52.021-.03.029-.07.04-.1.029 0 .061 0 .09-.01h.011c.02 0 .029 0 .04-.01h.01c-.01.03-.01.05-.01.08v.36c.05.21.148.42.25.62.05.08.1.17.159.26.029.18.069.37.12.55a1.4 1.4 0 0 0-.21 1.601c.319.649.449 1.33.59 2.01 0 .05.011.101.021.141.03.17.061.34.101.51-.021 0-.029-.01-.051-.01a4.166 4.166 0 0 0-.35-.07c-.891-.141-1.84-.061-2.74-.061-1.49-.01-2.99-.01-4.49-.01h-9.52c-3.09 0-6.17.01-9.25.039-2.46.021-5.04-.239-7.521-.109-.38.021-.75.051-1.12.091h-.01c-.109.011-.21.029-.32.04.229-.562.479-1.11.76-1.661zm-3.55 11.34c.1-.26.21-.51.319-.771l.181-.449c.52-1.25 1.68-2.96 1.21-4.341.189-.568.34-1.159.449-1.75.091.04.19.061.29.08.15.021.311.04.46.061.011 0 .03.01.04 0 .12.021.23.03.34.041.03.01.051.01.07.01.13.01.25.021.37.029.03 0 .05.01.07 0h.01c2.53.18 5.15-.109 7.66-.08 3.18.03 6.359.051 9.54.041h13.729c1.181 0 2.46.139 3.601-.211.01 0 .029 0 .04-.01.02 0 .029-.011.05-.021.18-.049.359-.119.53-.209.06.109.13.209.188.319.24.41.471.819.62 1.279.25.83.28 1.7.37 2.551.101.899.271 1.779.49 2.659.029.131.069.271.1.4v.021c.021.069.04.149.07.22.01.069.029.131.05.2 0 .011.01.021.01.029-.04-.011-.09-.021-.13-.029-.04-.011-.069-.021-.109-.021-1.13-.25-2.319-.2-3.479-.32-1.76-.18-3.51-.18-5.271-.21-3.659-.05-7.319-.08-10.979-.091-3.561-.01-7.13.041-10.69.051-1.79.011-3.569.021-5.35.029-1.311.011-2.58-.08-3.771.291-.239.069-.479.16-.71.271-.17.08-.34.17-.5.279-.01 0-.02.011-.02.021.052-.119.101-.248.152-.369zm45.639 13.75h-.021c-.149-.01-.301-.021-.449-.021-.171-.011-.352-.021-.521-.011a.758.758 0 0 0-.26-.01h-.01c-.94-.05-1.891-.06-2.841-.06a1.368 1.368 0 0 0-.3 0c-.189-.011-.391-.011-.58-.011-2.5 0-5.011.061-7.5.061-4.261 0-8.511 0-12.76-.011H43.242c-2.08 0-4.16-.011-6.24-.079-1.7-.051-3.45-.182-5.15 0-.3.029-.59.068-.89.13h-.01c-.141.011-.271.04-.41.069.2-.641.35-1.301.42-1.971.83-.879 1.13-2.31 1.51-3.39.34-.96.7-1.909.96-2.891.22-.79.33-1.591.561-2.37.26-.609.51-1.229.77-1.84.03.119.07.24.15.351.069.109.159.2.279.279.141.091.271.171.41.239.09.041.19.091.28.121.26.119.53.199.79.271 1.03.25 2.09.199 3.22.21 1.78 0 3.561.01 5.351.02 3.659.011 7.31.062 10.97.051 3.57-.01 7.13-.029 10.7-.08.31-.01.63-.01.949-.01.261.01.529.01.79-.01.761 0 1.511-.021 2.271-.062 1.47.051 2.92.21 4.37.229.25.01.489.01.739.01.131 0 .25-.029.351-.068.04-.021.07-.04.101-.061a.655.655 0 0 0 .199-.2c.011 0 .011-.011.011-.021 0 0 .011 0 .011-.01.08-.12.13-.28.13-.432l.149.432h.011v.02c.06.19.13.381.199.561.021.061.04.12.061.171 0 .01 0 .021.01.021 0 .01 0 .021.011.029 0 .029.011.051.021.069 0 .021.01.04.021.062.391 1.079.789 2.159 1.181 3.229.148.42.43.689.76.841.41 1.069.82 2.13 1.229 3.199a1.446 1.446 0 0 0-.221.819s.011 0 0 .01c.011.171.051.371.12.551.09.211.181.431.271.641.021.04.029.08.051.12.02.05.04.109.06.16.011 0 .011.01.011.021.011.021.021.039.021.049.08.171.14.33.21.5v.011c.01.021.021.04.03.062h-.078zm-14.88 20.65l.899-.521.449-.26 1.341-.779.264-.152c.101-.064.195-.137.301-.197-1.501-.011-2.992-.021-4.494-.011-1.59-.011-3.18-.011-4.771-.011h-3.26c-2.09 0-4.181 0-6.279.011-2.711 0-5.431 0-8.15.011l.6.35.5.291 1.301.75.869.51c3.721.011 7.44.011 11.161.011l9.269-.003zm-9.549.279c-3.46 0-6.931 0-10.391-.01l.05.029.96.551.101.06 1.01.58.04.03.24.14 1.689.971h6.301c1.659 0 3.31.011 4.97.021l1.45-.84.43-.25.01-.011 1.11-.641 1.149-.659-9.119.029z"/><path fill="#FFF" d="M29.354 42.218c-.01.08-.02.17-.02.25-.021.18-.03.35-.05.53-.011.02-.011.04-.011.05-.02.12-.029.23-.04.35-.109.73-.79 1-1.43.9-.16.27-.44.49-.77.6-.04.01-.091.02-.131.04-.14.24-.35.44-.609.54-.141.05-.3.08-.47.07-.11 0-.211-.02-.33-.05l-.36-.12a2.74 2.74 0 0 0-.41-.09h-14.8v-7.15l12.93-7.46.29-.17c.07.12.13.24.19.36.319.2.56.54.609 1.01l.091.77c.159.55.27 1.07.319 1.54.021.2.03.39.03.57.13.05.24.11.34.2.21.14.37.35.46.58 1.46-.13 2.83.5 3.36 2.01.06.17.069.34.04.5.529.11 1 .51 1.029 1.22.03.55.131 1.09.221 1.63.082.56-.128 1.031-.478 1.32z"/><path fill="#2A2771" d="M26.313 46.088c-.08.2-.27.36-.56.36H9.923v-1.29h15.83c.05 0 .09 0 .13.01.2.04.33.16.41.31.101.181.11.42.02.61z"/><path fill="#2A2771" d="M22.123 36.388c5.447-3.913 10.422 6.554 4.145 8.448-.794.24-.455 1.484.342 1.243 8.188-2.469 1.761-15.758-5.137-10.804-.671.48-.027 1.6.65 1.113z"/><path fill="#2A2771" d="M25.034 34.199c0 .09 0 .17-.011.26a.64.64 0 0 1-.3.5c-.39.26-1.04.09-.99-.5 0-.07.011-.13.011-.2.069-1.33-.28-2.53-.891-3.58l.29-.17.87-.5a7.42 7.42 0 0 1 1.021 4.19z"/><path fill="#FFF" d="M77.23 80.731c-1.26.043-2.386.695-2.854 2.026a1.023 1.023 0 0 0-.045.503c-.529.104-1 .507-1.032 1.217-.025.553-.123 1.087-.213 1.635a1.391 1.391 0 0 0 .476 1.312c.008.086.019.174.026.258.015.174.029.351.048.525a.501.501 0 0 1 .006.051h.002c.016.115.029.229.044.345.104.731.79 1.003 1.422.901.168.277.44.488.771.601.045.015.092.026.137.043.249.448.745.744 1.407.56.125-.035.243-.076.36-.119.137-.037.272-.069.413-.094h2.526c-1.035-3.297-2.829-6.417-3.494-9.764zm24.214 10.827c.011 0 .011 0 .021-.01.107-.012.216-.033.323-.058.056-.079.118-.151.178-.229-.014.002-.028.006-.041.006V72.189h.09l.312.029c0-.01.01-.021.02-.029-.06-.021-.13-.029-.189-.04 0-.011-.011-.011-.011-.011-.028-.02-.05-.04-.079-.061-.051-.039-.091-.07-.141-.101a1.369 1.369 0 0 0-1.561.12c-.109.021-.229.029-.34.051-.101.02-.189.05-.271.09s-.16.09-.22.149c-.04.04-.08.069-.11.11-.29.029-.57.08-.84.159a.812.812 0 0 0-.221.061 3.806 3.806 0 0 0-.88.409c-.449.291-.83.67-1.051 1.15a.858.858 0 0 0-.109.221.322.322 0 0 0-.079.039 2.592 2.592 0 0 0-.392.2c-.289.189-.55.42-.779.67-.17.189-.319.39-.449.609-.011.011-.011.021-.021.03-.02.01-.039.021-.06.029-.03-.061-.07-.119-.101-.18-.221-.381-.46-.761-.721-1.12.221-.521.12-1.159-.52-1.562a9.57 9.57 0 0 0-1.96-.898c-.08-.029-.16-.051-.24-.08a.564.564 0 0 0-.08-.07l-.21-.209a1.26 1.26 0 0 0-1.061-.32 1.2 1.2 0 0 0-.54-.35c-.8-.25-1.59-.23-2.409-.221-.37.01-.65.13-.852.311a5.246 5.246 0 0 0-2.819 1.33c-1.21.239-2.25 1.31-3.05 2.619v.01c.04.16.08.312.13.471.279 1.061.569 2.12.891 3.17.399 1.391.84 2.779 1.319 4.15.149.439.091.819-.09 1.1.511 1.57 1.061 3.131 1.561 4.7.359.44.649.92.88 1.44a.53.53 0 0 1 .05.119h10.48c.13.67.71 1.25 1.56.989 1.491-.454 3.152.267 4.682.086z"/><path fill="#EEEDF6" d="M99.534 72.388c.75-.17 1.55-.239 2.39-.199v2.609a5.694 5.694 0 0 0-5.34 2.51c-.65.971-1.95.609-2.34-.17-.16-.319-.16-.721.119-1.131.029-.039.051-.079.08-.108 0-.011.011-.011.011-.011.17-.26.359-.5.55-.729a8.374 8.374 0 0 1 2.479-2.031c.261-.14.521-.26.79-.359.101-.04.21-.079.311-.109a7.06 7.06 0 0 1 .95-.272zm2.04 16.351c.119-.03.239-.069.35-.11v2.641c-.6.021-1.03-.398-1.18-.898-.22-.633 0-1.404.83-1.633z"/><path fill="#2A2771" d="M80.682 90.364h-3.516c-.831 0-.831 1.289 0 1.289h3.882a20.95 20.95 0 0 0-.366-1.289zm20.762 1.194c.011 0 .011 0 .021-.01.129-.014.255-.051.381-.084.035-.065.064-.135.101-.199l-.021.003v-.899h-17.25c.021.041.04.08.05.12.051.091.102.189.13.29.021.02.03.051.04.069.15.229.23.479.24.739.01.021.01.041.01.062h16.142l.156-.091z"/><path fill="#2A2771" d="M76.65 90.042c-4.844-1.461-2.986-8.023.616-9.147a14.743 14.743 0 0 1-.215-1.317c-4.646 1.354-7.102 9.791-.744 11.709.798.239 1.138-1.005.343-1.245zM95.342 76.74c-.998-8.273-11.425-7.818-15.677-2.633.001.007.005.016.005.021.145.561.293 1.119.441 1.679 3.14-5.185 13.055-6.433 13.94.933.102.816 1.391.825 1.291 0z"/><path fill="#2A2771" d="M101.923 71.978c.05.029.09.061.141.102-.04 0-.091-.011-.141-.011a8.216 8.216 0 0 0-2.17.17c-.49.109-.95.271-1.391.479-.029.021-.061.029-.09.05a5.15 5.15 0 0 0-1.841 1.511c-.08.08-.14.17-.188.26-.25.34-.45.711-.62 1.131a.597.597 0 0 1-.391.369.715.715 0 0 1-.609-.021.734.734 0 0 1-.17-.13c-.12-.141-.17-.33-.08-.561.12-.289.25-.561.399-.82 1.489-2.688 4.271-3.779 7.149-3.68l.002 1.151zM21.054 92.529c-.03 1.551-.29 3.21-.7 4.77l-.819-.469-.78-.451-.22-.129c.279-1.221.5-2.511.55-3.721.14-2.949-.98-5.439-3.01-7.271-.051-.049-.101-.1-.16-.139-.5-.44-1.061-.841-1.66-1.19-1.15-.681-2.72-1.12-4.33-1.29v-2.061c2.07.189 4.1.791 5.58 1.75 3.659 2.38 5.639 5.741 5.549 10.201zm64.94-63.58l.699.4h-7.399c-.03 0-.061 0-.08-.01-.25-.04-.37-.26-.351-.47a.474.474 0 0 1 .149-.32s0-.01.011-.01c.061-.06.159-.09.271-.09h5.84l.521.3.25.14.089.06z"/><path fill="#2A2771" d="M79.374 28.878c.029.16-.03.34-.16.46-.101.09-.229.13-.399.09-.75-.19-1.029-1.15-1.261-1.8-.31-.86-.51-1.86-.529-2.78-.011-.36.021-.7.069-1.03l.45.26.04.02.359.21c-.021.18-.021.36-.011.54.011.32.051.64.11.97.01.05.021.11.029.17 0 0 0 .01.011.02 0 .05.01.09.029.14v.01c.011.1.04.21.061.31.04.17.09.34.141.5.069.26.25.95.479 1.33.021.03.04.07.069.1a.28.28 0 0 0 .13.12l.01.01c.01.01.01.01.021.01s.021.01.029.01a.43.43 0 0 1 .323.33z"/><path fill="#190C3C" d="M47.664 35.068c-.051-.15-.16-.23-.28-.23a.36.36 0 0 0-.11.02c-.13.06-.279.21-.38.49-7.799 21.586-15.258 42.373-23.086 63.94a7.4 7.4 0 0 1 1.25.773c.007.005.017.008.023.014l.014-.037c4.87-13.4 9.71-26.82 14.56-40.221.061-.18.131-.36.19-.54.7-1.92 1.39-3.85 2.09-5.77 2.25-6.19 3.44-11.66 5.681-17.85.01-.04.029-.08.029-.12.059-.199.059-.349.019-.469zm1.1.281c-.02.03-.03.06-.04.09l-.03.1c-.09.26-.17.52-.26.78-.01.02-.02.04-.02.07-6.95 21.15-13.95 42.28-20.94 63.409-.146.442-.294.884-.431 1.326.458.222.884.479 1.271.773.021-.068.04-.13.07-.199l2.31-7.029c.011-.01.011-.01.011-.021.06-.181.12-.351.17-.53.02-.039.04-.09.05-.13l.33-1.021c.09-.25.17-.51.25-.76.02-.03.03-.061.03-.09.069-.211.14-.41.21-.621.04-.119.08-.229.109-.35.061-.171.12-.33.17-.5 1.061-3.23 2.13-6.45 3.181-9.682.06-.159.109-.318.159-.469.04-.121.08-.24.11-.351.05-.131.09-.261.13-.392.08-.229.16-.459.23-.68.02-.061.029-.109.05-.16.08-.229.15-.459.229-.689.07-.21.141-.42.2-.619l.09-.271c.061-.188.131-.379.19-.569.64-1.96 1.28-3.909 1.92-5.859.01-.01.01-.021.01-.021.03-.09.061-.18.09-.271.021-.069.051-.141.07-.2.021-.08.05-.16.07-.229.1-.311.2-.609.3-.91l.24-.721c.06-.18.12-.359.17-.529.04-.101.07-.199.1-.301.05-.148.101-.289.141-.43.47-1.41.93-2.811 1.39-4.21v-.01c.01-.03.02-.06.03-.08.06-.18.12-.36.17-.53l.01-.01c.021-.07.04-.13.06-.19l.15-.45c.021-.06.03-.11.05-.16l.21-.63c.051-.16.101-.31.15-.46l.03-.09c.06-.19.12-.37.18-.55.32-.97.64-1.93.96-2.9v-.01c.03-.08.05-.16.08-.24.02-.07.05-.15.07-.22.08-.23.159-.47.229-.7l.12-.33v-.01l.06-.2c.04-.13.091-.26.131-.39.01-.04.029-.08.04-.12.05-.14.09-.28.14-.42.05-.15.1-.31.149-.46.171-.53.341-1.05.5-1.58l.061-.17v-.021c.01-.02.02-.03.02-.05.021-.08.051-.15.07-.23.01-.02.021-.05.021-.07.01-.04.029-.07.04-.11l.18-.62.149-.48c.03-.12.07-.24.101-.36.03-.09.06-.18.08-.27.029-.07.05-.14.069-.22.141-.47.271-.95.41-1.43v-.01c.04-.13.08-.26.11-.4.01-.02.02-.05.02-.07.051-.16.091-.32.141-.48.029-.11.06-.21.09-.32v-.01l.03-.11c.029-.11.06-.21.09-.32 0-.01.01-.02.01-.03.04-.13.07-.27.11-.41.109-.39.22-.78.319-1.17.011-.01.011-.02.011-.03.04-.12.069-.24.1-.36v-.02c.06-.17.1-.34.15-.52.01-.01.01-.03.01-.05.04-.12.07-.24.1-.36.03-.1.061-.2.08-.3.04-.1.061-.21.09-.31a.268.268 0 0 0 .021-.09c.09-.3.17-.59.25-.89v-.01c.03-.08.05-.14.069-.22 0-.01 0-.01.011-.02.04-.17.09-.34.14-.5l.09-.32c0-.02.01-.03.01-.04.021-.08.051-.16.07-.24 0-.02.01-.03.01-.04.03-.12.07-.24.101-.36.05-.17.1-.33.14-.49h.01v-.01c.021-.09.051-.18.08-.27 0-.01 0-.02.011-.03 0-.02 0-.03.01-.04 0-.03.01-.05.02-.07.03-.13.07-.25.11-.37.03-.12.07-.24.1-.35.021-.08.05-.17.07-.25.01-.01.01-.03.02-.04l.091-.31c.029-.09.06-.19.08-.28.029-.09.06-.17.079-.26h.011c0-.02.01-.03.01-.05.04-.13.08-.27.13-.4.03-.11.06-.21.1-.32.021-.08.04-.15.07-.23l.09-.27c0-.01 0-.03.011-.04.05-.18.109-.35.17-.53.05-.14.069-.26.069-.36-.006-.523-.526-.614-.765.017zm18.22 76.068l-.901.522-.429.25-1.151.659h-17.25l-.1-.059-.96-.55-.049-.031-.491-.28-.869-.511zm-5.591 3.232l-1.819 1.05-.651.37h-6.099l-.651-.38-1.81-1.04zm7.761-4.489l-.38.219H42.983l-.6-.35-1.55-.9-.3-.17h30.71l-.25.141-.062.029-1.54.9"/><path fill="#190C3C" d="M31.21 92.964h49.539c.728 0 .729-.848 0-.848h-.354c-.725 0-.725.848 0 .848h.354v-.848H31.21c-.726.003-.726.848 0 .848zm.168 1.073h-.189v.848H80.77c.728 0 .729-.848 0-.848h-.206c-.726 0-.728.848 0 .848h.206v-.848H31.189c-.727 0-.727.848 0 .848h.189c.726-.003.728-.848 0-.848z"/><path fill="#190C3C" d="M31.801 94.489V92.57c0-.547-1.154-.547-1.154 0v1.919c0 .544 1.154.544 1.154 0zm49.497.027v-1.543c0-.543-1.128-.545-1.128 0v.021c0 .545 1.128.545 1.128 0v-.021H80.17v1.543c0 .545 1.128.547 1.128 0zm-49.862-3.018h49.056v-.848h-.282c-.728 0-.728.848 0 .848h.282c.725 0 .727-.848 0-.848H31.436c-.725 0-.727.848 0 .848zm3.948-12.418h41.589a.425.425 0 0 0 0-.847h-.299a.425.425 0 0 0 0 .847h.299v-.847H35.384a.425.425 0 0 0 0 .847zm.142 1.071h-.159v.847H76.99a.425.425 0 0 0 0-.847h-.175a.425.425 0 0 0 0 .847h.175v-.847H35.367a.425.425 0 0 0 0 .847h.159c.61 0 .61-.847 0-.847z"/><path fill="#190C3C" d="M35.881 80.602v-1.919c0-.544-.97-.546-.97 0v1.919c0 .545.97.547.97 0zm41.551.028v-1.541c0-.547-.946-.549-.946 0v.018c0 .544.946.546.946 0v-.018h-.946v1.541c0 .543.946.546.946 0zm-41.858-3.018h41.18v-.846h-.236a.424.424 0 0 0 0 .846h.236a.424.424 0 0 0 0-.846h-41.18a.424.424 0 0 0 0 .846zm3.058-8.336h35.45a.362.362 0 0 0 0-.721h-.253a.362.362 0 0 0 0 .721h.253v-.721h-35.45a.362.362 0 0 0 0 .721zm.12.914h-.135v.722h35.48c.52 0 .52-.722 0-.722h-.147a.362.362 0 0 0 0 .722h.147v-.722h-35.48a.362.362 0 0 0 0 .722h.135a.362.362 0 0 0 0-.722z"/><path fill="#190C3C" d="M39.054 70.576v-1.638c0-.463-.825-.463-.825 0v1.638c0 .463.825.465.825 0zm35.42.023v-1.314c0-.466-.807-.466-.807 0v.015c0 .465.807.465.807 0v-.016h-.807v1.314c0 .465.807.466.807.001zm-35.681-2.575h35.103v-.722h-.2a.362.362 0 0 0 0 .722h.2a.362.362 0 0 0 0-.722H38.793a.362.362 0 0 0 0 .722zm2.347-6.366h30.975a.317.317 0 0 0 0-.632h-.223a.317.317 0 0 0 0 .632h.223v-.632H41.14a.317.317 0 0 0 0 .632zm.105.799h-.118v.629h31a.315.315 0 0 0 0-.629h-.13a.315.315 0 0 0 0 .629h.13v-.629h-31a.316.316 0 0 0 0 .629h.118a.315.315 0 0 0 0-.629z"/><path fill="#190C3C" d="M41.509 62.791v-1.428c0-.406-.721-.407-.721 0v1.428c.001.406.721.408.721 0zm30.949.022v-1.149c0-.406-.706-.406-.706 0v.013c0 .406.706.408.706 0v-.013h-.706v1.149c-.001.405.706.405.706 0zm-31.176-2.248h30.671v-.632h-.179a.317.317 0 0 0 0 .632h.179a.317.317 0 0 0 0-.632H41.282a.317.317 0 0 0 0 .632zm2.016-4.702h26.934a.271.271 0 0 0 0-.54h-.192a.271.271 0 0 0 0 .54h.192v-.54H43.298a.271.271 0 0 0 0 .54zm.091.681h-.103v.539h26.958a.27.27 0 0 0 0-.539h-.112a.27.27 0 0 0 0 .539h.112v-.539H43.286a.27.27 0 0 0 0 .539h.103a.27.27 0 0 0 0-.539z"/><path fill="#190C3C" d="M43.618 56.833V55.61c0-.346-.626-.347-.626 0v1.222c0 .347.626.347.626.001zm26.913.018v-.983c0-.347-.613-.347-.613 0v.012c0 .346.613.348.613 0v-.012h-.613v.983c-.001.346.613.346.613 0zm-27.11-1.923h26.67v-.54h-.154a.271.271 0 0 0 0 .54h.154a.271.271 0 0 0 0-.54h-26.67a.271.271 0 0 0 0 .54zm1.058-3.847h24.268a.244.244 0 0 0 0-.486h-.171a.244.244 0 0 0 0 .486h.171v-.486H44.479a.244.244 0 0 0 0 .486zm.083.615h-.092v.486h24.288a.244.244 0 0 0 0-.486h-.104a.244.244 0 0 0 0 .486h.104v-.486H44.469a.244.244 0 0 0 0 .486h.092a.244.244 0 0 0 .001-.486z"/><path fill="#190C3C" d="M44.768 51.955v-1.101c0-.312-.563-.313-.563 0v1.101c-.001.312.563.312.563 0zm24.247.016v-.885c0-.313-.552-.313-.552 0v.011c0 .312.552.312.552 0v-.011h-.552v.885c0 .313.552.313.552 0zM44.59 50.239h24.03v-.486h-.14a.244.244 0 0 0 0 .486h.14a.244.244 0 0 0 0-.486H44.59a.244.244 0 0 0 0 .486zm1.366-2.883H67.82a.22.22 0 0 0 0-.438h-.155a.22.22 0 0 0 0 .438h.155v-.438H45.956a.22.22 0 0 0 0 .438zm.075.554h-.084v.438h21.885a.22.22 0 0 0 0-.438h-.093a.22.22 0 0 0 0 .438h.093v-.438H45.946a.22.22 0 0 0 0 .438h.084a.22.22 0 0 0 .001-.438z"/><path fill="#190C3C" d="M46.216 48.144v-.992c0-.282-.509-.282-.509 0v.992c0 .281.509.282.509 0zm21.847.014v-.797c0-.281-.497-.282-.497 0v.01c0 .282.497.282.497 0v-.01h-.497v.797c0 .281.497.282.497 0zm-22.008-1.56h21.649v-.438h-.122a.22.22 0 0 0 0 .438h.122a.22.22 0 0 0 0-.438H46.055a.22.22 0 0 0 0 .438zm.702-2.535H67.21a.206.206 0 0 0 0-.409h-.146c-.3 0-.3.409 0 .409h.146v-.409H46.757a.206.206 0 0 0 0 .409zm.069.518h-.079v.41h20.47a.206.206 0 0 0 0-.41h-.084c-.3 0-.3.41 0 .41h.084v-.41h-20.47c-.3 0-.3.41 0 .41h.079a.206.206 0 0 0 0-.41z"/><path fill="#190C3C" d="M47 44.799v-.929c0-.263-.478-.264-.478 0v.929c.002.264.478.264.478 0zm20.435.014v-.745c0-.264-.465-.264-.465 0v.009c0 .262.465.263.465 0v-.009h-.465v.745c0 .264.465.264.465 0zm-20.586-1.46h20.254v-.409h-.117c-.3 0-.301.409 0 .409h.117a.205.205 0 0 0 0-.409H46.849a.205.205 0 0 0 0 .409zm.879-2.04h18.431c.27 0 .27-.369 0-.369h-.135c-.27 0-.27.369 0 .369h.135v-.369H47.728c-.27 0-.27.369 0 .369zm.063.467h-.071v.369h18.444a.185.185 0 0 0 0-.369h-.077a.185.185 0 0 0 0 .369h.077v-.369H47.72a.185.185 0 0 0 0 .369h.071a.185.185 0 0 0 0-.369z"/><path fill="#190C3C" d="M47.949 41.976v-.836c0-.236-.43-.237-.43 0v.836c.001.238.43.239.43 0zm18.412.013v-.672c0-.237-.42-.238-.42 0v.008c0 .237.42.238.42 0v-.008h-.42v.672c0 .237.42.238.42 0zm-18.549-1.316H66.06v-.368h-.104a.185.185 0 0 0 0 .368h.104a.185.185 0 0 0 0-.368H47.812a.185.185 0 0 0 0 .368zm.296-1.644H65.58a.176.176 0 0 0 0-.35h-.125a.176.176 0 0 0 0 .35h.125v-.35H48.108a.176.176 0 0 0 0 .35zm.061.444h-.068v.35h17.485a.176.176 0 0 0 0-.35h-.073a.176.176 0 0 0 0 .35h.073v-.35H48.101a.176.176 0 0 0 0 .35h.068a.176.176 0 0 0 0-.35z"/><path fill="#190C3C" d="M48.316 39.659v-.792c0-.225-.407-.225-.407 0v.792c0 .225.407.225.407 0zm17.457.011v-.637c0-.225-.397-.225-.397 0v.007c0 .225.397.226.397 0v-.007h-.397v.637c-.001.226.397.226.397 0zm-17.585-1.246h17.298v-.35h-.1a.176.176 0 0 0 0 .35h.1a.176.176 0 0 0 0-.35H48.188a.176.176 0 0 0 0 .35zm.335-1.336h16.444c.24 0 .242-.315 0-.315h-.118c-.239 0-.239.315 0 .315h.118v-.315H48.523c-.241 0-.241.315 0 .315zm.057.399h-.063v.314h16.458c.238 0 .24-.314 0-.314h-.07c-.239 0-.24.314 0 .314h.07v-.314H48.517c-.242 0-.242.314 0 .314h.063c.239.001.239-.314 0-.314z"/><path fill="#190C3C" d="M48.719 37.656v-.715c0-.202-.384-.202-.384 0v.715c0 .201.384.202.384 0zm16.431.01v-.574c0-.203-.374-.204-.374 0v.007c0 .203.374.204.374 0v-.007h-.374v.574c0 .202.374.202.374 0zm-16.552-1.124H64.88v-.314h-.093c-.241 0-.243.314 0 .314h.093c.241 0 .241-.314 0-.314H48.598c-.241 0-.242.314 0 .314zm-1.164-1h1.775c.456 0 .458-.711 0-.711h-1.775c-.457 0-.459.711 0 .711zM87.643 99.25c.03.06.051.129.07.189l-.63.359-.67.38c-.08-.22-.15-.439-.221-.66-4.46-13.59-8.891-27.188-13.33-40.78-.011-.02-.011-.05-.021-.07-.43-1.31-.859-2.63-1.29-3.94l-.01-.01c-.07-.24-.15-.47-.229-.71v-.02c-.141-.4-.271-.81-.399-1.21-1.45-4.46-2.25-7.96-3.32-11.87a110.184 110.184 0 0 0-1.5-5.01c-.01-.04-.029-.08-.029-.12a.793.793 0 0 1-.04-.25c0-.27.13-.43.301-.44.01-.01.01-.01.01 0 .17 0 .37.16.49.53 4.869 14.95 9.47 28.99 14.18 43.359 1.229 3.771 2.47 7.562 3.74 11.392l.029.119.119.359c.08.25.16.5.24.74.01.021.021.039.03.061.821 2.512 1.651 5.041 2.48 7.602z"/><path fill="#190C3C" d="M84.034 99.899c.14.47.279.949.409 1.42l-.279.159-1 .58-.57-1.92c-.52-1.75-1.04-3.51-1.56-5.27 0-.011-.011-.021-.011-.041-.08-.26-.16-.521-.229-.789-.01-.011-.01-.031-.021-.051-.061-.199-.12-.4-.171-.601a6.38 6.38 0 0 1-.13-.421l-.09-.318c-.05-.16-.1-.33-.149-.5 0-.011-.011-.021-.011-.029-.05-.15-.09-.312-.14-.471-.011-.051-.03-.102-.04-.15-.01-.01-.01-.021-.01-.029-.021-.069-.04-.141-.062-.211-.05-.159-.1-.318-.149-.489-.01-.04-.021-.079-.029-.119a.73.73 0 0 1-.05-.16c-.011-.04-.021-.079-.04-.12-.91-3.109-1.83-6.22-2.75-9.33v-.021s-.011-.011-.011-.021c-.021-.069-.04-.149-.069-.229-.051-.199-.11-.399-.17-.601l-.011-.01v-.01c-.04-.131-.08-.261-.12-.4-.029-.1-.061-.209-.09-.319-.029-.109-.069-.229-.101-.351-.021-.039-.03-.08-.04-.119-.04-.131-.08-.261-.109-.391-.04-.109-.069-.23-.101-.341-.061-.21-.13-.409-.189-.619v-.021c-.08-.271-.159-.551-.239-.82-.58-1.939-1.15-3.891-1.721-5.829 0-.011-.011-.021-.011-.03-.069-.229-.13-.449-.199-.681 0-.011-.011-.029-.011-.039 0-.011-.01-.011-.01-.021-.03-.11-.061-.211-.09-.32-.062-.189-.11-.381-.17-.569-.07-.239-.142-.479-.21-.721-.051-.181-.11-.351-.16-.529-.011-.051-.03-.11-.04-.159-.061-.19-.12-.381-.17-.57-.42-1.399-.83-2.811-1.24-4.21-.05-.17-.109-.35-.16-.52-.01-.04-.02-.07-.029-.11-.08-.27-.16-.53-.229-.8-.07-.21-.13-.42-.189-.63-.051-.15-.091-.31-.141-.46-.021-.09-.05-.19-.08-.28-.029-.12-.069-.24-.1-.36-.28-.95-.562-1.89-.841-2.84-.021-.06-.04-.11-.051-.17-.039-.12-.068-.25-.108-.37-.011-.02-.011-.03-.021-.05l-.18-.64c-.061-.18-.11-.36-.16-.54-.04-.11-.069-.22-.101-.33-.01-.02-.01-.04-.021-.06-.05-.18-.109-.36-.16-.54-.119-.42-.25-.84-.369-1.26-.101-.32-.189-.64-.279-.95-.011-.05-.03-.1-.04-.15 0-.01-.011-.02-.011-.03l-.061-.21c-.01-.03-.021-.06-.021-.09-.061-.21-.119-.42-.181-.62-.04-.16-.09-.32-.13-.48-.029-.12-.069-.24-.1-.36 0-.02-.011-.04-.011-.06h-.011a6.154 6.154 0 0 0-.109-.43c-.119-.47-.239-.94-.359-1.4-.03-.1-.05-.19-.07-.28-.02-.05-.029-.11-.039-.16-.051-.19-.091-.37-.131-.55-.05-.15-.08-.3-.109-.44-.029-.11-.061-.22-.079-.32-.03-.08-.051-.16-.062-.24-.02-.07-.04-.14-.05-.2-.101-.39-.189-.78-.29-1.17-.029-.14-.061-.27-.09-.41 0-.01-.011-.01-.011-.02-.039-.17-.079-.33-.119-.5-.03-.13-.07-.27-.091-.41-.029-.1-.061-.2-.079-.3-.03-.1-.051-.21-.08-.32-.011-.02-.011-.05-.021-.08-.06-.26-.13-.53-.188-.8-.021-.07-.04-.15-.062-.23-.01-.04-.02-.09-.039-.14-.03-.16-.07-.31-.109-.47-.03-.12-.062-.24-.091-.36-.021-.07-.04-.15-.061-.23 0-.01-.01-.03-.01-.05l-.091-.36c-.039-.16-.09-.32-.13-.49-.029-.11-.061-.23-.09-.35 0-.01-.011-.03-.021-.04a3.043 3.043 0 0 0-.101-.4c-.029-.12-.061-.23-.09-.35-.011-.06-.03-.13-.051-.19 0-.02-.01-.04-.021-.06-.029-.12-.061-.24-.09-.35-.021-.09-.05-.19-.08-.28 0-.01 0-.03-.01-.04-.011-.05-.03-.11-.04-.16v-.01c-.011-.03-.021-.07-.03-.1a5.94 5.94 0 0 1-.109-.4c-.029-.11-.061-.21-.09-.32-.03-.08-.051-.15-.07-.23l-.06-.21a.756.756 0 0 1-.03-.1c-.029-.11-.069-.23-.101-.34-.04-.14-.061-.27-.05-.37.021-.52.51-.59.729-.01.029.04.05.09.061.14.01.03.021.07.029.1.71 2.42 1.42 4.82 2.12 7.21.04.12.069.23.109.35.04.13.07.25.109.38.03.08.051.17.07.25 1.601 5.4 3.18 10.75 4.771 16.07.029.11.061.21.09.31 3.851 12.99 7.689 25.871 11.63 39.189.04.131.08.261.11.392h.025z"/><path fill="#190C3C" d="M66.282 35.079c-.593-.019-1.183-.038-1.772-.055-.459-.015-.457.696 0 .711l1.772.055c.457.014.457-.697 0-.711z"/></svg>