<svg enable-background="new 0 0 110.9 128" viewBox="0 0 110.9 128" xmlns="http://www.w3.org/2000/svg" xmlns:xlink="http://www.w3.org/1999/xlink"><clipPath id="a"><path d="m49.7 71.1s11.3-1.4 13.5-3.3v1.4s-.5 3-6 3.8-7.6-.3-7.6-.3z"/></clipPath><path d="m110.8 32v64l-55.4 32-44.3-25.6-.2-.1-10.9-6.3v-64l55.4-32z" fill="#0fce7c"/><path d="m101.5 37.4v53.1l-46 26.6-46-26.6v-53.1l46-26.6z" fill="#fff"/><path d="m46.9 19.8c-5.6 5.6-11.3 11.2-16.9 16.8-.7.7.4 1.7 1 1 5.6-5.6 11.2-11.2 16.9-16.9.7-.6-.3-1.6-1-.9z" fill="#ffce08"/><path d="m20.3 40.5c-5.3 5.3-6.1 6.2-10.8 10.8v-2.1c3.8-3.8 4.9-5 9.8-9.8.6-.6 1.6.5 1 1.1z" fill="#f9006c"/><path d="m81 72.3c1.2-1.2 2.4-2.4 3.6-3.6.7-.7-.4-1.7-1.1-1-1.2 1.2-2.4 2.4-3.6 3.6-.6.6.4 1.7 1.1 1z" fill="#f9006c"/><path d="m101.4 65.2v2.1c-3 3-11.6 11.6-12.6 12.7 0 0 0 0-.1 0-.7.6-1.6-.4-1.1-1 0 0 0 0 .1-.1l13.6-13.6s.1 0 .1-.1z" fill="#8e2abe"/><path d="m87.4 57.2c1.6-1.6 3.1-3.1 4.7-4.7.7-.7-.4-1.7-1.1-1-1.6 1.6-3.1 3.1-4.7 4.7-.6.7.4 1.7 1.1 1z" fill="#ffce08"/><path d="m33.9 51.7c-5.6 5.7-11.2 11.3-16.9 16.9-.7.7.4 1.7 1 1 5.7-5.6 11.3-11.2 17-16.8.6-.7-.4-1.7-1.1-1.1z" fill="#25e999"/><path d="m93 32.8c-2.4 2.4-7.4 7.4-8.7 8.7-.7.7-1.7-.4-1.1-1 1.3-1.3 5.9-5.9 8.4-8.4l.4.2z" fill="#3e00ff"/><path d="m14.6 72.4c1 0 1-1.5 0-1.5-.9.1-.9 1.5 0 1.5z" fill="#25e999"/><path d="m52.3 38.5s3-.6 4.7-.4c2.6.5 6.9 4 7.4 5 .8 1.6 3.6 7.6 3.9 8.3s1.2 2.9 1.6 3.6c.1.1.3.4.4.4.8.5 4.2 2.7 4.5 2.9.4.2.2.5.3.8v.4c0 .3-.3.2-.6.3l-1.1 1c-.1 0-.1.1 0 .2l2.4 1.1 9.9 10.3 6 22.8s-20.3 11.9-19.6 11.5-16.9 9.6-16.9 9.6l-36.3-21.4 8-22.8c-.4-.2.3-.6.6-1l1.6-1.5s.4-.5.4-.6l1.1-1.7c.1-.1.4-.4.4-.5l3.8-2.7 2.7-1.5c.1-.1.2-.1.3-.1l3.5-.3c.1 0 .2 0 .3-.1l2.2-1.1s.1-.1.1-.1l.9-.7c.4-.3.4 0 0-.3l-1.3-.5c-.1-.1-1.6-.5-1.6-.6l-3.1-1.5c0-.1-2.4-2.5-2.4-2.6l.6-1.7c0-.1 1.1-3.9 1.1-4l2.7-9.4c0-.3 1.2-1.3 1.6-1.4l2.7-.1h.3l4.4.8h.3z" fill="#15003e" stroke="#01065b" stroke-miterlimit="10" stroke-width=".05"/><path d="m49.9 39c0-.2 1.1-5.4 2.7-9.6 1.3-3.3 3-5.8 3-5.8l-2.3.4s-2 2.3-2.9 5-2.6 7.9-2.6 7.9l-.2 1.8z" fill="#f2f2f2"/><path d="m51.9 24.3s-4 1-5.5 3.9c-1.7 2.8 2.3-3 5.5-3.9z" fill="#f2f2f2"/><path d="m43.4 67h28.7v6.7h-28.7z" fill="#d1d3d4" stroke="#0e2947" stroke-miterlimit="10"/><path d="m47.2 62.6h19.7v4.2h-19.7z" fill="#d6d6ea"/><path d="m67.9 67.4h-21.8v-5.9h21.8zm-20.6-1.2h19.3v-3.4h-19.3z" fill="#0e2947"/><path d="m65.2 60.5h-16.1c-.3 0-.6-.3-.6-.6s.3-.6.6-.6h16.1c.3 0 .6.3.6.6s-.3.6-.6.6" fill="#25e899"/><path d="m64.1 67.5h7.2v5.9h-7.2z" fill="#9393b5"/><path d="m61.2 62.8h5.5v3.3h-5.5z" fill="#9393b5"/><path d="m68.2 87.8c0-1 0-2.1-.4-3.3-.3-.8-.3-.9-1.1-.6-2.4.6-4.9 1.3-7.3 1.8-1.1.2-1.5.9-2 1.7-.2.4-.1.4.3.4.9 0 1 .2 1 1.1 0 1.9 0 3.8.2 5.7.2 2.2.1 4.3 0 6.5 0 .8 0 .8.8.8 1.3 0 2.7-.3 4-.4.7-.1 1.1-.4 1.3-1s.4-1.1.7-1.7c1.5-3.5 2.5-7.1 2.5-11zm-11.1-20.3c-.8-.1-1.5.2-1.8.9-.7 1.4-1 2.7-1.4 4.2-1.1 4.2-1.6 8.5-1.9 12.9 0 .7 0 .7.9.6.7-.1 1.4-.2 2.1-.3 1.9-.4 1.8.1 2.1-2.3.7-5.5 2.2-10.7 5.9-15.1.3-.3.2-.5-.2-.7zm.5 17.3c-.1.4.2.5.5.4 1.9-.5 3.7-1 5.6-1.5.4-.1.5-.3.6-.7.4-3.2 1.1-6.4 2.1-9.5.3-.9.6-1.7 1.1-2.4.3-.3.1-.5-.2-.6-1-.6-2.1-1.2-3.1-1.8-.4-.2-.6-.1-.9.2-.6.7-1.1 1.4-1.6 2.2-2.6 4.2-3.6 8.9-4.1 13.7zm-15.8-1.2c0 .4-.1.9.5 1.1 1.1.4 2.1.8 3.2 1.1.4.1.6-.1.6-.5.3-1.8.7-3.5 1-5.3.8-4.1 1.3-8.3 3.1-12.1.1-.1.1-.3-.1-.4-.5-.3-1.1-.6-1.6-.9-.1 0-.2 0-.3.1-.6.6-1.5.7-2.3.9-.9.1-1.3.6-1.6 1.5-1.4 4.6-1.8 9.5-2.5 14.5zm7.8 2.7h.9c.6 0 .8-.2.8-.8.1-4 .7-7.9 1.6-11.8.4-1.8.8-3.6 1.7-5.3.1-.2.4-.4.2-.6s-.5-.1-.7-.1c-.7 0-1.3-.2-2-.2-.7-.4-1-.3-1.3.5-1.1 2.8-1.9 5.8-2.4 8.8-.5 2.8-1.1 5.6-1.6 8.3-.2.9-.2.9.7 1 .7.1 1.4.2 2.1.2zm-14.3 6.2c0 .5 0 .9.1 1.3.3 1.2 1 2.3 1.3 3.5.4 1.7 1.5 2.5 3.1 2.7h.2c.4.1.5 0 .4-.4-.1-1.3 0-2.5-.1-3.8 0-2.4.2-4.9.1-7.3 0-1.2-.2-1.6 1.5-1.5h.6c.1 0 .2-.1.3-.2 0-.3-.6-1.3-.9-1.4-1.4-.6-2.7-1.1-4.1-1.7-.3-.1-.5-.1-.6.3-.4 2.1-1 4.2-1.6 6.3-.2.7-.4 1.5-.3 2.2zm8.7-24.4c-1.5.7-2.9 1.3-4.2 2-.2.1-.2.2-.3.4-1.1 3.8-2.2 7.5-2.7 11.4 0 .4 0 .6.4.7 1.1.4 2.2.9 3.2 1.3.6.3.7.2.8-.5.2-2.5.6-4.9 1-7.3.4-2.6.9-5.3 1.8-8zm20.8 14.9c-.1.4.2.4.5.3.8-.2 1.6-.4 2.4-.5.5-.1.7-.3.8-.8.3-1.7.5-3.3.9-5 .3-1.1.8-2.1 1.2-3.1.3-.6.2-1.1-.4-1.5-.4-.3-.8-.6-1.3-.9-.9-.6-1-.5-1.5.4-.4.9-.7 1.9-1 2.9-.7 2.7-1.2 5.4-1.6 8.2zm4.7-.6c.7-.1 1.4-.3 2.1-.4l4.8-.6c.4 0 .5-.2.3-.5-1.1-2.8-2.7-5.2-4.9-7.2-.2-.2-.3-.3-.5.1-1.3 2.6-1.8 5.4-2.2 8.2 0 .2.1.4.4.4zm-30.8-11.7c-.1 0-.1-.1-.2-.1-.6.4-1.4.6-1.8 1.4-.4.9-.8 1.7-1 2.7-.5 2-.8 3.9-1.1 5.9-.1.9-.1.9.8 1.3.4.1.6.1.6-.3.4-2.6 1-5.1 1.7-7.6.4-1.1.7-2.2 1-3.3zm2.4 26.3c.1 0 .1 0 0 0v7.2c0 .9 0 .9.9 1 1.7.1 3.5.3 5.2.4 2.9.2 5.8.5 8.7.7.5 0 .6-.1.6-.5 0-.9-.1-1.8-.1-2.6-.1-4.1.1-8.2.2-12.4 0-.3 0-.5-.3-.5-2-.1-3.9-.5-5.8-.6-2.8 0-5.6-.2-8.4-.5-.9-.1-.9-.1-.9.8-.1 2.3-.1 4.6-.1 7zm16.8-7.7c-.3.3-.8.5-.7 1 .3 1.6 0 3.3 0 4.9-.1 3.6-.1 7.2 0 10.8 0 .3.1.5.4.5s.5-.1.6-.4c0-.2 0-.4 0-.6-.2-2.3-.1-4.6 0-6.9.1-3-.3-6-.3-8.9.1-.2 0-.3 0-.4zm-22-16.6c-.4.3-.6.5-.8.8-1.4 1.7-2.5 3.7-3.2 5.8-.5 1.5-.4 1.2.8 1.7.1.1.3.1.4.1.6.3.8 0 .8-.5.2-1.1.4-2.2.6-3.4.4-1.5.8-2.9 1.4-4.5zm21.5 15.8c-1.5 0-2.9 0-4.2 0-2.2 0-4.4-.2-6.6-.5-1.7-.2-3.3-.2-5-.3-.2 0-.5 0-.5.3s.2.4.5.4c2.5 0 4.9.5 7.3.4 2.3 0 4.7.2 7 .6.7.2 1.1-.1 1.5-.9zm3 16c.4 0 .9-.1 1.4-.1 1.2-.1 2.1-.5 2.3-1.8v-.1c.2-.4 0-.5-.4-.4-1.5.2-3 .4-4.5.3-.3 0-.5.1-.5.5 0 1.3.2 1.6 1.7 1.6zm-22.7-3.7c.1.3-.2.8.4 1.1.7.2 1.3.4 2 .5.2 0 .4 0 .4-.3.2-.9 0-1.2-.9-1.5-.4-.1-.7-.2-1.1-.4-.9-.3-.9-.3-.8.6zm8.1-14.1c.1.5.3.6.7.7 2.1.2 4.2.4 6.2.5.3 0 .6-.1.7-.3.1-.1.3-.2.2-.4s-.3-.1-.4-.1c-1.4.2-2.9.2-4.3.1-1-.2-2-.4-3.1-.5zm11.8-.5c-1.1.2-2 .4-2.9.6-.3.1-.5.4-.6.6-.2.3-.1.4.2.4h1.9c.2 0 .4-.1.5-.2.3-.4.5-.8.9-1.4zm-12.8 1c.1 0 .4.2.5-.1.1-.2-.1-.5-.4-.6 0 0-.1 0-.1-.1-.5-.2-1-.3-1.5-.5-.1 0-.2 0-.3 0-.1.1 0 .2 0 .3.3.9.9 1 1.8 1z" style="fill:#fff;stroke:#0e2947;stroke-width:.25;stroke-linecap:round;stroke-linejoin:round;stroke-miterlimit:10"/><path d="m58.3 75.2c.1.3.1.4 0 .6-.8 1.8-.9 3.7-1.2 5.6-.2.9-.3 1.8-.6 2.7-.3 1-.9 1.3-2 1.3-.9 0-1.4-.5-1.7-1.5-.2-.8-.1-1.6 0-2.4.2-1.6.5-3.2.7-4.8 0-.2 0-.6.3-.6s.2.4.2.7c0 1.4-.3 2.8-.5 4.2-.1.9-.3 1.7-.1 2.6.1.8.4 1.1 1.1 1.1 1 0 1.3-.2 1.5-.9.6-2.2.8-4.6 1.5-6.8.1-.6.2-1.2.8-1.8z" fill="#ffce08"/><path d="m47.5 75c.1.2.1.2.1.3-.8 2.5-.7 5.1-1.5 7.6-.1.3-.2.6-.3.9-.5 1-1.6 1.3-2.5.7-.3-.2-.3-.5-.3-.7.1-2.4.3-4.7.6-7.1.1-.6 0-1.1 0-1.7.5.2.5.6.5 1 .1.9-.1 1.8-.2 2.6-.1 1.5-.3 3.1-.2 4.6 0 .3-.2.8.3.9s1 .1 1.3-.4c.3-.4.4-.9.6-1.4.4-1.6.5-3.3.8-5 0-.7.2-1.5.8-2.3z" fill="#ffce08"/><path d="m41.2 97.1c0-2.2 0-4.5 0-6.7 0-.6.1-.9.8-.8 4.4.2 8.8.5 13.2.8.6 0 .8.3.8.8v2.2c0 3.4.1 6.9.1 10.3 0 .6 0 1.3-.1 1.9 0 .4-.2.5-.5.5-2.3-.2-4.5-.4-6.8-.7-2.1-.2-4.2-.4-6.4-.6-1.1-.1-1.1-.2-1.1-1.3 0-2.1 0-4.3 0-6.4zm13.2 8.3c1.1.1 1.1.1 1.1-1 .1-3.5-.1-7-.1-10.4 0-.9.1-1.8.1-2.6 0-.4-.1-.6-.6-.6-1.4-.1-2.8-.2-4.2-.2-2.8-.2-5.7-.3-8.5-.5-.4 0-.6 0-.6.5v12.6c0 1.1 0 1.1 1.2 1.2 2.9.3 5.8.5 8.7.8z" fill="none" stroke="#0fce7c" stroke-miterlimit="10" stroke-width=".25"/><path d="m43.8 82.6c0 .4.1 1 .5 1.1.5.1.8-.5.9-1.1.7-3.3 1.3-6.6 2-9.9 0-.2.1-.4 0-.6s-.4-.3-.5-.2c-.7 2.5-1.4 4.9-2.1 7.4-.2-.8-.2-1.6 0-2.4.2-1.1-.3-.3-.4.3-.3 1.8-.4 3.7-.4 5.4z" fill="#01065b" opacity=".06"/><path d="m67.3 79.5c-.1.6-.2 1.3-.5 1.8s-.8 1-1.5 1.1c-.2-1 .2-1.9.5-2.9.7-1.9 1.2-3.8 2.7-5.2.1-.1.9-.9 1.1-.6.3.2-.9 1.9-1 2.1-.5 1-1.3 2.5-1.3 3.7z" fill="#01065b" opacity=".06"/><path d="m47.9 60.2c-2.7 4.9 2.4 9.8 2.4 10.2s-1.1 2.9-1.1 2.9-8.3-1.2-9.2.2c-1 1.3 7.9-13.3 7.9-13.3z" fill="#fff" stroke="#01065b" stroke-miterlimit="10" stroke-width=".25"/><path d="m62.1 70s7 2.3 7.9 4.7c.9 2.5-.3 5.6.7 8.1 1 2.4-1.1 6.1-.5 7.5 2.3 4.6.6 17.3.6 17.3l4.7-2.7s4.2-13.2 4.1-13.6.4-6.8 0-7.5-4.1-10.4-4.1-10.4l-4.4-5.5z" fill="#0c0126" opacity=".47"/><path d="m49.4 73.7c-.8.6-1.8.8-2.8.7s-2-.3-3-.3-2.1.3-2.7 1.1c-.5.8-.5 1.8-.9 2.6-.5 1.2-1.6 2.2-2.5 3.1-1 .9-2 2-2.2 3.3-.2 1.2.3 2.3.4 3.5.1 1.5-.5 3.1-1.3 4.4-.4.6-3.2 10.1-3.2 10.1l-5.7-3.3s2.7-5.7 2.5-7.6.3-3.7.9-5.5c1-2.9 2.1-5.8 3.7-8.4 1.7-2.6 3.9-4.9 6.6-6.2s6.1-1.7 8.9-.6c.7.3 1.4.7 1.7 1.3.5.5.2 1.3-.4 1.8z" fill="#0c0126" opacity=".47"/><path d="m69.8 58s.3 2.4-1.9 4.8c-2.2 2.5-4.7 3.5-4.8 3.8s-.5 2.9-.5 2.9 4.6 1.2 6.9 3.2c2.9 2.4 2.5 4.6 2.5 6" style="fill:#fff;stroke:#01065b;stroke-width:.5;stroke-linecap:round;stroke-linejoin:round;stroke-miterlimit:10"/><path d="m72.7 105.8c.1-.6.1-1.5.1-2.2.1-1.3.2-2.6.2-3.9s.1-2.6.1-3.9c0-2.6 0-5.2-.1-7.8 0-1.3-.1-2.6-.2-3.9v-.5-.2c0-.1 0-.2 0-.2v-.1-.1-.1-.1l-.1-.2-.1-.2c-.2-.6-.4-1.2-.6-1.9-.3-1.3-.6-2.6-.6-3.9v-.2c0-.1 0-.2 0-.2v-.5l.1-.5v-.2c0-.1 0-.2 0-.2 0-.3-.1-.6-.3-.9s-.4-.5-.6-.7c-.5-.4-1-.8-1.6-1.1s-1.1-.6-1.7-.9-1.2-.5-1.8-.7-1.2-.4-1.8-.6l.4-2.4c0-.1.1-.2.2-.3 0 0 .1-.1.1-.1s.1-.1.1-.1l.5-.5c.3-.3.7-.6 1.1-.9.7-.6 1.4-1.2 2.1-1.9.2-.2.3-.3.5-.5 0 0 .1-.1.1-.1s.1-.1.1-.1l.2-.3c.2-.4.5-.8.6-1.2.2-.4.3-.9.4-1.3 0-.2.1-.5.1-.7v-.2-.2c0-.1 0-.2 0-.3v-.3l.2.2 3.4 2.3.9.4c.3.1.6.3.9.4.6.3 1.2.6 1.7.9.6.3 1.1.7 1.6 1.1l1.6 1.1c.1.1.3.2.4.3l.4.3c.1.1.3.2.4.3s.3.2.4.3c.5.4 1 .9 1.5 1.3.9.9 1.7 2 2.4 3.1.2.3.3.6.5.9l.2.4.2.4c.1.1.1.3.2.4l.2.4c.1.3.3.6.4.9.2.6.5 1.2.7 1.8s.4 1.2.6 1.9c.2.6.3 1.3.5 1.9.1.6.3 1.3.4 1.9.1.3.1.6.2 1l.2 1 .3 1.9.6 3.9.3 1.9c.1.6.2 1.3.3 1.9l.3 1.7-.9.3c-.1-.3-.1-.6-.2-1l-.1-.5v-.2-.2c-.1-.6-.2-1.3-.3-1.9l-.3-1.9-.6-3.9-.3-1.9-.2-1c0-.2-.1-.3-.1-.5s-.1-.3-.1-.5c-.1-.6-.2-1.3-.4-1.9-.1-.6-.3-1.3-.5-1.9-.4-1.2-.8-2.5-1.2-3.7-.1-.3-.2-.6-.4-.9l-.2-.4c-.1-.1-.1-.3-.2-.4l-.2-.4-.2-.4c-.1-.3-.3-.6-.5-.8-.6-1.1-1.4-2.1-2.3-3.1-.4-.5-.9-.9-1.4-1.3-.1-.1-.2-.2-.4-.3-.1-.1-.3-.2-.4-.3l-.4-.3c-.1-.1-.3-.2-.4-.3l-1.6-1.2c-.5-.4-1.1-.7-1.6-1.1-.6-.3-1.1-.7-1.7-1-.3-.1-.6-.3-.9-.4l-.9-.4-3.4-2.4.2-.1v.4.2.2c0 .2 0 .5-.1.7-.1.5-.2.9-.4 1.4-.2.4-.4.8-.7 1.2l-.2.3s-.1.1-.1.1-.1.1-.1.1c-.1.2-.3.4-.5.5-.7.7-1.4 1.2-2.1 1.8-.4.3-.7.6-1.1.9-.2.2-.3.3-.5.5 0 0-.1.1-.1.1s-.1.1-.1.1c.1 0 0 .1 0 .2l-.5 2.4c.6.2 1.2.4 1.9.6.6.2 1.2.5 1.8.7.6.3 1.2.5 1.8.8s1.1.7 1.6 1.1l.7.7c.2.3.3.6.3 1v.3.2.5.5.2.2c0 1.3.3 2.6.6 3.8.2.6.4 1.2.6 1.9l.1.2.1.2v.1.1.1.1.3.2.5c.1 1.3.2 2.6.2 3.9.1 2.6.2 5.2.2 7.8v3.9c0 1.3-.1 2.6-.2 3.9 0 .6-.1 1.3-.1 1.9z" style="fill:#01065b;stroke:#01065b;stroke-width:.75;stroke-linecap:round;stroke-linejoin:round;stroke-miterlimit:10"/><path d="m72.8 106.4c.8-6.9.4-18.3.1-23-.1-1.3-1.9-4.6-1.4-8.6.4-2.7-8-5.2-8-5.2l.4-2.4c.3-.8 3.6-2.9 4.7-4.5 1.7-2.4 1.3-4.3 1.3-4.3l3.4 2.4 1 .5c1.5.7 2.9 1.5 4.2 2.5l1.7 1.2.1.1c2.5 1.7 4.4 4 5.7 6.7 1.6 3.3 2.7 6.9 3.3 10.6l1.4 8.9c.1.7.2 1.4.4 2.1.1.5.2 1.2.4 2.1l-19 11.2" fill="#fff"/><path d="m72 60.7s-1.9 9.7-9.4 8.8" fill="#fff"/><path d="m72 60.7c-.1.6-.3 1.2-.4 1.7-.2.6-.4 1.1-.6 1.7-.2.5-.5 1.1-.8 1.6s-.7 1-1.1 1.5c-.2.2-.4.5-.6.7s-.4.4-.7.6c-.2.2-.5.4-.8.5-.1.1-.3.1-.4.2s-.3.1-.4.2c-.6.2-1.2.3-1.8.4h-.1-.1c-.1 0-.2 0-.2 0-.2 0-.3 0-.5 0-.3 0-.6-.1-.9-.2v-.1c.3 0 .6 0 .9-.1.3 0 .6-.1.9-.1.6-.1 1.1-.3 1.6-.5.3-.1.5-.2.8-.4.2-.1.5-.3.7-.4.2-.2.5-.3.7-.5s.4-.4.6-.6c.4-.4.7-.9 1.1-1.4.3-.5.6-1 .9-1.5.5-1 .9-2.1 1.2-3.3z" fill="#01065b"/><path d="m34.4 81.5c1-.8 3.7-3.4 4.9-7.2.8-2.6 9.4-1.3 9.4-1.3l.6-2.4c.1-.9-2-4.1-2.4-6.1-.5-2.8.6-4.4.6-4.4l-1.7-.2c-.9.2-2.8 1.1-3.6 1.4l-1.1.4c-.6.3-1.3.5-2 .6-1.7.4-3.4 1.1-4.8 2.1-2.2 1.5-4.2 3.3-5.8 5.3l-.8.9c-.2.2-.3.4-.5.6-1.3 1.5-2.1 3.5-2.7 5.4l-4.9 14.7-.6 4.1 8.9 5.1h.4l.1-.9.2-3.3 1.2-4.6.3-1.9.9-2.3.2-1.3 1.4-2.8z" fill="#fff"/><path d="m28 100.5.4-2.3c.4-2.4.8-4.9 1.4-7.2.3-1.2.7-2.4 1.1-3.5.4-1.2.9-2.3 1.5-3.4.3-.5.6-1.1 1-1.6.2-.2.4-.5.6-.7.1-.1.2-.2.3-.3l.3-.3c.9-.8 1.7-1.7 2.4-2.7s1.3-2.1 1.8-3.2c.1-.1.1-.3.2-.4l.1-.2.1-.2c0-.1 0-.1.1-.2 0-.1.1-.1.1-.2.1-.1.2-.3.3-.4.2-.2.5-.4.8-.5s.6-.2.9-.3c.6-.1 1.2-.2 1.8-.2h1.8c.6 0 1.2.1 1.8.1.3 0 .6.1.9.1l.5.1h.2.1.1c.2-.8.4-1.6.6-2.4 0-.1 0-.2 0-.3s-.1-.2-.1-.3c-.1-.2-.2-.4-.3-.6-.2-.4-.4-.8-.6-1.2-.4-.8-.8-1.7-1.2-2.5-.1-.2-.2-.4-.2-.7 0-.1-.1-.2-.1-.3s0-.2-.1-.3c0-.2-.1-.5-.1-.7s0-.5 0-.7c0-.5.1-.9.2-1.4.1-.2.1-.5.2-.7 0-.1.1-.2.1-.3s.1-.1.1-.2.1-.1.1-.2l.1.3-1.7-.2h.1c-.3.1-.6.2-.8.3-.3.1-.6.2-.8.3-.6.2-1.1.5-1.7.7-.1 0-.1.1-.2.1l-.2.1-.4.2-.4 0c-.1.1-.3.1-.4.2-.3.1-.6.2-.9.3-.2 0-.3.1-.5.1h-.4c-1.2.3-2.3.7-3.4 1.3-.3.1-.5.3-.8.5-.1.1-.3.2-.4.2l-.4.3c-.5.3-1 .7-1.5 1.1-.9.8-1.8 1.6-2.7 2.5-.4.4-.8.9-1.2 1.4l-.6.7c-.2.2-.4.5-.6.7l-.3.3c-.1.1-.2.2-.3.3-.2.2-.4.5-.5.7-.2.2-.3.5-.5.8s-.3.5-.4.8-.3.5-.4.8-.2.6-.3.8l-.1.2-.1.2c0 .1-.1.3-.1.4l-.3.9-2.1 7.1c-.7 2.4-1.4 4.7-2.1 7.1l-1 3.6-.5-.2c.3-1.2.7-2.4 1-3.5 1.3-4.7 2.7-9.4 4.1-14.2l.3-.9c0-.1.1-.3.1-.4l.1-.2.1-.2c.2-.6.5-1.2.7-1.7.1-.3.3-.6.5-.8.2-.3.3-.5.5-.8s.4-.5.6-.8c.1-.1.2-.2.3-.4l.3-.3c.2-.2.4-.5.6-.7l.6-.7c.4-.5.8-.9 1.2-1.4.9-.9 1.8-1.7 2.7-2.5.5-.4 1-.8 1.5-1.1l.4-.3c.1-.1.3-.2.4-.3.3-.2.5-.3.8-.5 1.1-.6 2.3-1 3.5-1.3l.4-.1c.1 0 .3-.1.4-.1l.9-.3c.1 0 .3-.1.4-.2l.4-.2.4-.2.2-.1.2-.1c.6-.2 1.1-.5 1.7-.7l.9-.3.9-.3 1.7.2h.3l-.2.3s-.1.1-.1.1-.1.1-.1.1c-.1.1-.1.2-.1.3-.1.2-.2.4-.2.6-.1.4-.2.9-.2 1.3v.7c0 .2 0 .5.1.7v.3c0 .1 0 .2.1.3.1.2.1.4.2.7.3.9.7 1.7 1.1 2.5.2.4.4.8.6 1.3.1.2.2.4.3.7 0 .1.1.2.1.3v.4c-.2.8-.4 1.6-.7 2.4h-.1-.1-.2l-.5-.1c-.3 0-.6-.1-.9-.1-.6-.1-1.2-.1-1.8-.1s-1.2 0-1.8 0-1.2.1-1.8.2c-.3.1-.6.2-.9.3s-.5.3-.8.5c-.1.1-.2.2-.3.3 0 .1-.1.1-.1.2s0 .1-.1.2l-.1.2-.1.2c0 .1-.1.3-.2.4-.4 1.2-1 2.2-1.8 3.2-.7 1-1.5 1.9-2.4 2.8-.1.1-.2.2-.3.3s-.2.2-.3.3c-.2.2-.4.4-.6.7-.4.5-.7 1-1 1.5-.6 1.1-1 2.2-1.4 3.4s-.7 2.3-1 3.5-.5 2.4-.8 3.6c-.2 1.2-.4 2.4-.6 3.6-.1.7-.2 1.5-.3 2.2h-.1z" fill="#01065b" stroke="#01065b" stroke-miterlimit="10" stroke-width=".25"/><path d="m44.7 61.3s-3.2 9.3 4 11.6" fill="#fff"/><path d="m44.7 61.3c-.3 1.1-.5 2.2-.6 3.4v1.7c0 .6.1 1.1.3 1.7.1.3.2.5.3.8s.2.5.3.8c.1.2.3.5.4.7.1.1.2.2.2.3l.1.2.3.1c.4.4.8.8 1.2 1.1.5.3 1 .6 1.5.8v.1c-.3-.1-.6-.1-.8-.2-.1 0-.3-.1-.4-.2-.1 0-.1-.1-.2-.1s-.1-.1-.2-.1l-.2-.1c-.1 0-.1-.1-.2-.1s-.1-.1-.2-.1-.1-.1-.2-.1c-.2-.2-.5-.4-.7-.6-.4-.4-.8-.9-1-1.5-.2-.5-.4-1.1-.5-1.7-.2-1.2-.3-2.3-.1-3.5.1-.6.2-1.1.3-1.7 0-.6.2-1.1.4-1.7z" fill="#01065b"/><g stroke-miterlimit="10"><path d="m61.5 43.4 2.6 3.6-.2 6-5.6 5.2 4.4-7.5z" fill="#9393b5" stroke="#01065b" stroke-linecap="round" stroke-linejoin="round" stroke-width=".25"/><path d="m62.7 50.7-1.2-7.3-.3-4-5.6-3h-8.8l-3.7 3.2-1 12 5.9 5.6h10.9z" fill="#f2f2f2" stroke="#01065b" stroke-linecap="round" stroke-linejoin="round" stroke-width=".5"/><path d="m42.5 49.3 19.9-.1" fill="none" stroke="#01065b" stroke-linecap="round" stroke-linejoin="round" stroke-width=".25"/><path d="m43.1 52.4 18.4-.1-3.2 5.9h-9.7z" fill="#f2f2f2" stroke="#01065b" stroke-linecap="round" stroke-linejoin="round" stroke-width=".25"/><path d="m49.3 46-4.1 6.5 8.2-.1z" fill="#0fce7c" stroke="#01065b" stroke-linecap="round" stroke-linejoin="round" stroke-width=".25"/><path d="m46.2 52.3.1-1.2" fill="none" stroke="#e6e7e8" stroke-linecap="round" stroke-linejoin="round" stroke-width=".25"/><path d="m45.5 52.4 3.8-6.1 3.9 6z" fill="none" stroke="#e6e7e8" stroke-linecap="round" stroke-linejoin="round" stroke-width=".25"/><path d="m47.7 52.4.4-4.2" fill="none" stroke="#e6e7e8" stroke-linecap="round" stroke-linejoin="round" stroke-width=".25"/><path d="m49 52.4.3-6.1" fill="none" stroke="#e6e7e8" stroke-linecap="round" stroke-linejoin="round" stroke-width=".25"/><path d="m50.7 52.4.1-3.8" fill="none" stroke="#e6e7e8" stroke-linecap="round" stroke-linejoin="round" stroke-width=".25"/><path d="m51.7 52.4.1-2.3" fill="none" stroke="#e6e7e8" stroke-linecap="round" stroke-linejoin="round" stroke-width=".25"/><path d="m51.2 56.6 2.2-4.2-8.2.1 5.5 4z" fill="#0fce7c" stroke="#01065b" stroke-linecap="round" stroke-linejoin="round" stroke-width=".25"/><path d="m45.8 52.7 4.9 3.6h.3l2-3.6z" fill="none" stroke="#e6e7e8" stroke-width=".25"/><path d="m47.9 53.8c.2-.2.5-.3.8-.1.2.1.6.2.8 0 .1 0 .1-.1.2-.1.2 0 .3.1.4.2.3.1.6-.4.9-.2.1 0 .2.2.3.2.3.1.5-.3.7-.2" fill="none" stroke="#01065b" stroke-linecap="round" stroke-linejoin="round" stroke-width=".25"/><path d="m52.3 44.7 4.4 4.6" fill="none" stroke="#01065b" stroke-linecap="round" stroke-linejoin="round" stroke-width=".25"/><path d="m48.2 45.7-2 3" fill="none" stroke="#01065b" stroke-linecap="round" stroke-linejoin="round" stroke-width=".25"/></g><path d="m48.1 44.8c-1.7-.8-2.9-2.5-2.9-4.4 0-1.2.4-2.2 1.1-3.1.9-1.1 6.5-1.1 7.4-.1.8.9 1.2 2 1.2 3.2 0 2-1.2 3.7-2.9 4.4" fill="#0fce7c"/><path d="m47.8 45.2c-.1 0-.1 0-.2 0-1.9-.9-3.1-2.8-3.1-4.9 0-1 .3-2.1.9-2.9.1-.2.3-.2.5-.1s.2.3.1.5c-.5.8-.7 1.6-.7 2.5 0 1.8 1 3.4 2.7 4.2.2.1.2.3.2.5-.1.1-.2.2-.4.2" fill="#01065b"/><path d="m52.3 45.2c-.1 0-.3-.1-.3-.2-.1-.2 0-.4.2-.5 1.6-.8 2.6-2.4 2.6-4.2 0-1-.3-2-.9-2.8-.1-.2-.1-.4.1-.5s.4-.1.5.1c.7.9 1 2 1 3.2 0 2.1-1.1 3.9-3 4.9-.1-.1-.1 0-.2 0" fill="#01065b"/><path d="m52.7 38.8c0 .7-.6 1.3-1.3 1.3s-1.3-.6-1.3-1.3.6-1.3 1.3-1.3 1.3.6 1.3 1.3" fill="#fff"/><path d="m53.6 40.7c0 .3-.2.5-.5.5s-.5-.2-.5-.5.2-.5.5-.5c.2 0 .5.2.5.5" fill="#fff"/><path d="m48.2 45-5.7 4.3" style="fill:none;stroke:#01065b;stroke-width:.25;stroke-linecap:round;stroke-linejoin:round;stroke-miterlimit:10"/><path d="m50.2 45.6 1.9 3" style="fill:none;stroke:#01065b;stroke-width:.25;stroke-linecap:round;stroke-linejoin:round;stroke-miterlimit:10"/><path d="m64.1 47 .6-3.4-3.5-4.3.7 5.5z" style="fill:#9393b5;stroke:#01065b;stroke-width:.25;stroke-linecap:round;stroke-linejoin:round;stroke-miterlimit:10"/><path d="m43.5 35.8c.8-1.4.8-4.5 1.6-5.9 2.6-4.9 5.5-5.2 9.5-5.9 3.5-.7 7.4.2 10.3 2.3 1 .7 1.9 1.6 2.6 2.6 1.5 2.2 2.5 5.7 2.7 7.5.4 5.8-1.3 3.8-.6 6.3.5 1.7 2.2 4.7 3 6.3 1.3 2.6 1.8 5.8 2.7 8.6.1.4.5.7.2.9-.3.3-.1-.3-.5-.4-1.7-.5-3.6-1.2-4.3-2.8-.3-.7-1-.7-1.2-1.4-.6-1.9-1.6-4.2-2.6-5.9-1.2-2-1.7-4.3-3-6.2-1.4-2.2-3.6-3.8-6.1-4.4s-7.4 1.1-7.4 1.1l-1.4.3-2.5-.4-2.5-.5-2.3.5.5-.9 1.2-1.1z" fill="#fff"/><path d="m67 40c.1-2.3-.2-4.7-.7-7-.2-.9-.5-1.8-1-2.5-.5-.6-1.2-1.1-2-1.4-1.3-.6-2.6-1.1-3.9-1.9-1.2-.8-2.3-1.8-2.7-3.2 0 0 1.8-.2 2.8 0s4.8 1 6.5 3 3.7 4.7 3.8 6.5.3 5.4.1 6.7c-.2 1.4-.5 2.4-.5 2.4l6.1 16.2-1.5-1-1.3-1c-1.9-5.4-3.8-10.7-5.8-16.1z" fill="#f2f2f2"/><path d="m50 38.4c.1-.4.2-.9.3-1.3.4-1.6.9-3.2 1.4-4.8.5-1.7 1-3.5 1.5-5.2.2-.6.4-1.3.7-1.8.5-.9 1.3-1.2 2.3-1.5.5-.1.9 0 1.4.1.9 0 1.7.1 2.6.3 1.6.3 3.2.9 4.6 1.9 1.1.8 2 1.7 2.8 2.7 1.3 1.8 2 3.7 2.4 5.9.1.8.2 1.7.2 2.5.1 1.4-.1 2.8-.3 4.2-.1.5-.2 1-.3 1.5" style="fill:none;stroke:#01065b;stroke-width:.5;stroke-linecap:round;stroke-linejoin:round;stroke-miterlimit:10"/><path d="m56.4 23.7c-.2 0-.4-.1-.6-.1-1-.1-2 .1-2.9.6-.4.2-.7.7-.9 1.2-.8 1.6-1.4 3.3-1.9 5-.6 1.8-1.1 3.6-1.7 5.4-.3.9-.6 1.7-.9 2.6.4.1.9.3 1.4.5h.5c.3-.1.5-.2.8-.3" style="fill:none;stroke:#01065b;stroke-width:.5;stroke-linecap:round;stroke-linejoin:round;stroke-miterlimit:10"/><path d="m50.5 38.2c0-.2.3-1.6.3-1.7.1-.2.2-.3.3-.4.5-.3 1-.5 1.5-.7 1.1-.6 2.3-.7 3.6-.6 1.4.1 2.8.5 4.2 1 1.3.5 2.5 1.3 3.6 2.2 1.2 1 2.4 2 3.6 3.1.6.6 1.2 1.1 1.7 1.7.1.1.2.2.3.4.9 2.3 1.8 4.6 2.7 7s1.8 4.8 2.7 7.3c.2.5.3 1.1.5 1.7-.2.2-.3.4-.5.6-.1.2-1.2 1.1-1.4 1" style="fill:none;stroke:#01065b;stroke-width:.5;stroke-linecap:round;stroke-linejoin:round;stroke-miterlimit:10"/><path d="m52.8 24.2c-.5.1-.9.1-1.3.2-1.2.4-2.2.9-3.2 1.7s-1.9 1.9-2.6 3c-1.1 1.8-1.7 3.8-2.1 5.9 0 .2-.1.5-.1.8 0 .4-.1.7-.4 1-.6.6-1.1 1.1-1.7 1.7-.1.1-.5.7-.6.8" style="fill:none;stroke:#01065b;stroke-width:.5;stroke-linecap:round;stroke-linejoin:round;stroke-miterlimit:10"/><path d="m46.9 60.1c-.1 0-.2 0-.3 0-1.3-.3-2.7-.5-4-1-1-.4-1.9-.8-2.7-1.3-.8-.4-1.5-.9-2.1-1.5-.5-.5-1-1-1.4-1.6.2-.8.4-1.5.6-2.2.7-2.5 1.3-5 2-7.4.5-1.7 1-3.4 1.5-5.1.2-.6.4-1.1 1-1.4.9-.5 1.9-.7 3-.6l1.1.3c1.4 0 2.6.5 3.8 1 .2 0 .3-.1.5-.1l.8-.8h.4l3-.9c.8-.2 1.6-.3 2.4-.2 1.1.2 2.2.6 3.1 1.1 1.3.7 2.4 1.6 3.3 2.8 1 1.3 1.9 2.6 2.6 4.1.6 1.3 1.2 2.6 1.8 3.9.7 1.6 1.3 3.2 2 4.8.2.4.3.8.6 1.1.5.5 1 .9 1.5 1.3.6.4 1.3.8 2 1.1.7.4 1.5.8 1.9 1.5" style="fill:none;stroke:#01065b;stroke-width:.5;stroke-linecap:round;stroke-linejoin:round;stroke-miterlimit:10"/><path d="m57 23.8c-.3.1-.6.2-1 .3-1.1.5-1.9 1.3-2.2 2.4-.4 1.1-.7 2.2-1 3.3s-.6 2.1-.9 3.2c-.3.9-.5 1.8-.8 2.7v.3" style="fill:none;stroke:#01065b;stroke-width:.5;stroke-linecap:round;stroke-linejoin:round;stroke-miterlimit:10"/><path d="m48.3 36.4c-1-.3-2-.3-3-.3-.4 0-.8.1-1.3.2" style="fill:none;stroke:#01065b;stroke-width:.5;stroke-linecap:round;stroke-linejoin:round;stroke-miterlimit:10"/><path d="m47.8 60.2c-.3 0-.5-.1-.8-.1" style="fill:none;stroke:#01065b;stroke-width:.05;stroke-linecap:round;stroke-linejoin:round;stroke-miterlimit:10"/><path d="m58.9 82.3c-.1.3-.1.6 0 .8.2.4.7.4 1.2.4.8 0 1.5-.1 2.3-.3.7-.2 1.4-.7 1.8-1.3.4-.7.3-1.6.4-2.4 0-2.2.6-4.3 1.6-6.2.2-.4.5-1 .1-1.3-.2-.2-.4-.2-.6-.3-.7-.1-2.7-.9-3.3-.4-.7.5-1 2.6-1.3 3.4-.4 1.3-.8 2.5-1.1 3.8-.4 1.2-1.1 2.7-1.1 3.8z" fill="#01065b" opacity=".06"/><path d="m53.8 82.6c0 .3 0 .7.2 1s.5.5.8.5c.3-.1.5-.3.6-.5 1.2-1.8 1-4.1 1.5-6.2.4-1.5 1.2-2.9 1.9-4.3.7-1.3 1.4-2.5 2.2-3.8-1-.1-2-.3-3-.4-.5-.1-1.1-.1-1.4.2-.2.2-.3.6-.4.9-1 4-2.4 8.3-2.4 12.6z" fill="#01065b" opacity=".06"/><path d="m66.6 85.3c.4 3.5-.4 6.9-1.1 10.3-.4 1.9-1 4-2.6 5.1.8-1.9 1.5-3.9 1.5-6s-1.1-4.3-3-5.1c-.5-.2-1.1-.3-1.5-.6-.6-.4-1.1-1.3-.5-1.9.4-.4 1-.2 1.5-.3.3 0 5.7-1.4 5.7-1.5z" fill="#01065b" opacity=".06"/><path d="m47.5 83.8c-.1.5-.1 1 .2 1.4.4.5 1.2.5 1.8.5.3 0 .6 0 .8-.2s.2-.5.2-.8c0-5.7 1.3-11.3 3.7-16.5-.4-.1-.8.1-1.1.4s-.5.7-.6 1.1c-1.7 4.4-2.7 9-2.8 13.7 0 .3 0 .7-.3 1-.4.3-.9 0-1.1-.4-.2-.3 0-.9-.4-1.1-.1.3-.3.6-.4.9z" fill="#01065b" opacity=".06"/><path d="m37.8 85.4c.1 2.4-1.4 4.6-1.7 7.1-.3 2.8 1 5.7 3.4 7.2-1-1.6-2-3.2-2.1-5.1-.1-1.4.2-2.8.6-4.1.2-.8.4-1.6.9-2.3.4-.7 1.2-1.3 2-1.3.3 0 .6 0 .9-.2.8-.7-.6-1.2-1.1-1.1-1.2 0-1.8 0-2.9-.2z" fill="#01065b" opacity=".06"/><path d="m46.2 91.2h6.4c.6 0 1.3 0 1.7.5.3.4.4 1 .4 1.5.1 2.7.1 5.3.2 8-1.3-1.8 0-4.5-1.3-6.3-.7-1-2-1.3-3.1-1.3s-2.4.2-3.5.2-2.4-.5-3.1-1.5c1.1-.6 2.4-.9 3.6-1" fill="#01065b" opacity=".06"/><path d="m49.2 87s7.7-.9 18.5-4.2c0 0-9.5 2.1-18.5-1.2 0 0-5 2.4-12.5.3 0 0 .9 2.8 12.5 5.1z" style="fill:#fff;stroke:#0e2947;stroke-width:.25;stroke-linecap:round;stroke-linejoin:round;stroke-miterlimit:10"/><path d="m52 83.7c0-1.5-1.2-2.7-2.7-2.7s-2.7 1.2-2.7 2.7 1.2 2.7 2.7 2.7c1.4 0 2.7-1.2 2.7-2.7" fill="#25e899"/><path d="m49.2 87c-1.8 0-3.3-1.5-3.3-3.3s1.5-3.3 3.3-3.3 3.3 1.5 3.3 3.3-1.4 3.3-3.3 3.3m0-5.4c-1.2 0-2.1 1-2.1 2.1 0 1.2 1 2.1 2.1 2.1 1.2 0 2.1-1 2.1-2.1.1-1.2-.9-2.1-2.1-2.1" fill="#0e2947"/><path d="m49.3 70.4h.9" fill="none" stroke="#01065b" stroke-miterlimit="10" stroke-width=".25"/><path d="m49.2 72.3c.1-.4.2-.8.3-1.2.1.1.3-.1.4 0 .1 0 .1.1.1.2 0 .4-.2.9-.4 1.3 0 0 0 .1-.1.1h-.1c-.1-.1-.2-.1-.3-.2 0 0 .1-.1.1-.2z" fill="#01065b"/><path d="m63 67.8c0-.1.1-.1.1-.2.1 0 .2.1.3.1-.1.5-.2 1.1-.3 1.6-.1 0-.2 0-.3-.1s-.1-.1-.2-.2c0-.1 0-.1 0-.2.3-.2.4-.7.4-1z" fill="#01065b"/><path d="m49.7 73.5s11.1 1 13.2-3.7c0 0 .1-1.1-.4-.7-4.8 3.7-7.7 3.6-12.6 3.4z" fill="#0c0126" opacity=".47"/><g clip-path="url(#a)"><path d="m48.8 71.2v-.1l.9.2v.4h.3l.1-.4 1 .1v.4h.5v-.3h1.3v.4h.4v-.4l2-.3.2.3.8-.3-.1-.4 2-.7.1.3.8-.3v-.4l2-.8.2.3.7-.2v-.4l1.7-.6.5 1-1.6.9h-.2l-.1-.3-.8.3v.3l-2.1.9-.2-.3-.7.2.1.5-2.1.6-.2-.3-.7.1.1.4-2.1.3-.1-.3-.5.1v.4l-1.2.1v-.4h-.5v.3h-1l-.1-.5-.4-.1v.3l-.9-.4v-.4l-.3-.2v-.2l.2-.1c0 .1 0 .1 0 0z" fill="#bc004d"/><path d="m48.8 71.4v-.1l.9.2v.4h.3l.1-.4 1 .1v.4h.5v-.3h1.3v.4h.4v-.4l2-.3.2.3.8-.3-.1-.4 2-.7.1.3.8-.3v-.4l2-.8.2.3.7-.2v-.4l1.7-.6.5 1-1.6.9h-.2l-.1-.3-.8.3v.3l-2.1.9-.2-.3h-.8l.1.5-2.1.6-.2-.3-.7.1.1.4-2.1.3-.1-.3-.5.1v.4l-1.2.2v-.4h-.5v.3h-1l-.1-.5-.4-.1v.3l-.9-.4v-.4l-.3-.2v-.2h.3c0 .1 0 .1 0 0z" fill="#f9006c"/><g fill="#fff"><path d="m62.5 68.9v.5l1.3-.6-.1-.5z"/><path d="m59.6 70 1.3-.5.1.5-1.4.6z"/><path d="m57.9 70.8v.4l-1.3.3v-.3z"/><path d="m54.9 71.7-.1.4-1.1.2v-.3l.6-.1z"/><path d="m51.8 72.1h.8v.4h-.8z" transform="matrix(.9956 -.09402145 .09402145 .9956 -6.5685 5.2302)"/><path d="m50.9 72.1v.3h-.6v-.3z"/></g><path d="m49.6 71.9-.1.3-.4-.1v-.4z" fill="#15003e"/></g><path d="m63.3 66.7c.2.2.4.3.6.4" fill="none" stroke="#01065b" stroke-miterlimit="10" stroke-width=".25"/><path d="m44.2 96.9s.4 3.5 1.9 4.1 4.8 1 5 .3c0-.2-.3-.6-.3-.6l-1.9.3-3.1-.9z" fill="#e5e5e5"/><path d="m48 95.3c-.1 0-.3-.1-.3-.3v-2c0-.1.1-.3.3-.3.1 0 .3.1.3.3v2c0 .1-.2.3-.3.3z" fill="#141f82"/><path d="m48.1 101.4c-2.2 0-4-1.8-4-3.9 0-2.2 1.8-3.9 4-3.9 1.1 0 2 .4 2.8 1.1l.3.3-1.1 1-.5-.5.6-.5c-.6-.5-1.3-.7-2-.7-1.8 0-3.2 1.4-3.2 3.2s1.5 3.2 3.2 3.2" fill="#141f82"/><path d="m48.1 97c-.3 0-.5.2-.5.5s.2.5.5.5.5-.2.5-.5-.2-.5-.5-.5m0 1.6c-.6 0-1.2-.5-1.2-1.2 0-.6.5-1.2 1.2-1.2.6 0 1.2.5 1.2 1.2s-.5 1.2-1.2 1.2" fill="#141f82"/><path d="m48.4 96.5 2.1-1.9.5.5-2.1 1.9zm2.8 4.9h-3.1v-.7h2.4v-.7l-2.1-1.6.4-.6 2.4 1.8z" fill="#141f82"/><path d="m50.1 99.3-.5-.5c.4-.4.6-.9.6-1.4 0-.6-.2-1.1-.6-1.5l-.3-.3.3-.3.2.3.2-.2c.5.5.8 1.2.8 2 .1.8-.2 1.4-.7 1.9" fill="#42a86b"/><path d="m51.4 93.2.3-.3.3.3-.3.3zm-.9-1 .1-.1.1.1-.1.1zm1.2-1c.1 0 .2.1.2.2s-.1.2-.2.2c-.1 0-.2-.1-.2-.2 0-.1 0-.2.2-.2" fill="#4daa73"/><path d="m46.7 95.7c-.1 0-.2-.1-.2-.2v-2.5c0-.1.1-.2.2-.2s.2.1.2.2v2.5c0 .1-.1.2-.2.2" fill="#141f82"/><path d="m48 95.3h-.3v-.6l.4-.1v.5z" fill="#141f82"/><path d="m46.7 95.7h-.2v-.4l.3-.1z" fill="#141f82"/><path d="m48 92.7h-.3l.1.6.3-.1z" fill="#141f82"/><path d="m46.7 92.7h-.2v.4l.3.3z" fill="#141f82"/><path d="m48.9 96.8h.3s.4.6 0 1.3h-.3s.2-.2.2-.7c0-.1-.2-.6-.2-.6z" fill="#253593"/><path d="m50.9 99.7h.3v1.7h-.3z" fill="#253593"/><path d="m51.4 93.4h.3l.3-.2-.3-.3h-.3z" fill="#4daa73"/><path d="m51.4 91.6h.3v-.4h-.3z" fill="#4daa73"/><path d="m50.3 92.3h.3l.1-.1-.1-.1h-.3z" fill="#4daa73"/><path d="m44.8 95v-2.1l-2.1-.1v-2.8" style="fill:none;stroke:#0fce7c;stroke-width:.15;stroke-linecap:round;stroke-linejoin:round;stroke-miterlimit:10"/><path d="m47.6 101.3-.1 1.1h-2v2.1" style="fill:none;stroke:#0fce7c;stroke-width:.15;stroke-linecap:round;stroke-linejoin:round;stroke-miterlimit:10"/><path d="m43.9 97.6h-.6l.1 1.2h-.8v-2.4h-.8" style="fill:none;stroke:#0fce7c;stroke-width:.15;stroke-linecap:round;stroke-linejoin:round;stroke-miterlimit:10"/><path d="m47.7 95.3c-.1 0-.3-.1-.3-.3v-2c0-.1.1-.3.3-.3.1 0 .3.1.3.3v2c0 .1-.1.3-.3.3z" fill="#01065b"/><path d="m47.9 101.4c-2.2 0-4-1.8-4-3.9 0-2.2 1.8-3.9 4-3.9 1.1 0 2 .4 2.8 1.1l.3.3-1.1 1-.5-.5.6-.5c-.6-.5-1.3-.7-2-.7-1.8 0-3.2 1.4-3.2 3.2s1.5 3.2 3.2 3.2" fill="#01065b"/><path d="m49.9 99.3-.5-.5c.4-.4.6-.9.6-1.4 0-.6-.2-1.1-.6-1.5l-.4-.2.3-.3.2.3.2-.2c.5.5.8 1.2.8 2 .1.7-.1 1.3-.6 1.8" fill="#48b978"/><path d="m47.9 97c-.3 0-.5.2-.5.5s.2.5.5.5.5-.2.5-.5-.3-.5-.5-.5m0 1.6c-.6 0-1.2-.5-1.2-1.2 0-.6.5-1.2 1.2-1.2.6 0 1.2.5 1.2 1.2-.1.7-.6 1.2-1.2 1.2" fill="#01065b"/><path d="m48.1 96.5 2.1-1.9.5.5-2.1 1.9zm2.8 4.9h-3.1v-.7h2.4v-.7l-2.1-1.6.4-.6 2.4 1.8z" fill="#01065b"/><path d="m51.1 93.2.3-.3.3.3-.3.3zm-.9-1 .1-.1.1.1-.1.1zm1.2-1c.1 0 .2.1.2.2s-.1.2-.2.2c-.1 0-.2-.1-.2-.2 0-.1.1-.2.2-.2" fill="#62c08c"/><path d="m46.5 95.7c-.1 0-.2-.1-.2-.2v-2.5c0-.1.1-.2.2-.2s.2.1.2.2v2.5c0 .1-.1.2-.2.2" fill="#01065b"/><path d="m51.2 94.9h-.3s-1-1.3-2.6-1.4c-.3 0 .5 0 1.2.2 1.1.4 1.7 1.2 1.7 1.2z" fill="#253593"/><path d="m52.7 92.1h1.9v1.1h-1.9z" style="fill:#f2f2f2;stroke:#0fce7c;stroke-width:.1;stroke-linecap:round;stroke-linejoin:round;stroke-miterlimit:10"/><path d="m54.9 92.9-.3.3v-1.1l.3-.2z" style="fill:#f2f2f2;stroke:#0fce7c;stroke-width:.1;stroke-linecap:round;stroke-linejoin:round;stroke-miterlimit:10"/><path d="m52.7 92.1.5-.2h1.7l-.3.2z" style="fill:#f2f2f2;stroke:#0fce7c;stroke-width:.1;stroke-linecap:round;stroke-linejoin:round;stroke-miterlimit:10"/><path d="m53.9 93.2.1 11.2h-.7v-11.2z" fill="#f2f2f2" stroke="#0fce7c" stroke-miterlimit="10" stroke-width=".1"/><path d="m54.1 93.2v11.2h-.3v-11.2z" fill="#f2f2f2" stroke="#0fce7c" stroke-miterlimit="10" stroke-width=".1"/><path d="m52.5 96.5h1.9v1.1h-1.9z" style="fill:#f2f2f2;stroke:#0fce7c;stroke-width:.1;stroke-linecap:round;stroke-linejoin:round;stroke-miterlimit:10"/><path d="m54.7 97.3-.3.3v-1.1l.3-.2z" style="fill:#f2f2f2;stroke:#0fce7c;stroke-width:.1;stroke-linecap:round;stroke-linejoin:round;stroke-miterlimit:10"/><path d="m54.1 96.3h.6l-.3.2h-1.9l.5-.2h.3" style="fill:none;stroke:#0fce7c;stroke-width:.1;stroke-linecap:round;stroke-linejoin:round;stroke-miterlimit:10"/><path d="m52.5 100.8h1.9v1.1h-1.9z" style="fill:#f2f2f2;stroke:#0fce7c;stroke-width:.1;stroke-linecap:round;stroke-linejoin:round;stroke-miterlimit:10"/><path d="m54.7 101.6-.3.3v-1.1l.3-.2z" style="fill:#f2f2f2;stroke:#0fce7c;stroke-width:.1;stroke-linecap:round;stroke-linejoin:round;stroke-miterlimit:10"/><path d="m54.1 100.6h.6l-.3.2h-1.9l.5-.2h.3" style="fill:none;stroke:#0fce7c;stroke-width:.1;stroke-linecap:round;stroke-linejoin:round;stroke-miterlimit:10"/><path d="m52.5 104.1h1.9v1.1h-1.9z" style="fill:#f2f2f2;stroke:#0fce7c;stroke-width:.05;stroke-linecap:round;stroke-linejoin:round;stroke-miterlimit:10"/><path d="m54.7 105-.3.2v-1.1l.3-.1z" style="fill:#f2f2f2;stroke:#0fce7c;stroke-width:.1;stroke-linecap:round;stroke-linejoin:round;stroke-miterlimit:10"/><path d="m52.5 104.1.5-.2 1.7.1-.3.1z" style="fill:none;stroke:#0fce7c;stroke-width:.1;stroke-linecap:round;stroke-linejoin:round;stroke-miterlimit:10"/><path d="m49.7 71.3-.2 1.3" fill="none" stroke="#2034a8" stroke-miterlimit="10" stroke-width=".05"/><path d="m63.2 67.9-.1 1.4" fill="none" stroke="#2034a8" stroke-miterlimit="10" stroke-width=".05"/><path d="m42.5 44.5h19.3v.8h-19.3z" fill="#01065b"/><path d="m67.9 43.6c.7 1.8 1.3 3.7 1.9 5.5.6 1.9 1.2 3.7 1.7 5.6-.7-1.8-1.3-3.7-1.9-5.5s-1.2-3.7-1.7-5.6z" fill="#0fce7c"/><path d="m44.3 35.8c.3-.2.4-.6.5-1l.3-1.1c.2-.7.5-1.5 1-2-.3.7-.6 1.4-.8 2.1-.1.4-.2.7-.4 1.1-.1.4-.2.8-.6.9z" fill="#0fce7c"/><path d="m47.1 30.6c.2-.5.4-1 .6-1.6.2-.5.5-1 .8-1.5.3-.4.8-.8 1.2-1.2.5-.3 1-.5 1.5-.8l-1.4 1c-.4.3-.8.7-1.1 1.2-.3.4-.6.9-.8 1.4-.2.6-.5 1.1-.8 1.5z" fill="#0fce7c"/><path d="m55.2 26.7c1.1-.6 2.5-.6 3.6.1-1.2-.3-2.4-.3-3.6-.1z" fill="#0fce7c"/><path d="m64.3 30.8c1.8 2.1 2.5 5 1.9 7.6.3-2.6-.4-5.3-1.9-7.6z" fill="#0fce7c"/><path d="m55.5 10.8-46.1 26.6v53.9l46 26.8 46.1-27.6v-53.1zm44.3 78.7-44.3 26.5-44.1-25.8v-51.8l44.2-25.4 44.2 25.5z" fill="#e6e7e8"/><path d="m66.6 117.2 1.6-.9.1.1c.2.3.3.6.3.8v.8c-.1.6-.5 1.1-1 1.4s-1.1.4-1.7.2-1.1-.5-1.4-1.1c-.3-.5-.4-1.1-.2-1.7s.5-1.1 1.1-1.4c.3-.2.6-.3.9-.3s.7 0 1.1.2l-.2.6c-.5-.2-1-.2-1.5 0-.4.2-.7.6-.8 1s-.1.8.2 1.3c.2.4.6.7 1.1.8.4.1.8 0 1.1-.2s.5-.4.6-.7.1-.6 0-.9l-.9.5z" fill="#15003e"/><path d="m70.2 112.8h.7v4.4h-.7z" fill="#15003e" transform="matrix(.8665 -.4992 .4992 .8665 -48.0055 50.572)"/><path d="m73.3 111.6 1.9 3.3-.6.3-1.9-3.2-.8.5-.3-.6 2.3-1.3.3.5z" fill="#15003e"/><path d="m78.5 108.2.4.7c-.5-.1-.9 0-1.3.2s-.6.6-.7 1 0 .9.2 1.3.6.7 1 .8.8.1 1.2-.2c.2-.1.4-.2.5-.4.1-.1.1-.2.2-.3s.1-.2.2-.4l.4.7c-.2.4-.5.7-.9.9-.5.3-1.1.4-1.7.2s-1.1-.5-1.4-1-.4-1-.3-1.6c.1-.7.5-1.2 1.1-1.6.3-.2.6-.3 1.1-.3" fill="#15003e"/><path d="m81.2 108c-.3-.5-.4-1.1-.2-1.7s.5-1.1 1.1-1.4c.5-.3 1.1-.4 1.7-.2s1.1.5 1.4 1.1c.3.5.4 1.1.2 1.7s-.5 1.1-1.1 1.4c-.5.3-1 .4-1.6.3-.6-.2-1.1-.5-1.5-1.2m.6-.3c.2.4.6.7 1 .8s.8.1 1.2-.2c.4-.2.7-.6.8-1s.1-.9-.2-1.3c-.2-.4-.6-.7-1-.8s-.8-.1-1.2.2c-.4.2-.6.6-.8 1-.1.5 0 .9.2 1.3" fill="#fff"/><path d="m87.2 103.1h.7v4.4h-.7z" fill="#15003e" transform="matrix(.8663 -.4995 .4995 .8663 -40.874 57.7872)"/><path d="m91.1 105.7-2.3-4 4.4 1.3-1.5-2.7.6-.3 2.3 4-4.4-1.3 1.5 2.7z" fill="#15003e"/><path d="m25 90.7c.6-2.5 1.4-5.1 2.3-7.5.9-2.5 2.1-4.8 3.6-7s3.4-4.1 5.7-5.6c1.1-.7 2.3-1.3 3.6-1.8 1.3-.4 2.6-.7 3.9-.7-2.6.5-5 1.6-7 3.1-2.1 1.5-3.8 3.4-5.3 5.5s-2.6 4.4-3.7 6.8c-1.2 2.3-2.1 4.8-3.1 7.2z" fill="#01065b" opacity=".06"/><path d="m26.2 80.4c.8-3.9 3.1-7.4 6.1-10.1 3-2.6 6.8-4.5 10.7-4.8-3.8 1.1-7.2 3-10.1 5.5-2.8 2.6-5.1 5.8-6.7 9.4z" fill="#01065b" opacity=".06"/><path d="m69.2 67.8c1.4.4 2.6 1 3.7 1.9s2.1 2 2.9 3.1c1.6 2.3 2.5 5.1 3.1 7.9.5 2.8.7 5.6.9 8.3.1 1.4.2 2.8.4 4.1.1 1.4.4 2.7.7 4.1-.5-1.3-.8-2.7-1.2-4-.3-1.4-.5-2.8-.7-4.1-.4-2.8-.6-5.5-1.1-8.2s-1.3-5.3-2.7-7.6c-.7-1.2-1.6-2.2-2.6-3.2-.9-.9-2.1-1.7-3.4-2.3z" fill="#01065b" opacity=".06"/><path d="m71.2 65.1c1.3.3 2.5.8 3.7 1.5s2.2 1.5 3.2 2.4c2 1.8 3.6 4.1 4.7 6.6s1.8 5.1 2.2 7.7c.2 1.3.3 2.7.3 4s0 2.7-.1 4c-.1-1.3-.2-2.6-.4-4-.1-1.3-.3-2.6-.6-3.9-.5-2.6-1.2-5.1-2.3-7.4-1.1-2.4-2.5-4.5-4.3-6.4-1.8-2-4-3.5-6.4-4.5z" fill="#01065b" opacity=".06"/></svg>