<svg width="730" height="843" viewBox="0 0 730 843" xmlns="http://www.w3.org/2000/svg" xmlns:xlink="http://www.w3.org/1999/xlink"><defs><path id="a" d="M333.445.775l-333 185 14 370 336 199 332-197-22-390z"/></defs><g fill="none" fill-rule="evenodd"><path fill="#2E3192" fill-rule="nonzero" d="M668.156 596.559v-349.91L364.945 71.694 61.733 246.649v349.91l303.212 174.955z"/><g transform="translate(20 51)" opacity=".48"><mask id="b" fill="#fff"><use xlink:href="#a"/></mask><g opacity=".51" mask="url(#b)" fill="#FFF" font-family="Helvetica" font-size="24.965"><text transform="translate(-90 -2)"><tspan x=".844" y="24.65">00111101 0011010 0 1100 10 000111101 0011010 0 1100</tspan></text><text transform="translate(-90 -2)"><tspan x=".844" y="51.865">001 0011 010 0 110 00001 0011 010 0 110 00</tspan></text><text transform="translate(-90 -2)"><tspan x=".844" y="79.08">0 101 00 11010 0 1100 100000 01 00 11 010 0 1100 100000</tspan></text><text transform="translate(-90 -2)"><tspan x=".844" y="160.724">0 101 00 1 00 100 000 101 00 110 10 0 110</tspan></text><text transform="translate(-90 -2)"><tspan x=".844" y="106.295">00111 00 110 10 0 110 0 10 011 00 11 0 10 0 11</tspan></text><text transform="translate(-90 -2)"><tspan x=".844" y="133.517">001 010 0 110 0 1 010 0 110 0 100</tspan></text><text transform="translate(-90 -2)"><tspan x=".844" y="187.947">00111101 0011010 0 1100 10 11101 0011010 0 1100</tspan></text><text transform="translate(-90 -2)"><tspan x=".844" y="215.162">001 0011 010 0 110 00001 0011 010 0 110 00</tspan></text><text transform="translate(-90 -2)"><tspan x=".844" y="242.377">0 101 00 1 00 100000 01 00 11 010 0 1100 100000</tspan></text><text transform="translate(-90 -2)"><tspan x=".844" y="324.017">0 101 00 11010 0 1100 100 000 101 00 110 10 0 110</tspan></text><text transform="translate(-90 -2)"><tspan x=".844" y="269.592">00111 0 110 0 10 011 00 11 0 10 0 11</tspan></text><text transform="translate(-90 -2)"><tspan x=".844" y="296.803">001 010 0 110 0 100 01 010 0 110 0 100</tspan></text><text transform="translate(-90 -2)"><tspan x=".844" y="351.232">00111101 0011010 0 11101 0011010 0 1100</tspan></text><text transform="translate(-90 -2)"><tspan x=".844" y="378.447">001 0 0 0 110 00001 0011 010 0 110 00</tspan></text><text transform="translate(-90 -2)"><tspan x=".844" y="405.662">0 101 00 11 100 100000 01 00 11 010 0 1100 100000</tspan></text><text transform="translate(-90 -2)"><tspan x=".844" y="487.314">0 101 00 11010 0 1100 100 000 101 00 110 10 0 110</tspan></text><text transform="translate(-90 -2)"><tspan x=".844" y="432.885">00111 00 110 10 0 110 0 10 011 00 11 0 10 0 11</tspan></text><text transform="translate(-90 -2)"><tspan x=".844" y="460.092">001 010 0 110 0 100 01 010 0 110 0 100</tspan></text><text transform="translate(-90 -2)"><tspan x=".844" y="568.959">0 101 00 11010 0 1100 100 000 101 00 110 10 0 110</tspan></text><text transform="translate(-90 -2)"><tspan x=".844" y="514.529">00111 0 110 0 10 011 00 11 0 10 0 11</tspan></text><text transform="translate(-90 -2)"><tspan x=".844" y="541.744">001 010 0 110 0 100 01 010 0 110 0 100</tspan></text><text transform="translate(-90 -2)"><tspan x=".844" y="596.174">00111101 0011010 0 11101 0011010 0 1100</tspan></text><text transform="translate(-90 -2)"><tspan x=".844" y="623.388">001 0 0 0 110 00001 0011 010 0 110 00</tspan></text><text transform="translate(-90 -2)"><tspan x=".844" y="650.603">0 101 00 11 100 100000 01 00 11 010 0 1100 100000</tspan></text><text transform="translate(-90 -2)"><tspan x=".844" y="732.252">0 101 00 11010 0 1100 100 000 101 00 110 10 0 110</tspan></text><text transform="translate(-90 -2)"><tspan x=".844" y="677.818">00111 00 110 10 0 110 0 10 011 00 11 0 10 0 11</tspan></text><text transform="translate(-90 -2)"><tspan x=".844" y="705.033">001 010 0 110 0 100 01 010 0 110 0 100</tspan></text></g></g><g fill-rule="nonzero"><path d="M365.274 771.185L62.062 596.23V246.32L365.274 71.365 668.486 246.32v349.91L365.274 771.185zM.236 631.748L365.274 842.22l364.38-210.472V210.802L365.274.33.236 210.802v420.946z" fill="#662D91"/><path d="M77.847 255.528L365.274 89.781l286.769 165.747v331.494L365.274 752.769 77.847 587.022V255.528zm-15.128-9.208v349.91l302.555 174.955L667.827 596.23V246.977L365.274 72.022 62.719 246.32z" opacity=".13" fill="#000"/></g><path d="M532.007 272.958c-1.315-5.919-21.705-9.866-46.698-9.866h-2.631c-1.974-5.919-7.893-9.865-14.471-9.865-2.631 0-4.604.657-6.577 1.315-1.315-12.497-12.497-23.021-25.651-23.021-7.234 0-13.154 2.631-17.758 7.234-4.604-11.181-15.128-19.074-27.625-19.074-1.973 0-3.289 0-5.262.658-4.604-11.839-15.785-19.731-28.282-21.705-1.315-13.154-12.497-24.336-25.651-24.336-14.47 0-26.31 11.839-26.31 26.31v1.973c-13.154 2.631-23.02 13.813-23.02 27.625 0 1.315 0 3.288.657 4.604h-.657c-13.155 0-23.679 9.866-24.336 23.021-7.235-1.973-16.443-2.631-25.651-2.631-25.651 0-46.698 7.235-46.698 15.786 0 1.315.657 1.973 1.315 3.288-20.39 1.315-32.887 4.604-36.176 6.577-36.175 18.417 134.834 13.813 165.747 11.182 30.913-2.631 140.096-2.631 167.063-1.974 26.31.658 110.498 2.631 100.632-9.865-5.919-4.605-33.544-5.263-51.96-7.236z" fill="#92C1F4" fill-rule="nonzero"/><g fill-rule="nonzero"><path fill="#FCF295" d="M355.737 290.058l-55.908-29.597 55.908-28.94 55.906 28.94z"/><path fill="#FCEE21" d="M355.737 503.82V290.058l-55.249-28.939V474.88z"/><path fill="#B7A611" d="M355.737 503.82V290.058l55.249-28.939V474.88z"/><path fill="#FCF295" d="M282.729 387.402l-55.906-28.939 55.906-29.598 55.249 29.598z"/><path fill="#FCEE21" d="M282.729 541.968V387.402l-55.906-28.939v154.565z"/><path fill="#B7A611" d="M282.729 541.968V387.402l55.249-28.939v154.565z"/><path fill="#FCF295" d="M209.721 503.162l-55.249-29.598 55.249-28.939 55.907 28.939z"/><path fill="#FCEE21" d="M209.721 580.116v-76.954l-55.249-28.94v76.955z"/><path fill="#B7A611" d="M209.721 580.116v-76.954l55.907-28.94v76.955z"/><path fill="#8CC63F" d="M434.663 364.382l-55.906-29.598 55.906-28.94 55.249 28.94z"/><path fill="#39B54A" d="M434.663 543.283V364.382l-55.906-29.598v179.56z"/><path fill="#009245" d="M434.663 543.283V364.382l55.249-29.598v179.56z"/><path fill="#8CC63F" d="M360.998 461.067l-55.249-29.598 55.249-28.939 55.907 28.939z"/><path fill="#39B54A" d="M360.998 581.431V461.067l-55.249-28.939v120.364z"/><path fill="#009245" d="M360.998 581.431V461.067l55.907-28.939v120.364z"/><path fill="#8CC63F" d="M288.649 542.626l-55.908-29.598 55.908-28.94 55.906 28.94z"/><path fill="#39B54A" d="M288.649 619.58v-76.954L233.4 513.028v77.611z"/><path fill="#009245" d="M288.649 619.58v-76.954l55.249-29.598v77.611z"/><path fill="#78D3F4" d="M512.933 433.443l-55.249-28.94 55.249-29.598 55.907 29.598z"/><path fill="#29ABE2" d="M512.933 582.747V433.443l-55.249-28.94v148.646z"/><path fill="#0071BC" d="M512.933 582.747V433.443l55.907-28.94v148.646z"/><path fill="#78D3F4" d="M439.925 524.867l-55.249-29.598 55.249-28.939 55.907 28.939z"/><path fill="#29ABE2" d="M439.925 620.895v-96.028l-55.249-28.94v96.028z"/><path fill="#0071BC" d="M439.925 620.895v-96.028l55.249-28.94v96.028z"/><path fill="#78D3F4" d="M367.575 581.431l-55.906-28.939 55.906-29.598 55.249 29.598z"/><g><path fill="#29ABE2" d="M367.575 659.043v-77.612l-55.906-28.939v77.611z"/><path fill="#0071BC" d="M367.575 659.043v-77.612l55.249-28.939v77.611z"/></g></g></g></svg>