<svg enable-background="new 0 0 110.979 128.417" viewBox="0 0 110.979 128.417" xmlns="http://www.w3.org/2000/svg"><g transform="translate(.153729 .373816)"><path d="m55.556 127.881-55.139-31.834v-63.67l55.139-31.835 55.14 31.835v63.669z" fill="#ff826e" stroke="#000" stroke-width="1.8"/><path d="m55.555 10.618-46.482 26.798v53.594l46.482 26.795 46.485-26.795v-53.594zm44.603 79.312-44.603 25.716-44.604-25.716v-51.424l44.604-25.716 44.603 25.716z"/><path d="m55.422 116.822-45.313-26.162v-52.323l45.313-26.162 45.314 26.162v52.323z" fill-opacity=".295238"/></g><g transform="matrix(.14957119 0 0 .13957699 18.506761 23.950938)"><path d="m488 424v32c0 17.67969-14.32031 32-32 32h-416c-17.679688 0-32-14.32031-32-32v-32h176v16c0 8.80078 7.19922 16 16 16h96c8.80078 0 16-7.19922 16-16v-16zm0 0" fill="#838f9b"/><path d="m312 424v16c0 8.80078-7.19922 16-16 16h-96c-8.80078 0-16-7.19922-16-16v-16zm0 0" fill="#e6e9ed"/><path d="m352 120c4.39844 0 8-3.60156 8-8v-8h80c17.67969 0 32 14.32031 32 32v288h-32v-280c0-4.39844-3.60156-8-8-8h-96.39844c-.40234-5.51953-1.4414-10.87891-2.88281-16zm0 0" fill="#ccd1d9"/><path d="m144 120h19.28125c-.80078 2.64063-1.35938 5.35938-1.92188 8.07812-.48046 2.64063-.80078 5.28125-1.03906 7.92188h-96.32031c-4.398438 0-8 3.60156-8 8v280h-32v-288c0-17.67969 14.320312-32 32-32h80v8c0 4.39844 3.60156 8 8 8zm0 0" fill="#ccd1d9"/><path d="m432 136h-96.39844c.32031 2.64062.39844 5.28125.39844 8 0 23.35937-9.12109 44.48047-24 60.23828v43.76172c0 4.39844-3.60156 8-8 8h-112c-4.39844 0-8-3.60156-8-8v-43.76172c-16.55859-17.51953-26-41.75781-23.67969-68.23828h-96.32031c-4.398438 0-8 3.60156-8 8v280h384v-280c0-4.39844-3.60156-8-8-8zm0 0" fill="#69d6f4"/><path d="m323.44141 19.441406 20.55859 68.558594h-192l20.55859-68.558594c2.08203-6.800781 8.24219-11.441406 15.36328-11.441406h120.15625c7.1211 0 13.28125 4.640625 15.36329 11.441406zm0 0" fill="#656d78"/><path d="m352 88h-208c-4.39844 0-8 3.601562-8 8v16c0 4.39844 3.60156 8 8 8h208c4.39844 0 8-3.60156 8-8v-16c0-4.398438-3.60156-8-8-8zm0 0" fill="#969faa"/><path d="m280 256h-88c-4.39844 0-8-3.60156-8-8v-43.76172c-16.55859-17.51953-26-41.75781-23.67969-68.23828.23828-2.64063.5586-5.28125 1.03906-7.92188.5625-2.71874 1.1211-5.43749 1.92188-8.07812h169.4375c1.44141 5.12109 2.48047 10.48047 2.88281 16 .32031 2.64062.39844 5.28125.39844 8 0 23.35937-9.12109 44.48047-24 60.23828v43.76172c0 4.39844-3.60156 8-8 8zm0 0" fill="#e6e9ed"/><path d="m302.71875 137.19922c3.04297 9.03906.64062 19.03906-6.07813 25.83984-3.19921 3.19922-7.51953 4.96094-12 4.96094-4.71875 0-8.96093-1.92188-12.08203-4.96094-3.03906-3.03906-4.95703-7.35937-4.95703-12v-7.03906l32-16zm0 0" fill="#ff826e"/><path d="m228.39844 144v7.03906c0 4.64063-1.91797 8.96094-4.95703 12-3.1211 3.03906-7.36329 4.96094-12.08204 4.96094-4.48046 0-8.80078-1.76172-12-4.96094-6.71875-6.80078-9.12109-16.80078-6.07812-25.83984l3.11719-9.19922zm0 0" fill="#ff826e"/><path d="m480 416v-280c0-22.05469-17.94531-40-40-40h-72c0-8.824219-7.17578-16-16-16h-2.04688l-18.86328-62.894531c-3.07422-10.234375-12.3125-17.105469-22.99218-17.105469h-120.19532c-10.67968 0-19.91797 6.871094-22.99218 17.105469l-18.86329 62.894531h-2.04687c-8.82422 0-16 7.175781-16 16h-72c-22.054688 0-40 17.94531-40 40v280h-16v40c0 22.05469 17.945312 40 40 40h416c22.05469 0 40-17.94531 40-40v-40zm-40-304c13.23047 0 24 10.76953 24 24v280h-16v-272c0-8.82422-7.17578-16-16-16h-80c8.82422 0 16-7.17578 16-16zm-72 80v224h-16v-48h-16v48h-176v-48h-16v48h-16v-224h-16v224h-48v-272h16v104h16v-104h56.15234c.008 23.32031 8.21485 45.65625 23.84766 63.36719v40.63281c0 8.82422 7.17578 16 16 16h112c8.82422 0 16-7.17578 16-16v-40.63281c15.50391-17.58203 24-39.96094 24-63.36719h56v104h16v-104h16v272h-48v-224zm-176 240h112v8c0 4.40625-3.59375 8-8 8h-96c-4.40625 0-8-3.59375-8-8zm0-336v16h-16v-16zm136 48c0 20.39062-7.75391 39.84766-21.82422 54.79297l-2.17578 2.30469v46.90234h-16v-40h-16v40h-16v-40h-16v40h-16v-40h-16v40h-16v-46.90234l-2.17578-2.3125c-17.52734-18.60938-25.01563-43.86329-20.54297-69.28907.0859-.51172.23828-1 .34375-1.5039h18.3125l-2.22656 6.67187c-4.00781 12.01563-.92578 25.05469 8.03125 34.01563 4.71484 4.71875 10.97656 7.32031 17.64844 7.32031 13.76953 0 24.96875-11.19922 24.96875-24.96875v-11.97656l-22.10157-11.05469h67.4961l-22.11329 11.05469v11.97656c0 13.76953 11.19922 24.96875 24.96875 24.96875 6.67188 0 12.94141-2.60156 17.65625-7.3125 8.95704-8.96094 12.03907-22 8.03125-34.00781l-2.22656-6.67969h18.13672c1.06641 5.25781 1.79297 10.59375 1.79297 16zm-126.96875-4.71875 19.32812 9.66406v2.08594c0 4.94531-4.02343 8.96875-8.96875 8.96875-2.39843 0-4.64843-.9375-6.34375-2.625-4.64843-4.64844-6.23828-11.40625-4.16796-17.64844zm89.92187 18.09375c-1.69531 1.6875-3.95312 2.625-6.34375 2.625-4.94531 0-8.96875-4.02344-8.96875-8.96875v-2.08594l19.32813-9.66406.15234.45312c2.07032 6.23438.48047 12.99219-4.16797 17.64063zm13.04688-45.375v-16h16v16zm-16 0h-16v-16h16zm-32 0h-16v-16h16zm-32 0h-16v-16h16zm128 0h-16v-16h16zm-171.76172-90.296875c1.02734-3.40625 4.10547-5.703125 7.66406-5.703125h120.1875c3.5586 0 6.63672 2.296875 7.66407 5.695312l17.49218 58.304688h-170.49218zm-20.23828 74.296875v16h-16v-16zm-128 40c0-13.23047 10.769531-24 24-24h72c0 8.82422 7.17578 16 16 16h-80c-8.824219 0-16 7.17578-16 16v272h-16zm448 320c0 13.23047-10.76953 24-24 24h-416c-13.230469 0-24-10.76953-24-24v-24h160v8c0 13.23047 10.76953 24 24 24h96c13.23047 0 24-10.76953 24-24v-8h160zm0 0"/><path d="m80 264h16v16h-16zm0 0"/><path d="m80 296h16v104h-16zm0 0"/><path d="m112 160h16v16h-16zm0 0"/><path d="m144 208h16v16h-16zm0 0"/><path d="m144 240h16v80h-16zm0 0"/><path d="m144 336h16v16h-16zm0 0"/><path d="m400 264h16v16h-16zm0 0"/><path d="m400 296h16v104h-16zm0 0"/><path d="m368 160h16v16h-16zm0 0"/><path d="m336 208h16v16h-16zm0 0"/><path d="m336 240h16v80h-16zm0 0"/><path d="m336 336h16v16h-16zm0 0"/><path d="m240 352h16v48h-16zm0 0"/><path d="m240 280h16v56h-16zm0 0"/><path d="m176 280h16v16h-16zm0 0"/><path d="m176 312h16v88h-16zm0 0"/><path d="m208 280h16v120h-16zm0 0"/><path d="m304 280h16v16h-16zm0 0"/><path d="m304 312h16v88h-16zm0 0"/><path d="m272 280h16v120h-16zm0 0"/></g></svg>