<?xml version="1.0" encoding="utf-8"?>
<!-- Generator: Adobe Illustrator 16.0.0, SVG Export Plug-In . SVG Version: 6.00 Build 0)  -->
<!DOCTYPE svg PUBLIC "-//W3C//DTD SVG 1.1//EN" "http://www.w3.org/Graphics/SVG/1.1/DTD/svg11.dtd">
<svg version="1.1" id="Layer_11" xmlns="http://www.w3.org/2000/svg" xmlns:xlink="http://www.w3.org/1999/xlink" x="0px" y="0px"
	 width="128px" height="111px" viewBox="0 0 128 111" enable-background="new 0 0 128 111" xml:space="preserve">
<polygon fill="#13A36F" points="32.319,110.926 0.319,55.5 32.319,0.074 96.319,0.074 128.319,55.5 96.319,110.926 "/>
<polygon fill="#1EC498" points="117.14,56 90.59,102 37.46,102 31.44,91.574 31.32,91.327 31.26,91.204 31.2,91.087 30.58,90.004 
	29.48,88.102 29.42,88.001 28.84,87 26.53,83 25.37,81 24.21,79 23.71,78.14 23.63,78 21.32,74 19.58,71 19.37,70.64 18.42,69 
	17.63,67.63 16.95,66.46 15.53,64 14.37,62 13.82,61.05 13.79,61 13.22,60 12.96,59.55 12.64,59 10.9,56 11.11,55.63 13.17,52.08 
	14.74,49.37 14.82,49.23 16.12,46.98 16.13,46.97 16.39,46.51 16.52,46.215 18.34,43 18.35,43 21.32,37.935 22.32,36.228 
	22.47,35.984 23.05,34.937 37.46,10 90.59,10 "/>
<path fill="#13A36F" d="M111.691,66.582c-0.094-0.081-0.188-0.162-0.281-0.242c-0.944-0.813-1.974-1.198-2.982-1.267
	c-13.373-2.86-28.254-2.225-42.333-0.132c-8.183,1.216-16.514,3.691-24.11,6.96c-5.836,2.512-14.006,6.049-18.021,11.188
	c-3.92,5.018,3.104,12.148,7.071,7.07c3.526-4.515,11.324-7.752,16.525-9.797c6.792-2.671,14.003-4.582,21.192-5.779
	c12.517-2.083,25.84-2.449,38.074,0.354C111.381,75.982,115.712,70.044,111.691,66.582z"/>
<path fill="#13A36F" d="M112.079,34.179c-17.392-4.181-36.446-4.331-53.578,0.789c-9.081,2.713-17.718,6.512-26.105,10.894
	c-4.251,2.221-8.36,4.577-12.222,7.43c-3.4,2.512-5.977,6.044-9.447,8.392c-5.309,3.591-0.311,12.259,5.047,8.635
	c2.977-2.014,5.3-4.563,7.86-7.053c3.017-2.934,6.977-5.07,10.64-7.072c7.563-4.133,15.252-7.672,23.409-10.462
	c16.144-5.522,33.964-5.962,50.63-2.156c0.842,0.367,1.813,0.526,2.892,0.372c0.292-0.042,0.583-0.083,0.875-0.125
	C117.103,43.104,116.62,35.271,112.079,34.179z"/>
<path fill="#13A36F" d="M88.5,1.375c-6.041-0.568-11.859,1.384-17.563,3.12c-6.281,1.911-12.65,3.552-18.871,5.65
	c-6.076,2.049-11.916,4.753-17.526,7.842c-5.495,3.026-11.906,5.816-16.45,10.228c-4.633,4.499,2.445,11.563,7.071,7.071
	c3.4-3.302,8.616-5.485,12.743-7.746c5.467-2.995,10.938-5.661,16.82-7.752c5.61-1.995,11.434-3.428,17.138-5.128
	c5.432-1.619,10.881-3.826,16.639-3.284C94.921,11.979,94.863,1.973,88.5,1.375z"/>
<path fill-rule="evenodd" clip-rule="evenodd" fill="#FFC37B" d="M72.422,62.113c-0.025-0.013-0.038-0.016-0.056-0.022
	c-0.008-0.01-0.011-0.016-0.021-0.028c-0.58-0.669-1.704-0.592-2.295,0c-0.659,0.658-0.579,1.627,0,2.295
	c0.201,0.232,0.456,0.427,0.734,0.558c0.798,0.38,1.744,0.229,2.22-0.582C73.422,63.62,73.222,62.491,72.422,62.113z"/>
<path fill-rule="evenodd" clip-rule="evenodd" fill="#FFC37B" d="M77.104,66.524c-0.198-0.037-0.366,0.013-0.498,0.104
	c-0.07-0.255-0.198-0.493-0.406-0.678c-0.367-0.325-0.645-0.728-0.981-1.082c-0.287-0.305-0.681-0.452-1.079-0.465
	c-0.071-0.134-0.138-0.267-0.222-0.399c-0.058-0.201-0.123-0.397-0.209-0.587c-0.137-0.303-0.474-0.368-0.756-0.274
	c-0.204-0.208-0.409-0.402-0.602-0.557c-1.505-1.212-3.666-3.313-5.7-3.374c-1.254-0.037-2.448-0.5-3.683-0.379
	c-1.039,0.102-1.996,0.839-2.995,1.097c-0.979,0.251-1.989,0.332-2.891,0.624c-0.316,0.026-0.633,0.048-0.955,0.057
	c-0.362,0.034-0.569,0.299-0.614,0.578c-0.26-0.102-0.491-0.209-0.676-0.315c-0.446-0.259-1.081-0.191-1.362,0.27
	c-0.726,1.19-0.588,3.053-0.35,4.557c-0.276-0.128-0.565-0.084-0.844,0.082c-1.208-0.23-1.882,0.879-2.016,1.979
	c-0.101,0.833-0.019,2.2,0.823,2.658c0.191,0.221,0.456,0.378,0.813,0.436c0.344,0.055,0.703-0.084,0.798-0.453
	c0.134-0.521,0.123-1.007,0.043-1.537c-0.099-0.67-0.016-1.239,0.101-1.864c0.067,0.015,0.133,0.015,0.196,0.003
	c0.023,0.04,0.051,0.076,0.084,0.112c-0.043,1.646,0.086,3.335,0.044,4.985c-0.012,0.441,0.003,0.901,0.028,1.369
	c-0.003,0.154-0.005,0.308-0.008,0.461c-0.018,1.243,0.303,2.694-0.01,3.908c-0.03,0.116-0.127,0.218-0.104,0.313
	C53.079,78.288,53,78.434,53,78.594v0.305c0,0.518,0.312,0.917,0.616,1.188c0.266,0.795,0.75,1.519,1.142,2.306
	c0.194,0.391,0.689,0.378,0.986,0.162c0.146,0.106,0.322,0.193,0.507,0.242c0.048,0.013,0.068,0.021,0.091,0.024
	c0.021,0.014,0.038,0.027,0.077,0.049c0.073,0.04,0.155,0.046,0.231,0.074c0.671,0.618,1.445,0.967,2.345,1.124
	c0.578,0.326,1.199,0.526,1.875,0.729c0.087,0.027,0.171,0.033,0.249,0.025c0.154,0.06,0.31,0.117,0.465,0.172
	c-0.073,0.099-0.116,0.221-0.108,0.366c0.034,0.69,0.171,1.342,0.348,2.01c0.039,0.146,0.116,0.255,0.212,0.33
	c0.015,0.029,0.023,0.065,0.041,0.091c0.039,0.86,0.349,1.618,1.285,1.469c0.018,0.006,0.029,0.018,0.05,0.023
	c0.556,0.135,1.304,0.429,1.979,0.441c0.069,0.008,0.137,0.004,0.205-0.007c0.232-0.019,0.452-0.078,0.647-0.197
	c0.098,0.021,0.204,0.018,0.323-0.022c0.313-0.104,0.565-0.228,0.775-0.365c0.339,0.015,0.706-0.258,0.728-0.639
	c0.009-0.164,0.009-0.327,0.011-0.491c0.003-0.046,0.002-0.094,0.002-0.142c0-0.026,0.002-0.052,0.002-0.078
	c0.085-0.295,0.08-0.546,0.007-0.758c0.382-0.59,0.56-1.483,0.412-2.19c0.067-0.043,0.133-0.086,0.199-0.128
	c0.241-0.052,0.479-0.114,0.718-0.185c0.008,0.031,0.015,0.063,0.023,0.092c0.129,0.424,0.763,0.687,1.084,0.286
	c0.389-0.485,0.701-1.003,1.006-1.537c0.59-0.222,1.155-0.494,1.614-0.965c0.173-0.179,0.322-0.365,0.455-0.555
	c0.15-0.077,0.29-0.173,0.398-0.311c0.154-0.193,0.315-0.375,0.423-0.599c0.106-0.219,0.161-0.449,0.183-0.679
	c0.354-0.436,0.541-1.035,0.527-1.613c-0.01-0.38-0.089-0.763-0.152-1.137c0.113,0.67,0.038-0.209,0.05-0.374
	c0.009-0.12,0.091-0.431,0.131-0.608c0.11-0.475,0.509-0.987,0.26-1.367c0.081-1.394-0.401-2.74-0.427-4.139
	c0.297,0.417,0.774,0.704,1.308,0.679c0.09-0.003,0.18-0.008,0.269-0.015c0.569,0.01,1.13-0.267,1.437-0.789
	c0.02-0.035,0.031-0.071,0.049-0.106c0.073-0.053,0.139-0.127,0.19-0.229C78.821,69.442,78.638,66.813,77.104,66.524z
	 M63.498,85.891c-0.004,0.03-0.004,0.057-0.008,0.085c-0.036-0.014-0.071-0.025-0.107-0.034c-0.127-0.147-0.324-0.234-0.52-0.239
	c-0.024-0.109-0.048-0.219-0.072-0.329c0.006,0.001,0.011,0.002,0.017,0.005c0.269,0.097,0.538,0.184,0.805,0.258
	C63.56,85.704,63.516,85.784,63.498,85.891z M69.158,69.223c-0.062-0.054-0.136-0.089-0.214-0.118
	c-0.23-0.251-0.464-0.497-0.703-0.74c0.048,0.019,0.094,0.041,0.141,0.06c0.154,0.058,0.29,0.053,0.404,0.009
	c0.206,0.193,0.422,0.371,0.646,0.511C69.316,68.994,69.217,69.082,69.158,69.223z M75.684,68.591
	c0.044-0.019,0.086-0.047,0.13-0.069c0,0.013,0,0.026,0.001,0.039C75.771,68.574,75.724,68.573,75.684,68.591z M75.653,68.605
	c-0.289,0.129-0.534,0.331-0.707,0.589c-0.002-0.036-0.002-0.072-0.004-0.109c-0.005-0.136-0.01-0.266-0.015-0.397
	C75.173,68.712,75.421,68.696,75.653,68.605z"/>
<path fill-rule="evenodd" clip-rule="evenodd" fill="#FFC931" d="M75.827,58.386c-0.027-0.165-0.104-0.281-0.203-0.357
	c-0.029-0.407-0.121-0.812-0.269-1.202c-0.116-0.591-0.281-1.161-0.62-1.729c-0.183-0.306-0.476-0.371-0.726-0.284
	c-0.037-0.037-0.076-0.073-0.114-0.108c0.019-0.128-0.002-0.27-0.078-0.418c-0.775-1.488-2.188-1.829-3.707-1.741
	c-0.741-0.206-1.547-0.283-2.559-0.13c-1.325,0.2-2.625,0.519-3.95,0.735c-0.734,0.119-1.254,0.494-1.809,0.842
	c-0.414,0.169-0.823,0.37-1.238,0.602c-0.278,0.155-0.352,0.442-0.291,0.699c-0.331,0.179-0.669,0.38-1.012,0.554
	c-0.561,0.047-1.076,0.153-1.616,0.476c-0.082,0.05-0.141,0.113-0.19,0.183c-0.594,0.166-1.183,0.346-1.748,0.552
	c-0.07-0.032-0.143-0.057-0.22-0.065c-1.242-0.136-2.266,0.89-3.448,0.672c-0.705-0.131-1.158,0.788-0.5,1.186
	c0.156,0.106,0.312,0.215,0.468,0.321c0.053,0.082,0.128,0.157,0.235,0.219c0.126,0.071,0.252,0.144,0.378,0.217
	c0.108,0.061,0.221,0.082,0.329,0.075c0.097,0.134,0.228,0.258,0.409,0.364c0.419,0.245,0.919,0.26,1.437,0.144
	c1.014,0.093,2.065,0.028,3.026-0.282c1.161-0.183,2.236-0.637,3.403-0.832c0.241-0.039,0.38-0.203,0.434-0.401
	c0.771-0.067,1.535-0.182,2.298-0.363c0.211-0.051,0.419-0.122,0.623-0.203c0.767-0.01,1.523,0.245,2.284,0.434
	c0.972,0.558,1.979,1.022,2.994,1.496c0.779,0.363,1.32,0.871,2.157,1.066c0.235,0.521,0.53,0.998,1.009,1.372
	c0.139,0.11,0.323,0.154,0.503,0.146c0.169,0.31,0.326,0.631,0.477,0.966c0.155,0.352,0.546,0.385,0.843,0.235
	c0.37,0.291,1.065,0.065,1.068-0.508c0-0.251-0.008-0.503-0.013-0.754C76.216,61.174,76.062,59.787,75.827,58.386z"/>
<path fill-rule="evenodd" clip-rule="evenodd" fill="#FF4633" d="M86.79,99.58c0.03,0.61-0.021,1.22-0.2,2.02
	c-0.02,0.131-0.06,0.261-0.09,0.4H43.91c0-0.54,0-0.65,0.01-0.65c-0.24-1.92-0.09-4.029,0.3-5.93c0.11-1.8,0.46-3.95,1.51-4.66
	c-0.08-0.34,0.07-0.79,0.44-0.859c0.56-0.091,1.08-0.2,1.61-0.261c0.03-0.04,0.07-0.1,0.11-0.14c0.26-0.27,0.59-0.24,0.83-0.05
	c0.03,0,0.07-0.22,0.11-0.23c0.13,0,0.26-0.22,0.4-0.22H49v0.2c0-0.311,0.46-0.47,0.82-0.431c0.5,0.051,1.109,0.15,1.609,0.16
	c0.22,0.011,0.44,0.141,0.55,0.28c1-0.16,2.045-0.31,2.945-0.11c0.29,0.061,0.562,0.16,0.812,0.25c0.6-0.21,1.406-0.89,2.056-0.56
	C58.954,89.35,59.59,89,60.75,89h0.12c0.29,0,0.45,0.14,0.68,0.22c0.03,0.021,0.06,0.09,0.1,0.101c0.05,0.02,0.1,0.08,0.15,0.1
	c0.35,0.15,0.39,0.54,0.25,0.83c0.1-0.03,0.2-0.03,0.3-0.01c0.24,0.05,0.48,0.109,0.71,0.18c0.24,0.03,0.47,0.07,0.7,0.12
	c0.26,0.03,0.53,0.05,0.8,0.06c0.13,0.011,0.25,0.07,0.35,0.141c0.42-0.15,0.84-0.351,1.25-0.54c0.109-0.181,0.3-0.29,0.55-0.25
	c0.271-0.11,0.521-0.2,0.76-0.24c0.261-0.05,0.521-0.13,0.78-0.229c0.15-0.051,0.29-0.12,0.44-0.181c0.239-0.1,0.479-0.2,0.72-0.3
	c0.56-0.22,1.109-0.41,1.66-0.4c2.04,0.021,3.949-0.1,5.979,0.19c0.58-0.021,1.26,0.1,1.891,0.21c0.29,0.05,0.56,0.09,0.819,0.12
	c0.44-0.16,0.9-0.28,1.34-0.32c0.53-0.05,1.03-0.01,1.471,0.2c0.109,0.05,0.21,0.11,0.31,0.18c0.12,0.08,0.2,0.19,0.25,0.301
	c0.17,0.21,0.33,0.439,0.49,0.659c0.1,0.141,0.189,0.28,0.29,0.431c0.04-0.061,0.08-0.101,0.13-0.141
	c0.06-0.04,0.12-0.069,0.18-0.09c0.271-0.09,0.59-0.02,0.78,0.26c0.86,1.21,1.9,3.12,1.62,4.721c0.29,0.899,0.58,2.09,0.39,3.02
	c0.021,0.101,0.04,0.34,0.061,0.44C87.11,99.07,86.98,99.45,86.79,99.58z"/>
<path fill-rule="evenodd" clip-rule="evenodd" fill="#FFDEBB" d="M53,61v19c0,1,1,1,1,0V61C54,60,53,60,53,61z"/>
<path fill-rule="evenodd" clip-rule="evenodd" fill="#D8944A" d="M75.197,65.761c-0.018-0.017-0.033-0.032-0.051-0.05
	c0.1-0.152,0.141-0.348,0.077-0.577c-0.51-1.843-2.45-3.718-4.095-4.615c-2.251-1.229-4.689-2.593-7.37-1.617
	c-0.336,0.123-0.492,0.401-0.509,0.685c-2.616,0.215-5.188,1.053-7.917,0.747c-0.96-0.107-0.95,1.394,0,1.5
	c2.939,0.329,5.662-0.776,8.592-0.908c4.492-0.202,7.187,2.997,10.075,5.765V81c0,1,1,1,1,0V66.93
	C75.397,66.709,75.623,66.165,75.197,65.761z"/>
<path fill-rule="evenodd" clip-rule="evenodd" fill="#D8944A" d="M77.947,66.97c-0.862-0.76-2.249-0.119-2.546,0.914
	c-0.267,0.932,1.181,1.327,1.447,0.398c-0.004,0.012,0.066-0.072,0.107-0.1c0.049-0.033,0.081-0.048,0.101-0.054
	C77.762,68.493,78.62,67.563,77.947,66.97z"/>
<path fill-rule="evenodd" clip-rule="evenodd" fill="#D8944A" d="M67.318,85.759c0.097-0.235-0.396,0.043-0.601,0.092
	c-0.429,0.104-0.874,0.14-1.313,0.172c-1.015,0.073-2.139-0.12-2.958-0.761c-0.752-0.589-1.822,0.465-1.061,1.061
	c1.225,0.959,2.71,1.295,4.248,1.184c1.097-0.08,2.655-0.185,3.132-1.349C69.132,85.262,67.68,84.876,67.318,85.759z"/>
<path fill-rule="evenodd" clip-rule="evenodd" fill="#D8944A" d="M51,66v4c0,1,2,1,2,0v-4C53,65.032,51,65.032,51,66z"/>
<path fill-rule="evenodd" clip-rule="evenodd" fill="#D1261E" d="M86.59,101.6c-0.02,0.131-0.06,0.261-0.09,0.4h-1.39
	c-0.021-0.53-0.181-1.54-0.17-1.61c0.1-1.18,0-2.26-0.021-3.43c-0.03-1.59-0.13-3.52-1.07-4.89c-1.05-1.551-2.279-1.78-3.97-2.011
	c-0.07-0.01-0.13-0.04-0.189-0.06H69c-0.51,0-0.76-0.26-0.75-0.52C68.26,89.24,68.51,89,69,89h10.2c0.069-0.28,0.29,0,0.68,0
	c0,0,0,0,0.01,0c0.091,0,0.181-0.279,0.301-0.279c0.22,0,0.38-0.03,0.5,0.1c0.14,0.03,0.279-0.006,0.409,0.034
	C81.36,88.904,81.61,88.92,81.86,89H83c0.73,0,0.92,0.53,0.58,0.82c0.229,0.16,0.439,0.33,0.64,0.52c0.9,0.83,1.521,2.01,1.87,3.67
	c0.44,2.05,0.2,4.29,0.351,6.38C86.46,100.72,86.54,101.16,86.59,101.6z"/>
<g>
	<path fill="#030928" d="M52,61c0,0,0,11,0,17h1c0-6,0-12,0-17C53,60,52,60,52,61C52,61,52,60,52,61z"/>
</g>
<g>
	<path fill="#030928" d="M75,65c0,0,0,9,0,13h1c0-4,0-8,0-13H75L75,65z"/>
</g>
<g>
	<path fill="#030928" d="M52.127,78.054c0.536,5.957,7.715,8.027,12.796,8.133c2.867,0.06,5.909-0.473,8.226-2.224
		C75.447,82.226,76,79.784,76,77.62c0-1.082-0.984-1.437-0.984-0.354c0,2.164-0.839,4.428-3.064,5.972
		c-2.02,1.4-4.627,1.72-7.027,1.723c-4.255,0.006-11.336-1.906-11.793-6.991c-0.074-0.826-0.861-0.898-0.787-0.065L52.127,78.054z"
		/>
</g>
<g>
	<path fill="#030928" d="M61.288,78.722c1.968,1.893,5.323,2.15,7.257,0.073c0.569-0.612-0.346-1.531-0.917-0.917
		c-1.451,1.559-3.946,1.346-5.423-0.072C61.603,77.226,60.684,78.142,61.288,78.722L61.288,78.722z"/>
</g>
<ellipse fill-rule="evenodd" clip-rule="evenodd" fill="#030928" cx="59.081" cy="67.528" rx="1.426" ry="2.27"/>
<ellipse fill-rule="evenodd" clip-rule="evenodd" fill="#030928" cx="69.456" cy="67.528" rx="1.426" ry="2.27"/>
<g>
	<path fill="#030928" d="M62.347,72.24c0.558,2.106,3.534,2.009,4.24,0.071c0.286-0.787-0.967-1.124-1.25-0.345
		c-0.287,0.788-1.53,0.721-1.74-0.071C63.382,71.088,62.131,71.431,62.347,72.24L62.347,72.24z"/>
</g>
<g>
	<path fill="#030928" d="M50.415,58.705c1.992,3.729,5.979,2.916,9.348,1.729c2.813-0.99,4.991-1.485,7.946-0.524
		c2.949,0.962,6.05,3.089,7.245,6.027c0.312,0.763,1.565,0.429,1.251-0.346c-1.664-4.09-6.447-7.137-10.794-7.556
		c-2.386-0.229-4.269,0.541-6.473,1.317c-2.652,0.936-5.82,1.664-7.403-1.302C51.141,57.313,50.021,57.968,50.415,58.705
		L50.415,58.705z"/>
</g>
<g>
	<path fill="#030928" d="M76.255,66.87c0.831-0.689,1.388,1.574,1.448,2.044c0.08,0.607,0.054,1.273-0.211,1.836
		c-0.359,0.757-0.957,0.581-1.617,0.801c-0.789,0.262-0.449,1.515,0.346,1.25c0.492-0.164,0.96-0.117,1.443-0.379
		c0.411-0.223,0.724-0.617,0.947-1.017c0.505-0.908,0.477-2.027,0.313-3.018c-0.274-1.683-1.773-3.939-3.587-2.435
		C74.693,66.487,75.615,67.399,76.255,66.87L76.255,66.87z"/>
</g>
<g>
	<path fill="#030928" d="M52.515,64.502C48.008,64.186,49,72.14,52,72.14c1,0,1-1.297,0-1.297c-2,0-2.532-5.245,0.329-5.044
		C53.165,65.858,53.343,64.561,52.515,64.502L52.515,64.502z"/>
</g>
<g>
	<path fill="#030928" d="M50.831,58.612c0,0,0.865-1.297,0-1.297C49.967,57.315,49.967,58.612,50.831,58.612
		C50.831,58.612,49.967,58.612,50.831,58.612z"/>
</g>
<g>
	<path fill="#030928" d="M50.777,58.126c6.191,0.646,10.98-4.499,16.996-5.084c2.566-0.25,5.244,0.317,6.816,2.508
		c2.083,2.904,1.447,7.4,0.313,10.508c-0.287,0.788,0.966,1.124,1.25,0.345c1.964-5.376,1.482-13.128-5.189-14.52
		c-2.868-0.598-6.121,0.1-8.753,1.261c-3.703,1.636-7.198,4.125-11.432,3.684C49.945,56.742,49.954,58.039,50.777,58.126
		L50.777,58.126z"/>
</g>
<g>
	<path fill="#030928" d="M61,86c0,0,0,2,0,3h1c0-1,0-2,0-3S61,85,61,86C61,86,61,85,61,86z"/>
</g>
<g>
	<path fill="#030928" d="M68,86c0,0,0,1,0,2s1,1,1,0s0-2,0-2C69,85,68,85,68,86C68,86,68,85,68,86z"/>
</g>
<g>
	<path fill="#030928" d="M60.7,88.876c1.468,2.387,7.436,2.545,8.686-0.162c0.348-0.754-0.771-1.413-1.12-0.654
		c-0.813,1.762-5.464,1.758-6.445,0.162C61.383,87.511,60.261,88.162,60.7,88.876L60.7,88.876z"/>
</g>
<g>
	<path fill="#030928" d="M61.548,89.342c-0.091,0.062-0.207,0.091-0.342,0.091c-2.594,0-5.19-0.192-7.861-0.219
		c-1.115-0.013-2.674-0.141-3.944-0.015c-0.052,0.004-0.104-0.191-0.156-0.191l0.156,0.191c-0.778,0-1.687,0.574-2.296,0.969
		C43.905,92.221,44.299,98,44.442,102h-1.207c-0.017-3-0.147-4.678,0.195-6.848c0.285-1.828,0.83-4.612,2.55-5.72
		c1.729-1.11,3.496-1.435,5.493-1.384c3.117,0.082,9.732,0.121,9.732,0.121C61.937,88.17,62.049,89.061,61.548,89.342z"/>
</g>
<g>
	<path fill="#030928" d="M87.421,102h-1.224c0.126-4,0.372-9.307-2.156-11.301c-0.136-0.107-0.272-0.337-0.425-0.424
		c-0.311-0.182-0.657-0.566-1.042-0.662C80.478,89.108,78.411,89,76.276,89c-2.408,0-7.289,0-7.289,0
		c-0.112,0-0.212,0.158-0.294,0.124c-0.558-0.242-0.458-1.077,0.294-1.077c3.458,0,6.718,0.049,10.06,0.001
		c1.751-0.021,4.379,0.304,5.751,1.601C87.927,92.605,87.494,98,87.421,102z"/>
</g>
<g>
	<path fill="#030928" d="M39.728,53.208c2.416,2.277,5.042,4.315,7.457,6.592c0.608,0.574,1.526-0.342,0.917-0.917
		c-2.416-2.276-5.042-4.314-7.457-6.592C40.037,51.718,39.118,52.633,39.728,53.208L39.728,53.208z"/>
</g>
<g>
	<path fill="#030928" d="M39.538,52.749c0.122,1.264,0.319,2.519,0.432,3.782c0.073,0.826,1.371,0.834,1.297,0
		c-0.113-1.264-0.31-2.519-0.432-3.782C40.755,51.925,39.458,51.917,39.538,52.749L39.538,52.749z"/>
</g>
<g>
	<path fill="#030928" d="M40.228,53.544c1.269,0.033,2.538-0.01,3.807,0.032c0.837,0.027,0.834-1.27,0-1.297
		c-1.269-0.042-2.539,0.001-3.807-0.032C39.392,52.226,39.393,53.522,40.228,53.544L40.228,53.544z"/>
</g>
<g>
	<path fill="#030928" d="M51.761,40.574c0.993,3.167,2.271,6.235,3.266,9.402c0.249,0.796,1.501,0.456,1.25-0.344
		c-0.993-3.167-2.272-6.235-3.266-9.403C52.762,39.434,51.51,39.774,51.761,40.574L51.761,40.574z"/>
</g>
<g>
	<path fill="#030928" d="M51.826,40.074c-0.514,1.161-0.956,2.352-1.478,3.509c-0.341,0.755,0.776,1.416,1.12,0.654
		c0.522-1.157,0.964-2.348,1.478-3.508C53.282,39.971,52.165,39.311,51.826,40.074L51.826,40.074z"/>
</g>
<g>
	<path fill="#030928" d="M52.024,41.109c1.089,0.651,2.218,1.234,3.302,1.895c0.716,0.436,1.368-0.686,0.655-1.12
		c-1.085-0.66-2.213-1.243-3.303-1.895C51.959,39.559,51.308,40.68,52.024,41.109L52.024,41.109z"/>
</g>
<g>
	<path fill="#030928" d="M76.602,38.661c-1.544,2.939-2.81,6.012-4.354,8.952c-0.388,0.739,0.731,1.395,1.12,0.654
		c1.544-2.939,2.81-6.011,4.354-8.951C78.109,38.576,76.99,37.92,76.602,38.661L76.602,38.661z"/>
</g>
<g>
	<path fill="#030928" d="M76.989,38.363c-1.186,0.456-2.341,0.983-3.529,1.431c-0.775,0.291-0.439,1.545,0.346,1.25
		c1.188-0.447,2.343-0.975,3.528-1.431C78.105,39.317,77.771,38.063,76.989,38.363L76.989,38.363z"/>
</g>
<g>
	<path fill="#030928" d="M76.406,39.24c0.309,1.231,0.69,2.443,0.989,3.677c0.197,0.813,1.448,0.468,1.25-0.345
		c-0.298-1.234-0.68-2.446-0.988-3.677C77.454,38.085,76.203,38.429,76.406,39.24L76.406,39.24z"/>
</g>
<g>
	<path fill="#030928" d="M91.154,54.454c-2.931,1.56-5.705,3.389-8.636,4.949c-0.739,0.393-0.084,1.513,0.655,1.12
		c2.93-1.56,5.704-3.39,8.635-4.949C92.547,55.18,91.892,54.061,91.154,54.454L91.154,54.454z"/>
</g>
<g>
	<path fill="#030928" d="M91.653,54.388c-1.234-0.29-2.487-0.504-3.721-0.804c-0.813-0.196-1.157,1.054-0.345,1.25
		c1.233,0.299,2.486,0.514,3.722,0.804C92.123,55.829,92.469,54.579,91.653,54.388L91.653,54.388z"/>
</g>
<g>
	<path fill="#030928" d="M90.705,54.833c-0.438,1.192-0.805,2.408-1.252,3.596c-0.295,0.784,0.959,1.12,1.251,0.345
		c0.447-1.188,0.813-2.405,1.251-3.596C92.244,54.392,90.991,54.056,90.705,54.833L90.705,54.833z"/>
</g>
<g>
	<path fill-rule="evenodd" clip-rule="evenodd" fill="#030928" d="M36.282,42.45c-2.06-0.005-3.709-1.669-3.703-3.735
		c0.007-2.042,1.677-3.694,3.726-3.687c2.048,0.008,3.701,1.67,3.695,3.718C39.995,40.801,38.333,42.456,36.282,42.45z"/>
	<path fill-rule="evenodd" clip-rule="evenodd" fill="#030928" d="M30.454,47.772c0-0.114-0.005-0.222,0-0.329
		c0.052-0.921,0.426-1.704,1.035-2.382c0.435-0.484,0.95-0.863,1.528-1.163c1.146-0.594,2.368-0.826,3.648-0.765
		c1.185,0.056,2.299,0.367,3.31,1.001c0.758,0.476,1.375,1.087,1.777,1.897c0.258,0.52,0.383,1.07,0.378,1.65
		c0,0.073-0.023,0.092-0.095,0.092c-1.704-0.002-3.409-0.002-5.114-0.002c-2.114,0-4.228,0-6.341,0
		C30.542,47.772,30.503,47.772,30.454,47.772z"/>
</g>
<g>
	<path fill-rule="evenodd" clip-rule="evenodd" fill="#030928" d="M52.377,30.427c-2.06-0.005-3.71-1.669-3.704-3.735
		c0.007-2.042,1.677-3.694,3.726-3.687c2.048,0.007,3.701,1.67,3.695,3.718C56.09,28.777,54.428,30.432,52.377,30.427z"/>
	<path fill-rule="evenodd" clip-rule="evenodd" fill="#030928" d="M46.548,35.749c0-0.115-0.005-0.222,0.001-0.329
		c0.052-0.921,0.426-1.704,1.035-2.382c0.435-0.484,0.951-0.863,1.528-1.163c1.146-0.594,2.367-0.827,3.648-0.766
		c1.185,0.056,2.299,0.367,3.31,1.001c0.759,0.475,1.376,1.087,1.778,1.898c0.258,0.52,0.383,1.07,0.378,1.65
		c0,0.072-0.023,0.092-0.095,0.092c-1.704-0.002-3.409-0.001-5.114-0.001c-2.114,0-4.228,0-6.341,0
		C46.637,35.749,46.598,35.749,46.548,35.749z"/>
</g>
<g>
	<path fill-rule="evenodd" clip-rule="evenodd" fill="#030928" d="M79.104,30.859c-2.061-0.005-3.71-1.669-3.702-3.735
		c0.006-2.042,1.676-3.694,3.726-3.687c2.048,0.008,3.7,1.67,3.694,3.718C82.817,29.209,81.156,30.864,79.104,30.859z"/>
	<path fill-rule="evenodd" clip-rule="evenodd" fill="#030928" d="M73.276,36.181c0-0.115-0.004-0.222,0.002-0.329
		c0.051-0.921,0.425-1.704,1.033-2.382c0.436-0.484,0.951-0.863,1.529-1.163c1.146-0.594,2.367-0.826,3.647-0.765
		c1.186,0.056,2.298,0.367,3.31,1.001c0.759,0.476,1.376,1.087,1.777,1.898c0.258,0.52,0.384,1.069,0.379,1.65
		c0,0.073-0.022,0.092-0.096,0.092c-1.704-0.002-3.408-0.002-5.113-0.002c-2.113,0-4.227,0-6.341,0
		C73.365,36.181,73.326,36.181,73.276,36.181z"/>
</g>
<g>
	<path fill-rule="evenodd" clip-rule="evenodd" fill="#030928" d="M92.993,45.498c-2.059-0.005-3.71-1.669-3.703-3.735
		c0.008-2.042,1.677-3.694,3.727-3.687c2.048,0.007,3.701,1.67,3.695,3.718C96.707,43.848,95.045,45.502,92.993,45.498z"/>
	<path fill-rule="evenodd" clip-rule="evenodd" fill="#030928" d="M87.166,50.819c0-0.115-0.006-0.222,0-0.329
		c0.053-0.921,0.426-1.704,1.036-2.382c0.434-0.484,0.95-0.863,1.527-1.163c1.146-0.594,2.367-0.827,3.647-0.766
		c1.186,0.056,2.299,0.367,3.311,1.001c0.758,0.475,1.375,1.087,1.778,1.898c0.257,0.52,0.382,1.07,0.378,1.65
		c-0.001,0.073-0.023,0.092-0.095,0.092c-1.706-0.002-3.41-0.001-5.114-0.001c-2.114,0-4.229,0-6.342,0
		C87.254,50.819,87.215,50.819,87.166,50.819z"/>
</g>
<circle fill-rule="evenodd" clip-rule="evenodd" fill="#FFFFFF" cx="58.72" cy="66.232" r="0.81"/>
<circle fill-rule="evenodd" clip-rule="evenodd" fill="#FFFFFF" cx="69.095" cy="66.232" r="0.81"/>
<g opacity="0.13">
	<path d="M90.584,9.911h-53.12l-26.56,46.074l26.56,46.073h53.12l26.561-46.073L90.584,9.911z M89.504,100.194h-50.97l-25.49-44.21
		l25.49-44.211h50.97l25.489,44.211L89.504,100.194z"/>
</g>
</svg>
