<?xml version="1.0" encoding="utf-8"?>
<!-- Generator: Adobe Illustrator 16.0.0, SVG Export Plug-In . SVG Version: 6.00 Build 0)  -->
<!DOCTYPE svg PUBLIC "-//W3C//DTD SVG 1.1//EN" "http://www.w3.org/Graphics/SVG/1.1/DTD/svg11.dtd">
<svg version="1.1" id="Layer_11" xmlns="http://www.w3.org/2000/svg" xmlns:xlink="http://www.w3.org/1999/xlink" x="0px" y="0px"
	 width="110.833px" height="128.833px" viewBox="8.75 -8.833 110.833 128.833" enable-background="new 8.75 -8.833 110.833 128.833"
	 xml:space="preserve">
<polygon fill="#13A36F" points="119.744,87.5 64.319,119.5 8.893,87.5 8.893,23.5 64.319,-8.5 119.744,23.5 "/>
<polygon fill="#1EC498" points="110.82,29.23 110.82,82.36 100.39,88.38 100.15,88.5 100.02,88.56 99.91,88.62 98.82,89.24 
	96.92,90.34 96.82,90.4 95.82,90.98 91.82,93.29 87.82,95.61 87.36,95.88 86.96,96.11 86.82,96.19 86.53,96.36 86.35,96.46 
	86.2,96.55 84.93,97.28 82.82,98.5 79.82,100.24 79.46,100.45 77.82,101.4 76.45,102.19 75.28,102.87 72.82,104.29 70.82,105.45 
	69.87,106 69.82,106.03 68.82,106.6 68.37,106.86 67.82,107.18 64.82,108.92 64.45,108.71 60.9,106.65 58.19,105.08 58.05,105 
	55.8,103.7 55.79,103.69 55.33,103.43 55.03,103.3 51.82,101.48 51.82,101.47 46.75,98.5 45.05,97.5 44.8,97.35 44.38,97.11 
	44.34,97.1 43.76,96.77 43.27,96.49 18.82,82.36 18.82,29.23 64.82,2.68 "/>
<path fill="#13A36F" d="M79.025,6.752c-0.08,0.094-0.162,0.188-0.242,0.281c-0.813,0.944-1.197,1.975-1.268,2.982
	c-2.859,13.373-2.225,28.254-0.131,42.332c1.215,8.184,3.691,16.515,6.959,24.111c2.514,5.836,6.051,14.006,11.189,18.021
	c5.018,3.92,12.146-3.104,7.07-7.071c-4.516-3.525-7.754-11.324-9.799-16.525c-2.67-6.791-4.582-14.002-5.777-21.191
	c-2.084-12.518-2.449-25.84,0.354-38.074C88.426,7.063,82.488,2.731,79.025,6.752z"/>
<path fill="#13A36F" d="M46.623,6.364c-4.181,17.392-4.331,36.446,0.789,53.578c2.713,9.081,6.512,17.718,10.894,26.104
	c2.221,4.252,4.577,8.36,7.431,12.223c2.512,3.4,6.043,5.977,8.391,9.447c3.592,5.309,12.26,0.311,8.635-5.047
	c-2.014-2.978-4.563-5.301-7.053-7.86c-2.934-3.017-5.07-6.978-7.072-10.64c-4.132-7.563-7.671-15.252-10.461-23.41
	c-5.522-16.144-5.962-33.963-2.156-50.629c0.367-0.842,0.526-1.813,0.372-2.893c-0.042-0.292-0.083-0.583-0.125-0.875
	C55.548,1.34,47.715,1.823,46.623,6.364z"/>
<path fill="#13A36F" d="M13.819,29.943c-0.568,6.041,1.384,11.859,3.12,17.563c1.911,6.281,3.552,12.65,5.65,18.871
	c2.049,6.076,4.753,11.916,7.842,17.526c3.026,5.495,5.816,11.906,10.228,16.45c4.499,4.633,11.563-2.445,7.071-7.071
	c-3.302-3.399-5.485-8.616-7.746-12.743c-2.995-5.467-5.661-10.938-7.752-16.82c-1.995-5.609-3.428-11.434-5.128-17.137
	c-1.619-5.433-3.826-10.882-3.284-16.64C24.423,23.522,14.417,23.58,13.819,29.943z"/>
<path fill="#FFC37B" d="M72.422,62.113c-0.025-0.014-0.038-0.016-0.056-0.022c-0.009-0.01-0.011-0.016-0.021-0.028
	c-0.58-0.668-1.705-0.592-2.296,0c-0.659,0.658-0.579,1.627,0,2.295c0.201,0.232,0.456,0.428,0.734,0.559
	c0.798,0.38,1.743,0.229,2.22-0.582C73.422,63.62,73.223,62.491,72.422,62.113z"/>
<path fill="#FFC37B" d="M77.104,66.523c-0.197-0.037-0.365,0.014-0.498,0.104c-0.069-0.255-0.197-0.493-0.405-0.678
	c-0.367-0.325-0.646-0.728-0.981-1.082c-0.287-0.306-0.681-0.452-1.078-0.466c-0.072-0.133-0.139-0.266-0.223-0.398
	c-0.059-0.201-0.123-0.396-0.209-0.587c-0.137-0.304-0.475-0.368-0.756-0.274c-0.204-0.207-0.409-0.402-0.602-0.557
	c-1.506-1.212-3.666-3.313-5.701-3.374c-1.254-0.037-2.447-0.5-3.683-0.379c-1.039,0.103-1.996,0.839-2.995,1.097
	c-0.979,0.252-1.989,0.332-2.891,0.625c-0.316,0.025-0.633,0.047-0.955,0.057c-0.362,0.033-0.569,0.299-0.614,0.578
	c-0.26-0.103-0.491-0.209-0.676-0.315c-0.446-0.259-1.081-0.19-1.362,0.271c-0.726,1.189-0.588,3.053-0.35,4.557
	c-0.276-0.129-0.565-0.084-0.844,0.082c-1.208-0.23-1.882,0.879-2.016,1.979c-0.101,0.834-0.019,2.2,0.823,2.658
	c0.191,0.221,0.456,0.378,0.813,0.436c0.344,0.056,0.703-0.084,0.798-0.453c0.134-0.521,0.123-1.006,0.043-1.537
	c-0.099-0.67-0.016-1.238,0.101-1.863c0.067,0.016,0.133,0.016,0.196,0.003c0.023,0.04,0.051,0.076,0.084,0.112
	c-0.043,1.646,0.086,3.335,0.044,4.984c-0.012,0.441,0.003,0.901,0.028,1.369c-0.003,0.154-0.005,0.309-0.008,0.461
	c-0.018,1.243,0.303,2.694-0.01,3.908c-0.03,0.116-0.127,0.219-0.104,0.313C53.079,78.288,53,78.434,53,78.594v0.305
	c0,0.519,0.312,0.918,0.616,1.188c0.266,0.795,0.75,1.519,1.142,2.306c0.194,0.392,0.689,0.379,0.986,0.162
	c0.146,0.106,0.322,0.193,0.507,0.242c0.048,0.014,0.068,0.021,0.091,0.023c0.021,0.015,0.038,0.027,0.077,0.05
	c0.073,0.04,0.155,0.046,0.231,0.073c0.671,0.619,1.445,0.968,2.345,1.125c0.578,0.326,1.199,0.525,1.875,0.729
	c0.087,0.027,0.171,0.033,0.249,0.025c0.154,0.06,0.31,0.117,0.465,0.172c-0.073,0.1-0.116,0.221-0.108,0.365
	c0.034,0.69,0.171,1.343,0.348,2.011c0.039,0.146,0.116,0.255,0.212,0.33c0.015,0.028,0.023,0.065,0.041,0.091
	c0.039,0.859,0.349,1.618,1.285,1.469c0.018,0.006,0.029,0.018,0.05,0.023c0.556,0.135,1.304,0.429,1.979,0.441
	c0.069,0.008,0.137,0.004,0.205-0.008c0.232-0.02,0.452-0.078,0.647-0.197c0.098,0.021,0.204,0.019,0.323-0.021
	c0.313-0.104,0.564-0.229,0.774-0.365c0.339,0.016,0.706-0.258,0.728-0.639c0.01-0.164,0.01-0.327,0.012-0.491
	c0.003-0.046,0.002-0.094,0.002-0.142c0-0.026,0.002-0.053,0.002-0.078c0.085-0.295,0.08-0.547,0.007-0.758
	c0.382-0.59,0.56-1.483,0.412-2.19c0.067-0.043,0.134-0.086,0.199-0.128c0.241-0.053,0.479-0.113,0.718-0.186
	c0.008,0.031,0.016,0.063,0.023,0.092c0.129,0.425,0.763,0.688,1.084,0.287c0.389-0.485,0.701-1.004,1.006-1.537
	c0.59-0.223,1.154-0.494,1.613-0.965c0.174-0.18,0.322-0.365,0.455-0.555c0.15-0.078,0.291-0.174,0.398-0.312
	c0.154-0.193,0.314-0.375,0.423-0.599c0.106-0.22,0.161-0.449,0.183-0.68c0.354-0.436,0.541-1.035,0.527-1.613
	c-0.01-0.379-0.089-0.763-0.152-1.137c0.113,0.67,0.039-0.209,0.051-0.374c0.009-0.12,0.091-0.431,0.131-0.608
	c0.109-0.475,0.509-0.986,0.26-1.367c0.081-1.393-0.4-2.739-0.427-4.139c0.297,0.418,0.774,0.705,1.308,0.68
	c0.09-0.004,0.18-0.008,0.27-0.016c0.568,0.01,1.13-0.267,1.437-0.789c0.021-0.035,0.031-0.07,0.05-0.105
	c0.072-0.053,0.139-0.127,0.189-0.229C78.82,69.441,78.639,66.813,77.104,66.523z M63.498,85.891
	c-0.004,0.03-0.004,0.057-0.008,0.086c-0.036-0.015-0.071-0.025-0.107-0.035c-0.127-0.146-0.324-0.233-0.52-0.238
	c-0.024-0.109-0.048-0.219-0.072-0.329c0.006,0.001,0.011,0.002,0.017,0.005c0.269,0.098,0.538,0.184,0.805,0.258
	C63.56,85.704,63.516,85.784,63.498,85.891z M69.158,69.223c-0.063-0.054-0.137-0.088-0.215-0.117
	c-0.229-0.252-0.463-0.498-0.702-0.74c0.048,0.02,0.094,0.041,0.141,0.06c0.154,0.058,0.29,0.054,0.404,0.009
	c0.206,0.193,0.422,0.371,0.646,0.512C69.316,68.994,69.217,69.082,69.158,69.223z M75.684,68.591
	c0.045-0.019,0.086-0.047,0.131-0.069c0,0.014,0,0.026,0,0.039C75.771,68.574,75.725,68.572,75.684,68.591z M75.652,68.605
	c-0.289,0.129-0.533,0.33-0.707,0.588c-0.002-0.035-0.002-0.071-0.004-0.108c-0.004-0.136-0.01-0.267-0.014-0.397
	C75.173,68.712,75.421,68.695,75.652,68.605z"/>
<path fill="#FFC931" d="M75.827,58.387c-0.027-0.166-0.104-0.281-0.203-0.357c-0.028-0.407-0.121-0.813-0.269-1.202
	c-0.117-0.591-0.281-1.161-0.621-1.729c-0.182-0.306-0.476-0.371-0.726-0.284c-0.036-0.037-0.075-0.073-0.114-0.108
	c0.02-0.128-0.002-0.27-0.078-0.418c-0.774-1.488-2.188-1.829-3.707-1.741c-0.74-0.206-1.547-0.283-2.559-0.13
	c-1.324,0.2-2.625,0.519-3.95,0.735c-0.734,0.119-1.254,0.494-1.809,0.842c-0.414,0.169-0.823,0.37-1.238,0.602
	c-0.278,0.155-0.352,0.442-0.291,0.699c-0.331,0.179-0.669,0.38-1.012,0.554c-0.561,0.047-1.076,0.153-1.616,0.476
	c-0.082,0.05-0.141,0.112-0.19,0.183c-0.594,0.166-1.183,0.346-1.748,0.553c-0.07-0.033-0.143-0.058-0.22-0.065
	c-1.242-0.136-2.266,0.89-3.448,0.672c-0.705-0.131-1.158,0.788-0.5,1.187c0.156,0.105,0.312,0.215,0.468,0.32
	c0.053,0.082,0.128,0.157,0.235,0.219c0.126,0.071,0.252,0.145,0.378,0.217c0.108,0.062,0.221,0.082,0.329,0.076
	c0.097,0.133,0.228,0.258,0.409,0.363c0.419,0.245,0.919,0.26,1.437,0.145c1.014,0.093,2.065,0.027,3.026-0.282
	c1.161-0.183,2.236-0.638,3.403-0.832c0.241-0.039,0.38-0.203,0.434-0.401c0.771-0.066,1.535-0.182,2.298-0.363
	c0.211-0.051,0.419-0.121,0.623-0.203c0.768-0.01,1.523,0.246,2.285,0.435c0.972,0.558,1.979,1.022,2.994,1.496
	c0.778,0.362,1.319,0.871,2.156,1.065c0.234,0.521,0.53,0.998,1.01,1.373c0.139,0.109,0.322,0.154,0.502,0.146
	c0.17,0.31,0.326,0.631,0.478,0.966c0.155,0.352,0.546,0.385,0.843,0.235c0.37,0.291,1.064,0.065,1.068-0.509
	c0-0.25-0.008-0.502-0.014-0.754C76.216,61.174,76.063,59.787,75.827,58.387z"/>
<path fill="#FF4633" d="M49.02,89.4C49,89.41,49,89.42,49,89.42v-0.21h0.07c0,0.01-0.01,0.021-0.01,0.03
	C49.04,89.29,49.02,89.34,49.02,89.4z"/>
<path fill="#FF4633" d="M86.53,96.36l-0.181,0.1L86.2,96.55l-1.271,0.73L82.82,98.5l-3,1.74l-0.36,0.21l-1.64,0.95l-1.37,0.79
	l-1.17,0.68l-2.46,1.42l-2,1.16L69.87,106l-0.05,0.03l-1,0.569l-0.45,0.261l-0.55,0.319l-3,1.74l-0.37-0.21l-3.55-2.06l-2.71-1.57
	L58.05,105l-2.25-1.3l-0.01-0.01l-0.46-0.261l-0.3-0.13l-3.21-1.819v-0.011l-5.07-2.97l-1.7-1l-0.25-0.15l-0.42-0.239L44.34,97.1
	c0.03-0.35,0.06-0.699,0.11-1.05c0-0.09,0.01-0.17,0.02-0.25c0.22-1.72,0.61-3.24,1.26-3.91c-0.01-0.1-0.02-0.199-0.02-0.3
	c0-0.45,0.15-0.92,0.46-1.01c0.19-0.04,0.37-0.09,0.55-0.14c0.36-0.101,0.71-0.19,1.06-0.25c0.03-0.07,0.07-0.16,0.11-0.221
	c0.26-0.41,0.59-0.359,0.83-0.069c0.03,0,0.07-0.341,0.11-0.351c0.05,0,0.11-0.06,0.17-0.13v0.1c0-0.039,0-0.079,0.02-0.119
	c0.04-0.07,0.1-0.141,0.16-0.181c0.02,0,0.03-0.01,0.05-0.01h-0.16c0.05-0.08,0.11-0.15,0.18-0.2c0.16-0.13,0.38-0.18,0.57-0.149
	c0.5,0.08,1.11,0.229,1.61,0.239c0.05,0,0.11,0.021,0.16,0.051l0.01,0.01c0.16,0.07,0.414-0.467,0.494-0.316
	c0.64-0.16,1.13,0.073,1.75,0.063c0.11,0,0.266,0.313,0.366,0.324L54.313,89c0.23,0.02,0.405-0.039,0.625,0.031
	c0.29,0.1,0.125-0.13,0.375,0c0.19-0.101,0.749,0.254,0.969,0.094c0.47-0.38,1.069-0.575,1.509-0.235c1.16,0.851,1.8,0.32,2.96,0.32
	h0.12c0.19,0,0.33,0.1,0.47,0.21c0.07,0.04,0.13,0.09,0.21,0.13c0.03,0.03,0.06,0.13,0.1,0.15c0.05,0.03,0.1,0.12,0.15,0.149
	c0.35,0.23,0.39-1.18,0.25-0.729c0.1-0.05,0.2-0.05,0.3-0.021c0.24,0.08,0.48,0.17,0.71,0.28c0.24,0.04,0.47,0.101,0.7,0.18
	c0.26,0.04,0.53,0.07,0.8,0.091c0.131,0.02,0.25,0.1,0.351,0.21c0.42-0.23,0.555,0.836,0.965,0.546
	c0.109-0.271,0.585,0.193,0.835,0.254c0.271-0.17,0.521-0.3,0.76-0.36c0.261-0.08,0.521-0.2,0.78-0.35
	c0.06-0.03,0.12-0.07,0.18-0.12c0.09-0.05,0.17-0.11,0.261-0.16c0.239-0.15,0.479-0.3,0.72-0.46c0.12-0.07,0.24-0.14,0.359-0.21
	c0.44-0.23,0.87-0.41,1.301-0.39c2.04,0.029,3.949-0.16,5.979,0.29c0.33-0.021,0.69,0.029,1.05,0.1c0.061,0.01,0.11,0.02,0.16,0.04
	c0.23,0.05,0.46,0.11,0.681,0.17c0.29,0.08,0.56,0.14,0.819,0.19c0.141-0.08,0.271-0.15,0.41-0.21c0.311-0.141,0.63-0.24,0.93-0.28
	c0.07-0.01,0.141-0.021,0.21-0.021c0.301-0.029,0.58,0,0.851,0.11c0.14,0.05,0.28,0.12,0.41,0.21c0.109,0.08,0.21,0.17,0.31,0.28
	c0.11,0.109,0.18,0.26,0.23,0.41c0,0.01,0.01,0.01,0.01,0.01c0,0.01,0.01,0.03,0.01,0.04c0.17,0.319,0.33,0.67,0.49,1
	c0.1,0.22,0.189,0.43,0.29,0.66c0.04-0.101,0.08-0.16,0.13-0.221c0.06-0.06,0.12-0.1,0.18-0.14c0.12-0.06,0.24-0.07,0.36-0.02
	c0.16,0.039,0.31,0.17,0.42,0.42c0.44,0.939,0.93,2.159,1.26,3.449C86.37,95.51,86.46,95.94,86.53,96.36z"/>
<path fill="#FF4633" d="M53.606,90.396c-0.357-1.436-1.675-1.982-3.022-1.815c0.497-0.062-0.392,0.025-0.48,0.033
	c-0.429,0.039-0.854,0.079-1.271,0.186c-0.785,0.199-1.542,0.665-2.107,1.249c-0.626,0.152-1.201,0.55-1.627,1.109
	c-0.799,1.05-0.732,2.614-0.392,3.82c0.757,2.678,4.749,2.313,4.903-0.484c0.003-0.014,0.005-0.022,0.008-0.034
	c0.021-0.031,0.049-0.077,0.089-0.149c0.111-0.201,0.246-0.389,0.378-0.576c0.012-0.017,0.015-0.021,0.025-0.036
	c0.013-0.013,0.03-0.03,0.05-0.053c0.046-0.018,0.103-0.04,0.16-0.06c0.118-0.016,0.28-0.039,0.323-0.042
	c0.384-0.029,0.766-0.078,1.148-0.125C53.141,93.252,53.904,91.593,53.606,90.396z"/>
<path fill="#FFDEBB" d="M53,61v19c0,1,1,1,1,0V61C54,60,53,60,53,61z"/>
<path fill="#D8944A" d="M75.197,65.762c-0.018-0.018-0.033-0.033-0.051-0.051c0.1-0.152,0.141-0.348,0.076-0.577
	c-0.51-1.843-2.449-3.718-4.095-4.614c-2.251-1.229-4.688-2.594-7.37-1.617c-0.336,0.123-0.492,0.4-0.509,0.685
	c-2.616,0.216-5.188,1.054-7.917,0.747c-0.96-0.107-0.95,1.395,0,1.5c2.939,0.329,5.662-0.775,8.592-0.908
	c4.492-0.201,7.188,2.997,10.075,5.766V81c0,1,1,1,1,0V66.93C75.396,66.709,75.623,66.165,75.197,65.762z"/>
<path fill="#D8944A" d="M77.947,66.971c-0.862-0.761-2.25-0.119-2.547,0.914c-0.267,0.932,1.182,1.326,1.447,0.396
	c-0.004,0.013,0.066-0.071,0.107-0.1c0.049-0.033,0.081-0.047,0.102-0.054C77.762,68.493,78.62,67.563,77.947,66.971z"/>
<path fill="#D8944A" d="M67.318,85.76c0.097-0.236-0.396,0.043-0.602,0.092c-0.429,0.104-0.874,0.14-1.313,0.172
	c-1.015,0.072-2.139-0.121-2.958-0.762c-0.752-0.589-1.822,0.465-1.061,1.061c1.225,0.959,2.71,1.296,4.248,1.185
	c1.098-0.079,2.655-0.185,3.133-1.349C69.132,85.262,67.68,84.876,67.318,85.76z"/>
<path fill="#D8944A" d="M51,66v4c0,1,2,1,2,0v-4C53,65.031,51,65.031,51,66z"/>
<path fill="#D1261E" d="M86.35,96.46L86.2,96.55l-1.271,0.73c-0.01-0.101-0.01-0.21-0.01-0.32c-0.03-1.59-0.13-3.52-1.07-4.89
	c-1.05-1.551-2.279-1.78-3.97-2.011c-0.07-0.01-0.13-0.04-0.189-0.06H69c-0.26,0-0.45-0.07-0.57-0.17
	c-0.13-0.09-0.18-0.22-0.18-0.35c0.01-0.16,0.12-0.32,0.35-0.41C68.7,89.03,68.83,89,68.99,89c0,0,0.3,0,0.779,0H79.2
	c0.069-0.28,0.29,0,0.68,0c0,0,0,0,0.01,0c0.091,0,0.181-0.28,0.301-0.28c0.22,0,0.38-0.029,0.5,0.101
	c0.14,0.029,0.279-0.011,0.409,0.04c0.07,0.01,0.141,0.02,0.21,0.029c0.19,0.03,0.37,0.051,0.551,0.11H83
	c0.73,0,0.92,0.53,0.58,0.82c0.229,0.16,0.439,0.33,0.64,0.52c0.9,0.83,1.521,2.01,1.87,3.67c0.08,0.36,0.13,0.721,0.17,1.09
	C86.31,95.55,86.34,96,86.35,96.46z"/>
<g>
	<path fill="#030928" d="M52,61c0,0,0,11,0,17h1c0-6,0-12,0-17C53,60,52,60,52,61C52,61,52,60,52,61z"/>
</g>
<g>
	<path fill="#030928" d="M75,65c0,0,0,9,0,13h1c0-4,0-8,0-13H75L75,65z"/>
</g>
<g>
	<path fill="#030928" d="M52.127,78.055c0.536,5.957,7.715,8.026,12.796,8.133c2.867,0.06,5.909-0.474,8.226-2.225
		C75.447,82.227,76,79.784,76,77.62c0-1.082-0.984-1.437-0.984-0.354c0,2.164-0.838,4.428-3.063,5.973
		c-2.021,1.4-4.627,1.72-7.027,1.723c-4.255,0.006-11.336-1.906-11.793-6.99c-0.074-0.826-0.861-0.898-0.787-0.066L52.127,78.055z"
		/>
</g>
<g>
	<path fill="#030928" d="M61.288,78.723c1.968,1.893,5.323,2.149,7.257,0.072c0.568-0.611-0.346-1.531-0.917-0.917
		c-1.45,1.56-3.946,1.347-5.423-0.071C61.603,77.227,60.684,78.143,61.288,78.723L61.288,78.723z"/>
</g>
<ellipse fill="#030928" cx="59.081" cy="67.528" rx="1.426" ry="2.27"/>
<ellipse fill="#030928" cx="69.456" cy="67.528" rx="1.426" ry="2.27"/>
<g>
	<path fill="#030928" d="M62.347,72.24c0.558,2.105,3.534,2.009,4.24,0.07c0.286-0.787-0.967-1.123-1.25-0.345
		c-0.287,0.788-1.53,0.722-1.74-0.071C63.382,71.088,62.131,71.432,62.347,72.24L62.347,72.24z"/>
</g>
<g>
	<path fill="#030928" d="M50.415,58.705c1.992,3.729,5.979,2.916,9.348,1.729c2.813-0.99,4.991-1.484,7.946-0.523
		c2.949,0.962,6.05,3.089,7.245,6.027c0.312,0.763,1.565,0.429,1.251-0.347c-1.664-4.09-6.447-7.137-10.794-7.556
		c-2.386-0.229-4.269,0.541-6.473,1.316c-2.652,0.937-5.82,1.664-7.403-1.302C51.141,57.313,50.021,57.969,50.415,58.705
		L50.415,58.705z"/>
</g>
<g>
	<path fill="#030928" d="M76.255,66.87c0.831-0.688,1.388,1.573,1.448,2.044c0.08,0.607,0.054,1.273-0.211,1.836
		c-0.359,0.757-0.957,0.581-1.617,0.801c-0.789,0.262-0.449,1.516,0.346,1.25c0.492-0.164,0.961-0.117,1.443-0.379
		c0.411-0.223,0.725-0.617,0.947-1.018c0.505-0.907,0.477-2.026,0.313-3.018c-0.273-1.683-1.773-3.939-3.587-2.435
		C74.693,66.486,75.615,67.398,76.255,66.87L76.255,66.87z"/>
</g>
<g>
	<path fill="#030928" d="M52.515,64.502C48.008,64.186,49,72.141,52,72.141c1,0,1-1.297,0-1.297c-2,0-2.532-5.246,0.329-5.045
		C53.165,65.857,53.343,64.561,52.515,64.502L52.515,64.502z"/>
</g>
<g>
	<path fill="#030928" d="M50.831,58.611c0,0,0.865-1.297,0-1.297C49.967,57.314,49.967,58.611,50.831,58.611
		C50.831,58.611,49.967,58.611,50.831,58.611z"/>
</g>
<g>
	<path fill="#030928" d="M50.777,58.126c6.191,0.646,10.98-4.499,16.997-5.084c2.565-0.25,5.244,0.317,6.815,2.508
		c2.083,2.904,1.447,7.4,0.313,10.509c-0.287,0.787,0.966,1.123,1.25,0.344c1.964-5.375,1.481-13.127-5.189-14.52
		c-2.867-0.598-6.121,0.1-8.753,1.261c-3.703,1.636-7.198,4.125-11.432,3.684C49.945,56.742,49.954,58.039,50.777,58.126
		L50.777,58.126z"/>
</g>
<g>
	<path fill="#030928" d="M61,86c0,0,0,2,0,3h1c0-1,0-2,0-3S61,85,61,86C61,86,61,85,61,86z"/>
</g>
<g>
	<path fill="#030928" d="M68,86c0,0,0,1,0,2s1,1,1,0s0-2,0-2C69,85,68,85,68,86C68,86,68,85,68,86z"/>
</g>
<g>
	<path fill="#030928" d="M60.7,88.876c1.468,2.388,7.437,2.545,8.687-0.162c0.348-0.754-0.771-1.413-1.121-0.653
		c-0.813,1.762-5.463,1.758-6.445,0.162C61.383,87.512,60.261,88.162,60.7,88.876L60.7,88.876z"/>
</g>
<g>
	<path fill="#030928" d="M61.21,88.17c0,0-6.62-0.04-9.74-0.12c-1.99-0.05-3.76,0.271-5.49,1.38c-1.72,1.11-2.27,3.891-2.55,5.721
		c-0.07,0.46-0.12,0.899-0.16,1.34l0.49,0.279l0.58,0.33l0.04,0.011c0.01-0.36,0.03-0.71,0.07-1.061c0-0.09,0.01-0.17,0.02-0.25
		c0.16-1.59,0.52-3.069,1.24-4.21c0.28-0.439,0.61-0.82,1.01-1.149c0.12-0.091,0.25-0.19,0.38-0.271c0.51-0.33,1.22-0.78,1.9-0.92
		c0.02-0.01,0.04-0.01,0.06-0.01c0.04-0.021,0.08-0.021,0.12-0.021c0.08-0.02,0.15-0.02,0.22-0.02c0.68-0.07,1.45-0.061,2.19-0.05
		l0.01,0.01c0.63,0.01,1.24,0.04,1.75,0.05c0.18,0,0.37,0,0.55,0.01c0.11,0,0.21,0,0.31,0.011h0.03c0.71,0.01,1.42,0.039,2.12,0.069
		c1.63,0.061,3.24,0.13,4.85,0.13c0.04,0,0.09,0,0.13-0.01c0.08-0.01,0.15-0.04,0.21-0.08C62.05,89.06,61.94,88.17,61.21,88.17z
		 M49.25,89.01c0.03,0,0.05,0.05,0.07,0.09L49.25,89.01z"/>
</g>
<g>
	<path fill="#030928" d="M87.36,95.88l-0.4,0.23l-0.14,0.08l-0.29,0.17l-0.181,0.1L86.2,96.55c-0.15-2.13-0.57-4.09-1.62-5.319
		c-0.16-0.2-0.34-0.37-0.54-0.53c-0.14-0.11-0.271-0.34-0.42-0.42c-0.16-0.101-0.32-0.24-0.5-0.37c0,0-0.01,0-0.01-0.01
		c-0.17-0.12-0.351-0.24-0.54-0.29c-0.801-0.19-1.601-0.33-2.4-0.42c-0.63-0.07-1.27-0.12-1.91-0.15C77.6,89.01,76.94,89,76.28,89
		H69.77c-0.479,0-0.779,0-0.779,0c-0.11,0-0.21,0.16-0.3,0.12c-0.03-0.01-0.07-0.03-0.091-0.05c-0.46-0.29-0.319-1.021,0.391-1.021
		c3.46,0,6.72,0.05,10.06,0c1.75-0.02,4.38,0.3,5.75,1.601C86.47,91.23,87.12,93.5,87.36,95.88z"/>
</g>
<g>
	<path fill="#030928" d="M39.728,53.208c2.416,2.277,5.042,4.315,7.457,6.592c0.608,0.574,1.526-0.342,0.917-0.917
		c-2.416-2.275-5.042-4.314-7.457-6.592C40.037,51.718,39.118,52.633,39.728,53.208L39.728,53.208z"/>
</g>
<g>
	<path fill="#030928" d="M39.538,52.749c0.122,1.264,0.319,2.519,0.432,3.782c0.073,0.826,1.371,0.834,1.297,0
		c-0.113-1.264-0.31-2.519-0.432-3.782C40.755,51.925,39.458,51.917,39.538,52.749L39.538,52.749z"/>
</g>
<g>
	<path fill="#030928" d="M40.228,53.544c1.269,0.033,2.538-0.01,3.807,0.032c0.837,0.027,0.834-1.27,0-1.297
		c-1.269-0.042-2.539,0.001-3.807-0.032C39.392,52.226,39.393,53.522,40.228,53.544L40.228,53.544z"/>
</g>
<g>
	<path fill="#030928" d="M51.761,40.574c0.993,3.167,2.271,6.235,3.266,9.402c0.249,0.796,1.501,0.456,1.25-0.344
		c-0.993-3.167-2.272-6.235-3.266-9.403C52.762,39.434,51.51,39.774,51.761,40.574L51.761,40.574z"/>
</g>
<g>
	<path fill="#030928" d="M51.826,40.074c-0.514,1.161-0.956,2.353-1.478,3.509c-0.341,0.755,0.776,1.416,1.12,0.654
		c0.522-1.157,0.964-2.348,1.478-3.508C53.282,39.971,52.165,39.311,51.826,40.074L51.826,40.074z"/>
</g>
<g>
	<path fill="#030928" d="M52.024,41.109c1.089,0.651,2.218,1.234,3.302,1.895c0.716,0.436,1.368-0.686,0.655-1.12
		c-1.085-0.66-2.213-1.243-3.303-1.896C51.959,39.559,51.308,40.68,52.024,41.109L52.024,41.109z"/>
</g>
<g>
	<path fill="#030928" d="M76.602,38.661c-1.543,2.939-2.81,6.012-4.354,8.952c-0.389,0.739,0.73,1.395,1.12,0.654
		c1.544-2.939,2.81-6.011,4.354-8.951C78.109,38.576,76.99,37.92,76.602,38.661L76.602,38.661z"/>
</g>
<g>
	<path fill="#030928" d="M76.988,38.363c-1.186,0.456-2.34,0.983-3.528,1.431c-0.774,0.291-0.438,1.545,0.347,1.25
		c1.188-0.447,2.342-0.975,3.527-1.431C78.105,39.317,77.771,38.063,76.988,38.363L76.988,38.363z"/>
</g>
<g>
	<path fill="#030928" d="M76.406,39.24c0.309,1.231,0.689,2.443,0.988,3.677c0.197,0.813,1.448,0.468,1.25-0.345
		c-0.297-1.234-0.68-2.446-0.987-3.677C77.454,38.085,76.203,38.429,76.406,39.24L76.406,39.24z"/>
</g>
<g>
	<path fill="#030928" d="M91.154,54.454c-2.932,1.56-5.705,3.39-8.637,4.948c-0.738,0.394-0.084,1.514,0.655,1.121
		c2.931-1.561,5.704-3.391,8.636-4.95C92.547,55.18,91.893,54.061,91.154,54.454L91.154,54.454z"/>
</g>
<g>
	<path fill="#030928" d="M91.652,54.388c-1.233-0.29-2.486-0.504-3.721-0.804c-0.813-0.196-1.156,1.054-0.345,1.25
		c1.233,0.299,2.485,0.514,3.722,0.804C92.123,55.829,92.469,54.579,91.652,54.388L91.652,54.388z"/>
</g>
<g>
	<path fill="#030928" d="M90.705,54.833c-0.438,1.192-0.805,2.408-1.252,3.597c-0.295,0.783,0.959,1.119,1.251,0.344
		c0.446-1.188,0.813-2.404,1.251-3.595C92.244,54.392,90.991,54.056,90.705,54.833L90.705,54.833z"/>
</g>
<g>
	<path fill="#030928" d="M36.282,42.45c-2.06-0.005-3.709-1.669-3.703-3.735c0.007-2.042,1.677-3.694,3.726-3.687
		c2.048,0.008,3.701,1.67,3.695,3.718C39.995,40.801,38.333,42.456,36.282,42.45z"/>
	<path fill="#030928" d="M30.454,47.772c0-0.114-0.005-0.222,0-0.329c0.052-0.921,0.426-1.704,1.035-2.382
		c0.435-0.484,0.95-0.863,1.528-1.163c1.146-0.594,2.368-0.826,3.648-0.765c1.185,0.056,2.299,0.367,3.31,1.001
		c0.758,0.476,1.375,1.087,1.777,1.896c0.258,0.521,0.383,1.07,0.378,1.65c0,0.073-0.023,0.092-0.095,0.092
		c-1.704-0.002-3.409-0.002-5.114-0.002c-2.114,0-4.228,0-6.341,0C30.542,47.772,30.503,47.772,30.454,47.772z"/>
</g>
<g>
	<path fill="#030928" d="M52.377,30.427c-2.06-0.005-3.71-1.669-3.704-3.735c0.007-2.042,1.677-3.694,3.726-3.687
		c2.048,0.007,3.701,1.67,3.695,3.718C56.09,28.777,54.428,30.432,52.377,30.427z"/>
	<path fill="#030928" d="M46.548,35.749c0-0.115-0.005-0.222,0.001-0.329c0.052-0.921,0.426-1.704,1.035-2.382
		c0.435-0.484,0.951-0.863,1.528-1.163c1.146-0.594,2.367-0.827,3.648-0.766c1.185,0.056,2.299,0.367,3.31,1.001
		c0.759,0.475,1.376,1.087,1.778,1.898c0.258,0.52,0.383,1.07,0.378,1.65c0,0.072-0.023,0.092-0.095,0.092
		c-1.704-0.002-3.409-0.001-5.114-0.001c-2.114,0-4.228,0-6.341,0C46.637,35.749,46.598,35.749,46.548,35.749z"/>
</g>
<g>
	<path fill="#030928" d="M79.104,30.859c-2.061-0.005-3.709-1.669-3.701-3.735c0.006-2.042,1.676-3.694,3.726-3.687
		c2.048,0.008,3.7,1.67,3.694,3.718C82.816,29.209,81.156,30.864,79.104,30.859z"/>
	<path fill="#030928" d="M73.275,36.181c0-0.115-0.004-0.222,0.002-0.329c0.052-0.921,0.426-1.704,1.033-2.382
		c0.437-0.484,0.951-0.863,1.529-1.163c1.146-0.594,2.367-0.826,3.646-0.765c1.187,0.056,2.299,0.367,3.311,1.001
		c0.76,0.476,1.376,1.087,1.777,1.898c0.258,0.52,0.384,1.069,0.379,1.65c0,0.073-0.021,0.092-0.096,0.092
		c-1.705-0.002-3.408-0.002-5.113-0.002c-2.113,0-4.227,0-6.342,0C73.365,36.181,73.326,36.181,73.275,36.181z"/>
</g>
<g>
	<path fill="#030928" d="M92.993,45.498c-2.06-0.005-3.71-1.669-3.703-3.735c0.008-2.042,1.677-3.694,3.728-3.687
		c2.047,0.007,3.7,1.67,3.694,3.718C96.707,43.848,95.045,45.502,92.993,45.498z"/>
	<path fill="#030928" d="M87.166,50.819c0-0.115-0.006-0.222,0-0.329c0.053-0.921,0.426-1.704,1.036-2.382
		c0.435-0.484,0.95-0.863,1.526-1.163c1.146-0.594,2.367-0.827,3.647-0.766c1.187,0.056,2.299,0.367,3.312,1.001
		c0.758,0.475,1.375,1.087,1.777,1.898c0.258,0.52,0.383,1.07,0.378,1.65c-0.001,0.073-0.022,0.092-0.095,0.092
		c-1.706-0.002-3.41-0.001-5.114-0.001c-2.114,0-4.229,0-6.342,0C87.254,50.819,87.215,50.819,87.166,50.819z"/>
</g>
<circle fill="#FFFFFF" cx="58.72" cy="66.232" r="0.81"/>
<circle fill="#FFFFFF" cx="69.096" cy="66.232" r="0.81"/>
<g opacity="0.13">
	<path d="M18.73,29.234v53.12l46.074,26.56l46.073-26.56v-53.12L64.804,2.674L18.73,29.234z M109.012,30.314v50.97l-44.209,25.49
		l-44.211-25.49v-50.97L64.803,4.825L109.012,30.314z"/>
</g>
</svg>
