<svg enable-background="new 0 0 128 110.9" viewBox="0 0 128 110.9" xmlns="http://www.w3.org/2000/svg" xmlns:xlink="http://www.w3.org/1999/xlink"><clipPath id="a"><path d="m33.7 3-30.3 52.4 30.3 52.5h60.6l30.3-52.5-30.3-52.4z"/></clipPath><path d="m32 0-32 55.4 32 55.5h64l32-55.5-32-55.4z" fill="#20a091"/><g clip-path="url(#a)" opacity=".13"><path d="m-17.3 44.5c4.5-.4 148.2-26 148.2-26l-10.6-28.5s-143.2 20.7-144.7 24.8 7.1 29.7 7.1 29.7z"/></g><g clip-path="url(#a)"><path d="m112.5 126-116.6-18.9 12.4-73.3 116.6 18.9z" fill="#eaf9f7"/><g fill="#646464" opacity=".36"><path d="m.3 54.1c-.1 0-.1.2 0 .2l.2-.2z"/><path d="m.7 54.9c.2-.1.4-.2.5-.5-.2.2-.2.1-.5.3-.1 0-.1-.2-.1-.3-.1 0-.1-.1-.3 0 0 .3.2.4.4.3.1.1 0 .1 0 .2z"/><path d="m10.2 60.3c-.1 0-.1 0 0 0z"/><path d="m16.1 63.6c-.1 0-.1 0 0 0-.1 0 0 0 0 0z"/><path d="m17 64.4c-.1 0-.1 0 0 0z"/><path d="m10.2 60.3.1.2c0-.1-.1-.1-.1-.2z"/><path d="m2.3 55h-.1z"/><path d="m7.4 59.1c-.1 0-.1 0-.1.1z"/><path d="m5.4 58.1s.2-.2.2-.3c-.1.1-.1.2-.2.2z"/><path d="m68.2 90.2c-.1 0-.1.1-.1.1z"/><path d="m18.7 65.6c-.1 0-.1 0 0 0z"/><path d="m36 74.5c-.1-.3.4-.1.3-.4-.1 0-.5.1-.3.4z"/><path d="m2.4 55s0 .1 0 0z"/><path d="m23.1 67.8v-.1z"/><path d="m24.9 68.3s0 .1.1.1-.1 0-.1-.1z"/><path d="m26.6 69.3c0-.1 0-.1 0 0z"/><path d="m61 85.3v.2c.1-.1.4 0 0-.2z"/><path d="m2.3 55.1c0-.1 0-.1 0 0 .1-.1 0-.1 0 0 0-.1 0 0 0 0z"/><path d="m25.8 66.7.3.2c-.1-.1-.2-.1-.3-.2z"/><path d="m26.9 67.3c0 .1 0 .2.1.2h.1z"/><path d="m63.1 86c-.3-.1-.3.2-.4.3-.4-.1 0-.3-.1-.5-.2 0-.5.1-.7.1 0-.1 0-.1.1-.1-.3.1-.6-.3-1-.2v-.1c0 .2-.1.3-.2.4-.1-.1-.3.1-.3-.1.1 0 .1 0 .2-.1h-.2c0-.3.2 0 .3-.2-.3 0-.7 0-.8-.1.1-.3.5.1.3-.2l.2.2c0-.5.2.1.2-.4-.3-.3-.5-.1-.8-.4-.2.1-.1.2-.2.3-.7 0-.1-.9-.7-.7-.2.1-.4.4-.6.1l.2-.2c-.3-.2-.4.3-.7-.1.1-.1.3.1.3 0-.1-.4-.3.1-.5 0l.1-.3c-.4-.2-.9-.2-1.4-.4.1-.1.2-.1.1-.2-.6-.2-1.1-.6-1.6-1.1l-.3.1s0-.1 0-.2c-.2-.2-.1.1-.2.2-.1 0-.1-.2 0-.2-.5 0-1.2-.1-1.5-.6h.1c-.2-.2-.6.3-.7-.1h.1c-.6-.4-1.4-.6-1.7-1.2-.3.3-.6-.5-.8 0-.2-.4-.1-.4-.5-.9-.1-.1-.3.2-.5.1l.1-.2-.4.1v-.3h-.2c.1 0 .1.2 0 .2-.3 0-.5-.5-.5-.6l-.7-.1c.1-.1.2-.1.3-.1-.4.1.1-.3-.3-.2 0 .1-.1.1-.1.2-.1-.2-.4-.4-.7-.5l.1-.1c-.4-.3-1-.4-1.4-.7.1.2 0 .4-.2.4l.1-.3c-.2.1.1.2-.2.3-.2-.1 0-.3.2-.4h-.3c0-.1.1-.1.2-.2-.2.1-.3-.4-.5-.3v-.1c-.5-.3-.8-.3-1.2-.5-.1.2-.2.1-.5.2-.3-.2-.5-.6-.9-.7-.3 0-.2.1-.3.2.1-.2-.3-.4 0-.4-.4-.2-.6-.2-1.2-.4 0 .1.1.2 0 .2s-.2-.2-.1-.3c-.8 0-1.1-1.3-1.8-1.1h-.6c-.2-.2.2-.1.1-.3-.7 0-.8-.5-1.4-.5 0-.7-1.2-.6-1.5-1.2v.1c-.2.1-.1-.2-.2-.2 0 .1.1.2 0 .2-1.1-.4-2-1.3-3-1.9-.4-.2-.6.6-.9 0l.3-.2c-.9-.1-1.6-.8-2.4-1 .1 0 .1-.1.2-.1-.1-.3-.6-.3-.7-.2-.1-.1 0-.1 0-.3-.1-.2-.5 0-.5-.2h.1c-.1 0-.5-.3-.5 0-.2-.2-.6-.2-.7-.4-.3.2-.4-.4-.6-.1.2-.3-.3-.5-.6-.5.1-.1-.1-.2 0-.3-.2-.1-.4-.1-.5.1-.2-.6-.9-.1-.9-.7-.7-.1-1.3-.3-1.9-.5.2-.3.6.3.8-.1-.6-.1-1 0-1.5-.3.2.1.5.1.6.1-.6-.1-1-.5-1.5-.6h.1c-.1 0-.2-.2-.3 0h.1c0 .3-.6.3-.7.4.4-.4-.4-.3.1-.8-.1 0-.2 0-.2.1-.1-.1-.1-.2.1-.2-.4-.1-.3.1-.6 0 0-.1.1-.1.2-.1-.2.1-.4.1-.7-.1 0 0 0-.1.1-.1-.4-.2-.9 0-1.3-.4.3-.3-.1-.2 0-.5h-.3v.2c-.2-.1-.5 0-.7-.2h.2l-.4-.2.2.2c-.3 0-.2.4-.4.1.1 0-.2-.1-.2-.3-.2 0-.3.1-.4-.1 0-.1.2-.3.2-.4-.2.2-.5-.2-.8 0 .1 0 .2-.2.2-.2l-.2.2c-.1-.1-.1-.2 0-.3-.3-.2-.1.4-.4.1h.1c-.3-.3-.8-.2-1.1-.5 0-.3.3.1.3-.2-.5-.2-1.2-.2-1.6-.5l.1.1c-.3.4-.2-.4-.6-.3.1 0 .2-.2.2-.1-.3-.2-.7-.2-1.3-.4l.1-.1c-.1-.2-.5-.3-.6-.5-.1.1-.2 0-.2.2-.3-.9-1.4-.3-1.7-1.1h.2l-.5-.2c-.1.2 0 .1 0 .3-.1.1-.3.1-.4 0 .3 0 .1-.3.1-.4 0 .1-.1.1-.1.2-.1-.4-.2.3-.5-.1l.1-.1c-.2 0-.3 0-.5-.1 0-.2.2 0 .3-.2-.2-.1-.6.2-.6-.1h.3c-.1-.3-.1-.3-.2-.4l-.3-.3v.1c-.5.4-.5-.2-1 0 .6-.1.2-.1.4-.3 0-.1-.1-.2-.1-.3-.2.1-.2-.3-.5-.1 0-.1-.2-.1 0-.3-.2 0 0 .2-.1.2-.4.1-.6-.7-1.2-.6-.5-.1-.7.2-1.1.1-.1-.2.2-.2.2-.2-.1-.2-.3-.3-.5-.3.1 0 .1-.1 0-.2-.2-.1-.2.2-.4 0 .2.1.3-.1.4-.1-.2 0-.4 0-.7 0 0-.2.2-.1.3-.2-.2 0-.6-.2-.7 0l.1.2c-.1 0 .1-.2.1-.2.3-.1.3.2.2.2h-.2c-.1.5.5.2.8.4l-.3.3.4-.1c0 .1 0 .3-.2.3.1.2.2 0 .3.2v.1h.2c-.1 0-.1.2-.2.1.2.3.6 0 .6.3.5.1.2-.2.6-.3l-.1.7.2-.2s.1.1.1.2c.3-.1 0-.1.2-.2.1.3.7.2.5.6.2-.1-.1-.2.2-.2-.1.4.3.1.4.4-.2.2-.3 0-.2.3.3-.3.4.3.6.3.2-.3.4.1.8.1-.1.1.5.4.7.7.2-.3.4-.1.7 0-.2 0-.3 0-.4 0l.2.1c.1-.1.2-.1.3-.1l-.2.2c.3.1.6 0 .9.3.1-.2 0-.7.4-.6 0 .1-.1.3-.2.3h.2l-.2.1c.1.2.2-.1.3 0-.1.1 0 .2 0 .3 0 0-.1-.1-.1-.1.1.1.2.3.2.4 0-.1.1-.2.2-.2.3.1 0 .2.1.4.1-.1.2.1.3-.1.1 0 0 .1 0 .2.2 0 .6.3.6 0 .5 0 .8.6 1.3.7v.1c.3 0 .6.2.8.2.1 0 .1.2 0 .3.2 0 .3 0 .5.2-.3 0 0 .1-.2 0 .2.2.2.3.6.3-.2.1.1.3.2.3l-.1-.2c.1 0 .3.1.4.2l-.2.2c.3.6 1.2 0 1.3.7.2-.1-.2-.3 0-.4.2.2.3.6.3.7.2.3.5-.2.8.1 0-.1.1-.4.4-.3.2.2.1.5-.1.5-.1 0-.1-.1-.1-.1-.1 0-.2 0-.2.1l.1-.1c.1.2.4.3.2.4.2 0 .2-.1 0-.2.2.3.5.2.7.5 0-.1 0-.2 0-.2.4.3.3-.1.6.1.1.2-.2.3.1.3.1.2-.1.3-.2.3.4 0 .5.4.6.5h-.2c.1 0 .2 0 .3.1v-.2c.1.1.1.1.1.2.2-.1.1-.3.3-.4.1.2.4.1.3.3-.3-.3-.1.3-.4.1.1 0 .1 0 .2.1 0 0 0 0-.1 0 .2.4.3-.2.7 0-.1.1 0 .3 0 .3-.1-.1 0-.3.2-.3.2.2.3.1.4.1l-.1-.1c.1-.1.2 0 .4 0 0 .1-.2 0-.2.1.3-.1.3.5.6.4.1.2-.1.3-.1.4.4 0 .2.3.6.4 0-.2 0-.2.3-.3l-.3-.1.4-.1c-.1-.1-.4 0-.4-.1.2-.1.2 0 .2-.2.1.4.5 0 .6.4l-.2.4c.2.4.7.1 1.1.4l-.1-.2c.2-.1.3.1.5.1-.1.1 0 .2 0 .4.1-.1.3.2.5-.1l.1.3c.3.3.6-.2 1 0-.2.1-.1.3-.4.3.1.1.2.1.3 0 0 .1.4 0 .5.2.1 0 .2-.2.3-.1v.1c0-.1.3 0 .2-.2.1.7 1 .5 1.1 1.1.3.1.6.2.9.3 0 0 0 .1-.1 0 .2.3.4-.3.7 0 .1.3-.3 0-.2.2-.2.5.5.2.6.6h-.1c.1.3.6.1.8.2v.1c.3-.1.8 0 1.1.1-.2.1-.2 0-.2.3.1 0 .1-.3.4-.3 0 .1.2.3.1.6l-.3-.1c0 .3.3.2.4.3l-.1.1c.4.2.6-.1 1 .1v-.1c.4-.2.1.3.4.2l-.1.2c.2 0 .7 0 1 .1-.3.1-.6.1-.9.1.1.1.5.2.7.1-.1 0-.2 0-.2 0 .3-.1.6-.1.9 0-.4.6.7.5.7 1.1.6.1 1 .6 1.6.9 0-.6.2.1.4-.4.2 0 .2.1.2.1l.3.5c0 .2-.2 0-.2.1.3.2 0 .3.2.5 0-.2.2-.2.4 0l-.1-.3c.6 0 .2.6.7.6l-.2.1c.3 0 .8.4 1.2.2 0 .1 0 .2-.1.2.5.3 1.4.2 1.7.7l-.1.1c.1 0 .3-.1.3.1 0 0-.1.1-.1.1.1 0 .4-.1.5.1l-.2.1c.4.4 1 .1 1.4.3-.2.3.2.7.3.8.6.4 1.2.3 1.8.4.2.5 1.1.8 1.5 1.3-.1-.1.1-.3.3-.2.1.1.5 0 .3.3-.3 0 0 0 .2.2l.2-.4c.2.9 1.5.5 1.6 1.2.2 0 .3.1.5 0l-.1.2c.3.2.5.4 1 .6l-.2.1c.2.1.6-.4.9-.3l-.1.4c.4.2.7.7 1.3.7 0 0-.1.1-.2.1.2.1.7.6.8.2-.1.3.4.3.7.3l-.1.2c.3-.2.4-.2.7-.2.1.1 0 .2-.1.1.2.2.3-.1.5.1l-.2.1c.2.1.2.1.4 0 .2 0 .4.3.3.5.1-.1.3-.2.4-.1 0 .1-.1.1-.1.1.3.3.7.1.9.4v.1c-.3-.2-.5-.3-.5-.3-.1.2.1.4-.2.5.3 0 .8-.2 1 0v.1s.1.1.2 0l.2.2c-.1.2.2.2.4.3.1-.2.2-.1.2-.4 0 0 0 0-.1 0 0 0 0 0-.1 0-.1 0-.2-.1-.3-.1.2-.1.3-.1.4.1.1-.1.3-.2.4-.3 0 .4.3.7.2.9.4.1.9.4 1.4.1.1 0 .1.2.1.3-.1 0-.2 0-.2 0 .3 0 .7.3.8 0 .2.3-.3.2.1.3l-.1.1c.5.8 1.6-.1 2.1.9 0-.1-.1-.1 0-.1.8.7 2 .8 2.7 1.6.2.2.3.1.6 0l-.3.2.4-.1c.5 0 .4.9 1 .8v-.2c.2.1.6.2.5.4 0 0 .1-.1.2 0v.1h.5c.3.3-.3.4.2.7.2 0 .7-.1.7-.2-.1 0-.1-.2-.1-.3h.2c.2-.3.5-.6.3-1.1l-.5.1v-.2l.2.1c0-.2-.2-.1-.4-.1 0-.1 0-.2 0-.2l-.4.2c0-.2.3-.2.1-.4-.2.1 0 .4-.3.4-.1-.2.1-.3-.2-.3 0-.1.1-.1.2-.1-.2 0-.4-.1-.6 0 0-.3-.5-.2-.3-.5-.1.1-.4.1-.5.1.4-.3-.5-.3-.2-.7-.4.3-.7-.2-1.1-.1 0 0 .1-.1.1 0-.2-.1-.2-.3-.2-.4-.2.3-.5.2-.7.3-.1-.4.3-.3.4-.6-.1.2-.5 0-.5.3-.1-.3-.1-.2-.1-.4-.2.4-.2 0-.4.1-.1-.3.1-.4-.2-.4-.1-.3.2-.3.2-.3zm-6.5-2.6h.1c0 .1 0 0-.1 0zm-.5-.2c.1 0 .1.1.2.1 0 .1-.1.1-.1.1s-.1-.1-.1-.2zm.3 2c-.1 0-.1-.1-.1-.1.1 0 .1 0 .1.1.1-.1.1-.1 0 0 .1-.1.1 0 0 0z"/><path d="m56.7 85c.1 0 0-.1 0 0 0-.1 0 0 0 0z"/><path d="m10.1 60.3c0-.1 0-.1 0 0z"/><path d="m49.2 79v.1z"/><path d="m6.4 57.4-.1-.2c.1.1.1.1.1.2z"/><path d="m20.7 64.3c.1.1.1 0 0 0z"/><path d="m16 62.5h.2c-.1-.1-.2-.1-.2 0z"/><path d="m16.4 62.6c-.1-.1-.1-.1-.2-.1 0 0 .1.1.2.1z"/><path d="m1.2 54.5h.1s0 0-.1 0z"/><path d="m2.7 55.3c0-.1 0-.1 0 0z"/><path d="m3.1 55.4c-.1 0-.1-.2-.3-.3v.1c.1-.1.1.3.3.2z"/><path d="m4.2 57.2-.3-.2c0 .1 0 .3-.1.2.2.5 0-.2.4 0z"/><path d="m5.1 57.9c-.2-.1-.1.1-.1.1.2 0 .2 0 .1-.1z"/><path d="m12.2 61.6-.1.2c.2 0 .1-.1.1-.2z"/><path d="m14.1 61.3v-.2l-.2.2z"/><path d="m14.2 63.1h-.1.3z"/><path d="m26.2 69.3.1-.3c-.1 0-.3.3-.1.3z"/><path d="m31.5 71.7c0 .1.1.3.3.2-.1 0-.2-.2-.3-.2z"/><path d="m46.8 80.2h-.1l.2.1z"/></g><path d="m61.6 68.8 13-83 18.7 3-13 82.9-10.9 6.3z" fill="#f4c80f"/><path d="m75.3-13.3 17.1 2.7-12.8 81.8-10.1 5.8-7.1-8.5zm-1.3-1.7-13.2 84 8.4 10 11.8-6.8 13.2-84.1z" fill="#ad9221"/><path d="m-3.2 32.6 43.9 38.5 27.1 19.7-16.5-20.4-41.5-35.8z" fill="#706120" opacity=".1"/><path d="m74-15 10.1 1.5-16.3 104.3-7-21.8z" fill="#4715aa" opacity=".21"/><path d="m73.5 71.4-.1-.3c-.2-1-1.5-1.3-2.1-.4l-.2.3c-.6.8-1.8.6-2-.4l-.1-.3c-.3-1-1.6-1.1-2.1-.3-.5.8-1.8.7-2.1-.3l-.4-1.2c-.2-.7-1-1-1.7-.7l-1.9 1.2 6.9 21.8 13.3-18.6-2.3-2.1c-.5-.4-1.2-.4-1.6.1l-1.7 1.8c-.6.6-1.8.3-1.9-.6z" fill="#eac3a7"/><path d="m67.8 90.8-1-3.1c-.3-.9.2-1.8 1.1-2 1.5-.4 2.6 1.3 1.7 2.5z" fill="#4d4d4d"/><path d="m81.8 1.5c-1.1-.2-2.1.6-2.2 1.6l-1.6 10.4c-.2 1.1.6 2.1 1.6 2.2 1.1.2 2.1-.6 2.2-1.6l1.6-10.3c.2-1.1-.5-2.1-1.6-2.3z" fill="#eaf9f7"/></g><path d="m90.6 9.4 26.6 46.1-26.6 46.1h-53.2l-26.6-46.1 26.6-46.1zm5.4-9.4h-64l-32 55.5 32 55.4h64l32-55.4z" fill="#026f63"/><path d="m89.2 11.8 25.2 43.7-25.2 43.6h-50.4l-25.2-43.6 25.2-43.7zm1.4-2.3h-53.2l-26.6 46 26.6 46h53.1l26.6-46z" opacity=".13"/></svg>