<?xml version="1.0" encoding="utf-8"?>
<!-- Generator: Adobe Illustrator 21.0.2, SVG Export Plug-In . SVG Version: 6.00 Build 0)  -->
<svg version="1.1" id="Layer_1" xmlns="http://www.w3.org/2000/svg" xmlns:xlink="http://www.w3.org/1999/xlink" x="0px" y="0px"
	 viewBox="0 0 110.8407 128.0172" style="enable-background:new 0 0 110.8407 128.0172;" xml:space="preserve">
<style type="text/css">
	.st0{fill:#4DDBC0;}
	.st1{fill:#FFFFFF;}
	.st2{opacity:0.26;}
	.st3{fill:#3ECCB1;}
	.st4{opacity:0.13;enable-background:new    ;}
	.st5{fill:#B457EA;}
	.st6{fill:#FFB6DC;}
	.st7{fill:#00FF4E;}
	.st8{fill:#FFB95C;}
	.st9{fill:#4D78FF;}
</style>
<g id="Layer_63_3_">
	<g>
		<g>
			<polygon class="st0" points="110.8354,32.013 110.8354,96.013 55.4154,128.013 11.0654,102.413 10.8654,102.293 -0.0146,96.013 
				-0.0146,32.013 55.4154,0.013 			"/>
		</g>
	</g>
</g>
<path class="st1" d="M101.9317,37.6325v53.14l-0.01,0.01l-1.09,0.62l-0.33,0.19l-0.13,0.07l-0.88,0.51l-2.66,1.53l-0.48,0.28
	l-0.2,0.12l-1.93,1.11l-0.16,0.09l-1.48,0.86l-0.47,0.27l-0.14,0.08l-0.47,0.27l-0.24,0.13l-0.03,0.01l-0.1,0.04l-0.11,0.07
	l-2.46,1.41l-0.57,0.33l-0.82,0.47l-1.05,0.6l-0.04,0.03l-1.23,0.71l-0.45,0.26l-0.02,0.02h-0.01l-0.47,0.27l-1.0699,0.6201
	l-0.8701,0.52l-0.16,0.09l-1.1,0.63l-0.05,0.03l-0.0699,0.04l-0.08,0.05l-0.41,0.24l-0.03,0.01l-0.05,0.03l-0.05,0.02l-0.06,0.04
	v0.01l-0.29,0.17l-0.49,0.28l-0.18,0.09l-0.02,0.02l-0.04,0.02l-1.01,0.58l-0.14,0.08l-0.15,0.09l-0.05,0.03l-0.32,0.1801
	l-0.24,0.14h-0.01l-0.0699,0.04l-0.64,0.38l-0.2,0.12l-0.33,0.19l-0.25,0.14c0,0.01-0.01,0.01-0.01,0.01l-0.47,0.27l-0.42,0.24
	l-0.04,0.03l-0.57,0.33l-0.12,0.07l-2.21,1.27l-0.63,0.36l-0.06,0.03l-1.45,0.84l-2.05,1.19l-0.02,0.01l-0.01,0.01l-0.4,0.23
	l-0.35,0.2l-0.5,0.29l-0.14,0.08l-1.25,0.72l-0.98,0.57l-0.39,0.22l-0.0099,0.01l-0.4301,0.25l-0.4,0.23l-0.72,0.41l-1.64,0.95
	l-0.36,0.21l-0.04,0.02l-0.18,0.1l-0.5,0.29l-1.87,1.08l-0.56,0.32h-0.01l-0.32,0.19l-0.48,0.28l-0.14-0.08l-1.28-0.74l-0.85-0.4901
	l-0.03-0.0099l-0.91-0.53l-0.17-0.1l-0.05-0.03l-0.1801-0.1l-0.43-0.25l-0.17-0.1l-1.97-1.14l-1.39-0.8l-0.04-0.03l-2.0699-1.19
	l-4.75-2.76l-0.61-0.35l-0.69-0.39l-0.93-0.54l-0.22-0.12l-0.09-0.06l-0.03-0.02l-2.23-1.29l-1.22-0.71l-0.37-0.21l-0.39-0.22
	l-0.08-0.05l-0.15-0.08l-0.26-0.15l-0.24-0.15l-0.09-0.05l-0.35-0.2l-0.08-0.05l-0.08-0.04l-0.04-0.03l-1.3-0.74l-0.05-0.03
	l-0.15-0.08l-0.37-0.22l-1.71-0.99l-2.51-1.46l-2.09-1.2l-0.82-0.47l-0.09-0.05l-0.5-0.29l-0.0099-0.01l-0.21-0.12h-0.01l-1.04-0.6
	c-0.01-0.01-0.01-0.01-0.02-0.01l-1.86-1.08l-1.02-0.59l-1.33-0.77l-0.72-0.43l-0.04-0.02l-0.02-0.01l-0.29-0.17
	c0,0-0.01,0-0.02-0.01l-0.26-0.15l-0.02-0.0099l-0.5-0.29l-2.8-1.61l-2.58-1.49l-0.83-0.48l-0.09-0.05l-0.08-0.04l-0.03-0.02v-53.14
	l5.43-3.1299l0.23-0.13l0.77-0.46h0.01l0.25-0.14l0.58-0.33l1.75-1.0099l2.27-1.31l0.82-0.48l0.15-0.09l2.07-1.19l0.98-0.57
	l1.01-0.59l0.42-0.24l0.45-0.26l0.25-0.14c0.01,0,0.01,0,0.01,0l0.57-0.33l3.23-1.86l1.58-0.92l0.17-0.09l1.66-0.95l0.78-0.45
	l0.38-0.22l0.44-0.26l1.1-0.65l0.52-0.3l2.28-1.3l0.69-0.41l1.38-0.79l0.02-0.01h0.01l0.05-0.03l5.72-3.3l0.19-0.11l0.27-0.16
	l2.86-1.65l0.16-0.09l3.05-1.77l1.44-0.83l1.06,0.62l3.29,1.9l3.2,1.85l2.6,1.5l3.95,2.28l1.34,0.77l6.64,3.83l1.04,0.61l2.3,1.3101
	l0.87,0.5l1.52,0.8799l1.37,0.79l0.8,0.46l0.09,0.06l1.81,1.04l3.78,2.18l0.04,0.03v0.01l0.26,0.14l0.2599,0.16l0.4,0.23l0.92,0.53
	l0.54,0.31l0.02,0.01l1.92,1.11l0.78,0.44l0.44,0.25l0.58,0.33l1.36,0.79L101.9317,37.6325z"/>
<g class="st2">
	<g>
		<path class="st3" d="M56.1817,39.6125c-13.24,0-24,10.77-24,24c0,13.23,10.76,24,24,24c13.23,0,24-10.77,24-24
			C80.1817,50.3825,69.4116,39.6125,56.1817,39.6125z M56.1817,80.6125c-9.38,0-17-7.63-17-17s7.62-17,17-17c9.37,0,17,7.63,17,17
			S65.5517,80.6125,56.1817,80.6125z"/>
	</g>
</g>
<g class="st2">
	<g>
		<path class="st3" d="M56.3016,25.2425c-21.23,0-38.5,17.27-38.5,38.5c0,21.22,17.27,38.5,38.5,38.5s38.5-17.28,38.5-38.5
			C94.8017,42.5125,77.5316,25.2425,56.3016,25.2425z M56.3016,95.2425c-17.37,0-31.5-14.14-31.5-31.5c0-17.37,14.13-31.5,31.5-31.5
			s31.5,14.13,31.5,31.5C87.8017,81.1025,73.6716,95.2425,56.3016,95.2425z"/>
	</g>
</g>
<g class="st2">
	<g>
		<path class="st3" d="M97.7517,35.2125l-0.58-0.33l-0.44-0.25l-0.78-0.44l-1.92-1.11l-0.02-0.01l-0.54-0.31l-0.92-0.53l-0.4-0.23
			l-0.2599-0.16l-0.26-0.14v-0.01l-0.04-0.03l-3.78-2.18l-1.81-1.04l-0.09-0.06l-0.8-0.46l-1.37-0.79l-1.52-0.8799l-0.87-0.5
			l-2.3-1.3101l-1.04-0.61l-6.64-3.83l-1.34-0.77l-3.95-2.28l-2.6-1.5l-3.2-1.85c-1.31-0.11-2.64-0.16-3.98-0.16
			c-1.64,0-3.26,0.08-4.86,0.2401l-0.16,0.09l-2.86,1.65l-0.27,0.16l-0.19,0.11l-5.72,3.3l-0.05,0.03h-0.01l-0.02,0.01l-1.38,0.79
			l-0.69,0.41l-2.28,1.3l-0.52,0.3l-1.1,0.65l-0.44,0.26l-0.38,0.22l-0.78,0.45l-1.66,0.95l-0.17,0.09l-1.58,0.92l-3.23,1.86
			l-0.57,0.33c0,0,0,0-0.01,0l-0.25,0.14l-0.45,0.26l-0.42,0.24l-1.01,0.59l-0.98,0.57l-2.07,1.19l-0.15,0.09l-0.82,0.48l-2.27,1.31
			l-1.75,1.0099l-0.58,0.33l-0.25,0.14h-0.01l-0.77,0.46l-0.23,0.13c-2.15,2.98-3.97,6.2-5.43,9.62v39.4
			c1.68,3.93,3.84,7.6,6.41,10.94l0.5,0.29l0.02,0.0099l0.26,0.15c0.01,0.01,0.02,0.01,0.02,0.01l0.29,0.17l0.02,0.01l0.04,0.02
			l0.72,0.43l1.33,0.77l1.02,0.59l1.86,1.08c0.01,0,0.01,0,0.02,0.01l1.04,0.6h0.01l0.21,0.12l0.0099,0.01l0.5,0.29l0.09,0.05
			l0.82,0.47l2.09,1.2l2.51,1.46l1.71,0.99l0.37,0.22l0.15,0.08l0.05,0.03l1.3,0.74l0.04,0.03l0.08,0.04l0.08,0.05l0.35,0.2
			l0.09,0.05l0.24,0.15l0.26,0.15l0.15,0.08l0.08,0.05l0.39,0.22l0.37,0.21l1.22,0.71l2.23,1.29l0.03,0.02l0.09,0.06l0.22,0.12
			l0.93,0.54l0.69,0.39l0.61,0.35l4.75,2.76l2.0699,1.19l0.04,0.03l1.39,0.8c2.16,0.29,4.36,0.4399,6.6,0.4399
			c1.87,0,3.72-0.1,5.54-0.31l0.72-0.41l0.4-0.23l0.4301-0.25l0.0099-0.01l0.39-0.22l0.98-0.57l1.25-0.72l0.14-0.08l0.5-0.29
			l0.35-0.2l0.4-0.23l0.01-0.01l0.02-0.01l2.05-1.19l1.45-0.84l0.06-0.03l0.63-0.36l2.21-1.27l0.12-0.07l0.57-0.33l0.04-0.03
			l0.42-0.24l0.47-0.27c0,0,0.01,0,0.01-0.01l0.25-0.14l0.33-0.19l0.2-0.12l0.64-0.38l0.0699-0.04h0.01l0.24-0.14l0.32-0.1801
			l0.05-0.03l0.15-0.09l0.14-0.08l1.01-0.58l0.04-0.02l0.02-0.02l0.18-0.09l0.49-0.28l0.29-0.17v-0.01l0.06-0.04l0.05-0.02
			l0.05-0.03l0.03-0.01l0.41-0.24l0.08-0.05l0.0699-0.04l0.05-0.03l1.1-0.63l0.16-0.09l0.8701-0.52l1.0699-0.6201l0.47-0.27h0.01
			l0.02-0.02l0.45-0.26l1.23-0.71l0.04-0.03l1.05-0.6l0.82-0.47l0.57-0.33l2.46-1.41l0.11-0.07l0.1-0.04l0.03-0.01l0.24-0.13
			l0.47-0.27l0.14-0.08l0.47-0.27l1.48-0.86l0.16-0.09l1.93-1.11l0.2-0.12l0.48-0.28c1.97-2.66,3.6899-5.52,5.1-8.55v-42.66
			C100.7417,39.9425,99.3416,37.5025,97.7517,35.2125z M56.3016,107.1925c-23.92,0-43.38-19.45-43.38-43.37
			c0-23.92,19.46-43.38,43.38-43.38s43.38,19.46,43.38,43.38C99.6817,87.7425,80.2216,107.1925,56.3016,107.1925z"/>
	</g>
</g>
<g id="Layer_2_3_">
	<g id="Layer_16_3_">
		<path class="st4" d="M96.7987,34.6697l-0.53-0.3l-0.72-0.42l-0.77-0.45l-0.11-0.06l-0.49-0.28l-0.51-0.29l-0.9-0.52l-7.25-4.18
			l-1.71-0.98l-0.72-0.42l-0.45-0.26l-0.49-0.29l-0.05-0.02l-0.42-0.25l-0.41-0.24l-5.33-3.07l-19.5-11.24l-0.53-0.31l-0.47,0.27
			l-17.11,9.88l-5.02,2.9l-1.3,0.75l-0.53,0.31l-0.1,0.05c-0.01,0-0.01,0-0.01,0l-0.25,0.15l-0.42,0.25l-0.3,0.17l-0.27,0.16
			l-0.18,0.1l-1.5,0.87h-0.01l-1.78,1.02l-0.0099,0.01l-0.58,0.34l-0.76,0.43l-0.01,0.0099l-0.03,0.02l-3.25,1.87h-0.01l-2.38,1.37
			l-1,0.58l-2.98,1.72l-4.23,2.4399l-1.54,0.89v53.12l0.07,0.04l1.72,1l0.75,0.43l0.15,0.08l4.32,2.5l0.69,0.39l4,2.32l0.46,0.26
			l1.3,0.75l3.3799,1.95l5.38,3.1l0.69,0.4l0.07,0.04l0.15,0.08l0.11,0.07l0.18,0.1l0.04,0.02l1.91,1.11l0.88,0.5l1.33,0.78
			l0.89,0.5099l0.1801,0.1l0.31,0.18l0.19,0.11l0.48,0.28l3.57,2.05l0.09,0.05l0.44,0.26l0.62,0.36l0.72,0.42c0.01,0,0.01,0,0.01,0
			l0.53,0.3l1.51,0.87l3.17,1.84l4.48,2.58l1.03,0.6l0.23,0.13l0.02-0.0099l0.19-0.11l0.14-0.08l0.03-0.02l0.31-0.18l1.81-1.03
			l0.09-0.05l0.69-0.4l0.5-0.29l0.24-0.14l3.85-2.22l2.45-1.41l0.74-0.43l0.66-0.38l0.67-0.39l0.44-0.26l2.33-1.34l0.39-0.22h0.0099
			l0.23-0.14l0.21-0.12l0.63-0.36l0.8-0.46l1.2599-0.73l0.46-0.27h0.01l0.46-0.27l0.0099-0.01l0.25-0.14l0.53-0.31l0.37-0.21
			l0.35-0.21l0.55-0.31l0.21-0.13l0.32-0.18l0.43-0.24l0.02-0.01l0.05-0.03l0.13-0.08l0.24-0.13l3.78-2.18l0.38-0.22l1.11-0.65
			l2.97-1.71l1.56-0.9l8.53-4.92h0.01l0.06-0.04l2.65-1.53l0.9-0.52l1.03-0.59v-53.12L96.7987,34.6697z M100.0987,89.6996l-0.52,0.3
			l-0.32,0.18l-0.58,0.34l-7.59,4.38l-4.67,2.69l-3.12,1.8l-1.28,0.7401l-0.72,0.41l-2.93,1.69l-0.07,0.05l-0.16,0.09l-0.18,0.11
			l-0.57,0.32l-0.89,0.51l-0.22,0.13l-0.05,0.03l-0.81,0.47l-0.09,0.05l-3.91,2.25l-0.08,0.05l-0.79,0.45l-0.08,0.05l-0.91,0.53
			l-2.15,1.24l-1.54,0.89l-1.68,0.97l-1.1,0.63l-2.97,1.72l-1.23,0.71l-0.06,0.04h-0.02l-0.75,0.44l-0.28,0.15l-1.8701,1.08
			l-3.45-1.9901l-1.23-0.71l-0.61-0.35l-1.81-1.05l-0.72-0.41l-0.69-0.4l-5.26-3.03l-0.77-0.45l-0.05-0.03l-1.79-1.03l-2.0601-1.18
			l-0.9-0.52l-0.58-0.34l-0.25-0.15l-0.43-0.25l-0.21-0.12l-1.75-1.01l-0.31-0.18l-0.19-0.11l-1.5-0.8701l-3.42-1.97l-3.91-2.26
			l-1.76-1.01l-3.42-1.97l-4.91-2.84l-0.9-0.51l-0.39-0.23l-0.23-0.13l-0.67-0.39v-50.97l3.91-2.26l2.98-1.72l0.93-0.54h0.01
			l0.06-0.04l3.2-1.85h0.01l1.36-0.79h0.01l1.79-1.03l1.25-0.72l0.43-0.25h0.01l0.76-0.44l0.46-0.27h0.01l2.98-1.72
			c0.0099-0.01,0.0099-0.01,0.02-0.01l0.78-0.45l0.35-0.2l0.2-0.12l0.29-0.17l0.17-0.1l0.27-0.15l0.04-0.02l8.03-4.64l13.39-7.73
			l0.47-0.27l0.53,0.31l16.83,9.71l6.98,4.03l0.05,0.03l0.32,0.18l0.11,0.06l0.44,0.26l0.35,0.2l1.23,0.71l1.94,1.12l7.02,4.04
			l1.41,0.81l0.55,0.32l0.04,0.03l0.77,0.44l0.19,0.11l0.54,0.31l0.53,0.31l4.36,2.51V89.6996z"/>
	</g>
</g>
<circle class="st0" cx="56.635" cy="63.6959" r="11.75"/>
<g>
	<path class="st5" d="M63.8138,44.8633l0.2564,5.6603c-2.5408-1.2412-5.4242-1.8812-8.4512-1.7441
		c-3.0701,0.1391-5.9196,1.0634-8.3607,2.5674l-0.2592-5.7218c-0.184-4.0607,2.9879-7.5335,7.0485-7.7174l2.0488-0.0928
		C60.157,37.6309,63.6298,40.8027,63.8138,44.8633z"/>
	
		<ellipse transform="matrix(0.999 -0.0453 0.0453 0.999 -1.2463 2.509)" class="st5" cx="54.7901" cy="28.7805" rx="7.0056" ry="7.0056"/>
	<path class="st5" d="M51.6927,47.5942L37.9653,35.6736c-1.0119-0.8787-1.1208-2.4255-0.2421-3.4374l0,0
		c0.8787-1.0119,2.4255-1.1208,3.4374-0.2421l13.7274,11.9206c1.0119,0.8787,1.1208,2.4255,0.2421,3.4374l0,0
		C54.2514,48.3639,52.7046,48.4729,51.6927,47.5942z"/>
	<path class="st5" d="M59.8834,47.2232l12.5933-13.113c0.9283-0.9666,0.8969-2.5169-0.0696-3.4452v0
		c-0.9666-0.9283-2.5169-0.8969-3.4452,0.0696l-12.5933,13.113c-0.9283,0.9666-0.8969,2.5169,0.0696,3.4452l0,0
		C57.4048,48.2211,58.9551,48.1897,59.8834,47.2232z"/>
</g>
<g>
	<path class="st6" d="M76.7076,64.6887l-5.2521,2.126c0.3246-2.8091-0.0317-5.7411-1.1687-8.5498
		c-1.1531-2.8487-2.9734-5.228-5.2041-7.0292l5.3092-2.1492c3.7678-1.5252,8.0985,0.3097,9.6237,4.0775l0.7695,1.901
		C82.3102,58.8329,80.4754,63.1635,76.7076,64.6887z"/>
	
		<ellipse transform="matrix(0.7083 -0.706 0.706 0.7083 -9.9969 77.4415)" class="st6" cx="88.6969" cy="50.8159" rx="7.0056" ry="7.0056"/>
	<path class="st6" d="M70.0975,54.168l6.671-16.9127c0.4917-1.2467,1.914-1.8643,3.1607-1.3726v0
		c1.2467,0.4917,1.8643,1.914,1.3726,3.1607l-6.671,16.9127c-0.4917,1.2467-1.914,1.8643-3.1607,1.3726h0
		C70.2234,56.837,69.6058,55.4147,70.0975,54.168z"/>
	<path class="st6" d="M73.174,61.7681l16.5573,7.5099c1.2205,0.5536,2.6719,0.0079,3.2255-1.2125v0
		c0.5536-1.2205,0.0079-2.6719-1.2125-3.2255L75.1869,57.33c-1.2205-0.5536-2.6719-0.0079-3.2255,1.2125v0
		C71.4079,59.763,71.9535,61.2145,73.174,61.7681z"/>
</g>
<g>
	<path class="st7" d="M74.7434,72.8056l-3.5693-4.4005c-1.0741,2.6158-2.8037,5.01-5.1571,6.9188
		c-2.3868,1.936-5.1306,3.1385-7.9541,3.6365l3.6081,4.4483c2.5606,3.1569,7.2385,3.6448,10.3954,1.0842l1.5928-1.2919
		C76.8161,80.6404,77.304,75.9625,74.7434,72.8056z"/>
	
		<ellipse transform="matrix(0.7766 -0.6299 0.6299 0.7766 -39.6367 69.8531)" class="st7" cx="78.6858" cy="90.8207" rx="7.0056" ry="7.0056"/>
	<path class="st7" d="M63.8703,78.8185l-2.3384,18.0298c-0.1724,1.329,0.774,2.5574,2.103,2.7298h0
		c1.329,0.1724,2.5574-0.774,2.7298-2.103l2.3384-18.0298c0.1724-1.329-0.774-2.5574-2.103-2.7298h0
		C65.2711,76.5432,64.0427,77.4895,63.8703,78.8185z"/>
	<path class="st7" d="M70.2381,73.6535l18.1243,1.4323c1.336,0.1056,2.3427,1.285,2.2371,2.621v0
		c-0.1056,1.336-1.285,2.3427-2.621,2.2371l-18.1243-1.4323c-1.336-0.1056-2.3427-1.285-2.2371-2.621v0
		C67.7226,74.5547,68.9021,73.548,70.2381,73.6535z"/>
</g>
<g>
	<path class="st8" d="M53.1023,83.9318l3.1011-4.7421c-2.8188-0.2244-5.6267-1.1408-8.1627-2.7992
		c-2.5721-1.682-4.5547-3.9278-5.8908-6.4646l-3.1348,4.7937c-2.2247,3.402-1.2614,8.0056,2.1405,10.2303l1.7165,1.1225
		C46.274,88.297,50.8776,87.3338,53.1023,83.9318z"/>
	
		<ellipse transform="matrix(0.5473 -0.8369 0.8369 0.5473 -61.1717 73.2766)" class="st8" cx="37.1502" cy="93.1848" rx="7.0056" ry="7.0056"/>
	<path class="st8" d="M44.0576,75.4129l-17.8832,3.2764c-1.3182,0.2415-2.1991,1.5176-1.9576,2.8358h0
		c0.2415,1.3182,1.5176,2.1991,2.8358,1.9576l17.8832-3.2764c1.3182-0.2415,2.1991-1.5176,1.9576-2.8358v0
		C46.652,76.0524,45.3758,75.1714,44.0576,75.4129z"/>
	<path class="st8" d="M50.9197,79.9003l4.1681,17.6966c0.3072,1.3044-0.5087,2.6231-1.8131,2.9303h0
		c-1.3044,0.3072-2.6231-0.5087-2.9303-1.8131l-4.1681-17.6966c-0.3072-1.3044,0.5087-2.6231,1.8131-2.9303h0
		C49.2938,77.78,50.6125,78.5959,50.9197,79.9003z"/>
</g>
<g>
	<path class="st9" d="M36.3348,66.8227l5.4902,1.4008c-0.6993-2.7399-0.7402-5.6933,0.0089-8.6293
		c0.7598-2.9778,2.2437-5.5802,4.2121-7.6649l-5.5499-1.416c-3.9386-1.0049-7.9834,1.3954-8.9883,5.334l-0.507,1.9872
		C29.9959,61.773,32.3962,65.8177,36.3348,66.8227z"/>
	
		<ellipse transform="matrix(0.2472 -0.969 0.969 0.2472 -36.1442 62.9159)" class="st9" cx="22.4202" cy="54.7202" rx="7.0056" ry="7.0056"/>
	<path class="st9" d="M41.4709,55.509l-8.8837-15.8626c-0.6548-1.1693-2.1473-1.5901-3.3165-0.9353l0,0
		c-1.1693,0.6548-1.5901,2.1473-0.9353,3.3165l8.8837,15.8626c0.6548,1.1693,2.1473,1.5901,3.3165,0.9353h0
		C41.7048,58.1707,42.1257,56.6783,41.4709,55.509z"/>
	<path class="st9" d="M39.4438,63.4535l-15.3976,9.6672c-1.135,0.7126-2.6466,0.367-3.3592-0.768h0
		c-0.7126-1.135-0.367-2.6466,0.768-3.3592l15.3976-9.6672c1.135-0.7126,2.6466-0.367,3.3592,0.768v0
		C40.9244,61.2293,40.5788,62.741,39.4438,63.4535z"/>
</g>
<path class="st6" d="M86.5758,44.0545l-6.1133,2.1631c-0.4801,0.1699-0.7317,0.6969-0.5618,1.177l4.0826,11.5379
	c0.1699,0.4802,0.6969,0.7317,1.177,0.5618l6.2796-2.222"/>
<ellipse transform="matrix(0.1674 -0.9859 0.9859 0.1674 -61.1042 115.0216)" class="st8" cx="37.5457" cy="93.6872" rx="7.0056" ry="7.0056"/>
<path class="st8" d="M43.2513,97.8552l3.6068-5.7035c0.2833-0.448,0.1498-1.0407-0.2982-1.324l-10.7644-6.8072
	c-0.448-0.2833-1.0408-0.1498-1.324,0.2982l-3.7049,5.8586"/>
</svg>
