<?xml version="1.0" encoding="utf-8"?>
<!-- Generator: Adobe Illustrator 16.0.0, SVG Export Plug-In . SVG Version: 6.00 Build 0)  -->
<!DOCTYPE svg PUBLIC "-//W3C//DTD SVG 1.1//EN" "http://www.w3.org/Graphics/SVG/1.1/DTD/svg11.dtd">
<svg version="1.1" xmlns="http://www.w3.org/2000/svg" xmlns:xlink="http://www.w3.org/1999/xlink" x="0px" y="0px"
	 width="110.979px" height="128.417px" viewBox="0 0 110.979 128.417" enable-background="new 0 0 110.979 128.417"
	 xml:space="preserve">
<g id="Layer_1">
</g>
<g id="Layer_4">
</g>
<g id="Layer_3">
	<g id="Layer_63">
		<polygon fill="#EDB72C" points="110.85,96.417 55.424,128.417 0,96.417 0,32.419 55.424,0.419 110.85,32.419 		"/>
		<polygon fill="#F4D706" points="55.924,11.597 71.065,20.337 71.754,20.737 77.645,24.138 79.045,24.947 81.344,26.267 
			82.215,26.767 85.905,28.897 85.995,28.947 87.805,29.987 91.584,32.177 91.625,32.197 91.625,32.208 91.885,32.357 
			92.545,32.737 94.004,33.577 95.944,34.697 96.725,35.147 97.165,35.397 99.104,36.517 101.924,38.147 101.924,91.277 
			101.915,91.287 100.495,92.107 91.495,97.296 91.254,97.417 91.125,97.478 91.014,97.537 87.985,99.277 86.114,100.357 
			86.075,100.386 82.825,102.267 80.575,103.568 78.915,104.527 77.204,105.517 76.245,106.068 71.625,108.738 70.995,109.107 
			70.934,109.136 67.434,111.158 55.875,117.837 46.194,112.238 40.834,109.136 40.145,108.738 35.055,105.796 31.995,104.027 
			31.424,103.697 24.295,99.578 24.204,99.527 19.534,96.828 9.925,91.277 9.925,38.147 24.254,29.867 31.174,25.878 34.584,23.917 
			35.745,23.247 37.284,22.347 40.084,20.737 40.774,20.337 42.235,19.497 47.954,16.197 		"/>
	</g>
	<g id="Layer_65">
		<g>
			<g>
				<path fill="#EDB72C" d="M86.454,43.713c-9.979-12.187-18.027-13.26-23.117-16.164c-3.645-2.079-7.006-5.74-11.279-10.845
					c-0.021,0.209-0.045,0.419-0.068,0.628c2.197,5.503,1.648,8.875-4.202,11.549c-0.201,0.092-0.665,0.509,0.137,0.668
					c2.375,0.471-0.789,4.134-2.157,5.407c-1.576,1.467-3.697,3.656-8.979,7.197c-5.283,3.541-10.979,5.977-12.466,4.979
					c-1.971-1.326,0.55-4.209,3.107-7.429c-6.378,6.204-11.504,15.365-11.504,27.583c0,8.857,3.416,18.391,9.864,25.732
					c6.862,7.816,17.129,13.17,29.317,13.111c10.898-0.053,19.846-3.609,26.572-9.42c7.867-6.793,12.611-16.773,12.611-29.426
					C94.29,57.968,91.51,49.893,86.454,43.713z M75.42,98.009c-4.816,4.02-17.84,6.309-24.031,1.197
					c-0.611-0.508-0.634-1.266-0.229-1.707c0.299-0.324,0.561-0.479,0.924-0.686c0.453-0.258,1.03-0.158,1.418,0.199
					c2.444,2.254,13.979,4.146,20.915-0.516c0.256-0.172,0.582-0.287,0.867-0.166c0.211,0.092,0.336,0.207,0.365,0.443
					C75.696,97.167,75.723,97.757,75.42,98.009z M59.202,91.929c0.018-0.582,0.178-0.939,0.588-1.348
					c2.379-2.365,4.902-3.766,7.736-3.695c4.525,0.111,4.721,1.176,6.031,3.824c0.266,0.539,0.113,1-0.059,1.273
					c-0.092,0.15-0.609,0.646-0.787,0.646c-0.436,0-0.596-0.156-0.773-0.604c-1.078-2.695-2.682-2.707-4.699-2.707
					c-3.109,0-4.465,1.518-6.301,3.037c-0.459,0.379-0.891,0.662-1.232,0.373C59.426,92.498,59.198,92.173,59.202,91.929z
					 M83.487,90.945c-4.322-0.334-9.146-10.287-13.902-10.205c-6.262,0.107-15.438,10.646-25.745,10.492
					c-5.257-0.078-10.923-1.992-11.095-10.006C32.602,74.55,39.12,67.617,47.393,67.81c11.002,0.258,16.424,9.885,21.932,9.918
					c5.389,0.035,11.725-8.383,17.172-8.512c2.906-0.07,5.146,2.727,5.361,6.623C92.184,81.685,88.465,91.33,83.487,90.945z"/>
			</g>
		</g>
		<path fill="#055993" d="M33.071,55.172v2.268c0,5.422-2.398,8.382-9.521,8.382h-8.5c-0.115,0-0.209-0.094-0.209-0.209V46.846
			c0-0.115,0.094-0.209,0.209-0.209h8.503C30.561,46.637,33.071,49.687,33.071,55.172L33.071,55.172z M94.391,46.305l-3.938,0.637
			c-0.104,0.017-0.176,0.103-0.176,0.207V62.27c0,3.236,2.92,4.238,6.385,3.402c0.139-0.033,0.277-0.064,0.416-0.094
			c0.113-0.021,0.186-0.131,0.164-0.242l-0.385-2.081c-0.014-0.073-0.078-0.09-0.131-0.09c-1.66,0-2.094,0.024-2.094-0.896V46.512
			c0-0.063-0.023-0.118-0.072-0.159C94.51,46.312,94.454,46.295,94.391,46.305L94.391,46.305z M73.586,60.064V56.73
			c0-3.239-2.186-5-6.902-4.852c-4.717,0.15-6.563,0.524-6.563,4.379v14.777c0,0.063,0.025,0.119,0.074,0.158
			c0.049,0.041,0.105,0.059,0.168,0.049l3.938-0.637c0.104-0.018,0.178-0.105,0.178-0.207v-2.93c0-0.576-0.402-1.031-0.369-1.873
			c1.256,0.398,2.711,0.535,4.406,0.494C70.473,66.044,73.586,65.033,73.586,60.064L73.586,60.064z M64.479,63.288v-7.029
			c0-1.375,0.08-1.761,2.268-1.761s2.486,1.292,2.486,2.234v3.971c0,2.109-0.707,2.893-2.566,2.884
			C65.727,63.581,65.239,63.434,64.479,63.288L64.479,63.288z M48.791,51.887l-3.938,0.637c-0.101,0.016-0.175,0.103-0.175,0.207
			v9.033c0,3.238,2.95,4.328,6.386,4.388c3.434,0.061,6.803-0.92,6.803-4.388v-9.668c0-0.063-0.025-0.118-0.074-0.16
			c-0.049-0.04-0.105-0.057-0.17-0.047l-3.936,0.637c-0.104,0.016-0.177,0.103-0.177,0.207v9.034c0,0.957-0.513,1.762-2.267,1.762
			c-1.756,0-2.208-0.819-2.208-1.762v-9.669c0-0.063-0.025-0.118-0.074-0.16S48.854,51.877,48.791,51.887L48.791,51.887z
			 M79.079,61.049v1.319c0,1.296,2.375,1.278,3.67,1.276c0.701,0,0.984-0.267,0.984-0.984v-2.989c0-0.062-0.023-0.112-0.066-0.153
			c-0.045-0.039-0.098-0.06-0.158-0.056C81.967,59.577,79.079,59.631,79.079,61.049L79.079,61.049z M74.811,62.368v-1.319
			c0-3.199,5.318-3.688,8.73-3.996c0.107-0.01,0.189-0.099,0.189-0.207v-0.75c0-0.778-0.283-1.407-1.4-1.521
			c-1.967-0.2-3.15,0.081-5.832,0.672c-0.109,0.024-0.219-0.042-0.248-0.15l-0.496-1.861c-0.025-0.105,0.029-0.213,0.131-0.251
			c1.65-0.612,3.836-1.167,6.266-1.036c2.371,0.129,5.789-0.038,5.789,4.147v6.563c0,2.862-2.049,3.368-6.523,3.418
			C78.028,66.119,74.811,64.908,74.811,62.368L74.811,62.368z M39.5,65.763h-3.942c-0.115,0-0.209-0.094-0.209-0.209V53.702
			c0-0.039,0.01-0.072,0.028-0.106c0.606-1.03,4.278-1.552,7.813-1.5c0.112,0.001,0.205,0.095,0.205,0.209v2.348
			c0,0.06-0.021,0.111-0.064,0.153c-0.043,0.04-0.096,0.061-0.155,0.056c-2.092-0.111-3.319,0.117-3.457,0.572
			c-0.006,0.021-0.009,0.039-0.009,0.061v10.062C39.708,65.669,39.614,65.763,39.5,65.763L39.5,65.763z M28.328,57.439v-2.268
			c0-4.193-1.356-5.4-4.774-5.4h-3.969v13.066h3.965C27.565,62.838,28.328,60.797,28.328,57.439L28.328,57.439z"/>
		<path fill="#008ECC" d="M32.466,53.608v2.267c0,5.423-2.397,8.384-9.521,8.384h-8.5c-0.115,0-0.209-0.095-0.209-0.21V45.282
			c0-0.115,0.094-0.209,0.209-0.209h8.502C29.956,45.073,32.466,48.125,32.466,53.608L32.466,53.608z M93.788,44.743l-3.938,0.637
			c-0.104,0.017-0.178,0.103-0.178,0.207v15.12c0,3.236,2.922,4.238,6.387,3.402c0.139-0.033,0.277-0.063,0.416-0.094
			c0.111-0.021,0.186-0.131,0.164-0.242l-0.387-2.08c-0.012-0.073-0.076-0.09-0.131-0.09c-1.658,0-2.092,0.023-2.092-0.896V44.948
			c0-0.063-0.025-0.118-0.074-0.159S93.85,44.732,93.788,44.743L93.788,44.743z M72.983,58.501v-3.333
			c0-3.239-2.186-5.001-6.902-4.852c-4.717,0.15-6.563,0.524-6.563,4.379v14.777c0,0.063,0.025,0.119,0.072,0.158
			c0.051,0.041,0.107,0.059,0.17,0.049l3.938-0.637c0.104-0.018,0.176-0.104,0.176-0.207v-2.93c0-0.576-0.4-1.03-0.369-1.873
			c1.258,0.398,2.711,0.535,4.408,0.494C69.87,64.48,72.983,63.47,72.983,58.501L72.983,58.501z M63.874,61.726v-7.03
			c0-1.375,0.08-1.761,2.27-1.761c2.188,0,2.484,1.292,2.484,2.234v3.971c0,2.109-0.707,2.894-2.564,2.885
			C65.124,62.019,64.633,61.87,63.874,61.726L63.874,61.726z M48.186,50.324l-3.938,0.637c-0.102,0.016-0.176,0.103-0.176,0.207
			v9.033c0,3.237,2.951,4.327,6.386,4.388s6.802-0.92,6.802-4.388v-9.669c0-0.063-0.023-0.118-0.072-0.16
			c-0.049-0.04-0.105-0.057-0.17-0.047l-3.937,0.637c-0.103,0.016-0.177,0.103-0.177,0.207v9.033c0,0.957-0.512,1.762-2.266,1.762
			c-1.756,0-2.209-0.818-2.209-1.762v-9.669c0-0.063-0.025-0.118-0.074-0.16S48.25,50.314,48.186,50.324L48.186,50.324z
			 M78.473,59.486v1.318c0,1.297,2.375,1.279,3.67,1.277c0.701-0.001,0.984-0.268,0.984-0.984v-2.99
			c0-0.061-0.021-0.112-0.064-0.152c-0.045-0.04-0.1-0.061-0.158-0.057C81.364,58.015,78.473,58.068,78.473,59.486L78.473,59.486z
			 M74.208,60.806v-1.32c0-3.199,5.318-3.688,8.73-3.996c0.107-0.01,0.189-0.098,0.189-0.207v-0.749c0-0.779-0.283-1.408-1.4-1.521
			c-1.967-0.2-3.15,0.081-5.832,0.672c-0.109,0.024-0.221-0.042-0.248-0.15l-0.496-1.861c-0.027-0.105,0.027-0.213,0.131-0.251
			c1.65-0.612,3.836-1.167,6.266-1.036c2.369,0.129,5.789-0.038,5.789,4.147v6.563c0,2.862-2.051,3.368-6.523,3.42
			C77.422,64.556,74.208,63.345,74.208,60.806L74.208,60.806z M38.895,64.201h-3.942c-0.115,0-0.209-0.096-0.209-0.209V52.139
			c0-0.039,0.01-0.072,0.028-0.106c0.605-1.03,4.277-1.552,7.813-1.5c0.113,0.001,0.206,0.095,0.206,0.209v2.348
			c0,0.06-0.022,0.111-0.065,0.153c-0.043,0.04-0.096,0.061-0.154,0.056c-2.092-0.111-3.319,0.117-3.457,0.57
			c-0.006,0.021-0.01,0.04-0.01,0.061v10.063C39.104,64.105,39.009,64.201,38.895,64.201L38.895,64.201z M27.723,55.875v-2.267
			c0-4.193-1.356-5.4-4.775-5.4h-3.969v13.066h3.965C26.96,61.275,27.723,59.234,27.723,55.875L27.723,55.875z"/>
	</g>
	<g>
		<path fill-rule="evenodd" clip-rule="evenodd" fill="#055993" d="M73.942,90.611c0.041-0.844-0.281-1.582-0.568-2.334
			c-0.162-0.422-0.4-0.75-0.779-0.973c-0.088-0.824-0.422-1.607-0.957-2.242c0.441-0.189,0.676-0.627,0.58-1.211
			c-0.066-0.406-0.18-0.773-0.357-1.092c-0.004-1.391-0.992-2.463-2.111-3.164c-0.248-0.154-0.523-0.305-0.813-0.441
			c-0.201-0.129-0.424-0.223-0.654-0.273c-0.379-0.139-0.768-0.238-1.152-0.291c-0.01-0.031-0.018-0.063-0.025-0.098
			c-0.025-0.113-0.057-0.225-0.09-0.33c-0.059-0.262-0.174-0.523-0.35-0.775c-0.207-0.338-0.465-0.607-0.766-0.809
			c-2.182-1.984-5.066-3.15-7.896-2.463c-0.25-0.213-0.568-0.379-0.967-0.479c-0.24-0.059-0.49-0.109-0.742-0.158
			c-0.295-0.092-0.598-0.145-0.91-0.139c-2.695-0.324-5.848,0.039-7.973,1.475c-0.58,0.391-1,0.949-1.166,1.572
			c-0.018-0.008-0.035-0.016-0.055-0.023c-0.582-0.238-1.178-0.508-1.82-0.422c-0.865,0.117-1.654,0.449-2.334,1.021
			c-0.123,0.104-0.219,0.203-0.303,0.303c-0.328-0.063-0.662-0.068-0.975-0.006c-1.135,0.234-1.887,0.791-2.598,1.676
			c-0.236,0.293-0.354,0.641-0.379,1c-0.193,0.418-0.262,0.908-0.098,1.402c0.1,0.299-0.008,0.459-0.273,0.559
			c-0.113,0.043-0.229,0.08-0.344,0.115c-0.891,0.271-1.628,0.764-2.182,1.518c-1.172,1.604-1.162,3.471,0.045,5.143
			c0.322,0.447,0.702,0.764,1.109,0.967c0.387,0.928,1.111,1.656,2.016,2.105c-0.08,0.107-0.047,0.248,0.111,0.418
			c0.348,0.373,0.682,0.768,1.107,1.063c1.314,0.908,2.781,1.254,4.32,1.188c0.406,0,0.771-0.006,1.137,0.002
			c0.297,0.006,0.416,0.121,0.363,0.461c-0.141,0.9-0.01,1.791,0.381,2.6c0.496,1.031,1.307,1.705,2.299,2.098
			c0.188,0.357,0.424,0.701,0.689,1.063c0.344,0.465,0.771,0.895,1.25,1.27c-0.113,0.096-0.139,0.232-0.041,0.416
			c0.125,0.236,0.285,0.443,0.506,0.617c0.895,0.705,1.93,0.604,2.947,0.514c0.361-0.031,0.656-0.002,0.957,0.186
			c0.953,0.592,1.996,0.811,3.092,0.584c0.762-0.156,1.455-0.229,2,0.459c0.033,0.041,0.078,0.076,0.119,0.109
			c1.031,0.797,2.209,1.227,3.484,0.928c2.029-0.479,3.385-1.77,3.975-3.793c0.096-0.326,0.244-0.389,0.537-0.381
			c0.508,0.014,1.051,0.109,1.521-0.029c1.736-0.512,2.766-1.75,2.648-3.619c-0.039-0.652,0.182-1.033,0.553-1.441
			c1.162-1.287,1.893-2.746,1.938-4.523C73.961,91.486,73.92,91.046,73.942,90.611z M42.909,79.697
			c0.496-0.449,1.236,0.285,0.736,0.734c-0.635,0.574,0.809,1.793,1.332,1.93c0.648,0.17,0.373,1.174-0.277,1.004
			C43.418,83.029,41.573,80.904,42.909,79.697z M47.774,89.894c-1.162-1.525-3.998-0.65-5.639-0.789
			c-1.387-0.117-2.318-0.857-2.809-2.135c-0.242-0.627,0.764-0.896,1.002-0.277c0.803,2.088,3.475,1.268,5.197,1.314
			c1.279,0.037,2.348,0.313,3.146,1.359C49.079,89.902,48.174,90.419,47.774,89.894z M53.352,95.947
			c-0.941,1.314-2.352,1.664-3.893,1.688c-0.672,0.012-0.67-1.029,0-1.041c1.301-0.02,2.449-0.279,3.193-1.449
			c0.777-1.223,1.43-2.697,0.652-4.08c-0.33-0.584,0.568-1.109,0.898-0.525C55.221,92.345,54.485,94.369,53.352,95.947z
			 M54.014,83.171c-2.414-0.014-4.953-1.652-6.176-3.691c-0.346-0.576,0.555-1.1,0.898-0.525c0.879,1.465,2.512,2.607,4.172,3.027
			c1.676,0.426,3.734-0.322,3.773-2.309c0.014-0.67,1.057-0.672,1.043,0C57.684,81.64,56.006,83.185,54.014,83.171z M62.411,97.439
			c-1.158-0.072-2.324,0.16-3.021,1.18c-0.568,0.832-0.881,1.775-1.162,2.734c-0.189,0.643-1.193,0.369-1.004-0.277
			c0.359-1.229,0.783-2.631,1.732-3.547c0.955-0.924,2.15-1.213,3.455-1.131C63.077,96.441,63.081,97.482,62.411,97.439z
			 M65.542,88.96c-0.455,0.064-0.979,0.078-1.506,0.023c-0.047-0.063-0.102-0.123-0.154-0.184c-0.461-0.076-0.918-0.174-1.334-0.377
			c-0.408-0.199-0.729-0.49-0.998-0.828c-0.047-0.006-0.09-0.016-0.137-0.02c-0.074-0.133-0.141-0.271-0.189-0.426
			c-0.004-0.012-0.006-0.025-0.01-0.037c-0.057-0.092-0.113-0.182-0.164-0.277c-0.1-0.191-0.068-0.371,0.021-0.512
			c-0.078-1.217,0.441-2.504,1.656-2.922c0.637-0.219,0.908,0.787,0.277,1.004c-0.824,0.283-1.061,1.496-0.832,2.285
			c0.279,0.434,0.635,0.779,1.172,0.926c0.592,0.16,1.205,0.229,1.807,0.34c0.01,0.002,0.014,0.008,0.021,0.01
			c0.029-0.004,0.064-0.006,0.094-0.01C65.922,87.867,66.206,88.869,65.542,88.96z M69.766,91.707
			c-0.563,0.256-1.025,0.652-0.725,1.305c0.281,0.605-0.617,1.135-0.898,0.527c-0.537-1.16-0.041-2.215,1.098-2.73
			C69.846,90.533,70.377,91.431,69.766,91.707z"/>
		<path fill-rule="evenodd" clip-rule="evenodd" fill="#008ECC" d="M73.651,89.902c0.041-0.844-0.281-1.582-0.568-2.334
			c-0.162-0.422-0.4-0.75-0.779-0.973c-0.088-0.824-0.422-1.607-0.957-2.242c0.441-0.189,0.676-0.627,0.58-1.211
			c-0.066-0.406-0.18-0.773-0.357-1.092c-0.004-1.391-0.992-2.463-2.111-3.164c-0.248-0.154-0.523-0.305-0.813-0.441
			c-0.201-0.129-0.424-0.223-0.654-0.273c-0.379-0.139-0.768-0.238-1.152-0.291c-0.01-0.031-0.018-0.063-0.025-0.098
			c-0.025-0.113-0.057-0.225-0.09-0.33c-0.059-0.262-0.174-0.523-0.35-0.775c-0.207-0.338-0.465-0.607-0.766-0.809
			c-2.182-1.984-5.066-3.15-7.896-2.463c-0.25-0.213-0.568-0.379-0.967-0.479c-0.24-0.059-0.49-0.109-0.742-0.158
			c-0.295-0.092-0.598-0.145-0.91-0.139c-2.695-0.324-5.848,0.039-7.973,1.475c-0.58,0.391-1.001,0.949-1.167,1.572
			c-0.018-0.008-0.034-0.016-0.054-0.023c-0.582-0.238-1.179-0.508-1.82-0.422c-0.866,0.117-1.655,0.449-2.335,1.021
			c-0.122,0.104-0.218,0.203-0.302,0.303c-0.328-0.063-0.662-0.068-0.976-0.006c-1.135,0.234-1.886,0.791-2.597,1.676
			c-0.237,0.293-0.354,0.641-0.38,1c-0.193,0.418-0.262,0.908-0.098,1.402c0.1,0.299-0.007,0.459-0.273,0.559
			c-0.113,0.043-0.229,0.08-0.344,0.115c-0.89,0.271-1.628,0.764-2.181,1.518c-1.172,1.604-1.162,3.471,0.045,5.143
			c0.322,0.447,0.701,0.764,1.109,0.967c0.386,0.928,1.11,1.656,2.015,2.105c-0.079,0.107-0.047,0.248,0.111,0.418
			c0.349,0.373,0.683,0.768,1.108,1.063c1.314,0.908,2.781,1.254,4.32,1.188c0.405,0,0.771-0.006,1.136,0.002
			c0.298,0.006,0.417,0.121,0.363,0.461c-0.141,0.9-0.01,1.791,0.381,2.6c0.496,1.031,1.307,1.705,2.3,2.098
			c0.188,0.357,0.423,0.701,0.689,1.063c0.344,0.465,0.771,0.895,1.249,1.27c-0.113,0.096-0.139,0.232-0.041,0.416
			c0.126,0.236,0.285,0.443,0.506,0.617c0.895,0.705,1.93,0.604,2.948,0.514c0.36-0.031,0.655-0.002,0.955,0.186
			c0.955,0.592,1.998,0.811,3.094,0.584c0.762-0.156,1.455-0.229,2,0.459c0.033,0.041,0.078,0.076,0.119,0.109
			c1.031,0.797,2.209,1.227,3.484,0.928c2.029-0.479,3.385-1.77,3.975-3.793c0.096-0.326,0.244-0.389,0.537-0.381
			c0.508,0.014,1.051,0.109,1.521-0.029c1.736-0.512,2.766-1.75,2.648-3.619c-0.039-0.652,0.182-1.033,0.553-1.441
			c1.162-1.287,1.893-2.746,1.938-4.523C73.67,90.777,73.629,90.337,73.651,89.902z M42.618,78.988
			c0.496-0.449,1.235,0.285,0.736,0.734c-0.636,0.574,0.809,1.793,1.332,1.93c0.648,0.17,0.373,1.174-0.277,1.004
			C43.126,82.32,41.281,80.195,42.618,78.988z M47.482,89.185c-1.161-1.525-3.998-0.65-5.639-0.789
			c-1.386-0.117-2.317-0.857-2.809-2.135c-0.241-0.627,0.765-0.896,1.003-0.277c0.803,2.088,3.475,1.268,5.196,1.314
			c1.279,0.037,2.349,0.313,3.146,1.359C48.788,89.193,47.882,89.71,47.482,89.185z M53.061,95.238
			c-0.942,1.314-2.353,1.664-3.894,1.688c-0.671,0.012-0.67-1.029,0-1.041c1.301-0.02,2.45-0.279,3.194-1.449
			c0.776-1.223,1.43-2.697,0.651-4.08c-0.329-0.584,0.569-1.109,0.899-0.525C54.93,91.636,54.194,93.66,53.061,95.238z
			 M53.721,82.462c-2.413-0.014-4.952-1.652-6.174-3.691c-0.347-0.576,0.554-1.1,0.898-0.525c0.878,1.465,2.512,2.607,4.171,3.027
			c1.677,0.426,3.735-0.322,3.774-2.309c0.014-0.67,1.057-0.672,1.043,0C57.393,80.931,55.715,82.476,53.721,82.462z M62.12,96.73
			c-1.158-0.072-2.324,0.16-3.021,1.18c-0.568,0.832-0.881,1.775-1.162,2.734c-0.189,0.643-1.193,0.369-1.004-0.277
			c0.359-1.229,0.783-2.631,1.732-3.547c0.955-0.924,2.15-1.213,3.455-1.131C62.786,95.732,62.79,96.773,62.12,96.73z M65.25,88.251
			c-0.455,0.064-0.979,0.078-1.506,0.023c-0.047-0.063-0.102-0.123-0.154-0.184c-0.461-0.076-0.918-0.174-1.334-0.377
			c-0.408-0.199-0.729-0.49-0.998-0.828c-0.047-0.006-0.09-0.016-0.137-0.02c-0.074-0.133-0.141-0.271-0.189-0.426
			c-0.004-0.012-0.006-0.025-0.01-0.037c-0.057-0.092-0.113-0.182-0.164-0.277c-0.1-0.191-0.068-0.371,0.021-0.512
			c-0.078-1.217,0.441-2.504,1.656-2.922c0.637-0.219,0.908,0.787,0.277,1.004c-0.824,0.283-1.061,1.496-0.832,2.285
			c0.279,0.434,0.635,0.779,1.172,0.926c0.592,0.16,1.205,0.229,1.807,0.34c0.01,0.002,0.014,0.008,0.021,0.01
			c0.029-0.004,0.064-0.006,0.094-0.01C65.631,87.158,65.915,88.16,65.25,88.251z M69.475,90.998
			c-0.563,0.256-1.025,0.652-0.725,1.305c0.281,0.605-0.617,1.135-0.898,0.527c-0.537-1.16-0.041-2.215,1.098-2.73
			C69.555,89.824,70.086,90.722,69.475,90.998z"/>
	</g>
	<g id="Layer_2_1_">
		<g id="Layer_16_1_">
			<path opacity="0.13" enable-background="new    " d="M9.832,38.182v53.12l46.073,26.559l46.074-26.559v-53.12L55.905,11.622
				L9.832,38.182z M100.114,39.262v50.97l-44.211,25.49l-44.21-25.49v-50.97l44.21-25.489L100.114,39.262z"/>
		</g>
	</g>
</g>
<g id="Layer_2">
</g>
</svg>
