<?xml version="1.0" encoding="utf-8"?>
<!-- Generator: Adobe Illustrator 16.0.0, SVG Export Plug-In . SVG Version: 6.00 Build 0)  -->
<!DOCTYPE svg PUBLIC "-//W3C//DTD SVG 1.1//EN" "http://www.w3.org/Graphics/SVG/1.1/DTD/svg11.dtd">
<svg version="1.1" id="Layer_16" xmlns="http://www.w3.org/2000/svg" xmlns:xlink="http://www.w3.org/1999/xlink" x="0px" y="0px"
	 width="110.833px" height="128.167px" viewBox="8.833 -8.167 110.833 128.167"
	 enable-background="new 8.833 -8.167 110.833 128.167" xml:space="preserve">
<polygon fill="#1EAFA4" points="119.685,88 64.259,120 8.834,88 8.834,24.001 64.259,-7.999 119.685,24.001 "/>
<polygon fill="#35FCF2" points="64.759,3.175 110.759,29.733 110.759,82.858 100.331,88.878 100.086,88.997 99.963,89.057 
	99.846,89.117 64.707,109.415 18.759,82.858 18.759,29.733 "/>
<path fill="#1EAFA4" d="M107.384,58.319c2.969,0,5.375,2.405,5.375,5.375v24.25c0,2.969-2.406,5.375-5.375,5.375h-0.25
	c-2.969,0-5.375-2.406-5.375-5.375v-24.25c0-2.97,2.406-5.375,5.375-5.375H107.384z"/>
<path fill="#1EAFA4" d="M91.384,11.319c2.969,0,5.375,6.268,5.375,14.001v63.165c0,7.732-2.406,13.834-5.375,13.834h-0.25
	c-2.969,0-5.375-6.102-5.375-13.834V25.32c0-7.733,2.406-14.001,5.375-14.001H91.384z"/>
<path fill="#1EAFA4" d="M68.384-2.681c2.969,0,5.375,2.406,5.375,5.375v24.25c0,2.969-2.406,5.375-5.375,5.375h-0.25
	c-2.969,0-5.375-2.406-5.375-5.375V2.694c0-2.969,2.406-5.375,5.375-5.375H68.384z"/>
<path fill="#1EAFA4" d="M21.79,23.319c4.401,0,7.969,3.568,7.969,7.969V67.35c0,4.401-3.567,7.97-7.969,7.97h-0.063
	c-4.402,0-7.969-3.568-7.969-7.97V31.287c0-4.399,3.566-7.968,7.968-7.968H21.79z"/>
<path fill="#1EAFA4" d="M45.774,30.319c2.2,0,3.984,1.784,3.984,3.984v18.031c0,2.2-1.784,3.984-3.984,3.984h-0.031
	c-2.2,0-3.984-1.784-3.984-3.984V34.304c0-2.199,1.784-3.983,3.983-3.983L45.774,30.319L45.774,30.319z"/>
<path fill="#1EAFA4" d="M64.774,91.319c2.201,0,3.984,1.784,3.984,3.983v18.032c0,2.2-1.783,3.984-3.984,3.984h-0.031
	c-2.2,0-3.984-1.784-3.984-3.984V95.304c0-2.199,1.784-3.983,3.983-3.983L64.774,91.319L64.774,91.319z"/>
<path fill="#E5E5E5" d="M100.875,80.75c0-1.432,0.119-2.84,0.343-4.217c-0.187-0.53-0.431-1.002-0.75-1.497
	c-0.002-0.011-0.002-0.019-0.004-0.028c0.078,0.112,0.154,0.225,0.231,0.338c-0.06-0.096-0.12-0.189-0.18-0.283
	c-0.032-0.056-0.066-0.108-0.082-0.172c0.001,0.006,0.002,0.012,0.004,0.016c-0.08-0.352-0.21-0.691-0.437-1.024
	c-0.045-0.065-0.104-0.122-0.152-0.185c-0.961-2.566-1.512-5.252-3.168-7.264c-0.108-0.353-0.215-0.703-0.329-1.054
	c-0.179-1.126-0.546-2.167-0.99-3.265c-0.104-1.229-0.565-2.188-1.237-3.178c-0.271-0.816-0.531-1.638-0.765-2.467
	c-1.196-4.267-0.71-8.456-1.125-12.869c-0.054-0.571-0.258-1.058-0.553-1.464c0.229-0.359,0.38-0.732,0.321-1.116
	c0.269-0.576-0.002-1.433-0.769-1.388c-0.317,0.019-0.631,0.037-0.946,0.055c-0.345-0.048-0.682-0.034-1.031,0.055
	c-0.523,0.027-1.049,0.047-1.571,0.062c-0.24-0.208-0.563-0.325-0.942-0.213c-0.33,0.097-0.664,0.165-1,0.222
	c-0.089-0.002-0.176,0-0.264-0.002c-0.249-0.008-0.436,0.044-0.596,0.121c-0.368,0.04-0.739,0.071-1.11,0.099
	c-1.084,0.08-1.097,1.492-0.274,1.849c-0.01,0.31,0.137,0.589,0.362,0.775c0.017,0.209,0.046,0.419,0.108,0.64
	c0.007,0.02,0.019,0.033,0.023,0.052c-0.416,0.696-0.572,1.543-0.264,2.43c0.083,0.24,0.145,0.488,0.206,0.736
	c-0.015,0.03-0.024,0.063-0.04,0.094c-0.014,0.031-0.032,0.056-0.045,0.087c0.007-0.009,0.012-0.016,0.02-0.025
	c-0.063,0.14-0.127,0.28-0.179,0.426c-0.342,0.857-0.313,1.843-0.271,2.741c0.061,1.323-0.004,2.562,0.082,3.824
	c-0.297,0.282-0.553,0.597-0.727,0.979c-0.234,0.525-0.322,1.072-0.264,1.644c-0.061-0.989-0.244-0.813-0.551,0.525
	c-0.158,0.401-0.309,0.808-0.447,1.217c-0.406,1.147-0.373,2.244-0.514,3.443c-0.006,0.055,0.006,0.106,0.002,0.161
	c-0.215,0.366-0.429,0.736-0.633,1.117c-0.008,0.013-0.01,0.024-0.017,0.038c-0.163,0.232-0.32,0.472-0.478,0.709
	c-0.086-0.396-0.177-0.801-0.274-1.171c-0.72-3.546-2.058-7.215-3.438-10.158c-0.041-0.085-0.095-0.179-0.14-0.257
	c-0.294-1.611-0.544-3.248-0.849-4.719c-0.158-0.771-0.586-1.372-1.137-1.794c0.002-0.044,0.01-0.086,0.012-0.132
	c0.002-0.183,0.012-0.373,0.017-0.559c0.708-0.77,1.084-1.854,0.868-2.892c-0.078-0.371-0.541-1.653-0.727-2.124
	c-0.004-0.253-0.014-0.507-0.026-0.759c0-0.044-0.005-0.087-0.005-0.131c-0.006-0.097-0.018-0.193-0.024-0.291
	c-0.009-0.077-0.011-0.156-0.024-0.232c-0.064-0.696-0.179-1.38-0.348-2.049c0.146-0.488,0.281-0.979,0.381-1.483
	c0.262-1.321-0.193-2.587-0.168-3.898c0.957-0.324,1.789-0.927,2.182-1.887c0.219-0.537-0.162-1.027-0.648-1.176
	c-0.17-0.183-0.387-0.323-0.631-0.36c-0.383-0.058-0.768-0.085-1.148-0.111c-0.129-0.213-0.336-0.384-0.65-0.44
	c-1.238-0.224-2.852-0.367-4.211-0.009c-0.146,0.004-0.289,0.016-0.434,0.024c-0.096-0.037-0.199-0.066-0.318-0.074
	c-2.109-0.127-4.102,1.119-6.188,0.726c-0.956-0.18-1.519,0.925-1.025,1.671c0.291,0.44,0.587,0.876,0.883,1.313
	c-0.102,1.69-0.011,3.38,0.003,5.072c-0.252-0.056-0.516-0.096-0.801-0.098c-2.141-0.011-4.197,0.419-6.322,0.626
	c-0.051,0.005-0.097,0.022-0.147,0.029c-0.762,0.031-1.523,0.105-2.281,0.197c-0.101-0.21-0.291-0.376-0.612-0.417
	c-3.493-0.439-7.113-0.196-10.631-0.196c-2.779,0-5.876-0.4-8.588,0.289c-0.822,0.208-0.909,1.167-0.232,1.518
	c-0.158,0.153-0.261,0.354-0.244,0.586c0.048,0.626,0.275,1.266,0.72,1.67c-0.23,1.277-0.478,2.546-0.627,3.836
	c-0.074,0.635,0.009,1.198,0.198,1.687c-0.237,0.444-0.387,0.967-0.384,1.588c0.046,10.771-1.029,22.19,0.127,32.911
	c-0.187,2.447,2.591,3.593,4.529,2.936c0.193,0.049,0.396,0.079,0.613,0.086c5.451,0.18,10.912,0.278,16.376,0.329
	c2.544,0.976,5.302,0.767,7.98,0.481c0.121,0.033,0.236,0.076,0.367,0.099c2.743,0.468,5.702,0.522,8.467,0.246
	c0.235-0.022,0.457-0.099,0.671-0.192c1.441-0.06,2.854-0.291,4.383-0.385c0.34-0.021,0.645-0.087,0.932-0.174
	c0.244-0.025,0.496-0.059,0.748-0.092c7.535-0.057,15.063-0.135,22.578-0.164c0.519-0.002,0.956-0.115,1.329-0.298
	C100.908,82.051,100.875,81.404,100.875,80.75z"/>
<path fill="#EF2070" d="M57.845,55.154c-8.504,0.139-17.026-0.158-25.527,0.177c-0.763,0.03-1.602,1.271-0.818,1.325
	c-0.132,0.185-0.336,0.394-0.313,0.625c0.58,5.719,0.584,11.395,0.531,17.125c-0.015,1.618,0.008,2.893,0.188,4.188
	c-0.07,0.101,0.267,0.271,0.243,0.413c-0.007,0.039-0.005,0.073-0.01,0.111c-0.021,0.026-0.051,0.051-0.068,0.079
	c-0.221,0.371-0.52,0.546-0.259,0.865c0.088,0.106-0.132,0.467-0.063,0.594c-0.684,0.492,0.188,1.773,1.144,2.041
	c0.181,0.052,0.362,0.103,0.543,0.152c0.357,0.102,0.663,0.006,0.898-0.187c0.092-0.011,0.185-0.015,0.276-0.028
	c0.12-0.012,0.231-0.055,0.337-0.107c1.415,0.402,2.77,0.482,4.41,0.425c1.643-0.06,3.23-0.277,4.872-0.332
	c2.037,0.849,4.268,0.166,6.404,0.204c0.073,0.001,0.127-0.024,0.193-0.033c1.006,0.555,2.363-0.684,1.44-1.609
	c-0.045-0.045-0.09-0.091-0.136-0.136c-0.135-0.136-0.285-0.212-0.438-0.265c0.043-0.758,0.017-1.473-0.052-2.229
	c0.272-0.148,0.489-0.406,0.537-0.809c0.177-1.51,0.693-2.917,0.954-4.389c0.99-2.974,2.391-5.86,2.539-8.912
	c0.364-0.938,0.658-1.912,0.831-2.957c0.021-0.129,0.009-0.256-0.02-0.379c0.403-1,0.693-2.035,0.763-3.144
	c0.125-0.267,0.251-0.534,0.367-0.799c0.073-0.167,0.092-0.665,0.072-0.665h0.019C58.653,56.5,58.78,55.139,57.845,55.154z"/>
<path fill="#0076F7" d="M79.079,60.609c0.051-0.983-0.062-1.709-0.424-2.631c-0.352-0.894-1.145-2.137-1.342-3.209
	c0.24-0.309,0.328-0.721,0.082-1.1c-0.155-0.239-0.305-0.403-0.534-0.569c-0.093-0.066-0.187-0.109-0.278-0.142
	c-0.037-0.131-0.088-0.261-0.129-0.392c0.262-0.352,0.305-0.867,0.053-1.237c0.563-0.364,0.459-1.493-0.36-1.448
	c-5.248,0.286-10.521-0.14-15.768,0.147c-0.631,0.035-0.747,0.958-0.268,1.208c-0.055,0.062-0.111,0.124-0.143,0.209
	c-0.047,0.127-0.086,0.256-0.131,0.383c-0.1,0.054-0.199,0.107-0.298,0.161c-0.674,0.363-0.639,1.071-0.271,1.538
	c-1.288,4.17-1.969,8.514-3.417,12.642c-1.459,4.16-3.178,8.468-3.856,12.858c-0.49,3.172,1.942,4.89,4.833,5.063
	c5.363,0.319,11.396,0.535,16.765-0.091c1.123-0.131,1.342-1.597,0.617-2.034c0.037-0.063,0.082-0.111,0.11-0.188
	c1.003-2.664,0.972-5.983,1.681-8.771c0.985-3.868,2.262-7.596,3.685-11.329C79.88,61.164,79.519,60.743,79.079,60.609z"/>
<path fill="#64E539" d="M100.382,74.128c-0.465-1.174-1.054-2.296-1.726-3.397c-0.698-2.178-1.354-4.349-2.519-6.344
	c-0.12-0.205-0.305-0.351-0.516-0.443c0.004-0.068,0.008-0.137-0.004-0.205c-0.041-0.25-0.111-0.486-0.179-0.725
	c0.063-0.261,0.03-0.543-0.188-0.797c-0.063-0.109-0.129-0.22-0.193-0.33c-0.115-0.283-0.235-0.564-0.358-0.847
	c0.032-0.151,0.042-0.313-0.006-0.496c-0.21-0.793-0.315-1.011-0.724-1.731c-0.047-0.084-0.107-0.135-0.164-0.193
	c0.023-0.006,0.05-0.01,0.074-0.016c0.646-0.151,0.523-1.086-0.062-1.223c-1.712-0.396-3.532-0.214-5.282-0.215
	c-2.023-0.001-4.084-0.128-6.09,0.154c-0.672,0.095-0.783,0.994-0.259,1.277c-1.247,1.072-2.026,2.816-2.38,4.629
	c-0.275,0.762-0.479,1.541-0.605,2.328c-1.214,0.922-1.654,2.506-1.961,4.131c-0.064,0.342,0.023,0.642,0.184,0.879
	c-0.243,0.75-0.443,1.515-0.598,2.289c-0.432,0.894-0.867,1.852-1.055,2.818c-1.703,0.911-1.832,2.896-0.832,4.538v0.005
	c0,0.174-0.309,0.436-0.283,0.797c0.112,1.643,0.131,1.639,1.148,2.932c0.293,0.373,0.682,0.439,1.008,0.326
	c1.543,0.707,3.281,0.508,5.057,0.264c0.023,0.006,0.043,0.02,0.067,0.023c4.073,0.646,8.803,0.621,12.894,0.17
	c0.139-0.017,0.248-0.063,0.342-0.127c0.017,0.004,0.025,0.014,0.043,0.018c0.935,0.162,2.826,0.284,4.752,0.354
	c0.575-0.854,1.21-1.665,1.875-2.448C100.924,79.874,100.41,77.052,100.382,74.128z"/>
<g>
	<polygon fill="#F9F9F9" points="34.94,36.073 34.943,36.071 34.94,36.071 	"/>
	<path fill="#F9F9F9" d="M39.425,35.859c-0.452,0.162-0.901,0.343-1.349,0.531c-0.563-0.036-1.127-0.078-1.692-0.113
		c-0.182-0.264-0.693-0.432-1.039-0.291c-0.065,0.026-0.392,0.058-0.402,0.085c0.01,0.002,0.2,0.004,0.196,0.007
		c-0.113,0.047-0.119,0.099-0.23,0.149c-0.588-0.005-1.123,0.016-1.704,0.09c-0.146-0.137-0.318-0.219-0.558-0.238
		c-0.104-0.008-0.199-0.034-0.293-0.059c-0.046-0.018-0.095-0.023-0.143-0.038c-0.335-0.111-0.639-0.271-1.044-0.248
		c-0.519,0.03-0.753,0.714-0.448,1.097c0.041,0.051,0.1,0.08,0.145,0.126c0.08,0.219,0.258,0.395,0.536,0.42
		c0.028,0.002,0.049,0.01,0.075,0.014c0.132,0.064,0.261,0.135,0.402,0.181c0.021,0.804-0.031,1.633-0.323,2.372
		c-0.141,0.355-0.022,0.633,0.199,0.807c-0.276,0.463,0.12,1.095,0.694,0.936c0.394-0.109,0.755-0.301,1.1-0.53
		c-0.609,5.354-0.167,10.908-0.156,16.289c0.012,5.961-0.438,12.062,0.116,17.998c0.074,0.791,1.302,0.728,1.371-0.043
		c0.426-4.723,0.146-9.547,0.14-14.287c-0.008-6.69,0.586-13.678-0.224-20.324c-0.024-0.202-0.125-0.33-0.254-0.403
		c0.379-0.33,0.749-0.668,1.127-0.957c0.131-0.1,0.279-0.185,0.42-0.275c0.103-0.002,0.204-0.003,0.328,0.007
		c0.528,0.047,0.834-0.295,0.938-0.707c0.356-0.169,0.712-0.342,1.079-0.486c0.386-0.057,0.77-0.139,1.147-0.286
		c0.166-0.065,0.272-0.167,0.337-0.282C40.747,36.965,40.371,35.521,39.425,35.859z"/>
</g>
<path fill="#F9F9F9" d="M34.198,78.105c-1.043,0-1.233,1.623-0.182,1.623C35.06,79.729,35.25,78.105,34.198,78.105z"/>
<path fill="#F9F9F9" d="M64.878,53.168c-0.717,2.188-2.091,4.279-2.356,6.589c-0.067,0.587,0.863,0.788,1.1,0.274
	c0.944-2.047,1.861-4.217,2.547-6.365C66.438,52.821,65.157,52.319,64.878,53.168z"/>
<path fill="#F9F9F9" d="M62.364,61.418c-0.751,0-0.766,1.164-0.016,1.164C63.101,62.582,63.115,61.418,62.364,61.418z"/>
<path fill="#F9F9F9" d="M73.859,28.742c-0.079,0.03-0.146,0.074-0.222,0.106c-0.002-0.004-0.004-0.009-0.006-0.013
	c-0.084,0.048-0.166,0.089-0.25,0.135c-0.323,0.147-0.649,0.297-0.953,0.473c-2.934,1.295-5.762,1.085-8.795,0.095
	c-0.68-0.714-1.381-1.374-2.485-1.383c-0.785-0.007-1.029,0.924-0.746,1.524c-0.01,0.258,0.075,0.521,0.321,0.725
	c0.524,0.436,1.072,0.801,1.638,1.176c-0.498,2.626-0.247,5.454-0.251,8.109c-0.003,1.981-0.277,4.075,0.359,5.974
	c0.181,0.541,1.069,0.597,1.263,0.031c0.648-1.895,0.375-3.984,0.372-5.965c-0.004-2.256,0.17-4.621-0.07-6.892
	c0.499,0.27,1.025,0.41,1.677,0.477c1.465,0.151,3.043-0.097,4.467-0.426c1.166-0.269,2.076-1.069,3.068-1.706
	c0.443-0.199,0.889-0.421,1.336-0.682C75.493,29.967,74.9,28.34,73.859,28.742z"/>
<path fill="#F9F9F9" d="M92.075,40.395c-0.669-0.962-1.496-1.211-2.648-1.081c-1.717,0.195-3.4,0.351-5.135,0.355
	c-1.162,0.002-1.32,1.528-0.322,1.941c-0.135,0.072-0.252,0.183-0.311,0.336c-0.675,1.786-0.451,3.764-0.439,5.647
	c0.013,2.021-0.174,4.129,0.193,6.122c0.004,0.168,0.06,0.31,0.15,0.427c0.182,0.281,0.482,0.374,0.779,0.335
	c0.027-0.002,0.053-0.005,0.078-0.009c0.057-0.012,0.106-0.03,0.16-0.051c0.063-0.023,0.125-0.051,0.182-0.091
	c0.041-0.028,0.072-0.064,0.109-0.099c0.039-0.041,0.082-0.076,0.113-0.127c0.048-0.071,0.074-0.152,0.098-0.238
	c0.012-0.042,0.037-0.07,0.047-0.116c0.293-1.523,0.258-3.138,0.222-4.724c0.267,0.115,0.584,0.082,0.799-0.182
	c0.054-0.066,0.085-0.15,0.131-0.223c0.157,0.114,0.354,0.172,0.556,0.143c0.037,0.216,0.07,0.433,0.135,0.646
	c0.23,0.771,1.246,0.601,1.46-0.072c0.366-1.156,0.227-2.433,0.219-3.632c-0.004-0.646,0.043-1.305-0.021-1.94
	c1.332-0.188,2.564-0.769,3.299-1.834c0.117-0.172,0.123-0.38,0.08-0.582C92.216,41.073,92.296,40.712,92.075,40.395z"/>
<path fill="#F9F9F9" d="M88.056,51.247c-0.1-0.064-0.207-0.112-0.33-0.112c0.004,0.004,0.007,0.007,0.01,0.011
	c-0.124-0.011-0.249,0.007-0.359,0.063c-0.223,0.112-0.371,0.34-0.383,0.589c-0.006,0.087,0.135,0.688,0.311,0.617
	c0.178,0.034,0.354,0.068,0.533,0.102c0.119-0.026,0.225-0.079,0.316-0.16c0.141-0.124,0.227-0.302,0.234-0.489
	C88.431,51.593,88.275,51.37,88.056,51.247z"/>
<path fill="#F9F9F9" d="M80.954,63.918c-0.598,2.747-2.188,5.277-2.211,8.129c-0.006,0.624,0.994,0.818,1.211,0.227
	c0.934-2.563,1.842-5.354,2.225-8.065C82.288,63.419,81.128,63.111,80.954,63.918z"/>
<path fill="#F9F9F9" d="M78.872,73.721c-1.002,0-1.119,1.559-0.113,1.559C79.761,75.279,79.878,73.721,78.872,73.721z"/>
<path fill="#0063BC" d="M79.091,61.176c0.066-0.199,0.133-0.398,0.199-0.598c0.344-1.014-1.109-1.732-1.541-0.704
	c-3.074,7.319-6.172,15.437-7.468,23.278c-0.103,0.617,0.377,1.047,0.88,1.086c0.168,0.133,0.385,0.216,0.655,0.189
	c0.724,0.035,1.446,0.07,2.17,0.105c1.028,0.177,1.2-1.238,0.556-1.747c-2.076-1.644,0.278-6.397,0.916-8.282
	c1.105-3.268,1.892-6.525,3.227-9.654c0.391,0.006,0.781-0.193,0.861-0.65c0.069-0.389,0.139-0.774,0.205-1.162
	c0.002-0.014-0.002-0.023,0-0.038c0.035-0.194,0.071-0.392,0.107-0.586C80.048,61.838,79.589,61.277,79.091,61.176z"/>
<path fill="#BA0C52" d="M56.765,55.683c-2.298,5.973-4.781,11.969-7.252,17.881c-1.198,2.865-2.112,5.914-0.99,8.965
	c0.154,0.42,0.532,0.791,1.015,0.756c0.102-0.008,0.203-0.016,0.304-0.021c0.152-0.011,0.373-0.127,0.543-0.285
	c0.736,0.733,2.195-0.111,1.644-1.19c-1.319-2.581,1.021-8.425,1.832-10.679c0.821-2.278,1.735-4.519,1.891-6.955
	c0.013-0.195-0.064-0.357-0.18-0.48c0.85-2.505,1.661-5.021,2.441-7.525C58.236,55.43,57.037,54.976,56.765,55.683z"/>
<g>
	<path fill="#070B3A" d="M85.507,53.435c-1.573,7.771-2.973,15.577-4.736,23.308c-0.143,0.628,0.82,0.896,0.965,0.267
		c1.764-7.732,3.162-15.537,4.737-23.309C86.6,53.071,85.636,52.803,85.507,53.435L85.507,53.435z"/>
</g>
<g>
	<path fill="#070B3A" d="M82.792,53.451c-2.86,7.8-6.358,15.595-8.388,23.666c-0.858,3.417-1.136,8.672,3.786,8.133
		c0.634-0.068,0.641-1.07,0-1c-5.275,0.577-2.975-6.725-2.032-9.578c2.331-7.056,5.039-13.98,7.599-20.955
		C83.979,53.11,83.013,52.851,82.792,53.451L82.792,53.451z"/>
</g>
<g>
	<path fill="#070B3A" d="M92.909,53.451c-0.221-0.6-1.188-0.341-0.965,0.266c2.56,6.975,5.268,13.899,7.599,20.955
		c0.942,2.854,3.243,10.155-2.032,9.578c-0.641-0.07-0.634,0.932,0,1c4.922,0.539,4.645-4.716,3.786-8.133
		C99.268,69.046,95.77,61.251,92.909,53.451L92.909,53.451z"/>
</g>
<g>
	<path fill="#070B3A" d="M97.47,85.313c0.257-0.275,0.518-0.542,0.784-0.801l-0.041-0.199h-20.71v1c0,0,7.985,0,14.583,0H97.47z"/>
</g>
<g>
	<path fill="#070B3A" d="M83.94,53.5c0-4.028,0-8,0-12c0-1-1-1-1,0c0,4,0,7.972,0,12C82.94,54.145,83.94,54.145,83.94,53.5
		L83.94,53.5z"/>
</g>
<g>
	<path fill="#070B3A" d="M83.706,40.998c-0.231-0.281-0.427-0.587-0.584-0.917c-0.06,0.228-0.119,0.456-0.18,0.684
		c1.376-0.778,3.15-0.896,4.689-0.987c1.355-0.081,4.021-0.268,4.959,0.975c0.061-0.228,0.119-0.456,0.181-0.684
		c-0.183,0.128-0.422,0.146-0.631,0.2c-0.624,0.161-0.359,1.126,0.266,0.964c0.425-0.109,0.511-0.047,0.869-0.3
		c0.202-0.142,0.354-0.454,0.181-0.684c-1.08-1.43-3.244-1.467-4.877-1.492c-1.974-0.03-4.387,0.154-6.141,1.146
		c-0.24,0.136-0.313,0.449-0.18,0.684c0.156,0.33,0.351,0.635,0.582,0.917C83.22,42.016,84.087,41.518,83.706,40.998L83.706,40.998z
		"/>
</g>
<g>
	<path fill="#070B3A" d="M91.94,40.5c0,0,0,9,0,13c0,1,1,1,1,0c0-4,0-9,0-13H91.94L91.94,40.5z"/>
</g>
<g>
	<path fill="#070B3A" d="M73.94,44.074c1.866,6.154,3.732,12.309,5.602,18.462c0.187,0.614,1.151,0.353,0.965-0.267
		c-1.867-6.153-3.734-12.308-5.602-18.461C74.718,43.193,73.753,43.455,73.94,44.074L73.94,44.074z"/>
</g>
<g>
	<path fill="#070B3A" d="M61.231,44.34c-3.047,10.658-6.095,21.316-9.141,31.975c-0.178,0.621,0.787,0.885,0.964,0.266
		c3.047-10.658,6.094-21.316,9.141-31.974C62.373,43.985,61.407,43.721,61.231,44.34L61.231,44.34z"/>
</g>
<g>
	<path fill="#070B3A" d="M64.231,45.34c-3.047,10.658-6.095,21.316-9.141,31.975c-0.178,0.621,0.787,0.885,0.964,0.266
		c3.047-10.658,6.094-21.316,9.142-31.974C65.374,44.985,64.407,44.721,64.231,45.34L64.231,45.34z"/>
</g>
<g>
	<path fill="#070B3A" d="M84.503,42.063c1.23,0.009,2.459,0.11,3.688,0c0.638-0.057,0.644-1.058,0-1
		c-1.229,0.11-2.457,0.009-3.688,0C83.857,41.058,83.858,42.058,84.503,42.063L84.503,42.063z"/>
</g>
<g>
	<path fill="#070B3A" d="M89.87,41.982c0.02,0.003,0.036,0.005,0.055,0.008c-0.115-0.116-0.232-0.232-0.35-0.349
		c0.004,0.019,0.006,0.037,0.008,0.055c0.092,0.636,1.055,0.365,0.965-0.266c-0.002-0.019-0.006-0.037-0.008-0.055
		c-0.021-0.151-0.197-0.328-0.35-0.349c-0.02-0.003-0.036-0.005-0.055-0.008C89.505,40.928,89.233,41.891,89.87,41.982L89.87,41.982
		z"/>
</g>
<g>
	<path fill="#070B3A" d="M84.94,43.5c0,0,0,7,0,11h1c0-4,0-7,0-11H84.94L84.94,43.5z"/>
</g>
<g>
	<path fill="#070B3A" d="M80.94,77.5c0,0,4,0,5,0s1-1,0-1s-3,0-5,0V77.5L80.94,77.5z"/>
</g>
<g>
	<path fill="#070B3A" d="M82.94,72.5c0,0,2,0,3,0s1-1,0-1s-2,0-3,0S81.94,72.5,82.94,72.5C82.94,72.5,81.94,72.5,82.94,72.5z"/>
</g>
<g>
	<path fill="#070B3A" d="M83.94,64.5c0,0,2,0,3,0s1-1,0-1c0,0,0,0-1,0v1c1,0,1,0,1,0c1,0,1-1,0-1s-2,0-3,0V64.5L83.94,64.5z"/>
</g>
<g>
	<path fill="#070B3A" d="M74.94,83.5c0,0-12.722,0-19,0c-0.645,0-0.645,1,0,1c0.25,0,0,0,1,0v-1c-1,0-1,0-2,0v1c1,0,1,0,2,0v-1
		c-1,0-0.75,0-1,0c-0.645,0-0.645,1,0,1c6.278,0,13,0,19,0V83.5L74.94,83.5z"/>
</g>
<g>
	<path fill="#070B3A" d="M52.089,76.314c-1.333,3.498-1.191,7.902,3.351,8.373c0.641,0.065,0.635-0.936,0-1
		c-3.855-0.399-3.432-4.365-2.387-7.107C53.285,75.977,52.316,75.719,52.089,76.314L52.089,76.314z"/>
</g>
<g>
	<path fill="#070B3A" d="M61.94,44.5c0-4.139,0-8,0-12c0-1-1-1-1,0l0,0h1l0,0c0-1-1-1-1,0c0,4,0,7.861,0,12
		C60.94,45.145,61.94,45.145,61.94,44.5L61.94,44.5z"/>
</g>
<g>
	<path fill="#070B3A" d="M74.94,44.5c0,0,0-9,0-14h-1c0,1,0,1,0,1h1c0,0,0,0,0-1h-1c0,5,0,9,0,14H74.94L74.94,44.5z"/>
</g>
<g>
	<path fill="#070B3A" d="M74.837,30.979c0.775-0.961,3.092-2.987,1.017-3.946c-0.581-0.269-1.089,0.593-0.504,0.863
		c0.608,0.282,0.198,0.751-0.124,1.153c-0.344,0.428-0.752,0.797-1.096,1.223C73.728,30.768,74.431,31.48,74.837,30.979
		L74.837,30.979z"/>
</g>
<g>
	<path fill="#070B3A" d="M62.164,31.456c-0.382-0.613-2.339-3.425-0.848-3.54c0.639-0.049,0.644-1.049,0-1
		c-2.971,0.228-0.849,3.707-0.015,5.044C61.641,32.507,62.505,32.005,62.164,31.456L62.164,31.456z"/>
</g>
<g>
	<path fill="#070B3A" d="M61.156,28.023c4.655-1.016,9.927-1.263,14.568,0c0.623,0.17,0.888-0.795,0.266-0.964
		c-4.838-1.317-10.243-1.061-15.099,0C60.261,27.197,60.528,28.161,61.156,28.023L61.156,28.023z"/>
</g>
<g>
	<path fill="#070B3A" d="M61.688,29.119c2.938,1.836,8.243,1.383,11.417,0.394c0.612-0.191,0.353-1.156-0.267-0.964
		c-2.842,0.885-8.02,1.348-10.646-0.293C61.645,27.913,61.143,28.778,61.688,29.119L61.688,29.119z"/>
</g>
<g>
	<path fill="#070B3A" d="M74.222,29.219c0.645,0,0.645-1,0-1S73.577,29.219,74.222,29.219L74.222,29.219z"/>
</g>
<g>
	<path fill="#070B3A" d="M63.94,32.5c0,0,0,8,0,13h1c0-5,0-9,0-13H63.94L63.94,32.5z"/>
</g>
<g>
	<path fill="#070B3A" d="M55.94,77.5c0,0,4,0,6,0v-1l0,0c-1,0-1,1,0,1l0,0v-1c-2,0-4,0-6,0C54.94,76.5,54.94,77.5,55.94,77.5
		C55.94,77.5,54.94,77.5,55.94,77.5z"/>
</g>
<g>
	<path fill="#070B3A" d="M57.94,71.5c0,0,4,0,5,0s1-1,0-1s-3,0-5,0C56.94,70.5,56.94,71.5,57.94,71.5
		C57.94,71.5,56.94,71.5,57.94,71.5z"/>
</g>
<g>
	<path fill="#070B3A" d="M59.94,64.5c0,0,3,0,5,0c1,0,1-1,0-1c-2,0-3,0-5,0C58.94,63.5,58.94,64.5,59.94,64.5
		C59.94,64.5,58.94,64.5,59.94,64.5z"/>
</g>
<g>
	<path fill="#070B3A" d="M52.94,82.5c0,0-12,0-18,0c-1,0-1,1,0,1c6,0,12,0,18,0V82.5L52.94,82.5z"/>
</g>
<g>
	<path fill="#070B3A" d="M34.69,82.563c-2.686,0.355-2.887-2.424-2.688-4.438c0.063-0.643-0.937-0.637-1,0
		c-0.253,2.562,0.418,5.869,3.688,5.438C35.32,83.479,35.329,82.479,34.69,82.563L34.69,82.563z"/>
</g>
<g>
	<path fill="#070B3A" d="M31.94,78.5c0,0,0-27,0-41h-1c0,14,0,27,0,41C30.94,79.5,31.94,79.5,31.94,78.5
		C31.94,78.5,31.94,79.5,31.94,78.5z"/>
</g>
<g>
	<path fill="#070B3A" d="M32.422,37.742c-0.452-1.282-1.707-2.204-3.037-2.412c-0.63-0.099-0.901,0.865-0.266,0.964
		c0.966,0.151,1.999,0.752,2.338,1.713C31.671,38.612,32.637,38.352,32.422,37.742L32.422,37.742z"/>
</g>
<g>
	<path fill="#070B3A" d="M28.94,36.5c0,0,21,0,32,0c1,0,1-1,0-1l0,0c-1,0-1,1,0,1l0,0c1,0,1-1,0-1c-11,0-21,0-32,0
		C27.94,35.5,27.94,36.5,28.94,36.5C28.94,36.5,27.94,36.5,28.94,36.5z"/>
</g>
<g>
	<path fill="#070B3A" d="M34.94,40.5c0,0,5,0,8,0v-1c-3,0-5,0-8,0V40.5L34.94,40.5z"/>
</g>
<g>
	<path fill="#070B3A" d="M35.94,40.5c0,0,0,24,0,37h1c0-13,0-25,0-37C36.94,39.5,35.94,39.5,35.94,40.5
		C35.94,40.5,35.94,39.5,35.94,40.5z"/>
</g>
<g>
	<path fill="#070B3A" d="M36.94,77.5c0,0,3,0,4,0s1-1,0-1s-3,0-4,0S35.94,77.5,36.94,77.5C36.94,77.5,35.94,77.5,36.94,77.5z"/>
</g>
<g>
	<path fill="#070B3A" d="M36.94,71.5c0,0,3,0,4,0s1-1,0-1s-3,0-4,0S35.94,71.5,36.94,71.5C36.94,71.5,35.94,71.5,36.94,71.5z"/>
</g>
<g>
	<path fill="#070B3A" d="M36.94,65.5c0,0,3,0,4,0s1-1,0-1s-3,0-4,0S35.94,65.5,36.94,65.5C36.94,65.5,35.94,65.5,36.94,65.5z"/>
</g>
<g>
	<path fill="#070B3A" d="M36.94,59.5c0,0,3,0,4,0s1-1,0-1s-3,0-4,0S35.94,59.5,36.94,59.5C36.94,59.5,35.94,59.5,36.94,59.5z"/>
</g>
<g>
	<path fill="#070B3A" d="M36.94,53.5c0,0,3,0,4,0s1-1,0-1s-3,0-4,0S35.94,53.5,36.94,53.5C36.94,53.5,35.94,53.5,36.94,53.5z"/>
</g>
<g>
	<path fill="#070B3A" d="M36.94,47.5c0,0,3,0,4,0s1-1,0-1s-3,0-4,0S35.94,47.5,36.94,47.5C36.94,47.5,35.94,47.5,36.94,47.5z"/>
</g>
<path opacity="0.1" d="M18.67,29.735v53.12l46.073,26.56l46.074-26.56v-53.12L64.743,3.175L18.67,29.735z M108.952,30.815v50.97
	l-44.21,25.49l-44.211-25.49v-50.97L64.742,5.326L108.952,30.815z"/>
</svg>
