<?xml version="1.0" encoding="utf-8"?>
<!-- Generator: Adobe Illustrator 16.0.0, SVG Export Plug-In . SVG Version: 6.00 Build 0)  -->
<!DOCTYPE svg PUBLIC "-//W3C//DTD SVG 1.1//EN" "http://www.w3.org/Graphics/SVG/1.1/DTD/svg11.dtd">
<svg version="1.1" xmlns="http://www.w3.org/2000/svg" xmlns:xlink="http://www.w3.org/1999/xlink" x="0px" y="0px"
	 width="110.979px" height="128.417px" viewBox="0 0 110.979 128.417" enable-background="new 0 0 110.979 128.417"
	 xml:space="preserve">
<g id="Layer_1">
</g>
<g id="Layer_4">
</g>
<g id="Layer_3">
	<g id="Layer_63">
		<polygon fill="#B53581" points="110.979,96 55.553,128 0.129,96 0.129,32 55.553,0 110.979,32 		"/>
		<path fill="#D7589E" d="M102.055,37.729v53.13l-0.01,0.01l-1.42,0.82l-9,5.189L91.385,97l-0.131,0.06l-0.109,0.061l-2.311,1.33
			l-0.719,0.41l-0.881,0.51l-0.049,0.03l-0.631,0.359l-0.311,0.181l-0.039,0.029l-1.67,0.96c0,0.011,0,0.011,0,0.011l-0.92,0.54
			h-0.01l-0.65,0.369l-1.41,0.82l-0.471,0.271l-0.369,0.21l-1.66,0.96l-0.541,0.31l-1.17,0.68l-0.959,0.551l-2.76,1.59l-0.701,0.41
			l-0.01,0.01l-1.15,0.66l-0.629,0.37l-0.061,0.029l-2.549,1.471l-0.531,0.31l-0.42,0.24l-11.561,6.68l-6.329-3.66l-3.351-1.939
			l-2.279-1.32l-0.859-0.5l-2.221-1.28l-0.689-0.399l-1.08-0.63l-0.74-0.421l-3.27-1.89l-0.601-0.35
			c-0.011-0.011-0.021-0.011-0.03-0.021l-2.43-1.399l-0.57-0.33l-1.8-1.04l-3.18-1.84l-0.03-0.011l-2.12-1.229l-0.09-0.05
			l-1.79-1.03l-2.88-1.67l-9.61-5.55v-53.13l14.33-8.28l2.25-1.3l4.67-2.69l3.41-1.96l1.16-0.67l1.54-0.9l2.8-1.61l0.689-0.4
			l1.461-0.84l5.72-3.3l7.97-4.6l11.77,6.8l3.371,1.94l0.689,0.4l5.891,3.4l1.4,0.81l2.299,1.32l0.871,0.5l2.549,1.47l1.141,0.66
			l0.09,0.05l1.811,1.04l3.779,2.19l0.039,0.02v0.01l0.262,0.15l0.66,0.38l1.459,0.84l1.939,1.12l0.781,0.45l0.439,0.25l1.939,1.12
			L102.055,37.729z"/>
	</g>
	<g id="Layer_61">
		<path fill="#B53581" d="M34.331,41.968c1.044-1.291,1.695-2.823,2.574-4.217c0.615-0.977,1.309-1.864,2.345-2.419
			c0.706-0.377,1.5-0.685,2.225-0.231c0.675,0.426,0.587,1.249,0.55,1.958c-0.072,1.441-0.379,2.846-0.871,4.222
			c0.627,0.139,0.668-0.332,0.836-0.589c0.937-1.426,1.854-2.864,2.761-4.308c0.373-0.59,0.873-1.033,1.479-1.349
			c1.297-0.675,2.61,0.015,2.66,1.468c0.081,2.324-0.501,4.583-0.813,6.868c-0.16,1.163-0.336,2.322-0.104,3.499
			c0.15,0.751,0.539,1.015,1.295,0.792c1.471-0.43,2.156-1.23,2.344-2.751c0.629-5.077,1.197-10.163,1.931-15.225
			c0.403-2.795,1.513-5.389,2.907-7.854c0.861-1.515,2.197-2.402,3.777-2.946c1.428-0.491,2.533,0.025,3.238,1.463
			c1.125,2.293,1.041,4.675,0.406,7.073c-0.781,2.96-2.301,5.558-4.084,8.189c1.801-0.826,3.133-0.116,4.279,1.14
			c1.357,1.487,1.57,3.289,1.346,5.189c-0.189,1.563-0.789,3-1.512,4.618c1.604-0.588,2.865-1.403,4.121-2.227
			c0.32-0.212,0.205-0.578,0.254-0.882c0.52-3.245,1.871-6.019,4.557-8.038c1.26-0.948,2.697-1.259,4.229-1.089
			c1.424,0.158,2.334,1.016,2.705,2.375c0.672,2.453,0.146,4.644-1.59,6.519c-1.281,1.385-2.881,2.314-4.633,2.951
			c-0.84,0.305-0.602,0.591-0.117,0.963c0.789,0.605,1.703,0.701,2.643,0.541c2.207-0.377,4-1.592,5.744-2.902
			c0.262-0.196,0.279-0.459,0.314-0.748c0.318-2.692,1.053-5.292,1.758-7.898c0.189-0.695,0.506-1.222,1.299-1.37
			c1.229-0.229,1.631,0.048,1.662,1.31c0.031,1.241,0.008,2.483,0.008,3.959c0.658-1.215,1.137-2.302,1.84-3.257
			c0.602-0.817,1.254-1.553,2.252-1.873c0.947-0.304,1.432-0.036,1.627,0.935c0.189,0.945,0.207,1.899,0.098,2.864
			c-0.129,1.129-0.207,2.264,0.1,3.389c0.258,0.945,0.842,1.346,1.813,1.223c1.088-0.139,2.037-0.605,2.932-1.198
			c0.443-0.293,0.891-0.493,1.385-0.214c0.514,0.287,0.508,0.818,0.508,1.32c0,0.679-0.236,1.275-0.785,1.676
			c-1.42,1.037-2.947,1.855-4.729,2.074c-1.736,0.211-2.855-0.373-3.686-1.91c-0.617-1.138-0.77-2.404-0.963-3.682
			c-0.418,0.124-0.4,0.452-0.488,0.687c-0.869,2.291-1.727,4.587-2.58,6.883c-0.26,0.701-0.547,1.389-0.996,1.996
			c-0.898,1.224-2.063,1.193-2.93-0.079c-0.305-0.448-0.447-0.962-0.596-1.583c-2.092,1.797-4.455,2.664-7.166,2.515
			c-2.32-0.126-4.18-1.089-5.438-3.058c-0.357-0.563-0.6-0.569-1.154-0.273c-3.199,1.71-6.672,2.631-10.217,3.236
			c-1.801,0.307-3.552-0.226-5.082-1.208c-0.672-0.433-1.105-0.324-1.701,0.043c-0.963,0.595-1.941,1.185-3.107,1.336
			c-1.707,0.223-2.643-0.389-3.043-2.06c-0.403-1.676-0.367-3.383-0.273-5.089c0.042-0.762,0.1-1.522,0.055-2.304
			c-1.092,1.845-1.893,3.794-2.533,5.813c-0.237,0.745-0.456,1.491-0.801,2.199c-0.474,0.969-1.196,1.341-2.25,1.125
			c-1.117-0.23-1.779-0.919-1.846-2.033c-0.125-2.074,0.238-4.109,0.539-6.148c0.063-0.417,0.122-0.835,0.096-1.286
			c-0.847,1.055-1.362,2.279-1.891,3.491c-0.725,1.662-1.391,3.35-2.355,4.891c-0.399,0.636-0.855,1.236-1.707,1.305
			c-1.078,0.086-1.846-0.383-2.229-1.572c-0.204-0.634-0.41-0.596-0.858-0.298c-1.688,1.127-3.56,1.753-5.573,1.958
			c-2.991,0.304-5.194-0.989-6.296-3.813c-0.273-0.702-0.67-0.976-1.334-1.138c-0.895-0.22-1.786-0.481-2.646-0.812
			c-0.909-0.349-1.034-1.081-0.471-2.231c0.494-1.008,0.876-1.142,1.821-0.602c0.376,0.215,0.763,0.363,1.192,0.428
			c0.907,0.138,1.376-0.04,1.484-1.148c0.218-2.24,1.12-4.252,2.67-5.92c1.059-1.139,2.363-1.778,3.958-1.797
			c1.763-0.021,3.306,0.517,4.157,2.095c0.848,1.574,0.659,3.249-0.279,4.782c-1.261,2.063-3.248,3.223-5.351,4.244
			c-0.375,0.182-1.068,0.125-1.025,0.725c0.049,0.667,0.603,0.99,1.241,1.146c0.865,0.213,1.697,0.066,2.519-0.185
			c1.58-0.481,2.982-1.319,4.374-2.184c0.382-0.237,0.461-0.567,0.523-0.975c0.418-2.741,1.009-5.448,1.711-8.13
			c0.367-1.407,1.466-2.011,2.832-1.583c0.768,0.241,0.865,0.868,0.853,1.539c-0.03,1.5-0.344,2.962-0.587,4.434
			c-0.068,0.416-0.234,0.824-0.12,1.258c-0.043,0.026-0.085,0.054-0.127,0.081c0.024,0.015,0.05,0.03,0.074,0.045
			C34.308,42.063,34.321,42.015,34.331,41.968z M61.461,42.471c0.01-0.538-0.029-1.063-0.201-1.577
			c-0.289-0.874-0.656-1.647-1.699-1.833c-1.078-0.191-1.969,0.113-2.668,0.94c-0.229,0.269-0.443,0.567-0.578,0.888
			c-0.875,2.077-1.375,4.239-1.441,6.5c-0.016,0.558,0.185,0.829,0.73,0.968c2.006,0.51,3.779-0.216,4.793-2.029
			C61.065,45.132,61.399,43.836,61.461,42.471z M55.489,35.507c0.305,0.086,0.41-0.012,0.48-0.136
			c1.904-3.241,3.746-6.514,4.781-10.161c0.193-0.678,0.342-1.386,0.146-2.099c-0.08-0.297-0.104-0.674-0.494-0.741
			c-0.326-0.056-0.502,0.223-0.68,0.439c-0.625,0.781-1.061,1.678-1.441,2.592C56.93,28.645,56.364,32.104,55.489,35.507z
			 M76.647,39.557c-0.037-0.608-0.188-1.287-0.881-1.695c-0.527-0.309-0.986-0.084-1.336,0.289c-1.254,1.338-1.879,2.966-2.072,4.77
			c-0.043,0.389,0.107,0.562,0.551,0.545C74.625,43.399,76.614,41.404,76.647,39.557z M24.974,39.561
			c-0.024-0.537-0.152-1.128-0.761-1.447c-0.554-0.291-1.058-0.017-1.478,0.306c-1.493,1.145-1.996,2.782-2.185,4.561
			c-0.039,0.357,0.092,0.507,0.477,0.5C22.645,43.448,24.923,41.249,24.974,39.561z"/>
	</g>
	<g id="Layer_14">
		<g>
			<path fill="#FCFBFA" d="M80.795,89.9c0,0.33-0.02,0.67-0.061,1.02c-0.059,0.47-0.119,0.93-0.199,1.39
				c-0.08,0.45-0.18,0.891-0.281,1.341c-0.02,0.09-0.039,0.18-0.068,0.27c-0.191,0.82-0.441,1.63-0.721,2.43
				c-0.051,0.131-0.1,0.25-0.141,0.381c-0.109,0.35-0.129,0.67,0.281,0.96c-0.031,0.46-0.311,0.79-0.602,1.109
				c-0.889,1-1.869,1.851-2.93,2.58c-0.539,0.37-1.09,0.7-1.66,1.01c-0.58,0.311-1.17,0.591-1.779,0.841
				c-2.051,0.859-4.17,1.5-6.34,2.01c-0.1,0.029-0.23,0.05-0.35,0.08c-0.02-0.011-0.051,0-0.08,0.02c-0.01,0-0.02,0.01-0.031,0.01
				c0,0,0,0-0.01,0c-0.029,0.011-0.07,0.021-0.1,0.04c-0.01,0-0.02,0.011-0.029,0.011c-0.01,0.01-0.02,0.01-0.031,0.02
				c-0.02,0.01-0.049,0.03-0.068,0.05c-0.051,0.04-0.08,0.08-0.102,0.13c0,0.021-0.01,0.03-0.02,0.051
				c-0.029,0.09-0.029,0.189,0.01,0.33c0.02,0.06,0.041,0.109,0.07,0.17c0.07,0.14,0.17,0.239,0.279,0.26
				c0.021,0.01,0.031,0.01,0.051,0.01c0.07,0,0.15,0.08,0.221,0.08c0,0,0.01,0,0.02,0c0.039,0,0.1-0.14,0.15-0.15
				c0.02-0.01,0.039-0.029,0.059-0.05c0.012-0.02,0.031-0.04,0.051-0.04c0.01,0,0.02-0.01,0.029-0.01
				c0.031-0.02,0.061-0.04,0.08-0.05c1.23-0.24,2.4-0.74,3.66-0.811c0.25,0.16,0.5,0.33,0.73,0.511
				c0.359,0.27,0.699,0.56,1.029,0.859s0.66,0.601,0.99,0.9l-1.15,0.66l-0.629,0.37l-0.061,0.029l-2.549,1.471l-0.531,0.31h-6.99
				c0.381-0.71,0.74-1.42,1.041-2.16c0.199-0.45,0.369-0.91,0.52-1.37c0.109-0.279,0.199-0.569,0.279-0.87
				c0.031-0.1,0.061-0.199,0.092-0.31c0.639-2.42,0.719-4.83-0.41-7.14c-0.432-0.881-1.012-1.42-1.721-1.58v-0.011
				c-0.461-0.119-0.98-0.079-1.551,0.12c-1.59,0.54-2.939,1.44-3.809,2.971c-1.281,2.239-2.311,4.6-2.781,7.119
				c-0.069,0.261-0.109,0.53-0.149,0.801c-0.04,0.239-0.069,0.479-0.101,0.72c-0.09,0.57-0.16,1.14-0.239,1.71h-8.12l-0.859-0.5
				l-2.221-1.28l-0.689-0.399l-1.08-0.63c0.14-0.181,0.289-0.37,0.43-0.551c0.3-0.199,0.609-0.1,0.92-0.01
				c0.391,0.11,0.79,0.21,1.18,0.3c2.471,0.62,4.971,1,7.52,1c0.24,0,0.5,0.07,0.641,0.07h0.01c0.03,0,0.061-0.08,0.07-0.18
				c0.01-0.03,0.02-0.061,0.02-0.09c0.01-0.051,0.131-0.101,0.131-0.141c0.02-0.05,0.119-0.1,0.119-0.149v-0.051
				c0-0.09-0.149-0.159-0.189-0.199c-0.01-0.011-0.051-0.03-0.08-0.03c-0.02-0.01-0.05-0.021-0.061-0.021
				c-0.109-0.05-0.27-0.05-0.41-0.05c0-0.01,0-0.01-0.01-0.01c-0.049,0.01-0.09,0.01-0.129,0c-1.24-0.1-2.521-0.15-3.761-0.29
				c-1-0.12-1.989-0.271-2.97-0.48c-1.631-0.319-3.23-0.75-4.801-1.29c-0.84-0.289-1.67-0.6-2.489-0.949
				c-0.479-0.2-0.96-0.41-1.431-0.62c-0.42-0.181-0.84-0.38-1.25-0.58c-0.02-0.01-0.049-0.021-0.069-0.03
				c-0.42-0.2-0.83-0.41-1.229-0.63c-0.41-0.22-0.811-0.45-1.211-0.69c-0.17-0.1-0.34-0.21-0.51-0.319
				c-0.05-0.03-0.1-0.07-0.15-0.101c-0.41-0.26-0.81-0.54-1.189-0.83c-0.19-0.149-0.38-0.3-0.56-0.46
				c-0.18-0.14-0.35-0.29-0.52-0.449c-0.56-0.49-1.08-1.03-1.58-1.63c-1.68-2.011-2.76-4.24-3-6.83c-0.03-0.29-0.04-0.601-0.05-0.9
				c-0.07-3.87,1.65-7.13,3.45-10.37c0.14-0.25,0.28-0.5,0.42-0.74c1.15-1.939,2.48-3.779,3.47-5.819c0.06,0.09,0.16,0.18,0.17,0.27
				c0.229,2.91,2.19,4.33,4.74,4.72c1.771,0.271,3.55,0.41,5.34,0.4c0.511,0,1.03,0.03,1.39,0.43c0.471,0.511,0.98,0.96,1.51,1.391
				c0.23,0.18,0.461,0.359,0.701,0.54c0.31,0.239,0.629,0.47,0.949,0.699c0.15,0.12,0.311,0.23,0.471,0.351
				c-0.34,0.29-0.75,0.21-1.131,0.189c-1.85-0.069-3.66-0.43-5.47-0.729c-0.28-0.04-0.569-0.16-0.79-0.021
				c-0.08,0.051-0.15,0.141-0.21,0.271c-0.54,0.31-0.489,0.88-0.069,0.99c0.219,0.06,0.43,0.13,0.64,0.22
				c0.13,0.05,0.26,0.11,0.39,0.17c0.33,0.15,0.65,0.31,0.98,0.46c0.24,0.1,0.479,0.2,0.729,0.271c0.13,0.04,0.271,0.079,0.41,0.1
				c0.21,0.08,0.36,0.24,0.45,0.44c0.061,0.069,0.119,0.14,0.18,0.21l0.03,0.02c0.05,0.07,0.11,0.14,0.17,0.2
				c0.069,0.1,0.149,0.2,0.229,0.3c-0.029,0.18,0.07,0.28,0.23,0.33c0.75,0.97,1.221,2.08,1.58,3.24
				c-0.061,0.029-0.12,0.06-0.17,0.1c-0.03,0.021-0.061,0.04-0.08,0.07c-0.109,0.09-0.189,0.2-0.25,0.31
				c-0.07,0.141-0.109,0.28-0.15,0.42c-0.06,0.221-0.1,0.45-0.18,0.65c-0.48,1.3-0.68,2.7,0.391,3.729
				c1.25,1.21,2.879,1.73,4.649,1.61c0.29,0.021,0.569,0.05,0.851,0.08c0.119,0.33,0.42,0.34,0.699,0.4
				c1.561,0.35,3.141,0.51,4.73,0.6h0.13c0.09,0,0.17,0,0.25-0.02c0.06,0,0.12-0.011,0.18-0.03c0.03-0.01,0.06-0.061,0.08-0.11
				v-0.01c0.03-0.05,0.06-0.1,0.08-0.11c0.03-0.01,0.06-0.22,0.09-0.22h0.011c0.01,0,0.02,0.17,0.029,0.17
				c0.23-0.1,0.43-0.15,0.59-0.35c0.04-0.051,0.08-0.08,0.12-0.12c0.021-0.021,0.04-0.04,0.05-0.061c0.041-0.05,0.07-0.09,0.1-0.149
				c0,0,0.01-0.01,0.01-0.021c0.361-0.029,0.691-0.12,0.98-0.29c0.09-0.05,0.18-0.109,0.26-0.18c0.08-0.05,0.15-0.12,0.221-0.2h0.01
				v-0.01l0.029-0.021h0.031c0,0,0,0.011,0.01,0.011c0.051,0,0.09-0.011,0.131-0.03c0.119-0.06,0.229-0.12,0.35-0.17
				c0.279-0.12,0.559-0.22,0.85-0.28c0.02-0.01,0.029-0.01,0.051-0.01c0.148-0.04,0.299-0.07,0.439-0.09c0.02,0,0.039,0,0.049-0.01
				c0.021,0,0.041-0.011,0.061-0.011h0.109c0.092-0.01,0.182-0.02,0.271-0.04c0,0,0,0.011,0.01,0c0.029,0,0.061-0.06,0.1-0.069
				c0.09,0,0.17-0.07,0.26-0.07h0.01c0.111,0,0.221,0.01,0.33,0.02h0.07c0.01,0,0.01,0,0.01,0c0.031,0,0.051,0,0.08,0.011
				c0.01,0,0.01,0,0.02,0c0.211,0.01,0.42,0.029,0.631,0.04c0.02,0.01,0.039,0.02,0.061,0.029c0.01,0.011,0.01,0,0.01,0
				c0.35,0.21,0.65,0.261,1.039,0.2v0.01c0,0.011,0,0.021,0.01,0.03c-0.01,0.03,0,0.05,0.01,0.07c0.08,0.26,0.451,0.47,0.762,0.55
				c0.09,0.03,0.18,0.04,0.25,0.04h0.01c0.029,0,0.049-0.21,0.09-0.23c0.109-0.06,0.23-0.22,0.34-0.289
				c0.221-0.15,0.449-0.341,0.67-0.48c0.221-0.15,0.439-0.32,0.641-0.49c0.1-0.08,0.199-0.17,0.299-0.279
				c0.1-0.07,0.189-0.16,0.26-0.261c0.102-0.109,0.201-0.229,0.291-0.35c1.799-2.44,3.119-5.13,4.219-7.93
				c0.17-0.45,0.342-0.891,0.551-1.261c0.07-0.12,0.141-0.239,0.221-0.35c0.059-0.09,0.129-0.17,0.209-0.24
				c0.041-0.05,0.09-0.1,0.15-0.14c0.09-0.08,0.199-0.141,0.311-0.19c0.049-0.02,0.1-0.04,0.15-0.06h0.01
				c0.08-0.03,0.16-0.05,0.25-0.061c0.01-0.01,0.02-0.01,0.029-0.01c0.09-0.01,0.189-0.02,0.289-0.02
				c0.211,0,0.451,0.029,0.711,0.09c0.051,0.01,0.119-0.07,0.17-0.12c0.301,0.04,0.59,0.07,0.881,0.1
				c0.08,0.23,0.199,0.351,0.42,0.12c0.93,0.15,1.779,0.521,2.6,0.97c0.15,0.08,0.299,0.171,0.439,0.261
				c0.1,0.06,0.201,0.12,0.301,0.2c0.129,0.079,0.26,0.17,0.379,0.26c0.141,0.1,0.271,0.2,0.391,0.31c0.1,0.08,0.189,0.16,0.27,0.25
				c0.17,0.15,0.33,0.311,0.471,0.47c0.1,0.12,0.199,0.23,0.279,0.351c0.061,0.06,0.111,0.14,0.16,0.21
				c0.08,0.13,0.17,0.26,0.25,0.4c0.1,0.149,0.18,0.31,0.25,0.479c0.051,0.1,0.1,0.2,0.131,0.3c0.039,0.101,0.08,0.21,0.109,0.311
				c0.119,0.33,0.199,0.68,0.25,1.04c0.01,0.08,0.02,0.149,0.029,0.229c0.021,0.11,0.031,0.22,0.031,0.33
				C80.786,89.58,80.795,89.74,80.795,89.9z"/>
			<path fill="#FCFBFA" d="M89.985,96.379l-1.15,2.07l-0.719,0.41l-0.881,0.51l-0.049,0.03c0-0.03-0.01-0.07,0-0.101
				c-0.041-0.5,0-1.02-0.041-1.53c-0.029-0.5-0.27-0.93-0.779-1.09c-0.361-0.109-0.67-0.069-0.951,0.08
				c-0.059,0.03-0.109,0.07-0.16,0.11c-0.068,0.06-0.139,0.13-0.209,0.21c-0.01,0.02-0.029,0.03-0.041,0.05
				c-0.068,0.09-0.129,0.18-0.189,0.28c-0.039,0.07-0.07,0.14-0.1,0.21l-0.01,0.01c-0.01,0.03-0.029,0.07-0.041,0.101
				c-0.139,0.369-0.209,0.77-0.299,1.149c-0.061,0.24-0.111,0.45-0.16,0.64c-0.051,0.181-0.1,0.341-0.15,0.48
				c-0.1,0.27-0.221,0.44-0.369,0.55c-0.051,0.04-0.121,0.07-0.182,0.09c-0.318,0.101-0.799,0.03-1.6-0.1
				c-1.18-0.19-1.609,0.31-1.32,1.46c0.092,0.36,0.281,0.65,0.49,0.94l-0.369,0.21l-1.66,0.96l-0.541,0.31
				c-0.109-0.21-0.229-0.42-0.35-0.63c-0.359-0.62-0.74-1.23-1.1-1.85c0-0.5,0.42-0.71,0.711-1.011c0.969-0.979,2-1.92,2.51-3.25
				c1.02-1.81,1.9-3.689,2.379-5.729c0.25-1.05,0.41-2.09,0.49-3.12c0.031-0.35,0.051-0.69,0.061-1.03
				c0.029-0.74,0.01-1.479-0.041-2.21c0-0.04,0-0.08-0.01-0.109c-0.02-0.351-0.059-0.7-0.1-1.051c-0.039-0.3-0.08-0.59-0.129-0.89
				c-0.021-0.14-0.041-0.28-0.07-0.41c-0.041-0.24-0.09-0.47-0.141-0.71c-0.15-0.71-0.33-1.42-0.551-2.12
				c-0.1-0.35-0.219-0.7-0.34-1.04c-0.469-1.37-1.059-2.71-1.729-4.04c-0.48-0.96-0.971-1.92-1.23-2.97
				c0.719-1.23,1-2.75,2.561-3.41c1.809-0.76,2.199-1.96,1.439-3.76c-0.26-0.62-0.641-0.891-1.34-0.721
				c-0.621,0.16-1.26,0.23-1.891,0.351V64.7c0.221-0.229,0.4-0.479,0.65-0.69c0.51-0.42,0.99-0.869,1.449-1.33
				c0.34-0.35,0.67-0.709,0.99-1.08c0.32-0.369,0.631-0.75,0.92-1.129c0.25-0.33,0.49-0.66,0.721-1
				c0.33-0.461,0.629-0.941,0.93-1.431c1.16-1.92,2.061-3.94,2.07-6.24c0.01-2.83-2.281-5.17-4.961-5.12
				c-0.82-0.12-1.529,0.22-2.24,0.55c-2.58,1.19-4.6,3.24-7.09,4.57c-0.959,0.51-1.939,1.01-2.91,1.52
				c-0.199-0.07-0.42-0.11-0.6-0.22c-1.01-0.61-2.039-1.12-3.109-1.55c-0.141-0.05-0.279-0.11-0.43-0.16
				c-0.23-0.09-0.461-0.18-0.701-0.26c-0.229-0.08-0.459-0.16-0.699-0.23c-0.109-0.04-0.221-0.07-0.34-0.1
				c-1.131-0.34-2.291-0.6-3.471-0.79c-0.17-0.03-0.33-0.05-0.5-0.08c-0.4-0.06-0.799-0.11-1.199-0.16
				c-5.601-0.65-11.11-0.36-16.301,2.06c-0.16,0.08-0.33,0.15-0.49,0.21c-0.109,0.04-0.209,0.07-0.319,0.1
				c-0.17,0.07-0.34,0.11-0.511,0.15c-0.02,0-0.049,0.01-0.069,0.01c-0.101,0.02-0.2,0.04-0.3,0.06c-0.1,0.01-0.21,0.03-0.311,0.04
				c-0.109,0.01-0.22,0.02-0.33,0.03c-0.14,0.01-0.289,0.01-0.439,0.01c-0.46,0-0.92-0.04-1.391-0.13
				c-0.479-0.08-0.949-0.2-1.41-0.33c-0.17-0.04-0.34-0.09-0.5-0.14c-0.829-0.25-1.649-0.54-2.479-0.79
				c-0.19-0.06-0.39-0.11-0.579-0.17c-0.211-0.05-0.421-0.11-0.631-0.15c-0.27-0.06-0.54-0.11-0.82-0.15
				c-1.459-0.22-2.91-0.41-4.319-0.3c-0.15,0.01-0.29,0.02-0.43,0.04c-0.15,0.02-0.29,0.04-0.43,0.06c-0.75,0.12-1.49,0.34-2.21,0.7
				c-0.19,0.08-0.37,0.18-0.55,0.29c-0.14,0.09-0.3,0.19-0.44,0.29c-0.15,0.09-0.3,0.19-0.45,0.29c-0.17,0.12-0.34,0.25-0.49,0.38
				c-0.16,0.13-0.3,0.26-0.43,0.4c-0.09,0.1-0.19,0.2-0.27,0.3c-0.06,0.07-0.12,0.14-0.16,0.21c-0.1,0.12-0.18,0.25-0.25,0.38
				c-0.08,0.13-0.14,0.26-0.2,0.39c-0.06,0.15-0.12,0.31-0.16,0.46c-0.22,0.8-0.16,1.69,0.16,2.72c0.08,0.26,0.17,0.51,0.27,0.75
				c0.03,0.09,0.06,0.17,0.1,0.26c0.08,0.19,0.16,0.38,0.25,0.56c0.06,0.131,0.13,0.26,0.2,0.391c0.24,0.47,0.51,0.91,0.82,1.34
				c0.09,0.119,0.17,0.24,0.26,0.359c0.13,0.18,0.27,0.36,0.42,0.53c0.14,0.181,0.29,0.351,0.45,0.511
				c0.02,0.029,0.05,0.06,0.08,0.09c0.15,0.17,0.31,0.33,0.48,0.49c0.28,0.289,0.57,0.559,0.88,0.829
				c0.05,0.05,0.11,0.091,0.16,0.14c0.07,0.681,0.55,1.021,1.07,1.36c0.45,0.28,0.98,0.521,1.1,1.101c0.42,2.09,1.13,4.1,1.81,6.109
				c-0.1,0.221-0.19,0.44-0.28,0.67c-0.36,0.61-0.72,1.23-1.07,1.84c-0.41,0.711-0.84,1.41-1.28,2.11
				c-0.22,0.36-0.44,0.71-0.65,1.061c-0.21,0.35-0.43,0.699-0.64,1.05c-0.29,0.47-0.58,0.95-0.86,1.42
				c-0.21,0.359-0.42,0.72-0.61,1.09c-0.2,0.36-0.39,0.72-0.58,1.09v0.01c-0.19,0.37-0.37,0.74-0.54,1.12s-0.33,0.761-0.48,1.15
				c-0.1,0.25-0.19,0.49-0.28,0.74c-0.17,0.489-0.32,0.97-0.44,1.449c-0.36,1.4-0.52,2.761-0.46,4.091
				c0.01,0.22,0.02,0.43,0.05,0.64v0.04c0.01,0.05,0.01,0.09,0.02,0.13c0,0.08,0.01,0.17,0.02,0.25c0.02,0.17,0.05,0.35,0.08,0.521
				c0.06,0.35,0.14,0.699,0.23,1.039c0.05,0.171,0.1,0.351,0.15,0.521c0.06,0.19,0.13,0.38,0.2,0.58c0.12,0.33,0.26,0.66,0.42,0.99
				c0.08,0.17,0.16,0.33,0.25,0.5c0.08,0.159,0.17,0.33,0.27,0.489c0.09,0.16,0.19,0.33,0.29,0.49c0.2,0.32,0.42,0.65,0.66,0.97
				c0.12,0.16,0.24,0.32,0.37,0.48c0.4,0.5,0.82,0.96,1.26,1.39c0.15,0.15,0.3,0.29,0.46,0.42c0.02,0.021,0.04,0.04,0.06,0.051
				c0.13,0.119,0.26,0.239,0.4,0.35c-0.15-0.12-0.29-0.24-0.43-0.36l-2.12-1.229l-0.09-0.05l-1.79-1.03
				c-0.17-0.25-0.33-0.51-0.48-0.78c-0.98-1.7-1.6-3.43-1.85-5.2c-0.29-1.949-0.12-3.949,0.5-6.029c0.93-3.13,2.35-6.011,4.12-8.681
				c0.22-0.34,0.45-0.67,0.68-1c1.69-2.38,2.39-4.609,1.03-7.38c-0.55-1.13-1.03-2.189-1.83-3.229
				c-0.65-0.851-1.36-1.681-2.04-2.521c-1.47-1.82-2.84-3.71-3.37-6.11c-0.61-2.79,0.63-5.56,3-7.15c3.64-2.43,7.53-2.11,11.49-1.29
				c1.04,0.22,2.07,0.47,3.08,0.85c1.55,0.6,3.09,0.87,4.68,0.68c0.689-0.08,1.391-0.25,2.1-0.52c3.801-1.44,7.791-1.57,11.84-1.41
				c3.82,0.15,7.541,0.64,11.182,1.81c0.049,0.02,0.109,0.03,0.158,0.05c0.32,0.1,0.66,0.2,0.941,0.37c1.26,0.8,2.43,0.48,3.609-0.2
				c1.77-1.02,3.381-2.27,5.07-3.4c1.939-1.29,3.959-2.39,6.41-2.46c1.609-0.04,2.74,0.95,4.039,1.56c0.941,1.12,2.09,2.09,2.4,3.62
				c0.061,0.21,0.109,0.42,0.17,0.63c0.451,4.71-1.721,8.45-4.5,11.94c-0.4,0.51-0.57,0.81-0.16,1.449
				c0.65,1.051,0.83,2.301,0.77,3.521c-0.09,1.819-1.18,2.92-2.77,3.649c-1.279,0.591-1.799,1.83-1.35,3.141
				c0.789,2.33,1.98,4.51,2.65,6.91c0.65,2.359,0.91,4.72,0.84,7.08c-0.051,1.899-0.301,3.789-0.711,5.68
				c-0.219,1.01-0.068,1.13,0.932,0.87c1.369-0.36,2.67-0.011,3.52,1.22C89.045,96.269,89.456,96.37,89.985,96.379z"/>
			<path fill="#2F2F2F" d="M82.866,65.08c-0.26-0.62-0.641-0.891-1.34-0.721c-0.621,0.16-1.26,0.23-1.891,0.351
				c-0.16,0.021-0.32,0.04-0.48,0.05c-0.539,0.061-1.08,0.061-1.6-0.2c-4.801-2.109-9.859-2.589-15.029-2.319
				c-0.01,0-0.01,0-0.021,0c-2.279,0.119-4.549,0.369-6.809,0.699c-1.291,0.19-2.59,0.011-3.811-0.459
				c-0.93-0.36-1.87-0.65-2.811-0.891c-0.469-0.13-0.939-0.24-1.409-0.33c-0.61-0.119-1.21-0.22-1.82-0.3
				c-0.31-0.04-0.61-0.08-0.92-0.11c-0.3-0.039-0.61-0.07-0.91-0.09c-0.28-0.02-0.569-0.05-0.86-0.07
				c-0.279-0.01-0.569-0.029-0.85-0.039c-0.38-0.021-0.75-0.03-1.13-0.03c-1.47-0.021-2.94,0.021-4.42,0.11
				c-0.521,0.029-1.06,0.279-1.55-0.121c-0.7,0.19-1.391,0.361-2.09,0.49c-1.58,0.291-3.18,0.371-4.811,0.07
				c-1.82-0.34-1.97-0.24-2.32,1.6c0,0.17-0.01,0.33-0.01,0.51v0.16c0.07,0.681,0.55,1.021,1.07,1.36
				c0.45,0.28,0.98,0.521,1.1,1.101c0.42,2.09,1.13,4.1,1.81,6.109c0.25,0.471,0.539,0.92,0.76,1.4c1.66,3.63,4.689,4.85,8.43,4.83
				c0.68,0,1.35-0.01,2.03-0.021c1.46-0.18,2.899-0.399,4.351-0.689c1.469-0.29,2.52-1.101,3.359-2.29
				c1.23-1.75,1.971-3.73,2.689-5.71c0.141-0.41,0.24-0.83,0.44-1.21c0.36-0.721,0.39-1.69,1.63-1.67
				c1.881,0.04,2.26,0.17,2.871,1.619c0.619,1.49,1.068,3.051,1.309,4.641c0.59,3.95,2.781,6.12,6.771,6.51
				c1.17,0.11,2.318,0.36,3.689,0.58c-6.41,1.94-12.76,3.14-19.291,3.39c-0.109,0-0.209,0.011-0.319,0.011
				c-1.67-0.021-3.34,0.199-5-0.16c-0.431-0.03-0.86-0.061-1.29-0.09c-0.05,0.01-0.09,0.01-0.141,0.01
				c-0.139,0.02-0.279,0.01-0.42-0.021c-0.1-0.02-0.199-0.06-0.289-0.12h-0.01c-0.291-0.029-0.57-0.06-0.86-0.09
				c-0.229,0.03-0.45,0.051-0.64-0.13c-0.221-0.03-0.44-0.06-0.65-0.08c-0.24,0.03-0.471,0.07-0.7,0.101
				c0.11,0.08,0.22,0.16,0.34,0.229c0.15,0.101,0.31,0.181,0.46,0.271c0.16,0.08,0.32,0.17,0.471,0.27
				c0.069,0.03,0.129,0.07,0.18,0.12c0.09,0.05,0.17,0.12,0.24,0.2c0.05,0.05,0.1,0.09,0.14,0.14c0.06,0.07,0.12,0.15,0.17,0.24
				c0.21,0.08,0.36,0.24,0.45,0.44c0.14,0,0.189,0.079,0.18,0.21l0.03,0.02c0.13,0,0.18,0.07,0.17,0.2
				c0.069,0.1,0.149,0.2,0.229,0.3c0.17,0.05,0.23,0.17,0.23,0.33c0.75,0.97,1.221,2.08,1.58,3.24c0.561,1.72,1.12,3.43,1.68,5.14
				c0.311-0.06,0.33-0.32,0.42-0.56c0.791-2.07,2.17-3.63,4.051-4.771c0-0.08-0.01-0.149-0.01-0.229
				c-0.811-1.33-0.791-2.931-1.551-4.431c1.01,0,2.01-0.029,2.99-0.09c0.01,0,0.01,0,0.02,0c0.471-0.03,0.92-0.06,1.381-0.1
				c0.489-0.04,0.979-0.08,1.469-0.141c0.431-0.04,0.871-0.09,1.301-0.149c0.459-0.061,0.91-0.12,1.369-0.19
				c2.262-0.33,2.432-0.3,2.281,1.99c-0.1,1.75,0.369,2.68,2.119,3.09c1.189,0.271,2.1,1.17,3.07,1.9c1.24-2.51,2.4-5.061,3.961-7.4
				c0.129-0.25,0.279-0.5,0.398-0.76c0.061-0.13,0.131-0.271,0.201-0.39c0.059-0.131,0.139-0.261,0.209-0.37
				c0.08-0.12,0.16-0.23,0.24-0.34c0.08-0.11,0.16-0.211,0.25-0.301c0.33-0.359,0.721-0.64,1.17-0.83
				c0.111-0.05,0.23-0.09,0.361-0.13c0.09-0.029,0.189-0.06,0.289-0.069c0.189-0.051,0.4-0.07,0.619-0.091
				c0.17-0.02,0.352-0.02,0.541-0.01c0.199,0.01,0.391,0,0.57-0.03c0.1-0.01,0.189-0.029,0.289-0.05c0.01,0.021,0.01,0.021,0.01,0
				c0.01,0.011,0.021,0.011,0.031,0c0.02,0.011,0.039,0,0.049-0.01c0.01,0.01,0.01,0,0.01,0s0.021,0.01,0.021-0.01
				c0.08-0.01,0.16-0.021,0.229-0.05c0.66-0.19,1.23-0.561,1.711-1.101c0.02-0.02,0.039-0.04,0.061-0.069
				c0.219-0.25,0.42-0.54,0.6-0.851c1-1.78,2.061-3.52,2.91-5.38c0.719-1.23,1-2.75,2.561-3.41
				C83.235,68.08,83.625,66.879,82.866,65.08z M49.155,68.24c-0.17,0.569-0.289,1.18-0.68,1.66v0.01
				c-0.15,0.359-0.3,0.72-0.449,1.08c-1.19,2.899-3.301,4.35-6.49,4.09c-2.17,0.34-4.33,0.2-6.43-0.36
				c-0.17-0.04-0.341-0.1-0.49-0.18c-0.16-0.07-0.301-0.15-0.43-0.24c-0.131-0.09-0.25-0.2-0.361-0.31
				c-0.109-0.11-0.209-0.23-0.31-0.36c-0.09-0.12-0.18-0.26-0.25-0.399c-0.239-0.431-0.399-0.91-0.53-1.41
				c-0.149-0.5-0.299-1-0.449-1.5c-0.34-0.17-0.23-0.42-0.12-0.66c0.021-0.13,0.04-0.26,0.069-0.391
				c-1.02-2.039,0.021-4.46,2.33-4.939c4.42-0.93,8.791-0.66,13.061,0.85C49.505,65.839,49.706,66.32,49.155,68.24z M76.325,71.41
				c-0.059,1.46-0.699,2.76-1.359,3.97c-0.65,1.18-1.84,1.811-3.311,1.811c-1.91,0.01-3.789-0.24-5.66-0.601
				c-0.549-0.1-1.1-0.21-1.648-0.33c-2.641-0.58-3.41-2.67-4.102-4.859c-0.068-0.141-0.129-0.28-0.189-0.431
				c-0.029-0.08-0.061-0.149-0.08-0.22c-0.039-0.11-0.08-0.23-0.109-0.34c-0.121-0.41-0.211-0.83-0.27-1.25
				c-0.051-0.3-0.092-0.61-0.121-0.92c-0.02-0.16-0.039-0.311-0.061-0.471c-0.02-0.26,0-0.47,0.08-0.659
				c0.021-0.07,0.061-0.13,0.102-0.19c0.029-0.06,0.08-0.12,0.129-0.17c0.07-0.08,0.16-0.15,0.26-0.21
				c0.051-0.04,0.1-0.07,0.15-0.09c0.109-0.07,0.24-0.13,0.381-0.181c0.238-0.09,0.479-0.159,0.719-0.229
				c0.42-0.12,0.85-0.21,1.27-0.28c0.121-0.02,0.24-0.04,0.361-0.06c0.279-0.04,0.549-0.08,0.83-0.101
				c0.049-0.01,0.1-0.02,0.16-0.02c0.18-0.021,0.369-0.03,0.549-0.04s0.361-0.021,0.541-0.03c0.5-0.02,1-0.029,1.5-0.029
				c2.5,0,4.99,0.25,7.369,1.13C76.584,67.639,77.065,68.73,76.325,71.41z"/>
			<path fill="#B88347" d="M77.557,64.56c-4.805-2.113-9.861-2.588-15.029-2.318c-2.289,0.119-4.564,0.365-6.834,0.697
				c-1.291,0.191-2.588,0.01-3.806-0.457c-4.899-1.877-9.985-2.049-15.134-1.75c-0.516,0.031-1.063,0.275-1.549-0.119
				c0.104-0.424,0.095-0.84-0.107-1.239c0.148-0.653,0.071-1.341,0.436-1.969c0.332-0.572,1.242-1.056,0.998-1.612
				c-0.207-0.473-1.131-0.631-1.734-0.933c-0.448-0.225-0.904-0.437-1.334-0.69c-2.833-1.666-5.735-3.098-9.166-2.802
				c2.526-1.485,5.225-1.208,7.941-0.794c2.207,0.336,4.228,1.354,6.416,1.739c1.428,0.252,2.769,0.167,4.16-0.482
				c5.193-2.423,10.699-2.708,16.299-2.063c3.701,0.426,7.234,1.388,10.453,3.335c0.178,0.107,0.396,0.144,0.6,0.213
				c0.127,0.296,0.359,0.485,0.646,0.615c1.018,0.784,1.92,1.692,2.811,2.614c1.043,1.123,1.678,2.521,2.541,3.766
				c0.033,0.129,0.068,0.256,0.104,0.385c-0.027,0.033-0.029,0.066-0.004,0.102c0.293,0.691,0.588,1.383,0.881,2.074
				c-0.033,0.098-0.033,0.184,0.096,0.211c0.029,0.066,0.061,0.132,0.092,0.197C77.252,63.734,77.467,64.134,77.557,64.56z"/>
			<path fill="#B88347" d="M68.094,83.088c0.135-0.25,0.283-0.495,0.4-0.754c0.76-1.669,1.906-2.601,3.885-2.532
				c1.559,0.053,2.771-0.75,3.574-2.174c1.004-1.775,2.059-3.521,2.912-5.377c0.262,1.053,0.744,2.008,1.229,2.969
				c2.678,5.295,3.943,10.809,2.559,16.729c-0.479,2.044-1.357,3.916-2.381,5.732c-0.223,0.002-0.443,0.006-0.666,0.01
				c-0.555-0.393-0.318-0.855-0.146-1.342c0.623-1.762,1.055-3.563,1.271-5.429c0.371-3.187-0.979-5.399-3.693-6.901
				c-0.818-0.453-1.674-0.817-2.607-0.967c-0.104-0.152-0.24-0.199-0.416-0.123c-0.291-0.031-0.584-0.064-0.877-0.098
				c-0.289-0.298-0.67-0.191-1.014-0.208C70.756,82.562,69.428,82.865,68.094,83.088z"/>
			<path fill="#B88347" d="M78.504,104.419l-1.17,0.68l-0.959,0.551l-2.76,1.59c-0.83-0.83-1.75-1.57-2.711-2.271
				c1.91-0.97,3.91-1.76,5.641-3.06c0.17-0.13,0.35-0.04,0.51,0.03c0.359,0.619,0.74,1.229,1.1,1.85
				C78.276,104,78.395,104.209,78.504,104.419z"/>
			<path fill="#D0D0D0" d="M61.129,94.628c-1.281-0.064-2.541-0.004-3.705,0.621c-0.055,0.012-0.109,0.021-0.166,0.031l-0.033,0.021
				c-0.68,0.002-1.354,0.063-2.025,0.1c-2.635,0.136-5.283,0.375-7.885-0.327c-0.268-0.072-0.631-0.075-0.677-0.416
				c-0.042-0.308,0.306-0.366,0.519-0.454c2.928-1.186,5.584-3.111,8.891-3.27c0.199-0.012,0.285-0.193,0.35-0.365
				c2.043-0.646,4.066-0.608,6.064,0.179c0.354,0.138,0.922,0.229,0.719,0.731C62.708,92.652,62.618,94.107,61.129,94.628z"/>
			<path fill="#D0D0D0" d="M50.005,107.94c-0.04,0.3-0.22,0.35-0.45,0.35c-0.01,0-0.02-0.01-0.04,0c-0.09,0-0.17-0.01-0.271-0.01
				c-2.539,0-5.049-0.271-7.52-0.851c-0.39-0.09-0.789-0.189-1.18-0.3c-0.311-0.09-0.62-0.189-0.92,0.01
				c-0.01-0.05-0.02-0.09-0.04-0.13s-0.04-0.069-0.06-0.1c-0.15-0.21-0.4-0.23-0.67-0.22c-1.42-0.551-2.851-1.11-4.271-1.66
				c-0.011-0.011-0.021-0.011-0.03-0.021l-2.43-1.399l-0.57-0.33l-1.8-1.04l-3.18-1.84c0.13,0.119,0.26,0.239,0.4,0.35
				c-0.15-0.12-0.29-0.24-0.43-0.36c-0.01-0.01-0.02-0.02-0.03-0.04c-0.16-0.13-0.31-0.27-0.46-0.42c-0.45-0.43-0.87-0.89-1.27-1.39
				c-0.13-0.16-0.25-0.32-0.36-0.48c-0.24-0.319-0.47-0.64-0.66-0.97c-0.1-0.16-0.2-0.33-0.29-0.49c-0.1-0.159-0.19-0.33-0.27-0.489
				c-0.09-0.17-0.17-0.33-0.25-0.5c-0.16-0.33-0.3-0.66-0.42-0.99c-0.07-0.2-0.14-0.39-0.2-0.58c-0.05-0.17-0.1-0.35-0.15-0.521
				c-0.09-0.34-0.17-0.689-0.23-1.039c-0.03-0.171-0.06-0.351-0.08-0.521c-0.01-0.08-0.02-0.16-0.03-0.24
				c-0.01-0.05-0.01-0.09-0.01-0.14v-0.04c-0.03-0.21-0.04-0.42-0.05-0.64c-0.06-1.33,0.1-2.69,0.46-4.091
				c0.12-0.479,0.27-0.96,0.44-1.449c0.08-0.25,0.17-0.49,0.27-0.74c0.15-0.39,0.32-0.771,0.49-1.15s0.35-0.75,0.54-1.12v-0.01
				c0.19-0.37,0.38-0.729,0.58-1.09c0.19-0.37,0.4-0.73,0.61-1.09c0.28-0.48,0.56-0.96,0.85-1.43c0.21-0.351,0.43-0.69,0.65-1.04
				c0.21-0.351,0.43-0.7,0.65-1.061c0.43-0.7,0.85-1.399,1.27-2.11c0.36-0.609,0.72-1.22,1.08-1.84c0.28,0.24,0.21,0.58,0.25,0.891
				c-0.99,2.04-2.32,3.88-3.47,5.819c-0.14,0.24-0.28,0.49-0.42,0.74c-1.8,3.24-3.52,6.5-3.45,10.37c0.01,0.3,0.02,0.61,0.05,0.9
				c0.24,2.59,1.32,4.819,3,6.83c0.5,0.6,1.02,1.14,1.58,1.63c0.17,0.159,0.34,0.31,0.52,0.449c0.18,0.16,0.37,0.311,0.56,0.46
				c0.38,0.29,0.779,0.57,1.189,0.83c0.051,0.03,0.101,0.07,0.15,0.101c0.17,0.109,0.34,0.22,0.51,0.319
				c0.4,0.24,0.801,0.471,1.211,0.69c0.399,0.22,0.81,0.43,1.229,0.63c0.021,0.01,0.05,0.021,0.069,0.03
				c0.41,0.2,0.83,0.399,1.25,0.58c0.471,0.21,0.951,0.42,1.431,0.62c0.819,0.35,1.649,0.66,2.489,0.949
				c0.391,0.131,0.791,0.261,1.181,0.381c0.239,0.08,0.479,0.149,0.72,0.21c0.32,0.09,0.641,0.18,0.961,0.26
				c0.319,0.08,0.639,0.16,0.959,0.229c0.33,0.07,0.65,0.141,0.98,0.21c0.97,0.19,1.96,0.341,2.96,0.46
				c1.239,0.141,2.489,0.171,3.739,0.271c0.101,0.01,0.221-0.01,0.341-0.01h0.05c0.12,0,0.2,0.029,0.25,0.13
				C50.005,107.719,50.026,107.809,50.005,107.94z"/>
			<path fill="#D0D0D0" d="M68.094,83.088c1.334-0.224,2.662-0.524,4.027-0.465c0.344,0.017,0.725-0.09,1.016,0.208
				c-0.057,0.043-0.125,0.132-0.168,0.121c-1.906-0.462-2.346,0.854-2.889,2.24c-1.098,2.797-2.412,5.488-4.219,7.924
				c-0.666,0.898-1.596,1.412-2.494,1.988c-0.404,0.261-0.75,0.162-0.967-0.287c0.781-1.36,1.307-2.823,1.73-4.328
				C65.372,87.978,66.536,85.429,68.094,83.088z"/>
			<path fill="#B88347" d="M38.856,106.69c-0.121,0.199-0.25,0.399-0.4,0.579l-3.27-1.89l-0.601-0.35
				C36.005,105.58,37.436,106.139,38.856,106.69z"/>
			<path fill="#BDBDBD" d="M24.296,51.369c3.431-0.296,6.333,1.136,9.166,2.802c0.431,0.253,0.886,0.465,1.334,0.69
				c0.604,0.302,1.528,0.459,1.735,0.933c0.244,0.556-0.666,1.04-0.998,1.612c-0.365,0.628-0.288,1.315-0.437,1.969
				c-0.325,0.014-0.366,0.555-0.797,0.434c-0.19-0.597-0.065-1.205-0.089-1.803c-0.046-1.104-0.488-1.979-1.372-2.663
				c-2.456-1.9-5.253-2.521-8.283-2.212c-2.402,0.245-3.235,1.5-2.487,3.852c0.73,2.294,2.14,4.177,3.918,5.787
				c-0.004,0.221-0.009,0.444-0.014,0.668c-2-1.703-3.58-3.711-4.37-6.248c-0.705-2.259-0.119-3.879,1.803-5.234
				C23.697,51.75,24,51.563,24.296,51.369z"/>
			<path fill="#BDBDBD" d="M77.557,64.56c-0.09-0.426-0.307-0.826-0.229-1.281c0.439,0.334,0.666,1.109,1.473,0.68
				c0.816-0.436,1.654-0.795,2.346-1.475c1.383-1.366,2.574-2.879,3.563-4.54c1.305-2.191,2.438-4.456,2.01-7.147
				c-0.242-1.546-1.791-3.184-3.293-3.48c-1.029-0.203-2.576,0.877-3.354,2.278c-0.451,0.81-0.975,1.582-1.484,2.357
				c-1.672,2.538-3.217,5.109-2.426,8.359c-0.861-1.244-1.498-2.643-2.539-3.766c2.426-2.631,4.35-5.658,6.648-8.39l-0.004,0.004
				c0.072,0.007,0.143-0.002,0.209-0.027c0.645-0.485,1.287-0.971,1.934-1.456c2.674-0.051,4.961,2.296,4.953,5.123
				c-0.004,2.299-0.904,4.324-2.068,6.235c-1.359,2.239-2.977,4.282-5.008,5.969c-0.244,0.202-0.438,0.466-0.654,0.699
				C78.93,64.8,78.229,64.886,77.557,64.56z"/>
			<path fill="#BDBDBD" d="M56.395,90.568c-0.064,0.172-0.148,0.354-0.35,0.365c-3.307,0.158-5.963,2.084-8.891,3.271
				c-0.213,0.088-0.56,0.146-0.519,0.454c0.046,0.341,0.409,0.344,0.677,0.416c2.603,0.701,5.25,0.463,7.885,0.326
				c0.674-0.035,1.348-0.096,2.025-0.1c-0.398,0.428-0.895,0.652-1.475,0.688c-2.379,0.23-4.76,0.225-7.143,0.013
				c-0.281-0.028-0.563-0.058-0.847-0.085c-0.892-0.514-2.17-0.469-2.53-1.749c0.309-0.058,0.325-0.321,0.414-0.554
				c0.789-2.068,2.176-3.633,4.055-4.776c0.519,0.47,0.377,1.435,1.238,1.646c0.659,0.16,1.311,0.361,1.978,0.474
				c1.36,0.228,1.725-0.17,1.411-1.509c-0.316-1.34-0.655-2.674-0.984-4.01c0.807,1.285,1.255,2.69,1.663,4.11
				c0.203,0.703,0.544,1.165,1.366,0.99L56.395,90.568z"/>
			<path fill="#BDBDBD" d="M64.133,90.49c-0.414,1.47-0.943,2.955-1.73,4.328c-0.447,0.084-0.877,0.061-1.273-0.189
				c1.488-0.521,1.578-1.977,2.051-3.148c0.201-0.504-0.365-0.594-0.719-0.731c-2-0.787-4.023-0.824-6.064-0.179l-0.027-0.031
				c0.344-0.434,0.859-0.631,1.283-0.951c0.586-0.441,1.092-0.939,1.086-1.751c-0.008-0.931-0.023-1.86-0.014-2.791
				c0.006-0.538-0.217-0.771-0.768-0.771c-2.626-0.004-5.196,0.347-7.7,1.162c-0.882,0.287-1.19,0.787-0.842,1.707
				c0.172,0.455,0.345,0.946,0.268,1.465c-0.805-1.334-0.788-2.93-1.545-4.426c2.959-0.004,5.749-0.267,8.526-0.672
				c2.262-0.328,2.426-0.3,2.285,1.991c-0.105,1.75,0.371,2.681,2.113,3.083C62.254,88.859,63.168,89.755,64.133,90.49z"/>
			<path fill="#BDBDBD" d="M87.235,97.769c0,0.48-0.039,1.11,0,1.601l-0.049,0.03l-0.631,0.359c-0.051-0.399,0.18-0.779,0.16-1.17
				c-0.02-0.53,0.1-1.17-0.59-1.33c-0.74-0.17-0.871,0.49-1.051,0.98c-0.148,0.39-0.219,0.819-0.279,1.25
				c-0.09,0.67-0.16,1.13-0.26,1.439c0,0.011,0,0.011,0,0.011l-0.92,0.54h-0.01c-0.301-0.03-0.701-0.12-1.23-0.23
				c-0.041,0-0.07-0.02-0.1-0.03c-0.41-0.09-0.93-0.35-1.18,0.08c-0.23,0.36,0.068,0.84,0.309,1.181
				c0.041,0.06,0.09,0.13,0.141,0.189l-0.471,0.271c-0.209-0.29-0.398-0.58-0.49-0.94c-0.289-1.15,0.141-1.65,1.32-1.46
				c0.801,0.13,1.281,0.2,1.6,0.1c0.061-0.02,0.131-0.05,0.182-0.09c0.148-0.109,0.27-0.28,0.369-0.55c0.051-0.14,0.1-0.3,0.15-0.48
				c0.061-0.189,0.109-0.399,0.17-0.64c0.09-0.38,0.16-0.78,0.301-1.149c0.01-0.04,0.029-0.061,0.029-0.101l0.01-0.01
				c0.029-0.07,0.061-0.14,0.1-0.21c0.061-0.101,0.121-0.19,0.189-0.28c0.012-0.02,0.031-0.03,0.041-0.05
				c0.07-0.08,0.141-0.15,0.209-0.21c0.051-0.04,0.102-0.08,0.16-0.11c0.291-0.18,0.621-0.229,0.99-0.12
				c0.51,0.16,0.83,0.551,0.83,1.051V97.769z"/>
			<path fill="#BDBDBD" d="M29.924,73.572c-0.034-0.313,0.034-0.654-0.252-0.896c0.093-0.222,0.186-0.443,0.279-0.664
				c0.255,0.467,0.539,0.918,0.761,1.4c1.661,3.626,4.692,4.845,8.433,4.832c0.678-0.002,1.354-0.016,2.031-0.023
				c0.143,0.202,0.248,0.442,0.428,0.6c2.143,1.857,4.512,3.367,7.074,4.58c-1.669-0.02-3.346,0.201-5.002-0.164
				c0.792-0.523,1.771,0.047,2.82-0.463c-0.578-0.178-0.94-0.289-1.303-0.4c-1.256-0.938-2.555-1.818-3.625-2.984
				c-0.367-0.398-0.881-0.428-1.395-0.426c-1.791,0.008-3.572-0.136-5.341-0.404c-2.544-0.387-4.507-1.812-4.741-4.718
				C30.085,73.747,29.983,73.662,29.924,73.572z"/>
			<path fill="#D0D0D0" d="M77.055,101.937c-0.164-0.071-0.338-0.156-0.506-0.031c-1.729,1.301-3.736,2.096-5.645,3.066
				c-0.324,0-0.668-0.031-0.748,0.41c-1.264,0.063-2.436,0.551-3.66,0.79c-0.367,0.071-0.859,0.329-1.014-0.194
				c-0.182-0.627,0.439-0.653,0.816-0.742c2.164-0.502,4.283-1.146,6.334-2.002c2.439-1.02,4.605-2.445,6.375-4.434
				c0.287-0.324,0.568-0.648,0.6-1.109c0.223-0.004,0.441-0.008,0.666-0.012c-0.514,1.334-1.535,2.272-2.508,3.254
				C77.477,101.226,77.053,101.435,77.055,101.937z"/>
			<path fill="#D0D0D0" d="M45.229,94.167c0.361,1.28,1.641,1.235,2.531,1.749c-1.779,0.125-3.402-0.393-4.654-1.604
				c-1.07-1.037-0.873-2.432-0.387-3.728c0.204-0.545,0.161-1.241,0.823-1.551C44.104,90.745,44.667,92.456,45.229,94.167z"/>
			<path fill="#D0D0D0" d="M82.411,46.678c-0.646,0.485-1.289,0.971-1.934,1.456c-0.082-0.096-0.152-0.083-0.209,0.027l0.004-0.004
				c-0.592-0.035-0.98,0.379-1.418,0.666c-2.553,1.678-4.916,3.656-7.809,4.78c-0.104,0.041-0.158,0.217-0.234,0.33
				c-0.285-0.13-0.52-0.319-0.646-0.615c0.973-0.506,1.945-1.003,2.912-1.52c2.486-1.331,4.51-3.375,7.084-4.571
				C80.875,46.895,81.586,46.561,82.411,46.678z"/>
			<path fill="#D0D0D0" d="M45.194,82.372c0.362,0.11,0.725,0.224,1.303,0.399c-1.051,0.51-2.028-0.061-2.82,0.465
				c-0.43-0.028-0.859-0.057-1.289-0.084c-0.218-0.49-0.521-0.407-0.855-0.129c-0.289-0.032-0.577-0.064-0.865-0.096
				c-0.141-0.4-0.364-0.396-0.641-0.13c-0.218-0.026-0.436-0.054-0.653-0.081c-0.454-0.537-1.083-0.527-1.705-0.544
				c-0.026-0.028-0.052-0.06-0.075-0.09c0.227-0.509,0.609-0.317,0.999-0.254c1.817,0.297,3.628,0.659,5.476,0.733
				C44.45,82.581,44.858,82.664,45.194,82.372z"/>
			<path fill="#D0D0D0" d="M48.608,96c2.381,0.212,4.763,0.218,7.143-0.013c-0.35,0.715-0.942,1.051-1.715,1.007
				c-1.59-0.087-3.174-0.244-4.732-0.593C49.03,96.34,48.725,96.333,48.608,96z"/>
			<path fill="#BDBDBD" d="M73.616,107.24l-0.701,0.41c-0.67-0.591-1.309-1.21-2.029-1.75c-0.23-0.19-0.48-0.36-0.73-0.521
				c0.08-0.439,0.43-0.41,0.75-0.41C71.866,105.669,72.786,106.41,73.616,107.24z"/>
			<path fill="#BDBDBD" d="M39.625,107.139c-0.141,0.181-0.29,0.37-0.43,0.551l-0.74-0.421c0.15-0.18,0.279-0.38,0.4-0.579
				c0.27-0.011,0.52,0.01,0.67,0.22c0.02,0.03,0.039,0.06,0.06,0.1S39.616,107.089,39.625,107.139z"/>
			<path fill="#D0D0D0" d="M38.67,82.818c0.645,0.521,1.55,0.688,2.002,1.472c-1.125-0.199-2.042-0.931-3.146-1.22
				c-0.424-0.111-0.475-0.684,0.068-0.986c0.023,0.031,0.049,0.061,0.075,0.089C37.627,82.97,38.21,82.798,38.67,82.818z"/>
			<path fill="#D0D0D0" d="M74.014,82.929c0.174-0.076,0.311-0.029,0.416,0.123C74.215,83.275,74.098,83.16,74.014,82.929z"/>
			<path fill="#D0D0D0" d="M41.733,85.455c0.168,0.052,0.232,0.175,0.233,0.339C41.803,85.74,41.709,85.64,41.733,85.455z"/>
			<path fill="#D0D0D0" d="M41.125,84.732c0.136,0.002,0.189,0.076,0.181,0.205C41.247,84.869,41.186,84.802,41.125,84.732z"/>
			<path fill="#BDBDBD" d="M57.258,95.281c0.055-0.01,0.111-0.02,0.164-0.031C57.372,95.275,57.317,95.286,57.258,95.281z"/>
			<path fill="#D0D0D0" d="M41.332,84.964c0.134-0.002,0.185,0.069,0.17,0.196C41.444,85.095,41.388,85.029,41.332,84.964z"/>
			<path fill="#FCFBFA" d="M59.776,103.56c-0.301,1.039-0.66,2.051-1.08,3.039c-0.111,0.291-0.23,0.58-0.371,0.871
				c-0.449,1.029-0.959,2.039-1.5,3.029h-1.539c0.22-0.939,0.439-1.88,0.689-2.811c0.07-0.279,0.15-0.561,0.23-0.84
				c0.309-1.051,0.65-2.09,1.08-3.101c0.379-0.92,0.82-1.83,1.449-2.62c0.18-0.21,0.359-0.5,0.689-0.439
				c0.391,0.069,0.42,0.449,0.5,0.75C60.116,102.16,59.965,102.87,59.776,103.56z"/>
			<path fill="#B88347" d="M64.596,79.419c-3.99-0.39-6.182-2.56-6.771-6.51c-0.24-1.59-0.689-3.15-1.309-4.641
				c-0.611-1.449-0.99-1.579-2.871-1.619c-1.24-0.021-1.27,0.949-1.63,1.67c-0.2,0.38-0.3,0.8-0.44,1.21
				c-0.719,1.979-1.459,3.96-2.689,5.71c-0.84,1.189-1.891,2-3.359,2.29c-1.451,0.29-2.891,0.51-4.351,0.689
				c0.14,0.2,0.25,0.44,0.431,0.601c0.27,0.229,0.539,0.46,0.81,0.68s0.55,0.43,0.829,0.64c0.15,0.12,0.301,0.23,0.461,0.341
				c0.199,0.149,0.41,0.289,0.619,0.439c0.021,0.01,0.031,0.021,0.051,0.03c0.199,0.14,0.4,0.27,0.609,0.399
				c0.25,0.17,0.51,0.33,0.771,0.48c0.26,0.16,0.521,0.31,0.78,0.46c0.289,0.17,0.59,0.33,0.89,0.479
				c0.3,0.16,0.601,0.311,0.899,0.461h0.021c0,0,0.011,0,0.011,0.01c0.109,0.05,0.199,0.1,0.319,0.16c0.11,0,0.21-0.011,0.319-0.011
				c6.531-0.25,12.881-1.449,19.291-3.39C66.915,79.78,65.766,79.53,64.596,79.419z M56.334,76.209c-0.039,0.17-0.09,0.34-0.18,0.47
				c-0.02,0.03-0.039,0.061-0.07,0.08c-0.029,0.03-0.059,0.05-0.1,0.08c-0.139,0.08-0.33,0.07-0.6-0.09c-0.38-0.23-0.73-0.29-1,0.14
				c-0.22,0.36-0.38,0.891-0.91,0.681c-0.05-0.021-0.09-0.04-0.119-0.07c-0.041-0.02-0.07-0.05-0.101-0.08
				c-0.05-0.06-0.08-0.12-0.101-0.189c-0.01-0.04-0.01-0.07-0.01-0.11c-0.029-0.25,0.051-0.54,0.01-0.78
				c-0.27,0.04-0.59,0-0.81,0.13c-0.43,0.25-0.88,0.45-1.18-0.05c-0.29-0.46-0.3-1,0.28-1.35c0.01-0.141-0.021-0.301,0.049-0.41
				c0.611-1.04,3.621-0.891,4.23,0.189c0.07,0.08,0.131,0.15,0.201,0.221C56.286,75.37,56.436,75.769,56.334,76.209z"/>
			<path fill="#FCFBFA" d="M75.995,70.919c0.01-2.21-1.42-3.31-3.24-3.89c-3.238-1.03-6.578-1.34-9.93-0.67
				c-0.09,0.02-0.18,0.04-0.27,0.06c-0.25,0.05-0.471,0.1-0.67,0.16c-0.301,0.08-0.551,0.16-0.75,0.26
				c-0.061,0.03-0.131,0.07-0.189,0.101c-0.061,0.029-0.111,0.069-0.16,0.109c-0.051,0.04-0.1,0.08-0.141,0.12
				c-0.039,0.04-0.08,0.08-0.109,0.13c-0.041,0.04-0.07,0.09-0.1,0.141c-0.031,0.05-0.051,0.1-0.07,0.149
				c-0.031,0.08-0.061,0.16-0.07,0.24l-0.029,0.12c-0.012,0.08-0.021,0.17-0.031,0.27c-0.02,0.271-0.02,0.58,0,0.95
				c0,0.09,0.01,0.19,0.01,0.28c0.021,0.26,0.031,0.53,0.051,0.84c0.02,0.38,0.289,0.75-0.051,1.11
				c0.691,2.189,1.461,4.279,4.102,4.859c0.549,0.12,1.1,0.23,1.648,0.33c1.871,0.36,3.75,0.61,5.66,0.601
				c1.471,0,2.66-0.631,3.311-1.811c0.66-1.21,1.301-2.51,1.359-3.97C76.096,71.33,75.995,71.15,75.995,70.919z M69.676,73.11
				c-0.031,0.08-0.051,0.159-0.092,0.239c-0.02,0.061-0.039,0.11-0.068,0.16c-0.07,0.15-0.17,0.29-0.311,0.38
				c-0.041,0.03-0.09,0.061-0.15,0.08c-0.08,0.03-0.17,0.05-0.279,0.061c-0.5,0.029-0.781-0.311-1-0.69
				c-0.09-0.17-0.17-0.34-0.24-0.52c-0.02-0.051-0.041-0.11-0.051-0.16c-0.02-0.061-0.029-0.12-0.049-0.18
				c-0.041-0.131-0.07-0.261-0.09-0.4c-0.021-0.14-0.041-0.28-0.051-0.43c-0.02-0.24-0.029-0.5-0.029-0.78
				c0.08-0.63-0.061-1.8,1-1.89c1.049-0.091,1.26,1.05,1.479,1.909C69.926,71.629,69.905,72.379,69.676,73.11z"/>
			<path fill="#FCFBFA" d="M46.985,65.57c-3.549-1.301-7.199-1.381-10.879-0.721c-0.961,0.17-1.73,0.551-2.32,1.131
				c-0.59,0.569-0.99,1.35-1.19,2.319c-0.021,0.08-0.021,0.17-0.03,0.26c-0.029,0.221-0.06,0.44-0.22,0.61
				c-0.021,0.03-0.06,0.07-0.11,0.1c-0.029,0.131-0.049,0.261-0.069,0.391c0.329,0.16,0.399,0.38,0.12,0.66
				c0.15,0.5,0.3,1,0.449,1.5c1.271,1.279,2.601,2.439,4.48,2.71c1.061,0.149,2.109,0.38,3.189,0.34
				c0.391-0.01,0.801-0.11,1.131,0.21c3.189,0.26,5.3-1.19,6.49-4.09c0.149-0.36,0.299-0.721,0.449-1.08V69.9
				c-0.359-0.49,0.02-0.94,0.1-1.41C48.875,66.889,48.515,66.129,46.985,65.57z M40.206,71.62c-0.24,0.33-0.551,0.56-1,0.479
				c-0.42-0.08-0.59-0.399-0.69-0.75c-0.39-1.26-0.22-2.47,0.41-3.619c0.229-0.41,0.54-0.79,1.09-0.7c0.56,0.08,0.71,0.56,0.82,1.01
				c0.09,0.34,0.101,0.7,0.12,0.84C40.936,70.009,40.755,70.87,40.206,71.62z"/>
			<path fill="#D0D0D0" d="M35.215,59.709c-0.02-0.11-0.061-0.22-0.12-0.33v-0.01c-0.04,0-0.069,0.01-0.101,0.03
				c-0.029,0.01-0.059,0.029-0.079,0.05c-0.03,0.03-0.05,0.05-0.08,0.079c-0.04,0.051-0.091,0.111-0.14,0.16
				c-0.021,0.031-0.051,0.051-0.08,0.07c-0.03,0.02-0.051,0.04-0.09,0.051c-0.031,0.01-0.061,0.02-0.101,0.02s-0.08-0.01-0.12-0.02
				c-0.02-0.07-0.04-0.131-0.061-0.201c-0.02-0.069-0.029-0.149-0.029-0.219c-0.01-0.07-0.01-0.131-0.01-0.19
				c-0.03-0.4,0.02-0.81,0.01-1.2c-0.05-1.1-0.49-1.97-1.38-2.66c-2.45-1.9-5.25-2.52-8.28-2.21c-0.92,0.09-1.6,0.33-2.06,0.73
				c-0.06,0.05-0.11,0.1-0.16,0.16c-0.09,0.1-0.16,0.2-0.23,0.31c-0.06,0.09-0.11,0.19-0.15,0.3c-0.02,0.04-0.03,0.08-0.04,0.13
				c-0.02,0.06-0.04,0.11-0.05,0.17c-0.01,0.06-0.02,0.11-0.03,0.17c-0.02,0.13-0.03,0.26-0.03,0.4s0.01,0.29,0.03,0.44
				c0.02,0.2,0.06,0.41,0.12,0.64c0.04,0.13,0.08,0.26,0.12,0.4c0.09,0.29,0.19,0.57,0.3,0.84c0.09,0.21,0.18,0.42,0.28,0.63
				c0.06,0.14,0.13,0.271,0.2,0.399c0.02,0.03,0.03,0.07,0.05,0.101c0.03,0.04,0.05,0.079,0.08,0.13c0.09,0.17,0.19,0.34,0.29,0.5
				c0.12,0.189,0.24,0.37,0.36,0.55c0.12,0.181,0.26,0.36,0.39,0.53s0.26,0.33,0.4,0.49s0.28,0.32,0.41,0.479
				c0.17,0.181,0.33,0.351,0.5,0.521c0.21,0.209,0.43,0.42,0.65,0.619c0.35-1.84,0.5-1.939,2.32-1.6
				c1.631,0.301,3.23,0.221,4.811-0.07c0.699-0.129,1.39-0.3,2.09-0.49C35.276,60.31,35.295,60,35.215,59.709z M34.065,60.39
				l0.08,0.01l-0.039,0.08l-0.041-0.08V60.39z"/>
			<path fill="#FCFBFA" d="M49.682,88.607c0.077-0.518-0.096-1.01-0.268-1.465c-0.35-0.918-0.04-1.42,0.842-1.707
				c2.504-0.814,5.074-1.164,7.699-1.16c0.551,0,0.773,0.23,0.768,0.77c-0.01,0.932,0.008,1.859,0.016,2.791
				c0.006,0.813-0.502,1.311-1.086,1.751c-0.424,0.319-0.941,0.519-1.283,0.951c-0.822,0.175-1.163-0.287-1.366-0.99
				c-0.408-1.42-0.856-2.825-1.663-4.11c0.329,1.336,0.668,2.67,0.984,4.01c0.313,1.339-0.051,1.736-1.411,1.509
				c-0.667-0.112-1.318-0.313-1.978-0.474c-0.861-0.211-0.72-1.176-1.238-1.646C49.694,88.761,49.688,88.685,49.682,88.607z"/>
			<path fill="#D0D0D0" d="M48.477,69.904c-0.357-0.496,0.016-0.949,0.103-1.41c0.298-1.607-0.065-2.363-1.591-2.922
				c-3.553-1.301-7.203-1.383-10.885-0.725c-1.922,0.342-3.095,1.516-3.502,3.451c-0.07,0.329-0.029,0.735-0.369,0.975
				c-1.02-2.039,0.024-4.459,2.328-4.944c4.428-0.935,8.795-0.662,13.063,0.849c1.881,0.666,2.085,1.141,1.53,3.059
				C48.987,68.812,48.864,69.416,48.477,69.904z"/>
			<path fill="#D0D0D0" d="M76.327,71.414c-0.232-0.086-0.334-0.268-0.332-0.498c0.008-2.204-1.416-3.309-3.244-3.889
				c-3.234-1.027-6.574-1.342-9.924-0.672c-2.908,0.578-2.682,1.127-2.535,3.938c0.021,0.377,0.297,0.751-0.051,1.107
				c-0.561-1.145-0.688-2.389-0.82-3.629c-0.09-0.826,0.381-1.244,1.092-1.5c1.924-0.688,3.938-0.795,5.934-0.793
				c2.502,0,4.992,0.254,7.371,1.135C76.584,67.638,77.069,68.726,76.327,71.414z"/>
			<path fill="#D0D0D0" d="M32.735,71.818c1.267,1.281,2.604,2.445,4.483,2.709c1.06,0.15,2.11,0.379,3.192,0.343
				c0.381-0.013,0.797-0.113,1.123,0.207c-2.17,0.342-4.327,0.198-6.43-0.356C33.69,74.345,33.073,73.156,32.735,71.818z"/>
			<path fill="#BDBDBD" d="M38.67,82.818c-0.46-0.021-1.042,0.15-1.002-0.646c0.621,0.019,1.25,0.007,1.705,0.546
				C39.138,82.751,38.905,82.786,38.67,82.818z"/>
			<path fill="#BDBDBD" d="M41.53,83.023c0.334-0.278,0.639-0.361,0.856,0.129C42.088,83.195,41.798,83.187,41.53,83.023z"/>
			<path fill="#BDBDBD" d="M40.026,82.798c0.276-0.268,0.5-0.271,0.641,0.129C40.438,82.958,40.212,82.976,40.026,82.798z"/>
			<path fill="#D0D0D0" d="M32.164,69.656c0.329,0.168,0.403,0.384,0.122,0.662C31.942,70.154,32.051,69.904,32.164,69.656z"/>
			<path fill="#D0D0D0" d="M76.163,60.312c-0.791-3.25,0.754-5.821,2.426-8.359c0.512-0.775,1.033-1.547,1.484-2.357
				c0.777-1.4,2.324-2.481,3.354-2.278c1.502,0.296,3.051,1.934,3.293,3.48c0.428,2.691-0.705,4.956-2.01,7.147
				c-0.988,1.661-2.18,3.172-3.563,4.54c-0.689,0.68-1.529,1.039-2.346,1.475c-0.807,0.43-1.031-0.346-1.473-0.68
				c-0.031-0.063-0.061-0.129-0.092-0.193c-0.031-0.07-0.063-0.143-0.094-0.213c-0.295-0.691-0.59-1.383-0.883-2.074
				c0,0.001,0.047-0.051,0.047-0.051l-0.043-0.051C76.231,60.568,76.196,60.441,76.163,60.312z"/>
			<path fill="#FCFBFA" d="M70.811,53.933c0.076-0.113,0.131-0.29,0.234-0.33c2.893-1.124,5.256-3.103,7.809-4.78
				c0.438-0.287,0.826-0.701,1.418-0.666c-2.299,2.731-4.225,5.758-6.648,8.39C72.733,55.625,71.831,54.716,70.811,53.933z"/>
			<path fill="#BDBDBD" d="M77.143,62.873c0.031,0.07,0.063,0.143,0.096,0.213C77.11,63.054,77.11,62.97,77.143,62.873z"/>
			<path fill="#BDBDBD" d="M76.264,60.697l0.043,0.051c0,0-0.045,0.052-0.045,0.051C76.237,60.763,76.239,60.728,76.264,60.697z"/>
			<path fill="#FCFBFA" d="M80.268,48.161c0.057-0.11,0.127-0.123,0.209-0.027C80.411,48.159,80.34,48.167,80.268,48.161z"/>
			<path fill="#D0D0D0" d="M82.375,101.25c0.529,0.11,0.93,0.2,1.23,0.23l-0.65,0.369l-1.41,0.82c-0.051-0.06-0.1-0.13-0.141-0.189
				c-0.24-0.341-0.539-0.82-0.309-1.181c0.25-0.43,0.77-0.17,1.18-0.08C82.305,101.23,82.334,101.25,82.375,101.25z"/>
			<path fill="#D0D0D0" d="M86.715,98.589c0.02,0.391-0.211,0.771-0.16,1.17l-0.311,0.181l-0.039,0.029l-1.67,0.96
				c0.1-0.31,0.17-0.77,0.26-1.439c0.061-0.431,0.131-0.86,0.279-1.25c0.18-0.49,0.311-1.15,1.051-0.98
				C86.815,97.419,86.696,98.059,86.715,98.589z"/>
			<path fill="#E04C33" d="M55.928,75.066c0.361,0.3,0.504,0.705,0.404,1.139c-0.105,0.467-0.313,0.93-0.945,0.544
				c-0.381-0.231-0.727-0.289-1,0.146c-0.22,0.351-0.377,0.889-0.91,0.674c-0.557-0.223-0.25-0.805-0.318-1.229l0.033-0.033
				c0.416,0.146,0.295,0.629,0.555,1.016c0.395-1.19,1.082-1.549,2.1-0.922c0.164-0.502,0.023-0.879-0.006-1.26
				C55.872,75.115,55.901,75.091,55.928,75.066z"/>
			<path fill="#E04C33" d="M51.446,75.07c0.013-0.139-0.019-0.305,0.047-0.412c0.609-1.036,3.617-0.893,4.229,0.195l-0.024,0.021
				c-1.42-0.725-3.233-0.633-4.224,0.216L51.446,75.07z"/>
			<path fill="#E04C33" d="M53.161,76.338c-0.274,0.038-0.592,0.002-0.813,0.132c-0.435,0.254-0.878,0.45-1.187-0.046
				c-0.288-0.466-0.297-1.005,0.283-1.354c0,0.002,0.029,0.021,0.028,0.021c-0.073,0.748-0.216,1.547,1,0.899
				c0.265-0.14,0.554,0.036,0.72,0.315L53.161,76.338z"/>
			<path fill="#E04C33" d="M55.722,74.853c0.069,0.072,0.138,0.143,0.206,0.213c-0.027,0.024-0.057,0.049-0.086,0.072
				c-0.047-0.09-0.096-0.177-0.145-0.265L55.722,74.853z"/>
			<path fill="#2F2F2F" d="M67.27,70.87c0.078-0.63-0.068-1.798,0.99-1.888c1.053-0.09,1.27,1.045,1.482,1.906
				c0.184,0.741,0.158,1.494-0.066,2.221c-0.137,0.441-0.33,0.896-0.906,0.924c-0.5,0.023-0.771-0.311-0.99-0.695
				C67.381,72.636,67.25,71.87,67.27,70.87z"/>
			<path fill="#2F2F2F" d="M40.954,68.878c-0.016,1.129-0.201,1.991-0.749,2.742c-0.243,0.333-0.55,0.561-1.001,0.475
				c-0.415-0.076-0.586-0.4-0.69-0.742c-0.384-1.263-0.218-2.475,0.415-3.619c0.229-0.414,0.534-0.793,1.09-0.709
				c0.559,0.088,0.706,0.563,0.822,1.012C40.928,68.377,40.938,68.74,40.954,68.878z"/>
			<polygon fill="#BDBDBD" points="34.149,60.4 34.102,60.48 34.065,60.394 			"/>
			<path fill="#BDBDBD" d="M55.696,74.875c0.049,0.088,0.098,0.175,0.146,0.264c0.027,0.383,0.168,0.758,0.004,1.26
				c-1.018-0.627-1.705-0.269-2.1,0.922c-0.26-0.385-0.139-0.868-0.555-1.014c-0.166-0.279-0.455-0.455-0.719-0.316
				c-1.217,0.648-1.074-0.15-1-0.898C52.463,74.242,54.278,74.15,55.696,74.875z"/>
		</g>
		<path fill="#FCFBFA" d="M65.456,109.97c-0.439-0.109-0.871-0.25-1.291-0.391c-0.119,0.29-0.359,0.52-0.738,0.59
			c-0.422,0.07-0.871,0.061-1.342,0.051c0.102,0.079,0.191,0.17,0.25,0.279H51.116c-0.03-0.7-0.041-1.439,0-2.189
			c0.01-0.271,0.029-0.551,0.05-0.83c0.19-2.01,0.72-3.99,1.979-5.33c0.141-0.149,0.32-0.25,0.521-0.311
			c0.03-0.061,0.069-0.119,0.1-0.18c0-0.18,0.04-0.36,0.16-0.521c0.351-0.479,0.74-0.988,1.16-1.5c-0.03-0.1-0.03-0.209-0.021-0.318
			c0.25-1.562,1.65-2.33,3.229-2.541c0.131-0.069,0.271-0.141,0.41-0.199c0.65-0.29,1.34-0.471,2.07-0.45
			c0.15,0,0.291,0.04,0.4,0.101c0.078,0.051,0.148,0.101,0.209,0.17c0.252-0.101,0.541-0.11,0.852-0.021
			c1.221,0.36,1.859,2.149,2.201,3.22c0.27,0.881,0.619,3.631-0.932,3.562c0.49,0.851,0.949,1.72,1.25,2.67
			c0.039,0.101,0.07,0.21,0.102,0.319c0.039,0.16,0.029,0.33-0.021,0.479c-0.041,0.12-0.109,0.24-0.199,0.341
			c-0.08,0.129-0.189,0.229-0.32,0.311c0.68,0.289,1.35,0.609,2.01,0.988C67.334,108.849,66.436,110.209,65.456,109.97z"/>
		<path fill="#D0D0D0" d="M62.649,93.625c-0.434-0.016-0.637,0.311-0.965,0.531c-0.281,0.191-0.684,0.258-1.01,0.334
			c-0.656,0.152-1.338,0.229-2.004,0.299c-1.338,0.141-2.646,0.477-3.973,0.686c-0.858,0.135-0.59,1.336,0.164,1.41
			c1.66,0.165,3.438-0.299,5.098-0.472c1.029-0.108,3.166-0.363,3.463-1.627C63.549,94.252,63.243,93.646,62.649,93.625z"/>
		<path fill="#BDBDBD" d="M62.395,93.404c-0.842,1.402-3.635,1.24-5.076,1.484c-0.498,0.084-0.99,0.246-1.482,0.354
			c-0.359,0.078-1.332,0.402-1.705,0.207c-0.195-0.104-0.451,0.104-0.322,0.314c0.646,1.053,3.1,0.074,4.043-0.063
			c1.365-0.2,5.182-0.053,5.309-2.075C63.19,93.156,62.629,93.017,62.395,93.404z"/>
		<path fill="#D0D0D0" d="M66.399,106.5c0.006,0,0.014-0.23,0.018-0.238c-0.205-0.494-0.266-1.076-0.572-0.922
			c-0.275,0.116-1.018,0.34-1.316,0.391c-0.76,0.131-1.221,0.287-1.982,0.416c-1.523,0.256-3.072,0.359-4.605,0.543
			c-1.783,0.213-3.597,0.254-5.359,0.586c-0.782,0.146-2.223,0.217-3.014,0.265c-0.269,0.017,0.199,0.073,0.024,0.285
			c-0.026,0.032-0.796,0.101-0.771,0.134c0.526,0.709,3.242,0.191,3.914,0.075c1.592-0.272,3.234-0.306,4.842-0.479
			c1.717-0.188,3.441-0.334,5.146-0.602c0.771-0.121,1.535-0.262,2.314-0.35c0.371-0.043,0.842-0.162,1.18-0.388
			c0.068-0.021,0.131,0.147,0.178,0.078c0.002-0.003,0.006,0.206,0.01,0.206C66.403,106.5,66.401,106.5,66.399,106.5z"/>
	</g>
	<path fill="#FCFBFA" d="M68.516,110.19l-0.531,0.31l-0.42,0.24l-11.561,6.68l-6.329-3.66l-3.351-1.939l-2.279-1.32l-0.859-0.5
		c1.229-0.87,2.819-1.38,4.75-1.32c1.049,0.03,2.109,0.061,3.17,0.08c0.43,0.021,0.869,0.021,1.299,0.03
		c1.101,0.02,2.19,0.02,3.291-0.01c0.52-0.011,1.029-0.021,1.549-0.05c0.17,0,0.33-0.011,0.5-0.021c1.191-0.06,2.381-0.16,3.561-0.3
		c0.25-0.03,0.49-0.05,0.73-0.07c1.67-0.1,3.299,0.141,4.719,0.76C67.385,109.389,67.985,109.75,68.516,110.19z"/>
	<g id="Layer_2_1_">
		<g id="Layer_16_1_">
			<path opacity="0.13" enable-background="new    " d="M10.002,37.806v53.121l46.073,26.559l46.074-26.559V37.806L56.075,11.245
				L10.002,37.806z M100.284,38.886v50.97l-44.211,25.49l-44.21-25.49v-50.97l44.21-25.489L100.284,38.886z"/>
		</g>
	</g>
	<circle fill="#FCFBFA" cx="55.361" cy="32.25" r="13.001"/>
	<path fill-rule="evenodd" clip-rule="evenodd" fill="#2F2F2F" d="M62.141,26.98c0.123-0.597-0.068-1.042-0.529-1.237
		c-0.49-0.207-0.922-0.079-1.258,0.453c-0.27,0.424-0.482,0.885-0.689,1.344c-0.416,0.924-0.811,1.856-1.174,2.689
		c-0.422-0.156-0.791-0.398-1.162-0.401c-0.383-0.002-0.771,0.225-1.084,0.329c-0.383-0.215-0.756-0.558-1.168-0.617
		c-0.425-0.061-0.89,0.155-1.348,0.252c-0.24-1.837-0.5-3.77-0.738-5.705c-0.09-0.733-0.355-1.317-1.107-1.572h-0.592
		c-0.901,0.408-1.176,0.838-1.106,1.841c0.168,2.479,0.347,4.958,0.523,7.437c-0.046-0.022-0.093-0.043-0.14-0.062
		c-0.274-0.107-0.535-0.095-0.799-0.01c-0.645,0.007-1.232,0.537-1.428,1.257c-0.225,0.82,0.01,1.543,0.43,2.246
		c1.119,1.869,2.145,3.782,2.639,5.933c0.029,0.124,0.145,0.229,0.219,0.344h7.848c0.076-0.164,0.191-0.319,0.225-0.487
		c0.273-1.374,0.572-2.744,0.779-4.127c0.211-1.4,0.258-2.826,0.498-4.22c0.006-0.027,0.01-0.054,0.016-0.08
		c0.016-0.077,0.029-0.155,0.041-0.233C61.356,30.553,61.77,28.77,62.141,26.98z"/>
</g>
<g id="Layer_2">
</g>
</svg>
