<?xml version="1.0" encoding="utf-8"?>
<!-- Generator: Adobe Illustrator 21.0.2, SVG Export Plug-In . SVG Version: 6.00 Build 0)  -->
<svg version="1.1" id="Layer_1" xmlns="http://www.w3.org/2000/svg" xmlns:xlink="http://www.w3.org/1999/xlink" x="0px" y="0px"
	 viewBox="0 0 110.9167 128.161" style="enable-background:new 0 0 110.9167 128.161;" xml:space="preserve">
<style type="text/css">
	.st0{fill:#6B64FF;}
	.st1{fill:#FFFFFF;}
	.st2{opacity:0.13;enable-background:new    ;}
	.st3{clip-path:url(#SVGID_2_);fill:url(#SVGID_3_);}
	.st4{fill:#A0A8D4;}
	.st5{clip-path:url(#SVGID_5_);fill:url(#SVGID_6_);}
	.st6{clip-path:url(#SVGID_8_);}
	.st7{clip-path:url(#SVGID_10_);fill:url(#SVGID_11_);}
</style>
<g>
	<g id="Layer_63_15_">
		<polygon class="st0" points="110.8671,32.1505 110.8671,96.1505 55.4471,128.1505 11.0971,102.5505 10.8971,102.4305 
			0.0171,96.1505 0.0171,32.1505 55.4471,0.1505 		"/>
	</g>
	<path class="st1" d="M101.9566,37.77v53.14l-0.0099,0.01l-1.09,0.62l-0.33,0.19l-0.13,0.07l-0.88,0.51l-0.14,0.08l-3,1.73
		l-0.2,0.12l-1.93,1.11l-0.16,0.09l-1.48,0.86l-0.47,0.27l-0.14,0.08l-0.47,0.27l-0.24,0.13l-0.03,0.01l-0.1,0.04l-0.11,0.07
		l-2.46,1.41l-0.57,0.33l-0.8199,0.47l-1.05,0.6l-0.04,0.03l-1.23,0.71l-0.45,0.26l-0.02,0.02h-0.01l-0.47,0.27l-1.07,0.6201
		l-0.87,0.52l-0.16,0.09l-1.1,0.63l-0.05,0.03l-0.07,0.04l-0.08,0.05l-0.41,0.24l-0.03,0.01l-0.05,0.03l-0.05,0.02l-0.06,0.04v0.01
		l-0.29,0.17l-0.49,0.28l-0.18,0.09l-0.02,0.02l-0.04,0.02l-1.01,0.58l-0.14,0.08l-0.15,0.09l-0.05,0.03l-0.32,0.1801l-0.24,0.14
		h-0.01l-0.07,0.04l-0.64,0.38l-0.2,0.12l-0.33,0.19l-0.25,0.14c0,0.01-0.01,0.01-0.01,0.01l-0.47,0.27l-0.42,0.24l-0.04,0.03
		l-0.57,0.33l-0.12,0.07l-2.21,1.27l-0.63,0.36l-0.06,0.03l-1.12,0.65l-0.33,0.19l-2.05,1.19l-0.02,0.01l-0.01,0.01l-0.4,0.23
		l-0.35,0.2l-0.5,0.29l-0.14,0.08l-1.25,0.72l-0.98,0.57l-0.39,0.22l-0.01,0.01l-0.43,0.25l-0.4,0.23l-2.36,1.36l-0.36,0.21
		l-0.04,0.02l-0.18,0.1l-0.5,0.29l-1.87,1.08l-0.56,0.32h-0.01l-0.32,0.19l-0.48,0.28l-0.14-0.08l-1.28-0.74l-0.85-0.4901
		l-0.03-0.0099l-0.91-0.53l-0.17-0.1l-0.05-0.03l-0.18-0.1l-0.43-0.25l-0.17-0.1l-3.36-1.94l-0.04-0.03l-2.07-1.19l-4.24-2.46
		l-0.51-0.3l-0.61-0.35l-0.69-0.39l-0.93-0.54l-0.22-0.12l-0.09-0.06l-0.03-0.02l-2.23-1.29l-1.22-0.71l-0.37-0.21l-0.39-0.22
		l-0.08-0.05l-0.15-0.08l-0.26-0.15l-0.24-0.15l-0.09-0.05l-0.35-0.2l-0.08-0.05l-0.08-0.04l-0.04-0.03l-1.3-0.74l-0.05-0.03
		l-0.15-0.08l-0.37-0.22l-1.71-0.99l-2.51-1.46l-2.09-1.2l-0.82-0.47l-0.09-0.05l-0.5-0.29l-0.01-0.01l-0.21-0.12h-0.0099l-1.04-0.6
		c-0.01-0.01-0.01-0.01-0.02-0.01l-1.86-1.08l-1.02-0.59l-1.33-0.77l-0.72-0.43l-0.04-0.02l-0.02-0.01l-0.29-0.17
		c0,0-0.01,0-0.02-0.01l-0.26-0.15l-0.02-0.0099l-3.3-1.9l-1.81-1.05l-0.77-0.44l-0.83-0.48l-0.09-0.05l-0.08-0.04l-0.03-0.02V37.77
		l1.8-1.03l3.86-2.23l0.77-0.46h0.01l0.25-0.14l0.58-0.33l1.75-1.0099l2.27-1.31l0.82-0.48l0.15-0.09l2.07-1.19l0.98-0.57l1.01-0.59
		l0.42-0.24l0.45-0.26l0.25-0.14c0.01,0,0.01,0,0.01,0l0.57-0.33l3.23-1.86l1.58-0.92l0.17-0.09l1.66-0.95l0.78-0.45l0.38-0.22
		l0.44-0.26l1.1-0.65l0.33-0.19l0.19-0.11l2.28-1.3l0.69-0.41l1.38-0.79l0.02-0.01h0.01l0.05-0.03l5.72-3.3l0.19-0.11l0.27-0.16
		l2.86-1.65l3.21-1.86l1.44-0.83l1.06,0.62l6.4901,3.75l2.6,1.5l3.95,2.28l1.34,0.77l2.85,1.64l3.79,2.19l1.04,0.61l2.3,1.3101
		l0.87,0.5l1.52,0.8799l1.37,0.79l0.8,0.46l0.09,0.06l1.81,1.04l3.78,2.18l0.04,0.03v0.01l0.26,0.14l0.26,0.16l0.4,0.23l0.92,0.53
		l0.54,0.31l0.02,0.01l1.92,1.11l0.78,0.44l0.44,0.25l1.9399,1.1201l0.25,0.14L101.9566,37.77z"/>
	<g id="Layer_2_11_">
		<g id="Layer_16_11_">
			<path class="st2" d="M96.8304,34.8072l-0.53-0.3l-0.72-0.42l-0.77-0.45l-0.11-0.06l-0.49-0.28l-0.51-0.29l-0.9-0.52l-7.25-4.18
				l-1.71-0.98l-0.72-0.42l-0.45-0.26l-0.49-0.29l-0.05-0.02l-0.42-0.25l-0.41-0.24l-5.33-3.07l-19.5-11.24l-0.53-0.31l-0.47,0.27
				l-17.11,9.88l-5.02,2.9l-1.3,0.75l-0.53,0.31l-0.1,0.05c-0.01,0-0.01,0-0.01,0l-0.25,0.15l-0.42,0.25l-0.3,0.17l-0.27,0.16
				l-0.18,0.1l-1.5,0.87h-0.01l-1.78,1.02l-0.0099,0.01l-0.58,0.34l-0.76,0.43l-0.01,0.0099l-0.03,0.02l-3.25,1.87h-0.01l-2.38,1.37
				l-1,0.58l-2.98,1.72l-4.23,2.4399l-1.54,0.89v53.12l0.07,0.04l1.72,1l0.75,0.43l0.15,0.08l4.32,2.5l0.69,0.39l4,2.32l0.46,0.26
				l1.3,0.75l3.3799,1.95l5.38,3.1l0.69,0.4l0.07,0.04l0.15,0.08l0.11,0.07l0.18,0.1l0.04,0.02l1.91,1.11l0.88,0.5l1.33,0.78
				l0.89,0.5099l0.1801,0.1l0.31,0.18l0.19,0.11l0.48,0.28l3.57,2.05l0.09,0.05l0.44,0.26l0.62,0.36l0.72,0.42c0.01,0,0.01,0,0.01,0
				l0.53,0.3l1.51,0.87l3.17,1.84l4.48,2.58l1.03,0.6l0.23,0.13l0.02-0.0099l0.19-0.11l0.14-0.08l0.03-0.02l0.31-0.18l1.81-1.03
				l0.09-0.05l0.69-0.4l0.5-0.29l0.24-0.14l3.85-2.22l2.45-1.41l0.74-0.43l0.66-0.38l0.67-0.39l0.44-0.26l2.33-1.34l0.39-0.22
				h0.0099l0.23-0.14l0.21-0.12l0.63-0.36l0.8-0.46l1.2599-0.73l0.46-0.27h0.01l0.46-0.27l0.0099-0.01l0.25-0.14l0.53-0.31
				l0.37-0.21l0.35-0.21l0.55-0.31l0.21-0.13l0.32-0.18l0.43-0.24l0.02-0.01l0.05-0.03l0.13-0.08l0.24-0.13l3.78-2.18l0.38-0.22
				l1.11-0.65l2.97-1.71l1.56-0.9l8.53-4.92h0.01l0.06-0.04l2.65-1.53l0.9-0.52l1.03-0.59v-53.12L96.8304,34.8072z
				 M100.1304,89.8371l-0.52,0.3l-0.32,0.18l-0.58,0.34l-7.59,4.38l-4.67,2.69l-3.12,1.8l-1.28,0.7401l-0.72,0.41l-2.93,1.69
				l-0.07,0.05l-0.16,0.09l-0.18,0.11l-0.57,0.32l-0.89,0.51l-0.22,0.13l-0.05,0.03l-0.81,0.47l-0.09,0.05l-3.91,2.25l-0.08,0.05
				l-0.79,0.45l-0.08,0.05l-0.91,0.53l-2.15,1.24l-1.54,0.89l-1.68,0.97l-1.1,0.63l-2.97,1.72l-1.23,0.71l-0.06,0.04h-0.02
				l-0.75,0.44l-0.28,0.15l-1.8701,1.08l-3.45-1.9901l-1.23-0.71l-0.61-0.35l-1.81-1.05l-0.72-0.41l-0.69-0.4l-5.26-3.03l-0.77-0.45
				l-0.05-0.03l-1.79-1.03l-2.0601-1.18l-0.9-0.52l-0.58-0.34l-0.25-0.15l-0.43-0.25l-0.21-0.12l-1.75-1.01l-0.31-0.18l-0.19-0.11
				l-1.5-0.8701l-3.42-1.97l-3.91-2.26l-1.76-1.01l-3.42-1.97l-4.91-2.84l-0.9-0.51l-0.39-0.23l-0.23-0.13l-0.67-0.39v-50.97
				l3.91-2.26l2.98-1.72l0.93-0.54h0.01l0.06-0.04l3.2-1.85h0.01l1.36-0.79h0.01l1.79-1.03l1.25-0.72l0.43-0.25h0.01l0.76-0.44
				l0.46-0.27h0.01l2.98-1.72c0.0099-0.01,0.0099-0.01,0.02-0.01l0.78-0.45l0.35-0.2l0.2-0.12l0.29-0.17l0.17-0.1l0.27-0.15
				l0.04-0.02l8.03-4.64l13.39-7.73l0.47-0.27l0.53,0.31l16.83,9.71l6.98,4.03l0.05,0.03l0.32,0.18l0.11,0.06l0.44,0.26l0.35,0.2
				l1.23,0.71l1.94,1.12l7.02,4.04l1.41,0.81l0.55,0.32l0.04,0.03l0.77,0.44l0.19,0.11l0.54,0.31l0.53,0.31l4.36,2.51V89.8371z"/>
		</g>
	</g>
</g>
<g>
	<defs>
		<path id="SVGID_1_" d="M30.5852,40.2075c-1.8709,1.3997-2.8049,2.5357-3.4047,3.7443
			c-3.2596,6.5647-1.0215,12.7928-0.1616,14.6277c0.8594,1.8354,2.9805,5.4567,2.9805,5.4567l24.5131-40.5365L30.5852,40.2075z"/>
	</defs>
	<clipPath id="SVGID_2_">
		<use xlink:href="#SVGID_1_"  style="overflow:visible;"/>
	</clipPath>
	
		<linearGradient id="SVGID_3_" gradientUnits="userSpaceOnUse" x1="-364.0248" y1="362.434" x2="-363.5246" y2="362.434" gradientTransform="matrix(-62.9222 68.1881 68.1881 62.9222 -47562.5742 2042.2316)">
		<stop  offset="0" style="stop-color:#A0A8D4"/>
		<stop  offset="0.5799" style="stop-color:#A0A8D4"/>
		<stop  offset="0.7323" style="stop-color:#8791C7"/>
		<stop  offset="0.9136" style="stop-color:#6470B4"/>
		<stop  offset="1" style="stop-color:#6470B4"/>
	</linearGradient>
	<polygon class="st3" points="74.7154,42.1425 40.4434,79.2827 3.7179,45.3935 37.99,8.2532 	"/>
</g>
<g>
	<path class="st4" d="M18.4274,70.4588c0.6318,7.9604,4.6733,15.119,10.3671,19.2255l25.6881,17.8968
		c0,0-16.0514-23.1424-29.6041-46.1727c-1.4687-2.4952-2.4667-5.8494-2.7158-7.8524c-0.2331-1.8789-0.08-3.1771,0.03-3.7673
		c-0.3522,0.6518-0.989,1.9985-0.989,1.9985c-1.2236,2.7474-2.4737,5.8844-2.7764,8.8764
		C18.2133,62.777,18.0837,65.2898,18.4274,70.4588"/>
</g>
<g>
	<defs>
		<path id="SVGID_4_" d="M57.2443,107.5767l23.9273-16.7077c1.8709-1.3992,2.8049-2.5352,3.4052-3.7443
			c3.2591-6.5642,1.0205-12.7928,0.1611-14.6272c-0.8594-1.8349-2.9805-5.4572-2.9805-5.4572L57.2443,107.5767z"/>
	</defs>
	<clipPath id="SVGID_5_">
		<use xlink:href="#SVGID_4_"  style="overflow:visible;"/>
	</clipPath>
	
		<linearGradient id="SVGID_6_" gradientUnits="userSpaceOnUse" x1="-365.4965" y1="361.1089" x2="-364.9962" y2="361.1089" gradientTransform="matrix(62.9223 -68.1882 -68.1882 -62.9223 47676.6719 -2094.8784)">
		<stop  offset="0" style="stop-color:#A0A8D4"/>
		<stop  offset="0.5799" style="stop-color:#A0A8D4"/>
		<stop  offset="0.7323" style="stop-color:#8791C7"/>
		<stop  offset="0.9136" style="stop-color:#6470B4"/>
		<stop  offset="1" style="stop-color:#6470B4"/>
	</linearGradient>
	<polygon class="st5" points="37.0413,88.9339 71.3133,51.7937 108.0388,85.6829 73.7668,122.8232 	"/>
</g>
<path class="st4" d="M93.3295,60.6178c-0.6318-7.9604-4.6733-15.1189-10.3671-19.225L57.2742,23.496
	c0,0,16.0519,23.1419,29.6046,46.1722c1.4682,2.4952,2.4667,5.8499,2.7153,7.8524c0.2331,1.8789,0.0805,3.1771-0.0295,3.7674
	c0.3517-0.6518,0.989-1.9985,0.989-1.9985c1.2231-2.7474,2.4732-5.8844,2.7759-8.8764
	C93.5441,68.2996,93.6732,65.7869,93.3295,60.6178"/>
<g>
	<g>
		<defs>
			<rect id="SVGID_7_" x="18.2156" y="23.4957" width="75.3261" height="84.0849"/>
		</defs>
		<clipPath id="SVGID_8_">
			<use xlink:href="#SVGID_7_"  style="overflow:visible;"/>
		</clipPath>
		<g class="st6">
			<defs>
				<path id="SVGID_9_" d="M27.1805,43.9518c0.6003-1.2086,1.5338-2.3446,3.4047-3.7443l23.9273-16.7077L29.9994,64.0362
					c0,0-2.121-3.6218-2.9805-5.4567C26.159,56.7446,23.9209,50.5166,27.1805,43.9518 M18.4272,70.4589
					c0.6318,7.9604,4.6733,15.1189,10.3671,19.2255l25.6886,17.8963c0,0-16.0514-23.1419-29.6046-46.1722
					c-1.4687-2.4952-2.4667-5.8494-2.7158-7.8524c-0.2331-1.8789-0.08-3.1771,0.0305-3.7674
					c-0.3522,0.6518-0.9895,1.9985-0.9895,1.9985c-1.2231,2.7474-2.4732,5.8844-2.7764,8.8764
					C18.2136,62.7771,18.0835,65.2893,18.4272,70.4589 M84.7378,72.4974c-0.8594-1.8354-2.9805-5.4572-2.9805-5.4572
					l-24.5131,40.537l23.9273-16.7077c1.8709-1.3997,2.8049-2.5358,3.4052-3.7448C87.8359,80.5603,85.5977,74.3323,84.7378,72.4974
					 M93.3296,60.618c-0.6318-7.9609-4.6733-15.1189-10.3671-19.2255L57.2743,23.4962c0,0,16.0519,23.1414,29.6046,46.1722
					c1.4682,2.4947,2.4667,5.8494,2.7153,7.8519c0.2331,1.8794,0.0806,3.1771-0.0295,3.7679
					c0.3517-0.6518,0.989-1.9985,0.989-1.9985c1.2231-2.7474,2.4727-5.8844,2.7759-8.8764
					C93.5442,68.2998,93.6732,65.7871,93.3296,60.618"/>
			</defs>
			<clipPath id="SVGID_10_">
				<use xlink:href="#SVGID_9_"  style="overflow:visible;"/>
			</clipPath>
			
				<linearGradient id="SVGID_11_" gradientUnits="userSpaceOnUse" x1="-364.2908" y1="361.4517" x2="-363.7906" y2="361.4517" gradientTransform="matrix(0 169.4249 169.4249 0 -61183.0273 61743.0117)">
				<stop  offset="0" style="stop-color:#513EFF"/>
				<stop  offset="0.1829" style="stop-color:#5157FF"/>
				<stop  offset="0.5725" style="stop-color:#5298FF"/>
				<stop  offset="1" style="stop-color:#52E5FF"/>
			</linearGradient>
			<rect x="18.0835" y="23.4962" class="st7" width="75.5897" height="84.0844"/>
		</g>
	</g>
</g>
</svg>
