<svg xmlns="http://www.w3.org/2000/svg" width="110.913" height="128.047" viewBox="0 0 110.913 128.047"><path fill="#1B1464" d="M101.52 90.631V37.43l-46.1-26.599L9.319 37.43v53.201L55.42 117.23z"/><linearGradient id="a" gradientUnits="userSpaceOnUse" x1="82.885" y1="97.739" x2="67.143" y2="80.768"><stop offset="0" stop-color="#293990"/><stop offset=".515" stop-color="#5092be"/><stop offset="1" stop-color="#293990"/></linearGradient><path fill="url(#a)" d="M93.064 70.545s10.945 9.224-.615 16.109c-12.61 7.513-16.438 9.425-31.236 17.955L40.06 89.852s32.714-19.923 34.435-20.414c1.722-.493 16.601-1.108 18.569 1.107z"/><path fill="#293990" d="M51.587 107.426v4.092l37.844-21.85v-4.091z"/><path fill="#555CA8" d="M51.57 107.426v4.092l-37.843-21.85v-4.091z"/><path fill="#9798CB" d="M89.366 85.601l-37.762 21.801-37.877-21.825 37.595-21.874z"/><path fill="#293990" d="M55.847 98.332c-.478.264-1.031.432-2.503-.411L31.986 85.689c-1.473-.843-1.344-1.223-.865-1.487l15.059-8.516c.479-.264 1.123-.312 2.596.531l21.358 12.231c1.473.844 1.25 1.103.77 1.367l-15.057 8.517z"/><path fill="#555CA8" d="M55.847 96.821c-.478.265-1.031.433-2.503-.41L31.986 84.18c-1.473-.842-1.344-1.223-.865-1.485l15.059-8.518c.479-.265 1.123-.31 2.596.532l21.358 12.232c1.473.842 1.25 1.103.77 1.366l-15.057 8.514z"/><path fill="#9798CB" d="M67.144 88.597c-.047.027-.106.045-.258-.042l-2.197-1.258c-.152-.088-.138-.126-.09-.153l1.551-.877c.049-.027.114-.032.268.055l2.196 1.258c.153.087.129.115.079.141l-1.549.876zm-2.702 1.625c-.048.028-.107.044-.257-.043l-2.199-1.259c-.151-.086-.138-.124-.087-.152l1.548-.876c.049-.026.117-.031.269.056l2.198 1.259c.151.086.128.113.079.14l-1.551.875zm-.811-3.829c-.05.026-.105.044-.258-.042l-2.197-1.26c-.151-.086-.139-.125-.09-.152l1.55-.878c.049-.024.115-.03.269.056l2.195 1.26c.153.086.13.112.08.141l-1.549.875zm-2.702 1.623c-.048.028-.105.046-.257-.04l-2.198-1.259c-.151-.087-.139-.127-.09-.154l1.552-.875c.047-.028.115-.033.267.054L62.401 87c.15.086.126.114.078.141l-1.55.875zm.813 3.831c-.05.027-.104.045-.258-.041l-2.197-1.259c-.152-.088-.14-.127-.089-.154l1.548-.876c.051-.026.116-.032.267.056l2.199 1.259c.15.086.128.112.08.141l-1.55.874z"/><path fill="#162B53" d="M64.564 59.815c.483.061-.707-.962-.899-1.089-.188-.129-.701-.192-.701-.192s.575 1.154 1.6 1.281z"/><path fill="#293990" d="M73.357 75.121s9.303 7.878 16.88 6.613c7.576-1.263 11.805-1.475 7.832-15.076-2.039-6.977-8.241-11.722-12.651-14.391-4.256-2.576-7.66-3.366-7.66-3.366s-.965-14.564-13.779-9.654c-4.38 1.678-8.984 5.766-9.284 10.759-.459 7.662 3.566 5.871 3.449 7.484-.464 6.383 10.162 13.591 15.213 17.631z"/><linearGradient id="b" gradientUnits="userSpaceOnUse" x1="75.292" y1="49.294" x2="95.827" y2="69.095"><stop offset="0" stop-color="#293990"/><stop offset=".515" stop-color="#5092be"/><stop offset="1" stop-color="#293990"/></linearGradient><path fill="url(#b)" d="M76.141 47.396c.385 3.816-1.788 10.579 2.904 8.021 6.411-3.494 15.9 6.695 18.095 14.207 1.207 4.124.925 7.466.845 9.651 1.396-1.941 2.19-5.748.257-12.372-2.04-6.975-8.242-11.72-12.652-14.39-4.256-2.575-7.66-3.365-7.66-3.365s-.896-13.489-12.391-10.124c8.967-.091 10.214 4.556 10.602 8.372z"/><path fill="#293990" d="M77.462 58.42c-.857 1.619-1.337 14.007-1.945 15.775-.608 1.768-.911 2.777-6.385 4.04-5.475 1.264-9.425.758-9.425.758s.911 2.021.302 3.536c-.608 1.516 16.403.932 19.605-.203 5.221-1.845 4.419-5.354 6.243-9.394 1.824-4.042 3.042-9.345 2.736-11.113-.304-1.768-7.786-9.714-11.131-3.399zm-9.155-6.029s-12.872 9.068-14.389 12.604c-1.515 3.536-4.383 10.611-3.473 9.7 2.725-2.725 5.609 1.248 5.609 1.248s3.497-7.811 4.757-8.82c1.263-1.01 4.718-2.357 8-6.903 3.285-4.546 2.274-8.335-.504-7.829z"/><path fill="#6ACADB" d="M64.933 63.409c-1.58.575-1.378-1.343-2.277-1.863-.237-.138 1.501 0 2.305-1.516-2.083 1.185-3.085.64-3.117.425-.042-.28-.066-.955.072-1.34-.409.002-.971.823-1.566.754-.842-.098.084-1.598-.013-3.391-.048-.871-1.832-.713-1.832-.713-1.6-3.72.46-5.9 4.753-3.628 4.292 2.272 7.399 5.736 5.683 7.608-1.598 1.739-2.363 3.066-4.008 3.664z"/><path fill="#293990" d="M62.773 56.57s-.181-.604 1.145-.416c1.326.19 1.969.492 1.969.492s-1.789.682-3.114-.076z"/><linearGradient id="c" gradientUnits="userSpaceOnUse" x1="77.43" y1="32.017" x2="74.105" y2="80.904"><stop offset=".351" stop-color="#5092be"/><stop offset="1" stop-color="#293990"/></linearGradient><path fill="url(#c)" d="M68.675 79.356c3.787-.852 7.05-1.644 7.808-3.064 1.7-9.069 2.981-12.316 3.178-13.987.663-5.684 9.705-5.686 7.616 4.935-1.229 6.244-4 11.424-7.37 13.021-4.675 2.213-17.587 3.097-18.167 1.647-.759-1.893 5.277-2.179 6.935-2.552z"/><path fill="#6ACADB" d="M63.099 81.407c.276 1.449.983 1.886.983 1.886s-2.498 1.329-4.924 1.712c-2.422.382-3.569.893-3.825.382-.255-.512 3.315-1.53 3.189-2.297-.128-.767-3.572.891-5.358.255-1.786-.638-1.147-1.403.256-1.403 1.402 0-.003-1.275 1.402-1.658 1.402-.383.511-1.53 3.189-1.659 2.68-.126 6.07.322 6.07.322s-1.311.739-.982 2.46z"/><path fill="#6ACADB" d="M50.391 74.111s2.367-.894 3.771 0c1.403.892 2.13 1.555 2.13 1.555s-1.064 3.035-1.966 5.249c-.992.452-.164-3.279-.984-3.772-.819-.491-1.121 3.336-1.886 2.953-.765-.384-.209.2-1.229.328-1.021.126-1.393.372-2.541-.902-1.151-1.276.025-4.774 2.705-5.411z"/><path fill="#293990" d="M60.047 57.037l-2.682-.629 1.739 1.323z"/><linearGradient id="d" gradientUnits="userSpaceOnUse" x1="51.405" y1="85.739" x2="72.321" y2="66.203"><stop offset="0" stop-color="#fff"/><stop offset="1" stop-color="#fff" stop-opacity="0"/></linearGradient><path fill="url(#d)" d="M31.994 65.99l23.447-26.792 39.834 48.333-40.79 8.468z"/><path fill="#555CA8" d="M55.479 96.688c0 .582-.471.78-1.053.444l-22.8-12.921c-.58-.334-1.052-1.08-1.052-1.66v-14.84c0-.582.472-.781 1.052-.445l22.8 13.119c.582.336 1.053 1.078 1.053 1.659v14.644z"/><path fill="#293990" d="M54.388 80.422l-22.8-13.119c-.486-.281-.878-.17-.998.209.105.025.213.057.331.125l22.8 13.119c.582.336 1.053 1.078 1.053 1.659v14.644c0 .095-.03.162-.054.235.416.1.721-.105.721-.569V82.081c-.001-.581-.471-1.323-1.053-1.659z"/><path fill="#9798CB" d="M56.707 80.814c0-.581-.47-1.324-1.05-1.658l-22.8-13.12c-.357-.208-.673-.21-.863-.046l-.003-.004-1.19 1.211c.191-.137.49-.127.826.068l22.8 13.119c.582.336 1.053 1.078 1.053 1.659v14.644a.67.67 0 0 1-.121.409l1.197-1.177-.002-.009c.096-.104.153-.255.153-.453V80.814z"/><linearGradient id="e" gradientUnits="userSpaceOnUse" x1="54.537" y1="49.399" x2="75.001" y2="49.399"><stop offset=".079" stop-color="#6acadb"/><stop offset="1" stop-color="#293990"/></linearGradient><path fill="url(#e)" d="M71.938 60.391s1.206-5.604-6.668-10.289c-8.374-4.984-10.478 2.93-10.478 2.93s-2.459-7.748 7.87-13.281c6.595-3.532 10.481.376 11.834 6.294 1.354 5.916-.191 11.303-2.558 14.346z"/><text transform="matrix(1 .5774 0 1 32.346 26.46)" fill="#FFF" font-family="'Arial-BoldMT'" font-size="7.533">01 010 101 11 01 01</text><text transform="matrix(1 .5774 0 1 45.45 70.374)" fill="#FFF" font-family="'Arial-BoldMT'" font-size="4.038">01 010 101 11 01 01</text><text transform="matrix(1 .5774 0 1 46.116 57.777)" fill="#FFF" font-family="'Arial-BoldMT'" font-size="5.089">01 010 101 11 01 01</text><text transform="matrix(1 .5774 0 1 45.648 18.513)" fill="#FFF" font-family="'Arial-BoldMT'" font-size="12.097">01 010 101</text><linearGradient id="f" gradientUnits="userSpaceOnUse" x1="58.093" y1="57.193" x2="55.992" y2="50.083"><stop offset=".079" stop-color="#6acadb"/><stop offset="1" stop-color="#293990"/></linearGradient><path fill="url(#f)" d="M58.008 56.967s-3.274-.831-3.215-3.936c.042-2.133 3.184-3.896 3.184-3.896s-1.27 1.544-1.112 4.609c.117 2.337 1.143 3.223 1.143 3.223z"/><path fill="#FFF" d="M46.909 86.917c-.225-.003-.396-.146-.587-.427-.068-.098-.392-.461-1.269-1.75.499-.251.805-.795.805-1.587 0-.281-.039-.575-.112-.875.368-.082.53-.082.576-.096.19-.06.362-.006.587.25.435.498.997.769 1.368.612.44-.187.44-.904 0-1.6-.311-.488-.76-.617-1.002-.997-.24-.383-.11-.755-.42-1.245-.441-.695-1.158-1.108-1.6-.923-.357.151-.41.651-.203 1.203.12.32.118.5-.083.611-.03.015-.077.062-.177.14-.527-.752-1.211-1.417-1.956-1.849-.749-.433-1.434-.555-1.962-.408-.117-.227-.168-.338-.193-.383-.17-.288-.215-.487-.088-.639.246-.292.193-.885-.179-1.47-.44-.696-1.157-1.11-1.598-.923-.31.131-.18.654-.421.758-.242.101-.691-.289-1.001-.158-.44.187-.44.902 0 1.599.358.565.888.923 1.321.968.25.024.43.128.656.462.053.076.207.256.551.729-.07.215-.109.464-.109.743 0 .791.305 1.689.805 2.516-.85.265-1.166.254-1.246.28-.227.07-.406-.032-.656-.297-.434-.458-.963-.709-1.321-.558-.44.187-.44.902 0 1.599.31.488.759.616 1.001.998.241.38.111.755.421 1.242.44.697 1.157 1.111 1.598.925.372-.156.425-.689.179-1.267-.127-.297-.082-.443.088-.536.036-.02.117-.112.356-.278.397.795 1.054 1.544 1.799 1.974.741.431 1.397.439 1.795.105.217.402.296.58.338.651.201.343.203.525.083.706-.207.313-.154.874.203 1.438.441.696 1.158 1.108 1.6.923.31-.131.18-.655.42-.757.242-.103.691.287 1.002.156.44-.188.44-.902 0-1.599-.372-.581-.934-.961-1.369-.966zm-2.772-5.155c.447.257.811.831.811 1.277s-.363.599-.811.343c-.448-.259-.811-.832-.811-1.277 0-.449.362-.601.811-.343zm-1.791-.225c0 .447-.363.6-.811.342-.447-.257-.81-.83-.81-1.276 0-.448.362-.602.81-.343s.811.83.811 1.277zm.3 2.843v-.29l-.02-.011-.422-.243-.02-.012v.289l-.43-.247v-.29l-.441-.254v.288l-.199-.116a2.508 2.508 0 0 1-.137-.773c0-.071.006-.139.014-.202l.732.423v.441l.442.254v-.439l.448.258v.441l.441.254v-.44l.449.261v.44l.441.255v-.441l.733.424c.009.073.013.146.013.219 0 .245-.049.45-.136.615l-.15-.086v-.289l-.44-.254v.287l-.45-.259v-.289l-.44-.254v.288l-.428-.248z"/><linearGradient id="g" gradientUnits="userSpaceOnUse" x1="30.184" y1="95.931" x2="30.184" y2="88.559" gradientTransform="matrix(1 .5774 0 1 0 -63.719)"><stop offset="0" stop-color="#c7a315"/><stop offset="1" stop-color="#ebd065"/></linearGradient><path fill="url(#g)" d="M30.184 39.241l-4.794-5.476 4.794-5.535 4.795 11.07z"/><linearGradient id="h" gradientUnits="userSpaceOnUse" x1="30.184" y1="95.931" x2="30.184" y2="88.558" gradientTransform="matrix(1 .5774 0 1 0 -63.719)"><stop offset="0" stop-color="#c7a315"/><stop offset="1" stop-color="#ebd065"/></linearGradient><path fill="url(#h)" d="M30.184 40.298l-4.794-5.499 4.794 11.073 4.795-5.536z"/><linearGradient id="i" gradientUnits="userSpaceOnUse" x1="40.684" y1="94.55" x2="40.684" y2="89.268" gradientTransform="matrix(1 .5774 0 1 0 -63.719)"><stop offset="0" stop-color="#c7a315"/><stop offset="1" stop-color="#ebd065"/></linearGradient><path fill="url(#i)" d="M40.684 46.871l-3.436-3.925 3.436-3.966 3.435 7.933z"/><linearGradient id="j" gradientUnits="userSpaceOnUse" x1="40.684" y1="94.549" x2="40.684" y2="89.266" gradientTransform="matrix(1 .5774 0 1 0 -63.719)"><stop offset="0" stop-color="#c7a315"/><stop offset="1" stop-color="#ebd065"/></linearGradient><path fill="url(#j)" d="M40.684 47.628l-3.436-3.94 3.436 7.933 3.435-3.966z"/><g><linearGradient id="k" gradientUnits="userSpaceOnUse" x1="33.684" y1="105.701" x2="33.684" y2="101.672" gradientTransform="matrix(1 .5774 0 1 0 -63.719)"><stop offset="0" stop-color="#c7a315"/><stop offset="1" stop-color="#ebd065"/></linearGradient><path fill="url(#k)" d="M33.684 55.748l-2.62-2.993 2.62-3.025 2.62 6.05z"/><linearGradient id="l" gradientUnits="userSpaceOnUse" x1="33.684" y1="105.701" x2="33.684" y2="101.671" gradientTransform="matrix(1 .5774 0 1 0 -63.719)"><stop offset="0" stop-color="#c7a315"/><stop offset="1" stop-color="#ebd065"/></linearGradient><path fill="url(#l)" d="M33.684 56.326l-2.62-3.006 2.62 6.051 2.62-3.024z"/></g><g><linearGradient id="m" gradientUnits="userSpaceOnUse" x1="41.559" y1="107.941" x2="41.559" y2="105.062" gradientTransform="matrix(1 .5774 0 1 0 -63.719)"><stop offset="0" stop-color="#c7a315"/><stop offset="1" stop-color="#ebd065"/></linearGradient><path fill="url(#m)" d="M41.559 64.156l-1.873-2.138 1.873-2.163 1.873 4.325z"/><linearGradient id="n" gradientUnits="userSpaceOnUse" x1="41.559" y1="107.941" x2="41.559" y2="105.061" gradientTransform="matrix(1 .5774 0 1 0 -63.719)"><stop offset="0" stop-color="#c7a315"/><stop offset="1" stop-color="#ebd065"/></linearGradient><path fill="url(#n)" d="M41.559 64.569l-1.873-2.147 1.873 4.324 1.873-2.162z"/></g><g><path fill="#2E3192" d="M55.42 10.832l46.099 26.599v53.201l-46.099 26.6L9.319 90.631v-53.2L55.42 10.832zm55.5 21.2l-55.5-32-55.401 32v63.999l55.401 32 55.5-31.999v-64z"/><path d="M99.119 89.231l-43.7 25.2-43.6-25.201v-50.4l43.6-25.2 43.7 25.2v50.401zm2.301 1.4V37.43l-46-26.6-46 26.6v53.101l46 26.6 46-26.5z" opacity=".13"/></g></svg>