<svg height="93" viewBox="0 0 93 93" width="93" xmlns="http://www.w3.org/2000/svg"><g><g transform="translate(23 15)"><path d="m.4651.0637c.0812.1625.1625.3249.3249.4062-.1625-.0813-.2437-.2438-.3249-.4062" transform="translate(10 26)"/><path d="m23.1982 55.9573h-.6093c0-3.45.0777-6.7596.1595-10.2635l.0032-.142.6092.0143-.0032.142c-.0825 3.5-.1594 6.8064-.1594 10.2492z"/><path d="m26.062 46.9607h2.924v1h-2.924z"/><g transform="translate(7)"><path d="m1.4088 47.1028h.8442c.1299 0 .1948-.0812.2598-.1625.065-.0812.065-.1625 0-.2437l-.3896-.6498 3.7666 1.5434h.2598l5.52-2.1932c-.0649-.1625-.0649-.4062-.0649-.5686l-5.5201 2.1933-3.7403-1.5595c-.2092.2725-.4691.504-.7744.6908l.2286.3813h-.997c-.0556.2452-.1368.4812-.243.7068l5.7209 3.2736c.0649 0 .1299.0812.1948.0812l4.3511-.2437c.0649-.1625.1948-.4062.2598-.5686l-4.6109.2437z"/><path d="m4.0714 46.3717-1.918-.8429c-.1625.2484-.3566.4748-.591.666l.3009.5019h-.9708c-.1599.1766-.348.3283-.5538.4627l2.174 1.2431h.1299c.1298 0 .1948 0 .2598.0813l1.2339-1.7059c.065-.0812.065-.1624.065-.2437s-.065-.1625-.1299-.1625zm-1.4937 1.4622-1.2339-.7311h.9742c.1299 0 .1948 0 .2598-.0812.0649-.0813.0649-.1625 0-.2437l-.4546-.7311 1.3638.5686z"/><path d="m15.1624 59.8562.6499 3.2493h-.8936l-2.8431-4.8739c-.4874-.3249-.7311-.8123-.9748-1.2997-.0812 0-.0812 0-.1625.0812-.0812.0812-.0812.2437-.0812.3249l3.6554 6.2549c.0812.0812.1625.1625.2437.1625h1.381c.0812 0 .1625 0 .2437-.0812s.0812-.1625.0812-.2437l-.7311-3.3305c-.2436-.1625-.406-.1625-.5686-.2438z"/><path d="m34.7395 33.6995.7311-.5686c.0812-.0812.0812-.1625.0812-.2437s-.0812-.1625-.1625-.2437l-2.0308-.6499v.5686l1.2997.4874-.6499.4874c-.0812.0812-.0812.1625-.0812.2437s.0812.1625.0812.2437c0 0 2.5182 1.7871 2.5182 3.5742l-1.2997-.4062c-.0812 0-.2437 0-.3249.0812s-.0812.2437 0 .3249c0 0 .5686.8123.9748 2.112.4874 1.5434.4874 3.0056 0 4.3865l-1.4622-.9748c-.0812-.0812-.1625-.0812-.2437 0-.0812 0-.1625.0812-.1625.2437l-.4062 2.9244c.1625 0 .4062.0812.5686.1625l.3249-2.5182 1.381.9748c.0812.0812.1625.0812.2437 0 .0812 0 .1625-.0812.1625-.1625.8123-2.0308.5686-3.8991.1625-5.1176-.1625-.6499-.4062-1.2185-.6499-1.5434l.8936.3249h.2437c.0812-.0812.0812-.0812.1625-.1625.4061-2.1118-1.5434-3.899-2.3557-4.5488z"/><path d="m28.9228 52.8065-.1133.3074c-.4874 1.8683-1.5434 3.6554-3.0869 4.7927-1.5434 1.2185-3.4117 1.8683-5.4425 1.8683h-3.7367c-2.112 0-4.1428-1.056-5.2801-2.9243-.9747-1.5434-1.2185-3.4118-.6499-5.1176l.9748-3.0868v-.0812l.1625-5.1988c-.3249-.4874-.4874-.9748-.4874-1.5434l-.1624 6.661-.9748 3.0868c-.5686 1.8683-.325 3.8991.731 5.605 1.2185 1.9495 3.4118 3.168 5.7675 3.168h3.7367c2.1121 0 4.1429-.7311 5.7675-2.0308s2.7619-3.0868 3.2493-5.1176l.1215-.3314c-.2027-.0037-.3942-.0243-.5768-.0573z"/><path d="m28.3221 55.226c-.1625-.0812-.3249 0-.4062.0812l-4.0616 7.7983-.8935.3249-.4874-3.5742c-.1625.0812-.3249.0812-.5686.1625l.4874 3.8179c0 .0812.0812.1625.1625.1625h.1625.0812l1.2997-.4874c.0812 0 .0812-.0812.1625-.1625l4.1428-7.8795c.1623 0 .0812-.1625-.0813-.2437z"/><path d="m32.977 53.1952-7.9133-.0812c-.0799 0-.1599-.0812-.2398-.1625s0-.2437 0-.3249l.8792-1.2185-1.0391-.4874c-.0799-.0812-.1599-.1625-.1599-.3249 0-.1625.1599-.2437.2398-.2437l5.1156-.1625-.4796-4.3053c0-.1625.0799-.3249.2398-.3249s.3197.0812.3197.2437l.4796 4.549c0 .0812 0 .1625-.0799.2437s-.1599.0812-.1599.0812l-4.1564.1625.2398.0812c.0799 0 .1599.0812.1599.1625s0 .1625-.0799.2437l-.7194 1.056 7.1939.0812.9592-7.4734c0-.1625.1599-.2437.3197-.2437s.2398.1625.2398.3249l-.9592 7.7171c-.1598.325-.2398.4062-.3996.4062z"/><path d="m29.7842 47.6714-1.6246-.3249c-.1625 0-.2437-.1625-.2437-.3249 0-.1625.1625-.2437.3249-.2437l1.6246.2437c.1625 0 .2437.1625.2437.3249-.0811.2437-.1623.3249-.3249.3249z"/><path d="m16.1373 63.5929h-1.381c-.0812 0-.1625-.0812-.2437-.1625l-.4874-.8123c-.0812-.0812-.0812-.1625 0-.2437s.1625-.1625.2437-.1625h1.7059c.0812 0 .2437.0812.2437.1625l.1625.8123c0 .0812 0 .1625-.0812.2437 0 .1625-.0813.1625-.1625.1625zm-1.2185-.4874h.8936l-.0812-.3249h-1.056z"/><path d="m22.6799 64.0261c-.0812 0-.0812 0-.1625 0-.0812 0-.0812-.0812-.0812-.1625l-.1625-1.2185c0-.0812 0-.1625.0812-.1625.0812-.0812.0812-.0812.1625-.0812h1.8683c.0812 0 .1625.0812.2437.0812s.0812.1625 0 .2437l-.3249.6499c0 .0812-.0812.0812-.1625.0812l-1.2997.4874c-.1624.0813-.1624.0813-.1624.0813zm.0811-1.2184.0812.5686.9748-.3249.1625-.2437z"/><path d="m37.0139 22.9768-.0812-.2437-.2437.0812c-3.2493 1.2997-4.4678.0812-4.7115-.2437l.0812-4.3865-.1625-.0812c-1.9496-.8936-4.3053-.4062-5.3613-.1625l.3249-1.2997-.2437-.0812c-2.7619-.9748-5.4426-.1625-6.5798.2437l.1625-1.1372h-.3249c-2.3557 0-4.1428.8936-5.2801 1.8683l.1625.2437.1625.2437c1.056-.8123 2.5182-1.7059 4.6302-1.7871l-.2437 1.5434.5686-.2437s3.168-1.5434 6.3361-.5686l-.4874 1.8683.5686-.1625s3.0056-.9748 5.2801-.0812v.3249l-.0812 3.8179.0812.0812s.3249.4874.9748.8123c.7311.3249 1.7871.5686 3.5742.0812.2437-.0812.4874-.1625.7311-.2437.0812.2437.0812.5686 0 .8936 0 .0812-.0033.0918-.0334.1672-.0239.0597.0072.0478-.0478.1577 0 0-.0014.0042-.0334.0788-.0358.0836-.0851.1399-.129.2461-.011.0265-.0095.0024-.0812.0812-.1625.2437-.4062.4874-.7311.7311-.2437.1625-.5686.3249-.9748.4874l-.2437.0812c-.2437.0812-1.7871.5686-2.1933.3249-.0812 0-.0812-.0812-.1625-.1625-.0812-.0812-.0812-.1625-.1625-.2437 0-.0812-.0812-.1625-.0812-.2437-.0812-.1625-.0812-.3249-.0812-.3249s-.0812.1625-.1625.4874c0 .0812-.0812.2437-.0812.3249v.3249c0 .2437.0812.4062.3249.5686.4062.2437 1.3809.0812 2.0308-.1625.2437-.0812.4874-.1625.6499-.1625l.1863 1.0847-1.2137.9748.8888 1.4335-1.5673.8792.3723 1.7845-1.7533.0982-.0812 1.7059h-2.0308l-.1959 2.0882-1.6081-.186-.4705 1.7533-.8123.1625-1.5561.2336-1.1423 3.427-2.5004.1574-3.1681 2.7619-.4874-1.2185-1.8683 1.2997-.3249.2437-.325.2439-.6499.4062-.0812-2.437-1.7871 1.1372-.7311-3.5742-1.381-.0812-1.6246-2.6807-1.7871-.8123c-.5686-1.056-.3249-1.9496-.3249-2.0308l.1625-.4874-1.6246.1625c-.8936-1.7059-1.7871-3.9804-2.437-5.8487 0-.0812 0-.0812 0-.0812h-.0812c-.4062-1.2185-.7311-2.1933-.8123-2.5994l1.2185-.4874-.9748-1.6246c.4062-.3249.8123-.4874 1.1373-.6499.7311-.3249 1.3809-.4062 1.6246-.4062h.5686l-1.056-1.7871c.3249-.2437.6499-.4062.9748-.5686 1.7059-.7311 3.493-.5686 3.493-.4874l.5686.0812-.8936-1.7871c.1625-.0812.4062-.1625.5686-.1625.0812 0 .2437-.0812.3249-.0812l-.0812-.3249c-.0812 0-.1625 0-.3249.0812.0812 0 .1625-.0812.3249-.0812l-.0812-.3249c-.4874.0812-.8936.2437-1.381.4874l-.3249.1625.7311 1.2997c-.9748 0-3.0056.0812-4.549 1.4622l-.1625.1625.8123 1.3809c-.6499.0812-1.7059.4062-2.8431 1.2997l-.2437.1625.8123 1.4622-1.056.4062.0812.2437c0 .0812.4062 1.3809.8936 3.0056-.1625.4062-.5686.9748-1.381 1.1373l-.3249.0812.1625.3249s.8123 1.6246 2.437 1.2185c.0812 0 .0812 0 .1625-.0812.4874 1.2185 1.056 2.437 1.6246 3.493l.0812.1625 1.1373-.1625c-.0812.4874 0 1.2997.4874 2.112l.0812.0812 1.7871.8123 1.7059 2.7619 1.2997.0812.8123 3.9804 1.6246-1.056.0812 2.5182.8933-.5686.1625-.1625.0812-.0812.3249-.2437 1.7059-1.2185.7847 1.3353 3.0335-2.7797.3935-.3681 2.9912-.1269 1.1739-3.4888 2.4178-.2771.3249-1.9209 1.6246.2867.2676-2.1407 2.0643.1051.0764-1.94 1.8251-.1386-.4062-2.112 1.7871-.8936-1.056-1.5434 1.1373-.8936-.3249-1.1373-.1625-.5686c.9748-.4062 1.6246-.9748 1.9496-1.7059.0396-.0597.0396-.0711.0812-.1625 0-.0812.0904-.1587.0904-.2399l-.0092-.0038c.0433-.0812.0385-.0884.0812-.2437v-.0812c.1628-.7313.0003-1.2187-.0809-1.2187zm-35.9858 8.7731c.5686-.2437.9748-.5686 1.2185-.8936.1625.4874.3249.9748.5686 1.5434-.9748.2438-1.5434-.2436-1.7871-.6498z"/><path d="m15.4874 19.3214-.4062-.6499-.4062-.6499-.1625-.2437-.1625-.2437-4.8739-8.7731c-.2437-.3249-.5686-.4874-.9748-.4062-.4062.1625-.6499.4874-.5686.8936l1.381 9.4229.0812.3249.0812.3249.3249 2.0308c0 .1625.4062 1.2997 3.4117.4874 1.2185-.3249 2.0308-.8123 2.3557-1.4622.0815-.5684-.081-.9746-.081-1.0558zm-2.5994 2.0308c-2.1933.5686-2.6807 0-2.6807-.0812l-.2437-1.4622c.7311.4874 2.2745 1.2185 4.4678.6499.0812 0 .0812 0 .1625-.0812.0812 0 .0812 0 .1625-.0812 0 .0812-.0812.0812-.1625.1625-.2438.3248-.7311.6497-1.7059.8934zm-4.4678-12.1036c0-.1625.0812-.2437.1625-.3249.0812 0 .2437 0 .3249.1625l.2437.4874c-.0812 0-.2437 0-.3249-.0812-.1625 0-.3249-.0812-.4062-.1625zm.8124.8123h.4062l1.2185 2.112c-.1625 0-.3249 0-.4874 0-.4874 0-1.056-.1625-1.5434-.3249l-.2437-1.8683c.1624 0 .4061 0 .6498.0812zm1.3809 2.6807h.4874l1.1373 2.0308c-.1625 0-.4062.0812-.5686.0812-1.056.0812-1.9496-.2437-2.5182-.5686l-.2437-1.8683c.5685.2437 1.1372.3249 1.7058.3249zm1.381 2.5994c.1625 0 .4062-.0812.5686-.0812l1.1373 1.9496c-.2437.0812-.4062.0812-.6499.1625-1.7059.3249-2.9243-.3249-3.493-.6499l-.2437-1.7871c.6499.3249 1.5434.4874 2.6807.4061zm-2.1933 3.2493-.1625-1.2185c.7311.4062 2.0308.8123 3.6555.4874.1625 0 .2437-.0812.4062-.0812.0812 0 .1625-.0812.2437-.0812l.0812.0812.1625.2437.1625.2437.6497 1.2185v.0812c-.2437.0812-.4874.1625-.6499.2437-2.1933.6499-3.6554-.2437-4.2241-.6499-.0812-.0812-.1625-.1625-.2437-.1625v-.1624z"/><g transform="translate(1 20)"><g transform="translate(12)"><path d="m15.4033 4.2765c.3596 1.2586.3184 2.5609-.0853 3.7775.342-.1239.7174-.2068 1.1482-.2068.143 0 .269.0252.4023.0399.3082-1.2711.2745-2.6032-.0841-3.9355-.4143-1.5387-1.2207-2.8581-2.3483-3.8714-.569.1307-1.1462.259-1.732.3865 1.3307.904 2.2543 2.2527 2.6992 3.8098z"/><path d="m3.818 12.1401c.3968-.3249.9011-.5431 1.5046-.6235-1.2961-.8567-2.3097-2.1478-2.7539-3.7471-.3966-1.5865-.2146-3.1877.4203-4.5646-.6204.2725-1.2172.5734-1.789.9028-.3219 1.2867-.2945 2.6363.0691 3.9867.4383 1.6287 1.3155 3.0119 2.5489 4.0457z"/></g><g transform="translate(0 5)"><path d="m4.3334 9.3493c-.8123-.8123-1.4622-1.9496-1.7871-3.3305-.3319-1.062-.3827-2.1684-.2609-3.1173-.3656.3315-.8176.585-1.3768.6977-.0113.8873.0961 1.8252.338 2.7445.5613 2.133 1.7047 3.7995 3.0008 4.6264.1135-.437.3048-.8472.5818-1.1995-.1679-.1188-.3344-.2598-.4958-.4213z"/><path d="m10.0839 3.7579c-.3813-1.2073-.9261-2.2933-1.6076-3.1821-.2636.409-.6225.7528-1.0794.9917.5469.7304.9792 1.6337 1.2248 2.6778.4062 1.2997.4062 2.6806.1625 3.7367-.0217.0795-.0549.1454-.0804.2208.5412.0364 1.0047.1832 1.3931.4145.4682-1.32.503-3.0534-.013-4.8594z"/></g><path d="m8.8005 10.7396c-.2944-.0207-.4982-.2793-.5547-.5276-.0451-.4103.1249-.7241.5043-.8603l5.861-1.2982c.3737-.0552.6568.1276.7755.5431.0451.4103-.1248.7241-.5043.8603l-5.861 1.2982c-.1472-.0103-.1472-.0103-.2208-.0155z"/><path d="m27.647 5.1701c-.3249 0-.5686-.2437-.6499-.4874-.0812-.4062.0812-.7311.4874-.8936l6.661-1.7871c.4062-.0812.7311.0812.8936.4874.0812.4062-.0812.7311-.4874.8936l-6.661 1.7871c-.0812-.0812-.1624 0-.2437 0z"/></g><path d="m20.0364 34.4306c.4874-.6499.5686-1.3809.3249-1.8683-.4874-.8936-2.112-.8936-3.5742-.0812-.7311.4062-1.2997 1.056-1.6246 1.6246-2.0308 2.437-3.0868 1.6246-3.0868 1.6246-.3249-.3249-.8123-.5686-1.3809-.6499-.4874-.0812-.9748-.0812-1.2997.0812-.4062.1625-.7311.4062-.8123.7311-.0812.6499.6499 1.2997 1.7059 1.5434.2437 0 .4062.0812.6499.0812h.2437c-.0002-.0811 6.6609-.1624 8.8541-3.0867zm-1.7871-.8123c.3249-.5686.8123-.9748 1.1373-.8123.2437.1625.2437.7311-.0812 1.3809-.3249.5686-.8123.9748-1.1373.8123-.3249-.1625-.2437-.8123.0812-1.3809zm-7.717 3.168c0 .0812 0 .0812 0 0-.0812.0812-.2437.0812-.4874 0-.0812 0-.2437-.0812-.3249-.1625-.3249-.2437-.4874-.5686-.4062-.6499.0812-.1625.4874-.0812.8123.1625.4062.2437.5686.5687.4062.6499z"/><path d="m25.0808 52.9483c-.0812 0-.1625-.0812-.2437-.1625s0-.1625 0-.2437l.8936-1.2185-1.1373-.4874c-.0812-.0812-.1625-.1625-.1625-.2437s.1625-.1625.2437-.1625l2.437-.0812c.1625 0 .2437.0812.2437.2437l.2437 2.1933c0 .0812 0 .1625-.0812.1625-.0812.0812-.0812.0812-.1625.0812zm.8123-2.112.4062.1625c.0812 0 .0812.0812.1625.1625v.2437l-.8123 1.056h1.5434l-.1625-1.6246h-1.1373z"/><path d="m18.3306 38.5734c1.056-.0812 2.0308-.4874 2.8431-1.056.4062-.2437.7311-.5686 1.056-.9748.1625-.1625.3249-.3249.4062-.5686 0-.0812 0-.2437-.0812-.3249-.0812-.3249-.0812-.5686-.3249-.8123s-.5686-.4062-.8936-.4062c-.7311 0-1.2185.7311-1.056 1.4622.0812.4874.1625.9748.3249 1.4622.0812.3249.5686.1625.5686-.1625-.0812-.4874-.2437-.9748-.3249-1.5434-.0812-.4874.5686-.8936.9748-.5686.2437.1625.2437.5686.3249.8936 0-.0812 0-.1625 0-.2437-.8123 1.2185-2.1933 2.0308-3.7367 2.1933-.4062.1623-.4874.7309-.0812.6497z"/><g transform="translate(5 1)"><path d="m.5771 3.8621.4874.0812c.4874.0812.9748.2437 1.4622.3249h.0812s.0812 0 .0812-.0812c.0812-.0812.1625-.2437.2437-.3249l.9748-1.1373s.0812-.0812.0812-.1625 0-.0812-.0812-.1625c-.8123-.7311-1.6246-1.4622-2.437-2.1933 0 0-.0812-.0812-.1625-.0812h-.0812c-.0812.0812-.0812.0812-.0812.1625-.2437.8123-.4062 1.6246-.6499 2.5182l-.1625.6499v.1625c.0813.1625.1626.1625.2438.2437zm1.2185-2.8431 1.4622 1.2997h-.2437c-.2437 0-.5686-.0812-.8936-.0812-.0813-.4062-.2437-.8124-.3249-1.2185zm.8123 2.6806-.3249-1.056 1.2185.1625zm-1.2184-2.5182c.0812.4062.2437.8123.4062 1.1372-.3249.2437-.5686.4874-.8936.7311zm.4873 1.5434.3249 1.056-1.2185-.3249z"/><path d="m4.07 3.131c-.0812 0-.1082.0064-.1625.0812l-.4874.4874c-.2437.3249-.4874.5686-.8123.8936-.4874-.0812-.8936-.2437-1.381-.3249l-.3249-.0812c-.0812 0-.0812 0-.1625 0-.0812 0-.1625 0-.1625.0812-.0812 0-.0812.0812-.0812.1625s.0812.1625.0812.1625c.8123.5686 1.5434 1.1372 2.2745 1.7059 0 0 .0812.0812.1625.0812h.0812c.0812 0 .1721-.0621.1721-.1434.2437-.6499.4938-1.3029.6562-1.9528l.1561-.5511c0-.0812.051-.1481.051-.2294 0-.0812.0255-.1911.0255-.1911.0814-.1625-.0047-.1816-.086-.1816zm-.8935 2.3557-.1625-.6499c.2437-.2437.4062-.4874.6499-.7311zm-.5686-.4874c.0812.2437.1625.4062.1625.6499l-1.1373-.8936c.325.0813.6499.1625.9748.2437z"/><circle cx="5.956016" cy="2.41677" r="1" transform="matrix(.97133644 -.23770891 .23770891 .97133644 -.457343 1.55334)"/><circle cx="1.255803" cy="8.096321" r="1" transform="matrix(.97133644 -.23770891 .23770891 .97133644 -1.942148 .598854)"/></g><path d="m4.7648 7.4615c-.0812-.0812-.1625 0-.2437.0812l-.1625.2437-.2437-.1625c-.0812-.0812-.1625 0-.2437.0812s0 .1625.0812.2437l.2437.1625-.1625.2437c-.0812.0812 0 .1625.0812.2437h.0812s.0812 0 .0812-.0812l.1625-.2437.2437.1625h.0812s.0812 0 .0812-.0812c.0812-.0812 0-.1625-.0812-.2437l-.2437-.1625.1625-.2437c.1626-.0812.1626-.2437.0814-.2437z"/><path d="m11.1008.7192.1625-.2437c.0812-.0812 0-.1625-.0812-.2437s-.1625 0-.2437.0812l-.1625.2437-.2437-.1625c-.0812-.0812-.1625 0-.2437.0812s0 .1625.0812.2437l.2437.1625-.1625.2437c-.0812.0812 0 .1625.0812.2437h.1625s.0812 0 .0812-.0812l.1625-.2437.2437.1625h.1625s.0812 0 .0812-.0812c.0812-.0812 0-.1625-.0812-.2437z"/><path d="m10.2074 6.4867c-.0812.0812 0 .1625.0812.2437l.2437.1625-.1625.2437c-.0812.0812 0 .1625.0812.2437h.1625s.0812 0 .0812-.0812l.1625-.2437.2437.1625h.1625s.0812 0 .0812-.0812c.0812-.0812 0-.1625-.0812-.2437l-.2437-.1625.1625-.2437c.0812-.0812 0-.1625-.0812-.2437s-.1625 0-.2437.0812l-.1625.2437-.2437-.1625c-.0813 0-.1626 0-.2437.0812z"/><circle cx="8.92635" cy=".904262" r="1" transform="matrix(.97133644 -.23770891 .23770891 .97133644 -.012667 2.216061)"/><circle cx="4.144088" cy="5.127041" r="1" transform="matrix(.97133644 -.23770891 .23770891 .97133644 -1.153535 1.200315)"/><path d="m21.5798 36.9488c-.0812 0-.1625-.0812-.1625-.0812l-.1625-.8936c0-.0812 0-.1625.0812-.1625s.1625 0 .1625.0812l.1625.8936c.0813 0 .0813.0812-.0812.1625z"/></g><path d="m34.3472 55.7946h-16.4089c-.7311 0-.7311.4874 0 .4874h16.4089c.8124 0 .8124-.4874 0-.4874z"/><path d="m33.9561 19.7186-12.5505 4.0504c-.3885.1254.0611 1.4504.4483 1.3255l12.5504-4.0504c.3887-.1254-.0611-1.4504-.4482-1.3255z"/><path d="m16.3992 25.6878-7.2327 2.3342c-.2239.0723.2139 1.3895.437 1.3175l7.2327-2.3342c.2239-.0723-.2139-1.3895-.437-1.3175z"/><path d="m17.603 32.3601-5.8624 1.892c-.1815.0586.2542 1.3765.435 1.3181l5.8624-1.892c.1815-.0586-.2542-1.3765-.435-1.3181z"/><path d="m36.19 26.9957-12.5505 4.0504c-.3885.1254.0611 1.4504.4483 1.3255l12.5504-4.0504c.3886-.1254-.0611-1.4504-.4482-1.3255z"/><g transform="translate(0 39)"><path d="m6.6926 10.2752c-.1016.1087-.2307.1898-.3773.2348-.2207.0678-.454.0457-.6568-.0618l-4.4136-2.3417c-.2029-.1078-.3517-.2886-.4194-.509-.0676-.2206-.0455-.4538.0619-.6566l1.2856-2.4231c.1081-.2029.2882-.3516.5091-.4196.2206-.0676.4538-.0455.6566.0619l4.4135 2.3416c.2029.1078.3516.2886.4194.509.0678.2207.0457.454-.0618.6568l-1.2856 2.4231c-.0362.068-.0804.1298-.1316.1846zm-4.0448-5.6204c-.0232.0248-.0432.0526-.0594.0834l-1.2856 2.4231c-.1014.1909-.0284.4284.1623.5296l4.4136 2.3417c.0918.0487.1978.0587.2982.0278.1003-.031.1833-.098.2315-.1903l1.2856-2.4231c.0487-.0918.0587-.1978.0278-.2982-.0309-.1005-.0985-.1828-.1903-.2315l-4.4135-2.3416c-.092-.0489-.1978-.0587-.2984-.028-.0668.0207-.1255.0576-.1718.1071z"/><path d="m5.8687 1.3078c-.2298-.0245-.454.0414-.6332.1853l-2.1356 1.7215c-.1786.1442-.2907.3499-.3154.5793-.0192.1803.0191.3569.1057.5116.2032-.0306.4061-.0207.603.0211l-.1572-.195c-.1355-.1681-.1091-.4151.0592-.5507l2.1356-1.7215c.027-.0219.0563-.0396.0874-.0533.062-.0273.1305-.0382.2002-.0307.1046.0114.198.0621.2633.1432l3.1355 3.8898c.0652.0809.095.1832.0838.2878-.0112.1045-.0621.198-.143.2632l-1.3095 1.0556c-.0438.3382-.1936.6802-.4871.9969l2.0919-1.6862c.1786-.1442.2908-.3499.3153-.5795.0245-.2293-.0412-.4541-.1852-.633l-3.1355-3.8898c-.1442-.1788-.3499-.2909-.5792-.3156z"/><path d="m9.8969.7036c-.1892-.1328-.4171-.1838-.6437-.1448l-2.7023.4709c-.2261.0395-.4239.1651-.5566.3538-.0849.1209-.1325.2587-.1483.4012.22.1696.4079.3791.5466.6178l-.0795-.4564c-.0371-.2127.1057-.416.3187-.453l2.7023-.4709c.0342-.0061.0684-.0074.1023-.0042.0675.0061.1326.0298.19.0701.086.0606.1431.1502.1609.2528l.8577 4.922c.0179.1024-.0056.2063-.0661.2923-.0604.086-.1502.1431-.2526.1609l-1.7978.3133c-.0737.1825-.182.3621-.3323.5354l2.2109-.3853c.2261-.0395.4239-.1651.5566-.3541.1325-.1887.184-.4171.1447-.6434l-.8577-4.922c-.0395-.2259-.1651-.4236-.3538-.5564z"/><path d="m13.3282 1.0475-2.66-.6698c-.2226-.0559-.4544-.0217-.6524.0967-.1548.0927-.2726.2287-.3441.3898.14.1722.2499.3651.3264.5707l.0798-.3169c.0527-.2094.2659-.3369.4755-.2841l2.66.6698c.0337.0084.0655.0211.0952.0377.0591.0331.109.0812.145.1414.0538.0904.0695.1955.044.2965l-1.22 4.8449c-.0254.1008-.0892.1861-.1794.2401s-.1955.0695-.2962.0442l-1.2948-.326c-.0548.0778-.1064.1561-.1768.2314-.0595.0637-.123.1099-.1851.1626l1.5418.3882c.2226.0559.4544.0217.6526-.0969.1978-.1185.3379-.3061.3941-.5288l1.22-4.8449c.0559-.2226.0217-.4544-.0966-.6525-.1187-.1982-.3062-.3376-.529-.3941z"/></g><path d="m26.567202 21.940764h1.87849v9.151551h-1.87849z" transform="matrix(.98690528 .16130086 -.16130086 .98690528 4.63733 -4.089587)"/><path d="m29.423851 21.77321h1v8.425555h-1z" transform="matrix(.98690528 .16130086 -.16130086 .98690528 4.583407 -4.486463)"/><path d="m11.987204 27.632012h1.446992v7.049262h-1.446992z" transform="matrix(.98690528 .16130086 -.16130086 .98690528 5.192036 -1.642259)"/><path d="m14.186178 27.521554h1v6.490065h-1z" transform="matrix(.98690528 .16130086 -.16130086 .98690528 5.154988 -1.966013)"/></g><path d="m46.949 92.5925c-25.3643 0-46-20.6353-46-45.9995s20.6357-46 46-46 46 20.6357 46 46-20.6358 45.9995-46 45.9995zm0-89.9995c-24.2617 0-44 19.7383-44 44 0 24.2612 19.7383 43.9995 44 43.9995s44-19.7383 44-43.9995c0-24.2617-19.7383-44-44-44z"/><g transform="translate(7 4)"><path d="m5.6226 33.4903c-.1338.5293-.2334.9258-.3003 1.1914-.4692-.1191-.8223-.208-1.0566-.2676-.4746-.1182-.8296-.209-1.0645-.2666-.4692-.1191-.8223-.208-1.0571-.2676-.2344-.0586-.4409-.1113-.6177-.1553-.1821-.0469-.3315-.084-.4463-.1123-.4697-.1191-.8218-.208-1.0571-.2666.1333-.5293.2339-.9258.2998-1.1914.2686-1.0625.4692-1.8594.6025-2.3887.4697.1182.8223.208 1.0571.2666-.3003 1.1934-.5015 1.9902-.6021 2.3887.5322.1348.8867.2236 1.064.2686.2261-.8965.377-1.4951.4531-1.7979.5274.1328.8799.2217 1.0571.2666-.2256.8965-.377 1.4961-.4531 1.7979.5317.1338.8867.2236 1.064.2686.4698.1182.8224.207 1.0572.2656z"/><path d="m1.4278 28.1593c.0728-.1934.2153-.5771.4302-1.1504.6387.2383 1.919.7168 3.8408 1.4355.2129.0801.6387.2383 1.2778.4775-.0698.1875-.2139.5703-.4297 1.1504-.4258-.1592-1.0654-.3994-1.9165-.7168-.852-.3183-1.9194-.7167-3.2026-1.1962z"/><path d="m4.5591 22.34c.9805.4932 2.4473 1.2295 4.3994 2.2119-.123.2432-.3066.6084-.5518 1.0957-.8701-.4365-2.1733-1.0928-3.9087-1.9639-.1226.2441-.3081.6113-.5552 1.1035.8696.4385 2.1724 1.0918 3.9087 1.9658-.1226.2432-.3062.6084-.5518 1.0957-.543-.2725-1.2207-.6133-2.0332-1.0215-.813-.4082-1.7622-.8857-2.8491-1.4326.1226-.2432.3062-.6094.5518-1.0957.1846-.3682.4624-.9209.832-1.6572.0757-.1494.1865-.2549.334-.3184.15-.0556.2911-.0507.4239.0167z"/><path d="m11.5123 20.5812c-.1558.2246-.3877.5605-.6978 1.0107-.3984-.2754-.999-.6904-1.8003-1.2441-.1548.2246-.3887.5645-.7026 1.0176.3994.2754.999.6895 1.8003 1.2432-.1553.2246-.3877.5605-.6978 1.0098-.3374-.2324-.8457-.584-1.5249-1.0527-.2808-.1943-.6304-.4355-1.0498-.7256-.4233-.292-.9155-.6318-1.4766-1.0195-.1221-.084-.1929-.208-.2124-.3711-.0195-.1543.0205-.3027.1177-.4453.3105-.4482.7773-1.125 1.4004-2.0264.0957-.1377.2202-.2275.3755-.2695.1558-.0342.2944-.0088.417.0752.9028.6238 2.2534 1.5565 4.0513 2.7977zm-3.3946-.8526c-.0371-.0254-.0898-.0615-.1592-.1104-.1665-.1143-.4146-.2852-.7441-.5137-.1553.2236-.3892.5645-.7017 1.0186.1987.1367.5.3447.9023.6221.1583-.2285.3922-.5674.7027-1.0166z"/><path d="m13.7891 16.2403c.4019.3672.6704.6113.8057.7344-.8296.9102-1.3833 1.5166-1.6611 1.8203-.3071.3379-.5142.5635-.6191.6787s-.1748.1914-.2085.2285c-1.0117-.9229-1.8525-1.6904-2.5244-2.3037-.6724-.6133-1.1763-1.0742-1.5122-1.3809.4165-.4561.6924-.7578.8281-.9053 1.6133 1.4717 2.6909 2.4551 3.231 2.9482.7391-.8114 1.2928-1.4168 1.6605-1.8202z"/><path d="m17.087 9.1485c-.4937.3633-.8228.6055-.9888.7285 1.2974 1.7627 2.1616 2.9375 2.5923 3.5234-.4976.3662-.8301.6104-.9956.7324-1.2949-1.7598-2.1587-2.9346-2.5918-3.5244-.4937.3633-.8232.6055-.9893.7285-.1616-.2197-.2969-.4033-.4048-.5498-.1079-.1475-.1885-.2568-.2412-.3291 1.4888-1.0947 2.48-1.8242 2.9736-2.1865.2867.3897.5025.6817.6456.877z"/><path d="m23.73 10.1778c-.2363.1348-.5923.3369-1.0669.6064-.2397-.4209-.5996-1.0547-1.0801-1.9014-.2378.1348-.5962.3379-1.0752.6104.2393.4209.5991 1.0557 1.0801 1.9014-.2363.1357-.5923.3379-1.0669.6074-.2026-.3574-.5083-.8945-.916-1.6123-.1685-.2969-.3779-.666-.6294-1.1084-.2544-.4473-.5493-.9678-.8867-1.5605-.0732-.1289-.0835-.2715-.0308-.4268.0508-.1475.1509-.2637.3008-.3496.4741-.2695 1.1885-.6748 2.1426-1.2168.1445-.082.2964-.1084.4546-.0791.1553.0371.2695.1191.3428.249.542.9542 1.353 2.3809 2.4311 4.2803zm-2.686-2.2431c-.022-.0381-.0532-.0947-.0952-.168-.0996-.1758-.2485-.4375-.4463-.7861-.2378.1348-.5957.3389-1.0747.6113.1191.209.2998.5283.542.9541.2422-.1387.6001-.3408 1.0742-.6113z"/><path d="m26.4595 5.964c.1548-.0625.3096-.0654.4639-.0117.1475.0537.249.1514.3066.292.1367.3398.3408.8457.6133 1.5195.0566.1436.0508.2832-.0186.4238-.0732.1465-.1865.251-.3418.3135-.3828.1543-.9551.3857-1.7197.6943-.2529.1006-.6323.2549-1.1387.458-.0898-.2236-.2256-.5605-.4072-1.0098-.0928-.2285-.2295-.5693-.4111-1.0186-.0898-.2236-.2261-.5605-.4077-1.0107-.0459-.1143-.103-.2559-.1714-.4258-.0688-.1699-.1484-.3662-.2383-.5918-.0913-.2246-.2275-.5615-.4077-1.0098.2524-.1025.6323-.2549 1.1382-.46.3818-.1533.9546-.3857 1.7197-.6934.1543-.0635.3081-.0693.4604-.0186.1494.0576.251.1543.3071.292.1367.3398.3418.8486.6162 1.5273.0547.1367.0488.2773-.0186.4229-.0755.1418-.1898.2444-.3446.3069zm-1.9218.1914c.2578-.1045.6396-.2578 1.146-.4629-.0166-.041-.0405-.0996-.0723-.1787-.0752-.1875-.188-.4668-.3384-.8379-.2529.1016-.6348.2549-1.1465.4609.0913.2266.2276.5645.4112 1.0186zm.8183 2.0283c.2578-.1035.6401-.2568 1.1465-.4619-.0171-.041-.0405-.1006-.0728-.1787-.0757-.1885-.189-.4678-.3384-.8398-.2529.1025-.6348.2568-1.146.4629.0904.2245.2276.5644.4107 1.0175z"/><path d="m32.3404 5.9083c.1318.5273.2207.8799.2656 1.0576-1.1943.2998-1.9902.499-2.3896.5996-.4434.1113-.7402.1855-.8916.2236-.1514.0371-.251.0625-.2998.0742-.333-1.3281-.6104-2.4326-.8311-3.3145-.2217-.8828-.3877-1.5439-.499-1.9854.5996-.1504.9971-.25 1.1914-.2979.5313 2.1191.8867 3.5332 1.0645 4.2422 1.0634-.2674 1.8603-.4666 2.3896-.5994z"/><path d="m34.3795 2.2169c.0508.4824.0889.8467.1143 1.0928.8193-.0859 1.4346-.1494 1.8438-.1924.0508.4805.0889.8428.1133 1.084-.8193.085-1.4346.1494-1.8438.1914.0498.4824.0879.8457.1143 1.0928 1.0898-.1152 1.9072-.1992 2.4502-.2568.0498.4824.0879.8438.1133 1.084-1.0859.1143-1.9023.1992-2.4502.2559-.543.0576-.9502.0996-1.2217.1289-.0244-.2412-.0469-.4531-.0664-.6357-.0186-.1807-.0342-.332-.0469-.4502-.0566-.5449-.0947-.9092-.1143-1.0898-.0566-.5469-.0947-.9082-.1123-1.085-.0566-.5459-.0957-.9102-.1143-1.0908-.0566-.542-.0938-.9023-.1133-1.085.6143-.0645 1.0215-.1064 1.2217-.127 1.2285-.1289 2.0459-.2139 2.4502-.2559.0566.541.0938.9023.1123 1.084-1.085.1132-1.9014.1982-2.4502.2548z"/></g><g transform="translate(38 52)"><path d="m48.5416 2.5157c-.3887-.083-.6836-.1465-.8818-.1885-.165.7676-.2891 1.3428-.3701 1.7266-.3896-.083-.6826-.1465-.877-.1885.1641-.7676.2881-1.3428.3701-1.7266-.3896-.084-.6836-.1465-.8818-.1885-.2188 1.0205-.3828 1.7861-.4922 2.2939-.3896-.084-.6816-.1455-.876-.1885.2178-1.0166.3818-1.7813.4922-2.2939.1094-.5078.1914-.8896.2451-1.1436.3896.084.6816.1465.877.1895.1973.041.3711.0781.5176.1094.1475.0322.2676.0586.3643.0781.4404.0957.7324.1582.876.1885.4404.0947.7344.1572.8818.1895.4365.0938.7285.1563.876.1875-.123.5752-.2051.9561-.2451 1.1436-.2461 1.1514-.4111 1.915-.4922 2.2939-.4375-.0938-.7285-.1563-.876-.1885.2177-1.0155.3817-1.7802.4921-2.2939z"/><path d="m46.5777 9.1564c.1797-.4873.3145-.8525.4033-1.0967-1.6885-.623-2.8135-1.0371-3.374-1.2432.2041-.5518.3398-.9209.4072-1.1055 1.6855.6221 2.8105 1.0361 3.375 1.2441.2002-.5479.3359-.9131.4033-1.0977.2109.0771.3857.1426.5264.1943s.2461.0908.3145.1162c-.6084 1.6514-1.0137 2.751-1.2158 3.2988-.3731-.1375-.6534-.24-.8399-.3103z"/><path d="m45.2076 14.0831c-.707-.3682-1.2383-.6445-1.5947-.8311-.3535-.1836-.6182-.3213-.7949-.4131-.71-.3691-1.2412-.6455-1.5947-.8301.2393-.4619.4199-.8066.54-1.0371.71.3701 1.2412.6465 1.5947.8291.2393-.4609.4209-.8076.5439-1.0439-.7109-.3682-1.2422-.6455-1.5947-.8291.2393-.4609.4189-.8076.5391-1.0381.3535.1846.6631.3457.9297.4844s.4883.2549.665.3457c.3994.209.665.3467.7949.4141.8008.417 1.3311.6934 1.5947.8301-.2715.5225-.4512.8682-.5391 1.0371-.7979-.4141-1.3291-.6914-1.5957-.8291-.2715.5225-.4521.8691-.543 1.0439.7998.416 1.3311.6934 1.5957.8291-.2411.461-.4208.8067-.5409 1.0381z"/><path d="m42.1187 18.1251c-.6641-.4492-1.6563-1.1211-2.9795-2.0156-.1035-.0693-.1602-.1758-.1689-.3154-.0088-.1465.0313-.2861.1211-.418.2188-.3252.5488-.8125.9883-1.4629.0713-.1045.1807-.2646.3262-.4805.0742-.1094.1836-.2725.3301-.4873.4141.2793.9297.6289 1.5488 1.0479s1.3438.9082 2.1719 1.4688c-.1279.1895-.3193.4717-.5742.8496-.0186.0264-.0459.0664-.0811.1182-.2197.3252-.5498.8135-.9893 1.4629-.0889.1328-.2012.2227-.3379.2715-.1367.0419-.2559.0282-.3555-.0392zm-1.2969-3.709c-.1474.2197-.3672.5439-.6582.9746.0322.0225.0811.0557.1455.0986.4648.3135 1.1621.7861 2.0908 1.4141.1455-.2158.3652-.5391.6592-.9756-.25-.168-.6211-.4199-1.1152-.7539-.25-.1699-.623-.4209-1.1221-.7578z"/><path d="m40.2613 19.8214c-.3047-.2578-.5342-.4521-.6885-.583-.5068.5996-.8877 1.0488-1.1406 1.3486-.3047-.2568-.5322-.4502-.6855-.5791.5078-.5986.8887-1.0479 1.1416-1.3477-.3037-.2578-.5342-.4512-.6895-.582-.6738.7969-1.1787 1.3945-1.5156 1.791-.3037-.2578-.5303-.4502-.6836-.5781.6709-.7939 1.1768-1.3916 1.5156-1.792.335-.3965.5869-.6943.7549-.8926.3037.2568.5313.4492.6846.5781.1543.1309.2891.2451.4043.3428.1143.0967.209.1768.2842.2393.3438.292.5723.4844.6846.5791.3438.291.5732.4854.6895.583.3408.2881.5684.4814.6826.5771-.3799.4502-.6309.748-.7549.8936-.7607.8984-1.2646 1.4961-1.5156 1.792-.3408-.2891-.5684-.4814-.6826-.5781.6698-.7949 1.1756-1.3926 1.5145-1.792z"/><path d="m35.5836 25.4532c-.624-.6523-1.5566-1.627-2.7979-2.9238.1875-.1807.4697-.4502.8447-.8086.5537.5781 1.3818 1.4443 2.4863 2.5986.1885-.1797.4717-.4502.8506-.8135-.5537-.5791-1.3828-1.4443-2.4863-2.5996.1875-.1797.4688-.4492.8447-.8076.3457.3613.7764.8115 1.2939 1.3516.5166.54 1.1211 1.1729 1.8115 1.8936-.1875.1797-.4688.4502-.8447.8096-.2832.2705-.709.6768-1.2754 1.2207-.1152.1094-.2441.1738-.3867.1924-.1435.0126-.2568-.0245-.3407-.1134z"/><path d="m34.8697 26.7706c-.1738.1318-.5225.3955-1.0459.7939-.4453-.3428-1.335-1.0293-2.6699-2.0625.208.5195.6279 1.5625 1.2607 3.1279-.1729.1309-.5215.3945-1.0459.793-.2402-.7568-.7168-2.2744-1.4307-4.5518.1553-.1191.4688-.3564.9375-.7119.8868.5831 2.2188 1.4542 3.9942 2.6114z"/><path d="m28.7681 30.0558c-.2012-.3447-.3525-.6045-.4561-.7803-.6768.3965-1.1846.6943-1.5234.8916-.2012-.3438-.3525-.6016-.4531-.7734.6777-.3965 1.1865-.6934 1.5244-.8916-.2002-.3438-.3535-.6025-.4551-.7783-.9014.5273-1.5771.9219-2.0254 1.1846-.2002-.3438-.3516-.6016-.4531-.7734.8975-.5244 1.5732-.9199 2.0254-1.1846.4492-.2627.7861-.459 1.0098-.5908.2021.3438.3516.6025.4531.7744.1016.1748.1914.3271.2676.457.0752.1299.1387.2373.1875.3213.2275.3887.3789.6465.4521.7734.2275.3896.3799.6484.4551.7783.2266.3857.3779.6445.4531.7734-.5078.2979-.8447.4951-1.0088.5908-1.0166.5947-1.6924.9883-2.0264 1.1846-.2256-.3857-.376-.6436-.4521-.7734.8965-.5244 1.5723-.92 2.0254-1.1836z"/><path d="m22.2242 31.9064c-.1455.0645-.29.0781-.4326.042-.1357-.0342-.2295-.1084-.2793-.2246-.1592-.3652-.3965-.916-.7158-1.6504.2393-.1035.5977-.2588 1.0732-.4648.1582.3652.3975.916.7148 1.6504.2383-.1035.5986-.2598 1.0801-.4678-.1572-.3662-.3955-.916-.7139-1.6514.2383-.1025.5957-.2578 1.0723-.4639.1582.3652.3965.915.7148 1.6504.0791.1816.1973.4561.3564.8213.0791.1826.1787.4121.2979.6885s.2588.5957.416.9609c-.2373.1035-.5957.2588-1.0723.4668-.3594.1543-.9004.3887-1.6201.7012-.1465.0635-.2891.0791-.4297.0469-.1387-.0381-.2305-.1123-.2803-.2246-.1182-.2754-.2988-.6895-.5371-1.2422-.0498-.1113-.04-.2295.0273-.3564.0734-.1251.1828-.2179.3283-.2823zm.7178.1748c.0137.0332.0352.082.0625.1445.0664.1533.165.3809.2959.6826.2383-.1025.5977-.2598 1.0801-.4678-.0791-.1826-.2002-.459-.3584-.8281-.2442.1055-.6036.2627-1.0801.4688z"/><path d="m16.3824 33.3312c-.0381-.1963-.0938-.4912-.1689-.8867-.5146.0986-1.2842.2451-2.3057.4385-.0361-.1953-.0928-.4893-.166-.8799.7656-.1465 1.917-.3652 3.4531-.6572.0186.1006.0469.2471.084.4434.0186.0957.0469.2402.083.4375.0283.1465.0635.3311.1055.5508.042.2236.0908.4824.1484.7783.0225.1201-.0156.2334-.1133.3438-.0938.1045-.2207.1719-.3818.2031-.3809.0723-.9561.1826-1.7266.3281.0371.2002.0928.4951.168.8867.2559-.0479.6406-.1211 1.1563-.2197-.0137-.0762-.0352-.1855-.0625-.3301.2559-.0479.6377-.1211 1.1484-.2188.0332.1729.0811.4287.1475.7725.0225.1201-.0146.2344-.1123.3447-.0938.1055-.2217.1729-.3828.2031-.5107.0967-1.2783.2432-2.3047.4385-.1563.0293-.2998.0137-.4307-.0488-.126-.0674-.2002-.1602-.2227-.2793-.0762-.3955-.1875-.9844-.3369-1.7676-.0234-.123.0107-.2393.1035-.3477.0986-.1064.2266-.1729.3818-.2031.3858-.0733.9639-.1837 1.7354-.3301z"/><path d="m9.3882 36.3487c-.0215-.8008-.0527-1.998-.0957-3.5947-.002-.126.0498-.2324.1592-.3223.1143-.0918.251-.1396.4092-.1445.5254-.0137 1.3066-.0342 2.3467-.0615.1641-.0049.3037.0371.416.123.1201.082.1807.1865.1836.3125.0078.2998.0195.751.0371 1.3525.0059.248.0137.5566.0234.9268.0107.377.0215.8154.0352 1.3154.0029.1221-.0518.2295-.167.3213-.1094.0879-.2461.1348-.4102.1396-.5195.0137-1.3008.0342-2.3447.0625-.1602.0039-.2988-.0352-.417-.1172-.1142-.0868-.1728-.1913-.1758-.3134zm2.2618-3.2119c-.2646.0068-.6563.0166-1.1758.0303 0 .042.002.1006.0039.1777.0146.5596.0371 1.4014.0664 2.5225.2607-.0068.6523-.0176 1.1777-.0313-.0078-.2998-.0205-.749-.0361-1.3467-.0078-.3007-.0195-.7519-.0361-1.3525z"/><path d="m6.0347 36.0773c.1133-.8945.2832-2.2344.5098-4.0156.2568.0322.6436.082 1.1602.1475-.1016.7939-.252 1.9834-.4531 3.5684.1318.0166.3262.041.584.0732-.0127.0967-.0283.2197-.0469.3691-.0195.1494-.041.3223-.0664.5205-.2568-.0332-.6436-.083-1.1602-.1475-.1621-.0205-.2969-.0811-.4014-.1797-.0986-.1025-.1406-.2158-.126-.3359z"/><path d="m4.0181 32.9718c.0283-.0928.0732-.2354.1338-.4307-.2529-.0781-.6279-.1943-1.125-.3486-.0596.1943-.1484.4805-.2666.8613.374.1162.9336.29 1.6777.5215.1563.0488.2764.1309.3574.2451.085.1201.1084.2402.0713.3604-.0596.1904-.1328.4297-.2227.7158-.0889.2871-.1934.6211-.3115 1.001-.0361.1172-.123.2002-.2607.251-.1318.0488-.2754.0488-.4336 0-.4961-.1543-1.2422-.3867-2.2402-.6973-.1514-.0469-.2705-.1279-.3574-.2441-.0801-.1191-.1006-.2354-.0654-.3516.2383-.7646.5938-1.9102 1.0684-3.4355.0361-.1201.1221-.2041.2539-.2529.1377-.0508.2822-.0527.4346-.0049.501.1553 1.248.3877 2.2402.6963.1572.0479.2744.1318.3545.251.0869.1152.1113.2344.0732.3545-.0586.1904-.1475.4756-.2656.8555-.2481-.0773-.6202-.1935-1.1163-.3478zm-1.5244.9375c-.0107.0352-.0264.0859-.0459.1514-.0498.1592-.125.3965-.2207.71.2471.0771.6221.1934 1.124.3496.0576-.1904.1484-.4766.2666-.8613-.2529-.0782-.6279-.1954-1.124-.3497z"/></g></g></svg>