<svg enable-background="new 0 0 110.7 128" viewBox="0 0 110.7 128" xmlns="http://www.w3.org/2000/svg" xmlns:xlink="http://www.w3.org/1999/xlink"><clipPath id="a"><path d="m51.4092 55.175h2.5501v7.78h-2.5501z"/></clipPath><clipPath id="b"><path d="m52.2897 52.4305h2.1672v1.0059h-2.1672z"/></clipPath><clipPath id="c"><path d="m42.6936 60.7041h.5987v.7522h-.5987z"/></clipPath><clipPath id="d"><path d="m47.8581 54.3584h5.3189v5.5202h-5.3189z"/></clipPath><clipPath id="e"><path d="m53.7437 53.53h.4314v.3035h-.4314z"/></clipPath><clipPath id="f"><path d="m46.2798 53.1651h1.5316v1.003h-1.5316z"/></clipPath><clipPath id="g"><path d="m38.159 54.337h.9738v.5034h-.9738z"/></clipPath><clipPath id="h"><path d="m41.644 60.6446h.6823v.9221h-.6823z"/></clipPath><clipPath id="i"><path d="m40.8452 60.5743h.7639v.5493h-.7639z"/></clipPath><clipPath id="j"><path d="m38.2406 49.1532h.5463v1.2566h-.5463z"/></clipPath><clipPath id="k"><path d="m40.5701 48.2205h.3178v1.0517h-.3178z"/></clipPath><clipPath id="l"><path d="m36.8431 50.4099h.6317v1.1766h-.6317z"/></clipPath><clipPath id="m"><path d="m39.5332 51.1465h.8814v5.3955h-.8814z"/></clipPath><path d="m75.76 63.6448c-.2731 3.8451-3.5988 6.733-7.4249 6.4618-3.832-.2741-6.7097-3.6119-6.4356-7.458.2711-3.8412 3.5949-6.7291 7.4269-6.4589 3.8251.2761 6.7057 3.6139 6.4336 7.4551" fill="#fff" opacity=".4"/><path d="m110.8186 96.4116-55.5774 31.7278-55.0166-32.2117-.1234-63.9405 55.6969-31.7287 55.0205 32.2127z" fill="#f495a8"/><path d="m101.6026 37.3407-.0292 6.5214-.0691 16.4243-.0408 8.4406-.0204 5.8062-.0107 3.0177-.0098 1.0791v.4889l-.0486 11.3099-.0146.0097-.6793.3903-.7464.4097-4.1372 2.3777-.1982.1093-1.1147.6488-.8086.4595-1.4005.8001-.7201.4098-.5977.3395-.2381.1298-.1302.0508-.1089.0692-2.1362 1.2187-.6434.3698-.238.1405-.1701.1034-.0098.0098-.3382.1892-.3022.1698-.657.3698-.3887.2205-.0389.0293-.7201.4068v.0127l-.518.2897-.4481.2498-.0214.0205h-.0039l-1.2236.7094-.31.1834-.2372.1405-.6279.3689-1.2653.7209-.1186.0683-.0797.0508-.4081.2293-.0273.0117-.1583.0907v.0098l-.7727.4498-.1827.0907-.0214.0215-.0408.0205-.8932.521-.1059.0498-.0895.0508-.07.04-.1302.079-.0487.0303-.3051.1638-.0214.0108-.0894.0508-.1594.0887h-.0097l-.0195.0137-.6861.4058-1.0049.5767-.4471.2498v.0107l-1.413.8021-.1089.0673-.4286.24-1.0544.6195-.1497.079-.6278.3493-.0583.0313-1.2246.7092-1.7416.9991-.5267.3093-.5082.2897-.3081.1825-.8504.4781-.308.1834-.0408.0273-1.0088.5698-1.0146.5786-.0098.0098-.2993.1697-.1283.08-.2294.1298-1.0146.5795-.9952.5699-1.036.5903-.2488.1395-.208.1191-1.0097.5913-.9651.5385-.5598.32h-.0106l-.3179.1883-.4771.2772-1.4132-.8293-.757-.4469-.0797-.04-.0292-.0127-.239-.1396-1.4928-.8791-.1886-.1102-.5384-.3171-2.2673-1.3289-.3489-.199-.1593-.0907-.0409-.04-.2769-.1581-.1195-.0712-.9554-.5484-.6948-.4107-.1011-.0604-2.4879-1.4587-.0116-.0127-.9252-.5366-.3877-.24-.1992-.1093-.0098-.0098h-.0097l-.2693-.1591-.1195-.0702-.8066-.4781-.6862-.3902-.8863-.5132-.1691-.1063-.3791-.2225-1.0146-.5991-1.693-.9903-.6453-.3786-.0399-.0303-.2284-.1307-.3771-.2186-.2001-.12-.2877-.1697-.1895-.1103-.139-.0907-.0097-.0088-.07-.04-1.7621-1.0196-.0204-.0137-.5462-.3161-.7872-.4596-.1283-.08-.0311-.0214-.4567-.2596-.2897-.1805-.7464-.4381-1.7512-1.0293-2.0701-1.2099-.8153-.4683-.0905-.0518-.1185-.0692-.3091-.1805-.07-.039-.0097-.0108-.208-.12h-.0107l-.0106-.0127-1.0166-.5991c-.0097-.0107-.0097-.0107-.0194-.0107l-.0506-.0303-.6764-.399-1.1235-.6567-1.0166-.5922-2.0914-1.2362-.2877-.1698s-.0098 0-.0204-.0126l-.2789-.1572-.0388-.0215-.0107-.0097-.2284-.1308-.4684-.278h-.0097l-2.5171-1.4791-3.2547-1.8948-.2187-.1307-.0797-.0391-.0301-.0215.1001-22.8365.0563-11.3353.0106-1.6957.0691-17.2234.9261-.5396 3.6727-2.0996 9.703-5.5643 1.9787-1.1483.101-.0604.7561-.4391.7162-.3892.6968-.4 2.6474-1.5191 1.5821-.9084.1691-.0907 1.5123-.8596.1098-.0594.0302-.0215.756-.4371.0195-.0127.3897-.2205.2186-.1298.2196-.1288 1.0953-.641.518-.3024 1.2925-.7279.9855-.5629.6871-.4069 1.3927-.7893h.0098l.0506-.0293.0602-.0391 1.8707-1.0623.5277-.3103 1.8513-1.0605c0-.0117.0098-.0117.0098-.0117l.2294-.1298.2974-.1707.8669-.4995.1876-.0995.2692-.1601.1108-.0633.0098-.0098 5.9303-3.4178 1.4441-.8186 1.0438.6195 5.5842 3.2763h.0097l.8116.4781.0408.0215.1468.0907.5092.2995 1.9243 1.1191 1.0554.6195 3.8214 2.2372 6.0702 3.5466.8961.5298 1.035.6058.8757.4995.6171.3698.0894.0498.2187.1327.4781.2713.865.4995.9155.5601h.0214l.5724.3288 1.3537.803.2274.1298.5657.3297.0904.0605 1.3343.7796.2177.1288h.0136l.0894.0604.1458.08.4607.2712 1.1749.6869 2.1196 1.2391.0399.0303v.0098l.2614.1395.4762.2897.1691.1044 1.453.8488.7201.4088 1.2051.7104.7717.4488.4354.2498.1322.0809 1.8019 1.0479 2.591 1.52z" fill="#f4e0d3"/><path d="m9.9111 73.1839h91.6283v1.3737h-91.6283z" fill="#adadad"/><path d="m9.9276 66.2996h91.6293v6.8687h-91.6293z" fill="#d1d1d1"/><path d="m101.5872 37.3336v28.7237h-91.5563v-29.1033l.2488-.1306 1.8902-1.0792.1691-.1102 7.4347-4.2461h.0097l3.5531-2.0577 1.4228-.8088.2886-.1591.347-.2107 4.2606-2.4275 1.1448-.6595.1789-.0996 1.692-.9795 1.8309-1.0391 4.1295-2.368 2.3577-1.3483.449-.2703.2584-.1492.2994-.1698.138-.0702.1603-.0898.2984-.1698.3071-.1697.2896-.1699.2877-.1707.07-.04 4.0516-2.3171.4976-.2908 1.2936-.7386.0699-.0391.6162-.3502 3.4034-1.9484.9563-.5494h3.005l3.2644 1.9183.9457.5493.9252.5395.7862.4498 2.1099 1.239.9553.5591.4772.2693 1.4636.8596 1.2731.7493.2877.1795.7173.4001.1593.0995.7056.4097 3.624 2.128.6366.3697.795.4596v.0107l.6278.3688.2488.1503.2391.1307.6764.3883.1497.1005.7764.439.2284.1406.865.4996.2303.1297.139.0898 1.7512 1.0195.797.4684.5471.3102 1.244.7298.6667.3893.2284.1404 1.0341.5992 1.136.6693 3.4725 2.0176.0388.0205.0797.0498.5987.36 1.7814 1.0391.4364.2596.101.0497 1.2635.7395h.0096l.8864.5191.6064.36.2692.1601.0797.0506.1293.0791.4374.2497.1593.0801.0486.0302.1011.0605.3071.1785 2.5385 1.4986.0291.0206z" fill="#ffd985"/><path d="m101.5491 74.3703v.8586l-.0097 2.0285v.4399l-.0292 5.9145-.0301 5.8648v1.0586l-.0496.0303-3.5725 2.0381-1.553.8889-.0194.0097-.8864.5093-.4587.2605-.0292.0195-.517.2996h-.0408l-.1273.08-.0709.0302-.2392.16-.8542.4898-.0107.0098-.2294.1297-.2983.1698-1.5725.9094-.0894.0506-.0709.0391-.1381.08-.1583.0897-2.419 1.3893-.2993.1699-.2488.1395-.0097.0098-.2488.1297v.0107l-.0797.04-.4266.2498-.0613.039-.4567.2605-2.7873 1.5991-.3382.1893-.3576.1991-.1011.0605-.0885.0507-.24.1385-.3869.2205-1.0164.5991-.278.16-.5773.32-.2177.1298-.2391.1395-.6278.3601-.0097.0097-.1303.0702-.586.3298-.2079.12-2.5288 1.448-.6871.4-.4685.2692-.1185.0703-.0195.0098-.5189.2897-.6959.4-.1691.0995-1.3625.7796-.3975.2195-.1798.1103-.2488.1395-.896.52-.0885.0498-.3606.2098-.7463.4195-.1283.0702-.2187.1298-.0495.0303-.279.1589-.1293.0713-.5967.3493-.3284.1786-.1594.0907-1.4636.8488-.07.04-.6375.3601-.9349.5297-.0195.0098-.3878.2293-.1895.1112-2.3888 1.3679-.1885.1102-.5968.3298-1.722.9991-1.8398 1.0586-.1409.08-.5578.3093-.2274-.1298-.4179-.2498-.1808-.1004-2.9943-1.7484-.0301-.0196-.0291-.0088-.0312-.0205-.2381-.1404-.2187-.1298-.238-.16-.2692-.1493-.1488-.0799-.5384-.3104-.1389-.08-.7464-.4283v-.0107l-1.1254-.6596-.0894-.0506-.3188-.1894-.1487-.08-.4383-.2586-.0991-.0604-.2391-.1405-.8358-.4995h-.0088l-1.3849-.7982-.4878-.2907-6.4084-3.7466-.6755-.4097-.032-.0205-1.2916-.7493-2.9573-1.7377-.3888-.2195h-.0097l-.1886-.1103-.4275-.2595-2.0798-1.2089-3.3335-1.9591-.5987-.3493-.5559-.3191-.4878-.28-1.2042-.7092-.8358-.4899-.2594-.1493-1.5725-.919-.9758-.5903h-.0291l-.0506-.0195-.0679-.0498-.5093-.2995h-.0185l-2.3295-1.3591-2.4977-1.4791-.0505-.0293-.3168-.1804-.5278-.3094-.0495-.0302-.4082-.24-2.8767-1.6889-.0506-.0283v-.6498l.0506-11.19.0204-3.9163z" fill="#939393"/><path d="m90.505 83.3621h-70.2845c-.8553 0-1.555-.7025-1.555-1.5611v-3.8715c0-.8595.6997-1.5621 1.555-1.5621h70.2845c.8553 0 1.555.7016 1.555 1.5621v3.8715c-.0001.8586-.6988 1.5611-1.555 1.5611" fill="#727272"/><path d="m72.1 45.272h-53.003c-1.3256 0-2.4005 1.0791-2.4005 2.409v28.9256c0 1.3318 1.0749 2.4109 2.4005 2.4109h50.6005c.034 0 .0642-.0108.103-.0117h17.299v-.0283h4.4356c1.7201 0 3.1254-1.4118 3.1254-3.1397v-12.8457c0-1.7279-1.4053-3.1397-3.1254-3.1397h-8.045c0-.1464-.002-.2986-.002-.4469l2.2177-6.3555c1.0652-3.0509-.4548-6.5448-3.5278-7.5117-.5549-.1746-1.14-.2693-1.7561-.2693h-8.4814" fill="#fffbc5"/><path d="m71.8512 45.0222h-53.003c-1.3256 0-2.4005 1.0791-2.4005 2.409v28.9256c0 1.3318 1.0749 2.4109 2.4005 2.4109h50.6005c.034 0 .0642-.0108.103-.0117h17.299v-.0283h4.4356c1.7201 0 3.1254-1.4118 3.1254-3.1397v-12.8456c0-1.7279-1.4053-3.1397-3.1254-3.1397h-8.045c0-.1464-.002-.2986-.002-.4469l2.2177-6.3555c1.0652-3.0509-.4548-6.5448-3.5278-7.5117-.5549-.1746-1.14-.2693-1.7561-.2693h-8.4814" fill="none" stroke="#603c2f" stroke-miterlimit="10" stroke-width=".75"/><path d="m35.0209 77.6535c0 3.5173-2.8427 6.375-6.3501 6.375s-6.3492-2.8538-6.3492-6.375c0-3.5203 2.8417-6.3751 6.3492-6.3751 3.5074 0 6.3501 2.8538 6.3501 6.3751" fill="#606060"/><ellipse cx="28.6718" cy="77.6535" fill="none" rx="6.3491" ry="6.374" stroke="#603c2f" stroke-miterlimit="10" stroke-width=".75"/><path d="m87.4067 77.6535c0 3.5173-2.8397 6.375-6.3481 6.375-3.5035 0-6.351-2.8538-6.351-6.375 0-3.5203 2.8436-6.3751 6.351-6.3751 3.5083 0 6.3481 2.8538 6.3481 6.3751" fill="#606060"/><ellipse cx="81.059" cy="77.6535" fill="none" rx="6.3491" ry="6.374" stroke="#603c2f" stroke-miterlimit="10" stroke-width=".75"/><path d="m21.3984 89.4766v3.127h-7.3161l-.3168-.1804-.5278-.3094-.0495-.0302-.4082-.24-2.8767-1.688-.0506-.0321v-.6469z" fill="#fff"/><path d="m36.4544 89.4815h11.9421v3.1221h-11.9421z" fill="#fff"/><path d="m63.4486 89.4815h11.9421v3.1221h-11.9421z" fill="#fff"/><path d="m101.4801 89.4766v1.0586l-.0496.0303-3.5725 2.0381h-7.4152v-3.127z" fill="#fff"/><path d="m22.5423 48.3951h40.0559v16.9005h-40.0559z" fill="#dbd497"/><path d="m22.6055 48.3951h40.0559v16.9005h-40.0559z" fill="none" stroke="#603c2f" stroke-miterlimit="10" stroke-width=".75"/><path d="m85.049 51.7309-.934 4.7856c-.5773 1.7884-.448 3.0871-2.139 3.0871h-9.1364c-1.692 0-3.0749-1.3884-3.0749-3.0871v-4.7856c0-1.6986 1.3829-3.0871 3.0749-3.0871h9.1364c.0486 0 .102 0 .1419.0098 1.6268.0703 2.9311 1.4295 2.9311 3.0773" fill="#92e3ff"/><path d="m85.049 51.7309-.934 4.7856c-.5773 1.7884-.448 3.0871-2.139 3.0871h-9.1364c-1.692 0-3.0749-1.3884-3.0749-3.0871v-4.7856c0-1.6986 1.3829-3.0871 3.0749-3.0871h9.1364c.0486 0 .102 0 .1419.0098 1.6268.0703 2.9311 1.4295 2.9311 3.0773z" fill="none" stroke="#603c2f" stroke-miterlimit="10" stroke-width=".75"/><path d="m82.4775 68.4275s-6.5415-.8118-9.6806 4.3866c-.4441.7376-2.2188.2995-2.2188-.0449l-.208-12.593c0-.3444.3265-.6254.726-.6254h11.3814c.3956 0 .725.281.725.6254v7.496c-.0001.3416-.3266.7553-.725.7553" fill="#fffbc5"/><path d="m82.4775 68.4275s-6.5415-.8118-9.6806 4.3866c-.4441.7376-2.2188.2995-2.2188-.0449l-.208-12.593c0-.3444.3265-.6254.726-.6254h11.3814c.3956 0 .725.281.725.6254v7.496c-.0001.3416-.3266.7553-.725.7553z" fill="none" stroke="#603c2f" stroke-miterlimit="10" stroke-width=".75"/><path d="m75.2663 64.6917h-2.6755c-.308 0-.5607-.2566-.5607-.563 0-.3112.2546-.5629.5607-.5629h2.6755c.31 0 .5598.2547.5598.5629 0 .3083-.2507.563-.5598.563" fill="#603c2f"/><path d="m61.6137 48.2068h-37.3804c-1.8291 0-3.3286-1.5064-3.3286-3.3436v-6.5565c0-1.8391 1.4995-3.3445 3.3286-3.3445h37.3824c1.829 0 3.3277 1.5054 3.3277 3.3445v6.5565c-.0021 1.8392-1.4987 3.3436-3.3297 3.3436" fill="#fffbc5"/><path d="m61.6137 48.2068h-37.3804c-1.8291 0-3.3286-1.5064-3.3286-3.3436v-6.5565c0-1.8391 1.4995-3.3445 3.3286-3.3445h37.3824c1.829 0 3.3277 1.5054 3.3277 3.3445v6.5565c-.0021 1.8392-1.4987 3.3436-3.3297 3.3436z" fill="none" stroke="#603c2f" stroke-miterlimit="10" stroke-width=".75"/><path d="m31.9974 46.354h-6.1791c-1.5005 0-2.7153-1.2215-2.7153-2.726v-4.1632c0-1.5083 1.2158-2.727 2.7153-2.727h6.1791c1.4985 0 2.7153 1.2216 2.7153 2.727v4.1632c.0001 1.5055-1.2167 2.726-2.7153 2.726" fill="#f495a8"/><path d="m45.6811 46.354h-6.1791c-1.5005 0-2.7153-1.2215-2.7153-2.726v-4.1632c0-1.5083 1.2158-2.727 2.7153-2.727h6.1791c1.4985 0 2.7153 1.2216 2.7153 2.727v4.1632c.0001 1.5055-1.2167 2.726-2.7153 2.726" fill="#f495a8"/><path d="m59.3648 46.354h-6.1791c-1.5005 0-2.7153-1.2215-2.7153-2.726v-4.1632c0-1.5083 1.2158-2.727 2.7153-2.727h6.1791c1.4985 0 2.7153 1.2216 2.7153 2.727v4.1632c.0001 1.5055-1.2167 2.726-2.7153 2.726" fill="#f495a8"/><g fill="#fff"><path d="m32.9761 38.8706h-8.1986c-.1098 0-.2021-.0917-.2021-.2029 0-.1083.0924-.2.2021-.2h8.1986c.1098 0 .2011.0917.2011.2 0 .1112-.0913.2029-.2011.2029"/><path d="m32.9761 39.9019h-8.1986c-.1098 0-.2021-.0926-.2021-.2029 0-.1083.0924-.2019.2021-.2019h8.1986c.1098 0 .2011.0936.2011.2019 0 .1112-.0913.2029-.2011.2029"/><path d="m31.496 40.9322h-6.7194c-.1108 0-.2021-.0917-.2021-.203 0-.1102.0914-.2019.2021-.2019h6.7194c.1108 0 .2021.0917.2021.2019 0 .1113-.0904.203-.2021.203"/><path d="m32.9761 41.9625h-8.1986c-.1098 0-.2021-.0946-.2021-.2029 0-.1103.0924-.2019.2021-.2019h8.1986c.1098 0 .2011.0916.2011.2019 0 .1093-.0913.2029-.2011.2029"/><path d="m32.1665 42.9919h-6.801c-.1088 0-.2021-.0917-.2021-.2029 0-.1083.0933-.2.2021-.2h6.801c.1108 0 .2021.0917.2021.2 0 .1111-.0903.2029-.2021.2029"/><path d="m31.597 44.0231h-6.4259c-.1098 0-.2021-.0926-.2021-.2029 0-.1083.0924-.2019.2021-.2019h6.4259c.1109 0 .2022.0936.2022.2019 0 .1112-.0913.2029-.2022.2029"/><path d="m46.7842 38.8706h-8.1996c-.1108 0-.2021-.0917-.2021-.2029 0-.1083.0914-.2.2021-.2h8.1986c.1108 0 .2021.0917.2021.2 0 .1112-.0913.2029-.2011.2029"/><path d="m46.7842 39.9019h-8.1996c-.1108 0-.2021-.0926-.2021-.2029 0-.1083.0914-.2019.2021-.2019h8.1986c.1108 0 .2021.0936.2021.2019 0 .1112-.0913.2029-.2011.2029"/><path d="m45.3041 40.9322h-6.7194c-.1108 0-.2021-.0917-.2021-.203 0-.1102.0914-.2019.2021-.2019h6.7194c.1108 0 .2021.0917.2021.2019 0 .1113-.0904.203-.2021.203"/><path d="m46.7842 41.9625h-8.1996c-.1108 0-.2021-.0946-.2021-.2029 0-.1103.0914-.2019.2021-.2019h8.1986c.1108 0 .2021.0916.2021.2019 0 .1093-.0913.2029-.2011.2029"/><path d="m45.9746 42.9919h-6.801c-.1088 0-.2021-.0917-.2021-.2029 0-.1083.0933-.2.2021-.2h6.801c.1108 0 .2021.0917.2021.2 0 .1111-.0903.2029-.2021.2029"/><path d="m45.4051 44.0231h-6.4259c-.1098 0-.2021-.0926-.2021-.2029 0-.1083.0924-.2019.2021-.2019h6.4259c.1109 0 .2022.0936.2022.2019 0 .1112-.0914.2029-.2022.2029"/><path d="m60.4359 38.8706h-8.1986c-.1108 0-.2021-.0917-.2021-.2029 0-.1083.0914-.2.2021-.2h8.1986c.1107 0 .2021.0917.2021.2 0 .1112-.0914.2029-.2021.2029"/><path d="m60.4359 39.9019h-8.1986c-.1108 0-.2021-.0926-.2021-.2029 0-.1083.0914-.2019.2021-.2019h8.1986c.1107 0 .2021.0936.2021.2019 0 .1112-.0914.2029-.2021.2029"/><path d="m58.9566 40.9322h-6.7175c-.1108 0-.2021-.0917-.2021-.203 0-.1102.0914-.2019.2021-.2019h6.7175c.1109 0 .2022.0917.2022.2019 0 .1113-.0913.203-.2022.203"/><path d="m60.4359 41.9625h-8.1986c-.1108 0-.2021-.0946-.2021-.2029 0-.1103.0914-.2019.2021-.2019h8.1986c.1107 0 .2021.0916.2021.2019 0 .1093-.0914.2029-.2021.2029"/><path d="m59.6273 42.9919h-6.801c-.1089 0-.2021-.0917-.2021-.2029 0-.1083.0933-.2.2021-.2h6.801c.1079 0 .2021.0917.2021.2 0 .1111-.0914.2029-.2021.2029"/><path d="m59.0587 44.0231h-6.4269c-.1099 0-.2022-.0926-.2022-.2029 0-.1083.0923-.2019.2022-.2019h6.4269c.1098 0 .2011.0936.2011.2019.0001.1112-.0913.2029-.2011.2029"/></g><path d="m32.7846 77.6798c0 2.2383-1.8096 4.0588-4.0429 4.0588-2.2343 0-4.0439-1.8176-4.0439-4.0588 0-2.242 1.8096-4.0598 4.0439-4.0598 2.2333.001 4.0429 1.8177 4.0429 4.0598" fill="#f495a8"/><path d="m85.1559 77.6798c0 2.2383-1.8096 4.0588-4.0429 4.0588-2.2343 0-4.0439-1.8176-4.0439-4.0588 0-2.242 1.8096-4.0598 4.0439-4.0598 2.2332.001 4.0429 1.8177 4.0429 4.0598" fill="#f495a8"/><path d="m29.8613 77.6798c0 .6176-.4995 1.124-1.1196 1.124-.6171 0-1.1196-.5063-1.1196-1.124 0-.6214.5025-1.124 1.1196-1.124.6201 0 1.1196.5025 1.1196 1.124" fill="#fffbc5"/><path d="m82.2947 77.6798c0 .6176-.5005 1.124-1.1196 1.124-.6181 0-1.1196-.5063-1.1196-1.124 0-.6214.5015-1.124 1.1196-1.124.6192 0 1.1196.5025 1.1196 1.124" fill="#fffbc5"/><path d="m81.9633 77.388c0 .2381-.1954.4371-.4344.4371-.241 0-.4364-.1961-.4364-.4371 0-.242.1954-.438.4364-.438.2391.0019.4344.1971.4344.438" fill="#fff"/><path d="m29.5921 77.388c0 .2381-.1954.4371-.4344.4371-.241 0-.4364-.1961-.4364-.4371 0-.242.1954-.438.4364-.438.239.0019.4344.1971.4344.438" fill="#fff"/><path d="m67.8987 77.2105h-30.6416c-.4966 0-.8979-.3708-.8979-.8273l-1.0865-3.091c0-.4576.4033-.8273.8999-.8273h31.7262c.4966 0 .8989.3698.8989.8273v3.091c-.0001.4565-.4024.8273-.899.8273" fill="#f7e5aa"/><path d="m89.6556 77.3256h2.1147c.4548 0 .828-.3747.828-.8322v-5.5369c0-.4576-.3732-.8322-.828-.8322h-2.1147c-.4568 0-.83.3747-.83.8322v5.5369c0 .4575.3732.8322.83.8322" fill="#f7e5aa"/><path d="m88.8158 68.0938h.8708c.4568 0 .83-.3747.83-.8332v-6.2959c0-.4577-.3732-.8323-.83-.8323h-.8708c-.4567 0-.8299.3747-.8299.8323v6.2959c.0001.4586.3733.8332.8299.8332" fill="#f7e5aa"/><path d="m87.9344 66.3981v.8742c0 .4586.3732.8332.829.8332h4.4569c.4568 0 .83-.3747.83-.8332v-.8742c0-.4615-.3732-.8361-.83-.8361h-4.4569c-.4558.001-.829.3756-.829.8361" fill="#f7e5aa"/><path d="m67.8647 71.2062h-30.1868c-.3761 0-.6852-.3102-.6852-.6869 0-.3804.31-.6878.6852-.6878h30.1867c.3771 0 .6842.3102.6842.6878 0 .3767-.3071.6869-.6841.6869" fill="#f7e5aa"/><path d="m67.8647 68.6149h-30.1868c-.3761 0-.6852-.3122-.6852-.6879 0-.3775.31-.6869.6852-.6869h30.1867c.3771 0 .6842.3112.6842.6869s-.3071.6879-.6841.6879" fill="#f7e5aa"/><path d="m19.9309 70.1652h-2.9039c-.3071 0-.5598-.2527-.5598-.562v-5.7896c0-.3093.2527-.562.5598-.562h2.9039c.309 0 .5598.2527.5598.562v5.7896c0 .3103-.2508.562-.5598.562" fill="#ed8093"/><path d="m19.9309 70.1652h-2.9039c-.3071 0-.5598-.2527-.5598-.562v-5.7896c0-.3093.2527-.562.5598-.562h2.9039c.309 0 .5598.2527.5598.562v5.7896c0 .3103-.2508.562-.5598.562z" fill="none" stroke="#603c2f" stroke-miterlimit="10" stroke-width=".75"/><path d="m62.7644 68.3133h-39.4962c-.2721 0-.4976-.2283-.4976-.4995v-.3542c0-.276.2255-.4995.4976-.4995h39.4971c.2741 0 .4976.2235.4976.4995v.3542c-.0009.2742-.2235.4995-.4985.4995" fill="#ed8093"/><path d="m62.7644 68.3133h-39.4962c-.2721 0-.4976-.2283-.4976-.4995v-.3542c0-.276.2255-.4995.4976-.4995h39.4971c.2741 0 .4976.2235.4976.4995v.3542c-.0009.2742-.2235.4995-.4985.4995z" fill="none" stroke="#603c2f" stroke-miterlimit="10" stroke-width=".75"/><path d="m80.3025 49.0195-3.7631 10.2085h-1.7882l-.0272-.0098 3.7611-10.1987z" fill="#fff"/><path d="m81.8516 49.0273-3.7621 10.1997h-.9096l3.762-10.2084h.7794c.0467.0009.0934.0009.1303.0087" fill="#fff"/><path d="m94.128 66.4401h-2.5734c-.5773 0-1.0525-.4771-1.0525-1.0566v-5.616c0-.5786.4752-1.0517 1.0525-1.0517h4.6086c.5772 0 1.0495.4732 1.0495 1.0517l-2.0341 5.616c-.2508.558-.4733 1.0566-1.0506 1.0566" fill="#fffbc5"/><path d="m94.128 66.4401h-2.5734c-.5773 0-1.0525-.4771-1.0525-1.0566v-5.616c0-.5786.4752-1.0517 1.0525-1.0517h4.6086c.5772 0 1.0495.4732 1.0495 1.0517l-2.0341 5.616c-.2508.558-.4733 1.0566-1.0506 1.0566z" fill="none" stroke="#603c2f" stroke-miterlimit="10" stroke-width=".75"/><path d="m92.195 64.5043h.8708c.4568 0 .83-.3747.83-.8332v-3.1631c0-.4586-.3732-.8332-.83-.8332h-.8708c-.4548 0-.828.3747-.828.8332v3.1631c0 .4586.3732.8332.828.8332" fill="#f7e5aa"/><path d="m29.5862 66.682h-.3216c-.4976 0-.9019-.4029-.9019-.9025v-2.4743c0-.5004.4043-.9054.9019-.9054h.3216c.4976 0 .9019.4049.9019.9054v2.4743c.0011.4976-.4043.9025-.9019.9025" fill="#ef2240" stroke="#723a2f" stroke-miterlimit="10" stroke-width=".25"/><path d="m28.2674 61.632h2.2587v.8723h-2.2587z" fill="#ef2240" stroke="#723a2f" stroke-miterlimit="10" stroke-width=".25"/><path d="m29.0313 60.0036h.7309v1.5201h-.7309z" fill="#ef2240" stroke="#723a2f" stroke-miterlimit="10" stroke-width=".25"/><path d="m26.1818 66.682h-.3217c-.4976 0-.9009-.4029-.9009-.9025v-2.4743c0-.5004.4033-.9054.9009-.9054h.3217c.4976 0 .9019.4049.9019.9054v2.4743c-.0019.4976-.4043.9025-.9019.9025" fill="#fff" stroke="#723a2f" stroke-miterlimit="10" stroke-width=".25"/><path d="m24.8611 62.1804h2.2596v.8722h-2.2596z" fill="#fff" stroke="#723a2f" stroke-miterlimit="10" stroke-width=".25"/><path d="m25.6259 60.709h.7299v1.5201h-.7299z" fill="#fff" stroke="#723a2f" stroke-miterlimit="10" stroke-width=".25"/><path d="m32.9712 66.682h-.3216c-.4976 0-.9019-.4029-.9019-.9025v-2.4743c0-.5004.4043-.9054.9019-.9054h.3216c.4976 0 .9019.4049.9019.9054v2.4743c.0001.4976-.4043.9025-.9019.9025" fill="#ffc408" stroke="#723a2f" stroke-miterlimit="10" stroke-width=".25"/><path d="m31.6514 61.632h2.2605v.8723h-2.2605z" fill="#ffc408" stroke="#723a2f" stroke-miterlimit="10" stroke-width=".25"/><path d="m32.393 60.0036h.7298v1.5201h-.7298z" fill="#ffc408" stroke="#723a2f" stroke-miterlimit="10" stroke-width=".25"/><path d="m59.7497 66.682h-1.1954c-.2566 0-.4646-.2107-.4646-.4683v-3.3465c0-.2616.208-.4704.4646-.4704h1.1954c.2566 0 .4646.2088.4646.4704v3.3465c-.002.2576-.21.4683-.4646.4683" fill="#ff8500" stroke="#723a2f" stroke-miterlimit="10" stroke-width=".25"/><path d="m59.7497 62.4662h-1.1954c-.2566 0-.4646-.2088-.4646-.4674 0-.2576.208-.4664.4646-.4664h1.1954c.2566 0 .4646.2088.4646.4664-.002.2586-.21.4674-.4646.4674" fill="#ffc408" stroke="#723a2f" stroke-miterlimit="10" stroke-width=".25"/><path d="m35.9305 49.5756s-.7279-.4624-1.586-.1765c-2.1352.7132-3.6726-4.2608.175-6.5878 3.4413-2.0811 12.7371-5.171 21.337 4.0696.6919.7434 2.0574 2.5182.6006 4.0178-1.4558 1.5015-4.1129-1.1026-4.6707-1.8528-.5569-.7503-2.6123-.7952-2.8281-.8391-.2139-.0469-3.4288-.7981-3.4288-.7981l-1.586.0907-5.7845.84z" fill="#f2f2f2" stroke="#63392e" stroke-miterlimit="10" stroke-width=".25"/><path d="m39.4224 53.7398c-.0145 1.0099-.6647 1.8137-1.452 1.804-.7872-.0147-1.4131-.8391-1.3975-1.8479.0146-1.0069.6648-1.8108 1.452-1.8011.7871.0098 1.4131.8381 1.3975 1.845" fill="#ee7290"/><path d="m42.1028 60.9041-4.1654-.1015-1.5181-1.8527.0389.8235-.8143-.3943 1.8105 2.8949 4.9108 1.9552" fill="#d7723b"/><path d="m42.3652 64.3766c-.0175 0-.035-.0029-.0515-.0098l-4.9108-1.9542c-.0282-.0147-.0524-.0323-.069-.0605l-1.8086-2.8928c-.0349-.0546-.031-.1268.0116-.1775.0408-.0518.1099-.0644.1672-.0361l.5996.2897-.0262-.5796c-.0039-.0634.033-.121.0894-.1464.0573-.0205.1225-.0058.1613.042l1.4762 1.804 4.1012.0995c.0797.0019.1409.0702.139.1513-.002.0809-.0661.1454-.1448.1434l-4.1664-.1014c-.0408-.001-.0796-.0215-.1049-.0546l-1.245-1.5191.0184.3892c.002.0518-.0213.1034-.0641.1298-.0408.0293-.0933.0332-.1399.0137l-.3635-.1785 1.5152 2.4265 4.868 1.9357c.0738.0293.1098.1151.0816.1902-.0232.0603-.0777.0955-.134.0955" fill="#63392e"/><path d="m36.4193 58.9499.0389.8235-.8143-.3943.6822 1.0928.897-.5405z" fill="#555759"/><path d="m36.3261 60.6046c-.0408 0-.0836-.0205-.1079-.0604l-.6832-1.0918c-.0302-.0527-.0253-.1152.0126-.1591.0379-.0449.0991-.0614.1506-.0332l.6201.3005-.0273-.6029c-.0039-.0605.0292-.1103.0797-.1298.0525-.0215.1108-.0059.1458.0381l.8047.9795c.0233.0303.035.0693.0272.1083-.0068.0391-.0292.0693-.0622.0917l-.896.5405c-.0194.0127-.0417.0186-.0641.0186m-.3324-.9084.3752.5972.6569-.3971-.4607-.562.0214.4332c.002.0459-.0194.0898-.0563.1161-.0389.0264-.0856.0303-.1264.0108z" fill="#63392e"/><path d="m42.1028 60.9041-4.1654-.1015-1.5181-1.8527.0389.8235-.8143-.3943 1.8105 2.8949 4.9108 1.9552" opacity=".1"/><path d="m53.1819 57.8434.8377.2956c.1564-1.122-1.3567-2.2236-1.3567-2.2236l.5287-.4371-3.8836-1.3844-5.6892 6.9291-2.5715-1.0888-.104 3.8461-.3567 1.1981h9.8565l.2459-.681.0447-.0049 1.6628-1.0216.3032-2.3201.9058.6351c.7727-1.9677-.4236-3.7425-.4236-3.7425z" fill="#d7723b"/><path d="m53.5259 61.7071c.0369.0225.0816.0322.1224.0196.0428-.0137.0758-.045.0914-.0859.4141-1.0556.2732-2.0538.0817-2.7055-.1001-.3405-.2226-.6215-.3226-.8244l.4781.1678c.0408.0176.0836.0117.1205-.0137.036-.0205.0603-.0604.0671-.1034.136-.9884-.8737-1.9259-1.2644-2.2469l.3829-.3181c.0408-.0332.0612-.0868.0524-.1395-.0098-.0556-.0447-.0995-.0952-.1142l-3.8816-1.3844c-.0563-.0215-.1185-.003-.1564.0439l-5.6222 6.8471-2.4734-1.0488c-.0437-.0176-.0942-.0127-.1332.0137-.0388.0254-.0632.0702-.0641.119l-.105 3.8227-.3644 1.2245h.2984l.344-1.1552c.0039-.0146.0059-.0254.0059-.039l.1-3.6295 2.3782 1.0079c.0583.0214.1234.0078.1633-.042l5.6269-6.8531 3.5453 1.2673-.3245.2674c-.035.0303-.0554.0741-.0525.12 0 .0459.0224.0888.0603.1161.0136.0098 1.275.9386 1.3062 1.8987l-.6609-.2302c-.0583-.0215-.1224 0-.1593.0498-.0369.0508-.0389.121-.0039.1736.0039.0039.2935.4391.4858 1.1035.2371.8118.2314 1.5961-.0135 2.328l-.7561-.5298c-.0428-.0293-.0942-.0342-.1399-.0156-.0447.0215-.0758.0643-.0826.1151l-.2916 2.2528-1.5774.9716-.0135.001c-.0544.0049-.0991.043-.1186.0946l-.2643.7318h.3051l.1983-.5552s.0088-.0039.0126-.0059l1.6629-1.0196c.0378-.0234.0622-.0633.068-.1073l.2712-2.086z" fill="#63392e"/><path clip-path="url(#a)" d="m53.3092 58.0971-.0952-.2449.7454.1658c-.1195-1.0976-1.3858-2.0352-1.3994-2.044l-.1234-.0897.6074-.4605c-.1263-.0459-.3702-.2293-.5462-.2479h-.3499v.882l-.7386.3747 1.3684.7708-1.1156.0624s1.6152 1.7611 1.5316 3.2363l-.9874-.2859.0156 2.0626-.1662.3161.3624.3591.2284-2.0792.8728.5962c.7287-1.7211-.2014-3.3514-.2101-3.3739z" opacity=".1"/><path d="m53.5706 63.2106c.1283-.0527.2547-.1005.381-.1522l-.1923-.2781-1.6249-2.1864-1.3082 1.9425 2.141 1.2771c.1486-.2721.3507-.4995.6034-.6029z" fill="#d7723b"/><path d="m51.4413 66.364 2.5491-1.8851c-.0467-.1317.4821-.4293.4334-.562-.0971-.2625-.414-.7678-.7036-.9025l-.5462.4742-2.5424 2.1065.8553-.2478z" fill="#d7723b"/><path d="m52.8865 63.597-1.9874-1.1864c-.0691-.041-.1546-.0185-.1954.0536-.0389.0722-.0156.1601.0524.201l2.1478 1.284c.0175-.0381.0369-.0761.0544-.1122-.0232-.081-.0485-.161-.0718-.24z" fill="#63392e"/><path d="m53.8777 62.6935-.0039-.0078-1.6249-2.1806c-.0486-.0653-.138-.0771-.2021-.0273-.0622.0488-.0738.1444-.0253.2068l1.6229 2.1835.7688 1.1123c.0914-.0332.1546-.1054.2459-.1454z" fill="#63392e"/><path d="m54.6396 63.8029-3.0205 2.2362.032-.72c.0029-.0499-.0175-.0917-.0534-.1152-.0369-.0254-.0836-.0332-.1322-.0215l-.1594.0469 1.6153-1.2752c.0097-.1004-.0116-.2126-.0195-.3161 0 0-.0068 0-.0097 0-.0146-.0048-.0292-.0136-.0389-.0244l-2.3071 1.8518c-.0428.0332-.0652.08-.0681.1269-.001.0225.0029.0439.0116.0643.0282.0624.1011.0917.173.0673l.6648-.1882-.0388.8253c-.002.0575.0282.1044.0796.1288.0525.0205.1147.0137.1652-.0234l3.2548-2.4197c-.0553-.0888-.0961-.1629-.1487-.2438z" fill="#63392e"/><path d="m52.8204 56.2795-.379-.8527.7357-.4039-.071-.6654c-.0641.0127-.1836.0273-.3285.042-.3634.0351-.8814.0555-1.0544-.1122-.0826-.08-.1079-.1893-.104-.3054.0019-.0536.0116-.1063.0253-.1639.0135-.0575.033-.1102.0524-.1639.0506-.1288.1079-.2215.1079-.2215s-.0049.0849.0059.1932c.0049.0449.0126.0936.0243.1424.0126.0469.0272.0937.0496.1357.0184.0351.0379.0673.0651.0956.1564.1532 1.0068.0371 1.1177.0205v-.001l.1477-.0264c.1982-.0351.3752-.0917.5267-.1581.1768-.0799.3207-.1834.4325-.3034.0106-.0107.0204-.0205.0281-.0302.0349-.0401.0661-.082.0943-.1259.0049-.0117.0107-.0196.0165-.0254.0155-.0264.0273-.0518.0408-.078.0098-.0205.0204-.045.0283-.0644.069-.1814.0796-.3513.0747-.4683-.136.0253-.2662.0429-.3887.0585-.9077.0946-1.4558-.1201-1.7785-.3601-.3071-.2264-.4081-.4742-.4179-.4975l-.0175-.045.3518-1.9913.0292-.1562c-1.0574-.6625-2.6619-.4224-2.6784-.4195l-.2857.0459.3897-.9259c-1.519-.8069-3.2441-.278-3.2625-.2722l-.2916.0917.241-.7845c-1.036-.1317-1.8835.1775-2.4685.521l.1362.3834.134.3737.002.0117c.0058.0264.0427.2694-.1439.5288-.2235.3093-.6628.4995-1.3042.565h-.002c-1.5588.1629-1.6686-.4645-1.6754-.5357l-.001-.0097v-.0176l.0223-1.0918c-.0602 0-.1205.0029-.1817.0088-.0981.0088-.1972.0205-.2964.0459l.3188 1.0059-.2935-.0917c-.0117-.0029-.898-.2713-1.8076-.0273-.1827.0488-.3684.1181-.5463.2146l.3917 1.042-.2916-.0644c-.1507-.0332-.4674-.04-.864.0644-.1944.0546-.4081.1337-.6326.2488l.3392.9278-.6511.1318c.0273.2488.0933.7854.1963 1.445l.0098.0624c.1574 1.003.3994 2.2723.7279 3.2362l.8307.0382-.1166.2283c-.0088.0215-.2284.4791-.0204 1.0654l.8261.5903.5841 1.5231.7124.1581.0806 1.9094 1.001-.4351-.1555 1.2654.3489-.1756.1778-.0888.1788-.0888 1.0496-.5278.1419.6928 1.8232-1.1659 1.4364.1561.9038-1.6899.5908-.039.4374-.0293.3577-.8021.8125.124.2955-1.0537 1.0321.1687.204-.9006.9972.1523-.0389-.9776z" fill="#d7723b"/><path d="m53.2616 56.4815-.4044-.9094.6609-.3601-.0681-.639-.0311-.2849c.5384-.1317.9232-.3756 1.1467-.7356.0146-.0215.0263-.042.0389-.0634h.0039c.0224-.0429.0428-.0878.0632-.1356l.0029-.0078c.0175-.0449.033-.0907.0447-.1405.0039-.0176.0078-.0303.0116-.0469.0895-.3513.0204-.642.0165-.6557l-.0378-.1532-.1495.0323c-1.763.3757-2.2742-.3522-2.3723-.5288l.4014-2.2625-.0875-.0624c-.8941-.6244-2.1556-.6039-2.7096-.561l.2799-.6664-.1254-.0732c-1.3072-.7649-2.7513-.5756-3.3548-.4459l.1759-.5678-.1817-.0381c-1.1905-.2078-2.1547.12-2.8193.4985l.0583.1611.0058.0175.0506.1406c.5861-.3406 1.4325-.6489 2.4685-.5191l-.241.7845.2915-.0917c.0185-.0078 1.7436-.5327 3.2626.2713l-.3897.9259.2857-.0449c.0175-.0029 1.621-.2439 2.6784.4186l-.0292.1571-.3518 1.9913.0174.044c.0098.0234.1109.2703.418.4975.3226.2401.8708.4547 1.7785.3601.1224-.0156.2527-.0313.3887-.0585.0049.1171-.0039.2878-.0748.4654-.0078.0225-.0184.0469-.0282.0673-.0136.0264-.0253.0518-.0408.078-.0059.0078-.0107.0166-.0107.0166-.032.0518-.0651.0946-.0991.1337-.0088.0117-.0204.0215-.0292.0313-.1118.12-.2556.2234-.4324.3024-.1516.0673-.3285.122-.5267.1591l-.1478.0273v.001c-.1108.0176-.9611.1347-1.1176-.0215-.0263-.0254-.0467-.0595-.0652-.0946-.0204-.042-.0369-.0888-.0496-.1357-.0116-.0478-.0194-.0975-.0243-.1434-.0107-.1073-.0058-.1922-.0058-.1922s-.0574.0927-.1079.2215c-.0195.0508-.0389.1063-.0525.1638-.0135.0556-.0233.1093-.0253.1639-.0039.1142.0214.2244.104.3034.173.1678.691.1493 1.0545.1142.1448-.0147.2653-.0332.3285-.042l.071.6654-.7358.4039.3791.8527-.863.2829.0388.9776-.9971-.1522-.2041.8996-1.0321-.1688-.2955 1.0547-.8124-.1239-.3577.802-.4373.0293-.5909.0391-.9038 1.6889-1.4363-.1552-1.8232 1.1659-.1419-.6927-1.0496.5278-.1788.0887-.1778.0888-.3489.1756.1555-1.2654-1.001.4351-.0807-1.9094-.7123-.1601-.5841-1.521-.8261-.5903c-.208-.5874.0116-1.0459.0204-1.0654l.1166-.2284-.8309-.038c-.3295-.964-.5705-2.2334-.728-3.2363.0126-.0283.0204-.0469.0204-.0469l-.0302-.0185c-.103-.6576-.1671-1.1942-.1963-1.4431l.6511-.1317-.3392-.9278c.2244-.1151.4383-.1941.6326-.2488.3965-.1034.7114-.0995.864-.0644l.2925.0644-.3926-1.042c.1778-.0966.3634-.1658.5462-.2146.9097-.243 1.7979.0244 1.8076.0273l.2935.0917-.3187-1.0059c.0991-.0235.1992-.0381.2964-.0459.0612-.0049.1224-.0079.1817-.0098l.0039-.1668c-.0486 0-.1001.0039-.1507.0068.0505-.0029.1021-.0068.1507-.0068l.0039-.1668c-.2371.0039-.4849.0352-.7376.1112l-.1584.0489.239.7561c-.4946-.0985-1.5393-.2019-2.4413.3571l-.1157.0712.2887.7679c-.3207-.0059-.8903.0565-1.5667.4439l-.1205.0702.3042.8273-.5685.1132.0155.1503c.0059.0585.0778.7337.2158 1.6294l.2683 1.4937c.1418.682.3149 1.3727.5209 1.9533l.0369.1034.5753.0264c-.0661.2478-.1224.6702.0661 1.1541l.0175.0459.8261.5903.6122 1.5942.6376.1464.0914 2.1289.9116-.3961-.1604 1.3045.5958-.3015.1147-.0575.0642-.0322.1778-.0888.9679-.484.1517.7366 1.8678-1.1913.2488-.16 1.5385.1687.9213-1.7279 1.0457-.0663.3363-.7571.8513.1298.2955-1.0527 1.0477.1736.204-.9025 1.0885.1648-.0447-1.121z" fill="#63392e"/><path d="m39.0822 53.1905c.001-.0098.001-.0205 0-.0283-.0078-.0927-.103-.1542-.2109-.1464-.0797.0078-.1448.0537-.1701.1122l-.0049.0147c-.0612.1658-.0865.4087-.0631.6732.0223.2439.0826.4586.1613.6097.0078.0137.0155.0274.0214.0401 0 0 .0048.0088.0078.0136.0292.042.0796.0703.1389.0771.0165.0019.0321.0019.0496.001.1079-.0098.1895-.0917.1817-.1815-.0009-.0127-.0029-.0215-.0029-.0215-.0059-.0156-.0098-.0253-.0155-.0351-.0622-.1444-.1089-.3337-.1283-.5435-.0185-.2097-.0069-.4019.0292-.559.0029-.0077.0049-.0175.0058-.0263" fill="#63392e"/><path d="m46.4528 52.2899c.001-.0146.0019-.0234.001-.0351-.0088-.1044-.1166-.1756-.2401-.1639-.0904.0078-.1642.0595-.1944.1269 0 0-.0039.0107-.0058.0166-.07.1892-.1001.4634-.0719.7688.0263.3015.104.564.206.7366.002.0088.0059.0137.0079.0186.0427.0604.1244.0965.2148.0887.0078-.0009.0165-.0009.0243-.0029.1108-.0215.1905-.1083.1827-.2029-.001-.0117-.0039-.0215-.0078-.0342-.002-.0068-.0039-.0127-.0078-.0176 0 0-.002-.0078-.0059-.0146-.07-.162-.1244-.3806-.1448-.6166-.0204-.2381-.0068-.4596.034-.6381.0039-.0107.0068-.0205.0078-.0303" fill="#63392e"/><path clip-path="url(#b)" d="m54.1926 53.3525c.0554-.0205.1089-.0508.1613-.0848.0098-.0206.0204-.045.0283-.0644.069-.1814.0796-.3513.0747-.4683-.136.0253-.2662.0429-.3887.0584-.9077.0947-1.4558-.12-1.7785-.36 0 0 .0972.7268.8047.9162.138.0371.276.0653.414.079.242.0244.4762.0068.6842-.0761" opacity=".1"/><path clip-path="url(#c)" d="m42.8151 60.7256c-.0447-.0479-.1234-.0147-.1215.0546l.0156.6058c.0019.0459.0447.08.0875.0693l.4412-.1191c.0524-.0127.071-.08.034-.121z" opacity=".1"/><path clip-path="url(#d)" d="m53.1061 54.3584c-.0641.0126-.1836.0273-.3285.0419l.0428.4459-.7959.4215.3392.8273-.7299.2293-.0029.8586-.8358-.1151-.2585.9336-.965-.1376-.3305.964-.8425-.042-.5386 1.092.4374-.0293.3577-.8021.8125.124.2955-1.0537 1.0321.1687.204-.9006.9972.1523-.0389-.9776.863-.2829-.379-.8527.7357-.4039z" opacity=".1"/><path clip-path="url(#e)" d="m54.1751 53.53-.4314.3035c.1758-.0829.3206-.1834.4314-.3035" fill="#e6e7e8"/><path clip-path="url(#f)" d="m46.3925 53.8413c-.0427.0809-.0796.1591-.1069.2293-.0282.0702.0573.1317.1108.076.4529-.4439 1.0253-.4439 1.3392-.4009.0642.0088.1031-.0741.0544-.121l-.4587-.441c-.0155-.0137-.035-.0205-.0545-.0186-.3177.0391-.55.2137-.7152.4215l.0078.0176c.0039.0107.0058.0224.0068.0341.0078.0947-.0719.1815-.1837.203" opacity=".1"/><path clip-path="url(#g)" d="m38.9617 54.5575c-.0602-.0059-.1108-.0352-.1389-.0771 0 0-.0049-.0097-.0088-.0137-.0059-.0126-.0136-.0263-.0204-.04-.106-.0634-.2304-.1005-.3722-.0888-.0156.001-.0311.0098-.0399.0215l-.2128.32c-.0292.044.0116.0995.0622.0829.1875-.0633.5111-.1229.8221.0673.0506.0284.104-.0322.07-.0799-.0437-.0625-.0971-.1298-.1613-.1922" opacity=".1"/><path clip-path="url(#h)" d="m42.0386 60.6807-.3848.6888c-.0253.044.001.0995.0506.1054l.2235.0371.1409.0225.1409.0205.0369.0049c.0486.0107.0895-.0362.0797-.0859l-.033-.1677-.0563-.2732-.0564-.278-.0098-.0518c-.0156-.0665-.0992-.0792-.1322-.0226" opacity=".1"/><path clip-path="url(#i)" d="m41.5206 60.5763-.622.1746c-.0592.0166-.071.0966-.0204.1307l.3421.2303c.031.0205.0738.0127.0961-.0215l.2789-.4048c.0391-.0527-.0115-.1268-.0747-.1093" opacity=".1"/><path clip-path="url(#j)" d="m38.6313 50.4099s-.241-.8918.1545-1.2566c-.1837.0488-.3683.1181-.5471.2146z" fill="#e6e7e8"/><path clip-path="url(#k)" d="m40.8666 48.2205c-.0991.0088-.1963.0205-.2964.0459l.3178 1.0059c0-.0001-.0428-.7162-.0214-1.0518" fill="#e6e7e8"/><path clip-path="url(#l)" d="m37.1832 51.5836s-.102-.7923.2916-1.1766c-.1944.0547-.4082.1337-.6317.2488z" fill="#e6e7e8"/><path clip-path="url(#m)" d="m40.1212 51.2587c.0243-.1054-.1176-.1581-.1643-.0634-.8125 1.7094-.2089 5.2667-.2089 5.2667.1963-.0303.4305-.0058.6657.08-.7309-2.6256-.5025-4.4267-.2925-5.2833" opacity=".1"/><path d="m41.404 44.59-.0243.9815c.2731.2156.6813.4401 1.2304.5025.0913.0127.1846.0185.2827.0185l-.4111-1.162c-.0806-.0078-.1613-.0215-.239-.0342-.2983-.0555-.5792-.158-.8387-.3063" fill="#fffbdd"/><path d="m41.3719 45.9218-.0233.9405c.2623.2498.8339.6664 1.7143.6645.105 0 .2158-.0069.3314-.0205l-.3994-1.1289c-.1001.0029-.1982.0009-.2916-.0088-.5714-.0341-1.0126-.2312-1.3314-.4468" fill="#fffbdd"/><path d="m43.4964 49.24c-1.1235.1132-1.8445-.3834-2.1906-.7113l-.0175.762c.0175.0527.1847.401 1.3655.2819h.001c.4927-.0498.7823-.1697.9524-.2936.0292-.0205.0544-.042.0759-.0624-.0312.0048-.0622.0097-.0914.0127-.0321.0029-.0642.0068-.0953.0107" fill="#fffbdd"/><path d="m41.8306 43.0904-.0952-.2713c-.031-.0877-.1049-.1063-.1642-.0985l-.0059.001c-.0573.0117-.1175.0556-.1195.1454l-.0009.0547c.0689.0361.1409.0692.2137.1034.0574.0243.1147.0448.172.0653" fill="#fffbdd"/><path d="m41.7684 43.3724c-.1137-.0342-.2235-.081-.3304-.1318l-.0253 1.0206c.2255.1454.4704.2557.7319.3181.0748.0214.1526.0351.2303.0488l-.4256-1.2001c-.0623-.0185-.1206-.0361-.1809-.0556" fill="#fffbdd"/><path d="m43.6208 48.1531-.0573-.1609-.0574-.1591-.0155-.0459c-.0408.0088-.0816.0137-.1224.0176-.0758.0068-.1468.0117-.2177.0137-.8553.0283-1.4607-.3035-1.8134-.5826l-.0165.6518-.004.1668-.0009.0663c.0194.0244.0496.0634.0933.1093.2566.2732.9427.8439 2.0934.7161.1147-.0127.2333-.0293.3558-.0595.0039-.0274.0019-.0469.0019-.0566z" fill="#fffbdd"/><path d="m43.9367 48.4371-.1488-.3884-.0058-.0146-.0544-.1434-.0622-.1591-.4382-1.1444-.1487-.3883-.0428-.1132-.4733-1.2342-.0826-.2137-.4724-1.2303-.1127-.2967-.1691-.4409-.2041-.0693.0389.1239.0953.3015.1097.3473.3801 1.205.0991.3161.3732 1.1776.0932.2986.3635 1.1532.0913.2868.0671.2166.0534.1689.0526.1678.1827.5776.0894.2809.0155.0489.0448.1434.0184.0595.3732-.3503v-.358z" fill="#f9ec31" opacity=".4"/><path d="m43.4498 64.9795c-.1778-.1083-.4218-.1902-.7561-.243-.5267-.0819-.9252.0206-1.2226.243z" fill="#e59776"/><path d="m51.2984 62.8077-.7804.3093" fill="none"/><path d="m50.518 63.2633c-.0573 0-.1118-.0361-.1331-.0936-.0282-.0761.0078-.162.0816-.1902l.7833-.3083c.0738-.0293.1554.0088.1837.0838.0282.0761-.0088.1621-.0826.1903l-.7824.3083c-.0165.0068-.034.0097-.0505.0097" fill="#63392e"/><path d="m51.4336 66.3708 1.0913-.8322-.7833-.8293-1.1176.8936.8553-.2487z" fill="#555759"/><path d="m51.5123 66.4752 1.0904-.8332c.034-.0225.0563-.0624.0622-.1015.0068-.039-.0039-.077-.0292-.1044l-.7833-.8253c-.0477-.0527-.1303-.0536-.1925-.0049l-1.1176.8957c-.037.0302-.0593.0721-.0613.1151-.0009.0195.002.0391.0107.0565.0253.0595.0894.083.1555.0644l.6823-.1971-.0369.844c-.002.0527.0253.1004.0719.118.0447.0166.103.0078.1478-.0273zm.1088-1.1317c.002-.043-.0155-.08-.0466-.1034-.033-.0235-.0758-.0303-.1186-.0206l-.2293.0664.4878-.3932.5996.6381-.726.5532z" fill="#63392e"/><path d="m41.4284 63.5726.3118.6889.2926-.2957" fill="#d7723b"/><path d="m41.7402 64.3795c-.0058 0-.0126 0-.0204-.0019-.0369-.0059-.068-.0313-.0836-.0654l-.311-.6878c-.0272-.0605-.0009-.1279.0564-.1562s.1244-.0019.1506.0575l.244.5376.1768-.1785c.0447-.0449.1176-.0439.1613.002.0447.0459.0447.121-.001.1669l-.2925.2956c-.0212.0185-.0504.0302-.0806.0302" fill="#63392e"/><path d="m44.9542 63.5726-1.312 1.0742-.1749-.5864" fill="#d7723b"/><path d="m43.6422 64.7639c-.0108 0-.0214-.002-.0341-.0059-.036-.0107-.0651-.041-.0748-.077l-.1759-.5845c-.0184-.0624.0165-.1288.0758-.1454.0612-.0215.1244.0156.1429.079l.1263.4205 1.1808-.9698c.0495-.041.1215-.0293.1604.0215.0398.0498.031.1249-.0175.1658l-1.312 1.0742c-.0214.0128-.0466.0216-.0719.0216" fill="#63392e"/><path d="m43.7598 63.678-1.4102 1.1961-.381-1.2575" fill="#d7723b"/><path d="m42.2398 64.9093c.0107.0283.0311.0565.0593.0692h.0991c.0096-.0048.0174-.0097.0233-.0156l1.4112-1.1962c.0486-.0419.0553-.1122.0155-.1658-.0408-.0498-.1108-.0575-.1613-.0166l-1.279 1.084-.3304-1.0898c-.0194-.0634-.0836-.0986-.1438-.0771-.0603.0186-.0933.0849-.0758.1474z" fill="#63392e"/><path d="m45.3877 57.062c.2974-.3054.4315-.6625.3236-.9649-.1837-.5112-.9874-.6762-1.799-.3689-.414.1581-.7483.4078-.9543.686-1.2382 1.0654-1.7154.5444-1.7154.5444-.1253-.1902-.3469-.3649-.6259-.4752-.2342-.0907-.4684-.1161-.6638-.0907-.2332.0322-.414.1444-.4781.3161-.1186.3239.2021.7473.7152.9424.103.0401.2041.0673.3042.083.0447.0136.0904.0214.137.0302.0002 0 3.3977.5718 4.7565-.7024m-.8145-.6128c.2235-.2741.5053-.4097.6279-.3053.1244.1073.0427.4156-.1808.6898-.2245.2713-.5063.4107-.6297.3014-.1235-.1024-.0419-.4126.1826-.6859m-4.1789.9416s-.0078.0059-.0116.0098c-.0487.0322-.1303.0176-.2187-.0391-.0485-.0264-.0991-.0673-.1448-.1171-.1418-.1493-.2011-.3249-.1341-.3951.0671-.0653.2362-.001.3771.1493.1398.1492.1981.3248.1321.3922" fill="#63392e"/><path d="m45.0202 56.8366c.2235-.2741.3052-.5825.1808-.6898-.1225-.1044-.4043.0293-.6279.3054-.2245.2712-.3061.5834-.1827.6869.1235.1073.4053-.0293.6298-.3025" fill="#4c2922"/><path d="m40.2601 56.9985c-.1409-.1503-.309-.2166-.3751-.1493-.0681.0673-.0088.243.1322.3951.0476.0498.0981.0907.1458.1171.0875.0566.171.0702.2176.0391l.0116-.0098c.0681-.0673.0098-.2429-.1321-.3922" fill="#4c2922"/><path d="m43.097 59.6328c-.3042.3474-.8251.3757-1.1624.0634-.3372-.3141-.3644-.8527-.0592-1.1981.3041-.3503.8241-.3757 1.1604-.0634.3381.3142.3654.8508.0612 1.1981" fill="#555759"/><path d="m42.4711 59.8494c-.0865-.0019-.4733-.0136-.653-.3092-.0924-.1532-.0885-.3152-.0866-.3961.001-.0527.0069-.1005.0156-.1444.2701.0156.5072.1278.8115.2703.2245.1053.381.1824.5316.3161-.0369.0488-.0836.0956-.14.1366-.1836.1355-.3819.1297-.4791.1267" fill="#f495a8"/><path d="m42.5245 59.9978c-.0214 0-.0418 0-.0583 0-.3547-.0108-.6278-.1464-.7687-.3776-.1157-.1913-.1099-.3942-.1079-.4791 0-.0576.0078-.1152.0184-.1707.0146-.0722.0787-.122.1487-.1181.2955.0215.5463.1386.8611.2849.2323.1092.4004.1882.5666.3395.0573.0536.0651.1415.0185.201-.0487.0653-.106.121-.1692.1677-.1894.1368-.3886.1524-.5092.1524m-.6491-.8323c-.002.0721 0 .1883.0641.2975.0903.1493.276.2293.5365.241l-.0039.1454.0039-.1454c.0865.002.2478.0059.3946-.1014l.0019-.002c-.102-.0663-.2186-.1239-.3732-.1931-.243-.1161-.4324-.2049-.6239-.242" fill="#63392e"/><path d="m42.4857 60.0592c-.2314 0-.4616-.0839-.6473-.2557-.3946-.3678-.4257-.9981-.0691-1.4059.3567-.4049.968-.4371 1.3635-.0702.3946.3659.4258.9991.0701 1.404-.1905.2176-.4529.3278-.7172.3278m0-1.6947c-.1866 0-.3713.0741-.5044.2283-.2507.2868-.2284.7308.0485.9894.278.2586.7086.2361.9612-.0498.2507-.2868.2274-.7318-.0506-.9903-.1291-.1181-.2915-.1776-.4547-.1776" fill="#63392e"/><path d="m55.1227 52.9397c0-.0439-.001-.0878-.0029-.1307.0009.0439.0029.0869.0029.1307" fill="#259b93"/><path d="m55.1227 53.0188c0 .0264-.001.0518-.002.0781 0-.0264.001-.0518.002-.0781" fill="#259b93"/><path d="m55.1227 52.9397v.079c0-.0282 0-.0526 0-.079" fill="#259b93"/><path d="m41.0697 64.9795c.102-.7288.2769-1.2372.2769-1.2372v-1.123h-.3751l-.0282 1.0333s-.206.7512-.3683 1.3269z" opacity=".1"/><path d="m49.7037 64.9795h.7609l.2245-.6801 1.517-.9385-1.378-.8235.2585.2693-.6541.4146z" opacity=".1"/><circle cx="52.867" cy="63.7824" fill="#63392e" r=".1714"/><path d="m36.4368 49.2439s1.5978-1.5035-.5229-3.1348c0 0 2.0721.7151 1.3869 2.5231-.6851 1.8049-.864.6117-.864.6117z" fill="#e8e7e7"/><path d="m39.78 47.6975s1.7999-1.2343-.0583-3.1807c0 0 1.9437 1.0313 1.001 2.7094-.9427 1.6791-.9427.4713-.9427.4713z" fill="#e8e7e7"/><path d="m44.3381 47.1063s2.0866-.5865.9214-3.0373c0 0 1.5267 1.6118.1175 2.8977-1.4093 1.2859-1.0389.1396-1.0389.1396z" fill="#e8e7e7"/><path d="m48.7036 48.4829s2.1537.2049 1.8951-2.5104c0 0 .8824 2.0606-.8747 2.7553-1.757.6947-1.0204-.2449-1.0204-.2449z" fill="#e8e7e7"/><path d="m35.7702 49.4449c-.2721.6439.4859 2.8109.4859 2.8109s2.3693-2.4733 4.7699-2.9427l.1341-3.0274s-4.7669 1.6957-5.3899 3.1592z" fill="#f2f2f2" stroke="#63392e" stroke-miterlimit="10" stroke-width=".25"/><path d="m44.1515 48.7503s5.314.8917 8.114 3.1475c.5384.4371.6852-2.727.6852-2.727s-3.2188-2.9065-9.809-3.2402z" fill="#f2f2f2" stroke="#63392e" stroke-miterlimit="10" stroke-width=".25"/><path d="m35.3562 44.3304c.7988-.4244 1.4033-.7054 2.2284-1.0722.8018-.3591 1.9234-.6205 2.7669-.8537.4296-.119 3.2616-.3708 4.2334-.2527.0126.0019 2.5725.5034 2.5862.5005.343-.0878.2497-.524.1856-.6625-.2508-.5376-5.8428-1.7963-10.8994.839-2.1487 1.1201-3.694 1.9269-3.1857 2.4762" fill="#f6f7f7"/><ellipse cx="48.0272" cy="42.4747" fill="#f6f7f7" rx=".3577" ry=".3239"/><path d="m36.2561 52.2539s.1108.5864.2002.4907c2.313-2.4791 4.7989-3.047 4.7989-3.047l-.2293-.3883c.0001 0-2.1886.3912-4.7698 2.9446z" fill="#63392e" opacity=".1"/><path d="m44.0552 49.2293.0962-.4782s5.3899 1.0275 7.9419 3.0695c0 0-.134.3454-.2089.2937-3.276-2.0996-7.8292-2.885-7.8292-2.885z" fill="#63392e" opacity=".1"/><path d="m44.1515 48.7503-.1351-.3738-.136-.3853-.0515-.1405-.0059-.0176-.0573-.1609-1.7717-4.9526c-.0738-.2068-.2633-.32-.4743-.2838-.2099.0361-.3537.2078-.3586.4273l-.1059 5.0149-.002.1668-.0039.1668-.0233 1.0918v.0088l.0009.0088c.0069.0721.1166.6996 1.6745.5366h.002c.6424-.0654 1.0807-.2586 1.3052-.565.1876-.2625.1487-.5014.1448-.5288zm-1.4792.8195c-1.1799.1239-1.3471-.2254-1.3665-.2761l.0165-.763c.3469.3259 1.07.8205 2.1925.7026.0321-.003.0632-.0069.0962-.0118.0292-.0029.0603-.0087.0914-.0136-.0224.0205-.0486.042-.0777.0624-.1691.1249-.4568.2468-.9505.2975.002.001 0 .002 0 .002m-1.2323-6.6979c.002-.0907.0622-.1347.1195-.1454l.0059-.001c.0593-.0098.1331.0098.1652.0985l.0962.2712c-.0583-.0215-.1166-.041-.1721-.0643-.0728-.0303-.1448-.0624-.2147-.1015zm.3236.5014c.0593.0215.1195.0362.1817.0537l.4296 1.1972c-.0797-.0117-.1555-.0244-.2313-.0459-.2605-.0624-.5055-.1707-.7328-.3161l.0214-1.0206c.1069.0498.2178.0956.3314.1317m.4792 1.5211c.0796.0146.1583.0254.24.0332l.415 1.16c-.0982 0-.1925-.0078-.2818-.0185-.551-.0595-.9583-.2829-1.2323-.4966l.0204-.9815c.2594.1483.5412.2498.8387.3034m.4664 1.4762c.0933.0098.1905.0108.2916.0069l.4024 1.1269c-.1147.0137-.2245.0205-.3305.0205-.8814.0059-1.4539-.4078-1.7182-.6566l.0194-.9415c.3217.2106.7649.4067 1.3353.4438m-1.3741 1.5182.0135-.6528c.3538.2771.9602.6069 1.8154.5757.072-.0019.1439-.0068.2177-.0146.0398-.0039.0816-.0118.1224-.0186l.0156.043.0583.162.0573.161.2419.6772c0 .0127.001.0302-.0019.0594-.1225.0244-.241.0469-.3538.0605-1.1506.1317-1.8378-.4361-2.0952-.7084-.0448-.0459-.0758-.0839-.0953-.1054v-.0692z" fill="#faea75"/><path d="m17.6571 30.333c-.3826.2168-.6698.3795-.8607.488-.2178-.3814-.3817-.6652-.4915-.855-.2197-.3859-.3853-.6734-.4933-.8631-.2187-.3823-.3827-.6689-.4915-.8595-.109-.1881-.2053-.3571-.2881-.5008-.0846-.1464-.1531-.2693-.2071-.3624-.2178-.3805-.3817-.6652-.4897-.8567.3818-.2169.668-.3806.8588-.4881.7688-.4374 1.345-.7655 1.7268-.9824.2197.3805.3817.6661.4915.855-.8625.4908-1.4368.818-1.7268.9824.2485.4348.4124.7212.4951.865.6473-.3696 1.0804-.6155 1.2991-.7384.2458.4284.4088.7131.4916.8567-.6473.3679-1.0803.6155-1.3.7394.2475.4311.4123.7194.4942.8631.2179.3823.3827.6679.4916.8568z" fill="#fff"/><path d="m20.6163 23.5173c.4402.7646 1.0956 1.9107 1.9698 3.439.0693.1202.0873.245.0513.3733-.0379.1337-.1135.2331-.2305.2982-.3853.2196-.9615.5486-1.7268.9843-.1207.0687-.2467.0831-.3781.0442-.1324-.0334-.2342-.1102-.3016-.2304-.1647-.2874-.4114-.7194-.7409-1.2933-.1368-.2387-.3061-.5323-.5095-.8866-.2071-.3634-.4466-.7827-.722-1.26-.0667-.1174-.081-.2422-.0451-.3769.036-.1284.1135-.2259.2341-.2928.3835-.2179.9579-.546 1.7268-.9843.117-.0668.2413-.0831.3745-.0506.1333.0408.2314.1185.298.2359zm.0009 3.9949c.1954-.1085.4826-.2739.8661-.4916-.0216-.0389-.0549-.0967-.0963-.1708-.3079-.536-.7688-1.3412-1.3828-2.4131-.1908.1066-.4798.272-.8652.4916.1639.2892.4105.7186.7382 1.2915.1638.2855.4123.7175.74 1.2924z" fill="#fff"/><path d="m24.0689 21.5525c.4384.7655 1.0965 1.9106 1.9707 3.439.0684.1202.0873.2449.0512.3733-.0378.1347-.1152.2341-.2305.3019-.3853.2178-.9614.5468-1.7267.9806-.1224.0696-.2476.0832-.3782.0443-.1323-.0326-.2322-.1094-.3025-.2295-.1657-.2875-.4123-.7186-.7418-1.2943-.1359-.2377-.3061-.5305-.5077-.8866-.2071-.3634-.4484-.7827-.7221-1.259-.0666-.1175-.0819-.2423-.045-.3787.036-.1274.1135-.226.2341-.2928.3818-.2179.957-.546 1.7259-.9833.1179-.0669.2422-.0832.3745-.0516.1324.0414.2324.1192.2981.2367zm.0017 3.9966c.1945-.1112.4826-.2765.8661-.4935-.0216-.0389-.0559-.0967-.0973-.1708-.307-.536-.7679-1.3404-1.3828-2.4141-.1908.1093-.4808.2729-.866.4916.1657.2892.4105.7194.7382 1.2915.1639.2884.4114.7196.7418 1.2953z" fill="#fff"/><path d="m27.5205 19.5885c.4385.7646 1.0957 1.9134 1.9698 3.439.0685.1202.0865.2467.0513.3733-.0378.1338-.1143.2332-.2305.301-.289.1646-.7211.4094-1.2991.7385-.0954.0533-.2367.1337-.4285.2431-.0973.0569-.2413.1373-.4322.2467-.2736-.4772-.6167-1.0719-1.0263-1.7905-.4106-.7131-.8886-1.55-1.436-2.5063.1666-.0949.4195-.2386.7535-.4302.0234-.0127.0586-.0335.1044-.0597.2881-.1645.722-.4094 1.3001-.7393.117-.0669.2412-.0832.3745-.0497.1333.0389.2324.1166.299.2341zm0 3.9967c.1963-.1103.4844-.2757.867-.4935-.0226-.0389-.0549-.0967-.0982-.1708-.3061-.5342-.767-1.3395-1.3828-2.4131-.1908.1075-.4789.272-.8652.4935.1647.2874.4114.7167.7392 1.2897.1657.2855.4124.7184.74 1.2942z" fill="#fff"/><path d="m34.5804 16.1441c-.4312.2441-.7166.4058-.8615.4881.9876 1.7226 1.643 2.8714 1.9725 3.4417-.4339.2458-.722.4094-.8679.4917-.984-1.7155-1.6412-2.8651-1.9698-3.4408-.4286.2441-.7157.4085-.8607.4899-.1224-.2133-.225-.3922-.3079-.536-.0828-.1447-.1449-.2513-.1846-.3199 1.2955-.7394 2.1562-1.2283 2.5865-1.4723.218.3813.3836.6678.4934.8576z" fill="#fff"/><path d="m38.3418 15.7121c.1171-.0651.2431-.0822.3772-.0442.1287.0353.2278.1121.2971.2322.2169.3823.5464.9545.9858 1.7199-.1908.1094-.4781.2721-.8607.4908-.2197-.3814-.5465-.9535-.9849-1.7199-.1908.1085-.4807.2729-.866.4926.2178.3815.5465.9545.9848 1.7182-.1908.1085-.478.2712-.8606.4899-.2179-.3823-.5474-.9545-.9849-1.7182-.1098-.1907-.2719-.4772-.4915-.8595-.108-.1889-.2467-.4275-.4114-.714-.1648-.2892-.3556-.6227-.5743-1.0031.1917-.1085.478-.2712.8597-.4899.2889-.1636.722-.4113 1.2999-.7394.1171-.0668.2413-.0831.3737-.0497.1324.0398.2295.1157.2962.2332.1648.2864.4124.7176.7428 1.2933.0665.1157.0828.2414.0512.3733-.0397.1281-.117.2285-.2341.2945zm-.677-.1799c-.0197-.0343-.0486-.085-.0864-.15-.0918-.16-.2269-.3959-.4078-.714-.1918.1075-.4798.272-.8669.4916.1098.1925.2736.4817.4951.865.1944-.1103.4843-.2756.866-.4926z" fill="#fff"/><path d="m40.9922 11.3584c.4925.8595 1.2298 2.1466 2.2147 3.8656.0684.1193.0864.2449.0522.3714-.0378.1356-.1135.2359-.2305.301-.3871.2215-.9615.5477-1.7268.9843-.1224.0687-.2475.0832-.3781.0443-.1324-.0335-.2341-.1103-.3025-.2296-.2449-.4275-.5528-.9644-.9219-1.6088-.37-.6462-.8004-1.3982-1.2938-2.2559.1918-.1093.4781-.272.8616-.4899.4358.7629 1.0921 1.9098 1.9698 3.4399.1945-.1102.4817-.2739.8652-.4926-.4375-.7646-1.0957-1.9115-1.9698-3.4408.191-.1084.4764-.271.8599-.4889z" fill="#fff"/><path d="m44.3224 11.174c-.055-.0976-.1377-.2404-.2475-.432-.1909.1058-.4807.272-.8661.4908.3295.5757.8229 1.4389 1.4782 2.584.1945-.1121.4844-.2748.8661-.4917-.0559-.0967-.1369-.2431-.2467-.4338.1908-.1094.4772-.2721.8598-.489.109.1898.2718.4754.4915.856.0676.1201.0856.2458.0504.3714-.0369.1356-.1134.2359-.2295.3019-.3863.2196-.9615.5468-1.7268.9833-.1215.0687-.2484.0831-.3763.0452-.1332-.0334-.2341-.1102-.3042-.2304-.1648-.2875-.4124-.7194-.741-1.2942-.1359-.2378-.3061-.5306-.5077-.8876-.208-.3616-.4475-.7809-.722-1.2572-.0657-.1175-.0829-.2441-.0459-.377.035-.1273.1143-.2268.2341-.2946.3826-.2179.9578-.545 1.7267-.9824.1171-.0669.2412-.0832.3727-.0506.1324.0389.2305.1166.2989.2331.1099.1934.2737.4817.4934.8623-.1892.1111-.4746.2739-.8581.4925z" fill="#fff"/><path d="m49.1254 9.5761c.2737.479.685 1.1949 1.2315 2.1511-.1908.1093-.4772.272-.8607.4899-.2187-.3815-.5456-.9535-.984-1.7191-.1908.1085-.4798.2721-.8651.4935.2169.3814.5464.9545.9848 1.7191-.1918.1075-.4789.272-.8597.4889-.2745-.4773-.6158-1.0738-1.0254-1.7895-.4105-.7167-.8886-1.551-1.4368-2.5072.1908-.1094.4781-.272.8607-.4908.2188.3814.5473.9545.9858 1.7199.0423-.0243.1035-.0605.1864-.1066-.063-.4718-.1585-1.1795-.2827-2.1195.2152-.122.5384-.3063.9723-.5522.0378.4817.0982 1.2093.1774 2.1782.0549-.0307.136-.0777.2458-.1383.1171-.0669.2413-.085.3746-.0533.1294.0416.2284.1194.2951.2359z" fill="#fff"/><path d="m51.3616 7.1684c-.0559-.0967-.1387-.2395-.2476-.432-.1917.1057-.4798.272-.8669.4916.1098.1917.2736.48.4951.864.2881-.1645.722-.4112 1.2991-.7375.1161-.0668.2413-.0831.3735-.0533.1305.0398.2305.1166.2971.2342.2206.385.5492.958.9858 1.7199.0693.1184.0874.2449.0513.3733-.0378.1337-.1152.2331-.2305.3-.3871.2187-.9615.5477-1.7267.9833-.1225.0677-.2485.084-.3782.0452-.1324-.0325-.2341-.1102-.3025-.2304-.109-.1889-.2737-.4754-.4915-.8568.1908-.1075.4771-.2712.8607-.4889.0522.0949.1359.2359.2466.4338.1954-.1112.4844-.2765.8661-.4935-.1116-.1943-.2764-.4826-.4951-.8649-.2881.1663-.7184.4103-1.2928.7348-.1224.0687-.2466.0876-.3745.0533-.1351-.037-.2368-.1165-.3061-.235-.109-.1907-.2467-.4329-.4106-.7194-.1647-.2865-.3573-.6218-.5743-1.0023-.0667-.1166-.0837-.2422-.0459-.3769.0351-.1274.1134-.2278.235-.2938.3817-.2179.9578-.546 1.7267-.9843.1171-.0669.2413-.0832.3727-.0506.1314.0398.2305.1175.2971.2332.1098.1943.2745.4817.4933.8631-.1889.1085-.4761.272-.8569.4899z" fill="#fff"/><path d="m101.6022 37.275-2.8767-1.6986-.1594-.0897-.1497-.079-.4364-.2498-.1312-.08-.0894-.0508-1.7523-1.0401h-.0097l-1.3635-.7883-.4373-.2606-1.7921-1.04-.6774-.4098-.0398-.0205-3.4637-2.0177-1.1351-.6703-1.035-.6-.2381-.1395-.6667-.3912-1.246-.7288-.5364-.3093-.7969-.4703-1.7513-1.0186-.1419-.0907-.2274-.1308-.8659-.4995-.2381-.1396-.7668-.439-.1593-.1005-.6774-.3892-.2284-.1298-.2497-.1503-.626-.3708c-.0116 0-.0116-.0098-.0116-.0098l-.7852-.4595-.6376-.3699-.9446-.56-2.6892-1.5687-.6958-.4098-.1701-.0995-.7056-.4009-.2994-.1795-1.2654-.7493-1.4714-.8606-.4703-.2704-.965-.56-2.1099-1.2391-.6375-.3581-.1478-.0908-.9174-.5385-.9447-.5464-4.7563-2.7884-2.4802 1.4196-3.4034 1.9484-.6074.3512-.0691.0401-1.2954.7385-.4976.2907-4.0517 2.3183-.0681.04-.2896.1697-.2974.1697-.3091.1698-.2896.1697-.1593.0907-.14.0692-.2984.1698-.2594.1503-.4587.2693-2.348 1.3503-4.141 2.3689-1.8213 1.0391-1.692.9776-.1798.1005-1.1545.6595-4.2499 2.4285-.3596.2098-.278.159-1.4237.8099-3.5638 2.0586h-.0098l-7.4266 4.2472-.1788.1093-1.8806 1.08-.2984.1611-.0505 9.503-.0194 4.1983v.0898l-.0194 3.7875v.32l-.0204 4.3866-.0496 11.9139-.0195 4.2471v.1785l-.031 7.2658v.0907l-.0098 2.1192-.0106 1.8967v.6011l-.0097 2.4879.7464.4381 2.1798 1.2801.2896.1697.1186.0692.0506.0293.5267.3122.3683.2098 2.5083 1.4771 2.3295 1.3592h.0204l.5073.3004.07.0498.0506.0215h.0292l.9757.5884.5676.3307 1.0048.5884.2585.1503.1195.0692.7172.4205.588.3396.6171.3698.4879.279.5568.32.5987.3493 1.383.8108 1.9602 1.1484 2.0817 1.2088.4276.2606.1885.1102h.0098l.3877.2205 2.9671 1.7377 1.2935.7493.0204.0215.6861.4087 6.4104 3.7476.4878.2897 1.3936.8001.8474.5005.2284.1396.1099.0604.4276.2596.1497.0799.3178.1893.0903.0508 1.1439.6586v.0097l.7464.4313.1293.0799.3577.2098.1798.0995.1487.081.2692.1503.2488.159.208.1298.24.1396.0602.0302.0292.0196 2.9953 1.7484.1788.1024.4295.2498.2178.1298.5675-.3112.1399-.079 1.8427-1.0606 1.6006-.9191.1312-.08.5967-.3288.1798-.1092 2.3985-1.3698.1788-.1093.3995-.2312.0097-.0098.9456-.5278.2984-.1707.3285-.1893.0797-.04 1.4636-.8498.1594-.0907.3275-.1795.5996-.3493.1185-.0702.2867-.16.0399-.0303.2293-.1297.1303-.0693.7464-.4205.3577-.2097.0894-.0498.9058-.5191.2507-.1425.1788-.1083.3965-.2205 1.3539-.7786.1691-.1014.7066-.3981.519-.2897.0194-.0107.1195-.0693.4674-.2712.6862-.398 2.5287-1.4499.2099-.12.5861-.3298.1293-.0692.0098-.0098.6297-.36.2372-.1405.2196-.1298.5772-.3191.2779-.16 1.0263-.6001.3887-.2205.2382-.1405.0893-.0498.1001-.0595.3567-.2.3392-.1893 2.7873-1.6.2099-.1191.2488-.1405.0603-.04.4276-.2498.0796-.0401v-.0101l.2488-.1308.0098-.0107.2488-.1396.3003-.1697 2.4189-1.3893.1594-.0898.1399-.0799.0691-.0401.0893-.0508 1.5831-.9093.2974-.1697.2304-.1308.0107-.0098.8553-.4908.2381-.1581.069-.0293.1303-.08h.0388l.0408-.0214.4772-.279.0301-.0205.4568-.2606.8863-.5093.0194-.0097 2.1226-1.2108.7162-.4088 2.2906-1.3103.0487-.0293.0408-9.3138.0098-1.6186v-1.0488l.0204-3.9885.1583-37.1144zm-1.8602 36.6569-.0204 4.7183v.3679l-.0107 2.1192-.0408 8.2346-1.1934.681-1.3451.7688-1.6833.9698-.1876.1083-1.7911 1.0294-.6181.3601-.1089.0604-.0894.0498-.0204.0108-.448.2585-.1691.1005-.2683.1406-.4489.2605-.1185.069-.1098.0615-.3081.1794-.4976.2888-2.2819 1.3103-.6667.3795-.0282.0108-.0894.0507-.0701.0401-.1409.08-3.4627 1.9884-.308.1795-.1322.0702-.1769.1005-.3392.1892-.1293.079h-.0214l-.2284.1406-.9359.5405-.1982.12-.0506.0293-.0388.0205-.5667.319-.2109.1191-.517.3014h-.0097l-.2391.1396-.1691.1005-.2702.1493-.0895.0488-3.3353 1.9007-.4063.239-.5889.3396-.208.12-2.3091 1.3181-.1798.1015-.4189.2283-.3275.1912-.0398.0303-.4189.238-.139.08-.0797.0508-.3575.2098-.1497.0799-.7367.4196-.1399.0799-.2274.1406-.1099.0594-.1787.1015-.2391.1405-.0302.0205-.1302.0693-.935.5288-.5053.2907-.381.2195-.2585.1503-.0894.0498-.9456.5395-.3683.2098-1.4422.8293-.2206.1298-.2186.1297-.3091.1805-.1487.0702-.8076.4684-.07.04-.6162.361-1.0252.5786-.6075.3503-.934.5396-1.3518.7805-.5306.2985-.8358.4703-.6065-.359-.4179-.2391-.3091-.1804-2.1089-1.2294-.0408-.0195-.1108-.0703-.0603-.0302-.1389-.08-.3684-.2098-.3284-.1892-.1692-.1093-.0894-.0595-.5967-.3395-.3985-.2313-.1303-.0799-.0787-.0401-.8853-.518-.519-.3122-.448-.2596-.2877-.16-.1-.0594-.14-.079-.6569-.3806-.1001-.0702-.0204-.0098-2.9176-1.6986-3.0341-1.7796-3.1371-1.8382-.7367-.4302-.0194-.0108-2.6764-1.5679-.5385-.3112-.7872-.4693-.2682-.1494-.0292-.0107-.3188-.1883-.1399-.08-.3577-.2107-3.3238-1.9582-.0505-.0302-.1788-.0995-.587-.3406-2.3985-1.3981-.139-.0799-.0302-.0206-.5082-.2907-.588-.3503-.0895-.0498-1.0554-.6195-.3091-.1795-.2876-.1707-.1205-.0604h-.0098l-4.7193-2.768-.3975-.2401-.1876-.1102-.6278-.3698-.6667-.3893-.0797-.0498-.0311-.0107-.3867-.2205-3.0468-1.7991v-.2897l.0107-1.1387v-1.1903l.0097-1.8977.0098-1.6177v-.5307l.0311-6.216.0097-1.4996v-.0097l.0098-3.3788.0496-11.5216.0204-4.8364.0194-4.1671v-1.2791l.0195-4.2178.0301-7.1458.5181-.2995 1.1953-.6801 1.4627-.8292.6967-.4088 6.4502-3.6978.3586-.201 2.0992-1.1991.5481-.319.2099-.121 4.7582-2.7387.2876-.1697.3791-.2 1.8718-1.0801.0292-.0195 9.566-5.4774 2.2702-1.2986.7162-.4196.2994-.1687h.0098l.1487-.0897h.0107l.418-.2498.309-.1698.2984-.16.8563-.4995 1.7911-1.0304.069-.04.6084-.3493 2.865-1.6489.7969-.4508 1.104-.6283 1.1157-.6293 4.5891 2.6782.1682.1014.3198.1883 1.5432.9094.2576.1512 2.6084 1.5182.2887.1697.5374.3112 1.7124.9991.2594.1493.5073.2995.8951.5288.3295.1912.7454.4293.7959.4596.8863.521.2897.1697.2993.1795.2993.1697.278.1697.0389.0205.2595.1494.1992.12 2.727 1.5893.3888.2205.3596.2195.1468.0898.6793.3902 1.9204 1.1289.7162.4195.965.5698.1895.1093.449.2703h.0098l.9553.56 1.6405.9591 3.4364 2.008.0389.0214.1185.0703 2.0409 1.1981.8261.481.4383.2586.239.1405.2789.1601 1.3043.76.1399.08.0388.0205.3285.199 1.4336.8293.2079.121.2596.1493 1.5841.9298 1.931 1.1289z" opacity=".1"/><path d="m41.29 40.7119.3778-.3594-.4824-.1011z" fill="#fffbdd"/><path d="m41.0287 40.2869-.4014.3024.5059.1597z" fill="#fffbdd"/><path d="m40.9932 40.1306.0321-.0073z" fill="#fffbdd"/><path d="m41.4951 40.1517.1027.0212-.5635-.5901c.0365.1637.0743.3311.1128.4962.1151.0246.2335.0487.348.0727" fill="#fffbdd"/><path d="m40.8757 39.6141-.2628.7846c.1228-.0934.2513-.1896.3769-.2844-.0383-.1667-.0767-.3356-.1141-.5002" fill="#fffbdd"/><path d="m41.4558 41.4792.2278-.5482c-.0949.0904-.1942.1828-.2901.2738z" fill="#fffbdd"/><path d="m41.2991 41.5144c-.0201-.09-.0412-.1824-.0614-.2734-.1266-.0404-.2555-.0813-.3793-.1213z" fill="#fffbdd"/><path d="m40.4375 40.699.1822.0573c.1947.061.3932.1237.5897.1857.0153.0053.0308.0068.0456.0043.0019 0 .0038-.0004.0038-.0004.0178-.0043.0331-.013.0476-.0265.0411-.04.0834-.0804.1255-.1189l.4536-.4337c.0063-.0058.0245-.0231.0284-.052.0033-.0261-.0054-.0501-.0255-.0713-.3136-.3282-.6262-.6551-.9292-.9727-.0143-.015-.0345-.0318-.0676-.0347l-.0053-.0005-.0211.0053-.0105.0044c-.0303.0173-.0403.0467-.0441.0581-.1123.3355-.2263.6759-.3376 1.0075l-.0926.2753c-.0091.026-.0091.0501.0019.0702.0073.0137.0226.032.0552.0426m.596-1.1162.5634.5901-.1017-.0212c-.115-.0236-.2325-.0481-.349-.0726-.0375-.1657-.0753-.3327-.1127-.4963m.2565 1.1291-.1046-.4602.4819.1007zm-.2963-.5818.0316-.0073zm-.118-.516c.0374.1646.0757.3336.1136.4996-.126.0953-.2536.1915-.3764.2849zm.153.6728.1045.4621-.5053-.1593z" fill="#f495a8"/><path d="m41.8989 40.5334c-.0259.001-.0441.0144-.0565.0265l-.2033.192c-.1165.1102-.2365.2234-.3548.3355-.1842-.0587-.3711-.1184-.5514-.1761l-.1199-.0386c-.021-.0067-.0431-.0139-.0661-.0207-.025-.0072-.0509-.0033-.0719.0116-.0201.0145-.032.0376-.032.0635-.001.0371.0234.0587.0234.0587.3107.2777.6105.5458.9004.8053.0101.0082.0288.026.0585.0318l.0077.0014.0326-.0077.0058-.0029c.023-.0149.0335-.0366.0402-.0515.1151-.2762.2326-.5574.3452-.8293l.0835-.1988c.0114-.0289.0239-.0592.0364-.0885.0105-.027.0077-.0568-.0087-.0795-.015-.0221-.0414-.0346-.0691-.0327m-.4431.9453-.0623-.2738c.0969-.091.1942-.1834.2901-.2734zm-.2181-.2377c.0202.091.0413.1834.0614.2734l-.4407-.3947c.1237.0399.2527.0809.3793.1213" fill="#f495a8"/><path d="m42.6919 40.2528c-.0461.0073-.0767.0511-.0701.0972.0078.0463.0509.077.0969.0698s.0767-.0506.07-.0972c-.0076-.0463-.0508-.077-.0968-.0698" fill="#f495a8"/><path d="m40.5545 42.4338c-.046.0072-.0772.051-.0701.0972.0078.0462.0509.0775.0969.0698.0456-.0073.0766-.0507.07-.0968-.0072-.0467-.0503-.0779-.0968-.0702" fill="#f495a8"/><path d="m40.0214 41.7613c-.0298-.0212-.0711-.0144-.0921.0154l-.0738.1021-.1017-.0741c-.0298-.0212-.071-.014-.0921.0154-.0221.0299-.0153.0712.0143.0929l.1017.0736-.0728.102c-.0211.0304-.0144.0722.0148.0929.0149.0106.0321.0145.0494.0116.0163-.0029.0321-.0116.0422-.0265l.0738-.1025.1026.0741c.0144.0101.0316.0139.049.0115.0162-.0029.0325-.012.0431-.027.0211-.0293.0144-.0712-.0153-.0928l-.1016-.0732.0729-.1025c.022-.0303.0152-.0717-.0144-.0929" fill="#faea75"/><path d="m42.8655 39.1674.0757-.1006c.0221-.0289.0163-.0707-.0124-.0929-.0298-.0217-.071-.0163-.0926.0126l-.0753.1006-.1006-.0761c-.0293-.0226-.0705-.0163-.0921.0126-.0221.0293-.0163.0711.0124.0933l.0997.076-.0757.1001c-.022.0294-.0163.0713.0124.0934.0148.0111.0331.0154.0509.0125.0163-.0029.0316-.0111.0422-.0255l.0757-.1006.0997.0765c.0153.0111.033.0154.0509.013.0163-.0034.0316-.0116.0422-.026.022-.0289.0163-.0703-.0124-.0924z" fill="#faea75"/><path d="m42.295 41.5481c-.0221.0289-.0158.0707.0124.0924l.1002.0765-.0762.1006c-.0221.0294-.0163.0712.0129.0934.0148.011.0331.0149.0504.0125.0163-.0029.0316-.0111.0422-.0255l.0757-.1006.1002.0765c.0153.011.033.0154.0504.0125.0162-.0029.0317-.0111.0426-.0255.0221-.029.0159-.0708-.0125-.0929l-.1002-.0761.0762-.1006c.0221-.0293.0163-.0707-.0128-.0929-.0289-.0226-.0706-.0163-.0922.0126l-.0757.1006-.0997-.0765c-.0303-.0222-.0715-.0159-.0939.013" fill="#faea75"/><path d="m41.9732 39.3098c.046-.0072.0772-.0506.0705-.0972-.0082-.0463-.0513-.0775-.0968-.0698-.0461.0073-.0767.0506-.0705.0972.0071.0463.0502.0775.0968.0698" fill="#faea75"/><path d="m39.8314 40.7187c-.0465.0072-.0776.051-.07.0967.0077.0467.0509.0775.0968.0703.0456-.0077.0767-.0511.0696-.0973-.0071-.0461-.0503-.0774-.0964-.0697" fill="#faea75"/><path d="m14.1929 32.3582-5.0734 2.9089c-.3036.1741-.6945.0681-.8686-.2355l-.0181-.0316c-.1741-.3036-.0681-.6945.2355-.8686l5.0734-2.9089c.3036-.1741.6945-.0681.8686.2355l.0181.0316c.1741.3036.0681.6945-.2355.8686z" fill="#fff"/><path d="m13.6262 30.6674-5.7147 3.2766c-.2222.1274-.5081.0498-.6355-.1723-.1274-.2222-.0498-.5081.1723-.6355l5.7146-3.2766c.2222-.1274.5081-.0498.6355.1723.1275.2221.0499.5081-.1722.6355z" fill="#fff"/><path d="m12.254 28.1641-.0325-.0566c-.0177-.0308-.0487-.0477-.0816-.0515-.5363-.3722-1.9515-.0374-3.3178.746-1.3216.7578-2.3421 1.8302-2.3699 2.5016-.0232.0332-.0274.078-.006.1153l.0166.0289c.0103.0498.0258.0974.0506.1408.0248.0433.0581.0808.096.1149l.5494.9581c.0295.0515.0957.0695.1472.0399l5.5883-3.2042c.0514-.0295.0694-.0958.0399-.1472l-.613-1.0691c-.0085-.0212-.0144-.0436-.0257-.0634-.0115-.0196-.0276-.0357-.0415-.0535zm-4.8236 2.6697c-.1139.1283-.2539.1901-.3126.1379s-.014-.1984.1-.3267c.1139-.1283.2539-.1901.3126-.1379s.0139.1984-.1.3267zm1.209-.1786c-.1629.0539-.315.0371-.3396-.0375-.0247-.0746.0874-.1787.2504-.2325.1629-.0539.315-.0371.3396.0375.0246.0745-.0875.1787-.2504.2325zm1.2379-1.0382c-.1629.0539-.315.0371-.3396-.0375-.0247-.0745.0874-.1786.2503-.2325s.315-.0371.3396.0375c.0247.0745-.0874.1787-.2503.2325zm1.1144-.6673c-.0616-.0488-.0251-.1973.0815-.3318s.2428-.204.3044-.1552.0251.1973-.0815.3318-.2429.204-.3044.1552zm.9554.0905c-.1066.1345-.2428.204-.3044.1552s-.0251-.1973.0815-.3318.2428-.204.3044-.1552.0251.1973-.0815.3318z" fill="#fff"/></svg>