<?xml version="1.0" encoding="UTF-8"?>
<svg width="111px" height="128px" viewBox="0 0 111 128" version="1.1" xmlns="http://www.w3.org/2000/svg" xmlns:xlink="http://www.w3.org/1999/xlink">
    <!-- Generator: Sketch 51.3 (57544) - http://www.bohemiancoding.com/sketch -->
    <title>Fry</title>
    <desc>Created with Sketch.</desc>
    <defs>
        <linearGradient x1="50%" y1="1.68384395%" x2="50%" y2="106.480305%" id="linearGradient-1">
            <stop stop-color="#01C7FF" offset="0%"></stop>
            <stop stop-color="#0000B8" offset="100%"></stop>
        </linearGradient>
        <path d="M92.053,27.139 L92.053,80.279 L92.043,80.289 L90.953,80.91 L90.623,81.099 L90.493,81.169 L89.613,81.679 L86.472,83.49 L86.272,83.609 L84.342,84.718 L84.182,84.808 L82.703,85.669 L82.232,85.939 L82.092,86.019 L81.622,86.289 L81.382,86.42 L81.352,86.43 L81.252,86.469 L81.142,86.539 L78.113,88.279 L77.293,88.75 L76.243,89.35 L76.203,89.379 L75.022,90.059 L74.972,90.09 L74.522,90.35 L74.512,90.36 L74.502,90.37 L74.492,90.37 L74.101,90.591 L74.081,90.601 L72.951,91.261 L72.081,91.781 L70.821,92.502 L70.701,92.572 L70.621,92.621 L70.471,92.711 L70.211,92.861 L70.181,92.871 L70.121,92.902 L70.02,92.961 L70.02,92.971 L69.241,93.422 L69.06,93.512 L69.04,93.532 L69,93.552 L67.99,94.132 L67.7,94.302 L67.65,94.333 L67.33,94.513 L67.09,94.654 L67.08,94.654 L67.01,94.693 L66.95,94.722 L66.37,95.074 L66.17,95.193 L61.75,97.744 L61.12,98.103 L61.059,98.132 L57.559,100.163 L53.519,102.493 L53.509,102.503 L53.079,102.753 L47.369,106.042 L46.808,106.362 L46.798,106.362 L46.478,106.551 L45.999,106.832 L44.579,106.012 L43.728,105.522 L43.699,105.512 L41.959,104.502 L38.43,102.461 L38.389,102.432 L36.319,101.243 L30.96,98.132 L30.271,97.743 L25.553,95 L25.183,94.789 L24.793,94.57 L24.563,94.439 L24.303,94.289 L24.233,94.25 L24.063,94.139 L23.973,94.09 L22.123,93.029 L21.553,92.699 L19.843,91.709 L17.333,90.25 L17.073,90.1 L16.623,89.84 L16.143,89.57 L15.243,89.049 L14.423,88.58 L14.333,88.529 L13.833,88.24 L13.823,88.228 L13.613,88.109 L13.603,88.109 L12.563,87.509 C12.553,87.499 12.553,87.499 12.543,87.499 L10.683,86.419 L9.663,85.829 L8.333,85.058 L7.613,84.628 L7.573,84.608 L7.553,84.598 L7.263,84.428 C7.263,84.428 7.253,84.428 7.243,84.418 L6.983,84.268 L6.963,84.258 L3.663,82.358 L0.253,80.387 L0.163,80.338 L0.083,80.297 L0.053,80.277 L0.053,27.137 L14.383,18.867 L16.373,17.707 L21.303,14.877 L22.883,13.957 L23.053,13.867 L24.713,12.917 L25.492,12.467 L25.873,12.247 L26.312,11.987 L27.413,11.337 L27.934,11.037 L30.213,9.737 L30.902,9.327 L32.302,8.527 L32.312,8.527 L32.363,8.497 L38.083,5.197 L38.273,5.087 L38.543,4.927 L44.613,1.417 L46.052,0.587 L47.113,1.207 L53.602,4.957 L56.203,6.457 L60.153,8.737 L61.493,9.507 L68.133,13.337 L69.173,13.947 L71.473,15.257 L72.343,15.757 L73.864,16.637 L75.233,17.427 L76.034,17.887 L76.124,17.947 L77.934,18.987 L81.714,21.167 L81.754,21.197 L81.754,21.207 L82.014,21.347 L82.274,21.507 L82.674,21.737 L83.594,22.267 L84.134,22.577 L86.074,23.697 L86.853,24.137 L87.293,24.387 L89.232,25.507 L92.053,27.139 Z" id="path-2"></path>
    </defs>
    <g id="Fry" stroke="none" stroke-width="1" fill="none" fill-rule="evenodd">
        <g id="gitcoin_octopuss">
            <polygon id="Shape" fill="#25E899" fill-rule="nonzero" points="111 95.99975 55.4989986 128 0 95.99975 0 32.00025 55.4989986 0 111 32.00025"></polygon>
            <path d="M102.053,38.139 L102.053,91.279 L102.043,91.289 L100.953,91.91 L100.623,92.099 L100.493,92.169 L99.613,92.679 L96.472,94.49 L96.272,94.609 L94.342,95.718 L94.182,95.808 L92.703,96.669 L92.232,96.939 L92.092,97.019 L91.622,97.289 L91.382,97.42 L91.352,97.43 L91.252,97.469 L91.142,97.539 L88.113,99.279 L87.293,99.75 L86.243,100.35 L86.203,100.379 L85.022,101.059 L84.972,101.09 L84.522,101.35 L84.512,101.36 L84.502,101.37 L84.492,101.37 L84.101,101.591 L84.081,101.601 L82.951,102.261 L82.081,102.781 L80.821,103.502 L80.701,103.572 L80.621,103.621 L80.471,103.711 L80.211,103.861 L80.181,103.871 L80.121,103.902 L80.02,103.961 L80.02,103.971 L79.241,104.422 L79.06,104.512 L79.04,104.532 L79,104.552 L77.99,105.132 L77.7,105.302 L77.65,105.333 L77.33,105.513 L77.09,105.654 L77.08,105.654 L77.01,105.693 L76.95,105.722 L76.37,106.074 L76.17,106.193 L71.75,108.744 L71.12,109.103 L71.059,109.132 L67.559,111.163 L63.519,113.493 L63.509,113.503 L63.079,113.753 L57.369,117.042 L56.808,117.362 L56.798,117.362 L56.478,117.551 L55.999,117.832 L54.579,117.012 L53.728,116.522 L53.699,116.512 L51.959,115.502 L48.43,113.461 L48.389,113.432 L46.319,112.243 L40.96,109.132 L40.271,108.743 L35.553,106 L35.183,105.789 L34.793,105.57 L34.563,105.439 L34.303,105.289 L34.233,105.25 L34.063,105.139 L33.973,105.09 L32.123,104.029 L31.553,103.699 L29.843,102.709 L27.333,101.25 L27.073,101.1 L26.623,100.84 L26.143,100.57 L25.243,100.049 L24.423,99.58 L24.333,99.529 L23.833,99.24 L23.823,99.228 L23.613,99.109 L23.603,99.109 L22.563,98.509 C22.553,98.499 22.553,98.499 22.543,98.499 L20.683,97.419 L19.663,96.829 L18.333,96.058 L17.613,95.628 L17.573,95.608 L17.553,95.598 L17.263,95.428 C17.263,95.428 17.253,95.428 17.243,95.418 L16.983,95.268 L16.963,95.258 L13.663,93.358 L10.253,91.387 L10.163,91.338 L10.083,91.297 L10.053,91.277 L10.053,38.137 L24.383,29.867 L26.373,28.707 L31.303,25.877 L32.883,24.957 L33.053,24.867 L34.713,23.917 L35.492,23.467 L35.873,23.247 L36.312,22.987 L37.413,22.337 L37.934,22.037 L40.213,20.737 L40.902,20.327 L42.302,19.527 L42.312,19.527 L42.363,19.497 L48.083,16.197 L48.273,16.087 L48.543,15.927 L54.613,12.417 L56.052,11.587 L57.113,12.207 L63.602,15.957 L66.203,17.457 L70.153,19.737 L71.493,20.507 L78.133,24.337 L79.173,24.947 L81.473,26.257 L82.343,26.757 L83.864,27.637 L85.233,28.427 L86.034,28.887 L86.124,28.947 L87.934,29.987 L91.714,32.167 L91.754,32.197 L91.754,32.207 L92.014,32.347 L92.274,32.507 L92.674,32.737 L93.594,33.267 L94.134,33.577 L96.074,34.697 L96.853,35.137 L97.293,35.387 L99.232,36.507 L102.053,38.139 Z" id="Shape" fill="url(#linearGradient-1)" fill-rule="nonzero"></path>
            <g id="Fry" transform="translate(10.000000, 11.000000)">
                <mask id="mask-3" fill="white">
                    <use xlink:href="#path-2"></use>
                </mask>
                <use id="Mask" fill="#FFCE08" fill-rule="nonzero" xlink:href="#path-2"></use>
                <g mask="url(#mask-3)">
                    <g transform="translate(-32.000000, 14.000000)">
                        <path d="M98.9286514,63.848507 L98.9286514,65.3392021 L100.785117,64.5938546 L100.785117,66.2428364 L101.492546,66.7672826 L101.215252,68.1249703 C105.861311,68.8587153 108.922881,68.8587153 110.399965,68.1249703 C112.615589,67.0243527 117.651595,65.6439138 117.680375,65.8088119 C117.699561,65.9187441 116.840457,63.7525757 115.103063,59.3103068 L109.938716,49.974114 L104.276953,49.974114 L100.785117,48.5203654 L98.9286514,63.848507 Z" id="Path-28" stroke="#000000" stroke-width="0.8" fill="#98C367" fill-rule="nonzero"></path>
                        <g id="ETH-Copy" stroke="none" stroke-width="1" fill="none" fill-rule="evenodd" transform="translate(101.139084, 62.239756) rotate(4.000000) translate(-101.139084, -62.239756) translate(99.870628, 60.971299)">
                            <polygon id="Shape" fill="#000000" fill-rule="nonzero" points="2.0918792 1.30844815 1.28301647 1.74875537 0.487047578 1.30844815 1.28940173 0.0908860876"></polygon>
                            <polygon id="Shape" fill="#000000" fill-rule="nonzero" points="2.0884937 1.51720917 1.28940173 2.49813352 0.46947373 1.51895252 1.27968772 1.93932137"></polygon>
                        </g>
                        <g id="ETH-Copy-6" stroke="none" stroke-width="1" fill="none" fill-rule="evenodd" transform="translate(103.017561, 66.270627) rotate(-11.000000) translate(-103.017561, -66.270627) translate(101.749105, 65.002171)">
                            <polygon id="Shape" fill="#000000" fill-rule="nonzero" points="2.0918792 1.30844815 1.28301647 1.74875537 0.487047578 1.30844815 1.28940173 0.0908860876"></polygon>
                            <polygon id="Shape" fill="#000000" fill-rule="nonzero" points="2.0884937 1.51720917 1.28940173 2.49813352 0.46947373 1.51895252 1.27968772 1.93932137"></polygon>
                        </g>
                        <g id="ETH-Copy-5" stroke="none" stroke-width="1" fill="none" fill-rule="evenodd" transform="translate(113.193837, 62.301790) rotate(4.000000) translate(-113.193837, -62.301790) translate(111.925380, 61.033333)">
                            <polygon id="Shape" fill="#000000" fill-rule="nonzero" points="2.0918792 1.30844815 1.28301647 1.74875537 0.487047578 1.30844815 1.28940173 0.0908860876"></polygon>
                            <polygon id="Shape" fill="#000000" fill-rule="nonzero" points="2.0884937 1.51720917 1.28940173 2.49813352 0.46947373 1.51895252 1.27968772 1.93932137"></polygon>
                        </g>
                        <g id="ETH-Copy-11" stroke="none" stroke-width="1" fill="none" fill-rule="evenodd" transform="translate(115.710946, 64.397307) rotate(-17.000000) translate(-115.710946, -64.397307) translate(114.442490, 63.128850)">
                            <polygon id="Shape" fill="#000000" fill-rule="nonzero" points="2.0918792 1.30844815 1.28301647 1.74875537 0.487047578 1.30844815 1.28940173 0.0908860876"></polygon>
                            <polygon id="Shape" fill="#000000" fill-rule="nonzero" points="2.0884937 1.51720917 1.28940173 2.49813352 0.46947373 1.51895252 1.27968772 1.93932137"></polygon>
                        </g>
                        <path d="M100.492243,64.8614764 C103.310541,64.3683546 104.971023,64.2971337 105.473688,64.6478137 C106.227685,65.1738338 112.824408,65.4785066 114.555558,64.0491664 C114.60709,63.9285228 114.60709,62.4235419 114.555558,59.5342236" id="Path-30" stroke="#000000" stroke-width="1" fill="none" fill-rule="nonzero"></path>
                        <path d="M121.70986,32.0668514 C124.612295,34.0994978 125.912779,36.2048706 125.611312,38.3829697 C125.398859,38.2764572 114.247682,41.1839828 110.830881,46.0020535 C110.72246,45.9634952 115.024574,32.0500537 117.688343,30.8768885 C119.464188,30.0947784 120.804694,30.4914327 121.70986,32.0668514 Z" id="Path-32" stroke="#000000" stroke-width="1" fill="#98C367" fill-rule="nonzero" stroke-linecap="round" stroke-linejoin="round"></path>
                        <path d="M102.194463,50.0131247 L101.393604,59.2018259 C102.730227,60.1591393 103.155895,61.3671823 102.670608,62.825955 C102.698032,62.8773868 103.347357,62.8000885 104.618585,62.5940602 C106.252246,63.9763885 107.591631,64.5950259 108.636739,64.4499723 C109.681848,64.3049188 110.700237,63.9525812 111.691905,63.3929598 L112.082917,60.8163504 L109.594605,50.2926341 L103.841233,49.4205046 L102.194463,50.0131247 Z" id="Path-29" stroke="#000000" stroke-width="1" fill="#2D5515" fill-rule="nonzero"></path>
                        <path d="M118.679452,28.2450202 L122.807185,31.294506 C115.625288,36.4851144 111.424042,41.6806683 110.203445,46.8811676 C110.131937,46.8008371 109.766773,46.8008371 109.107956,46.8811676 L112.755109,28.9774181 L118.679452,28.2450202 Z" id="Path-31" stroke="#000000" stroke-width="1" fill="#98C367" fill-rule="nonzero"></path>
                        <path d="M43.9815032,59.9195109 C43.6191906,60.5178779 41.2891193,69.2147586 36.9912895,86.0101527 L20.0569271,85.7526597 L23.2824073,79.8842652 L15.7492453,85.2893292 L14.3516791,87.5338392 L0.0398540544,76.0597895 C13.9669593,65.5412102 22.8945749,59.7222716 26.8227008,58.6029736 C32.7148897,56.9240266 39.5066258,55.4735458 39.9087762,55.5158775 C40.3109267,55.5582091 45.1512524,51.9892661 45.8586071,52.635167 C46.5659618,53.2810679 44.5249721,59.0219603 43.9815032,59.9195109 Z" id="Path-2" stroke="#000000" stroke-width="1" fill="#930200" fill-rule="nonzero" stroke-linecap="round" stroke-linejoin="round"></path>
                        <polygon id="Path-33" stroke="none" fill="#FFFFFF" fill-rule="nonzero" points="43.6644849 58.8183779 39.9831785 71.7916316 55.5309641 81.802898 59.8295516 72.2693326 58.8366073 62.633248"></polygon>
                        <path d="M114.381105,25.6455082 C117.714993,25.9122434 119.376585,26.246454 119.365879,26.6481401 C119.349821,27.2506691 108.83391,42.3551527 109.317623,47.2342618 C109.245674,47.2608844 108.852,47.1038109 108.136602,46.7630412 L113.355252,25.6455082 L114.381105,25.6455082 Z" id="Path-26" stroke="#000000" stroke-width="0.8" fill="#98C367" fill-rule="nonzero" stroke-linecap="round" stroke-linejoin="round"></path>
                        <path d="M113.853998,26.9801175 L114.917664,27.1537907 C114.044123,28.8568226 113.970134,30.2196727 114.695696,31.2423409 C114.616621,31.2220415 109.642855,40.0133003 109.309307,41.5446492 C109.278615,41.3481999 110.074097,36.0986 111.695754,25.7958496 L113.853998,26.9801175 Z" id="Path-27" stroke="#000000" stroke-width="0.8" fill="#2D5515" fill-rule="nonzero" stroke-linecap="round" stroke-linejoin="round"></path>
                        <path d="M39.764998,55.6752611 C34.2793116,62.1803874 31.579156,66.220052 31.6645313,67.7942546 C31.7925942,70.1555586 35.2831484,65.4808197 37.1247818,66.0688494 C38.3525374,66.4608692 39.2326095,67.4209585 39.764998,68.9491174" id="Path-3" stroke="#000000" stroke-width="1" fill="none" stroke-linecap="round" fill-rule="nonzero"></path>
                        <path d="M30.4798166,63.3314819 C29.8150669,69.4434109 28.3867088,73.9836101 26.1947423,76.9520797" id="Path-4" stroke="#000000" stroke-width="1" fill="none" stroke-linecap="round" fill-rule="nonzero"></path>
                        <path d="M58.0685986,65.9378153 C56.1693434,78.4318857 55.0034688,85.0999686 54.5709747,85.9420638 C54.1384806,86.784159 56.6339199,86.784159 62.0572925,85.9420638 C63.8404708,78.7864578 64.5827721,74.8265145 64.2841964,74.0622338" id="Path-5" stroke="#000000" stroke-width="1" fill="none" stroke-linecap="round" fill-rule="nonzero"></path>
                        <path d="M58.3185988,73.0297002 C59.4770766,71.1818802 60.7948118,70.2997216 62.2718044,70.3832244 C63.748797,70.4667272 64.7546305,71.5371125 65.289305,73.5943804 C66.1327226,67.4184312 65.6945797,63.0670575 63.9748763,60.5402592" id="Path-6" stroke="#000000" stroke-width="1" fill="none" stroke-linecap="round" stroke-linejoin="round" fill-rule="nonzero"></path>
                        <path d="M43.4028137,41.2714473 C44.6516485,43.8467115 45.9572038,44.8822159 47.3194796,44.3779608 C47.316201,44.5248439 47.7202936,50.8834426 46.2653962,52.961446 C45.2954645,54.3467816 44.5994088,56.6543447 44.177229,59.8841351 C44.7603901,63.4171999 47.1326517,65.5748197 51.2940136,66.3569944 C55.4553756,67.1391692 58.0869231,66.4704354 59.1886562,64.3507933 L61.4623945,60.8575639 C63.6563526,60.8419357 64.7536048,60.2744574 64.7541513,59.155129 C64.7546977,58.0358005 64.2768903,57.234719 63.3207289,56.7518843 C63.5731844,54.7470104 64.1694601,53.8204974 65.1095561,53.9723452 C66.0496521,54.1241931 66.7399156,53.9365689 67.1803465,53.4094725 L70.2301422,54.1736631 C74.8354756,55.6272863 77.3865096,55.5601803 77.8832442,53.9723452 C78.3799788,52.3845101 77.7994855,51.3035707 76.1417645,50.7295269 L73.5704547,45.6930804 L74.9361464,44.8866972 C76.091955,42.717599 75.3033959,41.2565025 72.5704689,40.5034077 C72.577525,40.4935953 75.3430866,38.5173279 75.3256668,35.9065601 C75.3140536,34.1660483 74.4543818,32.7918304 72.7466516,31.7839064 L73.2878787,30.434973 L72.7466516,29.1357632 L71.1108424,27.6231055 L70.8863693,25.0825683 L58.0758179,18.9539281 L45.551101,18.6585207 L43.7374551,25.0825683 L42.3980212,37.8690067 L43.4028137,41.2714473 Z" id="Path-9" stroke="#000000" stroke-width="1" fill="#FFC892" fill-rule="nonzero" stroke-linecap="round" stroke-linejoin="round"></path>
                        <path d="M70.8056214,24.9067599 C70.9422225,26.5351163 71.0105231,27.4152685 71.0105231,27.5472165 C71.0105231,27.7451386 73.3480309,29.327435 73.2150858,30.3383166 C73.1264557,31.0122376 72.930057,31.5116959 72.6258896,31.8366913 C74.8371786,33.6385806 75.5564551,35.4557249 74.7837193,37.2881243 C74.0109835,39.1205236 73.1311199,40.1956728 72.1441285,40.5135719 C74.3125672,41.0239359 75.3967866,41.7567961 75.3967866,42.7121525 C75.3967866,44.145187 75.0150091,45.0235573 74.1794456,45.4398458 C73.6224033,45.7173715 73.4063227,45.7896011 73.5312037,45.6565348 C74.7747044,48.2041518 75.5508692,49.6866299 75.8596981,50.1039692 C76.3229414,50.7299781 77.7692494,52.0087088 77.8037603,52.3005587 C77.8382713,52.5924086 78.8993175,54.7647741 75.8596981,55.0461712 C73.8332852,55.2337693 69.2495215,54.077652 62.108407,51.5778195 L58.3862007,50.3981419 C54.6211874,49.6387901 52.2509923,50.2729291 51.2756151,52.3005587 C50.300238,54.3281884 50.8802323,55.718416 53.0155981,56.4712417 C58.2219971,56.9701021 61.2529334,57.2131721 62.108407,57.2004517" id="Path-8" stroke="#000000" stroke-width="1" fill="#FFC892" fill-rule="nonzero" stroke-linecap="round" stroke-linejoin="round"></path>
                        <path d="M60.8541388,31.7506844 C62.5261019,32.1523419 64.1058089,32.7566596 65.5932599,33.5636375 C66.313751,34.2216179 66.6600773,34.8771886 66.6322389,35.5303495 C66.6044004,36.1835104 66.6044004,36.9037857 66.6322389,37.6911755 C65.6009278,40.124956 64.2179243,41.5525586 62.4832286,41.9739831 C59.8811849,42.6061198 54.7909643,40.8416697 55.3408279,36.557891 C55.8906916,32.2741123 58.3461942,31.1481981 60.8541388,31.7506844 Z" id="Path-10" stroke="#000000" stroke-width="1" fill="#FFFFFF" fill-rule="nonzero"></path>
                        <path d="M52.5278004,50.7026064 L58.3366675,50.1500866 L65.3197045,52.6076315 C63.1274597,53.696475 61.9290113,54.6156285 61.7243592,55.3650921 C61.5197071,56.1145556 61.4870148,56.7140213 61.6262823,57.1634891 L53.9504809,56.8068361 L50.8665112,54.1225637 L52.5278004,50.7026064 Z" id="Rectangle" stroke="none" fill="#000000" fill-rule="nonzero"></path>
                        <circle id="Oval" stroke="none" fill="#000000" fill-rule="nonzero" cx="61.0201342" cy="35.3825503" r="1"></circle>
                        <path d="M65.8911055,33.8103049 C68.7846555,31.3308452 71.0509829,30.6825133 72.6900879,31.8653093 C75.1487453,33.6395031 75.2314723,34.4006433 75.1582948,36.4557807 C75.0851173,38.5109181 73.8278169,39.8612442 72.3859284,40.4074078 C71.4246694,40.7715168 70.3840267,40.7715168 69.2640005,40.4074078 C68.2797892,38.4442346 67.4596783,37.5639507 66.8036678,37.7665562 C66.7668659,35.4209569 66.4626785,34.1022064 65.8911055,33.8103049 Z" id="Path-11" stroke="#000000" stroke-width="1" fill="#FFFFFF" fill-rule="nonzero"></path>
                        <circle id="Oval-Copy" stroke="none" fill="#000000" fill-rule="nonzero" cx="72.0167785" cy="34.533557" r="1"></circle>
                        <path d="M43.3211027,41.1876258 C43.2777395,41.066033 37.8428606,37.7030097 36.7728362,35.5857762 C36.0594866,34.1742872 35.7668628,32.7412461 35.8949647,31.286653 L36.0110932,28.3804403 C36.7123904,26.1731302 37.4798175,24.4645701 38.3133744,23.25476 C38.3209532,23.2548126 36.4425049,21.4427889 32.6780296,17.818689 L38.3133744,17.553649 L38.6192582,11.0511955 L43.3211027,15.9099882 C46.3500444,11.9407813 48.9827024,9.9723347 51.2190766,10.0046483 C53.4554509,10.0369618 54.459303,10.0369618 54.2306329,10.0046483 C59.052093,11.0601333 62.1385206,12.1468319 63.4899154,13.2647441 C63.4967219,13.2781507 62.3799228,2.89448378 60.8396707,1.05444638 C59.2994186,-0.785591023 68.2751168,5.31237838 71.1822639,11.8365612 C71.2060786,11.8355106 71.3787353,4.11568866 70.2051599,1.66557414 C69.0315844,-0.784540373 79.0484763,12.8364293 78.200252,19.6751066 C77.6347691,24.2342247 75.9459085,26.2787886 73.1336701,25.808798 C57.9763007,20.417799 50.1978759,18.5458919 49.7983956,20.1930767 C49.8996082,20.1860724 54.0381164,25.4837352 53.5502648,27.1192772 C53.4896774,27.1263125 48.2049117,24.8473983 46.87759,25.1776457 C46.8843354,25.2274787 54.7420147,37.4229017 51.5846354,40.4135742 C51.5856091,40.4126791 51.5609879,40.348538 51.5107464,40.2359296 C51.4977042,40.2066974 51.6233479,40.4829546 51.6068522,40.4474487 C51.5681164,40.3640723 51.4004587,39.9896831 51.3426717,39.8764852 C50.688901,38.5958259 48.7945309,35.5865904 45.6932975,35.7649704 C41.7515292,35.9916971 43.3208579,41.1674533 43.3211027,41.1876258 Z" id="Path-7" stroke="#000000" stroke-width="1" fill="#DE6300" fill-rule="nonzero" stroke-linecap="round" stroke-linejoin="round"></path>
                        <path d="M52.7407235,50.7168429 C52.8935491,52.1217913 53.4026773,52.6340602 54.2681079,52.2536495 C55.1335386,51.8732388 55.456318,51.7186405 55.2364462,51.7898544 C55.3878855,52.924532 55.9000565,53.409086 56.7729592,53.2435163 C57.645862,53.0779467 58.1881063,52.8962492 58.3996921,52.6984238 C59.0243144,54.2174772 59.9889536,54.4604681 61.2936099,53.4273963 C61.227027,53.5410312 63.6164678,54.9614679 64.4902583,53.8220114 C64.3964503,53.9238093 64.7940616,54.0896009 65.6830922,54.3193862 L67.8476949,53.4749272 L58.53349,50.3603468 L56.1578202,50.0970787 L54.337801,50.1696168 L52.7407235,50.7168429 Z" id="Path-12" stroke="#000000" stroke-width="0.5" fill="#FFFFFF" fill-rule="nonzero" stroke-linecap="round" stroke-linejoin="round"></path>
                        <path d="M98.0280719,26.4084032 L97.2483221,24.0087919 C103.054065,24.6216468 106.831507,24.6216468 108.580646,24.0087919 C110.329786,23.395937 112.352061,23.6342749 114.647473,24.7238055 C109.782736,37.815378 107.856933,45.3943181 108.870063,47.4606258 C108.777528,47.4521692 108.458901,47.4521692 107.914185,47.4606258 L110.392967,26.7871971 L98.0280719,26.4084032 Z" id="Path-24" stroke="#000000" stroke-width="0.8" fill="#98C367" fill-rule="nonzero"></path>
                        <g id="ETH-Copy-3" stroke="none" stroke-width="1" fill="none" fill-rule="evenodd" transform="translate(99.053455, 26.328623) rotate(4.000000) translate(-99.053455, -26.328623) translate(97.362180, 24.637347)">
                            <polygon id="Shape" fill="#000000" fill-rule="nonzero" points="2.79534827 1.74846056 1.71447656 2.3368368 0.650834715 1.74846056 1.72300909 0.121449779"></polygon>
                            <polygon id="Shape" fill="#000000" fill-rule="nonzero" points="2.79082427 2.02742492 1.72300909 3.33822011 0.627351034 2.02975454 1.7100284 2.59148742"></polygon>
                        </g>
                        <path d="M50.8513931,53.9897914 C52.955221,54.0591241 54.1276287,54.6056764 54.3686162,55.6294483 C54.3450458,55.6127699 57.371633,53.73672 57.5274594,56.592043 C57.5757312,56.949707 56.6175761,57.0085685 54.652994,56.7686276 C52.8327745,56.4998412 51.7316169,56.1983385 51.3495212,55.8641195 C50.9674255,55.5299004 50.8013828,54.9051244 50.8513931,53.9897914 Z" id="Path-13" stroke="#000000" stroke-width="0.5" fill="#CD4242" fill-rule="nonzero" stroke-linecap="round" stroke-linejoin="round"></path>
                        <path d="M67.7392318,45.0199756 C70.1134418,46.102486 72.0705587,46.3023061 73.6105824,45.6194356" id="Path-14" stroke="#000000" stroke-width="1" fill="none" stroke-linecap="round" stroke-linejoin="round" fill-rule="nonzero"></path>
                        <path d="M65.0181818,62.1420691 C69.6672031,65.2131098 72.7461999,66.4090318 74.2551721,65.7298352 C76.5186304,64.7110403 86.2754448,58.1188969 88.1675643,56.7910717 C89.4289773,55.9058549 91.3342453,55.3456643 93.8833682,55.1104997 C94.423208,60.7382007 96.1402104,63.7215572 99.0343752,64.0605692 C98.9714779,64.0530843 98.8863319,64.4799921 98.7789372,65.3412928 L100.600427,64.8912105 L100.600427,66.4923792 L101.451217,66.8121773 L101.159841,67.7098525 L101.159841,68.2013229 L103.664493,68.3858577 C101.15292,72.7898064 97.6041727,75.9026669 93.0182521,77.7244393 C88.4323314,79.5462117 83.83655,80.5250035 79.2309078,80.6608147 C70.8472826,80.31956 65.7864978,79.5148667 64.0485533,78.2467348 C64.1378828,78.3036335 63.4847782,80.7829986 62.0892395,85.6848302 L61.5832318,86.2184186 L54.911966,86.2184186 L57.9949208,65.7298352 L61.5832318,60.9660302 L64.0485533,60.4439519 L65.0181818,62.1420691 Z" id="Path-15" stroke="#000000" stroke-width="1" fill="#930200" fill-rule="nonzero"></path>
                        <path d="M94.3001609,30.7793361 C92.3711218,32.2886556 91.2187974,33.6454951 90.8431876,34.8498544 C90.279773,36.6563935 86.658217,40.0068396 86.1906401,40.0068396 C85.7230631,40.0068396 96.610769,43.2564719 97.8363846,45.0174881 C97.8274152,45.0355498 98.2668552,44.8049866 99.1547047,44.3257985 L94.3001609,30.7793361 Z" id="Path-16" stroke="#000000" stroke-width="0.8" fill="#98C367" fill-rule="nonzero" stroke-linecap="round" stroke-linejoin="round"></path>
                        <g id="ETH" stroke="none" stroke-width="1" fill="none" fill-rule="evenodd" transform="translate(90.294188, 39.555933) rotate(-56.000000) translate(-90.294188, -39.555933) translate(88.602913, 37.864658)">
                            <polygon id="Shape" fill="#000000" fill-rule="nonzero" points="2.79534827 1.74846056 1.71447656 2.3368368 0.650834715 1.74846056 1.72300909 0.121449779"></polygon>
                            <polygon id="Shape" fill="#000000" fill-rule="nonzero" points="2.79082427 2.02742492 1.72300909 3.33822011 0.627351034 2.02975454 1.7100284 2.59148742"></polygon>
                        </g>
                        <path d="M93.9317149,54.9728263 C93.8601673,49.5853983 95.0221362,46.3342657 97.4176217,45.2194285 C99.8131072,44.1045912 101.135786,43.5717246 101.385659,43.6208286 C105.21577,46.255849 107.512843,47.6732674 108.276879,47.8730839 C109.422934,48.1728087 108.295446,50.9244 105.616491,51.0460038 C103.83052,51.127073 102.284085,50.8738678 100.977184,50.2863883 C100.355019,59.0912359 99.6730044,63.661783 98.9311398,63.9980297 C96.7424079,64.233484 95.075933,61.2250828 93.9317149,54.9728263 Z" id="Path-17" stroke="#000000" stroke-width="1" fill="#FFC892" fill-rule="nonzero"></path>
                        <path d="M112.138553,45.3203072 C110.620975,46.6152112 109.31413,47.3431461 108.218017,47.5041118 C108.227542,47.5295129 108.42661,47.8877512 108.815219,48.5788269 L107.627234,50.5238749 L106.341718,51.1879619 C107.874481,52.6855225 109.191059,53.1219659 110.291451,52.4972921 C111.942039,51.5602813 117.20131,49.9550421 116.714272,46.7658922 C116.389579,44.6397923 115.561558,43.4912207 114.230209,43.3201774 L112.138553,45.3203072 Z" id="Path-18" stroke="#000000" stroke-width="1" fill="#FFC892" fill-rule="nonzero" stroke-linecap="round"></path>
                        <path d="M107.812884,52.2225846 C105.749098,52.7625936 104.97943,53.9394823 105.50388,55.7532505 C106.02833,57.5670188 107.636813,58.1064071 110.329326,57.3714155 C114.774863,55.47737 116.780262,53.5178614 116.345524,51.4928896 C115.910785,49.4679179 115.636436,48.8506938 115.522475,49.6412173 C113.374027,51.0823531 111.720358,51.9969339 110.561468,52.3849597 C109.402578,52.7729856 108.486384,52.7188605 107.812884,52.2225846 Z" id="Path-19" stroke="#000000" stroke-width="1" fill="#FFC892" fill-rule="nonzero"></path>
                        <path d="M115.500999,54.0949883 C117.237966,56.1215325 117.359706,57.66331 115.866219,58.7203208 C113.625988,60.3058369 110.935502,61.6847841 109.60348,61.2329145 C108.271458,60.7810449 106.482476,59.8261181 107.123907,57.7074415 C107.126465,57.7196019 109.29049,57.8896757 112.045314,56.6963421 C112.823183,56.3593852 113.975078,55.4922673 115.500999,54.0949883 Z" id="Path-20" stroke="#000000" stroke-width="1" fill="#FFC892" fill-rule="nonzero" stroke-linecap="round" stroke-linejoin="round"></path>
                        <path d="M94.5782274,32.023264 C92.4282614,34.0842194 91.1760551,36.0337119 90.8216085,37.8717417 C90.827811,37.8547665 93.6894268,37.9052567 93.5874671,40.9779735 C93.6536266,40.9883109 97.9125353,42.9696137 98.6720638,44.4741981 C98.6657525,44.4704984 98.7946257,44.3751403 99.0586833,44.1881236 L94.5782274,32.023264 Z" id="Path-21" stroke="#000000" stroke-width="0.8" fill="#2D5515" fill-rule="nonzero" stroke-linecap="round" stroke-linejoin="round"></path>
                        <g id="ETH-Copy-10" stroke="none" stroke-width="1" fill="none" fill-rule="evenodd" transform="translate(96.397382, 38.665835) rotate(-56.000000) translate(-96.397382, -38.665835) translate(93.860469, 35.283285)">
                            <polygon id="Shape" fill="#000000" fill-rule="nonzero" points="4.79512067 3.5282342 2.61402 4.71552386 0.467687606 3.5282342 2.63123787 0.245074596"></polygon>
                            <polygon id="Shape" fill="#000000" fill-rule="nonzero" points="4.78599167 4.09115887 2.63123787 6.7362242 0.420299675 4.09585984 2.60504402 5.22938564"></polygon>
                        </g>
                        <path d="M99.2921856,44.4871436 L92.7323162,26.9091894 C95.7177523,25.8509426 98.9713311,25.5685907 102.493053,26.0621336 C106.014774,26.5556765 108.829814,26.5556765 110.938171,26.0621336 C108.011406,39.443598 107.11794,46.5806044 108.257776,47.4731527 C108.222939,47.4637361 107.847206,47.4637361 107.130575,47.4731527 L101.325283,43.6143835 L99.2921856,44.4871436 Z" id="Path-22" stroke="#000000" stroke-width="0.8" fill="#98C367" fill-rule="nonzero" stroke-linecap="round" stroke-linejoin="round"></path>
                        <g id="ETH" stroke="none" stroke-width="1" fill="none" fill-rule="evenodd" transform="translate(94.911263, 28.935093) rotate(-17.000000) translate(-94.911263, -28.935093) translate(93.411263, 26.935093)">
                            <polygon id="Shape" fill="#000000" fill-rule="nonzero" points="2.79534827 1.74846056 1.71447656 2.3368368 0.650834715 1.74846056 1.72300909 0.121449779"></polygon>
                            <polygon id="Shape" fill="#000000" fill-rule="nonzero" points="2.79082427 2.02742492 1.72300909 3.33822011 0.627351034 2.02975454 1.7100284 2.59148742"></polygon>
                        </g>
                        <g id="ETH-Copy" stroke="none" stroke-width="1" fill="none" fill-rule="evenodd" transform="translate(108.770229, 28.418498) rotate(4.000000) translate(-108.770229, -28.418498) translate(107.078954, 26.727223)">
                            <polygon id="Shape" fill="#000000" fill-rule="nonzero" points="2.79534827 1.74846056 1.71447656 2.3368368 0.650834715 1.74846056 1.72300909 0.121449779"></polygon>
                            <polygon id="Shape" fill="#000000" fill-rule="nonzero" points="2.79082427 2.02742492 1.72300909 3.33822011 0.627351034 2.02975454 1.7100284 2.59148742"></polygon>
                        </g>
                        <g id="ETH-Copy-9" stroke="none" stroke-width="1" fill="none" fill-rule="evenodd" transform="translate(108.770229, 28.418498) rotate(4.000000) translate(-108.770229, -28.418498) translate(107.078954, 26.727223)">
                            <polygon id="Shape" fill="#000000" fill-rule="nonzero" points="2.79534827 1.74846056 1.71447656 2.3368368 0.650834715 1.74846056 1.72300909 0.121449779"></polygon>
                            <polygon id="Shape" fill="#000000" fill-rule="nonzero" points="2.79082427 2.02742492 1.72300909 3.33822011 0.627351034 2.02975454 1.7100284 2.59148742"></polygon>
                        </g>
                        <g id="ETH-Copy-2" stroke="none" stroke-width="1" fill="none" fill-rule="evenodd" transform="translate(112.427336, 26.075042) rotate(5.000000) translate(-112.427336, -26.075042) translate(110.736061, 24.383766)">
                            <polygon id="Shape" fill="#000000" fill-rule="nonzero" points="2.79534827 1.74846056 1.71447656 2.3368368 0.650834715 1.74846056 1.72300909 0.121449779"></polygon>
                            <polygon id="Shape" fill="#000000" fill-rule="nonzero" points="2.79082427 2.02742492 1.72300909 3.33822011 0.627351034 2.02975454 1.7100284 2.59148742"></polygon>
                        </g>
                        <g id="ETH-Copy-4" stroke="none" stroke-width="1" fill="none" fill-rule="evenodd" transform="translate(116.346114, 28.399805) rotate(21.000000) translate(-116.346114, -28.399805) translate(114.654839, 26.708530)">
                            <polygon id="Shape" fill="#000000" fill-rule="nonzero" points="2.79534827 1.74846056 1.71447656 2.3368368 0.650834715 1.74846056 1.72300909 0.121449779"></polygon>
                            <polygon id="Shape" fill="#000000" fill-rule="nonzero" points="2.79082427 2.02742492 1.72300909 3.33822011 0.627351034 2.02975454 1.7100284 2.59148742"></polygon>
                        </g>
                        <g id="ETH-Copy-7" stroke="none" stroke-width="1" fill="none" fill-rule="evenodd" transform="translate(119.076708, 31.130399) rotate(39.000000) translate(-119.076708, -31.130399) translate(117.385433, 29.439124)">
                            <polygon id="Shape" fill="#000000" fill-rule="nonzero" points="2.79534827 1.74846056 1.71447656 2.3368368 0.650834715 1.74846056 1.72300909 0.121449779"></polygon>
                            <polygon id="Shape" fill="#000000" fill-rule="nonzero" points="2.79082427 2.02742492 1.72300909 3.33822011 0.627351034 2.02975454 1.7100284 2.59148742"></polygon>
                        </g>
                        <g id="ETH-Copy-8" stroke="none" stroke-width="1" fill="none" fill-rule="evenodd" transform="translate(122.359018, 36.527962) rotate(73.000000) translate(-122.359018, -36.527962) translate(120.667743, 34.836687)">
                            <polygon id="Shape" fill="#000000" fill-rule="nonzero" points="2.79534827 1.74846056 1.71447656 2.3368368 0.650834715 1.74846056 1.72300909 0.121449779"></polygon>
                            <polygon id="Shape" fill="#000000" fill-rule="nonzero" points="2.79082427 2.02742492 1.72300909 3.33822011 0.627351034 2.02975454 1.7100284 2.59148742"></polygon>
                        </g>
                        <path d="M96.2973348,27.2787698 C96.8856163,29.0747579 96.8856163,30.5515791 96.2973348,31.7092333 C96.3350409,31.7107349 99.7943228,43.23628 99.7943228,44.0247707 C99.8162178,44.0310502 100.382216,43.8414473 101.492316,43.4559618 L107.131941,47.3364663 C106.943175,45.1152016 106.721975,43.7542914 106.468342,43.253736 C106.087893,42.5029028 108.297135,32.2432335 108.533553,31.9029261 C108.76997,31.5626186 106.959751,30.1542972 107.380222,27.6545954 C107.386213,27.7347594 101.656227,27.0584583 100.927922,26.854154 C100.442384,26.7179512 98.8988554,26.8594898 96.2973348,27.2787698 Z" id="Path-23" stroke="#000000" stroke-width="0.8" fill="#2D5515" fill-rule="nonzero" stroke-linecap="round" stroke-linejoin="round"></path>
                        <g id="ETH-Copy" stroke="none" stroke-width="1" fill="none" fill-rule="evenodd" transform="translate(102.581417, 36.952931) rotate(-3.000000) translate(-102.581417, -36.952931) translate(100.044504, 33.147562)">
                            <polygon id="Shape" fill="#000000" fill-rule="nonzero" points="4.94156593 3.61983414 2.70383956 4.8379482 0.501784129 3.61983414 2.72150444 0.251437218"></polygon>
                            <polygon id="Shape" fill="#000000" fill-rule="nonzero" points="4.93219992 4.19737345 2.72150444 6.91110992 0.453165913 4.20219647 2.69463055 5.36515085"></polygon>
                        </g>
                        <path d="M65.8135811,33.5353042 C66.2856069,32.0200265 66.027164,30.9768776 65.0382525,30.4058576" id="Path-36" stroke="#000000" stroke-width="1" fill="none" stroke-linecap="round" fill-rule="nonzero"></path>
                        <path d="M100.917633,25.6955385 L101.166955,25.2132251 C104.105419,24.8657301 106.101109,24.6919825 107.154028,24.6919825 C108.206946,24.6919825 109.334142,24.8657301 110.535616,25.2132251 L110.630533,26.1750817 L100.917633,25.6955385 Z" id="Path-25" stroke="#000000" stroke-width="0.8" fill="#2D5515" fill-rule="nonzero"></path>
                        <path d="M45,39.3084658 C46.3272725,37.5512956 47.6677857,37.5078948 49.0215396,39.1782634" id="Path-34" stroke="#000000" stroke-width="1" fill="none" stroke-linecap="round" stroke-linejoin="round" fill-rule="nonzero"></path>
                        <path d="M45.9416029,38.3857546 C46.2293339,40.8529926 46.7528195,42.1754448 47.5120596,42.353111" id="Path-35" stroke="#000000" stroke-width="1" fill="none" stroke-linecap="round" fill-rule="nonzero"></path>
                    </g>
                </g>
            </g>
            <path d="M56.024,11.579 L9.954,38.139 L9.954,91.259 L32.854,104.458 L34.504,105.419 L50.275,114.509 L55.795,117.689 L56.025,117.82 L56.714,117.42 L72.024,108.6 L77.615,105.379 L78.804,104.69 L102.104,91.26 L102.104,38.14 L56.024,11.579 Z M100.233,90.189 L78.803,102.539 L77.163,103.49 L70.583,107.279 L56.023,115.679 L51.333,112.978 L34.543,103.298 L32.633,102.198 L11.813,90.188 L11.813,39.218 L56.023,13.728 L100.232,39.218 L100.232,90.189 L100.233,90.189 Z" id="Shape" fill="#000000" fill-rule="nonzero" opacity="0.13"></path>
        </g>
    </g>
</svg>