<?xml version="1.0" encoding="utf-8"?>
<!-- Generator: Adobe Illustrator 21.0.2, SVG Export Plug-In . SVG Version: 6.00 Build 0)  -->
<svg version="1.1" xmlns="http://www.w3.org/2000/svg" xmlns:xlink="http://www.w3.org/1999/xlink" x="0px" y="0px"
	 viewBox="0 0 110.979 128.417" enable-background="new 0 0 110.979 128.417" xml:space="preserve">
<g id="Layer_1">
</g>
<g id="Layer_4">
	<g>
		<polygon fill="#0A0F44" points="55.462,128.319 0.205,96.416 0.205,32.611 55.462,0.708 110.719,32.611 110.719,96.416 		"/>
	</g>
	<g>
		<polygon fill="#040933" points="55.408,116.989 9.998,90.772 9.998,38.337 55.408,12.12 100.817,38.337 100.817,90.772 		"/>
	</g>
	<g enable-background="new    ">
		<path fill="#15FFAB" d="M55.461,10.806L8.879,37.661v53.708l46.581,26.852l46.584-26.852V37.661L55.461,10.806z M100.158,90.287
			l-44.698,25.771L10.761,90.287V38.753l44.699-25.771l44.698,25.771V90.287z"/>
	</g>
	<g>
		<g>
			<path fill="#FECD2E" d="M41.457,82.695c-5.138,0-9.798-3.534-11.006-8.749c-1.3-5.61,1.829-11.262,7.177-13.18l-0.011-0.061
				l0.743-0.175c0.18-0.051,0.364-0.099,0.547-0.141c0.185-0.043,0.371-0.081,0.554-0.114l26.102-6.049
				c0.18-0.051,0.364-0.099,0.547-0.141c0.185-0.043,0.371-0.081,0.553-0.114l0.719-0.167l0.016,0.059
				c5.652-0.645,10.954,3.049,12.257,8.67c1.405,6.064-2.384,12.14-8.448,13.545c-0.129,0.03-0.617,0.089-3.598,0.419
				c-0.912,0.101-1.854,0.205-2.036,0.229l-14.894,3.452c-0.13,0.043-0.564,0.19-1.15,0.388c-3.932,1.329-5.325,1.793-5.519,1.838
				C43.154,82.6,42.299,82.695,41.457,82.695z M38.831,61.998l-0.106,0.031c-4.967,1.444-7.942,6.525-6.773,11.568
				c1.215,5.241,6.466,8.516,11.708,7.302c0.289-0.078,3.852-1.282,5.373-1.797c0.656-0.221,1.123-0.379,1.198-0.404l0.064-0.018
				l15.005-3.476c0.094-0.016,0.54-0.066,2.137-0.243c1.272-0.141,3.185-0.352,3.437-0.392c5.225-1.221,8.489-6.462,7.277-11.691
				c-1.171-5.053-6.085-8.302-11.188-7.398l-0.077,0.014c-0.143,0.027-0.287,0.057-0.43,0.09c-0.166,0.038-0.329,0.081-0.49,0.127
				l-0.038,0.01L39.75,61.789c-0.165,0.029-0.33,0.063-0.495,0.101C39.112,61.923,38.971,61.959,38.831,61.998z"/>
		</g>
	</g>
	<g>
		<g>
			<path fill="#FECD2E" d="M69.036,72.891c-1.439,0-2.853-0.402-4.104-1.182c-1.764-1.1-2.993-2.821-3.463-4.846
				c-0.469-2.025-0.122-4.111,0.978-5.875c1.1-1.763,2.821-2.993,4.846-3.463c2.025-0.469,4.111-0.122,5.875,0.978
				c1.764,1.1,2.994,2.821,3.463,4.846l0,0c0.469,2.025,0.122,4.111-0.978,5.875c-1.1,1.764-2.821,2.994-4.846,3.463
				C70.219,72.824,69.625,72.891,69.036,72.891z M69.064,58.203c-0.523,0-1.049,0.06-1.571,0.181
				c-1.796,0.416-3.322,1.507-4.297,3.071c-0.975,1.564-1.283,3.414-0.867,5.21c0.416,1.796,1.507,3.322,3.071,4.297
				c1.564,0.976,3.415,1.283,5.21,0.868c1.796-0.416,3.322-1.507,4.297-3.071c0.975-1.564,1.284-3.414,0.868-5.21
				c-0.416-1.796-1.507-3.322-3.071-4.297C71.593,58.559,70.34,58.203,69.064,58.203z"/>
		</g>
	</g>
	<g>
		<g>
			<g>
				<g>
					<path fill="#FECD2E" d="M58.339,55.686c5.515-0.375,11.03-0.751,16.545-1.126c0.703-0.048,0.708-1.149,0-1.101
						c-5.515,0.375-11.03,0.75-16.545,1.126C57.636,54.633,57.63,55.734,58.339,55.686L58.339,55.686z"/>
				</g>
			</g>
			<g>
				<g>
					<path fill="#FECD2E" d="M58.756,55.184c-0.232-3.404-0.463-6.809-0.695-10.213c-0.048-0.703-1.149-0.708-1.101,0
						c0.232,3.404,0.463,6.809,0.695,10.213C57.703,55.887,58.805,55.892,58.756,55.184L58.756,55.184z"/>
				</g>
			</g>
			<g>
				<g>
					<path fill="#FECD2E" d="M57.083,45.271c1.396,1.218,2.791,2.436,4.187,3.654c0.532,0.464,1.314-0.312,0.779-0.779
						c-1.396-1.218-2.791-2.436-4.187-3.654C57.33,44.029,56.548,44.805,57.083,45.271L57.083,45.271z"/>
				</g>
			</g>
			<g>
				<g>
					<path fill="#FECD2E" d="M62.108,49.025c1.41-1.616,2.82-3.232,4.23-4.848c0.464-0.532-0.312-1.314-0.779-0.779
						c-1.41,1.616-2.82,3.232-4.23,4.848C60.865,48.778,61.641,49.56,62.108,49.025L62.108,49.025z"/>
				</g>
			</g>
			<g>
				<g>
					<path fill="#FECD2E" d="M65.547,44.184c1.524,1.33,3.049,2.66,4.573,3.99c0.532,0.464,1.314-0.312,0.779-0.779
						c-1.524-1.33-3.049-2.66-4.573-3.99C65.793,42.941,65.012,43.717,65.547,44.184L65.547,44.184z"/>
				</g>
			</g>
			<g>
				<g>
					<path fill="#FECD2E" d="M70.899,48.187c1.234-1.414,2.468-2.828,3.702-4.242c0.464-0.532-0.312-1.314-0.779-0.779
						c-1.234,1.414-2.468,2.828-3.702,4.242C69.656,47.94,70.432,48.722,70.899,48.187L70.899,48.187z"/>
				</g>
			</g>
			<g>
				<g>
					<path fill="#FECD2E" d="M73.635,43.745c0.233,3.422,0.466,6.843,0.699,10.265c0.048,0.703,1.149,0.708,1.101,0
						c-0.233-3.422-0.466-6.843-0.699-10.265C74.688,43.042,73.586,43.036,73.635,43.745L73.635,43.745z"/>
				</g>
			</g>
		</g>
	</g>
	<g>
		<g>
			<g>
				<path fill="#FECD2E" d="M55.592,42.469c-0.712,1.127-0.976,2.42-0.812,3.739c0.086,0.694,1.188,0.703,1.101,0
					c-0.142-1.145,0.041-2.201,0.662-3.183C56.922,42.424,55.97,41.871,55.592,42.469L55.592,42.469z"/>
			</g>
		</g>
	</g>
	<g>
		<g>
			<path fill="#FECD2E" d="M71.387,14.607l0.231,2.117l-0.648-0.371l-0.18-2.009l-0.095-0.055l-0.822,1.436l-0.529-0.303
				l2.008-3.508l0.62,0.355c0.463,0.265,0.748,0.544,0.854,0.836c0.116,0.324,0.083,0.645-0.099,0.963
				c-0.142,0.248-0.335,0.421-0.58,0.519C71.902,14.684,71.649,14.69,71.387,14.607z M70.958,13.828l0.168,0.096
				c0.501,0.287,0.862,0.239,1.081-0.145c0.205-0.359,0.065-0.678-0.423-0.957l-0.189-0.108L70.958,13.828z"/>
			<path fill="#FECD2E" d="M73.824,15.049l-0.727,1.27c-0.21,0.367-0.17,0.633,0.119,0.798c0.289,0.166,0.539,0.065,0.749-0.302
				l0.727-1.27l0.511,0.292l-0.733,1.281c-0.101,0.177-0.211,0.318-0.329,0.421c-0.108,0.091-0.241,0.153-0.398,0.185
				c-0.258,0.051-0.521,0-0.788-0.152c-0.265-0.152-0.441-0.352-0.528-0.601c-0.053-0.153-0.069-0.3-0.047-0.44
				c0.017-0.127,0.083-0.292,0.199-0.495l0.733-1.281L73.824,15.049z"/>
			<path fill="#FECD2E" d="M75.848,16.207l0.514,0.294l-0.117,0.205c0.28-0.075,0.532-0.048,0.757,0.08
				c0.257,0.147,0.412,0.343,0.463,0.588c0.045,0.209-0.021,0.469-0.2,0.782l-0.776,1.356l-0.514-0.294l0.708-1.236
				c0.125-0.218,0.18-0.386,0.168-0.504c-0.011-0.119-0.094-0.223-0.25-0.312c-0.17-0.097-0.322-0.11-0.457-0.038
				c-0.133,0.071-0.278,0.244-0.436,0.52l-0.611,1.068l-0.514-0.294L75.848,16.207z"/>
			<path fill="#FECD2E" d="M78.4,17.668l0.513,0.294l-0.117,0.205c0.28-0.075,0.532-0.048,0.757,0.08
				c0.257,0.147,0.412,0.343,0.463,0.588c0.045,0.209-0.021,0.469-0.2,0.781l-0.776,1.356l-0.513-0.294l0.707-1.236
				c0.125-0.218,0.181-0.386,0.168-0.504c-0.011-0.119-0.094-0.223-0.25-0.312c-0.169-0.097-0.322-0.11-0.457-0.038
				c-0.133,0.071-0.279,0.244-0.436,0.519l-0.611,1.068l-0.513-0.294L78.4,17.668z"/>
			<path fill="#FECD2E" d="M82.264,21.508L80.678,20.6c-0.09,0.189-0.114,0.368-0.071,0.535c0.044,0.166,0.147,0.295,0.311,0.389
				c0.127,0.073,0.25,0.103,0.368,0.09c0.117-0.014,0.274-0.072,0.472-0.176l0.294,0.488c-0.132,0.075-0.258,0.132-0.378,0.171
				c-0.12,0.039-0.238,0.06-0.353,0.063c-0.115,0.004-0.228-0.01-0.34-0.043c-0.112-0.032-0.226-0.081-0.341-0.147
				c-0.33-0.189-0.535-0.447-0.613-0.773c-0.078-0.328-0.016-0.668,0.186-1.021c0.2-0.35,0.46-0.578,0.777-0.683
				c0.318-0.102,0.638-0.06,0.961,0.124c0.326,0.186,0.524,0.437,0.594,0.754c0.07,0.313,0,0.652-0.209,1.018L82.264,21.508z
				 M81.979,20.79c0.085-0.313-0.009-0.548-0.282-0.704c-0.062-0.035-0.126-0.06-0.191-0.072C81.44,20.002,81.375,20,81.31,20.01
				c-0.065,0.01-0.128,0.031-0.188,0.063c-0.06,0.032-0.117,0.075-0.17,0.129L81.979,20.79z"/>
			<path fill="#FECD2E" d="M83.525,20.601l0.511,0.292l-0.113,0.198c0.15-0.045,0.272-0.065,0.366-0.059
				c0.096,0.005,0.195,0.036,0.296,0.094c0.135,0.077,0.251,0.201,0.347,0.374l-0.502,0.334c-0.057-0.125-0.132-0.214-0.224-0.267
				c-0.279-0.16-0.539-0.029-0.78,0.392l-0.657,1.147l-0.511-0.293L83.525,20.601z"/>
			<path fill="#FECD2E" d="M88.07,21.483l-1.209,2.113c-0.172,0.301-0.25,0.55-0.231,0.745c0.032,0.286,0.181,0.505,0.447,0.657
				c0.268,0.153,0.533,0.171,0.795,0.054c0.175-0.079,0.351-0.271,0.526-0.577l1.209-2.113l0.529,0.303l-1.292,2.258
				c-0.212,0.37-0.501,0.608-0.868,0.716c-0.411,0.118-0.806,0.069-1.183-0.146c-0.377-0.216-0.618-0.531-0.723-0.945
				c-0.093-0.371-0.034-0.742,0.178-1.111l1.292-2.258L88.07,21.483z"/>
			<path fill="#FECD2E" d="M88.694,28.095l-0.511-0.292l1.956-3.417l0.511,0.292l-0.138,0.241c0.317-0.086,0.603-0.056,0.859,0.091
				c0.304,0.174,0.491,0.43,0.56,0.767c0.072,0.337,0.011,0.675-0.183,1.014c-0.19,0.332-0.447,0.551-0.772,0.659
				c-0.323,0.107-0.634,0.074-0.934-0.097c-0.259-0.148-0.431-0.385-0.517-0.709L88.694,28.095z M91.224,26.494
				c0.121-0.212,0.162-0.418,0.124-0.617c-0.039-0.202-0.148-0.353-0.325-0.454c-0.188-0.108-0.377-0.129-0.569-0.066
				c-0.191,0.063-0.347,0.201-0.469,0.413c-0.119,0.208-0.158,0.412-0.119,0.614c0.04,0.198,0.154,0.35,0.341,0.458
				c0.177,0.102,0.362,0.118,0.553,0.051C90.955,26.827,91.11,26.694,91.224,26.494z"/>
		</g>
		<g>
			<circle fill="#FECD2E" cx="93.593" cy="27.775" r="0.909"/>
		</g>
		<g>
			<circle fill="#FECD2E" cx="68.133" cy="12.457" r="0.909"/>
		</g>
	</g>
	<g>
		
			<ellipse transform="matrix(0.9742 -0.2258 0.2258 0.9742 -12.0726 16.9582)" fill="#FFFFFF" cx="68.106" cy="61.261" rx="1.551" ry="1.551"/>
	</g>
	<g>
		
			<ellipse transform="matrix(0.9742 -0.2258 0.2258 0.9742 -13.6612 17.5231)" fill="#FFFFFF" cx="69.781" cy="68.489" rx="1.551" ry="1.551"/>
	</g>
	<g>
		
			<ellipse transform="matrix(0.9742 -0.2258 0.2258 0.9742 -13.183 16.4112)" fill="#FFFFFF" cx="65.162" cy="65.844" rx="1.551" ry="1.551"/>
	</g>
	<g>
		
			<ellipse transform="matrix(0.9742 -0.2258 0.2258 0.9742 -12.5752 18.1218)" fill="#FFFFFF" cx="72.943" cy="64.041" rx="1.551" ry="1.551"/>
	</g>
	<g>
		<path fill="#FFFFFF" d="M10.782,31.629l1.448-0.832l0.066,0.116c0.151,0.263,0.254,0.514,0.309,0.753
			c0.047,0.222,0.046,0.456-0.004,0.702c-0.115,0.553-0.423,0.974-0.926,1.263c-0.49,0.282-1.012,0.346-1.565,0.192
			c-0.554-0.155-0.974-0.481-1.26-0.979c-0.292-0.509-0.362-1.042-0.21-1.6c0.151-0.56,0.482-0.986,0.992-1.279
			c0.274-0.157,0.562-0.248,0.863-0.273c0.291-0.018,0.619,0.035,0.983,0.16l-0.17,0.577c-0.507-0.218-0.968-0.208-1.381,0.029
			c-0.371,0.213-0.608,0.52-0.712,0.919c-0.107,0.396-0.052,0.782,0.166,1.161c0.224,0.39,0.549,0.631,0.974,0.723
			c0.397,0.084,0.748,0.038,1.053-0.137c0.26-0.149,0.444-0.372,0.55-0.666c0.106-0.296,0.1-0.575-0.018-0.835l-0.874,0.502
			L10.782,31.629z"/>
		<path fill="#FFFFFF" d="M14.205,29.149l0.513-0.295l1.27,2.211l-0.513,0.295l-0.133-0.232c-0.097,0.318-0.267,0.546-0.509,0.685
			c-0.306,0.176-0.622,0.21-0.948,0.104c-0.328-0.112-0.589-0.336-0.782-0.674c-0.19-0.331-0.25-0.664-0.179-0.999
			c0.071-0.335,0.256-0.588,0.554-0.759c0.257-0.148,0.549-0.174,0.875-0.08L14.205,29.149z M13.624,30.944
			c0.122,0.212,0.278,0.352,0.468,0.42c0.194,0.068,0.379,0.051,0.556-0.051c0.189-0.109,0.305-0.262,0.346-0.459
			c0.039-0.202-0.001-0.406-0.12-0.614c-0.119-0.207-0.275-0.345-0.469-0.412c-0.192-0.065-0.381-0.043-0.568,0.063
			c-0.175,0.101-0.284,0.252-0.326,0.452C13.473,30.546,13.51,30.746,13.624,30.944z"/>
		<path fill="#FFFFFF" d="M15.363,28.484l0.511-0.293l0.117,0.204c0.039-0.16,0.083-0.277,0.132-0.354
			c0.052-0.08,0.135-0.152,0.247-0.217c0.249-0.143,0.509-0.148,0.78-0.013c0.035-0.31,0.19-0.544,0.464-0.701
			c0.498-0.286,0.92-0.127,1.267,0.477l0.785,1.366l-0.513,0.295l-0.705-1.228c-0.122-0.212-0.233-0.347-0.335-0.405
			c-0.104-0.059-0.217-0.053-0.338,0.016c-0.141,0.081-0.213,0.193-0.216,0.335c-0.003,0.143,0.062,0.331,0.197,0.566l0.656,1.142
			l-0.513,0.295l-0.701-1.221c-0.226-0.394-0.452-0.525-0.68-0.394c-0.144,0.083-0.218,0.196-0.222,0.342
			c-0.004,0.145,0.06,0.333,0.193,0.565l0.656,1.142l-0.511,0.293L15.363,28.484z"/>
		<path fill="#FFFFFF" d="M21.757,26.441l-1.584,0.91c0.118,0.174,0.26,0.284,0.426,0.332c0.165,0.046,0.33,0.022,0.493-0.072
			c0.127-0.073,0.215-0.164,0.263-0.272c0.047-0.107,0.076-0.273,0.086-0.496l0.569-0.007c-0.001,0.152-0.016,0.289-0.043,0.413
			c-0.028,0.124-0.069,0.236-0.124,0.337c-0.055,0.101-0.124,0.192-0.209,0.272c-0.085,0.081-0.184,0.154-0.299,0.22
			c-0.33,0.189-0.656,0.236-0.977,0.138c-0.322-0.098-0.585-0.324-0.787-0.677c-0.201-0.35-0.266-0.688-0.197-1.016
			c0.073-0.325,0.27-0.581,0.592-0.766c0.325-0.187,0.642-0.231,0.95-0.132c0.306,0.098,0.564,0.329,0.773,0.694L21.757,26.441z
			 M20.993,26.325c-0.228-0.231-0.478-0.269-0.75-0.112c-0.062,0.036-0.115,0.079-0.158,0.129c-0.044,0.05-0.078,0.106-0.102,0.167
			c-0.024,0.061-0.038,0.126-0.041,0.194c-0.003,0.068,0.005,0.139,0.025,0.212L20.993,26.325z"/>
		<path fill="#FFFFFF" d="M23.653,22.663l1.728,3.007l-0.529,0.304l-1.728-3.008l-0.806,0.463l-0.285-0.497l2.138-1.228l0.286,0.497
			L23.653,22.663z"/>
		<path fill="#FFFFFF" d="M25.289,22.783l0.511-0.293l0.113,0.197c0.037-0.152,0.082-0.267,0.134-0.346
			c0.052-0.08,0.129-0.149,0.231-0.208c0.135-0.077,0.301-0.114,0.498-0.111l0.035,0.602c-0.137-0.014-0.251,0.006-0.343,0.058
			c-0.278,0.16-0.297,0.45-0.055,0.871l0.658,1.146l-0.511,0.293L25.289,22.783z"/>
		<path fill="#FFFFFF" d="M28.657,20.848l0.513-0.295l1.27,2.211l-0.513,0.295l-0.133-0.232c-0.097,0.318-0.267,0.546-0.509,0.685
			c-0.306,0.175-0.622,0.21-0.948,0.104c-0.328-0.112-0.589-0.336-0.783-0.674c-0.19-0.331-0.25-0.665-0.179-0.999
			c0.071-0.335,0.256-0.588,0.554-0.759c0.257-0.148,0.549-0.174,0.875-0.08L28.657,20.848z M28.076,22.643
			c0.122,0.212,0.277,0.352,0.468,0.42c0.194,0.068,0.379,0.051,0.556-0.051c0.189-0.109,0.305-0.262,0.346-0.458
			c0.039-0.202-0.001-0.406-0.12-0.614s-0.276-0.345-0.469-0.412c-0.192-0.065-0.381-0.044-0.567,0.063
			c-0.176,0.101-0.284,0.252-0.326,0.453C27.925,22.245,27.962,22.445,28.076,22.643z"/>
		<path fill="#FFFFFF" d="M31.59,19.29l0.39,0.679c-0.198-0.075-0.359-0.113-0.482-0.113c-0.122-0.002-0.244,0.032-0.367,0.102
			c-0.192,0.11-0.313,0.269-0.363,0.477c-0.05,0.208-0.017,0.413,0.1,0.616c0.119,0.207,0.278,0.342,0.477,0.405
			c0.201,0.062,0.397,0.038,0.589-0.073c0.123-0.07,0.216-0.159,0.279-0.266c0.062-0.103,0.111-0.265,0.148-0.483l0.387,0.674
			c-0.146,0.227-0.322,0.4-0.529,0.519c-0.342,0.197-0.691,0.25-1.048,0.162c-0.358-0.09-0.631-0.3-0.821-0.63
			c-0.19-0.33-0.233-0.675-0.13-1.036c0.103-0.361,0.323-0.639,0.662-0.833C31.101,19.363,31.336,19.297,31.59,19.29z"/>
		<path fill="#FFFFFF" d="M31.608,16.994l1.343,2.338l0.309-1.128l0.685-0.394l-0.427,1.48l1.767,0.691l-0.663,0.381l-1.267-0.513
			l-0.035,0.129l0.489,0.851L33.3,21.121l-2.202-3.834L31.608,16.994z"/>
		<path fill="#FFFFFF" d="M35.307,15.307l2.258,1.818l-0.49-3.06l2.356,1.989l-0.376-2.899l0.574-0.33l0.575,4.626l-2.328-1.965
			l0.488,3.025l-3.631-2.874L35.307,15.307z"/>
		<path fill="#FFFFFF" d="M40.104,13.05c-0.051-0.089-0.063-0.185-0.035-0.288c0.028-0.102,0.087-0.18,0.178-0.232
			c0.092-0.053,0.19-0.066,0.292-0.038c0.101,0.026,0.179,0.085,0.232,0.178c0.053,0.092,0.065,0.19,0.038,0.292
			c-0.026,0.102-0.085,0.179-0.178,0.232c-0.092,0.053-0.19,0.066-0.292,0.038C40.236,13.204,40.158,13.143,40.104,13.05z
			 M41.22,13.631l1.27,2.211l-0.511,0.293l-1.27-2.211L41.22,13.631z"/>
		<path fill="#FFFFFF" d="M41.867,13.26l0.513-0.295l0.117,0.204c0.077-0.279,0.227-0.484,0.451-0.612
			c0.257-0.148,0.504-0.182,0.741-0.103c0.203,0.067,0.394,0.256,0.573,0.567l0.778,1.355l-0.513,0.295l-0.709-1.235
			c-0.125-0.218-0.242-0.351-0.35-0.4c-0.108-0.051-0.24-0.032-0.395,0.058c-0.169,0.097-0.258,0.222-0.265,0.375
			c-0.006,0.15,0.07,0.363,0.228,0.639l0.613,1.067l-0.513,0.295L41.867,13.26z"/>
		<path fill="#FFFFFF" d="M44.416,11.795l0.513-0.295l0.117,0.204c0.077-0.28,0.227-0.484,0.451-0.612
			c0.257-0.148,0.504-0.182,0.741-0.103c0.203,0.066,0.394,0.255,0.573,0.567l0.778,1.355l-0.513,0.295l-0.709-1.235
			c-0.125-0.218-0.242-0.351-0.35-0.4c-0.108-0.051-0.24-0.031-0.395,0.058c-0.17,0.097-0.258,0.222-0.265,0.375
			c-0.006,0.151,0.07,0.363,0.228,0.639l0.613,1.067l-0.513,0.295L44.416,11.795z"/>
		<path fill="#FFFFFF" d="M49.682,10.4l-1.584,0.91c0.118,0.174,0.26,0.284,0.426,0.332c0.165,0.046,0.329,0.022,0.493-0.072
			c0.127-0.073,0.215-0.164,0.263-0.272c0.047-0.107,0.076-0.273,0.086-0.496l0.569-0.007c-0.002,0.152-0.016,0.289-0.044,0.413
			c-0.028,0.124-0.069,0.236-0.123,0.337c-0.055,0.101-0.124,0.192-0.209,0.272c-0.084,0.081-0.184,0.154-0.299,0.22
			c-0.33,0.189-0.656,0.236-0.977,0.138c-0.322-0.098-0.585-0.324-0.787-0.677c-0.201-0.35-0.266-0.688-0.197-1.016
			c0.072-0.325,0.27-0.581,0.592-0.766c0.325-0.187,0.642-0.231,0.95-0.132c0.306,0.098,0.563,0.329,0.773,0.694L49.682,10.4z
			 M48.918,10.284c-0.228-0.232-0.478-0.269-0.75-0.112c-0.062,0.036-0.115,0.079-0.159,0.129c-0.044,0.05-0.077,0.106-0.102,0.167
			c-0.024,0.061-0.038,0.126-0.041,0.194c-0.003,0.068,0.005,0.139,0.025,0.212L48.918,10.284z"/>
		<path fill="#FFFFFF" d="M49.537,8.854l0.511-0.294l0.114,0.197c0.037-0.152,0.082-0.267,0.134-0.346
			c0.052-0.08,0.129-0.149,0.231-0.208c0.135-0.077,0.301-0.114,0.498-0.111l0.035,0.602c-0.137-0.014-0.251,0.006-0.344,0.059
			c-0.278,0.16-0.297,0.45-0.055,0.871l0.658,1.146l-0.511,0.294L49.537,8.854z"/>
	</g>
	<g>
		<g>
			<path fill="#FECD2E" d="M41.636,79.241c-1.439,0-2.852-0.401-4.104-1.182c-1.764-1.1-2.994-2.821-3.463-4.846
				c-0.469-2.025-0.122-4.111,0.978-5.875c1.1-1.764,2.821-2.993,4.846-3.463c2.025-0.469,4.112-0.122,5.875,0.978
				c1.764,1.1,2.994,2.821,3.463,4.846l0,0c0.469,2.025,0.122,4.111-0.978,5.875c-1.1,1.764-2.821,2.994-4.846,3.463
				C42.819,79.174,42.225,79.241,41.636,79.241z M41.664,64.553c-0.523,0-1.049,0.06-1.571,0.181
				c-1.796,0.416-3.322,1.507-4.297,3.071c-0.976,1.564-1.284,3.414-0.868,5.21c0.416,1.796,1.507,3.322,3.071,4.297
				c1.564,0.976,3.415,1.283,5.21,0.868c1.796-0.416,3.322-1.507,4.297-3.071c0.976-1.564,1.284-3.414,0.868-5.21
				c-0.416-1.796-1.507-3.322-3.071-4.297C44.194,64.909,42.94,64.553,41.664,64.553z"/>
		</g>
	</g>
	<g>
		<g>
			<path fill="#FECD2E" d="M59.435,74.34c0.113,0.487-0.19,0.973-0.677,1.086l-4.231,0.98c-0.487,0.113-0.973-0.19-1.086-0.677l0,0
				c-0.113-0.487,0.19-0.973,0.677-1.086l4.231-0.98C58.836,73.55,59.322,73.853,59.435,74.34L59.435,74.34z"/>
		</g>
	</g>
	<g>
		<g>
			<g>
				
					<rect x="39.918" y="66.977" transform="matrix(0.9742 -0.2258 0.2258 0.9742 -15.1227 11.2578)" fill="#FFFFFF" width="3.48" height="9.539"/>
			</g>
			<g>
				
					<rect x="36.85" y="69.839" transform="matrix(0.9742 -0.2258 0.2258 0.9742 -15.0857 11.2446)" fill="#FFFFFF" width="9.539" height="3.481"/>
			</g>
		</g>
	</g>
	<g>
		<g>
			<g>
				<path fill="#FECD2E" d="M52.833,44.448c-0.19,0.84-0.192,1.681,0.087,2.502c0.228,0.667,1.291,0.381,1.062-0.293
					c-0.218-0.638-0.236-1.261-0.087-1.916C54.05,44.05,52.989,43.756,52.833,44.448L52.833,44.448z"/>
			</g>
		</g>
	</g>
	<g>
		
			<ellipse transform="matrix(0.9742 -0.2258 0.2258 0.9742 -10.0298 15.2987)" fill="#FFFFFF" cx="61.874" cy="51.501" rx="0.895" ry="0.895"/>
	</g>
	<g>
		
			<ellipse transform="matrix(0.9742 -0.2258 0.2258 0.9742 -9.6296 17.2679)" fill="#FFFFFF" cx="70.684" cy="50.736" rx="0.895" ry="0.895"/>
	</g>
	<g>
		
			<ellipse transform="matrix(0.9742 -0.2258 0.2258 0.9742 -9.3111 16.2071)" fill="#FFFFFF" cx="66.204" cy="48.813" rx="0.895" ry="0.895"/>
	</g>
	<g>
		<g>
			<g>
				<path fill="#FFFFFF" d="M74.071,110.373l0.411-0.239l0.845,1.455c0.07-0.217,0.193-0.376,0.37-0.479
					c0.201-0.117,0.4-0.145,0.596-0.085c0.168,0.054,0.325,0.205,0.469,0.454l0.634,1.092l-0.411,0.239l-0.612-1.053
					c-0.083-0.142-0.168-0.231-0.256-0.266c-0.088-0.034-0.188-0.019-0.3,0.046c-0.144,0.083-0.219,0.187-0.226,0.31
					c-0.005,0.124,0.056,0.295,0.184,0.514l0.5,0.861l-0.411,0.239L74.071,110.373z"/>
			</g>
			<g>
				<path fill="#FFFFFF" d="M78.196,109.726l0.413-0.24l1.034,1.781l-0.413,0.24l-0.108-0.187c-0.077,0.257-0.214,0.442-0.409,0.555
					c-0.246,0.143-0.502,0.172-0.766,0.088c-0.265-0.089-0.477-0.269-0.634-0.541c-0.155-0.267-0.204-0.536-0.148-0.807
					c0.056-0.271,0.205-0.476,0.445-0.615c0.207-0.12,0.443-0.143,0.706-0.068L78.196,109.726z M77.734,111.178
					c0.099,0.171,0.226,0.283,0.379,0.337c0.157,0.054,0.307,0.04,0.449-0.043c0.152-0.088,0.245-0.213,0.278-0.372
					c0.031-0.163-0.002-0.328-0.099-0.495c-0.097-0.167-0.224-0.277-0.381-0.331c-0.156-0.051-0.308-0.034-0.458,0.053
					c-0.141,0.082-0.229,0.204-0.261,0.367C77.61,110.857,77.641,111.018,77.734,111.178z"/>
			</g>
			<g>
				<path fill="#FFFFFF" d="M80.56,108.457l0.317,0.547c-0.16-0.06-0.29-0.09-0.389-0.089c-0.099-0.002-0.197,0.027-0.296,0.084
					c-0.155,0.09-0.252,0.219-0.291,0.387c-0.039,0.168-0.012,0.334,0.083,0.497c0.097,0.167,0.226,0.275,0.387,0.325
					c0.162,0.049,0.321,0.029,0.475-0.061c0.099-0.057,0.174-0.129,0.225-0.216c0.049-0.084,0.088-0.214,0.118-0.391l0.315,0.543
					c-0.117,0.184-0.259,0.324-0.426,0.421c-0.275,0.16-0.558,0.205-0.846,0.134c-0.289-0.072-0.511-0.24-0.665-0.506
					c-0.154-0.266-0.191-0.544-0.109-0.836c0.082-0.292,0.259-0.517,0.532-0.676C80.165,108.517,80.355,108.463,80.56,108.457z"/>
			</g>
			<g>
				<path fill="#FFFFFF" d="M80.566,106.602l1.094,1.883l0.245-0.912l0.552-0.321l-0.339,1.197l1.43,0.551l-0.534,0.31l-1.025-0.41
					l-0.028,0.104l0.398,0.686l-0.411,0.239l-1.793-3.088L80.566,106.602z"/>
			</g>
			<g>
				<path fill="#FFFFFF" d="M84.092,106.303l0.413-0.24l1.034,1.781l-0.413,0.24l-0.108-0.186c-0.077,0.257-0.214,0.442-0.409,0.555
					c-0.246,0.143-0.502,0.172-0.766,0.088c-0.265-0.089-0.477-0.269-0.634-0.541c-0.155-0.267-0.204-0.536-0.148-0.807
					c0.056-0.271,0.205-0.476,0.445-0.615c0.207-0.12,0.443-0.143,0.706-0.068L84.092,106.303z M83.629,107.755
					c0.099,0.171,0.226,0.283,0.379,0.337c0.157,0.054,0.307,0.04,0.449-0.043c0.152-0.088,0.245-0.212,0.278-0.372
					c0.031-0.163-0.002-0.328-0.099-0.495c-0.097-0.167-0.224-0.277-0.381-0.331c-0.155-0.051-0.308-0.034-0.458,0.053
					c-0.141,0.082-0.229,0.204-0.261,0.367C83.506,107.434,83.537,107.595,83.629,107.755z"/>
			</g>
			<g>
				<path fill="#FFFFFF" d="M85.671,105.899l0.811,1.397l-0.411,0.239l-0.811-1.397l-0.176,0.102l-0.223-0.384l0.176-0.102
					l-0.379-0.653l0.411-0.239l0.379,0.653l0.32-0.186l0.223,0.384L85.671,105.899z"/>
			</g>
			<g>
				<path fill="#FFFFFF" d="M85.289,103.86l0.411-0.239l0.845,1.455c0.07-0.217,0.193-0.376,0.37-0.479
					c0.201-0.117,0.4-0.145,0.596-0.085c0.168,0.054,0.324,0.205,0.469,0.454l0.634,1.092l-0.411,0.239l-0.612-1.053
					c-0.083-0.142-0.168-0.231-0.256-0.266c-0.088-0.034-0.188-0.019-0.3,0.046c-0.144,0.083-0.219,0.186-0.226,0.31
					c-0.005,0.123,0.056,0.295,0.184,0.514l0.5,0.861l-0.411,0.239L85.289,103.86z"/>
			</g>
			<g>
				<path fill="#FFFFFF" d="M88.527,104.901c-0.15-0.257-0.184-0.529-0.105-0.817c0.079-0.287,0.251-0.508,0.516-0.661
					c0.266-0.154,0.544-0.194,0.835-0.12c0.288,0.076,0.509,0.245,0.663,0.51c0.155,0.267,0.193,0.544,0.113,0.832
					c-0.081,0.287-0.256,0.508-0.526,0.665c-0.267,0.155-0.544,0.194-0.83,0.115C88.908,105.349,88.686,105.174,88.527,104.901z
					 M88.952,104.664c0.103,0.178,0.233,0.291,0.388,0.34c0.158,0.048,0.317,0.026,0.477-0.067c0.161-0.094,0.26-0.22,0.296-0.38
					c0.036-0.159,0.004-0.326-0.097-0.499c-0.1-0.173-0.229-0.283-0.385-0.331c-0.158-0.048-0.317-0.026-0.477,0.067
					c-0.157,0.091-0.254,0.218-0.291,0.379C88.826,104.335,88.856,104.499,88.952,104.664z"/>
			</g>
			<g>
				<path fill="#FFFFFF" d="M90.353,102.668l0.413-0.24l0.095,0.165c0.061-0.226,0.182-0.392,0.362-0.496
					c0.207-0.12,0.407-0.149,0.598-0.086c0.164,0.053,0.319,0.205,0.465,0.456l0.634,1.092l-0.413,0.24l-0.578-0.995
					c-0.102-0.175-0.197-0.283-0.284-0.321c-0.087-0.041-0.193-0.025-0.319,0.048c-0.136,0.079-0.207,0.181-0.212,0.304
					c-0.004,0.121,0.058,0.293,0.187,0.515l0.499,0.86l-0.413,0.24L90.353,102.668z"/>
			</g>
			<g>
				<path fill="#FFFFFF" d="M95.042,101.791l1.051-0.611l0.233,0.401l-1.896,1.101l0.291-1.756c0.028-0.174,0.049-0.324,0.064-0.448
					c0.015-0.124,0.022-0.226,0.023-0.304c0.003-0.155-0.022-0.278-0.075-0.369c-0.076-0.132-0.187-0.215-0.331-0.25
					c-0.144-0.035-0.285-0.013-0.421,0.066c-0.285,0.166-0.351,0.429-0.196,0.791l-0.424,0.246
					c-0.277-0.635-0.149-1.107,0.383-1.416c0.257-0.149,0.521-0.193,0.79-0.131c0.27,0.061,0.476,0.213,0.616,0.454
					c0.089,0.154,0.136,0.328,0.14,0.523c0.003,0.101-0.005,0.227-0.023,0.379c-0.019,0.152-0.047,0.335-0.086,0.55L95.042,101.791z
					"/>
			</g>
			<g>
				<path fill="#FFFFFF" d="M95.977,99.872c-0.261-0.45-0.365-0.87-0.311-1.26c0.047-0.351,0.204-0.605,0.471-0.76
					c0.267-0.155,0.565-0.165,0.893-0.032c0.365,0.147,0.682,0.451,0.95,0.913c0.267,0.461,0.374,0.886,0.32,1.276
					c-0.047,0.352-0.203,0.605-0.469,0.759c-0.266,0.154-0.564,0.165-0.895,0.033C96.571,100.655,96.251,100.345,95.977,99.872z
					 M96.396,99.631c0.182,0.313,0.387,0.542,0.616,0.686c0.227,0.141,0.424,0.162,0.592,0.064c0.167-0.097,0.246-0.279,0.238-0.546
					c-0.008-0.266-0.101-0.553-0.28-0.862c-0.179-0.308-0.383-0.533-0.611-0.673c-0.227-0.139-0.424-0.159-0.591-0.062
					c-0.166,0.096-0.245,0.278-0.237,0.543C96.131,99.047,96.221,99.33,96.396,99.631z"/>
			</g>
			<g>
				<path fill="#FFFFFF" d="M98.566,97.038l-0.488,0.283l0.003-0.534l0.68-0.395l1.639,2.823l-0.426,0.247L98.566,97.038z"/>
			</g>
			<g>
				<path fill="#FFFFFF" d="M101.069,96.864c-0.292-0.026-0.511-0.165-0.658-0.417c-0.133-0.229-0.166-0.466-0.097-0.711
					c0.069-0.246,0.221-0.437,0.457-0.574c0.234-0.136,0.474-0.172,0.719-0.109c0.244,0.062,0.434,0.208,0.568,0.44
					c0.141,0.243,0.153,0.501,0.036,0.774c0.149-0.005,0.289,0.032,0.422,0.112c0.134,0.079,0.243,0.191,0.328,0.338
					c0.145,0.25,0.182,0.502,0.112,0.757c-0.071,0.255-0.233,0.456-0.488,0.604c-0.261,0.151-0.523,0.196-0.786,0.133
					c-0.264-0.062-0.467-0.215-0.608-0.458C100.889,97.435,100.887,97.139,101.069,96.864z M100.81,96.212
					c0.07,0.121,0.17,0.198,0.299,0.232c0.131,0.035,0.255,0.018,0.372-0.05c0.116-0.067,0.191-0.166,0.226-0.297
					c0.035-0.131,0.019-0.254-0.049-0.37c-0.067-0.116-0.166-0.191-0.297-0.226c-0.131-0.035-0.254-0.018-0.37,0.049
					c-0.116,0.067-0.191,0.166-0.226,0.297C100.73,95.978,100.745,96.1,100.81,96.212z M101.483,97.494
					c0.076,0.13,0.186,0.217,0.331,0.258c0.145,0.039,0.283,0.021,0.414-0.054c0.129-0.075,0.213-0.185,0.251-0.329
					c0.038-0.146,0.019-0.283-0.056-0.412c-0.076-0.13-0.186-0.215-0.33-0.253c-0.145-0.038-0.281-0.02-0.411,0.055
					c-0.128,0.074-0.212,0.184-0.251,0.329C101.392,97.231,101.41,97.367,101.483,97.494z"/>
			</g>
		</g>
		<g>
			<g>
				<path fill="#FFFFFF" d="M57.781,122.502c-0.018-0.031-0.037-0.062-0.055-0.094c-0.018-0.031-0.036-0.063-0.045-0.099
					c-0.007-0.028-0.024-0.051-0.037-0.077c-0.009-0.018-0.02-0.036-0.021-0.057c0-0.005-0.001-0.01-0.003-0.014
					c-0.018-0.037-0.033-0.074-0.045-0.114c-0.011-0.036-0.021-0.072-0.031-0.108c-0.015-0.05-0.026-0.1-0.035-0.151
					c-0.014-0.072-0.024-0.145-0.031-0.218c-0.009-0.094-0.011-0.189-0.009-0.284c0.001-0.072,0.011-0.144,0.018-0.215
					c0.006-0.064,0.024-0.126,0.034-0.188c0.013-0.081,0.039-0.159,0.062-0.237c0.037-0.121,0.087-0.237,0.146-0.349
					c0.038-0.073,0.082-0.144,0.127-0.214c0.025-0.039,0.051-0.078,0.081-0.113c0.029-0.034,0.052-0.074,0.087-0.103
					c0.013-0.01,0.014-0.028,0.029-0.037c0.012-0.007,0.02-0.019,0.028-0.031c0.013-0.02,0.034-0.031,0.05-0.049
					c0.025-0.029,0.056-0.055,0.085-0.081c0.034-0.03,0.071-0.057,0.105-0.088c0.032-0.029,0.067-0.052,0.102-0.077
					c0.074-0.053,0.15-0.105,0.232-0.147c0.104-0.053,0.209-0.103,0.319-0.142c0.041-0.015,0.083-0.029,0.125-0.041
					c0.034-0.01,0.067-0.027,0.104-0.026c0.025-0.015,0.056-0.009,0.081-0.021c0.02-0.01,0.043-0.007,0.064-0.012
					c0.046-0.011,0.094-0.016,0.142-0.021c0.09-0.009,0.181-0.014,0.271-0.013c0.091,0.001,0.18,0.012,0.27,0.02
					c0.09,0.009,0.175,0.036,0.264,0.048c0.014,0.002,0.027,0.007,0.041,0.012c0.03,0.01,0.059,0.022,0.089,0.029
					c0.075,0.017,0.146,0.049,0.216,0.079c0.056,0.024,0.112,0.048,0.165,0.076c0.058,0.03,0.114,0.065,0.169,0.099
					c0.074,0.047,0.145,0.099,0.212,0.155c0.038,0.032,0.08,0.06,0.111,0.101c0.032,0.015,0.044,0.053,0.076,0.069
					c0.008,0.004,0.013,0.014,0.018,0.021c0.011,0.015,0.022,0.03,0.038,0.042c0.009,0.006,0.016,0.015,0.022,0.024
					c0.014,0.019,0.026,0.039,0.047,0.053c0.01,0.007,0.016,0.019,0.023,0.029c0.021,0.032,0.041,0.064,0.066,0.092
					c0.028,0.031,0.048,0.066,0.069,0.101c0.025,0.042,0.05,0.084,0.074,0.126c0.021,0.035,0.042,0.071,0.055,0.11
					c0.011,0.033,0.028,0.063,0.044,0.094c0.01,0.018,0.021,0.036,0.02,0.057c0,0.003,0.001,0.006,0.002,0.009
					c0.018,0.035,0.03,0.072,0.041,0.11c0.006,0.021,0.015,0.04,0.019,0.062c0.004,0.026,0.015,0.051,0.021,0.077
					c0.02,0.074,0.034,0.149,0.046,0.224c0.017,0.107,0.025,0.214,0.026,0.322c0.001,0.056-0.006,0.112-0.003,0.168
					c-0.016,0.113-0.023,0.227-0.052,0.338c-0.008,0.032-0.012,0.065-0.021,0.096c-0.015,0.051-0.033,0.102-0.048,0.153
					c-0.017,0.057-0.043,0.11-0.065,0.165c-0.052,0.13-0.123,0.249-0.197,0.367c-0.038,0.041-0.062,0.093-0.101,0.134
					c-0.015,0.015-0.026,0.034-0.04,0.051c-0.032,0.036-0.06,0.076-0.095,0.109c-0.026,0.025-0.047,0.056-0.078,0.074
					c-0.061,0.069-0.137,0.12-0.206,0.18c-0.002,0.002-0.005,0.004-0.007,0.006c-0.091,0.06-0.177,0.128-0.275,0.175
					c-0.074,0.035-0.145,0.076-0.222,0.104c-0.047,0.017-0.094,0.035-0.141,0.054c-0.03,0.012-0.063,0.019-0.094,0.029
					c-0.038,0.013-0.078,0.024-0.118,0.03c-0.047,0.008-0.093,0.026-0.142,0.025c-0.095,0.021-0.191,0.028-0.288,0.031
					c-0.092,0.003-0.184,0.004-0.276-0.009c-0.043-0.006-0.087-0.007-0.13-0.014c-0.052-0.008-0.104-0.021-0.157-0.029
					c-0.1-0.015-0.193-0.054-0.289-0.081c-0.051-0.015-0.098-0.041-0.148-0.06c-0.073-0.029-0.141-0.066-0.209-0.104
					c-0.084-0.047-0.164-0.101-0.241-0.158c-0.043-0.032-0.084-0.067-0.124-0.102c-0.039-0.034-0.075-0.072-0.113-0.107
					c-0.028-0.026-0.048-0.058-0.08-0.08c-0.006-0.004-0.01-0.012-0.015-0.018c-0.017-0.025-0.033-0.049-0.058-0.068
					c-0.013-0.01-0.021-0.027-0.03-0.042c-0.018-0.028-0.037-0.055-0.06-0.079c-0.011-0.011-0.02-0.024-0.028-0.037
					C57.83,122.583,57.806,122.542,57.781,122.502C57.782,122.501,57.782,122.501,57.781,122.502z M59.272,121.59
					c0.043-0.035,0.082-0.072,0.126-0.101c0.089-0.059,0.18-0.117,0.28-0.156c0.041-0.016,0.078-0.042,0.119-0.057
					c0.075-0.027,0.142-0.067,0.21-0.107c0.037-0.022,0.073-0.043,0.102-0.075c0.007-0.008,0.017-0.015,0.026-0.02
					c0.037-0.02,0.057-0.059,0.091-0.081c0.045-0.061,0.093-0.12,0.119-0.194c0.037-0.105,0.038-0.209-0.008-0.311
					c-0.017-0.039-0.04-0.075-0.064-0.11c-0.04-0.056-0.093-0.097-0.155-0.126c-0.069-0.031-0.142-0.046-0.218-0.046
					c-0.066,0-0.13,0.007-0.192,0.029c-0.004,0.002-0.009,0.002-0.014,0.002c-0.015-0.002-0.028,0.006-0.04,0.012
					c-0.062,0.032-0.121,0.068-0.179,0.106c-0.009,0.006-0.02,0.011-0.024,0.022c-0.007,0.016-0.02,0.023-0.033,0.033
					c-0.006,0.005-0.014,0.009-0.018,0.015c-0.025,0.037-0.058,0.069-0.084,0.106c-0.045,0.063-0.082,0.131-0.107,0.203
					c-0.045,0.127-0.065,0.26-0.061,0.396c0.003,0.084,0.016,0.166,0.036,0.246c0.008,0.03,0.012,0.062,0.028,0.09
					c0.009,0.016,0.014,0.034,0.019,0.053C59.237,121.545,59.248,121.571,59.272,121.59z M59.534,121.575
					c-0.02,0.012-0.04,0.025-0.061,0.036c-0.023,0.012-0.04,0.031-0.057,0.049c-0.005,0.006-0.013,0.009-0.019,0.014
					c-0.022,0.017-0.05,0.027-0.065,0.053c-0.014,0.024-0.049,0.031-0.057,0.061c-0.036,0.04-0.062,0.085-0.085,0.133
					c-0.052,0.107-0.048,0.216-0.006,0.322c0.027,0.069,0.074,0.125,0.135,0.171c0.075,0.056,0.159,0.082,0.249,0.085
					c0.08,0.003,0.162-0.002,0.236-0.04c0.008-0.004,0.018-0.005,0.027-0.007c0.009-0.002,0.018-0.004,0.027-0.008
					c0.082-0.038,0.159-0.099,0.224-0.169c0.027-0.029,0.051-0.058,0.075-0.089c0.062-0.081,0.1-0.173,0.13-0.269
					c0.014-0.044,0.017-0.089,0.026-0.133c0.008-0.04,0.01-0.081,0.01-0.121c0-0.08-0.008-0.16-0.024-0.238
					c-0.005-0.022-0.015-0.041-0.019-0.063c-0.007-0.047-0.029-0.089-0.044-0.134c-0.003-0.009-0.008-0.017-0.013-0.025
					c-0.007-0.012-0.013-0.013-0.026-0.003c-0.032,0.023-0.064,0.045-0.092,0.073c-0.011,0.011-0.025,0.02-0.038,0.028
					c-0.06,0.035-0.12,0.071-0.18,0.105c-0.016,0.009-0.034,0.017-0.052,0.023c-0.027,0.009-0.053,0.021-0.078,0.034
					c-0.026,0.014-0.052,0.031-0.08,0.041C59.627,121.521,59.58,121.547,59.534,121.575z"/>
			</g>
			<g>
				<path fill="#FFFFFF" d="M68.317,116.701c0.155,0.263,0.309,0.525,0.464,0.788c0.012,0.02,0.024,0.039,0.035,0.06
					c0.017,0.034,0.013,0.049-0.02,0.072c-0.017,0.011-0.034,0.021-0.052,0.031c-0.124,0.073-0.247,0.146-0.372,0.219
					c-0.118,0.069-0.095,0.075-0.164-0.039c-0.015-0.025-0.029-0.05-0.044-0.074c-0.004-0.007-0.009-0.015-0.016-0.02
					c-0.006-0.005-0.015-0.007-0.022,0.001c-0.012,0.014-0.016,0.03-0.018,0.047c-0.015,0.113-0.065,0.213-0.129,0.303
					c-0.032,0.045-0.063,0.096-0.117,0.123c-0.012,0.006-0.024,0.017-0.033,0.027c-0.061,0.069-0.135,0.115-0.226,0.132
					c-0.011,0.002-0.022,0.007-0.032,0.013c-0.088,0.047-0.184,0.053-0.281,0.06c-0.112,0.008-0.221-0.008-0.328-0.038
					c-0.093-0.026-0.181-0.066-0.263-0.119c-0.033-0.022-0.065-0.045-0.098-0.068c-0.049-0.035-0.095-0.072-0.132-0.12
					c-0.012-0.016-0.022-0.034-0.037-0.047c-0.088-0.075-0.131-0.18-0.188-0.276c-0.01-0.017-0.013-0.038-0.019-0.057
					c-0.006-0.019-0.009-0.04-0.018-0.057c-0.044-0.089-0.055-0.184-0.066-0.281c-0.017-0.162,0.005-0.319,0.064-0.47
					c0.036-0.093,0.089-0.177,0.146-0.259c0.042-0.06,0.11-0.092,0.147-0.154c0.086-0.051,0.161-0.122,0.266-0.135
					c0.008-0.001,0.017-0.005,0.024-0.008c0.108-0.049,0.221-0.049,0.335-0.034c0.045,0.006,0.091,0.013,0.133,0.032
					c0.019,0.008,0.038,0.011,0.059,0.01c0.011-0.001,0.014-0.011,0.011-0.018c-0.008-0.018-0.018-0.036-0.028-0.053
					c-0.023-0.04-0.046-0.079-0.069-0.119c-0.01-0.018-0.005-0.033,0.012-0.044c0.029-0.019,0.057-0.039,0.087-0.057
					c0.111-0.066,0.222-0.132,0.334-0.197c0.032-0.019,0.066-0.034,0.1-0.05c0.017-0.008,0.034-0.003,0.044,0.015
					c0.012,0.02,0.024,0.039,0.036,0.059C68.002,116.166,68.159,116.433,68.317,116.701z M66.878,117.542
					c0.045,0.083,0.111,0.143,0.19,0.192c0.122,0.075,0.25,0.106,0.39,0.058c0.011-0.004,0.022-0.007,0.033-0.008
					c0.036-0.003,0.065-0.021,0.095-0.037c0.055-0.029,0.082-0.088,0.132-0.122c0.064-0.104,0.104-0.213,0.094-0.338
					c-0.004-0.052-0.022-0.099-0.033-0.149c-0.01-0.046-0.028-0.088-0.056-0.125c-0.066-0.084-0.141-0.158-0.24-0.201
					c-0.154-0.067-0.305-0.062-0.451,0.025c-0.044,0.026-0.081,0.059-0.115,0.1c-0.032,0.038-0.059,0.076-0.077,0.121
					C66.774,117.226,66.793,117.387,66.878,117.542z"/>
			</g>
			<g>
				<path fill="#FFFFFF" d="M71.651,114.666c0.161,0.273,0.321,0.545,0.482,0.818c0.033,0.055,0.048,0.063-0.025,0.107
					c-0.149,0.087-0.297,0.175-0.446,0.263c-0.005,0.003-0.01,0.006-0.015,0.008c-0.039,0.02-0.047,0.019-0.07-0.017
					c-0.021-0.034-0.041-0.069-0.062-0.104c-0.007-0.012-0.014-0.025-0.023-0.036c-0.005-0.006-0.013-0.011-0.02-0.012
					c-0.012-0.002-0.014,0.009-0.014,0.017c-0.003,0.046-0.014,0.09-0.028,0.134c-0.028,0.084-0.07,0.159-0.128,0.228
					c-0.03,0.036-0.062,0.066-0.099,0.093c-0.007,0.005-0.015,0.01-0.02,0.017c-0.051,0.071-0.128,0.109-0.203,0.141
					c-0.081,0.033-0.164,0.071-0.253,0.074c-0.166,0.007-0.322-0.021-0.457-0.131c-0.038-0.031-0.074-0.062-0.1-0.104
					c-0.008-0.012-0.015-0.026-0.026-0.034c-0.053-0.039-0.083-0.095-0.115-0.149c-0.215-0.364-0.43-0.728-0.645-1.092
					c-0.04-0.067-0.039-0.068,0.024-0.106c0.143-0.085,0.287-0.17,0.431-0.254c0.01-0.006,0.02-0.012,0.03-0.017
					c0.031-0.015,0.048-0.012,0.067,0.015c0.013,0.019,0.024,0.039,0.036,0.059c0.149,0.253,0.298,0.506,0.447,0.758
					c0.035,0.059,0.072,0.118,0.109,0.176c0.045,0.069,0.133,0.135,0.208,0.171c0.033,0.016,0.069,0.023,0.099,0.017
					c0.094-0.018,0.195-0.029,0.254-0.123c0.017-0.026,0.046-0.039,0.063-0.069c0.044-0.08,0.048-0.164,0.032-0.25
					c-0.016-0.085-0.047-0.164-0.092-0.239c-0.163-0.271-0.322-0.545-0.482-0.818c-0.066-0.111-0.066-0.095,0.041-0.159
					c0.129-0.076,0.258-0.152,0.387-0.228c0.02-0.012,0.04-0.023,0.061-0.032c0.015-0.007,0.029-0.002,0.038,0.011
					c0.015,0.021,0.028,0.043,0.041,0.066C71.336,114.131,71.493,114.398,71.651,114.666z"/>
			</g>
			<g>
				<path fill="#FFFFFF" d="M63.692,119.735c0.074-0.044,0.149-0.088,0.223-0.131c0.034-0.02,0.047-0.028,0.079,0.012
					c0.051,0.064,0.119,0.096,0.201,0.084c0.083-0.013,0.162-0.036,0.231-0.088c0.04-0.03,0.067-0.071,0.096-0.109
					c0.022-0.029,0.026-0.067,0.01-0.106c-0.032-0.078-0.075-0.109-0.159-0.103c-0.054,0.004-0.108,0.012-0.161,0.024
					c-0.117,0.026-0.232,0.061-0.35,0.081c-0.111,0.019-0.221,0.05-0.336,0.048c-0.092-0.002-0.18-0.014-0.262-0.058
					c-0.053-0.029-0.104-0.06-0.136-0.114c-0.007-0.012-0.017-0.024-0.027-0.033c-0.031-0.028-0.051-0.061-0.061-0.101
					c-0.004-0.017-0.012-0.033-0.019-0.048c-0.082-0.166-0.055-0.327,0.027-0.482c0.031-0.059,0.066-0.12,0.123-0.161
					c0.023-0.05,0.07-0.074,0.112-0.104c0.012-0.008,0.023-0.018,0.033-0.028c0.092-0.1,0.217-0.149,0.331-0.214
					c0.046-0.005,0.09-0.019,0.129-0.044c0.038-0.024,0.086-0.008,0.124-0.032c0.133-0.015,0.265-0.025,0.394,0.028
					c0.097,0.04,0.182,0.094,0.247,0.177c0.016,0.02,0.034,0.039,0.049,0.06c0.027,0.036,0.023,0.049-0.017,0.075
					c-0.01,0.006-0.02,0.012-0.03,0.018c-0.131,0.077-0.263,0.155-0.394,0.232c-0.015,0.009-0.029,0.018-0.045,0.026
					c-0.025,0.012-0.043,0.007-0.061-0.013c-0.011-0.013-0.02-0.028-0.032-0.041c-0.034-0.036-0.074-0.063-0.124-0.065
					c-0.086-0.004-0.166,0.015-0.226,0.083c-0.028,0.032-0.064,0.056-0.078,0.101c-0.029,0.091,0.03,0.194,0.124,0.206
					c0.042,0.005,0.087,0.004,0.128-0.004c0.107-0.02,0.213-0.046,0.32-0.069c0.133-0.029,0.264-0.071,0.401-0.079
					c0.103-0.006,0.205-0.002,0.299,0.051c0.038,0.021,0.075,0.044,0.103,0.076c0.06,0.069,0.111,0.143,0.147,0.23
					c0.072,0.178,0.045,0.346-0.028,0.513c-0.024,0.054-0.09,0.142-0.136,0.183c-0.027,0.025-0.04,0.062-0.075,0.081
					c-0.03,0.016-0.062,0.034-0.084,0.06c-0.054,0.063-0.126,0.099-0.195,0.14c-0.032,0.019-0.065,0.036-0.102,0.045
					c-0.028,0.007-0.056,0.017-0.08,0.032c-0.062,0.041-0.134,0.052-0.202,0.068c-0.056,0.013-0.116,0.023-0.177,0.021
					c-0.083-0.002-0.166-0.011-0.243-0.042c-0.081-0.032-0.163-0.069-0.218-0.143c-0.054-0.028-0.081-0.079-0.111-0.127
					c-0.005-0.007-0.009-0.015-0.013-0.022c-0.011-0.023-0.009-0.035,0.015-0.05c0.046-0.029,0.094-0.056,0.141-0.084
					C63.628,119.773,63.66,119.754,63.692,119.735C63.692,119.735,63.692,119.735,63.692,119.735z"/>
			</g>
			<g>
				<path fill="#FFFFFF" d="M72.963,113.422c-0.067,0.039-0.134,0.079-0.201,0.118c-0.017,0.01-0.035,0.02-0.053,0.029
					c-0.015,0.007-0.028,0.003-0.038-0.01c-0.017-0.023-0.032-0.047-0.055-0.066c-0.103-0.084-0.241-0.055-0.33,0.023
					c-0.021,0.019-0.041,0.04-0.059,0.063c-0.062,0.08-0.057,0.194,0.061,0.249c0.01,0.005,0.022,0.006,0.033,0.006
					c0.052,0.001,0.103,0.002,0.154-0.009c0.106-0.023,0.213-0.044,0.318-0.071c0.074-0.019,0.149-0.041,0.224-0.054
					c0.108-0.017,0.217-0.033,0.328-0.011c0.093,0.018,0.169,0.062,0.24,0.12c0.011,0.009,0.018,0.022,0.026,0.034
					c0.027,0.044,0.054,0.088,0.081,0.133c0.085,0.144,0.086,0.296,0.048,0.453c-0.026,0.105-0.089,0.189-0.147,0.276
					c-0.055,0.04-0.087,0.106-0.151,0.137c-0.018,0.008-0.034,0.023-0.048,0.037c-0.087,0.087-0.191,0.145-0.307,0.185
					c-0.024,0.008-0.049,0.018-0.072,0.03c-0.138,0.071-0.286,0.091-0.438,0.084c-0.11-0.005-0.213-0.039-0.305-0.103
					c-0.084-0.058-0.154-0.128-0.203-0.218c-0.018-0.034-0.015-0.05,0.02-0.071c0.146-0.087,0.292-0.173,0.438-0.259
					c0.005-0.003,0.01-0.006,0.015-0.008c0.033-0.014,0.053-0.012,0.074,0.02c0.041,0.061,0.1,0.083,0.169,0.081
					c0.099-0.002,0.249-0.055,0.31-0.141c0.029-0.04,0.06-0.075,0.062-0.127c0.002-0.047-0.042-0.11-0.085-0.126
					c-0.042-0.015-0.085-0.017-0.127-0.009c-0.081,0.015-0.162,0.037-0.243,0.052c-0.09,0.016-0.177,0.046-0.268,0.054
					c-0.042,0.004-0.083,0.019-0.125,0.026c-0.095,0.015-0.197,0.02-0.286,0.008c-0.133-0.018-0.236-0.088-0.311-0.194
					c-0.093-0.13-0.139-0.274-0.116-0.437c0.014-0.099,0.056-0.185,0.112-0.265c0.034-0.049,0.074-0.093,0.113-0.138
					c0.013-0.015,0.031-0.025,0.047-0.037c0.028-0.02,0.057-0.036,0.075-0.069c0.009-0.016,0.03-0.026,0.047-0.037
					c0.059-0.036,0.118-0.072,0.177-0.107c0.042-0.025,0.084-0.05,0.134-0.055c0.014-0.001,0.028-0.008,0.04-0.015
					c0.069-0.037,0.144-0.05,0.221-0.059c0.051-0.006,0.1-0.01,0.152-0.009c0.125,0.001,0.236,0.042,0.335,0.112
					c0.067,0.048,0.129,0.104,0.165,0.182c0.011,0.024,0.009,0.034-0.014,0.05c-0.005,0.003-0.01,0.006-0.015,0.009
					C73.112,113.334,73.038,113.378,72.963,113.422C72.963,113.422,72.963,113.422,72.963,113.422z"/>
			</g>
			<g>
				<path fill="#FFFFFF" d="M68.677,116.448c-0.076-0.129-0.152-0.258-0.228-0.386c-0.01-0.017-0.02-0.035-0.031-0.052
					c-0.019-0.027-0.037-0.033-0.066-0.018c-0.046,0.024-0.09,0.052-0.134,0.077c-0.02,0.011-0.04,0.024-0.061,0.033
					c-0.03,0.013-0.048,0.007-0.065-0.02c-0.024-0.039-0.047-0.079-0.071-0.119c-0.039-0.067-0.079-0.133-0.118-0.201
					c-0.023-0.039-0.019-0.052,0.021-0.077c0.046-0.029,0.094-0.056,0.141-0.084c0.017-0.01,0.034-0.021,0.051-0.032
					c0.017-0.011,0.02-0.029,0.013-0.045c-0.008-0.021-0.02-0.041-0.032-0.061c-0.074-0.126-0.149-0.253-0.223-0.379
					c-0.043-0.074-0.043-0.074,0.031-0.117c0.134-0.079,0.267-0.158,0.401-0.236c0.015-0.009,0.03-0.018,0.045-0.025
					c0.014-0.006,0.03-0.002,0.039,0.009c0.014,0.018,0.027,0.037,0.038,0.057c0.073,0.124,0.146,0.248,0.219,0.371
					c0.057,0.096,0.053,0.083,0.136,0.035c0.077-0.045,0.154-0.091,0.231-0.135c0.02-0.012,0.04-0.023,0.061-0.032
					c0.014-0.006,0.028-0.003,0.038,0.011c0.005,0.007,0.01,0.014,0.014,0.022c0.061,0.104,0.123,0.208,0.184,0.312
					c0.021,0.035,0.018,0.05-0.012,0.073c-0.016,0.012-0.033,0.022-0.051,0.033c-0.074,0.044-0.149,0.088-0.223,0.132
					c-0.017,0.01-0.034,0.021-0.051,0.032c-0.016,0.011-0.02,0.028-0.013,0.045c0.005,0.013,0.013,0.026,0.02,0.038
					c0.117,0.198,0.234,0.396,0.35,0.594c0.029,0.05,0.068,0.092,0.11,0.131c0.024,0.023,0.052,0.036,0.082,0.046
					c0.029,0.01,0.058,0.011,0.092,0.002c0.093-0.026,0.177-0.067,0.251-0.128c0.007-0.005,0.014-0.01,0.021-0.015
					c0.022-0.014,0.038-0.012,0.052,0.007c0.007,0.009,0.013,0.019,0.018,0.029c0.061,0.104,0.123,0.208,0.184,0.312
					c0.007,0.012,0.014,0.025,0.02,0.038c0.011,0.024,0.008,0.038-0.013,0.052c-0.125,0.081-0.231,0.19-0.368,0.254
					c-0.031,0.015-0.059,0.034-0.095,0.038c-0.019,0.002-0.038,0.012-0.056,0.02c-0.188,0.088-0.363,0.069-0.529-0.055
					c-0.086-0.064-0.158-0.139-0.212-0.232C68.818,116.685,68.748,116.567,68.677,116.448
					C68.677,116.448,68.677,116.448,68.677,116.448z"/>
			</g>
			<g>
				<path fill="#FFFFFF" d="M65.193,118.495c-0.074-0.126-0.149-0.253-0.223-0.379c-0.012-0.02-0.023-0.04-0.036-0.059
					c-0.015-0.022-0.036-0.027-0.06-0.015c-0.023,0.011-0.045,0.025-0.068,0.038c-0.04,0.023-0.079,0.048-0.12,0.069
					c-0.039,0.02-0.057,0.015-0.079-0.021c-0.062-0.104-0.123-0.207-0.184-0.312c-0.025-0.044-0.022-0.054,0.024-0.082
					c0.054-0.033,0.109-0.064,0.163-0.097c0.048-0.029,0.051-0.04,0.024-0.09c-0.021-0.038-0.043-0.075-0.065-0.112
					c-0.057-0.097-0.114-0.193-0.171-0.29c-0.012-0.02-0.022-0.04-0.032-0.061c-0.006-0.014-0.003-0.028,0.011-0.038
					c0.007-0.005,0.014-0.01,0.022-0.014c0.149-0.088,0.297-0.175,0.446-0.262c0.039-0.022,0.054-0.019,0.079,0.017
					c0.012,0.016,0.021,0.034,0.031,0.052c0.067,0.114,0.134,0.228,0.201,0.342c0.01,0.017,0.02,0.035,0.031,0.052
					c0.026,0.039,0.037,0.042,0.077,0.019c0.087-0.05,0.174-0.102,0.26-0.153c0.101-0.06,0.092-0.051,0.143,0.034
					c0.053,0.089,0.105,0.178,0.157,0.267c0.026,0.044,0.024,0.054-0.017,0.086c-0.018,0.014-0.038,0.026-0.058,0.037
					c-0.069,0.041-0.139,0.082-0.208,0.123c-0.017,0.01-0.034,0.021-0.051,0.032c-0.016,0.012-0.018,0.029-0.012,0.046
					c0.006,0.016,0.016,0.031,0.024,0.046c0.111,0.188,0.223,0.376,0.332,0.565c0.035,0.06,0.079,0.113,0.132,0.158
					c0.051,0.044,0.105,0.058,0.174,0.039c0.09-0.025,0.171-0.066,0.243-0.125c0.009-0.007,0.019-0.014,0.029-0.019
					c0.014-0.006,0.029-0.004,0.039,0.008c0.009,0.011,0.017,0.023,0.025,0.035c0.061,0.104,0.123,0.208,0.184,0.312
					c0.006,0.01,0.012,0.02,0.016,0.03c0.012,0.027,0.008,0.042-0.015,0.059c-0.016,0.012-0.034,0.022-0.05,0.034
					c-0.023,0.017-0.048,0.032-0.069,0.052c-0.081,0.08-0.183,0.127-0.28,0.184c-0.014,0.008-0.032,0.013-0.049,0.016
					c-0.026,0.005-0.049,0.015-0.073,0.026c-0.185,0.087-0.359,0.066-0.522-0.054c-0.084-0.062-0.156-0.134-0.208-0.225
					c-0.072-0.124-0.146-0.248-0.219-0.372C65.193,118.495,65.193,118.495,65.193,118.495z"/>
			</g>
		</g>
	</g>
</g>
<g id="border">
</g>
</svg>
