<?xml version="1.0" encoding="utf-8"?>
<!-- Generator: Adobe Illustrator 21.0.2, SVG Export Plug-In . SVG Version: 6.00 Build 0)  -->
<svg version="1.1" xmlns="http://www.w3.org/2000/svg" xmlns:xlink="http://www.w3.org/1999/xlink" x="0px" y="0px"
	 viewBox="0 0 110.979 128.417" enable-background="new 0 0 110.979 128.417" xml:space="preserve">
<g id="Layer_1">
</g>
<g id="Layer_4">
	<g>
		<polygon fill="#0A0F44" points="55.532,127.972 0.137,95.989 0.137,32.024 55.532,0.042 110.927,32.024 110.927,95.989 		"/>
	</g>
	<g>
		<polygon fill="#040933" points="55.699,116.64 10.175,90.357 10.175,37.792 55.699,11.509 101.222,37.792 101.222,90.357 		"/>
	</g>
	<g enable-background="new    ">
		<path fill="#15FFAB" d="M55.531,10.165L8.833,37.087V90.93l46.698,26.919l46.7-26.919V37.087L55.531,10.165z M100.34,89.845
			l-44.81,25.836L10.719,89.845V38.182l44.811-25.835l44.81,25.835V89.845z"/>
	</g>
	<g>
		<path fill="#FFFFFF" d="M10.74,31.04l1.452-0.834l0.067,0.116c0.152,0.264,0.254,0.515,0.309,0.754
			c0.047,0.223,0.046,0.458-0.004,0.704c-0.115,0.555-0.425,0.976-0.929,1.266c-0.491,0.282-1.014,0.347-1.569,0.193
			c-0.555-0.155-0.976-0.482-1.263-0.981c-0.293-0.51-0.363-1.044-0.21-1.604c0.152-0.561,0.483-0.989,0.995-1.282
			c0.274-0.158,0.563-0.249,0.866-0.273c0.292-0.019,0.62,0.035,0.985,0.161l-0.17,0.579c-0.509-0.218-0.97-0.208-1.385,0.03
			c-0.372,0.213-0.61,0.521-0.714,0.921c-0.107,0.397-0.052,0.785,0.166,1.164c0.225,0.391,0.55,0.633,0.977,0.725
			c0.397,0.085,0.749,0.039,1.056-0.137c0.261-0.15,0.445-0.373,0.552-0.668c0.106-0.297,0.1-0.576-0.018-0.837l-0.876,0.503
			L10.74,31.04z"/>
		<path fill="#FFFFFF" d="M14.172,28.554l0.514-0.295l1.273,2.216l-0.514,0.295l-0.133-0.232c-0.097,0.318-0.268,0.547-0.51,0.687
			c-0.306,0.176-0.623,0.211-0.951,0.105c-0.329-0.112-0.59-0.337-0.784-0.675c-0.191-0.332-0.251-0.666-0.179-1.002
			c0.072-0.336,0.257-0.589,0.556-0.761c0.258-0.148,0.55-0.175,0.877-0.08L14.172,28.554z M13.59,30.353
			c0.122,0.212,0.278,0.352,0.469,0.421c0.194,0.068,0.38,0.051,0.558-0.051c0.19-0.109,0.305-0.262,0.347-0.46
			c0.039-0.202-0.001-0.407-0.12-0.615s-0.276-0.346-0.47-0.414c-0.193-0.065-0.382-0.044-0.569,0.063
			c-0.176,0.101-0.285,0.252-0.326,0.454C13.438,29.954,13.476,30.155,13.59,30.353z"/>
		<path fill="#FFFFFF" d="M15.333,27.887l0.512-0.294l0.117,0.205c0.039-0.16,0.083-0.278,0.132-0.355
			c0.053-0.08,0.135-0.153,0.247-0.218c0.25-0.144,0.511-0.148,0.782-0.013c0.035-0.311,0.19-0.545,0.465-0.703
			c0.499-0.287,0.923-0.127,1.27,0.478l0.787,1.37l-0.514,0.295l-0.707-1.231c-0.122-0.212-0.234-0.348-0.336-0.406
			c-0.105-0.059-0.217-0.054-0.339,0.016c-0.141,0.081-0.213,0.193-0.217,0.336c-0.004,0.143,0.062,0.332,0.198,0.568l0.657,1.145
			l-0.514,0.295l-0.703-1.224c-0.227-0.395-0.454-0.526-0.681-0.396c-0.144,0.083-0.218,0.197-0.222,0.343
			c-0.004,0.146,0.061,0.334,0.194,0.567l0.658,1.145l-0.512,0.294L15.333,27.887z"/>
		<path fill="#FFFFFF" d="M21.743,25.839l-1.588,0.912c0.118,0.174,0.261,0.285,0.427,0.333c0.166,0.046,0.33,0.022,0.494-0.072
			c0.127-0.073,0.215-0.164,0.264-0.273c0.047-0.108,0.076-0.274,0.086-0.497l0.571-0.007c-0.002,0.152-0.016,0.29-0.044,0.414
			c-0.028,0.124-0.069,0.236-0.124,0.338c-0.055,0.101-0.124,0.192-0.209,0.273c-0.085,0.081-0.185,0.155-0.3,0.221
			c-0.331,0.19-0.657,0.237-0.979,0.139c-0.323-0.099-0.586-0.325-0.789-0.678c-0.201-0.351-0.267-0.69-0.198-1.018
			c0.073-0.326,0.271-0.582,0.594-0.768c0.326-0.187,0.644-0.232,0.953-0.133c0.306,0.098,0.565,0.33,0.775,0.696L21.743,25.839z
			 M20.977,25.722c-0.228-0.232-0.479-0.27-0.752-0.113c-0.062,0.036-0.115,0.079-0.159,0.129c-0.044,0.051-0.078,0.106-0.102,0.168
			c-0.024,0.061-0.038,0.126-0.041,0.194c-0.003,0.069,0.005,0.139,0.025,0.213L20.977,25.722z"/>
		<path fill="#FFFFFF" d="M23.644,22.051l1.732,3.015l-0.53,0.305l-1.732-3.015l-0.808,0.464l-0.286-0.498l2.143-1.231l0.286,0.498
			L23.644,22.051z"/>
		<path fill="#FFFFFF" d="M25.283,22.172l0.512-0.294l0.114,0.198c0.037-0.153,0.082-0.268,0.134-0.346
			c0.053-0.08,0.13-0.15,0.231-0.208c0.135-0.078,0.302-0.115,0.499-0.111l0.035,0.603c-0.137-0.014-0.252,0.006-0.345,0.059
			c-0.279,0.16-0.298,0.451-0.055,0.873l0.66,1.149l-0.512,0.294L25.283,22.172z"/>
		<path fill="#FFFFFF" d="M28.66,20.232l0.514-0.295l1.273,2.216l-0.514,0.295L29.8,22.216c-0.098,0.318-0.268,0.547-0.511,0.686
			c-0.306,0.176-0.623,0.211-0.951,0.105c-0.329-0.112-0.59-0.337-0.784-0.675c-0.191-0.332-0.251-0.666-0.179-1.002
			c0.072-0.336,0.257-0.589,0.556-0.761c0.258-0.148,0.55-0.175,0.877-0.08L28.66,20.232z M28.078,22.031
			c0.122,0.212,0.278,0.353,0.469,0.421c0.194,0.068,0.38,0.051,0.558-0.051c0.19-0.109,0.305-0.262,0.347-0.46
			c0.039-0.202-0.001-0.407-0.12-0.615s-0.276-0.346-0.47-0.414c-0.193-0.065-0.382-0.044-0.569,0.063
			c-0.176,0.101-0.285,0.252-0.326,0.454C27.926,21.632,27.964,21.832,28.078,22.031z"/>
		<path fill="#FFFFFF" d="M31.6,18.67l0.391,0.68c-0.199-0.075-0.36-0.113-0.482-0.113c-0.122-0.002-0.245,0.032-0.368,0.102
			c-0.193,0.111-0.314,0.27-0.364,0.478c-0.05,0.208-0.017,0.414,0.1,0.617c0.119,0.208,0.279,0.343,0.478,0.406
			c0.201,0.062,0.398,0.038,0.591-0.073c0.123-0.071,0.216-0.16,0.279-0.267c0.062-0.104,0.111-0.265,0.148-0.484l0.388,0.676
			c-0.146,0.227-0.323,0.4-0.531,0.52c-0.343,0.197-0.693,0.251-1.051,0.162c-0.359-0.091-0.633-0.301-0.823-0.632
			c-0.19-0.331-0.234-0.677-0.131-1.039c0.103-0.362,0.324-0.64,0.664-0.835C31.11,18.743,31.346,18.677,31.6,18.67z"/>
		<path fill="#FFFFFF" d="M31.619,16.368l1.346,2.344l0.31-1.131l0.687-0.395l-0.428,1.484l1.772,0.692l-0.664,0.382l-1.27-0.514
			l-0.035,0.129l0.49,0.853l-0.512,0.294l-2.208-3.843L31.619,16.368z"/>
		<path fill="#FFFFFF" d="M35.326,14.677L37.59,16.5l-0.491-3.068l2.362,1.993l-0.377-2.906l0.576-0.331l0.576,4.638l-2.333-1.97
			l0.489,3.033l-3.64-2.881L35.326,14.677z"/>
		<path fill="#FFFFFF" d="M40.136,12.414c-0.052-0.09-0.063-0.185-0.035-0.288c0.028-0.103,0.087-0.18,0.178-0.233
			c0.092-0.053,0.19-0.066,0.293-0.038c0.102,0.026,0.179,0.085,0.232,0.178c0.053,0.092,0.066,0.19,0.038,0.293
			c-0.026,0.102-0.085,0.18-0.178,0.233c-0.092,0.053-0.19,0.066-0.293,0.038C40.269,12.569,40.19,12.508,40.136,12.414z
			 M41.255,12.997l1.273,2.216l-0.512,0.294l-1.273-2.216L41.255,12.997z"/>
		<path fill="#FFFFFF" d="M41.903,12.624l0.514-0.295l0.117,0.205c0.077-0.28,0.228-0.485,0.452-0.614
			c0.258-0.148,0.506-0.182,0.743-0.103c0.204,0.067,0.395,0.256,0.575,0.569l0.78,1.359l-0.514,0.295l-0.711-1.238
			c-0.125-0.219-0.243-0.352-0.351-0.401c-0.108-0.051-0.24-0.031-0.396,0.058c-0.17,0.098-0.258,0.223-0.265,0.376
			c-0.006,0.151,0.07,0.364,0.229,0.641l0.614,1.07l-0.514,0.295L41.903,12.624z"/>
		<path fill="#FFFFFF" d="M44.459,11.157l0.514-0.295l0.118,0.205c0.077-0.28,0.228-0.485,0.452-0.614
			c0.258-0.148,0.505-0.183,0.743-0.103c0.204,0.067,0.395,0.256,0.575,0.569l0.78,1.359l-0.514,0.295l-0.711-1.238
			c-0.125-0.219-0.243-0.352-0.351-0.401c-0.108-0.051-0.24-0.031-0.396,0.058c-0.17,0.097-0.258,0.223-0.265,0.376
			c-0.006,0.151,0.07,0.364,0.229,0.641l0.614,1.07l-0.514,0.295L44.459,11.157z"/>
		<path fill="#FFFFFF" d="M49.738,9.758L48.15,10.67c0.118,0.174,0.26,0.285,0.427,0.333c0.166,0.046,0.33,0.022,0.494-0.072
			c0.127-0.073,0.215-0.164,0.264-0.273c0.047-0.108,0.076-0.274,0.086-0.497l0.571-0.007c-0.002,0.152-0.016,0.29-0.044,0.414
			c-0.028,0.124-0.069,0.236-0.124,0.338c-0.055,0.101-0.124,0.192-0.209,0.273c-0.085,0.081-0.185,0.155-0.3,0.221
			c-0.331,0.19-0.657,0.237-0.979,0.139c-0.323-0.099-0.586-0.325-0.789-0.678c-0.201-0.351-0.267-0.69-0.197-1.018
			c0.073-0.326,0.271-0.582,0.594-0.768c0.326-0.187,0.644-0.232,0.953-0.133c0.307,0.098,0.565,0.33,0.775,0.696L49.738,9.758z
			 M48.972,9.641c-0.228-0.232-0.479-0.27-0.752-0.113c-0.062,0.036-0.115,0.079-0.159,0.129c-0.044,0.051-0.078,0.106-0.102,0.168
			c-0.024,0.061-0.038,0.126-0.041,0.195c-0.003,0.068,0.005,0.139,0.025,0.212L48.972,9.641z"/>
		<path fill="#FFFFFF" d="M49.592,8.208l0.512-0.294l0.114,0.198c0.037-0.153,0.082-0.268,0.134-0.346
			c0.053-0.08,0.13-0.15,0.231-0.208c0.135-0.078,0.301-0.114,0.499-0.111l0.035,0.603c-0.137-0.014-0.252,0.006-0.345,0.059
			c-0.279,0.16-0.298,0.451-0.055,0.873l0.66,1.149l-0.512,0.294L49.592,8.208z"/>
	</g>
	<g>
		<path fill="#15FFAB" d="M73.236,13.83l-1.225-0.701l-0.484,0.845l1.182,0.677l-0.285,0.499l-1.182-0.677l-0.958,1.674
			l-0.531-0.304l2.013-3.516l1.756,1.005L73.236,13.83z"/>
		<path fill="#15FFAB" d="M73.808,15.219l-1.27,2.218l-0.512-0.293l1.27-2.218L73.808,15.219z M73.746,13.959
			c0.051-0.09,0.128-0.149,0.231-0.176c0.103-0.028,0.2-0.016,0.291,0.036c0.092,0.053,0.153,0.131,0.18,0.233
			c0.029,0.101,0.017,0.198-0.036,0.291c-0.053,0.092-0.131,0.153-0.234,0.181c-0.101,0.029-0.198,0.017-0.291-0.036
			c-0.093-0.053-0.153-0.131-0.181-0.234C73.679,14.152,73.692,14.053,73.746,13.959z"/>
		<path fill="#15FFAB" d="M74.457,15.591l0.512,0.293l-0.113,0.198c0.151-0.045,0.273-0.065,0.367-0.059
			c0.096,0.005,0.195,0.036,0.297,0.094c0.135,0.077,0.251,0.202,0.348,0.374l-0.503,0.335c-0.057-0.125-0.132-0.215-0.225-0.268
			c-0.28-0.16-0.54-0.029-0.782,0.393l-0.658,1.15l-0.512-0.293L74.457,15.591z"/>
		<path fill="#15FFAB" d="M77.274,17.705l-0.553-0.017c0.011-0.175-0.032-0.291-0.131-0.347c-0.047-0.027-0.096-0.034-0.147-0.022
			c-0.052,0.012-0.091,0.042-0.119,0.091c-0.049,0.085,0.002,0.226,0.151,0.422c0.205,0.273,0.326,0.485,0.364,0.638
			c0.038,0.152,0.009,0.312-0.087,0.479c-0.123,0.214-0.304,0.348-0.544,0.402c-0.232,0.049-0.456,0.011-0.673-0.113
			c-0.372-0.213-0.532-0.545-0.479-0.997l0.553,0.048c0,0.141,0.008,0.235,0.023,0.282c0.029,0.094,0.087,0.165,0.174,0.214
			c0.173,0.099,0.305,0.07,0.395-0.088c0.052-0.091,0.034-0.214-0.055-0.37c-0.037-0.055-0.074-0.11-0.112-0.164
			c-0.038-0.054-0.076-0.109-0.114-0.165c-0.107-0.158-0.17-0.291-0.189-0.398c-0.024-0.137,0.005-0.278,0.088-0.424
			c0.11-0.193,0.268-0.314,0.472-0.365c0.207-0.049,0.407-0.018,0.6,0.093C77.177,17.066,77.304,17.333,77.274,17.705z"/>
		<path fill="#15FFAB" d="M78.349,18.453l-0.996,1.74L76.841,19.9l0.996-1.74l-0.219-0.125l0.274-0.478l0.219,0.125l0.465-0.813
			l0.512,0.293l-0.465,0.813l0.399,0.228l-0.274,0.478L78.349,18.453z"/>
		<path fill="#15FFAB" d="M80.985,20.376l-0.817,1.428L79.637,21.5l2.013-3.516l0.601,0.344c0.295,0.169,0.505,0.316,0.632,0.443
			c0.129,0.128,0.218,0.282,0.268,0.462c0.089,0.313,0.047,0.62-0.125,0.92c-0.184,0.322-0.438,0.515-0.762,0.58
			c-0.323,0.065-0.668-0.007-1.034-0.217L80.985,20.376z M81.267,19.884l0.198,0.113c0.487,0.279,0.838,0.231,1.053-0.144
			c0.208-0.363,0.06-0.688-0.442-0.976l-0.175-0.1L81.267,19.884z"/>
		<path fill="#15FFAB" d="M83.328,20.668l0.512,0.293l-0.113,0.198c0.151-0.045,0.273-0.064,0.367-0.059
			c0.096,0.005,0.195,0.036,0.297,0.094c0.135,0.077,0.251,0.202,0.348,0.374l-0.503,0.335c-0.057-0.125-0.132-0.215-0.225-0.268
			c-0.28-0.16-0.54-0.029-0.782,0.393l-0.658,1.15l-0.512-0.293L83.328,20.668z"/>
		<path fill="#15FFAB" d="M85.585,21.96l-1.27,2.218l-0.512-0.293l1.27-2.218L85.585,21.96z M85.523,20.7
			c0.051-0.09,0.128-0.148,0.231-0.176c0.103-0.028,0.2-0.016,0.291,0.036c0.092,0.053,0.153,0.131,0.181,0.234
			c0.029,0.101,0.017,0.198-0.036,0.291c-0.053,0.092-0.131,0.153-0.234,0.181c-0.101,0.029-0.198,0.017-0.291-0.036
			c-0.093-0.053-0.153-0.131-0.181-0.234C85.456,20.892,85.469,20.794,85.523,20.7z"/>
		<path fill="#15FFAB" d="M85.977,24.487l1.319,0.755l-0.276,0.483l-2.334-1.336l2.433-0.918l-1.132-0.648l0.274-0.478l2.145,1.228
			L85.977,24.487z"/>
		<path fill="#15FFAB" d="M90.085,26.168l-1.59-0.91c-0.091,0.19-0.114,0.369-0.071,0.537c0.044,0.166,0.148,0.296,0.312,0.39
			c0.127,0.073,0.25,0.103,0.369,0.09c0.117-0.014,0.274-0.073,0.473-0.177l0.294,0.489c-0.132,0.075-0.258,0.133-0.379,0.171
			c-0.121,0.039-0.239,0.06-0.354,0.063c-0.115,0.004-0.229-0.01-0.342-0.043c-0.112-0.032-0.226-0.081-0.342-0.147
			c-0.331-0.19-0.536-0.448-0.615-0.775c-0.078-0.329-0.016-0.67,0.187-1.024c0.201-0.351,0.461-0.579,0.779-0.685
			c0.318-0.102,0.639-0.06,0.963,0.125c0.327,0.187,0.525,0.439,0.596,0.755c0.07,0.314,0,0.654-0.209,1.02L90.085,26.168z
			 M89.799,25.448c0.085-0.314-0.009-0.55-0.282-0.706c-0.062-0.036-0.126-0.06-0.192-0.072c-0.066-0.012-0.131-0.013-0.196-0.003
			c-0.065,0.01-0.128,0.031-0.188,0.063c-0.061,0.032-0.118,0.075-0.171,0.129L89.799,25.448z"/>
	</g>
	<g>
		<path fill="#15FFAB" d="M33.746,86.341c-8.609,0-15.612-7.004-15.612-15.613c0-8.038,6.096-14.723,14.009-15.53v-0.058
			l0.815-0.005c0.526-0.026,1.052-0.026,1.577,0h37.784c0.525-0.026,1.05-0.026,1.575,0h0.754l0.001,0.056
			c7.938,0.777,14.055,7.461,14.055,15.522c0,8.601-6.997,15.597-15.597,15.597c-0.18,0-1.171-0.112-5.051-0.57
			c-1.305-0.154-2.652-0.313-2.876-0.334H43.598c-0.179,0.016-0.851,0.083-1.764,0.173C36.938,86.062,34.046,86.341,33.746,86.341z
			 M33.087,56.677l-0.129,0.008c-7.446,0.411-13.279,6.58-13.279,14.044c0,7.757,6.31,14.067,14.067,14.067
			c0.389-0.011,5.486-0.512,7.936-0.754c0.992-0.098,1.703-0.168,1.816-0.177l0.066-0.003l21.693,0.001
			c0.132,0.008,0.922,0.101,2.98,0.343c1.841,0.218,4.623,0.546,4.891,0.56c7.727,0,14.03-6.304,14.03-14.053
			c0-7.479-5.845-13.642-13.306-14.032l-0.127-0.007c-0.451-0.019-0.899-0.017-1.348,0.005l-0.039,0.001L34.476,56.68
			C34.013,56.657,33.551,56.656,33.087,56.677z"/>
	</g>
	<g>
		<path fill="#15FFAB" d="M33.992,81.665c-5.95,0-10.79-4.841-10.79-10.79c0-5.95,4.841-10.79,10.79-10.79s10.79,4.84,10.79,10.79
			C44.782,76.824,39.942,81.665,33.992,81.665z M33.992,60.967c-5.463,0-9.907,4.444-9.907,9.907c0,5.463,4.444,9.907,9.907,9.907
			c5.463,0,9.907-4.444,9.907-9.907C43.899,65.412,39.455,60.967,33.992,60.967z"/>
	</g>
	<g>
		<path fill="#15FFAB" d="M73.638,81.665c-5.95,0-10.79-4.841-10.79-10.79c0-5.95,4.841-10.79,10.79-10.79s10.79,4.84,10.79,10.79
			C84.428,76.824,79.588,81.665,73.638,81.665z M73.638,60.967c-5.463,0-9.907,4.444-9.907,9.907c0,5.463,4.444,9.907,9.907,9.907
			c5.463,0,9.907-4.444,9.907-9.907C83.545,65.412,79.101,60.967,73.638,60.967z"/>
	</g>
	<g>
		<path fill="#FFFFFF" d="M57.495,80.494c0,0.705-0.571,1.275-1.276,1.275h-6.121c-0.704,0-1.275-0.571-1.275-1.275l0,0
			c0-0.705,0.571-1.275,1.275-1.275h6.121C56.924,79.219,57.495,79.79,57.495,80.494L57.495,80.494z"/>
	</g>
	<g>
		<g>
			<rect x="31.457" y="64.552" fill="#FFFFFF" width="4.906" height="13.446"/>
		</g>
		<g>
			<rect x="27.187" y="68.58" fill="#FFFFFF" width="13.446" height="4.906"/>
		</g>
	</g>
	<g>
		<circle fill="#FFFFFF" cx="73.565" cy="65.846" r="2.186"/>
	</g>
	<g>
		<circle fill="#FFFFFF" cx="73.565" cy="76.304" r="2.186"/>
	</g>
	<g>
		<circle fill="#FFFFFF" cx="68.063" cy="71.203" r="2.186"/>
	</g>
	<g>
		<circle fill="#FFFFFF" cx="79.322" cy="71.203" r="2.186"/>
	</g>
	<g>
		<g>
			<g>
				<path fill="#15FFAB" d="M61.955,54.306c7.693,1.24,15.385,2.48,23.078,3.719c0.695,0.112,0.994-0.951,0.293-1.064
					c-7.693-1.24-15.385-2.48-23.078-3.719C61.553,53.13,61.254,54.193,61.955,54.306L61.955,54.306z"/>
			</g>
		</g>
		<g>
			<g>
				<path fill="#15FFAB" d="M62.436,53.944c0.765-4.749,1.531-9.497,2.296-14.246c0.112-0.695-0.952-0.994-1.064-0.293
					c-0.765,4.749-1.531,9.497-2.296,14.246C61.26,54.346,62.323,54.645,62.436,53.944L62.436,53.944z"/>
			</g>
		</g>
		<g>
			<g>
				<path fill="#15FFAB" d="M63.699,39.697c1.529,2.116,3.058,4.233,4.587,6.349c0.412,0.571,1.37,0.02,0.953-0.557
					c-1.529-2.116-3.058-4.233-4.587-6.349C64.24,38.569,63.282,39.12,63.699,39.697L63.699,39.697z"/>
			</g>
		</g>
		<g>
			<g>
				<path fill="#15FFAB" d="M69.09,46.4c2.451-1.77,4.901-3.541,7.352-5.311c0.571-0.412,0.02-1.37-0.557-0.953
					c-2.451,1.77-4.901,3.541-7.352,5.311C67.962,45.859,68.512,46.817,69.09,46.4L69.09,46.4z"/>
			</g>
		</g>
		<g>
			<g>
				<path fill="#15FFAB" d="M75.667,40.897c1.67,2.311,3.34,4.623,5.009,6.934c0.412,0.571,1.37,0.02,0.953-0.557
					c-1.67-2.312-3.34-4.623-5.009-6.934C76.208,39.769,75.25,40.32,75.667,40.897L75.667,40.897z"/>
			</g>
		</g>
		<g>
			<g>
				<path fill="#15FFAB" d="M81.428,48.047c2.144-1.549,4.289-3.098,6.433-4.647c0.571-0.412,0.02-1.37-0.557-0.953
					c-2.144,1.549-4.289,3.098-6.433,4.647C80.301,47.506,80.851,48.465,81.428,48.047L81.428,48.047z"/>
			</g>
		</g>
		<g>
			<g>
				<path fill="#15FFAB" d="M86.955,43.029c-0.769,4.773-1.538,9.545-2.308,14.318c-0.112,0.695,0.951,0.994,1.064,0.293
					c0.769-4.773,1.538-9.545,2.308-14.318C88.131,42.627,87.068,42.328,86.955,43.029L86.955,43.029z"/>
			</g>
		</g>
	</g>
	<g>
		<g>
			<path fill="#15FFAB" d="M87.738,40.489c2.785,1.084,2.687,4.93,1.529,7.169c-0.326,0.63,0.626,1.189,0.953,0.557
				c1.524-2.945,1.313-7.429-2.188-8.791C87.369,39.167,87.082,40.233,87.738,40.489L87.738,40.489z"/>
		</g>
	</g>
	<g>
		<g>
			<path fill="#15FFAB" d="M90.957,39.563c0.497,0.444,0.913,0.958,1.17,1.579c0.114,0.274,0.367,0.473,0.679,0.385
				c0.26-0.073,0.501-0.401,0.385-0.679c-0.332-0.801-0.805-1.487-1.454-2.066C91.209,38.311,90.425,39.089,90.957,39.563
				L90.957,39.563z"/>
		</g>
	</g>
	<g>
		<g>
			<path fill="#15FFAB" d="M62.534,35.649c-1.359,1.336-2.082,3.025-2.275,4.909c-0.072,0.706,1.032,0.701,1.104,0
				c0.163-1.592,0.809-3.004,1.952-4.128C63.822,35.931,63.042,35.15,62.534,35.649L62.534,35.649z"/>
		</g>
	</g>
	<g>
		<g>
			<path fill="#15FFAB" d="M58.148,37.437c-0.512,1.057-0.779,2.162-0.658,3.34c0.072,0.7,1.177,0.707,1.104,0
				c-0.101-0.985,0.077-1.893,0.507-2.782C59.409,37.357,58.458,36.797,58.148,37.437L58.148,37.437z"/>
		</g>
	</g>
	<g>
		<circle fill="#FFFFFF" cx="68.113" cy="49.796" r="1.262"/>
	</g>
	<g>
		<circle fill="#FFFFFF" cx="80.454" cy="51.55" r="1.262"/>
	</g>
	<g>
		<circle fill="#FFFFFF" cx="74.914" cy="47.483" r="1.262"/>
	</g>
	<g>
		<g>
			<circle fill="#15FFAB" cx="92.275" cy="26.952" r="0.911"/>
		</g>
		<g>
			<circle fill="#15FFAB" cx="68.575" cy="12.928" r="0.911"/>
		</g>
	</g>
	<g>
		<g>
			<g>
				<path fill="#FFFFFF" d="M74.188,109.438l0.412-0.24l0.847,1.459c0.07-0.217,0.194-0.377,0.371-0.48
					c0.202-0.117,0.401-0.145,0.598-0.085c0.169,0.054,0.325,0.205,0.47,0.455l0.635,1.094l-0.412,0.24l-0.613-1.056
					c-0.083-0.143-0.169-0.232-0.256-0.267c-0.088-0.035-0.188-0.019-0.301,0.046c-0.144,0.084-0.22,0.187-0.227,0.31
					c-0.005,0.124,0.056,0.296,0.184,0.516l0.501,0.863l-0.412,0.24L74.188,109.438z"/>
			</g>
			<g>
				<path fill="#FFFFFF" d="M78.324,108.789l0.414-0.241l1.037,1.786l-0.414,0.241l-0.109-0.187
					c-0.078,0.257-0.214,0.443-0.41,0.556c-0.247,0.143-0.503,0.173-0.768,0.088c-0.266-0.089-0.478-0.27-0.636-0.542
					c-0.156-0.268-0.205-0.537-0.148-0.809c0.056-0.271,0.205-0.477,0.446-0.617c0.208-0.121,0.444-0.143,0.708-0.068
					L78.324,108.789z M77.86,110.245c0.099,0.171,0.226,0.284,0.38,0.338c0.157,0.054,0.307,0.04,0.45-0.043
					c0.153-0.089,0.246-0.213,0.279-0.373c0.031-0.163-0.002-0.329-0.099-0.496c-0.097-0.167-0.224-0.278-0.382-0.332
					c-0.156-0.052-0.309-0.034-0.459,0.054c-0.142,0.082-0.229,0.205-0.262,0.368C77.736,109.923,77.767,110.085,77.86,110.245z"/>
			</g>
			<g>
				<path fill="#FFFFFF" d="M80.693,107.517l0.318,0.548c-0.161-0.06-0.291-0.09-0.39-0.089c-0.099-0.002-0.198,0.027-0.297,0.084
					c-0.155,0.09-0.253,0.219-0.292,0.387c-0.039,0.169-0.012,0.335,0.083,0.498c0.097,0.167,0.227,0.276,0.388,0.326
					c0.163,0.05,0.321,0.029,0.477-0.061c0.099-0.057,0.174-0.13,0.225-0.216c0.049-0.084,0.088-0.215,0.118-0.392l0.316,0.544
					c-0.117,0.184-0.259,0.325-0.427,0.422c-0.276,0.16-0.559,0.205-0.848,0.135c-0.29-0.072-0.512-0.241-0.667-0.507
					c-0.155-0.266-0.191-0.546-0.109-0.838c0.082-0.293,0.259-0.518,0.533-0.677C80.297,107.578,80.487,107.523,80.693,107.517z"/>
			</g>
			<g>
				<path fill="#FFFFFF" d="M80.699,105.658l1.096,1.888l0.246-0.915l0.554-0.322l-0.34,1.2l1.434,0.553l-0.535,0.311l-1.028-0.411
					l-0.028,0.104l0.399,0.688l-0.412,0.24l-1.798-3.096L80.699,105.658z"/>
			</g>
			<g>
				<path fill="#FFFFFF" d="M84.234,105.358l0.414-0.241l1.037,1.785l-0.414,0.241l-0.109-0.187
					c-0.077,0.257-0.214,0.443-0.41,0.556c-0.247,0.143-0.503,0.173-0.768,0.088c-0.266-0.089-0.478-0.27-0.636-0.542
					c-0.156-0.268-0.205-0.537-0.148-0.809c0.056-0.271,0.205-0.477,0.446-0.617c0.208-0.121,0.444-0.143,0.708-0.068
					L84.234,105.358z M83.77,106.814c0.099,0.171,0.226,0.284,0.38,0.338c0.157,0.054,0.307,0.04,0.45-0.043
					c0.153-0.089,0.246-0.213,0.279-0.373c0.031-0.163-0.002-0.329-0.099-0.496c-0.097-0.167-0.224-0.278-0.382-0.332
					c-0.156-0.052-0.309-0.034-0.459,0.054c-0.142,0.082-0.229,0.205-0.262,0.368C83.646,106.492,83.677,106.653,83.77,106.814z"/>
			</g>
			<g>
				<path fill="#FFFFFF" d="M85.817,104.953l0.813,1.401l-0.412,0.239l-0.813-1.401l-0.176,0.102l-0.224-0.385l0.176-0.102
					l-0.38-0.655l0.412-0.239l0.38,0.654l0.321-0.186l0.224,0.385L85.817,104.953z"/>
			</g>
			<g>
				<path fill="#FFFFFF" d="M85.434,102.909l0.412-0.24l0.847,1.459c0.07-0.217,0.194-0.377,0.371-0.48
					c0.202-0.117,0.401-0.146,0.598-0.085c0.169,0.054,0.325,0.205,0.47,0.455l0.635,1.094l-0.412,0.24l-0.613-1.056
					c-0.083-0.143-0.169-0.232-0.256-0.267c-0.088-0.035-0.188-0.019-0.301,0.046c-0.144,0.084-0.22,0.187-0.227,0.31
					c-0.005,0.124,0.056,0.296,0.184,0.516l0.501,0.863l-0.412,0.24L85.434,102.909z"/>
			</g>
			<g>
				<path fill="#FFFFFF" d="M88.68,103.953c-0.15-0.258-0.185-0.531-0.105-0.819c0.08-0.288,0.252-0.509,0.517-0.663
					c0.266-0.155,0.545-0.195,0.837-0.121c0.289,0.076,0.511,0.246,0.665,0.511c0.155,0.268,0.193,0.546,0.114,0.834
					c-0.081,0.287-0.257,0.51-0.527,0.666c-0.268,0.156-0.545,0.194-0.832,0.116C89.062,104.401,88.839,104.226,88.68,103.953z
					 M89.106,103.715c0.104,0.178,0.233,0.292,0.389,0.34c0.159,0.048,0.318,0.026,0.478-0.067c0.161-0.094,0.26-0.22,0.296-0.38
					c0.036-0.16,0.004-0.327-0.097-0.5c-0.101-0.173-0.23-0.284-0.386-0.332c-0.159-0.048-0.318-0.026-0.478,0.067
					c-0.158,0.092-0.255,0.218-0.292,0.38C88.98,103.385,89.01,103.549,89.106,103.715z"/>
			</g>
			<g>
				<path fill="#FFFFFF" d="M90.51,101.713l0.414-0.241l0.096,0.165c0.061-0.227,0.182-0.392,0.363-0.497
					c0.208-0.121,0.408-0.149,0.6-0.086c0.165,0.053,0.32,0.205,0.467,0.457l0.635,1.094l-0.414,0.241l-0.579-0.997
					c-0.102-0.176-0.197-0.283-0.285-0.322c-0.087-0.041-0.194-0.025-0.32,0.048c-0.137,0.079-0.208,0.181-0.213,0.305
					c-0.004,0.122,0.058,0.294,0.187,0.516l0.5,0.862l-0.414,0.241L90.51,101.713z"/>
			</g>
			<g>
				<path fill="#FFFFFF" d="M95.211,100.835l1.054-0.612l0.233,0.402l-1.901,1.104l0.292-1.76c0.028-0.175,0.049-0.324,0.064-0.449
					c0.015-0.125,0.023-0.226,0.023-0.305c0.003-0.155-0.022-0.279-0.075-0.37c-0.077-0.132-0.187-0.216-0.332-0.251
					c-0.145-0.035-0.285-0.013-0.422,0.066c-0.286,0.166-0.352,0.43-0.197,0.793l-0.425,0.247c-0.278-0.636-0.15-1.11,0.384-1.42
					c0.258-0.15,0.522-0.193,0.792-0.131c0.271,0.062,0.477,0.213,0.617,0.455c0.089,0.154,0.136,0.329,0.14,0.524
					c0.003,0.101-0.005,0.228-0.023,0.38c-0.019,0.152-0.047,0.336-0.086,0.551L95.211,100.835z"/>
			</g>
			<g>
				<path fill="#FFFFFF" d="M96.148,98.911c-0.262-0.451-0.366-0.872-0.312-1.263c0.047-0.352,0.204-0.607,0.472-0.762
					c0.268-0.155,0.566-0.166,0.896-0.032c0.366,0.147,0.684,0.452,0.953,0.915c0.268,0.462,0.375,0.889,0.321,1.279
					c-0.047,0.352-0.204,0.606-0.47,0.761c-0.267,0.155-0.566,0.166-0.898,0.033C96.744,99.695,96.424,99.385,96.148,98.911z
					 M96.569,98.669c0.182,0.314,0.388,0.543,0.618,0.688c0.227,0.141,0.425,0.162,0.594,0.065c0.167-0.097,0.247-0.28,0.238-0.548
					c-0.008-0.267-0.102-0.555-0.281-0.864c-0.179-0.309-0.384-0.534-0.612-0.674c-0.228-0.139-0.425-0.16-0.593-0.063
					c-0.166,0.097-0.246,0.278-0.238,0.545C96.303,98.083,96.394,98.367,96.569,98.669z"/>
			</g>
			<g>
				<path fill="#FFFFFF" d="M98.744,96.07l-0.489,0.284l0.003-0.536l0.682-0.396l1.643,2.83l-0.427,0.248L98.744,96.07z"/>
			</g>
			<g>
				<path fill="#FFFFFF" d="M101.253,95.895c-0.293-0.026-0.513-0.166-0.66-0.418c-0.133-0.23-0.166-0.468-0.098-0.713
					c0.069-0.246,0.222-0.438,0.458-0.575c0.235-0.136,0.475-0.173,0.721-0.109c0.245,0.062,0.435,0.209,0.57,0.441
					c0.141,0.243,0.153,0.502,0.036,0.776c0.149-0.005,0.29,0.032,0.423,0.112c0.134,0.079,0.244,0.192,0.329,0.338
					c0.146,0.251,0.183,0.503,0.112,0.758c-0.071,0.255-0.234,0.457-0.489,0.605c-0.262,0.152-0.524,0.196-0.788,0.134
					c-0.265-0.062-0.468-0.215-0.61-0.46C101.073,96.467,101.071,96.171,101.253,95.895z M100.994,95.242
					c0.07,0.121,0.17,0.199,0.299,0.233c0.131,0.035,0.256,0.018,0.373-0.05c0.116-0.067,0.192-0.167,0.226-0.298
					c0.035-0.131,0.019-0.255-0.049-0.371c-0.067-0.116-0.167-0.192-0.298-0.226c-0.131-0.035-0.255-0.018-0.371,0.049
					c-0.116,0.067-0.192,0.167-0.226,0.298C100.913,95.007,100.929,95.129,100.994,95.242z M101.669,96.526
					c0.076,0.131,0.187,0.217,0.332,0.259c0.145,0.04,0.284,0.022,0.415-0.055c0.129-0.075,0.213-0.185,0.252-0.33
					c0.038-0.146,0.019-0.284-0.056-0.413c-0.076-0.131-0.186-0.215-0.331-0.254c-0.145-0.038-0.282-0.02-0.412,0.055
					c-0.128,0.075-0.212,0.185-0.252,0.33C101.577,96.263,101.595,96.4,101.669,96.526z"/>
			</g>
		</g>
		<g>
			<g>
				<path fill="#FFFFFF" d="M57.858,121.597c-0.018-0.031-0.037-0.063-0.055-0.094c-0.018-0.032-0.036-0.063-0.045-0.099
					c-0.007-0.028-0.024-0.052-0.037-0.077c-0.009-0.018-0.02-0.036-0.021-0.057c0-0.005-0.001-0.01-0.003-0.014
					c-0.018-0.037-0.033-0.075-0.045-0.114c-0.011-0.036-0.021-0.073-0.031-0.109c-0.015-0.05-0.026-0.101-0.036-0.152
					c-0.014-0.072-0.025-0.145-0.031-0.219c-0.009-0.095-0.011-0.189-0.009-0.284c0.001-0.072,0.011-0.144,0.018-0.216
					c0.006-0.064,0.024-0.126,0.034-0.189c0.013-0.082,0.039-0.159,0.063-0.237c0.037-0.121,0.087-0.238,0.146-0.35
					c0.039-0.074,0.082-0.145,0.127-0.215c0.025-0.039,0.051-0.078,0.081-0.113c0.029-0.034,0.052-0.074,0.088-0.103
					c0.013-0.01,0.015-0.028,0.029-0.037c0.012-0.007,0.02-0.019,0.028-0.031c0.013-0.02,0.035-0.031,0.05-0.049
					c0.026-0.03,0.056-0.055,0.085-0.081c0.034-0.03,0.072-0.057,0.105-0.088c0.032-0.029,0.067-0.053,0.102-0.077
					c0.075-0.053,0.15-0.106,0.232-0.147c0.104-0.053,0.209-0.103,0.32-0.142c0.042-0.015,0.083-0.029,0.125-0.041
					c0.034-0.01,0.067-0.027,0.104-0.026c0.025-0.015,0.056-0.009,0.082-0.021c0.02-0.01,0.043-0.007,0.064-0.012
					c0.047-0.011,0.095-0.016,0.142-0.021c0.09-0.009,0.181-0.014,0.272-0.013c0.091,0.001,0.181,0.012,0.271,0.02
					c0.09,0.009,0.176,0.036,0.265,0.048c0.014,0.002,0.027,0.007,0.041,0.012c0.03,0.01,0.059,0.022,0.089,0.029
					c0.076,0.017,0.146,0.049,0.217,0.079c0.056,0.024,0.112,0.048,0.165,0.076c0.058,0.031,0.114,0.065,0.169,0.1
					c0.075,0.047,0.146,0.099,0.213,0.156c0.038,0.032,0.08,0.06,0.111,0.101c0.032,0.016,0.044,0.053,0.076,0.07
					c0.008,0.004,0.013,0.014,0.018,0.021c0.011,0.015,0.022,0.03,0.038,0.042c0.009,0.006,0.016,0.015,0.022,0.024
					c0.014,0.019,0.026,0.039,0.047,0.053c0.01,0.007,0.017,0.019,0.023,0.029c0.021,0.032,0.041,0.064,0.067,0.092
					c0.028,0.031,0.049,0.066,0.069,0.102c0.025,0.042,0.05,0.084,0.075,0.127c0.021,0.035,0.042,0.071,0.055,0.11
					c0.011,0.033,0.028,0.064,0.044,0.094c0.01,0.018,0.021,0.036,0.021,0.057c0,0.003,0.001,0.006,0.002,0.009
					c0.018,0.035,0.03,0.072,0.041,0.11c0.006,0.021,0.015,0.04,0.019,0.063c0.004,0.026,0.015,0.051,0.022,0.077
					c0.02,0.074,0.034,0.149,0.046,0.225c0.017,0.107,0.025,0.214,0.026,0.322c0.001,0.056-0.006,0.112-0.003,0.168
					c-0.016,0.113-0.023,0.228-0.053,0.339c-0.008,0.032-0.012,0.065-0.021,0.096c-0.015,0.052-0.033,0.102-0.048,0.154
					c-0.017,0.057-0.043,0.111-0.065,0.166c-0.052,0.13-0.123,0.25-0.197,0.368c-0.038,0.041-0.062,0.093-0.101,0.134
					c-0.015,0.015-0.026,0.034-0.041,0.051c-0.032,0.036-0.06,0.076-0.095,0.109c-0.026,0.025-0.047,0.056-0.079,0.075
					c-0.061,0.069-0.137,0.12-0.207,0.18c-0.002,0.002-0.005,0.004-0.007,0.006c-0.091,0.06-0.177,0.128-0.276,0.175
					c-0.074,0.035-0.145,0.076-0.223,0.105c-0.047,0.017-0.095,0.035-0.141,0.054c-0.03,0.012-0.063,0.019-0.095,0.029
					c-0.039,0.013-0.078,0.024-0.118,0.03c-0.048,0.008-0.093,0.026-0.142,0.025c-0.095,0.021-0.192,0.028-0.288,0.031
					c-0.092,0.003-0.185,0.004-0.277-0.009c-0.043-0.006-0.087-0.007-0.13-0.014c-0.053-0.008-0.104-0.021-0.157-0.03
					c-0.1-0.015-0.193-0.054-0.29-0.081c-0.051-0.015-0.099-0.041-0.148-0.061c-0.073-0.029-0.142-0.066-0.21-0.104
					c-0.084-0.047-0.164-0.101-0.242-0.159c-0.043-0.032-0.084-0.067-0.124-0.102c-0.039-0.034-0.075-0.072-0.113-0.107
					c-0.028-0.026-0.048-0.058-0.08-0.08c-0.006-0.004-0.01-0.012-0.015-0.018c-0.017-0.025-0.034-0.049-0.058-0.068
					c-0.013-0.01-0.021-0.027-0.03-0.042c-0.018-0.028-0.037-0.055-0.06-0.079c-0.011-0.011-0.02-0.024-0.029-0.038
					C57.906,121.678,57.882,121.637,57.858,121.597C57.858,121.597,57.858,121.597,57.858,121.597z M59.352,120.684
					c0.043-0.035,0.082-0.072,0.126-0.101c0.09-0.059,0.18-0.117,0.281-0.157c0.041-0.016,0.078-0.042,0.119-0.057
					c0.075-0.027,0.143-0.067,0.211-0.107c0.037-0.022,0.073-0.044,0.103-0.076c0.007-0.008,0.017-0.015,0.026-0.02
					c0.037-0.02,0.057-0.059,0.091-0.081c0.045-0.061,0.093-0.12,0.119-0.194c0.037-0.106,0.038-0.209-0.008-0.312
					c-0.017-0.039-0.04-0.076-0.065-0.11c-0.04-0.056-0.093-0.098-0.156-0.126c-0.069-0.031-0.142-0.046-0.219-0.046
					c-0.066,0-0.13,0.007-0.193,0.029c-0.004,0.002-0.009,0.002-0.014,0.002c-0.015-0.002-0.028,0.006-0.04,0.012
					c-0.062,0.032-0.121,0.068-0.179,0.106c-0.009,0.006-0.02,0.011-0.024,0.022c-0.007,0.016-0.021,0.023-0.033,0.033
					c-0.006,0.005-0.014,0.009-0.018,0.015c-0.025,0.037-0.058,0.069-0.084,0.106c-0.045,0.063-0.082,0.131-0.107,0.203
					c-0.045,0.128-0.066,0.26-0.061,0.397c0.003,0.084,0.016,0.166,0.037,0.247c0.008,0.03,0.012,0.062,0.028,0.09
					c0.009,0.017,0.014,0.034,0.019,0.053C59.317,120.638,59.328,120.664,59.352,120.684z M59.615,120.668
					c-0.02,0.012-0.04,0.025-0.061,0.036c-0.023,0.012-0.04,0.031-0.057,0.049c-0.005,0.006-0.013,0.009-0.019,0.014
					c-0.022,0.017-0.05,0.027-0.065,0.053c-0.015,0.024-0.049,0.031-0.057,0.061c-0.036,0.04-0.062,0.085-0.085,0.134
					c-0.052,0.107-0.049,0.216-0.006,0.323c0.027,0.069,0.075,0.125,0.136,0.171c0.075,0.056,0.159,0.082,0.249,0.085
					c0.081,0.003,0.162-0.002,0.237-0.04c0.008-0.004,0.018-0.005,0.027-0.007c0.009-0.002,0.018-0.004,0.027-0.008
					c0.082-0.038,0.16-0.099,0.225-0.169c0.027-0.029,0.051-0.058,0.075-0.089c0.062-0.082,0.101-0.173,0.131-0.27
					c0.014-0.044,0.017-0.089,0.026-0.134c0.008-0.04,0.01-0.081,0.01-0.121c0-0.08-0.008-0.16-0.024-0.239
					c-0.005-0.022-0.015-0.041-0.019-0.063c-0.007-0.047-0.029-0.089-0.044-0.134c-0.003-0.009-0.008-0.017-0.013-0.025
					c-0.007-0.012-0.013-0.013-0.026-0.003c-0.032,0.024-0.065,0.045-0.093,0.074c-0.011,0.011-0.025,0.02-0.038,0.028
					c-0.06,0.035-0.12,0.071-0.18,0.105c-0.016,0.009-0.034,0.017-0.052,0.023c-0.027,0.009-0.053,0.021-0.078,0.035
					c-0.026,0.014-0.052,0.031-0.08,0.041C59.707,120.614,59.661,120.64,59.615,120.668z"/>
			</g>
			<g>
				<path fill="#FFFFFF" d="M68.419,115.782c0.155,0.263,0.31,0.526,0.465,0.79c0.012,0.02,0.024,0.039,0.035,0.06
					c0.017,0.034,0.013,0.049-0.02,0.072c-0.017,0.011-0.034,0.021-0.052,0.031c-0.124,0.073-0.248,0.147-0.373,0.219
					c-0.119,0.069-0.096,0.075-0.165-0.039c-0.015-0.025-0.029-0.05-0.044-0.074c-0.004-0.007-0.009-0.015-0.016-0.02
					c-0.006-0.005-0.015-0.007-0.022,0.001c-0.012,0.014-0.016,0.031-0.018,0.048c-0.015,0.113-0.065,0.213-0.129,0.304
					c-0.032,0.045-0.063,0.096-0.117,0.123c-0.012,0.006-0.024,0.017-0.033,0.027c-0.061,0.069-0.135,0.115-0.226,0.133
					c-0.011,0.002-0.022,0.007-0.032,0.013c-0.088,0.047-0.184,0.053-0.281,0.06c-0.113,0.008-0.222-0.008-0.329-0.038
					c-0.093-0.026-0.182-0.066-0.263-0.119c-0.033-0.022-0.066-0.045-0.098-0.068c-0.049-0.035-0.095-0.072-0.132-0.12
					c-0.012-0.016-0.022-0.034-0.038-0.047c-0.088-0.075-0.132-0.181-0.188-0.277c-0.01-0.017-0.013-0.038-0.019-0.057
					c-0.006-0.019-0.009-0.04-0.018-0.057c-0.044-0.089-0.056-0.185-0.066-0.281c-0.017-0.162,0.005-0.32,0.064-0.471
					c0.036-0.093,0.089-0.178,0.147-0.26c0.042-0.06,0.11-0.092,0.147-0.154c0.086-0.051,0.161-0.122,0.266-0.135
					c0.008-0.001,0.017-0.005,0.024-0.008c0.108-0.049,0.222-0.049,0.336-0.034c0.046,0.006,0.091,0.014,0.134,0.032
					c0.019,0.008,0.038,0.011,0.059,0.01c0.011-0.001,0.014-0.011,0.011-0.018c-0.008-0.018-0.018-0.036-0.028-0.054
					c-0.023-0.04-0.046-0.08-0.069-0.12c-0.01-0.018-0.005-0.033,0.012-0.044c0.029-0.019,0.057-0.039,0.087-0.057
					c0.111-0.066,0.223-0.132,0.335-0.197c0.032-0.019,0.066-0.035,0.1-0.05c0.018-0.008,0.034-0.003,0.044,0.015
					c0.012,0.02,0.024,0.039,0.036,0.059C68.103,115.245,68.261,115.513,68.419,115.782z M66.977,116.625
					c0.045,0.083,0.112,0.144,0.191,0.192c0.122,0.076,0.251,0.106,0.391,0.058c0.011-0.004,0.022-0.007,0.034-0.008
					c0.036-0.003,0.065-0.021,0.096-0.037c0.055-0.029,0.082-0.089,0.132-0.123c0.064-0.104,0.104-0.214,0.094-0.339
					c-0.004-0.052-0.022-0.1-0.033-0.149c-0.01-0.046-0.028-0.089-0.057-0.125c-0.066-0.084-0.142-0.158-0.241-0.202
					c-0.154-0.067-0.306-0.062-0.453,0.025c-0.045,0.027-0.081,0.059-0.115,0.1c-0.032,0.038-0.059,0.077-0.077,0.122
					C66.873,116.308,66.892,116.469,66.977,116.625z"/>
			</g>
			<g>
				<path fill="#FFFFFF" d="M71.762,113.742c0.161,0.273,0.322,0.547,0.483,0.82c0.033,0.056,0.048,0.064-0.025,0.107
					c-0.149,0.088-0.298,0.176-0.447,0.263c-0.005,0.003-0.01,0.006-0.015,0.008c-0.039,0.02-0.047,0.019-0.07-0.017
					c-0.021-0.034-0.041-0.069-0.062-0.104c-0.007-0.012-0.014-0.025-0.023-0.036c-0.005-0.006-0.013-0.011-0.02-0.012
					c-0.012-0.002-0.014,0.009-0.014,0.017c-0.003,0.046-0.014,0.09-0.028,0.134c-0.028,0.085-0.07,0.159-0.128,0.228
					c-0.03,0.036-0.062,0.066-0.099,0.093c-0.007,0.005-0.015,0.01-0.02,0.017c-0.051,0.071-0.128,0.11-0.204,0.141
					c-0.081,0.034-0.165,0.071-0.254,0.075c-0.166,0.007-0.323-0.021-0.458-0.132c-0.038-0.032-0.074-0.062-0.1-0.104
					c-0.008-0.012-0.015-0.026-0.026-0.034c-0.053-0.039-0.083-0.095-0.115-0.15c-0.216-0.365-0.431-0.73-0.647-1.095
					c-0.04-0.067-0.039-0.069,0.024-0.106c0.144-0.085,0.288-0.17,0.432-0.255c0.01-0.006,0.02-0.012,0.03-0.017
					c0.031-0.015,0.048-0.012,0.067,0.015c0.013,0.019,0.024,0.039,0.036,0.059c0.149,0.253,0.298,0.507,0.448,0.76
					c0.035,0.06,0.072,0.118,0.109,0.176c0.045,0.069,0.133,0.135,0.209,0.172c0.033,0.016,0.069,0.023,0.1,0.018
					c0.095-0.018,0.195-0.029,0.254-0.123c0.017-0.026,0.047-0.039,0.063-0.069c0.044-0.081,0.049-0.165,0.032-0.251
					c-0.016-0.085-0.047-0.164-0.092-0.24c-0.163-0.272-0.323-0.546-0.484-0.82c-0.066-0.112-0.067-0.096,0.041-0.16
					c0.129-0.077,0.258-0.152,0.388-0.228c0.02-0.012,0.04-0.023,0.061-0.032c0.015-0.007,0.029-0.002,0.038,0.011
					c0.015,0.021,0.028,0.044,0.041,0.066C71.446,113.205,71.604,113.473,71.762,113.742z"/>
			</g>
			<g>
				<path fill="#FFFFFF" d="M63.783,118.823c0.075-0.044,0.149-0.088,0.224-0.132c0.034-0.02,0.047-0.028,0.079,0.012
					c0.051,0.064,0.119,0.097,0.202,0.084c0.083-0.013,0.163-0.036,0.231-0.088c0.04-0.03,0.067-0.071,0.096-0.109
					c0.022-0.029,0.026-0.067,0.01-0.106c-0.032-0.078-0.075-0.11-0.159-0.103c-0.054,0.004-0.109,0.012-0.162,0.024
					c-0.117,0.026-0.233,0.061-0.351,0.081c-0.112,0.019-0.221,0.051-0.336,0.048c-0.092-0.002-0.181-0.014-0.263-0.059
					c-0.053-0.029-0.104-0.06-0.136-0.114c-0.007-0.012-0.017-0.024-0.027-0.033c-0.031-0.028-0.051-0.061-0.061-0.102
					c-0.004-0.017-0.012-0.033-0.019-0.048c-0.082-0.166-0.055-0.328,0.027-0.483c0.031-0.059,0.066-0.12,0.124-0.161
					c0.023-0.05,0.07-0.075,0.112-0.104c0.012-0.008,0.023-0.018,0.033-0.028c0.092-0.1,0.217-0.149,0.331-0.215
					c0.046-0.005,0.09-0.02,0.129-0.044c0.038-0.024,0.086-0.008,0.124-0.033c0.133-0.015,0.266-0.025,0.395,0.028
					c0.097,0.04,0.182,0.095,0.248,0.177c0.016,0.02,0.034,0.04,0.049,0.06c0.027,0.036,0.023,0.049-0.017,0.076
					c-0.01,0.006-0.02,0.012-0.03,0.018c-0.132,0.078-0.263,0.155-0.395,0.233c-0.015,0.009-0.029,0.018-0.045,0.026
					c-0.025,0.012-0.043,0.007-0.061-0.013c-0.011-0.013-0.02-0.029-0.032-0.041c-0.034-0.036-0.074-0.063-0.125-0.065
					c-0.086-0.004-0.167,0.015-0.226,0.083c-0.028,0.032-0.064,0.056-0.078,0.101c-0.029,0.091,0.03,0.195,0.125,0.206
					c0.042,0.005,0.087,0.004,0.129-0.004c0.107-0.02,0.214-0.046,0.32-0.069c0.134-0.029,0.265-0.071,0.402-0.079
					c0.103-0.006,0.205-0.002,0.3,0.051c0.038,0.021,0.075,0.044,0.103,0.076c0.06,0.069,0.112,0.143,0.147,0.231
					c0.072,0.179,0.045,0.347-0.028,0.515c-0.024,0.054-0.091,0.142-0.136,0.184c-0.027,0.025-0.04,0.062-0.076,0.081
					c-0.03,0.016-0.062,0.034-0.084,0.06c-0.054,0.063-0.127,0.099-0.196,0.14c-0.032,0.019-0.065,0.036-0.102,0.045
					c-0.028,0.007-0.056,0.017-0.08,0.032c-0.062,0.041-0.134,0.052-0.203,0.068c-0.056,0.013-0.116,0.023-0.177,0.021
					c-0.083-0.002-0.166-0.011-0.243-0.042c-0.081-0.033-0.163-0.07-0.219-0.144c-0.054-0.028-0.081-0.079-0.111-0.127
					c-0.005-0.007-0.009-0.015-0.013-0.023c-0.011-0.023-0.009-0.035,0.015-0.05c0.047-0.029,0.094-0.056,0.141-0.084
					C63.718,118.861,63.751,118.842,63.783,118.823C63.783,118.823,63.783,118.823,63.783,118.823z"/>
			</g>
			<g>
				<path fill="#FFFFFF" d="M73.077,112.495c-0.067,0.039-0.134,0.079-0.201,0.118c-0.017,0.01-0.035,0.02-0.053,0.029
					c-0.015,0.007-0.028,0.003-0.038-0.01c-0.017-0.023-0.032-0.047-0.055-0.066c-0.103-0.084-0.241-0.056-0.331,0.023
					c-0.021,0.019-0.041,0.041-0.059,0.063c-0.062,0.08-0.057,0.194,0.061,0.249c0.01,0.005,0.022,0.006,0.033,0.006
					c0.052,0.001,0.103,0.002,0.154-0.009c0.106-0.023,0.213-0.044,0.319-0.071c0.074-0.019,0.149-0.042,0.225-0.054
					c0.108-0.017,0.218-0.033,0.329-0.011c0.093,0.018,0.17,0.062,0.241,0.12c0.011,0.009,0.018,0.022,0.026,0.035
					c0.027,0.044,0.054,0.088,0.081,0.133c0.086,0.144,0.086,0.297,0.048,0.454c-0.026,0.105-0.09,0.189-0.148,0.277
					c-0.055,0.04-0.087,0.107-0.151,0.137c-0.018,0.008-0.034,0.023-0.048,0.037c-0.087,0.087-0.192,0.145-0.308,0.186
					c-0.024,0.008-0.049,0.018-0.072,0.03c-0.138,0.071-0.287,0.091-0.439,0.084c-0.11-0.005-0.214-0.039-0.306-0.103
					c-0.084-0.058-0.154-0.128-0.203-0.218c-0.018-0.034-0.015-0.05,0.02-0.071c0.146-0.087,0.293-0.173,0.439-0.259
					c0.005-0.003,0.01-0.006,0.015-0.008c0.033-0.014,0.053-0.012,0.074,0.02c0.041,0.061,0.1,0.083,0.169,0.081
					c0.099-0.002,0.249-0.055,0.311-0.141c0.029-0.04,0.061-0.075,0.063-0.127c0.002-0.047-0.042-0.11-0.086-0.126
					c-0.042-0.015-0.085-0.017-0.127-0.009c-0.082,0.015-0.162,0.037-0.244,0.052c-0.09,0.016-0.177,0.046-0.269,0.055
					c-0.042,0.004-0.083,0.019-0.125,0.026c-0.095,0.015-0.198,0.02-0.287,0.008c-0.134-0.018-0.236-0.088-0.312-0.194
					c-0.093-0.13-0.14-0.275-0.117-0.438c0.014-0.099,0.056-0.185,0.112-0.265c0.034-0.049,0.074-0.093,0.113-0.138
					c0.013-0.015,0.031-0.025,0.047-0.037c0.028-0.02,0.057-0.036,0.076-0.069c0.009-0.016,0.03-0.026,0.047-0.037
					c0.059-0.036,0.118-0.072,0.177-0.108c0.042-0.025,0.084-0.05,0.135-0.056c0.014-0.001,0.028-0.008,0.04-0.015
					c0.069-0.037,0.144-0.05,0.221-0.059c0.051-0.006,0.101-0.01,0.152-0.01c0.125,0.001,0.237,0.042,0.336,0.113
					c0.067,0.048,0.129,0.105,0.165,0.183c0.011,0.024,0.009,0.034-0.014,0.05c-0.005,0.003-0.01,0.006-0.015,0.009
					C73.226,112.407,73.152,112.451,73.077,112.495L73.077,112.495z"/>
			</g>
			<g>
				<path fill="#FFFFFF" d="M68.78,115.529c-0.076-0.129-0.152-0.258-0.228-0.387c-0.01-0.017-0.02-0.035-0.031-0.052
					c-0.019-0.028-0.037-0.033-0.066-0.018c-0.046,0.025-0.09,0.052-0.135,0.078c-0.02,0.011-0.04,0.024-0.061,0.033
					c-0.03,0.013-0.048,0.007-0.065-0.02c-0.024-0.039-0.047-0.079-0.071-0.119c-0.04-0.067-0.08-0.134-0.118-0.201
					c-0.023-0.04-0.019-0.052,0.021-0.077c0.046-0.029,0.094-0.056,0.141-0.084c0.017-0.01,0.034-0.021,0.051-0.032
					c0.017-0.011,0.02-0.029,0.013-0.046c-0.008-0.021-0.02-0.041-0.032-0.061c-0.074-0.127-0.149-0.253-0.224-0.38
					c-0.043-0.074-0.043-0.074,0.031-0.118c0.134-0.079,0.268-0.158,0.402-0.237c0.015-0.009,0.03-0.018,0.045-0.025
					c0.014-0.006,0.03-0.002,0.039,0.009c0.014,0.018,0.027,0.037,0.038,0.057c0.073,0.124,0.147,0.248,0.22,0.372
					c0.057,0.096,0.053,0.083,0.136,0.035c0.077-0.045,0.154-0.091,0.231-0.136c0.02-0.012,0.04-0.023,0.061-0.032
					c0.014-0.006,0.028-0.003,0.038,0.011c0.005,0.007,0.01,0.014,0.014,0.022c0.062,0.104,0.123,0.208,0.184,0.313
					c0.021,0.035,0.018,0.05-0.012,0.074c-0.016,0.012-0.033,0.022-0.051,0.033c-0.074,0.044-0.149,0.088-0.223,0.132
					c-0.017,0.01-0.034,0.021-0.051,0.032c-0.016,0.011-0.02,0.028-0.013,0.046c0.005,0.013,0.013,0.026,0.02,0.038
					c0.117,0.199,0.235,0.397,0.351,0.596c0.03,0.051,0.068,0.092,0.11,0.132c0.024,0.023,0.053,0.036,0.082,0.046
					c0.029,0.01,0.058,0.011,0.092,0.002c0.093-0.026,0.178-0.067,0.252-0.129c0.007-0.006,0.014-0.01,0.021-0.015
					c0.022-0.014,0.038-0.012,0.052,0.007c0.007,0.009,0.013,0.019,0.018,0.029c0.062,0.104,0.123,0.209,0.184,0.313
					c0.007,0.012,0.015,0.025,0.02,0.038c0.011,0.024,0.008,0.038-0.013,0.052c-0.125,0.081-0.232,0.19-0.369,0.254
					c-0.031,0.015-0.06,0.034-0.095,0.038c-0.019,0.002-0.038,0.012-0.056,0.021c-0.188,0.088-0.364,0.069-0.531-0.055
					c-0.086-0.064-0.158-0.14-0.212-0.233C68.922,115.766,68.851,115.647,68.78,115.529
					C68.781,115.528,68.781,115.528,68.78,115.529z"/>
			</g>
			<g>
				<path fill="#FFFFFF" d="M65.287,117.58c-0.075-0.127-0.149-0.253-0.224-0.38c-0.012-0.02-0.023-0.04-0.036-0.059
					c-0.015-0.022-0.036-0.027-0.061-0.015c-0.023,0.011-0.045,0.025-0.068,0.038c-0.04,0.023-0.079,0.048-0.12,0.069
					c-0.039,0.02-0.057,0.015-0.079-0.021c-0.062-0.104-0.124-0.208-0.184-0.313c-0.025-0.044-0.022-0.054,0.024-0.082
					c0.054-0.033,0.109-0.064,0.164-0.097c0.048-0.029,0.051-0.04,0.024-0.09c-0.021-0.038-0.043-0.075-0.065-0.112
					c-0.057-0.097-0.114-0.194-0.171-0.291c-0.012-0.02-0.023-0.04-0.032-0.061c-0.006-0.014-0.003-0.028,0.011-0.038
					c0.007-0.005,0.014-0.01,0.022-0.014c0.149-0.088,0.298-0.176,0.447-0.263c0.039-0.023,0.054-0.019,0.079,0.017
					c0.012,0.016,0.021,0.034,0.031,0.052c0.067,0.114,0.135,0.228,0.202,0.343c0.01,0.017,0.02,0.035,0.031,0.052
					c0.026,0.039,0.037,0.043,0.077,0.019c0.087-0.05,0.174-0.102,0.261-0.153c0.101-0.06,0.092-0.051,0.143,0.034
					c0.053,0.089,0.106,0.178,0.158,0.268c0.026,0.045,0.024,0.055-0.017,0.086c-0.018,0.014-0.038,0.026-0.058,0.037
					c-0.069,0.041-0.139,0.082-0.208,0.123c-0.017,0.01-0.035,0.021-0.051,0.033c-0.016,0.012-0.018,0.029-0.012,0.046
					c0.006,0.016,0.016,0.031,0.024,0.046c0.111,0.189,0.223,0.377,0.333,0.566c0.035,0.061,0.079,0.113,0.132,0.158
					c0.051,0.044,0.106,0.058,0.174,0.039c0.091-0.025,0.171-0.066,0.244-0.125c0.009-0.007,0.019-0.014,0.029-0.019
					c0.014-0.006,0.029-0.004,0.039,0.008c0.009,0.011,0.017,0.023,0.025,0.035c0.062,0.104,0.123,0.208,0.184,0.313
					c0.006,0.01,0.012,0.02,0.016,0.03c0.012,0.027,0.008,0.042-0.015,0.06c-0.016,0.012-0.034,0.022-0.05,0.034
					c-0.023,0.017-0.048,0.032-0.069,0.052c-0.081,0.08-0.184,0.128-0.281,0.184c-0.014,0.008-0.032,0.013-0.049,0.016
					c-0.026,0.005-0.049,0.015-0.073,0.027c-0.185,0.087-0.36,0.066-0.523-0.054c-0.084-0.062-0.156-0.135-0.209-0.226
					c-0.072-0.125-0.146-0.248-0.219-0.372C65.288,117.58,65.288,117.58,65.287,117.58z"/>
			</g>
		</g>
	</g>
</g>
<g id="border">
</g>
</svg>
