<svg xmlns="http://www.w3.org/2000/svg" viewBox="0 0 128 110.85"><defs><style>.cls-1{fill:#1f7dca;}.cls-2{fill:#000030;}.cls-3{fill:#f9a600;}.cls-4{fill:#fff;}.cls-5{fill:#fffa55;}.cls-6{fill:#2de8bb;}.cls-7{fill:#59a8ef;}.cls-8{fill:none;stroke:#000030;stroke-miterlimit:10;}.cls-9{opacity:0.13;}</style></defs><title>gitbadeege2v2</title><g id="Layer_1" data-name="Layer 1"><polygon class="cls-1" points="32 110.85 0 55.42 32 0 96 0 128 55.42 96 110.85 32 110.85"/></g><g id="Layer_3" data-name="Layer 3"><polygon class="cls-2" points="117.12 55.42 109.78 68.14 108.97 69.55 108.28 70.75 108.14 70.98 107.91 71.39 107.72 71.72 98.68 87.36 97.52 89.36 96.05 91.92 94.42 94.73 90.56 101.42 37.44 101.42 36.5 99.81 35.92 98.81 34.92 97.06 34.57 96.47 34.19 95.81 21.75 74.25 21.32 73.5 21.21 73.33 20.67 72.38 17.52 66.92 15.79 63.92 14.82 62.23 14.06 60.92 13.08 59.23 11.75 56.92 10.88 55.42 11.17 54.91 13.12 51.55 37.44 9.43 90.56 9.43 117.12 55.42"/><path class="cls-3" d="M96.25,52.13Z" transform="translate(-0.03 -0.07)"/><path class="cls-3" d="M96.25,50.57a1.56,1.56,0,0,0,0,3.11A1.56,1.56,0,0,0,96.25,50.57Zm0,2.55a1,1,0,1,1,1-1A1,1,0,0,1,96.25,53.12Z" transform="translate(-0.03 -0.07)"/><path class="cls-3" d="M92.25,32.13Z" transform="translate(-0.03 -0.07)"/><path class="cls-3" d="M92.25,30.57a1.56,1.56,0,0,0,0,3.11A1.56,1.56,0,0,0,92.25,30.57Zm0,2.55a1,1,0,1,1,1-1A1,1,0,0,1,92.25,33.12Z" transform="translate(-0.03 -0.07)"/><path class="cls-3" d="M40.25,22.13Z" transform="translate(-0.03 -0.07)"/><path class="cls-3" d="M40.25,20.57a1.56,1.56,0,0,0,0,3.11A1.56,1.56,0,0,0,40.25,20.57Zm0,2.55a1,1,0,1,1,1-1A1,1,0,0,1,40.25,23.12Z" transform="translate(-0.03 -0.07)"/><path class="cls-3" d="M26.25,45.13Z" transform="translate(-0.03 -0.07)"/><path class="cls-3" d="M26.25,43.57a1.56,1.56,0,0,0,0,3.11A1.56,1.56,0,0,0,26.25,43.57Zm0,2.55a1,1,0,1,1,1-1A1,1,0,0,1,26.25,46.12Z" transform="translate(-0.03 -0.07)"/><path class="cls-3" d="M68.25,17.13Z" transform="translate(-0.03 -0.07)"/><path class="cls-3" d="M68.25,15.57a1.56,1.56,0,0,0,0,3.11A1.56,1.56,0,0,0,68.25,15.57Zm0,2.55a1,1,0,1,1,1-1A1,1,0,0,1,68.25,18.12Z" transform="translate(-0.03 -0.07)"/><path class="cls-4" d="M106.5,57.25" transform="translate(-0.03 -0.07)"/><path class="cls-5" d="M106.5,58a.75.75,0,0,0,0-1.5.75.75,0,0,0,0,1.5Z" transform="translate(-0.03 -0.07)"/><path class="cls-4" d="M99.5,42.25" transform="translate(-0.03 -0.07)"/><path class="cls-5" d="M99.5,43a.75.75,0,0,0,0-1.5.75.75,0,0,0,0,1.5Z" transform="translate(-0.03 -0.07)"/><path class="cls-4" d="M76.5,28.25" transform="translate(-0.03 -0.07)"/><path class="cls-5" d="M76.5,29a.75.75,0,0,0,0-1.5.75.75,0,0,0,0,1.5Z" transform="translate(-0.03 -0.07)"/><path class="cls-4" d="M43.5,34.25" transform="translate(-0.03 -0.07)"/><path class="cls-5" d="M43.5,35a.75.75,0,0,0,0-1.5.75.75,0,0,0,0,1.5Z" transform="translate(-0.03 -0.07)"/><path class="cls-4" d="M32.5,34.25" transform="translate(-0.03 -0.07)"/><path class="cls-5" d="M32.5,35a.75.75,0,0,0,0-1.5.75.75,0,0,0,0,1.5Z" transform="translate(-0.03 -0.07)"/><path class="cls-4" d="M34.5,52.25" transform="translate(-0.03 -0.07)"/><path class="cls-5" d="M34.5,53a.75.75,0,0,0,0-1.5.75.75,0,0,0,0,1.5Z" transform="translate(-0.03 -0.07)"/><path class="cls-4" d="M21.5,57.25" transform="translate(-0.03 -0.07)"/><path class="cls-5" d="M21.5,58a.75.75,0,0,0,0-1.5.75.75,0,0,0,0,1.5Z" transform="translate(-0.03 -0.07)"/><path class="cls-4" d="M54.5,15.25" transform="translate(-0.03 -0.07)"/><path class="cls-5" d="M54.5,16a.75.75,0,0,0,0-1.5.75.75,0,0,0,0,1.5Z" transform="translate(-0.03 -0.07)"/><path class="cls-4" d="M81.5,17.25" transform="translate(-0.03 -0.07)"/><path class="cls-5" d="M81.5,18a.75.75,0,0,0,0-1.5.75.75,0,0,0,0,1.5Z" transform="translate(-0.03 -0.07)"/><path class="cls-5" d="M64.89,42.77A10.37,10.37,0,1,0,75.25,53.13,10.38,10.38,0,0,0,64.89,42.77Z" transform="translate(-0.03 -0.07)"/><path class="cls-5" d="M73.94,44.34l4.51-4.51a.75.75,0,0,0-1.06-1.06l-4.51,4.51A.75.75,0,0,0,73.94,44.34Z" transform="translate(-0.03 -0.07)"/><path class="cls-5" d="M63.57,34v6.38a.75.75,0,0,0,1.5,0V34A.75.75,0,0,0,63.57,34Z" transform="translate(-0.03 -0.07)"/><path class="cls-5" d="M84.28,48l-6.15,1.67a.75.75,0,0,0,.4,1.45l6.15-1.67A.75.75,0,0,0,84.28,48Z" transform="translate(-0.03 -0.07)"/><path class="cls-5" d="M55.18,44.34a.75.75,0,0,0,1.06-1.06l-4.51-4.51a.75.75,0,0,0-1.06,1.06Z" transform="translate(-0.03 -0.07)"/><path class="cls-5" d="M51.8,49.68,45.64,48a.75.75,0,0,0-.4,1.45l6.15,1.67A.75.75,0,0,0,51.8,49.68Z" transform="translate(-0.03 -0.07)"/><path class="cls-5" d="M79.5,38a.75.75,0,0,0,0-1.5A.75.75,0,0,0,79.5,38Z" transform="translate(-0.03 -0.07)"/><path class="cls-5" d="M87.5,47.5a.75.75,0,0,0,0,1.5A.75.75,0,0,0,87.5,47.5Z" transform="translate(-0.03 -0.07)"/><path class="cls-5" d="M64.32,31.92a.75.75,0,0,0,0-1.5A.75.75,0,0,0,64.32,31.92Z" transform="translate(-0.03 -0.07)"/><path class="cls-5" d="M43.17,47.33a.75.75,0,0,0,0,1.5A.75.75,0,0,0,43.17,47.33Z" transform="translate(-0.03 -0.07)"/><path class="cls-5" d="M49.17,37.83a.75.75,0,0,0,0-1.5A.75.75,0,0,0,49.17,37.83Z" transform="translate(-0.03 -0.07)"/></g><g id="Layer_5" data-name="Layer 5"><path class="cls-6" d="M108.31,70.82l-.14.24-.23.41-9.23,16-1.16,2L96.08,92l-1.63,2.82-3.86,6.69H37.47l-.94-1.62-.58-1-1-1.74-.73-1.26L21.78,74.33l-.54-.93a57.32,57.32,0,0,1,9.06-9.61c14.61-12.58,35.8-15.94,53.79-9a3.15,3.15,0,0,1,.43,0,20.36,20.36,0,0,1,6.26,2.31,6.06,6.06,0,0,1,2,1.73c.49.2.89.39,1.1.5,2.28,1.32,4.43,3,6.61,4.44C103.4,65.75,106.48,67.83,108.31,70.82Z" transform="translate(-0.03 -0.07)"/><path class="cls-7" d="M45.15,83.55c-2.29,6-5.66,10.29-10.55,13l-.38-.66L21.78,74.33l-.43-.75.13-.15c2-2.1,4-4,6.14-6a1.59,1.59,0,0,1,.51-.85l5-4.56a2.05,2.05,0,0,1,1.5-.58,2.05,2.05,0,0,1,3.43-1.38C44,65.87,48.23,75.47,45.15,83.55Z" transform="translate(-0.03 -0.07)"/><path class="cls-7" d="M107.7,71.59c-1.08-3.67-7.4-9-10.77-10.5l-.11,0a1.51,1.51,0,0,0,.25-.66l-.35-.12-.11,0c-.27,0-.54-.06-.82-.11a3.92,3.92,0,0,1-1.87-1,5.23,5.23,0,0,1-.63-.57c-6.78,3.47-10.39,9.83-11,17.41A55.7,55.7,0,0,0,83,89.67a12.6,12.6,0,0,1-4.53,11.83H90.59l3.86-6.69L96.08,92l1.47-2.55,1.16-2,9-15.64A1.61,1.61,0,0,0,107.7,71.59Z" transform="translate(-0.03 -0.07)"/></g><g id="Layer_2" data-name="Layer 2"><path class="cls-8" d="M50.29,29.54" transform="translate(-0.03 -0.07)"/><path class="cls-2" d="M66,50A56.92,56.92,0,0,0,20.7,72.45l1.08,1.88a54.93,54.93,0,0,1,86.16-2.86l.23-.41.83-1.44A56.88,56.88,0,0,0,66,50Z" transform="translate(-0.03 -0.07)"/></g><g id="Layer_4" data-name="Layer 4"><path class="cls-9" d="M90.59,9.5H37.47l-26.56,46,26.56,46H90.59l26.56-46ZM89.51,99.64h-51L13,55.5,38.54,11.36h51L115,55.5Z" transform="translate(-0.03 -0.07)"/></g></svg>