<?xml version="1.0" encoding="utf-8"?>
<!-- Generator: Adobe Illustrator 14.0.0, SVG Export Plug-In . SVG Version: 6.00 Build 43363)  -->
<!DOCTYPE svg PUBLIC "-//W3C//DTD SVG 1.1//EN" "http://www.w3.org/Graphics/SVG/1.1/DTD/svg11.dtd">
<svg version="1.1" id="Layer_1" xmlns="http://www.w3.org/2000/svg" xmlns:xlink="http://www.w3.org/1999/xlink" x="0px" y="0px"
	 width="110.913px" height="128.047px" viewBox="0 0 110.913 128.047" enable-background="new 0 0 110.913 128.047"
	 xml:space="preserve">
<g>
	<polygon fill="#4065B0" points="101.52,90.631 101.52,37.43 55.42,10.831 9.319,37.43 9.319,90.631 55.42,117.23 	"/>
</g>
<linearGradient id="SVGID_1_" gradientUnits="userSpaceOnUse" x1="55.4194" y1="41.5313" x2="55.4194" y2="89.8046">
	<stop  offset="0" style="stop-color:#8BB8FF"/>
	<stop  offset="1" style="stop-color:#734757"/>
</linearGradient>
<polygon fill="url(#SVGID_1_)" points="9.319,42.281 9.319,90.631 55.42,117.23 101.52,90.631 101.52,42.281 "/>
<g>
	<linearGradient id="SVGID_2_" gradientUnits="userSpaceOnUse" x1="56.2461" y1="28.1909" x2="56.2461" y2="40.1359">
		<stop  offset="0" style="stop-color:#8BB8FF"/>
		<stop  offset="1" style="stop-color:#363636"/>
	</linearGradient>
	<path fill="url(#SVGID_2_)" d="M24.915,36.073h62.599c2.314,0,1.525-1.433,1.272-1.875c-0.833-1.458-2.19-2.526-4.346-2.526
		c-0.635,0-1.229,0.108-1.759,0.295c-0.002,0-0.004,0-0.005-0.001c-0.398-1.213-1.948-2.119-3.804-2.119
		c-0.151,0-0.298,0.007-0.445,0.019c-0.698-0.744-1.898-1.235-3.266-1.235c-0.357,0-0.703,0.037-1.032,0.1
		c-0.214-0.059-0.438-0.105-0.669-0.136c-0.262-1.331-1.891-2.357-3.864-2.357c-0.433,0-0.848,0.051-1.237,0.142
		c-0.699-0.738-1.896-1.225-3.257-1.225c-1.082,0-2.063,0.309-2.771,0.808c-0.544-0.869-1.716-1.501-3.117-1.616
		c-0.263-1.769-2.401-3.148-5-3.148c-2.777,0-5.029,1.576-5.029,3.519c0,0.109,0.01,0.217,0.023,0.324
		c-0.836,0.33-1.522,0.821-1.975,1.414c-0.688-0.249-1.468-0.391-2.297-0.391c-1.539,0-2.914,0.485-3.837,1.247
		c-0.725-0.812-1.841-1.333-3.097-1.333c-1.769,0-3.266,1.033-3.771,2.458c-1.861,0.167-3.311,1.25-3.397,2.583
		c-1.688,0.302-2.938,1.37-2.938,2.645c0,0.04,0.006,0.079,0.009,0.118C23.41,34.031,21.953,36.115,24.915,36.073z"/>
	<linearGradient id="SVGID_3_" gradientUnits="userSpaceOnUse" x1="29.0781" y1="62.2319" x2="29.0781" y2="71.9695">
		<stop  offset="0" style="stop-color:#B3B8FF"/>
		<stop  offset="1" style="stop-color:#363636"/>
	</linearGradient>
	<path fill="url(#SVGID_3_)" d="M11.328,68.656h35.466c1.311,0,0.863-1.168,0.721-1.527c-0.473-1.189-1.241-2.061-2.463-2.061
		c-0.359,0-0.696,0.09-0.996,0.24c-0.001,0-0.002,0-0.002,0c-0.227-0.989-1.104-1.728-2.155-1.728c-0.086,0-0.169,0.007-0.253,0.016
		c-0.395-0.606-1.075-1.007-1.85-1.007c-0.203,0-0.398,0.029-0.585,0.081c-0.122-0.048-0.247-0.085-0.38-0.11
		c-0.147-1.085-1.07-1.922-2.188-1.922c-0.245,0-0.48,0.043-0.701,0.116c-0.396-0.601-1.073-0.998-1.845-0.998
		c-0.613,0-1.169,0.252-1.57,0.658c-0.309-0.708-0.972-1.224-1.766-1.317c-0.148-1.441-1.361-2.566-2.832-2.566
		c-1.574,0-2.85,1.284-2.85,2.869c0,0.088,0.005,0.176,0.013,0.264c-0.474,0.269-0.862,0.668-1.118,1.152
		c-0.391-0.203-0.832-0.318-1.302-0.318c-0.872,0-1.651,0.395-2.174,1.016c-0.411-0.662-1.043-1.087-1.755-1.087
		c-1.002,0-1.85,0.843-2.137,2.003c-1.055,0.137-1.875,1.019-1.924,2.105c-0.957,0.246-1.666,1.117-1.666,2.156
		c0,0.033,0.004,0.064,0.006,0.096C10.476,66.992,9.649,68.691,11.328,68.656z"/>
	<linearGradient id="SVGID_4_" gradientUnits="userSpaceOnUse" x1="83.2998" y1="66.4814" x2="83.2998" y2="76.219">
		<stop  offset="0" style="stop-color:#C9B8FF"/>
		<stop  offset="1" style="stop-color:#363636"/>
	</linearGradient>
	<path fill="url(#SVGID_4_)" d="M67.27,72.906h32.028c1.185,0,0.781-1.168,0.652-1.527c-0.427-1.189-1.121-2.061-2.224-2.061
		c-0.325,0-0.63,0.09-0.9,0.24c-0.001,0-0.002,0-0.002,0c-0.204-0.988-0.997-1.727-1.946-1.727c-0.077,0-0.152,0.006-0.229,0.016
		c-0.356-0.607-0.971-1.008-1.67-1.008c-0.183,0-0.36,0.029-0.528,0.082c-0.109-0.049-0.225-0.086-0.343-0.111
		c-0.134-1.084-0.968-1.922-1.977-1.922c-0.222,0-0.435,0.043-0.634,0.117c-0.357-0.602-0.97-0.999-1.666-0.999
		c-0.554,0-1.056,0.252-1.418,0.659c-0.278-0.709-0.878-1.225-1.595-1.318c-0.134-1.441-1.229-2.566-2.559-2.566
		c-1.421,0-2.573,1.284-2.573,2.869c0,0.088,0.005,0.176,0.013,0.264c-0.427,0.269-0.778,0.668-1.011,1.152
		c-0.352-0.203-0.751-0.318-1.176-0.318c-0.787,0-1.49,0.395-1.963,1.016c-0.37-0.662-0.941-1.086-1.584-1.086
		c-0.904,0-1.671,0.842-1.93,2.002c-0.953,0.137-1.693,1.02-1.738,2.105c-0.863,0.246-1.504,1.117-1.504,2.156
		c0,0.033,0.003,0.064,0.005,0.096C66.5,71.242,65.754,72.941,67.27,72.906z"/>
	<circle cx="55.673" cy="72.184" r="29.834"/>
	<g>
		<circle fill="#999999" cx="55.673" cy="72.096" r="28.269"/>
		<g>
			<g>
				<path fill="#333333" d="M70.701,96.039c-8.652,4.747-19.082,5.626-27.954,1.016c-11.072-5.99-17.587-18.771-14.523-31.262
					c14.438,18.749,36.952,14.926,55.633,6.453C81.886,83.086,80.682,89.816,70.701,96.039z"/>
				<path fill="#999999" d="M65.65,92.836c-6.199,1.311-9.371,1.476-15.234,0.899c-1.187-0.71-1.8-1.104-3.033-1.987
					c7.042,1.236,10.965,1.192,18.589-0.338C65.85,92.011,65.788,92.293,65.65,92.836z"/>
				<path fill="#FFFFFF" d="M65.906,91.733c0.027-0.128,0.041-0.192,0.067-0.323c-7.624,1.53-11.549,1.574-18.591,0.338
					c0.269,0.192,0.403,0.287,0.67,0.471C54.841,93.292,58.598,93.216,65.906,91.733z"/>
				<path fill="#999999" d="M62.771,99.186c-9.008,2.186-14.37,1.439-20.024-2.131c-2.408-1.146-3.695-2.048-6.047-4.281
					c8.479,5.024,18.704,5.621,28.124,3.225C64.235,97.298,63.859,97.883,62.771,99.186z"/>
				<path fill="#FFFFFF" d="M64.767,96.126c-9.315,2.383-19.43,1.81-27.832-3.132c-0.094-0.087-0.141-0.132-0.234-0.221
					c8.479,5.024,18.704,5.621,28.124,3.225C64.801,96.05,64.791,96.074,64.767,96.126z"/>
				<path fill="#999999" d="M64.921,95.774c-9.599,2.424-20.01,1.777-28.619-3.387c-0.794-0.783-1.184-1.204-1.932-2.091
					c10.183,6.549,19.551,5.54,30.979,4.328C65.197,95.1,65.112,95.327,64.921,95.774z"/>
				<path fill="#FFFFFF" d="M65.309,94.748c-11.333,1.221-20.623,2.235-30.744-4.221c-0.078-0.091-0.117-0.139-0.194-0.23
					c10.183,6.549,19.551,5.54,30.979,4.328C65.333,94.674,65.325,94.699,65.309,94.748z"/>
				<path fill="#999999" d="M82.041,82.868c-17.875,7.063-38.294,10.298-53.825-4.169c-0.325-1.213-0.456-1.831-0.634-3.09
					c15.523,15.639,36.663,12.459,55.069,5.124C82.43,81.645,82.311,82.069,82.041,82.868z"/>
				<path fill="#FFFFFF" d="M82.579,81.022c-18.352,7.298-39.4,10.479-54.937-5.011c-0.025-0.16-0.038-0.241-0.061-0.402
					c15.523,15.639,36.663,12.459,55.069,5.124C82.623,80.851,82.608,80.907,82.579,81.022z"/>
				<path fill="#999999" d="M46.338,94.874c-5.648-1.086-8.278-2.125-12.386-5.081c-0.734-0.908-1.087-1.39-1.752-2.389
					c3.732,2.877,6.035,3.956,11.013,5.339C44.486,93.688,45.117,94.113,46.338,94.874z"/>
				<path fill="#999999" d="M42.837,92.303c-4.972-1.435-7.271-2.538-11.006-5.463c-0.646-1.018-0.949-1.55-1.502-2.645
					c3.208,2.698,5.112,3.782,9.237,5.391C40.872,90.778,41.533,91.319,42.837,92.303z"/>
				<path fill="#FFFFFF" d="M42.458,92.191c0.151,0.045,0.228,0.069,0.379,0.113c-1.305-0.983-1.966-1.526-3.271-2.719
					c-4.125-1.608-6.03-2.692-9.237-5.391c0.094,0.186,0.141,0.276,0.237,0.46c3.186,2.646,5.076,3.71,9.171,5.282
					C40.825,90.911,41.372,91.362,42.458,92.191z"/>
				<path fill="#999999" d="M39.125,89.152c-4.013-1.624-5.867-2.703-9.002-5.369c-0.807-1.658-1.155-2.529-1.694-4.328
					c2.221,2.107,3.469,3.027,6.153,4.597C36.31,86.33,37.247,87.348,39.125,89.152z"/>
				<path fill="#FFFFFF" d="M38.891,89.098c0.104,0.043,0.154,0.066,0.258,0.108c-1.879-1.801-2.817-2.817-4.547-5.092
					c-2.683-1.565-3.93-2.484-6.15-4.587c0.044,0.146,0.066,0.216,0.112,0.36c2.215,2.079,3.458,2.986,6.133,4.533
					C36.301,86.493,37.162,87.427,38.891,89.098z"/>
				<path fill="#999999" d="M58.609,86.645c-13.846-1.386-20.026-3.386-31.117-11.747c-0.203-1.807-0.228-2.731-0.078-4.602
					c6.868,7.916,16.702,12.313,27.092,12.943C56.096,84.785,56.94,85.463,58.609,86.645z"/>
				<path fill="#FFFFFF" d="M58.104,86.657c0.201-0.003,0.303-0.008,0.505-0.013c-1.669-1.182-2.514-1.859-4.104-3.405
					c-10.39-0.631-20.224-5.027-27.092-12.943c-0.018,0.223-0.026,0.334-0.039,0.556c6.908,7.849,16.738,12.186,27.101,12.81
					C55.89,85.002,56.632,85.6,58.104,86.657z"/>
				<path fill="#999999" d="M82.749,80.33c-8.894,4.697-13.829,5.947-23.084,6.384c-1.776-1.352-2.682-2.141-4.354-3.958
					c-11.24-2.026-20.007-3.967-27.834-13.118c0.166-1.526,0.31-2.298,0.748-3.845c7.324,9.585,19.073,14.295,30.967,13.895
					c1.936,2.046,3.01,2.919,5.112,4.37c7.66-1.021,11.62-2.254,18.925-6.228C83.058,78.9,82.963,79.396,82.749,80.33z"/>
				<path fill="#FFFFFF" d="M64.304,84.058c-2.103-1.451-3.177-2.324-5.112-4.37c-11.894,0.4-23.644-4.31-30.967-13.895
					c-0.067,0.239-0.1,0.36-0.161,0.599c7.408,9.503,19.187,14.146,31.067,13.734c1.954,2.034,3.033,2.898,5.138,4.331
					c7.645-1.016,11.595-2.238,18.885-6.18c0.03-0.178,0.046-0.266,0.075-0.447C75.924,81.804,71.964,83.036,64.304,84.058z"/>
				<path fill="#999999" d="M70.701,96.039c-2.797,1.621-4.328,2.213-7.392,3.012c1.674-1.901,2.152-2.674,2.882-4.656
					c4.753-1.197,7.148-2.099,11.623-4.553C75.624,92.156,74.254,93.143,70.701,96.039z"/>
				<path fill="#FFFFFF" d="M77.705,89.954c-4.445,2.443-6.824,3.342-11.549,4.537c0.015-0.039,0.021-0.058,0.035-0.097
					c4.753-1.197,7.148-2.099,11.623-4.553C77.771,89.888,77.749,89.908,77.705,89.954z"/>
				<path fill="#999999" d="M79.464,87.88c-4.922,2.619-7.544,3.567-12.749,4.785c0.347-1.413,0.46-2.189,0.694-4.079
					c5.872-1.217,8.842-2.234,14.424-5.13C81.079,85.495,80.619,86.314,79.464,87.88z"/>
				<path fill="#FFFFFF" d="M81.72,83.752c-5.552,2.879-8.504,3.893-14.346,5.109c0.014-0.108,0.021-0.164,0.035-0.275
					c5.872-1.217,8.842-2.234,14.424-5.13C81.789,83.575,81.766,83.635,81.72,83.752z"/>
				<path fill="#999999" d="M83.312,77.289c-7.169,3.931-11.046,5.165-18.566,6.232c-1.835-1.317-2.765-2.093-4.471-3.877
					c9.428-0.489,14.498-1.949,23.583-7.398C83.685,74.497,83.579,75.49,83.312,77.289z"/>
				<path fill="#FFFFFF" d="M60.274,79.645c0.177,0.196,0.267,0.292,0.445,0.482c9.247-0.565,14.191-2.002,23.088-7.273
					c0.02-0.24,0.031-0.361,0.05-0.607C74.772,77.695,69.702,79.155,60.274,79.645z"/>
				<path fill="#999999" d="M66.093,91.168c-7.926,1.591-12.012,1.611-19.294,0.223c-1.92-1.384-2.905-2.18-4.787-4.014
					c8.897,2.923,14.204,3.229,24.378,1.324C66.278,89.777,66.223,90.263,66.093,91.168z"/>
				<path fill="#FFFFFF" d="M42.012,87.377c0.182,0.178,0.273,0.262,0.457,0.435c8.753,2.75,13.938,3.021,23.893,1.148
					c0.011-0.103,0.018-0.154,0.028-0.259C56.216,90.605,50.909,90.3,42.012,87.377z"/>
				<path fill="#999999" d="M78.041,89.598C67.588,93.81,58.96,96.82,47.478,95.108c-4.636-2.813-7.5-4.82-12.038-10.626
					c1.995,1.074,3.05,1.541,5.24,2.326c3.701,3.784,5.788,5.178,9.422,7.264c10.074,0.952,20.207-1.158,29.141-5.898
					C78.795,88.757,78.556,89.039,78.041,89.598z"/>
				<path fill="#FFFFFF" d="M50.103,94.072c-3.635-2.086-5.722-3.479-9.422-7.264c-2.19-0.785-3.245-1.252-5.24-2.326
					c0.222,0.283,0.333,0.427,0.558,0.702c1.837,0.944,2.803,1.355,4.801,2.061c3.731,3.723,5.818,5.083,9.43,7.117
					c9.961,0.9,19.97-1.21,28.794-5.908c0.089-0.111,0.133-0.167,0.22-0.28C70.31,92.914,60.177,95.024,50.103,94.072z"/>
				<path fill="#FCEE21" d="M61.706,97.502c0.089-0.277-0.429-0.396-1.139-0.287s-1.29,0.403-1.313,0.674s0.465,0.417,1.108,0.314
					S61.617,97.779,61.706,97.502z"/>
				<path fill="#FCEE21" d="M61.184,98.779c0.134-0.268-0.279-0.387-0.902-0.287s-1.162,0.372-1.225,0.624s0.317,0.399,0.869,0.315
					S61.05,99.047,61.184,98.779z"/>
				<linearGradient id="SVGID_5_" gradientUnits="userSpaceOnUse" x1="43.8037" y1="97.1406" x2="56.8262" y2="97.1406">
					<stop  offset="0" style="stop-color:#999999"/>
					<stop  offset="1" style="stop-color:#FCEE21"/>
				</linearGradient>
				<path fill="url(#SVGID_5_)" d="M44.003,96.523c4.61,1.365,7.331,1.648,12.823,1.277c-0.011-0.059-0.015-0.089-0.025-0.148
					c-5.566,0.368-8.324,0.077-12.997-1.32C43.884,96.409,43.923,96.448,44.003,96.523z"/>
				<linearGradient id="SVGID_6_" gradientUnits="userSpaceOnUse" x1="68.6855" y1="93.9746" x2="73.9033" y2="93.9746">
					<stop  offset="0" style="stop-color:#999999"/>
					<stop  offset="1" style="stop-color:#FCEE21"/>
				</linearGradient>
				<path fill="url(#SVGID_6_)" d="M68.686,95.144c2.04-0.724,3.049-1.152,5.016-2.146c0.08-0.076,0.123-0.116,0.202-0.191
					c-1.995,1.004-3.018,1.437-5.086,2.168C68.766,95.041,68.738,95.077,68.686,95.144z"/>
				<linearGradient id="SVGID_7_" gradientUnits="userSpaceOnUse" x1="68.3369" y1="94.4326" x2="73.3838" y2="94.4326">
					<stop  offset="0" style="stop-color:#999999"/>
					<stop  offset="1" style="stop-color:#FCEE21"/>
				</linearGradient>
				<path fill="url(#SVGID_7_)" d="M68.337,95.57c1.968-0.704,2.944-1.12,4.84-2.084c0.084-0.077,0.124-0.115,0.207-0.191
					c-1.924,0.976-2.912,1.396-4.908,2.107C68.421,95.469,68.393,95.504,68.337,95.57z"/>
				<linearGradient id="SVGID_8_" gradientUnits="userSpaceOnUse" x1="67.9736" y1="94.8926" x2="72.8467" y2="94.8926">
					<stop  offset="0" style="stop-color:#999999"/>
					<stop  offset="1" style="stop-color:#FCEE21"/>
				</linearGradient>
				<path fill="url(#SVGID_8_)" d="M67.974,95.996c1.895-0.682,2.832-1.083,4.654-2.015c0.088-0.078,0.133-0.115,0.219-0.193
					c-1.851,0.944-2.806,1.352-4.729,2.042C68.061,95.897,68.032,95.929,67.974,95.996z"/>
				<linearGradient id="SVGID_9_" gradientUnits="userSpaceOnUse" x1="67.5869" y1="95.3613" x2="72.2773" y2="95.3613">
					<stop  offset="0" style="stop-color:#999999"/>
					<stop  offset="1" style="stop-color:#FCEE21"/>
				</linearGradient>
				<path fill="url(#SVGID_9_)" d="M67.587,96.433c1.819-0.656,2.719-1.046,4.466-1.943c0.092-0.08,0.135-0.119,0.225-0.198
					c-1.776,0.911-2.69,1.302-4.539,1.969C67.678,96.327,67.649,96.364,67.587,96.433z"/>
				<linearGradient id="SVGID_10_" gradientUnits="userSpaceOnUse" x1="67.1777" y1="95.8359" x2="71.6885" y2="95.8359">
					<stop  offset="0" style="stop-color:#999999"/>
					<stop  offset="1" style="stop-color:#FCEE21"/>
				</linearGradient>
				<path fill="url(#SVGID_10_)" d="M67.178,96.869c1.742-0.629,2.604-1,4.274-1.86c0.096-0.082,0.142-0.125,0.236-0.206
					c-1.7,0.876-2.579,1.254-4.352,1.895C67.272,96.766,67.243,96.8,67.178,96.869z"/>
				<linearGradient id="SVGID_11_" gradientUnits="userSpaceOnUse" x1="44.3911" y1="97.627" x2="56.8955" y2="97.627">
					<stop  offset="0" style="stop-color:#999999"/>
					<stop  offset="1" style="stop-color:#FCEE21"/>
				</linearGradient>
				<path fill="url(#SVGID_11_)" d="M44.592,97.053c4.419,1.278,7.033,1.541,12.304,1.168c-0.009-0.057-0.013-0.081-0.021-0.139
					c-5.347,0.374-7.998,0.103-12.483-1.204C44.471,96.95,44.512,96.982,44.592,97.053z"/>
				<linearGradient id="SVGID_12_" gradientUnits="userSpaceOnUse" x1="45.1089" y1="98.1816" x2="56.9561" y2="98.1816">
					<stop  offset="0" style="stop-color:#999999"/>
					<stop  offset="1" style="stop-color:#000000"/>
				</linearGradient>
				<path fill="url(#SVGID_12_)" d="M45.309,97.653c4.179,1.184,6.656,1.426,11.647,1.063c-0.006-0.054-0.006-0.081-0.013-0.136
					c-5.07,0.367-7.587,0.119-11.834-1.089C45.189,97.557,45.229,97.59,45.309,97.653z"/>
				<linearGradient id="SVGID_13_" gradientUnits="userSpaceOnUse" x1="45.585" y1="98.5244" x2="56.9824" y2="98.5244">
					<stop  offset="0" style="stop-color:#999999"/>
					<stop  offset="1" style="stop-color:#000000"/>
				</linearGradient>
				<path fill="url(#SVGID_13_)" d="M45.784,98.021c4.014,1.128,6.397,1.36,11.199,1.012c-0.004-0.053-0.004-0.08-0.008-0.133
					c-4.881,0.355-7.306,0.118-11.39-1.032C45.665,97.929,45.705,97.961,45.784,98.021z"/>
				<linearGradient id="SVGID_14_" gradientUnits="userSpaceOnUse" x1="46.0576" y1="98.8496" x2="56.998" y2="98.8496">
					<stop  offset="0" style="stop-color:#999999"/>
					<stop  offset="1" style="stop-color:#000000"/>
				</linearGradient>
				<path fill="url(#SVGID_14_)" d="M46.254,98.359c3.846,1.081,6.136,1.31,10.744,0.983c-0.001-0.051-0.002-0.076-0.004-0.128
					c-4.689,0.336-7.02,0.106-10.937-0.994C46.136,98.277,46.176,98.305,46.254,98.359z"/>
				<linearGradient id="SVGID_15_" gradientUnits="userSpaceOnUse" x1="28.605" y1="82.8223" x2="44.6963" y2="82.8223">
					<stop  offset="0" style="stop-color:#999999"/>
					<stop  offset="1" style="stop-color:#000000"/>
				</linearGradient>
				<path fill="url(#SVGID_15_)" d="M28.706,78.771c5.259,4.88,8.67,6.606,15.99,8.529c-0.023-0.124-0.034-0.188-0.056-0.314
					c-7.345-1.954-10.767-3.701-16.036-8.642C28.645,78.516,28.664,78.602,28.706,78.771z"/>
				<linearGradient id="SVGID_16_" gradientUnits="userSpaceOnUse" x1="28.3882" y1="81.9297" x2="44.5688" y2="81.9297">
					<stop  offset="0" style="stop-color:#999999"/>
					<stop  offset="1" style="stop-color:#000000"/>
				</linearGradient>
				<path fill="url(#SVGID_16_)" d="M28.475,77.746c5.281,5.025,8.716,6.803,16.094,8.8c-0.02-0.128-0.029-0.19-0.047-0.319
					c-7.4-2.027-10.845-3.827-16.134-8.912C28.421,77.488,28.439,77.573,28.475,77.746z"/>
				<path fill="#333333" d="M31.611,86.097c0.241,0.415,0.735,0.966,1.102,1.228l0,0c0.367,0.262,0.478,0.151,0.247-0.245l0,0
					c-0.23-0.396-0.725-0.943-1.102-1.224l0,0C31.481,85.575,31.37,85.682,31.611,86.097L31.611,86.097z"/>
				<path fill="#FBB03B" d="M31.844,86.275c0.155,0.267,0.475,0.623,0.713,0.795l0,0c0.239,0.172,0.311,0.102,0.16-0.157l0,0
					c-0.151-0.259-0.471-0.614-0.714-0.794l0,0C31.76,85.939,31.688,86.009,31.844,86.275L31.844,86.275z"/>
				<path fill="#333333" d="M33.452,87.411c0.227,0.39,0.729,0.899,1.121,1.136l0,0c0.391,0.236,0.534,0.123,0.318-0.249l0,0
					c-0.216-0.372-0.718-0.878-1.12-1.132l0,0C33.368,86.912,33.225,87.021,33.452,87.411L33.452,87.411z"/>
				<path fill="#FBB03B" d="M33.701,87.573c0.146,0.25,0.471,0.578,0.726,0.733l0,0c0.255,0.155,0.346,0.083,0.205-0.16l0,0
					c-0.141-0.243-0.465-0.57-0.725-0.732l0,0C33.648,87.252,33.555,87.323,33.701,87.573L33.701,87.573z"/>
				<path fill="#333333" d="M35.414,88.596c0.211,0.366,0.719,0.835,1.132,1.046l0,0c0.414,0.211,0.588,0.098,0.388-0.252l0,0
					c-0.2-0.35-0.708-0.816-1.133-1.043l0,0C35.376,88.12,35.202,88.229,35.414,88.596L35.414,88.596z"/>
				<path fill="#FBB03B" d="M35.678,88.739c0.136,0.235,0.464,0.541,0.733,0.68l0,0c0.27,0.139,0.382,0.065,0.251-0.163l0,0
					c-0.131-0.229-0.459-0.53-0.734-0.676l0,0C35.654,88.435,35.542,88.504,35.678,88.739L35.678,88.739z"/>
				<path fill="#333333" d="M37.485,89.652c0.195,0.345,0.706,0.776,1.14,0.961l0,0c0.434,0.185,0.639,0.064,0.457-0.265l0,0
					c-0.183-0.329-0.693-0.757-1.14-0.956l0,0C37.495,89.193,37.29,89.308,37.485,89.652L37.485,89.652z"/>
				<path fill="#FBB03B" d="M37.763,89.78c0.125,0.222,0.457,0.5,0.739,0.621l0,0c0.283,0.121,0.415,0.046,0.295-0.169l0,0
					c-0.12-0.215-0.451-0.491-0.739-0.619l0,0C37.77,89.485,37.638,89.559,37.763,89.78L37.763,89.78z"/>
				<path fill="#333333" d="M51.727,93.212c0.08,0.252,0.566,0.48,1.085,0.505l0,0c0.519,0.024,0.888-0.157,0.824-0.402l0,0
					c-0.064-0.245-0.551-0.467-1.086-0.498l0,0C52.015,92.785,51.646,92.96,51.727,93.212L51.727,93.212z"/>
				<path fill="#FBB03B" d="M52.062,93.236c0.05,0.162,0.365,0.31,0.703,0.326l0,0c0.338,0.017,0.577-0.101,0.534-0.261l0,0
					c-0.043-0.16-0.359-0.302-0.704-0.321l0,0C52.249,92.961,52.012,93.074,52.062,93.236L52.062,93.236z"/>
				<path fill="#333333" d="M54.317,93.333c0.059,0.243,0.529,0.441,1.056,0.438l0,0c0.526-0.003,0.921-0.199,0.879-0.437l0,0
					c-0.042-0.237-0.516-0.432-1.059-0.435l0,0C54.651,92.897,54.259,93.09,54.317,93.333L54.317,93.333z"/>
				<path fill="#FBB03B" d="M54.656,93.34c0.036,0.157,0.342,0.284,0.686,0.283l0,0c0.343-0.001,0.598-0.129,0.568-0.283l0,0
					c-0.029-0.154-0.336-0.28-0.686-0.281l0,0C54.875,93.058,54.62,93.183,54.656,93.34L54.656,93.34z"/>
				<path fill="#333333" d="M56.943,93.313c0.036,0.235,0.497,0.406,1.029,0.376l0,0c0.532-0.03,0.948-0.246,0.929-0.478l0,0
					c-0.02-0.231-0.481-0.393-1.03-0.366l0,0C57.322,92.872,56.907,93.078,56.943,93.313L56.943,93.313z"/>
				<path fill="#FBB03B" d="M57.285,93.302c0.021,0.152,0.322,0.263,0.669,0.243l0,0c0.347-0.02,0.616-0.16,0.602-0.311l0,0
					c-0.015-0.15-0.314-0.256-0.668-0.238l0,0C57.534,93.014,57.264,93.149,57.285,93.302L57.285,93.302z"/>
				<path fill="#333333" d="M59.599,93.158c0.014,0.23,0.459,0.373,0.995,0.314l0,0c0.536-0.059,0.976-0.293,0.979-0.521l0,0
					c0.003-0.228-0.445-0.363-0.998-0.308l0,0C60.021,92.7,59.585,92.928,59.599,93.158L59.599,93.158z"/>
				<path fill="#FBB03B" d="M59.944,93.128c0.007,0.148,0.297,0.24,0.646,0.203l0,0c0.35-0.037,0.634-0.191,0.634-0.339l0,0
					c0-0.147-0.29-0.233-0.646-0.197l0,0C60.222,92.831,59.938,92.979,59.944,93.128L59.944,93.128z"/>
				<path fill="#333333" d="M62.271,92.859c-0.009,0.227,0.421,0.344,0.959,0.257l0,0c0.538-0.087,0.997-0.342,1.022-0.566l0,0
					c0.025-0.225-0.405-0.334-0.961-0.249l0,0C62.736,92.386,62.28,92.633,62.271,92.859L62.271,92.859z"/>
				<path fill="#FBB03B" d="M62.619,92.812c-0.008,0.146,0.272,0.222,0.623,0.166l0,0c0.351-0.056,0.648-0.223,0.663-0.368l0,0
					c0.015-0.146-0.266-0.218-0.624-0.162l0,0C62.923,92.503,62.627,92.665,62.619,92.812L62.619,92.812z"/>
			</g>
		</g>
		<g>
			<g>
				<path fill="#333333" d="M40.642,48.154c10.551,5.036,19.198,3.034,29.952,0.141c7.959,5.666,13.363,14.189,13.414,24.191
					c-18.854,12.638-40.744,8.7-55.784-6.693C31.133,56.28,33.55,53.908,40.642,48.154z"/>
				<path fill="#999999" d="M43.707,60.647c5.312,1.66,8.51,2.021,14.687,1.833c1.126,0.836,1.712,1.251,2.91,2.068
					c-7.538,0.602-11.596,0.246-18.113-1.914C43.396,61.826,43.5,61.429,43.707,60.647z"/>
				<path fill="#FFFFFF" d="M43.302,62.195c-0.045,0.175-0.067,0.263-0.112,0.439c6.517,2.16,10.576,2.516,18.113,1.914
					c-0.261-0.178-0.392-0.266-0.649-0.445C53.414,64.603,49.552,64.24,43.302,62.195z"/>
				<path fill="#999999" d="M46.492,50.433c8.284,1.943,15.863,2.448,24.102-2.138c2.012,1.546,3.001,2.372,4.812,4.189
					c-9.441,4.897-20.328,5.688-30.563,3.113C45.445,53.466,45.767,52.447,46.492,50.433z"/>
				<path fill="#FFFFFF" d="M44.902,55.387c10.156,2.54,20.953,1.767,30.324-3.083c0.072,0.072,0.107,0.108,0.18,0.181
					c-9.441,4.897-20.328,5.688-30.563,3.113C44.866,55.513,44.878,55.471,44.902,55.387z"/>
				<path fill="#999999" d="M44.74,55.963c10.374,2.63,21.412,1.815,30.974-3.167c0.61,0.627,0.908,0.949,1.481,1.614
					c-12.486,4.654-19.763,5.268-32.95,3.404C44.438,57.063,44.536,56.693,44.74,55.963z"/>
				<path fill="#FFFFFF" d="M44.294,57.62c13.1,1.843,20.345,1.232,32.751-3.382c0.06,0.069,0.091,0.104,0.15,0.173
					c-12.486,4.654-19.763,5.268-32.95,3.404C44.265,57.736,44.274,57.697,44.294,57.62z"/>
				<path fill="#999999" d="M31.076,58.995c13.914,14.922,34.792,10.771,51.161,3.682c0.333,0.865,0.484,1.312,0.745,2.231
					c-15.27,9.415-40.271,10.482-52.715-4.36C30.577,59.91,30.739,59.599,31.076,58.995z"/>
				<path fill="#FFFFFF" d="M30.367,60.344c17.166,13.587,32.964,12.892,52.529,4.27c0.034,0.117,0.052,0.177,0.085,0.295
					c-15.27,9.415-40.271,10.482-52.715-4.36C30.306,60.466,30.327,60.425,30.367,60.344z"/>
				<path fill="#999999" d="M63.242,59.456c6.28-0.852,9.458-1.772,14.273-4.669c0.563,0.674,0.833,1.02,1.352,1.735
					c-4.288,2.623-7.012,3.545-12.566,4.604C65.05,60.476,64.434,60.142,63.242,59.456z"/>
				<path fill="#999999" d="M66.624,61.567c5.543-1.082,8.257-2.014,12.533-4.639c0.507,0.725,0.748,1.099,1.201,1.869
					c-3.631,2.269-5.846,3.142-10.472,4.333C68.57,62.525,67.912,62.212,66.624,61.567z"/>
				<path fill="#FFFFFF" d="M67.047,61.482c-0.169,0.035-0.254,0.052-0.423,0.085c1.289,0.646,1.946,0.958,3.263,1.562
					c4.626-1.19,6.841-2.064,10.472-4.333c-0.077-0.131-0.116-0.195-0.194-0.325c-3.611,2.25-5.811,3.114-10.404,4.292
					C68.667,62.266,68.12,62.01,67.047,61.482z"/>
				<path fill="#999999" d="M70.329,63.369c4.503-1.197,6.653-2.061,10.198-4.282c0.667,1.167,0.97,1.775,1.495,3.054
					c-2.504,1.616-3.938,2.307-6.981,3.43C73.184,64.729,72.225,64.29,70.329,63.369z"/>
				<path fill="#FFFFFF" d="M70.602,63.238c-0.116,0.032-0.176,0.047-0.293,0.078c1.896,0.92,2.859,1.359,4.718,2.199
					c3.041-1.122,4.473-1.811,6.976-3.426c-0.043-0.103-0.064-0.156-0.108-0.258c-2.496,1.606-3.924,2.293-6.954,3.408
					C73.227,64.474,72.345,64.073,70.602,63.238z"/>
				<path fill="#999999" d="M49.183,71.493c11.515,1.984,23.96,0.212,33.939-6.064c0.347,1.328,0.481,2.018,0.662,3.464
					c-9.885,6.363-19.272,6.771-30.628,6.926C51.511,74.087,50.704,73.218,49.183,71.493z"/>
				<path fill="#FFFFFF" d="M49.673,71.582c-0.196-0.033-0.294-0.054-0.49-0.089c1.521,1.725,2.329,2.594,3.974,4.325
					c11.355-0.154,20.743-0.563,30.628-6.926c-0.021-0.172-0.033-0.256-0.057-0.426c-9.861,6.313-19.226,6.729-30.54,6.891
					C51.738,73.846,51.026,73.09,49.673,71.582z"/>
				<path fill="#999999" d="M30.132,60.828c4.895,6.569,9.183,8.524,18.04,10.344c1.577,2.028,2.429,3.06,4.159,5.133
					c11.699-0.012,21.325-0.316,31.514-6.901c0.127,1.191,0.16,1.808,0.163,3.083c-10.29,7.005-23.521,8.906-35.597,6.438
					c-2.007-2.575-2.985-3.863-4.76-6.388c-6.983-2.349-10.208-4.284-14.251-10.05C29.68,61.804,29.826,61.473,30.132,60.828z"/>
				<path fill="#FFFFFF" d="M43.651,72.536c1.775,2.524,2.753,3.813,4.76,6.388c12.075,2.469,25.307,0.567,35.597-6.438
					c0-0.197-0.001-0.294-0.005-0.489c-10.284,6.978-23.47,8.907-35.539,6.489c-2.006-2.572-2.982-3.854-4.748-6.371
					c-6.954-2.316-10.166-4.229-14.196-9.917c-0.048,0.115-0.073,0.172-0.12,0.288C33.443,68.252,36.668,70.188,43.651,72.536z"/>
				<path fill="#999999" d="M40.642,48.154c1.425,1,2.607,1.468,5.361,2.16c-1.124,2.82-1.599,4.245-2.481,7.329
					c-4.008-1.282-5.789-2.202-8.181-4.555C37.223,51.013,38.282,50.069,40.642,48.154z"/>
				<path fill="#FFFFFF" d="M35.435,52.987c2.376,2.326,4.144,3.236,8.13,4.505c-0.018,0.061-0.025,0.091-0.043,0.151
					c-4.008-1.282-5.789-2.202-8.181-4.555C35.378,53.047,35.397,53.028,35.435,52.987z"/>
				<path fill="#999999" d="M33.85,54.848c2.653,2.824,4.601,3.901,8.964,5.401c-0.53,2.056-0.778,3.126-1.271,5.403
					c-4.942-1.949-7.162-3.348-10.211-7.107C32.246,56.969,32.749,56.24,33.85,54.848z"/>
				<path fill="#FFFFFF" d="M31.467,58.314c3.03,3.703,5.236,5.084,10.149,7.005c-0.029,0.133-0.044,0.199-0.073,0.333
					c-4.942-1.949-7.162-3.348-10.211-7.107C31.386,58.453,31.413,58.406,31.467,58.314z"/>
				<path fill="#999999" d="M29.261,62.829c3.973,5.736,7.117,7.682,13.95,10.084c1.543,2.275,2.384,3.434,4.112,5.76
					c-9.423-2.3-14.008-4.688-19.099-12.88C28.604,64.548,28.812,63.958,29.261,62.829z"/>
				<path fill="#FFFFFF" d="M47.323,78.673c-0.179-0.252-0.268-0.378-0.445-0.63c-9.148-2.33-13.569-4.678-18.547-12.589
					c-0.042,0.135-0.064,0.202-0.106,0.339C33.315,73.984,37.9,76.373,47.323,78.673z"/>
				<path fill="#999999" d="M43.049,62.916c6.765,2.276,11.014,2.63,18.836,1.927c1.884,1.21,2.867,1.8,4.832,2.94
					c-9.812,1.707-15.597,1.481-24.32-1.691C42.655,64.782,42.784,64.149,43.049,62.916z"/>
				<path fill="#FFFFFF" d="M66.717,67.783c-0.19-0.11-0.284-0.166-0.475-0.277c-9.627,1.593-15.253,1.349-23.783-1.73
					c-0.025,0.126-0.038,0.189-0.063,0.316C51.12,69.265,56.905,69.49,66.717,67.783z"/>
				<path fill="#999999" d="M35.144,53.308c7.475,6.059,17.551,7.363,26.848,6.248c4.497,2.81,7.201,4.113,12.076,6.425
					c-2.26,0.798-3.453,1.129-5.887,1.649c-3.9-2.137-5.901-3.297-9.376-5.706c-11.865,0.474-18.708-0.979-24.748-7.337
					C34.479,54.066,34.696,53.81,35.144,53.308z"/>
				<path fill="#FFFFFF" d="M58.806,61.924c3.475,2.409,5.476,3.569,9.376,5.706c2.434-0.521,3.627-0.852,5.887-1.649
					c-0.238-0.113-0.359-0.169-0.599-0.283c-2.077,0.704-3.163,0.999-5.382,1.472c-3.904-2.117-5.9-3.268-9.354-5.659
					c-11.745,0.467-18.512-0.971-24.471-7.175c-0.083,0.1-0.125,0.151-0.206,0.252C40.098,60.944,46.941,62.398,58.806,61.924z"/>
				<path fill="#FCEE21" d="M47.701,54.634c-0.089,0.496,0.379,1.01,1.06,1.121s1.276-0.234,1.313-0.742s-0.457-0.98-1.085-1.079
					S47.79,54.138,47.701,54.634z"/>
				<path fill="#FCEE21" d="M48.14,52.33c-0.098,0.483,0.309,0.97,0.921,1.065s1.155-0.246,1.198-0.74s-0.384-0.948-0.941-1.033
					S48.238,51.847,48.14,52.33z"/>
				<linearGradient id="SVGID_17_" gradientUnits="userSpaceOnUse" x1="52.499" y1="55.5352" x2="67.0625" y2="55.5352">
					<stop  offset="0" style="stop-color:#999999"/>
					<stop  offset="1" style="stop-color:#FCEE21"/>
				</linearGradient>
				<path fill="url(#SVGID_17_)" d="M66.908,54.718c-5.544,1.399-8.752,1.581-14.409,1.155c0.003,0.11,0.005,0.165,0.009,0.275
					c5.719,0.431,8.958,0.243,14.555-1.177C67.001,54.87,66.97,54.819,66.908,54.718z"/>
				<linearGradient id="SVGID_18_" gradientUnits="userSpaceOnUse" x1="38.0698" y1="53.0713" x2="41.6948" y2="53.0713">
					<stop  offset="0" style="stop-color:#999999"/>
					<stop  offset="1" style="stop-color:#FCEE21"/>
				</linearGradient>
				<path fill="url(#SVGID_18_)" d="M41.695,53.886c-1.569-0.648-2.277-1.023-3.465-1.862c-0.064,0.076-0.096,0.115-0.16,0.191
					c1.205,0.859,1.924,1.242,3.513,1.904C41.628,54.026,41.649,53.979,41.695,53.886z"/>
				<linearGradient id="SVGID_19_" gradientUnits="userSpaceOnUse" x1="38.4805" y1="52.5322" x2="41.9912" y2="52.5322">
					<stop  offset="0" style="stop-color:#999999"/>
					<stop  offset="1" style="stop-color:#FCEE21"/>
				</linearGradient>
				<path fill="url(#SVGID_19_)" d="M41.991,53.292c-1.519-0.613-2.203-0.966-3.347-1.752c-0.065,0.075-0.099,0.112-0.164,0.188
					c1.161,0.807,1.856,1.169,3.395,1.796C41.921,53.431,41.945,53.385,41.991,53.292z"/>
				<linearGradient id="SVGID_20_" gradientUnits="userSpaceOnUse" x1="38.8989" y1="51.9951" x2="42.292" y2="51.9951">
					<stop  offset="0" style="stop-color:#999999"/>
					<stop  offset="1" style="stop-color:#FCEE21"/>
				</linearGradient>
				<path fill="url(#SVGID_20_)" d="M42.292,52.702c-1.467-0.578-2.127-0.909-3.226-1.645c-0.066,0.075-0.101,0.114-0.167,0.189
					c1.117,0.755,1.787,1.095,3.274,1.686C42.22,52.841,42.245,52.794,42.292,52.702z"/>
				<linearGradient id="SVGID_21_" gradientUnits="userSpaceOnUse" x1="39.3267" y1="51.4629" x2="42.5986" y2="51.4629">
					<stop  offset="0" style="stop-color:#999999"/>
					<stop  offset="1" style="stop-color:#FCEE21"/>
				</linearGradient>
				<path fill="url(#SVGID_21_)" d="M42.599,52.118c-1.415-0.543-2.05-0.854-3.103-1.538c-0.068,0.074-0.102,0.112-0.169,0.187
					c1.071,0.704,1.717,1.023,3.152,1.58C42.527,52.255,42.55,52.209,42.599,52.118z"/>
				<linearGradient id="SVGID_22_" gradientUnits="userSpaceOnUse" x1="39.7622" y1="50.9336" x2="42.9121" y2="50.9336">
					<stop  offset="0" style="stop-color:#999999"/>
					<stop  offset="1" style="stop-color:#FCEE21"/>
				</linearGradient>
				<path fill="url(#SVGID_22_)" d="M42.912,51.537c-1.362-0.509-1.972-0.799-2.979-1.432c-0.069,0.074-0.103,0.111-0.171,0.186
					c1.024,0.653,1.644,0.95,3.026,1.472C42.838,51.671,42.863,51.627,42.912,51.537z"/>
				<linearGradient id="SVGID_23_" gradientUnits="userSpaceOnUse" x1="52.4746" y1="54.7676" x2="66.6074" y2="54.7676">
					<stop  offset="0" style="stop-color:#999999"/>
					<stop  offset="1" style="stop-color:#FCEE21"/>
				</linearGradient>
				<path fill="url(#SVGID_23_)" d="M66.453,53.989c-5.388,1.337-8.502,1.497-13.979,1.083c0.003,0.109,0.005,0.163,0.009,0.272
					c5.539,0.417,8.683,0.25,14.124-1.108C66.545,54.137,66.516,54.088,66.453,53.989z"/>
				<linearGradient id="SVGID_24_" gradientUnits="userSpaceOnUse" x1="52.4473" y1="53.8418" x2="66.043" y2="53.8418">
					<stop  offset="0" style="stop-color:#999999"/>
					<stop  offset="1" style="stop-color:#000000"/>
				</linearGradient>
				<path fill="url(#SVGID_24_)" d="M65.885,53.111c-5.192,1.259-8.187,1.392-13.438,0.993c0.003,0.107,0.005,0.161,0.008,0.269
					c5.314,0.402,8.341,0.263,13.588-1.019C65.979,53.256,65.948,53.208,65.885,53.111z"/>
				<linearGradient id="SVGID_25_" gradientUnits="userSpaceOnUse" x1="52.4307" y1="53.2339" x2="65.6621" y2="53.2339">
					<stop  offset="0" style="stop-color:#999999"/>
					<stop  offset="1" style="stop-color:#000000"/>
				</linearGradient>
				<path fill="url(#SVGID_25_)" d="M65.5,52.535c-5.06,1.206-7.972,1.32-13.069,0.929c0.003,0.106,0.003,0.161,0.006,0.268
					c5.162,0.394,8.11,0.272,13.226-0.956C65.598,52.68,65.564,52.631,65.5,52.535z"/>
				<linearGradient id="SVGID_26_" gradientUnits="userSpaceOnUse" x1="52.415" y1="52.6318" x2="65.2764" y2="52.6318">
					<stop  offset="0" style="stop-color:#999999"/>
					<stop  offset="1" style="stop-color:#000000"/>
				</linearGradient>
				<path fill="url(#SVGID_26_)" d="M65.112,51.967c-4.924,1.152-7.755,1.246-12.697,0.863c0.002,0.106,0.003,0.158,0.006,0.264
					c5.008,0.386,7.875,0.284,12.855-0.891C65.212,52.108,65.178,52.062,65.112,51.967z"/>
				<linearGradient id="SVGID_27_" gradientUnits="userSpaceOnUse" x1="63.709" y1="66.5566" x2="81.7793" y2="66.5566">
					<stop  offset="0" style="stop-color:#999999"/>
					<stop  offset="1" style="stop-color:#000000"/>
				</linearGradient>
				<path fill="url(#SVGID_27_)" d="M81.672,63.499c-5.956,3.649-10.005,4.863-17.963,5.763c0.017,0.14,0.023,0.211,0.039,0.352
					c7.993-0.904,12.059-2.129,18.031-5.8C81.736,63.688,81.717,63.624,81.672,63.499z"/>
				<linearGradient id="SVGID_28_" gradientUnits="userSpaceOnUse" x1="63.8008" y1="67.3574" x2="82.0313" y2="67.3574">
					<stop  offset="0" style="stop-color:#999999"/>
					<stop  offset="1" style="stop-color:#000000"/>
				</linearGradient>
				<path fill="url(#SVGID_28_)" d="M81.929,64.254c-5.996,3.701-10.087,4.94-18.128,5.851c0.015,0.142,0.023,0.213,0.038,0.355
					c8.074-0.915,12.182-2.163,18.192-5.886C81.991,64.445,81.97,64.382,81.929,64.254z"/>
				<path fill="#333333" d="M79.177,58.001c-0.191-0.301-0.684-0.345-1.104-0.115l0,0c-0.42,0.23-0.617,0.655-0.435,0.964l0,0
					c0.183,0.309,0.682,0.378,1.111,0.14l0,0C79.18,58.752,79.368,58.302,79.177,58.001L79.177,58.001z"/>
				<path fill="#FBB03B" d="M78.914,58.155c-0.123-0.196-0.444-0.227-0.718-0.077l0,0c-0.273,0.15-0.4,0.429-0.281,0.628l0,0
					c0.119,0.199,0.442,0.241,0.72,0.088l0,0C78.912,58.641,79.037,58.351,78.914,58.155L78.914,58.155z"/>
				<path fill="#333333" d="M77.075,59.134c-0.179-0.311-0.684-0.386-1.132-0.182l0,0c-0.448,0.204-0.681,0.616-0.512,0.934l0,0
					c0.169,0.318,0.683,0.417,1.142,0.207l0,0C77.032,59.881,77.254,59.445,77.075,59.134L77.075,59.134z"/>
				<path fill="#FBB03B" d="M76.791,59.271c-0.115-0.202-0.442-0.253-0.734-0.12l0,0c-0.292,0.133-0.441,0.402-0.331,0.607l0,0
					c0.11,0.205,0.443,0.267,0.739,0.131l0,0C76.761,59.754,76.906,59.474,76.791,59.271L76.791,59.271z"/>
				<path fill="#333333" d="M74.833,60.135c-0.165-0.32-0.678-0.424-1.15-0.246l0,0c-0.473,0.178-0.736,0.575-0.583,0.902l0,0
					c0.153,0.327,0.676,0.455,1.16,0.271l0,0C74.744,60.877,74.998,60.455,74.833,60.135L74.833,60.135z"/>
				<path fill="#FBB03B" d="M74.531,60.254c-0.105-0.208-0.439-0.276-0.747-0.161l0,0c-0.308,0.116-0.474,0.375-0.373,0.586l0,0
					c0.101,0.211,0.437,0.292,0.749,0.173l0,0C74.473,60.734,74.637,60.463,74.531,60.254L74.531,60.254z"/>
				<path fill="#333333" d="M72.472,61.004c-0.149-0.329-0.67-0.459-1.163-0.309l0,0c-0.493,0.151-0.781,0.532-0.645,0.866l0,0
					c0.137,0.334,0.659,0.492,1.164,0.335l0,0C72.333,61.74,72.621,61.333,72.472,61.004L72.472,61.004z"/>
				<path fill="#FBB03B" d="M72.156,61.108c-0.096-0.214-0.43-0.303-0.751-0.205l0,0c-0.321,0.099-0.51,0.35-0.42,0.566l0,0
					c0.09,0.216,0.429,0.314,0.755,0.213l0,0C72.066,61.582,72.252,61.322,72.156,61.108L72.156,61.108z"/>
				<path fill="#333333" d="M56.899,63.424c-0.036-0.354-0.503-0.637-1.036-0.647l0,0c-0.533-0.01-0.945,0.256-0.923,0.608l0,0
					c0.021,0.353,0.479,0.662,1.027,0.673l0,0C56.516,64.069,56.936,63.777,56.899,63.424L56.899,63.424z"/>
				<path fill="#FBB03B" d="M56.552,63.423c-0.021-0.229-0.321-0.415-0.669-0.422l0,0c-0.347-0.007-0.615,0.168-0.6,0.396l0,0
					c0.016,0.229,0.314,0.426,0.668,0.433l0,0C56.305,63.837,56.573,63.652,56.552,63.423L56.552,63.423z"/>
				<path fill="#333333" d="M54.25,63.354c-0.016-0.352-0.459-0.656-0.986-0.694l0,0c-0.526-0.038-0.95,0.204-0.949,0.554l0,0
					c0.001,0.35,0.437,0.679,0.978,0.719l0,0C53.834,63.972,54.266,63.706,54.25,63.354L54.25,63.354z"/>
				<path fill="#FBB03B" d="M53.906,63.335c-0.009-0.228-0.294-0.427-0.637-0.452l0,0c-0.343-0.024-0.618,0.134-0.616,0.361l0,0
					c0.002,0.227,0.286,0.437,0.635,0.462l0,0C53.638,63.732,53.915,63.563,53.906,63.335L53.906,63.335z"/>
				<path fill="#333333" d="M51.636,63.147c0.004-0.349-0.414-0.672-0.93-0.737l0,0c-0.516-0.064-0.946,0.151-0.965,0.496l0,0
					c-0.02,0.345,0.391,0.693,0.921,0.762l0,0C51.193,63.736,51.631,63.496,51.636,63.147L51.636,63.147z"/>
				<path fill="#FBB03B" d="M51.299,63.11c0.005-0.226-0.266-0.438-0.602-0.48l0,0c-0.336-0.042-0.614,0.1-0.625,0.324l0,0
					c-0.011,0.224,0.255,0.447,0.598,0.491l0,0C51.012,63.488,51.294,63.335,51.299,63.11L51.299,63.11z"/>
				<path fill="#333333" d="M49.08,62.802c0.025-0.343-0.368-0.684-0.869-0.776l0,0c-0.501-0.092-0.934,0.095-0.974,0.432l0,0
					c-0.04,0.337,0.34,0.704,0.855,0.802l0,0C48.608,63.357,49.055,63.146,49.08,62.802L49.08,62.802z"/>
				<path fill="#FBB03B" d="M48.75,62.747c0.018-0.222-0.233-0.446-0.56-0.506l0,0c-0.326-0.06-0.608,0.064-0.632,0.284l0,0
					c-0.024,0.219,0.223,0.454,0.555,0.517l0,0C48.446,63.104,48.732,62.969,48.75,62.747L48.75,62.747z"/>
				<path fill="#333333" d="M46.596,62.318c0.045-0.335-0.315-0.691-0.798-0.811l0,0c-0.482-0.12-0.915,0.036-0.975,0.364l0,0
					c-0.06,0.328,0.287,0.71,0.784,0.837l0,0C46.104,62.836,46.55,62.654,46.596,62.318L46.596,62.318z"/>
				<path fill="#FBB03B" d="M46.28,62.245c0.031-0.216-0.201-0.45-0.516-0.528l0,0c-0.314-0.078-0.597,0.026-0.634,0.24l0,0
					c-0.037,0.213,0.19,0.458,0.511,0.539l0,0C45.961,62.578,46.249,62.461,46.28,62.245L46.28,62.245z"/>
			</g>
		</g>
	</g>
	<g>
		<radialGradient id="SVGID_29_" cx="55.502" cy="40.7813" r="13.152" gradientUnits="userSpaceOnUse">
			<stop  offset="0" style="stop-color:#FFFFFF"/>
			<stop  offset="1" style="stop-color:#00C7FF"/>
		</radialGradient>
		<polygon fill="url(#SVGID_29_)" points="55.326,51.385 40.22,47.458 55.471,30.178 70.783,47.458 		"/>
		<path d="M70.174,47.633l0.703-0.198L55.471,30.178l-0.068,21.207l8.573-2.188l0.01,0.022l0.656-0.188l-0.002-0.004l5.513-1.408
			L70.174,47.633z M61.537,43.727l-0.799-0.873l0.229-0.405L61.537,43.727z M61.486,42.308l0.363,0.222l0.07,0.702L61.486,42.308z
			 M61.252,41.809l-5.063-10.402l5.121,5.806l0.486,4.797l-0.593-0.354L61.252,41.809z M60.738,41.934l-0.332,0.558l-4.376-4.778
			l-0.296-6.306L60.738,41.934z M56.012,45.063l0.005,0.094l2.192,1.022L56,49.889L56.012,45.063z M56.013,44.576l0.017-6.272
			l4.189,4.503l-1.759,2.951L56.013,44.576z M60.559,43.171l1.403,1.509l1.574,3.531l-4.581-2.213L60.559,43.171z M62.248,43.932
			l-0.106-1.222l2.913,1.786l-0.892,3.517L62.248,43.932z M62.096,42.189l-0.395-4.516l3.917,4.604l-0.444,1.75L62.096,42.189z
			 M65.937,42.651l3.169,3.726l-3.583-2.141L65.937,42.651z M56.244,50.781l2.475-4.365l5.07,2.363l0.018,0.038L56.244,50.781z
			 M64.461,48.647l-0.058-0.124l0.997-3.816l4.236,2.597L64.461,48.647z"/>
		<path d="M40.671,47.619l5.514,1.408l-0.002,0.004l0.656,0.188l0.01-0.022l8.572,2.188l0.05-21.207L39.948,47.435l0.702,0.198
			L40.671,47.619z M49.857,42.449l0.229,0.405l-0.8,0.873L49.857,42.449z M48.904,43.232l0.071-0.702l0.362-0.222L48.904,43.232z
			 M49.621,41.656l-0.593,0.354l0.485-4.797l5.121-5.806l-5.063,10.402L49.621,41.656z M55.089,31.408l-0.295,6.306l-4.376,4.778
			l-0.333-0.558L55.089,31.408z M54.825,49.889l-2.21-3.71l2.193-1.022l0.004-0.094L54.825,49.889z M52.365,45.758l-1.76-2.951
			l4.19-4.503l0.017,6.272L52.365,45.758z M51.869,45.998l-4.58,2.213l1.574-3.531l1.403-1.509L51.869,45.998z M46.662,48.012
			l-0.893-3.517l2.914-1.786l-0.107,1.222L46.662,48.012z M45.65,44.027l-0.443-1.75l3.916-4.604l-0.395,4.516L45.65,44.027z
			 M45.302,44.236l-3.584,2.141l3.17-3.726L45.302,44.236z M47.017,48.817l0.018-0.038l5.07-2.363l2.475,4.365L47.017,48.817z
			 M41.187,47.304l4.237-2.597l0.997,3.816l-0.059,0.124L41.187,47.304z"/>
	</g>
	<linearGradient id="SVGID_30_" gradientUnits="userSpaceOnUse" x1="59.4043" y1="39.6509" x2="88.6123" y2="24.1345">
		<stop  offset="0" style="stop-color:#FFFFFF"/>
		<stop  offset="1" style="stop-color:#FFFFFF;stop-opacity:0"/>
	</linearGradient>
	<polygon fill="url(#SVGID_30_)" points="58.658,40.376 82.719,19.231 92.636,30.031 60.078,42.054 	"/>
	<linearGradient id="SVGID_31_" gradientUnits="userSpaceOnUse" x1="67.5322" y1="57.5908" x2="105.1876" y2="43.9378">
		<stop  offset="0" style="stop-color:#FFFFFF"/>
		<stop  offset="1" style="stop-color:#FFFFFF;stop-opacity:0"/>
	</linearGradient>
	<polygon fill="url(#SVGID_31_)" points="63.869,47.281 107.136,59.698 101.803,28.698 63.057,45.531 	"/>
	<linearGradient id="SVGID_32_" gradientUnits="userSpaceOnUse" x1="56.2295" y1="37.6406" x2="70.7295" y2="17.4741">
		<stop  offset="0" style="stop-color:#FFFFFF"/>
		<stop  offset="1" style="stop-color:#FFFFFF;stop-opacity:0"/>
	</linearGradient>
	<polygon fill="url(#SVGID_32_)" points="56.03,37.714 65.803,12.365 77.879,19.492 57.749,39.233 	"/>
	<linearGradient id="SVGID_33_" gradientUnits="userSpaceOnUse" x1="49.9248" y1="40.0005" x2="24.5971" y2="22.914">
		<stop  offset="0" style="stop-color:#FFFFFF"/>
		<stop  offset="1" style="stop-color:#FFFFFF;stop-opacity:0"/>
	</linearGradient>
	<polygon fill="url(#SVGID_33_)" points="48.744,41.594 21.469,26.031 29.802,21.198 48.931,39.094 	"/>
	<linearGradient id="SVGID_34_" gradientUnits="userSpaceOnUse" x1="40.9331" y1="61.1465" x2="3.888" y2="46.5599">
		<stop  offset="0" style="stop-color:#FFFFFF"/>
		<stop  offset="1" style="stop-color:#FFFFFF;stop-opacity:0"/>
	</linearGradient>
	<polygon fill="url(#SVGID_34_)" points="46.806,48.031 3.636,65.198 8.302,30.865 47.943,45.169 	"/>
	<linearGradient id="SVGID_35_" gradientUnits="userSpaceOnUse" x1="50.3384" y1="39.0469" x2="42.2919" y2="16.4775">
		<stop  offset="0" style="stop-color:#FFFFFF"/>
		<stop  offset="1" style="stop-color:#FFFFFF;stop-opacity:0"/>
	</linearGradient>
	<polygon fill="url(#SVGID_35_)" points="50.869,39.094 35.297,19.362 48.136,10.365 52.716,35.234 	"/>
	<linearGradient id="SVGID_36_" gradientUnits="userSpaceOnUse" x1="55.8799" y1="100.9121" x2="55.8799" y2="82.699">
		<stop  offset="0" style="stop-color:#000000"/>
		<stop  offset="1" style="stop-color:#000000;stop-opacity:0"/>
	</linearGradient>
	<path fill="url(#SVGID_36_)" d="M55.943,101.299c-10.063-0.098-28.258-7.096-29.289-26.709c0,0,8.645,8.645,29.16,8
		c22.322-0.701,29.292-7.613,29.292-7.613S82.911,101.557,55.943,101.299z"/>
	<linearGradient id="SVGID_37_" gradientUnits="userSpaceOnUse" x1="56.8857" y1="49.229" x2="90.5234" y2="89.9482">
		<stop  offset="0" style="stop-color:#FFFFFF"/>
		<stop  offset="1" style="stop-color:#FFFFFF;stop-opacity:0"/>
	</linearGradient>
	<polygon fill="url(#SVGID_37_)" points="57.619,48.448 83.636,110.031 109.803,84.865 58.719,46.416 	"/>
	<linearGradient id="SVGID_38_" gradientUnits="userSpaceOnUse" x1="53.8867" y1="48.8105" x2="34.1007" y2="110.6731">
		<stop  offset="0" style="stop-color:#FFFFFF"/>
		<stop  offset="1" style="stop-color:#FFFFFF;stop-opacity:0"/>
	</linearGradient>
	<polygon fill="url(#SVGID_38_)" points="52.105,46.416 21.636,102.365 47.136,117.198 53.286,48.781 	"/>
</g>
<g>
	<path fill="#666666" d="M55.42,10.832l46.099,26.599v53.201l-46.099,26.6L9.319,90.631v-53.2L55.42,10.832z M110.92,32.032
		l-55.5-32l-55.401,32v63.999l55.401,32l55.5-31.999V32.032z"/>
	<g>
		<g opacity="0.13">
			<g>
				<path d="M99.119,89.231l-43.7,25.2l-43.6-25.201v-50.4l43.6-25.2l43.7,25.2V89.231z M101.42,90.631V37.43l-46-26.6l-46,26.6
					v53.101l46,26.6L101.42,90.631z"/>
			</g>
		</g>
	</g>
</g>
</svg>
