<svg xmlns="http://www.w3.org/2000/svg" width="730.464" height="842.957" viewBox="56.053 173.387 730.464 842.957"><path fill="#4065B0" d="M759.925 669.404c-.341-3.9-.653-7.803-.921-11.707-1.817-26.518-1.323-53.164-.526-79.807-.123-13.232-.127-26.466.097-39.72.392-23.314 1.003-46.625 1.253-69.94l-34.594-59.954c-17.324-11.883-33.715-25.07-49.839-38.615-29.233-16.282-59.044-31.59-87.397-49.39-25.727-16.151-51.019-33.028-74.848-51.897-9.854-7.802-19.75-15.824-28.956-24.458a452.758 452.758 0 0 1-6.114-4.699h-91.357c-.291 2.307-1.528 4.493-3.987 5.898-20.672 11.813-42.415 21.52-64.178 31.115-21.756 9.592-43.063 19.725-64.193 30.614a1379.884 1379.884 0 0 0-27.186 14.401c-30.475 19.819-60.539 40.319-93.021 56.701l-37.507 65.002c.731 10.354-1.121 20.75-2.583 31.029-.786 5.523-1.368 11.086-1.85 16.663.919 64.317.007 128.574-.149 192.891-.05 20.639.075 41.258.722 61.865l17.52 30.364c6.84 3.486 13.594 7.133 20.294 10.876 3.882-3.066 7.966-2.921 11.851.129.564.443 1.137.875 1.704 1.315.192.118.383.239.576.355a9.045 9.045 0 0 1 2.029 1.656c10.039 7.682 20.397 14.924 30.963 21.862 2.336-1.643 5.452-2.095 8.674-.186 27.748 16.44 55.603 32.751 82.802 50.095 2.264-1.482 5.285-1.846 8.532-.095 15.757 8.498 29.406 20.238 45.079 28.904 15.717 8.689 32.044 16.296 46.921 26.43a8.374 8.374 0 0 1 1.892 1.776c3.143 1.639 6.287 3.274 9.441 4.89 5.602 2.869 4.95 10.001 1.272 13.689a964.305 964.305 0 0 1 7.502 5.523c5.662 4.22 11.28 8.5 16.854 12.835h80.394c10.935-7.738 22.146-15.119 33.445-22.363.406-1.039 1.029-1.975 1.897-2.688 22.317-18.351 47.286-32.611 72.854-45.784 30.836-20.591 62.783-40.855 98.202-50.924 2.037-.99 4.083-1.961 6.136-2.919l61.494-106.574c-.754-18.362-.999-36.761-1.194-55.158z"/><linearGradient id="a" gradientUnits="userSpaceOnUse" x1="47.759" y1="1190.486" x2="47.759" y2="1145.284" gradientTransform="matrix(6.5773 0 0 -6.5773 112.466 8262.11)"><stop offset="0" stop-color="#8bb8ff"/><stop offset="1" stop-color="#734757"/></linearGradient><path fill="url(#a)" d="M759.925 669.404c-.341-3.9-.653-7.803-.921-11.707-1.817-26.518-1.323-53.164-.526-79.807-.123-13.232-.127-26.466.097-39.72.392-23.333 1.004-46.664 1.254-69.999l-21.776-37.757H103.837l-7.191 12.469c.744 10.375-1.114 20.794-2.579 31.094-.786 5.523-1.368 11.086-1.85 16.663.919 64.317.007 128.574-.149 192.891-.05 20.639.075 41.258.722 61.865l17.52 30.364c6.84 3.486 13.594 7.133 20.294 10.876 3.882-3.066 7.966-2.921 11.851.129.564.443 1.137.875 1.704 1.315.192.118.383.239.576.355a9.045 9.045 0 0 1 2.029 1.656c10.039 7.682 20.397 14.924 30.963 21.862 2.336-1.643 5.452-2.095 8.674-.186 27.748 16.44 55.603 32.751 82.802 50.095 2.264-1.482 5.285-1.846 8.532-.095 15.757 8.498 29.406 20.238 45.079 28.904 15.717 8.689 32.044 16.296 46.921 26.43a8.374 8.374 0 0 1 1.892 1.776c3.143 1.639 6.287 3.274 9.441 4.89 5.602 2.869 4.95 10.001 1.272 13.689a964.305 964.305 0 0 1 7.502 5.523c5.662 4.22 11.28 8.5 16.854 12.835h80.394c10.935-7.738 22.146-15.119 33.445-22.363.406-1.039 1.029-1.975 1.897-2.688 22.317-18.351 47.286-32.611 72.854-45.784 30.836-20.591 62.783-40.855 98.202-50.924 2.037-.99 4.083-1.961 6.136-2.919l61.494-106.574c-.753-18.362-.998-36.761-1.193-55.158z"/><linearGradient id="b" gradientUnits="userSpaceOnUse" x1="47.041" y1="1207.038" x2="47.041" y2="1192.923" gradientTransform="matrix(6.5773 0 0 -6.5773 112.466 8262.11)"><stop offset="0" stop-color="#8bb8ff"/><stop offset="1" stop-color="#363636"/></linearGradient><path fill="url(#b)" d="M674.85 369.359c-11.501-6.399-23.088-12.654-34.64-18.97-4.175.146-8.35.909-12.524 2.301-3.108-9.327-14.768-16.321-29.534-16.321h-3.108c-5.441-5.441-14.768-9.328-25.648-9.328-3.109 0-5.441 0-7.773.778-1.554-.778-3.108-.778-5.44-.778-2.332-10.104-14.768-18.653-30.312-18.653-3.108 0-6.218.778-9.326.778-5.441-5.441-14.768-9.327-25.648-9.327-8.55 0-16.322 2.331-21.762 6.218-3.887-6.995-13.214-11.659-24.095-12.437-2.332-13.99-18.652-24.093-38.861-24.093-21.762 0-38.86 12.436-38.86 27.202v2.333c-6.219 2.332-11.659 6.217-15.545 10.881-5.44-1.555-11.658-3.109-17.875-3.109-11.659 0-22.54 3.887-29.535 9.327-5.44-6.218-13.99-10.104-24.093-10.104-13.991 0-25.648 7.772-29.535 19.43-14.768 1.555-25.648 9.328-26.425 20.209-13.213 2.331-22.54 10.881-22.54 20.207v.778c-34.975 1.555-46.633 17.876-23.316 17.876h486.542c17.875 0 11.657-10.882 10.103-14.768-.082-.146-.17-.284-.25-.43z"/><linearGradient id="c" gradientUnits="userSpaceOnUse" x1="16.497" y1="1168.978" x2="16.497" y2="1157.472" gradientTransform="matrix(6.5773 0 0 -6.5773 112.466 8262.11)"><stop offset="0" stop-color="#b3b8ff"/><stop offset="1" stop-color="#363636"/></linearGradient><path fill="url(#c)" d="M347.886 611.506c-3.887-9.326-9.327-16.321-19.431-16.321-3.109 0-5.44.777-7.772 1.554-1.555-7.771-8.55-13.211-17.099-13.211h-2.332c-3.109-4.665-8.549-7.773-14.768-7.773-1.553 0-3.108 0-4.662.778-.778 0-1.555-.778-3.109-.778-.778-8.549-8.55-14.766-17.1-14.766-1.554 0-3.885 0-5.439.776-3.109-4.663-8.55-7.772-13.99-7.772-4.665 0-9.328 2.332-12.437 5.441-2.331-5.441-7.772-9.327-13.99-10.104-.777-10.881-10.881-20.207-21.762-20.207-12.435 0-21.762 10.103-21.762 22.54v2.331c-3.887 2.332-6.996 5.441-8.55 9.327-3.109-1.555-6.218-2.331-10.104-2.331-6.994 0-13.212 3.108-17.099 7.772-3.109-5.441-7.772-8.55-13.99-8.55-7.772 0-14.768 6.217-16.322 15.544-6.37.58-11.44 4.612-13.615 10.165-.051 12.416-.123 24.831-.196 37.247h250.086c10.106-.003 6.997-9.331 5.443-11.662z"/><linearGradient id="d" gradientUnits="userSpaceOnUse" x1="78.719" y1="1163.957" x2="78.719" y2="1152.451" gradientTransform="matrix(6.5773 0 0 -6.5773 112.466 8262.11)"><stop offset="0" stop-color="#c9b8ff"/><stop offset="1" stop-color="#363636"/></linearGradient><path fill="url(#d)" d="M758.01 636.24c-3.146-4.652-7.392-7.636-12.964-7.636-2.331 0-4.663.778-6.994 1.555-1.555-7.772-7.772-13.212-14.768-13.212h-1.555c-3.108-4.663-7.771-7.773-13.213-7.773-1.555 0-3.109 0-3.886.778-.777 0-1.555-.778-2.332-.778-.776-8.549-7.772-14.766-15.544-14.766-1.555 0-3.109 0-4.664.777-3.108-4.664-7.771-7.772-13.213-7.772-4.663 0-8.549 2.333-10.881 5.441-2.331-5.441-6.995-9.327-12.436-10.104-.777-10.881-9.326-20.208-20.207-20.208-10.882 0-20.209 10.103-20.209 22.54v2.331c-3.108 2.333-6.217 5.441-7.771 9.326-3.109-1.554-6.218-2.331-9.327-2.331-6.218 0-11.658 3.109-15.544 7.772-3.108-5.441-6.995-8.55-12.436-8.55-6.995 0-13.213 6.218-14.768 15.544-7.771.778-13.213 7.773-13.213 16.322-6.994 1.555-11.657 8.55-11.657 17.099v.777c-18.654 0-24.872 13.214-12.437 13.214h248.711c.839 0 1.574-.078 2.223-.217a529.916 529.916 0 0 1-.915-20.129z"/><path d="M649.448 651.144c0-128.241-104.147-231.612-231.612-231.612s-232.39 103.371-232.39 231.612 104.148 231.613 231.612 231.613c127.465.001 232.39-104.148 232.39-231.613z"/><path fill="#999" d="M603.592 533.006c-64.509-102.593-200.524-133.682-303.117-69.172-102.593 64.509-133.682 199.746-69.173 303.116 64.51 102.595 199.747 133.683 303.117 69.174 102.593-64.511 133.683-199.747 69.173-303.118z"/><path fill="#333" d="M534.419 836.124c-67.619 36.529-148.45 43.524-217.623 7.771-85.494-46.633-136.79-145.341-112.697-242.493 111.921 145.341 287.573 115.807 432.137 50.52-14.768 83.94-24.094 136.013-101.817 184.202z"/><path fill="#999" d="M494.781 811.252c-48.188 10.104-73.061 11.659-118.139 6.995-9.326-5.439-13.99-8.548-23.317-15.544 54.406 9.326 85.495 9.326 144.564-2.332-1.554 4.663-1.554 6.995-3.108 10.881z"/><path fill="#FFF" d="M497.113 802.703c0-.777 0-1.555.777-2.332-59.069 11.658-89.381 12.437-144.563 2.332 2.331 1.555 3.109 2.331 5.44 3.886 52.073 8.549 81.608 7.773 138.346-3.886z"/><path fill="#999" d="M473.018 860.994c-69.95 17.099-111.919 10.882-155.444-16.32-18.653-8.55-28.757-15.545-46.634-33.422 66.064 38.861 145.341 43.525 218.4 24.872-5.441 10.102-8.55 14.767-16.322 24.87z"/><path fill="#FFF" d="M487.785 836.9c-72.282 18.654-150.781 13.991-216.067-24.093l-1.554-1.556c66.063 38.861 145.34 43.525 218.399 24.872l-.778.777z"/><path fill="#999" d="M489.34 833.792c-74.613 18.654-155.444 13.99-222.285-26.426-6.218-6.218-9.327-9.326-14.768-16.321 79.276 50.519 152.335 42.747 240.939 33.42-1.554 4.664-2.331 6.217-3.886 9.327z"/><path fill="#FFF" d="M492.449 826.019c-87.827 9.326-160.108 17.099-238.608-32.643-.776-.778-.776-.778-1.554-1.555 79.276 50.52 152.335 42.747 240.939 33.421-.777.001-.777.777-.777.777z"/><path fill="#999" d="M622.245 733.53c-139.123 55.184-297.676 80.054-418.146-31.866-2.331-9.327-3.885-13.99-4.663-24.095 120.469 121.247 284.463 96.377 427.474 39.64-1.555 6.994-2.333 10.103-4.665 16.321z"/><path fill="#FFF" d="M626.909 719.54c-143.011 56.737-306.227 81.608-426.696-38.861 0-1.554 0-1.554-.778-3.109 120.469 121.247 284.463 96.377 427.474 39.64v2.33z"/><path fill="#999" d="M344.777 826.797c-43.525-8.55-64.509-16.321-96.375-39.638-5.441-6.995-8.55-10.882-13.991-18.654 28.757 22.54 46.634 31.09 85.494 41.194 10.882 8.548 15.545 11.657 24.872 17.098z"/><path fill="#999" d="M317.574 807.366c-38.86-10.881-56.737-19.431-85.494-42.747-4.663-7.771-7.772-11.658-11.659-20.208 24.872 20.985 39.638 29.535 71.504 41.97 10.881 8.55 15.544 13.213 25.649 20.985z"/><path fill="#FFF" d="M314.465 806.589c1.555 0 1.555.777 3.109.777-10.104-7.771-15.544-11.658-25.648-20.985-31.866-12.435-46.633-20.984-71.504-41.97.778 1.554.778 2.332 1.554 3.887 24.872 20.207 39.638 28.757 71.504 41.192 8.55 6.995 13.213 10.104 20.985 17.099z"/><path fill="#999" d="M288.817 782.496c-31.088-12.437-45.856-20.985-69.95-41.971-6.217-13.213-9.326-19.431-13.213-33.421 17.1 16.322 27.203 23.316 48.188 35.752 13.213 17.876 20.208 25.649 34.975 39.64z"/><path fill="#FFF" d="M287.262 782.496c.776 0 1.554.776 2.332.776-14.768-13.989-21.763-21.762-34.975-39.639-20.985-12.435-30.312-19.431-47.41-35.752 0 .777.776 1.554.776 3.109 17.099 16.321 27.203 23.316 47.411 34.976 11.659 16.321 17.877 23.317 31.866 36.53z"/><path fill="#999" d="M440.375 763.065c-107.257-10.882-155.444-26.427-241.716-90.936-1.555-13.99-1.555-20.985-.778-35.753 53.629 61.401 129.797 95.599 210.627 100.262 12.437 12.437 18.654 17.1 31.867 26.427z"/><path fill="#FFF" d="M436.489 763.065h3.887c-13.213-9.327-19.431-14.768-31.866-26.427-80.831-4.663-156.999-38.86-210.627-100.262v4.663c53.629 60.624 129.797 94.822 210.627 99.485 10.88 10.106 16.321 14.769 27.979 22.541z"/><path fill="#999" d="M627.686 714.1c-69.172 36.529-107.257 45.855-179.538 49.741-13.99-10.881-20.985-16.321-34.199-31.089-87.048-15.544-155.444-31.089-216.067-101.815 1.554-11.659 2.332-17.877 5.441-29.535 56.737 74.613 148.449 111.143 240.938 108.033 14.768 15.546 23.317 22.54 39.638 34.198 59.848-7.771 90.159-17.876 146.896-48.188-.777 7.773-1.555 11.659-3.109 18.655z"/><path fill="#FFF" d="M484.677 742.856c-16.322-11.657-24.871-17.875-39.639-34.197-92.489 3.108-183.425-33.421-240.939-108.034-.776 1.555-.776 3.109-1.554 4.664 57.515 73.835 149.227 109.588 241.716 106.479 15.545 15.545 23.317 22.54 39.638 33.421 59.069-7.771 90.159-17.099 146.896-48.188 0-1.554 0-2.33.778-3.108-56.739 31.865-87.827 41.191-146.896 48.963z"/><path fill="#999" d="M534.419 836.124c-21.763 12.436-33.42 17.099-57.515 23.316 13.214-14.768 17.099-20.985 22.54-36.529 37.306-9.327 55.183-16.322 90.157-35.752-17.098 18.653-27.979 26.425-55.182 48.965z"/><path fill="#FFF" d="M588.825 788.714c-34.198 18.652-52.852 25.648-89.381 34.975v-.777c37.306-9.327 55.183-16.322 90.157-35.752.001 1.554-.776 1.554-.776 1.554z"/><path fill="#999" d="M602.037 772.391c-38.084 20.207-58.291 27.979-98.707 37.308 2.332-10.883 3.887-17.101 5.44-31.866 45.856-9.328 68.396-17.101 111.921-39.64-5.441 16.322-9.327 22.539-18.654 34.198z"/><path fill="#FFF" d="M619.913 740.525c-43.524 22.54-66.063 30.312-111.143 39.639v-2.333c45.856-9.326 68.396-17.099 111.921-39.638.001.777-.778 1.555-.778 2.332z"/><path fill="#999" d="M632.349 690.783c-55.96 30.312-85.494 40.416-144.563 48.188-13.989-10.104-21.762-16.321-34.975-30.312 73.059-3.887 112.697-14.768 183.425-57.515-.778 17.876-1.555 25.649-3.887 39.639z"/><path fill="#FFF" d="M453.587 708.659c1.556 1.555 2.332 2.332 3.109 3.886 71.505-4.663 110.365-15.545 179.539-56.737v-4.663c-69.95 42.746-109.587 53.627-182.648 57.514z"/><path fill="#999" d="M498.666 798.04c-61.399 12.436-93.266 12.436-150.004 1.555-14.767-10.881-22.539-17.099-37.306-31.09 69.172 22.54 110.365 24.872 189.643 10.104-.778 8.55-1.554 12.436-2.333 19.431z"/><path fill="#FFF" d="M311.356 768.505c1.555 1.555 2.331 2.332 3.886 3.108 68.396 21.764 108.035 23.318 185.757 8.551v-2.333c-79.278 16.322-120.47 13.991-189.643-9.326z"/><path fill="#999" d="M591.156 786.381c-80.831 32.645-148.45 55.961-237.053 42.748-35.752-21.763-58.291-37.307-93.266-82.386 15.544 8.55 24.094 11.658 40.415 17.876 28.757 29.534 45.079 40.415 73.059 56.737 78.5 7.772 157-9.327 226.172-45.856-3.109 3.885-5.44 6.218-9.327 10.881z"/><path fill="#FFF" d="M374.311 820.58c-27.979-16.322-44.301-27.203-73.059-56.738-17.099-6.218-24.871-10.104-40.415-17.877 1.554 2.333 2.331 3.11 4.663 5.441 13.99 6.995 21.762 10.881 37.306 16.322 28.757 28.757 45.08 39.638 73.059 55.183 77.722 6.995 155.445-9.327 223.841-45.856.776-.777.776-1.555 1.555-2.332-69.95 37.306-148.45 53.628-226.95 45.857z"/><path fill="#FCEE21" d="M464.469 847.782c.777-2.332-3.108-3.109-8.55-2.332-5.44.776-10.104 3.109-10.104 5.441 0 2.331 3.887 3.108 8.55 2.331 4.664-.776 9.327-3.885 10.104-5.44zm-3.886 9.327c.777-2.332-2.331-3.109-6.996-2.332-4.663.777-9.326 3.108-9.326 4.663-.776 2.332 2.332 3.108 6.995 2.332 3.887 0 7.773-2.332 9.327-4.663z"/><linearGradient id="e" gradientUnits="userSpaceOnUse" x1="32.347" y1="1127.669" x2="47.736" y2="1127.669" gradientTransform="matrix(6.5773 0 0 -6.5773 112.466 8262.11)"><stop offset="0" stop-color="#999"/><stop offset="1" stop-color="#fcee21"/></linearGradient><path fill="url(#e)" d="M326.901 840.01c35.752 10.882 56.737 12.437 99.485 10.104v-.776c-43.525 3.109-64.51.776-101.04-10.104.778-.002.778-.002 1.555.776z"/><linearGradient id="f" gradientUnits="userSpaceOnUse" x1="61.749" y1="1131.463" x2="67.915" y2="1131.463" gradientTransform="matrix(6.5773 0 0 -6.5773 112.466 8262.11)"><stop offset="0" stop-color="#999"/><stop offset="1" stop-color="#fcee21"/></linearGradient><path fill="url(#f)" d="M518.875 829.129c15.544-5.44 24.093-9.327 38.86-16.321l1.555-1.556c-15.544 7.773-23.316 10.882-39.639 17.1-.776-.001-.776-.001-.776.777z"/><linearGradient id="g" gradientUnits="userSpaceOnUse" x1="61.341" y1="1130.99" x2="67.303" y2="1130.99" gradientTransform="matrix(6.5773 0 0 -6.5773 112.466 8262.11)"><stop offset="0" stop-color="#999"/><stop offset="1" stop-color="#fcee21"/></linearGradient><path fill="url(#g)" d="M515.765 832.237c15.546-5.44 22.54-8.549 37.308-16.321l1.555-1.554c-14.768 7.771-22.54 10.881-38.084 16.32-.001.779-.001 1.555-.779 1.555z"/><linearGradient id="h" gradientUnits="userSpaceOnUse" x1="60.909" y1="1130.34" x2="66.668" y2="1130.34" gradientTransform="matrix(6.5773 0 0 -6.5773 112.466 8262.11)"><stop offset="0" stop-color="#999"/><stop offset="1" stop-color="#fcee21"/></linearGradient><path fill="url(#h)" d="M513.434 836.124c14.768-5.441 21.763-8.55 36.53-15.544.776-.778.776-.778 1.554-1.555-14.768 6.994-21.762 10.881-36.529 15.544-1.555.776-1.555.776-1.555 1.555z"/><linearGradient id="i" gradientUnits="userSpaceOnUse" x1="60.451" y1="1129.808" x2="65.995" y2="1129.808" gradientTransform="matrix(6.5773 0 0 -6.5773 112.466 8262.11)"><stop offset="0" stop-color="#999"/><stop offset="1" stop-color="#fcee21"/></linearGradient><path fill="url(#i)" d="M510.325 839.232c13.99-5.44 20.985-7.771 34.975-14.768l1.555-1.554c-13.989 6.995-20.985 10.104-34.975 15.544-.778.001-1.555.001-1.555.778z"/><linearGradient id="j" gradientUnits="userSpaceOnUse" x1="59.968" y1="1129.336" x2="65.3" y2="1129.336" gradientTransform="matrix(6.5773 0 0 -6.5773 112.466 8262.11)"><stop offset="0" stop-color="#999"/><stop offset="1" stop-color="#fcee21"/></linearGradient><path fill="url(#j)" d="M507.217 842.342c13.212-4.663 20.207-7.772 33.42-14.768l1.555-1.555c-13.213 6.995-20.208 10.104-34.198 14.768-.001.776-.777 1.555-.777 1.555z"/><linearGradient id="k" gradientUnits="userSpaceOnUse" x1="33.043" y1="1127.137" x2="47.814" y2="1127.137" gradientTransform="matrix(6.5773 0 0 -6.5773 112.466 8262.11)"><stop offset="0" stop-color="#999"/><stop offset="1" stop-color="#fcee21"/></linearGradient><path fill="url(#k)" d="M331.564 843.895c34.198 10.104 54.406 11.659 95.599 9.327v-.776c-41.193 3.108-62.178.776-97.153-9.328.777 0 .777.777 1.554.777z"/><linearGradient id="l" gradientUnits="userSpaceOnUse" x1="33.903" y1="1126.485" x2="47.903" y2="1126.485" gradientTransform="matrix(6.5773 0 0 -6.5773 112.466 8262.11)"><stop offset="0" stop-color="#999"/><stop offset="1"/></linearGradient><path fill="url(#l)" d="M337.005 848.559c32.643 9.326 52.074 10.881 90.158 8.55v-.778c-39.638 3.109-59.069.778-91.712-8.549.776 0 .776.777 1.554.777z"/><linearGradient id="m" gradientUnits="userSpaceOnUse" x1="34.453" y1="1126.045" x2="47.924" y2="1126.045" gradientTransform="matrix(6.5773 0 0 -6.5773 112.466 8262.11)"><stop offset="0" stop-color="#999"/><stop offset="1"/></linearGradient><path fill="url(#m)" d="M340.89 851.668c31.089 8.55 49.743 10.881 87.049 7.772v-.777c-38.083 3.109-56.738.777-88.604-7.771.001-.001.779-.001 1.555.776z"/><linearGradient id="n" gradientUnits="userSpaceOnUse" x1="35.011" y1="1125.717" x2="47.939" y2="1125.717" gradientTransform="matrix(6.5773 0 0 -6.5773 112.466 8262.11)"><stop offset="0" stop-color="#999"/><stop offset="1"/></linearGradient><path fill="url(#n)" d="M343.999 854c29.535 8.549 47.411 10.104 83.163 7.772v-.778c-36.529 2.333-54.406.778-84.718-7.771.778-.001 1.555.777 1.555.777z"/><linearGradient id="o" gradientUnits="userSpaceOnUse" x1="14.405" y1="1144.697" x2="33.43" y2="1144.697" gradientTransform="matrix(6.5773 0 0 -6.5773 112.466 8262.11)"><stop offset="0" stop-color="#999"/><stop offset="1"/></linearGradient><path fill="url(#o)" d="M207.986 701.664c41.193 38.084 67.619 51.297 124.356 66.064 0-.778 0-1.555-.778-2.332-56.737-15.545-83.94-28.758-124.354-66.842-.001 1.555-.001 2.332.776 3.11z"/><linearGradient id="p" gradientUnits="userSpaceOnUse" x1="14.135" y1="1145.701" x2="33.248" y2="1145.701" gradientTransform="matrix(6.5773 0 0 -6.5773 112.466 8262.11)"><stop offset="0" stop-color="#999"/><stop offset="1"/></linearGradient><path fill="url(#p)" d="M206.431 693.891c41.192 38.861 67.619 52.852 125.132 68.396v-2.331c-57.514-15.545-83.94-29.535-125.132-69.173-.777 1.554-.777 1.554 0 3.108z"/><path fill="#333" d="M230.526 759.178c1.554 3.108 5.439 7.771 8.548 9.326 3.11 2.332 3.887 1.555 1.556-1.555-1.556-3.108-5.441-6.994-8.55-9.326-2.332-3.108-3.109-1.554-1.554 1.555z"/><path fill="#FBB03B" d="M232.08 759.956c1.554 2.331 3.885 4.663 5.44 6.218 1.556 1.555 2.332.776 1.556-1.555-1.556-2.332-3.887-4.663-5.441-6.218-2.333-.777-2.333 0-1.555 1.555z"/><path fill="#333" d="M244.515 769.283c1.554 3.108 5.441 6.994 8.55 8.548 3.109 1.555 3.885.778 2.331-1.554-1.555-3.109-5.44-6.994-8.549-8.549-3.108-2.332-3.886-1.554-2.332 1.555z"/><path fill="#FBB03B" d="M246.847 770.059c.776 1.554 3.885 4.663 5.44 5.44 2.332 1.555 2.332.777 1.554-1.554-.776-1.555-3.885-4.663-5.44-5.441-2.331-.776-3.108.001-1.554 1.555z"/><path fill="#333" d="M260.059 778.609c1.554 3.108 5.441 6.218 8.55 7.771 3.109 1.555 4.664.778 3.109-2.331-1.554-2.332-5.441-6.219-8.55-7.772-3.109-1.555-4.663-.777-3.109 2.332z"/><path fill="#FBB03B" d="M262.391 779.385c.777 1.556 3.886 3.887 5.44 5.441 2.333.777 3.109.777 2.333-1.555-.778-1.555-3.887-3.887-5.441-5.439-3.109-.778-3.886-.001-2.332 1.553z"/><path fill="#333" d="M276.381 786.381c1.555 2.333 5.441 6.218 8.55 7.772 3.107 1.555 4.663.778 3.885-2.331-1.554-2.332-5.44-6.218-8.549-7.772-3.886-.778-5.44 0-3.886 2.331z"/><path fill="#FBB03B" d="M277.936 787.159c.778 1.555 3.887 3.886 5.441 4.663 2.331.776 3.108 0 2.331-1.555-.776-1.554-3.885-3.887-5.44-4.663-1.554 0-3.109 0-2.332 1.555z"/><path fill="#333" d="M386.746 814.362c.778 2.331 4.664 3.885 8.55 3.885 3.887 0 6.996-1.554 6.218-3.108 0-2.331-3.886-3.887-8.549-3.887-3.887 0-6.996.777-6.219 3.11z"/><path fill="#FBB03B" d="M389.078 814.362c0 1.554 3.109 2.331 5.441 2.331 2.331 0 4.664-.777 3.886-2.331 0-1.555-3.109-2.333-5.44-2.333-2.332 0-3.887.778-3.887 2.333z"/><path fill="#333" d="M406.955 815.138c.777 1.555 3.885 3.108 8.549 3.108 3.887 0 6.996-1.554 6.996-3.108 0-1.555-3.887-3.109-8.55-3.109-4.664 0-7.773 1.555-6.995 3.109z"/><path fill="#FBB03B" d="M409.286 815.138c0 1.555 2.332 2.332 5.441 2.332 2.331 0 4.664-.777 4.664-2.332 0-1.555-2.333-2.331-5.441-2.331-2.332 0-4.664 1.555-4.664 2.331z"/><path fill="#333" d="M427.162 815.138c0 1.555 3.887 3.108 7.772 3.108 3.886 0 6.995-1.554 6.995-3.885 0-1.555-3.887-3.11-7.772-3.11-3.886.001-6.995 1.556-6.995 3.887z"/><path fill="#FBB03B" d="M430.271 815.138c0 1.555 2.333 2.332 5.441 1.555 2.331 0 4.663-1.555 4.663-2.332 0-1.554-2.332-2.332-5.44-1.554-3.11 0-5.441.777-4.664 2.331z"/><path fill="#333" d="M448.148 813.584c0 1.555 3.887 3.109 7.771 2.332 3.887-.777 7.772-2.332 7.772-3.887 0-1.554-3.108-3.108-7.772-2.33-4.663.776-7.771 2.33-7.771 3.885z"/><path fill="#FBB03B" d="M450.479 813.584c0 .778 2.332 1.555 4.664 1.555 2.331 0 4.663-1.555 4.663-2.331 0-.778-2.332-1.556-4.663-1.556-2.332 0-4.664.777-4.664 2.332z"/><path fill="#333" d="M469.133 811.252c0 1.556 3.108 2.332 7.771 2.332 3.886-.776 7.772-2.332 7.772-4.663 0-1.555-3.109-2.332-7.772-1.555-4.663.777-7.771 2.333-7.771 3.886z"/><path fill="#FBB03B" d="M471.464 811.252c0 .777 2.332 1.556 4.663 1.556 3.108-.778 4.663-1.556 5.44-3.11 0-.776-2.332-1.554-4.663-1.554-3.108.777-5.44 1.555-5.44 3.108z"/><path fill="#333" d="M300.475 463.834c82.385 38.861 149.227 23.316 233.167.777C595.82 508.912 637.79 574.977 637.79 652.699c-146.896 98.707-317.107 68.396-433.691-51.297 22.54-74.614 41.194-92.49 96.376-137.568z"/><path fill="#999" d="M324.57 560.987c41.192 13.212 66.063 15.544 114.251 13.99 8.549 6.217 13.213 10.104 22.54 16.322-58.292 4.663-90.159 1.555-140.678-14.768l3.887-15.544z"/><path fill="#FFF" d="M321.461 573.422c0 1.555-.778 2.331-.778 3.109 50.519 17.099 82.385 19.431 140.678 14.768-2.332-1.554-3.108-2.332-4.663-3.109-56.739 3.885-87.05.777-135.237-14.768z"/><path fill="#999" d="M346.331 481.71c64.509 14.767 123.578 18.653 187.311-16.322 15.544 11.657 23.317 18.653 37.307 32.643-73.059 38.084-157.776 44.302-237.83 24.094 4.662-17.098 6.995-24.87 13.212-40.415z"/><path fill="#FFF" d="M333.896 520.571c79.277 19.431 163.217 13.99 235.499-24.094.776.778.776.778 1.554 1.554-73.059 38.084-157.776 44.302-237.83 24.094-.001-.777.777-1.554.777-1.554z"/><path fill="#999" d="M332.342 524.457c80.831 20.984 166.325 13.99 240.938-24.094 4.664 4.663 6.996 6.994 11.659 12.435-97.153 36.529-153.89 41.193-256.484 26.425 1.555-6.217 2.332-8.548 3.887-14.766z"/><path fill="#FFF" d="M329.233 537.67c101.816 13.991 157.776 9.326 254.151-26.425l1.555 1.554c-97.153 36.529-153.89 41.193-256.484 26.425 0-.777.778-.777.778-1.554z"/><path fill="#999" d="M226.639 548.552c108.034 115.806 270.474 83.939 397.938 28.756 2.332 6.995 3.886 10.104 5.44 17.1-118.916 73.059-313.222 81.608-409.597-34.198 2.333-4.664 3.11-6.995 6.219-11.658z"/><path fill="#FFF" d="M220.421 558.655c133.682 105.703 256.483 100.262 408.042 33.421 0 .778.777 1.554.777 2.332-118.915 73.059-313.221 81.608-409.596-34.198.777-.778.777-.778.777-1.555z"/><path fill="#999" d="M476.127 551.66c48.966-6.996 73.837-13.991 111.143-36.531 4.664 5.441 6.219 7.773 10.882 13.213-33.42 20.208-54.405 27.203-97.931 35.752-10.103-4.662-14.768-6.994-24.094-12.434z"/><path fill="#999" d="M502.553 567.981c42.747-8.549 64.509-15.544 97.153-35.751 3.886 5.44 5.439 8.548 9.326 14.767-27.98 17.875-45.079 24.093-81.608 33.421-9.326-4.665-14.768-6.996-24.871-12.437z"/><path fill="#FFF" d="M505.662 567.981c-1.555 0-2.332.778-3.109.778 10.104 4.663 14.767 7.772 25.648 12.435 35.752-9.326 52.851-16.322 81.608-33.42-.777-.778-.777-1.554-1.555-2.332-27.979 17.1-45.078 24.094-80.831 33.42-9.325-5.44-13.212-6.994-21.761-10.881z"/><path fill="#999" d="M531.311 581.972c34.975-9.328 52.073-16.322 79.276-33.42 5.439 9.327 7.772 13.99 11.657 24.093-19.43 12.437-30.311 17.876-54.404 26.427-13.989-6.219-21.763-9.328-36.529-17.1z"/><path fill="#FFF" d="M533.642 581.194c-.776 0-1.555 0-2.331.778 14.767 6.995 22.54 10.881 36.529 17.099 23.316-8.55 34.975-13.99 54.404-26.427 0-.776-.776-1.554-.776-2.331-19.431 12.436-30.312 17.876-54.406 26.425-13.211-6.217-20.207-9.326-33.42-15.544z"/><path fill="#999" d="M367.317 645.703c89.38 15.546 186.534 1.556 263.478-47.41 2.333 10.104 3.887 15.544 5.441 27.203-76.945 48.965-150.004 52.073-238.607 53.629-12.437-13.213-18.655-20.208-30.312-33.422z"/><path fill="#FFF" d="M371.202 645.703c-1.554 0-2.331 0-3.885-.776 11.657 13.213 17.875 20.208 31.088 33.421 88.604-1.555 160.885-4.663 237.831-53.628 0-1.555 0-2.333-.777-3.109-76.944 48.965-149.227 52.074-237.053 53.628-11.66-11.659-17.1-17.1-27.204-29.536z"/><path fill="#999" d="M218.866 562.541c38.084 51.295 71.505 66.063 139.9 80.053 12.435 15.545 18.653 24.094 32.644 39.64 90.935 0 165.549-2.332 244.825-53.63.776 9.327 1.555 13.99 1.555 24.095-80.055 54.405-182.647 69.173-276.691 49.742-15.545-20.207-23.317-30.312-37.307-49.742-54.406-17.877-79.276-33.421-111.143-77.722 3.109-4.664 3.886-7.773 6.217-12.436z"/><path fill="#FFF" d="M323.792 653.476c13.99 19.43 21.762 29.534 37.307 49.741 94.044 19.432 196.637 4.664 276.691-49.741v-3.887c-80.055 54.406-182.647 69.174-275.915 50.52-15.544-20.207-23.316-30.312-36.53-49.741-54.406-17.877-79.276-32.645-110.365-76.946 0 .777-.778 1.555-.778 2.331 30.313 44.303 55.184 59.847 109.59 77.723z"/><path fill="#999" d="M300.475 463.834c10.881 7.772 20.208 11.658 41.969 17.099-8.549 21.762-12.435 32.644-19.43 56.737-31.089-10.104-45.079-17.099-63.732-35.752 14.768-15.544 23.317-23.318 41.193-38.084z"/><path fill="#FFF" d="M260.059 501.918c18.654 17.876 31.866 24.871 62.956 34.975v1.554c-31.089-10.104-45.079-17.099-63.732-35.752l.776-.777z"/><path fill="#999" d="M247.624 515.907c20.985 21.762 35.753 30.312 69.95 41.971-3.887 16.321-6.218 24.094-10.104 41.969-38.083-14.767-55.959-25.648-79.276-55.183 6.995-12.434 10.88-17.876 19.43-28.757z"/><path fill="#FFF" d="M228.971 543.111c23.316 28.757 40.415 39.638 78.499 54.406 0 .776 0 1.555-.776 2.331-38.084-14.767-55.96-25.648-79.276-55.183 1.553-.778 1.553-.778 1.553-1.554z"/><path fill="#999" d="M211.872 578.086c31.088 44.301 55.183 59.846 108.033 78.5 11.659 17.875 18.654 26.425 31.866 45.078-73.058-17.876-108.811-36.529-148.449-100.262 3.887-10.103 5.441-14.767 8.55-23.316z"/><path fill="#FFF" d="M352.549 700.886c-1.555-2.332-2.332-3.108-3.109-4.663-70.727-17.876-105.702-36.529-143.787-97.931 0 .778-.777 1.555-.777 2.332 38.863 64.511 74.614 82.386 147.673 100.262z"/><path fill="#999" d="M319.128 578.862c52.852 17.876 85.495 20.209 146.118 14.768 14.768 9.326 22.539 13.99 37.307 22.54-76.167 13.213-121.247 11.658-188.866-13.214 2.333-9.326 3.887-14.766 5.441-24.094z"/><path fill="#FFF" d="M503.33 616.947c-1.555-.777-2.331-1.555-3.886-2.332-74.613 12.436-118.916 10.104-184.979-13.213 0 .777 0 1.554-.778 2.332 68.396 24.094 113.475 26.425 189.643 13.213z"/><path fill="#999" d="M257.728 504.249c58.292 47.412 136.791 57.515 208.295 48.188 34.976 21.762 55.96 31.866 94.044 49.743-17.876 6.218-27.202 8.549-45.856 13.213-30.313-16.321-45.856-25.648-73.06-44.302-92.489 3.887-145.339-7.772-191.973-56.737 3.887-4.664 5.441-6.219 8.55-10.105z"/><path fill="#FFF" d="M441.93 571.09c27.203 18.654 42.747 27.981 73.059 44.302 18.653-3.887 27.979-6.995 45.856-13.213l-4.664-2.332c-16.321 5.441-24.87 7.772-41.97 11.658-30.313-16.321-45.856-25.648-73.06-44.301-90.935 3.886-143.785-7.772-190.419-55.96-.776.776-.776 1.554-1.554 2.331 47.411 49.743 100.262 61.402 192.752 57.515z"/><path fill="#FCEE21" d="M355.658 514.353c-.778 3.887 3.109 7.772 8.55 8.55 5.44.776 10.103-1.555 10.103-5.441 0-3.887-3.885-7.772-8.549-8.55-5.441-.777-9.326 1.555-10.104 5.441zm3.109-17.876c-.777 3.887 2.332 7.772 6.995 8.55 4.664.777 9.327-1.554 9.327-5.441 0-3.886-3.109-6.995-6.996-7.772-4.663-1.555-8.548.777-9.326 4.663z"/><linearGradient id="q" gradientUnits="userSpaceOnUse" x1="42.622" y1="1176.849" x2="59.832" y2="1176.849" gradientTransform="matrix(6.5773 0 0 -6.5773 112.466 8262.11)"><stop offset="0" stop-color="#999"/><stop offset="1" stop-color="#fcee21"/></linearGradient><path fill="url(#q)" d="M504.884 515.131c-42.747 10.881-68.396 12.435-111.919 9.326v2.331c44.302 3.109 69.95 1.555 113.474-9.326-.777-1.555-.777-1.555-1.555-2.331z"/><linearGradient id="r" gradientUnits="userSpaceOnUse" x1="25.573" y1="1179.793" x2="29.857" y2="1179.793" gradientTransform="matrix(6.5773 0 0 -6.5773 112.466 8262.11)"><stop offset="0" stop-color="#999"/><stop offset="1" stop-color="#fcee21"/></linearGradient><path fill="url(#r)" d="M309.024 508.912c-12.436-4.663-17.875-7.772-27.202-14.766-.778.776-.778.776-.778 1.554 9.327 6.995 14.768 9.327 27.203 14.767 0-.777 0-1.555.777-1.555z"/><linearGradient id="s" gradientUnits="userSpaceOnUse" x1="26.059" y1="1180.443" x2="30.207" y2="1180.443" gradientTransform="matrix(6.5773 0 0 -6.5773 112.466 8262.11)"><stop offset="0" stop-color="#999"/><stop offset="1" stop-color="#fcee21"/></linearGradient><path fill="url(#s)" d="M311.356 504.249c-11.659-4.663-17.099-7.772-25.648-13.99-.776.778-.776.778-1.554 1.554 9.326 6.218 14.768 9.327 26.425 13.99-.001-.776-.001-.776.777-1.554z"/><linearGradient id="t" gradientUnits="userSpaceOnUse" x1="26.553" y1="1180.974" x2="30.562" y2="1180.974" gradientTransform="matrix(6.5773 0 0 -6.5773 112.466 8262.11)"><stop offset="0" stop-color="#999"/><stop offset="1" stop-color="#fcee21"/></linearGradient><path fill="url(#t)" d="M313.687 499.586c-11.657-4.664-16.321-6.995-24.871-12.436l-1.554 1.555c8.55 6.217 13.99 8.55 25.648 13.213.001-1.554.001-1.554.777-2.332z"/><linearGradient id="u" gradientUnits="userSpaceOnUse" x1="27.058" y1="1181.624" x2="30.925" y2="1181.624" gradientTransform="matrix(6.5773 0 0 -6.5773 112.466 8262.11)"><stop offset="0" stop-color="#999"/><stop offset="1" stop-color="#fcee21"/></linearGradient><path fill="url(#u)" d="M316.02 494.922c-10.881-3.885-15.544-6.994-24.094-11.657l-1.554 1.554c8.55 5.44 13.213 7.772 24.871 12.436-.001-1.555-.001-1.555.777-2.333z"/><linearGradient id="v" gradientUnits="userSpaceOnUse" x1="27.573" y1="1182.274" x2="31.296" y2="1182.274" gradientTransform="matrix(6.5773 0 0 -6.5773 112.466 8262.11)"><stop offset="0" stop-color="#999"/><stop offset="1" stop-color="#fcee21"/></linearGradient><path fill="url(#v)" d="M318.351 490.259c-10.881-3.885-15.544-6.218-23.316-10.881l-1.555 1.554c7.772 5.441 12.436 6.996 23.316 11.659.778-1.554.778-1.554 1.555-2.332z"/><linearGradient id="w" gradientUnits="userSpaceOnUse" x1="42.596" y1="1177.722" x2="59.296" y2="1177.722" gradientTransform="matrix(6.5773 0 0 -6.5773 112.466 8262.11)"><stop offset="0" stop-color="#999"/><stop offset="1" stop-color="#fcee21"/></linearGradient><path fill="url(#w)" d="M500.999 509.69c-41.971 10.104-66.064 11.659-108.812 8.55v2.331c42.748 3.108 67.619 2.332 109.588-8.55.001-1.554.001-1.554-.776-2.331z"/><linearGradient id="x" gradientUnits="userSpaceOnUse" x1="42.562" y1="1178.843" x2="58.633" y2="1178.843" gradientTransform="matrix(6.5773 0 0 -6.5773 112.466 8262.11)"><stop offset="0" stop-color="#999"/><stop offset="1"/></linearGradient><path fill="url(#x)" d="M497.113 502.695c-40.415 10.104-63.732 10.882-104.147 7.772v2.332c41.192 3.109 64.509 2.331 105.701-7.772-.777-1.555-1.554-1.555-1.554-2.332z"/><linearGradient id="y" gradientUnits="userSpaceOnUse" x1="42.529" y1="1179.611" x2="58.161" y2="1179.611" gradientTransform="matrix(6.5773 0 0 -6.5773 112.466 8262.11)"><stop offset="0" stop-color="#999"/><stop offset="1"/></linearGradient><path fill="url(#y)" d="M494.003 498.031c-39.638 9.327-62.178 10.104-101.816 6.996v2.331c40.417 3.109 62.956 2.332 102.594-7.772 0-.777-.778-.777-.778-1.555z"/><linearGradient id="z" gradientUnits="userSpaceOnUse" x1="42.529" y1="1180.318" x2="57.728" y2="1180.318" gradientTransform="matrix(6.5773 0 0 -6.5773 112.466 8262.11)"><stop offset="0" stop-color="#999"/><stop offset="1"/></linearGradient><path fill="url(#z)" d="M490.895 493.368c-38.084 9.327-60.624 9.327-98.708 6.996v2.331c38.862 3.109 61.4 2.332 100.262-6.995-.777-.778-.777-1.554-1.554-2.332z"/><linearGradient id="A" gradientUnits="userSpaceOnUse" x1="55.882" y1="1163.781" x2="77.235" y2="1163.781" gradientTransform="matrix(6.5773 0 0 -6.5773 112.466 8262.11)"><stop offset="0" stop-color="#999"/><stop offset="1"/></linearGradient><path fill="url(#A)" d="M619.913 583.527c-46.634 27.979-77.722 38.083-139.899 45.078v3.109c62.178-6.994 94.044-16.321 139.899-45.078v-3.109z"/><linearGradient id="B" gradientUnits="userSpaceOnUse" x1="56" y1="1162.894" x2="77.537" y2="1162.894" gradientTransform="matrix(6.5773 0 0 -6.5773 112.466 8262.11)"><stop offset="0" stop-color="#999"/><stop offset="1"/></linearGradient><path fill="url(#B)" d="M621.468 588.967c-46.634 28.757-78.5 38.084-140.678 45.855v3.109c62.956-6.994 94.822-17.099 141.455-45.856 0-1.554 0-1.554-.777-3.108z"/><path fill="#333" d="M600.483 540.778c-1.554-2.331-5.439-2.331-8.549-.776-3.108 1.554-4.664 5.441-3.108 7.772 1.553 2.332 5.439 3.109 8.549.778 3.108-2.333 3.886-5.441 3.108-7.774z"/><path fill="#FBB03B" d="M598.152 541.556c-.777-1.554-3.108-1.554-5.44-.778-2.331 1.555-3.109 3.109-2.331 4.664.776 1.554 3.108 1.554 5.439.778 2.332-.778 3.109-3.109 2.332-4.664z"/><path fill="#333" d="M584.161 549.328c-1.555-2.332-5.44-3.108-8.549-1.554-3.109 1.554-5.441 4.663-3.887 6.996 1.554 2.331 5.44 3.109 8.55 1.554 3.109-1.555 4.664-4.664 3.886-6.996z"/><path fill="#FBB03B" d="M581.829 550.106c-.777-1.554-3.108-2.332-5.44-.778-2.331.778-3.109 3.109-2.331 4.664.776 1.554 3.108 2.332 5.439.778 1.555-.779 3.11-3.11 2.332-4.664z"/><path fill="#333" d="M566.285 557.1c-1.554-2.331-5.44-3.109-8.55-1.555-3.885 1.555-5.441 4.664-4.663 6.996 1.555 2.331 5.441 3.885 9.326 2.331 3.11-2.331 5.442-5.44 3.887-7.772z"/><path fill="#FBB03B" d="M563.953 557.878c-.776-1.555-3.108-2.333-5.439-1.555-2.333.777-3.887 3.109-3.109 4.664.776 1.554 3.109 2.331 6.218 1.554 2.33-.778 3.109-3.109 2.33-4.663z"/><path fill="#333" d="M548.409 564.095c-.778-2.332-5.441-3.886-9.326-2.332-3.887 1.555-6.218 3.887-4.664 6.996.777 2.331 5.44 3.885 9.327 2.331 3.109-1.555 5.44-4.663 4.663-6.995z"/><path fill="#FBB03B" d="M545.3 564.872c-.777-1.554-3.108-2.331-6.217-1.554-2.333.777-3.887 3.108-3.109 4.663.776 1.554 3.109 2.332 6.218 1.554 2.331-.776 3.885-3.108 3.108-4.663z"/><path fill="#333" d="M427.162 582.749c0-3.109-3.886-4.663-7.772-4.663-3.887 0-6.996 2.332-6.996 4.663 0 3.109 3.887 5.441 7.773 5.441 3.886-.778 6.995-3.109 6.995-5.441z"/><path fill="#FBB03B" d="M424.053 582.749c0-1.555-2.332-3.109-5.44-3.109-2.331 0-4.664 1.554-4.664 3.109 0 1.554 2.333 3.109 5.441 3.109 3.109 0 5.441-1.555 4.663-3.109z"/><path fill="#333" d="M406.177 581.972c0-3.11-3.885-5.441-7.772-5.441-3.886 0-7.772 1.555-7.772 4.663 0 2.333 3.108 5.441 7.772 5.441 4.663 0 7.772-1.554 7.772-4.663z"/><path fill="#FBB03B" d="M403.846 581.972c0-1.554-2.332-3.11-4.663-3.886-2.333 0-4.664.776-4.664 3.108 0 1.555 2.331 3.109 4.664 3.887 2.331 0 4.663-1.554 4.663-3.109z"/><path fill="#333" d="M385.969 580.418c0-2.332-3.109-5.441-6.996-5.441-3.885-.778-6.994 1.554-7.772 3.885 0 2.332 3.109 5.441 6.996 6.219 4.664 0 7.772-1.554 7.772-4.663z"/><path fill="#FBB03B" d="M383.637 580.418c0-1.556-2.331-3.11-4.664-3.887-2.331 0-4.663.777-4.663 2.331 0 1.556 2.332 3.11 4.663 3.887 2.333.778 4.664-.777 4.664-2.331z"/><path fill="#333" d="M366.539 578.086c0-2.333-3.109-5.441-6.994-6.218-3.887-.778-6.996.776-7.773 3.109 0 2.331 2.332 5.441 6.996 6.217 3.885.778 6.994-.776 7.771-3.108z"/><path fill="#FBB03B" d="M363.43 577.308c0-1.555-1.554-3.109-4.663-3.886-2.331-.778-4.664.777-4.664 2.331 0 1.555 1.555 3.887 4.664 3.887 2.332.778 4.663-.778 4.663-2.332z"/><path fill="#333" d="M347.108 574.199c0-2.331-2.331-5.44-6.218-6.218-3.886-.777-6.995 0-7.772 3.109-.777 2.332 2.332 5.441 6.217 6.218 3.887.778 6.996-.777 7.773-3.109z"/><path fill="#FBB03B" d="M344.777 573.422c0-1.554-1.555-3.887-3.887-3.887-2.331-.776-4.664 0-4.664 1.555 0 1.554 1.555 3.887 3.887 3.887 1.555.776 3.886 0 4.664-1.555z"/><g><radialGradient id="C" cx="46.192" cy="1194.327" r="15.529" gradientTransform="matrix(6.5773 0 0 -6.5773 112.466 8262.11)" gradientUnits="userSpaceOnUse"><stop offset="0" stop-color="#fff"/><stop offset="1" stop-color="#00c7ff"/></radialGradient><path fill="url(#C)" d="M414.727 489.482l-117.361-31.089 118.915-134.46 118.916 134.46z"/><path d="M530.532 459.948l5.441-1.555-119.692-134.46-.778 164.772 66.841-17.099 5.44-1.555 42.748-10.103zm-67.617-30.313l-6.219-6.994 1.556-3.109 4.663 10.103zm0-10.88l3.108 1.555.776 5.441-3.884-6.996zm-2.332-3.886l-39.639-80.832 39.639 45.08 3.886 37.306-4.663-3.109.777 1.555zm-3.886.777l-2.331 4.664-34.199-37.306-2.331-48.966 38.861 81.608zm-36.529 24.094l17.099 8.549-17.099 28.757V439.74zm0-3.887v-48.965l32.643 34.975-13.99 23.316-18.653-9.326zm34.975-10.881l10.881 11.659 12.436 27.203-35.753-17.099 12.436-21.763zm13.212 6.218l-.776-9.327 22.54 13.99-6.996 27.203-14.768-31.866zm-.777-13.212l-3.109-34.975 30.313 35.751-3.109 13.99-24.095-14.766zm29.535 3.109l24.871 28.757-27.98-16.322 3.109-12.435zm-75.392 63.732l19.431-34.198 39.639 18.653-59.07 15.545zm63.732-17.1l-.776-.777 7.772-29.535 32.644 20.209-39.64 10.103z"/><path d="M301.252 459.948l42.747 10.881 5.441 1.554 66.841 17.1.776-164.771-122.023 133.681 6.218 1.555zm70.728-40.416l2.331 3.109-6.218 6.994 3.887-10.103zm-6.996 6.218l.778-5.441 3.109-1.555-3.887 6.996zm5.442-12.436l-4.664 3.109 3.886-37.306 39.638-45.08-38.86 80.832v-1.555zm42.747-79.277l-2.333 48.966-34.197 37.306-2.332-4.664 38.862-81.608zm-2.333 143.787l-17.099-28.758 17.099-7.772v-.778 37.308zm-19.43-32.644l-13.991-23.316 32.644-34.975v48.965l-18.653 9.326zm-3.108 2.332l-35.753 17.099 12.435-27.203 10.881-11.657 12.437 21.761zm-41.194 15.544l-6.995-27.203 22.54-13.99-.777 9.327-14.768 31.866zm-7.772-31.088l-3.109-13.989 30.312-35.753-3.109 34.974-24.094 14.768zm-2.331 1.554l-27.98 16.322 24.872-28.757 3.108 12.435zm13.212 35.752l39.639-18.653 19.43 34.198-59.069-15.545zm-45.079-11.658l32.643-20.209 7.772 29.535-.776.777-39.639-10.103z"/></g><linearGradient id="D" gradientUnits="userSpaceOnUse" x1="51.117" y1="1194.799" x2="82.437" y2="1211.437" gradientTransform="matrix(6.5773 0 0 -6.5773 112.466 8262.11)"><stop offset="0" stop-color="#fff"/><stop offset="1" stop-color="#fff" stop-opacity="0"/></linearGradient><path fill="url(#D)" d="M587.997 320.271c-10.226-6.419-20.376-12.962-30.4-19.691L440.375 403.21l11.659 13.212 185.045-67.746c-16.581-9.089-33.064-18.349-49.082-28.405z"/><linearGradient id="E" gradientUnits="userSpaceOnUse" x1="59.604" y1="1176.575" x2="96.974" y2="1190.125" gradientTransform="matrix(6.5773 0 0 -6.5773 112.466 8262.11)"><stop offset="0" stop-color="#fff"/><stop offset="1" stop-color="#fff" stop-opacity="0"/></linearGradient><path fill="url(#E)" d="M675.395 369.661a2028.7 2028.7 0 0 0-13.33-7.35l-187.492 81.314 6.995 13.991 277.058 77.736c.39-22.215.954-44.427 1.198-66.643l-34.774-60.561c-17.258-11.849-33.588-24.991-49.655-38.487z"/><linearGradient id="F" gradientUnits="userSpaceOnUse" x1="48.762" y1="1196.64" x2="61.956" y2="1218.697" gradientTransform="matrix(6.5773 0 0 -6.5773 112.466 8262.11)"><stop offset="0" stop-color="#fff"/><stop offset="1" stop-color="#fff" stop-opacity="0"/></linearGradient><path fill="url(#F)" d="M513.15 268.374c-9.854-7.802-19.75-15.824-28.956-24.458-.718-.541-1.429-1.091-2.143-1.636l-6.7.045-55.183 140.678 13.212 11.657 107.944-105.271c-9.568-6.759-18.982-13.736-28.174-21.015z"/><linearGradient id="G" gradientUnits="userSpaceOnUse" x1="39.182" y1="1194.675" x2="12.123" y2="1212.929" gradientTransform="matrix(6.5773 0 0 -6.5773 112.466 8262.11)"><stop offset="0" stop-color="#fff"/><stop offset="1" stop-color="#fff" stop-opacity="0"/></linearGradient><path fill="url(#G)" d="M254.364 306.844a1379.884 1379.884 0 0 0-27.186 14.401 4502.612 4502.612 0 0 0-11.462 7.486l147.714 84.583 1.554-19.43-102.991-90.934a1095.52 1095.52 0 0 0-7.629 3.894z"/><linearGradient id="H" gradientUnits="userSpaceOnUse" x1="30.749" y1="1174.428" x2="-5.11" y2="1188.547" gradientTransform="matrix(6.5773 0 0 -6.5773 112.466 8262.11)"><stop offset="0" stop-color="#fff"/><stop offset="1" stop-color="#fff" stop-opacity="0"/></linearGradient><path fill="url(#H)" d="M152.851 367.953a469.907 469.907 0 0 1-17.76 9.512l-38.402 66.21c.598 10.113-1.195 20.264-2.623 30.301-.784 5.515-1.366 11.069-1.848 16.637.35 24.455.437 48.901.397 73.345l256.046-100.902 8.55-22.54-204.36-72.563z"/><linearGradient id="I" gradientUnits="userSpaceOnUse" x1="40.45" y1="1196.47" x2="32.356" y2="1219.171" gradientTransform="matrix(6.5773 0 0 -6.5773 112.466 8262.11)"><stop offset="0" stop-color="#fff"/><stop offset="1" stop-color="#fff" stop-opacity="0"/></linearGradient><path fill="url(#I)" d="M318.557 276.23a1222.568 1222.568 0 0 0-22.64 10.262l84.611 107.393 13.991-30.312-21.877-112.914c-17.604 9.381-35.833 17.523-54.085 25.571z"/><g><path fill="#666" d="M421.274 945.185L118.062 770.23V420.32l303.212-174.955L724.486 420.32v349.91L421.274 945.185zM56.236 805.748l365.038 210.472 364.38-210.472V384.802L421.274 174.33 56.236 384.802v420.946z"/><path d="M133.847 429.528l287.427-165.747 286.769 165.747v331.494L421.274 926.769 133.847 761.022V429.528zm-15.128-9.208v349.91l302.555 174.955L723.827 770.23V420.977L421.274 246.022 118.719 420.32z" opacity=".13"/></g><linearGradient id="J" gradientUnits="userSpaceOnUse" x1="46.605" y1="1123.272" x2="46.605" y2="1144.794" gradientTransform="matrix(6.5773 0 0 -6.5773 112.466 8262.11)"><stop offset="0"/><stop offset="1" stop-opacity="0"/></linearGradient><path fill="url(#J)" d="M419.39 877.316c-78.5-.776-219.955-55.183-227.727-207.519 0 0 66.841 66.841 226.949 62.178 173.321-5.44 227.727-59.846 227.727-59.846S629.24 878.871 419.39 877.316z"/><linearGradient id="K" gradientUnits="userSpaceOnUse" x1="47.671" y1="1184.252" x2="86.962" y2="1136.689" gradientTransform="matrix(6.5773 0 0 -6.5773 112.466 8262.11)"><stop offset="0" stop-color="#fff"/><stop offset="1" stop-color="#fff" stop-opacity="0"/></linearGradient><path fill="url(#K)" d="M760.206 691.035L441.152 450.621l-8.548 15.544 173.672 411.544c27.451-17.968 55.983-34.774 87.215-43.652l.665-.319 66.768-114.247c-.344-9.48-.561-18.966-.718-28.456z"/><linearGradient id="L" gradientUnits="userSpaceOnUse" x1="44.066" y1="1184.907" x2="20.727" y2="1111.937" gradientTransform="matrix(6.5773 0 0 -6.5773 112.466 8262.11)"><stop offset="0" stop-color="#fff"/><stop offset=".756" stop-color="#fff" stop-opacity="0"/></linearGradient><path fill="url(#L)" d="M269.203 861.863c2.264-1.482 7.995-34.838 11.242-33.087 15.757 8.498 26.696 53.23 42.369 61.896 12 6.635 24.354 12.641 36.148 19.619l40.222-441.018-9.327-18.653-196.52 365.254c25.448 15.058 50.933 30.09 75.866 45.989z"/></svg>