<svg height="128.417" viewBox="0 0 110.979 128.417" width="110.979" xmlns="http://www.w3.org/2000/svg" xmlns:xlink="http://www.w3.org/1999/xlink"><clipPath id="a"><path d="m85.756 51.531h5.842v9.271h-5.842z"/></clipPath><clipPath id="b"><path d="m39.061 58.226h34.274v5.58h-34.274z"/></clipPath><path d="m110.849 96.417-55.426 32-55.423-32v-64l55.423-32 55.426 32z" fill="#81f2a3"/><path d="m101.923 38.139v53.14l-.009.01-1.42.809-6.281 3.62-2.719 1.571-.241.129-.129.05-.111.071-3.029 1.74-1.87 1.069-.04.03-3.25 1.88-.87.521-1.38.79-1.46.849-.181.09-.019.021-1.71.979-.96.561-4.62 2.67-.63.359-.061.03-3.5 2.031-4.04 2.33-.01.01-.3.169-.129.081-.17.099-.441.25-.42.24-.049.031-.281.16-3.49 2.019-.979.561-1.221.699-.029.021-.031-.021-1.219-.699-1.05-.61-3.901-2.25-1.369-.791-.04-.03-2.071-1.189-5.36-3.111-.689-.389-5.09-2.95-.39-.22-.491-.28-.33-.201-1.849-1.059-.571-.33-.409-.241-1.301-.75-2.509-1.459-2.911-1.67-.089-.05-.701-.41-.02-.01h-.009l-.98-.57-2.96-1.71-2.111-1.231-7.5-4.319v-53.14l1.42-.821.421-.239.239-.141 12.25-7.069 1.991-1.161 4.929-2.83 1.58-.92.17-.089 1.66-.951 1.161-.669 1.54-.911.52-.299 2.279-1.301.69-.409 1.46-.83 3.73-2.15 1.991-1.15.46-.27 6.069-3.511.221-.129 1.219-.701 1.061.62 6.489 3.75 14.53 8.38 1.04.611 2.3 1.309.87.5 1.521.881 1.369.79.801.46.09.06 1.809 1.039 3.78 2.18.041.031v.009l.259.141.66.389 1.46.841.401.23.26.149.11.07.239.131.051.029.09.061h.01l.049.029.021.011.099.06.611.35.779.44.441.25 1.939 1.119z" fill="#b20b2f"/><path d="m101.91 91.294-46.107 26.621-46.104-26.621v-53.238l46.104-26.618 46.107 26.618z" fill="#1a0d3c"/><path d="m99.126 89.688-43.323 25.014-43.323-25.014v-50.024l43.323-25.014 43.323 25.014z" fill="none" stroke="#47b678" stroke-miterlimit="10"/><path d="m42.114 83.276a.097.097 0 0 0 -.018-.028c-.009-.018-.017-.043-.024-.064a.67.67 0 0 0 .02-.037c.042-.103.075-.24.078-.372.2-.159.223-.513-.035-.637a.354.354 0 0 0 -.067-.023.282.282 0 0 0 -.212-.028.412.412 0 0 0 -.214.122c-.048.052-.061.136-.089.201-.001 0-.002 0-.002-.002a.254.254 0 0 0 -.163-.04c-.12-.086-.241-.169-.354-.266-.096-.088-.037-.289.018-.448a.3.3 0 0 0 .146-.239.638.638 0 0 0 -.188-.533c-.021-.136-.143-.256-.33-.227-.228.034-.469.166-.679.095-.166-.057-.433-.155-.6-.041-.371.251-.257.564.069.778a1.259 1.259 0 0 0 -.082.291.377.377 0 0 0 -.123.065c-.069.063-.153.14-.244.202a.241.241 0 0 0 -.127-.082l-.054-.013a.251.251 0 0 0 -.175.015.269.269 0 0 0 -.234-.146l-.064-.002a.243.243 0 0 0 -.143.04.255.255 0 0 0 -.147.08c-.209.01-.355.229-.375.435-.009.099.047.207.102.285.054.075.115.138.125.191a.235.235 0 0 0 .049.113l-.033.006c-.227.015-.366.283-.189.459a.36.36 0 0 1 .056.228c.014.187.224.36.405.232.226-.157.392-.557.699-.244.02.021.042.035.064.048l.051.125c.019.174.07.409-.011.533a.3.3 0 0 0 -.102.209.698.698 0 0 0 .22.536.271.271 0 0 0 .224.153.278.278 0 0 0 .257-.053c.166-.039.328-.071.479-.147.248.112.512.256.715.018l.01-.006c.097-.083.11-.175.105-.279a.286.286 0 0 0 -.054-.275 1.522 1.522 0 0 0 -.212-.277.346.346 0 0 0 .039-.116.14.14 0 0 1 .018-.012c.087-.004.174-.014.26-.027a.263.263 0 0 0 .103-.008c.207-.064.29.035.478.081.123.029.232-.032.341-.083.052-.025.098-.055.141-.082.126.018.257-.036.295-.188.05-.209-.016-.473-.223-.516" fill="#ec176d"/><path d="m59.053 89.428a.301.301 0 0 0 -.113-.157 1.311 1.311 0 0 0 -.195-.652.247.247 0 0 0 .08-.27c-.112-.409-.495-.625-.836-.832a2.435 2.435 0 0 1 -.163-.112.242.242 0 0 0 .022-.124.528.528 0 0 1 -.167-.012 1.735 1.735 0 0 1 -.363-.126.466.466 0 0 1 -.199-.076 1.869 1.869 0 0 1 -.218-.179l-.016-.02a.317.317 0 0 1 -.087 0c-.208-.024-.446-.114-.654-.104a4.62 4.62 0 0 1 -.435.014c-.008.016-.019.027-.026.043-.31-.043-.656.191-.894.382-.557.088-1.003.809-1.235 1.246-.127.242-.225.516-.163.789a.682.682 0 0 0 -.038.108.298.298 0 0 0 .101.287 1.42 1.42 0 0 0 -.029.177.216.216 0 0 0 .053.161c-.011.02-.021.037-.029.055-.07.142-.026.304.111.374.01.489.366.926.821 1.215a.772.772 0 0 0 .463.386c.103.035.22.048.342.058.342.216.707.352 1.116.185a.389.389 0 0 0 .103-.063l.062-.002c.028.008.059.012.09.008.103-.006.198-.02.302-.035a.22.22 0 0 0 .115-.057.248.248 0 0 0 .142-.093.354.354 0 0 0 .138-.057s.003.002.003.004c.191.132.372-.035.392-.217.061-.035.119-.072.178-.116.184-.143.493-.464.64-.735a.251.251 0 0 0 .186-.185c.044-.165.06-.326.068-.489.144-.238.421-.47.332-.779m-2.623.4c-.135.006-.271.023-.408.037l-.03-.041c-.029-.045-.054-.091-.081-.14a1.752 1.752 0 0 0 -.093-.157 1.7 1.7 0 0 1 .211-.248c.171-.161.337-.138.464.05.08.111-.009.341-.063.499" fill="#4a52a2"/><path d="m24.983 42.445a.313.313 0 0 0 -.063-.148 2.024 2.024 0 0 0 -.304-.296c-.001-.007-.003-.01-.005-.017-.008-.023-.019-.043-.029-.064h.002l-.011-.02a1.784 1.784 0 0 0 -.096-.179 3.68 3.68 0 0 0 -.935-1.097c-.448-.353-.847-.807-1.415-.96a.27.27 0 0 0 -.331.188c-.119.452-.396.807-.415 1.287a.256.256 0 0 0 .026.115.23.23 0 0 0 -.124.125c-.009.021-.017.044-.027.065v.003c-.171.4-.309.812-.447 1.223a.277.277 0 0 0 -.201.178c-.074.189-.138.382-.204.574a.366.366 0 0 0 -.04.074 3.034 3.034 0 0 0 -.085.266l-.022.058a.232.232 0 0 0 -.018.103c-.002.01-.007.021-.009.032a.353.353 0 0 0 -.007.07.411.411 0 0 1 -.027.051 4.542 4.542 0 0 1 -.193.15c-.225.167-.101.608.208.492.023-.008.043-.018.063-.028l.001.001.003-.002a.786.786 0 0 0 .274-.218l.143-.119a.236.236 0 0 0 .145.024c.636-.07 1.171-.371 1.713-.669.303-.083.609-.161.905-.261.269-.089.836-.241 1.005-.552.111-.033.22-.07.334-.092.147-.03.245-.22.186-.357m-2.659-1.971a.273.273 0 0 0 -.162-.075c.019-.041.038-.081.055-.123.148.075.281.172.409.28a1.398 1.398 0 0 0 -.302-.082m1.828 1.948a.317.317 0 0 0 0-.087c-.001-.015-.005-.027-.008-.04.039.032.077.064.115.098-.03.008-.057.016-.088.022z" fill="#80469a"/><path d="m99.3 69.239c-.28-.817.061-1.687-.176-2.505a.275.275 0 0 0 -.149-.409c-.341-.124-.663-.283-1.016-.372a.27.27 0 0 0 -.078-.151 7.627 7.627 0 0 0 -.405-.379.312.312 0 0 0 -.125-.062c-.037-.057-.093-.105-.155-.115a1.44 1.44 0 0 0 -.656.025.25.25 0 0 0 -.079.035 5.22 5.22 0 0 1 -.237-.035.298.298 0 0 0 -.168.021c-.04 0-.08-.004-.121-.004h-.003c-.082-.067-.192-.093-.293-.018-.143.111-.29.218-.432.326a.305.305 0 0 0 -.102.136c-.15.124-.307.239-.471.334-.268.155-.544.223-.777.435a.238.238 0 0 0 -.063.091l-.02.018c-.147.169-.059.448.177.458.003.031.003.061.005.089a.217.217 0 0 0 -.116.165 1.742 1.742 0 0 0 -.01.518c-.032.22-.057.441-.079.66-.018.161.092.25.228.26-.046.029-.063.072-.086.118-.009 0 .037.247.033.259-.144.405-.407.306-.065.341.105.012.214-.039.321-.031.012.006.022.012.036.016.382.138.714.147 1.084.051.119.016.239.031.364.041.241.021.474.008.707-.018.221.014.444.018.67.018a.264.264 0 0 0 .176-.059h.06c.253.072.517.066.791.059.323.048.639.036.971.026.166-.005.316-.169.259-.342" fill="#fccc11"/><path d="m59.871 82.182h-7.205c-.347 0-.347.539 0 .539h7.205c.347 0 .347-.539 0-.539" fill="#63c08c"/><path d="m81.526 56.448c.041-.514-.271-1.062-.936-1.062h-7.809a.916.916 0 0 0 -.576.184 1.07 1.07 0 0 0 -.287-.04h-7.664c-.072 0-.137.007-.2.019a1.037 1.037 0 0 0 -.338-.055h-31.339a.91.91 0 0 0 -.648.244c-.632-.216-1.475.11-1.475.979v8.06c0 .366.151.636.372.811-.181.625.15 1.42.996 1.42h5.108c.151 0 .285-.027.403-.071h15.897a.98.98 0 0 0 .399-.08.983.983 0 0 0 1.132.008h25.525a.891.891 0 0 0 .723-.329c.529.065 1.112-.245 1.112-.93v-8.384c.001-.363-.162-.621-.395-.774m-1.548 8.472h-25.509a1.04 1.04 0 0 0 -.305.044.984.984 0 0 0 -.874.061 1.02 1.02 0 0 0 -.259-.033h-15.746a1.074 1.074 0 0 0 -.554-.144h-4.321a.808.808 0 0 0 .003-.071v-7.341h31.303c.072 0 .14-.006.202-.018.1.035.212.055.336.055h7.664c.237 0 .43-.07.577-.182.089.024.183.038.286.038h7.196v7.591z" fill="#8bca91"/><path d="m58.771 40.106c0-.565-.459-1.025-1.025-1.025h-.534c-.566 0-1.028.46-1.028 1.025v8.156h-.539v-8.156c0-.863.702-1.565 1.567-1.565h.534c.864 0 1.564.702 1.564 1.565v8.084h-.539zm-2.588 11.071v.159c0 .565.462 1.025 1.028 1.025h.534c.566 0 1.025-.46 1.025-1.025v-.159h.369a.537.537 0 0 0 .17-.026v.185c0 .863-.7 1.565-1.564 1.565h-.534a1.568 1.568 0 0 1 -1.567-1.565v-.159zm-32.369 20.994h-7.592c-.864 0-1.566.701-1.566 1.564v6.965c.188.165.369.336.54.513v-7.477c0-.564.46-1.024 1.026-1.024h7.592c.565 0 1.025.46 1.025 1.024v8.78c0 .564-.46 1.024-1.025 1.024h-7.001c.086.178.167.356.243.539h6.758c.862 0 1.564-.702 1.564-1.563v-8.78a1.565 1.565 0 0 0 -1.564-1.565z" fill="#47b678"/><path d="m25.397 70.696h-9.175c-.864 0-1.566.702-1.566 1.565v8.439c.188.165.369.336.54.513v-8.951c0-.566.46-1.026 1.026-1.026h9.175c.565 0 1.024.46 1.024 1.026v11.622c0 .564-.459 1.024-1.024 1.024h-8.04c.056.179.112.359.159.539h7.881c.862 0 1.564-.7 1.564-1.563v-11.623c0-.863-.701-1.565-1.564-1.565zm11.186.634v-1.587c0-.852-.702-1.544-1.565-1.544h-.863c-.863 0-1.564.692-1.564 1.544v13.932c0 .852.701 1.544 1.564 1.544h.863c.864 0 1.565-.692 1.565-1.544v-9.575h-.541v9.574c0 .555-.458 1.005-1.025 1.005h-.863c-.565 0-1.025-.45-1.025-1.005v-13.931c0-.553.46-1.005 1.025-1.005h.863c.317 0 .6.142.788.363.129.085.22.229.22.431v.029c.011.06.017.12.017.182v1.587z" fill="#47b678"/><path d="m45.595 70.791h-8.455c-.438 0-.831.183-1.115.474v.065h9.57c.566 0 1.026.46 1.026 1.024v.757c0 .566-.46 1.026-1.026 1.026h-8.455c-.092 0-.179-.014-.265-.037h-.851v.104c.285.289.679.472 1.115.472h8.455c.864 0 1.565-.702 1.565-1.565v-.757a1.564 1.564 0 0 0 -1.564-1.563m11.047 3.736h-.972a1.567 1.567 0 0 1 -1.565-1.563v-3.199c0-.863.703-1.565 1.565-1.565h.972c.862 0 1.563.702 1.563 1.565v3.199c0 .861-.701 1.563-1.563 1.563m-.972-5.789c-.565 0-1.025.462-1.025 1.026v3.199c0 .563.46 1.024 1.025 1.024h.972c.564 0 1.024-.462 1.024-1.024v-3.199c0-.564-.46-1.026-1.024-1.026zm-30.274-5.095h-7.915a1.565 1.565 0 0 1 -1.564-1.565v-.251c0-.864.7-1.566 1.564-1.566h7.915c.863 0 1.565.702 1.565 1.566v.251c0 .863-.701 1.565-1.565 1.565m-7.915-2.842c-.565 0-1.025.459-1.025 1.025v.251c0 .565.46 1.025 1.025 1.025h7.915c.566 0 1.025-.46 1.025-1.025v-.251c0-.566-.459-1.025-1.025-1.025zm8.133-7.9h-8.133a1.566 1.566 0 0 1 -1.564-1.565v-3.85c0-.863.7-1.566 1.564-1.566h8.133c.863 0 1.565.703 1.565 1.566v3.85c0 .863-.701 1.565-1.565 1.565m-8.133-6.441c-.565 0-1.025.46-1.025 1.026v3.85c0 .565.46 1.025 1.025 1.025h8.133c.565 0 1.025-.46 1.025-1.025v-3.85c0-.565-.459-1.026-1.025-1.026zm30.134 4.876c0 .565-.461 1.025-1.025 1.025h-11.027c-.566 0-1.025-.46-1.025-1.025v-3.73c0-.565.459-1.025 1.025-1.025h11.027c.564 0 1.025.46 1.025 1.025v.553a.542.542 0 0 1 .269-.076h.27v-.477c0-.863-.702-1.564-1.564-1.564h-11.027c-.863 0-1.566.701-1.566 1.564v3.73c0 .863.703 1.565 1.566 1.565h11.027c.863 0 1.564-.703 1.564-1.565v-.052h-.539zm8.552-11.23c0-.565.461-1.025 1.025-1.025h.535c.566 0 1.027.46 1.027 1.025v8.156h.538v-8.156c0-.863-.7-1.565-1.565-1.565h-.535c-.862 0-1.564.702-1.564 1.565v8.084h.539zm2.588 11.071v.159c0 .565-.461 1.025-1.027 1.025h-.535c-.564 0-1.025-.46-1.025-1.025v-.159h-.368a.545.545 0 0 1 -.172-.026v.185c0 .863.702 1.565 1.564 1.565h.535c.865 0 1.567-.703 1.567-1.565v-.159z" fill="#47b678"/><path d="m80.541 67.111h-48.788a1.567 1.567 0 0 1 -1.564-1.566v-8.619c0-.863.702-1.565 1.564-1.565h48.787c.865 0 1.564.702 1.564 1.565v8.619a1.564 1.564 0 0 1 -1.563 1.566m-48.788-11.211c-.565 0-1.026.46-1.026 1.025v8.619c0 .566.461 1.026 1.026 1.026h48.787c.564 0 1.025-.46 1.025-1.026v-8.619c0-.565-.461-1.025-1.025-1.025z" fill="#378959"/><path d="m78.889 65.357h-45.475c-.815 0-1.477-.521-1.477-1.158v-6.05c0-.64.662-1.16 1.477-1.16h45.475c.814 0 1.478.52 1.478 1.16v6.05c0 .637-.663 1.158-1.478 1.158m-45.475-7.866c-.517 0-.938.295-.938.658v6.05c0 .362.421.655.938.655h45.475c.517 0 .937-.293.937-.655v-6.05c0-.363-.42-.658-.937-.658z" fill="#378959"/><path d="m45.242 86.904v-3.587m-.271 0h.541v3.587h-.541zm-1.143 3.587v-5.249m-.27 0h.541v5.249h-.541z" fill="#47b678"/><path d="m44.976 82.947h7.447v.541h-7.447zm-1.148-1.298h8.594v.541h-8.594z" fill="#47b678"/><path d="m52.039 81.653h.541v1.833h-.541zm47.412-9.291a1.547 1.547 0 0 0 -.734-.19h-7.699c-.864 0-1.564.701-1.564 1.564v8.78c0 .861.7 1.563 1.564 1.563h3.296c.111-.185.228-.363.354-.539h-3.65c-.565 0-1.025-.46-1.025-1.024v-8.78c0-.564.46-1.024 1.025-1.024h7.699c.289 0 .549.12.734.313z" fill="#47b678"/><path d="m99.451 70.887a1.548 1.548 0 0 0 -.734-.191h-9.176c-.861 0-1.563.702-1.563 1.565v11.622c0 .863.701 1.563 1.563 1.563h4.133a7.98 7.98 0 0 1 .217-.539h-4.35c-.563 0-1.024-.46-1.024-1.024v-11.622c0-.566.461-1.026 1.024-1.026h9.176c.289 0 .548.122.734.314zm-23.442.443v-1.587c0-.852.701-1.544 1.566-1.544h.861c.863 0 1.565.692 1.565 1.544v13.932c0 .852-.702 1.544-1.565 1.544h-.861a1.556 1.556 0 0 1 -1.566-1.544v-9.575h.54v9.574c0 .555.459 1.005 1.026 1.005h.861c.565 0 1.026-.45 1.026-1.005v-13.931c0-.553-.461-1.005-1.026-1.005h-.861c-.319 0-.601.142-.789.363a.495.495 0 0 0 -.222.431v.029a1.1 1.1 0 0 0 -.016.182v1.587z" fill="#47b678"/><path d="m66.996 70.791h8.455c.439 0 .831.183 1.116.474v.065h-9.571c-.565 0-1.024.46-1.024 1.024v.757c0 .566.459 1.026 1.024 1.026h8.455c.093 0 .182-.014.268-.037h.849v.104a1.563 1.563 0 0 1 -1.116.472h-8.455a1.566 1.566 0 0 1 -1.564-1.565v-.757a1.563 1.563 0 0 1 1.563-1.563m30.462-7.148h-7.917a1.566 1.566 0 0 1 -1.563-1.565v-.251c0-.864.701-1.566 1.563-1.566h7.917c.863 0 1.564.702 1.564 1.566v.251c0 .863-.701 1.565-1.564 1.565m-7.917-2.842c-.563 0-1.024.459-1.024 1.025v.251c0 .565.461 1.025 1.024 1.025h7.917c.565 0 1.024-.46 1.024-1.025v-.251c0-.566-.459-1.025-1.024-1.025zm7.917-8.44h-8.133c-.566 0-1.027-.46-1.027-1.025v-3.85c0-.565.461-1.026 1.027-1.026h6.141a10.078 10.078 0 0 1 -.239-.541h-5.901c-.863 0-1.565.703-1.565 1.566v3.85c0 .863.702 1.565 1.565 1.565h8.133c.568 0 1.049-.316 1.318-.773a9.59 9.59 0 0 1 -.351-.471 1.02 1.02 0 0 1 -.968.705zm-30.134-1.025c0 .565.461 1.025 1.025 1.025h11.026c.566 0 1.026-.46 1.026-1.025v-3.73c0-.565-.46-1.025-1.026-1.025h-11.026c-.564 0-1.025.46-1.025 1.025v.553a.539.539 0 0 0 -.269-.076h-.271v-.477c0-.863.702-1.564 1.564-1.564h11.026c.862 0 1.566.701 1.566 1.564v3.73c0 .863-.704 1.565-1.566 1.565h-11.025a1.567 1.567 0 0 1 -1.564-1.565v-.052h.539zm.025 35.568v-3.587m-.268 0h.54v3.587h-.54zm1.683 3.587v-5.249m-.27 0h.539v5.249h-.539z" fill="#47b678"/><path d="m60.169 82.947h7.446v.541h-7.446zm0-1.298h8.595v.541h-8.595z" fill="#47b678"/><path d="m60.014 81.653h.539v1.833h-.539z" fill="#47b678"/><path d="m52.719 96.922h7.204c.35 0 .35-.54 0-.54h-7.204c-.347 0-.347.54 0 .54" fill="#63c08c"/><path d="m76.549 102.393v-6.963c0-.553.458-1.003 1.024-1.003h.862c.566 0 1.026.45 1.026 1.003v5.471c.173-.06.359-.097.539-.147v-5.324c0-.852-.702-1.544-1.565-1.544h-.862c-.863 0-1.566.692-1.566 1.544v7.321c.178-.124.36-.24.542-.358zm-10.112 5.814c.203-.155.414-.299.639-.433h-.082a1.026 1.026 0 0 1 -1.024-1.024v-.756c0-.564.461-1.024 1.024-1.024h6.006c.246-.179.491-.359.733-.539h-6.74c-.862 0-1.564.7-1.564 1.563v.756c0 .666.42 1.232 1.008 1.457zm.912-16.007v3.59m-.268-3.59h.538v3.59h-.538zm1.682 0v5.25m-.271-5.25h.54v5.25h-.54z" fill="#47b678"/><path d="m60.167 95.619h7.448v.539h-7.448zm0 1.298h8.596v.539h-8.596z" fill="#47b678"/><path d="m60.012 95.621h.54v1.831h-.54zm-26.885 5.941v-6.132c0-.553.461-1.003 1.026-1.003h.863c.566 0 1.025.45 1.025 1.003v7.723c.183.1.362.208.539.32v-8.043c0-.852-.701-1.544-1.564-1.544h-.863c-.864 0-1.565.692-1.565 1.544v5.818c.181.101.362.202.539.314zm12.468 2.868h-7.688c.052.034.102.075.153.112.228.144.458.283.687.427h6.849c.564 0 1.025.46 1.025 1.024v.756c0 .565-.461 1.024-1.025 1.024h-1.896c.062.029.119.063.18.092.271.126.517.281.751.45h.964c.863 0 1.564-.705 1.564-1.566v-.756c0-.863-.701-1.563-1.564-1.563zm-.354-12.23v3.59m-.27-3.59h.539v3.59h-.539zm-1.144 0v5.25m-.269-5.25h.541v5.25h-.541z" fill="#47b678"/><path d="m44.974 95.619h7.449v.539h-7.449zm-1.147 1.298h8.594v.539h-8.594z" fill="#47b678"/><path d="m52.037 95.621h.542v1.831h-.542z" fill="#47b678"/><path d="m87.358 55.524-.518 1.018.393 1.664.933-.763-.165-1.22z" fill="#fff"/><path clip-path="url(#a)" d="m88.736 55.184a.194.194 0 0 0 .193-.194v-1.534a.195.195 0 0 0 -.193-.195.194.194 0 0 0 -.193.195v1.534a.193.193 0 0 0 .193.194" fill="#47b678"/><path clip-path="url(#a)" d="m89.025 54.99h-.602" fill="#fff"/><path clip-path="url(#a)" d="m88.425 55.184h.6a.194.194 0 0 0 .194-.194.196.196 0 0 0 -.194-.196h-.6a.197.197 0 0 0 -.197.196c0 .106.088.194.197.194" fill="#47b678"/><path clip-path="url(#a)" d="m87.358 55.524-.641-.602a2.701 2.701 0 0 1 4.613 1.911 2.702 2.702 0 0 1 -2.702 2.703c-.556 0-1.046.203-1.476-.085l-.534.074.016-.868 1.531-1.214-.33-1.55z" fill="#fff"/><path clip-path="url(#a)" d="m88.628 59.801a2.973 2.973 0 0 0 2.97-2.968 2.973 2.973 0 0 0 -2.97-2.968c-.791 0-1.536.309-2.097.87l-.195.192.838.79.366-.386-.431-.406a2.441 2.441 0 0 1 3.957 1.908 2.442 2.442 0 0 1 -2.438 2.438" fill="#47b678"/><path clip-path="url(#a)" d="m87.138 58.276.382-.37a1.53 1.53 0 0 1 -.434-1.074c0-.421.165-.814.467-1.108l.199-.192-.212-.202-.183.193-.174-.179a2.056 2.056 0 0 0 -.628 1.488c.001.543.207 1.056.583 1.444" fill="#47b678"/><path clip-path="url(#a)" d="m89.241 56.833a.61.61 0 1 0 -1.22 0 .61.61 0 0 0 1.22 0" fill="#edf2ec"/><path clip-path="url(#a)" d="m88.628 57.709a.877.877 0 0 1 0-1.751c.483 0 .877.393.877.875a.878.878 0 0 1 -.877.876m0-1.221a.345.345 0 1 0 .003.691.345.345 0 0 0 -.003-.691m-1.91-1.566 1.544 1.425" fill="#47b678"/><path clip-path="url(#a)" d="m87.225 54.584h.529v2.1h-.529z" fill="#47b678" transform="matrix(-.67740254 .73561254 -.73561254 -.67740254 187.683223 28.966904)"/><path clip-path="url(#a)" d="m88.341 57.371-1.108.835-.599.451v1.144l1.201-.058" fill="#fff"/><path clip-path="url(#a)" d="m86.368 59.801h2.308v-.53h-1.777v-.482l1.601-1.206-.319-.424-1.813 1.365z" fill="#47b678"/><path clip-path="url(#a)" d="m85.818 53.452h.3v.3h-.3z" fill="#63bf8b" transform="matrix(-.70550059 -.70870933 .70870933 -.70550059 108.627114 152.347269)"/><path clip-path="url(#a)" d="m86.92 52.504h.145v.144h-.145z" fill="#63bf8b" transform="matrix(-.70709444 -.70711912 .70711912 -.70709444 111.325357 151.267611)"/><path clip-path="url(#a)" d="m85.836 51.685c0-.085.066-.153.151-.153s.152.067.152.153a.151.151 0 1 1 -.303 0" fill="#63bf8b"/><path clip-path="url(#a)" d="m89.657 55.719a.194.194 0 0 0 .194-.194v-2.068c0-.108-.087-.195-.194-.195s-.196.087-.196.195v2.068a.195.195 0 0 0 .196.194" fill="#47b678"/><path d="m56.156 92.451c-1.616 0-2.931-1.315-2.931-2.932s1.314-2.934 2.931-2.934 2.932 1.317 2.932 2.934-1.316 2.932-2.932 2.932m0-5.539a2.609 2.609 0 0 0 -2.607 2.607 2.61 2.61 0 0 0 2.607 2.607 2.608 2.608 0 0 0 0-5.214" fill="#fff"/><path d="m56.156 89.878a.36.36 0 1 1 0-.72.36.36 0 0 1 0 .72m0-.613a.254.254 0 0 0 -.252.254.251.251 0 1 0 .503 0 .254.254 0 0 0 -.251-.254m-.25 1.044v1.175c0 .348.54.348.54 0v-1.175c0-.348-.54-.348-.54 0m.904-.111.548.346c.294.187.564-.281.273-.466l-.55-.345c-.294-.187-.566.281-.271.465m-.715-2.531c.348 0 .348-.541 0-.541-.346-.001-.346.541 0 .541m-2.131 2.186c.347 0 .347-.539 0-.539-.349 0-.349.539 0 .539m4.412 0c.348 0 .348-.539 0-.539s-.348.539 0 .539" fill="#fff"/><path clip-rule="evenodd" d="m40.824 80.382h.06c.026.024.062.046.078.077.143.279.283.559.421.84.06.12-.003.25-.133.283a.162.162 0 0 0 -.127.132.443.443 0 0 0 .183.429c.098.061.203.07.264-.071.098-.228.352-.285.565-.159a.653.653 0 0 1 .315.458c.032.161.012.318-.109.442-.04.042-.094.069-.145.108l.023.047.166.331c.073.147.149.295.223.442v.061c-.027.027-.046.062-.078.079-.278.142-.558.283-.838.419-.126.061-.251.002-.286-.134-.019-.071-.065-.108-.132-.124-.15-.037-.349.051-.432.19-.057.091-.067.193.07.252.228.099.298.355.161.572a.65.65 0 0 1 -.632.32.39.39 0 0 1 -.355-.248c-.002-.008-.007-.012-.012-.018-.28.138-.558.277-.835.415h-.043c-.031-.029-.073-.051-.089-.084a46.29 46.29 0 0 1 -.417-.834c-.062-.122 0-.252.132-.285.072-.016.109-.062.125-.132.036-.149-.05-.346-.19-.433-.092-.057-.197-.063-.253.072-.098.227-.347.291-.564.164a.655.655 0 0 1 -.319-.459c-.032-.163-.011-.318.109-.444.04-.039.095-.07.146-.105l-.119-.24c-.097-.194-.196-.388-.292-.582v-.06c.03-.029.054-.066.089-.086.274-.14.551-.277.827-.413.122-.061.251 0 .284.132.021.076.067.11.138.126.151.037.346-.052.43-.193.057-.096.056-.194-.073-.251-.226-.095-.293-.347-.165-.566a.653.653 0 0 1 .458-.316c.163-.03.317-.012.442.111.042.038.07.093.108.144.063-.031.131-.064.2-.1zm-1.554 4.864c.084-.043.164-.082.243-.12.16-.082.322-.161.481-.243.149-.077.286.01.309.138.01.064.055.096.113.11.153.045.363-.044.451-.191.058-.099.05-.194-.073-.248-.245-.107-.289-.365-.164-.57a.662.662 0 0 1 .561-.326.426.426 0 0 1 .331.114c.045.045.076.099.116.153.226-.112.456-.227.688-.346a.549.549 0 0 1 -.013-.027l-.349-.696c-.069-.138-.014-.268.135-.306.062-.016.097-.057.114-.117a.39.39 0 0 0 -.041-.283c-.049-.091-.116-.165-.219-.193-.073-.021-.129.006-.165.071l-.016.033c-.109.238-.364.281-.567.163a.668.668 0 0 1 -.315-.45c-.046-.208.02-.46.258-.551l-.35-.698-.144.071-.592.297c-.13.063-.261 0-.294-.138a.144.144 0 0 0 -.112-.114c-.144-.045-.346.032-.438.165-.068.101-.086.209.069.279.23.101.276.354.155.563a.672.672 0 0 1 -.45.314c-.21.046-.466-.023-.55-.261-.233.119-.465.233-.696.35l.002.01c.118.24.237.478.357.716.069.14.013.268-.136.307-.063.016-.096.056-.113.116-.043.151.043.358.189.446.098.062.197.057.251-.07.107-.248.373-.287.575-.16.188.116.289.29.317.506.024.19-.056.411-.269.489z" fill="#fff" fill-rule="evenodd"/><path d="m52.411 26h7.205c.347 0 .347-.54 0-.54h-7.205c-.348 0-.348.54 0 .54" fill="#63c08c"/><path d="m75.699 26.235v7.847h.54v-7.582a17.981 17.981 0 0 1 -.54-.265zm3.454 1.705v9.185c.177-.109.359-.214.539-.32v-8.602c-.179-.09-.359-.177-.539-.263z" fill="#47b678"/><path d="m66.686 37.392h8.454c.438 0 .832-.184 1.116-.474v-.067h-9.57a1.024 1.024 0 0 1 -1.025-1.025v-.756c0-.564.458-1.025 1.025-1.025h8.454c.094 0 .18.013.265.037h.852v-.106c-.284-.29-.68-.47-1.116-.47h-8.454c-.865 0-1.565.702-1.565 1.564v.755a1.564 1.564 0 0 0 1.564 1.567m.354-16.116v3.59m-.269-3.59h.54v3.589h-.54zm1.681.869v4.383m.018-4.899c-.1-.061-.191-.131-.287-.195v5.093h.54v-4.734c-.083-.056-.171-.103-.253-.164z" fill="#47b678"/><path d="m59.859 24.695h7.447v.54h-7.447zm0 1.297h8.593v.54h-8.593z" fill="#47b678"/><path d="m59.704 24.697h.539v1.832h-.539zm-27.425 3.327v9.133c.179-.016.359-.03.539-.042v-9.244c-.179.056-.359.106-.539.153zm3.454-1.502v7.56h.539v-7.93c-.175.127-.354.252-.539.37z" fill="#47b678"/><path d="m39.293 37.392h5.992c.863 0 1.566-.702 1.566-1.566v-.756c0-.863-.703-1.564-1.566-1.564h-8.455c-.437 0-.831.181-1.115.47v.106h.85c.085-.023.174-.037.265-.037h8.455c.566 0 1.026.46 1.026 1.025v.755c0 .566-.459 1.025-1.026 1.025h-9.57v.067a1.8 1.8 0 0 0 .177.15c1.15.044 2.286.149 3.401.325zm5.639-16.116v3.59m-.271-3.59h.541v3.589h-.541zm-1.144 1.071v4.181m-.269-4.511v4.511h.54v-4.795a6.598 6.598 0 0 1 -.54.284z" fill="#47b678"/><path d="m44.666 24.695h7.446v.54h-7.446zm-1.149 1.297h8.595v.54h-8.595z" fill="#47b678"/><path d="m51.727 24.697h.541v1.832h-.541z" fill="#47b678"/><path d="m25.175 42.695v-.005c-.002-.009-.004-.021-.01-.033l-.056-.127a6.38 6.38 0 0 0 -.147-.316 7.405 7.405 0 0 0 -.251-.445 5.721 5.721 0 0 0 -1.193-1.364 4.79 4.79 0 0 0 -.491-.37 4.614 4.614 0 0 0 -.537-.316c-.093-.047-.189-.09-.283-.133l-.199-.092a.152.152 0 0 0 -.061-.015.14.14 0 0 0 -.13.096c-.047.122-.097.243-.144.362l-.031.072-.113.28-.131.321-.189.466-.121.299-.14.346-.28.688-.199.489-.098.242c-.052.125-.104.25-.154.376l-.173.427-.126.312-.013.033a50.1 50.1 0 0 1 -.2.488c-.024.058-.015.112.024.151a.127.127 0 0 0 .089.037c.02 0 .041-.004.06-.013l.361-.146.193-.078.264-.107.277-.113.296-.119.363-.147.301-.124c.066-.025.132-.053.198-.081l.232-.094.299-.122.221-.09.307-.126.323-.131.335-.135.459-.188.337-.138.301-.122.144-.059a.132.132 0 0 0 .086-.121zm-.295-.058-.016.006-.118.048-.134.055a5.192 5.192 0 0 0 -1.096-1.607 5.168 5.168 0 0 0 -1.607-1.096l.109-.269a5.596 5.596 0 0 1 2.862 2.863m-.506.206-4.316 1.755 1.755-4.316a5.045 5.045 0 0 1 2.561 2.561" fill="#fff"/><path d="m22.821 42.063h-.01a.594.594 0 0 0 .003 1.188l.021-.001a.596.596 0 0 0 .572-.617.6.6 0 0 0 -.586-.57m.326.595a.334.334 0 0 1 -.328.333h-.002a.334.334 0 1 1 -.016-.669h.011a.332.332 0 0 1 .335.336m-1.81.122a.55.55 0 0 0 -.419.932.55.55 0 0 0 .803-.754.54.54 0 0 0 -.384-.178m.271.555a.286.286 0 0 1 -.293.286.292.292 0 0 1 -.211-.091.292.292 0 0 1 -.077-.212.287.287 0 0 1 .289-.28h.009a.288.288 0 0 1 .283.297m1.104-1.921a.55.55 0 0 0 -.547-.555.559.559 0 0 0 -.393.16.552.552 0 0 0 .385.942h.004a.553.553 0 0 0 .551-.547m-.558-.294h.009a.286.286 0 0 1 .288.291c0 .161-.13.292-.291.292a.295.295 0 0 1 -.292-.291.29.29 0 0 1 .286-.292m71.497 25.214v3.267c0 .212.327.212.327 0v-3.267c0-.209-.327-.209-.327 0" fill="#fff"/><path d="m97.047 69.438h-3.267c-.21 0-.21.326 0 .326h3.267c.21 0 .21-.326 0-.326" fill="#fff"/><path d="m95.031 67.074 1.314 2.324c.104.182.385.02.283-.165l-1.316-2.322c-.104-.183-.385-.02-.281.163m-1.173-.59 1.324-.541c.192-.08.109-.396-.086-.314l-.05.021c-.191.077-.107.392.087.313.018-.006.033-.014.049-.02a11.19 11.19 0 0 0 -.086-.314l-1.326.541c-.19.08-.107.395.088.314" fill="#fff"/><path d="m95.137 65.532v1.187c0 .214.325.214.325 0v-1.187c0-.21-.325-.21-.325 0" fill="#fff"/><path d="m95.679 65.116-.43.251c-.18.104-.018.386.165.281.143-.086.285-.167.428-.249.183-.107.018-.388-.163-.283" fill="#fff"/><path d="m95.629 65.359.716 3.994c.036.206.35.118.313-.087l-.715-3.995c-.036-.205-.349-.118-.314.088" fill="#fff"/><path d="m95.761 66.169-.704.706c-.149.149.08.381.228.233.236-.237.474-.472.707-.707.149-.148-.081-.377-.231-.232" fill="#fff"/><path d="m96.113 66.48c.133-.21.267-.419.401-.627.057-.089-.086-.17-.14-.083-.135.209-.269.417-.402.629-.055.089.084.17.141.081" fill="#fff"/><path d="m95.683 65.452c.213.13.426.256.639.384.089.055.173-.087.082-.14l-.639-.384c-.09-.055-.17.087-.082.14" fill="#fff"/><path d="m95.887 65.304h1.21c.105 0 .105-.163 0-.163h-1.21" fill="#47b678"/><path d="m96.204 66.199.259.26c.075.074.189-.041.116-.114a31.99 31.99 0 0 0 -.262-.26c-.073-.077-.19.04-.113.114" fill="#fff"/><path d="m96.48 66.36c-.108.227-.217.452-.323.677-.045.095.095.177.141.082.106-.226.214-.45.323-.676.042-.095-.1-.179-.141-.083m2.586-.022v3.267c0 .21.325.21.325 0v-3.267c0-.21-.325-.21-.325 0" fill="#fff"/><path d="m95.997 69.768h3.266c.21 0 .21-.326 0-.326h-3.266c-.21 0-.21.326 0 .326" fill="#fff"/><path d="m97.731 66.913c-.439.774-.878 1.548-1.315 2.324-.104.185.177.347.281.165l1.314-2.326c.104-.183-.178-.346-.28-.163m1.539-.742c-.441-.179-.884-.358-1.325-.541l-.088.316.052.018c.193.081.278-.235.087-.313-.017-.008-.033-.016-.051-.021-.193-.08-.278.236-.088.316.444.178.885.36 1.327.541.195.08.277-.236.086-.316" fill="#fff"/><path d="m97.58 65.534v1.188c0 .212.325.212.325 0v-1.188c0-.21-.325-.21-.325 0" fill="#fff"/><path d="m97.2 65.401c.142.084.285.167.427.249.183.104.347-.177.165-.281l-.428-.249c-.182-.107-.348.174-.164.281" fill="#fff"/><path d="m97.097 65.275c-.236 1.331-.476 2.662-.713 3.993-.038.205.276.293.313.087.24-1.331.479-2.662.715-3.994.037-.204-.277-.291-.315-.086" fill="#fff"/><path d="m97.05 66.404.707.707c.147.147.378-.082.229-.231l-.706-.706c-.148-.148-.377.081-.23.23" fill="#fff"/><path d="m97.07 66.402c-.133-.209-.269-.419-.401-.628-.057-.089-.196-.008-.14.081.132.21.268.417.4.629.057.087.196.006.141-.082" fill="#fff"/><path d="m97.276 65.316-.637.382c-.09.053-.008.194.083.142.212-.13.423-.256.637-.384.09-.055.008-.197-.083-.14m-.12-.173h-1.211c-.105 0-.105.165 0 .165h1.211c.104 0 .104-.165 0-.165m-.431.943-.261.26c-.075.075.041.19.115.116l.261-.26c.075-.076-.041-.19-.115-.116" fill="#fff"/><path d="m96.423 66.445.321.678c.045.093.187.011.14-.084l-.32-.675c-.046-.096-.186-.012-.141.081" fill="#fff"/><path clip-path="url(#b)" d="m41.601 61.187h1.861v.149c0 .339-.04.638-.12.898-.078.24-.208.466-.394.676-.417.472-.95.706-1.595.706-.63 0-1.169-.227-1.619-.682a2.265 2.265 0 0 1 -.674-1.645c0-.654.229-1.208.688-1.663a2.263 2.263 0 0 1 1.667-.686c.352 0 .68.072.985.214.292.144.579.376.861.699l-.484.464c-.37-.493-.82-.739-1.35-.739-.476 0-.877.165-1.2.494-.322.322-.484.726-.484 1.212 0 .501.179.914.54 1.239.337.301.701.453 1.093.453.335 0 .635-.114.902-.338.266-.228.415-.499.446-.814h-1.123zm4.268-2.159h.68v4.503h-.68zm4.557.639v3.864h-.679v-3.864h-1.036v-.639h2.747v.639zm6.359-.398v.803c-.392-.329-.798-.493-1.219-.493-.461 0-.851.166-1.169.5a1.684 1.684 0 0 0 -.478 1.213c0 .473.16.872.478 1.196.32.324.709.487 1.174.487.237 0 .442-.04.608-.117.095-.039.19-.09.29-.157.102-.066.206-.147.316-.239v.821a2.436 2.436 0 0 1 -1.225.332 2.26 2.26 0 0 1 -1.648-.675 2.234 2.234 0 0 1 -.68-1.639c0-.574.191-1.084.571-1.534.466-.55 1.07-.825 1.811-.825.404-.001.795.108 1.171.327" fill="#fff"/><path clip-path="url(#b)" d="m59.348 60.542c0-.634.231-1.178.697-1.634a2.293 2.293 0 0 1 1.669-.682c.642 0 1.19.23 1.65.688.459.459.69 1.01.69 1.653 0 .648-.232 1.197-.694 1.648a2.321 2.321 0 0 1 -1.685.68c-.579 0-1.101-.201-1.563-.604-.509-.445-.764-1.028-.764-1.749m.687.007c0 .497.165.906.501 1.227.333.32.717.48 1.15.48a1.62 1.62 0 0 0 1.196-.489c.326-.331.487-.732.487-1.206 0-.48-.159-.882-.48-1.206a1.59 1.59 0 0 0 -1.184-.49c-.47 0-.865.163-1.188.49-.32.322-.482.72-.482 1.194" fill="#47b678"/><path clip-path="url(#b)" d="m66.057 59.028h.679v4.503h-.679zm3.314 4.503v-4.809l3.286 3.436v-3.13h.677v4.778l-3.284-3.428v3.153z" fill="#fff"/><g fill="#fccc11"><path d="m84.265 42.626-.035-.014-.523-.31.553-.92.556.92-.448.265-.075.045zm-.411-.362.405.24.053-.029.354-.21-.406-.673z"/><path d="m84.259 43.117-.536-.756.03-.093.506.298.487-.288.061.065-.023.037zm-.291-.598.291.411.293-.411-.293.172zm-3.309.107-.032-.014-.526-.31.554-.92.556.92-.447.265c-.025.016-.051.03-.076.045zm-.409-.362.405.24c.017-.009.033-.02.052-.029l.353-.21-.406-.673z"/><path d="m80.656 43.117-.538-.756.03-.093.508.298.486-.288.06.065-.023.037zm-.291-.598.291.411.291-.411-.291.172zm-3.311.107-.033-.014-.525-.31.556-.92.553.92-.447.265c-.024.016-.049.03-.076.045zm-.412-.362.409.24c.016-.009.032-.02.05-.029l.355-.21-.405-.673z"/><path d="m77.051 43.117-.539-.756.03-.093.509.298.486-.288.06.065-.023.037zm-.291-.598.291.411.29-.411-.29.172zm-3.31.107-.034-.014-.526-.31.557-.92.553.92-.447.265c-.025.016-.05.03-.076.045zm-.41-.362.406.24c.017-.009.032-.02.05-.029l.355-.21-.405-.673z"/><path d="m73.446 43.117-.539-.756.032-.093.507.298.487-.288.059.065-.024.037zm-.292-.598.292.411.292-.411-.292.172zm-3.31.107-.034-.014-.525-.31.556-.92.554.92-.448.265c-.024.016-.049.03-.076.045zm-.411-.362.407.24c.016-.009.032-.02.051-.029l.355-.21-.406-.673z"/><path d="m69.84 43.117-.538-.756.031-.093.507.298.486-.288.06.065-.023.037zm-.291-.598.291.411.292-.411-.292.172zm-3.31.107-.034-.014-.526-.31.558-.92.554.92-.449.265c-.025.016-.05.03-.076.045zm-.41-.362.407.24.049-.029.355-.21-.404-.673z"/><path d="m66.236 43.117-.54-.756.032-.093.508.298.486-.288.059.065-.024.037zm-.293-.598.293.411.291-.411-.291.172zm-3.308.107-.036-.014-.525-.31.555-.92.555.92-.448.265c-.024.016-.049.03-.076.045zm-.413-.362.406.24.052-.029.355-.21-.407-.673z"/><path d="m62.628 43.117-.537-.756.031-.093.506.298.488-.288.059.065-.023.037zm-.291-.598.291.411.293-.411-.293.172zm2.88 59.691-.037-.014-.523-.313.554-.917.555.919-.448.264-.075.047zm-.412-.361.405.239.051-.029.355-.21-.406-.675z"/><path d="m65.21 102.702-.537-.757.031-.092.506.297.488-.287.058.066-.022.037zm-.292-.598.292.411.293-.411-.293.175zm-3.308.106-.035-.014-.524-.313.556-.917.554.919-.448.264-.075.047zm-.409-.361.405.239.05-.029.354-.21-.404-.675z"/><path d="m61.606 102.702-.538-.757.031-.092.507.297.487-.287.058.066-.023.037zm-.294-.598.294.411.292-.411-.292.175zm10.67.106-.037-.014-.522-.313.554-.917.555.919-.449.264a4.917 4.917 0 0 1 -.075.047zm-.412-.361.406.239c.017-.01.033-.02.051-.029l.355-.21-.406-.675z"/><path d="m71.976 102.702-.538-.757.03-.092.508.297.486-.287.06.066-.023.037zm-.292-.598.292.411.292-.411-.292.175zm-3.309.106-.036-.014-.523-.313.555-.917.555.919-.449.264-.075.047zm-.41-.361.405.239.051-.029.354-.21-.405-.675z"/><path d="m68.371 102.702-.539-.757.031-.092.508.297.487-.287.059.066-.024.037zm-.293-.598.293.411.292-.411-.292.175zm-10.073.106-.036-.014-.523-.313.554-.916.554.919-.447.264c-.024.016-.05.031-.073.047zm-.41-.361.405.239.052-.029.354-.21-.406-.675z"/><path d="m58 102.702-.537-.757.031-.092.506.297.488-.287.06.066-.024.037zm-.293-.598.293.411.293-.411-.293.175zm-3.307.106-.036-.014-.524-.313.555-.917.554.919-.449.265c-.023.016-.049.031-.073.047zm-.41-.361.405.239.052-.029.354-.21-.405-.675z"/><path d="m54.395 102.702-.536-.757.03-.092.506.297.488-.287.06.066-.024.037zm-.293-.598.292.411.292-.411-.292.175zm-3.308.106-.035-.014-.524-.313.555-.917.553.919-.447.264-.075.047zm-.411-.361.407.239a.815.815 0 0 1 .05-.029l.354-.21-.405-.675z"/><path d="m50.791 102.702-.539-.757.031-.092.508.297.487-.287.059.066-.024.037zm-.292-.598.292.411.291-.411-.291.175zm-3.31.106-.035-.014-.524-.313.555-.917.553.919-.447.264a4.917 4.917 0 0 1 -.075.047zm-.41-.361.406.239.05-.029.354-.21-.404-.675z"/><path d="m47.185 102.702-.539-.757.032-.092.507.297.487-.287.059.066-.024.037zm-.292-.598.292.411.293-.411-.293.175zm-2.734.106-.035-.014-.524-.313.555-.917.554.919-.448.264-.077.047zm-.411-.361.407.239a.815.815 0 0 1 .05-.029l.354-.21-.404-.675z"/><path d="m44.155 102.702-.539-.757.031-.092.508.297.487-.287.058.066-.022.037zm-.293-.598.292.411.292-.411-.292.175zm-3.308.106-.036-.014-.524-.313.555-.917.554.919-.448.264-.077.047zm-.411-.361.406.239.05-.029.354-.21-.404-.675z"/><path d="m40.549 102.702-.539-.757.032-.092.507.297.487-.287.058.066-.022.037zm-.292-.598.292.411.292-.411-.292.175zm11.561-59.478-.036-.014-.523-.31.552-.92.556.92-.45.265a.853.853 0 0 1 -.074.045zm-.41-.362.406.24.051-.029.353-.21-.406-.673z"/><path d="m51.812 43.117-.537-.756.031-.093.506.298.49-.288.059.065-.023.037zm-.291-.598.291.411.294-.411-.294.172zm-3.308.107-.035-.014-.524-.31.553-.92.555.92-.447.265c-.025.016-.05.03-.076.045zm-.41-.362.406.24.051-.029.355-.21-.407-.673z"/><path d="m48.208 43.117-.537-.756.03-.093.507.298.488-.288.059.065-.023.037zm-.292-.598.293.411.292-.411-.292.172zm-3.308.107-.035-.014-.524-.31.555-.92.553.92-.447.265c-.025.016-.049.03-.076.045zm-.411-.362.406.24.051-.029.354-.21-.406-.673z"/><path d="m44.604 43.117-.538-.756.03-.093.507.298.487-.288.059.065-.023.037zm-.294-.598.293.411.292-.411-.292.172zm-3.308.107-.035-.014-.524-.31.554-.92.555.92-.449.265c-.024.016-.048.03-.075.045zm-.41-.362.406.24.051-.029.354-.21-.405-.673z"/><path d="m40.998 43.117-.538-.756.031-.093.506.298.488-.288.059.065-.023.037zm-.293-.598.292.411.293-.411-.293.172zm-3.307.107-.036-.014-.524-.31.554-.92.554.92-.449.265c-.024.016-.049.03-.075.045zm-.41-.362.405.24.051-.029.354-.21-.406-.673z"/><path d="m37.393 43.117-.538-.756.031-.093.507.298.488-.288.059.065-.024.037zm-.293-.598.293.411.292-.411-.292.172zm-3.308.107-.035-.014-.525-.31.555-.92.554.92-.448.265-.075.045zm-.41-.362.406.24.051-.029.354-.21-.405-.673z"/><path d="m33.788 43.117-.537-.756.03-.093.507.298.488-.288.057.065-.023.037zm-.293-.598.292.411.292-.411-.292.172zm-3.018-.019-.035-.015-.524-.31.555-.918.554.919-.448.265c-.024.015-.049.03-.076.044zm-.412-.362.406.239a.815.815 0 0 0 .05-.029l.354-.21-.405-.672z"/><path d="m30.472 42.991-.538-.757.031-.093.507.299.487-.287.059.065-.023.037zm-.293-.598.293.412.292-.412-.292.173zm-3.417.107-.036-.015-.524-.31.555-.918.554.919-.448.265-.076.044zm-.41-.362.405.239.05-.029.355-.21-.405-.672z"/><path d="m26.757 42.991-.538-.757.031-.093.507.299.487-.287.059.065-.023.037zm-.293-.598.293.412.292-.412-.292.173zm64.945.233-.034-.014-.522-.31.552-.92.555.92-.448.265c-.024.016-.048.03-.073.045zm-.41-.362.405.24.054-.029.353-.21-.406-.673z"/><path d="m91.404 43.117-.536-.756.03-.093.506.298.488-.288.058.065-.022.037zm-.291-.598.291.411.293-.411-.293.172zm-3.337.107-.035-.014-.523-.31.553-.92.554.92-.448.265c-.022.016-.049.03-.074.045zm-.409-.362.405.24c.016-.009.032-.02.051-.029l.354-.21-.406-.673z"/><path d="m87.772 43.117-.539-.756.032-.093.507.298.486-.288.059.065-.022.037zm-.293-.598.293.411.293-.411-.293.172zm-3.214 3.642-.035-.015-.523-.31.553-.918.556.919-.448.265-.075.044zm-.411-.362.405.24c.018-.01.035-.021.053-.03l.354-.21-.406-.672z"/><path d="m84.259 46.652-.536-.757.03-.094.506.299.487-.287.061.063-.023.037zm-.291-.598.291.411.293-.411-.293.172zm.297 3.642-.035-.015-.523-.31.553-.918.556.919-.448.265-.075.044zm-.411-.361.405.24.053-.031.354-.209-.406-.672z"/><path d="m84.259 50.187-.536-.756.03-.094.506.299.487-.288.061.064-.023.037zm-.291-.599.291.412.293-.412-.293.173zm.297 3.643-.035-.015-.523-.31.553-.92.556.92-.448.266c-.025.013-.05.029-.075.044zm-.411-.361.405.239.053-.03.354-.209-.406-.672z"/><path d="m84.259 53.722-.536-.755.03-.094.506.3.487-.289.061.065-.023.037zm-.291-.598.291.412.293-.412-.293.172zm-21.182.107-.035-.015-.524-.31.556-.92.553.92-.447.266a.941.941 0 0 0 -.076.044zm-.411-.361.406.239.05-.03.353-.209-.402-.672z"/><path d="m62.782 53.722-.54-.755.033-.094.507.3.487-.289.058.065-.022.037zm-.294-.598.294.412.292-.412-.292.172zm-10.461.107-.034-.015-.525-.31.555-.92.555.92-.45.266-.075.044zm-.41-.361.406.239c.016-.01.035-.019.05-.03l.354-.209-.405-.672z"/><path d="m52.023 53.722-.538-.755.031-.094.507.3.488-.289.057.065-.023.037zm-.293-.598.293.412.292-.412-.292.172zm-21.254.107-.035-.015-.524-.31.554-.92.554.92-.447.266c-.026.013-.05.029-.076.044zm-.411-.361.406.239c.017-.01.035-.019.051-.03l.354-.209-.405-.672z"/><path d="m30.471 53.722-.538-.755.031-.094.507.3.488-.289.058.065-.024.037zm-.292-.598.292.412.292-.412-.292.172zm.297-3.382-.035-.016-.524-.31.554-.918.554.918-.447.265-.076.044zm-.411-.363.406.24.051-.03.354-.21-.405-.672z"/><path d="m30.471 50.232-.538-.756.031-.093.507.299.488-.288.058.064-.024.038zm-.292-.598.292.412.292-.412-.292.172zm.297-3.383-.035-.014-.524-.31.554-.919.554.919-.447.265c-.026.014-.05.03-.076.045zm-.411-.362.406.24.051-.029.354-.21-.405-.672z"/><path d="m30.471 46.742-.538-.756.031-.094.507.3.488-.288.058.065-.024.037zm-.292-.597.292.412.292-.412-.292.173zm-.258 35.077-.036-.014-.523-.311.554-.92.555.92-.448.264-.076.047zm-.41-.363.406.24a.524.524 0 0 0 .051-.03l.354-.21-.405-.671z"/><path d="m29.917 81.712-.537-.756.029-.094.508.299.488-.287.058.064-.023.036zm-.293-.597.292.412.292-.412-.292.171zm.297-3.383-.036-.016-.523-.311.554-.918.555.92-.448.266-.076.043zm-.41-.361.406.239.051-.029.354-.21-.405-.675z"/><path d="m29.917 78.222-.537-.756.029-.094.508.299.488-.287.058.064-.023.037zm-.293-.597.292.409.292-.409-.292.172zm.297-3.383-.036-.014-.523-.311.554-.919.555.919-.448.264-.076.047zm-.41-.363.406.24.051-.031.354-.209-.405-.672z"/><path d="m29.917 74.733-.537-.757.029-.095.508.3.488-.287.058.064-.023.037zm-.293-.598.292.411.292-.411-.292.173zm.297 18.168-.036-.014-.523-.311.554-.92.555.92-.448.266c-.026.014-.05.029-.076.045zm-.41-.359.406.237.051-.029.354-.208-.405-.675z"/><path d="m29.917 92.793-.537-.754.029-.096.508.299.488-.287.058.064-.023.038zm-.293-.596.292.411.292-.411-.292.17zm.297-3.384-.036-.016-.523-.309.554-.917.555.917-.448.266a1.46 1.46 0 0 1 -.076.043zm-.41-.361.406.241c.017-.012.035-.021.051-.031l.354-.21-.405-.673z"/><path d="m29.917 89.304-.537-.757.029-.094.508.299.488-.287.058.064-.023.039zm-.293-.597.292.411.292-.411-.292.172zm.297-3.384-.036-.014-.523-.311.554-.919.555.919-.448.267-.076.044zm-.41-.363.406.24.051-.029.354-.211-.405-.672z"/><path d="m29.917 85.814-.537-.757.029-.093.508.301.488-.289.058.063-.023.037zm-.293-.596.292.409.292-.409-.292.171zm-2.23-28.225-.035-.016-.523-.309.553-.92.555.92-.448.264-.076.045zm-.411-.362.406.24.051-.03.354-.21-.406-.672z"/><path d="m27.389 57.484-.537-.757.03-.093.507.298.489-.288.062.066-.028.037zm-.292-.598.292.411.292-.411-.292.173zm-3.373.107-.035-.016-.523-.309.553-.92.555.92-.449.264c-.024.015-.048.031-.074.045zm-.411-.362.406.24c.017-.01.034-.021.052-.03l.354-.21-.407-.672z"/><path d="m23.719 57.484-.537-.757.03-.093.507.298.489-.288.062.066-.029.037zm-.292-.598.292.411.292-.411-.292.173zm-3.374.107-.034-.016-.523-.309.553-.92.556.92-.449.264-.075.045zm-.41-.362.406.24c.017-.01.034-.021.052-.03l.354-.21-.406-.672z"/><path d="m20.048 57.484-.536-.757.029-.093.506.298.489-.288.064.066-.028.037zm-.291-.598.292.411.293-.411-.293.173zm-3.374.107-.035-.016-.524-.309.555-.92.555.92-.448.264-.075.045zm-.409-.362.405.24.051-.03.355-.21-.407-.672z"/><path d="m16.379 57.484-.536-.757.029-.093.507.298.49-.288.061.066-.027.037zm-.292-.598.292.411.293-.411-.293.173zm11.307 10.819-.035-.014-.523-.309.553-.92.555.92-.448.264c-.026.016-.051.029-.076.045zm-.411-.36.406.238.051-.029.354-.209-.406-.675z"/><path d="m27.389 68.197-.537-.757.03-.095.507.301.489-.289.062.065-.028.037zm-.292-.598.292.411.292-.411-.292.171zm-3.373.106-.035-.014-.523-.309.553-.92.555.92-.449.264c-.024.016-.048.029-.074.045zm-.411-.36.406.238a.869.869 0 0 1 .052-.029l.354-.209-.407-.675z"/><path d="m23.719 68.197-.537-.757.03-.095.507.301.489-.289.062.065-.029.037zm-.292-.598.292.411.292-.411-.292.171zm-3.374.106-.034-.014-.523-.309.553-.92.556.92-.449.264c-.024.016-.05.029-.075.045zm-.41-.36.406.238a.869.869 0 0 1 .052-.029l.354-.209-.406-.675z"/><path d="m20.048 68.197-.536-.757.029-.095.506.301.489-.289.063.065-.028.037zm-.291-.598.292.411.293-.411-.293.171zm-3.374.106-.035-.014-.524-.309.555-.92.555.92-.448.264-.075.045zm-.409-.36.405.238.051-.029.355-.209-.407-.675z"/><path d="m16.379 68.197-.536-.757.029-.095.507.301.49-.289.061.065-.027.037zm-.292-.598.292.411.293-.411-.293.171zm68.178-10.833-.035-.014-.523-.31.553-.919.556.919-.448.266-.075.044zm-.411-.362.405.24c.018-.009.035-.021.053-.03l.354-.21-.406-.672z"/><path d="m84.259 57.257-.536-.757.03-.093.506.299.487-.288.061.065-.023.036zm-.291-.598.291.412.293-.412-.293.173zm.297 3.643-.035-.015-.523-.309.553-.92.556.92-.448.264-.075.045zm-.411-.362.405.239.053-.029.354-.21-.406-.672z"/><path d="m84.259 60.793-.536-.757.03-.093.506.299.487-.289.061.066-.023.037zm-.291-.599.291.412.293-.412-.293.173zm.297 3.642-.033-.015-.525-.31.553-.919.556.92-.448.265-.075.044zm-.411-.361.405.24.053-.03.354-.21-.406-.672z"/><path d="m84.259 64.329-.536-.758.03-.093.506.3.489-.29.063.067-.028.035zm-.291-.6.291.411.293-.411-.293.173zm.297 3.642-.033-.014-.525-.309.553-.922.556.922-.448.264-.075.045zm-.411-.362.405.241c.018-.012.035-.021.053-.031l.354-.21-.406-.673z"/><path d="m84.259 67.863-.536-.756.03-.094.506.299.489-.291.063.07-.028.035zm-.291-.598.291.41.293-.41-.293.171zm3.843.106-.036-.014-.525-.309.555-.922.556.922-.449.264c-.024.016-.05.029-.075.045zm-.411-.362.404.241.052-.031.354-.21-.405-.673z"/><path d="m87.804 67.863-.536-.756.03-.094.506.299.488-.291.063.07-.028.035zm-.292-.598.292.41.293-.41-.293.171zm3.952.106-.037-.014-.525-.309.556-.922.555.922-.45.264c-.024.016-.049.029-.075.045zm-.414-.362.407.241c.016-.012.033-.021.05-.031l.355-.21-.405-.673z"/><path d="m91.458 67.863-.538-.756.03-.094.508.299.488-.291.063.07-.029.035zm-.294-.598.294.41.29-.41-.29.171zm-6.899 3.642-.033-.016-.525-.308.553-.922.556.922-.448.264c-.025.016-.05.03-.075.044zm-.411-.363.405.24.053-.031.354-.209-.406-.672z"/><path d="m84.259 71.398-.536-.759.03-.093.506.301.489-.289.063.065-.028.037zm-.291-.6.291.413.293-.413-.293.173zm.297 3.642-.033-.014-.525-.309.553-.92.556.92-.448.264-.075.045zm-.411-.361.405.241.053-.031.354-.21-.406-.671z"/><path d="m84.259 74.934-.536-.758.03-.094.506.299.489-.289.063.068-.028.034zm-.291-.6.291.412.293-.412-.293.173zm.297 3.642-.033-.014-.525-.311.553-.919.556.919-.448.267a.974.974 0 0 0 -.075.044zm-.411-.36.405.238.053-.031.354-.207-.406-.674z"/><path d="m84.259 78.467-.536-.757.03-.093.506.299.489-.289.063.067-.028.035zm-.291-.597.291.411.293-.411-.293.173zm.297 3.641-.033-.014-.525-.311.553-.92.556.922-.448.264c-.025.014-.05.031-.075.043zm-.411-.361.405.238.053-.028.354-.212-.406-.671z"/><path d="m84.259 82.003-.536-.758.03-.094.506.301.489-.291.063.068-.028.036zm-.291-.599.291.412.293-.412-.293.173zm.297 3.641-.033-.014-.525-.311.553-.919.556.919-.448.267c-.025.015-.05.028-.075.044zm-.411-.36.405.24.053-.031.354-.209-.406-.674z"/><path d="m84.259 85.539-.536-.759.03-.093.506.301.489-.289.063.065-.028.037zm-.291-.598.291.411.293-.411-.293.171zm.297 4.087-.033-.015-.525-.311.553-.918.556.918-.448.266-.075.045zm-.411-.362.405.238c.018-.01.035-.02.053-.028l.354-.21-.406-.673z"/><path d="m84.259 89.519-.536-.757.03-.095.506.301.489-.289.063.067-.028.033zm-.291-.6.291.411.293-.411-.293.175zm.297 3.642-.033-.014-.525-.311.553-.917.556.917-.448.268c-.025.014-.05.027-.075.043zm-.411-.361.405.241c.018-.01.035-.021.053-.029l.354-.212-.406-.671z"/><path d="m84.259 93.054-.536-.757.03-.096.506.301.489-.289.063.066-.028.037zm-.291-.599.291.413.293-.413-.293.172zm-21.333-61.167-.036-.014-.525-.31.555-.919.555.919-.448.265a.795.795 0 0 1 -.076.044zm-.413-.363.406.24c.018-.01.034-.021.052-.029l.355-.211-.407-.672z"/><path d="m62.628 31.778-.537-.757.031-.093.506.299.488-.289.063.067-.027.036zm-.291-.598.291.413.293-.413-.293.173zm.298 4.089-.036-.014-.525-.311.555-.919.555.921-.448.264a.622.622 0 0 1 -.076.043zm-.413-.362.406.238.052-.029.355-.21-.407-.672z"/><path d="m62.628 35.759-.537-.757.031-.093.506.3.488-.291.063.069-.027.035zm-.291-.598.291.412.293-.412-.293.173zm.298 3.642-.036-.014-.525-.31.555-.92.555.92-.448.265c-.024.015-.049.03-.076.044zm-.413-.362.406.239.052-.029.355-.21-.407-.672z"/><path d="m62.628 39.293-.537-.756.031-.093.506.299.488-.29.063.068-.027.036zm-.291-.597.291.412.293-.412-.293.172zm-10.603-7.408-.036-.014-.525-.31.554-.919.556.919-.45.265c-.024.016-.049.03-.074.044zm-.412-.363.405.24c.018-.01.035-.021.053-.029l.354-.211-.406-.672z"/><path d="m51.727 31.778-.537-.757.031-.093.506.299.489-.289.063.067-.029.036zm-.291-.598.291.413.292-.413-.292.173zm.298 4.089-.036-.014-.525-.311.554-.919.556.921-.45.264a.79.79 0 0 1 -.074.043zm-.412-.362.405.238.053-.029.354-.21-.406-.672z"/><path d="m51.727 35.759-.537-.757.031-.093.506.3.489-.291.063.069-.029.035zm-.291-.598.291.412.292-.412-.292.173zm.298 3.642-.036-.014-.525-.31.554-.92.556.92-.45.265-.074.044zm-.412-.362.405.239.053-.029.354-.21-.406-.672z"/><path d="m51.727 39.293-.537-.756.031-.093.506.299.489-.29.063.068-.029.036zm-.291-.597.291.412.292-.412-.292.172z"/></g><path d="m75.211 49.634c0 .906-.691 1.64-1.547 1.64h-32.526c-.855 0-1.547-.733-1.547-1.64s.691-1.641 1.547-1.641h32.527c.855.001 1.546.735 1.546 1.641" fill="#ec176d"/><path d="m73.32 50.964h-31.825c-.864 0-1.566-.597-1.566-1.33s.703-1.331 1.566-1.331h31.825c.865 0 1.568.598 1.568 1.331s-.703 1.33-1.568 1.33m-31.825-2.551c-.804 0-1.458.547-1.458 1.222 0 .673.654 1.222 1.458 1.222h31.825c.807 0 1.458-.548 1.458-1.222s-.651-1.222-1.458-1.222z" fill="#fff"/><path d="m48.698 48.963h.144v1.068h-.144v-.064a.27.27 0 0 1 -.401-.011.343.343 0 0 1 -.081-.235c0-.092.026-.168.081-.229a.266.266 0 0 1 .401-.005zm-.337.758c0 .06.015.107.046.144a.154.154 0 0 0 .123.057.16.16 0 0 0 .128-.054.21.21 0 0 0 .048-.145.21.21 0 0 0 -.048-.142.156.156 0 0 0 -.125-.056.156.156 0 0 0 -.123.056.203.203 0 0 0 -.049.14m.89-.002c0-.089.03-.165.096-.227a.316.316 0 0 1 .232-.094.32.32 0 0 1 .233.094c.064.063.096.14.096.231a.31.31 0 0 1 -.096.232.328.328 0 0 1 -.236.094.316.316 0 0 1 -.232-.096.313.313 0 0 1 -.093-.234m.145.002c0 .063.017.111.048.147.036.036.08.054.135.054.056 0 .1-.018.134-.054a.204.204 0 0 0 .049-.145.204.204 0 0 0 -.049-.143.175.175 0 0 0 -.134-.055.174.174 0 0 0 -.133.055.204.204 0 0 0 -.05.141m.923-.306h.141v.058a.238.238 0 0 1 .17-.074.21.21 0 0 1 .166.068c.034.038.052.101.052.187v.378h-.144v-.344c0-.061-.007-.104-.025-.125-.017-.024-.047-.036-.089-.036-.048 0-.082.016-.102.047a.323.323 0 0 0 -.029.161v.298h-.141v-.618zm1.083.032h-.109l-.028-.392h.163zm.591.101v.483h-.142v-.483h-.06v-.133h.06v-.225h.142v.225h.109v.133zm1.103-.389c0-.025.01-.046.026-.065a.1.1 0 0 1 .066-.026c.026 0 .048.009.066.026a.09.09 0 0 1 .026.065.093.093 0 0 1 -.026.066c-.018.019-.04.027-.065.027s-.047-.009-.067-.027a.096.096 0 0 1 -.026-.066m.163 1.208h-.142v-.952h.142zm.582-.952v.354c0 .103.041.154.121.154s.121-.051.121-.154v-.354h.142v.357c0 .05-.005.091-.017.127a.207.207 0 0 1 -.062.087.267.267 0 0 1 -.184.063.269.269 0 0 1 -.182-.063.228.228 0 0 1 -.063-.087.342.342 0 0 1 -.018-.127v-.357zm1.182.104-.119.063c-.018-.039-.041-.057-.068-.057a.044.044 0 0 0 -.033.013.041.041 0 0 0 -.015.033c0 .022.028.046.083.07a.502.502 0 0 1 .152.088.159.159 0 0 1 .041.112.192.192 0 0 1 -.066.148.22.22 0 0 1 -.155.058c-.103 0-.176-.051-.22-.152l.122-.055a.31.31 0 0 0 .039.055.088.088 0 0 0 .062.025c.049 0 .072-.023.072-.066 0-.025-.018-.049-.056-.071-.015-.008-.027-.015-.042-.021l-.045-.021a.27.27 0 0 1 -.087-.061.149.149 0 0 1 -.032-.099.18.18 0 0 1 .19-.185c.079.002.137.043.177.123m.573.029v.483h-.143v-.483h-.061v-.133h.061v-.225h.143v.225h.111v.133zm1.299-.111h.421v-.382h.147v.976h-.147v-.455h-.421v.455h-.148v-.976h.148zm1.012.101c0-.136.054-.254.151-.354a.503.503 0 0 1 .363-.148c.139 0 .259.05.357.149.102.1.15.219.15.358a.479.479 0 0 1 -.15.357.513.513 0 0 1 -.705.017.48.48 0 0 1 -.166-.379m.151.002c0 .109.034.197.109.266a.34.34 0 0 0 .248.104c.103 0 .19-.035.259-.106a.357.357 0 0 0 .106-.261.362.362 0 0 0 -.618-.262.345.345 0 0 0 -.104.259m1.317.491v-.977h.204c.099 0 .177.009.232.029.061.018.117.05.167.096.101.092.15.213.15.362a.468.468 0 0 1 -.324.461.742.742 0 0 1 -.229.027h-.2zm.144-.139h.067a.555.555 0 0 0 .166-.021.338.338 0 0 0 .228-.329.339.339 0 0 0 -.109-.26c-.064-.061-.158-.09-.285-.09h-.067zm1.202-.837v.837h.286v.139h-.434v-.976zm.746.793.126.049-.181.361-.096-.04zm-.033-.363c0-.024.009-.044.023-.061a.083.083 0 0 1 .062-.026c.025 0 .046.009.063.026.018.017.025.037.025.061s-.008.045-.025.063a.085.085 0 0 1 -.063.025.085.085 0 0 1 -.062-.026.095.095 0 0 1 -.023-.062m1.29.546v-.977h.147c.064 0 .116.005.156.016a.215.215 0 0 1 .098.051c.028.023.05.055.064.092a.25.25 0 0 1 .027.114c0 .07-.028.129-.082.178a.24.24 0 0 1 .123.093c.03.044.046.095.046.153a.261.261 0 0 1 -.08.193.254.254 0 0 1 -.111.067.637.637 0 0 1 -.166.019h-.222zm.148-.557h.046c.054 0 .096-.013.121-.036.025-.024.037-.061.037-.107s-.012-.082-.037-.105a.171.171 0 0 0 -.116-.036h-.051zm0 .418h.091c.067 0 .115-.013.147-.039a.143.143 0 0 0 .049-.108.14.14 0 0 0 -.049-.106c-.029-.028-.084-.042-.164-.042h-.074zm1.024-.837v.588c0 .083.014.146.043.184a.197.197 0 0 0 .171.083.206.206 0 0 0 .175-.083.339.339 0 0 0 .04-.184v-.588h.148v.628a.362.362 0 0 1 -.097.255.363.363 0 0 1 -.267.111.356.356 0 0 1 -.362-.366v-.628zm1.068 0h.147v.977h-.147zm.641.976v-.977h.207c.097 0 .175.009.231.029.062.018.117.05.167.096.1.092.15.213.15.362a.471.471 0 0 1 -.324.461.745.745 0 0 1 -.227.027h-.204zm.148-.139h.064a.55.55 0 0 0 .166-.021.33.33 0 0 0 .228-.329.34.34 0 0 0 -.107-.26c-.064-.061-.159-.09-.287-.09h-.064zm1.201-.837v.837h.286v.139h-.434v-.976z" fill="#fff"/><path d="m32.279 36.851h7.579v.541h-7.579zm39.834 0h7.579v.541h-7.579z" fill="#47b678"/><path d="m79.365 36.61h.327v.44h-.327zm-61.561 35.962h7.001m-8.584 12.845h9.175c.864 0 1.565-.703 1.565-1.566v-8.438a9.064 9.064 0 0 1 -.54-.514v8.952c0 .565-.46 1.026-1.026 1.026h-9.175a1.027 1.027 0 0 1 -1.025-1.026v-11.621c0-.566.46-1.026 1.025-1.026h8.041c-.057-.179-.114-.356-.16-.539h-7.88c-.863 0-1.564.702-1.564 1.565v11.62c0 .863.701 1.567 1.564 1.567z" fill="#47b678"/><path d="m9.826 38.141v53.121l46.072 26.559 46.074-26.559v-53.121l-46.074-26.561zm90.281 1.08v50.971l-44.209 25.489-44.211-25.489v-50.971l44.211-25.489z" opacity=".13"/></svg>