<svg height="128.047" viewBox="0 0 110.913 128.047" width="110.913" xmlns="http://www.w3.org/2000/svg" xmlns:xlink="http://www.w3.org/1999/xlink"><linearGradient id="a" gradientUnits="userSpaceOnUse" x1="55.419" x2="55.419" y1="110.031" y2="18.179"><stop offset="0" stop-color="#071143"/><stop offset=".003" stop-color="#091244"/><stop offset=".074" stop-color="#311d65"/><stop offset=".139" stop-color="#4e267d"/><stop offset=".196" stop-color="#602b8c"/><stop offset=".236" stop-color="#662d91"/><stop offset=".261" stop-color="#5b2a88"/><stop offset=".306" stop-color="#3d216f"/><stop offset=".364" stop-color="#0c1347"/><stop offset=".37" stop-color="#071143"/><stop offset=".391" stop-color="#06194f"/><stop offset=".471" stop-color="#053577"/><stop offset=".545" stop-color="#034994"/><stop offset=".608" stop-color="#0256a6"/><stop offset=".654" stop-color="#025aac"/><stop offset=".718" stop-color="#0257a8"/><stop offset=".787" stop-color="#034e9a"/><stop offset=".859" stop-color="#043f85"/><stop offset=".931" stop-color="#052a66"/><stop offset="1" stop-color="#071143"/></linearGradient><linearGradient id="b" gradientUnits="userSpaceOnUse" x1="40.254" x2="22.244" y1="51.385" y2="28.572"><stop offset="0" stop-color="#fff"/><stop offset=".102" stop-color="#fafdff" stop-opacity=".898"/><stop offset=".226" stop-color="#ebf9fe" stop-opacity=".774"/><stop offset=".361" stop-color="#d2f1fc" stop-opacity=".639"/><stop offset=".504" stop-color="#b0e6fa" stop-opacity=".496"/><stop offset=".653" stop-color="#84d7f7" stop-opacity=".347"/><stop offset=".808" stop-color="#4ec6f3" stop-opacity=".192"/><stop offset=".965" stop-color="#0fb2ef" stop-opacity=".035"/><stop offset="1" stop-color="#00adee" stop-opacity="0"/></linearGradient><linearGradient id="c"><stop offset="0" stop-color="#fff" stop-opacity="0"/><stop offset="1" stop-color="#0ff"/></linearGradient><linearGradient id="d" gradientUnits="userSpaceOnUse" x1="25.434" x2="36.434" xlink:href="#c" y1="25.325" y2="49.825"/><linearGradient id="e" gradientUnits="userSpaceOnUse" x1="55.363" x2="55.363" y1="38.102" y2="99.063"><stop offset=".485" stop-color="#0ff" stop-opacity=".4"/><stop offset=".601" stop-color="#00fdfd" stop-opacity=".61"/><stop offset=".642" stop-color="#01f6f6" stop-opacity=".686"/><stop offset=".672" stop-color="#03eaeb" stop-opacity=".74"/><stop offset=".696" stop-color="#06dada" stop-opacity=".784"/><stop offset=".717" stop-color="#09c4c4" stop-opacity=".821"/><stop offset=".735" stop-color="#0ea8a9" stop-opacity=".854"/><stop offset=".752" stop-color="#138888" stop-opacity=".884"/><stop offset=".767" stop-color="#186263" stop-opacity=".912"/><stop offset=".78" stop-color="#1f393a" stop-opacity=".936"/><stop offset=".788" stop-color="#231f20" stop-opacity=".95"/><stop offset="1" stop-color="#231f20" stop-opacity=".95"/></linearGradient><radialGradient id="f" cx="55.363" cy="65.117" gradientUnits="userSpaceOnUse" r="24.738"><stop offset="0" stop-color="#fff"/><stop offset=".193" stop-color="#d3f1fc"/><stop offset=".627" stop-color="#64cdf5"/><stop offset="1" stop-color="#00adee"/></radialGradient><linearGradient id="g"><stop offset="0" stop-color="#00adee"/><stop offset="1" stop-color="#fff" stop-opacity="0"/></linearGradient><linearGradient id="h" gradientUnits="userSpaceOnUse" x1="44.691" x2="44.691" xlink:href="#g" y1="45.737" y2="80.65"/><linearGradient id="i" gradientUnits="userSpaceOnUse" x1="71.691" x2="71.691" xlink:href="#g" y1="45.836" y2="80.75"/><linearGradient id="j" gradientTransform="matrix(.70709444 .70711912 -.70711912 .70709444 38.860159 -21.680407)" gradientUnits="userSpaceOnUse" x1="62.375" x2="62.375" xlink:href="#g" y1="30.325" y2="65.24"/><linearGradient id="k" gradientTransform="matrix(.70709444 .70711912 -.70711912 .70709444 38.860159 -21.680407)" gradientUnits="userSpaceOnUse" x1="89.375" x2="89.375" xlink:href="#g" y1="30.423" y2="65.338"/><linearGradient id="l" gradientTransform="matrix(0 1 -1 0 81.589 -9.343)" gradientUnits="userSpaceOnUse" x1="63.79" x2="63.79" xlink:href="#g" y1="6.846" y2="41.759"/><linearGradient id="m" gradientTransform="matrix(0 1 -1 0 81.589 -9.343)" gradientUnits="userSpaceOnUse" x1="90.791" x2="90.791" xlink:href="#g" y1="6.943" y2="41.858"/><linearGradient id="n" gradientTransform="matrix(-.70709444 .70711912 -.70711912 -.70709444 103.269174 29.513452)" gradientUnits="userSpaceOnUse" x1="48.379" x2="48.379" xlink:href="#g" y1="-10.683" y2="24.23"/><linearGradient id="o" gradientTransform="matrix(-.70709444 .70711912 -.70711912 -.70709444 103.269174 29.513452)" gradientUnits="userSpaceOnUse" x1="75.379" x2="75.379" xlink:href="#g" y1="-10.585" y2="24.33"/><linearGradient id="p" gradientTransform="matrix(-1 0 0 -1 90.932 72.246)" gradientUnits="userSpaceOnUse" x1="24.895" x2="24.895" xlink:href="#g" y1="-12.253" y2="22.66"/><linearGradient id="q" gradientTransform="matrix(-1 0 0 -1 90.932 72.246)" gradientUnits="userSpaceOnUse" x1="51.897" x2="51.897" xlink:href="#g" y1="-12.155" y2="22.758"/><linearGradient id="r" gradientTransform="matrix(-.70709444 -.70711912 .70711912 -.70709444 52.069449 93.926404)" gradientUnits="userSpaceOnUse" x1="7.372" x2="7.372" xlink:href="#g" y1="3.315" y2="38.228"/><linearGradient id="s" gradientTransform="matrix(-.70709444 -.70711912 .70711912 -.70709444 52.069449 93.926404)" gradientUnits="userSpaceOnUse" x1="34.372" x2="34.372" xlink:href="#g" y1="3.415" y2="38.329"/><linearGradient id="t" gradientTransform="matrix(0 -1 1 0 9.342 81.588)" gradientUnits="userSpaceOnUse" x1="5.797" x2="5.797" xlink:href="#g" y1="26.641" y2="61.553"/><linearGradient id="u" gradientTransform="matrix(0 -1 1 0 9.342 81.588)" gradientUnits="userSpaceOnUse" x1="32.798" x2="32.798" xlink:href="#g" y1="26.74" y2="61.655"/><linearGradient id="v" gradientTransform="matrix(.70709444 -.70711912 .70711912 .70709444 -12.337469 42.729449)" gradientUnits="userSpaceOnUse" x1="21.367" x2="21.367" xlink:href="#g" y1="44.322" y2="79.237"/><linearGradient id="w" gradientTransform="matrix(.70709444 -.70711912 .70711912 .70709444 -12.337469 42.729449)" gradientUnits="userSpaceOnUse" x1="48.368" x2="48.368" xlink:href="#g" y1="44.421" y2="79.337"/><linearGradient id="x"><stop offset=".002" stop-color="#662d91"/><stop offset="1" stop-opacity="0"/></linearGradient><linearGradient id="y" gradientUnits="userSpaceOnUse" x1="54.788" x2="49.454" xlink:href="#x" y1="91.372" y2="99.872"/><radialGradient id="z" cx="55.363" cy="65.117" gradientUnits="userSpaceOnUse" r="24.738"><stop offset=".545" stop-color="#fff" stop-opacity="0"/><stop offset=".595" stop-color="#ebffff" stop-opacity=".103"/><stop offset=".695" stop-color="#b8ffff" stop-opacity=".313"/><stop offset=".839" stop-color="#65ffff" stop-opacity=".614"/><stop offset="1" stop-color="#0ff" stop-opacity=".95"/></radialGradient><linearGradient id="A" gradientUnits="userSpaceOnUse" x1="59.514" x2="65.514" xlink:href="#x" y1="88.171" y2="97.338"/><linearGradient id="B" gradientUnits="userSpaceOnUse" x1="55.364" x2="55.364" y1="88.281" y2="106.171"><stop offset="0" stop-color="#fff" stop-opacity="0"/><stop offset=".04" stop-color="#f2fafd" stop-opacity=".038"/><stop offset=".236" stop-color="#b4e1f4" stop-opacity=".224"/><stop offset=".424" stop-color="#82cded" stop-opacity=".403"/><stop offset=".599" stop-color="#5abee7" stop-opacity=".569"/><stop offset=".759" stop-color="#3db2e3" stop-opacity=".721"/><stop offset=".897" stop-color="#2cabe1" stop-opacity=".853"/><stop offset="1" stop-color="#26a9e0" stop-opacity=".95"/></linearGradient><linearGradient id="C" gradientUnits="userSpaceOnUse" x1="55.364" x2="55.364" y1="90.615" y2="80.775"><stop offset=".002"/><stop offset="1" stop-opacity="0"/></linearGradient><linearGradient id="D" gradientUnits="userSpaceOnUse" x1="55.363" x2="55.363" y1="68.615" y2="89.561"><stop offset="0" stop-color="#fff" stop-opacity="0"/><stop offset=".114" stop-color="#f3eff7" stop-opacity=".108"/><stop offset=".337" stop-color="#d5c5e1" stop-opacity=".321"/><stop offset=".648" stop-color="#a482bd" stop-opacity=".615"/><stop offset="1" stop-color="#662d91" stop-opacity=".95"/></linearGradient><linearGradient id="E" gradientUnits="userSpaceOnUse" x1="52.098" x2="115.338" y1="71.098" y2="113.1"><stop offset="0" stop-color="#fff" stop-opacity="0"/><stop offset=".021" stop-color="#fff" stop-opacity=".081"/><stop offset=".267" stop-color="#fff"/><stop offset="1" stop-color="#00adee" stop-opacity="0"/></linearGradient><linearGradient id="F" gradientUnits="userSpaceOnUse" x1="54.139" x2="90.801" xlink:href="#c" y1="59.017" y2="82.382"/><path d="m101.52 90.631v-53.201l-46.1-26.599-46.101 26.599v53.201l46.101 26.599z" fill="url(#a)"/><path d="m30.082 20.739-4.75 15.833 5.583-.417-2.416 5.25 8.313-.458-5.514 7.299 7.01 1.542-1.961 4.138-10.451-2.968 4.353-7.053-5.834.033 2.334-5.199-4.818.033 6.318-17.7z" fill="url(#b)" opacity=".6"/><path d="m31.299 48.246 5.513-7.299-8.313.458 2.416-5.25-5.582.417 4.75-15.833-1.834.333-.209.677.977-.178-4.625 15.646 5.582-.417-2.416 5.438 7.379-.479-5.517 7.383 7.822 1.479 1.067-.833z" fill="url(#d)" opacity=".7"/><path d="m71.927 86.329c6.716-4.979 11.062-12.91 11.062-21.846 0-15.075-12.368-27.294-27.626-27.294-15.256 0-27.624 12.219-27.624 27.294 0 8.936 4.346 16.866 11.063 21.846a25.542 25.542 0 0 1 -.484-.366l-3.915 4.844 20.895 14.004v.024l.066.02 20.963-14.048-3.914-4.844c-.162.124-.324.245-.486.366z" fill="url(#e)"/><circle cx="55.363" cy="65.118" fill="url(#f)" r="24.738"/><g opacity=".5" stroke="#fff" stroke-width=".296"><path d="m45.077 65.118c0-12.12 5.459-22.083 12.448-23.243a23.862 23.862 0 0 0 -2.312-.114c-12.899 0-23.356 10.458-23.356 23.357s10.457 23.355 23.356 23.355c.78 0 1.551-.038 2.312-.111-6.989-1.162-12.448-11.124-12.448-23.244z" fill="url(#h)"/><path d="m64.514 43.66c4.989 3.524 8.491 11.849 8.491 21.558s-3.502 18.033-8.491 21.557c8.432-3.523 14.356-11.848 14.356-21.557s-5.925-18.033-14.356-21.558z" fill="url(#i)"/></g><g opacity=".5" stroke="#fff" stroke-width=".296"><path d="m48.09 57.844c8.57-8.568 19.477-11.753 25.238-7.632a23.351 23.351 0 0 0 -1.555-1.714c-9.121-9.122-23.911-9.122-33.032 0-9.121 9.121-9.121 23.909 0 33.03a24.237 24.237 0 0 0 1.715 1.555c-4.121-5.765-.935-16.667 7.634-25.239z" fill="url(#j)"/><path d="m77.01 56.416c1.032 6.018-2.376 14.382-9.24 21.247-6.866 6.864-15.231 10.272-21.25 9.239 8.453 3.47 18.529 1.771 25.395-5.093 6.863-6.865 8.562-16.941 5.095-25.393z" fill="url(#k)"/></g><g opacity=".5" stroke="#fff" stroke-width=".296"><path d="m55.362 54.832c12.12 0 22.084 5.459 23.245 12.448.074-.76.111-1.532.111-2.312 0-12.899-10.456-23.356-23.356-23.356-12.899 0-23.355 10.457-23.355 23.356 0 .779.039 1.552.113 2.312 1.16-6.989 11.123-12.448 23.242-12.448z" fill="url(#l)"/><path d="m76.822 74.27c-3.526 4.985-11.85 8.489-21.559 8.489-9.708 0-18.032-3.504-21.558-8.489 3.525 8.43 11.85 14.354 21.558 14.354 9.71 0 18.035-5.925 21.559-14.354z" fill="url(#m)"/></g><g opacity=".5" stroke="#fff" stroke-width=".296"><path d="m62.638 57.844c8.569 8.572 11.754 19.475 7.635 25.237a23.239 23.239 0 0 0 1.711-1.553c9.122-9.121 9.122-23.909 0-33.03-9.12-9.122-23.908-9.122-33.03 0a23.529 23.529 0 0 0 -1.554 1.713c5.761-4.12 16.666-.936 25.238 7.633z" fill="url(#n)"/><path d="m64.067 86.762c-6.021 1.033-14.385-2.375-21.249-9.239-6.865-6.865-10.272-15.229-9.24-21.247-3.469 8.452-1.771 18.528 5.094 25.394s16.94 8.561 25.395 5.092z" fill="url(#o)"/></g><g opacity=".5" stroke="#fff" stroke-width=".296"><path d="m65.649 65.118c0 12.12-5.459 22.082-12.447 23.244.76.073 1.53.111 2.31.111 12.9 0 23.358-10.456 23.358-23.355s-10.458-23.357-23.357-23.357c-.78 0-1.551.04-2.311.114 6.988 1.16 12.447 11.123 12.447 23.243z" fill="url(#p)"/><path d="m46.212 86.576c-4.986-3.525-8.49-11.85-8.49-21.558 0-9.709 3.504-18.032 8.49-21.557-8.43 3.524-14.354 11.848-14.354 21.557-.001 9.709 5.924 18.033 14.354 21.558z" fill="url(#q)"/></g><g opacity=".5" stroke="#fff" stroke-width=".296"><path d="m62.638 72.393c-8.571 8.568-19.477 11.754-25.238 7.632.484.59 1.002 1.164 1.554 1.715 9.122 9.121 23.91 9.121 33.03 0 9.122-9.121 9.122-23.909 0-33.03a23.496 23.496 0 0 0 -1.711-1.555c4.119 5.761.934 16.667-7.635 25.238z" fill="url(#r)"/><path d="m33.718 73.82c-1.032-6.019 2.376-14.382 9.241-21.247 6.864-6.864 15.229-10.273 21.248-9.239-8.455-3.469-18.53-1.772-25.396 5.093-6.865 6.866-8.562 16.94-5.093 25.393z" fill="url(#s)"/></g><g opacity=".5" stroke="#fff" stroke-width=".296"><path d="m55.362 75.404c-12.119 0-22.082-5.46-23.242-12.448a23.858 23.858 0 0 0 -.113 2.311c0 12.9 10.456 23.357 23.355 23.357 12.9 0 23.356-10.457 23.356-23.357 0-.779-.037-1.55-.111-2.311-1.161 6.988-11.125 12.448-23.245 12.448z" fill="url(#t)"/><path d="m33.905 55.967c3.524-4.986 11.85-8.49 21.557-8.49 9.711 0 18.034 3.504 21.561 8.49-3.526-8.43-11.85-14.354-21.561-14.354-9.709-.001-18.032 5.924-21.557 14.354z" fill="url(#u)"/></g><g opacity=".5" stroke="#fff" stroke-width=".296"><path d="m48.09 72.393c-8.57-8.57-11.755-19.477-7.634-25.238a23.328 23.328 0 0 0 -1.715 1.554c-9.121 9.122-9.121 23.91 0 33.031s23.911 9.121 33.032 0a23.313 23.313 0 0 0 1.553-1.715c-5.76 4.121-16.666.936-25.236-7.632z" fill="url(#v)"/><path d="m46.66 43.474c6.019-1.033 14.384 2.375 21.25 9.24 6.864 6.865 10.272 15.229 9.238 21.247 3.469-8.453 1.771-18.528-5.094-25.393s-16.94-8.563-25.394-5.094z" fill="url(#w)"/></g><path d="m55.362 89.857a24.635 24.635 0 0 1 -15.264-5.271l-4.826 5.866 20.09 13.377 20.094-13.377-4.826-5.866a24.64 24.64 0 0 1 -15.268 5.271z" fill="#808184"/><path d="m55.362 89.857a24.635 24.635 0 0 1 -15.264-5.271l-4.826 5.866 20.09 13.377 20.094-13.377-4.826-5.866a24.64 24.64 0 0 1 -15.268 5.271z" fill="url(#y)"/><circle cx="55.363" cy="65.118" fill="url(#z)" r="24.738"/><path d="m70.63 84.587a24.647 24.647 0 0 1 -15.268 5.271c-.019 0-.039-.003-.059-.003v13.959l.059.017 20.094-13.377z" fill="#4d4d4d"/><path d="m70.63 84.587a24.647 24.647 0 0 1 -15.268 5.271c-.019 0-.039-.003-.059-.003v13.959l.059.017 20.094-13.377z" fill="url(#A)"/><path d="m55.362 89.857a24.635 24.635 0 0 1 -15.264-5.271l-4.826 5.866 20.09 13.377 20.094-13.377-4.826-5.866a24.64 24.64 0 0 1 -15.268 5.271z" fill="url(#B)" opacity=".5"/><path d="m55.362 89.858c-13.486 0-24.443-10.792-24.725-24.21-.003.176-.013.35-.013.525 0 13.66 11.075 24.735 24.737 24.735 13.663 0 24.739-11.075 24.739-24.735 0-.176-.01-.35-.014-.525-.278 13.418-11.236 24.21-24.724 24.21z" fill="url(#C)"/><g fill="#fff"><path d="m79.896 31.808s-4.258-.026-4.712-.481c-.455-.455-.497-4.712-.497-4.712h-.082s-.061 4.274-.498 4.712c-.438.438-4.712.481-4.712.481v.115s4.218-.014 4.712.481.498 4.712.498 4.712h.082s.025-4.241.497-4.712c.471-.471 4.712-.481 4.712-.481z"/><path d="m79.546 64.887s-19.633-.121-21.729-2.217c-2.102-2.096-2.294-21.727-2.294-21.727h-.378s-.28 19.707-2.297 21.727c-2.018 2.016-21.727 2.217-21.727 2.217v.528s19.447-.063 21.727 2.223c2.279 2.285 2.297 21.729 2.297 21.729h.378s.116-19.553 2.294-21.729c2.172-2.179 21.729-2.223 21.729-2.223z" opacity=".2"/><path d="m41.212 26.988s-2.095-.013-2.318-.237-.244-2.319-.244-2.319h-.041s-.029 2.104-.244 2.319c-.216.215-2.318.237-2.318.237v.056s2.074-.007 2.318.237c.242.244.244 2.319.244 2.319h.041s.013-2.087.244-2.319c.232-.232 2.318-.237 2.318-.237zm53.588 31.469s-1.42-.009-1.571-.16c-.152-.151-.166-1.571-.166-1.571h-.027s-.02 1.425-.166 1.571-1.571.16-1.571.16v.038s1.407-.005 1.571.161c.165.164.166 1.57.166 1.57h.027s.009-1.414.166-1.57c.156-.158 1.571-.161 1.571-.161z"/><circle cx="52.644" cy="29.781" r=".365"/><circle cx="50.56" cy="26.948" r=".182"/><circle cx="68.562" cy="35.38" r=".183"/><circle cx="82.728" cy="36.297" r=".183"/><circle cx="85.478" cy="34.547" r=".183"/><circle cx="97.728" cy="54.88" r=".183"/><circle cx="84.478" cy="53.63" r=".183"/><circle cx="97.804" cy="63.031" r=".183"/><circle cx="88.077" cy="69.281" r=".183"/><circle cx="81.462" cy="45.281" r=".183"/><circle cx="56.962" cy="34.281" r=".183"/><circle cx="46.877" cy="32.448" r=".183"/><circle cx="45.961" cy="25.281" r=".183"/><circle cx="95.645" cy="67.463" r=".183"/><circle cx="25.394" cy="53.797" r=".183"/><circle cx="24.811" cy="57.129" r=".183"/><circle cx="69.645" cy="38.963" r=".183"/><circle cx="14.461" cy="53.031" r=".183"/><circle cx="20.394" cy="70.046" r=".183"/><circle cx="14.811" cy="70.63" r=".183"/><circle cx="14.561" cy="67.363" r=".183"/><circle cx="31.16" cy="30.115" r=".183"/><circle cx="54.081" cy="19.906" r=".183"/><circle cx="32.492" cy="33.198" r=".183"/><circle cx="80.16" cy="23.781" r=".183"/><circle cx="65.395" cy="26.365" r=".365"/><circle cx="91.645" cy="47.031" r=".365"/><circle cx="86.312" cy="48.281" r=".365"/><circle cx="19.894" cy="50.781" r=".365"/><circle cx="14.978" cy="59.166" r=".365"/><circle cx="20.81" cy="60.916" r=".365"/><circle cx="16.456" cy="44.031" r=".365"/><circle cx="24.81" cy="69.25" r=".365"/><circle cx="88.728" cy="64.584" r=".365"/><circle cx="96.971" cy="40.366" r=".365"/><circle cx="87.395" cy="37.417" r=".365"/><circle cx="84.895" cy="38.833" r=".365"/><circle cx="73.196" cy="40.865" r=".365"/><circle cx="44.362" cy="35.948" r=".365"/></g><circle cx="55.363" cy="65.118" fill="url(#D)" r="24.738"/><path d="m55.561 67.615 13.906 3.86-3.905 8.473 10.499-2.809-5.79 11.862 12.253-4.73-8.834 14.583 11.609-3.44-13.737 18.701 28.782-16.209 6.635-20.448-20.206 10.748 9.244-12.897-17.412 6.879 5.803-9.673-12.467 2.364 3.12-6.039-19.5-5.392z" fill="url(#E)" opacity=".6"/><path d="m86.957 88.031 9.027-12.687-17.626 6.879 6.05-9.708-12.467 2.364 3.12-6.039-19.917-5.392v.521l18.688 5.312-3.169 6.725 11.717-2.282-6.085 10.519 16.411-6.379-10.371 14.495 21.205-11.248 3.653-3.654z" fill="url(#F)" opacity=".7"/><path d="m55.429 49.059c-8.674 0-15.707 7.033-15.707 15.707 0 6.476 3.918 12.034 9.513 14.44l3.243-8.727a6.43 6.43 0 1 1 5.903.001l3.244 8.727c5.593-2.406 9.51-7.965 9.51-14.44 0-8.675-7.03-15.708-15.706-15.708z" fill="none" stroke="#fff" stroke-linecap="round" stroke-linejoin="round"/><path d="m55.42 10.832 46.099 26.599v53.201l-46.099 26.6-46.101-26.601v-53.2zm55.5 21.2-55.5-32-55.401 32v63.999l55.401 32 55.5-31.999z" fill="#2e3192"/><path d="m99.119 89.231-43.7 25.2-43.6-25.201v-50.4l43.6-25.2 43.7 25.2zm2.301 1.4v-53.201l-46-26.6-46 26.6v53.101l46 26.6z" opacity=".13"/></svg>