<svg xmlns="http://www.w3.org/2000/svg" width="111" height="128" viewBox="8.75 -8.625 111 128"><path fill="#F4D706" d="M119.744 87.5l-55.426 32-55.424-32V23.501l55.424-32 55.426 32z"/><path fill="#FFF31A" d="M64.818 2.679l15.141 8.74.689.4 5.891 3.401 1.399.809 2.3 1.32.87.5 3.691 2.13.09.05 5.59 3.23 2.419 1.4 1.94 1.12 3.16 1.82 2.82 1.63v53.13l-10.429 6.02-.241.12-.129.061-.111.059-3.029 1.74-1.871 1.08-.039.03-3.25 1.88-2.25 1.3-1.66.96-1.711.99-.959.55-4.62 2.67-.63.37-.061.03-3.5 2.02-11.559 6.68-9.681-5.6-5.359-3.1-.691-.4-5.09-2.94-3.06-1.77-.57-.33-7.13-4.12-.09-.05-4.67-2.7-9.61-5.55v-53.13l14.33-8.28 6.92-3.989 3.411-1.961 1.159-.67 1.54-.9 2.801-1.61.689-.4 1.46-.84 5.72-3.3z"/><path fill="none" d="M108.553 33.036h.002v-.001zM21.31 54.358c.235-.702.464-1.407.712-2.163-.571.331-1.046.652-1.559.895-1.982.937-2.428.755-3.339-1.237-.151-.332-.082-.507.114-.809.403-.624.852-1.298.978-2.005.285-1.604.126-3.286.907-4.821-1.603 1.039-2.996 2.241-3.718 4.036-.365.908-.319 1.81.241 2.668.254.39.434.833.61 1.267.198.485.328.997.533 1.478.655 1.542 3.178 2.033 4.4.866.051-.048.1-.11.121-.175z"/><path fill="none" d="M106.016 33.834c-.259.312-.521.625-.756.955-.986 1.38-2.213 2.408-3.894 2.86-.501.134-.948.468-1.535.77 1.155.393 2.424.329 3.353-.122 2.062-1 3.604-2.549 4.77-4.503.164-.274.398-.507.602-.758h-.002c-1.408-.43-1.559-.384-2.538.798zM73.027 80.756c-1.11 2.438-2.575 4.696-4.485 6.698.187.065.271.121.358.124 2.662.096 5.326.207 7.99.249.303.005.743-.312.896-.599.475-.892.498-1.857.23-2.842-.174-.633-.398-1.287-.389-1.928.053-3.176-.152-6.29-1.732-9.057-.922 2.404-1.768 4.937-2.868 7.355zm-51.335-10.44c-.311.609-.476 1.193-.84 1.596a51.224 51.224 0 0 1-3.03 3.047c-.541.506-.666 1.059-.523 1.74.351 1.666 1.165 3.064 2.413 4.215 1.435 1.32 2.957 2.507 4.94 2.873.734.137 1.403-.104 1.798-.751.333-.548.808-1.142.36-1.841-2.153-3.371-3.893-6.937-5.118-10.879z"/><path fill="none" d="M108.555 33.036c-.421 1.036-.711 2.151-1.285 3.09-1.164 1.898-2.809 3.219-5.176 3.166-.762-.017-1.518-.343-2.46-.572 0 .494-.083.97.015 1.406.801 3.616.039 7.063-1.092 10.471-.127.373-.373.706-.563 1.058.125-1.475.331-2.886.558-4.293.23-1.43.149-2.847-.115-4.347-.334.044-.658.023-.927.135-.864.362-1.571.945-1.926 1.825-.39.972-.672 1.985-1.019 2.975-.223.636-.473 1.262-.711 1.894.045-1.149.205-2.252.326-3.358.166-1.506.354-2.994 1.934-3.997-2.584.543-3.084.934-4.182 3.056-.336.646-.727 1.264-1.092 1.895.207-.998.536-1.931.862-2.865.841-2.412 3.401-3.635 5.823-2.792.195.067.422.039.658.056-.236-1.467-.236-1.47-1.621-1.492-.551-.008-1.102-.016-1.649.005-.453.017-.903.076-1.354.117-.015-.075-.027-.148-.041-.223.649-.177 1.293-.396 1.953-.519.555-.104.627-.475.45-.828-.149-.302-.496-.643-.802-.692-.301-.049-.684.206-.977.407-.15.104-.062.381-.146.58-.036-.009.004-.017.004-.025v-1.66c0-.033-.968-.063-1.376-.093.618-.395 1.233-.544 1.813-.864 1.19-.654 2.336-.834 3.584-.22.02.009.053-.044.197-.143-.751-1.18-1.436-2.42-2.281-3.531-1.248-1.641-2.875-2.777-4.987-3.04-.455-.056-.925-.008-1.386-.008a5.487 5.487 0 0 1-.027-.185l1.518-.44c-2.113-1.755-4.156-3.522-6.271-5.194-3.581-2.826-7.636-3.98-12.16-3.116-3.422.654-6.653 1.889-9.72 3.537-2.109 1.133-3.601 2.922-5.111 4.962l6.375-.286c-.292.095-.505.188-.727.23-2.015.386-4.026.793-6.049 1.134-1.625.273-3.295.374-4.561 1.636-.49.489-1.024.937-1.485 1.452-2.661 2.974-5.238 6.024-7.977 8.923-2.22 2.351-3.817 5.045-5.169 7.942-.769 1.646-.676 3.1.431 4.549 1.204 1.578 2.336 3.209 3.438 4.732l5.273-6.484.167.12c-.108.199-.21.401-.323.597-1.239 2.151-2.539 4.271-3.698 6.464-.662 1.254-1.138 2.613-1.614 3.955-.278.783-.13 1.535.571 2.125.474.397.86.898 1.327 1.305 1.979 1.729 4.673 2.082 7.013.89 1.382-.704 2.726-1.483 4.089-2.224 1.936-1.051 3.904-2.115 6.101-2.377 1.317-.158 1.86-.781 2.151-1.898.036-.139.09-.271.132-.406.9-3.013.722-6.063.19-9.087-.653-3.724-.978-7.433-.188-11.17.078-.369.179-.733.27-1.099.155.173.169.315.186.456.342 2.912.582 5.841 1.052 8.731.488 2.993 1.039 5.964.855 9.014-.135 2.234-.657 4.379-1.477 6.453-.076.19-.355.412-.554.426a15.438 15.438 0 0 0-5.76 1.58c-2.203 1.09-4.328 2.342-6.549 3.39-2.859 1.351-5.678 1.176-8.218-.791-1.125-.87-2.089-1.955-3.099-2.97a.92.92 0 0 1-.228-.692c.16-.985.249-2.015.616-2.927.322-.803.294-1.456-.099-2.15-.435-.768-.858-1.545-1.346-2.277a26.763 26.763 0 0 0-1.662-2.248c-1.849-2.223-1.971-4.491-.659-7.093 1.607-3.184 3.5-6.128 5.9-8.761 1.041-1.142 2.017-2.343 3.022-3.517a41.59 41.59 0 0 0-5.421 1.057C28.45 41.01 19.507 53.1 22.494 66.619c1.115 5.048 3.308 9.595 6.106 13.88.411.629.521 1.201.352 1.872-.524 2.076-1.047 4.154-1.603 6.225-.233.867-.092 1.479.637 2.014.324.236.68.463 1.057.591 2.576.881 5.198 1.59 7.92 1.81 1.665.135 2.21-.342 2.521-1.984.04-.209.092-.43.063-.635-.188-1.291.28-2.381.985-3.414.377-.552.801-1.094 1.05-1.703.318-.778.638-1.61.677-2.434.096-2.027.031-4.063.036-6.096.001-.237.033-.475.051-.713l.212-.006c.211 1.014.47 2.02.617 3.043.091.635.428.824.982.9 3.358.465 6.707.416 10.049-.146.462-.077.717-.285.867-.776.301-.985.601-1.935.966-2.899.024.014-.039.032-.039.045v6.688c0-.432-.53-.798-.832-1.173-1.332.801-2.573 1.602-3.891 2.368-1.034.601-1.24 1.067-.958 2.223.506 2.074 1.829 3.718 3.003 5.423a8.726 8.726 0 0 0 1.607 1.729c1.43 1.191 3.341.973 4.518-.465.332-.406.603-.862.92-1.281.185-.244.385-.491.622-.682 1.044-.838 2.061-1.719 3.167-2.467 2.977-2.015 5.163-4.682 6.889-7.812a28.657 28.657 0 0 0 2.357-5.662c.596-1.985 1.123-3.987 1.677-5.983.176-.636.019-1.043-.649-1.338-1.72-.761-3.061-2.019-4.236-3.459-.088-.111-.146-.246-.266-.453 1.129.676 2.12 1.348 3.178 1.885 1.062.539 2.199.92 3.281 1.42.551.252 1.106.551 1.571.937 1.285 1.068 2.499 2.226 3.79 3.288 1.666 1.369 3.51 1.732 5.547.835 2.279-1.006 3.992-3.54 3.867-5.786-1.034-.378-1.037-.379-1.296.639-.07.275-.117.56-.173.84-.145.748-.434 1.416-1.068 1.883-.997.73-2.117.954-3.322.753-.449-.073-.891-.192-1.336-.293 1.01 1.146 2.316.808 3.596.876-.631.313-1.278.611-1.949.678-1.854.186-3.027-.921-3-2.781.012-.662.097-1.334.24-1.979.287-1.3.78-2.563.615-3.935-.063-.512-.129-1.021-.179-1.418 1.517.619 2.995 1.324 4.54 1.834 3.747 1.233 7.536 2.266 11.559 1.834 2.896-.31 5.48-1.328 7.549-3.402 3.588-3.6 4.94-8.13 5.182-13.059.141-2.87-.137-5.734-.734-8.536-.553-2.577-.816-5.303-2.831-7.326zM62.81 34.205c-.835.279-1.663.608-2.521.789-.763.16-1.243.569-1.689 1.172-.978 1.322-1.8 2.697-2.022 4.362-.012.084-.083.159-.216.401-.313-1.678-.537-3.178.391-4.599l-.244-.141c-.527.638-1.186 1.207-1.559 1.925-1.086 2.092-2.06 4.242-3.075 6.371-.161.337-.307.681-.528.993.792-3.217 1.593-6.434 3.371-9.28.702-1.124 1.676-1.91 3.12-2.011 2.067-.145 4.126-.392 6.236-.462-.422.16-.837.337-1.264.48zm12.402 1.771c-.823 1.027-1.284 2.343-1.853 3.431-1.198-2.461 1.125-5.416 4.798-6.01-.919.781-2.112 1.537-2.945 2.579zm9.267 24.747c-1.603.52-2.607 1.574-3.028 3.205-.063.247-.203.479-.313.713-.017.032-.072.045-.32.188.3-1.288.509-2.438.856-3.542.093-.29.595-.539.954-.639a11.57 11.57 0 0 1 2.704-.401c-.286.159-.551.379-.853.476zm-5.25-12.395c-.074-.062-.147-.125-.223-.187.393-.591.74-1.216 1.188-1.762.438-.531.994-.961 1.449-1.48.112-.13.123-.486.024-.639-.343-.533-.905-.606-1.464-.461-.555.143-.878.555-.943 1.134-.023.21-.004.425-.004.639l-.216.078c-.263-.564-.522-1.128-.798-1.72-.68.399-1.396.82-2.111 1.242l-.143-.187c1.227-1.383 2.402-2.814 3.705-4.12.453-.454 1.197-.669 1.848-.861.998-.296 2.029-.478 3.13-.608l-1.332.947c.608.81 1.22 1.622 1.917 2.548l2.393-.321c.023.071.047.143.068.214-3.317 1.104-6.158 2.931-8.488 5.544zm-58.614-1.925l-.558-1.243c-.39.768-.273 1.119.558 1.243z"/><path fill="#F4D706" d="M118.758 68.561l.001-.002zM62.39 18.918c-4.486.836-6.302 2.36-7.439 7.116 1.545-3.351 4.087-5.655 7.439-7.116zm-7.143 3.242l3.031-2.879c-1.586.083-2.69 1.143-3.031 2.879zm30.009 20.729c-.697-.926-1.309-1.738-1.917-2.548l1.332-.947c-1.101.13-2.132.312-3.13.608-.65.192-1.395.407-1.848.861-1.303 1.306-2.479 2.737-3.705 4.12l.143.187 2.111-1.242c.273.592.535 1.156.798 1.72l.216-.078c0-.213-.021-.429.004-.639.065-.579.391-.991.943-1.134.559-.145 1.121-.071 1.464.461.099.153.088.509-.024.639-.455.519-1.013.949-1.449 1.48-.446.546-.795 1.171-1.188 1.762l.223.187c2.33-2.613 5.174-4.439 8.488-5.546-.021-.071-.045-.143-.068-.214l-2.393.323zm-30.539-6.691c-1.778 2.846-2.578 6.063-3.371 9.28.221-.312.368-.656.528-.993 1.015-2.129 1.988-4.279 3.075-6.371.373-.718 1.031-1.288 1.559-1.925.082.046.163.094.244.141-.928 1.421-.704 2.921-.391 4.599.133-.243.204-.317.216-.401.222-1.665 1.044-3.04 2.022-4.362.446-.603.926-1.012 1.689-1.172.858-.181 1.686-.509 2.521-.789.427-.143.842-.32 1.264-.481-2.11.07-4.169.317-6.236.462-1.444.102-2.418.888-3.12 2.012zm18.642 3.208c.568-1.087 1.029-2.404 1.853-3.431.833-1.042 2.026-1.797 2.945-2.579-3.673.595-5.996 3.549-4.798 6.01zm8.313 21.88c-.35 1.104-.559 2.254-.855 3.542.246-.143.304-.155.318-.188.111-.236.25-.467.314-.715.421-1.63 1.427-2.686 3.029-3.203.303-.098.566-.316.852-.478-.951.03-1.844.166-2.704.401-.36.102-.86.351-.954.641z"/><path fill="#F4D706" d="M111.738 33.801c-.627-1.665-1.926-2.567-3.559-3.048-1.453-.429-2.414-.106-3.343 1.1-.555.718-1.051 1.481-1.599 2.205-.715.945-1.689 1.499-2.831 1.836-.171-.351-.308-.654-.466-.947-1.33-2.48-3.03-4.608-5.481-6.109-1.276-.782-2.465-1.723-3.636-2.665-1.545-1.243-2.992-2.606-4.551-3.83-3.346-2.628-7.094-4.242-11.431-4.059-4.602.195-8.834 1.717-12.848 3.873-2.649 1.423-4.541 3.688-6.342 6.03-.194.252-.538.502-.839.54-1.515.188-2.763.892-3.864 1.89-.973.882-1.94 1.774-2.849 2.722-.463.484-.985.657-1.607.797-2.837.639-5.734 1.12-8.478 2.046-6.229 2.102-11.198 5.899-14.513 11.679-.779 1.359-1.877 2.402-3.134 3.289-.413.291-.909.463-1.259.637l1.131-3.538 1.323 1.729c.152-.712.305-1.258.379-1.814.196-1.467.264-2.914-.862-4.12-.092-.098-.026-.394.035-.574.224-.663.477-1.317.73-2.009-.172-.017-.242-.03-.311-.028-.095.003-.194.004-.285.031-3.334.984-5.955 2.886-7.527 6.04-.623 1.251-.574 2.588.261 3.748.489.678.796 1.387 1.003 2.177.114.435.305.854.502 1.261.719 1.48 1.943 2.176 3.558 2.236.373.016.748.004 1.146.004-.418 3.012-.325 6.008.048 9.004.053.424.243.905.113 1.268-.55 1.527-.825 3.193-2.239 4.302-.748.587-1.309 1.415-2.069 1.979-1.377 1.021-1.538 2.312-1.102 3.813.073.253.122.514.215.758 1.834 4.842 5.315 7.575 10.489 8.279-.273.688-.609 1.449-.876 2.234-.569 1.67-.133 2.955 1.364 3.881a8.27 8.27 0 0 0 2.009.918c1.922.566 3.857 1.098 5.807 1.558 1.605.38 3.241.623 4.898.306 1.201-.229 2.204-.781 2.562-2.014.263-.906.475-1.874.449-2.809-.031-1.118.296-2.053.869-2.952.27-.423.541-.845.829-1.255.667-.949.884-1.938.704-3.076-.046-.29-.053-.719-.069-.719h5.443c-2.082 1.945-2.453 2.51-1.678 4.648 1.145 3.162 2.924 5.954 5.425 8.211 2.609 2.354 6.813 1.534 8.591-1.506.262-.447.514-.949.894-1.279 1.113-.978 2.311-1.86 3.429-2.83.405-.351.714-.406 1.185-.164.351.182.774.289 1.17.297 2.887.066 5.774.152 8.662.113 1.228-.017 2.299-.597 2.74-1.852.518-1.473.698-2.968-.063-4.449-.165-.32-.195-.73-.216-1.103-.092-1.716.093-3.492-.295-5.138-.526-2.233-1.483-4.365-2.252-6.543-.092-.261-.15-.531-.226-.797.454.211.745.488 1.037.766.782.736 1.536 1.507 2.354 2.201 3.946 3.354 10.41 1.391 11.996-3.627.221-.697.436-1.397.653-2.102 4.577.62 8.981.492 13.22-1.9l.006.002c.14 0 .352-.145.496-.306 0 .007.004.015.004.021 10.014-5.656 8.824-18.25 6.252-27.765-.444-1.223-.853-2.366-1.281-3.502zM20.057 45.16l.558 1.243c-.831-.124-.948-.475-.558-1.243zm-3.267 8.507c-.205-.481-.335-.993-.533-1.478-.177-.434-.356-.877-.61-1.267-.561-.858-.606-1.761-.241-2.668.722-1.794 2.115-2.997 3.718-4.036-.781 1.536-.622 3.218-.907 4.821-.126.707-.575 1.381-.978 2.005-.195.301-.265.477-.114.809.911 1.992 1.357 2.174 3.339 1.237.513-.242.988-.564 1.559-.895-.248.756-.478 1.461-.712 2.163a.453.453 0 0 1-.121.175c-1.222 1.167-3.745.676-4.4-.866zm9.659 29.369c-.395.647-1.064.888-1.798.751-1.983-.366-3.506-1.553-4.94-2.873-1.248-1.15-2.062-2.549-2.413-4.215-.143-.682-.018-1.234.523-1.74a51.835 51.835 0 0 0 3.03-3.047c.365-.402.529-.984.84-1.596 1.225 3.94 2.965 7.508 5.118 10.879.448.701-.026 1.293-.36 1.841zm51.182-.576c-.011.642.215 1.295.389 1.929.268.982.244 1.949-.23 2.842-.152.285-.594.603-.896.598-2.664-.042-5.328-.153-7.99-.249-.088-.003-.174-.058-.358-.124 1.91-2.002 3.375-4.26 4.485-6.698 1.1-2.418 1.945-4.952 2.869-7.353 1.579 2.765 1.784 5.879 1.731 9.055zm34.487-33.566c-.24 4.929-1.593 9.459-5.181 13.059-2.068 2.074-4.652 3.094-7.549 3.402-4.022.432-7.813-.601-11.56-1.834-1.545-.51-3.024-1.215-4.54-1.834l.179 1.418c.165 1.371-.327 2.635-.614 3.935a9.77 9.77 0 0 0-.24 1.979c-.028 1.86 1.146 2.967 3 2.781.67-.066 1.316-.363 1.947-.678-1.277-.068-2.584.27-3.595-.876.445.101.888.219 1.335.293 1.206.2 2.326-.021 3.323-.753.636-.467.925-1.135 1.069-1.883.055-.28.102-.563.172-.84.259-1.018.262-1.017 1.296-.639.125 2.246-1.589 4.78-3.867 5.786-2.037.897-3.881.534-5.547-.835-1.291-1.063-2.505-2.221-3.79-3.288-.465-.386-1.021-.685-1.57-.937-1.082-.5-2.222-.881-3.281-1.42-1.059-.537-2.049-1.209-3.178-1.885.119.207.176.342.266.452 1.176 1.441 2.517 2.699 4.234 3.46.668.295.826.702.65 1.338-.555 1.996-1.081 3.998-1.676 5.983a28.781 28.781 0 0 1-2.358 5.662c-1.726 3.13-3.91 5.797-6.888 7.812-1.105.748-2.123 1.629-3.167 2.467-.237.189-.436.438-.621.682-.318.419-.587.875-.919 1.281-1.176 1.438-3.083 1.656-4.514.465a8.693 8.693 0 0 1-1.6-1.729c-1.175-1.705-2.483-3.349-2.989-5.423-.282-1.155-.048-1.622.985-2.223 1.318-.767 2.399-1.567 3.731-2.368.302.375.728.74.728 1.173v-6.688c0-.016.168-.031.144-.049a45.83 45.83 0 0 0-.97 2.899c-.15.491-.351.698-.813.776a32.764 32.764 0 0 1-10.022.146c-.554-.076-.878-.268-.969-.9-.146-1.023-.398-2.029-.609-3.043l-.208.006c-.018.238-.049.476-.05.713-.004 2.031.062 4.068-.035 6.096-.039.822-.359 1.654-.677 2.434-.249.609-.672 1.151-1.05 1.703-.705 1.033-1.172 2.123-.985 3.414.03.204-.023.426-.063.635-.311 1.644-.856 2.119-2.521 1.983-2.723-.219-5.345-.928-7.92-1.81-.376-.127-.732-.354-1.057-.59-.729-.535-.871-1.146-.637-2.015.555-2.069 1.078-4.146 1.603-6.224.169-.672.059-1.243-.352-1.872-2.798-4.285-4.991-8.832-6.106-13.88C19.507 53.1 28.45 41.01 40.09 37.876a41.823 41.823 0 0 1 5.421-1.057c-1.005 1.174-1.981 2.375-3.022 3.517-2.401 2.633-4.293 5.577-5.9 8.761-1.312 2.602-1.189 4.871.659 7.094a26.57 26.57 0 0 1 1.662 2.246c.487.733.911 1.512 1.346 2.278.393.694.421 1.349.099 2.15-.367.911-.456 1.94-.616 2.927a.917.917 0 0 0 .228.693c1.01 1.014 1.974 2.099 3.099 2.969 2.541 1.967 5.359 2.141 8.218.791 2.221-1.049 4.346-2.299 6.549-3.391a15.403 15.403 0 0 1 5.76-1.578c.199-.014.478-.235.554-.426.819-2.074 1.343-4.22 1.477-6.453.183-3.051-.367-6.022-.854-9.016-.472-2.89-.71-5.819-1.053-8.731-.017-.141-.031-.283-.186-.456-.09.366-.192.73-.27 1.099-.79 3.738-.464 7.446.188 11.17.531 3.025.71 6.075-.19 9.086-.042.137-.096.27-.132.407-.292 1.117-.834 1.739-2.151 1.897-2.196.263-4.165 1.328-6.101 2.377-1.363.74-2.707 1.521-4.089 2.225-2.339 1.193-5.034.84-7.013-.889-.467-.406-.853-.907-1.327-1.307-.701-.589-.849-1.341-.571-2.123.476-1.343.952-2.701 1.614-3.955 1.159-2.195 2.458-4.314 3.698-6.465.113-.196.215-.398.323-.597l-.167-.12-5.273 6.485c-1.102-1.523-2.234-3.155-3.438-4.733-1.107-1.45-1.2-2.903-.431-4.549 1.353-2.897 2.949-5.592 5.169-7.942 2.739-2.899 5.316-5.95 7.977-8.923.461-.515.995-.963 1.485-1.452 1.266-1.263 2.937-1.363 4.561-1.636 2.022-.341 4.034-.748 6.049-1.134.222-.042.435-.136.727-.23l-6.375.286c1.51-2.041 3.001-3.829 5.111-4.962 3.066-1.647 6.298-2.882 9.72-3.537 4.523-.864 8.579.29 12.16 3.116 2.115 1.672 4.156 3.439 6.271 5.194l-1.519.44c.01.062.019.124.026.185.461 0 .929-.048 1.383.008 2.113.262 3.736 1.399 4.984 3.04.846 1.111 1.523 2.352 2.274 3.531-.146.099-.194.151-.213.143-1.249-.615-2.425-.435-3.615.22-.581.319-1.278.469-1.896.864.408.03 1.231.06 1.231.093v1.66c0 .007.104.015.142.022.086-.199.129-.477.277-.58.293-.202.684-.456.982-.407.306.05.654.391.805.692.176.353.104.724-.449.828-.658.123-1.302.342-1.951.519l.039.223c.453-.041.903-.1 1.356-.117a31.264 31.264 0 0 1 1.649-.005c1.386.021 1.386.024 1.621 1.492-.235-.018-.463.011-.658-.056-2.422-.843-4.982.38-5.823 2.792-.326.934-.655 1.867-.862 2.865.365-.63.756-1.248 1.092-1.895 1.098-2.122 1.599-2.512 4.183-3.056-1.579 1.003-1.769 2.491-1.935 3.997-.121 1.106-.281 2.208-.326 3.358.238-.631.488-1.257.711-1.894.347-.99.629-2.003 1.019-2.975.354-.88 1.062-1.463 1.927-1.825.268-.112.592-.091.926-.135.266 1.5.347 2.917.115 4.347-.227 1.407-.433 2.818-.558 4.293.188-.352.437-.685.563-1.058 1.131-3.408 1.893-6.855 1.092-10.471-.098-.436-.014-.912-.014-1.406.941.229 1.697.555 2.459.572 2.367.053 4.012-1.268 5.176-3.166.574-.939.865-2.054 1.285-3.09h-.002c-.201.251-.437.484-.601.758-1.164 1.954-2.708 3.503-4.769 4.503-.93.45-2.196.515-3.354.122.587-.302 1.034-.635 1.535-.77 1.681-.453 2.906-1.48 3.895-2.86.233-.33.496-.643.754-.955.98-1.182 1.133-1.228 2.537-.799h.002c2.019 2.023 2.279 4.75 2.83 7.323.601 2.808.878 5.672.737 8.542z"/><path fill="#FFF" d="M103.555 41.521c-1.543-.461-3.308-.192-4.89-.205-1.506-.013-2.862.068-4.271.628-.604.241-.645.808-.387 1.246-.056.096-.101.195-.152.292a1.274 1.274 0 0 0-.289-.337c-.004-.011-.006-.023-.012-.035-.785-1.85-2.127-1.543-3.558-1.229a1.231 1.231 0 0 0-1.097-.339c-1.289.207-2.603.352-3.909.492-.919.041-1.841.036-2.759-.061a1.356 1.356 0 0 0-1.246.567c-.553.164-.904.581-1.123 1.123l.027-.219c.071-.542-.455-1.201-.982-1.29l-.377-.063a1.545 1.545 0 0 0-.778.058c-.706-.308-1.567-.242-2.31-.271-1.871-.071-3.557-.245-5.424.043-.482.074-1.019.122-1.541.215-.403-.242-.936-.254-1.244.189-.063.092-.106.182-.162.273a2.333 2.333 0 0 0-.357.25c-.063.052-.105.116-.156.174.017-.216.037-.43.049-.648.029-.528-.254-1.833.264-2.199.424-.3.441-.859.449-1.316.019-1.303-1.518-1.711-2.273-.923-.638-.13-1.401.172-1.624.87-.369 1.154-.817 2.268-1.68 2.837-.044-.004-.078-.025-.125-.025-.356 0-.692.043-1.022.107-.356-.179-.771-.2-1.172-.28-.456-.091-.982-.041-1.443-.017-.484.025-1.07.119-1.534.364-.35-.426-.929-.636-1.465-.302-.494.308-.896.779-1.227 1.315-.26.018-.52.038-.78.058-.406-.591-1.13-.939-1.855-.93-.467-.503-1.168-.499-1.686-.186l-.033-.006a1.031 1.031 0 0 0-.664.011c-.29.029-.582.113-.887.228-.064-.002-.129-.009-.194-.001a1.321 1.321 0 0 0-.798-.349c-1.254-.131-2.587.072-3.867.003a7.811 7.811 0 0 0-1.956-.375c-.649-.035-1.137.367-1.371.869-.065.011-.128.011-.193.024-.196.04-.353.12-.487.218-.149-.498-.52-.927-1.055-1.017-1.174-.197-2.652-.118-3.556.751a1.048 1.048 0 0 0-.587-.265c-.488-.059-.942-.093-1.431-.029-.167.021-.32.072-.457.145-.094-.017-.184-.02-.279-.04a1.014 1.014 0 0 0-.573.076 7.45 7.45 0 0 0 .322-1.923c1.304-.994.09-3.042-1.274-2.378a1.437 1.437 0 0 0-.934.219c-.681-.159-1.417.129-1.487 1.016-.016.202-.036.402-.054.603-.277.951-.303 1.913-.292 2.913a1.044 1.044 0 0 0-.171.167c-.494.62-.563 1.442-.648 2.202-.087.778-.309 1.537-.473 2.302a1.347 1.347 0 0 0-.186.273c-.589 1.164-1.102 2.922-.845 4.36-.633.505-.433 1.794.61 1.794.16 0 .298-.031.417-.085a.958.958 0 0 0 .574.12c.494-.065.998-.188 1.488-.238.575-.059.906-.671.958-1.176.139-1.336.278-2.557.495-3.76.312-.959.621-1.918.83-2.903.105.018.21.028.311.028.529 0 1.046-.15 1.576-.131a.975.975 0 0 0 .341-.059c.062.009.113.034.179.037.548.027 1.097.016 1.646.022.671.009.686.156 1.133.657.006.008.013.01.019.016-.026.022-.06.031-.084.057-1.217 1.293-1.208 3.421-.971 5.113a.976.976 0 0 0-.255.373 1.009 1.009 0 0 0-.169.105v.001l-.012.007c-.007.006-.011.016-.018.021-.429.29-.519.908-.142 1.285a.83.83 0 0 0 .514.232c.039.008.072.029.112.029l-.006-.021a.905.905 0 0 0 .193-.026c.037-.011.206-.119.357-.242h4.59c.061.425.351 1 .909 1h35.648c.099-.122.208-.231.342-.313.487-.301.996-.191 1.474.069a.443.443 0 0 1 .211.244H88.1c.053 0 .092-.119.142-.126.293.504.971.738 1.505.206l.398-.423c.224.35.64.563 1.057.441-.071.389-.129.771-.157 1.151-.054.158-.101.353-.171.491-.495.961-.326 2.145.646 2.746.942.584 2.133.259 2.73-.641l.375-.56c.291-.437.373-.866.32-1.263.016-.096.033-.188.037-.291 0-.02.004-.035.004-.053.17-.764.281-1.517.412-2.172.004-.018.004-.035.008-.053 2.775-.354 5.707.904 8.345-.414 2.071-1.035 1.526-4.395 2.11-6.197.854-2.634.63-4.443-2.306-5.321zm-63.416 4.762c-.079.134-.152.271-.224.406-.29.07-.579.148-.875.226-.025-.09-.077-.149-.116-.226.37-.191.626-.412.782-.652.185-.149.354-.336.495-.575a.807.807 0 0 0 .517.104c.108.014.216.021.324.034a1.371 1.371 0 0 0-.903.683zM43.11 51c.056-.079.087-.168.12-.257.253.036.511.002.734-.104.366.342.951.469 1.393.217a2.843 2.843 0 0 0 1.045-1.026c.049.405.116.806.232 1.172L43.11 51zm18.748-4.262c-.229 1.482-.671 2.765-.538 4.262h-.02c-.59-.633-1.407-.652-2.253-.348-.468.17-1.219-.166-1.72-.168a4.246 4.246 0 0 0-.841.088l-.427-.551c.074-.111.139-.236.178-.396.37-1.521.768-2.989.709-4.567 0-.02-.011-.033-.013-.052.728.022 1.433-.088 2.142-.236.089.414.379.757.889.704.447-.047 1.309-.125 1.333-.762.411.119.636.333.763.631-.066.463-.129.928-.202 1.395zm12.844 3.196c-.245.355-.531.709-.847 1.066H69.73a61.609 61.609 0 0 1-.14-4.17c0-.018-.006-.029-.007-.045a.968.968 0 0 0 .391-.316c.237-.345.396-.74.483-1.154.869.058 1.72.265 2.595.304a8.757 8.757 0 0 1 1.93.3c.019.036.033.071.053.106.117.224.348.338.592.367-.344 1.169-.527 2.385-.925 3.542zm13.736-.105c-.013.054-.016.106-.021.157-.521.383-1.286.445-2.056.423-.646-.019-1.278-.207-1.928-.245-.273-.016-.625.036-.97.072a1.045 1.045 0 0 0-.426-.309c.213-.929.213-1.854.215-2.845 0-.151-.032-.278-.077-.397.012-.057.016-.115.025-.172.482-.576 1.031-1.084 1.917-1.24.483-.085 3.589-.365 3.593-.337.053.431.289.698.592.847-.311 1.343-.538 2.703-.864 4.046zm4.023 1.426c-.093.054-.178.099-.26.144.183-.922.352-1.793.277-2.744.008-.107.014-.217.021-.323a.906.906 0 0 0 .129-.097c-.006 1.013.061 2.029-.167 3.02zm9.482-3.896c.072 1.123-.178 2.16-.797 3.088-.446.181-.984.183-1.604.188a63.163 63.163 0 0 1-3.08-.044c-.002-.007.001-.012-.001-.019-.409-1.658.166-3.457.726-5.082.055-.077.102-.165.138-.267.166-.602.34-.365.963-.295.688.077 1.374.041 2.063 0 .526-.031 1.032-.088 1.563-.063.141.007.252.038.357.072-.43.771-.38 1.567-.328 2.422z"/><path fill="none" d="M73.008 45.688c-.712-.002-1.422-.007-2.133.002-.313.004-.424.089-.503.395-.058.218-.101.415-.149.634-.189.855-.382 1.864-.57 2.721-.085.373-.016.56.368.56h1.021c.361 0 .727-.104 1.088-.105.334-.002.439-.097.516-.414.051-.221.102-.489.148-.707.191-.856.383-1.736.57-2.592.079-.355-.003-.492-.356-.494zm-5.877-7.507c-.959-.001-1.917.003-2.876-.003-.145-.001-.179.065-.206.189-.244 1.118-.5 2.236-.738 3.356-.045.211-.124.281-.34.279-2.142-.009-4.284.002-6.425.003-1.326.001-2.598 1.005-2.893 2.298-.477 2.085-.934 4.208-1.392 6.296-.074.338-.17.455-.153.795.057 1.109.792 1.606 1.91 1.606h9.899c1.117-5 2.231-9.91 3.353-14.966-.07-.008-.105.147-.139.147zM61.319 51h-.255c-1.43 0-2.86-.166-4.29-.166-.817-.002-1.235-.634-1.056-1.434.255-1.139.504-2.312.757-3.449.162-.726.826-1.285 1.567-1.287 1.474-.003 2.948.011 4.421.011.056 0 .113.151.191.158C62.208 46.84 61.765 48 61.319 51z"/><path fill="none" d="M79.581 43.583c-.138-.938-.858-1.503-1.86-1.507-1.373-.005-2.744-.001-4.115-.001-1.356 0-2.715-.002-4.072 0-1.383.002-2.641 1.011-2.941 2.359-.49 2.201-.976 4.399-1.467 6.599-.326 1.468.686 2.406 1.911 2.389 2.707-.037 5.415-.033 8.121-.003 1.245.017 2.637-1.007 2.932-2.353.47-2.145.958-4.285 1.42-6.43.072-.342.119-.712.071-1.053zm-3.563 2.328c-.252 1.159-.506 2.519-.767 3.677-.174.767-.837 1.412-1.62 1.412H69.71c-.778 0-1.203-.715-1.037-1.482.248-1.146.498-2.151.759-3.299.172-.771.83-1.219 1.618-1.219h1.959c.669 0 1.337-.131 2.005-.129.722 0 1.157.332 1.004 1.04zm10.691-.216a128.81 128.81 0 0 0-2.154.005c-.337.004-.459.105-.531.429-.248 1.096-.488 2.191-.729 3.289-.059.268.023.367.296.369.371.003.74.001 1.11.001.369 0 .74.003 1.109-.001.303-.004.428-.096.492-.387.244-1.096.486-2.191.725-3.291.069-.3-.017-.412-.318-.414zm-33.735-2.24c-.174-.914-.869-1.475-1.879-1.477-3.469-.006-6.938-.014-10.408-.017-.143-.001-.204.02-.232.16-.094.461-.202 1.143-.302 1.603-.08.359-.156 1.276-.24 1.276h3.708c1.604 0 3.208-.179 4.812-.175.572 0 .97.306 1.014.854.013.155-.021.249-.056.403-.083.377 0 .294-.413.295-2.329.002-4.66.012-6.989-.025-1.251-.02-2.647.951-2.962 2.336-.178.783-.357 1.563-.521 2.352-.266 1.279.56 2.287 1.863 2.287 3.434 0 6.866-.004 10.3.005.225 0 .308-.062.356-.28.602-2.755 1.213-5.507 1.823-8.259.099-.44.213-.883.126-1.338zm-4.561 7.027c-.031.158-.1.349-.261.349-1.241-.009-2.482.169-3.724.169h-1.589c-.291 0-.551-.225-.701-.506-.154-.291-.088-.667.083-.92.215-.32.511-.541.911-.541 1.787.004 3.572-.033 5.358-.033h.24c-.112 1-.222 1.006-.317 1.482zm9.008-4.486a382.456 382.456 0 0 0-.756 3.373c-.045.203.032.322.239.324.666.011 1.333.004 2.009.004l.915-4.084c-.649 0-1.279-.002-1.909 0-.303.002-.43.088-.498.383zm-18.212-2.858c-.356-.736-.973-1.1-1.766-1.1-2.133 0-4.268-.038-6.402-.038h-.3c.292-1 .575-2.555.859-3.837-.052-.008-.081-.017-.109-.017-.973 0-1.945.033-2.918.026-.155 0-.17.113-.196.228-.445 2.017-.895 4.073-1.341 6.089-.565 2.555-1.129 4.882-1.695 7.436-.089.406-.177 1.075-.267 1.075h3.169c.018 0 .036.031.05-.031.607-2.722 1.216-5.434 1.816-8.158.038-.173.106-.131.273-.131 1.451.006 2.903.06 4.354.06.765 0 1.2.588 1.036 1.331-.424 1.926-.851 3.63-1.276 5.555-.11.5-.218 1.375-.331 1.375h3.17c.015 0 .029.07.039.025.656-2.948 1.316-5.885 1.962-8.836.089-.409.06-.666-.127-1.052zm60.546 2.606c-.666-.008-1.334-.003-2.019-.003-.301 1.353-.603 2.692-.91 4.065.705 0 1.379.004 2.052-.004.204-.003.304-.154.345-.338.258-1.137.516-2.275.77-3.415.04-.191-.043-.302-.238-.305z"/><path fill="none" d="M93.221 44.3c.262-1.218-.584-2.216-1.854-2.224-1.38-.007-2.759-.001-4.138-.001-1.357 0-2.715-.002-4.071 0-1.353.002-2.626 1.016-2.923 2.335-.496 2.221-.987 4.441-1.475 6.664-.306 1.398.66 2.359 1.893 2.346 2.722-.031 5.441-.01 8.164-.01 1.324 0 2.599-.979 2.894-2.275a568.117 568.117 0 0 0 1.51-6.835zm-3.555 1.589c-.255 1.183-.516 2.431-.787 3.61-.167.728-.841 1.237-1.587 1.237-1.313 0-2.628-.018-3.942-.02-.771 0-1.199-.546-1.039-1.302.248-1.179.51-2.149.78-3.324.164-.707.832-1.09 1.557-1.09h2.004c.666 0 1.334-.131 2.002-.129.711 0 1.16.331 1.012 1.018zm14.68-3.81c-3.254-.01-6.506-.002-9.759-.006-.146-.001-.2.048-.229.186-.145.681-.299 1.359-.449 2.038l-2.602 11.739c-.084.379-.166.761-.252 1.165.104.004.182.011.26.012.894 0 1.787-.008 2.68.006.197.002.256-.074.294-.246.239-1.113.495-2.221.731-3.332.037-.178.1-.234.281-.231 2.143.007 4.284-.024 6.426.016 1.226.022 2.652-.954 2.965-2.37.49-2.221.988-4.441 1.474-6.666.275-1.275-.531-2.307-1.82-2.311zm-1.723 3.838c-.25 1.22-.52 2.437-.805 3.649-.153.656-.822 1.184-1.476 1.187-1.51.009-3.019.002-4.526.002-.035 0-.071-.005-.15-.01l.243-1.123c.347-1.556.694-3.108 1.034-4.667.037-.169.103-.219.271-.218 1.474.007 2.946.002 4.418.004.679.001 1.128.513.991 1.176z"/><path fill="#66A1FF" d="M43.133 49c-.4 0-.696.184-.911.502-.172.254-.238.695-.083.986.149.283.41.512.7.512h1.589c1.242 0 2.483-.17 3.724-.162.161.002.229-.133.261-.292.095-.476.205-.546.317-1.546h-.24c-1.786 0-3.571.004-5.357 0zm14.909-4.351a1.635 1.635 0 0 0-1.567 1.271c-.253 1.139-.502 2.279-.757 3.416-.179.801.239 1.496 1.056 1.498 1.43 0 2.86.166 4.29.166h.255c.446-3 .89-4.164 1.336-6.171-.078-.006-.135-.097-.191-.097-1.474 0-2.948-.086-4.422-.083zm.871 5.048c-.676 0-1.343.007-2.009-.004-.207-.002-.285-.121-.239-.324.248-1.126.499-2.25.756-3.373.067-.295.194-.381.497-.383.63-.002 1.26 0 1.909 0l-.914 4.084zm42.72-4.956c-1.472-.002-2.943.003-4.418-.004-.169-.001-.234.049-.271.218-.338 1.557-.688 3.111-1.033 4.667l-.243 1.123c.079.005.115.01.149.01 1.51 0 3.019.007 4.527-.002.652-.003 1.321-.53 1.477-1.187.285-1.213.554-2.43.804-3.649.135-.663-.314-1.175-.992-1.176zm-1.642 1.309c-.255 1.14-.513 2.278-.771 3.415-.041.184-.14.335-.344.338-.673.008-1.348.004-2.052.004.309-1.373.608-2.715.911-4.065.684 0 1.352-.005 2.018.003.197.002.28.113.238.305zm-11.337-1.179c-.668-.002-1.336.129-2.002.129h-2.004c-.727 0-1.395.383-1.559 1.092-.271 1.174-.531 2.282-.781 3.461-.16.756.27 1.232 1.041 1.232 1.313.001 2.627-.014 3.941-.016a1.64 1.64 0 0 0 1.587-1.254c.271-1.18.532-2.301.787-3.482.15-.687-.299-1.162-1.01-1.162zm-1.627 1.238c-.237 1.1-.479 2.195-.725 3.291-.064.291-.189.383-.492.387-.369.004-.74.001-1.109.001-.37 0-.739.002-1.11-.001-.271-.002-.354-.102-.296-.369.239-1.098.48-2.193.729-3.289.072-.324.194-.425.531-.429.719-.008 1.437-.009 2.154-.005.301.002.387.114.318.414zm-12.013-1.238c-.668-.002-1.336.129-2.005.129H71.05c-.788 0-1.444.385-1.618 1.156-.261 1.145-.511 2.351-.759 3.496-.166.768.259 1.348 1.037 1.348h3.921c.783 0 1.446-.645 1.62-1.412.261-1.158.515-2.316.767-3.479.153-.706-.282-1.238-1.004-1.238zm-1.648 1.285c-.188.855-.38 1.711-.57 2.566-.048.219-.099.438-.149.656-.074.318-.181.512-.515.514-.362.004-.726.108-1.088.108h-1.022c-.385 0-.451-.188-.369-.563.188-.854.381-1.765.57-2.621.049-.217.094-.465.149-.682.079-.306.19-.417.503-.422.711-.008 1.421-.016 2.133-.014.353.005.435.104.358.458z"/><path fill="#66A1FF" d="M105.379 41.239a4.643 4.643 0 0 0-1.076-.116c-7.414-.006-14.826.001-22.238-.013-.813-.001-1.567.141-2.289.505a.296.296 0 0 1-.248-.016c-.53-.338-1.107-.543-1.734-.542-3.327.006-6.651-.057-9.978-.057h-.299c.282-1 .557-2.453.832-3.7-.078-.008-.129.014-.18.014-2.084 0-4.167.016-6.25.012-.15-.001-.19.064-.221.2-.235 1.084-.485 2.169-.716 3.253-.041.188-.114.241-.3.24-1.75-.006-3.5.009-5.249-.007-.878-.009-1.697.165-2.452.621-.048.029-.145.032-.189.003-.656-.42-1.378-.582-2.143-.581-6.178.009-12.357-.055-18.535-.055h-.3c.294-1 .582-2 .875-4h-6.383l-2.079 8.668c-.005 0-.011.077-.017.077-.011 0-.02-.11-.028-.112C23.545 48.482 22.919 52 22.289 54h.249c2.033 0 4.066.141 6.098.15.203.002.268.01.31-.178.621-2.759 1.25-5.479 1.873-8.236.03-.133.088-.154.22-.153.653.006 1.307.011 1.96.012.28.001.315.048.251.331-.513 2.284-1.026 4.426-1.54 6.711-.109.495-.219 1.363-.335 1.363h.328c14.382 0 28.764.145 43.146.15.719 0 1.398-.041 2.045-.357.057-.027.156.018.211.051a3.435 3.435 0 0 0 1.887.518c1.98-.021 3.963-.021 5.943-.036.965-.009 1.931-.017 2.896-.024.426-.004.853.473 1.308.473-.271 1.254-.537 3.225-.806 4.225h6.601c.271-1 .537-4 .813-5h.271c1.828 0 3.657.189 5.487.189 1.957-.002 3.74-1.357 4.159-3.272.328-1.502.67-2.954.99-4.458.188-.884.392-1.749.507-2.645.163-1.249-.587-2.288-1.782-2.575zM37.335 53h-3.17c.113 0 .221-.866.333-1.367.425-1.925.852-3.771 1.276-5.694.164-.743-.271-1.237-1.036-1.237-1.451 0-2.903.022-4.354.016-.167 0-.236.053-.273.226-.6 2.725-1.209 5.294-1.816 8.016-.016.061-.034.04-.052.04h-3.169c.09 0 .178-.666.267-1.072.565-2.554 1.129-5.029 1.695-7.583.447-2.016.896-3.992 1.341-6.008.026-.114.042-.18.196-.179.973.007 1.945.014 2.918.014.028 0 .057-.024.109-.017-.284 1.281-.567 2.845-.859 3.845h.3c2.134 0 4.269.038 6.402.038.792 0 1.409.32 1.766 1.056.187.387.215.816.126 1.225-.646 2.953-1.306 5.75-1.962 8.699-.009.041-.023-.018-.038-.018zm13.335.329c-3.434-.009-6.866-.007-10.3-.007-1.304 0-2.129-1.01-1.863-2.289.164-.786.343-1.571.521-2.354.315-1.385 1.711-2.365 2.962-2.346 2.329.037 4.66.012 6.989.01.412 0 .33.049.413-.328.034-.156.069-.317.056-.472-.044-.548-.442-.718-1.014-.718-1.605-.004-3.209.175-4.813.175h-3.708c.083 0 .16-.917.239-1.275.101-.46.208-1.006.302-1.467.029-.14.09-.229.232-.228 3.47.003 6.939-.023 10.408-.018 1.01.002 1.705.547 1.879 1.46.087.455-.026.889-.124 1.327-.61 2.752-1.222 5.5-1.823 8.254-.047.218-.131.276-.356.276zM63.646 53h-9.628c-1.117 0-1.853-.497-1.909-1.604-.017-.342.079-.608.153-.946.458-2.089.915-4.138 1.392-6.221.295-1.293 1.567-2.26 2.893-2.261 2.142-.001 4.284.007 6.425.016.217.002.295-.059.34-.27.237-1.12.494-2.234.738-3.353.027-.124.061-.187.206-.186.959.006 1.917.003 2.876.004.034 0 .069-.154.138-.146C66.148 43.089 65.033 48 63.916 53h-.27zm11.51.419c-2.706-.03-5.414-.035-8.121.003-1.227.018-2.237-.921-1.911-2.389.491-2.199.976-4.398 1.467-6.599.302-1.349 1.56-2.357 2.941-2.359 1.358-.002 2.716 0 4.071 0 1.373 0 2.744-.004 4.117.001 1 .003 1.723.568 1.859 1.507.048.341.001.711-.073 1.054-.462 2.144-.95 4.286-1.42 6.429-.293 1.346-1.684 2.37-2.93 2.353zm13.66-.009c-2.724 0-5.443-.021-8.166.01-1.23.016-2.196-.945-1.892-2.346.486-2.223.978-4.443 1.476-6.664.295-1.319 1.57-2.333 2.922-2.335 1.355-.002 2.714 0 4.072 0 1.379 0 2.758-.006 4.137.001 1.271.007 2.117 1.006 1.855 2.224-.488 2.28-.992 4.56-1.513 6.834-.293 1.298-1.566 2.276-2.891 2.276zm17.349-9.024c-.485 2.223-.981 4.445-1.474 6.667-.313 1.414-1.739 2.393-2.965 2.369-2.142-.04-4.283-.009-6.426-.016-.183-.002-.244.055-.281.23-.236 1.112-.492 2.221-.731 3.334-.038.172-.097.248-.294.244-.893-.013-1.786-.005-2.68-.005-.078-.001-.155-.008-.26-.013.086-.403.168-.785.252-1.164.866-3.914 1.733-7.826 2.602-11.739.15-.678.306-1.357.449-2.038.029-.137.082-.187.229-.186 3.253.004 6.505-.004 9.759.006 1.29.008 2.096 1.04 1.82 2.311z"/><g><path opacity=".13" d="M18.693 29.254v53.121l46.073 26.559 46.074-26.559V29.254L64.767 2.694l-46.074 26.56zm90.283 1.08v50.97l-44.211 25.49-44.21-25.49v-50.97l44.21-25.489 44.211 25.489z"/></g><g fill-rule="evenodd" clip-rule="evenodd" fill="#66A1FF"><path d="M50.476 81.632c-2.581-1.083-4.684-2.457-6.191-4.609-1.625-2.32-1.233-5.335 1.012-7.636 2.629-2.695 5.99-4.047 9.55-4.917 7.936-1.939 15.827-1.833 23.54 1.018a20.244 20.244 0 0 1 5.4 2.997c4.389 3.438 3.88 7.913-.601 11.21-1.01.742-2.169 1.283-3.388 1.99-.104-.934-.061-1.714-.313-2.382-.175-.463-.721-1.039-1.168-1.105-3.181-.465-6.374-1.063-9.574-1.136-4.247-.096-8.506.202-12.756.426-1.339.07-2.658.469-3.993.67-1.171.177-1.657.813-1.527 1.98.049.431.009.874.009 1.494zm11.206-10.859c.105.049-.105-.048 0 0-.016 1.49.33 2.858 1.435 3.932 1.202 1.166 2.758 1.137 3.944-.039 1.862-1.85 1.881-5.688.036-7.561-1.254-1.272-3.007-1.347-4.07.07-.752 1.002-1.133 2.214-1.345 3.598z"/><path d="M79.224 84.077c-.02 0-.037.002-.057.003a3.685 3.685 0 0 0-.173-.52c.008-.021.016-.042.02-.063.191-.995.098-2.066-.028-3.089-.035-.297-.531-.683-.88-.768-1.078-.263-2.184-.407-3.28-.586-6.896-1.126-13.79-.92-20.669.101-3.232.479-3.182.557-3.241 3.579-.007.36.041.651.141.883.037.129.088.257.157.379l-.001.009c-2.311.163-2.354 3.823.065 3.823.086 0 .169-.005.25-.015.005.164.05.367.144.623.798 2.184 2.472 3.478 4.526 4.338 2.812 1.176 5.796 1.374 8.209 1.441 4.464.006 7.716-.563 10.053-1.686 1.782-.857 3.208-2.087 3.948-3.979.056-.141.1-.267.132-.38.059-.099.107-.203.151-.308.137.028.283.044.441.044 2.467.002 2.565-3.829.092-3.829z"/></g><ellipse fill-rule="evenodd" clip-rule="evenodd" fill="#FFF" cx="65.051" cy="70.941" rx="2.449" ry="3.872"/></svg>