<?xml version="1.0" encoding="utf-8"?>
<!-- Generator: Adobe Illustrator 16.0.0, SVG Export Plug-In . SVG Version: 6.00 Build 0)  -->
<!DOCTYPE svg PUBLIC "-//W3C//DTD SVG 1.1//EN" "http://www.w3.org/Graphics/SVG/1.1/DTD/svg11.dtd">
<svg version="1.1" id="Layer_10" xmlns="http://www.w3.org/2000/svg" xmlns:xlink="http://www.w3.org/1999/xlink" x="0px" y="0px"
	 width="128px" height="111px" viewBox="0 0 128 111" enable-background="new 0 0 128 111" xml:space="preserve">
<g>
	<polygon fill="#008CB2" points="32.319,110.926 0.319,55.5 32.319,0.075 96.319,0.075 128.319,55.5 96.319,110.926 	"/>
	<polygon fill="#1EDAF9" points="117.144,56 90.586,101.892 37.461,101.892 31.441,91.519 31.322,91.3 31.262,91.19 31.202,91.08 
		10.904,56 37.461,10.108 90.586,10.108 	"/>
	<g>
		<g>
			<g>
				<path fill="#061644" d="M23.774,60.848c2.092-0.538,4.001-1.212,5.248-3.071c1.729-2.581,0.63-5.875,2.792-8.42
					c0.514-0.605-0.357-1.484-0.874-0.876c-1.516,1.785-1.925,3.601-2.238,5.876c-0.453,3.309-2.189,4.509-5.256,5.299
					C22.674,59.854,23.001,61.049,23.774,60.848L23.774,60.848z"/>
			</g>
		</g>
		<g>
			<g>
				<path fill-rule="evenodd" clip-rule="evenodd" fill="#00779B" d="M53.163,25.957c-0.159-0.01-0.272-0.065-0.386-0.123
					c-0.053-0.08-0.124-0.155-0.236-0.209c-0.008-0.002-0.006-0.013-0.015-0.015c-0.054-0.076-0.125-0.132-0.153-0.234
					c-0.071-0.144-0.183-0.227-0.305-0.272c0.283-0.617-0.495-1.231-1.007-0.728c-0.083,0.081-0.14,0.143-0.199,0.206
					c-0.099,0.002-0.2,0.024-0.307,0.091c-2.556,1.615-4.672,3.729-6.525,6.103c-0.007,0.006-0.016,0.013-0.023,0.02
					c0,0.001,0.002,0.002,0.004,0.004c-0.034,0.042-0.069,0.08-0.104,0.125c-0.067,0.089-0.098,0.175-0.112,0.26
					c-1.877,2.135-3.929,3.963-5.892,6.031c-0.207,0.218-0.22,0.471-0.126,0.677c-0.02,0.016-0.039,0.035-0.058,0.051
					c-0.146,0.121-0.295,0.238-0.443,0.361c-0.154-0.013-0.322,0.039-0.481,0.179c-0.346,0.309-0.699,0.606-1.042,0.911
					c-0.08,0.023-0.157,0.06-0.227,0.12c-1.266,1.089-2.445,2.145-3.313,3.562l-0.006,0.004c-0.169-0.02-0.344,0.019-0.485,0.16
					l-2.139,2.139c-0.047,0.048-0.072,0.098-0.102,0.148c-0.057,0.015-0.114,0.034-0.167,0.071
					c-0.936,0.643-1.801,1.257-2.586,2.081c-0.165,0.173-0.196,0.381-0.152,0.569c-0.058,0.07-0.087,0.145-0.106,0.217
					c-0.031,0.002-0.062-0.005-0.095,0.002c-0.554,0.115-1.073,0.323-1.577,0.562c-0.137,0.053-0.274,0.111-0.412,0.167
					c-0.169-0.1-0.384-0.135-0.62-0.03c-0.778,0.347-1.538,0.625-2.225,1.048c-0.341,0.142-0.684,0.284-1.02,0.44
					c-0.201-0.088-0.453-0.075-0.689,0.116c-0.335,0.271-0.573,0.549-0.75,0.849c-0.021,0.025-0.046,0.044-0.062,0.072
					c-0.012,0.021-0.016,0.042-0.027,0.063c-0.019,0.039-0.034,0.08-0.05,0.119c-0.533,1.063-0.513,2.224-1.033,3.306
					c0.002,0.001,0.005,0.002,0.009,0.004c-0.022,0.051-0.052,0.093-0.073,0.147c-0.271,0.666,0.85,1.132,1.16,0.489
					c0.024-0.051,0.034-0.106,0.055-0.156l0.008,0.004c0.215-0.525,0.492-0.962,0.817-1.321c0.15,0.078,0.32,0.086,0.488-0.013
					c0.218,0.021,0.449-0.045,0.612-0.258c0.081-0.099,0.152-0.204,0.228-0.305c0.596-0.372,1.281-0.689,1.966-0.795
					c0.087-0.004,0.177-0.006,0.266-0.006c0.496,0.562,1.102,1.017,1.765,1.373c0.148,0.401,0.359,0.78,0.539,1.166
					c0.038,1.091-0.156,1.86-0.627,2.923c-0.259,0.581,0.268,1.155,0.868,0.864c1.225-0.59,1.815-1.67,2.063-2.88
					c0.282-0.036,0.54-0.23,0.549-0.6c0.01-0.454,0.062-0.913,0.124-1.376c0.029-0.091,0.066-0.186,0.091-0.277
					c0.057-0.207,0.085-0.421,0.099-0.64c0.125-0.046,0.236-0.125,0.313-0.241c0.327-0.491,1.343-2.742,0.707-3.285l0.006-0.055
					c0.025-0.021,0.055-0.038,0.079-0.058c0.129-0.012,0.259-0.066,0.377-0.197c0.165-0.182,0.31-0.361,0.439-0.541
					c0.601-0.575,1.138-1.208,1.604-1.902c0.364-0.356,0.703-0.735,1.006-1.14c0.56-0.474,1.08-0.988,1.57-1.533
					c0.885-0.843,1.761-1.694,2.641-2.539c1.176-0.979,2.303-2.01,3.438-3.045c0.212-0.192,0.237-0.414,0.168-0.602
					c1.562-1.351,3.085-2.745,4.666-4.074c1.752-1.473,2.959-3.422,4.863-4.736c0.266-0.183,0.321-0.461,0.257-0.708
					c0.178-0.184,0.366-0.359,0.529-0.555c0.074-0.069,0.148-0.142,0.224-0.21c0.192-0.176,0.39-0.339,0.604-0.491
					c0.323-0.232,0.274-0.024,0.136-0.245c0.237,0.382,0.873,0.443,1.095,0l0.238-0.475C54.119,26.407,53.726,25.797,53.163,25.957z
					"/>
			</g>
			<g>
				<path fill="#061644" d="M55.629,27.093c-2.649,0-4.803-2.156-4.803-4.805c0-2.648,2.154-4.803,4.803-4.803
					c2.649,0,4.805,2.155,4.805,4.803C60.434,24.937,58.278,27.093,55.629,27.093z M55.629,19.959c-1.284,0-2.329,1.045-2.329,2.329
					c0,1.286,1.045,2.33,2.329,2.33s2.33-1.044,2.33-2.33C57.958,21.004,56.913,19.959,55.629,19.959z"/>
			</g>
			<g>
				
					<rect x="38.723" y="16.762" transform="matrix(0.6994 0.7148 -0.7148 0.6994 37.0012 -17.532)" fill="#061644" width="1.238" height="36.916"/>
			</g>
			<g>
				
					<rect x="43.039" y="19.473" transform="matrix(0.6958 0.7183 -0.7183 0.6958 39.9434 -20.0648)" fill="#061644" width="1.238" height="35.295"/>
			</g>
		</g>
		<g>
			<g>
				<path fill="#061644" d="M18.601,57.239c-0.048-2.605-0.689-5.656,2.334-6.832c1.849-0.72,3.817-0.608,5.524-1.748
					c0.659-0.439,0.04-1.512-0.625-1.068c-2.179,1.457-4.993,1-7.081,2.682c-2.027,1.631-1.432,4.73-1.39,6.966
					C17.379,58.038,18.617,58.039,18.601,57.239L18.601,57.239z"/>
			</g>
		</g>
		<g>
			<g>
				<path fill="#061644" d="M18.816,57.721c0.412-1.204,1.167-2.166,2.223-2.873c1.054-0.705,2.983-0.833,3.799,0.327
					c0.453,0.644,0.082,1.649-0.166,2.302c-0.171,0.446-0.395,0.873-0.623,1.292c-0.093,0.165-0.193,0.327-0.3,0.484
					c-0.274,0.233-0.238,0.288,0.103,0.165c-0.763-0.238-1.088,0.956-0.328,1.192c1.122,0.35,1.843-1.656,2.162-2.374
					c0.547-1.234,0.902-2.717,0.066-3.906c-0.947-1.349-3.039-1.452-4.452-0.982c-1.794,0.598-3.088,2.321-3.678,4.044
					C17.365,58.149,18.561,58.472,18.816,57.721L18.816,57.721z"/>
			</g>
		</g>
	</g>
	<g>
		<g>
			<path fill-rule="evenodd" clip-rule="evenodd" fill="#00779B" d="M90.72,53.854c0.236,0.11,0.531,0.073,0.696-0.118
				c0.166,0.009,0.332-0.047,0.448-0.215c0.345-0.497,0.63-1.038,0.889-1.592c0.074-0.076,0.137-0.167,0.164-0.295
				c0.008-0.041,0.02-0.08,0.028-0.12c0.526-1.241,0.88-2.584,1.109-3.941c0.229-0.758,0.43-1.523,0.536-2.315
				c0.001-0.003,0-0.007,0.002-0.011c0.02-0.152,0.026-0.308,0.039-0.461c0.177-0.108,0.31-0.3,0.304-0.546
				c-0.018-0.891-0.266-1.738-0.323-2.624c-0.021-0.282-0.195-0.438-0.401-0.489c-0.041-0.066-0.089-0.14-0.144-0.224
				c0.03-0.055,0.056-0.113,0.068-0.182c0.2-1.096,0.309-2.201,0.414-3.308c0.273,0.143,0.635,0.103,0.775-0.27
				c0.148-0.392-0.03-0.774,0.029-1.177c0.027-0.184-0.064-0.409-0.218-0.533c-0.003-0.002,0.395,0.32,0.395,0.32l0.02-0.024
				c-0.608-0.836-0.312-0.681-0.542-0.777c0.336-0.401,0.28-1.117-0.096-1.757c-0.535-0.914-1.577-1.355-2.372-0.924
				c-0.306-0.123-0.656-0.191-1.042-0.177c-0.229,0.008-0.411,0.165-0.49,0.369c-0.068,0.052-0.143,0.108-0.19,0.19
				c-0.574,0.973-0.726,2.236-0.756,3.345c-0.009,0.313,0.159,0.527,0.376,0.615c0.033,0.072,0.078,0.132,0.142,0.181
				c0.02,0.074,0.028,0.15,0.053,0.224c0.019,0.056,0.062,0.088,0.093,0.131c0.01,0.077,0.019,0.159,0.029,0.228
				c0.034,0.239,0.23,0.432,0.455,0.502c-0.035,0.038-0.079,0.06-0.106,0.108c-0.444,0.777-0.566,1.588-0.557,2.457
				c-0.023,0.017-0.103-0.018-0.121,0.005l-0.01,0.012c0.021-0.025-0.552-0.199-0.823,0.065c-0.234,0.229-0.385,0.49-0.539,0.74
				c-0.046,0.002-0.072,0.022-0.118,0.024c-0.171-0.093-0.363-0.103-0.527,0c-0.279-0.188-0.671-0.127-0.852,0.239
				c-0.188,0.382-0.265,0.817-0.227,1.229c-0.067-0.05-0.149-0.089-0.242-0.103c-0.092-0.011-0.177,0.002-0.269-0.003
				c-0.109-0.125-0.269-0.211-0.477-0.199c-0.974,0.058-2.018,0.091-2.977,0.304c-0.053-0.062-0.118-0.117-0.208-0.16
				c-0.82-0.393-1.93-0.802-2.333,0.189c-0.044-0.009-0.088-0.02-0.136-0.017c-2.165,0.093-4.296,0.437-6.438,0.73
				c-0.596,0.046-1.189,0.116-1.785,0.193c-0.024-0.001-0.043-0.114-0.069-0.114C70.83,43.568,69.346,44,67.829,44
				C67.824,44,68,44,68,44s0,0.105,0,0.107c0,0.012-0.19,0.072-0.24,0.083c-0.098,0.024-0.219,0.095-0.275,0.148
				c-0.045-0.013-0.109-0.017-0.161-0.02c-1.33-0.058-2.702-0.012-4.042,0.16c-0.758,0.071-1.515,0.181-2.259,0.324
				c-0.102-0.15-0.272-0.247-0.514-0.208c-1.101,0.197-6.259,0.261-5.049,2.564c0.108,0.206,0.274,0.333,0.455,0.364
				c0.03,0.162,0.113,0.293,0.246,0.378c0.009,0.322,0.25,0.654,0.633,0.604c0.112-0.014,0.215-0.037,0.326-0.053l0.077-0.008
				c0.136,0.176,0.364,0.282,0.646,0.194c1.673-0.518,3.452-0.833,5.232-0.948c0.099,0.065,0.22,0.101,0.364,0.078
				c0.221-0.034,0.441-0.077,0.662-0.12c0.469-0.007,0.94-0.015,1.405,0.008c1.335,0.068,2.631,0.173,3.866-0.416
				c0.09-0.042,0.156-0.103,0.213-0.17c1.965,0.096,3.916-0.048,5.849-0.345c1.184,0.051,2.379,0.004,3.512-0.253
				c0.07,0.083,0.136,0.172,0.186,0.28c0.314,0.675,1.391,0.278,1.102-0.395c0.59-0.001,1.178-0.002,1.769-0.035
				c0.042-0.003,0.074-0.019,0.11-0.029c0.046-0.005,0.09-0.001,0.139-0.018c0.145-0.046,0.293-0.082,0.438-0.126
				c1.452-0.071,2.899-0.233,4.294-0.631c-0.121,0.232-0.107,0.535,0.118,0.729c0.038,0.033,0.076,0.046,0.113,0.075
				c0.125,0.242,0.377,0.384,0.635,0.322c0.876,0.267,1.775-0.037,2.604,0.524c-0.059,0.053-0.12,0.107-0.153,0.179
				c-0.509,1.061-0.618,2.16-0.609,3.296c-0.618,0.748-0.881,1.661-0.879,2.725c-0.001,0.131,0.05,0.228,0.117,0.307
				c-0.101,0.235-0.185,0.476-0.252,0.701c-0.125,0.05-0.172,0.069-0.363,0.07c-0.3,0-0.583,0.352-0.524,0.644
				c0.06,0.292,0.142,0.593,0.388,0.788c0.271,0.215,0.605,0.313,0.861,0.541c0.307,0.275,0.729,0.095,0.907-0.219
				C90.354,55.471,90.549,54.666,90.72,53.854z"/>
		</g>
		<g>
			
				<rect x="71.407" y="27.995" transform="matrix(0.0933 0.9956 -0.9956 0.0933 108.4153 -32.3686)" fill="#061644" width="1.146" height="30.696"/>
		</g>
		<g>
			
				<rect x="71.246" y="32.221" transform="matrix(0.0943 0.9955 -0.9955 0.0943 112.4061 -28.4141)" fill="#061644" width="1.145" height="30.697"/>
		</g>
		<g>
			<g>
				<path fill="#061644" d="M89.564,32.745c-0.295,1.276-0.464,2.639-0.371,3.949c0.052,0.738,1.191,0.618,1.139-0.118
					c-0.085-1.215,0.09-2.474,0.364-3.656C90.862,32.2,89.729,32.028,89.564,32.745L89.564,32.745z"/>
			</g>
		</g>
		<g>
			<g>
				<path fill="#061644" d="M89.292,37.381c1.078,0.7,0.997,1.543,0.162,2.418c-0.61,0.638-1.693,1.21-2.588,0.974
					c-0.713-0.189-0.884,0.943-0.177,1.13c2.844,0.755,6.425-3.396,3.325-5.412C89.402,36.095,88.673,36.979,89.292,37.381
					L89.292,37.381z"/>
			</g>
		</g>
		<g>
			<g>
				<path fill="#061644" d="M90.094,57.512c0.563-1.594,1.155-3.173,1.642-4.793c0.332-1.105,0.915-2.709,0.42-3.863
					c-0.809-1.894-3.428-2.113-5.239-1.933c-0.735,0.073-0.617,1.211,0.117,1.139c0.753-0.075,1.561,0.048,2.311,0.147
					c1.523,0.204,1.943,1.107,1.71,2.568c-0.343,2.145-1.289,4.235-2.008,6.274C88.802,57.742,89.848,58.21,90.094,57.512
					L90.094,57.512z"/>
			</g>
		</g>
		<g>
			<g>
				<path fill="#061644" d="M89.213,47.828c0.26,2.643-1.27,5.013-2.166,7.398c-0.258,0.688,0.788,1.153,1.049,0.461
					c0.974-2.591,2.537-5.104,2.256-7.977C90.279,46.973,89.141,47.092,89.213,47.828L89.213,47.828z"/>
			</g>
		</g>
		<g>
			<g>
				<path fill="#061644" d="M88.518,56.002c-0.27-0.313-0.557-0.604-0.868-0.877c-0.558-0.486-1.276,0.404-0.722,0.889
					c0.233,0.205,0.453,0.419,0.658,0.652C88.064,57.221,89,56.561,88.518,56.002L88.518,56.002z"/>
			</g>
		</g>
		<g>
			<g>
				<path fill="#061644" d="M89.747,56.672c-0.27-0.146-0.533-0.303-0.803-0.447c-0.648-0.352-1.105,0.699-0.46,1.048
					c0.269,0.146,0.533,0.302,0.803,0.447C89.936,58.069,90.394,57.02,89.747,56.672L89.747,56.672z"/>
			</g>
		</g>
		<g>
			<g>
				<path fill="#061644" d="M89.676,52.894c-0.148,0.787-0.556,1.55-0.871,2.28c-0.16,0.373-0.637,1.096-0.538,1.529
					c0.08,0.355,0.65,0.301,0.569-0.061c-0.024-0.104,0.144-0.413,0.196-0.539c0.159-0.392,0.332-0.779,0.499-1.168
					c0.27-0.627,0.583-1.277,0.709-1.954C90.311,52.619,89.744,52.531,89.676,52.894L89.676,52.894z"/>
			</g>
		</g>
		<g>
			<g>
				<path fill="#061644" d="M95.387,41.179c-0.741-0.792-1.082-2.71,0.142-3.252c0.673-0.298,0.272-1.371-0.402-1.072
					c-1.873,0.829-1.973,3.597-0.671,4.988C94.951,42.375,95.891,41.715,95.387,41.179L95.387,41.179z"/>
			</g>
		</g>
		<g>
			<g>
				<path fill="#061644" d="M94.443,41.616c0.963,2.461-0.657,6.011-1.419,8.349c-0.767,2.349-2.011,4.618-3.578,6.523
					c-0.469,0.569,0.42,1.292,0.889,0.722c2.071-2.517,3.373-5.479,4.3-8.585c0.709-2.375,1.833-4.978,0.88-7.412
					C95.246,40.525,94.174,40.929,94.443,41.616L94.443,41.616z"/>
			</g>
		</g>
		<g>
			<g>
				<path fill="#061644" d="M95.973,37.179c-0.307-1.278,0.076-2.85,0.325-4.114c0.142-0.724-0.99-0.899-1.131-0.175
					c-0.294,1.493-0.627,3.188-0.265,4.693C95.075,38.299,96.144,37.886,95.973,37.179L95.973,37.179z"/>
			</g>
		</g>
		<g>
			<g>
				<path fill="#061644" d="M96.037,32.465c-0.911-0.71-2.299-0.898-3.411-0.985c-0.952-0.073-2.401-0.069-2.849,0.972
					c-0.291,0.677,0.757,1.139,1.049,0.459c0.235-0.546,1.77-0.293,2.201-0.242c0.727,0.087,1.691,0.219,2.288,0.683
					C95.896,33.806,96.62,32.919,96.037,32.465L96.037,32.465z"/>
			</g>
		</g>
		<g>
			<g>
				<path fill="#061644" d="M86.141,41.661c0.287,0.902,0.327,1.894,0.35,2.834c0.021,0.81,0.064,1.893-0.369,2.617
					c-0.379,0.631,0.673,1.085,1.049,0.46c0.504-0.841,0.459-2.02,0.463-2.964c0.004-1.112-0.082-2.284-0.421-3.35
					C86.988,40.552,85.918,40.961,86.141,41.661L86.141,41.661z"/>
			</g>
		</g>
		<g>
			<g>
				<path fill="#061644" d="M93.825,36.448c-0.52,0.119-1.031,0.057-1.556,0.011c-0.365-0.032-0.456,0.533-0.087,0.566
					c0.569,0.049,1.138,0.122,1.702-0.008C94.239,36.935,94.185,36.365,93.825,36.448L93.825,36.448z"/>
			</g>
		</g>
		<g>
			<g>
				<path fill="#061644" d="M56.686,48.487c-0.505,0.25-0.821-1.085-0.877-1.432c-0.127-0.775-0.018-1.916,1.007-1.861
					c0.729,0.039,0.914-1.092,0.175-1.131c-4.023-0.218-2.184,6.623,0.099,5.496C57.744,49.234,57.346,48.161,56.686,48.487
					L56.686,48.487z"/>
			</g>
		</g>
	</g>
	<g>
		<g>
			<path fill-rule="evenodd" clip-rule="evenodd" fill="#007A96" d="M69.995,57.481c2.023,0,4.049,0,6.071,0
				c0.631,0.301,0.897,0.809,0.956,1.496c0.084,1.007,0.233,2.009,0.346,3.013c0.024,0.216,0.095,0.333,0.32,0.396
				c1.247,0.354,2.437,0.849,3.573,1.472c0.092,0.049,0.283,0.024,0.37-0.042c0.919-0.7,1.826-1.418,2.735-2.133
				c0.49-0.385,1.229-0.371,1.638,0.036c1.276,1.277,2.553,2.556,3.826,3.834c0.493,0.496,0.518,1.181,0.083,1.732
				c-0.71,0.899-1.41,1.807-2.125,2.702c-0.11,0.14-0.112,0.234-0.028,0.383c0.643,1.126,1.122,2.323,1.484,3.566
				c0.065,0.225,0.179,0.297,0.395,0.321c1.005,0.111,2.006,0.263,3.012,0.348c0.688,0.06,1.198,0.321,1.495,0.955
				c0,2.023,0,4.048,0,6.071c-0.292,0.618-0.785,0.893-1.463,0.952c-1.019,0.087-2.03,0.238-3.046,0.351
				c-0.218,0.024-0.327,0.099-0.394,0.321c-0.363,1.242-0.848,2.438-1.477,3.571c-0.052,0.092-0.027,0.283,0.039,0.371
				c0.694,0.91,1.402,1.809,2.111,2.709c0.435,0.552,0.403,1.237-0.086,1.731c-1.184,1.194-2.368,2.39-3.551,3.583
				c-0.711,0.716-1.296,0.755-2.096,0.136c-0.852-0.66-1.694-1.332-2.553-1.984c-0.087-0.065-0.277-0.085-0.37-0.034
				c-1.119,0.609-2.284,1.104-3.511,1.446c-0.282,0.078-0.365,0.219-0.395,0.485c-0.106,0.993-0.255,1.982-0.339,2.979
				c-0.059,0.678-0.334,1.171-0.952,1.463c-2.022,0-4.048,0-6.071,0c-0.632-0.299-0.898-0.809-0.955-1.497
				c-0.084-1.008-0.233-2.008-0.346-3.012c-0.023-0.218-0.101-0.328-0.323-0.393c-1.245-0.36-2.44-0.842-3.567-1.483
				c-0.151-0.087-0.245-0.073-0.384,0.036c-0.895,0.713-1.799,1.415-2.699,2.124c-0.553,0.434-1.236,0.418-1.736-0.08
				c-1.248-1.242-2.485-2.494-3.727-3.744c-0.526-0.529-0.551-1.194-0.09-1.78c0.704-0.891,1.402-1.783,2.089-2.686
				c0.065-0.086,0.087-0.277,0.036-0.37c-0.617-1.128-1.111-2.306-1.461-3.541c-0.065-0.231-0.172-0.325-0.41-0.351
				c-1.006-0.108-2.005-0.262-3.012-0.346c-0.689-0.058-1.197-0.325-1.496-0.958c0-2.023,0-4.048,0-6.071
				c0.273-0.49,0.615-0.853,1.232-0.911c1.096-0.104,2.186-0.263,3.278-0.386c0.22-0.026,0.329-0.097,0.394-0.322
				c0.356-1.245,0.848-2.435,1.471-3.574c0.05-0.093,0.031-0.284-0.032-0.369c-0.702-0.92-1.419-1.826-2.132-2.736
				c-0.387-0.494-0.38-1.226,0.03-1.637c1.268-1.271,2.536-2.539,3.81-3.804c0.533-0.531,1.197-0.552,1.779-0.092
				c0.889,0.706,1.783,1.404,2.684,2.091c0.086,0.064,0.277,0.085,0.371,0.033c1.137-0.622,2.328-1.111,3.571-1.474
				c0.225-0.064,0.299-0.176,0.322-0.392c0.114-1.017,0.264-2.029,0.351-3.047C69.103,58.265,69.378,57.772,69.995,57.481z
				 M62.479,78.592c-0.013,5.813,4.693,10.546,10.54,10.555c5.719,0.009,10.545-4.516,10.567-10.53
				c0.023-5.861-4.666-10.546-10.524-10.569C67.218,68.021,62.492,72.743,62.479,78.592z"/>
			<path fill="#070C42" d="M76.195,100.285l-6.445-0.055c-0.771-0.364-1.203-1.026-1.28-1.968c-0.053-0.631-0.132-1.26-0.21-1.889
				c-0.044-0.345-0.088-0.689-0.127-1.035c-1.263-0.373-2.425-0.854-3.473-1.434c-0.541,0.43-1.081,0.853-1.621,1.275l-0.965,0.757
				c-0.77,0.605-1.814,0.554-2.494-0.123c-0.977-0.973-1.947-1.952-2.918-2.931l-0.811-0.815c-0.723-0.729-0.774-1.725-0.133-2.539
				c0.672-0.851,1.34-1.704,1.996-2.564c-0.604-1.128-1.082-2.293-1.418-3.465c-0.393-0.045-0.76-0.091-1.129-0.138
				c-0.602-0.075-1.202-0.15-1.806-0.201c-0.94-0.079-1.601-0.511-1.966-1.284l-0.055-0.244v-6.221l0.072-0.129
				c0.264-0.474,0.724-1.111,1.678-1.203c0.658-0.063,1.314-0.145,1.971-0.228c0.41-0.051,0.818-0.103,1.229-0.149
				c0.354-1.207,0.83-2.369,1.422-3.474c-0.535-0.698-1.08-1.393-1.625-2.087l-0.414-0.527c-0.569-0.729-0.537-1.779,0.076-2.395
				c1.269-1.27,2.537-2.54,3.811-3.804c0.719-0.717,1.738-0.77,2.539-0.135c0.849,0.673,1.701,1.341,2.561,1.996
				c1.096-0.587,2.261-1.064,3.471-1.424c0.043-0.365,0.085-0.705,0.128-1.046c0.079-0.639,0.159-1.275,0.214-1.915
				c0.081-0.918,0.51-1.567,1.277-1.93l0.245-0.055l6.317,0.056c0.771,0.367,1.2,1.028,1.28,1.964
				c0.052,0.633,0.132,1.263,0.211,1.892c0.042,0.347,0.086,0.693,0.125,1.04c1.194,0.348,2.354,0.823,3.465,1.419
				c0.748-0.574,1.491-1.157,2.233-1.742l0.387-0.304c0.695-0.546,1.803-0.51,2.396,0.08l3.826,3.837
				c0.698,0.701,0.748,1.702,0.127,2.49l-0.841,1.072c-0.395,0.504-0.789,1.009-1.188,1.51c0.588,1.057,1.058,2.193,1.437,3.474
				c0.372,0.044,0.719,0.087,1.064,0.131c0.621,0.078,1.242,0.156,1.864,0.209c0.959,0.083,1.601,0.502,1.966,1.282l0.054,0.243
				l-0.055,6.316c-0.362,0.766-1.011,1.196-1.93,1.277c-0.627,0.053-1.249,0.131-1.872,0.209c-0.363,0.046-0.727,0.091-1.091,0.132
				c-0.372,1.243-0.85,2.404-1.425,3.467c0.638,0.835,1.291,1.664,1.943,2.493l0.077,0.098c0.62,0.786,0.567,1.786-0.128,2.488
				l-3.551,3.583c-0.936,0.941-1.8,1.003-2.854,0.186l-0.948-0.738c-0.492-0.387-0.986-0.775-1.486-1.156
				c-1.175,0.628-2.318,1.094-3.494,1.421c-0.022,0.392-0.071,0.787-0.12,1.183c-0.073,0.593-0.146,1.185-0.197,1.779
				c-0.08,0.92-0.511,1.569-1.277,1.932L76.195,100.285z M70.135,99.141h5.792c0.327-0.189,0.48-0.47,0.521-0.94
				c0.052-0.607,0.127-1.214,0.202-1.821c0.048-0.389,0.097-0.778,0.139-1.168c0.021-0.193,0.085-0.776,0.811-0.977
				c1.137-0.317,2.245-0.774,3.39-1.397c0.276-0.154,0.723-0.117,0.985,0.077c0.547,0.416,1.084,0.837,1.619,1.256l0.942,0.735
				c0.27,0.209,0.494,0.315,0.665,0.315c0.068,0,0.275,0,0.674-0.401l3.55-3.583c0.283-0.285,0.3-0.649,0.044-0.974l-0.077-0.098
				c-0.686-0.869-1.369-1.739-2.04-2.618c-0.183-0.245-0.262-0.682-0.084-0.998c0.585-1.054,1.065-2.215,1.428-3.452
				c0.129-0.435,0.425-0.679,0.879-0.73c0.383-0.042,0.766-0.09,1.146-0.138c0.638-0.08,1.274-0.159,1.915-0.213
				c0.469-0.043,0.749-0.196,0.938-0.522V75.7c-0.189-0.327-0.479-0.481-0.972-0.523c-0.638-0.054-1.273-0.135-1.911-0.214
				c-0.371-0.047-0.743-0.094-1.115-0.135c-0.459-0.053-0.754-0.298-0.88-0.729c-0.375-1.284-0.843-2.41-1.434-3.443
				c-0.202-0.359-0.176-0.703,0.078-1.022c0.431-0.54,0.855-1.084,1.28-1.626l0.843-1.075c0.262-0.331,0.247-0.687-0.039-0.974
				l-3.824-3.834c-0.19-0.189-0.627-0.189-0.88,0.01l-0.386,0.304c-0.782,0.614-1.565,1.23-2.355,1.834
				c-0.222,0.167-0.485,0.185-0.589,0.185c-0.149,0-0.283-0.031-0.399-0.094c-1.115-0.61-2.276-1.089-3.459-1.426
				c-0.434-0.121-0.68-0.419-0.733-0.882c-0.04-0.365-0.086-0.729-0.132-1.092c-0.081-0.646-0.161-1.29-0.215-1.938
				c-0.041-0.486-0.197-0.777-0.526-0.971h-5.791c-0.327,0.188-0.479,0.47-0.521,0.939c-0.056,0.652-0.138,1.305-0.219,1.957
				c-0.046,0.368-0.092,0.734-0.133,1.103c-0.051,0.456-0.297,0.752-0.732,0.879c-1.209,0.352-2.372,0.831-3.456,1.425
				c-0.118,0.066-0.259,0.1-0.415,0.1l0,0c-0.102,0-0.361-0.017-0.574-0.178c-0.906-0.69-1.804-1.392-2.696-2.1
				c-0.356-0.281-0.699-0.271-1.02,0.05c-1.273,1.264-2.54,2.532-3.808,3.802c-0.201,0.201-0.193,0.611,0.016,0.879l0.412,0.525
				c0.578,0.736,1.155,1.473,1.724,2.217c0.202,0.27,0.235,0.702,0.079,0.989c-0.603,1.104-1.081,2.268-1.423,3.459
				c-0.121,0.432-0.417,0.679-0.877,0.733c-0.431,0.049-0.858,0.103-1.286,0.155c-0.667,0.084-1.335,0.168-2.004,0.231
				c-0.305,0.029-0.508,0.167-0.714,0.497v5.776c0.19,0.331,0.481,0.486,0.971,0.527c0.619,0.052,1.235,0.129,1.853,0.206
				c0.391,0.049,0.781,0.099,1.172,0.141c0.469,0.051,0.772,0.309,0.9,0.766c0.327,1.154,0.803,2.306,1.412,3.42
				c0.156,0.289,0.121,0.723-0.08,0.989c-0.691,0.908-1.393,1.804-2.098,2.696c-0.288,0.366-0.273,0.7,0.047,1.022l0.811,0.817
				c0.969,0.978,1.938,1.954,2.913,2.925c0.285,0.285,0.651,0.293,0.979,0.034l0.967-0.758c0.578-0.453,1.156-0.905,1.73-1.362
				c0.105-0.085,0.574-0.345,1.023-0.085c1.045,0.595,2.172,1.063,3.442,1.43c0.438,0.127,0.684,0.424,0.733,0.881
				c0.04,0.362,0.086,0.726,0.132,1.089c0.08,0.645,0.161,1.289,0.215,1.938C69.651,98.658,69.805,98.949,70.135,99.141z
				 M73.037,89.719L73.037,89.719c-2.997-0.004-5.792-1.164-7.891-3.269c-2.096-2.102-3.246-4.893-3.239-7.859
				c0.013-6.13,4.996-11.116,11.108-11.116h0.049c6.143,0.024,11.119,5.024,11.095,11.145C84.136,84.843,79.25,89.719,73.037,89.719
				z M73.016,68.047v0.573c-5.482,0-9.951,4.474-9.963,9.973c-0.006,2.661,1.025,5.164,2.904,7.049
				c1.882,1.888,4.391,2.929,7.064,2.933c5.59,0,9.972-4.374,9.993-9.96c0.022-5.489-4.444-9.973-9.954-9.994L73.016,68.047z"/>
		</g>
	</g>
	<path fill="#EFB68B" d="M65.938,63.875c0.005-0.542,0-1.065-0.08-1.602c-0.019-0.126-0.077-0.207-0.149-0.266
		c-0.036-0.309-0.065-0.617-0.093-0.926c0.115-0.791,0.138-1.584-0.018-2.375c0.04-0.069,0.069-0.148,0.069-0.249
		c-0.004-0.11,0.015-0.22,0.022-0.329c0.104-0.077,0.169-0.2,0.145-0.379c-0.032-0.237-0.041-0.47-0.042-0.709
		c-0.001-0.163-0.063-0.284-0.157-0.365c-0.003-0.01-0.002-0.022-0.006-0.032c1.059-2.54-0.609-6.159-3.766-5.671
		c-4.52,0.698-9.033-0.555-13.479,0.097c-0.623-0.729-1.622-1.099-2.724-0.687c-0.493,0.185-0.892,0.447-1.279,0.749
		c-0.902-0.185-1.79-0.146-2.746-0.029c-1.631,0.201-3.284,0.216-4.925,0.229c-1.749,0.013-2.81,1.292-2.649,3
		c0.129,1.382,0.441,2.733,0.641,4.105c0.066,0.459,0.101,0.888,0.133,1.292c-0.252,0.378-0.423,0.826-0.464,1.339
		c-0.104,1.347,0.293,2.678,0.184,4.004c-0.057,0.663-0.131,1.354-0.039,2.018c-0.127,0.781-0.25,1.563-0.288,2.364
		c-0.069,1.489,0.271,3.05,1.124,4.234c-0.033,0.333-0.025,0.688,0.037,1.07c0.329,2.035,0.932,3.447,2.495,4.547
		c0.012,0.026,0.018,0.054,0.031,0.077c0.286,0.518,0.633,0.996,1.046,1.372c0.021,0.032,0.035,0.064,0.065,0.095
		c0.859,0.888,1.848,1.499,2.923,1.937c-0.07,0.155-0.13,0.321-0.194,0.486c-0.088,0.071-0.167,0.159-0.212,0.275
		c-0.628,1.632-0.82,3.158-0.775,4.894c0.006,0.242,0.17,0.452,0.378,0.566c-0.536,0.767-0.59,1.83,0.338,2.7
		c0.208,0.216,0.44,0.404,0.684,0.576c-0.07,0.248,0.03,0.561,0.323,0.656c0.649,0.212,1.293,0.445,1.947,0.639
		c0.247,0.135,0.491,0.274,0.731,0.409c0.48,0.271,1.055,0.651,1.629,0.494c0.151-0.042,0.248-0.131,0.302-0.238
		c0.029,0.01,0.058,0.026,0.087,0.036c1.169,0.401,2.524,0.239,3.732,0.223c1.959-0.024,4.325-0.047,5.961-1.305
		c1.95-1.499,1.986-3.786,2.076-6.072c0.046-1.155,0.24-2.408-0.101-3.436c1.125-0.731,1.998-1.688,2.72-2.773
		c0.066-0.02,0.131-0.054,0.193-0.105c0.869-0.734,1.287-1.564,1.605-2.52c0.924-1.182,1.421-2.452,1.578-3.825
		c0.091-0.08,0.158-0.192,0.172-0.342c0.075-0.815,0.372-1.563,0.482-2.367c0.065-0.479-0.005-1.004-0.07-1.519
		c0.288-1.035,0.377-2.107,0.285-3.24c-0.033-0.402-0.108-0.777-0.2-1.141c0.003-0.074-0.001-0.148,0.001-0.222
		c0.084-0.444,0.087-0.885,0.047-1.326C65.82,64.245,65.936,64.105,65.938,63.875z"/>
	<path fill="#FFA522" d="M78.416,101.063c-0.017-0.014-0.033-0.016-0.05-0.028c0.009-0.091,0.001-0.183-0.039-0.266
		c-0.001-0.001-0.001-0.003-0.002-0.004c0.106-0.094,0.188-0.207,0.195-0.355c0.023-0.543-0.315-1.41-0.496-1.41
		c-0.001,0-0.002,0-0.002,0c-0.018,0-0.03-0.094-0.049-0.134c-0.043-0.097-0.113-0.159-0.19-0.199
		c-0.019-0.024-0.033-0.054-0.055-0.079c-0.02-0.021-0.051-0.027-0.074-0.044c0.116-0.435,0.178-0.907,0.155-1.273
		c-0.13-2.219-2.329-3.79-3.89-5.101c-1.17-0.99-2.96-1.24-4.52-0.85c-0.11-0.011-0.21-0.021-0.32-0.021
		c-0.93,0.05-1.85,0.141-2.76,0.25c-0.061,0-0.11,0.03-0.16,0.03c-0.82,0.04-1.65,0.05-2.46-0.03c-0.68-0.38-1.46-0.479-2.37-0.34
		c-0.21,0.03-0.4,0.08-0.58,0.14c-0.13-0.01-0.27-0.02-0.41-0.029c-1.05-0.03-1.7,0.56-1.96,1.319
		c-1.71,1.011-3.48,1.811-5.31,2.591c-1.18-0.15-2.46-0.109-3.55,0.29c-0.02,0-0.04-0.019-0.07-0.019
		c-0.65-0.31-1.31-0.479-2.02-0.558c-1.2-0.37-2.42-0.507-3.65-0.807c-0.439-0.254-0.88-0.507-1.328-0.727
		c-0.344-0.405-0.693-0.806-1.057-1.193c-0.002-0.004-0.002-0.008-0.005-0.012c-0.097-0.127-0.179-0.256-0.252-0.391
		c-0.015-0.086-0.046-0.173-0.118-0.253c0.001,0.004,0.002,0.009,0.003,0.013c-0.188-0.541-0.96-0.396-0.981,0.089
		c-0.001,0.002-0.002,0.004-0.003,0.006c-0.054-0.036-0.098-0.078-0.159-0.109c-1.28-0.641-2.95-0.5-4.34-0.611
		c-1.45-0.119-2.81,0.251-4.06,0.531L37.5,102h40.31c-0.001-0.014-0.004-0.026-0.005-0.04c0.035,0.008,0.069,0.016,0.104,0.023
		c0.322,0.072,0.545-0.139,0.604-0.384C78.585,101.416,78.571,101.197,78.416,101.063z"/>
	<g>
		<path fill="#FFFFFF" d="M93.406,28.152c0.055-0.077,0.09-0.171,0.094-0.277c0.058-1.551-1.22-2.471-2.508-3.058
			c-0.369-0.624-0.855-1.21-1.568-1.762c-1.624-1.261-3.62-2.434-5.638-2.905c-0.412-0.096-0.801-0.08-1.157,0.016
			c-0.752-0.092-1.525-0.107-2.256-0.063c-0.049-0.037-0.102-0.067-0.157-0.084c-1.28-0.402-2.703-0.246-4.027-0.223
			c-0.657,0.012-1.299,0.163-1.72,0.567c-0.355,0.061-0.663,0.203-0.91,0.414c-0.271-0.015-0.558,0.015-0.86,0.108
			c-0.738,0.229-1.28,0.583-1.785,1.06C70.885,21.964,70.859,22,70.831,22h-0.006c-1.783,1-2.336,1.255-3.34,2.947
			c-0.144,0.242-0.065,0.465,0.093,0.6c-0.434,0.81-0.721,1.569-0.807,2.574c-0.001,0.006-0.003-0.086-0.004-0.107
			c-0.004,0.035-0.015,0.22-0.018,0.262c-0.023,0.368,0.366,0.616,0.664,0.539c0.253,2.228,1.592,4.872,3.667,5.735
			c0.604,0.597,1.353,1.051,2.297,1.259c0.421,0.512,0.639,0.661,0.682,1.54c0.002,0.027,0.011,0.057,0.014,0.083
			c-0.314,0.368-0.544,0.8-0.788,1.213c-0.242,0.409-0.299,0.963-0.351,1.425c-0.029,0.256,0.062,0.489,0.192,0.695
			c-0.129,0.206-0.266,0.406-0.39,0.615c-0.429,0.73,0.535,1.714,1.245,1.173c2.518-1.919,5.571-2.939,8.093-4.916
			c2.856,0.603,6.094-0.31,8.744-1.396c1.33-0.544,2.876-2.169,2.912-3.692c0.009-0.337-0.008-0.645-0.039-0.94
			c0.042-0.096,0.089-0.185,0.12-0.292C94.206,30.056,93.949,29.047,93.406,28.152z"/>
		<polygon fill="#FFFFFF" points="66.768,28 66.768,28.013 66.77,28 		"/>
	</g>
	<path fill="#F4D706" d="M71.563,50.712c-0.18-0.925-0.786-1.391-1.592-1.77c-0.252-0.119-0.586-0.165-0.869-0.184
		c-0.275-0.018-0.503,0.003-0.713,0.045c-0.005-0.022,0.001-0.045-0.004-0.068c-0.066-0.364-0.135-0.727-0.205-1.089
		c0.29-0.841,0.094-2.104-0.213-3.137c-0.305-2.665-1.082-5.74-3.142-6.775c-0.064-0.108-0.125-0.219-0.191-0.326
		c-0.196-0.429-0.396-0.856-0.569-1.292c-0.106-0.269-0.363-0.356-0.59-0.322c-0.623-0.756-1.331-1.438-2.121-2.048
		c0.117-0.285-0.028-0.709-0.438-0.747c-0.009-0.001-0.018-0.004-0.027-0.005c-0.385-0.6-1.047-0.953-1.793-0.845
		c-0.393-0.256-0.793-0.496-1.233-0.611c0.105-1.168-0.858-2.415-2.131-2.426c-3.232-0.027-6.442-0.12-9.67-0.189
		c-1.193-0.025-2.398,0.15-3.368,0.759c-0.165-0.174-0.362-0.272-0.661-0.207c-0.469,0.102-0.44,0.659-0.136,0.883
		c-0.07,0.078-0.145,0.147-0.21,0.233c-0.184,0.244-0.305,0.508-0.392,0.779c-4.822,1.302-8.435,6.284-9.268,11.325
		c-0.749,0.812-0.464,1.962-0.876,2.926c-0.064,0.151-0.054,0.296,0,0.419c-0.423,0.709-0.581,1.572-0.301,2.526l0.369-0.146
		c-0.242,0.222-0.477,0.452-0.697,0.688c-0.962,0.049-1.9,1.307-1.129,2.193c-0.19,0.319-0.333,0.667-0.399,1.054
		c-0.143,0.836,0.91,1.047,1.25,0.451c0.126-0.058,0.238-0.143,0.3-0.275c0.08-0.173,0.117-0.326,0.143-0.48
		c0.949-0.079,1.775-0.31,2.697-0.619c1.833-0.615,3.417-0.462,5.296-0.215c1.761,0.231,3.88,0.197,5.51-0.515
		c0.24-0.105,0.396-0.306,0.484-0.531c1.85,0.185,3.743,0.146,5.569,0.402c0.572,0.081,1.033-0.044,1.387-0.283
		c2.12,0.129,4.214,0.192,6.446-0.068c2.684-0.312,5.101,0.626,7.713,0.807c0.031,0.146,0.089,0.29,0.199,0.425
		c0.567,0.685,1.074,1.195,1.846,1.621c0.698,0.388,1.473,0.505,2.255,0.567c0.668,0.053,1.351-0.68,1.276-1.338
		c-0.017-0.143-0.041-0.289-0.07-0.436C71.524,51.544,71.648,51.149,71.563,50.712z"/>
	<path fill="#BCA20C" d="M70.594,55.4c0.053-0.285-0.019-0.615-0.169-0.83c-0.158-0.24-0.322-0.475-0.496-0.703
		c-0.312-0.285-0.622-0.57-0.932-0.855c-0.225-0.133-0.447-0.268-0.668-0.406c-0.304-0.3-0.784-0.268-1.123-0.064
		c-0.134,0.078-0.09,0.051-0.359,0.076c-0.792,0.074-1.155,1.177-0.501,1.556c-0.579,1.379-0.204,2.566-0.127,4.196
		c0.011,0.238,0.086,0.478,0.204,0.695c-0.009,0.02-0.023,0.031-0.03,0.053c-0.142,0.418-0.053,0.827,0.296,1.111
		c0.36,0.294,0.831,0,0.87-0.339c0.182,0.021,0.369,0.01,0.563-0.064c0.178-0.066,0.363-0.15,0.55-0.238
		c0.366-0.023,0.74-0.161,1.049-0.389C70.811,58.402,71.087,56.682,70.594,55.4z"/>
	<path fill="#BCA20C" d="M34.391,57.67c-0.107-1.106-0.001-2.809-0.563-3.859c0.02-0.014,0.039-0.025,0.061-0.041
		c0.73-0.518,0.445-1.892-0.418-2.097c-2.483-0.588-3.651,1.09-3.896,2.99c-0.233-0.047-0.501,0.041-0.598,0.329
		c-0.37,1.098,0.382,1.772,0.842,2.676c0.052,0.104,0.126,0.161,0.205,0.201c0.085,0.203,0.176,0.405,0.275,0.603
		c0.265,0.533,0.604,0.887,1.122,1.178c0.041,0.024,0.086,0.037,0.128,0.06c0.105,0.2,0.237,0.398,0.432,0.574
		c0.392,0.361,1.134,0.536,1.589,0.169C34.57,59.642,34.507,58.859,34.391,57.67z"/>
	<path fill="#F4D706" d="M81.355,28.298c0.062-0.579-0.285-1.155-0.841-1.452c-1.271-0.675-2.987-0.172-3.313,1.258
		c-0.074,0.189-0.126,0.381-0.165,0.573c0.056,0.083,0.093,0.177,0.146,0.264c-0.017,0.047-0.037,0.086-0.043,0.14
		c-0.049,0.546,0.157,1.02,0.162,1.544c0.003,0.459-0.476,0.896-0.096,1.225C77.281,31.917,77,31.96,77,31.985v0.034
		c0,0.166,1.271,0.175,1.735-0.109c0.005-0.003,0.011-0.006,0.016-0.009c0.325,0.12,0.647,0.204,0.999,0.224
		c0.297,0.017,0.605-0.338,0.482-0.633c-0.003-0.008-0.007-0.013-0.01-0.021c0.075-0.254,0.18-0.49,0.334-0.719
		c0.117-0.175,0.097-0.342,0.014-0.475c0.032-0.038,0.065-0.076,0.072-0.112c0.018-0.018,0.104-0.023,0.122-0.044
		C81.197,29.576,81.66,28.931,81.355,28.298z"/>
	<path fill="#FFFFFF" d="M78.324,27.823c-0.155,0.088-0.273,0.23-0.317,0.405c-0.179,0.721,0.79,1.063,1.143,0.552
		C79.549,28.303,78.971,27.454,78.324,27.823z"/>
	<path fill="#AD7149" d="M65.837,52.487c0.014-0.148,0.029-0.296,0.038-0.446c0.015-0.259-0.239-0.518-0.5-0.5
		c-1.062,0.072-2.074-0.348-3.125-0.458c-1.069-0.112-2.176-0.114-3.25-0.125c-0.126-0.001-0.22,0.043-0.296,0.104
		c-2.8-0.415-5.809-0.294-8.035-0.268c-0.661,0.007-1.32,0.039-1.978,0.08c-0.081-0.094-0.199-0.16-0.357-0.165
		c-2.525-0.089-5.037-0.254-7.56-0.187c-2.017,0.053-4.116,1.128-6.148,1.354c-0.489,0.054-0.689,0.641-0.252,0.932
		c0.029,0.02,0.058,0.039,0.087,0.058C34.45,52.925,34.449,53,34.443,53h-0.005c-0.014,0-0.026,0.305-0.04,0.447
		c-0.043,0.009-0.088,0.023-0.131,0.032c-0.639,0.112-0.56,0.896-0.108,1.161c-0.704,0.298-0.374,1.46,0.397,1.213
		c1.598-0.516,3.12-1.208,4.671-1.842c3.871-0.522,7.76-0.838,11.68-0.916c2.528-0.049,5.033,0.074,7.526,0.527
		c2.102,0.381,4.998,0.598,6.503,2.229c0.564,0.61,1.471-0.303,0.91-0.91c-0.082-0.087-0.166-0.163-0.25-0.24
		c0.176-0.549,0.331-1.104,0.511-1.653C66.176,52.772,66.032,52.576,65.837,52.487z"/>
	<path fill="#AD7149" d="M53.143,69.609c-0.458,0.734-1.478,0.978-2.29,0.968c-0.464-0.005-1.877-0.194-2.062-0.709
		c-0.276-0.774-1.521-0.439-1.241,0.343c0.417,1.17,1.843,1.475,2.943,1.614c1.378,0.172,3.002-0.347,3.759-1.566
		C54.692,69.553,53.579,68.906,53.143,69.609z"/>
	<path fill="#AD7149" d="M58.969,85.03c0.004-0.049,0.002-0.099,0.013-0.147c0.001-0.006-0.001-0.011,0-0.018
		c0.132-0.2,0.063-0.431-0.105-0.576c0.079-0.141,0.131-0.286,0.131-0.442c0-0.449-0.563-0.853-0.969-0.555
		c-0.432,0.314-0.883,0.594-1.347,0.845c-0.903,0.258-2.127,0.606-2.466,0.688c-0.399,0.097-0.802,0.15-1.204,0.221
		c-0.287,0.025-0.564,0.046-0.831,0.066c-0.009-0.03-0.025-0.057-0.037-0.085c-0.723,0.103-1.41,0.01-2.238-0.026
		c-1.157-0.051-2.333-0.116-3.449-0.446c-0.181-0.054-0.334-0.138-0.479-0.229c-1.53-0.386-3.014-0.97-4.413-1.73
		c-0.703-0.384-1.319,0.629-0.712,1.06c-0.155,0.2-0.203,0.47-0.075,0.684c-0.068,0.091-0.11,0.2-0.111,0.313
		c-0.178,0.218-0.204,0.562,0.111,0.739c3.072,1.732,6.382,2.319,9.874,2.435c2.572,0.085,6.596,0.015,8.524-1.971
		C59.484,85.548,59.274,85.141,58.969,85.03z"/>
	<path fill="#FFFFFF" d="M38.555,35.21c-2.606,2.299-5.009,5.007-5.472,8.574c-0.102,0.78,1.121,0.771,1.221,0
		c0.416-3.203,2.796-5.667,5.114-7.711C40.011,35.551,39.143,34.691,38.555,35.21z"/>
	<g>
		<g>
			<path fill="#FFFFFF" d="M46.111,37.668c0.645,0,0.645-1,0-1S45.466,37.668,46.111,37.668L46.111,37.668z"/>
		</g>
	</g>
	<g>
		<g>
			<path fill="#FFFFFF" d="M44.231,32.229c0.614,0.531,0.721,1.325,0.821,2.089c0.083,0.63,1.084,0.638,1,0
				c-0.135-1.023-0.289-2.083-1.114-2.796C44.453,31.103,43.742,31.807,44.231,32.229L44.231,32.229z"/>
		</g>
	</g>
	<path fill="#FFFFFF" d="M59.988,92.189c0.003-0.27-0.217-0.479-0.488-0.502c-0.784-0.068-1.141,0.366-1.389,0.99
		c-0.349,0.296-0.698,0.584-1.061,0.854c-0.803,0.301-1.574,0.667-2.358,1.009c-0.285,0.097-0.567,0.21-0.849,0.339
		c-0.175,0.021-0.35,0.061-0.524,0.119c-0.772,0.063-1.495,0.201-2.233,0.559c-0.026-0.013-0.047-0.031-0.077-0.039
		c-1.184-0.326-2.341-0.558-3.557-0.476c-1.345-0.59-2.702-1.139-4.131-1.524c-0.024-0.007-0.045-0.002-0.068-0.006
		c-0.537-0.283-1.071-0.537-1.643-0.729c0-0.028-0.009-0.062-0.003-0.088c0.061-0.277-0.08-0.525-0.349-0.615
		c-0.063-0.021-0.125-0.041-0.188-0.063c-0.316-0.105-0.627,0.172-0.633,0.482c-0.001,0.061,0.016,0.116,0.018,0.176
		c-0.238,0.191-0.276,0.593,0.042,0.818c0.019,0.014,0.04,0.024,0.059,0.037c0.044,0.086,0.089,0.165,0.134,0.245
		c0.355,0.895,1.06,1.643,1.875,2.254l0,0.001c-0.189,0.215-0.218,0.545,0.12,0.713c0.799,0.398,1.419,0.646,2.315,0.693
		c0.103,0.006,0.183-0.021,0.252-0.057c0.821,0.332,1.665,0.554,2.518,0.735c0.057,0.052,0.125,0.096,0.223,0.116
		c0.767,0.16,1.457,0.428,2.228,0.494c0.032,0.006,0.059,0.026,0.093,0.023c0.018-0.001,0.035-0.006,0.052-0.008
		c0.025,0.001,0.048,0.007,0.073,0.008c0.04,0.001,0.083-0.012,0.125-0.016c0.227,0.04,0.452,0.088,0.68,0.123
		c0.305,0.047,0.527-0.145,0.6-0.371c0.321-0.077,0.641-0.157,0.958-0.25c0.026,0.004,0.048,0.013,0.076,0.014
		c1.683,0.053,3.244-0.79,4.752-1.443c0.166-0.071,0.234-0.202,0.245-0.343C59.431,95.643,61.476,94.021,59.988,92.189z"/>
	<path fill="#F9F330" d="M69.25,101.033c0.006-0.324,0.002-0.642-0.012-0.958c0.007-0.147,0.014-0.295,0.022-0.442
		c0.851-1.351,0.739-3.21,0.573-4.899c0.069-0.947,0.052-1.896,0.041-2.858c-0.004-0.334-0.319-0.528-0.6-0.482
		c-0.013-0.029-0.017-0.052-0.031-0.082c-0.182-0.378-0.657-0.267-0.863,0c-0.018,0.022-0.027,0.046-0.044,0.069
		c-0.064-0.118-0.138-0.236-0.233-0.358c-0.285-0.363-0.847-0.041-0.854,0.354c-0.001,0.071,0.006,0.143,0.006,0.214
		c-0.229,0.034-0.435,0.208-0.443,0.474c-0.023,0.662,0,1.299,0.066,1.935c-0.02,0.038-0.04,0.073-0.049,0.12
		c-0.008,0.045-0.008,0.089-0.014,0.133c-0.002,0-0.003,0-0.004,0c0.001,0.04-0.009,0.08-0.009,0.12
		c-0.017,0.146-0.031,0.292-0.034,0.437c-0.01,0.085-0.004,0.172-0.02,0.256c-0.012,0.09,0.002,0.163,0.028,0.228
		c0.016,0.25,0.046,0.498,0.079,0.747c-0.094,0.93-0.05,1.879,0.071,2.759c-0.012,0.025-0.028,0.043-0.036,0.071
		c-0.182,0.639-0.285,1.225-0.33,1.883c-0.009,0.125,0.032,0.223,0.094,0.301C66.021,101.251,66.134,102,67,102h2
		C69.904,102,69.982,101.188,69.25,101.033z"/>
	<path fill="#F9F330" d="M34.807,92.752c0.115-0.271-0.012-0.522-0.202-0.659c-0.022-0.208-0.068-0.393-0.173-0.595
		c-0.131-0.255-0.459-0.303-0.687-0.172c-0.109,0.001-0.219,0.034-0.315,0.097c-0.157-0.093-0.358-0.059-0.513,0.045
		c-0.062-0.086-0.117-0.176-0.188-0.259c-0.137-0.159-0.356-0.178-0.539-0.105c-0.345-0.081-0.719,0.169-0.609,0.592
		c0.126,0.483,0.39,0.841,0.675,1.244c0.077,0.108,0.171,0.167,0.268,0.2c0.107,0.152,0.214,0.305,0.319,0.458
		c0.24,0.787,0.424,1.604,0.913,2.279c0.208,0.287,0.67,0.358,0.863,0c0.225-0.416,0.266-0.843,0.253-1.312
		C34.857,94.029,34.589,93.266,34.807,92.752z"/>
	<path fill="#061644" d="M48,99.875c-1,0-1,1,0,1S49,99.875,48,99.875z"/>
	<g>
		<g>
			<path fill="#061644" d="M33.64,52.479c0,5.675,0,11.349,0,17.023c0,0.645,1,0.645,1,0c0-5.675,0-11.349,0-17.023
				C34.64,51.833,33.64,51.833,33.64,52.479L33.64,52.479z"/>
		</g>
	</g>
	<g>
		<g>
			<path fill="#061644" d="M65.556,52.479c0,5.675,0,11.349,0,17.023c0,0.645,1,0.645,1,0c0-5.675,0-11.349,0-17.023
				C66.556,51.833,65.556,51.833,65.556,52.479L65.556,52.479z"/>
		</g>
	</g>
	<g>
		<g>
			<path fill="#061644" d="M33.661,69.201c0.056,4.646,1.22,9.028,4.647,12.33c3.381,3.256,8.336,4.397,12.894,4.333
				c4.534-0.064,9.104-1.773,12.01-5.339c2.527-3.102,3.43-8.624,3.345-12.494c-0.015-0.644-1.015-0.646-1,0
				c0.08,3.634-0.85,8.225-2.76,11.378c-2.331,3.848-7.401,5.267-11.595,5.455c-4.389,0.197-8.86-1.137-12.186-4.04
				c-3.332-2.909-4.304-7.396-4.354-11.623C34.653,68.557,33.653,68.556,33.661,69.201L33.661,69.201z"/>
		</g>
	</g>
	<g>
		<g>
			<path fill="#061644" d="M39.59,62.139c1.253-1.24,4.191-1.231,5.353,0.149c0.416,0.494,1.119-0.217,0.707-0.707
				c-1.514-1.801-5.147-1.751-6.767-0.149C38.424,61.886,39.131,62.593,39.59,62.139L39.59,62.139z"/>
		</g>
	</g>
	<g>
		<g>
			<path fill="#061644" d="M41.25,61.492c-0.103,0.833,0.501,1.494,1.298,1.637c0.897,0.161,1.71-0.298,2.046-1.135
				c0.241-0.599-0.727-0.856-0.964-0.266c-0.268,0.667-1.48,0.567-1.381-0.236C42.329,60.854,41.328,60.861,41.25,61.492
				L41.25,61.492z"/>
		</g>
	</g>
	<g>
		<g>
			<path fill="#061644" d="M60.572,57.906c-2.206-0.47-5.794-1.28-7.771,0.2c-0.509,0.382-0.012,1.25,0.505,0.863
				c1.724-1.292,5.081-0.508,7-0.099C60.936,59.005,61.203,58.041,60.572,57.906L60.572,57.906z"/>
		</g>
	</g>
	<g>
		<g>
			<path fill="#061644" d="M47.601,69.604c1.521,1.546,5.266,1.844,6.327-0.398c0.274-0.579-0.588-1.087-0.863-0.504
				c-0.777,1.641-3.662,1.308-4.756,0.195C47.855,68.437,47.148,69.144,47.601,69.604L47.601,69.604z"/>
		</g>
	</g>
	<g>
		<g>
			<path fill="#061644" d="M34.197,60.923c-1.796-1.093-3.713-2.257-4.554-4.285c-1.174-2.836,2.188-3.953,4.201-4.399
				c4.591-1.018,9.526-1.09,14.201-1.17c3.969-0.068,7.966-0.157,11.922,0.208c2.435,0.225,7.232,0.18,9.155,1.998
				c0.468,0.443,1.177-0.263,0.707-0.707c-2.211-2.09-7.021-2.01-9.862-2.291c-5.818-0.575-11.83-0.34-17.654-0.001
				c-3.833,0.223-9.59,0.146-12.742,2.739c-3.755,3.088,1.735,7.321,4.12,8.772C34.245,62.122,34.747,61.258,34.197,60.923
				L34.197,60.923z"/>
		</g>
	</g>
	<g>
		<g>
			<path fill="#061644" d="M66.499,60.812c2.742,0.086,5.082-1.535,5.252-4.396c0.189-3.201-2.916-4.881-5.695-4.98
				c-0.646-0.023-0.643,0.977,0,1c2.281,0.081,4.536,1.214,4.694,3.729c0.154,2.44-2.091,3.714-4.251,3.646
				C65.854,59.791,65.855,60.791,66.499,60.812L66.499,60.812z"/>
		</g>
	</g>
	<g>
		<g>
			<path fill="#061644" d="M29.466,55.357c0-1.872,0-3.744,0-5.616c0-0.645-1-0.645-1,0c0,0.025,0,0.049,0,0.074
				c0,0.645,1,0.645,1,0c0-0.025,0-0.049,0-0.074c0-0.645-1-0.645-1,0c0,1.872,0,3.744,0,5.616
				C28.466,56.002,29.466,56.002,29.466,55.357L29.466,55.357z"/>
		</g>
	</g>
	<g>
		<g>
			<path fill="#061644" d="M29.542,49.875c0.713-0.718,1.828-0.727,2.735-1.053c0.603-0.216,0.343-1.183-0.266-0.964
				c-1.1,0.395-2.309,0.436-3.177,1.31C28.38,49.626,29.087,50.333,29.542,49.875L29.542,49.875z"/>
		</g>
	</g>
	<g>
		<g>
			<path fill="#061644" d="M71.656,55.416c0-1.651,0-3.301,0-4.952c0-0.645-1-0.645-1,0c0,0.056,0,0.111,0,0.167
				c0,0.645,1,0.645,1,0c0-0.056,0-0.111,0-0.167c0-0.645-1-0.645-1,0c0,1.651,0,3.301,0,4.952
				C70.656,56.061,71.656,56.061,71.656,55.416L71.656,55.416z"/>
		</g>
	</g>
	<g>
		<g>
			<path fill="#061644" d="M66.396,48.62c0.743-0.019,1.526,0.316,2.208,0.576c0.394,0.149,1.939,0.639,2.069,1.122
				c0.167,0.622,1.132,0.358,0.965-0.266c-0.215-0.8-1.391-1.228-2.055-1.525c-0.96-0.429-2.113-0.934-3.188-0.907
				C65.753,47.637,65.751,48.637,66.396,48.62L66.396,48.62z"/>
		</g>
	</g>
	<g>
		<g>
			<path fill="#061644" d="M31.24,48.12c0.061-3.666,0.954-7.035,2.961-10.12c1.679-2.58,4.925-5.801,8.066-6.314
				c0.421-0.068,0.493-0.734,0.12-0.914c-0.053-0.026-0.107-0.052-0.16-0.077c-0.578-0.278-1.085,0.583-0.505,0.863
				c0.054,0.026,0.107,0.052,0.16,0.077c0.04-0.305,0.08-0.609,0.12-0.914c-3.297,0.538-6.333,3.687-8.283,6.233
				c-2.443,3.19-3.414,7.211-3.479,11.164C30.229,48.765,31.229,48.764,31.24,48.12L31.24,48.12z"/>
		</g>
	</g>
	<g>
		<g>
			<path fill="#061644" d="M41.118,29.634c0.323,1.178,0.73,2.33,1.232,3.444c0.265,0.587,1.126,0.078,0.863-0.505
				c-0.466-1.034-0.832-2.111-1.132-3.205C41.912,28.747,40.947,29.011,41.118,29.634L41.118,29.634z"/>
		</g>
	</g>
	<g>
		<g>
			<path fill="#061644" d="M41.75,29.705c5.393,0,10.787,0,16.18,0c0.645,0,0.645-1,0-1c-5.393,0-10.787,0-16.18,0
				C41.104,28.705,41.104,29.705,41.75,29.705L41.75,29.705z"/>
		</g>
	</g>
	<g>
		<g>
			<path fill="#061644" d="M69.071,48.12c-0.067-4.059-1.124-7.833-3.479-11.164c-1.819-2.573-5.077-5.709-8.284-6.233
				c0.04,0.304,0.08,0.609,0.12,0.914c0.054-0.025,0.107-0.051,0.161-0.077c0.581-0.279,0.074-1.141-0.505-0.863
				c-0.053,0.025-0.107,0.051-0.161,0.077c-0.374,0.18-0.301,0.845,0.12,0.914C60.28,32.216,63.3,35.441,65.11,38
				c2.09,2.957,2.901,6.552,2.961,10.12C68.082,48.764,69.082,48.765,69.071,48.12L69.071,48.12z"/>
		</g>
	</g>
	<g>
		<g>
			<path fill="#061644" d="M57.225,29.368c-0.297,1.094-0.664,2.171-1.131,3.205c-0.264,0.583,0.598,1.092,0.863,0.505
				c0.503-1.113,0.912-2.265,1.231-3.444C58.358,29.011,57.394,28.746,57.225,29.368L57.225,29.368z"/>
		</g>
	</g>
	<g>
		<g>
			<path fill="#061644" d="M57.561,28.705c-5.394,0-10.788,0-16.181,0c-0.645,0-0.645,1,0,1c5.394,0,10.788,0,16.181,0
				C58.206,29.705,58.206,28.705,57.561,28.705L57.561,28.705z"/>
		</g>
	</g>
	<g>
		<g>
			<path fill="#061644" d="M40.256,83.734c0,2.386,0,4.772,0,7.158c0,0.645,1,0.645,1,0c0-0.159,0-0.318,0-0.478
				c0-0.645-1-0.645-1,0c0,0.159,0,0.318,0,0.478c0,0.645,1,0.645,1,0c0-2.386,0-4.772,0-7.158
				C41.256,83.09,40.256,83.09,40.256,83.734L40.256,83.734z"/>
		</g>
	</g>
	<g>
		<g>
			<path fill="#061644" d="M58.599,83.734c0,2.386,0,4.772,0,7.158c0,0.645,1,0.645,1,0c0-0.159,0-0.318,0-0.478
				c0-0.645-1-0.645-1,0c0,0.159,0,0.318,0,0.478c0,0.645,1,0.645,1,0c0-2.386,0-4.772,0-7.158
				C59.599,83.09,58.599,83.09,58.599,83.734L58.599,83.734z"/>
		</g>
	</g>
	<g>
		<g>
			<path fill="#061644" d="M40.526,91.936c4.542,4.565,14.61,4.923,18.926-0.177c0.414-0.489-0.29-1.2-0.707-0.707
				c-3.962,4.682-13.331,4.38-17.512,0.177C40.778,90.771,40.071,91.479,40.526,91.936L40.526,91.936z"/>
		</g>
	</g>
	<g>
		<g>
			<path fill="#061644" d="M42.652,35.116c0.138,1.646,0.199,3.274-0.204,4.89c-0.157,0.625,0.808,0.891,0.964,0.266
				c0.425-1.702,0.385-3.419,0.24-5.156C43.599,34.478,42.599,34.473,42.652,35.116L42.652,35.116z"/>
		</g>
	</g>
	<g>
		<g>
			<path fill="#061644" d="M55.455,35.204c-0.315,1.594-0.401,3.261,0,4.847c0.158,0.625,1.122,0.36,0.964-0.266
				c-0.355-1.406-0.279-2.902,0-4.315C56.543,34.839,55.58,34.571,55.455,35.204L55.455,35.204z"/>
		</g>
	</g>
	<g>
		<g>
			<path fill="#061644" d="M35.099,47.881c0.645,0,0.645-1,0-1S34.454,47.881,35.099,47.881L35.099,47.881z"/>
		</g>
	</g>
	<g>
		<g>
			<path fill="#061644" d="M63.542,48.62c0.05,0,0.1,0,0.15,0c0.645,0,0.645-1,0-1c-0.05,0-0.1,0-0.15,0
				C62.897,47.62,62.897,48.62,63.542,48.62L63.542,48.62z"/>
		</g>
	</g>
	<g>
		<g>
			<path fill="#061644" d="M72.578,43.872c0.783-2.194,1.509-4.551,1.871-6.856c0.099-0.63-0.864-0.901-0.965-0.266
				c-0.362,2.306-1.088,4.662-1.871,6.856C71.396,44.215,72.362,44.475,72.578,43.872L72.578,43.872z"/>
		</g>
	</g>
	<g>
		<g>
			<path fill="#061644" d="M72.76,44.233c2.996-1.843,5.85-3.909,9.004-5.483c-0.168-0.288-0.336-0.576-0.504-0.863
				c-0.226,0.124-0.451,0.248-0.677,0.373c-0.585,0.246-0.328,1.214,0.266,0.964c0.403-0.169,0.551-0.234,0.915-0.473
				c0.542-0.354,0.072-1.151-0.504-0.863c-3.155,1.573-6.009,3.639-9.004,5.483C71.707,43.707,72.209,44.572,72.76,44.233
				L72.76,44.233z"/>
		</g>
	</g>
	<g>
		<path fill="#061644" d="M40.744,90.293c-2.699,0.004-5.559,0.022-8.177,0.029c-0.007-0.011-0.019-0.016-0.025-0.025h-1.881
			c0.046,0.1,0.096,0.198,0.133,0.302c0.003,0.009,0.006,0.018,0.009,0.026c-0.038-0.172,0.202,0.312,0.264,0.426
			c0.012,0.022,0.02,0.047,0.031,0.07c0.082,0.13,0.137,0.271,0.201,0.41h1.332c0.001-0.004,0.004-0.006,0.005-0.01
			c2.598-0.007,5.428-0.024,8.103-0.029C41.512,91.491,41.518,90.291,40.744,90.293z"/>
	</g>
	<g>
		<g>
			<path fill="#061644" d="M59.125,91.492c4.109,0.008,8.217,0.032,12.326,0.032c0.774,0,0.774-1.199,0-1.199
				c-0.126,0-0.252,0-0.378,0c-0.773,0-0.773,1.199,0,1.199c0.126,0,0.252,0,0.378,0c0.774,0,0.774-1.199,0-1.199
				c-4.108,0-8.217-0.024-12.326-0.032C58.351,90.291,58.351,91.491,59.125,91.492L59.125,91.492z"/>
		</g>
	</g>
	<g>
		<path fill="#061644" d="M71.549,91.717c4.593,0.577,6.116,6.204,6.748,10.424L79.439,102c-0.074-0.497-0.146-1.161-0.237-1.652
			c-0.797-4.337-2.682-9.396-7.653-10.022C70.737,90.224,70.746,91.615,71.549,91.717z"/>
	</g>
	<g>
		<g>
			<path fill="#061644" d="M39.107,58.223c0.67-1.128,1.652-1.923,2.99-2.074c0.994-0.112,2.38,0.021,2.694,1.15
				c0.172,0.62,1.137,0.356,0.964-0.266c-0.401-1.441-1.757-1.863-3.125-1.907c-1.887-0.06-3.453,1.019-4.387,2.593
				C37.914,58.274,38.779,58.776,39.107,58.223L39.107,58.223z"/>
		</g>
	</g>
	<g>
		<path fill="#061644" d="M55,63c0,0,3,0,5,0v-1c-2,0-3,0-5,0C54,62,54,63,55,63C55,63,54,63,55,63z"/>
	</g>
	<g>
		<g>
			<path fill="#061644" d="M46.153,75.821c2.838,1.441,5.804,1.365,8.854,0.708c0.63-0.137,0.363-1.101-0.266-0.965
				c-2.776,0.6-5.488,0.711-8.083-0.606C46.084,74.667,45.578,75.529,46.153,75.821L46.153,75.821z"/>
		</g>
	</g>
	<g>
		<g>
			<path fill="#061644" d="M74.159,36.246c-5.373-1.574-9.521-8.599-4.962-13.146c3.345-3.337,9.448-3.281,13.755-2.527
				c4.679,0.819,9.652,4.222,10.788,9.032c1.521,6.436-7.034,9.242-11.855,7.929c-0.623-0.17-0.887,0.795-0.266,0.964
				c5.291,1.442,12.35-1.048,13.182-7.016c0.864-6.191-6.416-10.83-11.583-11.873c-4.896-0.989-12.287-0.727-15.575,3.711
				c-3.871,5.226,0.692,12.263,6.251,13.891C74.514,37.391,74.776,36.426,74.159,36.246L74.159,36.246z"/>
		</g>
	</g>
	<g>
		<g>
			<path fill="#061644" d="M77.594,31.697c0.598-1.569-1.445-3.454,0.341-4.559c1.628-1.006,4.156,0.208,3.134,2.278
				c-0.215,0.436-0.535,0.829-0.813,1.226c-0.27,0.384-0.315,0.782-0.46,1.218c-0.102,0.307,0.382,0.438,0.482,0.133
				c0.264-0.796,0.624-1.372,1.08-2.078c0.323-0.501,0.507-1.037,0.476-1.634c-0.065-1.226-1.477-2.07-2.575-2.079
				c-1.072-0.009-2.429,0.755-2.608,1.869c-0.196,1.21,0.924,2.281,0.462,3.494C76.996,31.866,77.48,31.996,77.594,31.697
				L77.594,31.697z"/>
		</g>
	</g>
	<g>
		<g>
			<path fill="#061644" d="M77.409,32.614c0.888-0.046,1.746,0.239,2.627,0.267c0.646,0.021,0.644-0.979,0-1
				c-0.88-0.028-1.739-0.313-2.627-0.267C76.768,31.648,76.765,32.648,77.409,32.614L77.409,32.614z"/>
		</g>
	</g>
	<g>
		<g>
			<path fill="#061644" d="M77.3,32.344c-0.438,1-0.481,2.557,0.916,2.763c1.296,0.191,2.105-1.001,1.999-2.188
				c-0.057-0.637-1.058-0.643-1,0c0.048,0.54-0.111,1.199-0.74,1.214c-0.655,0.016-0.502-0.849-0.312-1.284
				C78.419,32.264,77.558,31.755,77.3,32.344L77.3,32.344z"/>
		</g>
	</g>
	<g>
		<g>
			<path fill="#061644" d="M79.257,32.757c0.184-0.031,0.418-0.007,0.594,0.054c0.61,0.212,0.871-0.754,0.266-0.964
				c-0.348-0.121-0.768-0.115-1.125-0.054C78.356,31.901,78.626,32.864,79.257,32.757L79.257,32.757z"/>
		</g>
	</g>
	<g>
		<g>
			<path fill="#061644" d="M74.938,23.709c0.376,0.607,0.683,1.25,1.021,1.878c0.152,0.284,0.584,0.032,0.432-0.252
				c-0.337-0.628-0.645-1.272-1.021-1.878C75.2,23.184,74.767,23.434,74.938,23.709L74.938,23.709z"/>
		</g>
	</g>
	<g>
		<g>
			<path fill="#061644" d="M82.738,26.664c0.525-0.483,1.102-0.904,1.656-1.352c0.251-0.203-0.105-0.554-0.354-0.354
				c-0.555,0.448-1.131,0.869-1.656,1.352C82.146,26.529,82.501,26.881,82.738,26.664L82.738,26.664z"/>
		</g>
	</g>
	<g>
		<g>
			<path fill="#061644" d="M83.607,29.937c0.712-0.05,1.425-0.02,2.138-0.025c0.322-0.002,0.322-0.502,0-0.5
				c-0.713,0.005-1.426-0.024-2.138,0.025C83.288,29.459,83.285,29.959,83.607,29.937L83.607,29.937z"/>
		</g>
	</g>
	<g>
		<g>
			<path fill="#061644" d="M73.31,28.586c0.713-0.008,1.422,0.064,2.134,0.099c0.322,0.016,0.321-0.484,0-0.5
				c-0.712-0.035-1.421-0.107-2.134-0.099C72.987,28.089,72.987,28.589,73.31,28.586L73.31,28.586z"/>
		</g>
	</g>
	<g>
		<g>
			<path fill="#061644" d="M79.643,24.294c0.05-0.711,0.179-1.413,0.268-2.119c0.04-0.319-0.46-0.315-0.5,0
				c-0.09,0.707-0.218,1.408-0.268,2.119C79.12,24.616,79.62,24.614,79.643,24.294L79.643,24.294z"/>
		</g>
	</g>
	<path fill="#061644" d="M78.294,32.812c-0.286,0.294-0.531,0.589-0.511,1.018c0.039,0.827,1.328,0.831,1.287,0
		c0.006,0.085,0.051,0.049,0.134-0.108C79.781,33.127,78.872,32.215,78.294,32.812z"/>
	<path fill="#061644" d="M43.826,61.492c-0.088-0.322-0.4-0.497-0.727-0.521c-0.038-0.028-0.073-0.059-0.122-0.078
		c-0.667-0.259-1.197,0.507-0.781,0.981c0.117,0.356,0.632,0.508,1.063,0.421c0.134-0.027,0.219-0.096,0.277-0.18
		C43.77,62.02,43.918,61.828,43.826,61.492z"/>
	<path opacity="0.13" d="M90.584,9.911h-53.12l-26.56,46.074l26.56,46.073h53.12l26.561-46.073L90.584,9.911z M89.504,100.194
		h-50.97l-25.49-44.21l25.49-44.211h50.97l25.489,44.211L89.504,100.194z"/>
	<g>
		<g>
			<path fill="#061644" d="M59.396,91.521c3.226,4.112-3.872,5.736-6.513,6.456c-1.826,0.498-3.18,1.528-3.448,3.474
				c-0.087,0.63,0.876,0.902,0.964,0.266c0.465-3.371,5.596-3.178,8.062-4.563c2.562-1.439,3.499-3.974,1.643-6.34
				C59.706,90.308,59.003,91.021,59.396,91.521L59.396,91.521z"/>
		</g>
	</g>
	<g>
		<g>
			<path fill="#061644" d="M40.068,91.249c-1.213,2.229,0.365,4.225,2.077,5.647c1.156,0.961,2.444,1.478,3.89,1.82
				c1.387,0.329,3.127,0.412,4.441,0.935c-0.04-0.305-0.08-0.609-0.12-0.914c-0.064,0.027-0.128,0.055-0.192,0.082
				c-0.591,0.253-0.081,1.114,0.505,0.863c0.064-0.027,0.128-0.055,0.192-0.082c0.448-0.191,0.226-0.776-0.12-0.914
				c-1.499-0.596-3.446-0.698-5.042-1.076c-2.139-0.508-6.217-3.194-4.769-5.857C41.24,91.187,40.376,90.682,40.068,91.249
				L40.068,91.249z"/>
		</g>
	</g>
	<g>
		<g>
			<path fill="#061644" d="M66,91.918c0,3.139,0,6.277,0,9.416c0,0.645,1,0.645,1,0c0-3.139,0-6.277,0-9.416
				C67,91.273,66,91.273,66,91.918L66,91.918z"/>
		</g>
	</g>
	<g>
		<g>
			<path fill="#061644" d="M69.417,91.584c0,3.25,0,6.5,0,9.75c0,0.645,1,0.645,1,0c0-3.25,0-6.5,0-9.75
				C70.417,90.939,69.417,90.939,69.417,91.584L69.417,91.584z"/>
		</g>
	</g>
	<g>
		<g>
			<path fill="#061644" d="M34.417,91.751c0,1.556,0,3.111,0,4.667c0,0.645,1,0.645,1,0c0-1.556,0-3.111,0-4.667
				C35.417,91.106,34.417,91.106,34.417,91.751L34.417,91.751z"/>
		</g>
	</g>
	<path fill-rule="evenodd" clip-rule="evenodd" fill="#061644" d="M65.406,72.293c0.665-1.436,0.939-2.936,1.031-4.73
		c0.011-0.215-0.097-0.444-0.24-0.516C66.218,66.729,66.25,67,66.25,66c-0.001,0-0.657-2.25-0.656-2.25
		c0.002,2-0.722,6.83-1.712,8.896c-0.477,0.994-1.255,1.924-2.052,2.978c-0.224,0.296-0.543,0.799-0.767,1.078
		c-0.05-1.408-0.247-3.03-0.76-4.049c-0.39-0.773-1.268-1.354-2.126-1.429c-2.344-0.203-4.735,0.055-7.086,0.084
		c-0.08-0.078-0.19-0.13-0.34-0.121c-2.295,0.127-4.593,0.183-6.89,0.267c-1.19,0.044-2.171,0.205-2.779,1.314
		c-0.403,0.734-0.605,2.583-0.415,4.22c-3.233-2.809-6.599-8.799-5.935-13.105c0.098-0.631-0.866-0.901-0.964-0.266
		c-0.258,1.67-0.048,3.428,0.485,5.156c-0.186,0.094-0.315,0.285-0.235,0.547c0.311,1.016,0.394,2.07,0.544,3.117
		c0.006,0.044,0.011,0.089,0.018,0.133c0.021,0.136,0.084,0.227,0.167,0.284c0,0.049,0.002,0.099,0.02,0.153
		c0.164,0.5,0.37,0.994,0.582,1.487c-0.119,0.093-0.209,0.227-0.225,0.38c-0.017,0.167-0.022,0.335-0.02,0.502
		c-0.263,0.128-0.404,0.48-0.146,0.789c0.098,0.117,0.207,0.223,0.307,0.337c0.233,0.854,0.71,1.641,1.38,2.226
		c0.02,0.018,0.046,0.018,0.067,0.031c0.048,0.034,0.099,0.059,0.154,0.072c0.025,0.007,0.047,0.016,0.073,0.02
		c0.072,0.007,0.144,0.001,0.212-0.021c0.011-0.003,0.024,0.001,0.035-0.003c0.024,0.037,0.05,0.073,0.073,0.111
		c-0.033,0.112-0.023,0.241,0.057,0.375c0.106,0.179,0.229,0.339,0.344,0.507c-0.163,0.219-0.171,0.528,0.148,0.673
		c0.199,0.086,0.394,0.179,0.59,0.27c0.614,0.682,1.318,1.269,2.16,1.73c0.057,0.031,0.116,0.047,0.175,0.054
		c0.025,0.041,0.055,0.081,0.099,0.118c1.521,1.277,3.499,1.908,5.424,2.293c0.049,0.039,0.104,0.07,0.171,0.086
		c2.805,0.657,5.567-0.257,8.383-0.357c0.186-0.007,0.322-0.114,0.404-0.253c0.012,0,0.021,0.004,0.033,0.003
		c1.203-0.117,2.254-0.494,3.315-1.068c0.082-0.045,0.133-0.107,0.17-0.176c0.857-0.089,1.856-0.534,1.952-1.318
		c0-0.006-0.003-0.01-0.002-0.015c0.007-0.006,0.016-0.011,0.023-0.017c0.156-0.097,0.313-0.19,0.458-0.303
		c1.105-0.855,2.173-1.854,2.707-3.141c0.054-0.064,0.109-0.131,0.163-0.194c1.379-1.61,1.121-3.407,1.697-5.323
		C65.827,72.567,65.643,72.354,65.406,72.293z M53.858,79.909c-0.008-0.014-0.02-0.025-0.028-0.039
		c-0.024-0.04-0.053-0.09-0.083-0.143c-0.003-0.008-0.008-0.015-0.012-0.022c-0.091-0.167-0.188-0.367-0.194-0.455
		c-0.017-0.224-0.141-0.42-0.367-0.482c-0.23-0.063-0.426-0.045-0.624,0.004c-0.053-0.021-0.111-0.032-0.175-0.027
		c-1.144,0.083-2.501-0.042-3.565,0.446c-0.169,0.078-0.239,0.208-0.25,0.343c-0.062,0.074-0.111,0.162-0.123,0.278
		c-0.015,0.149-0.506,0.131-1.114,0.05c-1.304-0.264-2.609-0.918-2.734-2.046c-0.097-0.874,0.131-1.864,0.499-2.657
		c0.336-0.725,1.398-0.708,2.161-0.767c2.116-0.035,4.235-0.09,6.34-0.21c2.086-0.118,3.269,0.442,3.286,2.631
		c0.007,0.917,0.227,1.873,0.19,2.802C56.046,79.951,54.767,80.178,53.858,79.909z"/>
</g>
</svg>
