<?xml version="1.0" encoding="utf-8"?>
<!-- Generator: Adobe Illustrator 16.0.0, SVG Export Plug-In . SVG Version: 6.00 Build 0)  -->
<!DOCTYPE svg PUBLIC "-//W3C//DTD SVG 1.1//EN" "http://www.w3.org/Graphics/SVG/1.1/DTD/svg11.dtd">
<svg version="1.1" xmlns="http://www.w3.org/2000/svg" xmlns:xlink="http://www.w3.org/1999/xlink" x="0px" y="0px"
	 width="111.698px" height="128.916px" viewBox="0 0 111.698 128.916" enable-background="new 0 0 111.698 128.916"
	 xml:space="preserve">
<g id="Layer_1">
	<g id="Layer_63">
		<g>
			<g>
				<polygon fill="#EFA554" points="111.698,96.916 56.272,128.916 0.848,96.916 0.848,32.916 56.272,0.916 111.698,32.916 				"/>
			</g>
		</g>
	</g>
</g>
<g id="Layer_2">
	<polygon fill="#ED8B56" points="102.777,38.639 102.777,91.769 102.766,91.779 101.346,92.599 95.067,96.219 92.346,97.789 
		92.107,97.909 91.976,97.969 91.867,98.029 88.836,99.769 86.966,100.849 86.926,100.879 83.676,102.759 82.806,103.269 
		81.426,104.059 79.966,104.909 79.787,105.009 79.766,105.019 78.056,106.009 77.096,106.559 72.476,109.229 71.846,109.599 
		71.787,109.629 71.207,109.969 69.107,111.179 68.836,111.329 68.466,111.549 68.287,111.649 68.107,111.749 64.247,113.979 
		64.236,113.989 63.807,114.239 62.396,115.049 61.606,115.509 61.506,115.569 61.426,115.619 60.606,116.089 56.867,118.249 
		56.727,118.329 56.586,118.249 56.477,118.189 56.296,118.079 56.146,117.999 56.086,117.959 55.066,117.369 49.387,114.079 
		49.157,113.949 49.117,113.929 48.606,113.629 48.597,113.629 47.847,113.189 47.606,113.049 47.046,112.729 42.046,109.839 
		41.917,109.759 41.687,109.629 41.106,109.289 40.997,109.229 40.657,109.029 40.626,109.009 40.216,108.779 40.106,108.719 
		39.946,108.629 39.216,108.199 38.977,108.069 35.907,106.289 35.517,106.059 35.026,105.779 34.696,105.589 32.847,104.519 
		32.276,104.189 32.077,104.079 30.937,103.409 30.566,103.199 30.466,103.139 30.296,103.049 29.696,102.699 28.057,101.749 
		25.146,100.069 25.057,100.019 20.387,97.319 18.276,96.099 10.776,91.769 10.776,38.639 17.807,34.579 18.227,34.339 
		19.537,33.579 25.106,30.359 27.097,29.209 32.026,26.369 33.606,25.459 33.776,25.359 35.437,24.409 36.597,23.739 38.137,22.839 
		38.657,22.539 40.937,21.229 41.626,20.829 43.086,19.989 48.807,16.689 49.267,16.429 55.336,12.919 56.776,12.089 57.836,12.699 
		64.327,16.449 78.857,24.839 79.897,25.439 82.197,26.759 83.067,27.259 84.586,28.139 85.957,28.929 86.756,29.389 86.846,29.439 
		88.657,30.479 92.436,32.669 92.476,32.689 92.476,32.699 92.737,32.849 93.397,33.229 94.006,33.579 94.857,34.069 95.447,34.409 
		95.737,34.579 96.796,35.189 97.577,35.639 98.016,35.889 99.957,37.009 	"/>
</g>
<g id="Layer_7">
	<polygon fill="#B78365" points="102.777,38.639 102.777,91.769 102.766,91.779 101.346,92.599 95.067,96.219 92.346,97.789 
		92.107,97.909 91.976,97.969 91.867,98.029 88.836,99.769 86.966,100.849 86.926,100.879 83.676,102.759 82.806,103.269 
		81.426,104.059 79.966,104.909 79.787,105.009 79.766,105.019 78.056,106.009 77.096,106.559 72.476,109.229 71.846,109.599 
		71.787,109.629 71.207,109.969 69.107,111.179 68.836,111.329 68.466,111.549 68.287,111.649 68.107,111.749 64.247,113.979 
		64.236,113.989 63.807,114.239 62.396,115.049 61.606,115.509 61.506,115.569 61.426,115.619 60.606,116.089 56.867,118.249 
		56.586,118.249 56.477,118.189 56.296,118.079 56.146,117.999 56.086,117.959 55.066,117.369 49.387,114.079 49.157,113.949 
		49.117,113.929 48.606,113.629 48.597,113.629 47.847,113.189 47.606,113.049 47.046,112.729 42.046,109.839 41.917,109.759 
		41.687,109.629 41.106,109.289 40.997,109.229 40.657,109.029 40.626,109.009 40.216,108.779 40.106,108.719 39.946,108.629 
		39.216,108.199 38.977,108.069 35.907,106.289 35.517,106.059 35.026,105.779 34.696,105.589 32.847,104.519 32.276,104.189 
		32.077,104.079 30.937,103.409 30.566,103.199 30.466,103.139 30.296,103.049 29.696,102.699 28.057,101.749 25.146,100.069 
		25.057,100.019 20.387,97.319 18.276,96.099 10.776,91.769 10.776,38.639 17.807,34.579 18.227,34.339 95.447,34.409 
		95.737,34.579 96.796,35.189 97.577,35.639 98.016,35.889 99.957,37.009 	"/>
	<path fill="#1C1714" d="M79.911,64.686c0.135-0.711,0.148-1.441,0.043-1.995c-0.037-0.187-0.137-0.337-0.27-0.448
		c-0.24-0.899-0.738-1.663-1.754-2.036c-0.283-0.104-0.539,0.009-0.725,0.202c-0.229-0.144-0.467-0.253-0.699-0.312
		c-0.982-0.905-3.033,0.392-3.873,1.123c-1.975,1.718-0.799,4.544,0.748,6.193c0.086,0.101,0.186,0.188,0.281,0.278
		c0.133,0.125,0.266,0.243,0.398,0.348c0.465,0.313,0.986,0.085,1.213-0.282c0.807,0.274,1.68,0.174,2.387-0.493
		c0.037,0.004,0.064,0.021,0.104,0.023c0.373,0.027,0.66-0.113,0.881-0.348c0.063-0.024,0.131-0.042,0.188-0.086
		c0.389-0.313,0.68-0.81,0.875-1.373c0.117-0.105,0.201-0.257,0.203-0.477C79.911,64.901,79.911,64.792,79.911,64.686z"/>
	<path fill="#1C1714" d="M94.194,61.83c-0.02-0.148-0.082-0.255-0.162-0.342c-0.168-0.535-0.498-0.934-1.094-1.035
		c-0.158-0.027-0.322-0.021-0.486-0.003c-0.037-0.135-0.107-0.265-0.24-0.374c-0.229-0.185-0.459-0.325-0.693-0.442
		c-0.09-0.106-0.209-0.196-0.379-0.243c-0.227-0.062-0.422-0.075-0.611-0.062c-2.605-0.349-5.07,2.746-4.092,5.42
		c0.205,1.007,0.881,1.88,2.125,2.355c0.803,0.906,1.953,1.346,3.186,0.521c0.369-0.247,0.668-0.6,0.904-1.009
		c0.229-0.084,0.451-0.247,0.635-0.523c0.027-0.042,0.045-0.09,0.068-0.134c0.184-0.084,0.338-0.239,0.402-0.489
		c0.123-0.555,0.377-1.623,0.414-2.635C94.219,62.515,94.243,62.188,94.194,61.83z"/>
	<path fill="#3F2A1F" d="M78.647,63.954c-0.17-0.425-0.729-0.348-0.961-0.054c-0.143,0.18-0.182,0.384-0.299,0.576
		c-0.178,0.289-0.486,0.478-0.77,0.646c-0.922,0.549-1.709,0.438-2.52-0.142c-0.082-0.06-0.168,0.042-0.154,0.122
		C74.485,67.855,79.512,66.142,78.647,63.954z"/>
	<path fill="#3F2A1F" d="M91.954,63.956c-0.455,0.62-0.66,0.904-1.445,1.087c-0.404,0.094-0.881,0.168-1.289,0.162
		c-0.287-0.006-0.545-0.171-0.83-0.205c-0.191-0.022-0.404,0.184-0.301,0.383c0.432,0.832,1.816,1.109,2.662,1.051
		c1.15-0.08,2.559-0.952,2.398-2.247C93.073,63.58,92.268,63.529,91.954,63.956z"/>
	<path fill="#59381F" d="M77.743,64.261c-0.182,0.268-0.402,0.471-0.563,0.757c-0.178,0.325,0.26,0.551,0.51,0.397
		c0.281-0.172,0.51-0.339,0.715-0.605C78.745,64.365,78.047,63.807,77.743,64.261z"/>
	<path fill="#59381F" d="M91.834,64.458c-0.104,0.103-0.209,0.206-0.311,0.309c-0.338,0.16-0.084,0.624,0.238,0.565
		c0.324-0.06,0.516-0.223,0.715-0.479C92.813,64.423,92.106,63.969,91.834,64.458z"/>
	<path fill="#7A5A44" d="M78.036,64.243c-0.422,0-0.354,0.653,0.066,0.653C78.524,64.896,78.458,64.243,78.036,64.243z"/>
	<path fill="#7A5A44" d="M92.29,64.263c-0.498,0-0.395,0.768,0.096,0.768C92.883,65.031,92.782,64.263,92.29,64.263z"/>
	<path fill="#110A07" d="M74.194,60.211c-1.654,0.747-2.914,3.148-2.006,4.881c0.035,0.413,0.146,0.816,0.398,1.182
		c0.098,0.141,0.322,0.052,0.332-0.104c0.109-1.31,0.152-2.363,1.34-3.169c0.861-0.588,1.729-1.04,2.807-0.807
		c0.301,0.065,0.883,0.327,1.424,0.447c0.307,0.222,0.609,0.45,0.914,0.667c0.215,0.15,0.461-0.043,0.531-0.239
		C80.965,60.231,75.854,59.464,74.194,60.211z"/>
	<path fill="#110A07" d="M90.573,59.661c-2.99-0.502-4.975,2.374-4.029,5.048c0.119,0.338,0.637,0.248,0.623-0.116
		c-0.096-2.259,1.541-3.655,3.771-3.11c0.781,0.192,1.674,0.695,2.168,1.329c0.395,0.512,0.512,1.139,0.902,1.645
		c0.074,0.096,0.232,0.089,0.303-0.011C95.926,62.048,92.499,59.984,90.573,59.661z"/>
	<path fill="#99573D" d="M80.004,54.24c-0.109-0.158-0.326-0.255-0.496-0.146c-0.033,0.021-0.055,0.049-0.078,0.074
		c-0.004-0.005-0.008-0.01-0.012-0.016c-0.152,0.138-0.281,0.164-0.41,0.35c-0.064,0.09-0.092,0.19-0.104,0.292
		c-0.092,0.041-0.18,0.088-0.273,0.122c-0.803-0.173-1.621-0.284-2.453-0.322c-0.098-0.005-0.197-0.009-0.297-0.012
		c-0.721-0.024-1.445-0.021-2.17-0.009c-0.986-0.003-1.977-0.004-2.967-0.003c-2.119-0.076-4.396-0.288-6.444,0.172
		c-0.019-0.111-0.024-0.221-0.062-0.332c-0.25-0.748-1.117-0.698-1.421-0.123c-0.135-0.104-0.292-0.204-0.473-0.297
		c-0.333-0.17-0.754-0.012-0.915,0.318c-0.503,1.036-1.288,1.797-2.06,2.61c-0.192,0.155-0.373,0.323-0.538,0.504
		c-0.668,0.394-1.374,0.672-2.111,0.827c-0.113-0.073-0.248-0.119-0.41-0.102c-0.139,0.015-0.408,0.087-0.734,0.175
		c-0.598-0.112-1.197-0.102-1.783,0.009c-0.359-0.045-0.72-0.108-1.083-0.188c-0.048-0.02-0.099-0.028-0.154-0.031
		c-0.009-0.002-0.018-0.002-0.028-0.005c-0.292-0.07-0.531,0.078-0.672,0.298c-0.083,0.051-0.177,0.088-0.256,0.144
		c-0.025-0.007-0.05-0.01-0.077-0.014c-1.043-0.45-2.197-0.605-3.307-0.812c-0.387-0.072-0.751,0.104-0.901,0.468
		c-0.029,0.022-0.064,0.038-0.089,0.065c-1.227-0.213-2.482,0.127-3.746,0.049c-0.097-0.008-0.194-0.017-0.291-0.025
		c-0.82-0.097-1.605-0.366-2.437-0.415c-0.812-0.048-1.544-0.056-2.325-0.293c-0.475-0.145-0.875,0.17-0.884,0.579
		c-1.313-0.738-2.419-1.761-3.179-3.182c-0.387-0.722-1.417,0.004-1.044,0.718c3.072,5.877,10.518,5.711,16.26,6.006
		c3.405,0.175,6.828-0.023,10.014-1.31c1.279-0.517,2.983-1.632,3.969-3.001c2.12,0.198,4.308,0.074,6.417,0.084
		c3.037,0.015,6.197,0.307,9.201-0.215c0.229-0.041,0.266-0.354,0.047-0.425c0.648-0.435,0.957-1.264,1.246-1.984
		C80.622,54.486,80.29,54.204,80.004,54.24z"/>
	<path fill="#99573D" d="M83.133,66.097c-0.166-1.475-1.008-2.667-2.303-3.425c-0.168-0.097-0.465-0.036-0.459,0.207
		c0.002,0.195,0.047,0.374,0.105,0.545c-0.209,0.182-0.336,0.469-0.254,0.821c0.037,0.159,0.088,0.329,0.146,0.505
		c0.094,0.454,0.078,0.916,0.002,1.371c-0.107-0.023-0.221-0.023-0.328,0.005c-0.689,0.184-1.111,0.76-1.57,1.27
		c-0.094,0.024-0.189,0.061-0.275,0.131c-0.248,0.206-0.455,0.447-0.662,0.695c-0.031,0.037-0.041,0.077-0.064,0.114
		c-0.287-0.079-0.563-0.137-0.801-0.122c-0.191,0.012-0.365,0.095-0.5,0.215c-0.309-0.05-0.617-0.078-0.918-0.05
		c-0.23,0.021-0.451,0.318-0.227,0.515c0.998,0.875,2.23,1.428,3.412,1.371c0.357,0.052,0.654,0.086,0.732,0.087
		c1.107,0.01,1.994-0.249,2.758-1.069c0.09-0.096,0.148-0.202,0.217-0.305C82.975,68.382,83.245,67.072,83.133,66.097z"/>
	<path fill="#99573D" d="M96,64.065c-0.074-0.257-0.289-0.549-0.578-0.592c-0.07-0.011-0.141-0.021-0.213-0.032
		c-0.248-0.036-0.506,0.106-0.645,0.305c-0.109,0.156-0.182,0.315-0.184,0.51c-0.008,0.654,0.176,1.064,0.258,1.559
		c-0.412,0.415-0.707,1.012-1.105,1.423c-0.67,0.691-1.787,1.346-2.766,0.968c-0.369-0.143-0.639,0.064-0.752,0.352
		c-0.988-0.376-1.947-0.972-2.561-1.547c-0.137-0.128-0.332-0.013-0.369,0.142c-0.494,2.063,3.574,3.216,4.99,3.254
		C95.467,70.497,96.815,66.863,96,64.065z"/>
	<path fill="#99573D" d="M96.264,76.935c-0.25-0.065-0.547,0.203-0.438,0.463c0.297,0.705,0.793,1.212,1.215,1.846
		c0.051,0.076,0.086,0.167,0.133,0.245c-0.027,0.022-0.055,0.037-0.078,0.071c-0.516,0.836-0.041,1.933,0.016,2.857
		c0.092,1.503,0.031,3.026,0.063,4.534c-0.148,0.159-0.293,0.319-0.463,0.463c-1.365,1.162-3.535,1.659-5.145,0.811
		c-0.516-0.271-0.725-0.251-1.275-0.24c-0.326,0.007-0.707,0.424-0.385,0.725c2.924,2.738,7.508,1.314,9.486-1.958
		C101.079,83.957,99.7,77.829,96.264,76.935z"/>
	<path fill="#99573D" d="M79.899,96.477c0.209,0.188,0.137,0.57-0.223,0.607c-3.701,0.382-7.76,0.457-11.559,0.198
		c0.186,2.883,0.051,5.815,0.051,8.698c-0.014,1.807,0.063,3.638,0.012,5.457l-2.598,1.497l-0.335,0.186
		c-0.47-2.264-0.022-4.64,0.05-6.941c0-0.198,0.086-0.322,0.211-0.408c-0.063-0.941-0.1-1.88-0.074-2.82
		c-0.16-0.075-0.285-0.21-0.322-0.436c-0.223-1.669-0.371-3.302-0.211-4.96c0.014-0.236,0.05-0.482,0.088-0.718
		c0.037-0.261,0.086-0.508,0.137-0.769c0.011-0.038,0.035-0.061,0.062-0.085c-0.075-0.298,0.022-0.618,0.396-0.669
		c0,0,0.014,0,0.023,0c2.143-0.26,4.27-0.298,6.41-0.309c1.35-0.014,2.834-0.186,4.17,0.086c0.1-0.075,0.209-0.135,0.336-0.135
		c0.172,0,0.742,0.049,1.236,0.159c-0.68-3.477-0.186-7.462-0.186-10.976c0.012-3.86-0.211-7.92,0.408-11.743
		c0.074-0.495,0.631-0.433,0.84-0.099c0.211,0,0.422,0.149,0.445,0.446c0.447,4.727,0.434,9.454,0.547,14.192
		c0.023,1.176,0.146,2.475,0.186,3.788c0.037,0.765,0.023,1.547,0.037,2.3C80.047,94.151,80.194,95.377,79.899,96.477z"/>
	<path fill="#99573D" d="M55.396,97.379c-0.11,0.01-0.22,0.03-0.33,0.04c-4.3,0.59-8.99,0.49-13.42,0.3
		c0.35,3.3,0.24,6.7,0.24,10.011c0,0.68,0.01,1.35,0.03,2.029l-0.23-0.13l-0.58-0.34l-0.11-0.06l-0.34-0.2l-0.03-0.021l-0.41-0.229
		l-0.11-0.061l-0.16-0.09c-0.14-1.64-0.23-3.27-0.15-4.93c0.01-0.21,0.13-0.32,0.3-0.33c-0.02-0.05-0.02-0.101-0.02-0.15
		c-0.27-1.79-0.71-3.79-0.29-5.58c-0.12-0.01-0.24-0.01-0.35-0.02c-0.05,0.01-0.1,0.01-0.14,0c-0.05,0-0.11-0.03-0.16-0.05
		c-0.06-0.011-0.12-0.04-0.16-0.08c-0.2-0.101-0.26-0.271-0.22-0.45c-0.04-0.2,0.02-0.39,0.22-0.49c0.08-0.03,0.16-0.06,0.27-0.069
		c0.03-0.011,0.05-0.021,0.08-0.011c0.02-0.01,0.05-0.01,0.08-0.01c0.23-0.02,0.47-0.02,0.71-0.03c-0.19-0.35-0.16-0.83-0.05-1.21
		c0.01-0.06,0.03-0.109,0.05-0.16c0.02-0.069,0.06-0.119,0.1-0.14c0.1-0.05,0.22-0.03,0.3,0.061c0.18-0.101,0.4-0.131,0.65-0.021
		c0.24,0.06,0.48,0.06,0.73,0.03c0.05-0.01,0.11-0.021,0.18-0.021h0.06c0.13,0,0.26,0.04,0.37,0.09c0-0.02,0-0.02,0-0.02
		c0.2,0.1,0.45,0.16,0.73,0.18c0.18,0.011,0.38,0.011,0.58,0c0.1,0,0.2-0.01,0.3-0.02c0.16-0.29,0.48-0.53,0.88-0.48
		c0.58,0.07,1.16,0.16,1.74,0.24c0.11,0.021,0.2,0.06,0.28,0.1c0.23,0.011,0.46,0,0.69-0.02c0.11-0.11,0.27-0.18,0.49-0.17
		c0.27,0.01,0.54,0.02,0.82,0.05c0.15,0,0.27,0.061,0.39,0.15c0,0,0,0,0.02,0c0.08-0.04,0.19-0.061,0.33-0.061
		c0.69,0.01,1.39-0.02,2.07-0.069c0.56-0.08,1.13-0.181,1.7-0.24h0.06c0.07-0.021,0.13-0.021,0.19-0.03
		c0.29-0.02,0.48,0.14,0.58,0.35c0.08,0.021,0.15,0.051,0.23,0.07c0.02,0,0.02,0.03,0.02,0.04c0.07,0.01,0.14,0.021,0.2,0.05
		c0.07-0.01,0.13,0,0.2,0.021c0.01-0.03,0.03-0.061,0.06-0.07c0.04-0.04,0.09-0.06,0.14-0.06c0.15-0.011,0.31,0.13,0.3,0.319
		c-0.02,0.61-0.03,0.591-0.27,1.19c-0.01,0.05-0.06,0.06-0.09,0.1c0.08,0,0.15,0.011,0.23,0.021
		C55.756,96.749,55.796,97.319,55.396,97.379z"/>
	<path fill="#99573D" d="M30.179,98.548c0.055-0.503-0.116-0.995-0.373-1.445c0.18-0.112,0.288-0.339,0.164-0.598
		c-0.054-0.11-0.122-0.202-0.192-0.292c0.08-0.083,0.145-0.183,0.173-0.298c0.021-0.089,0.026-0.171,0.036-0.254
		c0.005-0.031,0.031-0.052,0.03-0.088c-0.001-0.031-0.002-0.063-0.003-0.096c-0.008-0.311-0.227-0.494-0.466-0.549
		c-0.448-0.214-1.07-0.133-1.502,0.008c-0.063,0.021-0.109,0.054-0.152,0.09c-0.953-0.159-1.926-0.094-2.909-0.086
		c-1.385,0.005-3.036-0.096-4.342,0.394c-0.129,0.047-0.165,0.257-0.018,0.313c1.316,0.491,2.903,0.394,4.297,0.399
		c0.546,0.004,1.089,0.009,1.629,0.002c0.799,0.433,1.624,0.924,2.184,1.607c0.16,0.332,0.282,0.673,0.434,1.046
		c0.032,0.081,0.097,0.137,0.159,0.193c0.019,0.094,0.052,0.178,0.062,0.277c0.049,0.502,0.881,0.476,0.884-0.03
		C30.275,98.934,30.227,98.74,30.179,98.548z"/>
	<g>
		<g>
			<g>
				<circle fill="#EFA554" cx="39.736" cy="24.083" r="7.208"/>
			</g>
			<g>
				<circle fill="#EFA554" cx="57.107" cy="24.083" r="7.208"/>
			</g>
			<g>
				<circle fill="#EFA554" cx="74.263" cy="24.083" r="7.208"/>
			</g>
		</g>
	</g>
	<text transform="matrix(0.8686 0 0 1 14.9209 40.4072)"><tspan x="0" y="0" fill="#FFFFFF" font-family="'MyriadPro-Regular'" font-size="3.1383">#include &lt;iostream&gt;     // std::cin, std::cout</tspan><tspan x="0" y="7.532" fill="#FFFFFF" font-family="'MyriadPro-Regular'" font-size="3.1383">int main () {</tspan><tspan x="0" y="15.063" fill="#FFFFFF" font-family="'MyriadPro-Regular'" font-size="3.1383">char name[256], title[256];</tspan><tspan x="0" y="18.83" fill="#FFFFFF" font-family="'MyriadPro-Regular'" font-size="3.1383">std::cout &lt;&lt; &quot;Please, enter your name: &quot;;</tspan><tspan x="0" y="22.596" fill="#FFFFFF" font-family="'MyriadPro-Regular'" font-size="3.1383">std::cin.getline (name,256,&apos;$&apos;);                         //Line 3</tspan><tspan x="0" y="26.361" fill="#FFFFFF" font-family="'MyriadPro-Regular'" font-size="3.1383">std::cout &lt;&lt; &quot;Please, enter your favourite movie: &quot;;</tspan><tspan x="0" y="30.127" fill="#FFFFFF" font-family="'MyriadPro-Regular'" font-size="3.1383">std::cin.getline (title,256);                            // Line </tspan><tspan x="0" y="33.893" fill="#FFFFFF" font-family="'MyriadPro-Regular'" font-size="3.1383">std::cout &lt;&lt; name &lt;&lt; &quot;&apos;s favourite movie is &quot; </tspan><tspan x="0" y="37.659" fill="#FFFFFF" font-family="'MyriadPro-Regular'" font-size="3.1383">return 0;</tspan></text>
</g>
<g id="Layer_5">
	<rect x="20.079" y="72.6" fill="#B7B7B7" width="58.132" height="21.963"/>
	<g>
		<g>
			<rect x="25.267" y="75.281" fill="#939393" width="2.514" height="3.016"/>
			<rect x="27.646" y="75.358" fill="#666666" width="0.251" height="2.919"/>
			<rect x="27.916" y="75.281" fill="#939393" width="2.513" height="3.016"/>
			<rect x="30.294" y="75.358" fill="#666666" width="0.251" height="2.919"/>
			<rect x="30.565" y="75.281" fill="#939393" width="2.513" height="3.016"/>
			<rect x="32.943" y="75.358" fill="#666666" width="0.251" height="2.919"/>
			<rect x="33.214" y="75.281" fill="#939393" width="2.513" height="3.016"/>
			<rect x="35.591" y="75.358" fill="#666666" width="0.252" height="2.919"/>
			<rect x="35.862" y="75.281" fill="#939393" width="2.514" height="3.016"/>
			<rect x="38.241" y="75.358" fill="#666666" width="0.251" height="2.919"/>
			<rect x="38.511" y="75.281" fill="#939393" width="2.513" height="3.016"/>
			<rect x="40.889" y="75.358" fill="#666666" width="0.251" height="2.919"/>
			<rect x="41.16" y="75.281" fill="#939393" width="2.514" height="3.016"/>
			<rect x="43.538" y="75.358" fill="#666666" width="0.251" height="2.919"/>
			<rect x="43.809" y="75.281" fill="#939393" width="2.513" height="3.016"/>
			<rect x="46.187" y="75.358" fill="#666666" width="0.251" height="2.919"/>
			<rect x="46.458" y="75.281" fill="#939393" width="2.514" height="3.016"/>
			<rect x="48.835" y="75.358" fill="#666666" width="0.251" height="2.919"/>
			<rect x="49.106" y="75.281" fill="#939393" width="2.513" height="3.016"/>
			<rect x="51.484" y="75.358" fill="#666666" width="0.252" height="2.919"/>
			<rect x="51.755" y="75.281" fill="#939393" width="2.514" height="3.016"/>
			<rect x="54.133" y="75.358" fill="#666666" width="0.251" height="2.919"/>
			<rect x="54.404" y="75.281" fill="#939393" width="2.513" height="3.016"/>
			<rect x="56.782" y="75.358" fill="#666666" width="0.251" height="2.919"/>
			<rect x="57.052" y="75.281" fill="#939393" width="2.514" height="3.016"/>
			<rect x="59.43" y="75.358" fill="#666666" width="0.252" height="2.919"/>
			<rect x="59.701" y="75.281" fill="#939393" width="2.514" height="3.016"/>
			<rect x="62.079" y="75.358" fill="#666666" width="0.251" height="2.919"/>
			<rect x="62.35" y="75.281" fill="#939393" width="2.513" height="3.016"/>
			<rect x="64.728" y="75.358" fill="#666666" width="0.251" height="2.919"/>
			<rect x="65" y="75.281" fill="#939393" width="2.513" height="3.016"/>
			<rect x="67.377" y="75.358" fill="#666666" width="0.252" height="2.919"/>
			<rect x="67.647" y="75.281" fill="#939393" width="2.514" height="3.016"/>
			<rect x="70.026" y="75.358" fill="#666666" width="0.252" height="2.919"/>
			<rect x="70.295" y="75.281" fill="#939393" width="2.516" height="3.016"/>
			<rect x="72.674" y="75.358" fill="#666666" width="0.25" height="2.919"/>
		</g>
		<g>
			<rect x="25.267" y="78.336" fill="#939393" width="2.514" height="3.016"/>
			<rect x="27.646" y="78.413" fill="#666666" width="0.251" height="2.919"/>
			<rect x="27.916" y="78.336" fill="#939393" width="2.513" height="3.016"/>
			<rect x="30.294" y="78.413" fill="#666666" width="0.251" height="2.919"/>
			<rect x="30.565" y="78.336" fill="#939393" width="2.513" height="3.016"/>
			<rect x="32.943" y="78.413" fill="#666666" width="0.251" height="2.919"/>
			<rect x="33.214" y="78.336" fill="#939393" width="2.513" height="3.016"/>
			<rect x="35.591" y="78.413" fill="#666666" width="0.252" height="2.919"/>
			<rect x="35.862" y="78.336" fill="#939393" width="2.514" height="3.016"/>
			<rect x="38.241" y="78.413" fill="#666666" width="0.251" height="2.919"/>
			<rect x="38.511" y="78.336" fill="#939393" width="2.513" height="3.016"/>
			<rect x="40.889" y="78.413" fill="#666666" width="0.251" height="2.919"/>
			<rect x="41.16" y="78.336" fill="#939393" width="2.514" height="3.016"/>
			<rect x="43.538" y="78.413" fill="#666666" width="0.251" height="2.919"/>
			<rect x="43.809" y="78.336" fill="#939393" width="2.513" height="3.016"/>
			<rect x="46.187" y="78.413" fill="#666666" width="0.251" height="2.919"/>
			<rect x="46.458" y="78.336" fill="#939393" width="2.514" height="3.016"/>
			<rect x="48.835" y="78.413" fill="#666666" width="0.251" height="2.919"/>
			<rect x="49.106" y="78.336" fill="#939393" width="2.513" height="3.016"/>
			<rect x="51.484" y="78.413" fill="#666666" width="0.252" height="2.919"/>
			<rect x="51.755" y="78.336" fill="#939393" width="2.514" height="3.016"/>
			<rect x="54.133" y="78.413" fill="#666666" width="0.251" height="2.919"/>
			<rect x="54.404" y="78.336" fill="#939393" width="2.513" height="3.016"/>
			<rect x="56.782" y="78.413" fill="#666666" width="0.251" height="2.919"/>
			<rect x="57.052" y="78.336" fill="#939393" width="2.514" height="3.016"/>
			<rect x="59.43" y="78.413" fill="#666666" width="0.252" height="2.919"/>
			<rect x="59.701" y="78.336" fill="#939393" width="2.514" height="3.016"/>
			<rect x="62.079" y="78.413" fill="#666666" width="0.251" height="2.919"/>
			<rect x="62.35" y="78.336" fill="#939393" width="2.513" height="3.016"/>
			<rect x="64.728" y="78.413" fill="#666666" width="0.251" height="2.919"/>
			<rect x="65" y="78.336" fill="#939393" width="2.513" height="3.016"/>
			<rect x="67.377" y="78.413" fill="#666666" width="0.252" height="2.919"/>
			<rect x="67.647" y="78.336" fill="#939393" width="2.514" height="3.016"/>
			<rect x="70.026" y="78.413" fill="#666666" width="0.252" height="2.919"/>
			<rect x="70.295" y="78.336" fill="#939393" width="2.516" height="3.016"/>
			<rect x="72.674" y="78.413" fill="#666666" width="0.25" height="2.919"/>
		</g>
		<g>
			<rect x="25.267" y="81.391" fill="#939393" width="2.514" height="3.016"/>
			<rect x="27.646" y="81.468" fill="#666666" width="0.251" height="2.919"/>
			<rect x="27.916" y="81.391" fill="#939393" width="2.513" height="3.016"/>
			<rect x="30.294" y="81.468" fill="#666666" width="0.251" height="2.919"/>
			<rect x="30.565" y="81.391" fill="#939393" width="2.513" height="3.016"/>
			<rect x="32.943" y="81.468" fill="#666666" width="0.251" height="2.919"/>
			<rect x="33.214" y="81.391" fill="#939393" width="2.513" height="3.016"/>
			<rect x="35.591" y="81.468" fill="#666666" width="0.252" height="2.919"/>
			<rect x="35.862" y="81.391" fill="#939393" width="2.514" height="3.016"/>
			<rect x="38.241" y="81.468" fill="#666666" width="0.251" height="2.919"/>
			<rect x="38.511" y="81.391" fill="#939393" width="2.513" height="3.016"/>
			<rect x="40.889" y="81.468" fill="#666666" width="0.251" height="2.919"/>
			<rect x="41.16" y="81.391" fill="#939393" width="2.514" height="3.016"/>
			<rect x="43.538" y="81.468" fill="#666666" width="0.251" height="2.919"/>
			<rect x="43.809" y="81.391" fill="#939393" width="2.513" height="3.016"/>
			<rect x="46.187" y="81.468" fill="#666666" width="0.251" height="2.919"/>
			<rect x="46.458" y="81.391" fill="#939393" width="2.514" height="3.016"/>
			<rect x="48.835" y="81.468" fill="#666666" width="0.251" height="2.919"/>
			<rect x="49.106" y="81.391" fill="#939393" width="2.513" height="3.016"/>
			<rect x="51.484" y="81.468" fill="#666666" width="0.252" height="2.919"/>
			<rect x="51.755" y="81.391" fill="#939393" width="2.514" height="3.016"/>
			<rect x="54.133" y="81.468" fill="#666666" width="0.251" height="2.919"/>
			<rect x="54.404" y="81.391" fill="#939393" width="2.513" height="3.016"/>
			<rect x="56.782" y="81.468" fill="#666666" width="0.251" height="2.919"/>
			<rect x="57.052" y="81.391" fill="#939393" width="2.514" height="3.016"/>
			<rect x="59.43" y="81.468" fill="#666666" width="0.252" height="2.919"/>
			<rect x="59.701" y="81.391" fill="#939393" width="2.514" height="3.016"/>
			<rect x="62.079" y="81.468" fill="#666666" width="0.251" height="2.919"/>
			<rect x="62.35" y="81.391" fill="#939393" width="2.513" height="3.016"/>
			<rect x="64.728" y="81.468" fill="#666666" width="0.251" height="2.919"/>
			<rect x="65" y="81.391" fill="#939393" width="2.513" height="3.016"/>
			<rect x="67.377" y="81.468" fill="#666666" width="0.252" height="2.919"/>
			<rect x="67.647" y="81.391" fill="#939393" width="2.514" height="3.016"/>
			<rect x="70.026" y="81.468" fill="#666666" width="0.252" height="2.919"/>
			<rect x="70.295" y="81.391" fill="#939393" width="2.516" height="3.016"/>
			<rect x="72.674" y="81.468" fill="#666666" width="0.25" height="2.919"/>
		</g>
		<g>
			<rect x="25.267" y="84.445" fill="#939393" width="2.514" height="3.016"/>
			<rect x="27.646" y="84.522" fill="#666666" width="0.251" height="2.919"/>
			<rect x="27.916" y="84.445" fill="#939393" width="2.513" height="3.016"/>
			<rect x="30.294" y="84.522" fill="#666666" width="0.251" height="2.919"/>
			<rect x="30.565" y="84.445" fill="#939393" width="2.513" height="3.016"/>
			<rect x="32.943" y="84.522" fill="#666666" width="0.251" height="2.919"/>
			<rect x="33.214" y="84.445" fill="#939393" width="2.513" height="3.016"/>
			<rect x="35.591" y="84.522" fill="#666666" width="0.252" height="2.919"/>
			<rect x="35.862" y="84.445" fill="#939393" width="2.514" height="3.016"/>
			<rect x="38.241" y="84.522" fill="#666666" width="0.251" height="2.919"/>
			<rect x="38.511" y="84.445" fill="#939393" width="2.513" height="3.016"/>
			<rect x="40.889" y="84.522" fill="#666666" width="0.251" height="2.919"/>
			<rect x="41.16" y="84.445" fill="#939393" width="2.514" height="3.016"/>
			<rect x="43.538" y="84.522" fill="#666666" width="0.251" height="2.919"/>
			<rect x="43.809" y="84.445" fill="#939393" width="2.513" height="3.016"/>
			<rect x="46.187" y="84.522" fill="#666666" width="0.251" height="2.919"/>
			<rect x="46.458" y="84.445" fill="#939393" width="2.514" height="3.016"/>
			<rect x="48.835" y="84.522" fill="#666666" width="0.251" height="2.919"/>
			<rect x="49.106" y="84.445" fill="#939393" width="2.513" height="3.016"/>
			<rect x="51.484" y="84.522" fill="#666666" width="0.252" height="2.919"/>
			<rect x="51.755" y="84.445" fill="#939393" width="2.514" height="3.016"/>
			<rect x="54.133" y="84.522" fill="#666666" width="0.251" height="2.919"/>
			<rect x="54.404" y="84.445" fill="#939393" width="2.513" height="3.016"/>
			<rect x="56.782" y="84.522" fill="#666666" width="0.251" height="2.919"/>
			<rect x="57.052" y="84.445" fill="#939393" width="2.514" height="3.016"/>
			<rect x="59.43" y="84.522" fill="#666666" width="0.252" height="2.919"/>
			<rect x="59.701" y="84.445" fill="#939393" width="2.514" height="3.016"/>
			<rect x="62.079" y="84.522" fill="#666666" width="0.251" height="2.919"/>
			<rect x="62.35" y="84.445" fill="#939393" width="2.513" height="3.016"/>
			<rect x="64.728" y="84.522" fill="#666666" width="0.251" height="2.919"/>
			<rect x="65" y="84.445" fill="#939393" width="2.513" height="3.016"/>
			<rect x="67.377" y="84.522" fill="#666666" width="0.252" height="2.919"/>
			<rect x="67.647" y="84.445" fill="#939393" width="2.514" height="3.016"/>
			<rect x="70.026" y="84.522" fill="#666666" width="0.252" height="2.919"/>
			<rect x="70.295" y="84.445" fill="#939393" width="2.516" height="3.016"/>
			<rect x="72.674" y="84.522" fill="#666666" width="0.25" height="2.919"/>
		</g>
		<g>
			<rect x="25.267" y="87.5" fill="#939393" width="2.514" height="3.016"/>
			<rect x="27.646" y="87.578" fill="#666666" width="0.251" height="2.919"/>
			<rect x="27.916" y="87.5" fill="#939393" width="2.513" height="3.016"/>
			<rect x="30.294" y="87.578" fill="#666666" width="0.251" height="2.919"/>
			<rect x="30.565" y="87.5" fill="#939393" width="2.513" height="3.016"/>
			<rect x="32.943" y="87.578" fill="#666666" width="0.251" height="2.919"/>
			<rect x="33.214" y="87.5" fill="#939393" width="2.513" height="3.016"/>
			<rect x="35.591" y="87.578" fill="#666666" width="0.252" height="2.919"/>
			<rect x="35.862" y="87.5" fill="#939393" width="2.514" height="3.016"/>
			<rect x="38.241" y="87.578" fill="#666666" width="0.251" height="2.919"/>
			<rect x="38.511" y="87.5" fill="#939393" width="2.513" height="3.016"/>
			<path fill="#666666" d="M41.104,90.497h0.036v-2.919h-0.251v2.88c-0.479-0.008-0.806,0.17-1.236,0.376
				c-0.207,0.1-0.316,0.378-0.312,0.594c0,0.011,0,0.022,0.001,0.035c0.002,0.12,0.033,0.22,0.079,0.306
				c-0.148,0.197-0.275,0.411-0.325,0.673c-0.053,0.275,0.053,0.637,0.375,0.701c0.52,0.099,0.452,0.384,0.504,0.827
				c0.058,0.496,0.783,0.506,0.863,0.017c0.114-0.7,0.021-1.253-0.429-1.612c0.284-0.298,0.72-0.483,0.995-0.78
				C41.764,91.21,41.544,90.646,41.104,90.497z"/>
			<rect x="41.16" y="87.5" fill="#939393" width="2.514" height="3.016"/>
			<rect x="43.538" y="87.578" fill="#666666" width="0.251" height="2.919"/>
			<rect x="43.809" y="87.5" fill="#939393" width="2.513" height="3.016"/>
			<rect x="46.187" y="87.578" fill="#666666" width="0.251" height="2.919"/>
			<rect x="46.458" y="87.5" fill="#939393" width="2.514" height="3.016"/>
			<rect x="48.835" y="87.578" fill="#666666" width="0.251" height="2.919"/>
			<rect x="49.106" y="87.5" fill="#939393" width="2.513" height="3.016"/>
			<rect x="51.484" y="87.578" fill="#666666" width="0.252" height="2.919"/>
			<rect x="51.755" y="87.5" fill="#939393" width="2.514" height="3.016"/>
			<rect x="54.133" y="87.578" fill="#666666" width="0.251" height="2.919"/>
			<rect x="54.404" y="87.5" fill="#939393" width="2.513" height="3.016"/>
			<rect x="56.782" y="87.578" fill="#666666" width="0.251" height="2.919"/>
			<rect x="57.052" y="87.5" fill="#939393" width="2.514" height="3.016"/>
			<rect x="59.43" y="87.578" fill="#666666" width="0.252" height="2.919"/>
			<rect x="59.701" y="87.5" fill="#939393" width="2.514" height="3.016"/>
			<rect x="62.079" y="87.578" fill="#666666" width="0.251" height="2.919"/>
			<rect x="62.35" y="87.5" fill="#939393" width="2.513" height="3.016"/>
			<rect x="64.728" y="87.578" fill="#666666" width="0.251" height="2.919"/>
			<rect x="65" y="87.5" fill="#939393" width="2.513" height="3.016"/>
			<rect x="67.377" y="87.578" fill="#666666" width="0.252" height="2.919"/>
			<rect x="67.647" y="87.5" fill="#939393" width="2.514" height="3.016"/>
			<rect x="70.026" y="87.578" fill="#666666" width="0.252" height="2.919"/>
			<rect x="70.295" y="87.5" fill="#939393" width="2.516" height="3.016"/>
			<rect x="72.674" y="87.578" fill="#666666" width="0.25" height="2.919"/>
		</g>
	</g>
	<path fill="#B7B7B7" d="M97.065,81.264c0.012-0.295-0.156-0.496-0.381-0.609c-0.016-0.808-0.211-1.597-0.582-2.318
		c0.016-0.032,0.033-0.063,0.051-0.094c0.188-0.342,0.033-0.717-0.273-0.916c-0.244-0.158-0.482-0.155-0.723-0.1
		c-0.258-0.252-0.486-0.545-0.793-0.768c-0.41-0.3-1.029-0.237-1.506-0.232c-0.178,0.001-0.309,0.063-0.412,0.15
		c-0.867-0.087-2.031,0.87-2.467,1.437c-0.07,0.093-0.154,0.217-0.23,0.333c-0.246,0.239-0.43,0.589-0.541,0.913
		c-0.721,1.377-1.318,3.242-0.51,4.212c0.061,0.075,0.129,0.124,0.195,0.158c0.059,0.492,0.148,0.969,0.271,1.439
		c-0.023,1.153,0.355,2.291,1.008,3.236c0.322,0.464,0.922,0.259,1.146-0.15c0.121,0.074,0.242,0.146,0.361,0.221
		c0.166,0.1,0.357,0.103,0.539,0.063c0.264,0.076,0.545,0.008,0.723-0.198c0.166,0.068,0.348,0.072,0.516-0.001
		c0.422,0.501,1.182,0.324,1.299-0.325c0.146-0.123,0.268-0.253,0.373-0.391c0.355,0.029,0.746-0.179,0.848-0.609
		c0-0.005,0-0.01,0.002-0.015c0.16-0.037,0.314-0.135,0.43-0.325c0.682-1.094,0.588-2.692,0.609-4.056
		C97.04,81.971,97.053,81.619,97.065,81.264z"/>
	<path fill="#666666" d="M96.692,82.043c0.016-0.253,0.01-0.496-0.107-0.725c-0.029-0.057-0.074-0.088-0.115-0.126
		c-0.002-0.02-0.002-0.043-0.006-0.063c-0.018-0.133-0.068-0.229-0.137-0.306c0.045-0.018,0.096-0.03,0.121-0.07
		c0.094-0.154,0.115-0.35,0.113-0.553c0.236-0.079,0.217-0.432-0.023-0.495c-0.01-0.002-0.021-0.002-0.031-0.005
		c-0.039-0.19-0.084-0.375-0.127-0.527c-0.1-0.372-0.205-1.097-0.639-1.221c-0.053-0.015-0.115,0.01-0.152,0.055
		c-0.139-0.27-0.305-0.511-0.535-0.662c-0.055-0.036-0.135,0.001-0.125,0.071c0.059,0.461,0.199,0.888,0.195,1.364
		c-0.004,0.262-0.008,0.518-0.004,0.773c-0.691-0.006-1.395,0.048-2.068,0.055c-1.354,0.011-2.732-0.045-4.074,0.162
		c-0.145,0.022-0.172,0.122-0.143,0.215c0,0.056,0.029,0.105,0.094,0.136c0.033,0.025,0.07,0.034,0.107,0.032
		c1.307,0.199,2.656,0.145,3.977,0.156c0.717,0.006,1.467,0.067,2.201,0.052c0.018,0.073,0.025,0.146,0.049,0.22
		c0.029,0.098,0.092,0.166,0.162,0.218c-0.172,0.138-0.291,0.345-0.254,0.62c0.205,1.473-0.252,3.421-1.076,4.664
		c-0.861,1.298-3.574,1.478-4.4,0.027c-0.068-0.121-0.229-0.021-0.227,0.089c0.02,1.889,3.189,2.225,4.492,1.66
		c0.072,0.043,0.154,0.072,0.254,0.067c0.912-0.051,1.57-1.225,1.898-1.955c0.441-0.984,0.627-2.182,0.385-3.247
		c0.008-0.102,0.004-0.194,0.008-0.293C96.608,82.342,96.682,82.212,96.692,82.043z"/>
	<path fill="#666666" d="M92.645,85.205c-0.584,0.047-1.031,0.535-1.66,0.305c-0.738-0.27-0.398-1.224-0.672-1.784
		c-0.027-0.054-0.094-0.06-0.125-0.006c-0.5,0.854-0.508,2.112,0.424,2.672c0.672,0.403,2.053,0.346,2.494-0.405
		C93.321,85.62,93.102,85.167,92.645,85.205z"/>
	<path fill="#666666" d="M77.704,93.161c-2.166-0.157-4.357-0.079-6.529-0.077c-1.063,0-2.303-0.123-3.494-0.108
		c-0.135-0.06-0.27-0.118-0.395-0.2c-0.236-0.158-0.422-0.373-0.551-0.624c0.064-0.104,0.125-0.205,0.189-0.313
		c0.205-0.352,0.199-0.699,0.047-0.945c0.436-2.051,0.338-4.263,0.227-6.292c-0.008-0.129-0.068-0.21-0.146-0.263
		c0.037-0.075,0.051-0.16-0.004-0.261c-0.109-0.205-0.203-0.397-0.346-0.581c-0.35-0.445-1.037,0.082-0.695,0.533
		c0.15,0.199,0.299,0.312,0.508,0.441c-0.025,0.036-0.063,0.061-0.074,0.107c-0.355,1.397-0.279,2.813-0.547,4.224
		c-0.26,1.382-0.647,2.755-0.859,4.14c-0.008,0.051,0.002,0.092,0.004,0.137c-0.168,0.21-0.166,0.564,0.061,0.776
		c0.018,0.16,0.027,0.323,0.083,0.477c0.122,0.339,0.647,0.255,0.741-0.055c0.018-0.062,0.027-0.125,0.043-0.188
		c0.83,0.104,1.691,0.098,2.555,0.073c0.275,0.077,0.545,0.126,0.787,0.105c0.088-0.008,0.152-0.061,0.203-0.128
		c0.723-0.022,1.443-0.039,2.143,0.008c1.863,0.123,3.883,0.504,5.736,0.172c0.092-0.017,0.156-0.131,0.086-0.21
		c-0.121-0.135-0.27-0.241-0.43-0.331c0.23-0.014,0.463-0.018,0.693-0.034C78.079,93.718,78.026,93.184,77.704,93.161z"/>
	<path fill="#666666" d="M55.932,93.446c-0.075-1.011-1.045-1.983-1.339-2.892c-0.033-0.101-0.18-0.168-0.259-0.07
		c-0.293,0.358-0.005,0.776,0.079,1.17c0.074,0.349,0.354,0.742,0.483,1.077c0.08,0.207,0.11,0.403,0.129,0.599
		c-2.886,0-5.771-0.038-8.656-0.066c-1.46-0.015-3.434-0.28-5.084-0.039c-0.017-0.071-0.034-0.141-0.053-0.214
		c-0.173-0.7,0.188-1.13,0.75-1.529c0.004-0.002,0.023-0.013,0.033-0.019c0.104-0.003,0.206-0.024,0.29-0.086
		c1.219-0.864,1.715-2.247,1.917-3.685c0.222-1.588,0.194-4.19-1.141-5.306c-0.248-0.207-0.567,0.068-0.536,0.339
		c0.057,0.493,0.115,0.975,0.169,1.453c-0.05,0.054-0.094,0.123-0.127,0.208c-0.578,1.516-1,3.152-1.774,4.568
		c-0.409,0.478-0.799,0.977-1.081,1.554c-0.325,0.664,0.623,1.416,1.098,0.774c0.036-0.049,0.064-0.094,0.099-0.141
		c0.001,0,0.001,0,0.001,0c0-0.002,0.001-0.004,0.002-0.004c0.133-0.183,0.263-0.365,0.38-0.545c-0.033,0.08-0.079,0.15-0.096,0.245
		c-0.01,0.056,0.016,0.1,0.027,0.149c-0.085,0.07-0.166,0.146-0.235,0.237c-0.02,0.024-0.017,0.047-0.021,0.073
		c-0.146,0.139-0.273,0.273-0.354,0.375c-0.334,0.424-0.375,1.144-0.28,1.771c-0.177,0.056-0.355,0.112-0.517,0.189
		c-0.098,0.045-0.109,0.21-0.006,0.259c0.22,0.104,0.457,0.189,0.704,0.259c0.008,0.019,0.012,0.047,0.02,0.063
		c0.123,0.277,0.465,0.263,0.645,0.071c1.65,0.259,3.634-0.014,5.105-0.021c2.924-0.018,5.847-0.064,8.771-0.064
		c0.002,0.026,0.002,0.051,0.004,0.077c0.029,0.285,0.449,0.399,0.607,0.152c0.052-0.083,0.07-0.163,0.106-0.246
		C56.159,94.136,56.182,93.668,55.932,93.446z"/>
	<path fill="#666666" d="M30.437,92.207c-0.184-0.526-0.539-1.129-0.946-1.515c-0.063-0.059-0.154-0.101-0.242-0.075
		c-0.026,0.003-0.05,0.013-0.07,0.028c-0.014,0.01-0.028,0.021-0.042,0.033c-0.011,0.009-0.009,0.023-0.017,0.035
		c-0.048-0.037-0.097-0.075-0.146-0.112c-0.24-0.183-0.511,0.205-0.313,0.409c0.105,0.107,0.178,0.222,0.24,0.339
		c0.025,0.12,0.071,0.236,0.134,0.353c0.088,0.353,0.077,0.73,0.086,1.111c-0.067,0.11-0.13,0.216-0.151,0.292
		c-0.035,0.124-0.05,0.24-0.063,0.358c-1.35-0.177-2.728-0.12-4.088-0.126c-1.197-0.007-2.433-0.108-3.604,0.148
		c-0.071-0.015-0.135-0.039-0.217-0.051c-0.235-0.03-0.353,0.167-0.353,0.362c-0.191,0.159-0.112,0.538,0.209,0.557
		c0.195,0.011,0.368-0.09,0.543-0.155c0.057-0.008,0.108-0.004,0.15,0.013c0.047,0.019,0.086-0.015,0.108-0.058
		c0.003,0,0.006-0.002,0.008-0.002c0.101,0.011,0.185-0.055,0.229-0.137c0.951,0.103,1.932,0.029,2.887,0.024
		c1.371-0.008,2.759,0.05,4.121-0.126c0.002,0.024-0.001,0.047,0.001,0.073c0.043,0.44,0.57,0.453,0.787,0.178
		c0.3,0.043,0.658-0.212,0.488-0.544c-0.084-0.314-0.048-0.628,0.008-0.938C30.37,92.621,30.519,92.441,30.437,92.207z"/>
</g>
<g id="Layer_6">
	<path fill="#59473D" d="M40.602,82.048c-0.042,0.157-0.085,0.314-0.127,0.471c-0.025,0.09-0.021,0.181-0.004,0.268
		c-0.117,0.828-0.182,1.74-0.423,2.428c-0.012,0.033-0.027,0.066-0.039,0.099c-0.091-0.01-0.185-0.008-0.276,0.018
		c-0.313,0.087-0.563,0.417-0.766,0.687c-0.019,0.011-0.028,0.035-0.046,0.047c-0.036-0.042-0.072-0.081-0.106-0.123
		c-0.169-0.219-0.34-0.437-0.509-0.655c-0.132-0.618-0.306-1.224-0.547-1.8c-0.108-1.055-0.288-2.147-0.585-3.089
		c-0.017-0.054-0.044-0.098-0.071-0.141c0.043-0.755,0.085-1.509,0.138-2.264c0.072-0.987-1.453-1.043-1.53-0.061
		c-0.017,0.219-0.032,0.438-0.049,0.657c-0.173,0.101-0.305,0.269-0.327,0.528c-0.005,0.067-0.001,0.135-0.005,0.202h-0.003
		c0.002,0.015,0.001,0.029,0.002,0.044c-0.023,0.549,0.014,1.098,0.074,1.646c0.003,0.421,0.008,0.843,0.037,1.267
		c-0.009,0.177-0.013,0.352-0.022,0.527c-0.099-0.663-0.35-1.298-0.785-1.822c-0.371-0.446-1.032-0.217-1.304,0.187
		c-0.101,0.15-0.186,0.312-0.258,0.481c-0.132-0.332-0.449-0.572-0.885-0.414c-0.491,0.178-0.896,0.675-1.402,0.743
		c-0.059,0.008-0.119,0.026-0.18,0.044c-0.057-0.048-0.105-0.11-0.166-0.15c-0.189-0.122-0.475-0.137-0.669-0.015
		c-0.762,0.479-1.233,2.516-0.669,3.524c0.115,1.114,0.48,2.223,1.02,3.166c0.123,1.069,0.504,2.092,1.015,3.047
		c-0.212,0.324-0.172,0.825,0.244,1.004c0.206,0.088,0.402,0.118,0.59,0.09c0.188,0.085,0.391,0.045,0.566-0.06
		c0.554,0.186,1.18,0.236,1.722,0.287c1.084,0.097,2.166,0.069,3.244-0.049c0.259,0.114,0.549,0.074,0.789-0.112
		c0.534-0.224,0.674-0.895,0.239-1.295c0.982-0.629,1.336-1.667,1.589-2.792c0.413-0.799,0.808-1.606,1.163-2.435
		c0.534-1.247,0.615-2.567,0.798-3.886C42.197,81.494,40.828,81.217,40.602,82.048z"/>
	<path fill="#59473D" d="M66.106,84.407c0.023-0.383-0.246-0.648-0.559-0.751c-0.01-0.022-0.01-0.045-0.02-0.068
		c-0.176-0.474-0.853-0.653-1.207-0.263c-0.195-0.054-0.409-0.03-0.585,0.073c-0.073-0.151-0.139-0.305-0.23-0.454
		c-0.116-0.189-0.3-0.266-0.487-0.272c0.004-0.868-0.092-1.731-0.442-2.614c-0.124-0.314-0.39-0.448-0.666-0.456
		c0.004-0.522-0.182-1.066-0.444-1.497c-0.326-0.536-1.094-0.33-1.292,0.186c-0.191,0.055-0.371,0.162-0.47,0.365
		c-0.082-0.123-0.141-0.248-0.24-0.368c-0.439-0.54-1.246-0.245-1.247,0.446c-0.004,1.614-0.109,3.1-0.513,4.657
		c-0.246,0.949-0.432,1.931-0.19,2.883c-0.19,0.37-0.359,0.746-0.492,1.133c-0.141-0.106-0.313-0.146-0.489-0.122
		c-0.125-0.264-0.254-0.527-0.396-0.798c-0.182-0.346-0.492-0.482-0.787-0.467c-0.085-0.152-0.196-0.255-0.324-0.301
		c-0.002-0.401-0.037-0.797-0.082-1.194c0.011-0.354,0.003-0.705-0.045-1.08c-0.019-0.152-0.084-0.267-0.167-0.365
		c-0.176-0.904-1.522-0.799-1.465,0.152c0.005,0.08,0.013,0.159,0.019,0.239c0,0.002-0.002,0.003-0.002,0.005
		c-0.05,0.644-0.002,1.258,0.076,1.874c0.125,2.029,0.856,3.98,2.146,5.603c0.149,0.188,0.353,0.28,0.561,0.311
		c0.023,0.065,0.045,0.133,0.069,0.2c-0.083,0.195-0.109,0.413-0.027,0.62c0.217,0.548,0.441,1.062,0.729,1.575
		c0.234,0.418,0.743,0.459,1.092,0.234c0.029,0.047,0.05,0.092,0.084,0.139c0.283,0.384,0.813,0.367,1.144,0.103
		c0.313,0.092,0.651,0,0.81-0.412c0.023-0.062,0.039-0.128,0.061-0.191c1.225,0.255,2.207,0.315,3.537,0.265
		c0.244-0.01,0.525-0.154,0.624-0.391c0.438-1.066,0.785-2.076,1.016-3.127c0.105-0.085,0.189-0.202,0.219-0.372
		c0.184-1.091,0.215-2.204,0.316-3.305C65.93,85.874,66.057,85.176,66.106,84.407z"/>
	<path fill="#6C7C40" d="M39.077,107.419c0.1,0.11,0.15,0.26,0.15,0.43c-0.01,0.11-0.01,0.23-0.01,0.351l-0.24-0.13l-3.07-1.78
		l-0.39-0.23l-0.49-0.279l-0.33-0.19l-1.85-1.07l-0.57-0.329l-0.2-0.11l-1.14-0.67l-0.37-0.21l-0.1-0.061l-0.17-0.09
		c0.03-0.28,0.07-0.56,0.12-0.85c-0.03-0.42-0.05-0.851-0.04-1.271c0-0.17,0.01-0.34,0.03-0.52c0.05-1.75,0.23-3.5,0.29-5.26
		c-0.01-0.011-0.02-0.03-0.03-0.051c-0.11-0.13-0.18-0.29-0.18-0.489v-0.091c0.02-0.14,0.04-0.279,0.06-0.43c0-0.03,0-0.06,0.01-0.1
		v-0.01c0-0.061,0.02-0.101,0.04-0.15c0.04-0.17,0.13-0.32,0.26-0.42c0-0.03,0.04-0.05,0.08-0.061c0.22-0.149,0.52-0.159,0.77-0.029
		c0.02,0,0.05,0.01,0.07,0.029c0,0,0,0,0.01,0c0.02,0.011,0.03,0.021,0.05,0.03c0.03-0.02,0.04-0.05,0.06-0.07
		c0.51-0.52,1.35-0.319,2.07-0.109c0.21,0.05,0.41,0.109,0.58,0.149c0.08,0,0.16,0,0.24,0.011c0.52,0,1.02,0.01,1.54,0.04
		c0.14-0.181,0.34-0.29,0.61-0.28c0.63,0.04,1.05,0.09,1.67,0.189c0.16,0.021,0.27,0.091,0.37,0.19c0.15,0.14,0.21,0.37,0.2,0.59
		c0,0.09-0.01,0.16-0.04,0.25c0.01,0.061,0.03,0.141,0.05,0.22c0.02,0.19,0.05,0.421,0.08,0.69c0.03,0.36,0.05,0.77,0.06,1.22
		c0.01,0.37,0,0.75-0.03,1.15c0,0.01,0,0.01,0,0.02c0,0.03,0.02,0.051,0.02,0.08c0.05,0.08,0.09,0.181,0.12,0.28
		c0.4,1.91,0.01,4.07-0.33,6.14c-0.04,0.65-0.08,1.311-0.1,1.96C39.037,106.539,39.066,106.979,39.077,107.419z"/>
	<path fill="#6C7C40" d="M64.886,113.049c-0.01,0.13-0.05,0.24-0.1,0.34l-0.22,0.13l-0.22,0.12l-4.78,2.761l-0.01,0.01l-0.53,0.31
		l-1.75,1l-0.8,0.471l-0.18,0.1v-0.21l-0.15-0.08c-0.06-0.76-0.01-1.52,0.08-2.29c-0.04-0.05-0.06-0.11-0.07-0.19
		c-0.03-0.25-0.07-0.479-0.08-0.729c-0.27-2.39-0.31-4.84-0.24-7.23c0.01-0.39,0.03-0.77,0.06-1.159v-0.061
		c0.01-0.149,0.01-0.3,0.02-0.43c0-0.55,0.01-1.08,0.05-1.601c0-0.01,0-0.01,0-0.01c0.03-2.52,0.29-5,0.09-7.52
		c-0.05-0.03-0.09-0.07-0.13-0.11c-0.09-0.13-0.16-0.29-0.14-0.51c0.02-0.42,0.05-0.66,0.09-0.92l0.08-0.59
		c0-0.03,0-0.061,0.02-0.091c0.01-0.14,0.07-0.27,0.15-0.38c0.15-0.229,0.4-0.35,0.72-0.279c0.02,0,0.05,0,0.07,0.02
		c0.04-0.01,0.09-0.02,0.14-0.02c0.1-0.021,0.21,0,0.3,0.04c0.16,0,0.34,0,0.53-0.021c0.02,0,0.03,0,0.05-0.01
		c0.22-0.01,0.45-0.04,0.69-0.061c0.43-0.06,0.89-0.119,1.36-0.18c0.17-0.02,0.33-0.04,0.49-0.06c0.83-0.08,1.64-0.101,2.28,0.06
		c0.14,0.04,0.26,0.08,0.38,0.14c0.15,0.061,0.28,0.141,0.4,0.24c0.15,0.11,0.27,0.25,0.36,0.42c0.03,0.03,0.04,0.061,0.05,0.09
		c0.01,0.021,0.02,0.03,0.03,0.051c0.15,0.02,0.28,0.1,0.37,0.22c0.01,0.01,0.02,0.02,0.02,0.04c0.08,0.09,0.11,0.21,0.13,0.35
		c0.07,0.88,0.15,1.7,0.16,2.561c0,0.55-0.03,1.109-0.1,1.68c0,0.03-0.01,0.04-0.01,0.06c-0.04,1.591-0.09,3.171-0.13,4.75
		c0.04,0.5,0.06,0.98,0.13,1.48c0.03,0.23-0.03,0.42-0.15,0.57C64.477,108.569,65.077,110.829,64.886,113.049z"/>
	<path fill="#442F26" d="M41.472,81.866c-0.058-0.333-0.59-0.287-0.591,0.051c-0.007,1.109-0.148,2.202-0.427,3.259
		c-0.12-0.068-0.295-0.036-0.353,0.116c-0.5,1.3-1.002,2.614-1.814,3.761c-0.364,0.513-0.825,0.95-1.365,1.271
		c-0.411-0.053-0.828-0.075-1.233-0.07c-1.495,0.019-3.385,0.087-4.723,0.773c-0.13,0.067-0.178,0.201-0.155,0.321
		c-0.384,0.356-0.167,1.2,0.525,1.207c1.797,0.024,3.642,0.038,5.421-0.223c-0.003,0.015-0.008,0.026-0.011,0.041
		c-0.144,0.73,1.074,0.862,1.194,0.128c0.263,0.068,0.609-0.102,0.606-0.407c-0.001-0.101,0.015-0.217,0.028-0.33
		c0.504-0.467,0.787-1.32,1.083-1.855c0.237-0.426,0.696-1.14,0.751-1.735c0.11-0.182,0.227-0.361,0.313-0.552
		C41.55,85.798,41.813,83.827,41.472,81.866z"/>
	<path fill="#442F26" d="M65.181,88.573c0.833-2.018,0.997-4.403-0.273-6.009c-0.163-0.208-0.551-0.038-0.527,0.219
		c0.197,2.156,0.073,4.204-0.886,6.17c-0.918,1.876-4.513,3.759-6.491,2.649c-0.17-0.095-0.323-0.099-0.461-0.063
		c-0.37-0.394-0.681-0.879-1.126-1.164c-0.169-0.108-0.355,0.096-0.305,0.261c0.149,0.491,0.561,0.966,0.969,1.374
		c-0.11,0.339-0.034,0.763,0.363,0.979c0.107,0.059,0.23,0.09,0.347,0.134c-0.096,0.316,0.119,0.726,0.59,0.662
		c0.216-0.03,0.421-0.075,0.631-0.124c0.789,0.263,1.43,0.446,2.276,0.357c0.795-0.084,1.832-0.05,2.591-0.384
		c0.549,0.045,1.068-0.092,1.479-0.609c0.827-1.048,1.3-2.766,1.05-4.067C65.375,88.79,65.291,88.665,65.181,88.573z"/>
	<path fill="#B7B7B7" d="M82.202,50.087l-0.018,0.001c-0.006-0.064,0.008-0.123-0.002-0.187c-0.025-0.207-0.129-0.351-0.266-0.437
		c0.033-0.537-0.322-1.141-1.021-1.162c-7.068-0.221-14.148-0.195-21.225-0.158c0.131-0.104,0.252-0.25,0.36-0.437
		c0.291-0.299,0.38-0.777,0.043-1.138c-0.02-0.021-0.041-0.036-0.06-0.057c-0.384-0.592-1.248-1.024-1.801-1.275
		c-0.274-0.125-0.522-0.069-0.72,0.068c-0.328-0.236-0.648-0.463-0.959-0.611c-0.165-0.078-0.327-0.102-0.48-0.097
		c-0.031-0.055-0.06-0.117-0.091-0.169c-0.312-0.509-0.92-0.379-1.267-0.021c-1.738-0.419-3.86-0.067-5.528,0.045
		c-2.537,0.172-4.993,0.142-7.535,0.061c-2.147-0.068-6.054-0.082-6.718,2.533c-0.131,0.516,0.274,0.897,0.711,1.041
		c0.187,0.061,0.386,0.077,0.584,0.094c-0.68,0-1.36,0-2.041,0c-2.848,0-5.697,0.001-8.545,0.001
		c-2.698,0.001-5.791-0.327-8.409,0.511c-0.201-0.061-0.414-0.071-0.638-0.009c-0.68-0.254-1.494,0.059-1.7,0.829
		c-0.03,0.113-0.032,0.235-0.044,0.355c-0.12,0.15-0.217,0.333-0.265,0.569c-0.178,0.895,0.288,1.988,0.702,2.758
		c0.243,0.452,0.741,0.815,1.249,0.882c0.298,0.039,0.532-0.042,0.737-0.17c0.298,0.069,0.631-0.106,0.789-0.371
		c0.05-0.005,0.081-0.034,0.126-0.046c0.1,0.056,0.215,0.078,0.344,0.072c4.387,0.738,9.23,0.216,13.663,0.228
		c1.488,0.003,2.976,0.004,4.464,0.008c-0.02,0.045-0.031,0.093-0.042,0.142c-0.086,0.036-0.161,0.098-0.208,0.178
		c-0.048-0.024-0.096-0.043-0.144-0.053c-0.62-0.305-1.246,0.473-0.755,1.075c0.676,0.83,1.213,1.28,2.166,1.717
		c0.08,0.037,0.159,0.053,0.237,0.06c1.078,0.726,2.377,1.425,3.396,0.528c2.31,0.72,5.263,0.145,7.68,0.048
		c2.575-0.104,5.184-0.112,7.749-0.367c1.835-0.182,2.402-0.862,3.887-1.842c0.688-0.455,0.355-1.672-0.537-1.426
		c-0.752,0.207-1.434,0.042-2.122-0.031c7.356,0.006,14.713,0.01,22.069-0.012c0.287,0.001,0.506-0.104,0.684-0.25
		c0.227-0.045,0.443-0.118,0.664-0.236c0.426-0.227,0.494-0.662,0.316-1.006c0.115-0.19,0.225-0.382,0.301-0.588
		c0.021-0.037,0.051-0.067,0.066-0.112C82.229,51.11,82.229,50.625,82.202,50.087z"/>
	<path fill="#939393" d="M60.047,54.71c-3.365-1.129-7.529-0.572-11.037-0.576c-4.565-0.006-9.489-0.502-13.973,0.484
		c-0.351,0.077-0.344,0.624,0.004,0.7c4.163,0.904,8.669,0.49,12.906,0.484c3.808-0.004,8.452,0.645,12.09-0.574
		C60.259,55.153,60.275,54.788,60.047,54.71z"/>
	<path fill="#939393" d="M60.368,46.905c-3.666-1.185-8.615-0.333-12.458-0.319c-4.211,0.016-8.889-0.51-13.013,0.401
		c-0.296,0.066-0.296,0.532,0,0.597c4.087,0.896,8.697,0.386,12.871,0.401c2.315,0.009,4.629,0.015,6.943,0.021
		c1.874,0.004,3.817,0.265,5.61-0.326C60.677,47.561,60.785,47.039,60.368,46.905z"/>
	<path fill="#939393" d="M82.405,49.703c-0.096-0.35-0.301-0.728-0.602-0.943c-0.332-0.236-0.736-0.138-1.076-0.348
		c-0.334-0.206-0.863,0.075-0.9,0.458c-0.002,0.031,0,0.063-0.002,0.094c-0.248-0.395-0.615-0.734-1.125-0.975
		c-0.33-0.156-0.609,0.235-0.369,0.502c1.146,1.28,0.787,3.286-0.766,4.051c-0.342,0.167-0.855,0.175-0.992,0.605
		c-0.15,0.467,0.055,0.681,0.354,0.76c0.133,0.205,0.373,0.327,0.695,0.211c0.436-0.156,0.898-0.29,1.309-0.508
		c0.104,0.026,0.209,0.01,0.311-0.047c0.111,0.107,0.238,0.197,0.365,0.257c0.596,0.286,1.27-0.182,1.693-0.561
		c0.092-0.078,0.129-0.166,0.145-0.256c0.111-0.246,0.25-0.475,0.377-0.711c0.211-0.041,0.412-0.167,0.492-0.372
		C82.577,51.237,82.596,50.406,82.405,49.703z"/>
	<path fill="#939393" d="M76.303,50.84c-4.277-0.692-8.889-0.259-13.215-0.272c-5.136-0.015-10.271-0.036-15.405-0.036H33.29
		c-4.713,0-9.817-0.563-14.455,0.333c-0.399,0.078-0.343,0.607,0.026,0.68c4.249,0.841,8.912,0.33,13.232,0.33h15.591
		c4.79,0,9.581-0.002,14.371-0.032c4.637-0.03,9.612,0.485,14.19-0.268C76.631,51.512,76.752,50.913,76.303,50.84z"/>
	<path fill="#59473D" d="M40.798,81.484c-0.15,0.208-0.26,0.437-0.355,0.671c-0.042,0.032-0.085,0.062-0.107,0.114
		c-0.46,1.133-0.757,2.362-1.149,3.528c-0.293,0.871-0.526,1.522-1.09,2.262c-0.358,0.47-0.569,0.677-0.571,1.254
		c0,0.14,0.147,0.229,0.275,0.194c0.994-0.271,1.837-1.749,2.101-2.703c0.023-0.086,0.051-0.169,0.076-0.255
		c0.648-0.405,0.751-1.26,0.928-1.971c0.227-0.907,0.528-1.843,0.666-2.763C41.633,81.396,41.057,81.123,40.798,81.484z"/>
	<path fill="#442F26" d="M41.602,81.431c-0.224-0.383-0.884-0.174-0.755,0.281c0.358,1.26-0.52,3.303-0.965,4.379
		c-0.842,2.037-2.22,3.27-3.542,4.943c-0.186,0.235,0.129,0.62,0.37,0.402c1.844-1.668,3.386-3.177,4.278-5.59
		C41.405,84.721,42.3,82.628,41.602,81.431z"/>
	<path fill="#442F26" d="M30.896,81.55c-0.32-0.234-0.782-0.077-1.125,0.07c-0.266,0.115-0.206,0.479,0.063,0.538
		c0.288,0.063,0.572,0.019,0.861-0.029c0.122-0.02,0.225-0.146,0.253-0.26c0.01-0.036,0.019-0.073,0.027-0.109
		C30.994,81.688,30.954,81.593,30.896,81.55z"/>
	<path fill="#442F26" d="M32.46,81.132c-0.507,0.183-0.915,0.498-1.08,1.024c-0.063,0.203,0.188,0.449,0.369,0.27
		c0.246-0.242,0.608-0.395,0.946-0.451C33.327,81.871,33.068,80.912,32.46,81.132z"/>
	<path fill="#442F26" d="M34.456,80.209c-0.469,0.232-0.815,0.372-1.094,0.818c-0.11,0.177,0.096,0.373,0.271,0.283
		c0.347-0.178,0.75-0.21,1.097-0.388C35.162,80.7,34.899,79.99,34.456,80.209z"/>
	<path fill="#442F26" d="M63.125,80.325c-0.139-0.428-0.755-0.238-0.737,0.175c0.036,0.783,0.204,1.533,0.337,2.303
		c0.092,0.52-0.001,1.225,0.438,1.585c0.057,0.045,0.145,0.078,0.214,0.045C64.659,83.84,63.403,81.18,63.125,80.325z"/>
	<path fill="#442F26" d="M57.643,86.634c-0.015-0.018-0.029-0.035-0.043-0.053c-0.048-0.058-0.119-0.094-0.196-0.066
		c-0.199,0.074-0.232,0.248-0.412,0.332c-0.127,0.06-0.371,0.025-0.51,0.018c-0.113-0.006-0.218,0.072-0.321,0.095
		c-0.074,0.016-0.094,0.115-0.02,0.148c0.556,0.25,1.187,0.514,1.55-0.185C57.736,86.833,57.703,86.707,57.643,86.634z"/>
	<path fill="#92A54E" d="M64.897,97.559c-0.07,0.091-0.141,0.171-0.24,0.221c-0.1,0.06-0.2,0.1-0.31,0.1
		c-0.18,0-0.36-0.08-0.51-0.26c-0.8-1.021-2.87-0.82-4.02-0.601c-0.98,0.19-1.66,0.811-2.22,1.561c0.13,2.55-0.12,5.21-0.12,7.62
		c-0.01,3.84-0.25,7.7-0.2,11.52l-0.8,0.471l-0.18,0.1v-0.21l-0.15-0.08l-0.06-0.04c0.03-1.05,0.02-2.11-0.01-3.17
		c-0.05-2.79-0.18-5.6-0.18-8.39v-0.061c0-3.08-0.39-6.55,0.03-9.67c0.09-0.65,0.21-1.28,0.37-1.89c0-0.011,0.02-0.03,0.02-0.05
		c0.02-0.08,0.06-0.141,0.11-0.171c0.12-0.109,0.29-0.079,0.43,0c0.04,0.03,0.08,0.061,0.11,0.091c0.06-0.04,0.12-0.07,0.2-0.091
		c0.02-0.01,0.05-0.02,0.08-0.02c1.7-0.2,3.32-0.28,4.97,0.02c0.31,0.051,0.62,0.12,0.93,0.21c0.07-0.069,0.13-0.149,0.22-0.21
		c0.15-0.1,0.35-0.14,0.53-0.09c0.01,0,0.04,0.021,0.05,0.021c0.07-0.021,0.14-0.03,0.21-0.03c0.06,0,0.13,0.01,0.19,0.04
		c0.05,0.02,0.1,0.04,0.14,0.06c0.12,0.08,0.21,0.2,0.25,0.37h0.02c0.01,0.101,0.021,0.2,0.021,0.29c0.029,0.36,0.02,0.7,0,1.07
		c-0.011,0.08-0.04,0.14-0.061,0.2c0.061,0.06,0.12,0.109,0.17,0.18c0.05,0.061,0.08,0.11,0.101,0.17
		C65.117,97.099,65.046,97.359,64.897,97.559z"/>
	<path fill="#92A54E" d="M39.396,94.559c0.03,0.19-0.01,0.421-0.12,0.681c0,0,0,0.01-0.01,0.01c-0.05,0.13-0.16,0.21-0.29,0.25
		c-0.27,0.1-0.63-0.01-0.77-0.26c-0.4-0.78-2.28-0.53-3.05-0.42c-0.84,0.109-1.78,0.87-2.32,1.489c-0.27,0.32-0.45,0.7-0.66,1.051
		c0.12,2.239-0.09,4.58-0.1,6.72l-1.14-0.67l-0.37-0.21l-0.1-0.061c0-0.88-0.04-1.81-0.06-2.729c-0.05-1.78-0.09-3.61,0.26-5.311
		c0.02-0.159,0.05-0.31,0.08-0.449c-0.07-0.021-0.17-0.021-0.26-0.04c-0.01,0-0.01,0-0.02,0c-0.04-0.011-0.08-0.021-0.11-0.051
		c-0.03-0.01-0.06-0.029-0.09-0.05c-0.13-0.1-0.21-0.27-0.22-0.439c-0.01-0.03-0.01-0.051-0.01-0.08c0-0.141,0.05-0.271,0.15-0.34
		c0.06-0.08,0.14-0.12,0.24-0.15c0.15-0.04,0.29-0.07,0.43-0.09c0.03-0.01,0.05-0.01,0.08-0.03c0.26-0.02,0.51-0.05,0.77-0.06
		c0.07-0.011,0.13-0.011,0.19-0.011c0.7-0.04,1.39-0.04,2.07-0.109c0.1-0.01,0.19-0.03,0.28-0.04c0.27-0.05,0.45,0.04,0.54,0.2
		c0.07,0.069,0.1,0.17,0.12,0.27c0.14-0.02,0.27-0.06,0.42-0.06c0.63-0.051,1.51-0.2,2.23-0.051c0.56,0.051,1.08,0.16,1.42,0.41
		c0.08,0.04,0.14,0.09,0.2,0.16C39.307,94.219,39.376,94.369,39.396,94.559z"/>
	<path fill="#E5E5E5" d="M76.192,73.372c-3.396-0.757-7.145-0.324-10.605-0.328c-4.834-0.006-9.667-0.005-14.501,0.027
		c-4.38,0.03-8.762,0.003-13.143,0.005c-4.072,0.002-8.421-0.395-12.525-0.019c-0.102-0.073-0.23-0.117-0.387-0.097
		c-0.332,0.042-0.66,0.142-0.984,0.264c-0.121,0.018-0.245,0.026-0.365,0.045c-0.038,0.006-0.053,0.034-0.084,0.048
		c-0.122-0.161-0.316-0.275-0.535-0.237c-0.494,0.089-1.022,0.072-1.493,0.259c-0.54,0.214-0.798,0.808-1.002,1.306
		c-0.086,0.211-0.004,0.403,0.142,0.527c-0.027,0.412,0.051,0.825,0.277,1.126c0.033,0.044,0.063,0.062,0.094,0.087
		c-0.049,0.248-0.073,0.503-0.062,0.764c0.008,0.205,0.284,0.191,0.335,0.018c0.447-1.511,1.744-2.634,3.243-3.011
		c3.995,0.478,8.254,0.079,12.252,0.08c4.793,0.001,9.585,0.003,14.378,0.005c4.773,0.002,9.548,0.033,14.324,0.027
		c3.465-0.004,7.205,0.436,10.609-0.32C76.436,73.889,76.491,73.439,76.192,73.372z"/>
	<path fill="#E5E5E5" d="M91.625,76.73c-0.59,0.217-0.98,0.575-1.287,1.003c-0.043-0.005-0.09,0-0.125,0.032
		c-0.486,0.438-1.027,1.253-0.816,1.93c0.002,0.011,0.004,0.021,0.006,0.03c0,0.001,0,0.002,0,0.003c0,0.001,0,0.001,0.002,0.002
		c0.008,0.02,0.016,0.039,0.031,0.054c-0.059,0.146-0.105,0.29-0.139,0.432c-0.127,0.531,0.672,0.701,0.82,0.184
		c0.313-1.084,1.088-1.904,1.889-2.652c0.08-0.073,0.072-0.178,0.023-0.254C92.42,77.197,92.135,76.542,91.625,76.73z"/>
	<path fill="#355946" d="M98.132,50.684c-0.126-0.032-0.252-0.071-0.379-0.11c-0.082-0.083-0.193-0.135-0.337-0.116
		c-0.018,0.004-0.034,0.001-0.052,0.005c-0.064-0.018-0.129-0.025-0.194-0.039c0.047-0.021,0.09-0.048,0.13-0.082
		c0.315-0.041,0.557-0.447,0.381-0.762c-0.398-0.714-0.868-1.288-1.596-1.679c-0.127-0.068-0.259-0.071-0.379-0.036
		c-0.108-0.119-0.217-0.237-0.324-0.356c0.018-0.139-0.009-0.285-0.112-0.405c-0.985-1.144-2.072-2.141-3.25-3.083
		c-0.028-0.022-0.061-0.033-0.091-0.049c-0.18-0.17-0.36-0.34-0.543-0.507c0.001-0.083-0.018-0.171-0.08-0.26
		c-0.761-1.084-1.885-1.647-2.93-2.429c-0.004-0.002-0.007-0.002-0.011-0.005c-0.021-0.035-0.028-0.079-0.048-0.116
		c0.021-0.108,0.008-0.222-0.053-0.325c-0.098-0.167-0.194-0.333-0.292-0.5c-0.112-0.192-0.294-0.258-0.467-0.237
		c-0.153-0.167-0.355-0.172-0.524-0.088c-0.134-0.036-0.262,0-0.367,0.076c-0.045-0.003-0.09-0.007-0.135-0.01
		c-0.177-0.174-0.374-0.311-0.681-0.428c-0.282-0.108-0.533,0.103-0.604,0.359c-0.023,0.016-0.043,0.035-0.064,0.054
		c-0.014,0.01-0.024,0.025-0.038,0.037c-0.013,0.014-0.028,0.026-0.04,0.041c-0.164,0.185-0.217,0.497-0.031,0.719
		c0.285,0.343,0.584,0.654,0.895,0.951c0.309,0.378,0.657,0.713,1.124,0.96c0.129,0.068,0.247,0.077,0.353,0.054
		c0.017,0.022,0.033,0.044,0.05,0.067c0.021,0.075,0.055,0.149,0.121,0.218c0.055,0.057,0.109,0.105,0.163,0.16
		c0.849,1.116,1.739,2.177,2.938,3.001c0.008,0.005,0.016,0.005,0.023,0.01c0.799,1.003,1.559,2.031,2.5,2.912
		c0.023,0.07,0.061,0.14,0.125,0.208c0.392,0.414,0.807,0.742,1.249,1.057c0.151,0.127,0.306,0.252,0.464,0.372
		C95.019,50.356,95,50.379,95,50.416c-0.008,0.325,0.005,0.624,0.044,0.937c-0.001,0.007-0.001,0.014-0.002,0.021l0.004,0
		c0.002,0.012,0.002,0.024,0.004,0.037c0.011,0.165,0.015,0.329,0.025,0.494c-0.079,0.393-0.165,0.783-0.348,1.139
		c-0.172,0.334-0.299,0.724-0.117,1.083c0.082,0.162,0.203,0.274,0.334,0.377c-0.07,0.315-0.146,0.629-0.218,0.946
		c-0.122,0.548,0.616,0.883,0.914,0.385c0.175-0.292,0.669-0.535,0.887-0.92c0.031-0.056,0.055-0.123,0.083-0.183
		c0.191-0.001,0.379-0.104,0.456-0.351c0.046-0.124,0.071-0.252,0.096-0.382c0.147-0.071,0.267-0.183,0.36-0.325
		c0.146-0.037,0.277-0.137,0.335-0.334c0.014-0.063,0.037-0.122,0.056-0.182c0.131-0.047,0.25-0.147,0.319-0.318
		c0.224-0.552,0.264-1.082,0.268-1.674C98.5,50.948,98.346,50.738,98.132,50.684z"/>
	<path fill="#1E1E1E" d="M94.973,55.288c-0.248-0.574-0.496-1.115-0.823-1.648c0.188-0.672,0.228-1.343,0.309-2.057
		c0.03-0.272-0.173-0.438-0.402-0.476c0.019-0.029,0.029-0.062,0.043-0.094c0.245-0.152,0.384-0.504,0.129-0.783
		c-0.344-0.352-0.677-0.713-1-1.083c-0.072-0.081-0.16-0.115-0.251-0.13c-0.394-0.535-0.857-0.926-1.355-1.304
		c-0.184-0.167-0.368-0.335-0.557-0.497c0.021-0.14-0.008-0.286-0.128-0.402c-0.281-0.273-0.549-0.554-0.813-0.835
		c-0.02-0.085-0.059-0.171-0.146-0.248c-0.807-0.709-1.552-1.477-2.375-2.167c-0.029-0.024-0.06-0.034-0.089-0.051
		c-0.445-0.587-0.861-1.191-1.331-1.761c-0.001-0.001-0.001-0.002-0.002-0.003c0,0,0,0-0.001,0c-0.027-0.033-0.05-0.069-0.077-0.102
		c-0.182-0.215-0.408-0.199-0.579-0.078c-0.183-0.244-0.364-0.491-0.551-0.738c-0.293-0.388-0.907-0.276-0.932,0.252
		c-0.101,2.15-0.678,4.145,0.659,6.011c1.059,1.479,2.65,3.228,4.131,4.295c0.216,0.156,0.472,0.066,0.622-0.114
		c0.271,0.282,0.589,0.556,0.911,0.833c0.043,0.044,0.092,0.083,0.135,0.126c-0.184,0.176-0.254,0.471-0.02,0.702
		c0.416,0.41,0.875,0.793,1.213,1.274c0.165,0.234,0.428,0.257,0.638,0.169c0.201,0.224,0.415,0.443,0.649,0.682
		c0.042,0.042,0.086,0.065,0.13,0.09c0.087,0.07,0.188,0.109,0.292,0.116c0.061,0.275,0.123,0.55,0.199,0.824
		c0.149,0.539,0.886,0.412,0.973-0.039C94.872,56.006,95.118,55.623,94.973,55.288z"/>
	<g>
		<path fill="#3CFC06" d="M85.333,44.656c0.035-0.546,0.128-0.905,0.279-1.076c0.15-0.168,0.343-0.144,0.578,0.074
			c0.237,0.22,0.412,0.539,0.528,0.958c0.115,0.417,0.155,0.898,0.121,1.444c-0.032,0.544-0.124,0.902-0.275,1.074
			c-0.151,0.17-0.345,0.146-0.58-0.074c-0.235-0.219-0.412-0.538-0.526-0.956C85.342,45.682,85.3,45.2,85.333,44.656z
			 M86.523,45.759c0.011-0.179,0.014-0.353,0.01-0.526c-0.005-0.172-0.021-0.334-0.046-0.485c-0.027-0.149-0.065-0.286-0.117-0.41
			c-0.053-0.122-0.121-0.223-0.201-0.299c-0.084-0.076-0.155-0.104-0.215-0.087c-0.062,0.018-0.112,0.072-0.15,0.16
			c-0.043,0.088-0.075,0.205-0.099,0.351c-0.024,0.148-0.041,0.309-0.053,0.489c-0.011,0.177-0.013,0.353-0.009,0.525
			c0.004,0.174,0.019,0.334,0.045,0.486c0.026,0.149,0.064,0.287,0.118,0.409c0.052,0.122,0.118,0.221,0.201,0.298
			c0.082,0.076,0.153,0.106,0.213,0.087c0.062-0.019,0.111-0.072,0.153-0.159c0.04-0.088,0.073-0.206,0.097-0.353
			C86.493,46.1,86.511,45.939,86.523,45.759z"/>
		<path fill="#3CFC06" d="M87.166,46.357c0.033-0.545,0.124-0.902,0.276-1.074c0.151-0.171,0.344-0.148,0.581,0.073
			c0.235,0.219,0.411,0.538,0.525,0.956c0.116,0.418,0.157,0.899,0.123,1.446c-0.033,0.544-0.126,0.9-0.275,1.071
			c-0.152,0.172-0.346,0.147-0.581-0.073c-0.235-0.218-0.412-0.538-0.526-0.955C87.173,47.384,87.133,46.902,87.166,46.357z
			 M88.353,47.461c0.011-0.177,0.015-0.354,0.011-0.525c-0.005-0.174-0.021-0.336-0.046-0.485c-0.028-0.151-0.065-0.287-0.119-0.411
			c-0.05-0.121-0.118-0.222-0.2-0.297c-0.083-0.077-0.153-0.105-0.215-0.088c-0.061,0.018-0.11,0.071-0.152,0.159
			c-0.04,0.088-0.071,0.204-0.097,0.352c-0.024,0.146-0.04,0.309-0.051,0.488c-0.011,0.179-0.015,0.354-0.01,0.526
			c0.003,0.175,0.019,0.336,0.046,0.485c0.026,0.15,0.064,0.285,0.117,0.409c0.051,0.124,0.119,0.223,0.201,0.298
			c0.081,0.079,0.152,0.107,0.214,0.089c0.061-0.019,0.112-0.072,0.153-0.16c0.04-0.087,0.072-0.204,0.096-0.353
			C88.326,47.802,88.343,47.639,88.353,47.461z"/>
		<path fill="#3CFC06" d="M89.48,47.982c-0.003,0.086-0.028,0.141-0.069,0.168c-0.044,0.027-0.098,0.008-0.165-0.054
			c-0.068-0.063-0.119-0.144-0.154-0.243c-0.036-0.099-0.051-0.191-0.045-0.276c0.005-0.084,0.028-0.139,0.073-0.165
			c0.043-0.027,0.097-0.008,0.162,0.054c0.068,0.061,0.119,0.143,0.154,0.241C89.472,47.808,89.486,47.898,89.48,47.982z
			 M89.367,49.858c-0.004,0.084-0.028,0.141-0.071,0.167c-0.043,0.026-0.099,0.008-0.166-0.055
			c-0.066-0.063-0.117-0.142-0.152-0.242c-0.034-0.099-0.05-0.191-0.045-0.274c0.005-0.083,0.028-0.141,0.072-0.166
			c0.043-0.027,0.097-0.009,0.164,0.052c0.066,0.063,0.119,0.145,0.154,0.244C89.357,49.681,89.373,49.773,89.367,49.858z"/>
		<path fill="#3CFC06" d="M89.794,48.8c0.033-0.544,0.126-0.902,0.277-1.073c0.15-0.17,0.343-0.146,0.58,0.074
			c0.236,0.221,0.411,0.538,0.526,0.956c0.114,0.417,0.155,0.901,0.123,1.445c-0.033,0.544-0.125,0.903-0.276,1.073
			c-0.15,0.171-0.346,0.147-0.581-0.072c-0.236-0.22-0.412-0.538-0.525-0.956C89.801,49.827,89.76,49.346,89.794,48.8z
			 M90.982,49.905c0.012-0.177,0.016-0.353,0.011-0.527c-0.004-0.171-0.018-0.334-0.046-0.484c-0.027-0.15-0.064-0.285-0.117-0.41
			c-0.052-0.121-0.119-0.223-0.202-0.298c-0.082-0.077-0.153-0.106-0.212-0.087c-0.061,0.018-0.112,0.071-0.152,0.159
			c-0.043,0.088-0.074,0.205-0.098,0.35c-0.023,0.148-0.043,0.311-0.052,0.489c-0.011,0.177-0.015,0.355-0.012,0.527
			c0.006,0.172,0.021,0.333,0.047,0.485c0.027,0.15,0.065,0.287,0.118,0.41c0.051,0.123,0.119,0.223,0.199,0.298
			c0.084,0.077,0.155,0.106,0.216,0.087c0.06-0.017,0.11-0.071,0.153-0.158c0.04-0.087,0.071-0.206,0.095-0.352
			C90.955,50.247,90.971,50.083,90.982,49.905z"/>
		<path fill="#3CFC06" d="M91.625,50.505c0.034-0.547,0.127-0.905,0.276-1.075c0.151-0.171,0.346-0.148,0.58,0.073
			c0.237,0.219,0.413,0.537,0.527,0.956c0.116,0.418,0.156,0.9,0.124,1.447c-0.035,0.543-0.126,0.901-0.278,1.07
			c-0.149,0.172-0.342,0.148-0.579-0.073c-0.236-0.219-0.411-0.536-0.527-0.955C91.632,51.531,91.592,51.05,91.625,50.505z
			 M92.815,51.607c0.011-0.179,0.014-0.354,0.007-0.527c-0.002-0.172-0.018-0.333-0.043-0.484c-0.026-0.15-0.066-0.287-0.119-0.411
			c-0.05-0.122-0.118-0.222-0.2-0.298c-0.081-0.077-0.154-0.105-0.213-0.086c-0.062,0.017-0.113,0.07-0.154,0.158
			c-0.039,0.089-0.072,0.205-0.096,0.353c-0.023,0.147-0.042,0.308-0.053,0.488c-0.012,0.177-0.014,0.354-0.01,0.526
			c0.004,0.173,0.02,0.336,0.045,0.484c0.028,0.151,0.066,0.286,0.118,0.41c0.053,0.122,0.12,0.224,0.201,0.298
			c0.082,0.076,0.154,0.106,0.214,0.087c0.063-0.018,0.111-0.071,0.152-0.159c0.042-0.088,0.073-0.205,0.098-0.351
			C92.787,51.949,92.803,51.786,92.815,51.607z"/>
	</g>
</g>
<g id="Layer_4">
	<g>
		<polygon fill="#0C113D" points="95.737,34.579 17.807,34.579 18.227,34.339 19.537,33.579 94.006,33.579 94.857,34.069 
			95.447,34.409 		"/>
	</g>
	<g>
		<path fill="#0C113D" d="M55.161,95.221c0.126-0.41,0.254-0.822,0.38-1.236H39.292c0.168,0.193,0.279,0.449,0.272,0.785
			c-0.004,0.155-0.032,0.304-0.046,0.451H55.161z"/>
		<path fill="#0C113D" d="M19.744,72.021v23.199h10.371c0.017-0.074,0.032-0.147,0.061-0.225v-0.071c0-0.406,0.196-0.727,0.474-0.94
			h-9.685V73.259h56.281v20.726H63.845c0.131,0.122,0.24,0.266,0.296,0.453c0.172,0.21,0.285,0.473,0.285,0.783h14.043V72.021
			H19.744z"/>
	</g>
	<g>
		<path fill="#0C113D" d="M39.675,90.17c0.022,0.171,0.021,0.345-0.021,0.5c-0.01,0.04-0.025,0.079-0.038,0.118h15.216
			c-0.021-0.201-0.029-0.406-0.026-0.619H39.675z"/>
		<path fill="#0C113D" d="M24.694,74.818v15.971h5.616c-0.03-0.201-0.046-0.405-0.042-0.619h-4.96V75.437h47.43V90.17h-7.607
			c0.023,0.208-0.008,0.418-0.1,0.619h8.32V74.818H24.694z"/>
	</g>
	<g>
		<path fill="#0C113D" d="M79.836,47.439h-63c-2.02,0-3.67,1.64-3.67,3.66s1.65,3.66,3.67,3.66h63c0.23,0,0.46-0.02,0.68-0.06
			c1.7-0.32,2.98-1.81,2.98-3.6C83.497,49.079,81.857,47.439,79.836,47.439z M81.756,52.579c-0.07,0.08-0.14,0.16-0.21,0.23
			c-0.439,0.44-1.04,0.71-1.71,0.71h-63c-0.71,0-1.35-0.31-1.8-0.79l-0.01-0.01c-0.38-0.42-0.62-0.99-0.62-1.62
			c0-0.51,0.16-0.99,0.44-1.39c0.4-0.56,1.02-0.94,1.73-1.02h0.01c0.08-0.01,0.17-0.01,0.25-0.01h63.05
			c1.15,0.02,2.11,0.87,2.32,1.97c0,0.01,0,0.01,0,0.02c0,0.01,0,0.01,0,0.02v0.04c0.04,0.13,0.05,0.24,0.05,0.37
			c0,0.41-0.1,0.8-0.28,1.14C81.907,52.359,81.836,52.469,81.756,52.579z"/>
	</g>
	<g>
		<path fill="#0C113D" d="M34.728,48.364c1.011-2.124,3.161-3.606,5.666-3.606h14.744c2.34,0,4.355,1.301,5.438,3.202
			c0.012-0.002,0.022-0.01,0.035-0.013c0.496-0.089,0.91-0.048,1.393,0.071c-1.17-2.641-3.795-4.498-6.865-4.498H40.394
			c-3.169,0-5.881,1.971-6.99,4.749C33.84,48.336,34.287,48.326,34.728,48.364z"/>
		<path fill="#0C113D" d="M60.434,54.415c-1.118,1.752-3.068,2.924-5.296,2.924H40.394c-2.556,0-4.75-1.537-5.733-3.73
			c-0.465,0.048-0.912,0.052-1.343-0.019c1.046,2.902,3.818,4.986,7.077,4.986h14.744c3.069,0,5.71-1.848,6.881-4.486
			C61.492,54.204,60.967,54.323,60.434,54.415z"/>
	</g>
	<path fill="none" stroke="#0C113D" stroke-miterlimit="10" d="M96.901,84.562c0,2.277-1.848,4.125-4.125,4.125l0,0
		c-2.279,0-4.125-1.847-4.125-4.125v-4.537c0-2.278,1.846-4.125,4.125-4.125l0,0c2.277,0,4.125,1.847,4.125,4.125V84.562z"/>
	<g>
		<g>
			<path fill="#0C113D" d="M89.268,80.988c2.269,0,4.538,0,6.807,0c0.645,0,0.645-1,0-1c-2.269,0-4.538,0-6.807,0
				C88.624,79.988,88.624,80.988,89.268,80.988L89.268,80.988z"/>
		</g>
	</g>
	<g>
		<g>
			<path fill="#0C113D" d="M92.327,76.467c0,1.203,0,2.406,0,3.609c0,0.645,1,0.645,1,0c0-1.203,0-2.406,0-3.609
				C93.327,75.822,92.327,75.822,92.327,76.467L92.327,76.467z"/>
		</g>
	</g>
	<path fill="none" stroke="#0C113D" stroke-miterlimit="10" d="M94.502,63.603c0,2.435-1.973,4.408-4.406,4.408
		c-2.438,0-4.41-1.973-4.41-4.408s1.973-4.408,4.41-4.408C92.53,59.195,94.502,61.168,94.502,63.603z"/>
	<g>
		<g>
			<path fill="#0C113D" d="M94.682,64.232c0.723,0,1.445,0,2.168,0c0.645,0,0.645-1,0-1c-0.723,0-1.445,0-2.168,0
				C94.038,63.232,94.038,64.232,94.682,64.232L94.682,64.232z"/>
		</g>
	</g>
	<path fill="none" stroke="#0C113D" stroke-miterlimit="10" d="M79.131,61.135c1.588,1.848,1.375,4.63-0.471,6.216
		c-1.85,1.586-4.631,1.375-6.217-0.473s-1.377-4.63,0.473-6.216C74.764,59.076,77.545,59.288,79.131,61.135z"/>
	<g>
		<g>
			<path fill="#0C113D" d="M79.708,61.468c0.547-0.47,1.097-0.938,1.643-1.41c0.488-0.423-0.222-1.127-0.707-0.707
				c-0.546,0.472-1.096,0.94-1.643,1.41C78.51,61.182,79.221,61.886,79.708,61.468L79.708,61.468z"/>
		</g>
	</g>
	<g>
		<g>
			<path fill="#0C113D" d="M30.937,93.009v10.4l-0.37-0.21l-0.1-0.061l-0.17-0.09l-0.6-0.35v-9.69c0-0.439,0.39-0.64,0.74-0.58
				c0.22,0.04,0.43,0.181,0.49,0.431C30.926,92.909,30.937,92.959,30.937,93.009z"/>
		</g>
		<g>
			<g>
				<path fill="#0C113D" d="M30.623,93.363c2.758,0,5.517,0,8.275,0c0.645,0,0.645-1,0-1c-2.758,0-5.517,0-8.275,0
					C29.978,92.363,29.978,93.363,30.623,93.363L30.623,93.363z"/>
			</g>
		</g>
		<g>
			<path fill="#0C113D" d="M40.216,93.409v15.37l-0.11-0.061l-0.16-0.09l-0.73-0.43l-0.24-0.13v-14.66c0-0.21,0.09-0.36,0.21-0.46
				C39.546,92.669,40.216,92.819,40.216,93.409z"/>
		</g>
		<g>
			<g>
				<path fill="#0C113D" d="M31.144,92.248c-0.354-1.443-1.062-2.777-1.098-4.284c-0.011-0.483-0.762-0.484-0.75,0
					c0.038,1.585,0.752,2.968,1.124,4.483C30.536,92.917,31.259,92.718,31.144,92.248L31.144,92.248z"/>
			</g>
		</g>
		<g>
			<g>
				<path fill="#0C113D" d="M29.953,87.26c-0.538-1.18-1.417-4.873,0.122-5.623c0.435-0.212,0.054-0.858-0.379-0.647
					c-2.026,0.988-1.096,5.099-0.39,6.649C29.505,88.078,30.152,87.697,29.953,87.26L29.953,87.26z"/>
			</g>
		</g>
		<g>
			<g>
				<path fill="#0C113D" d="M30.697,81.675c0.145-0.049,0.333,0.227,0.404,0.316c0.298,0.38,0.825-0.154,0.53-0.53
					c-0.257-0.328-0.694-0.656-1.133-0.509C30.042,81.104,30.237,81.829,30.697,81.675L30.697,81.675z"/>
			</g>
		</g>
		<g>
			<g>
				<path fill="#0C113D" d="M31.87,86.679c-0.206-0.7-0.898-5.698,0.392-5.261c0.459,0.155,0.655-0.569,0.199-0.724
					c-2.576-0.872-1.647,5.05-1.315,6.184C31.282,87.341,32.006,87.144,31.87,86.679L31.87,86.679z"/>
			</g>
		</g>
		<g>
			<g>
				<path fill="#0C113D" d="M34.237,86.37c-0.275-0.981-0.468-1.992-0.598-3.001c-0.08-0.621-0.462-3.286,0.773-2.66
					c0.43,0.218,0.81-0.429,0.379-0.647c-3.174-1.611-1.62,5.287-1.277,6.507C33.645,87.034,34.368,86.836,34.237,86.37
					L34.237,86.37z"/>
			</g>
		</g>
		<g>
			<g>
				<path fill="#0C113D" d="M39.26,92.244c0.095-1.355,1.406-2.215,1.585-3.584c0.063-0.479-0.688-0.473-0.75,0
					c-0.096,0.728-0.575,1.288-0.976,1.873c-0.357,0.522-0.565,1.079-0.61,1.711C38.476,92.728,39.227,92.724,39.26,92.244
					L39.26,92.244z"/>
			</g>
		</g>
		<g>
			<g>
				<path fill="#0C113D" d="M40.486,82.65c0.155-0.843,0.805-1.97,1.234-0.588c0.232,0.747,0.106,1.63-0.004,2.385
					c-0.182,1.244-0.504,3.019-1.516,3.871c-0.371,0.312,0.163,0.84,0.53,0.53c1.588-1.338,2.046-4.625,1.795-6.561
					c-0.079-0.607-0.474-1.873-1.317-1.8c-0.988,0.085-1.292,1.129-1.446,1.964C39.676,82.923,40.398,83.125,40.486,82.65
					L40.486,82.65z"/>
			</g>
		</g>
		<g>
			<g>
				<path fill="#0C113D" d="M39.706,82.499c0.025,0.481-0.336,3.065-1.148,2.783c-0.458-0.159-0.653,0.566-0.199,0.724
					c1.563,0.542,2.149-2.521,2.098-3.507C40.431,82.018,39.681,82.016,39.706,82.499L39.706,82.499z"/>
			</g>
		</g>
		<g>
			<g>
				<path fill="#0C113D" d="M37.356,82.241c0.074,1.105,0.116,2.359,0.564,3.386c0.193,0.442,0.839,0.06,0.647-0.379
					c-0.39-0.895-0.397-2.045-0.461-3.007C38.075,81.761,37.324,81.758,37.356,82.241L37.356,82.241z"/>
			</g>
		</g>
		<g>
			<g>
				<path fill="#0C113D" d="M36.166,86.247c-0.495-2.693-0.981-5.363-0.452-8.09c0.177-0.911,1.262-1.347,1.333-0.269
					c0.026,0.399,0.017,0.804,0.021,1.204c0.009,0.984,0.114,1.953,0.25,2.927c0.067,0.478,0.79,0.273,0.724-0.199
					c-0.163-1.164,0.506-6.809-1.982-5.657c-1.083,0.501-1.184,2.314-1.288,3.302c-0.246,2.346,0.249,4.688,0.67,6.982
					C35.53,86.921,36.252,86.72,36.166,86.247L36.166,86.247z"/>
			</g>
		</g>
	</g>
	<g>
		<g>
			<path fill="#0C113D" d="M65.583,94.201v18.733l-0.335,0.186l-0.458,0.272l-0.223,0.125l-0.221,0.122V94.201
				C64.345,93.408,65.583,93.408,65.583,94.201z"/>
		</g>
		<g>
			<g>
				<path fill="#0C113D" d="M64.653,93.55c-2.758,0-5.516,0-8.274,0c-0.645,0-0.645,1,0,1c2.758,0,5.516,0,8.274,0
					C65.297,94.55,65.297,93.55,64.653,93.55L64.653,93.55z"/>
			</g>
		</g>
		<g>
			<path fill="#0C113D" d="M56.296,94.559v23.521l-0.15-0.08l-0.06-0.04l-1.02-0.59V94.559c0-0.069,0.02-0.14,0.04-0.189
				c0.07-0.2,0.24-0.32,0.42-0.351c0.16-0.039,0.34-0.02,0.47,0.061c0.05,0.03,0.09,0.06,0.13,0.1
				C56.227,94.269,56.287,94.389,56.296,94.559z"/>
		</g>
		<g>
			<g>
				<path fill="#0C113D" d="M64.855,93.634c0.372-1.516,1.088-2.899,1.126-4.484c0.012-0.484-0.738-0.483-0.75,0
					c-0.036,1.507-0.745,2.842-1.099,4.285C64.017,93.904,64.74,94.104,64.855,93.634L64.855,93.634z"/>
			</g>
		</g>
		<g>
			<g>
				<path fill="#0C113D" d="M65.975,88.825c0.737-1.693,1.009-5.92-1.019-6.908c-0.433-0.211-0.813,0.436-0.379,0.647
					c1.577,0.768,1.328,4.553,0.749,5.881C65.136,88.885,65.782,89.268,65.975,88.825L65.975,88.825z"/>
			</g>
		</g>
		<g>
			<g>
				<path fill="#0C113D" d="M64.13,88.064c0.464-1.604,0.534-3.508,0.265-5.15c-0.079-0.477-0.801-0.274-0.724,0.199
					c0.248,1.505,0.159,3.288-0.265,4.751C63.272,88.331,63.996,88.528,64.13,88.064L64.13,88.064z"/>
			</g>
		</g>
		<g>
			<g>
				<path fill="#0C113D" d="M56.768,93.431c-0.046-0.641-0.263-1.176-0.611-1.711c-0.39-0.6-0.878-1.135-0.975-1.874
					c-0.062-0.473-0.813-0.479-0.75,0c0.18,1.369,1.489,2.229,1.586,3.584C56.052,93.91,56.802,93.913,56.768,93.431L56.768,93.431z
					"/>
			</g>
		</g>
		<g>
			<g>
				<path fill="#0C113D" d="M55.514,83.637c-0.126-0.68-0.416-1.875-1.296-1.951c-0.933-0.08-1.296,0.947-1.453,1.688
					c-0.252,1.19,0.05,2.547,0.33,3.705c0.245,1.014,0.624,2.258,1.452,2.956c0.367,0.31,0.9-0.218,0.53-0.53
					c-0.961-0.81-1.236-2.391-1.463-3.562c-0.134-0.691-0.196-1.399-0.16-2.103c0.023-0.448,0.156-0.956,0.447-1.309
					c0.464-0.563,0.865,1.169,0.89,1.305C54.878,84.311,55.601,84.109,55.514,83.637L55.514,83.637z"/>
			</g>
		</g>
		<g>
			<g>
				<path fill="#0C113D" d="M54.821,83.685c-0.052,0.985,0.535,4.048,2.098,3.507c0.454-0.158,0.259-0.882-0.199-0.724
					c-0.812,0.282-1.174-2.302-1.148-2.783C55.596,83.202,54.846,83.204,54.821,83.685L54.821,83.685z"/>
			</g>
		</g>
		<g>
			<g>
				<path fill="#0C113D" d="M57.17,83.427c-0.063,0.962-0.071,2.113-0.461,3.007c-0.191,0.439,0.455,0.821,0.647,0.379
					c0.448-1.026,0.491-2.282,0.563-3.386C57.952,82.944,57.202,82.947,57.17,83.427L57.17,83.427z"/>
			</g>
		</g>
		<g>
			<g>
				<path fill="#0C113D" d="M59.834,87.632c0.51-2.772,1.943-7.989-0.541-10.225c-2.213-1.993-1.98,5.047-2.058,5.599
					c-0.066,0.473,0.657,0.677,0.724,0.199c0.115-0.824,0.204-1.642,0.24-2.474c0.019-0.423,0.014-0.848,0.019-1.271
					c0.001-0.082,0.093-2.381,1.062-0.931c0.724,1.083,0.553,3.004,0.516,4.232c-0.047,1.568-0.401,3.134-0.685,4.673
					C59.023,87.906,59.746,88.107,59.834,87.632L59.834,87.632z"/>
			</g>
		</g>
	</g>
	<g>
		<g>
			<path fill="#0C113D" d="M60.412,78.606c0.307-0.067,0.613-0.135,0.92-0.202c0.259,0.503,0.458,1.029,0.598,1.577
				c0.236,0.786,0.276,1.627,0.336,2.44c0.126,1.699-0.226,3.38-0.683,5.005c-0.131,0.466,0.593,0.664,0.724,0.199
				c0.822-2.922,1.171-6.279-0.116-9.132c-0.373-0.828-0.643-1.356-1.561-1.397c-0.737-0.032-0.983,0.985-0.968,1.509
				C59.676,79.089,60.426,79.09,60.412,78.606L60.412,78.606z"/>
		</g>
	</g>
	<g>
		<g>
			<path fill="#0C113D" d="M62.046,78.757c0.781,1.444,1.593,2.907,1.649,4.586c0.016,0.482,0.766,0.484,0.75,0
				c-0.061-1.819-0.904-3.398-1.751-4.965C62.463,77.953,61.816,78.331,62.046,78.757L62.046,78.757z"/>
		</g>
	</g>
	<g>
		<g>
			<path fill="#0C113D" d="M63.109,80.302c0.855,0.732,1.372,1.752,2.108,2.591c0.32,0.364,0.849-0.168,0.531-0.53
				c-0.737-0.839-1.251-1.857-2.109-2.591C63.274,79.459,62.741,79.987,63.109,80.302L63.109,80.302z"/>
		</g>
	</g>
	<g>
		<g>
			<path fill="#0D123C" d="M83.689,46.852c3.416,3.417,6.833,6.833,10.25,10.25c0.456,0.457,1.163-0.25,0.707-0.707
				c-3.417-3.417-6.834-6.833-10.25-10.25C83.94,45.688,83.233,46.396,83.689,46.852L83.689,46.852z"/>
		</g>
	</g>
	<g>
		<g>
			<path fill="#0D123C" d="M95.083,56.666c0-2.056,0-4.111,0-6.167c0-0.645-1-0.645-1,0c0,2.056,0,4.111,0,6.167
				C94.083,57.311,95.083,57.311,95.083,56.666L95.083,56.666z"/>
		</g>
	</g>
	<g>
		<g>
			<path fill="#0D123C" d="M84.333,46.207c0-2.25,0-4.5,0-6.75c0-0.645-1-0.645-1,0c0,2.25,0,4.5,0,6.75
				C83.333,46.852,84.333,46.852,84.333,46.207L84.333,46.207z"/>
		</g>
	</g>
	<g>
		<g>
			<path fill="#0D123C" d="M95.021,49.937c-3.486-3.486-6.973-6.972-10.459-10.458c-0.456-0.457-1.163,0.25-0.707,0.707
				c3.486,3.486,6.973,6.972,10.459,10.458C94.77,51.101,95.477,50.394,95.021,49.937L95.021,49.937z"/>
		</g>
	</g>
	<g>
		<g>
			<path fill="#0D123C" d="M95.145,57.227c1.223-1.222,2.444-2.444,3.667-3.667c0.456-0.456-0.251-1.163-0.707-0.707
				c-1.223,1.222-2.444,2.444-3.667,3.667C93.982,56.977,94.689,57.684,95.145,57.227L95.145,57.227z"/>
		</g>
	</g>
	<g>
		<g>
			<path fill="#0D123C" d="M99.125,52.916c0-0.806,0-1.611,0-2.417c0-0.645-1-0.645-1,0c0,0.806,0,1.611,0,2.417
				C98.125,53.561,99.125,53.561,99.125,52.916L99.125,52.916z"/>
		</g>
	</g>
	<g>
		<g>
			<path fill="#0D123C" d="M94.833,50.666c1.125,0,2.25,0,3.375,0c0.645,0,0.645-1,0-1c-1.125,0-2.25,0-3.375,0
				C94.189,49.666,94.189,50.666,94.833,50.666L94.833,50.666z"/>
		</g>
	</g>
	<g>
		<g>
			<path fill="#0D123C" d="M84.125,39.749c1.247,0,2.493,0,3.74,0c0.645,0,0.645-1,0-1c-1.247,0-2.493,0-3.74,0
				C83.48,38.749,83.48,39.749,84.125,39.749L84.125,39.749z"/>
		</g>
	</g>
	<g>
		<g>
			<path fill="#0D123C" d="M98.875,49.828c-3.542-3.542-7.084-7.083-10.625-10.625c-0.456-0.457-1.163,0.25-0.707,0.707
				c0.056,0.056,0.11,0.111,0.166,0.167c0.456,0.457,1.163-0.25,0.707-0.707c-0.101-0.101-0.201-0.202-0.302-0.302
				c-0.457-0.456-1.163,0.25-0.707,0.707c0.101,0.101,0.201,0.202,0.302,0.302c0.456,0.457,1.163-0.25,0.707-0.707
				c-0.101-0.101-0.201-0.201-0.302-0.302c-0.236,0.236-0.472,0.472-0.707,0.707c0.101,0.101,0.201,0.202,0.302,0.302
				c0.456,0.457,1.163-0.25,0.707-0.707c-0.056-0.056-0.11-0.111-0.166-0.167c-0.235,0.236-0.472,0.471-0.707,0.707
				c3.541,3.542,7.083,7.083,10.625,10.625C98.624,50.991,99.331,50.284,98.875,49.828L98.875,49.828z"/>
		</g>
	</g>
</g>
<g id="Layer_3">
	<g id="Layer_2_6_">
		<g id="Layer_16_5_">
			<path opacity="0.13" enable-background="new    " d="M10.674,38.639V91.76l46.072,26.559l46.074-26.559V38.639L56.747,12.078
				L10.674,38.639z M100.956,39.719v50.97l-44.209,25.49l-44.211-25.49v-50.97L56.747,14.23L100.956,39.719z"/>
		</g>
	</g>
</g>
</svg>
