<svg xmlns="http://www.w3.org/2000/svg" width="111.698" height="128.916" viewBox="0 0 111.698 128.916"><path fill="#EFA554" d="M111.698 96.916l-55.426 32-55.424-32v-64l55.424-32 55.426 32z"/><path fill="#ED8B56" d="M102.777 38.639v53.13l-.011.01-1.42.82-6.279 3.62-2.721 1.57-.239.12-.131.06-.109.06-3.031 1.74-1.87 1.08-.04.03-3.25 1.88-.87.51-1.38.79-1.46.85-.179.1-.021.01-1.71.99-.96.55-4.62 2.67-.63.37-.059.03-.58.34-2.1 1.21-.271.15-.37.22-.179.1-.18.1-3.86 2.23-.011.01-.429.25-1.411.81-.79.46-.1.06-.08.05-.82.47-3.739 2.16-.14.08-.141-.08-.109-.06-.181-.11-.15-.08-.06-.04-1.02-.59-5.679-3.29-.23-.13-.04-.02-.511-.3h-.009l-.75-.44-.241-.14-.56-.32-5-2.89-.129-.08-.23-.13-.581-.34-.109-.06-.34-.2-.031-.02-.41-.23-.11-.06-.16-.09-.73-.43-.239-.13-3.07-1.78-.39-.23-.491-.28-.33-.19-1.849-1.07-.571-.33-.199-.11-1.14-.67-.371-.21-.1-.06-.17-.09-.6-.35-1.639-.95-2.911-1.68-.089-.05-4.67-2.7-2.111-1.22-7.5-4.33v-53.13l7.031-4.06.42-.24 1.31-.76 5.569-3.22 1.991-1.15 4.929-2.84 1.58-.91.17-.1 1.661-.95 1.16-.67 1.54-.9.52-.3 2.28-1.31.689-.4 1.46-.84 5.721-3.3.46-.26 6.069-3.51 1.44-.83 1.06.61 6.491 3.75 14.53 8.39 1.04.6 2.3 1.32.87.5 1.519.88 1.371.79.799.46.09.05 1.811 1.04 3.779 2.19.04.02v.01l.261.15.66.38.609.35.851.49.59.34.29.17 1.059.61.781.45.439.25 1.941 1.12z"/><path fill="#B78365" d="M102.777 38.639v53.13l-.011.01-1.42.82-6.279 3.62-2.721 1.57-.239.12-.131.06-.109.06-3.031 1.74-1.87 1.08-.04.03-3.25 1.88-.87.51-1.38.79-1.46.85-.179.1-.021.01-1.71.99-.96.55-4.62 2.67-.63.37-.059.03-.58.34-2.1 1.21-.271.15-.37.22-.179.1-.18.1-3.86 2.23-.011.01-.429.25-1.411.81-.79.46-.1.06-.08.05-.82.47-3.739 2.16h-.281l-.109-.06-.181-.11-.15-.08-.06-.04-1.02-.59-5.679-3.29-.23-.13-.04-.02-.511-.3h-.009l-.75-.44-.241-.14-.56-.32-5-2.89-.129-.08-.23-.13-.581-.34-.109-.06-.34-.2-.031-.02-.41-.23-.11-.06-.16-.09-.73-.43-.239-.13-3.07-1.78-.39-.23-.491-.28-.33-.19-1.849-1.07-.571-.33-.199-.11-1.14-.67-.371-.21-.1-.06-.17-.09-.6-.35-1.639-.95-2.911-1.68-.089-.05-4.67-2.7-2.111-1.22-7.5-4.33v-53.13l7.031-4.06.42-.24 77.22.07.29.17 1.059.61.781.45.439.25 1.941 1.12z"/><path fill="#1C1714" d="M79.911 64.686c.135-.711.148-1.441.043-1.995a.773.773 0 0 0-.27-.448c-.24-.899-.738-1.663-1.754-2.036-.283-.104-.539.009-.725.202a2.49 2.49 0 0 0-.699-.312c-.982-.905-3.033.392-3.873 1.123-1.975 1.718-.799 4.544.748 6.193.086.101.186.188.281.278.133.125.266.243.398.348.465.313.986.085 1.213-.282.807.274 1.68.174 2.387-.493.037.004.064.021.104.023.373.027.66-.113.881-.348.063-.024.131-.042.188-.086.389-.313.68-.81.875-1.373a.618.618 0 0 0 .203-.477v-.317zm14.283-2.856a.607.607 0 0 0-.162-.342c-.168-.535-.498-.934-1.094-1.035a1.757 1.757 0 0 0-.486-.003.71.71 0 0 0-.24-.374 3.76 3.76 0 0 0-.693-.442.743.743 0 0 0-.379-.243c-.227-.062-.422-.075-.611-.062-2.605-.349-5.07 2.746-4.092 5.42.205 1.007.881 1.88 2.125 2.355.803.906 1.953 1.346 3.186.521.369-.247.668-.6.904-1.009.229-.084.451-.247.635-.523.027-.042.045-.09.068-.134a.71.71 0 0 0 .402-.489c.123-.555.377-1.623.414-2.635.048-.32.072-.647.023-1.005z"/><path fill="#3F2A1F" d="M78.647 63.954c-.17-.425-.729-.348-.961-.054-.143.18-.182.384-.299.576-.178.289-.486.478-.77.646-.922.549-1.709.438-2.52-.142-.082-.06-.168.042-.154.122.542 2.753 5.569 1.04 4.704-1.148zm13.307.002c-.455.62-.66.904-1.445 1.087a5.66 5.66 0 0 1-1.289.162c-.287-.006-.545-.171-.83-.205-.191-.022-.404.184-.301.383.432.832 1.816 1.109 2.662 1.051 1.15-.08 2.559-.952 2.398-2.247-.076-.607-.881-.658-1.195-.231z"/><path fill="#59381F" d="M77.743 64.261c-.182.268-.402.471-.563.757-.178.325.26.551.51.397.281-.172.51-.339.715-.605.34-.445-.358-1.003-.662-.549zm14.091.197c-.104.103-.209.206-.311.309-.338.16-.084.624.238.565.324-.06.516-.223.715-.479.337-.43-.37-.884-.642-.395z"/><path fill="#7A5A44" d="M78.036 64.243c-.422 0-.354.653.066.653.422 0 .356-.653-.066-.653zm14.254.02c-.498 0-.395.768.096.768.497 0 .396-.768-.096-.768z"/><path fill="#110A07" d="M74.194 60.211c-1.654.747-2.914 3.148-2.006 4.881.035.413.146.816.398 1.182.098.141.322.052.332-.104.109-1.31.152-2.363 1.34-3.169.861-.588 1.729-1.04 2.807-.807.301.065.883.327 1.424.447.307.222.609.45.914.667.215.15.461-.043.531-.239 1.031-2.838-4.08-3.605-5.74-2.858zm16.379-.55c-2.99-.502-4.975 2.374-4.029 5.048.119.338.637.248.623-.116-.096-2.259 1.541-3.655 3.771-3.11.781.192 1.674.695 2.168 1.329.395.512.512 1.139.902 1.645.074.096.232.089.303-.011 1.615-2.398-1.812-4.462-3.738-4.785z"/><path fill="#99573D" d="M80.004 54.24c-.109-.158-.326-.255-.496-.146-.033.021-.055.049-.078.074l-.012-.016c-.152.138-.281.164-.41.35a.614.614 0 0 0-.104.292c-.092.041-.18.088-.273.122a14.85 14.85 0 0 0-2.75-.334 43.589 43.589 0 0 0-2.17-.009 732.85 732.85 0 0 0-2.967-.003c-2.119-.076-4.396-.288-6.444.172-.019-.111-.024-.221-.062-.332-.25-.748-1.117-.698-1.421-.123a3.079 3.079 0 0 0-.473-.297c-.333-.17-.754-.012-.915.318-.503 1.036-1.288 1.797-2.06 2.61a4.846 4.846 0 0 0-.538.504 6.963 6.963 0 0 1-2.111.827.617.617 0 0 0-.41-.102c-.139.015-.408.087-.734.175a4.793 4.793 0 0 0-1.783.009c-.359-.045-.72-.108-1.083-.188a.459.459 0 0 0-.154-.031c-.009-.002-.018-.002-.028-.005-.292-.07-.531.078-.672.298-.083.051-.177.088-.256.144-.025-.007-.05-.01-.077-.014-1.043-.45-2.197-.605-3.307-.812-.387-.072-.751.104-.901.468-.029.022-.064.038-.089.065-1.227-.213-2.482.127-3.746.049l-.291-.025c-.82-.097-1.605-.366-2.437-.415-.812-.048-1.544-.056-2.325-.293-.475-.145-.875.17-.884.579-1.313-.738-2.419-1.761-3.179-3.182-.387-.722-1.417.004-1.044.718 3.072 5.877 10.518 5.711 16.26 6.006 3.405.175 6.828-.023 10.014-1.31 1.279-.517 2.983-1.632 3.969-3.001 2.12.198 4.308.074 6.417.084 3.037.015 6.197.307 9.201-.215.229-.041.266-.354.047-.425.648-.435.957-1.264 1.246-1.984.148-.356-.184-.638-.47-.602zm3.129 11.857c-.166-1.475-1.008-2.667-2.303-3.425-.168-.097-.465-.036-.459.207.002.195.047.374.105.545a.809.809 0 0 0-.254.821c.037.159.088.329.146.505.094.454.078.916.002 1.371a.713.713 0 0 0-.328.005c-.689.184-1.111.76-1.57 1.27a.696.696 0 0 0-.275.131 5.246 5.246 0 0 0-.662.695c-.031.037-.041.077-.064.114-.287-.079-.563-.137-.801-.122a.836.836 0 0 0-.5.215c-.309-.05-.617-.078-.918-.05-.23.021-.451.318-.227.515.998.875 2.23 1.428 3.412 1.371.357.052.654.086.732.087 1.107.01 1.994-.249 2.758-1.069.09-.096.148-.202.217-.305.831-.596 1.101-1.906.989-2.881zM96 64.065c-.074-.257-.289-.549-.578-.592l-.213-.032c-.248-.036-.506.106-.645.305a.882.882 0 0 0-.184.51c-.008.654.176 1.064.258 1.559-.412.415-.707 1.012-1.105 1.423-.67.691-1.787 1.346-2.766.968-.369-.143-.639.064-.752.352-.988-.376-1.947-.972-2.561-1.547-.137-.128-.332-.013-.369.142-.494 2.063 3.574 3.216 4.99 3.254 3.392.09 4.74-3.544 3.925-6.342zm.264 12.87c-.25-.065-.547.203-.438.463.297.705.793 1.212 1.215 1.846.051.076.086.167.133.245-.027.022-.055.037-.078.071-.516.836-.041 1.933.016 2.857.092 1.503.031 3.026.063 4.534-.148.159-.293.319-.463.463-1.365 1.162-3.535 1.659-5.145.811-.516-.271-.725-.251-1.275-.24-.326.007-.707.424-.385.725 2.924 2.738 7.508 1.314 9.486-1.958 1.686-2.795.307-8.923-3.129-9.817zM79.899 96.477c.209.188.137.57-.223.607-3.701.382-7.76.457-11.559.198.186 2.883.051 5.815.051 8.698-.014 1.807.063 3.638.012 5.457l-2.598 1.497-.335.186c-.47-2.264-.022-4.64.05-6.941 0-.198.086-.322.211-.408a29.84 29.84 0 0 1-.074-2.82.552.552 0 0 1-.322-.436c-.223-1.669-.371-3.302-.211-4.96.014-.236.05-.482.088-.718.037-.261.086-.508.137-.769a.178.178 0 0 1 .062-.085c-.075-.298.022-.618.396-.669h.023c2.143-.26 4.27-.298 6.41-.309 1.35-.014 2.834-.186 4.17.086a.564.564 0 0 1 .336-.135c.172 0 .742.049 1.236.159-.68-3.477-.186-7.462-.186-10.976.012-3.86-.211-7.92.408-11.743.074-.495.631-.433.84-.099.211 0 .422.149.445.446.447 4.727.434 9.454.547 14.192.023 1.176.146 2.475.186 3.788.037.765.023 1.547.037 2.3.011 1.128.158 2.354-.137 3.454zm-24.503.902c-.11.01-.22.03-.33.04-4.3.59-8.99.49-13.42.3.35 3.3.24 6.7.24 10.011 0 .68.01 1.35.03 2.029l-.23-.13-.58-.34-.11-.06-.34-.2-.03-.021-.41-.229-.11-.061-.16-.09c-.14-1.64-.23-3.27-.15-4.93.01-.21.13-.32.3-.33-.02-.05-.02-.101-.02-.15-.27-1.79-.71-3.79-.29-5.58-.12-.01-.24-.01-.35-.02a.33.33 0 0 1-.14 0c-.05 0-.11-.03-.16-.05a.312.312 0 0 1-.16-.08c-.2-.101-.26-.271-.22-.45-.04-.2.02-.39.22-.49.08-.03.16-.06.27-.069.03-.011.05-.021.08-.011.02-.01.05-.01.08-.01.23-.02.47-.02.71-.03-.19-.35-.16-.83-.05-1.21.01-.06.03-.109.05-.16a.229.229 0 0 1 .1-.14c.1-.05.22-.03.3.061.18-.101.4-.131.65-.021.24.06.48.06.73.03a.89.89 0 0 1 .18-.021h.06c.13 0 .26.04.37.09v-.02c.2.1.45.16.73.18.18.011.38.011.58 0 .1 0 .2-.01.3-.02.16-.29.48-.53.88-.48.58.07 1.16.16 1.74.24.11.021.2.06.28.1.23.011.46 0 .69-.02.11-.11.27-.18.49-.17.27.01.54.02.82.05.15 0 .27.061.39.15h.02c.08-.04.19-.061.33-.061.69.01 1.39-.02 2.07-.069.56-.08 1.13-.181 1.7-.24h.06c.07-.021.13-.021.19-.03.29-.02.48.14.58.35.08.021.15.051.23.07.02 0 .02.03.02.04.07.01.14.021.2.05.07-.01.13 0 .2.021.01-.03.03-.061.06-.07.04-.04.09-.06.14-.06.15-.011.31.13.3.319-.02.61-.03.591-.27 1.19-.01.05-.06.06-.09.1.08 0 .15.011.23.021.38.051.42.621.02.681zm-25.217 1.169c.055-.503-.116-.995-.373-1.445a.447.447 0 0 0 .164-.598 1.675 1.675 0 0 0-.192-.292.66.66 0 0 0 .173-.298c.021-.089.026-.171.036-.254.005-.031.031-.052.03-.088a49.212 49.212 0 0 1-.003-.096c-.008-.311-.227-.494-.466-.549-.448-.214-1.07-.133-1.502.008a.454.454 0 0 0-.152.09c-.953-.159-1.926-.094-2.909-.086-1.385.005-3.036-.096-4.342.394-.129.047-.165.257-.018.313 1.316.491 2.903.394 4.297.399.546.004 1.089.009 1.629.002.799.433 1.624.924 2.184 1.607.16.332.282.673.434 1.046.032.081.097.137.159.193.019.094.052.178.062.277.049.502.881.476.884-.03a2.378 2.378 0 0 0-.095-.593z"/><circle fill="#EFA554" cx="39.736" cy="24.083" r="7.208"/><circle fill="#EFA554" cx="57.107" cy="24.083" r="7.208"/><circle fill="#EFA554" cx="74.263" cy="24.083" r="7.208"/><text transform="matrix(.8686 0 0 1 14.92 40.407)"><tspan x="0" y="0" fill="#FFF" font-family="'MyriadPro-Regular'" font-size="3.138">#include &lt;iostream&gt; // std::cin, std::cout</tspan><tspan x="0" y="7.532" fill="#FFF" font-family="'MyriadPro-Regular'" font-size="3.138">int main () {</tspan><tspan x="0" y="15.063" fill="#FFF" font-family="'MyriadPro-Regular'" font-size="3.138">char name[256], title[256];</tspan><tspan x="0" y="18.83" fill="#FFF" font-family="'MyriadPro-Regular'" font-size="3.138">std::cout &lt;&lt; &quot;Please, enter your name: &quot;;</tspan><tspan x="0" y="22.596" fill="#FFF" font-family="'MyriadPro-Regular'" font-size="3.138">std::cin.getline (name,256,&apos;$&apos;); //Line 3</tspan><tspan x="0" y="26.361" fill="#FFF" font-family="'MyriadPro-Regular'" font-size="3.138">std::cout &lt;&lt; &quot;Please, enter your favourite movie: &quot;;</tspan><tspan x="0" y="30.127" fill="#FFF" font-family="'MyriadPro-Regular'" font-size="3.138">std::cin.getline (title,256); // Line </tspan><tspan x="0" y="33.893" fill="#FFF" font-family="'MyriadPro-Regular'" font-size="3.138">std::cout &lt;&lt; name &lt;&lt; &quot;&apos;s favourite movie is &quot; </tspan><tspan x="0" y="37.659" fill="#FFF" font-family="'MyriadPro-Regular'" font-size="3.138">return 0;</tspan></text><path fill="#B7B7B7" d="M20.079 72.6h58.132v21.963H20.079z"/><path fill="#939393" d="M25.267 75.281h2.514v3.016h-2.514z"/><path fill="#666" d="M27.646 75.358h.251v2.919h-.251z"/><path fill="#939393" d="M27.916 75.281h2.513v3.016h-2.513z"/><path fill="#666" d="M30.294 75.358h.251v2.919h-.251z"/><path fill="#939393" d="M30.565 75.281h2.513v3.016h-2.513z"/><path fill="#666" d="M32.943 75.358h.251v2.919h-.251z"/><path fill="#939393" d="M33.214 75.281h2.513v3.016h-2.513z"/><path fill="#666" d="M35.591 75.358h.252v2.919h-.252z"/><path fill="#939393" d="M35.862 75.281h2.514v3.016h-2.514z"/><path fill="#666" d="M38.241 75.358h.251v2.919h-.251z"/><path fill="#939393" d="M38.511 75.281h2.513v3.016h-2.513z"/><path fill="#666" d="M40.889 75.358h.251v2.919h-.251z"/><path fill="#939393" d="M41.16 75.281h2.514v3.016H41.16z"/><path fill="#666" d="M43.538 75.358h.251v2.919h-.251z"/><path fill="#939393" d="M43.809 75.281h2.513v3.016h-2.513z"/><path fill="#666" d="M46.187 75.358h.251v2.919h-.251z"/><path fill="#939393" d="M46.458 75.281h2.514v3.016h-2.514z"/><path fill="#666" d="M48.835 75.358h.251v2.919h-.251z"/><path fill="#939393" d="M49.106 75.281h2.513v3.016h-2.513z"/><path fill="#666" d="M51.484 75.358h.252v2.919h-.252z"/><path fill="#939393" d="M51.755 75.281h2.514v3.016h-2.514z"/><path fill="#666" d="M54.133 75.358h.251v2.919h-.251z"/><path fill="#939393" d="M54.404 75.281h2.513v3.016h-2.513z"/><path fill="#666" d="M56.782 75.358h.251v2.919h-.251z"/><path fill="#939393" d="M57.052 75.281h2.514v3.016h-2.514z"/><path fill="#666" d="M59.43 75.358h.252v2.919h-.252z"/><path fill="#939393" d="M59.701 75.281h2.514v3.016h-2.514z"/><path fill="#666" d="M62.079 75.358h.251v2.919h-.251z"/><path fill="#939393" d="M62.35 75.281h2.513v3.016H62.35z"/><path fill="#666" d="M64.728 75.358h.251v2.919h-.251z"/><path fill="#939393" d="M65 75.281h2.513v3.016H65z"/><path fill="#666" d="M67.377 75.358h.252v2.919h-.252z"/><path fill="#939393" d="M67.647 75.281h2.514v3.016h-2.514z"/><path fill="#666" d="M70.026 75.358h.252v2.919h-.252z"/><path fill="#939393" d="M70.295 75.281h2.516v3.016h-2.516z"/><path fill="#666" d="M72.674 75.358h.25v2.919h-.25z"/><path fill="#939393" d="M25.267 78.336h2.514v3.016h-2.514z"/><path fill="#666" d="M27.646 78.413h.251v2.919h-.251z"/><path fill="#939393" d="M27.916 78.336h2.513v3.016h-2.513z"/><path fill="#666" d="M30.294 78.413h.251v2.919h-.251z"/><path fill="#939393" d="M30.565 78.336h2.513v3.016h-2.513z"/><path fill="#666" d="M32.943 78.413h.251v2.919h-.251z"/><path fill="#939393" d="M33.214 78.336h2.513v3.016h-2.513z"/><path fill="#666" d="M35.591 78.413h.252v2.919h-.252z"/><path fill="#939393" d="M35.862 78.336h2.514v3.016h-2.514z"/><path fill="#666" d="M38.241 78.413h.251v2.919h-.251z"/><path fill="#939393" d="M38.511 78.336h2.513v3.016h-2.513z"/><path fill="#666" d="M40.889 78.413h.251v2.919h-.251z"/><path fill="#939393" d="M41.16 78.336h2.514v3.016H41.16z"/><path fill="#666" d="M43.538 78.413h.251v2.919h-.251z"/><path fill="#939393" d="M43.809 78.336h2.513v3.016h-2.513z"/><path fill="#666" d="M46.187 78.413h.251v2.919h-.251z"/><path fill="#939393" d="M46.458 78.336h2.514v3.016h-2.514z"/><path fill="#666" d="M48.835 78.413h.251v2.919h-.251z"/><path fill="#939393" d="M49.106 78.336h2.513v3.016h-2.513z"/><path fill="#666" d="M51.484 78.413h.252v2.919h-.252z"/><path fill="#939393" d="M51.755 78.336h2.514v3.016h-2.514z"/><path fill="#666" d="M54.133 78.413h.251v2.919h-.251z"/><path fill="#939393" d="M54.404 78.336h2.513v3.016h-2.513z"/><path fill="#666" d="M56.782 78.413h.251v2.919h-.251z"/><path fill="#939393" d="M57.052 78.336h2.514v3.016h-2.514z"/><path fill="#666" d="M59.43 78.413h.252v2.919h-.252z"/><path fill="#939393" d="M59.701 78.336h2.514v3.016h-2.514z"/><path fill="#666" d="M62.079 78.413h.251v2.919h-.251z"/><path fill="#939393" d="M62.35 78.336h2.513v3.016H62.35z"/><path fill="#666" d="M64.728 78.413h.251v2.919h-.251z"/><path fill="#939393" d="M65 78.336h2.513v3.016H65z"/><path fill="#666" d="M67.377 78.413h.252v2.919h-.252z"/><path fill="#939393" d="M67.647 78.336h2.514v3.016h-2.514z"/><path fill="#666" d="M70.026 78.413h.252v2.919h-.252z"/><path fill="#939393" d="M70.295 78.336h2.516v3.016h-2.516z"/><path fill="#666" d="M72.674 78.413h.25v2.919h-.25z"/><g><path fill="#939393" d="M25.267 81.391h2.514v3.016h-2.514z"/><path fill="#666" d="M27.646 81.468h.251v2.919h-.251z"/><path fill="#939393" d="M27.916 81.391h2.513v3.016h-2.513z"/><path fill="#666" d="M30.294 81.468h.251v2.919h-.251z"/><path fill="#939393" d="M30.565 81.391h2.513v3.016h-2.513z"/><path fill="#666" d="M32.943 81.468h.251v2.919h-.251z"/><path fill="#939393" d="M33.214 81.391h2.513v3.016h-2.513z"/><path fill="#666" d="M35.591 81.468h.252v2.919h-.252z"/><path fill="#939393" d="M35.862 81.391h2.514v3.016h-2.514z"/><path fill="#666" d="M38.241 81.468h.251v2.919h-.251z"/><path fill="#939393" d="M38.511 81.391h2.513v3.016h-2.513z"/><path fill="#666" d="M40.889 81.468h.251v2.919h-.251z"/><path fill="#939393" d="M41.16 81.391h2.514v3.016H41.16z"/><path fill="#666" d="M43.538 81.468h.251v2.919h-.251z"/><path fill="#939393" d="M43.809 81.391h2.513v3.016h-2.513z"/><path fill="#666" d="M46.187 81.468h.251v2.919h-.251z"/><path fill="#939393" d="M46.458 81.391h2.514v3.016h-2.514z"/><path fill="#666" d="M48.835 81.468h.251v2.919h-.251z"/><path fill="#939393" d="M49.106 81.391h2.513v3.016h-2.513z"/><path fill="#666" d="M51.484 81.468h.252v2.919h-.252z"/><path fill="#939393" d="M51.755 81.391h2.514v3.016h-2.514z"/><path fill="#666" d="M54.133 81.468h.251v2.919h-.251z"/><path fill="#939393" d="M54.404 81.391h2.513v3.016h-2.513z"/><path fill="#666" d="M56.782 81.468h.251v2.919h-.251z"/><path fill="#939393" d="M57.052 81.391h2.514v3.016h-2.514z"/><path fill="#666" d="M59.43 81.468h.252v2.919h-.252z"/><path fill="#939393" d="M59.701 81.391h2.514v3.016h-2.514z"/><path fill="#666" d="M62.079 81.468h.251v2.919h-.251z"/><path fill="#939393" d="M62.35 81.391h2.513v3.016H62.35z"/><path fill="#666" d="M64.728 81.468h.251v2.919h-.251z"/><path fill="#939393" d="M65 81.391h2.513v3.016H65z"/><path fill="#666" d="M67.377 81.468h.252v2.919h-.252z"/><path fill="#939393" d="M67.647 81.391h2.514v3.016h-2.514z"/><path fill="#666" d="M70.026 81.468h.252v2.919h-.252z"/><path fill="#939393" d="M70.295 81.391h2.516v3.016h-2.516z"/><path fill="#666" d="M72.674 81.468h.25v2.919h-.25z"/></g><g><path fill="#939393" d="M25.267 84.445h2.514v3.016h-2.514z"/><path fill="#666" d="M27.646 84.522h.251v2.919h-.251z"/><path fill="#939393" d="M27.916 84.445h2.513v3.016h-2.513z"/><path fill="#666" d="M30.294 84.522h.251v2.919h-.251z"/><path fill="#939393" d="M30.565 84.445h2.513v3.016h-2.513z"/><path fill="#666" d="M32.943 84.522h.251v2.919h-.251z"/><path fill="#939393" d="M33.214 84.445h2.513v3.016h-2.513z"/><path fill="#666" d="M35.591 84.522h.252v2.919h-.252z"/><path fill="#939393" d="M35.862 84.445h2.514v3.016h-2.514z"/><path fill="#666" d="M38.241 84.522h.251v2.919h-.251z"/><path fill="#939393" d="M38.511 84.445h2.513v3.016h-2.513z"/><path fill="#666" d="M40.889 84.522h.251v2.919h-.251z"/><path fill="#939393" d="M41.16 84.445h2.514v3.016H41.16z"/><path fill="#666" d="M43.538 84.522h.251v2.919h-.251z"/><path fill="#939393" d="M43.809 84.445h2.513v3.016h-2.513z"/><path fill="#666" d="M46.187 84.522h.251v2.919h-.251z"/><path fill="#939393" d="M46.458 84.445h2.514v3.016h-2.514z"/><path fill="#666" d="M48.835 84.522h.251v2.919h-.251z"/><path fill="#939393" d="M49.106 84.445h2.513v3.016h-2.513z"/><path fill="#666" d="M51.484 84.522h.252v2.919h-.252z"/><path fill="#939393" d="M51.755 84.445h2.514v3.016h-2.514z"/><path fill="#666" d="M54.133 84.522h.251v2.919h-.251z"/><path fill="#939393" d="M54.404 84.445h2.513v3.016h-2.513z"/><path fill="#666" d="M56.782 84.522h.251v2.919h-.251z"/><path fill="#939393" d="M57.052 84.445h2.514v3.016h-2.514z"/><path fill="#666" d="M59.43 84.522h.252v2.919h-.252z"/><path fill="#939393" d="M59.701 84.445h2.514v3.016h-2.514z"/><path fill="#666" d="M62.079 84.522h.251v2.919h-.251z"/><path fill="#939393" d="M62.35 84.445h2.513v3.016H62.35z"/><path fill="#666" d="M64.728 84.522h.251v2.919h-.251z"/><path fill="#939393" d="M65 84.445h2.513v3.016H65z"/><path fill="#666" d="M67.377 84.522h.252v2.919h-.252z"/><path fill="#939393" d="M67.647 84.445h2.514v3.016h-2.514z"/><path fill="#666" d="M70.026 84.522h.252v2.919h-.252z"/><path fill="#939393" d="M70.295 84.445h2.516v3.016h-2.516z"/><path fill="#666" d="M72.674 84.522h.25v2.919h-.25z"/></g><g><path fill="#939393" d="M25.267 87.5h2.514v3.016h-2.514z"/><path fill="#666" d="M27.646 87.578h.251v2.919h-.251z"/><path fill="#939393" d="M27.916 87.5h2.513v3.016h-2.513z"/><path fill="#666" d="M30.294 87.578h.251v2.919h-.251z"/><path fill="#939393" d="M30.565 87.5h2.513v3.016h-2.513z"/><path fill="#666" d="M32.943 87.578h.251v2.919h-.251z"/><path fill="#939393" d="M33.214 87.5h2.513v3.016h-2.513z"/><path fill="#666" d="M35.591 87.578h.252v2.919h-.252z"/><path fill="#939393" d="M35.862 87.5h2.514v3.016h-2.514z"/><path fill="#666" d="M38.241 87.578h.251v2.919h-.251z"/><path fill="#939393" d="M38.511 87.5h2.513v3.016h-2.513z"/><path fill="#666" d="M41.104 90.497h.036v-2.919h-.251v2.88c-.479-.008-.806.17-1.236.376-.207.1-.316.378-.312.594l.001.035a.66.66 0 0 0 .079.306c-.148.197-.275.411-.325.673-.053.275.053.637.375.701.52.099.452.384.504.827.058.496.783.506.863.017.114-.7.021-1.253-.429-1.612.284-.298.72-.483.995-.78.36-.385.14-.949-.3-1.098z"/><path fill="#939393" d="M41.16 87.5h2.514v3.016H41.16z"/><path fill="#666" d="M43.538 87.578h.251v2.919h-.251z"/><path fill="#939393" d="M43.809 87.5h2.513v3.016h-2.513z"/><path fill="#666" d="M46.187 87.578h.251v2.919h-.251z"/><path fill="#939393" d="M46.458 87.5h2.514v3.016h-2.514z"/><path fill="#666" d="M48.835 87.578h.251v2.919h-.251z"/><path fill="#939393" d="M49.106 87.5h2.513v3.016h-2.513z"/><path fill="#666" d="M51.484 87.578h.252v2.919h-.252z"/><path fill="#939393" d="M51.755 87.5h2.514v3.016h-2.514z"/><path fill="#666" d="M54.133 87.578h.251v2.919h-.251z"/><path fill="#939393" d="M54.404 87.5h2.513v3.016h-2.513z"/><path fill="#666" d="M56.782 87.578h.251v2.919h-.251z"/><path fill="#939393" d="M57.052 87.5h2.514v3.016h-2.514z"/><path fill="#666" d="M59.43 87.578h.252v2.919h-.252z"/><path fill="#939393" d="M59.701 87.5h2.514v3.016h-2.514z"/><path fill="#666" d="M62.079 87.578h.251v2.919h-.251z"/><path fill="#939393" d="M62.35 87.5h2.513v3.016H62.35z"/><path fill="#666" d="M64.728 87.578h.251v2.919h-.251z"/><path fill="#939393" d="M65 87.5h2.513v3.016H65z"/><path fill="#666" d="M67.377 87.578h.252v2.919h-.252z"/><path fill="#939393" d="M67.647 87.5h2.514v3.016h-2.514z"/><path fill="#666" d="M70.026 87.578h.252v2.919h-.252z"/><path fill="#939393" d="M70.295 87.5h2.516v3.016h-2.516z"/><path fill="#666" d="M72.674 87.578h.25v2.919h-.25z"/></g><path fill="#B7B7B7" d="M97.065 81.264c.012-.295-.156-.496-.381-.609a5.278 5.278 0 0 0-.582-2.318c.016-.032.033-.063.051-.094.188-.342.033-.717-.273-.916-.244-.158-.482-.155-.723-.1-.258-.252-.486-.545-.793-.768-.41-.3-1.029-.237-1.506-.232a.62.62 0 0 0-.412.15c-.867-.087-2.031.87-2.467 1.437-.07.093-.154.217-.23.333-.246.239-.43.589-.541.913-.721 1.377-1.318 3.242-.51 4.212a.604.604 0 0 0 .195.158c.059.492.148.969.271 1.439-.023 1.153.355 2.291 1.008 3.236.322.464.922.259 1.146-.15.121.074.242.146.361.221.166.1.357.103.539.063a.69.69 0 0 0 .723-.198.656.656 0 0 0 .516-.001c.422.501 1.182.324 1.299-.325.146-.123.268-.253.373-.391a.795.795 0 0 0 .848-.609c0-.005 0-.01.002-.015a.676.676 0 0 0 .43-.325c.682-1.094.588-2.692.609-4.056.022-.348.035-.7.047-1.055z"/><path fill="#666" d="M96.692 82.043c.016-.253.01-.496-.107-.725-.029-.057-.074-.088-.115-.126-.002-.02-.002-.043-.006-.063a.55.55 0 0 0-.137-.306c.045-.018.096-.03.121-.07.094-.154.115-.35.113-.553.236-.079.217-.432-.023-.495-.01-.002-.021-.002-.031-.005a7.641 7.641 0 0 0-.127-.527c-.1-.372-.205-1.097-.639-1.221-.053-.015-.115.01-.152.055-.139-.27-.305-.511-.535-.662-.055-.036-.135.001-.125.071.059.461.199.888.195 1.364-.004.262-.008.518-.004.773-.691-.006-1.395.048-2.068.055-1.354.011-2.732-.045-4.074.162-.145.022-.172.122-.143.215 0 .056.029.105.094.136.033.025.07.034.107.032 1.307.199 2.656.145 3.977.156.717.006 1.467.067 2.201.052.018.073.025.146.049.22a.418.418 0 0 0 .162.218.654.654 0 0 0-.254.62c.205 1.473-.252 3.421-1.076 4.664-.861 1.298-3.574 1.478-4.4.027-.068-.121-.229-.021-.227.089.02 1.889 3.189 2.225 4.492 1.66a.439.439 0 0 0 .254.067c.912-.051 1.57-1.225 1.898-1.955.441-.984.627-2.182.385-3.247.008-.102.004-.194.008-.293a.543.543 0 0 0 .187-.388z"/><path fill="#666" d="M92.645 85.205c-.584.047-1.031.535-1.66.305-.738-.27-.398-1.224-.672-1.784-.027-.054-.094-.06-.125-.006-.5.854-.508 2.112.424 2.672.672.403 2.053.346 2.494-.405.215-.367-.004-.82-.461-.782zm-14.941 7.956c-2.166-.157-4.357-.079-6.529-.077-1.063 0-2.303-.123-3.494-.108-.135-.06-.27-.118-.395-.2a1.656 1.656 0 0 1-.551-.624c.064-.104.125-.205.189-.313.205-.352.199-.699.047-.945.436-2.051.338-4.263.227-6.292a.324.324 0 0 0-.146-.263.264.264 0 0 0-.004-.261c-.109-.205-.203-.397-.346-.581-.35-.445-1.037.082-.695.533.15.199.299.312.508.441-.025.036-.063.061-.074.107-.355 1.397-.279 2.813-.547 4.224-.26 1.382-.647 2.755-.859 4.14-.008.051.002.092.004.137a.587.587 0 0 0 .061.776c.018.16.027.323.083.477.122.339.647.255.741-.055.018-.062.027-.125.043-.188.83.104 1.691.098 2.555.073.275.077.545.126.787.105.088-.008.152-.061.203-.128.723-.022 1.443-.039 2.143.008 1.863.123 3.883.504 5.736.172.092-.017.156-.131.086-.21a1.662 1.662 0 0 0-.43-.331c.23-.014.463-.018.693-.034.339-.026.286-.56-.036-.583zm-21.772.285c-.075-1.011-1.045-1.983-1.339-2.892-.033-.101-.18-.168-.259-.07-.293.358-.005.776.079 1.17.074.349.354.742.483 1.077.08.207.11.403.129.599-2.886 0-5.771-.038-8.656-.066-1.46-.015-3.434-.28-5.084-.039a11.092 11.092 0 0 0-.053-.214c-.173-.7.188-1.13.75-1.529l.033-.019a.502.502 0 0 0 .29-.086c1.219-.864 1.715-2.247 1.917-3.685.222-1.588.194-4.19-1.141-5.306-.248-.207-.567.068-.536.339.057.493.115.975.169 1.453a.65.65 0 0 0-.127.208c-.578 1.516-1 3.152-1.774 4.568-.409.478-.799.977-1.081 1.554-.325.664.623 1.416 1.098.774.036-.049.064-.094.099-.141h.001l.002-.004c.133-.183.263-.365.38-.545-.033.08-.079.15-.096.245-.01.056.016.1.027.149-.085.07-.166.146-.235.237-.02.024-.017.047-.021.073a4.014 4.014 0 0 0-.354.375c-.334.424-.375 1.144-.28 1.771-.177.056-.355.112-.517.189-.098.045-.109.21-.006.259.22.104.457.189.704.259.008.019.012.047.02.063.123.277.465.263.645.071 1.65.259 3.634-.014 5.105-.021 2.924-.018 5.847-.064 8.771-.064l.004.077c.029.285.449.399.607.152.052-.083.07-.163.106-.246.367-.045.39-.513.14-.735zm-25.495-1.239c-.184-.526-.539-1.129-.946-1.515-.063-.059-.154-.101-.242-.075a.144.144 0 0 0-.07.028.605.605 0 0 0-.042.033c-.011.009-.009.023-.017.035l-.146-.112c-.24-.183-.511.205-.313.409.105.107.178.222.24.339.025.12.071.236.134.353.088.353.077.73.086 1.111-.067.11-.13.216-.151.292-.035.124-.05.24-.063.358-1.35-.177-2.728-.12-4.088-.126-1.197-.007-2.433-.108-3.604.148-.071-.015-.135-.039-.217-.051-.235-.03-.353.167-.353.362-.191.159-.112.538.209.557.195.011.368-.09.543-.155a.292.292 0 0 1 .15.013c.047.019.086-.015.108-.058l.008-.002c.101.011.185-.055.229-.137.951.103 1.932.029 2.887.024 1.371-.008 2.759.05 4.121-.126.002.024-.001.047.001.073.043.44.57.453.787.178.3.043.658-.212.488-.544-.084-.314-.048-.628.008-.938.186-.06.335-.24.253-.474z"/><g><path fill="#59473D" d="M40.602 82.048l-.127.471a.579.579 0 0 0-.004.268c-.117.828-.182 1.74-.423 2.428l-.039.099a.717.717 0 0 0-.276.018c-.313.087-.563.417-.766.687-.019.011-.028.035-.046.047-.036-.042-.072-.081-.106-.123l-.509-.655a10.148 10.148 0 0 0-.547-1.8c-.108-1.055-.288-2.147-.585-3.089a.6.6 0 0 0-.071-.141c.043-.755.085-1.509.138-2.264.072-.987-1.453-1.043-1.53-.061l-.049.657a.645.645 0 0 0-.327.528c-.005.067-.001.135-.005.202h-.003c.002.015.001.029.002.044-.023.549.014 1.098.074 1.646.003.421.008.843.037 1.267-.009.177-.013.352-.022.527-.099-.663-.35-1.298-.785-1.822-.371-.446-1.032-.217-1.304.187-.101.15-.186.312-.258.481-.132-.332-.449-.572-.885-.414-.491.178-.896.675-1.402.743-.059.008-.119.026-.18.044-.057-.048-.105-.11-.166-.15a.657.657 0 0 0-.669-.015c-.762.479-1.233 2.516-.669 3.524a8.156 8.156 0 0 0 1.02 3.166c.123 1.069.504 2.092 1.015 3.047-.212.324-.172.825.244 1.004.206.088.402.118.59.09.188.085.391.045.566-.06.554.186 1.18.236 1.722.287 1.084.097 2.166.069 3.244-.049a.762.762 0 0 0 .789-.112c.534-.224.674-.895.239-1.295.982-.629 1.336-1.667 1.589-2.792.413-.799.808-1.606 1.163-2.435.534-1.247.615-2.567.798-3.886.118-.853-1.251-1.13-1.477-.299zm25.504 2.359c.023-.383-.246-.648-.559-.751-.01-.022-.01-.045-.02-.068-.176-.474-.853-.653-1.207-.263a.762.762 0 0 0-.585.073c-.073-.151-.139-.305-.23-.454a.57.57 0 0 0-.487-.272c.004-.868-.092-1.731-.442-2.614-.124-.314-.39-.448-.666-.456.004-.522-.182-1.066-.444-1.497-.326-.536-1.094-.33-1.292.186-.191.055-.371.162-.47.365-.082-.123-.141-.248-.24-.368-.439-.54-1.246-.245-1.247.446-.004 1.614-.109 3.1-.513 4.657-.246.949-.432 1.931-.19 2.883-.19.37-.359.746-.492 1.133a.654.654 0 0 0-.489-.122 21.832 21.832 0 0 0-.396-.798.824.824 0 0 0-.787-.467.627.627 0 0 0-.324-.301 11.067 11.067 0 0 0-.082-1.194 6.716 6.716 0 0 0-.045-1.08.68.68 0 0 0-.167-.365c-.176-.904-1.522-.799-1.465.152.005.08.013.159.019.239l-.002.005c-.05.644-.002 1.258.076 1.874a9.962 9.962 0 0 0 2.146 5.603c.149.188.353.28.561.311l.069.2a.807.807 0 0 0-.027.62c.217.548.441 1.062.729 1.575.234.418.743.459 1.092.234.029.047.05.092.084.139.283.384.813.367 1.144.103.313.092.651 0 .81-.412.023-.062.039-.128.061-.191 1.225.255 2.207.315 3.537.265.244-.01.525-.154.624-.391.438-1.066.785-2.076 1.016-3.127a.595.595 0 0 0 .219-.372c.184-1.091.215-2.204.316-3.305.189-.728.316-1.426.365-2.195z"/><path fill="#6C7C40" d="M39.077 107.419c.1.11.15.26.15.43-.01.11-.01.23-.01.351l-.24-.13-3.07-1.78-.39-.23-.49-.279-.33-.19-1.85-1.07-.57-.329-.2-.11-1.14-.67-.37-.21-.1-.061-.17-.09c.03-.28.07-.56.12-.85-.03-.42-.05-.851-.04-1.271 0-.17.01-.34.03-.52.05-1.75.23-3.5.29-5.26a.228.228 0 0 1-.03-.051.735.735 0 0 1-.18-.489v-.091c.02-.14.04-.279.06-.43 0-.03 0-.06.01-.1v-.01c0-.061.02-.101.04-.15.04-.17.13-.32.26-.42 0-.03.04-.05.08-.061a.76.76 0 0 1 .77-.029c.02 0 .05.01.07.029h.01c.02.011.03.021.05.03.03-.02.04-.05.06-.07.51-.52 1.35-.319 2.07-.109.21.05.41.109.58.149.08 0 .16 0 .24.011.52 0 1.02.01 1.54.04a.7.7 0 0 1 .61-.28c.63.04 1.05.09 1.67.189.16.021.27.091.37.19.15.14.21.37.2.59 0 .09-.01.16-.04.25.01.061.03.141.05.22.02.19.05.421.08.69.03.36.05.77.06 1.22.01.37 0 .75-.03 1.15v.02c0 .03.02.051.02.08.05.08.09.181.12.28.4 1.91.01 4.07-.33 6.14-.04.65-.08 1.311-.1 1.96.03.441.059.881.07 1.321zm25.809 5.63c-.01.13-.05.24-.1.34l-.22.13-.22.12-4.78 2.761-.01.01-.53.31-1.75 1-.8.471-.18.1v-.21l-.15-.08c-.06-.76-.01-1.52.08-2.29a.36.36 0 0 1-.07-.19c-.03-.25-.07-.479-.08-.729-.27-2.39-.31-4.84-.24-7.23.01-.39.03-.77.06-1.159v-.061c.01-.149.01-.3.02-.43 0-.55.01-1.08.05-1.601v-.01c.03-2.52.29-5 .09-7.52-.05-.03-.09-.07-.13-.11a.738.738 0 0 1-.14-.51c.02-.42.05-.66.09-.92l.08-.59c0-.03 0-.061.02-.091.01-.14.07-.27.15-.38.15-.229.4-.35.72-.279.02 0 .05 0 .07.02a.59.59 0 0 1 .14-.02c.1-.021.21 0 .3.04.16 0 .34 0 .53-.021.02 0 .03 0 .05-.01.22-.01.45-.04.69-.061.43-.06.89-.119 1.36-.18l.49-.06c.83-.08 1.64-.101 2.28.06.14.04.26.08.38.14.15.061.28.141.4.24.15.11.27.25.36.42.03.03.04.061.05.09.01.021.02.03.03.051.15.02.28.1.37.22.01.01.02.02.02.04.08.09.11.21.13.35.07.88.15 1.7.16 2.561 0 .55-.03 1.109-.1 1.68 0 .03-.01.04-.01.06-.04 1.591-.09 3.171-.13 4.75.04.5.06.98.13 1.48a.73.73 0 0 1-.15.57c.081 2.248.681 4.508.49 6.728z"/><path fill="#442F26" d="M41.472 81.866c-.058-.333-.59-.287-.591.051a13.078 13.078 0 0 1-.427 3.259c-.12-.068-.295-.036-.353.116-.5 1.3-1.002 2.614-1.814 3.761a4.5 4.5 0 0 1-1.365 1.271 8.842 8.842 0 0 0-1.233-.07c-1.495.019-3.385.087-4.723.773a.293.293 0 0 0-.155.321c-.384.356-.167 1.2.525 1.207 1.797.024 3.642.038 5.421-.223l-.011.041c-.144.73 1.074.862 1.194.128.263.068.609-.102.606-.407-.001-.101.015-.217.028-.33.504-.467.787-1.32 1.083-1.855.237-.426.696-1.14.751-1.735.11-.182.227-.361.313-.552a9.756 9.756 0 0 0 .751-5.756zm23.709 6.707c.833-2.018.997-4.403-.273-6.009-.163-.208-.551-.038-.527.219.197 2.156.073 4.204-.886 6.17-.918 1.876-4.513 3.759-6.491 2.649a.595.595 0 0 0-.461-.063c-.37-.394-.681-.879-1.126-1.164-.169-.108-.355.096-.305.261.149.491.561.966.969 1.374-.11.339-.034.763.363.979.107.059.23.09.347.134-.096.316.119.726.59.662.216-.03.421-.075.631-.124.789.263 1.43.446 2.276.357.795-.084 1.832-.05 2.591-.384.549.045 1.068-.092 1.479-.609.827-1.048 1.3-2.766 1.05-4.067a.653.653 0 0 0-.227-.385z"/><path fill="#B7B7B7" d="M82.202 50.087l-.018.001c-.006-.064.008-.123-.002-.187a.578.578 0 0 0-.266-.437c.033-.537-.322-1.141-1.021-1.162-7.068-.221-14.148-.195-21.225-.158.131-.104.252-.25.36-.437.291-.299.38-.777.043-1.138-.02-.021-.041-.036-.06-.057-.384-.592-1.248-1.024-1.801-1.275a.7.7 0 0 0-.72.068c-.328-.236-.648-.463-.959-.611a1.025 1.025 0 0 0-.48-.097c-.031-.055-.06-.117-.091-.169-.312-.509-.92-.379-1.267-.021-1.738-.419-3.86-.067-5.528.045-2.537.172-4.993.142-7.535.061-2.147-.068-6.054-.082-6.718 2.533-.131.516.274.897.711 1.041.187.061.386.077.584.094h-2.041l-8.545.001c-2.698.001-5.791-.327-8.409.511a1.123 1.123 0 0 0-.638-.009c-.68-.254-1.494.059-1.7.829-.03.113-.032.235-.044.355-.12.15-.217.333-.265.569-.178.895.288 1.988.702 2.758.243.452.741.815 1.249.882a1.07 1.07 0 0 0 .737-.17c.298.069.631-.106.789-.371.05-.005.081-.034.126-.046a.63.63 0 0 0 .344.072c4.387.738 9.23.216 13.663.228 1.488.003 2.976.004 4.464.008a.75.75 0 0 0-.042.142.436.436 0 0 0-.208.178.6.6 0 0 0-.144-.053c-.62-.305-1.246.473-.755 1.075.676.83 1.213 1.28 2.166 1.717.08.037.159.053.237.06 1.078.726 2.377 1.425 3.396.528 2.31.72 5.263.145 7.68.048 2.575-.104 5.184-.112 7.749-.367 1.835-.182 2.402-.862 3.887-1.842.688-.455.355-1.672-.537-1.426-.752.207-1.434.042-2.122-.031 7.356.006 14.713.01 22.069-.012.287.001.506-.104.684-.25a2.35 2.35 0 0 0 .664-.236c.426-.227.494-.662.316-1.006a3.47 3.47 0 0 0 .301-.588c.021-.037.051-.067.066-.112.181-.513.181-.998.154-1.536z"/><path fill="#939393" d="M60.047 54.71c-3.365-1.129-7.529-.572-11.037-.576-4.565-.006-9.489-.502-13.973.484-.351.077-.344.624.004.7 4.163.904 8.669.49 12.906.484 3.808-.004 8.452.645 12.09-.574.222-.075.238-.44.01-.518zm.321-7.805c-3.666-1.185-8.615-.333-12.458-.319-4.211.016-8.889-.51-13.013.401-.296.066-.296.532 0 .597 4.087.896 8.697.386 12.871.401 2.315.009 4.629.015 6.943.021 1.874.004 3.817.265 5.61-.326.356-.119.464-.641.047-.775zm22.037 2.798c-.096-.35-.301-.728-.602-.943-.332-.236-.736-.138-1.076-.348-.334-.206-.863.075-.9.458-.002.031 0 .063-.002.094a2.613 2.613 0 0 0-1.125-.975.315.315 0 0 0-.369.502c1.146 1.28.787 3.286-.766 4.051-.342.167-.855.175-.992.605-.15.467.055.681.354.76.133.205.373.327.695.211.436-.156.898-.29 1.309-.508.104.026.209.01.311-.047.111.107.238.197.365.257.596.286 1.27-.182 1.693-.561a.412.412 0 0 0 .145-.256c.111-.246.25-.475.377-.711.211-.041.412-.167.492-.372.263-.683.282-1.514.091-2.217zm-6.102 1.137c-4.277-.692-8.889-.259-13.215-.272-5.136-.015-10.271-.036-15.405-.036H33.29c-4.713 0-9.817-.563-14.455.333-.399.078-.343.607.026.68 4.249.841 8.912.33 13.232.33h15.591c4.79 0 9.581-.002 14.371-.032 4.637-.03 9.612.485 14.19-.268.386-.063.507-.662.058-.735z"/><path fill="#59473D" d="M40.798 81.484c-.15.208-.26.437-.355.671-.042.032-.085.062-.107.114-.46 1.133-.757 2.362-1.149 3.528-.293.871-.526 1.522-1.09 2.262-.358.47-.569.677-.571 1.254 0 .14.147.229.275.194.994-.271 1.837-1.749 2.101-2.703.023-.086.051-.169.076-.255.648-.405.751-1.26.928-1.971.227-.907.528-1.843.666-2.763.061-.419-.515-.692-.774-.331z"/><path fill="#442F26" d="M41.602 81.431c-.224-.383-.884-.174-.755.281.358 1.26-.52 3.303-.965 4.379-.842 2.037-2.22 3.27-3.542 4.943-.186.235.129.62.37.402 1.844-1.668 3.386-3.177 4.278-5.59.417-1.125 1.312-3.218.614-4.415zm-10.706.119c-.32-.234-.782-.077-1.125.07-.266.115-.206.479.063.538.288.063.572.019.861-.029.122-.02.225-.146.253-.26.01-.036.019-.073.027-.109.019-.072-.021-.167-.079-.21zm1.564-.418c-.507.183-.915.498-1.08 1.024-.063.203.188.449.369.27.246-.242.608-.395.946-.451.632-.104.373-1.063-.235-.843zm1.996-.923c-.469.232-.815.372-1.094.818-.11.177.096.373.271.283.347-.178.75-.21 1.097-.388.432-.222.169-.932-.274-.713zm28.669.116c-.139-.428-.755-.238-.737.175.036.783.204 1.533.337 2.303.092.52-.001 1.225.438 1.585.057.045.145.078.214.045 1.282-.593.026-3.253-.252-4.108zm-5.482 6.309a2 2 0 0 1-.043-.053c-.048-.058-.119-.094-.196-.066-.199.074-.232.248-.412.332-.127.06-.371.025-.51.018-.113-.006-.218.072-.321.095-.074.016-.094.115-.02.148.556.25 1.187.514 1.55-.185.045-.09.012-.216-.048-.289z"/><path fill="#92A54E" d="M64.897 97.559a.722.722 0 0 1-.24.221c-.1.06-.2.1-.31.1-.18 0-.36-.08-.51-.26-.8-1.021-2.87-.82-4.02-.601-.98.19-1.66.811-2.22 1.561.13 2.55-.12 5.21-.12 7.62-.01 3.84-.25 7.7-.2 11.52l-.8.471-.18.1v-.21l-.15-.08-.06-.04c.03-1.05.02-2.11-.01-3.17-.05-2.79-.18-5.6-.18-8.39v-.061c0-3.08-.39-6.55.03-9.67.09-.65.21-1.28.37-1.89 0-.011.02-.03.02-.05.02-.08.06-.141.11-.171.12-.109.29-.079.43 0 .04.03.08.061.11.091.06-.04.12-.07.2-.091.02-.01.05-.02.08-.02 1.7-.2 3.32-.28 4.97.02.31.051.62.12.93.21.07-.069.13-.149.22-.21.15-.1.35-.14.53-.09.01 0 .04.021.05.021.07-.021.14-.03.21-.03.06 0 .13.01.19.04.05.02.1.04.14.06.12.08.21.2.25.37h.02c.01.101.021.2.021.29.029.36.02.7 0 1.07-.011.08-.04.14-.061.2.061.06.12.109.17.18.05.061.08.11.101.17.129.259.058.519-.091.719zm-25.501-3c.03.19-.01.421-.12.681 0 0 0 .01-.01.01-.05.13-.16.21-.29.25-.27.1-.63-.01-.77-.26-.4-.78-2.28-.53-3.05-.42-.84.109-1.78.87-2.32 1.489-.27.32-.45.7-.66 1.051.12 2.239-.09 4.58-.1 6.72l-1.14-.67-.37-.21-.1-.061c0-.88-.04-1.81-.06-2.729-.05-1.78-.09-3.61.26-5.311.02-.159.05-.31.08-.449-.07-.021-.17-.021-.26-.04h-.02c-.04-.011-.08-.021-.11-.051a.369.369 0 0 1-.09-.05.607.607 0 0 1-.22-.439c-.01-.03-.01-.051-.01-.08 0-.141.05-.271.15-.34.06-.08.14-.12.24-.15.15-.04.29-.07.43-.09.03-.01.05-.01.08-.03.26-.02.51-.05.77-.06.07-.011.13-.011.19-.011.7-.04 1.39-.04 2.07-.109.1-.01.19-.03.28-.04.27-.05.45.04.54.2.07.069.1.17.12.27.14-.02.27-.06.42-.06.63-.051 1.51-.2 2.23-.051.56.051 1.08.16 1.42.41.08.04.14.09.2.16.131.13.2.28.22.47z"/><path fill="#E5E5E5" d="M76.192 73.372c-3.396-.757-7.145-.324-10.605-.328a1844.57 1844.57 0 0 0-14.501.027c-4.38.03-8.762.003-13.143.005-4.072.002-8.421-.395-12.525-.019a.53.53 0 0 0-.387-.097c-.332.042-.66.142-.984.264-.121.018-.245.026-.365.045-.038.006-.053.034-.084.048-.122-.161-.316-.275-.535-.237-.494.089-1.022.072-1.493.259-.54.214-.798.808-1.002 1.306-.086.211-.004.403.142.527-.027.412.051.825.277 1.126.033.044.063.062.094.087a3.23 3.23 0 0 0-.062.764c.008.205.284.191.335.018.447-1.511 1.744-2.634 3.243-3.011 3.995.478 8.254.079 12.252.08l14.378.005c4.773.002 9.548.033 14.324.027 3.465-.004 7.205.436 10.609-.32.276-.059.331-.509.032-.576zm15.433 3.358c-.59.217-.98.575-1.287 1.003-.043-.005-.09 0-.125.032-.486.438-1.027 1.253-.816 1.93a.794.794 0 0 0 .006.03v.003l.002.002c.008.02.016.039.031.054-.059.146-.105.29-.139.432-.127.531.672.701.82.184.313-1.084 1.088-1.904 1.889-2.652.08-.073.072-.178.023-.254.391-.297.106-.952-.404-.764z"/><path fill="#355946" d="M98.132 50.684c-.126-.032-.252-.071-.379-.11a.384.384 0 0 0-.337-.116c-.018.004-.034.001-.052.005-.064-.018-.129-.025-.194-.039a.537.537 0 0 0 .13-.082c.315-.041.557-.447.381-.762-.398-.714-.868-1.288-1.596-1.679a.493.493 0 0 0-.379-.036l-.324-.356a.506.506 0 0 0-.112-.405c-.985-1.144-2.072-2.141-3.25-3.083-.028-.022-.061-.033-.091-.049-.18-.17-.36-.34-.543-.507a.431.431 0 0 0-.08-.26c-.761-1.084-1.885-1.647-2.93-2.429-.004-.002-.007-.002-.011-.005-.021-.035-.028-.079-.048-.116a.457.457 0 0 0-.053-.325l-.292-.5a.46.46 0 0 0-.467-.237c-.153-.167-.355-.172-.524-.088a.427.427 0 0 0-.367.076l-.135-.01a1.848 1.848 0 0 0-.681-.428c-.282-.108-.533.103-.604.359-.023.016-.043.035-.064.054-.014.01-.024.025-.038.037-.013.014-.028.026-.04.041-.164.185-.217.497-.031.719.285.343.584.654.895.951.309.378.657.713 1.124.96a.505.505 0 0 0 .353.054l.05.067a.497.497 0 0 0 .121.218c.055.057.109.105.163.16.849 1.116 1.739 2.177 2.938 3.001.008.005.016.005.023.01.799 1.003 1.559 2.031 2.5 2.912.023.07.061.14.125.208.392.414.807.742 1.249 1.057.151.127.306.252.464.372-.007.033-.026.056-.026.093-.008.325.005.624.044.937l-.002.021h.004l.004.037c.011.165.015.329.025.494-.079.393-.165.783-.348 1.139-.172.334-.299.724-.117 1.083.082.162.203.274.334.377-.07.315-.146.629-.218.946-.122.548.616.883.914.385.175-.292.669-.535.887-.92.031-.056.055-.123.083-.183a.465.465 0 0 0 .456-.351c.046-.124.071-.252.096-.382a.899.899 0 0 0 .36-.325.456.456 0 0 0 .335-.334c.014-.063.037-.122.056-.182a.536.536 0 0 0 .319-.318c.224-.552.264-1.082.268-1.674a.505.505 0 0 0-.368-.482z"/><path fill="#1E1E1E" d="M94.973 55.288c-.248-.574-.496-1.115-.823-1.648.188-.672.228-1.343.309-2.057.03-.272-.173-.438-.402-.476.019-.029.029-.062.043-.094.245-.152.384-.504.129-.783a26.21 26.21 0 0 1-1-1.083.408.408 0 0 0-.251-.13c-.394-.535-.857-.926-1.355-1.304-.184-.167-.368-.335-.557-.497a.445.445 0 0 0-.128-.402 25.493 25.493 0 0 1-.813-.835.456.456 0 0 0-.146-.248c-.807-.709-1.552-1.477-2.375-2.167-.029-.024-.06-.034-.089-.051-.445-.587-.861-1.191-1.331-1.761l-.002-.003h-.001c-.027-.033-.05-.069-.077-.102-.182-.215-.408-.199-.579-.078-.183-.244-.364-.491-.551-.738-.293-.388-.907-.276-.932.252-.101 2.15-.678 4.145.659 6.011 1.059 1.479 2.65 3.228 4.131 4.295.216.156.472.066.622-.114.271.282.589.556.911.833.043.044.092.083.135.126-.184.176-.254.471-.02.702.416.41.875.793 1.213 1.274.165.234.428.257.638.169.201.224.415.443.649.682.042.042.086.065.13.09a.52.52 0 0 0 .292.116c.061.275.123.55.199.824.149.539.886.412.973-.039.298-.046.544-.429.399-.764z"/><path d="M85.333 44.656c.035-.546.128-.905.279-1.076.15-.168.343-.144.578.074.237.22.412.539.528.958.115.417.155.898.121 1.444-.032.544-.124.902-.275 1.074-.151.17-.345.146-.58-.074-.235-.219-.412-.538-.526-.956-.116-.418-.158-.9-.125-1.444zm1.19 1.103c.011-.179.014-.353.01-.526a3.615 3.615 0 0 0-.046-.485 1.965 1.965 0 0 0-.117-.41.907.907 0 0 0-.201-.299c-.084-.076-.155-.104-.215-.087-.062.018-.112.072-.15.16a1.295 1.295 0 0 0-.099.351 5.236 5.236 0 0 0-.053.489 6.165 6.165 0 0 0-.009.525c.004.174.019.334.045.486.026.149.064.287.118.409a.855.855 0 0 0 .201.298c.082.076.153.106.213.087.062-.019.111-.072.153-.159.04-.088.073-.206.097-.353.023-.145.041-.306.053-.486zm.643.598c.033-.545.124-.902.276-1.074.151-.171.344-.148.581.073.235.219.411.538.525.956.116.418.157.899.123 1.446-.033.544-.126.9-.275 1.071-.152.172-.346.147-.581-.073-.235-.218-.412-.538-.526-.955-.116-.417-.156-.899-.123-1.444zm1.187 1.104c.011-.177.015-.354.011-.525a3.552 3.552 0 0 0-.046-.485 1.883 1.883 0 0 0-.119-.411.826.826 0 0 0-.2-.297c-.083-.077-.153-.105-.215-.088-.061.018-.11.071-.152.159-.04.088-.071.204-.097.352a5.818 5.818 0 0 0-.061 1.014c.003.175.019.336.046.485.026.15.064.285.117.409a.82.82 0 0 0 .201.298c.081.079.152.107.214.089.061-.019.112-.072.153-.16.04-.087.072-.204.096-.353a4.36 4.36 0 0 0 .052-.487zm1.127.521c-.003.086-.028.141-.069.168-.044.027-.098.008-.165-.054a.593.593 0 0 1-.154-.243.67.67 0 0 1-.045-.276c.005-.084.028-.139.073-.165.043-.027.097-.008.162.054a.58.58 0 0 1 .154.241c.036.101.05.191.044.275zm-.113 1.876c-.004.084-.028.141-.071.167-.043.026-.099.008-.166-.055a.72.72 0 0 1-.197-.516c.005-.083.028-.141.072-.166.043-.027.097-.009.164.052a.619.619 0 0 1 .154.244c.034.097.05.189.044.274zm.427-1.058c.033-.544.126-.902.277-1.073.15-.17.343-.146.58.074.236.221.411.538.526.956.114.417.155.901.123 1.445-.033.544-.125.903-.276 1.073-.15.171-.346.147-.581-.072-.236-.22-.412-.538-.525-.956-.117-.42-.158-.901-.124-1.447zm1.188 1.105c.012-.177.016-.353.011-.527a3.047 3.047 0 0 0-.046-.484 1.906 1.906 0 0 0-.117-.41.847.847 0 0 0-.202-.298c-.082-.077-.153-.106-.212-.087-.061.018-.112.071-.152.159a1.3 1.3 0 0 0-.098.35 4.71 4.71 0 0 0-.052.489 6.674 6.674 0 0 0-.012.527c.006.172.021.333.047.485.027.15.065.287.118.41a.85.85 0 0 0 .199.298c.084.077.155.106.216.087.06-.017.11-.071.153-.158.04-.087.071-.206.095-.352a4.68 4.68 0 0 0 .052-.489zm.643.6c.034-.547.127-.905.276-1.075.151-.171.346-.148.58.073.237.219.413.537.527.956.116.418.156.9.124 1.447-.035.543-.126.901-.278 1.07-.149.172-.342.148-.579-.073-.236-.219-.411-.536-.527-.955-.116-.417-.156-.898-.123-1.443zm1.19 1.102a5.17 5.17 0 0 0 .007-.527 3.18 3.18 0 0 0-.043-.484 1.845 1.845 0 0 0-.119-.411.83.83 0 0 0-.2-.298c-.081-.077-.154-.105-.213-.086-.062.017-.113.07-.154.158a1.477 1.477 0 0 0-.096.353 5.804 5.804 0 0 0-.063 1.014c.004.173.02.336.045.484.028.151.066.286.118.41.053.122.12.224.201.298.082.076.154.106.214.087.063-.018.111-.071.152-.159.042-.088.073-.205.098-.351.025-.146.041-.309.053-.488z" fill="#3CFC06"/></g><g><path fill="#0C113D" d="M95.737 34.579h-77.93l.42-.24 1.31-.76h74.469l.851.49.59.34z"/><g fill="#0C113D"><path d="M55.161 95.221c.126-.41.254-.822.38-1.236H39.292c.168.193.279.449.272.785-.004.155-.032.304-.046.451h15.643z"/><path d="M19.744 72.021V95.22h10.371c.017-.074.032-.147.061-.225v-.071c0-.406.196-.727.474-.94h-9.685V73.259h56.281v20.726H63.845c.131.122.24.266.296.453.172.21.285.473.285.783h14.043v-23.2H19.744z"/></g><g fill="#0C113D"><path d="M39.675 90.17c.022.171.021.345-.021.5-.01.04-.025.079-.038.118h15.216a5.23 5.23 0 0 1-.026-.619H39.675z"/><path d="M24.694 74.818v15.971h5.616a3.693 3.693 0 0 1-.042-.619h-4.96V75.437h47.43V90.17h-7.607c.023.208-.008.418-.1.619h8.32V74.818H24.694z"/></g><path fill="#0C113D" d="M79.836 47.439h-63c-2.02 0-3.67 1.64-3.67 3.66s1.65 3.66 3.67 3.66h63c.23 0 .46-.02.68-.06 1.7-.32 2.98-1.81 2.98-3.6a3.66 3.66 0 0 0-3.66-3.66zm1.92 5.14c-.07.08-.14.16-.21.23a2.4 2.4 0 0 1-1.71.71h-63c-.71 0-1.35-.31-1.8-.79l-.01-.01a2.417 2.417 0 0 1-.18-3.01c.4-.56 1.02-.94 1.73-1.02h.01c.08-.01.17-.01.25-.01h63.05c1.15.02 2.11.87 2.32 1.97v.08c.04.13.05.24.05.37 0 .41-.1.8-.28 1.14-.069.12-.14.23-.22.34z"/><path d="M34.728 48.364c1.011-2.124 3.161-3.606 5.666-3.606h14.744c2.34 0 4.355 1.301 5.438 3.202.012-.002.022-.01.035-.013.496-.089.91-.048 1.393.071-1.17-2.641-3.795-4.498-6.865-4.498H40.394c-3.169 0-5.881 1.971-6.99 4.749.436.067.883.057 1.324.095zm25.706 6.051c-1.118 1.752-3.068 2.924-5.296 2.924H40.394c-2.556 0-4.75-1.537-5.733-3.73a5.054 5.054 0 0 1-1.343-.019c1.046 2.902 3.818 4.986 7.077 4.986h14.744c3.069 0 5.71-1.848 6.881-4.486-.528.114-1.053.233-1.586.325z" fill="#0C113D"/><path fill="none" stroke="#0C113D" stroke-miterlimit="10" d="M96.901 84.562a4.127 4.127 0 0 1-4.125 4.125 4.125 4.125 0 0 1-4.125-4.125v-4.537a4.125 4.125 0 0 1 4.125-4.125 4.126 4.126 0 0 1 4.125 4.125v4.537z"/><path fill="#0C113D" d="M89.268 80.988h6.807c.645 0 .645-1 0-1h-6.807c-.644 0-.644 1 0 1z"/><path fill="#0C113D" d="M92.327 76.467v3.609c0 .645 1 .645 1 0v-3.609c0-.645-1-.645-1 0z"/><path fill="none" stroke="#0C113D" stroke-miterlimit="10" d="M94.502 63.603a4.407 4.407 0 0 1-4.406 4.408 4.407 4.407 0 1 1 0-8.816 4.406 4.406 0 0 1 4.406 4.408z"/><path fill="#0C113D" d="M94.682 64.232h2.168c.645 0 .645-1 0-1h-2.168c-.644 0-.644 1 0 1z"/><path fill="none" stroke="#0C113D" stroke-miterlimit="10" d="M79.131 61.135a4.407 4.407 0 1 1-6.688 5.743 4.405 4.405 0 0 1 .473-6.216 4.407 4.407 0 0 1 6.215.473z"/><path fill="#0C113D" d="M79.708 61.468c.547-.47 1.097-.938 1.643-1.41.488-.423-.222-1.127-.707-.707-.546.472-1.096.94-1.643 1.41-.491.421.22 1.125.707.707zM30.937 93.009v10.4l-.37-.21-.1-.061-.17-.09-.6-.35v-9.69c0-.439.39-.64.74-.58.22.04.43.181.49.431-.001.05.01.1.01.15z"/><path fill="#0C113D" d="M30.623 93.363h8.275c.645 0 .645-1 0-1h-8.275c-.645 0-.645 1 0 1z"/><path fill="#0C113D" d="M40.216 93.409v15.37l-.11-.061-.16-.09-.73-.43-.24-.13v-14.66c0-.21.09-.36.21-.46.36-.279 1.03-.129 1.03.461zm-9.072-1.161c-.354-1.443-1.062-2.777-1.098-4.284-.011-.483-.762-.484-.75 0 .038 1.585.752 2.968 1.124 4.483.116.47.839.271.724-.199z"/><path fill="#0C113D" d="M29.953 87.26c-.538-1.18-1.417-4.873.122-5.623.435-.212.054-.858-.379-.647-2.026.988-1.096 5.099-.39 6.649.199.439.846.058.647-.379z"/><path fill="#0C113D" d="M30.697 81.675c.145-.049.333.227.404.316.298.38.825-.154.53-.53-.257-.328-.694-.656-1.133-.509-.456.152-.261.877.199.723z"/><path fill="#0C113D" d="M31.87 86.679c-.206-.7-.898-5.698.392-5.261.459.155.655-.569.199-.724-2.576-.872-1.647 5.05-1.315 6.184.136.463.86.266.724-.199z"/><path fill="#0C113D" d="M34.237 86.37a21.163 21.163 0 0 1-.598-3.001c-.08-.621-.462-3.286.773-2.66.43.218.81-.429.379-.647-3.174-1.611-1.62 5.287-1.277 6.507.131.465.854.267.723-.199zm5.023 5.874c.095-1.355 1.406-2.215 1.585-3.584.063-.479-.688-.473-.75 0-.096.728-.575 1.288-.976 1.873a3.387 3.387 0 0 0-.61 1.711c-.033.484.718.48.751 0z"/><path fill="#0C113D" d="M40.486 82.65c.155-.843.805-1.97 1.234-.588.232.747.106 1.63-.004 2.385-.182 1.244-.504 3.019-1.516 3.871-.371.312.163.84.53.53 1.588-1.338 2.046-4.625 1.795-6.561-.079-.607-.474-1.873-1.317-1.8-.988.085-1.292 1.129-1.446 1.964-.086.472.636.674.724.199z"/><path fill="#0C113D" d="M39.706 82.499c.025.481-.336 3.065-1.148 2.783-.458-.159-.653.566-.199.724 1.563.542 2.149-2.521 2.098-3.507-.026-.481-.776-.483-.751 0z"/><path fill="#0C113D" d="M37.356 82.241c.074 1.105.116 2.359.564 3.386.193.442.839.06.647-.379-.39-.895-.397-2.045-.461-3.007-.031-.48-.782-.483-.75 0z"/><path fill="#0C113D" d="M36.166 86.247c-.495-2.693-.981-5.363-.452-8.09.177-.911 1.262-1.347 1.333-.269.026.399.017.804.021 1.204.009.984.114 1.953.25 2.927.067.478.79.273.724-.199-.163-1.164.506-6.809-1.982-5.657-1.083.501-1.184 2.314-1.288 3.302-.246 2.346.249 4.688.67 6.982.088.474.81.273.724-.2zm29.417 7.954v18.733l-.335.186-.458.272-.223.125-.221.122V94.201c-.001-.793 1.237-.793 1.237 0z"/><path fill="#0C113D" d="M64.653 93.55h-8.274c-.645 0-.645 1 0 1h8.274c.644 0 .644-1 0-1z"/><path fill="#0C113D" d="M56.296 94.559v23.521l-.15-.08-.06-.04-1.02-.59V94.559c0-.069.02-.14.04-.189.07-.2.24-.32.42-.351a.632.632 0 0 1 .6.161.511.511 0 0 1 .17.379zm8.559-.925c.372-1.516 1.088-2.899 1.126-4.484.012-.484-.738-.483-.75 0-.036 1.507-.745 2.842-1.099 4.285-.115.469.608.669.723.199z"/><path fill="#0C113D" d="M65.975 88.825c.737-1.693 1.009-5.92-1.019-6.908-.433-.211-.813.436-.379.647 1.577.768 1.328 4.553.749 5.881-.19.44.456.823.649.38zm-1.845-.761c.464-1.604.534-3.508.265-5.15-.079-.477-.801-.274-.724.199.248 1.505.159 3.288-.265 4.751-.134.467.59.664.724.2zm-7.362 5.367c-.046-.641-.263-1.176-.611-1.711-.39-.6-.878-1.135-.975-1.874-.062-.473-.813-.479-.75 0 .18 1.369 1.489 2.229 1.586 3.584.034.48.784.483.75.001z"/><path fill="#0C113D" d="M55.514 83.637c-.126-.68-.416-1.875-1.296-1.951-.933-.08-1.296.947-1.453 1.688-.252 1.19.05 2.547.33 3.705.245 1.014.624 2.258 1.452 2.956.367.31.9-.218.53-.53-.961-.81-1.236-2.391-1.463-3.562a8.729 8.729 0 0 1-.16-2.103c.023-.448.156-.956.447-1.309.464-.563.865 1.169.89 1.305.087.475.81.273.723-.199z"/><path fill="#0C113D" d="M54.821 83.685c-.052.985.535 4.048 2.098 3.507.454-.158.259-.882-.199-.724-.812.282-1.174-2.302-1.148-2.783.024-.483-.726-.481-.751 0z"/><path fill="#0C113D" d="M57.17 83.427c-.063.962-.071 2.113-.461 3.007-.191.439.455.821.647.379.448-1.026.491-2.282.563-3.386.033-.483-.717-.48-.749 0z"/><path fill="#0C113D" d="M59.834 87.632c.51-2.772 1.943-7.989-.541-10.225-2.213-1.993-1.98 5.047-2.058 5.599-.066.473.657.677.724.199.115-.824.204-1.642.24-2.474.019-.423.014-.848.019-1.271.001-.082.093-2.381 1.062-.931.724 1.083.553 3.004.516 4.232-.047 1.568-.401 3.134-.685 4.673-.088.472.635.673.723.198z"/><path fill="#0C113D" d="M60.412 78.606l.92-.202c.259.503.458 1.029.598 1.577.236.786.276 1.627.336 2.44.126 1.699-.226 3.38-.683 5.005-.131.466.593.664.724.199.822-2.922 1.171-6.279-.116-9.132-.373-.828-.643-1.356-1.561-1.397-.737-.032-.983.985-.968 1.509.014.484.764.485.75.001z"/><path fill="#0C113D" d="M62.046 78.757c.781 1.444 1.593 2.907 1.649 4.586.016.482.766.484.75 0-.061-1.819-.904-3.398-1.751-4.965-.231-.425-.878-.047-.648.379z"/><path fill="#0C113D" d="M63.109 80.302c.855.732 1.372 1.752 2.108 2.591.32.364.849-.168.531-.53-.737-.839-1.251-1.857-2.109-2.591-.365-.313-.898.215-.53.53z"/><path fill="#0D123C" d="M83.689 46.852l10.25 10.25c.456.457 1.163-.25.707-.707l-10.25-10.25c-.456-.457-1.163.251-.707.707z"/><path fill="#0D123C" d="M95.083 56.666v-6.167c0-.645-1-.645-1 0v6.167c0 .645 1 .645 1 0zM84.333 46.207v-6.75c0-.645-1-.645-1 0v6.75c0 .645 1 .645 1 0z"/><path fill="#0D123C" d="M95.021 49.937L84.562 39.479c-.456-.457-1.163.25-.707.707l10.459 10.458c.456.457 1.163-.25.707-.707zM95.145 57.227l3.667-3.667c.456-.456-.251-1.163-.707-.707l-3.667 3.667c-.456.457.251 1.164.707.707z"/><path fill="#0D123C" d="M99.125 52.916v-2.417c0-.645-1-.645-1 0v2.417c0 .645 1 .645 1 0z"/><path fill="#0D123C" d="M94.833 50.666h3.375c.645 0 .645-1 0-1h-3.375c-.644 0-.644 1 0 1zM84.125 39.749h3.74c.645 0 .645-1 0-1h-3.74c-.645 0-.645 1 0 1z"/><path fill="#0D123C" d="M98.875 49.828L88.25 39.203c-.456-.457-1.163.25-.707.707l.166.167c.456.457 1.163-.25.707-.707l-.302-.302c-.457-.456-1.163.25-.707.707l.302.302c.456.457 1.163-.25.707-.707l-.302-.302-.707.707.302.302c.456.457 1.163-.25.707-.707l-.166-.167-.707.707 10.625 10.625c.456.456 1.163-.251.707-.707z"/></g><g><path opacity=".13" d="M10.674 38.639V91.76l46.072 26.559L102.82 91.76V38.639L56.747 12.078 10.674 38.639zm90.282 1.08v50.97l-44.209 25.49-44.211-25.49v-50.97L56.747 14.23l44.209 25.489z"/></g></svg>