<svg height="135.417" width="113.979" xmlns="http://www.w3.org/2000/svg"><path d="m-366.506-110.11h218.921v195.815h-218.921z" fill="none"/><path d="m-451.215-231.888h361.335v516.49h-361.335z" fill="none"/><path d="m55.556 127.881-55.139-31.834v-63.67l55.139-31.835 55.14 31.835v63.669z" fill="#9c6b31" stroke="#342310" stroke-width="1.8" transform="translate(1.654 3.124)"/><path d="m55.422 116.822-45.313-26.162v-52.323l45.313-26.162 45.314 26.162v52.323z" fill="#010101" fill-opacity=".076" stroke="#30210f" stroke-width="2.3" transform="translate(1.654 3.124)"/><g transform="matrix(.79742 0 0 .79742 107.067 12.274)"><path d="m-87.235 98.847c-.43-1.128-.496-2.52 2.131-2.968 3.414-2.088 9.158-3.911 15.341-4.87 3.568-.552 12.018-.467 15.88.16 6.128.997 11.152 2.697 14.472 4.9 1.286.854 1.55 1.17 1.614 1.937.147 1.75-.43 1.81-2.937.305-14.032-4.07-13.739-3.903-22.313-4.474 0 0-19.25 3.273-21.516 4.75-1.929 1.258-2.279 1.292-2.672.26z" fill="#af890c" stroke-linecap="round" stroke-linejoin="round" stroke-width=".476"/><path d="m-66.42 40.342v-3.892h7.785v7.786h-7.784z" fill="#af890c" stroke-linecap="round" stroke-linejoin="round" stroke-width=".441"/><path d="m-64.343 35.982c-.391-.107-.477-.555-.542-2.843-.064-2.248-.147-2.698-.483-2.611-.224.058-.935.12-1.58.14-.974.03-1.287-.099-1.827-.75-.919-1.106-1.081-2.04-.554-3.186.53-1.152 1.905-1.854 3.131-1.6.794.165.83.132.83-.775.002-1.102.8-2.593 1.638-3.058 1.25-.693 3.344.365 3.639 1.839l.284 1.413c.107.533.3.707.744.67 1.368-.113 1.9.054 2.652.833 2.047 2.12-.416 5.746-2.997 4.412l-.815-.42v6.126l-1.828-.032c-1.005-.018-2.037-.09-2.292-.16z" fill="#dfa910" stroke-linecap="round" stroke-linejoin="round" stroke-width=".469"/><path d="m-50.946 46.61c-.724-.692-.843-.987-.737-1.84.069-.557.224-1.229.345-1.491.202-.44-.066-.477-3.517-.477h-3.736v-4.632h7.167l-.195-1.49c-.184-1.408-.147-1.534.67-2.316 1.219-1.165 2.878-1.166 4.094-.003.744.711.848.987.762 2.018l-.1 1.194 1.318.167c1.875.238 2.816 1.138 2.816 2.694 0 1.61-.883 2.53-2.674 2.787l-1.317.19v1.215c0 2.59-2.995 3.804-4.896 1.985z" fill="#dfa910" stroke-linecap="round" stroke-linejoin="round" stroke-width=".474"/><path d="m-77.72 46.87c-.837-.754-1.174-1.766-.92-2.754.154-.595.084-.683-.54-.683-1.88 0-3.504-1.33-3.504-2.868 0-1.53 1.624-2.867 3.482-2.867.629 0 .679-.085.54-.914-.44-2.646 2.732-4.316 4.705-2.477.651.607.817.997.817 1.923 0 .64-.127 1.238-.281 1.331-.838.504.047.683 3.369.683h3.649v4.643h-6.977l.157 1.486c.148 1.389.101 1.542-.7 2.322-1.115 1.085-2.707 1.158-3.797.175z" fill="#dfa910" stroke-linecap="round" stroke-linejoin="round" stroke-width=".471"/><path d="m-88.748 81.273c0-.658 1.555-4.935 2.387-6.566 3.131-6.136 8.777-11.26 14.956-13.573l.66-.247v15.98l-3.741.621c-4.01.667-8.882 1.954-12.206 3.225-1.131.432-2.056.684-2.056.56z" fill="#dfa910" stroke-linecap="round" stroke-linejoin="round" stroke-width=".46"/><path d="m-38.448 80.417c-2.975-1.143-7.684-2.383-11.44-3.013l-3.624-.607v-15.587l.99.41c5.53 2.284 10.601 6.902 13.635 12.413.848 1.542 2.553 6.077 2.553 6.792 0 .384-.112.362-2.114-.408z" fill="#dfa910" stroke-linecap="round" stroke-linejoin="round" stroke-width=".448"/><path d="m-66.325 112.606c-2.05-.363-5.092-1.322-6.856-2.16-3.912-1.86-8.217-5.529-10.759-9.17l-1.216-1.744 1.629-.86c5.613-2.963 12.291-4.291 21.476-4.27 6.169.014 9.897.434 14.164 1.596 3.868 1.053 8.393 3.083 8.388 3.761-.005.54-2.561 3.86-4.243 5.508-3.826 3.75-8.388 6.166-13.605 7.204-2.149.427-6.927.499-8.978.135z" fill="#dfa910" stroke-linecap="round" stroke-linejoin="round" stroke-width=".449"/><path d="m-63.492 20.935c-1.477.492-2.4 1.586-2.645 3.131l-.035.225-.446.041c-4.783.445-4.476 7.518.32 7.379l.595-.017v3.668l-.838.017c-1.007.021-.935-.058-.936 1.027v.857l-2.383-.017-2.382-.016.022-.475c.066-1.462-.773-2.897-2.067-3.531-2.354-1.155-5.125.42-5.324 3.026l-.041.544-.374.046c-3.36.417-4.288 4.966-1.388 6.798.195.123.373.224.395.224s.131.043.243.096c.11.053.41.13.663.173l.461.077.037.498c.237 3.164 4.04 4.576 6.287 2.334.849-.847 1.302-2.22 1.049-3.178-.022-.082.279-.096 2.386-.11l2.411-.016.018.763.017.764.872.031.872.031.016 5.165c.01 3.225-.007 5.188-.044 5.225-.032.033-.306.095-.607.14-.868.126-1.526.26-2.677.548-5.102 1.276-9.87 4.967-11.228 8.694-.138.377-.222.478-1.246 1.494-2.388 2.37-4.044 4.648-5.412 7.442-.842 1.72-1.273 2.828-1.744 4.483-.108.377-.221.77-.253.872-.031.103-.154.668-.274 1.256-.192.949-.242 1.106-.444 1.4-.692 1.006-.804 2.52-.257 3.49.158.28.164.329.162 1.245l-.001.954-.312.211c-2.506 1.7-1.573 6.453 1.358 6.92.272.044.452.102.452.148 0 .041.108.354.241.694l.242.62-.153.303c-.715 1.416.216 3.302 1.725 3.493l.342.043.556.847c1.395 2.126 3.57 4.592 5.18 5.871l.622.5c3.255 2.63 7.349 4.558 11.42 5.38.292.059.642.131.78.162 2.02.448 6.418.546 8.406.186.171-.031.451-.074.623-.095 5.913-.732 12.452-4.416 16.634-9.373.847-1.003 2.399-3.175 2.549-3.568.021-.055.1-.118.173-.139 1.12-.31 1.645-1.208 1.551-2.651-.032-.506-.068-.375.556-2.033.096-.256.152-.327.258-.328 1.72-.014 3.089-1.678 3.2-3.891.07-1.384-.418-2.41-1.48-3.116l-.437-.29.043-.882c.039-.78.06-.902.185-1.067.698-.925.556-2.829-.283-3.781-.199-.227-.264-.367-.343-.74l-.198-.928c-1.157-5.415-4.581-11.256-8.488-14.479-.323-.266-.428-.41-.727-.996-1.937-3.794-6.045-6.87-11.107-8.316-.773-.22-2.135-.517-2.725-.594l-.327-.042v-10.504l.794-.018.794-.017.018-.763.017-.763h4.916v.618c0 4.764 6.78 5.115 7.375.381l.066-.527.499-.098c2.434-.483 3.687-3.087 2.57-5.339-.497-1-1.61-1.798-2.694-1.932l-.373-.046-.074-.592c-.582-4.676-7.452-4.307-7.364.395l.012.633h-4.905l-.032-.903-.03-.903-.795-.017-.794-.018v-3.657l.763-.028c2.511-.092 4.315-2.597 3.465-4.81-.593-1.544-1.72-2.418-3.301-2.559l-.475-.042-.036-.3c-.153-1.294-1.12-2.493-2.415-2.995-.488-.189-1.81-.225-2.297-.063m1.665.97c1.415.378 2.068 1.397 2.07 3.228 0 .232.022.42.048.419.025-.002.214-.043.42-.093 1.504-.363 2.943.43 3.354 1.848.658 2.27-1.84 4.231-3.839 3.013l-.45-.275-.015 2.675-.017 2.674-2.194-.016-2.194-.016-.017-2.538c-.012-1.968-.033-2.537-.093-2.536-.043.001-.28.069-.528.151-1.6.53-2.897.074-3.51-1.235-1.014-2.169 1.05-4.477 3.303-3.691.375.131.377.127.379-.663.005-2.093 1.487-3.422 3.283-2.944m-12.942 12.237c.97.493 1.47 1.313 1.466 2.402l-.002.685-.293.498c-.161.274-.293.52-.293.545 0 .026 1.442.047 3.206.047h3.207v4.359h-3.113c-1.713 0-3.114.02-3.114.046s.09.313.2.639c.442 1.298.16 2.442-.778 3.165-2.044 1.573-4.965-.404-4.217-2.854.068-.223.124-.422.124-.444 0-.02-.385-.051-.856-.067-3.969-.132-3.887-5.343.085-5.343.812 0 .777.034.61-.594-.57-2.146 1.799-4.086 3.768-3.084m26.938-.01c1.216.608 1.816 1.99 1.403 3.227a4.197 4.197 0 0 0 -.125.415c0 .025.328.047.73.047 2.175.002 3.502 1.547 2.943 3.425-.37 1.24-1.258 1.848-2.787 1.912-.454.019-.825.043-.825.053s.045.21.1.444c.435 1.845-.772 3.416-2.622 3.411-1.992-.004-3.262-2.127-2.286-3.82.144-.25.262-.48.262-.511 0-.033-1.37-.063-3.254-.072l-3.253-.017-.017-2.163-.016-2.164h3.147c3.605 0 3.293.067 3.051-.662-.492-1.482-.148-2.652.99-3.37.723-.457 1.823-.524 2.559-.155m-10.804 6.21v3.892h-7.784v-3.85c0-2.118.018-3.87.041-3.892.023-.023 1.775-.042 3.892-.042h3.85v3.892m-1.634 10.12.017 5.137-2.196-.008-2.195-.008-.016-5.067c-.01-2.787-.003-5.103.013-5.146.024-.062.497-.075 2.196-.062l2.166.016zm.085 6.261c4.164.448 7.809 1.907 10.735 4.296.677.553 2.172 2.07 2.357 2.391l.116.201-.24-.158c-1.543-1.019-3.673-2.132-5.253-2.746-.497-.193-.95-.37-1.005-.394-.056-.024-.238-.221-.405-.439-.777-1.015-2.178-1.297-3.454-.696-.134.062-.32.053-1.028-.05-1.738-.252-2.28-.29-4.103-.288-1.798.002-2.33.04-4.033.282-.792.113-.871.115-1.05.023-1.158-.6-2.709-.222-3.442.836-.152.218-.25.273-.96.537-.434.161-.874.33-.977.376-.637.281-.987.44-1.4.64a30.202 30.202 0 0 0 -3.199 1.83c-1.03.687-1.083.703-.752.227 2.623-3.774 7.443-6.234 13.509-6.894.876-.095 3.604-.08 4.584.026m-.567 3.203c.854.056 2.22.213 2.615.3l.218.049.016 10.145c.008 5.58.036 10.165.062 10.19s.467.09.98.144c3.624.382 5.448.643 7.847 1.122 2.17.434 4.938 1.17 7.06 1.88 1.585.53 3.556 1.319 5.036 2.018l.7.33v.416c0 .81-.048.98-.303 1.063-.714.235-1.524 1.664-2.026 3.573-.544 2.074-.379 3.144.54 3.482.342.127.336.104.16.576-.208.565-.185.561-.917.138-2.76-1.593-6.048-2.809-9.659-3.571a99.684 99.684 0 0 0 -2.677-.531 66.43 66.43 0 0 0 -2.958-.433l-1.557-.191c-.49-.06-1.202-.118-3.176-.259-1.297-.092-6.202-.092-7.441 0-1.6.118-2.493.194-3.083.263-7.493.872-13.117 2.42-17.042 4.69-.53.307-.507.31-.677-.075-.188-.423-.17-.46.287-.624.884-.318 1.037-1.311.52-3.394-.537-2.168-1.278-3.423-2.19-3.711l-.233-.074v-1.279l.42-.206c.231-.113.7-.33 1.043-.483l.872-.387c1.468-.653 4.51-1.707 6.383-2.212.222-.06.53-.145.685-.19.72-.206 2.212-.546 3.548-.81.6-.118 1.231-.242 1.402-.277a20.3 20.3 0 0 1 .748-.127l1.027-.157c1.116-.172 2.143-.297 4.577-.558.48-.052.907-.107.95-.122.062-.023.078-2.116.078-10.183v-10.152l.157-.06c.673-.256 4.128-.435 6.008-.312m-7.408.096.184.095-.015 9.79-.016 9.791-.654.076-1.526.175c-2.08.236-3.342.432-5.448.847-1.91.375-2.053.408-4.422 1.026-.085.023-.394.11-.685.195-.29.084-.655.19-.81.233-1.77.502-4.737 1.63-6.636 2.523-.795.374-.729.37-.869.059-.271-.602-.08-1.769.37-2.265.503-.552 4.706-2.151 7.976-3.035.137-.037.376-.103.53-.147.278-.08.737-.192 1.992-.489 1.945-.46 4.62-.925 6.881-1.196.514-.062.955-.142.98-.178.026-.036.047-3.8.047-8.366.001-9.114-.028-8.442.385-8.835.399-.378 1.287-.531 1.736-.299m12.936.066c.178.088.414.275.526.417l.204.258.031 8.409.031 8.41.156.015c2.09.21 5.487.783 7.628 1.284.206.049.57.133.81.187 2.84.646 7.773 2.327 9.388 3.2.688.371 1.097 1.725.763 2.525-.131.314-.151.316-.695.068l-.77-.35c-2.664-1.217-6.693-2.567-9.558-3.203l-.81-.182a74.604 74.604 0 0 0 -2.428-.491 62.612 62.612 0 0 1 -.84-.157 9.331 9.331 0 0 0 -.592-.094c-.172-.02-.452-.063-.623-.095-.615-.114-2.641-.368-3.97-.498-.37-.036-.712-.082-.763-.101-.082-.032-.093-1.207-.093-9.81v-9.772l.202-.088c.348-.151 1.03-.118 1.403.068m-16.115 8.898c0 8.027.011 7.692-.251 7.692-.314 0-3.676.522-4.42.686-.153.034-.564.118-.911.186-.848.166-2.38.521-3.26.757-.394.105-.8.212-.903.237-1.368.341-4.775 1.51-6.336 2.175-.76.323-.793.325-.723.023.773-3.322 1.737-5.753 3.278-8.267 3.148-5.136 7.245-8.518 13.308-10.987.069-.028.146-.039.172-.024.025.015.046 3.4.046 7.522m7.847-7.445c-3.657 1.16-3.635 6.35.03 7.45 2.286.685 4.999-1.583 4.667-3.903-.248-1.736-.946-2.774-2.269-3.373-.687-.311-1.753-.388-2.428-.174m10.555.101c.102.045.439.185.747.31 6.642 2.705 12.28 8.8 14.602 15.785.535 1.61.907 3.176.755 3.176-.052 0-.81-.304-1.097-.439-.731-.345-4.332-1.557-5.729-1.928-1.778-.472-3.103-.789-4.169-.997-.344-.068-.752-.15-.906-.185-.684-.15-2.913-.506-4.048-.644l-.591-.073-.016-7.586-.016-7.586.14.043c.078.023.225.079.328.124m-8.484 1.073c1.77.817 2.107 3.378.617 4.69-1.74 1.531-4.37.226-4.37-2.17 0-2.005 1.983-3.337 3.753-2.52m-1.82 8.426c-1.984.352-3.353 2.552-2.902 4.658.683 3.186 4.828 4.04 6.642 1.368 1.93-2.841-.414-6.618-3.74-6.026m1.415 1.08c2.005.534 2.64 3.328 1.088 4.78-1.745 1.632-4.432.358-4.435-2.103-.002-1.821 1.637-3.132 3.347-2.677m-1.48 8.172c-3.942.8-4.65 6.374-1.034 8.142 4.06 1.986 7.878-3.038 5.048-6.643-.891-1.136-2.62-1.782-4.014-1.499m1.37 1.05c2.457.516 3.4 3.595 1.677 5.468-2.352 2.555-6.358-.063-5.199-3.396.52-1.497 2.032-2.386 3.522-2.073m-11.24.815c-.82.198-1.113.322-1.632.69-1.905 1.347-2.105 4.235-.409 5.918 2.971 2.95 7.717-.686 5.873-4.5-.689-1.423-2.513-2.427-3.832-2.108m20.55 0c-.558.135-.735.195-1.09.374-2.596 1.307-2.839 5.026-.435 6.657 2.674 1.814 6.07-.374 5.725-3.69-.211-2.034-2.4-3.776-4.2-3.341m-19.53 1.083c1.842.35 2.756 2.642 1.71 4.287-1.464 2.3-4.883 1.21-4.877-1.555.003-1.757 1.5-3.048 3.167-2.732m20.613.005c1.36.313 2.303 1.766 2.068 3.184-.515 3.118-4.77 3.109-5.254-.012-.298-1.923 1.376-3.59 3.186-3.172m-30.6 1.302c-2.615.313-4.072 3.517-2.66 5.85 1.271 2.097 4 2.443 5.713.724 2.575-2.584.524-7.002-3.053-6.574m38.484.005c-2.48.328-3.959 3.11-2.898 5.451 1.303 2.874 5.294 2.944 6.669.118 1.346-2.768-.814-5.96-3.77-5.569m-37.087 1.185c1.681.59 2.299 2.882 1.178 4.37-1.036 1.374-3.072 1.41-4.117.072-1.73-2.214.347-5.353 2.939-4.442m37.984-.126c3.202.52 2.814 5.539-.43 5.539-3.458 0-3.52-5.343-.063-5.597.051-.003.273.022.493.058m-45.769 3.672c.614.95 1.308 3.764.963 3.905-.244.1-1.165.055-1.364-.066-1.171-.716-1.36-3.174-.305-3.98.398-.304.421-.3.706.141m52.802-.286c1.122.58 1.231 2.677.2 3.85-.33.378-1.355.57-1.746.328-.327-.202.544-3.26 1.158-4.064.178-.234.164-.23.388-.114m-23.561 2.308c7.606.408 14.37 1.907 18.65 4.13 1.938 1.007 2.164 1.162 2.249 1.542.179.8-.031 1.51-.52 1.753-.427.212-.521.196-1.168-.199-2.732-1.667-6.398-2.97-10.898-3.87-5.53-1.106-13.539-1.335-19.522-.558-1.244.162-1.677.222-2.024.284-1.33.237-1.847.335-2.366.448-.326.07-.727.155-.891.187-.165.032-.515.115-.779.185-.263.07-.59.154-.728.186-1.095.263-3.752 1.172-4.795 1.641a43.91 43.91 0 0 1 -.653.286c-.553.235-1.93.948-2.578 1.334-.84.501-1.205.417-1.596-.366-.546-1.09-.207-1.524 2.119-2.71.856-.436 1.304-.637 2.38-1.073 2.239-.906 6.452-1.963 10.012-2.511 4.463-.688 8.845-.918 13.108-.69m1.557 3.543c2.708.212 4.823.494 6.912.921l.895.183c1.915.39 4.931 1.341 6.546 2.065 1.279.573 3.239 1.618 3.239 1.727 0 .08-.794 1.255-1.323 1.956-4.4 5.835-10.717 9.458-18.044 10.349-1.631.198-4.248.182-6.165-.037-2.157-.247-5.183-1.054-7.009-1.869-5.232-2.336-9.407-5.93-12.13-10.443-.06-.1.261-.3 1.485-.92 2.375-1.203 4.655-1.999 7.877-2.748l.623-.148c1.925-.474 5.353-.896 9.31-1.144.932-.058 6.67.022 7.784.109" fill="#0a0805" fill-rule="evenodd" stroke-width=".156"/><g stroke-linecap="round" stroke-linejoin="round"><path d="m-38.529 88.007c0-1.633.004-2.97.01-2.97.021 0 1.09.49 1.715.785l.664.315-.012.679c-.007.405-.024.718-.042.776-.05.16-.125.229-.388.357-.212.103-.286.158-.479.352-.483.49-.94 1.286-1.34 2.342l-.127.333z" fill="#c9a80e" stroke-width=".045"/><path d="m-64.653 50.376-.063-5.125 2.219-.031 2.212.105.07 4.75c.036 2.532-.122 5.308-.038 5.525.13.342-.233-.053-2.092-.036l-2.3.02z" fill="#dfa910" stroke-width=".425"/><path d="m-64.147 76.776c-.695-.695-.85-1.04-.85-1.894 0-2.592 3.448-3.532 4.622-1.26.631 1.219.485 2.197-.472 3.154-1.153 1.153-2.147 1.153-3.3 0z" fill="#dbd8d8" stroke-width=".425"/><path d="m-53.793 87.939c-.884-.95-1.06-1.89-.552-2.958.409-.862 1.437-1.605 2.223-1.605 1.422 0 2.815 1.817 2.498 3.258-.423 1.93-2.874 2.696-4.169 1.305z" fill="#dbd8d8" stroke-width=".425"/><path d="m-44.688 90.512c-1.881-1.582-.888-4.636 1.507-4.636 1.434 0 2.434 1.065 2.434 2.592 0 1.492-.744 2.388-2.138 2.575-.845.113-1.142.026-1.803-.53z" fill="#dbd8d8" stroke-width=".425"/><path d="m-73.433 88.573c-1.58-.41-2.253-2.487-1.272-3.928 1.007-1.478 2.667-1.628 3.854-.347.843.909.834 2.516-.018 3.53-.711.844-1.404 1.045-2.564.745z" fill="#dbd8d8" stroke-width=".425"/><path d="m-83.306 90.397c-.7-.627-.816-.895-.816-1.896 0-1 .115-1.27.816-1.895 1.116-.997 2.33-.997 3.328 0 .573.573.731.956.731 1.767 0 1.296-.314 1.894-1.245 2.376-1.089.563-1.904.46-2.814-.352z" fill="#dbd8d8" stroke-width=".425"/><g fill="#af890c" stroke-width=".425"><path d="m-78.454 63.906c0-.53 2.446-3.376 5.6-4.937 0 0 4.098-2.656 10.81-2.372l.1 2.331s-.483-.314-5.381.366c-.759-.321-1.742-.543-3.014.046-.184.085-.225.279-.793.837 0 0-4.66 2.105-5.328 2.516-.67.412-1.994 1.334-1.994 1.213z"/><path d="m-46.331 63.948c0-.53-2.447-3.376-5.6-4.936 0 0-4.099-2.656-10.812-2.373l-.099 2.332s.484-.315 5.382.365c.758-.32 1.742-.543 3.013.046.184.086.225.28.794.838 0 0 4.659 2.104 5.328 2.516.669.411 1.994 1.334 1.994 1.212z"/></g><path d="m-85.948 92.667c-.03-.437-.202-1.269-.41-1.99l-.152-.528.012-2.48.011-2.48.442-.191c2.07-.896 5.711-2.062 8.308-2.662 2.942-.68 5.246-1.055 9.06-1.48 1.733-.192 1.686-.183 1.725-.302.017-.053.04-4.632.053-10.177l.022-10.082.168-.05c.223-.067.91-.166 1.59-.228.84-.077 3.91-.108 4.655-.046.762.062 1.978.207 2.274.27l.216.047.03.96c.015.527.031 4.508.035 8.847.003 4.339.018 8.484.033 9.212l.027 1.324.156.033c.086.017.97.124 1.964.235 2.993.337 4.685.59 6.785 1.018 3.625.738 7.79 2.007 10.455 3.185l.24.106v4.875l-.13.425c-.224.723-.4 1.507-.455 2.026l-.053.498h-4.957l-.528-.18c-3.717-1.257-9.529-2.243-14.856-2.52-1.146-.06-6.741-.027-7.482.043-.28.027-.876.08-1.326.116-4.019.33-9.154 1.291-12.506 2.34l-.64.2h-4.74zm5.295-.474a3.98 3.98 0 0 0 2.298-1.951c.876-1.696.354-3.86-1.198-4.97-.962-.69-2.285-.859-3.407-.437-1.073.404-1.944 1.409-2.272 2.624-.118.436-.158 1.22-.085 1.672a3.815 3.815 0 0 0 2.918 3.133c.386.09 1.362.05 1.746-.071zm38.484-.022c1.059-.307 1.846-.99 2.326-2.019.91-1.947.098-4.303-1.787-5.189-.572-.269-.913-.345-1.547-.344-.815.001-1.358.165-2.038.616-1.483.982-2.093 2.98-1.432 4.693.154.4.476.92.759 1.227.356.387 1.045.826 1.556.992.638.206 1.502.216 2.163.024zm-29.697-2.326c1.32-.33 2.435-1.416 2.816-2.743.134-.467.164-1.236.066-1.718-.2-.99-.7-1.79-1.488-2.383-.678-.511-1.474-.81-2.16-.81-.618 0-1.44.251-1.998.613-1.056.683-1.681 1.774-1.745 3.046-.056 1.123.3 2.111 1.044 2.905.977 1.042 2.164 1.415 3.465 1.09zm20.572.022c1.38-.306 2.5-1.476 2.825-2.956.093-.422.091-1.323-.003-1.712-.203-.834-.71-1.614-1.42-2.183-.958-.767-1.948-1-3.006-.71-1.163.32-2.04 1.029-2.527 2.041-.308.64-.384.99-.383 1.768 0 .59.013.706.118 1.051.143.474.401.997.642 1.302.931 1.178 2.355 1.709 3.754 1.399zm-10.223-.987a4.887 4.887 0 0 0 1.291-.584c.36-.247.893-.792 1.14-1.164.294-.442.467-.81.624-1.326.111-.365.122-.461.124-1.15.002-.604-.014-.81-.081-1.06-.26-.96-.807-1.814-1.507-2.353-.414-.318-1.096-.648-1.636-.791-.555-.147-1.405-.168-1.894-.046-1.865.465-3.138 2.049-3.241 4.033-.078 1.507.521 2.828 1.688 3.719.446.34 1.211.669 1.828.786.448.085 1.198.056 1.664-.064zm.132-10.272c1.089-.358 1.938-1.196 2.362-2.332.314-.838.298-1.893-.041-2.769-.36-.927-1.078-1.702-1.952-2.105-.454-.21-.782-.29-1.319-.32-1.109-.063-1.973.266-2.74 1.045-.765.777-1.158 1.744-1.159 2.851 0 1.316.588 2.45 1.631 3.145.723.48 1.294.639 2.224.617.547-.013.692-.032.994-.132zm-.42-9.575c1.677-.4 3.05-1.996 3.05-3.546 0-.6-.213-1.474-.51-2.088-.453-.935-1.392-1.672-2.429-1.905-.474-.106-1.307-.106-1.702.001a3.853 3.853 0 0 0 -2.758 2.952c-.09.436-.09 1.222 0 1.661a3.82 3.82 0 0 0 2.088 2.668c.74.354 1.494.44 2.261.257z" fill="#c9a80e" stroke-width=".075"/><path d="m-86.792 89.404c-.388-.952-1.044-1.739-1.582-1.9l-.244-.073v-1.261l1.047-.48 1.047-.48.015.667c.008.367-.006 1.424-.031 2.348l-.047 1.68z" fill="#c9a80e" stroke-width=".106"/><path d="m-86.995 95.247a1.51 1.51 0 0 1 -.122-.347c0-.045.147-.147.327-.228.58-.26.794-.564.845-1.203l.032-.394 2.257.003 2.257.003-.875.331c-1.455.552-1.945.77-3.269 1.45-.697.358-1.282.65-1.3.65-.017 0-.085-.119-.152-.265z" fill="#c9a80e" stroke-width=".106"/><path d="m-86.555 90.06c-.028-.086-.03-.174-.015-.513.01-.225.026-.727.036-1.116l.019-.707.003 1.22c.002.672 0 1.222-.003 1.222a.505.505 0 0 1 -.04-.105z" fill="#c9a80e" stroke-width=".038"/><path d="m-85.922 92.867c-.064-.721-.193-1.363-.47-2.349l-.11-.386.01-2.468.01-2.468.468-.199c2.004-.854 5.161-1.884 7.691-2.51a73.114 73.114 0 0 1 2.913-.64l.083-.014v1.541l-.058.054a2.87 2.87 0 0 0 -.196.23c-1.118 1.43-1.07 3.595.109 4.947l.145.167v2.759l-.05.012c-.027.007-.244.052-.48.1-1.721.352-3.408.78-4.81 1.22l-.49.153h-4.752zm4.586-.568c.579-.027 1.014-.168 1.554-.503.41-.253.859-.677 1.146-1.079.18-.253.432-.75.523-1.038a4.033 4.033 0 0 0 -.003-2.43 4.929 4.929 0 0 0 -.46-.965c-.631-.945-1.527-1.51-2.622-1.654a3.57 3.57 0 0 0 -2.449.554c-.83.556-1.468 1.541-1.65 2.542-.039.22-.047.353-.049.804-.002.596.019.748.164 1.197.091.283.342.785.51 1.023a3.932 3.932 0 0 0 2.249 1.518c.124.029.517.056.699.048z" fill="#c9a80e" stroke-width=".038"/><path d="m-86.5 85.69c0-.194.004-.27.008-.17.004.101.004.26 0 .354s-.008.011-.008-.183z" fill="#c9a80e" stroke-width=".038"/><path d="m-86.717 89.561c-.243-.597-.515-1.068-.834-1.445-.285-.335-.56-.536-.868-.634l-.189-.06v-1.247l1.029-.471c.565-.26 1.035-.465 1.044-.456.026.026.009 2.223-.027 3.434a53.807 53.807 0 0 1 -.04 1.142 2.453 2.453 0 0 1 -.115-.263z" fill="#c9a80e" stroke-width=".038"/><path d="m-86.293 89.617c-.386-.801-.933-1.494-1.45-1.838a2.153 2.153 0 0 0 -.684-.308l-.18-.05v-1.248l1.244-.47c.684-.26 1.252-.464 1.263-.455.046.038-.032 4.536-.08 4.576a1.179 1.179 0 0 1 -.113-.207z" fill="#c9a80e" stroke-width=".041"/><path d="m-86.96 95.287c-.139-.294-.162-.382-.115-.434.02-.023.15-.099.286-.17.302-.156.394-.217.527-.352.203-.207.29-.457.332-.945l.025-.304h2.234l2.234.001-.84.321c-1.504.575-1.87.739-3.527 1.577-.554.28-1.02.51-1.034.51-.015 0-.07-.092-.123-.204z" fill="#c9a80e" stroke-width=".038"/><path d="m-86.971 95.374a3.05 3.05 0 0 1 -.158-.367c-.065-.201-.065-.201.41-.445.299-.154.406-.225.565-.38.309-.3.402-.543.461-1.198.017-.195.034-.357.038-.361.003-.004 1.264-.004 2.802 0l2.797.007-.658.243c-2.038.755-2.535.969-4.541 1.952a60.23 60.23 0 0 1 -1.578.76c-.017 0-.079-.095-.138-.211z" fill="#c9a80e" stroke-width=".047"/><path d="m-38.345 95.546a28.88 28.88 0 0 1 -.652-.35 32.205 32.205 0 0 0 -4.508-2.016l-.598-.216-.131-.048 2.68-.002 2.68-.001.016.253c.045.77.34 1.218.95 1.447.21.078.262.117.262.193 0 .083-.236.678-.303.764-.08.103-.153.098-.396-.025z" fill="#c9a80e" stroke-width=".04"/><path d="m-62.894 87.902c-1.425-.208-2.57-1.395-2.74-2.841a4.85 4.85 0 0 1 .024-.924c.12-.653.357-1.18.733-1.628a3.142 3.142 0 0 1 1.792-1.07c.156-.032.224-.036.545-.036.32 0 .39.005.542.035a3.144 3.144 0 0 1 1.587.815c.29.277.487.546.667.91a3.321 3.321 0 0 1 -.311 3.49c-.522.694-1.293 1.16-2.078 1.257a4.058 4.058 0 0 1 -.761-.008z" fill="#9a0b0b" stroke-width=".027"/><path d="m-62.672 68.053a2.64 2.64 0 0 1 -1.398-.532 3.804 3.804 0 0 1 -.528-.53 2.85 2.85 0 0 1 -.549-1.397 3.887 3.887 0 0 1 0-.703c.11-.934.673-1.74 1.503-2.147.257-.127.532-.21.823-.25.155-.02.496-.017.657.007a2.67 2.67 0 0 1 1.337.605c.497.426.824 1.043.93 1.757.028.182.027.627 0 .82-.07.482-.252.93-.533 1.31-.047.064-.161.191-.253.283a2.547 2.547 0 0 1 -1.99.777z" fill="#9a0b0b" stroke-width=".019"/><path d="m-88.326 93.33c-.283-.017-.51-.06-.608-.117a1.717 1.717 0 0 1 -.452-.423c-.343-.463-.533-1.099-.533-1.785 0-.71.199-1.29.571-1.656a2.63 2.63 0 0 1 .374-.28c.116-.058.192-.03.293.105.274.369.533.939.767 1.688.256.818.413 1.565.425 2.022.01.395-.01.42-.362.447a2.921 2.921 0 0 1 -.475-.001z" fill="#9a0b0b" stroke-width=".019"/><path d="m-36.972 93.368c-.07-.01-.21-.05-.26-.076-.065-.032-.083-.063-.1-.167-.083-.506.466-2.483.969-3.487.114-.229.283-.487.376-.574.053-.05.074-.049.2.013.166.081.27.155.4.286.28.281.46.68.537 1.178.028.186.029.65 0 .84-.043.29-.106.535-.2.769-.144.357-.392.733-.586.888-.191.153-.554.283-.91.326a3.03 3.03 0 0 1 -.426.004z" fill="#9a0b0b" stroke-width=".019"/><path d="m-89.053 84.742c-.22-.576.002-1.74.409-2.147.418-.419 2.43-1.265 5.156-2.17 3.884-1.288 7.019-1.988 11.995-2.68.615-.085 1.14-.177 1.167-.204.027-.028.06-3.748.075-8.269.018-5.568.048-8.296.093-8.46a1.18 1.18 0 0 1 .24-.421c.34-.356 1.197-.538 1.703-.362l.197.068-.016 9.789-.016 9.788-1.75.204c-2.396.28-3.638.468-5.688.865-4.549.88-8.287 2.038-12.262 3.802-.592.263-1.103.477-1.136.477s-.108-.126-.167-.28z" fill="#af890c" stroke-width=".106"/><path d="m-36.8 84.64c-1.765-.816-4.436-1.81-6.781-2.523-3.52-1.07-8.104-1.935-12.64-2.383-.232-.022-.447-.073-.479-.11-.033-.042-.076-4.073-.103-9.766l-.046-9.697.15-.085c.093-.053.346-.084.68-.084.621 0 .9.116 1.27.526l.23.255.01 4.328c.004 2.38.025 6.17.046 8.421l.038 4.094.437.045c2.153.223 5.716.856 8.216 1.46 2.225.538 5.319 1.52 7.49 2.378 1.48.585 1.973.844 2.199 1.156.3.414.455.898.459 1.43.003.494-.132.94-.282.933-.045-.002-.447-.173-.894-.379z" fill="#af890c" stroke-width=".106"/></g></g></svg>