<svg xmlns="http://www.w3.org/2000/svg" version="1.1" x="0" y="0" width="110.979" height="128.417" xml:space="preserve" id="svg760"><g id="Layer_63_1_"><g id="g7"><g id="g5"><path id="polygon3" fill="#ef75b2" d="M0 95.969V31.99L55.424 0l55.427 31.99v63.979l-55.427 31.99z"/></g></g></g><path id="path10" d="M101.921 37.708v53.12l-.01.01-1.42.81-4.148 2.391-.201.12-1.93 1.109-2.721 1.57-.24.13-.129.05-.109.07-3.031 1.741-.82.469-1.049.6-.041.031-1.229.709-.451.26-.02.021h-.01l-1.541.889-.869.521-1.26.719-.121.07-.08.051-.41.24-.029.01-.16.09v.01l-.779.449-.18.09-.021.021-.039.02-1.01.58-.291.17-.369.209-.24.141h-.01l-.711.42-4.619 2.67-.631.359-.059.031-3.502 2.029-4.039 2.33-.01.01-.432.25-5.709 3.281-.561.33h-.01l-.32.18-.48.289-1.42-.83-.85-.49-.03-.01-1.74-1.01-3.529-2.029-.04-.031-2.07-1.189-5.36-3.109-.689-.391-5.09-2.949-.391-.221-.49-.279-.329-.201-1.341-.77-.51-.289-.57-.33-1.71-.99-2.51-1.461-2.09-1.199-.82-.471-.01-.01-.08-.039-.5-.291-.01-.01-.21-.119h-.01l-.16-.102h-.01l-.33-.189-.54-.311c-.011-.01-.011-.01-.021-.01l-1.859-1.08-1.021-.59-1.68-.98-.431-.25-.289-.17s-.011 0-.021-.01l-.28-.16-.67-.38-.43-.25-.01-.01-2.19-1.26-3.26-1.881-.24-.14-.08-.04-.03-.02v-53.12l14.33-8.271 1.99-1.16 4.93-2.829 1.58-.91.17-.09 1.66-.95.78-.46.38-.21.44-.271 1.1-.64.521-.3 2.279-1.301.69-.409 1.399-.801h.011l.05-.029 5.72-3.301.19-.109.27-.16 6.07-3.51 1.439-.83 1.061.62 6.49 3.75 2.6 1.5 4.641 2.67.27.16 5.41 3.12 1.609.93 1.041.609 2.301 1.301.648.37.221.13 1.52.88.33.189 1.041.601.799.46.09.06 1.811 1.04 1.09.63 2.4 1.38.289.171.041.029v.01l.26.141.66.39.52.3.939.54 1.4.811.541.31.779.44.439.25 1.941 1.12 2.1 1.22z" fill="#9f3db7"/><g id="g26"><path id="path12" d="M91.292 31.567c-18.17 2.801-47.091 11.49-81.372 39.271v-11.88c15.801-14.46 38.551-30.3 66.471-35.97l1.609.93 1.041.609 2.301 1.301.648.37.221.13 1.52.88.33.189 1.041.601.799.46.09.06 1.811 1.04 1.09.63z" fill="#f71e4d"/><path id="path14" d="M101.921 37.708v1.29c-14.219 1.1-49.18 6.109-92 43.34v-12.47c18.011-17.44 44.98-36.49 78.971-39.681l2.4 1.38.289.171.041.029v.01l.26.141.66.39.52.3.939.54 1.4.811.541.31.779.44.439.25 1.941 1.12 2.1 1.22z" fill="#ff9700"/><g id="g24"><path id="path16" d="M101.921 37.708v9.52c-17.789 1.681-51.33 9.04-92 43.3v-11.42c19.351-18.739 51.17-41.63 91.282-41.81z" fill="#fff800"/><path id="path18" d="M101.921 46.158v9.689c-15.539 1.72-46.56 8.32-84.07 39.55l-.431-.25-.289-.17s-.011 0-.021-.01l-.28-.16-.67-.38-.43-.25-.01-.01-2.19-1.26-3.26-1.881-.24-.14-.08-.04-.03-.02v-.59c18.771-19.29 49.18-42.311 88.381-43.94 1.241-.048 2.45-.098 3.62-.138z" fill="#3fff00"/><path id="path20" d="M101.921 52.078v10.6c-17.568 2.73-45.029 10.97-77.64 36.44l-.08-.039-.5-.291-.01-.01-.21-.119h-.01l-.16-.102h-.01l-.33-.189-.54-.311c-.011-.01-.011-.01-.021-.01l-1.859-1.08-1.021-.59-1.68-.98-.431-.25-.289-.17s-.011 0-.021-.01l-.28-.16-.67-.38c18.262-17.889 48.083-39.939 85.762-42.349z" fill="#007aff"/><path id="path22" d="M101.921 61.067v10.341c-15.559 2.689-40.23 10.159-69.42 32.46l-.51-.289-.57-.33-1.71-.99-2.51-1.461-2.09-1.199-.82-.471-.01-.01-.08-.039-.5-.291-.01-.01-.21-.119h-.01l-.16-.102c18.36-17.12 45.171-35.03 78.61-37.49z" fill="#701f9b"/></g></g><g id="g44" transform="translate(-7.89 -11.427)"><g id="g40"><g id="g30"><path id="path28" d="M81.552 40.414c.244 2.796.385 5.618.695 8.405.025.231.34.235.361 0 .25-2.785-.346-5.643-.662-8.405-.029-.247-.415-.256-.394 0z" fill="#fffccc"/></g><g id="g34"><path id="path32" d="M78.564 44.87c1.295.174 2.635.131 3.941.189 1.15.051 2.314.206 3.434-.114.191-.055.191-.331 0-.386-1.119-.32-2.283-.165-3.434-.113-1.307.058-2.646.015-3.941.188-.15.021-.15.215 0 .236z" fill="#fffccc"/></g><g id="g38"><path id="path36" d="M81.771 44.414c.012.241-.299.424-.342.675-.057.347.238.592.488.771.332.239 1.152-.007 1.117-.487-.031-.439-.414-.864-.682-1.186-.115-.138-.242-.285-.414-.349-.23-.085-.514.124-.482.373l.543-.312c-.713-.376-1.357 1.521-.617 1.748l-.221-.168a.835.835 0 0 0 .336.403l-.076-.576-.014.014c-.084.085-.143.24-.094.357.145.356.787.539 1.146.458.203-.046.299-.266.258-.455-.002-.004-.002-.007-.002-.01-.227.095-.451.189-.676.285.832 1.193 1.785-2.625.693-2.176l.424.552c.256-.332.025-.793-.408-.697-.34.074-.672.321-.957.507-.314.205-.686.429-.906.739-.299.421.168.745.563.661l-.387-.663-.008.009c-.09.092-.156.258-.104.386.203.488 2.148.967 2.084.157l-.752.203c.047.106.148.157.25.196.156.063.383-.036.455-.185.209-.438.031-1.186-.018-1.646-.025-.231-.037-.491-.148-.702-.203-.376-.654-.188-.779.129.127-.099.256-.196.385-.294l-.543-.001a.402.402 0 0 0-.346.199c-.227.409-.336.831-.184 1.286.129.388.451.669.574 1.062.043.136.229.166.303.04.178-.302.156-.614.051-.938-.135-.414-.285-.62-.051-1.045l-.346.199.543-.001c.193.001.32-.125.387-.294l-.156.195a25.92 25.92 0 0 1-.309.04c-.268-.061-.268-.364-.217-.117.012.059.02.117.027.175a13.544 13.544 0 0 1 .082 1.158c.004.069.004.14.006.209 0 .13-.053.142.043-.061l.455-.185-.004-.001.242.185a.021.021 0 0 1-.004-.01c-.162-.365-.781-.185-.752.203l.002.014.117-.285c.219-.179.287-.08.104-.104-.129-.018-.256-.046-.383-.072a8.514 8.514 0 0 1-.375-.091c-.242-.065-.092-.097-.016.076-.021.16-.041.321-.063.481l.008-.01a.4.4 0 0 0-.385-.663c-.055.013.293.552.309.534.049-.056.107-.104.162-.153.166-.143.348-.269.527-.392a6.27 6.27 0 0 1 .525-.324c.066-.036.113-.059.137-.067.018-.006-.447.029-.359-.437.016-.091 0-.021-.027.015-.193.253.127.677.424.553-.059-.001-.115-.003-.174-.003a10.243 10.243 0 0 0-.225-.173c-.072-.099-.027-.183-.035-.053-.002.042-.01.081-.018.123-.025.145-.063.289-.098.433a6.969 6.969 0 0 1-.186.591c-.082.193-.1.04.086.014l.285.037.107.108c-.24-.339-.771-.138-.676.285 0 .003 0 .006.002.009l.258-.454c.125-.029-.133-.05-.17-.06-.078-.019-.168-.034-.234-.083l.17.219c-.002-.005-.004-.011-.008-.017l-.094.357.014-.014a.373.373 0 0 0-.074-.577c-.088-.058-.094-.205-.203-.271-.18-.09-.137-.021.125.211-.006-.053.01-.107.02-.157a2.463 2.463 0 0 1 .139-.44c.064-.145.107-.081-.053-.044l-.279-.037a.403.403 0 0 1 .021.011c.303.153.574-.095.529-.408v.164l-.25.252c-.232.054-.322-.109-.15.069.078.081.148.166.217.251.129.157.271.341.348.529.049.116.426-.301.092-.199-.145.044-.318.162-.404-.092-.023-.073.092-.26.117-.33a.58.58 0 0 0-.006-.394c-.067-.178-.366-.163-.356.053z" fill="#fffccc"/></g></g><circle id="circle42" r="1.593" cy="44.667" cx="82.225" fill="#fffccc"/></g><g id="g62" transform="translate(19.589 .816)"><g id="g58"><g id="g48"><path id="path46" d="M72.882 49.245c.156 1.78.246 3.576.443 5.352.016.146.217.15.23 0 .158-1.773-.221-3.593-.422-5.352-.018-.158-.264-.162-.251 0z" fill="#fffccc"/></g><g id="g52"><path id="path50" d="M70.98 52.082c.826.11 1.678.084 2.51.12.732.033 1.475.132 2.186-.072.121-.034.121-.211 0-.246-.711-.203-1.453-.104-2.186-.071-.832.037-1.684.009-2.51.12-.096.013-.096.136 0 .149z" fill="#fffccc"/></g><g id="g56"><path id="path54" d="M73.023 51.792c.008.154-.191.27-.217.43-.037.221.15.376.309.491.213.152.734-.005.713-.312-.021-.279-.264-.55-.434-.754-.074-.088-.154-.182-.264-.222-.148-.055-.328.078-.309.237l.346-.199c-.453-.239-.863.968-.393 1.113a13.11 13.11 0 0 1-.141-.107.55.55 0 0 0 .213.258l-.047-.367-.01.009c-.053.054-.09.152-.059.228.092.227.5.343.729.291.131-.029.191-.169.164-.289v-.007l-.432.182c.531.76 1.137-1.671.443-1.385.09.117.18.233.27.352.162-.211.016-.506-.262-.444-.215.048-.426.205-.607.323-.201.13-.438.272-.578.471-.189.268.107.473.357.42l-.244-.422-.006.005c-.059.06-.1.165-.066.246.131.312 1.367.616 1.326.101l-.479.13c.031.066.096.1.16.124.1.04.244-.023.289-.118.135-.278.02-.754-.012-1.047-.016-.148-.021-.313-.094-.447-.129-.24-.416-.12-.496.082l.246-.188-.346-.001c-.09 0-.178.05-.221.127-.145.261-.213.529-.117.819.082.246.287.426.365.676.027.086.145.105.193.025.113-.192.1-.392.031-.598-.084-.263-.182-.395-.031-.665l-.221.126h.346c.123 0 .203-.08.246-.188l-.1.125c-.066.009-.131.018-.197.024-.17-.037-.17-.23-.137-.074.008.037.012.074.016.112.016.124.025.249.035.374.008.121.014.242.018.363l.004.133c0 .083-.033.09.027-.039.098-.038.193-.077.291-.118h-.004c.051.039.104.078.154.118l-.004-.007c-.104-.232-.496-.117-.477.13v.008l.074-.181c.141-.114.184-.052.066-.067a2.791 2.791 0 0 1-.242-.046 4.182 4.182 0 0 1-.24-.058c-.154-.041-.059-.062-.01.049-.014.102-.025.204-.039.307.002-.003.004-.004.004-.007a.254.254 0 0 0-.246-.422c-.033.008.188.351.197.34.031-.035.068-.066.104-.097.105-.092.221-.171.336-.25a4.48 4.48 0 0 1 .334-.206.696.696 0 0 1 .088-.043c.01-.004-.285.018-.229-.278.01-.058 0-.014-.018.01-.123.161.082.431.27.352l-.109-.002-.145-.11c-.045-.063-.018-.115-.021-.033-.002.027-.008.052-.012.078a4.507 4.507 0 0 1-.182.652c-.051.123-.063.025.057.009.061.008.121.017.182.023.021.023.045.047.068.068-.154-.215-.492-.087-.432.183.002.001.002.004.002.006l.164-.289c.078-.019-.084-.032-.107-.038-.051-.013-.107-.022-.148-.054l.107.14-.006-.01c-.02.075-.039.151-.061.228a.236.236 0 0 0-.037-.377c-.057-.037-.061-.131-.131-.171-.113-.059-.086-.014.08.134-.002-.034.008-.069.014-.101a1.679 1.679 0 0 1 .088-.279c.041-.093.068-.052-.035-.028l-.176-.023c.004.002.008.005.014.006.193.099.365-.061.336-.26v.105a23.76 23.76 0 0 1-.158.159c-.148.034-.205-.069-.096.045.049.052.094.105.139.16.08.1.172.217.221.337.029.073.271-.192.059-.128-.092.028-.203.104-.258-.058-.016-.047.059-.165.074-.21a.373.373 0 0 0-.004-.251c-.038-.116-.23-.107-.222.031z" fill="#fffccc"/></g></g><circle id="circle60" r="1.015" cy="51.954" cx="73.311" fill="#fffccc"/></g><g id="g80"><g id="g76"><g id="g66"><path id="path64" d="M85.599 55.173c.156 1.78.246 3.576.443 5.352.016.146.217.15.23 0 .158-1.773-.221-3.593-.422-5.352-.018-.157-.265-.162-.251 0z" fill="#fffccc"/></g><g id="g70"><path id="path68" d="M83.697 58.01c.826.11 1.678.084 2.51.12.732.033 1.475.132 2.186-.072.121-.034.121-.211 0-.246-.711-.203-1.453-.104-2.186-.071-.832.037-1.684.009-2.51.12-.096.014-.096.137 0 .149z" fill="#fffccc"/></g><g id="g74"><path id="path72" d="M85.74 57.72c.008.154-.191.27-.217.43-.037.221.15.376.309.491.213.152.734-.005.713-.312-.021-.279-.264-.55-.434-.754-.074-.088-.154-.182-.264-.222-.148-.055-.328.078-.309.237l.346-.199c-.453-.239-.863.968-.393 1.113a13.11 13.11 0 0 1-.141-.107.55.55 0 0 0 .213.258l-.047-.367-.01.009c-.053.054-.09.152-.059.228.092.227.5.343.729.291.131-.029.191-.169.164-.289v-.007l-.432.182c.531.76 1.137-1.671.443-1.385.09.117.18.233.27.352.162-.211.016-.506-.262-.444-.215.048-.426.205-.607.323-.201.13-.438.272-.578.471-.189.268.107.473.357.42l-.244-.422-.006.005c-.059.06-.1.165-.066.246.131.312 1.367.616 1.326.101l-.479.13c.031.066.096.1.16.124.1.04.244-.023.289-.118.135-.278.02-.754-.012-1.047-.016-.148-.021-.313-.094-.447-.129-.24-.416-.12-.496.082l.246-.188-.346-.001c-.09 0-.178.05-.221.127-.145.261-.213.529-.117.819.082.246.287.426.365.676.027.086.145.105.193.025.113-.192.1-.392.031-.598-.084-.263-.182-.395-.031-.665l-.221.126h.346c.123 0 .203-.08.246-.188l-.1.125c-.066.009-.131.018-.197.024-.17-.037-.17-.23-.137-.074.008.037.012.074.016.112.016.124.025.249.035.374.008.121.014.242.018.363l.004.133c0 .083-.033.09.027-.039.098-.038.193-.077.291-.118h-.004c.051.039.104.078.154.118l-.004-.007c-.104-.232-.496-.117-.477.13v.008l.074-.181c.141-.114.184-.052.066-.067a2.791 2.791 0 0 1-.242-.046 4.182 4.182 0 0 1-.24-.058c-.154-.041-.059-.062-.01.049-.014.102-.025.204-.039.307.002-.003.004-.004.004-.007a.254.254 0 0 0-.246-.422c-.033.008.188.351.197.34.031-.035.068-.066.104-.097.105-.092.221-.171.336-.25a4.48 4.48 0 0 1 .334-.206.696.696 0 0 1 .088-.043c.01-.004-.285.018-.229-.278.01-.058 0-.014-.018.01-.123.161.082.431.27.352l-.109-.002-.145-.11c-.045-.063-.018-.115-.021-.033-.002.027-.008.052-.012.078a4.507 4.507 0 0 1-.182.652c-.051.123-.063.025.057.009.061.008.121.017.182.023.021.023.045.047.068.068-.154-.215-.492-.087-.432.183.002.001.002.004.002.006l.164-.289c.078-.019-.084-.032-.107-.038-.051-.013-.107-.022-.148-.054l.107.14-.006-.01c-.02.075-.039.151-.061.228a.236.236 0 0 0-.037-.377c-.057-.037-.061-.131-.131-.171-.113-.059-.086-.014.08.134-.002-.034.008-.069.014-.101a1.679 1.679 0 0 1 .088-.279c.041-.093.068-.052-.035-.028l-.176-.023c.004.002.008.005.014.006.193.099.365-.061.336-.26v.105a23.76 23.76 0 0 1-.158.159c-.148.034-.205-.069-.096.045.049.052.094.105.139.16.08.1.172.217.221.337.029.073.271-.192.059-.128-.092.028-.203.104-.258-.058-.016-.047.059-.165.074-.21a.373.373 0 0 0-.004-.251c-.039-.115-.23-.106-.222.031z" fill="#fffccc"/></g></g><circle id="circle78" r="1.015" cy="57.882" cx="86.028" fill="#fffccc"/></g><g id="g98" transform="translate(-11.971 61.488)"><g id="g94"><g id="g84"><path id="path82" d="M47.224 24.298c.156 1.78.245 3.576.442 5.352.017.146.217.15.23 0 .159-1.773-.22-3.593-.422-5.352-.018-.157-.264-.162-.25 0z" fill="#fffccc"/></g><g id="g88"><path id="path86" d="M45.321 27.135c.825.11 1.678.084 2.51.12.731.033 1.474.132 2.186-.072.121-.034.121-.211 0-.246-.712-.203-1.454-.104-2.186-.071-.832.037-1.685.009-2.51.12-.095.014-.095.137 0 .149z" fill="#fffccc"/></g><g id="g92"><path id="path90" d="M47.363 26.845c.008.154-.19.27-.217.43-.037.221.15.376.31.491.212.152.734-.005.712-.312-.021-.279-.264-.55-.434-.754-.073-.088-.154-.182-.264-.222-.147-.055-.327.078-.308.237l.346-.199c-.454-.239-.864.968-.394 1.113l-.14-.107a.544.544 0 0 0 .213.258l-.048-.367-.009.009c-.053.054-.091.152-.06.228.092.227.501.343.729.291.13-.029.19-.169.164-.289l-.001-.007c-.144.062-.287.121-.431.182.531.76 1.137-1.671.442-1.385l.271.352c.162-.211.016-.506-.262-.444-.215.048-.427.205-.607.323-.201.13-.438.272-.578.471-.19.268.106.473.357.42l-.245-.422-.006.005c-.058.06-.099.165-.065.246.13.312 1.367.616 1.326.101l-.479.13c.03.066.095.1.159.124.1.04.244-.023.29-.118.134-.278.02-.754-.012-1.047-.016-.148-.022-.313-.094-.447-.13-.24-.417-.12-.497.082l.246-.188-.346-.001a.257.257 0 0 0-.22.127c-.146.261-.214.529-.118.819.082.246.288.426.366.676.026.086.145.105.192.025.114-.192.1-.392.032-.598-.085-.263-.182-.395-.032-.665l-.221.126h.346c.123 0 .203-.08.246-.188l-.1.125a4.365 4.365 0 0 1-.196.024c-.171-.037-.17-.23-.138-.074.008.037.012.074.017.112.016.124.024.249.034.374a14.702 14.702 0 0 1 .022.496c.001.083-.033.09.028-.039.097-.038.193-.077.29-.118h-.003c.051.039.103.078.153.118a.049.049 0 0 0-.003-.007c-.104-.232-.497-.117-.478.13l.001.008.074-.181c.14-.114.183-.052.066-.067a4.15 4.15 0 0 1-.482-.104c-.154-.041-.059-.062-.011.049l-.039.307.005-.007a.254.254 0 0 0-.246-.422c-.033.008.188.351.197.34.031-.035.068-.066.104-.097.105-.092.221-.171.336-.25.108-.073.22-.144.334-.206a.696.696 0 0 1 .088-.043c.01-.004-.285.018-.229-.278.011-.058 0-.014-.018.01-.123.161.082.431.27.352l-.109-.002-.144-.11c-.046-.063-.019-.115-.022-.033-.002.027-.007.052-.011.078-.016.093-.04.185-.063.276a3.922 3.922 0 0 1-.119.376c-.052.123-.063.025.057.009.06.008.12.017.181.023.022.023.045.047.068.068-.153-.215-.491-.087-.431.183l.001.006.165-.289c.078-.019-.084-.032-.108-.038-.05-.013-.106-.022-.148-.054l.107.14-.005-.01c-.021.075-.039.151-.061.228l.01-.01a.237.237 0 0 0-.047-.367c-.057-.037-.061-.131-.131-.171-.113-.059-.087-.014.08.134-.003-.034.007-.069.013-.101.014-.068.035-.134.057-.199l.031-.08c.041-.093.068-.052-.034-.028l-.177-.023c.005.002.009.005.014.006.193.099.365-.061.337-.26v.105l-.159.159c-.147.034-.205-.069-.096.045.05.052.094.105.139.16.081.1.173.217.221.337.03.073.271-.192.059-.128-.092.028-.203.104-.257-.058-.016-.047.058-.165.074-.21a.373.373 0 0 0-.005-.251c-.037-.115-.229-.106-.222.031z" fill="#fffccc"/></g></g><circle id="circle96" r="1.014" cy="27.007" cx="47.652" fill="#fffccc"/></g><g id="g116" transform="translate(.272 -10.067)"><g id="g112"><g id="g102"><path id="path100" d="M31.724 56.798c.156 1.78.245 3.576.442 5.352.017.146.217.15.23 0 .159-1.773-.22-3.593-.422-5.352-.018-.157-.264-.162-.25 0z" fill="#fffccc"/></g><g id="g106"><path id="path104" d="M29.821 59.635c.825.11 1.678.084 2.51.12.731.033 1.474.132 2.186-.072.121-.034.121-.211 0-.246-.712-.203-1.454-.104-2.186-.071-.832.037-1.685.009-2.51.12-.095.014-.095.137 0 .149z" fill="#fffccc"/></g><g id="g110"><path id="path108" d="M31.863 59.345c.008.154-.19.27-.217.43-.037.221.15.376.31.491.212.152.734-.005.712-.312-.021-.279-.264-.55-.434-.754-.073-.088-.154-.182-.264-.222-.147-.055-.327.078-.308.237l.346-.199c-.454-.239-.864.968-.394 1.113l-.14-.107a.544.544 0 0 0 .213.258l-.048-.367-.009.009c-.053.054-.091.152-.06.228.092.227.501.343.729.291.13-.029.19-.169.164-.289l-.001-.007c-.144.062-.287.121-.431.182.531.76 1.137-1.671.442-1.385l.271.352c.162-.211.016-.506-.262-.444-.215.048-.427.205-.607.323-.201.13-.438.272-.578.471-.19.268.106.473.357.42l-.245-.422-.006.005c-.058.06-.099.165-.065.246.13.312 1.367.616 1.326.101l-.479.13c.03.066.095.1.159.124.1.04.244-.023.29-.118.134-.278.02-.754-.012-1.047-.016-.148-.022-.313-.094-.447-.13-.24-.417-.12-.497.082l.246-.188-.346-.001a.257.257 0 0 0-.22.127c-.146.261-.214.529-.118.819.082.246.288.426.366.676.026.086.145.105.192.025.114-.192.1-.392.032-.598-.085-.263-.182-.395-.032-.665l-.221.126h.346c.123 0 .203-.08.246-.188l-.1.125a4.365 4.365 0 0 1-.196.024c-.171-.037-.17-.23-.138-.074.008.037.012.074.017.112.016.124.024.249.034.374a14.702 14.702 0 0 1 .022.496c.001.083-.033.09.028-.039.097-.038.193-.077.29-.118h-.003c.051.039.103.078.153.118a.049.049 0 0 0-.003-.007c-.104-.232-.497-.117-.478.13l.001.008.074-.181c.14-.114.183-.052.066-.067a4.15 4.15 0 0 1-.482-.104c-.154-.041-.059-.062-.011.049l-.039.307.005-.007a.254.254 0 0 0-.246-.422c-.033.008.188.351.197.34.031-.035.068-.066.104-.097.105-.092.221-.171.336-.25.108-.073.22-.144.334-.206a.696.696 0 0 1 .088-.043c.01-.004-.285.018-.229-.278.011-.058 0-.014-.018.01-.123.161.082.431.27.352l-.109-.002-.144-.11c-.046-.063-.019-.115-.022-.033-.002.027-.007.052-.011.078-.016.093-.04.185-.063.276a3.922 3.922 0 0 1-.119.376c-.052.123-.063.025.057.009.06.008.12.017.181.023.022.023.045.047.068.068-.153-.215-.491-.087-.431.183l.001.006.165-.289c.078-.019-.084-.032-.108-.038-.05-.013-.106-.022-.148-.054l.107.14-.005-.01c-.021.075-.039.151-.061.228l.01-.01a.237.237 0 0 0-.047-.367c-.057-.037-.061-.131-.131-.171-.113-.059-.087-.014.08.134-.003-.034.007-.069.013-.101.014-.068.035-.134.057-.199l.031-.08c.041-.093.068-.052-.034-.028l-.177-.023c.005.002.009.005.014.006.193.099.365-.061.337-.26v.105l-.159.159c-.147.034-.205-.069-.096.045.05.052.094.105.139.16.081.1.173.217.221.337.03.073.271-.192.059-.128-.092.028-.203.104-.257-.058-.016-.047.058-.165.074-.21a.373.373 0 0 0-.005-.251c-.037-.115-.229-.106-.222.031z" fill="#fffccc"/></g></g><circle id="circle114" r="1.014" cy="59.507" cx="32.152" fill="#fffccc"/></g><g id="g134" transform="translate(-6.258 5.986)"><g id="g130"><g id="g120"><path id="path118" d="M25.603 61.855c.156 1.78.245 3.576.442 5.352.017.146.217.15.23 0 .159-1.773-.22-3.593-.422-5.352-.018-.157-.264-.162-.25 0z" fill="#fffccc"/></g><g id="g124"><path id="path122" d="M23.7 64.692c.825.11 1.678.084 2.51.12.731.033 1.474.132 2.186-.072.121-.034.121-.211 0-.246-.712-.203-1.454-.104-2.186-.071-.832.037-1.685.009-2.51.12-.096.013-.096.136 0 .149z" fill="#fffccc"/></g><g id="g128"><path id="path126" d="M25.742 64.402c.008.154-.19.27-.217.43-.037.221.15.376.31.491.212.152.734-.005.712-.312-.021-.279-.264-.55-.434-.754-.073-.088-.154-.182-.264-.222-.147-.055-.327.078-.308.237l.346-.199c-.454-.239-.864.968-.394 1.113l-.14-.107a.544.544 0 0 0 .213.258l-.048-.367-.009.009c-.053.054-.091.152-.06.228.092.227.501.343.729.291.13-.029.19-.169.164-.289l-.001-.007c-.144.062-.287.121-.431.182.531.76 1.137-1.671.442-1.385l.271.352c.162-.211.016-.506-.262-.444-.215.048-.427.205-.607.323-.201.13-.438.272-.578.471-.19.268.106.473.357.42l-.245-.422-.006.005c-.058.06-.099.165-.065.246.13.312 1.367.616 1.326.101l-.479.13c.03.066.095.1.159.124.1.04.244-.023.29-.118.134-.278.02-.754-.012-1.047-.016-.148-.022-.313-.094-.447-.13-.24-.417-.12-.497.082l.246-.188-.346-.001a.257.257 0 0 0-.22.127c-.146.261-.214.529-.118.819.082.246.288.426.366.676.026.086.145.105.192.025.114-.192.1-.392.032-.598-.085-.263-.182-.395-.032-.665l-.221.126h.346c.123 0 .203-.08.246-.188l-.1.125a4.365 4.365 0 0 1-.196.024c-.171-.037-.17-.23-.138-.074.008.037.012.074.017.112.016.124.024.249.034.374a14.702 14.702 0 0 1 .022.496c.001.083-.033.09.028-.039.097-.038.193-.077.29-.118h-.003c.051.039.103.078.153.118a.049.049 0 0 0-.003-.007c-.104-.232-.497-.117-.478.13l.001.008.074-.181c.14-.114.183-.052.066-.067a4.15 4.15 0 0 1-.482-.104c-.154-.041-.059-.062-.011.049l-.039.307.005-.007a.254.254 0 0 0-.246-.422c-.033.008.188.351.197.34.031-.035.068-.066.104-.097.105-.092.221-.171.336-.25.108-.073.22-.144.334-.206a.696.696 0 0 1 .088-.043c.01-.004-.285.018-.229-.278.011-.058 0-.014-.018.01-.123.161.082.431.27.352l-.109-.002-.144-.11c-.046-.063-.019-.115-.022-.033-.002.027-.007.052-.011.078-.016.093-.04.185-.063.276a3.922 3.922 0 0 1-.119.376c-.052.123-.063.025.057.009.06.008.12.017.181.023.022.023.045.047.068.068-.153-.215-.491-.087-.431.183l.001.006.165-.289c.078-.019-.084-.032-.108-.038-.05-.013-.106-.022-.148-.054l.107.14-.005-.01c-.021.075-.039.151-.061.228l.01-.01a.237.237 0 0 0-.047-.367c-.057-.037-.061-.131-.131-.171-.113-.059-.087-.014.08.134-.003-.034.007-.069.013-.101.014-.068.035-.134.057-.199l.031-.08c.041-.093.068-.052-.034-.028l-.177-.023c.005.002.009.005.014.006.193.099.365-.061.337-.26v.105l-.159.159c-.147.034-.205-.069-.096.045.05.052.094.105.139.16.081.1.173.217.221.337.03.073.271-.192.059-.128-.092.028-.203.104-.257-.058-.016-.047.058-.165.074-.21a.373.373 0 0 0-.005-.251c-.037-.116-.229-.107-.222.031z" fill="#fffccc"/></g></g><circle id="circle132" r="1.014" cy="64.564" cx="26.031" fill="#fffccc"/></g><g id="g152" transform="translate(-7.074 -2.177)"><g id="g148"><g id="g138"><path id="path136" d="M23.902 40.309c.156 1.78.245 3.576.442 5.352.017.146.217.15.23 0 .159-1.773-.22-3.593-.422-5.352-.017-.157-.263-.162-.25 0z" fill="#fffccc"/></g><g id="g142"><path id="path140" d="M22 43.146c.825.11 1.678.084 2.51.12.731.033 1.474.132 2.186-.072.121-.034.121-.211 0-.246-.712-.203-1.454-.104-2.186-.071-.832.037-1.685.009-2.51.12-.096.013-.096.136 0 .149z" fill="#fffccc"/></g><g id="g146"><path id="path144" d="M24.042 42.856c.008.154-.19.27-.217.43-.037.221.15.376.31.491.212.152.734-.005.712-.312-.021-.279-.264-.55-.434-.754-.073-.088-.154-.182-.264-.222-.147-.055-.327.078-.308.237l.346-.199c-.454-.239-.864.968-.394 1.113l-.14-.107a.544.544 0 0 0 .213.258l-.048-.367-.009.009c-.053.054-.091.152-.06.228.092.227.501.343.729.291.13-.029.19-.169.164-.289l-.001-.007c-.144.062-.287.121-.431.182.531.76 1.137-1.671.442-1.385l.271.352c.162-.211.016-.506-.262-.444-.215.048-.427.205-.607.323-.201.13-.438.272-.578.471-.19.268.106.473.357.42l-.245-.422-.006.005c-.058.06-.099.165-.065.246.13.312 1.367.616 1.326.101l-.479.13c.03.066.095.1.159.124.1.04.244-.023.29-.118.134-.278.02-.754-.012-1.047-.016-.148-.022-.313-.094-.447-.13-.24-.417-.12-.497.082l.246-.188-.346-.001a.257.257 0 0 0-.22.127c-.146.261-.214.529-.118.819.082.246.288.426.366.676.026.086.145.105.192.025.114-.192.1-.392.032-.598-.085-.263-.182-.395-.032-.665l-.221.126h.346c.123 0 .203-.08.246-.188l-.1.125a4.365 4.365 0 0 1-.196.024c-.171-.037-.17-.23-.138-.074.008.037.012.074.017.112.016.124.024.249.034.374a14.702 14.702 0 0 1 .022.496c.001.083-.033.09.028-.039.097-.038.193-.077.29-.118h-.003c.051.039.103.078.153.118a.049.049 0 0 0-.003-.007c-.104-.232-.497-.117-.478.13l.001.008.074-.181c.14-.114.183-.052.066-.067a4.15 4.15 0 0 1-.482-.104c-.154-.041-.059-.062-.011.049l-.039.307.005-.007a.254.254 0 0 0-.246-.422c-.033.008.188.351.197.34.031-.035.068-.066.104-.097.105-.092.221-.171.336-.25.108-.073.22-.144.334-.206a.696.696 0 0 1 .088-.043c.01-.004-.285.018-.229-.278.011-.058 0-.014-.018.01-.123.161.082.431.27.352l-.109-.002-.144-.11c-.046-.063-.019-.115-.022-.033-.002.027-.007.052-.011.078-.016.093-.04.185-.063.276a3.922 3.922 0 0 1-.119.376c-.052.123-.063.025.057.009.06.008.12.017.181.023.022.023.045.047.068.068-.153-.215-.491-.087-.431.183l.001.006.165-.289c.078-.019-.084-.032-.108-.038-.05-.013-.106-.022-.148-.054l.107.14-.005-.01c-.021.075-.039.151-.061.228l.01-.01a.237.237 0 0 0-.047-.367c-.057-.037-.061-.131-.131-.171-.113-.059-.087-.014.08.134-.003-.034.007-.069.013-.101.014-.068.035-.134.057-.199l.031-.08c.041-.093.068-.052-.034-.028l-.177-.023c.005.002.009.005.014.006.193.099.365-.061.337-.26v.105l-.159.159c-.147.034-.205-.069-.096.045.05.052.094.105.139.16.081.1.173.217.221.337.03.073.271-.192.059-.128-.092.028-.203.104-.257-.058-.016-.047.058-.165.074-.21a.373.373 0 0 0-.005-.251c-.037-.116-.229-.107-.222.031z" fill="#fffccc"/></g></g><circle id="circle150" r="1.014" cy="43.018" cx="24.331" fill="#fffccc"/></g><g id="g170" transform="translate(5.17 52.51)"><g id="g166"><g id="g156"><path id="path154" d="M69.796 33.255c.217 2.48.342 4.984.617 7.457.021.205.301.209.32 0 .223-2.471-.307-5.007-.588-7.457-.024-.219-.368-.227-.349 0z" fill="#fffccc"/></g><g id="g160"><path id="path158" d="M67.144 37.208c1.15.154 2.338.116 3.498.168 1.021.045 2.055.183 3.047-.102.17-.048.17-.293 0-.342-.992-.284-2.025-.146-3.047-.101-1.16.051-2.348.013-3.498.167-.133.02-.133.192 0 .21z" fill="#fffccc"/></g><g id="g164"><path id="path162" d="M69.992 36.804c.01.214-.268.376-.305.599-.051.308.211.524.434.684.295.212 1.021-.006.992-.433-.027-.39-.367-.767-.605-1.052-.102-.122-.215-.253-.367-.31-.205-.075-.457.11-.428.331l.48-.276c-.633-.333-1.205 1.349-.549 1.551a25.035 25.035 0 0 1-.193-.149.74.74 0 0 0 .297.358 44.785 44.785 0 0 1-.066-.512c-.006.004-.008.009-.014.013-.074.075-.125.213-.082.317.127.315.699.478 1.016.406.182-.041.266-.235.23-.403-.002-.004-.002-.007-.002-.01l-.6.253c.738 1.06 1.584-2.328.615-1.93l.377.489c.227-.294.021-.704-.363-.618-.301.066-.596.285-.848.449-.281.182-.609.381-.807.656-.266.373.148.66.5.586l-.344-.588a.03.03 0 0 1-.008.008c-.08.082-.137.229-.09.343.18.433 1.904.857 1.848.139l-.666.181c.043.094.133.139.221.174.139.056.34-.032.404-.164.188-.389.027-1.051-.016-1.46-.021-.206-.033-.437-.131-.623-.18-.334-.58-.168-.691.114.113-.088.227-.174.342-.261l-.482-.001a.355.355 0 0 0-.307.177c-.203.362-.299.736-.164 1.141.113.345.402.594.51.942.039.12.203.147.27.035.158-.268.139-.545.045-.832-.119-.367-.254-.55-.045-.927-.104.058-.205.116-.309.176l.482-.001c.172.001.283-.111.342-.261l-.137.174-.275.035c-.236-.054-.236-.323-.191-.104.01.052.018.104.023.155.021.173.035.348.047.521.012.169.021.337.025.506.004.062.004.123.006.186 0 .114-.047.125.039-.054l.404-.164-.004-.001c.07.055.143.109.213.163l-.004-.008c-.143-.324-.691-.164-.666.18l.002.013c.035-.084.068-.169.104-.253.195-.159.254-.071.092-.094-.113-.015-.227-.04-.338-.063a6.753 6.753 0 0 1-.334-.081c-.215-.058-.082-.085-.016.068-.018.142-.035.284-.055.427l.008-.009a.354.354 0 0 0-.342-.588c-.049.011.26.489.273.474.043-.05.096-.093.145-.136.146-.127.309-.238.469-.348.15-.103.305-.2.465-.287.061-.032.102-.053.123-.06.014-.006-.398.025-.32-.388.016-.081 0-.02-.025.013-.17.225.115.601.377.49l-.152-.003a13.247 13.247 0 0 0-.199-.153c-.064-.087-.025-.162-.033-.046-.002.037-.008.071-.014.108-.023.129-.057.257-.088.384a6.805 6.805 0 0 1-.117.393c-.016.044-.029.09-.049.133-.072.171-.086.036.078.012.084.012.168.022.254.033l.094.096c-.213-.3-.684-.122-.6.253l.002.009c.076-.135.152-.27.229-.403.111-.025-.117-.044-.15-.053-.068-.017-.148-.03-.207-.074l.15.195-.006-.016-.084.317.012-.013a.331.331 0 0 0-.066-.512c-.078-.051-.082-.182-.182-.239-.158-.08-.121-.019.111.187-.004-.047.01-.095.018-.14.02-.095.051-.186.08-.276.014-.038.027-.076.045-.113.057-.128.094-.072-.049-.039l-.248-.033.02.01c.27.136.51-.084.471-.361v.145l-.223.224c-.207.048-.285-.098-.133.063.068.07.131.146.193.223.113.139.24.302.309.469.041.104.377-.267.08-.177-.127.039-.283.144-.357-.081-.021-.065.08-.23.104-.293a.523.523 0 0 0-.006-.349c-.062-.163-.328-.15-.318.042z" fill="#fffccc"/></g></g><circle id="circle168" r="1.413" cy="37.03" cx="70.393" fill="#fffccc"/></g><g id="Layer_2_5_"><g id="Layer_16_6_"><path id="path754" d="M9.826 37.712v53.103l46.072 26.551 46.076-26.551V37.712L55.898 11.159zm90.283 1.08v50.954l-44.21 25.481-44.211-25.481V38.792l44.21-25.482z" opacity=".13"/></g></g><style id="style2" type="text/css">.st5{fill:#e8eee6}.st6{fill:#11083a}</style><style type="text/css" id="style2217">.st5{fill:#e8eee6}.st6{fill:#11083a}</style><g id="g1893" transform="translate(87.69 1.184)"><g transform="matrix(-.93425 0 0 .93425 20.992 -8.194)" id="g2266"><path class="st5" d="M70.76 58.693c-.045-.038-.23-.16-.236-.22.106.13.12.144.044.042l-.046-.067a1.971 1.971 0 0 1-.079-.134 9.816 9.816 0 0 0-.165-.363c-.236-.488-.648-.825-1.088-1.12-.721-.481-1.534-.825-2.354-1.102a38.834 38.834 0 0 0-.05-1.13c-.037-.61-.563-1.181-1.205-1.133-.616.047-1.17.552-1.131 1.204.089 1.498.09 3 .005 4.498-.035.611.613 1.177 1.204 1.132.59-.045.983-.43 1.099-.961l.03.009c.023.01.049.02.06.026.044.021.088.044.13.069.033.018.064.038.095.057.154.128.308.254.455.39.353.326.7.65 1.107.911.765.49 1.634.161 2.197-.458.408-.448.419-1.247-.071-1.65z" id="path2264" fill="#e8eee6"/></g><g transform="matrix(-.93425 0 0 .93425 20.992 -8.194)" id="g2294"><path class="st5" d="M78.41 80.562h.174v2.355h-1.206v-2.355h-.05v3.182h-1.392v-3.182h-.881v2.04h-1.206v-2.04h.371a.694.694 0 0 1-.653-.927l.961-2.686a.698.698 0 0 1 .658-.463s-.123-1.208-.503-3.02a39.44 39.44 0 0 0-.891-3.474 32.655 32.655 0 0 0-1.198-3.292 24.378 24.378 0 0 0-1.617-3.156 17.028 17.028 0 0 0-2.197-2.883l2.156-2.158a20.227 20.227 0 0 1 2.59 3.36 24.881 24.881 0 0 1 1.796 3.508c.522 1.244.932 2.48 1.254 3.651 1.164 4.221 1.193 7.615 1.193 7.615a.699.699 0 0 1 .216.289l1.07 2.686a.694.694 0 0 1-.644.95z" id="path2292" fill="#e8eee6"/></g><g transform="matrix(-.93425 0 0 .93425 20.992 -8.194)" id="g2466"><g id="g2420"><path class="st6" d="M65.164 60.497c-.063 0-.127-.004-.191-.012l.072-.592a.977.977 0 0 0 1.086-.85l.5-4.116a.977.977 0 0 0-.85-1.087l.072-.592c.86.105 1.476.89 1.37 1.751l-.5 4.115a1.575 1.575 0 0 1-1.56 1.383z" id="path2418" fill="#11083a"/></g><g id="g2424"><path class="st6" d="M78.41 80.86h-4.19a.992.992 0 0 1-.933-1.325l.96-2.687a1 1 0 0 1 .939-.66h2.15a.999.999 0 0 1 .925.626l1.071 2.688a.991.991 0 0 1-.921 1.359zm-3.224-4.076a.401.401 0 0 0-.377.265l-.96 2.687a.39.39 0 0 0 .048.36.39.39 0 0 0 .323.168h4.19a.39.39 0 0 0 .327-.173.39.39 0 0 0 .04-.369l-1.07-2.686a.401.401 0 0 0-.371-.252z" id="path2422" fill="#11083a"/></g><g id="g2428"><path class="st6" d="M77.627 84.042h-1.989v-3.778h1.989zm-1.392-.597h.795v-2.584h-.795z" id="path2426" fill="#11083a"/></g><g id="g2432"><path class="st6" d="M78.882 83.215H77.08v-2.951h1.802zm-1.206-.596h.61V80.86h-.61z" id="path2430" fill="#11083a"/></g><g id="g2436"><path class="st6" d="M75.353 82.9H73.55v-2.636h1.803zm-1.206-.596h.61V80.86h-.61z" id="path2434" fill="#11083a"/></g><g id="g2440"><path class="st6" d="M74.89 76.516a32.45 32.45 0 0 0-.5-2.99 39.049 39.049 0 0 0-.883-3.446 32.425 32.425 0 0 0-1.187-3.263 24.146 24.146 0 0 0-1.597-3.117 16.762 16.762 0 0 0-2.159-2.833 12.104 12.104 0 0 0-2.256-1.864l.319-.504a12.708 12.708 0 0 1 2.368 1.955 17.36 17.36 0 0 1 2.236 2.934 24.732 24.732 0 0 1 1.638 3.195 33.15 33.15 0 0 1 1.208 3.322 39.69 39.69 0 0 1 .898 3.5c.378 1.806.502 3 .508 3.05z" id="path2438" fill="#11083a"/></g><g id="g2444"><path class="st6" d="M77.47 76.64c0-.034-.042-3.408-1.181-7.539a29.952 29.952 0 0 0-1.242-3.615 24.65 24.65 0 0 0-1.774-3.465 20 20 0 0 0-2.552-3.311 17.353 17.353 0 0 0-3.931-3.075l.295-.519a17.948 17.948 0 0 1 4.066 3.18 20.6 20.6 0 0 1 2.629 3.41 25.249 25.249 0 0 1 1.817 3.55c.486 1.16.913 2.4 1.267 3.687 1.16 4.21 1.203 7.657 1.203 7.691z" id="path2442" fill="#11083a"/></g><g id="g2448"><path transform="rotate(-45.02 69.852 59.578)" class="st6" id="rect2446" d="M68.333 59.284h3.05v.596h-3.05z" fill="#11083a"/></g><g id="g2452"><path transform="rotate(-33.395 72.253 62.705)" class="st6" id="rect2450" d="M70.725 62.406h3.054v.597h-3.054z" fill="#11083a"/></g><g id="g2456"><path transform="rotate(-25.986 73.963 66.043)" class="st6" id="rect2454" d="M72.441 65.737h3.034v.596h-3.034z" fill="#11083a"/></g><g id="g2460"><path transform="rotate(-19.213 75.182 69.504)" class="st6" id="rect2458" d="M73.71 69.209h2.949v.597H73.71z" fill="#11083a"/></g><g id="g2464"><path transform="rotate(-9.667 76.018 73.215)" class="st6" id="rect2462" d="M74.663 72.938h2.734v.597h-2.734z" fill="#11083a"/></g></g><g transform="translate(-84.08 -8.19) scale(.93425)" id="g43"><path class="st5" d="M61.41 43.645a1.032 1.032 0 0 0-.21-.632c.15-.38.227-.785.18-1.205-.088-.804-.535-1.559-1.278-1.918-.466-.225-.944-.23-1.442-.137-.152.028-.298.07-.446.114-.067.02-.136.037-.203.058l-.015.003-.006.001-.057.001-.04-.006-.078-.018c-.158-.039-.312-.093-.467-.144a3.414 3.414 0 0 0-1.089-.182 1.164 1.164 0 0 0-.85.412c-.184-.433-.65-.762-1.12-.727-.634.049-1.01.47-1.11 1.042-.611-.134-1.21.202-1.514.736-.335.59-.382 1.293-.383 1.956-.001.622.003 1.245.005 1.868l.01 4.263c.002.611.587 1.179 1.204 1.132.243-.018.463-.1.643-.23.176.227.429.381.77.415.362.037.674-.088.905-.314.27.275.697.408 1.06.347a1.24 1.24 0 0 0 .883-.663c.236.245.576.38.923.358.054.259.34.563.566.671a1.2 1.2 0 0 0 .736.11c.417-.07.71-.327.861-.674a.994.994 0 0 0 .393.05c.642-.048 1.139-.549 1.132-1.203-.019-1.828-.036-3.657.037-5.484z" id="path41" fill="#e8eee6"/></g><g transform="translate(-84.08 -8.19) scale(.93425)" id="g47"><path class="st5" d="M61.498 33.249c-.14-.527-.493-1.04-.747-1.52-.24-.454-.453-.943-.735-1.372a1.818 1.818 0 0 0-.773-.674c-.326-.139-.609-.168-.953-.206.21.023-.111-.016-.187-.028a5.651 5.651 0 0 1-.651-.146.924.924 0 0 0 .056-.183l.03-.301a1.176 1.176 0 0 0-.183-.593l-.195-.232a1.174 1.174 0 0 0-.524-.277.868.868 0 0 0-.53-.028.884.884 0 0 0-.44.157.88.88 0 0 0-.317.317.882.882 0 0 0-.191.402l-.03.302c.005.129.029.251.072.368-.493.154-.995.293-1.481.467-.649.233-1.117.61-1.469 1.203-.6 1.013-1.123 2.282-.96 3.48.044.32.131.6.378.825.207.19.54.329.826.307.376-.029.78-.257.992-.592a17.39 17.39 0 0 0 2.729.132 18.823 18.823 0 0 1 1.466.019c.032.006.064.013.093.017.112.018.223.039.334.064.11.026.217.064.326.09l.005.002.152.067c.164.077.344.116.524.12l.003.003c.151.237.438.456.719.509.301.056.636.028.894-.154.266-.186.397-.417.509-.719.226-.614.434-1.157.258-1.826z" id="path45" fill="#e8eee6"/></g><g transform="translate(-84.08 -8.19) scale(.93425)" id="g51"><path class="st5" d="M70.76 58.693c-.045-.038-.23-.16-.236-.22.106.13.12.144.044.042l-.046-.067a1.971 1.971 0 0 1-.079-.134 9.816 9.816 0 0 0-.165-.363c-.236-.488-.648-.825-1.088-1.12-.721-.481-1.534-.825-2.354-1.102a38.834 38.834 0 0 0-.05-1.13c-.037-.61-.563-1.181-1.205-1.133-.616.047-1.17.552-1.131 1.204.089 1.498.09 3 .005 4.498-.035.611.613 1.177 1.204 1.132.59-.045.983-.43 1.099-.961l.03.009c.023.01.049.02.06.026.044.021.088.044.13.069.033.018.064.038.095.057.154.128.308.254.455.39.353.326.7.65 1.107.911.765.49 1.634.161 2.197-.458.408-.448.419-1.247-.071-1.65z" id="path49" fill="#e8eee6"/></g><g transform="translate(-84.08 -8.19) scale(.93425)" id="g67"><path class="st5" id="rect65" d="M52.546 43.951h7.696v3.262h-7.696z" fill="#e8eee6"/></g><g transform="translate(-84.08 -8.19) scale(.93425)" id="g79"><path class="st5" d="M78.41 80.562h.174v2.355h-1.206v-2.355h-.05v3.182h-1.392v-3.182h-.881v2.04h-1.206v-2.04h.371a.694.694 0 0 1-.653-.927l.961-2.686a.698.698 0 0 1 .658-.463s-.123-1.208-.503-3.02a39.44 39.44 0 0 0-.891-3.474 32.655 32.655 0 0 0-1.198-3.292 24.378 24.378 0 0 0-1.617-3.156 17.028 17.028 0 0 0-2.197-2.883l2.156-2.158a20.227 20.227 0 0 1 2.59 3.36 24.881 24.881 0 0 1 1.796 3.508c.522 1.244.932 2.48 1.254 3.651 1.164 4.221 1.193 7.615 1.193 7.615a.699.699 0 0 1 .216.289l1.07 2.686a.694.694 0 0 1-.644.95z" id="path77" fill="#e8eee6"/></g><g transform="translate(-84.08 -8.19) scale(.93425)" id="g123"><path class="st6" id="polygon121" d="M51.17 49.575v-8.914h.596v8.318h9.255v-8.352h.597v8.948z" fill="#11083a"/></g><g transform="translate(-84.08 -8.19) scale(.93425)" id="g127"><path class="st6" d="M61.618 34.796h-.597v-.925a4.633 4.633 0 0 0-4.627-4.627 4.633 4.633 0 0 0-4.628 4.627v.895h-.596v-.895a5.23 5.23 0 0 1 5.224-5.224 5.23 5.23 0 0 1 5.224 5.224z" id="path125" fill="#11083a"/></g><g transform="translate(-84.08 -8.19) scale(.93425)" id="g133"><path id="rect129" d="M52.546 43.951h7.696v3.262h-7.696z" fill="#ffcc2c"/><path class="st6" d="M60.242 47.511h-7.696a.298.298 0 0 1-.299-.298v-3.262c0-.165.134-.298.299-.298h7.696c.165 0 .298.134.298.298v3.262a.298.298 0 0 1-.298.298zm-7.398-.596h7.1v-2.666h-7.1z" id="path131" fill="#11083a"/></g><g transform="translate(-84.08 -8.19) scale(.93425)" id="g137"><path class="st6" d="M60.242 46.403c-.432 0-.642-.304-.795-.526-.144-.209-.202-.27-.305-.27-.103 0-.16.061-.304.27-.153.222-.364.526-.795.526-.431 0-.641-.304-.795-.526-.144-.209-.201-.27-.304-.27-.103 0-.16.061-.305.27-.153.222-.363.526-.795.526-.43 0-.641-.304-.795-.526-.144-.209-.201-.27-.304-.27-.103 0-.16.061-.304.27-.154.222-.364.526-.795.526-.432 0-.642-.304-.796-.526-.144-.209-.201-.27-.304-.27a.298.298 0 1 1 0-.596c.431 0 .642.304.795.526.144.209.202.27.305.27.102 0 .16-.061.304-.27.153-.222.364-.526.795-.526.431 0 .642.304.795.526.144.209.202.27.304.27.103 0 .16-.061.305-.27.153-.222.364-.526.795-.526.431 0 .641.304.795.526.144.209.201.27.304.27.103 0 .16-.061.304-.27.154-.222.364-.526.795-.526.432 0 .642.304.795.526.144.209.202.27.305.27a.298.298 0 1 1 0 .596z" id="path135" fill="#11083a"/></g><g transform="translate(-84.08 -8.19) scale(.93425)" id="g141"><path class="st6" d="M60.748 75.873H52.04c-.59 0-1.159-.173-1.647-.5a2.968 2.968 0 0 1-1.304-2.116l-2.346-19.478a.776.776 0 0 1 .144-.55l.002-.006.021-.027a.78.78 0 0 1 .607-.29h17.755a.78.78 0 0 1 .607.29l.024.032a.77.77 0 0 1 .143.552L63.7 73.257a2.986 2.986 0 0 1-1.462 2.215c-.45.262-.965.4-1.489.4zM47.363 53.586a.181.181 0 0 0-.028.121l2.346 19.478a2.373 2.373 0 0 0 2.358 2.09h8.71c.418 0 .83-.11 1.19-.319a2.387 2.387 0 0 0 1.168-1.77l2.346-19.478a.176.176 0 0 0-.028-.12l-.02-.02-.009-.015a.18.18 0 0 0-.125-.05H47.516a.18.18 0 0 0-.125.05l-.007.013z" id="path139" fill="#11083a"/></g><g transform="translate(-84.08 -8.19) scale(.93425)" id="g151"><g id="g145"><path class="st6" d="M47.34 53.607l-.2-.22h-.299l.05-.125-.018-.009.015-.026c.032-.052.8-1.283 1.92-2.329l.143-.13a16.525 16.525 0 0 1 2.364-1.747l.306.512c-.002.001-.209.125-.52.334a15.935 15.935 0 0 0-1.886 1.467 12.11 12.11 0 0 0-1.812 2.194l-.019.038z" id="path143" fill="#11083a"/></g><g id="g149"><path class="st6" d="M65.447 53.607l-.043-.038-.019-.04a12.102 12.102 0 0 0-1.813-2.194 11.217 11.217 0 0 0-.52-.456 16.987 16.987 0 0 0-1.313-.978 13.43 13.43 0 0 0-.573-.368l.307-.512a17.585 17.585 0 0 1 1.96 1.398c.189.157.373.318.546.48a12.793 12.793 0 0 1 1.905 2.303l.062.065v.12h-.3.002l-.01.01zm.193-.22h.006zm-.29 0h.289z" id="path147" fill="#11083a"/></g></g><g transform="translate(-84.08 -8.19) scale(.93425)" id="g251"><g id="g205"><path class="st6" d="M65.164 60.497c-.063 0-.127-.004-.191-.012l.072-.592a.977.977 0 0 0 1.086-.85l.5-4.116a.977.977 0 0 0-.85-1.087l.072-.592c.86.105 1.476.89 1.37 1.751l-.5 4.115a1.575 1.575 0 0 1-1.56 1.383z" id="path203" fill="#11083a"/></g><g id="g209"><path class="st6" d="M78.41 80.86h-4.19a.992.992 0 0 1-.933-1.325l.96-2.687a1 1 0 0 1 .939-.66h2.15a.999.999 0 0 1 .925.626l1.071 2.688a.991.991 0 0 1-.921 1.359zm-3.224-4.076a.401.401 0 0 0-.377.265l-.96 2.687a.39.39 0 0 0 .048.36.39.39 0 0 0 .323.168h4.19a.39.39 0 0 0 .327-.173.39.39 0 0 0 .04-.369l-1.07-2.686a.401.401 0 0 0-.371-.252z" id="path207" fill="#11083a"/></g><g id="g213"><path class="st6" d="M77.627 84.042h-1.989v-3.778h1.989zm-1.392-.597h.795v-2.584h-.795z" id="path211" fill="#11083a"/></g><g id="g217"><path class="st6" d="M78.882 83.215H77.08v-2.951h1.802zm-1.206-.596h.61V80.86h-.61z" id="path215" fill="#11083a"/></g><g id="g221"><path class="st6" d="M75.353 82.9H73.55v-2.636h1.803zm-1.206-.596h.61V80.86h-.61z" id="path219" fill="#11083a"/></g><g id="g225"><path class="st6" d="M74.89 76.516a32.45 32.45 0 0 0-.5-2.99 39.049 39.049 0 0 0-.883-3.446 32.425 32.425 0 0 0-1.187-3.263 24.146 24.146 0 0 0-1.597-3.117 16.762 16.762 0 0 0-2.159-2.833 12.104 12.104 0 0 0-2.256-1.864l.319-.504a12.708 12.708 0 0 1 2.368 1.955 17.36 17.36 0 0 1 2.236 2.934 24.732 24.732 0 0 1 1.638 3.195 33.15 33.15 0 0 1 1.208 3.322 39.69 39.69 0 0 1 .898 3.5c.378 1.806.502 3 .508 3.05z" id="path223" fill="#11083a"/></g><g id="g229"><path class="st6" d="M77.47 76.64c0-.034-.042-3.408-1.181-7.539a29.952 29.952 0 0 0-1.242-3.615 24.65 24.65 0 0 0-1.774-3.465 20 20 0 0 0-2.552-3.311 17.353 17.353 0 0 0-3.931-3.075l.295-.519a17.948 17.948 0 0 1 4.066 3.18 20.6 20.6 0 0 1 2.629 3.41 25.249 25.249 0 0 1 1.817 3.55c.486 1.16.913 2.4 1.267 3.687 1.16 4.21 1.203 7.657 1.203 7.691z" id="path227" fill="#11083a"/></g><g id="g233"><path transform="rotate(-45.02 69.852 59.578)" class="st6" id="rect231" d="M68.333 59.284h3.05v.596h-3.05z" fill="#11083a"/></g><g id="g237"><path transform="rotate(-33.395 72.253 62.705)" class="st6" id="rect235" d="M70.725 62.406h3.054v.597h-3.054z" fill="#11083a"/></g><g id="g241"><path transform="rotate(-25.986 73.963 66.043)" class="st6" id="rect239" d="M72.441 65.737h3.034v.596h-3.034z" fill="#11083a"/></g><g id="g245"><path transform="rotate(-19.213 75.182 69.504)" class="st6" id="rect243" d="M73.71 69.209h2.949v.597H73.71z" fill="#11083a"/></g><g id="g249"><path transform="rotate(-9.667 76.018 73.215)" class="st6" id="rect247" d="M74.663 72.938h2.734v.597h-2.734z" fill="#11083a"/></g></g><g transform="translate(-84.08 -8.19) scale(.93425)" id="g255"><path class="st6" d="M60.972 72.987H52.15c-.652 0-1.192-.49-1.256-1.138l-1.276-13.002a.976.976 0 0 1 .97-1.07h11.63a.977.977 0 0 1 .97 1.046l-.957 12.995a1.267 1.267 0 0 1-1.259 1.17zM50.587 58.375a.373.373 0 0 0-.279.123.372.372 0 0 0-.096.29l1.276 13.002c.033.342.318.6.662.6h8.822c.347 0 .638-.27.664-.616l.958-12.995a.373.373 0 0 0-.1-.284.373.373 0 0 0-.276-.12z" id="path253" fill="#11083a"/></g><g transform="translate(-83.85 8.927) scale(.93425)" id="g4443"><g id="g259"><path class="st6" d="M49.335 102.6h-.182c-1.518-.016-2.945-.231-4.017-.606-1.188-.415-1.816-.979-1.816-1.63 0-2.608 1.88-4.864 4.57-5.486l.42-.098-.062.461a.211.211 0 0 0 .048.163.211.211 0 0 0 .153.077l1.918.104a.216.216 0 0 0 .223-.184l.075-.559.328.089a6.085 6.085 0 0 1 3.117 1.996 5.383 5.383 0 0 1 1.24 3.437c0 .596-.645 1.159-1.817 1.584-1.112.404-2.543.635-4.03.652zm0-.596l.16-.001c3.262-.036 5.258-1.082 5.258-1.64 0-2.135-1.463-4.05-3.598-4.761a.816.816 0 0 1-.82.579l-1.918-.105a.812.812 0 0 1-.718-.532c-2.243.659-3.783 2.597-3.783 4.82 0 .353.543.762 1.417 1.067 1.012.354 2.371.557 3.828.572z" id="path257" fill="#11083a"/></g><g id="g263"><path class="st6" d="M55.337 100.305v1.417c0 .992-2.687 2.036-6.002 2.036-3.316 0-6.003-.916-6.003-2.036v-1.354s.535 1.892 5.826 1.933l.177.001h.165c5.326-.04 5.837-1.997 5.837-1.997z" id="path261" fill="#11083a"/></g></g><g transform="translate(-83.629 8.974) scale(.93425)" id="g4449"><g id="g297"><path class="st6" d="M63.299 102.6c-.915 0-1.802-.08-2.639-.237-1.632-.306-3.376-.992-3.376-2 0-.443.055-.885.164-1.315.502-1.98 2.109-3.557 4.193-4.118l.327-.088.075.558c.015.11.113.19.224.185l1.917-.104a.21.21 0 0 0 .153-.077.212.212 0 0 0 .048-.164l-.062-.46.42.097c2.691.623 4.57 2.879 4.57 5.486 0 .664-.648 1.235-1.876 1.652a1.811 1.811 0 0 1-.057.019c-1.1.365-2.55.566-4.081.566zm-1.82-6.998c-1.721.572-3.03 1.924-3.453 3.593a4.767 4.767 0 0 0-.146 1.169c0 .361.897 1.039 2.89 1.413.8.15 1.651.227 2.529.227 1.468 0 2.852-.19 3.898-.538l.045-.015c.911-.31 1.475-.726 1.475-1.087 0-2.223-1.539-4.161-3.782-4.82a.81.81 0 0 1-.718.533l-1.917.104a.815.815 0 0 1-.821-.58z" id="path295" fill="#11083a"/></g><g id="g329"><path class="st6" d="M69.312 100.318v1.354c0 1.12-2.693 2.036-6.015 2.036-3.322 0-6.014-1.044-6.014-2.036v-1.416s.345 1.321 3.432 1.814a16.45 16.45 0 0 0 2.582.182c1.825 0 3.103-.215 3.994-.503.017-.006.034-.01.05-.017 1.732-.572 1.971-1.414 1.971-1.414z" id="path327" fill="#11083a"/></g></g><g transform="translate(-173.317 -68.234) scale(.93425)" id="g4294" stroke-miterlimit="4" stroke="#000" stroke-dasharray="none" stroke-opacity="1"><g id="g1624" transform="translate(137.187 111.734) scale(.0586)" fill="#7fa52d" stroke-width="8.533"><path d="M346.326 32.027L354.46 47.9l-1.562 29.692c-37.413 62.8-153.234 53.033-190.659-9.767l-2.969-24.848 6.415-10.962 35.395 8.369a238.783 238.783 0 0 0 109.853.007z" id="path1618"/><path d="M411.963 62.431S467.027 98.004 512 165.41l-73.103 101.174-26.934-22.539-44.609-78.154z" id="path1620"/><path d="M100.049 62.431l33.67 99.553-33.67 82.061-26.934 22.539L0 165.41C44.984 98.004 100.049 62.431 100.049 62.431z" id="path1622"/></g><path d="M161.325 126.034v11.787a21.504 21.504 0 0 1-18.276 0v-22.428l3.846-1.783.084.182.35.589c2.193 3.68 7.523 3.68 9.715 0l.35-.589.085-.18 3.846 1.78z" id="path1626" fill="#9ad14b" stroke-width=".5"/></g><path id="path4187" d="M-20.969 36.68a2.771 2.771 0 0 1-.49-1.836c.014-.17.021-.34.021-.515 0-1.287-.398-2.466-1.06-3.384a2.77 2.77 0 0 1-.49-1.836 6.123 6.123 0 0 0-.24-2.284l-1.664-5.414c-.946-3.081-3.494-5.288-6.487-5.288a7.942 7.942 0 0 0-7.485 5.288l-1.92 5.414a5.288 5.288 0 0 0-.277 2.284 2.501 2.501 0 0 1-.566 1.836 5.272 5.272 0 0 0-1.199 3.9 2.497 2.497 0 0 1-.566 1.835 5.293 5.293 0 0 0 4.07 8.68h3.528v-4.414h-.882V22.418h10.588v18.528h-.882v4.411h2.474c2.534 0 4.588-2.37 4.588-5.293 0-1.287-.398-2.467-1.06-3.385zm0 0" stroke-miterlimit="4" fill="#8b4109" stroke="#000" stroke-width=".519" stroke-dasharray="none" stroke-opacity="1"/><g transform="translate(-44.615 16.123) scale(.0571)" id="g4195" stroke-miterlimit="4" fill="#693000" stroke="#000" stroke-width="9.086" stroke-dasharray="none" stroke-opacity="1"><path id="path4189" d="M308.996 342.02l15.453 15.453 15.453-15.453v-61.81l-15.453-15.452-15.453 15.453zm0 0"/><path id="path4191" d="M308.996 249.305l15.453 15.453 15.453-15.453V110.23h-30.906zm0 0"/><path id="path4193" d="M308.996 434.738c0 8.532 6.918 15.45 15.453 15.45s15.453-6.918 15.453-15.45v-61.812l-15.453-15.453-15.453 15.453zm0 0"/></g><path id="path4197" d="M-26.97 35.652h1.764v1.766h-1.765zm0 0" stroke-miterlimit="4" fill="#ffd46e" stroke="#000" stroke-width=".519" stroke-dasharray="none" stroke-opacity="1"/><path id="path4199" d="M-26.97 30.359h1.764v1.765h-1.765zm0 0" stroke-miterlimit="4" fill="#f27524" stroke="#000" stroke-width=".519" stroke-dasharray="none" stroke-opacity="1"/><path id="path4201" d="M-37.56 34.77l.884.882.882-.882v-2.646l-.882-.883-.883.883zm0 0" stroke-miterlimit="4" fill="#693000" stroke="#000" stroke-width=".519" stroke-dasharray="none" stroke-opacity="1"/><path id="path4203" d="M-37.56 36.535l.884.882.882-.882V34.77h-1.765zm0 0" stroke-miterlimit="4" fill="#f27524" stroke="#000" stroke-width=".519" stroke-dasharray="none" stroke-opacity="1"/><path id="path4205" d="M-37.56 30.359l.884.882.882-.882v-7.941h-1.765zm0 0" stroke-miterlimit="4" fill="#693000" stroke="#000" stroke-width=".519" stroke-dasharray="none" stroke-opacity="1"/><path id="path4207" d="M-37.56 40.947a.883.883 0 0 0 1.767 0V38.3l-.883-.883-.883.883zm0 0" stroke-miterlimit="4" fill="#693000" stroke="#000" stroke-width=".519" stroke-dasharray="none" stroke-opacity="1"/><path id="path4209" d="M-37.56 36.535h1.767V38.3h-1.766zm0 0" stroke-miterlimit="4" fill="#91e262" stroke="#000" stroke-width=".519" stroke-dasharray="none" stroke-opacity="1"/><path id="path4211" d="M-37.56 30.359h1.767v1.765h-1.766zm0 0" stroke-miterlimit="4" fill="#ffd46e" stroke="#000" stroke-width=".519" stroke-dasharray="none" stroke-opacity="1"/><path id="path4215" d="M-25.59 19.77h-12.815a8.189 8.189 0 0 0-.736 1.542l-.704 1.988h15.533l-.58-1.89a8.462 8.462 0 0 0-.699-1.64zm0 0" stroke-miterlimit="4" fill="#91e262" stroke="#000" stroke-width=".519" stroke-dasharray="none" stroke-opacity="1"/><g transform="matrix(.6528 0 0 .6528 15.077 21.072)" id="g4437" stroke-miterlimit="4" stroke="#000" stroke-width=".696" stroke-dasharray="none" stroke-opacity="1"><path d="M-84.153 59.419v42.498l-4.687 18.309h16.25v-40.04a1.836 1.836 0 0 1 3.671 0v40.04h16.25l-4.688-18.309V59.42zm0 0" id="path4383" fill="#4ab8f7"/><path d="M-52.67 120.226l-4.687-18.309V59.42h-13.46v18.935c.02 0 .04-.004.062-.004 1.014 0 1.836.822 1.836 1.836v40.04h16.25zm0 0" id="path4385" fill="#368dcf"/><path d="M-84.153 59.419h26.795v3.75h-26.795zm0 0" id="path4387" fill="#368dcf"/><path d="M-70.818 59.419h13.46v3.75h-13.46zm0 0" id="path4389" fill="#1f5f8f"/><path d="M-73.02 61.854h4.53v11.093h-4.53zm0 0" id="path4391" fill="#368dcf"/><path d="M-70.818 61.854h2.329v11.093h-2.33zm0 0" id="path4393" fill="#1f5f8f"/><path d="M-78.333 61.854l-5.82 7.5v-7.078zm0 0" id="path4395" fill="#368dcf"/><path d="M-63.177 61.854l5.82 7.5v-7.078zm0 0" id="path4397" fill="#1f5f8f"/></g><path id="path4626" d="M-31.42 54.256a4.676 4.676 0 0 1-4.672-4.671 4.676 4.676 0 0 1 4.672-4.671 4.677 4.677 0 0 1 4.671 4.67 4.677 4.677 0 0 1-4.671 4.672zm0 0" fill="#cd48dd" stroke-width=".019"/><path id="path4628" d="M-26.749 49.585a4.677 4.677 0 0 0-4.671-4.671v9.342a4.677 4.677 0 0 0 4.671-4.671zm0 0" fill="#9424a6" stroke-width=".019"/><path id="path4630" d="M-31.42 46.086a3.503 3.503 0 0 0-3.499 3.499 3.503 3.503 0 0 0 3.499 3.497 3.503 3.503 0 0 0 3.498-3.498 3.503 3.503 0 0 0-3.498-3.499zm2.95 3.499c0 .715-.255 1.371-.68 1.882l-1.997-1.996v-2.825a2.955 2.955 0 0 1 2.677 2.939zm-3.224 2.938a2.938 2.938 0 0 1-1.61-.668l1.61-1.61zm.547-2.278l1.61 1.61a2.938 2.938 0 0 1-1.61.668zm-.547-3.6v2.826l-1.997 1.996a2.938 2.938 0 0 1-.68-1.882 2.955 2.955 0 0 1 2.677-2.94zm0 0" fill="#ffed7b" stroke-width=".019"/><path id="path4632" d="M-27.922 49.585a3.503 3.503 0 0 0-3.498-3.499v6.998a3.503 3.503 0 0 0 3.498-3.5zm-3.225-2.94a2.955 2.955 0 0 1 2.677 2.94c0 .715-.255 1.371-.68 1.882l-1.997-1.996zm0 3.6l1.61 1.61a2.938 2.938 0 0 1-1.61.668zm0 0" fill="#ffe100" stroke-width=".019"/><circle id="circle4764" r="1.579" cy="22.703" cx="-39.104" stroke-miterlimit="4" fill="#f5be3c" stroke="#000" stroke-width=".047" stroke-dasharray="none" stroke-opacity="1"/><circle id="circle4766" r="1.128" cy="22.703" cx="-39.104" stroke-miterlimit="4" fill="#d2a53c" stroke="#000" stroke-width=".047" stroke-dasharray="none" stroke-opacity="1"/><circle id="circle4768" r=".676" cy="22.703" cx="-39.104" stroke-miterlimit="4" fill="#c3bc41" stroke="#000" stroke-width=".047" stroke-dasharray="none" stroke-opacity="1"/><g transform="translate(-42.373 19.433) scale(.01277)" id="g4786" stroke-miterlimit="4" fill="#ffe650" stroke="#000" stroke-width="3.657" stroke-dasharray="none" stroke-opacity="1"><path id="path4770" d="M256 167.726a8.815 8.815 0 0 1-6.078-2.422c-18.306-17.37-29.232-47.814-29.232-81.44s10.926-64.068 29.232-81.44a8.83 8.83 0 0 1 12.156 0c18.306 17.37 29.232 47.814 29.232 81.44s-10.926 64.068-29.232 81.44a8.815 8.815 0 0 1-6.078 2.422z"/><path id="path4772" d="M256 512.001a8.815 8.815 0 0 1-6.078-2.422c-18.306-17.37-29.232-47.814-29.232-81.44s10.926-64.069 29.232-81.44a8.83 8.83 0 0 1 12.156 0c18.306 17.37 29.232 47.814 29.232 81.44s-10.926 64.069-29.232 81.44a8.82 8.82 0 0 1-6.078 2.422z"/><path id="path4774" d="M83.863 291.312c-33.625 0-64.068-10.926-81.44-29.232a8.838 8.838 0 0 1 0-12.156c17.37-18.306 47.814-29.232 81.44-29.232s64.068 10.926 81.44 29.232a8.838 8.838 0 0 1 0 12.156c-17.372 18.306-47.815 29.232-81.44 29.232z"/><path id="path4776" d="M428.137 291.312c-33.625 0-64.069-10.926-81.44-29.232a8.838 8.838 0 0 1 0-12.156c17.37-18.306 47.814-29.232 81.44-29.232s64.069 10.926 81.44 29.232a8.838 8.838 0 0 1 0 12.156c-17.371 18.306-47.814 29.232-81.44 29.232z"/><path id="path4778" d="M185.811 196.187c-24.819 0-53.267-13.707-76.495-36.94-23.785-23.776-37.582-53.034-36.915-78.254a8.824 8.824 0 0 1 8.59-8.59c25.275-.694 54.478 13.133 78.254 36.913 23.785 23.776 37.582 53.035 36.913 78.254a8.824 8.824 0 0 1-8.59 8.59 56.9 56.9 0 0 1-1.757.027z"/><path id="path4780" d="M429.25 439.626c-24.814 0-53.267-13.703-76.495-36.936-23.785-23.785-37.582-53.038-36.914-78.258a8.824 8.824 0 0 1 8.59-8.59c25.043-.733 54.474 13.129 78.258 36.913 23.78 23.78 37.578 53.034 36.909 78.254a8.824 8.824 0 0 1-8.59 8.59c-.582.018-1.172.027-1.758.027z"/><path id="path4782" d="M82.751 439.626c-.586 0-1.176-.009-1.759-.025a8.824 8.824 0 0 1-8.59-8.59c-.668-25.219 13.129-54.478 36.913-78.254 23.771-23.78 53.038-37.625 78.254-36.914a8.824 8.824 0 0 1 8.59 8.59c.668 25.219-13.129 54.478-36.913 78.254-23.224 23.232-51.681 36.939-76.495 36.939z"/><path id="path4784" d="M326.189 196.187c-.59 0-1.176-.009-1.759-.025a8.824 8.824 0 0 1-8.59-8.59c-.668-25.219 13.129-54.474 36.913-78.258 23.776-23.78 52.961-37.728 78.254-36.909a8.824 8.824 0 0 1 8.59 8.59c.668 25.219-13.129 54.474-36.909 78.254-23.231 23.231-51.683 36.938-76.499 36.938z"/></g><g transform="translate(-42.373 19.433) scale(.01277)" id="g4804" stroke-miterlimit="4" fill="#ffd741" stroke="#000" stroke-width="3.657" stroke-dasharray="none" stroke-opacity="1"><path id="path4788" d="M218.836 175.118a8.744 8.744 0 0 1-3.159-.586c-23.561-9.043-45.306-32.987-58.172-64.052-12.871-31.069-14.426-63.378-4.16-86.426 1.906-4.293 6.828-6.358 11.229-4.651 23.561 9.043 45.306 32.987 58.172 64.052 12.871 31.069 14.426 63.378 4.16 86.426a8.828 8.828 0 0 1-8.07 5.237z"/><path id="path4790" d="M350.586 493.186a8.744 8.744 0 0 1-3.159-.586c-23.561-9.043-45.306-32.987-58.172-64.052-12.871-31.069-14.426-63.38-4.16-86.426 1.906-4.293 6.831-6.358 11.229-4.651 23.561 9.043 45.306 32.987 58.172 64.052 12.871 31.069 14.426 63.38 4.16 86.426a8.828 8.828 0 0 1-8.07 5.237z"/><path id="path4792" d="M58.816 365.385c-12.78 0-24.66-2.229-34.763-6.729a8.831 8.831 0 0 1-4.651-11.229c9.043-23.561 32.987-45.306 64.052-58.172 31.064-12.875 63.378-14.422 86.426-4.16a8.831 8.831 0 0 1 4.651 11.229c-9.043 23.561-32.987 45.306-64.052 58.172-17.447 7.229-35.292 10.889-51.663 10.889z"/><path id="path4794" d="M376.884 233.635c-12.78 0-24.66-2.229-34.763-6.729a8.831 8.831 0 0 1-4.651-11.229c9.043-23.561 32.987-45.306 64.052-58.172 31.064-12.871 63.375-14.426 86.426-4.16a8.831 8.831 0 0 1 4.651 11.229c-9.043 23.561-32.987 45.306-64.052 58.172-17.448 7.23-35.293 10.889-51.663 10.889z"/><path id="path4796" d="M135.117 233.635c-16.371 0-34.216-3.659-51.663-10.888-31.064-12.866-55.009-34.612-64.052-58.172a8.831 8.831 0 0 1 4.651-11.229c23.043-10.263 55.358-8.707 86.426 4.16 31.064 12.866 55.009 34.612 64.052 58.172a8.831 8.831 0 0 1-4.651 11.229c-10.103 4.5-21.987 6.728-34.763 6.728z"/><path id="path4798" d="M453.185 365.385c-16.371 0-34.216-3.659-51.663-10.888-31.064-12.866-55.009-34.612-64.052-58.172a8.831 8.831 0 0 1 4.651-11.229c23.052-10.263 55.362-8.703 86.426 4.16 31.064 12.866 55.009 34.612 64.052 58.172a8.831 8.831 0 0 1-4.651 11.229c-10.104 4.499-21.988 6.728-34.763 6.728z"/><path id="path4800" d="M161.414 493.186a8.826 8.826 0 0 1-8.069-5.237c-10.268-23.048-8.712-55.358 4.16-86.426 12.866-31.064 34.612-55.009 58.172-64.052a8.826 8.826 0 0 1 11.229 4.651c10.268 23.048 8.712 55.358-4.16 86.426-12.866 31.064-34.612 55.009-58.172 64.052a8.861 8.861 0 0 1-3.16.586z"/><path id="path4802" d="M293.164 175.118a8.826 8.826 0 0 1-8.069-5.237c-10.268-23.048-8.712-55.358 4.16-86.426 12.866-31.064 34.612-55.009 58.172-64.052 4.384-1.689 9.314.358 11.229 4.651 10.268 23.048 8.712 55.358-4.16 86.426-12.866 31.064-34.612 55.009-58.172 64.052a8.861 8.861 0 0 1-3.16.586z"/></g><circle id="circle4806" r=".451" cy="22.703" cx="-39.104" stroke-miterlimit="4" fill="#b4d246" stroke="#000" stroke-width=".047" stroke-dasharray="none" stroke-opacity="1"/><path id="path4986" d="M-52.241 62.632h-.546a.383.383 0 0 1-.384-.383v-.876a.383.383 0 0 1 .384-.383h.546z" fill="#fa496e" stroke="#000" stroke-width=".027" stroke-opacity="1"/><path id="path4988" d="M-53.17 61.746v.503c0 .212.171.383.383.383h.546v-.503h-.546a.383.383 0 0 1-.384-.383z" fill="#e23760" stroke="#000" stroke-width=".027" stroke-opacity="1"/><path id="path4990" d="M-52.241 60.99h.93v1.642h-.93z" fill="#ff8522" stroke="#000" stroke-width=".027" stroke-opacity="1"/><path id="path4992" d="M-52.241 62.129h.93v.503h-.93z" fill="#ff7224" stroke="#000" stroke-width=".027" stroke-opacity="1"/><path id="path4994" d="M-51.311 60.99h.93v1.642h-.93z" fill="#fd0" stroke="#000" stroke-width=".027" stroke-opacity="1"/><path id="path4996" d="M-51.311 62.129h.93v.503h-.93z" fill="#ffc239" stroke="#000" stroke-width=".027" stroke-opacity="1"/><path id="path4998" d="M-50.38 60.99h.929v1.642h-.93z" fill="#00dcab" stroke="#000" stroke-width=".027" stroke-opacity="1"/><path id="path5000" d="M-50.38 62.129h.929v.503h-.93z" fill="#10c68e" stroke="#000" stroke-width=".027" stroke-opacity="1"/><path id="path5002" d="M-49.451 60.99h.93v1.642h-.93z" fill="#52dbff" stroke="#000" stroke-width=".027" stroke-opacity="1"/><path id="path5004" d="M-49.451 62.129h.93v.503h-.93z" fill="#2dcef9" stroke="#000" stroke-width=".027" stroke-opacity="1"/><path id="path5006" d="M-48.522 60.99h.547a.383.383 0 0 1 .383.383v.876a.383.383 0 0 1-.383.383h-.547" fill="#bb93df" stroke="#000" stroke-width=".027" stroke-opacity="1"/><path id="path5008" d="M-47.975 62.129h-.547v.503h.547a.383.383 0 0 0 .383-.383v-.503a.383.383 0 0 1-.383.383z" fill="#9e7dcc" stroke="#000" stroke-width=".027" stroke-opacity="1"/><g transform="translate(-36.937 26.48) scale(.17875)" id="g5416" fill="#8b4109" fill-opacity="1" stroke="#000" stroke-opacity="1"><g id="g5359"><g id="g5357" fill="#8b4109" fill-opacity="1" stroke="#000" stroke-opacity="1"><path d="M61.719 33.73c0-.998-13.816-8.203-30.859-8.203C13.817 25.528 0 33 0 33.73c0 3.955 13.817 1.953 30.859 1.953 17.043.001 30.86 2.003 30.86-1.953z" id="path5355" fill="#8b4109" fill-opacity="1" stroke="#000" stroke-opacity="1"/></g></g></g><path id="path3518" d="M-26.082 103.986c-3.08-.308-3.829-1.135-2.865-3.165l.41-.864h4.03c4.487 0 4.368-.049 4.819 1.951.195.867-.112 1.326-1.155 1.724-.912.35-3.522.525-5.239.354z" stroke-miterlimit="4" opacity=".635" fill="#ccc" fill-opacity="1" fill-rule="nonzero" stroke="#000" stroke-width=".077" stroke-linejoin="round" stroke-dasharray="none" stroke-opacity="1"/><path id="path3520" d="M-40.81 103.784c-1.832-.557-2.225-1.437-1.377-3.077l.388-.75h8.108l.401.779c.223.428.368 1.143.325 1.588-.07.722-.215.857-1.349 1.244-1.341.457-5.269.587-6.496.215z" stroke-miterlimit="4" opacity=".635" fill="#ccc" fill-opacity="1" fill-rule="nonzero" stroke="#000" stroke-width=".077" stroke-linejoin="round" stroke-dasharray="none" stroke-opacity="1"/><path id="path1263" d="M-35.501 27.388v-2.27l1.068-.352c1.247-.412 5.048-.256 5.53.226.172.171.594.312.938.312.598 0 .626.092.626 2.05 0 1.867-.043 2.027-.476 1.798-.262-.138-1.424-.243-2.583-.234-1.159.01-2.189-.065-2.29-.166-.329-.329-.945-.194-1.65.36-.381.3-.798.545-.928.545s-.235-1.021-.235-2.27z" opacity=".635" fill="#e6e6e6" fill-opacity="1" fill-rule="nonzero" stroke="#000" stroke-width=".014" stroke-linejoin="round" stroke-miterlimit="4" stroke-dasharray="none" stroke-opacity="1"/><path id="path1265" d="M-35.501 27.563V23.67H-27.34V31.454l-2.04-.395c-1.784-.345-2.298-.345-4.082 0l-2.04.395zm2.352 1.061c-.278-.058-.624.012-.77.157-.17.17.01.208.506.107.57-.116.638-.184.264-.264zm4.92.324c-.09-.09-.325-.1-.521-.021-.217.087-.153.151.164.164.287.012.447-.052.357-.143zm.482-3.644c-.093-.15-.375-.264-.628-.253-.375.015-.36.062.084.253.728.312.737.312.544 0zm-4.019-.709c-.09-.09-.325-.1-.521-.021-.217.086-.153.15.164.164.287.012.448-.053.357-.143z" opacity=".635" fill="#e6e6e6" fill-opacity="1" fill-rule="nonzero" stroke="#000" stroke-width=".014" stroke-linejoin="round" stroke-miterlimit="4" stroke-dasharray="none" stroke-opacity="1"/><path id="path1267" d="M-35.501 27.506V23.67H-27.34v7.68l-1.292-.23c-1.657-.293-3.636-.297-5.442-.009l-1.428.228zm7.272 1.442c-.09-.09-.325-.1-.521-.021-.217.087-.153.151.164.164.287.012.447-.052.357-.143zm-4.755-.288a1.05 1.05 0 0 0-.68 0c-.188.076-.035.138.34.138.374 0 .527-.062.34-.138zm5.237-3.356c-.093-.15-.375-.264-.628-.253-.375.015-.36.062.084.253.728.312.737.312.544 0zm-4.019-.709c-.09-.09-.325-.1-.521-.021-.217.086-.153.15.164.164.287.012.448-.053.357-.143z" opacity=".635" fill="#e6e6e6" fill-opacity="1" fill-rule="nonzero" stroke="#000" stroke-width=".014" stroke-linejoin="round" stroke-miterlimit="4" stroke-dasharray="none" stroke-opacity="1"/><g transform="matrix(.03027 0 0 .03027 -39.2 19.96)" id="g1691"><g id="g1595" fill="#50be9b"><path d="M8.828 203.034A8.826 8.826 0 0 0 0 211.862a8.826 8.826 0 0 0 8.828 8.828h35.31v-17.655H8.828z" id="path1591"/><path d="M503.172 203.034h-35.31v17.655h35.31a8.826 8.826 0 0 0 8.828-8.828 8.825 8.825 0 0 0-8.828-8.827z" id="path1593"/></g><path d="M379.586 167.724c-48.672 0-88.276 39.599-88.276 88.276s39.604 88.276 88.276 88.276 88.276-39.599 88.276-88.276-39.604-88.276-88.276-88.276z" id="path1597" fill="#ffdc64"/><path d="M391.763 311.406c-33.59-7.076-60.502-33.986-67.581-67.576-2.248-10.668-2.513-21.066-1.119-30.935 1.346-9.535-11.191-14.164-16.601-6.197-12.273 18.076-18.013 40.914-13.758 65.162 6.292 35.854 35.153 64.722 71.006 71.02 29.848 5.244 57.565-4.658 76.891-23.252 4.348-4.182.004-11.392-5.789-9.708-13.312 3.87-27.909 4.675-43.049 1.486z" id="path1599" fill="#ffc850"/><path d="M441.379 264.828a8.826 8.826 0 0 1-8.828-8.828c0-18.745-9.594-35.72-25.673-45.409a8.822 8.822 0 0 1-3.009-12.116c2.508-4.185 7.948-5.522 12.113-3.005 21.431 12.909 34.225 35.539 34.225 60.53a8.826 8.826 0 0 1-8.828 8.828z" id="path1601" fill="#fff082"/><path d="M132.414 167.724c-48.672 0-88.276 39.599-88.276 88.276s39.604 88.276 88.276 88.276 88.276-39.6 88.276-88.276c0-48.676-39.604-88.276-88.276-88.276z" id="path1603" fill="#ffdc64"/><path d="M144.59 311.406C111 304.33 84.088 277.42 77.01 243.83c-2.248-10.668-2.513-21.066-1.119-30.935 1.346-9.535-11.191-14.164-16.601-6.197-12.273 18.076-18.013 40.914-13.758 65.162 6.292 35.854 35.153 64.722 71.006 71.02 29.848 5.244 57.565-4.658 76.89-23.252 4.348-4.182.004-11.392-5.789-9.708-13.312 3.87-27.908 4.675-43.049 1.486z" id="path1605" fill="#ffc850"/><g id="g1611" fill="#64dca0"><path id="polygon1607" d="M123.586 158.897v93.448l-65.388 65.387 12.483 12.484 52.905-52.905v75.792h17.655v-75.792l52.905 52.905 12.484-12.484-65.389-65.387v-93.448z"/><path id="polygon1609" d="M370.759 158.897v93.448l-65.389 65.387 12.484 12.484 52.905-52.905v75.792h17.655v-75.792l52.905 52.905 12.483-12.484-65.388-65.387v-93.448z"/></g><path d="M291.31 256h-17.655v-26.483c0-9.737-7.923-17.655-17.655-17.655-9.732 0-17.655 7.918-17.655 17.655V256H220.69v-26.483c0-19.47 15.837-35.31 35.31-35.31 19.473 0 35.31 15.84 35.31 35.31z" id="path1613" fill="#50be9b"/><path d="M194.207 264.828a8.826 8.826 0 0 1-8.828-8.828c0-18.745-9.594-35.72-25.673-45.409a8.822 8.822 0 0 1-3.009-12.116c2.508-4.185 7.948-5.522 12.113-3.005 21.431 12.909 34.225 35.539 34.225 60.53a8.827 8.827 0 0 1-8.828 8.828z" id="path1615" fill="#fff082"/><g id="g1621" fill="#7df5a5"><path d="M132.414 361.931C73.999 361.931 26.483 314.41 26.483 256s47.518-105.931 105.931-105.931S238.345 197.59 238.345 256s-47.517 105.931-105.931 105.931zm0-194.207c-48.672 0-88.276 39.599-88.276 88.276s39.604 88.276 88.276 88.276 88.276-39.6 88.276-88.276c0-48.676-39.604-88.276-88.276-88.276z" id="path1617"/><path d="M379.586 361.931c-58.414 0-105.931-47.521-105.931-105.931s47.518-105.931 105.931-105.931S485.517 197.59 485.517 256s-47.516 105.931-105.931 105.931zm0-194.207c-48.672 0-88.276 39.599-88.276 88.276s39.604 88.276 88.276 88.276 88.276-39.599 88.276-88.276-39.604-88.276-88.276-88.276z" id="path1619"/></g></g></g></svg>