<?xml version="1.0" encoding="utf-8"?>
<!-- Generator: Adobe Illustrator 16.0.0, SVG Export Plug-In . SVG Version: 6.00 Build 0)  -->
<!DOCTYPE svg PUBLIC "-//W3C//DTD SVG 1.1//EN" "http://www.w3.org/Graphics/SVG/1.1/DTD/svg11.dtd">
<svg version="1.1" id="Layer_1" xmlns="http://www.w3.org/2000/svg" xmlns:xlink="http://www.w3.org/1999/xlink" x="0px" y="0px"
	 width="110.667px" height="127.834px" viewBox="0 0 110.667 127.834" enable-background="new 0 0 110.667 127.834"
	 xml:space="preserve">
<g>
	<defs>
		<polygon id="SVGID_1_" points="86.025,10.859 24.641,10.859 -6.05,64.05 24.641,117.243 86.025,117.243 116.716,64.05 		"/>
	</defs>
	<clipPath id="SVGID_2_">
		<use xlink:href="#SVGID_1_"  overflow="visible"/>
	</clipPath>
	<g clip-path="url(#SVGID_2_)">
		<g>
			<path fill="#B3B3B3" d="M92.748,11.18c0.821,0.642,1.605,1.328,2.359,2.05h32.728v-2.05H92.748z"/>
			<path fill="#B3B3B3" d="M50.766,12.131c-1.078,0.4-2.169,0.756-3.264,1.099h26.189c-1.402-0.615-2.779-1.275-4.082-2.05H51.447
				C51.437,11.569,51.232,11.958,50.766,12.131z"/>
			<path fill="#B3B3B3" d="M21.07,11.18h-36.808v2.05h34.072C19.238,12.537,20.151,11.855,21.07,11.18z"/>
			<path fill="#808080" d="M47.639,10.946c-0.001,0.025-0.014,0.048-0.017,0.073c0.867-0.285,1.736-0.562,2.613-0.816
				c0.838-0.244,1.309,0.497,1.187,1.149h18.466c-1.03-0.594-2.009-1.269-2.918-2.05H50.654
				C49.659,9.869,48.654,10.417,47.639,10.946z"/>
			<path fill="#808080" d="M23.651,9.302h-39.389v2.05h36.574C21.771,10.664,22.71,9.981,23.651,9.302z"/>
			<path fill="#808080" d="M90.111,9.302c0.988,0.629,1.932,1.322,2.848,2.05h34.876v-2.05H90.111z"/>
			<path fill="#666666" d="M86.405,7.254c1.272,0.618,2.516,1.291,3.706,2.048h37.724V7.254H86.405z"/>
			<path fill="#666666" d="M32.617,7.254c-0.028,0.04-0.041,0.083-0.077,0.12c-0.633,0.657-1.285,1.295-1.941,1.928H30.7
				c0.973-0.704,1.962-1.385,2.965-2.048H32.617z"/>
			<path fill="#666666" d="M53.696,7.254c-0.072,0.171-0.179,0.33-0.357,0.443c-0.883,0.558-1.779,1.089-2.685,1.605h16.315
				c-0.345-0.296-0.688-0.596-1.01-0.928c-0.357-0.368-0.356-0.79-0.173-1.12H53.696z"/>
			<path fill="#666666" d="M26.481,7.254h-42.219v2.048h39.389C24.596,8.62,25.541,7.938,26.481,7.254z"/>
			<path fill="#333333" d="M27.329,6.637c0.679-0.498,1.371,0.11,1.445,0.789h0.353c0.73-0.545,1.462-1.089,2.203-1.622
				c0.951-0.683,1.975,0.779,1.212,1.57c-0.017,0.018-0.035,0.034-0.052,0.051h0.919c1.061-0.707,2.134-1.397,3.236-2.05h-52.381
				v2.05h41.983C26.607,7.163,26.969,6.9,27.329,6.637z"/>
			<path fill="#333333" d="M66.345,5.375H50.507c-0.053,0.054-0.098,0.113-0.169,0.155c-0.265,0.159-0.528,0.322-0.793,0.481
				c0.231-0.1,0.457-0.212,0.689-0.309c0.519-0.217,0.991,0.152,1.177,0.623c0.387-0.15,0.768-0.311,1.157-0.456
				c0.96-0.359,1.529,0.854,1.051,1.556h12.087c0.169-0.537,0.823-0.918,1.466-0.622c0.464,0.214,0.938,0.415,1.406,0.622h0.709
				C68.289,6.775,67.301,6.104,66.345,5.375z"/>
			<path fill="#333333" d="M81.858,5.375c1.669,0.578,3.304,1.261,4.888,2.05h41.089v-2.05H81.858z"/>
		</g>
		<g>
			<path fill="#B3B3B3" d="M98.635,19.107c0.736,0.756,0,2.084-1.017,1.633c0.173,0.136,0.34,0.279,0.511,0.418h29.705v-2.051
				H98.635z"/>
			<path fill="#B3B3B3" d="M29.521,21.021c-0.069,0.044-0.136,0.092-0.205,0.137h60.266c-1.207-0.635-2.385-1.333-3.562-2.051
				H33.364C32.076,19.734,30.794,20.373,29.521,21.021z"/>
			<path fill="#B3B3B3" d="M11.417,19.107h-27.154v2.051H9.396C10.05,20.454,10.727,19.773,11.417,19.107z"/>
			<path fill="#808080" d="M33.02,19.278h53.282c-0.852-0.518-1.701-1.045-2.563-1.566c-0.355-0.162-0.711-0.323-1.066-0.484H37.355
				C35.899,17.89,34.455,18.576,33.02,19.278z"/>
			<path fill="#808080" d="M13.446,17.229h-29.184v2.05h26.979C11.959,18.578,12.694,17.894,13.446,17.229z"/>
			<path fill="#808080" d="M96.361,17.229c-0.039,0.084-0.084,0.165-0.144,0.236c0.799,0.481,1.571,0.978,2.288,1.506
				c0.124,0.091,0.219,0.196,0.289,0.308h29.04v-2.05H96.361z"/>
			<path fill="#666666" d="M37.355,17.229h45.316c-1.506-0.683-3.012-1.365-4.515-2.049H42.127
				C40.523,15.829,38.933,16.512,37.355,17.229z"/>
			<path fill="#666666" d="M15.859,15.179h-31.597v2.049h29.184C14.236,16.53,15.041,15.847,15.859,15.179z"/>
			<path fill="#666666" d="M96.24,15.179c-0.108,0.246-0.31,0.452-0.564,0.556c0.109,0.078,0.221,0.158,0.33,0.235
				c0.486,0.343,0.542,0.858,0.355,1.258h31.474v-2.049H96.24z"/>
			<path fill="#333333" d="M45.935,13.715c-1.427,0.512-2.842,1.06-4.247,1.635h36.847c-0.235-0.107-0.472-0.213-0.706-0.32
				c-1.307-0.596-2.646-1.149-3.973-1.728H47.269C46.824,13.44,46.381,13.583,45.935,13.715z"/>
			<path fill="#333333" d="M18.24,13.302h-33.978v2.048h31.391C16.503,14.654,17.367,13.973,18.24,13.302z"/>
			<path fill="#333333" d="M95.182,13.302c0.285,0.275,0.584,0.537,0.858,0.824c0.379,0.396,0.345,0.877,0.104,1.224h31.69v-2.048
				H95.182z"/>
		</g>
		<g>
			<path fill="#B3B3B3" d="M6.96,28.793c0.205-0.256,0.419-0.503,0.628-0.755c0.03-0.343,0.125-0.677,0.259-1.004h-23.585v2.048
				H6.807C6.842,28.98,6.889,28.882,6.96,28.793z"/>
			<path fill="#B3B3B3" d="M20.821,27.034c-0.989,0.693-1.983,1.377-2.986,2.048h110v-2.048H20.821z"/>
			<path fill="#808080" d="M102.158,25.155c0.393,0.737-0.148,1.724-1.09,1.476c-1.324-0.349-2.556-0.858-3.726-1.476H23.49
				c-0.97,0.686-1.941,1.37-2.914,2.05h107.258v-2.05H102.158z"/>
			<path fill="#808080" d="M8.579,25.82c-0.021-0.052-0.031-0.106-0.043-0.16c-0.226,0.213-0.517,0.465-0.995,0.88
				c-0.808,0.702-2.271-0.237-1.57-1.212c0.042-0.059,0.088-0.115,0.131-0.173h-21.839v2.05H7.785
				C7.955,26.727,8.218,26.264,8.579,25.82z"/>
			<path fill="#666666" d="M23.49,25.155h73.852c-1.13-0.597-2.201-1.297-3.242-2.05H26.421
				C25.44,23.783,24.463,24.467,23.49,25.155z"/>
			<path fill="#666666" d="M7.7,23.105h-23.438v2.05H6.101C6.613,24.451,7.149,23.771,7.7,23.105z"/>
			<path fill="#666666" d="M100.314,23.105c0.6,0.589,1.181,1.2,1.727,1.854c0.051,0.061,0.082,0.129,0.117,0.195h25.677v-2.05
				H100.314z"/>
			<path fill="#333333" d="M98.213,21.227c0.788,0.645,1.548,1.326,2.272,2.05h27.349v-2.05H98.213z"/>
			<path fill="#333333" d="M26.174,23.277h68.168c-0.108-0.078-0.219-0.153-0.327-0.231c-1.511-0.467-2.928-1.101-4.304-1.818
				H29.212C28.189,21.895,27.179,22.581,26.174,23.277z"/>
			<path fill="#333333" d="M9.333,21.227h-25.071v2.05H7.559C8.133,22.576,8.722,21.89,9.333,21.227z"/>
		</g>
		<g>
			<path fill="#B3B3B3" d="M8.041,34.959c-0.567,0.413-1.135,0.826-1.703,1.238c-0.8,0.58-1.753-0.463-1.445-1.238h-20.631v2.049
				h126.059c0.006-0.043,0.009-0.087,0.015-0.13c-0.001-0.015-0.001-0.03-0.002-0.044c0.002,0,0.004,0,0.007,0.001
				c0.012-0.089,0.017-0.178,0.029-0.267c0.166-1.168,1.909-0.801,1.964,0.266c0.003,0.058,0.003,0.117,0.006,0.175h15.495v-2.049
				H8.041z"/>
			<path fill="#808080" d="M5.126,34.626c0.004-0.004,0.009-0.007,0.013-0.011c-0.214-0.359-0.235-0.817,0.153-1.155
				c0.148-0.129,0.3-0.252,0.451-0.378h-21.481v2.048H4.859C4.89,34.949,4.961,34.772,5.126,34.626z"/>
			<path fill="#808080" d="M11.178,33.082c-0.5,0.263-0.995,0.535-1.506,0.782c-0.067,0.032-0.134,0.039-0.202,0.057
				c-0.555,0.404-1.109,0.807-1.664,1.21h120.028v-2.048H11.178z"/>
			<path fill="#666666" d="M6.551,32.404c-0.417-0.268-0.653-0.878-0.417-1.371h-21.872v2.048H5.744
				C6.013,32.856,6.282,32.63,6.551,32.404z"/>
			<path fill="#666666" d="M14.806,31.033c-1.182,0.725-2.396,1.401-3.628,2.048h116.657v-2.048H14.806z"/>
			<path fill="#333333" d="M6.293,30.793c0.211-0.228,0.431-0.446,0.645-0.671c-0.174-0.276-0.242-0.639-0.154-0.968h-22.522v2.049
				H6.069C6.106,31.058,6.178,30.917,6.293,30.793z"/>
			<path fill="#333333" d="M17.728,29.154c-1.057,0.705-2.127,1.39-3.213,2.049h113.32v-2.049H17.728z"/>
		</g>
		<g>
			<path fill="#B3B3B3" d="M-1.868,44.559c0.059-0.132,0.11-0.266,0.172-0.397c0.097-0.208,0.287-0.354,0.507-0.432
				c0.054-0.282,0.117-0.563,0.176-0.845h-14.725v2.049h13.272C-2.299,44.744-2.091,44.613-1.868,44.559z"/>
			<path fill="#B3B3B3" d="M5.81,42.886c-0.265,0.181-0.615,0.265-0.943,0.176c-0.145,0.601-0.246,1.231-0.329,1.874h103.455
				c0.081-0.685,0.18-1.369,0.302-2.049H5.81z"/>
			<path fill="#B3B3B3" d="M116.436,42.886c-0.031,0.683-0.063,1.366-0.096,2.049h11.494v-2.049H116.436z"/>
			<path fill="#808080" d="M5.481,41.007c0.182,0.182,0.346,0.38,0.549,0.655c0.466,0.63,0.01,1.238-0.59,1.395h102.826
				c0.12-0.686,0.259-1.369,0.428-2.05H5.481z"/>
			<path fill="#808080" d="M-0.574,41.007h-15.164v2.05h14.689C-0.909,42.372-0.751,41.688-0.574,41.007z"/>
			<path fill="#808080" d="M116.392,41.007c0.069,0.137,0.117,0.294,0.108,0.493c-0.022,0.519-0.048,1.038-0.072,1.557h11.406v-2.05
				H116.392z"/>
			<path fill="#666666" d="M-0.464,40.568c0.142-0.521,0.675-0.759,1.149-0.697c0.125-0.308,0.256-0.613,0.396-0.912h-16.818v2.047
				h15.164C-0.536,40.86-0.504,40.714-0.464,40.568z"/>
			<path fill="#666666" d="M3.321,38.959c-0.012,0.519-0.027,1.037-0.041,1.555c0.027,0.163,0.042,0.328,0.061,0.493h0.058
				c0.232-0.517,0.898-0.936,1.439-0.537c0.269,0.199,0.464,0.359,0.643,0.537h103.213c0.104-0.425,0.217-0.85,0.343-1.272
				c0.142-0.474,0.612-0.741,1.06-0.719c0.002-0.019,0.005-0.037,0.006-0.056H3.321z"/>
			<path fill="#666666" d="M112.41,38.959c0.022,0.683,0.054,1.365,0.067,2.047h2.217c0.418-0.601,1.383-0.62,1.698,0h11.442v-2.047
				H112.41z"/>
			<path fill="#333333" d="M-15.738,37.081v2.049H1.006c0.044-0.1,0.083-0.204,0.131-0.302c0.051-0.107,0.118-0.192,0.194-0.263
				c0.001-0.021,0.001-0.043,0.002-0.065c0.048-1.284,2.022-1.293,2,0c-0.004,0.21-0.011,0.42-0.017,0.63h106.267
				c0.162-0.076,0.337-0.124,0.513-0.115c0.063-0.645,0.132-1.29,0.217-1.934H-15.738z"/>
			<path fill="#333333" d="M112.342,37.081c0.034,0.683,0.051,1.366,0.073,2.049h15.419v-2.049H112.342z"/>
		</g>
		<g>
			<path fill="#B3B3B3" d="M4.322,52.861h103.386c-0.016-0.684-0.022-1.367-0.023-2.049H4.297
				C4.305,51.503,4.314,52.189,4.322,52.861z"/>
			<path fill="#B3B3B3" d="M-5.403,50.812h-10.334v2.049h9.472C-6.022,52.154-5.749,51.461-5.403,50.812z"/>
			<path fill="#B3B3B3" d="M118.755,50.812c0.18,0.677,0.312,1.361,0.415,2.049h8.664v-2.049H118.755z"/>
			<path fill="#808080" d="M-4.547,49.444c0.042-0.173,0.1-0.34,0.147-0.511h-11.338v2.05h10.256
				C-5.207,50.447-4.904,49.929-4.547,49.444z"/>
			<path fill="#808080" d="M4.296,48.934c-0.007,0.685-0.006,1.369,0.002,2.05h103.387c-0.002-0.684,0.007-1.368,0.025-2.05H4.296z"
				/>
			<path fill="#808080" d="M118.141,48.934c0.271,0.675,0.477,1.36,0.652,2.05h9.041v-2.05H118.141z"/>
			<path fill="#666666" d="M-3.643,46.885h-12.095v2.049H-4.4C-4.201,48.229-3.954,47.544-3.643,46.885z"/>
			<path fill="#666666" d="M4.363,46.885c-0.038,0.677-0.06,1.36-0.066,2.049H107.71c0.02-0.684,0.048-1.368,0.095-2.049H4.363z"/>
			<path fill="#666666" d="M117.835,46.885c0.016,0.55,0.034,1.1,0.051,1.65c0.099,0.105,0.187,0.224,0.244,0.366
				c0.004,0.011,0.007,0.021,0.011,0.032h9.693v-2.049H117.835z"/>
			<path fill="#333333" d="M116.337,45.007c-0.016,0.322-0.029,0.643-0.045,0.965c0.581-0.331,1.517,0.042,1.541,0.861
				c0.002,0.074,0.005,0.148,0.007,0.222h9.994v-2.048H116.337z"/>
			<path fill="#333333" d="M-2.538,45.007h-13.2v2.048H-3.73C-3.408,46.342-3.017,45.655-2.538,45.007z"/>
			<path fill="#333333" d="M4.53,45.007c-0.084,0.668-0.14,1.353-0.176,2.048h103.44c0.045-0.685,0.11-1.367,0.189-2.048H4.53z"/>
		</g>
		<g>
			<path fill="#B3B3B3" d="M4.083,60.787H107.97c-0.014-0.682-0.032-1.365-0.056-2.049H4.175C4.143,59.42,4.115,60.104,4.083,60.787
				z"/>
			<path fill="#B3B3B3" d="M-7.512,58.737h-8.226v2.049h7.978C-7.681,60.114-7.601,59.432-7.512,58.737z"/>
			<path fill="#B3B3B3" d="M119.409,58.737c-0.027,0.683-0.063,1.366-0.106,2.049h8.532v-2.049H119.409z"/>
			<path fill="#808080" d="M4.167,58.91h103.752c-0.022-0.683-0.048-1.366-0.075-2.049H4.259C4.226,57.544,4.199,58.227,4.167,58.91
				z"/>
			<path fill="#808080" d="M-7.239,56.861h-8.499v2.049h8.205C-7.448,58.23-7.351,57.546-7.239,56.861z"/>
			<path fill="#808080" d="M119.445,56.861c0,0.682-0.014,1.365-0.043,2.049h8.433v-2.049H119.445z"/>
			<path fill="#666666" d="M4.29,56.161c-0.011,0.233-0.02,0.467-0.031,0.7h103.585c-0.026-0.683-0.053-1.367-0.077-2.05H4.325
				C4.32,55.271,4.311,55.726,4.29,56.161z"/>
			<path fill="#666666" d="M-6.827,54.811h-8.911v2.05h8.499C-7.126,56.171-6.986,55.488-6.827,54.811z"/>
			<path fill="#666666" d="M119.378,54.811c0.045,0.681,0.066,1.364,0.066,2.05h8.39v-2.05H119.378z"/>
			<path fill="#333333" d="M4.321,54.982h103.452c-0.024-0.683-0.047-1.367-0.063-2.049H4.323
				C4.332,53.637,4.331,54.318,4.321,54.982z"/>
			<path fill="#333333" d="M-6.29,52.933h-9.448v2.049h8.869C-6.71,54.283-6.516,53.6-6.29,52.933z"/>
			<path fill="#333333" d="M119.179,52.933c0.101,0.679,0.168,1.362,0.209,2.049h8.446v-2.049H119.179z"/>
		</g>
		<g>
			<path fill="#B3B3B3" d="M-8.598,66.663h-7.14v2.051h6.829C-8.809,68.029-8.704,67.346-8.598,66.663z"/>
			<path fill="#B3B3B3" d="M3.821,66.663c-0.029,0.684-0.063,1.367-0.091,2.051h104.173c0.013-0.684,0.024-1.367,0.037-2.051H3.821z
				"/>
			<path fill="#B3B3B3" d="M119.049,66.663c-0.003,0.684-0.002,1.368-0.007,2.051h8.792v-2.051H119.049z"/>
			<path fill="#808080" d="M119.075,64.787c-0.018,0.682-0.024,1.364-0.026,2.048h8.786v-2.048H119.075z"/>
			<path fill="#808080" d="M-8.432,65.602c-0.072-0.281-0.021-0.539,0.117-0.752c0.003-0.021,0.006-0.042,0.009-0.063h-7.432v2.048
				h7.114C-8.56,66.424-8.496,66.013-8.432,65.602z"/>
			<path fill="#808080" d="M3.905,64.787c-0.03,0.683-0.062,1.365-0.092,2.048h104.124c0.013-0.683,0.022-1.365,0.032-2.048H3.905z"
				/>
			<path fill="#666666" d="M-8.014,62.738h-7.724v2.049h7.432C-8.201,64.102-8.107,63.42-8.014,62.738z"/>
			<path fill="#666666" d="M107.99,62.738H3.997c-0.031,0.683-0.062,1.366-0.091,2.049h104.064c0.009-0.588,0.018-1.176,0.021-1.764
				C107.992,62.928,107.99,62.833,107.99,62.738z"/>
			<path fill="#666666" d="M119.174,62.738c-0.009,0.133-0.019,0.266-0.027,0.399c-0.036,0.549-0.058,1.099-0.072,1.65h8.76v-2.049
				H119.174z"/>
			<path fill="#333333" d="M119.298,60.86c-0.045,0.684-0.09,1.368-0.136,2.049h8.672V60.86H119.298z"/>
			<path fill="#333333" d="M3.989,62.909h104.002c0.003-0.682-0.006-1.365-0.019-2.049H4.081C4.049,61.543,4.02,62.226,3.989,62.909
				z"/>
			<path fill="#333333" d="M-7.891,61.874c0.042-0.331,0.082-0.674,0.122-1.014h-7.969v2.049h7.7
				C-7.99,62.564-7.934,62.217-7.891,61.874z"/>
		</g>
		<g>
			<path fill="#B3B3B3" d="M3.458,75.223c0.019,0.473,0.035,0.945,0.051,1.418h104.399c-0.021-0.683-0.034-1.366-0.042-2.051H3.483
				C3.475,74.801,3.466,75.012,3.458,75.223z"/>
			<path fill="#B3B3B3" d="M-9.514,74.59h-6.224v2.051h6.2C-9.553,75.958-9.542,75.274-9.514,74.59z"/>
			<path fill="#B3B3B3" d="M118.613,74.59c-0.124,0.688-0.282,1.373-0.489,2.051h9.711V74.59H118.613z"/>
			<path fill="#808080" d="M118.871,72.713c-0.066,0.688-0.159,1.37-0.288,2.049h9.252v-2.049H118.871z"/>
			<path fill="#808080" d="M3.477,74.762H107.87c-0.009-0.683-0.015-1.365-0.013-2.049H3.559
				C3.531,73.396,3.504,74.079,3.477,74.762z"/>
			<path fill="#808080" d="M-9.39,72.713h-6.348v2.049h6.219C-9.494,74.079-9.449,73.396-9.39,72.713z"/>
			<path fill="#666666" d="M-9.172,70.663h-6.565v2.05h6.348C-9.33,72.029-9.257,71.347-9.172,70.663z"/>
			<path fill="#666666" d="M3.643,70.663c-0.006,0.145-0.014,0.288-0.02,0.433c-0.022,0.539-0.043,1.078-0.065,1.617h104.298
				c0.002-0.683,0.005-1.366,0.015-2.05H3.643z"/>
			<path fill="#666666" d="M119.003,70.663c-0.025,0.687-0.067,1.369-0.133,2.05h8.964v-2.05H119.003z"/>
			<path fill="#333333" d="M3.727,68.787c-0.029,0.683-0.063,1.365-0.091,2.048h104.233c0.009-0.683,0.021-1.365,0.033-2.048H3.727z
				"/>
			<path fill="#333333" d="M-8.92,68.787h-6.818v2.048h6.544C-9.111,70.152-9.019,69.47-8.92,68.787z"/>
			<path fill="#333333" d="M119.042,68.787c-0.005,0.685-0.019,1.367-0.046,2.048h8.839v-2.048H119.042z"/>
		</g>
		<g>
			<path fill="#B3B3B3" d="M3.52,84.565h105.036c-0.008-0.191-0.021-0.382-0.026-0.573c-0.074-0.49-0.125-0.982-0.185-1.475H3.583
				C3.571,83.2,3.551,83.883,3.52,84.565z"/>
			<path fill="#B3B3B3" d="M-2.485,84.076c-0.24-0.497-0.457-0.999-0.642-1.509c-0.262,0.29-0.543,0.563-0.868,0.796
				c-0.413,0.297-1.155,0.105-1.368-0.358c-0.075-0.161-0.138-0.324-0.206-0.487h-0.394c-0.249,0.419-0.515,0.824-0.831,1.189
				c-0.521,0.604-1.452,0.222-1.671-0.441c-0.083-0.249-0.152-0.498-0.224-0.748h-7.05v2.048h13.364
				C-2.41,84.402-2.453,84.24-2.485,84.076z"/>
			<path fill="#B3B3B3" d="M116.67,82.518c-0.014,0.083-0.025,0.165-0.04,0.248c-0.12,0.675-0.824,0.841-1.355,0.614
				c-0.032,0.397-0.074,0.792-0.116,1.186h12.676v-2.048H116.67z"/>
			<path fill="#808080" d="M3.581,82.688h104.786c-0.085-0.682-0.161-1.364-0.222-2.049H3.594
				C3.597,81.323,3.593,82.006,3.581,82.688z"/>
			<path fill="#808080" d="M-9.132,80.64h-6.605v2.049h7.101C-8.839,82.008-9.003,81.325-9.132,80.64z"/>
			<path fill="#808080" d="M116.977,80.64c-0.104,0.684-0.214,1.366-0.334,2.049h11.191V80.64H116.977z"/>
			<path fill="#666666" d="M3.594,80.64h104.551c-0.06-0.683-0.115-1.365-0.154-2.05H3.564C3.58,79.273,3.59,79.957,3.594,80.64z"/>
			<path fill="#666666" d="M-9.422,78.59h-6.315v2.05h6.605C-9.26,79.958-9.357,79.275-9.422,78.59z"/>
			<path fill="#666666" d="M117.261,78.59c-0.088,0.684-0.181,1.367-0.284,2.05h10.857v-2.05H117.261z"/>
			<path fill="#333333" d="M3.569,78.761h104.429c-0.039-0.683-0.063-1.366-0.086-2.05H3.512
				C3.535,77.395,3.554,78.078,3.569,78.761z"/>
			<path fill="#333333" d="M-9.537,76.711h-6.201v2.05h6.33C-9.478,78.079-9.521,77.396-9.537,76.711z"/>
			<path fill="#333333" d="M118.103,76.711c-0.093,0.298-0.193,0.594-0.306,0.889c-0.091,0.239-0.268,0.42-0.476,0.543
				c-0.025,0.206-0.058,0.412-0.084,0.618h10.597v-2.05H118.103z"/>
		</g>
		<g>
			<path fill="#B3B3B3" d="M113.796,90.444c0.011,0.683,0.021,1.364,0.027,2.047h14.011v-2.047H113.796z"/>
			<path fill="#B3B3B3" d="M2.916,90.559c-0.019,0.645-0.034,1.288-0.052,1.933H111.8c-0.036-0.681-0.069-1.364-0.102-2.047h-0.649
				c-0.341,0.691-1.459,0.717-1.773,0H2.932C2.926,90.482,2.922,90.521,2.916,90.559z"/>
			<path fill="#B3B3B3" d="M0.082,91.094c-0.471,0.147-1.007-0.039-1.207-0.649h-14.613v2.047H0.162
				C0.138,92.025,0.104,91.56,0.082,91.094z"/>
			<path fill="#808080" d="M-1.131,90.433c-0.194-0.612-0.34-1.236-0.454-1.866h-14.153v2.048h14.704
				C-1.066,90.553-1.108,90.506-1.131,90.433z"/>
			<path fill="#808080" d="M2.916,90.559c0,0.019-0.001,0.037-0.001,0.056h106.448c-0.073-0.098-0.131-0.21-0.159-0.349
				c-0.113-0.563-0.208-1.129-0.29-1.699H3.198C3.118,89.231,3.025,89.896,2.916,90.559z"/>
			<path fill="#808080" d="M114.5,88.566c-0.066,0.289-0.128,0.581-0.203,0.866c-0.076,0.29-0.272,0.482-0.507,0.597
				c0.003,0.195,0.005,0.39,0.008,0.585h14.036v-2.048H114.5z"/>
			<path fill="#666666" d="M3.198,88.566h105.715c-0.099-0.678-0.171-1.362-0.23-2.049H3.399
				C3.345,87.201,3.279,87.884,3.198,88.566z"/>
			<path fill="#666666" d="M-1.843,86.576c-0.006-0.02-0.011-0.039-0.017-0.059h-13.878v2.049h14.153
				C-1.704,87.909-1.786,87.245-1.843,86.576z"/>
			<path fill="#666666" d="M114.905,86.518c-0.11,0.693-0.249,1.374-0.404,2.049h13.334v-2.049H114.905z"/>
			<path fill="#333333" d="M3.387,86.688h105.309c-0.062-0.68-0.106-1.362-0.136-2.049H3.517
				C3.485,85.322,3.444,86.005,3.387,86.688z"/>
			<path fill="#333333" d="M-1.843,86.576c-0.204-0.641-0.369-1.288-0.515-1.938h-13.38v2.049h13.907
				C-1.834,86.65-1.839,86.613-1.843,86.576z"/>
			<path fill="#333333" d="M115.152,84.639c-0.075,0.689-0.167,1.373-0.278,2.049h12.961v-2.049H115.152z"/>
		</g>
		<g>
			<path fill="#B3B3B3" d="M0.498,98.369h-16.235v2.05H0.615C0.572,99.735,0.539,99.053,0.498,98.369z"/>
			<path fill="#B3B3B3" d="M108.409,98.369c0.144,0.397,0.069,0.868-0.403,1.161c-0.479,0.297-0.961,0.593-1.441,0.889h21.271v-2.05
				H108.409z"/>
			<path fill="#B3B3B3" d="M96.662,99.471c0.503-0.253,1.061-0.011,1.35,0.382c0.889-0.518,1.794-1.01,2.711-1.483H14.119
				c1.144,0.695,2.305,1.379,3.485,2.05h77.277C95.467,100.091,96.06,99.773,96.662,99.471z"/>
			<path fill="#B3B3B3" d="M10.495,100.197c-0.854-0.509-0.453-1.632,0.289-1.828h-8.06c-0.014,0.684-0.028,1.366-0.04,2.05h8.168
				C10.733,100.347,10.616,100.27,10.495,100.197z"/>
			<path fill="#808080" d="M2.761,96.492c-0.016,0.683-0.026,1.364-0.04,2.047h7.717c0.279-0.22,0.663-0.3,1.067-0.068
				c0.04,0.022,0.079,0.046,0.118,0.068h0.1c0.107-0.627,0.751-1.17,1.45-0.735c0.403,0.25,0.823,0.489,1.231,0.735h85.987
				c0.476-0.251,0.951-0.502,1.438-0.735c0.73-0.35,1.353,0.145,1.452,0.735h2.44c0.422-0.248,0.843-0.5,1.274-0.735
				c0.716-0.389,1.363,0.13,1.472,0.735h19.367v-2.047H2.761z"/>
			<path fill="#808080" d="M0.39,96.492h-16.128v2.047H0.507C0.466,97.856,0.43,97.175,0.39,96.492z"/>
			<path fill="#666666" d="M0.273,94.444h-16.011v2.048H0.39C0.351,95.81,0.311,95.127,0.273,94.444z"/>
			<path fill="#666666" d="M2.812,94.444c-0.018,0.683-0.035,1.365-0.051,2.048h125.074v-2.048H2.812z"/>
			<path fill="#333333" d="M0.166,92.564h-15.904v2.05H0.283C0.246,93.931,0.201,93.247,0.166,92.564z"/>
			<path fill="#333333" d="M113.826,92.564c0.002,0.201,0.007,0.401,0.008,0.603c0.005,1.298-1.931,1.279-2,0
				c-0.011-0.2-0.02-0.402-0.03-0.603H2.862c-0.019,0.684-0.038,1.366-0.055,2.05h125.027v-2.05H113.826z"/>
		</g>
		<g>
			<path fill="#B3B3B3" d="M13.46,107.707c-0.447-0.506-0.315-1.083,0.063-1.41h-29.261v2.048h29.791
				C13.855,108.132,13.653,107.926,13.46,107.707z"/>
			<path fill="#B3B3B3" d="M83.664,108.255c0.84-0.657,1.683-1.312,2.529-1.958H28.297c1.217,0.672,2.429,1.354,3.632,2.048h51.593
				C83.569,108.315,83.616,108.284,83.664,108.255z"/>
			<path fill="#B3B3B3" d="M102.303,106.297c-0.874,0.709-1.768,1.39-2.678,2.048h28.209v-2.048H102.303z"/>
			<path fill="#808080" d="M14.672,106.137c0.237,0.104,0.469,0.219,0.702,0.331h0.764c0.087-0.037,0.176-0.069,0.273-0.082
				c-0.428-0.338-0.865-0.661-1.285-1.012c-0.329-0.273-0.375-0.637-0.261-0.957h-30.604v2.051h29.097
				C13.623,106.1,14.137,105.9,14.672,106.137z"/>
			<path fill="#808080" d="M88.717,104.417h-63.86c1.25,0.677,2.498,1.361,3.745,2.051H85.97
				C86.877,105.772,87.792,105.086,88.717,104.417z"/>
			<path fill="#808080" d="M104.677,104.417c-0.627,0.497-1.244,1.004-1.883,1.489c-0.231,0.192-0.472,0.373-0.706,0.562h25.746
				v-2.051H104.677z"/>
			<path fill="#666666" d="M14.872,104.394c-0.014-0.01-0.029-0.02-0.043-0.03c-0.586-0.424-0.524-1.163-0.165-1.585
				c-0.218-0.14-0.442-0.271-0.661-0.409h-29.741v2.048h30.604C14.869,104.409,14.869,104.401,14.872,104.394z"/>
			<path fill="#666666" d="M91.679,102.369H21.098c1.247,0.683,2.5,1.365,3.76,2.048h63.86
				C89.69,103.713,90.674,103.026,91.679,102.369z"/>
			<path fill="#666666" d="M106.482,102.369c0.063,0.294,0.006,0.604-0.274,0.838c-0.499,0.415-1.021,0.807-1.53,1.21h23.157v-2.048
				H106.482z"/>
			<path fill="#333333" d="M10.971,100.492H2.683c-0.004,0.28-0.012,0.562-0.016,0.842c-0.019,1.3-1.918,1.277-2,0
				c-0.018-0.281-0.03-0.562-0.048-0.842h-16.356v2.047h30.015C13.184,101.844,12.083,101.161,10.971,100.492z"/>
			<path fill="#333333" d="M106.446,100.492c-0.505,0.311-1.008,0.622-1.513,0.933c-0.033,0.034-0.056,0.075-0.095,0.105
				c-0.45,0.348-0.914,0.675-1.373,1.009h0.24c0.429-0.303,0.856-0.605,1.29-0.902c0.692-0.473,1.498,0.218,1.518,0.902h21.321
				v-2.047H106.446z"/>
			<path fill="#333333" d="M94.756,100.492H17.734c1.213,0.688,2.438,1.371,3.675,2.047h70.012
				C92.509,101.82,93.619,101.135,94.756,100.492z"/>
		</g>
		<g>
			<path fill="#B3B3B3" d="M17.048,114.223h-32.786v2.047h34.373C18.087,115.603,17.561,114.918,17.048,114.223z"/>
			<path fill="#B3B3B3" d="M91.151,114.223c-0.943,0.674-1.879,1.356-2.807,2.047h1.021c1.558-1,3.175-1.832,5.018-2.047H91.151z"/>
			<path fill="#B3B3B3" d="M72.25,116.162c0.855-0.652,1.717-1.298,2.58-1.939H41.063c0.279,0.205,0.572,0.396,0.849,0.604
				c0.769,0.47,1.525,0.96,2.287,1.442h27.826C72.101,116.234,72.173,116.196,72.25,116.162z"/>
			<path fill="#B3B3B3" d="M95.726,114.223c0.545,0.134,0.819,0.645,0.738,1.21c-0.04,0.279-0.08,0.558-0.12,0.837h31.49v-2.047
				H95.726z"/>
			<path fill="#808080" d="M15.746,112.345h-31.484v2.047h32.909C16.676,113.726,16.202,113.043,15.746,112.345z"/>
			<path fill="#808080" d="M93.809,112.345c-0.969,0.678-1.933,1.359-2.893,2.047h2.553c0.649-0.15,1.32-0.241,2.031-0.225
				c0.247,0.006,0.432,0.1,0.588,0.225h31.746v-2.047H93.809z"/>
			<path fill="#808080" d="M77.445,112.345H38.416c0.982,0.658,1.938,1.347,2.884,2.047h33.305
				C75.54,113.693,76.49,113.016,77.445,112.345z"/>
			<path fill="#666666" d="M15.304,111.672c-0.337-0.543-0.047-1.136,0.438-1.377h-31.479v2.05h31.484
				C15.599,112.12,15.446,111.9,15.304,111.672z"/>
			<path fill="#666666" d="M78.716,111.445c0.579-0.391,1.166-0.77,1.751-1.15H35.214c1.082,0.666,2.152,1.346,3.202,2.05h39.029
				C77.87,112.047,78.286,111.735,78.716,111.445z"/>
			<path fill="#666666" d="M96.824,110.295c-0.536,0.358-1.072,0.716-1.612,1.068c-0.468,0.327-0.936,0.654-1.402,0.981h34.025
				v-2.05H96.824z"/>
			<path fill="#333333" d="M83.411,108.415H32.048c1.156,0.668,2.301,1.351,3.433,2.051h44.727
				C81.269,109.772,82.336,109.089,83.411,108.415z"/>
			<path fill="#333333" d="M99.53,108.415c-0.975,0.702-1.964,1.384-2.964,2.051h31.269v-2.051H99.53z"/>
			<path fill="#333333" d="M15.901,110.227c-0.609-0.586-1.202-1.191-1.783-1.812h-29.856v2.051H15.49
				C15.607,110.358,15.747,110.274,15.901,110.227z"/>
		</g>
		<g>
			<path fill="#B3B3B3" d="M44.218,122.147H26.624c0.643,0.681,1.284,1.362,1.917,2.051h19.078
				C46.448,123.57,45.319,122.881,44.218,122.147z"/>
			<path fill="#B3B3B3" d="M23.931,122.147h-39.669v2.051h41.605C25.225,123.513,24.578,122.83,23.931,122.147z"/>
			<path fill="#B3B3B3" d="M63.126,122.793c0.207-0.221,0.42-0.432,0.631-0.646H49.846c0.466,0.536,0.922,1.081,1.361,1.646
				c0.104,0.133,0.165,0.27,0.207,0.405h11.744C62.821,123.834,62.716,123.229,63.126,122.793z"/>
			<path fill="#B3B3B3" d="M84.433,122.147c-0.404,0.329-0.787,0.641-1.146,0.924c-0.479,0.379-0.959,0.752-1.439,1.127h45.986
				v-2.051H84.433z"/>
			<path fill="#808080" d="M43.631,121.761c-0.232,0.077-0.508,0.071-0.803-0.063c-0.55-0.251-1.084-0.527-1.628-0.79
				c-0.225,0.451-0.764,0.751-1.372,0.456c-0.73-0.354-1.454-0.721-2.174-1.094h-1.122c-0.172,0.191-0.402,0.316-0.669,0.331
				c0.005,0.665-0.817,1.315-1.535,0.93c-0.752-0.403-1.489-0.83-2.224-1.261h-0.531c-0.27,0.357-0.739,0.554-1.245,0.261
				c-0.148-0.086-0.293-0.175-0.441-0.261h-5.039c0.645,0.684,1.291,1.366,1.936,2.049h17.692
				C44.195,122.133,43.91,121.951,43.631,121.761z"/>
			<path fill="#808080" d="M22.164,120.27h-37.902v2.049h39.831C23.448,121.638,22.803,120.956,22.164,120.27z"/>
			<path fill="#808080" d="M65.777,120.27H48.108c0.649,0.664,1.284,1.342,1.891,2.049H63.59
				C64.296,121.593,65.024,120.91,65.777,120.27z"/>
			<path fill="#808080" d="M86.777,120.27c-0.914,0.707-1.775,1.414-2.555,2.049h43.612v-2.049H86.777z"/>
			<path fill="#666666" d="M29.068,120.214c-1.343-0.284-2.902-1.058-4.308-1.991h-1.813c0.626,0.688,1.264,1.369,1.902,2.047h5.039
				c-0.062-0.036-0.121-0.074-0.183-0.11C29.52,120.236,29.304,120.264,29.068,120.214z"/>
			<path fill="#666666" d="M68.486,118.223H46.261c-0.004,0.073-0.006,0.146-0.022,0.218c0.64,0.593,1.26,1.205,1.87,1.829h17.668
				C66.644,119.532,67.542,118.845,68.486,118.223z"/>
			<path fill="#666666" d="M85.787,118.223c-0.845,0.666-1.673,1.352-2.491,2.047h0.43c0.921-0.7,1.858-1.379,2.804-2.047H85.787z"
				/>
			<path fill="#666666" d="M89.68,118.223c-1.001,0.624-1.978,1.332-2.903,2.047h41.058v-2.047H89.68z"/>
			<path fill="#666666" d="M20.307,118.223h-36.045v2.047h37.902C21.536,119.595,20.917,118.912,20.307,118.223z"/>
			<path fill="#333333" d="M18.696,116.343h-34.434v2.052h36.197C19.86,117.721,19.269,117.039,18.696,116.343z"/>
			<path fill="#333333" d="M88.246,116.343c-0.901,0.673-1.793,1.354-2.672,2.052h0.719c0.308-0.219,0.604-0.452,0.915-0.666
				c0.679-0.468,1.355-0.94,2.042-1.386H88.246z"/>
			<path fill="#333333" d="M68.238,118.395c1.143-0.771,2.35-1.456,3.634-2.052H44.315c0.507,0.321,1.021,0.632,1.523,0.961
				c0.381,0.25,0.482,0.692,0.405,1.091H68.238z"/>
			<path fill="#333333" d="M96.334,116.343c-0.013,0.086-0.024,0.171-0.037,0.257c-0.167,1.17-1.776,0.791-1.898-0.257h-0.447
				c-1.5,0.32-3.048,1.094-4.542,2.052h38.425v-2.052H96.334z"/>
			<path fill="#333333" d="M22.391,116.343h-1.104c0.595,0.693,1.201,1.377,1.817,2.052h1.914
				C24.033,117.764,23.122,117.049,22.391,116.343z"/>
		</g>
	</g>
</g>
<g>
	<linearGradient id="SVGID_3_" gradientUnits="userSpaceOnUse" x1="55.7417" y1="117.9346" x2="55.7417" y2="25.3231">
		<stop  offset="0" style="stop-color:#BA6963"/>
		<stop  offset="0.1198" style="stop-color:#B56966"/>
		<stop  offset="0.2693" style="stop-color:#A56A6D"/>
		<stop  offset="0.4346" style="stop-color:#8C6B79"/>
		<stop  offset="0.6112" style="stop-color:#686D8A"/>
		<stop  offset="0.797" style="stop-color:#3B6EA0"/>
		<stop  offset="0.9877" style="stop-color:#0471BA"/>
		<stop  offset="1" style="stop-color:#0071BC"/>
	</linearGradient>
	<path fill="url(#SVGID_3_)" d="M72.25,116.162c2.122-1.617,4.253-3.224,6.467-4.717c1.627-1.098,3.284-2.148,4.947-3.19
		c3.966-3.106,7.97-6.157,12.446-8.491l11.915-20.65c-0.34-5.333-0.067-10.724-0.034-16.09c0.03-4.826-0.445-9.726-0.269-14.56
		L92.816,22.629c-3.23-1.211-6.084-3.108-9.078-4.917c-1.97-0.896-3.943-1.786-5.909-2.682c-2.931-1.336-6.028-2.455-8.741-4.171
		H51.415c0.127,0.474-0.053,1.051-0.649,1.272c-1.592,0.59-3.208,1.102-4.831,1.584c-5.634,2.02-11.084,4.59-16.414,7.306
		c-5.864,3.793-11.304,8.224-17.428,11.585l-7.657,13.27c-0.309,3.43,0.003,7.213-0.146,10.284
		c-0.241,4.978-0.463,9.956-0.667,14.935c-0.056,1.376-0.11,2.752-0.166,4.127c0.073,1.85,0.13,3.698,0.137,5.544l9.963,17.268
		c9.097,5.601,19.638,10.195,28.354,16.793c1.288,0.787,2.566,1.59,3.831,2.416H70.11C70.8,116.856,71.509,116.491,72.25,116.162z"
		/>
</g>
<polygon opacity="0.3" fill="#FCEE21" points="55.303,35.591 58.739,13.833 58.73,35.86 65.526,14.907 62.07,36.663 72.061,17.03 
	65.244,37.977 78.183,20.15 68.172,39.772 83.742,24.188 70.785,42.003 88.6,29.047 73.017,44.616 92.638,34.606 74.812,47.545 
	95.758,40.728 76.125,50.719 97.881,47.263 76.929,54.061 98.957,54.049 77.199,57.485 98.957,60.92 76.929,60.91 97.881,67.691 
	76.125,64.25 95.758,74.226 74.812,67.409 92.638,80.348 73.017,70.338 88.6,85.905 70.785,72.95 83.742,90.765 68.172,75.181 
	78.183,94.803 65.244,76.975 72.061,97.923 62.07,78.29 65.526,100.046 58.73,79.094 58.739,101.12 55.303,79.362 51.866,101.12 
	51.877,79.094 45.079,100.046 48.536,78.29 38.544,97.923 45.362,76.975 32.422,94.803 42.432,75.181 26.864,90.765 39.82,72.95 
	22.005,85.905 37.589,70.338 17.966,80.348 35.793,67.409 14.847,74.226 34.479,64.25 12.723,67.691 33.677,60.91 11.649,60.92 
	33.408,57.485 11.649,54.049 33.677,54.061 12.723,47.263 34.479,50.719 14.847,40.728 35.793,47.545 17.966,34.606 37.589,44.616 
	22.005,29.047 39.82,42.003 26.864,24.188 42.432,39.772 32.422,20.15 45.362,37.977 38.544,17.03 48.536,36.663 45.079,14.907 
	51.877,35.86 51.866,13.833 "/>
<path fill="#FCEE21" stroke="#000000" stroke-width="0.8072" d="M65.775,93.945c0.961-6.209,3.938-12.143,8.899-16.725
	c5.85-5.274,9.527-12.895,9.527-21.392c0-15.919-12.904-28.825-28.828-28.825c-0.025,0-0.049,0.002-0.073,0.003
	c-0.023-0.001-0.048-0.003-0.073-0.003c-15.92,0-28.825,12.906-28.825,28.825c0,8.497,3.678,16.117,9.526,21.392
	c4.961,4.582,7.938,10.516,8.901,16.725H65.775z"/>
<path opacity="0.3" fill="#FCEE21" d="M61.611,97.695c0.578-6.904,9.716-13.502,15.232-18.598
	c6.505-5.865,10.595-14.345,10.595-23.791c0-17.702-14.35-32.053-32.056-32.053c-0.027,0-0.055,0.002-0.081,0.003
	c-0.026-0.001-0.054-0.003-0.081-0.003c-17.702,0-32.052,14.351-32.052,32.053c0,9.446,4.089,17.925,10.593,23.791
	c5.517,5.096,14.655,11.693,15.235,18.598H61.611z"/>
<path opacity="0.3" fill="#FCEE21" d="M62.776,100.834c0.686-7.833,11.512-15.318,18.047-21.1
	C88.53,73.08,93.375,63.46,93.375,52.743c0-20.084-17.001-36.366-37.979-36.366c-0.031,0-0.064,0.002-0.096,0.004
	c-0.031-0.001-0.064-0.004-0.096-0.004c-20.973,0-37.975,16.282-37.975,36.366c0,10.717,4.845,20.337,12.55,26.992
	c6.537,5.781,17.363,13.267,18.05,21.1H62.776z"/>
<linearGradient id="SVGID_4_" gradientUnits="userSpaceOnUse" x1="43.6978" y1="95.3574" x2="66.9077" y2="95.3574">
	<stop  offset="0" style="stop-color:#666666"/>
	<stop  offset="0.503" style="stop-color:#FFFFFF"/>
	<stop  offset="1" style="stop-color:#666666"/>
</linearGradient>
<path fill="url(#SVGID_4_)" stroke="#000000" d="M66.908,95.357c0,0.78-0.632,1.413-1.412,1.413H45.11
	c-0.781,0-1.413-0.633-1.413-1.413l0,0c0-0.78,0.632-1.412,1.413-1.412h20.385C66.276,93.945,66.908,94.577,66.908,95.357
	L66.908,95.357z"/>
<linearGradient id="SVGID_5_" gradientUnits="userSpaceOnUse" x1="43.6978" y1="98.1914" x2="66.9077" y2="98.1914">
	<stop  offset="0" style="stop-color:#666666"/>
	<stop  offset="0.503" style="stop-color:#FFFFFF"/>
	<stop  offset="1" style="stop-color:#666666"/>
</linearGradient>
<path fill="url(#SVGID_5_)" stroke="#000000" d="M66.908,98.19c0,0.78-0.632,1.413-1.412,1.413H45.11
	c-0.781,0-1.413-0.633-1.413-1.413l0,0c0-0.78,0.632-1.412,1.413-1.412h20.385C66.276,96.778,66.908,97.41,66.908,98.19
	L66.908,98.19z"/>
<linearGradient id="SVGID_6_" gradientUnits="userSpaceOnUse" x1="43.6978" y1="101.0234" x2="66.9077" y2="101.0234">
	<stop  offset="0" style="stop-color:#666666"/>
	<stop  offset="0.503" style="stop-color:#FFFFFF"/>
	<stop  offset="1" style="stop-color:#666666"/>
</linearGradient>
<path fill="url(#SVGID_6_)" stroke="#000000" d="M66.908,101.023c0,0.78-0.632,1.413-1.412,1.413H45.11
	c-0.781,0-1.413-0.633-1.413-1.413l0,0c0-0.78,0.632-1.412,1.413-1.412h20.385C66.276,99.611,66.908,100.243,66.908,101.023
	L66.908,101.023z"/>
<linearGradient id="SVGID_7_" gradientUnits="userSpaceOnUse" x1="43.6978" y1="103.8574" x2="66.9077" y2="103.8574">
	<stop  offset="0" style="stop-color:#666666"/>
	<stop  offset="0.503" style="stop-color:#FFFFFF"/>
	<stop  offset="1" style="stop-color:#666666"/>
</linearGradient>
<path fill="url(#SVGID_7_)" stroke="#000000" d="M66.908,103.856c0,0.78-0.632,1.413-1.412,1.413H45.11
	c-0.781,0-1.413-0.633-1.413-1.413l0,0c0-0.78,0.632-1.412,1.413-1.412h20.385C66.276,102.444,66.908,103.076,66.908,103.856
	L66.908,103.856z"/>
<linearGradient id="SVGID_8_" gradientUnits="userSpaceOnUse" x1="43.6978" y1="106.6895" x2="66.9077" y2="106.6895">
	<stop  offset="0" style="stop-color:#666666"/>
	<stop  offset="0.503" style="stop-color:#FFFFFF"/>
	<stop  offset="1" style="stop-color:#666666"/>
</linearGradient>
<path fill="url(#SVGID_8_)" stroke="#000000" d="M66.908,106.689c0,0.78-0.632,1.413-1.412,1.413H45.11
	c-0.781,0-1.413-0.633-1.413-1.413l0,0c0-0.78,0.632-1.412,1.413-1.412h20.385C66.276,105.277,66.908,105.909,66.908,106.689
	L66.908,106.689z"/>
<linearGradient id="SVGID_9_" gradientUnits="userSpaceOnUse" x1="43.6978" y1="109.5234" x2="66.9077" y2="109.5234">
	<stop  offset="0" style="stop-color:#666666"/>
	<stop  offset="0.503" style="stop-color:#FFFFFF"/>
	<stop  offset="1" style="stop-color:#666666"/>
</linearGradient>
<path fill="url(#SVGID_9_)" stroke="#000000" d="M66.908,109.522c0,0.78-0.632,1.413-1.412,1.413H45.11
	c-0.781,0-1.413-0.633-1.413-1.413l0,0c0-0.78,0.632-1.412,1.413-1.412h20.385C66.276,108.11,66.908,108.742,66.908,109.522
	L66.908,109.522z"/>
<radialGradient id="SVGID_10_" cx="55.3027" cy="55.5957" r="21.2463" gradientUnits="userSpaceOnUse">
	<stop  offset="0" style="stop-color:#FFFFFF"/>
	<stop  offset="0.9" style="stop-color:#FFFFFF;stop-opacity:0.1"/>
	<stop  offset="1" style="stop-color:#FFFFFF;stop-opacity:0"/>
</radialGradient>
<path fill="url(#SVGID_10_)" d="M76.554,55.604c0-11.736-9.514-21.25-21.251-21.25s-21.251,9.514-21.251,21.25
	c0,11.722,9.514,21.232,21.251,21.232S76.554,67.326,76.554,55.604z"/>
<g>
	<path fill="none" stroke="#000000" stroke-linecap="round" stroke-linejoin="round" d="M61.273,87.355c0,0-1.641,0.79-6.058,0.79
		c-4.416,0-5.93-0.956-5.93-0.956"/>
	<g>
		<path fill="#FFFFFF" stroke="#000000" stroke-linecap="round" stroke-linejoin="round" d="M53.023,76.374
			c0,0-2.19-0.926-6.241-1.414c-7.573-0.916-9.486-2.821-9.486-2.821s2.142,4.625,7.156,5.316
			C49.279,78.121,53.023,76.374,53.023,76.374z"/>
		<path fill="#FFFFFF" stroke="#000000" stroke-linecap="round" stroke-linejoin="round" d="M57.582,76.374
			c0,0,2.19-0.926,6.242-1.414c7.572-0.916,9.486-2.821,9.486-2.821s-2.143,4.625-7.157,5.316
			C61.328,78.121,57.582,76.374,57.582,76.374z"/>
	</g>
	<g>
		<path fill="none" stroke="#000000" stroke-linecap="round" stroke-linejoin="round" d="M50.957,82.032
			c0,0,0.583-0.665,1.332-0.498c0.749,0.166,0.887,1.413,2.991,1.413c2.105,0,2.291-1.247,3.04-1.413
			c0.749-0.167,1.331,0.498,1.331,0.498"/>
	</g>
</g>
<g>
	<linearGradient id="SVGID_11_" gradientUnits="userSpaceOnUse" x1="50.0635" y1="73.4902" x2="31.1492" y2="66.2745">
		<stop  offset="0.0024" style="stop-color:#876963"/>
		<stop  offset="1" style="stop-color:#876963;stop-opacity:0"/>
	</linearGradient>
	<path fill="url(#SVGID_11_)" d="M52.677,74.001c0,0,0.437-1.972-4.25-2.583c-3.833-0.5-5.917-0.583-8.75-1.5
		c-4.291-1.389-6.25-3.917-6.25-3.917s1.659,5.723,12.75,6.75C50.677,73.168,52.677,74.001,52.677,74.001z"/>
	
		<linearGradient id="SVGID_12_" gradientUnits="userSpaceOnUse" x1="61.1245" y1="73.4902" x2="42.2112" y2="66.2749" gradientTransform="matrix(-1 0 0 1 121.667 0)">
		<stop  offset="0.0024" style="stop-color:#876963"/>
		<stop  offset="1" style="stop-color:#876963;stop-opacity:0"/>
	</linearGradient>
	<path fill="url(#SVGID_12_)" d="M57.928,74.001c0,0-0.437-1.972,4.25-2.583c3.833-0.5,5.916-0.583,8.75-1.5
		c4.291-1.389,6.25-3.917,6.25-3.917s-1.659,5.723-12.75,6.75C59.928,73.168,57.928,74.001,57.928,74.001z"/>
</g>
<g>
	<g>
		<path fill="#FFFFFF" d="M31.403,52.783c-0.241-0.409-0.445-0.847-0.604-1.312c-0.996-2.903,0.001-5.984,2.264-7.844
			c-1.158-3.739,0.93-7.722,4.753-8.969c0.796-0.259,1.603-0.374,2.398-0.37c-0.168,0.042-0.335,0.083-0.501,0.136
			c-3.824,1.248-5.912,5.23-4.753,8.969c-2.263,1.86-3.26,4.941-2.265,7.844c0.159,0.465,0.363,0.902,0.604,1.312
			c-2.087,1.877-2.977,4.837-2.018,7.633c0.99,2.886,3.662,4.758,6.597,4.935c1.383,1.772,3.541,2.826,5.822,2.856
			c-2.934,0.718-5.955-0.362-7.719-2.623c-2.935-0.177-5.606-2.049-6.597-4.935C28.426,57.62,29.316,54.66,31.403,52.783z"/>
		<path fill="#FFFFFF" d="M37.219,47.761c-0.168-0.439-0.304-0.9-0.404-1.38c-0.62-3.001,0.366-5.86,2.291-7.324
			c-0.699-3.845,1.214-7.415,4.351-8.032c0.653-0.128,1.306-0.112,1.942,0.018c-0.137,0.015-0.273,0.028-0.409,0.054
			c-3.137,0.617-5.051,4.188-4.352,8.032c-1.924,1.463-2.911,4.323-2.291,7.324c0.099,0.48,0.236,0.941,0.404,1.38
			c-1.785,1.508-2.677,4.266-2.08,7.155c0.616,2.983,2.641,5.24,4.979,5.878c0.999,1.955,2.662,3.328,4.485,3.718
			c-2.392,0.239-4.744-1.297-6.018-3.79c-2.338-0.638-4.362-2.895-4.979-5.878C34.542,52.026,35.434,49.269,37.219,47.761z"/>
		<path fill="#FFFFFF" d="M43.607,44.824c-0.104-0.455-0.183-0.928-0.233-1.415c-0.314-3.045,0.554-5.757,2.053-6.974
			c-0.333-3.891,1.258-7.195,3.614-7.426c0.49-0.048,0.973,0.047,1.439,0.252c-0.103-0.002-0.205-0.006-0.307,0.004
			c-2.355,0.231-3.947,3.535-3.614,7.426c-1.498,1.216-2.367,3.929-2.052,6.974c0.05,0.487,0.13,0.96,0.233,1.415
			c-1.396,1.278-2.191,3.9-1.888,6.833c0.313,3.027,1.705,5.506,3.408,6.42c0.646,2.056,1.813,3.616,3.146,4.223
			c-1.784-0.052-3.455-1.857-4.278-4.479c-1.703-0.915-3.095-3.393-3.408-6.421C41.416,48.725,42.21,46.102,43.607,44.824z"/>
	</g>
	<g>
		<path fill="#FFFFFF" d="M79.203,52.783c0.24-0.409,0.444-0.847,0.604-1.312c0.996-2.903-0.002-5.984-2.264-7.844
			c1.157-3.739-0.93-7.722-4.754-8.969c-0.796-0.259-1.604-0.374-2.398-0.37c0.168,0.042,0.336,0.083,0.501,0.136
			c3.824,1.248,5.911,5.23,4.753,8.969c2.264,1.86,3.261,4.941,2.266,7.844c-0.16,0.465-0.363,0.902-0.605,1.312
			c2.088,1.877,2.978,4.837,2.019,7.633c-0.99,2.886-3.662,4.758-6.597,4.935c-1.383,1.772-3.541,2.826-5.822,2.856
			c2.934,0.718,5.955-0.362,7.719-2.623c2.936-0.177,5.607-2.049,6.598-4.935C82.179,57.62,81.289,54.66,79.203,52.783z"/>
		<path fill="#FFFFFF" d="M73.386,47.761c0.168-0.439,0.305-0.9,0.404-1.38c0.619-3.001-0.367-5.86-2.291-7.324
			c0.699-3.845-1.215-7.415-4.352-8.032c-0.652-0.128-1.306-0.112-1.942,0.018c0.138,0.015,0.273,0.028,0.409,0.054
			c3.137,0.617,5.051,4.188,4.352,8.032c1.924,1.463,2.911,4.323,2.291,7.324c-0.1,0.48-0.236,0.941-0.404,1.38
			c1.785,1.508,2.678,4.266,2.08,7.155c-0.615,2.983-2.641,5.24-4.979,5.878c-0.999,1.955-2.662,3.328-4.485,3.718
			c2.392,0.239,4.744-1.297,6.019-3.79c2.338-0.638,4.361-2.895,4.979-5.878C76.064,52.026,75.171,49.269,73.386,47.761z"/>
		<path fill="#FFFFFF" d="M66.998,44.824c0.104-0.455,0.184-0.928,0.233-1.415c0.314-3.045-0.554-5.757-2.053-6.974
			c0.333-3.891-1.259-7.195-3.614-7.426c-0.489-0.048-0.973,0.047-1.439,0.252c0.104-0.002,0.205-0.006,0.307,0.004
			c2.355,0.231,3.947,3.535,3.615,7.426c1.497,1.216,2.367,3.929,2.052,6.974c-0.05,0.487-0.13,0.96-0.233,1.415
			c1.396,1.278,2.191,3.9,1.889,6.833c-0.313,3.027-1.705,5.506-3.408,6.42c-0.646,2.056-1.813,3.616-3.146,4.223
			c1.784-0.052,3.455-1.857,4.278-4.479c1.703-0.915,3.096-3.393,3.408-6.421C69.189,48.725,68.394,46.102,66.998,44.824z"/>
	</g>
</g>
<path fill="none" stroke="#000000" stroke-linecap="round" stroke-linejoin="round" d="M51.063,64.831
	c0,0-8.561-13.141-5.332-17.039c3.34-4.032,8.018,4.343,6.014,4.232c-2.495-0.139-3.548-5.454-0.036-6.066
	c3.513-0.612,7.342,6.153,5.051,5.955c-2.565-0.223-4.126-5.833,0.038-5.833c4.159,0,7.141,6.423,4.897,5.874
	c-3.207-0.786-2.04-9.619,2.626-4.286c4.321,4.939-3.664,17.146-3.664,17.146"/>
<path fill="none" stroke="#000000" d="M65.775,93.945c0.961-6.209,3.938-12.143,8.899-16.725c5.85-5.274,9.527-12.895,9.527-21.392
	c0-15.919-12.904-28.825-28.828-28.825c-0.025,0-0.049,0.002-0.073,0.003c-0.023-0.001-0.048-0.003-0.073-0.003
	c-15.92,0-28.825,12.906-28.825,28.825c0,8.497,3.678,16.117,9.526,21.392c4.961,4.582,7.938,10.516,8.901,16.725H65.775z"/>
<g>
	<path fill="#4D4D4D" d="M55.382,117.2L9.283,90.602v-53.2l46.099-26.6l46.102,26.6v53.2L55.382,117.2z M-0.117,96l55.499,32
		l55.4-32V32.001l-55.4-31.999L-0.117,32.001V96z"/>
	<g>
		<g opacity="0.13">
			<g>
				<path d="M55.383,10.9l-46,26.5v53.2l36.33,21.011l9.67,5.59l9.561-5.53l36.439-21.07V37.5L55.383,10.9z M98.984,89.2
					l-38.011,21.97l-5.59,3.23l-5.7-3.29l-38-21.91V38.8l43.7-25.2l43.601,25.2V89.2z"/>
			</g>
		</g>
	</g>
</g>
<linearGradient id="SVGID_13_" gradientUnits="userSpaceOnUse" x1="45.3335" y1="114.1445" x2="65.3032" y2="114.1445">
	<stop  offset="0" style="stop-color:#666666"/>
	<stop  offset="0.503" style="stop-color:#FFFFFF"/>
	<stop  offset="1" style="stop-color:#666666"/>
</linearGradient>
<polygon fill="url(#SVGID_13_)" points="65.303,111.19 64.944,111.67 55.383,117.2 45.713,111.61 45.333,111.09 49.684,111.11 
	60.973,111.17 "/>
</svg>
