<svg xmlns="http://www.w3.org/2000/svg" xmlns:xlink="http://www.w3.org/1999/xlink" width="110.667" height="127.834" viewBox="0 0 110.667 127.834"><defs><path id="a" d="M86.025 10.859H24.641L-6.05 64.05l30.691 53.193h61.384l30.691-53.193z"/></defs><clipPath id="b"><use xlink:href="#a" overflow="visible"/></clipPath><g clip-path="url(#b)"><path fill="#B3B3B3" d="M92.748 11.18a31.225 31.225 0 0 1 2.359 2.05h32.728v-2.05H92.748zm-41.982.951c-1.078.4-2.169.756-3.264 1.099h26.189c-1.402-.615-2.779-1.275-4.082-2.05H51.447a1.01 1.01 0 0 1-.681.951zM21.07 11.18h-36.808v2.05h34.072c.904-.693 1.817-1.375 2.736-2.05z"/><path fill="gray" d="M47.639 10.946c-.001.025-.014.048-.017.073a76.695 76.695 0 0 1 2.613-.816c.838-.244 1.309.497 1.187 1.149h18.466a19.088 19.088 0 0 1-2.918-2.05H50.654c-.995.567-2 1.115-3.015 1.644zM23.651 9.302h-39.389v2.05h36.574c.935-.688 1.874-1.371 2.815-2.05zm66.46 0a33.554 33.554 0 0 1 2.848 2.05h34.876v-2.05H90.111z"/><path fill="#666" d="M86.405 7.254a37.076 37.076 0 0 1 3.706 2.048h37.724V7.254h-41.43zm-53.788 0c-.028.04-.041.083-.077.12a75.072 75.072 0 0 1-1.941 1.928h.101a85.242 85.242 0 0 1 2.965-2.048h-1.048zm21.079 0a.929.929 0 0 1-.357.443 68.173 68.173 0 0 1-2.685 1.605h16.315a14.913 14.913 0 0 1-1.01-.928c-.357-.368-.356-.79-.173-1.12h-12.09zm-27.215 0h-42.219v2.048h39.389c.945-.682 1.89-1.364 2.83-2.048z"/><path fill="#333" d="M27.329 6.637c.679-.498 1.371.11 1.445.789h.353c.73-.545 1.462-1.089 2.203-1.622.951-.683 1.975.779 1.212 1.57l-.052.051h.919a72.415 72.415 0 0 1 3.236-2.05h-52.381v2.05h41.983l1.082-.788zm39.016-1.262H50.507c-.053.054-.098.113-.169.155-.265.159-.528.322-.793.481.231-.1.457-.212.689-.309.519-.217.991.152 1.177.623.387-.15.768-.311 1.157-.456.96-.359 1.529.854 1.051 1.556h12.087a1.065 1.065 0 0 1 1.466-.622c.464.214.938.415 1.406.622h.709a48.266 48.266 0 0 1-2.942-2.05zm15.513 0a41.216 41.216 0 0 1 4.888 2.05h41.089v-2.05H81.858z"/><path fill="#B3B3B3" d="M98.635 19.107c.736.756 0 2.084-1.017 1.633.173.136.34.279.511.418h29.705v-2.051H98.635zm-69.114 1.914c-.069.044-.136.092-.205.137h60.266a64.821 64.821 0 0 1-3.562-2.051H33.364a241.09 241.09 0 0 0-3.843 1.914zm-18.104-1.914h-27.154v2.051H9.396a52.838 52.838 0 0 1 2.021-2.051z"/><path fill="gray" d="M33.02 19.278h53.282c-.852-.518-1.701-1.045-2.563-1.566l-1.066-.484H37.355c-1.456.662-2.9 1.348-4.335 2.05zm-19.574-2.049h-29.184v2.05h26.979a61.03 61.03 0 0 1 2.205-2.05zm82.915 0a1.036 1.036 0 0 1-.144.236c.799.481 1.571.978 2.288 1.506.124.091.219.196.289.308h29.04v-2.05H96.361z"/><path fill="#666" d="M37.355 17.229h45.316c-1.506-.683-3.012-1.365-4.515-2.049H42.127a123.603 123.603 0 0 0-4.772 2.049zm-21.496-2.05h-31.597v2.049h29.184a81.496 81.496 0 0 1 2.413-2.049zm80.381 0c-.108.246-.31.452-.564.556l.33.235c.486.343.542.858.355 1.258h31.474v-2.049H96.24z"/><path fill="#333" d="M45.935 13.715c-1.427.512-2.842 1.06-4.247 1.635h36.847l-.706-.32c-1.307-.596-2.646-1.149-3.973-1.728H47.269c-.445.138-.888.281-1.334.413zm-27.695-.413h-33.978v2.048h31.391c.85-.696 1.714-1.377 2.587-2.048zm76.942 0c.285.275.584.537.858.824a.932.932 0 0 1 .104 1.224h31.69v-2.048H95.182z"/><path fill="#B3B3B3" d="M6.96 28.793c.205-.256.419-.503.628-.755.03-.343.125-.677.259-1.004h-23.585v2.048H6.807a.947.947 0 0 1 .153-.289zm13.861-1.759c-.989.693-1.983 1.377-2.986 2.048h110v-2.048H20.821z"/><path fill="gray" d="M102.158 25.155c.393.737-.148 1.724-1.09 1.476a17.507 17.507 0 0 1-3.726-1.476H23.49c-.97.686-1.941 1.37-2.914 2.05h107.258v-2.05h-25.676zm-93.579.665c-.021-.052-.031-.106-.043-.16-.226.213-.517.465-.995.88-.808.702-2.271-.237-1.57-1.212.042-.059.088-.115.131-.173h-21.839v2.05H7.785c.17-.478.433-.941.794-1.385z"/><path fill="#666" d="M23.49 25.155h73.852c-1.13-.597-2.201-1.297-3.242-2.05H26.421a333.69 333.69 0 0 0-2.931 2.05zM7.7 23.105h-23.438v2.05H6.101a41.64 41.64 0 0 1 1.599-2.05zm92.614 0c.6.589 1.181 1.2 1.727 1.854.051.061.082.129.117.195h25.677v-2.05h-27.521z"/><path fill="#333" d="M98.213 21.227a30.764 30.764 0 0 1 2.272 2.05h27.349v-2.05H98.213zm-72.039 2.05h68.168c-.108-.078-.219-.153-.327-.231-1.511-.467-2.928-1.101-4.304-1.818H29.212a131.237 131.237 0 0 0-3.038 2.049zm-16.841-2.05h-25.071v2.05H7.559a46.37 46.37 0 0 1 1.774-2.05z"/><path fill="#B3B3B3" d="M8.041 34.959l-1.703 1.238c-.8.58-1.753-.463-1.445-1.238h-20.631v2.049h126.059c.006-.043.009-.087.015-.13l-.002-.044a.02.02 0 0 1 .007.001c.012-.089.017-.178.029-.267.166-1.168 1.909-.801 1.964.266.003.058.003.117.006.175h15.495V34.96H8.041z"/><path fill="gray" d="M5.126 34.626l.013-.011c-.214-.359-.235-.817.153-1.155.148-.129.3-.252.451-.378h-21.481v2.048H4.859a.828.828 0 0 1 .267-.504zm6.052-1.544c-.5.263-.995.535-1.506.782-.067.032-.134.039-.202.057l-1.664 1.21h120.028v-2.048H11.178z"/><path fill="#666" d="M6.551 32.404c-.417-.268-.653-.878-.417-1.371h-21.872v2.048H5.744l.807-.677zm8.255-1.371a62.561 62.561 0 0 1-3.628 2.048h116.657v-2.048H14.806z"/><path fill="#333" d="M6.293 30.793c.211-.228.431-.446.645-.671a1.25 1.25 0 0 1-.154-.968h-22.522v2.049H6.069a.94.94 0 0 1 .224-.41zm11.435-1.639a89.028 89.028 0 0 1-3.213 2.049h113.32v-2.049H17.728z"/><path fill="#B3B3B3" d="M-1.868 44.559c.059-.132.11-.266.172-.397a.86.86 0 0 1 .507-.432c.054-.282.117-.563.176-.845h-14.725v2.049h13.272c.167-.19.375-.321.598-.375zm7.678-1.673a1.16 1.16 0 0 1-.943.176 17.67 17.67 0 0 0-.329 1.874h103.455c.081-.685.18-1.369.302-2.049H5.81zm110.626 0a702.04 702.04 0 0 1-.096 2.049h11.494v-2.049h-11.398z"/><path fill="gray" d="M5.481 41.007c.182.182.346.38.549.655.466.63.01 1.238-.59 1.395h102.826c.12-.686.259-1.369.428-2.05H5.481zm-6.055 0h-15.164v2.05h14.689c.14-.685.298-1.369.475-2.05zm116.966 0a.962.962 0 0 1 .108.493c-.022.519-.048 1.038-.072 1.557h11.406v-2.05h-11.442z"/><path fill="#666" d="M-.464 40.568c.142-.521.675-.759 1.149-.697.125-.308.256-.613.396-.912h-16.818v2.047H-.573c.037-.146.069-.292.109-.438zm3.785-1.609c-.012.519-.027 1.037-.041 1.555.027.163.042.328.061.493h.058c.232-.517.898-.936 1.439-.537.269.199.464.359.643.537h103.213c.104-.425.217-.85.343-1.272.142-.474.612-.741 1.06-.719.002-.019.005-.037.006-.056H3.321zm109.089 0c.022.683.054 1.365.067 2.047h2.217c.418-.601 1.383-.62 1.698 0h11.442v-2.047H112.41z"/><path fill="#333" d="M-15.738 37.081v2.049H1.006c.044-.1.083-.204.131-.302a.865.865 0 0 1 .194-.263l.002-.065c.048-1.284 2.022-1.293 2 0-.004.21-.011.42-.017.63h106.267c.162-.076.337-.124.513-.115.063-.645.132-1.29.217-1.934H-15.738zm128.08 0c.034.683.051 1.366.073 2.049h15.419v-2.049h-15.492z"/><path fill="#B3B3B3" d="M4.322 52.861h103.386a93.458 93.458 0 0 1-.023-2.049H4.297l.025 2.049zm-9.725-2.049h-10.334v2.049h9.472c.243-.707.516-1.4.862-2.049zm124.158 0c.18.677.312 1.361.415 2.049h8.664v-2.049h-9.079z"/><path fill="gray" d="M-4.547 49.444c.042-.173.1-.34.147-.511h-11.338v2.05h10.256c.275-.536.578-1.054.935-1.539zm8.843-.51c-.007.685-.006 1.369.002 2.05h103.387c-.002-.684.007-1.368.025-2.05H4.296zm113.845 0c.271.675.477 1.36.652 2.05h9.041v-2.05h-9.693z"/><path fill="#666" d="M-3.643 46.885h-12.095v2.049H-4.4c.199-.705.446-1.39.757-2.049zm8.006 0c-.038.677-.06 1.36-.066 2.049H107.71c.02-.684.048-1.368.095-2.049H4.363zm113.472 0l.051 1.65c.099.105.187.224.244.366l.011.032h9.693v-2.049h-9.999z"/><path fill="#333" d="M116.337 45.007l-.045.965c.581-.331 1.517.042 1.541.861l.007.222h9.994v-2.048h-11.497zm-118.875 0h-13.2v2.048H-3.73c.322-.713.713-1.4 1.192-2.048zm7.068 0a28.1 28.1 0 0 0-.176 2.048h103.44c.045-.685.11-1.367.189-2.048H4.53z"/><g><path fill="#B3B3B3" d="M4.083 60.787H107.97c-.014-.682-.032-1.365-.056-2.049H4.175c-.032.682-.06 1.366-.092 2.049zm-11.595-2.05h-8.226v2.049h7.978c.079-.672.159-1.354.248-2.049zm126.921 0a87.821 87.821 0 0 1-.106 2.049h8.532v-2.049h-8.426z"/><path fill="gray" d="M4.167 58.91h103.752c-.022-.683-.048-1.366-.075-2.049H4.259c-.033.683-.06 1.366-.092 2.049zm-11.406-2.049h-8.499v2.049h8.205c.085-.68.182-1.364.294-2.049zm126.684 0c0 .682-.014 1.365-.043 2.049h8.433v-2.049h-8.39z"/><path fill="#666" d="M4.29 56.161l-.031.7h103.585c-.026-.683-.053-1.367-.077-2.05H4.325c-.005.46-.014.915-.035 1.35zm-11.117-1.35h-8.911v2.05h8.499c.113-.69.253-1.373.412-2.05zm126.205 0c.045.681.066 1.364.066 2.05h8.39v-2.05h-8.456z"/><path fill="#333" d="M4.321 54.982h103.452c-.024-.683-.047-1.367-.063-2.049H4.323c.009.704.008 1.385-.002 2.049zM-6.29 52.933h-9.448v2.049h8.869c.159-.699.353-1.382.579-2.049zm125.469 0c.101.679.168 1.362.209 2.049h8.446v-2.049h-8.655z"/></g><g><path fill="#B3B3B3" d="M-8.598 66.663h-7.14v2.051h6.829c.1-.685.205-1.368.311-2.051zm12.419 0c-.029.684-.063 1.367-.091 2.051h104.173l.037-2.051H3.821zm115.228 0c-.003.684-.002 1.368-.007 2.051h8.792v-2.051h-8.785z"/><path fill="gray" d="M119.075 64.787a87.267 87.267 0 0 0-.026 2.048h8.786v-2.048h-8.76zm-127.507.815a.926.926 0 0 1 .117-.752l.009-.063h-7.432v2.048h7.114l.192-1.233zm12.337-.815l-.092 2.048h104.124c.013-.683.022-1.365.032-2.048H3.905z"/><path fill="#666" d="M-8.014 62.738h-7.724v2.049h7.432c.105-.685.199-1.367.292-2.049zm116.004 0H3.997c-.031.683-.062 1.366-.091 2.049H107.97c.009-.588.018-1.176.021-1.764.001-.095-.001-.19-.001-.285zm11.184 0l-.027.399a41.209 41.209 0 0 0-.072 1.65h8.76v-2.049h-8.661z"/><path fill="#333" d="M119.298 60.86l-.136 2.049h8.672V60.86h-8.536zM3.989 62.909h104.002a87.582 87.582 0 0 0-.019-2.049H4.081c-.032.683-.061 1.366-.092 2.049zm-11.88-1.035c.042-.331.082-.674.122-1.014h-7.969v2.049h7.7c.048-.345.104-.692.147-1.035z"/></g><g><path fill="#B3B3B3" d="M3.458 75.223c.019.473.035.945.051 1.418h104.399c-.021-.683-.034-1.366-.042-2.051H3.483l-.025.633zm-12.972-.633h-6.224v2.051h6.2a32.633 32.633 0 0 1 .024-2.051zm128.127 0a17.858 17.858 0 0 1-.489 2.051h9.711V74.59h-9.222z"/><path fill="gray" d="M118.871 72.713c-.066.688-.159 1.37-.288 2.049h9.252v-2.049h-8.964zM3.477 74.762H107.87a127.16 127.16 0 0 1-.013-2.049H3.559l-.082 2.049zM-9.39 72.713h-6.348v2.049h6.219c.025-.683.07-1.366.129-2.049z"/><path fill="#666" d="M-9.172 70.663h-6.565v2.05h6.348c.059-.684.132-1.366.217-2.05zm12.815 0l-.02.433-.065 1.617h104.298c.002-.683.005-1.366.015-2.05H3.643zm115.36 0a34.067 34.067 0 0 1-.133 2.05h8.964v-2.05h-8.831z"/><path fill="#333" d="M3.727 68.787c-.029.683-.063 1.365-.091 2.048h104.233c.009-.683.021-1.365.033-2.048H3.727zm-12.647 0h-6.818v2.048h6.544a89.74 89.74 0 0 1 .274-2.048zm127.962 0a63.344 63.344 0 0 1-.046 2.048h8.839v-2.048h-8.793z"/></g><g><path fill="#B3B3B3" d="M3.52 84.565h105.036c-.008-.191-.021-.382-.026-.573-.074-.49-.125-.982-.185-1.475H3.583a73.573 73.573 0 0 1-.063 2.048zm-6.005-.489c-.24-.497-.457-.999-.642-1.509-.262.29-.543.563-.868.796-.413.297-1.155.105-1.368-.358-.075-.161-.138-.324-.206-.487h-.394a8.186 8.186 0 0 1-.831 1.189c-.521.604-1.452.222-1.671-.441-.083-.249-.152-.498-.224-.748h-7.05v2.048h13.364c-.035-.164-.078-.326-.11-.49zm119.155-1.558c-.014.083-.025.165-.04.248-.12.675-.824.841-1.355.614-.032.397-.074.792-.116 1.186h12.676v-2.048H116.67z"/><path fill="gray" d="M3.581 82.688h104.786a58.552 58.552 0 0 1-.222-2.049H3.594c.003.684-.001 1.367-.013 2.049zM-9.132 80.64h-6.605v2.049h7.101a20.345 20.345 0 0 1-.496-2.049zm126.109 0a90.061 90.061 0 0 1-.334 2.049h11.191V80.64h-10.857z"/><path fill="#666" d="M3.594 80.64h104.551a66.798 66.798 0 0 1-.154-2.05H3.564c.016.683.026 1.367.03 2.05zm-13.016-2.05h-6.315v2.05h6.605a22.765 22.765 0 0 1-.29-2.05zm126.683 0a95.214 95.214 0 0 1-.284 2.05h10.857v-2.05h-10.573z"/><path fill="#333" d="M3.569 78.761h104.429a87.557 87.557 0 0 1-.086-2.05H3.512c.023.684.042 1.367.057 2.05zm-13.106-2.05h-6.201v2.05h6.33a26.015 26.015 0 0 1-.129-2.05zm127.64 0a14.82 14.82 0 0 1-.306.889c-.091.239-.268.42-.476.543-.025.206-.058.412-.084.618h10.597v-2.05h-9.731z"/></g><g><path fill="#B3B3B3" d="M113.796 90.444c.011.683.021 1.364.027 2.047h14.011v-2.047h-14.038zm-110.88.115c-.019.645-.034 1.288-.052 1.933H111.8a452.29 452.29 0 0 1-.102-2.047h-.649c-.341.691-1.459.717-1.773 0H2.932l-.016.114zm-2.834.535c-.471.147-1.007-.039-1.207-.649h-14.613v2.047h15.9c-.024-.467-.058-.932-.08-1.398z"/><path fill="gray" d="M-1.131 90.433a15.01 15.01 0 0 1-.454-1.866h-14.153v2.048h14.704c-.032-.062-.074-.109-.097-.182zm4.047.126l-.001.056h106.448a.856.856 0 0 1-.159-.349 31.208 31.208 0 0 1-.29-1.699H3.198c-.08.664-.173 1.329-.282 1.992zM114.5 88.566c-.066.289-.128.581-.203.866a.915.915 0 0 1-.507.597l.008.585h14.036v-2.048H114.5z"/><path fill="#666" d="M3.198 88.566h105.715a34.78 34.78 0 0 1-.23-2.049H3.399c-.054.684-.12 1.367-.201 2.049zm-5.041-1.99l-.017-.059h-13.878v2.049h14.153a21.307 21.307 0 0 1-.258-1.99zm116.748-.058c-.11.693-.249 1.374-.404 2.049h13.334v-2.049h-12.93z"/><path fill="#333" d="M3.387 86.688h105.309a43.399 43.399 0 0 1-.136-2.049H3.517a56.322 56.322 0 0 1-.13 2.049zm-5.23-.112a22.976 22.976 0 0 1-.515-1.938h-13.38v2.049h13.907l-.012-.111zm116.995-1.937a38.093 38.093 0 0 1-.278 2.049h12.961v-2.049h-12.683z"/></g><g><path fill="#B3B3B3" d="M.498 98.369h-16.235v2.05H.615c-.043-.684-.076-1.366-.117-2.05zm107.911 0c.144.397.069.868-.403 1.161-.479.297-.961.593-1.441.889h21.271v-2.05h-19.427zm-11.747 1.102c.503-.253 1.061-.011 1.35.382a60.16 60.16 0 0 1 2.711-1.483H14.119c1.144.695 2.305 1.379 3.485 2.05h77.277a43.305 43.305 0 0 1 1.781-.949zm-86.167.726c-.854-.509-.453-1.632.289-1.828h-8.06c-.014.684-.028 1.366-.04 2.05h8.168c-.119-.072-.236-.149-.357-.222z"/><path fill="gray" d="M2.761 96.492c-.016.683-.026 1.364-.04 2.047h7.717a.913.913 0 0 1 1.067-.068l.118.068h.1c.107-.627.751-1.17 1.45-.735.403.25.823.489 1.231.735h85.987c.476-.251.951-.502 1.438-.735.73-.35 1.353.145 1.452.735h2.44c.422-.248.843-.5 1.274-.735.716-.389 1.363.13 1.472.735h19.367v-2.047H2.761zm-2.371 0h-16.128v2.047H.507C.466 97.856.43 97.175.39 96.492z"/><path fill="#666" d="M.273 94.444h-16.011v2.048H.39c-.039-.682-.079-1.365-.117-2.048zm2.539 0c-.018.683-.035 1.365-.051 2.048h125.074v-2.048H2.812z"/><path fill="#333" d="M.166 92.564h-15.904v2.05H.283c-.037-.683-.082-1.367-.117-2.05zm113.66 0c.002.201.007.401.008.603.005 1.298-1.931 1.279-2 0-.011-.2-.02-.402-.03-.603H2.862c-.019.684-.038 1.366-.055 2.05h125.027v-2.05h-14.008z"/></g><g><path fill="#B3B3B3" d="M13.46 107.707c-.447-.506-.315-1.083.063-1.41h-29.261v2.048h29.791c-.198-.213-.4-.419-.593-.638zm70.204.548c.84-.657 1.683-1.312 2.529-1.958H28.297c1.217.672 2.429 1.354 3.632 2.048h51.593c.047-.03.094-.061.142-.09zm18.639-1.958a60.747 60.747 0 0 1-2.678 2.048h28.209v-2.048h-25.531z"/><path fill="gray" d="M14.672 106.137c.237.104.469.219.702.331h.764c.087-.037.176-.069.273-.082-.428-.338-.865-.661-1.285-1.012a.827.827 0 0 1-.261-.957h-30.604v2.051h29.097c.265-.368.779-.568 1.314-.331zm74.045-1.72h-63.86c1.25.677 2.498 1.361 3.745 2.051H85.97c.907-.696 1.822-1.382 2.747-2.051zm15.96 0c-.627.497-1.244 1.004-1.883 1.489-.231.192-.472.373-.706.562h25.746v-2.051h-23.157z"/><path fill="#666" d="M14.872 104.394l-.043-.03c-.586-.424-.524-1.163-.165-1.585-.218-.14-.442-.271-.661-.409h-29.741v2.048h30.604c.003-.009.003-.017.006-.024zm76.807-2.025H21.098c1.247.683 2.5 1.365 3.76 2.048h63.86a75.248 75.248 0 0 1 2.961-2.048zm14.803 0c.063.294.006.604-.274.838-.499.415-1.021.807-1.53 1.21h23.157v-2.048h-21.353z"/><path fill="#333" d="M10.971 100.492H2.683c-.004.28-.012.562-.016.842-.019 1.3-1.918 1.277-2 0-.018-.281-.03-.562-.048-.842h-16.356v2.047h30.015a159.663 159.663 0 0 0-3.307-2.047zm95.475 0l-1.513.933c-.033.034-.056.075-.095.105-.45.348-.914.675-1.373 1.009h.24c.429-.303.856-.605 1.29-.902.692-.473 1.498.218 1.518.902h21.321v-2.047h-21.388zm-11.69 0H17.734a266.16 266.16 0 0 0 3.675 2.047h70.012a56.476 56.476 0 0 1 3.335-2.047z"/></g><g><path fill="#B3B3B3" d="M17.048 114.223h-32.786v2.047h34.373a49.906 49.906 0 0 1-1.587-2.047zm74.103 0c-.943.674-1.879 1.356-2.807 2.047h1.021c1.558-1 3.175-1.832 5.018-2.047h-3.232zm-18.901 1.939c.855-.652 1.717-1.298 2.58-1.939H41.063c.279.205.572.396.849.604.769.47 1.525.96 2.287 1.442h27.826c.076-.035.148-.073.225-.107zm23.476-1.939c.545.134.819.645.738 1.21l-.12.837h31.49v-2.047H95.726z"/><path fill="gray" d="M15.746 112.345h-31.484v2.047h32.909a41.242 41.242 0 0 1-1.425-2.047zm78.063 0a313.33 313.33 0 0 0-2.893 2.047h2.553a8.131 8.131 0 0 1 2.031-.225c.247.006.432.1.588.225h31.746v-2.047H93.809zm-16.364 0H38.416a75.695 75.695 0 0 1 2.884 2.047h33.305c.935-.699 1.885-1.376 2.84-2.047z"/><path fill="#666" d="M15.304 111.672c-.337-.543-.047-1.136.438-1.377h-31.479v2.05h31.484c-.148-.225-.301-.445-.443-.673zm63.412-.227c.579-.391 1.166-.77 1.751-1.15H35.214a97.831 97.831 0 0 1 3.202 2.05h39.029c.425-.298.841-.61 1.271-.9zm18.108-1.15c-.536.358-1.072.716-1.612 1.068l-1.402.981h34.025v-2.05H96.824z"/><path fill="#333" d="M83.411 108.415H32.048c1.156.668 2.301 1.351 3.433 2.051h44.727a197.686 197.686 0 0 1 3.203-2.051zm16.119 0c-.975.702-1.964 1.384-2.964 2.051h31.269v-2.051H99.53zm-83.629 1.812a48.41 48.41 0 0 1-1.783-1.812h-29.856v2.051H15.49a1.07 1.07 0 0 1 .411-.239z"/></g><g><path fill="#B3B3B3" d="M44.218 122.147H26.624c.643.681 1.284 1.362 1.917 2.051h19.078a41.45 41.45 0 0 1-3.401-2.051zm-20.287 0h-39.669v2.051h41.605a529.377 529.377 0 0 0-1.936-2.051zm39.195.646c.207-.221.42-.432.631-.646H49.846a38.71 38.71 0 0 1 1.361 1.646c.104.133.165.27.207.405h11.744c-.337-.364-.442-.969-.032-1.405zm21.307-.646c-.404.329-.787.641-1.146.924-.479.379-.959.752-1.439 1.127h45.986v-2.051H84.433z"/><path fill="gray" d="M43.631 121.761a1.086 1.086 0 0 1-.803-.063c-.55-.251-1.084-.527-1.628-.79-.225.451-.764.751-1.372.456a91.975 91.975 0 0 1-2.174-1.094h-1.122a.967.967 0 0 1-.669.331c.005.665-.817 1.315-1.535.93a66.55 66.55 0 0 1-2.224-1.261h-.531c-.27.357-.739.554-1.245.261-.148-.086-.293-.175-.441-.261h-5.039l1.936 2.049h17.692c-.281-.186-.566-.368-.845-.558zm-21.467-1.491h-37.902v2.049h39.831c-.645-.681-1.29-1.363-1.929-2.049zm43.613 0H48.108a43.182 43.182 0 0 1 1.891 2.049H63.59a31.566 31.566 0 0 1 2.187-2.049zm21 0c-.914.707-1.775 1.414-2.555 2.049h43.612v-2.049H86.777z"/><path fill="#666" d="M29.068 120.214c-1.343-.284-2.902-1.058-4.308-1.991h-1.813a166.86 166.86 0 0 0 1.902 2.047h5.039c-.062-.036-.121-.074-.183-.11a1.071 1.071 0 0 1-.637.054zm39.418-1.991H46.261c-.004.073-.006.146-.022.218.64.593 1.26 1.205 1.87 1.829h17.668a27.68 27.68 0 0 1 2.709-2.047zm17.301 0a87.626 87.626 0 0 0-2.491 2.047h.43c.921-.7 1.858-1.379 2.804-2.047h-.743zm3.893 0a35.615 35.615 0 0 0-2.903 2.047h41.058v-2.047H89.68zm-69.373 0h-36.045v2.047h37.902a111.984 111.984 0 0 1-1.857-2.047z"/><path fill="#333" d="M18.696 116.343h-34.434v2.052h36.197a71.638 71.638 0 0 1-1.763-2.052zm69.55 0a113.87 113.87 0 0 0-2.672 2.052h.719c.308-.219.604-.452.915-.666.679-.468 1.355-.94 2.042-1.386h-1.004zm-20.008 2.052a26.225 26.225 0 0 1 3.634-2.052H44.315c.507.321 1.021.632 1.523.961.381.25.482.692.405 1.091h21.995zm28.096-2.052l-.037.257c-.167 1.17-1.776.791-1.898-.257h-.447c-1.5.32-3.048 1.094-4.542 2.052h38.425v-2.052H96.334zm-73.943 0h-1.104a90.552 90.552 0 0 0 1.817 2.052h1.914a17.21 17.21 0 0 1-2.627-2.052z"/></g></g><linearGradient id="c" gradientUnits="userSpaceOnUse" x1="55.742" y1="117.935" x2="55.742" y2="25.323"><stop offset="0" stop-color="#ba6963"/><stop offset=".12" stop-color="#b56966"/><stop offset=".269" stop-color="#a56a6d"/><stop offset=".435" stop-color="#8c6b79"/><stop offset=".611" stop-color="#686d8a"/><stop offset=".797" stop-color="#3b6ea0"/><stop offset=".988" stop-color="#0471ba"/><stop offset="1" stop-color="#0071bc"/></linearGradient><path fill="url(#c)" d="M72.25 116.162c2.122-1.617 4.253-3.224 6.467-4.717a173.5 173.5 0 0 1 4.947-3.19c3.966-3.106 7.97-6.157 12.446-8.491l11.915-20.65c-.34-5.333-.067-10.724-.034-16.09.03-4.826-.445-9.726-.269-14.56L92.816 22.629c-3.23-1.211-6.084-3.108-9.078-4.917-1.97-.896-3.943-1.786-5.909-2.682-2.931-1.336-6.028-2.455-8.741-4.171H51.415c.127.474-.053 1.051-.649 1.272a76.755 76.755 0 0 1-4.831 1.584c-5.634 2.02-11.084 4.59-16.414 7.306-5.864 3.793-11.304 8.224-17.428 11.585l-7.657 13.27c-.309 3.43.003 7.213-.146 10.284a2013.09 2013.09 0 0 0-.667 14.935l-.166 4.127c.073 1.85.13 3.698.137 5.544l9.963 17.268c9.097 5.601 19.638 10.195 28.354 16.793 1.288.787 2.566 1.59 3.831 2.416H70.11a25.64 25.64 0 0 1 2.14-1.081z"/><path opacity=".3" fill="#FCEE21" d="M55.303 35.591l3.436-21.758-.009 22.027 6.796-20.953-3.456 21.756 9.991-19.633-6.817 20.947L78.183 20.15 68.172 39.772l15.57-15.584-12.957 17.815L88.6 29.047 73.017 44.616l19.621-10.01-17.826 12.939 20.946-6.817-19.633 9.991 21.756-3.456-20.952 6.798 22.028-.012-21.758 3.436 21.758 3.435-22.028-.01 20.952 6.781-21.756-3.441 19.633 9.976-20.946-6.817 17.826 12.939-19.621-10.01L88.6 85.905 70.785 72.95l12.957 17.815-15.57-15.584 10.011 19.622-12.939-17.828 6.817 20.948L62.07 78.29l3.456 21.756-6.796-20.952.009 22.026-3.436-21.758-3.437 21.758.011-22.026-6.798 20.952 3.457-21.756-9.992 19.633 6.818-20.948-12.94 17.828 10.01-19.622-15.568 15.584L39.82 72.95 22.005 85.905l15.584-15.567-19.623 10.01 17.827-12.939-20.946 6.817 19.632-9.976-21.756 3.441 20.954-6.781-22.028.01 21.759-3.435-21.759-3.436 22.028.012-20.954-6.798 21.756 3.456-19.632-9.991 20.946 6.817-17.827-12.939 19.623 10.01-15.584-15.569L39.82 42.003 26.864 24.188l15.568 15.584-10.01-19.622 12.94 17.827-6.818-20.947 9.992 19.633-3.457-21.756 6.798 20.953-.011-22.027z"/><path fill="#FCEE21" stroke="#000" stroke-width=".807" d="M65.775 93.945a28.65 28.65 0 0 1 8.899-16.725c5.85-5.274 9.527-12.895 9.527-21.392 0-15.919-12.904-28.825-28.828-28.825-.025 0-.049.002-.073.003-.023-.001-.048-.003-.073-.003-15.92 0-28.825 12.906-28.825 28.825 0 8.497 3.678 16.117 9.526 21.392a28.664 28.664 0 0 1 8.901 16.725h20.946z"/><path opacity=".3" fill="#FCEE21" d="M61.611 97.695c.578-6.904 9.716-13.502 15.232-18.598 6.505-5.865 10.595-14.345 10.595-23.791 0-17.702-14.35-32.053-32.056-32.053l-.081.003-.081-.003c-17.702 0-32.052 14.351-32.052 32.053 0 9.446 4.089 17.925 10.593 23.791 5.517 5.096 14.655 11.693 15.235 18.598h12.615z"/><path opacity=".3" fill="#FCEE21" d="M62.776 100.834c.686-7.833 11.512-15.318 18.047-21.1C88.53 73.08 93.375 63.46 93.375 52.743c0-20.084-17.001-36.366-37.979-36.366-.031 0-.064.002-.096.004-.031-.001-.064-.004-.096-.004-20.973 0-37.975 16.282-37.975 36.366 0 10.717 4.845 20.337 12.55 26.992 6.537 5.781 17.363 13.267 18.05 21.1h14.947z"/><linearGradient id="d" gradientUnits="userSpaceOnUse" x1="43.698" y1="95.357" x2="66.908" y2="95.357"><stop offset="0" stop-color="#666"/><stop offset=".503" stop-color="#fff"/><stop offset="1" stop-color="#666"/></linearGradient><path fill="url(#d)" stroke="#000" d="M66.908 95.357c0 .78-.632 1.413-1.412 1.413H45.11a1.413 1.413 0 0 1-1.413-1.413c0-.78.632-1.412 1.413-1.412h20.385c.781 0 1.413.632 1.413 1.412z"/><linearGradient id="e" gradientUnits="userSpaceOnUse" x1="43.698" y1="98.191" x2="66.908" y2="98.191"><stop offset="0" stop-color="#666"/><stop offset=".503" stop-color="#fff"/><stop offset="1" stop-color="#666"/></linearGradient><path fill="url(#e)" stroke="#000" d="M66.908 98.19c0 .78-.632 1.413-1.412 1.413H45.11a1.413 1.413 0 0 1-1.413-1.413c0-.78.632-1.412 1.413-1.412h20.385c.781 0 1.413.632 1.413 1.412z"/><linearGradient id="f" gradientUnits="userSpaceOnUse" x1="43.698" y1="101.023" x2="66.908" y2="101.023"><stop offset="0" stop-color="#666"/><stop offset=".503" stop-color="#fff"/><stop offset="1" stop-color="#666"/></linearGradient><path fill="url(#f)" stroke="#000" d="M66.908 101.023c0 .78-.632 1.413-1.412 1.413H45.11a1.413 1.413 0 0 1-1.413-1.413c0-.78.632-1.412 1.413-1.412h20.385c.781 0 1.413.632 1.413 1.412z"/><linearGradient id="g" gradientUnits="userSpaceOnUse" x1="43.698" y1="103.857" x2="66.908" y2="103.857"><stop offset="0" stop-color="#666"/><stop offset=".503" stop-color="#fff"/><stop offset="1" stop-color="#666"/></linearGradient><path fill="url(#g)" stroke="#000" d="M66.908 103.856c0 .78-.632 1.413-1.412 1.413H45.11a1.413 1.413 0 0 1-1.413-1.413c0-.78.632-1.412 1.413-1.412h20.385c.781 0 1.413.632 1.413 1.412z"/><linearGradient id="h" gradientUnits="userSpaceOnUse" x1="43.698" y1="106.689" x2="66.908" y2="106.689"><stop offset="0" stop-color="#666"/><stop offset=".503" stop-color="#fff"/><stop offset="1" stop-color="#666"/></linearGradient><path fill="url(#h)" stroke="#000" d="M66.908 106.689c0 .78-.632 1.413-1.412 1.413H45.11a1.413 1.413 0 0 1-1.413-1.413c0-.78.632-1.412 1.413-1.412h20.385c.781 0 1.413.632 1.413 1.412z"/><linearGradient id="i" gradientUnits="userSpaceOnUse" x1="43.698" y1="109.523" x2="66.908" y2="109.523"><stop offset="0" stop-color="#666"/><stop offset=".503" stop-color="#fff"/><stop offset="1" stop-color="#666"/></linearGradient><path fill="url(#i)" stroke="#000" d="M66.908 109.522c0 .78-.632 1.413-1.412 1.413H45.11a1.413 1.413 0 0 1-1.413-1.413c0-.78.632-1.412 1.413-1.412h20.385c.781 0 1.413.632 1.413 1.412z"/><radialGradient id="j" cx="55.303" cy="55.596" r="21.246" gradientUnits="userSpaceOnUse"><stop offset="0" stop-color="#fff"/><stop offset=".9" stop-color="#fff" stop-opacity=".1"/><stop offset="1" stop-color="#fff" stop-opacity="0"/></radialGradient><path fill="url(#j)" d="M76.554 55.604c0-11.736-9.514-21.25-21.251-21.25s-21.251 9.514-21.251 21.25c0 11.722 9.514 21.232 21.251 21.232s21.251-9.51 21.251-21.232z"/><path fill="none" stroke="#000" stroke-linecap="round" stroke-linejoin="round" d="M61.273 87.355s-1.641.79-6.058.79c-4.416 0-5.93-.956-5.93-.956"/><path d="M53.023 76.374s-2.19-.926-6.241-1.414c-7.573-.916-9.486-2.821-9.486-2.821s2.142 4.625 7.156 5.316c4.827.666 8.571-1.081 8.571-1.081zm4.559 0s2.19-.926 6.242-1.414c7.572-.916 9.486-2.821 9.486-2.821s-2.143 4.625-7.157 5.316c-4.825.666-8.571-1.081-8.571-1.081z" fill="#FFF" stroke="#000" stroke-linecap="round" stroke-linejoin="round"/><path fill="none" stroke="#000" stroke-linecap="round" stroke-linejoin="round" d="M50.957 82.032s.583-.665 1.332-.498c.749.166.887 1.413 2.991 1.413 2.105 0 2.291-1.247 3.04-1.413.749-.167 1.331.498 1.331.498"/><linearGradient id="k" gradientUnits="userSpaceOnUse" x1="50.063" y1="73.49" x2="31.149" y2="66.275"><stop offset=".002" stop-color="#876963"/><stop offset="1" stop-color="#876963" stop-opacity="0"/></linearGradient><path fill="url(#k)" d="M52.677 74.001s.437-1.972-4.25-2.583c-3.833-.5-5.917-.583-8.75-1.5-4.291-1.389-6.25-3.917-6.25-3.917s1.659 5.723 12.75 6.75c4.5.417 6.5 1.25 6.5 1.25z"/><linearGradient id="l" gradientUnits="userSpaceOnUse" x1="61.124" y1="73.49" x2="42.211" y2="66.275" gradientTransform="matrix(-1 0 0 1 121.667 0)"><stop offset=".002" stop-color="#876963"/><stop offset="1" stop-color="#876963" stop-opacity="0"/></linearGradient><path fill="url(#l)" d="M57.928 74.001s-.437-1.972 4.25-2.583c3.833-.5 5.916-.583 8.75-1.5 4.291-1.389 6.25-3.917 6.25-3.917s-1.659 5.723-12.75 6.75c-4.5.417-6.5 1.25-6.5 1.25z"/><g fill="#FFF"><path d="M31.403 52.783a7.12 7.12 0 0 1-.604-1.312c-.996-2.903.001-5.984 2.264-7.844-1.158-3.739.93-7.722 4.753-8.969a7.602 7.602 0 0 1 2.398-.37c-.168.042-.335.083-.501.136-3.824 1.248-5.912 5.23-4.753 8.969-2.263 1.86-3.26 4.941-2.265 7.844.159.465.363.902.604 1.312-2.087 1.877-2.977 4.837-2.018 7.633.99 2.886 3.662 4.758 6.597 4.935 1.383 1.772 3.541 2.826 5.822 2.856-2.934.718-5.955-.362-7.719-2.623-2.935-.177-5.606-2.049-6.597-4.935-.958-2.795-.068-5.755 2.019-7.632z"/><path d="M37.219 47.761a8.99 8.99 0 0 1-.404-1.38c-.62-3.001.366-5.86 2.291-7.324-.699-3.845 1.214-7.415 4.351-8.032a4.918 4.918 0 0 1 1.942.018c-.137.015-.273.028-.409.054-3.137.617-5.051 4.188-4.352 8.032-1.924 1.463-2.911 4.323-2.291 7.324.099.48.236.941.404 1.38-1.785 1.508-2.677 4.266-2.08 7.155.616 2.983 2.641 5.24 4.979 5.878.999 1.955 2.662 3.328 4.485 3.718-2.392.239-4.744-1.297-6.018-3.79-2.338-.638-4.362-2.895-4.979-5.878-.596-2.89.296-5.647 2.081-7.155z"/><path d="M43.607 44.824a11.731 11.731 0 0 1-.233-1.415c-.314-3.045.554-5.757 2.053-6.974-.333-3.891 1.258-7.195 3.614-7.426.49-.048.973.047 1.439.252-.103-.002-.205-.006-.307.004-2.355.231-3.947 3.535-3.614 7.426-1.498 1.216-2.367 3.929-2.052 6.974.05.487.13.96.233 1.415-1.396 1.278-2.191 3.9-1.888 6.833.313 3.027 1.705 5.506 3.408 6.42.646 2.056 1.813 3.616 3.146 4.223-1.784-.052-3.455-1.857-4.278-4.479-1.703-.915-3.095-3.393-3.408-6.421-.304-2.931.49-5.554 1.887-6.832zM79.203 52.783c.24-.409.444-.847.604-1.312.996-2.903-.002-5.984-2.264-7.844 1.157-3.739-.93-7.722-4.754-8.969a7.606 7.606 0 0 0-2.398-.37c.168.042.336.083.501.136 3.824 1.248 5.911 5.23 4.753 8.969 2.264 1.86 3.261 4.941 2.266 7.844-.16.465-.363.902-.605 1.312 2.088 1.877 2.978 4.837 2.019 7.633-.99 2.886-3.662 4.758-6.597 4.935-1.383 1.772-3.541 2.826-5.822 2.856 2.934.718 5.955-.362 7.719-2.623 2.936-.177 5.607-2.049 6.598-4.935.956-2.795.066-5.755-2.02-7.632z"/><path d="M73.386 47.761c.168-.439.305-.9.404-1.38.619-3.001-.367-5.86-2.291-7.324.699-3.845-1.215-7.415-4.352-8.032a4.919 4.919 0 0 0-1.942.018c.138.015.273.028.409.054 3.137.617 5.051 4.188 4.352 8.032 1.924 1.463 2.911 4.323 2.291 7.324-.1.48-.236.941-.404 1.38 1.785 1.508 2.678 4.266 2.08 7.155-.615 2.983-2.641 5.24-4.979 5.878-.999 1.955-2.662 3.328-4.485 3.718 2.392.239 4.744-1.297 6.019-3.79 2.338-.638 4.361-2.895 4.979-5.878.597-2.89-.296-5.647-2.081-7.155z"/><path d="M66.998 44.824c.104-.455.184-.928.233-1.415.314-3.045-.554-5.757-2.053-6.974.333-3.891-1.259-7.195-3.614-7.426a2.857 2.857 0 0 0-1.439.252c.104-.002.205-.006.307.004 2.355.231 3.947 3.535 3.615 7.426 1.497 1.216 2.367 3.929 2.052 6.974-.05.487-.13.96-.233 1.415 1.396 1.278 2.191 3.9 1.889 6.833-.313 3.027-1.705 5.506-3.408 6.42-.646 2.056-1.813 3.616-3.146 4.223 1.784-.052 3.455-1.857 4.278-4.479 1.703-.915 3.096-3.393 3.408-6.421.302-2.931-.493-5.554-1.889-6.832z"/></g><path fill="none" stroke="#000" stroke-linecap="round" stroke-linejoin="round" d="M51.063 64.831s-8.561-13.141-5.332-17.039c3.34-4.032 8.018 4.343 6.014 4.232-2.495-.139-3.548-5.454-.036-6.066 3.513-.612 7.342 6.153 5.051 5.955-2.565-.223-4.126-5.833.038-5.833 4.159 0 7.141 6.423 4.897 5.874-3.207-.786-2.04-9.619 2.626-4.286 4.321 4.939-3.664 17.146-3.664 17.146"/><path fill="none" stroke="#000" d="M65.775 93.945a28.65 28.65 0 0 1 8.899-16.725c5.85-5.274 9.527-12.895 9.527-21.392 0-15.919-12.904-28.825-28.828-28.825-.025 0-.049.002-.073.003-.023-.001-.048-.003-.073-.003-15.92 0-28.825 12.906-28.825 28.825 0 8.497 3.678 16.117 9.526 21.392a28.664 28.664 0 0 1 8.901 16.725h20.946z"/><path fill="#4D4D4D" d="M55.382 117.2L9.283 90.602v-53.2l46.099-26.6 46.102 26.6v53.2L55.382 117.2zM-.117 96l55.499 32 55.4-32V32.001L55.382.002-.117 32.001V96z"/><path d="M55.383 10.9l-46 26.5v53.2l36.33 21.011 9.67 5.59 9.561-5.53 36.439-21.07V37.5l-46-26.6zm43.601 78.3l-38.011 21.97-5.59 3.23-5.7-3.29-38-21.91V38.8l43.7-25.2 43.601 25.2v50.4z" opacity=".13"/><linearGradient id="m" gradientUnits="userSpaceOnUse" x1="45.334" y1="114.144" x2="65.303" y2="114.144"><stop offset="0" stop-color="#666"/><stop offset=".503" stop-color="#fff"/><stop offset="1" stop-color="#666"/></linearGradient><path fill="url(#m)" d="M65.303 111.19l-.359.48-9.561 5.53-9.67-5.59-.38-.52 4.351.02 11.289.06z"/></svg>