<svg enable-background="new 0 0 110.9048 128.0208" viewBox="0 0 110.9048 128.0208" xmlns="http://www.w3.org/2000/svg" xmlns:xlink="http://www.w3.org/1999/xlink"><linearGradient id="a"><stop offset="0" stop-color="#ffc400"/><stop offset=".3241" stop-color="#fdcb00"/><stop offset=".8116" stop-color="#f8e000"/><stop offset="1" stop-color="#f6ea00"/></linearGradient><linearGradient id="b" gradientUnits="userSpaceOnUse" x1="22.3925" x2="89.0917" xlink:href="#a" y1="66.6628" y2="66.6628"/><clipPath id="c"><path d="m59.4735 48.5485c-.8232.0806-1.4336.8033-1.375 1.6289.0108.2129-.0947.4151-.2783.5264l-.0058.0039c-.0918.0552-.1983.0855-.3067.0855-.1035.0005-.207-.0293-.2949-.0845-.2422-.1533-.5244-.2349-.8106-.2349-.0576 0-.1132.003-.1699.0088-.8144.0913-1.4121.8091-1.3554 1.627.0117.2163-.0967.4209-.2842.5307-.0918.0562-.1992.086-.3067.086-.1035 0-.206-.0288-.2939-.084-.2422-.1543-.5254-.2354-.8135-.2349-.0596 0-.1181.0034-.1777.0098-.7578.0962-1.3291.7378-1.335 1.5019-.0088.8443.669 1.5352 1.5127 1.5425.0498 0 .0986-.0019.1485-.0068.7314-.0703 1.3076-.6524 1.372-1.3838.0069-.0815.0078-.1636.002-.2441-.0117-.2134.0957-.417.2783-.5274l.0068-.0039c.0928-.0552.1973-.085.3057-.0854.1045-.001.207.0283.2939.0835.2442.1542.5254.2358.8135.2358.0567 0 .1133-.0034.1709-.0098.7227-.0801 1.2901-.6592 1.3535-1.3838.0059-.081.0059-.1616 0-.2417-.0107-.2158.0987-.4209.2852-.5317.0918-.0552.1982-.0854.3066-.0854.1045 0 .2051.0292.293.0839.2432.1534.5254.2354.8145.2354.0585 0 .1171-.0039.1767-.0108.7588-.0957 1.3301-.7373 1.3369-1.5019.0078-.8438-.6709-1.5342-1.5136-1.5425-.0489 0-.0997.0025-.1495.0073"/></clipPath><linearGradient id="d" gradientTransform="matrix(170.562 -170.562 -170.562 -170.562 86603.9063 20612.1875)" gradientUnits="userSpaceOnUse" x1="-193.5087" x2="-193.4239" xlink:href="#a" y1="313.9846" y2="313.9846"/><clipPath id="e"><path d="m56.2538 46.6159c-.8232.0816-1.4336.8032-1.375 1.6289.0117.2163-.0967.4209-.2842.5313-.0918.0556-.1982.0849-.3066.0849-.1045.001-.2061-.0283-.293-.083-.2431-.1543-.5263-.2358-.8135-.2358-.0595 0-.1191.0039-.1787.0107-.7509.0987-1.3164.7334-1.3291 1.4908-.0127.8442.6612 1.539 1.5049 1.5527l.0029.001c.0489 0 .0997-.003.1504-.0083.7315-.0703 1.3077-.6519 1.3711-1.3833.0078-.0811.0078-.1631.002-.2442-.0108-.2163.0976-.4209.2851-.5307.0909-.0557.1973-.086.3057-.0865.1035-.0005.2051.0293.2939.084.2432.1538.5254.2359.8125.2354.0596 0 .1192-.0039.1778-.0098.7597-.0967 1.3291-.7378 1.3359-1.5019.0088-.8448-.6699-1.5352-1.5137-1.5435-.0488 0-.0976.0029-.1484.0073"/></clipPath><linearGradient id="f" gradientTransform="matrix(170.562 -170.562 -170.562 -170.562 86577.3438 20585.6875)" gradientUnits="userSpaceOnUse" x1="-193.5085" x2="-193.4238" xlink:href="#a" y1="313.8423" y2="313.8423"/><clipPath id="g"><path d="m54.2606 47.1125-.0634-.314h.0029c.1074-.0444.1602-.1674.1143-.2744v-.0029l.2421-.1592c.0098.0103.0215.0205.0342.0283l-.3027.7251c-.0098-.0019-.0186-.0029-.0274-.0029m.0069-1.146.2422.1611c-.0225.0523-.0225.1104 0 .1626v.0025l-.2403.1592c-.0742-.0762-.1953-.0835-.2793-.0176l-.1269-.1148c.043-.0669.043-.1523 0-.2192l.126-.1133c.038.0293.082.0435.1269.0435.0557 0 .1104-.0215.1514-.064m-.6172-.5239c.0127-.0049.0234-.0108.0342-.0176l.2607.2715c-.042.0591-.0508.1348-.0244.2016l.002.0015c.0039.0098.0068.0195.0136.0288l-.1259.1133c-.0723-.0547-.17-.0576-.2461-.0063l-.2159-.2173c.0508-.0757.0479-.1763-.0088-.2481l.1231-.1406c.0322.02.0703.0298.1055.0298h.0019c.0274 0 .0537-.0054.0801-.0166m.6611.458c.0459-.1069-.0039-.231-.1133-.2759-.0009-.0005-.0029-.0015-.0048-.0024l.0634-.3267c.0127 0 .0245-.001.0381-.0029l.2959.7392c-.0127.0088-.0263.0181-.0381.0293l.002.0015zm-2.1406-.5816c.0254-.0102.1025-.0522.1152-.1132l.2881.0551c0 .0425.0098.085.0352.1202l-.2598.2607c-.0361-.0244-.0781-.0371-.123-.0371zm1.5693.0498c.0274-.0375.0411-.0849.0391-.1318l.2852-.0669c.0097.0235.0234.0445.0419.0635.0206.02.045.0361.0723.0464l-.0605.3266c-.0284 0-.0576.0054-.083.0157-.0118.0048-.0225.0112-.0332.019zm-.4931-.5058.1709.2383c-.0713.0752-.0782.1924-.0157.2744l-.121.1406c-.0674-.041-.1504-.041-.2168 0l-.1123-.123c.0654-.086.0576-.2076-.0225-.2813l.1621-.2436c.0166.0097.042.0136.0674.0136.0342 0 .0713-.0078.0879-.019m-.9463.2646c0-.0131-.002-.0263-.0039-.039l.6875-.2974c.0097.0156.0254.0298.039.042l-.1591.2402c-.1065-.0434-.2315.0064-.2745.1138zm1.0098-.3095c.0097-.0113.0195-.024.0263-.0376l.0029.0014.709.2671c-.0019.0152-.0019.0303-.0019.0459l-.2852.0674c-.0449-.1055-.1679-.1548-.2734-.1094l-.0078.0034zm-.1553-.3604c-.0996.0015-.1865.0723-.2051.1724-.0049.0288-.0029.0581.002.0864l-.6836.2964c-.0079-.0137-.0186-.0278-.0293-.0391-.083-.0825-.2159-.0825-.2979 0-.084.0825-.084.2158 0 .2984.0049.0053.0127.0097.0215.0141-.168.2207-.2725.4834-.3018.7593-.0048.0523-.0078.104-.0078.1567 0 .8453.6856 1.5298 1.5303 1.5298.0527 0 .1045-.0029.1562-.0088.2862-.0278.5567-.1386.7813-.3173.0039.0039.0059.0087.0088.0127.0703.0703.1846.0703.2568 0 .0694-.0704.0694-.1856 0-.2564-.0078-.0073-.0166-.0137-.0254-.019l.3018-.729c.1152.0253.2256-.0469.2529-.1602.0254-.1138-.0469-.2266-.1611-.252-.0166-.0034-.0342-.0053-.0508-.0053-.0117 0-.0264.0019-.0381.0044l-.2969-.7403c.0997-.061.1299-.1914.0694-.2905-.0615-.0996-.1924-.1308-.292-.0693-.0283.018-.0527.0429-.0703.0722l-.71-.2666c.0205-.1152-.0556-.2251-.1699-.2461-.0127-.0019-.0225-.0029-.0361-.0029z"/></clipPath><linearGradient id="h" gradientTransform="matrix(170.562 -170.562 -170.562 -170.562 86550.5703 20558.6875)" gradientUnits="userSpaceOnUse" x1="-193.5091" x2="-193.4244" xlink:href="#a" y1="313.6978" y2="313.6978"/><clipPath id="i"><path d="m49.5565 56.0759c-1.6337-1.6338-2.5341-3.8067-2.5341-6.1162 0-2.3101.9004-4.4825 2.5341-6.1162 1.6338-1.6329 3.8057-2.5323 6.1163-2.5323 2.3095 0 4.4814.8994 6.1152 2.5323 1.6348 1.6337 2.5342 3.8061 2.5342 6.1162 0 2.3095-.8994 4.4824-2.5342 6.1162-1.6338 1.6328-3.8057 2.5332-6.1152 2.5332-2.3106 0-4.4825-.9004-6.1163-2.5332m1.3311-17.4414c-1.4639.6191-2.7793 1.5049-3.9072 2.6338-1.128 1.1279-2.0137 2.4423-2.6319 3.9067-.6416 1.5161-.9677 3.126-.9677 4.7847s.3261 3.2685.9677 4.7846c.6182 1.4644 1.5039 2.7788 2.6319 3.9073 1.1279 1.1284 2.4433 2.0141 3.9072 2.6333 1.5166.6421 3.127.9668 4.7852.9668s3.2685-.3247 4.7851-.9668c1.4639-.6192 2.7774-1.5049 3.9072-2.6333 1.128-1.1285 2.0137-2.4429 2.6319-3.9073.6416-1.5161.9677-3.1259.9677-4.7846s-.3261-3.2686-.9677-4.7847c-.6182-1.4644-1.5039-2.7788-2.6319-3.9067-1.1298-1.1289-2.4433-2.0147-3.9072-2.6338-1.5166-.6421-3.1269-.9668-4.7851-.9668s-3.2686.3247-4.7852.9668"/></clipPath><linearGradient id="j" gradientTransform="matrix(170.562 -170.562 -170.562 -170.562 86587.5703 20595.6875)" gradientUnits="userSpaceOnUse" x1="-193.5091" x2="-193.4244" xlink:href="#a" y1="313.8965" y2="313.8965"/><linearGradient id="k" gradientUnits="userSpaceOnUse" x1="55.7299" x2="55.7299" y1="44.7292" y2="67.2337"><stop offset="0" stop-color="#f6ea00" stop-opacity="0"/><stop offset=".3457" stop-color="#f7e700" stop-opacity=".3457"/><stop offset=".6433" stop-color="#f9dc00" stop-opacity=".6433"/><stop offset=".9223" stop-color="#fdca00" stop-opacity=".9223"/><stop offset="1" stop-color="#ffc400"/></linearGradient><linearGradient id="l" gradientUnits="userSpaceOnUse" x1="34.0263" x2="35.4911" xlink:href="#a" y1="75.8737" y2="75.8737"/><linearGradient id="m" gradientUnits="userSpaceOnUse" x1="47.6435" x2="49.1103" xlink:href="#a" y1="75.8737" y2="75.8737"/><linearGradient id="n" gradientUnits="userSpaceOnUse" x1="60.1649" x2="61.6317" xlink:href="#a" y1="75.8737" y2="75.8737"/><linearGradient id="o" gradientUnits="userSpaceOnUse" x1="74.3534" x2="75.8192" xlink:href="#a" y1="75.8737" y2="75.8737"/><path d="m110.8622 96.0168-55.4258 32-55.4238-32v-64l55.4238-32 55.4258 32z" fill="#ffd60b"/><path d="m102.0067 37.7272v53.1402l-.0097.0097-.0205.0103-.4102.2397-.3701.21-.6201.3501-4.1494 2.3901-.0108.0098-.1289.0801-.0605.0298-.5498.3203-.8008.4497-.0996.0601-.4795.2802-1.1309.6499-.8496.4898-.7402.4301-.2393.1299-.1299.0503-.1103.0698-1 .5699-.0303.02-2 1.1504-.5098.29-.1406.0796-.0293.02-.1396.0801-.0108.0103-1.04.5898-.04.0298-.0694.04-1.1601.6704-.4502.2598-.0196.02h-.0107l-.4199.2398-1.1201.6504-.8692.52-1.1807.6699-.08.0498-.1201.0703-.0391.0298-.041.02-.0196.0098-.0996.0601-.291.1699-.0293.0102-.1601.0899v.0102l-.4004.23-.2696.1597-.1103.06-.1797.0904-.0195.02-.0401.02-.6904.3897-.0596.04-.2402.1401-.0205.0098-.29.1704-.1495.0796-.2197.1304-.2402.1396h-.0098l-.4199.25-.291.1704-.0293.02-.2998.17-1.3604.79-.5.29-.25.1397-.7002.3999-.0302.02h-.0098l-.3096.1802-.0498.0298-.2402.1504-.8399.4799-.6308.3599-.0596.0298-.5.29c-.0098.0103-.0098.0103-.0098 0l-.5302.3101-.2901.1699-.7597.4404-.0508.0298-.0498.0298-.0293.0103c0 .0097-.0098.0097-.0098.0097l-.0205.0201-.25.1401-1 .5801-.1699.1001-.0401.02-.3798.2197-1.42.8203-.3603.21-.0899.0498-.2402.1401-.7998.46-.2598.1499-.2802.1601-.0098.0098-.2002.1201-.2295.1299-.3506.2002-.8301.48-.0097.0098-.0899.0502-1.3203.7598-.0205.0103-.79.4599-.6094.3501h-.0098l-1.4101.8096-.0205.02-.1895.1001-.0605.04-.5596.3199h-.0098l-.1308.0801-.1895.1103-.2705.1597h-.0097l-.1993.1201-.0605-.0298-1.1397-.6602-.0205-.0102-.1992-.1196-.8506-.4903-.0302-.0097-.3301-.19-.0098-.0102-1.4004-.8101-.0097-.0098-.0196-.0102-1.3701-.79-.0303-.0201h-.0097l-.8301-.4799-.0596-.0401-.3398-.1899-.1807-.1099-.0195-.0098-.6602-.3803-.04-.0298-.0899-.0503-.1005-.0596-.1299-.0703-.2696-.1597-.1201-.0703h-.0107l-.7197-.4199-.2403-.1299-.3896-.23-.0498-.0302-.0303-.02-1.3994-.8101h-.0098l-.1103-.0698-.3702-.2198h-.0097l-.2705-.1601-.6201-.3599-.0303-.0102-.0596-.0401-.04-.02-1.2901-.75-.3896-.23-.6807-.3901-.5791-.3296-.1103-.0601-1-.58-1.7198-1c-.0097-.0103-.0205-.0201-.0302-.0201l-1.3203-.7602-3.92-2.2598-.1601-.0898-.5694-.3301-.4697-.27-.4404-.2603-.2998-.1699-.3809-.2197-.9892-.5801-.0401-.02-2.7402-1.5899-.0996-.06-.1797-.1001-.6709-.3799-.8203-.4702-.0889-.0498-.5-.2901-.0107-.0102-.0801-.0498h-.0098l-.1201-.0703h-.0098l-.3095-.1797-.7305-.4199c-.0098-.0103-.0098-.0103-.0195-.0103l-1.8604-1.0801-1.0195-.5898-2.1104-1.23-.0908-.0498-.1992-.1201s-.0098 0-.0205-.0103l-.2803-.1596-.5293-.3003-.8203-.48-.0596-.04h-.0097s0 0-.0108 0l-.4892-.2901-.7002-.3999-.6797-.3901-1.2207-.71-.0996-.0596h-.0098l-.3301-.1904-.4101-.2397h-.0098l-.4307-.25-.9892-.5699-.0801-.04-.0303-.02v-53.1402l.7803-.4501 1.5889-.92.3603-.2099 3.3809-1.9502 1.0596-.6099 5.7802-3.3398h.0098l.9092-.5201 1.0508-.6201 1.8203-1.0498h.0097l.8692-.5102 3.6308-2.0796.6397-.3804.9404-.54.1699-.0899 1.6592-.9502.7803-.4497.3799-.2202.4404-.2598.6699-.3901.4307-.2598.5195-.3003.5-.2797.5899-.3404 1.1894-.6797.6904-.4101.75-.4302.6504-.3696h.0098l.0498-.0303.4307-.25 5.29-3.0498.1094-.0601.0801-.0498.2705-.1601 5.5195-3.19.5498-.3203 1.4404-.8296.5098.2998 1.0898.6299 2.8604 1.6499 3.0898 1.7901 2.5997 1.5.2197.1303 4.6904 2.6997.9805.5699 5.1299 2.9604.9101.52 1.0391.6099 2.3008 1.3101.8701.5.6894.3999.8301.4799.4902.2798.5801.3404.2998.1699.7998.4599.0899.0601 1.8105 1.04 2.1602 1.2398 1.1191.6504.5.2895.041.0303v.0098l.2598.1401.6592.3901 1.4609.8399 1.9395 1.1201.7802.4399.4405.25.4892.2798 1.4502.8404.1699.0996.8506.4902z" fill="#282828"/><path d="m81.9413 26.174-1.5801 1.25-68.6093 54.3404-1.8604 1.4697v-45.4697l26.8506-15.48 1.8594-1.0703 4.7802-2.75 2-1.1597 4.75-2.7402 1.9004-1.0899 3.9297-2.27 3.8096 2.1997 1.8398 1.0601 4.7305 2.7202 2 1.1601 4.6602 2.6797 1.9599 1.1299 6.5303 3.77z" fill="#212121"/><g fill="#2d2d2d"><circle cx="35.1122" cy="24.8542" r="1.167"/><circle cx="39.6962" cy="24.8542" r="1.167"/><circle cx="44.2802" cy="24.8542" r="1.167"/><circle cx="48.8642" cy="24.8542" r="1.167"/><circle cx="53.4481" cy="24.8542" r="1.167"/><circle cx="58.0321" cy="24.8542" r="1.167"/><circle cx="62.6161" cy="24.8542" r="1.167"/><circle cx="67.2001" cy="24.8542" r="1.167"/><circle cx="71.7841" cy="24.8542" r="1.167"/><circle cx="76.3681" cy="24.8542" r="1.167"/><path d="m38.6112 21.3542c0 .6401-.5195 1.1699-1.1699 1.1699-.2598 0-.5098-.0898-.6992-.2397l1.8594-1.0703c.0097.04.0097.0903.0097.1401z"/><circle cx="42.0302" cy="21.3542" r="1.167"/><circle cx="46.6142" cy="21.3542" r="1.167"/><circle cx="51.1981" cy="21.3542" r="1.167"/><circle cx="55.7821" cy="21.3542" r="1.167"/><circle cx="60.3661" cy="21.3542" r="1.167"/><circle cx="64.9501" cy="21.3542" r="1.167"/><circle cx="69.5341" cy="21.3542" r="1.167"/><path d="m74.9618 22.154c-.2099.23-.5097.3701-.8398.3701-.6504 0-1.1699-.5298-1.1699-1.1699 0-.1099.0195-.23.0498-.3301z"/><path d="m45.5321 17.8542c0 .6401-.5205 1.1699-1.1709 1.1699-.4199 0-.7793-.2197-.9795-.56l2-1.1597c.0996.1597.1504.3496.1504.5498z"/><circle cx="48.9481" cy="17.8542" r="1.167"/><circle cx="53.5321" cy="17.8542" r="1.167"/><circle cx="58.1161" cy="17.8542" r="1.167"/><circle cx="62.7001" cy="17.8542" r="1.167"/><path d="m68.3417 18.3444c-.1904.3999-.5898.6797-1.0596.6797-.6406 0-1.1601-.5298-1.1601-1.1699 0-.25.0801-.48.2197-.6699z"/><path d="m52.4521 14.3542c0 .6401-.5303 1.1699-1.17 1.1699-.5703 0-1.0508-.4199-1.1504-.9599l1.9004-1.0899c.2598.1997.42.52.42.8799z"/><circle cx="55.8661" cy="14.3542" r="1.167"/><path d="m61.6112 14.4641c-.0498.5903-.5595 1.06-1.1591 1.06-.6504 0-1.17-.5298-1.17-1.1699 0-.3901.1895-.7402.4893-.9502z"/><circle cx="29.7372" cy="29.2917" r="1.167"/><circle cx="34.3212" cy="29.2917" r="1.167"/><circle cx="38.9052" cy="29.2917" r="1.167"/><circle cx="43.4892" cy="29.2917" r="1.167"/><circle cx="48.0731" cy="29.2917" r="1.167"/><circle cx="52.6571" cy="29.2917" r="1.167"/><circle cx="57.2411" cy="29.2917" r="1.167"/><circle cx="61.8251" cy="29.2917" r="1.167"/><circle cx="66.4091" cy="29.2917" r="1.167"/><circle cx="70.9931" cy="29.2917" r="1.167"/><circle cx="24.3622" cy="33.7292" r="1.167"/><circle cx="28.9462" cy="33.7292" r="1.167"/><circle cx="33.5302" cy="33.7292" r="1.167"/><circle cx="38.1142" cy="33.7292" r="1.167"/><circle cx="42.6981" cy="33.7292" r="1.167"/><circle cx="47.2821" cy="33.7292" r="1.167"/><circle cx="51.8661" cy="33.7292" r="1.167"/><circle cx="56.4501" cy="33.7292" r="1.167"/><circle cx="61.0341" cy="33.7292" r="1.167"/><circle cx="65.6181" cy="33.7292" r="1.167"/><circle cx="18.9872" cy="38.1667" r="1.167"/><circle cx="20.1747" cy="34.0417" r="1.167"/><circle cx="15.0497" cy="37.7292" r="1.167"/><circle cx="23.5712" cy="38.1667" r="1.167"/><circle cx="28.1552" cy="38.1667" r="1.167"/><circle cx="32.7392" cy="38.1667" r="1.167"/><circle cx="37.3231" cy="38.1667" r="1.167"/><circle cx="41.9071" cy="38.1667" r="1.167"/><circle cx="46.4911" cy="38.1667" r="1.167"/><circle cx="51.0751" cy="38.1667" r="1.167"/><circle cx="55.6591" cy="38.1667" r="1.167"/><circle cx="60.2431" cy="38.1667" r="1.167"/><circle cx="13.6122" cy="42.6042" r="1.167"/><circle cx="18.1962" cy="42.6042" r="1.167"/><circle cx="22.7802" cy="42.6042" r="1.167"/><circle cx="27.3642" cy="42.6042" r="1.167"/><circle cx="31.9481" cy="42.6042" r="1.167"/><circle cx="36.5321" cy="42.6042" r="1.167"/><circle cx="41.1161" cy="42.6042" r="1.167"/><circle cx="45.7001" cy="42.6042" r="1.167"/><circle cx="50.2841" cy="42.6042" r="1.167"/><circle cx="54.8681" cy="42.6042" r="1.167"/><circle cx="12.8212" cy="47.0417" r="1.167"/><circle cx="17.4052" cy="47.0417" r="1.167"/><circle cx="21.9892" cy="47.0417" r="1.167"/><circle cx="26.5731" cy="47.0417" r="1.167"/><circle cx="31.1571" cy="47.0417" r="1.167"/><circle cx="35.7411" cy="47.0417" r="1.167"/><circle cx="40.3251" cy="47.0417" r="1.167"/><circle cx="44.9091" cy="47.0417" r="1.167"/><circle cx="49.4931" cy="47.0417" r="1.167"/><circle cx="12.0302" cy="51.4792" r="1.167"/><circle cx="16.6142" cy="51.4792" r="1.167"/><circle cx="21.1981" cy="51.4792" r="1.167"/><circle cx="25.7821" cy="51.4792" r="1.167"/><circle cx="30.3661" cy="51.4792" r="1.167"/><circle cx="34.9501" cy="51.4792" r="1.167"/><circle cx="39.5341" cy="51.4792" r="1.167"/><circle cx="44.1181" cy="51.4792" r="1.167"/><circle cx="11.2392" cy="55.9167" r="1.167"/><circle cx="15.8231" cy="55.9167" r="1.167"/><circle cx="20.4071" cy="55.9167" r="1.167"/><circle cx="24.9911" cy="55.9167" r="1.167"/><circle cx="29.5751" cy="55.9167" r="1.167"/><circle cx="34.1591" cy="55.9167" r="1.167"/><circle cx="38.7431" cy="55.9167" r="1.167"/><path d="m11.6112 60.3542c0 .6401-.5195 1.1699-1.1591 1.1699-.2002 0-.3907-.0498-.5606-.1401v-2.0498c.1699-.1001.3604-.1499.5606-.1499.6396 0 1.1591.5298 1.1591 1.1699z"/><circle cx="15.0321" cy="60.3542" r="1.167"/><circle cx="19.6161" cy="60.3542" r="1.167"/><circle cx="24.2001" cy="60.3542" r="1.167"/><circle cx="28.7841" cy="60.3542" r="1.167"/><circle cx="33.3681" cy="60.3542" r="1.167"/><circle cx="14.2411" cy="64.7917" r="1.167"/><circle cx="18.8251" cy="64.7917" r="1.167"/><circle cx="23.4091" cy="64.7917" r="1.167"/><circle cx="27.9931" cy="64.7917" r="1.167"/><circle cx="13.4501" cy="69.2292" r="1.167"/><circle cx="18.0341" cy="69.2292" r="1.167"/><circle cx="22.6181" cy="69.2292" r="1.167"/><circle cx="12.6591" cy="73.6667" r="1.167"/><circle cx="17.2431" cy="73.6667" r="1.167"/><circle cx="11.8681" cy="78.1042" r="1.167"/></g><path d="m99.1913 92.5241-2.4492 1.4102h-81.5606l-2.4394-1.4102z" fill="#3d3d3d"/><path d="m57.6718 93.5241v22.9302l-1.71.9897-.04-.02v-23.8999z" fill="#3d3d3d"/><path d="m68.1747 68.6037h1.75v24.771h-1.75z" fill="#3d3d3d"/><path d="m56.8407 101.5202h14.417v1.75h-14.417z" fill="#3d3d3d"/><path d="m56.6317 109.8942v1.75h-10.7402l-2.6396-1.52v-.0102l-.3799-.2198z" fill="#3d3d3d"/><path d="m89.3407 53.5202h12.667v1.75h-12.667z" fill="#3d3d3d"/><path d="m56.4413 104.0241v1.75h-20.7392l-.1905-.1098-.3496-.21-.4404-.2603-.4903-.2797-1.54-.8902z" fill="#3d3d3d"/><path d="m71.2118 101.6042v7.0498l-1.75 1.0103v-8.0601z" fill="#3d3d3d"/><path d="m88.4657 42.5251h1.75v51.167h-1.75z" fill="#3d3d3d"/><path d="m67.123 41.8366-1.6143 1.75h36.499v-1.75z" fill="#3d3d3d"/><path d="m19.8427 68.1042h71.9541v4.8403h-71.9541z" fill="#5e5e5e"/><path d="m95.1483 75.7077c0 1.502-1.2168 2.7193-2.7197 2.7193h-72.7158c-1.5029 0-2.7197-1.2173-2.7197-2.7193 0-1.5014 1.2168-2.7192 2.7197-2.7192h72.7158c1.5029 0 2.7197 1.2178 2.7197 2.7192z" fill="#494949"/><path d="m22.3925 65.9714h66.6992v1.3828h-66.6992z" fill="url(#b)"/><path d="m41.5341 89.3269c-.8701-2.1973-3.6006-2.2276-5.6231-2.3838-4.7754-.3687-5.83 3.7934-4.956 7.7231.0488.2222.1523.3716.2734.4888-.0146.0766-.0371.1489-.0439.2309-.1074 1.2935 1.1084 2.6695 2.2314 3.1338.6787.2803 1.4649.1944 2.1699.1079 1.0176-.1245 2.0909.0494 3.0879-.2124.4102-.1079.7471-.2602 1.0342-.4458.0772-.0317.1436-.081.2119-.1279.2305.0166.4483-.0718.6914-.354.1358-.1577.2139-.3501.2608-.5513.0478-.0761.1074-.1401.1396-.2309.0156.0044.0322.0083.0489.0127.0576-.2691.1103-.5288.1611-.7881.0371-.1631.0644-.3281.0869-.4937.1416-.8203.2256-1.625.1582-2.5127-.0889-1.1694.5176-2.458.0674-3.5966z" fill="#5e5e5e"/><path d="m54.33 95.1174c.0508-.1528.082-.3198.0752-.5088-.0088-.2554-.0322-.479-.0655-.7036.003-.1343-.0097-.2578-.0371-.3716.0957-1.0088.1299-2.0444-.0341-2.9756.2763-.5019.2509-1.1689-.126-1.6875.1084.1499-.2676-.3779-.3477-.4487-.2744-.2432-.5293-.3941-.8838-.4995-.1435-.0425-.288-.0567-.4306-.0576-.2149-.1138-.4453-.2159-.7061-.295-1.4121-.4277-3.2002-.4912-4.6357-.271-.4385.0669-.8379.2574-1.21.4903-.5478-.0025-1.1172.2998-1.3848.9775.0733-.3027-.5185.5674-.5751.6841-.2315.4726-.1846 1.1465.0937 1.6016-.0644.7309-.0723 1.4668-.0547 2.1254.002.0508.0244.0928.0313.1416-.0957 2.2188.1435 4.7691 2.1367 4.8233.1611.1611.3242.3276.5273.417.5762.2539 1.0899.2807 1.6914.1035.1914-.0566.3555-.1621.5059-.2847 1.3672.4771 3.1494.2237 4.3428-.6557.247-.0982.4795-.2608.6533-.5406.1933-.2651.3437-.5527.4531-.8623.1953-.4477.1533-.8632-.0195-1.2021z" fill="#5e5e5e"/><path d="m67.8446 92.5075c.083-1.3257.1426-2.7578-.6396-3.9057-.3301-.4844-.8018-.8428-1.3945-.9532-.086-.0161-.2149-.0122-.3594.001-.1123-.0674-.2305-.1245-.3555-.1548-.1973-.0483-.4014-.0439-.5996-.0029-.7129-.1606-1.4258-.3013-2.1367-.4731-.626-.1509-1.0508.2792-1.6192.2919-.5449.0122-1.0859-.0795-1.5976.1954-.2832.1523-.4268.4057-.584.6396-.5664.1504-.9834.6968-1.0791 1.2744-.1709 1.0327-.2022 2.0381-.1992 3.084.0029 1.1133-.1348 2.4087.1084 3.4878.0605.269.1836.4858.3379.6631.4121 2.8432 5.997 2.0351 8.0488 1.727 2.7637-.414 1.9541-4.0254 2.0693-5.8745z" fill="#5e5e5e"/><path d="m80.3642 92.217c-.0303-1.2432.082-2.4155-.6963-3.4663-.7481-1.0098-2.0244-1.4614-3.2139-1.6831-1.165-.2168-2.3945-.1685-3.5488.0718-.5908.123-1.2432.2851-1.7256.6796-.3242.2642-.4971.6109-.6592.9664-.2041.1118-.3721.2968-.4502.581-.0527.1934-.1055.3867-.1582.5796-.0605.2217-.0361.4375.0332.6357-.25 2.1368-1.0215 4.3135.3516 6.2027.0859.3564.2832.6904.6191.9712.1319.1103.2735.1875.4199.247 1.877 1.4219 4.3965.9795 6.5684.3897 2.749-.7466 2.5127-4.0005 2.46-6.1753z" fill="#5e5e5e"/><path clip-path="url(#c)" d="m48.1962 52.0017 8.2041-8.2041 8.2041 8.2041-8.2041 8.2041z" fill="url(#d)"/><path clip-path="url(#e)" d="m49.1679 49.1032 5.625-5.6255 5.625 5.6255-5.625 5.626z" fill="url(#f)"/><path clip-path="url(#g)" d="m50.0155 46.0949 3.2823-3.2812 3.2802 3.2812-3.2802 3.2808z" fill="url(#h)"/><path clip-path="url(#i)" d="m31.0888 49.9597 24.584-24.584 24.5839 24.584-24.5839 24.584z" fill="url(#j)"/><path d="m22.9931 65.3083 1.1611-8.5791 2.8125-6.5 2.625-4.375 4.0625-4.375 5.6875-3.9375 7.4375-3.125 8.1875-1.3125 9.125 1 7.8125 3.1875 5.9375 4.3125 3.5 3.625 3.9375 6.375 2.5625 8.25.625 6.125" fill="url(#k)" opacity=".8"/><path d="m87.8935 63.1184c-.7735-5.0752-1.5313-10.0562-1.5313-10.0562l-6.708-10.5-6.334-4.708-8.666-3.9585-7.4795-.708s26.042 3.7085 30.709 29.9326c.0029-.0005.0059-.0015.0098-.0019z" fill="#fff" opacity=".1"/><path d="m19.8427 71.7292h71.624v1.2153h-71.624z" fill="#3a3a3a"/><path d="m19.9364 69.0383h71.6241l-.0938-1.0591h-71.624z" fill="#a8a8a8"/><ellipse cx="75.2167" cy="92.7137" fill="#d6d6d6" rx=".2344" ry=".3749" transform="matrix(.6492 -.7607 .7607 .6492 -44.1338 89.7422)"/><ellipse cx="62.6542" cy="92.7137" fill="#d6d6d6" rx=".2344" ry=".3749" transform="matrix(.6492 -.7607 .7607 .6492 -48.5413 80.1864)"/><ellipse cx="49.4667" cy="92.7137" fill="#d6d6d6" rx=".2344" ry=".3749" transform="matrix(.6492 -.7607 .7607 .6492 -53.1681 70.1553)"/><ellipse cx="36.201" cy="92.7137" fill="#d6d6d6" rx=".2344" ry=".3749" transform="matrix(.6492 -.7606 .7606 .6492 -57.8195 60.0565)"/><path d="m73.8261 96.1979 1.2812.2969 1.4375-.3281-1.3125-1.5313-.3906-.5781h-.2969l-.3906.5469" fill="#3d3d3d"/><path d="m71.6386 94.1198.3906.0938 1.6875-1.2344.2969-.5625-1.375-.7031-.8125.0781" fill="#3d3d3d"/><path d="m73.6542 89.8854 1.4219 1.7969.5156.1719.7188-2.125-1.5313-.1719" fill="#3d3d3d"/><path d="m76.0761 92.9323 2.1406-1.4375.4063 1.1094-.1719 1.5-2.4063-.6094" fill="#3d3d3d"/><path d="m61.3261 96.1979 1.2812.2969 1.4375-.3281-1.3125-1.5313-.3906-.5781h-.2969l-.3906.5469" fill="#3d3d3d"/><path d="m59.1386 94.1198.3906.0938 1.6875-1.2344.2969-.5625-1.375-.7031-.8125.0781" fill="#3d3d3d"/><path d="m61.1542 89.8854 1.4219 1.7969.5156.1719.7188-2.125-1.5313-.1719" fill="#3d3d3d"/><path d="m63.5761 92.9323 2.1406-1.4375.4063 1.1094-.1719 1.5-2.4063-.6094" fill="#3d3d3d"/><path d="m48.1386 96.1979 1.2812.2969 1.4375-.3281-1.3125-1.5313-.3906-.5781h-.2969l-.3906.5469" fill="#3d3d3d"/><path d="m45.9511 94.1198.3906.0938 1.6875-1.2344.2969-.5625-1.375-.7031-.8125.0781" fill="#3d3d3d"/><path d="m47.9667 89.8854 1.4219 1.7969.5156.1719.7188-2.125-1.5313-.1719" fill="#3d3d3d"/><path d="m50.3886 92.9323 2.1406-1.4375.4063 1.1094-.1719 1.5-2.4063-.6094" fill="#3d3d3d"/><path d="m34.9511 96.1979 1.2812.2969 1.4375-.3281-1.3125-1.5313-.3906-.5781h-.2969l-.3906.5469" fill="#3d3d3d"/><path d="m32.7636 94.1198.3906.0938 1.6875-1.2344.2969-.5625-1.375-.7031-.8125.0781" fill="#3d3d3d"/><path d="m34.7792 89.8854 1.4219 1.7969.5156.1719.7188-2.125-1.5313-.1719" fill="#3d3d3d"/><path d="m37.2011 92.9323 2.1406-1.4375.4063 1.1094-.1719 1.5-2.4063-.6094" fill="#3d3d3d"/><path d="m95.0058 76.9855c.039.1817.0595.3711.0595.5645 0 1.5015-1.2168 2.7192-2.7197 2.7192h-72.7158c-1.5029 0-2.7197-1.2177-2.7197-2.7192 0-.1548.0127-.3052.0371-.4521" fill="none" stroke="#ffd60b" stroke-miterlimit="10" stroke-width=".5"/><path d="m95.0058 78.1037c.039.1817.0595.3711.0595.5645 0 1.5019-1.2168 2.7197-2.7197 2.7197h-72.7158c-1.5029 0-2.7197-1.2178-2.7197-2.7197 0-.1543.0127-.3047.0371-.4517" fill="none" stroke="#ffd60b" stroke-miterlimit="10" stroke-width=".5"/><path d="m95.0058 79.2224c.039.1816.0595.3711.0595.5644 0 1.5015-1.2168 2.7193-2.7197 2.7193h-72.7158c-1.5029 0-2.7197-1.2178-2.7197-2.7193 0-.1548.0127-.3052.0371-.4521" fill="none" stroke="#ffd60b" stroke-miterlimit="10" stroke-width=".5"/><path d="m34.5106 76.0041v7.9492c0 .3192.4961.3197.4961 0 0-2.6497 0-5.2995 0-7.9492 0-.3192-.4961-.3198-.4961 0z" fill="#0a0a0a"/><path d="m34.7157 84.3761h1.4024c.3192 0 .3197-.4961 0-.4961-.4675 0-.9349 0-1.4024 0-.3192 0-.3198.4961 0 .4961z" fill="#0a0a0a"/><path d="m36.0028 84.1281v1.6846c0 .3192.4961.3197.4961 0 0-.5615 0-1.1231 0-1.6846 0-.3192-.4961-.3198-.4961 0z" fill="#0a0a0a"/><path d="m19.8251 67.8791h71.9717v5.0654h-71.9717z" fill="none" stroke="#0a0a0a" stroke-miterlimit="10"/><path d="m22.3925 65.9714h66.7949v1.8857h-66.7949z" fill="none" stroke="#0a0a0a" stroke-miterlimit="10"/><path d="m23.0028 66.0407c-.0068-.2431-.0097-.4873-.0097-.7324 0-17.8911 14.6748-32.395 32.7793-32.395 18.1054 0 32.7793 14.5039 32.7793 32.395 0 .3013-.0049.6006-.0127.8989" fill="none" stroke="#0a0a0a" stroke-miterlimit="10"/><circle cx="34.7587" cy="75.8392" fill="none" r="1.3485" stroke="#0a0a0a" stroke-miterlimit="10" stroke-width=".5"/><circle cx="34.7587" cy="75.8737" fill="url(#l)" r=".7326"/><circle cx="48.3769" cy="75.8392" fill="none" r="1.3485" stroke="#0a0a0a" stroke-miterlimit="10" stroke-width=".5"/><circle cx="60.8983" cy="75.8392" fill="none" r="1.3485" stroke="#0a0a0a" stroke-miterlimit="10" stroke-width=".5"/><circle cx="75.0868" cy="75.8392" fill="none" r="1.3485" stroke="#0a0a0a" stroke-miterlimit="10" stroke-width=".5"/><path d="m41.5653 95.7434c0 1.6406-1.6396 2.9707-3.664 2.9707h-3.3731c-2.0234 0-3.664-1.3301-3.664-2.9707v-5.5708c0-1.6412 1.6406-2.9707 3.664-2.9707h3.3731c2.0244 0 3.664 1.3295 3.664 2.9707z" fill="none" stroke="#0a0a0a" stroke-miterlimit="10" stroke-width=".75"/><path d="m54.5692 95.7434c0 1.6406-1.6406 2.9707-3.665 2.9707h-3.3721c-2.0244 0-3.665-1.3301-3.665-2.9707v-5.5708c0-1.6412 1.6406-2.9707 3.665-2.9707h3.3721c2.0244 0 3.665 1.3295 3.665 2.9707z" fill="none" stroke="#0a0a0a" stroke-miterlimit="10" stroke-width=".75"/><path d="m67.8583 95.7434c0 1.6406-1.6406 2.9707-3.665 2.9707h-3.3721c-2.0244 0-3.665-1.3301-3.665-2.9707v-5.5708c0-1.6412 1.6406-2.9707 3.665-2.9707h3.3721c2.0244 0 3.665 1.3295 3.665 2.9707z" fill="none" stroke="#0a0a0a" stroke-miterlimit="10" stroke-width=".75"/><path d="m80.3612 95.7434c0 1.6406-1.6406 2.9707-3.665 2.9707h-3.3731c-2.0234 0-3.664-1.3301-3.664-2.9707v-5.5708c0-1.6412 1.6406-2.9707 3.664-2.9707h3.3731c2.0244 0 3.665 1.3295 3.665 2.9707z" fill="none" stroke="#0a0a0a" stroke-miterlimit="10" stroke-width=".75"/><path d="m48.2391 75.927v8.1357c0 .3192.4961.3197.4961 0 0-2.7119 0-5.4238 0-8.1357 0-.3192-.4961-.3198-.4961 0z" fill="#0a0a0a"/><path d="m48.5751 84.3332h5.0439c.3192 0 .3197-.4961 0-.4961-1.6813 0-3.3626 0-5.0439 0-.3192 0-.3198.4961 0 .4961z" fill="#0a0a0a"/><path d="m53.3592 84.1291v.8545c0 .3192.4961.3197.4961 0 0-.2848 0-.5697 0-.8545 0-.3192-.4961-.3198-.4961 0z" fill="#0a0a0a"/><path d="m53.5907 84.796c-1.3942 0-2.7884 0-4.1826 0-.3192 0-.3197.4961 0 .4961h4.1826c.3192 0 .3197-.4961 0-.4961z" fill="#0a0a0a"/><path d="m60.6942 75.9704v8.5088c0 .3192.4961.3197.4961 0 0-2.8363 0-5.6725 0-8.5088 0-.3192-.4961-.3198-.4961 0z" fill="#0a0a0a"/><path d="m60.8993 84.859h1.6172c.3192 0 .3197-.4961 0-.4961-.5391 0-1.0781 0-1.6172 0-.3192 0-.3198.4961 0 .4961z" fill="#0a0a0a"/><path d="m62.3504 84.6984v1.1734c0 .3192.4961.3197.4961 0 0-.3911 0-.7823 0-1.1734 0-.3192-.4961-.3198-.4961 0z" fill="#0a0a0a"/><path d="m49.1063 85.0441v.8277c0 .3192.4961.3197.4961 0 0-.2759 0-.5518 0-.8277 0-.3192-.4961-.3198-.4961 0z" fill="#0a0a0a"/><path d="m74.8719 75.7736v9.9781c0 .3192.4961.3197.4961 0 0-3.326 0-6.6521 0-9.9781 0-.3192-.4961-.3198-.4961 0z" fill="#0a0a0a"/><path d="m76.4306 86.5461c0 .354-.2871.6416-.6416.6416h-1.2178c-.3545 0-.6406-.2876-.6406-.6416 0-.354.2861-.6416.6406-.6416h1.2178c.3545 0 .6416.2876.6416.6416z" fill="none" stroke="#0a0a0a" stroke-miterlimit="10" stroke-width=".5"/><path d="m63.7333 86.5461c0 .354-.2871.6416-.6416.6416h-1.2168c-.3545 0-.6416-.2876-.6416-.6416 0-.354.2871-.6416.6416-.6416h1.2168c.3545 0 .6416.2876.6416.6416z" fill="none" stroke="#0a0a0a" stroke-miterlimit="10" stroke-width=".5"/><path d="m50.7284 86.5461c0 .354-.2861.6416-.6416.6416h-1.2168c-.3535 0-.6406-.2876-.6406-.6416 0-.354.2871-.6416.6406-.6416h1.2168c.3555 0 .6416.2876.6416.6416z" fill="none" stroke="#0a0a0a" stroke-miterlimit="10" stroke-width=".5"/><path d="m37.5194 86.5461c0 .354-.2861.6416-.6416.6416h-1.2168c-.3535 0-.6406-.2876-.6406-.6416 0-.354.2871-.6416.6406-.6416h1.2168c.3555 0 .6416.2876.6416.6416z" fill="none" stroke="#0a0a0a" stroke-miterlimit="10" stroke-width=".5"/><circle cx="36.161" cy="93.0319" fill="none" r="3.5754" stroke="#0a0a0a" stroke-miterlimit="10" stroke-width=".5"/><circle cx="36.0533" cy="92.9606" fill="none" r=".9868" stroke="#0a0a0a" stroke-miterlimit="10" stroke-width=".5"/><path d="m35.938 94.1381c.3943.9001 1.0335 1.6103 1.8986 2.0792.2807.1521.5315-.276.2504-.4284-.7967-.4317-1.3586-1.0749-1.7206-1.9012-.1278-.2918-.5554-.0395-.4284.2504z" fill="#0a0a0a"/><path d="m36.9056 93.5403c.7567.5909 1.6061.8984 2.5689.9017.3193.0011.3197-.495 0-.4961-.8229-.0029-1.5673-.2483-2.2181-.7564-.2488-.1943-.6023.1544-.3508.3508z" fill="#0a0a0a"/><path d="m34.9925 92.7107c-.9366.3775-1.6821.9855-2.1921 1.8625-.1608.2765.2677.5265.4284.2504.4413-.7587 1.0818-1.3065 1.8957-1.6345.2923-.1179.1646-.5979-.132-.4784z" fill="#0a0a0a"/><path d="m35.5022 93.7227c-.6128.7393-.9413 1.5815-.9739 2.5426-.0108.3193.4853.3189.4961 0 .0279-.8235.3023-1.5568.8286-2.1918.2023-.2441-.1468-.5969-.3508-.3508z" fill="#0a0a0a"/><path d="m36.367 91.837c-.3734-.9114-.9708-1.6319-1.8288-2.1242-.2774-.1592-.5275.2693-.2504.4284.7406.425 1.2768 1.037 1.6008 1.8278.1194.2913.5995.1638.4784-.132z" fill="#0a0a0a"/><path d="m35.3755 92.3307c-.7291-.5948-1.5541-.9098-2.4957-.9408-.3193-.0105-.3189.4856 0 .4961.8022.0265 1.5219.2873 2.1449.7955.2453.2002.5984-.1488.3508-.3508z" fill="#0a0a0a"/><path d="m37.2084 93.3058c.9557-.3347 1.7279-.9168 2.2781-1.7702.1735-.2691-.2557-.5181-.4284-.2504-.478.7414-1.1516 1.2516-1.9817 1.5422-.2992.1048-.1704.5843.132.4784z" fill="#0a0a0a"/><path d="m36.7368 92.2684c.6474-.7105 1.0061-1.5415 1.0766-2.5006.0234-.3185-.4728-.317-.4961 0-.0606.8246-.3749 1.5392-.9313 2.1498-.2147.2356.1352.5874.3508.3508z" fill="#0a0a0a"/><circle cx="49.3515" cy="93.0319" fill="none" r="3.575" stroke="#0a0a0a" stroke-miterlimit="10" stroke-width=".5"/><circle cx="49.2435" cy="92.9606" fill="none" r=".9871" stroke="#0a0a0a" stroke-miterlimit="10" stroke-width=".5"/><path d="m49.1285 94.1381c.3941.8998 1.033 1.6101 1.8976 2.0792.2807.1523.5314-.2759.2504-.4284-.7961-.432-1.3579-1.0752-1.7196-1.9012-.1278-.2918-.5554-.0395-.4284.2504z" fill="#0a0a0a"/><path d="m50.096 93.5403c.7568.591 1.6059.8984 2.5689.9017.3193.0011.3197-.495 0-.4961-.8231-.0029-1.5672-.2481-2.2181-.7564-.2488-.1943-.6023.1544-.3508.3508z" fill="#0a0a0a"/><path d="m48.1829 92.7107c-.9362.3776-1.6828.9852-2.1921 1.8625-.1606.2766.2679.5267.4284.2504.4407-.7589 1.0821-1.3063 1.8957-1.6345.2922-.118.1645-.598-.132-.4784z" fill="#0a0a0a"/><path d="m48.6927 93.7227c-.6128.7393-.9414 1.5814-.9741 2.5426-.0108.3193.4853.3189.4961 0 .0279-.8235.3024-1.5568.8288-2.1918.2023-.2441-.1468-.5969-.3508-.3508z" fill="#0a0a0a"/><path d="m49.5584 91.837c-.3743-.9111-.972-1.6315-1.8298-2.1242-.2773-.1593-.5275.2692-.2504.4284.7403.4253 1.2771 1.0374 1.6018 1.8278.1196.2912.5998.1636.4784-.132z" fill="#0a0a0a"/><path d="m48.5669 92.3307c-.73-.5948-1.5554-.9098-2.4977-.9408-.3193-.0105-.3189.4856 0 .4961.8029.0265 1.5231.2873 2.1469.7955.2454.2.5985-.149.3508-.3508z" fill="#0a0a0a"/><path d="m50.3988 93.3058c.9557-.3346 1.728-.9167 2.2781-1.7702.1735-.2691-.2558-.5181-.4284-.2504-.478.7414-1.1517 1.2516-1.9817 1.5422-.2992.1048-.1704.5843.132.4784z" fill="#0a0a0a"/><path d="m49.9263 92.2684c.6475-.7106 1.0061-1.5417 1.0785-2.5006.024-.3184-.4722-.3169-.4961 0-.0622.8244-.3768 1.5393-.9331 2.1498-.2148.2356.1351.5874.3507.3508z" fill="#0a0a0a"/><circle cx="62.5585" cy="92.9826" fill="none" r="3.5747" stroke="#0a0a0a" stroke-miterlimit="10" stroke-width=".5"/><circle cx="62.4503" cy="92.9111" fill="none" r=".9868" stroke="#0a0a0a" stroke-miterlimit="10" stroke-width=".5"/><path d="m62.3345 94.0893c.3949.8996 1.0333 1.6102 1.8986 2.0787.2808.152.5315-.2761.2504-.4284-.7968-.4314-1.3581-1.0748-1.7206-1.9007-.1281-.2917-.5556-.0395-.4284.2504z" fill="#0a0a0a"/><path d="m63.303 93.491c.7562.5912 1.6055.8984 2.568.9017.3193.0011.3197-.495 0-.4961-.8227-.0029-1.5669-.248-2.2172-.7564-.2487-.1944-.6022.1542-.3508.3508z" fill="#0a0a0a"/><path d="m61.39 92.6619c-.9365.3772-1.6824.985-2.1922 1.862-.1608.2765.2678.5266.4284.2504.4411-.7587 1.082-1.3062 1.8958-1.634.2923-.1178.1646-.5979-.132-.4784z" fill="#0a0a0a"/><path d="m61.8997 93.6739c-.6131.739-.9415 1.5811-.975 2.5421-.0111.3193.485.3189.4961 0 .0287-.8234.3031-1.5566.8297-2.1913.2024-.244-.1467-.5969-.3508-.3508z" fill="#0a0a0a"/><path d="m62.7645 91.7872c-.3743-.9111-.9718-1.6313-1.8298-2.1238-.2774-.1592-.5275.2693-.2504.4284.7406.4251 1.2771 1.0369 1.6018 1.8273.1197.2913.5998.1637.4784-.1319z" fill="#0a0a0a"/><path d="m61.773 92.2813c-.7292-.5953-1.5546-.9102-2.4967-.9402-.3193-.0102-.319.4859 0 .4961.8028.0256 1.5227.2861 2.1459.7949.2453.2003.5983-.1487.3508-.3508z" fill="#0a0a0a"/><path d="m63.6058 93.257c.9558-.3352 1.7273-.9177 2.2781-1.7708.1737-.269-.2556-.518-.4284-.2504-.4785.7411-1.1517 1.2517-1.9817 1.5428-.2992.105-.1704.5844.132.4784z" fill="#0a0a0a"/><path d="m63.1333 92.2191c.6471-.7108 1.006-1.5423 1.0786-2.5011.0241-.3184-.4721-.3169-.4961 0-.0623.8242-.3773 1.5396-.9333 2.1503-.2146.2356.1353.5875.3508.3508z" fill="#0a0a0a"/><circle cx="75.0577" cy="92.9826" fill="none" r="3.5745" stroke="#0a0a0a" stroke-miterlimit="10" stroke-width=".5"/><circle cx="74.9501" cy="92.9111" fill="none" r=".9866" stroke="#0a0a0a" stroke-miterlimit="10" stroke-width=".5"/><path d="m74.8345 94.0893c.3941.8998 1.0324 1.6103 1.8976 2.0787.2808.152.5315-.2761.2504-.4284-.7967-.4313-1.3578-1.0746-1.7196-1.9007-.1278-.2918-.5554-.0395-.4284.2504z" fill="#0a0a0a"/><path d="m78.371 93.8966c-.823-.0029-1.5673-.2483-2.2182-.7564-.2488-.1942-.6023.1544-.3508.3508.7568.5908 1.6062.8984 2.569.9017.3192.0011.3197-.495 0-.4961z" fill="#0a0a0a"/><path d="m73.889 92.6619c-.9366.3772-1.6823.9851-2.1922 1.862-.1608.2765.2678.5266.4284.2504.4412-.7587 1.0819-1.3062 1.8958-1.634.2923-.1178.1646-.5979-.132-.4784z" fill="#0a0a0a"/><path d="m74.3997 93.6739c-.6138.7387-.9423 1.5808-.9741 2.5421-.0105.3193.4856.3189.4961 0 .0272-.8238.3015-1.5567.8288-2.1913.2026-.2439-.1465-.5967-.3508-.3508z" fill="#0a0a0a"/><path d="m75.2635 91.7872c-.3742-.9108-.9713-1.6311-1.8288-2.1238-.2773-.1593-.5274.2692-.2504.4284.7401.4253 1.2762 1.0372 1.6008 1.8273.1197.2913.5998.1637.4784-.1319z" fill="#0a0a0a"/><path d="m74.272 92.2813c-.7289-.5951-1.554-.9102-2.4957-.9402-.3193-.0102-.319.4859 0 .4961.8024.0256 1.522.2864 2.1449.7949.2453.2003.5983-.1487.3508-.3508z" fill="#0a0a0a"/><path d="m76.1058 93.257c.9556-.3352 1.7265-.9178 2.2771-1.7708.1737-.269-.2556-.518-.4284-.2504-.4784.7409-1.1508 1.2518-1.9807 1.5428-.2992.105-.1704.5844.132.4784z" fill="#0a0a0a"/><path d="m75.6333 92.2191c.647-.7107 1.006-1.5422 1.0776-2.5011.0238-.3185-.4725-.3169-.4961 0-.0615.8243-.3763 1.5396-.9323 2.1503-.2146.2356.1353.5875.3508.3508z" fill="#0a0a0a"/><path d="m84.3319 27.5642-.4306-.25-1.4795-.8599-.4805-.2803-.4492-.25-6.5303-3.77-1.9599-1.1299-4.6602-2.6797-2-1.1601-4.7305-2.7202-1.8398-1.0601-3.8096-2.1997-3.9297 2.27-1.9004 1.0899-4.75 2.7402-2 1.1597-4.7802 2.75-1.8594 1.0703-26.8506 15.48v53.1196l1.6602.9604.6396.3697h.0108l.54.31 2.4394 1.4102 11.8204 6.81 4.0097 2.3101 1.0401.5996.6396.3701 1.54.8902.4903.2797.4404.2603.3496.21.1905.1098 2.9492 1.69 3.3105 1.9101.9102.52.3799.2198v.0102l2.6396 1.52 10.0303 5.7798.04.02 1.71-.9897 11.79-6.79 1.75-1.0103 25.5303-14.7197 2.4492-1.4102 2.8408-1.6401v-53.1196zm15.8399 62.25-4.7002 2.7099-2.4502 1.4102-21.8096 12.5801-1.75 1.0097-11.79 6.7901-1.71.9902-.04-.02-6.3106-3.6402-3.039-1.75-3.1201-1.7998-4.0206-2.3203-3.04-1.75-10.8398-6.25-6.6602-3.8398-2.4394-1.4102-4.7002-2.7099v-50.9698l44.2099-25.4902 24.0195 13.8501.3799.2197.5508.3203 1.4795.8501.4307.25 17.3496 10z" opacity=".13"/><circle cx="48.3769" cy="75.8737" fill="url(#m)" r=".7332"/><circle cx="60.8983" cy="75.8737" fill="url(#n)" r=".7332"/><circle cx="75.0865" cy="75.8737" fill="url(#o)" r=".7329"/><path d="m18.0292 73.3854h75.875v.625h-75.875z" fill="#6d6d6d"/><path d="m18.0292 77.5104h75.875v.625h-75.875z" fill="#333"/><path d="m95.0653 75.7077c0 1.502-1.2168 2.7193-2.7197 2.7193h-72.7158c-1.5029 0-2.7197-1.2173-2.7197-2.7193 0-1.5014 1.2168-2.7192 2.7197-2.7192h72.7158c1.5029 0 2.7197 1.2178 2.7197 2.7192z" fill="none" stroke="#0a0a0a" stroke-miterlimit="10"/></svg>