<?xml version="1.0" encoding="utf-8"?>
<!-- Generator: Adobe Illustrator 16.0.0, SVG Export Plug-In . SVG Version: 6.00 Build 0)  -->
<!DOCTYPE svg PUBLIC "-//W3C//DTD SVG 1.1//EN" "http://www.w3.org/Graphics/SVG/1.1/DTD/svg11.dtd">
<svg version="1.1" id="Layer_1" xmlns="http://www.w3.org/2000/svg" xmlns:xlink="http://www.w3.org/1999/xlink" x="0px" y="0px"
	 width="111px" height="128.422px" viewBox="9 -9.047 111 128.422" enable-background="new 9 -9.047 111 128.422"
	 xml:space="preserve">
<g id="Layer_14">
	<polygon fill="#20A091" points="120,87.375 64.574,119.375 9.149,87.375 9.149,23.376 64.574,-8.624 120,23.376 	"/>
	<polygon fill="#67D3C1" points="111.076,29.105 111.076,82.235 100.646,88.255 100.406,88.375 100.275,88.435 100.166,88.495 
		81.226,99.435 81.065,99.525 81.016,99.555 80.246,99.995 76.796,101.995 65.025,108.795 61.136,106.545 60.456,106.155 
		60.346,106.085 59.966,105.875 51.546,100.995 51.206,100.805 50.916,100.645 50.666,100.495 29.846,88.455 24.326,85.265 
		23.126,84.575 19.076,82.235 19.076,29.105 65.076,2.545 	"/>
	<g id="Layer_13" display="none">
		<circle display="inline" fill="#1E6EE2" cx="46.261" cy="86.444" r="17.664"/>
		<circle display="inline" fill="#1E6EE2" cx="84.241" cy="91.819" r="8.5"/>
		<circle display="inline" fill="#1E6EE2" cx="24.692" cy="35.271" r="9.951"/>
		<circle display="inline" fill="#1E6EE2" cx="99.241" cy="65.819" r="15.767"/>
		<circle display="inline" fill="#1E6EE2" cx="64.585" cy="24.477" r="24.017"/>
	</g>
</g>
<g id="Layer_29">
	<path fill="#20A091" stroke="#061333" stroke-width="0.5" stroke-miterlimit="10" d="M50.182,32.561c0-1.664,0-3.329,0-4.993
		c0.247-0.52,0.665-0.738,1.23-0.786c0.829-0.069,1.651-0.192,2.478-0.284c0.178-0.021,0.274-0.078,0.326-0.264
		c0.292-1.025,0.698-2.004,1.21-2.938c0.04-0.076,0.021-0.233-0.034-0.307c-0.575-0.755-1.166-1.501-1.754-2.25
		c-0.315-0.4-0.305-1.011,0.03-1.346c1.051-1.051,2.102-2.102,3.153-3.146c0.407-0.406,0.971-0.428,1.425-0.07
		c0.739,0.584,1.484,1.16,2.222,1.748c0.115,0.092,0.193,0.094,0.315,0.023c0.926-0.527,1.911-0.924,2.933-1.222
		c0.186-0.054,0.244-0.146,0.264-0.324c0.092-0.826,0.217-1.647,0.286-2.478c0.048-0.564,0.265-0.984,0.785-1.229
		c1.666,0,3.33,0,4.994,0c0.508,0.24,0.734,0.646,0.783,1.203c0.07,0.838,0.195,1.67,0.287,2.505
		c0.021,0.18,0.082,0.271,0.266,0.323c1.021,0.3,2.004,0.696,2.938,1.215c0.074,0.043,0.232,0.021,0.305-0.031
		c0.75-0.569,1.488-1.153,2.229-1.735c0.455-0.357,1.019-0.332,1.425,0.069c0.981,0.974,1.967,1.947,2.946,2.921
		c0.59,0.586,0.621,1.064,0.11,1.725c-0.543,0.699-1.096,1.393-1.631,2.1c-0.056,0.071-0.069,0.229-0.028,0.305
		c0.502,0.92,0.907,1.879,1.188,2.887c0.063,0.232,0.181,0.302,0.399,0.324c0.815,0.088,1.629,0.211,2.449,0.278
		c0.557,0.05,0.963,0.274,1.202,0.783c0,1.664,0,3.329,0,4.993c-0.245,0.52-0.666,0.738-1.229,0.785
		c-0.83,0.067-1.651,0.19-2.479,0.285c-0.178,0.019-0.271,0.082-0.321,0.266c-0.297,1.023-0.69,2.007-1.222,2.934
		c-0.069,0.125-0.06,0.202,0.028,0.315c0.589,0.735,1.164,1.479,1.748,2.22c0.355,0.455,0.345,1.018-0.065,1.428
		c-1.021,1.026-2.051,2.045-3.077,3.065c-0.437,0.433-0.982,0.453-1.466,0.073c-0.731-0.578-1.467-1.153-2.209-1.717
		c-0.069-0.056-0.229-0.072-0.306-0.031c-0.928,0.509-1.895,0.914-2.911,1.201c-0.188,0.055-0.269,0.143-0.287,0.338
		c-0.09,0.828-0.217,1.647-0.285,2.478c-0.047,0.567-0.269,0.983-0.786,1.229c-1.664,0-3.328,0-4.995,0
		c-0.403-0.226-0.701-0.506-0.75-1.014c-0.086-0.9-0.216-1.798-0.316-2.695c-0.022-0.183-0.08-0.271-0.266-0.323
		c-1.023-0.293-2.002-0.697-2.938-1.209c-0.076-0.042-0.233-0.026-0.305,0.026c-0.756,0.576-1.502,1.166-2.25,1.752
		c-0.405,0.316-1.008,0.313-1.346-0.023c-1.045-1.043-2.088-2.086-3.128-3.135c-0.438-0.438-0.454-0.983-0.076-1.463
		c0.581-0.73,1.155-1.467,1.72-2.207c0.054-0.07,0.07-0.229,0.027-0.305c-0.512-0.937-0.914-1.914-1.212-2.938
		c-0.053-0.187-0.146-0.246-0.322-0.267c-0.836-0.094-1.669-0.217-2.506-0.289C50.826,33.296,50.421,33.068,50.182,32.561z
		 M67.545,38.741c4.779,0.012,8.672-3.859,8.678-8.668c0.01-4.703-3.713-8.673-8.657-8.689c-4.82-0.021-8.674,3.836-8.692,8.654
		C58.85,34.845,62.733,38.731,67.545,38.741z"/>
	<path fill="#20A091" stroke="#061333" stroke-width="0.5" stroke-miterlimit="10" d="M23.164,44.626c0-1.427,0-2.854,0-4.279
		c0.212-0.443,0.57-0.633,1.054-0.674c0.71-0.06,1.416-0.164,2.124-0.244c0.152-0.018,0.235-0.065,0.279-0.226
		c0.25-0.879,0.598-1.718,1.037-2.519c0.035-0.064,0.018-0.2-0.029-0.262c-0.494-0.646-1-1.287-1.503-1.931
		c-0.271-0.345-0.262-0.864,0.025-1.151c0.899-0.899,1.802-1.801,2.702-2.696c0.351-0.349,0.833-0.366,1.222-0.06
		c0.634,0.5,1.272,0.992,1.904,1.498c0.099,0.076,0.165,0.077,0.271,0.021c0.793-0.453,1.638-0.792,2.514-1.048
		c0.158-0.045,0.209-0.125,0.228-0.277c0.078-0.708,0.185-1.413,0.245-2.123c0.042-0.484,0.226-0.845,0.673-1.054
		c1.426,0,2.853,0,4.278,0c0.437,0.206,0.63,0.554,0.672,1.03c0.061,0.719,0.168,1.433,0.246,2.146
		c0.019,0.151,0.069,0.229,0.228,0.276c0.875,0.258,1.718,0.6,2.517,1.041c0.064,0.037,0.2,0.021,0.262-0.026
		c0.643-0.487,1.274-0.987,1.909-1.487c0.39-0.308,0.872-0.283,1.221,0.061c0.842,0.835,1.685,1.671,2.525,2.505
		c0.504,0.501,0.532,0.913,0.096,1.478c-0.466,0.6-0.939,1.193-1.398,1.799c-0.046,0.063-0.061,0.195-0.023,0.263
		c0.429,0.786,0.776,1.608,1.02,2.475c0.055,0.198,0.154,0.259,0.342,0.278c0.701,0.074,1.397,0.18,2.1,0.236
		c0.478,0.043,0.824,0.236,1.03,0.672c0,1.428,0,2.854,0,4.279c-0.211,0.445-0.569,0.635-1.055,0.674
		c-0.71,0.061-1.416,0.164-2.124,0.244c-0.153,0.017-0.231,0.069-0.276,0.229c-0.255,0.878-0.594,1.72-1.046,2.515
		c-0.061,0.107-0.051,0.175,0.025,0.271c0.503,0.632,0.998,1.27,1.498,1.902c0.306,0.389,0.295,0.871-0.057,1.223
		c-0.875,0.882-1.758,1.754-2.639,2.63c-0.373,0.37-0.842,0.388-1.254,0.063c-0.629-0.496-1.257-0.988-1.894-1.473
		c-0.061-0.046-0.196-0.063-0.262-0.025c-0.795,0.437-1.625,0.783-2.496,1.029c-0.162,0.046-0.229,0.121-0.246,0.29
		c-0.077,0.708-0.186,1.412-0.244,2.122c-0.041,0.485-0.229,0.844-0.677,1.055c-1.426,0-2.853,0-4.278,0
		c-0.347-0.192-0.602-0.434-0.644-0.869c-0.073-0.772-0.185-1.541-0.271-2.31c-0.02-0.155-0.068-0.231-0.229-0.276
		c-0.877-0.252-1.716-0.6-2.52-1.037c-0.065-0.035-0.2-0.021-0.26,0.021c-0.648,0.495-1.287,0.999-1.93,1.503
		c-0.348,0.271-0.863,0.269-1.152-0.021c-0.896-0.895-1.79-1.787-2.683-2.687c-0.375-0.376-0.389-0.844-0.064-1.254
		c0.498-0.627,0.989-1.257,1.474-1.894c0.045-0.062,0.061-0.194,0.023-0.262c-0.438-0.802-0.783-1.641-1.039-2.518
		c-0.046-0.159-0.124-0.211-0.276-0.229c-0.716-0.08-1.431-0.187-2.147-0.246C23.716,45.255,23.369,45.061,23.164,44.626z
		 M38.044,49.923c4.098,0.01,7.434-3.309,7.439-7.43c0.007-4.031-3.183-7.434-7.423-7.449c-4.131-0.017-7.434,3.289-7.449,7.42
		C30.594,46.585,33.922,49.915,38.044,49.923z"/>
	<path fill="#20A091" stroke="#061333" stroke-width="0.5" stroke-miterlimit="10" d="M20.855,72.396
		c-0.117-1.214-0.235-2.427-0.354-3.641c0.144-0.395,0.432-0.585,0.84-0.66c0.6-0.108,1.19-0.257,1.786-0.383
		c0.127-0.026,0.194-0.077,0.219-0.214c0.141-0.768,0.366-1.51,0.673-2.228c0.024-0.058-0.002-0.172-0.047-0.221
		c-0.473-0.508-0.957-1.01-1.438-1.515c-0.259-0.271-0.294-0.714-0.074-0.982c0.691-0.839,1.382-1.68,2.074-2.517
		c0.269-0.326,0.677-0.38,1.034-0.152c0.581,0.373,1.166,0.74,1.743,1.116c0.091,0.059,0.147,0.053,0.231-0.005
		c0.638-0.451,1.327-0.809,2.051-1.099c0.131-0.052,0.168-0.124,0.169-0.256c0.008-0.607,0.041-1.217,0.032-1.824
		c-0.004-0.416,0.123-0.737,0.485-0.952c1.212-0.118,2.426-0.237,3.639-0.355c0.387,0.14,0.581,0.419,0.657,0.821
		c0.11,0.605,0.262,1.203,0.388,1.805c0.028,0.129,0.078,0.191,0.215,0.218c0.767,0.146,1.512,0.366,2.228,0.677
		c0.058,0.025,0.171,0,0.22-0.045c0.506-0.47,1.002-0.946,1.501-1.424c0.305-0.293,0.718-0.314,1.042-0.05
		c0.785,0.64,1.571,1.28,2.355,1.919c0.471,0.385,0.527,0.732,0.203,1.248c-0.346,0.55-0.698,1.094-1.04,1.646
		c-0.033,0.056-0.034,0.171,0.001,0.224c0.431,0.634,0.795,1.306,1.072,2.021c0.063,0.164,0.152,0.206,0.314,0.208
		c0.602,0.006,1.203,0.038,1.805,0.028c0.41-0.004,0.722,0.133,0.932,0.484c0.119,1.213,0.237,2.426,0.355,3.64
		c-0.143,0.396-0.432,0.586-0.841,0.66c-0.6,0.109-1.19,0.258-1.785,0.384c-0.129,0.026-0.19,0.079-0.216,0.217
		c-0.145,0.769-0.362,1.512-0.682,2.225c-0.043,0.097-0.028,0.152,0.043,0.229c0.48,0.494,0.954,0.995,1.432,1.492
		c0.292,0.307,0.324,0.718,0.054,1.045c-0.671,0.821-1.349,1.636-2.026,2.453c-0.286,0.347-0.684,0.4-1.062,0.157
		c-0.575-0.369-1.151-0.737-1.732-1.094c-0.054-0.034-0.171-0.036-0.224,0c-0.64,0.436-1.316,0.801-2.037,1.083
		c-0.135,0.052-0.185,0.122-0.186,0.266c-0.006,0.609-0.04,1.217-0.031,1.825c0.006,0.417-0.125,0.736-0.487,0.953
		c-1.213,0.118-2.426,0.236-3.638,0.354c-0.311-0.135-0.547-0.317-0.619-0.685c-0.127-0.651-0.286-1.294-0.422-1.942
		c-0.029-0.131-0.078-0.191-0.217-0.217c-0.768-0.141-1.508-0.366-2.229-0.672c-0.058-0.026-0.172-0.003-0.22,0.04
		c-0.51,0.475-1.011,0.957-1.515,1.438c-0.273,0.261-0.712,0.3-0.982,0.078c-0.836-0.685-1.67-1.372-2.502-2.062
		c-0.35-0.289-0.401-0.686-0.16-1.062c0.371-0.573,0.738-1.149,1.097-1.73c0.034-0.056,0.035-0.171-0.002-0.225
		c-0.438-0.646-0.802-1.329-1.091-2.054c-0.052-0.131-0.123-0.169-0.254-0.17c-0.616-0.009-1.231-0.039-1.847-0.032
		C21.378,72.884,21.067,72.748,20.855,72.396z M33.949,75.666c3.484-0.333,6.046-3.43,5.709-6.935
		c-0.329-3.429-3.322-6.057-6.93-5.719c-3.514,0.329-6.048,3.414-5.72,6.927C27.336,73.444,30.442,76,33.949,75.666z"/>
	<path fill="#20A091" stroke="#061333" stroke-width="0.5" stroke-miterlimit="10" d="M44.145,80.519
		c-0.073-0.761-0.147-1.521-0.222-2.281c0.09-0.248,0.271-0.367,0.527-0.414c0.375-0.068,0.746-0.161,1.119-0.24
		c0.08-0.018,0.122-0.048,0.137-0.135c0.087-0.481,0.229-0.946,0.422-1.396c0.015-0.036-0.001-0.106-0.029-0.138
		c-0.297-0.319-0.6-0.633-0.9-0.95c-0.163-0.169-0.186-0.448-0.046-0.616c0.433-0.525,0.865-1.053,1.3-1.577
		c0.168-0.204,0.425-0.238,0.647-0.096c0.364,0.234,0.73,0.464,1.094,0.699c0.057,0.037,0.092,0.034,0.145-0.003
		c0.399-0.283,0.832-0.507,1.285-0.689c0.082-0.031,0.104-0.077,0.105-0.159c0.006-0.382,0.025-0.764,0.021-1.146
		c-0.003-0.26,0.077-0.462,0.304-0.596c0.76-0.074,1.521-0.148,2.28-0.224c0.243,0.088,0.364,0.264,0.412,0.516
		c0.069,0.379,0.164,0.754,0.243,1.131c0.018,0.081,0.049,0.12,0.135,0.136c0.479,0.091,0.947,0.23,1.396,0.424
		c0.037,0.017,0.108,0,0.139-0.027c0.316-0.294,0.628-0.593,0.94-0.894c0.191-0.184,0.45-0.196,0.653-0.03
		c0.492,0.399,0.985,0.802,1.477,1.202c0.295,0.241,0.331,0.459,0.127,0.782c-0.217,0.344-0.438,0.686-0.651,1.032
		c-0.021,0.035-0.022,0.107,0.001,0.14c0.27,0.398,0.498,0.818,0.672,1.267c0.04,0.103,0.095,0.129,0.197,0.13
		c0.377,0.004,0.754,0.022,1.131,0.018c0.257-0.002,0.452,0.083,0.584,0.305c0.074,0.76,0.147,1.521,0.222,2.28
		c-0.089,0.249-0.27,0.368-0.526,0.414c-0.375,0.068-0.746,0.162-1.119,0.241c-0.081,0.016-0.12,0.049-0.136,0.135
		c-0.09,0.481-0.227,0.947-0.427,1.396c-0.026,0.061-0.019,0.096,0.027,0.143c0.301,0.312,0.598,0.625,0.896,0.937
		c0.184,0.191,0.203,0.449,0.034,0.654c-0.421,0.516-0.846,1.025-1.27,1.538c-0.181,0.217-0.429,0.251-0.666,0.1
		c-0.361-0.231-0.722-0.461-1.085-0.687c-0.034-0.021-0.107-0.022-0.141,0c-0.4,0.273-0.824,0.502-1.276,0.679
		c-0.084,0.033-0.115,0.077-0.116,0.168c-0.004,0.382-0.025,0.763-0.02,1.144c0.003,0.262-0.078,0.462-0.306,0.598
		c-0.76,0.074-1.521,0.148-2.28,0.223c-0.193-0.084-0.343-0.2-0.388-0.43c-0.08-0.407-0.179-0.812-0.265-1.217
		c-0.019-0.082-0.048-0.121-0.136-0.136c-0.48-0.088-0.945-0.229-1.396-0.421c-0.037-0.017-0.108-0.001-0.138,0.024
		c-0.319,0.297-0.634,0.601-0.949,0.901c-0.172,0.163-0.447,0.188-0.616,0.049c-0.524-0.429-1.047-0.858-1.569-1.292
		c-0.219-0.181-0.251-0.429-0.1-0.665c0.233-0.359,0.463-0.721,0.688-1.085c0.021-0.034,0.021-0.106-0.001-0.14
		c-0.275-0.404-0.503-0.833-0.685-1.288c-0.033-0.082-0.077-0.106-0.159-0.107c-0.386-0.005-0.771-0.023-1.156-0.02
		C44.472,80.824,44.277,80.738,44.145,80.519z M52.351,82.568c2.185-0.208,3.79-2.15,3.579-4.348
		c-0.206-2.147-2.083-3.796-4.343-3.584c-2.203,0.206-3.791,2.141-3.585,4.342C48.206,81.175,50.153,82.777,52.351,82.568z"/>
	<path fill="#20A091" stroke="#061333" stroke-width="0.5" stroke-miterlimit="10" d="M54.466,90.889
		c-0.056-0.581-0.113-1.162-0.17-1.743c0.069-0.189,0.208-0.28,0.403-0.316c0.287-0.052,0.569-0.123,0.855-0.184
		c0.062-0.014,0.093-0.037,0.104-0.104c0.066-0.368,0.176-0.724,0.323-1.067c0.012-0.026,0-0.081-0.022-0.104
		c-0.227-0.244-0.458-0.484-0.689-0.726c-0.125-0.13-0.141-0.343-0.035-0.472c0.331-0.401,0.661-0.805,0.993-1.207
		c0.13-0.154,0.325-0.182,0.496-0.072c0.278,0.179,0.559,0.354,0.835,0.534c0.043,0.028,0.071,0.026,0.111-0.002
		c0.306-0.216,0.636-0.388,0.983-0.526c0.063-0.025,0.08-0.061,0.081-0.122c0.004-0.292,0.019-0.583,0.016-0.875
		c-0.002-0.199,0.059-0.354,0.232-0.456c0.58-0.058,1.162-0.113,1.742-0.17c0.187,0.066,0.279,0.201,0.315,0.394
		c0.053,0.29,0.125,0.577,0.186,0.865c0.014,0.062,0.038,0.091,0.104,0.104c0.367,0.07,0.724,0.177,1.066,0.325
		c0.028,0.013,0.083,0,0.105-0.021c0.243-0.226,0.48-0.453,0.719-0.683c0.146-0.141,0.345-0.149,0.5-0.022
		c0.376,0.306,0.753,0.612,1.129,0.919c0.227,0.184,0.254,0.351,0.098,0.598c-0.166,0.263-0.334,0.523-0.499,0.789
		c-0.018,0.027-0.018,0.082,0.001,0.107c0.206,0.304,0.38,0.625,0.514,0.967c0.03,0.079,0.072,0.099,0.15,0.1
		c0.288,0.003,0.574,0.019,0.863,0.015c0.195-0.002,0.347,0.063,0.447,0.231c0.057,0.582,0.112,1.163,0.17,1.744
		c-0.067,0.19-0.207,0.281-0.401,0.316c-0.289,0.052-0.57,0.124-0.854,0.184c-0.063,0.012-0.093,0.038-0.104,0.104
		c-0.069,0.367-0.175,0.724-0.327,1.065c-0.021,0.046-0.015,0.073,0.021,0.109c0.23,0.236,0.459,0.477,0.686,0.715
		c0.143,0.146,0.154,0.344,0.025,0.501c-0.32,0.394-0.646,0.784-0.971,1.176c-0.138,0.166-0.328,0.192-0.509,0.075
		c-0.276-0.177-0.552-0.354-0.83-0.524c-0.026-0.017-0.082-0.018-0.107,0c-0.306,0.209-0.631,0.385-0.977,0.52
		c-0.064,0.024-0.088,0.059-0.089,0.127c-0.003,0.292-0.02,0.583-0.015,0.875c0.002,0.2-0.06,0.353-0.233,0.457
		c-0.581,0.056-1.163,0.113-1.743,0.17c-0.149-0.065-0.263-0.153-0.297-0.328c-0.062-0.313-0.136-0.621-0.203-0.931
		c-0.014-0.063-0.037-0.092-0.104-0.104c-0.367-0.066-0.723-0.175-1.067-0.322c-0.028-0.012-0.083-0.001-0.106,0.021
		c-0.244,0.228-0.483,0.458-0.726,0.689c-0.131,0.125-0.341,0.143-0.471,0.036c-0.4-0.327-0.801-0.656-1.2-0.986
		c-0.167-0.14-0.191-0.328-0.076-0.508c0.178-0.275,0.354-0.553,0.524-0.83c0.017-0.026,0.018-0.082-0.001-0.107
		c-0.21-0.31-0.384-0.638-0.522-0.985c-0.025-0.063-0.059-0.081-0.122-0.082c-0.295-0.004-0.59-0.019-0.885-0.015
		C54.716,91.123,54.567,91.058,54.466,90.889z M60.74,92.457c1.67-0.16,2.897-1.644,2.736-3.323
		c-0.157-1.643-1.593-2.901-3.32-2.739c-1.685,0.156-2.898,1.636-2.741,3.318C57.572,91.392,59.06,92.617,60.74,92.457z"/>
	<path fill="#20A091" stroke="#061333" stroke-width="0.5" stroke-miterlimit="10" d="M66.139,94.392
		c-0.043-0.325-0.088-0.65-0.131-0.978c0.033-0.108,0.109-0.162,0.221-0.187c0.16-0.035,0.318-0.081,0.478-0.121
		c0.034-0.009,0.054-0.023,0.058-0.061c0.029-0.208,0.084-0.411,0.16-0.606c0.006-0.017-0.002-0.046-0.017-0.06
		c-0.133-0.132-0.269-0.263-0.401-0.394c-0.072-0.07-0.088-0.189-0.029-0.265c0.179-0.232,0.354-0.467,0.533-0.698
		c0.069-0.091,0.18-0.109,0.277-0.052c0.159,0.096,0.32,0.188,0.48,0.283c0.022,0.016,0.039,0.014,0.063-0.003
		c0.167-0.127,0.35-0.23,0.541-0.316c0.035-0.016,0.045-0.035,0.045-0.07c-0.005-0.164-0.003-0.328-0.01-0.493
		c-0.006-0.112,0.025-0.2,0.121-0.261c0.324-0.044,0.65-0.088,0.977-0.132c0.105,0.033,0.161,0.106,0.187,0.214
		c0.034,0.163,0.083,0.322,0.122,0.482c0.01,0.034,0.021,0.051,0.062,0.057c0.207,0.031,0.41,0.084,0.604,0.161
		c0.018,0.007,0.049-0.002,0.061-0.015c0.135-0.131,0.262-0.265,0.393-0.397c0.08-0.082,0.188-0.093,0.279-0.023
		c0.219,0.164,0.438,0.329,0.653,0.494c0.131,0.099,0.147,0.192,0.065,0.334c-0.088,0.151-0.176,0.301-0.264,0.454
		c-0.01,0.016-0.009,0.046,0.002,0.06c0.123,0.167,0.229,0.345,0.311,0.534c0.02,0.043,0.041,0.054,0.087,0.053
		c0.161-0.004,0.323-0.001,0.485-0.01c0.109-0.005,0.194,0.028,0.256,0.122c0.045,0.326,0.088,0.651,0.134,0.978
		c-0.035,0.108-0.11,0.162-0.222,0.187c-0.162,0.035-0.316,0.081-0.478,0.121c-0.035,0.008-0.052,0.022-0.056,0.06
		c-0.031,0.209-0.084,0.411-0.164,0.606c-0.01,0.027-0.006,0.042,0.016,0.061c0.135,0.129,0.268,0.26,0.4,0.39
		c0.082,0.08,0.095,0.189,0.025,0.28c-0.175,0.229-0.35,0.454-0.522,0.682c-0.073,0.096-0.181,0.115-0.284,0.053
		c-0.159-0.094-0.318-0.188-0.479-0.278c-0.017-0.009-0.047-0.008-0.063,0.002c-0.167,0.124-0.348,0.229-0.538,0.313
		c-0.034,0.016-0.048,0.035-0.047,0.074c0.005,0.165,0.001,0.329,0.01,0.491c0.007,0.113-0.026,0.2-0.12,0.263
		c-0.326,0.043-0.652,0.088-0.979,0.131c-0.086-0.034-0.151-0.081-0.176-0.178c-0.039-0.175-0.09-0.348-0.133-0.521
		c-0.01-0.035-0.021-0.051-0.062-0.057c-0.208-0.03-0.41-0.084-0.606-0.159c-0.017-0.006-0.047,0.001-0.061,0.013
		c-0.133,0.133-0.262,0.269-0.393,0.403c-0.071,0.073-0.19,0.088-0.267,0.03c-0.229-0.177-0.463-0.353-0.692-0.53
		c-0.1-0.075-0.115-0.181-0.056-0.285c0.095-0.158,0.188-0.316,0.277-0.478c0.01-0.016,0.009-0.046-0.003-0.061
		c-0.123-0.169-0.229-0.351-0.313-0.543c-0.017-0.035-0.035-0.044-0.068-0.043c-0.166,0.004-0.332,0.002-0.498,0.01
		C66.285,94.52,66.2,94.486,66.139,94.392z M69.701,95.145c0.938-0.124,1.596-0.984,1.473-1.927
		c-0.123-0.921-0.957-1.599-1.927-1.472c-0.942,0.123-1.596,0.98-1.474,1.923C67.896,94.611,68.76,95.27,69.701,95.145z"/>
	<path fill="#20A091" stroke="#061333" stroke-width="0.5" stroke-miterlimit="10" d="M45.125,62.271c0-1.428,0-2.854,0-4.28
		c0.212-0.444,0.57-0.633,1.054-0.674c0.71-0.06,1.416-0.164,2.124-0.243c0.152-0.019,0.235-0.067,0.279-0.227
		c0.25-0.879,0.598-1.717,1.037-2.518c0.035-0.064,0.018-0.201-0.029-0.262c-0.494-0.646-1-1.287-1.503-1.93
		c-0.271-0.344-0.262-0.866,0.025-1.153c0.899-0.897,1.802-1.799,2.703-2.694c0.35-0.351,0.832-0.367,1.221-0.062
		c0.634,0.5,1.272,0.993,1.905,1.498c0.098,0.077,0.164,0.079,0.27,0.021c0.793-0.453,1.638-0.793,2.514-1.049
		c0.158-0.045,0.209-0.125,0.228-0.277c0.078-0.707,0.185-1.412,0.245-2.123c0.042-0.482,0.226-0.844,0.673-1.053
		c1.426,0,2.853,0,4.279,0c0.436,0.205,0.629,0.553,0.671,1.031c0.061,0.717,0.168,1.432,0.247,2.146
		c0.018,0.15,0.068,0.229,0.227,0.275c0.875,0.258,1.718,0.6,2.517,1.041c0.063,0.037,0.201,0.021,0.263-0.025
		c0.644-0.488,1.274-0.988,1.91-1.488c0.389-0.307,0.872-0.285,1.221,0.061c0.843,0.834,1.685,1.67,2.524,2.504
		c0.506,0.5,0.533,0.913,0.097,1.477c-0.465,0.603-0.938,1.195-1.397,1.802c-0.047,0.062-0.062,0.194-0.023,0.26
		c0.43,0.789,0.775,1.611,1.021,2.475c0.055,0.198,0.151,0.258,0.342,0.278c0.701,0.075,1.396,0.18,2.1,0.238
		c0.479,0.042,0.825,0.235,1.031,0.671c0,1.427,0,2.854,0,4.28c-0.211,0.444-0.569,0.634-1.055,0.673
		c-0.711,0.06-1.416,0.165-2.125,0.244c-0.151,0.016-0.229,0.069-0.274,0.228c-0.255,0.878-0.595,1.72-1.048,2.515
		c-0.061,0.107-0.051,0.175,0.025,0.271c0.504,0.631,0.998,1.268,1.498,1.902c0.305,0.39,0.295,0.871-0.058,1.224
		c-0.875,0.88-1.759,1.752-2.64,2.627c-0.373,0.371-0.842,0.389-1.256,0.063c-0.629-0.495-1.256-0.988-1.894-1.472
		c-0.062-0.046-0.194-0.062-0.263-0.025c-0.794,0.436-1.625,0.783-2.495,1.029c-0.163,0.046-0.229,0.121-0.247,0.29
		c-0.077,0.709-0.186,1.413-0.244,2.123c-0.041,0.486-0.229,0.844-0.676,1.055c-1.427,0-2.854,0-4.279,0
		c-0.346-0.191-0.602-0.434-0.644-0.868c-0.073-0.773-0.185-1.541-0.271-2.312c-0.02-0.156-0.068-0.231-0.229-0.278
		c-0.877-0.251-1.716-0.598-2.52-1.035c-0.065-0.036-0.2-0.022-0.26,0.021c-0.648,0.495-1.287,1-1.93,1.502
		c-0.348,0.272-0.863,0.268-1.152-0.021c-0.896-0.895-1.79-1.788-2.683-2.687c-0.375-0.376-0.389-0.844-0.064-1.254
		c0.498-0.627,0.99-1.257,1.474-1.893c0.045-0.062,0.061-0.195,0.023-0.262c-0.438-0.802-0.783-1.641-1.039-2.518
		c-0.046-0.159-0.124-0.211-0.276-0.228c-0.716-0.08-1.431-0.187-2.147-0.247C45.677,62.899,45.33,62.704,45.125,62.271z
		 M60.005,67.567c4.098,0.009,7.435-3.309,7.44-7.43c0.006-4.03-3.184-7.434-7.424-7.449c-4.131-0.016-7.434,3.29-7.449,7.419
		C52.554,64.229,55.883,67.56,60.005,67.567z"/>
</g>
<g id="Layer_28">
	<path fill="#444444" d="M68.315,42.375c0.021,0.01,0.04,0.02,0.061,0.02c1.74,0.88,3.13-1.79,1.39-2.67
		c-4.04-2.04-8.72-3.48-13.39-3.81c-1.98-0.14-3.96-0.08-5.88,0.22c-1.01-0.45-1.89-0.48-2.83-0.23c-0.08,0.02-0.15,0.05-0.23,0.07
		c-0.4,0.11-0.81,0.28-1.24,0.48c-0.05,0.02-0.1,0.05-0.15,0.09c-0.02,0.01-0.03,0.02-0.05,0.03c-0.06,0.04-0.11,0.1-0.16,0.15
		c-0.11,0.03-0.2,0.06-0.31,0.09c-0.01,0-0.01,0-0.01,0c-2.31,0.72-4.61,2.6-5.79,4.34c0,0.01,0,0.01-0.01,0.01c0,0,0,0,0,0.01
		c-0.13,0.18-0.25,0.37-0.35,0.56c-0.09,0.15-0.11,0.31-0.12,0.46c-0.08,0.2-0.14,0.4-0.19,0.6c-0.39,0.16-0.73,0.5-0.82,1.08
		c-0.13,2.62-1.73,4.79-2.01,7.4c-0.05,0.42,0.09,0.98,0.24,1.45c-0.46,1.16-0.71,2.44-0.61,3.64v0.05
		c0.06,0.66,0.23,1.29,0.53,1.85v0.04c0.03,0.33,0.06,0.66,0.1,0.98c-0.16,0.07-0.32,0.149-0.47,0.24
		c-0.02,0.01-0.05,0.029-0.07,0.04c-0.01,0.859-0.05,1.72,0.05,2.56c0.13,0.52,0.21,1.03,0.26,1.56c0.03,0.29,0,0.551-0.07,0.771
		c0.14,0.25,0.28,0.49,0.41,0.74c0.39,1.52,1.08,2.979,2.14,4.1c0.44,0.75,0.91,1.47,1.48,2.17c0.11,0.15,0.24,0.3,0.37,0.45
		c0.07,0.14,0.17,0.29,0.31,0.44c0.66,0.689,1.35,1.359,2.03,2.039c0.36,0.421,0.74,0.801,1.17,1.19c0.19,0.18,0.41,0.271,0.63,0.32
		c0.03,0.029,0.06,0.06,0.09,0.09c0.03,0.02,0.05,0.04,0.08,0.06c0.07,0.351,0.14,0.7,0.21,1.051c0.21,1.069,0.45,2.13,0.79,3.149
		c-0.08,0.11-0.15,0.23-0.18,0.37c-0.07,0.2-0.09,0.43-0.03,0.66c-0.03,0.17-0.05,0.34-0.06,0.54c0,0.2,0.04,0.39,0.1,0.569
		c-0.11,0.841-0.14,1.48-0.11,2.48h-0.01c-0.1,0-0.2-0.05-0.29-0.03c-0.86,0.08-1.72,0.15-2.58,0.311
		c-1.06-0.15-2.12-0.32-3.21-0.32c-1.86,0-3.7,0.06-5.54,0.12c-0.25-0.14-0.53-0.24-0.88-0.25c-1.74-0.04-3.46,0.04-5.2,0.11
		c0.55,1.069,1.12,2.14,1.69,3.199c0.05,0.091-0.187,0.12-0.137,0.22c0.03,0.051,0.357,0.171,0.387,0.221l21.07,12.189
		c0.31-0.31,0.58-0.63,0.84-1c0.35-0.3,0.69-0.609,1.02-0.939c0.02-0.021,0.04-0.04,0.05-0.061c0.15-0.159,0.3-0.319,0.46-0.479
		c0.02-0.021,0.04-0.05,0.07-0.07c0.84-0.91,1.56-1.93,2.1-3.04c0.1-0.199,0.15-0.399,0.16-0.59c0.14-0.18,0.29-0.35,0.43-0.53
		c0.01-0.01,0.01-0.02,0.02-0.02c0.1-0.06,0.21-0.12,0.3-0.2c0.65-0.609,0.89-1.37,1.24-2.12c0.03-0.05,0.08-0.1,0.11-0.149
		c0.01-0.011,0.02-0.021,0.02-0.03c0.68-0.76,1.29-1.53,1.77-2.42c0.12-0.03,0.24-0.061,0.34-0.11c0.43-0.22,0.72-0.6,0.99-0.979
		c0.18-0.25,0.29-0.601,0.28-0.931c0-0.069,0-0.14-0.02-0.21c0.12-0.01,0.23-0.04,0.33-0.09h0.01c1.14-0.42,1.09-2.319-0.11-2.75
		c-0.09-0.03-0.18-0.05-0.28-0.069c-0.97-0.141-1.83,0.09-2.71,0.329c-0.01,0.011-0.01,0-0.01,0c-0.16,0.051-0.32,0.101-0.48,0.141
		c0.01-0.07,0.03-0.13,0.03-0.2c0.34-1.86,0.2-3.81-0.3-5.63c-0.03-0.11-0.09-0.19-0.14-0.29c0.14-0.09,0.27-0.19,0.4-0.3
		c0.16-0.141,0.28-0.28,0.37-0.44c0.48-0.33,0.95-0.67,1.41-1.03c0.05-0.02,0.1-0.029,0.15-0.05c0.06-0.02,0.12-0.029,0.18-0.04
		c0.28-0.069,0.49-0.189,0.66-0.359c0.24-0.16,0.47-0.391,0.69-0.73c0.74-0.54,1.46-1.1,2.14-1.75c1.78-1.67,2.86-4.45,3.91-6.939
		c0.17-0.15,0.32-0.36,0.43-0.631c0.271-0.67,0.551-1.34,0.83-2c0.091-0.21,0.181-0.409,0.271-0.619c0.11-0.25,0.14-0.49,0.11-0.71
		c0.069-0.19,0.13-0.37,0.18-0.561c0.109-0.39,0.18-0.78,0.229-1.17c0.04-0.15,0.061-0.3,0.04-0.43c0.04-0.561,0.03-1.12-0.029-1.69
		c0.27-3.51-0.65-6.57-1.95-10.13c0.02-0.38-0.05-0.79-0.22-1.15c-0.311-0.67-0.971-1.08-1.421-1.64c-0.1-0.13-0.22-0.23-0.359-0.3
		C66.626,44.635,67.656,43.515,68.315,42.375z M64.256,61.835c-0.26,0.21-0.53,0.42-0.81,0.63c-0.24,0.19-0.49,0.37-0.74,0.55
		c-0.38,0.21-0.76,0.41-1.14,0.62c-0.11-0.02-0.22-0.02-0.33-0.02c-0.31,0.02-0.6,0.029-0.9,0.05c-0.02-0.01-0.04-0.021-0.07-0.04
		c-0.85-0.4-1.73-0.67-2.66-0.8c-0.14-0.03-0.27-0.021-0.4-0.021c-0.11-0.08-0.24-0.149-0.38-0.199c-0.77-0.29-1.54-0.57-2.31-0.86
		c-0.17-0.061-0.34-0.13-0.51-0.19c-0.12-0.05-0.25-0.08-0.37-0.09c0,0,0,0-0.01,0c-0.33-0.04-0.65,0.04-0.95,0.19
		c-1.26-0.16-2.46-0.24-3.77,0.069c-2.86,0.681-6.4,2.311-8.2-0.1v-0.01c-0.02-0.021-0.03-0.04-0.04-0.061
		c-0.01-0.01-0.01-0.02,0-0.02c-0.01-0.01-0.01-0.01-0.01-0.01c-0.06-0.08-0.11-0.141-0.16-0.23c-0.01,0-0.02-0.01-0.01-0.02
		c-0.09-0.131-0.16-0.271-0.23-0.42c-0.05-0.131-0.11-0.261-0.16-0.4c-0.03-0.11-0.06-0.2-0.08-0.311c0-0.01,0-0.01,0-0.01
		c-0.12-0.479-0.22-0.97-0.31-1.439c0.05-0.15,0.07-0.32,0.05-0.49c-0.07-0.99,0.06-1.94,0.08-2.91c0.01-0.21,0.02-0.42,0.01-0.64
		v-0.08c0-0.17-0.01-0.33-0.04-0.49c0.35-0.01,0.69-0.02,1.02-0.06c0.13,0,0.26-0.02,0.39-0.03c0.35-0.03,0.69-0.05,1.05-0.07h0.07
		c0.42,0.09,0.85,0.16,1.28,0.21c0.04,0.01,0.09,0.02,0.14,0.03h0.05c0.01-0.01,0.01-0.01,0.02,0c0.96,0.11,1.96,0.14,2.95,0.11
		h0.04c1.74-0.05,3.46-0.25,5.01-0.46c0.23-0.03,0.41-0.11,0.57-0.22c3.25,0.16,6.54,0.05,9.78,0.02c0.18,0.19,0.34,0.33,0.56,0.47
		c0.01-0.01,0.02-0.01,0.03,0c0.21,0.12,0.44,0.2,0.69,0.24c0.15,0.02,0.31,0.03,0.49,0.01h0.01c0.07,0,0.14-0.01,0.22-0.02
		c0.02,0,0.04,0,0.06-0.01c0.01-0.01,0.01-0.01,0.01,0c0.08-0.01,0.15-0.04,0.23-0.06c0,0.09,0.01,0.19,0.02,0.28c0,0,0.01,0,0,0.01
		c0,0.15,0.01,0.29,0.02,0.43c0,0.08,0.01,0.15,0.01,0.22c0.08,1.39,0.19,2.77,0.271,4.16c0.04,0.641,0,1.351,0.02,2.04
		C64.626,61.535,64.446,61.685,64.256,61.835z"/>
	<path fill="#444444" d="M81.065,99.525l-0.05,0.029l-4.22,2.44l-11.771,6.8l-3.89-2.25l-0.68-0.39l-0.11-0.07
		c0.55-0.91,2.05-3.16,3.11-4.67c0.02-0.021,0.03-0.04,0.05-0.06c0.48-0.681,0.87-1.2,1.02-1.37c0.24-0.811,0.73-1.5,1.33-2.12
		c0.07-0.07,0.181-0.16,0.29-0.26c0.011-0.091,0.021-0.181,0.051-0.271c0.119-0.43,0.279-0.86,0.47-1.27
		c0.01-0.021,0.02-0.051,0.03-0.07c0.18-0.32,0.35-0.63,0.51-0.95c0-0.01,0.01-0.02,0.01-0.03c0.2-0.319,0.42-0.63,0.65-0.93
		c0.229-0.65,0.59-1.15,1.06-1.62c-0.13-0.55-0.1-1.109,0.18-1.71c0.53-1.149,1.12-2.14,1.471-3.29c0.13-0.35,0.22-0.72,0.27-1.109
		c0.05-0.15,0.07-0.301,0.07-0.461v-0.029c0.03-0.3,0.14-0.55,0.3-0.74c0.09-0.1,0.19-0.19,0.3-0.26c0.471-0.29,1.12-0.32,1.62-0.07
		c0.41,0.021,0.8,0.18,1.05,0.51c0.04,0.03,0.07,0.07,0.09,0.101c0.091,0,0.19,0.02,0.29,0.04c0.131,0.029,0.271,0.08,0.41,0.16
		c0.54,0.3,1.07,0.63,1.61,0.93c0.45,0.26,0.7,0.63,0.8,1.03c0.3,0.119,0.561,0.34,0.75,0.71c0.95,1.949,1.51,4.029,2.57,5.93
		c0.35,0.64,0.16,1.27-0.26,1.71c-0.11,0.12-0.23,0.22-0.36,0.3c0.03,0.061,0.06,0.12,0.08,0.19c0.25,0.97,0.52,1.91,0.81,2.84
		C81.006,99.345,81.036,99.435,81.065,99.525z"/>
	<path fill="#707070" d="M49.933,76.904c-4.29-1.94-7.313-7.385-8.72-11.668c-1.081-3.293-0.291-7.404-0.38-10.826
		c-0.121-4.638,0.383-9.535,3.391-13.209c0.329-0.401,0.723-0.752,1.16-1.066c0.169-0.217,0.406-0.409,0.738-0.55
		c0.302-0.127,0.603-0.253,0.903-0.379c0.544-0.427,1.177-0.802,1.915-1.127c2.376-1.047,4.901-1.792,7.487-2.047
		c-0.126-0.406-0.426-0.748-0.928-0.807c-10.71-1.266-17.488,5.581-18.161,15.853c-0.002,0.029-0.003,0.06-0.005,0.089
		c-0.358,0.129-0.649,0.44-0.734,0.968c-0.226,1.418-0.623,2.796-0.747,4.228c-0.173,1.998,0.372,4.035,0.608,6.019
		c0.286,2.394,0.826,5.87,2.947,7.351c1.75,4.236,4.742,7.711,9.716,9.353C50.38,79.495,51.131,77.445,49.933,76.904z"/>
	<path fill="#707070" d="M47.417,81.591c-0.182-1.106-1.728-1.528-2.243-0.399c-0.472,1.035-0.559,2.158-0.647,3.271
		c-0.213,0.104-0.406,0.262-0.561,0.451c-2.27-0.495-4.51-0.419-6.855-0.416c-3.037,0.003-10.802-0.283-13.813,0.211
		c1.229,0.792,4.947,2.748,6.193,3.572c0.054,0.098-0.054-0.099,0,0c5.369,0.11,11.014,0.563,16.374,0.477
		c0.811-0.013,1.689-0.893,1.524-1.738c-0.038-0.199-0.076-0.369-0.113-0.527c0.167-0.488,0.175-1.057,0.212-1.555
		C47.568,83.82,47.598,82.697,47.417,81.591z"/>
	<path fill="#282828" d="M60.117,84.243c-0.551-0.003-1.101-0.013-1.651-0.04c-0.237-0.014-0.47-0.051-0.704-0.09
		c-0.095-0.658,0.001-1.467-0.003-2.084c-0.008-0.987-0.23-1.863-0.371-2.824c-0.196-1.34-2.223-1.066-2.292,0.213
		c-0.08,1.501-0.199,2.975-0.207,4.484c-0.004,0.752,0.043,1.769,0.659,2.313c1.249,1.108,3.27,0.946,4.838,0.957
		C62.279,87.188,62.005,84.247,60.117,84.243z"/>
	<path fill="#282828" d="M81.016,99.555l-4.22,2.44h-0.36c-0.31-2.26,0.101-4.58-0.35-6.851c-0.51-2.569-1.85-4.75-3.44-6.789
		c-0.439-0.23-0.939-0.431-1.52-0.58c-0.12-0.03-0.23-0.08-0.33-0.141c-0.08-0.05-0.16-0.1-0.22-0.17c-0.11-0.1-0.2-0.22-0.25-0.35
		c-0.32-0.62-0.181-1.471,0.439-1.84c0.12-0.07,0.26-0.12,0.42-0.15h0.03c0.1-0.02,0.2-0.04,0.29-0.05
		c0.99-0.13,1.88-0.04,2.68,0.229c0.13,0.03,0.261,0.08,0.38,0.141c0.94,0.39,1.74,1.04,2.431,1.859
		c0.87,0.54,1.569,1.351,1.52,2.41c0.91,1.88,1.521,4.08,1.931,6.2c0.229,1.16,0.399,2.29,0.529,3.33
		C80.996,99.345,81.006,99.455,81.016,99.555z"/>
	<path fill="#ED1429" d="M70.916,85.865v0.029c-0.021,0.16-0.04,0.311-0.07,0.461c-0.07,0.239-0.2,0.47-0.42,0.659
		c-0.04,0.03-0.07,0.07-0.1,0.101c-0.92,0.939-0.99,2.79-1.511,3.97c-0.04,0.09-0.09,0.17-0.13,0.26c-0.31,1.3-0.85,2.49-1.47,3.67
		c0,0.011-0.01,0.021-0.01,0.03c-0.16,0.32-0.33,0.63-0.51,0.95c-0.011,0.02-0.021,0.05-0.03,0.07c-0.03,0.06-0.07,0.119-0.101,0.18
		c-0.18,0.34-0.439,0.57-0.729,0.71c-0.3,0.82-1.25,2.57-2.33,4.4c-0.02,0.02-0.03,0.039-0.05,0.06c-1.04,1.75-2.2,3.58-3,4.74
		l-0.11-0.07l-0.38-0.21l-8.76-5.07c0.47-0.77,0.99-1.46,1.57-2.1c0.02-0.021,0.04-0.04,0.05-0.061c0.15-0.159,0.3-0.319,0.46-0.479
		c0.02-0.021,0.04-0.05,0.07-0.07c0.29-0.29,0.59-0.58,0.91-0.859c0.05-0.08,0.09-0.17,0.16-0.25c1.04-1.391,2.21-2.66,3.35-3.971
		c0-0.359,0.12-0.729,0.42-1.06c1.36-1.5,2.03-3.311,3.49-4.69c0.26-0.56,0.53-1.109,0.89-1.6c0.07-0.39,0.33-0.72,0.79-0.83
		c0.03-0.02,0.05-0.05,0.08-0.07c0.27-0.189,0.58-0.27,0.89-0.26h0.01c0.17,0.01,0.32,0.04,0.49,0.101c0.01,0,0.02,0,0.02,0
		c0.16,0.05,0.32,0.13,0.45,0.229c0.73-0.01,1.44-0.07,2.16-0.19c0.5-0.079,1.01-0.18,1.53-0.31c0.08-0.02,0.149-0.03,0.22-0.04
		c0,0,0,0,0.01,0c0.391-0.04,0.74,0.08,1.021,0.3c0.229,0.17,0.41,0.41,0.52,0.681C70.855,85.465,70.906,85.665,70.916,85.865z"/>
	<path fill="#ED1429" d="M91.215,71.46c0-0.625-0.143-1.386-0.463-2.354c-0.328-0.986-1.271-1.438-2.232-0.996
		c-2.191,1.006-4.595,0.463-6.912,0.461c-0.205,0-0.388,0.035-0.558,0.088c-0.451-0.162-0.924-0.275-1.407-0.372
		c-0.426-0.328-0.906-0.569-1.395-0.794c-0.504-0.23-1.018-0.438-1.532-0.643c-0.213-0.49-0.663-0.906-1.011-1.226
		c-0.364-0.335-0.827-0.585-1.247-0.843c-0.005-0.002-0.011-0.004-0.015-0.006c-0.074-0.192-0.199-0.394-0.326-0.547
		c-0.353-0.435-0.885-0.586-1.26-0.984c-0.125-0.133-0.271-0.229-0.428-0.303c0.094-0.795-0.355-1.646-1.389-1.646
		c-0.2,0-0.372,0.042-0.532,0.1c-0.051-0.004-0.097-0.024-0.147-0.024c-0.439,0-0.816,0.271-1.024,0.638
		c-1.071,0.139-1.319,2.051-0.123,2.342c2.369,0.574,2.985,2.162,4.071,4.049c1.041,1.809,2.768,3.338,4.531,4.414
		c1.703,1.041,3.428,1.525,5.205,1.68c0.2,0.197,0.443,0.328,0.715,0.404c0.467,0.205,0.97,0.271,1.427,0.102
		c0.444,0.292,1.028,0.4,1.505,0.208c1.133-0.457,2.104-0.804,2.857-1.204c0.006-0.002,0.015-0.003,0.021-0.005
		c0.108-0.024,0.938-0.179,0.459-0.12C91.322,73.714,91.766,72.286,91.215,71.46z"/>
	<path fill="#ED1429" d="M95.01,54.358c-0.13-0.504-0.396-1.574-0.492-2.464c0.324-0.254,0.545-0.641,0.532-1.141
		c-0.004-0.102-0.005-0.204-0.002-0.306c0.005-0.681-0.513-1.278-1.159-1.417c-0.137-0.706-0.697-1.292-1.558-1.037
		c-0.315,0.093-0.622,0.198-0.923,0.311c-0.028-0.007-0.049-0.027-0.077-0.032c-0.61-0.111-1.312-0.391-1.873,0.038
		c-0.419,0.32-0.897,0.659-1.093,1.172c-0.043,0.112-0.076,0.234-0.102,0.36c-0.004,0.002-0.008,0.003-0.012,0.005
		c-0.254,0.124-0.441,0.299-0.581,0.5c-1.362,1.009-2.574,2.23-3.681,3.597c-1.057,0.894-1.988,1.955-3.07,2.869
		c-1.271,1.072-3.188,1.692-5.072,1.756c-0.211-0.057-0.41-0.045-0.598,0.013c-0.301-0.011-0.598-0.04-0.889-0.08
		c-0.076-0.11-0.164-0.217-0.271-0.301c-0.434-0.332-0.874-0.277-1.342-0.128c-0.395-0.156-0.77-0.34-1.102-0.577
		c-0.076-0.056-0.152-0.097-0.229-0.132c-0.191-0.221-0.479-0.366-0.857-0.366c-0.896,0-1.229,0.821-1.043,1.491
		c-0.104,0.42-0.02,0.863,0.381,1.195c1.687,1.398,3.248,1.666,5.072,1.586c0.208,0.213,0.473,0.371,0.807,0.414
		c0.222,0.029,0.441,0.043,0.664,0.043c1.84,0.604,4.045,0.508,5.709-0.256c0.521-0.24,0.726-0.711,0.713-1.193
		c2.416-0.904,4.688-2.209,6.746-3.834c0.586-0.463,1.233-0.582,1.89-0.666c0.403,0.671,1.478,0.908,2.101,0.423
		c0.092-0.064,0.168-0.146,0.256-0.219C94.602,55.868,95.244,55.27,95.01,54.358z"/>
	<path fill="#FCC106" d="M72.42,74.859c-0.197-0.051-0.396-0.072-0.596-0.078c-0.062-0.014-0.119-0.008-0.18-0.012
		c-0.093-0.062-0.188-0.108-0.291-0.146c-0.189-0.079-0.396-0.121-0.604-0.107c-0.759,0.047-1.3,0.691-1.294,1.43
		c-0.194,0.256-0.362,0.531-0.463,0.851c-0.28,0.901-0.361,1.785-0.75,2.651c-0.438,0.984-0.93,1.914-1.619,2.744
		c-0.825,0.992-0.245,2.453,1.089,2.479c1.565,0.032,2.688-1.126,3.286-2.485c0.126-0.285,0.251-0.584,0.376-0.881
		c0.474-0.275,0.873-0.664,1.047-1.211c0.183-0.57,0.071-1.287,0.41-1.736C73.585,77.346,74.223,75.326,72.42,74.859z"/>
	<path fill="#282828" d="M65.333,81.857c-1.37-0.264-2.286-0.664-3.69-0.49c-1.448,0.179-1.499,2.592,0.014,2.605
		c1.011,0.012,1.891,0.323,2.855,0.584C66.287,85.035,67.094,82.197,65.333,81.857z"/>
	<path fill="#F4D192" d="M64.324,57.212c0.078-0.298,0.146-0.606,0.158-0.97c0.038-1.192-0.097-0.537-0.307-1.625
		c-0.076-0.396-0.576-0.449-0.835-0.221c-0.101,0.078-0.202,0.155-0.303,0.233c-0.083-0.09-0.351-0.146-0.496-0.129
		c-0.045,0.005-0.285,0.015-0.285,0.021v-0.002c0,0.015-0.07,0.026-0.182,0.041c-0.029-0.014,0.023-0.032-0.012-0.041
		c-1.016-0.262-1.985-0.313-2.992-0.271c-0.945-0.039-1.87,0-2.812,0.104c-0.715-0.181-1.537-0.106-2.226-0.104
		c-1.042,0.003-2.074,0.073-3.111,0.145c-1.41-0.065-2.817-0.089-4.172,0.048c-0.068-0.038-0.146-0.065-0.244-0.066
		c-0.953-0.007-1.869-0.207-2.799-0.086c-0.078-0.113-0.203-0.414-0.387-0.414h-0.938c-0.154,0-0.273,0.29-0.357,0.391
		c-0.161,0.041-0.324,0.198-0.495,0.258c-0.063-0.038-0.125-0.045-0.187-0.052c-0.059-0.072-0.14-0.157-0.266-0.176
		c-0.185-0.028-0.331-0.069-0.516-0.014c-0.386,0.115-0.529,0.711-0.12,0.907c0.003,0.001,0.008-0.001,0.011,0
		c-0.283,0.444-0.244,1.038-0.198,1.565c0.087,0.996-0.175,2.03-0.056,3.012c0,0.016-0.003,0.109-0.003,0.109h0.008
		c0.006,0,0.002,0.025,0.009,0.068c-0.194,0.125-0.321,0.354-0.201,0.637c0.339,0.805,0.935,1.074,1.68,1.484
		c0.23,0.127,0.45,0.063,0.589-0.08c0.193,0.109,0.429,0.188,0.696,0.25c0.104,0.168,0.293,0.289,0.539,0.248
		c0.235-0.053,0.46-0.104,0.678-0.153c0.454-0.11,0.906-0.226,1.361-0.339c0.312-0.036,0.628-0.096,0.961-0.195
		c0.033-0.01,0.044-0.035,0.073-0.049c0.403-0.039,0.798-0.146,1.24-0.326c0.148-0.061,0.244-0.174,0.298-0.301
		c1.064-0.195,2.131-0.376,3.2-0.549c0.151,0.119,0.365,0.158,0.559,0.049c0.013-0.008,0.022-0.016,0.034-0.021
		c0.686,0.244,1.609,0.907,2.218,1.063c1.008,0.258,2.051,0.243,3.05,0.571c0.178,0.047,0.321,0.002,0.425-0.084
		c0.037,0.061,0.081,0.115,0.143,0.158c1.001,0.68,2.754,0.51,3.862,0.236c0.174-0.042,0.396-0.122,0.604-0.234
		c0.066,0.037,0.139,0.063,0.224,0.064c0.811,0.016,1.308-0.195,1.562-0.914c0.209-0.043,0.405-0.193,0.438-0.461
		c0.064-1.124,0.121-2.249,0.125-3.375C64.568,57.419,64.464,57.286,64.324,57.212z"/>
	<path fill="#CEA76A" d="M64.139,54.268c-0.835-0.176-1.522-0.255-2.383-0.143c-0.053,0.007-0.101,0.026-0.147,0.048
		c-0.388,0-0.776,0-1.166,0.014c-0.121,0.004-0.215,0.047-0.292,0.105c-1.392-0.021-2.78-0.041-4.169,0.014
		c-0.031-0.013-0.057-0.029-0.093-0.039c-0.455-0.125-1.293,0.065-1.811,0.161c-0.123-0.024-0.247-0.036-0.371-0.053
		c-0.135-0.041-0.263-0.102-0.386-0.183c-0.237-0.138-0.458-0.058-0.598,0.101c-0.904-0.021-1.82,0.038-2.713-0.05
		c-0.464-0.045-0.902,0.028-1.177,0.258c-2.371-0.284-4.988-0.602-7.157-0.032c-0.117-0.003-0.234-0.005-0.351-0.008
		c-0.151-0.082-0.339-0.086-0.494-0.011c-0.213-0.004-0.426-0.009-0.638-0.014c-0.476-0.011-0.608,0.535-0.354,0.854
		c0.083,0.104,0.01,0.208,0.094,0.313c0.145,0.181,0.323,0.198,0.323,0.131v5.141c0,1,1,1,1,0v-5.317
		c1,0.074,1.357,0.141,2.094,0.067c1.037-0.104,2.143-0.194,3.177-0.221c0.673,0.044,1.386,0.086,2.059,0.128
		c0.153,0.365,0.652,0.33,0.861,0.053c0.888,0.054,1.88,0.107,2.768,0.168c3.624,0.251,7.041,0.084,11.041,0.018v6.104c0,1,1,1,1,0
		v-6.14c0-0.05,0.425-0.462,0.223-0.699C64.67,54.775,64.542,54.353,64.139,54.268z"/>
</g>
<g id="Layer_27">
	<g>
		<g>
			<path fill="#040830" d="M45.986,84.685c0,0.29-0.2,0.58-0.6,0.58h-21.06l-1.2-0.689c0.04-0.25,0.24-0.47,0.58-0.47h21.68
				c0.2,0,0.35,0.069,0.45,0.18C45.936,84.395,45.986,84.535,45.986,84.685z"/>
		</g>
	</g>
	<g>
		<g>
			<path fill="#040830" d="M45.013,78.053c0,2.096,0,4.19,0,6.286c0,0.646,1,0.646,1,0c0-2.096,0-4.19,0-6.286
				C46.013,77.408,45.013,77.408,45.013,78.053L45.013,78.053z"/>
		</g>
	</g>
	<g>
		<g>
			<path fill="#040830" d="M57.272,78.367c0,1.746,0,3.492,0,5.238c0,0.645,1,0.645,1,0c0-1.746,0-3.492,0-5.238
				C58.272,77.723,57.272,77.723,57.272,78.367L57.272,78.367z"/>
		</g>
	</g>
	<g>
		<g>
			<path fill="#040830" d="M57.563,84.943c5.134,0,10.269,0,15.402,0c0.645,0,0.645-1,0-1c-5.134,0-10.268,0-15.402,0
				C56.918,83.943,56.918,84.943,57.563,84.943L57.563,84.943z"/>
		</g>
	</g>
	<g>
		<path fill="#040830" d="M66.348,44.148c-0.188,0.407-0.472,0.77-0.824,1.055c2.029,3.468,3.25,7.759,3.25,12.418
			c0,11.438-7.262,20.746-16.188,20.746c-8.926,0-16.188-9.309-16.188-20.746c0-2.189,0.27-4.297,0.763-6.279
			c-0.18-0.336-0.292-0.736-0.292-1.213v-0.837c0-0.082,0.017-0.151,0.023-0.227c0.006-0.101,0.017-0.197,0.028-0.289
			c0-0.002,0-0.006,0.001-0.008c-0.01-0.154-0.011-0.306,0.005-0.445c-0.019-0.065-0.036-0.131-0.054-0.197
			c-1.098,2.879-1.732,6.092-1.732,9.496c0,12.133,7.826,22.003,17.445,22.003c9.619,0,17.446-9.87,17.446-22.003
			C70.031,52.544,68.646,47.876,66.348,44.148z"/>
	</g>
	<g>
		<g>
			<path fill="#040830" d="M39.751,54.454c8.233,0,16.466,0,24.699,0c0.645,0,0.645-1,0-1c-0.27,0-0.54,0-0.81,0
				c-0.645,0-0.645,1,0,1c0.27,0,0.54,0,0.81,0c0.645,0,0.645-1,0-1c-8.233,0-16.466,0-24.699,0
				C39.106,53.454,39.106,54.454,39.751,54.454L39.751,54.454z"/>
		</g>
	</g>
	<g>
		<g>
			<path fill="#040830" d="M39.461,54.478c0,2.27,0,4.54,0,6.81c0,0.646,1,0.646,1,0c0-2.271,0-4.54,0-6.81
				C40.461,53.833,39.461,53.833,39.461,54.478L39.461,54.478z"/>
		</g>
	</g>
	<g>
		<g>
			<path fill="#040830" d="M39.816,61.747c1.295,1.272,2.829,1.751,4.642,1.396c3.122-0.608,5.672-2.117,8.936-1.304
				c3.84,0.959,8.531,3.671,11.752-0.302c0.4-0.496-0.303-1.208-0.708-0.707c-3.205,3.951-8.332,0.443-12.14-0.249
				c-3.865-0.702-8.5,3.681-11.776,0.458C40.063,60.588,39.356,61.295,39.816,61.747L39.816,61.747z"/>
		</g>
	</g>
	<g>
		<g>
			<path fill="#040830" d="M65.292,60.988c0-2.344,0-4.689,0-7.035c0-0.645-1-0.645-1,0c0,2.345,0,4.691,0,7.035
				C64.292,61.634,65.292,61.634,65.292,60.988L65.292,60.988z"/>
		</g>
	</g>
	<g>
		<g>
			<path fill="#040830" d="M42.789,56.55c2.272-0.132,4.376,0.669,6.601,0.942c0.639,0.078,0.631-0.924,0-1
				c-2.233-0.273-4.317-1.075-6.601-0.942C42.148,55.587,42.145,56.587,42.789,56.55L42.789,56.55z"/>
		</g>
	</g>
	<g>
		<g>
			<path fill="#040830" d="M43.931,56.702c-0.215,1.497,0.72,2.44,2.193,2.505c1.171,0.05,2.618-0.563,2.77-1.848
				c0.076-0.641-0.925-0.633-1,0c-0.076,0.639-1.155,0.826-1.643,0.848c-0.796,0.033-1.482-0.363-1.357-1.238
				C44.985,56.338,44.022,56.064,43.931,56.702L43.931,56.702z"/>
		</g>
	</g>
	<g>
		<g>
			<path fill="#040830" d="M45.291,57.055c-0.24,0.418-0.51,1.08,0.019,1.411c0.365,0.229,0.825,0.046,1.167-0.134
				c0.327-0.171,0.721-0.454,0.833-0.825c0.169-0.555-0.36-0.842-0.831-0.825c-0.484,0.02-1.628,0.164-1.424,0.904
				c0.151,0.549,1.038,0.589,1.487,0.652c0.453,0.064,1.364,0.283,1.364-0.467c0-0.887-1.243-1.188-1.898-0.947
				c-0.43,0.158-0.522,0.851,0,0.965c0.586,0.128,1.475,0.333,1.576-0.482c0.022-0.176-0.113-0.342-0.248-0.432
				c-0.727-0.482-1.614-0.544-2.429-0.262c-0.291,0.103-0.485,0.449-0.299,0.734c0.133,0.207,0.292,0.428,0.543,0.496
				c0.092,0.024,0.181,0.037,0.276,0.038c0.008,0,0.357-0.008,0.107-0.042c0.63,0.085,0.902-0.878,0.266-0.965
				c-0.083-0.012-0.162-0.027-0.245-0.02c-0.334,0.043-0.069,0.01-0.084-0.015c-0.1,0.244-0.199,0.489-0.299,0.734
				c0.583-0.203,1.135-0.188,1.658,0.159c-0.083-0.146-0.165-0.289-0.248-0.432c-0.002,0.018-0.004,0.033-0.006,0.053
				c0.049-0.119,0.098-0.235,0.146-0.354c-0.016,0.019-0.031,0.034-0.046,0.052c0.118-0.049,0.236-0.098,0.354-0.146
				c-0.255-0.006-0.509-0.031-0.758-0.086c0,0.32,0,0.644,0,0.965c0.187-0.068,0.329-0.1,0.511-0.006
				c0.041,0.021,0.102,0.062,0.132,0.102c-0.122-0.164,0.663-0.537,0.384-0.556c-0.25-0.017-0.5-0.054-0.748-0.093
				c-0.205-0.031-0.621-0.114-0.7-0.154c0.911,0.456-0.307,0.811,0.053,0.707c0.103-0.03,0.21-0.051,0.315-0.071
				c0.124-0.024,0.243-0.039,0.369-0.036c0.065,0.004,0.063,0.004-0.007-0.003c-0.194-0.04-0.258-0.301-0.231-0.462
				c0.01-0.063,0.054-0.078-0.018-0.004c-0.099,0.102-0.218,0.18-0.408,0.279c-0.117,0.062-0.023,0.02-0.141,0.059
				c-0.137,0.047-0.115,0.018-0.019,0.032c0.102,0.017,0.193,0.149,0.22,0.229c0.01,0.03-0.015,0.188,0.011,0.073
				c0.026-0.116,0.095-0.226,0.155-0.327C46.475,56.998,45.611,56.495,45.291,57.055L45.291,57.055z"/>
		</g>
	</g>
	<g>
		<g>
			<path fill="#040830" d="M61.964,55.55c-2.284-0.132-4.368,0.669-6.601,0.942c-0.631,0.076-0.639,1.078,0,1
				c2.225-0.273,4.328-1.074,6.601-0.942C62.608,56.587,62.605,55.587,61.964,55.55L61.964,55.55z"/>
		</g>
	</g>
	<g>
		<g>
			<path fill="#040830" d="M59.857,56.969c0.129,0.9-0.564,1.238-1.356,1.238c-0.485,0-1.568-0.223-1.643-0.848
				c-0.075-0.633-1.076-0.641-1,0c0.157,1.32,1.595,1.848,2.77,1.848c1.481,0,2.401-1.057,2.193-2.505
				C60.73,56.064,59.766,56.337,59.857,56.969L59.857,56.969z"/>
		</g>
	</g>
	<g>
		<g>
			<path fill="#040830" d="M58.598,57.559c0.052,0.092,0.105,0.182,0.14,0.279c0.01,0.027,0.022,0.171,0.015,0.044
				c-0.005-0.106,0.076-0.212,0.163-0.267c0.103-0.063,0.221-0.02,0.09-0.053c-0.138-0.035-0.075-0.02-0.181-0.07
				c-0.164-0.081-0.308-0.188-0.377-0.25c-0.03-0.027-0.057-0.057-0.084-0.088c0.079,0.089,0.02,0.021,0.004-0.008
				c0.094,0.174,0.025,0.397-0.138,0.504c-0.027,0.017-0.187,0.037-0.068,0.029c0.224-0.016,0.596,0.055,0.742,0.12
				c-0.002-0.239-0.004-0.479-0.005-0.72c0.052-0.02,0.045-0.018-0.02,0.007c-0.064,0.021-0.13,0.038-0.195,0.056
				c-0.16,0.041-0.323,0.065-0.485,0.094c-0.236,0.039-0.474,0.068-0.712,0.09c-0.311,0.027,0.205,0.66,0.4,0.509
				c0.192-0.147,0.376-0.125,0.593-0.046c0-0.32,0-0.645,0-0.965c-0.25,0.055-0.503,0.08-0.758,0.087
				c0.118,0.049,0.236,0.098,0.354,0.146c-0.015-0.018-0.03-0.033-0.046-0.052c0.049,0.118,0.098,0.235,0.146,0.354
				c-0.002-0.02-0.004-0.035-0.006-0.053c-0.083,0.144-0.165,0.287-0.248,0.432c0.522-0.348,1.075-0.362,1.658-0.159
				c-0.1-0.245-0.199-0.49-0.299-0.733c-0.015,0.021,0.25,0.057-0.084,0.014c-0.083-0.01-0.163,0.009-0.246,0.02
				c-0.637,0.086-0.365,1.051,0.266,0.965c-0.249,0.033,0.102,0.043,0.108,0.043c0.095-0.002,0.185-0.015,0.276-0.039
				c0.25-0.068,0.41-0.289,0.543-0.496c0.186-0.285-0.008-0.633-0.299-0.733c-0.814-0.283-1.702-0.224-2.428,0.261
				c-0.135,0.09-0.27,0.256-0.248,0.432c0.101,0.815,0.99,0.61,1.576,0.482c0.522-0.113,0.43-0.807,0-0.965
				c-0.637-0.232-1.744,0.016-1.88,0.814c-0.141,0.828,0.765,0.68,1.264,0.609c0.466-0.063,1.244-0.089,1.52-0.544
				c0.471-0.776-0.864-0.974-1.309-1.021c-0.519-0.057-0.996,0.226-0.903,0.797c0.059,0.365,0.507,0.656,0.797,0.824
				c0.369,0.215,0.781,0.346,1.189,0.172c0.589-0.254,0.255-1.051,0.041-1.426C59.141,56.495,58.277,56.998,58.598,57.559
				L58.598,57.559z"/>
		</g>
	</g>
	<g>
		<g>
			<path fill="#040830" d="M68.943,56.586c3.269,2.661,8.789,2.469,12.285,0.373c4.098-2.457,8.23-12.525,13.728-6.856
				c0.448,0.464,1.155-0.244,0.707-0.707c-1.188-1.227-2.455-2.423-4.306-2.035c-2.397,0.502-4.104,1.812-5.725,3.604
				c-1.979,2.19-3.555,4.736-6.41,5.887c-2.82,1.135-7.148,1.002-9.572-0.973C69.154,55.475,68.443,56.18,68.943,56.586
				L68.943,56.586z"/>
		</g>
	</g>
	<g>
		<g>
			<path fill="#040830" d="M69.65,59.887c3.623,2.83,8.455,3.316,12.748,1.745c2-0.731,3.69-2.229,5.426-3.419
				c1.102-0.754,2.262-1.311,3.56-1.635c0.455-0.113,2.817-0.316,3.183,0.087c0.032-0.263,0.066-0.522,0.102-0.785
				c-0.053,0.026-0.105,0.052-0.158,0.078c-0.579,0.284-0.072,1.146,0.504,0.862c0.055-0.025,0.105-0.051,0.159-0.077
				c0.304-0.147,0.304-0.562,0.103-0.785c-0.574-0.637-2.244-0.467-2.988-0.477c-1.805-0.023-3.497,0.923-4.963,1.869
				c-2.157,1.391-3.987,3.049-6.523,3.744c-3.566,0.977-7.52,0.366-10.438-1.916C69.855,58.786,69.143,59.488,69.65,59.887
				L69.65,59.887z"/>
		</g>
	</g>
	<g>
		<g>
			<path fill="#040830" d="M95.415,56.547c0-2.069,0-4.139,0-6.208c0-0.645-1-0.645-1,0c0,2.069,0,4.139,0,6.208
				C94.415,57.191,95.415,57.191,95.415,56.547L95.415,56.547z"/>
		</g>
	</g>
	<g>
		<g>
			<path fill="#040830" d="M68.613,64.26c3.076,1.231,4.188,4.486,6.06,6.953c1.286,1.699,3.132,2.602,5.079,3.346
				c3.852,1.471,10.449,2.318,12.529-2.279c0.264-0.58-0.598-1.09-0.863-0.504c-2.348,5.188-10.823,2.615-14.4,0.341
				c-3.556-2.265-3.934-7.138-8.138-8.82C68.281,63.055,68.023,64.021,68.613,64.26L68.613,64.26z"/>
		</g>
	</g>
	<g>
		<g>
			<path fill="#040830" d="M69.086,61.193c2.475,0.537,4.057,2.521,5.729,4.267c1.453,1.517,2.975,2.521,4.943,3.226
				c2.061,0.735,4.32,0.987,6.493,0.82c2.146-0.165,2.948-0.982,4.065-2.648c0.359-0.537-0.506-1.035-0.862-0.504
				c-2.75,4.096-9.89,2.045-13.007-0.69c-2.284-2.009-3.939-4.747-7.096-5.433C68.723,60.094,68.456,61.059,69.086,61.193
				L69.086,61.193z"/>
		</g>
	</g>
	<g>
		<g>
			<path fill="#040830" d="M89.246,66.816c0.488,1.765,1.063,3.541,2.094,5.068c0.357,0.532,1.227,0.032,0.863-0.504
				c-0.986-1.463-1.525-3.146-1.992-4.832C90.039,65.93,89.074,66.193,89.246,66.816L89.246,66.816z"/>
		</g>
	</g>
	<g>
		<g>
			<path fill="#040830" d="M72.546,84.943c0.646,0,0.646-1,0-1S71.902,84.943,72.546,84.943L72.546,84.943z"/>
		</g>
	</g>
	<g>
		<g>
			<path fill="#040830" d="M65.148,61.93c1.435-0.832,2.838-1.742,3.979-2.959c0.438-0.47-0.267-1.179-0.707-0.707
				c-1.085,1.156-2.413,2.012-3.776,2.803C64.087,61.389,64.59,62.253,65.148,61.93L65.148,61.93z"/>
		</g>
	</g>
	<g>
		<g>
			<path fill="#040830" d="M40.47,60.986c-0.606-0.563-1.259-1.076-1.886-1.615c-0.439-0.377-1.271-0.932-1.443-1.518
				c-0.182-0.617-1.146-0.354-0.964,0.267c0.208,0.705,0.903,1.251,1.428,1.72c0.707,0.633,1.463,1.209,2.159,1.854
				C40.235,62.133,40.944,61.428,40.47,60.986L40.47,60.986z"/>
		</g>
	</g>
	<g>
		<g>
			<path fill="#040830" d="M81.226,99.435l-0.16,0.091l-0.05,0.029l-0.77,0.44c-0.101-2.44-0.48-5-0.94-7.3
				c-0.76-3.9-2.43-7.28-6.79-7.75c-0.63-0.07-0.64-1.07,0-1c3.99,0.42,6.431,3,7.391,6.819
				C80.586,93.485,81.076,96.525,81.226,99.435z"/>
		</g>
	</g>
	<g>
		<g>
			<path fill="#040830" d="M62.896,85.405c-3.49,5.41-7.37,10.54-11.35,15.59l-0.34-0.19l-0.29-0.16l-0.25-0.149
				c3.99-5.05,7.88-10.18,11.36-15.601C62.376,84.355,63.246,84.855,62.896,85.405z"/>
		</g>
	</g>
	<g>
		<g>
			<path fill="#040830" d="M71.516,84.865c0.01,0.06,0.01,0.13-0.01,0.21c-0.22,0.859-0.45,1.72-0.71,2.56
				c-2.06,6.8-5.44,13.07-9.66,18.91l-0.68-0.39l-0.11-0.07l-0.38-0.21c4.681-6.46,8.31-13.46,10.22-21.14
				c0.011-0.051,0.03-0.101,0.061-0.141C70.516,84.025,71.476,84.255,71.516,84.865z"/>
		</g>
	</g>
	<g>
		<g>
			<path fill="#040830" d="M68.972,74.959c-1.026,3.09-2.608,5.959-3.44,9.116c-0.164,0.624,0.801,0.889,0.966,0.266
				c0.831-3.155,2.413-6.026,3.44-9.116C70.141,74.611,69.175,74.352,68.972,74.959L68.972,74.959z"/>
		</g>
	</g>
	<g>
		<g>
			<path fill="#040830" d="M69.587,75.023c1.241-0.49,2.899-0.231,4.017,0.5c0.541,0.354,1.041-0.514,0.504-0.863
				c-1.313-0.861-3.315-1.182-4.785-0.602C68.729,74.294,68.986,75.262,69.587,75.023L69.587,75.023z"/>
		</g>
	</g>
	<g>
		<g>
			<path fill="#040830" d="M73.609,75.038c-0.66,2.797-1.854,5.983-3.645,8.267c-0.395,0.502,0.311,1.215,0.707,0.707
				c1.893-2.412,3.201-5.744,3.9-8.707C74.721,74.678,73.757,74.41,73.609,75.038L73.609,75.038z"/>
		</g>
	</g>
	<g>
		<g>
			<path fill="#040830" d="M60.756,81.939c0.894,0.123,1.782,0.289,2.668,0.455c0.487,0.092,0.973,0.188,1.458,0.289
				c0.205,0.043,0.41,0.09,0.612,0.139c0.306,0.072,0.281,0.193,0.087-0.1c0.06-0.229,0.118-0.457,0.179-0.687
				c-0.005,0.003-0.011,0.007-0.016,0.01c-0.559,0.321-0.057,1.187,0.504,0.863c0.006-0.003,0.012-0.007,0.017-0.011
				c0.228-0.131,0.33-0.459,0.181-0.685c-0.352-0.526-1.549-0.553-2.091-0.659c-1.104-0.22-2.215-0.429-3.331-0.582
				C60.391,80.889,60.119,81.854,60.756,81.939L60.756,81.939z"/>
		</g>
	</g>
	<g>
		<g>
			<path fill="#040830" d="M60.153,81.771c-0.003,0.813-0.066,1.623-0.079,2.437c-0.01,0.646,0.99,0.646,1,0
				c0.012-0.813,0.075-1.624,0.079-2.437C61.156,81.127,60.156,81.127,60.153,81.771L60.153,81.771z"/>
		</g>
	</g>
	<g>
		<g>
			<path fill="#040830" d="M70.27,74.229c0.047-0.584,0.295-1.022,0.639-1.478c-0.145,0.083-0.289,0.165-0.432,0.248
				c1.526,0.116,2.926,0.71,4.346,1.239c-0.121-0.161-0.244-0.321-0.365-0.482c-0.042,0.379-0.178,0.715-0.403,1.006
				c-0.354,0.541,0.511,1.041,0.863,0.504c0.321-0.488,0.474-0.932,0.54-1.51c0.025-0.23-0.176-0.41-0.367-0.482
				c-1.398-0.521-2.762-1.057-4.252-1.246c-1.111-0.143-1.496,1.313-1.566,2.201C69.217,74.871,70.218,74.865,70.27,74.229
				L70.27,74.229z"/>
		</g>
	</g>
	<g>
		<g>
			<path fill="#040830" d="M71.025,73.628c1.059-0.114,2.148,0.048,3.049,0.64c0.541,0.354,1.041-0.512,0.504-0.863
				c-1.03-0.678-2.336-0.907-3.553-0.774C70.393,72.697,70.385,73.697,71.025,73.628L71.025,73.628z"/>
		</g>
	</g>
	<g>
		<g>
			<path fill="#040830" d="M73.884,74.488c-0.019-0.325-0.407,0.264-0.053,0.168c0.622-0.166,0.358-1.129-0.267-0.965
				c-0.445,0.119-0.707,0.313-0.683,0.797C72.918,75.131,73.918,75.135,73.884,74.488L73.884,74.488z"/>
		</g>
	</g>
	<g>
		<g>
			<path fill="#040830" d="M72.834,74.335c0.277,0.013,0.54,0.073,0.811,0.14c0.625,0.153,0.891-0.811,0.266-0.965
				c-0.355-0.087-0.709-0.156-1.074-0.175C72.189,73.305,72.193,74.305,72.834,74.335L72.834,74.335z"/>
		</g>
	</g>
	<g>
		<g>
			<path fill="#040830" d="M67.779,81.781c1.604-0.26,3.149-0.752,4.715-1.178c0.623-0.17,0.357-1.135-0.266-0.965
				c-1.563,0.426-3.111,0.92-4.716,1.178C66.879,80.92,67.15,81.885,67.779,81.781L67.779,81.781z"/>
		</g>
	</g>
	<g>
		<g>
			<path fill="#040830" d="M68.865,77.018c1.049,0.935,1.738,2.176,2.75,3.145c0.466,0.443,1.174-0.262,0.707-0.707
				c-1.012-0.969-1.701-2.21-2.75-3.145C69.092,75.885,68.383,76.588,68.865,77.018L68.865,77.018z"/>
		</g>
	</g>
	<g>
		<g>
			<path fill="#040830" d="M74.723,75.59c0-0.035,0-0.068,0-0.104c0-0.646-1-0.646-1,0c0,0.035,0,0.068,0,0.104
				C73.723,76.234,74.723,76.234,74.723,75.59L74.723,75.59z"/>
		</g>
	</g>
	<g>
		<g>
			<path fill="#040830" d="M36.775,52.515c0.655-3.319,1.048-6.744,2.41-9.872c1.731-3.975,5.445-5.41,9.43-6.188
				c7.624-1.49,16.952-0.12,22.608,5.594c0.073-0.278,0.146-0.557,0.221-0.835c-3.117,0.895-6.186,1.574-6.574,5.275
				c-0.066,0.641,0.935,0.635,1,0c0.332-3.16,3.322-3.588,5.842-4.313c0.361-0.104,0.486-0.566,0.221-0.835
				c-6.021-6.08-15.512-7.231-23.581-5.852c-3.663,0.626-6.967,1.95-9.153,5.064c-2.328,3.316-2.625,7.843-3.385,11.695
				C35.686,52.879,36.65,53.147,36.775,52.515L36.775,52.515z"/>
		</g>
	</g>
	<path fill="#040830" d="M75.027,74.021c-0.293-0.244-0.644-0.389-1.008-0.498c-0.058-0.107-0.318-0.191-0.465-0.215
		c-0.045-0.008-0.3-0.009-0.3-0.015c0-0.002,0-0.003,0-0.004c-1-0.12-1.972-0.688-2.883-0.397c-0.612,0.192-0.269,1.158,0.35,0.965
		c0.269-0.086,0.69,0.011,1.013,0.09c0.076,0.133,0.228,0.238,0.418,0.261c0.636,0.071,1.64,0.09,2.156,0.521
		C74.801,75.139,75.523,74.436,75.027,74.021z"/>
	<path fill="#040830" d="M71.223,59.977c-0.313-0.094-0.604-0.24-0.917-0.334c-0.618-0.185-0.882,0.781-0.266,0.965
		c0.144,0.043,0.282,0.1,0.421,0.154c0.059,0.381,0.52,0.676,0.814,0.301c0.129-0.162,0.244-0.258,0.297-0.472
		C71.638,60.322,71.49,60.055,71.223,59.977z"/>
	<path fill="#040830" d="M58.555,57.227c-0.41-0.086-0.832-0.188-1.213-0.365c-0.581-0.271-1.089,0.593-0.505,0.863
		c0.464,0.215,0.952,0.36,1.453,0.467C58.919,58.322,59.186,57.359,58.555,57.227z"/>
	<path fill="#040830" d="M48.154,57.492c-0.186-0.483-0.846-0.398-0.97-0.031c-0.019,0.006-0.031,0.012-0.057,0.018
		c-0.175,0.051-0.357,0.061-0.538,0.063c-0.644,0.017-0.645,1.017,0,1C47.118,58.527,48.485,58.354,48.154,57.492z"/>
</g>
<g id="Layer_16">
	<path opacity="0.13" enable-background="new    " d="M18.985,29.11v53.12l46.073,26.56l46.074-26.56V29.11L65.059,2.55
		L18.985,29.11z M109.268,30.19v50.97l-44.21,25.49L20.847,81.16V30.19L65.058,4.701L109.268,30.19z"/>
</g>
</svg>
