<svg viewBox="0 0 110.979 128.417" xmlns="http://www.w3.org/2000/svg"><g transform="translate(.154 .374)"><path d="m55.556 127.881-55.139-31.834v-63.67l55.139-31.835 55.14 31.835v63.669z" fill="#e981b9" stroke="#000102" stroke-width="1.8"/><path d="m55.422 116.822-45.313-26.162v-52.323l45.313-26.162 45.314 26.162v52.323z" fill="#f8f5e9"/><path d="m55.555 10.618-46.482 26.798v53.594l46.482 26.795 46.485-26.795v-53.594zm44.603 79.312-44.603 25.716-44.604-25.716v-51.424l44.604-25.716 44.603 25.716z" fill="#091d2a"/></g><path d="m-366.506-117.11h218.921v195.815h-218.921z" fill="none"/><path d="m-451.215-238.888h361.335v516.49h-361.335z" fill="none"/><g transform="matrix(.57847 0 0 .57847 18.495 27.061)"><path d="m29.869 79.786c0 3.188-6.352 5.771-14.184 5.771-7.834 0-14.186-2.584-14.186-5.771s12.467-12.6 20.301-12.6c7.835.001 8.069 9.413 8.069 12.6z" fill="#ea81bd"/><path d="m29.869 79.786c0 3.188-6.352 5.771-14.184 5.771-7.834 0-14.186-2.584-14.186-5.771s13.129-1.855 20.963-1.855c7.835 0 7.407-1.332 7.407 1.855z" fill="#d363a9"/><path d="m15.686 87.058c-7.604 0-15.686-2.549-15.686-7.272 0-4.488 13.687-14.1 21.801-14.1 3.573 0 9.568 1.832 9.568 14.1 0 4.723-8.08 7.272-15.683 7.272zm6.115-18.371c-7.299 0-18.555 8.855-18.801 11.116 0 1.725 4.942 4.255 12.686 4.255 7.743 0 12.684-2.53 12.684-4.271-.001-7.366-2.211-11.1-6.569-11.1z" fill="#33363a"/><path d="m99.537 79.786c0 3.188 6.35 5.771 14.184 5.771s14.184-2.584 14.184-5.771-12.467-12.6-20.301-12.6c-7.833.001-8.067 9.413-8.067 12.6z" fill="#ea81bd"/><path d="m99.537 79.786c0 3.188 6.35 5.771 14.184 5.771s14.184-2.584 14.184-5.771-13.129-1.855-20.963-1.855-7.405-1.332-7.405 1.855z" fill="#d363a9"/><path d="m113.721 87.058c-7.603 0-15.684-2.549-15.684-7.271 0-12.268 5.994-14.1 9.566-14.1 8.114 0 21.801 9.611 21.801 14.1 0 4.722-8.08 7.271-15.683 7.271zm-6.117-18.371c-4.357 0-6.566 3.734-6.566 11.1 0 1.741 4.941 4.271 12.684 4.271s12.684-2.53 12.684-4.271c-.248-2.245-11.503-11.1-18.802-11.1z" fill="#33363a"/><ellipse cx="42.13" cy="105.812" fill="#ea81bd" rx="21.655" ry="6.541"/><path d="m63.785 105.812c0 3.611-9.695 0-21.654 0-11.96 0-21.655 3.611-21.655 0 0-3.613 9.695-6.541 21.655-6.541 11.959 0 21.654 2.928 21.654 6.541z" fill="#d363a9"/><path d="m42.131 113.853c-11.507 0-23.155-2.762-23.155-8.041s11.648-8.041 23.155-8.041c11.506 0 23.154 2.762 23.154 8.041s-11.648 8.041-23.154 8.041zm0-13.082c-13.041 0-20.155 3.33-20.155 5.041s7.114 5.041 20.155 5.041 20.154-3.33 20.154-5.041-7.114-5.041-20.154-5.041z" fill="#33363a"/><ellipse cx="87.275" cy="105.812" fill="#ea81bd" rx="21.655" ry="6.541"/><path d="m65.62 105.812c0 3.611 9.695 0 21.655 0 11.959 0 21.654 3.611 21.654 0 0-3.613-9.695-6.541-21.654-6.541-11.96 0-21.655 2.928-21.655 6.541z" fill="#d363a9"/><path d="m87.275 113.853c-11.507 0-23.155-2.762-23.155-8.041s11.648-8.041 23.155-8.041c11.506 0 23.154 2.762 23.154 8.041s-11.647 8.041-23.154 8.041zm0-13.082c-13.041 0-20.155 3.33-20.155 5.041s7.114 5.041 20.155 5.041 20.154-3.33 20.154-5.041-7.113-5.041-20.154-5.041z" fill="#33363a"/><path d="m20.188 17.054c-5.656 7.771-6.842 18.367-2.131 27.49 4.709 9.127 14.031 14.297 23.644 14.188 5.656-7.771 6.842-18.365 2.131-27.49-4.71-9.125-14.03-14.295-23.644-14.188z" fill="#9e3256"/><path d="m20.188 17.054c-5.656 7.771 4.681 16.744 9.392 25.867 4.709 9.127 2.509 15.92 12.122 15.811 5.656-7.771 6.842-18.365 2.131-27.49s-14.031-14.295-23.645-14.188z" fill="#ffcae8"/><path d="m20.188 17.054c-5.656 7.771 4.681 16.744 9.392 25.867 4.709 9.127 2.509 15.92 12.122 15.811 5.656-7.771 3.201-11.713-1.51-20.838-4.71-9.127-10.39-20.947-20.004-20.84z" fill="#efa3cc"/><path d="m45.165 30.553c-4.837-9.37-14.404-15.141-24.994-14.999a1.502 1.502 0 0 0 -1.196.617c-6.227 8.556-7.089 19.691-2.251 29.061 4.786 9.276 14.216 15.002 24.668 15.002l.326-.002a1.502 1.502 0 0 0 1.196-.617c6.226-8.555 7.089-19.691 2.251-29.062zm-.132 9.328c.008.058.011.116.018.174a24.48 24.48 0 0 1 .216 3.104c.001.287-.016.574-.025.861-.008.259-.006.519-.023.777-.021.335-.062.668-.096 1.001-.022.21-.034.422-.061.631a24.644 24.644 0 0 1 -.575 2.939c-.024.094-.041.19-.066.284a24.528 24.528 0 0 1 -.469 1.531l-.015.048a24.836 24.836 0 0 1 -.585 1.536l-.006.016a25.095 25.095 0 0 1 -2.418 4.439c-4.845-.15-5.542-2.416-6.986-7.116-.712-2.319-1.52-4.948-3.03-7.876-1.335-2.586-3.095-5.141-4.796-7.611-4.209-6.112-7.868-11.426-5.126-16.063.464.009.925.038 1.384.072.098.007.197.007.294.016.48.041.955.103 1.428.171.082.012.165.017.246.03.484.075.962.169 1.437.272.068.015.138.024.206.039.505.113 1.003.245 1.497.388.037.011.074.018.111.029.479.142.951.302 1.418.471.05.018.102.032.151.05.46.17.913.359 1.361.556.054.024.11.043.164.067.434.194.858.406 1.279.625.065.034.132.062.197.096.41.218.811.453 1.208.694.07.043.144.08.215.123.359.223.707.462 1.054.703.103.071.21.135.311.208.346.248.68.513 1.013.779.095.076.195.145.289.222.309.255.606.526.903.797.109.099.224.191.332.293.272.257.53.529.791.799.123.127.252.246.372.376.211.228.409.47.611.706.158.184.323.362.477.551.196.242.377.498.564.749.147.196.301.385.442.586.289.411.562.836.827 1.268.03.049.064.095.094.145a25.007 25.007 0 0 1 3.367 9.444zm-25.643 3.975a24.561 24.561 0 0 1 -1.759-18.256c1.105 3.572 3.575 7.179 6.015 10.723 1.648 2.395 3.353 4.87 4.601 7.286 1.387 2.689 2.153 5.182 2.829 7.382.526 1.712 1.033 3.338 1.777 4.742a24.574 24.574 0 0 1 -13.463-11.877z" fill="#33363a"/><path d="m109.217 17.054c5.656 7.771 6.842 18.367 2.131 27.49-4.709 9.127-14.03 14.297-23.644 14.188-5.657-7.771-6.842-18.365-2.131-27.49 4.71-9.125 14.031-14.295 23.644-14.188z" fill="#9e3256"/><path d="m109.217 17.054c5.656 7.771-4.68 16.744-9.391 25.867-4.709 9.127-2.509 15.92-12.122 15.811-5.657-7.771-6.842-18.365-2.131-27.49 4.71-9.125 14.031-14.295 23.644-14.188z" fill="#ffcae8"/><path d="m109.217 17.054c5.656 7.771-4.68 16.744-9.391 25.867-4.709 9.127-2.509 15.92-12.122 15.811-5.657-7.771-3.202-11.713 1.509-20.838 4.709-9.127 10.391-20.947 20.004-20.84z" fill="#efa3cc"/><path d="m110.43 16.171a1.502 1.502 0 0 0 -1.196-.617c-10.542-.135-20.156 5.63-24.993 14.999-4.838 9.372-3.976 20.508 2.251 29.062.279.383.722.611 1.196.617l.326.002c10.451 0 19.882-5.726 24.667-15.001 4.838-9.37 3.975-20.506-2.251-29.062zm-22.691 14.271c.001-.001.001-.001 0 0 .293-.484.601-.955.922-1.414l.019-.025a24.663 24.663 0 0 1 2.077-2.569l.019-.019c.37-.398.751-.784 1.145-1.156l.016-.014c.395-.372.801-.731 1.219-1.075l.032-.024a24.85 24.85 0 0 1 1.269-.976c.046-.033.095-.062.142-.095.4-.283.806-.558 1.222-.816.074-.046.152-.085.226-.13a24.79 24.79 0 0 1 1.195-.687c.094-.05.193-.092.288-.141.391-.201.784-.4 1.187-.58.12-.054.245-.098.365-.15.383-.164.766-.328 1.158-.473.142-.053.289-.094.432-.144.376-.131.752-.264 1.136-.377.147-.043.298-.075.446-.116.385-.106.77-.214 1.162-.301.152-.034.307-.056.459-.087.393-.08.785-.162 1.184-.224.15-.023.303-.034.454-.055.406-.055.811-.111 1.222-.147.127-.011.256-.011.384-.02.43-.031.861-.059 1.296-.068 2.742 4.637-.917 9.951-5.125 16.064-1.701 2.471-3.46 5.025-4.795 7.611-1.51 2.927-2.318 5.556-3.03 7.875-1.444 4.7-2.14 6.967-6.986 7.116a25.051 25.051 0 0 1 -2.418-4.438c-.016-.039-.029-.079-.045-.118-2.745-6.631-2.498-14.171.892-20.739.261-.508.539-1.005.831-1.488zm22.276 13.415c-2.906 5.632-7.734 9.792-13.461 11.876.744-1.403 1.251-3.03 1.777-4.742.675-2.2 1.441-4.692 2.829-7.381 1.248-2.417 2.952-4.893 4.6-7.286 2.44-3.544 4.91-7.151 6.015-10.724a24.573 24.573 0 0 1 -1.76 18.257z" fill="#33363a"/><path d="m113.912 70.117c0 20.676-22.032 37.441-49.209 37.441-27.178 0-49.209-16.766-49.209-37.441 0-20.68 22.031-45.459 49.209-45.459 27.177 0 49.209 24.779 49.209 45.459z" fill="#ffcae8"/><path d="m113.912 70.117c0 20.676-22.032 37.441-49.209 37.441-27.178 0-49.209-16.766-49.209-37.441 0-20.68 22.031-34.928 49.209-34.928 27.177 0 49.209 14.248 49.209 34.928z" fill="#efa3cc"/><path d="m113.912 70.117c0 20.676-22.032 37.441-49.209 37.441-27.178 0-49.209-16.766-49.209-37.441 0-20.682 6.261 18.34 49.209 18.34 42.947-.001 49.209-39.022 49.209-18.34z" fill="#ea81bd"/><path d="m64.703 109.058c-27.961 0-50.709-17.469-50.709-38.941 0-21.27 22.62-46.959 50.709-46.959s50.709 25.689 50.709 46.959c0 21.472-22.748 38.941-50.709 38.941zm0-82.9c-26.428 0-47.709 24.048-47.709 43.959 0 19.818 21.402 35.941 47.709 35.941s47.709-16.123 47.709-35.941c0-19.912-21.281-43.959-47.709-43.959z" fill="#33363a"/><path d="m48.541 67.958a8.05 8.05 0 0 1 -8.053 8.051 8.05 8.05 0 0 1 -8.051-8.051 8.05 8.05 0 0 1 8.051-8.051 8.052 8.052 0 0 1 8.053 8.051z" fill="#14a594"/><circle cx="36.485" cy="65.341" fill="#fff" r="3.281"/><path d="m40.488 58.408c-3.239 0-6.102 1.624-7.83 4.097-.111.15-.209.307-.302.47a9.477 9.477 0 0 0 -1.419 4.983c0 5.267 4.285 9.551 9.551 9.551 5.268 0 9.553-4.284 9.553-9.551s-4.285-9.55-9.553-9.55zm0 16.101a6.558 6.558 0 0 1 -6.046-4.034c.688-.018 1.525-.2 2.468-.396.336-.03.66-.093.973-.19.818-.148 1.692-.267 2.606-.267 2.413 0 4.572.813 6.048.853a6.563 6.563 0 0 1 -6.049 4.034z" fill="#33363a"/><circle cx="36.484" cy="65.342" fill="#fff" r="1.78"/><path d="m96.968 67.958a8.049 8.049 0 0 1 -8.051 8.051 8.05 8.05 0 0 1 -8.052-8.051 8.052 8.052 0 0 1 16.103 0z" fill="#14a594"/><circle cx="84.912" cy="65.341" fill="#fff" r="3.28"/><path d="m88.917 58.408c-3.24 0-6.103 1.624-7.831 4.097-.111.15-.209.307-.302.47a9.477 9.477 0 0 0 -1.419 4.983c0 5.267 4.285 9.551 9.552 9.551 5.266 0 9.551-4.284 9.551-9.551s-4.285-9.55-9.551-9.55zm0 16.101a6.56 6.56 0 0 1 -6.047-4.034c.688-.018 1.525-.2 2.468-.396.336-.03.659-.093.971-.189.819-.148 1.694-.268 2.608-.268 2.412 0 4.571.813 6.046.853a6.558 6.558 0 0 1 -6.046 4.034z" fill="#33363a"/><circle cx="84.912" cy="65.342" fill="#fff" r="1.78"/><path d="m72.266 69.816c0 1.012-3.404 1.193-7.606 1.193-4.2 0-7.605-.182-7.605-1.193 0-1.01 3.405-3.654 7.605-3.654 4.201-.001 7.606 2.644 7.606 3.654z" fill="#ffcae8"/><path d="m55.807 77.931a8.895 8.895 0 0 0 8.895 8.895 8.896 8.896 0 0 0 8.897-8.895z" fill="#9e3256"/><path d="m64.702 88.325c-5.732 0-10.396-4.663-10.396-10.395a1.5 1.5 0 0 1 1.5-1.5h17.792a1.5 1.5 0 0 1 1.5 1.5c.001 5.732-4.663 10.395-10.396 10.395zm-7.243-8.894c.695 3.36 3.679 5.895 7.243 5.895s6.548-2.534 7.244-5.895z" fill="#33363a"/><circle cx="64.702" cy="36.265" fill="#ffcae8" r="19.21"/><circle cx="64.702" cy="43.868" fill="#efa3cc" r="19.21"/><path d="m64.703 15.554c-5.339 0-10.197 2.048-13.874 5.378-.101.056-.207.097-.296.178-8.339 7.641-8.908 20.644-1.269 28.986a16.617 16.617 0 0 0 11.595 5.407 16.591 16.591 0 0 0 12.023-4.375 13.575 13.575 0 0 0 4.422-9.481 13.584 13.584 0 0 0 -3.58-9.836c-4.186-4.568-11.309-4.88-15.878-.695-3.776 3.466-4.034 9.355-.575 13.131a1.5 1.5 0 1 0 2.212-2.027c-2.342-2.556-2.167-6.545.39-8.892 3.35-3.067 8.572-2.837 11.639.511a10.606 10.606 0 0 1 2.795 7.678 10.59 10.59 0 0 1 -3.452 7.4 13.637 13.637 0 0 1 -9.865 3.59 13.632 13.632 0 0 1 -9.515-4.437c-2.954-3.226-4.456-7.267-4.57-11.33.051-.15.084-.309.084-.476 0-9.766 7.945-17.711 17.711-17.711 9.765 0 17.709 7.945 17.709 17.711a1.5 1.5 0 1 0 3 0c.003-11.419-9.287-20.71-20.706-20.71z" fill="#33363a"/></g></svg>