<svg enable-background="new 0 0 110.7785721 127.8745728" viewBox="0 0 110.7785721 127.8745728" xmlns="http://www.w3.org/2000/svg"><path d="m110.7225418 31.9934025v63.9999981l-55.4199867 32-44.3499746-25.5999756-.2000123-.1199951-10.880005-6.2800293v-63.9999981l55.4299919-31.9999998z" fill="#192a44"/><path d="m101.8125687 37.1834068v53.1399498l-.0100098.0100098-1.0900269.6199951-.0999756.0599976-.2300415.1300049-.1299438.0700073-.8800049.5100098-.1400146.0800171-3 1.7299805-.2000122.1199951-.3599854.210022-.4800415.2799683-.3899536.2200317-.0200195.0100098-.6799927.3899536-.1600342.0900269-.6899414.4000244-.7900391.4599609-.4699707.2700195-.0200195.0100098-.1199951.0700073-.4000244.2299805-.0700073.039978-.0999756.0599976-.1400146.0700073-.0299683.0100098-.1000366.039978-.0899658.0599976-.0200195.0100098-1.8599854 1.0700073-.6000366.3400269-.5699463.3299561-.8200073.4700317-1.0499878.5999756-.0400391.0300293-1.2299805.710022-.4500122.2599487-.0200195.0200195h-.0099487l-.4700317.2700195-.6599731.3800049-.4100342.2399902-.8699951.5199585-.1599731.0900269-.4000244.2299805-.1300049.0700073v.0100098l-.5700073.3200073-.0499878.0299683-.0700073.0400391-.0200195.0100098-.0599976.039978-.3299561.1900024-.0800171.0499878-.0300293.0100098-.0499878.0300293-.0499878.0199585-.0599976.0400391v.0099487l-.289978.1700439-.4899902.2799683-.1800537.0900269-.0199585.0199585-.0400391.0200195-.4400024.25-.1099854.0700073-.4599609.2600098-.1400146.0800171-.1400146.0799561-.0100098.0100098-.0499878.0300293-.289978.1599731-.0300293.0200195-.2399902.1400146h-.0100098l-.0700073.039978-.6400146.3800049-.1999512.1199951-.3300171.1900024-.1900024.0999756-.0599976.0400391c0 .0099487-.0100098.0099487-.0100098.0099487l-.4699707.2700195-.4200439.2399902-.039978.0300293-.5700073.3300171-.1199951.0699463-.2600098.1500244-1.3200073.7600098-.0199585.0100098-.6100464.3499756h-.0099487l-.3700562.2200317-.1099854.0599976-.1400146.0799561-.0599976.0300293-1.1199951.6499634-.3299561.1900024-2.0500488 1.1900024-.0199585.0100098-.0100098.0100098-.1300049.0800171-.2700195.1499634-.0199585.0100098-.1400146.0800171-.1900024.1099854-.1500244.0900269-.3499756.2000122-.1400146.0799561-.0499878.0300293-.1799927.1099854-.2800293.1500244-.1099854.0700073-.6300049.3599854-.3499756.2000122-.6300087.3699951-.3900146.2199707-.0100098.0100098-.4299927.25-.4000244.2299805-2.3599854 1.3600464-.3599854.2099609-.039978.0200195-.1799927.0999756-.5.2900391-1.8700562 1.0799561-.0299683.0200195-.5300293.2999878h-.0099487l-.3200073.1900024-.4800415.2800293-.1399536-.0800171-1.0599976-.6099854-.2200317-.1300049-.8499756-.4899902-.0300293-.0100098-.9099731-.5300293-.1700439-.0999756-.0499878-.0300293-.1799927-.0999756-.4299927-.25-.1699829-.0999756-.9899902-.5700073-.0900269-.0500488h-.0100098l-.0200195-.0199585-.2799683-.1600342-.5-.289978-.3200073-.1900024h-.0100098c-.0100098-.0100098-.0100098-.0200195-.0199585-.0200195l-1.1200562-.6399536-.039978-.0300293-1.7399902-1-.3300171-.1900024-3.5-2.0299683-.4599609-.2700195-.2800293-.1600342-.5100098-.2999878-.6099854-.3499756-.0900269-.0499878h-.0099487l-.1400146-.0900269h-.0100099l-.4400024-.25-.1300049-.0800171-.5-.289978h-.0100098l-.289978-.1699829-.2200317-.1199951-.0899658-.0599976-.0300293-.0200195-.4099731-.2399902-.25-.1400146-.3900146-.2199707c-.1400146-.0900269-.2700195-.1700439-.4199829-.25l-.7600098-.4400024h-.0100098l-1.0199585-.6000366-.1900024-.1099854-.3700562-.210022-.3899536-.2199707-.0800171-.0499878-.1500244-.0800171-.2599487-.1500244-.2400513-.1499634-.0899658-.0499878-.3500366-.2000122c-.0299683-.0200195-.0499878-.0400391-.0799561-.0499878l-.0800171-.0400391-.039978-.0299683-.5100098-.2900391-.7900391-.4500122-.0499878-.0299683-.1499634-.0800171-.3699951-.2199707-1.3900146-.8099976s-.0100098 0-.0200195-.0100098l-.2999878-.1699829-.9500122-.5500488-.1199951-.0699463-1.4400024-.8400269-2.0899658-1.2000122-.8200075-.4699711-.0900269-.0500488-.5-.289978-.0100098-.0100098-.2099609-.1199951h-.0100098l-.210022-.1199951-.5-.289978-.1300049-.0700073-.2000122-.1199951c-.0099487-.0100098-.0099487-.0100098-.0199585-.0100098l-.119995-.0700075-1.7400513-1.0100098-1.0199585-.5899658-1.3300171-.7700195-.7199707-.4299927-.0400391-.0200195-.0199585-.0100098-.2900391-.1699829s-.0100098 0-.0199585-.0100098l-.2600098-.1499634-.0200195-.0100098-1.3300161-.7700195-1.9699707-1.1300049-1.8099976-1.0499878-.7700195-.4400024-.830017-.4799804-.0899658-.0499878-.0800171-.0400391-.0299683-.0200195v-53.1399498l1.2399902-.710022.5599976-.3200073 3.8599854-2.2299805.7700186-.460022h.0100098l.25-.1400146.5799561-.3299561 1.75-1.0100117.1500244-.0900269h.0100098l1.5700073-.9199829h.0099487l.5300293-.2999878.4299927-.25.3900146-.2299805.1499634-.0900269 2.0700073-1.1900024.9800415-.5700073 1.0099487-.5899658.4200439-.2400513.4500122-.2599487.25-.1400146h.0099487l.5700073-.3300171 2.3500366-1.3499756.8800049-.5100098 1.5799561-.9199829.1700439-.0900269 1.6599731-.9500122.7800293-.4500122.3799438-.2199707.4400024-.2600098 1.1000366-.6499634.3300171-.1900024.1899414-.1100464.1200562-.0700073 2.1599731-1.2299805.6900024-.4099731.539978-.3099976.8400269-.4800415.0200195-.0100098h.0099487l.0500488-.0299683 5.7199707-3.2999878.1900024-.1099854.2700195-.1600342 2.8599854-1.6500244 2.6099854-1.5099487.6000366-.3500366.289978-.1599731 1.1500244-.6699829 1.0599976.6199951 6.4899902 3.75 2.5999794 1.5 3.9500122 2.2799683 1.3400272.7700197 2.8499756 1.6400146 3.789978 2.1900024 1.0400391.6099854 2.2999878 1.3099976.6699829.3900146.2000122.1099854 1.5200195.8800049 1.3699951.789978.7999878.460022.0899658.0599976 1.8099976 1.039978.9400024.539978 2.8400269 1.6400146.039978.0300293v.0100098l.0900269.0499878.1699829.0899658.2600098.1600342.4000244.2299805.9199829.5300312.539978.3099976.0200195.0100098 1.9199829 1.1099854.7800293.4400024.4400024.25 1.9400024 1.1199951.25.1400146z" fill="#5f6fa3"/><path d="m101.8125687 58.8633995v31.4599571l-.0100098.0100098-1.0900269.6199951-.0999756.0599976-.2300415.1300049-.1299438.0700073-.8800049.5100098-.1400146.0800171-3 1.7299805-.2000122.1199951-.3599854.210022-.4800415.2799683-.3899536.2200317-.0200195.0100098-.6799927.3899536-.1600342.0900269-.6899414.4000244-.7900391.4599609-.4699707.2700195-.0200195.0100098-.1199951.0700073-.4000244.2299805-.0700073.039978-.0999756.0599976-.1400146.0700073-.0299683.0100098-.1000366.039978-.0899658.0599976-.0200195.0100098-1.8599854 1.0700073-.6000366.3400269-.5699463.3299561-.8200073.4700317-1.0499878.5999756-.0400391.0300293-1.2299805.710022-.4500122.2599487-.0200195.0200195h-.0099487l-.4700317.2700195-1.0700073.6199951-.8699951.5199585-.1599731.0900269-.4000244.2299805-.1300049.0700073v.0100098l-.5700073.3200073-.0499878.0299683-.0700073.0400391-.0200195.0100098-.0599976.039978-.3299561.1900024-.0800171.0499878-.0300293.0100098-.0499878.0300293-.0499878.0199585-.0599976.0400391v.0099487l-.289978.1700439-.4899902.2799683-.1800537.0900269-.0199585.0199585-.0400391.0200195-.4400024.25-.1099854.0700073-.4599609.2600098-.1400146.0800171-.1400146.0799561-.0100098.0100098-.0499878.0300293-.289978.1599731-.0300293.0200195-.2399902.1400146h-.0100098l-.0700073.039978-.6400146.3800049-.1999512.1199951-.3300171.1900024-.1900024.0999756-.0599976.0400391c0 .0099487-.0100098.0099487-.0100098.0099487l-.4699707.2700195-.4200439.2399902-.039978.0300293-.5700073.3300171-.1199951.0699463-.2600098.1500244h-35.3599895l-.3900146-.2199707c-.1400146-.0900269-.2700195-.1700439-.4199829-.25l-.7600098-.4400024h-.0100098l-1.0199585-.6000366-.1900024-.1099854-.3700562-.210022-.3899536-.2199707-.0800171-.0499878-.1500244-.0800171-.2599487-.1500244-.2400513-.1499634-.0899658-.0499878-.3500366-.2000122c-.0299683-.0200195-.0499878-.0400391-.0799561-.0499878l-.0800171-.0400391-.039978-.0299683-.5100098-.2900391-.7900391-.4500122-.0499878-.0299683-.1499634-.0800171-.3699951-.2199707-1.3900146-.8099976s-.0100098 0-.0200195-.0100098l-.2999878-.1699829-1.0700073-.6199951-1.4400024-.8400269-2.0899658-1.2000122-.8200074-.4699706-.0900269-.0500488-.5-.289978-.0100098-.0100098-.2099609-.1199951h-.0100098l-.210022-.1199951-.5-.289978-.1300049-.0700073-.2000122-.1199951c-.0099487-.0100098-.0099487-.0100098-.0199585-.0100098l-.119995-.0700075-1.7400513-1.0100098-1.0199585-.5899658-1.3300171-.7700195-.7199707-.4299927-.0400391-.0200195-.0199585-.0100098-.2900391-.1699829s-.0100098 0-.0199585-.0100098l-.2600098-.1499634-.0200195-.0100098-1.3300161-.7700195-1.9699707-1.1300049-1.8099976-1.0499878-.7700195-.4400024-.830017-.4799804-.0899658-.0499878-.0800171-.0400391-.0299683-.0200195v-31.4599571z" fill="#9ac7f4"/><path d="m14.092104 53.015141h3v6.586957h-3z" fill="#9ac7f4"/><path d="m21.396452 53.015141h3v6.586957h-3z" fill="#9ac7f4"/><path d="m28.7008 53.015141h3v6.586957h-3z" fill="#9ac7f4"/><path d="m36.005146 53.015141h3v6.586957h-3z" fill="#9ac7f4"/><path d="m43.309494 53.015141h3v6.586957h-3z" fill="#96b8e0"/><path d="m50.613842 53.015141h3v6.586957h-3z" fill="#96b8e0"/><path d="m57.91819 53.015141h3v6.586957h-3z" fill="#96b8e0"/><path d="m65.222542 53.015141h3v6.586957h-3z" fill="#96b8e0"/><path d="m72.526886 53.015141h3v6.586957h-3z" fill="#9ac7f4"/><path d="m79.831238 53.015141h3v6.586957h-3z" fill="#9ac7f4"/><path d="m87.135582 53.015141h3v6.586957h-3z" fill="#9ac7f4"/><path d="m94.439934 53.015141h3v6.586957h-3z" fill="#9ac7f4"/><path d="m101.8125687 73.0634079v17.2599487l-.0100098.0100098-1.0900269.6199951-.0999756.0599976-.2300415.1300049-.1299438.0700073-.8800049.5100098-.1400146.0800171-3 1.7299805-.2000122.1199951-.3599854.210022-.4800415.2799683-.3899536.2200317-.0200195.0100098-.6799927.3899536-.1600342.0900269-.6899414.4000244-.7900391.4599609-.4699707.2700195-.0200195.0100098-.1199951.0700073-.4000244.2299805-.0700073.039978-.0999756.0599976-.1400146.0700073-.0299683.0100098-.1000366.039978-.0899658.0599976-.0200195.0100098-1.8599854 1.0700073-.6000366.3400269-.5699463.3299561-.8200073.4700317-1.0499878.5999756-.0400391.0300293-1.2299805.710022-.4500122.2599487-.0200195.0200195h-.0099487l-.4700317.2700195-.6599731.3800049-6.1000366-6.3699951c-.0000002-.0000002 15.0300291-8.7700198 24.7900389-21.6300051z" fill="#739dbf"/><path d="m34.8925209 94.6934128-6.2399902 6.5099487-.1199951-.0699463-1.4400024-.8400269-2.0899658-1.2000122-.8200074-.4699706-.0900269-.0500488-.5-.289978-.0100098-.0100098-.2099609-.1199951h-.0100098l-.210022-.1199951-.5-.289978-.1300049-.0700073-.2000122-.1199951c-.0099487-.0100098-.0099487-.0100098-.0199585-.0100098l-.119995-.0700075-1.7400513-1.0100098-1.0199585-.5899658-1.3300171-.7700195-.7199707-.4299927-.0400391-.0200195-.0199585-.0100098-.2900391-.1699829s-.0100098 0-.0199585-.0100098l-.2600098-.1499634-.0200195-.0100098-1.3300161-.7700195-1.9699707-1.1300049-1.8099976-1.0499878-.7700195-.4400024-.830017-.4799804-.0899658-.0499878-.0800171-.0400391-.0299683-.0200195v-17.6599731c9.749999 13.0800171 25.0799551 22.0300293 25.0799551 22.0300293z" fill="#739dbf"/><path d="m88.632515 29.5733585c-3.4699707 5.2200336-9.3999634 8.6600361-16.1399536 8.6600361-10.700016 0-19.3699989-8.6699848-19.3699989-19.3599873 0-2.6900024.5499878-5.2399902 1.539978-7.5700073l1.1500244-.6699829 1.0599976.6199951 6.4899902 3.75 2.5999794 1.5 3.9500122 2.2799683 1.3400268.7700195 2.8499756 1.6400146 3.789978 2.1900024 1.0400391.6099854 2.2999878 1.3099976.6699829.3900146.2000122.1099854 1.5200195.8800049 1.3699951.789978.7999878.460022.0899658.0599976 1.8099976 1.039978z" fill="#fff"/><path d="m49.5909195 62.8953171s-28.3887215.9436378-32.2911835 13.7322235c-5.2303867 17.1402817 29.4513187-1.3340378 29.4513187-1.3340378l16.3162346.2052383z" fill="#43434c"/><path d="m63.971283 66.2995377s1.9310684-1.915802 8.4923096-.9914017c6.5612335.9244003-5.4607849-5.0441551-8.6319389-1.9215851-3.1711541 3.1225662.1396293 2.9129868.1396293 2.9129868z" fill="#333338"/><path d="m75.4525223 93.7133713c0 .6799927-.0100098 1.3400269-.0100098 1.9899902-.0099487 2.5300293-.0199585 4.8000488-.0199585 6.8300171-.0100098 1.0599976-.0100098 2.0599976-.0100098 2.9899902l-.0599976.0400391c0 .0099487-.0100098.0099487-.0100098.0099487l-.4699707.2700195-.4200439.2399902-.039978.0300293-.5700073.3300171-.1199951.0699463-1.5800171.9100342-.0199585.0100098-.6100464.3499756h-.0099487l-.3700562.2200317-.1099854.0599976-.1400146.0799561-.0599976.0300293-1.1199951.6499634-.3299561.1900024-2.0500488 1.1900024-.0199585.0100098-.0100098.0100098-.1300049.0800171-.2700195.1499634-.0199585.0100098-.1400146.0800171-.1900024.1099854-.1500244.0900269-.3499756.2000122-.1400146.0799561-.0499878.0300293-.1799927.1099854-.2800293.1500244-.1099854.0700073-.6300049.3599854-.3499756.2000122-.6300087.3699951-.3900146.2199707-.0100098.0100098-.4299927.25-.4000244.2299805-2.3599854 1.3600464-.3599854.2099609-.039978.0200195-.1799927.0999756-.5.2900391-1.8700562 1.0799561-.0299683.0200195-.5300293.2999878h-.0099487l-.3200073.1900024-.4800415.2800293-.1399536-.0800171-1.0599976-.6099854-.2200317-.1300049-.8499756-.4899902-.0300293-.0100098-.9099731-.5300293-.1700439-.0999756-.0499878-.0300293-.1799927-.0999756-.4299927-.25-.1699829-.0999756-.9899902-.5700073-.0900269-.0500488h-.0100098l-.0200195-.0199585-.2799683-.1600342-.5-.289978-.3200073-.1900024h-.0100098c-.0100098-.0100098-.0100098-.0200195-.0199585-.0200195l-1.1200562-.6399536-.039978-.0300293-1.7399902-1-.3300171-.1900024-3.5-2.0299683-.4599609-.2700195-.2800293-.1600342-.5100098-.2999878-.6099854-.3499756-.0900269-.0499878h-.0099487l-.1400146-.0900269h-.0100095l-.4400024-.25-.1300049-.0800171-.5-.289978h-.0100098l-.289978-.1699829-.2200317-.1199951-.0899658-.0599976-.0300293-.0200195-.4099731-.2399902-.6400146-.3599854c-.1400146-.0900269-.2700195-.1700439-.4199829-.25l-.7600098-.4400024h-.0100098l-1.0199585-.6000366c0-3.0800171-.0100098-6.8200073-.0300293-11.3099976-.0100098-3.0599976.3400269-5.6900024.9299927-7.9400024.210022-.8200073.460022-1.5899658.7200317-2.3099976.0099487-.0100098.0099487-.0100098 0-.0100098.3099976-.8099976.6499634-1.5499878 1-2.25.039978-.0599976.0699463-.1199951.0999756-.1900024.2000122-.3599854.4000244-.7099609.6099854-1.0499878.0200195-.039978.0499878-.0899658.0800171-.1300049.289978-.4699707.5900269-.9099731.9000244-1.3200073 1.0099487-1.3399658 2.0799561-2.3800049 3.0899658-3.1900024.8599854-.6799927 1.6799927-1.1900024 2.3699951-1.5599976 1.210022-.6499634 2.0300293-.8800049 2.0300293-.8800049l.7299805.0400391 1.6300049.0899658.2000122.0100098 4.3800049.2300415 6.1999512-.3300171 1.6900024-.0900269 1.0599976-.0599976.4300537-.0199585s.7699623.2099609 1.9199867.8199463c.3999634.210022.8599854.4800415 1.3399658.8000488 1.4500122.9599609 3.1800537 2.4400024 4.6900024 4.6599731.1800537.2600098.3600464.5300293.5300293.8099976.4799805.789978.9299927 1.6500244 1.3399658 2.6099854v.0100098c.0700073.1400146.1300049.2900391.1800537.4400024.2999878.7399902.5699463 1.539978.8099976 2.3900146.6499633 2.3300168 1.0299681 5.0700071 1.0199584 8.2899778z" fill="#3a3636"/><path d="m57.1025429 76.9533615v39.1500244l-.5300293.2999878h-.0099488l-.3200073.1900025-.4800415.2800293-.1399536-.0800171-1.0599976-.6099854v-39.2300415z" fill="#282323"/><path d="m30.90193 87.490501h49.24379v6.290337h-49.24379z" fill="#514f4f" transform="matrix(.9198937 .3921679 -.3921679 .9198937 39.99221 -14.51417)"/><path d="m95.1925125 94.143364-.3899536.2200317-.0200195.0100098-.6799927.3899536-.1600342.0900269-.6899414.4000244-.7900391.4599609-.4699707.2700195-.0200195.0100098-.1199951.0700073-.4000244.2299805-.0700073.039978-.0999756.0599976-.1400146.0700073-.0299683.0100098-.1000366.039978-.0899658.0599976-.0200195.0100098-1.8599854 1.0700073-.6000366.3400269-.5699463.3299561-.8200073.4700317-1.0499878.5999756-.0400391.0300293-1.2299805.710022-.4500122.2599487-.0200195.0200195h-.0099487l-.4700317.2700195-1.0700073.6199951-.8699951.5199585-.1599731.0900269-.4000244.2299805-.1300049.0700073v.0100098l-.5700073.3200073-.0499878.0299683-.0700073.0400391-.0200195.0100098-.0599976.039978-.3299561.1900024-.0800171.0499878-.0300293.0100098-.0499878.0300293-.0499878.0199585-.0599976.0400391v.0099487l-.289978.1700439-.4899902.2799683-.1800537.0900269-.0199585.0199585-.0400391.0200195-.4400024.25-.1099854.0700073-.4599609.2600098-.1400146.0800171-.1400146.0799561-.0100098.0100098-.0499878.0300293-.289978.1599731-.0300293.0200195-.2399902.1400146h-.0100098l-.0700073.039978-.6400146.3800049-.1999512.1199951-.3300171.1900024-.1900024.0999756-.0599976.0400391c0 .0099487-.0100098.0099487-.0100098.0099487l-.4699707.2700195-.4200439.2399902-.039978.0300293-.5700073.3300171-.1199951.0699463-1.5800171.9100342-.789978-6.6199951-.8699951-7.210022-1.309998-11.0200197-.3200073-2.6699829 1.0899658.0200195.2600098.0100098 1.9000244.039978 1.5.039978 17.7700195.3900146.6900024 2.5.5699463 2.0400391z" fill="#1c1c1e"/><path d="m41.5625648 79.9033737-.1500244 1.2900391-.2000122 1.6699829-.5800171 4.8399658-2.2799683 19.1000366-.6400146-.3599854c-.1400146-.0900269-.2700195-.1700439-.4199829-.25l-.7600098-.4400024h-.0100098l-1.0199585-.6000366-.1900024-.1099854-.3700562-.210022-.3899536-.2199707-.0800171-.0499878-.1500244-.0800171-.2599487-.1500244-.2400513-.1499634-.0899658-.0499878-.3500366-.2000122c-.0299683-.0200195-.0499878-.0400391-.0799561-.0499878l-.0800171-.0400391-.039978-.0299683-.5100098-.2900391-.7900391-.4500122-.0499878-.0299683-.1499634-.0800171-.3699951-.2199707-1.3900146-.8099976s-.0100098 0-.0200195-.0100098l-.2999878-.1699829-1.0700073-.6199951-1.4400024-.8400269-2.0899658-1.2000122-.8200073-.4699703-.0900269-.0500488-.5-.289978-.0100098-.0100098-.2099609-.1199951h-.0100098l-.210022-.1199951-.5-.289978-.1300049-.0700073-.2000122-.1199951c-.0099487-.0100098-.0099487-.0100098-.0199585-.0100098l-.119995-.0700075-1.7400513-1.0100098-1.0199585-.5899658-1.3300171-.7700195-.7199707-.4299927-.0400391-.0200195-.0199585-.0100098-.2900391-.1699829s-.0100098 0-.0199585-.0100098l-.2600098-.1499634-.0200195-.0100098-1.3300161-.7700195 2.3300161-8.3599854.5900269-2.1500244.7299805-2.6199951 14.210022-.3200073 3.3299561-.0700073 1.960022-.039978.3699951-.0100098 1.0800171-.0299683h.2699585z" fill="#1c1c1e"/><path d="m60.6087494 62.8953171s28.3887253.9436378 32.2911835 13.7322235c5.2303848 17.1402817-29.4513168-1.3340378-29.4513168-1.3340378l-16.3162384.2052383z" fill="#43434c"/><path d="m16.5436211 81.7288284c-2.7869997 1.702446-1.8714771-.180748.2393246-2.1960831-2.5522842 1.5232468-1.8053074-.1424255.1234074-2.0488586-1.7710218.4984283-1.0707188-.5811234.5962944-1.8154907-1.9579096.2674637-.813818-.8920898 1.3101406-1.9607925-3.0368881.5396347-.1899624-1.6738281 3.2361641-2.8424072-2.9583282.2046509.2381725-1.7792816 3.8071079-2.5833054-2.4117832-.1011276 2.6458244-2.7379227 6.593914-2.9135742 1.3054314-1.2218857 8.0744209-3.6240616 10.337925-1.3952332 3.1711464 3.122551-.1396408 2.913002-.1396408 2.913002s-1.7536392-1.7258835-7.5613899-1.1031799c.2624664.1284027.4969902.2884979.6962662.4847946 3.1711502 3.122551-.139637 2.913002-.139637 2.913002s-1.5340958-1.5084534-6.4793415-1.1962433c.9235897.082016 1.7284775.3455429 2.2711849.8798981 3.1711464 3.122551-.1396389 2.9129028-.1396389 2.9129028s-.9681511-.948082-3.8313084-1.186348c.1444416.076828.2822533.1620178.4071026.2638168 3.4488869 2.8128281.1330109 2.9133835.1330109 2.9133835s-.0839367-.0669403-.2616043-.1618271c.2277031.2466278.3855896.462616.4901733.6541138 1.1638756-.4196854 1.3692017.3196106 1.3652649.9071655.0548363-.0474396.1063137-.0993958.1649914-.1415558 2.6320915-1.8884811 2.9389305-.6944504 2.9120407.0962296.1736336-.0590668.3181725-.0833664.4501266-.0934448.9149437-.6331787 1.5323677-.8755722 1.9441757-.8865204 1.3494186-.8708649 1.9773102-.8042145 2.2521706-.445137.1026611-.1057358.2119522-.2025375.3301735-.2873383 1.6043015-1.1511078 2.3434029-1.1545639 2.6714668-.8040237.6971359-.387413 1.1620522-.4806671 1.4637985-.4014359 3.3179893-2.2547607 2.5982857.7990265 2.5982857.7990265s-2.2160568 1.5774155-2.4200401 8.2003326c-.1169739 3.7984619-1.427784 1.1861496-1.843914-2.2209625-.1366615.8697128-.2368279 1.8677368-.2725525 3.0290146-.1047783 3.4018326-1.1670456 1.6601028-1.6869888-1.1874008-.0370712.4476242-.0676117.9135971-.083168 1.4183731-.0899887 2.9208755-.8866158 2.0501022-1.439312-.0565643-.0450401.4999695-.0823021 1.0224075-.0999756 1.5957489-.0938263 3.0474548-.9565277 1.9660721-1.5092239-.338623-.1263847 2.9576569-1.0345116 1.6561584-1.5706863-.807869-.0337105.4236221-.0609856.8649139-.0755806 1.3389511-.1070824 3.47789-1.215641 1.5808716-1.7215633-1.3788986-.0807686.6797485-.1383896 1.4318161-.164032 2.2639771-.0878754 2.8518295-.8490658 2.0873718-1.3994541.0892181-.2180042 1.3704529-.7575417.7878952-1.2037296-.6403732-.021801.3259506-.0411053.6586227-.0520535 1.0129013-.1075611 3.4924927-1.2252426 1.5654068-1.7281895-1.4156799-.0007687.0239105-.0027847.044754-.0035534.0688553-.0849915 2.7596283-.8004704 2.1318359-1.3452892.2780304-.000288.0103683-.0012474.0194016-.0015354.0297699-.0919075 2.9847412-.921093 2.0078506-1.4744587-.1987991-.1562538 1.5176773-.6067638 1.3266602-1.0337448.2762985-.0107574.2046585-.0249691.4000931-.0315971.6152191-.0979576 3.179985-1.0327835 1.8644638-1.5791397-.6462326-.1645107 1.8402634-.731514 1.3739014-1.2098751-.077507-.4856606 1.9743347-1.1940308 1.3373184-1.6033421-.3137512-.5097656 2.3571396-1.3031292 1.5612793-1.7135906-.3423767-.2659283.1832428-.53512.3719559-.816124.5807419-2.893122 2.1493071-1.9241059-.1240846.2407644-2.4469301z" fill="#43434c"/><path d="m45.5337296 71.6446533-.4491653 3.817894s10.9670982 5.6894226 20.4369888 0l.0374298-3.7804642z" fill="#2b2b2b"/><path d="m45.4243546 71.768013s8.6611938 5.8412704 19.9912415.151062c0 0 1.0574722-.6546249-2.7192078-1.1078262-3.7766839-.4532013-17.1713219-.8560486-17.2720337.9567642z" fill="#191919"/><path d="m55.4528389 74.1274796c3.0529251.0838394 5.3053818-.7052917 8.1090927-1.6338806v-7.5691681h-15.9524536v7.3087158c2.4737282 1.1844253 4.897419 1.8133773 7.8433609 1.8943329z" fill="#d1b89d"/><circle cx="55.343494" cy="54.627968" fill="#fff0de" r="15.224231"/><path d="m41.276829 32.944077h30.357542v22.069796h-30.357542z" fill="#fff0de"/><path d="m67.6142883 41.8690071c-2.4457626-1.3136444-7.1441956-1.3374557-9.3327103.4040375-.9680443.7702713.4969444 1.996254 1.4632111 1.2272644 1.490448-1.1859436 5.2200699-.9946022 6.8250809-.1325073 1.1247406.6041298 2.1636887-.8976517 1.0444183-1.4987946z" fill="#2b2b2b"/><path d="m43.960743 41.8690643c2.4720726-1.3136482 7.221035-1.3374596 9.4330864.4040337.9784584.7702713-.5022888 1.9962578-1.4789467 1.2272682-1.5064774-1.1859474-5.2762108-.994606-6.8984833-.1325073-1.1368408.6041298-2.1869621-.8976555-1.0556564-1.4987946z" fill="#2b2b2b"/><path d="m59.7010574 53.3488998c-3.3692436 1.5482521-6.2518806.5760841-7.4230881.0345764-.0850334.0173454-.1775436.0400047-.2097816.2358284 3.7013245 5.4489632 6.8612556 1.5532761 7.851181.0188065.038311-.2378731-.1143531-.239685-.2183113-.2892113z" fill="#d1b89d"/><path d="m66.6286163 45.2606201c-1.6906433-1.2955399-4.9871178-1.161087-6.6651764.0872993-.796917.5929337-.0194016 1.9486885.7879829 1.3480721 1.2751846-.9487495 3.8012505-1.0743675 5.0892067-.0873909.797104.6108895 1.5754853-.7444801.7879868-1.3479805z" fill="#2b2b2b"/><circle cx="63.400974" cy="46.46212" fill="#2b2b2b" r="2.116493"/><path d="m51.9029541 45.2606201c-1.6906395-1.2955399-4.987114-1.161087-6.6651726.0872993-.796917.5929337-.0194016 1.9486885.7879829 1.3480721 1.2751846-.9487495 3.8012505-1.0743675 5.0892029-.0873909.7971116.6108895 1.5754929-.7444801.7879868-1.3479805z" fill="#2b2b2b"/><circle cx="48.675316" cy="46.46212" fill="#2b2b2b" r="2.116493"/><path d="m35.4488869 51.7396126s-.2462387 4.1351662 2.7193718 4.8407402c4.3516045 1.0353279-.4220886 3.8753738-.4220886 3.8753738s3.9288597 2.0113411 4.852417-1.9329681c.9235611-3.9443092-.6334686-5.2890892-.6334686-5.2890892s-1.1801033-3.1674004.7696342-3.8247833c1.9497375-.6573868-.4104729-5.498127-.4104729-5.498127s-2.1036644-3.7052612.3078537-5.3786049c2.4115219-1.6733398 2.7193756-.179287 2.7193756-.179287s3.9507866 1.7928696 4.7717285-1.8526268 3.6942406-1.0757217 3.6942406-1.0757217 1.1801071 1.7928696 3.2324638 1.0159569c2.0523529-.7769089 3.1298409-11.3548241 3.1298409-11.3548241s-.4104691-3.7650223-3.8481674-.8366718-6.9780121.7769089-6.9780121.7769089-3.489006-2.6893005-5.7979088 2.8685875c-2.3088989 5.5578899-5.6439781 5.8766193-5.6439781 5.8766193s-4.1560249-1.7331047-3.335083 5.7969398c.8209457 7.5300407-2.0523567 6.5539246-2.0523567 6.5539246s-1.0774861 5.079792 2.9246101 5.6176529z" fill="#2b2b2b"/><path d="m55.2520256 27.0631561s8.9767952-2.4201794 13.2044182-.2326775c1.4926453.7723389 4.2999954 2.5405407 4.2752838 4.2209797-.0106506.7241669.3021317 1.5875797 1.6182175 2.1046124 1.6623459.6530647 2.674942 3.0842056 3.1869583 4.7414665.2905579.940464.2373199 1.9427109-.119812 2.8599663-.7156677 1.8381157-1.6941071 5.1036987.1504364 5.5977745 1.1329346.303463 1.4359512 1.2191048 1.4183731 2.153183-.0235367 1.2509308-.6784058 2.4178467-1.6792221 3.1686745-1.284111.9633484-4.1543961 3.5680275-2.3585968 4.859745 1.7550735 1.2624245.3360977 3.3302422-.8081284 4.5711784-.7138138.7741356-1.6701736 1.2986908-2.7188187 1.3944283-.6186066.0564766-1.2068634-.0155449-1.3427353-.4503136-.3104172-.9933357 3.6346436-.8385811.344223-3.8806725-3.2904282-3.0420914 1.9113922-7.1214561 1.9113922-7.1214561s.759201-.7946625-1.9103928-3.4642525c-1.3636932-1.3636971-.933136-5.0810852-.8315201-7.483696.0936661-2.2145767-1.108284-2.600811-3.29599-2.9572754-2.4290199-.3957825-6.0082092-1.907692-8.7709274-4.1737404" fill="#2b2b2b"/><path d="m59.2166595 59.5023766h-6.3167534c-1.0045471 0-1.0061798 1.5611801 0 1.5611801h6.3167534c1.0045472 0 1.0061799-1.5611801 0-1.5611801z" fill="#d1b89d"/><circle cx="49.260449" cy="46.093849" fill="#fff" r=".768642"/><circle cx="64.05014" cy="46.093849" fill="#fff" r=".768642"/><g fill="#2b2b2b"><path d="m54.2376366 58.866375s.256546-1.6162338 1.7958107-2.1293221c0 0-.4361229 1.1031418-1.7958107 2.1293221z"/><path d="m54.7811432 64.2138138s-.3274078-1.6033783.9336205-2.6243668c-.0000001 0-.0209313 1.186039-.9336205 2.6243668z"/><path d="m56.6659813 64.3129654s-1.0949516-1.2161827-.5254478-2.7354813c-.0000001 0 .5831413 1.0329933.5254478 2.7354813z"/><path d="m57.6076927 64.3125076s-1.0949516-1.2161789-.5254478-2.7354774c0 0 .5831413 1.0329933.5254478 2.7354774z"/><path d="m53.2137184 58.7982216s.2565422-1.6162338 1.7958107-2.1293221c0 0-.4361267 1.1031418-1.7958107 2.1293221z"/><path d="m51.7366066 59.4700356s.256546-1.61623 1.7958145-2.1293182c0-.0000001-.4361267 1.1031417-1.7958145 2.1293182z"/><path d="m50.4497833 59.7756348s.256546-1.61623 1.7958107-2.1293182c0-.0000001-.4361267 1.1031417-1.7958107 2.1293182z"/><path d="m49.9644241 62.1366653s-.018959-1.6363564 1.4120789-2.4010391c0 0-.2443657 1.1607819-1.4120789 2.4010391z"/><path d="m48.9081116 62.2844353s-.1543541-1.6291695 1.2084656-2.5096893c-.0000001-.0000001-.1474305 1.1770248-1.2084656 2.5096893z"/><path d="m47.8562775 65.0038071s-.1543541-1.6291695 1.2084694-2.5096893c0-.0000001-.1474343 1.1770248-1.2084694 2.5096893z"/><path d="m58.0809288 58.866375s-.256546-1.6162338-1.7958107-2.1293221c0 0 .4361229 1.1031418 1.7958107 2.1293221z"/><path d="m59.104847 58.7982216s-.2565422-1.6162338-1.7958107-2.1293221c0 0 .4361267 1.1031418 1.7958107 2.1293221z"/><path d="m60.5819588 59.4700356s-.256546-1.61623-1.7958145-2.1293182c0-.0000001.4361267 1.1031417 1.7958145 2.1293182z"/><path d="m61.868782 59.7756348s-.2565422-1.61623-1.7958107-2.1293182c0-.0000001.4361268 1.1031417 1.7958107 2.1293182z"/><path d="m62.3541412 62.1366653s.018959-1.6363564-1.4120789-2.4010391c.0000001 0 .2443658 1.1607819 1.4120789 2.4010391z"/><path d="m63.4104538 62.2844353s.1543541-1.6291695-1.2084656-2.5096893c0-.0000001.1474343 1.1770248 1.2084656 2.5096893z"/><path d="m64.4622879 65.0038071s.1543579-1.6291695-1.2084694-2.5096893c0-.0000001.1474342 1.1770248 1.2084694 2.5096893z"/><path d="m42.0797081 62.8163567s-.1543541-1.6291695 1.2084656-2.5096931c0-.0000001-.1474343 1.1770248-1.2084656 2.5096931z"/><path d="m41.4267769 61.8326416s-.1543541-1.6291695 1.2084656-2.5096893c0 0-.1474305 1.1770248-1.2084656 2.5096893z"/><path d="m42.7937584 63.7461853s-.1543541-1.6291695 1.2084694-2.5096931c0 0-.1474343 1.1770286-1.2084694 2.5096931z"/><path d="m43.4539299 64.7364426s-.1543541-1.6291695 1.2084694-2.5096931c0-.0000001-.1474342 1.1770248-1.2084694 2.5096931z"/><path d="m44.3434753 65.7941742s-.1543541-1.6291656 1.2084694-2.5096893c0 0-.1474342 1.1770248-1.2084694 2.5096893z"/><path d="m45.4883232 66.6761627s-.1543541-1.6291656 1.2084694-2.5096893c0 0-.1474342 1.1770248-1.2084694 2.5096893z"/><path d="m46.7701797 67.3664322s-.348362-1.5989532.8991966-2.6363525c.0000001 0-.0054054 1.1862106-.8991966 2.6363525z"/><path d="m47.8747406 67.9321899s-.3483582-1.5989609.8992004-2.6363602c0 .0000001-.0054054 1.1862107-.8992004 2.6363602z"/><path d="m49.1948318 68.7942886s-.348362-1.5989609.8992004-2.6363602c.0000001.0000001-.0054092 1.1862107-.8992004 2.6363602z"/><path d="m50.9506187 69.4196472s-.5026436-1.5573578.6377907-2.7114868c0 0 .1103096 1.1810837-.6377907 2.7114868z"/><path d="m52.8599281 69.9869461s-.6634979-1.4959259.3493576-2.7634964c0 0 .2337952 1.1629562-.3493576 2.7634964z"/><path d="m54.742691 70.1516876s-.6634941-1.4959259.3493576-2.7634964c0 0 .233799 1.1629563-.3493576 2.7634964z"/><path d="m56.8642998 70.1390457s-.8630066-1.3904114-.0341873-2.7852783c0 0 .3915824 1.1197281.0341873 2.7852783z"/><path d="m59.2603531 69.8385315s-1.0605698-1.2462769-.448864-2.7490845c0 0 .5540695 1.0488739.448864 2.7490845z"/><path d="m61.4043617 69.1717682s-1.3217735-.9648514-1.077076-2.5688248c.0000001 0 .7832185.8908997 1.077076 2.5688248z"/><path d="m63.2869911 68.0658035s-1.5039177-.6451721-1.623745-2.2632675c.0000001 0 .962452.6934052 1.623745 2.2632675z"/><path d="m65.1411285 67.044136s-1.5834274-.4132462-1.9436569-1.995285c0 0 1.0552521.541832 1.9436569 1.995285z"/><path d="m66.6190033 65.8705139s-1.618927-.2389832-2.1486969-1.772583c0 0 1.107811.4241181 2.1486969 1.772583z"/><path d="m67.7069626 64.3851471s-1.6364594-.0029984-2.3818665-1.4441719c0 0 1.1573944.259922 2.3818665 1.4441719z"/><path d="m68.5819702 62.961689s-1.6220627.2166367-2.5541306-1.1114655c.0000001 0 1.1818085.1022492 2.5541306 1.1114655z"/><path d="m70.0228729 59.6863174s-1.5725861.4527626-2.6897888-.7238693c0 0 1.1839981-.0726166 2.6897888.7238693z"/><path d="m69.3656998 61.4017982s-1.5725861.4527626-2.6897888-.7238731c-.0000001 0 1.1839981-.0726128 2.6897888.7238731z"/><path d="m70.9636841 56.4486847s-1.5725861.4527626-2.6897888-.7238693c0 0 1.1839981-.0726166 2.6897888.7238693z"/><path d="m70.7220764 58.0423431s-1.5725784.4527626-2.6897812-.7238693c0 0 1.1839981-.0726166 2.6897812.7238693z"/></g><path d="m65.8606033 49.065712c-1.8853073.6225128-3.6483574.3631172-4.6595345.0991096-.0366859.086338-.0871048.1639366-.1532745.2309685 2.3080635 1.4337387 4.0905113.5214844 4.8983803-.0898895-.0409164-.0758705-.0696258-.1544266-.0855713-.2401886z" fill="#e5cdb3"/><path d="m51.084568 49.065712c-1.8853035.6225128-3.6483574.3631172-4.6595306.0991096-.0366859.086338-.0871048.1639366-.1532745.2309685 2.3080597 1.4337387 4.0905113.5214844 4.8983765-.0898895-.0409127-.0758705-.0696259-.1544266-.0855714-.2401886z" fill="#e5cdb3"/><path d="m93.6560516 81.7288284c2.7869949 1.702446 1.8714752-.180748-.2393265-2.1960831 2.5522842 1.5232468 1.8053055-.1424255-.1234055-2.0488586 1.771019.4984283 1.0707169-.5811234-.5962982-1.8154907 1.9579086.2674637.8138199-.8920898-1.3101425-1.9607925 3.0368881.5396347.1899643-1.6738281-3.2361603-2.8424072 2.9583282.2046509-.2381744-1.7792816-3.807106-2.5833054 2.4117813-.1011276-2.6458282-2.7379227-6.5939178-2.9135742-1.3054352-1.2218857-8.0744247-3.6240616-10.3379211-1.3952332-3.1711502 3.122551.1396408 2.913002.1396408 2.913002s1.7536392-1.7258835 7.5613861-1.1031799c-.2624664.1284027-.4969864.2884979-.6962662.4847946-3.1711502 3.122551.1396408 2.913002.1396408 2.913002s1.5340958-1.5084534 6.4793396-1.1962433c-.9235916.082016-1.7284775.3455429-2.2711868.8798981-3.1711502 3.122551.1396408 2.9129028.1396408 2.9129028s.9681473-.948082 3.8313065-1.186348c-.1444397.076828-.2822495.1620178-.4071045.2638168-3.4488831 2.8128281-.1330109 2.9133835-.1330109 2.9133835s.0839386-.0669403.2616043-.1618271c-.2276993.2466278-.3855896.462616-.4901733.6541138-1.1638718-.4196854-1.3692017.3196106-1.3652649.9071655-.0548325-.0474396-.106308-.0993958-.1649857-.1415558-2.6320953-1.8884811-2.9389343-.6944504-2.9120407.0962296-.1736374-.0590668-.3181763-.0833664-.4501266-.0934448-.9149475-.6331787-1.5323715-.8755722-1.9441757-.8865204-1.3494186-.8708649-1.9773102-.8042145-2.2521744-.445137-.1026611-.1057358-.2119522-.2025375-.3301697-.2873383-1.6043015-1.1511078-2.3434067-1.1545639-2.6714706-.8040237-.6971359-.387413-1.1620483-.4806671-1.4637985-.4014359-3.3179855-2.2547607-2.5982895.7990265-2.5982895.7990265s2.2160645 1.5774155 2.4200439 8.2003326c.1169739 3.7984619 1.4277878 1.1861496 1.8439178-2.2209625.1366577.8697128.236824 1.8677368.2725525 3.0290146.1047745 3.4018326 1.1670456 1.6601028 1.6869888-1.1874008.0370712.4476242.0676117.9135971.083168 1.4183731.0899887 2.9208755.8866119 2.0501022 1.4393082-.0565643.0450439.4999695.0823059 1.0224075.0999756 1.5957489.0938263 3.0474548.9565277 1.9660721 1.5092239-.338623.1263885 2.9576569 1.0345154 1.6561584 1.5706863-.807869.0337143.4236221.0609818.8649139.0755844 1.3389511.1070786 3.47789 1.2156372 1.5808716 1.7215652-1.3788986.0807648.6797485.1383896 1.4318161.1640244 2.2639771.0878754 2.8518295.8490677 2.0873718 1.3994598.0892181.2180023 1.3704529.7575378.7878952 1.2037277-.6403732.0217972.3259506.0411072.6586227.0520554 1.0129013.1075592 3.4924927 1.2252426 1.5654068 1.7281876-1.4156799.0007706.0239105.0027847.044754.0035553.0688553.0849915 2.7596283.8004684 2.1318359 1.3452835.2780304.0002899.0103683.0012512.0194016.0015411.0297699.0919037 2.9847412.9210892 2.0078506 1.4744568-.1987991.15625 1.5176773.6067657 1.3266602 1.0337448.2762985.0107574.2046585.024971.4000931.0315933.6152191.0979614 3.179985 1.0327835 1.8644638 1.5791397-.6462326.1645126 1.8402634.731514 1.3739014 1.209877-.077507.4856644 1.9743347 1.1940308 1.3373184 1.6033401-.3137512.5097656 2.3571396 1.3031311 1.5612793 1.7135925-.3423767.2659302.1832428.5351181.3719559.816124.5807419 2.8931201 2.1493071 1.9241107-.1240846-.2407606-2.4469301z" fill="#43434c"/><path d="m96.6858902 34.2149811-.5299683-.2999878-.7200317-.4200439-.7699585-.4499512-.1100464-.0599976-.4899902-.2800293-.5100098-.289978-.8999634-.5200195-7.25-4.1799927-1.7100219-.9799805-.7199707-.4200439-.4500122-.2600098-.4899902-.289978-.0500488-.0200195-.4199829-.25-.4099731-.2399902-5.3300171-3.0700073-19.500004-11.2399904-.5300293-.3099976-.4699707.2700195-17.1099854 9.8800049-5.0200195 2.8999634-1.2999878.75-.5300293.3099976-.0999756.0500488c-.0100098 0-.0100098 0-.0100098 0l-.25.1499634-.4199829.25-.2999878.1700439-.2700195.1599731-.1799927.0999756-1.5.8699951h-.0100097l-1.7800293 1.0200195-.0099487.0100098-.5800171.3400269-.7600098.4299927-.0100098.0099487-.0299683.0200195-3.25 1.8699951h-.0100098l-2.3800049 1.3699951-1 .5800171-2.9799795 1.7200317-4.2300415 2.4399414-1.539978.8900146v53.1199951l.0700073.0400391 1.7199707 1 .75.4299927.1500244.0800171 4.3200064 2.5.6900024.3899536 4 2.3200073.4599609.2600098 1.3000488.75 3.3799438 1.9500122 5.3800049 3.0999756.6900024.4000244.0700073.039978.1500244.0800171.1099854.0700073.1799927.0999756.0400391.0200195 1.9099731 1.1099854.8800049.5 1.3300171.7800293.8899536.5099487.1800537.1000366.3099976.1799927.1900024.1099854.4799805.2800293 3.5700073 2.0499878.0899658.0499878.4400024.2600098.6199951.3599854.7200317.4199829h.0100098l.5299683.3000488 1.5100098.8699951 3.1699829 1.8399658 4.4800415 2.5800171 1.0299683.5999756.2299805.1300049.0200195-.0099487.1900024-.1100464.1400146-.0799561.0299683-.0200195.3099976-.1799927 1.8099976-1.0300293.0900269-.0499878.6900024-.4000244.5-.289978.2399902-.1400146 3.8500366-2.2199707 2.449955-1.4100342.7399902-.4299927.6600342-.3800049.6699829-.3899536.4400024-.2600098 2.3300171-1.3400269.3900146-.2199707h.0099487l.2300415-.1400146.2099609-.1199951.6300049-.3599854.8000488-.460022 1.2599487-.7299805.460022-.2700195h.0100098l.460022-.2700195.0099487-.0100098.25-.1399536.5300293-.3099976.3699951-.210022.3499756-.210022.5500488-.3099976.2099609-.1300049.3200073-.1799927.4299927-.2399902.0200195-.0100098.0499878-.0299683.1300049-.0800171.2399902-.1300049 3.7800293-2.1799927.3800049-.2199707 1.1099854-.6500244 2.9699707-1.710022 1.5599976-.8999634 8.5300293-4.9200439h.0100098l.0599976-.039978 2.6499634-1.5299683.9000244-.5200195 1.0299683-.5900269v-53.1199947zm3.2999878 55.0299682-.5199585.3000488-.3200073.1799927-.5800171.3399658-7.5899658 4.3800049-4.6700439 2.6900024-3.1199951 1.7999878-1.2799683.7400513-.7200317.4099731-2.9299927 1.6900024-.0700073.0499878-.1599731.0900269-.1799927.1099854-.5700073.3200073-.8900146.5100098-.2199707.1300049-.0500488.0299683-.8099976.4700317-.0899658.0499878-3.9100342 2.25-.0799561.0499878-.7900391.4500122-.0800171.0499878-.9099732.5300293-2.1500244 1.2399902-1.539978.8899536-1.6799927.9700317-1.0999794.6300049-2.9700317 1.7199707-1.2299805.710022-.0599976.039978h-.0200195l-.75.4400024-.2799683.1500244-1.8700562 1.0800171-3.4499512-1.9900513-1.2300415-.7099609-.6099854-.3500366-1.8099976-1.0499878-.7199707-.4099731-.6900024-.4000244-5.2600098-3.0299683-.7700195-.4500122-.0499878-.0300293-1.789978-1.0299683-2.0600586-1.1799927-.8999634-.5200195-.5800171-.3400269-.25-.1499634-.4299927-.25-.210022-.1199951-1.75-1.0100098-.3099976-.1799927-.1900024-.1099854-1.5-.8700562-3.4199829-1.9699707-3.9099731-2.2600098-1.7600098-1.0100098-3.4199829-1.9699707-4.9100332-2.8400269-.8999634-.5100098-.3900146-.2299805-.2300415-.1300049-.6699829-.3900146v-50.9699703l3.9100342-2.2600098 2.9799795-1.7199707.9299927-.5400391h.0100098l.0599976-.039978 3.2000122-1.8499756h.0100098l1.3599854-.7900391h.0100098l1.789978-1.0299683 1.25-.7200317.4299927-.25h.0100098l.7600098-.4400024.4599609-.2699585h.0100098l2.9800415-1.7200317c.0099487-.0100098.0099487-.0100098.0199585-.0100098l.7800293-.4500122.3499756-.1999512.2000122-.1199951.289978-.1700439.1700439-.0999756.2699585-.1500244.0400391-.0199585 8.0299683-4.6400146 13.3900146-7.7300415.4699707-.2699585.5300293.3099976 16.8300209 9.7099609 6.9799805 4.0300293.0499878.0300293.3200073.1799927.1099854.0599976.4400024.2600098.3500366.1999512 1.2299805.710022 1.9400024 1.1199951 7.0200195 4.039978 1.4099731.8099976.5499878.3200073.0400391.0300293.7699585.4400024.1900024.1099854.5400391.3099976.5299683.3099976 4.3599854 2.5100098v50.9699704z" opacity=".13"/><path d="m71.133461 42.3333054s-3.1522064 4.9561157-1.6359558 9.4166183 6.5299454 4.4447594 8.6239777 3.3977432c.318718-.159359.0867004-.2707291.0867004-.2707291s-5.939537-.591259-4.999855-6.5962944" fill="#2b2b2b"/></svg>