<?xml version="1.0" encoding="utf-8"?>
<!-- Generator: Adobe Illustrator 23.0.1, SVG Export Plug-In . SVG Version: 6.00 Build 0)  -->
<svg version="1.1" id="Layer_1" xmlns="http://www.w3.org/2000/svg" xmlns:xlink="http://www.w3.org/1999/xlink" x="0px" y="0px"
	 viewBox="0 0 110.7785721 127.8745728" style="enable-background:new 0 0 110.7785721 127.8745728;" xml:space="preserve">
<style type="text/css">
	.Drop_x0020_Shadow{fill:none;}
	.Round_x0020_Corners_x0020_2_x0020_pt{fill:#FFFFFF;stroke:#231F20;stroke-miterlimit:10;}
	.Live_x0020_Reflect_x0020_X{fill:none;}
	.Bevel_x0020_Soft{fill:url(#SVGID_1_);}
	.Dusk{fill:#FFFFFF;}
	.Foliage_GS{fill:#FFDD00;}
	.Pompadour_GS{fill-rule:evenodd;clip-rule:evenodd;fill:#44ADE2;}
	.st0{fill:#192A44;}
	.st1{fill:#5F6FA3;}
	.st2{fill:#9AC7F4;}
	.st3{fill:#96B8E0;}
	.st4{fill:#739DBF;}
	.st5{fill:#FFFFFF;}
	.st6{fill:#43434C;}
	.st7{fill:#333338;}
	.st8{fill:#3A3636;}
	.st9{fill:#282323;}
	.st10{fill:#514F4F;}
	.st11{fill:#1C1C1E;}
	.st12{fill:#2B2B2B;}
	.st13{fill:#191919;}
	.st14{fill:#D1B89D;}
	.st15{fill:#FFF0DE;}
	.st16{fill:#E5CDB3;}
	.st17{opacity:0.13;enable-background:new    ;}
</style>
<linearGradient id="SVGID_1_" gradientUnits="userSpaceOnUse" x1="-366.0130615" y1="-233.8326874" x2="-365.3059692" y2="-233.1255798">
	<stop  offset="0" style="stop-color:#DEDFE3"/>
	<stop  offset="0.1783311" style="stop-color:#DADBDF"/>
	<stop  offset="0.3611409" style="stop-color:#CECFD3"/>
	<stop  offset="0.546043" style="stop-color:#B9BCBF"/>
	<stop  offset="0.7323959" style="stop-color:#9CA0A2"/>
	<stop  offset="0.9181451" style="stop-color:#787D7E"/>
	<stop  offset="1" style="stop-color:#656B6C"/>
</linearGradient>
<g id="Layer_63_4_">
	<polygon class="st0" points="110.7225418,31.9934025 110.7225418,95.9934006 55.3025551,127.9934006 10.9525805,102.393425 
		10.7525682,102.2734299 -0.1274368,95.9934006 -0.1274368,31.9934025 55.3025551,-0.0065973 	"/>
</g>
<path class="st1" d="M101.8125687,37.1834068v53.1399498l-0.0100098,0.0100098l-1.0900269,0.6199951l-0.0999756,0.0599976
	l-0.2300415,0.1300049l-0.1299438,0.0700073l-0.8800049,0.5100098l-0.1400146,0.0800171l-3,1.7299805l-0.2000122,0.1199951
	l-0.3599854,0.210022l-0.4800415,0.2799683l-0.3899536,0.2200317l-0.0200195,0.0100098l-0.6799927,0.3899536l-0.1600342,0.0900269
	l-0.6899414,0.4000244l-0.7900391,0.4599609l-0.4699707,0.2700195l-0.0200195,0.0100098l-0.1199951,0.0700073l-0.4000244,0.2299805
	l-0.0700073,0.039978l-0.0999756,0.0599976l-0.1400146,0.0700073l-0.0299683,0.0100098l-0.1000366,0.039978l-0.0899658,0.0599976
	l-0.0200195,0.0100098l-1.8599854,1.0700073l-0.6000366,0.3400269l-0.5699463,0.3299561l-0.8200073,0.4700317l-1.0499878,0.5999756
	l-0.0400391,0.0300293l-1.2299805,0.710022l-0.4500122,0.2599487l-0.0200195,0.0200195h-0.0099487l-0.4700317,0.2700195
	l-0.6599731,0.3800049l-0.4100342,0.2399902l-0.8699951,0.5199585l-0.1599731,0.0900269l-0.4000244,0.2299805l-0.1300049,0.0700073
	c0,0,0,0,0,0.0100098l-0.5700073,0.3200073l-0.0499878,0.0299683l-0.0700073,0.0400391l-0.0200195,0.0100098l-0.0599976,0.039978
	l-0.3299561,0.1900024l-0.0800171,0.0499878l-0.0300293,0.0100098l-0.0499878,0.0300293l-0.0499878,0.0199585l-0.0599976,0.0400391
	v0.0099487l-0.289978,0.1700439l-0.4899902,0.2799683l-0.1800537,0.0900269l-0.0199585,0.0199585l-0.0400391,0.0200195
	l-0.4400024,0.25l-0.1099854,0.0700073l-0.4599609,0.2600098l-0.1400146,0.0800171l-0.1400146,0.0799561l-0.0100098,0.0100098
	l-0.0499878,0.0300293l-0.289978,0.1599731l-0.0300293,0.0200195l-0.2399902,0.1400146h-0.0100098l-0.0700073,0.039978
	l-0.6400146,0.3800049l-0.1999512,0.1199951l-0.3300171,0.1900024l-0.1900024,0.0999756l-0.0599976,0.0400391
	c0,0.0099487-0.0100098,0.0099487-0.0100098,0.0099487l-0.4699707,0.2700195l-0.4200439,0.2399902l-0.039978,0.0300293
	l-0.5700073,0.3300171l-0.1199951,0.0699463l-0.2600098,0.1500244l-1.3200073,0.7600098l-0.0199585,0.0100098l-0.6100464,0.3499756
	h-0.0099487l-0.3700562,0.2200317l-0.1099854,0.0599976l-0.1400146,0.0799561l-0.0599976,0.0300293l-1.1199951,0.6499634
	l-0.3299561,0.1900024l-2.0500488,1.1900024l-0.0199585,0.0100098l-0.0100098,0.0100098l-0.1300049,0.0800171l-0.2700195,0.1499634
	l-0.0199585,0.0100098l-0.1400146,0.0800171l-0.1900024,0.1099854l-0.1500244,0.0900269l-0.3499756,0.2000122l-0.1400146,0.0799561
	l-0.0499878,0.0300293l-0.1799927,0.1099854l-0.2800293,0.1500244l-0.1099854,0.0700073l-0.6300049,0.3599854l-0.3499756,0.2000122
	l-0.6300087,0.3699951l-0.3900146,0.2199707l-0.0100098,0.0100098l-0.4299927,0.25l-0.4000244,0.2299805l-2.3599854,1.3600464
	l-0.3599854,0.2099609l-0.039978,0.0200195l-0.1799927,0.0999756l-0.5,0.2900391l-1.8700562,1.0799561l-0.0299683,0.0200195
	l-0.5300293,0.2999878h-0.0099487l-0.3200073,0.1900024l-0.4800415,0.2800293l-0.1399536-0.0800171l-1.0599976-0.6099854
	l-0.2200317-0.1300049l-0.8499756-0.4899902l-0.0300293-0.0100098l-0.9099731-0.5300293l-0.1700439-0.0999756l-0.0499878-0.0300293
	l-0.1799927-0.0999756l-0.4299927-0.25l-0.1699829-0.0999756l-0.9899902-0.5700073l-0.0900269-0.0500488h-0.0100098
	l-0.0200195-0.0199585l-0.2799683-0.1600342l-0.5-0.289978l-0.3200073-0.1900024h-0.0100098
	c-0.0100098-0.0100098-0.0100098-0.0200195-0.0199585-0.0200195l-1.1200562-0.6399536l-0.039978-0.0300293l-1.7399902-1
	l-0.3300171-0.1900024l-3.5-2.0299683l-0.4599609-0.2700195l-0.2800293-0.1600342l-0.5100098-0.2999878l-0.6099854-0.3499756
	l-0.0900269-0.0499878h-0.0099487l-0.1400146-0.0900269H40.472538l-0.4400024-0.25l-0.1300049-0.0800171l-0.5-0.289978h-0.0100098
	l-0.289978-0.1699829l-0.2200317-0.1199951l-0.0899658-0.0599976l-0.0300293-0.0200195l-0.4099731-0.2399902l-0.25-0.1400146
	l-0.3900146-0.2199707c-0.1400146-0.0900269-0.2700195-0.1700439-0.4199829-0.25l-0.7600098-0.4400024h-0.0100098
	l-1.0199585-0.6000366l-0.1900024-0.1099854l-0.3700562-0.210022l-0.3899536-0.2199707l-0.0800171-0.0499878l-0.1500244-0.0800171
	l-0.2599487-0.1500244l-0.2400513-0.1499634l-0.0899658-0.0499878l-0.3500366-0.2000122
	c-0.0299683-0.0200195-0.0499878-0.0400391-0.0799561-0.0499878l-0.0800171-0.0400391l-0.039978-0.0299683l-0.5100098-0.2900391
	l-0.7900391-0.4500122l-0.0499878-0.0299683l-0.1499634-0.0800171l-0.3699951-0.2199707l-1.3900146-0.8099976
	c0,0-0.0100098,0-0.0200195-0.0100098l-0.2999878-0.1699829l-0.9500122-0.5500488l-0.1199951-0.0699463l-1.4400024-0.8400269
	l-2.0899658-1.2000122L24.18256,98.6234055l-0.0900269-0.0500488l-0.5-0.289978l-0.0100098-0.0100098l-0.2099609-0.1199951
	h-0.0100098l-0.210022-0.1199951l-0.5-0.289978l-0.1300049-0.0700073l-0.2000122-0.1199951
	c-0.0099487-0.0100098-0.0099487-0.0100098-0.0199585-0.0100098L22.18256,97.473381l-1.7400513-1.0100098l-1.0199585-0.5899658
	l-1.3300171-0.7700195l-0.7199707-0.4299927l-0.0400391-0.0200195l-0.0199585-0.0100098l-0.2900391-0.1699829
	c0,0-0.0100098,0-0.0199585-0.0100098l-0.2600098-0.1499634l-0.0200195-0.0100098l-1.3300161-0.7700195l-1.9699707-1.1300049
	l-1.8099976-1.0499878l-0.7700195-0.4400024L10.012517,90.433403l-0.0899658-0.0499878l-0.0800171-0.0400391l-0.0299683-0.0200195
	V37.1834068l1.2399902-0.710022l0.5599976-0.3200073l3.8599854-2.2299805l0.7700186-0.460022h0.0100098l0.25-0.1400146
	l0.5799561-0.3299561l1.75-1.0100117l0.1500244-0.0900269h0.0100098l1.5700073-0.9199829h0.0099487l0.5300293-0.2999878
	l0.4299927-0.25l0.3900146-0.2299805l0.1499634-0.0900269l2.0700073-1.1900024l0.9800415-0.5700073l1.0099487-0.5899658
	l0.4200439-0.2400513l0.4500122-0.2599487l0.25-0.1400146c0.0099487,0,0.0099487,0,0.0099487,0l0.5700073-0.3300171
	l2.3500366-1.3499756l0.8800049-0.5100098l1.5799561-0.9199829l0.1700439-0.0900269l1.6599731-0.9500122l0.7800293-0.4500122
	l0.3799438-0.2199707l0.4400024-0.2600098l1.1000366-0.6499634l0.3300171-0.1900024l0.1899414-0.1100464l0.1200562-0.0700073
	l2.1599731-1.2299805l0.6900024-0.4099731l0.539978-0.3099976l0.8400269-0.4800415l0.0200195-0.0100098h0.0099487
	l0.0500488-0.0299683l5.7199707-3.2999878l0.1900024-0.1099854l0.2700195-0.1600342l2.8599854-1.6500244l2.6099854-1.5099487
	l0.6000366-0.3500366l0.289978-0.1599731l1.1500244-0.6699829l1.0599976,0.6199951l6.4899902,3.75l2.5999794,1.5
	l3.9500122,2.2799683L71.2525711,19.5534l2.8499756,1.6400146l3.789978,2.1900024l1.0400391,0.6099854L81.2325516,25.3034
	l0.6699829,0.3900146L82.1025467,25.8034l1.5200195,0.8800049l1.3699951,0.789978l0.7999878,0.460022l0.0899658,0.0599976
	l1.8099976,1.039978l0.9400024,0.539978l2.8400269,1.6400146l0.039978,0.0300293v0.0100098L91.6025467,31.3034l0.1699829,0.0899658
	L92.0325394,31.5534l0.4000244,0.2299805l0.9199829,0.5300312l0.539978,0.3099976l0.0200195,0.0100098l1.9199829,1.1099854
	l0.7800293,0.4400024l0.4400024,0.25l1.9400024,1.1199951l0.25,0.1400146L101.8125687,37.1834068z"/>
<path class="st2" d="M101.8125687,58.8633995v31.4599571l-0.0100098,0.0100098l-1.0900269,0.6199951l-0.0999756,0.0599976
	l-0.2300415,0.1300049l-0.1299438,0.0700073l-0.8800049,0.5100098l-0.1400146,0.0800171l-3,1.7299805l-0.2000122,0.1199951
	l-0.3599854,0.210022l-0.4800415,0.2799683l-0.3899536,0.2200317l-0.0200195,0.0100098l-0.6799927,0.3899536l-0.1600342,0.0900269
	l-0.6899414,0.4000244l-0.7900391,0.4599609l-0.4699707,0.2700195l-0.0200195,0.0100098l-0.1199951,0.0700073l-0.4000244,0.2299805
	l-0.0700073,0.039978l-0.0999756,0.0599976l-0.1400146,0.0700073l-0.0299683,0.0100098l-0.1000366,0.039978l-0.0899658,0.0599976
	l-0.0200195,0.0100098l-1.8599854,1.0700073l-0.6000366,0.3400269l-0.5699463,0.3299561l-0.8200073,0.4700317l-1.0499878,0.5999756
	l-0.0400391,0.0300293l-1.2299805,0.710022l-0.4500122,0.2599487l-0.0200195,0.0200195h-0.0099487l-0.4700317,0.2700195
	l-1.0700073,0.6199951l-0.8699951,0.5199585l-0.1599731,0.0900269l-0.4000244,0.2299805l-0.1300049,0.0700073c0,0,0,0,0,0.0100098
	l-0.5700073,0.3200073l-0.0499878,0.0299683l-0.0700073,0.0400391l-0.0200195,0.0100098l-0.0599976,0.039978l-0.3299561,0.1900024
	l-0.0800171,0.0499878l-0.0300293,0.0100098l-0.0499878,0.0300293l-0.0499878,0.0199585l-0.0599976,0.0400391v0.0099487
	l-0.289978,0.1700439l-0.4899902,0.2799683l-0.1800537,0.0900269l-0.0199585,0.0199585l-0.0400391,0.0200195l-0.4400024,0.25
	l-0.1099854,0.0700073l-0.4599609,0.2600098l-0.1400146,0.0800171l-0.1400146,0.0799561l-0.0100098,0.0100098l-0.0499878,0.0300293
	l-0.289978,0.1599731l-0.0300293,0.0200195l-0.2399902,0.1400146h-0.0100098l-0.0700073,0.039978l-0.6400146,0.3800049
	l-0.1999512,0.1199951l-0.3300171,0.1900024l-0.1900024,0.0999756l-0.0599976,0.0400391
	c0,0.0099487-0.0100098,0.0099487-0.0100098,0.0099487l-0.4699707,0.2700195l-0.4200439,0.2399902l-0.039978,0.0300293
	l-0.5700073,0.3300171l-0.1199951,0.0699463l-0.2600098,0.1500244H38.1025429l-0.3900146-0.2199707
	c-0.1400146-0.0900269-0.2700195-0.1700439-0.4199829-0.25l-0.7600098-0.4400024h-0.0100098l-1.0199585-0.6000366
	l-0.1900024-0.1099854l-0.3700562-0.210022l-0.3899536-0.2199707l-0.0800171-0.0499878l-0.1500244-0.0800171l-0.2599487-0.1500244
	l-0.2400513-0.1499634l-0.0899658-0.0499878l-0.3500366-0.2000122c-0.0299683-0.0200195-0.0499878-0.0400391-0.0799561-0.0499878
	l-0.0800171-0.0400391l-0.039978-0.0299683l-0.5100098-0.2900391l-0.7900391-0.4500122l-0.0499878-0.0299683l-0.1499634-0.0800171
	l-0.3699951-0.2199707l-1.3900146-0.8099976c0,0-0.0100098,0-0.0200195-0.0100098l-0.2999878-0.1699829l-1.0700073-0.6199951
	l-1.4400024-0.8400269l-2.0899658-1.2000122L24.18256,98.6234055l-0.0900269-0.0500488l-0.5-0.289978l-0.0100098-0.0100098
	l-0.2099609-0.1199951h-0.0100098l-0.210022-0.1199951l-0.5-0.289978l-0.1300049-0.0700073l-0.2000122-0.1199951
	c-0.0099487-0.0100098-0.0099487-0.0100098-0.0199585-0.0100098L22.18256,97.473381l-1.7400513-1.0100098l-1.0199585-0.5899658
	l-1.3300171-0.7700195l-0.7199707-0.4299927l-0.0400391-0.0200195l-0.0199585-0.0100098l-0.2900391-0.1699829
	c0,0-0.0100098,0-0.0199585-0.0100098l-0.2600098-0.1499634l-0.0200195-0.0100098l-1.3300161-0.7700195l-1.9699707-1.1300049
	l-1.8099976-1.0499878l-0.7700195-0.4400024L10.012517,90.433403l-0.0899658-0.0499878l-0.0800171-0.0400391l-0.0299683-0.0200195
	V58.8633995H101.8125687z"/>
<rect x="14.092104" y="53.0151405" class="st2" width="3" height="6.5869565"/>
<rect x="21.396452" y="53.0151405" class="st2" width="3" height="6.5869565"/>
<rect x="28.7007999" y="53.0151405" class="st2" width="3" height="6.5869565"/>
<rect x="36.005146" y="53.0151405" class="st2" width="3" height="6.5869565"/>
<rect x="43.309494" y="53.0151405" class="st3" width="3" height="6.5869565"/>
<rect x="50.613842" y="53.0151405" class="st3" width="3" height="6.5869565"/>
<rect x="57.91819" y="53.0151405" class="st3" width="3" height="6.5869565"/>
<rect x="65.2225418" y="53.0151405" class="st3" width="3" height="6.5869565"/>
<rect x="72.526886" y="53.0151405" class="st2" width="3" height="6.5869565"/>
<rect x="79.8312378" y="53.0151405" class="st2" width="3" height="6.5869565"/>
<rect x="87.135582" y="53.0151405" class="st2" width="3" height="6.5869565"/>
<rect x="94.4399338" y="53.0151405" class="st2" width="3" height="6.5869565"/>
<path class="st4" d="M101.8125687,73.0634079v17.2599487l-0.0100098,0.0100098l-1.0900269,0.6199951l-0.0999756,0.0599976
	l-0.2300415,0.1300049l-0.1299438,0.0700073l-0.8800049,0.5100098l-0.1400146,0.0800171l-3,1.7299805l-0.2000122,0.1199951
	l-0.3599854,0.210022l-0.4800415,0.2799683l-0.3899536,0.2200317l-0.0200195,0.0100098l-0.6799927,0.3899536l-0.1600342,0.0900269
	l-0.6899414,0.4000244l-0.7900391,0.4599609l-0.4699707,0.2700195l-0.0200195,0.0100098l-0.1199951,0.0700073l-0.4000244,0.2299805
	l-0.0700073,0.039978l-0.0999756,0.0599976l-0.1400146,0.0700073l-0.0299683,0.0100098l-0.1000366,0.039978l-0.0899658,0.0599976
	l-0.0200195,0.0100098l-1.8599854,1.0700073l-0.6000366,0.3400269l-0.5699463,0.3299561l-0.8200073,0.4700317l-1.0499878,0.5999756
	l-0.0400391,0.0300293l-1.2299805,0.710022l-0.4500122,0.2599487l-0.0200195,0.0200195h-0.0099487l-0.4700317,0.2700195
	l-0.6599731,0.3800049l-6.1000366-6.3699951C77.0225296,94.6934128,92.0525589,85.9233932,101.8125687,73.0634079z"/>
<path class="st4" d="M34.8925209,94.6934128l-6.2399902,6.5099487l-0.1199951-0.0699463l-1.4400024-0.8400269l-2.0899658-1.2000122
	L24.18256,98.6234055l-0.0900269-0.0500488l-0.5-0.289978l-0.0100098-0.0100098l-0.2099609-0.1199951h-0.0100098
	l-0.210022-0.1199951l-0.5-0.289978l-0.1300049-0.0700073l-0.2000122-0.1199951
	c-0.0099487-0.0100098-0.0099487-0.0100098-0.0199585-0.0100098L22.18256,97.473381l-1.7400513-1.0100098l-1.0199585-0.5899658
	l-1.3300171-0.7700195l-0.7199707-0.4299927l-0.0400391-0.0200195l-0.0199585-0.0100098l-0.2900391-0.1699829
	c0,0-0.0100098,0-0.0199585-0.0100098l-0.2600098-0.1499634l-0.0200195-0.0100098l-1.3300161-0.7700195l-1.9699707-1.1300049
	l-1.8099976-1.0499878l-0.7700195-0.4400024L10.012517,90.433403l-0.0899658-0.0499878l-0.0800171-0.0400391l-0.0299683-0.0200195
	V72.6633835C19.5625648,85.7434006,34.8925209,94.6934128,34.8925209,94.6934128z"/>
<path class="st5" d="M88.632515,29.5733585c-3.4699707,5.2200336-9.3999634,8.6600361-16.1399536,8.6600361
	c-10.700016,0-19.3699989-8.6699848-19.3699989-19.3599873c0-2.6900024,0.5499878-5.2399902,1.539978-7.5700073l1.1500244-0.6699829
	l1.0599976,0.6199951l6.4899902,3.75l2.5999794,1.5l3.9500122,2.2799683L71.2525711,19.5534l2.8499756,1.6400146l3.789978,2.1900024
	l1.0400391,0.6099854L81.2325516,25.3034l0.6699829,0.3900146L82.1025467,25.8034l1.5200195,0.8800049l1.3699951,0.789978
	l0.7999878,0.460022l0.0899658,0.0599976l1.8099976,1.039978L88.632515,29.5733585z"/>
<path class="st6" d="M49.5909195,62.8953171c0,0-28.3887215,0.9436378-32.2911835,13.7322235
	c-5.2303867,17.1402817,29.4513187-1.3340378,29.4513187-1.3340378l16.3162346,0.2052383L49.5909195,62.8953171z"/>
<path class="st7" d="M63.971283,66.2995377c0,0,1.9310684-1.915802,8.4923096-0.9914017
	c6.5612335,0.9244003-5.4607849-5.0441551-8.6319389-1.9215851C60.6604996,66.5091171,63.971283,66.2995377,63.971283,66.2995377z"
	/>
<path class="st8" d="M75.4525223,93.7133713c0,0.6799927-0.0100098,1.3400269-0.0100098,1.9899902
	c-0.0099487,2.5300293-0.0199585,4.8000488-0.0199585,6.8300171c-0.0100098,1.0599976-0.0100098,2.0599976-0.0100098,2.9899902
	l-0.0599976,0.0400391c0,0.0099487-0.0100098,0.0099487-0.0100098,0.0099487l-0.4699707,0.2700195l-0.4200439,0.2399902
	l-0.039978,0.0300293l-0.5700073,0.3300171l-0.1199951,0.0699463l-1.5800171,0.9100342l-0.0199585,0.0100098l-0.6100464,0.3499756
	h-0.0099487l-0.3700562,0.2200317l-0.1099854,0.0599976l-0.1400146,0.0799561l-0.0599976,0.0300293l-1.1199951,0.6499634
	l-0.3299561,0.1900024l-2.0500488,1.1900024l-0.0199585,0.0100098l-0.0100098,0.0100098l-0.1300049,0.0800171l-0.2700195,0.1499634
	l-0.0199585,0.0100098l-0.1400146,0.0800171l-0.1900024,0.1099854l-0.1500244,0.0900269l-0.3499756,0.2000122l-0.1400146,0.0799561
	l-0.0499878,0.0300293l-0.1799927,0.1099854l-0.2800293,0.1500244l-0.1099854,0.0700073l-0.6300049,0.3599854l-0.3499756,0.2000122
	l-0.6300087,0.3699951l-0.3900146,0.2199707l-0.0100098,0.0100098l-0.4299927,0.25l-0.4000244,0.2299805l-2.3599854,1.3600464
	l-0.3599854,0.2099609l-0.039978,0.0200195l-0.1799927,0.0999756l-0.5,0.2900391l-1.8700562,1.0799561l-0.0299683,0.0200195
	l-0.5300293,0.2999878h-0.0099487l-0.3200073,0.1900024l-0.4800415,0.2800293l-0.1399536-0.0800171l-1.0599976-0.6099854
	l-0.2200317-0.1300049l-0.8499756-0.4899902l-0.0300293-0.0100098l-0.9099731-0.5300293l-0.1700439-0.0999756l-0.0499878-0.0300293
	l-0.1799927-0.0999756l-0.4299927-0.25l-0.1699829-0.0999756l-0.9899902-0.5700073l-0.0900269-0.0500488h-0.0100098
	l-0.0200195-0.0199585l-0.2799683-0.1600342l-0.5-0.289978l-0.3200073-0.1900024h-0.0100098
	c-0.0100098-0.0100098-0.0100098-0.0200195-0.0199585-0.0200195l-1.1200562-0.6399536l-0.039978-0.0300293l-1.7399902-1
	l-0.3300171-0.1900024l-3.5-2.0299683l-0.4599609-0.2700195l-0.2800293-0.1600342l-0.5100098-0.2999878l-0.6099854-0.3499756
	l-0.0900269-0.0499878h-0.0099487l-0.1400146-0.0900269H40.472538l-0.4400024-0.25l-0.1300049-0.0800171l-0.5-0.289978h-0.0100098
	l-0.289978-0.1699829l-0.2200317-0.1199951l-0.0899658-0.0599976l-0.0300293-0.0200195l-0.4099731-0.2399902l-0.6400146-0.3599854
	c-0.1400146-0.0900269-0.2700195-0.1700439-0.4199829-0.25l-0.7600098-0.4400024h-0.0100098l-1.0199585-0.6000366
	c0-3.0800171-0.0100098-6.8200073-0.0300293-11.3099976c-0.0100098-3.0599976,0.3400269-5.6900024,0.9299927-7.9400024
	c0.210022-0.8200073,0.460022-1.5899658,0.7200317-2.3099976c0.0099487-0.0100098,0.0099487-0.0100098,0-0.0100098
	c0.3099976-0.8099976,0.6499634-1.5499878,1-2.25c0.039978-0.0599976,0.0699463-0.1199951,0.0999756-0.1900024
	c0.2000122-0.3599854,0.4000244-0.7099609,0.6099854-1.0499878c0.0200195-0.039978,0.0499878-0.0899658,0.0800171-0.1300049
	c0.289978-0.4699707,0.5900269-0.9099731,0.9000244-1.3200073c1.0099487-1.3399658,2.0799561-2.3800049,3.0899658-3.1900024
	c0.8599854-0.6799927,1.6799927-1.1900024,2.3699951-1.5599976c1.210022-0.6499634,2.0300293-0.8800049,2.0300293-0.8800049
	l0.7299805,0.0400391l1.6300049,0.0899658l0.2000122,0.0100098l4.3800049,0.2300415l6.1999512-0.3300171l1.6900024-0.0900269
	l1.0599976-0.0599976l0.4300537-0.0199585c0,0,0.7699623,0.2099609,1.9199867,0.8199463
	c0.3999634,0.210022,0.8599854,0.4800415,1.3399658,0.8000488c1.4500122,0.9599609,3.1800537,2.4400024,4.6900024,4.6599731
	c0.1800537,0.2600098,0.3600464,0.5300293,0.5300293,0.8099976c0.4799805,0.789978,0.9299927,1.6500244,1.3399658,2.6099854
	c0,0.0100098,0,0.0100098,0,0.0100098c0.0700073,0.1400146,0.1300049,0.2900391,0.1800537,0.4400024
	c0.2999878,0.7399902,0.5699463,1.539978,0.8099976,2.3900146C75.0825272,87.7534103,75.462532,90.4934006,75.4525223,93.7133713z"
	/>
<polygon class="st9" points="57.1025429,76.9533615 57.1025429,116.1033859 56.5725136,116.4033737 56.5625648,116.4033737 
	56.2425575,116.5933762 55.762516,116.8734055 55.6225624,116.7933884 54.5625648,116.183403 54.5625648,76.9533615 "/>
<rect x="30.9019299" y="87.4905014" transform="matrix(0.9198937 0.3921679 -0.3921679 0.9198937 39.9922104 -14.5141697)" class="st10" width="49.2437897" height="6.2903371"/>
<path class="st11" d="M95.1925125,94.143364l-0.3899536,0.2200317l-0.0200195,0.0100098l-0.6799927,0.3899536l-0.1600342,0.0900269
	l-0.6899414,0.4000244l-0.7900391,0.4599609l-0.4699707,0.2700195l-0.0200195,0.0100098l-0.1199951,0.0700073l-0.4000244,0.2299805
	l-0.0700073,0.039978l-0.0999756,0.0599976l-0.1400146,0.0700073l-0.0299683,0.0100098l-0.1000366,0.039978l-0.0899658,0.0599976
	l-0.0200195,0.0100098l-1.8599854,1.0700073l-0.6000366,0.3400269l-0.5699463,0.3299561l-0.8200073,0.4700317l-1.0499878,0.5999756
	l-0.0400391,0.0300293l-1.2299805,0.710022l-0.4500122,0.2599487l-0.0200195,0.0200195h-0.0099487l-0.4700317,0.2700195
	l-1.0700073,0.6199951l-0.8699951,0.5199585l-0.1599731,0.0900269l-0.4000244,0.2299805l-0.1300049,0.0700073c0,0,0,0,0,0.0100098
	l-0.5700073,0.3200073l-0.0499878,0.0299683l-0.0700073,0.0400391l-0.0200195,0.0100098l-0.0599976,0.039978l-0.3299561,0.1900024
	l-0.0800171,0.0499878l-0.0300293,0.0100098l-0.0499878,0.0300293l-0.0499878,0.0199585l-0.0599976,0.0400391v0.0099487
	l-0.289978,0.1700439l-0.4899902,0.2799683l-0.1800537,0.0900269l-0.0199585,0.0199585l-0.0400391,0.0200195l-0.4400024,0.25
	l-0.1099854,0.0700073l-0.4599609,0.2600098l-0.1400146,0.0800171l-0.1400146,0.0799561l-0.0100098,0.0100098l-0.0499878,0.0300293
	l-0.289978,0.1599731l-0.0300293,0.0200195l-0.2399902,0.1400146h-0.0100098l-0.0700073,0.039978l-0.6400146,0.3800049
	l-0.1999512,0.1199951l-0.3300171,0.1900024l-0.1900024,0.0999756l-0.0599976,0.0400391
	c0,0.0099487-0.0100098,0.0099487-0.0100098,0.0099487l-0.4699707,0.2700195l-0.4200439,0.2399902l-0.039978,0.0300293
	l-0.5700073,0.3300171l-0.1199951,0.0699463l-1.5800171,0.9100342l-0.789978-6.6199951l-0.8699951-7.210022L69.172554,82.5733566
	l-0.3200073-2.6699829l1.0899658,0.0200195l0.2600098,0.0100098l1.9000244,0.039978l1.5,0.039978l17.7700195,0.3900146
	l0.6900024,2.5l0.5699463,2.0400391L95.1925125,94.143364z"/>
<path class="st11" d="M41.5625648,79.9033737l-0.1500244,1.2900391l-0.2000122,1.6699829l-0.5800171,4.8399658
	l-2.2799683,19.1000366l-0.6400146-0.3599854c-0.1400146-0.0900269-0.2700195-0.1700439-0.4199829-0.25l-0.7600098-0.4400024
	h-0.0100098l-1.0199585-0.6000366l-0.1900024-0.1099854l-0.3700562-0.210022l-0.3899536-0.2199707l-0.0800171-0.0499878
	l-0.1500244-0.0800171l-0.2599487-0.1500244l-0.2400513-0.1499634l-0.0899658-0.0499878l-0.3500366-0.2000122
	c-0.0299683-0.0200195-0.0499878-0.0400391-0.0799561-0.0499878l-0.0800171-0.0400391l-0.039978-0.0299683l-0.5100098-0.2900391
	l-0.7900391-0.4500122l-0.0499878-0.0299683l-0.1499634-0.0800171l-0.3699951-0.2199707l-1.3900146-0.8099976
	c0,0-0.0100098,0-0.0200195-0.0100098l-0.2999878-0.1699829l-1.0700073-0.6199951l-1.4400024-0.8400269l-2.0899658-1.2000122
	L24.18256,98.6234055l-0.0900269-0.0500488l-0.5-0.289978l-0.0100098-0.0100098l-0.2099609-0.1199951h-0.0100098
	l-0.210022-0.1199951l-0.5-0.289978l-0.1300049-0.0700073l-0.2000122-0.1199951
	c-0.0099487-0.0100098-0.0099487-0.0100098-0.0199585-0.0100098L22.18256,97.473381l-1.7400513-1.0100098l-1.0199585-0.5899658
	l-1.3300171-0.7700195l-0.7199707-0.4299927l-0.0400391-0.0200195l-0.0199585-0.0100098l-0.2900391-0.1699829
	c0,0-0.0100098,0-0.0199585-0.0100098l-0.2600098-0.1499634l-0.0200195-0.0100098l-1.3300161-0.7700195l2.3300161-8.3599854
	l0.5900269-2.1500244l0.7299805-2.6199951l14.210022-0.3200073l3.3299561-0.0700073l1.960022-0.039978l0.3699951-0.0100098
	l1.0800171-0.0299683h0.2699585L41.5625648,79.9033737z"/>
<path class="st6" d="M60.6087494,62.8953171c0,0,28.3887253,0.9436378,32.2911835,13.7322235
	c5.2303848,17.1402817-29.4513168-1.3340378-29.4513168-1.3340378l-16.3162384,0.2052383L60.6087494,62.8953171z"/>
<path class="st6" d="M16.5436211,81.7288284c-2.7869997,1.702446-1.8714771-0.180748,0.2393246-2.1960831
	c-2.5522842,1.5232468-1.8053074-0.1424255,0.1234074-2.0488586c-1.7710218,0.4984283-1.0707188-0.5811234,0.5962944-1.8154907
	c-1.9579096,0.2674637-0.813818-0.8920898,1.3101406-1.9607925c-3.0368881,0.5396347-0.1899624-1.6738281,3.2361641-2.8424072
	c-2.9583282,0.2046509,0.2381725-1.7792816,3.8071079-2.5833054c-2.4117832-0.1011276,2.6458244-2.7379227,6.593914-2.9135742
	c1.3054314-1.2218857,8.0744209-3.6240616,10.337925-1.3952332c3.1711464,3.122551-0.1396408,2.913002-0.1396408,2.913002
	s-1.7536392-1.7258835-7.5613899-1.1031799c0.2624664,0.1284027,0.4969902,0.2884979,0.6962662,0.4847946
	c3.1711502,3.122551-0.139637,2.913002-0.139637,2.913002s-1.5340958-1.5084534-6.4793415-1.1962433
	c0.9235897,0.082016,1.7284775,0.3455429,2.2711849,0.8798981c3.1711464,3.122551-0.1396389,2.9129028-0.1396389,2.9129028
	s-0.9681511-0.948082-3.8313084-1.186348c0.1444416,0.076828,0.2822533,0.1620178,0.4071026,0.2638168
	c3.4488869,2.8128281,0.1330109,2.9133835,0.1330109,2.9133835s-0.0839367-0.0669403-0.2616043-0.1618271
	c0.2277031,0.2466278,0.3855896,0.462616,0.4901733,0.6541138c1.1638756-0.4196854,1.3692017,0.3196106,1.3652649,0.9071655
	c0.0548363-0.0474396,0.1063137-0.0993958,0.1649914-0.1415558c2.6320915-1.8884811,2.9389305-0.6944504,2.9120407,0.0962296
	c0.1736336-0.0590668,0.3181725-0.0833664,0.4501266-0.0934448c0.9149437-0.6331787,1.5323677-0.8755722,1.9441757-0.8865204
	c1.3494186-0.8708649,1.9773102-0.8042145,2.2521706-0.445137c0.1026611-0.1057358,0.2119522-0.2025375,0.3301735-0.2873383
	c1.6043015-1.1511078,2.3434029-1.1545639,2.6714668-0.8040237c0.6971359-0.387413,1.1620522-0.4806671,1.4637985-0.4014359
	c3.3179893-2.2547607,2.5982857,0.7990265,2.5982857,0.7990265s-2.2160568,1.5774155-2.4200401,8.2003326
	c-0.1169739,3.7984619-1.427784,1.1861496-1.843914-2.2209625c-0.1366615,0.8697128-0.2368279,1.8677368-0.2725525,3.0290146
	c-0.1047783,3.4018326-1.1670456,1.6601028-1.6869888-1.1874008c-0.0370712,0.4476242-0.0676117,0.9135971-0.083168,1.4183731
	c-0.0899887,2.9208755-0.8866158,2.0501022-1.439312-0.0565643c-0.0450401,0.4999695-0.0823021,1.0224075-0.0999756,1.5957489
	c-0.0938263,3.0474548-0.9565277,1.9660721-1.5092239-0.338623c-0.1263847,2.9576569-1.0345116,1.6561584-1.5706863-0.807869
	c-0.0337105,0.4236221-0.0609856,0.8649139-0.0755806,1.3389511c-0.1070824,3.47789-1.215641,1.5808716-1.7215633-1.3788986
	c-0.0807686,0.6797485-0.1383896,1.4318161-0.164032,2.2639771c-0.0878754,2.8518295-0.8490658,2.0873718-1.3994541,0.0892181
	c-0.2180042,1.3704529-0.7575417,0.7878952-1.2037296-0.6403732c-0.021801,0.3259506-0.0411053,0.6586227-0.0520535,1.0129013
	c-0.1075611,3.4924927-1.2252426,1.5654068-1.7281895-1.4156799c-0.0007687,0.0239105-0.0027847,0.044754-0.0035534,0.0688553
	c-0.0849915,2.7596283-0.8004704,2.1318359-1.3452892,0.2780304c-0.000288,0.0103683-0.0012474,0.0194016-0.0015354,0.0297699
	c-0.0919075,2.9847412-0.921093,2.0078506-1.4744587-0.1987991c-0.1562538,1.5176773-0.6067638,1.3266602-1.0337448,0.2762985
	c-0.0107574,0.2046585-0.0249691,0.4000931-0.0315971,0.6152191c-0.0979576,3.179985-1.0327835,1.8644638-1.5791397-0.6462326
	c-0.1645107,1.8402634-0.731514,1.3739014-1.2098751-0.077507c-0.4856606,1.9743347-1.1940308,1.3373184-1.6033421-0.3137512
	c-0.5097656,2.3571396-1.3031292,1.5612793-1.7135906-0.3423767c-0.2659283,0.1832428-0.53512,0.3719559-0.816124,0.5807419
	C13.4097347,86.3250656,14.3787508,84.0516739,16.5436211,81.7288284z"/>
<path class="st12" d="M45.5337296,71.6446533l-0.4491653,3.817894c0,0,10.9670982,5.6894226,20.4369888,0l0.0374298-3.7804642
	L45.5337296,71.6446533z"/>
<path class="st13" d="M45.4243546,71.768013c0,0,8.6611938,5.8412704,19.9912415,0.151062
	c0,0,1.0574722-0.6546249-2.7192078-1.1078262C58.9197044,70.3580475,45.5250664,69.9552002,45.4243546,71.768013z"/>
<path class="st14" d="M55.4528389,74.1274796c3.0529251,0.0838394,5.3053818-0.7052917,8.1090927-1.6338806v-7.5691681H47.609478
	v7.3087158C50.0832062,73.417572,52.506897,74.046524,55.4528389,74.1274796z"/>
<circle class="st15" cx="55.3434944" cy="54.6279678" r="15.2242308"/>
<rect x="41.2768288" y="32.9440765" class="st15" width="30.357542" height="22.0697956"/>
<path class="st12" d="M67.6142883,41.8690071c-2.4457626-1.3136444-7.1441956-1.3374557-9.3327103,0.4040375
	c-0.9680443,0.7702713,0.4969444,1.996254,1.4632111,1.2272644c1.490448-1.1859436,5.2200699-0.9946022,6.8250809-0.1325073
	C67.6946106,43.9719315,68.7335587,42.47015,67.6142883,41.8690071z"/>
<path class="st12" d="M43.960743,41.8690643c2.4720726-1.3136482,7.221035-1.3374596,9.4330864,0.4040337
	c0.9784584,0.7702713-0.5022888,1.9962578-1.4789467,1.2272682c-1.5064774-1.1859474-5.2762108-0.994606-6.8984833-0.1325073
	C43.8795586,43.9719887,42.8294373,42.4702034,43.960743,41.8690643z"/>
<path class="st14" d="M59.7010574,53.3488998c-3.3692436,1.5482521-6.2518806,0.5760841-7.4230881,0.0345764
	c-0.0850334,0.0173454-0.1775436,0.0400047-0.2097816,0.2358284c3.7013245,5.4489632,6.8612556,1.5532761,7.851181,0.0188065
	C59.9576797,53.400238,59.8050156,53.3984261,59.7010574,53.3488998z"/>
<path class="st12" d="M66.6286163,45.2606201c-1.6906433-1.2955399-4.9871178-1.161087-6.6651764,0.0872993
	c-0.796917,0.5929337-0.0194016,1.9486885,0.7879829,1.3480721c1.2751846-0.9487495,3.8012505-1.0743675,5.0892067-0.0873909
	C66.6377335,47.2194901,67.4161148,45.8641205,66.6286163,45.2606201z"/>
<circle class="st12" cx="63.4009743" cy="46.4621201" r="2.1164927"/>
<path class="st12" d="M51.9029541,45.2606201c-1.6906395-1.2955399-4.987114-1.161087-6.6651726,0.0872993
	c-0.796917,0.5929337-0.0194016,1.9486885,0.7879829,1.3480721c1.2751846-0.9487495,3.8012505-1.0743675,5.0892029-0.0873909
	C51.9120789,47.2194901,52.6904602,45.8641205,51.9029541,45.2606201z"/>
<circle class="st12" cx="48.6753159" cy="46.4621201" r="2.1164927"/>
<path class="st12" d="M35.4488869,51.7396126c0,0-0.2462387,4.1351662,2.7193718,4.8407402
	c4.3516045,1.0353279-0.4220886,3.8753738-0.4220886,3.8753738s3.9288597,2.0113411,4.852417-1.9329681
	c0.9235611-3.9443092-0.6334686-5.2890892-0.6334686-5.2890892s-1.1801033-3.1674004,0.7696342-3.8247833
	c1.9497375-0.6573868-0.4104729-5.498127-0.4104729-5.498127s-2.1036644-3.7052612,0.3078537-5.3786049
	c2.4115219-1.6733398,2.7193756-0.179287,2.7193756-0.179287s3.9507866,1.7928696,4.7717285-1.8526268
	s3.6942406-1.0757217,3.6942406-1.0757217s1.1801071,1.7928696,3.2324638,1.0159569
	c2.0523529-0.7769089,3.1298409-11.3548241,3.1298409-11.3548241s-0.4104691-3.7650223-3.8481674-0.8366718
	s-6.9780121,0.7769089-6.9780121,0.7769089s-3.489006-2.6893005-5.7979088,2.8685875
	c-2.3088989,5.5578899-5.6439781,5.8766193-5.6439781,5.8766193s-4.1560249-1.7331047-3.335083,5.7969398
	c0.8209457,7.5300407-2.0523567,6.5539246-2.0523567,6.5539246S31.4467907,51.2017517,35.4488869,51.7396126z"/>
<path class="st12" d="M55.2520256,27.0631561c0,0,8.9767952-2.4201794,13.2044182-0.2326775
	c1.4926453,0.7723389,4.2999954,2.5405407,4.2752838,4.2209797c-0.0106506,0.7241669,0.3021317,1.5875797,1.6182175,2.1046124
	c1.6623459,0.6530647,2.674942,3.0842056,3.1869583,4.7414665c0.2905579,0.940464,0.2373199,1.9427109-0.119812,2.8599663
	c-0.7156677,1.8381157-1.6941071,5.1036987,0.1504364,5.5977745c1.1329346,0.303463,1.4359512,1.2191048,1.4183731,2.153183
	c-0.0235367,1.2509308-0.6784058,2.4178467-1.6792221,3.1686745c-1.284111,0.9633484-4.1543961,3.5680275-2.3585968,4.859745
	c1.7550735,1.2624245,0.3360977,3.3302422-0.8081284,4.5711784c-0.7138138,0.7741356-1.6701736,1.2986908-2.7188187,1.3944283
	c-0.6186066,0.0564766-1.2068634-0.0155449-1.3427353-0.4503136c-0.3104172-0.9933357,3.6346436-0.8385811,0.344223-3.8806725
	c-3.2904282-3.0420914,1.9113922-7.1214561,1.9113922-7.1214561s0.759201-0.7946625-1.9103928-3.4642525
	c-1.3636932-1.3636971-0.933136-5.0810852-0.8315201-7.483696c0.0936661-2.2145767-1.108284-2.600811-3.29599-2.9572754
	c-2.4290199-0.3957825-6.0082092-1.907692-8.7709274-4.1737404"/>
<path class="st14" d="M59.2166595,59.5023766h-6.3167534c-1.0045471,0-1.0061798,1.5611801,0,1.5611801h6.3167534
	C60.2212067,61.0635567,60.2228394,59.5023766,59.2166595,59.5023766z"/>
<circle class="st5" cx="49.2604485" cy="46.0938492" r="0.7686415"/>
<circle class="st5" cx="64.0501404" cy="46.0938492" r="0.7686415"/>
<path class="st12" d="M54.2376366,58.866375c0,0,0.256546-1.6162338,1.7958107-2.1293221
	C56.0334473,56.7370529,55.5973244,57.8401947,54.2376366,58.866375z"/>
<path class="st12" d="M54.7811432,64.2138138c0,0-0.3274078-1.6033783,0.9336205-2.6243668
	C55.7147636,61.589447,55.6938324,62.775486,54.7811432,64.2138138z"/>
<path class="st12" d="M56.6659813,64.3129654c0,0-1.0949516-1.2161827-0.5254478-2.7354813
	C56.1405334,61.5774841,56.7236748,62.6104774,56.6659813,64.3129654z"/>
<path class="st12" d="M57.6076927,64.3125076c0,0-1.0949516-1.2161789-0.5254478-2.7354774
	C57.0822449,61.5770302,57.6653862,62.6100235,57.6076927,64.3125076z"/>
<path class="st12" d="M53.2137184,58.7982216c0,0,0.2565422-1.6162338,1.7958107-2.1293221
	C55.0095291,56.6688995,54.5734024,57.7720413,53.2137184,58.7982216z"/>
<path class="st12" d="M51.7366066,59.4700356c0,0,0.256546-1.61623,1.7958145-2.1293182
	C53.5324211,57.3407173,53.0962944,58.4438591,51.7366066,59.4700356z"/>
<path class="st12" d="M50.4497833,59.7756348c0,0,0.256546-1.61623,1.7958107-2.1293182
	C52.245594,57.6463165,51.8094673,58.7494583,50.4497833,59.7756348z"/>
<path class="st12" d="M49.9644241,62.1366653c0,0-0.018959-1.6363564,1.4120789-2.4010391
	C51.376503,59.7356262,51.1321373,60.8964081,49.9644241,62.1366653z"/>
<path class="st12" d="M48.9081116,62.2844353c0,0-0.1543541-1.6291695,1.2084656-2.5096893
	C50.1165771,59.7747459,49.9691467,60.9517708,48.9081116,62.2844353z"/>
<path class="st12" d="M47.8562775,65.0038071c0,0-0.1543541-1.6291695,1.2084694-2.5096893
	C49.0647469,62.4941177,48.9173126,63.6711426,47.8562775,65.0038071z"/>
<path class="st12" d="M58.0809288,58.866375c0,0-0.256546-1.6162338-1.7958107-2.1293221
	C56.2851181,56.7370529,56.721241,57.8401947,58.0809288,58.866375z"/>
<path class="st12" d="M59.104847,58.7982216c0,0-0.2565422-1.6162338-1.7958107-2.1293221
	C57.3090363,56.6688995,57.745163,57.7720413,59.104847,58.7982216z"/>
<path class="st12" d="M60.5819588,59.4700356c0,0-0.256546-1.61623-1.7958145-2.1293182
	C58.7861443,57.3407173,59.222271,58.4438591,60.5819588,59.4700356z"/>
<path class="st12" d="M61.868782,59.7756348c0,0-0.2565422-1.61623-1.7958107-2.1293182
	C60.0729713,57.6463165,60.5090981,58.7494583,61.868782,59.7756348z"/>
<path class="st12" d="M62.3541412,62.1366653c0,0,0.018959-1.6363564-1.4120789-2.4010391
	C60.9420624,59.7356262,61.1864281,60.8964081,62.3541412,62.1366653z"/>
<path class="st12" d="M63.4104538,62.2844353c0,0,0.1543541-1.6291695-1.2084656-2.5096893
	C62.2019882,59.7747459,62.3494225,60.9517708,63.4104538,62.2844353z"/>
<path class="st12" d="M64.4622879,65.0038071c0,0,0.1543579-1.6291695-1.2084694-2.5096893
	C63.2538185,62.4941177,63.4012527,63.6711426,64.4622879,65.0038071z"/>
<path class="st12" d="M42.0797081,62.8163567c0,0-0.1543541-1.6291695,1.2084656-2.5096931
	C43.2881737,60.3066635,43.1407394,61.4836884,42.0797081,62.8163567z"/>
<path class="st12" d="M41.4267769,61.8326416c0,0-0.1543541-1.6291695,1.2084656-2.5096893
	C42.6352425,59.3229523,42.487812,60.4999771,41.4267769,61.8326416z"/>
<path class="st12" d="M42.7937584,63.7461853c0,0-0.1543541-1.6291695,1.2084694-2.5096931
	C44.0022278,61.2364922,43.8547935,62.4135208,42.7937584,63.7461853z"/>
<path class="st12" d="M43.4539299,64.7364426c0,0-0.1543541-1.6291695,1.2084694-2.5096931
	C44.6623993,62.2267494,44.5149651,63.4037743,43.4539299,64.7364426z"/>
<path class="st12" d="M44.3434753,65.7941742c0,0-0.1543541-1.6291656,1.2084694-2.5096893
	C45.5519447,63.2844849,45.4045105,64.4615097,44.3434753,65.7941742z"/>
<path class="st12" d="M45.4883232,66.6761627c0,0-0.1543541-1.6291656,1.2084694-2.5096893
	C46.6967926,64.1664734,46.5493584,65.3434982,45.4883232,66.6761627z"/>
<path class="st12" d="M46.7701797,67.3664322c0,0-0.348362-1.5989532,0.8991966-2.6363525
	C47.6693764,64.7300797,47.6639709,65.9162903,46.7701797,67.3664322z"/>
<path class="st12" d="M47.8747406,67.9321899c0,0-0.3483582-1.5989609,0.8992004-2.6363602
	C48.773941,65.2958298,48.7685356,66.4820404,47.8747406,67.9321899z"/>
<path class="st12" d="M49.1948318,68.7942886c0,0-0.348362-1.5989609,0.8992004-2.6363602
	C50.0940323,66.1579285,50.088623,67.3441391,49.1948318,68.7942886z"/>
<path class="st12" d="M50.9506187,69.4196472c0,0-0.5026436-1.5573578,0.6377907-2.7114868
	C51.5884094,66.7081604,51.698719,67.8892441,50.9506187,69.4196472z"/>
<path class="st12" d="M52.8599281,69.9869461c0,0-0.6634979-1.4959259,0.3493576-2.7634964
	C53.2092857,67.2234497,53.4430809,68.3864059,52.8599281,69.9869461z"/>
<path class="st12" d="M54.742691,70.1516876c0,0-0.6634941-1.4959259,0.3493576-2.7634964
	C55.0920486,67.3881912,55.3258476,68.5511475,54.742691,70.1516876z"/>
<path class="st12" d="M56.8642998,70.1390457c0,0-0.8630066-1.3904114-0.0341873-2.7852783
	C56.8301125,67.3537674,57.2216949,68.4734955,56.8642998,70.1390457z"/>
<path class="st12" d="M59.2603531,69.8385315c0,0-1.0605698-1.2462769-0.448864-2.7490845
	C58.8114891,67.089447,59.3655586,68.1383209,59.2603531,69.8385315z"/>
<path class="st12" d="M61.4043617,69.1717682c0,0-1.3217735-0.9648514-1.077076-2.5688248
	C60.3272858,66.6029434,61.1105042,67.4938431,61.4043617,69.1717682z"/>
<path class="st12" d="M63.2869911,68.0658035c0,0-1.5039177-0.6451721-1.623745-2.2632675
	C61.6632462,65.802536,62.6256981,66.4959412,63.2869911,68.0658035z"/>
<path class="st12" d="M65.1411285,67.044136c0,0-1.5834274-0.4132462-1.9436569-1.995285
	C63.1974716,65.048851,64.2527237,65.590683,65.1411285,67.044136z"/>
<path class="st12" d="M66.6190033,65.8705139c0,0-1.618927-0.2389832-2.1486969-1.772583
	C64.4703064,64.0979309,65.5781174,64.522049,66.6190033,65.8705139z"/>
<path class="st12" d="M67.7069626,64.3851471c0,0-1.6364594-0.0029984-2.3818665-1.4441719
	C65.3250961,62.9409752,66.4824905,63.2008972,67.7069626,64.3851471z"/>
<path class="st12" d="M68.5819702,62.961689c0,0-1.6220627,0.2166367-2.5541306-1.1114655
	C66.0278397,61.8502235,67.2096481,61.9524727,68.5819702,62.961689z"/>
<path class="st12" d="M70.0228729,59.6863174c0,0-1.5725861,0.4527626-2.6897888-0.7238693
	C67.3330841,58.9624481,68.5170822,58.8898315,70.0228729,59.6863174z"/>
<path class="st12" d="M69.3656998,61.4017982c0,0-1.5725861,0.4527626-2.6897888-0.7238731
	C66.6759109,60.6779251,67.8599091,60.6053123,69.3656998,61.4017982z"/>
<path class="st12" d="M70.9636841,56.4486847c0,0-1.5725861,0.4527626-2.6897888-0.7238693
	C68.2738953,55.7248154,69.4578934,55.6521988,70.9636841,56.4486847z"/>
<path class="st12" d="M70.7220764,58.0423431c0,0-1.5725784,0.4527626-2.6897812-0.7238693
	C68.0322952,57.3184738,69.2162933,57.2458572,70.7220764,58.0423431z"/>
<path class="st16" d="M65.8606033,49.065712c-1.8853073,0.6225128-3.6483574,0.3631172-4.6595345,0.0991096
	c-0.0366859,0.086338-0.0871048,0.1639366-0.1532745,0.2309685c2.3080635,1.4337387,4.0905113,0.5214844,4.8983803-0.0898895
	C65.9052582,49.2300301,65.8765488,49.151474,65.8606033,49.065712z"/>
<path class="st16" d="M51.084568,49.065712c-1.8853035,0.6225128-3.6483574,0.3631172-4.6595306,0.0991096
	c-0.0366859,0.086338-0.0871048,0.1639366-0.1532745,0.2309685c2.3080597,1.4337387,4.0905113,0.5214844,4.8983765-0.0898895
	C51.1292267,49.2300301,51.1005135,49.151474,51.084568,49.065712z"/>
<path class="st6" d="M93.6560516,81.7288284c2.7869949,1.702446,1.8714752-0.180748-0.2393265-2.1960831
	c2.5522842,1.5232468,1.8053055-0.1424255-0.1234055-2.0488586c1.771019,0.4984283,1.0707169-0.5811234-0.5962982-1.8154907
	c1.9579086,0.2674637,0.8138199-0.8920898-1.3101425-1.9607925c3.0368881,0.5396347,0.1899643-1.6738281-3.2361603-2.8424072
	c2.9583282,0.2046509-0.2381744-1.7792816-3.807106-2.5833054c2.4117813-0.1011276-2.6458282-2.7379227-6.5939178-2.9135742
	c-1.3054352-1.2218857-8.0744247-3.6240616-10.3379211-1.3952332c-3.1711502,3.122551,0.1396408,2.913002,0.1396408,2.913002
	s1.7536392-1.7258835,7.5613861-1.1031799c-0.2624664,0.1284027-0.4969864,0.2884979-0.6962662,0.4847946
	c-3.1711502,3.122551,0.1396408,2.913002,0.1396408,2.913002s1.5340958-1.5084534,6.4793396-1.1962433
	c-0.9235916,0.082016-1.7284775,0.3455429-2.2711868,0.8798981c-3.1711502,3.122551,0.1396408,2.9129028,0.1396408,2.9129028
	s0.9681473-0.948082,3.8313065-1.186348c-0.1444397,0.076828-0.2822495,0.1620178-0.4071045,0.2638168
	c-3.4488831,2.8128281-0.1330109,2.9133835-0.1330109,2.9133835s0.0839386-0.0669403,0.2616043-0.1618271
	c-0.2276993,0.2466278-0.3855896,0.462616-0.4901733,0.6541138c-1.1638718-0.4196854-1.3692017,0.3196106-1.3652649,0.9071655
	c-0.0548325-0.0474396-0.106308-0.0993958-0.1649857-0.1415558c-2.6320953-1.8884811-2.9389343-0.6944504-2.9120407,0.0962296
	c-0.1736374-0.0590668-0.3181763-0.0833664-0.4501266-0.0934448c-0.9149475-0.6331787-1.5323715-0.8755722-1.9441757-0.8865204
	c-1.3494186-0.8708649-1.9773102-0.8042145-2.2521744-0.445137c-0.1026611-0.1057358-0.2119522-0.2025375-0.3301697-0.2873383
	c-1.6043015-1.1511078-2.3434067-1.1545639-2.6714706-0.8040237c-0.6971359-0.387413-1.1620483-0.4806671-1.4637985-0.4014359
	c-3.3179855-2.2547607-2.5982895,0.7990265-2.5982895,0.7990265s2.2160645,1.5774155,2.4200439,8.2003326
	c0.1169739,3.7984619,1.4277878,1.1861496,1.8439178-2.2209625c0.1366577,0.8697128,0.236824,1.8677368,0.2725525,3.0290146
	c0.1047745,3.4018326,1.1670456,1.6601028,1.6869888-1.1874008c0.0370712,0.4476242,0.0676117,0.9135971,0.083168,1.4183731
	c0.0899887,2.9208755,0.8866119,2.0501022,1.4393082-0.0565643c0.0450439,0.4999695,0.0823059,1.0224075,0.0999756,1.5957489
	c0.0938263,3.0474548,0.9565277,1.9660721,1.5092239-0.338623c0.1263885,2.9576569,1.0345154,1.6561584,1.5706863-0.807869
	c0.0337143,0.4236221,0.0609818,0.8649139,0.0755844,1.3389511c0.1070786,3.47789,1.2156372,1.5808716,1.7215652-1.3788986
	c0.0807648,0.6797485,0.1383896,1.4318161,0.1640244,2.2639771c0.0878754,2.8518295,0.8490677,2.0873718,1.3994598,0.0892181
	c0.2180023,1.3704529,0.7575378,0.7878952,1.2037277-0.6403732c0.0217972,0.3259506,0.0411072,0.6586227,0.0520554,1.0129013
	c0.1075592,3.4924927,1.2252426,1.5654068,1.7281876-1.4156799c0.0007706,0.0239105,0.0027847,0.044754,0.0035553,0.0688553
	c0.0849915,2.7596283,0.8004684,2.1318359,1.3452835,0.2780304c0.0002899,0.0103683,0.0012512,0.0194016,0.0015411,0.0297699
	c0.0919037,2.9847412,0.9210892,2.0078506,1.4744568-0.1987991c0.15625,1.5176773,0.6067657,1.3266602,1.0337448,0.2762985
	c0.0107574,0.2046585,0.024971,0.4000931,0.0315933,0.6152191c0.0979614,3.179985,1.0327835,1.8644638,1.5791397-0.6462326
	c0.1645126,1.8402634,0.731514,1.3739014,1.209877-0.077507c0.4856644,1.9743347,1.1940308,1.3373184,1.6033401-0.3137512
	c0.5097656,2.3571396,1.3031311,1.5612793,1.7135925-0.3423767c0.2659302,0.1832428,0.5351181,0.3719559,0.816124,0.5807419
	C96.7899323,86.3250656,95.8209229,84.0516739,93.6560516,81.7288284z"/>
<g id="Layer_2_5_">
	<g id="Layer_16_5_">
		<path class="st17" d="M96.6858902,34.2149811l-0.5299683-0.2999878l-0.7200317-0.4200439l-0.7699585-0.4499512
			l-0.1100464-0.0599976l-0.4899902-0.2800293l-0.5100098-0.289978l-0.8999634-0.5200195l-7.25-4.1799927L83.6959,26.7350006
			l-0.7199707-0.4200439l-0.4500122-0.2600098l-0.4899902-0.289978l-0.0500488-0.0200195l-0.4199829-0.25l-0.4099731-0.2399902
			l-5.3300171-3.0700073L56.325901,10.9449615l-0.5300293-0.3099976l-0.4699707,0.2700195l-17.1099854,9.8800049
			l-5.0200195,2.8999634l-1.2999878,0.75l-0.5300293,0.3099976l-0.0999756,0.0500488c-0.0100098,0-0.0100098,0-0.0100098,0
			l-0.25,0.1499634l-0.4199829,0.25l-0.2999878,0.1700439l-0.2700195,0.1599731l-0.1799927,0.0999756l-1.5,0.8699951H28.325901
			l-1.7800293,1.0200195l-0.0099487,0.0100098l-0.5800171,0.3400269l-0.7600098,0.4299927l-0.0100098,0.0099487
			l-0.0299683,0.0200195l-3.25,1.8699951h-0.0100098l-2.3800049,1.3699951l-1,0.5800171l-2.9799795,1.7200317l-4.2300415,2.4399414
			l-1.539978,0.8900146v53.1199951l0.0700073,0.0400391l1.7199707,1l0.75,0.4299927l0.1500244,0.0800171l4.3200064,2.5
			l0.6900024,0.3899536l4,2.3200073l0.4599609,0.2600098l1.3000488,0.75l3.3799438,1.9500122l5.3800049,3.0999756
			l0.6900024,0.4000244l0.0700073,0.039978l0.1500244,0.0800171l0.1099854,0.0700073l0.1799927,0.0999756l0.0400391,0.0200195
			l1.9099731,1.1099854l0.8800049,0.5l1.3300171,0.7800293l0.8899536,0.5099487l0.1800537,0.1000366l0.3099976,0.1799927
			l0.1900024,0.1099854l0.4799805,0.2800293l3.5700073,2.0499878l0.0899658,0.0499878l0.4400024,0.2600098l0.6199951,0.3599854
			l0.7200317,0.4199829c0.0100098,0,0.0100098,0,0.0100098,0l0.5299683,0.3000488l1.5100098,0.8699951l3.1699829,1.8399658
			l4.4800415,2.5800171l1.0299683,0.5999756l0.2299805,0.1300049l0.0200195-0.0099487l0.1900024-0.1100464l0.1400146-0.0799561
			l0.0299683-0.0200195l0.3099976-0.1799927l1.8099976-1.0300293l0.0900269-0.0499878l0.6900024-0.4000244l0.5-0.289978
			l0.2399902-0.1400146l3.8500366-2.2199707l2.449955-1.4100342l0.7399902-0.4299927l0.6600342-0.3800049l0.6699829-0.3899536
			l0.4400024-0.2600098l2.3300171-1.3400269l0.3900146-0.2199707h0.0099487l0.2300415-0.1400146l0.2099609-0.1199951
			l0.6300049-0.3599854l0.8000488-0.460022l1.2599487-0.7299805l0.460022-0.2700195h0.0100098l0.460022-0.2700195
			l0.0099487-0.0100098l0.25-0.1399536l0.5300293-0.3099976l0.3699951-0.210022l0.3499756-0.210022l0.5500488-0.3099976
			l0.2099609-0.1300049l0.3200073-0.1799927l0.4299927-0.2399902l0.0200195-0.0100098l0.0499878-0.0299683l0.1300049-0.0800171
			l0.2399902-0.1300049l3.7800293-2.1799927l0.3800049-0.2199707l1.1099854-0.6500244l2.9699707-1.710022l1.5599976-0.8999634
			l8.5300293-4.9200439h0.0100098l0.0599976-0.039978l2.6499634-1.5299683l0.9000244-0.5200195l1.0299683-0.5900269V37.1949615
			L96.6858902,34.2149811z M99.985878,89.2449493l-0.5199585,0.3000488l-0.3200073,0.1799927l-0.5800171,0.3399658
			l-7.5899658,4.3800049l-4.6700439,2.6900024l-3.1199951,1.7999878l-1.2799683,0.7400513l-0.7200317,0.4099731
			l-2.9299927,1.6900024l-0.0700073,0.0499878l-0.1599731,0.0900269l-0.1799927,0.1099854l-0.5700073,0.3200073
			l-0.8900146,0.5100098l-0.2199707,0.1300049l-0.0500488,0.0299683l-0.8099976,0.4700317l-0.0899658,0.0499878l-3.9100342,2.25
			l-0.0799561,0.0499878l-0.7900391,0.4500122l-0.0800171,0.0499878L69.4459,106.8650055l-2.1500244,1.2399902l-1.539978,0.8899536
			l-1.6799927,0.9700317l-1.0999794,0.6300049l-2.9700317,1.7199707l-1.2299805,0.710022l-0.0599976,0.039978h-0.0200195
			l-0.75,0.4400024l-0.2799683,0.1500244l-1.8700562,1.0800171l-3.4499512-1.9900513l-1.2300415-0.7099609l-0.6099854-0.3500366
			l-1.8099976-1.0499878l-0.7199707-0.4099731l-0.6900024-0.4000244l-5.2600098-3.0299683l-0.7700195-0.4500122
			l-0.0499878-0.0300293l-1.789978-1.0299683l-2.0600586-1.1799927l-0.8999634-0.5200195l-0.5800171-0.3400269l-0.25-0.1499634
			l-0.4299927-0.25l-0.210022-0.1199951l-1.75-1.0100098l-0.3099976-0.1799927l-0.1900024-0.1099854l-1.5-0.8700562
			l-3.4199829-1.9699707l-3.9099731-2.2600098l-1.7600098-1.0100098l-3.4199829-1.9699707l-4.9100332-2.8400269
			l-0.8999634-0.5100098l-0.3900146-0.2299805l-0.2300415-0.1300049l-0.6699829-0.3900146V38.2749786l3.9100342-2.2600098
			l2.9799795-1.7199707l0.9299927-0.5400391h0.0100098l0.0599976-0.039978l3.2000122-1.8499756h0.0100098l1.3599854-0.7900391
			h0.0100098l1.789978-1.0299683l1.25-0.7200317l0.4299927-0.25h0.0100098l0.7600098-0.4400024l0.4599609-0.2699585h0.0100098
			l2.9800415-1.7200317c0.0099487-0.0100098,0.0099487-0.0100098,0.0199585-0.0100098l0.7800293-0.4500122l0.3499756-0.1999512
			l0.2000122-0.1199951l0.289978-0.1700439l0.1700439-0.0999756l0.2699585-0.1500244l0.0400391-0.0199585l8.0299683-4.6400146
			l13.3900146-7.7300415l0.4699707-0.2699585l0.5300293,0.3099976l16.8300209,9.7099609l6.9799805,4.0300293l0.0499878,0.0300293
			l0.3200073,0.1799927l0.1099854,0.0599976l0.4400024,0.2600098l0.3500366,0.1999512l1.2299805,0.710022l1.9400024,1.1199951
			l7.0200195,4.039978l1.4099731,0.8099976l0.5499878,0.3200073l0.0400391,0.0300293l0.7699585,0.4400024l0.1900024,0.1099854
			l0.5400391,0.3099976l0.5299683,0.3099976l4.3599854,2.5100098V89.2449493z"/>
	</g>
</g>
<path class="st12" d="M71.133461,42.3333054c0,0-3.1522064,4.9561157-1.6359558,9.4166183s6.5299454,4.4447594,8.6239777,3.3977432
	c0.318718-0.159359,0.0867004-0.2707291,0.0867004-0.2707291s-5.939537-0.591259-4.999855-6.5962944"/>
</svg>
