<?xml version="1.0" encoding="utf-8"?>
<!-- Generator: Adobe Illustrator 16.0.0, SVG Export Plug-In . SVG Version: 6.00 Build 0)  -->
<!DOCTYPE svg PUBLIC "-//W3C//DTD SVG 1.1//EN" "http://www.w3.org/Graphics/SVG/1.1/DTD/svg11.dtd">
<svg version="1.1" xmlns="http://www.w3.org/2000/svg" xmlns:xlink="http://www.w3.org/1999/xlink" x="0px" y="0px"
	 width="110.979px" height="128.417px" viewBox="0 0 110.979 128.417" enable-background="new 0 0 110.979 128.417"
	 xml:space="preserve">
<g id="Layer_1">
</g>
<g id="Layer_4">
	<g>
		<g id="Layer_2_9_">
			<g id="Layer_16_8_">
				<path opacity="0.13" enable-background="new    " d="M9.406,40.151v53.121l46.072,26.559l46.074-26.559V40.151L55.478,13.589
					L9.406,40.151z M99.687,41.231v50.971l-44.209,25.489L11.267,92.202V41.231l44.211-25.489L99.687,41.231z"/>
			</g>
		</g>
		<g id="Layer_14_1_">
			<polygon fill="#1268AA" points="110.85,96.417 55.424,128.417 0,96.417 0,32.417 55.424,0.417 110.85,32.417 			"/>
			<polygon fill="#66DFFF" points="55.924,11.591 101.924,38.15 101.924,91.275 91.497,97.294 91.252,97.414 91.129,97.474 
				91.012,97.535 55.874,117.832 9.924,91.275 9.924,38.15 			"/>
			<g>
				<path fill="#1268AA" d="M17.049,29.922C8.548,54.59,22.524,77.678,40.145,89.143c19.377,12.611,46.281,12.611,62.586-3.201
					c-0.699,1.364-0.967,2.046-1.351,2.646c-9.264,14.189-22.519,20.843-39.318,21.444c-26.385,0.941-49.571-19.637-54.787-42.305
					C3.985,53.48,6.579,40.786,17.049,29.922z"/>
				<path fill="#1268AA" d="M42.755,21.341c-5.87,19.267,5.764,36.051,19.146,43.54c13.96,7.826,31.768,7.962,44.016-5.038
					c-4.963,9.635-12.309,15.412-22.489,17.652C61.798,82.25,42.962,68.75,37.227,51.5C33.7,40.859,34.949,30.768,42.755,21.341z"/>
				<path fill="#1268AA" d="M64.034,16.689c-3.277,21.593,21.956,35.449,37.004,26.313c-3.348,6.009-11.078,8.231-17.362,7.609
					c-10.352-1.008-17.643-6.499-21.771-15.977C59.188,28.366,60.277,20.615,64.034,16.689z"/>
			</g>
			<g>
				<g>
					<g>
						<g>
							<g>
								<path fill="#024384" d="M42.073,53.961c0.572,0,1.009,0.021,1.445-0.006c0.446-0.023,0.586,0.125,0.461,0.57
									c-0.225,0.787-0.429,1.582-0.625,2.381c-0.09,0.371-0.289,0.529-0.686,0.527c-3.064-0.004-6.125,0.02-9.189,0
									c-0.627-0.004-1.266-0.094-1.877-0.238c-2.467-0.59-3.942-2.32-4.092-4.998c-0.178-3.221,0.624-6.23,2.516-8.859
									c2.086-2.896,5.062-3.803,8.498-3.41c1.701,0.195,3.223,0.826,4.328,2.195c1.412,1.754,1.758,3.776,1.188,5.904
									c-0.479,1.793-1.146,3.539-1.729,5.305C42.259,53.491,42.194,53.645,42.073,53.961z M36.022,53.854
									c0.582,0,1.162-0.018,1.744,0.004c0.408,0.018,0.613-0.143,0.723-0.545c0.453-1.664,0.972-3.309,1.386-4.979
									c0.183-0.734,0.25-1.521,0.22-2.278c-0.047-1.11-0.615-1.94-1.688-2.351c-1.939-0.74-4.232-0.002-5.297,1.773
									c-1.063,1.773-1.517,3.732-1.401,5.789c0.092,1.666,1.114,2.564,2.776,2.586C34.995,53.856,35.508,53.854,36.022,53.854z"/>
							</g>
						</g>
						<g>
							<g>
								<path fill="#024384" d="M67.532,51.803c-1.299,0-2.6,0.016-3.898-0.01c-0.504-0.01-0.67,0.219-0.67,0.676
									c0.002,0.762,0.322,1.238,1.063,1.436c0.41,0.107,0.844,0.162,1.268,0.168c1.797,0.021,3.592,0.012,5.389,0.016
									c0.607,0,0.641,0.029,0.525,0.604c-0.158,0.785-0.338,1.568-0.492,2.357c-0.063,0.314-0.209,0.49-0.545,0.484
									c-2.34-0.029-4.684-0.039-7.023-0.098c-0.469-0.012-0.943-0.154-1.398-0.299c-1.633-0.52-2.559-1.662-2.613-3.359
									c-0.084-2.557,0.469-5.004,1.732-7.238c1.199-2.111,3.195-2.984,5.516-3.11c1.146-0.062,2.334,0.013,3.453,0.255
									c1.777,0.386,2.686,1.59,2.807,3.396c0.1,1.488-0.211,2.922-0.576,4.354c-0.092,0.355-0.334,0.373-0.627,0.373
									C70.131,51.799,68.834,51.803,67.532,51.803z M66.167,48.938c0.686,0,1.369-0.014,2.049,0.006
									c0.43,0.014,0.576-0.189,0.596-0.584c0.031-0.792-0.346-1.357-1.115-1.566c-0.814-0.217-1.627-0.186-2.418,0.103
									c-0.752,0.274-1.236,0.828-1.553,1.548c-0.152,0.354-0.053,0.506,0.342,0.496C64.766,48.928,65.465,48.938,66.167,48.938z"
									/>
							</g>
						</g>
						<g>
							<path fill="#024384" d="M52.411,57.35c-1.164,0-2.33,0.055-3.489-0.014c-2.003-0.115-3.278-1.322-3.353-3.314
								c-0.045-1.232,0.11-2.492,0.326-3.713c0.367-2.066,0.862-4.114,1.277-6.174c0.085-0.416,0.26-0.579,0.686-0.567
								c0.819,0.024,1.642,0.006,2.461,0.009c0.608,0,0.647,0.055,0.527,0.652c-0.482,2.396-0.966,4.793-1.439,7.188
								c-0.073,0.369-0.127,0.748-0.129,1.121c-0.01,0.932,0.41,1.426,1.33,1.492c0.817,0.057,1.641,0.025,2.461,0.021
								c0.353-0.002,0.437-0.254,0.5-0.545c0.645-3.008,1.297-6.012,1.942-9.021c0.196-0.912,0.188-0.912,1.118-0.913
								c0.688,0,1.369-0.001,2.055,0.001c0.594,0.003,0.623,0.033,0.498,0.623c-0.521,2.458-1.049,4.911-1.568,7.37
								c-0.361,1.705-0.738,3.406-1.076,5.117c-0.102,0.504-0.289,0.729-0.842,0.707c-1.094-0.039-2.19-0.012-3.284-0.012
								C52.411,57.372,52.411,57.36,52.411,57.35z"/>
						</g>
						<g>
							<path fill="#024384" d="M87.94,50.223c0.203-0.271,0.316-0.408,0.416-0.555c1.715-2.516,3.436-5.023,5.135-7.547
								c0.281-0.418,0.6-0.588,1.102-0.576c1.111,0.029,2.225,0.006,3.334,0.006c0.16,0.001,0.322,0.018,0.588,0.035
								c-0.326,0.443-0.582,0.8-0.846,1.149c-2.744,3.646-5.498,7.288-8.225,10.946c-0.254,0.344-0.387,0.793-0.516,1.209
								c-0.203,0.67-0.367,1.352-0.527,2.031c-0.082,0.346-0.273,0.479-0.615,0.475c-1.045-0.01-2.088-0.016-3.131,0.004
								c-0.432,0.008-0.484-0.182-0.387-0.543c0.195-0.725,0.416-1.443,0.555-2.184c0.074-0.385,0.078-0.818-0.021-1.195
								c-0.443-1.682-0.939-3.352-1.412-5.025c-0.047-0.16-0.064-0.324-0.115-0.59c0.438,0,0.809,0,1.18,0
								c0.803,0,1.607,0.016,2.41-0.006c0.396-0.01,0.594,0.154,0.666,0.537C87.637,48.959,87.778,49.514,87.94,50.223z"/>
						</g>
						<g>
							<path fill="#024384" d="M82.973,46.993c-1.182,0-2.361,0.019-3.541-0.01c-0.516-0.013-0.76,0.145-0.867,0.684
								c-0.607,3.031-1.262,6.051-1.871,9.082c-0.1,0.492-0.316,0.652-0.793,0.639c-0.822-0.027-1.643-0.029-2.461-0.002
								c-0.492,0.02-0.572-0.164-0.479-0.605c0.813-3.738,1.607-7.479,2.412-11.221c0.109-0.518,0.203-1.041,0.357-1.545
								c0.053-0.166,0.277-0.395,0.426-0.395c2.889,0,5.775-0.02,8.664,0.076c1.219,0.038,1.744,0.637,2.035,1.811
								c0.08,0.332,0.16,0.664,0.252,0.994c0.1,0.354-0.008,0.498-0.395,0.496c-1.25-0.016-2.496-0.006-3.744-0.006
								C82.973,46.989,82.973,46.99,82.973,46.993z"/>
						</g>
						<g>
							<path fill="#024384" d="M18.171,62.991c-0.497,0-0.994-0.012-1.489,0.002c-0.341,0.01-0.478-0.119-0.395-0.461
								c0.209-0.879,0.398-1.766,0.643-2.639c0.043-0.156,0.293-0.27,0.463-0.377c0.061-0.037,0.17-0.018,0.254,0
								c1.14,0.205,1.83-0.398,2.153-1.371c0.372-1.113,0.618-2.271,0.879-3.416c0.474-2.082,0.927-4.166,1.369-6.254
								c0.099-0.467,0.3-0.67,0.797-0.652c0.904,0.031,1.812,0.021,2.72,0.004c0.42-0.008,0.541,0.148,0.451,0.557
								c-0.752,3.402-1.468,6.814-2.267,10.203c-0.207,0.885-0.595,1.75-1.032,2.553c-0.675,1.238-1.808,1.818-3.213,1.857
								c-0.443,0.014-0.891,0.002-1.333,0.002C18.171,62.997,18.171,62.993,18.171,62.991z"/>
						</g>
						<path fill="#024384" d="M24.415,46.874c-0.494,0-0.99-0.009-1.482,0.002c-0.33,0.008-0.484-0.086-0.396-0.449
							c0.197-0.827,0.355-1.668,0.582-2.487c0.046-0.168,0.314-0.383,0.49-0.39c1.004-0.039,2.013-0.019,3.018-0.02
							c0.299,0,0.443,0.1,0.367,0.438c-0.194,0.83-0.344,1.671-0.567,2.492c-0.047,0.172-0.333,0.375-0.528,0.396
							C25.409,46.911,24.91,46.874,24.415,46.874z"/>
					</g>
				</g>
			</g>
			<g>
				<path fill="#FFFFFF" d="M41.073,52.29c0.572,0,1.009,0.021,1.445-0.006c0.446-0.025,0.586,0.125,0.461,0.57
					c-0.225,0.787-0.429,1.582-0.625,2.381c-0.09,0.371-0.289,0.529-0.686,0.527c-3.064-0.006-6.125,0.02-9.189,0
					c-0.627-0.006-1.266-0.094-1.877-0.238c-2.467-0.59-3.942-2.32-4.092-4.998c-0.178-3.222,0.624-6.23,2.516-8.859
					c2.086-2.896,5.062-3.803,8.498-3.41c1.701,0.195,3.223,0.826,4.328,2.195c1.412,1.754,1.758,3.776,1.188,5.904
					c-0.479,1.793-1.146,3.539-1.729,5.305C41.259,51.819,41.194,51.973,41.073,52.29z M35.022,52.182
					c0.582,0,1.162-0.018,1.744,0.004c0.408,0.018,0.613-0.143,0.723-0.545c0.453-1.664,0.972-3.309,1.386-4.979
					c0.183-0.734,0.25-1.521,0.22-2.278c-0.047-1.11-0.615-1.94-1.688-2.351c-1.939-0.74-4.232-0.002-5.297,1.773
					c-1.063,1.773-1.517,3.732-1.401,5.789c0.092,1.666,1.114,2.564,2.776,2.586C33.995,52.186,34.508,52.182,35.022,52.182z"/>
				<path fill="#FFFFFF" d="M66.532,50.131c-1.299,0-2.6,0.016-3.898-0.01c-0.504-0.01-0.67,0.217-0.67,0.676
					c0.002,0.762,0.322,1.238,1.063,1.436c0.41,0.107,0.844,0.162,1.268,0.168c1.797,0.021,3.592,0.012,5.389,0.016
					c0.607,0,0.641,0.029,0.525,0.604c-0.158,0.785-0.338,1.568-0.492,2.357c-0.063,0.314-0.209,0.49-0.545,0.484
					c-2.34-0.029-4.684-0.039-7.023-0.098c-0.469-0.012-0.943-0.154-1.398-0.301c-1.633-0.52-2.559-1.66-2.613-3.357
					c-0.084-2.559,0.469-5.004,1.732-7.238c1.199-2.111,3.195-2.984,5.516-3.111c1.146-0.061,2.334,0.014,3.453,0.256
					c1.777,0.386,2.686,1.59,2.807,3.396c0.1,1.486-0.211,2.922-0.576,4.354c-0.092,0.355-0.334,0.373-0.627,0.373
					C69.131,50.127,67.834,50.131,66.532,50.131z M65.167,47.266c0.686,0,1.369-0.014,2.049,0.005
					c0.43,0.013,0.576-0.19,0.596-0.583c0.031-0.793-0.346-1.359-1.115-1.566c-0.814-0.219-1.627-0.187-2.418,0.102
					c-0.752,0.275-1.236,0.828-1.553,1.548c-0.152,0.354-0.053,0.505,0.342,0.497C63.766,47.256,64.465,47.266,65.167,47.266z"/>
				<path fill="#FFFFFF" d="M51.411,55.678c-1.164,0-2.33,0.055-3.489-0.014c-2.003-0.115-3.278-1.324-3.353-3.314
					c-0.045-1.232,0.11-2.492,0.326-3.713c0.367-2.069,0.862-4.114,1.277-6.174c0.085-0.416,0.26-0.58,0.686-0.567
					c0.819,0.024,1.642,0.006,2.461,0.008c0.608,0,0.647,0.056,0.527,0.653c-0.482,2.396-0.966,4.792-1.439,7.188
					c-0.073,0.369-0.127,0.748-0.129,1.121c-0.01,0.932,0.41,1.426,1.33,1.492c0.817,0.057,1.641,0.023,2.461,0.021
					c0.353-0.002,0.437-0.254,0.5-0.545c0.645-3.008,1.297-6.012,1.942-9.021c0.197-0.912,0.188-0.912,1.118-0.913
					c0.688,0,1.369-0.001,2.055,0.001c0.594,0.002,0.623,0.033,0.498,0.623c-0.521,2.458-1.049,4.912-1.568,7.372
					c-0.361,1.705-0.738,3.404-1.077,5.117c-0.101,0.504-0.288,0.729-0.841,0.707c-1.094-0.039-2.19-0.014-3.284-0.014
					C51.411,55.7,51.411,55.688,51.411,55.678z"/>
				<path fill="#FFFFFF" d="M86.94,48.551c0.203-0.271,0.316-0.408,0.416-0.555c1.715-2.516,3.436-5.023,5.135-7.548
					c0.281-0.417,0.6-0.588,1.102-0.575c1.111,0.029,2.225,0.006,3.334,0.006c0.16,0,0.322,0.018,0.588,0.035
					c-0.326,0.443-0.582,0.799-0.846,1.149c-2.744,3.646-5.498,7.288-8.225,10.946c-0.254,0.344-0.387,0.793-0.516,1.209
					c-0.203,0.67-0.367,1.352-0.527,2.031c-0.082,0.346-0.273,0.479-0.615,0.475c-1.045-0.012-2.088-0.016-3.131,0.004
					c-0.432,0.006-0.484-0.184-0.387-0.543c0.195-0.725,0.416-1.443,0.555-2.184c0.074-0.385,0.078-0.818-0.021-1.195
					c-0.443-1.682-0.939-3.352-1.412-5.028c-0.047-0.159-0.064-0.323-0.115-0.587c0.438,0,0.809,0,1.18,0
					c0.803,0,1.607,0.014,2.41-0.005c0.396-0.011,0.594,0.153,0.666,0.536C86.637,47.288,86.778,47.84,86.94,48.551z"/>
				<path fill="#FFFFFF" d="M81.973,45.32c-1.182,0-2.361,0.019-3.541-0.009c-0.516-0.014-0.76,0.145-0.867,0.684
					c-0.607,3.031-1.262,6.051-1.871,9.082c-0.1,0.492-0.316,0.652-0.793,0.637c-0.822-0.025-1.643-0.027-2.461,0
					c-0.492,0.02-0.572-0.164-0.479-0.605c0.813-3.738,1.607-7.48,2.412-11.222c0.109-0.517,0.203-1.041,0.357-1.546
					c0.053-0.166,0.277-0.395,0.426-0.395c2.889,0,5.775-0.019,8.664,0.077c1.219,0.038,1.744,0.636,2.035,1.81
					c0.08,0.332,0.16,0.666,0.252,0.996c0.1,0.354-0.008,0.498-0.395,0.494c-1.25-0.015-2.496-0.005-3.744-0.005
					C81.973,45.317,81.973,45.318,81.973,45.32z"/>
				<path fill="#FFFFFF" d="M17.171,61.319c-0.497,0-0.994-0.012-1.489,0.002c-0.341,0.01-0.478-0.119-0.395-0.461
					c0.209-0.879,0.398-1.766,0.643-2.639c0.043-0.156,0.293-0.27,0.463-0.379c0.061-0.035,0.17-0.016,0.254,0
					c1.14,0.205,1.83-0.396,2.153-1.369c0.372-1.113,0.618-2.271,0.879-3.416c0.474-2.082,0.927-4.166,1.369-6.256
					c0.099-0.463,0.3-0.668,0.797-0.652c0.904,0.033,1.812,0.021,2.72,0.005c0.42-0.008,0.541,0.148,0.451,0.558
					c-0.752,3.4-1.468,6.813-2.267,10.203c-0.207,0.883-0.595,1.748-1.032,2.551c-0.675,1.238-1.808,1.82-3.213,1.857
					c-0.443,0.014-0.891,0.002-1.333,0.002C17.171,61.325,17.171,61.321,17.171,61.319z"/>
				<path fill="#FFFFFF" d="M23.415,45.202c-0.494,0-0.99-0.009-1.482,0.002c-0.33,0.008-0.484-0.086-0.396-0.449
					c0.197-0.827,0.355-1.668,0.582-2.487c0.046-0.168,0.314-0.384,0.49-0.39c1.004-0.039,2.013-0.019,3.018-0.02
					c0.299,0,0.443,0.1,0.367,0.438c-0.194,0.83-0.344,1.67-0.567,2.492c-0.047,0.172-0.333,0.375-0.528,0.396
					C24.409,45.239,23.91,45.202,23.415,45.202z"/>
			</g>
		</g>
	</g>
	<g id="Layer_2_8_">
		<g id="Layer_16_7_">
			<path opacity="0.13" enable-background="new    " d="M9.78,38.151v53.121l46.072,26.559l46.074-26.559V38.151L55.852,11.589
				L9.78,38.151z M100.061,39.231v50.971l-44.209,25.489L11.641,90.202V39.231l44.211-25.489L100.061,39.231z"/>
		</g>
	</g>
	<g>
		<g>
			<path fill-rule="evenodd" clip-rule="evenodd" fill="#024384" d="M87.25,68.876c-1.318,0.715-2.445,1.387-3.625,1.95
				c-1.336,0.643-2.611,1.426-2.504,3.053c0.122,1.835,0.964,3.478,2.498,4.577c0.876,0.626,1.936,0.534,2.911,0.032
				c1.213-0.628,2.417-1.282,3.642-1.886c0.239-0.117,0.595-0.118,0.844-0.024c0.097,0.035,0.119,0.499,0.046,0.728
				c-1.118,3.519-3.12,6.275-6.688,7.656c-1.881,0.728-3.681,0.514-5.39-0.545c-0.599-0.371-1.188-0.753-1.784-1.126
				c-2.037-1.279-4.135-1.721-6.588-1.152c-8.154,1.887-16.338,3.643-24.53,5.368c-1.901,0.399-3.223,1.303-4.247,2.959
				c-2.673,4.33-6.487,5.827-11.473,4.592c-0.83-0.206-1.593-0.689-2.672-1.168c0.615-0.475,0.913-0.757,1.258-0.952
				c0.854-0.477,1.729-0.906,2.594-1.362c0.345-0.181,0.697-0.358,1.025-0.568c1.505-0.965,1.821-2.547,0.877-4.31
				c-1.554-2.89-2.779-3.66-4.652-2.81c-1.313,0.597-2.57,1.315-3.873,1.946c-0.237,0.117-0.563,0.065-0.852,0.09
				c-0.021-0.254-0.125-0.533-0.055-0.76c1.126-3.563,3.16-6.336,6.79-7.704c1.814-0.682,3.531-0.463,5.172,0.524
				c0.537,0.323,1.059,0.669,1.584,1.01c2.195,1.415,4.457,1.919,7.124,1.295c8.305-1.941,16.652-3.694,24.987-5.503
				c1.337-0.29,2.393-0.924,3.086-2.119c0.157-0.271,0.373-0.512,0.502-0.791c2.008-4.222,5.671-5.011,9.831-4.722
				C84.523,67.253,85.955,67.478,87.25,68.876z"/>
		</g>
	</g>
	<g>
		<path fill-rule="evenodd" clip-rule="evenodd" fill="#FFFFFF" d="M86.241,66.411c-1.317,0.715-2.445,1.387-3.625,1.95
			c-1.336,0.643-2.611,1.426-2.504,3.054c0.122,1.835,0.964,3.477,2.498,4.576c0.876,0.626,1.936,0.535,2.911,0.032
			c1.214-0.628,2.417-1.281,3.642-1.886c0.24-0.116,0.596-0.118,0.844-0.024c0.098,0.036,0.119,0.499,0.046,0.728
			c-1.118,3.519-3.12,6.275-6.688,7.656c-1.881,0.728-3.681,0.515-5.39-0.544c-0.599-0.371-1.188-0.753-1.784-1.127
			c-2.037-1.279-4.135-1.721-6.588-1.152c-8.154,1.887-16.338,3.644-24.53,5.368c-1.901,0.4-3.223,1.303-4.247,2.959
			c-2.673,4.331-6.487,5.827-11.473,4.592c-0.829-0.206-1.593-0.689-2.672-1.168c0.615-0.475,0.913-0.757,1.258-0.952
			c0.854-0.476,1.729-0.906,2.594-1.362c0.345-0.18,0.697-0.357,1.025-0.568c1.505-0.965,1.821-2.547,0.878-4.31
			c-1.555-2.89-2.78-3.66-4.653-2.81c-1.313,0.597-2.57,1.315-3.872,1.946c-0.238,0.118-0.563,0.066-0.853,0.09
			c-0.021-0.254-0.125-0.532-0.055-0.76c1.127-3.563,3.16-6.336,6.791-7.703c1.813-0.683,3.53-0.464,5.171,0.524
			c0.537,0.322,1.059,0.669,1.585,1.009c2.194,1.415,4.456,1.92,7.123,1.295c8.305-1.94,16.652-3.693,24.987-5.503
			c1.338-0.289,2.393-0.924,3.086-2.118c0.157-0.271,0.373-0.513,0.502-0.792c2.008-4.222,5.671-5.011,9.831-4.722
			C83.514,64.788,84.946,65.012,86.241,66.411z"/>
	</g>
</g>
<g id="Layer_3">
</g>
<g id="Layer_2">
</g>
</svg>
