<svg height="131" viewBox="0 0 113 131" width="113" xmlns="http://www.w3.org/2000/svg" xmlns:xlink="http://www.w3.org/1999/xlink"><mask id="a" fill="#fff"><path d="m.02072553.04076592h.65602304v.65602304h-.65602304z" fill="#fff" fill-rule="evenodd"/></mask><g fill="none" fill-rule="evenodd"><g fill-rule="nonzero"><path d="m55.556 127.881-55.139-31.834v-63.67l55.139-31.835 55.14 31.835v63.669z" fill="#eccf94" stroke="#42221f" stroke-width="1.8" transform="translate(1.154 1.374)"/><path d="m45.422 104.822-45.313-26.162v-52.323l45.313-26.162 45.314 26.162v52.323z" fill="#fff" fill-opacity=".338" transform="translate(11.154 13.374)"/><path d="m46.555.618-46.482 26.798v53.594l46.482 26.795 46.485-26.795v-53.594zm44.603 79.312-44.603 25.716-44.604-25.716v-51.424l44.604-25.716 44.603 25.716z" fill="#42221f" transform="translate(10.154 11.374)"/><g><g transform="translate(41.601519 29.696119)"><path d="m29.636472 7.85601556 2.3188706 5.24142264-2.0659771.9146996-2.3198903-5.24142261z" fill="#663325"/><path d="m22.8063069 5.66155223 8.4984467-3.09182751 1.5469335 4.24820364-8.4984468 3.09182751z" fill="#ff9f00"/><path d="m23.4823892 4.21251302-2.1251216.77295688 2.3209101 6.3733252 2.1241019-.7729569z" fill="#663325"/><path d="m32.1766245 8.11604723 2.1241018-.77295688-2.3198904-6.37332519-2.1251215.77295688z" fill="#663325"/><path d="m32.0522172 12.3489549c-.5997638-.0000001-1.174948.2383249-1.5989494.6625176s-.6620671.9994843-.6617965 1.599248v2.2607459l2.2607459 2.260746 2.2607459-2.260746v-2.2607459c0-.5995871-.2381851-1.1746166-.6621572-1.5985887s-.9990016-.6621572-1.5985887-.6621572z" fill="#ffa78f"/><path d="m12.9964847 31.9441256-5.81247255-8.2904214h-1.59893982l-5.18431764 5.1843176v9.5854811h4.52149182l1.13088282-2.3351863 1.12986309 2.3351863 7.91312058 1.1319026z" fill="#4a696f"/><path d="m29.7914713 16.8714664v6.7822378h-6.7822378l-5.8134923 8.2904214-2.0996282 7.6102601 10.1738664-1.1298631v-10.2493266h5.651355c1.8731448 0 3.3916287-1.5184839 3.3916287-3.3916287v-7.9131206z" fill="#384949"/><path d="m23.0092335 23.6537042-7.9131205 15.9006815-7.91312058-15.9006815h2.91643358l3.3916288 2.2607459h3.2101164l3.3916287-2.2607459z" fill="#dfd7d5"/><path d="m23.0092335 23.6537042-7.9131205 15.9006815v-13.6399356h1.6050582l3.3916287-2.2607459z" fill="#c4b3af"/><path d="m4.92224651 30.4359419h2.26074591v7.9885807h-2.26074591z" fill="#384949"/><path d="m17.3568589 19.6522757v4.0014285l-2.2607459 4.0473164-2.2607459-4.0473164v-4.0014285z" fill="#ffa78f"/><path d="m17.3568589 19.6522757v4.0014285l-2.2607459 4.0473164v-8.0487449z" fill="#f89580"/><path d="m15.096113 25.4627088-1.2807835.4517413-.3242747 1.1308828-1.4480195 1.4684141 1.5836438 1.5836439 1.4694339-1.4480195 1.4694338 1.4480195 1.5826241-1.5826241-1.4469997-1.4694339-.3242748-1.1308828z" fill="#3e5959"/><path d="m16.5655468 30.0973909 1.5826241-1.5826241-1.4469997-1.4694339-.3242748-1.1308828-1.2807834-.4517413v3.1876823z" fill="#384949"/><path d="m15.096113 25.4627088-2.2607459-1.8090046h-2.7359411l3.3916288 3.3916287z" fill="#ede9e8"/><path d="m15.096113 25.4627088 2.2607459-1.8090046h2.735941l-3.3916287 3.3916287z" fill="#dfd7d5"/><path d="m20.7484876 9.65890179v6.08168181c-.0011256 3.121254-2.5311207 5.6512491-5.6523746 5.6523747-3.121254-.0011256-5.65124908-2.5311207-5.65237467-5.6523747v-6.08168181l5.65237467.56595131z" fill="#ffcebf"/><path d="m20.7484876 9.65890179v6.08168181c-.0011256 3.121254-2.5311207 5.6512491-5.6523746 5.6523747v-11.1681052z" fill="#ffa78f"/><path d="m20.7484876 6.32029912v3.33860267l-5.6523746 2.82669721-5.65237467-2.82669721v-3.33860267z" fill="#99503d"/><path d="m20.7484876 9.65890179-5.6523746 2.82669721v-6.16529988h5.6523746z" fill="#663325"/></g><g transform="translate(29.381907 64.591986)"><path d="m5.66419642 2.13688259h42.13077348v23.69298381h-42.13077348z" fill="#85453d"/><path d="m11.3805119 6.89208678h30.6469068v14.29829742h-30.6469068z" fill="#c27749"/><path d="m41.9735329 3.466361h5.9459928v21.0817292h-5.9459928z" fill="#6a3631"/><path d="m36.0178229 6.89208678v14.29829742h5.927442v-14.29829742z" fill="#a45e43"/><path d="m.18992549.62984592h53.15086871v3.13156212h-53.15086871z" fill="#c27749"/><path d="m47.7534513.62896255h-.0017667.0017667v3.13156212h5.5952933v-3.13156212z" fill="#a45e43"/><path d="m.00265012 24.3219464h53.51481898v4.6969014h-53.51481898z" fill="#c27749"/><path d="m47.9398433 24.3219464v4.6977848h5.5952933v-4.6977848z" fill="#a45e43"/></g></g></g><g fill="#562c28" transform="translate(51.666626 72.67131)"><path d="m4.86767708 3.7101528c-.16511571-.00059502-.29882082-.13430013-.29941584-.29941584v-2.3649512c.00954624-.158666.14100534-.28245349.29995826-.28245349s.29041202.12378749.29995826.28245349v2.3649512c0 .16596194-.13453874.30050068-.30050068.30050068"/><path d="m4.42180784 3.41073696h.9275382"/><path d="m5.34934604 3.7101528h-.9275382c-.15550937-.01324982-.27498963-.14334303-.27498963-.29941584s.11948026-.28616602.27498963-.29941584h.9275382c.158666.00954624.28245349.14100534.28245349.29995826s-.12378749.29041202-.28245349.29995826"/><path d="m5.03257276 10.8342971c-2.52713419-.0029889-4.57503587-2.05089063-4.5780248-4.57802482.00298893-2.52713419 2.05089061-4.57503587 4.5780248-4.5780248 1.22261468 0 2.37254508.47515992 3.23716256 1.3397774l.298331.298331-1.29312928 1.21827532-.56086228-.59557716.6617524-.623783c-.66474153-.53240304-1.49159208-.82141793-2.3432544-.8190542-2.07562997.00239128-3.75766416 1.68442547-3.76005544 3.76005544.00239128 2.07562997 1.68442547 3.75766412 3.76005544 3.76005542"/><path d="m7.33026388 8.4834488-.58689844-.57062584c.43176632-.44586924.67043112-1.03493736.67043112-1.65655068 0-.64981916-.25602224-1.25624472-.72250344-1.708623l-.30592488-.298331.32870652-.31026424.27988872.29724616.26795548-.27554936c.62595268.6075104.96984696 1.42331008.96984696 2.29552144 0 .8353268-.3200278 1.62617516-.9004172 2.22609168"/><path d="m5.03257276 5.72361584c-.19029982.00019378-.36604072.10189659-.46102281.26679796-.09498209.16490138-.09477532.36794887.00054242.53265645.09531774.16470759.27126541.26605226.46156523.26585847.29417802-.00029958.53241357-.23902084.532114-.53319886s-.23902082-.53241358-.53319884-.53211402m0 1.88328224c-.7456821-.00059822-1.35002758-.6049437-1.3506258-1.3506258 0-.74528508.60534072-1.3506258 1.3506258-1.3506258.74420024 0 1.3506258.60534072 1.3506258 1.3506258 0 .74420024-.60642556 1.3506258-1.3506258 1.3506258m2.94751028-4.29922092-2.37905412 2.19788584"/><path d="m5.8798328 5.80714852-.55652292-.6020862 2.37905412-2.19788584.55652292.60100136z"/><path d="m8.51924852 10.8342971h-3.56152972v-.8179694h2.74356036v-.74311538l-2.47018068-1.8605006.49143252-.65415852 2.79671752 2.10567444z"/><path d="m.67674857.36877744-.32801152.32801152-.32801152-.32801152.32801152-.32801152z" mask="url(#a)" transform="translate(8.789374 .902587)"/><path d="m3.44762152 4.53680088c-.16553921.00000108-.29990307-.13387771-.30050068-.29941584v-3.19159928c0-.16596194.13453874-.30050068.30050068-.30050068s.30050068.13453874.30050068.30050068v3.19159928c-.00059761.16553813-.13496147.29941692-.30050068.29941584"/></g></g></svg>