<?xml version="1.0" encoding="utf-8"?>
<!-- Generator: Adobe Illustrator 23.0.1, SVG Export Plug-In . SVG Version: 6.00 Build 0)  -->
<svg version="1.1" id="Layer_1" xmlns="http://www.w3.org/2000/svg" xmlns:xlink="http://www.w3.org/1999/xlink" x="0px" y="0px"
	 viewBox="0 0 110.8 128.2" style="enable-background:new 0 0 110.8 128.2;" xml:space="preserve">
<style type="text/css">
	.st0{fill:#66382A;}
	.st1{fill:#FFDEB3;}
	.st2{fill:#E8B77C;}
	.st3{fill:#D89D56;}
	.st4{fill:#C9805B;}
	.st5{fill:#F2986B;}
	.st6{fill:#FFB899;}
	.st7{fill:#A34F38;}
	.st8{fill:#FFCFAB;}
	.st9{fill:none;stroke:#2D170E;stroke-width:2;stroke-miterlimit:10;}
	.st10{fill:none;stroke:#2D170E;stroke-miterlimit:10;}
	.st11{fill:#2D170E;}
	.st12{fill:#8E5347;}
	.st13{fill:#C4673D;}
	.st14{fill:#723F33;}
	.st15{fill:#D67569;}
	.st16{fill:#915549;}
	.st17{opacity:0.13;enable-background:new    ;}
</style>
<g id="Layer_63_3_">
	<polygon class="st0" points="110.9,32 110.9,96 55.5,128 11.1,102.4 10.9,102.3 0,96 0,32 55.5,0 	"/>
</g>
<path class="st1" d="M102,37.2v53.1l0,0l-1.1,0.6l-0.1,0.1l-0.2,0.1l-0.1,0.1l-0.9,0.5l-0.1,0.1l-0.5,0.3l-2.5,1.4l-0.2,0.1
	l-0.4,0.2L95,94.4l0,0l-0.7,0.4l-0.2,0.1l-0.7,0.4l-0.8,0.5L92.2,96l0,0L92,96.1l-0.4,0.2l-0.1,0l-0.1,0.1l-0.1,0.1l0,0l-0.1,0
	l-0.1,0.1l0,0l-1.9,1.1L88.6,98L88,98.3l-0.8,0.5l-1,0.6l0,0l-1.2,0.7l-0.5,0.3l0,0h0l-0.5,0.3l-1.1,0.6l-0.9,0.5l-0.2,0.1l-0.4,0.2
	l-0.1,0.1c0,0,0,0,0,0l-0.6,0.3l0,0l-0.1,0l0,0l-0.1,0l-0.3,0.2l-0.1,0l0,0l-0.1,0l0,0l-0.1,0v0l-0.3,0.2l-0.5,0.3l-0.2,0.1l0,0l0,0
	l-0.4,0.3l-0.1,0.1l-0.5,0.3l-0.3,0.2l0,0l0,0l-0.3,0.2l0,0l-0.2,0.1h0l-0.1,0l-0.6,0.4l-0.2,0.1l-0.3,0.2l-0.3,0.1c0,0,0,0,0,0
	l-0.5,0.3l-0.4,0.2l0,0l-0.6,0.3l-0.1,0.1l-1.6,0.9l-0.6,0.3h0l-0.4,0.2l-0.1,0.1l-0.1,0.1l-0.1,0l-1.1,0.7l-0.3,0.2l-2,1.2l0,0l0,0
	l-0.1,0.1l-0.3,0.2l0,0l-0.1,0.1l-0.2,0.1l-0.2,0.1l-0.3,0.2l-0.1,0.1l0,0l-0.2,0.1l-0.3,0.2l-0.1,0.1l-0.6,0.4l-0.3,0.2l-0.6,0.4
	l-0.4,0.2l0,0l-0.4,0.3l-0.4,0.2l-2.4,1.4l-0.4,0.2l0,0l-0.2,0.1l-0.5,0.3l-1.9,1.1l-0.6,0.3h0l-0.3,0.2l-0.5,0.3l-0.1-0.1l-1.3-0.7
	l-0.8-0.5l0,0l-0.9-0.5l-0.2-0.1l-0.1,0l-0.2-0.1l-0.4-0.3l-0.2-0.1l-1-0.6l-0.1,0h0l0,0l-0.3-0.2l-0.5-0.3l-0.3-0.2h0c0,0,0,0,0,0
	l-1.1-0.6l0,0l-1.7-1l-0.3-0.2l-3.5-2l-0.5-0.3l-0.3-0.2l-0.5-0.3l-0.6-0.3l-0.1,0h0l-0.1-0.1h0l-0.4-0.3l-0.1-0.1l-0.5-0.3h0
	l-0.3-0.2l-0.2-0.1l-0.1-0.1l0,0l-1.1-0.6c-0.1-0.1-0.3-0.2-0.4-0.3l-0.8-0.4h0l-1.2-0.7l-0.4-0.2l-0.4-0.2l-0.1,0l-0.1-0.1
	l-0.3-0.1l-0.2-0.2l-0.1,0l-0.3-0.2c0,0-0.1,0-0.1,0l-0.1,0l0,0l-0.5-0.3l-0.8-0.4l-0.1,0l-0.1-0.1l-0.4-0.2l-1.4-0.8c0,0,0,0,0,0
	l-0.3-0.2l-1.1-0.6l-1.4-0.8l-2.1-1.2l-0.8-0.5l-0.1,0l-0.5-0.3l0,0l-0.2-0.1h0L23.3,98l-0.5-0.3l-0.1-0.1l-0.2-0.1c0,0,0,0,0,0
	l-0.1-0.1l-1.7-1l-1-0.6l-1.3-0.8l-0.7-0.4l0,0l0,0l-0.3-0.2c0,0,0,0,0,0l-0.3-0.1l0,0l-3.3-1.9L12.9,92l-1.1-0.7L11,90.9l-0.8-0.5
	l-0.1,0l-0.1,0l0,0V37.2l1.2-0.7l0.6-0.3l3.9-2.2l0.8-0.5h0l0.3-0.1l0.6-0.3l1.8-1l0.2-0.1h0l1.6-0.9h0l0.5-0.3l0.4-0.3l0.4-0.2
	l0.2-0.1l2.1-1.2l1-0.6l1-0.6l0.4-0.2l0.5-0.3l0.3-0.1c0,0,0,0,0,0l0.6-0.3l2.4-1.3l0.9-0.5l1.6-0.9l0.2-0.1l1.7-1l0.8-0.4l0.4-0.2
	l0.4-0.3l1.1-0.6l0.3-0.2l0.2-0.1L38,21l2.2-1.2l0.6-0.4l0,0l0.5-0.3l0.8-0.5l0,0h0l0,0l5.7-3.3l0.2-0.1l0.3-0.2l2.9-1.6l2.6-1.5
	l0.6-0.4l1.4-0.8l1.1,0.6l6.5,3.8l2.6,1.5l4,2.3l1.3,0.8l2.8,1.6l3.8,2.2l1,0.6l2.3,1.3l0.7,0.4l0.2,0.1l1.5,0.9l1.4,0.8l0.8,0.5
	l0.1,0.1l1.8,1l3.8,2.2l0,0v0l0.1,0l0.2,0.1l0.3,0.2l0.4,0.2l0.9,0.5l0.5,0.3l0,0l1.9,1.1l0.8,0.4l0.4,0.3l1.9,1.1l0.3,0.1l2.3,1.3
	L102,37.2z"/>
<path class="st2" d="M101.7,37C96.4,47.4,85.5,54.5,73,54.5c-17.9,0-32.3-14.5-32.3-32.4c0-0.9,0-1.8,0.1-2.8l0,0l0.5-0.3l0.8-0.5
	l0,0h0l0,0l5.7-3.3l0.2-0.1l0.3-0.2l2.9-1.6l2.6-1.5l0.6-0.4l1.4-0.8l1.1,0.6l6.5,3.8l2.6,1.5l4,2.3l1.3,0.8l2.8,1.6l3.8,2.2l1,0.6
	l2.3,1.3l0.7,0.4l0.2,0.1l1.5,0.9l1.4,0.8l0.8,0.5l0.1,0.1l1.8,1l3.8,2.2l0,0v0l0.1,0l0.2,0.1l0.3,0.2l0.4,0.2l0.9,0.5l0.5,0.3l0,0
	l1.9,1.1l0.8,0.4l0.4,0.3l1.9,1.1l0.3,0.1L101.7,37z"/>
<path class="st2" d="M102,56.8v33.5l0,0l-1.1,0.6l-0.1,0.1l-0.2,0.1l-0.1,0.1l-0.9,0.5l-0.1,0.1l-3,1.7l-0.2,0.1l-0.4,0.2L95,94.4
	l0,0l-0.7,0.4l-0.2,0.1l-0.7,0.4l-0.8,0.5L92.2,96l0,0L92,96.1l-0.4,0.2l-0.1,0l-0.1,0.1l-0.1,0.1l0,0l-0.1,0l-0.1,0.1l0,0l-1.9,1.1
	L88.6,98L88,98.3l-0.8,0.5l-1,0.6l0,0l-1.2,0.7l-0.5,0.3l0,0h0l-0.5,0.3l-1.1,0.6l-0.9,0.5l-0.2,0.1l-0.4,0.2l-0.1,0.1c0,0,0,0,0,0
	l-0.6,0.3l0,0l-0.1,0l0,0l-0.1,0l-0.3,0.2l-0.1,0l0,0l-0.1,0l0,0l-0.1,0v0l-0.3,0.2l-0.5,0.3l-0.2,0.1l0,0l0,0l-0.4,0.3l-0.1,0.1
	l-0.5,0.3l-0.3,0.2l0,0l0,0l-0.3,0.2l0,0l-0.2,0.1h0l-0.1,0l-0.6,0.4l-0.2,0.1l-0.3,0.2l-0.3,0.1c0,0,0,0,0,0l-0.5,0.3l-0.4,0.2l0,0
	l-0.6,0.3l-0.1,0.1l-1.6,0.9l-0.6,0.3h0l-0.4,0.2l-0.1,0.1l-0.1,0.1l-0.1,0l-1.1,0.7l-0.3,0.2l-2,1.2l0,0l0,0l-0.1,0.1l-0.3,0.2l0,0
	l-0.1,0.1l-0.2,0.1l-0.2,0.1l-0.3,0.2l-0.1,0.1l0,0l-0.2,0.1l-0.3,0.2l-0.1,0.1l-0.6,0.4l-0.3,0.2l-0.6,0.4l-0.4,0.2l0,0l-0.4,0.3
	l-0.4,0.2l-2.4,1.4l-0.4,0.2l0,0l-0.2,0.1l-0.5,0.3l-1.9,1.1l-0.6,0.3h0l-0.3,0.2l-0.5,0.3l-0.1-0.1l-1.3-0.7l-0.8-0.5l0,0l-0.9-0.5
	l-0.2-0.1l-0.1,0l-0.2-0.1l-0.4-0.3l-0.2-0.1l-1-0.6l-0.1,0h0l0,0l-0.3-0.2l-0.5-0.3l-0.3-0.2h0c0,0,0,0,0,0l-1.1-0.6l0,0l-1.7-1
	l-0.3-0.2l-3.5-2l-0.5-0.3l-0.3-0.2l-0.5-0.3l-0.6-0.3l-0.1,0h0l-0.1-0.1h0l-0.4-0.3l-0.1-0.1l-0.5-0.3h0l-0.3-0.2l-0.2-0.1
	l-0.1-0.1l0,0l-1.1-0.6c-0.1-0.1-0.3-0.2-0.4-0.3l-0.8-0.4h0l-1.2-0.7l-0.4-0.2l-0.4-0.2l-0.1,0l-0.1-0.1l-0.3-0.1l-0.2-0.2l-0.1,0
	l-0.3-0.2c0,0-0.1,0-0.1,0l-0.1,0l0,0l-0.5-0.3l-0.8-0.4l-0.1,0l-0.1-0.1l-0.4-0.2l-1.4-0.8c0,0,0,0,0,0l-0.3-0.2l-1.1-0.6l-1.4-0.8
	l-2.1-1.2l-0.8-0.5l-0.1,0l-0.5-0.3l0,0l-0.2-0.1h0L23.3,98l-0.5-0.3l-0.1-0.1l-0.2-0.1c0,0,0,0,0,0l-0.1-0.1l-1.7-1l-1-0.6
	l-1.3-0.8l-0.7-0.4l0,0l0,0l-0.3-0.2c0,0,0,0,0,0l-0.3-0.1l0,0l-3.3-1.9l-1.8-1L11,90.9l-0.8-0.5l-0.1,0l-0.1,0l0,0V59.5l11.3,9.9
	l3-7.4l18.5,12.4l26.5,15.3l20-30.6l7,2.9L102,56.8z"/>
<path class="st3" d="M98.9,92.1l-2.5,1.4l-0.2,0.1l-0.4,0.2L95,94.4l0,0l-0.7,0.4l-0.2,0.1l-0.7,0.4l-0.8,0.5L92.2,96l0,0L92,96.1
	l-0.4,0.2l-0.1,0l-0.1,0.1l-0.1,0.1l0,0l-0.1,0l-0.1,0.1l0,0l-1.9,1.1L88.6,98L88,98.3l-0.8,0.5l-1,0.6l0,0l-1.2,0.7l-0.5,0.3l0,0h0
	l-0.5,0.3l-1.1,0.6l-0.9,0.5l-0.2,0.1l-0.4,0.2l-0.1,0.1c0,0,0,0,0,0l-0.6,0.3l0,0l-0.1,0l0,0l-0.1,0l-0.3,0.2l-0.1,0l0,0l-0.1,0
	l0,0l-0.1,0v0l-0.3,0.2l-0.5,0.3l-0.2,0.1l0,0l0,0l-0.4,0.3l-0.1,0.1l-0.5,0.3l-0.3,0.2l0,0l0,0l-0.3,0.2l0,0l-0.2,0.1h0l-0.1,0
	l-0.6,0.4l-0.2,0.1l-0.3,0.2l-0.3,0.1c0,0,0,0,0,0l-0.5,0.3l-0.4,0.2l0,0l-0.6,0.3l-0.1,0.1l-1.6,0.9l-0.6,0.3h0l-0.4,0.2l-0.1,0.1
	l-0.1,0.1l-0.1,0l-1.1,0.7l-0.3,0.2l-2,1.2l0,0l0,0l-0.1,0.1l-0.3,0.2l0,0l-0.1,0.1l-0.2,0.1l-0.2,0.1l-0.3,0.2l-0.1,0.1l0,0
	l-0.2,0.1l-0.3,0.2l-0.1,0.1l-0.6,0.4l-0.3,0.2l-0.6,0.4l-0.4,0.2l0,0l-0.4,0.3l-0.4,0.2l-2.4,1.4l-0.4,0.2l0,0l-0.2,0.1l-0.5,0.3
	l-1.9,1.1l-0.6,0.3h0l-0.3,0.2l-0.5,0.3l-0.1-0.1l-1.3-0.7l-0.8-0.5l0,0l-0.9-0.5l-0.2-0.1l-0.1,0l-0.2-0.1l-0.4-0.3l-0.2-0.1
	l-1-0.6l-0.1,0h0l0,0l-0.3-0.2l-0.5-0.3l-0.3-0.2h0c0,0,0,0,0,0l-1.1-0.6l0,0l-1.7-1l-0.3-0.2l-3.5-2l-0.5-0.3l-0.3-0.2l-0.5-0.3
	l-0.6-0.3l-0.1,0h0l-0.1-0.1h0l-0.4-0.3l-0.1-0.1l-0.5-0.3h0l-0.3-0.2l-0.2-0.1l-0.1-0.1l0,0l-1.1-0.6c-0.1-0.1-0.3-0.2-0.4-0.3
	l-0.8-0.4h0l-1.2-0.7l-0.4-0.2l-0.4-0.2l-0.1,0l-0.1-0.1l-0.3-0.1l-0.2-0.2l-0.1,0l-0.3-0.2c0,0-0.1,0-0.1,0l-0.1,0l0,0l-0.5-0.3
	l-0.8-0.4l-0.1,0l-0.1-0.1l-0.4-0.2l-1.4-0.8c0,0,0,0,0,0l-0.3-0.2l-1.1-0.6l-1.4-0.8l-2.1-1.2l-0.8-0.5l-0.1,0l-0.5-0.3l0,0
	l-0.2-0.1h0L23.3,98l-0.5-0.3l-0.1-0.1l-0.2-0.1c0,0,0,0,0,0l-0.1-0.1l-1.7-1l-1-0.6l-1.3-0.8l-0.7-0.4l0,0l0,0l-0.3-0.2
	c0,0,0,0,0,0l-0.3-0.1l0,0l-3.3-1.9L12.9,92c10.2-4.3,25.6-7,42.9-7C73.2,85,88.7,87.8,98.9,92.1z"/>
<path class="st4" d="M82,38.4c-0.7-1.6-2.1-2.8-4.4-2.8c-0.6,0-1.2,0.1-1.7,0.3c-1.4-0.5-2.7-0.8-4.2-1.1c-2.1-0.4-3.8-1.5-5.9-2.1
	c-2.4-0.7-4.8-0.4-7.3-0.6c-2.2-0.2-4.2-0.7-6.4-0.5c-4,0.4-7.5,2.8-11.4,3.6c-1.9,0.4-3.6,0.2-5.5,0.5c-1.7,0.3-2.7,1.9-4.2,2.2
	c-5.7,1.3-4,9.5,1.1,9.8c-0.4,0.5-0.8,1.1-0.9,1.9c-0.4,2.5,0.1,4.8,0.5,7c0,0.3,0.1,0.6,0.2,0.9c-0.1,0.6-0.1,1.2-0.1,1.9
	c0,0,0,0,0,0.1c-0.2,0.6-0.3,1.3-0.3,2.1c-0.9,1-1.4,2.1-1.4,3.5v0.2c0,1.1,0.4,2.2,1.1,3.1c-0.6,2.7-1.4,5.5-1,8.3
	c0.4,2.8,0.4,5.1,0.3,8c0,1,0,2,0.1,3c0.1,0.5,0.2,1,0.4,1.4c-0.5,2.1,0.3,4.6,2.3,5.5c3.3,1.5,6,3.7,9.4,5
	c3.9,1.5,7.5,3.1,11.1,5.1c2.3,1.3,5.1,0.6,6.6-1.5c1-0.1,2-0.5,2.8-1.2c0.5-0.4,3.3-0.5,4.1-0.9c0.9-0.4,1.6-1.2,2.4-1.6
	c2.3-1.2,4.7-1.7,6.8-3.3c4-3.1,5.9-7.9,5.6-12.8c0-0.1,0-0.2,0-0.3c0.1-0.3,0.1-0.7,0.1-1V47.4C85.8,45.6,85.7,39.9,82,38.4z"/>
<circle class="st5" cx="56.9" cy="81.7" r="16.1"/>
<path class="st6" d="M68.1,92.8c1.9-2.6,3-5.9,3-9.4c0-8.9-7.2-16.1-16.1-16.1c-4.6,0-8.7,1.9-11.6,5c2.9-4,7.7-6.7,13-6.7
	c8.9,0,16.1,7.2,16.1,16.1C72.5,86,70.9,89.9,68.1,92.8z"/>
<path class="st7" d="M43.3,72.7c-1.9,2.6-3,5.9-3,9.4c0,8.9,7.2,16.1,16.1,16.1c4.6,0,8.7-1.9,11.6-5c-2.9,4-7.7,6.7-13,6.7
	c-8.9,0-16.1-7.2-16.1-16.1C38.9,79.5,40.6,75.6,43.3,72.7z"/>
<path class="st7" d="M35.2,47.2L32.4,43l3.1-4c0,0,6.2-0.8,9.4-4.6L36.4,35l-2.9-0.6l-6.7,8l4,5.4"/>
<polyline class="st7" points="34.1,61.3 33.6,94.2 30.4,88.9 31,61 "/>
<path class="st7" d="M53.5,103.8c0,0-18.3-7.2-19.7-16.4s-1.3,5.8-1.3,5.8l9.4,6.3l8.6,3.2"/>
<rect x="32.9" y="61.8" class="st7" width="48.6" height="1.9"/>
<path class="st8" d="M65.8,32.5c0,0,4.7,6.3,12.4,5.7L82,43l-4.3,3.8l3.8,0.6l5.3-4.6l-7.2-8.4l-7.1,0.5"/>
<polyline class="st8" points="78.7,63.7 81.5,85 82.3,75.6 82.1,63.7 "/>
<rect x="31.2" y="47.8" class="st9" width="50.3" height="13.3"/>
<circle class="st10" cx="56.4" cy="81.7" r="16.1"/>
<path class="st11" d="M81.1,49.5c0-0.3,0-0.5,0.1-0.8c-0.1-0.1-0.1-0.2-0.2-0.3H64.4c-0.8,0.1-1.5,0.1-2.3,0.2
	c-0.1-0.1-0.2-0.1-0.2-0.2H37.8c-0.5,0.2-1,0.3-1.5,0.3c-0.5,0-1-0.1-1.5-0.3h-1.1c-0.4,0-0.8,0-1.1-0.1c-1.2,1.4-1.6,3.4-1.2,5
	c-2,2.9-0.7,8.1,3.9,8.1c1.2,0,2.1-0.3,2.9-0.9c5,1.5,11,0.7,16,1.2c3.3,0.4,6.7-0.3,10-0.1c0.5,0,1,0.1,1.4,0.1
	c0.6-0.3,1.3-0.5,2.2-0.5h11.5c0.8-0.5,1.4-1.2,1.8-1.9L81.1,49.5L81.1,49.5z"/>
<polygon class="st12" points="57.4,48.3 80.3,48.3 80.3,57.3 78.8,49.5 "/>
<polygon class="st12" points="55.5,60.4 32.6,60.4 32.6,51.4 34.2,59.3 "/>
<path class="st13" d="M57.1,71.5l1.8,5.7c0.2,0.5,0.6,0.9,1.2,0.9h5.9c1.2,0,1.7,1.5,0.7,2.2L62,83.7c-0.4,0.3-0.6,0.9-0.5,1.4
	l1.8,5.7c0.4,1.1-0.9,2.1-1.9,1.4l-4.8-3.5c-0.4-0.3-1-0.3-1.5,0l-4.8,3.5c-1,0.7-2.3-0.2-1.9-1.4l1.8-5.7c0.2-0.5,0-1.1-0.5-1.4
	l-4.8-3.5c-1-0.7-0.5-2.2,0.7-2.2h5.9c0.5,0,1-0.3,1.2-0.9l1.8-5.7C55.1,70.3,56.8,70.3,57.1,71.5z"/>
<path class="st14" d="M57.6,70.5l1.8,5.7c0.2,0.5,0.6,0.9,1.2,0.9h5.9c1.2,0,1.7,1.5,0.7,2.2l-4.8,3.5c-0.4,0.3-0.6,0.9-0.5,1.4
	l1.8,5.7c0.4,1.1-0.9,2.1-1.9,1.4l-4.8-3.5c-0.4-0.3-1-0.3-1.5,0l-4.8,3.5c-1,0.7-2.3-0.2-1.9-1.4l1.8-5.7c0.2-0.5,0-1.1-0.5-1.4
	l-4.8-3.5c-1-0.7-0.5-2.2,0.7-2.2h5.9c0.5,0,1-0.3,1.2-0.9l1.8-5.7C55.6,69.4,57.2,69.4,57.6,70.5z"/>
<polygon class="st15" points="56.4,80.1 56.4,70.5 56.9,70.5 58.7,77.8 66.5,77.8 66.4,78.3 "/>
<polyline class="st15" points="59.1,83.8 60.9,83.8 63.1,89.5 "/>
<path class="st9" d="M86.1,42.9L79.4,35c-9.1,2.4-14.2-3.6-14.2-3.6h-8.7h0h-8.7c0,0-5.2,6.1-14.2,3.6l-6.7,7.9
	c0.9,1.1,4.5,4.5,4.5,4.5l-1.2,38.3c0,0-1.5,9.4,13.1,14.4c10.6,3.6,12.8,5.6,13.2,6.4c0,0,0,0,0,0c0,0,0,0,0,0
	c0.4-0.8,2.7-2.7,13.2-6.3c14.6-5,13.1-14.4,13.1-14.4l-1.2-38.3C81.6,47.4,85.3,44,86.1,42.9z"/>
<circle class="st11" cx="43.8" cy="42.1" r="2.9"/>
<circle class="st11" cx="51.6" cy="42.1" r="2.9"/>
<circle class="st11" cx="59.5" cy="42.1" r="2.9"/>
<circle class="st11" cx="67.3" cy="42.1" r="2.9"/>
<path class="st16" d="M45.9,42.7c-0.1-0.5-0.4-1-0.9-1.6c-0.5-0.6-1-1-1.4-1.3c0.4-0.4,1.3,0,1.9,0.8C46.1,41.5,46.2,42.3,45.9,42.7
	z"/>
<path class="st16" d="M53.6,42.7c-0.1-0.5-0.4-1-0.9-1.6c-0.5-0.6-1-1-1.4-1.3c0.4-0.4,1.3,0,1.9,0.8C53.8,41.5,54,42.3,53.6,42.7z"
	/>
<path class="st16" d="M61.5,42.7c-0.1-0.5-0.4-1-0.9-1.6c-0.5-0.6-1-1-1.4-1.3c0.4-0.4,1.3,0,1.9,0.8C61.7,41.5,61.9,42.3,61.5,42.7
	z"/>
<path class="st16" d="M69.4,42.7c-0.1-0.5-0.4-1-0.9-1.6c-0.5-0.6-1-1-1.4-1.3c0.4-0.4,1.3,0,1.9,0.8C69.6,41.5,69.8,42.3,69.4,42.7
	z"/>
<g>
	<path class="st8" d="M40.3,50.7v2.6c0,0.5-0.2,0.6-0.7,0.6h-0.9v-0.7h0.8v-2.5H40.3z"/>
	<path class="st8" d="M43.1,51.5v2.4h-1.8c-0.3,0-0.4-0.1-0.5-0.4v-1.9h0.7v1.7h0.9v-1.7H43.1z"/>
	<path class="st8" d="M43.8,53.9v-2.4h1.8c0.3,0,0.4,0.1,0.5,0.4v1.9h-0.7v-1.7h-0.9v1.7H43.8z"/>
	<path class="st8" d="M46.7,50.4h0.7V51h-0.7V50.4z M47.4,51.5v2.4h-0.7v-2.4H47.4z"/>
	<path class="st8" d="M50.3,53.4c0,0.3-0.3,0.4-0.6,0.4h-1c-0.3,0-0.6-0.1-0.6-0.4v-1.5c0-0.3,0.3-0.4,0.6-0.4h1
		c0.3,0,0.6,0.1,0.6,0.4V53.4z M49.7,53.3v-1.1h-1v1.1H49.7z"/>
	<path class="st8" d="M51.6,53.9H51v-2.4h0.4h0.1h0.9c0.3,0,0.5,0.3,0.5,0.6v0.3h-0.7v-0.3h-0.5V53.9z"/>
	<path class="st8" d="M55,50.7h2c0.5,0,0.7,0.1,0.7,0.7v0.4c0,0.3-0.1,0.5-0.3,0.6c0.2,0.1,0.3,0.2,0.3,0.4v1.1h-0.8v-1.1h-1.2v1.1
		H55V50.7z M55.7,51.3V52h1.2v-0.7H55.7z"/>
	<path class="st8" d="M58.3,53.4v-1.5c0-0.3,0.1-0.4,0.5-0.4h1.3c0.3,0,0.4,0.1,0.4,0.5v0.5c0,0.3-0.1,0.5-0.4,0.5H59v0.3h1.4l0,0.6
		h-1.7C58.4,53.9,58.3,53.8,58.3,53.4z M59,52.4h0.9V52H59V52.4z"/>
	<path class="st8" d="M62.2,53.9h-0.5c-0.3,0-0.7,0-0.7-0.5v-3.1h0.7v2.9h0.4V53.9z"/>
	<path class="st8" d="M62.5,53.4v-1.5c0-0.3,0.1-0.4,0.5-0.4h1.3c0.3,0,0.4,0.1,0.4,0.5v0.5c0,0.3-0.1,0.5-0.4,0.5h-1.1v0.3h1.4
		l0,0.6H63C62.6,53.9,62.5,53.8,62.5,53.4z M63.2,52.4h0.9V52h-0.9V52.4z"/>
	<path class="st8" d="M67,51.5c0.3,0,0.4,0.1,0.4,0.4v1.5c0,0.3-0.1,0.4-0.5,0.4h-1.3c-0.3,0-0.4-0.1-0.4-0.5v-0.5
		c0-0.3,0.1-0.5,0.4-0.5h1.1v-0.3h-1.4l0-0.6H67z M66.8,52.9h-0.9v0.4h0.9V52.9z"/>
	<path class="st8" d="M68,53.2h1.5v-0.3h-1c-0.3,0-0.5-0.1-0.5-0.4v-0.6c0-0.3,0.2-0.4,0.5-0.4h1.6v0.6h-1.4v0.3h1
		c0.3,0,0.5,0.1,0.5,0.4v0.5c0,0.3-0.1,0.5-0.4,0.5H68V53.2z"/>
	<path class="st8" d="M70.8,53.4v-1.5c0-0.3,0.1-0.4,0.5-0.4h1.3c0.3,0,0.4,0.1,0.4,0.5v0.5c0,0.3-0.1,0.5-0.4,0.5h-1.1v0.3h1.4
		l0,0.6h-1.7C70.9,53.9,70.8,53.8,70.8,53.4z M71.5,52.4h0.9V52h-0.9V52.4z"/>
	<path class="st8" d="M48.2,55.4h-1V58h-0.7l0-2.9c0-0.1,0.1-0.3,0.4-0.3h3.4c0.3,0,0.4,0.2,0.4,0.3l0,2.9H50v-2.5h-1V58h-0.7V55.4z
		"/>
	<path class="st8" d="M51.3,57.5V56c0-0.3,0.1-0.4,0.5-0.4h1.3c0.3,0,0.4,0.1,0.4,0.5v0.5c0,0.3-0.1,0.5-0.4,0.5H52v0.3h1.4l0,0.6
		h-1.7C51.4,58,51.3,57.9,51.3,57.5z M52,56.5h0.9v-0.4H52V56.5z"/>
	<path class="st8" d="M54.1,58v-2.4h1.8c0.3,0,0.4,0.1,0.5,0.4V58h-0.7v-1.7h-0.9V58H54.1z"/>
	<path class="st8" d="M58.7,55.6c0.3,0,0.4,0.1,0.4,0.4v1.5c0,0.3-0.1,0.4-0.5,0.4h-1.3c-0.3,0-0.4-0.1-0.4-0.5V57
		c0-0.3,0.1-0.5,0.4-0.5h1.1v-0.3H57l0-0.6H58.7z M58.5,57h-0.9v0.4h0.9V57z"/>
	<path class="st8" d="M61.4,59.1H60v-0.6h1.4V58h-1c-0.3,0-0.6-0.1-0.6-0.5V56c0-0.3,0.3-0.4,0.6-0.4H62v2.9
		C62,58.8,61.7,59.1,61.4,59.1z M61.3,56.2h-0.9v1.1h0.9V56.2z"/>
	<path class="st8" d="M62.7,57.5V56c0-0.3,0.1-0.4,0.5-0.4h1.3c0.3,0,0.4,0.1,0.4,0.5v0.5c0,0.3-0.1,0.5-0.4,0.5h-1.1v0.3h1.4l0,0.6
		h-1.7C62.7,58,62.7,57.9,62.7,57.5z M63.4,56.5h0.9v-0.4h-0.9V56.5z"/>
	<path class="st8" d="M66.1,58h-0.7v-2.4h0.4h0.1h0.9c0.3,0,0.5,0.3,0.5,0.6v0.3h-0.7v-0.3h-0.5V58z"/>
</g>
<g id="Layer_2_3_">
	<g id="Layer_16_3_">
		<path class="st17" d="M96.9,34.2l-0.5-0.3l-0.7-0.4L94.8,33L94.7,33l-0.5-0.3l-0.5-0.3l-0.9-0.5l-7.3-4.2l-1.7-1l-0.7-0.4
			l-0.5-0.3l-0.5-0.3l0,0l-0.4-0.3l-0.4-0.2L76,22.2L56.5,10.9L56,10.6l-0.5,0.3l-17.1,9.9l-5,2.9l-1.3,0.8l-0.5,0.3l-0.1,0
			c0,0,0,0,0,0l-0.3,0.1l-0.4,0.3l-0.3,0.2l-0.3,0.2L30,25.6l-1.5,0.9h0l-1.8,1l0,0l-0.6,0.3l-0.8,0.4l0,0l0,0l-3.3,1.9h0l-2.4,1.4
			l-1,0.6l-3,1.7l-4.2,2.4l-1.5,0.9v53.1l0.1,0l1.7,1l0.8,0.4l0.1,0.1l4.3,2.5l0.7,0.4l4,2.3l0.5,0.3l1.3,0.8l3.4,2l5.4,3.1l0.7,0.4
			l0.1,0l0.1,0.1l0.1,0.1l0.2,0.1l0,0l1.9,1.1l0.9,0.5l1.3,0.8l0.9,0.5l0.2,0.1l0.3,0.2l0.2,0.1l0.5,0.3l3.6,2l0.1,0l0.4,0.3
			l0.6,0.4l0.7,0.4c0,0,0,0,0,0l0.5,0.3l1.5,0.9l3.2,1.8l4.5,2.6l1,0.6l0.2,0.1l0,0l0.2-0.1l0.1-0.1l0,0l0.3-0.2l1.8-1l0.1,0
			l0.7-0.4l0.5-0.3l0.2-0.1l3.9-2.2l2.5-1.4l0.7-0.4l0.7-0.4l0.7-0.4l0.4-0.3l2.3-1.3l0.4-0.2h0l0.2-0.1l0.2-0.1l0.6-0.4l0.8-0.5
			l1.3-0.7l0.5-0.3h0l0.5-0.3l0,0l0.3-0.1l0.5-0.3l0.4-0.2l0.4-0.2l0.5-0.3l0.2-0.1l0.3-0.2l0.4-0.2l0,0l0,0l0.1-0.1l0.2-0.1
			l3.8-2.2l0.4-0.2l1.1-0.6l3-1.7l1.6-0.9l8.5-4.9h0l0.1,0l2.6-1.5l0.9-0.5l1-0.6V37.2L96.9,34.2z M100.2,89.2l-0.5,0.3l-0.3,0.2
			l-0.6,0.3l-7.6,4.4l-4.7,2.7l-3.1,1.8l-1.3,0.7l-0.7,0.4l-2.9,1.7l-0.1,0l-0.2,0.1L78,102l-0.6,0.3l-0.9,0.5l-0.2,0.1l0,0
			l-0.8,0.5l-0.1,0l-3.9,2.3l-0.1,0l-0.8,0.5l-0.1,0l-0.9,0.5l-2.1,1.2l-1.5,0.9l-1.7,1l-1.1,0.6l-3,1.7L59,113l-0.1,0h0l-0.8,0.4
			l-0.3,0.1l-1.9,1.1l-3.5-2l-1.2-0.7l-0.6-0.4l-1.8-1l-0.7-0.4l-0.7-0.4l-5.3-3l-0.8-0.5l0,0l-1.8-1l-2.1-1.2l-0.9-0.5l-0.6-0.3
			l-0.3-0.1l-0.4-0.3l-0.2-0.1l-1.8-1l-0.3-0.2l-0.2-0.1l-1.5-0.9l-3.4-2l-3.9-2.3l-1.8-1l-3.4-2L14,90.5L13.1,90l-0.4-0.2l-0.2-0.1
			l-0.7-0.4v-51l3.9-2.3l3-1.7l0.9-0.5h0l0.1,0l3.2-1.9h0l1.4-0.8h0l1.8-1l1.3-0.7l0.4-0.3h0l0.8-0.4l0.5-0.3h0l3-1.7c0,0,0,0,0,0
			l0.8-0.5l0.4-0.2l0.2-0.1l0.3-0.2l0.2-0.1l0.3-0.1l0,0l8-4.6l13.4-7.7l0.5-0.3l0.5,0.3l16.8,9.7l7,4l0,0l0.3,0.2l0.1,0.1l0.4,0.3
			l0.4,0.2l1.2,0.7l1.9,1.1l7,4l1.4,0.8l0.5,0.3l0,0l0.8,0.4l0.2,0.1l0.5,0.3l0.5,0.3l4.4,2.5L100.2,89.2L100.2,89.2z"/>
	</g>
</g>
<polyline class="st1" points="18.8,67.1 25.8,74.3 19.5,64.1 "/>
<polyline class="st1" points="95.7,59.8 90.7,68.4 98.8,59.7 "/>
</svg>
