<svg enable-background="new 0 0 110.7785721 127.8745728" viewBox="0 0 110.7785721 127.8745728" xmlns="http://www.w3.org/2000/svg"><path d="m110.9499359 31.8970356v63.9999981l-55.4199867 32-44.3499737-25.5999756-.2000122-.1199951-10.8800052-6.2800293v-63.9999981l55.4299911-32.0000001z" fill="#ffb9a6"/><path d="m102.0364685 37.0901527v53.1399498l-.0100098.0100098-1.0899658.6199951-.1000366.0599976-.2299805.1300049-.1300049.0700073-.8800049.5100098-.1400146.0800171-3 1.7299805-.2000122.1199951-.3599854.210022-.4799805.2799683-.3900146.2200317-.0200195.0100098-.6799927.3899536-.1599731.0900269-.6900024.4000244-.789978.4599609-.4700317.2700195-.0200195.0100098-.1199951.0700073-.3999634.2299805-.0700073.039978-.1000366.0599976-.1399536.0700073-.0300293.0100098-.0999756.039978-.0900269.0599976-.0199585.0100098-1.8600464 1.0700073-.5999756.3400269-.5700073.3299561-.8200073.4700317-1.0499878.5999756-.039978.0300293-1 .5800171-.2300415.1299438-.4500122.2600098-.0199585.0200195h-.0100098l-.4700317.2700195-.6599731.3800049-.4099731.2399902-.8699951.5199585-.1600342.0900269-.4000244.2299805-.1299438.0700073v.0100098l-.5700073.3200073-.0500488.0299683-.0699463.0400391-.0200195.0100098-.0599976.039978-.3300171.1900024-.0800171.0499878-.0299683.0100098-.0499878.0300293-.0499878.0199585-.0600586.0400391v.0099487l-.289978.1700439-.4899902.2799683-.1799927.0900269-.0200195.0199585-.039978.0200195-.4400024.25-.1099854.0700073-.460022.2600098-.1400146.0800171-.1400146.0799561-.0099487.0100098-.0500488.0300293-.289978.1599731-.0299683.0200195-.2400513.1400146h-.0099487l-.0700073.039978-.6400146.3800049-.2000122.1199951-.3300171.1900024-.1900024.0999756-.0599976.0400391c0 .0099487-.0099487.0099487-.0099487.0099487l-.4700317.2700195-.4199829.2399902-.0400391.0300293-.5699463.3300171-.1200562.0699463-.2599487.1500244-1.3200073.7600098-.0200195.0100098-.6099854.3499756h-.0100098l-.3699951.2200317-.0800171.039978-.0100098.0100098-.0199585.0100098-.1400146.0799561-.0599976.0300293-1.1199951.6499634-.3300171.1900024-.0499878.0300293-2 1.1599731-.0200195.0100098-.0100098.0100098-.1300049.0800171-.2699585.1499634-.0200195.0100098-.1400146.0800171-.1900024.1099854-.1499634.0900269-.3500366.2000122-.1399536.0799561-.0500488.0300293-.1799927.1099854-.2799683.1500244-.1100464.0699463-.6299438.3600464-.3500366.2000122-.6300049.3699951-.3900146.2199707-.0099487.0100098-.4299927.25-.4000244.2299805-2.3599854 1.3599854-.3600464.210022-.039978.0200195-.1799927.0999756-.0300293.0200195-.4699707.2700195-1.8699951 1.0799561-.0300293.0200195-.5299683.2999878h-.0100098l-.3200073.1900024-.4799805.2800293-.1400146-.0800171-1.0599976-.6099854-.2199707-.1300049-.8500366-.4899902-.0299683-.0100098-.1300049-.0800171-.7800293-.4500122-.1699829-.0999756-.0499878-.0300293-.1799927-.0999756-.4300537-.25-.1699829-.0999756-.9899902-.5700073-.0900269-.0500488h-.0099487l-.0200195-.0199585-.2800293-.1600342-.5-.289978-.3199463-.1900024h-.0100104c-.0100098-.0100098-.0100098-.0200195-.0200195-.0200195l-1.1199951-.6399536-.039978-.0300293-1.7400513-1-.3299561-.1900024-2.7399902-1.5899658-.1800537-.1100464-.5799561-.3299561-.460022-.2700195-.2799683-.1600342-.5100098-.2999878-.6100464-.3499756-.0899658-.0499878h-.0100098l-.1400146-.0900269h-.0100098l-.4400024-.25-.1299438-.0800171-.5-.289978h-.0100098l-.2900391-.1699829-.2199707-.1199951-.0900269-.0599976-.0299683-.0200195-.4100342-.2399902-.25-.1400146-.3899536-.2199707c-.1400146-.0900269-.2700195-.1700439-.4200439-.25l-.7600098-.4400024h-.0099487l-1.0200195-.6000366-.1900024-.1099854-.3699951-.210022-.3900146-.2199707-.0800171-.0499878-.1499634-.0800171-.2600098-.1500244-.2399902-.1499634-.0900269-.0500488-.3499756-.1999512c-.0300293-.0200195-.0499878-.0400391-.0800171-.0500488l-.0800171-.039978-.039978-.0299683-.5100098-.2900391-.789978-.4500122-.0499878-.0299683-.1500263-.0800171-.3699951-.2199707-1.3900146-.8099976s-.0100098 0-.0199585-.0100098l-.3000488-.1699829-.9499512-.5500488-.1200562-.0700073-.6199951-.3599854-.8199463-.4799805-2.0900269-1.2000122-.8200073-.4699707-.0899658-.0500488-.5-.289978-.0100098-.0100098-.210022-.1199951h-.0100098l-.2099609-.1199951-.5-.289978-.1300049-.0700073-.2000122-.1199951c-.0100098-.0100098-.0100098-.0100098-.0200195-.0100098l-.1199951-.0700073-1.7399902-1.0100098-1.0200195-.5899658-1.3299561-.7700195-.7200317-.4299927-.039978-.0200195-.0200195-.0100098-.289978-.1699829s-.0100098 0-.0200195-.0100098l-.2600098-.1499634-.0200195-.0100098-1.3299561-.7700195-1.9700317-1.1300049-1.8099976-1.0499878-.7699585-.4400024-.8300171-.4799805-.0900269-.0500488-.0799561-.039978-.0300293-.0200195v-53.1399505l1.2399902-.710022.5599976-.3200073 3.8599854-2.2299805.7700195-.460022h.0100098l.25-.1400146.5800171-.3299561 1.3699951-.7900391.3800049-.2199726.1499634-.0900269h.0100098l.1400146-.0799561 1.4299927-.8400269h.0100098l.5299683-.2999878.4299927-.25.3900146-.2299805.1500244-.0900269 2.0700073-1.1900024.9799805-.5700073 1.0100098-.5899658.4199829-.2400513.4500122-.2599487.25-.1400146h.0100098l.5700073-.3300171.2399902-.1400146 2.1099854-1.2099609.8800049-.5100098 1.580019-.9199829.1699829-.0900269 1.6599731-.9500122.7800293-.4500122.3800049-.2199707.4400024-.2600098 1.0999756-.6500244.3300171-.1899414.1900024-.1100464.1199951-.0700073 2.1599731-1.2299805.6900024-.4099731.5400391-.3099976.8399658-.4800415.0200195-.0100098h.0100098l.0499878-.0299683 5.7200317-3.2999868.1899414-.1100464.2700195-.1599731 2.8599854-1.6500244 2.6100464-1.5099487.5999756-.3500366.289978-.1599731 1.1500244-.6700439 1.0599976.6200562 6.4899902 3.75.8599854.4899902 1.7400513 1.0100088 2.7299805 1.5799561c.0100098 0 .0200195.0100098.0200195.0100098l.4099731.2399902.789978.4500122.8000488.460022.539978.3099976.960022.5499878 1.8899536 1.0900269.4700317.2699585 1.8999634 1.1000366 1.4200439.8199463 1.039978.6100464 2.2999878 1.3099976.6700439.3900146.1999512.1099854 1.5200195.8800049 1.3699951.789978.7999878.460022.0900269.0599976 1.0299683.5899658.7800293.4500122.9400024.539978 2.3200073 1.3400269.5199585.2999878.0400391.0300293v.0100098l.0899658.0499878.1700439.0899658.2599487.1600342.4000244.2299805.6500244.369997.0100098.0100098.2599487.1500244.5400391.3099976.0199585.0099487 1.9200439 1.1100464.4799805.2699585.2999878.1700439.4400024.25 1.9400024 1.1199951.25.1400146z" fill="#c0d1ff"/><path d="m9.918943 52.060276h92.070198v37.034416h-92.070198z" fill="#5e8cea"/><path d="m64.1770859 78.631134s24.4662781-3.7658157 37.8115234-18.8904266l.097847 30.4794464-22.9799805 13.2599487z" fill="#ddcac5"/><path d="m9.9189425 80.2569351 29.2819128 4.1742096-7.6643887 18.2190018-21.539978-12.4299927" fill="#ddcac5"/><path d="m93.5864563 33.3201332c0 .2000122-.0299683.4099731-.0700073.5999756h-17c-.0499878-.1900024-.0700073-.3999634-.0700073-.5999756 0-.6400146.2000122-1.2399902.5900269-1.7999897 1.2199707-1.8599854 4.3300171-3.1900024 7.9699707-3.1900024.7400513 0 1.4500122.0499878 2.1300049.1599731l.7800293.4500122.9400024.539978 2.3200073 1.3400269.5199585.2999878.0400391.0300293v.0100098l.0899658.0499878.1700439.0899658.2599487.1600342.4000244.2299805.6500244.369997.0100098.0100098c.1699829.4000243.2699585.8200072.2699585 1.2499999z" fill="#fff"/><path d="m96.5364685 33.9201088h-10.6199951c-.0700073-.1399536-.0999756-.2999878-.0999756-.4499512 0-1.2900391 2.2299805-2.3800068 5.2099609-2.6400166.0499878 0 .1000366-.0100098.1500244-.0100098l.5199585.2999878.0400391.0300293v.0100098l.0899658.0499878.1700439.0899658.2599487.1600342.4000244.2299805.6500244.369997.0100098.0100098.2599487.1500244.5400391.3099976.0199585.0099487 1.9200439 1.1100464z" fill="#fff"/><path d="m80.3217316 33.9174728h-9.1951599c.616684-1.4810791 2.4392242-2.549551 4.6044388-2.549551.4522476 0 .8907776.056181 1.3018723.1498928 1.5622481.3187809 2.8092498 1.2373581 3.2888488 2.3996582z" fill="#fff"/><path d="m70.9364929 19.1501484h-9.3000488c-.039978-.1500244-.0599976-.3200073-.0599976-.4800415 0-.5199585.1700439-1.0099487.4800415-1.4599609.4799805-.7300415 1.3099976-1.3599844 2.3899536-1.8099966l1.7400513 1.0100088 2.7299805 1.5799561c.0100098 0 .0200195.0100098.0200195.0100098l.4099731.2399902.789978.4500122z" fill="#fff"/><path d="m70.9364929 19.1501484h-1.6900024c-.0599976-.1100464-.0800171-.2399902-.0800171-.3600464 0-.1899414.0599976-.3799438.1799927-.5499878l.789978.4500122z" fill="#fff"/><path d="m64.7154846 19.1530495h-7.445179c.499321-1.1992073 1.9750023-2.064333 3.7281418-2.064333.3661804 0 .7212486.0454884 1.0541077.1213646 1.2649269.258112 2.2746086 1.001873 2.6629295 1.9429684z" fill="#fff"/><path d="m102.0364685 84.5901489v5.6399536l-.0100098.0100098-1.0899658.6199951-.1000366.0599976-.2299805.1300049-.1300049.0700073-.8800049.5100098-.1400146.0800171-3 1.7299805-.2000122.1199951-.3599854.210022-.4799805.2799683-.3900146.2200317-.0200195.0100098-.6799927.3899536-.1599731.0900269-.6900024.4000244-.789978.4599609-.4700317.2700195-.0200195.0100098-.1199951.0700073-.3999634.2299805-.0700073.039978-.1000366.0599976-.1399536.0700073-.0300293.0100098-.0999756.039978-.0900269.0599976-.0199585.0100098-1.8600464 1.0700073-.5999756.3400269-.5700073.3299561-.8200073.4700317-1.0499878.5999756-.039978.0300293-1 .5800171-.2300415.1299438-.4500122.2600098-.0199585.0200195h-.0100098l-.4700317.2700195-.6599731.3800049-.4099731.2399902-.8699951.5199585-.1600342.0900269-.4000244.2299805-.1299438.0700073v.0100098l-.5700073.3200073-.0500488.0299683-.0699463.0400391-.0200195.0100098-.0599976.039978-.3300171.1900024-.0800171.0499878-.0299683.0100098-.0499878.0300293-.0499878.0199585-.0600586.0400391v.0099487l-.289978.1700439-.4899902.2799683-.1799927.0900269-.0200195.0199585-.039978.0200195-.4400024.25-.1099854.0700073-.460022.2600098-.1400146.0800171-.1400146.0799561-.0099487.0100098-.0500488.0300293-.289978.1599731-.0299683.0200195-.2400513.1400146h-.0099487l-.0700073.039978-.6400146.3800049-.2000122.1199951-.3300171.1900024-.1900024.0999756-.0599976.0400391c0 .0099487-.0099487.0099487-.0099487.0099487l-.4700317.2700195-.4199829.2399902-.0400391.0300293-.5699463.3300171-.1200562.0699463-.2599487.1500244-1.3200073.7600098-.0200195.0100098-.6099854.3499756h-.0100098l-.3699951.2200317-.0800171.039978-.0100098.0100098-.0199585.0100098-.1400146.0799561-.0599976.0300293-1.1199951.6499634-.3300171.1900024-.0499878.0300293-2 1.1599731-.0200195.0100098-.0100098.0100098-.1300049.0800171-.2699585.1499634-.0200195.0100098-.1400146.0800171-.1900024.1099854-.1499634.0900269-.3500366.2000122-.1399536.0799561-.0500488.0300293-.1799927.1099854-.2799683.1500244-.1100464.0699463-.6299438.3600464-.3500366.2000122-.6300049.3699951-.3900146.2199707-.0099487.0100098-.4299927.25-.4000244.2299805-2.3599854 1.3599854-.3600464.210022-.039978.0200195-.1799927.0999756-.0300293.0200195-.4699707.2700195-1.8699951 1.0799561-.0300293.0200195-.5299683.2999878h-.0100098l-.3200073.1900024-.4799805.2800293-.1400146-.0800171-1.0599976-.6099854-.2199707-.1300049-.8500366-.4899902-.0299683-.0100098-.1300049-.0800171-.7800293-.4500122-.1699829-.0999756-.0499878-.0300293-.1799927-.0999756-.4300537-.25-.1699829-.0999756-.9899902-.5700073-.0900269-.0500488h-.0099487l-.0200195-.0199585-.2800293-.1600342-.5-.289978-.3199463-.1900024h-.0100104c-.0100098-.0100098-.0100098-.0200195-.0200195-.0200195l-1.1199951-.6399536-.039978-.0300293-1.7400513-1-.3299561-.1900024-2.7399902-1.5899658-.1800537-.1100464-.5799561-.3299561-.460022-.2700195-.2799683-.1600342-.5100098-.2999878-.6100464-.3499756-.0899658-.0499878h-.0100098l-.1400146-.0900269h-.0100098l-.4400024-.25-.1299438-.0800171-.5-.289978h-.0100098l-.2900391-.1699829-.2199707-.1199951-.0900269-.0599976-.0299683-.0200195-.4100342-.2399902-.25-.1400146-.3899536-.2199707c-.1400146-.0900269-.2700195-.1700439-.4200439-.25l-.7600098-.4400024h-.0099487l-1.0200195-.6000366-.1900024-.1099854-.3699951-.210022-.3900146-.2199707-.0800171-.0499878-.1499634-.0800171-.2600098-.1500244-.2399902-.1499634-.0900269-.0500488-.3499756-.1999512c-.0300293-.0200195-.0499878-.0400391-.0800171-.0500488l-.0800171-.039978-.039978-.0299683-.5100098-.2900391-.789978-.4500122-.0499878-.0299683-.1500263-.0800171-.3699951-.2199707-1.3900146-.8099976s-.0100098 0-.0199585-.0100098l-.3000488-.1699829-.9499512-.5500488-.1200562-.0700073-.6199951-.3599854-.8199463-.4799805-2.0900269-1.2000122-.8200073-.4699707-.0899658-.0500488-.5-.289978-.0100098-.0100098-.210022-.1199951h-.0100098l-.2099609-.1199951-.5-.289978-.1300049-.0700073-.2000122-.1199951c-.0100098-.0100098-.0100098-.0100098-.0200195-.0100098l-.1199951-.0700073-1.7399902-1.0100098-1.0200195-.5899658-1.3299561-.7700195-.7200317-.4299927-.039978-.0200195-.0200195-.0100098-.289978-.1699829s-.0100098 0-.0200195-.0100098l-.2600098-.1499634-.0200195-.0100098-1.3299561-.7700195-1.9700317-1.1300049-1.8099976-1.0499878-.7699585-.4400024-.8300171-.4799805-.0900269-.0500488-.0799561-.039978-.0300293-.0200195v-5.6399536l46.789711 16.7289047z" fill="#ceb4af"/><path d="m86.8964539 81.3501587-.2699585 2.9699707-1.4400024 15.5900269-.2300415.1299438-.4500122.2600098-.0199585.0200195h-.0100098l-.4700317.2700195-.6599731.3800049-.4099731.2399902-.8699951.5199585-.1600342.0900269-.4000244.2299805-.1299438.0700073v.0100098l-.5700073.3200073-.0500488.0299683-.0699463.0400391-.0200195.0100098-.0599976.039978-.3300171.1900024-.0800171.0499878-.0299683.0100098-.0499878.0300293-.0499878.0199585-.0600586.0400391v.0099487l-.289978.1700439-.4899902.2799683-.1799927.0900269-.0200195.0199585-.039978.0200195-.4400024.25-.1099854.0700073-.460022.2600098-.1400146.0800171-.1400146.0799561-.0099487.0100098-.0500488.0300293-.289978.1599731-.0299683.0200195-.2400513.1400146h-.0099487l-.0700073.039978-.6400146.3800049-.2000122.1199951-.3300171.1900024-.1900024.0999756-.0599976.0400391c0 .0099487-.0099487.0099487-.0099487.0099487l-.4700317.2700195-.4199829.2399902-.0400391.0300293-.5699463.3300171-.1200562.0699463-.2599487.1500244-1.3200073.7600098-.0200195.0100098-.6099854.3499756h-.0100098l-.3699951.2200317-.0800171.039978-.0100098.0100098-.0199585.0100098-.1400146.0799561-.0599976.0300293-1.1199951.6499634-.3300171.1900024-.0499878.0300293-4.2999878-7.2000122z" fill="#444141"/><path d="m65.5196228 66.0115967c-.6012573.0310669-1.1727905-.0301514-1.7524414-.1939697-.6154785-.1739502-.8782349.7830811-.2637329.9567261.3427124.0968628.6897583.161377 1.039856.1990967-.0390015.1255493-.0728149.2529907-.1172485.3825684-.1199341.3500366-.4170532.6378174-.645813.9239502-.3948975.4939575.3027344 1.2004395.7015991.7015991.2459106-.3075562.5534668-.6154175.7437744-.963623.1693726-.3098145.1751709-.6800537.3616943-.9769897.0128784-.0205078.0131226-.039978.022644-.0603027.5362549-.1239016.5142823-1.0003665-.090332-.9690554z" fill="#2b2828"/><path d="m50.4763489 65.7084961c-1.0327148.0396729-2.0570068.142334-3.0784912.2981567-.6292114.0959473-.3619385 1.0521851.2637329.9567261.0161743-.0024414.0324707-.003479.048645-.0059204.0028076.0317383-.0029297.0601196.0062256.0941772.0418091.1556396.0949707.3120728.1670532.4497681.1563721.416626.3373413.8221436.5712891 1.2044678.3327637.5437622 1.1912231.0458374.8566895-.5007935-.1392822-.2276611-.2615967-.4595947-.3688965-.6983643.0791016-.128418.1506958-.2681885.2719727-.3778076.1206055-.1090698.1640015-.2354126.1556396-.3564453.368103-.029541.7363281-.0575562 1.1061401-.0717773.6364136-.0244751.6395874-1.0167847 0-.9921875z" fill="#2b2828"/><path d="m92.5664978 73.6901245c-.6900024 2.25-2.3800049 6.6699829-5.9400024 10.6300049-2.3000488 2.5599976-5.3900146 4.9400024-9.4900513 6.4199829 0 0-.3199463 8.2900391-4.0899658 14.7900391-.4700317.8099976-1.0800171 1.6199951-1.7700195 2.4199829l-.0100098.0100098-.0199585.0100098-.1400146.0799561-.0599976.0300293-1.1199951.6499634-.3300171.1900024-.0499878.0300293-2 1.1599731-.0200195.0100098-.0100098.0100098-.1300049.0800171-.2699585.1499634-.0200195.0100098-.1400146.0800171-.1900024.1099854-.1499634.0900269-.3500366.2000122-.1399536.0799561-.0500488.0300293-.1799927.1099854-.2799683.1500244-.1100464.0699463-.6299438.3600464-.3500366.2000122-.6300049.3699951-.3900146.2199707-.0099487.0100098-.4299927.25-.4000244.2299805-2.3599854 1.3599854-.3600464.210022-.039978.0200195-.1799927.0999756-.0300293.0200195-.4699707.2700195-1.8699951 1.0799561-.0300293.0200195-.5299683.2999878h-.0100098l-.3200073.1900024-.4799805.2800293-.1400146-.0800171-1.0599976-.6099854-.2199707-.1300049-.8500366-.4899902-.0299683-.0100098-.1300049-.0800171.1900024-33.9799805 2.8800049-2 7.8199463-5.4400024s17.710022 2.5199585 21.9000244 1.1599731c2.3699951-.7699585 4.1699829-1.6099854 5.289978-2.1900024.5200195-.2699588 1.1000366.2000119.9300537.7600094z" fill="#665b5b"/><path d="m48.016449 101.7501221-4.6099854 7.7000122-.0200195.039978-.5799561-.3299561-.460022-.2700195-.2799683-.1600342-.5100098-.2999878-.6100464-.3499756-.0899658-.0499878h-.0100098l-.1400146-.0900269h-.0100098l-.4400024-.25-.1299438-.0800171-.5-.289978h-.0100098l-.2900391-.1699829-.2199707-.1199951-.0900269-.0599976-.0299683-.0200195-.4100342-.2399902-.25-.1400146-.3899536-.2199707c-.1400146-.0900269-.2700195-.1700439-.4200439-.25l-.7600098-.4400024h-.0099487l-1.0200195-.6000366-.1900024-.1099854-.3699951-.210022-.3900146-.2199707-.0800171-.0499878-.1499634-.0800171-.2600098-.1500244-.2399902-.1499634-.0900269-.0500488-.3499756-.1999512c-.0300293-.0200195-.0499878-.0400391-.0800171-.0500488l-.0800171-.039978-.039978-.0299683-.5100098-.2900391-.789978-.4500122-.0499878-.0299683-.1500263-.0800171-.3699951-.2199707-1.3900146-.8099976s-.0100098 0-.0199585-.0100098l-.3000488-.1699829-.9499512-.5500488-.1200562-.0700073-.6199951-.3599854-1.5-16.3399658-.2699585-2.9899902z" fill="#444141"/><path d="m59.6964417 114.6401367-.4699707.2700195-1.8699951 1.0799561-.0300293.0200195-.5299683.2999878h-.0100098l-.3200073.1900024-.4799805.2800293-.1400146-.0800171-1.0599976-.6099854-.2199707-.1300049-.8500366-.4899902-.0299683-.0100098-.1300049-.0800171-.7800293-.4500122-.1699829-.0999756-.0499878-.0300293-.1799927-.0999756-.4300537-.25-.1699829-.0999756-.9899902-.5700073-.0900269-.0500488h-.0099487l-.0200195-.0199585-.2800293-.1600342-.5-.289978-.3199463-.1900024h-.0100098c-.0100098-.0100098-.0100098-.0200195-.0200195-.0200195l-1.1199951-.6399536-.039978-.0300293-1.7400513-1-.3299561-.1900024-2.7399902-1.5899658c-.0500488-.0500488-.1100464-.1000366-.1600342-.1500244-1.2999878-1.2700195-2.4199829-2.5900269-3.1900024-3.9199829-3.7799683-6.5-4.0899658-14.7900391-4.0899658-14.7900391-4.1000366-1.4799805-7.1800556-3.8399658-9.4900532-6.3999634-3.5699463-3.9700317-5.2599487-8.3900146-5.9499512-10.6500244-.1600342-.5599976.4199829-1.0299683.9299927-.7600098 1.1199951.5800171 2.9199829 1.4200439 5.289978 2.1900024 4.2000122 1.3599854 21.9100361-1.1599731 21.9100361-1.1599731l7.8099976 5.4400024 2.8799438 2z" fill="#665b5b"/><path d="m37.3132935 87.9479828 2.8219413-2.0373993 1.3874665-.4387131-.5918122 1.4702606-2.9895363 1.4020615z" fill="#bababa"/><path d="m48.101799 87.8144684-2.8681869-1.9717636-1.3972207-.4065933.6255723 1.4562149 3.0210838 1.3327331z" fill="#bababa"/><path d="m48.8034973 87.1829453-.5129356-1.2464142-2.1569252-1.5944214c-.6805-1.8423767-2.9486313-2.6928101-2.9486313-2.6928101 1.4427605 1.2589188 1.8903084 2.7187119 1.8903084 2.7187119l-.6407776-.7020416-1.6100616-.1066742.0004883-.0169754-.1091576.009758-.2258224-.0149536.0018196.0350189-1.6078987.1438599-.6244354.7166443s.4137688-1.4697266 1.8270836-2.7616119c0 0-2.2478943.9025421-2.8856964 2.7601089l-2.1195946 1.6437607-.4840393 1.2579041 3.7186584-1.1945038.6215782-.2161255.1041336.633934-.2738037.4449463.9680748.6376877-.6340179.1621933 1.1377182 3.0336227 1.3393478-.0110245.8854485-3.1036987-.7527618-.1400757.8896637-.7156067-.3080446-.5818787-.03759-.4662552.8026505.2585068z" fill="#bababa"/><path d="m48.5890198 64.4672241v11.617981c.0532837.007019.1068726.0145264.1623535.0409546 1.7365723.8276367 3.3267822 1.9884644 4.6018677 3.4348755 1.1150513 1.2648926 1.8796997 2.7751465 2.9146118 4.0897827.1383057-.1922607.4063721-.2467041.6195679-.1575928 1.2554321-1.5135498 2.6647949-2.8956299 3.9011841-4.4314575 1.1536255-1.4329224 2.4449463-2.4486694 3.7528687-3.5886841v-11.0058594z" fill="#d69f83"/><path d="m71.2091751 55.2423859c-.675621 8.45924-9.2489738 14.2161179-14.5462265 14.2161179-5.7010994 0-13.1194611-5.4901772-14.5462227-14.2161179-1.3567772-8.2979202 6.5125656-15.2242317 14.5462227-15.2242317s15.2156296 6.8428115 14.5462265 15.2242317z" fill="#ffdbc7"/><path d="m43.6852722 33.5584755c-.0997314.1278076-.2105103.2490234-.3380127.3505249-.3137817.3694458-.5996094.7617188-.9876709 1.0643921-.0640259.0499268-.1314697.0812378-.1994019.0984497v20.5564575h29.0055543v-22.0698242z" fill="#ffdbc7"/><path d="m67.6033173 41.8977165c-2.4457703-1.0582123-5.4906693-1.2598991-7.6791801.1429634-.9680481.620491-.5427094 1.7508087.4235535 1.1313477 1.490448-.9553375 5.2200737-.8012047 6.8250847-.106739 1.1247405.4866561 1.5498046-.683323.4305419-1.1675721z" fill="#8e746f"/><path d="m45.3622932 41.7139053c2.4720688-1.0582085 5.5283966-.851429 7.740448.5514297.9784584.6204948.3917007 1.5261993-.5849571.9067383-1.5064774-.9553413-5.2762108-.8012047-6.8984833-.1067429-1.136837.4866601-1.3883171-.867176-.2570076-1.3514251z" fill="#8e746f"/><path d="m60.3039627 52.8917313c-3.3692474 1.5482521-6.2518845.5760841-7.4230919.0345726-.0850334.0173454-.1775436.0400085-.2097816.2358322 3.7013245 5.4489632 6.8612556 1.5532761 7.851181.0188065.038311-.237877-.1143532-.2396851-.2183075-.2892113z" fill="#d69f83"/><circle cx="64.003876" cy="47.236774" fill="#4e7493" r="2.116493"/><circle cx="49.278221" cy="47.236774" fill="#4e7493" r="2.116493"/><path d="m59.403492 59.5687332h-5.5947342c-.8897247 0-.8911705 1.5611801 0 1.5611801h5.5947342c.8897247 0 .8911705-1.5611801 0-1.5611801z" fill="#c1897a"/><circle cx="49.86335" cy="46.8685" fill="#fff" r=".768642"/><circle cx="64.653046" cy="46.8685" fill="#fff" r=".768642"/><path d="m67.6079407 45.4840851c-.0211792.0567627-.1027832.1112061-.187561.1426392-.0499268-.0767822-.1062012-.1517334-.1888428-.2150879-1.6906738-1.2955322-4.9871216-1.1611328-6.6652222.0872803-.796875.5929565-.0193481 1.9486694.7880249 1.3480835 1.2751465-.9487305 3.8012085-1.0744019 5.0891724-.0874023.0127563.0097656.0250244.0093994.0377808.0181885.185791.215332.5342407.2677612.7247925.0687256.1071167-.0014038.269165-.0132446.3029175-.0241699.1707764-.0552979.3187256-.1567383.4571533-.2678833.1824951-.1464844.3271484-.3185425.4440918-.5101318.0600586-.0900269.1135864-.1871948.1544189-.2965088.1793823-.6235354-.7370606-.8521731-.9567261-.2637331z" fill="#3f3838"/><path d="m52.5058289 45.4116364c-1.6906128-1.2955322-4.9870605-1.1611328-6.6651611.0872803-.137207.1021118-.2134399.2296753-.2651978.3630981-.1347046-.0471191-.2930298-.1130981-.30896-.2049561-.0949097-.5467529-1.019104-.4255371-.9744873.1318359.0037842.0473022.019104.0863037.0269775.1306763-.0030518.0004272-.0061646.0007935-.0092163.0012207.0029907.0170898.0145874.0266113.0183716.0430298.178894.8413086 1.0827026 1.1464233 1.8950195 1.0715942.1263428-.0116577.22052-.0670166.2965698-.1376953.0365601-.0195313.0720825-.0233154.1089478-.0507202 1.2751465-.9487305 3.8012085-1.0744019 5.0891724-.0874023.7971191.6109009 1.5755005-.7445069.7879639-1.3479614z" fill="#3f3838"/><path d="m71.348732 31.9837971c-.0054932-.1175747-.0450134-.2373199-.1508255-.343895-.3948441-.3975239-.5913925-.9105835-.9371567-1.344492-.2900085-.3640556-1.3184433-1.4493427-1.7013245-1.6961651.2549667-4.8100662-9.545002-8.7217712-16.662796-6.6465206-6.1859436 1.8035831-10.0572853 5.0920849-9.682682 7.8822803-.2182159.3715916-2.1196022 1.8913116-2.2644768 2.3105564-.3257751.9425545-.3932304 1.9381294-.3722763 2.9328194-1.0502739 1.24823-1.5980797 2.497345-1.5980797 2.497345-1.10952 2.5877686.4930878 3.0406151.4930878 3.0406151-.6163597 2.134922 1.7875175 8.1514626 1.7875175 8.1514626.2974472-9.418293 3.2186661-13.5102386 4.3536644-14.9846573 3.7893715.3246155 13.2577629.3006096 19.6305504-1.4207649 2.7267456 2.5980186 7.0258942 7.9518127 7.1141739 15.9647255 0 0 4.4278565-11.6568718-.0093765-16.3433094z" fill="#fff5f3"/><path d="m44.1651306 34.663517c.4265137.7178345 1.335144.1121216 1.932373.0334473 2.0853882-.2746582 4.2971802-.1734009 6.3978271-.1713257.2165527.0001831.3536263-.1171265.4234009-.2678833 1.5745239-.0300293 3.1345825-.1975098 4.7194214-.2363281 1.937561-.0474854 3.8323975.3217163 5.7651367.3379517.4138794.003418.5552979-.409729.4326782-.7040405.640686.0280151 1.2809448.0639648 1.9204102.1069336-.0286865-.027832-.0534058-.0614014-.0814819-.0900879-.913147-.4075928-2.5691376-.7835655-3.5306854-1.03088-1.9868774-.0744629-3.247879-.1263466-5.2213287-.1472206-2.5854492-.0274048-10.3275375.3542366-12.2738953 1.2309761" fill="#ffdbc7"/><g fill="#fff5f3"><path d="m67.2731018 33.5095863c-1.8926392-1.1057129-4.1223145-1.6154194-6.1950073-2.2799702-.609436-.1953735-.8704224.7622681-.2637939.956728 1.9834595.6359253 4.1494141 1.1233521 5.9580078 2.1799316.5524902.322754 1.0524291-.5344237.5007934-.8566894z"/><path d="m39.8130646 35.105114c-1.2410698-.0146027-2.9139481 4.432354-1.9783516 7.885025.3844452 1.4186783.8970642 1.5174179 1.2065392 2.8179512.7185669 3.0197372-1.457592 4.9571686-2.2498283 7.8221397-1.6751556 6.0577736 4.7855072 9.2152596 3.6997375 15.863781-.7851563 4.8077698-4.5330658 5.4190063-4.82938 10.0616989-.2554474 4.0022507 2.3516884 7.4743423 3.4159203 8.7142868.0843048.0982208.2248802-.0046844.1763763-.1296844-.6447525-1.6615677-2.8722534-6.7358246.1121788-11.1028442.7998848-1.1704559 4.4224434-6.2565994 4.5881042-7.2269363.9671364-5.6648331-4.7784843-8.6995659-3.9513588-14.2156677.627491-4.1847267 2.4335899-3.4423485 2.7294884-8.3717728.3490486-5.8148652-1.4496422-12.1006814-2.919426-12.1179772z"/><path d="m41.2457047 36.7264519c.8799057-.1395683 2.0860863 5.9376068 1.7935753 9.7405472-.1202011 1.5626068-.4736557 1.7198601-.5533371 3.1480408-.1850128 3.3161316 1.5693665 5.1804886 2.4407387 8.1795387 1.8424759 6.3412628-2.4060555 10.3785553-.9185486 17.4133453 1.0756683 5.0871048 3.8035049 5.3697052 4.5141792 10.3282394.6126518 4.2745209-.8649902 8.2651672-1.4872742 9.703598-.0492935.113945-.1602287.0174103-.1392441-.121727.2789154-1.8495483 1.3143005-7.523674-1.2759323-11.9177017-.6942329-1.1776886-3.8151741-6.2806549-4.0373878-7.3066559-1.2972603-5.9897537 2.4566345-9.8237839 1.2748375-15.6677246-.896553-4.4334335-2.0993614-3.4555435-2.840641-8.7221832-.8744241-6.2126541.1869773-14.6120262 1.2290344-14.777317z"/><path d="m71.5159454 35.105114c-1.2410736-.0146027-2.9139481 4.432354-1.9783554 7.885025.3844452 1.4186783.8970718 1.5174179 1.206543 2.8179512.7185669 3.0197372-1.4575958 4.9571686-2.2498322 7.8221397-1.6751556 6.0577736 4.7855072 9.2152596 3.6997452 15.863781-.7851639 4.8077698-4.5330734 5.4190063-4.8293839 10.0616989-.2554474 4.0022507 2.3516846 7.4743423 3.4159241 8.7142868.0842972.0982208.2248764-.0046844.1763763-.1296844-.6447525-1.6615677-2.872261-6.7358246.112175-11.1028442.799881-1.1704559 4.4224396-6.2565994 4.5881042-7.2269363.9671402-5.6648331-4.7784882-8.6995659-3.9513626-14.2156677.6274948-4.1847267 2.4335938-3.4423485 2.7294922-8.3717728.3490449-5.8148652-1.4496459-12.1006814-2.9194259-12.1179772z"/><path d="m73.3664246 39.012928c-.8871841-.0813408-1.6906891 6.0620575-1.1484604 9.8374939.2228088 1.5513.5858459 1.6849442.7593765 3.1047821.4029083 3.2967606-1.2249298 5.2725639-1.8969879 8.3224716-1.4210281 6.4487953 3.0840607 10.1976509 2.0628815 17.3151054-.7384491 5.1468735-3.4417648 5.6084442-3.8244781 10.6030045-.3299255 4.3055801 1.4072189 8.1903 2.1228409 9.5846405.056694.1104584.161026.0068283.1309357-.1306305-.4000702-1.8271713-1.8067398-7.4208298.4886169-11.9758453.6151962-1.2208405 3.3934402-6.5181808 3.5476303-7.5565796.9001389-6.0621719-3.0980072-9.6407623-2.3034897-15.5498199.6027603-4.4828415 1.8673325-3.5862541 2.2602997-8.8902702.4635467-6.2567368-1.1484834-14.5680161-2.1991654-14.6643525z"/><ellipse cx="71.099136" cy="34.035687" rx="1.911327" ry="4.129482" transform="matrix(.9878263 -.1555608 .1555608 .9878263 -4.42908 11.474577)"/><ellipse cx="72.52253" cy="37.391121" rx="4.04523" ry="1.951135" transform="matrix(.0527964 -.9986053 .9986053 .0527964 31.354631 107.838387)"/></g><path d="m59.8442459 71.0990829s4.1405525-1.4026108 5.6356277-4.5142441c1.495079-3.1116295.5990295 9.4494095.5990295 9.4494095s-4.0537071 4.9996567-9.8546028 7.9083481l3.2763596-11.2413177s-.953804-1.0788651.343586-1.6021958z" fill="#444141"/><path d="m53.2955246 71.1699524s-4.1405525-1.4026108-5.6356277-4.5142441c-1.495079-3.1116295-.5990295 9.4494095-.5990295 9.4494095s3.3861618 4.9996567 9.1870575 7.9083557l-2.6088142-11.2413254c-.0000001 0 .9538039-1.078865-.3435861-1.6021957z" fill="#444141"/><path d="m56.7364807 84.1201172v32.25l-.0200195.0100098-.3099976.1799926-.0299682.0200196-.1400147.0800171-.1900024.1099853-.0200196.0100098-.2299804-.1300049-.0900269-.0499878v-32.4800415z" fill="#444141"/><path d="m31.396452 31.3801289c0 .25-.0299683.5-.0599976.7299824h-12.6599732l.3800049-.2199726.1499634-.0900269h.0100098l.1400146-.0799561 1.4299927-.8400269h.0100098l.5299683-.2999878.4299927-.25.3900146-.2299805.1500244-.0900269 2.0700073-1.1900024.9799805-.5700073 1.0100098-.5899658.4199829-.2400513.4500122-.2599487.25-.1400146h.0100098l.5700073-.3300171.2399902-.1400146c.2799683.1600342.5499878.3400269.7999878.5300293.4700317.3699951.8800049.7799683 1.210022 1.2299805.6999511.9000244 1.0899658 1.9600219 1.0899658 3.0700073z" fill="#fff"/><path d="m36.2628899 31.568203c0 .1849594-.0245285.3699188-.0860405.538147h-11.6635647c-.0614376-.1682281-.0860424-.3531876-.0860424-.538147 0-1.563942 2.0033398-2.8756943 4.6704082-3.1952152.3932247-.0503979.8111324-.0672302 1.2412643-.0672302 3.2692853-.0000001 5.9239751 1.463045 5.9239751 3.2624454z" fill="#fff"/><path d="m19.4964886 32.1101112h-.8200073l.3800049-.2199726.1499634-.0900269h.0100098l.1400146-.0799561c.0499877.130005.0999755.2599488.1400146.3899556z" fill="#fff"/><path d="m96.9164734 34.120121-.5300293-.2999878-.7199707-.4199829-.7700195-.4500122-.1099854-.0599976-.4899902-.2800293-.5100098-.289978-.9000244-.5200214-7.25-4.1799927-1.7099609-.9799805-.7200317-.4199829-.4500122-.2600098-.4899902-.2900391-.0499878-.0199585-.4199829-.25-.4100342-.2399902-5.3299561-3.0700073-19.5-11.2399893-.5300293-.3100586-.4699707.2700195-17.1100464 9.8800039-5.0199585 2.9000244-1.2999878.75-.5300312.3099976-.0999756.0499878c-.0100098 0-.0100098 0-.0100098 0l-.25.1500244-.4199829.25-.3000488.1699829-.2699585.1599731-.1799927.1000366-1.5.8699951h-.0100098l-1.7800293 1.0199585-.0100098.0100098-.5799561.3400269-.7600098.4299927-.0100098.0100098-.0300293.0199585-3.25 1.8700562h-.0099487l-2.3800049 1.3699951-1 .579958-2.9800415 1.7200317-4.2299805 2.4400024-1.539978.8900146v53.1199913l.0700073.039978 1.7199707 1 .75.4299927.1500244.0800171 4.3199463 2.5.6900024.3900146 4 2.3199463.460022.2600098 1.2999878.75 3.3800049 1.9500122 5.3800068 3.0999756.6900024.4000244.0700073.039978.1500244.0800171.1099854.0700073.1799927.0999756.039978.0200195 1.9100342 1.1099854.8800049.5 1.3299561.7800293.8900146.5100098.1799927.0999756.3099976.1799927.1900024.1099854.4800415.2800293 3.5699463 2.0499878.0900269.0499878.4400024.2600098.6199951.3599854.7200317.4200439h.0099487l.5300293.2999878 1.5100098.8699951 3.1699829 1.8400269 4.4799805 2.5799561.9400024.5500488.0900269.0499878.2299805.1300049.0200195-.0100098.1900024-.1099854.1400146-.0800171.0299683-.0200195.3099976-.1799927.0200195-.0100098 1.789978-1.0199585.0900269-.0500488.6900024-.3999634.5-.2900391.2399902-.1399536 3.8499756-2.2200317 2.4500122-1.4099731.7399902-.4299927.6600342-.3800049.6699829-.3900146.4400024-.2600098 2.3300171-1.3400269.3899536-.2199707h.0100098l.2300415-.1400146.2099609-.1199951.6300049-.3599854.7999878-.460022 1.2600098-.7299805.460022-.2700195h.0100098l.4599609-.2699585.0100098-.0100098.25-.1400146.5300293-.3099976.3699951-.210022.3499756-.2099609.5499878-.3099976.210022-.1300049.3200073-.1799927.4299927-.2400513.0200195-.0099487.0499878-.0300293.1300049-.0800171.2399902-.1300049 3.7799683-2.1799927.3800049-.2199707 1.1100464-.6500244 2.9699707-1.7099609 1.5599976-.9000244 8.5300293-4.9199829h.0099487l.0599976-.0400391 2.6500244-1.5299683.9000244-.5200195 1.0299683-.5899658v-53.1199912zm3.2999878 55.0300255-.5200195.2999878-.3199463.1799927-.5800171.3400269-7.5900269 4.3800049-4.6699829 2.6899414-3.1199951 1.8000488-1.2800293.7399902-.7199707.4099731-2.9299927 1.6900024-.0700073.0499878-.1600342.0900269-.1799927.1099854-.5700073.3200073-.8899536.5100098-.2200317.1300049-.0499878.0299683-.8099976.4700317-.0900269.0499878-3.9099731 2.25-.0800171.0499878-.789978.4500122-.0800171.0499878-.9099731.5300293-2.1500244 1.2399902-1.539978.8900146-1.6799927.9699707-1.1000366.6300049-2.9699707 1.7200317-1.2300415.7099609-.0599976.0400391h-.0199585l-.75.4400024-.2800293.1499634-1.1599731.6699829-.710022.4100342-.3200073-.1799927-3.1300049-1.8099976-1.2299805-.710022-.6099854-.3499756-1.8099976-1.0500488-.7200317-.4099731-.6900024-.4000244-5.2600098-3.0299683-.7699585-.4500122-.0499878-.0299683-1.7900391-1.0300293-2.0599976-1.1799927-.8999634-.5200195-.5800171-.3399658-.25-.1500244-.4299927-.25-.210022-.1199951-1.75-1.0100098-.3099976-.1799927-.1900024-.1099854-1.5000019-.8699951-3.4199829-1.9700317-3.9100342-2.2600098-1.7599487-1.0099487-3.4200439-1.9700317-4.9099731-2.8399658-.9000244-.5100098-.3900146-.2300415-.2299805-.1300049-.6699829-.3899536v-50.9700278l3.9099731-2.2600098 2.9800415-1.7199707.9299927-.539978h.0100098l.0599976-.0400391 3.1999512-1.8499775h.0100098l1.3600464-.7900391h.0099487l1.7900391-1.0299683 1.25-.7200317.4299927-.25h.0100098l.7600098-.4400024.4599609-.2699585h.0100098l2.9799824-1.7200317c.0100098-.0100098.0100098-.0100098.0200195-.0100098l.7800293-.4499512.3499756-.2000122.2000122-.1199951.289978-.1699829.1699829-.1000366.2700195-.1499634.039978-.0200195 8.0300293-4.6400146 13.3900146-7.7299795.4699707-.2700195.5300293.3099976 16.8299561 9.710021 6.9800415 4.0299683.0499878.0300293.3200073.1799927.1099854.0599976.4400024.2600098.3499756.2000122 1.2300415.7099609 1.9400024 1.1199951 7.0199585 4.040041 1.4100342.8099976.5499878.3200073.039978.0299683.7700195.4400024.1900024.1099854.539978.3099976.5300293.3099976 4.3599854 2.5100098z" opacity=".13"/></svg>