<?xml version="1.0" encoding="UTF-8" standalone="no"?>
<svg
   xmlns:osb="http://www.openswatchbook.org/uri/2009/osb"
   xmlns:dc="http://purl.org/dc/elements/1.1/"
   xmlns:cc="http://creativecommons.org/ns#"
   xmlns:rdf="http://www.w3.org/1999/02/22-rdf-syntax-ns#"
   xmlns:svg="http://www.w3.org/2000/svg"
   xmlns="http://www.w3.org/2000/svg"
   xmlns:sodipodi="http://sodipodi.sourceforge.net/DTD/sodipodi-0.dtd"
   xmlns:inkscape="http://www.inkscape.org/namespaces/inkscape"
   width="100%"
   height="100%"
   viewBox="0 0 1200 1200"
   version="1.1"
   xml:space="preserve"
   id="svg140"
   fill-rule="evenodd"
   clip-rule="evenodd"
   stroke-linecap="round"
   stroke-miterlimit="10"
   sodipodi:docname="kimono_bot.svg"
   inkscape:version="0.92.2 5c3e80d, 2017-08-06"><metadata
     id="metadata94"><rdf:RDF><cc:Work
         rdf:about=""><dc:format>image/svg+xml</dc:format><dc:type
           rdf:resource="http://purl.org/dc/dcmitype/StillImage" /><dc:title></dc:title></cc:Work></rdf:RDF></metadata><sodipodi:namedview
     pagecolor="#ffffff"
     bordercolor="#666666"
     borderopacity="1"
     objecttolerance="10"
     gridtolerance="10"
     guidetolerance="10"
     inkscape:pageopacity="0"
     inkscape:pageshadow="2"
     inkscape:window-width="1440"
     inkscape:window-height="782"
     id="namedview92"
     showgrid="false"
     inkscape:zoom="0.27812867"
     inkscape:cx="712.54329"
     inkscape:cy="357.04197"
     inkscape:window-x="0"
     inkscape:window-y="1"
     inkscape:window-maximized="1"
     inkscape:current-layer="svg140" /><defs
     id="defs144"><linearGradient
       id="linearGradient2514"
       osb:paint="solid"><stop
         offset="0"
         id="stop2512"
         stop-color="#000"
         stop-opacity="1" /></linearGradient><clipPath
       id="_clip1"><path
         id="rect4"
         d="M4-1h756v840H4z" /></clipPath><style
       id="style2047">.cls-7{fill:#15003e}</style><clipPath
       id="a"><path
         id="path1263"
         d="M 4,-1 H 760 V 839 H 4 Z"
         inkscape:connector-curvature="0" /></clipPath></defs><path
     d="M-.001 0h1199.999v1199.999H-.001z"
     id="rect2"
     fill="none"
     stroke-width="1.506" /><path
     d="M214.29 578.87h117.85v-98.26h131.03v98.26h73.08v-98.26h130.88v98.26h80.57v-98.26h131.02v98.26h121.75V881.5l-398 216-388-224z"
     style="isolation:isolate"
     id="polygon2053"
     opacity=".21"
     fill="#fbc115" /><path
     d="M600.05 1.5L81.69 300.75v598.5l101.78 58.73 1.87 1.12 414.71 239.4 518.26-299.25v-598.5zm435.31 848.7l-9.63 5.52-8.42 4.86-24.78 14.31-.56.37h-.09l-33.58 19.36-17.67 10.19-28.52 16.46-14.59 8.42-27.78 16-10.38 6.08-3.55 2-35.34 20.43-2.24 1.22-1.22.74-.47.28-.18.1-4 2.24-3 1.69-2 1.21-5.15 2.9-3.27 2-3.47 1.92-4.95 2.9-2.34 1.31-.1.09-4.3 2.52h-.09l-4.3 2.53-11.79 6.83-7.48 4.3-5.89 3.36-2 1.13-2.15 1.31h-.1l-3.64 2.05-21.79 12.53-4.08 2.44-6.26 3.65-6.18 3.56-6.92 4-22.91 13.18-36 20.76-2.25 1.31-4.67 2.71-6.45 3.74-.85.47-16.92 9.63-2.9 1.69-.28.18-1.31.75-1.78 1-.18.09-.19-.1-.1.06-1.31-.75-12-6.92-8-4.58-.28-.1-8.51-5-1.59-.94-.47-.28-5.7-3.27-1.59-.94-31.42-18.14-.38-.28-19.35-11.13-11.57-6.65-3.58-2.09-17.42-10.12-29.87-17.15-4.05-2.36-.73-.4-.3-.2-1.19-.69-2.89-1.68-1.69-.94-8.32-4.77-12.44-7.29-8.2-4.71-17.86-10.38-.37-.18-1.77-.94-1-.65-1.4-.75-.65-.38-6.45-3.74-50.32-29-31.6-18.23-12.16-7-4.3-2.44-14.87-8.6-17.58-10.19-5-2.9-6.45-3.65-40.4-23.38-1.4-.75-7-4-16.08-9.35-.66-.37V353.44l14.4-8.32 39.56-22.82 27.87-16.08 9.35-5.43 22.26-12.81h.09l26.33-15.15 3.78-2.19.57-.34.09-.09 1.91-1.08 6.87-4 3.83-2.19 1-.58 3.29-1.9 1.2-.67 11.15-6.39 7.25-4.17 6.83-4 1.4-.77.63-.37 2.18-1.29 2.8-1.59 3.93-2.33 2.34-1.41h.09l.94-.46 4.95-2.9 2.51-1.45 4.5-2.62.51-.27 4.64-2.68 32.92-19 4.29-2.53 4.87-2.81 7.12-4.06 20.35-11.75.3-.18.84-.48 136.26-78.68 4.4-2.53h.05l.13-.07 9.91 5.8 60.69 35.07 24.32 14 14 8.09 33.28 19.19 2.18 1.24 9.75 5.63 33 19 49.58 28.56 1 .57 8.14 4.67 14.22 8.23 12.89 7.45 7.48 4.3.84.56 16.93 9.73 35.34 20.41.23.18 10.81 6.23 8.42 4.86 4.73 2.73 4.58 2.62 1 .56 7.2 4.21 6.73 3.93 5 2.81 48.35 27.86z"
     id="path2129"
     fill="#fbc115" /><path
     style="isolation:isolate"
     d="M611.82 1094.13h.09l5.24-3 17.49-10.1 4.67-2.71 1.69-.94.37-.18 3.37-2 22.07-12.7 3.74-2.16 4-2.33.09-.1 3.65-2 9.16-5.33 11.69-6.74 1.31-.75 4.68-2.71 3.34-1.88 3.74-2.15.09-.09.19-.1 32.73-19 .56-.28 5.89-3.37 21.79-12.53 5.33-3.08.38-.28 3.93-2.25 4.39-2.52a.09.09 0 0 0 .09-.1l2.29-1.25 3.09-1.77 1.87-1.12 6-3.56.66-.37h.09l2.25-1.31 3-1.68.47-.29 1.4-.84 1.31-.75 9.44-5.42.38-.19.18-.18 1.69-.84 7.29-4.21v-.1l.56-.37.47-.19.47-.28.28-.09 3.83-2.25.75-.46.66-.38.46-.35 11.79-6.73 8.13-4.86 14.4-8.33h.1l.18-.18 4.21-2.43 11.51-6.64.37-.28 9.82-5.62 7.67-4.39 28.33-16.27 1-.66.94-.37.28-.09 2.27-1.15 4.4-2.53 1.31-.74 4.39-2.53 13.84-8 1.5-.84 18.05-10.38 1.87-1.12 29.36-16.93 8.23-4.77 1.21-.65 3.09-1.78 10.19-5.8.1-.09V353.31l-26.37-15.25-18.17-10.47-4.12-2.34-7.29-4.12-18-10.38-.18-.09-5.05-2.9-8.61-5-3.74-2.15-2.43-1.49-2.43-1.31v-.1l-.15-.1-57-32.86-16-9.16-6.73-3.93-4.21-2.43-4.58-2.72-.47-.18-3.92-2.34-3.84-2.25-.26-.14-20.5-11.68-9.73-5.71-52.34-30.19-11.93-6.87-10.35-6L713.74 168l-104.16-60-4.9-2.87-13.34 7.69-56.76 32.78-2.53 1.5-1.77 1-53.5 30.86-.46.28h-.1l-12.25 7-1.14.66-6.15 3.66-14.21 8.12-2.25 1.3-14 8.1-6 3.55-4.12 2.43-3.55 2.06-7.3 4.2-15.52 8.89-1.08.57-5 2.89-10.27 6-9.47 5.45-.35.21-.28.16-8.23 4.74-7.2 4.17h-.05l-4.63 2.67-5.33 3.08h-.09l-1.14.64-4.49 2.57-.92.53-.1.06-.08.08-5.42 3.18-5.2 2.94-2 1.17-.28.18-4.06 2.34-5.39 3.14-19.35 11.12-1.41.85-7.67 4.48-21.22 12.25-16.37 9.45-5.42 3.09-2.37 1.28h-.09l-7.2 4.3-52.93 30.5v496.94l.28.19.74.38.85.46 31.88 18.43 30.86 17.8.19.1 2.43 1.4a.31.31 0 0 0 .19.09l2.71 1.59.19.1.37.18 6.74 4 12.43 7.2 9.54 5.51 17.4 10.1c.09 0 .09 0 .18.1l9.73 5.61h.12l2 1.12.09.09 4.67 2.72.85.46 7.66 4.4 19.49 11.23 23.47 13.65 16 9.26 3.46 2.06 1.41.75.46.28 12.16 6.92.37.28.75.37.75.47 3.27 1.87.85.47 2.24 1.4 2.43 1.4 2.15 1.22 3.65 2.06 3.46 2 11.36 6.54 20.85 12.06.28.19.54.36.59.34.44.26 1.33.72 8.7 5 6.45 3.65 5.71 3.27 11.73 6.82 3.51 2 .85.47 4.11 2.43 5.8 3.37 3.15 1.83 3.6 2.09h.08l5 2.81 14.12 8.13 29.65 17.21 41.89 24.13 9.63 5.61 2 1.11 4.39-2.56zm-39.46-34.18l-11.5-6.64-5.7-3.27-16.93-9.82-6.73-3.83-6.46-3.74-49.18-28.34-7.2-4.21-.47-.28-16.72-9.63-19.27-11-8.41-4.87-5.43-3.18-2.33-1.4-4-2.34-2-1.12-16.36-9.44-2.9-1.69-1.78-1-14-8.13-32.02-18.52-36.56-21.1-2.81-1.59-13.65-7.85-4-2.34-28-16.09-45.91-26.56-8.42-4.77-3.65-2.15-2.15-1.21-6.26-3.65V363.5l36.56-21.13 27.87-16.09 8.7-5.05h.09l.56-.37 29.93-17.3h.09l12.72-7.39h.09l16.74-9.63 11.69-6.73 4-2.34h.1l7.1-4.12 4.3-2.52h.1l27.86-16.09c.1-.09.1-.09.19-.09l7.3-4.21 3.27-1.87 1.87-1.12 2.78-1.55 1.59-.94 2.53-1.4.37-.19 75.09-43.39 125.18-72.28 4.4-2.53 5 2.9 157.39 90.8 65.27 37.69.47.28 3 1.68 1 .57 4.12 2.43 3.27 1.87 11.5 6.64 18.11 10.47 65.65 37.78 13.19 7.58 5.14 3 .38.28 7.2 4.11 1.77 1 5 2.9 5 2.9 40.78 23.45v476.69l-4.86 2.81-3 1.68-5.43 3.18-71 41-10.1 5.8-17.68 10.19-15.9 9.16-29.13 16.8-12 6.92-6.74 3.83-27.4 15.81-.65.46-1.5.85-1.68 1-5.33 3-8.29 4.82-2.06 1.21-.47.28-7.57 4.4-.85.46-36.56 21-.75.46-7.39 4.21-.74.47-8.51 5-20.11 11.6-14.4 8.32-15.71 9.08-10.29 5.89-27.77 16.08-11.53 6.61-.56.38h-.18l-7 4.11-2.62 1.4-17.48 10.1z"
     id="path2131"
     opacity=".13" /><path
     class="cls-7"
     d="M731.27 1075.63l14.64-8.41.66 1.15a27.93 27.93 0 0 1 3.14 7.62 17.62 17.62 0 0 1 0 7.12 18.55 18.55 0 0 1-9.35 12.77 20 20 0 0 1-15.83 2 21.3 21.3 0 0 1-4.86-39 20.93 20.93 0 0 1 8.73-2.77 25.76 25.76 0 0 1 9.93 1.59l-1.76 5.8q-7.7-3.3-14 .31a14.57 14.57 0 0 0-7.21 9.31 15 15 0 0 0 1.69 11.74 14.44 14.44 0 0 0 9.85 7.3 14.7 14.7 0 0 0 10.67-1.4 12.34 12.34 0 0 0 5.55-6.73 11 11 0 0 0-.17-8.43l-8.85 5.08z"
     id="path2133"
     fill="#15003e" /><path
     d="M755.104 1039.317l5.346-3.08 20.41 35.42-5.347 3.08z"
     class="cls-7"
     id="rect2135"
     fill="#15003e" /><path
     d="M780.34 1031.49l-2.9-5.02 21.61-12.44 2.88 5.02-8.11 4.67 17.49 30.41-5.33 3.07-17.5-30.39z"
     class="cls-7"
     id="polygon2137"
     fill="#15003e" /><path
     class="cls-7"
     d="M842.06 991.8l3.64 6.32q-6.88-1.22-11.83 1.64a14.15 14.15 0 0 0-6.95 9.21 15.27 15.27 0 0 0 1.74 11.72 14.86 14.86 0 0 0 9.17 7.25 14.43 14.43 0 0 0 11.45-1.48 13.25 13.25 0 0 0 4.25-3.68 15 15 0 0 0 1.57-2.55 30.42 30.42 0 0 0 1.41-3.32l3.72 6.46a22.38 22.38 0 0 1-8.15 8.16 21 21 0 0 1-28.79-7.66 21.08 21.08 0 0 1-2.45-14.65 20.46 20.46 0 0 1 10.51-14.72 20.78 20.78 0 0 1 10.71-2.73"
     id="path2139"
     fill="#15003e" /><path
     d="M867.98 990.21a20 20 0 0 1-1.91-16 20.93 20.93 0 0 1 10-13 21.4 21.4 0 0 1 29 7.83 20.11 20.11 0 0 1 2 16.11 21.63 21.63 0 0 1-25.15 15.35q-9-1.78-13.94-10.31m5.41-3a14.8 14.8 0 0 0 9.51 7.37 15.11 15.11 0 0 0 18.45-10.69 15.88 15.88 0 0 0-10.89-19 14.38 14.38 0 0 0-11.54 1.5 14.53 14.53 0 0 0-7.11 9.23 14.8 14.8 0 0 0 1.58 11.6"
     id="path2141"
     fill="#fff" /><path
     d="M913.882 947.896l5.345-3.083 20.416 35.405-5.345 3.083z"
     class="cls-7"
     id="rect2143"
     fill="#15003e" /><path
     d="M971.17 914.97l21.64 37.6-41.37-12.1 14.28 24.8-5.34 3.08-21.78-37.84 41.41 12.16-14.18-24.63z"
     class="cls-7"
     id="polygon2145"
     fill="#15003e" /><path
     id="path1261"
     d="M 1662.7125,-61.016349 H 2862.7113 V 1138.9825 H 1662.7125 Z"
     inkscape:connector-curvature="0"
     style="clip-rule:evenodd;fill:none;fill-rule:evenodd;stroke-width:1.50584495;stroke-linecap:round;stroke-miterlimit:10" /><g
     id="g2161"
     transform="matrix(0.90909092,0,0,0.90909092,-847.5793,524.67994)"><g
       transform="matrix(0.68512728,0,0,0.68512728,72.213802,-220.93807)"
       id="g2095"><path
         style="clip-rule:evenodd;fill:#25e899;fill-rule:nonzero;stroke:#15003e;stroke-width:11.9999876;stroke-linecap:round;stroke-miterlimit:10"
         inkscape:connector-curvature="0"
         d="M 1919.5928,625.22725 V 540.34733"
         id="path1268" /><path
         style="clip-rule:evenodd;fill:#15003e;fill-rule:nonzero;stroke:#15003e;stroke-width:11.9999876;stroke-linecap:round;stroke-miterlimit:10"
         inkscape:connector-curvature="0"
         d="M 1919.5911,841.7616 V 765.44968"
         id="path1270" /><path
         style="clip-rule:evenodd;fill:none;fill-rule:evenodd;stroke:#15003e;stroke-width:11.9999876;stroke-linecap:round;stroke-linejoin:round;stroke-miterlimit:10"
         inkscape:connector-curvature="0"
         d="m 1935.0756,818.7822 h -30.962 c -16.304,0 -29.5199,-13.21599 -29.5199,-29.51797 V 569.86445 c 0,-16.30398 13.2159,-29.51997 29.5199,-29.51997 h 30.962 c 16.302,0 29.518,13.21599 29.518,29.51997 v 219.39978 c 0,16.30198 -13.216,29.51797 -29.518,29.51797 z"
         id="path1336" /><path
         style="clip-rule:evenodd;fill:#25e899;fill-rule:nonzero;stroke-width:1.50584495;stroke-linecap:round;stroke-miterlimit:10"
         inkscape:connector-curvature="0"
         d="m 1943.4217,765.44997 c 0,-13.15999 -10.6667,-23.82855 -23.8286,-23.82855 -13.1619,0 -23.8285,10.66856 -23.8285,23.82855 0,13.15998 10.6666,23.82854 23.8285,23.82854 13.1603,0 23.8286,-10.66856 23.8286,-23.82854"
         id="path1338" /><ellipse
         style="clip-rule:evenodd;fill:none;fill-rule:evenodd;stroke:#15003e;stroke-width:11.9999876;stroke-linecap:round;stroke-miterlimit:10"
         cy="-1919.5931"
         cx="-765.45282"
         rx="23.827976"
         ry="23.829977"
         transform="matrix(0,-1,-1,0,0,0)"
         id="ellipse1340" /><path
         style="clip-rule:evenodd;fill:none;fill-rule:evenodd;stroke:#15003e;stroke-width:11.9999876;stroke-linecap:round;stroke-linejoin:round;stroke-miterlimit:10"
         inkscape:connector-curvature="0"
         d="m 1874.5916,625.22725 h 89.9999"
         id="path1342" /><path
         style="clip-rule:evenodd;fill:none;fill-rule:evenodd;stroke:#15003e;stroke-width:11.9999876;stroke-linecap:round;stroke-linejoin:round;stroke-miterlimit:10"
         inkscape:connector-curvature="0"
         d="m 1874.5916,679.56577 h 89.9999"
         id="path1344" /><path
         style="clip-rule:evenodd;fill:#eff4ee;fill-rule:nonzero;stroke:#15003e;stroke-width:11.9999876;stroke-linecap:round;stroke-miterlimit:10"
         inkscape:connector-curvature="0"
         d="m 1898.282,915.74982 v -59.03794 a 14.959985,14.959985 0 0 1 14.962,-14.96199 h 12.7 a 14.961985,14.961985 0 0 1 14.962,14.96199 v 59.03794"
         id="path1348" /><path
         style="clip-rule:evenodd;fill:#25e899;fill-rule:nonzero;stroke-width:1.50584495;stroke-linecap:round;stroke-miterlimit:10"
         inkscape:connector-curvature="0"
         d="m 1940.9058,915.75125 c 0,-11.77142 -9.5428,-21.31284 -21.3127,-21.31284 -11.7698,0 -21.3127,9.54285 -21.3127,21.31284 0,11.76998 9.5429,21.3114 21.3127,21.3114 11.7699,0 21.3127,-9.54284 21.3127,-21.3114"
         id="path1350" /><circle
         style="clip-rule:evenodd;fill:none;fill-rule:evenodd;stroke:#15003e;stroke-width:11.9999876;stroke-linecap:round;stroke-miterlimit:10"
         cy="-1919.5931"
         cx="-915.74896"
         r="21.311979"
         transform="matrix(0,-1,-1,0,0,0)"
         id="circle1352" /></g><g
       id="g2083"><g
         id="g1066"
         transform="matrix(1.2080292,0,0,1.2080292,1314.2577,-82.495108)"><g
           id="g1005"><path
             id="path993"
             d="M 338.981,455.001 V 275.055 h -185.1 v 15 c 4.146,0 7.504,3.358 7.504,7.5 V 455 h 177.596 z"
             style="fill:#ffb8b4"
             inkscape:connector-curvature="0" /><path
             id="path995"
             d="m 376.481,341.027 h 38.177 c 18.188,0 32.986,-14.798 32.986,-32.986 V 119.567 L 349.603,39.864 c -2.969,-2.414 -9.388,-4.685 -13.222,-4.675 l -19.443,0.055 c -1.502,0 -2.949,-0.438 -4.182,-1.26 L 288.449,17.78 193.586,151.322 H 338.981 V 87.971 c 0,-4.142 3.357,-7.5 7.5,-7.5 4.143,0 7.5,3.358 7.5,7.5 v 52.744 l 18.364,-18.364 c 2.931,-2.93 7.679,-2.929 10.607,0 2.928,2.929 2.929,7.678 0,10.606 L 353.98,161.928 V 348.53 h 15 c 10e-4,-4.145 3.358,-7.503 7.501,-7.503 z"
             style="fill:#ffb8b4"
             inkscape:connector-curvature="0" /><path
             id="path997"
             d="M 116.02,161.929 87.048,132.958 c -2.929,-2.929 -2.929,-7.678 0,-10.606 2.93,-2.929 7.678,-2.929 10.607,0 l 18.364,18.364 V 87.971 c 0,-4.142 3.357,-7.5 7.5,-7.5 4.143,0 7.5,3.358 7.5,7.5 v 63.351 h 44.167 L 225.8,80.072 181.55,17.78 157.243,33.984 c -1.232,0.821 -2.68,1.26 -4.16,1.26 -0.021,0 -19.465,-0.055 -19.465,-0.055 -3.858,0 -10.26,2.267 -13.222,4.675 l -98.041,79.703 v 188.474 c 0,18.188 14.798,32.986 32.986,32.986 H 93.52 c 4.143,0 7.5,3.358 7.5,7.5 0,0.003 15,0.003 15,0.003 z"
             style="fill:#ff8882"
             inkscape:connector-curvature="0" /><path
             id="path999"
             d="M 131.02,275.055 V 455 h 15.364 V 297.555 c 0,-4.141 3.355,-7.498 7.496,-7.5 v -15 z"
             style="fill:#ff8882"
             inkscape:connector-curvature="0" /><path
             id="path1001"
             d="m 131.02,205.689 h 22.5 c 4.143,0 7.5,3.358 7.5,7.5 0,4.142 -3.357,7.5 -7.5,7.5 h -22.5 v 39.367 H 338.981 V 220.689 H 183.52 c -4.143,0 -7.5,-3.358 -7.5,-7.5 0,-4.142 3.357,-7.5 7.5,-7.5 H 338.981 V 166.322 H 131.02 Z"
             style="fill:#ff382e"
             inkscape:connector-curvature="0" /><path
             id="path1003"
             d="M 459.875,110.179 359.065,28.225 c -5.645,-4.589 -15.373,-8.037 -22.66,-8.037 h -0.067 L 319.178,20.236 290.712,1.26 c -3.375,-2.25 -7.926,-1.41 -10.274,1.897 L 235,67.121 189.563,3.157 C 187.214,-0.15 182.664,-0.989 179.289,1.26 l -28.466,18.977 -17.16,-0.048 h -0.066 c -7.288,0 -17.017,3.448 -22.661,8.037 L 10.126,110.18 c -1.752,1.424 -2.769,3.562 -2.769,5.819 v 192.042 c 0,26.46 21.526,47.986 47.986,47.986 H 93.52 c 4.141,0 7.498,-3.356 7.5,-7.497 0,-4.145 -3.357,-7.503 -7.5,-7.503 H 55.343 c -18.188,0 -32.986,-14.798 -32.986,-32.986 V 119.567 l 98.041,-79.703 c 2.962,-2.409 9.363,-4.675 13.194,-4.675 0.027,0 19.471,0.055 19.471,0.055 1.502,0 2.949,-0.438 4.182,-1.26 l 24.307,-16.204 44.25,62.292 -50.614,71.25 H 131.02 V 87.971 c 0,-4.142 -3.357,-7.5 -7.5,-7.5 -4.143,0 -7.5,3.358 -7.5,7.5 v 52.744 L 97.656,122.351 c -2.93,-2.929 -7.678,-2.929 -10.607,0 -2.929,2.929 -2.929,7.678 0,10.606 l 28.972,28.971 V 462.5 c 0,4.142 3.357,7.5 7.5,7.5 h 222.961 c 4.143,0 7.5,-3.358 7.5,-7.5 V 161.929 l 28.972,-28.971 c 2.929,-2.929 2.929,-7.678 0,-10.606 -2.929,-2.928 -7.677,-2.93 -10.607,0 l -18.364,18.364 V 87.971 c 0,-4.142 -3.357,-7.5 -7.5,-7.5 -4.143,0 -7.5,3.358 -7.5,7.5 v 63.351 H 193.586 L 288.449,17.78 312.756,33.984 c 1.232,0.822 2.68,1.26 4.16,1.26 0.021,0 19.465,-0.055 19.465,-0.055 3.834,-0.009 10.253,2.261 13.222,4.675 l 98.041,79.703 v 188.474 c 0,18.188 -14.798,32.986 -32.986,32.986 h -38.177 c -4.143,0 -7.5,3.358 -7.5,7.5 0.002,4.144 3.359,7.5 7.5,7.5 h 38.177 c 26.46,0 47.986,-21.526 47.986,-47.986 V 115.999 c 0,-2.258 -1.017,-4.396 -2.769,-5.82 z M 153.884,290.055 c -4.145,0.002 -7.5,3.359 -7.5,7.5 V 455 H 131.02 V 275.055 H 338.981 V 455 H 161.384 V 297.555 c 0,-4.142 -3.357,-7.5 -7.5,-7.5 z M 338.981,166.322 v 39.367 H 183.52 c -4.143,0 -7.5,3.358 -7.5,7.5 0,4.142 3.357,7.5 7.5,7.5 h 155.461 v 39.367 H 131.02 v -39.367 h 22.5 c 4.143,0 7.5,-3.358 7.5,-7.5 0,-4.142 -3.357,-7.5 -7.5,-7.5 h -22.5 v -39.367 z"
             style="fill:#1c1918"
             inkscape:connector-curvature="0" /></g><g
           id="g1007" /><g
           id="g1009" /><g
           id="g1011" /><g
           id="g1013" /><g
           id="g1015" /><g
           id="g1017" /><g
           id="g1019" /><g
           id="g1021" /><g
           id="g1023" /><g
           id="g1025" /><g
           id="g1027" /><g
           id="g1029" /><g
           id="g1031" /><g
           id="g1033" /><g
           id="g1035" /></g><g
         id="g2029"
         transform="translate(-558.00084,-129.60469)"><path
           id="path1806"
           d="m 2205.0824,-95.65063 h 127.2728 c 0,-70.29363 -56.9791,-127.27271 -127.2728,-127.27271 z m 0,0"
           inkscape:connector-curvature="0"
           style="fill:#f48bb3;stroke:#000000;stroke-width:10;stroke-miterlimit:10;stroke-dasharray:none;stroke-opacity:1" /><path
           id="path1808"
           d="m 2205.0824,-95.65063 h 127.2728 c 0,-70.29363 -56.9791,-127.27271 -127.2728,-127.27271 z m 0,0"
           inkscape:connector-curvature="0"
           style="fill:#e882a8;stroke:#000000;stroke-width:10;stroke-miterlimit:10;stroke-dasharray:none;stroke-opacity:1" /><path
           id="path1810"
           d="m 2205.0824,-97.92669 v 2.27606 h 127.2728 c 0,-27.14955 -8.7236,-53.58443 -24.8968,-75.38951 z m 0,0"
           inkscape:connector-curvature="0"
           style="fill:#d1779a;stroke:#000000;stroke-width:10;stroke-miterlimit:10;stroke-dasharray:none;stroke-opacity:1" /><g
           transform="matrix(1.9886361,0,0,1.9886361,1791.4462,-222.92334)"
           id="g1844"
           style="fill:#ffb531;stroke:#000000;stroke-width:5.02857208;stroke-miterlimit:10;stroke-dasharray:none;stroke-opacity:1"><path
             style="stroke:#000000;stroke-width:5.02857208;stroke-miterlimit:10;stroke-dasharray:none;stroke-opacity:1"
             id="path1838"
             d="m 100.41797,39.160156 7.15625,-14.3125 32,16 -7.15625,14.3125 z m 0,0"
             inkscape:connector-curvature="0" /><path
             style="stroke:#000000;stroke-width:5.02857208;stroke-miterlimit:10;stroke-dasharray:none;stroke-opacity:1"
             id="path1840"
             d="m 114.34766,13.65625 11.3125,-11.3125 24.0039,24.003906 -11.3164,11.3125 z m 0,0"
             inkscape:connector-curvature="0" /><path
             style="stroke:#000000;stroke-width:5.02857208;stroke-miterlimit:10;stroke-dasharray:none;stroke-opacity:1"
             id="path1842"
             d="m 96,56 h 32 V 72 H 96 Z m 0,0"
             inkscape:connector-curvature="0" /></g><path
           id="path1846"
           d="m 2268.7189,-0.1961 h -222.7272 l -5.3445,-64.07914 c -2.719,-32.64159 8.3506,-64.92586 30.5286,-89.02253 22.178,-24.09668 53.4291,-37.80739 86.1794,-37.80739 32.7503,0 64.0014,13.71071 86.1794,37.80739 22.178,24.09667 33.2476,56.38094 30.5287,89.02253 z m 0,0"
           inkscape:connector-curvature="0"
           style="fill:#3d4d63;stroke:#000000;stroke-width:10;stroke-miterlimit:10;stroke-dasharray:none;stroke-opacity:1" /><g
           transform="matrix(0.30000001,0,0,0.30000001,1337.7191,168.6534)"
           id="g1990"><path
             style="clip-rule:evenodd;fill:#25e899;fill-rule:nonzero;stroke-width:5.00028563;stroke-linecap:round;stroke-miterlimit:10"
             inkscape:connector-curvature="0"
             d="m 2383.8039,-358.08055 h 640.3608 l 54.268,20.71096 -40.8117,146.1293 h -613.5168 l -40.3003,-166.83552 z"
             id="path1374" /><path
             style="clip-rule:evenodd;fill:#eff4ee;fill-rule:nonzero;stroke:#15003e;stroke-width:39.84697342;stroke-linecap:round;stroke-miterlimit:10"
             inkscape:connector-curvature="0"
             d="m 2950.885,-10.611109 h -440.0631 c -47.8961,0 -86.7201,-38.830883 -86.7201,-86.726962 v -93.892749 h 613.5106 v 93.892749 c 0,47.896079 -38.8313,86.726962 -86.7274,86.726962 z"
             id="path1376" /><path
             style="clip-rule:evenodd;fill:#0fce7c;fill-rule:nonzero;stroke-width:5.00028563;stroke-linecap:round;stroke-miterlimit:10"
             inkscape:connector-curvature="0"
             d="m 2618.3793,-358.08055 c -96.3179,-42.29472 -163.5783,-138.52517 -163.5783,-250.46672 0,-66.05583 23.4287,-126.65172 62.4323,-173.91781 50.1511,-60.76664 365.6329,-63.85003 415.7259,-7.30529 42.7356,48.24331 68.678,111.70437 68.678,181.2231 0,111.93206 -67.2545,208.15304 -163.5514,250.45247"
             id="path1378" /><path
             style="clip-rule:evenodd;fill:none;fill-rule:evenodd;stroke:#15003e;stroke-width:39.84697342;stroke-linecap:round;stroke-miterlimit:10"
             inkscape:connector-curvature="0"
             d="m 2601.1016,-358.09287 c -95.3077,-46.36861 -160.9886,-144.14645 -160.9886,-257.25875 a 284.57382,284.57382 0 0 1 44.9541,-153.9687"
             id="path1380" /><path
             style="clip-rule:evenodd;fill:none;fill-rule:evenodd;stroke:#15003e;stroke-width:39.84697342;stroke-linecap:round;stroke-miterlimit:10"
             inkscape:connector-curvature="0"
             d="m 2956.699,-784.35307 a 284.64023,284.64023 0 0 1 55.2675,169.00431 c 0,111.93678 -64.326,208.85126 -158.0263,255.79765"
             id="path1382" /><path
             style="clip-rule:evenodd;fill:none;fill-rule:evenodd;stroke:#15003e;stroke-width:39.84697342;stroke-linecap:round;stroke-miterlimit:10"
             inkscape:connector-curvature="0"
             d="m 2323.6588,-586.65419 c 0,-224.88972 182.3067,-407.19626 407.1966,-407.19626 224.8893,0 407.203,182.30654 407.203,407.19626 l -100.4414,395.42147 h -613.5172 z"
             id="path1384" /><path
             style="clip-rule:evenodd;fill:none;fill-rule:evenodd;stroke:#15003e;stroke-width:39.84697342;stroke-linecap:round;stroke-miterlimit:10"
             inkscape:connector-curvature="0"
             d="M 2323.6605,-592.54966 V -980.07477"
             id="path1386" /><path
             style="clip-rule:evenodd;fill:none;fill-rule:evenodd;stroke:#15003e;stroke-width:39.84697342;stroke-linecap:round;stroke-miterlimit:10"
             inkscape:connector-curvature="0"
             d="M 3138.0627,-592.55341 V -1089.4983"
             id="path1388" /><path
             style="clip-rule:evenodd;fill:none;fill-rule:evenodd;stroke:#15003e;stroke-width:39.84697342;stroke-linecap:round;stroke-miterlimit:10"
             inkscape:connector-curvature="0"
             d="m 2355.3787,-418.48003 h -42.0323 c -34.0091,0 -61.8356,-27.8265 -61.8356,-61.82925 v -157.03693 c 0,-34.00275 27.8265,-61.82921 61.8356,-61.82921 h 17.8252"
             id="path1390" /><path
             style="clip-rule:evenodd;fill:none;fill-rule:evenodd;stroke:#15003e;stroke-width:39.84697342;stroke-linecap:round;stroke-miterlimit:10"
             inkscape:connector-curvature="0"
             d="m 3107.7959,-418.48003 h 42.0317 c 34.0097,0 61.8362,-27.8265 61.8362,-61.82925 v -157.03693 c 0,-34.00275 -27.8265,-61.82921 -61.8362,-61.82921 h -17.8249"
             id="path1392" /><path
             style="clip-rule:evenodd;fill:none;fill-rule:evenodd;stroke:#15003e;stroke-width:39.84697342;stroke-linecap:round;stroke-miterlimit:10"
             inkscape:connector-curvature="0"
             d="m 2328.0393,-654.76974 c 104.7445,-107.28135 249.442,-173.63321 409.268,-173.63321 151.1328,0 288.7312,59.3255 391.8158,156.47907"
             id="path1394" /><path
             style="clip-rule:evenodd;fill:none;fill-rule:evenodd;stroke:#15003e;stroke-width:39.84697342;stroke-linecap:round;stroke-miterlimit:10"
             inkscape:connector-curvature="0"
             d="m 2383.8039,-358.10426 h 694.6258"
             id="path1396" /><path
             style="clip-rule:evenodd;fill:#ffffff;fill-rule:nonzero;stroke-width:5.00028563;stroke-linecap:round;stroke-miterlimit:10"
             inkscape:connector-curvature="0"
             d="m 2873.7688,-699.17542 c 0,39.39634 -31.9407,71.32609 -71.3292,71.32609 -39.3937,0 -71.3238,-31.92975 -71.3238,-71.32609 0,-39.39632 31.9301,-71.32606 71.3238,-71.32606 39.3885,0 71.3292,31.92974 71.3292,71.32606 m 50.9683,106.62862 c 0,15.92931 -12.9134,28.84163 -28.8416,28.84163 -15.9282,0 -28.8363,-12.91232 -28.8363,-28.84163 0,-15.92456 12.9134,-28.84161 28.831,-28.84161 15.9331,0 28.8469,12.91705 28.8469,28.84161"
             id="path1398" /><path
             style="clip-rule:evenodd;fill:none;fill-rule:evenodd;stroke:#15003e;stroke-width:39.84697342;stroke-linecap:round;stroke-miterlimit:10"
             inkscape:connector-curvature="0"
             d="m 2977.1601,-248.09816 c -35.1317,0 -35.1317,-53.12929 -70.2702,-53.12929 -35.1318,0 -35.1318,53.12929 -70.2635,53.12929 -35.1451,0 -35.1451,-53.12929 -70.2898,-53.12929 -35.1584,0 -35.1584,53.12929 -70.3101,53.12929 -35.1451,0 -35.1451,-53.12929 -70.2901,-53.12929 -35.172,0 -35.172,53.12929 -70.3367,53.12929 -35.1716,0 -35.1716,-53.12929 -70.3432,-53.12929"
             id="path1400" /><path
             style="opacity:1;fill:#eff4ee;fill-opacity:1;fill-rule:evenodd;stroke:none;stroke-width:4.79394436;stroke-linejoin:round;stroke-miterlimit:9.52000046;stroke-dasharray:none;stroke-opacity:1"
             d="m 2288.5583,-449.44728 c -5.4679,-4.43956 -11.5353,-13.72409 -13.483,-20.63229 -1.9477,-6.9082 -3.5413,-47.81356 -3.5413,-90.9008 0,-84.23977 2.1459,-96.803 18.4963,-108.28624 l 8.4696,-5.94836 2.1821,47.72509 c 1.8529,40.52677 4.7,57.60018 18.8761,113.19718 9.1818,36.00965 16.6941,67.1553 16.6941,69.21257 0,2.11763 -8.1896,3.73274 -18.8761,3.72263 -14.1957,-0.0133 -21.3413,-2.01937 -28.8178,-8.08978 z"
             id="path1961"
             inkscape:connector-curvature="0" /><path
             style="opacity:1;fill:#eff4ee;fill-opacity:1;fill-rule:evenodd;stroke:none;stroke-width:4.79394436;stroke-linejoin:round;stroke-miterlimit:9.52000046;stroke-dasharray:none;stroke-opacity:1"
             d="m 2372.4086,-482.3887 c -24.2793,-94.9264 -26.0417,-104.35651 -24.8524,-132.97901 l 1.2801,-30.80716 19.4619,-17.13137 c 23.4731,-20.66227 62.8057,-50.93268 64.334,-49.5115 0.6052,0.56279 -1.7639,11.31446 -5.2646,23.8926 -4.8004,17.24769 -6.3201,35.6848 -6.1824,75.0035 0.1609,45.9183 1.3297,55.90972 9.8031,83.80102 15.7654,51.89368 38.6563,91.18212 75.2943,129.22988 l 19.9078,20.67389 h -63.8247 -63.8246 z"
             id="path1963"
             inkscape:connector-curvature="0" /><path
             style="opacity:1;fill:#eff4ee;fill-opacity:1;fill-rule:evenodd;stroke:none;stroke-width:4.79394436;stroke-linejoin:round;stroke-miterlimit:9.52000046;stroke-dasharray:none;stroke-opacity:1"
             d="m 2950.1315,-406.68096 c 81.1413,-85.4207 102.7669,-195.03657 63.1359,-320.02314 -4.9834,-15.71624 89.774,55.03727 96.1426,71.78782 1.8995,4.99618 4.3245,22.3312 5.3889,38.52227 1.8397,27.98499 0.6235,34.49712 -24.6348,131.90887 l -26.5701,102.47056 -69.3759,0.97836 -69.376,0.97837 z"
             id="path1965"
             inkscape:connector-curvature="0" /><path
             style="opacity:1;fill:#eff4ee;fill-opacity:1;fill-rule:evenodd;stroke:none;stroke-width:4.79394436;stroke-linejoin:round;stroke-miterlimit:9.52000046;stroke-dasharray:none;stroke-opacity:1"
             d="m 2372.2068,-726.89739 c 0,-6.9088 21.4156,-47.80765 38.5849,-73.68832 104.2987,-157.21799 311.6374,-215.50479 481.3997,-135.33047 76.9344,36.33416 131.8461,87.25674 175.734,162.96761 9.48,16.35404 16.3149,30.65612 15.1887,31.7824 -1.1263,1.12628 -11.794,-4.57073 -23.706,-12.66002 -28.3876,-19.27762 -92.3852,-50.95389 -126.3098,-62.51828 -69.5755,-23.71725 -123.0721,-32.47414 -197.7502,-32.36987 -118.2462,0.1651 -225.6661,32.57572 -323.5913,97.63368 -40.555,26.94333 -39.55,26.32878 -39.55,24.18327 z"
             id="path1967"
             inkscape:connector-curvature="0" /><path
             style="opacity:1;fill:#eff4ee;fill-opacity:1;fill-rule:evenodd;stroke:none;stroke-width:4.79394436;stroke-linejoin:round;stroke-miterlimit:9.52000046;stroke-dasharray:none;stroke-opacity:1"
             d="m 3125.0585,-447.63169 c 1.0371,-3.46063 9.2359,-35.75449 18.2196,-71.76414 15.0328,-60.25625 16.334,-69.06403 16.334,-110.56034 0,-29.80892 1.3122,-45.08826 3.8721,-45.08826 2.1296,0 8.6014,4.72941 14.3818,10.5098 l 10.5098,10.50981 -0.08,94.65735 c -0.071,84.2551 -0.7627,95.50012 -6.2921,102.32632 -9.3711,11.5688 -19.9979,15.70151 -40.3749,15.70151 -15.8984,0 -18.1946,-0.87192 -16.5704,-6.29205 z"
             id="path1969"
             inkscape:connector-curvature="0" /></g></g></g></g></svg>