<svg viewBox="0 0 110.979 128.417" xmlns="http://www.w3.org/2000/svg" xmlns:xlink="http://www.w3.org/1999/xlink"><radialGradient id="a" cx="56.242001" cy="64.712502" gradientTransform="matrix(1 0 0 1.1547935 0 -10.017073)" gradientUnits="userSpaceOnUse" r="46"><stop offset="0" stop-color="#fff200"/><stop offset="1" stop-color="#f7941e"/></radialGradient><path d="m.084 96.209v-64l55.424-32 55.426 32v64l-55.426 32.001z" fill="#4c2b2b" transform="translate(-.006738 -.192993)"/><path d="m91.815 97.296-.245.12-.124.058-.117.061-35.138 20.298-45.949-26.558v-53.125l46-26.558 46 26.558v53.125z" fill="url(#a)" transform="translate(-.242 .584007)"/><path d="m55.984 11.372-46.07 26.56v53.12l1.67.96.63.37h.011l18.81 10.84 1.04.6 2.18 1.26.49.28.44.26.36.21 3.13 1.8 3.311 1.91 1.289.74v.01l12.711 7.32 46.07-26.56v-53.12zm44.209 78.609-44.209 25.49-12.51-7.21-31.701-18.28v-50.97l44.211-25.49 44.209 25.49z" opacity=".13" transform="translate(.086 .805007)"/><g transform="matrix(1.0211075 0 0 1.0211075 -103.00667 19.444687)"><path d="m179.46775 56.921906c1.0873-1.26128 1.34347-3.042008.6538-4.55863l-6.02769-13.258245c-.37384-.824442-1.00051-1.508278-1.78991-1.95346l-3.89315-2.196287h-25.58565l-3.89315 2.196287c-.7894.445182-1.41608 1.129018-1.78991 1.95346l-6.02727 13.258245c-.6901 1.516622-.43392 3.29735.65338 4.55863l11.04526 12.805552.0643.0096-2.21298 14.167378h8.54482c3.53935 0 6.40862-2.868858 6.40862-6.408618 0 3.53976 2.86886 6.408618 6.40862 6.408618h8.54482l-2.21339-14.167384.0643-.0096zm-41.9051-2.508791 3.2719-7.198012c.49233 2.624362 1.9276 10.282576 2.63396 14.045553zm30.2052 6.847541c.70595-3.762977 2.14122-11.421191 2.63396-14.045553l3.27148 7.198012zm0 0" fill="#58595b" stroke-width=".10681"/><path d="m164.16301 42.034804 4.24779-7.07952-6.384-3.601509h-12.81724l-6.38441 3.601509 4.24821 7.07952-1.44736 2.89556c-.41139.822355-.24992 1.815775.39928 2.465399l9.5929 9.592482 9.59248-9.592482c.64921-.649624.81068-1.643044.39929-2.465399zm0 0" fill="#2a3338" stroke-width=".10681"/><path d="m149.20956 31.353775c.30834 1.233742 6.12991 24.521305 6.40862 25.63447.27954-1.118588 6.10237-24.410741 6.40862-25.63447zm0 0" fill="#fff" stroke-width=".10681"/><path d="m155.61818 60.192553c-.58996 0-1.0681.478561-1.0681 1.068103 0 .589543.47814 1.068103 1.0681 1.068103.58954 0 1.0681-.47856 1.0681-1.068103 0-.589542-.47856-1.068103-1.0681-1.068103zm0 0" stroke-width=".10681"/><path d="m181.09369 51.921431-6.02686-13.25741c-.47021-1.037228-1.24417-1.881697-2.23842-2.442868l-10.27716-5.797796c-.1623-.09137-.35047-.137685-.52445-.137685h-12.81724c-.005 0-.009.000834-.0134.000834-.17982.0025-.35631.04923-.51152.136851l-10.27757 5.797796c-.99383.560754-1.76779 1.40564-2.23759 2.441617l-6.02727 13.258244c-.85907 1.889207-.53864 4.125965.81735 5.698496l10.77824 12.496387-2.12869 13.623736c-.048.308331.0409.622504.24366.859489.20319.236985.49984.373418.81192.373418h8.54482c2.71657 0 5.09936-1.456959 6.40862-3.630298 1.30926 2.173339 3.69163 3.630298 6.40862 3.630298h8.54482c.31209 0 .60832-.136433.81109-.373418.20319-.237403.29206-.551158.24408-.859489l-2.12864-13.624154 10.77866-12.495969c1.35557-1.572531 1.676-3.809289.81693-5.698079zm-17.88614-9.408901 1.44737 2.89556c.20569.411804.12558.907053-.19944 1.232073l-6.8659 6.865899 5.13316-20.533444 4.20774 2.373609-3.68371 6.138671c-.18775.313338-.20277.700942-.0392 1.027632zm-7.58937 10.071876-3.97284-15.890117h7.94527zm-7.62901-11.099091-3.6837-6.138671 4.20774-2.373608 5.13315 20.533026-6.8659-6.865899c-.32501-.32502-.40512-.820269-.19901-1.232073l1.44694-2.89556c.16356-.32669.14854-.714294-.0392-1.027215zm12.13549-6.927231h-9.01337l-.53405-2.136206h10.08147zm18.53409 21.666217-9.59332 11.122456-.61458-3.933206c.0526-.280377.16356-.872423.31376-1.6735l5.71727-6.629331c.27245-.315424.33629-.760189.16355-1.139449l-3.27148-7.198012c-.19276-.42432-.63836-.67424-1.10065-.618749-.4627.05633-.83528.405546-.92123.863661-.373 1.988925-2.71032 14.45235-3.0345 16.181342-.0225.119327-.0246.241992-.005.362571l3.01114 19.274251h-7.29648c-2.94479 0-5.34052-2.395722-5.34052-5.340515v-12.229778c0-.58996-.47856-1.068103-1.0681-1.068103-.58996 0-1.0681.478143-1.0681 1.068103v12.229778c0 2.944793-2.39614 5.340515-5.34052 5.340515h-7.29689l3.01155-19.274251c.0188-.120579.0167-.242826-.005-.362571-.32043-1.708965-2.67359-14.255418-3.03449-16.181342-.0859-.458115-.45895-.807335-.92124-.863661-.46229-.05591-.90831.194429-1.10107.618749l-3.27148 7.198012c-.17231.37926-.10848.824025.16355 1.139449l5.71769 6.629331c.14979.801077.26077 1.393123.31334 1.6735l-.61458 3.933206-9.59331-11.122039c-.81318-.94377-1.00594-2.285574-.49024-3.419182l6.02769-13.259495c.28204-.621252.746-1.127767 1.34222-1.46447l2.98735-1.685182 3.41125 5.685144-1.18493 2.371106c-.61791 1.23541-.37675 2.721576.59956 3.698306l9.59248 9.592481c.19401.194012.46772.312087.75268.312504.00086 0 .002.000427.002.000427h.00043c.00085 0 .002-.000427.002-.000427.28622-.000427.56033-.120162.75226-.312504l9.5929-9.592481c.97631-.97673 1.21705-2.462896.59955-3.69789l-1.18534-2.371522 3.41125-5.685144 2.98735 1.685182c.59664.336703 1.0606.843218 1.34306 1.465721l6.02727 13.258244c.5157 1.133191.32335 2.475412-.49024 3.418765zm-9.11059 1.336379 1.28006-6.825845 1.59005 3.498037zm-27.86038 0-2.86969-3.327808 1.58964-3.498037zm0 0" stroke-width=".10681"/><path d="m164.16301 68.737376h-4.27242c-.58996 0-1.0681.478143-1.0681 1.068103 0 .589961.47814 1.068103 1.0681 1.068103h4.27242c.58954 0 1.0681-.478142 1.0681-1.068103 0-.58996-.47856-1.068103-1.0681-1.068103zm0 0" stroke-width=".10681"/><path d="m151.34577 68.737376h-4.27241c-.58996 0-1.0681.478143-1.0681 1.068103 0 .589961.47814 1.068103 1.0681 1.068103h4.27241c.58954 0 1.0681-.478142 1.0681-1.068103 0-.58996-.47856-1.068103-1.0681-1.068103zm0 0" stroke-width=".10681"/><g stroke="#000"><g fill="#ffd6bb" stroke-width="7.78234" transform="matrix(.06669508 0 0 .06669508 138.73318 1.391256)"><path d="m393.726 288.671h-33.237v91.335h33.237c8.156 0 14.829-6.596 14.829-14.658v-62.018c.001-8.063-6.673-14.659-14.829-14.659z"/><path d="m151.51 288.671h-33.235c-8.156 0-14.829 6.596-14.829 14.659v62.018c0 8.061 6.674 14.658 14.829 14.658h33.235z"/></g><path d="m163.5018 18.112713v-16.2265126c0-.2721826-.22663-.4949442-.50342-.4949442h-14.38246c-.27691 0-.50341.2226949-.50341.4949442v16.2264456h15.38936v.000067z" fill="#58595b" stroke-width=".519044"/><path d="m148.11264 15.436506h15.389556v2.676807h-15.389556z" fill="#414042" stroke-width=".519044"/><path d="m150.85468 1.3912562h-2.23876c-.27691 0-.50341.2226949-.50341.4949442v16.2264456h2.23869v-16.2264456c.00006-.2722493.22649-.4949442.50348-.4949442z" fill="#575f64" opacity=".1" stroke-width=".519044"/><path d="m146.80942 25.75817v-4.136295c0-.537696.44512-.977683.98896-.977683h-1.17684c-.54396 0-.98902.43992-.98902.977683v4.136295c0 .537629.44512.977617.98902.977617h1.17684c-.54397-.000067-.98896-.439988-.98896-.977617z" opacity=".1" stroke-width=".519044"/><path d="m148.11251 19.300619v12.268694c0 .544432.45313.989955 1.00703.989955h13.37536c.55377 0 1.0069-.445523 1.0069-.989955v-12.268694z" fill="#ffd6bb" stroke-width=".519044"/><path d="m151.12826 31.569379v-12.26876h-3.01575v12.268694c0 .544432.45313.989955 1.00703.989955h3.01575c-.5539.000066-1.00703-.445457-1.00703-.989889z" opacity=".1" stroke-width=".519044"/><path d="m161.83682 19.300619v5.514616c-.7996.07016-1.42687.733379-1.42687 1.542457v4.557409h-.97922c-.5387 0-.97942.435719-.97942.968345v.675755h-5.28865v-.675755c0-.532626-.44065-.968345-.97942-.968345h-.97908v-4.557409c0-.809011-.62727-1.472294-1.42681-1.542457v-5.514616h-1.66504v12.290303c0 .532493.44059.968346.97935.968346h1.03804v2.01139c0 .53256.44059.968412.97922.968412h9.3962c.5385 0 .97929-.435852.97929-.968412v-2.01139h1.0379c.53863 0 .97936-.435853.97936-.968346v-12.290303z" fill="#414042" stroke-width=".519044"/><path d="m148.11264 15.436506h2.23842v2.676807h-2.23842z" opacity=".1" stroke-width=".519044"/><g fill="#5b330a" stroke-width="7.78234" transform="matrix(.06669508 0 0 .06669508 138.73318 1.391256)"><path d="m255.999 378.076c-4.329 0-7.837-3.509-7.837-7.837v-44.767c0-4.328 3.508-7.837 7.837-7.837s7.837 3.509 7.837 7.837v44.767c0 4.329-3.508 7.837-7.837 7.837z"/><path d="m211.598 348.566c-4.329 0-7.837-3.509-7.837-7.837v-15.257c0-4.328 3.508-7.837 7.837-7.837s7.837 3.509 7.837 7.837v15.257c-.001 4.329-3.509 7.837-7.837 7.837z"/><path d="m300.403 348.566c-4.329 0-7.837-3.509-7.837-7.837v-15.257c0-4.328 3.508-7.837 7.837-7.837s7.837 3.509 7.837 7.837v15.257c0 4.329-3.508 7.837-7.837 7.837z"/><path d="m281.901 420.218h-51.804c-4.329 0-7.837-3.509-7.837-7.837s3.508-7.837 7.837-7.837h51.804c4.329 0 7.837 3.509 7.837 7.837s-3.508 7.837-7.837 7.837z"/><path d="m229.018 310.186h-35.616c-4.329 0-7.837-3.509-7.837-7.837s3.508-7.837 7.837-7.837h35.616c4.329 0 7.837 3.509 7.837 7.837s-3.509 7.837-7.837 7.837z"/><path d="m318.597 310.186h-35.616c-4.329 0-7.837-3.509-7.837-7.837s3.508-7.837 7.837-7.837h35.616c4.329 0 7.837 3.509 7.837 7.837s-3.508 7.837-7.837 7.837z"/></g><path d="m168.78318 19.3347c0 .27225-.22663.495011-.50361.495011h-24.94503c-.27698 0-.50355-.222828-.50355-.495011v-1.059451c0-.272183.22663-.494944.50355-.494944h24.94503c.27698 0 .50361.222695.50361.494944z" fill="#58595b" stroke-width=".519044"/><path d="m145.08182 19.3347v-1.059451c0-.272183.22663-.494944.50361-.494944h-2.25089c-.27698 0-.50355.222695-.50355.494944v1.059451c0 .27225.22663.495011.50355.495011h2.25083c-.27692 0-.50355-.222761-.50355-.495011z" opacity=".1" stroke-width=".519044"/></g></g></svg>