<?xml version="1.0" encoding="utf-8"?>
<!-- Generator: Adobe Illustrator 14.0.0, SVG Export Plug-In . SVG Version: 6.00 Build 43363)  -->
<!DOCTYPE svg PUBLIC "-//W3C//DTD SVG 1.1//EN" "http://www.w3.org/Graphics/SVG/1.1/DTD/svg11.dtd">
<svg version="1.1" id="Layer_1" xmlns="http://www.w3.org/2000/svg" xmlns:xlink="http://www.w3.org/1999/xlink" x="0px" y="0px"
	 width="110.913px" height="128.047px" viewBox="0 0 110.913 128.047" enable-background="new 0 0 110.913 128.047"
	 xml:space="preserve">
<g>
	
		<linearGradient id="SVGID_1_" gradientUnits="userSpaceOnUse" x1="67.4688" y1="64.0835" x2="19.9661" y2="64.0835" gradientTransform="matrix(0 1 -1 0 119.5029 8.5625)">
		<stop  offset="0" style="stop-color:#65AAE1"/>
		<stop  offset="1" style="stop-color:#1C75BC"/>
	</linearGradient>
	<polygon fill="url(#SVGID_1_)" points="101.52,90.631 101.52,37.43 55.42,10.831 9.319,37.43 9.319,90.631 55.42,117.23 	"/>
</g>
<linearGradient id="SVGID_2_" gradientUnits="userSpaceOnUse" x1="55.4194" y1="67.8652" x2="55.4194" y2="40.2864">
	<stop  offset="0" style="stop-color:#2B3990"/>
	<stop  offset="1" style="stop-color:#1C75BC"/>
</linearGradient>
<polygon fill="url(#SVGID_2_)" points="9.319,42.865 9.319,90.631 55.42,117.23 101.52,90.631 101.52,42.865 "/>
<g>
	<path fill="#8FCAF7" d="M28.54,75.794l-8.833,5.166c0,0,11.333,9.334,15.833,10.834s11-0.334,17.667,0.666
		c6.667,1,17.167,4.334,17.167,4.334s6.5-3.832,9.166-5.666c2.668-1.834,6.834-7.334,9-14.668c2.168-7.332,8.334-9.832,8.334-9.832
		S84.539,65.46,80.539,65.46s-38.833-2.502-42.5-0.5C34.373,66.96,28.54,75.794,28.54,75.794z"/>
	<linearGradient id="SVGID_3_" gradientUnits="userSpaceOnUse" x1="18.6665" y1="75.04" x2="47.6579" y2="94.9311">
		<stop  offset="0" style="stop-color:#FFFFFF"/>
		<stop  offset="1" style="stop-color:#1C75BC"/>
	</linearGradient>
	<path fill="url(#SVGID_3_)" d="M19.707,80.96l0.021,4.141c7.742,5.418,8.646,10.322,8.646,10.322s9.807,0.26,13.678,0.646
		s14.838,2.451,17.805,2.838c2.969,0.387,9.162,2.451,9.162,2.451l1.354-4.564c0,0-18.084-5.436-21.096-4.855
		c-7.354,1.42-13.419-3.096-15.612-4.258S19.707,80.96,19.707,80.96z"/>
	<linearGradient id="SVGID_4_" gradientUnits="userSpaceOnUse" x1="27.6523" y1="74.1289" x2="39.1836" y2="82.0405">
		<stop  offset="0" style="stop-color:#FFFFFF"/>
		<stop  offset="1" style="stop-color:#1C75BC"/>
	</linearGradient>
	<path fill="url(#SVGID_4_)" d="M28.375,76.196l2.58,0.646c0,0,3.226,4.516,3.484,5.031c0.258,0.516,13.161,2.84,13.161,2.84
		s-13.419-6.193-13.548-6.84c-0.13-0.645-1.162-2.709-1.162-2.709l-2.709-1.549l-1.642,2.178"/>
	<linearGradient id="SVGID_5_" gradientUnits="userSpaceOnUse" x1="58.8301" y1="100.3701" x2="91.2178" y2="72.5">
		<stop  offset="0" style="stop-color:#FFFFFF"/>
		<stop  offset="1" style="stop-color:#1C75BC"/>
	</linearGradient>
	<path fill="url(#SVGID_5_)" d="M69.02,101.358l1.354-4.564c0,0,9.484-4.984,12.582-10.146c2.301-3.834,2.824-10.406,4.121-13.16
		c0.912-1.936-9.928-2.838-9.928-2.838c0.465-0.285,11.143,0.586,11.639,0.299c3.766-2.188,8.086-4.32,8.086-4.32l-0.111,3.375
		c0,0-3.613,8.129-5.549,12s-5.033,7.742-10.322,13.291C77.773,98.562,69.02,101.358,69.02,101.358z"/>
	<linearGradient id="SVGID_6_" gradientUnits="userSpaceOnUse" x1="14.1304" y1="56.7451" x2="38.5835" y2="56.7451">
		<stop  offset="0" style="stop-color:#FFFFFF"/>
		<stop  offset="1" style="stop-color:#27AAE1"/>
	</linearGradient>
	<path fill="url(#SVGID_6_)" d="M14.13,56.97c0,0,6.809-0.105,8.646-0.258c1.837-0.153,6.392-0.517,6.392-0.517
		s2.909,0.459,4.822,0.689c1.914,0.229,4.594,0.153,4.594,0.153s-2.527,0.459-4.977,0.153s-4.21-0.536-4.21-0.536
		s-4.708,0.44-6.698,0.517S14.13,56.97,14.13,56.97z"/>
	<linearGradient id="SVGID_7_" gradientUnits="userSpaceOnUse" x1="15.0825" y1="52.4014" x2="43.3423" y2="52.4014">
		<stop  offset="0" style="stop-color:#FFFFFF"/>
		<stop  offset="1" style="stop-color:#27AAE1"/>
	</linearGradient>
	<path fill="url(#SVGID_7_)" d="M15.083,52.677c0,0,6.179-0.086,8.609-0.172s7.19-0.474,7.19-0.474s3.851,0.258,6.383,0.388
		c2.532,0.129,6.077,0.086,6.077,0.086S40,52.763,36.758,52.591c-3.241-0.172-5.571-0.301-5.571-0.301s-4.963,0.431-7.596,0.474
		C20.957,52.806,15.083,52.677,15.083,52.677z"/>
	<linearGradient id="SVGID_8_" gradientUnits="userSpaceOnUse" x1="29.3804" y1="47.6133" x2="45.2778" y2="47.6133">
		<stop  offset="0" style="stop-color:#FFFFFF"/>
		<stop  offset="1" style="stop-color:#27AAE1"/>
	</linearGradient>
	<path fill="url(#SVGID_8_)" d="M29.38,47.769c0,0,3.477-0.049,4.844-0.097s4.045-0.266,4.045-0.266s2.166,0.145,3.59,0.218
		c1.425,0.073,3.419,0.048,3.419,0.048s-1.881,0.146-3.704,0.048c-1.823-0.097-3.134-0.169-3.134-0.169s-2.791,0.243-4.272,0.267
		C32.685,47.841,29.38,47.769,29.38,47.769z"/>
	<linearGradient id="SVGID_9_" gradientUnits="userSpaceOnUse" x1="12.3491" y1="50.0654" x2="28.8901" y2="50.0654">
		<stop  offset="0" style="stop-color:#FFFFFF"/>
		<stop  offset="1" style="stop-color:#27AAE1"/>
	</linearGradient>
	<path fill="url(#SVGID_9_)" d="M12.349,50.22c0,0,3.616-0.049,5.039-0.097s4.209-0.266,4.209-0.266s2.254,0.145,3.736,0.218
		s3.557,0.048,3.557,0.048s-1.957,0.146-3.854,0.048c-1.898-0.097-3.262-0.169-3.262-0.169s-2.904,0.243-4.445,0.267
		C15.787,50.292,12.349,50.22,12.349,50.22z"/>
	<linearGradient id="SVGID_10_" gradientUnits="userSpaceOnUse" x1="84.6074" y1="47.8721" x2="94.0332" y2="47.8721">
		<stop  offset="0" style="stop-color:#FFFFFF"/>
		<stop  offset="1" style="stop-color:#27AAE1"/>
	</linearGradient>
	<path fill="url(#SVGID_10_)" d="M84.607,48.027c0,0,2.061-0.049,2.871-0.097s2.398-0.266,2.398-0.266s1.285,0.145,2.129,0.218
		c0.846,0.073,2.027,0.048,2.027,0.048s-1.115,0.146-2.195,0.048c-1.082-0.097-1.859-0.169-1.859-0.169s-1.654,0.243-2.533,0.267
		S84.607,48.027,84.607,48.027z"/>
	<linearGradient id="SVGID_11_" gradientUnits="userSpaceOnUse" x1="73.1465" y1="61.1758" x2="93.0195" y2="61.1758">
		<stop  offset="0" style="stop-color:#FFFFFF"/>
		<stop  offset="1" style="stop-color:#27AAE1"/>
	</linearGradient>
	<path fill="url(#SVGID_11_)" d="M73.146,61.452c0,0,4.346-0.086,6.055-0.172s5.057-0.475,5.057-0.475s2.707,0.259,4.488,0.389
		c1.781,0.129,4.273,0.086,4.273,0.086s-2.35,0.258-4.629,0.086s-3.918-0.302-3.918-0.302s-3.49,0.431-5.342,0.474
		C77.277,61.581,73.146,61.452,73.146,61.452z"/>
	<linearGradient id="SVGID_12_" gradientUnits="userSpaceOnUse" x1="77.791" y1="56.3374" x2="91.4551" y2="56.3374">
		<stop  offset="0" style="stop-color:#FFFFFF"/>
		<stop  offset="1" style="stop-color:#27AAE1"/>
	</linearGradient>
	<path fill="url(#SVGID_12_)" d="M77.791,56.527c0,0,2.988-0.06,4.164-0.119c1.174-0.059,3.477-0.326,3.477-0.326
		s1.861,0.178,3.086,0.267s2.938,0.059,2.938,0.059s-1.615,0.178-3.184,0.059c-1.566-0.118-2.693-0.207-2.693-0.207
		s-2.4,0.296-3.672,0.326C80.631,56.616,77.791,56.527,77.791,56.527z"/>
	<linearGradient id="SVGID_13_" gradientUnits="userSpaceOnUse" x1="65.4063" y1="52.7241" x2="96.1016" y2="52.7241">
		<stop  offset="0" style="stop-color:#FFFFFF"/>
		<stop  offset="1" style="stop-color:#27AAE1"/>
	</linearGradient>
	<path fill="url(#SVGID_13_)" d="M65.406,52.914c0,0,6.711-0.06,9.352-0.119s7.811-0.326,7.811-0.326s4.182,0.178,6.932,0.267
		c2.752,0.089,6.602,0.059,6.602,0.059s-3.631,0.178-7.152,0.059c-3.521-0.118-6.051-0.207-6.051-0.207s-5.391,0.296-8.25,0.326
		C71.785,53.002,65.406,52.914,65.406,52.914z"/>
	<linearGradient id="SVGID_14_" gradientUnits="userSpaceOnUse" x1="11.6646" y1="64.0313" x2="36.1372" y2="64.0313">
		<stop  offset="0" style="stop-color:#FFFFFF"/>
		<stop  offset="1" style="stop-color:#27AAE1"/>
	</linearGradient>
	<path fill="url(#SVGID_14_)" d="M11.665,64.593c0,0,5.351-0.176,7.456-0.352c2.105-0.176,6.227-0.964,6.227-0.964
		s3.334,0.526,5.527,0.789c2.191,0.264,5.262,0.176,5.262,0.176s-2.895,0.528-5.702,0.176c-2.807-0.352-4.824-0.615-4.824-0.615
		s-4.298,0.878-6.579,0.966S11.665,64.593,11.665,64.593z"/>
	
		<linearGradient id="SVGID_15_" gradientUnits="userSpaceOnUse" x1="29.6753" y1="104.0586" x2="68.5645" y2="104.0586" gradientTransform="matrix(0.9991 0.0434 -0.0434 0.9991 5.2059 -1.8753)">
		<stop  offset="0" style="stop-color:#FFFFFF"/>
		<stop  offset="1" style="stop-color:#27AAE1"/>
	</linearGradient>
	<path fill="url(#SVGID_15_)" d="M69.146,106.132c0,0-9.475-1.035-12.264-1.396c-4.676-0.607-7.676-1.607-7.676-1.607
		s-2.667,1-7.326,1.156c-2.693,0.09-11.574-0.164-11.574-0.164s8.523,0.729,11.438,0.754c2.912,0.027,7.486-0.32,7.486-0.32
		s3.852,0.641,6.893,0.693L69.146,106.132z"/>
	<linearGradient id="SVGID_16_" gradientUnits="userSpaceOnUse" x1="23.6001" y1="98.7783" x2="74.8262" y2="98.7783">
		<stop  offset="0" style="stop-color:#FFFFFF"/>
		<stop  offset="1" style="stop-color:#27AAE1"/>
	</linearGradient>
	<path fill="url(#SVGID_16_)" d="M23.6,95.423c0,0,2.518-0.279,6.403-0.08c9.08,0.467,11.273-0.436,11.273-0.436
		s2.201,1.242,10.969,2.451c14.967,2.064,17.524,3.965,22.581,5.291c0,0-15.594-3.73-20.774-4.129
		c-5.18-0.398-13.549-2.064-13.549-2.064s-5.475-0.43-9.68-0.646C25.792,95.552,23.6,95.423,23.6,95.423z"/>
	<linearGradient id="SVGID_17_" gradientUnits="userSpaceOnUse" x1="85.7441" y1="69.7129" x2="111.011" y2="66.4169">
		<stop  offset="0" style="stop-color:#FFFFFF"/>
		<stop  offset="1" style="stop-color:#1C75BC"/>
	</linearGradient>
	<path fill="url(#SVGID_17_)" d="M96.873,66.628c0,0-7.545,4.359-8.086,4.32c-0.541-0.041-10.348-0.686-10.348-0.686
		s9.033,0,10.451-0.387C90.311,69.489,96.873,66.628,96.873,66.628z"/>
	<linearGradient id="SVGID_18_" gradientUnits="userSpaceOnUse" x1="79.3223" y1="84.209" x2="98.7174" y2="81.6789">
		<stop  offset="0" style="stop-color:#FFFFFF"/>
		<stop  offset="1" style="stop-color:#1C75BC"/>
	</linearGradient>
	<path fill="url(#SVGID_18_)" d="M74.955,94.134c0,0,7.484-4.646,9.033-10.453c1.547-5.805,2.838-9.805,2.838-9.805
		s-2.709,3.482-3.484,8C82.928,84.294,80.504,88.714,74.955,94.134z"/>
	<linearGradient id="SVGID_19_" gradientUnits="userSpaceOnUse" x1="53.9229" y1="99.6904" x2="53.9229" y2="82.1436">
		<stop  offset="0" style="stop-color:#FFFFFF"/>
		<stop  offset="1" style="stop-color:#1C75BC"/>
	</linearGradient>
	<path fill="url(#SVGID_19_)" d="M32.89,84.972c0,0,0.389,1.289,1.807,1.807c1.42,0.516,9.93,3.871,11.227,3.871
		c2.58,0,3.115-3.189,7.283-1.023c1.949,1.014,4.586-1.041,6.264-0.525s4.105,0.768,5.936,0.516c3.742-0.516,4.904-2.709,5.42-3.096
		c0.516-0.389,4.129-4.129,4.129-4.129s-13.031-0.516-14.838-0.516S34.826,84.069,32.89,84.972z"/>
	<g>
		<linearGradient id="SVGID_20_" gradientUnits="userSpaceOnUse" x1="32.3774" y1="32.0776" x2="32.3774" y2="47.1709">
			<stop  offset="0" style="stop-color:#FFFFFF"/>
			<stop  offset="1" style="stop-color:#27AAE1"/>
		</linearGradient>
		<path fill="url(#SVGID_20_)" d="M20.048,46.106c0,0,1.703-5.202,2.217-5.532s2.143-0.718,2.655-1.542
			c0.514-0.824,2.566-3.956,2.566-3.956c0.642-0.165,1.796-0.33,1.796-0.33s1.777-2.831,2.824-4.779
			c0.198-0.369,2.438,2.143,3.208,3.461c0.77,1.318,2.566,4.12,2.951,4.779s1.784-0.793,2.169-0.958
			c0.385-0.165,2.194,3.76,2.194,3.76s1.82,3.958,2.077,4.782c0,0-9.02,0.068-13.777,0.421
			C24.668,46.676,20.048,46.106,20.048,46.106z"/>
		<linearGradient id="SVGID_21_" gradientUnits="userSpaceOnUse" x1="40.2793" y1="46.167" x2="39.3533" y2="38.0802">
			<stop  offset="0" style="stop-color:#1C75BC"/>
			<stop  offset="1" style="stop-color:#8ED3EF"/>
		</linearGradient>
		<path fill="url(#SVGID_21_)" d="M39.33,38.051l0.918,4.866l1.01,2.889l-1.285,0.086l-0.287-3.163c0,0-1.372-4.552-1.328-4.453
			C38.529,38.665,39.33,38.051,39.33,38.051z"/>
		<linearGradient id="SVGID_22_" gradientUnits="userSpaceOnUse" x1="21.0918" y1="46.4297" x2="20.5846" y2="42.0006">
			<stop  offset="0" style="stop-color:#1C75BC"/>
			<stop  offset="1" style="stop-color:#8ED3EF"/>
		</linearGradient>
		<polygon fill="url(#SVGID_22_)" points="21.976,46.191 21.576,41.87 20.048,46.106 		"/>
		<linearGradient id="SVGID_23_" gradientUnits="userSpaceOnUse" x1="29.5869" y1="46.7852" x2="28.515" y2="37.4236">
			<stop  offset="0" style="stop-color:#1C75BC"/>
			<stop  offset="1" style="stop-color:#8ED3EF"/>
		</linearGradient>
		<path fill="url(#SVGID_23_)" d="M26.843,46.352c0,0,0.445-4.103,0.271-5.44l1.182-1.426c-0.349,3.022,1.326,6.306,1.326,6.306
			l0.813-8.625c0,0,0.75,3.563,1.125,3.938s-0.188,3.875-0.188,3.875l0.184,1.291L26.843,46.352z"/>
		<linearGradient id="SVGID_24_" gradientUnits="userSpaceOnUse" x1="34.2739" y1="44.2417" x2="34.2739" y2="30.1515">
			<stop  offset="0" style="stop-color:#1C75BC"/>
			<stop  offset="1" style="stop-color:#8ED3EF"/>
		</linearGradient>
		<path fill="url(#SVGID_24_)" d="M32.763,31.817c0,0,0.506,0.996,0.256,2.625c-0.128,0.833-0.824,1.943-0.637,2.193
			s1.125,1.563,1.188,1.875s0.749,3.313,0.813,3.625c0.1,0.484,0.814,3.899,0.814,3.899l0.801-0.064c0,0,0.135-4.585,0.197-4.898
			s-1.063-2.625-1.313-3s-1.25-0.938-1.375-1.25s1.657-1.58,1.563-1.938C34.888,34.197,32.763,31.817,32.763,31.817z"/>
		<linearGradient id="SVGID_25_" gradientUnits="userSpaceOnUse" x1="25.4575" y1="36.3755" x2="22.3346" y2="43.6028">
			<stop  offset="0" style="stop-color:#FFFFFF"/>
			<stop  offset="1" style="stop-color:#27AAE1"/>
		</linearGradient>
		<path fill="url(#SVGID_25_)" d="M22.554,40.415c0,0-0.043,1.315-0.057,1.564c-0.2,3.495,0.688,0.063,0.688,0.063l1.25-0.625
			l1.961-4.685c-1.438,1.938-2.113,2.882-2.113,2.882L22.554,40.415z"/>
		<linearGradient id="SVGID_26_" gradientUnits="userSpaceOnUse" x1="31.1001" y1="34.5181" x2="32.16" y2="47.1781">
			<stop  offset="0" style="stop-color:#FFFFFF"/>
			<stop  offset="1" style="stop-color:#27AAE1"/>
		</linearGradient>
		<path fill="url(#SVGID_26_)" d="M30.998,34.292l-0.563,2.875c0,0,0.719,3.563,1.031,3.938s0.172,1.359,0.172,1.547
			s-0.234,2.25-0.234,2.25l0.906-3.359c0,0,0.25-1.188,0.125-1.438s-1.313-2.75-1.375-3.188S30.998,34.292,30.998,34.292z"/>
		<linearGradient id="SVGID_27_" gradientUnits="userSpaceOnUse" x1="26.6538" y1="36.7681" x2="27.6033" y2="48.1097">
			<stop  offset="0" style="stop-color:#FFFFFF"/>
			<stop  offset="1" style="stop-color:#27AAE1"/>
		</linearGradient>
		<path fill="url(#SVGID_27_)" d="M27.332,36.5l-0.438,1.458l-0.313,1.625c0,0-0.917,1.646-0.917,1.833s1.224,4.656,1.224,4.656
			l0.234-5.239c0,0,1.25-1.167,1.125-1.417s-0.666-1.271-0.729-1.708S27.332,36.5,27.332,36.5z"/>
		<linearGradient id="SVGID_28_" gradientUnits="userSpaceOnUse" x1="38.126" y1="36.374" x2="38.9668" y2="46.4172">
			<stop  offset="0" style="stop-color:#FFFFFF"/>
			<stop  offset="1" style="stop-color:#27AAE1"/>
		</linearGradient>
		<path fill="url(#SVGID_28_)" d="M37.06,36.276l0.906,2.609l0.354,5.224c0,0,0.302-3.505,0.302-3.318s1.239,3.693,1.239,3.693
			l-1.083-4.5c0,0-0.219-1.271-0.641-2.021C37.921,37.578,37.06,36.276,37.06,36.276z"/>
		<linearGradient id="SVGID_29_" gradientUnits="userSpaceOnUse" x1="29.1548" y1="35.2476" x2="28.376" y2="45.6157">
			<stop  offset="0" style="stop-color:#FFFFFF"/>
			<stop  offset="1" style="stop-color:#27AAE1"/>
		</linearGradient>
		<polygon fill="url(#SVGID_29_)" points="29.547,34.426 29.179,37.213 28.857,34.807 29.283,34.747 		"/>
		<linearGradient id="SVGID_30_" gradientUnits="userSpaceOnUse" x1="16.5776" y1="46.0771" x2="46.4839" y2="46.0771">
			<stop  offset="0" style="stop-color:#FFFFFF"/>
			<stop  offset="1" style="stop-color:#27AAE1"/>
		</linearGradient>
		<path fill="url(#SVGID_30_)" d="M16.578,46.148c0,0,7.293,0.023,9.948-0.025s7.854-0.266,7.854-0.266s6.382-0.209,9.148-0.137
			c2.766,0.073,2.956,0.214,2.956,0.214s-1.414,0.042-5.313,0.085c-3.542,0.039-7.069,0.214-7.069,0.214s-5.393,0.19-8.27,0.214
			C22.957,46.472,16.578,46.148,16.578,46.148z"/>
		<linearGradient id="SVGID_31_" gradientUnits="userSpaceOnUse" x1="24.6528" y1="39.4707" x2="22.5278" y2="45.2207">
			<stop  offset="0" style="stop-color:#FFFFFF"/>
			<stop  offset="1" style="stop-color:#27AAE1"/>
		</linearGradient>
		<path fill="url(#SVGID_31_)" d="M23.185,42.042l-0.688,1.5l0.469,2.25l0.063-2.094c0,0,0.344-1.313,0.5-1.5
			s1.094-1.188,1.094-1.188L23.185,42.042z"/>
		<linearGradient id="SVGID_32_" gradientUnits="userSpaceOnUse" x1="23.2563" y1="39.6787" x2="22.1938" y2="42.6162">
			<stop  offset="0" style="stop-color:#FFFFFF"/>
			<stop  offset="1" style="stop-color:#27AAE1"/>
		</linearGradient>
		<path fill="url(#SVGID_32_)" d="M22.81,40.823c0.063-0.281,0.75-0.781,0.75-0.781l-1.006,0.373l-0.025,1.939L22.81,40.823z"/>
	</g>
	<g>
		<linearGradient id="SVGID_33_" gradientUnits="userSpaceOnUse" x1="71.7256" y1="71.1162" x2="71.8817" y2="75.8776">
			<stop  offset="0" style="stop-color:#271CE1"/>
			<stop  offset="1" style="stop-color:#B7B3F5"/>
		</linearGradient>
		<path fill="url(#SVGID_33_)" d="M70.377,74.106c0,0,1.172-0.125,2.109-1.063c0.76-0.762,0.668-1.355,0.688-1.875
			c0.025-0.625-2.75-1-2.275-0.125C70.898,71.044,70.564,73.731,70.377,74.106z"/>
		<linearGradient id="SVGID_34_" gradientUnits="userSpaceOnUse" x1="37.6787" y1="69.9658" x2="36.7011" y2="73.822">
			<stop  offset="0" style="stop-color:#271CE1"/>
			<stop  offset="1" style="stop-color:#B7B3F5"/>
		</linearGradient>
		<path fill="url(#SVGID_34_)" d="M38.466,73.341c0,0-2.158-1.531-2.355-2.297c-0.166-0.641-0.203-1.422,0.359-1.609
			c0.729-0.244,2.453,0.609,2.453,0.609s-0.868,0.75-0.754,1.75S38.466,73.341,38.466,73.341z"/>
		<linearGradient id="SVGID_35_" gradientUnits="userSpaceOnUse" x1="54.1265" y1="42.2593" x2="54.1265" y2="56.7115">
			<stop  offset="0" style="stop-color:#271C38"/>
			<stop  offset="1" style="stop-color:#271CE1"/>
		</linearGradient>
		<path fill="url(#SVGID_35_)" d="M43.607,45.542c2.056-4.931,18.057-8.813,21.2,3.581c3.109,12.269-13.13,10.642-18.949,7.394
			C44.163,55.569,42.03,49.325,43.607,45.542z"/>
		<path fill="#F5C021" d="M62.133,88.583c-2.141-1.326-2.258-2.625-1.303-6.547c0.635-2.611,0.391-2.889,0.391-7.277
			c0-2.383,4.125-0.414,5.141-0.289c2.385,0.295,2.883-0.752,4.389-0.115c1.15,0.488,0.625,3.139,1.559,4.043
			s2.707,1.316,2.889,2.887c0.227,1.98-3.436,2.586-5.082,3.813s-3.066,2.969-4.979,3.623
			C63.223,89.376,62.133,88.583,62.133,88.583z"/>
		<path d="M46.755,81.429c0,0,2.687,2.916,6.036,2.57c3.347-0.348,8.472-4.793,8.472-4.793s-0.031,1.186-0.852,5.66
			c-0.25,1.365,0.232,2.309,0.232,2.309s-3.928-1.385-7.68-1.154c-3.755,0.23-4.446,0.346-4.446,0.346s0.086-0.605-0.087-1.529
			C48.256,83.913,46.755,81.429,46.755,81.429z"/>
		<path d="M66.477,77.185c0,0-2.232,0.369-2.367-1.732c-0.082-1.299,0.152-1.598,0.152-1.598L63.59,73.72
			c0,0,0.75-5.486-0.174-8.027c-0.924-2.543-2.6-4.506-2.6-4.506s0-1.617-1.096-3.812c-1.1-2.194-1.791-3.984-1.791-3.984
			s-4.908,1.675-6.005,1.905c-1.097,0.231-3.754-2.367-3.754-2.367s0.348,2.021,0.058,2.772c-0.288,0.75-2.194,3.06-2.54,4.447
			c-0.348,1.386-0.174,2.193-0.174,2.193s-1.906,2.833-2.541,5.084s-0.75,5.658-0.75,5.658s4.041,3.58,5.254,4.447
			s1.099,2.6,0.521,3.117c-0.578,0.521-1.916,0.008-1.965-0.057c-1.838-2.414-3.395-6.85-5.689-7.75
			c-1.139-0.445-1.835,0.586-1.835,0.586s-0.849-1.324-0.155-3.115c0.692-1.789,2.252-3.752,2.598-5.717
			c0.348-1.964,1.098-3.35,2.888-5.603c1.79-2.252,2.714-2.714,2.83-3.754c0.114-1.039,0-9.239,0-10.567
			c0-2.512,1.559-7.045,7.161-7.045c5.599,0,8.142,5.717,8.142,8.027s-0.289,4.505,0.289,6.18c0.576,1.674,2.367,5.313,3.463,6.583
			c1.098,1.271,3.582,3.696,4.736,8.663C71.529,71.669,71.096,76.146,66.477,77.185z"/>
		<ellipse fill="#FFFFFF" cx="55.794" cy="48.048" rx="2.425" ry="3.263"/>
		<ellipse cx="55.736" cy="48.453" rx="1.266" ry="1.703"/>
		<path fill="#FFFFFF" d="M51.239,47.936c-0.988,1.644-0.82,3.028-1.855,3.087c-1.035,0.059-1.807-1.322-1.895-2.874
			s0.68-2.856,1.715-2.916C50.239,45.175,51.151,46.384,51.239,47.936z"/>
		<ellipse transform="matrix(0.9894 -0.1454 0.1454 0.9894 -6.5123 7.6794)" cx="49.281" cy="48.393" rx="0.981" ry="1.469"/>
		<ellipse fill="#FFFFFF" cx="56.157" cy="47.993" rx="0.339" ry="0.456"/>
		
			<ellipse transform="matrix(0.9894 -0.1451 0.1451 0.9894 -6.4356 7.696)" fill="#FFFFFF" cx="49.553" cy="47.977" rx="0.263" ry="0.393"/>
		<path fill="#FFFFFF" d="M48.344,53.563c0,0,0.174,1.617-0.289,2.599c-0.461,0.981-2.367,2.887-2.483,4.33
			c-0.115,1.444-0.115,1.676-0.115,1.676s-3.003,4.274-3.062,6.93c-0.057,2.658-0.172,3.984-0.172,3.984s3.406,3.004,4.677,3.986
			c1.271,0.98,1.964,2.482,1.068,3.465c-0.661,0.725-1.819,0.113-1.819,0.113s1.675,3.41,6.064,3.352
			c4.388-0.057,9.05-4.793,9.05-4.793s0.051-1.375,0.016-2.57c-0.037-1.301-0.146-2.443,0.26-2.744
			c0.629-0.465,2.092-0.164,2.092-0.164s0.824-5.668-0.445-8.727c-1.271-3.064-2.426-3.874-2.426-3.874s0-1.731-1.156-3.926
			c-1.154-2.194-1.674-3.869-1.674-3.869S48.69,53.044,48.344,53.563z"/>
		<path fill="#F5C021" d="M47.94,87.55c-1.646,1.906-2.945,1.82-6.67,0.262c-2.479-1.039-3.992-0.773-7.854-2.109
			c-2.252-0.779-0.688-2.914-0.404-3.898c0.664-2.309-0.49-4.217,0.375-5.602c0.662-1.059,2.801-0.145,3.84-0.924
			c1.04-0.779,1.049-2.609,2.629-2.541c1.99,0.088,4.272,4.592,5.225,6.41c0.953,1.818,3.119,3.465,3.467,5.457
			C48.893,86.599,47.94,87.55,47.94,87.55z"/>
		<radialGradient id="SVGID_36_" cx="48.5718" cy="62.459" r="19.1494" gradientUnits="userSpaceOnUse">
			<stop  offset="0" style="stop-color:#B7B3F5"/>
			<stop  offset="1" style="stop-color:#271CE1"/>
		</radialGradient>
		<path fill="url(#SVGID_36_)" d="M69.119,62.389c-1.16-2.063-2.33-4.52-2.967-5.419c-1.234-1.741-3.365-1.762-5.047-1.866
			c-3.844-0.239-7.111,6.244-8.936,6.313s-2.5-6.188-6.661-5.221c-1.746,0.406-4.56,4.768-5.033,7.872
			c-0.397,2.611-4.282,4.518-4.46,6.178c0,0,2.248-0.621,4.739,0.27c3.11,1.113,3.461,3.008,3.461,3.008s0.098,1.453,0.35,1.646
			c3.93,2.996,5.125,6.178,1.509,5.451c3.745,4.646,4.816,6.979,7.491,7.174c3.423,0.25,5.863-4.336,7.699-8.588
			c0.051-5.162,1.068-5.672,2.426-5.496c0,0,0.895-3.697,3.979-3.416c4.125,0.375,5.506,0.875,5.506,0.875
			C72.924,68.106,70.281,64.456,69.119,62.389z"/>
		<path fill="#E6E6E6" d="M48.228,55.7c0,0,0.665,0.707,1.099,1.184c0.285,0.316,1.125,0.996,2.728,0.779
			c2.196-0.296,2.815-1.386,3.94-1.906c1.127-0.52,2.426-1.125,2.426-1.125l-0.49-1.3c0,0-1.631,0.26-3.017,1.516
			c-0.865,0.786-1.705,0.953-2.872,1.025c-1.632,0.102-2.009-0.422-2.425-1.04c-0.636-0.938-1.388-1.616-1.388-1.616
			s0.203,1.212,0.103,1.848C48.228,55.7,48.228,55.7,48.228,55.7z"/>
		<path fill="#F5C021" d="M52.041,55.873c-1.097,0-1.858-0.011-2.55-0.993c-0.693-0.981-0.83-1.289-1.233-1.519
			c-0.404-0.231-0.722-0.491-0.722-0.491s-0.059-1.097,0.52-1.674c0.578-0.577,2.252-1.964,3.176-2.252s2.08-0.116,2.771,0.116
			c0.693,0.23,1.732,0.982,2.714,1.386c0.98,0.405,0.463-0.057,0.98,0.405c0.521,0.462,0.232,2.482,0.232,2.482
			s-1.213,0.29-2.136,0.867C54.87,54.776,54.002,55.873,52.041,55.873z"/>
		<path fill="#8C5E0B" d="M47.536,52.87c0,0,0.795,0.094,1.141,0.31c0.346,0.217,0.606,0.963,2.643,0.833
			c2.035-0.13,2.814-0.595,3.422-1.028c0.605-0.433,1.99-1.516,1.99-1.516h0.26c0,0-1.596,1.388-2.215,1.923
			c-0.695,0.601-2.084,1.762-3.773,1.631c-1.689-0.13-2.034-1.288-2.282-1.519c-0.303-0.282-0.937-0.461-0.937-0.461L47.536,52.87z"
			/>
		<ellipse fill="#8C5E0B" cx="53.094" cy="49.478" rx="0.346" ry="0.13"/>
		<linearGradient id="SVGID_37_" gradientUnits="userSpaceOnUse" x1="53.5098" y1="52.1802" x2="60.8419" y2="23.2382">
			<stop  offset="0" style="stop-color:#271CE1"/>
			<stop  offset="1" style="stop-color:#D0CDF8"/>
		</linearGradient>
		<path fill="url(#SVGID_37_)" d="M45.359,56.208c0,0-8.392-16.884,10.519-14.292c11.857,1.625,8.322,13.66,8.322,13.66
			s5.457-5.625-3.635-17.91c-3.148-4.254-0.23-6.198-0.629-7.109c-0.299-0.686-3.527,0.924-8.229,4.283
			C50.613,35.622,36.669,45.227,45.359,56.208z"/>
		<linearGradient id="SVGID_38_" gradientUnits="userSpaceOnUse" x1="55.3164" y1="55.3657" x2="50.2131" y2="33.1656">
			<stop  offset="0" style="stop-color:#271CE1"/>
			<stop  offset="1" style="stop-color:#FFFFFF"/>
		</linearGradient>
		<path fill="url(#SVGID_38_)" d="M45.359,56.083c0,0-7.637-15.288,7.248-14.792c11.252,0.375,11.918,7.917,11.918,7.917
			s-1.408-7.183-12.727-7.104C39.8,42.188,45.359,56.083,45.359,56.083z"/>
		<g>
			<path fill="#CCCCCC" d="M46.765,65.63c-0.168-2.977,2.085-3.851,2.085-3.851s-2.413-0.796-2.534-0.228
				c-0.168,0.794-0.118,2.873-0.164,4.575c-0.046,1.701-1.25,9.371-1.25,9.371C45.252,75.405,46.974,69.345,46.765,65.63z"/>
			<path fill="#CCCCCC" d="M62.518,66.903c-0.305-1.969-1.098-6.33-1.752-6.43c-1.635-0.252-4.668,1.135-4.668,1.135
				s1.859-0.17,2.67,0.127c3.191,1.172,2.584,2.848,2.947,5.743c0.123,0.979,1.66,6.006,1.66,6.006S62.754,68.423,62.518,66.903z"/>
		</g>
		<path fill="#CCCCCC" d="M44.919,75.435c0,0,2.865,3.086,9.17,3.086c3.741,0,6.838-2.064,6.838-2.064s-2.33,2.375-4,2.709
			c-1.936,0.387-2.581,0.645-5.29,0.129C47.216,78.452,44.919,75.435,44.919,75.435z"/>
		<linearGradient id="SVGID_39_" gradientUnits="userSpaceOnUse" x1="43.6875" y1="71.9238" x2="42.8439" y2="75.2515">
			<stop  offset="0" style="stop-color:#271CE1"/>
			<stop  offset="1" style="stop-color:#B7B3F5"/>
		</linearGradient>
		<path fill="url(#SVGID_39_)" d="M42.326,70.997c0,0,0.953,0.594,1.516,1.531s0.641,2.563,0.641,2.563s-2.159-1.857-2.259-2.008
			C42.123,72.935,42.326,70.997,42.326,70.997z"/>
		<linearGradient id="SVGID_40_" gradientUnits="userSpaceOnUse" x1="74.6855" y1="71.8936" x2="62.7091" y2="71.6203">
			<stop  offset="0" style="stop-color:#4F46E7"/>
			<stop  offset="1" style="stop-color:#B7B3F5"/>
		</linearGradient>
		<path fill="url(#SVGID_40_)" d="M63.398,73.688c0,0,0.438-3.27,2.625-3.77c2.383-0.545,3.869-0.131,5.104,0.188
			c1.578,0.406,2.031,1.266,2.031,1.266l-0.109,0.891c0,0-0.078-0.922-2.25-1.516c-1.223-0.334-2.438-0.578-4.375-0.203
			c-1.84,0.355-2.754,3.193-2.754,3.193L63.398,73.688z"/>
		<linearGradient id="SVGID_41_" gradientUnits="userSpaceOnUse" x1="46.4331" y1="72.5635" x2="35.2534" y2="72.3084">
			<stop  offset="0" style="stop-color:#271CE1"/>
			<stop  offset="1" style="stop-color:#B7B3F5"/>
		</linearGradient>
		<path fill="url(#SVGID_41_)" d="M36.123,69.716c0,0,1.741-0.938,5.534,0.764c3.736,1.676,3.263,4.955,3.263,4.955l-0.438-0.344
			c0,0,0.176-2.664-2.825-4.117c-3.54-1.713-5.671-0.594-5.671-0.594C36.015,69.927,36.123,69.716,36.123,69.716z"/>
		<path fill="#CCCCCC" d="M48.969,81.776c0,0,2.18,4.645,5.07,4.361c2.89-0.285,5.308-4.883,5.308-4.883s-2.086,3.699-5.355,3.414
			C50.722,84.384,48.969,81.776,48.969,81.776z"/>
		<path fill="#CCCCCC" d="M65.438,56.558c0,0,1.094,2.275,1.715,3.983c0.373,1.027,1.418,3.667,1.516,4.94
			c0.109,1.396,1.15,3.699,1.756,3.813c1.688,0.313,2.459,1.244,2.375,0.938c-0.313-1.125-0.398-2.096-1.625-4.125
			c-1.813-3.002-2.508-4.075-3.172-5.308C67.447,59.77,66.188,56.246,65.438,56.558z"/>
		<path fill="#CCCCCC" d="M36.861,68.919c0,0,3.125-2.563,3.625-4.313c0.688-3.69,1.416-4.398,1.416-4.398s-0.95,4.386-1.05,5.433
			c-0.048,0.502-0.804,2.027-1.491,2.59S36.861,68.919,36.861,68.919z"/>
		<path fill="#CCCCCC" d="M52.423,41.104c0,0,5.694,0.806,7.5,1.875c3.063,1.813,4.375,2.938,5.688,8.375c0,0,0.5-3.75-1.313-6.688
			C61.447,40.047,52.423,41.104,52.423,41.104z"/>
		<path fill="#CCCCCC" d="M62,39.758c0,0-3.385-2.041-3.764-3.591s1.148-3.945,1.148-3.945s-0.695,1.424-0.094,3.228
			C59.695,36.665,62,39.758,62,39.758z"/>
		<path fill="#666666" d="M64.268,73.851c0,0,0.078-0.713,0.771-1.117c0.691-0.404,4.1,0.289,4.1,0.289s-3.119-0.287-3.869,0.115
			C64.52,73.542,64.268,73.851,64.268,73.851z"/>
		<polygon fill="#F5C021" points="61.74,55.327 62.217,55.867 63.281,55.953 62.512,56.374 62.693,56.967 61.74,56.687 
			60.789,56.967 60.971,56.374 60.201,55.953 61.266,55.867 		"/>
		<polygon fill="#F5C021" points="58.254,64.585 58.73,65.55 59.795,65.704 59.025,66.456 59.207,67.515 58.254,67.015 
			57.303,67.515 57.484,66.456 56.713,65.704 57.777,65.55 		"/>
		<polygon fill="#F5C021" points="54.201,36.126 54.771,37.192 56.326,37.567 55.08,38.162 55.199,39.262 53.861,38.563 
			52.381,38.869 52.798,37.844 51.763,36.93 53.361,36.996 		"/>
		<polygon fill="#F5C021" points="64.672,65.269 65.326,65.878 66.385,65.724 65.791,66.489 66.178,67.247 65.156,67.108 
			64.336,67.731 64.301,66.882 63.404,66.509 64.404,66.12 		"/>
		<polygon fill="#F5C021" points="66.77,59.505 67.172,60.18 67.676,60.172 67.484,60.833 67.775,61.615 67.254,61.346 
			66.93,61.836 66.799,61.013 66.307,60.533 66.75,60.292 		"/>
		<polygon fill="#F5C021" points="59.029,71.423 59.506,72.388 60.57,72.542 59.799,73.294 59.98,74.353 59.029,73.853 
			58.076,74.353 58.258,73.294 57.488,72.542 58.553,72.388 		"/>
		<polygon fill="#F5C021" points="51.158,80.493 51.634,81.167 52.699,81.274 51.927,81.8 52.109,82.54 51.158,82.188 50.205,82.54 
			50.386,81.8 49.617,81.274 50.681,81.167 		"/>
		<polygon fill="#F5C021" points="60.23,79.198 59.855,80.124 60.223,80.593 59.439,80.946 58.881,81.851 58.771,81.142 
			58.061,81.235 58.775,80.446 58.893,79.595 59.445,79.817 		"/>
		<polygon fill="#F5C021" points="49.016,66.745 49.493,67.604 50.557,67.741 49.787,68.411 49.968,69.356 49.016,68.909 
			48.064,69.356 48.246,68.411 47.475,67.741 48.54,67.604 		"/>
		<polygon fill="#F5C021" points="50.177,75.132 50.654,75.778 51.718,75.882 50.948,76.388 51.129,77.097 50.177,76.761 
			49.225,77.097 49.407,76.388 48.636,75.882 49.701,75.778 		"/>
		<polygon fill="#F5C021" points="42.952,66.554 43.428,67.292 44.493,67.409 43.722,67.985 43.904,68.794 42.952,68.411 42,68.794 
			42.181,67.985 41.411,67.409 42.475,67.292 		"/>
		<polygon fill="#F5C021" points="45.185,57.681 45.662,58.319 46.726,58.421 45.955,58.92 46.136,59.621 45.185,59.29 
			44.232,59.621 44.414,58.92 43.644,58.421 44.708,58.319 		"/>
	</g>
	<g>
		<rect x="69.495" y="54.191" transform="matrix(0.9763 0.2166 -0.2166 0.9763 15.4295 -13.6716)" width="1.19" height="18.737"/>
		
			<rect x="69.484" y="54.093" transform="matrix(0.9768 0.2143 -0.2143 0.9768 15.2357 -13.4447)" fill="#666666" width="0.31" height="18.935"/>
		
			<rect x="71.842" y="51.324" transform="matrix(0.9766 0.2151 -0.2151 0.9766 13.075 -14.3406)" fill="#F5C021" width="1.192" height="3.179"/>
		
			<rect x="71.851" y="51.235" transform="matrix(0.9767 0.2145 -0.2145 0.9767 13.0076 -14.2215)" fill="#FFDE8A" width="0.362" height="3.179"/>
		
			<rect x="72.083" y="51.351" transform="matrix(0.9765 0.2153 -0.2153 0.9765 12.857 -14.4337)" fill="#FFFFFF" width="1.202" height="0.9"/>
		<polygon fill="#F5C021" points="74.662,43.998 74.922,45.051 75.939,45.436 75.016,46.008 74.963,47.092 74.135,46.392 
			73.088,46.679 73.496,45.673 72.9,44.766 73.984,44.844 		"/>
		<polygon fill="#F5C021" points="77.568,36.093 77.828,37.146 78.844,37.53 77.922,38.103 77.869,39.187 77.039,38.487 
			75.994,38.773 76.402,37.768 75.807,36.86 76.891,36.939 		"/>
		<polygon fill="#F5C021" points="64.628,27.653 64.888,28.707 65.903,29.091 64.981,29.664 64.929,30.747 64.099,30.048 
			63.054,30.333 63.462,29.328 62.866,28.421 63.95,28.5 		"/>
		<polygon fill="#F5C021" points="84.928,39.633 85.186,40.688 86.201,41.072 85.279,41.644 85.229,42.729 84.398,42.027 
			83.352,42.315 83.762,41.31 83.166,40.402 84.246,40.48 		"/>
		<polygon fill="#F5C021" points="72.76,29.162 73.02,30.215 74.035,30.599 73.111,31.171 73.061,32.256 72.232,31.555 
			71.184,31.842 71.594,30.837 71,29.93 72.082,30.008 		"/>
		<polygon fill="#F5C021" points="70.469,40.341 70.848,41.88 72.332,42.442 70.984,43.278 70.908,44.861 69.697,43.838 
			68.17,44.258 68.766,42.789 67.896,41.463 69.479,41.579 		"/>
		<polygon fill="#FFFFFF" points="70.305,41.395 70.506,42.216 71.299,42.516 70.58,42.962 70.539,43.808 69.893,43.261 
			69.076,43.485 69.395,42.701 68.93,41.994 69.775,42.056 		"/>
		<polygon fill="#F5C021" points="79.145,28.428 79.523,29.967 81.004,30.528 79.66,31.364 79.584,32.948 78.373,31.925 
			76.844,32.344 77.441,30.875 76.57,29.55 78.152,29.665 		"/>
		<polygon fill="#FFFFFF" points="78.979,29.476 79.182,30.301 79.977,30.602 79.256,31.051 79.215,31.9 78.566,31.352 
			77.744,31.576 78.066,30.789 77.598,30.078 78.447,30.139 		"/>
		<polygon fill="#F5C021" points="79.99,41.182 80.129,41.735 80.662,41.938 80.178,42.238 80.15,42.808 79.713,42.439 
			79.164,42.591 79.379,42.063 79.068,41.586 79.635,41.627 		"/>
		<polygon fill="#F5C021" points="73.076,37.739 73.213,38.292 73.748,38.495 73.264,38.795 73.236,39.366 72.799,38.997 
			72.25,39.148 72.467,38.62 72.152,38.143 72.721,38.184 		"/>
		<polygon fill="#F5C021" points="80.643,45.255 80.779,45.809 81.313,46.011 80.828,46.312 80.801,46.881 80.365,46.514 
			79.816,46.665 80.029,46.136 79.717,45.659 80.287,45.7 		"/>
		<polygon fill="#F5C021" points="69.468,25.901 69.603,26.455 70.136,26.657 69.651,26.957 69.624,27.527 69.188,27.159 
			68.64,27.31 68.853,26.781 68.54,26.305 69.11,26.346 		"/>
		<polygon fill="#F5C021" points="68.279,34.189 68.416,34.743 68.947,34.945 68.465,35.246 68.436,35.815 68.002,35.447 
			67.451,35.599 67.666,35.07 67.352,34.593 67.922,34.634 		"/>
		<polygon fill="#F5C021" points="85.887,32.842 86.023,33.396 86.555,33.598 86.072,33.898 86.043,34.468 85.609,34.1 
			85.059,34.251 85.273,33.723 84.959,33.246 85.529,33.287 		"/>
		<polygon fill="#F5C021" points="82.152,33.752 82.289,34.307 82.824,34.508 82.338,34.809 82.313,35.378 81.875,35.01 
			81.326,35.161 81.541,34.633 81.229,34.157 81.797,34.198 		"/>
		<polygon fill="#F5C021" points="64.387,22.514 64.523,23.068 65.059,23.27 64.572,23.571 64.547,24.14 64.109,23.771 
			63.561,23.922 63.775,23.395 63.463,22.918 64.031,22.959 		"/>
	</g>
</g>
<g>
	<path fill="#73B7E5" d="M55.42,10.832l46.099,26.599v53.201l-46.099,26.6L9.319,90.631v-53.2L55.42,10.832z M110.92,32.032
		l-55.5-32l-55.401,32v63.999l55.401,32l55.5-31.999V32.032z"/>
	<g>
		<g opacity="0.13">
			<g>
				<path d="M99.119,89.231l-43.7,25.2l-43.6-25.201v-50.4l43.6-25.2l43.7,25.2V89.231z M101.42,90.631V37.43l-46-26.6l-46,26.6
					v53.101l46,26.6L101.42,90.631z"/>
			</g>
		</g>
	</g>
</g>
</svg>
