<?xml version="1.0" encoding="utf-8"?>
<!-- Generator: Adobe Illustrator 21.0.2, SVG Export Plug-In . SVG Version: 6.00 Build 0)  -->
<svg version="1.1" id="Layer_1" xmlns="http://www.w3.org/2000/svg" xmlns:xlink="http://www.w3.org/1999/xlink" x="0px" y="0px"
	 viewBox="0 0 110.8748 128.0417" style="enable-background:new 0 0 110.8748 128.0417;" xml:space="preserve">
<style type="text/css">
	.st0{fill:#0055FF;}
	.st1{fill:url(#SVGID_1_);}
	.st2{fill:#EABEA0;}
	.st3{fill:#C9876F;}
	.st4{fill:#5EBFAC;}
	.st5{fill:#232221;}
	.st6{fill:#161514;}
	.st7{fill:#2D2925;}
	.st8{fill:#4F463E;}
	.st9{fill:#AFAFAF;}
	.st10{fill:#DBDBDB;}
	.st11{fill:#4AA090;}
	.st12{fill:#5EE5CB;}
	.st13{fill:#D3A484;}
	.st14{fill:#111111;}
	.st15{opacity:0.13;enable-background:new    ;}
</style>
<g id="Layer_63_18_">
	<polygon class="st0" points="110.8748,32 110.8748,96 55.4548,128 11.1048,102.4 10.9048,102.28 0.0248,96 0.0248,32 55.4548,0 	
		"/>
</g>
<radialGradient id="SVGID_1_" cx="55.9382" cy="64.21" r="49.6877" gradientUnits="userSpaceOnUse">
	<stop  offset="0" style="stop-color:#00D6EF"/>
	<stop  offset="1" style="stop-color:#2E3192"/>
</radialGradient>
<path class="st1" d="M101.9382,37.64v53.14l-0.01,0.01l-1.09,0.62l-0.33,0.19l-0.1299,0.07l-0.88,0.5099l-3.14,1.81l-0.2,0.12
	l-1.93,1.11l-0.16,0.09l-1.48,0.86l-0.47,0.27l-0.14,0.08l-0.47,0.27l-0.24,0.13l-0.03,0.0099l-0.1,0.04l-0.11,0.07l-3.03,1.74
	l-0.82,0.47l-1.05,0.6l-0.04,0.03l-1.23,0.71l-0.45,0.26l-0.01,0.0099l-0.01,0.01h-0.0099l-1.54,0.89l-0.87,0.52l-1.26,0.72
	l-0.12,0.07l-0.08,0.05l-0.41,0.24l-0.03,0.01l-0.16,0.09v0.01l-0.78,0.45l-0.1801,0.09l-0.02,0.02l-0.04,0.02l-1.0099,0.58
	l-0.29,0.17l-0.05,0.03l-0.32,0.18l-0.24,0.14h-0.01l-0.07,0.04l-0.64,0.38l-0.2,0.12l-4.42,2.55l-0.63,0.36l-0.06,0.03l-3.5,2.03
	l-0.02,0.01l-0.01,0.0099l-0.75,0.43l-0.5,0.29l-1.39,0.8l-1.37,0.79l-0.01,0.01l-0.43,0.25l-0.4,0.23l-2.36,1.36l-0.36,0.21
	l-0.04,0.02l-0.68,0.39l-1.8701,1.08l-0.56,0.3199h-0.0099l-0.32,0.19l-0.48,0.28l-1.42-0.82l-0.85-0.49l-0.03-0.01l-1.74-1.01
	l-3.53-2.04l-0.04-0.03l-2.07-1.19l-5.36-3.11l-0.69-0.39l-4.72-2.74l-0.37-0.21l-0.39-0.22l-0.23-0.13l-0.2599-0.15l-0.2401-0.15
	l-0.09-0.05l-1.85-1.06l-0.5699-0.33l-1.71-0.99l-2.51-1.46l-2.09-1.2l-0.82-0.47l-0.09-0.05l-0.5-0.29l-0.01-0.0099l-0.21-0.1201
	h-0.01l-1.04-0.6C22.4382,98,22.4382,98,22.4282,98l-1.86-1.08l-1.02-0.59l-1.33-0.77l-0.72-0.43l-0.04-0.02l-0.02-0.0099
	l-0.29-0.17c0,0-0.01,0-0.02-0.0099l-0.26-0.15l-0.02-0.01l-3.3-1.9l-3.41-1.97l-0.09-0.05l-0.08-0.04l-0.03-0.02V37.64l5.66-3.26
	l0.77-0.46h0.01l0.25-0.14l0.58-0.33l1.75-1.01l2.27-1.31l0.82-0.48l0.15-0.09l2.07-1.19l0.98-0.57l1.0099-0.59l0.42-0.24l0.45-0.26
	l0.25-0.14c0.0099,0,0.0099,0,0.0099,0l0.57-0.33l3.23-1.86l1.58-0.92l0.17-0.09l1.66-0.95l0.78-0.45l0.3799-0.22l0.44-0.26
	l1.1-0.65l0.52-0.3l2.28-1.3l0.69-0.41l1.4-0.8h0.0099l0.05-0.03l5.72-3.3l0.19-0.11l0.27-0.16l6.07-3.5099l1.44-0.83l1.06,0.62
	l6.49,3.75l2.6,1.5l3.95,2.28l1.34,0.77l6.64,3.83l1.04,0.61l2.3,1.31l0.87,0.5l1.52,0.88l1.37,0.79l0.8,0.46l0.09,0.06l1.8101,1.04
	l3.78,2.1801l0.04,0.03v0.01l0.26,0.14l0.26,0.16l0.4,0.23l0.92,0.53l0.54,0.31l0.02,0.01l1.92,1.11l0.78,0.44l0.44,0.25l1.94,1.12
	L101.9382,37.64z"/>
<path class="st2" d="M70.4453,49.519c-0.0026-0.0265-0.0044-0.0527-0.007-0.0792c-0.0039-0.0408-0.0187-0.0738-0.032-0.1077
	c0.1118-0.404,0.1466-0.8654,0.1731-1.2242c0.042-0.5665-0.1323-1.0992-0.3285-1.6217c-0.0004-0.019-0.0018-0.0387-0.0021-0.0576
	c-0.009-0.9161-0.0737-1.7382-0.3132-2.5782c0.0825-0.0468,0.1488-0.1183,0.168-0.2343c0.1642-0.9942-0.0454-1.9233-0.209-2.9065
	c-0.1489-0.8948-0.1484-1.8298-0.2642-2.7325c0.0179-0.1608,0.036-0.3217,0.054-0.4825c0.1272-0.4798-0.5857-0.8136-0.8226-0.3469
	c-0.6727,1.325-4.5515,1.4376-5.9598,1.6577c-1.5691,0.2452-3.6713,0.5181-5.5463,0.3884c-0.0333-0.0265-0.057-0.0591-0.0984-0.0803
	c-0.4053-0.2065-0.7532-0.3262-1.1-0.4007c-1.4153-0.4902-2.8293-0.8792-4.3456-0.9683c-0.17-0.1932-0.3337-0.2827-0.7791-0.5026
	c-0.2633-0.1299-0.5659-0.0474-0.751,0.136c-0.2494,0.0267-0.4237,0.1058-0.5636,0.2048c-0.1171-0.0283-0.2454-0.0045-0.3547,0.1151
	c-0.4348,0.4747-0.3762,0.9344-0.0103,1.4213c0.1469,0.1953,0.3221,0.4352,0.5503,0.5391c0.2119,0.0965,0.3672,0.0035,0.5376,0.0054
	c0.0085,0.0057,0.0149,0.0127,0.0234,0.0183c-0.0127,0.012-0.0295,0.0139-0.0408,0.0288c-0.8439,1.1248-1.3489,2.3873-1.6748,3.7074
	c-0.9087,1.8279-1.0056,3.9185-0.627,5.9135c0.0026,0.0136,0.0105,0.0215,0.0138,0.0344c-0.0322,0.5374,0.0197,1.0818,0.103,1.6538
	c0.1097,0.7532,0.1649,1.5464,0.3007,2.3137c-0.0005-0.0004-0.0007-0.001-0.0011-0.0014c-0.4071-0.4134-0.8295-0.8094-1.2506-1.2071
	c-0.0759-0.1458-0.1621-0.2853-0.241-0.4294c0.0281-0.1261,0.022-0.265-0.0562-0.4116c-0.4307-0.7457-0.6169-1.5794-1.0472-2.3073
	c-0.1151-0.6687-0.6527-1.204-1.2379-1.6464c-0.4373-0.3305-0.8842-0.5674-1.3643-0.7997c0.0098-0.0195,0.0219-0.0331,0.03-0.0587
	c0.0376-0.1168,0.0002-0.2813-0.0957-0.3621c-0.5542-0.4676-1.2056-0.7974-1.8296-1.1582
	c-0.0596-0.0839-0.1163-0.1696-0.1808-0.2493c-0.0034-0.035-0.0189-0.0718-0.0148-0.1057c0.0479-0.3983-0.65-0.4966-0.7061-0.0955
	c-0.0049,0.0347,0.0007,0.0658-0.0022,0.0998c-0.0344,0.0306-0.0635,0.068-0.076,0.1163c-0.274,1.0602,0.0709,2.2113,0.4408,3.2108
	c0.0017,0.0047,0.0037,0.01,0.0054,0.0147c0.0372,0.2849,0.0996,0.5593,0.179,0.8268c-0.0238,0.8099,0.4045,1.5889,0.7456,2.3802
	c0.4056,0.9407,0.7988,1.849,1.5544,2.4808c-0.0488,0.0676-0.1029,0.1611-0.157,0.3199c-0.1311,0.3854,0.0288,0.7099,0.1931,1.0716
	c0.5569,1.2249,1.1879,1.7803,2.5319,1.7224c0.4169-0.0179,0.8988-0.0654,1.2306-0.2518c0.0171,0.0132,0.033,0.0261,0.05,0.0394
	c-0.2651,0.1816-0.406,0.5829-0.1436,0.9139c0.8206,1.035,1.4082,1.6037,2.5483,1.866c0.0012,0.0359-0.0022,0.0696,0.0067,0.1089
	c0.036,0.1574,0.0712,0.316,0.1063,0.4739c-0.1687-0.3237-0.429-0.5664-0.797-0.6016c-0.0135-0.0013-0.0256,0.0076-0.0391,0.0082
	c-0.0911-0.0323-0.1864-0.0524-0.2814-0.0427c-0.2275-0.0547-0.4832-0.0181-0.6729,0.1067
	c-0.1469-0.3102-0.324-0.6368-0.6327-0.8044c-0.4497-1.1399-1.0841-1.8935-1.9362-1.0755
	c-0.3419,0.3282-0.2897,1.1724-0.3624,1.5845c-0.2479,1.4034-0.5092,2.8046-0.7266,4.2131c-0.181,1.173-0.4066,2.3903-0.5107,3.6046
	c-0.0385,0.0554-0.0753,0.113-0.088,0.1916c-0.2361,1.5379-0.463,3.077-0.6924,4.6157c-0.209,0.8708-0.3975,1.7464-0.5636,2.6313
	c-0.0228,0.1212-0.0023,0.224,0.0341,0.3171c-0.2887,0.0604-0.5782,0.0548-0.8662,0.1027
	c-0.1191-0.5762-0.2241-1.1576-0.2782-1.7582c-0.1414-1.567-0.1466-3.1343-0.3491-4.6972
	c-0.2772-2.1399-0.2921-5.4965-1.4059-7.3717c-0.5195-0.8746-1.2241-1.1341-2.1666-0.4157
	c-0.4823,0.3677-0.556,0.6008-0.7129,1.1862c-0.3928,1.4648-0.0955,3.489-0.1605,5.0751c-0.0126,0.0068-0.0233,0.016-0.0352,0.0242
	c-0.1044-0.006-0.2155,0.0215-0.3171,0.1008c-0.4141,0.3232-0.6184,0.6012-0.7266,0.9752
	c-0.0667,0.1212-0.1245,0.2646-0.1674,0.4554c-0.245,1.092,0.0087,2.5178,0.0524,3.6176c0.1111,2.7927,0.434,5.5681,0.6295,8.3481
	c-0.0739,0.0721-0.1237,0.1698-0.1278,0.2885c-0.0508,1.4525-0.3792,2.8268-0.439,4.2317
	c-0.4978,0.8568-0.5103,2.2359-0.5859,3.0697c-0.1145,1.2596-0.4641,3.1911,0.2842,4.3454c-0.022,0.9584,0.0071,1.9277,0,2.8687
	c-0.0039,0.5374-0.0376,1.084,0.0294,1.6022c-0.0262,0.0175-0.0559,0.0276-0.0795,0.0501
	c-0.1233,0.1172-0.2166,0.2108-0.2927,0.2959c-1.6097,0.9575-1.0222,2.9453-0.3429,4.584c0.3236,1.151,0.911,2.1683,1.8143,3.1165
	c0.1509,0.1584,0.3529,0.212,0.5476,0.1902c0.498,0.5256,0.998,0.9633,1.7769,0.9715c0.4352,0.0046,2.0762-0.1859,2.5674-0.4279
	c1.2042-0.593,1.4751-2.2676,1.1755-3.4738c0.6763-0.7065,1.2131-1.5607,1.9048-2.2551c0.0835-0.0838,0.167-0.1501,0.2507-0.2162
	c0.8519-0.3186,1.6716-0.8054,2.4531-1.4006c0.0956,0.0195,0.1909,0.0397,0.2893,0.0482c0.0016,0.0002,0.0026,0.0012,0.0042,0.0015
	c0.037,0.0052,0.074,0.0105,0.1111,0.0157c0.449,0.0635,0.7632-0.2625,0.837-0.6083c2.1354-0.748,3.5676-2.6785,5.0471-4.5646
	c1.182-1.5068,2.1516-3.1304,3.2426-4.7028c0.7656-1.1038,2.2156-2.3422,2.1268-3.8032c0.2323-0.3654,0.4327-0.7565,0.6312-1.0468
	c0.6171-0.9026,1.281-1.7723,1.9041-2.6704c0.0417-0.0601,0.0486-0.1378,0.0369-0.2134c0.2405-0.1138,0.4778-0.2342,0.7072-0.3694
	c0.4471-0.2483,0.1583-0.8121-0.2611-0.803c-0.0135-0.253-0.1917-0.5017-0.5057-0.5139c-2.681-0.1041-4.4218,3.0878-6.0638,4.7059
	c-0.9097,0.8964-1.8853,1.8132-2.6797,2.8402c-0.3003-0.329-0.585-0.6674-0.8527-1.0251c-0.2079-0.3058-0.4159-0.6116-0.6238-0.9175
	c-0.027-0.0396-0.0624-0.0589-0.0922-0.092c-0.2533-1.464-0.6937-2.8466-0.7241-4.38c-0.0178-0.9009,0.1104-1.8256,0.1272-2.7361
	c0.5157-2.229,0.0558-5.1934,0.0581-7.427c0.0032-2.73-0.1265-5.4295-0.4619-8.1315c0.1283-0.2379,0.1967-0.539,0.1987-0.8581
	c0.0897,0.4063,0.1772,0.8122,0.2731,1.217c0.0016,0.0251,0.0021,0.0501,0.0026,0.0751c-0.0305,0.0599-0.052,0.1287-0.0538,0.213
	c-0.006,0.2721,0.0121,0.539,0.0389,0.8041c0.0427,1.2355-0.0088,2.493,0.1365,3.6917c0.1155,0.9536,0.2765,1.8941,0.4358,2.8375
	c-0.0767,0.4911-0.152,0.9824-0.2683,1.4588c-0.0803,0.3279,0.2068,0.6372,0.5408,0.562c0.0015,0.0008,0.0015,0.0024,0.0029,0.0032
	c0.4639,0.2289,0.9578,0.3978,1.4503,0.5536c0.1176,0.0371,0.2252,0.0198,0.3138-0.0307c0.0388,0.0136,0.0762,0.034,0.1152,0.0468
	c0.3639,0.1685,0.7473,0.305,1.1002,0.4158c0.2811,0.0883,0.5929,0.1846,0.9043,0.2345c0.6707,0.2148,1.3435,0.4018,2.0498,0.4991
	c0.0145,0.0035,0.0304,0.0071,0.0448,0.0106c0.0002-0.0011,0.0004-0.0022,0.0005-0.0033c0.0425,0.0056,0.0833,0.0152,0.126,0.0203
	c0.0745,0.0089,0.1384-0.0037,0.1957-0.0267c0.0262,0.0016,0.0524,0.0037,0.0785,0.0054c0.3816,0.178,0.905,0.1704,1.286,0.1694
	c0.0626-0.0002,0.1329-0.0002,0.2008-0.0003c0.5835,0.1066,1.1896,0.1172,1.825-0.0002c0.0327-0.006,0.0515-0.0261,0.0786-0.038
	c2.1317-0.0828,4.5708-1.5029,5.4154-3.4791c0.2697-0.0598,0.4891-0.2951,0.386-0.6496c-0.3143-1.0798,0.0061-2.1648-0.1022-3.2239
	c0.4839-0.7948,0.9075-1.6258,1.1975-2.5139c0.0546-0.167,0.0992-0.3386,0.1379-0.5131c0.6638-1.1672,1.0328-2.759,0.8909-3.8831
	c0.3862-0.4781,0.6243-1.0762,0.7192-1.6904c0.0352-0.2272,0.0591-0.4562,0.0839-0.6851c0.8099-0.3644,0.8131-1.9589,0.6887-2.725
	c0.1631-0.4363,0.1918-0.9537,0.2391-1.4149c0.0332-0.3226,0.0472-0.6433,0.0525-0.9634c0.0166-0.22,0.0258-0.4404,0.0331-0.6494
	C70.618,50.6215,70.5553,50.0677,70.4453,49.519z M58.2919,44.3816c-0.0273,0.0318-0.0481,0.0684-0.0615,0.1103
	c-0.0044-0.0018-0.0087-0.0036-0.0129-0.0054c-0.1084,0.2817-0.213,0.5347-0.3281,0.777c-0.0125,0.0009-0.0232-0.0037-0.0363-0.0004
	c-0.4655,0.1154-0.59,0.394-0.9934,0.6187c-0.1617,0.09-0.3313,0.1638-0.5052,0.2214c-0.0701-0.0444-0.1504-0.0759-0.2507-0.0707
	c-1.0258,0.0534-1.7909-0.4081-2.6301-0.7576c1.2389-0.48,2.4386-0.8962,3.7847-1.0463c0.3511-0.0392,0.7009-0.0412,1.05-0.0319
	C58.3026,44.2585,58.2985,44.3138,58.2919,44.3816z M64.5575,43.574c0.1512-0.0687,0.3013-0.1427,0.4492-0.2225
	c0.2238-0.0468,0.4398-0.1115,0.6266-0.2142c0.0763-0.0419,0.1366-0.0947,0.1879-0.152c0.0278,0.1292,0.0776,0.2535,0.1604,0.355
	c-0.4744,0.1277-0.936,0.2908-1.3005,0.5125C64.6409,43.7596,64.5978,43.6673,64.5575,43.574z M68.6161,44.9183
	c-1.1741,1.0884-2.5676,0.198-3.6379-0.3955c-0.0056-0.0125-0.011-0.0248-0.0165-0.0372c0.5787-0.1406,1.1439-0.3674,1.7301-0.4929
	c0.1046-0.0224,0.2024-0.0421,0.2998-0.0603c0.1403,0.0653,0.2821,0.1283,0.4202,0.199c0.3718,0.1905,0.6744,0.4945,1.1008,0.5174
	c0.0452,0.0799,0.0885,0.1625,0.1318,0.2519C68.6351,44.9081,68.6251,44.9099,68.6161,44.9183z"/>
<path class="st3" d="M65.1076,62.0796c-1.0112-0.0373-1.9331,0.3873-2.9563,0.3054c-0.8713-0.0696-1.925-0.5368-2.7578-0.1672
	c-0.0198,0.0088-0.0231,0.0366-0.0139,0.0535c0.5129,0.9525,2.2856,1.2088,3.2689,1.2765c0.972,0.0668,1.9161-0.4366,2.6194-1.0814
	C65.4188,62.3279,65.2949,62.0865,65.1076,62.0796z"/>
<path class="st3" d="M68.9559,42.0692c-0.6133,0.0549-1.1484,0.3368-1.7203,0.5572c-0.2711,0.1044-0.5743,0.2888-0.8558,0.3607
	c-0.3667,0.0937-0.7463,0.0358-1.109,0.1601c-0.9901,0.3394-1.8607,1.3958-1.9047,2.4391c-0.0062,0.1456,0.0861,0.3119,0.217,0.3785
	l0.1714,0.0872c0.0715,0.0364,0.1387,0.0229,0.1987-0.0256c0.2212-0.1785,0.3928-0.4056,0.5666-0.6326
	c0.1166,0.3452,0.2839,0.6703,0.5032,0.9141c0.1113,0.1238,0.3416,0.0282,0.3335-0.1381c-0.0222-0.4569-0.2389-0.8389-0.4529-1.2243
	c0.0212-0.0211,0.0391-0.0452,0.0613-0.0656c0.5065-0.4637,1.059-0.686,1.6655-0.9832c0.8311-0.4071,1.8116-0.9125,2.4083-1.6274
	C69.0969,42.1996,69.0667,42.0592,68.9559,42.0692z"/>
<path class="st3" d="M45.5713,66.2469c0.0299-0.1357,0.0619-0.2701,0.0883-0.4077c0.4751-2.4779,0.6362-4.9892,0.4407-7.4998
	c0.0245-0.0605,0.0208-0.1249-0.0123-0.1842c-0.0157-0.1851-0.017-0.3701-0.0369-0.5551c-0.0593-0.5514-0.9003-0.5799-0.8828,0
	c0.007,0.2309,0.0092,0.4609,0.0121,0.691c-0.1234,0.0891-0.2369,0.1896-0.3196,0.3052c-0.0696,0.0974-0.012,0.2059,0.0776,0.2582
	c-0.4534,2.3912-0.7153,4.8314-1.0342,7.244c-0.1497,1.1325-0.3151,2.2625-0.4819,3.3925c-0.5764,1.6772-1.1133,3.3262-1.0466,5.102
	c-0.0081,0.0336-0.0146,0.0599-0.0222,0.0916c-0.1843-0.1043-0.4799,0.0352-0.3827,0.2726
	c0.0334,0.0817,0.0569,0.1651,0.0844,0.2478c-0.3032-0.0855-0.6687,0.2-0.4517,0.5315c0.0505,0.0774,0.1012,0.1547,0.1519,0.2321
	c0.0723,0.1103,0.1979,0.199,0.3363,0.2014c0.001,0.0081-0.0052,0.014-0.0035,0.0223c0.1335,0.6248,0.391,1.2775,0.2969,1.9153
	c-0.0778,0.5271-0.2208,1.0212-0.1475,1.5563c0.0386,0.2816,0.4276,0.2129,0.5048,0c0.2242-0.619,0.468-1.3104,0.4363-1.9809
	c-0.0155-0.3293-0.1155-0.6321-0.2452-0.9249c0.04-0.2706,0.0244-0.5303-0.0198-0.7841c0.2375-0.0136,0.488-0.1906,0.5161-0.4639
	c0.0244-0.2367,0.0625-0.4675,0.0952-0.7006c0.4429-1.0468,0.6584-2.5068,0.7942-3.7162c0.3236-1.2023,0.6736-2.3971,0.9753-3.619
	c0.2434,0.0496,0.4902,0.0484,0.6941-0.1009c0.1023-0.0748,0.1545-0.1973,0.1238-0.3105c0.0188-0.0471,0.0205-0.1018-0.0046-0.162
	C45.9957,66.6339,45.798,66.4245,45.5713,66.2469z"/>
<path class="st3" d="M49.8351,68.8851c-0.183-0.3323-0.5228-0.3937-0.8638-0.3339c0.0095-0.2122,0.0208-0.4393,0.0317-0.6636
	c0.2444-2.8169,0.3134-5.8643-0.3132-8.6104c0.0371-0.275-0.1226-0.5887-0.4819-0.5887c-0.1536,0-0.2661,0.0592-0.3431,0.146
	c-0.3024-0.1378-0.7406,0.1254-0.6244,0.5149c0.6484,2.1722,0.8345,4.6961,0.8452,7.0482c-0.0833,0.037-0.1548,0.1008-0.1873,0.1991
	c-0.8657,2.6161-1.0898,5.4958-1.4336,8.2245c-0.0107,0.0853,0.009,0.1558,0.0413,0.2175
	c-0.1338-0.0123-0.2693,0.0308-0.3442,0.1789c-0.1699,0.3358-0.2195,0.7051-0.288,1.0719
	c-0.0494,0.2648-0.1096,0.5244-0.1152,0.7872c-0.0648,0.0099-0.1283,0.0416-0.1823,0.1091
	c-0.3397,0.4255-0.551,0.8611-0.5715,1.4106c-0.009,0.2439,0.2898,0.3318,0.4535,0.1878c0.351-0.3091,0.5551-0.6995,0.6688-1.1444
	c0.1167-0.0062,0.2336-0.0522,0.2979-0.1555c0.2064-0.3321,0.2599-0.7292,0.3064-1.1275c0.0305-0.0255,0.0615-0.0504,0.087-0.0884
	c1.205-1.7939,1.6698-3.8999,1.9398-6.0221c0.054-0.2846,0.1008-0.5706,0.1384-0.8586c0.2834,0.0204,0.5601,0.0729,0.825-0.0696
	C49.8748,69.2356,49.9153,69.0307,49.8351,68.8851z"/>
<path class="st3" d="M38.9655,69.5133c-0.0054-0.0367-0.0137-0.0773-0.0195-0.1148c0.0984,0.0035,0.1948,0.0125,0.3032-0.0137
	c0.2075-0.0502,0.2461-0.3544,0.0598-0.4569c-0.1665-0.0917-0.3174-0.1234-0.4729-0.1225c-0.516-2.4896-1.8224-6.1284-0.3345-8.1365
	c0.2593-0.3498-0.3103-0.7816-0.6011-0.4639c-0.1355,0.148-0.2493,0.3047-0.3536,0.465c-0.0043,0.002-0.009,0.0009-0.0133,0.0032
	c-0.761,0.4138-1.126,1.8714-1.2424,2.6532c-0.0817,0.5495-0.1155,1.1521-0.0647,1.7053c0.0635,0.6903,0.4297,1.2583,0.645,1.9063
	c0.1069,0.3217,0.4768,0.3022,0.6215,0.0631c0.8263,3.892,0.9108,7.9537,1.8304,11.7972c-0.1001-0.0945-0.2863-0.0646-0.3489,0.054
	c-0.256,0.485-0.0349,1.0253,0.1462,1.504c0.0623,0.1644,0.3582,0.2197,0.3918,0c0.0752-0.4899,0.1624-1.0275-0.1169-1.4538
	c0.1543,0.1843,0.5006,0.0986,0.5112-0.1807C40.0241,75.691,39.3999,72.513,38.9655,69.5133z"/>
<path class="st3" d="M55.5702,89.5829c0.0591-0.1727-0.1478-0.3159-0.2935-0.1893c-0.0139,0.0121-0.0265,0.0252-0.0403,0.0374
	c-0.0854,0.0134-0.1707,0.059-0.2388,0.1499c-0.0579,0.0772-0.1117,0.1519-0.1689,0.2288
	c-1.3512,1.3012-2.4006,2.8381-4.0531,3.8347c-0.6002,0.362-1.2906,0.8505-1.9479,1.0921
	c-1.1055,0.4064-2.1808-0.0543-3.2644-0.2529c-0.1365-0.1566-0.2655-0.3341-0.3843-0.5419
	c-0.6022-1.0538-0.7296-2.4225-0.5179-3.6628c-0.0031-0.0115-0.0052-0.0234-0.0084-0.0349
	c0.2101-0.3024,0.1702-0.6862,0.0432-1.0734c-0.124-0.3784-0.3014-0.9769-0.7155-1.1124c-0.0529-0.0173-0.108,0.0122-0.1368,0.0557
	c-0.1826,0.2766-0.0569,0.6295,0.0177,0.9281c0.0426,0.1707,0.0641,0.3421,0.0872,0.5134
	c-0.2003,0.4309-0.3802,0.8604-0.5082,1.2906c-0.011,0.0079-0.0242,0.009-0.0345,0.0178c-0.7761,0.6589-1.2478,1.2385-2.3563,1.2315
	c-0.9487-0.006-2.0477-0.2779-2.6418-1.0593c-1.024-1.3472-1.1108-3.3008-1.4338-4.9369c0.0613-1.1971,0.1331-2.4156,0.166-3.6713
	c0.0652-2.4791-0.077-4.9607-0.4063-7.4183c-0.3624-2.7062-1.1584-5.0063-0.4971-7.7419c0.0587-0.2429-0.2755-0.3925-0.407-0.1716
	c-1.116,1.876-0.6743,4.1451-0.4056,6.2137c0.3197,2.4625,0.5687,4.8809,0.6251,7.3278c-1.1409,3.0437-1.2837,7.178-0.5962,10.6365
	c-0.0024,0.7325,0.0244,1.4673,0.1069,2.2072c0.0925,0.8295,0.2251,1.7629,0.5183,2.6073
	c-0.1902-0.0265-0.3931,0.0291-0.5754,0.2355c-0.0165,0.0187-0.0282,0.0362-0.0443,0.0547
	c-0.0618,0.0274-0.1235,0.0568-0.1808,0.1046c-0.9517,0.793-1.363,1.5076-1.4365,2.7431c-0.1073,1.8024,1.0403,2.8986,1.2207,4.6263
	c0.0659,0.6321,0.7301,0.9301,1.2256,0.5078c0.0317-0.027,0.0615-0.0555,0.0923-0.0832c0.385,0.729,1.2646,1.2565,1.9928,1.5427
	c1.1783,0.4631,2.6204,0.1031,3.2441-1.0137c0.0923-0.1653,0.0199-0.3825-0.1202-0.5032c0.0551-0.0399,0.116-0.071,0.1641-0.121
	c0.0117-0.0122,0.0175-0.0298,0.0277-0.0435c0.0585-0.0451,0.1212-0.0857,0.1749-0.1354c0.3254-0.3013,0.0756-0.8932-0.3646-0.8802
	c-0.1761,0.0052-0.4017,0.0534-0.6428,0.1131c-0.4961-0.069-1.0333-0.0209-1.5179-0.2742c-0.33-0.1724-0.5997-0.4111-0.8369-0.6812
	c0.8403-0.8368,1.6677-1.6862,2.5166-2.5264c0.4664-0.4615,0.9993-0.8763,1.5276-1.2971c0.4368,0.2226,0.6799,0.2645,1.182,0.256
	c1.4884-0.0251,2.8517-0.3124,4.0988-0.8019c0.0996,0.0169,0.1965,0.0288,0.2841,0.0309c0.9344,0.0228,1.2941-0.6353,1.9442-1.1804
	c0.0088-0.0075,0.0078-0.0189,0.0154-0.0272c2.3887-1.6018,4.22-4.0388,5.5154-6.8107
	C55.6469,89.7906,55.6277,89.6724,55.5702,89.5829z"/>
<path class="st3" d="M56.6852,82.7361c-0.0302-0.0889-0.0955-0.1297-0.1846-0.1406c-0.8984-0.1089-1.2253,1.4105-1.6196,1.9354
	c-0.5105,0.6793-1.9033,1.0811-2.2563,1.8988c-0.0747-0.0697-0.1792-0.0886-0.2844-0.0764
	c0.0134-0.0773,0.0028-0.1599-0.0601-0.2423c-1.8514-2.4285-2.1249-5.0538-2.1914-8.0565
	c-0.0032-0.1429-0.2373-0.1889-0.2607-0.0353c-0.3438,2.2526-0.7856,5.8717,0.905,7.8128c0.0193,0.3722,0.3325,0.6174,0.3918,0.9806
	c0.0503,0.3069-0.3173,0.6916-0.3748,1.0352c-0.0339,0.2022,0.1079,0.4127,0.3185,0.4059c0.0289,0.174,0.2522,0.2464,0.4,0.1302
	c0.3074-0.2415,0.5376-0.5587,0.7603-0.8773c0.1592-0.2278,0.3777-0.4516,0.4966-0.7057c0.4803,0.0476,0.8772-0.2867,1.2787-0.5447
	c0.467-0.3,0.9974-0.5685,1.4091-0.9422c0.4119-0.3738,0.5413-0.8613,0.7908-1.3375
	C56.4129,83.5777,56.8453,83.2089,56.6852,82.7361z"/>
<path class="st4" d="M92.3672,96.2998l-3.5699,2.0601l-1.5601,0.9l-2.97,1.71l-1.11,0.65l-0.38,0.22l-5.1799,2.98l-0.9001,0.52
	l-4.7799,2.76l-0.4401,0.26h-0.01l-3.1599,1.8199l-0.67,0.39l-8.4401,4.87l-2.58,1.48l-0.3099,0.18l-0.3801,0.22l-0.23-0.13
	l-1.0299-0.6l-1.29-0.74c0.02-0.06,0.04-0.12,0.0599-0.18c-0.0299,0-0.0499,0.0099-0.0798,0.0099
	c-0.03,0.04-0.0601,0.07-0.0801,0.11l-3.0901-1.78l-0.6399-0.37l-5.92-3.42l-3.35-1.93c0.0701-0.16,0.13-0.31,0.2-0.47l0.01-0.01
	c0.0901-0.24,0.1899-0.47,0.3-0.71v-0.01c0.0601-0.15,0.13-0.3,0.1899-0.45c0.01-0.02,0.02-0.05,0.03-0.07
	c0.1001-0.23,0.2-0.47,0.3-0.7v-0.0099c0.1899-0.44,0.3699-0.89,0.5599-1.33c0-0.28,0.04-0.57,0.13-0.83
	c0.01-0.02,0.02-0.04,0.02-0.07c0.03-0.1,0.05-0.21,0.0801-0.31c0-0.1,0.01-0.2,0.0599-0.3c0.0299-0.07,0.0699-0.15,0.1-0.23
	c0.04-0.11,0.0901-0.21,0.13-0.32c0-0.01,0.01-0.02,0.01-0.02c0.1-0.22,0.2101-0.44,0.34-0.66c0.0701-0.13,0.17-0.21,0.27-0.27
	c0.3401-0.53,0.74-1.02,1.22-1.37c0.05-0.03,0.1001-0.07,0.15-0.09c0.14-0.09,0.2999-0.14,0.4501-0.18
	c0.22-0.27,0.45-0.54,0.6799-0.8c0.03-0.04,0.0601-0.08,0.0901-0.11c0.1299-0.15,0.26-0.3,0.3899-0.45c0.24-0.29,0.72-0.25,0.97,0
	c0.02,0.02,0.0601,0.04,0.1101,0.04c0.1099,0.02,0.3099,0,0.52-0.02c0.01-0.01,0.02-0.02,0.0399-0.03c0.65-0.31,1.29-0.57,1.99-0.79
	c0.0699-0.02,0.13-0.03,0.2001-0.03c0.5499-0.72,1.1-1.45,1.6599-2.17c0.1801-0.25,0.45-0.31,0.7-0.28
	c0.6501-1.03,1.3401-2.04,2.0601-3.04c0.65-0.98,1.3101-1.95,2-2.9c0.1001-0.1299,0.22-0.21,0.3401-0.27
	c0.72-1.51,1.5-2.99,2.2899-4.47c0.61-1.15,1.12-3.06,2.5-3.45c0.11-0.1801,0.2301-0.34,0.35-0.52
	c0.05-0.09,0.1201-0.16,0.2001-0.22c-0.04-0.19,0.0199-0.4,0.21-0.57c0.63-0.54,1.03-1.2599,1.64-1.81c0.77-0.7,1.76-1.08,2.55-1.77
	c1.8599-1.61,2.73-3.92,2.71-6.34c-0.01-0.92,1.4299-0.92,1.4399,0c0,0,0,0,0,0.01c2.92,0.87,5.91,1.55,8.55,3.09
	c2.36,1.37,5.13,2.11,7.27,3.83c3.73,2.99,5.23,8.79,4.79,13.58c0.1399,0.1,0.26,0.25,0.2999,0.48c0.04,0.25,0.08,0.4901,0.12,0.73
	c0.3401,0.06,0.63,0.31,0.63,0.79c0,0.63,0.01,1.26,0.04,1.88c0.0399,0.65,0.1,1.31,0.1901,1.97
	C92.3573,96.2598,92.3573,96.2798,92.3672,96.2998z"/>
<path class="st4" d="M34.8173,85.4698c-0.1101,1.23-0.1401,2.44,0.04,3.71v0.01c0,0.07,0.0099,0.13,0.0199,0.2
	c0.1801,1.2,0.42,2.31,0.4,3.54c0,0.27-0.11,0.47-0.27,0.6c0.13,0.57,0.25,1.14,0.3301,1.71c0.01,0.06,0.01,0.1201,0.01,0.1801
	v0.0099c-0.02,0.45-0.29,0.95-0.8201,0.88c-0.29,0.09-0.53,0.21-0.76,0.35c-0.14,0.21-0.29,0.41-0.4299,0.61
	c-0.01,0-0.01,0-0.01,0.02c-0.05,0.07-0.1001,0.15-0.1501,0.21c0,0.01-0.0099,0.02-0.0099,0.03c-0.05,0.06-0.09,0.12-0.13,0.18
	c-0.21,0.3-0.38,0.58-0.46,0.83c-0.1201,0.37-0.41,0.54-0.7001,0.58h-0.01c-0.0399,0.01-0.08,0.01-0.12,0.01
	c-0.3899,0.48-0.8,0.94-1.23,1.38c-0.21,0.24-0.4399,0.47-0.6699,0.7c-0.1702,0.25-0.3401,0.51-0.49,0.78l-1.6802-0.97l-0.22-0.12
	l-0.72-0.42l-0.73-0.42c0-0.15,0.01-0.3,0.02-0.45c-0.03-0.02-0.05-0.05-0.0801-0.0601c-0.0299,0.08-0.0699,0.15-0.1099,0.2401
	c-0.02,0.05-0.05,0.09-0.0701,0.13l-2.4-1.39l-1.7599-1.01l-3.28-1.9l-0.2001-0.12c0.09-0.41,0.17-0.82,0.26-1.23
	c0.0599-0.28,0.23-0.44,0.4301-0.51c0.02-0.02,0.04-0.03,0.0599-0.03c0.01,0,0.02-0.01,0.03-0.01c0.1-2.09,0.22-4.19,0.3199-6.28
	v-0.01c0.01-0.11,0.01-0.21,0.02-0.3199c0.03-0.45,0.3-0.7,0.6101-0.77c0.0798-0.02,0.1599-0.02,0.24-0.02c0-0.09,0-0.18,0.01-0.26
	c0-0.01,0-0.01,0-0.01c0.0399-0.7,0.21-1.34,0.5698-1.8199c0.0701-0.09,0.1401-0.17,0.2201-0.25c0-0.15,0-0.29,0.02-0.4
	c0.17-1.39,0.5099-2.66,1.39-3.53c0.35-0.36,0.78-0.65,1.3199-0.87c0.04-0.02,0.08-0.0099,0.12-0.02c0.42-0.49,0.96-0.92,1.53-1.27
	c0.21-0.14,0.4299-0.26,0.64-0.37c1.2599-0.67,2.42-1.57,3.71-2.17c0.2999-0.14,0.59-0.27,0.91-0.38c0.01,0,0.01-0.01,0.01-0.01
	c0.2-0.07,0.4099-0.15,0.62-0.21c0-0.01,0.0099-0.02,0.0199-0.01c0.1702-0.06,0.3401-0.12,0.51-0.17c0,0,0.01-0.01,0.01,0
	c0.0801-0.03,0.1501-0.06,0.23-0.08c0.4801-0.17,0.9501-0.3199,1.4202-0.5099c0.1599-0.06,0.3198-0.12,0.48-0.19
	c0.5299-0.2401,1.2999,0.02,1.26,0.72c-0.0801,1.28-0.03,2.53,0.0299,3.78c0,0.07,0.01,0.14,0.01,0.21
	c0.16,0.41,0.27,0.84,0.36,1.27c0.0801,0.4,0.14,0.8,0.2,1.2c0.04,0.1,0.0701,0.2,0.0601,0.35c-0.02,0.18-0.11,0.33-0.25,0.43
	c-0.1,0.08-0.21,0.13-0.3301,0.15c-0.0199,0.52-0.0499,1.04-0.1199,1.56c-0.0701,0.51-0.14,1.02-0.1901,1.52v0.04
	c-0.0199,0.14-0.0299,0.3-0.0499,0.44C34.8173,85.4598,34.8173,85.4598,34.8173,85.4698z"/>
<path class="st4" d="M57.7619,80.1595c-0.3494-0.5419-0.6943-0.5035-1.286-0.4649c-0.1129,0.0073-0.2311,0.0144-0.349,0.0209
	c-0.0717-0.0849-0.1604-0.1636-0.2899-0.2421c-0.0431-0.0261-0.0851-0.0374-0.1268-0.0435
	c-0.0669-0.1367-0.1951-0.2488-0.3976-0.2987c-0.5895-0.1453-1.0602-0.3783-1.5504-0.7358
	c-0.1726-0.1259-0.3928-0.0995-0.5736,0.0032c-0.3846-0.1807-0.7694-0.3691-1.1742-0.5537
	c-0.3428-0.1563-0.7322-0.3247-1.1213-0.3768c-0.1138-0.4025-0.6914-0.2809-0.7192,0.1129
	c-0.0022,0.0309-0.0049,0.0469-0.0073,0.0743c-0.1134,0.1689-0.1287,0.4094-0.0452,0.5896c0.0056,0.0122,0.0112,0.0245,0.017,0.0367
	c0.0033,0.0072,0.0116,0.0126,0.0155,0.0197c0.0127,0.0557,0.0259,0.1112,0.0525,0.1888c0.0094,0.0276,0.026,0.052,0.0466,0.0718
	c0.0244,0.2421,0.0457,0.4852,0.0699,0.7276c-0.0015-0.0001-0.0007-0.0024-0.0023-0.0024c-0.0642,0-0.0645,0.1,0,0.1
	c0.0073,0,0.0052-0.009,0.0109-0.0112c0.012,0.1226,0.0262,0.2444,0.0363,0.3674c0.0403,0.4921-0.0343,0.996,0.1074,1.4496
	c-0.0325,0.0672-0.0538,0.1418-0.0562,0.2256c-0.0284,1.0127,0.3389,2.5535,1.1714,3.2194
	c0.0099,0.0079,0.0203,0.0094,0.0303,0.0167c0.0444,0.0599,0.0742,0.1304,0.1155,0.1924c0.0691,0.1415,0.15,0.2773,0.2234,0.4167
	c0.0901,0.2549,0.1404,0.4528,0.376,0.6531c0.3975,0.3379,0.9119,0.0409,0.9077-0.3965c0.333-0.6686,0.6843-1.1259,1.3336-1.6378
	c0.1866-0.1472,0.3275-0.2393,0.5052-0.4122c0.8881-0.8637,1.6536-1.8257,2.5952-2.6541
	C57.8495,80.6647,57.8854,80.3511,57.7619,80.1595z"/>
<path class="st5" d="M70.7004,37.76c0.0895-0.3409,0.0255-0.7048-0.1489-1.0281c-0.4669-2.6818-1.528-5.6096-3.0692-7.7076
	c-0.9133-1.2432-2.066-1.9902-3.3364-2.5597c-0.0598-0.1154-0.146-0.2241-0.297-0.3058c-1.1461-0.6207-2.5165-1.3588-3.8278-1.3178
	c-2.5605-1.4252-6.4998-0.2947-9.0125,0.5477c-1.2666,0.4247-2.72,1.1269-3.803,2.1172c-0.1267-0.0837-0.2744-0.1404-0.4257-0.1478
	c-0.2455,0.2115-0.4869,0.4255-0.7627,0.5966c-0.3282,0.5596-0.647,1.1093-0.954,1.6548c-0.0105,0.0062-0.0215,0.0071-0.0319,0.0145
	c-0.4545,0.3231-0.799,0.8165-1.1212,1.2672c-0.2124,0.2969-0.4127,0.636-0.3442,0.9828c-0.5347,0.7362-0.9646,1.7995-0.9312,2.7258
	c-0.0994,0.3062-0.1948,0.614-0.287,0.9226c-0.1755,0.5259-0.3424,1.062-0.4893,1.6235c-0.0615,0.2351,0.0255,0.4166,0.1683,0.5302
	c-0.2275,1.4761-0.2023,2.9274,0.2852,4.1949c0.0011,0.0287-0.0114,0.0517-0.0073,0.0815c0.0625,0.5182,0.1436,1.0338,0.2322,1.5481
	c-0.0173,0.7159,0.1494,1.3552,0.5305,1.8684c-0.0039,0.3597,0.0508,0.6902,0.2366,0.9252
	c0.2439,0.3087,0.6158,0.4311,1.0162,0.5223c0.1075,0.0703,0.2152,0.1407,0.3228,0.211c1.51,1.1144,2.3501,2.6228,2.65,4.5678
	c0.0847,0.5496,1.0548,0.4254,0.9799-0.1326c-0.2689-2.0021-0.9467-3.532-0.4174-5.6516c0.3738-1.4965,0.9313-4.1196,2.0831-5.1385
	c0.2726-0.2411,0.2037-0.6393,0-0.8893c-0.1349-0.8015-0.2699-1.6031-0.4048-2.4046c0.1093-0.073,0.1744-0.165,0.2218-0.2621
	c0.0919-0.0776,0.2019-0.1216,0.3198-0.1467c0.1013,0.012,0.2026,0.0256,0.2996,0.0256c0.0559,0,0.0981-0.0212,0.1479-0.0307
	c0.3328,0.0511,0.6729,0.1964,0.9054,0.3327c0.1674,0.0981,0.3302,0.0821,0.4567,0.0043c1.0575,0.5444,2.1283,0.6647,3.5645,0.989
	c1.384,0.3126,2.8293,0.4208,4.2771,0.4199c0.0725,0.0179,0.1453,0.0347,0.2178,0.0528c0.1716,0.0423,0.3174,0.0112,0.4297-0.0623
	c1.1307-0.0251,2.2568-0.107,3.3519-0.2073c0.1278,0.1369,0.317,0.2095,0.5494,0.1309c1.0786-0.3652,2.1554-0.7347,3.2297-1.1121
	c0.7424-0.2607,1.4229-0.7238,2.1771,0.0323c0.1194,0.1196,0.2449,0.5887,0.3475,0.7444c0.0542,0.0823,0.145,0.0985,0.2323,0.0783
	c0.1904,0.12,0.5105,0.0083,0.485-0.2507C70.7357,38.0005,70.7145,37.8781,70.7004,37.76z"/>
<path class="st6" d="M68.244,30.5621c-0.29-0.4232-0.6255-0.7895-0.9794-1.1312c0.056-0.0869,0.0822-0.1989,0.0358-0.2969
	c-1.2161-2.5669-5.2449-4.2659-7.8466-4.9188c-3.2112-0.8059-6.9977,0.249-9.9542,1.5715
	c-3.0707,1.3737-5.2808,4.0158-6.5527,7.0876c-1.1953,2.8871-2.3647,7.5873-1.4534,10.6583c0.1167,0.3933,0.6086,0.3386,0.7457,0
	c0.0375-0.0926,0.0603-0.1907,0.0941-0.2846c0.1093,0.9789,0.3352,1.9333,0.738,2.8285c0.0601,0.1334,0.2012,0.1669,0.3279,0.1354
	c0.4473,0.4335,1.2161,0.8783,1.5046,1.1541c1.0707,1.0236,1.6306,2.4289,2.1339,3.7842c0.2698,0.6506,1.3414,0.3826,1.0795-0.2976
	c-0.7898-2.0334-0.6587-4.1665-0.2585-6.2808c0.2788-1.4729,1.2015-2.3271,1.7781-3.5923c0.4891-1.073-0.0579-1.7669-0.3937-2.6365
	c0.0316-0.0754,0.0524-0.1597,0.0568-0.2543c0.264-0.2089,0.5281-0.4176,0.792-0.6265c0.075-0.0049,0.1504-0.0082,0.2247-0.0146
	c0.538-0.0467,0.809-0.6913,0.5486-1.0635c0,0-0.0001-0.0007,0.0001-0.0011c0.1296,0.0352,0.2695,0.0264,0.4004-0.0182
	c0.8396,1.1668,1.9751,2.1161,3.119,2.1556c0.4562,0.0157,0.7738-0.5349,0.5287-0.9213c-0.6505-1.0255-2.3433-2.3535-3.5112-3.7222
	c-0.1616-0.5297-0.2141-1.0894-0.0973-1.7009c0.292-1.5286,1.3285-2.4493,2.3435-3.4437
	c4.8944-1.0869,10.3199-1.2001,14.0311,2.2654C67.965,31.264,68.4843,30.9127,68.244,30.5621z"/>
<path class="st7" d="M69.6025,34.2561c-0.0031-0.0156-0.0078-0.0286-0.0109-0.044c0.0984-0.3868-0.0522-0.8525-0.1519-1.2213
	c-0.0525-0.1944-0.2401-0.2476-0.3982-0.2049c-0.256-0.16-0.6492-0.0707-0.6423,0.3108c-0.0715,0.1869-0.1431,0.3738-0.2145,0.5607
	c-0.1285,0.0213-0.2528,0.0825-0.324,0.1908c-0.0037,0.0056-0.0074,0.0112-0.0109,0.0167c-0.0984,0.0049-0.1929,0.0356-0.2845,0.111
	c-0.1632,0.1342-0.3009,0.2477-0.2501,0.3237c-0.1216-0.1824-0.3591-0.2546-0.5621-0.1535
	c-0.0688-0.0623-0.1385-0.1237-0.2067-0.1866c-0.2124-0.1938-0.5896-0.1738-0.7371,0.0922
	c-0.0142,0.0258-0.0236,0.0444-0.0364,0.0678c-0.0244-0.03-0.0588-0.0507-0.082-0.0818c-0.1123-0.1295-0.3912-0.174-0.5354-0.067
	c0.0005-0.0003-0.5317,0.5634-0.3765,0.5201c-0.1006,0.028-0.4775-0.2083-0.656-0.1835c-0.2698,0.0375-0.4424,0.1838-0.5608,0.37
	c-0.0013-0.0008-0.0024-0.0016-0.0034-0.0024c-0.2839-0.2969-0.762-0.0649-0.7991,0.3003
	c-0.2476-0.0545-0.5668,0.0824-0.5291,0.3706c0.0198,0.0929,0.0197,0.1861,0.0281,0.2791
	c-0.0188-0.0172-0.0375-0.0344-0.0562-0.0516c-0.116-0.1367-0.2878-0.1269-0.4231-0.0496
	c-0.2218-0.2069-0.4526-0.4056-0.6943-0.6238c-0.2432-0.2192-0.6106-0.0698-0.6533,0.2347
	c-0.0114-0.011-0.0223-0.0222-0.0339-0.0331c-0.0325-0.0948-0.0649-0.1895-0.0977-0.2843
	c-0.1934-0.3314-0.6836-0.2341-0.7986,0.1013c-0.0007,0.0023-0.0017,0.0045-0.0024,0.0067
	c-0.1079-0.0814-0.2162-0.1628-0.3241-0.2443c-0.2103-0.1584-0.5787-0.1401-0.6461,0.1655
	c-0.0043,0.0194-0.0085,0.0388-0.0128,0.0582c-0.0947-0.07-0.1959-0.1424-0.3325-0.2372c-0.1823-0.1265-0.4749,0.0021-0.5212,0.2057
	c0.0414-0.1816-0.5698-0.6216-0.7115-0.7247c-0.1854-0.1348-0.5088,0.003-0.55,0.2171c-0.2773-0.0802-0.5059-0.2427-0.6855-0.4875
	c-0.224-0.1808-0.5817-0.1296-0.6663,0.1707c-0.3328,1.1823-1.1595,0.0995-1.8983-0.091c-0.1278-0.033-0.2532,0.0093-0.3433,0.0897
	c-0.1957-0.0625-0.3636,0.0568-0.3989,0.2318c-0.0027,0.0015-0.0087-0.0044-0.0111-0.0023c0.022-0.0195,0.0225-0.0516,0.01-0.0757
	c-0.027-0.0522-0.0542-0.1044-0.0812-0.1566c-0.1549-0.2983-0.6102-0.0616-0.5072,0.229c-0.0571-0.024-0.1165-0.0544-0.1709-0.0711
	c-0.1064-0.0326-0.2179,0.0052-0.2961,0.0762c-0.0518-0.045-0.1061-0.0872-0.1577-0.1329
	c-0.1436-0.1269-0.3374-0.1106-0.4722-0.0137c-0.1094,0.015-0.1937,0.0848-0.1862,0.1948c-0.2335-0.129-0.4796-0.2327-0.7018-0.2177
	c-0.27,0.0181-0.3616,0.1196-0.4635,0.2505c0.2606,0.2416,0.516,0.4871,0.7682,0.736c0.5608,0.1659,0.9447,0.2938,1.396,0.6689
	c0.0483,0.0401,0.0844,0.0859,0.1125,0.1343c0.2205,0.1456,0.4814-0.0752,0.3691-0.3176c-0.0044-0.0095-0.0103-0.0191-0.0154-0.0286
	c0.0007-0.0002,0.0011-0.0007,0.0018-0.0009c0.1757,0.2072,0.4073,0.3754,0.7526,0.5588c0.1809,0.096,0.4841,0.0229,0.5212-0.2057
	c0.0619-0.3812,0.0933-0.5673,0.1119-0.7346c0.0338,0.0215,0.0652,0.045,0.0992,0.0666c0.1101,0.0704,0.2151,0.0649,0.3025,0.0228
	c0.3635,0.3506,0.7379,0.6811,1.26,0.5045c0.186-0.0629,0.3108-0.178,0.4055-0.3177c0.1416,0.2554,0.3925,0.4938,0.5581,0.6504
	c0.1807,0.1706,0.4839,0.1277,0.6278-0.0465c0.348,0.2504,0.7051,0.495,1.1007,0.6095c0.2473,0.0717,0.426-0.1974,0.3182-0.4017
	c-0.1219-0.2313-0.317-0.4251-0.5314-0.6046c0.1602,0.0374,0.3558,0.0142,0.6228-0.1065c0.001-0.0004,0.0012-0.0016,0.0021-0.002
	c0.1106,0.0947,0.2321,0.1769,0.3344,0.2811c0.0522,0.0485,0.116,0.0771,0.1824,0.0912c0.3239,0.2762,0.6892,0.554,1.0676,0.6046
	c0.2599,0.0348,0.5237-0.2021,0.3639-0.459c-0.0337-0.054-0.0861-0.0956-0.1285-0.1439c0.0527-0.043,0.0979-0.0988,0.1301-0.1661
	c0.0488,0.0253,0.0989,0.0302,0.1489,0.0499c0.0951,0.1765,0.2129,0.3419,0.3662,0.5359c0.1453,0.1843,0.4026,0.2565,0.5925,0.0741
	c0.0566-0.0544,0.1641-0.0659,0.2944-0.0575c0.1361,0.1024,0.2744,0.2028,0.4434,0.2975c0.1135,0.0636,0.2161,0.0584,0.2994,0.0189
	c0.0265,0.0211,0.0397,0.0324,0.0709,0.0574c0.1899,0.1514,0.5002,0.1305,0.618-0.0892c0.0287,0.0005,0.0629,0.0049,0.0865,0.0016
	c0.4305-0.0602,0.6963-0.1678,0.9253-0.4204c0.1482,0.0906,0.2997,0.1761,0.4391,0.2798c0.2155,0.1484,0.5101-0.0108,0.5787-0.2285
	c-0.1052,0.3336,0.5594-0.0746,0.5846-0.084c0.116-0.0436,0.1525-0.2482,0.244-0.2786c0.2466-0.0821,0.118,0.0681,0.3491,0.0405
	c0.4839-0.0578,0.7856-0.0508,0.9915-0.2938c0.6565,0.3201,1.0135-0.2611,1.2913-0.9509c0.0922-0.0092,0.1799-0.036,0.2407-0.1075
	c0.0339-0.04,0.0568-0.0779,0.0874-0.1171c0,0.0005,0.0002,0.001,0.0002,0.0015C68.8403,35.0214,69.8071,34.7759,69.6025,34.2561z"
	/>
<path class="st7" d="M48.9408,41.8274c-0.0151,0.0204-0.0303,0.0408-0.0453,0.0613c-0.0297,0.0401,0.0294,0.0991,0.0695,0.0695
	c0.0205-0.0151,0.0409-0.0302,0.0613-0.0452C49.1076,41.853,49.0011,41.7456,48.9408,41.8274z"/>
<path class="st8" d="M62.4706,35.3497c-0.0874-0.0706-0.2522,0.024-0.1718,0.1326c0.1244,0.1678,0.2218,0.35,0.3463,0.5172
	c0.0854,0.1149,0.3231,0.0524,0.257-0.1084C62.8051,35.655,62.6752,35.5148,62.4706,35.3497z"/>
<path class="st8" d="M63.351,35.0294c-0.1575-0.0717-0.3658,0.0837-0.2566,0.2565c0.1772,0.2802,0.3691,0.6096,0.6829,0.7444
	c0.1163,0.05,0.2764-0.0051,0.2703-0.1552C64.0311,35.4678,63.705,35.1905,63.351,35.0294z"/>
<path class="st8" d="M64.7731,34.8274c-0.1326-0.1843-0.4063-0.074-0.364,0.1536c0.0537,0.2907,0.1638,0.5181,0.4247,0.6605
	c0.1437,0.0784,0.3514-0.0532,0.2926-0.225C65.0487,35.1891,64.9143,35.0237,64.7731,34.8274z"/>
<path class="st8" d="M66.1069,35.2272c-0.0729-0.1802-0.0992-0.224-0.2239-0.3755c-0.1266-0.1538-0.3851,0.047-0.276,0.213
	c0.1152,0.1755,0.1023,0.1665,0.2649,0.2993C65.9667,35.4414,66.1657,35.3724,66.1069,35.2272z"/>
<path class="st8" d="M67.0003,34.6405c-0.1154-0.09-0.1696-0.1191-0.3147-0.1306c-0.1221-0.0096-0.2074,0.1473-0.1417,0.2469
	c0.0908,0.1375,0.1458,0.2269,0.3062,0.2772c0.0792,0.0248,0.1652-0.0294,0.1874-0.1064c0.0067-0.0234,0.0135-0.0468,0.0203-0.0701
	C67.0775,34.7885,67.0602,34.6874,67.0003,34.6405z"/>
<path class="st8" d="M67.922,34.0431c-0.1201-0.1982-0.394-0.0612-0.3569,0.1505c0.0569,0.3257,0.115,0.681,0.4152,0.8562
	c0.0797,0.0466,0.173,0.0012,0.2008-0.0817C68.2916,34.6394,68.0919,34.3238,67.922,34.0431z"/>
<path class="st8" d="M68.9227,33.5629c-0.1283-0.215-0.5245-0.0713-0.4211,0.1776c0.0686,0.1653,0.0883,0.3019,0.198,0.4447
	c0.0969,0.1263,0.2699,0.1095,0.3284-0.0429C69.1167,33.9111,69.0479,33.7725,68.9227,33.5629z"/>
<path class="st8" d="M61.6439,35.7109c-0.092-0.2426-0.2485-0.3733-0.432-0.5604c-0.1924-0.1962-0.4738,0.0949-0.2983,0.2983
	c0.155,0.1797,0.269,0.3492,0.4838,0.4518C61.515,35.9569,61.7008,35.8606,61.6439,35.7109z"/>
<path class="st8" d="M59.7118,35.4881c-0.1296-0.1791-0.269-0.2981-0.4709-0.3953c-0.2256-0.1085-0.424,0.2283-0.1973,0.3373
	c0.1637,0.0787,0.3267,0.1592,0.4919,0.2343C59.6388,35.7114,59.796,35.6043,59.7118,35.4881z"/>
<path class="st8" d="M57.2622,34.8676c-0.033,0.0126-0.0204,0.0587,0.0145,0.0527c0.0049-0.0009,0.1913,0.4019,0.2097,0.4261
	c0.046,0.0611,0.1792,0.0544,0.1674-0.0453C57.6259,35.0666,57.5477,34.7579,57.2622,34.8676z"/>
<path class="st8" d="M56.52,35.295c-0.1573-0.2574-0.3312-0.3965-0.5729-0.5787c-0.0718-0.0541-0.1724,0.0515-0.1229,0.1229
	c0.1707,0.2468,0.306,0.4269,0.5569,0.5947C56.4667,35.4912,56.5715,35.3792,56.52,35.295z"/>
<path class="st8" d="M54.4147,34.5726c-0.1459-0.1481-0.3623,0.0732-0.2264,0.2265c0.113,0.1275,0.2106,0.2623,0.3236,0.3892
	c0.0891,0.1002,0.2891-0.0056,0.235-0.1368C54.663,34.8485,54.5731,34.7333,54.4147,34.5726z"/>
<path class="st8" d="M52.7672,34.3867c-0.1238-0.0498-0.251,0.075-0.2522,0.1921c-0.0005,0.05,0.012,0.0873,0.0388,0.129
	c0.0146,0.0227,0.0397,0.0162,0.0594,0.0281c-0.0052,0.0021-0.0106,0.0043-0.0157,0.0065c0.1152,0.0599,0.3123,0.4731,0.4607,0.6106
	c0.1105,0.1022,0.2549-0.0025,0.2351-0.1368C53.246,34.896,53.0849,34.5145,52.7672,34.3867z"/>
<path class="st8" d="M52.1273,35.1969c-0.1853-0.381-0.4648-0.7-0.7244-1.0317c-0.1008-0.1287-0.3179,0.0393-0.2271,0.1752
	c0.2338,0.35,0.4509,0.7134,0.755,1.008C52.0364,35.4505,52.1881,35.3221,52.1273,35.1969z"/>
<path class="st8" d="M50.8099,34.8372c-0.0752-0.1177-0.2478,0.0103-0.1534,0.1183c0.0907,0.1038,0.1814,0.2075,0.2721,0.3112
	c0.0496,0.0567,0.1448-0.0171,0.1042-0.0804C50.9586,35.0699,50.8842,34.9535,50.8099,34.8372z"/>
<path class="st8" d="M50.2559,34.9028c-0.1443-0.3174-0.389-0.5419-0.6388-0.7813c-0.1029-0.0986-0.2832,0.0291-0.2024,0.1563
	c0.1926,0.3032,0.3704,0.5891,0.6648,0.8015C50.1956,35.1629,50.3029,35.0063,50.2559,34.9028z"/>
<path class="st8" d="M58.1625,34.917c-0.1392-0.1373-0.3496,0.0359-0.2639,0.2036c0.1541,0.3009,0.3137,0.5153,0.5786,0.7189
	c0.0938,0.072,0.2396-0.0478,0.2009-0.1544C58.5646,35.3722,58.4015,35.1528,58.1625,34.917z"/>
<path class="st8" d="M60.4303,35.5182c-0.1191-0.2167-0.2875-0.3327-0.532-0.3538c-0.0757-0.0065-0.1372,0.0963-0.0911,0.1587
	c0.1074,0.1458,0.2354,0.2722,0.3777,0.3845C60.318,35.8124,60.5216,35.6842,60.4303,35.5182z"/>
<path class="st8" d="M61.8666,35.4638c-0.0613-0.0732-0.1975,0.0051-0.1632,0.095c0.0724,0.1896,0.1414,0.3297,0.2775,0.4804
	c0.0669,0.0741,0.2021-0.0034,0.1697-0.0988C62.0856,35.7489,61.9955,35.6178,61.8666,35.4638z"/>
<path class="st9" d="M66.0037,27.8077c-1.9127-1.4282-3.1249-2.2935-5.3478-2.9385c-0.1351-0.0392-0.2755-0.0564-0.4119-0.0911
	c0.0229,0.001,0.0471,0.0012,0.0701,0.0023c0.0815,0.0039,0.0922-0.1149,0.0187-0.1381c-1.6913-0.5337-3.9342-0.4885-6.0382-0.1165
	c-0.1047,0.0152-0.2109,0.0192-0.3153,0.0361c-2.2377,0.3641-4.6058,1.3649-6.5895,2.783c-1.9312,1.2875-3.438,3.0557-4.3,4.9886
	c-0.084,0.1885-0.1182,0.2321,0.0039,0.0639c0.6855-0.944,1.4667-1.8464,2.3165-2.6849c2.9192-2.1223,5.6481-3.9559,9.4269-4.4496
	c2.0941-0.2736,3.9991-0.2609,6.041,0.2297c1.9365,0.4653,3.3401,1.4595,5.0034,2.524
	C66.0156,28.1026,66.1254,27.8985,66.0037,27.8077z"/>
<path d="M67.7716,67.8109c-0.2723-0.4099-0.7803-0.29-0.9702,0.0281c-0.1379,0.1427-0.2046,0.3433-0.1345,0.5486
	c-0.0476,0.1021-0.0582,0.2269-0.012,0.3696c0.0647,0.2004,0.1296,0.4007,0.1945,0.6011c-0.0424,0.1058-0.0497,0.2226-0.0156,0.3433
	c-0.0178,0.0207-0.0382,0.0351-0.0546,0.0589c-1.8108,2.6247-3.7152,4.0947-7.0275,4.0604
	c-2.4742-0.0256-5.2626-0.3932-7.4048-1.6848c-0.2604-0.157-0.5009-0.1074-0.6713,0.0364
	c-0.1226-0.0916-0.2471-0.1699-0.3687-0.2723c-0.3584-0.3021-0.8514-0.0139-0.7672,0.4467c0.278,1.5189,0.108,2.8066-0.0854,4.3052
	c-0.0304,0.2361,0.1935,0.4743,0.4058,0.5329c1.9335,0.5339,3.4003,2.0692,5.3219,2.5469c0.5496,0.1367,1.1266,0.0898,1.7117-0.028
	c-0.0143,0.0887-0.002,0.1803,0.0516,0.265c0.0038,0.006,0.0077,0.012,0.0114,0.0181c0.2045,0.3228,0.7158,0.2748,0.821-0.1073
	c0.0427-0.155-0.0063-0.2744-0.0846-0.3697c1.296-0.3575,2.5927-0.835,3.6935-0.292c0.4498,0.2219,1.0127-0.1451,0.8694-0.6683
	c-0.0208-0.0756,2.4582-1.7544,2.71-2.0101c0.7166-0.7274,1.2319-1.5769,1.6465-2.5065c0.459-1.0294,1.4126-2.6479,1.3921-3.777
	C68.9879,69.3426,68.2555,68.5392,67.7716,67.8109z"/>
<path class="st10" d="M77.7561,100.7034c-0.7161-1.1176-1.2488-2.3293-1.7756-3.544c-0.0555-0.1279-0.1677-0.1676-0.2833-0.1664
	c-0.1646-0.1678-0.4526-0.1382-0.6067,0.0673c-0.3774,0.5039-0.4556,1.2408-0.6003,1.8385
	c-0.1816,0.7495-0.3008,1.5004-0.375,2.2674c-0.0034,0.036,0.0032,0.0657,0.0092,0.0956c-0.0277,0.0878-0.0519,0.1761-0.0717,0.266
	c-0.1688,0.2621-0.3027,0.5527-0.3534,0.8949c-0.0309,0.2083,0.1261,0.4354,0.3625,0.3625c0.2452-0.0756,0.2238-0.1477,0.3745-0.337
	c0.1844-0.2316,0.3175-0.5526,0.4491-0.8786c0.2976-0.2447,0.6477-0.4188,0.9167-0.4476c0.5138-0.0548,1.0393-0.0256,1.5299,0.1329
	C77.6398,101.3544,77.9305,100.9755,77.7561,100.7034z"/>
<path class="st10" d="M68.1622,44.8058c-0.1179-0.1077-0.2329-0.193-0.3755-0.2668c-0.1445-0.0749-0.324,0.0106-0.3956,0.1414
	c-0.1757-0.0287-0.347-0.0728-0.5172-0.1221c0.0715-0.0431,0.0815-0.1459,0.0334-0.2062c-0.0764-0.0958-0.093-0.1053-0.2013-0.166
	c-0.0703-0.0394-0.1344-0.0363-0.1865-0.0103c-0.0366-0.1273-0.1417-0.2202-0.3663-0.1702
	c-0.1224,0.0273-0.1907,0.067-0.2863,0.1456c-0.0221,0.0182-0.0208,0.0518-0.0323,0.0784
	c-0.0828-0.0247-0.1644-0.0515-0.2488-0.0726c-0.3027-0.125-0.5056,0.3739-0.2219,0.5261c0.7622,0.4088,1.7314,0.635,2.5951,0.6134
	C68.1968,45.2904,68.3527,44.9795,68.1622,44.8058z"/>
<path class="st10" d="M57.4299,44.4606c-0.6395,0.1695-1.2767,0.3527-1.9233,0.4942c-0.3922,0.0859-1.183,0.0452-1.4642,0.3494
	c-0.0331,0.0358-0.0491,0.0749-0.0629,0.1139c-0.028-0.0042-0.0547-0.01-0.0829-0.0139c-0.1488-0.0204-0.2827,0.1928-0.1144,0.2713
	c1.2538,0.5845,3.0668,0.3051,3.9368-0.8389C57.861,44.6498,57.6272,44.4082,57.4299,44.4606z"/>
<path class="st11" d="M54.5902,79.0967c-1.0422-0.4711-2.5935-0.864-3.3296-1.78c-0.3069-0.3818-0.8162-0.0223-0.8596,0.356
	c-0.173,1.5076-0.0815,2.9072,0.1128,4.4056c0.0101,0.0782,0.0476,0.1517,0.0956,0.2177c-0.1124,0.1389-0.2174,0.284-0.3048,0.4432
	c-0.2216,0.4031,0.3481,0.7186,0.6071,0.3549c0.4855-0.6819,1.2501-1.1789,1.8866-1.711c0.626-0.5234,1.2556-1.0422,1.8855-1.5606
	C54.8994,79.6451,54.8471,79.2128,54.5902,79.0967z"/>
<path class="st11" d="M35.3872,79.9398c-0.0399,0.19-0.08,0.37-0.12,0.56c0.13,0.26,0.1799,0.56,0.12,0.9
	c0.0699,0.09,0.12,0.21,0.12,0.35c0.01,0.04,0.01,0.1,0,0.15c-0.11,0.66-0.25,1.3-0.4199,1.94c-0.0701,0.38-0.1401,0.76-0.2201,1.14
	v0.04c-0.0299,0.13-0.0499,0.27-0.08,0.4c0.01,0.0099,0.02,0.02,0.03,0.04c0,0,0,0,0,0.01c0.0699,0.08,0.1099,0.18,0.1,0.31
	c-0.0699,1.14-0.08,2.28-0.0599,3.4v0.01c0.0099,1.94,0.0999,3.88,0.1099,5.84c0.16,0.08,0.3101,0.22,0.3801,0.39v0.0099
	c0.0798,0.15,0.0999,0.32,0.0499,0.48c-0.0599,0.21-0.23,0.29-0.42,0.32c-0.01,0.08,0,0.15,0,0.23c-0.01,0.43-0.55,0.7-0.8799,0.48
	c-0.0701,0.08-0.1401,0.17-0.2101,0.23c-0.23,0.25-0.51,0.43-0.7999,0.53c-0.02,0-0.03,0.01-0.05,0.01
	c-0.12,0.04-0.26,0.06-0.39,0.06c-0.0499,0.03-0.1,0.05-0.15,0.06c0.02,0.12,0,0.25-0.08,0.39c-0.1901,0.3-0.38,0.59-0.54,0.9h-0.01
	c-0.13,0.22-0.25,0.45-0.37,0.68c-0.11,0.21-0.28,0.29-0.45,0.29c-0.13,0.16-0.27,0.33-0.41,0.49c-0.41,0.48-0.84,0.95-1.2799,1.41
	l-1.6802-0.97c-0.0399-0.09-0.0599-0.2-0.0698-0.3c-0.05,0.06-0.1001,0.12-0.1501,0.18l-0.72-0.42l-0.73-0.42l-0.24-0.14l-2.4-1.39
	l-1.7599-1.01l-3.28-1.9c0.1199-0.33,0.24-0.65,0.3699-0.97c0.05-0.1,0.1201-0.18,0.1901-0.25c0-0.2,0-0.4-0.01-0.61v-0.06
	c-0.0699-2.13-0.39-4.46,0.35-6.29v-0.01c0.16-0.39,0.3601-0.75,0.6301-1.09c0.0698-0.1,0.1599-0.19,0.25-0.28c0-0.01,0-0.01,0-0.01
	l0.1199-0.12c0.1001-0.09,0.2-0.12,0.3-0.14c-0.02-0.19,0.04-0.38,0.1599-0.53c-0.0399-0.33-0.0399-0.68-0.01-1.03
	c0.04-0.4901,0.1201-0.97,0.1702-1.38c0.1199-0.91,0.2899-1.97,1.0699-2.57c0.13-0.1,0.2599-0.17,0.39-0.23
	c0.1699-0.08,0.35-0.1299,0.54-0.15c1.8999-0.64,3.8999-0.24,5.8799,0.15c1.05,0.2,3.0701,0.34,4.49,0.92
	c-0.03-0.06-0.0599-0.13-0.09-0.2c-0.1-0.25-0.0299-0.45,0.12-0.58c-1.36-0.73-3.6599-1.29-4.4399-1.69
	c-0.3601,0.04-0.72,0.12-1.0901,0.06c-0.2-0.03-0.3599-0.12-0.5499-0.18c-0.1901-0.07-0.38-0.08-0.5599-0.06
	c-0.05,0.01-0.1101,0.02-0.1602,0.03c-0.1599,0.02-0.3099,0.06-0.47,0.11c-0.4099,0.11-0.6899-0.24-0.7-0.57
	c-0.01-0.23,0.11-0.45,0.3999-0.52c0.03,0,0.05-0.0099,0.0801-0.0099c0.0701-0.1201,0.1899-0.21,0.3401-0.25
	c0.1099-0.03,0.22-0.04,0.3298-0.07c0.3701-0.09,0.7401-0.36,1.0901-0.58c0.0601-0.25,0.24-0.5,0.5701-0.73
	c0.1499-0.1,0.3899-0.08,0.5399,0.02c0.16-0.2,0.36-0.37,0.52-0.46c0.26-0.15,0.5699-0.23,0.86-0.27
	c0.16-0.02,0.3501-0.03,0.53-0.05c0.01,0,0.01-0.01,0.01-0.01c0.04,0,0.08,0,0.12-0.01c0.12-0.07,0.25-0.12,0.41-0.15
	c0.02-0.0099,0.03,0,0.0399,0c0.02-0.02,0.03-0.04,0.05-0.05c0-0.01,0.0099-0.02,0.0199-0.01c0.1301-0.14,0.3301-0.19,0.51-0.17
	c0,0,0.01-0.01,0.01,0c0.0601,0,0.1101,0.02,0.17,0.04c0.02-0.04,0.04-0.08,0.0599-0.1201c0.2201-0.3799,0.5901-0.6299,1.2001-0.67
	c0.12,0,0.2001,0.07,0.2201,0.16c0.0299,0.1,0,0.22-0.1001,0.29c-1.21,0.78-0.34,2.46,0.7,3.62c0.3701,0.18,0.79,0.24,1.1301,0.46
	c0.01-0.02,0.02-0.04,0.0399-0.06c0.1901-0.27,0.64-0.11,0.5699,0.2599c-0.0499,0.26-0.1099,0.51-0.1699,0.76
	c0.0601,0.15,0.04,0.32-0.03,0.46C35.4772,79.8398,35.4371,79.8898,35.3872,79.9398z"/>
<path class="st11" d="M49.5473,113.6398l-5.92-3.42l-3.35-1.93c-0.01,0.03-0.03,0.07-0.04,0.1c0-0.04,0.01-0.07,0.02-0.11
	c0.01-0.09,0.03-0.17,0.05-0.26c0.1299-0.51,0.34-1.01,0.61-1.5c0.11-0.22,0.24-0.44,0.39-0.65v-0.0099
	c0.3099-0.48,0.6499-0.95,0.99-1.3701c0.09-0.28,0.1899-0.54,0.28-0.77c-0.26-0.17-0.4301-0.46-0.3501-0.83
	c0.01-0.03,0.02-0.07,0.03-0.1c0.04-0.11,0.0901-0.21,0.13-0.32c0-0.01,0.01-0.02,0.01-0.02c0.0599-0.11,0.14-0.19,0.25-0.27
	c0.51-0.78,1.08-1.48,1.73-2.12c0.35-0.34,0.7301-0.67,1.13-0.98c0.01-0.01,0.03-0.01,0.04-0.02c0.02-0.03,0.03-0.06,0.05-0.09
	c0.26-0.44,0.5798-0.8,1-1.04c0.21-0.13,0.5299,0.03,0.51,0.29c-0.01,0.11-0.02,0.23-0.04,0.34c-0.15,1.34-0.5901,2.63-0.66,3.98
	c-0.09,1.65,0.13,3.33,0.51,4.93c0.2699,1.13,0.6901,2.17,1.16,3.18S49.0673,112.6398,49.5473,113.6398z"/>
<path d="M41.2772,106.2098c-0.03,0.04-0.13,0.19-0.26,0.37c-0.01,0.02-0.03,0.04-0.04,0.06c-0.0699,0.1-0.1399,0.2-0.22,0.31
	c0.02,0.05,0.03,0.1,0.03,0.15c0,0.04-0.01,0.09-0.02,0.13c-0.0801,0.24-0.1699,0.42-0.28,0.58c-0.0601,0.08-0.11,0.15-0.1799,0.21
	c-0.05,0.07-0.1201,0.13-0.1901,0.18l-0.59-0.34l-0.6699-0.39l-0.4901-0.28l-0.89-0.51l-1.33-0.78l-0.88-0.5l-3.15-1.82
	l-2.3199-1.34c0.3-0.54,0.6799-1.04,1.08-1.5099h0.01c0.7999-0.97,1.6801-1.88,2.2001-3.03c0.0299-0.05,0.0499-0.1,0.0699-0.16
	c0.01-0.01,0.01-0.03,0.0199-0.04c0.04-0.09,0.0901-0.17,0.1501-0.21c0-0.02,0.01-0.02,0.01-0.02
	c0.1599-0.14,0.3699-0.17,0.5499-0.1c0.2101,0.09,0.37,0.31,0.3199,0.62c-0.1399,0.89-0.4099,1.54-0.3899,2.47
	c0.01,0.24,0.03,0.47,0.0599,0.69c0.15,0.61,0.3199,1.21,0.52,1.8c0.0499,0.18,0.11,0.36,0.17,0.54
	c1.04,0.77,2.1899,1.6,3.1299,2.55c0.67,0.06,1.3201,0.06,1.99-0.03h0.01c0.3601-0.05,0.7201-0.12,1.0901-0.23
	c0.23-0.06,0.45,0.08,0.52,0.28c0,0,0.01,0,0,0.0099C41.3573,105.9798,41.3473,106.0998,41.2772,106.2098z"/>
<path class="st12" d="M92.2572,96.3598l-0.0801,0.05l-1.6199,0.93c-0.1201-0.66-0.1801-1.33-0.22-2.01
	c-0.05-0.68-0.0901-1.37-0.1501-2.05c-0.1699-1.78-0.5798-3.44-1.0299-5.16c-0.9401-3.61-1.4601-7.45-4.4801-9.96
	c-2.8899-2.39-6.6199-3.93-10.0698-5.3c-2.1501-0.85-4.7301-1.3701-5.8801-3.59c-0.09-0.18,0.1301-0.36,0.28-0.21
	c1.62,1.6,3.8201,1.99,5.9299,2.61c1.9801,0.58,3.9102,1.27,5.8101,2.05c2.6101,1.07,5.24,2.49,7.01,4.77
	c0.48,0.61,0.86,1.3,1.1799,2.01c0.02,0.02,0.03,0.04,0.04,0.06c0.21,0.34,0.5901,1.03,0.5801,1.56
	c0.6199,1.95,0.95,4.05,1.4299,5.95c0.5,1.96,0.97,4.09,1.16,6.21C92.2272,94.9798,92.2672,95.6698,92.2572,96.3598z"/>
<path class="st3" d="M66.3253,68.9449c-1.8695,2.7509-4.6188,3.8969-7.8911,3.7546c-0.3427-0.0149-0.4868,0.4971-0.1775,0.6552
	c1.566,0.8002,3.7488,0.0643,5.2334-0.657c1.3643-0.6628,3.4338-1.889,3.2429-3.6423
	C66.7096,68.8405,66.4534,68.7565,66.3253,68.9449z"/>
<path class="st3" d="M61.5621,39.3801c-1.292-0.3353-2.7117-0.2042-4.0421-0.3358c-1.4828-0.1467-2.8756-0.3721-4.298-0.8069
	c-0.207-0.0633-0.3716,0.2169-0.2128,0.3657c0.9159,0.8579,2.299,0.8524,3.4933,0.9972c1.5981,0.1938,3.4924,0.5861,5.0596,0.1264
	C61.7291,39.6776,61.7369,39.4255,61.5621,39.3801z"/>
<path class="st3" d="M66.2776,66.491c-0.1876,0.107-0.3551,0.2502-0.5144,0.4072c-0.0651-0.018-0.1348-0.0193-0.2041,0.0175
	c-1.9368,1.0289-5.1215,0.9057-7.1959,0.2587c-3.6152-1.1277-3.6095-4.7925-3.8669-7.9425
	c-0.1224-1.4965-0.1206-3.2156-1.002-4.4983c-0.7598-1.1056-1.9641-2.0253-2.9578-2.9678
	c-0.2445-1.1038-0.3569-2.2238-0.0564-3.4897c0.4141-1.7435,1.3281-2.7702,2.429-3.8322c0.2108-0.0897,0.4218-0.1765,0.6265-0.267
	c0.6917-0.306,1.3153-0.5503,2.0103-0.6874c1.0154,0.1079,2.0697,0.2953,2.9534,0.6447c-0.0837,0.2845-0.1467,0.5759-0.2098,0.8677
	c-0.1571,0.2744-0.2794,0.5883-0.4418,0.8359c-0.2827,0.431-0.6162,0.8234-0.9016,1.2505
	c-0.1045,0.1565,0.0966,0.3268,0.2458,0.2458c0.1125-0.061,0.2183-0.1337,0.3203-0.2115c-0.4148,0.6694-0.929,1.2573-1.3008,1.9651
	c-0.1324,0.252,0.1262,0.4649,0.3633,0.3634c0.3484-0.1491,0.6885-0.4087,1.0054-0.734c0.0359-0.0034,0.0718,0.0009,0.1062-0.0209
	c0.2068-0.1318,0.4091-0.2818,0.6071-0.4407c0.5745,0.3484,0.5231,1.7922,0.4463,2.8163c-0.0148,0.0696-0.0277,0.1362-0.0157,0.2033
	c-0.0093,0.1154-0.0179,0.2233-0.0256,0.3206c-0.6321,0.5469-0.5427,1.1988-0.1003,1.6299
	c0.0009,0.0109,0.0049,0.0203,0.0061,0.0309c-0.0586-0.0592-0.1345-0.0975-0.2217-0.0764
	c-0.6365,0.1544-0.8508,1.1084-1.0914,1.6461c-0.2638,0.5898-0.3745,1.148-0.1487,1.7644c0.0345,0.0942,0.1735,0.1058,0.2034,0
	c0.1761-0.6218,0.3497-1.2451,0.6884-1.8021c0.2375-0.3907,0.6523-0.7387,0.6702-1.188c0.2209,0.4634,0.7573,0.7266,1.3293,0.6055
	c0.3-0.0635,0.3955-0.3569,0.334-0.608c0.6376-0.1689,1.1389-0.4371,1.8822-0.2811c0.5128,0.1077,0.9526,0.4252,1.4972,0.3983
	c0.762-0.0378,1.4374-0.5741,1.4465-1.3361c0.0012-0.1047-0.0961-0.2169-0.207-0.207c-0.4458,0.0397-0.3955,0.1746-0.8141,0.3075
	c-0.0322,0.0102-0.0566,0.0094-0.0875,0.0179c-0.4371-0.0903-0.8096-0.146-1.099-0.574c-0.2289-0.3384-0.4091-0.7287-0.5964-1.1079
	c-0.0061-0.0753-0.0099-0.1561-0.0211-0.2181c-0.0085-0.0472-0.0292-0.0885-0.0409-0.1341c-0.2169-1.4869-0.4263-2.9822-0.83-4.4207
	c-0.0251-0.0891-0.0823-0.1426-0.1494-0.175c0.0183-0.048,0.0457-0.0882,0.0504-0.1473c0.2455-3.0548-4.4269-3.3652-7.2975-3.3727
	c-0.0198-0.0706-0.0566-0.1384-0.1267-0.1943c-0.0952-0.0759-0.1868-0.134-0.2756-0.1812c0.3235,0.1525,0.8267-0.0903,0.8719-0.5176
	c0.0438-0.413,0.036-0.8119-0.0118-1.2247c-0.0093-0.0792-0.0626-0.5956-0.145-0.7028c1.303,0.6146,2.9637,0.6506,4.3464,0.7136
	c2.3286,0.106,4.5171-0.4359,6.6855-1.2583c0.334-0.1266,0.2094-0.6255-0.1494-0.5424c-1.9582,0.4537-3.6986,1.1747-5.7499,1.1855
	c-1.7753,0.0094-3.5007-0.2939-5.2205-0.6714c-0.0184-0.022-0.0302-0.0491-0.0514-0.0679
	c-0.0189-0.0914-0.0623-0.1794-0.1528-0.2502c-0.2802-0.2192-0.6196-0.3615-0.9744-0.4725
	c-0.0989-0.2651-0.3123-0.4634-0.844-0.6353c-0.3237-0.1046-0.6563-0.0903-0.9822-0.0879
	c-0.0564-0.3426-0.5208-0.5263-0.8224-0.2539c-0.0026-0.0063-0.0052-0.0128-0.0079-0.0191
	c-0.0303,0.0296-0.0388,0.0573-0.062,0.0854c-0.0045,0.0057-0.0103,0.0079-0.0146,0.0138
	c-0.0027,0.0036-0.0032,0.0104-0.0057,0.0142c-0.009,0.0119-0.0186,0.0245-0.0265,0.0364c-0.0266-0.015-0.0544-0.0327-0.0778-0.0391
	c-0.2184-0.0602-0.442-0.0186-0.6383,0.0948c-0.3895,0.2249-0.7041,0.7383-0.5702,1.1881c0.0443,0.1486,0.1405,0.2585,0.2529,0.349
	c0.0013,0.085,0.0175,0.1725,0.0729,0.2615c0.0481,0.0775,0.1136,0.159,0.1858,0.2401c0.0183,0.0167,0.028,0.0389,0.0491,0.052
	c0.0463,0.0485,0.0942,0.0946,0.1465,0.1401c0.1647,0.1703,0.326,0.3439,0.4811,0.523c-0.0237,0.0361-0.0496,0.0691-0.0685,0.1122
	c-2.3877,3.6554-2.8477,8.3913-1.9325,12.7917c-0.4114-0.5857-0.8214-1.1364-1.109-1.606
	c-0.0784-0.1279-0.1765-0.2025-0.2795-0.2546c0.0719-0.2966,0.0562-0.6418-0.0913-0.8748
	c-0.0839-0.1324-0.2498-0.2037-0.4053-0.1898c0.0061-0.0597,0.0107-0.1192,0.0154-0.1859c0.0059-0.0838-0.0347-0.1367-0.0894-0.1723
	c-0.0554-0.0618-0.1489-0.0757-0.2063-0.0231c-0.0884,0.0245-0.1654,0.0807-0.1575,0.1954
	c0.0032,0.0448,0.0073,0.0837,0.0105,0.1249c-0.0675,0.1104-0.1537,0.2022-0.2533,0.2823
	c-0.0111-0.0088-0.0209-0.0212-0.0321-0.0298c-0.8352-1.0939-1.7734-2.1022-2.8135-2.8679c-0.0447,0.0782-0.1147,0.14-0.1931,0.1903
	c-0.2605-0.3221-0.5454-0.6221-0.8403-0.9132c-0.0017,0.0038-0.0032,0.0076-0.0048,0.0114
	c-0.0988-0.1014-0.2332-0.1277-0.3661-0.0963c-0.1272-0.3179-0.238-0.6478-0.399-0.9384c-0.2467-0.1067-0.5074,0.1055-0.4647,0.3907
	c0.0142,0.0947,0.0366,0.1778,0.068,0.2573c-0.0616,0.0441-0.1093,0.1061-0.1033,0.2074c0.0812,1.3677,0.1549,2.9243,0.6998,4.1981
	c0.4761,1.113,1.3831,1.8793,2.0081,2.8587c0.2207,0.8478,0.396,1.7087,0.5588,2.5507c0.0704,0.3645,0.4856,0.5308,0.8121,0.4611
	c0.132-0.0281,0.2325-0.0692,0.3215-0.1208c0.0072,0.0015,0.0145,0.0031,0.0219,0.0046c0.3591,0.3746,0.8093,0.5492,1.3541,0.862
	c0.8766,0.5033,1.5482,1.1652,2.5049,1.5141c0.1147,0.0419,0.2152,0.0352,0.3075,0.0104c0.2323,0.2562,0.52,0.4713,0.7921,0.6259
	c0.0773,0.746,0.1752,1.4885,0.2856,2.229c-0.6163,0.713-0.1141,2.1937,0.048,2.9854c0.0195,0.0948,0.0779,0.1469,0.1473,0.1774
	c-0.0858,0.7286-0.0315,1.4591,0.0938,2.1891c0.0011,0.0062,0.0026,0.0132,0.0035,0.0194c-0.1592,1.574-0.0117,3.2406,0.1926,4.6767
	c0.0521-0.0189,0.1067-0.035,0.1724-0.035c0.1335,0,0.2324,0.0495,0.3101,0.1179c0.2122,0.0331,0.3386,0.182,0.3782,0.3596
	c0.0321-0.0288,0.074-0.0471,0.098-0.0825c0.2526,0.1872,0.5411,0.3654,0.8429,0.5378c0.0273-0.0042,0.049-0.0161,0.0791-0.0161
	c0.1252,0,0.2185,0.045,0.2946,0.1062c0.1013-0.0746,0.2225-0.124,0.379-0.0885c1.0385,0.235,2.0897,0.4122,3.1257,0.658
	c0.6876,0.1631,1.502,0.2838,2.0969,0.6837c0.009,0.0061,0.0125,0.0146,0.0209,0.0211c1.6285-0.5555,2.7584-2.2643,2.9431-4.0383
	c0.1433-0.0047,0.2858-0.0064,0.4308-0.0179c0.2117-0.0168,0.3586-0.1224,0.4463-0.2608c0.7958,0.092,1.6693-0.0056,2.3119-0.4466
	c0.7502-0.515,1.7953-1.576,2.0582-2.4562C66.7824,66.573,66.4952,66.3667,66.2776,66.491z M59.2536,51.7888
	c0.1499,0.0193,0.3046-0.0129,0.4312-0.1655c0.0275-0.0331,0.0598-0.081,0.0887-0.1191c0.0006,0.0005,0.0013,0.001,0.0021,0.0016
	c0.0031-0.0054,0.0059-0.0109,0.009-0.0164c0.0449-0.0596,0.0887-0.116,0.137-0.1838c0.5334,0.0748,1.1472,0.208,1.1685,0.8687
	c-0.0461,0.0064-0.0927,0.0015-0.1388,0.0108c-0.2179,0.0528-0.4292,0.1253-0.6337,0.2175c-0.4073,0.2148-0.7705,0.0175-1.093-0.557
	C59.2337,51.8263,59.2448,51.8085,59.2536,51.7888z M63.339,69.0152c-0.3279,0.0633-0.6637,0.0717-0.999,0.0827
	c-0.0374-0.058-0.0825-0.1113-0.144-0.1509c0.6942-0.062,1.3374-0.1674,1.8574-0.2947c0.1241-0.0304,0.1741-0.1177,0.1929-0.2128
	c0.0786-0.0185,0.1509-0.0477,0.2271-0.0706C64.1491,68.6818,63.8043,68.9253,63.339,69.0152z"/>
<path class="st13" d="M65.9537,59.4787c-0.0229-0.0107-0.0404-0.0228-0.0629-0.0337c-0.0024-0.0129,0.0079-0.0255,0-0.0374
	c-0.0504-0.076-0.1268-0.1251-0.1942-0.1837c-0.2599-0.0614-0.5149-0.1849-0.7448-0.3008
	c-0.3768-0.1901-0.7911-0.4285-1.1033-0.7288c-0.0028,0.0079-0.0083,0.0143-0.0104,0.0226c-0.0393-0.012-0.0847-0.0152-0.129-0.02
	c-0.3453,0.204-0.8424,0.2402-1.2052,0.1913c-0.2617-0.0353-0.6196-0.2244-0.9254-0.2602c-0.3378,0.1687-0.6637,0.4409-0.9872,0.59
	c-0.8026,0.3699-1.6821,0.4662-2.48,0.8118c-0.1348,0.0583-0.1035,0.1964-0.0198,0.2761c0.0076,0.0875,0.0625,0.1687,0.1746,0.1619
	c0.7773-0.0472,1.5712-0.0679,2.338-0.2051c0.22-0.0394,0.4229-0.1083,0.6212-0.1848c0.0667,0.1088,0.1567,0.2006,0.2902,0.2333
	c0.3702,0.0905,0.7067,0.0443,1.0831,0.0469c0.3989,0.0028,0.7889,0.0384,1.1886,0.0101c0.1555-0.011,0.326-0.0782,0.399-0.2289
	l0.0505-0.104c0.0608-0.1255,0.0496-0.2634-0.0442-0.3688c0.4912,0.2989,0.9639,0.7604,1.5293,0.8619
	C66.031,60.0839,66.2863,59.6333,65.9537,59.4787z"/>
<path class="st2" d="M49.0431,58.7121c-0.6399,0-0.6069,0.9919,0.0305,0.9919C49.7136,59.704,49.6808,58.7121,49.0431,58.7121z"/>
<g>
	<g>
		<path class="st14" d="M69.8841,42.0864c0.4038,4.9169,1.1247,9.6355-0.2669,14.4667c-1.2497,4.3385-1.9415,8.7716-5.358,11.9878
			c-0.1545,0.1454,0.0547,0.4324,0.2319,0.3006c3.5788-2.6602,4.1618-7.3208,5.2943-11.3362
			c1.4525-5.1501,1.4115-10.1955,0.2368-15.4376C70.0052,41.9915,69.8776,42.0066,69.8841,42.0864L69.8841,42.0864z"/>
	</g>
</g>
<g>
	<g>
		<path class="st14" d="M54.4991,65.5967c1.0629,1.6284,2.3544,2.8928,4.3274,3.2374c1.3237,0.2312,2.7574,0.2556,4.097,0.2745
			c0.8162,0.0115,1.3223,0.0058,1.9568-0.5125c0.2092-0.1709-0.0572-0.4647-0.2746-0.3558
			c-1.3625,0.6826-3.6935,0.401-5.1936,0.2529c-2.2695-0.2241-3.3738-1.3576-4.8088-2.9768
			C54.5536,65.4601,54.4578,65.5335,54.4991,65.5967L54.4991,65.5967z"/>
	</g>
</g>
<g>
	<g>
		<path class="st14" d="M52.6634,40.5132c1.0444,1.9622,3.6419,3.0258,5.7584,3.011c0.6033-0.0042,0.6039-0.9517,0-0.9375
			c-1.072,0.0253-2.1912-0.1103-3.1918-0.511c-0.9695-0.3882-1.6738-1.0197-2.4971-1.6319
			C52.6894,40.4113,52.6417,40.4723,52.6634,40.5132L52.6634,40.5132z"/>
	</g>
</g>
<g>
	<g>
		<path class="st14" d="M64.1756,43.9453c0.7011-0.0438,1.3356-0.3393,1.9918-0.5795c0.6393-0.234,1.3148-0.3594,1.9465-0.5989
			c0.6602-0.2502,1.3677-0.8964,1.3257-1.6511c-0.0041-0.074-0.0885-0.1391-0.1587-0.0911c-0.6385,0.4368-1.2872,0.855-1.975,1.218
			c-1.0238,0.5403-2.2835,0.7123-3.2092,1.4114C63.986,43.7377,64.0038,43.956,64.1756,43.9453L64.1756,43.9453z"/>
	</g>
</g>
<g>
	<g>
		<path class="st14" d="M53.3277,45.5854c0.8592-0.1921,1.6776-0.5099,2.5468-0.6874c0.8605-0.1758,1.7293-0.2501,2.5842-0.452
			c0.0863-0.0204,0.0925-0.1647,0-0.1808c-1.6621-0.2897-3.8024,0.2065-5.1972,1.1632C53.1817,45.483,53.23,45.6072,53.3277,45.5854
			L53.3277,45.5854z"/>
	</g>
</g>
<g>
	<g>
		<path class="st14" d="M59.6419,43.5284c0.4078,0.1294,0.8415,0.3671,1.1009,0.7154c0.2516,0.3379,0.3472,0.838,0.4339,1.2464
			c0.0186,0.0874,0.131,0.0677,0.1582,0c0.4249-1.0592-0.6194-2.1408-1.6722-2.1152
			C59.5738,43.3771,59.5576,43.5016,59.6419,43.5284L59.6419,43.5284z"/>
	</g>
</g>
<g>
	<g>
		<path class="st14" d="M53.5829,45.5893c1.3454,1.037,4.001,0.8768,4.5397-1.0337c0.0364-0.1292-0.1279-0.2207-0.222-0.1292
			c-0.5395,0.5246-0.9237,1.0561-1.6747,1.3081c-0.8748,0.2935-1.7476,0.1279-2.5406-0.3205
			C53.568,45.3474,53.4825,45.5119,53.5829,45.5893L53.5829,45.5893z"/>
	</g>
</g>
<g>
	<g>
		<path class="st14" d="M58.3818,44.6116c0.0104-0.0029,0.0208-0.0058,0.0311-0.0088c-0.0429-0.0429-0.0858-0.0858-0.1287-0.1287
			c-0.0821,0.236-0.1137,0.4774-0.1157,0.726c-0.0012,0.1438,0.218,0.1771,0.2532,0.0343c0.0596-0.2418,0.0891-0.4837,0.068-0.7325
			c-0.0189-0.2225-0.3154-0.0334-0.1786,0.074C58.3303,44.591,58.3538,44.6195,58.3818,44.6116L58.3818,44.6116z"/>
	</g>
</g>
<g>
	<g>
		<path class="st14" d="M64.635,44.4373c0.8857-0.2122,1.6609-0.3918,2.5467-0.0658c0.6726,0.2475,1.1107,0.8099,1.7448,1.0929
			c0.0587,0.0262,0.1242-0.0167,0.109-0.0838c-0.3828-1.6909-3.2783-1.8419-4.4427-1.0432
			C64.5426,44.3718,64.5726,44.4523,64.635,44.4373L64.635,44.4373z"/>
	</g>
</g>
<g>
	<g>
		<path class="st14" d="M64.8838,44.0874c0.3613,1.3544,2.5991,2.1027,3.6537,1.1344c0.1186-0.1089-0.0099-0.2714-0.1444-0.2481
			c-0.7294,0.1264-1.2907,0.3903-2.0434,0.1097c-0.584-0.2178-0.939-0.6326-1.3679-1.053
			C64.9399,43.9895,64.8686,44.0307,64.8838,44.0874L64.8838,44.0874z"/>
	</g>
</g>
<g>
	<g>
		<path class="st14" d="M63.6783,43.8249c-0.4241,1.28-0.3135,2.5638,0.0627,3.8485c0.4038,1.3787,1.9917,4.0179,1.2422,5.4523
			c-0.0603,0.1154,0.0658,0.264,0.1871,0.1871c0.9438-0.5991,0.4348-1.7936,0.1187-2.7015
			c-0.7864-2.2586-2.0004-4.2435-1.3922-6.7261C63.9317,43.7428,63.724,43.6869,63.6783,43.8249L63.6783,43.8249z"/>
	</g>
</g>
<g>
	<g>
		<path class="st14" d="M60.6131,53.5971c0.1485-0.1579,0.2518-0.3329,0.4854-0.3579c0.2674-0.0286,0.3842,0.1067,0.5183,0.3243
			c0.0639,0.1036,0.197,0.0923,0.2631,0c0.2981-0.4161-0.1101-0.8539-0.5521-0.8763c-0.4483-0.0227-0.9625,0.3463-0.928,0.8215
			C60.4071,53.6109,60.5342,53.681,60.6131,53.5971L60.6131,53.5971z"/>
	</g>
</g>
<g>
	<g>
		<path class="st14" d="M61.9311,59.5871c0.293,0.5702,1.4105,0.5369,1.8462,0.1722c0.0775-0.0649,0.0168-0.2168-0.0856-0.2067
			c-0.3323,0.0328-0.612,0.1367-0.9525,0.0727c-0.2495-0.0469-0.4737-0.1751-0.7271-0.1792
			C61.9378,59.4449,61.8996,59.5257,61.9311,59.5871L61.9311,59.5871z"/>
	</g>
</g>
<g>
	<g>
		<path class="st14" d="M63.5381,59.7355c0.0201,0,0.0201-0.0313,0-0.0313C63.5179,59.7042,63.5179,59.7355,63.5381,59.7355
			L63.5381,59.7355z"/>
	</g>
</g>
<g>
	<g>
		<path class="st14" d="M60.7047,62.0193c0.0905,0,0.0906-0.1406,0-0.1406C60.6142,61.8787,60.6141,62.0193,60.7047,62.0193
			L60.7047,62.0193z"/>
	</g>
</g>
<g>
	<g>
		<path class="st14" d="M60.6106,62.0943c0.5781,0.316,1.3648,0.3213,2.012,0.3014c0.641-0.0197,1.4778-0.0419,2.0036-0.4279
			c0.1197-0.0879,0.0824-0.2763-0.0769-0.2839c-0.637-0.0304-1.2776,0.2456-1.9267,0.2738
			c-0.6559,0.0285-1.3001-0.1451-1.947-0.1035C60.5546,61.8619,60.4918,62.0294,60.6106,62.0943L60.6106,62.0943z"/>
	</g>
</g>
<g>
	<g>
		<path class="st14" d="M58.748,51.5491c-0.8711,0.511-0.7819,1.8788-0.0876,2.5101c0.3438,0.3126,0.9398,0.5025,1.3802,0.2774
			c0.2799-0.1431,0.4982-0.559,0.4556-0.8682c-0.0083-0.0603-0.0942-0.0594-0.1214-0.0159c-0.363,0.5826-1.1225,0.527-1.5911,0.055
			c-0.5652-0.5693-0.2974-1.2633,0.0818-1.8408C58.9138,51.5933,58.8198,51.507,58.748,51.5491L58.748,51.5491z"/>
	</g>
</g>
<g>
	<g>
		<path class="st14" d="M62.1477,53.3087c0.3749,0.505,1.2495,0.7445,1.8598,0.6827c0.4573-0.0463,1.1055-0.2892,1.1063-0.8288
			c0.0001-0.0677-0.0724-0.1036-0.1293-0.0742c-0.4556,0.2355-0.7266,0.5507-1.2935,0.5051c-0.5223-0.042-0.951-0.4104-1.4657-0.42
			C62.1624,53.1724,62.1062,53.2529,62.1477,53.3087L62.1477,53.3087z"/>
	</g>
</g>
<g>
	<g>
		<path class="st14" d="M58.189,52.6178c-0.7776,1.6871-1.4548,3.4827-1.6103,5.3473c-0.0081,0.0967,0.1327,0.1048,0.1611,0.0218
			c0.5984-1.7467,1.0371-3.5359,1.6919-5.2668C58.4846,52.5806,58.252,52.4811,58.189,52.6178L58.189,52.6178z"/>
	</g>
</g>
<g>
	<g>
		<path class="st14" d="M64.9136,53.2661c0.0767,0.5992,0.232,1.189,0.4762,1.7422c0.0457,0.1035,0.2172,0.0505,0.2111-0.0572
			c-0.0331-0.5872-0.1579-1.1769-0.3573-1.7297C65.1844,53.0573,64.8879,53.0653,64.9136,53.2661L64.9136,53.2661z"/>
	</g>
</g>
<g>
	<g>
		<path class="st14" d="M50.3644,36.8714c2.8451,1.9699,6.8485,2.3691,10.2311,2.4223c3.1629,0.0497,6.851-0.4751,9.1481-2.8445
			c0.0857-0.0884-0.0221-0.2184-0.1278-0.1656c-3.2861,1.6385-6.2553,2.5702-9.9839,2.3934
			c-3.2013-0.1518-6.2382-0.7615-9.1952-1.9769C50.3326,36.6573,50.2829,36.815,50.3644,36.8714L50.3644,36.8714z"/>
	</g>
</g>
<g>
	<g>
		<path class="st14" d="M69.3725,36.5438c0.0887,1.0546,0.3692,2.0849,0.4699,3.1426c0.1016,1.0666,0.0094,2.1391,0.1052,3.201
			c0.0156,0.1725,0.2784,0.2366,0.3223,0.0436c0.4364-1.9177,0.1459-4.6593-0.7227-6.4345
			C69.5071,36.4146,69.3648,36.452,69.3725,36.5438L69.3725,36.5438z"/>
	</g>
</g>
<g>
	<g>
		<path class="st14" d="M42.4065,44.1188c-0.8268-4.6436-0.557-9.6584,2.1298-13.6918c2.7517-4.1309,7.4014-5.7983,12.2155-5.9054
			c4.5824-0.102,8.9537,2.1146,11.3098,6.1145c2.1996,3.7342,2.4786,7.594,1.9908,11.7921c-0.029,0.2493,0.3523,0.2779,0.422,0.0571
			c2.9151-9.23-4.5947-19.0985-14.1805-18.617c-4.6852,0.2353-8.8794,1.8351-11.713,5.7098
			c-3.1122,4.2556-3.4902,9.6057-2.521,14.6363C42.1038,44.4421,42.4467,44.3446,42.4065,44.1188L42.4065,44.1188z"/>
	</g>
</g>
<g>
	<g>
		<path class="st14" d="M50.8032,36.9481c-0.7706-0.2449-1.7613,0.3193-1.971,1.0939c-0.2404,0.8879,0.632,1.3764,1.1307,1.9488
			c0.1371,0.1574,0.3905-0.0105,0.3395-0.1976c-0.1507-0.5525-0.828-0.7161-0.9921-1.2462
			c-0.3026-0.9777,0.9512-1.0653,1.5274-1.3348C50.9572,37.1564,50.9123,36.9828,50.8032,36.9481L50.8032,36.9481z"/>
	</g>
</g>
<g>
	<g>
		<path class="st14" d="M50.299,39.6504c-3.4116,3.9713-3.1803,9.0802-2.0106,13.888c0.0741,0.3047,0.5292,0.1746,0.4671-0.1288
			c-0.5016-2.4506-0.9157-5.106-0.659-7.611c0.2366-2.31,1.5789-3.963,2.3919-6.038C50.5295,39.6557,50.3706,39.5671,50.299,39.6504
			L50.299,39.6504z"/>
	</g>
</g>
<g>
	<g>
		<path class="st14" d="M40.988,43.1964c-0.0604,3.4893,4.8373,3.2253,5.1913,6.3373c0.0228,0.2006,0.3041,0.2659,0.3683,0.0498
			c0.3445-1.159-0.5353-2.0881-1.4787-2.6435c-0.6422-0.378-1.3672-0.6013-1.9954-1.004c-1.0683-0.6849-1.43-1.6303-1.8476-2.7718
			C41.1803,43.0398,40.9904,43.0535,40.988,43.1964L40.988,43.1964z"/>
	</g>
</g>
<g>
	<g>
		<path class="st14" d="M40.8882,43.4194c-1.3706,3.6087-0.4984,7.7198,2.2059,10.4735c0.2417,0.2462,0.6003-0.1212,0.3756-0.3757
			c-2.5699-2.9114-3.257-6.2571-2.1522-9.9794C41.4005,43.2583,40.988,43.1564,40.8882,43.4194L40.8882,43.4194z"/>
	</g>
</g>
<g>
	<g>
		<path class="st14" d="M42.9235,53.4107c0.0627,1.2859,0.3079,2.9785,1.5922,3.6027c1.0597,0.5151,2.7258,0.2959,3.5485-0.5677
			c0.1238-0.1299-0.0022-0.3188-0.1672-0.2873c-1.1297,0.2161-2.066,1.0007-3.252,0.3617c-1.1059-0.5958-1.0303-2.1126-1.4221-3.15
			C43.1662,53.2202,42.9146,53.2267,42.9235,53.4107L42.9235,53.4107z"/>
	</g>
</g>
<g>
	<g>
		<path class="st14" d="M40.594,45.0469c0.4061,0.981,1.0183,1.809,1.7409,2.5808c0.9937,1.0613,2.6994,1.7999,2.2177,3.5384
			c-0.0365,0.1317,0.1234,0.2778,0.2467,0.1897c0.8082-0.5777,0.5957-1.6227,0.0065-2.3142
			c-0.5498-0.6453-1.3807-1.0326-2.0183-1.5792c-0.8228-0.7055-1.3964-1.5957-1.9509-2.5177
			C40.7625,44.8211,40.5345,44.9032,40.594,45.0469L40.594,45.0469z"/>
	</g>
</g>
<g>
	<g>
		<path class="st14" d="M43.6094,50.8406c-0.3618,0.2664-0.5188,0.6468-0.3852,1.0928c0.1215,0.4056,0.5425,0.7575,0.971,0.6534
			c0.1966-0.0477,0.1894-0.2898,0.0513-0.3927c-0.1623-0.121-0.3686-0.1724-0.498-0.3354
			c-0.2089-0.2631-0.1631-0.6131-0.0056-0.8845C43.7889,50.8953,43.6915,50.7802,43.6094,50.8406L43.6094,50.8406z"/>
	</g>
</g>
<g>
	<g>
		<path class="st14" d="M44.488,53.2021c0.1938,0.1458,0.4322,0.2579,0.5931,0.4421c0.2121,0.2428,0.2265,0.5781,0.3116,0.8747
			c0.0405,0.1412,0.275,0.1998,0.3427,0.0448c0.3179-0.7273-0.3903-1.7719-1.2156-1.6043
			C44.3954,52.9845,44.4057,53.1401,44.488,53.2021L44.488,53.2021z"/>
	</g>
</g>
<g>
	<g>
		<path class="st14" d="M66.8535,65.4598c-0.4305,0.6809-0.3876,1.6029-0.4126,2.3855c-0.025,0.7807-0.0855,1.6536,0.314,2.3492
			c0.0345,0.0602,0.1329,0.0492,0.1499-0.0196c0.1745-0.7038,0.0234-1.4437,0.0452-2.1643
			c0.0247-0.8196,0.3545-1.6413,0.2602-2.4542C67.189,65.3741,66.9621,65.2881,66.8535,65.4598L66.8535,65.4598z"/>
	</g>
</g>
<g>
	<g>
		<path class="st14" d="M50.4378,71.7302c4.7025,2.5861,13.4922,4.6991,16.3746-1.6127c0.0789-0.1728-0.1467-0.3982-0.2883-0.2225
			c-1.9931,2.4721-4.1438,3.9474-7.4316,3.7653c-2.9942-0.1659-5.7831-1.0982-8.5463-2.1871
			C50.3968,71.4143,50.3003,71.6546,50.4378,71.7302L50.4378,71.7302z"/>
	</g>
</g>
<g>
	<g>
		<path class="st14" d="M66.5925,67.11c0.3803,0.2858,0.7555,0.576,1.0889,0.9167c0.2758,0.2819,0.4788,0.6778,0.8231,0.8715
			c0.1568,0.0882,0.3406-0.0572,0.2984-0.2294c-0.1033-0.422-0.5335-0.7525-0.8462-1.0336c-0.361-0.3246-0.7476-0.6176-1.1749-0.849
			C66.564,66.6683,66.4038,66.9681,66.5925,67.11L66.5925,67.11z"/>
	</g>
</g>
<g>
	<g>
		<path class="st14" d="M68.5517,68.3801c0.6865,4.8576-2.4687,8.0445-6.1125,10.7439c-0.2921,0.2164-0.0059,0.7122,0.2878,0.4924
			c3.0108-2.2528,8.5064-7.0059,6.0246-11.3206C68.6851,68.1801,68.5354,68.2648,68.5517,68.3801L68.5517,68.3801z"/>
	</g>
</g>
<g>
	<g>
		<path class="st14" d="M50.1068,76.7031c0.8726,1.0144,2.477,1.5215,3.6686,2.0983c1.2905,0.6247,2.6693,1.0707,4.0874,1.2993
			c0.3983,0.0642,0.5755-0.5008,0.1703-0.6177c-1.3492-0.3892-2.7141-0.7346-4.0432-1.1905
			c-1.3103-0.4495-2.487-1.3957-3.8148-1.7069C50.1044,76.5689,50.0614,76.6503,50.1068,76.7031L50.1068,76.7031z"/>
	</g>
</g>
<g>
	<g>
		<path class="st14" d="M46.2736,49.068c0.1353,0.7878,0.4198,1.5775,0.7432,2.3071c0.2641,0.5958,0.6092,1.4735,1.2156,1.7784
			c0.0822,0.0414,0.1894-0.0083,0.1881-0.1079c-0.0082-0.6346-0.5268-1.2991-0.8288-1.8456
			c-0.4005-0.7249-0.7566-1.4777-1.1681-2.1952C46.3746,48.9196,46.2585,48.9803,46.2736,49.068L46.2736,49.068z"/>
	</g>
</g>
<g>
	<g>
		<path class="st14" d="M61.5786,70.9199c0.2398-0.1987,0.3119-0.4877,0.4335-0.7697c0.1387-0.3218,0.2766-0.644,0.4145-0.9662
			c0.1789-0.4181-0.4402-0.6713-0.5712-0.2408c-0.1118,0.3678-0.2235,0.7356-0.3344,1.1036
			c-0.0883,0.293-0.1928,0.5201-0.1383,0.8214C61.3999,70.963,61.5175,70.9705,61.5786,70.9199L61.5786,70.9199z"/>
	</g>
</g>
<g>
	<path class="st14" d="M92.9172,95.9798l-0.55,0.3199l-0.1901,0.11c-0.1199-0.65-0.23-1.3-0.3398-1.95
		c-0.4601-2.92-0.8401-5.86-1.3301-8.77c-0.6699-3.94-1.99-7.28-5.4299-9.58c-5.1901-3.46-12.0701-3.46-16.79-7.75
		c-0.17-0.16,0.0601-0.47,0.26-0.33c5.6799,4.09,13.51,4.05,18.72,8.83c2.5,2.3,3.3301,5.41,3.9,8.65c0.5,2.83,1.0199,5.66,1.46,8.5
		C92.7272,94.6698,92.8273,95.3198,92.9172,95.9798z"/>
</g>
<g>
	<g>
		<path class="st14" d="M68.7924,71.4735c4.2004,2.7212,9.3292,4.0238,13.2445,7.2009c4.4561,3.6159,5.9808,8.9771,5.2948,14.5287
			c-0.0168,0.1363,0.2063,0.1629,0.2379,0.0322c1.1689-4.839-0.3062-10.0476-3.7203-13.6562
			c-1.8891-1.9967-4.2668-3.2423-6.7174-4.4215c-2.7112-1.3046-5.4426-2.8262-8.2913-3.7984
			C68.771,71.3355,68.7351,71.4364,68.7924,71.4735L68.7924,71.4735z"/>
	</g>
</g>
<g>
	<path class="st14" d="M86.7072,97.4198c-0.02,0.7599-0.1299,1.54-0.3099,2.3199l-1.15,0.67c0.0601-0.15,0.1001-0.31,0.15-0.47
		c0.2001-0.67,0.34-1.36,0.49-2.05c0.16-0.71,0.3199-1.42,0.5399-2.11c0.02-0.07,0.1401-0.09,0.1602,0
		C86.6871,96.2998,86.7172,96.8598,86.7072,97.4198z"/>
</g>
<g>
	<g>
		<path class="st14" d="M73.8283,104.1722c0.3558-2.0838,0.5812-4.1646,1.1512-6.208c0.0724-0.2663,0.15-0.531,0.2329-0.7942
			c0.2656,0.2258,0.5311,0.4516,0.7967,0.6774c0.2893,0.4136,0.4845,1.2236,0.6707,1.694c0.3831,0.9677,0.7309,1.9507,1.2155,2.8724
			c0.1513,0.2877,0.6087,0.0893,0.5212-0.2197c-0.4787-1.6896-1.1877-3.566-1.9935-5.1323
			c-0.2472-0.4805-0.6498-1.1041-1.2962-0.8419c-0.8527,0.3458-0.9574,2.1824-1.116,2.9077
			c-0.3577,1.6352-0.5949,3.3294-0.4818,5.0043C73.5398,104.2916,73.7975,104.3521,73.8283,104.1722L73.8283,104.1722z"/>
	</g>
</g>
<g>
	<g>
		<path class="st14" d="M74.1872,104.2132c0.3622-0.7563,0.3406-1.6848,1.0435-2.2594c0.4663-0.3811,1.0514-0.4858,1.616-0.2551
			c0.3691,0.1508,0.5932,0.4543,0.956,0.6067c0.1193,0.0501,0.2807-0.0776,0.267-0.2034c-0.1273-1.1693-1.8394-1.3638-2.7043-0.9643
			c-1.0766,0.4972-1.6129,1.9113-1.4495,3.0401C73.934,104.3024,74.1348,104.3227,74.1872,104.2132L74.1872,104.2132z"/>
	</g>
</g>
<g>
	<g>
		<path class="st14" d="M41.5883,104.0392c1.3039-2.2426,2.7793-4.0227,4.8811-5.5596c0.3478-0.2543,0.0178-0.8408-0.3431-0.5869
			c-2.0831,1.4657-3.9055,3.6376-4.8379,6.02C41.2196,104.0888,41.4971,104.196,41.5883,104.0392L41.5883,104.0392z"/>
	</g>
</g>
<g>
	<g>
		<path class="st14" d="M46.0159,98.4486c2.9524,0.5165,4.4441-1.4126,6.1681-3.4998c2.2815-2.7624,4.4265-5.7209,6.107-8.8894
			c0.1554-0.2929-0.2715-0.5444-0.4452-0.2602c-1.3486,2.2059-2.6554,4.406-4.1944,6.4876c-1.9815,2.6801-3.893,5.582-7.569,5.6708
			C45.8128,97.964,45.7277,98.3981,46.0159,98.4486L46.0159,98.4486z"/>
	</g>
</g>
<g>
	<g>
		<path class="st14" d="M47.4721,59.2243c0.3117,5.5511,0.0507,10.9026-1.9359,16.1528c-0.2221,0.587,0.7985,0.886,0.9492,0.2617
			c1.2948-5.3645,2.1149-10.954,1.3243-16.4602C47.7822,58.9873,47.4613,59.0322,47.4721,59.2243L47.4721,59.2243z"/>
	</g>
</g>
<g>
	<g>
		<path class="st14" d="M47.7672,59.6865c0.0643,0,0.0645-0.1,0-0.1C47.7029,59.5865,47.7028,59.6865,47.7672,59.6865
			L47.7672,59.6865z"/>
	</g>
</g>
<g>
	<path class="st14" d="M52.8705,86.0454c-3.7739-2.684-2.2205-8.1102-2.1025-12.0358c0.1118-3.7224-0.046-7.4228-0.4567-11.1237
		c-0.124-1.1179,0.1918-3.6358-1.1436-4.3044c-1.006-0.5037-1.7874,0.1685-1.6543,1.1472c0.0219,0.16,0.2028,0.1582,0.2969,0.0671
		c0.0028-0.4618,0.1249-0.9995,0.674-1.0504c0.5947-0.0552,0.9846,0.5692,1.1113,1.072c0.0081,0.0322,0.0027,0.0591,0.0051,0.0892
		c0.002,0.0002,0.004,0.0005,0.0061,0.0008c0.0389,0.2869,0.0702,0.5748,0.0939,0.8636c0.1849,0.6218,0.1378,1.4598,0.1908,2.1149
		c0.1074,1.3293,0.1946,2.6477,0.2321,3.9799c0.0795,2.821,0.1898,5.6244,0.0535,8.4468c-0.1879,3.885-1.2408,8.6556,2.3386,11.3399
		C52.8746,86.9218,53.2394,86.3078,52.8705,86.0454z"/>
</g>
<g>
	<g>
		<path class="st14" d="M52.4821,86.9606c1.3076-1.2886,2.4391-2.7748,3.6914-4.1224c0.5888-0.6336,1.1867-1.2547,1.7992-1.8654
			c0.7925-0.7901,2.949-3.3387,4.1527-0.9844c0.1371,0.2682,0.5973,0.0818,0.4926-0.2077
			c-1.7695-4.8951-9.4447,5.4254-10.3201,7.0378C52.2352,86.9344,52.3855,87.0558,52.4821,86.9606L52.4821,86.9606z"/>
	</g>
</g>
<g>
	<g>
		<path class="st14" d="M62.2433,79.8562c-0.9949,0.474-1.761,1.5551-2.3892,2.437c-0.7216,1.0129-1.3609,2.1317-1.7531,3.3152
			c-0.0944,0.2849,0.3714,0.4907,0.4926,0.2077c0.4646-1.0844,0.9202-2.139,1.6005-3.1109
			c0.6654-0.9507,1.6214-1.6951,2.2416-2.6565C62.5179,79.9211,62.3609,79.8001,62.2433,79.8562L62.2433,79.8562z"/>
	</g>
</g>
<g>
	<g>
		<path class="st14" d="M48.0425,59.3966c0.2083-0.869-0.5272-2.0566-1.3123-2.4139c-0.5842-0.2658-2.0751-0.0462-1.8146,0.8843
			c0.0305,0.109,0.1675,0.209,0.2835,0.161c0.2214-0.0918,0.3403-0.2761,0.55-0.3839c0.3159-0.1624,0.6621-0.091,0.9575,0.0824
			c0.6597,0.3874,0.5928,1.1712,1.0004,1.7139C47.7948,59.5574,48.0023,59.5645,48.0425,59.3966L48.0425,59.3966z"/>
	</g>
</g>
<g>
	<g>
		<path class="st14" d="M45.0029,57.5594c-1.018,2.9066-0.8743,6.1148-1.6479,9.0964c-0.6699,2.5817-1.8872,5.211-1.5835,7.9241
			c0.0574,0.5127,0.809,0.5407,0.8203,0c0.0675-3.2354,1.1184-5.9388,1.7361-9.0616c0.5113-2.5852,0.7178-5.298,1.0049-7.9142
			C45.3546,57.4056,45.0617,57.3915,45.0029,57.5594L45.0029,57.5594z"/>
	</g>
</g>
<g>
	<g>
		<path class="st14" d="M36.6604,66.6941c0.2346-0.7716,0.1016-1.6447,0.078-2.4426c-0.0203-0.6874,0.1178-1.4939-0.235-2.1019
			c-0.0285-0.0491-0.1073-0.0525-0.1349,0c-0.3266,0.6217-0.1577,1.4147-0.1495,2.1019c0.0095,0.7989-0.0883,1.6807,0.1778,2.4426
			C36.4406,66.8197,36.6197,66.828,36.6604,66.6941L36.6604,66.6941z"/>
	</g>
</g>
<g>
	<g>
		<path class="st14" d="M36.491,62.889c0.1233-0.2898,0.1107-0.592,0.1847-0.8986c0.0932-0.3862,0.2573-0.7539,0.4919-1.0753
			c0.2704-0.3705,0.8043-0.9362,1.3189-0.7955c0.3292,0.09,0.4608,0.4486,0.79,0.5365c0.0915,0.0244,0.206-0.0474,0.1978-0.1507
			c-0.0331-0.4154-0.4605-0.7693-0.8502-0.8846c-0.4869-0.1442-0.9419,0.091-1.3107,0.3953
			c-0.6896,0.569-1.5592,1.9626-1.0787,2.873C36.2825,62.9797,36.4471,62.9922,36.491,62.889L36.491,62.889z"/>
	</g>
</g>
<g>
	<g>
		<path class="st14" d="M39.069,60.365c1.3214,1.8876,1.1871,5.2791,1.4545,7.5425c0.2718,2.3012,0.5731,4.5998,0.8359,6.902
			c0.0657,0.5754,0.8793,0.4755,0.7903-0.107c-0.4702-3.0789-0.9041-6.1689-1.3309-9.254
			c-0.2121-1.5327,0.0644-4.4517-1.5841-5.2492C39.136,60.1516,38.9933,60.2569,39.069,60.365L39.069,60.365z"/>
	</g>
</g>
<g>
	<g>
		<path class="st14" d="M39.3756,79.2225c-0.1744-2.7285-0.5856-5.4548-1.0337-8.1508c-0.274-1.6482-0.1754-3.9147-1.8906-4.7183
			c-0.3466-0.1624-0.6527,0.345-0.3036,0.5194c1.6346,0.8166,1.6672,4.5458,1.92,6.1412c0.3302,2.0844,0.5475,4.1825,0.8322,6.2728
			C38.9365,79.5561,39.3929,79.4936,39.3756,79.2225L39.3756,79.2225z"/>
	</g>
</g>
<g>
	<g>
		<path class="st14" d="M36.6731,66.5818c-1.5144-0.8868-2.0382,1.1804-2.1087,2.3065c-0.1327,2.1186,0.3228,4.4245,0.4667,6.5363
			c0.1322,1.9395,0.2103,3.8987,0.5399,5.8155c0.0399,0.2318,0.3943,0.1675,0.399-0.054c0.0471-2.2364-0.2329-4.4915-0.4041-6.7218
			c-0.095-1.2377-1.2503-7.7089,1.0224-7.5696C36.7589,66.9053,36.8112,66.6626,36.6731,66.5818L36.6731,66.5818z"/>
	</g>
</g>
<g>
	<g>
		<path class="st14" d="M35.4776,81.0952c-0.8401,2.6934-0.9564,5.7497-0.8986,8.5531c0.0508,2.4647,0.1856,5.321,1.1808,7.6011
			c0.0526,0.1204,0.243,0.0554,0.2402-0.0651c-0.0623-2.6761-0.7399-5.312-0.8101-8.0117c-0.0708-2.7228,0.3803-5.3375,0.5716-8.039
			C35.7734,80.9659,35.5245,80.9448,35.4776,81.0952L35.4776,81.0952z"/>
	</g>
</g>
<g>
	<g>
		<path class="st14" d="M44.5375,84.0216c0.4036-0.3767,0.8429-0.7028,1.2969-1.0157c0.3789-0.2611,0.8522-0.4324,1.1819-0.7498
			c0.1334-0.1285-0.011-0.3016-0.1634-0.2807c-0.4952,0.0677-0.9829,0.4618-1.3751,0.7552c-0.4212,0.3152-0.78,0.7138-1.1115,1.1197
			C44.2691,83.9692,44.4213,84.13,44.5375,84.0216L44.5375,84.0216z"/>
	</g>
</g>
<g>
	<g>
		<path class="st14" d="M34.2602,96.1561c-1.6226,3.092-0.8264,6.9749,2.0508,9.0589c1.1855,0.8587,2.8402,1.4306,4.2508,0.7643
			c1.091-0.5153,1.8523-1.5798,1.5617-2.7768c-0.0406-0.1672-0.2986-0.1678-0.339,0c-0.953,3.9625-5.3559,2.0568-6.8126-0.4621
			c-1.176-2.0335-1.1518-4.2731-0.3333-6.4248C34.7221,96.0961,34.3683,95.9501,34.2602,96.1561L34.2602,96.1561z"/>
	</g>
</g>
<g>
	<path class="st14" d="M20.6771,86.4698c-1.3899-0.72-1.21,2.81-1.24,3.2c-0.0599,0.79-0.1399,1.5699-0.25,2.36
		c-0.0798,0.59-0.1699,1.18-0.2899,1.77c-0.12,0.63-0.28,1.26-0.48,1.8701l-0.09-0.05l-0.2001-0.12l-0.0699-0.04
		c0.09-0.65,0.21-1.3,0.33-1.95c0.13-0.76,0.26-1.52,0.34-2.29c0.15-1.43-0.09-3.04,0.2-4.43c0.2201-1.08,1.3801-1.78,2.02-0.58
		C21.0372,86.3798,20.8573,86.5598,20.6771,86.4698z"/>
</g>
<g>
	<g>
		<path class="st14" d="M20.5654,85.7881c0.6826-3.0775,0.8085-6.6487,4.6774-7.1616c0.3876-0.0514,0.395-0.5641,0-0.6094
			c-3.8949-0.4469-5.2489,4.8025-5.0534,7.7201C20.2031,85.9412,20.5161,86.0107,20.5654,85.7881L20.5654,85.7881z"/>
	</g>
</g>
<g>
	<g>
		<path class="st14" d="M24.6667,78.3459c3.4587-1.7182,6.0643-3.9167,10.0745-4.3685c0.3894-0.0439,0.411-0.6393,0-0.625
			c-3.7012,0.1287-7.5929,2.2636-10.2117,4.8155C24.4337,78.2612,24.5548,78.4015,24.6667,78.3459L24.6667,78.3459z"/>
	</g>
</g>
<g>
	<g>
		<path class="st14" d="M27.9672,78.5776c1.0439,0.4061,2.1594,0.5671,3.2264,0.9048c1.0665,0.3375,2.0463,0.9086,3.1216,1.2009
			c0.1397,0.038,0.2675-0.1522,0.1482-0.2546c-1.5482-1.3303-4.4778-2.193-6.4963-1.9189
			C27.9288,78.515,27.9394,78.5668,27.9672,78.5776L27.9672,78.5776z"/>
	</g>
</g>
<g>
	<g>
		<path class="st14" d="M24.725,89.8839c1.323,1.322,2.6579,2.5893,3.8325,4.0495c1.1607,1.443,2.2505,2.943,3.524,4.2895
			c0.1129,0.1193,0.2772-0.0319,0.2147-0.1657c-1.5284-3.2733-4.5044-6.21-7.2674-8.4771
			C24.8191,89.408,24.5254,89.6844,24.725,89.8839L24.725,89.8839z"/>
	</g>
</g>
<g>
	<path class="st14" d="M33.7272,97.1898c-0.5699,1.09-1.4299,2.08-2.1699,3.07c-0.15,0.2-0.29,0.4-0.4401,0.6
		c-0.36,0.5099-0.74,1.02-1.17,1.47l-0.1499-0.09l-0.3301-0.19c0.3-0.54,0.67-1.05,1.05-1.54c0.24-0.32,0.49-0.63,0.73-0.94
		c0.6799-0.89,1.3101-1.89,2.1101-2.67C33.5573,96.7098,33.8473,96.9498,33.7272,97.1898z"/>
</g>
<g>
	<path class="st14" d="M40.3172,108.3198c0.39-0.47,0.62-1.09,0.86-1.65c0.03-0.06,0.06-0.13,0.09-0.19
		c0.32-0.7,0.61-1.74,1.13-2.32c0.04-0.04,0.06-0.12,0.02-0.17c-0.01-0.02-0.02-0.04-0.04-0.05c-0.08-0.12-0.24-0.16-0.35-0.05
		c-0.58,0.61-0.9,1.55-1.29,2.29c-0.03,0.06-0.07,0.12-0.1,0.18c-0.3,0.53-0.65,1.09-0.79,1.68L40.3172,108.3198z"/>
</g>
<g>
	<g>
		<path class="st14" d="M34.1513,97.6394c0.3859,0.0345,0.6751-0.569,0.9099-0.8218c0.2821-0.3036,0.7816-0.5775,0.8186-1.0122
			c0.0073-0.0854-0.0758-0.148-0.1523-0.1523c-0.5427-0.0308-1.0557,0.8118-1.351,1.1969
			C34.3251,96.9171,33.7917,97.6072,34.1513,97.6394L34.1513,97.6394z"/>
	</g>
</g>
<g>
	<g>
		<path class="st14" d="M33.6612,97.2264c0.205-0.0332,0.3329-0.1625,0.5201-0.2512c0.1782-0.0844,0.2951-0.0948,0.4244-0.245
			c0.0536-0.0622,0.0531-0.1653-0.0269-0.2086c-0.3892-0.211-1.0212,0.1662-1.0561,0.5993
			C33.5165,97.1986,33.5973,97.2368,33.6612,97.2264L33.6612,97.2264z"/>
	</g>
</g>
<g>
	<g>
		<path class="st14" d="M34.9537,96.1296c-0.2214-0.1756-0.4065-0.1871-0.6569-0.0379c-0.283,0.1686-0.3086,0.3611-0.3408,0.6638
			c-0.0096,0.0902,0.0594,0.2069,0.1407,0.2453c0.1599,0.0755,0.2389,0.0482,0.3664-0.0732
			c0.1503-0.143,0.3273-0.2845,0.4905-0.4334C35.0483,96.4079,35.0596,96.2135,34.9537,96.1296L34.9537,96.1296z"/>
	</g>
</g>
<g>
	<g>
		<path class="st14" d="M41.3329,105.4931c0.0535-0.1097,0.1071-0.2194,0.1606-0.3291c0.0433-0.0265,0.0054-0.0893-0.0394-0.0675
			c-0.1859,0.0905-0.2244,0.211-0.244,0.4132C41.2016,105.5974,41.3601,105.5855,41.3329,105.4931L41.3329,105.4931z"/>
	</g>
</g>
<g>
	<g>
		<path class="st14" d="M41.356,106.5217c0.7553-0.8936,1.0523-2.1079,1.086-3.2577c-0.1837,0.1054-0.3675,0.2109-0.5512,0.3163
			c0.0032,0.0091,0.0064,0.0182,0.0096,0.0274c0.2087,0.4285,0.887,0.0449,0.6454-0.3773
			c-0.0789-0.1379-0.1457-0.2064-0.2852-0.2827c-0.2344-0.1281-0.5623,0.0297-0.5512,0.3163
			c0.0432,1.1198-0.2733,2.039-0.6929,3.0601C40.9396,106.5112,41.2295,106.6715,41.356,106.5217L41.356,106.5217z"/>
	</g>
</g>
<g>
	<g>
		<path class="st14" d="M42.4403,45.5898c0.1893-0.279,0.1232-0.6378,0.1044-0.9623c-0.018-0.3114-0.0022-0.5985-0.2261-0.8298
			c-0.0588-0.0608-0.1526-0.04-0.1963,0.0253c-0.1786,0.2672-0.1072,0.5638-0.065,0.8705c0.0445,0.3232,0.0348,0.6685,0.2725,0.9105
			C42.3634,45.6381,42.4153,45.6266,42.4403,45.5898L42.4403,45.5898z"/>
	</g>
</g>
<g>
	<g>
		<path class="st14" d="M42.1324,35.3446c-0.7673,3.1853-1.2077,7.4827,0.3564,10.4971c0.1132,0.2181,0.4775,0.1189,0.4659-0.1262
			c-0.0817-1.7279-0.6428-3.4073-0.7725-5.1466c-0.1307-1.7522-0.073-3.458,0.096-5.2045
			C42.2863,35.2806,42.1517,35.2643,42.1324,35.3446L42.1324,35.3446z"/>
	</g>
</g>
<g>
	<g>
		<path class="st14" d="M43.4448,46.0724c-0.1393-0.479-0.5003-0.8873-0.6802-1.3609c-0.1666-0.4388-0.1916-0.942-0.416-1.3508
			c-0.0647-0.1178-0.242-0.0858-0.2784,0.0364c-0.1449,0.4854,0.0668,1.0497,0.2528,1.5006
			c0.1932,0.4686,0.4606,1.0725,0.921,1.3291C43.3461,46.2837,43.4788,46.1893,43.4448,46.0724L43.4448,46.0724z"/>
	</g>
</g>
<g>
	<g>
		<path class="st14" d="M55.1241,44.9806c-0.0063,0.003-0.0126,0.0059-0.0188,0.0089c-0.1193,0.0565-0.1256,0.2052-0.081,0.3088
			c0.2432,0.5643,0.9272,0.8745,1.5031,0.6142c0.5395-0.2439,0.8017-0.9586,0.3746-1.4177c-0.1573-0.169-0.4217,0.009-0.3721,0.2166
			c0.0787,0.3298,0.0889,0.6774-0.3177,0.7775c-0.3512,0.0865-0.6169-0.1586-0.7981-0.4185
			c-0.0544-0.078-0.1564-0.1383-0.2549-0.1037C55.1472,44.9707,55.1355,44.9753,55.1241,44.9806L55.1241,44.9806z"/>
	</g>
</g>
<g>
	<g>
		<path class="st14" d="M66.6299,44.0635c-0.6465,0.1435-0.4187,1.074,0.0396,1.3176c0.5657,0.3007,1.1838-0.1296,1.162-0.7458
			c-0.0028-0.0779-0.0414-0.1656-0.1156-0.2016c-0.0255-0.0124-0.051-0.0247-0.0765-0.0371
			c-0.0493-0.0239-0.1271-0.028-0.1657,0.0214c-0.0902,0.1155-0.0738,0.2063-0.1389,0.3337
			c-0.0021,0.1616-0.1012,0.2063-0.2975,0.1341c-0.2598,0.1068-0.3552,0.0252-0.2862-0.2449
			c-0.0198-0.282-0.0147-0.218,0.0231-0.4333C66.7896,44.1186,66.7223,44.043,66.6299,44.0635L66.6299,44.0635z"/>
	</g>
</g>
<g>
	<g>
		<path class="st14" d="M56.7498,45.3228c0.1721-0.4794-0.4994-0.8715-0.8674-0.5313c-0.3987,0.3686-0.0171,0.927,0.4656,0.8071
			c0.2172-0.0539,0.3105-0.3144,0.2042-0.5019c-0.2063-0.3636-0.7099-0.6621-1.0307-0.2313
			c-0.3306,0.4439,0.1779,0.8295,0.5934,0.8289c0.3176-0.0005,0.5281-0.4306,0.272-0.6566
			c-0.1325-0.1169-0.265-0.2338-0.3974-0.3507c0.0205,0.1591,0.0411,0.3182,0.0616,0.4772
			c0.0199-0.0309,0.0398-0.0617,0.0597-0.0926c0.0592-0.0918,0.0393-0.2332-0.0397-0.3077
			c-0.0272-0.0257-0.0544-0.0513-0.0816-0.077c-0.3734-0.3523-0.9435,0.2389-0.5569,0.5569
			c0.1368,0.1126,0.2736,0.2252,0.4105,0.3377c0.0907-0.2189,0.1813-0.4377,0.272-0.6566
			c-0.1349-0.0063-0.1406,0.0036-0.0169,0.0297c0.0122,0.0932,0.0244,0.1865,0.0366,0.2797
			c0.0128-0.0315,0.0256-0.063,0.0385-0.0944c-0.0546,0.071-0.1092,0.142-0.1638,0.213c-0.1229-0.0425-0.1386-0.013-0.0471,0.0885
			c0.0681-0.1673,0.1361-0.3346,0.2042-0.5019c-0.0265,0.0062-0.0529,0.0125-0.0793,0.0187
			c0.0879,0.0115,0.1758,0.023,0.2636,0.0345c0.0011,0.0046,0.0022,0.0092,0.0033,0.0139c0.0115,0.0881,0.0231,0.1763,0.0346,0.2644
			c-0.0335,0.1418-0.0397,0.1217,0.1401,0.1771C56.6267,45.4784,56.7178,45.412,56.7498,45.3228L56.7498,45.3228z"/>
	</g>
</g>
<g>
	<g>
		<path class="st14" d="M66.814,44.3117c-0.384,0.4088-0.0417,1.2525,0.5547,0.907c0.5085-0.2946,0.1043-1.1065-0.4319-0.9249
			c-0.1194,0.0404-0.1998,0.1604-0.1637,0.2883c0.0126,0.0589,0.0322,0.1153,0.0589,0.1692
			c0.0507,0.0951,0.0688,0.0901,0.0545-0.0148c0.0702-0.054,0.1404-0.108,0.2106-0.162c-0.0311,0.0062-0.0622,0.0125-0.0933,0.0187
			c0.0897,0.0117,0.1794,0.0235,0.2691,0.0352c0.0039,0.0019-0.0242-0.1755-0.028-0.203
			C67.2178,44.2302,66.9351,44.1828,66.814,44.3117L66.814,44.3117z"/>
	</g>
</g>
<g>
	<g>
		<path class="st14" d="M58.1102,60.0409c1.169,0.1547,2.4223,0.0298,3.5343-0.3354c0.0719-0.0236,0.0642-0.1428-0.0187-0.1381
			c-1.1665,0.0655-2.3455,0.1333-3.5157,0.2157C57.9407,59.795,57.9486,60.0195,58.1102,60.0409L58.1102,60.0409z"/>
	</g>
</g>
<g>
	<g>
		<path class="st14" d="M61.6422,59.6917c0.0643,0,0.0645-0.1,0-0.1C61.5779,59.5917,61.5778,59.6917,61.6422,59.6917
			L61.6422,59.6917z"/>
	</g>
</g>
<g>
	<g>
		<path class="st14" d="M61.6847,59.6814c0.0555-0.0084,0.111-0.0169,0.1664-0.0253c0.1118-0.017,0.0364-0.2114-0.0602-0.1428
			c-0.0454,0.0322-0.0909,0.0645-0.1363,0.0967C61.6174,59.6365,61.6408,59.6881,61.6847,59.6814L61.6847,59.6814z"/>
	</g>
</g>
<g>
	<g>
		<path class="st14" d="M63.8138,59.653c0.4726,0.0613,0.9407,0.1183,1.4111,0.1943c0.3677,0.0594,0.749,0.1574,1.1185,0.1627
			c0.0411,0.0006,0.0709-0.058,0.0359-0.0867c-0.6545-0.5367-1.7449-0.687-2.5655-0.6219
			C63.5836,59.3197,63.5925,59.6243,63.8138,59.653L63.8138,59.653z"/>
	</g>
</g>
<g>
	<g>
		<path class="st14" d="M62.8547,57.3462c0.0176-0.513-0.0335-1.0839-0.2353-1.5592c-0.0239-0.0562-0.1272-0.0435-0.1357,0.0177
			c-0.0712,0.5133,0.028,1.0752,0.1792,1.5674C62.6954,57.4779,62.8509,57.4572,62.8547,57.3462L62.8547,57.3462z"/>
	</g>
</g>
<g>
	<g>
		<path class="st14" d="M60.6407,58.4105c-0.0387,0.1005,0.0866,0.0641,0.1214,0.0512
			C60.8035,58.4463,60.6938,58.2726,60.6407,58.4105L60.6407,58.4105z"/>
	</g>
</g>
<g>
	<g>
		<path class="st14" d="M50.7846,53.2604c2.0421,1.5013,2.693,3.4995,2.5484,5.9473c-0.0792,1.34-0.2235,2.5077,0.6283,3.6267
			c0.0896,0.1177,0.2724,0.0197,0.2024-0.1183c-1.0703-2.1071,0.0482-4.3204-0.7077-6.4853
			c-0.4701-1.3465-1.3828-2.3857-2.5609-3.1593C50.7753,52.9929,50.6735,53.1787,50.7846,53.2604L50.7846,53.2604z"/>
	</g>
</g>
<g>
	<g>
		<path class="st14" d="M57.0723,61.5954c-0.0154-0.5243,0.2384-0.9445,0.3233-1.4377c0.0246-0.1432-0.128-0.2383-0.2416-0.1406
			c-0.4617,0.397-0.4207,1.0718-0.3196,1.6105C56.8597,61.7623,57.0763,61.7305,57.0723,61.5954L57.0723,61.5954z"/>
	</g>
</g>
<g id="Layer_2_16_">
	<g id="Layer_16_16_">
		<path class="st15" d="M39.5473,105.7298l-2.0601-1.1801l-0.8999-0.52l-0.8301-0.49l-0.64-0.37l-0.72-0.42
			c0.0499,0.18,0.11,0.36,0.17,0.54c1.04,0.77,2.1899,1.6,3.1299,2.55c0.67,0.06,1.3201,0.06,1.99-0.03L39.5473,105.7298z
			 M39.5473,105.7298l-2.0601-1.1801l-0.8999-0.52l-0.8301-0.49l-0.64-0.37l-0.72-0.42c0.0499,0.18,0.11,0.36,0.17,0.54
			c1.04,0.77,2.1899,1.6,3.1299,2.55c0.67,0.06,1.3201,0.06,1.99-0.03L39.5473,105.7298z M39.5473,105.7298l-2.0601-1.1801
			l-0.8999-0.52l-0.8301-0.49l-0.64-0.37l-0.72-0.42c0.0499,0.18,0.11,0.36,0.17,0.54c1.04,0.77,2.1899,1.6,3.1299,2.55
			c0.67,0.06,1.3201,0.06,1.99-0.03L39.5473,105.7298z M39.5473,105.7298l-2.0601-1.1801l-0.8999-0.52l-0.8301-0.49l-0.64-0.37
			l-0.72-0.42c0.0499,0.18,0.11,0.36,0.17,0.54c1.04,0.77,2.1899,1.6,3.1299,2.55c0.67,0.06,1.3201,0.06,1.99-0.03L39.5473,105.7298
			z M39.5473,105.7298l-2.0601-1.1801l-0.8999-0.52l-0.8301-0.49l-0.64-0.37l-0.72-0.42c0.0499,0.18,0.11,0.36,0.17,0.54
			c1.04,0.77,2.1899,1.6,3.1299,2.55c0.67,0.06,1.3201,0.06,1.99-0.03L39.5473,105.7298z M96.7972,34.6598l-0.53-0.3l-0.72-0.42
			l-0.77-0.45l-0.11-0.06l-0.4901-0.28l-0.5099-0.29l-0.9-0.52l-7.24-4.18l-1.71-0.98l-0.72-0.42l-0.4501-0.26l-0.49-0.29
			l-0.0499-0.02l-0.4202-0.25l-0.4099-0.24l-5.3301-3.07l-19.49-11.24l-0.53-0.31l-0.47,0.27l-22.1299,12.78l-1.3,0.75l-0.53,0.31
			l-0.1,0.05c-0.01,0-0.01,0-0.01,0l-0.25,0.15l-0.42,0.25l-0.2999,0.17l-0.27,0.16l-0.1801,0.1l-1.5,0.87h-0.01l-1.78,1.02
			l-0.0099,0.01l-0.58,0.34l-0.75,0.43l-0.01,0.01l-0.03,0.02l-3.25,1.87h-0.01l-2.38,1.37l-1,0.58l-7.2101,4.16l-1.5399,0.89v53.12
			l0.0699,0.04l1.72,1l0.75,0.4301l0.1501,0.08l5.46,3.15l0.0699,0.04l0.2001,0.12l0.09,0.05l3.1901,1.85l1.7599,1.01l2.4,1.39
			l0.24,0.14l0.73,0.42l0.72,0.42l0.22,0.12l1.6802,0.97l0.1099,0.06l0.3301,0.19l0.1499,0.09l2.17,1.25l3.15,1.82l0.88,0.5
			l1.33,0.78l0.89,0.51l0.4901,0.28l0.6699,0.39l0.3201,0.18l0.47,0.28l3.3099,1.9l5.92,3.42l0.6399,0.37l3.0901,1.78l0.1,0.06
			l1.29,0.74l1.0299,0.6l0.23,0.13l0.3801-0.22l0.3099-0.18l2.58-1.48l8.4401-4.87l0.67-0.39l3.1599-1.8199h0.01l0.4401-0.26
			l4.7799-2.76l0.9001-0.52l5.1799-2.98l0.38-0.22l1.11-0.65l0.98-0.56l1.15-0.67l0.84-0.48l1.5601-0.9l1.76-1.02l1.6199-0.93
			l0.0801-0.05l0.11-0.0601l0.55-0.3199l7.12-4.11l0.8999-0.52l1.03-0.59v-53.12L96.7972,34.6598z M100.0973,89.6898l-0.52,0.3
			l-0.3201,0.1801l-0.5801,0.34l-6.0499,3.5l-0.46,0.26l-0.02,0.01l-0.3099,0.18l-0.75,0.43l-0.75,0.44l-3.6301,2.09l-0.28,0.16
			l-0.5399,0.31l-2.58,1.49l-1.28,0.74l-0.72,0.41l-3.91,2.26l-1.16,0.67l-0.8999,0.52l-3.9102,2.25l-0.0798,0.05l-0.8701,0.5
			l-3.0599,1.77l-1.54,0.89l-7.8099,4.51l-2.1401,1.23l-4.6799-2.7l-3.1699-1.83l-0.66-0.38l-6.03-3.48l-0.2101-0.12l-0.1599-0.09
			l-0.01-0.01l-0.09-0.05l-0.28-0.16l-0.9401-0.55h-0.01l-0.1399-0.08l-2.0601-1.1801l-0.8999-0.52l-0.8301-0.49l-0.64-0.37
			l-0.72-0.42l-3.28-1.89l-0.23-0.13h-0.01l-0.24-0.15l-0.12-0.07l-2.5701-1.48l-3.8999-2.26l-1.76-1.01l-3.39-1.96l-0.02-0.0099
			h-0.01l-0.0499-0.03l-0.4301-0.25l-4.4301-2.56l-0.8999-0.51l-0.39-0.23l-0.2301-0.13l-0.6699-0.39v-50.97l6.89-3.98l0.9301-0.54
			h0.01l0.0599-0.04l3.2001-1.85h0.0099l1.36-0.79h0.01l1.78-1.03l1.25-0.72l0.4299-0.25h0.01l1.22-0.71h0.01l2.9801-1.72
			c0.0099-0.01,0.0099-0.01,0.0199-0.01l0.78-0.45l0.3501-0.2l0.2-0.12l0.29-0.17l0.1699-0.1l0.27-0.15l0.04-0.02l21.4199-12.37
			l0.47-0.27l0.53,0.31l16.8201,9.71l6.98,4.03l0.05,0.03l0.3199,0.18l0.11,0.06l0.4399,0.26l0.3501,0.2l1.23,0.71l1.9399,1.12
			l7.01,4.04l1.41,0.81l0.55,0.32l0.0399,0.03l0.77,0.44l0.1901,0.11l0.5399,0.31l0.53,0.31l4.3601,2.51V89.6898z M39.5473,105.7298
			l-2.0601-1.1801l-0.8999-0.52l-0.8301-0.49l-0.64-0.37l-0.72-0.42c0.0499,0.18,0.11,0.36,0.17,0.54
			c1.04,0.77,2.1899,1.6,3.1299,2.55c0.67,0.06,1.3201,0.06,1.99-0.03L39.5473,105.7298z M39.5473,105.7298l-2.0601-1.1801
			l-0.8999-0.52l-0.8301-0.49l-0.64-0.37l-0.72-0.42c0.0499,0.18,0.11,0.36,0.17,0.54c1.04,0.77,2.1899,1.6,3.1299,2.55
			c0.67,0.06,1.3201,0.06,1.99-0.03L39.5473,105.7298z M39.5473,105.7298l-2.0601-1.1801l-0.8999-0.52l-0.8301-0.49l-0.64-0.37
			l-0.72-0.42c0.0499,0.18,0.11,0.36,0.17,0.54c1.04,0.77,2.1899,1.6,3.1299,2.55c0.67,0.06,1.3201,0.06,1.99-0.03L39.5473,105.7298
			z M39.5473,105.7298l-2.0601-1.1801l-0.8999-0.52l-0.8301-0.49l-0.64-0.37l-0.72-0.42c0.0499,0.18,0.11,0.36,0.17,0.54
			c1.04,0.77,2.1899,1.6,3.1299,2.55c0.67,0.06,1.3201,0.06,1.99-0.03L39.5473,105.7298z M39.5473,105.7298l-2.0601-1.1801
			l-0.8999-0.52l-0.8301-0.49l-0.64-0.37l-0.72-0.42c0.0499,0.18,0.11,0.36,0.17,0.54c1.04,0.77,2.1899,1.6,3.1299,2.55
			c0.67,0.06,1.3201,0.06,1.99-0.03L39.5473,105.7298z M39.5473,105.7298l-2.0601-1.1801l-0.8999-0.52l-0.8301-0.49l-0.64-0.37
			l-0.72-0.42c0.0499,0.18,0.11,0.36,0.17,0.54c1.04,0.77,2.1899,1.6,3.1299,2.55c0.67,0.06,1.3201,0.06,1.99-0.03L39.5473,105.7298
			z"/>
	</g>
</g>
</svg>
