<?xml version="1.0" encoding="UTF-8"?>
<svg width="260px" height="81px" viewBox="0 0 260 81" version="1.1" xmlns="http://www.w3.org/2000/svg" xmlns:xlink="http://www.w3.org/1999/xlink">
    <!-- Generator: Sketch 50.2 (55047) - http://www.bohemiancoding.com/sketch -->
    <title>logo</title>
    <desc>Created with Sketch.</desc>
    <defs></defs>
    <g id="Page-1" stroke="none" stroke-width="1" fill="none" fill-rule="evenodd">
        <g id="Headers-Copy" transform="translate(-574.000000, -174.000000)">
            <g id="logo" transform="translate(577.000000, 174.000000)">
                <path d="M82.796875,38.25 L96.8828125,23.8125 L104.171875,23.8125 L87.8125,40.1953125 L104.265625,60 L96.953125,60 L83.921875,43.8984375 L82.796875,45.0234375 L82.796875,60 L77.3359375,60 L77.3359375,23.8125 L82.796875,23.8125 L82.796875,38.25 Z M117.531563,23.8125 L117.531563,45.609375 C117.531563,48.7187655 118.03937,50.9921803 119.055,52.4296875 C120.570633,54.5078229 122.703424,55.546875 125.453438,55.546875 C128.219076,55.546875 130.35968,54.5078229 131.875313,52.4296875 C132.890943,51.0390555 133.39875,48.7656408 133.39875,45.609375 L133.39875,23.8125 L138.859688,23.8125 L138.859688,47.109375 C138.859688,50.9218941 137.672199,54.0624877 135.297188,56.53125 C132.625299,59.2812638 129.344082,60.65625 125.453438,60.65625 C121.562793,60.65625 118.289388,59.2812638 115.633125,56.53125 C113.258113,54.0624877 112.070625,50.9218941 112.070625,47.109375 L112.070625,23.8125 L117.531563,23.8125 Z M150.461563,60 L150.461563,23.8125 L158.055313,23.8125 C161.695956,23.8125 164.570927,24.1718714 166.680313,24.890625 C168.945949,25.5937535 171.000616,26.7890541 172.844375,28.4765625 C176.578769,31.8828295 178.445938,36.3593473 178.445938,41.90625 C178.445938,47.4687778 176.500645,51.9687328 172.61,55.40625 C170.656865,57.1250086 168.610011,58.3203091 166.469375,58.9921875 C164.469365,59.6640659 161.633456,60 157.961563,60 L150.461563,60 Z M155.9225,54.8671875 L158.383438,54.8671875 C160.836575,54.8671875 162.875617,54.6093776 164.500625,54.09375 C166.125633,53.5468723 167.594369,52.6796934 168.906875,51.4921875 C171.594389,49.0390502 172.938125,45.8437697 172.938125,41.90625 C172.938125,37.9374802 171.610013,34.7187623 168.95375,32.25 C166.563113,30.046864 163.039711,28.9453125 158.383438,28.9453125 L155.9225,28.9453125 L155.9225,54.8671875 Z M186.438438,41.7421875 C186.438438,36.648412 188.305607,32.2734558 192.04,28.6171875 C195.758769,24.9609192 200.227474,23.1328125 205.44625,23.1328125 C210.602526,23.1328125 215.024357,24.9765441 218.711875,28.6640625 C222.415019,32.3515809 224.266563,36.7812241 224.266563,41.953125 C224.266563,47.156276 222.407206,51.5702944 218.688438,55.1953125 C214.954044,58.8359557 210.446277,60.65625 205.165,60.65625 C200.493102,60.65625 196.297831,59.0390787 192.579063,55.8046875 C188.485292,52.2265446 186.438438,47.5390915 186.438438,41.7421875 Z M191.94625,41.8125 C191.94625,45.81252 193.289987,49.1015496 195.9775,51.6796875 C198.649389,54.2578254 201.735295,55.546875 205.235313,55.546875 C209.032207,55.546875 212.2353,54.2343881 214.844688,51.609375 C217.454076,48.9531117 218.75875,45.7187691 218.75875,41.90625 C218.75875,38.0468557 217.469701,34.812513 214.891563,32.203125 C212.32905,29.5781119 209.157207,28.265625 205.375938,28.265625 C201.610294,28.265625 198.430638,29.5781119 195.836875,32.203125 C193.243112,34.796888 191.94625,37.9999809 191.94625,41.8125 Z M254.524688,29.203125 L250.095,31.828125 C249.266871,30.3906178 248.477817,29.4531272 247.727813,29.015625 C246.946559,28.5156225 245.938756,28.265625 244.704375,28.265625 C243.188743,28.265625 241.930943,28.6953082 240.930938,29.5546875 C239.930933,30.3984417 239.430938,31.4609311 239.430938,32.7421875 C239.430938,34.5078213 240.743425,35.9296821 243.368438,37.0078125 L246.977813,38.484375 C249.915327,39.6718809 252.063743,41.1210852 253.423125,42.8320312 C254.782507,44.5429773 255.462188,46.6406126 255.462188,49.125 C255.462188,52.4531416 254.352824,55.2031141 252.134063,57.375 C249.899677,59.5625109 247.126267,60.65625 243.81375,60.65625 C240.67311,60.65625 238.079386,59.7265718 236.0325,57.8671875 C234.016865,56.0078032 232.759065,53.3906419 232.259063,50.015625 L237.790313,48.796875 C238.040314,50.9218856 238.47781,52.3906209 239.102813,53.203125 C240.227818,54.7656328 241.868427,55.546875 244.024688,55.546875 C245.727821,55.546875 247.14187,54.9765682 248.266875,53.8359375 C249.391881,52.6953068 249.954375,51.2500087 249.954375,49.5 C249.954375,48.7968715 249.85672,48.1523467 249.661407,47.5664062 C249.466093,46.9804658 249.161409,46.4414087 248.747344,45.9492188 C248.333279,45.4570288 247.798129,44.9960959 247.141875,44.5664062 C246.485622,44.1367166 245.70438,43.7265645 244.798125,43.3359375 L241.305938,41.8828125 C236.352788,39.789052 233.87625,36.7265827 233.87625,32.6953125 C233.87625,29.9765489 234.915302,27.7031341 236.993438,25.875 C239.071573,24.0312408 241.657485,23.109375 244.75125,23.109375 C248.923146,23.109375 252.180926,25.1406047 254.524688,29.203125 Z" id="KUDOS" fill="#FFFFFF"></path>
                <path d="M184.371094,80 L181.072266,80 L181.072266,71.5449219 L184.306641,71.5449219 C185.083988,71.5449219 185.69531,71.7343731 186.140625,72.1132812 C186.58594,72.4921894 186.808594,73.0058561 186.808594,73.6542969 C186.808594,74.0917991 186.666994,74.4863264 186.383789,74.8378906 C186.100585,75.1894549 185.755861,75.4023434 185.349609,75.4765625 L185.349609,75.5703125 C185.927737,75.6445316 186.386717,75.8662091 186.726562,76.2353516 C187.066408,76.604494 187.236328,77.0683566 187.236328,77.6269531 C187.236328,78.3691443 186.983401,78.9501932 186.477539,79.3701172 C185.971677,79.7900412 185.269536,80 184.371094,80 Z M182.126953,72.4765625 L182.126953,75.1894531 L183.814453,75.1894531 C184.455081,75.1894531 184.936522,75.076173 185.258789,74.8496094 C185.581056,74.6230457 185.742188,74.2851585 185.742188,73.8359375 C185.742188,73.4062479 185.596681,73.0722668 185.305664,72.8339844 C185.014647,72.5957019 184.607424,72.4765625 184.083984,72.4765625 L182.126953,72.4765625 Z M182.126953,79.0683594 L184.212891,79.0683594 C184.849613,79.0683594 185.33203,78.9414075 185.660156,78.6875 C185.988283,78.4335925 186.152344,78.0625024 186.152344,77.5742188 C186.152344,77.0859351 185.981447,76.7177747 185.639648,76.4697266 C185.29785,76.2216784 184.789066,76.0976562 184.113281,76.0976562 L182.126953,76.0976562 L182.126953,79.0683594 Z M193.111328,80 L192.056641,80 L192.056641,76.3613281 L189.056641,71.5449219 L190.257812,71.5449219 L192.537109,75.3007812 L192.630859,75.3007812 L194.910156,71.5449219 L196.111328,71.5449219 L193.111328,76.3613281 L193.111328,80 Z M210.082031,76.7304688 C210.082031,77.7734427 209.75391,78.6123015 209.097656,79.2470703 C208.441403,79.8818391 207.572271,80.1992188 206.490234,80.1992188 C205.32226,80.1992188 204.391605,79.7988321 203.698242,78.9980469 C203.004879,78.1972616 202.658203,77.1211005 202.658203,75.7695312 C202.658203,74.4335871 203.007809,73.3623087 203.707031,72.5556641 C204.406253,71.7490194 205.333979,71.3457031 206.490234,71.3457031 C207.427739,71.3457031 208.213864,71.5888648 208.848633,72.0751953 C209.483402,72.5615259 209.876952,73.2246052 210.029297,74.0644531 L208.957031,74.0644531 C208.777343,73.4941378 208.478518,73.0605484 208.060547,72.7636719 C207.642576,72.4667954 207.119144,72.3183594 206.490234,72.3183594 C205.654293,72.3183594 204.987307,72.6308562 204.489258,73.2558594 C203.991208,73.8808625 203.742188,74.7187447 203.742188,75.7695312 C203.742188,76.8359428 203.989255,77.6787078 204.483398,78.2978516 C204.977542,78.9169953 205.648433,79.2265625 206.496094,79.2265625 C207.25391,79.2265625 207.866209,79.0058616 208.333008,78.5644531 C208.799807,78.1230447 209.033203,77.5449254 209.033203,76.8300781 L209.033203,76.625 L206.654297,76.625 L206.654297,75.6992188 L210.082031,75.6992188 L210.082031,76.7304688 Z M214,80 L212.945312,80 L212.945312,71.5449219 L214,71.5449219 L214,80 Z M220.408203,80 L219.353516,80 L219.353516,72.4941406 L216.628906,72.4941406 L216.628906,71.5449219 L223.132812,71.5449219 L223.132812,72.4941406 L220.408203,72.4941406 L220.408203,80 Z M228.814453,80.1992188 C227.66601,80.1992188 226.756839,79.8027383 226.086914,79.0097656 C225.416989,78.2167929 225.082031,77.1386787 225.082031,75.7753906 C225.082031,74.4081963 225.416012,73.328129 226.083984,72.5351562 C226.751956,71.7421835 227.660151,71.3457031 228.808594,71.3457031 C229.699223,71.3457031 230.460934,71.5996068 231.09375,72.1074219 C231.726566,72.6152369 232.105468,73.2773397 232.230469,74.09375 L231.158203,74.09375 C231.017577,73.5468723 230.73633,73.1142594 230.314453,72.7958984 C229.892576,72.4775375 229.390628,72.3183594 228.808594,72.3183594 C227.99609,72.3183594 227.352541,72.6289031 226.87793,73.25 C226.403318,73.8710969 226.166016,74.7128853 226.166016,75.7753906 C226.166016,76.8339897 226.404294,77.673825 226.880859,78.2949219 C227.357424,78.9160187 228.001949,79.2265625 228.814453,79.2265625 C229.4043,79.2265625 229.909178,79.0849624 230.329102,78.8017578 C230.749026,78.5185533 231.02539,78.1328149 231.158203,77.6445312 L232.230469,77.6445312 C232.089843,78.4218789 231.709964,79.0419899 231.09082,79.5048828 C230.471677,79.9677758 229.712895,80.1992188 228.814453,80.1992188 Z M238.556641,71.3457031 C239.759772,71.3457031 240.705075,71.7441366 241.392578,72.5410156 C242.080082,73.3378946 242.423828,74.4140557 242.423828,75.7695312 C242.423828,77.1211005 242.081058,78.1972616 241.395508,78.9980469 C240.709958,79.7988321 239.763678,80.1992188 238.556641,80.1992188 C237.345697,80.1992188 236.395511,79.7988321 235.706055,78.9980469 C235.016598,78.1972616 234.671875,77.1211005 234.671875,75.7695312 C234.671875,74.4101495 235.020504,73.3330118 235.717773,72.5380859 C236.415043,71.7431601 237.361322,71.3457031 238.556641,71.3457031 Z M238.556641,72.3183594 C237.697261,72.3183594 237.015628,72.6289031 236.511719,73.25 C236.00781,73.8710969 235.755859,74.7109322 235.755859,75.7695312 C235.755859,76.8164115 236.002927,77.6542937 236.49707,78.2832031 C236.991213,78.9121125 237.67773,79.2265625 238.556641,79.2265625 C239.423832,79.2265625 240.10449,78.9121125 240.598633,78.2832031 C241.092776,77.6542937 241.339844,76.8164115 241.339844,75.7695312 C241.339844,74.7109322 241.091799,73.8710969 240.595703,73.25 C240.099607,72.6289031 239.419926,72.3183594 238.556641,72.3183594 Z M246.306641,80 L245.251953,80 L245.251953,71.5449219 L246.306641,71.5449219 L246.306641,80 Z M250.505859,80 C250.505859,80 250.453126,80 250.347656,80 C250.242187,80 250.121094,80 249.984375,80 C249.847656,80 249.726563,80 249.621094,80 C249.515624,80 249.462891,80 249.462891,80 L249.462891,71.5449219 L250.488281,71.5449219 L255.076172,78.125 L255.169922,78.125 L255.169922,71.5449219 L256.212891,71.5449219 L256.212891,80 L255.1875,80 L250.599609,73.4433594 L250.505859,73.4433594 L250.505859,80 Z" id="BY-GITCOIN" fill="#FFFFFF"></path>
                <polygon id="Star" fill="#FFFFFF" points="60 6.63343685 57.527864 8 58 5.10557281 56 3.05572809 58.763932 2.63343685 60 0 61.236068 2.63343685 64 3.05572809 62 5.10557281 62.472136 8"></polygon>
                <path d="M14,17 L0,41.0004211 L14,65 L42.0004254,65 L56,41.0004211 L42.0004254,17 L14,17 Z M0.491354948,41.0004211 L14.2458902,17.4210526 L41.7545352,17.4210526 L55.5090705,41.0004211 L41.7545352,64.5789474 L14.2458902,64.5789474 L0.491354948,41.0004211 Z" id="Fill-1" stroke="#0ECF7C" stroke-width="5"></path>
            </g>
        </g>
    </g>
</svg>