<svg width="260" height="81" xmlns="http://www.w3.org/2000/svg"><g fill="none" fill-rule="evenodd"><path d="M85.797 38.25l14.086-14.438h7.289l-16.36 16.383L107.267 60h-7.313L86.922 43.898l-1.125 1.125V60h-5.461V23.812h5.46V38.25zm34.735-14.438V45.61c0 3.11.507 5.383 1.523 6.82 1.516 2.079 3.648 3.118 6.398 3.118 2.766 0 4.907-1.04 6.422-3.117 1.016-1.39 1.524-3.664 1.524-6.82V23.812h5.46v23.296c0 3.813-1.187 6.953-3.562 9.422-2.672 2.75-5.953 4.125-9.844 4.125-3.89 0-7.164-1.375-9.82-4.125-2.375-2.469-3.562-5.61-3.562-9.422V23.812h5.46zM153.462 60V23.812h7.593c3.641 0 6.516.36 8.625 1.079 2.266.703 4.32 1.898 6.164 3.586 3.735 3.406 5.602 7.882 5.602 13.43 0 5.562-1.945 10.062-5.836 13.5-1.953 1.718-4 2.913-6.14 3.585-2 .672-4.837 1.008-8.508 1.008h-7.5zm5.46-5.133h2.461c2.454 0 4.493-.258 6.118-.773a12.416 12.416 0 0 0 4.406-2.602c2.687-2.453 4.031-5.648 4.031-9.586 0-3.969-1.328-7.187-3.984-9.656-2.39-2.203-5.914-3.305-10.57-3.305h-2.461v25.922zm30.516-13.125c0-5.094 1.868-9.469 5.602-13.125 3.719-3.656 8.187-5.484 13.406-5.484 5.157 0 9.578 1.844 13.266 5.531 3.703 3.688 5.555 8.117 5.555 13.29 0 5.202-1.86 9.616-5.579 13.241-3.734 3.641-8.242 5.461-13.523 5.461-4.672 0-8.867-1.617-12.586-4.851-4.094-3.578-6.14-8.266-6.14-14.063zm5.508.07c0 4 1.344 7.29 4.031 9.868 2.672 2.578 5.758 3.867 9.258 3.867 3.797 0 7-1.313 9.61-3.938 2.61-2.656 3.914-5.89 3.914-9.703 0-3.86-1.29-7.093-3.867-9.703-2.563-2.625-5.735-3.937-9.516-3.937-3.766 0-6.945 1.312-9.54 3.937-2.593 2.594-3.89 5.797-3.89 9.61zm62.579-12.609l-4.43 2.625c-.828-1.437-1.617-2.375-2.367-2.812-.781-.5-1.79-.75-3.024-.75-1.515 0-2.773.43-3.773 1.289-1 .843-1.5 1.906-1.5 3.187 0 1.766 1.312 3.188 3.937 4.266l3.61 1.476c2.937 1.188 5.086 2.637 6.445 4.348 1.36 1.711 2.04 3.809 2.04 6.293 0 3.328-1.11 6.078-3.329 8.25-2.234 2.188-5.008 3.281-8.32 3.281-3.14 0-5.735-.93-7.782-2.789-2.015-1.86-3.273-4.476-3.773-7.851l5.531-1.22c.25 2.126.688 3.595 1.313 4.407 1.125 1.563 2.765 2.344 4.922 2.344 1.703 0 3.117-.57 4.242-1.711 1.125-1.14 1.687-2.586 1.687-4.336 0-.703-.097-1.348-.293-1.934a4.906 4.906 0 0 0-.914-1.617c-.414-.492-.949-.953-1.605-1.383-.656-.43-1.438-.84-2.344-1.23l-3.492-1.453c-4.953-2.094-7.43-5.156-7.43-9.188 0-2.718 1.04-4.992 3.117-6.82 2.079-1.844 4.664-2.766 7.758-2.766 4.172 0 7.43 2.032 9.774 6.094zM187.371 80h-3.299v-8.455h3.235c.777 0 1.388.19 1.834.568.445.38.668.893.668 1.541 0 .438-.142.832-.425 1.184-.283.351-.628.564-1.034.639v.093c.578.075 1.037.296 1.377.665.34.37.51.833.51 1.392 0 .742-.254 1.323-.76 1.743-.505.42-1.207.63-2.106.63zm-2.244-7.523v2.712h1.687c.641 0 1.123-.113 1.445-.34.322-.226.483-.564.483-1.013 0-.43-.145-.764-.436-1.002-.291-.238-.699-.357-1.222-.357h-1.957zm0 6.591h2.086c.637 0 1.119-.127 1.447-.38.328-.254.492-.625.492-1.114 0-.488-.17-.856-.512-1.104-.342-.248-.85-.372-1.527-.372h-1.986v2.97zm10.984.932h-1.054v-3.639l-3-4.816h1.2l2.28 3.756h.094l2.28-3.756h1.2l-3 4.816V80zm16.971-3.27c0 1.043-.328 1.882-.984 2.517-.657.635-1.526.952-2.608.952-1.168 0-2.098-.4-2.792-1.201-.693-.8-1.04-1.877-1.04-3.228 0-1.336.35-2.408 1.049-3.214.7-.807 1.627-1.21 2.783-1.21.938 0 1.724.243 2.359.73.634.486 1.028 1.149 1.18 1.988h-1.072c-.18-.57-.478-1.003-.896-1.3-.418-.297-.942-.446-1.57-.446-.837 0-1.504.313-2.002.938-.498.625-.747 1.463-.747 2.514 0 1.066.247 1.909.741 2.528.495.619 1.165.929 2.013.929.758 0 1.37-.221 1.837-.663.467-.441.7-1.02.7-1.734v-.205h-2.379v-.926h3.428v1.031zM217 80h-1.055v-8.455H217V80zm6.408 0h-1.054v-7.506h-2.725v-.95h6.504v.95h-2.725V80zm8.406.2c-1.148 0-2.057-.397-2.727-1.19-.67-.793-1.005-1.871-1.005-3.235 0-1.367.334-2.447 1.002-3.24.668-.793 1.576-1.19 2.725-1.19.89 0 1.652.255 2.285.762a3.05 3.05 0 0 1 1.136 1.987h-1.072c-.14-.547-.422-.98-.844-1.298-.421-.318-.923-.478-1.505-.478-.813 0-1.456.31-1.931.932-.475.621-.712 1.463-.712 2.525 0 1.059.238 1.899.715 2.52.476.621 1.12.932 1.933.932.59 0 1.095-.142 1.515-.425a1.98 1.98 0 0 0 .83-1.157h1.071a2.88 2.88 0 0 1-1.14 1.86c-.618.463-1.377.694-2.276.694zm9.743-8.854c1.203 0 2.148.398 2.836 1.195.687.797 1.03 1.873 1.03 3.229 0 1.351-.342 2.427-1.027 3.228-.686.8-1.632 1.201-2.84 1.201-1.21 0-2.16-.4-2.85-1.201-.69-.8-1.034-1.877-1.034-3.228 0-1.36.349-2.437 1.046-3.232.697-.795 1.643-1.192 2.839-1.192zm0 .972c-.86 0-1.541.31-2.045.932-.504.621-.756 1.46-.756 2.52 0 1.046.247 1.884.741 2.513.494.63 1.18.944 2.06.944.867 0 1.547-.315 2.042-.944.494-.629.74-1.467.74-2.513 0-1.06-.247-1.899-.743-2.52s-1.176-.932-2.04-.932zm7.75 7.682h-1.055v-8.455h1.055V80zm4.199 0h-1.043v-8.455h1.025l4.588 6.58h.094v-6.58h1.043V80h-1.026l-4.587-6.557h-.094V80zM63 6.633L60.528 8 61 5.106l-2-2.05 2.764-.423L63 0l1.236 2.633L67 3.056l-2 2.05L65.472 8z" fill="#FFF"/><path d="M17 17L3 41l14 24h28l14-24-14-24H17zM3.491 41l13.755-23.579h27.509l13.754 23.58-13.754 23.578h-27.51L3.492 41z" stroke="#0ECF7C" stroke-width="5"/></g></svg>