<svg xmlns="http://www.w3.org/2000/svg" width="110.979" height="128.417" viewBox="0 0 110.979 128.417"><path fill="#2F2A5B" d="M110.849 96.417l-55.426 32L0 96.417v-64l55.423-32 55.426 32z"/><path fill="#FFF" d="M101.923 38.139v53.14l-.01.01-.312.181-1.108.63-6.28 3.62-2.72 1.569-.24.131-.13.05-.11.069-3.029 1.74-.061.029-.16.102-.12.068-.02.011-.551.31-.149.091-.12.069-.689.391-.039.029-.761.44-2.16 1.25-.33.188-.63.381-.239.141-1.38.79-1.461.851-.181.09-.02.021-1.71.979-.96.561-4.011 2.319-.609.351-.351.2-.279.159-.062.029-3.31 1.92-.19.111-.77.438-3.271 1.891-.01.011-.3.17-.13.08-.171.1-.439.25-.42.24-.05.029-.28.16-3.49 2.02-.979.562-.73.42-.49.279-.029.021-.03-.021-.271-.159-.14-.08-.81-.46-.45-.261-.09-.061-.511-.289-.06-.03-.26-.149-.15-.091-.01-.01-1.31-.75-.961-.561-1.149-.659-1.37-.791-.04-.029-2.07-1.189-4.199-2.439-.96-.551-.2-.119-.69-.391-2.76-1.601-.96-.56-1.37-.791-.39-.22-.49-.28-.33-.199-1.85-1.061-.32-.189-.25-.141-.41-.24-.3-.18-1-.57-2.51-1.459-.65-.371-.96-.549-1.3-.75-.09-.051-.7-.41-.021-.01h-.01l-.979-.57-.551-.32-.96-.549-1.449-.84-2.11-1.23-5.351-3.08h-.01l-1.1-.641-1.04-.6V40.988c.09-1.01.18-2.01.28-3.01l1.14-.66.42-.24.24-.14.29-.17 1.609-.92c.011-.01.021-.01.021-.01v-.01l.11-.06.17-.1.319-.19.55-.31.551-.32c1.35-.56 2.649-1.26 3.83-2.05.31-.21.6-.43.88-.67l3.92-2.26 1.99-1.16 4.93-2.83 1.58-.92.17-.09 1.66-.95 1.16-.67 1.54-.91.52-.3.34-.2 1.94-1.1.689-.41 1.46-.83 3.73-2.15 1.07-.62.92-.53.46-.27 6.069-3.51.021-.01.2-.12 1.22-.7 1.061.62 6.489 3.75 1.33.77 4.261 2.46 8.939 5.15 1.04.61 2.3 1.31.87.5 1.521.88.199.12 1.17.67.801.46.091.06 1.81 1.04 3.78 2.18.04.03v.01l.26.14.66.39 1.46.84.399.23.261.15.109.07.239.13.051.03.09.06h.011l.05.03.021.01.101.06.609.35.779.44.44.25 1.938 1.12.511.29.45.26.039.03.29.17.19.11 1.344.771z"/><path fill="#FFF" d="M14.639 43.788l.008-.013c.032-.053-.017-.098-.064-.095v-.004a.604.604 0 0 0-.111.021c-.267.041-.533.083-.8.121-.02-.051-.065-.092-.128-.087h-.001c-.33.021-.659.056-.99.071-.302.014-.664.042-.947.17a1.785 1.785 0 0 0-.242-.4 4.215 4.215 0 0 0-.362-.613c-.186-.362-.396-.708-.694-.988a.1.1 0 0 0-.07-.027c-.027-.068-.058-.135-.088-.202a2.404 2.404 0 0 1-.02-.145c-.012-.131-.203-.118-.202.013.003.346.039.703.13 1.041-.048-.003-.095.025-.084.084l.004.021c.087.458.215.906.338 1.355a1.418 1.418 0 0 0-.024.291c.007.317.067.626.109.94.007.043.031.071.063.083a.783.783 0 0 0 .074.369.667.667 0 0 0-.019.16c0 .203.314.182.314-.021l.003-.081c.083.003.165-.049.172-.154.282-.095.542-.26.795-.423a2.33 2.33 0 0 0 .699-.313c.298-.124.598-.243.899-.358.264-.1.532-.193.765-.356.092-.065.168-.151.25-.229.044-.043.091-.082.135-.123l.022-.008a.1.1 0 0 0 .066-.1z"/><path fill="#FFF" d="M10.953 44.048l.033.117.009.03-.063-.181a.313.313 0 0 0 .021.034zM15.4 42.58c-.039-.169-.007-.367 0-.538a2.12 2.12 0 0 0-.041-.615c-.063-.271-.143-.539-.208-.813.088-.474-.026-.94-.012-1.422.008-.225.019-.449-.011-.672a.636.636 0 0 0-.124-.308 5.417 5.417 0 0 0-.086-.793c-.018-.085-.116-.095-.15-.033a.143.143 0 0 0-.117.029l-.317.251a5.554 5.554 0 0 1-.447.287 1.19 1.19 0 0 0-.18.104c-.091.051-.184.101-.275.15a2.564 2.564 0 0 0-.75.623l-.12.061c-.392.191-.777.381-1.146.616-.257.164-.493.362-.754.519-.104.05-.204.101-.304.157-.005.001-.008.006-.013.009-.017-.009-.035-.02-.052-.028-.161-.082-.271.125-.167.244.167.192.272.417.439.596a.138.138 0 0 0 .021.09c.104.184.247.337.396.482.083.127.162.257.247.382.086.214.229.392.358.58l.133.261a.102.102 0 0 0 .035.072l.002.001c.053.103.107.206.167.306.041.067.122.079.187.054.305.131.716.013 1.024-.035.292-.044.595-.037.891-.059.272-.021.543-.058.812-.113a.391.391 0 0 0 .323.039c.21-.073.285-.282.239-.484z"/><path fill="#FFF" d="M12.037 42.57c-.025-.003-.045-.021-.061-.048.02.017.04.033.061.048z"/><path fill="#171650" d="M11.864 43.394a.319.319 0 0 1-.125-.104c-.522-.8-1.05-1.618-1.559-2.409l-.257-.401c-.015-.022-.023-.044-.031-.065a.887.887 0 0 1-.013-.034l-.046-.109 5.278-3.353.493 6.271-.371.029c-.163.013-.321.026-.48.037l-.407.029c-.741.054-1.509.11-2.264.158a.465.465 0 0 1-.218-.049zm.111-.264l.016.009a.17.17 0 0 0 .072.019c.754-.048 1.521-.104 2.263-.157l.405-.03c.159-.011.318-.024.479-.037l.088-.007-.435-5.516-4.67 2.967.226.348c.508.79 1.033 1.606 1.556 2.404z"/><path fill="#171650" d="M10.428 46.295l-.837-5.419.257-.096.212.326c.113.176.229.351.34.526l.314.486c.309.477.628.97.937 1.46.044.071.074.091.094.101.019.009.052.021.13.014.761-.06 1.534-.114 2.281-.165l.732-.051c.037-.003.076-.005.113-.006l.152-.007.097.254-4.822 2.577zm-.454-4.798l.673 4.358 3.87-2.067-.34.024c-.748.051-1.521.104-2.28.166a.505.505 0 0 1-.278-.044.527.527 0 0 1-.208-.205c-.306-.487-.625-.98-.934-1.456l-.314-.487-.189-.289z"/><path fill="#FFF" d="M92.688 46.943c-.019-.028-.036-.058-.056-.085-.539-.795-1.306-1.461-2.196-1.827-.738-.305-1.469-.186-2.089.302a1.816 1.816 0 0 0-.64.953.367.367 0 0 0-.066.129.126.126 0 0 0-.036.08c-.014.151-.056.279-.039.429l.001.005c-.026.159-.062.319-.062.481 0 .105.018.204.047.3v.091a.456.456 0 0 0-.03.271c.017.091.036.181.056.271a.335.335 0 0 0 .004.227c.115.329.264.638.428.945l.011.019c.353.692.785 1.356 1.393 1.814a.324.324 0 0 0 .052.053c.123.102.249.194.38.273.02.021.041.04.066.056.114.076.235.142.351.218.015.01.029.018.045.025.065.101.159.156.285.211.098.043.201.082.304.115a.26.26 0 0 0 .229.11c.201-.005.362-.036.52-.139a.62.62 0 0 0 .129.02c.14-.006.272-.021.409-.039a.93.93 0 0 0 .292-.106c.061-.041.116-.082.173-.125.065-.06.063-.067.045-.061a.524.524 0 0 0 .211-.189c.229-.157.429-.367.363-.621l-.005-.016c.039-.081.072-.166.1-.252a3.27 3.27 0 0 0 .119-.514c.104-.251.148-.524.13-.812a.843.843 0 0 0-.027-.153c.005-.007.008-.016.011-.023.17-.453.077-.954-.086-1.395-.167-.436-.376-.852-.822-1.041z"/><path fill="#171650" d="M92.576 52.285c-1.437.777-3.504-.252-4.609-2.294-1.106-2.042-.84-4.337.595-5.114 1.436-.778 3.503.251 4.609 2.293 1.106 2.042.839 4.337-.595 5.115zm-3.881-7.164c-1.301.704-1.517 2.829-.482 4.736 1.034 1.907 2.931 2.886 4.229 2.182 1.301-.704 1.518-2.829.484-4.736-1.034-1.907-2.932-2.886-4.231-2.182z"/><path fill="#171650" d="M88.553 45.039l.454.837c.062.114.236.019.176-.095l-.455-.837c-.061-.113-.236-.019-.175.095zm1.373 2.532c.099.183.197.367.297.549.063.113.237.018.176-.095-.099-.184-.196-.367-.298-.55-.061-.111-.236-.016-.175.096z"/><path fill="#171650" d="M89.062 46.179c-.063-.283.328-.424.431-.142.043.12.237.076.192-.045-.08-.224-.281-.357-.521-.294-.237.063-.348.299-.297.527.028.125.223.08.195-.046zm1.01.957c.028.125-.01.235-.128.292-.115.057-.231-.027-.271-.136-.043-.12-.238-.076-.193.045.075.215.266.352.497.291.238-.063.342-.31.289-.537-.028-.127-.223-.081-.194.045z"/><path fill="#171650" d="M88.864 46.226c.227.414.448.827.673 1.239.063.113.236.018.176-.095l-.672-1.239c-.062-.112-.238-.018-.177.095zm.625-.187c.193.359.39.717.583 1.075.063.113.236.019.176-.095-.193-.358-.39-.717-.582-1.075-.063-.113-.238-.018-.177.095zm3.337.778l-4.961 2.688-.095-.175 4.96-2.688z"/><path fill="#FFF" d="M76.781 89.82a1.16 1.16 0 0 0 .004-.104c.006-.978-.257-1.977-.792-2.795-.445-.68-1.124-1-1.927-.946a1.826 1.826 0 0 0-1.083.432.382.382 0 0 0-.131.068.141.141 0 0 0-.076.047c-.098.119-.207.203-.277.339l-.003.005c-.114.116-.234.231-.328.367a1.054 1.054 0 0 0-.134.277l-.051.079a.449.449 0 0 0-.184.209c-.039.084-.073.173-.11.259a.34.34 0 0 0-.126.192 7.022 7.022 0 0 0-.185 1.039c-.002.006-.002.015-.002.021-.103.781-.12 1.588.125 2.32a.367.367 0 0 0 .014.074c.042.155.096.305.16.445a.45.45 0 0 0 .024.087c.054.13.116.254.169.384.007.018.016.032.023.047-.005.121.042.222.117.34.056.093.121.186.188.271a.26.26 0 0 0 .13.225c.172.111.323.179.514.184a.648.648 0 0 0 .097.091c.119.074.241.142.366.203a.947.947 0 0 0 .306.079 5.29 5.29 0 0 0 .218-.007c.089-.013.092-.021.071-.023a.53.53 0 0 0 .285-.039c.284 0 .57-.062.663-.311.003-.007.003-.011.004-.017.079-.047.156-.1.23-.156.133-.103.267-.229.394-.36.231-.149.426-.354.574-.604a.663.663 0 0 0 .064-.146.044.044 0 0 0 .022-.014c.402-.283.61-.758.729-1.219.122-.458.185-.928-.082-1.343z"/><path fill="#171650" d="M73.619 94.235c-1.651-.172-2.795-2.224-2.55-4.571.246-2.351 1.788-4.121 3.438-3.949 1.65.173 2.794 2.225 2.548 4.574-.245 2.348-1.787 4.119-3.436 3.946zm.859-8.237c-1.494-.156-2.896 1.5-3.126 3.694-.229 2.193.801 4.104 2.296 4.261 1.494.156 2.896-1.502 3.125-3.693.229-2.196-.8-4.107-2.295-4.262z"/><path fill="#171650" d="M74.408 85.847c-.033.32-.066.642-.101.964-.014.13.188.151.201.021l.1-.965c.016-.13-.187-.151-.2-.02zm-.305 2.912c-.021.211-.044.421-.064.632-.015.131.188.149.201.021.021-.211.045-.42.065-.632.015-.129-.187-.15-.202-.021z"/><path fill="#171650" d="M74.18 87.096c.108-.275.52-.168.441.128-.033.125.153.199.188.072.062-.233-.032-.463-.269-.547-.235-.084-.464.052-.553.271-.045.124.143.196.193.076zm.296 1.381c-.049.122-.144.192-.274.173-.132-.02-.18-.156-.148-.271.032-.125-.156-.199-.189-.073-.06.225.021.448.25.53.237.082.465-.064.554-.284.044-.123-.143-.195-.193-.075z"/><path fill="#171650" d="M73.987 87.022c-.051.476-.101.949-.148 1.424-.014.132.188.152.201.021l.149-1.425c.013-.128-.189-.15-.202-.02zm.631.202l-.131 1.236c-.013.129.188.149.202.021.042-.413.086-.826.13-1.237.014-.13-.189-.151-.201-.02zm2.346 2.574l-5.703-.596.021-.202 5.703.596z"/><circle fill="#FFF" cx="85.118" cy="69.491" r="5.14"/><g fill="#171650"><path d="M79.816 69.292c.052-.306.093-.612.152-.918.379-1.933 2.036-3.604 3.971-4.011 2.861-.604 5.553 1.052 6.286 3.874.068.264.086.537.128.807.017.084.037.166.058.248v.424c-.035.224-.071.445-.104.666-.3 2.058-2.02 3.865-4.064 4.268-.304.061-.611.102-.916.152h-.426c-.313-.053-.629-.092-.939-.155-1.944-.396-3.611-2.069-3.991-4.013-.061-.303-.102-.61-.152-.918-.003-.138-.003-.282-.003-.424zm10.372.208c.019-2.768-2.282-5.053-5.034-5.073-2.806-.021-5.111 2.293-5.119 5.062-.01 2.799 2.299 5.088 5.06 5.1 2.773.007 5.115-2.286 5.093-5.089z"/><path d="M87.383 72.187l-1.61-4.793c.164-.01.286-.014.409-.023.146-.013.276-.074.269-.235-.011-.161-.136-.21-.289-.205-.563.018-1.127.034-1.69.042-.195.002-.39-.029-.585-.041-.143-.01-.254.031-.271.191-.018.18.107.26.245.241.345-.042.455.148.544.431.142.447.324.881.474 1.324a.637.637 0 0 1 .007.379c-.288.898-.59 1.793-.899 2.721l-1.62-4.819c.15-.01.272-.015.396-.026.149-.017.289-.057.271-.248-.016-.177-.146-.199-.292-.192l-1.332.067c1.272-2.164 4.649-2.751 6.659-.885-.323.069-.563.238-.678.551-.118.319-.031.616.122.898.119.221.255.432.374.652.265.486.348 1.01.205 1.543-.218.797-.463 1.586-.709 2.427z"/><path d="M85.193 69.978c.478 1.305.93 2.54 1.389 3.798a4.389 4.389 0 0 1-2.718.065l1.329-3.863zm-4.229-2.244l2.1 5.753c-1.789-.743-3.143-3.31-2.1-5.753zm6.488 5.621c.451-1.313.884-2.591 1.337-3.861.225-.63.411-1.261.354-1.965.981 1.744.497 4.533-1.691 5.826z"/></g><circle fill="#FFF" cx="18.916" cy="52.303" r="3.87"/><g fill="#171650"><path d="M15.61 50.059c.155-.175.307-.355.465-.525 1.015-1.081 2.738-1.486 4.138-.973 2.066.758 3.123 2.889 2.463 4.984-.063.195-.161.378-.24.566-.023.059-.043.12-.063.181-.058.091-.113.18-.169.271-.11.127-.223.255-.332.383-1.015 1.193-2.833 1.659-4.3 1.099-.218-.083-.431-.18-.646-.269l-.271-.17c-.179-.157-.364-.31-.538-.475-1.083-1.029-1.478-2.765-.944-4.156.084-.218.18-.432.271-.646.054-.09.11-.18.166-.27zm6.538 4.276c1.118-1.76.563-4.137-1.185-5.25-1.782-1.136-4.179-.581-5.291 1.183-1.123 1.781-.566 4.166 1.191 5.276 1.768 1.116 4.178.589 5.285-1.209z"/><path d="M19.283 54.929l.889-3.702c.107.06.188.107.27.149.1.049.206.063.266-.044.058-.105-.002-.188-.104-.247a64.207 64.207 0 0 1-1.095-.649c-.126-.076-.239-.174-.358-.259-.085-.063-.174-.081-.249.015-.083.106-.035.208.06.251.235.111.23.276.175.492-.089.342-.144.691-.227 1.034a.48.48 0 0 1-.147.244c-.542.458-1.093.908-1.661 1.376.298-1.248.592-2.471.892-3.722.101.053.18.1.262.14.102.05.208.08.273-.05.062-.119-.015-.187-.109-.24l-.876-.489c1.676-.873 4.066.101 4.604 2.097-.234-.086-.455-.072-.651.08-.204.158-.268.381-.283.623-.012.188-.009.377-.021.565a1.54 1.54 0 0 1-.486 1.066c-.459.425-.93.831-1.424 1.27z"/><path d="M18.769 52.645l-.632 2.978a3.312 3.312 0 0 1-1.759-1.043c.79-.641 1.568-1.269 2.391-1.935zm-1.802-3.123l-.959 4.51c-.844-1.189-.683-3.368.959-4.51zm1.895 6.18c.813-.656 1.599-1.301 2.396-1.93.396-.313.767-.641 1.013-1.111-.074 1.504-1.497 3.09-3.409 3.041z"/></g><path fill="#FFF" d="M54.189 40.278a.512.512 0 0 0-.084-.186.88.88 0 0 0-.109-.125.176.176 0 0 0-.017-.037c-.059-.187-.221-.347-.425-.336l-.019-.001a.652.652 0 0 0-.072-.295c-.008-.017-.018-.033-.026-.051v-.013a.283.283 0 0 0-.208-.269.268.268 0 0 0-.146.004l-.036-.031a3.006 3.006 0 0 0-.089-.18.51.51 0 0 0-.279-.234c-.076-.134-.169-.274-.201-.374a.577.577 0 0 0-.295-.345.56.56 0 0 0-.593-.178 5.016 5.016 0 0 1-.118-.179c-.126-.239-.247-.479-.375-.72a.482.482 0 0 0-.418-.26 2.807 2.807 0 0 0-.061-.608c-.065-.346-.239-.703-.556-.88-.29-.165-.583-.048-.751.189a.575.575 0 0 0-.427.119.123.123 0 0 0-.025.005c-.363.101-.507.446-.447.792.064.386.097.837.192 1.264a.544.544 0 0 0 .182.291.562.562 0 0 0-.184.284l-.009-.002-.016.125-.001.008a.18.18 0 0 1-.002.025c-.005.033-.008.067-.012.1l-.026.245a.416.416 0 0 0-.208.161c-.243.349-.245.803-.136 1.198l.007.022c-.002.22.052.458.138.672a.306.306 0 0 0 .014.107.847.847 0 0 0 .061.149.45.45 0 0 0-.319.259.396.396 0 0 0-.048.2c-.222.21-.428.431-.531.729-.063.184.016.384.093.55.05.108.075.119.075.228 0 .044-.004.087-.006.129-.096.18.04.452.262.436.214-.016.426-.044.64-.066a.295.295 0 0 0 .188-.091c.262.023.528.092.765.109.256.019.558-.069.721-.274l.021-.027a.614.614 0 0 0 .135-.507.42.42 0 0 0 .24-.238c.518-.142 1.051-.144 1.545-.383a.655.655 0 0 0 .041.139c-.055.121-.023.283.144.313l.052.008a.343.343 0 0 0 .218.176c.301.075.604-.005.797-.255.106-.137.169-.292.23-.448a.712.712 0 0 0 .095-.131.509.509 0 0 0 .176-.167.216.216 0 0 0 .037-.094.773.773 0 0 0 .064-.033.247.247 0 0 0 .131-.196 1.457 1.457 0 0 1 .123-.108c.021-.015.055-.025.017-.022.143-.009.234-.105.245-.245.015-.246-.125-.437-.374-.447zm-2.243-.202c.007-.008.012-.017.017-.026l.015.039c-.011-.006-.021-.008-.032-.013z"/><g fill="#171650"><path d="M52.229 42.181l-.021.005a2.847 2.847 0 0 1-.509.1c-.097.012-.19.027-.285.044-.12.022-.233.066-.345.116-.132.058-.261.124-.393.184-.063.029-.126.053-.193.082a.624.624 0 0 1-.319.446 1.05 1.05 0 0 1-.408.133 1.72 1.72 0 0 1-.59-.026 1.475 1.475 0 0 0-.491-.019c-.139.018-.276.04-.416.06a1.568 1.568 0 0 1-.298.022.608.608 0 0 1-.071-.007.355.355 0 0 1-.304-.268.969.969 0 0 1-.029-.308c.001-.04.005-.08.003-.12-.004-.068-.032-.13-.058-.192-.037-.089-.077-.176-.111-.266a.457.457 0 0 1 .12-.526c.032-.03.066-.054.101-.08a.96.96 0 0 1 .062-.042c.149-.104.18-.141.246-.313.035-.092.066-.186.119-.271.01-.018.002-.032-.003-.046-.02-.05-.04-.1-.056-.151a2.183 2.183 0 0 1-.081-.719c.012-.306.068-.604.148-.898.089-.333.208-.655.347-.969.092-.207.146-.424.165-.65a2.127 2.127 0 0 0-.018-.458 2.602 2.602 0 0 0-.147-.537 5.127 5.127 0 0 1-.202-.693 1.956 1.956 0 0 1-.038-.518c.028-.38.206-.672.527-.874.188-.119.395-.195.609-.245.119-.028.24-.041.362-.038.306.009.559.13.767.35.124.131.219.281.3.44.106.209.183.43.25.653.043.145.084.289.119.435.067.294.22.537.438.741.11.103.228.195.35.283.149.111.303.216.452.328.262.199.503.42.713.675.148.182.276.375.374.589.12.266.182.543.172.836v.03l.001.009.028.006c.118.02.215.077.289.17.056.069.096.146.139.222.036.063.074.125.111.186a.356.356 0 0 0 .114.111c.089.057.175.12.25.196.05.051.09.107.115.174a.304.304 0 0 1-.015.247.58.58 0 0 1-.136.183c-.074.073-.151.143-.229.214-.1.089-.198.178-.286.279-.077.09-.14.188-.19.295a1.452 1.452 0 0 1-.398.526.965.965 0 0 1-.33.179.705.705 0 0 1-.806-.296l-.015-.019zm-3.419-1.709l-.031-.023a.929.929 0 0 1-.16-.177 1.14 1.14 0 0 1-.193-.571 2 2 0 0 1 .04-.588c.021-.107.044-.215.063-.323.008-.033.01-.067.013-.1 0-.007-.004-.015-.006-.022l-.009-.001-.014.036c-.021.086-.046.171-.069.257a3.316 3.316 0 0 0-.104.634c-.012.206 0 .409.07.606a.87.87 0 0 0 .366.467c.1.064.207.105.318.137.213.063.421.143.614.256.104.062.204.134.287.226.044.05.081.104.104.167a.219.219 0 0 1-.065.25c-.026.021-.059.038-.09.055-.021.011-.042.018-.067.028.014.012.024.021.035.028.089.068.178.137.266.208.024.02.048.034.078.042.39.118.77.085 1.136-.087.281-.132.516-.327.713-.564a.068.068 0 0 0 .021-.05c-.001-.063.001-.125.001-.188 0-.129-.008-.256-.039-.383a4.043 4.043 0 0 1-.086-.467 1.242 1.242 0 0 1-.002-.339.54.54 0 0 1 .207-.369c.016-.012.017-.024.016-.042-.002-.046-.006-.093 0-.138a.236.236 0 0 1 .136-.189.393.393 0 0 1 .146-.044c.214-.025.42.012.62.083a.365.365 0 0 1 .126.074c.042.04.068.087.072.147 0 .011.003.023.005.036l.066-.019a.289.289 0 0 0-.092-.237.545.545 0 0 0-.167-.104 1.776 1.776 0 0 0-.387-.1l-.037-.006-.002-.02a1.251 1.251 0 0 0-.161-.557 2.128 2.128 0 0 0-.854-.844c-.009-.004-.018-.011-.026-.012-.008-.002-.022 0-.025.004-.004.006-.002.021.003.026a.374.374 0 0 0 .059.046c.039.024.08.045.117.071.181.121.331.273.456.45.133.186.225.389.249.618a.774.774 0 0 1 0 .204l-.191.027c-.015-.026-.028-.054-.042-.082a3.863 3.863 0 0 0-.615-.85 8.894 8.894 0 0 1-1.114-1.475c-.003-.006-.01-.012-.017-.021a.752.752 0 0 1-.282.337.787.787 0 0 0-.14.124c-.046.05-.092.102-.143.149a.679.679 0 0 1-.277.169.576.576 0 0 1-.428-.021 3.027 3.027 0 0 1-.101-.048c-.083-.046-.174-.068-.263-.098-.003-.001-.006 0-.013.001l.003.025c.012.08.025.16.033.24.02.208.011.417-.006.625-.023.296-.07.589-.119.882-.026.161-.057.321-.067.485-.018.231-.014.462.022.69.011.082.027.163.043.249zm1.085 2.671a.78.78 0 0 0 .283-.135.46.46 0 0 0 .19-.31.524.524 0 0 0-.111-.422 1.486 1.486 0 0 0-.253-.242c-.125-.095-.251-.186-.376-.278a1.94 1.94 0 0 1-.255-.214c-.162-.166-.324-.332-.485-.5a.785.785 0 0 0-.247-.172.521.521 0 0 0-.139-.043c-.16-.022-.289.029-.366.177-.021.042-.042.084-.059.129a4.157 4.157 0 0 0-.077.195.545.545 0 0 1-.202.25l-.058.041c-.051.037-.104.071-.149.113a.318.318 0 0 0-.106.318c.013.051.028.101.049.15.032.083.072.167.107.25.032.08.049.163.041.25a1.3 1.3 0 0 0-.004.108c0 .07.005.142.024.21a.24.24 0 0 0 .22.19.606.606 0 0 0 .075.004c.104.001.208-.018.312-.033.12-.018.239-.038.359-.051.177-.021.353-.017.527.024.043.009.085.016.13.021a1.5 1.5 0 0 0 .57-.03zm2.356-3.411l-.018.015c-.009.009-.018.018-.024.027a.454.454 0 0 0-.098.232c-.012.084-.01.167-.003.25.018.176.056.35.094.523.021.099.037.198.037.3.002.146-.001.292-.001.438s.007.293.036.438c.029.138.1.249.211.333a.56.56 0 0 0 .498.102.844.844 0 0 0 .341-.183c.152-.13.266-.291.349-.472a1.34 1.34 0 0 1 .211-.326c.103-.12.221-.223.338-.327.067-.059.133-.121.196-.185a.577.577 0 0 0 .087-.116.184.184 0 0 0-.004-.208.53.53 0 0 0-.099-.118 2.352 2.352 0 0 0-.196-.153.558.558 0 0 1-.171-.171c-.037-.06-.071-.123-.106-.185-.04-.072-.078-.145-.133-.207a.325.325 0 0 0-.295-.112c-.062.006-.119.028-.18.042-.024.005-.039.02-.051.042a.976.976 0 0 1-.374.375.364.364 0 0 1-.443-.05.623.623 0 0 1-.141-.178c-.02-.039-.039-.08-.061-.126zm-2.605-2.341a.558.558 0 0 0 .251-.13c.059-.054.111-.111.165-.168a.996.996 0 0 1 .164-.147.711.711 0 0 0 .215-.225.47.47 0 0 0 .057-.143c.021-.12-.028-.215-.145-.259a.504.504 0 0 0-.116-.028 3.416 3.416 0 0 0-.229-.021 1.165 1.165 0 0 1-.225-.039 1.47 1.47 0 0 0-.204-.04.596.596 0 0 0-.37.066.613.613 0 0 0-.233.233 1.906 1.906 0 0 1-.166.234l-.073.095a.295.295 0 0 0-.029.043.176.176 0 0 0-.003.172.29.29 0 0 0 .092.105.632.632 0 0 0 .217.1.976.976 0 0 1 .188.073c.029.016.062.031.093.046a.475.475 0 0 0 .351.033zm.639-1.164c.008-.025.02-.051.024-.078a.694.694 0 0 0-.197-.682.436.436 0 0 0-.202-.115.353.353 0 0 0-.373.112.506.506 0 0 0-.121.289.686.686 0 0 0 .055.363l.236.012.001-.003-.009-.028a.45.45 0 0 1-.022-.246.254.254 0 0 1 .047-.109.14.14 0 0 1 .18-.042.265.265 0 0 1 .092.077.458.458 0 0 1 .092.233c.006.063.003.122-.035.176-.003.004-.004.011-.007.018.081.006.157.015.239.023zm-1.132-.02a.702.702 0 0 0-.199-.38.378.378 0 0 0-.149-.091.221.221 0 0 0-.257.085.393.393 0 0 0-.07.191.719.719 0 0 0 .22.589c.024.021.052.039.079.059l.091-.118a.257.257 0 0 1-.106-.088.457.457 0 0 1-.082-.206.235.235 0 0 1 .019-.15c.025-.049.072-.066.123-.046a.21.21 0 0 1 .081.06c.05.055.077.118.095.188l.009.03c.048-.042.096-.081.146-.123z"/><path d="M49.529 37.149a.671.671 0 0 1-.342.003 1.213 1.213 0 0 1-.298-.119c-.02-.01-.039-.019-.057-.03a.092.092 0 0 1-.047-.06c-.002-.007 0-.02.004-.023.007-.004.02-.006.026-.003a.073.073 0 0 1 .033.024.197.197 0 0 0 .077.053c.069.03.137.066.208.091.211.074.41.049.594-.08a1.633 1.633 0 0 0 .423-.418.373.373 0 0 0 .062-.104.073.073 0 0 1 .019-.03c.011-.011.026-.015.037-.005.007.006.01.022.006.031-.01.025-.019.051-.035.073-.048.065-.094.134-.146.194a1.896 1.896 0 0 1-.336.296.724.724 0 0 1-.228.107zm-.061-.801c.008-.012.012-.02.018-.025.029-.023.108-.025.14-.005.017.012.02.027.005.04-.015.013-.032.022-.051.015a.216.216 0 0 0-.083-.014c-.008 0-.016-.006-.029-.011zm-.248.043c.007 0 .022-.001.036.001.016.003.018.016.007.028l-.011.01a.144.144 0 0 0-.057.047c-.011.016-.027.02-.046.019-.027-.002-.038-.02-.021-.043a.167.167 0 0 1 .092-.062z"/></g><g fill="#171650"><path d="M69.699 59.256c.089-.027.172-.07.256-.116-.052.169-.189.331-.467.54.082.02.142-.037.22-.049-.077.206-.146.404-.234.598a3.788 3.788 0 0 1-.301.562 1.98 1.98 0 0 1-1.076.794c-.026.007-.054.011-.079.015-.102.015-.2.045-.305.036.3-.837.633-1.659.999-2.468a20.43 20.43 0 0 1 .983-1.914c.017-.025.027-.053.041-.08a.161.161 0 0 0 .025-.035l.101-.162c.015-.02.025-.04.038-.061.016-.02.027-.04.042-.06.015-.009.03-.025.016-.038-.019-.014-.027.004-.029.023a.079.079 0 0 0-.04.061.082.082 0 0 0-.041.06.458.458 0 0 0-.104.157.216.216 0 0 0-.025.032c-.345.513-.622 1.062-.894 1.614-.446.904-.821 1.838-1.182 2.78-.05-.04-.062-.101-.091-.153-.086-.151-.146-.317-.245-.461a6.805 6.805 0 0 1 .478-1.504c.381-.868.867-1.675 1.416-2.446.288-.403.592-.796.957-1.136.221-.208.396-.208.617.045.164.189.184.424.17.664-.021.367-.17.692-.336 1.011-.063.124-.137.242-.208.362a1.118 1.118 0 0 1-.438.454c.07.011.07.012.154-.021.05-.019.098-.041.166-.07-.11.384-.244.733-.598.946l-.031.015c.012.023.028.008.045.005zm.261-.852c.008-.02-.006-.022-.015-.024-.002-.002-.013.005-.014.01-.006.009-.008.02.007.02a.034.034 0 0 0 .022-.006z"/><path d="M67.314 60.916c.103.143.162.309.246.461.029.053.043.112.091.152a182.104 182.104 0 0 0-.649 1.892c-.094.28-.177.564-.268.846-.023.078-.048.162-.166.187.205-.702.435-1.386.673-2.074-.183-.037-.344.029-.513.066a.92.92 0 0 1 .37-.215c-.104-.062-.203-.11-.29-.206.104.024.188.049.275.059.121.015.134-.004.106-.123a1.82 1.82 0 0 0-.226-.522c-.03-.052-.063-.104-.092-.155.006-.003.009-.009.011-.017.126.064.228.16.33.268.038-.211.042-.42.102-.619zm.378.759c.104.009.204-.021.307-.035.273.063.521-.007.75-.162.044-.03.084-.063.127-.096l.012.018c-.133.3-.367.493-.657.631a.503.503 0 0 0 .261-.046c.021-.011.047-.044.067-.013.019.025-.012.049-.025.07a.944.944 0 0 1-.551.343c-.154.04-.313.046-.491.039.09.107.147.209.156.352-.083-.101-.134-.209-.234-.271-.021-.012-.013-.028-.008-.044.092-.264.172-.532.286-.786zm1.389-.376c-.003-.006-.006-.013-.011-.019a.206.206 0 0 0 .021.002c0 .008-.005.013-.01.017z"/></g><g fill="#171650"><path d="M33.08 59.977c.093-.01.181-.04.272-.07-.08.159-.244.293-.553.453.077.033.145-.014.225-.012-.111.19-.213.374-.333.55a3.666 3.666 0 0 1-.393.5 1.973 1.973 0 0 1-1.196.6c-.025.003-.054.001-.08.001-.102-.002-.205.011-.305-.017.437-.774.906-1.527 1.404-2.262.401-.594.833-1.169 1.296-1.717.02-.023.037-.048.055-.072l.03-.03.127-.143.049-.053.051-.052c.017-.006.035-.02.021-.035-.016-.016-.027 0-.033.018a.079.079 0 0 0-.049.053.08.08 0 0 0-.051.052.475.475 0 0 0-.131.137l-.029.028c-.428.445-.793.939-1.155 1.436-.594.817-1.123 1.672-1.639 2.54-.041-.048-.043-.11-.063-.166-.058-.164-.089-.338-.165-.497a6.95 6.95 0 0 1 .729-1.4 13.414 13.414 0 0 1 1.812-2.167c.354-.349.72-.683 1.136-.958.255-.167.429-.137.603.151.131.215.107.449.054.682-.084.358-.284.654-.502.939-.084.11-.177.215-.267.321-.14.163-.295.302-.512.372.066.023.066.024.156.006.052-.01.104-.024.175-.042-.173.36-.364.682-.749.833l-.034.007c.009.027.028.014.044.014z"/><path d="M33.483 59.183c.013-.019-.001-.023-.008-.027-.003-.002-.014.002-.018.008-.005.006-.01.018.004.021.008.002.018-.002.022-.002zm-3.036 2.024c.075.159.106.332.164.497.021.056.022.117.063.165-.117.208-.233.418-.349.628-.206.373-.414.747-.615 1.123-.142.261-.271.526-.408.788-.037.072-.076.151-.195.155.322-.656.664-1.29 1.016-1.928-.172-.068-.344-.03-.516-.022a.918.918 0 0 1 .401-.148c-.092-.078-.181-.143-.25-.251.099.041.178.08.262.105.117.034.132.019.126-.103a1.788 1.788 0 0 0-.132-.553l-.063-.168a.035.035 0 0 0 .013-.014c.113.083.196.194.278.32.073-.205.112-.409.205-.594zm.244.812c.101.028.203.014.306.018.261.109.516.081.767-.031.049-.022.094-.05.142-.074l.011.019c-.184.272-.446.423-.756.511.09.023.177.023.263-.002.022-.006.053-.035.071-.001.013.028-.021.046-.039.064a.941.941 0 0 1-.602.246 1.76 1.76 0 0 1-.491-.047.573.573 0 0 1 .095.374c-.064-.113-.096-.229-.187-.308-.016-.014-.006-.028.002-.044.136-.245.261-.494.418-.725zm1.433-.134a.258.258 0 0 0-.007-.021.058.058 0 0 1 .021.007.093.093 0 0 1-.014.014z"/></g><g fill="#171650"><path d="M31.996 48.266c-.124-.082-.246-.158-.363-.242-.022-.014-.035-.056-.037-.085-.013-.367-.024-.734-.035-1.101l-.003-.1-.175.111c-.146.093-.292.186-.437.282-.044.029-.077.029-.119 0-.074-.05-.154-.09-.228-.141a.135.135 0 0 1-.049-.086c-.009-.104-.004-.21-.013-.315-.004-.058.017-.089.063-.119.291-.176.581-.358.871-.535.044-.027.061-.055.058-.106-.011-.231-.016-.462-.022-.693l-.007-.074-.777.507-.026-.875-.193.104c-.176.097-.354.197-.53.291-.049.026-.064.056-.063.11.014.354.021.708.034 1.063.002.052-.011.087-.056.118a2.344 2.344 0 0 0-.213.162c-.039.03-.063.028-.107.005-.187-.097-.259-.239-.24-.45.015-.165-.007-.333-.013-.514-.039.02-.064.032-.092.048-.31.187-.621.372-.929.561a.15.15 0 0 1-.153.016c-.12-.047-.24-.092-.36-.134-.042-.014-.057-.036-.058-.08a5.96 5.96 0 0 0-.013-.377c-.002-.053.016-.08.059-.106.323-.195.646-.393.967-.589l.085-.054-.429-.188c-.091-.04-.184-.077-.271-.122a.105.105 0 0 1-.05-.074 3.46 3.46 0 0 1-.011-.353.12.12 0 0 1 .046-.085c.104-.066.212-.125.316-.19.042-.026.074-.023.116 0 .315.176.634.35.948.526.048.026.081.027.126-.003.206-.135.414-.267.637-.408l-.763-.412.704-.47-.229-.125c-.145-.076-.289-.148-.431-.228-.055-.031-.093-.024-.142.007-.294.188-.591.371-.886.558-.042.027-.076.031-.123.009a5.16 5.16 0 0 0-.295-.129c-.047-.018-.063-.046-.063-.094 0-.105-.003-.209-.009-.315-.004-.048.012-.075.054-.1.197-.118.395-.239.591-.359l.06-.04-.49-.25c-.192-.096-.383-.193-.577-.289-.042-.021-.063-.043-.063-.095 0-.125-.005-.251-.012-.378-.002-.044.008-.071.052-.092.124-.057.243-.121.368-.177.026-.012.071-.007.1.006.337.169.673.342 1.008.514.022.012.046.021.085.04l-.002-.093c-.007-.212-.016-.425-.018-.637 0-.036.021-.081.047-.106.059-.06.128-.108.189-.166.031-.031.056-.034.095-.011.094.057.19.111.289.16.046.024.06.057.06.106.003.361.01.72.012 1.079.001.056.017.088.068.116.224.117.447.239.687.367-.01-.294-.019-.574-.027-.876l.811.401c.001-.03.005-.052.004-.073-.007-.231-.016-.462-.021-.692 0-.052-.018-.079-.064-.103-.302-.159-.601-.322-.902-.481-.049-.026-.072-.058-.071-.115.001-.105-.009-.21-.006-.315a.126.126 0 0 1 .043-.088c.089-.066.179-.167.274-.175.091-.007.189.085.282.137.135.072.266.148.414.231-.001-.04-.001-.065-.003-.092-.01-.367-.021-.734-.035-1.102a.122.122 0 0 1 .058-.117c.107-.077.214-.158.324-.241.122.08.244.156.36.24.024.017.038.061.04.092.014.364.024.729.036 1.093l.002.098c.028-.014.048-.022.067-.033.215-.121.43-.241.644-.364.042-.024.074-.024.116-.002.105.057.214.112.322.164.042.02.058.045.057.091 0 .095.002.189.008.283.004.05-.016.074-.058.098-.354.188-.705.38-1.061.568-.055.03-.071.061-.068.122.012.246.017.492.024.755l.783-.47c.009.301.02.589.028.891.039-.019.062-.029.083-.042.211-.116.421-.234.635-.348.054-.029.07-.063.067-.124-.015-.382-.024-.766-.038-1.148-.001-.053.009-.087.059-.114.078-.043.15-.127.228-.132.077-.003.156.074.238.107.066.027.084.07.085.139.003.241.014.481.021.738.035-.018.059-.028.083-.042.334-.191.669-.382 1.002-.576.049-.03.086-.031.135-.001.104.062.21.119.318.174.043.022.057.053.057.1 0 .11.003.22.011.33.003.054-.017.081-.06.107-.312.188-.622.379-.932.57a3.93 3.93 0 0 0-.08.051c.22.114.428.224.639.329.058.027.079.063.078.125-.002.103.008.205.006.307a.11.11 0 0 1-.044.079c-.083.053-.173.097-.258.149-.043.027-.078.025-.122 0-.32-.175-.642-.347-.959-.522-.051-.028-.086-.03-.134.005-.184.132-.37.259-.555.388l-.088.063.713.426c-.243.152-.477.298-.72.448.03.018.049.03.07.04.213.101.427.201.638.304.044.021.075.018.116-.006.302-.179.606-.354.907-.535.068-.042.118-.041.183.003.076.052.159.091.235.144a.133.133 0 0 1 .051.083c.01.102.006.205.013.307.003.049-.014.076-.056.1-.179.104-.355.212-.533.318l-.06.039c.036.022.064.04.094.056.303.172.605.345.91.517.048.026.071.056.07.115-.001.113.002.226.011.338.003.052-.011.081-.062.102a8.298 8.298 0 0 0-.371.171c-.05.025-.09.022-.14-.003-.321-.168-.644-.333-.964-.498-.021-.01-.042-.018-.078-.033l.004.132c.007.196.011.394.02.591.001.049-.009.083-.051.112a3.223 3.223 0 0 0-.186.146c-.038.033-.065.029-.104.002-.084-.06-.204-.099-.251-.18-.046-.079-.021-.199-.022-.301-.01-.278-.017-.556-.028-.834-.001-.03-.021-.073-.045-.086-.243-.125-.488-.244-.732-.365-.006-.004-.015-.002-.03-.005.008.263.016.523.023.806l-.807-.419c-.002.026-.006.046-.006.064.007.236.016.472.02.708.001.05.022.074.063.095.302.161.601.323.902.482.049.026.073.055.072.114-.001.115.004.231.011.346.002.048-.011.077-.055.1-.07.035-.139.075-.205.117-.045.029-.082.029-.129.002-.181-.106-.364-.207-.548-.309l-.082-.043c.001.038.001.065.003.092.011.367.021.734.034 1.102.003.05-.011.082-.053.111-.1.079-.206.16-.321.246z"/><path d="M31.904 44.068c.099-.003.194-.007.292-.008.044 0 .071-.014.092-.056.075-.161.155-.32.237-.478a.112.112 0 0 0-.007-.124c-.097-.165-.188-.333-.288-.497a.115.115 0 0 0-.082-.049c-.196 0-.394.008-.59.018-.03.002-.07.025-.083.05-.098.177-.189.356-.281.536a.106.106 0 0 0 .006.09c.104.16.215.316.319.477.027.04.058.053.104.05.093-.005.187-.006.281-.009z"/></g><g fill="#171650"><path d="M49.798 17.369c-.048-.031-.085-.03-.135-.003-.339.183-.681.364-1.02.544-.023.013-.049.022-.084.039 0-.256-.002-.498.002-.738.001-.069-.016-.112-.081-.141-.081-.036-.158-.116-.234-.114-.078.002-.152.083-.231.124-.05.026-.063.06-.063.114.003.382 0 .765.003 1.148.001.061-.017.094-.072.122-.216.107-.43.218-.646.328-.021.011-.046.021-.084.038v-.891l-.798.445c0-.264.003-.509-.001-.756-.001-.061.017-.092.072-.12.36-.176.718-.358 1.077-.536.044-.021.063-.045.062-.096a4.45 4.45 0 0 1 0-.283c.001-.045-.013-.072-.054-.093-.073-.038-.144-.078-.216-.117a20.44 20.44 0 0 1-1.752 1.176c.011.017.032.027.032.055-.004.231-.001.462-.002.693 0 .021-.004.042-.007.073l-.763-.407-.035.018v.839c-.234-.135-.453-.265-.674-.388a.112.112 0 0 1-.057-.075c-.614.303-1.241.581-1.882.831.002.09.003.181 0 .271-.003.049.013.076.06.096.098.042.196.088.291.138.046.024.079.02.122-.005.3-.178.603-.352.902-.53.051-.03.089-.035.142-.003.139.084.283.161.423.242l.228.131-.72.448.748.436c-.226.135-.438.26-.646.388-.047.029-.08.027-.127 0-.311-.187-.622-.37-.934-.556-.04-.024-.073-.028-.115-.002-.106.062-.217.116-.321.18a.116.116 0 0 0-.049.083 3.483 3.483 0 0 0 0 .354.1.1 0 0 0 .047.075c.087.047.179.086.269.129l.422.202-.086.051c-.328.187-.656.374-.984.559-.044.025-.064.052-.063.104a6.77 6.77 0 0 1 0 .377c-.001.044.013.065.055.082.12.045.239.094.356.145.056.025.1.021.154-.009.313-.18.63-.357.944-.533.026-.015.055-.027.095-.045 0 .18.015.35-.004.515-.025.21.042.354.226.457.045.025.07.028.108-.001.07-.055.143-.108.217-.155.046-.029.061-.063.06-.116-.002-.354.001-.708-.002-1.063 0-.055.018-.083.066-.107.181-.09.359-.183.539-.275l.195-.099v.876l.792-.482c.002.034.004.054.004.074 0 .231-.001.462.003.693 0 .051-.017.079-.062.104-.297.168-.59.341-.887.509-.049.028-.071.059-.068.117.005.104-.002.21.004.314a.128.128 0 0 0 .046.088c.071.053.15.095.224.147.042.03.076.031.12.003.146-.092.295-.18.443-.269l.178-.105v.099c0 .367-.001.734.002 1.102 0 .029.012.07.032.086.115.087.235.167.357.252.116-.082.225-.16.337-.233.042-.028.056-.061.056-.11-.002-.367-.001-.734-.001-1.103v-.092c.036.021.06.033.082.045.181.108.361.215.538.326.047.028.083.028.129.001.067-.04.138-.077.208-.11.045-.021.06-.051.059-.099a4.99 4.99 0 0 1 0-.346c.003-.059-.021-.089-.069-.117-.296-.167-.59-.339-.887-.508-.04-.023-.061-.047-.061-.098.003-.235.001-.472.002-.708 0-.018.004-.037.008-.063l.794.443v-.807c.017.003.023.003.03.006.241.128.481.256.721.388.023.013.042.057.043.086.003.278.001.557.002.835 0 .102-.028.222.014.3.045.083.163.125.246.189.037.028.064.032.103 0 .062-.049.125-.096.191-.14.042-.027.054-.062.053-.111-.003-.196-.001-.394-.001-.59v-.132a.983.983 0 0 1 .077.037c.316.174.634.35.949.526.049.027.088.032.14.008.124-.056.249-.11.375-.16.05-.02.065-.047.064-.1a4.233 4.233 0 0 1 0-.338c.002-.058-.021-.088-.067-.117-.299-.179-.596-.362-.893-.543l-.095-.06.063-.037c.181-.101.361-.203.543-.302.042-.022.061-.049.058-.098-.003-.102.003-.205-.002-.307a.13.13 0 0 0-.048-.086c-.075-.054-.157-.096-.23-.15-.063-.046-.112-.048-.184-.008-.306.172-.616.337-.923.507-.041.022-.074.025-.116.002-.208-.11-.419-.216-.629-.325-.02-.01-.039-.022-.068-.04l.733-.427-.699-.448.089-.06c.189-.123.38-.244.566-.37.049-.033.083-.03.133-.001.313.186.629.367.943.553.043.026.079.028.122.003.086-.049.177-.091.263-.141a.119.119 0 0 0 .047-.078c.005-.103-.001-.205.003-.307.004-.063-.017-.098-.072-.128-.208-.111-.412-.227-.629-.348l.08-.049.95-.541c.044-.024.065-.051.063-.104a5.187 5.187 0 0 1 0-.33c.001-.048-.012-.078-.055-.102a5.508 5.508 0 0 1-.311-.184z"/><path d="M46.002 20.569c.096 0 .193-.002.291 0 .044.001.069-.011.092-.052.082-.159.167-.316.253-.471.024-.045.021-.081-.002-.125-.092-.167-.179-.338-.272-.504-.015-.025-.053-.051-.081-.052a14.555 14.555 0 0 0-.591 0 .124.124 0 0 0-.085.048 14.49 14.49 0 0 0-.297.528c-.013.022-.011.067.002.089.1.165.204.323.306.486.024.042.055.055.103.053.092-.002.187 0 .281 0z"/></g><g fill="#171650"><path d="M69.648 47.468a9.679 9.679 0 0 1-.354-.252c-.021-.016-.034-.058-.034-.086-.002-.368-.002-.735-.002-1.102v-.099l-.177.105c-.148.089-.3.177-.445.269-.045.028-.078.027-.12-.004-.073-.052-.151-.094-.222-.147a.136.136 0 0 1-.048-.088c-.004-.105.002-.209-.003-.315-.004-.057.02-.088.066-.116.297-.168.592-.34.888-.509.046-.025.063-.053.063-.104-.003-.231-.002-.462-.002-.693 0-.02-.003-.04-.004-.074-.267.161-.521.317-.792.482v-.876c-.077.039-.139.068-.196.099-.181.091-.359.186-.54.274-.049.025-.065.053-.065.108.003.354 0 .708.003 1.063 0 .053-.015.086-.062.116a3.19 3.19 0 0 0-.218.154c-.039.03-.063.028-.107.002-.184-.102-.252-.248-.227-.457.021-.165.004-.334.004-.515-.038.019-.066.03-.093.045-.315.177-.633.353-.946.533a.15.15 0 0 1-.153.01 6.937 6.937 0 0 0-.355-.145c-.042-.016-.055-.038-.055-.082a6.805 6.805 0 0 0 0-.378c-.004-.053.019-.079.062-.104.33-.185.657-.373.985-.559l.086-.051-.422-.201c-.091-.043-.183-.082-.27-.13a.11.11 0 0 1-.049-.075 4.643 4.643 0 0 1 0-.354c.003-.03.023-.068.05-.083.104-.063.217-.118.321-.18.044-.025.075-.021.116.003.311.186.623.369.933.556.046.028.079.029.127 0 .21-.128.422-.253.647-.388-.253-.146-.494-.288-.749-.437.245-.151.476-.296.719-.447-.083-.048-.155-.091-.227-.131-.143-.081-.285-.158-.425-.242-.052-.033-.091-.027-.142.003-.3.179-.604.354-.902.53-.043.025-.077.029-.122.005a4.303 4.303 0 0 0-.291-.138c-.046-.02-.061-.047-.059-.096.002-.105.004-.209 0-.315-.003-.048.013-.075.056-.098.201-.112.402-.228.604-.342.018-.009.032-.021.062-.039a44.606 44.606 0 0 1-.482-.264 43.617 43.617 0 0 0-.568-.307c-.041-.022-.063-.046-.06-.097a6.77 6.77 0 0 0 0-.377c0-.045.011-.072.055-.091.126-.053.247-.115.374-.167.025-.011.071-.005.099.01.332.18.662.362.992.545l.084.043v-.095c0-.212-.003-.424.003-.637 0-.036.023-.079.05-.104.061-.058.131-.104.194-.159.032-.029.059-.032.095-.008.096.06.188.116.283.169.047.025.059.057.058.107-.008.36-.012.72-.021 1.079-.002.056.013.089.063.117.223.125.44.253.676.389v-.876l.797.426c.003-.031.007-.052.007-.074 0-.231-.001-.462.002-.693 0-.052-.018-.079-.063-.104-.296-.168-.59-.34-.887-.509-.049-.028-.07-.059-.066-.117.005-.104-.001-.21.003-.314a.128.128 0 0 1 .048-.088c.089-.063.183-.161.278-.166.09-.004.186.091.277.145l.407.245v-.093c0-.368.002-.735-.001-1.102 0-.054.018-.086.061-.116.111-.073.221-.151.332-.229.12.083.238.163.354.25.021.017.036.061.036.093.003.365.001.729.001 1.094v.098c.028-.012.05-.02.067-.031.221-.114.438-.227.654-.343.043-.023.074-.023.116.001.104.06.21.117.316.173.041.021.057.047.055.093a3.339 3.339 0 0 0 0 .283c.002.05-.02.074-.062.095-.358.178-.718.36-1.076.537-.059.027-.073.059-.073.119.004.248.001.493.001.756l.797-.445v.891c.041-.018.063-.027.086-.039.216-.11.429-.22.646-.327.057-.028.072-.062.072-.122-.004-.384-.001-.766-.003-1.148-.001-.054.013-.088.062-.114.079-.041.154-.122.231-.124.077-.001.154.079.234.115.064.029.083.072.082.141-.005.241-.001.482-.001.738.033-.017.059-.026.083-.039.34-.181.681-.361 1.018-.544.051-.028.088-.029.137.002.102.065.206.126.313.184.043.023.055.054.054.101-.003.111-.005.221.001.331.002.052-.021.079-.063.104-.318.179-.636.36-.951.542-.024.013-.047.028-.08.049.216.121.421.237.629.348.057.03.076.065.074.128-.006.103.001.205-.005.308a.109.109 0 0 1-.045.077c-.087.051-.179.092-.264.142-.045.025-.079.022-.124-.004-.313-.185-.63-.366-.941-.552-.05-.029-.084-.032-.135.001-.188.125-.378.247-.565.37l-.089.059.698.448-.733.427.069.041c.21.108.419.214.629.325.043.022.073.02.114-.002.309-.17.617-.335.924-.508.07-.04.121-.037.183.009.075.055.157.097.23.15.023.018.048.055.049.086.007.101 0 .204.005.306.001.049-.019.076-.061.099-.182.099-.361.201-.542.302l-.062.036.092.06c.298.182.595.364.894.544.049.029.071.059.068.118a3.465 3.465 0 0 0-.001.338c.003.052-.012.08-.063.1a6.682 6.682 0 0 0-.378.159c-.051.024-.092.02-.14-.009-.314-.177-.631-.351-.948-.526l-.074-.037v.133c0 .196-.003.394 0 .59.001.05-.013.083-.055.111a2.32 2.32 0 0 0-.19.14c-.037.031-.065.027-.104-.001-.083-.063-.2-.105-.246-.188-.043-.079-.013-.199-.013-.3-.002-.279.001-.557-.003-.835 0-.03-.02-.074-.043-.087-.237-.132-.479-.26-.72-.388-.008-.004-.016-.004-.031-.006v.807l-.793-.443c-.004.026-.008.045-.008.064-.002.236.001.472-.002.708-.001.05.02.074.061.098.295.168.59.34.887.508.049.028.071.058.068.117a3.63 3.63 0 0 0 0 .346c.001.048-.012.077-.058.098a2.45 2.45 0 0 0-.209.11c-.045.027-.083.027-.128-.001-.18-.111-.359-.218-.539-.326-.021-.013-.044-.025-.082-.045v.092c0 .368 0 .735.002 1.102.001.05-.015.082-.058.109l-.335.237z"/><path d="M69.685 43.27c.099 0 .194-.002.291.001.044.001.071-.012.092-.053.082-.158.166-.315.253-.471.023-.044.021-.08-.003-.124-.092-.167-.179-.338-.271-.505a.12.12 0 0 0-.082-.051 11.566 11.566 0 0 0-.589 0 .12.12 0 0 0-.086.048c-.104.174-.201.349-.298.527a.105.105 0 0 0 .003.09c.099.164.204.323.305.486.027.041.056.055.103.053.094-.003.187-.001.282-.001z"/></g><g fill="#171650"><path d="M82.097 36.099c-.122-.085-.242-.165-.355-.252-.021-.016-.033-.057-.033-.086-.003-.368-.002-.735-.002-1.102v-.099l-.18.105c-.147.089-.298.177-.442.269-.046.028-.078.026-.121-.004-.072-.051-.15-.094-.224-.147a.138.138 0 0 1-.046-.087c-.006-.104.002-.21-.003-.315-.003-.058.02-.088.067-.116.296-.168.59-.34.887-.509.046-.025.063-.053.063-.104-.005-.231-.002-.462-.003-.693 0-.02-.002-.04-.005-.074l-.792.482v-.876c-.076.038-.137.068-.196.099-.179.091-.357.186-.539.274-.05.025-.067.053-.065.108.002.354 0 .708.001 1.062.001.053-.013.087-.059.116-.075.048-.146.101-.218.154-.039.03-.064.028-.107.002-.185-.102-.252-.247-.227-.457.019-.164.004-.334.004-.514-.039.018-.068.03-.093.044-.315.177-.634.353-.946.533-.053.031-.1.035-.153.01a7.33 7.33 0 0 0-.355-.145c-.043-.016-.058-.038-.056-.082a5.3 5.3 0 0 0-.002-.378c-.001-.053.021-.079.063-.104.329-.185.657-.372.983-.559.024-.014.05-.027.089-.051l-.423-.201c-.092-.043-.182-.083-.271-.129a.11.11 0 0 1-.047-.075 3.483 3.483 0 0 1 0-.354c.002-.029.022-.068.048-.083.105-.063.217-.118.323-.18.043-.025.074-.021.114.003.311.186.622.369.933.556.048.028.081.029.128 0 .209-.128.422-.253.646-.388l-.748-.437.72-.447c-.085-.048-.155-.091-.229-.131-.142-.081-.284-.158-.423-.242-.054-.033-.091-.027-.143.002-.301.179-.603.353-.902.53-.042.025-.076.029-.121.005a4.557 4.557 0 0 0-.292-.137c-.047-.021-.062-.048-.059-.097a4.728 4.728 0 0 0-.001-.315c-.002-.048.015-.075.058-.098.201-.112.4-.229.601-.342.019-.009.035-.021.063-.039a76.886 76.886 0 0 1-.481-.264 44.423 44.423 0 0 0-.567-.306c-.041-.022-.063-.047-.061-.097a6.805 6.805 0 0 0 0-.378c-.002-.045.011-.072.056-.09.125-.054.247-.115.373-.167.026-.011.07-.004.1.01.332.18.66.363.992.545.021.013.045.023.084.042v-.094c0-.212-.003-.425.002-.637a.161.161 0 0 1 .051-.104c.061-.058.131-.104.193-.159.033-.029.06-.032.096-.008.093.06.188.116.283.17.046.025.059.057.058.107l-.021 1.078c-.001.056.012.089.063.118.221.125.439.253.675.389v-.876c.273.146.529.284.798.426.003-.031.006-.052.006-.073.001-.231-.002-.462.003-.693 0-.052-.019-.079-.063-.104-.297-.168-.591-.34-.887-.509-.049-.028-.07-.058-.067-.116.005-.105-.003-.211.003-.315a.118.118 0 0 1 .049-.087c.089-.063.182-.162.276-.167.091-.004.188.092.279.146l.407.244v-.092c0-.368.002-.735-.001-1.102-.002-.054.016-.086.06-.115.11-.074.221-.152.333-.23.119.083.238.163.354.25.021.018.035.061.035.093.004.365.001.729.001 1.094v.097c.028-.012.049-.02.068-.031.218-.113.438-.227.654-.343.041-.024.074-.023.115 0 .104.061.211.118.317.173.041.021.057.047.053.093a4.482 4.482 0 0 0 0 .284c.004.05-.018.073-.061.094-.36.178-.717.36-1.077.537-.057.027-.074.059-.072.119.005.247.001.493.001.756l.798-.445v.891c.039-.018.063-.026.086-.039.214-.11.428-.221.645-.328.056-.027.073-.061.072-.121-.003-.383 0-.766-.003-1.149 0-.053.012-.088.062-.113.08-.04.153-.122.232-.124.077-.002.151.078.233.114.065.029.081.072.081.141-.005.241-.002.482-.002.738.035-.016.061-.026.084-.039.341-.18.681-.361 1.02-.544.05-.028.087-.029.136.003.103.065.206.125.312.184.045.023.057.054.056.101-.003.111-.005.22 0 .331.002.052-.021.079-.063.104-.315.179-.633.36-.948.541a.921.921 0 0 0-.08.049c.216.12.421.236.627.347.059.03.078.065.075.128-.006.102.002.205-.005.307a.108.108 0 0 1-.047.078c-.085.051-.177.092-.263.142-.045.025-.079.022-.122-.004-.313-.185-.63-.366-.943-.552-.05-.029-.085-.032-.133.001-.188.125-.378.247-.567.37l-.087.06.696.448c-.247.144-.484.284-.731.427.028.018.048.029.067.04.209.108.42.214.628.325.044.022.075.02.116-.003.31-.17.618-.335.924-.508.071-.039.12-.037.184.009.072.055.155.097.23.151a.138.138 0 0 1 .048.085c.007.102-.001.204.003.306.004.05-.016.076-.058.099-.184.099-.362.201-.544.302l-.062.036c.037.024.063.042.094.06.296.182.595.364.893.544.048.028.07.059.068.117a3.464 3.464 0 0 0 0 .338c.001.053-.014.08-.064.101a6.493 6.493 0 0 0-.375.16.138.138 0 0 1-.14-.009c-.316-.177-.633-.351-.949-.526a1.434 1.434 0 0 0-.076-.037v.133c0 .196-.001.394.002.59 0 .049-.012.083-.054.112a2.32 2.32 0 0 0-.19.14c-.037.031-.066.027-.104-.001-.084-.063-.2-.106-.246-.188-.043-.079-.013-.199-.015-.301 0-.278.002-.556-.001-.834-.002-.029-.021-.074-.043-.086-.239-.132-.479-.26-.722-.388-.006-.003-.014-.003-.03-.006v.806l-.793-.443c-.003.026-.01.045-.01.064 0 .236.003.472-.001.708 0 .05.021.074.061.098.297.168.59.34.887.508.05.027.072.058.07.117a3.63 3.63 0 0 0 0 .346c0 .048-.014.078-.059.098-.071.033-.142.07-.21.11-.046.027-.082.026-.128-.001-.178-.111-.358-.218-.538-.326l-.082-.045v.092c0 .368-.001.734.003 1.102 0 .05-.016.082-.058.109-.113.076-.221.155-.337.236z"/><path d="M82.134 31.901c.097 0 .193-.002.29 0 .045.001.072-.012.092-.053.083-.158.167-.315.253-.471.024-.045.022-.08-.002-.124-.092-.167-.179-.338-.271-.504-.016-.025-.055-.051-.082-.052a14.506 14.506 0 0 0-.59 0 .124.124 0 0 0-.087.048c-.104.174-.199.35-.297.527a.102.102 0 0 0 .003.09c.1.164.204.324.305.486.025.042.057.055.104.053.092-.002.187 0 .282 0z"/></g><g fill="#171650"><path d="M62.957 31.726c-.122-.085-.24-.166-.354-.252-.021-.016-.035-.057-.035-.087-.002-.367-.002-.734-.002-1.102v-.099c-.065.04-.123.072-.177.105-.147.089-.299.176-.445.268-.045.028-.077.028-.119-.003-.073-.051-.151-.094-.223-.147a.146.146 0 0 1-.048-.088c-.004-.104.002-.21-.003-.314-.003-.059.02-.089.067-.117.297-.169.592-.341.889-.508.044-.025.061-.053.061-.105-.003-.23-.002-.462-.002-.692 0-.021-.003-.041-.004-.074l-.792.482v-.876l-.195.099c-.182.092-.359.186-.54.275-.05.024-.066.053-.066.108.003.354 0 .708.003 1.062 0 .053-.014.087-.059.116-.077.048-.148.1-.221.155-.039.029-.063.026-.106.001-.185-.102-.251-.246-.228-.457.021-.165.004-.333.004-.514l-.093.045c-.314.176-.632.353-.945.533-.054.031-.099.035-.153.01a6.47 6.47 0 0 0-.356-.145c-.041-.015-.055-.038-.055-.081a6.805 6.805 0 0 0 0-.378c-.001-.053.019-.08.062-.104.33-.186.657-.372.985-.559l.086-.051-.422-.201c-.09-.043-.182-.083-.269-.13a.103.103 0 0 1-.049-.075 3.8 3.8 0 0 1 0-.354.117.117 0 0 1 .05-.083c.104-.064.217-.119.32-.181.044-.025.076-.021.116.003.312.186.623.369.933.556.047.028.08.029.129 0 .209-.129.421-.253.646-.388l-.749-.436c.245-.152.476-.296.719-.449l-.226-.131c-.143-.081-.286-.158-.425-.242-.053-.032-.091-.027-.143.003-.3.178-.601.352-.9.529-.044.026-.077.029-.123.005a5.172 5.172 0 0 0-.292-.137c-.045-.02-.061-.046-.059-.096.003-.104.004-.21 0-.314-.002-.048.014-.075.057-.098.2-.112.401-.227.603-.342.019-.009.033-.021.063-.039l-.483-.263a60.267 60.267 0 0 0-.568-.308c-.041-.021-.061-.046-.06-.096a6.805 6.805 0 0 0 0-.378c0-.045.011-.072.055-.091.126-.054.247-.115.374-.166.026-.011.071-.004.1.01.331.18.662.363.991.545.023.012.046.021.084.042v-.094c0-.212-.003-.425.004-.638 0-.035.022-.079.05-.104.06-.058.131-.104.193-.159.034-.03.06-.032.096-.008.095.06.188.117.283.169.047.025.059.058.058.108-.008.359-.012.718-.021 1.078-.002.056.014.09.063.118.222.125.439.253.675.389v-.877l.797.426c.003-.03.007-.052.007-.073 0-.23-.001-.462.002-.693 0-.052-.018-.079-.063-.104-.297-.168-.59-.341-.887-.508-.05-.028-.07-.06-.067-.117.005-.106-.001-.21.003-.315a.13.13 0 0 1 .048-.087c.089-.064.184-.162.278-.167.09-.003.186.092.278.146.131.077.261.155.406.244v-.093c0-.367.002-.734-.001-1.102 0-.054.019-.086.063-.115.109-.074.219-.152.331-.23.12.083.239.163.354.25.024.018.036.062.036.093.003.365.002.73.002 1.095v.097c.028-.012.049-.02.067-.03.22-.114.438-.228.654-.344a.112.112 0 0 1 .116.001c.104.06.209.118.316.174.041.021.056.047.054.092a3.339 3.339 0 0 0 0 .283c.002.051-.019.075-.061.095-.359.179-.718.36-1.076.537-.058.028-.074.059-.074.119.004.247.002.493.002.757l.797-.446v.892l.085-.039c.216-.109.431-.221.646-.328.055-.026.072-.06.072-.122-.005-.382-.002-.765-.003-1.148-.002-.053.013-.087.062-.113.079-.041.154-.122.23-.124.077-.002.154.078.234.113.065.03.083.073.081.142-.004.24 0 .482 0 .738l.082-.039c.341-.182.682-.362 1.019-.545.052-.028.089-.029.138.003.101.065.206.125.312.184.043.023.056.053.055.101-.004.11-.006.22.001.331.002.052-.021.079-.063.104-.318.179-.635.36-.951.541l-.08.049c.216.121.422.237.629.348.058.031.076.065.074.129-.006.102.001.205-.005.307a.105.105 0 0 1-.045.077c-.086.051-.177.092-.263.142-.045.025-.08.023-.124-.003-.313-.185-.63-.366-.942-.552-.049-.029-.084-.032-.134.001-.188.126-.378.247-.566.37l-.089.061.699.448-.734.427c.029.018.05.03.07.04.209.108.419.214.628.325.043.023.074.02.115-.003.308-.169.617-.335.923-.507.071-.04.122-.037.184.009.074.054.157.097.23.15.022.018.047.055.048.085.007.102 0 .204.005.307.001.049-.017.075-.06.098-.183.099-.362.201-.542.301l-.063.037.092.059c.299.182.596.364.895.544.049.029.071.06.068.118a3.812 3.812 0 0 0-.002.338c.004.053-.012.08-.063.099-.128.05-.253.104-.377.161-.051.023-.091.019-.14-.009-.315-.177-.632-.352-.947-.527l-.076-.036v.132c0 .197-.003.394 0 .591 0 .049-.012.083-.054.112a2.15 2.15 0 0 0-.19.139c-.038.032-.065.028-.104 0-.083-.063-.2-.106-.245-.189-.044-.079-.015-.199-.015-.301-.001-.278.001-.556-.003-.834 0-.03-.019-.074-.043-.087-.236-.132-.479-.259-.72-.387-.007-.004-.015-.003-.031-.007v.807l-.793-.443c-.004.026-.008.044-.008.063-.001.236.001.472-.001.708-.002.05.02.075.061.097.295.168.59.34.887.509.048.027.071.057.067.116a4.436 4.436 0 0 0 0 .346c.001.048-.012.078-.057.099-.071.033-.142.07-.21.11-.045.027-.082.027-.128-.002-.179-.11-.358-.217-.539-.324-.021-.014-.044-.025-.081-.045v.092l.001 1.103c.001.049-.014.081-.057.109-.111.073-.219.153-.336.234z"/><path d="M62.995 27.528c.097 0 .192-.002.29 0 .044 0 .07-.012.092-.054.082-.158.166-.315.253-.471a.12.12 0 0 0-.003-.124c-.091-.167-.18-.338-.271-.505-.015-.024-.054-.051-.082-.051a11.566 11.566 0 0 0-.589 0c-.03 0-.07.023-.085.048-.104.173-.202.35-.299.527a.109.109 0 0 0 .003.09c.1.164.204.324.306.486.025.041.057.056.103.054.092-.003.186 0 .282 0z"/></g><path fill="#171650" d="M61.747 81.882c-.148-.019-.292-.031-.434-.053-.025-.004-.058-.033-.07-.062a64.974 64.974 0 0 1-.523-.97c-.014-.025-.026-.051-.047-.088l-.106.178c-.089.148-.179.296-.265.447-.027.045-.055.06-.107.053-.087-.012-.177-.012-.266-.024a.127.127 0 0 1-.082-.056c-.055-.089-.099-.186-.152-.273-.028-.052-.025-.09.006-.138.182-.288.358-.578.541-.867.025-.043.027-.075.002-.12-.11-.201-.219-.406-.328-.608-.01-.02-.021-.035-.038-.063l-.472.799-.412-.771c-.051.07-.09.125-.127.18-.114.166-.229.334-.347.498-.032.045-.033.078-.006.126.169.312.335.624.505.935.024.047.029.084.003.132a2.532 2.532 0 0 0-.119.239c-.021.045-.044.054-.095.054-.21-.005-.339-.101-.416-.296-.06-.154-.154-.297-.24-.455-.024.035-.044.058-.061.083-.195.306-.39.61-.58.918a.156.156 0 0 1-.131.081c-.127.011-.256.022-.383.041-.044.006-.066-.008-.086-.045-.059-.112-.116-.226-.181-.334-.025-.045-.021-.078.006-.121l.603-.959c.017-.021.03-.047.053-.084-.166.009-.315.016-.468.021-.099.006-.198.014-.298.014a.102.102 0 0 1-.076-.043 3.254 3.254 0 0 1-.168-.313.118.118 0 0 1 .004-.097c.063-.105.133-.207.197-.312.026-.043.057-.055.104-.052.36.018.724.029 1.083.048.057.003.084-.012.112-.06.125-.213.253-.422.388-.648l-.866-.029c.145-.25.279-.486.423-.733l-.263-.011c-.163-.002-.325-.002-.487-.012-.063-.004-.095.02-.123.07-.181.299-.364.596-.543.895-.026.043-.057.063-.106.063-.107 0-.214.007-.321.016-.051.004-.075-.014-.098-.057a4.035 4.035 0 0 0-.149-.276c-.023-.043-.022-.073.005-.114.123-.192.245-.39.367-.586.013-.016.02-.033.035-.063l-.55-.004a46.13 46.13 0 0 0-.645-.002c-.047 0-.077-.012-.101-.057a7.658 7.658 0 0 0-.178-.334c-.023-.039-.026-.066.005-.104.085-.107.163-.219.25-.324a.142.142 0 0 1 .092-.038c.376.001.754.007 1.131.011l.096-.002c-.02-.035-.032-.06-.044-.084a27.412 27.412 0 0 1-.301-.562.157.157 0 0 1-.005-.115c.025-.079.065-.153.097-.233.016-.041.034-.055.08-.051.109.01.22.015.329.016.053 0 .078.023.102.066.163.32.33.641.491.961.026.049.054.071.113.073.252.005.506.015.776.023a75.516 75.516 0 0 0-.415-.772l.904-.002c-.013-.027-.02-.049-.029-.068-.108-.203-.22-.405-.326-.61-.023-.046-.052-.062-.103-.063-.342-.008-.682-.021-1.022-.027-.057-.002-.09-.02-.115-.071-.046-.095-.102-.185-.146-.278a.124.124 0 0 1 0-.1c.049-.1.083-.229.166-.278.078-.046.208-.007.313-.004.152.007.305.017.475.022-.02-.034-.03-.059-.044-.081l-.521-.972a.125.125 0 0 1-.002-.129c.063-.117.121-.238.186-.359.145.017.288.029.43.053.028.005.061.036.077.064.174.319.346.643.518.963.016.025.027.052.046.086a.598.598 0 0 0 .047-.06c.139-.204.277-.407.413-.612.025-.041.056-.056.103-.054.122.005.241.005.361.003.046 0 .072.017.093.055.042.086.086.17.134.25.025.045.019.074-.009.113-.233.326-.461.655-.695.982-.036.05-.036.086-.006.139.118.217.231.436.356.666l.491-.771.422.786c.027-.034.043-.055.06-.074.135-.198.271-.396.411-.594.035-.051.034-.088.006-.143-.184-.336-.363-.675-.547-1.011-.024-.047-.03-.083.002-.129.051-.073.078-.181.146-.22.066-.037.173-.004.261-.01.072-.006.106.024.14.086.108.215.226.426.348.65l.058-.073c.214-.321.427-.64.64-.962.03-.049.063-.066.119-.063.121.011.241.014.361.015.051.001.075.022.096.063.05.1.102.196.157.291.026.045.021.078-.007.121-.192.31-.388.617-.579.928-.016.021-.028.048-.049.08.247.005.482.009.718.009.065 0 .1.022.127.08.043.092.098.179.142.271a.114.114 0 0 1-.003.092c-.051.084-.113.164-.165.248-.027.045-.06.058-.109.056-.363-.015-.729-.024-1.093-.041-.058 0-.09.014-.116.065-.104.198-.217.396-.324.594-.015.026-.028.055-.051.095.277.021.545.043.827.063-.147.244-.293.479-.444.724l.081.003c.235-.003.472-.01.707-.012.05 0 .075-.019.102-.058.19-.295.386-.588.572-.885.045-.067.09-.089.165-.079.092.014.184.012.274.023a.13.13 0 0 1 .083.054c.054.086.098.18.147.269.024.043.021.074-.005.112l-.335.522-.037.063.109.008c.35.021.695.039 1.044.056.058.004.092.021.116.072.048.103.104.2.158.299.026.045.026.076-.009.117a7.005 7.005 0 0 0-.256.319c-.032.044-.069.06-.127.06-.359-.009-.723-.012-1.085-.017l-.084.004.063.117c.092.173.184.347.28.521.022.043.028.077.005.123a2.99 2.99 0 0 0-.103.213c-.02.045-.045.057-.092.047-.104-.016-.227.002-.306-.049-.075-.05-.105-.168-.155-.259-.132-.245-.262-.491-.396-.733-.016-.025-.052-.057-.079-.058-.271-.003-.545-.001-.817-.001-.007 0-.015.006-.03.01l.383.711c-.313-.004-.605-.01-.908-.015l.021.06c.111.207.226.416.334.625.023.045.053.056.1.058.341.008.682.021 1.021.028.056 0 .09.017.116.068.051.104.104.206.163.307.022.041.025.074-.005.113-.046.063-.09.129-.131.196-.027.045-.061.062-.114.058a25.899 25.899 0 0 0-.628-.029c-.025-.002-.053-.002-.095-.002.02.033.031.058.045.08.174.324.348.647.521.972.024.044.027.078.003.123-.063.119-.121.239-.185.366zm-1.955-3.715c.086-.047.169-.094.256-.138.041-.021.059-.044.057-.091a19.083 19.083 0 0 1-.001-.535c.001-.05-.018-.081-.061-.107-.16-.104-.316-.213-.479-.314-.025-.016-.07-.021-.097-.007a15.32 15.32 0 0 0-.521.278c-.024.015-.053.054-.054.082-.008.201-.012.403-.012.605 0 .025.021.064.045.077.164.097.333.188.498.284.043.023.075.021.115-.002.087-.046.171-.087.254-.132zM52.583 103.345c-.122-.085-.242-.165-.357-.252-.021-.016-.033-.057-.033-.086-.003-.367-.001-.734-.001-1.103v-.1l-.179.104c-.147.09-.298.178-.444.27-.045.027-.076.027-.119-.003-.072-.054-.151-.095-.223-.148a.14.14 0 0 1-.047-.087c-.006-.105.002-.211-.004-.314-.002-.06.02-.09.068-.116.297-.169.591-.341.888-.509.044-.025.061-.055.061-.104-.003-.231-.001-.462-.002-.692a.801.801 0 0 0-.004-.074l-.792.481v-.876l-.197.1c-.179.092-.357.187-.538.273-.05.025-.067.055-.066.108.002.354 0 .709.002 1.063 0 .052-.013.087-.06.116-.075.047-.147.1-.219.152-.039.031-.063.029-.107.004-.185-.104-.251-.247-.227-.457.02-.165.003-.334.003-.516-.039.02-.066.03-.093.045-.315.179-.631.354-.945.532-.054.031-.098.035-.153.011a9.191 9.191 0 0 0-.357-.145c-.042-.016-.055-.038-.054-.081.002-.126.004-.252-.001-.378-.002-.054.019-.079.062-.104l.985-.56.086-.051-.423-.202c-.089-.042-.181-.083-.268-.129-.023-.014-.047-.05-.048-.075a3.483 3.483 0 0 1 0-.354.12.12 0 0 1 .05-.084c.104-.063.215-.117.321-.18.042-.023.075-.021.115.002.312.188.622.369.933.557.047.027.08.029.126.001.21-.128.423-.253.648-.39l-.748-.436c.244-.15.475-.297.719-.447-.083-.049-.154-.091-.228-.132-.142-.08-.284-.157-.423-.242-.054-.032-.091-.026-.143.005-.3.178-.602.353-.901.529-.043.025-.077.028-.122.005a4.545 4.545 0 0 0-.291-.138c-.047-.021-.062-.047-.061-.096a5.479 5.479 0 0 0 0-.314c-.002-.049.015-.075.058-.1.2-.111.4-.228.602-.34l.062-.039-.482-.266a44.538 44.538 0 0 0-.568-.306c-.042-.022-.062-.047-.06-.099.004-.125.002-.25 0-.377-.001-.045.01-.071.055-.091.125-.053.247-.114.373-.166a.13.13 0 0 1 .1.009l.992.545c.022.013.047.023.083.043v-.094c0-.212-.002-.425.003-.637 0-.036.023-.079.05-.104.061-.059.132-.104.193-.16.033-.029.059-.031.097-.008.092.061.187.117.282.17.046.024.06.057.058.106-.008.359-.014.72-.021 1.078-.001.058.013.09.064.118.221.125.438.253.674.39v-.878c.274.146.531.284.797.428.003-.031.006-.054.006-.074.001-.23-.001-.461.002-.691 0-.053-.018-.08-.061-.105-.297-.168-.591-.34-.888-.508-.05-.027-.07-.06-.068-.117.006-.104-.002-.209.005-.313a.125.125 0 0 1 .047-.088c.089-.063.182-.161.277-.166.09-.004.187.091.278.146.132.077.261.157.407.244v-.093c0-.367 0-.733-.002-1.103 0-.055.018-.086.062-.114.11-.073.22-.152.332-.229.12.082.238.162.354.25.023.018.036.062.036.094.003.365.002.729.002 1.094v.098c.028-.014.049-.021.068-.031.218-.113.437-.227.653-.345.042-.021.074-.021.114.002.105.062.211.119.318.175.042.021.056.047.054.094a4.45 4.45 0 0 0 0 .283c.002.049-.018.071-.061.094-.359.178-.718.359-1.078.537-.057.026-.073.06-.073.119.004.246.002.492.002.756l.797-.445v.893c.039-.019.063-.027.084-.039.216-.109.43-.221.646-.328.056-.026.073-.061.071-.121-.003-.383 0-.767-.003-1.148 0-.053.015-.087.063-.113.079-.041.153-.121.23-.123.078-.002.154.077.235.113.065.029.081.072.081.141-.005.242-.002.482-.002.738.034-.016.06-.025.084-.038.339-.181.68-.36 1.019-.545.053-.026.088-.026.137.004.101.064.205.124.313.185.042.022.054.055.053.101a6.05 6.05 0 0 0 0 .33c.003.054-.019.08-.063.104-.317.18-.633.359-.95.541l-.079.049c.216.121.42.236.629.349.057.03.076.065.073.129-.006.103.001.204-.005.308a.102.102 0 0 1-.046.076c-.086.051-.177.094-.262.144-.047.024-.079.021-.123-.005-.313-.187-.632-.366-.943-.553-.051-.028-.084-.031-.133.002-.188.127-.378.248-.566.369-.027.018-.053.034-.09.061l.699.449-.733.426.068.041c.21.107.421.215.63.324.042.021.075.021.116-.004.307-.17.615-.334.923-.508.07-.039.121-.035.183.01.073.055.156.097.23.149.023.019.047.056.048.085.006.104 0 .205.003.307.003.051-.016.076-.057.1-.183.1-.362.201-.544.303-.019.01-.033.021-.062.036.037.022.065.041.093.06l.894.543c.048.029.069.061.066.119a6.348 6.348 0 0 0 0 .338c.003.053-.014.08-.063.1-.126.05-.25.104-.375.158a.138.138 0 0 1-.139-.006c-.315-.179-.634-.353-.95-.526a1.315 1.315 0 0 0-.076-.038v.133c0 .197-.002.395.001.592.001.049-.011.082-.053.11-.065.044-.13.091-.191.14-.038.031-.065.027-.104 0-.083-.063-.2-.105-.245-.188-.043-.079-.015-.199-.016-.302 0-.277.001-.556-.002-.832 0-.031-.018-.075-.042-.088-.24-.135-.479-.261-.72-.39-.006-.003-.015-.002-.031-.005v.807c-.271-.151-.527-.295-.793-.442-.003.024-.007.044-.008.063 0 .235.001.472-.002.709 0 .05.021.072.061.097.297.168.591.341.888.509.049.026.071.058.068.116a5.047 5.047 0 0 0 0 .348c0 .047-.013.076-.058.098-.071.033-.141.07-.208.11-.045.026-.082.026-.129-.003-.177-.11-.359-.217-.538-.324-.022-.014-.045-.025-.081-.045v.092c0 .367-.002.734.001 1.102 0 .052-.014.082-.055.111-.109.064-.218.142-.334.223zm.037-4.197c.097 0 .193-.001.292.002.045.001.07-.014.092-.054.082-.158.166-.315.253-.472.025-.045.021-.082-.002-.123-.092-.17-.179-.34-.273-.506-.015-.025-.053-.052-.081-.053a14.555 14.555 0 0 0-.591 0 .12.12 0 0 0-.085.048c-.102.175-.202.351-.296.527a.111.111 0 0 0 .002.091c.099.163.204.323.304.486.026.04.056.055.104.054.092-.002.187 0 .281 0zM94.08 93.365c-.121-.085-.241-.166-.356-.252-.021-.017-.033-.058-.033-.087-.003-.366-.002-.733-.002-1.103v-.1l-.179.105c-.148.089-.298.177-.443.268-.045.029-.077.028-.12-.002-.071-.052-.149-.095-.223-.146a.154.154 0 0 1-.046-.088c-.006-.105.002-.211-.004-.314-.003-.059.019-.089.068-.118.297-.168.59-.34.887-.508.045-.024.062-.054.062-.104-.005-.23-.002-.461-.002-.691 0-.021-.003-.042-.006-.075-.263.163-.521.318-.791.481v-.875c-.076.039-.137.067-.196.099-.179.093-.356.187-.537.274-.052.023-.068.054-.066.108.002.354 0 .708.001 1.062.001.055-.013.089-.06.117-.074.047-.146.101-.219.154-.038.029-.063.026-.106.002-.186-.103-.252-.246-.227-.457.02-.164.004-.334.004-.514-.04.018-.067.029-.094.044-.314.177-.632.354-.945.533-.054.03-.098.034-.153.01a6.175 6.175 0 0 0-.356-.146c-.042-.016-.057-.037-.055-.08a5.26 5.26 0 0 0-.002-.377c-.001-.055.02-.08.063-.104.328-.187.656-.372.984-.56.023-.015.048-.028.086-.051-.151-.07-.287-.137-.422-.201-.091-.043-.182-.082-.271-.131a.118.118 0 0 1-.047-.074 5.223 5.223 0 0 1 0-.354.12.12 0 0 1 .049-.083c.105-.063.217-.118.323-.18.043-.025.074-.021.115.002.31.187.622.369.932.556.047.028.08.029.127.002.209-.13.423-.254.648-.39a427.22 427.22 0 0 1-.749-.435l.719-.449a9.41 9.41 0 0 0-.227-.131c-.143-.08-.284-.157-.424-.241-.055-.032-.091-.027-.142.004-.301.178-.604.351-.902.528-.043.025-.077.029-.122.006a4.074 4.074 0 0 0-.291-.139c-.046-.02-.062-.047-.06-.096.002-.104.002-.21-.001-.314-.001-.049.016-.074.058-.1.201-.111.4-.227.603-.341.016-.01.033-.021.062-.037-.167-.093-.325-.179-.482-.265-.188-.104-.378-.206-.567-.309-.042-.021-.063-.046-.061-.097a6.805 6.805 0 0 0 0-.378c-.002-.044.011-.07.055-.09.126-.055.247-.114.373-.166.028-.012.072-.006.101.009.332.181.661.362.992.545.022.013.045.022.084.044v-.095c0-.213-.003-.425.001-.638a.165.165 0 0 1 .052-.104c.061-.059.131-.105.193-.161.033-.028.06-.032.097-.007a4.1 4.1 0 0 0 .281.169c.049.026.061.058.06.108-.009.359-.015.718-.021 1.076-.002.058.013.09.063.119.221.123.438.254.675.389v-.877l.798.427c.002-.03.006-.052.006-.074 0-.229-.003-.462.002-.692 0-.051-.018-.078-.062-.104-.297-.168-.59-.34-.887-.507-.051-.029-.071-.062-.068-.118.006-.105-.003-.21.004-.314a.13.13 0 0 1 .047-.088c.089-.063.185-.16.277-.164.091-.006.188.09.278.145.132.077.262.156.407.245v-.095c0-.366.002-.733-.001-1.101-.002-.054.017-.087.062-.114l.332-.231c.119.084.238.164.354.251.021.017.036.063.036.093.002.364 0 .729 0 1.095v.098c.029-.014.05-.021.068-.031.219-.113.438-.227.653-.344a.106.106 0 0 1 .115.002c.104.061.212.117.318.173.041.021.057.048.054.094-.003.095-.003.188.001.282.002.051-.019.074-.062.097-.361.179-.719.359-1.078.535-.057.027-.073.06-.071.12.003.246 0 .492 0 .755.27-.147.525-.293.798-.444v.892c.039-.019.063-.027.086-.038.214-.109.428-.223.645-.328.057-.027.072-.061.071-.122-.003-.382 0-.765-.003-1.147 0-.054.013-.088.063-.113.08-.041.152-.122.231-.124.077 0 .153.078.235.114.065.028.081.072.081.142-.006.24-.003.481-.003.739.035-.018.061-.027.085-.04.339-.183.68-.361 1.019-.546.051-.026.088-.026.137.004.101.064.205.126.311.185.044.024.056.056.055.103a5.187 5.187 0 0 0 0 .33c.003.054-.02.08-.063.104l-.95.541c-.022.016-.046.03-.08.05.217.12.421.236.628.347.059.031.077.066.075.131-.006.102.001.205-.005.307a.102.102 0 0 1-.047.077c-.085.052-.176.093-.262.142-.046.025-.079.022-.122-.003-.313-.186-.632-.366-.943-.553-.051-.029-.086-.031-.134.002-.188.126-.378.246-.565.37-.026.018-.053.033-.09.061l.699.448c-.247.144-.485.28-.734.427.03.018.048.029.068.038.209.109.421.216.629.325.043.021.075.02.117-.003.307-.17.615-.334.922-.508.071-.04.12-.036.183.01.074.054.157.097.231.149.023.02.045.056.048.086.006.102-.001.203.003.307.003.049-.016.075-.057.098l-.544.303-.063.037c.037.022.064.041.094.06.296.183.596.364.893.544.048.029.07.061.067.117a4.258 4.258 0 0 0 0 .339c.001.052-.014.08-.063.101-.126.049-.251.104-.375.158a.136.136 0 0 1-.139-.008c-.316-.178-.635-.352-.95-.527a1.033 1.033 0 0 0-.076-.035v.133c0 .197-.001.394.002.59.001.05-.011.085-.054.111a2.16 2.16 0 0 0-.19.14c-.038.03-.067.028-.104 0-.084-.063-.2-.106-.246-.188-.042-.08-.014-.199-.016-.302 0-.278.002-.556-.001-.834a.13.13 0 0 0-.042-.088c-.239-.132-.479-.259-.72-.388-.008-.004-.016-.004-.032-.006v.807l-.792-.442c-.005.026-.011.046-.011.063 0 .236.002.474 0 .709 0 .05.02.074.06.097.298.169.592.341.888.509.05.029.071.059.069.116a3.65 3.65 0 0 0 0 .347c0 .049-.015.076-.059.1-.072.033-.141.07-.208.109-.046.027-.083.026-.129-.002-.179-.11-.359-.217-.539-.324-.022-.015-.046-.025-.082-.045v.092c0 .367 0 .734.002 1.102 0 .051-.015.082-.056.11-.113.061-.221.139-.337.221zm.037-4.198c.097 0 .193-.002.291 0 .045.002.07-.011.093-.053.082-.158.166-.314.251-.472.024-.045.021-.08-.002-.123-.092-.168-.18-.339-.271-.506-.015-.024-.054-.05-.082-.05a9.672 9.672 0 0 0-.59 0 .116.116 0 0 0-.086.046c-.103.174-.2.35-.297.528a.101.101 0 0 0 .003.088c.099.164.205.324.306.486.024.042.056.057.103.055.092-.002.186.001.281.001z"/><g fill="#171650"><path d="M14.342 90.625c-.122-.086-.241-.166-.356-.252-.021-.017-.033-.058-.033-.086-.002-.367-.001-.735-.001-1.103v-.101c-.067.041-.123.072-.179.105-.147.089-.298.176-.443.268-.045.029-.078.028-.12 0-.073-.054-.152-.097-.224-.148a.148.148 0 0 1-.046-.089c-.006-.104.002-.209-.003-.314-.003-.058.02-.088.068-.116.296-.168.59-.341.887-.509.044-.024.062-.054.062-.104-.003-.231-.001-.464-.002-.692 0-.021-.002-.042-.005-.074l-.792.481v-.876l-.195.099c-.181.093-.358.187-.54.275-.049.022-.066.053-.066.108.002.354 0 .707.002 1.062.001.054-.013.088-.059.116-.076.048-.148.1-.218.154-.039.029-.063.026-.108.002-.184-.103-.25-.246-.226-.457.019-.164.003-.334.003-.515-.039.019-.067.03-.094.045-.315.177-.632.354-.944.533-.056.031-.1.034-.154.01a6.839 6.839 0 0 0-.357-.145c-.042-.017-.055-.038-.053-.081.001-.127.003-.252-.001-.377-.001-.055.02-.08.063-.104l.983-.561.086-.051c-.149-.07-.286-.137-.423-.2-.089-.044-.181-.082-.269-.132-.022-.012-.046-.049-.046-.073a3.483 3.483 0 0 1 0-.354.115.115 0 0 1 .048-.082c.104-.063.216-.119.323-.181.041-.024.073-.021.114.003.311.186.622.368.934.555.046.028.08.029.126.002.21-.131.422-.254.647-.39-.251-.146-.494-.286-.748-.435l.719-.449a32.037 32.037 0 0 0-.228-.131c-.141-.08-.284-.157-.423-.241-.053-.032-.091-.026-.142.004-.301.179-.603.351-.902.529-.042.024-.077.028-.123.005a4.289 4.289 0 0 0-.29-.139c-.046-.02-.061-.047-.06-.096a4.11 4.11 0 0 0 0-.314c-.001-.049.014-.074.057-.098.202-.112.401-.229.602-.344.019-.009.034-.02.062-.035a28.603 28.603 0 0 0-.482-.266c-.188-.104-.377-.206-.566-.309-.042-.021-.063-.045-.062-.097.003-.125.002-.251.001-.378-.001-.044.01-.07.055-.09.126-.054.247-.113.374-.166.027-.012.071-.006.099.009.333.181.663.362.993.546.021.012.046.022.083.043v-.095c0-.213-.001-.425.002-.638a.167.167 0 0 1 .05-.104c.061-.059.132-.104.195-.16.032-.029.057-.033.096-.008.092.061.187.117.283.17.045.025.058.058.057.107-.009.359-.013.718-.021 1.077-.001.057.012.09.063.118.221.123.44.252.674.389v-.876l.797.426c.004-.03.008-.052.008-.073 0-.23-.001-.463.002-.692 0-.052-.018-.079-.062-.104-.296-.168-.59-.34-.888-.507-.049-.028-.07-.062-.067-.118.005-.104-.003-.21.003-.314a.134.134 0 0 1 .046-.088c.091-.063.184-.16.279-.166.091-.004.188.093.279.146.131.077.259.156.406.245v-.094c0-.367.001-.734-.001-1.103 0-.054.017-.086.061-.113.111-.075.219-.152.333-.231.119.084.239.164.353.25.023.019.036.062.037.093.002.366.001.729.001 1.096v.098c.028-.014.049-.021.068-.031.217-.113.436-.228.653-.344a.108.108 0 0 1 .115.002c.104.061.211.118.318.173.04.021.055.048.054.095a3.761 3.761 0 0 0 0 .281c.002.051-.018.075-.062.096-.359.179-.716.359-1.077.537-.056.026-.073.059-.072.119.003.246.001.492.001.756.268-.148.524-.293.798-.445v.892c.038-.019.063-.026.084-.038.215-.109.429-.222.645-.328.056-.027.073-.061.072-.121-.003-.383 0-.766-.003-1.148 0-.053.012-.088.062-.113.079-.041.154-.122.232-.123.077-.002.153.077.234.113.065.029.083.072.081.142-.004.24-.001.482-.001.738.035-.017.061-.026.083-.039.34-.183.682-.36 1.021-.544.05-.028.087-.028.135.002.102.064.206.126.312.186.044.023.057.055.055.102-.003.109-.004.22 0 .33.001.054-.02.08-.063.104-.316.18-.633.36-.949.543-.023.014-.048.028-.08.049.217.119.421.235.628.347.057.03.077.065.072.13-.005.102.002.205-.003.307a.106.106 0 0 1-.046.077c-.085.052-.176.093-.263.142-.043.025-.079.022-.122-.002-.313-.187-.629-.367-.944-.554-.049-.028-.083-.03-.132.002-.188.126-.377.246-.566.369-.025.019-.053.034-.09.062.235.149.46.295.699.449-.248.144-.486.279-.732.426l.067.039c.21.108.421.215.629.324.042.022.074.021.116-.003.307-.17.617-.334.922-.507.071-.041.121-.038.185.01.072.053.155.096.229.148a.13.13 0 0 1 .048.086c.006.102 0 .204.003.307.001.049-.016.075-.058.098-.184.099-.364.202-.544.302-.017.01-.035.021-.063.035l.093.061c.297.183.595.364.894.543.048.03.07.06.068.117a4.283 4.283 0 0 0 0 .34c.001.054-.014.08-.064.099a9.594 9.594 0 0 0-.375.16.138.138 0 0 1-.14-.008c-.315-.178-.632-.352-.948-.527l-.076-.035v.133c0 .195-.001.395.001.59 0 .05-.012.084-.055.112a2.097 2.097 0 0 0-.19.139c-.037.031-.066.028-.104 0-.083-.063-.201-.106-.245-.188-.044-.08-.015-.198-.015-.301 0-.279.001-.557-.002-.834-.001-.031-.02-.074-.043-.089a37.993 37.993 0 0 0-.722-.387c-.006-.005-.014-.004-.029-.007v.807c-.272-.152-.528-.296-.793-.441-.004.025-.009.045-.009.063 0 .236.001.475-.001.709 0 .05.021.074.061.098.296.168.59.34.887.508.049.029.07.059.068.117-.004.114-.003.23 0 .346.001.049-.013.076-.059.1-.07.033-.14.07-.208.109-.046.027-.082.027-.128-.002-.178-.11-.358-.217-.539-.324-.021-.014-.044-.025-.081-.045v.092c0 .367-.001.734.001 1.102 0 .051-.015.082-.057.11-.11.062-.219.14-.335.223z"/><path d="M14.378 86.427c.097 0 .193-.002.292.001.043.001.07-.011.092-.054.082-.158.167-.314.252-.472.026-.045.022-.08-.001-.123-.092-.168-.18-.339-.272-.505-.015-.025-.054-.052-.082-.052a11.605 11.605 0 0 0-.59 0 .12.12 0 0 0-.086.047c-.103.173-.202.351-.296.526-.014.023-.012.067.001.091.101.164.205.323.306.485.024.043.055.057.102.055.094-.003.189.001.282.001z"/></g><g fill="#171650"><path d="M38.042 83.731c-.065-.134-.131-.262-.189-.394-.011-.024-.002-.066.014-.094.176-.32.354-.643.533-.963l.048-.087a4.151 4.151 0 0 0-.207.007c-.173.004-.346.008-.519.019-.054.003-.082-.015-.104-.063-.038-.081-.086-.155-.122-.237a.124.124 0 0 1 .001-.1c.046-.094.104-.183.149-.275.026-.053.061-.068.117-.069.341-.003.681-.011 1.022-.013.051-.002.078-.018.104-.063.109-.204.223-.404.335-.605a.892.892 0 0 0 .032-.067c-.311.013-.609.022-.926.037l.425-.767-.219-.009c-.202-.008-.404-.012-.605-.022-.055-.002-.084.014-.111.063-.169.311-.344.62-.514.93-.024.047-.054.069-.107.073-.09.005-.179.015-.267.028-.048.008-.068-.007-.096-.05-.111-.181-.1-.339.023-.509.099-.136.166-.291.254-.448-.043-.003-.072-.007-.104-.007-.361.002-.723.002-1.085.007a.154.154 0 0 1-.139-.065c-.078-.104-.159-.201-.241-.301-.03-.034-.031-.061-.008-.098.063-.108.125-.219.183-.33.024-.047.055-.061.105-.062.377-.002.754-.007 1.132-.009l.1-.002a47.13 47.13 0 0 0-.271-.383c-.059-.081-.119-.16-.171-.244a.103.103 0 0 1-.006-.089c.054-.104.11-.208.173-.308a.117.117 0 0 1 .083-.051c.122-.006.246.001.368-.001.05-.001.076.017.101.06.181.313.364.625.544.938.027.047.056.064.109.063.246-.01.493-.017.756-.023-.149-.25-.292-.49-.442-.745.287-.015.559-.026.845-.041a9.688 9.688 0 0 0-.134-.225c-.084-.14-.172-.276-.252-.418-.031-.056-.066-.067-.125-.066-.349.011-.697.017-1.045.025-.051.001-.082-.013-.11-.056a4.474 4.474 0 0 0-.188-.263c-.031-.04-.03-.069-.005-.112.054-.09.104-.182.151-.274.022-.043.049-.06.099-.06.23 0 .461-.002.691-.004.021 0 .04-.003.072-.005-.102-.159-.197-.313-.293-.466a42.016 42.016 0 0 0-.346-.544c-.025-.039-.032-.069-.006-.114.064-.107.125-.218.184-.33.021-.037.044-.057.092-.052.135.015.272.021.407.036.029.003.064.029.081.057.204.318.401.639.603.959.014.021.028.043.053.078l.046-.082c.103-.187.204-.373.311-.556.02-.032.06-.06.094-.067.081-.021.166-.027.248-.045.043-.009.066 0 .087.04.053.097.106.193.165.285.028.046.023.079-.002.123-.182.31-.359.621-.542.931-.028.051-.032.086-.002.135.133.218.263.437.4.668l.427-.767.49.761c.017-.025.031-.043.041-.062.113-.201.223-.404.338-.604.026-.045.024-.078-.002-.121-.177-.291-.351-.584-.528-.875-.029-.049-.033-.086-.002-.137.057-.089.102-.184.157-.271a.132.132 0 0 1 .083-.055c.109-.012.238-.053.324-.009.082.04.119.17.173.263l.237.412c.019-.035.031-.06.045-.082l.535-.965c.025-.047.057-.064.108-.07.133-.01.267-.025.402-.039.063.131.13.259.188.391.012.025.001.072-.015.1-.174.319-.354.637-.53.957-.015.023-.027.049-.048.086.031.002.053.004.075.004.246.008.493.017.738.02.048 0 .075.018.1.059.062.104.127.203.194.306.024.038.024.067.001.106a3.737 3.737 0 0 0-.138.248c-.022.045-.052.057-.1.053-.4-.019-.801-.033-1.201-.055-.063-.003-.093.016-.122.069-.117.216-.239.431-.367.661.308-.002.603-.002.913-.002l-.433.779c.043.002.068.006.093.006.241.01.481.017.722.028.063.002.094-.019.123-.071.184-.336.372-.67.557-1.006.025-.047.053-.07.108-.068.09.003.193-.032.263.005.068.036.097.143.149.214.043.059.037.104.002.163-.121.209-.235.421-.36.644.038.004.064.008.092.008.386.008.771.017 1.156.02.057 0 .09.018.116.068.058.106.119.209.184.313.024.042.021.075-.002.115a4.32 4.32 0 0 0-.161.289c-.024.047-.055.061-.105.061-.363.002-.728.008-1.092.012-.027 0-.056.002-.095.004.131.209.253.412.38.608.035.054.036.095.001.148-.053.086-.098.18-.152.267a.118.118 0 0 1-.077.045c-.101.004-.199-.006-.3-.004-.051 0-.079-.02-.104-.063-.184-.313-.372-.627-.555-.941-.029-.05-.059-.068-.117-.063-.227.019-.45.031-.675.047l-.107.01.394.73-.849.017.04.069.393.588c.026.041.056.055.103.055.351.002.702.008 1.054.005.081 0 .124.027.156.097.037.084.089.162.128.244a.128.128 0 0 1 0 .1c-.044.092-.1.179-.146.269-.021.044-.051.06-.099.058h-.621l-.072.002.053.099c.171.303.342.606.516.909.028.048.033.085.002.136-.06.097-.113.194-.165.296-.023.046-.05.063-.104.057a7.095 7.095 0 0 0-.406-.045.135.135 0 0 1-.117-.074c-.188-.309-.382-.614-.573-.922a.596.596 0 0 0-.049-.067l-.063.116c-.097.171-.192.342-.286.516-.023.044-.051.066-.103.07a3.584 3.584 0 0 0-.232.029c-.049.01-.071-.009-.09-.051-.042-.096-.124-.189-.123-.283 0-.092.085-.182.134-.271.134-.244.271-.486.403-.729.015-.026.02-.074.006-.099l-.44-.688c-.004-.006-.012-.01-.024-.02l-.394.704c-.164-.265-.317-.515-.477-.772-.017.021-.029.034-.038.053-.115.205-.229.412-.347.617-.024.045-.019.074.007.113.177.292.35.585.526.876.03.048.035.086.004.136-.06.1-.115.199-.168.303-.021.043-.049.062-.099.059a2.304 2.304 0 0 0-.235-.005c-.053.001-.085-.017-.111-.063-.103-.185-.208-.364-.313-.547l-.049-.08c-.02.034-.031.06-.045.082-.179.32-.358.642-.534.963-.025.045-.052.063-.103.067-.134.002-.266.017-.408.032z"/><path d="M40.115 80.08c.085.049.171.094.254.145.039.021.067.023.106-.002.148-.1.298-.195.449-.289.043-.027.058-.061.058-.109.001-.191.009-.383.008-.574a.119.119 0 0 0-.047-.084c-.17-.1-.342-.194-.516-.287a.116.116 0 0 0-.098 0c-.173.103-.347.209-.517.316a.12.12 0 0 0-.042.08c.007.191.022.382.03.572.003.049.021.076.063.098.088.041.17.089.252.134z"/></g><path fill="#171650" d="M48.747 63.125c-.122-.086-.24-.166-.355-.253-.021-.016-.034-.057-.035-.086l-.001-1.102v-.1l-.177.106c-.148.089-.298.177-.445.268-.044.029-.078.027-.118-.003-.073-.051-.152-.095-.223-.148a.14.14 0 0 1-.047-.087c-.005-.105.001-.21-.003-.314-.003-.059.019-.09.068-.117l.887-.509c.044-.026.061-.053.061-.105-.003-.23-.001-.462-.001-.692 0-.02-.003-.041-.004-.075-.265.162-.521.319-.792.483v-.876l-.195.099c-.182.092-.359.186-.54.275-.05.024-.067.053-.067.108.003.354 0 .708.003 1.062 0 .053-.014.087-.06.116a3.33 3.33 0 0 0-.219.155c-.039.029-.063.028-.107.002-.184-.102-.25-.246-.227-.457.021-.165.004-.333.004-.515-.038.019-.066.031-.094.046-.314.176-.632.352-.944.532-.055.031-.099.035-.154.01a7.365 7.365 0 0 0-.356-.145c-.042-.016-.055-.038-.054-.081a7.94 7.94 0 0 0-.001-.378c-.001-.054.019-.08.063-.103l.985-.561.085-.05-.422-.202c-.089-.042-.182-.082-.269-.13-.023-.012-.048-.048-.048-.074a4.18 4.18 0 0 1 0-.354.115.115 0 0 1 .05-.083c.104-.065.216-.119.321-.181.042-.024.074-.021.116.002.311.187.623.37.932.556.047.028.08.029.128.001.209-.13.422-.254.647-.389l-.749-.436.718-.449-.227-.131c-.142-.081-.284-.158-.423-.242-.054-.032-.091-.027-.143.004-.299.177-.602.351-.901.529-.043.025-.078.028-.123.005a4.063 4.063 0 0 0-.291-.138c-.045-.02-.061-.047-.06-.096.003-.104.004-.21 0-.314-.002-.049.015-.075.057-.099.202-.112.401-.227.602-.341.019-.01.034-.021.063-.038l-.483-.265a38.546 38.546 0 0 0-.567-.306c-.042-.022-.062-.046-.061-.097.004-.125.003-.251.001-.378-.001-.044.01-.07.054-.09.125-.054.248-.115.374-.167.027-.012.072-.005.1.009.332.18.663.363.991.545.023.012.047.022.084.042v-.093c0-.213-.002-.425.002-.637a.16.16 0 0 1 .05-.104c.061-.058.132-.104.194-.16.033-.03.059-.032.096-.007.093.06.187.117.282.169.047.025.059.057.058.107-.008.359-.013.719-.021 1.078-.001.057.014.09.063.119.222.124.44.252.674.388v-.877l.798.426c.002-.03.006-.052.006-.073 0-.231-.001-.462.001-.693 0-.052-.017-.08-.061-.104-.296-.169-.591-.34-.887-.508-.05-.028-.07-.06-.067-.118.004-.104-.002-.21.003-.315a.13.13 0 0 1 .047-.086c.089-.064.184-.162.279-.166.09-.004.187.091.279.146.131.076.259.156.405.244v-.093c0-.367.001-.734-.001-1.102 0-.053.019-.086.063-.115.11-.074.219-.152.332-.23.12.084.238.164.353.251.023.018.036.061.037.092.002.365.001.73.001 1.094v.098c.028-.013.049-.021.068-.031.218-.114.438-.227.653-.344.042-.023.074-.021.116.001.104.061.21.119.318.174.041.021.055.047.054.093a3.815 3.815 0 0 0 0 .283c.002.05-.019.074-.061.095-.36.178-.718.359-1.077.536-.058.028-.074.059-.073.12.003.246.001.492.001.756.268-.149.524-.294.796-.446v.891l.086-.038c.215-.109.43-.222.646-.328.056-.027.071-.061.071-.122-.003-.382-.001-.765-.002-1.148 0-.053.013-.087.063-.113.079-.041.154-.123.23-.124.078-.002.155.078.236.113.065.03.082.072.081.142-.005.241-.001.482-.001.739l.082-.039c.341-.182.681-.362 1.019-.545.052-.027.089-.028.138.003.1.065.206.126.312.184.042.024.055.054.052.102-.001.11-.003.221.003.33.001.053-.021.08-.063.104-.318.179-.634.361-.95.541l-.081.049c.217.12.421.236.629.348.056.03.076.066.073.129-.005.102.003.204-.004.306a.112.112 0 0 1-.045.078c-.086.051-.177.093-.264.142-.044.025-.078.022-.123-.003-.314-.186-.629-.367-.943-.553-.05-.03-.084-.03-.134.002-.188.126-.377.246-.566.369l-.089.06.7.449-.735.426.069.041c.209.107.42.215.628.324.043.022.074.02.115-.003.308-.169.618-.334.924-.507.07-.04.122-.037.183.009.074.054.157.096.23.15a.132.132 0 0 1 .048.085c.007.102 0 .204.004.307.002.049-.017.075-.058.097-.183.1-.362.202-.543.303-.019.01-.034.021-.062.036.036.023.063.042.092.059.299.182.595.365.894.543.048.03.071.059.067.118a4.76 4.76 0 0 0-.001.338c.002.052-.013.08-.063.1a7.706 7.706 0 0 0-.376.16.138.138 0 0 1-.139-.008c-.315-.177-.632-.352-.949-.527-.021-.011-.041-.019-.075-.037v.133c0 .197-.003.394 0 .59.001.05-.011.084-.054.112-.065.043-.13.09-.19.139-.038.032-.065.028-.104 0-.083-.063-.2-.106-.245-.189-.043-.079-.015-.199-.015-.301-.001-.277.001-.556-.002-.834 0-.03-.019-.074-.043-.087-.237-.133-.479-.26-.72-.388-.007-.003-.015-.003-.031-.006v.806c-.271-.152-.528-.294-.793-.441-.003.025-.008.044-.008.063 0 .236.001.472-.001.708-.001.051.02.075.06.098.297.168.591.34.888.509.048.027.07.057.067.116a4.99 4.99 0 0 0 0 .346c.001.048-.012.077-.058.099a2.96 2.96 0 0 0-.208.11c-.045.028-.082.026-.129-.002-.178-.111-.358-.217-.539-.324-.021-.014-.044-.026-.081-.046v.092c0 .367-.001.734.001 1.103 0 .05-.014.081-.057.108-.11.078-.218.157-.336.238zm.038-4.197c.098 0 .193-.002.291 0 .044.002.07-.011.092-.053.082-.159.166-.315.252-.471a.12.12 0 0 0-.002-.124c-.092-.168-.181-.339-.273-.505-.014-.025-.053-.052-.082-.052a14.457 14.457 0 0 0-.589 0 .119.119 0 0 0-.086.047c-.103.174-.201.35-.297.527a.111.111 0 0 0 .002.091c.1.163.205.323.305.486.026.041.056.055.103.053.095-.002.189.001.284.001z"/><g fill="#171650"><path d="M18.113 74.642c-.121-.085-.24-.165-.354-.253-.021-.017-.035-.058-.035-.086l-.001-1.103v-.099l-.178.104c-.149.088-.298.176-.445.269-.044.028-.078.026-.12-.003-.071-.053-.15-.094-.222-.146a.147.147 0 0 1-.047-.09c-.005-.104.001-.21-.003-.313-.002-.06.02-.09.067-.117.296-.169.592-.342.888-.51.044-.024.061-.053.061-.104-.002-.23-.001-.463-.001-.693 0-.02-.003-.039-.005-.072-.265.16-.521.316-.792.482v-.877c-.076.038-.136.067-.195.1-.181.092-.358.186-.54.273-.049.024-.066.053-.066.108.003.354 0 .708.003 1.063 0 .053-.014.086-.061.115a3.19 3.19 0 0 0-.218.154c-.039.029-.063.027-.107.001-.184-.103-.25-.247-.227-.456.021-.165.004-.335.004-.516-.039.02-.066.031-.093.045-.315.178-.632.354-.945.533a.153.153 0 0 1-.153.01 10.237 10.237 0 0 0-.357-.145c-.042-.017-.055-.037-.054-.081a7.943 7.943 0 0 0-.001-.378c-.002-.053.019-.079.062-.104.33-.187.657-.372.985-.56l.085-.051-.422-.202c-.089-.043-.183-.082-.269-.13-.022-.013-.047-.048-.047-.073a3.8 3.8 0 0 1 0-.354.117.117 0 0 1 .049-.083c.105-.063.217-.119.322-.182.042-.023.074-.021.115.004.311.187.623.369.933.556.046.028.08.028.127 0 .21-.128.422-.251.648-.388-.251-.146-.494-.287-.749-.437.244-.149.475-.297.718-.446-.083-.049-.154-.092-.226-.132-.142-.081-.285-.157-.425-.241-.052-.033-.091-.027-.142.002-.299.18-.602.354-.902.53-.043.024-.077.029-.123.007a3.709 3.709 0 0 0-.291-.14c-.045-.021-.06-.047-.059-.096.003-.104.004-.21 0-.314-.002-.049.013-.073.056-.099.202-.112.402-.227.604-.342.018-.01.034-.021.061-.039l-.482-.264c-.188-.104-.376-.205-.567-.308-.041-.021-.062-.046-.061-.097.004-.125.003-.252.001-.377-.001-.045.01-.072.054-.092.126-.053.248-.115.375-.166.027-.012.071-.006.099.01.332.18.663.363.992.545.023.013.045.022.084.044v-.095c0-.213-.002-.426.003-.639 0-.033.023-.079.049-.104.062-.059.133-.104.195-.159.033-.029.059-.032.095-.009.093.061.188.117.284.17.046.025.059.058.058.107-.009.358-.013.719-.021 1.078-.001.057.013.09.064.117.222.125.439.254.674.389v-.875c.273.146.532.283.797.426.003-.03.007-.054.007-.073 0-.231-.001-.462.001-.693 0-.052-.017-.078-.061-.104-.296-.166-.591-.34-.888-.508-.049-.027-.069-.06-.066-.117.005-.104-.001-.211.003-.313a.127.127 0 0 1 .047-.088c.089-.063.183-.161.278-.166.091-.004.187.092.278.146l.407.244v-.092c0-.367.001-.734-.001-1.103 0-.056.019-.087.062-.116.111-.072.22-.15.332-.229.119.082.239.162.354.25.023.018.036.062.036.092.003.365.002.73.002 1.096v.098l.067-.029c.219-.114.438-.229.653-.346.043-.021.075-.021.116.002.104.062.209.117.317.174.041.021.055.047.054.093a3.788 3.788 0 0 0 0 .282c.001.052-.02.074-.063.097l-1.076.536c-.058.027-.074.059-.074.119.004.246.002.492.002.756l.797-.445v.893c.039-.019.063-.027.085-.039.215-.108.428-.221.645-.328.056-.026.072-.061.072-.12-.003-.384-.001-.767-.002-1.148-.001-.054.012-.089.063-.114.079-.039.152-.121.23-.123.077-.002.155.078.235.113.064.029.083.073.082.143-.004.24-.002.48-.002.738.035-.018.06-.027.083-.039.341-.182.68-.36 1.019-.545.051-.027.087-.027.136.004.102.063.206.125.312.184.043.023.055.054.054.101a5.218 5.218 0 0 0 0 .331c.002.053-.019.079-.062.104l-.95.541-.081.051c.217.12.422.236.629.347.057.03.077.065.074.128-.005.104.001.205-.004.309a.103.103 0 0 1-.046.076c-.084.052-.177.094-.263.143-.044.025-.079.021-.123-.003-.313-.187-.63-.367-.942-.552-.049-.03-.084-.032-.133 0-.188.127-.377.248-.566.369-.026.018-.052.035-.089.062.235.149.46.295.7.448-.248.144-.486.281-.734.427.03.019.049.028.069.04.21.107.42.215.629.324.043.021.074.021.116-.004.307-.17.616-.334.922-.506.07-.041.122-.039.184.008.074.055.157.097.23.149a.14.14 0 0 1 .048.086c.006.103 0 .205.004.306.001.05-.017.076-.059.1-.183.1-.362.201-.542.302l-.063.037c.036.022.064.042.092.06.298.183.594.365.895.545.048.027.07.058.067.117a3.809 3.809 0 0 0-.001.338c.002.053-.014.08-.063.1-.127.05-.253.104-.377.16-.05.023-.09.02-.14-.008a73.41 73.41 0 0 0-.948-.527c-.021-.01-.041-.021-.076-.036v.133c0 .196-.001.395.001.591 0 .049-.011.084-.054.111-.065.043-.13.09-.19.141-.038.029-.066.025-.104-.002-.083-.063-.2-.105-.245-.188-.042-.079-.015-.199-.015-.3-.001-.278.001-.557-.002-.836 0-.029-.019-.073-.042-.086-.238-.133-.479-.26-.72-.389-.007-.004-.015-.004-.031-.007v.808l-.793-.442c-.004.024-.008.045-.008.063 0 .234.001.471-.002.707-.001.051.02.073.06.099.296.168.592.34.888.509.048.027.07.057.067.116-.004.114-.003.23 0 .346.001.049-.012.077-.058.099-.07.033-.142.069-.208.109-.045.027-.083.025-.129-.001-.179-.11-.359-.218-.539-.324-.021-.014-.044-.026-.081-.046v1.195c.001.051-.013.082-.056.11-.113.067-.221.145-.338.227z"/><path d="M18.15 70.445c.099 0 .194-.003.292 0 .044.001.071-.012.093-.053.082-.158.165-.316.252-.471a.122.122 0 0 0-.002-.125c-.093-.168-.18-.338-.273-.506-.014-.024-.053-.051-.082-.051a9.639 9.639 0 0 0-.589 0c-.029 0-.071.022-.085.047-.104.174-.202.352-.297.527a.102.102 0 0 0 .001.09c.1.165.205.323.305.486.025.041.056.056.104.054.093-.001.187.002.281.002z"/></g><path fill="#171650" d="M43.471 106.487c-2.518-.948-5.107-1.569-7.792-1.771a29.338 29.338 0 0 0-3.368-.035c.412.281.813.58 1.205.892a31.14 31.14 0 0 1 1.883.034c2.695.143 5.313.807 7.831 1.755.549.206.784-.671.241-.875z"/><g><path fill="#171650" d="M73.517 104.893c2.469-.317 4.738-1.537 7.223-1.729.284-.022.563-.02.839.004.361-.263.727-.494 1.095-.696a7.045 7.045 0 0 0-1.934-.216c-2.423.091-4.639 1.353-7.021 1.69-2.565.365-4.88-.804-7.414-.938-2.456-.129-4.967.51-7.324 1.111-2.58.657-5.126 1.332-7.767 1.709-2.662.377-5.36.459-8.045.461-.586.002-.586.909 0 .907 2.629-.004 5.252-.104 7.861-.438 2.587-.33 5.097-.95 7.613-1.614 2.495-.658 5.063-1.299 7.66-1.228 2.471.067 4.707 1.3 7.214.977z"/></g><g><path fill="#FFF" d="M40.827 94.647a.55.55 0 0 0-.084-.187.834.834 0 0 0-.11-.125.173.173 0 0 0-.016-.037c-.06-.188-.222-.348-.426-.338h-.019a.652.652 0 0 0-.072-.295c-.008-.018-.017-.033-.025-.052V93.6a.285.285 0 0 0-.208-.27.25.25 0 0 0-.146.004l-.036-.031a2.505 2.505 0 0 0-.089-.18.51.51 0 0 0-.279-.234c-.075-.135-.169-.273-.2-.374a.578.578 0 0 0-.296-.345.56.56 0 0 0-.593-.178 4.317 4.317 0 0 1-.118-.181c-.126-.237-.247-.479-.375-.719a.48.48 0 0 0-.418-.261 2.676 2.676 0 0 0-.061-.608c-.065-.347-.239-.702-.555-.88-.29-.165-.583-.049-.751.188a.599.599 0 0 0-.428.119.103.103 0 0 0-.024.005c-.364.101-.507.446-.448.792.064.387.097.838.193 1.264a.539.539 0 0 0 .181.291.566.566 0 0 0-.183.283l-.01-.002-.016.125-.001.008-.002.025-.011.1-.027.246a.408.408 0 0 0-.208.16c-.243.35-.245.803-.135 1.198l.006.022c-.001.22.052.459.138.672a.301.301 0 0 0 .014.106.817.817 0 0 0 .061.149.449.449 0 0 0-.319.259.401.401 0 0 0-.048.2c-.221.21-.428.431-.531.729-.063.186.017.385.094.551.05.107.074.119.074.228 0 .044-.004.087-.006.13-.096.18.04.451.263.436.214-.017.426-.045.639-.065a.294.294 0 0 0 .188-.092c.263.022.528.092.766.108.255.02.557-.068.72-.272.007-.011.015-.019.022-.027a.615.615 0 0 0 .135-.508.426.426 0 0 0 .24-.237c.517-.142 1.051-.144 1.545-.384.008.05.021.097.041.14-.056.121-.024.282.143.313l.052.008a.35.35 0 0 0 .219.177c.301.074.603-.006.797-.256.105-.137.169-.293.229-.447a.68.68 0 0 0 .095-.131.533.533 0 0 0 .177-.168.243.243 0 0 0 .037-.094.755.755 0 0 0 .063-.033.245.245 0 0 0 .131-.195 3.18 3.18 0 0 1 .059-.055c.019-.019.042-.037.064-.055.021-.016.056-.025.018-.021.142-.01.233-.105.244-.246.014-.241-.126-.43-.374-.44zm-2.244-.203l.016-.026.015.039-.031-.013z"/><g fill="#171650"><path d="M38.866 96.548l-.021.006c-.166.053-.337.076-.509.101-.096.013-.19.026-.285.044a1.5 1.5 0 0 0-.344.116c-.132.06-.262.123-.394.185-.062.028-.126.054-.192.082a.627.627 0 0 1-.32.446 1.08 1.08 0 0 1-.408.135 1.77 1.77 0 0 1-.59-.026 1.502 1.502 0 0 0-.491-.02c-.139.019-.275.04-.416.061a1.567 1.567 0 0 1-.298.021.972.972 0 0 1-.071-.006.357.357 0 0 1-.304-.27.966.966 0 0 1-.029-.308c.001-.04.006-.079.003-.12a.564.564 0 0 0-.058-.191c-.037-.09-.077-.176-.111-.266a.46.46 0 0 1 .12-.526c.032-.03.066-.054.102-.08.019-.015.04-.028.061-.042.15-.104.18-.141.246-.313.035-.094.067-.188.119-.271.01-.018.002-.031-.003-.047a1.813 1.813 0 0 1-.055-.15 2.128 2.128 0 0 1-.081-.719c.011-.305.067-.604.147-.898.089-.332.208-.654.347-.969a1.976 1.976 0 0 0 .147-1.107c-.024-.188-.085-.361-.147-.537a5.302 5.302 0 0 1-.201-.692 1.886 1.886 0 0 1-.038-.519c.027-.381.206-.672.526-.873.188-.119.395-.194.609-.246a1.43 1.43 0 0 1 .363-.036c.305.009.558.13.766.35.124.131.219.281.3.438.106.211.184.431.25.654.043.145.084.287.119.435.068.294.22.536.439.741.109.103.227.193.349.283.15.109.303.215.452.327.262.199.503.421.713.675.149.183.277.375.374.59.12.266.182.543.172.836v.029l.001.01.028.006a.455.455 0 0 1 .29.171c.055.067.095.146.138.223.036.063.074.125.112.187.027.045.068.08.114.11.089.058.175.119.25.195a.47.47 0 0 1 .114.174.307.307 0 0 1-.015.248.616.616 0 0 1-.135.183 11.89 11.89 0 0 1-.23.215c-.099.089-.198.178-.286.277-.077.09-.14.188-.189.297a1.467 1.467 0 0 1-.399.524.978.978 0 0 1-.33.181.709.709 0 0 1-.821-.324zm-3.419-1.709l-.03-.022a.896.896 0 0 1-.161-.176 1.153 1.153 0 0 1-.193-.572c-.018-.198 0-.393.04-.588.021-.106.044-.215.064-.321.007-.033.009-.068.012-.102 0-.007-.004-.016-.006-.021-.002 0-.006 0-.008-.002l-.015.036c-.021.086-.046.171-.068.257-.054.209-.093.42-.105.635-.011.205.001.408.071.605a.871.871 0 0 0 .367.467c.099.063.207.105.317.139.213.063.421.143.614.256.105.063.204.133.287.226.044.05.081.104.104.167a.218.218 0 0 1-.065.251c-.026.021-.059.038-.089.056a.385.385 0 0 1-.068.027 10.09 10.09 0 0 1 .301.236c.024.02.048.033.078.042a1.54 1.54 0 0 0 1.136-.087c.281-.133.516-.327.714-.564a.071.071 0 0 0 .02-.05c-.001-.063.001-.126.001-.188 0-.129-.008-.256-.039-.383a4.02 4.02 0 0 1-.086-.468 1.326 1.326 0 0 1-.002-.339.546.546 0 0 1 .207-.369c.016-.012.017-.023.016-.042-.002-.045-.006-.092 0-.137a.234.234 0 0 1 .137-.188.43.43 0 0 1 .146-.046c.214-.024.42.013.62.084.047.017.089.04.126.073.042.04.069.087.073.146 0 .012.002.023.004.035.023-.006.046-.012.066-.019a.284.284 0 0 0-.092-.237.516.516 0 0 0-.167-.104 1.902 1.902 0 0 0-.387-.102l-.037-.007-.002-.021a1.259 1.259 0 0 0-.161-.557 2.134 2.134 0 0 0-.854-.844c-.01-.005-.019-.012-.027-.013-.008-.003-.021-.001-.025.005s-.002.021.004.025a.384.384 0 0 0 .058.047c.039.023.08.045.118.07.18.121.331.272.456.45.132.187.224.39.249.617a.87.87 0 0 1 0 .204c-.064.009-.127.019-.192.027l-.042-.082a3.868 3.868 0 0 0-.615-.851 8.76 8.76 0 0 1-1.113-1.476l-.018-.021a.74.74 0 0 1-.282.337.75.75 0 0 0-.14.124c-.046.05-.092.103-.142.149a.693.693 0 0 1-.278.169.569.569 0 0 1-.427-.021c-.034-.016-.068-.031-.102-.049-.083-.047-.174-.068-.263-.098-.003-.002-.006 0-.012.001l.003.024c.011.08.024.16.033.24.019.208.011.417-.007.624-.023.298-.069.591-.118.884-.027.16-.058.32-.068.483-.018.231-.013.463.022.69.011.093.027.173.042.259zm1.085 2.671a.739.739 0 0 0 .282-.136.457.457 0 0 0 .19-.31.52.52 0 0 0-.111-.422 1.486 1.486 0 0 0-.253-.242 22.662 22.662 0 0 0-.376-.278 1.932 1.932 0 0 1-.255-.213c-.162-.166-.324-.332-.485-.5a.769.769 0 0 0-.247-.174.56.56 0 0 0-.139-.043c-.16-.021-.289.029-.366.178-.021.043-.042.084-.059.129a5.647 5.647 0 0 0-.077.195.542.542 0 0 1-.202.249c-.019.015-.039.026-.058.041-.05.036-.104.071-.149.112a.317.317 0 0 0-.105.318.836.836 0 0 0 .048.149c.033.083.073.166.107.25.032.079.05.162.041.249a1.275 1.275 0 0 0-.004.107c0 .07.005.143.024.211.031.111.104.177.22.189a.465.465 0 0 0 .075.004c.104.002.208-.018.312-.033.12-.018.239-.037.359-.051.177-.021.354-.017.528.023.043.01.085.018.129.021.192.031.383.028.571-.023zm2.356-3.41c-.007.008-.013.012-.017.016a.442.442 0 0 0-.122.258.996.996 0 0 0-.003.25c.017.177.055.351.093.523.021.1.038.197.038.299.001.146-.001.292-.001.439 0 .146.006.293.036.438a.54.54 0 0 0 .211.334.563.563 0 0 0 .498.103.853.853 0 0 0 .34-.183c.152-.131.266-.291.349-.473.054-.119.125-.229.211-.326.104-.119.222-.223.338-.326.067-.061.134-.121.196-.186a.55.55 0 0 0 .087-.116.184.184 0 0 0-.004-.208.5.5 0 0 0-.098-.117 2.051 2.051 0 0 0-.197-.154.577.577 0 0 1-.171-.17c-.037-.061-.071-.123-.106-.186-.04-.072-.078-.145-.133-.207a.32.32 0 0 0-.295-.111c-.061.006-.119.027-.179.041a.074.074 0 0 0-.051.043.985.985 0 0 1-.374.373.365.365 0 0 1-.444-.049.634.634 0 0 1-.14-.178c-.021-.039-.04-.081-.062-.127zm-2.604-2.343a.547.547 0 0 0 .251-.129c.058-.055.11-.11.165-.17a.94.94 0 0 1 .163-.146.718.718 0 0 0 .216-.226.49.49 0 0 0 .056-.143c.022-.119-.028-.215-.144-.259a.504.504 0 0 0-.116-.028 3.508 3.508 0 0 0-.23-.021 1.36 1.36 0 0 1-.225-.039 1.31 1.31 0 0 0-.204-.039.589.589 0 0 0-.603.297 1.885 1.885 0 0 1-.166.232c-.024.031-.049.063-.072.096-.012.016-.021.027-.03.044a.176.176 0 0 0-.003.172.28.28 0 0 0 .092.104c.065.049.139.08.217.101.065.019.128.042.188.073.03.016.062.031.093.046.116.061.236.07.352.035zm.638-1.163c.008-.025.02-.052.024-.077a.7.7 0 0 0-.196-.684.419.419 0 0 0-.203-.113.354.354 0 0 0-.373.111.509.509 0 0 0-.121.289.678.678 0 0 0 .055.362l.236.013.001-.004-.009-.027a.45.45 0 0 1-.022-.246.245.245 0 0 1 .047-.108c.047-.06.113-.073.181-.043a.285.285 0 0 1 .091.077.454.454 0 0 1 .092.232c.006.063.003.123-.035.177-.003.004-.004.011-.007.018.081.009.157.014.239.023zm-1.131-.018a.713.713 0 0 0-.2-.382.392.392 0 0 0-.149-.09.221.221 0 0 0-.257.084.392.392 0 0 0-.069.19.705.705 0 0 0 .049.338.664.664 0 0 0 .171.253c.023.021.051.038.079.059.031-.042.06-.077.09-.118a.263.263 0 0 1-.106-.088.47.47 0 0 1-.082-.205.228.228 0 0 1 .02-.15c.024-.049.072-.065.123-.045a.207.207 0 0 1 .081.06.429.429 0 0 1 .094.188l.009.028a4.53 4.53 0 0 1 .147-.122z"/><path d="M36.167 91.518a.706.706 0 0 1-.342.002 1.143 1.143 0 0 1-.299-.118l-.057-.029a.094.094 0 0 1-.047-.061c-.002-.007 0-.021.004-.023.007-.004.02-.006.027-.002a.071.071 0 0 1 .032.022.22.22 0 0 0 .077.054c.069.03.138.065.208.092.211.073.41.049.595-.08.13-.092.249-.196.347-.32.024-.032.049-.066.076-.098a.37.37 0 0 0 .061-.104.066.066 0 0 1 .02-.03c.01-.011.025-.015.036-.005.008.006.011.021.007.03-.011.025-.02.052-.035.072-.048.065-.094.135-.147.193a1.942 1.942 0 0 1-.336.297.71.71 0 0 1-.227.108zm-.062-.802c.008-.012.013-.021.019-.025.028-.021.107-.025.139-.005.017.012.021.026.005.039-.014.014-.032.022-.051.017a.183.183 0 0 0-.083-.015c-.008 0-.015-.006-.029-.011zm-.248.043c.007 0 .022-.002.036.001.017.004.019.016.007.026a.035.035 0 0 1-.011.01.145.145 0 0 0-.056.048c-.012.017-.028.02-.046.02-.028-.003-.038-.021-.021-.043a.17.17 0 0 1 .091-.062z"/></g></g><g><path opacity=".13" d="M9.826 38.141v53.121l46.071 26.559 46.074-26.559V38.141L55.898 11.58 9.826 38.141zm90.281 1.08v50.971l-44.209 25.489-44.211-25.489V39.221l44.211-25.489 44.209 25.489z"/></g></svg>