<svg xmlns="http://www.w3.org/2000/svg" width="110.852" height="128.833" viewBox="8.572 -9.333 110.852 128.833"><path fill="#2AA05C" d="M119.424 87.5l-55.426 32-55.426-32v-64l55.426-32 55.426 32z"/><path fill="#3CCE7E" d="M110.5 28.91v53.13l-10.43 6.02-.24.12-.13.06-.11.06-1.09.62-1.52.88-.38.22-.1.061-1 .58-.81.46-3.19 1.85-.64.37-.91.53-.45.26-2 1.16-.86.5-.14.08-.76.439-3.24 1.87-3 1.74-.36.21-1.64.95-5 2.89-4 2.311-.45.26-.55.32-3 1.739-.02-.01-.82-.47-2.34-1.36-.74-.43-2.71-1.57-.14-.08-2.25-1.3-.01-.01-.46-.26-.14-.061-.16-.069-3.21-1.82v-.01l-4.13-2.431-.93-.54-1.71-1-.25-.149-1.04-.58-7.65-4.42-4.53-2.62h-.01L18.5 82.04V28.91l46-26.55 5.36 3.09 3.52 2.03.49.28 1.21.7v.01l2.36 1.36 33.06 19.08z"/><path fill="#2AA05C" d="M108.799 39.631l-2.298 2.298-29.132-29.131c-4.563-4.563-11.635 2.507-7.07 7.071l6.881 6.881-46.289 46.288c-4.557-3.652-11 3.09-6.593 7.497l28.667 28.667c4.564 4.563 11.635-2.507 7.071-7.07-7.35-7.35-14.699-14.698-22.048-22.049C53.409 64.663 68.83 49.242 84.25 33.82L99.43 49 74.965 73.465c-1.513 1.514-1.742 3.299-1.214 4.848-1.367 1.78-1.672 4.338.381 6.391l14.667 14.667c4.563 4.563 11.635-2.507 7.07-7.07L83.07 79.502l26.305-26.303a5.744 5.744 0 0 0 1.322-1.323c1.724-1.724 3.447-3.448 5.172-5.171 4.565-4.566-2.508-11.637-7.07-7.074z"/><path fill="#EFAD81" d="M75.14 22.12c-.02.48-.14 1.12-.14 1.88v.57c-.01 1.34-.05 2.95-.21 4.57-.28 3.03-.95 6.09-2.51 7.55-.33.55-.851.98-1.58 1.06-1.5.17-2.78-.1-3.82-.7-.78-.43-1.43-1.04-1.95-1.76-.02-.02-.01-.05-.029-.07-.341-.01-.68-.08-.98-.23-.02 0-.03.01-.05.01-1.55.08-2.88-.21-4.19-.72-.35-.13-.71-.28-1.07-.45-.43.11-.87.07-1.27-.06.01.08.03.15.03.23.03.65 0 1.29-.06 1.93.58.29.98.86.92 1.69-.14 2.18-2.65 7.17-1.73 9.21.02 0 .01-.01.03-.01.21-.03.41-.04.61-.03h.01c1.02.08 1.85.8 1.85 1.96v.87c0 1.38-1.21 2.17-2.47 1.93a9.02 9.02 0 0 1-1.09-.29c-1.38.46-2.7 1.03-4.12 1.35-.59.14-1.19.23-1.82.26-.89.05-1.57-.56-1.85-1.32-.33.03-.66.07-.99.13a2.23 2.23 0 0 1-1.67-.37c-.08.21-.15.41-.22.62.35 1.39.51 2.81.55 4.22.13.09.25.189.34.31.15.18.28.37.41.55.26.021.5.061.75.101 1.25.22 2.36.699 3.39 1.489 2.09.841 4.16 1.73 6.41 1.9.28.02.54.08.77.18.72.301 1.15.95 1.23 1.82.04.44.05.84.02 1.21-.05.64-.2 1.21-.45 1.78-.19.41-.42.83-.71 1.27-.54.811-1.36 1.061-2.09.9a.814.814 0 0 1-.16-.04c-.26.29-.52.59-.76.89 0 .021-.01.04-.01.061-.14.89-.37 1.75-.71 2.569.01 0 .01 0 .02.011.92.3 1.71 1.18 1.53 2.38-.09.63-.16 1.26-.24 1.899-.01.36 0 .73.04 1.09.25.37.39.83.34 1.36.39.22.71.61.86 1.21.13.51.2.99.21 1.45.07 3.25-2.66 5.479-6.04 6.72-1.36.5-2.84.851-4.27 1.03l-.22.03c-.22.1-.46.16-.73.18-.84.06-1.63-.13-2.41-.23-.34-.029-.67-.21-.99-.26C41.8 88 41.76 88 41.71 88h-.2c-.32 0-.63-.01-.92-.1-.2-.04-.37-.051-.53-.141-.17-.01-.35.021-.53.01l-.17.171c-.04.029-.09.069-.13.1-.29.19-.62.32-.98.33-1.75.05-3.37-.38-4.89-1.12-1.26-.33-2.49-.88-3.65-1.84-.36-.29-.55-.63-.62-.98-.39-.33-.79-.66-1.18-1a.369.369 0 0 1-.09-.05c-.1-.04-.22-.08-.3-.13-.18-.11-.3-.22-.43-.32-.15-.13-.32-.26-.62-.39-.01 0-.02 0-.03-.01 0 0-.01 0-.01-.011-.07-.029-.16-.069-.25-.1l-.18-.06v-.009l-.27-.54-.18-.359-.22-.451-1.14-2-.49-.86-.08-.14-.79-.51-2.56-1.65-1.77-1.14-.09-.061v-5.62l.01-.019-.01-.02V28.91L64.48 2.35l.02.01 5.36 3.09 3.52 2.03.49.28 1.21.7v.01c.1.96.18 1.85.22 2.27.01.11.021.19.021.23.029.19.05.38.06.57.271 2.85-.439 5.18-1.38 7.98v.01c0 .05.19.09.19.14-.051.14-.051.29-.051.44 0 .11-.01.22-.04.33.04.02.091.05.141.08.04.03.09.06.13.09.479.35.809.88.769 1.51z"/><path fill="#D18B5D" d="M57.336 46.653c-.533-.642-1.038-1.331-1.355-2.049.446-.334.729-.854.769-1.479.078-1.227.257-2.375.46-3.582 1.171-.202 1.778-1.175 1.81-2.132 1.778-1.129.72-4.337-1.552-3.59-2.003.66-3.916.852-5.77-.318-.995-.627-1.367-2.403-1.77-3.41-.429-1.073-1.458-1.441-2.367-1.306.632-1.668-1.706-3.575-3.351-2.077-2.682 2.443-2.368 7.314.059 9.871 2.031 2.139 4.557 3.019 7.238 3.259-.423 1.71-.777 3.409-.394 5.272.53 2.579 1.852 4.62 3.596 6.551.817.905 2.101.682 2.839-.08.713-.183 1.371-.748 1.629-1.428.157-.314.24-.648.25-1 .209-1.448-.976-2.419-2.091-2.502zM76.28 25.75c.09 5.5-4.65 18.21-11.74 12.66-.94-.73-.69-2.62.39-3.12.011-.01.04-.02.051-.02.1-.04.199-.09.289-.14 6.54-3.27 5.23-18.91 4.711-27.46-.051-.81-.091-1.55-.12-2.22l3.52 2.03.49.28c.01.65.02 1.38.03 2.17.05 3.19.1 7.22.1 9.59v.01c0 .19.07.39.14.58.051.14.091.27.101.41.01.03.01.06.01.09.03 1.07.04 2.15 0 3.22.248.02.748.07.748.17v.01c1 .25 1.26.84 1.28 1.74zm-57.87 51.3l.09.07 1.77 1.28 4.67 3.369 1.01.48.11.05.1.05c.09.061.17.12.27.17 0 .011.01.011.01.011.01.01.02.01.03.01.2.14.41.27.62.39.08.051.16.101.24.141.09.06.18.12.27.16.26.13.49.279.7.43.7.52 1.21 1.14 2.14 1.49C30.6 86 31.9 86.34 33 86.43c2.25.19 4.17 1.04 6.23 1.48l.13.03c.7.13 1.4.069 2.15.06h.2c.05 0 .09 0 .14.01.35 0 .71.05 1.07-.029.64-.12 1.26-.141 1.87-.33.26.01.52.029.79.029h.01c1.65.051 3.33-.04 4.88-.42 2.57-.6 4.79-1.97 5.93-4.75.26-.63.26-1.3.11-1.97-.23-1-.81-1.99-1.41-2.84 0-.01 0-.01-.01-.021-.3-.439-.61-.84-.88-1.189-.7-.9-1.01-1.76-1.05-2.59-.05-.94.22-1.851.61-2.75.35-.82.8-1.641 1.19-2.48.16-.33.3-.67.43-1.01.21-.53.37-1.07.44-1.63.31-.03.62-.05.92-.03.64.04 1.11-.17 1.44-.51.42-.45.57-1.13.45-1.78-.16-.85-.79-1.63-1.89-1.71-.22-.02-.44-.02-.66-.02-5.22.02-9.64 4.63-9.79 9.789-.01.2-.01.41 0 .62.14 3.82 5.1 7.17.02 10.311-.77.479-1.51.79-2.24 1.01-.92-.06-1.85-.18-2.79-.33-4.69-.79-9.49-2.66-13.48-4.59-1.77-.86-3.37-1.79-4.78-2.95-.88-.729-1.69-1.55-2.41-2.51 0-.01-.14-.17-.35-.43-.45-.54-1.25-1.48-1.77-2.051-.03-.04-.06-.069-.09-.1v6.301z"/><path fill="#00033A" d="M18.41 77.05v4.98l12.76 7.35c.03.021.05.03.08.03h.01c.84.27 1.71.49 2.58.67 1.03.22 2.07.39 3.12.51h.02c3.85.46 7.75.3 11.04-.24.07-.01.13-.02.2-.04 3.97-.68 7.43-2.189 9.91-5.439 1.16-1.53 1.8-3.95 1.53-5.83-.46-3.15-3.42-5.38-3.41-8.54 0-.98-.57-1.59-1.29-1.83-.16-.05-.33-.09-.5-.1-1.07-.09-2.2.56-2.21 1.93 0 1.21.39 2.32.91 3.4.62 1.29 1.41 2.52 1.93 3.779.01.01.01.01.01.02.46 1.109.69 2.25.4 3.47-.91 3.76-5.71 4.96-8.98 5.37-.6.07-1.24.13-1.89.18-5.21.34-11.71-.41-16.33-3.06-.13-.07-.26-.141-.39-.23a.369.369 0 0 1-.09-.05c-.07-.04-.15-.09-.22-.149-.09-.04-.18-.101-.27-.16-.57-.391-1.11-.811-1.6-1.261-.01-.01-.2-.14-.52-.359-1-.67-3.23-2.181-4.94-3.34-.73-.5-1.37-.931-1.77-1.2-.04-.021-.06-.04-.09-.061v.2z"/><path fill="#00033A" d="M55.852 70.51c.722-1.51 2.45-2.438 3.805-2.83 2.473-.718 1.42-4.578-1.063-3.857-2.432.705-5.072 2.32-6.195 4.669-.471.983-.28 2.151.718 2.735.88.516 2.264.265 2.735-.717z"/><path fill="#00033A" d="M60.657 63.195l-.093-.031.883.516c-.328-.306-.621-.461-1.04-.607-1.03-.36-2.186.4-2.46 1.396-.304 1.104.369 2.1 1.397 2.461l.093.031-.883-.516c.328.306.621.461 1.04.607 1.03.36 2.186-.4 2.46-1.396.303-1.104-.369-2.099-1.397-2.461z"/><path fill="#00033A" d="M61.727 63.99c-1.375-2.961-3.98-6.067-7.195-7.045-2.475-.752-3.524 3.109-1.063 3.857 2.201.668 3.889 3.232 4.805 5.206.459.988 1.863 1.229 2.736.718 1.005-.587 1.176-1.747.717-2.736z"/><path fill="#00033A" d="M43.75 51.375c.34 5.377 5.124 7.938 9.718 9.43 2.46.797 3.506-3.064 1.063-3.857-2.656-.861-6.574-2.284-6.782-5.571-.161-2.563-4.162-2.579-3.999-.002z"/><path fill="#00033A" d="M46.343 53.804c4.304.763 10.89 1.079 14.666-1.577 2.092-1.471.097-4.941-2.019-3.454-2.871 2.019-8.295 1.757-11.584 1.173-2.521-.447-3.599 3.408-1.063 3.858z"/><path fill="#00033A" d="M62.102 48.616c-.919-1.956-2.115-3.652-3.843-4.968-.87-.662-2.236-.137-2.736.718-.602 1.027-.148 2.077.718 2.736 1.125.856 1.822 2.287 2.407 3.532.464.987 1.86 1.231 2.736.718 1.003-.587 1.181-1.75.718-2.736z"/><path fill="#00033A" d="M60 45.75c-.043-1.802.146-3.607.426-5.385.135-.858.608-4.142 1.083-4.388 2.292-1.185.269-4.636-2.019-3.454-1.752.905-2.234 3.435-2.62 5.168-.582 2.606-.935 5.386-.871 8.059.063 2.575 4.063 2.581 4.001 0z"/><path fill="#00033A" d="M48.343 23.196c-4.748 1.474-3.934 5.896-1.419 9.111 1.344 1.719 3.279 2.873 5.423 3.18 3.078.442 6.73-1.312 9.394.739 2.043 1.574 4.032-1.904 2.019-3.454-2.774-2.137-6.059-1.43-9.299-1.196-1.875.135-3.024-.357-4.31-1.647-.688-.69-2.183-2.429-.744-2.876 2.455-.761 1.406-4.623-1.064-3.857z"/><path fill="#00033A" d="M76.75 36.73c-1.54 3.22-4.09 4.58-7.57 4.88-3.84.33-5.78-3.79-8.56-5.51-.74-.46-1-1.15-.94-1.82.12-1.32 1.49-2.53 2.95-1.63.82.5 1.72 1.51 2.64 2.48 1.101 1.15 2.23 2.25 3.33 2.4 4.92.68 5.381-4.76 5.341-8.19-.061-5.13-.11-13.28-.431-19.63-.04-.77-.08-1.52-.13-2.23l.49.28 1.21.7 2.36 1.36h.01s-.01 0-.01.01a69 69 0 0 1 .119 2.21c.2 4.72.2 10.09.32 14.21.091 3.4.381 7.31-1.129 10.48zm-3.469 17.324c5.947-2.37 12.351-3.485 18.625-4.625 2.535-.461 1.457-4.315-1.063-3.857-6.274 1.14-12.678 2.255-18.625 4.625-2.364.942-1.335 4.812 1.063 3.857zm.844 11.821C82.085 65.6 90.033 65.046 98 65c2.579-.016 2.58-4.016 0-4-7.967.046-15.915.6-23.875.875-2.572.089-2.581 4.09 0 4zm-6.76 9.102c3.332 1.639 6.465 3.648 9.75 5.375 2.281 1.199 4.304-2.252 2.02-3.453-3.285-1.727-6.418-3.736-9.75-5.375-2.307-1.133-4.334 2.315-2.02 3.453z"/><path d="M77.45 9.82h-.01l-2.36-1.36-1.21-.7-.49-.28-3.52-2.03-5.36-3.09-.02-.01-46.07 26.56v53.12l12.76 7.35 4.67 2.7 7.6 4.37 3 1.729.93.54 7.5 4.33 6.45 3.72 2.34 1.351.82.47 3.02-1.729.55-.32.45-.26 4-2.311 5-2.89 1.64-.95.36-.21 6.26-3.59 8.971-5.17 15.829-9.13V28.91L77.45 9.82zm-12.97 96.63l-3.04-1.75-24.46-14.11h-.02l-6.18-3.57-10.51-6.06V29.99L64.48 4.5l5.5 3.17 3.529 2.04.391.22 1.399.81 2.26 1.3 31.131 17.95v50.97L93.37 89.8l-8.97 5.17-19.92 11.48z" opacity=".13"/></svg>