<?xml version="1.0" encoding="utf-8"?>
<!-- Generator: Adobe Illustrator 21.0.2, SVG Export Plug-In . SVG Version: 6.00 Build 0)  -->
<svg version="1.1" xmlns="http://www.w3.org/2000/svg" xmlns:xlink="http://www.w3.org/1999/xlink" x="0px" y="0px"
	 viewBox="0 0 110.979 128.417" enable-background="new 0 0 110.979 128.417" xml:space="preserve">
<g id="Layer_1">
</g>
<g id="Layer_4">
</g>
<g id="border">
	<g id="Layer_63_2_">
		<g>
			<g>
				<polygon fill="#DB91ED" points="110.978,96.126 55.552,128.126 0.128,96.126 0.128,32.126 55.552,0.126 110.978,32.126 				"/>
			</g>
		</g>
	</g>
	<path fill="#FEFDC7" d="M102.044,37.852v53.14l-0.01,0.01l-0.021,0.01l-0.41,0.24l-0.989,0.56l-4.15,2.39l-0.01,0.01l-0.13,0.08
		l-0.061,0.03l-0.55,0.32l-0.8,0.45l-0.101,0.06l-0.479,0.28l-1.13,0.65l-0.851,0.49l-0.739,0.43l-0.24,0.13l-0.13,0.05l-0.11,0.07
		l-1.03,0.59l-2,1.15l-0.819,0.47l-1.05,0.6l-0.04,0.03l-1.23,0.71l-0.45,0.26l-0.01,0.01l-0.01,0.01h-0.01l-0.421,0.24l-1.119,0.65
		l-0.87,0.52l-1.181,0.67l-0.08,0.05l-0.119,0.07l-0.04,0.03l-0.04,0.02l-0.021,0.01l-0.1,0.06l-0.29,0.17l-0.03,0.01l-0.16,0.09
		v0.01l-0.399,0.23l-0.38,0.22l-0.181,0.09l-0.02,0.02l-0.04,0.02l-0.69,0.39l-0.3,0.18l-0.02,0.01l-0.29,0.17l-0.15,0.08
		l-0.22,0.13l-0.24,0.14h-0.01l-0.71,0.42l-0.03,0.02l-0.3,0.17l-1.36,0.79l-0.5,0.29l-0.95,0.54l-0.029,0.02h-0.011l-0.359,0.21
		l-0.24,0.15l-0.84,0.48l-0.63,0.36l-0.061,0.03l-0.5,0.29c-0.01,0.01-0.01,0.01-0.01,0l-0.53,0.31l-0.29,0.17l-0.76,0.44
		l-0.05,0.03l-0.05,0.03l-0.03,0.01c0,0.01-0.01,0.01-0.01,0.01l-0.021,0.02l-0.25,0.14l-1,0.58l-0.17,0.1l-0.04,0.02l-0.38,0.22
		l-1.42,0.82l-0.36,0.21l-0.09,0.05l-0.24,0.14l-0.8,0.46l-0.26,0.15l-0.28,0.16l-0.01,0.01l-0.2,0.12l-0.229,0.13l-0.351,0.2
		l-0.83,0.48l-0.01,0.01l-0.09,0.05l-1.32,0.76l-0.02,0.01l-0.79,0.46l-0.61,0.35h-0.01l-1.41,0.81l-0.02,0.02l-0.25,0.14
		l-0.561,0.32h-0.01l-0.13,0.08l-0.19,0.11l-0.27,0.16h-0.01l-0.2,0.12l-0.061-0.03l-1.14-0.66l-0.02-0.01l-0.2-0.12l-0.851-0.49
		l-0.029-0.01l-0.33-0.19l-0.011-0.01l-1.399-0.81l-0.01-0.01l-0.021-0.01l-1.37-0.79l-0.029-0.02h-0.011l-0.83-0.48l-0.06-0.04
		l-0.34-0.19l-0.181-0.11l-0.02-0.01l-0.66-0.38l-0.04-0.03l-0.09-0.05l-0.1-0.06l-0.131-0.07l-0.269-0.16l-0.12-0.07h-0.01
		l-0.72-0.42l-0.24-0.13l-0.391-0.23l-0.05-0.03l-0.029-0.02l-1.4-0.81h-0.01l-0.481-0.29h-0.01l-0.271-0.16l-0.619-0.36l-0.03-0.01
		l-0.061-0.04l-0.04-0.02l-1.289-0.75l-1.07-0.62l-0.69-0.39l-1.649-0.96l-0.13-0.07l-2.891-1.68l-0.37-0.21l-0.05-0.03l-0.39-0.22
		l-0.49-0.28l-0.33-0.2l-1.2-0.69l-0.649-0.37l-0.57-0.33l-0.47-0.27l-0.441-0.26l-0.3-0.17l-0.5-0.29l-0.17-0.1
		c-0.01,0-0.021-0.01-0.03-0.02l-2.309-1.34l-0.21-0.12l-0.051-0.03l-1.159-0.67l-0.67-0.38l-0.82-0.47l-0.09-0.05l-0.5-0.29
		l-0.011-0.01l-0.21-0.12h-0.01l-1.04-0.6c-0.01-0.01-0.01-0.01-0.02-0.01l-1.86-1.08l-1.019-0.59l-2.11-1.23l-0.09-0.05l-0.2-0.12
		c0,0-0.01,0-0.02-0.01l-0.28-0.16l-0.53-0.3l-0.82-0.48l-0.06-0.04h-0.01c0,0,0,0-0.01,0l-0.49-0.29l-0.7-0.4l-0.68-0.39
		l-1.221-0.71l-0.1-0.06h-0.01l-0.33-0.19l-0.41-0.24h-0.01l-0.431-0.25l-0.989-0.57l-0.08-0.04l-0.03-0.02v-53.14l0.78-0.45
		l5.33-3.08l1.059-0.61l5.78-3.34h0.01l1.37-0.79l0.439-0.26l1.971-1.14h0.01l0.87-0.51l3.63-2.08l0.64-0.38l0.94-0.54l0.17-0.09
		l1.66-0.95l0.78-0.45l0.38-0.22l0.44-0.26l0.67-0.39l0.431-0.26l0.52-0.3l2.28-1.3l0.689-0.41l0.75-0.43l0.65-0.37h0.01l0.05-0.03
		l0.431-0.25l5.29-3.05l0.109-0.06l0.08-0.05l0.271-0.16l5.52-3.19l0.55-0.32l1.44-0.83l1.06,0.62l3.4,1.96l3.09,1.79l2.601,1.5
		l0.22,0.13l4.689,2.7l0.98,0.57l5.13,2.96l0.91,0.52l1.04,0.61l2.3,1.31l0.87,0.5l0.69,0.4l0.829,0.48l1.37,0.79l0.801,0.46
		l0.09,0.06l1.81,1.04l3.28,1.89l0.5,0.29l0.04,0.03v0.01l0.26,0.14l0.66,0.39l1.46,0.84l1.939,1.12l0.78,0.44l0.44,0.25l0.49,0.28
		l1.449,0.84L102.044,37.852z"/>
	<polygon fill="#FFE6C2" points="102.044,88.551 102.044,90.992 102.034,91.002 102.014,91.012 101.604,91.252 100.614,91.812 
		96.464,94.202 96.454,94.212 96.324,94.292 96.264,94.321 95.714,94.642 94.914,95.091 94.814,95.152 94.334,95.432 93.204,96.082 
		92.354,96.571 91.614,97.002 91.374,97.131 91.244,97.182 91.134,97.252 90.104,97.841 88.104,98.992 87.284,99.462 
		86.234,100.062 86.194,100.091 84.964,100.801 84.514,101.062 84.504,101.071 84.494,101.082 84.484,101.082 84.064,101.321 
		82.944,101.972 82.074,102.492 80.894,103.162 80.814,103.212 80.694,103.282 80.654,103.312 80.614,103.332 80.594,103.341 
		80.494,103.402 80.204,103.571 80.174,103.582 80.014,103.672 80.014,103.682 79.614,103.912 10.044,70.472 10.044,67.152 	"/>
	<polygon fill="#FFE6C2" points="102.044,79.772 17.214,33.712 16.154,34.321 10.824,37.402 10.044,37.852 10.044,54.402 
		102.044,82.631 	"/>
	<polygon fill="#FFE6C2" points="102.044,45.682 102.044,66.442 24.814,29.321 26.784,28.182 26.794,28.182 	"/>
	<polygon fill="#FFE6C2" points="102.044,37.852 102.044,38.142 41.644,19.611 42.294,19.242 42.304,19.242 42.354,19.212 
		42.784,18.962 48.074,15.912 48.184,15.852 48.264,15.801 48.534,15.642 54.054,12.452 54.604,12.131 56.044,11.301 57.104,11.922 
		60.504,13.881 63.594,15.672 66.194,17.172 66.414,17.301 71.104,20.002 72.084,20.571 77.214,23.532 78.124,24.051 79.164,24.662 
		81.464,25.972 82.334,26.472 83.025,26.872 83.854,27.352 85.224,28.142 86.025,28.602 86.114,28.662 87.924,29.702 91.204,31.591 
		91.704,31.881 91.744,31.912 91.744,31.922 92.004,32.062 92.664,32.452 94.124,33.292 96.064,34.412 96.844,34.852 97.284,35.102 
		97.775,35.381 99.224,36.222 	"/>
	<path fill="#FFE6C2" d="M67.384,110.972l-0.04,0.02l-0.38,0.22l-1.42,0.82l-0.36,0.21l-0.09,0.05l-0.24,0.14l-0.8,0.46l-0.26,0.15
		l-0.28,0.16l-0.01,0.01l-0.2,0.12l-0.229,0.13l-0.351,0.2l-0.83,0.48l-0.01,0.01l-0.09,0.05l-1.32,0.76l-0.02,0.01l-0.79,0.46
		l-15.601-4.79l-0.619-0.36l-0.03-0.01l-0.061-0.04l-0.04-0.02l-1.289-0.75l-1.07-0.62l-0.69-0.39l-1.649-0.96l-0.13-0.07
		l-2.891-1.68l-0.37-0.21l-0.05-0.03l-0.39-0.22l-0.49-0.28l-0.33-0.2l-1.2-0.69l-0.649-0.37l-0.57-0.33l-0.47-0.27l-0.441-0.26
		l-0.3-0.17l-0.5-0.29l-0.17-0.1c-0.01,0-0.021-0.01-0.03-0.02l-2.309-1.34l-0.21-0.12l-0.051-0.03l-1.159-0.67l-0.67-0.38
		l-0.82-0.47l-0.09-0.05l-0.5-0.29l-0.011-0.01l-0.21-0.12h-0.01l-1.04-0.6c-0.01-0.01-0.01-0.01-0.02-0.01l-1.86-1.08l-1.019-0.59
		l-2.11-1.23l-0.09-0.05l-0.2-0.12c0,0-0.01,0-0.02-0.01l-0.28-0.16l-0.53-0.3l-0.82-0.48l-0.06-0.04h-0.01c0,0,0,0-0.01,0
		l-0.49-0.29l-0.7-0.4l-0.68-0.39l-1.221-0.71l-0.1-0.06h-0.01l-0.33-0.19l-0.41-0.24h-0.01l-0.431-0.25l-0.989-0.57l-0.08-0.04
		l-0.03-0.02v-11.15L67.384,110.972z"/>
	<circle fill-rule="evenodd" clip-rule="evenodd" fill="#FF9F8F" cx="56.086" cy="65.375" r="34.542"/>
	
		<ellipse fill-rule="evenodd" clip-rule="evenodd" fill="none" stroke="#FFC0BB" stroke-width="2" stroke-miterlimit="10" cx="55.961" cy="65.5" rx="34.292" ry="34.042"/>
	<path fill-rule="evenodd" clip-rule="evenodd" fill="#FFD05C" d="M63.76,61.746c-0.007-0.713-0.03-1.424-0.037-2.121
		c-0.004-0.371-0.222-0.601-0.491-0.691c-0.134-1.515-0.541-4.498-2.08-4.669c-0.938-2.711-1.784-5.482-3.646-7.697
		c-0.113-0.298-0.221-0.598-0.323-0.9c-0.001-0.059-0.004-0.119-0.028-0.187c-0.065-0.16-0.121-0.322-0.175-0.485
		c-0.033-0.111-0.064-0.222-0.094-0.334c0.035-0.198,0.074-0.394,0.105-0.593c0.121-0.782-0.863-1.292-1.321-0.557
		c-0.518,0.832-0.937,1.712-1.344,2.598c-0.268,0.023-0.529,0.174-0.649,0.49c-0.289,0.757-0.601,1.503-0.91,2.251
		c-0.279,0.006-0.556,0.156-0.67,0.5c-0.261,0.788-0.495,1.582-0.722,2.377c-0.202,0.62-0.411,1.237-0.629,1.852
		c-1.774,2.334-2.933,5.358-3.06,8.278c-0.037,0.087-0.066,0.178-0.078,0.269c-0.193,1.437,0.347,2.696,0.953,3.973
		c0.646,1.356,1.177,2.96,2.074,4.162c0.366,0.489,1.059,0.411,1.31-0.016c0.062,0.109,0.149,0.212,0.298,0.288
		c0.45,0.23,0.901,0.375,1.355,0.474c0.04,0.023,0.077,0.052,0.117,0.074c0.209,0.113,0.438,0.11,0.644,0.045
		c0.192,0.02,0.387,0.034,0.582,0.041c0.061,0.021,0.115,0.048,0.186,0.058c0.642,0.083,1.181,0.062,1.77-0.034
		c0.626,0.023,1.257,0.012,1.897-0.058c0.383-0.042,0.638-0.287,0.715-0.577c0.044-0.027,0.09-0.043,0.133-0.081
		c0.154-0.137,0.282-0.279,0.415-0.421c0.269,0.121,0.593,0.094,0.873-0.125c0.25-0.196,0.497-0.46,0.736-0.766
		c0.328,0.124,0.708,0.068,0.871-0.318c0.205-0.487,0.267-1.043,0.261-1.628c0.027-0.063,0.052-0.128,0.078-0.191
		c0.301-0.623,0.506-1.272,0.638-1.941c0.024-0.1,0.048-0.199,0.069-0.299c0.1-0.411,0.172-0.823,0.192-1.231
		C63.837,62.923,63.839,62.31,63.76,61.746z"/>
	<path fill-rule="evenodd" clip-rule="evenodd" fill="#FFE197" d="M49.144,69.604c-0.026-0.112-0.054-0.223-0.08-0.335
		c-0.071-0.3-0.324-0.459-0.598-0.491c-0.4-0.469-0.71-1.002-1.006-1.548c-0.226-1.237-0.446-2.472-0.597-3.719
		c-0.058-0.638-0.105-1.276-0.144-1.917c0.028-0.244,0.059-0.487,0.084-0.731c0.132-0.8,0.294-1.595,0.493-2.381
		c0.278-0.022,0.538-0.176,0.605-0.5c0.121-0.581,0.224-1.147,0.306-1.711c0.159-0.324,0.304-0.658,0.43-0.996
		c0.15-0.186,0.229-0.421,0.193-0.646c0.006-0.235-0.112-0.428-0.293-0.554c-0.07-0.178-0.142-0.355-0.213-0.534
		c-0.079-0.936-1.221-0.979-1.499-0.214c-0.043-0.044-0.08-0.092-0.138-0.127c-1.275-0.795-2.668-1.202-4.098-1.538
		c-0.418-0.154-0.837-0.303-1.262-0.437c-0.214-0.067-0.403-0.036-0.557,0.054c-0.029-0.001-0.058-0.004-0.085-0.003
		c-2.191-0.792-4.127-2.093-6.441-2.553c-0.565-0.112-1.286,0.518-0.871,1.097c0,0.019-0.007,0.035-0.005,0.054
		c0.088,0.986,0.38,1.92,0.801,2.798c-0.491,0.001-0.963,0.628-0.694,1.165c0.651,1.302,1.466,2.515,2.301,3.714
		c0.04,0.081,0.076,0.165,0.116,0.246c0.119,1.545,0.935,2.863,1.833,4.121c0.253,0.975,0.573,1.926,1.109,2.821
		c0.166,0.277,0.36,0.531,0.567,0.774c-0.283,0.268-0.38,0.745-0.036,1.037c1.354,1.149,2.73,2.208,4.311,3.033
		c0.001,0,0.001,0,0.002,0c0.467,0.384,0.939,0.753,1.409,1.093c0.332,0.239,0.712,0.089,0.931-0.189
		c0.291,0.109,0.592,0.204,0.906,0.282c0.205,0.051,0.413,0.011,0.583-0.089c0.148-0.06,0.27-0.165,0.346-0.305
		c0.06-0.01,0.12-0.025,0.18-0.039C48.566,70.698,49.308,70.291,49.144,69.604z"/>
	<path fill-rule="evenodd" clip-rule="evenodd" fill="#FFE197" d="M77.627,48.874c-0.027,0.003-0.052,0.013-0.079,0.017
		c-0.202-0.249-0.535-0.371-0.867-0.137c-1.731,1.219-3.885,1.679-5.913,2.17c-1.098,0.266-2.186,0.348-3.257,0.723
		c-1.008,0.353-1.917,0.976-2.89,1.446c-0.273-0.123-0.622-0.081-0.769,0.226c-0.011,0.021-0.021,0.043-0.031,0.065
		c-0.096,0.014-0.189,0.044-0.274,0.098c-0.377,0.044-0.715,0.364-0.571,0.823c0.102,0.326,0.22,0.645,0.342,0.961
		c0.054,0.182,0.128,0.36,0.216,0.535c0.07,0.169,0.14,0.339,0.213,0.508c0.202,1.114,0.498,2.21,0.654,3.325
		c0.012,0.664,0.032,1.327,0.077,1.992c0.006,0.082,0.031,0.147,0.055,0.215c-0.039,1.021,0.017,2.05,0.039,3.08
		c-0.041,0.44-0.055,0.887-0.044,1.342c-0.055,0.231-0.126,0.454-0.21,0.669c-0.122,0.099-0.199,0.253-0.214,0.454
		c-0.38,0.691-0.976,1.262-1.918,1.629c-0.557,0.217-0.75,0.975-0.172,1.315c0.869,0.51,3.212,1.405,4.065,0.428
		c0.066-0.076,0.143-0.139,0.212-0.211c1.264,0.258,2.154,0.304,3.248-0.628c0.884-0.752,1.459-1.921,1.916-3.034
		c0.523-0.601,1.001-1.234,1.427-1.869c1.552-2.311,2.081-5.153,2.831-7.782c0.746-2.615,2.354-4.948,2.583-7.692
		C78.322,49.211,77.969,48.831,77.627,48.874z"/>
	<path fill-rule="evenodd" clip-rule="evenodd" fill="#FFEBC0" d="M51.378,71.283c-0.081,0.009-0.168,0.02-0.253,0.03
		c-0.757-0.3-1.469-0.211-2.293,0.247c-0.026,0.015-0.041,0.035-0.063,0.051c-0.734,0.05-1.465,0.059-2.194,0.042
		c-0.019-0.011-0.03-0.028-0.052-0.038c-1.372-0.647-2.796-1.16-4.184-1.744c-0.813-0.709-1.676-1.364-2.527-2.029
		c-0.357-0.559-0.705-1.124-1.068-1.68c-0.188-0.426-0.389-0.838-0.621-1.229c-0.46-0.963-0.941-1.912-1.594-2.772
		c-0.414-0.547-1.184-0.426-1.362,0.197c-1.663,0.509-2.957,1.628-4.46,2.489c-0.055-0.002-0.105-0.016-0.161-0.017
		c-0.482-0.008-0.758,0.414-0.772,0.824c-0.23-0.057-0.463-0.11-0.693-0.171c-0.059-0.023-0.113-0.048-0.173-0.069
		c-0.085-0.03-0.164-0.039-0.24-0.038c-0.085-0.023-0.17-0.041-0.255-0.065c-0.809-0.233-1.378,1.023-0.583,1.385
		c0.101,0.046,0.199,0.099,0.301,0.146c0.141,0.434,0.371,0.843,0.663,1.229c0.042,0.157,0.142,0.305,0.311,0.415
		c0.023,0.015,0.046,0.026,0.068,0.04c1.697,1.83,4.795,3.038,6.762,3.384c0.286,0.05,0.549-0.075,0.724-0.27
		c0.91,0.429,1.838,0.802,2.752,1.11c0.223,0.075,0.425,0.043,0.591-0.052c1.238,0.413,2.468,0.854,3.647,1.439
		c0.475,0.236,0.911-0.023,1.095-0.389c1.129,0.389,2.255,0.787,3.357,1.249c0.665,0.276,1.036-0.48,0.796-1.015
		c0.839-0.09,1.463-0.354,1.632-0.905c0.34,0.01,0.675,0.005,1.05-0.062c0.415-0.074,0.571-0.442,0.523-0.794
		C52.187,71.772,51.916,71.224,51.378,71.283z"/>
	<path fill-rule="evenodd" clip-rule="evenodd" fill="#FFEBC0" d="M84.898,66.439c-0.076-0.059-0.156-0.133-0.236-0.212
		c0.027-0.018,0.059-0.039,0.085-0.056c0.813-0.519,0.108-1.623-0.736-1.26c-0.146,0.063-0.295,0.116-0.442,0.175
		c-0.533-0.478-1.098-0.729-1.646-0.111c-0.121-0.076-0.241-0.153-0.361-0.23c0.104-0.296,0.04-0.644-0.311-0.838
		c-1.178-0.65-3.05-1.269-4.564-1.166c-0.042-0.098-0.085-0.195-0.141-0.291c-0.269-0.456-0.784-0.394-1.078-0.072
		c-0.147,0.051-0.287,0.135-0.389,0.292c-0.826,1.271-1.932,2.139-2.798,3.327c-0.465,0.637-0.76,1.361-1.186,2.011
		c-0.391,0.257-0.496,0.89-0.115,1.19c-1.429,1.029-2.968,1.846-4.794,2.011c-1.742,0.158-3.494,0.1-5.232,0.261
		c-0.043-0.02-0.088-0.035-0.131-0.055c-0.224-0.162-0.502-0.066-0.669,0.136c-0.021,0.003-0.04,0.003-0.06,0.006
		c-0.971,0.141-0.555,1.604,0.404,1.469c0.051-0.007,0.103-0.011,0.153-0.018c-0.013,0.256,0.091,0.521,0.35,0.681
		c2.141,1.329,7.618,2.421,9.482-0.031c0.819-0.318,1.607-0.744,2.386-1.167c1.609-0.578,3.188-1.273,4.76-1.924
		c2.396-0.699,4.842-1.309,6.768-2.894C84.966,67.613,85.457,66.873,84.898,66.439z"/>
	<path fill-rule="evenodd" clip-rule="evenodd" fill="#FFAC5A" d="M83.513,55.507c-0.016-0.008-0.03-0.019-0.047-0.026
		c-0.017-0.012-0.028-0.027-0.046-0.039c-0.566-0.381-1.105-0.202-1.487,0.19c-0.046,0.031-0.096,0.054-0.14,0.09
		c-0.637,0.512-0.906,1.667-0.514,2.389c0.314,0.579,0.927,0.772,1.495,0.652c0.151,0.045,0.305,0.074,0.463,0.06
		c0.859-0.075,1.295-0.855,1.389-1.633C84.706,56.526,84.209,55.612,83.513,55.507z"/>
	<path fill-rule="evenodd" clip-rule="evenodd" fill="#FFAC5A" d="M57.014,35.503c-0.341-0.46-0.866-0.758-1.489-0.618
		c-0.822,0.185-1.402,1.105-1.257,1.925c0.063,0.356,0.271,0.647,0.543,0.871c0.194,0.193,0.44,0.321,0.717,0.381
		c0.042,0.014,0.083,0.037,0.125,0.047c0.665,0.173,1.428,0,1.797-0.617C57.849,36.823,57.569,35.978,57.014,35.503z"/>
	<path fill-rule="evenodd" clip-rule="evenodd" fill="#FFAC5A" d="M29.711,54.999c-0.814-0.342-1.739,0.122-2.083,0.894
		c-0.357,0.8-0.02,1.684,0.718,2.127c0.129,0.077,0.259,0.122,0.388,0.151c0.17,0.134,0.369,0.235,0.623,0.256
		c0.812,0.065,1.566-0.878,1.656-1.594C31.122,55.965,30.444,55.308,29.711,54.999z"/>
	<path fill-rule="evenodd" clip-rule="evenodd" fill="#D8B266" d="M51.959,70.548c-0.035,0.059-0.081,0.103-0.117,0.159
		c-0.188-0.16-0.497-0.174-0.702,0.098c-2.457,3.254-8.804,0.93-11.813-0.097c-4.069-1.39-7.861-3.497-11.587-5.583
		c-0.214-0.12-0.534,0.14-0.363,0.364c0.024,0.031,0.053,0.058,0.077,0.089c0.033,0.214,0.088,0.417,0.168,0.607
		c-0.35-0.157-0.885,0.251-0.604,0.654c0.481,0.688,1.155,1.158,1.907,1.515c0.663,0.315,1.663,0.961,2.406,0.742
		c0.036-0.011,0.068-0.032,0.101-0.052c1.08,0.533,2.167,1.068,3.267,1.58c2.229,3.055,7.625,3.532,11.032,3.88
		c1.745,0.179,6.32,0.479,6.348-2.208c0.429-0.362,0.783-0.781,0.986-1.279C53.332,70.363,52.3,69.979,51.959,70.548z"/>
	<path fill-rule="evenodd" clip-rule="evenodd" fill="#FFF7E6" d="M35.696,61.882c-1.033,0.855-2.152,1.206-3.367,1.731
		c-0.539,0.232-1.041,0.518-1.551,0.81c-0.555,0.318-1.208,0.489-1.671,0.932c-0.085,0.081-0.058,0.217,0.035,0.276
		c1.029,0.657,2.941-0.659,3.989-0.942c1.189-0.321,3.037-0.776,3.614-1.998C37.076,61.991,36.288,61.392,35.696,61.882z"/>
	<path fill-rule="evenodd" clip-rule="evenodd" fill="#D8B266" d="M83.982,65.714c-3.279,2.103-7.193,3.614-10.855,4.886
		c-1.711,0.594-3.505,0.89-5.282,1.202c-2.353,0.413-3.982,0.447-5.939-0.259c-0.036-0.032-0.066-0.059-0.09-0.078
		c-0.421-0.348-0.824-0.726-1.36-0.884c-0.473-0.139-0.831,0.31-0.747,0.747c0.016,0.081,0.059,0.156,0.086,0.235
		c-0.049,0.039-0.093,0.09-0.119,0.16c-0.275,0.722,0.756,1.65,1.43,1.839c1.491,0.928,3.9,0.76,5.442,0.729
		c3.07-0.062,7.514-0.621,9.733-3.037c3.025-1.078,5.986-2.562,8.451-4.26C85.51,66.459,84.796,65.192,83.982,65.714z"/>
	<path fill-rule="evenodd" clip-rule="evenodd" fill="#CCA54E" d="M75.326,58.225c1.388-2.168,3.245-5.184,3.198-7.683
		c-0.006-0.282-0.404-0.413-0.546-0.148c-0.958,1.793-1.634,3.755-2.546,5.587c-1.133,2.276-2.644,4.381-4.252,6.34
		c-0.807,0.983-2.926,3.233-4.656,3.976c0.078-1.643-0.116-3.327-0.333-4.791c-0.388-2.608-1.019-6.338-3.354-7.958
		c-0.181-0.125-0.388,0.114-0.288,0.289c0.414,0.728,0.816,1.577,1.186,2.499c-0.052-0.079-0.101-0.159-0.153-0.237
		c-0.112-0.166-0.439-0.182-0.478,0.063c-0.239,1.525,0.752,2.839,1.439,4.199c-0.213,0.709-0.306,1.384-0.291,2.143
		c0.012,0.64-0.105,1.657,0.378,2.148c-0.057,0.168-0.114,0.334-0.172,0.496c-0.067,0.072-0.125,0.162-0.15,0.29
		c-0.02,0.1-0.049,0.225-0.082,0.365c-0.005,0.013-0.01,0.028-0.015,0.042c-0.179,0.51-0.36,1.018-0.548,1.524
		c-0.207,0.511-0.415,1.021-0.623,1.532c-0.048,0.053-0.067,0.1-0.095,0.149c-0.015-0.003-0.027-0.002-0.042-0.005
		c-0.374-0.09-0.864,0.189-0.819,0.625l0.047,0.453c0.027,0.272,0.175,0.57,0.477,0.627c0.282,0.053,0.541-0.017,0.781-0.159
		c0.148,0.243,0.41,0.406,0.712,0.286c0.01-0.004,0.015-0.014,0.024-0.018c0.261,0.31,0.821,0.405,1.117-0.04
		c0.009-0.014,0.016-0.03,0.024-0.044c0.135,0.256,0.431,0.452,0.765,0.404c0.146-0.021,0.291-0.041,0.438-0.063
		c0.286-0.041,0.423-0.221,0.456-0.435c1.084-0.682,1.975-1.495,2.759-2.388c1.219-0.898,2.251-1.799,2.998-3.172
		c0.446-0.818,0.724-1.754,1.089-2.609c0.046-0.106,0.086-0.203,0.127-0.3c0.829-1.087,1.573-2.289,1.708-3.542
		C75.625,58.483,75.492,58.31,75.326,58.225z"/>
	<path fill-rule="evenodd" clip-rule="evenodd" fill="#CCA54E" d="M49.058,69.554c-0.106-0.216-0.195-0.439-0.279-0.663
		c-0.05-0.3-0.145-0.59-0.277-0.908c-0.002-0.007-0.004-0.014-0.006-0.021c-0.001,0-0.002,0.001-0.002,0.001
		c-0.019-0.044-0.032-0.083-0.052-0.128c-0.017-0.037-0.04-0.058-0.061-0.087c0.129-0.4-0.234-0.866-0.658-0.874
		c-0.156-0.36-0.308-0.723-0.418-1.109c-0.42-1.47-0.394-3.068-0.313-4.58c0.15-2.801,1.251-4.935,2.054-7.53
		c0.062-0.202-0.187-0.305-0.326-0.19c-1.957,1.608-2.804,5.33-3.013,7.72c-0.146,1.655-0.269,4.253,0.506,6.128
		c-2.752,0.078-6.126-4.29-7.102-5.899c-2.059-3.4-3.614-7.346-4.753-11.138c-0.139-0.582-0.3-1.157-0.47-1.731
		c-0.085-0.285-0.486-0.163-0.438,0.12c0.009,0.051,0.017,0.101,0.027,0.152c-0.014,0.017-0.029,0.032-0.033,0.056
		c-0.075,0.51,0.042,0.999,0.155,1.497c0.091,0.397,0.188,0.811,0.399,1.16c0.059,0.155,0.131,0.304,0.252,0.43
		c0.019,0.02,0.05,0.02,0.078,0.026c0.412,2.198,1.411,4.284,2.197,6.37c0.428,1.134,0.904,2.218,1.466,3.256
		c-0.095,0.055-0.159,0.153-0.14,0.306c0.382,3.049,3.019,5.76,5.463,7.405c0.637,0.429,1.78,0.979,2.789,1.056
		c0.622,0.21,1.271,0.374,1.95,0.491c0.429,0.074,0.739-0.171,0.803-0.543C49.075,70.17,49.205,69.878,49.058,69.554z"/>
	<path fill-rule="evenodd" clip-rule="evenodd" fill="#D1A43F" d="M60.98,61.372c-0.668-1.581-1.789-2.805-2.896-4.09
		c-1.868-2.168-1.253-4.165-1.907-6.632c-0.061-0.229-0.354-0.195-0.43,0c-0.658,1.723-0.567,3.824-0.001,5.567
		c0.615,1.898,2.342,3.245,3.376,4.886c1.311,2.08,0.826,5.037-1.649,5.915c-2.869,1.018-5.774-1.431-6.04-4.142
		c-0.026-0.269-0.427-0.458-0.567-0.154c-1.013,2.184,0.456,4.067,2.298,5.202c2.191,1.35,5.023,1.152,6.892-0.586
		C61.591,65.909,61.753,63.202,60.98,61.372z"/>
	<path fill-rule="evenodd" clip-rule="evenodd" fill="#FFEA50" d="M57.71,35.255c-0.395-0.917-1.725-0.656-2.377-0.227
		c-0.398,0.262-0.722,0.643-0.899,1.086c-0.185,0.459-0.089,0.811,0.124,1.233c0.104,0.205,0.455,0.165,0.5-0.065
		c0.091-0.468,0.466-0.993,0.863-1.247c0.483-0.309,0.912-0.137,1.435-0.163C57.692,35.856,57.834,35.542,57.71,35.255z"/>
	<path fill-rule="evenodd" clip-rule="evenodd" fill="#FFEA50" d="M84.194,54.864c-0.662-0.31-1.647,0.219-2.207,0.58
		c-0.676,0.435-1.222,1.302-0.904,2.119c0.13,0.333,0.658,0.41,0.754,0c0.151-0.651,0.246-1.016,0.868-1.351
		c0.499-0.269,1.333-0.326,1.613-0.875C84.399,55.182,84.372,54.947,84.194,54.864z"/>
	<path fill-rule="evenodd" clip-rule="evenodd" fill="#FFEA50" d="M30.284,55.306c-1.3-1.233-3.365,1.417-2.449,2.691
		c0.13,0.181,0.359,0.14,0.442-0.058c0.197-0.471,0.295-0.951,0.583-1.384c0.315-0.475,0.785-0.385,1.246-0.576
		C30.37,55.87,30.526,55.536,30.284,55.306z"/>
	<g>
		<g>
			<path fill-rule="evenodd" clip-rule="evenodd" fill="#995C82" d="M91.484,65.086c0.29,19.142-16.174,35.262-35.732,35.28
				c-19.554,0.018-35.595-16.041-35.514-35.371c0.083-19.8,16.341-35.119,35.869-34.966C76.401,30.189,91.652,46.422,91.484,65.086z
				 M88.482,66.564c-0.507,0.316-0.723,0.478-0.961,0.595c-4.006,1.965-8.011,3.93-12.021,5.884
				c-2.57,1.252-5.234,2.235-8.096,2.541c-3.352,0.358-6.459-0.06-8.853-2.838c-0.292-0.339-1.134-0.327-1.689-0.249
				c-0.197,0.027-0.453,0.751-0.418,1.133c0.419,4.752,0.734,9.521,1.396,14.242c0.451,3.223,1.391,6.377,2.132,9.558
				c0.195,0.84,0.744,1.144,1.599,0.935c1.756-0.432,3.538-0.766,5.273-1.271c6.593-1.923,11.947-5.795,16.124-11.12
				c6.492-8.274,8.621-17.719,6.437-28.017c-1.568-7.393-5.347-13.574-11.162-18.384c-8.782-7.264-18.852-9.636-29.97-7.237
				c-8.777,1.895-15.702,6.743-20.756,14.089c-4.417,6.418-6.361,13.629-5.651,21.439c0.935,10.257,5.56,18.448,13.978,24.445
				c4.413,3.145,9.298,5.143,14.645,6.047c0.866,0.146,1.368-0.056,1.648-0.867c0.321-0.932,0.729-1.842,0.965-2.795
				c1.718-6.926,2.196-14.013,2.7-21.097c0.064-0.904-0.348-1.302-1.144-1.2c-0.482,0.063-1.046,0.32-1.368,0.675
				c-1.594,1.754-3.613,2.514-5.903,2.604c-3.083,0.123-6.082-0.395-8.876-1.709c-4.749-2.236-9.451-4.571-14.171-6.87
				c-0.195-0.095-0.356-0.263-0.704-0.524c0.638-0.352,1.123-0.646,1.631-0.895c3.189-1.566,6.386-3.118,9.573-4.685
				c0.522-0.256,1.061-0.435,0.759-1.301c-1.393-3.987-2.718-7.997-4.064-12c-0.115-0.343-0.2-0.697-0.374-1.303
				c0.68,0.199,1.085,0.297,1.478,0.437c1.523,0.543,3.043,1.103,4.565,1.65c3.897,1.4,7.807,2.769,11.686,4.219
				c0.792,0.296,0.967-0.103,1.223-0.626c1.723-3.509,3.45-7.014,5.185-10.518c0.163-0.333,0.371-0.643,0.688-1.184
				c0.382,0.692,0.658,1.147,0.892,1.625c1.637,3.374,3.279,6.747,4.886,10.135c0.349,0.736,0.713,0.892,1.464,0.503
				c0.941-0.488,1.938-0.887,2.941-1.236c4.4-1.53,8.811-3.029,13.22-4.534c0.353-0.121,0.718-0.202,1.349-0.376
				c-0.215,0.694-0.337,1.129-0.482,1.556c-1.283,3.775-2.563,7.551-3.86,11.321c-0.208,0.607-0.356,1.096,0.413,1.457
				c1.716,0.803,3.4,1.672,5.1,2.509C84.02,64.373,86.135,65.411,88.482,66.564z M56.137,43.62
				c-0.378,0.546-0.532,0.723-0.634,0.926c-1.543,3.066-3.12,6.116-4.607,9.21c-1.51,3.145-2.755,6.382-2.677,9.961
				c0.076,3.441,1.955,5.9,5.261,6.912c3.337,1.02,7.087,0.001,8.778-2.654c0.73-1.146,1.296-2.624,1.3-3.952
				c0.007-2.057-0.153-4.269-0.913-6.142C60.722,53.147,58.425,48.566,56.137,43.62z M62.418,70.107
				c0.363,0.159,0.599,0.315,0.854,0.367c2.49,0.499,4.756-0.172,6.354-2.024c1.603-1.856,3.162-3.912,4.095-6.149
				c1.771-4.249,3.084-8.689,4.577-13.053c0.028-0.083-0.062-0.207-0.139-0.44c-4.419,1.515-8.827,2.974-13.196,4.545
				c-2.161,0.777-2.047,0.842-1.32,3.008C65.212,61.039,66.231,65.712,62.418,70.107z M49.17,70.252
				c-0.761-1.642-1.682-3.062-2.084-4.615c-0.88-3.396,0.108-6.64,1.31-9.809c0.569-1.5,0.613-1.609-0.884-2.151
				c-4.077-1.479-8.19-2.856-12.292-4.271c-0.466-0.161-0.936-0.315-1.399-0.47c-0.071,0.184-0.141,0.269-0.121,0.323
				c1.572,4.547,3.023,9.142,4.781,13.617c0.994,2.529,2.534,4.834,4.884,6.415C45.187,70.516,47.136,70.985,49.17,70.252z
				 M59.855,71.526c-0.004,0.158-0.006,0.315-0.009,0.473c1.091,1.411,2.612,2.055,4.339,2.281c3.027,0.395,5.92-0.258,8.633-1.498
				c3.584-1.637,7.074-3.474,10.604-5.229c0.513-0.255,1.012-0.535,1.603-0.849c-0.209-0.224-0.289-0.37-0.411-0.431
				c-2.785-1.393-5.578-2.767-8.359-4.168c-0.617-0.311-0.815,0.021-1.071,0.49c-0.851,1.554-1.607,3.181-2.643,4.606
				c-2.448,3.374-5.813,5.973-11.122,4.167C60.967,71.214,60.378,71.464,59.855,71.526z M27.072,66.525
				c0.287,0.248,0.387,0.377,0.52,0.441c3.924,1.939,7.811,3.958,11.792,5.775c2.636,1.204,5.453,1.877,8.403,1.534
				c1.758-0.204,3.316-0.839,4.491-2.317c-0.706-0.694-1.32-0.791-2.198-0.481c-2.201,0.778-4.423,0.736-6.534-0.389
				c-2.689-1.433-4.375-3.8-5.816-6.376c-0.494-0.883-0.934-1.797-1.441-2.774C33.21,63.471,30.224,64.957,27.072,66.525z"/>
			<path fill-rule="evenodd" clip-rule="evenodd" fill="#995C82" d="M26.806,56.85c0.045-1.362,1.081-2.339,2.457-2.315
				c1.308,0.023,2.369,1.133,2.349,2.453c-0.019,1.299-1.143,2.343-2.482,2.308C27.779,59.262,26.761,58.189,26.806,56.85z
				 M27.777,57.304c0.347,0.267,0.802,0.87,1.353,0.978c0.835,0.164,1.427-0.419,1.465-1.298c0.036-0.823-0.445-1.351-1.275-1.4
				C28.427,55.531,27.952,56.047,27.777,57.304z"/>
			<path fill-rule="evenodd" clip-rule="evenodd" fill="#995C82" d="M56.016,34.173c1.351,0.006,2.389,1.065,2.362,2.409
				c-0.022,1.225-1.126,2.337-2.341,2.358c-1.267,0.022-2.423-1.107-2.442-2.389C53.573,35.277,54.703,34.168,56.016,34.173z
				 M55.962,35.103c-0.773,0.117-1.357,0.499-1.374,1.402c-0.02,0.885,0.458,1.402,1.344,1.436c0.946,0.037,1.479-0.487,1.493-1.417
				C57.439,35.626,56.857,35.219,55.962,35.103z"/>
			<path fill-rule="evenodd" clip-rule="evenodd" fill="#995C82" d="M85.193,56.859c0.023,1.266-1.039,2.373-2.278,2.371
				c-1.236-0.001-2.355-1.118-2.341-2.334c0.016-1.19,1.059-2.255,2.252-2.297C84.105,54.552,85.169,55.569,85.193,56.859z
				 M84.402,56.942c0.012-0.767-0.619-1.438-1.39-1.475c-0.835-0.041-1.541,0.607-1.518,1.442c0.025,0.874,0.521,1.387,1.372,1.482
				C83.654,58.479,84.391,57.746,84.402,56.942z"/>
		</g>
	</g>
	<g id="Layer_2_4_">
		<g id="Layer_16_4_">
			<path opacity="0.13" enable-background="new    " d="M56.028,11.288l-46.07,26.56v53.12l1.67,0.96l0.63,0.37h0.011l18.81,10.84
				l1.04,0.6l2.18,1.26l0.49,0.28l0.439,0.26l0.36,0.21l3.13,1.8l3.311,1.91l1.289,0.74v0.01l12.711,7.32l46.07-26.56v-53.12
				L56.028,11.288z M100.237,89.898l-44.209,25.49l-12.51-7.21l-31.701-18.28v-50.97l44.211-25.49l44.209,25.49V89.898z"/>
		</g>
	</g>
</g>
</svg>
