<svg enable-background="new 0 0 110.979 128.417" viewBox="0 0 110.979 128.417" xmlns="http://www.w3.org/2000/svg"><path d="m55.556 127.881-55.139-31.834v-63.67l55.139-31.835 55.14 31.835v63.669z" fill="#dfd086" stroke="#000" stroke-width="1.8" transform="translate(.153729 .373816)"/><path d="m55.422 116.822-45.313-26.162v-52.323l45.313-26.162 45.314 26.162v52.323z" fill-opacity=".322275" transform="translate(.153729 .373816)"/><path d="m55.555 10.618-46.482 26.798v53.594l46.482 26.795 46.485-26.795v-53.594zm44.603 79.312-44.603 25.716-44.604-25.716v-51.424l44.604-25.716 44.603 25.716z" transform="translate(.153729 .373816)"/><path d="m56.256343 37.278645h20.411505v50.491747h-20.411505zm0 0" fill="#00788c"/><path d="m60.048398 64.135812h16.61945v9.668738h-15.039875c-.133271-2.288217-.680124-7.683453-1.579575-9.668738zm0 0" fill="#ffe839"/><path d="m79.890925 52.31852h-23.634582v-6.445661h23.634582zm0 0" fill="#ffca13"/><path d="m76.667848 45.872859h-23.634584v-6.44566h23.634584zm0 0" fill="#ffe839"/><path d="m79.890925 39.427199h-23.634582v-6.445662h23.634582zm0 0" fill="#ffca13"/><path d="m53.033264 55.659622v-3.341102h23.634584v6.445662h-24.708613c-1.566294-1.318934 3.023909-2.367393 1.074029-3.10456zm0 0" fill="#ffe839"/><path d="m55.181821 58.764182h24.709104v6.446153h-19.835643c-1.131568-2.499188-2.801134-4.700361-4.873461-6.446153zm0 0" fill="#ffca13"/><path d="m61.627973 72.730026c0-.362927-.03343-.716511-.05508-1.074031h18.318033v6.445662h-19.06897c.522263-1.698581.806018-3.502403.806018-5.371631zm0 0" fill="#ffca13"/><path d="m60.877036 78.101657h15.790812v8.594213h-19.336983c1.585473-1.864796 2.809003-6.195349 3.546171-8.594213zm0 0" fill="#ffe839"/><path d="m54.106807 84.548304c.0011-.0011.0011-.0011 0 0l25.784118-.0011v6.445659h-33.30332c5.575713 0 4.169244-2.506074 7.519202-6.444679zm0 0" fill="#ffca13"/><path d="m64.850559 72.730026c0 10.086746-8.176704 18.262952-18.262954 18.262952-10.086255 0-18.262953-8.176206-18.262953-18.262952 0-10.086251 8.176698-18.262951 18.262953-18.262951 10.08625 0 18.262954 8.1767 18.262954 18.262951zm0 0" fill="#ffca13"/><path d="m51.959235 74.878581-5.37163-2.148555-5.371137 2.148555 5.371137-10.742769zm0 0" fill="#2f7c88"/><path d="m51.959235 74.878581-5.37163-2.148555-5.371137 2.148555 5.371137 6.446152zm0 0" fill="#00d9fb"/><g fill="#070707" stroke-width=".125894"><path d="m45.513084 92.067501c-10.662118 0-19.336984-8.674866-19.336984-19.337476 0-10.662117 8.674866-19.336983 19.336984-19.336983 10.662609 0 19.337475 8.674866 19.337475 19.336983 0 10.66261-8.674866 19.337476-19.337475 19.337476zm0-36.525906c-9.478421 0-17.18843 7.710992-17.18843 17.18843s7.710009 17.188922 17.18843 17.188922 17.188921-7.711484 17.188921-17.188922-7.7105-17.18843-17.188921-17.18843zm0 0"/><path d="m31.547239 73.804548c-.593078 0-1.074031-.480462-1.074031-1.074523 0-8.29325 6.746626-15.039876 15.039876-15.039876.593078 0 1.074522.47997 1.074522 1.074031s-.481444 1.074523-1.074522 1.074523c-7.10857 0-12.891322 5.782752-12.891322 12.891322 0 .594061-.481446 1.074523-1.074523 1.074523zm0 0"/><path d="m45.513084 87.770392c-.593078 0-1.074031-.48046-1.074031-1.074522 0-.594061.480953-1.074031 1.074031-1.074031 7.10857 0 12.891814-5.783243 12.891814-12.891814 0-.594061.480953-1.074031 1.074031-1.074031.593077 0 1.074523.47997 1.074523 1.074031 0 8.293742-6.746626 15.040367-15.040368 15.040367zm0 0"/><path d="m78.816403 53.393042h-23.634582c-.593077 0-1.074523-.480462-1.074523-1.074523v-6.445661c0-.594062.481446-1.074522 1.074523-1.074522h23.634582c.593078 0 1.074031.48046 1.074031 1.074522v6.445661c0 .594061-.480953 1.074523-1.074031 1.074523zm-22.560058-2.148554h21.485536v-4.297599h-21.485536zm0 0"/><path d="m75.593327 46.946889h-23.634582c-.592585 0-1.074031-.47997-1.074031-1.074031v-6.445661c0-.594061.481446-1.074523 1.074031-1.074523h23.634582c.593078 0 1.074523.480462 1.074523 1.074523v6.445661c0 .594061-.481445 1.074031-1.074523 1.074031zm-22.56006-2.148553h21.486029v-4.297108h-21.486029zm0 0"/><path d="m78.816403 40.501228h-23.634582c-.593077 0-1.074523-.47997-1.074523-1.074031v-6.445661c0-.594553.481446-1.074523 1.074523-1.074523h23.634582c.593078 0 1.074031.47997 1.074031 1.074523v6.445661c0 .594061-.480953 1.074031-1.074031 1.074031zm-22.560058-2.148554h21.485536v-4.297107h-21.485536zm0 0"/><path d="m75.593327 59.838703h-18.323932c-.253754 0-.498657-.08901-.692906-.252279-1.474334-1.242218-3.155212-2.22527-4.997884-2.921128-.417023-.159335-.693891-.558653-.693891-1.005676v-3.341101c0-.594061.481446-1.074031 1.074031-1.074031h23.634582c.593078 0 1.074523.47997 1.074523 1.074031v6.445661c0 .594061-.481445 1.074523-1.074523 1.074523zm-17.938382-2.148554h16.864351v-4.297107h-21.486029v1.539247c1.676945.707169 3.227012 1.630718 4.621678 2.75786zm0 0"/><path d="m78.816403 66.284365h-16.673052c-.422431 0-.804539-.245887-.978626-.630454-1.056328-2.331492-2.641802-4.429393-4.587253-6.067487-.345225-.291622-.471611-.766182-.317193-1.189598.154907-.422924.557669-.706677 1.009116-.706677h21.547008c.593078 0 1.074031.47997 1.074031 1.074031v6.446154c0 .594061-.480953 1.074031-1.074031 1.074031zm-15.994405-2.148555h14.919883v-4.297107h-17.831176c1.15419 1.292378 2.138226 2.743599 2.911293 4.297107zm0 0"/><path d="m75.593327 72.730025h-11.871878c-.569472 0-1.040098-.443578-1.072063-1.010592-.123927-2.123965-.623076-4.164328-1.484661-6.065522-.150482-.332929-.122452-.71897.07623-1.025836.196709-.306375.537015-.492265.902402-.492265h13.449975c.593078 0 1.074523.47997 1.074523 1.074524v6.44566c0 .594061-.481445 1.074031-1.074523 1.074031zm-10.883415-2.148553h9.809384v-4.297107h-10.787027c.487346 1.382863.815358 2.821297.977643 4.297107zm0 0"/><path d="m78.816403 79.175686h-15.84589c-.340798 0-.661926-.160809-.863553-.434726-.203101-.275393-.26359-.628486-.16376-.955023.503084-1.637601.758806-3.33815.758806-5.055912 0-.240476-.01721-.474561-.03344-.711102l-.01918-.29949c-.01721-.295556.08803-.584717.291129-.800605.203102-.214906.48538-.336373.781918-.336373h15.09397c.593078 0 1.074031.480462 1.074031 1.074523v6.445661c0 .593077-.480953 1.073047-1.074031 1.073047zm-14.448273-2.148553h13.373751v-4.297107h-12.891322c0 1.450237-.162285 2.890146-.482429 4.297107zm0 0"/><path d="m75.593327 85.621839h-16.168985c-.41899 0-.799621-.243919-.975676-.623075-.176055-.380633-.115075-.828637.156875-1.146322 1.531871-1.801854 2.654588-3.841726 3.337659-6.065521.13868-.452431.555703-.759788 1.027313-.759788h12.622814c.593078 0 1.074523.480461 1.074523 1.074522v6.445661c0 .594061-.481445 1.074523-1.074523 1.074523zm-14.008629-2.148554h12.934598v-4.297599h-10.772274c-.537016 1.519085-1.260905 2.956536-2.162324 4.297599zm0 0"/><path d="m86.336096 92.067501h-62.308549c-.593078 0-1.074523-.480462-1.074523-1.074523 0-.594062.481445-1.074031 1.074523-1.074031h62.308549c.593078 0 1.074523.479969 1.074523 1.074031 0 .594061-.481445 1.074523-1.074523 1.074523zm0 0"/><path d="m78.816403 92.067501h-33.303319c-.593078 0-1.074031-.480462-1.074031-1.074523 0-.594062.480953-1.074031 1.074031-1.074031 5.040667 0 9.812827-2.211992 13.091473-6.065522.204086-.240476.503575-.379156.818802-.379156l19.393044-.001c.284737 0 .558654.112616.759297.314735.201135.201626.314734.473577.314734.759296v6.445662c0 .594061-.480953 1.074523-1.074031 1.074523zm-24.453383-2.148554h23.378861v-4.297108h-17.8297c-1.593343 1.778741-3.477815 3.227011-5.549161 4.297108zm0 0"/><path d="m50.884714 75.953102c-.134254 0-.269492-.02459-.398827-.07623l-4.972803-1.989711-4.972803 1.989711c-.413581.163268-.887158.05803-1.189105-.270967-.301949-.32752-.369813-.808966-.171138-1.207301l5.371631-10.742768c.364403-.728807 1.557935-.728807 1.921846 0l5.37163 10.742768c.19966.398335.132287.879781-.171136 1.207301-.206053.225723-.495216.347192-.789295.347192zm-5.37163-4.297108c.135238 0 .270966.02459.398828.07622l2.748023 1.099111-3.146851-6.293211-3.14636 6.293211 2.748025-1.099111c.12786-.05164.263097-.07622.398335-.07622zm0 0"/><path d="m45.513084 82.398763c-.319161 0-.620617-.14163-.825194-.385549l-5.371139-6.445662c-.220314-.264574-.300965-.617666-.215888-.952071.08459-.333914.323095-.605864.642255-.734708l5.371631-2.148554c.255721-.103272.541441-.103272.798146 0l5.37163 2.148554c.318669.12786.558161.400794.642255.734708.0836.334405.0044.687497-.215888.952071l-5.37163 6.445662c-.20507.243919-.507018.385549-.826178.385549zm-3.599774-7.07218 3.599774 4.319729 3.600265-4.319729-3.600265-1.439417zm0 0"/></g></svg>