<?xml version="1.0" encoding="UTF-8" standalone="no"?>
<!-- Generator: Adobe Illustrator 21.0.2, SVG Export Plug-In . SVG Version: 6.00 Build 0)  -->

<svg
   xmlns:osb="http://www.openswatchbook.org/uri/2009/osb"
   xmlns:dc="http://purl.org/dc/elements/1.1/"
   xmlns:cc="http://creativecommons.org/ns#"
   xmlns:rdf="http://www.w3.org/1999/02/22-rdf-syntax-ns#"
   xmlns:svg="http://www.w3.org/2000/svg"
   xmlns="http://www.w3.org/2000/svg"
   xmlns:sodipodi="http://sodipodi.sourceforge.net/DTD/sodipodi-0.dtd"
   xmlns:inkscape="http://www.inkscape.org/namespaces/inkscape"
   version="1.1"
   x="0px"
   y="0px"
   viewBox="0 0 110.979 128.417"
   enable-background="new 0 0 110.979 128.417"
   xml:space="preserve"
   id="svg415"
   sodipodi:docname="eth1.svg"
   inkscape:version="0.92.2 5c3e80d, 2017-08-06"><metadata
     id="metadata421"><rdf:RDF><cc:Work
         rdf:about=""><dc:format>image/svg+xml</dc:format><dc:type
           rdf:resource="http://purl.org/dc/dcmitype/StillImage" /><dc:title /></cc:Work></rdf:RDF></metadata><defs
     id="defs419"><linearGradient
       id="linearGradient4025"
       osb:paint="solid"><stop
         style="stop-color:#ffd300;stop-opacity:1;"
         offset="0"
         id="stop4023" /></linearGradient><linearGradient
       id="linearGradient3847"
       osb:paint="solid"><stop
         style="stop-color:#ffd300;stop-opacity:1;"
         offset="0"
         id="stop3845" /></linearGradient></defs><sodipodi:namedview
     pagecolor="#ffffff"
     bordercolor="#666666"
     borderopacity="1"
     objecttolerance="10"
     gridtolerance="10"
     guidetolerance="10"
     inkscape:pageopacity="0"
     inkscape:pageshadow="2"
     inkscape:window-width="1440"
     inkscape:window-height="856"
     id="namedview417"
     showgrid="false"
     inkscape:zoom="4.8415195"
     inkscape:cx="51.070888"
     inkscape:cy="56.029327"
     inkscape:window-x="-269"
     inkscape:window-y="125"
     inkscape:window-maximized="0"
     inkscape:current-layer="svg415"
     showguides="true"
     inkscape:guide-bbox="true" /><g
     id="Layer_1" /><g
     id="g5"
     transform="translate(0.15372898,0.37381641)"
     style="fill:#dfd086;fill-opacity:1;stroke:#000000;stroke-opacity:1;stroke-width:1.8;stroke-miterlimit:4;stroke-dasharray:none"><polygon
       style="fill:#dfd086;fill-opacity:1;stroke:#000000;stroke-opacity:1;stroke-width:1.8;stroke-miterlimit:4;stroke-dasharray:none"
       id="polygon3"
       points="55.556,127.881 0.417,96.047 0.417,32.377 55.556,0.542 110.696,32.377 110.696,96.046 " /></g><g
     id="g9"
     transform="translate(0.15372898,0.37381641)"
     style="fill:#000000;fill-opacity:0.32227489"><polygon
       style="fill:#000000;fill-opacity:0.32227489"
       id="polygon7"
       points="55.422,116.822 10.109,90.66 10.109,38.337 55.422,12.175 100.736,38.337 100.736,90.66 " /></g><g
     id="g13"
     enable-background="new    "
     transform="translate(0.15372898,0.37381641)"
     style="fill:#000000;fill-opacity:1"><path
       style="fill:#000000;fill-opacity:1"
       inkscape:connector-curvature="0"
       id="path11"
       d="M 55.555,10.618 9.073,37.416 V 91.01 L 55.555,117.805 102.04,91.01 V 37.416 Z M 100.158,89.93 55.555,115.646 10.951,89.93 V 38.506 L 55.555,12.79 100.158,38.506 Z" /></g><g
     id="border" /><g
     id="g6263"
     transform="matrix(0.04851667,0,0,0.04165631,44.135969,68.925307)" /><g
     id="g6265"
     transform="matrix(0.04851667,0,0,0.04165631,44.135969,68.925307)" /><g
     id="g6267"
     transform="matrix(0.04851667,0,0,0.04165631,44.135969,68.925307)" /><g
     id="g6269"
     transform="matrix(0.04851667,0,0,0.04165631,44.135969,68.925307)" /><g
     id="g6271"
     transform="matrix(0.04851667,0,0,0.04165631,44.135969,68.925307)" /><g
     id="g6273"
     transform="matrix(0.04851667,0,0,0.04165631,44.135969,68.925307)" /><g
     id="g6275"
     transform="matrix(0.04851667,0,0,0.04165631,44.135969,68.925307)" /><g
     id="g6277"
     transform="matrix(0.04851667,0,0,0.04165631,44.135969,68.925307)" /><g
     id="g6279"
     transform="matrix(0.04851667,0,0,0.04165631,44.135969,68.925307)" /><g
     id="g6281"
     transform="matrix(0.04851667,0,0,0.04165631,44.135969,68.925307)" /><g
     id="g6283"
     transform="matrix(0.04851667,0,0,0.04165631,44.135969,68.925307)" /><g
     id="g6285"
     transform="matrix(0.04851667,0,0,0.04165631,44.135969,68.925307)" /><g
     id="g6287"
     transform="matrix(0.04851667,0,0,0.04165631,44.135969,68.925307)" /><g
     id="g6289"
     transform="matrix(0.04851667,0,0,0.04165631,44.135969,68.925307)" /><g
     id="g6291"
     transform="matrix(0.04851667,0,0,0.04165631,44.135969,68.925307)" /><g
     id="g910"><path
       id="path1569"
       d="M 56.256343,37.278645 H 76.667848 V 87.770392 H 56.256343 Z m 0,0"
       inkscape:connector-curvature="0"
       style="fill:#00788c;stroke:none;stroke-width:0.89193279;stroke-miterlimit:4;stroke-dasharray:none;stroke-opacity:1" /><path
       id="path1571"
       d="m 60.048398,64.135812 h 16.61945 V 73.80455 H 61.627973 c -0.133271,-2.288217 -0.680124,-7.683453 -1.579575,-9.668738 z m 0,0"
       inkscape:connector-curvature="0"
       style="fill:#ffe839;fill-opacity:1;stroke:none;stroke-width:0.89193279;stroke-miterlimit:4;stroke-dasharray:none;stroke-opacity:1" /><path
       id="path1573"
       d="M 79.890925,52.31852 H 56.256343 v -6.445661 h 23.634582 z m 0,0"
       inkscape:connector-curvature="0"
       style="opacity:1;fill:#ffca13;fill-opacity:1;fill-rule:nonzero;stroke:none;stroke-width:0.89193279;stroke-miterlimit:4;stroke-dasharray:none;stroke-opacity:1" /><path
       id="path1575"
       d="M 76.667848,45.872859 H 53.033264 v -6.44566 h 23.634584 z m 0,0"
       inkscape:connector-curvature="0"
       style="fill:#ffe839;fill-opacity:1;stroke:none;stroke-width:0.89193279;stroke-miterlimit:4;stroke-dasharray:none;stroke-opacity:1" /><path
       id="path1577"
       d="M 79.890925,39.427199 H 56.256343 v -6.445662 h 23.634582 z m 0,0"
       inkscape:connector-curvature="0"
       style="opacity:1;fill:#ffca13;fill-opacity:1;fill-rule:nonzero;stroke:none;stroke-width:0.89193279;stroke-miterlimit:4;stroke-dasharray:none;stroke-opacity:1" /><path
       id="path1579"
       d="M 53.033264,55.659622 V 52.31852 h 23.634584 v 6.445662 H 51.959235 c -1.566294,-1.318934 3.023909,-2.367393 1.074029,-3.10456 z m 0,0"
       inkscape:connector-curvature="0"
       style="fill:#ffe839;fill-opacity:1;stroke:none;stroke-width:0.89193279;stroke-miterlimit:4;stroke-dasharray:none;stroke-opacity:1" /><path
       id="path1581"
       d="m 55.181821,58.764182 h 24.709104 v 6.446153 H 60.055282 c -1.131568,-2.499188 -2.801134,-4.700361 -4.873461,-6.446153 z m 0,0"
       inkscape:connector-curvature="0"
       style="opacity:1;fill:#ffca13;fill-opacity:1;fill-rule:nonzero;stroke:none;stroke-width:0.89193279;stroke-miterlimit:4;stroke-dasharray:none;stroke-opacity:1" /><path
       id="path1583"
       d="m 61.627973,72.730026 c 0,-0.362927 -0.03343,-0.716511 -0.05508,-1.074031 h 18.318033 v 6.445662 h -19.06897 c 0.522263,-1.698581 0.806018,-3.502403 0.806018,-5.371631 z m 0,0"
       inkscape:connector-curvature="0"
       style="opacity:1;fill:#ffca13;fill-opacity:1;fill-rule:nonzero;stroke:none;stroke-width:0.89193279;stroke-miterlimit:4;stroke-dasharray:none;stroke-opacity:1" /><path
       id="path1585"
       d="M 60.877036,78.101657 H 76.667848 V 86.69587 H 57.330865 c 1.585473,-1.864796 2.809003,-6.195349 3.546171,-8.594213 z m 0,0"
       inkscape:connector-curvature="0"
       style="fill:#ffe839;fill-opacity:1;stroke:none;stroke-width:0.89193279;stroke-miterlimit:4;stroke-dasharray:none;stroke-opacity:1" /><path
       id="path1587"
       d="m 54.106807,84.548304 c 0.0011,-0.0011 0.0011,-0.0011 0,0 l 25.784118,-0.0011 v 6.445659 h -33.30332 c 5.575713,0 4.169244,-2.506074 7.519202,-6.444679 z m 0,0"
       inkscape:connector-curvature="0"
       style="opacity:1;fill:#ffca13;fill-opacity:1;fill-rule:nonzero;stroke:none;stroke-width:0.89193279;stroke-miterlimit:4;stroke-dasharray:none;stroke-opacity:1" /><path
       id="path1589"
       d="m 64.850559,72.730026 c 0,10.086746 -8.176704,18.262952 -18.262954,18.262952 -10.086255,0 -18.262953,-8.176206 -18.262953,-18.262952 0,-10.086251 8.176698,-18.262951 18.262953,-18.262951 10.08625,0 18.262954,8.1767 18.262954,18.262951 z m 0,0"
       inkscape:connector-curvature="0"
       style="opacity:1;fill:#ffca13;fill-opacity:1;fill-rule:nonzero;stroke:none;stroke-width:0.89200002;stroke-miterlimit:4;stroke-dasharray:none;stroke-opacity:1" /><path
       id="path1591"
       d="m 51.959235,74.878581 -5.37163,-2.148555 -5.371137,2.148555 5.371137,-10.742769 z m 0,0"
       inkscape:connector-curvature="0"
       style="fill:#2f7c88;fill-opacity:1;stroke:none;stroke-width:0.89193279;stroke-miterlimit:4;stroke-dasharray:none;stroke-opacity:1" /><path
       id="path1593"
       d="m 51.959235,74.878581 -5.37163,-2.148555 -5.371137,2.148555 5.371137,6.446152 z m 0,0"
       inkscape:connector-curvature="0"
       style="fill:#00d9fb;fill-opacity:1;stroke:none;stroke-width:0.89193279;stroke-miterlimit:4;stroke-dasharray:none;stroke-opacity:1" /><path
       inkscape:connector-curvature="0"
       d="m 45.513084,92.067501 c -10.662118,0 -19.336984,-8.674866 -19.336984,-19.337476 0,-10.662117 8.674866,-19.336983 19.336984,-19.336983 10.662609,0 19.337475,8.674866 19.337475,19.336983 0,10.66261 -8.674866,19.337476 -19.337475,19.337476 z m 0,-36.525906 c -9.478421,0 -17.18843,7.710992 -17.18843,17.18843 0,9.477438 7.710009,17.188922 17.18843,17.188922 9.478421,0 17.188921,-7.711484 17.188921,-17.188922 0,-9.477438 -7.7105,-17.18843 -17.188921,-17.18843 z m 0,0"
       id="path1595"
       style="fill:#070707;fill-opacity:1;stroke-width:0.12589374" /><path
       inkscape:connector-curvature="0"
       d="m 31.547239,73.804548 c -0.593078,0 -1.074031,-0.480462 -1.074031,-1.074523 0,-8.29325 6.746626,-15.039876 15.039876,-15.039876 0.593078,0 1.074522,0.47997 1.074522,1.074031 0,0.594061 -0.481444,1.074523 -1.074522,1.074523 -7.10857,0 -12.891322,5.782752 -12.891322,12.891322 0,0.594061 -0.481446,1.074523 -1.074523,1.074523 z m 0,0"
       id="path1597"
       style="fill:#070707;fill-opacity:1;stroke-width:0.12589374" /><path
       inkscape:connector-curvature="0"
       d="m 45.513084,87.770392 c -0.593078,0 -1.074031,-0.48046 -1.074031,-1.074522 0,-0.594061 0.480953,-1.074031 1.074031,-1.074031 7.10857,0 12.891814,-5.783243 12.891814,-12.891814 0,-0.594061 0.480953,-1.074031 1.074031,-1.074031 0.593077,0 1.074523,0.47997 1.074523,1.074031 0,8.293742 -6.746626,15.040367 -15.040368,15.040367 z m 0,0"
       id="path1599"
       style="fill:#070707;fill-opacity:1;stroke-width:0.12589374" /><path
       inkscape:connector-curvature="0"
       d="M 78.816403,53.393042 H 55.181821 c -0.593077,0 -1.074523,-0.480462 -1.074523,-1.074523 v -6.445661 c 0,-0.594062 0.481446,-1.074522 1.074523,-1.074522 h 23.634582 c 0.593078,0 1.074031,0.48046 1.074031,1.074522 v 6.445661 c 0,0.594061 -0.480953,1.074523 -1.074031,1.074523 z M 56.256345,51.244488 H 77.741881 V 46.946889 H 56.256345 Z m 0,0"
       id="path1601"
       style="fill:#070707;fill-opacity:1;stroke-width:0.12589374" /><path
       inkscape:connector-curvature="0"
       d="M 75.593327,46.946889 H 51.958745 c -0.592585,0 -1.074031,-0.47997 -1.074031,-1.074031 v -6.445661 c 0,-0.594061 0.481446,-1.074523 1.074031,-1.074523 h 23.634582 c 0.593078,0 1.074523,0.480462 1.074523,1.074523 v 6.445661 c 0,0.594061 -0.481445,1.074031 -1.074523,1.074031 z M 53.033267,44.798336 H 74.519296 V 40.501228 H 53.033267 Z m 0,0"
       id="path1603"
       style="fill:#070707;fill-opacity:1;stroke-width:0.12589374" /><path
       inkscape:connector-curvature="0"
       d="M 78.816403,40.501228 H 55.181821 c -0.593077,0 -1.074523,-0.47997 -1.074523,-1.074031 v -6.445661 c 0,-0.594553 0.481446,-1.074523 1.074523,-1.074523 h 23.634582 c 0.593078,0 1.074031,0.47997 1.074031,1.074523 v 6.445661 c 0,0.594061 -0.480953,1.074031 -1.074031,1.074031 z M 56.256345,38.352674 H 77.741881 V 34.055567 H 56.256345 Z m 0,0"
       id="path1605"
       style="fill:#070707;fill-opacity:1;stroke-width:0.12589374" /><path
       inkscape:connector-curvature="0"
       d="M 75.593327,59.838703 H 57.269395 c -0.253754,0 -0.498657,-0.08901 -0.692906,-0.252279 -1.474334,-1.242218 -3.155212,-2.22527 -4.997884,-2.921128 -0.417023,-0.159335 -0.693891,-0.558653 -0.693891,-1.005676 v -3.341101 c 0,-0.594061 0.481446,-1.074031 1.074031,-1.074031 h 23.634582 c 0.593078,0 1.074523,0.47997 1.074523,1.074031 v 6.445661 c 0,0.594061 -0.481445,1.074523 -1.074523,1.074523 z M 57.654945,57.690149 H 74.519296 V 53.393042 H 53.033267 v 1.539247 c 1.676945,0.707169 3.227012,1.630718 4.621678,2.75786 z m 0,0"
       id="path1607"
       style="fill:#070707;fill-opacity:1;stroke-width:0.12589374" /><path
       inkscape:connector-curvature="0"
       d="M 78.816403,66.284365 H 62.143351 c -0.422431,0 -0.804539,-0.245887 -0.978626,-0.630454 -1.056328,-2.331492 -2.641802,-4.429393 -4.587253,-6.067487 -0.345225,-0.291622 -0.471611,-0.766182 -0.317193,-1.189598 0.154907,-0.422924 0.557669,-0.706677 1.009116,-0.706677 h 21.547008 c 0.593078,0 1.074031,0.47997 1.074031,1.074031 v 6.446154 c 0,0.594061 -0.480953,1.074031 -1.074031,1.074031 z M 62.821998,64.13581 H 77.741881 V 59.838703 H 59.910705 c 1.15419,1.292378 2.138226,2.743599 2.911293,4.297107 z m 0,0"
       id="path1609"
       style="fill:#070707;fill-opacity:1;stroke-width:0.12589374" /><path
       inkscape:connector-curvature="0"
       d="M 75.593327,72.730025 H 63.721449 c -0.569472,0 -1.040098,-0.443578 -1.072063,-1.010592 -0.123927,-2.123965 -0.623076,-4.164328 -1.484661,-6.065522 -0.150482,-0.332929 -0.122452,-0.71897 0.07623,-1.025836 0.196709,-0.306375 0.537015,-0.492265 0.902402,-0.492265 h 13.449975 c 0.593078,0 1.074523,0.47997 1.074523,1.074524 v 6.44566 c 0,0.594061 -0.481445,1.074031 -1.074523,1.074031 z M 64.709912,70.581472 h 9.809384 V 66.284365 H 63.732269 c 0.487346,1.382863 0.815358,2.821297 0.977643,4.297107 z m 0,0"
       id="path1611"
       style="fill:#070707;fill-opacity:1;stroke-width:0.12589374" /><path
       inkscape:connector-curvature="0"
       d="m 78.816403,79.175686 h -15.84589 c -0.340798,0 -0.661926,-0.160809 -0.863553,-0.434726 -0.203101,-0.275393 -0.26359,-0.628486 -0.16376,-0.955023 0.503084,-1.637601 0.758806,-3.33815 0.758806,-5.055912 0,-0.240476 -0.01721,-0.474561 -0.03344,-0.711102 l -0.01918,-0.29949 c -0.01721,-0.295556 0.08803,-0.584717 0.291129,-0.800605 0.203102,-0.214906 0.48538,-0.336373 0.781918,-0.336373 h 15.09397 c 0.593078,0 1.074031,0.480462 1.074031,1.074523 v 6.445661 c 0,0.593077 -0.480953,1.073047 -1.074031,1.073047 z M 64.36813,77.027133 H 77.741881 V 72.730026 H 64.850559 c 0,1.450237 -0.162285,2.890146 -0.482429,4.297107 z m 0,0"
       id="path1613"
       style="fill:#070707;fill-opacity:1;stroke-width:0.12589374" /><path
       inkscape:connector-curvature="0"
       d="M 75.593327,85.621839 H 59.424342 c -0.41899,0 -0.799621,-0.243919 -0.975676,-0.623075 -0.176055,-0.380633 -0.115075,-0.828637 0.156875,-1.146322 1.531871,-1.801854 2.654588,-3.841726 3.337659,-6.065521 0.13868,-0.452431 0.555703,-0.759788 1.027313,-0.759788 h 12.622814 c 0.593078,0 1.074523,0.480461 1.074523,1.074522 v 6.445661 c 0,0.594061 -0.481445,1.074523 -1.074523,1.074523 z M 61.584698,83.473285 H 74.519296 V 79.175686 H 63.747022 c -0.537016,1.519085 -1.260905,2.956536 -2.162324,4.297599 z m 0,0"
       id="path1615"
       style="fill:#070707;fill-opacity:1;stroke-width:0.12589374" /><path
       inkscape:connector-curvature="0"
       d="M 86.336096,92.067501 H 24.027547 c -0.593078,0 -1.074523,-0.480462 -1.074523,-1.074523 0,-0.594062 0.481445,-1.074031 1.074523,-1.074031 h 62.308549 c 0.593078,0 1.074523,0.479969 1.074523,1.074031 0,0.594061 -0.481445,1.074523 -1.074523,1.074523 z m 0,0"
       id="path1617"
       style="fill:#070707;fill-opacity:1;stroke-width:0.12589374" /><path
       inkscape:connector-curvature="0"
       d="M 78.816403,92.067501 H 45.513084 c -0.593078,0 -1.074031,-0.480462 -1.074031,-1.074523 0,-0.594062 0.480953,-1.074031 1.074031,-1.074031 5.040667,0 9.812827,-2.211992 13.091473,-6.065522 0.204086,-0.240476 0.503575,-0.379156 0.818802,-0.379156 l 19.393044,-0.001 c 0.284737,0 0.558654,0.112616 0.759297,0.314735 0.201135,0.201626 0.314734,0.473577 0.314734,0.759296 v 6.445662 c 0,0.594061 -0.480953,1.074523 -1.074031,1.074523 z M 54.36302,89.918947 h 23.378861 v -4.297108 h -17.8297 c -1.593343,1.778741 -3.477815,3.227011 -5.549161,4.297108 z m 0,0"
       id="path1619"
       style="fill:#070707;fill-opacity:1;stroke-width:0.12589374" /><path
       inkscape:connector-curvature="0"
       d="m 50.884714,75.953102 c -0.134254,0 -0.269492,-0.02459 -0.398827,-0.07623 l -4.972803,-1.989711 -4.972803,1.989711 c -0.413581,0.163268 -0.887158,0.05803 -1.189105,-0.270967 -0.301949,-0.32752 -0.369813,-0.808966 -0.171138,-1.207301 l 5.371631,-10.742768 c 0.364403,-0.728807 1.557935,-0.728807 1.921846,0 l 5.37163,10.742768 c 0.19966,0.398335 0.132287,0.879781 -0.171136,1.207301 -0.206053,0.225723 -0.495216,0.347192 -0.789295,0.347192 z m -5.37163,-4.297108 c 0.135238,0 0.270966,0.02459 0.398828,0.07622 l 2.748023,1.099111 -3.146851,-6.293211 -3.14636,6.293211 2.748025,-1.099111 c 0.12786,-0.05164 0.263097,-0.07622 0.398335,-0.07622 z m 0,0"
       id="path1621"
       style="fill:#070707;fill-opacity:1;stroke-width:0.12589374" /><path
       inkscape:connector-curvature="0"
       d="m 45.513084,82.398763 c -0.319161,0 -0.620617,-0.14163 -0.825194,-0.385549 l -5.371139,-6.445662 c -0.220314,-0.264574 -0.300965,-0.617666 -0.215888,-0.952071 0.08459,-0.333914 0.323095,-0.605864 0.642255,-0.734708 l 5.371631,-2.148554 c 0.255721,-0.103272 0.541441,-0.103272 0.798146,0 l 5.37163,2.148554 c 0.318669,0.12786 0.558161,0.400794 0.642255,0.734708 0.0836,0.334405 0.0044,0.687497 -0.215888,0.952071 l -5.37163,6.445662 c -0.20507,0.243919 -0.507018,0.385549 -0.826178,0.385549 z m -3.599774,-7.07218 3.599774,4.319729 3.600265,-4.319729 -3.600265,-1.439417 z m 0,0"
       id="path1623"
       style="fill:#070707;fill-opacity:1;stroke-width:0.12589374" /></g></svg>