<svg enable-background="new 0 0 110.979 128.417" viewBox="0 0 110.979 128.417" xmlns="http://www.w3.org/2000/svg" xmlns:xlink="http://www.w3.org/1999/xlink"><radialGradient id="a" cx="55.6453" cy="64.4197" gradientUnits="userSpaceOnUse" r="49.6877"><stop offset="0" stop-color="#fff200"/><stop offset="1" stop-color="#009444"/></radialGradient><path d="m.023 96.266v-64l55.424-32 55.425 32v64l-55.425 32z" fill="#004f4b"/><path d="m101.645 37.85v53.14l-.01.01-.02.01-.41.24-.37.21-.62.35-4.15 2.39-.01.01-.13.08-.06.03-.55.32-.8.45-.1.06-.48.28-1.13.65-.85.49-.74.43-.24.13-.13.05-.11.07-1 .57-.03.02-2 1.15-.51.29-.14.08-.03.02-.14.08-.01.01-1.04.59-.04.03-.07.04-1.15.66-.01.01-.35.2-.1.06-.02.02h-.01l-.05.03-.37.21-1.12.65-.35.21-.05.03-.47.28-1.18.67-.08.05-.12.07-.04.03-.04.02-.02.01-.1.06-.14.08-.15.09-.03.01-.16.09v.01l-.06.04-.19.1-.15.09-.27.16-.11.06-.18.09-.02.02-.04.02-.69.39-.06.04-.24.14-.02.01-.29.17-.15.08-.22.13-.24.14h-.01l-.42.25-.29.17-.03.02-.3.17-1.36.79-.5.29-.25.14-.7.4-.03.02h-.01l-.31.18-.05.03-.24.15-.84.48-.63.36-.06.03-.5.29c-.01.01-.01.01-.01 0l-.53.31-.29.17-.76.44-.05.03-.05.03-.03.01c0 .01-.01.01-.01.01l-.02.02-.25.14-1 .58-.17.1-.04.02-.38.22-1.42.82-.36.21-.09.05-.24.14-.8.46-.26.15-.28.16-.01.01-.2.12-.23.13-.35.2-.83.48-.01.01-.09.05-1.32.76-.02.01-.79.46-.61.35h-.01l-1.41.81-.02.02-.25.14-.56.32h-.01l-.13.08-.19.11-.27.16h-.01l-.2.12-.06-.03-1.14-.66-.02-.01-.2-.12-.85-.49-.03-.01-.33-.19-.01-.01-1.4-.81-.01-.01-.02-.01-1.37-.79-.03-.02h-.01l-.83-.48-.06-.04-.34-.19-.18-.11-.02-.01-.66-.38-.04-.03-.09-.05-.1-.06-.13-.07-.27-.16-.12-.07h-.01l-.72-.42-.24-.13-.39-.23-.05-.03-.03-.02-.06-.03-.28-.16-.04-.03h-.01l-1.01-.59h-.01l-.11-.07-.37-.22h-.01l-.27-.16-.62-.36-.03-.01-.06-.04-.04-.02-1.29-.75-.39-.23-.68-.39-.58-.33-.11-.06-1-.58-1.72-1c-.01-.01-.02-.02-.03-.02l-1.32-.76-3.92-2.26-.16-.09-.57-.33-.47-.27-.44-.26-.3-.17-.38-.22-.99-.58-.04-.02-2.74-1.59-.1-.06-.18-.1-.67-.38-.82-.47-.09-.05-.5-.29-.01-.01-.08-.05h-.01l-.12-.07h-.01l-.31-.18-.73-.42c-.01 0-.01 0-.02-.01l-.05-.03-.33-.19-.47-.28-1.01-.58-1.02-.59-2.11-1.23-.09-.05-.2-.12s-.01 0-.02-.01l-.28-.16-.53-.3-.82-.48-.06-.04h-.01s0 0-.01 0l-.49-.29-.7-.4-.68-.39-1.22-.71-.1-.06h-.01l-.33-.19-.41-.24h-.01l-.43-.25-.99-.57-.08-.04-.03-.02v-53.14l.78-.45 1.59-.92.36-.21 3.38-1.95 1.06-.61 5.78-3.34h.01l.91-.52 1.05-.62 1.82-1.05h.01l.87-.51 3.63-2.08.64-.38.94-.54.17-.09 1.66-.95.78-.45.38-.22.44-.26.67-.39.43-.26.52-.3.5-.28.59-.34 1.19-.68.69-.41.75-.43.65-.37h.01l.05-.03.43-.25 5.29-3.05.11-.06.08-.05.27-.16 5.52-3.19.55-.32 1.44-.83.51.3 1.09.63 2.86 1.65 3.09 1.79 2.6 1.5.22.13 4.69 2.7.98.57 5.13 2.96.91.52 1.04.61 2.3 1.31.87.5.69.4.83.48.49.28.58.34.3.17.8.46.09.06 1.81 1.04 2.16 1.24 1.12.65.5.29.04.03v.01l.26.14.66.39 1.46.84 1.94 1.12.78.44.44.25.49.28 1.45.84.17.1.85.49z" fill="url(#a)"/><path d="m55.704 11.366-46.07 26.56v53.12l1.67.96.63.37h.011l18.81 10.84 1.04.6 2.18 1.26.49.28.439.26.36.21 3.13 1.8 3.311 1.91 1.289.74v.01l12.711 7.32 46.07-26.56v-53.12zm44.209 78.61-44.209 25.49-12.51-7.21-31.701-18.28v-50.97l44.211-25.49 44.209 25.49z" opacity=".13"/><g transform="matrix(.14305522 0 0 .14305522 12.945226 28.267162)"><path d="m440.347 346.057c-3.007 5.809-6.252 11.46-9.735 16.951 11.403 42.501 51.271 63.514 51.271 63.514 31.11-61.018-17.279-154.267-17.96-155.584-3.517 26.809-11.652 52.121-23.576 75.119z" fill="#3eadad"/><path d="m463.923 270.937c-1.424 10.853-3.617 21.456-6.499 31.764 10.776 29.998 22.077 75.814 9.01 113.143 8.718 7.124 15.449 10.678 15.449 10.678 31.111-61.018-17.279-154.269-17.96-155.585z" fill="#8eefef"/><path d="m440.33 380.482h.011c-2.998 5.808-6.252 11.46-9.727 16.945-8.728 13.791-18.888 26.583-30.281 38.154-.011 0-.011.011-.022.011-41.396 42.063-99.061 68.08-163.032 68.08-79.684 0-128.731-35.489-154.06-93.409h.011c32.535 10.815 58.663 12.548 80.694 8.65 26.861-4.741 47.615-17.856 66.381-33.035 1.299 11.415 3.787 22.975 7.962 34.101 0 0 55.254-34.379 63.138-89.467h.011c13.059-6.485 27.483-10.549 44.306-10.549 98.816.001 94.608 60.519 94.608 60.519z" fill="#edeae4"/><path d="m400.31 435.592c-41.396 42.063-99.061 68.08-163.032 68.08-79.684 0-128.731-35.489-154.06-93.408h.011c32.535 10.815 58.663 12.548 80.694 8.65.001 0 99.451 79.595 236.387 16.678z" fill="#d3d1cd"/><path d="m465.892 275.059c0 10.271-.666 20.398-1.965 30.303-3.52 26.806-11.659 52.123-23.585 75.12h-.011s1.499-21.553-18.289-38.931c-13.369-11.748-36.466-21.587-76.319-21.587-16.823 0-31.247 4.064-44.306 10.549h-.011c-7.884 55.088-63.138 89.467-63.138 89.467-4.175-11.126-6.663-22.686-7.962-34.101-34.156 27.627-74.853 48.392-147.075 24.385h-.011c-1.932-4.431-3.731-8.983-5.397-13.669-11.071-31.136-16.134-67.802-16.134-108.288-66.604-28.916-34.069-100.882-34.069-100.882 48.203 21.686 62.65 72.288 62.65 72.288 0-48.192 57.842-84.336 57.842-84.336 24.096 72.288-33.735 112.93-33.735 112.93s45.461 100.959 93.286-3.387c0-.011 0-.011 0-.011 2.643-5.752 5.286-12.115 7.928-19.166 3.809-10.16 6.962-22.331 9.561-35.678 1.965-10.038 3.62-20.754 5.008-31.758 8.661-68.48 72.322-104.335 129.542-93.775h.011c5.597 1.022 11.126 2.498 16.534 4.431l-11.26 15.457c-11.16 15.313-3.065 37.166 15.413 41.296.233.056.466.111.711.155 9.361 1.932 18.6-1.588 24.585-8.361 2.632-2.965 4.63-6.563 5.741-10.593l1.754-6.385 1.866-6.785.322.089c5.685 5.741 10.927 12.292 15.579 19.699 22.142 35.211 34.934 76.863 34.934 121.524z" fill="#52cbce"/><path d="m465.892 275.059c0 10.271-.666 20.398-1.965 30.303-3.52 26.806-11.659 52.123-23.585 75.12h-.011s1.499-21.553-18.289-38.931c40.219-78.84-16.345-184.041-16.345-184.041 2.632-2.965 4.63-6.563 5.741-10.593l1.754-6.385 1.865-6.785.322.089c5.685 5.741 10.927 12.292 15.579 19.699 22.142 35.211 34.934 76.863 34.934 121.524z" fill="#8eefef"/><path d="m207.664 284.919c-.133 1.455-11.471 125.555-129.841 111.675-11.071-31.136-16.134-67.802-16.134-108.288-66.604-28.915-34.069-100.881-34.069-100.881 48.203 21.686 62.65 72.288 62.65 72.288 0-48.192 57.842-84.336 57.842-84.336 24.096 72.288-33.735 112.93-33.735 112.93s45.461 100.959 93.287-3.388z" fill="#3eadad"/><path d="m449.562 8.332-36.371 132.198-1.753 6.387c-3.367 12.238-14.913 20.412-27.256 19.402-1.026-.085-2.042-.231-3.066-.44-.243-.049-.476-.103-.726-.162-18.47-4.126-26.566-25.985-15.406-41.298z" fill="#f9d780"/><path d="m449.562 8.332-36.371 132.198-1.753 6.387c-3.367 12.238-14.913 20.412-27.256 19.402z" fill="#f9e9c7"/><path d="m495.663 335.662c-6.158-28.076-16.521-52.115-21.456-62.645-.375-43.996-12.864-86.8-36.195-123.921-4.035-6.412-8.611-12.396-13.625-17.858l33.202-120.7c1.067-3.879-.791-7.965-4.415-9.712s-7.978-.652-10.347 2.598l-69.762 95.761c-25.54-7.582-53.238-6.248-78.689 3.926-4.271 1.708-6.349 6.554-4.642 10.824 1.301 3.257 4.43 5.239 7.735 5.239 1.028 0 2.075-.192 3.089-.597 20.043-8.014 41.663-9.667 61.979-4.944l-4.282 5.877c-6.931 9.51-8.588 21.769-4.433 32.792 4.126 10.944 13.379 18.997 24.655 21.518.335.08.67.157 1.004.222 2.253.46 4.505.682 6.73.682 14.61 0 28.017-9.57 32.737-23.988 1.74 2.33 3.397 4.741 4.961 7.227 22.017 35.03 33.656 75.521 33.656 117.092 0 9.804-.641 19.634-1.903 29.221-2.293 17.475-6.631 34.461-12.945 50.742-2.583-5.303-6.271-10.903-11.534-16.272-3.219-3.284-8.493-3.337-11.777-.118-3.285 3.219-3.337 8.492-.118 11.777 11.092 11.316 12.567 23.695 12.725 27.999-2.627 4.962-5.453 9.857-8.445 14.572-40.545 64.098-110.186 102.365-186.293 102.365-38.345 0-70.582-8.6-95.817-25.562-3.818-2.566-8.991-1.551-11.558 2.266-2.566 3.818-1.551 8.992 2.266 11.557 28.031 18.84 63.395 28.395 105.109 28.395 81.85 0 156.755-41.165 200.364-110.109.535-.843 1.056-1.701 1.581-2.555 16.641 22.693 37.744 34.009 38.775 34.552 1.208.636 2.542.96 3.882.96.847 0 1.696-.129 2.518-.39 2.124-.674 3.889-2.17 4.901-4.154 12.59-24.673 14.73-56.516 6.367-94.639zm-110.793-224.391 15.31-21.016c2.066 8.105 5.562 17.13 11.467 24.486l-4.62 16.795c0 .002-.001.004-.001.007l-3.349 12.187c-14.356-15.566-17.929-27.651-18.807-32.459zm33.094-19.489c-2.825-8.107-3.721-16.37-3.999-20.449l15.465-21.229zm-35.175 65.937c-.03-.007-.082-.017-.113-.022-.115-.022-.231-.052-.348-.08-.036-.009-.079-.019-.115-.027-5.965-1.334-10.631-5.401-12.802-11.161-2.201-5.839-1.36-12.074 2.31-17.107l1.064-1.46c3.542 7.905 9.668 17.794 20.193 28.813-3.141 1.331-6.662 1.769-10.189 1.044zm95.359 256.561c-7.938-5.619-20.477-16.069-29.79-31.187 11.555-22.603 19.336-46.76 23.148-71.894 9.704 28.877 18.728 70.174 6.642 103.081z"/><path d="m99.215 423.576c15.712 3.898 29.905 5.629 42.836 5.629 34.63 0 60.27-12.338 82.208-28.194 1.557 7.7 3.634 15.024 6.213 21.89.877 2.336 2.755 4.155 5.117 4.958.873.296 1.778.443 2.678.443 1.538 0 3.065-.426 4.399-1.257 2.329-1.448 55.737-35.266 66.227-90.843 11.889-5.313 23.978-7.913 36.829-7.913 21.424 0 39.338 2.963 53.242 8.806 4.238 1.781 9.121-.211 10.904-4.452 1.781-4.241-.211-9.122-4.452-10.904-15.959-6.706-36.043-10.106-59.695-10.106-12.164 0-23.733 1.96-35.049 5.939 0-.043.002-.086.002-.129 0-4.599-3.729-8.328-8.328-8.328s-8.328 3.729-8.328 8.328c0 3.801-.265 7.664-.791 11.488-.026.133-.048.266-.068.402-5.378 37.569-35.318 65.334-50.486 77.207-1.86-6.801-3.232-14.031-4.099-21.605-5.066-44.328 8.781-86.948 9.01-87.641 1.455-4.364-.904-9.08-5.268-10.533-4.365-1.455-9.08.904-10.533 5.268-.606 1.818-14.341 43.736-10.225 90.164-34.666 27.073-71.197 40.598-132.144 21.303-12.865-31.034-19.404-69.746-19.404-115.189 0-3.317-1.968-6.317-5.011-7.639-16.524-7.176-27.643-17.874-33.047-31.8-7.147-18.415-3.025-38.71.316-49.747 37.595 21.458 49.873 62.458 49.997 62.883 1.14 3.993 5.047 6.535 9.162 5.96 4.113-.576 7.173-4.094 7.173-8.247 0-31.807 29.288-58.708 44.698-70.658 5.203 23.213 1.908 45.059-9.844 65.073-10.358 17.639-23.755 27.28-23.872 27.363-3.268 2.296-4.446 6.591-2.805 10.234.222.493 5.538 12.203 14.509 23.913 3.241 4.231 6.535 7.926 9.876 11.083-8.36-1.442-17.653-4.635-27.342-10.72-3.894-2.447-9.035-1.271-11.482 2.623-2.446 3.895-1.273 9.035 2.623 11.482 17.545 11.02 34.118 14.299 47.634 14.299 16.479 0 28.403-4.874 32.008-6.545 18.098-7.364 34.149-30.176 48.78-69.196 6.284-16.74 11.342-40.063 15.034-69.32 3.549-28.057 17.687-52.371 39.81-68.462 3.72-2.706 4.542-7.914 1.837-11.634-2.706-3.72-7.915-4.543-11.634-1.837-25.878 18.823-42.405 47.178-46.538 79.844-3.529 27.974-8.274 50.029-14.103 65.558-14.571 38.859-30.88 60.535-45.925 61.034-15.38.519-30.05-20.372-37.06-33.299 5.73-5.06 14.829-14.257 22.628-27.336 11.336-19.01 22.027-50.14 8.582-90.477-.807-2.422-2.681-4.34-5.082-5.203-2.402-.865-5.067-.579-7.232.774-2.058 1.286-41.862 26.559-56.453 64.178-9.891-17.387-27.384-39.688-56.207-52.661-4.189-1.887-9.114-.023-11.006 4.163-.682 1.509-16.561 37.338-3.658 70.779 6.478 16.79 18.915 29.841 37.007 38.858.52 47.141 7.983 87.482 22.203 119.972 8.49 19.409 19.513 36.232 32.764 50.002 1.636 1.699 3.817 2.554 6.002 2.554 2.078 0 4.159-.773 5.774-2.327 3.313-3.189 3.416-8.461.227-11.775-7.95-8.261-15.02-17.8-21.138-28.477z"/><path d="m421.636 205.387c3.846 0 7.283-2.745 8.127-6.499.804-3.578-.906-7.385-4.136-9.129-2.949-1.591-6.672-1.275-9.271.865-5.904 4.859-2.38 14.763 5.28 14.763z"/><path d="m319.35 190.384c-2.96 2.199-4.123 6.234-2.789 9.671 1.23 3.169 4.353 5.331 7.758 5.331 3.911 0 7.41-2.849 8.173-6.696 1.459-7.357-7.168-12.743-13.142-8.306z"/><path d="m386.36 226.292c0-4.599-3.729-8.328-8.328-8.328s-8.328 3.729-8.328 8.328c0 9.131-7.429 16.561-16.561 16.561s-16.56-7.429-16.56-16.561c0-4.599-3.729-8.328-8.328-8.328s-8.328 3.729-8.328 8.328c0 18.315 14.901 33.217 33.216 33.217 9.898 0 18.798-4.351 24.889-11.242 6.091 6.89 14.991 11.242 24.889 11.242 18.316 0 33.217-14.901 33.217-33.217 0-4.599-3.729-8.328-8.328-8.328s-8.328 3.729-8.328 8.328c0 9.131-7.429 16.561-16.561 16.561s-16.561-7.43-16.561-16.561z"/></g></svg>