<?xml version="1.0" encoding="UTF-8" standalone="no"?>
<!-- Generator: Adobe Illustrator 21.0.2, SVG Export Plug-In . SVG Version: 6.00 Build 0)  -->

<svg
   xmlns:dc="http://purl.org/dc/elements/1.1/"
   xmlns:cc="http://creativecommons.org/ns#"
   xmlns:rdf="http://www.w3.org/1999/02/22-rdf-syntax-ns#"
   xmlns:svg="http://www.w3.org/2000/svg"
   xmlns="http://www.w3.org/2000/svg"
   xmlns:sodipodi="http://sodipodi.sourceforge.net/DTD/sodipodi-0.dtd"
   xmlns:inkscape="http://www.inkscape.org/namespaces/inkscape"
   version="1.1"
   x="0px"
   y="0px"
   viewBox="0 0 110.979 128.417"
   enable-background="new 0 0 110.979 128.417"
   xml:space="preserve"
   id="svg925"
   sodipodi:docname="narwhal.svg"
   inkscape:version="0.92.2 5c3e80d, 2017-08-06"><metadata
     id="metadata931"><rdf:RDF><cc:Work
         rdf:about=""><dc:format>image/svg+xml</dc:format><dc:type
           rdf:resource="http://purl.org/dc/dcmitype/StillImage" /><dc:title></dc:title></cc:Work></rdf:RDF></metadata><defs
     id="defs929"><radialGradient
       gradientUnits="userSpaceOnUse"
       r="49.6877"
       cy="64.4197"
       cx="55.6453"
       id="SVGID_1_"><stop
         id="stop11"
         style="stop-color:#FFF200"
         offset="0" /><stop
         id="stop13"
         style="stop-color:#009444"
         offset="1" /></radialGradient></defs><sodipodi:namedview
     pagecolor="#ffffff"
     bordercolor="#666666"
     borderopacity="1"
     objecttolerance="10"
     gridtolerance="10"
     guidetolerance="10"
     inkscape:pageopacity="0"
     inkscape:pageshadow="2"
     inkscape:window-width="1440"
     inkscape:window-height="784"
     id="namedview927"
     showgrid="false"
     inkscape:zoom="3.6755256"
     inkscape:cx="59.299365"
     inkscape:cy="69.631705"
     inkscape:window-x="0"
     inkscape:window-y="1"
     inkscape:window-maximized="1"
     inkscape:current-layer="svg925" /><g
     id="Layer_1" /><g
     id="Layer_4" /><g
     id="Layer_63_14_"><g
       id="g8"><g
         id="g6"><polygon
           style="fill:#004f4b"
           id="polygon4"
           points="0.023,96.266 0.023,32.266 55.447,0.266 110.872,32.266 110.872,96.266 55.447,128.266 " /></g></g></g><path
     inkscape:connector-curvature="0"
     style="fill:url(#SVGID_1_)"
     id="path16"
     d="m 101.645,37.85 v 53.14 l -0.01,0.01 -0.02,0.01 -0.41,0.24 -0.37,0.21 -0.62,0.35 -4.15,2.39 -0.01,0.01 -0.13,0.08 -0.06,0.03 -0.55,0.32 -0.8,0.45 -0.1,0.06 -0.48,0.28 -1.13,0.65 -0.85,0.49 -0.74,0.43 -0.24,0.13 -0.13,0.05 -0.11,0.07 -1,0.57 -0.03,0.02 -2,1.15 -0.51,0.29 -0.14,0.08 -0.03,0.02 -0.14,0.08 -0.01,0.01 -1.04,0.59 -0.04,0.03 -0.07,0.04 -1.15,0.66 -0.01,0.01 -0.35,0.2 -0.1,0.06 -0.02,0.02 h -0.01 l -0.05,0.03 -0.37,0.21 -1.12,0.65 -0.35,0.21 -0.05,0.03 -0.47,0.28 -1.18,0.67 -0.08,0.05 -0.12,0.07 -0.04,0.03 -0.04,0.02 -0.02,0.01 -0.1,0.06 -0.14,0.08 -0.15,0.09 -0.03,0.01 -0.16,0.09 v 0.01 l -0.06,0.04 -0.19,0.1 -0.15,0.09 -0.27,0.16 -0.11,0.06 -0.18,0.09 -0.02,0.02 -0.04,0.02 -0.69,0.39 -0.06,0.04 -0.24,0.14 -0.02,0.01 -0.29,0.17 -0.15,0.08 -0.22,0.13 -0.24,0.14 h -0.01 l -0.42,0.25 -0.29,0.17 -0.03,0.02 -0.3,0.17 -1.36,0.79 -0.5,0.29 -0.25,0.14 -0.7,0.4 -0.03,0.02 h -0.01 l -0.31,0.18 -0.05,0.03 -0.24,0.15 -0.84,0.48 -0.63,0.36 -0.06,0.03 -0.5,0.29 c -0.01,0.01 -0.01,0.01 -0.01,0 l -0.53,0.31 -0.29,0.17 -0.76,0.44 -0.05,0.03 -0.05,0.03 -0.03,0.01 c 0,0.01 -0.01,0.01 -0.01,0.01 l -0.02,0.02 -0.25,0.14 -1,0.58 -0.17,0.1 -0.04,0.02 -0.38,0.22 -1.42,0.82 -0.36,0.21 -0.09,0.05 -0.24,0.14 -0.8,0.46 -0.26,0.15 -0.28,0.16 -0.01,0.01 -0.2,0.12 -0.23,0.13 -0.35,0.2 -0.83,0.48 -0.01,0.01 -0.09,0.05 -1.32,0.76 -0.02,0.01 -0.79,0.46 -0.61,0.35 h -0.01 l -1.41,0.81 -0.02,0.02 -0.25,0.14 -0.56,0.32 h -0.01 l -0.13,0.08 -0.19,0.11 -0.27,0.16 h -0.01 l -0.2,0.12 -0.06,-0.03 -1.14,-0.66 -0.02,-0.01 -0.2,-0.12 -0.85,-0.49 -0.03,-0.01 -0.33,-0.19 -0.01,-0.01 -1.4,-0.81 -0.01,-0.01 -0.02,-0.01 -1.37,-0.79 -0.03,-0.02 h -0.01 l -0.83,-0.48 -0.06,-0.04 -0.34,-0.19 -0.18,-0.11 -0.02,-0.01 -0.66,-0.38 -0.04,-0.03 -0.09,-0.05 -0.1,-0.06 -0.13,-0.07 -0.27,-0.16 -0.12,-0.07 h -0.01 l -0.72,-0.42 -0.24,-0.13 -0.39,-0.23 -0.05,-0.03 -0.03,-0.02 -0.06,-0.03 -0.28,-0.16 -0.04,-0.03 h -0.01 l -1.01,-0.59 h -0.01 l -0.11,-0.07 -0.37,-0.22 h -0.01 l -0.27,-0.16 -0.62,-0.36 -0.03,-0.01 -0.06,-0.04 -0.04,-0.02 -1.29,-0.75 -0.39,-0.23 -0.68,-0.39 -0.58,-0.33 -0.11,-0.06 -1,-0.58 -1.72,-1 c -0.01,-0.01 -0.02,-0.02 -0.03,-0.02 l -1.32,-0.76 -3.92,-2.26 -0.16,-0.09 -0.57,-0.33 -0.47,-0.27 -0.44,-0.26 -0.3,-0.17 -0.38,-0.22 -0.99,-0.58 -0.04,-0.02 -2.74,-1.59 -0.1,-0.06 -0.18,-0.1 -0.67,-0.38 -0.82,-0.47 -0.09,-0.05 -0.5,-0.29 -0.01,-0.01 -0.08,-0.05 h -0.01 l -0.12,-0.07 h -0.01 l -0.31,-0.18 -0.73,-0.42 c -0.01,0 -0.01,0 -0.02,-0.01 l -0.05,-0.03 -0.33,-0.19 -0.47,-0.28 -1.01,-0.58 -1.02,-0.59 -2.11,-1.23 -0.09,-0.05 -0.2,-0.12 c 0,0 -0.01,0 -0.02,-0.01 l -0.28,-0.16 -0.53,-0.3 -0.82,-0.48 -0.06,-0.04 h -0.01 c 0,0 0,0 -0.01,0 l -0.49,-0.29 -0.7,-0.4 -0.68,-0.39 -1.22,-0.71 -0.1,-0.06 h -0.01 l -0.33,-0.19 -0.41,-0.24 h -0.01 l -0.43,-0.25 -0.99,-0.57 -0.08,-0.04 -0.03,-0.02 V 37.85 l 0.78,-0.45 1.59,-0.92 0.36,-0.21 3.38,-1.95 1.06,-0.61 5.78,-3.34 h 0.01 l 0.91,-0.52 1.05,-0.62 1.82,-1.05 h 0.01 l 0.87,-0.51 3.63,-2.08 0.64,-0.38 0.94,-0.54 0.17,-0.09 1.66,-0.95 0.78,-0.45 0.38,-0.22 0.44,-0.26 0.67,-0.39 0.43,-0.26 0.52,-0.3 0.5,-0.28 0.59,-0.34 1.19,-0.68 0.69,-0.41 0.75,-0.43 0.65,-0.37 h 0.01 l 0.05,-0.03 0.43,-0.25 5.29,-3.05 0.11,-0.06 0.08,-0.05 0.27,-0.16 5.52,-3.19 0.55,-0.32 1.44,-0.83 0.51,0.3 1.09,0.63 2.86,1.65 3.09,1.79 2.6,1.5 0.22,0.13 4.69,2.7 0.98,0.57 5.13,2.96 0.91,0.52 1.04,0.61 2.3,1.31 0.87,0.5 0.69,0.4 0.83,0.48 0.49,0.28 0.58,0.34 0.3,0.17 0.8,0.46 0.09,0.06 1.81,1.04 2.16,1.24 1.12,0.65 0.5,0.29 0.04,0.03 v 0.01 l 0.26,0.14 0.66,0.39 1.46,0.84 1.94,1.12 0.78,0.44 0.44,0.25 0.49,0.28 1.45,0.84 0.17,0.1 0.85,0.49 z" /><g
     id="Layer_2_11_"><g
       id="Layer_16_11_"><path
         style="opacity:0.12999998"
         inkscape:connector-curvature="0"
         id="path136"
         d="m 55.704,11.366 -46.07,26.56 v 53.12 l 1.67,0.96 0.63,0.37 h 0.011 l 18.81,10.84 1.04,0.6 2.18,1.26 0.49,0.28 0.439,0.26 0.36,0.21 3.13,1.8 3.311,1.91 1.289,0.74 v 0.01 l 12.711,7.32 46.07,-26.56 v -53.12 z m 44.209,78.61 -44.209,25.49 -12.51,-7.21 -31.701,-18.28 v -50.97 l 44.211,-25.49 44.209,25.49 z"
         enable-background="new    " /></g></g><g
     id="g2397"
     transform="matrix(0.14305522,0,0,0.14305522,12.945226,28.267162)"><path
       id="path2303"
       d="m 440.347,346.057 c -3.007,5.809 -6.252,11.46 -9.735,16.951 11.403,42.501 51.271,63.514 51.271,63.514 31.11,-61.018 -17.279,-154.267 -17.96,-155.584 -3.517,26.809 -11.652,52.121 -23.576,75.119 z"
       style="fill:#3eadad"
       inkscape:connector-curvature="0" /><path
       id="path2305"
       d="m 463.923,270.937 c -1.424,10.853 -3.617,21.456 -6.499,31.764 10.776,29.998 22.077,75.814 9.01,113.143 8.718,7.124 15.449,10.678 15.449,10.678 31.111,-61.018 -17.279,-154.269 -17.96,-155.585 z"
       style="fill:#8eefef"
       inkscape:connector-curvature="0" /><path
       id="path2307"
       d="m 440.33,380.482 h 0.011 c -2.998,5.808 -6.252,11.46 -9.727,16.945 -8.728,13.791 -18.888,26.583 -30.281,38.154 -0.011,0 -0.011,0.011 -0.022,0.011 -41.396,42.063 -99.061,68.08 -163.032,68.08 -79.684,0 -128.731,-35.489 -154.06,-93.409 h 0.011 c 32.535,10.815 58.663,12.548 80.694,8.65 26.861,-4.741 47.615,-17.856 66.381,-33.035 1.299,11.415 3.787,22.975 7.962,34.101 0,0 55.254,-34.379 63.138,-89.467 h 0.011 c 13.059,-6.485 27.483,-10.549 44.306,-10.549 98.816,10e-4 94.608,60.519 94.608,60.519 z"
       style="fill:#edeae4"
       inkscape:connector-curvature="0" /><path
       id="path2309"
       d="m 400.31,435.592 c -41.396,42.063 -99.061,68.08 -163.032,68.08 -79.684,0 -128.731,-35.489 -154.06,-93.408 h 0.011 c 32.535,10.815 58.663,12.548 80.694,8.65 0.001,0 99.451,79.595 236.387,16.678 z"
       style="fill:#d3d1cd"
       inkscape:connector-curvature="0" /><path
       id="path2311"
       d="m 465.892,275.059 c 0,10.271 -0.666,20.398 -1.965,30.303 -3.52,26.806 -11.659,52.123 -23.585,75.12 h -0.011 c 0,0 1.499,-21.553 -18.289,-38.931 -13.369,-11.748 -36.466,-21.587 -76.319,-21.587 -16.823,0 -31.247,4.064 -44.306,10.549 h -0.011 c -7.884,55.088 -63.138,89.467 -63.138,89.467 -4.175,-11.126 -6.663,-22.686 -7.962,-34.101 -34.156,27.627 -74.853,48.392 -147.075,24.385 H 83.22 C 81.288,405.833 79.489,401.281 77.823,396.595 66.752,365.459 61.689,328.793 61.689,288.307 -4.915,259.391 27.62,187.425 27.62,187.425 c 48.203,21.686 62.65,72.288 62.65,72.288 0,-48.192 57.842,-84.336 57.842,-84.336 24.096,72.288 -33.735,112.93 -33.735,112.93 0,0 45.461,100.959 93.286,-3.387 0,-0.011 0,-0.011 0,-0.011 2.643,-5.752 5.286,-12.115 7.928,-19.166 3.809,-10.16 6.962,-22.331 9.561,-35.678 1.965,-10.038 3.62,-20.754 5.008,-31.758 8.661,-68.48 72.322,-104.335 129.542,-93.775 h 0.011 c 5.597,1.022 11.126,2.498 16.534,4.431 l -11.26,15.457 c -11.16,15.313 -3.065,37.166 15.413,41.296 0.233,0.056 0.466,0.111 0.711,0.155 9.361,1.932 18.6,-1.588 24.585,-8.361 2.632,-2.965 4.63,-6.563 5.741,-10.593 l 1.754,-6.385 1.866,-6.785 0.322,0.089 c 5.685,5.741 10.927,12.292 15.579,19.699 22.142,35.211 34.934,76.863 34.934,121.524 z"
       style="fill:#52cbce"
       inkscape:connector-curvature="0" /><path
       id="path2313"
       d="m 465.892,275.059 c 0,10.271 -0.666,20.398 -1.965,30.303 -3.52,26.806 -11.659,52.123 -23.585,75.12 h -0.011 c 0,0 1.499,-21.553 -18.289,-38.931 40.219,-78.84 -16.345,-184.041 -16.345,-184.041 2.632,-2.965 4.63,-6.563 5.741,-10.593 l 1.754,-6.385 1.865,-6.785 0.322,0.089 c 5.685,5.741 10.927,12.292 15.579,19.699 22.142,35.211 34.934,76.863 34.934,121.524 z"
       style="fill:#8eefef"
       inkscape:connector-curvature="0" /><path
       id="path2315"
       d="M 207.664,284.919 C 207.531,286.374 196.193,410.474 77.823,396.594 66.752,365.458 61.689,328.792 61.689,288.306 -4.915,259.391 27.62,187.425 27.62,187.425 c 48.203,21.686 62.65,72.288 62.65,72.288 0,-48.192 57.842,-84.336 57.842,-84.336 24.096,72.288 -33.735,112.93 -33.735,112.93 0,0 45.461,100.959 93.287,-3.388 z"
       style="fill:#3eadad"
       inkscape:connector-curvature="0" /><path
       id="path2317"
       d="m 449.562,8.332 -36.371,132.198 -1.753,6.387 c -3.367,12.238 -14.913,20.412 -27.256,19.402 -1.026,-0.085 -2.042,-0.231 -3.066,-0.44 -0.243,-0.049 -0.476,-0.103 -0.726,-0.162 -18.47,-4.126 -26.566,-25.985 -15.406,-41.298 z"
       style="fill:#f9d780"
       inkscape:connector-curvature="0" /><path
       id="path2319"
       d="m 449.562,8.332 -36.371,132.198 -1.753,6.387 c -3.367,12.238 -14.913,20.412 -27.256,19.402 z"
       style="fill:#f9e9c7"
       inkscape:connector-curvature="0" /><path
       id="path2321"
       d="m 495.663,335.662 c -6.158,-28.076 -16.521,-52.115 -21.456,-62.645 -0.375,-43.996 -12.864,-86.8 -36.195,-123.921 -4.035,-6.412 -8.611,-12.396 -13.625,-17.858 l 33.202,-120.7 c 1.067,-3.879 -0.791,-7.965 -4.415,-9.712 -3.624,-1.747 -7.978,-0.652 -10.347,2.598 l -69.762,95.761 c -25.54,-7.582 -53.238,-6.248 -78.689,3.926 -4.271,1.708 -6.349,6.554 -4.642,10.824 1.301,3.257 4.43,5.239 7.735,5.239 1.028,0 2.075,-0.192 3.089,-0.597 20.043,-8.014 41.663,-9.667 61.979,-4.944 l -4.282,5.877 c -6.931,9.51 -8.588,21.769 -4.433,32.792 4.126,10.944 13.379,18.997 24.655,21.518 0.335,0.08 0.67,0.157 1.004,0.222 2.253,0.46 4.505,0.682 6.73,0.682 14.61,0 28.017,-9.57 32.737,-23.988 1.74,2.33 3.397,4.741 4.961,7.227 22.017,35.03 33.656,75.521 33.656,117.092 0,9.804 -0.641,19.634 -1.903,29.221 -2.293,17.475 -6.631,34.461 -12.945,50.742 -2.583,-5.303 -6.271,-10.903 -11.534,-16.272 -3.219,-3.284 -8.493,-3.337 -11.777,-0.118 -3.285,3.219 -3.337,8.492 -0.118,11.777 11.092,11.316 12.567,23.695 12.725,27.999 -2.627,4.962 -5.453,9.857 -8.445,14.572 -40.545,64.098 -110.186,102.365 -186.293,102.365 -38.345,0 -70.582,-8.6 -95.817,-25.562 -3.818,-2.566 -8.991,-1.551 -11.558,2.266 -2.566,3.818 -1.551,8.992 2.266,11.557 28.031,18.84 63.395,28.395 105.109,28.395 81.85,0 156.755,-41.165 200.364,-110.109 0.535,-0.843 1.056,-1.701 1.581,-2.555 16.641,22.693 37.744,34.009 38.775,34.552 1.208,0.636 2.542,0.96 3.882,0.96 0.847,0 1.696,-0.129 2.518,-0.39 2.124,-0.674 3.889,-2.17 4.901,-4.154 12.59,-24.673 14.73,-56.516 6.367,-94.639 z M 384.87,111.271 400.18,90.255 c 2.066,8.105 5.562,17.13 11.467,24.486 l -4.62,16.795 c 0,0.002 -10e-4,0.004 -10e-4,0.007 l -3.349,12.187 C 389.321,128.164 385.748,116.079 384.87,111.271 Z m 33.094,-19.489 c -2.825,-8.107 -3.721,-16.37 -3.999,-20.449 L 429.43,50.104 Z m -35.175,65.937 c -0.03,-0.007 -0.082,-0.017 -0.113,-0.022 -0.115,-0.022 -0.231,-0.052 -0.348,-0.08 -0.036,-0.009 -0.079,-0.019 -0.115,-0.027 -5.965,-1.334 -10.631,-5.401 -12.802,-11.161 -2.201,-5.839 -1.36,-12.074 2.31,-17.107 l 1.064,-1.46 c 3.542,7.905 9.668,17.794 20.193,28.813 -3.141,1.331 -6.662,1.769 -10.189,1.044 z m 95.359,256.561 c -7.938,-5.619 -20.477,-16.069 -29.79,-31.187 11.555,-22.603 19.336,-46.76 23.148,-71.894 9.704,28.877 18.728,70.174 6.642,103.081 z"
       inkscape:connector-curvature="0" /><path
       id="path2323"
       d="m 99.215,423.576 c 15.712,3.898 29.905,5.629 42.836,5.629 34.63,0 60.27,-12.338 82.208,-28.194 1.557,7.7 3.634,15.024 6.213,21.89 0.877,2.336 2.755,4.155 5.117,4.958 0.873,0.296 1.778,0.443 2.678,0.443 1.538,0 3.065,-0.426 4.399,-1.257 2.329,-1.448 55.737,-35.266 66.227,-90.843 11.889,-5.313 23.978,-7.913 36.829,-7.913 21.424,0 39.338,2.963 53.242,8.806 4.238,1.781 9.121,-0.211 10.904,-4.452 1.781,-4.241 -0.211,-9.122 -4.452,-10.904 -15.959,-6.706 -36.043,-10.106 -59.695,-10.106 -12.164,0 -23.733,1.96 -35.049,5.939 0,-0.043 0.002,-0.086 0.002,-0.129 0,-4.599 -3.729,-8.328 -8.328,-8.328 -4.599,0 -8.328,3.729 -8.328,8.328 0,3.801 -0.265,7.664 -0.791,11.488 -0.026,0.133 -0.048,0.266 -0.068,0.402 -5.378,37.569 -35.318,65.334 -50.486,77.207 -1.86,-6.801 -3.232,-14.031 -4.099,-21.605 -5.066,-44.328 8.781,-86.948 9.01,-87.641 1.455,-4.364 -0.904,-9.08 -5.268,-10.533 -4.365,-1.455 -9.08,0.904 -10.533,5.268 -0.606,1.818 -14.341,43.736 -10.225,90.164 -34.666,27.073 -71.197,40.598 -132.144,21.303 C 76.549,372.462 70.01,333.75 70.01,288.307 c 0,-3.317 -1.968,-6.317 -5.011,-7.639 -16.524,-7.176 -27.643,-17.874 -33.047,-31.8 -7.147,-18.415 -3.025,-38.71 0.316,-49.747 37.595,21.458 49.873,62.458 49.997,62.883 1.14,3.993 5.047,6.535 9.162,5.96 4.113,-0.576 7.173,-4.094 7.173,-8.247 0,-31.807 29.288,-58.708 44.698,-70.658 5.203,23.213 1.908,45.059 -9.844,65.073 -10.358,17.639 -23.755,27.28 -23.872,27.363 -3.268,2.296 -4.446,6.591 -2.805,10.234 0.222,0.493 5.538,12.203 14.509,23.913 3.241,4.231 6.535,7.926 9.876,11.083 -8.36,-1.442 -17.653,-4.635 -27.342,-10.72 -3.894,-2.447 -9.035,-1.271 -11.482,2.623 -2.446,3.895 -1.273,9.035 2.623,11.482 17.545,11.02 34.118,14.299 47.634,14.299 16.479,0 28.403,-4.874 32.008,-6.545 18.098,-7.364 34.149,-30.176 48.78,-69.196 6.284,-16.74 11.342,-40.063 15.034,-69.32 3.549,-28.057 17.687,-52.371 39.81,-68.462 3.72,-2.706 4.542,-7.914 1.837,-11.634 -2.706,-3.72 -7.915,-4.543 -11.634,-1.837 -25.878,18.823 -42.405,47.178 -46.538,79.844 -3.529,27.974 -8.274,50.029 -14.103,65.558 -14.571,38.859 -30.88,60.535 -45.925,61.034 -15.38,0.519 -30.05,-20.372 -37.06,-33.299 5.73,-5.06 14.829,-14.257 22.628,-27.336 11.336,-19.01 22.027,-50.14 8.582,-90.477 -0.807,-2.422 -2.681,-4.34 -5.082,-5.203 -2.402,-0.865 -5.067,-0.579 -7.232,0.774 -2.058,1.286 -41.862,26.559 -56.453,64.178 C 77.356,215.101 59.863,192.8 31.04,179.827 c -4.189,-1.887 -9.114,-0.023 -11.006,4.163 -0.682,1.509 -16.561,37.338 -3.658,70.779 6.478,16.79 18.915,29.841 37.007,38.858 0.52,47.141 7.983,87.482 22.203,119.972 8.49,19.409 19.513,36.232 32.764,50.002 1.636,1.699 3.817,2.554 6.002,2.554 2.078,0 4.159,-0.773 5.774,-2.327 3.313,-3.189 3.416,-8.461 0.227,-11.775 -7.95,-8.261 -15.02,-17.8 -21.138,-28.477 z"
       inkscape:connector-curvature="0" /><path
       id="path2325"
       d="m 421.636,205.387 c 3.846,0 7.283,-2.745 8.127,-6.499 0.804,-3.578 -0.906,-7.385 -4.136,-9.129 -2.949,-1.591 -6.672,-1.275 -9.271,0.865 -5.904,4.859 -2.38,14.763 5.28,14.763 z"
       inkscape:connector-curvature="0" /><path
       id="path2327"
       d="m 319.35,190.384 c -2.96,2.199 -4.123,6.234 -2.789,9.671 1.23,3.169 4.353,5.331 7.758,5.331 3.911,0 7.41,-2.849 8.173,-6.696 1.459,-7.357 -7.168,-12.743 -13.142,-8.306 z"
       inkscape:connector-curvature="0" /><path
       id="path2329"
       d="m 386.36,226.292 c 0,-4.599 -3.729,-8.328 -8.328,-8.328 -4.599,0 -8.328,3.729 -8.328,8.328 0,9.131 -7.429,16.561 -16.561,16.561 -9.132,0 -16.56,-7.429 -16.56,-16.561 0,-4.599 -3.729,-8.328 -8.328,-8.328 -4.599,0 -8.328,3.729 -8.328,8.328 0,18.315 14.901,33.217 33.216,33.217 9.898,0 18.798,-4.351 24.889,-11.242 6.091,6.89 14.991,11.242 24.889,11.242 18.316,0 33.217,-14.901 33.217,-33.217 0,-4.599 -3.729,-8.328 -8.328,-8.328 -4.599,0 -8.328,3.729 -8.328,8.328 0,9.131 -7.429,16.561 -16.561,16.561 -9.132,0 -16.561,-7.43 -16.561,-16.561 z"
       inkscape:connector-curvature="0" /><g
       id="g2331" /><g
       id="g2333" /><g
       id="g2335" /><g
       id="g2337" /><g
       id="g2339" /><g
       id="g2341" /><g
       id="g2343" /><g
       id="g2345" /><g
       id="g2347" /><g
       id="g2349" /><g
       id="g2351" /><g
       id="g2353" /><g
       id="g2355" /><g
       id="g2357" /><g
       id="g2359" /></g></svg>