<svg xmlns="http://www.w3.org/2000/svg" viewBox="0 0 1325.06 1530.07"><defs><style>.cls-1{fill:#fccf0e;}.cls-2{fill:#fff5cc;stroke:#150a3a;stroke-width:28px;}.cls-18,.cls-2,.cls-23,.cls-5{stroke-miterlimit:10;}.cls-3{fill:#15003e;}.cls-4{fill:#fff;}.cls-18,.cls-19,.cls-5{fill:#150a3a;}.cls-18,.cls-5{stroke:#000002;stroke-width:4px;}.cls-5{opacity:0.13;isolation:isolate;}.cls-6{fill:#e17b59;}.cls-7{fill:#e7ebef;}.cls-8{fill:#1c1142;}.cls-9{fill:#f8f7f9;}.cls-10{fill:#3eb877;}.cls-11{fill:#ecf2ed;}.cls-12{fill:#fbfbfc;}.cls-13{fill:#5ebc89;}.cls-14{fill:#faf9fa;}.cls-15{fill:#83cda4;}.cls-16{fill:#fbfdfc;}.cls-17{fill:#18113f;}.cls-20{fill:#070502;}.cls-21{fill:#b6aca9;}.cls-22{fill:#1b5583;}.cls-23,.cls-25{fill:#53321b;}.cls-23{stroke:#000;}.cls-24{fill:#0c0723;}</style></defs><title>Asset 3</title><g id="Layer_2" data-name="Layer 2"><g id="Layer_1-2" data-name="Layer 1"><g id="Layer_63" data-name="Layer 63"><polygon class="cls-1" points="1325.06 382.52 1325.06 1147.55 662.59 1530.07 132.45 1224.05 130.06 1222.62 0 1147.55 0 382.52 662.59 0 1325.06 382.52"/></g><path class="cls-2" d="M1218.79,449.7v635.21l-.12.12-13,7.41-3.94,2.27-1.56.84-10.52,6.1-37.53,21.63-2.39,1.44L1126.63,1138l-1.91,1.07-17.7,10.28-5.61,3.23-1.68,1-5.62,3.22-2.86,1.56-.36.12-1.2.47-1.31.84-36.22,20.8-9.8,5.62-12.56,7.17-.47.36-14.71,8.49-5.38,3.1-.24.24h-.11l-18.41,10.64-10.4,6.22L965,1231l-.6.36-.84.48-1,.6-4.9,2.87-.36.12-.59.36-.6.23-.72.48v.12l-9.32,5.38-2.15,1.08-.24.24-.48.23-12.07,6.94-1.68,1-1.79,1.08-.6.36L923.3,1255l-2.87,1.67h-.12l-.84.48-7.65,4.54-2.39,1.44-3.94,2.27-3,1.67a.12.12,0,0,1-.12.12l-5.62,3.23-5,2.87-.48.36-6.81,3.94-27.85,16-7.54,4.3-.71.36-41.84,24.27-.24.12-.12.12-4.78,2.75-4.18,2.39-6,3.46-1.67,1L774.59,1341l-11.71,6.81-4.66,2.63-.12.12-5.14,3-4.78,2.75L720,1372.51l-4.31,2.51-.47.24-2.16,1.2-6,3.46-22.36,12.91-6.69,3.83h-.12l-3.83,2.27-5.73,3.35-1.68-1-15.3-8.84-10.16-5.86-.36-.12L630,1380.16l-2-1.19-.59-.36-7.3-4.18-2-1.2L577.84,1350l-.48-.36-24.74-14.22-56.78-33-7.3-4.19-8.24-4.66-11.12-6.46-2.63-1.43-1.08-.72-.35-.24-26.66-15.42-14.59-8.48-4.42-2.51-4.66-2.63-2.75-1.56-3.11-1.79-2.87-1.79L405,1250l-4.19-2.39-.95-.6-1-.48-.48-.36-15.54-8.84-.59-.36-1.8-1-4.42-2.63-20.44-11.83-30-17.45-25-14.35-9.8-5.62-1.07-.59-6-3.47-.12-.12-2.51-1.43H281l-12.43-7.18c-.12-.12-.12-.12-.24-.12l-22.23-12.91-12.2-7-15.9-9.2-8.6-5.14-.48-.24-.24-.12-3.47-2a.37.37,0,0,1-.24-.12l-3.1-1.8-.24-.12-39.45-22.71-40.76-23.55-1.08-.59-1-.48-.36-.24V449.69l67.66-39,9.2-5.5H196l3-1.67,6.93-3.94,20.92-12.08L254,371.87l9.81-5.73,1.79-1.08,24.74-14.22L302.07,344l12.07-7,5-2.87,5.38-3.11,3-1.67h.12l6.81-3.95,38.61-22.23,18.89-11,2-1.07,19.85-11.36,9.32-5.38,4.54-2.63,5.26-3.11,13.15-7.77,6.22-3.58,27.25-15.54,8.25-4.9,16.73-9.56h.12l.6-.36,68.38-39.45,2.27-1.32,3.22-1.91,72.56-42,17.22-9.92,12.67,7.41,77.58,44.83,31.08,17.93,47.21,27.26,16,9.2,79.37,45.78L945.3,292l27.49,15.66,10.4,6,18.17,10.52,16.37,9.44,9.57,5.5,1.07.72L1050,352.27l45.18,26.06.48.36v.12l3.11,1.67,3.11,1.91,4.78,2.75,11,6.34,6.45,3.7.24.12,23,13.27,9.33,5.26,5.25,3,23.19,13.39Z"/><path class="cls-3" d="M825.46,1375.56l18.71-10.75.85,1.47a36,36,0,0,1,4,9.74,22.52,22.52,0,0,1-.06,9.1,23.65,23.65,0,0,1-12,16.32A25.42,25.42,0,0,1,816.8,1404a27.21,27.21,0,0,1-6.21-49.89,26.74,26.74,0,0,1,11.16-3.54,33.2,33.2,0,0,1,12.69,2l-2.2,7.49q-9.84-4.21-17.83.38a18.65,18.65,0,0,0-9.21,11.91,19.1,19.1,0,0,0,2.15,15,18.43,18.43,0,0,0,12.59,9.34,18.83,18.83,0,0,0,13.65-1.8,15.68,15.68,0,0,0,7.08-8.59,14.07,14.07,0,0,0-.21-10.79L829.15,1382Z"/><rect class="cls-3" x="868.41" y="1323.79" width="7.88" height="52.26" transform="translate(-557.4 615.7) rotate(-29.95)"/><polygon class="cls-3" points="905.42 1309.21 927.78 1348.08 920.96 1352.01 898.6 1313.16 888.18 1319.14 884.48 1312.72 912.1 1296.83 915.79 1303.25 905.42 1309.21"/><path class="cls-3" d="M967.08,1268.4l4.65,8.09q-8.79-1.56-15.12,2.09a18.11,18.11,0,0,0-8.88,11.78,19.5,19.5,0,0,0,2.22,15,19,19,0,0,0,11.73,9.26,18.36,18.36,0,0,0,14.62-1.89,16.73,16.73,0,0,0,5.44-4.7,19.74,19.74,0,0,0,2-3.26,39.69,39.69,0,0,0,1.8-4.25l4.75,8.26a28.45,28.45,0,0,1-10.41,10.43,26.84,26.84,0,0,1-36.8-9.79,27,27,0,0,1-3.14-18.73c1.49-8.24,6-14.49,13.44-18.78a26.72,26.72,0,0,1,13.69-3.49"/><path class="cls-4" d="M1000.21,1266.37a25.62,25.62,0,0,1-2.44-20.44,26.75,26.75,0,0,1,12.83-16.54,27.34,27.34,0,0,1,37.11,10,25.69,25.69,0,0,1,2.56,20.59,27.63,27.63,0,0,1-32.24,19.57q-11.56-2.28-17.82-13.18m6.92-3.89a19.39,19.39,0,0,0,35.74-4.23,20.29,20.29,0,0,0-13.92-24.31,18.38,18.38,0,0,0-14.75,1.93,18.62,18.62,0,0,0-9.1,11.79,18.91,18.91,0,0,0,2,14.82"/><rect class="cls-3" x="1071.38" y="1206.9" width="7.89" height="52.24" transform="translate(-472.14 701.97) rotate(-29.97)"/><polygon class="cls-3" points="1118.32 1238.44 1090.48 1190.06 1143.41 1205.61 1125.29 1174.13 1132.11 1170.2 1159.78 1218.26 1106.89 1202.8 1125.15 1234.5 1118.32 1238.44"/><g id="Layer_2-2" data-name="Layer 2"><g id="Layer_16" data-name="Layer 16"><path class="cls-5" d="M1157.53,414.27l-6.34-3.58-8.6-5-9.21-5.38-1.31-.72-5.86-3.35-6.1-3.46-10.75-6.22-86.67-50-20.44-11.71-8.61-5-5.37-3.11-5.86-3.47-.6-.23-5-3-4.9-2.87-63.71-36.7L675.08,136.11l-6.34-3.7-5.61,3.22L458.6,253.74l-60,34.66-15.54,9-6.33,3.7-1.2.6h-.12l-3,1.79-5,3-3.58,2-3.23,1.92-2.15,1.19L340.5,322h-.12L319.1,334.18l-.12.12-6.93,4.07L303,343.51l-.12.12-.35.23-38.85,22.36h-.12l-28.45,16.37-12,6.94-35.62,20.56-50.56,29.16-18.41,10.64v635l.84.48,20.56,12,9,5.14,1.79,1,51.64,29.88,8.25,4.66,47.82,27.74,5.5,3.1,15.54,9,40.4,23.31,64.31,37.06,8.25,4.78.83.47,1.8,1,1.31.84,2.15,1.19.48.24,22.83,13.27,10.52,6,15.9,9.32,10.64,6.1,2.15,1.19,3.71,2.15,2.27,1.32,5.74,3.35,42.67,24.5,1.08.6,5.26,3.11,7.41,4.3,8.6,5h.12l6.34,3.59,18,10.4,37.89,22,53.55,30.84L666,1400.8l2.75,1.56.23-.12,2.28-1.32,1.67-1,.36-.24,3.7-2.15,21.64-12.32,1.08-.59,8.24-4.78,6-3.47,2.87-1.67,46-26.54,29.29-16.86,8.84-5.14,7.89-4.54,8-4.66,5.26-3.11,27.85-16,4.66-2.63h.12l2.75-1.67,2.51-1.43,7.53-4.31,9.57-5.5,15.06-8.72,5.5-3.23h.11l5.5-3.23.12-.12,3-1.67,6.34-3.71,4.42-2.51,4.18-2.51,6.58-3.7,2.51-1.56,3.82-2.15,5.14-2.87.24-.12.6-.35,1.55-1,2.87-1.55,45.19-26.06,4.54-2.63,13.27-7.77,35.5-20.44,18.65-10.76,102-58.81h.12l.72-.48,31.68-18.29,10.75-6.22,12.32-7.05v-635ZM1197,1072.08l-6.22,3.59-3.83,2.15-6.93,4.06-90.73,52.36-55.82,32.16-37.3,21.51-15.3,8.85-8.6,4.9-35,20.2-.83.6-1.92,1.08-2.15,1.31-6.81,3.83-10.64,6.09-2.63,1.56-.6.35L902,1242.3l-1.08.6-46.73,26.9-1,.59-9.44,5.38-1,.6-10.88,6.34-25.7,14.82-18.41,10.64-20.08,11.59-13.15,7.53-35.5,20.56-14.7,8.49-.72.48h-.24l-9,5.26-3.34,1.79-22.36,12.91L627.5,1353l-14.7-8.48-7.29-4.19-21.64-12.55-8.6-4.9-8.25-4.78-62.88-36.22-9.2-5.38-.6-.36-21.4-12.31-24.62-14.11-10.76-6.21-6.94-4.07-3-1.79-5.14-3-2.51-1.43-20.92-12.08-3.71-2.15-2.27-1.31-17.93-10.4-40.88-23.55-46.74-27-21-12.07-40.88-23.55-58.69-33.95-10.76-6.09-4.66-2.75-2.75-1.56-8-4.66V462.8l46.74-27,35.62-20.56,11.12-6.46h.12l.71-.48,38.26-22.11h.11l16.26-9.44h.12l21.4-12.32,14.94-8.6,5.14-3h.12l9.08-5.26,5.5-3.23h.12l35.62-20.56c.12-.12.12-.12.24-.12l9.33-5.38,4.18-2.39,2.39-1.43,3.47-2,2-1.2,3.23-1.79.48-.24,96-55.47,160.06-92.4,5.62-3.23,6.34,3.71L876.26,277.88l83.43,48.17.6.36,3.83,2.15,1.31.72,5.26,3.11,4.18,2.39,14.71,8.49,23.19,13.38,83.91,48.3,16.86,9.68,6.57,3.83.48.35,9.2,5.26,2.27,1.32,6.46,3.7,6.34,3.71,52.11,30v609.28Z"/></g></g><ellipse class="cls-6" cx="475.68" cy="442.19" rx="113.35" ry="118.53"/><path class="cls-7" d="M528.19,470.71c1.45-2.89,4.37-3.8,6.95-5.17,1.83-1,3.45-.38,5,.66,6.81,4.44,13.7,3.21,20.61.25,1.9-.47,3.61.16,5.3.89,3.21,1.26,5.67,1.37,5-3.28,2.17-2.06-1.34-6.19,2.73-7.56,4,4.74,6.28-1.94,9.65-1.37,9.13-12,21.9-13.52,35.59-12.47,1.77-1,3.24-.16,4.71.75a3.71,3.71,0,0,1,1.2,4.45c-3.49,3-1.54,5.06,1.27,6.78,2.51,1.54,5.5,2.1,8,3.61,5.22,3.37,13.67-.43,16.79,7.55,2.07,3.66,6,6.2,5.48,11.4-.49,4.84,1.91,4.26,5.26,2.21,5.4-3.32,11.3-5,17.71-2.94-1.79,2.32-4.14,2.87-7.85,2.09,12.05.72,18,9.89,26.05,15.48,7.17,5,12.64,12.2,20.72,16.08a7.76,7.76,0,0,1,2.05,1.4,2.23,2.23,0,0,1-.06,2.31c-13.33,4-26.86,6.4-40.88,5.37-3.8-.27-7.58,1.85-10.88,2.07-13.59.89-26.4,8.73-40.45,4.61-3.09-.9-5.22.81-6.94,2.73-8.21,9.18-17.79,7.71-27.53,3.53-4.61-2-8.66-3.46-14.15-2.66-9.18,1.32-15.23-6.64-22.77-10.3-2.07,1.41-4.38.67-6.59.74-2.37-8.62-9.51-5.47-15.12-6.11-2-2.5-4.16-4.58-7.46-5.35-2.37-.55-4.2-1.91-3.55-4.86.65-1.31,1.95-1.72,3.15-2.27-1.13.12-2.34,0-3.33.67-1.16.81-2.06,2-3.48,2.47a7.36,7.36,0,0,1-6.47-.7c-2.44-3.88-3.73-8.23-7.26-11.75-3.94-3.93-.38-12.39,4.25-11.07,7.93,2.27,11.09-1.46,14.13-7.26C525.7,472.53,527.5,472.09,528.19,470.71Z"/><path class="cls-7" d="M688.4,483.57c9.56-7.24,21.25-7.84,30.92-.89,2.82,2,4.45,2.74,7.64.82,7.29-4.38,14.91-5.11,22.63-.52,1.83,1.08,3.88,2.94,6.39.65,5.7-5.2,11.53-3.24,16.89.43,12.32,8.43,26.75,9.2,40.61,9.81,16.42.71,33.06,2.12,49.48-1.1,2.2-.43,3.89,1,7.14,3-12.56,4.26-24.27,6.93-35.89,7-20.44.17-40.66.52-60.27,7.06a6.1,6.1,0,0,1-1.75.28c-14.93.64-30.18-2.64-44.66,3.6-2.33-.74-4.87-.58-7.1-1.72l0,0c-9.48-8.61-20.93-14.79-29.7-24.28C689.56,486.5,687.65,485.81,688.4,483.57Z"/><path class="cls-7" d="M688.4,483.57c9.21,8.85,19.75,16.05,29.78,23.89a5.85,5.85,0,0,1,2.23,4.56c-11.32-.66-15.76-11.42-24.11-16.47s-13.7-14.3-25.46-16.52l8.66-2.56C684.15,476.73,684,483.06,688.4,483.57Z"/><path class="cls-7" d="M549.68,519.15c-2.92-2.45-5.83-.39-8.74,0a17.83,17.83,0,0,0-5.6,1.76c-7.89,2.92-15.42,3.22-22-3-1.3-1.22-2.59-2.69-4.54-1.92-8.84,3.47-16.46-.49-24.53-3.3-8.65-3-18.17.68-27-2.33-2.25-1.87-4.91-.8-7.37-1-4.48-.34-5.42-2.41-3.31-6.19l3.2-.21c2.09-1.08,4.34-.57,6.52-.64,2.91-.44-.6,3.41,1.74,2.84,5.69-1.39,11.29-.24,16.93.4,1.11.1-.26-1.71-.61-.58,0,.08-.29,0-.84-.22a8.17,8.17,0,0,1-2.26-1.24,2.67,2.67,0,0,1,.26-3.53c2.45-.45,5.06-.38,7.06-2.24,8-4.12,13.11-12.22,21.57-15.71l0,0c3.41-4,8.53-2,12.63-3.63a2,2,0,0,0,1.35.06c2.52-.92,5.22-1.52,7-3.85a7.78,7.78,0,0,1,7.11-4c-1.32,3.15-2.15,6.65-4.07,9.37-2.41,3.43-5.16,7.91-10.42,3.09-2.23-2-4.55-1.26-5.83,1.16s-1.86,6.49.58,7.09c7.31,1.79,5.45,7.06,5.67,11.73,2.3,2.87,5,4.82,8.91,5,3,.13,5.81,1.12,7.13,4.28.89,1.9,2.28,2.51,4.25,1.63l1.05-.22a9.8,9.8,0,0,0,2.46-.76C546.62,507.74,549.34,509.13,549.68,519.15Z"/><path class="cls-7" d="M446.55,503.17c-.75,8.81,8.42,2.85,10.68,7.18-10.12-.24-20.3.53-30.27-2a2.3,2.3,0,0,1-.07-3.39C433.38,503.73,439.9,502.73,446.55,503.17Z"/><path class="cls-7" d="M566.07,467.34l-5.71.23a29,29,0,0,1-21.33,0c-.83-1.57-2.43-1.69-3.89-2C545.73,461.31,556.13,460.35,566.07,467.34Z"/><path class="cls-7" d="M500.12,482c-6.55,6.11-12.43,13.14-21.57,15.71C484.32,490.56,490,483.28,500.12,482Z"/><path class="cls-7" d="M457.21,503.2l-7.45-.24a66.91,66.91,0,0,1,21.73-3l-.15,3.09C466.65,505.93,461.94,505.63,457.21,503.2Z"/><path class="cls-7" d="M512.77,478.46a40.13,40.13,0,0,1-12.64,3.63C502.53,474.55,508.54,479.6,512.77,478.46Z"/><path class="cls-7" d="M535.34,520.93c1.45-1.9,2.6-4.78,5.6-1.76-.81,1.68-1.87,3.1-3.82,3.57C536.52,522.14,535.93,521.53,535.34,520.93Z"/><path class="cls-7" d="M572.53,502.48c11-13.29,25.56-21.79,39.79-30.68C601.4,485.18,587.38,494.42,572.53,502.48Z"/><path class="cls-7" d="M528.35,515.58c.47-6-3.78-5.61-7.54-5.26-5.58.53-7.29-2.14-6.69-7.17l7.13,0a2.44,2.44,0,0,1,3.53.05c.29,3.05,2.4,3.73,4.92,3.5,5.6-.51,6,3,5.76,7.14A7.59,7.59,0,0,1,528.35,515.58Z"/><path class="cls-7" d="M539,467.59l21.33,0C555.59,472.68,543.84,472.69,539,467.59Z"/><path class="cls-7" d="M524.78,503.17l-3.53-.05c3.48-6.54,8.42-3,14.75-2.47C531.56,504.19,528,502.68,524.78,503.17Z"/><path class="cls-7" d="M457.21,503.2l14.13-.12c3.25.48,6.81-.84,10.77,1.79-9.76,6.5-19.29-1.3-28.5,1.18Z"/><path class="cls-7" d="M503.45,496c2.43.29,3.66,1.55,3.32,4.09a3.13,3.13,0,0,1-3.62,2.92c-3-.13-6.3,1-9.47-1.2.76-3.42,6.76-1.34,6.21-5.79A2.47,2.47,0,0,1,503.45,496Z"/><path class="cls-7" d="M506.72,513.16h-13.5C501,505.87,501,505.87,506.72,513.16Z"/><path class="cls-7" d="M503.45,496l-3.56,0c-2.05-.54-5.18,1.32-5.87-1.93-.22-1,1.87-3.54,3.11-3.69C500.88,490,502.58,492.73,503.45,496Z"/><path class="cls-7" d="M528.35,515.58a12,12,0,0,1,7.11-1.77C534.19,518.84,531.48,518,528.35,515.58Z"/><path class="cls-8" d="M395.93,823.67c.25,19.49,12.69,31.75,32,31.63,9.7,0,13-.07,15.17,4.14q.61-.56,1.2-1.14c1.72-1.72,3.21-3.63,4.79-5.47,1.05-1.21,2.17-2.54,3.41-3.73-4.75-18.47-9.55-36.92-14.81-55.25-3.51-12.26-2-24.22-.22-36.32a7.25,7.25,0,0,1,1.73-4l-15.74-22.19c0,3.34-1.26,4.31-4.14,5.08-16.43,4.42-24.15,14.76-24,31.87Q395.6,796,395.93,823.67Zm10.95-28c-.1-9.85-.22-19.7-.31-29.56-.07-7.8,3.36-13.63,10.2-17.29,5.69-3,7.18-2.27,6.81,4.17-1.3,22.33,2.16,43.93,9.11,65.08,1.53,4.68,2.55,9.52,3.83,14.28C439.64,844,439.64,844,427.76,844c-13.13,0-20.34-7-20.57-20C407,814.53,407,805.1,406.88,795.67Z"/><path class="cls-9" d="M406.88,795.67c.1,9.43.14,18.86.31,28.28.23,13,7.44,20,20.57,20,11.88,0,11.88,0,8.76-11.64-1.28-4.76-2.3-9.6-3.83-14.28-6.95-21.15-10.41-42.75-9.11-65.08.37-6.44-1.12-7.21-6.81-4.17-6.84,3.66-10.27,9.49-10.2,17.29C406.66,776,406.78,785.82,406.88,795.67Z"/><path class="cls-8" d="M895.34,765.81c.16-17.11-7.56-27.45-24-31.87-2.88-.77-4.19-1.74-4.14-5.08l-15.74,22.19a7.25,7.25,0,0,1,1.73,4c1.8,12.1,3.29,24.06-.22,36.32-5.26,18.33-10.06,36.78-14.81,55.25,1.24,1.19,2.36,2.52,3.41,3.73,1.58,1.84,3.07,3.75,4.79,5.47q.58.58,1.2,1.14c2.21-4.21,5.47-4.19,15.17-4.14,19.33.12,31.77-12.14,32-31.63Q895.11,793.52,895.34,765.81ZM883.5,821.49c-.23,13-7.44,20-20.57,20-11.88,0-11.88,0-8.76-11.64,1.28-4.76,2.3-9.6,3.83-14.28,7-21.15,10.41-42.75,9.11-65.08-.37-6.44,1.12-7.21,6.81-4.17,6.84,3.66,10.27,9.49,10.2,17.29-.09,9.86-.21,19.71-.31,29.56C883.71,802.64,883.67,812.07,883.5,821.49Z"/><path class="cls-9" d="M883.81,793.21c-.1,9.43-.14,18.86-.31,28.28-.23,13-7.44,20-20.57,20-11.88,0-11.88,0-8.76-11.64,1.28-4.76,2.3-9.6,3.83-14.28,7-21.15,10.41-42.75,9.11-65.08-.37-6.44,1.12-7.21,6.81-4.17,6.84,3.66,10.27,9.49,10.2,17.29C884,773.51,883.91,783.36,883.81,793.21Z"/><path class="cls-8" d="M842.05,784.49c0-17.26-8.06-27.61-25-31.9-3-.75-4.31-1.71-4.3-5.09q.27-65.32.24-130.67c-1-.76-6.54,3.64-11.67,8.07,0,2.13-.06,4.26-.06,6.39q-.13,51.74-.23,103.48c.58,1.21.89,3.2-.17,3.39-1.88.32-31.54-51.33-56.27-68.93l-6.53-4.29c-57-35.86-116.29-37.87-176.56-5.46-30.35,16.31-52.73,40.81-67.21,71.95l-5,10.62c-2.33-1.88-1.23-4.43-1.24-6.61-.1-19.61,0-39.22-.09-58.83,0-2.3.76-4.78-1.07-6.83-3.2,3.17-5.73-.64-8.61-.78l-.34-.22c0,25.78-.08,51.57.14,77.34,0,4.23-1.14,5.93-5.47,6.89-13.43,3-22.79,13.92-23.07,27.36-.35,16,0,32,.09,48.08l3.94,0c2.09-1.92,7.2-1.54,7.2-1.54s-.06-29.47.1-44.21c.09-9.1,5.22-16,12.89-18.53,3.33-1.11,4.54-.32,4.24,3,0,.21,0,.43,0,.65-2.15,24.35,2.35,47.84,9.49,71l3.22,12.42c.05.22.09.44.14.66l-.09-.46,1.73,6.67-.08.07c.32,1.22.64,2.43,1,3.68l-.77-3.2,11.53,44.46c8.1,29.71,15.79,59.25,14.16,90.69-1.08,20.88,17.75,37.54,39.22,37.6q87.62.25,175.23,0c22.79-.06,40.81-17.16,39.92-39.71-1-26,3.07-50.85,10.54-75.51,2.89-9.55,5.07-19.3,7.56-29,3.76-14.55,3.75-14.55,18.75-14.62,19.84-.09,32.47-12.59,32.51-32.25Q842.1,812.45,842.05,784.49ZM791,746.75c.29.73.45,1.5,1.22,4.13-4.73-3.37-7.91-5.78-11.23-8A247.79,247.79,0,0,0,692.85,706L733.27,675C760,692.46,779,716.77,791,746.75ZM540.78,758c2.64-8.43,5.09-17,12-23.26v0l1.37-1A218.92,218.92,0,0,1,664.44,713.6c3.51.26,7,.63,10.46,1.06L540.43,820.43a121.29,121.29,0,0,1-4.55-26v-8.78l.29-4.2A52.57,52.57,0,0,1,540.78,758Zm139.71-42.6A245.4,245.4,0,0,1,723,725.75a23.06,23.06,0,0,1,13,10.11c31.23,50.19,11.85,120.22-40.87,147.24a16.08,16.08,0,0,1-7.64,1.52H599.6a14.71,14.71,0,0,1-7.64-1.58q-38.88-22.29-51-60.91ZM497.85,753.66c6.17-21.77,18-40.47,33.69-56.56,51.68-52.9,127.15-64,192.17-27.87,1.74,1,3.44,2,5.13,3L687.3,704.9c-63.83-11.24-129.68,4.76-185.28,47.58a33,33,0,0,1-3.29,2c-.18.57-.49,1.15-1.13.66C497.41,755,497.75,754.17,497.85,753.66ZM490.45,804c-2.08-8.34,0-16.81.8-25.19a4.79,4.79,0,0,1,1.43-2.83c12-11.13,24-22.18,38.94-29.47l.69-.86c.12.16.38.42.35.47a6.68,6.68,0,0,1-.73.78c-2.32,10.31-6.11,20.26-7,30.9q-2.29,27.27,5.67,50.4L502.34,850.4C498.34,834.93,494.31,819.47,490.45,804ZM510,880.21c-2.41-9.6-4.89-19.18-7.37-28.76l28.51-21.81q10.33,28.64,36.51,50.9c1.16,1,2.35,1.94,3.53,2.9-.78,2.16-2.6,1.31-3.93,1.32-17,.06-33.93,0-50.89.12C512.65,884.91,510.92,883.94,510,880.21Zm251.57,88.12c-.45,7.12-.08,14.28-.12,21.43-.1,18.82-11.72,30.47-30.83,30.57-25.11.14-50.21,0-75.32,0q-46.57,0-93.16,0c-21.4,0-32.7-11.08-32.74-32,0-6.93.32-13.88-.1-20.79-.31-5,1.18-6.55,6.5-6.51,36.56.24,73.12.13,109.68.13,36.33,0,72.67.17,109-.17C760.63,961,761.91,962.85,761.55,968.33ZM775,902.62c-4,13.75-7.39,27.65-10.74,41.56-1,4.12-2.85,5.42-7.18,5.41q-111.72-.2-223.44,0c-4.38,0-6.15-1.42-7.13-5.49-3.35-13.9-6.86-27.78-10.71-41.56-1.4-5-.73-6.57,5-6.54,41.64.23,83.29.12,124.93.12,41.21,0,82.42.09,123.62-.11C774.86,896,776.73,896.7,775,902.62Zm6-23.19c-1,4.07-2.69,5.53-7.07,5.48-19.3-.25-38.61-.11-58.93-.11,47.23-40.69,59.07-88.83,36.08-146.59a218.46,218.46,0,0,1,45.73,31.85,7.33,7.33,0,0,1,1.81,4c2,12.2,3.64,24.25.16,36.65C792.47,833.52,786.79,856.49,781.06,879.43Zm49.44-38.62c-.1,13.16-7.43,20.28-20.9,20.44-12.2.14-12.19.14-9.11-11.66,1.26-4.82,2.25-9.72,3.77-14.45,6.91-21.42,10.23-43.25,8.65-65.76-.45-6.5,1.07-7.29,7-4.28,7,3.61,10.63,9.46,10.64,17.33q0,14.93,0,29.84C830.51,821.78,830.57,831.29,830.5,840.81Z"/><path class="cls-8" d="M478.7,742.67c0,3.43-1.33,4.4-4.29,5.17-16.91,4.36-25,14.88-25,32.44q0,28.44,0,56.87c.05,20,12.68,32.71,32.52,32.8,15,.07,15,.07,18.74,14.88l-5.16-67c-1-3.61-1.91-7.23-2.9-10.83-3.08-11.2-2.12-22.12-.48-33.11M461,808.53q0-15.16,0-30.34c0-8,3.6-14,10.65-17.63,5.88-3.06,7.4-2.26,6.94,4.35-1.57,22.9,1.75,45.1,8.65,66.89,1.53,4.81,2.52,9.79,3.78,14.69,3.08,12,3.08,12-9.12,11.86-13.46-.16-20.79-7.4-20.89-20.79C460.92,827.88,461,818.21,461,808.53Z"/><path class="cls-8" d="M808.2,610.67h-6.75"/><path class="cls-10" d="M535.87,781.47c.1-1.42.19-2.85.29-4.27,1.78-1.32,2-3.22,2-5.24-.18-5.56,1.64-10.63,3.75-15.64.67-2,1.38-4.07,2-6.12,2.11-7.22,7.24-13.12,8.92-20.52v.05l1.37-1.06a215.69,215.69,0,0,1,110.31-20.49A233.75,233.75,0,0,1,723,720.54a23.08,23.08,0,0,1,13,10.29c31.23,51,11.85,122.26-40.87,149.74a15.76,15.76,0,0,1-7.64,1.55H599.6a14.45,14.45,0,0,1-7.64-1.61c-34.58-20.16-53.39-50.13-56.08-90.12A10.05,10.05,0,0,0,535.87,781.47Zm109.66-29a28.31,28.31,0,1,0,28.37-28A28.44,28.44,0,0,0,645.53,752.5Zm77,42.38a11.71,11.71,0,0,0-11.78-11c-6.47.08-11.92,5.73-11.5,12a11.8,11.8,0,0,0,12.1,10.69C717.55,806.27,722.76,800.84,722.56,794.88Z"/><path class="cls-11" d="M645.46,960c36.33,0,72.67.17,109-.17,6.16-.06,7.44,1.84,7.08,7.41-.46,7.24-.08,14.53-.12,21.8-.1,19.13-11.72,31-30.83,31.09-25.11.14-50.21,0-75.32,0q-46.57,0-93.16,0c-21.4,0-32.7-11.27-32.74-32.53,0-7,.32-14.11-.1-21.14-.31-5.13,1.18-6.66,6.5-6.62C572.34,960.13,608.9,960,645.46,960Z"/><path class="cls-12" d="M497.85,748.92c6.17-22.14,18-41.15,33.69-57.52,51.68-53.79,127.15-65.06,192.17-28.35,31.79,18,53.93,44.82,67.28,78.85.29.74.45,1.53,1.22,4.2-4.73-3.43-7.91-5.88-11.23-8.12-88.3-59.58-195.24-55.83-279,9.75a33.29,33.29,0,0,1-3.29,2A9.83,9.83,0,0,0,497.85,748.92Z"/><path class="cls-13" d="M645.77,893.82c41.21,0,82.42.1,123.62-.11,5.47,0,7.34.69,5.63,6.71-4,14-7.39,28.12-10.74,42.27-1,4.19-2.85,5.52-7.18,5.51q-111.72-.21-223.44,0c-4.38,0-6.15-1.44-7.13-5.58-3.35-14.14-6.86-28.25-10.71-42.27-1.4-5.09-.73-6.68,5-6.65C562.48,893.93,604.13,893.82,645.77,893.82Zm-97,11.14c-2.19.42-5.24.56-6.21,4-.73,2.6-.09,5.67,2.39,6.16,8.24,1.65,11.16,8.61,15.59,14.22,8.74,11.06,22.11,10.84,30.78-.41,2.29-3,4.22-6.21,6.63-9.06,3.86-4.58,7.68-4.51,11.6,0a58,58,0,0,1,3.44,4.85c11.87,17.07,25.18,17.16,37,.27a52.1,52.1,0,0,1,3.51-4.79c4.59-5.15,8.09-5,12.45.41,2,2.58,3.71,5.48,5.78,8,9.81,12.15,22.7,11.83,31.9-.74,1.43-2,2.69-4,4.16-6,5.59-7.34,9.41-7.3,14.88,0,2.77,3.69,5,7.79,8.65,10.8s7.32,4.95,12,4.5a5.36,5.36,0,0,0,5.14-4.38c.57-2.64-.18-5.52-2.81-6-7.66-1.25-10.36-7.62-14.31-12.75-9.82-12.77-23.84-12.91-32.61.78-9.09,14.21-14.27,13.52-22.87,0-9.12-14.3-23.36-13.62-33.3.26-10.22,14.27-11.56,14.28-21.69.27-10.43-14.42-24-14.4-34.42,0-10.08,14-11.52,14-21.69-.35C560.94,909.84,556.29,905.78,548.75,905Z"/><path class="cls-14" d="M751.14,733.22a217.92,217.92,0,0,1,45.73,32.39,7.48,7.48,0,0,1,1.81,4.11c2,12.4,3.64,24.65.16,37.27-6.37,23.16-12.05,46.51-17.78,69.84-1,4.15-2.69,5.63-7.07,5.58-19.3-.25-38.61-.11-58.93-.11C762.29,840.91,774.13,792,751.14,733.22Z"/><path class="cls-14" d="M531.94,742c-2.33,10.47-6.12,20.59-7,31.41Q519.68,836.62,567.63,878c1.16,1,2.35,2,3.53,2.95-.78,2.19-2.6,1.33-3.93,1.34-17,.06-33.93-.06-50.89.12-3.69,0-5.42-1-6.36-4.75-6.4-25.87-13.19-51.65-19.53-77.54-2.08-8.48,0-17.09.8-25.62a5,5,0,0,1,1.43-2.88c11.95-11.31,24-22.56,38.94-30Z"/><path class="cls-9" d="M830.51,808.53c0,9.68.06,19.35,0,29-.1,13.39-7.43,20.63-20.9,20.79-12.2.14-12.19.14-9.11-11.86,1.26-4.9,2.25-9.88,3.77-14.69,6.91-21.79,10.23-44,8.65-66.89-.45-6.61,1.07-7.41,7-4.35,7,3.68,10.63,9.62,10.64,17.63Q830.53,793.35,830.51,808.53Z"/><path class="cls-10" d="M552.77,729.68c-1.68,7.4-6.81,13.3-8.92,20.52-.6,2-1.31,4.08-2,6.12-.36-1-.73-2-1.1-3C543.42,744.76,545.87,736.1,552.77,729.68Z"/><path class="cls-10" d="M540.78,753.34c.37,1,.74,2,1.1,3-2.12,5-3.94,10.08-3.76,15.64.07,2-.18,3.92-2,5.24A54.26,54.26,0,0,1,540.78,753.34Z"/><path class="cls-10" d="M535.87,781.47a10.05,10.05,0,0,1,0,8.93C535.88,787.42,535.87,784.45,535.87,781.47Z"/><path class="cls-15" d="M554.13,728.67l-1.37,1.06Z"/><path class="cls-14" d="M531.62,741.62l.69-.87c.12.16.38.43.35.48a7.66,7.66,0,0,1-.72.79Z"/><path class="cls-16" d="M645.53,752.5a28.31,28.31,0,1,1,28.23,28.73A28.44,28.44,0,0,1,645.53,752.5Z"/><path class="cls-9" d="M722.56,794.88c.2,6-5,11.39-11.18,11.63a11.8,11.8,0,0,1-12.1-10.69c-.42-6.22,5-11.87,11.5-12A11.71,11.71,0,0,1,722.56,794.88Z"/><path class="cls-17" d="M548.75,905c7.54.82,12.19,4.88,16,10.32,10.17,14.34,11.61,14.33,21.69.35,10.4-14.44,24-14.46,34.42,0,10.13,14,11.47,14,21.69-.27,9.94-13.88,24.18-14.56,33.3-.26,8.6,13.48,13.78,14.17,22.87,0,8.77-13.69,22.79-13.55,32.61-.78,4,5.13,6.65,11.5,14.31,12.75,2.63.43,3.38,3.31,2.81,6a5.36,5.36,0,0,1-5.14,4.38c-4.7.45-8.54-1.6-12-4.5s-5.88-7.11-8.65-10.8c-5.47-7.33-9.29-7.37-14.88,0-1.47,1.93-2.73,4-4.16,6-9.2,12.57-22.09,12.89-31.9.74-2.07-2.56-3.73-5.46-5.78-8-4.36-5.46-7.86-5.56-12.45-.41A52.1,52.1,0,0,0,650,925c-11.86,16.89-25.17,16.8-37-.27a58,58,0,0,0-3.44-4.85c-3.92-4.52-7.74-4.59-11.6,0-2.41,2.85-4.34,6.1-6.63,9.06-8.67,11.25-22,11.47-30.78.41-4.43-5.61-7.35-12.57-15.59-14.22-2.48-.49-3.12-3.56-2.39-6.16C543.51,905.52,546.56,905.38,548.75,905Z"/><rect class="cls-8" x="801.11" y="515.88" width="11.91" height="158.73" rx="2.43"/><rect class="cls-8" x="477.42" y="580.41" width="11.91" height="125.67" rx="2.43"/><rect class="cls-8" x="451.43" y="816.96" width="9.39" height="8.07"/><path class="cls-9" d="M461.49,808.53c0,9.68-.07,19.35,0,29,.1,13.39,7.42,20.63,20.89,20.79,12.2.14,12.2.14,9.12-11.86-1.26-4.9-2.26-9.88-3.78-14.69-6.9-21.79-10.22-44-8.65-66.89.45-6.61-1.07-7.41-6.94-4.35-7.06,3.68-10.64,9.62-10.65,17.63Q461.48,793.35,461.49,808.53Z"/><path class="cls-18" d="M515.42,931.53C452.66,970.1,425.9,1027,410.94,1059.08c-.11.23-.21.47-.3.71-9.05,24.2-14.87,44.34-10.56,60.75s10.25,45,61.38,55.53a8,8,0,0,1,.93.24c63.76,20,168.13,13.11,261.62,12,.53,0,38.51-2.87,87.2-8.84,25.54-3.13,43.28-4.73,58-13.55a13.24,13.24,0,0,1,2-.89c21.15-8.43,28-27.52,32.69-37.86a9.63,9.63,0,0,0,.87-3.69c1.88-68.18-116-193.89-122.82-195.16S594.68,882.81,515.42,931.53Z"/><path class="cls-19" d="M641.93,745.75v0S641.91,745.73,641.93,745.75Z"/><path class="cls-20" d="M641.93,745.75v0S641.91,745.73,641.93,745.75Z"/><path class="cls-18" d="M877.54,789.83C873.29,695.08,823.23,628.74,644.77,635,467.47,635,418.83,699.62,412,789.83,412,880,516.21,953,644.77,953S881.79,884.59,877.54,789.83ZM497,739.54c2.28,2,274.86,5.34,290.29-6.56,3.49,0,16.25,48.19,10.66,67.82C790.42,827.13,784.45,835.16,769,838c-62.25,11.58-199.8,16.41-263.31-9.41-9-3.67-19.23-20-17.78-46,1.1-19.86,8-41.57,8.2-43.13"/><path class="cls-1" d="M558,731.59q-60.21,0-120.43-.05c-7.3,0-14.23-7.74-12.57-15.22,4.75-21.31,13.55-35.23,36.26-31.25,27.37,4.8,54.55,2.48,81.87,1.6,30.93-1,61.86-2.11,92.79-2.18,51.71-.1,103.39,2.87,155.12,2.48,16.24-.12,32.4-.45,48.35-3.62,5.33-1.07,8.57.82,10.7,5.5,3.2,7,6.86,13.89,9.58,21.1,4.39,11.64,2.32,14.77-10,14.54-24.13-.44-48.16,1.58-72.22,2.65C704.34,730.4,631.21,733,558,731.59Z"/><path class="cls-1" d="M1061.71,677.17c3,2,5-1.67,6.69.57s.61,4.65-.82,6.59c-4.26,5.76-10.68,8.38-17,11-23.26,9.55-40,6.37-63.89,4.14-25.1-2.35-50-7.26-75.31-7.09-14.59.11-36.67,1.39-48.41,11.87-3.55,3.16-5.2,1.2-6.4-2.05-2.09-5.68-.67-10.79,3.79-14.55,17.16-14.44,43.82-24.08,66.35-15.7,29.64,11,51.47,8.64,81,1.34,17.1-4.22,32.88-12.06,49.17-18.46,9.53-3.75,11-2.76,10.93,7.78C1067.85,668.26,1065.73,672.91,1061.71,677.17Z"/><path class="cls-1" d="M1008.23,578.2c4.85-5.13,6.42-9.08,7-13.59.17-1.37-.14-3.22,1.71-3.69,2.18-.55,3.14,1.29,4.05,2.74,4.59,7.33,5.52,14.87,1.39,22.81-4,7.65-10.16,13.25-17.27,17.64-34.3,21.22-72.45,47.29-122.82,66.51-11.44,4.36-22,10.5-29.49,21.09-7.32-15.22,2.56-34.67,20.47-41.3,19.23-7.11,46.15-13.48,64.22-23.39,14.93-8.19,21.59-17.52,32.72-30.69,10.29-12.16,16.64-26.05,17.56-42,.31-5.56,2.5-6.3,7.31-5.41C1010.61,551.77,1013.52,557.24,1008.23,578.2Z"/><path class="cls-21" d="M439.5,919.72c-.72,1.59-21.14,60.41-50.4,62"/><path class="cls-22" d="M329.66,904.28c-1.79.15-2.69-.61-2.42-2.46.38-2.64,2.34-3.79,4.55-4.68,1.89-.75,2.8.22,2.79,1.91C334.58,902.22,332.2,903.37,329.66,904.28Z"/><rect class="cls-23" x="306.89" y="897.71" width="105.77" height="37.76" rx="12.54" transform="translate(583.96 -42.22) rotate(34.59)"/><rect class="cls-24" x="313.98" y="906.34" width="95.13" height="22.94" rx="8.94" transform="translate(554.61 -49.56) rotate(32.79)"/><path class="cls-24" d="M430.46,1021.54c-1.77-41.53,28.7-76.48,68.12-78.15"/><path class="cls-21" d="M389.1,981.7c-1.4-33,21.16-60.77,50.43-62"/><path class="cls-25" d="M326.47,903.54c-1.79.15-2.69-.61-2.42-2.46.39-2.64,2.34-3.79,4.55-4.67,1.89-.76,2.8.21,2.79,1.9C331.39,901.48,329,902.63,326.47,903.54Z"/><path class="cls-25" d="M390.71,943.57c-1.28.11-1.92-.44-1.73-1.76.28-1.89,1.68-2.71,3.26-3.34,1.35-.54,2,.15,2,1.36C394.22,942.09,392.53,942.92,390.71,943.57Z"/><path class="cls-25" d="M388.73,932.71c-1.28.11-1.92-.44-1.73-1.76.28-1.89,1.68-2.7,3.26-3.34,1.34-.54,2,.15,2,1.36C392.24,931.23,390.55,932.06,388.73,932.71Z"/><path class="cls-25" d="M376.32,934.63c-1.28.11-1.92-.44-1.72-1.76.27-1.88,1.67-2.7,3.25-3.33,1.35-.55,2,.15,2,1.36C379.83,933.16,378.14,934,376.32,934.63Z"/><path class="cls-25" d="M373.68,923.4c-1.28.1-1.92-.44-1.73-1.76.28-1.89,1.67-2.71,3.25-3.34,1.35-.54,2,.15,2,1.36C377.19,921.92,375.49,922.75,373.68,923.4Z"/><path class="cls-25" d="M360.89,925.62c-1.28.1-1.92-.44-1.73-1.76.28-1.89,1.67-2.71,3.26-3.34,1.34-.54,2,.15,2,1.36C364.4,924.14,362.71,925,360.89,925.62Z"/><path class="cls-25" d="M360.48,915.94c-1.28.1-1.92-.44-1.73-1.76.28-1.89,1.67-2.71,3.25-3.34,1.35-.54,2,.15,2,1.36C364,914.46,362.3,915.29,360.48,915.94Z"/><path class="cls-25" d="M347.41,916.49c-1.28.11-1.92-.44-1.73-1.76.28-1.88,1.67-2.7,3.25-3.34,1.35-.54,2,.16,2,1.37C350.92,915,349.22,915.84,347.41,916.49Z"/><path class="cls-25" d="M347.08,908.73c-1.28.11-1.92-.44-1.73-1.76.28-1.88,1.67-2.7,3.25-3.33,1.35-.55,2,.15,2,1.36C350.59,907.26,348.9,908.08,347.08,908.73Z"/><path class="cls-25" d="M335.81,908.34c-1.28.1-1.92-.44-1.73-1.76.28-1.89,1.68-2.71,3.26-3.34,1.35-.54,2,.15,2,1.36C339.32,906.86,337.63,907.69,335.81,908.34Z"/><path class="cls-25" d="M336.28,899.25c-1.28.1-1.92-.44-1.73-1.76.28-1.89,1.67-2.71,3.25-3.34,1.35-.54,2,.15,2,1.36C339.79,897.77,338.1,898.6,336.28,899.25Z"/><rect class="cls-23" x="400.31" y="945.35" width="61.59" height="37.76" rx="9.06" transform="matrix(0.82, 0.57, -0.57, 0.82, 623.62, -74.29)"/><path class="cls-22" d="M971.34,911.16c1.78.21,2.71-.52,2.51-2.38-.29-2.65-2.2-3.87-4.38-4.84-1.86-.82-2.8.11-2.86,1.8C966.5,908.91,968.83,910.15,971.34,911.16Z"/><rect class="cls-23" x="887.91" y="903.47" width="105.77" height="37.76" rx="12.54" transform="translate(2229.76 1195.06) rotate(147.51)"/><rect class="cls-24" x="891.41" y="912.03" width="95.13" height="22.94" rx="8.94" transform="translate(2217.75 1238.58) rotate(149.32)"/><path class="cls-24" d="M866.3,1024.63c3.29-41.43-25.88-77.48-65.21-80.6"/><path class="cls-21" d="M909.09,986.33c2.62-33-18.91-61.5-48.12-63.82"/><path class="cls-25" d="M974.55,910.54c1.79.21,2.72-.52,2.51-2.38-.29-2.65-2.2-3.87-4.38-4.84-1.86-.82-2.8.11-2.86,1.81C969.71,908.29,972,909.53,974.55,910.54Z"/><path class="cls-25" d="M908.88,948.17c1.28.16,1.94-.37,1.8-1.69-.21-1.9-1.58-2.77-3.13-3.46-1.33-.59-2,.08-2,1.29C905.43,946.57,907.09,947.46,908.88,948.17Z"/><path class="cls-25" d="M911.26,937.39c1.28.16,1.94-.37,1.79-1.69-.2-1.9-1.57-2.77-3.12-3.46-1.33-.59-2,.08-2,1.29C907.81,935.79,909.47,936.68,911.26,937.39Z"/><path class="cls-25" d="M923.59,939.77c1.27.15,1.94-.37,1.79-1.69-.21-1.9-1.57-2.77-3.13-3.46-1.33-.59-2,.08-2,1.29C920.14,938.17,921.8,939.05,923.59,939.77Z"/><path class="cls-25" d="M926.65,928.64c1.27.15,1.93-.37,1.79-1.69-.21-1.9-1.57-2.77-3.13-3.46-1.33-.59-2,.08-2,1.29C923.19,927,924.85,927.92,926.65,928.64Z"/><path class="cls-25" d="M939.34,931.33c1.28.15,1.94-.37,1.8-1.7-.21-1.89-1.58-2.76-3.13-3.45-1.33-.59-2,.08-2,1.28C935.89,929.72,937.55,930.61,939.34,931.33Z"/><path class="cls-25" d="M940.11,921.67c1.27.15,1.94-.37,1.79-1.7-.21-1.89-1.57-2.76-3.13-3.45-1.33-.59-2,.08-2,1.29C936.66,920.07,938.32,921,940.11,921.67Z"/><path class="cls-25" d="M953.15,922.7c1.28.16,1.94-.36,1.79-1.69-.2-1.9-1.57-2.76-3.12-3.46-1.33-.58-2,.08-2,1.29C949.7,921.1,951.36,922,953.15,922.7Z"/><path class="cls-25" d="M953.77,915c1.27.16,1.93-.37,1.79-1.69-.21-1.9-1.57-2.77-3.13-3.46-1.33-.59-2,.08-2,1.29C950.31,913.36,952,914.24,953.77,915Z"/><path class="cls-25" d="M965,915c1.27.15,1.94-.37,1.79-1.69-.21-1.9-1.57-2.77-3.13-3.46-1.33-.59-2,.08-2,1.29C961.58,913.38,963.25,914.26,965,915Z"/><path class="cls-25" d="M964.91,905.88c1.27.15,1.93-.37,1.79-1.69-.21-1.9-1.57-2.77-3.13-3.46-1.33-.59-2,.08-2,1.29C961.45,904.28,963.12,905.16,964.91,905.88Z"/><rect class="cls-23" x="836.96" y="948.45" width="61.59" height="37.76" rx="9.06" transform="translate(2119.28 1317.22) rotate(147.51)"/></g></g></svg>