<svg xmlns="http://www.w3.org/2000/svg" width="111" height="128.166" viewBox="8.667 -8.499 111 128.166"><path fill="#FF9700" d="M119.744 87.5l-55.426 32-55.424-32V23.501l55.424-32 55.426 32z"/><path fill="#F2D00E" d="M110.82 29.23v53.13l-10.43 6.02-.24.12-.13.06-.11.06-4.94 2.85-3.25 1.88-2.25 1.3-1.66.96-7.98 4.61-8.62 4.98-.23.13-6.21 3.59-15.04-8.7-3.16-1.83-5.68-3.28-2.7-1.56-5.09-2.94-14.28-8.25V29.23l14.33-8.28 6.92-3.99 9.6-5.54 15.15-8.74 15.14 8.74 10.28 5.93 4.65 2.69z"/><path fill="#FFF" d="M110.82 29.23v53.13l-10.431 6.02-.239.12-.131.06-.109.06-4.94 2.85-3.25 1.88-2.25 1.301-1.66.96-7.979 4.609-8.62 4.98h-.5c.09.04.18.09.271.13l-6.211 3.59-15.04-8.7-3.16-1.83c2.51-.87 3.05-1.109 5.8-2.659.29-.16.68-.11.98.079l10.06 5.96c.37.2.88.2 1.21 0l38.45-22.189c.449-.48.899-.96 1.34-1.44.02-.02.03-.04.05-.06V32.79c0-.45-.24-.85-.61-1.08L64.92 9.26c-.26.02-.53.01-.79.04-.42.03-.84.07-1.27.12L24.22 31.71c-.39.22-.62.64-.62 1.07v44.28c.3.23.59.48.86.761.65.689 1.15 1.47 1.51 2.31l8.97 5.18c5.84 2.921 9.4-.52 9.4-3.979V36.65c0-.64.51-1.12 1.15-1.12h4.96c.62 0 1.13.48 1.13 1.12v44.71c0 7.77-4.24 12.239-11.61 12.239-.61 0-1.18 0-1.78-.05L33.1 90.61l-14.28-8.25V29.23l14.33-8.28 6.92-3.99 9.6-5.54 15.15-8.74 15.14 8.74 10.28 5.93 4.649 2.69 15.931 9.19z"/><path fill="#FFF" d="M75.801 74.043c-14.67 0-17.747-6.734-17.747-12.385 0-.537.434-.965.971-.965h4.332c.479 0 .881.348.956.822.655 4.41 2.602 6.639 11.473 6.639 7.065 0 10.071-1.598 10.071-5.344 0-2.158-.855-3.764-11.834-4.834-9.184-.908-14.855-2.932-14.855-10.274 0-6.765 5.707-10.793 15.268-10.793 10.733 0 16.057 3.726 16.728 11.733a.978.978 0 0 1-.976 1.058h-4.354a.958.958 0 0 1-.938-.755c-1.049-4.642-3.584-6.127-10.477-6.127-7.712 0-8.609 2.687-8.609 4.701 0 2.442 1.059 3.156 11.463 4.532 10.309 1.368 15.201 3.298 15.201 10.54 0 7.304-6.095 11.49-16.72 11.49"/><g fill="#4A6800"><path d="M84.129 50.303c0 3.356-.006 6.712.008 10.065.002.584-.244.932-.744 1.2-.896.488-1.767 1.027-2.651 1.537-1.021.59-2.048 1.168-3.068 1.752-.368.211-.726.451-1.104.646-.385.199-.75.229-1.166-.027-.989-.619-2.016-1.178-3.025-1.76-1.339-.771-2.68-1.547-4.02-2.322-.237-.135-.342-.354-.355-.615-.016-.281-.014-.563-.014-.846-.002-2.476.005-4.949-.006-7.423-.002-.477.113-.809.578-1.067 1.724-.957 3.42-1.963 5.127-2.95.601-.347 1.203-.69 1.803-1.042.394-.229.761-.188 1.144.044.49.299.991.58 1.496.853.431.233.593.128.593-.367V37.643c0-.125-.002-.249 0-.373.021-.511.291-.684.737-.441 1.127.615 2.246 1.246 3.367 1.869.235.132.465.281.709.394.452.209.601.567.598 1.041-.006 3.051-.004 6.101-.004 9.152-.003.34-.003.678-.003 1.018zm-10.772 6.179c0 .416.008.834-.004 1.252-.006.207.078.332.256.432.719.404 1.436.813 2.144 1.232.203.121.365.113.563-.002a129.61 129.61 0 0 1 2.111-1.215c.215-.119.295-.275.291-.521a80.138 80.138 0 0 1 0-2.402c.002-.231-.076-.375-.281-.49a120.38 120.38 0 0 1-2.17-1.249c-.15-.086-.283-.113-.441-.02-.74.435-1.48.863-2.227 1.29-.177.102-.25.233-.246.439.012.418.002.836.004 1.254zm-10.783-.203c0 1.359-.008 2.714.004 4.07.003.444-.18.739-.563.959-2.283 1.312-4.565 2.623-6.834 3.953-.476.278-.876.278-1.353-.01-1.119-.682-2.265-1.318-3.399-1.971-1.129-.65-2.255-1.305-3.388-1.948-.415-.233-.601-.562-.597-1.048.011-2.645.011-5.288 0-7.933-.004-.487.186-.804.599-1.044 1.886-1.103 3.803-2.152 5.667-3.295.408-.25.846-.447 1.255-.693.382-.229.736-.208 1.115.012 1.768 1.025 3.539 2.045 5.311 3.066.547.316 1.094.634 1.646.944.369.208.543.503.54.938-.016 1.333-.006 2.668-.006 4h.003zm-37.696 1.39c0-1.787.009-3.571-.006-5.356-.004-.531.189-.883.66-1.146 1.632-.916 3.247-1.859 4.867-2.791.62-.357 1.248-.702 1.86-1.072.428-.258.822-.271 1.264-.014 1.615.941 3.243 1.864 4.865 2.794.673.387 1.343.784 2.024 1.16.404.223.604.526.603 1.005-.013 3.593-.013 7.188-.015 10.78 0 .24-.002.479-.258.609-.262.133-.475-.002-.694-.125-1.02-.584-2.015-1.211-3.069-1.738a8.115 8.115 0 0 1-1.029-.629c-.241-.168-.352-.42-.352-.728.007-1.729.005-3.457.013-5.187 0-.27-.09-.513-.306-.645-.696-.427-1.395-.854-2.131-1.209-.226-.109-.44-.076-.646.04-.604.343-1.209.688-1.812 1.039a.836.836 0 0 0-.437.721c-.015.429-.019.859-.021 1.288-.002 1.267-.011 2.531.006 3.796.006.443-.147.758-.534.977-.783.436-1.561.884-2.338 1.33-.505.291-1.006.59-1.509.881a2.556 2.556 0 0 1-.392.195c-.356.133-.599-.043-.599-.418.002-1.854 0-3.707 0-5.56-.005.003-.008.003-.014.003zm64.571-1.285v-4.202c.002-.373.229-.599.521-.771a1607.24 1607.24 0 0 1 4.004-2.342c.948-.554 1.901-1.1 2.848-1.659.447-.265.867-.285 1.328-.011 1.252.742 2.517 1.456 3.772 2.187 1.06.616 2.114 1.24 3.169 1.864.319.189.461.486.465.848.004.61.004 1.221 0 1.829a.965.965 0 0 1-.511.892c-1.388.808-2.771 1.624-4.157 2.436-.423.248-.74.074-.744-.408a96.412 96.412 0 0 1 0-1.863c.002-.237-.072-.413-.287-.531-.719-.395-1.438-.788-2.147-1.192-.196-.108-.366-.116-.563 0-.707.415-1.422.823-2.135 1.23-.166.096-.219.251-.221.425-.004.822-.008 1.648-.002 2.472.002.21.088.367.295.487 1.71.981 3.411 1.979 5.139 2.934.65.359 1.283.749 1.922 1.132.451.271.459.59 0 .854-1.012.577-2.033 1.137-3.049 1.702-.393.219-.783.437-1.177.65a.908.908 0 0 1-.933-.004c-1.022-.582-2.049-1.162-3.073-1.742a3139.44 3139.44 0 0 0-2.983-1.689c-.344-.195-.688-.379-1.021-.585a.904.904 0 0 1-.463-.839c.01-1.369.003-2.739.003-4.104z"/><path d="M99.059 56.422c.199.602-.197.926-.766 1.281-.574.357-.977.324-1.55.008-.617-.341-.86-.719-.806-1.423.066-.857.043-.819.756-1.313.565-.393 1.019-.411 1.6-.02.73.495.762.449.766 1.467z"/></g><circle fill-rule="evenodd" clip-rule="evenodd" fill="#FF9700" cx="63.522" cy="82.396" r="15.833"/><g fill-rule="evenodd" clip-rule="evenodd" fill="#FFF"><path d="M60.672 80.936c.696 2.519 5.933 2.153 7.123.409a.905.905 0 0 1 .226-.231c-.015-.066-.016-.136-.038-.199a29.14 29.14 0 0 0-.503-1.296c-.073-.181-.161-.36-.321-.488a.178.178 0 0 1-.056-.102c-.05-.228-.115-.456-.138-.688-.035-.34-.044-.682-.052-1.025a1.01 1.01 0 0 1 .052-.326c.027-.094.031-.177-.028-.251-.049-.061-.041-.109-.012-.176.107-.234.222-.467.306-.71.108-.313.191-.632.282-.949.056-.188.143-.358.354-.384.229-.028.464.005.654.156.284.229.562.47.84.705.03.023.056.048.087.067.119.067.198.021.195-.117a.297.297 0 0 0-.021-.104c-.172-.319-.32-.653-.525-.95-.313-.448-.811-.631-1.317-.709-.935-.145-1.821.046-2.645.512-.178.1-.353.212-.516.336-.388.292-.803.557-1.047 1.001-.037.069-.11.124-.176.174-.2.148-.386.3-.428.572-.014.101-.069.196-.109.291-.142.342-.278.687-.431 1.024-.2.444-.408.886-.622 1.323-.089.184-.201.357-.307.531a.494.494 0 0 1-.134.161c-.153.1-.243.24-.326.396a9.413 9.413 0 0 1-.333.571c-.048.076-.115.143-.165.218.051.078.103.154.131.258z"/><path d="M73.211 85.656c-.179-.316-.447-.554-.721-.777-1.083-.894-2.275-1.596-3.621-2.023-2.353 2.307-7.857 2.453-9.582-.559-1.44.59-2.816 1.295-4.044 2.266-.465.369-.907.776-1.086 1.371a1.698 1.698 0 0 0-.072.651c.048.476.195.929.43 1.351a.232.232 0 0 1 .033.09c.038.25.151.475.286.681.243.371.579.652.956.872.371.219.752.422 1.143.6a13.22 13.22 0 0 0 3.003.945c1.077.205 2.166.277 3.792.253.704-.019 2.05-.109 3.397-.462.665-.176 1.312-.4 1.894-.772.423-.271.841-.559 1.222-.886.402-.344.761-.736 1.135-1.116.213-.218.345-.5.585-.703.337-.286.655-.596.973-.905.109-.107.204-.237.291-.366.111-.171.076-.345-.014-.511z"/></g><path opacity=".13" d="M18.757 29.276v53.121l46.073 26.559 46.074-26.559V29.276L64.83 2.715 18.757 29.276zm90.282 1.08v50.97l-44.211 25.49-44.21-25.49v-50.97l44.21-25.489 44.211 25.489z"/></svg>