<?xml version="1.0" encoding="utf-8"?>
<!-- Generator: Adobe Illustrator 21.0.2, SVG Export Plug-In . SVG Version: 6.00 Build 0)  -->
<svg version="1.1" id="Layer_1" xmlns="http://www.w3.org/2000/svg" xmlns:xlink="http://www.w3.org/1999/xlink" x="0px" y="0px"
	 viewBox="0 0 110.8542 127.9063" style="enable-background:new 0 0 110.8542 127.9063;" xml:space="preserve">
<style type="text/css">
	.st0{fill:#EDB35F;}
	.st1{fill:#FFFFFF;}
	.st2{opacity:0.13;enable-background:new    ;}
	.st3{fill:#FFEC9E;}
	.st4{opacity:0.238;enable-background:new    ;}
	.st5{fill:#E7C63C;}
	.st6{opacity:0.24;enable-background:new    ;}
	.st7{fill:#7C4906;}
	.st8{fill:#15003E;}
	.st9{fill:#231F20;}
	.st10{fill:#0ECE7C;}
	.st11{fill:#25E899;}
</style>
<g id="Layer_63_4_">
	<polygon class="st0" points="110.8457,95.9968 55.4199,127.9968 -0.0039,95.9968 -0.0039,31.9968 55.4199,-0.0032 
		110.8457,31.9968 	"/>
</g>
<path class="st1" d="M101.9941,37.7038v53.1406l-0.0107,0.0098l-0.0195,0.0098l-0.4102,0.2402l-0.3701,0.2109l-0.6201,0.3496
	l-4.1494,2.3897l-0.0108,0.0107l-0.1299,0.0791l-0.0595,0.0303l-0.5498,0.3203l-0.8008,0.4492l-0.0996,0.0606l-0.4795,0.2793
	l-1.1309,0.6504l-0.8496,0.4902l-0.7402,0.4297l-0.2393,0.1309l-0.1308,0.0488l-0.1094,0.0703l-1,0.5703l-0.0303,0.0195l-2,1.1504
	l-0.5098,0.2901l-0.1406,0.0801l-0.0293,0.0205l-0.1406,0.08l-0.0098,0.0098l-1.04,0.5898l-0.04,0.0293l-0.0694,0.0411
	l-1.1601,0.6699l-0.4502,0.2597l-0.0098,0.0098l-0.0107,0.0098h-0.0098l-0.4199,0.2402l-1.1201,0.6504l-0.8702,0.5195l-1.1796,0.67
	l-0.0801,0.0507l-0.1201,0.0694l-0.0401,0.0302l-0.04,0.0196l-0.0196,0.0097l-0.1005,0.0606l-0.2901,0.1699l-0.0293,0.0098
	l-0.1601,0.0898v0.0098l-0.4004,0.2305l-0.2696,0.1601l-0.1103,0.0606l-0.1797,0.0898l-0.0205,0.0195l-0.04,0.0196l-0.6895,0.3906
	l-0.0605,0.04l-0.2393,0.1397l-0.0205,0.0097l-0.29,0.17l-0.1495,0.08l-0.2207,0.1309l-0.2392,0.1397h-0.0108l-0.4199,0.25
	l-0.29,0.1699l-0.0293,0.0205l-0.3008,0.1699l-1.3594,0.7891l-0.5,0.291l-0.25,0.1396l-0.7002,0.3994l-0.0302,0.0206h-0.0098
	l-0.3096,0.1796l-0.0508,0.0303l-0.2392,0.1504l-0.8408,0.4795l-0.6299,0.3603l-0.0596,0.0293l-0.5,0.2911
	c-0.0098,0.0097-0.0098,0.0097-0.0098,0l-0.5302,0.3095l-0.2901,0.17l-0.7597,0.4404l-0.0508,0.0293l-0.0498,0.0303l-0.0293,0.0097
	c0,0.0108-0.0108,0.0108-0.0108,0.0108l-0.0195,0.0195l-0.25,0.1396l-1,0.5801l-0.1699,0.1006l-0.0401,0.0195l-0.3798,0.2207
	l-1.42,0.8194l-0.3603,0.2099l-0.0899,0.0498l-0.2402,0.1397l-0.7998,0.4609l-0.2598,0.1494l-0.2802,0.1602l-0.0098,0.0107
	l-0.2002,0.1192l-0.2305,0.1308l-0.3496,0.1993l-0.83,0.4804l-0.0098,0.0098l-0.0899,0.0498l-1.3203,0.7607l-0.0205,0.0098
	l-0.79,0.459l-0.6094,0.3506h-0.0098l-1.4101,0.8095l-0.0205,0.0206l-0.25,0.1396l-0.5596,0.3203h-0.0098l-0.1308,0.0801
	l-0.1895,0.1094l-0.2705,0.1601h-0.0097l-0.2002,0.1201l-0.0596-0.0302l-1.1397-0.6602l-0.0205-0.0098l-0.2002-0.1191
	l-0.8496-0.4902l-0.0302-0.0098l-0.3301-0.1904l-0.0098-0.0108l-1.4004-0.8086l-0.0097-0.0107l-0.0196-0.0098l-1.3701-0.79
	l-0.0303-0.0195h-0.0097l-0.8301-0.4805l-0.0596-0.04l-0.3408-0.1905l-0.1797-0.1094l-0.0195-0.0097l-0.6602-0.3809l-0.04-0.0293
	l-0.0899-0.0508l-0.1005-0.0595l-0.1299-0.0694l-0.2696-0.1601l-0.1201-0.0703h-0.0107l-0.7197-0.42l-0.2403-0.1308l-0.3896-0.2295
	l-0.0498-0.0303l-0.0303-0.0195l-1.3994-0.8106h-0.0108l-0.1093-0.0703l-0.3702-0.2187h-0.0097l-0.2705-0.1602l-0.6201-0.3603
	l-0.0303-0.0108l-0.0596-0.039l-0.04-0.0196l-1.2901-0.75l-0.3896-0.2304l-0.6807-0.3907l-0.5791-0.33l-0.1103-0.0596l-1-0.5801
	l-1.7198-1c-0.0107-0.0097-0.0205-0.0205-0.0302-0.0205l-1.3203-0.7598l-3.92-2.2597l-0.1601-0.0899l-0.5694-0.33l-0.4707-0.2696
	l-0.4394-0.2597l-0.2998-0.17l-0.3809-0.2207l-0.9892-0.58l-0.0401-0.0196l-2.7402-1.5898l-0.0996-0.0606l-0.1807-0.0996
	l-0.6699-0.3808l-0.8203-0.4698l-0.0899-0.0498l-0.5-0.29l-0.0097-0.0098l-0.0801-0.0498h-0.0098l-0.1201-0.0703h-0.0098
	l-0.3105-0.1797l-0.7295-0.4199c-0.0098-0.0098-0.0098-0.0098-0.0205-0.0098l-1.8594-1.08l-1.0205-0.5909l-2.1094-1.2295
	l-0.0908-0.0507l-0.1992-0.1192c0,0-0.0107,0-0.0205-0.0097l-0.2803-0.1602l-0.5293-0.3008l-0.8203-0.4795l-0.0596-0.04h-0.0107
	c0,0,0,0-0.0098,0l-0.4902-0.29l-0.6992-0.3995l-0.6807-0.3906l-1.2197-0.7099l-0.0996-0.0596h-0.0108l-0.33-0.1904l-0.4092-0.2403
	h-0.0108l-0.4296-0.25l-0.9903-0.5693l-0.0801-0.041l-0.0293-0.0196V37.7038l0.7793-0.4492l1.5899-0.9199l0.3603-0.211
	l3.3799-1.9492l1.0606-0.6094l5.7793-3.3408h0.0107l0.9092-0.5205l1.0508-0.6191l1.8193-1.0508h0.0107l0.8692-0.5098l3.6308-2.0801
	l0.6397-0.3789l0.9404-0.541l0.1699-0.0898l1.6592-0.9492l0.7803-0.4512l0.3799-0.2188l0.4404-0.2607l0.6699-0.3897l0.4297-0.2597
	l0.5205-0.3008l0.5-0.2793l0.5899-0.3398l1.1894-0.6807l0.6905-0.4102l0.75-0.4296l0.6503-0.3702h0.0098l0.0498-0.0293l0.4297-0.25
	l5.29-3.0507l0.1104-0.0606l0.0801-0.0488l0.2695-0.1602l5.5205-3.1904l0.5498-0.3193l1.4404-0.8301l0.5098,0.2988l1.0899,0.6309
	l2.8603,1.6504l3.0898,1.789l2.5997,1.5l0.2197,0.1309l4.6904,2.6992l0.9805,0.5703l5.1299,2.96l0.9101,0.5205l1.0391,0.6094
	l2.3008,1.3105l0.8701,0.5l0.6894,0.3994l0.8301,0.4795l0.4902,0.2813l0.5801,0.3398l0.2998,0.1699l0.7998,0.459l0.0899,0.0606
	l1.8105,1.04l2.1602,1.2402l1.1191,0.6494l0.5,0.2911l0.0401,0.0293v0.0097l0.2607,0.1406l0.6592,0.3897l1.4609,0.8398
	l1.9395,1.1202l0.7802,0.4394l0.4395,0.25l0.4902,0.2813l1.4502,0.8398l0.17,0.0996l0.8496,0.4902L101.9941,37.7038z"/>
<g id="Layer_2_5_">
	<g id="Layer_16_5_">
		<path class="st2" d="M55.9629,11.1696L9.8936,37.7292v53.1211l1.6699,0.96l0.6299,0.3691h0.0097l8.4297,4.8603l1.0401,0.5997
			l9.3408,5.3808l1.04,0.5996l2.1797,1.2598l0.4902,0.2803l0.4297,0.2597l0.3701,0.21l3.1299,1.7998l3.3096,1.9102l1.2803,0.7402
			v0.0098l12.7197,7.3203l34.29-19.7705l1.0508-0.6094l10.7295-6.1797V37.7292L55.9629,11.1696z M100.1631,89.78l-12.5703,7.25
			l-1.0596,0.6094l-30.5703,17.6308l-12.5098-7.2099L25.373,97.6394L24.3232,97.03l-12.58-7.25V38.8093L55.9629,13.32
			l44.2002,25.4893V89.78z"/>
	</g>
</g>
<g>
	<g transform="translate(0 6)">
		<g>
			<path class="st3" d="M26.1006,82.5222c-14.4893-14.0039-15.9268-27.4551-4.3145-40.3535
				c17.42-19.3477,33.6905-4.4356,58.2901-10.7383c24.5986-6.3028,18.8359,48.9043,2.1484,51.3564
				C71.1016,84.4206,52.3926,84.3327,26.1006,82.5222L26.1006,82.5222z"/>
		</g>
		<g class="st4">
			<path class="st5" d="M28.8184,47.3718c0.2832,0.498,0.1123,1.1338-0.3819,1.4238l-10.7842,6.3096
				c-0.4882,0.2861-1.1152,0.1211-1.4013-0.3662c-0.002-0.0039-0.0039-0.0069-0.0059-0.0108
				c-0.2842-0.5-0.1142-1.1347,0.3819-1.4248l10.7841-6.3096c0.4873-0.2851,1.1153-0.121,1.4004,0.3672
				C28.8145,47.3649,28.8154,47.3679,28.8184,47.3718L28.8184,47.3718z M89.3867,33.7663c0.2832,0.5,0.1133,1.1338-0.3828,1.4238
				l-10.7832,6.3096c-0.4873,0.2861-1.1152,0.1211-1.4004-0.3662c-0.0019-0.0039-0.0039-0.0078-0.0058-0.0117
				c-0.2842-0.499-0.1143-1.1328,0.3818-1.4239l10.7832-6.3085c0.4873-0.2872,1.1152-0.1221,1.4014,0.3652
				C89.3828,33.7585,89.3848,33.7624,89.3867,33.7663L89.3867,33.7663z M84.6094,59.3054c0.2842,0.5,0.1142,1.1347-0.3819,1.4248
				l-10.7832,6.3086c-0.4873,0.2861-1.1152,0.122-1.4013-0.3662c-0.002-0.0039-0.0039-0.0069-0.0059-0.0108
				c-0.2832-0.499-0.1133-1.1338,0.3818-1.4238l10.7842-6.3096c0.4883-0.2861,1.1153-0.1211,1.4004,0.3672
				C84.6055,59.2985,84.6074,59.3024,84.6094,59.3054z M89.3867,45.4616c0.2832,0.5,0.1133,1.1338-0.3828,1.4248L78.2207,53.196
				c-0.4873,0.2852-1.1152,0.1211-1.4004-0.3672c-0.0019-0.0039-0.0039-0.0068-0.0058-0.0107
				c-0.2842-0.4991-0.1143-1.1338,0.3818-1.4239l10.7832-6.3095c0.4873-0.2862,1.1152-0.1221,1.4014,0.3672
				C89.3828,45.4548,89.3848,45.4587,89.3867,45.4616z M40.9043,55.487c0.2842,0.499,0.1133,1.1338-0.3818,1.4238l-10.7842,6.3096
				c-0.4873,0.2861-1.1153,0.1221-1.4014-0.3662c-0.0019-0.0039-0.0039-0.0078-0.0058-0.0107
				c-0.2823-0.5-0.1123-1.1338,0.3818-1.4239l10.7851-6.3095c0.4874-0.2862,1.1153-0.1221,1.3995,0.3662
				C40.9004,55.4802,40.9023,55.4831,40.9043,55.487z"/>
		</g>
		<g class="st6">
			<ellipse class="st5" cx="24.7868" cy="64.7389" rx="1.0747" ry="1.0743"/>
		</g>
		<g class="st6">
			<ellipse class="st5" cx="31.7127" cy="46.5988" rx="1.0747" ry="1.0742"/>
		</g>
		<g class="st6">
			<ellipse class="st5" cx="86.8823" cy="58.0558" rx="1.0752" ry="1.0743"/>
		</g>
		<g class="st6">
			<ellipse class="st5" cx="74.4637" cy="41.8249" rx="1.0747" ry="1.0742"/>
		</g>
	</g>
	<g transform="translate(37 2)">
		<g>
			<path class="st7" d="M30.6885,68.3063l-14.2549,0.1788L2.1787,68.3063c0,0-13.5654,2.2969-14.5371,21.6758H45.21
				C44.2383,70.6032,30.6885,68.3063,30.6885,68.3063z"/>
			<path class="st8" d="M45.21,90.4167h-57.5684c-0.1191,0-0.2334-0.0488-0.3154-0.1348c-0.0821-0.0869-0.1241-0.2031-0.1182-0.3213
				c0.5098-10.165,4.5147-15.624,7.7842-18.414c3.5625-3.0401,6.9707-3.6455,7.1133-3.669
				c0.0263-0.0039,0.0537-0.0058,0.0791-0.0058l14.2539,0.1787l14.2441-0.1787c0.0274,0,0.0518,0.0019,0.0781,0.0058
				c0.1436,0.0235,3.5479,0.6289,7.1055,3.669c3.2666,2.79,7.2676,8.249,7.7783,18.414c0.0059,0.1182-0.0371,0.2344-0.1201,0.3213
				C45.4424,90.3679,45.3291,90.4167,45.21,90.4167z M-11.8984,89.5466H44.75c-0.5859-9.5322-4.3379-14.669-7.4102-17.3067
				c-3.1923-2.7412-6.3242-3.4267-6.6894-3.499l-14.2119,0.1787L2.2168,68.7409c-0.3662,0.0723-3.502,0.7578-6.6973,3.499
				C-7.5557,74.8786-11.3125,80.0144-11.8984,89.5466z"/>
		</g>
		<g>
			<path class="st7" d="M55.0039,79.2634H29.4443v-7.8613h25.5596V79.2634z"/>
			<path class="st8" d="M55.4385,79.6979H29.0098v-8.7304h26.4287V79.6979z M29.8789,78.8288h24.6904l-0.0009-6.9912H29.8789
				V78.8288z"/>
		</g>
		<g>
			<path class="st7" d="M37.5713,71.8317c-2.0479-10.3291-3.8809-8.2207-4.0967-20.4873
				c-0.2148-12.084-7.5576-17.6855-16.8154-17.5761C7.4131,33.6589,0.0654,39.2526-0.1455,51.3454
				C-0.3613,63.611-2.1943,61.4978-4.2422,71.8317C-6.29,82.1647,5.8047,80.3278,5.8047,80.3278L16.252,80.444h0.8261
				l10.4463-0.1162C27.5244,80.3278,39.6191,82.1638,37.5713,71.8317z"/>
			<path class="st8" d="M3.7813,80.8894c-2.3487,0-5.5284-0.4629-7.3399-2.669c-1.2783-1.5576-1.6523-3.7353-1.1103-6.4726
				c0.7949-4.0059,1.5439-6.1211,2.205-7.9874c1.0166-2.8701,1.752-4.9453,1.8838-12.4228
				c0.0996-5.7539,1.8496-10.4522,5.0586-13.583c3.0186-2.9473,7.2324-4.4795,12.1856-4.4209c0.08-0.001,0.1699-0.002,0.2607-0.002
				c4.835,0,8.958,1.5303,11.9229,4.4248c3.2089,3.1329,4.9599,7.8282,5.0625,13.5811c0.1308,7.4795,0.8662,9.5547,1.8828,12.4268
				c0.6611,1.8662,1.4111,3.9804,2.2041,7.9834c0.5429,2.7363,0.1689,4.914-1.1104,6.4716c-1.8105,2.2071-4.9912,2.67-7.3408,2.67
				l0,0c-1.083,0-1.8721-0.1016-2.0498-0.127L17.082,80.8786h-0.83L5.833,80.7624C5.6553,80.7878,4.8652,80.8894,3.7813,80.8894z
				 M16.3945,34.2019c-9.8974,0-15.9189,6.4111-16.1054,17.1503c-0.1348,7.6202-0.8887,9.751-1.9336,12.6983
				c-0.6514,1.8389-1.3897,3.9219-2.1709,7.8662c-0.4893,2.4697-0.1768,4.4043,0.9287,5.751
				c1.5957,1.9443,4.5078,2.3515,6.668,2.3515c1.1396,0,1.9501-0.1201,1.958-0.1201l0.0341-0.0068l0.0352,0.001l10.4482,0.1162
				h0.8213l10.4776-0.1172l0.0341,0.0068c0.0079,0,0.8174,0.1201,1.9561,0.1201c2.1611,0,5.0742-0.4072,6.6699-2.3515
				c1.1055-1.3467,1.418-3.2823,0.9297-5.751c-0.7822-3.9414-1.5195-6.0244-2.1709-7.8623
				c-1.0449-2.9492-1.8008-5.0811-1.9346-12.7022c-0.1904-10.7392-6.2148-17.1503-16.1152-17.1503c-0.0869,0-0.1738,0-0.2607,0
				C16.5674,34.2019,16.4805,34.2019,16.3945,34.2019z"/>
		</g>
		<g>
			<path class="st9" d="M34.0322,68.8933c-1.6787-8.4366-3.1787-6.7129-3.3535-16.7266
				c-0.1767-9.8652-6.1924-14.4395-13.7705-14.3496c-7.585-0.0899-13.6016,4.4844-13.7754,14.3457
				c-0.1777,10.0137-1.6777,8.29-3.3564,16.7256c-1.6778,8.4365,8.2295,6.9355,8.2295,6.9355l8.5576,0.0957h0.6767l8.5577-0.0957
				c0,0,9.9052,1.5059,8.2343-6.9316V68.8933z"/>
			<path class="st8" d="M27.4629,76.363c-0.8848,0-1.5342-0.082-1.6924-0.1035l-9.207,0.0947l-8.5293-0.0947
				C7.876,76.281,7.2285,76.362,6.3467,76.362c-1.9434,0-4.5742-0.3838-6.0752-2.2139c-1.0606-1.29-1.3701-3.0878-0.9209-5.3447
				c0.6514-3.2754,1.2656-5.0049,1.8076-6.5312c0.832-2.3369,1.4316-4.0264,1.54-10.1172c0.0831-4.7149,1.5254-8.5674,4.168-11.1387
				c2.4443-2.3769,5.8408-3.6348,9.8213-3.6348l0.2266,0.002l0.2148-0.002c3.9775,0,7.3711,1.2579,9.8145,3.6348
				c2.6435,2.5733,4.0849,6.4268,4.1699,11.1436c0.1064,6.0918,0.706,7.7812,1.5361,10.1181
				c0.542,1.5264,1.1572,3.2559,1.8076,6.5303c0.4473,2.2559,0.1368,4.0527-0.9228,5.3428
				C32.0332,75.9792,29.4043,76.363,27.4629,76.363z M25.8281,75.3894l0.0352,0.0048c0.0068,0.001,0.6689,0.0987,1.5996,0.0987
				c1.4355,0,4.0469-0.2451,5.3994-1.8926c0.8867-1.0801,1.1367-2.6357,0.7432-4.6231c-0.6397-3.2128-1.2432-4.9101-1.7754-6.4082
				c-0.8565-2.415-1.4776-4.1601-1.5869-10.3945c-0.1553-8.7187-5.0577-13.9238-13.1143-13.9238l-0.2148,0.001l-0.2266-0.001
				c-8.0615,0-12.9668,5.2041-13.1201,13.9199c-0.1113,6.2334-0.7315,7.9785-1.5889,10.3926
				c-0.5332,1.498-1.1367,3.1972-1.7754,6.4101c-0.3965,1.9883-0.1465,3.544,0.7403,4.6241
				c1.3535,1.6494,3.9668,1.8955,5.4033,1.8955c0.9277,0,1.5879-0.0977,1.5947-0.0987l0.0342-0.0048h0.0351l9.2295,0.0947
				L25.8281,75.3894z"/>
		</g>
		<g>
			<path class="st1" d="M3.6475,52.861c-0.0606-4.7588,2.4296-9.1826,6.5195-11.5791c4.0859-2.3984,9.1484-2.3984,13.2344,0
				c4.0898,2.3965,6.58,6.8203,6.5205,11.5791l-3.2403,12.8243H6.8896L3.6475,52.861z M23.9785,71.6403H9.5762
				c-1.5616-0.0078-2.8252-1.2851-2.8252-2.8584v-3.0966h20.0664v3.0966C26.8174,70.3601,25.5459,71.6403,23.9785,71.6403
				L23.9785,71.6403z"/>
			<path class="st8" d="M23.9785,72.0749H9.5762c-1.7989-0.0078-3.2598-1.4863-3.2598-3.293l0.0137-3.5312l-3.1172-12.334v-0.0508
				c-0.0625-4.9053,2.5176-9.4883,6.7344-11.959c2.0713-1.2148,4.4345-1.8574,6.8369-1.8574c2.4013,0,4.7656,0.6426,6.8369,1.8574
				c4.2158,2.4707,6.7969,7.0537,6.7344,11.959l-0.0127,0.1016l-3.1035,12.2832h0.0127v3.5312
				C27.252,70.5974,25.7842,72.0749,23.9785,72.0749z M7.1865,66.1198v2.6621c0,1.3301,1.0723,2.417,2.3916,2.4248h14.4004
				c1.3252,0,2.4043-1.0888,2.4043-2.4248v-2.6621H7.1865z M7.2275,65.2507h19.1153l3.1445-12.4463
				c0.0391-4.5752-2.373-8.8428-6.3057-11.1484c-1.9384-1.1377-4.1503-1.7373-6.3974-1.7373s-4.459,0.5996-6.3975,1.7373
				c-3.9326,2.3056-6.3457,6.5732-6.3056,11.1484L7.2275,65.2507z"/>
		</g>
		<g>
			<path class="st10" d="M13.2344,60.2077c-2.5362-1.1113-4.4043-3.3476-5.0479-6.041c-0.6426-2.6924,0.0156-5.5293,1.7783-7.6641
				c1.6202-1.9609,11.8204-2.0605,13.4385-0.2353c1.8711,2.1113,2.6192,4.9912,2.0127,7.7471
				c-0.6074,2.7568-2.4961,5.0566-5.0801,6.1914"/>
		</g>
		<g>
			<path class="st8" d="M12.4844,60.8806c-0.0664,0-0.1338-0.0157-0.1973-0.0479c-2.3935-1.2119-4.1816-3.4346-4.9043-6.0986
				c-0.6299-2.3242-0.3994-4.8028,0.6231-6.9463c-1.4727,0.8525-2.834,1.9219-4.0459,3.1904
				c-0.1651,0.1748-0.4405,0.1807-0.6133,0.0156c-0.1738-0.1669-0.1807-0.4414-0.0147-0.6152
				c3.4942-3.6631,8.1866-5.7392,13.2129-5.8467c5.0342-0.1093,9.7969,1.7637,13.4395,5.2705
				c0.1738,0.1661,0.1787,0.4414,0.0117,0.6143c-0.166,0.1729-0.4414,0.1777-0.6143,0.0107
				c-1.3935-1.3408-2.9609-2.4316-4.6464-3.25c1.2548,2.17,1.6406,4.7569,1.0556,7.2364c-0.6592,2.7929-2.4765,5.1328-4.9863,6.4179
				c-0.2139,0.1094-0.4766,0.0245-0.585-0.1894c-0.1103-0.2129-0.0244-0.4746,0.1885-0.584
				c2.2822-1.1689,3.9365-3.2998,4.5371-5.8447c0.6006-2.5469,0.0781-5.2188-1.4336-7.3311
				c-0.0596-0.083-0.0859-0.1797-0.081-0.2744c-2.1612-0.8428-4.4854-1.2549-6.8662-1.208
				c-2.5528,0.0557-5.0137,0.6426-7.2608,1.7061c0,0.0771-0.0205,0.1562-0.0644,0.2265c-1.3047,2.1289-1.6758,4.7422-1.0166,7.1738
				c0.6572,2.4258,2.2822,4.4502,4.457,5.5518c0.2148,0.1074,0.3008,0.3701,0.1924,0.583
				C12.7949,60.7927,12.6426,60.8806,12.4844,60.8806z"/>
		</g>
		<g>
			<path class="st10" d="M5.5576,60.3259h22.4541"/>
		</g>
		<g>
			<ellipse class="st1" cx="19.0532" cy="49.3688" rx="2.2695" ry="2.2627"/>
		</g>
		<g>
			<ellipse class="st1" cx="22.0391" cy="52.8229" rx="0.955" ry="0.9531"/>
		</g>
		<g>
			<path class="st11" d="M5.5576,60.2097l22.4541-0.002l-1.3183,5.4776H6.8604L5.5576,60.2097z"/>
			<path class="st8" d="M27.0361,66.1198H6.5176l-1.5108-6.3447l23.5557-0.002L27.0361,66.1198z M7.2041,65.2507h19.1455
				l1.1094-4.6094l-21.3516,0.002L7.2041,65.2507z"/>
		</g>
		<g>
			<path class="st8" d="M24.667,64.2155c-0.8106,0-1.1924-0.6474-1.499-1.167c-0.2969-0.5029-0.4688-0.7392-0.752-0.7392
				c-0.2842,0-0.456,0.2363-0.7529,0.7392c-0.3067,0.5196-0.6885,1.167-1.499,1.167c-0.8116,0-1.1934-0.6474-1.5-1.167
				c-0.2969-0.5029-0.4668-0.7392-0.751-0.7392c-0.2842,0-0.4541,0.2363-0.751,0.7383c-0.3076,0.5205-0.6894,1.1679-1.5019,1.1679
				s-1.1954-0.6474-1.502-1.1679c-0.2969-0.502-0.4668-0.7383-0.751-0.7383s-0.4541,0.2363-0.7519,0.7392
				c-0.3076,0.5196-0.6905,1.167-1.501,1.167s-1.1934-0.6474-1.5-1.167c-0.2979-0.5029-0.4688-0.7392-0.7529-0.7392
				c-0.2412,0-0.4346-0.1953-0.4346-0.4346c0-0.2402,0.1934-0.4355,0.4346-0.4355c0.8095,0,1.1933,0.6474,1.5009,1.167
				c0.2969,0.5029,0.4678,0.7392,0.752,0.7392c0.2842,0,0.4551-0.2363,0.7529-0.7392c0.3067-0.5196,0.6895-1.167,1.5-1.167
				c0.8116,0,1.1934,0.6474,1.4991,1.167c0.2968,0.5029,0.4687,0.7392,0.7539,0.7392c0.2841,0,0.456-0.2363,0.7529-0.7402
				c0.3076-0.5186,0.6894-1.166,1.5-1.166c0.8105,0,1.1924,0.6474,1.499,1.167c0.2969,0.5029,0.4678,0.7392,0.752,0.7392
				c0.2841,0,0.4541-0.2363,0.7509-0.7392c0.3067-0.5196,0.6885-1.167,1.501-1.167c0.8106,0,1.1934,0.6474,1.5,1.167
				c0.2969,0.5029,0.4668,0.7392,0.751,0.7392c0.2402,0,0.4346,0.1943,0.4346,0.4346
				C25.1016,64.0202,24.9072,64.2155,24.667,64.2155z"/>
		</g>
		<g>
			<path class="st11" d="M25.3828,74.7731H8.6621c-0.4805,0-0.8691-0.3896-0.8691-0.8691c0-0.4805,0.3886-0.8691,0.8691-0.8691
				h16.7207c0.4805,0,0.8701,0.3886,0.8701,0.8691C26.2529,74.3835,25.8633,74.7731,25.3828,74.7731z"/>
		</g>
		<g transform="translate(101.396 126.593)">
			<g>
				<path class="st8" d="M-51.0415-43.9175c-0.1914,0-0.3682-0.1289-0.419-0.3233l-2.4775-9.3281
					c-0.0615-0.2314,0.0772-0.4697,0.3096-0.5312c0.2334-0.0616,0.4697,0.0771,0.5322,0.3086l2.4756,9.3281
					c0.0615,0.2314-0.0762,0.4697-0.3086,0.5312C-50.9663-43.9224-51.0034-43.9175-51.0415-43.9175z"/>
			</g>
			<g>
				<path class="st1" d="M-72.3511-43.396l-0.2187-0.7852c-0.6348-2.2744,0.6963-4.6338,2.9717-5.2685
					c0.0371-0.0098,0.0751-0.0196,0.1113-0.0293l20.792-5.1885c2.247-0.5606,4.5332,0.7705,5.1543,3.0019l0.2187,0.7842
					c0.6348,2.2754-0.6953,4.6348-2.9717,5.2676c-0.0371,0.0107-0.0752,0.0205-0.1123,0.0303l-20.79,5.1884
					C-69.4439-39.8335-71.729-41.1646-72.3511-43.396z"/>
				<path class="st8" d="M-68.2349-39.8316c-2.1045,0-3.9687-1.4179-4.5361-3.4482l-0.2178-0.7842
					c-0.6972-2.5029,0.7705-5.1064,3.2735-5.8037c0.0429-0.0117,0.083-0.0215,0.124-0.0332l20.791-5.1875
					c0.375-0.0947,0.7598-0.1416,1.1436-0.1416c2.1045,0,3.9697,1.418,4.5361,3.4473l0.2178,0.7851
					c0.3379,1.2119,0.1836,2.4824-0.4346,3.5791c-0.6182,1.0957-1.626,1.8858-2.8389,2.2236
					c-0.04,0.0118-0.0801,0.0225-0.1211,0.0323l-20.7939,5.1894C-67.4663-39.8794-67.8511-39.8316-68.2349-39.8316z
					 M-47.6567-54.3609c-0.3125,0-0.626,0.0391-0.9336,0.1153l-20.8926,5.2158c-2.0401,0.5693-3.2373,2.6914-2.669,4.7324
					l0.2188,0.7842c0.4609,1.6562,1.9824,2.8115,3.6982,2.8115c0.3125,0,0.626-0.0381,0.9336-0.1142l20.8907-5.2159
					c0.9902-0.2754,1.8115-0.9199,2.3164-1.8144c0.5048-0.8936,0.6298-1.9297,0.3545-2.918l-0.2188-0.7851
					C-44.4204-53.2046-45.9409-54.3609-47.6567-54.3609z"/>
			</g>
			<g>
				<path class="st8" d="M-56.7075-42.4322c-0.1924,0-0.3682-0.1289-0.4209-0.3222l-2.4756-9.3291
					c-0.0615-0.2315,0.0762-0.4688,0.3086-0.5313c0.2334-0.0615,0.4707,0.0772,0.5322,0.3086l2.4766,9.3272
					c0.0615,0.2334-0.0772,0.4707-0.3086,0.5332C-56.6333-42.4361-56.6704-42.4322-56.7075-42.4322z"/>
			</g>
			<g>
				<path class="st11" d="M-52.2788-49.0171l8.8516-2.3203"/>
				<path class="st8" d="M-52.2788-48.148c-0.3867,0-0.7383-0.2588-0.8408-0.6494c-0.1221-0.4639,0.1552-0.9385,0.6201-1.0605
					l8.8515-2.3204c0.4639-0.1201,0.9395,0.1563,1.0616,0.6211c0.1211,0.4639-0.1563,0.9395-0.6211,1.0606l-8.8506,2.3203
					C-52.1314-48.1568-52.2065-48.148-52.2788-48.148z"/>
			</g>
			<g>
				<path class="st1" d="M-81.4292-39.9341l6.1572-1.6143c0.4131-0.1074,0.7676-0.374,0.9834-0.7431
					c0.2149-0.3662,0.2754-0.8047,0.166-1.2168l-0.3496-1.3155c-0.2275-0.8564-1.1103-1.3671-1.9707-1.1406l-6.1592,1.6123"/>
				<path class="st8" d="M-81.4292-39.065c-0.3857,0-0.7373-0.2578-0.8408-0.6494c-0.1201-0.4639,0.1562-0.9385,0.622-1.0605
					l6.1553-1.6153c0.1934-0.0488,0.3535-0.1709,0.4541-0.3408c0.0977-0.166,0.125-0.3682,0.0762-0.5537l-0.3486-1.3164
					c-0.1055-0.3926-0.5127-0.6279-0.9112-0.5225l-6.1592,1.6123c-0.4658,0.1211-0.9394-0.1572-1.0625-0.6211
					c-0.121-0.4638,0.1573-0.9394,0.6221-1.0605l6.1592-1.6123c1.3203-0.3467,2.6807,0.4414,3.0303,1.7578l0.3496,1.3164
					c0.168,0.6318,0.0742,1.3174-0.2569,1.8809c-0.3349,0.5693-0.872,0.9765-1.5136,1.1425l-6.1553,1.6153
					C-81.2827-39.0738-81.355-39.065-81.4292-39.065z"/>
			</g>
			<g>
				<ellipse class="st11" cx="-82.0149" cy="-42.1424" rx="2.2994" ry="2.2857"/>
				<path class="st8" d="M-82.0151-38.9878c-1.7471,0-3.169-1.4151-3.169-3.1543c0-1.7403,1.4219-3.1553,3.169-3.1553
					c1.747,0,3.1689,1.415,3.1689,3.1553C-78.8462-40.4029-80.2681-38.9878-82.0151-38.9878z M-82.0151-43.5581
					c-0.7891,0-1.4307,0.6347-1.4307,1.416c0,0.7803,0.6416,1.416,1.4307,1.416c0.788,0,1.4306-0.6357,1.4306-1.416
					C-80.5845-42.9234-81.2271-43.5581-82.0151-43.5581z"/>
			</g>
			<g>
				<ellipse class="st11" cx="-67.508" cy="-45.0833" rx="2.5689" ry="2.5533"/>
				<path class="st8" d="M-67.5073-41.6617c-1.8975,0-3.4395-1.5341-3.4395-3.4218c0-1.8867,1.542-3.4229,3.4395-3.4229
					c1.8945,0,3.4375,1.5362,3.4375,3.4229C-64.0698-43.1958-65.6128-41.6617-67.5073-41.6617z M-67.5073-46.7681
					c-0.9385,0-1.7012,0.7568-1.7012,1.6846c0,0.9287,0.7627,1.6845,1.7012,1.6845c0.9355,0,1.6992-0.7558,1.6992-1.6845
					C-65.8081-46.0113-66.5718-46.7681-67.5073-46.7681z"/>
			</g>
		</g>
	</g>
</g>
<g>
	<path class="st8" d="M69.4502,114.8532l1.5654-0.8994l0.0713,0.1231c0.1651,0.2851,0.2754,0.5585,0.336,0.8144
		c0.0498,0.2412,0.0488,0.4951-0.0049,0.7617c-0.1241,0.5977-0.4571,1.0518-1,1.3653c-0.5303,0.3046-1.0938,0.375-1.6924,0.2099
		c-0.5996-0.167-1.0537-0.5205-1.3633-1.0586c-0.3164-0.5498-0.3926-1.1259-0.2285-1.7304
		c0.1641-0.6045,0.5205-1.0664,1.0723-1.3848c0.2959-0.1699,0.6074-0.2686,0.9335-0.2959c0.3135-0.0215,0.669,0.0361,1.0616,0.1699
		l-0.1836,0.626c-0.5488-0.2354-1.0469-0.2246-1.4922,0.0322c-0.4024,0.2305-0.6582,0.5615-0.7705,0.9961
		c-0.1153,0.4268-0.0547,0.8457,0.1806,1.2549c0.2422,0.4228,0.5928,0.6826,1.0528,0.7812
		c0.4297,0.0899,0.8086,0.0401,1.1416-0.1503c0.2803-0.1612,0.4775-0.4004,0.5928-0.7188c0.1132-0.3203,0.1084-0.6191-0.0176-0.9023
		l-0.9463,0.5439L69.4502,114.8532z"/>
	
		<rect x="73.0428" y="110.5163" transform="matrix(0.8665 -0.4992 0.4992 0.8665 -46.4663 51.678)" class="st8" width="0.6595" height="4.3716"/>
	<polygon class="st8" points="76.1396,109.3024 78.0098,112.5544 77.4395,112.8825 75.5684,109.6325 74.6973,110.1335 
		74.3877,109.5964 76.6982,108.2663 77.0068,108.8034 	"/>
	<path class="st8" d="M81.2979,105.8884l0.3886,0.6767c-0.4902-0.0869-0.9121-0.0283-1.2646,0.1748
		c-0.3887,0.2247-0.6377,0.5538-0.7432,0.9854c-0.1084,0.4326-0.0459,0.8506,0.1856,1.2529
		c0.2275,0.3975,0.5566,0.6563,0.9814,0.7754c0.4258,0.1182,0.832,0.0654,1.2236-0.1582c0.1993-0.1162,0.3526-0.2471,0.4551-0.3935
		c0.0596-0.0782,0.1162-0.168,0.168-0.2725c0.0517-0.1045,0.1025-0.2227,0.1504-0.3555l0.3974,0.6905
		c-0.2197,0.375-0.5117,0.665-0.8711,0.873c-0.541,0.3115-1.1113,0.3867-1.7109,0.2305c-0.6016-0.1621-1.0566-0.5117-1.3672-1.0498
		c-0.2773-0.4825-0.3633-1.0049-0.2627-1.5664c0.124-0.6895,0.501-1.2129,1.124-1.5713
		C80.4922,105.9841,80.874,105.8864,81.2979,105.8884"/>
	<path class="st1" d="M84.0693,105.7185c-0.3066-0.5332-0.374-1.1036-0.2041-1.71c0.17-0.6074,0.5274-1.0684,1.0733-1.3838
		c0.54-0.3096,1.1142-0.3828,1.7217-0.2197c0.6113,0.164,1.0712,0.5156,1.3828,1.0566c0.3125,0.544,0.3857,1.1192,0.2138,1.7227
		c-0.1718,0.6054-0.5341,1.0683-1.0869,1.3857c-0.4892,0.2832-1.0263,0.3643-1.6103,0.251
		C84.915,106.694,84.4189,106.3259,84.0693,105.7185 M84.6484,105.3933c0.2412,0.4179,0.5801,0.6816,1.0166,0.789
		c0.4346,0.1084,0.836,0.0576,1.2032-0.1533c0.3974-0.2285,0.6533-0.5586,0.7695-0.9902c0.1123-0.4356,0.0557-0.8526-0.1758-1.251
		c-0.2324-0.4043-0.5615-0.665-0.9883-0.7822c-0.4267-0.1211-0.8388-0.0674-1.2343,0.1611
		c-0.3946,0.2275-0.6475,0.5557-0.7608,0.9863C84.3633,104.5817,84.4199,104.9948,84.6484,105.3933"/>
	
		<rect x="90.0273" y="100.7416" transform="matrix(0.8663 -0.4995 0.4995 0.8663 -39.3338 58.8972)" class="st8" width="0.6597" height="4.3707"/>
	<polygon class="st8" points="93.9502,103.3815 91.6211,99.3347 96.0488,100.6354 94.5332,98.0017 95.1035,97.6735 97.418,101.694 
		92.9941,100.4001 94.5215,103.0524 	"/>
</g>
</svg>
