<?xml version="1.0" encoding="utf-8"?>
<!-- Generator: Adobe Illustrator 16.0.0, SVG Export Plug-In . SVG Version: 6.00 Build 0)  -->
<!DOCTYPE svg PUBLIC "-//W3C//DTD SVG 1.1//EN" "http://www.w3.org/Graphics/SVG/1.1/DTD/svg11.dtd">
<svg version="1.1" id="Layer_1" xmlns="http://www.w3.org/2000/svg" xmlns:xlink="http://www.w3.org/1999/xlink" x="0px" y="0px"
	 width="110.851px" height="127.999px" viewBox="8.894 -8.499 110.851 127.999"
	 enable-background="new 8.894 -8.499 110.851 127.999" xml:space="preserve">
<path fill="#1E6EE2" d="M119.744,87.5l-55.426,32l-55.425-32V23.501l55.424-32l55.426,32V87.5z"/>
<polygon fill="#83BBFF" points="110.82,29.23 110.82,82.36 100.39,88.38 100.15,88.5 100.02,88.56 99.91,88.62 91.61,93.42 
	90.95,93.8 90.55,94.03 64.78,108.91 64.77,108.92 53.28,102.28 23.96,85.33 22.51,84.5 22.35,84.4 21.85,84.11 18.82,82.36 
	18.82,29.23 64.81,2.68 64.82,2.67 79.5,11.15 "/>
<path fill="#1E6EE2" d="M16.26,26.588c5.477,2.013,10.955,4.024,16.432,6.038c3.238,1.191,6.475,2.387,9.713,3.579
	c0.234,0.086,0.474,0.159,0.759,0.255c0-6.084,0-12.116,0-18.324c3.902,4.203,7.735,8.333,11.647,12.547
	c3.99-9.267,7.938-18.439,11.971-27.806c0.086,0.409,0.131,0.627,0.2,0.963c0.268-0.71,0.494-1.315,0.723-1.921
	c0.048,0.002,0.097,0.003,0.145,0.007c0.752,8.838,1.504,17.676,2.268,26.661c4.32-3.311,8.543-6.55,12.85-9.851
	c-0.013,0.245-0.021,0.397-0.031,0.618c0.164-0.077,0.301-0.141,0.561-0.26c-1.648,6.247-3.271,12.391-4.93,18.675
	c7.621-1.257,15.123-2.494,22.756-3.753c-0.189,0.268-0.303,0.432-0.455,0.651h0.82c-4.938,4.927-9.808,9.788-14.679,14.648
	c0.038,0.07,0.076,0.139,0.111,0.208c4.983,0.776,9.966,1.554,15.054,2.346c-0.17,0.185-0.271,0.297-0.402,0.441
	c0.19,0.077,0.388,0.158,0.672,0.273c-4.767,3.216-9.471,6.39-14.25,9.616c6.457,6.928,12.879,13.813,19.299,20.701
	c-0.021,0.037-0.042,0.074-0.065,0.111c-0.569-0.199-1.139-0.404-1.769-0.629c0.061,0.192,0.093,0.301,0.156,0.5
	c-8.297-4.238-17.045-7.215-25.68-10.951c0.153,2.975,0.299,5.789,0.453,8.766c-4.747-2.854-9.393-5.647-14.087-8.471
	c-0.879,2.112-1.735,4.166-2.652,6.375c-2.511-2.211-4.938-4.349-7.408-6.526c-3.875,4.78-7.721,9.532-11.69,14.435
	c-0.063-0.656-0.109-1.125-0.165-1.697c-0.19,0.209-0.327,0.358-0.563,0.619c-0.225-5.841-0.445-11.543-0.669-17.365
	c-8.938,0.27-17.833,0.541-26.729,0.808c-0.014-0.042-0.027-0.087-0.041-0.13c0.224-0.139,0.448-0.278,0.687-0.428
	c-0.097-0.074-0.187-0.146-0.338-0.262c6.618-3.974,13.207-7.929,19.937-11.971c-4.198-1.43-8.262-2.816-12.51-4.264
	c3.886-2.093,7.638-4.114,11.063-5.958c-1.072-1.222-2.079-2.545-3.261-3.69c-5.078-4.916-10.204-9.781-15.316-14.661
	c-0.18-0.172-0.389-0.311-0.584-0.466C16.26,26.894,16.26,26.741,16.26,26.588z M64.85,65.619c3.631,2.561,7.217,5.09,10.948,7.721
	c-0.558-3.117-1.079-6.031-1.63-9.092c5.869,2.857,11.602,5.648,17.332,8.439c0.027-0.045,0.061-0.09,0.092-0.135
	c-3.744-3.76-7.488-7.52-11.285-11.333c4.514-2.592,8.903-5.116,13.447-7.726c-5.195-0.813-10.204-1.593-15.384-2.401
	c4.677-4.252,9.204-8.37,13.731-12.486c-0.026-0.039-0.057-0.077-0.082-0.117c-6.621,1.092-13.244,2.183-20,3.296
	c1.742-5.036,3.432-9.913,5.185-14.985c-3.724,2.858-7.279,5.583-10.957,8.403c-0.481-6.785-0.956-13.412-1.431-20.038
	c-0.055-0.002-0.111-0.004-0.166-0.005c-2.967,6.887-5.933,13.773-8.936,20.75c-3.234-3.483-6.399-6.89-9.624-10.363v15.105
	c-6.043-2.228-12.013-4.428-17.982-6.63c-0.028,0.054-0.057,0.107-0.086,0.161c4.208,4.027,8.416,8.055,12.674,12.131
	c-3.083,1.661-6.043,3.253-9.111,4.904c4.082,1.394,8.02,2.738,12.123,4.139c-5.062,3.041-9.956,5.978-14.85,8.919
	c0.023,0.051,0.045,0.1,0.069,0.149c5.687-0.401,11.375-0.804,17.136-1.213c0.168,4.381,0.333,8.668,0.498,12.954
	c0.061,0.008,0.122,0.016,0.183,0.021c2.661-4.012,5.321-8.023,8.02-12.095c2.442,2.679,4.828,5.296,7.278,7.98
	C62.999,69.878,63.905,67.791,64.85,65.619z"/>
<path fill="#FFE7A4" d="M68.184,57.99c-0.544,0.181-1.081,0.353-1.615,0.522c-0.285,0.046-0.46,0.104-0.92,0.293
	c-0.072,0.023-0.145,0.046-0.217,0.068c-1.108,0.174-2.198,0.405-3.265,0.75c-0.12-0.071-0.276-0.094-0.462-0.033
	c-0.722,0.237-1.422,0.473-2.099,0.758c-0.012,0.005-0.023,0.002-0.035,0.005c-0.201,0.063-0.392,0.139-0.586,0.209
	c-0.157-0.076-0.345-0.095-0.55,0.005c-0.331,0.164-0.678,0.281-1.028,0.396c-0.016,0.002-0.029-0.002-0.046,0
	c-0.498,0.098-0.854,0.227-1.188,0.455c-0.434,0.154-0.866,0.328-1.291,0.531c-0.013,0.003-0.024,0.001-0.037,0.006
	c-1.76,0.565-3.386,1.752-4.646,3.136c0.01-0.109-0.002-0.226-0.078-0.34c-0.583-0.896-1.349-1.554-2.077-2.334
	c-0.182-0.195-0.425-0.212-0.632-0.128c-0.263-0.19-0.537-0.375-0.822-0.547c-0.001-0.102-0.022-0.202-0.065-0.295
	c0.001-0.223-0.114-0.432-0.378-0.534c-0.037-0.043-0.079-0.084-0.133-0.116c-0.804-0.473-0.962-0.539-1.823-0.898
	c-0.285-0.12-0.54,0.037-0.671,0.272c-1.024-0.373-2.022-0.832-3.071-1.146c-0.06-0.048-0.132-0.091-0.221-0.117
	c-0.524-0.131-1.031-0.31-1.524-0.533c-0.173-0.07-0.324-0.05-0.445,0.021c-0.095-0.026-0.189-0.024-0.284-0.015
	c-0.339-0.337-0.682-0.762-1.108-1.013c-0.239-0.145-0.483-0.085-0.661-0.085H36.18c-0.184,0-0.363,0.154-0.483,0.347
	c-0.131,0.034-0.257,0.111-0.349,0.261c-0.086,0.141-0.15,0.278-0.2,0.419c-0.254,0.017-0.48,0.171-0.493,0.479
	c-0.039,0.917-0.113,1.763-0.152,2.678c-0.002,0.068,0.012,0.093,0.027,0.149c-0.132,1.491,0.002,2.865,1.034,4.176
	c0.021,0.057,0.038,0.109,0.059,0.168c0.02,0.337,0.053,0.677,0.098,1.02c0,0.021,0.002,0.039,0.001,0.062
	c0.001,0,0.003,0,0.005-0.001c0.007,0.055,0.008,0.108,0.017,0.163c0.017,0.128,0.077,0.216,0.151,0.286
	c-0.036,0.177-0.001,0.365,0.158,0.517c0.189,0.178,0.341,0.382,0.51,0.577c0.504,1.668,1.755,3.104,2.921,4.378
	c0.252,0.275,0.622,0.198,0.852-0.018c0.453,0.486,0.963,0.938,1.458,1.345c-0.1,0.202-0.086,0.45,0.129,0.655
	c0.179,0.168,0.341,0.3,0.505,0.432c0.503,0.745,1.276,1.72,2.096,2.428c-0.218,0.014-0.416,0.142-0.472,0.432
	c-0.372,1.961-0.282,3.892-0.251,5.879c0.007,0.438,0.412,0.658,0.793,0.554c-0.05,0.187-0.022,0.395,0.146,0.563
	c0.121,0.121,0.25,0.229,0.372,0.345c0.012,0.122,0.056,0.241,0.161,0.341c0.045,0.041,0.098,0.071,0.143,0.112
	c0.639,0.478,1.206,1.021,1.746,1.607c0.286,0.308,0.634,0.763,1.056,0.925c0.585,0.907,1.057,1.851,1.472,2.955
	c0.206,0.551,0.993,0.61,1.175,0c0.081-0.269,0.187-0.517,0.292-0.767c0.178,0.063,0.377,0.026,0.542-0.184
	c0.268-0.34,0.563-0.661,0.782-1.038c0.032-0.055,0.041-0.109,0.055-0.162c2.017-1.192,3.923-2.534,5.414-4.363
	c0.087-0.11,0.125-0.23,0.138-0.353c0.172-0.071,0.3-0.222,0.328-0.443c0.142-0.097,0.244-0.249,0.247-0.474
	c0.014-2.034,1.14-3.992,0.615-6.011c-0.002-0.13-0.004-0.262-0.006-0.392c-0.009-0.71-0.996-0.774-1.182-0.203
	c-0.01,0.019-0.023,0.027-0.031,0.048c-0.036,0.083-0.069,0.168-0.102,0.253c-0.056-0.03-0.116-0.051-0.178-0.065
	c0.134-0.146,0.273-0.285,0.4-0.439c0.146-0.179,0.167-0.438,0.099-0.658c0.062-0.06,0.125-0.12,0.188-0.177
	c0.174,0.045,0.371,0.018,0.553-0.157c0.308-0.295,0.598-0.606,0.88-0.928c1.016-0.977,2.171-1.792,3.212-2.744
	c0.297,0.051,0.633-0.119,0.701-0.429c0.031-0.147,0.048-0.264,0.064-0.381c0.327-0.344,0.676-0.672,1.014-1.009
	c0.227-0.019,0.445-0.145,0.536-0.421c0.028-0.103,0.079-0.191,0.114-0.29c0.37-0.452,0.672-0.948,0.83-1.535
	c0.08-0.173,0.158-0.346,0.236-0.519c0.157-0.232,0.324-0.464,0.512-0.712c0.155-0.2,0.124-0.422,0.005-0.598
	c0.262-0.776,0.434-1.579,0.453-2.437c0.139-0.839,0.276-1.675,0.312-2.531c0.007-0.157-0.048-0.282-0.133-0.38
	c0.174-0.078,0.345-0.157,0.518-0.237c0.495-0.229,0.32-1.044-0.178-1.123c-0.012-0.111-0.045-0.219-0.106-0.31
	c0.174-0.062,0.345-0.119,0.519-0.182C69.233,58.896,68.938,57.739,68.184,57.99z"/>
<path fill="#FFE7A4" d="M65.788,37.242c0.083-0.098,0.164-0.227,0.171-0.386c0.094-2.138-2.396-2.369-4.005-1.481
	c-1.178,0.1-2.241,0.513-3.116,1.354c-0.05,0.049-0.057,0.112-0.085,0.171c-1.017,0.288-1.961,0.752-2.877,1.291
	c-0.277,0.126-0.557,0.241-0.833,0.368c-0.081,0.008-0.162,0.008-0.241,0.02c-0.055-0.021-0.111-0.042-0.174-0.046
	c-0.813-0.066-1.606-0.019-2.396,0.06c-0.036-0.013-0.067-0.03-0.11-0.038c-0.977-0.146-1.956-0.248-2.938-0.349
	c-0.054-0.043-0.112-0.083-0.188-0.108c-0.489-0.167-0.677-0.224-0.955-0.263c-0.078-0.037-0.168-0.063-0.274-0.063h-0.121
	c-0.648-0.127-1.301-0.222-1.982-0.322c-0.135-0.04-0.267-0.071-0.403-0.113c-0.352-0.106-0.598,0.092-0.693,0.356
	c-0.678-0.057-1.302,0.119-1.875,0.506c-0.024,0.002-0.05,0.002-0.074,0.004c-1.49-0.496-2.983-0.147-4.541,0.238
	c-0.154,0.038-0.254-0.505-0.323,0.185c-0.788-0.17-1.584-0.288-2.413-0.321c-0.314-0.013-0.54,0.256-0.594,0.54
	c-0.063,0.122-0.088,0.264-0.068,0.399c-0.106,0.187-0.046,0.423,0.19,0.577c-0.31,0.028-0.595,0.149-0.595,0.467v0.533
	c0,0.447,0.546,0.715,0.906,0.562c0.048,0.073,0.127,0.142,0.214,0.193c1.232,0.704,2.469,1.211,3.813,1.662
	c0.103,0.034,0.204,0.034,0.296,0.011c1.285,1.478,4.361,2.596,5.512,3.281c0.181,0.086,0.354,0.084,0.5,0.028
	c0.695,0.462,1.427,0.867,2.258,1.135c-0.279,0.364-0.13,0.966,0.447,0.979c0.917,0.019,1.832-0.135,2.733-0.405
	c0.081,0.289,0.335,0.511,0.706,0.383c2.95-1.015,6.098-2.321,8.142-4.726c1.128-0.284,2.181-0.734,3.172-1.331
	c0.686-0.328,1.429-0.674,1.489-0.55c0.219,0.458,0.596,0.348,0.834,0.002c0.35,0.142,0.685-0.04,0.685-0.538v-0.687
	c0-0.012,0.186-0.021,0.184-0.032c-0.006-0.335,0.06-0.684,0.004-1.011C66.316,38.858,66.392,37.958,65.788,37.242z"/>
<path fill="#DDBF73" d="M68.184,58.219c-2.868,0.591-5.702,0.785-8.537,1.572c-1.604,0.446-3.604,0.662-4.843,1.862
	c-0.188,0.182-0.208,0.396-0.146,0.584c-1.451,0.667-2.847,1.462-4.152,2.446c-0.62,0.467-0.014,1.526,0.616,1.053
	c3.709-2.794,8.115-4.139,12.641-4.801c0.833,1.879,0.448,4.735,0.289,6.648c-0.05,0.601-0.252,1.122-0.528,1.602
	c-0.209,0.166-0.424,0.342-0.64,0.546c-0.177,0.168-0.205,0.364-0.158,0.542c-0.51,0.575-1.088,1.107-1.594,1.667
	c-1.32,1.458-2.212,3.307-3.84,4.479c-0.632,0.455-0.024,1.515,0.616,1.053c1.689-1.215,2.814-3.056,4.086-4.669
	c0.152,0.355,0.632,0.584,0.992,0.23c1.184-1.166,1.757-2.77,2.896-3.964c0.112-0.118,0.152-0.247,0.16-0.377
	c0.223-0.344,0.413-0.71,0.561-1.095c0.576-0.923,0.814-2.03,0.891-3.177c0.165-0.093,0.293-0.262,0.32-0.509
	c0.128-1.139-0.16-2.251-0.077-3.393c0.128-0.009,0.255-0.028,0.382-0.037c0.552-0.034,0.788-0.761,0.421-1.071
	c0.037-0.025,0.076-0.053,0.116-0.077C69.236,58.943,68.864,58.078,68.184,58.219z"/>
<path fill="#DDBF73" d="M66.291,39.061c0.251-0.77,0.337-1.59,0.05-2.366c-0.123-0.332-0.432-0.46-0.704-0.411
	c0.007-0.094,0.004-0.19-0.03-0.288c-0.263-0.743-0.712-0.77-1.398-0.945c-0.081-0.05-0.176-0.085-0.283-0.1
	c-0.182-0.023-0.307-0.032-0.426-0.032c-0.923-0.095-1.851,0.203-2.762,0.578c-0.077-0.012-0.161-0.012-0.251,0.01
	c-0.88,0.211-1.7,0.49-2.404,1.071c-0.194,0.159-0.226,0.373-0.163,0.564c-1.296,0.438-2.599,0.871-3.912,1.26
	c-1.612,0.477-2.988,0.618-4.535,0.38c0.048-0.063,0.082-0.143,0.102-0.24c0.163-0.829-0.437-0.984-1.099-1.014
	c-1.03-0.226-2.001-0.678-3.072-0.673c-0.888,0.003-1.704,0.679-2.524,0.937c-0.195,0.061-0.315,0.188-0.376,0.335
	c-2.593,0.367-4.934,0.99-7.761,0.274c-0.762-0.194-1.086,0.983-0.324,1.175c3.152,0.8,6.074,0.347,9.216-0.267
	c2.436-0.476,3.544,0.472,5.732,0.746c1.765,0.222,3.271,0.018,4.963-0.479c1.78-0.521,3.541-1.125,5.294-1.729
	c0.591-0.204,1.534-0.41,2.338-0.74c1.092,1.106,0.458,3.638,0.055,5.188c-3.93,1.697-7.288,4.568-11.593,5.539
	c-0.768,0.173-0.442,1.282,0.324,1.109c4.295-0.967,7.643-3.766,11.542-5.438c0.275,0.096,0.597,0.015,0.731-0.3
	c0.925-0.354,1.882-0.639,2.895-0.813c0.516-0.088,0.545-0.577,0.252-0.822c0.109-0.098,0.186-0.245,0.197-0.446
	c0.01-0.356,0.054-0.71,0.131-1.058c0.047-0.259-0.063-0.483-0.234-0.622C66.271,39.317,66.283,39.189,66.291,39.061z"/>
<path fill="#DDBF73" d="M58.966,82.785c0.034-0.934-0.063-1.891-0.072-2.789c-0.001-0.086-0.022-0.16-0.049-0.229
	c0.121-0.147,0.243-0.287,0.355-0.455c0.261-0.391,0.039-0.76-0.272-0.862c0.01-0.019,0.024-0.032,0.035-0.052
	c0.358-0.698-0.694-1.315-1.053-0.615c-0.149,0.289-0.315,0.542-0.497,0.772c-0.14,0.061-0.279,0.12-0.419,0.183
	c-0.072-0.218-0.246-0.382-0.539-0.343c-0.739,0.098-1.444,0.274-2.142,0.477c-0.369,0.015-0.726,0.076-1.145,0.231
	c-0.019,0.007-0.025,0.023-0.043,0.03c-1.284,0.038-2.564,0.097-3.845,0.274c-0.078,0.01-0.146,0.037-0.203,0.076
	c-0.585-0.074-1.168-0.172-1.76-0.305c-0.279-0.064-0.493,0.044-0.622,0.215c-0.095-0.119-0.189-0.239-0.248-0.398
	c-0.178-0.488-0.692-0.522-0.982-0.27c-0.135,0.003-0.264,0.038-0.371,0.129c-0.326-0.245-0.889-0.189-0.965,0.293
	c-0.096,0.612-0.163,1.22-0.117,1.839c0.002,0.027,0.015,0.053,0.02,0.078v0.911c3.659,0,5.908,0.073,8.717,0.078
	c1.127,0.002,2.171-0.101,3.128-0.369c0.006,0.944-0.033,1.889-0.084,2.832c-0.606,0.44-1.191,0.91-1.76,1.4
	c-0.689,0.592-1.321,1.248-1.896,1.953c-0.104,0.128-0.185,0.273-0.273,0.412c-0.1,0.055-0.187,0.128-0.29,0.179
	c-0.336,0.163-0.369,0.483-0.237,0.74c-0.275,0.52-0.57,1.022-1.059,1.394c-0.618,0.468-0.012,1.526,0.616,1.053
	c0.888-0.673,1.399-1.633,1.978-2.556c1.033-0.682,1.901-1.579,2.906-2.301c0.265,0.436,1.106,0.331,1.134-0.321
	c0.019-0.432,0.043-0.862,0.066-1.295c0.119-0.08,0.228-0.175,0.349-0.253c0.006,0.025,0.011,0.051,0.022,0.075
	c-0.01,0.017-0.017,0.035-0.029,0.05c-0.491,0.605,0.366,1.473,0.862,0.862c0.477-0.583,0.633-1.217,0.65-1.874
	c0.099-0.053,0.193-0.114,0.293-0.164C59.665,83.604,59.424,82.926,58.966,82.785z"/>
<path fill="#FF153C" d="M72.23,48.75c-0.021-0.3-0.07-0.46-0.211-0.66c0.011-0.08,0.03-0.14,0.051-0.18
	c0.22-0.36,0.01-0.75-0.33-0.87c-0.101-0.04-0.21-0.05-0.33-0.02h-0.03c-0.399,0.08-0.78,0.2-1.17,0.32c-0.01,0.01-0.01,0.01-0.02,0
	c-0.011,0-0.021,0-0.021,0c-0.07,0.02-0.11,0.05-0.18,0.07c-0.11-0.03-0.23-0.07-0.33-0.12c-0.01,0-0.01,0-0.021-0.01
	c-0.17-0.06-0.31-0.15-0.449-0.28c-0.11-0.08-0.23-0.1-0.341-0.09c-0.76-0.45-1.449-0.99-2.119-1.57l-0.011-0.01
	c-0.1-0.08-0.18-0.15-0.279-0.23c0.02-0.06,0.05-0.11,0.069-0.17c0.11-0.3,0.19-0.61,0.24-0.99c0-0.02-0.01-0.04-0.01-0.07
	c0.189-0.27,0.17-0.62-0.03-0.82c-0.02-0.03-0.04-0.05-0.07-0.07c-0.01,0-0.02,0-0.029-0.01c-0.07-0.04-0.15-0.08-0.261-0.09h-0.06
	c-0.09,0-0.18,0-0.271,0.01c-0.079,0-0.17,0.01-0.26,0.01c-0.18-0.11-0.41-0.13-0.62-0.02c-0.04,0.03-0.09,0.05-0.14,0.08
	c-0.64,0.08-1.28,0.24-1.87,0.51c-0.68,0.25-1.3,0.63-1.77,1.14c-0.18,0.08-0.37,0.17-0.55,0.26c-1.09,0.46-2.09,1.15-2.83,1.92
	c-1.23,0.46-2.42,0.99-3.57,1.61c-0.83,0.33-1.65,0.64-2.46,0.98c0,0-0.01,0.01-0.02,0.01c-0.12,0.04-0.23,0.08-0.34,0.13
	c-0.3,0.02-0.59,0.05-0.89,0.09h-0.01c-0.23,0.04-0.47,0.07-0.7,0.11c-0.06-0.13-0.19-0.23-0.39-0.27c-0.6-0.09-1.18-0.23-1.75-0.39
	c-1.02-0.74-2.22-1.34-3.48-1.73h-0.01c-0.06-0.02-0.12-0.04-0.18-0.06c-0.04-0.05-0.09-0.1-0.16-0.15
	c-0.12-0.08-0.25-0.15-0.37-0.23c-0.44-0.64-0.91-1.03-1.67-1.41c-0.13-0.06-0.25-0.08-0.36-0.07c-0.26-0.23-0.53-0.44-0.86-0.62
	c-0.12-0.06-0.24-0.08-0.36-0.07c-0.64-0.46-1.31-0.88-2.05-1.19c-0.19-0.11-0.39-0.21-0.59-0.31c-0.15-0.08-0.28-0.18-0.43-0.26
	c-0.09-0.05-0.18-0.07-0.26-0.08c-0.27-0.12-0.53-0.25-0.81-0.38c-0.21-0.09-0.45-0.09-0.64,0.02c-0.02,0.01-0.04,0.01-0.05,0.02
	c-0.04-0.01-0.08-0.02-0.11-0.03c-0.05-0.01-0.1-0.01-0.14-0.01c-0.1,0.01-0.19,0.04-0.26,0.1c-0.02,0.01-0.05,0.02-0.07,0.04
	c-0.07,0.04-0.13,0.09-0.17,0.16c-0.24,0.34-0.49,0.65-0.75,0.95c-0.45,0.53-0.93,1.01-1.43,1.5c-0.18,0.18-0.36,0.36-0.55,0.55
	c-0.05,0.05-0.08,0.11-0.11,0.17c-0.01,0.01-0.01,0.03-0.02,0.05c-0.32,0.25-0.64,0.52-0.95,0.8c-0.02,0.01-0.04,0.03-0.06,0.05
	c-0.09,0.08-0.14,0.17-0.15,0.27c-0.01,0.02-0.02,0.05-0.02,0.07c-0.14,0.1-0.24,0.26-0.24,0.47c-0.01,0.54,0.02,1.07,0.08,1.6
	c0.01,0.1,0.04,0.18,0.09,0.26c0,0.02-0.01,0.03-0.01,0.05c-0.24,2.19,0.47,5.76,2.28,7.15c0.06,0.05,0.11,0.069,0.16,0.09h0.01
	c0.09,0.12,0.2,0.22,0.32,0.26c0,0,0-0.01,0.01,0c0.06,0.021,0.12,0.03,0.19,0.021c0.08,0.05,0.14,0.09,0.26,0.1
	c0.04,0.021,0.08,0.03,0.12,0.05c0.02,0.01,0.04,0.01,0.05,0.01c0,0,0,0,0.01,0c0.03,0.011,0.04,0.021,0.06,0.021
	c0.14,0.02,0.26-0.01,0.35-0.07c0.09,0,0.17,0,0.26,0.011h0.01c0.36,0,0.72,0.01,1.07,0.02c0.21,0,0.42,0.01,0.62,0.02
	c0.74,0.021,1.48,0.051,2.22,0.091c0.04,0,0.08-0.011,0.12-0.021c0.63,0.41,1.3,0.641,1.99,0.78c1.16,0.79,2.53,0.939,3.9,1.2
	c0.08,0.01,0.16,0.01,0.23,0c0.03,0,0.06-0.011,0.09-0.021c0.07,0.04,0.13,0.08,0.19,0.13c0.01,0,0.03,0.011,0.04,0.021
	c0.27,0.17,0.54,0.33,0.82,0.47c0.05,0.03,0.09,0.07,0.15,0.08c0.04,0.02,0.08,0.03,0.11,0.04c0.17,0.07,0.34,0.12,0.53,0.17
	c-0.01,0.1,0,0.21,0.06,0.32c0,0.01,0,0.02,0.01,0.029c0.08,0.171,0.19,0.301,0.32,0.431c0.04,0.05,0.09,0.08,0.15,0.109
	c0.13,0.061,0.29,0.08,0.44,0.051c0.14,0.069,0.26,0.14,0.4,0.21h0.01c0.04,0.029,0.09,0.05,0.13,0.069
	c0.03,0.04,0.06,0.08,0.08,0.13c0.02,0.021,0.04,0.03,0.06,0.061c0.34,0.43,0.67,0.86,1,1.29c0.17,0.22,0.38,0.3,0.57,0.28
	c0.04,0,0.08-0.011,0.11-0.021c0.14,0.16,0.27,0.33,0.4,0.49c0.02,0.02,0.04,0.04,0.06,0.05c0.23,0.21,0.57,0.14,0.78-0.05
	c0.21-0.021,0.41-0.15,0.49-0.42c0.07-0.26,0.18-0.48,0.32-0.69c0.05-0.069,0.1-0.13,0.15-0.2c0.1-0.04,0.21-0.09,0.31-0.13
	c0.02,0,0.04-0.02,0.06-0.029c0.58-0.261,1.14-0.58,1.58-1c0.09-0.091,0.18-0.19,0.26-0.29c0.05-0.021,0.1-0.051,0.15-0.07
	c0.69-0.33,1.39-0.64,2.09-0.97c2.29-0.13,4.53-1.141,6.73-2.08c0.19-0.07,0.38-0.141,0.57-0.21c0.15,0.16,0.38,0.26,0.609,0.22
	c0.15-0.021,0.29-0.07,0.44-0.11c0.75,0.03,1.51-0.02,2.28-0.13c0.25,0.01,0.51,0.03,0.77,0.04c0.101,0.01,0.2,0.01,0.3,0.021
	c0.19,0.06,0.391,0.08,0.62,0.06c0.03,0.01,0.061,0,0.101,0s0.08-0.01,0.13-0.01c0.09-0.01,0.17-0.03,0.24-0.07
	c0.01,0,0.01,0,0.02,0c0.311-0.17,0.4-0.55,0.25-0.83c0.03-0.05,0.061-0.09,0.08-0.16c0.3-1.02,0.84-1.93,1.16-2.939
	c0.24-0.07,0.46-0.26,0.46-0.57c0.01-0.46,0.02-0.91,0.04-1.37c0.189-0.77,0.55-1.57,0.47-2.34c-0.01-0.09-0.03-0.17-0.05-0.24
	C72.18,49.04,72.25,48.9,72.23,48.75z M60.99,54.01c-0.72-0.06-1.41-0.03-2.1,0.06c-0.07-0.08-0.16-0.15-0.29-0.19l-1.08-0.48
	c-0.22-0.1-0.43-0.06-0.59,0.04c-0.14-0.03-0.27-0.05-0.4-0.07c-0.22-0.21-0.43-0.44-0.64-0.71c-0.05-0.07-0.12-0.12-0.19-0.15
	c-0.01-0.04-0.02-0.07-0.03-0.11c-0.02-0.08-0.05-0.15-0.09-0.21c0.72-0.26,1.44-0.58,2.16-0.95c1.82,0.02,3.56-0.43,5.29-0.94
	c0.2-0.04,0.39-0.08,0.59-0.11c0.11,0.14,0.27,0.24,0.46,0.24c0.26-0.01,0.51-0.03,0.77-0.07h0.011c0.35-0.06,0.699-0.13,1.04-0.23
	c-0.101,0.16-0.2,0.33-0.301,0.49c-0.239,0.41-0.489,0.81-0.76,1.2c-0.25-0.06-0.58,0.05-0.68,0.28c-0.12,0.28-0.2,0.48-0.27,0.73
	c-0.39,0.23-0.5,0.32-0.88,0.7c-0.01,0.01-0.03,0.03-0.05,0.05c-0.01,0-0.01,0.01-0.01,0.02c-0.04,0-0.07,0.01-0.11,0.02
	c0,0,0,0-0.01,0C62.2,53.7,61.59,53.83,60.99,54.01z M47.99,52.82c-0.56,0.29-1.09,0.66-1.61,1.03c-1.22-0.07-2.44,0.01-3.65,0.09
	c-0.27-0.26-0.63-0.43-1.13-0.6c-0.16-0.05-0.31-0.02-0.43,0.05c-0.12-0.05-0.24-0.11-0.35-0.16c-0.09-0.09-0.19-0.2-0.32-0.34
	c-0.19-0.21-0.5-0.21-0.73-0.09c-0.01,0.01-0.03,0.01-0.04,0.02c-0.02-0.01-0.03-0.03-0.05-0.04c-0.03-0.04-0.06-0.08-0.1-0.12
	s-0.08-0.07-0.11-0.09c-0.08-0.06-0.17-0.08-0.26-0.08c-0.06-0.13-0.13-0.21-0.17-0.32c-0.01-0.01-0.03-0.02-0.04-0.04
	c-0.11-0.14-0.24-0.28-0.39-0.4c0.03-0.13,0.01-0.26-0.07-0.4c-0.05-0.22-0.1-0.45-0.15-0.68c-0.04-0.17-0.07-0.33-0.11-0.5
	c0.08-0.11,0.18-0.19,0.27-0.27c0.05-0.01,0.11-0.01,0.16-0.02c0.04,0,0.07-0.01,0.11-0.01c0.11,0.16,0.28,0.28,0.49,0.27
	c0.15-0.01,0.29-0.05,0.44-0.06c1.88,0.26,3.73,0.66,5.59,1.01c0.69,0.23,1.33,0.37,1.87,0.33c0.4,0.16,0.79,0.33,1.19,0.47
	c0.05,0.02,0.11,0.04,0.16,0.06c-0.02,0.02-0.03,0.05-0.05,0.07c-0.15,0.21-0.35,0.41-0.43,0.55C48.02,52.65,48,52.73,47.99,52.82z"
	/>
<path fill="#FF153C" d="M80.904,83.081c-0.074-0.949-0.924-1.404-1.817-1.622c-1.771-1.998-7.375-1.117-9.303-0.679
	c-0.013,0.002-0.02,0.009-0.029,0.012c-1.639-0.032-3.618,0.04-4.766,0.942c-0.351-1.082-1.988-0.89-2.903-0.574
	c-0.044,0.016-0.074,0.039-0.111,0.06c-0.21-0.204-0.521-0.015-0.747,0.209c-0.049-0.114-0.12-0.217-0.234-0.273
	c-0.614-0.308-1.01,0.112-1.296,0.609c-0.073,0.05-0.126,0.122-0.117,0.25c0.001,0.02,0.007,0.04,0.009,0.06
	c-0.008,0.103,0.008,0.203,0.049,0.292c0.089,0.363,0.249,0.737,0.306,1.155c-0.133,0.381-0.214,0.715-0.212,1.112
	c0.001,0.167,0.062,0.267,0.153,0.367c-0.392,0.152-0.795,0.255-1.221,0.271c-0.33,0.01-0.513,0.226-0.565,0.479
	c-0.649,0.202-0.99,0.44-1.333,1.032c-0.021,0.034-0.017,0.077-0.029,0.119c-0.253,0.193-0.508,0.384-0.755,0.586
	c-0.166,0.136-0.325,0.395-0.485,0.688c-0.919,0.396-1.669,0.881-1.877,1.776c-0.152,0.111-0.293,0.231-0.447,0.339
	c-0.643,0.447-0.092,1.564,0.615,1.205c0.132-0.062,0.247-0.066,0.373-0.066h0.008c0.8,0,1.226-0.534,1.603-1.153
	c0.167,0.03,0.348-0.083,0.505-0.245c0.314-0.324,0.654-0.655,0.993-0.947c0.15,0.059,0.319,0.037,0.484-0.081
	c1.502-1.075,3.234-1.759,4.621-3.001c0.152-0.137,0.191-0.334,0.158-0.519c0.282-0.176,0.551-0.251,0.811-0.453
	c0.099,0.107,0.241,0.302,0.429,0.302h0.229c0.023,0,0.036-0.129,0.058-0.131c0.581-0.034,1.12-0.258,1.629-0.51
	c4.915,0.225,9.966,0.043,14.851-0.17c0.351-0.015,0.587-0.28,0.61-0.624C81.172,83.566,81.063,83.3,80.904,83.081z"/>
<path fill="#FF153C" d="M46.23,87.89c0.04-0.22-0.04-0.439-0.29-0.569c-0.21-0.11-0.42-0.23-0.63-0.34
	c0.17-0.261,0.15-0.62-0.21-0.801c-0.47-0.22-0.92-0.46-1.35-0.72c-0.19-0.12-0.38-0.229-0.57-0.35c0-0.311-0.04-0.75-0.05-1.16
	c0-0.47,0.05-0.91,0.29-1.08c0.3-0.2,0.35-0.561,0.21-0.82c-0.09-0.18-0.27-0.31-0.51-0.31c-0.05,0-0.11,0.01-0.16,0.029
	c-1.17,0.33-2.69-0.229-3.82,0.28c-0.16,0.08-0.32,0.181-0.46,0.311c-0.04,0.029-0.07,0.06-0.11,0.1c-0.17,0.18-0.19,0.37-0.15,0.53
	c-0.59-0.16-1.19-0.3-1.8-0.431c0-0.06,0-0.13-0.02-0.199c-0.06-0.261-0.27-0.511-0.57-0.53c-0.07-0.01-0.13-0.021-0.2-0.021h-0.01
	c-0.8-0.09-1.92-0.229-2.85-0.069c-1.37-0.28-2.73-0.46-4.03-0.45c-0.16,0-0.27,0.06-0.37,0.13c-0.74,0-1.49,0.03-2.22,0.14
	c-0.05-0.02-0.1-0.029-0.15-0.04c-0.4-0.02-0.79,0.091-1.18,0.08c-0.06-0.02-0.12,0.07-0.2,0.07h-0.23c-0.1,0-0.23-0.25-0.38-0.26
	c-1.07-0.07-2.07-0.04-3.08,0.16h-0.05c-0.71,0.01-1.42-0.011-2.13-0.021c-0.05,0-0.09,0-0.13,0.021c-0.03-0.011-0.06,0-0.09,0.01
	v0.78l3.04,1.75l0.51,0.29h0.07c1.21-0.061,2.46-0.021,3.69,0.029c0.61,0.03,1.21,0.051,1.81,0.08c0.36,0.01,0.71,0.03,1.06,0.03
	c0.46,0.02,0.92,0.03,1.36,0.02c0.97-0.01,1.92-0.02,2.88,0c0.07-0.01,0.14,0,0.21,0c0.16,0,0.33,0,0.49,0.011
	c-0.01,0.02-0.02,0.04-0.02,0.06c-0.03,0.05-0.04,0.101-0.04,0.15c-0.04,0.21,0.04,0.43,0.21,0.55c0.02,0.02,0.04,0.04,0.07,0.05
	c0.89,0.44,1.84,0.55,2.8,0.61h0.01c0.32,0.02,0.64,0.029,0.96,0.05c0.01,0.03,0.03,0.04,0.04,0.06c0.03,0.2,0.23,0.391,0.42,0.431
	c1.5,0.35,2.95,0.87,4.43,1.29c0.11,0.069,0.23,0.13,0.34,0.199c0.01,0.011,0.02,0.011,0.03,0.011c0.3,0.18,0.61,0.35,0.93,0.5
	c0.18,0.08,0.42,0.14,0.66,0.2c0.84,0.609,1.54,1.35,2.54,1.779c0.25,0.11,0.5,0.08,0.67-0.06h0.01c0.01-0.01,0.02-0.01,0.03-0.03
	c0.15-0.13,0.23-0.34,0.18-0.6C47.92,88.7,47.15,88.21,46.23,87.89z M41.43,84.38c-0.01-0.17-0.1-0.32-0.29-0.41
	c-0.59-0.27-1.18-0.489-1.78-0.689c0.02-0.021,0.05-0.03,0.07-0.05c0.4-0.4,1.26-0.341,1.77-0.341h0.03c0,0,0,0,0,0.011
	c0.01,0.04,0,0.119,0,0.14c0.09,0.479,0.26,0.95,0.45,1.42c-0.02,0.01-0.04,0.021-0.05,0.03c-0.08,0.04-0.14,0.09-0.19,0.16
	c-0.01-0.011-0.02-0.011-0.03-0.011C41.44,84.55,41.45,84.46,41.43,84.38z"/>
<path fill="#20E0E0" d="M90.96,93.84l-0.4,0.23L64.8,108.92l-0.02-0.01l-0.011,0.01l-11.49-6.64l-29.4-16.95l-1.44-0.83
	c0.02-0.01,0.04-0.01,0.07,0c1.21-0.1,2.43-0.09,3.65,0c0.5,0.03,1.01,0.07,1.51,0.14c1.33,0.15,2.65,0.391,3.96,0.69
	c0.94,0.21,1.87,0.46,2.79,0.74c0.11-0.011,0.23-0.011,0.35,0c0.34,0.01,0.71,0.09,1.09,0.25c0.35,0.14,0.71,0.279,1.06,0.42
	c0.18,0.069,0.37,0.14,0.55,0.22c0.06,0,0.12,0.01,0.18,0.021c0.01-0.011,0.02-0.011,0.02,0c0.22,0.02,0.46,0.079,0.7,0.18
	c0.43,0.16,0.86,0.33,1.28,0.52c0.33,0.141,0.66,0.301,0.99,0.46c0.1,0.021,0.2,0.04,0.3,0.061c0.01-0.01,0.01,0,0.01,0
	c1.59,0.3,2.97,0.81,4.49,1.54c0.61,0.29,1.07,0.729,1.39,1.25c0.39,0.2,0.74,0.43,1.11,0.68c0.14,0.07,0.27,0.16,0.41,0.23
	c0.24,0.13,0.45,0.27,0.63,0.43c0,0.01,0.01,0.01,0.01,0.02c0.04,0.021,0.08,0.051,0.11,0.091c0.06,0.06,0.12,0.119,0.17,0.18
	c0.02,0.01,0.03,0.03,0.04,0.04h0.04c0.02,0,0.03,0,0.05-0.01c0.06,0.01,0.13,0.01,0.19,0c0.03,0,0.05,0,0.08-0.011
	c0.07,0.011,0.13,0,0.2-0.01c0.38-0.01,0.75-0.05,1.13-0.1c0.12-0.011,0.24-0.03,0.36-0.04v-0.01c0.32-0.03,0.62-0.08,0.94-0.11
	h0.01c0.13-0.021,0.27-0.04,0.4-0.05c0.08-0.04,0.15-0.08,0.22-0.13c0.12-0.07,0.23-0.15,0.35-0.221c0-0.01,0.01-0.01,0.01-0.01
	c0.28-0.17,0.56-0.35,0.84-0.53c0.51-0.319,1.01-0.649,1.52-0.97c0.03-0.01,0.04-0.03,0.06-0.04c0.01,0,0.02,0,0.02-0.01
	c0.1-0.061,0.19-0.12,0.29-0.18c0-0.011,0.01-0.011,0.01-0.011c0.05-0.029,0.09-0.06,0.14-0.09c1.82-1.14,3.65-2.26,5.54-3.29
	c0.01,0,0.01-0.01,0.02-0.01c0.81-0.45,1.63-0.88,2.47-1.29c0.24-0.12,0.479-0.2,0.72-0.23c0.18-0.04,0.35-0.05,0.53-0.029h0.01
	c0.15,0,0.29,0.02,0.43,0.05c0.051,0.01,0.091,0.02,0.141,0.03h0.01c0.01,0.01,0.01,0.01,0.02,0.01c0.03-0.01,0.051-0.03,0.08-0.04
	c0.311-0.16,0.65-0.28,1-0.37c0.021-0.01,0.03-0.01,0.051-0.01c0.43-0.101,0.869-0.15,1.34-0.181h0.12c0.52-0.02,1.05,0,1.56,0.021
	h0.12c0.28,0.01,0.55,0.03,0.81,0.04c0.32,0.01,0.62,0.03,0.931,0.04h0.01c0.16,0.01,0.32,0.02,0.479,0.02
	c0.051,0,0.11,0,0.16,0.011c2.7,0.13,5.311,0.26,8.08,0.109C81.01,85,81.21,85,81.41,85c0.399,0.01,0.79,0.03,1.17,0.09
	c0.78,0.101,1.51,0.3,2.18,0.59c0.29,0.11,0.561,0.24,0.83,0.391c0.29,0.12,0.59,0.22,0.88,0.34c0.011,0,0.011,0,0.021,0.01
	c0.26,0.1,0.51,0.21,0.77,0.33c0.78,0.37,1.311,0.94,1.74,1.62c0.18,0.26,0.33,0.55,0.48,0.84c0.21,0.41,0.289,0.86,0.279,1.3
	c0.25,0.48,0.471,0.98,0.65,1.5c0.22,0.58,0.399,1.181,0.54,1.79C90.95,93.82,90.96,93.83,90.96,93.84z"/>
<path fill="#FFFFFF" d="M63.855,52.044c0.025-0.007,0.051-0.013,0.076-0.022c-0.359-0.939-0.879-1.26-1.56-0.963
	c-0.262,0.072-0.527,0.135-0.793,0.194c-0.443,0.103-0.883,0.173-1.335,0.21c-0.759,0.059-1.542,0.077-2.214,0.473
	c-0.011,0.006-0.018,0.016-0.027,0.022c-0.091,0.001-0.179,0.007-0.27,0.008c-0.597,0.006-0.648,0.873-0.093,1.016
	c0.065,0.017,0.133,0.024,0.199,0.039c0.113,0.138,0.275,0.237,0.498,0.241c0.335,0.006,0.67-0.024,1.005-0.05
	c0.508,0.023,1.017,0.021,1.532,0.024c0.362,0.002,0.542-0.244,0.577-0.527c0.822-0.151,1.633-0.364,2.415-0.659
	C63.86,52.049,63.858,52.047,63.855,52.044z"/>
<path fill="#FFFFFF" d="M46.731,52.039c-2.303-0.301-4.291-0.81-6.491-1.563c-0.273-0.093-0.509-0.047-0.696,0.065
	c-0.603,0.112-0.836,1.092-0.172,1.373c0.135,0.057,0.27,0.115,0.406,0.173c0.16,0.068,0.322,0.081,0.473,0.055
	c2.134,0.804,4.417,1.597,6.636,0.738C47.331,52.709,47.138,52.093,46.731,52.039z"/>
<path fill="#753119" d="M70.249,46.043c-0.202-0.609-0.441-1.149-0.777-1.616c-0.062-0.479-0.186-0.932-0.381-1.443
	c-0.043-0.112-0.066-0.22-0.101-0.329c0.005-0.013,0.002-0.032,0.008-0.044c0.119-0.29,0.009-0.543-0.179-0.692
	c-0.008-0.047-0.017-0.095-0.024-0.141c0.128-0.817,0.184-1.633,0.181-2.453c0.05-0.105,0.082-0.222,0.06-0.361
	c-0.011-0.065-0.028-0.127-0.04-0.192l0.01-0.002c-0.015-0.071-0.029-0.14-0.043-0.209c-0.019-0.777-0.045-1.556-0.038-2.343
	c0.079-0.083,0.146-0.184,0.179-0.324c0.226-1.029,0.414-2.071,0.644-3.101c0.273-0.616,0.469-1.26,0.447-1.998
	c-0.007-0.271-0.167-0.453-0.374-0.559c-0.024-0.233-0.06-0.465-0.121-0.7c0.366-0.326,0.501-0.902,0.012-1.25
	c-0.825-0.584-1.851-0.93-2.939-1.1c-0.561-0.335-1.194-0.43-1.895-0.125c-0.119,0.001-0.236,0.004-0.356,0.009
	c-0.969-0.278-2.04-0.328-3.118-0.286c-0.01-0.209-0.115-0.419-0.349-0.592c-0.725-0.534-0.915-0.657-1.725-1.04
	c-0.185-0.087-0.353-0.098-0.505-0.074c-1.261-0.457-2.556-0.659-3.903-0.788c-0.833-0.272-1.738-0.307-2.648-0.207
	c-0.06-0.004-0.117-0.007-0.178-0.012c-0.192-0.015-0.346,0.033-0.48,0.102c-0.901,0.157-1.785,0.417-2.579,0.674
	c-0.115,0.037-0.228,0.099-0.331,0.176c-0.498,0.088-1.026,0.301-1.552,0.594c-0.22,0.1-0.444,0.189-0.65,0.307
	c-0.12,0.069-0.208,0.173-0.279,0.285c-0.753,0.549-1.433,1.194-1.911,1.77c-1.198,0.643-2.427,1.416-3.072,2.48
	c-0.137-0.095-0.3-0.164-0.501-0.183c-0.018-0.001-0.037-0.001-0.054-0.004c-1.595-0.805-3.613-1.341-5.393-1.194
	c-0.479-0.243-0.976-0.457-1.495-0.621c-0.161-0.051-0.305-0.053-0.438-0.033c-0.163-0.226-0.332-0.429-0.523-0.562
	c-0.071-0.633-1.048-0.976-1.465-0.455c-1.151,1.438-2.124,3.312-1.579,4.901c-0.247,0.24-0.359,0.619-0.152,1.032
	c0.376,0.754,0.817,1.397,1.328,2.006c0.181,0.308,0.387,0.601,0.618,0.881c0.077,0.454,0.156,0.906,0.236,1.36
	c-0.248,1.251,0.043,2.492,0.113,3.844c0.002,0.053,0.024,0.092,0.034,0.14c-0.155,0.736-0.278,1.479-0.384,2.16
	c-0.103,0.655,0.503,1.302,1.17,0.927c0.252-0.141,0.399-0.289,0.548-0.537c0.14-0.233,0.146-0.457,0.073-0.649
	c0.411-0.069,0.813-0.439,0.811-0.927c-0.006-1.074-0.054-2.144-0.095-3.218c-0.011-0.292-0.173-0.468-0.383-0.548
	c-0.023-0.67-0.06-1.328-0.156-1.999c-0.001-0.01-0.007-0.019-0.009-0.028c0.053-0.068,0.094-0.145,0.124-0.226
	c0.207,0.117,0.43,0.214,0.661,0.3c0.004,0.002,0.007,0.002,0.011,0.006c0.042,0.094,0.085,0.187,0.164,0.262
	c0.24,0.243,0.49,0.476,0.751,0.698c0.259,0.233,0.669,0.217,0.981,0.049c0.088,0.022,0.169,0.052,0.272,0.049
	c1.358-0.07,2.678-0.119,4.024-0.119h0.066c0.345,0,0.689-0.108,1.039-0.096c0.133,0.004,0.247-0.075,0.347-0.122
	c0.132-0.01,0.265-0.047,0.396-0.059c0.116,0.032,0.235,0.038,0.359,0.028c0.744-0.042,1.483-0.125,2.221-0.235
	c0.292-0.037,0.48-0.217,0.591-0.439c0.129,0.007,0.267,0.019,0.393,0.022c0.183,0.005,0.326-0.06,0.448-0.148
	c0.542,0.053,1.088,0.09,1.634,0.118c0.479,0.088,0.952,0.181,1.415,0.28c0.103,0.219,0.296,0.397,0.613,0.45
	c0.024,0.004,0.045,0.005,0.07,0.009c0.092,0.195,0.267,0.356,0.559,0.422c0.736,0.166,0.97,0.193,1.736,0.2
	c0.25,0.002,0.441-0.116,0.578-0.282c0.113,0.011,0.22,0.024,0.337,0.034c0.358,0.029,0.625-0.132,0.794-0.363
	c1.875-0.3,3.962-0.979,5.427-2.242c0.129,0.021,0.273,0.035,0.463,0.045c0.266,0.014,0.46-0.114,0.584-0.298
	c0.495-0.011,1.005-0.045,1.541-0.075c0.378-0.021,0.629-0.23,0.771-0.494c0.719,0.03,1.441,0.026,2.073-0.224
	c0.394,0.382,0.718,0.858,0.962,1.487c0.319,0.824,0.619,1.587,1.071,2.355c0.064,0.108,0.152,0.187,0.248,0.249
	c-0.021,0.598-0.045,1.194-0.065,1.793c-0.045,0.266-0.097,0.53-0.135,0.798c-0.038,0.274-0.017,0.544,0.026,0.813
	c-0.036,0.509-0.044,1.252-0.02,1.778c0,0.017-0.002,0.166-0.002,0.245c-0.07,0.16-0.121,0.341-0.005,0.534
	c0.52,0.873,0.478,0.839,1.217,1.523c0.112,0.103,0.23,0.152,0.369,0.163c0.086,0.19,0.162,0.37,0.232,0.534
	C69.267,47.443,70.547,46.939,70.249,46.043L70.249,46.043z"/>
<path fill="#0FB7B3" d="M87.596,86.561c-0.607-0.331-1.29-0.574-1.953-0.766c-0.149-0.043-0.306-0.087-0.465-0.132
	c-0.05-0.119-0.13-0.223-0.278-0.265c-2.689-0.753-5.647-0.402-8.42-0.396c-1.404,0.005-2.903-0.089-4.399-0.118
	c-0.033-0.087-0.091-0.161-0.172-0.212c-0.596-0.368-1.339-0.22-2.019-0.005c-0.185-0.17-0.437-0.272-0.751-0.22
	c-1.085,0.175-2.108,0.512-3.092,0.944c-0.076-0.237-0.309-0.425-0.594-0.347c-2.87,0.779-5.061,2.869-7.586,4.302
	c-0.173,0.098-0.209,0.255-0.184,0.4c-1.998,0.718-4.043,1.26-6.003,2.203c-0.501,0.24-0.411,1.104,0.222,1.015
	c2.707-0.38,5.457-1.132,7.973-2.191c2.898-1.221,5.244-3.277,8.229-4.213c2.27,0.366,4.724,0.106,6.986,0.111
	c2.563,0.007,5.343,0.3,7.94-0.031c0.839,0.195,1.687,0.369,2.508,0.644c0.611,0.204,1.229,0.455,1.783,0.792
	c0.4,0.242,0.607,0.524,1.09,0.597c0.225,0.033,0.755-0.281,0.63-0.569C88.646,87.192,88.394,86.992,87.596,86.561z"/>
<path fill="#0FB7B3" d="M49.301,91.536c-2.722-2.481-6.77-3.825-10.289-4.766c-2.804-0.75-8.67-4.331-11.388-2.092
	c-0.135,0.112-0.031,0.293,0.095,0.345c1.166,0.466,2.47,0.472,3.687,0.842c1.832,0.558,3.582,1.401,5.369,2.082
	c1.928,0.735,3.954,1.19,5.886,1.938c2.045,0.793,3.938,2.202,6.111,2.598C49.292,92.577,49.741,91.936,49.301,91.536z"/>
<g>
	<path fill="#061333" d="M33.817,57.74c-0.585,5.769,0.417,10.237,4.249,14.639c1.885,2.168,4.096,4.428,6.482,6.042
		c2.104,1.423,5.001,1.059,7.376,0.979c2.051-0.068,4.005-0.032,5.901-0.901c2.16-0.989,3.683-3.438,5.336-5.04
		c1.889-1.827,3.773-3.352,4.889-5.79c1.278-2.789,0.789-6.511,1.263-9.483c0.121-0.771-1.053-1.1-1.177-0.325
		c-0.316,1.986-0.455,3.976-0.585,5.979c-0.218,3.342-1.618,5.408-3.995,7.604c-3.143,2.903-5.19,6.413-9.78,6.697
		c-2.145,0.133-4.458,0.284-6.59-0.022c-2.74-0.392-4.985-3.265-6.854-5.117c-2.154-2.137-4.116-4.489-4.988-7.438
		c-0.733-2.484-0.568-5.278-0.31-7.823C35.116,56.957,33.896,56.966,33.817,57.74L33.817,57.74z"/>
	<path fill="#061333" d="M51.018,64.955c1.384-1.094,2.893-2.02,4.269-3.125c0.613-0.493-0.255-1.35-0.862-0.862
		c-1.375,1.103-2.884,2.031-4.269,3.125C49.539,64.578,50.408,65.438,51.018,64.955z"/>
	<path fill="#061333" d="M46.572,61.525c1.322,1.026,2.36,2.302,3.583,3.431c0.577,0.532,1.442-0.327,0.862-0.862
		c-1.222-1.129-2.26-2.403-3.583-3.431C46.823,60.187,45.952,61.043,46.572,61.525z"/>
	<path fill="#061333" d="M55.092,61.759c2.2-0.839,4.454-1.528,6.729-2.132c2.307-0.612,5.207-1.508,7.581-0.841
		c0.76,0.213,1.082-0.965,0.324-1.177c-4.528-1.27-10.781,1.379-14.958,2.974C54.041,60.86,54.356,62.039,55.092,61.759z"/>
	<path fill="#061333" d="M47.234,60.263c-2.661-1.154-5.407-2.155-8.205-2.92c-1.351-0.369-4.457-1.383-5.19,0.464
		c-0.291,0.731,0.889,1.045,1.175,0.324c0.579-1.459,10.397,2.66,11.605,3.185C47.333,61.625,47.955,60.574,47.234,60.263z"/>
	<path fill="#061333" d="M70.382,58.283c0.691-3.666,5.155-9.643,1.291-12.788c-0.604-0.491-1.473,0.366-0.862,0.862
		c3.156,2.568-1.019,8.503-1.605,11.602C69.06,58.729,70.234,59.055,70.382,58.283z"/>
	<path fill="#061333" d="M71.311,45.313c-2.586-3.455-1.188-9.104-1.06-13.107c0.025-0.787-1.193-0.784-1.22,0
		c-0.134,4.237-1.536,10.033,1.227,13.722C70.725,46.551,71.782,45.944,71.311,45.313z"/>
	<path fill="#061333" d="M45.698,69.99c4.115,1.216,8.309,1.391,12.207-0.596c0.702-0.357,0.083-1.407-0.616-1.053
		c-3.607,1.838-7.482,1.593-11.269,0.473C45.267,68.59,44.946,69.767,45.698,69.99z"/>
	<path fill="#061333" d="M37.102,49.511c2.188,4.429,7.205,6.481,11.323,3.249c0.299-0.234,0.205-0.799-0.123-0.958
		c-1.467-0.708-3.185-0.909-4.769-1.213c-0.893-0.172-4.927-0.502-5.318-1.453c-0.295-0.717-1.474-0.403-1.175,0.325
		c0.556,1.351,2.708,1.583,3.934,1.856c2.159,0.479,4.702,0.567,6.711,1.538c-0.042-0.32-0.082-0.638-0.123-0.958
		c-3.538,2.775-7.62,0.621-9.408-3.001C37.807,48.19,36.755,48.808,37.102,49.511z"/>
	<path fill="#061333" d="M65.76,48.896c-1.789,3.623-5.87,5.778-9.408,3.001c-0.042,0.32-0.082,0.638-0.124,0.958
		c2.001-0.966,4.559-1.082,6.711-1.538c1.223-0.26,3.382-0.512,3.934-1.856c0.3-0.727-0.88-1.042-1.175-0.325
		c-0.363,0.883-4.037,1.204-4.865,1.365c-1.726,0.336-3.621,0.528-5.222,1.3c-0.328,0.159-0.422,0.724-0.124,0.958
		c4.118,3.231,9.136,1.182,11.323-3.249C67.16,48.808,66.109,48.19,65.76,48.896z"/>
	<path fill="#061333" d="M35.104,56.618c-0.793,0.198-2.887,0.593-2.887,1.731c0.399-0.054,0.798-0.108,1.197-0.162
		c-0.688-3.852-2.289-7.557-2.417-11.5c-0.025-0.784-1.245-0.787-1.22,0c0.132,4.06,1.752,7.857,2.461,11.823
		c0.123,0.692,1.197,0.51,1.197-0.162c0.656-0.213,1.321-0.398,1.991-0.555C36.19,57.604,35.868,56.429,35.104,56.618z"/>
	<path fill="#061333" d="M31,47.063c1.775-0.998,3.963-2.749,4.395-4.862c0.157-0.767-1.018-1.094-1.175-0.324
		c-0.369,1.801-2.332,3.287-3.837,4.132C29.699,46.396,30.314,47.449,31,47.063z"/>
	<path fill="#061333" d="M34.342,42.245c5.908,1.085,9.934,6.399,15.778,7.546c0.768,0.151,1.095-1.024,0.324-1.176
		c-5.823-1.144-9.861-6.459-15.778-7.546C33.897,40.929,33.569,42.103,34.342,42.245z"/>
	<path fill="#061333" d="M50.358,49.585c2.588-0.149,4.761-1.101,6.975-2.396c2.796-1.637,5.954-4.345,9.395-4.141
		c-0.052-0.399-0.106-0.798-0.161-1.198c0.012-0.005,0.024-0.011,0.036-0.017c-0.768-0.119-1.099,1.056-0.323,1.175
		c0.218,0.035,0.394,0.072,0.611,0.017c0.694-0.173,0.504-1.159-0.163-1.197c-6.099-0.358-10.328,6.19-16.37,6.538
		C49.575,48.411,49.571,49.63,50.358,49.585z"/>
	<path fill="#061333" d="M66.522,42.417c-1.378,3.055,2.554,5.967,5.331,4.57c0.703-0.354,0.085-1.405-0.614-1.053
		c-1.632,0.82-4.528-0.984-3.663-2.9C67.895,42.322,66.846,41.701,66.522,42.417z"/>
	<path fill="#061333" d="M49.452,36.955c-5.027-1.612-19.354,4.64-16.113-6.11c0.228-0.754-0.949-1.074-1.176-0.324
		c-1.141,3.783-0.152,7.471,4.12,8.087c4.199,0.607,8.77-1.785,12.847-0.479C49.878,38.371,50.198,37.192,49.452,36.955z"/>
	<path fill="#061333" d="M32.471,31.113c3.34,2.721,6.646,3.646,10.749,2.105c3.535-1.329,6.529-3.739,10.258-4.603
		c3.268-0.756,6.67-1.121,10.024-1.082c1.651,0.021,3.435,0.176,4.888,1.019c1.25,0.726,0.738,2.491,0.641,3.655
		c-0.066,0.784,1.152,0.778,1.22,0c0.176-2.07,0.445-3.726-1.575-4.899c-2.63-1.525-6.563-1.067-9.426-0.813
		c-2.962,0.262-6.041,0.688-8.816,1.797c-6.151,2.458-10.76,7.125-17.1,1.959C32.729,29.759,31.861,30.615,32.471,31.113z"/>
	<path fill="#061333" d="M36.333,33.122c3.461-0.436,5.743-2.949,8.234-5.162c2.277-2.023,5.069-3.08,8.063-3.47
		c2.47-0.32,7.527,0.358,9.054,2.738c0.423,0.66,1.479,0.049,1.052-0.616c-2.32-3.616-8.673-3.72-12.337-2.976
		c-2.236,0.454-4.303,1.562-6.085,2.947c-2.535,1.968-4.576,4.89-7.982,5.319C35.564,31.999,35.554,33.219,36.333,33.122z"/>
	<path fill="#061333" d="M34.986,43.233c0-1.872,0-3.743,0-5.615c0-0.787-1.219-0.787-1.219,0v5.615
		C33.767,44.02,34.986,44.02,34.986,43.233z"/>
	<path fill="#061333" d="M33.853,37.133c-4.718-1.029-5.525-8.754-0.736-10.257c-0.229-0.299-0.458-0.596-0.688-0.895
		c-2.277,3.355,7.773,5.117,9.757,4.115c0.703-0.355,0.084-1.407-0.616-1.053c-1.256,0.634-9.016-1.082-8.089-2.446
		c0.301-0.444-0.195-1.051-0.688-0.895c-5.888,1.849-5.219,11.31,0.736,12.608C34.296,38.476,34.622,37.3,33.853,37.133z"/>
	<path fill="#061333" d="M67.305,42.395c0.104-2.789,0.454-7.786-3.136-8.561c-1.7-0.366-3.627,0.896-5.104,1.576
		c-2.287,1.051-6.912,3.577-9.34,1.835c-0.64-0.458-1.249,0.599-0.616,1.053c2.629,1.885,6.733-0.178,9.279-1.26
		c1.86-0.789,5.361-3.321,6.936-1.047c1.163,1.678,0.833,4.474,0.761,6.404C66.055,43.182,67.275,43.178,67.305,42.395z"/>
	<path fill="#061333" d="M30.689,37.475c0.688,2.593,0.521,5.268,0.74,7.917c0.065,0.778,1.285,0.784,1.22,0
		c-0.229-2.761-0.067-5.542-0.784-8.241C31.663,36.392,30.487,36.714,30.689,37.475z"/>
	<path fill="#061333" d="M50.11,91.92c0.01,0.08,0.01,0.14,0,0.2v0.04c-0.07,0.22-0.24,0.39-0.45,0.46
		c-0.02,0.01-0.04,0.02-0.07,0.03c-0.06,0.01-0.13,0.01-0.19,0c-0.02,0-0.04,0-0.06-0.011c-0.03,0-0.05-0.01-0.07-0.02
		c-0.08-0.03-0.15-0.08-0.21-0.16c-0.02-0.03-0.05-0.07-0.07-0.11c0-0.01-0.01-0.01-0.01-0.02c-0.33-0.66-0.69-1.29-1.08-1.88
		c0-0.01,0-0.01-0.01-0.021c-0.01-0.02-0.02-0.04-0.04-0.06c-1.64-2.54-3.74-4.51-6.22-5.88c-0.07-0.05-0.13-0.09-0.2-0.11
		c-2.16-1.18-4.6-1.91-7.29-2.21c-4.15-0.46-8.47-0.49-12.7-0.39c-0.88,0.02-1.76,0.04-2.62,0.08h-0.09V80.64
		c0.03,0,0.06,0,0.09-0.01c0.58-0.02,1.17-0.04,1.77-0.06c5.12-0.2,10.56-0.32,15.49,0.66c0.16,0.029,0.31,0.06,0.46,0.09
		c0.9,0.189,1.77,0.43,2.6,0.729c0.29,0.09,0.58,0.2,0.86,0.311c0.41,0.159,0.81,0.33,1.2,0.529h0.01c0.01,0,0.01,0,0.02,0.011
		c0.66,0.31,1.29,0.649,1.89,1.04l0.01,0.01c0.27,0.16,0.53,0.33,0.78,0.51c0.01,0.01,0.02,0.01,0.02,0.021
		c0.07,0.039,0.13,0.09,0.19,0.14c0.08,0.05,0.15,0.1,0.22,0.16c0.09,0.06,0.17,0.12,0.25,0.189C45.86,85.95,47,87.11,48,88.44v0.01
		c0.3,0.39,0.59,0.79,0.86,1.21c0.42,0.66,0.82,1.34,1.19,2.07c0,0.01,0.01,0.01,0.01,0.02c0.02,0.04,0.03,0.08,0.04,0.11
		C50.11,91.88,50.11,91.9,50.11,91.92z"/>
	<path fill="#061333" d="M50.662,92.878c3.85-4.091,8.132-7.668,13.245-10.063c2.737-1.284,5.72-1.94,8.722-2.127
		c2.06-0.128,8.745,0.157,8.395,3.527c-0.081,0.783,1.142,0.773,1.22,0c0.593-5.722-10.461-4.833-13.514-4.257
		c-7.491,1.413-13.852,6.662-18.93,12.058C49.262,92.586,50.122,93.45,50.662,92.878z"/>
	<path fill="#061333" d="M49.826,91.615c-3.651-2.446-7.516-4.339-11.67-5.757c-3.561-1.218-8.022-2.764-11.809-2.764
		c-0.787,0-0.787,1.22,0,1.22h1.423c0.787,0,0.787-1.22,0-1.22c-0.475,0-0.949,0-1.423,0c-0.787,0-0.787,1.22,0,1.22
		c3.411,0,7.328,1.441,10.571,2.425c4.396,1.333,8.483,3.376,12.292,5.927C49.867,93.107,50.477,92.05,49.826,91.615z"/>
	<path fill="#061333" d="M50.087,93.135c7.589-2.172,13.389-8.252,21.138-9.959c0.77-0.17,0.442-1.347-0.324-1.176
		c-7.767,1.71-13.55,7.786-21.137,9.958C49.009,92.175,49.33,93.353,50.087,93.135z"/>
	<path fill="#061333" d="M36.409,82.359h6.707c0.787,0,0.787-1.22,0-1.22c-2.235,0-4.472,0-6.707,0
		C35.623,81.14,35.623,82.359,36.409,82.359z"/>
	<path fill="#061333" d="M59.352,81.444h8.079c0.787,0,0.787-1.22,0-1.22c-2.692,0-5.386,0-8.079,0
		C58.564,80.225,58.564,81.444,59.352,81.444z"/>
	<path fill="#061333" d="M43.116,77.558v7.316c0,0.786,1.22,0.786,1.22,0c0-2.438,0-4.878,0-7.316
		C44.336,76.771,43.116,76.771,43.116,77.558z"/>
	<path fill="#061333" d="M35.81,85.33H23.88l-1.44-0.83l-0.16-0.1l-0.51-0.29h10.67c0.25,0.22,0.56,0.38,0.92,0.449
		c0.15,0.051,0.3,0.07,0.47,0.07c0.01,0.01,0.03,0.01,0.04,0.01c0.23,0.11,0.47,0.21,0.71,0.301c0.15,0.06,1.05,0.449,0.37,0.13
		C35.23,85.21,35.52,85.29,35.81,85.33z"/>
	<path fill="#061333" d="M58.665,77.71v6.402c0,0.786,1.22,0.786,1.22,0c0-2.134,0-4.269,0-6.402
		C59.885,76.924,58.665,76.924,58.665,77.71z"/>
	<path fill="#061333" d="M81.836,84.112H66.663c-0.057,0.069-0.107,0.14-0.176,0.2c-0.487,0.436-1.029,0.761-1.604,1.02h16.953
		C83.056,85.332,83.056,84.112,81.836,84.112z"/>
	<path fill="#061333" d="M91.61,93.46l-0.65,0.38l-0.4,0.23c0-0.011,0-0.021-0.01-0.04c-0.109-0.63-0.25-1.25-0.42-1.851
		c-0.36-1.319-0.84-2.529-1.479-3.55c-0.58-0.91-1.29-1.66-2.16-2.21c-0.01-0.01-0.01-0.01-0.021-0.01
		c-0.51-0.32-1.08-0.57-1.71-0.73c-0.81-0.22-1.729-0.29-2.77-0.199c-0.19,0.02-0.34-0.051-0.44-0.15
		c-0.08-0.09-0.13-0.21-0.14-0.33c-0.01-0.02-0.01-0.04-0.01-0.06c0-0.051,0.01-0.11,0.02-0.16c0.05-0.25,0.24-0.49,0.57-0.521
		c0.08-0.01,0.16-0.01,0.24-0.01c0.069-0.01,0.13-0.02,0.189-0.02c5.07-0.261,7.53,2.97,8.75,7.35c0.17,0.59,0.311,1.21,0.44,1.84
		V93.46z"/>
</g>
<path opacity="0.13" enable-background="new    " d="M79.5,11.15L64.81,2.68L64.8,2.67L18.73,29.24v53.12l3.04,1.75l0.51,0.29
	l0.16,0.1l1.44,0.83l29.4,16.95l11.5,6.63l0.02,0.01l25.76-14.85l0.4-0.23l0.65-0.38l19.27-11.1V29.24L79.5,11.15z M27.6,85.33
	l-1.44-0.83l-0.12-0.07l-0.56-0.319l-4.04-2.33l-0.36-0.21l-0.49-0.28V30.32L64.8,4.83l44.21,25.49v50.97L91.17,91.58l-0.76,0.43
	l-0.28,0.17L64.8,106.78L27.6,85.33z"/>
</svg>
