<?xml version="1.0" encoding="utf-8"?>
<!-- Generator: Adobe Illustrator 21.0.2, SVG Export Plug-In . SVG Version: 6.00 Build 0)  -->
<svg version="1.1" id="Layer_1" xmlns="http://www.w3.org/2000/svg" xmlns:xlink="http://www.w3.org/1999/xlink" x="0px" y="0px"
	 viewBox="0 0 110.917 128.063" enable-background="new 0 0 110.917 128.063" xml:space="preserve">
<g id="Layer_63_9_">
	<polygon fill="#D8C6BA" points="110.878,96.035 55.45,128.035 0.027,96.035 0.027,32.035 55.45,0.035 110.878,32.035 	"/>
</g>
<linearGradient id="SVGID_1_" gradientUnits="userSpaceOnUse" x1="55.8889" y1="11.0166" x2="55.8889" y2="117.2568">
	<stop  offset="0" style="stop-color:#DBF8FF"/>
	<stop  offset="1" style="stop-color:#00D6FF"/>
</linearGradient>
<path fill="url(#SVGID_1_)" d="M101.889,37.567v53.14l-0.01,0.01l-0.68,0.391l-0.74,0.42l-4.15,2.39l-0.201,0.12l-1.93,1.11
	l-2.719,1.569l-0.24,0.13l-0.131,0.051l-0.109,0.069l-3.029,1.74l-0.521,0.3l-0.299,0.17l-1.051,0.6l-0.039,0.029l-1.23,0.71
	l-0.451,0.261l-0.02,0.02h-0.01l-1.539,0.89l-0.24,0.141l-0.631,0.38l-1.26,0.72l-0.119,0.07l-0.08,0.05l-0.41,0.24l-0.031,0.01
	l-0.16,0.09v0.011l-0.779,0.449l-0.18,0.09l-0.019,0.021l-0.041,0.02l-1.01,0.58l-0.16,0.091l-0.129,0.079l-0.371,0.21l-0.24,0.141
	h-0.01l-0.709,0.42l-3.41,1.97l-1.211,0.7l-0.629,0.36l-0.061,0.029l-2.971,1.721l-0.529,0.31l-4.041,2.33l-0.01,0.01l-0.301,0.17
	l-0.129,0.08l-4.75,2.74l-0.961,0.55l-0.561,0.32h-0.01l-0.32,0.189l-0.479,0.28l-1.42-0.82l-0.852-0.489l-0.029-0.011l-0.24-0.14
	l-1.5-0.87l-3.369-1.95l-0.16-0.09l-0.041-0.029l-2.068-1.19l-2.611-1.51l-2.75-1.601l-0.689-0.39l-1.439-0.83l-3.65-2.12
	l-0.391-0.22l-0.49-0.28l-0.33-0.2l-0.01-0.01l-1.839-1.05l-0.57-0.33l-1.71-0.99l-0.75-0.439l-1.76-1.021l-2.09-1.2l-0.82-0.47
	l-0.09-0.05l-0.12-0.07l-0.38-0.22l-0.01-0.01l-0.21-0.12h-0.011l-1.04-0.601c-0.01-0.01-0.01-0.01-0.02-0.01l-1.86-1.08l-1.02-0.59
	l-2.11-1.229l-0.29-0.17c0,0-0.01,0-0.02-0.011l-0.28-0.16l-3.3-1.899l-3.5-2.021l-0.08-0.04l-0.03-0.02v-53.14l0.93-0.54l13.4-7.73
	l1.99-1.16l4.93-2.83l1.579-0.92l0.17-0.09l1.66-0.95l0.781-0.449l0.379-0.221l0.439-0.26l1.101-0.65l0.52-0.3l1.299-0.74l0.98-0.56
	l0.691-0.41l1.398-0.8h0.01l0.051-0.03l5.721-3.3l0.189-0.11l0.27-0.159l6.07-3.511l1.439-0.83l1.061,0.62l6.49,3.75l2.601,1.5
	l4.91,2.83l7.02,4.05l1.039,0.61l2.301,1.309l0.869,0.5l0.92,0.551c0,0,0.01,0,0.021,0l0.58,0.33l1.369,0.79l0.801,0.46l0.09,0.06
	l1.809,1.04l1.65,0.95l2.131,1.229l0.039,0.03v0.01l0.26,0.141l0.66,0.39l1.461,0.84l1.939,1.12l0.779,0.44l0.441,0.25l1.939,1.119
	L101.889,37.567z"/>
<path fill="#F8FEFF" d="M85.947,28.492c-1.05,0.06-2.11,0.2-3.17,0.34h-0.011c-1.22,0.15-2.42,0.29-3.58,0.301
	c-2.71,0.02-5.38,0.41-8.069,0.52c-0.26,0.04-0.49,0.05-0.71,0.021c-0.58,0.01-1.15,0.01-1.721-0.021c-0.1,0-0.119-0.07-0.119-0.14
	c-0.15-0.03-0.28-0.05-0.341-0.08c-0.72-0.33-0.649-1.271,0.051-1.57c0.59-0.25,1.319-0.25,2-0.2c0.069-0.01,0.13-0.02,0.21-0.02
	c0.59-0.02,1.21,0.07,1.8,0.03c0.24-0.061,0.479-0.11,0.72-0.17c0.03-0.011,0.05-0.02,0.07-0.03c0.08-0.09,0.18-0.16,0.34-0.2
	c0.03,0,0.06,0,0.08-0.01c0.72-0.431,1.33-1.07,2.1-1.431c0.41-0.189,0.86-0.329,1.311-0.399c0.63-0.09,1.27-0.03,1.83,0.25
	c0.08-0.36,0.34-0.68,0.689-0.94l0.24,0.141l1.24,0.71l1.77,1.02l1.34,0.77L85.947,28.492z"/>
<path fill="#F8FEFF" d="M34.976,64.6c-0.079,0.04-0.26,0.07-0.479,0.1c0.01,0.101-0.03,0.19-0.16,0.2
	c-0.81,0.03-1.62,0.03-2.42,0.021c-0.31,0.04-0.65,0.029-1-0.03c-3.8-0.141-7.55-0.65-11.37-0.69c-2.53-0.02-5.189-0.45-7.83-0.71
	c-0.62-0.06-1.24-0.109-1.859-0.14v-6.28c0.54-0.24,1.189-0.37,1.859-0.41c1.141-0.09,2.34,0.051,3.16,0.181
	c1.38,0.21,4.9,1.14,5.3,2.83c1.34-0.631,3.03-0.41,4.431,0.19c1.079,0.47,1.939,1.32,2.949,1.88c0.03,0.01,0.07,0.01,0.11,0.021
	c0.22,0.05,0.37,0.149,0.481,0.27c0.029,0.01,0.059,0.021,0.09,0.03c0.34,0.08,0.68,0.15,1.019,0.22c0.83,0.061,1.71-0.06,2.54-0.04
	c0.11,0.01,0.19,0.021,0.29,0.03c0.96-0.07,1.99-0.07,2.82,0.27C35.897,62.93,35.997,64.17,34.976,64.6z"/>
<path fill="#F8FEFF" d="M42.516,48.702c-0.029,0.021-0.069,0.03-0.1,0.04c-0.09,0.15-0.22,0.271-0.4,0.32
	c-0.029,0.06-0.08,0.12-0.18,0.14c-6.13,0.73-12.37,0.551-18.53,0.521c-3.809-0.01-7.72,0.12-11.59-0.03
	c-0.62-0.02-1.24-0.05-1.859-0.1v-3.181c0.06-0.029,0.13-0.06,0.189-0.08c-0.05-0.02-0.1-0.05-0.149-0.069
	c-0.011,0.01-0.03,0.02-0.04,0.02v-8.529l0.3-0.171l2.06-1.189l7.44-4.29h0.01c0.86,0.15,1.66,0.41,2.4,0.76
	c2.43,1.141,4.22,3.25,4.93,5.98c0.91-1.94,4.6-1.75,6.269-1.221c2.45,0.78,4.92,3.601,5.19,6.36c0.58-1.189,2.691-0.05,3.3,0.61
	C42.636,45.522,43.827,47.603,42.516,48.702z"/>
<path fill="#F8FEFF" d="M100.136,52.763c-1.34,0.42-2.47,1.1-2.84,2.25c-0.86-0.7-2.12-1.15-3.22-1.17
	c-2.351-0.021-4.41,1.33-5.141,3.09c-0.02,0.01-0.05,0.01-0.069,0.01c-0.49-0.35-1.13-0.61-1.641-0.66
	c-0.64-0.069-1.27,0.061-1.739,0.44c-0.37,0.3-0.561,0.83-0.38,1.25c-0.12,0.01-0.25,0.02-0.37,0.04c-0.16,0.03-0.16,0.24,0,0.27
	c1.46,0.221,2.939,0.29,4.43,0.32l0.06,0.06c0.061,0.07,0.21,0.04,0.261-0.029c0.01-0.011,0-0.021,0.01-0.03
	c1.84,0.02,3.68-0.04,5.5-0.03c1.71,0,3.43,0.04,5.14,0.021c0.62,0,1.25-0.011,1.87-0.03v-6.25
	C101.377,52.423,100.737,52.563,100.136,52.763z"/>
<path fill="#457FFF" d="M93.327,95.872l-1.97,1.141l-0.07,0.04l-0.14,0.08l-3.471,2l-0.43,0.25l-0.521,0.3l-1.399,0.81l-1.391,0.801
	l-0.699,0.399l-0.101,0.061l-0.09,0.05l-0.24,0.14l-0.39,0.22l-1.03,0.601l-2.08,1.2l-0.59,0.34l-0.21,0.12l-3.689,2.13l-0.141,0.08
	l-0.52,0.3l-2.23,1.28l-0.399,0.229l-1.341,0.771l-0.09,0.05l-1.109,0.64l-0.13,0.07l-0.221,0.13l-0.05,0.03l-0.269,0.16
	l-0.131,0.069l-1.09,0.63l-1.47,0.851l-0.07,0.04l-1.569,0.899l-0.021,0.011l-0.39,0.229l-0.19,0.11l-2.399,1.38l-4.37,2.52
	l-0.141,0.08l-0.55,0.32l-0.229-0.13l-0.431-0.25l-0.18-0.101l-3.01-1.739l-0.03-0.021l-0.03-0.01l-0.029-0.021l-0.24-0.14
	l-0.22-0.13l-0.521-0.3l-0.149-0.08l-0.681-0.391l-0.75-0.43c0-0.01,0-0.01,0-0.01l-1.14-0.65l-0.09-0.05l-0.32-0.189l-0.15-0.08
	l-0.449-0.261l-0.051-0.029l-0.05-0.03l-0.24-0.14l-2.239-1.29l-0.49-0.28l-7.15-4.13l-1.33-0.77l-2.979-1.72l-0.39-0.22
	l-6.101-3.52l-0.6-0.34l-0.56-0.32l-0.489-0.279l-3.9-2.25l-0.99-0.59h-0.03l-0.05-0.021l-0.069-0.05l-0.511-0.29
	c-0.01,0-0.02,0-0.02,0l-5.77-3.34l-0.05-0.03c0.03-0.02,0.061-0.04,0.09-0.05c0.63-0.38,1.32-0.67,1.981-0.9
	c0.149-0.04,0.29-0.09,0.43-0.13c0.061-0.02,0.12-0.03,0.181-0.04c2.23-0.54,4.25,0.94,5.859,2.38c0.08,0.06,0.15,0.13,0.231,0.2
	c0.04-0.02,0.069-0.04,0.109-0.05c0.16-0.07,0.32-0.12,0.511-0.101c2.1,0.12,3.22-1.84,5.05-2.35c0.95-0.26,1.83,0.01,2.67,0.41
	c0.05,0.01,0.1,0.01,0.149,0.02c0.83,0.17,1.091,0.33,1.631,0.99c0.069,0.09,0.13,0.19,0.18,0.29c0.72,0.53,1.45,1.021,2.21,1.45
	c0.27-0.3,0.65-0.521,1.11-0.51c1.68,0.02,3.239-0.23,4.77-0.591c2.16-2.42,7.55-1.56,10.21,0.54c0.15,0.03,0.3,0.08,0.46,0.16
	c0.46,0.23,0.91,0.471,1.36,0.721c0.02,0.01,0.029,0.02,0.05,0.029c0.28-0.59,0.93-1.01,1.74-0.859c0.189,0.04,0.38,0.04,0.559,0.01
	c0.061-0.03,0.11-0.061,0.17-0.09c0.44-0.32,1.15-0.83,1.29-0.9c0.311-0.149,0.641-0.18,0.95-0.13c0.23-0.12,0.46-0.24,0.7-0.33
	c0.16-0.11,0.34-0.2,0.569-0.26c1.86-0.521,3.49,0.03,5.08,1.08c0.98,0.64,1.94,1.12,2.92,1.529c2.08-1.25,4.961-2.319,7.25-2.35
	c2.131-0.03,3.54,0.87,4.99,2.13c2.13,0.01,4.28-1.05,6.521-1.49c0.37-0.89,1.45-1.5,2.37-0.869c0.54,0.38,1.069,0.71,1.619,1.02
	c0.9,0.26,1.711,0.56,2.44,0.94c0.25,0.13,0.48,0.26,0.71,0.409c0.01,0.011,0.021,0.011,0.03,0.011
	C92.737,95.232,93.096,95.522,93.327,95.872z"/>
<path fill="#165CD8" d="M85.327,100.492l-1.391,0.801l-0.699,0.399l-0.101,0.061l-0.09,0.05l-0.24,0.14l-0.39,0.22l-1.03,0.601
	l-2.08,1.2l-0.59,0.34l-0.21,0.12l-3.689,2.13l-0.141,0.08l-0.52,0.3l-2.23,1.28l-0.399,0.229l-1.341,0.771l-0.09,0.05l-1.109,0.64
	l-0.13,0.07l-0.221,0.13l-0.05,0.03l-0.269,0.16l-0.131,0.069l-1.09,0.63l-1.47,0.851l-0.07,0.04l-1.569,0.899l-0.021,0.011
	l-0.39,0.229l-0.19,0.11l-2.399,1.38l-4.37,2.52l-0.141,0.08c-0.21,0.04-0.449,0.05-0.699,0.021c-0.17-0.021-0.341-0.051-0.511-0.08
	l-0.18-0.101l-3.01-1.739l-0.03-0.021l-0.03-0.01l-0.029-0.021l-0.24-0.14l-0.22-0.13l-0.521-0.3l-0.149-0.08l-0.681-0.391
	l-0.75-0.43c0-0.01,0-0.01,0-0.01l-1.14-0.65l-0.09-0.05l-0.32-0.189l-0.15-0.08l-0.449-0.261l-0.051-0.029l-0.05-0.03l-0.24-0.14
	l-2.239-1.29l-0.49-0.28l-7.15-4.13l-1.33-0.77l-2.979-1.72l-0.39-0.22l-6.101-3.52l-0.6-0.34l-0.56-0.32l-0.489-0.279l-3.9-2.25
	l-0.99-0.59h-0.03l-0.05-0.021l-0.069-0.05l-0.511-0.29c-0.01,0-0.02,0-0.02,0l-5.77-3.34c0.011-0.03,0.021-0.05,0.04-0.08
	c0.301-0.73,1.021-1.271,1.87-0.96l0.03,0.01c0.229-0.07,0.46-0.11,0.69-0.12c1.22-0.1,2.43,0.39,3.64,0.86
	c0.53,0.2,0.899,0.59,1.07,1.029c0.39,0.15,0.77,0.32,1.149,0.49c0.12,0.05,0.231,0.101,0.34,0.15c3.12,1.42,6.07,3.25,9.17,4.72
	c1.95,0.93,4.03,1.66,6.181,2.271c0.25,0.01,0.5,0.069,0.739,0.199c3.771,1,7.7,1.591,11.421,1.98
	c6.34,0.67,12.479,0.09,18.829-0.69c4.37-0.54,8.82-1.04,13.04-2.14c0.78-0.2,1.54-0.42,2.301-0.67
	C84.426,99.683,84.997,100.003,85.327,100.492z"/>
<path fill="#C2D8FF" d="M93.377,95.693l-0.03,0.02l-0.96,0.55c-0.74-0.35-1.42-0.66-2.12-0.92c-0.93-0.35-1.9-0.59-3.1-0.66
	c-2.14-0.11-4.22,0.78-6.36,0.37c-0.2-0.04-0.15-0.36,0.05-0.36c0.6,0,1.18-0.08,1.76-0.18c0.01-0.01,0-0.03,0.01-0.05
	c0.37-0.98,1.89-1.26,2.79-1.34c0.57-0.04,2.06-0.16,2.58,0.42c0.5-0.02,1.01,0,1.52,0.09c0.73,0.13,1.7,0.32,2.5,0.71
	C92.647,94.642,93.167,95.073,93.377,95.693z"/>
<path fill="#C2D8FF" d="M83.53,95.753c-1.557-0.388-3.109-0.211-4.659-0.714c-1.395-0.453-2.628-1.188-4.059-1.556
	c-2.725-0.698-5.271,1.523-8.021,1.188c-0.144-0.018-0.185,0.197-0.071,0.262c0.042,0.023,0.084,0.038,0.126,0.06
	c-0.092,0.093-0.145,0.222-0.131,0.402c0.02,0.257,0.304,0.484,0.553,0.317c0.018-0.012,0.016-0.011,0.028-0.02
	c0.034,0.003,0.065,0.005,0.104,0.01c0.282,0.038,0.556,0.137,0.827,0.219c0.01,0.003,0.021,0.007,0.03,0.01
	c-0.143,0.02-0.31,0.036-0.543,0.049c-1.052,0.056-2.088-0.653-2.917-1.213c-1.056-0.711-2.09-1.372-3.276-1.842
	c-0.431-0.17-0.859-0.237-1.286-0.242c-1.049-0.588-3.833,0.005-4.761,1.184c-0.264,0.078-0.528,0.153-0.8,0.217
	c-0.546,0.127-1.14,0.221-1.618,0.525c-0.09,0.058-0.176,0.154-0.218,0.264c-2.029-1.002-3.935-2.598-6.242-2.501
	c-3.587,0.15-6.838,2.064-10.492,2.245c-0.18,0.009-0.285,0.274-0.099,0.364c0.157,0.075,0.315,0.133,0.476,0.188
	c-0.023,0.015-0.046,0.031-0.064,0.05c-0.576-0.301-1.136-0.672-1.56-0.831c-0.189-0.071-0.336,0.136-0.303,0.303
	c0.019,0.092,0.058,0.177,0.099,0.262c-0.972-0.449-1.879-0.987-2.857-1.479c0.04,0.004,0.08,0.017,0.121,0.019
	c0.148,0.006,0.25-0.206,0.127-0.307c-0.877-0.718-1.871-1.3-3.05-1.255c-0.76,0.028-1.552,0.339-2.128,0.862
	c-0.078,0.029-0.156,0.059-0.232,0.086c-0.426,0.055-0.855,0.147-1.305,0.264c-0.306,0.079-0.417,0.304-0.398,0.531
	c-0.699,0.197-1.412,0.362-2.201,0.432c-0.29,0.025-0.383,0.449-0.071,0.529c1.077,0.277,1.876,0.333,2.956,0.105
	c2.366-0.498,3.766-1.266,6.082,0.087c1.292,0.755,3.643,2.7,5.208,1.658c0.391,0.121,0.771,0.212,1.069,0.243
	c0.548,0.059,1.047-0.339,1.401-0.701c0.261-0.266,0.556-0.538,0.833-0.816c2.331-0.51,4.732-1.607,6.958-1.227
	c2.766,0.474,6.03,3.588,8.927,2.315c0.321-0.141,0.154-0.663-0.176-0.647c-0.561,0.025-1.097-0.058-1.619-0.205
	c0.78,0.07,1.537-0.172,2.374-0.49c2.334-0.89,3.688-1.411,5.959-0.12c2.467,1.401,4.248,2.771,7.008,1.738
	c0.064,0.077,0.203,0.074,0.25-0.016c0.017-0.032,0.03-0.065,0.046-0.099c0.17-0.076,0.206-0.229,0.169-0.376
	c0.095-0.215,0.196-0.425,0.354-0.61c0.334-0.392,0.699-0.434,1.161-0.574c0.039-0.012,0.061-0.045,0.092-0.068
	c0.935-0.22,1.871-0.385,2.791-0.217c3.354,0.61,5.46,2.921,9.029,1.507C83.694,96.058,83.73,95.803,83.53,95.753z"/>
<path fill="#60513E" d="M31.229,90.5c-0.049-0.638-0.034-0.655-0.381-1.189c-0.169-0.262-0.481-0.295-0.697-0.161
	c-0.035-0.052-0.071-0.102-0.103-0.154c0.063-0.079,0.109-0.182,0.119-0.308c0.201-2.465-1.748-5.748-3.237-7.77
	c-0.266-0.491-0.552-0.971-0.894-1.42c-0.19-0.251-0.477-0.271-0.685-0.141c-0.332-0.435-0.731-0.804-1.244-1.039
	c-0.27-0.124-0.593-0.039-0.707,0.248c-0.313-0.303-0.821-0.175-0.857,0.309c-0.002,0.024,0.003,0.046,0.002,0.069
	c-0.353-0.136-0.805,0.103-0.672,0.563c0.034,0.117,0.074,0.232,0.108,0.35c-0.17,0.087-0.306,0.262-0.314,0.455
	c-0.007,0.184-0.004,0.366,0.005,0.548c-0.094-0.133-0.173-0.271-0.276-0.401c-0.188-0.236-0.488-0.18-0.678-0.004
	c-0.094-0.278-0.19-0.557-0.307-0.832c-0.123-0.291-0.472-0.304-0.706-0.155c-0.212-1.943-0.711-3.924-0.993-5.788
	c0-0.001-0.001-0.002-0.001-0.003c0.116-0.026,0.212-0.099,0.278-0.195c0.568,0.019,0.79-0.854,0.186-0.964
	c-0.229-0.041-0.458-0.083-0.688-0.125c-0.083-0.015-0.157-0.009-0.226,0.006c-0.317-0.142-0.723,0.002-0.719,0.414
	c-0.006,0.071-0.012,0.143-0.018,0.214c-0.234,0.009-0.443,0.158-0.42,0.474c0.096,1.273,0.27,2.535,0.313,3.813
	c0.007,0.203,0.115,0.335,0.254,0.41c0.028,0.807,0.114,1.609,0.326,2.41c0.001,0.003,0.003,0.005,0.004,0.008
	c0.143,1.737,0.792,3.645,1.55,5.318c0.167,0.509,0.337,1.01,0.509,1.486c0.064,0.18,0.193,0.277,0.335,0.318
	c0.066,0.187,0.129,0.373,0.207,0.554c0.001,0.081,0.017,0.164,0.071,0.247c0.059,0.088,0.119,0.181,0.179,0.27
	c0.64,1.25,1.554,2.391,2.384,3.48c0.068,0.089,0.149,0.141,0.234,0.176c0.312,0.37,0.632,0.727,0.969,1.051
	c0.284,0.273,0.909,0.105,0.853-0.354c-0.006-0.044-0.016-0.087-0.021-0.131c0.072,0.018,0.144,0.036,0.22,0.044
	c0.179,0.018,0.339-0.11,0.432-0.248c0.078-0.115,0.133-0.226,0.172-0.335c0.133-0.064,0.237-0.192,0.287-0.351
	c0.286,0.14,0.649-0.002,0.7-0.335c0.161,0.049,0.331,0.015,0.462-0.087c0.295,0.203,0.634-0.029,0.717-0.33
	c0.067-0.007,0.131-0.017,0.191-0.05c0.113,0.106,0.209,0.223,0.339,0.316c0.244,0.179,0.585,0.016,0.701-0.24
	c0.171,0.064,0.344,0.032,0.478-0.076c0.024,0.121,0.052,0.262,0.09,0.455c0.125,0.633,1.089,0.364,0.965-0.266l-0.012-0.158
	C31.143,90.803,31.242,90.662,31.229,90.5z"/>
<path fill="#704C3A" d="M54.626,76.231c0.051-0.054,0.101-0.108,0.151-0.168c0.239-0.074,0.441-0.267,0.5-0.566
	c0.02-0.019,0.04-0.035,0.06-0.052c0.024,0.065,0.061,0.123,0.105,0.174c0.02,0.045,0.029,0.092,0.053,0.139
	c0.202,0.413,0.892,0.413,1.094,0c0.572-1.172,1.195-9.595-1.594-8.568c-0.047,0.018-0.081,0.045-0.121,0.067
	c-0.215,0.021-0.428,0.052-0.644,0.048c-0.383,0.01-0.63,0.323-0.617,0.664c-0.508,1.107-0.518,2.178-0.383,3.379
	c0.175,1.565,0.238,3.025,0.298,4.59c0.004,0.107,0.041,0.208,0.097,0.296l-6.832,0.017l-8.313-0.625l-2.938-3.813L17.729,72
	l2.813,10.25l9.518,9.07l2.232,1.43l3.375,1.688L41.292,93l5.5-0.813l6,2.375l8.063-2.625l5.187,2.313l7.313-1.375l5.875,1.563
	l1-0.188l1.211-1.935c0.286-0.189,0.566-0.387,0.832-0.599c0.189-0.014,0.368-0.104,0.465-0.321c0.048-0.108,0.104-0.218,0.162-0.33
	c0.075-0.112,0.143-0.228,0.193-0.348c0.611-1.051,1.473-2.22,1.447-3.353l0.814-1.302l2.375-5.625l3.813-2.313l6.75-1.313
	l0.125-0.688L54.626,76.231z"/>
<path fill="#60513E" d="M56.344,22.063c-0.002-0.286-0.223-0.466-0.49-0.49c-0.838-0.078-1.676,0.152-1.782,1.104
	c-0.048,0.433,0.031,0.866,0.07,1.296c0.018,0.193-0.007,0.425-0.002,0.646c-0.394,0.063-0.487,0.625-0.142,0.84
	c0.526,0.327,1.049,0.547,1.668,0.609c0.222,0.022,0.428-0.171,0.485-0.37C56.499,24.502,56.355,23.286,56.344,22.063z"/>
<path fill="#3D3226" d="M56.987,69.7c-0.178-0.185-0.369-0.323-0.566-0.44c0.002-0.006,0.008-0.008,0.01-0.014
	c0.117-0.347,0.145-0.743,0.108-1.105c-0.041-0.408-0.307-1.039-0.83-0.975c-0.151,0.019-0.275,0.073-0.387,0.143
	c-0.072-0.033-0.146-0.066-0.228-0.088c-0.255-0.067-0.529-0.024-0.754,0.105c-0.135,0.002-0.261,0.046-0.368,0.131
	c-0.208,0.019-0.401,0.152-0.491,0.409c-0.126,0.36-0.143,0.734-0.143,1.113c0,0.193,0.12,0.409,0.3,0.506
	c-0.235,0.172-0.458,0.368-0.647,0.609c-0.243,0.307,0.132,0.706,0.436,0.436c0.44-0.391,0.925-0.656,1.521-0.675
	c0.546-0.017,1.001,0.353,1.418,0.648C56.854,70.851,57.378,70.106,56.987,69.7z"/>
<path fill="#3D3226" d="M87.229,80.023c-5.374-0.532-10.884-0.216-16.28-0.217c-5.874-0.001-11.748-0.002-17.622-0.002
	c-5.852,0.001-11.702,0.002-17.553,0.002c-5.408,0.001-10.965-0.339-16.371,0.075c0.026-0.051,0.037-0.112,0.017-0.181
	c-0.703-2.364-0.853-4.687-0.845-7.139c0.002-0.46-0.562-0.549-0.795-0.278c-0.034-0.028-0.057-0.064-0.107-0.08
	c-0.035-0.011-0.07-0.021-0.106-0.033c-0.249-0.077-0.521,0.133-0.514,0.392c0.011,0.44,0.245,0.803,0.333,1.226
	c0.015,0.07,0.05,0.121,0.092,0.163c-0.268,2.026-0.333,4.368,0.197,6.314c0.135,2.072,0.906,3.967,2.101,5.617
	c-0.008,0.063-0.006,0.127,0.015,0.194c0.113,0.371,0.253,0.731,0.403,1.086c-0.057,0.157-0.032,0.334,0.149,0.476
	c0.049,0.038,0.095,0.086,0.143,0.126c0.454,0.904,1.031,1.74,1.739,2.477c0.114,0.212,0.226,0.429,0.334,0.656
	c0.445,0.93,1.282,2.485,2.549,2.08c0.351-0.112,0.502-0.526,0.307-0.829c0.191,0.069,0.391,0.126,0.604,0.165
	c0.366,0.067,0.628-0.168,0.684-0.446c0.223-0.063,0.337-0.257,0.347-0.472c1.354,0.56,2.745,0.961,4.1,1.166
	c0.37,0.056,0.658-0.343,0.376-0.646c-0.838-0.901-1.851-1.196-3-1.602c-2.056-0.725-3.876-1.394-5.573-2.806
	c4.628,0.47,9.407,0.271,14.045,0.28c5.209,0.01,10.418,0.006,15.626,0.008c5.253,0.002,10.505,0.006,15.758,0.006
	c5.104,0,10.317,0.284,15.42-0.088c-0.808,1.411-2.028,2.516-3.389,3.428c-0.745,0.499-1.604,0.797-2.479,0.958
	c-0.229,0.042-0.436,0.08-0.632,0.125c-1.148-0.181-2.315-0.583-3.426-0.727c-1.427-0.186-2.995,0.3-4.323,0.736
	c-1.376,0.452-2.464,0.967-3.709,1.166c-1.787-1.295-4.205-2.94-6.467-2.601c-1.831,0.275-4.452,2.065-6.706,2.585
	c-1.547-2.145-5.517-2.846-7.793-2.82c-1.895,0.022-3.104,1.155-4.833,1.656c-0.941,0.272-1.845,0.619-2.766,0.947
	c-1.244,0.442-2.651-0.103-3.901-0.266c-0.178-0.023-0.267,0.236-0.144,0.347c2.223,1.994,4.629,0.882,7.165,0.256
	c1.916-0.473,3.226-1.509,5.319-1.52c1.054-0.007,2.671,0.355,4.023,1.017c-0.146,0.046-0.248,0.261-0.11,0.391
	c0.629,0.594,1.266,0.87,1.923,0.949c0.11,0.133,0.229,0.262,0.31,0.403c0.422,0.742,1.369,0.187,1.229-0.534
	c0.513-0.13,1.04-0.321,1.594-0.552c1.588-0.662,3.12-1.458,4.849-1.68c1.41-0.181,2.796,0.565,4.063,1.407
	c-0.049-0.007-0.095,0.051-0.052,0.091c0.422,0.382,0.816,0.602,1.231,0.72c0.271,0.186,0.534,0.367,0.787,0.527
	c0.46,0.291,0.858-0.078,0.89-0.493c0.059-0.008,0.112-0.014,0.172-0.023c2.836-0.452,4.855-1.949,7.93-1.458
	c0.522,0.084,1.057,0.176,1.588,0.266c0.028,0.053,0.081,0.095,0.151,0.099c0.157,0.009,0.315,0.006,0.474,0.006
	c0.054,0.008,0.106,0.019,0.16,0.026c-0.021,0.082-0.025,0.172,0.009,0.27c0.249,0.72,0.964,0.905,1.652,0.956
	c0.755,0.057,1.361-0.12,1.926-0.588c0.092-0.076,0.111-0.169,0.093-0.257c0.16-0.011,0.318-0.043,0.498-0.123
	c0.139-0.062,0.203-0.229,0.211-0.368c0.002-0.032,0.004-0.065,0.006-0.098c0.001-0.017-0.006-0.029-0.008-0.045
	c0.805-0.333,1.545-0.89,2.179-1.797c0.081-0.116,0.006-0.27-0.11-0.325c0.057-0.09,0.119-0.177,0.169-0.271
	c0.121-0.228,0.056-0.426-0.083-0.55c0.515-0.671,0.895-1.441,1.107-2.295c0.128-0.012,0.256-0.018,0.384-0.029
	c0.402-0.038,0.402-0.587,0-0.625c-0.106-0.01-0.214-0.015-0.32-0.024c-0.102-0.159-0.328-0.221-0.437-0.033
	c-4.907-0.39-9.924-0.118-14.838-0.118c-5.252,0-10.505,0.003-15.757,0.006c-5.229,0.002-10.459,0.004-15.688,0.006
	c-5.066,0.002-10.299-0.237-15.345,0.319c-0.529-0.483-0.996-1.01-1.417-1.565c-0.552-1.666-1.3-3.229-1.651-4.967
	c5.373,0.402,10.895,0.067,16.268,0.068c5.851,0,11.701,0.001,17.553,0.002c5.874,0,11.748-0.001,17.622-0.002
	c5.396-0.001,10.906,0.315,16.28-0.217C87.521,80.447,87.521,80.053,87.229,80.023z"/>
<path fill="#3D3226" d="M56.811,75.374c0.004-0.021,0.008-0.04,0.008-0.062s-0.004-0.041-0.008-0.062
	c-0.004-0.023-0.008-0.045-0.015-0.066c-0.005-0.012-0.01-0.021-0.016-0.032c-0.048-0.106-0.139-0.183-0.262-0.18
	c-0.905-0.276-1.915-0.248-2.849-0.098c-0.142,0.022-0.291,0.178-0.317,0.316c-0.012,0.066-0.022,0.12-0.01,0.188
	c0.003,0.019,0.007,0.036,0.01,0.055c0.026,0.139,0.176,0.294,0.317,0.316c0.934,0.15,1.943,0.179,2.849-0.098
	c0.123,0.003,0.214-0.073,0.262-0.18c0.006-0.011,0.011-0.021,0.016-0.032C56.803,75.419,56.807,75.397,56.811,75.374z"/>
<path fill="#8E7F6F" d="M74.021,65.167c-1.55,2.229-6.277,1.818-8.501,1.394c-2.831-0.541-5.551-1.722-7.76-3.576
	c-2.385-2.004-4.443-4.942-5.639-7.805c-0.154-0.369-0.283-0.745-0.403-1.124c0.376-5.996-0.782-12.511-3.028-17.886
	c-0.521-1.247-2.937-7.084-4.744-6.392c-0.362,0.139-0.333,0.709,0.096,0.706c0.477-0.003,1.669,2.743,1.879,3.133
	c0.93,1.73,1.694,3.512,2.351,5.366c0.684,1.933,1.064,3.899,1.313,5.882c-0.01-0.024-0.016-0.05-0.025-0.074
	c-0.031-0.079-0.17-0.078-0.161,0.021c0.178,2.08,0.357,4.25,0.719,6.374c0.058,0.775,0.12,1.55,0.198,2.324
	c-0.063,0.085-0.108,0.187-0.12,0.302c-0.272,2.67,0.179,5.357-0.614,7.963c-0.063,0.234,0.01,0.419,0.139,0.551
	c-0.211,0.839-0.385,1.67-0.524,2.526c-0.018,0.111,0,0.209,0.031,0.298c-0.222,0.594-0.436,1.185-0.627,1.785
	c0.427,0.057,0.847,0.141,1.256,0.264c0.044,0.003,0.088,0.008,0.132,0.012c0.266-0.023,0.532-0.033,0.799-0.034
	c0.096-0.072,0.191-0.144,0.288-0.217c0.094,0.014,0.181,0.023,0.269,0.035c0.36,0.133,0.449,0.124,1.012,0.102
	c0.281-0.011,0.459-0.156,0.555-0.342c0.43-0.008,0.861,0.008,1.32,0.021c0.133,0.003,0.236-0.028,0.324-0.076
	c0.966,0.342,1.967,0.61,2.988,0.593c0.064-0.001,0.115-0.022,0.17-0.037c0.887,0.326,1.768,0.664,2.66,0.913
	c0.003,0.049,0.014,0.098,0.031,0.146c0.35,0.104,0.688,0.242,1.024,0.406c0.617,0.179,1.231,0.366,1.844,0.558
	c-0.097-0.35,0.176-0.795,0.592-0.635c1.075,0.416,2.221,0.946,3.268,1.614c0.596,0.254,1.193,0.504,1.791,0.76
	c0.001,0,0.002,0.001,0.004,0.001c0.039,0.018,0.079,0.033,0.119,0.051c0.083,0.036,0.137,0.089,0.178,0.148
	c0.252,0.016,0.504,0.03,0.758,0.033c0.42,0.005,0.562,0.429,0.434,0.723c0.042,0.039,0.081,0.085,0.124,0.121
	c0.009-0.02,0.021-0.04,0.028-0.06c0.089-0.022,0.174-0.062,0.245-0.141c0.056-0.063,0.103-0.129,0.153-0.193
	c0.457-0.443,0.884-1.126,1.221-1.785c0.083-0.092,0.169-0.184,0.245-0.277c0.347-0.428,0.504-0.958,0.87-1.38
	c0.096-0.111,0.123-0.232,0.124-0.351c0.366-0.438,0.653-0.957,0.773-1.462c0.157-0.199,0.298-0.411,0.396-0.651
	C74.882,65.085,74.405,64.614,74.021,65.167z"/>
<path fill="#FFFFFF" d="M65.386,34.9c0.009-0.129-0.022-0.265-0.114-0.381c-0.378-0.478-0.815-0.869-1.255-1.267
	c-0.024-0.155-0.111-0.305-0.289-0.411c-0.77-0.559-1.536-0.962-2.428-1.144c0.017-0.066,0.018-0.138-0.019-0.206
	c-0.299-0.555-1.029-0.588-1.592-0.694c-0.237-0.114-0.54,0.174-0.449,0.424c-1.885-0.518-3.891-0.71-5.807-0.987
	c-0.34-0.049-0.6-0.333-0.674-0.141c-0.434-0.038-0.928-0.055-1.359-0.016c-0.105,0.01-0.043,0.035,0.063,0.094
	c2.756,1.544,6.295,2.647,9.281,3.722c3.674,1.323,6.022,3.69,8.636,6.455c0.21,0.223,0.639-0.005,0.528-0.308
	C69.134,37.909,67.36,36.189,65.386,34.9z"/>
<path fill="#C6998D" d="M97.535,76.115c-0.814,0.241-1.657,0.121-2.493,0.139c-0.17,0.004-0.291,0.078-0.37,0.183
	c-0.88-0.021-1.768,0.024-2.637,0.023c-2.48,0-4.962-0.001-7.442-0.002c-4.896-0.001-9.791-0.003-14.688-0.004
	c-4.866-0.001-9.732,0.005-14.599,0.01c-4.186,0.005-8.46-0.221-12.659-0.04c-0.129-0.232-0.328-0.399-0.668-0.464
	c-1.231-0.233-2.229-0.376-3.411-0.911c-0.487-0.221-0.964-0.473-1.434-0.736c-0.184-0.189-0.342-0.402-0.51-0.605
	c0.028-0.002,0.057-0.003,0.085-0.005c0.126-0.01,0.126-0.186,0-0.195c-0.089-0.007-0.179-0.009-0.268-0.016
	c-0.076-0.097-0.162-0.183-0.236-0.281c0.104-0.106,0.145-0.249,0.132-0.396c0.019-0.208-0.073-0.404-0.299-0.498
	c-0.03-0.019-0.062-0.033-0.096-0.044l-0.001-0.001c-0.022-0.005-0.046-0.007-0.068-0.012c-0.036-0.007-0.069-0.022-0.108-0.019
	c-2.777-0.558-5.73-0.292-8.55-0.295c-2.84-0.003-5.963-0.318-8.737,0.334c-0.53,0.125-0.53,0.945,0,1.07
	c0.043,0.01,0.087,0.016,0.13,0.024c-0.063,0.004-0.127,0.005-0.19,0.009c-0.287,0.017-0.287,0.429,0,0.445
	c5.235,0.309,10.585,0.325,15.848,0.021c0.497,0.85,1.812,1.575,2.425,1.899c0.938,0.495,1.893,0.941,2.885,1.232
	c0.308,0.111,0.621,0.206,0.933,0.258c0.068,0.066,0.16,0.116,0.284,0.126c4.787,0.368,9.711,0.043,14.515,0.048
	c4.866,0.005,9.732,0.011,14.599,0.01c4.896-0.001,9.792-0.003,14.688-0.004c1.039-0.001,2.079-0.001,3.119-0.001
	c0.018-0.001,0.03-0.01,0.049-0.01h7.712c0.352-0.033,0.697-0.09,1.04-0.159c0.432-0.011,0.861-0.049,1.286-0.175
	C98.411,76.891,98.15,75.934,97.535,76.115z"/>
<path fill="#96695A" d="M56.733,23.471c-0.112-0.444-0.394-0.855-0.725-1.191c-0.096-0.236-0.269-0.408-0.557-0.514
	c-0.329-0.121-0.692,0.032-1.02-0.046c-0.663-0.159-0.944,0.859-0.281,1.02c0.026,0.007,0.053,0.009,0.079,0.015
	c0.007,0.007,0.004,0.018,0.013,0.024c0.523,0.417,0.805,1.041,1.107,1.625c0.107,0.208,0.549,1.257,0.96,0.845
	c0.315-0.315,0.153-0.769-0.061-1.152C56.561,24.108,56.808,23.764,56.733,23.471z"/>
<path fill="#F7EDB7" d="M79.14,49.989c0.001-0.019,0.007-0.032,0.006-0.052c-0.12-2.007-1.017-4.044-2.084-5.992
	c0.022-0.091,0.031-0.188,0.001-0.294c-0.863-3.023-2.287-6.666-4.396-9.405c0.005-0.097-0.005-0.196-0.052-0.295
	c-0.095-0.199-0.215-0.383-0.339-0.565c0.057-0.151,0.055-0.33-0.055-0.522c-0.307-0.534-0.399-0.602-0.895-0.976
	c-0.022-0.017-0.048-0.022-0.071-0.035c-0.215-0.253-0.425-0.511-0.63-0.773c-0.143-0.288-0.286-0.576-0.426-0.866
	c-0.085-0.191-0.176-0.379-0.293-0.599c-0.139-0.259-0.353-0.342-0.56-0.317c-0.104-0.122-0.208-0.243-0.317-0.359
	c-0.008-0.011-0.015-0.021-0.022-0.03c-0.003-0.008-0.008-0.015-0.011-0.022c-0.001,0.001-0.002,0.001-0.004,0.002
	c-0.031-0.04-0.058-0.083-0.09-0.123c-0.06-0.075-0.129-0.121-0.201-0.151c-0.702-0.66-1.52-1.145-2.535-1.156
	c-0.186-0.002-0.334,0.065-0.442,0.17c-0.261-0.051-0.521-0.104-0.781-0.158c-0.259-0.079-0.521-0.155-0.789-0.214
	c-0.247-0.073-0.495-0.146-0.743-0.216c-0.435-0.311-0.916-0.542-1.475-0.614c-0.389-0.05-0.771-0.057-1.15-0.049
	c-1.323-0.295-2.712-0.016-4.067,0.083c-1.496,0.109-2.895-0.163-4.399,0.093c-2.335,0.397-4.485,0.316-6.836,0.3
	c-1.949-0.014-3.829,0.578-5.794,0.45c-0.945-0.062-1.824-0.289-2.67,0.094c-0.157-0.017-0.313-0.041-0.471-0.055
	c-0.372-0.099-0.75-0.199-1.145-0.285c-0.71-0.273-1.079,0.777-0.527,1.164c0.01,0.019,0.015,0.038,0.027,0.056
	c0.275,0.376,0.534,0.741,0.776,1.114c-0.183,0.248-0.24,0.606-0.001,0.912c0.313,0.453,0.673,0.863,1.082,1.23
	c0.028,0.028,0.062,0.043,0.093,0.064c0.192,0.212,0.383,0.426,0.565,0.646c0.123,1.874,0.679,3.63,1.189,5.46
	c0.406,1.453,0.806,2.916,1.207,4.377c-0.016,0.055-0.033,0.108-0.034,0.172c-0.014,0.982-0.025,1.906,0.175,2.838
	c0.035,0.489,0.122,0.953,0.344,1.336c-0.096,2.053,0.094,4.08,0.433,6.145c0.131,0.797,0.316,1.596,0.513,2.396
	c-0.058,0.098-0.102,0.209-0.107,0.349c-0.045,1.063-0.124,2.122-0.143,3.188c-0.003,0.16,0.043,0.286,0.105,0.396
	c-0.02,0.481-0.048,0.963-0.094,1.443c-0.18,0.585-0.271,1.17-0.268,1.83c-0.228,0.891-0.495,1.771-0.788,2.649
	c-0.084,0.31,0.033,0.548,0.226,0.691c-0.146,0.458-0.32,0.891-0.532,1.266c-0.314,0.318-0.616,0.677-0.918,1.081
	c-0.385,0.517,0.381,1.288,0.898,0.897c0.418-0.316,0.76-0.73,1.049-1.197c0.046-0.042,0.093-0.082,0.141-0.121
	c0.056,0,0.111,0.001,0.167,0.001c0.301,0.002,0.488-0.15,0.585-0.35c0.257-0.061,0.493-0.144,0.735-0.241
	c-0.048,0.093-0.096,0.185-0.147,0.268c-0.288,0.252-0.554,0.529-0.776,0.846c-0.045,0.064-0.07,0.132-0.087,0.2
	c0.683-0.251,1.382-0.435,2.128-0.409c0.063,0.002,0.119,0.018,0.172,0.04c0.51-0.305,1.096-0.52,1.659-0.627
	c0.106,0.029,0.223,0.042,0.355,0.013c0.188-0.042,0.375-0.084,0.563-0.125c0.042-0.01,0.07-0.032,0.106-0.047
	c0.777-0.19,1.557-0.298,2.354-0.363c-0.075,0.149-0.142,0.311-0.188,0.506c0.018,0.001,0.031-0.007,0.049-0.004
	c0.208,0.029,0.415,0.058,0.623,0.086c0.105-0.098,0.252-0.148,0.439-0.086c0.22,0.074,0.44,0.146,0.659,0.22
	c0.805-0.158,1.613-0.278,2.418-0.271c0.165-0.06,0.272-0.169,0.354-0.292c0.568,0.086,1.187,0.087,1.593,0.139
	c0.239,0.03,0.473,0.088,0.71,0.128c0.505,0.149,1.012,0.313,1.521,0.473c1.152,0.133,2.285,0.388,3.406,0.713
	c0.006,0,0.011-0.003,0.018-0.002c0.304,0.03,0.6,0.083,0.897,0.132c1.236,0.132,2.409,0.499,3.533,1.012
	c0.352,0.143,0.7,0.295,1.046,0.458c1.565-0.015,2.979,0.745,4.4,1.404c0.177,0.082,0.245,0.231,0.243,0.388
	c0.048,0.021,0.099,0.04,0.146,0.062c0.078-0.001,0.157,0.01,0.235,0.051c0.131,0.068,0.252,0.149,0.377,0.226
	c0.014-0.055,0.033-0.106,0.031-0.169c-0.004-0.12,0.01-0.233,0.022-0.347c0.21,0.078,0.419,0.155,0.634,0.221
	c0.409,0.207,0.811,0.423,1.218,0.646c0.072,0.038,0.142,0.051,0.212,0.063c0.26,0.197,0.499,0.416,0.673,0.694
	c0.267,0.427,0.9,0.443,1.162,0c0.658-1.112,1.336-2.188,1.957-3.296c0.406-0.347,0.797-0.741,1.173-1.173
	c0.856-0.981,2.285-3.18,1.339-4.432c0.506-0.358,0.727-1.408,0.702-2.159c0-0.007-0.001-0.007-0.002-0.013
	c0.036-0.031,0.095-0.119,0.195-0.331c0.181-0.379,0.18-0.821,0.195-1.23c0.025-0.638-0.07-1.306-0.204-1.963
	C81.598,55.804,80.169,52.538,79.14,49.989z"/>
<path fill="#FFFBE9" d="M70.192,29.597c-1.169-2.124-5.294-2.833-7.394-3.074c-2.495-0.287-4.95-0.655-7.468-0.644
	c-2.381,0.011-4.588,0.865-6.996,0.616c-0.222-0.023-0.301,0.293-0.138,0.413c-2.354-0.102-4.707-0.227-7.071-0.28
	c-0.412-0.009-0.458,0.567-0.094,0.691c1.936,0.653,4.024,0.754,6.053,0.818c2.405,0.075,4.612-0.089,7.02-0.074
	c2.331,0.015,4.833,0.116,7.167,0.193c1.349,0.044,2.653,0.366,3.939,0.738c1.117,0.323,4.593,1.285,5.362,2.193
	c0.396,0.465-0.6-0.479-0.512-0.954C70.24,30.097,70.338,29.86,70.192,29.597z"/>
<path fill="#A09568" d="M79.386,64.511c1.661-2.673,1.811-7.034,0.97-9.582c-0.033-0.102-0.124-0.129-0.211-0.118
	c0.012,0.03,0.029,0.053,0.035,0.088c0.388,2.198,0.001,4.233-0.597,6.331c-0.218,0.763-0.55,1.49-1.048,2.143
	c-0.385,0.681-0.932,1.324-1.745,1.91c-3.337,2.405-7.687,1.28-11.604,0.998c-2.445-0.403-4.887-0.844-7.333-1.226
	c-3.663-0.572-7.231-0.844-10.937-0.518c-2.469,0.217-6.11,0.367-7.859,2.354c-0.094,0.105-0.095,0.216-0.063,0.315
	c-0.206,0.251-0.348,0.54-0.398,0.876c-0.063,0.416,0.497,0.735,0.728,0.307c0.771-1.432,3.859-1.442,5.279-1.716
	c3.971-0.767,8.394-0.231,12.324,0.497c3.334,0.619,6.493,1.838,9.782,2.611c0.408,0.096,0.818,0.177,1.231,0.247
	c-0.048,0.22,0.007,0.475,0.206,0.622c1.007,0.745,2.284,1.004,3.492,1.365c0.561,0.281,1.122,0.558,1.724,0.735
	c0.34,0.203,0.684,0.359,1.005,0.446c0.362,0.098,0.693-0.119,0.81-0.46l0.776-0.873c0.311-0.238,0.306-0.601,0.134-0.832
	c0.041,0.009,0.084,0.014,0.125,0.022c0.493,0.102,0.836-0.214,0.93-0.584c0.057-0.027,0.118-0.044,0.168-0.088
	c0.012-0.011,0.023-0.021,0.036-0.032c0.163-0.146,0.211-0.396,0.158-0.601c-0.018-0.074-0.05-0.134-0.086-0.19
	c0.157-0.107,0.319-0.207,0.461-0.304c0.118-0.08,0.154-0.21,0.127-0.325c0.785-0.329,1.356-0.915,1.321-1.931
	c-0.015-0.432-0.461-0.629-0.805-0.433c0.006-0.033,0.012-0.065,0.018-0.099c0.509-0.398,0.962-0.866,1.12-1.406
	C79.722,64.851,79.584,64.607,79.386,64.511z"/>
<path fill="#A09568" d="M74.473,67.593c-0.083-0.006-0.166-0.012-0.249-0.019c0.097-0.019,0.196-0.022,0.293-0.043
	C74.502,67.551,74.488,67.572,74.473,67.593z"/>
<g>
	<g>
		<path fill="#2B2926" d="M16.5,72.146c-0.122,7.265,1.493,16.032,7.146,21.104c0.478,0.429,1.187-0.276,0.707-0.707
			c-5.455-4.894-6.971-13.393-6.854-20.396C17.51,71.503,16.51,71.503,16.5,72.146L16.5,72.146z"/>
	</g>
</g>
<g>
	<g>
		<path fill="#2B2926" d="M17.25,72.563c6.167,0,12.333,0,18.5,0c0.643,0,0.645-1,0-1c-6.167,0-12.333,0-18.5,0
			C16.606,71.563,16.605,72.563,17.25,72.563L17.25,72.563z"/>
	</g>
</g>
<g>
	<g>
		<path fill="#2B2926" d="M35.422,72.565c1.423,2.567,4.13,3.865,6.994,3.998c0.643,0.03,0.642-0.97,0-1
			c-2.516-0.117-4.881-1.248-6.131-3.502C35.974,71.497,35.11,72.001,35.422,72.565L35.422,72.565z"/>
	</g>
</g>
<g>
	<g>
		<path fill="#2B2926" d="M42.542,76.5c14.688,0,29.375,0,44.062,0c0.643,0,0.645-1,0-1c-14.688,0-29.375,0-44.062,0
			C41.898,75.5,41.897,76.5,42.542,76.5L42.542,76.5z"/>
	</g>
</g>
<g>
	<g>
		<path fill="#2B2926" d="M80.044,94.619c2.471-1.117,3.974-2.955,4.891-5.476c1.057-2.905,1.214-6.539,3.46-8.852
			c0.449-0.462-0.258-1.17-0.707-0.707c-4.092,4.213-2.053,11.418-8.149,14.172C78.954,94.02,79.462,94.882,80.044,94.619
			L80.044,94.619z"/>
	</g>
</g>
<g>
	<g>
		<path fill="#2B2926" d="M53.75,75.563c0-2.694,0-5.389,0-8.083c0-0.643-1-0.645-1,0c0,2.694,0,5.389,0,8.083
			C52.75,76.206,53.75,76.207,53.75,75.563L53.75,75.563z"/>
	</g>
</g>
<g>
	<g>
		<path fill="#2B2926" d="M57.292,75.604c0-2.486,0-4.973,0-7.459c0-0.643-1-0.645-1,0c0,2.486,0,4.973,0,7.459
			C56.292,76.248,57.292,76.249,57.292,75.604L57.292,75.604z"/>
	</g>
</g>
<g>
	<g>
		<path fill="#2B2926" d="M85.917,76.479c4.472,0,8.945,0,13.417,0c0.643,0,0.645-1,0-1c-4.472,0-8.945,0-13.417,0
			C85.273,75.479,85.272,76.479,85.917,76.479L85.917,76.479z"/>
	</g>
</g>
<g>
	<g>
		<path fill="#2B2926" d="M88.437,80.333c1.547-1.76,3.483-2.111,5.705-2.386c1.646-0.204,3.284-0.555,4.942-0.509
			c0.236,0.006,0.405-0.163,0.482-0.367c0.157-0.412,0.172-0.482,0.226-0.883c0.085-0.636-0.916-0.63-1,0
			c-0.064,0.477-5.471,0.845-6.016,0.93c-2.01,0.313-3.682,0.957-5.046,2.508C87.307,80.108,88.011,80.818,88.437,80.333
			L88.437,80.333z"/>
	</g>
</g>
<g>
	<g>
		<path fill="#15304F" d="M21.917,94.625c1.629-0.201,2.842-0.922,4.265-1.686c2.742-1.473,4.595-0.823,6.747,1.144
			c2.156,1.97,4.017,3.409,7.059,2.524c0.617-0.179,0.354-1.145-0.266-0.964c-4.09,1.19-5.458-2.685-8.607-4.16
			c-3.522-1.65-5.895,1.736-9.197,2.143C21.286,93.703,21.278,94.704,21.917,94.625L21.917,94.625z"/>
	</g>
</g>
<g>
	<path fill="#15304F" d="M27.987,96.603c-3.16,0.93-5.03-0.68-7.261-2.71c-1.59-1.44-3.069-2.01-4.76-1.64
		c-0.66,0.149-1.34,0.43-2.08,0.85c-0.029,0.02-0.059,0.03-0.09,0.05l-0.53-0.31l-0.05-0.03l-0.41-0.24
		c0.66-0.34,1.32-0.7,1.981-0.99c1.39-0.619,2.82-0.93,4.39-0.069c2.98,1.63,4.601,5.28,8.54,4.13
		C28.337,95.463,28.607,96.433,27.987,96.603z"/>
</g>
<g>
	<g>
		<path fill="#15304F" d="M33.846,94.67c4.196,0.926,7.497-1.914,11.565-2.039c4.761-0.146,7.506,4.863,12.317,4.369
			c0.634-0.065,0.641-1.066,0-1c-4.482,0.46-7.226-4.171-11.66-4.366c-4.176-0.184-7.736,3.003-11.957,2.072
			C33.485,93.567,33.217,94.531,33.846,94.67L33.846,94.67z"/>
	</g>
</g>
<g>
	<g>
		<path fill="#15304F" d="M52.354,95c1.574-0.159,2.711-0.793,4.104-1.49c2.411-1.208,4.318-1.151,6.556,0.268
			c2.372,1.504,4.98,4.017,7.973,3.142c0.616-0.18,0.354-1.146-0.266-0.964c-3.464,1.014-6.33-3.282-9.418-4.166
			c-3.536-1.012-5.654,1.876-8.95,2.21C51.72,94.064,51.713,95.065,52.354,95L52.354,95z"/>
	</g>
</g>
<g>
	<g>
		<path fill="#15304F" d="M64.721,94.732c3.489,1.328,6.349-2.048,10-1.276c3.072,0.649,5.738,3.326,8.953,2.714
			c0.631-0.12,0.364-1.084-0.266-0.964c-1.956,0.372-3.802-1.016-5.581-1.705c-1.151-0.446-2.285-0.97-3.521-1.126
			c-1.394-0.176-2.889,0.044-4.203,0.513c-1.808,0.646-3.089,1.651-5.116,0.88C64.385,93.539,64.125,94.505,64.721,94.732
			L64.721,94.732z"/>
	</g>
</g>
<g>
	<path fill="#15304F" d="M94.667,95.082l-0.24,0.16l-0.859,0.49c-0.69-0.27-1.37-0.61-2.051-0.96c-1.119-0.55-2.25-1.1-3.46-1.32
		c-3.63-0.649-6.55,2.591-10,1.28c-0.6-0.229-0.34-1.189,0.261-0.96c2.06,0.78,3.29-0.26,5.119-0.88c1.37-0.47,2.761-0.65,4.2-0.521
		c1.61,0.141,3.221,1.091,4.83,1.86C93.207,94.582,93.936,94.902,94.667,95.082z"/>
</g>
<g>
	<g>
		<path fill="#2B2926" d="M38.833,69.854c2.345-2.219,6.145-2.389,9.191-2.42c3.383-0.035,6.783,0.321,10.113,0.901
			c5.406,0.942,11.335,2.878,16.027,5.722c0.552,0.334,1.055-0.53,0.505-0.863c-5.23-3.17-11.785-5.173-17.812-6.072
			c-5.473-0.817-14.247-2.218-18.731,2.025C37.657,69.59,38.365,70.296,38.833,69.854L38.833,69.854z"/>
	</g>
</g>
<g>
	<g>
		<path fill="#2B2926" d="M33.594,27.197c4.527,5.753,5.331,14.253,6.086,21.274c0.719,6.682,0.927,14.813-2.154,20.964
			c-0.247,0.493,0.367,1.024,0.785,0.606c0.083-0.083,0.167-0.167,0.25-0.25c0.456-0.456-0.251-1.163-0.707-0.707
			c-0.083,0.083-0.167,0.167-0.25,0.25c0.262,0.202,0.524,0.404,0.785,0.606c3.274-6.536,3.006-15.008,2.224-22.084
			c-0.794-7.185-1.693-15.496-6.313-21.366C33.904,25.985,33.201,26.697,33.594,27.197L33.594,27.197z"/>
	</g>
</g>
<g>
	<g>
		<path fill="#2B2926" d="M33.948,27.219c6.136,0.558,12.447-0.221,18.581-0.534c5.387-0.275,11.294-0.406,16.26,2.122
			c0.572,0.291,1.079-0.571,0.505-0.863c-4.732-2.408-10.372-2.56-15.536-2.319c-6.542,0.306-13.267,1.189-19.81,0.595
			C33.307,26.161,33.311,27.161,33.948,27.219L33.948,27.219z"/>
	</g>
</g>
<g>
	<g>
		<path fill="#2B2926" d="M68.855,28.874c4.299,5.289,7.346,12.081,9.548,18.484c1.489,4.331,2.173,8.892,1.56,13.454
			c-0.579,4.312-2.263,9.45-5.712,12.334c-0.494,0.413,0.216,1.117,0.707,0.707c6.854-5.73,7.272-17.282,4.925-25.162
			c-2.127-7.14-5.609-14.728-10.32-20.525C69.156,27.667,68.452,28.379,68.855,28.874L68.855,28.874z"/>
	</g>
</g>
<g>
	<g>
		<path fill="#2B2926" d="M54.292,25.563c0-1.333,0-2.667,0-4c0-0.643-1-0.645-1,0c0,1.333,0,2.667,0,4
			C53.292,26.206,54.292,26.207,54.292,25.563L54.292,25.563z"/>
	</g>
</g>
<g>
	<g>
		<path fill="#2B2926" d="M53.792,21.938c0.875,0,1.75,0,2.625,0c0.643,0,0.645-1,0-1c-0.875,0-1.75,0-2.625,0
			C53.148,20.938,53.147,21.938,53.792,21.938L53.792,21.938z"/>
	</g>
</g>
<g>
	<g>
		<path fill="#2B2926" d="M55.979,21.813c0,1.25,0,2.5,0,3.75c0,0.643,1,0.645,1,0c0-1.25,0-2.5,0-3.75
			C56.979,21.169,55.979,21.168,55.979,21.813L55.979,21.813z"/>
	</g>
</g>
<g>
	<g>
		<path fill="#2B2926" d="M18.104,80.25c23.208,0,46.417,0,69.625,0c0.643,0,0.645-1,0-1c-23.208,0-46.417,0-69.625,0
			C17.461,79.25,17.46,80.25,18.104,80.25L18.104,80.25z"/>
	</g>
</g>
<g>
	<g>
		<path fill="#2B2926" d="M20.042,87.25c21.667,0,43.333,0,65,0c0.643,0,0.645-1,0-1c-21.667,0-43.333,0-65,0
			C19.398,86.25,19.397,87.25,20.042,87.25L20.042,87.25z"/>
	</g>
</g>
<g>
	<g>
		<path fill="#2B2926" d="M20.135,76.469c0.643,0,0.645-1,0-1C19.492,75.469,19.491,76.469,20.135,76.469L20.135,76.469z"/>
	</g>
</g>
<g>
	<g>
		<path fill="#2B2926" d="M26.073,76.469c0.643,0,0.645-1,0-1C25.43,75.469,25.428,76.469,26.073,76.469L26.073,76.469z"/>
	</g>
</g>
<g>
	<g>
		<path fill="#2B2926" d="M32.104,76.469c0.042,0,0.083,0,0.125,0c0.643,0,0.645-1,0-1c-0.042,0-0.083,0-0.125,0
			C31.461,75.469,31.46,76.469,32.104,76.469L32.104,76.469z"/>
	</g>
</g>
<g>
	<g>
		<g>
			<path fill="#B2A19B" d="M71.452,38.86c-0.678-1.035-1.914-1.421-3.042-1.446c-1.784-0.047-3.443,1.839-3.799,3.649
				c-2.388-1.501-5.24-2.242-7.454-1.97c-1.938,0.242-3.666,0.908-5.148,1.935c-0.196-0.118-0.383-0.177-0.767-0.248
				c-1.016-0.219-1.987-0.86-2.867-1.426c-0.258-0.16-0.517-0.321-0.786-0.451c-1.419-1-3.581-1.155-4.114,0.73
				c-0.699,2.442,2.236,3.974,4.218,3.599c0.003,0.684,0.156,1.329,0.367,1.956c0.36,0.254,0.577,0.694,0.402,1.25
				c-0.761,2.411-0.795,4.87,0.415,7.236c1.081,2.118,2.582,3.24,4.495,4.373c0.622-0.233,1.1-0.894,0.592-1.599
				c-0.083-0.113-0.192-0.188-0.283-0.277c0.297-0.129,0.53-0.363,0.644-0.695c0.321-0.191,0.582-0.483,0.695-0.899
				c0.046-0.135,0.032-0.273,0.058-0.409c0.492-0.159,0.918-0.521,1.045-1.079c0.002-0.012,0.002-0.021,0.011-0.032
				c0.222-0.086,0.402-0.247,0.563-0.457c0.245,0.007,0.477-0.032,0.684-0.133c0.385,0.133,0.771,0.151,1.129-0.011
				c0.447,0.208,0.94,0.214,1.373-0.034c0.423,0.205,0.902,0.232,1.371,0.085c0.325,0.27,0.737,0.434,1.152,0.487
				c0.33,0.039,0.601-0.001,0.843-0.086c0.179,0.064,0.357,0.138,0.551,0.14c0.12,0.16,0.264,0.292,0.422,0.407
				c0.131,0.334,0.374,0.625,0.675,0.833c0.043,0.379,0.174,0.692,0.389,0.907c0.005,0.01,0.012,0.016,0.018,0.034
				c0.068,0.9,0.655,1.4,1.315,1.532c0.107,0.071,0.224,0.126,0.343,0.172c-0.073-0.128-0.099-0.269-0.108-0.479
				c-0.002-0.039,0.013-0.075,0.022-0.111c-0.431-0.06-0.767-0.578-0.345-0.904c2.269-1.754,3.451-4.785,3.063-7.603
				c-0.284-0.957-0.673-1.913-1.183-2.879c-0.457-0.863-1.107-1.599-1.83-2.288c0.6-0.892,1.496-1.451,2.618-1.249
				c0.551,0.09,1.243,0.294,1.702,0.019c0.093,0.011,0.174,0.021,0.271-0.031C72.076,40.954,71.99,39.693,71.452,38.86z"/>
			<path fill="none" stroke="#ADA89E" stroke-width="0" stroke-linecap="round" stroke-linejoin="round" d="M48.234,36.626
				c0.032,0.014,0.045-0.043,0.016-0.052"/>
			<path fill="#B5B5B5" d="M66.447,37.008c-0.041-0.219-0.092-0.319-0.213-0.463c-0.009-0.096-0.057-0.196-0.163-0.263
				c-3.019-2.052-7.163-1.903-10.562-1.885c-2.346,0.016-5.767-0.079-7.822,1.339c-0.195-0.012-0.389,0.15-0.34,0.377
				c0.256,1.202,0.775,2.458,1.576,3.385c0.027,0.028,0.07,0.012,0.074-0.025c0.007-0.094-0.017-0.169-0.022-0.259
				c1.468,0.734,4.05,0.25,5.607,0.413c1.804,0.185,3.645,0.15,5.443,0.155c1.284,0.006,3.02-0.886,4.264-0.219
				c0.273,0.148,0.542-0.001,0.709-0.219c0.112-0.032,0.217-0.087,0.302-0.177c0.072,0.078,0.198,0.095,0.283,0
				c0.394-0.453,0.862-1.186,0.784-1.856C66.43,37.226,66.47,37.125,66.447,37.008z"/>
			<path fill="#1E1E1E" d="M65.262,38.826c-4.936-1.261-11.39-1.591-16.106,0.545c-0.155,0.073-0.117,0.321,0.046,0.357
				c0.001,0.068,0.017,0.145,0.07,0.209c0.101,0.126,0.162,0.267,0.249,0.396c0.502,2.039,6.81,2.688,7.732,2.646
				c0.828-0.041,7.232-0.569,7.613-2.49c0.207-0.189,0.221-0.496,0.112-0.752c0.128-0.126,0.253-0.249,0.379-0.375
				C65.501,39.224,65.501,38.888,65.262,38.826z"/>
			<path fill="#FFFFFF" d="M69.22,34.641c-1.498-2.522-3.971-3.159-6.611-3.777c-3.279-0.771-11.84-1.531-15.231,1.705
				c-0.765,0.361-1.491,1.342-1.815,1.927c-0.086,0.151-0.155,0.355-0.214,0.562c-0.281,0.583-0.336,1.176-0.028,1.755v0.006
				c0.01,0.006,0.019,0.018,0.019,0.029c0.071,0.166,0.153,0.329,0.259,0.455c0.533,0.686,1.515,1.404,2.278,1.772
				c0.015,0.01,0.023-0.003,0.045,0.002c0.261,0.313,0.595,0.53,0.997,0.569c0.095,0.009,0.186-0.081,0.157-0.182
				c-0.062-0.253-0.124-0.333-0.315-0.52c-0.008,0-0.009-0.003-0.009-0.006c-0.762-4.498,9.902-3.848,14.991-2.65
				c0.021,0.006,0.042,0.022,0.062,0.029c0.91-0.017,1.731,0.468,2.159,1.266c0.074,0.079,0.102,0.171,0.108,0.268
				c0.098,0.237,0.171,0.497,0.193,0.778c0.005,0.053-0.014,0.093-0.021,0.139c0.529-0.417,1.092-0.54,1.653-0.877
				c0.03-0.021,0.044-0.045,0.064-0.064C69.086,37.215,70.104,36.128,69.22,34.641z"/>
			<path fill="#7C776D" d="M70.991,40.256c-0.644-2.196-4.349-0.622-4.737,1.062c-0.042,0.172,0.086,0.338,0.251,0.305
				c0.73-0.124,1.101-0.8,1.897-0.695c0.379,0.047,0.729,0.064,1.111,0.073c0.352,0.002,0.626,0.157,0.983,0.1
				C70.828,41.044,71.095,40.619,70.991,40.256z"/>
			<path fill="#7C776D" d="M48.221,41.198c-0.628-0.399-1.317-0.531-1.977-0.834c-0.626-0.287-1.293-0.351-1.809,0.133
				c-0.272,0.256-0.286,0.731-0.043,1.03c0.621,0.755,1.834,0.732,2.685,0.927c0.623,0.144,1.017,0.37,1.231,1.063
				c0.121,0.386,0.276,0.634,0.571,0.887c0.112,0.092,0.27,0.015,0.313-0.112C49.521,43.299,49.113,41.769,48.221,41.198z"/>
		</g>
	</g>
	<path fill="#D3BD9B" d="M67.042,61.641c-0.32,0.044-1.586,0.104-1.906,0.063c-0.93-0.011,0.156-0.579-0.649-1.146
		c-1.73-1.221-4.294-5.167-6.676-2.474c-2.08,2.356,1.961,4.02-5.175,3.65c-2.296-0.119-3.392-2.543-3.141-4.719
		c0.183-1.582,1.426-3.712,2.797-4.734c2.137-1.595,4.521-2.42,6.487-2.849c2.631-0.572,6.484,0.129,8.544,1.942
		c2.137,1.885,2.66,2.952,3.125,5.906c0.008,0.049,0.313,0.875-0.188,2.25c-0.2,0.552-0.703,1.141-1.261,1.511
		C69,61.042,68.182,61.484,67.042,61.641z"/>
	<path fill="#4C3B36" d="M62.688,49.686c-0.084-0.221-0.363-0.286-0.517-0.14c-0.391-0.534-1.509-0.459-2.072-0.43
		c-0.739,0.04-1.509,0.205-2.085,0.677c-0.028-0.006-0.054-0.023-0.084-0.011c-0.579,0.213-0.326,0.952,0.047,1.243
		c0.281,0.219,0.693,0.263,0.999,0.114c0.117,0.555,0.704,1.034,1.25,1.095c0.768,0.085,1.229-0.363,1.365-1.01
		C62.173,51.281,62.955,50.384,62.688,49.686z"/>
	<path fill="#4C3B36" d="M58.371,44.95c-0.269-0.116-0.338-0.153-0.761,0.102c-0.39,0.234-0.84,0.065-1.245-0.046
		c-0.682-0.186-1.338-0.481-1.984-0.756c-1.203-0.512-3.525-0.885-4.167,0.603c-0.044,0.1,0.009,0.189,0.116,0.202
		c1.082,0.132,2.055-0.21,3.131,0.13c-0.339,0.531-0.175,1.314-0.073,1.893c0.145,0.805,0.793,1.653,1.68,1.661
		c1.338,0.013,1.304-1.365,1.02-2.422c0.944,0.286,2.232,0.406,2.554-0.705C58.708,45.384,58.607,45.052,58.371,44.95z"/>
	<path fill="#4C3B36" d="M65.486,43.479c0.301-0.154,0.231-0.646-0.095-0.722c-1.097-0.253-1.728,0.655-2.309,1.438
		c-0.517,0.697-1.845,1.582-2.54,0.732c-0.121-0.146-0.361-0.088-0.45,0.058c-0.736,1.229,1.363,1.393,2.053,1.271
		c0.13-0.023,0.238-0.068,0.353-0.108c0.18,0.915,1.024,1.903,1.91,1.452c0.644-0.327,0.84-1.07,0.795-1.741
		c-0.034-0.51-0.229-1.222-0.621-1.644C64.838,43.927,65.123,43.665,65.486,43.479z"/>
</g>
<path fill="#B5B5B5" d="M58.916,32.067c-0.366-0.289-0.872-0.392-1.126,0.118c-0.021,0.042-0.023,0.091-0.039,0.135
	c-0.221,0.232-0.346,0.559-0.304,0.908c0.09,0.75,0.759,1.443,1.532,1.101c0.164-0.072,0.271-0.209,0.343-0.374
	c0.072-0.092,0.133-0.191,0.163-0.299C59.635,33.116,59.464,32.322,58.916,32.067z"/>
<path fill="#A38967" d="M65.008,57.798c-0.361-1.257-1.306-2.264-2.587-2.651c-0.856-0.259-2.486-0.47-3.509-0.062
	c-0.51,0.076-1.778,0.438-2.027,0.571c-1.324,0.709-1.518,2.33-1.396,3.808c0.118,1.426,1.463,2.416,2.85,2.499
	c0.362,0.022,1.292-0.048,1.973-0.213c0.762-0.185,1.554,0.299,2.36,0.259c0.582-0.029,1.253-0.203,1.703-0.577
	C65.32,60.649,65.315,58.867,65.008,57.798z"/>
<path fill="#4C3B36" d="M55.955,55.671c-0.433-0.098-0.849-0.035-1.308,0.055c-0.386,0.076-0.616,0.192-1.271,0.537
	c-0.358,0.188-1.217,0.967-1.804,1.055c-0.041-0.1-0.165-0.376-0.235-0.559c-0.136-0.351-0.261-0.635-0.332-1.031
	c-0.052-0.293-0.098-0.604-0.294-0.817c-0.025-0.053-0.06-0.1-0.107-0.13c-0.297-0.184-0.582-0.122-0.896-0.003
	c-0.324,0.122-0.664,0.232-0.984,0.363c-0.208,0.086-0.631,0.253-0.873,0.484c-0.125-0.005-0.256,0.073-0.269,0.229
	c-0.131,1.608,0.693,3.719,2.494,3.947c0.853,0.108,1.826-0.219,2.565-0.625c1.131-0.623,0.993-2.105,2.976-2.516
	c0.006-0.001,0.01-0.006,0.016-0.009c0.002-0.001,0.005-0.003,0.007-0.004c0.005-0.003,0.012-0.003,0.017-0.005
	c0.025-0.014,0.053-0.023,0.083-0.033c0.005-0.003,0.009-0.006,0.013-0.01c0.075-0.029,0.156-0.046,0.236-0.065
	c0.183-0.224,0.406-0.4,0.667-0.538c0.034-0.018,0.066-0.026,0.099-0.037c2.22-1.222,5.355-1.454,7.139,0.515
	c0.207,0.228,0.628,0.148,0.659-0.189C64.903,52.498,58.022,53.392,55.955,55.671z"/>
<path fill="#4C3B36" d="M61.147,56.147c-0.409,0.053-0.782,0.174-1.168,0.316c-0.129,0.048-0.3,0.088-0.412,0.165
	c-0.17,0.117-0.253,0.321-0.424,0.441c-0.097,0.069-0.013,0.221,0.095,0.162c0.378-0.207,1.039-0.152,1.449-0.181
	c0.189-0.014,0.384-0.071,0.574-0.068c0.25,0.004,0.378,0.092,0.594,0.194c0.186,0.088,0.402,0.019,0.465-0.189
	C62.53,56.287,61.661,56.08,61.147,56.147z"/>
<g id="Layer_2_11_">
	<g id="Layer_16_11_">
		<path opacity="0.13" enable-background="new    " d="M98.887,35.825l-0.31-0.171l-0.57-0.329l-0.09-0.051l-1.77-1.029h-0.011
			l-1.369-0.79l-2.971-1.71l-3.489-2.011l-1.141-0.659l-1.04-0.601l-0.24-0.14l-1.93-1.11l-1.34-0.769l-1.771-1.021l-0.14-0.08
			l-0.229-0.13l-0.87-0.5l-0.24-0.14l-7.83-4.51l-0.87-0.511l-1.01-0.58l-2.76-1.59l-3.57-2.06l-0.79-0.45l-0.92-0.53l-0.96-0.55
			l-4.79-2.77l-2.48,1.43l-4.02,2.32l-1.37,0.79l-0.5,0.29l-5.47,3.149l-3.521,2.03l-4.14,2.39l-1.83,1.05l-1.7,0.981l-0.18,0.1
			l-1.15,0.67l-4.26,2.45l-0.36,0.21l-0.279,0.16l-1.431,0.82l-3.569,2.069h-0.011l-7.439,4.29l-2.061,1.19l-0.3,0.17v53.12
			l2.95,1.7l0.41,0.239l0.05,0.03l0.53,0.311l0.37,0.21l2.529,1.47l2.341,1.35c0,0,0.01,0,0.02,0l0.51,0.29l0.07,0.051l0.05,0.02
			h0.03l0.99,0.59l1.58,0.91l1.1,0.64l1.22,0.7l0.49,0.28l0.559,0.32l0.601,0.34l3.37,1.95l2.09,1.199l0.439,0.261l0.191,0.109h0.01
			l0.391,0.22l2.979,1.721l1.3,0.75l0.03,0.02l0.69,0.4l6.46,3.729l0.489,0.28l1.391,0.8h0.01l0.84,0.49l0.24,0.14l0.1,0.061
			l0.45,0.26l0.15,0.08l0.319,0.19l0.091,0.05l1.14,0.649c0,0,0,0,0,0.011l0.75,0.43l0.14,0.08l0.54,0.309l0.15,0.08l0.27,0.15
			l0.25,0.149l0.221,0.131l0.239,0.14l0.03,0.019l0.03,0.011l0.03,0.02l3.01,1.74l0.18,0.1l0.43,0.25l0.23,0.13l0.55-0.319
			l0.141-0.08l3.59-2.07l0.59-0.34l0.189-0.11l2.4-1.38l0.19-0.109l0.39-0.23l0.02-0.01l1.57-0.9l0.07-0.04l1.47-0.85l0.16-0.09
			l0.33-0.19l0.6-0.35l0.13-0.07l0.271-0.16l0.05-0.03l0.22-0.13l0.13-0.069l0.75-0.431l0.36-0.21l0.09-0.05l0.91-0.52l0.43-0.25
			l0.4-0.23l1.36-0.78l0.17-0.1l0.699-0.4l0.521-0.3l0.02-0.01l0.12-0.07l0.471-0.27l3.22-1.86l0.21-0.12l0.59-0.34l0.13-0.07
			l0.01-0.01l0.631-0.359l0.239-0.141l0.21-0.13l0.58-0.33l0.28-0.16l1.03-0.6l0.39-0.22l0.24-0.141l0.09-0.05l0.1-0.06l0.7-0.4
			l1.391-0.8l1.399-0.811l0.46-0.26l0.061-0.04l0.43-0.25l0.08-0.04v-0.01l0.25-0.14l0.01-0.011l0.24-0.14l0.3-0.17l2.43-1.4
			l0.16-0.09l0.141-0.08l0.069-0.04l0.09-0.05l1.58-0.92l0.301-0.17l0.239-0.14l0.86-0.49l0.24-0.16l0.069-0.04l0.131-0.08h0.039
			l0.521-0.3l0.03-0.021l0.46-0.26l0.88-0.51l0.02-0.01l5.141-2.96l0.05-0.03v-53.12L98.887,35.825z M95.657,92.194l-2.42,1.4
			l-0.11,0.06l-0.09,0.051l-0.02,0.01l-0.45,0.26l-0.16,0.101l-0.271,0.149l-0.569,0.33l-0.11,0.061l-0.31,0.18l-0.5,0.29
			l-2.28,1.319l-0.67,0.391l-0.03,0.01l-0.09,0.05l-0.07,0.04l-0.14,0.08l-3.47,2l-0.44,0.25l-0.18,0.101l-0.34,0.199l-0.38,0.221
			l-0.94,0.54l-0.2,0.119l-0.05,0.03l-0.04,0.021l-0.57,0.33l-0.21,0.119l-0.51,0.301h-0.01l-0.24,0.14l-0.17,0.1l-0.271,0.15
			l-0.09,0.05l-3.75,2.16l-0.59,0.34l-0.21,0.12l-2.3,1.33l-0.18,0.1l-0.42,0.24l-0.33,0.19l-0.46,0.27l-0.141,0.08l-0.08,0.05
			l-0.37,0.21l-0.14,0.08l-0.74,0.431l-0.14,0.08l-0.24,0.14l-0.1,0.059l-0.181,0.101l-0.239,0.14l-0.03,0.021l-0.12,0.069
			l-0.939,0.53l-0.511,0.3l-0.38,0.22l-0.26,0.15l-0.09,0.05l-2.98,1.721l-0.22,0.13l-0.309,0.18l-0.15,0.08l-0.811,0.47
			l-0.069,0.04l-0.62,0.36l-1.021,0.59l-0.609,0.35l-2.311,1.33l-1.35,0.78l-0.62-0.36l-0.729-0.42l-2.131-1.22l-0.029-0.02
			l-0.12-0.07l-0.05-0.03l-0.141-0.08l-0.37-0.21l-0.33-0.189l-0.17-0.101l-0.1-0.06l-0.6-0.34l-0.4-0.23l-0.14-0.08l-0.07-0.04
			l-0.89-0.51l-0.53-0.31l-0.74-0.421l-0.09-0.06l-0.14-0.08l-0.67-0.38l-0.101-0.06l-0.02-0.011l-2.931-1.689l-3.06-1.771
			l-3.16-1.819l-0.74-0.431l-0.02-0.01l-2.7-1.56l-0.54-0.311l-0.79-0.46l-0.27-0.15l-0.03-0.01l-0.32-0.189l-0.14-0.08l-3.71-2.15
			l-0.23-0.13l-0.6-0.34l-2.41-1.39l-0.68-0.391l-0.681-0.39l-1.069-0.62l-0.311-0.18l-0.29-0.17l-0.12-0.061c0,0,0,0-0.01,0
			l-4.75-2.75l-0.59-0.34l-0.63-0.37l-0.68-0.39l-0.08-0.051l-0.03-0.01l-0.39-0.22l-3.07-1.78v-50.97l0.519-0.3l2.66-1.53l0.7-0.41
			l6.47-3.729l0.351-0.2l2.109-1.21l0.551-0.32l0.21-0.12l4.77-2.76l0.29-0.17l0.37-0.21l1.88-1.08l0.03-0.019l9.59-5.53l2.27-1.311
			l3.07-1.77l1.87-1.08l3.479-2.01l0.801-0.46l1.1-0.63l1.12-0.641l4.62,2.66l0.17,0.1l1.88,1.091l0.26,0.149l2.92,1.681
			l2.521,1.449l0.51,0.301l0.91,0.519l1.88,1.08l2.11,1.22l3.199,1.84l0.761,0.441l2.76,1.6l0.72,0.41l1.17,0.68l0.45,0.271h0.01
			l0.96,0.55l5.11,2.95l0.04,0.02l0.12,0.07l2.06,1.19l1.271,0.729l0.52,0.3l1.32,0.761l0.14,0.08l0.37,0.21l1.65,0.949l0.26,0.15
			l3.54,2.04v50.97l-1.2,0.69L95.657,92.194z"/>
	</g>
</g>
</svg>
