<svg enable-background="new 0 0 110.896 128.021" viewBox="0 0 110.896 128.021" xmlns="http://www.w3.org/2000/svg" xmlns:xlink="http://www.w3.org/1999/xlink"><clipPath id="a"><path d="m54.354 11.847-5.951 3.441-.01.01-.111.061-.271.16-.189.108-.859.5-.528.299s-.011 0-.011.013l-1.859 1.067-2.4 1.381-.06.039-.05.031h-.012l-1.398.799-.689.411-.98.562-1.301.737-.52.303-1.102.648-.438.26-.38.221-.779.448-.031.021-.108.059-1.521.871-.172.092-1.578.92-3.359 1.93-.711.4-.76.438-.101.059-1.989 1.16-9.721 5.611-3.682 2.118-.93.54v53.142l.03.021.08.039 3.5 2.021 2.54 1.47h.01l.471.271.229.132.011.01.038.021.281.16c.01.01.021.01.021.01l.289.17 2.11 1.229 1.021.593 1.811 1.051.05.029c.009 0 .009 0 .021.01l1.029.59.01.012h.012l.21.12.01.009.07.041.31.182.119.068.09.052.821.471 2.09 1.198 1.759 1.021.75.439.291.171.461.26.029.021.131.079.799.461.551.318.021.011 1.77 1.012.068.04.012.01.141.09.19.109.289.17.201.109.391.222.229.129.04.03.649.381 1.699.979 1.03.601.38.222.17.101.891.511.69.392.812.47.118.069.291.17.601.352.931.54.01.012 2.5 1.438.101.063.71.408.96.551.12.068.279.159.041.029.158.092.352.198 3.02 1.751 1.5.87.24.14.029.011.08.041.77.448 1.42.82.48-.279.32-.188h.01l.561-.319.959-.55 1.01-.592.209-.119.25-.143 1.041-.6 2.24-1.291.129-.08.301-.169.013-.011 2.021-1.159.039-.029.313-.182.85-.488.82-.471.528-.313 1.738-1.018 1.229-.709.061-.03.63-.359.149-.08 1.062-.618.418-.239.11-.071 1.42-.811v-.011l.451-.25 1.01-.59.709-.42h.011l.16-.092.08-.05.021-.01.301-.172.051-.027.131-.08.158-.09.109-.063.898-.521.039-.021.021-.021.18-.09.781-.449v-.011l.158-.092.027-.01.411-.24.08-.05.119-.071 1.26-.719.632-.38.239-.142.312-.182 1.229-.71h.012l.021-.021.446-.26.513-.289v-.014l.721-.407.039-.03.392-.22.662-.382.299-.17.342-.188.01-.011.17-.102.238-.141.65-.37 2.141-1.23.103-.063.129-.053.239-.131 2.722-1.566 1.93-1.109.201-.12 4.147-2.392.74-.42.683-.392.01-.01v-53.14l-2.82-1.629-1.939-1.12-.438-.25-.781-.439-1.938-1.12-1.461-.841-.66-.39-.26-.143v-.01l-.039-.028-2.131-1.229-1.183-.68-.47-.271-.149-.08-.09-.061h-.011l-.223-.13-1.34-.771-.09-.061-.801-.46-1.369-.79-.58-.33h-.018l-.922-.551-.869-.5-.481-.271-.221-.129-1.6-.91-1.039-.609-.9-.521-6.119-3.53-3.852-2.22-1.062-.611-1.938-1.118-.512-.29-.15-.091-.038-.021-.82-.481h-.01l-5.619-3.249-1.061-.619z"/></clipPath><linearGradient id="b" gradientTransform="matrix(0 -106.2401 106.2401 0 -921.1334 -155740.5313)" gradientUnits="userSpaceOnUse" x1="-1467.0336" x2="-1466.0336" y1="9.1955" y2="9.1955"><stop offset="0" stop-color="#eaffef"/><stop offset=".2108" stop-color="#e6fcf0"/><stop offset=".4007" stop-color="#dbf4f1"/><stop offset=".5827" stop-color="#c9e5f4"/><stop offset=".7597" stop-color="#afd1f8"/><stop offset=".9317" stop-color="#8eb7fd"/><stop offset="1" stop-color="#7fabff"/></linearGradient><clipPath id="c"><path d="m9.676 11.044h92.148v106.238h-92.148z"/></clipPath><clipPath id="d"><path d="m57.918 85.767h11.234v5.793h-11.234z"/></clipPath><clipPath id="e"><path d="m59.871 97.788h3.797v5.815h-3.797z"/></clipPath><clipPath id="f"><path d="m34.594 76.446h3.468v2.228h-3.468z"/></clipPath><clipPath id="g"><path d="m56.236 85.992h1.014v1.22h-1.014z"/></clipPath><clipPath id="h"><path d="m37.438 79.788h10.74v6.986h-10.74z"/></clipPath><clipPath id="i"><path d="m35.357 78.935h.827v.313h-.827z"/></clipPath><clipPath id="j"><path d="m45.916 75.663h2.695v1.261h-2.695z"/></clipPath><clipPath id="k"><path d="m60.664 74.111h1.586v1.063h-1.586z"/></clipPath><clipPath id="l"><path d="m57.881 85.639h1.137v1.544h-1.137z"/></clipPath><clipPath id="m"><path d="m58.783 85.306h1.33v.778h-1.33z"/></clipPath><clipPath id="n"><path d="m37.133 65.786h13.138v6.933h-13.138z"/></clipPath><clipPath id="o"><path d="m59.117 65.95h.982v1.953h-.982z"/></clipPath><clipPath id="p"><path d="m55.332 65.223h.508v1.734h-.508z"/></clipPath><clipPath id="q"><path d="m61.756 67.456h1.137v1.764h-1.137z"/></clipPath><clipPath id="r"><path d="m57.689 69.624h2.594v8.793h-2.594z"/></clipPath><clipPath id="s"><path d="m56.656 81.242h.66v.401h-.66z"/></clipPath><clipPath id="t"><path d="m50.41 81.435h3.402v.601h-3.402z"/></clipPath><clipPath id="u"><path d="m48.346 81.449h7.305v3.763h-7.305z"/></clipPath><clipPath id="v"><path d="m50.625 83.384h3.621v2.055h-3.621z"/></clipPath><clipPath id="w"><path d="m51.448 79.428h1.794v1.519h-1.794z"/></clipPath><clipPath id="x"><path d="m59.82 78.718h.816v1.086h-.816z"/></clipPath><clipPath id="y"><path d="m59.926 79.663h.346v.15h-.346z"/></clipPath><clipPath id="z"><path d="m50.258 56.521h1.877v11.851h-1.877z"/></clipPath><clipPath id="A"><path d="m37.291 80.924h7.969v19.927h-7.969z"/></clipPath><path d="m110.904 96.041-55.426 32-55.425-32v-64l55.425-32 55.426 32z" fill="#1dffbe"/><path clip-path="url(#a)" d="m9.793 11.021h92v106.238h-92z" fill="url(#b)"/><path d="m78.793 99.069-22.416 14.704-46.584-34.024v-9.979l11-18.701 11.5 15.829 19.33-29.499 17.17 28.67z" fill="#5dd4f4"/><path d="m86.373 99.561-.391.219-.039.031-.721.407v.013l-.51.289-.451.26-.021.02h-.01l-1.229.71-.312.182-.237.142-.634.38-1.26.722-.119.068-.08.05-.41.24-.028.01-.16.092v.011l-.779.449-.18.09-.021.021-.041.021-.898.521-.108.063-.16.09-.129.08-.051.029-.302.17-.021.01-.08.049-.157.09h-.014l-.709.42-1.012.591-.449.246v.012l-1.42.812-.107.069-.422.239-1.061.618-.15.08-.629.358-.063.031-1.229.709-1.737 1.01-.529.312-.82.473-.85.489-.313.181-.039.029-2.02 1.158-.01.012-.3.17-.132.08-2.238 1.29-1.039.601-.25.141-.211.12-1.012.59-.959.552-.563.318h-.01l-.32.19-.479.279-1.42-.82-.769-.45-.08-.041-.029-.011-.24-.14-1.5-.87-3.02-1.75-.352-.199-.16-.091-.039-.03-.28-.159-.119-.068-.96-.551-.711-.41-.1-.062-2.5-1.438-.011-.01-.93-.54-.599-.355-.289-.17-.121-.07-.81-.469-.69-.393-.889-.51-.171-.101-.38-.223-1.029-.6-1.701-.98-.648-.38-.04-.028-.229-.132-.391-.219-.199-.108-.291-.172-.189-.108-.141-.09-.01-.012-.07-.04-1.77-1.01-.021-.011-.549-.319-.801-.46-.13-.08-.03-.021-.459-.26-.291-.172-.75-.438-1.76-1.022-2.09-1.197-.82-.473-.09-.05-.12-.069-.31-.181-.07-.04-.011-.01-.21-.12h-.01l-.01-.012-1.031-.59c-.01-.012-.01-.012-.02-.012l-.05-.027-1.812-1.053-1.02-.59-2.109-1.229-.291-.17s-.01 0-.02-.012l-.28-.158-.04-.021-.01-.01-.23-.132-.47-.271h-.01l-2.54-1.47-3.5-2.022-.08-.038-.029-.021v-28.26c10.875 7.25 24.563 16.063 57.313 35.75 7.912 4.754 16.424-.939 19.273 1.372" fill="#30b794"/><path d="m44.914 34.909h-30.511l9.72-5.61 1.99-1.16.1-.06.76-.44.712-.399c.09-.01.188-.01.278-.01 2.521 0 4.711 1.318 5.84 3.271h.111c.629 0 1.25.05 1.819.149 1.92.318 3.479 1.12 4.26 2.16.16.021.351.01.511.028 2.139.311 3.809 1.071 4.41 2.071" fill="#fff"/><path d="m76.973 23.25h-5.561s-.592-.09-1.762 0h-21.49c-.869 0-1.179-1.2-.389-1.58.859-.41 1.939-.648 3.12-.648.149 0 .309 0 .47.01.18.011.339.04.52.061.761-.939 1.92-1.62 3.25-1.8v-.011c.771-1.649 2.562-2.8 4.642-2.8.969 0 1.869.238 2.629.681.302-.641.67-1.21 1.09-1.681l.513.29 1.938 1.12 1.062.608 3.852 2.22z" fill="#fff"/><path d="m70.392 39.297c-.087-.012-.183-.009-.271-.02-.537-.713-1.764-1.216-3.205-1.216h-.061c-.598-1.026-1.75-1.726-3.078-1.726-1.174 0-2.219.545-2.854 1.386-.531-.188-1.156-.296-1.83-.296-1.447 0-2.689.503-3.229 1.224v.004c-.93.081-1.732.375-2.266.79-.121-.009-.234-.024-.359-.027-.109-.007-.219-.007-.328-.007-1.607 0-2.959.413-3.373.978h3.398 3.07.276 3.609.465 1.817 1.275 2.514 1.224 3.178 2.347c-.314-.525-1.192-.928-2.319-1.09" fill="#ebf3ff"/><path d="m101.822 37.6v53.118l-.048.032-5.141 2.959-.02.009-.88.511-.459.26-.032.02-.519.301h-.038l-.134.079-.068.04-.241.16-.859.491-.01.009-.229.129-.302.171-1.58.921-.09.049-.068.04-.141.08-.162.09-2.428 1.399-.301.171-.24.14-.01.01-.25.14v.01l-.08.04-.429.25-.061.041-.459.259-1.399.81-1.392.8-.34.191-.361.209-.098.061-.09.049-.24.14-.39.22-1.03.6-.281.161-.58.33-.209.129-.239.14-.632.36-.01.01-.129.071-.59.339-.211.121-2.529 1.459-.689.399-.471.271-.121.069-.02.011-.519.3-.699.4-.17.1-1.362.781-.4.229-.18.11-.25.14-.91.521-.09.049-.361.21-.75.431-.129.069-.219.13-.051.03-.269.16-.131.07-.6.351-.33.19-.16.089-1.469.85-.07.04-.64.371.14-2.231.678-11.46-.858-50.01 1.1-12.46-.801-2.28 2.862-13.49.398-1.92 1.281.74.299.18.711.4.17.1.699.41 7.061 4.07.769.44.241.14.871.5.228.13.141.081 1.769 1.019.801.46.539.31 1.26.73.67.38.24.14 1.041.6 1.142.66 3.487 2.01 2.531 1.46.441.25 1.368.79h.012l1.769 1.03.09.05.129.08.441.25.151.08.158.09 2.9 1.68z" fill="#8c8c8c"/><path d="m101.822 37.6v53.118l-.048.032-5.141 2.959-.02.009-.88.511-.459.26-.032.02-.519.301h-.038l-.134.079-.068.04-.241.16-.859.491-.239.138-.302.171-1.58.921-.09.049-.068.04-.141.08-.162.09-2.428 1.399-.301.171-.24.14-.01.01-.25.14v.01l-.08.04-.429.25-.061.041-.459.259-1.399.81-1.392.8-.34.191.051-2.171.949-41.97h2.006l-1.205-26.999-.121-2.231.67.38.24.14 1.041.6 1.142.66 3.487 2.01 2.972 1.71 1.368.79h.012l1.769 1.03.09.05.129.08.441.25.151.08.158.09 2.9 1.68z" fill="#adadad"/><path d="m62.402 48.533 2.188-15.375 1.543-13.979.16-1.96.01-.09.471.27 1.478.85 1.281.74.299.181.711.399.17.101-.028.6-.072 1.489-1.23 24.57 6-5.97-4.08 65.801-.07 1.069-.071 1.171-.25.139-.91.521-.09.049-.359.211-.75.43-.131.07-.219.129-.049.03-.271.16-.131.07-.598.351-.332.19-.16.089-1.469.85-.07.04-.64.371-.93.529-.02.01-.389.23-.191.11-2.4 1.38-.19.11-4.867 2.8-6.504-3.725" fill="#adadad"/><path d="m47.906 15.578-.583 81.38h-.582l.582-81.047.062-.034z" fill="#63392e"/><path d="m92.809 32.576v30.282h-.827v-30.766z" fill="#63392e"/><path d="m38.543 25.6c0 2.13-1.119 4-2.81 5.05-.919.58-2 .91-3.16.91-2.58 0-4.77-1.632-5.601-3.922l.711-.398 3.359-1.93 1.58-.922.17-.09 1.521-.87.108-.059.029-.021.78-.448.38-.222.439-.26 1.101-.648c.873 1.04 1.393 2.369 1.393 3.83" fill="#fffbdd"/><path d="m101.822 37.6v53.118l-.048.032-5.141 2.959-.02.009-.88.511-.459.26-.032.02-.519.301h-.038l-.134.079-.068.04-.241.16-.859.491-.01.009.36-2.35 2.623-23.862-2.5.687.316-34.714.031-2.141.441.25 1.368.79h.012l1.769 1.03.09.05.129.08.441.25.151.08.158.09 2.9 1.68z" fill="#777"/><path d="m75.004 71.193c-.033 2.067-1.381 8.608 2.688 8.227 1.219-.115 2.174-1.319 2.479-2.41.588-2.102.127-4.819.121-6.98-.006-.585-.916-.588-.91 0 .002 1.344.008 2.688.016 4.029.005 1.239.262 2.868-.764 3.778-2.31 2.06-3.027-1.34-2.953-2.807.07-1.285.215-2.555.236-3.838.007-.585-.905-.585-.913.001" fill="#63392e"/><path d="m47.238 99.252c-.376 1.942-.904 5.354 1.034 6.685 1.819 1.25 2.944-1.438 3.207-2.799.078-.403-.54-.576-.619-.172-.117.607-.226 1.215-.562 1.747-.891 1.4-2.205.487-2.521-.7-.395-1.479-.207-3.113.079-4.59.078-.403-.54-.576-.618-.171" fill="#63392e"/><path d="m48.379 100.109c-.071 1.836-.658 5.062 1.222 6.269 2.034 1.307 2.836-1.467 2.856-2.998.004-.413-.636-.413-.642 0-.015.98-.042 1.951-.953 2.444-1.041.56-1.551-.745-1.774-1.599-.355-1.35-.123-2.746-.067-4.116.018-.413-.625-.411-.642 0" fill="#63392e"/><path d="m72.688 70.564c-1.209 1.7-3.138 7.33.493 7.692 1.561.156 2.617-1.129 3.232-2.392.875-1.795 1.596-3.697 1.633-5.711.013-.584-.897-.584-.91 0-.021 1.182-.289 2.252-.699 3.354-.389 1.052-.895 2.58-1.792 3.313-1.039.846-2.196.607-2.563-.879-.131-.531-.063-1.088.012-1.623.181-1.222.67-2.295 1.384-3.297.337-.476-.452-.931-.79-.457" fill="#63392e"/><path d="m68.006 60.925c.058-2.082.351-3.853.992-5.587.764-2.063 1.953-3.816 3.623-5.209 1.799-1.502 3.909-2.316 6.283-2.382 1.303-.035 2.546.193 3.787.595 1.428.461 2.67 1.222 3.805 2.147 1.27 1.037 2.301 2.302 3.151 3.722 1.162 1.941 1.86 4.04 2.147 6.257.256 2 .117 3.993-.41 5.972-.432 1.602-1.117 3.062-2.051 4.405-.701 1.019-1.574 1.888-2.595 2.615-1.013.724-2.096 1.269-3.291 1.586-1.876.502-3.739.508-5.62-.047-1.25-.369-2.419-.893-3.465-1.631-.842-.594-1.596-1.332-2.318-2.072-.955-.983-1.697-2.129-2.304-3.36-.796-1.621-1.36-3.314-1.56-5.116-.077-.712-.133-1.427-.174-1.895m19.572 8.854c.192-.617.424-1.191.549-1.791.211-1.006.436-2.023.51-3.045.191-2.614-.149-5.187-1.039-7.652-.41-1.14-1.016-2.21-1.522-3.316-.466-1.014-1.157-1.879-1.898-2.68-1.053-1.136-2.27-2.087-3.77-2.593-.813-.275-1.655-.398-2.505-.323-1.898.172-3.337 1.18-4.433 2.654-.924 1.239-1.491 2.673-1.827 4.178-.443 1.987-.53 4.003-.313 6.028.02.175.079.429.203.493 1.156.61 2.329 1.19 3.498 1.776 1.232.617 2.46 1.229 3.69 1.847 1.154.582 2.307 1.167 3.461 1.752.994.506 1.99 1.021 2.99 1.518.767.387 1.553.749 2.406 1.154m-.48 1.026c-5.186-2.6-10.282-5.159-15.385-7.716-.037.025-.074.049-.112.074.304 1.007.545 2.041.925 3.02.583 1.512 1.297 2.973 2.326 4.241.604.746 1.209 1.515 1.939 2.119.895.732 1.891 1.338 3.047 1.654 1.096.299 2.16.324 3.248.012 1.037-.297 1.907-.885 2.646-1.645.5-.515.895-1.14 1.366-1.759" fill="#292929"/><path d="m92.976 66.734-22.025 5.18c-.7.168-1.413-.272-1.575-.977l-.326-1.379c-.168-.701.275-1.412.978-1.578l22.023-5.18c.705-.166 1.414.275 1.58.978l.322 1.378c.168.703-.273 1.414-.977 1.578" fill="#5b5b5b"/><path d="m92.354 67.175-20.646 4.854c-1.24.291-2.48-.479-2.772-1.717-.29-1.236.479-2.479 1.717-2.771l20.647-4.853c1.238-.292 2.479.479 2.771 1.714.289 1.237-.481 2.481-1.717 2.773m-21.574.922c-.935.222-1.511 1.154-1.292 2.087.223.934 1.155 1.512 2.088 1.291l20.646-4.854c.935-.22 1.512-1.155 1.293-2.089-.221-.93-1.155-1.509-2.088-1.29z" fill="#63392e"/><g fill="#292929"><path d="m90.955 61.607c1.795-1.924 3.588-3.849 5.381-5.772.532-.573-.324-1.434-.857-.857-1.793 1.923-3.585 3.848-5.381 5.771-.534.57.324 1.431.857.858"/><path d="m91.662 47.536c1.258 2.661 2.512 5.321 3.771 7.981.329.706 1.38.091 1.047-.613l-3.771-7.979c-.33-.707-1.377-.091-1.047.611"/><path d="m92.588 47.472c.485-.689.973-1.382 1.455-2.071.182-.26.057-.688-.218-.831-.338-.178-.678-.354-1.013-.533-.691-.363-1.307.684-.614 1.049.339.178.677.354 1.013.531-.072-.277-.145-.554-.22-.831-.481.69-.968 1.381-1.452 2.073-.447.642.606 1.249 1.049.613"/><path d="m89.424 56.533c.451-.961.908-1.923 1.359-2.885.332-.704-.713-1.321-1.048-.613-.453.961-.907 1.923-1.36 2.886-.33.702.713 1.32 1.049.612"/><path d="m90.813 53.662 2.099-4.434c.329-.701-.714-1.319-1.046-.612-.7 1.479-1.399 2.956-2.101 4.432-.332.704.714 1.321 1.048.614"/><path d="m89.321 71.342c2.099-.559 4.197-1.119 6.296-1.68.754-.201.435-1.373-.324-1.172-2.097.561-4.195 1.119-6.293 1.682-.754.201-.435 1.373.321 1.17"/><path d="m95.107 69.107c-.125 2.022-.249 4.045-.374 6.069-.048.779 1.166.777 1.214 0 .125-2.025.249-4.047.375-6.069.047-.783-1.167-.78-1.215 0"/><path d="m95.608 75.914c.728-.406 1.456-.813 2.183-1.219.684-.381.069-1.433-.613-1.049-.727.405-1.452.813-2.182 1.221-.683.379-.07 1.43.612 1.047"/><path d="m83.955 75.078c1.084.711 2.127 1.473 3.129 2.295.598.494 1.463-.361.858-.856-1.082-.888-2.205-1.718-3.377-2.484-.655-.433-1.264.615-.61 1.045"/><path d="m87.094 77.188c-.072 1.991-.256 3.971-.56 5.94-.118.765 1.052 1.092 1.169.322.32-2.076.526-4.162.604-6.262.033-.782-1.18-.782-1.213 0"/><path d="m86.846 83.789c.724.344 1.445.689 2.17 1.037.701.332 1.318-.711.611-1.049-.724-.344-1.443-.691-2.168-1.037-.701-.336-1.317.709-.613 1.049"/></g><path clip-path="url(#c)" d="m101.666 37.514-2.897-1.68-.16-.09-.147-.08-.439-.25-.131-.08-.09-.05-1.771-1.03h-.01l-1.371-.79-.438-.25-1.813-1.04-.683-.399-.039-.022-3.488-2.01-1.143-.66-1.039-.601-.238-.142-.672-.38-1.26-.728-.541-.312-.802-.46-1.768-1.021-.142-.08-.229-.13-.871-.5-.24-.142-.768-.438-.162-.09-.681-.392-6.219-3.59-.701-.41-.17-.101-.707-.395-.302-.18-1.278-.74-1.479-.851-.473-.271-.969-.558-2.131-1.229-.789-.448-.923-.53-.959-.55-4.791-2.771-2.479 1.432-3.41 1.97-.61.351-.069.04-1.299.75-.5.29-5.472 3.149-3.521 2.028-4.141 2.392-1.828 1.051-1.701.979-.181.1-1.149.671-4.26 2.449-.359.21-.28.16-1.431.818-3.569 2.07h-.009l-7.441 4.29-.18.109-1.879 1.08-.301.17v53.12l2.949 1.697.409.24.052.029.528.311.37.21 2.529 1.472 2.341 1.351h.021l.51.29.069.051.052.021h.028l.99.59 1.58.91.26.147.84.49 1.222.699.49.277.561.32.599.34 3.37 1.95 2.09 1.199.441.261.189.109h.01l.39.221 2.979 1.721 1.301.75.029.021.689.399 6.46 3.729.489.28 1.391.8h.012l.84.489.238.142.102.06.449.262.149.08.319.188.091.051 1.14.649v.011l.75.433.141.078.541.312.148.08.271.147.25.15.22.13.239.14.031.021.029.01.029.021 3.01 1.739.182.101.43.25.229.131.552-.32.143-.079 1.852-1.068 1.738-1 .59-.34.188-.11 2.4-1.38.188-.109.391-.229.021-.011.932-.53.643-.369.068-.04 1.473-.851.156-.092.33-.188.604-.353.129-.067.271-.16.052-.029.222-.13.13-.07.75-.43.359-.21.09-.051.91-.521.25-.141.182-.109.396-.229 1.36-.779.17-.102.701-.398.519-.301.021-.01.117-.07.474-.271.688-.399 2.529-1.461.211-.119.59-.34.131-.069.011-.011.63-.359.238-.141.211-.131.58-.33.279-.158 1.028-.602.392-.222.24-.141.09-.051.1-.062.361-.21.34-.188 1.391-.803 1.398-.81.455-.26.06-.039.431-.25.079-.04v-.011l.25-.142.013-.01.237-.141.302-.171 2.432-1.399.158-.09.143-.08.068-.04.092-.05 1.58-.92.299-.171.229-.132.01-.01.859-.49.239-.158.069-.039.132-.08h.041l.519-.303.03-.02.459-.261.881-.512.021-.011 5.143-2.96.051-.029v-53.105zm-1.711 52.14-1.199.688-3.221 1.86-1.801 1.04-.619.358-.109.062-.09.05-.021.013-.449.26-.159.101-.271.149-.57.33-.108.061-.312.183-.5.287-2.28 1.32-.671.393-.028.01-.09.05-.07.04-.141.08-3.47 2-.312.181-.129.069-.184.101-.34.2-.379.22-.939.54-.199.12-.051.029-.039.02-.57.33-.209.12-.51.3h-.014l-.236.142-.172.102-.27.148-.094.051-3.34 1.921-.41.239-.59.34-.209.119-2.302 1.33-.18.102-.421.239-.329.189-.052.028-.409.239-.14.08-.08.051-.371.21-.14.08-.739.43-.143.08-.238.143-.102.061-.182.103-.238.139-.031.02-.117.07-.939.529-.51.3-.381.221-.262.149-.09.051-1.318.76-1.439.83-.221.13-.223.131-.311.182-.148.08-.811.47-.07.04-.619.359-1.021.59-.609.352-.938.54-1.369.79-1.354.779-.619-.359-.73-.42-2.129-1.221-.03-.021-.119-.067-.051-.031-.14-.079-.371-.21-.328-.188-.172-.102-.101-.06-.601-.343-.399-.229-.14-.08-.07-.04-.891-.511-.529-.312-.738-.42-.092-.061-.141-.08-.67-.381-.1-.062-.021-.01-2.931-1.689-3.061-1.771-3.159-1.819-.739-.431-.016-.013-2.7-1.563-.538-.31-.791-.459-.271-.149-.03-.011-.318-.189-.142-.079-3.71-2.148-.229-.131-.602-.34-2.408-1.392-.172-.102-.51-.289-.68-.392-1.07-.617-.311-.183-.289-.17-.121-.061h-.01l-4.743-2.75-.59-.34-.631-.371-.68-.392-.08-.05-.03-.011-.39-.223-3.07-1.777v-50.964l.522-.301 1.199-.688 1.461-.84.699-.41 6.471-3.729.35-.198 2.109-1.212.551-.318.21-.12 4.771-2.76.291-.17.368-.21 1.882-1.08.028-.021 9.59-5.53 2.271-1.31 3.07-1.771 1.801-1.039.068-.04.61-.352 2.872-1.66.799-.46 1.1-.63 1.119-.641 4.621 2.66.17.101 1.881 1.09.26.149 2.619 1.511.301.17.539.312 1.724.988.26.149.513.301.907.521.33.188.75.431.804.461 2.106 1.22 3.201 1.841.389.22.369.222.147.09.683.391 1.93 1.119.724.41.979.569.188.109.451.271h.01l.959.55 1.66.96 3.451 1.99.039.021.121.065 2.061 1.188.83.48.439.25.24.141.281.16 1.315.76.144.08.041.021.33.188 1.438.83.209.12.264.149 1.601.92 1.938 1.12v50.972z" opacity=".13"/><path d="m45.211 93.154-.008-1.104c0-.075.045-.153.115-.198l.652-.426c.095-.062.141-.184.101-.268-.041-.087-.151-.105-.248-.044l-.356.232c-.125.082-.262.023-.262-.11v-.509c0-.104-.084-.167-.188-.144-.025.006-.05.018-.072.029-.069.045-.118.124-.118.2l.01 2.729c0 .005.002.008.002.012" fill="#63392e"/><path d="m57.918 86.921 6.947 1.296 3.147-2.45-.344 1.311 1.484-.349-3.986 4.029-4.719.802" fill="#d7723b"/><path d="m65.221 90.992c.043-.01.084-.033.117-.065l3.985-4.026c.076-.077.093-.194.039-.289-.053-.093-.16-.142-.267-.117l-1.092.257.24-.923c.027-.1-.016-.206-.1-.265-.088-.058-.199-.056-.283.013l-3.063 2.383-6.84-1.275c-.129-.023-.257.063-.281.194-.023.132.061.259.195.282l6.944 1.297c.067.013.14-.004.194-.048l2.582-2.012-.159.62c-.022.084.002.17.059.23.059.063.148.087.229.067l.662-.157-3.334 3.372-4.644.791c-.129.021-.221.146-.194.278.02.132.146.221.276.197l4.72-.804c.005.003.009.002.015 0" fill="#63392e"/><path d="m68.012 85.768-.344 1.31 1.484-.349-1.504 1.519-1.304-1.183z" fill="#555759"/><path d="m67.502 88.411-1.305-1.184c-.047-.045-.074-.107-.07-.172.002-.063.031-.125.086-.161l1.668-1.302c.072-.056.177-.06.254-.011.078.053.115.148.088.238l-.252.962 1.134-.269c.092-.021.19.021.239.105.048.086.033.192-.034.261l-1.507 1.522c-.028.028-.065.05-.103.058-.071.021-.143.003-.198-.047m.217-1.121c-.076.02-.152-.005-.205-.06-.055-.055-.076-.133-.055-.207l.182-.689-.955.744.955.869.826-.833z" fill="#63392e"/><path clip-path="url(#d)" d="m57.918 86.921 6.947 1.296 3.147-2.45-.344 1.311 1.484-.349-3.986 4.029-4.719.802" opacity=".1"/><path d="m62.518 103.604 1.15-.271-.877-5.895-2.92 2.751z" fill="#d7723b"/><path d="m62.369 103.796c-.057-.046-.092-.112-.094-.188l-2.646-3.413c-.002-.07.027-.137.078-.185l3.082-2.847c.08-.075.201-.086.293-.027.092.06-.152.515-.186.618l1.004 5.65c-.023.083-.092.144-.174.163l-1.152.27c-.07.018-.146.004-.205-.041m.088-5.664-2.342 2.161 2.639 3.007.728-.169z" fill="#63392e"/><path clip-path="url(#e)" d="m62.518 103.604 1.15-.271-.938-5.545-2.859 2.401z" opacity=".1"/><path d="m38.75 82.171-1.033-.492 5.889-3.724 12.006 8.889 3.832-2.743 1.621 6.112 1.428 2.449c.828 1.418.994 3.128.461 4.68-.631 1.83-2.156 3.21-4.041 3.652l-3.125.732c-3.521.827-7.15-.873-8.764-4.111l-1.854-2.787-.078.01-3.131-.989-1.371-3.604-1.26 1.371c-2.013-2.851-.709-6.154-.709-6.154l-1.271.797c-.68-1.737 1.4-4.088 1.4-4.088" fill="#d7723b"/><path d="m50.588 101.417c-1.629-.765-2.97-2.067-3.775-3.678l-1.771-2.663c-.008-.001-.016-.003-.021-.005l-3.131-.989c-.071-.021-.127-.076-.154-.146l-1.232-3.237-.994 1.081c-.051.055-.121.084-.194.079-.073-.006-.142-.042-.181-.103-1.084-1.528-1.227-3.186-1.155-4.302.036-.584.132-1.082.223-1.445l-.725.455c-.062.038-.136.049-.205.025-.068-.023-.124-.074-.149-.143-.599-1.529.717-3.421 1.243-4.09l-.753-.357c-.081-.038-.133-.117-.138-.204-.007-.089.038-.172.112-.22l5.889-3.725c.084-.055.193-.052.273.01l11.861 8.782 3.689-2.64c.065-.046.147-.059.223-.029.076.025.133.089.152.164l1.617 6.083 1.407 2.42c.865 1.48 1.039 3.259.481 4.879-.661 1.921-2.235 3.346-4.215 3.812l-3.125.732c-1.75.415-3.619.218-5.252-.546m5.162-14.378c-.084.062-.199.061-.285-.003l-11.871-8.79-5.377 3.402.638.302c.069.032.118.096.134.17s-.006.153-.056.21c-.018.02-1.753 2-1.442 3.551l1.003-.628c.089-.056.203-.049.284.02.081.065.109.179.07.273-.002.009-.316.816-.387 1.951-.084 1.396.217 2.648.9 3.725l1.052-1.145c.055-.062.141-.09.223-.073.084.017.152.073.182.15l1.332 3.497 2.969.938.024-.003c.09-.013.181.029.231.105l1.854 2.788c.005.009.01.019.016.024.758 1.518 2.02 2.75 3.555 3.472 1.535.72 3.289.901 4.939.515l3.121-.734c1.816-.426 3.26-1.73 3.867-3.495.514-1.486.352-3.117-.439-4.477l-1.432-2.448c-.01-.019-.018-.038-.023-.06l-1.535-5.776z" fill="#63392e"/><path d="m48.213 99.364 5.043 5.857 1.221.155-.461-4.603" fill="#d7723b"/><path d="m54.531 105.612c.043-.012.082-.031.113-.063.055-.052.08-.124.072-.194l-.459-4.604c-.015-.134-.131-.23-.267-.217-.133.013-.229.13-.217.266l.431 4.301-.826-.105-4.982-5.786c-.087-.101-.24-.113-.342-.024s-.112.238-.025.341l5.043 5.857c.039.045.094.074.152.082l1.222.155c.029-.002.058-.003.085-.009" fill="#63392e"/><path d="m41.195 91.841 1.592 4.239 2.01 4.769.854-1.351.949.927-1.657-4.473.137-4.305" fill="#d7723b"/><path d="m46.655 100.66c.027-.006.052-.018.077-.032.096-.061.134-.182.096-.289l-1.641-4.427.134-4.256c.005-.133-.101-.245-.233-.251-.133-.003-.246.102-.25.233l-.135 4.306c-.002.03.004.063.014.09l1.283 3.463-.178-.173c-.052-.052-.125-.076-.197-.068-.072.011-.137.053-.177.111l-.606.96-1.828-4.337-1.59-4.235c-.047-.126-.188-.189-.313-.141s-.189.186-.141.31l1.591 4.24c0 .003.002.006.003.01l2.009 4.77c.034.082.114.139.204.146.089.009.176-.037.225-.112l.695-1.099.734.719c.059.058.145.081.224.062" fill="#63392e"/><path d="m34.297 78.555c.012.021.022.046.035.067.041.073.084.145.129.207l.008.012c.049.068.102.132.156.193.002-.001.006-.002.006-.002.027.028.056.059.086.089.506.488 1.234.733 2.172.73l.057.474.125 1.049 1.229.322-.323 1.615 1.729.133.348 1.812 1.734-.688.676 1.367 1.664-.683.885 1.568 1.356-.538.839 1.082 1.752-.295 2.172 2.405 2.475-.869.472.158 3.537 1.19-.029-1.243 1.781.403.326.074.121.024.209.049 1.098.249-.76-2.022 1.656.28-.652-3.444.998-.479.412-2.791 1.143-1.267.012-.08c.128-.848-.125-1.504-.325-1.875l.94-.265.021-.182c.123-1.011.146-2.185.123-3.331.053-.003.1-.008.146-.014 1.475-.191 1.545-1.757 1.545-1.772l.01-.284-.279.04c-.012.002-.021.004-.029.005-.748.097-1.252-.231-1.508-.47-.109-1.487-.248-2.597-.26-2.693l-.031-.246-.981.036.189-1.444-.225-.063c-1.264-.363-2.229-.237-2.756-.104l.188-1.343-.217-.069c-1.701-.548-3.386.026-4.166.374l.108-1.3-.278-.017c-.444-.026-.865.019-1.259.104l.066.266c.084-.019.166-.035.254-.049l-.004-.001.004.001c-.088.014-.17.029-.254.049l.068.266c.098-.021.199-.041.303-.055.164-.022.334-.039.508-.042l-.146 1.733.448-.261c.021-.011 1.382-.781 2.976-.746.322.008.654.047.981.131l-.254 1.82.455-.219c.238-.113.758-.246 1.453-.23.34.008.723.054 1.137.154l-.211 1.611 1.125-.042c.05.41.142 1.298.222 2.391l-.047.033c.004.006.021.032.053.073.121 1.669.197 3.794.019 5.468l-1.359.383.277.324c.021.025.559.675.438 1.695l-1.143 1.267-.39 2.668-1.116.534.586 3.087-1.818-.31.736 1.966-.646-.146-.323-.082-.328-.073-1.933-.438.024 1.164-3.447-1.159-2.313.81-2.129-2.355-.992.165-.729.128-.891-1.146-1.295.515-.888-1.572-1.64.67-.674-1.362-1.59.63-.303-1.573-1.531-.119.303-1.516-1.367-.36-.131-1.093c.107-.009.313-.025.557-.061.612-.083 1.475-.257 1.697-.591.107-.16.107-.346.057-.524-.023-.087-.061-.171-.102-.252-.047-.089-.098-.169-.15-.241-.132-.188-.262-.313-.262-.313s.04.134.061.311c.01.074.017.155.015.237-.001.08-.011.161-.029.235-.017.063-.039.124-.073.175-.199.308-1.65.448-1.838.467l-.253.013c-.344.02-.653 0-.932-.052-.321-.06-.597-.164-.827-.313-.02-.014-.041-.024-.061-.04-.072-.053-.14-.105-.201-.165l-.033-.038c-.035-.035-.064-.071-.096-.108-.026-.032-.053-.064-.074-.099-.182-.259-.262-.526-.297-.717.232-.014.455-.033.662-.061 1.533-.199 2.358-.758 2.799-1.265.422-.482.496-.92.503-.96l.012-.077-1.333-3.052-.104-.24c1.494-1.472 4.232-1.709 4.262-1.71l.49-.041-.992-1.33c2.203-1.883 5.25-1.708 5.281-1.705l.518.032-.693-1.163c1.661-.613 3.176-.445 4.272-.126l.03-.243.004-.031.033-.28c-1.242-.348-2.955-.497-4.844.299l-.287.123.504.844c-1.043.025-3.502.285-5.371 2.016l-.178.168.713.957c-.936.144-3.021.604-4.265 1.95l-.12.13 1.514 3.47c-.092.324-.664 1.687-3.717 1.768l-.26.007-.005.262c.005.022.002.513.279 1.043m30.385-4.976c-.014-.479-.037-.948-.064-1.395.307.189.723.349 1.252.337-.083.374-.347.992-1.188 1.058" fill="#63392e"/><path d="m60.148 72.533c-.004-.017-.01-.031-.014-.05-.021-.147.113-.286.297-.311.135-.02.258.027.324.112.004.008.01.015.016.021.16.243.297.621.357 1.055.053.398.037.766-.037 1.04-.008.023-.014.051-.021.072-.004.008-.006.017-.008.022-.033.079-.104.146-.201.178-.022.012-.051.018-.08.02-.185.024-.35-.071-.368-.22-.002-.018-.002-.032 0-.051.002-.016.006-.03.008-.048.051-.255.057-.577.01-.919-.047-.343-.142-.652-.26-.885-.009-.008-.015-.021-.023-.036" fill="#63392e"/><path d="m47.639 73.951c-.006-.019-.012-.036-.014-.056-.022-.166.127-.324.336-.354.152-.021.293.031.369.128.004.008.012.017.016.023.187.273.339.703.41 1.196.069.494.041.947-.062 1.266-.002.01-.006.018-.01.025-.046.114-.166.204-.318.228-.015.003-.028.004-.042.004-.191.011-.355-.097-.378-.253-.002-.02-.002-.037-.002-.056.002-.013.005-.021.009-.032 0-.007 0-.016.004-.021.055-.292.062-.658.006-1.05-.055-.388-.162-.737-.297-1.003-.011-.013-.019-.028-.027-.045" fill="#63392e"/><path d="m55.309 79.152c-.436-.369-1.08-.65-1.821-.754-1.448-.199-2.726.355-2.849 1.243-.071.525.275 1.051.875 1.434-.174-.021-.346-.045-.518-.071-.604-.093-1.219-.042-1.736.132-.121.04-.236.09-.346.143-.099.049-.193.102-.281.161-.029.019-.059.039-.088.06-.367.278-.59.646-.643 1.063-.204 1.6.64 2.688 2.44 3.155 1.041.271 2.381.249 3.326.185.442-.029.869-.075 1.26-.124.654-.086 1.211-.189 1.586-.278.141-.033.309-.086.496-.149.072-.024.149-.054.229-.082.074-.027.15-.057.227-.089 1.068-.424 2.461-1.132 3.101-1.656.164-.138.353-.323.336-.561-.019-.252-.237-.384-.478-.522-.295-.18-.631-.378-.692-.821-.08-.577-.093-.936-.09-1.129.073-.031.146-.063.219-.098.158-.063.317-.145.475-.244.778-.505 1.157-1.302.85-1.778-.164-.258-.504-.369-.9-.337-.336.027-.713.157-1.07.388-.422.274-.729.638-.873.985-.004-.004-.608 1.011-3.035-.256m.005 4.119c.26-.016.516-.02.764-.014 1.26.032 2.305.315 2.756.771-.541.281-1.125.547-1.625.74-.078.028-.154.058-.229.086-.082.027-.158.055-.232.08-.125.042-.242.074-.346.1-.932.221-3.048.534-4.779.403-.353-.027-.691-.074-.998-.144.291-.729 1.75-1.604 3.625-1.912.135-.021.274-.042.416-.058.006-.001.012-.001.018-.002.212-.024.423-.039.63-.05m-6.941-.65c.037-.291.19-.541.459-.743.125-.094.275-.175.439-.24.126-.052.262-.091.404-.124.125-.028.259-.052.396-.063 0 .066.009.133.024.195.031.108.087.212.166.301.006.01.013.017.02.023.145.152.344.241.559.257l.392.021.994.061.993.062.074.003c.055.004.11.002.166-.005.156-.02.301-.082.42-.181.166-.136.267-.322.277-.529.486-.02.982-.06 1.492-.121.078-.009.156-.019.236-.028.139-.018.283-.042.434-.068.053.166.154.31.283.41.139.105.299.149.455.13.021-.004.045-.008.063-.015l1.316-.323c.34-.086.541-.471.459-.871.088-.032.18-.063.268-.096.008.232.031.558.094 1.006.095.669.59.968.92 1.163.082.05.189.114.232.157-.018.024-.055.075-.152.153-.26.213-.66.464-1.117.713-.606-.705-2.198-1.065-4.077-.922-.022.002-.05.003-.072.006-.123.011-.243.021-.366.036-.054.006-.105.016-.156.021-.178.022-.353.053-.525.086-1.816.354-3.332 1.229-3.652 2.118-1.457-.428-2.086-1.277-1.918-2.593m8.283-1.252c.168-.038.34-.082.512-.126.053-.016.107-.028.162-.044.41-.089.832-.195 1.242-.322.029.205-.063.397-.213.438l-1.043.257-.271.066c-.076.019-.158-.002-.233-.058-.07-.052-.121-.125-.156-.211m-5.794.517c-.089-.005-.171-.032-.244-.077-.032-.021-.065-.048-.091-.075-.064-.068-.105-.15-.115-.237-.002-.02-.004-.04-.002-.06h.057l.271.018c.062.006.124.013.187.021.041.006.084.011.125.019.928.134 1.834.194 2.767.176-.017.099-.067.188-.149.257-.1.08-.223.118-.352.11l-1.454-.09-.95-.057-.043-.004z" fill="#63392e"/><path d="m64.027 71.569c-.08-1.094-.174-1.979-.221-2.392l-1.125.043.211-1.613c-.412-.101-.797-.145-1.137-.153-.695-.017-1.215.118-1.453.23l-.457.22.256-1.819c-.33-.088-.66-.125-.983-.133-1.592-.037-2.957.736-2.975.746l-.451.262.146-1.733c-.174.003-.34.018-.508.041-.104.016-.205.032-.304.055l.449 1.74.004.016v.016c.019.119.071 1.165-2.562 1.511-.002 0-.004 0-.006.002-1.086.14-1.881.006-2.367-.405-.408-.341-.437-.744-.438-.789l-.002-.021.081-.648.082-.667c-1.095-.319-2.611-.485-4.272.126l.693 1.164-.516-.033c-.031-.004-3.08-.176-5.283 1.704l.992 1.331-.49.039c-.028.003-2.768.241-4.262 1.712l.104.24 1.332 3.052-.011.077c-.007.04-.082.477-.501.96-.443.507-1.267 1.065-2.801 1.265-.207.026-.428.048-.662.061.035.189.115.458.297.718.022.032.048.063.074.098.029.037.061.073.096.108l.035.035c.062.06.13.114.201.164.021.017.041.026.06.042.23.148.506.255.827.313.278.054.588.069.932.054l.253-.014v.002c.19-.019 1.639-.159 1.838-.468.034-.053.057-.112.073-.176.019-.075.028-.156.028-.234.002-.084-.004-.164-.014-.238-.021-.176-.062-.311-.062-.311s.129.126.263.313c.051.072.104.155.149.24.042.082.079.166.103.252.051.181.049.364-.058.525-.224.337-1.086.51-1.697.592-.243.032-.45.052-.557.06l.131 1.094 1.367.358-.304 1.516 1.531.119.303 1.572 1.592-.629.673 1.362 1.64-.67.887 1.572 1.295-.516.892 1.147.733-.124.992-.165 2.129 2.355 2.314-.809 3.445 1.158-.023-1.163 1.932.438.326.074.328.074.645.146-.735-1.967 1.815.31-.584-3.089 1.115-.533.392-2.666 1.143-1.267c.123-1.021-.411-1.67-.436-1.696l-.279-.323 1.358-.383c.179-1.674.103-3.799-.017-5.468m-15.685 2.015c.186.273.339.703.41 1.196.068.494.039.949-.063 1.266-.002.009-.006.018-.009.027-.046.112-.167.202-.318.225-.016.005-.028.005-.043.006-.192.01-.356-.098-.378-.252-.002-.021-.002-.039-.001-.058.001-.012.004-.021.007-.033.002-.006.002-.013.004-.02.055-.292.063-.658.008-1.049-.056-.389-.162-.738-.297-1.004-.011-.017-.019-.031-.024-.05-.007-.018-.013-.035-.015-.054-.023-.167.125-.325.334-.355.153-.02.295.033.369.13.006.009.012.016.016.025m12.781-.333c.056.399.037.767-.037 1.041-.006.023-.012.051-.018.071-.006.009-.006.017-.01.023-.031.078-.105.146-.199.178-.025.011-.053.018-.082.02-.184.024-.348-.072-.369-.219-.002-.019-.002-.033 0-.052.002-.016.006-.03.01-.048.051-.256.058-.578.011-.919-.05-.344-.143-.652-.263-.885-.008-.016-.014-.027-.02-.041-.006-.019-.012-.032-.016-.051-.019-.146.113-.285.299-.311.133-.02.26.027.322.112.006.008.012.016.017.021.16.25.294.628.355 1.06m-12.494 8.078c.088-.06.182-.112.281-.161.107-.053.225-.102.346-.142.517-.174 1.129-.225 1.734-.132.174.026.346.05.52.07-.6-.38-.946-.906-.875-1.432.123-.89 1.398-1.443 2.849-1.244.741.104 1.386.384 1.821.753 2.428 1.267 3.031.253 3.031.253.143-.35.447-.711.873-.985.356-.23.733-.359 1.067-.388.396-.032.733.078.902.337.309.478-.07 1.271-.851 1.779-.158.1-.315.183-.477.242-.072.033-.145.066-.219.098 0 .194.012.554.092 1.13.061.443.396.643.691.821.235.141.457.271.479.522.018.237-.17.425-.338.561-.639.524-2.029 1.233-3.1 1.656-.076.03-.15.061-.225.088-.078.029-.155.058-.229.085-.188.063-.354.114-.496.148-.375.089-.934.193-1.588.277-.391.052-.816.096-1.26.125-.941.064-2.283.086-3.324-.185-1.801-.467-2.644-1.559-2.44-3.156.053-.417.274-.785.644-1.063.032-.016.063-.037.092-.057" fill="#d7723b"/><path d="m65.869 72.521c-.082.374-.344.99-1.188 1.058-.014-.479-.037-.948-.064-1.395.307.19.723.35 1.252.337" fill="#d7723b"/><path d="m55.006 82.926.063.02c-.025.002-.051.004-.074.008z" fill="#555759"/><path d="m50.096 81.646-.42-.132c.127-.026.26-.052.396-.063-.001.066.006.131.024.195" fill="#555759"/><path d="m54.629 82.987c-.055.005-.104.016-.158.021l-2.244-.697.992.059 1.787.556-.012.025c-.121.01-.244.021-.365.036" fill="#555759"/><path d="m50.096 81.646c.033.108.088.212.166.301l-.989-.308c.126-.052.262-.091.403-.125z" fill="#555759"/><path d="m54.471 83.01c-.176.022-.353.053-.525.086l-2.713-.847.993.061z" fill="#555759"/><path d="m50.986 81.674.874.27-.948-.056z" fill="#fff"/><path d="m50.867 81.886-.249-.077c-.032-.021-.065-.047-.091-.075-.064-.068-.105-.15-.115-.237l.574.179-.074.215z" fill="#fff"/><path d="m50.862 81.886c-.089-.005-.171-.032-.244-.077l.249.077z" fill="#fff"/><path d="m55.068 82.944-.063-.019.644-1.388c.08-.01.158-.019.236-.028.141-.018.285-.043.434-.069.055.165.152.311.283.41.141.104.301.149.457.129.02-.003.043-.007.063-.014l1.316-.324c.34-.084.541-.47.457-.871.092-.031.18-.063.27-.095.006.231.029.557.092 1.008.093.666.588.965.918 1.161.084.051.191.113.234.157-.018.024-.057.075-.152.152-.26.213-.662.464-1.116.713-.606-.704-2.196-1.064-4.073-.922" fill="#555759"/><path d="m53.293 82.373c.057.003.11.002.166-.006.156-.021.301-.083.422-.181.164-.135.265-.323.277-.529.486-.02.982-.06 1.492-.121l-.644 1.388-1.789-.555z" fill="#555759"/><path d="m57.328 81.198c.41-.089.832-.195 1.242-.322.029.205-.061.397-.213.438l-1.043.258-.148-.328c.055-.016.109-.03.162-.046" fill="#fff"/><path d="m56.809 81.578c-.066-.051-.117-.124-.152-.209.168-.038.34-.082.512-.126l.146.327-.273.066c-.075.02-.157-.001-.233-.058" fill="#fff"/><path d="m53.666 81.926c-.099.079-.222.117-.353.108l-1.451-.089-.876-.271.063-.183c.928.135 1.834.194 2.765.177-.015.097-.068.189-.148.258" fill="#fff"/><path d="m50.412 81.495c-.002-.02-.004-.04-.002-.06h.057l.271.017c.062.007.124.014.187.022.041.006.082.011.125.019l-.063.181z" fill="#fff"/><path d="m50.281 81.969c.146.151.344.241.559.257l.392.021 2.713.847c-1.815.354-3.331 1.229-3.651 2.118-1.459-.426-2.088-1.273-1.92-2.59.037-.292.191-.541.459-.741.125-.097.275-.177.439-.242l.99.308c.007.007.013.014.019.022" fill="#555759"/><path d="m54.248 83.384c.137-.021.277-.044.418-.058.006 0 .012-.002.017-.002.215-.024.426-.043.633-.053.26-.016.517-.02.765-.014 1.26.032 2.305.315 2.756.771-.541.281-1.125.547-1.625.74-.078.028-.154.058-.229.086-.08.026-.158.055-.231.08-.125.042-.242.075-.345.101-.935.22-3.05.534-4.78.401-.354-.026-.692-.072-1-.142.289-.726 1.75-1.603 3.621-1.91" fill="#f27d7f"/><path clip-path="url(#f)" d="m35.264 78.657c-.102-.016-.201-.038-.299-.071-.027-.033-.053-.064-.074-.098-.184-.259-.262-.527-.297-.718.232-.015.455-.033.662-.061 1.533-.199 2.358-.759 2.801-1.265 0 0 .111 1.2-.984 1.779-.212.112-.432.211-.652.287-.391.136-.784.201-1.157.147" opacity=".1"/><path clip-path="url(#g)" d="m56.824 86.05c.053-.093.195-.068.219.037l.203.979c.016.073-.045.145-.121.143l-.771-.017c-.091-.003-.146-.103-.101-.182z" opacity=".1"/><path clip-path="url(#h)" d="m37.438 79.847c.107-.01.313-.026.557-.06l.096.73 1.475.365-.25 1.457 1.292.085.329 1.375 1.339-.508.776 1.392 1.541-.594.91 1.414 1.375-.395 1.301 1.539-.736.125-.891-1.146-1.295.516-.887-1.572-1.64.67-.673-1.362-1.592.629-.303-1.573-1.531-.118.304-1.516-1.367-.358z" opacity=".1"/><path clip-path="url(#i)" d="m35.357 78.937.827.313c-.321-.06-.596-.165-.827-.313" fill="#e6e6e6"/><path clip-path="url(#j)" d="m48.323 76.413c.103.11.19.224.267.327.074.104-.047.23-.155.165-.913-.54-1.862-.315-2.364-.125-.104.04-.197-.079-.135-.172l.592-.883c.02-.028.051-.049.084-.054.539-.06.986.128 1.339.397-.002.011-.006.021-.006.031-.002.019-.002.038 0 .058.022.158.186.266.378.256" opacity=".1"/><path clip-path="url(#k)" d="m60.861 74.676c.096-.034.17-.101.201-.179.004-.008.004-.017.008-.024.008-.021.014-.047.02-.07.152-.142.343-.249.582-.288.027-.005.054.006.076.022l.471.429c.066.058.021.165-.069.159-.334-.03-.89.001-1.334.426-.069.066-.181-.012-.146-.102.049-.119.109-.248.191-.373" opacity=".1"/><path clip-path="url(#l)" d="m58.088 85.677.896.952c.06.063.037.16-.041.192l-.355.146-.226.092-.221.09-.062.023c-.076.031-.162-.023-.164-.106l-.008-.283-.012-.467-.012-.468-.002-.09c-.002-.106.133-.161.207-.081" opacity=".1"/><path clip-path="url(#m)" d="m58.906 85.308 1.092.038c.103.005.154.127.082.2l-.477.501c-.045.048-.117.051-.166.008l-.615-.54c-.082-.074-.027-.211.084-.207" opacity=".1"/><path clip-path="url(#n)" d="m47.066 66.479.357 1.607s-2.897-.71-5.858 1.105l1.235 1.815s-4.159.322-5.406 1.71l-.158-.363-.104-.239c1.494-1.473 4.232-1.709 4.262-1.712l.49-.039-.992-1.332c2.203-1.881 5.251-1.708 5.283-1.704l.516.033-.693-1.164c1.66-.612 3.178-.444 4.272-.125l-.082.665c-.504-.204-1.789-.624-3.122-.257" opacity=".1"/><path clip-path="url(#o)" d="m59.846 67.903s.063-1.521-.729-1.951c.322.008.652.047.981.131z" opacity=".1"/><path clip-path="url(#p)" d="m55.332 65.264c.164-.022.334-.037.508-.042l-.147 1.735c-.002.001-.201-1.163-.361-1.693" opacity=".1"/><path clip-path="url(#q)" d="m62.682 69.222s-.131-1.309-.926-1.765c.34.007.725.052 1.137.151z" opacity=".1"/><path clip-path="url(#r)" d="m57.707 69.843c-.082-.158.135-.301.246-.162 1.986 2.423 2.328 8.35 2.328 8.35-.334.028-.711.157-1.068.388.217-4.492-.838-7.284-1.506-8.576" opacity=".1"/><path clip-path="url(#s)" d="m56.809 81.578c-.066-.051-.117-.124-.152-.209.168-.038.34-.082.512-.126l.146.327-.273.066c-.075.02-.157-.001-.233-.058" fill="#e6e6e6"/><path clip-path="url(#t)" d="m53.666 81.926c-.099.079-.222.117-.353.108l-1.451-.089-.95-.058-.043-.003h-.005c-.089-.007-.172-.031-.243-.077-.033-.021-.066-.047-.092-.075-.064-.068-.105-.151-.115-.237-.002-.02-.004-.04-.002-.06h.057l.27.018c.063.006.124.014.186.021.043.007.084.013.127.019.927.135 1.834.194 2.765.176-.018.096-.071.188-.151.257" fill="#e6e6e6"/><path clip-path="url(#u)" d="m48.832 81.879c.125-.095.275-.176.439-.241.126-.052.262-.091.404-.124.125-.028.259-.052.396-.063 0 .066.009.133.024.196.031.108.087.211.166.3.006.009.011.017.02.023.145.152.344.241.559.257l.392.021.994.062.993.061.074.003c.055.005.11.003.166-.005.156-.02.301-.082.42-.181.166-.136.267-.323.277-.529.486-.02.982-.06 1.492-.121l-.645 1.388-.015.026c-.121.01-.241.02-.364.034-.054.008-.105.015-.156.021-.178.022-.354.053-.527.084-1.814.355-3.331 1.23-3.65 2.12-1.459-.426-2.089-1.272-1.92-2.59.039-.29.193-.54.461-.742" fill="#454647"/><path clip-path="url(#v)" d="m54.248 83.384c-.798.331-2.488 1.138-2.625 2.055-.353-.026-.691-.072-.998-.142.291-.729 1.752-1.606 3.623-1.913" fill="#dd5f65"/><path clip-path="url(#w)" d="m52.045 80.579c-.467-.36-.711-.827-.545-1.044.168-.217.68-.101 1.147.26.467.359.711.825.545 1.042-.168.216-.682.101-1.147-.258" fill="#4f251d"/><path clip-path="url(#x)" d="m59.902 79.793c-.137-.083-.1-.387.082-.678.182-.292.438-.458.572-.375.133.084.096.388-.084.678-.061.099-.129.182-.199.246-.084.035-.201.084-.348.142-.009-.004-.017-.008-.023-.013" fill="#4f251d"/><path clip-path="url(#y)" d="m59.926 79.804c.145-.058.264-.104.346-.141-.127.118-.256.176-.346.141" fill="#b3b3b3"/><path d="m53.078 59.659.407 1.567c-.369.449-.955.969-1.839 1.281-.145.053-.299.097-.46.137l.239-2.021c.129-.044.259-.093.382-.146.472-.206.898-.479 1.271-.818" fill="#fffbdd"/><path d="m53.633 61.779.395 1.501c-.34.503-1.124 1.391-2.582 1.727-.175.042-.359.074-.554.099l.233-1.964c.166-.034.328-.076.479-.122.926-.284 1.583-.773 2.029-1.241" fill="#fffbdd"/><path d="m51.373 67.919c1.897-.255 2.902-1.332 3.348-1.989l.316 1.212c-.011.091-.152.716-2.148.983-.002 0-.004 0-.004 0-.832.112-1.354.032-1.68-.101-.056-.022-.105-.047-.152-.071.053-.005.105-.009.158-.015.055-.004.108-.011.162-.019" fill="#fffbdd"/><path d="m51.808 57.423.055-.468c.021-.153.134-.215.233-.222h.011c.103-.004.217.043.253.188l.021.084c-.102.088-.205.17-.316.248-.084.06-.169.117-.257.17" fill="#fffbdd"/><path d="m52.019 57.852c.172-.104.338-.217.493-.341l.427 1.622c-.317.325-.681.592-1.087.798-.117.061-.238.115-.362.164l.249-2.088c.095-.049.187-.101.28-.155" fill="#fffbdd"/><path d="m50.758 66.228.033-.279.032-.282.009-.075c.072-.007.141-.016.209-.021.125-.02.246-.038.363-.063 1.422-.287 2.296-1.053 2.775-1.636l.271 1.037.07.268.027.109c-.023.046-.06.12-.115.212-.32.537-1.239 1.717-3.188 1.96-.195.022-.396.038-.609.042-.016-.042-.021-.074-.023-.09z" fill="#fffbdd"/><path clip-path="url(#z)" d="m50.344 66.804.099-.68.003-.027.037-.247.041-.279.293-2.007.101-.677.028-.199.318-2.16.053-.374.318-2.153.074-.518.113-.774.313-.188-.019.213-.045.519-.048.599-.172 2.077-.048.547-.17 2.031-.043.513-.166 1.987-.041.496-.032.373-.025.29-.025.29-.084.994-.039.486-.006.084-.022.247-.008.103-.748-.416-.136-.574z" fill="#f9ec31" opacity=".4"/><path d="m50.108 67.409c.002.043.03.445.439.787.485.41 1.281.545 2.365.405.002-.001.004-.001.006-.001 2.635-.345 2.58-1.393 2.563-1.513l-.002-.014-.004-.016-.449-1.74-.067-.267-.066-.265-2.063-7.988c-.091-.35-.394-.567-.752-.546-.363.024-.633.281-.678.64l-1.061 8.618-.033.279-.006.031-.03.248-.082.664-.081.65zm2.743.719c-.83.109-1.353.027-1.679-.107-.056-.021-.106-.046-.151-.071.054-.004.104-.009.157-.014.055-.008.109-.013.162-.019 1.897-.247 2.904-1.322 3.357-1.979l.311 1.212c-.012.091-.157.716-2.152.978zm-.462-11.122c-.102.089-.207.17-.315.247-.086.061-.17.116-.261.17l.059-.469c.018-.153.133-.214.234-.221h.011c.099-.002.214.044.25.19zm.132.508.418 1.621c-.317.325-.685.59-1.088.795-.119.06-.241.113-.365.161l.258-2.086c.095-.047.188-.098.28-.151.172-.104.338-.218.497-.34m.554 2.148.404 1.568c-.371.448-.961.967-1.847 1.275-.144.052-.299.096-.461.133l.25-2.019c.129-.043.258-.092.381-.145.474-.201.901-.474 1.273-.812m.548 2.123.387 1.503c-.34.502-1.129 1.388-2.584 1.719-.176.041-.361.072-.555.096l.24-1.962c.167-.034.328-.075.48-.121.926-.282 1.583-.767 2.032-1.235m.877 3.398.027.108c-.021.047-.059.119-.115.211-.322.536-1.242 1.713-3.193 1.947-.192.022-.396.037-.609.041-.014-.043-.02-.074-.024-.09l.146-1.18.035-.277.033-.283.011-.074c.069-.008.141-.015.209-.022.125-.017.245-.037.364-.06 1.42-.282 2.301-1.045 2.779-1.625l.271 1.04z" fill="#faea75"/><path d="m57.518 96.837c.512 2.184-1.133 4.438 1.463 3.829 2.594-.609 4.281-2.875 3.768-5.06-.513-2.186-1.75-4.169-4.215-3.182-2.444.983-1.532 2.229-1.016 4.413" fill="#e59776"/><path d="m46.346 92.317-1.305.558" fill="none"/><path d="m45.096 93.112c.014-.005.027-.009.041-.017l1.305-.556c.124-.054.18-.196.127-.319-.053-.121-.195-.179-.318-.125l-1.305.557c-.124.054-.18.196-.127.317.045.111.164.169.277.143" fill="#63392e"/><path d="m45.881 98.488.723 1.95-.949-.925-.856 1.349-.739-1.852z" fill="#555759"/><path d="m46.451 100.597-.756-.737-.711 1.123c-.045.069-.123.107-.204.1-.083-.008-.151-.06-.183-.135l-.74-1.855c-.023-.056-.021-.122.008-.177.026-.055.075-.096.135-.114l1.821-.522c.112-.031.226.027.265.134l.724 1.95c.036.096 0 .203-.085.26-.022.015-.045.022-.069.027-.074.018-.152-.003-.205-.054m-.82-1.301c.064-.008.129.016.177.062l.254.248-.315-.853-1.395.399.492 1.233.625-.989c.031-.051.08-.083.136-.096.007-.002.018-.003.026-.004" fill="#63392e"/><path d="m63.773 103.421-.859.812-.379-.619 1.053-.996z" fill="#555759"/><path d="m62.887 104.449c-.066-.01-.123-.046-.158-.104l-.379-.618c-.055-.09-.039-.2.035-.272l1.053-.995c.057-.054.139-.073.211-.052.078.021.133.084.152.16l.186.803c.016.075-.006.154-.063.207l-.859.813c-.047.047-.114.065-.178.058m.574-1.412-.646.613.146.24.572-.544z" fill="#63392e"/><path d="m54.475 105.37-1.219-.155-.443-.51 1.558-.366z" fill="#555759"/><path d="m54.447 105.587-1.22-.154c-.054-.009-.104-.032-.14-.073l-.438-.513c-.052-.058-.065-.138-.043-.209.022-.072.084-.128.157-.146l1.557-.365c.061-.016.127-.003.176.034.055.037.088.093.09.156l.104 1.031c.008.064-.018.132-.063.178-.027.027-.063.048-.103.056-.024.006-.051.007-.077.005m-1.232-.752.15.175.862.11-.05-.512z" fill="#63392e"/><path clip-path="url(#A)" d="m38.95 84.41 1.868-.332s-2.004 3.449-1.309 5.776l1.521-.839 2.472 7.107 1.758 4.009-.463.715-4.242-10.602-1.219 1.294c-1.85-2.474-.929-5.447-.922-5.484l.064-.429-1.167.554c-.218-1.805 1.521-3.797 1.541-3.816l.169-.193-1.176-.505c.193-.124.525-.505.81-.606l.576-.136.333 1.412 1.361.313z" opacity=".1"/><path d="m60.184 90.069-.254 1.226-.594-.358" fill="#d7723b"/><path d="m59.973 91.484c.014-.002.023-.006.035-.013.057-.022.1-.075.11-.139l.257-1.227c.021-.104-.047-.206-.152-.229-.104-.021-.207.045-.229.15l-.198.957-.359-.217c-.09-.058-.211-.027-.266.063-.056.091-.025.21.063.267l.595.359c.044.033.097.04.144.029" fill="#63392e"/><path d="m54.363 91.438 2.571 1.213.068-1.005" fill="#d7723b"/><path d="m56.979 92.839c.02-.004.037-.012.055-.021.055-.033.09-.09.096-.154l.068-1.007c.006-.106-.074-.198-.182-.206-.105-.008-.197.074-.207.181l-.049.724-2.313-1.091c-.099-.046-.213-.004-.26.094-.045.096-.004.212.092.258l2.572 1.21c.042.017.087.022.128.012" fill="#63392e"/><path d="m56.375 91.146 2.779 1.367.155-2.162" fill="#d7723b"/><path d="m59.199 92.7c.018-.005.037-.013.053-.021.056-.032.092-.09.096-.153l.156-2.161c.008-.107-.071-.199-.18-.207-.107-.009-.199.071-.205.179l-.137 1.873-2.518-1.237c-.097-.049-.211-.01-.263.09-.047.095-.008.211.089.26l2.778 1.366c.041.016.086.022.131.011" fill="#63392e"/><path d="m51.647 53.075-.942-.551.936-.436z" fill="#fffbdd"/><path d="m51.979 52.084.965.423-.957.568z" fill="#fffbdd"/><path d="m51.975 51.749.002.001-.071-.001z" fill="#fffbdd"/><path d="m50.961 52.034-.197.091.869-1.471c.002.35.004.709.009 1.063-.23.107-.458.213-.681.317" fill="#fffbdd"/><path d="m51.967 50.644.914 1.47c-.299-.13-.604-.267-.908-.398 0-.358-.002-.721-.006-1.072" fill="#fffbdd"/><path d="m51.678 54.716-.729-1.006c.239.14.481.28.724.417z" fill="#fffbdd"/><path d="m52.012 54.713c0-.194 0-.392-.002-.587.238-.143.48-.288.718-.428z" fill="#fffbdd"/><path d="m53.476 52.526c.01-.046 0-.094-.031-.144l-.319-.517c-.386-.623-.779-1.261-1.17-1.889-.015-.021-.05-.078-.119-.099l-.022-.004h-.047l-.009.003c-.066.021-.1.066-.123.104-.467.791-.947 1.607-1.432 2.426-.031.053-.039.104-.018.157.022.057.067.084.083.092l1.135.663c.104.06.21.122.313.185.035.02.07.03.105.029h.01c.032-.002.063-.013.092-.029.373-.222.75-.444 1.115-.663l.346-.204c.059-.033.082-.08.091-.11m-1.837-.808c-.229.105-.456.212-.68.315l-.197.092.869-1.471c.004.35.006.709.008 1.064m-.934.805.937-.437.007.986zm1.272-.773h-.07l.068-.001zm.904.362c-.299-.13-.604-.267-.906-.398-.002-.357-.004-.72-.008-1.071zm.063.396-.957.568-.008-.992z" fill="#f495a8"/><path d="m50.191 53.105c-.021.054-.014.114.021.164.039.054.078.108.117.161l.266.367c.363.499.734 1.016 1.104 1.521.019.026.052.065.107.085l.012.003.072.001.014-.006c.058-.028.089-.073.104-.094.47-.667.951-1.357 1.441-2.052.016-.021.053-.078.033-.152-.014-.053-.049-.093-.096-.112-.051-.021-.105-.017-.152.011-.043.024-.086.05-.127.075l-.225.133c-.342.204-.695.415-1.043.624-.295-.171-.594-.343-.887-.513l-.508-.293c-.029-.02-.072-.037-.126-.028-.056.014-.105.052-.127.105m.758.605c.239.138.482.279.723.417l.006.588zm1.779-.013-.716 1.016c0-.193 0-.391-.002-.587.238-.143.481-.288.718-.429" fill="#f495a8"/><path d="m48.563 52.814c.099-.007.183.065.188.164.006.098-.066.182-.164.188-.097.006-.182-.066-.188-.165-.006-.095.066-.18.164-.187" fill="#f495a8"/><path d="m53.975 56.226c.098-.008.184.065.189.163.008.098-.066.183-.162.189-.099.006-.185-.067-.191-.164s.066-.181.164-.188" fill="#f495a8"/><path d="m54.744 54.603c.049-.059.137-.063.195-.015l.199.173.172-.198c.051-.058.137-.064.195-.015.057.052.063.139.016.196l-.174.199.197.173c.059.051.063.139.018.196-.023.028-.059.046-.094.048s-.072-.01-.103-.034l-.198-.173-.172.199c-.025.028-.062.046-.097.047-.035.003-.071-.009-.102-.033-.055-.051-.063-.138-.014-.195l.174-.199-.199-.173c-.058-.052-.066-.14-.013-.196" fill="#faea75"/><path d="m47.69 50.689-.204-.168c-.059-.05-.066-.137-.018-.195.049-.059.136-.068.195-.019l.202.168.169-.203c.049-.06.135-.068.196-.02.058.049.066.136.019.195l-.168.203.203.167c.059.049.066.135.018.194-.024.031-.06.049-.096.052-.035.002-.07-.009-.099-.032l-.203-.168-.167.203c-.025.029-.061.047-.098.051-.033.002-.068-.008-.098-.032-.059-.049-.066-.136-.019-.194z" fill="#faea75"/><path d="m49.994 55.26c.061.05.068.137.018.196l-.166.202.201.169c.06.049.068.136.021.195-.024.03-.062.048-.099.051-.033.002-.068-.009-.098-.032l-.203-.168-.168.204c-.023.031-.06.048-.097.051-.032.002-.069-.009-.099-.032-.057-.05-.066-.137-.018-.194l.168-.203-.203-.169c-.058-.049-.066-.135-.018-.196.049-.058.137-.066.195-.018l.205.167.166-.204c.051-.059.137-.067.195-.019" fill="#faea75"/><path d="m49.582 50.55c-.099.008-.183-.066-.19-.165-.007-.097.067-.182.165-.188.097-.007.182.065.19.164.005.097-.067.182-.165.189" fill="#faea75"/><path d="m54.631 52.388c.098-.008.184.066.188.164.009.099-.065.183-.164.19-.094.006-.183-.068-.188-.166-.006-.097.068-.181.164-.188" fill="#faea75"/><path d="m63.717 95.423-16.352 3.846c-.494.115-.994-.193-1.109-.689l-.262-1.104c-.115-.494.194-.993.69-1.109l16.351-3.845c.496-.117.994.193 1.111.688l.26 1.106c.115.489-.195.989-.689 1.107" fill="#5b5b5b"/><path d="m63.213 95.758-15.244 3.584c-.914.216-1.832-.354-2.047-1.266-.215-.915.353-1.833 1.267-2.048l15.247-3.584c.912-.215 1.832.354 2.045 1.267.214.913-.354 1.832-1.268 2.047m-15.928.68c-.688.161-1.115.854-.953 1.541.161.688.854 1.114 1.541.954l15.243-3.585c.691-.161 1.119-.854.957-1.54-.161-.688-.854-1.116-1.543-.953z" fill="#63392e"/><path d="m16.375 28.401c-.059-.145-.121-.281-.168-.427-.211-.646-.228-1.29.037-1.926.396-.943 1.352-1.438 2.354-1.219.659.147 1.188.502 1.603 1.027.432.546.672 1.167.68 1.865.008.646-.172 1.232-.638 1.697-.565.563-1.254.711-2.016.52-.632-.16-1.128-.526-1.524-1.037-.051-.064-.102-.131-.152-.196-.059-.099-.118-.202-.176-.304m3.99.054c.026-.267.006-.526-.05-.781-.173-.817-.569-1.513-1.192-2.07-.316-.284-.675-.499-1.1-.582-.535-.105-1.01.092-1.27.532-.172.294-.229.618-.227.953.005.481.131.936.324 1.37.025.057.063.068.117.077 1.106.163 2.214.327 3.32.492.026.005.051.006.078.009m-.027.218c-1.108-.165-2.207-.328-3.32-.494.016.033.021.051.031.065.207.345.457.655.765.918.312.265.653.473 1.06.554.282.059.559.042.816-.094.375-.198.556-.536.648-.949" fill="#292929"/><path d="m27.144 19.249c.079-.03.159-.063.239-.088.636-.206 1.24-.114 1.815.194.576.308.996.769 1.282 1.353.297.605.396 1.239.253 1.903-.115.526-.375.973-.815 1.293-.469.341-.994.451-1.563.353-.691-.116-1.248-.478-1.688-1.02-.447-.552-.695-1.186-.701-1.898-.008-.667.193-1.259.682-1.733.08-.078.171-.146.256-.221.081-.045.16-.09.24-.136m-.209 3.212c.202.357.45.67.769.948.293.259.619.463 1.004.56.691.178 1.269-.138 1.489-.815.13-.397.12-.8.036-1.202-.172-.823-.572-1.519-1.198-2.08-.313-.28-.666-.492-1.083-.577-.642-.132-1.186.167-1.394.787-.065.192-.103.403-.108.608-.022.636.173 1.221.485 1.771" fill="#292929"/><path d="m43.127 14.809c.032.087.072.173.099.262.161.564.002 1.03-.443 1.405-.301.254-.644.384-1.034.385-.097 0-.193-.019-.289-.017-.123.003-.168.061-.162.182.002.04.011.08.019.119.01.039.023.075.036.115-.031.02-.062.035-.093.055-.293-.506-.582-1.01-.873-1.517.041-.022.076-.044.107-.063.122.147.236.302.364.44.181.198.396.354.644.461.33.142.645.093.94-.089.345-.21.461-.537.378-.954-.087-.438-.359-.691-.77-.825-.34-.111-.692-.148-1.047-.175-.224-.015-.447-.014-.668-.046-.642-.092-1.199-.621-1.316-1.256-.088-.477.104-.851.475-1.143.021-.018.039-.036.059-.056.074-.043.148-.086.223-.129.016-.002.027-.002.039-.007.202-.082.41-.107.625-.091.068.006.141.011.209.005.108-.009.156-.063.149-.17-.006-.084-.029-.167-.047-.251.028-.017.061-.034.084-.049.25.435.496.86.741 1.287-.1.088-.097.082-.17.007-.149-.157-.297-.321-.467-.454-.28-.222-.591-.318-.957-.206-.549.169-.69.648-.585 1.038.089.328.318.532.628.653.269.104.549.136.832.13.293-.005.587-.002.877.052.435.081.83.24 1.149.559.049.051.093.104.139.154.033.066.068.127.105.189" fill="#292929"/><path d="m22.881 24.982c.021.037.037.063.055.092l.838 1.455c.186.321.43.391.759.214.058-.03.111-.063.173-.099.019.03.035.063.057.101-.565.326-1.135.653-1.707.984-.014-.021-.027-.04-.041-.063.063-.056.125-.102.178-.158.168-.177.195-.396.072-.606-.659-1.147-1.321-2.294-1.981-3.44-.069-.121-.173-.175-.31-.157-.111.016-.223.04-.334.056-.107.014-.122-.001-.163-.112.011-.01.021-.021.034-.028.611-.351 1.219-.71 1.836-1.048.347-.188.724-.294 1.125-.256.34.031.604.195.789.481.398.616.283 1.209-.158 1.716-.194.224-.417.412-.676.558-.179.099-.355.201-.546.31m-1.277-2.245c.015.023.03.053.046.08.338.587.682 1.171 1.012 1.764.071.128.164.166.293.155.07-.005.145-.021.211-.044.267-.099.459-.29.643-.497.203-.229.268-.5.214-.795-.062-.332-.224-.617-.451-.858-.353-.376-.754-.456-1.22-.232-.25.116-.484.268-.727.403-.006.002-.01.009-.021.024" fill="#292929"/><path d="m35.379 18.87c.027-.018.067-.04.112-.066.255.441.507.88.761 1.319-1.078.622-2.153 1.241-3.235 1.864-.015-.022-.027-.041-.044-.064.05-.039.098-.071.141-.111.208-.189.252-.428.112-.669-.65-1.134-1.302-2.264-1.955-3.394-.153-.267-.418-.344-.701-.217-.032.015-.063.028-.099.044-.014-.025-.024-.046-.039-.07.572-.33 1.142-.658 1.71-.984.056.046.036.07-.007.107-.1.082-.202.162-.28.264-.136.172-.146.359-.031.557.65 1.124 1.298 2.251 1.947 3.376.139.24.353.339.599.216.346-.171.688-.361 1.002-.584.315-.226.364-.572.262-.93-.068-.223-.169-.432-.255-.658" fill="#292929"/><path d="m39.485 18.167c.015.023.024.044.04.068-.527.305-1.055.605-1.586.914-.016-.022-.027-.041-.042-.063.063-.057.129-.104.185-.162.164-.176.188-.392.067-.601-.656-1.141-1.313-2.281-1.972-3.421-.146-.254-.411-.333-.689-.209-.029.014-.059.024-.092.041-.016-.022-.028-.041-.046-.066.528-.305 1.055-.606 1.582-.912.048.037.047.066-.003.104-.063.049-.123.099-.172.158-.151.189-.137.393-.021.594.197.344.394.686.593 1.028.438.762.879 1.522 1.317 2.284.198.348.442.423.806.248.009.002.017 0 .033-.005" fill="#292929"/></svg>