<svg xmlns="http://www.w3.org/2000/svg" viewBox="0 0 110.979 128.417"><path fill="#7FFFDF" d="M110.938 96.253l-55.426 32-55.424-32v-64l55.424-32 55.426 32z"/><path fill="#FFF" d="M102.082 37.964v53.14l-.01.01-.02.01-.41.24-.37.21-.62.35-4.15 2.39-.01.01-.13.08-.06.03-.33.19-.14.08-.08.05-.8.45-.1.06-.48.28-1.13.65-.85.49-.74.43-.24.13-.13.05-.11.07-1 .57-.03.02-2 1.15-.51.29-.14.08-.03.02-.14.08-.01.01-.04.02-.14.08-.86.49-.04.03-.07.04-1.16.67-.45.26-.02.02h-.01l-.42.24-1.12.65-.87.52-1.18.67-.08.05-.12.07-.04.03-.04.02-.02.01-.1.06-.29.17-.03.01-.16.09v.01l-.4.23-.27.16-.11.06-.18.09-.02.02-.04.02-.46.26-.14.08-.09.05-.06.04-.24.14-.02.01-.29.17-.15.08-.22.13-.24.14h-.01l-.42.25-.29.17-.03.02-.3.17-1.36.79-.5.29-.25.14-.7.4-.03.02h-.01l-.31.18-.05.03-.24.15-.84.48-.63.36-.06.03-.5.29c-.01.01-.01.01-.01 0l-.53.31-.18.11-.11.06-.03.02-.73.42-.05.03-.05.03-.03.01c0 .01-.01.01-.01.01l-.02.02-.25.14-1 .58-.17.1-.04.02-.38.22-1.42.82-.36.21-.09.05-.24.14-.8.46-.26.15-.28.16-.01.01-.2.12-.23.13-.35.2-.83.48-.01.01-.09.05-.66.38-.13.07-.53.31-.02.01-.79.46-.61.35h-.01l-1.41.81-.02.02-.25.14-.56.32h-.01l-.13.08-.19.11-.27.16h-.01l-.2.12-.06-.03-1.14-.66-1.07-.62-.03-.01-.33-.19-.01-.01-.92-.53-.13-.08-2.62-1.51-.4-.23-.2-.12-.66-.38-.63-.37-.13-.07-.96-.55-.39-.23-.08-.05-1.4-.81h-.01l-.11-.07-.37-.22h-.01l-.27-.16-.33-.19-.13-.08-.16-.09-.03-.01-.06-.04-.04-.02-1.29-.75-.39-.23-.68-.39-.58-.33-.11-.06-1-.58-1.72-1c-.01-.01-.02-.02-.03-.02l-1.32-.76-1.16-.67-.13-.07-2.63-1.52-.16-.09-.57-.33-.47-.27-.44-.26-.3-.17-.38-.22-.99-.58-.04-.02-2.59-1.5-.13-.08-.02-.01-.1-.06-.18-.1-.67-.38-.82-.47-.09-.05-.5-.29-.01-.01-.08-.05h-.01l-.12-.07h-.01l-.31-.18-.73-.42c-.01-.01-.01-.01-.02-.01l-1.86-1.08-1.02-.59-2.02-1.18-.09-.05-.04-.02-.05-.03-.2-.12s-.01 0-.02-.01l-.28-.16-.53-.3-.82-.48-.06-.04h-.01-.01l-.49-.29-.7-.4-.68-.39-1.22-.71-.1-.06h-.01l-.33-.19-.41-.24h-.01l-.43-.25-.99-.57-.08-.04-.03-.02v-53.14l.78-.45 1.59-.92.36-.21 3.38-1.95 1.06-.61.29-.17.13-.07 5.36-3.1h.01l.91-.52 1.05-.62 1.24-.72.13-.07.45-.26h.01l.87-.51 3.63-2.08.64-.38.94-.54.17-.09 1.66-.95.2-.12.13-.07.45-.26.38-.22.44-.26.67-.39.43-.26.52-.3.5-.28.59-.34 1.19-.68.69-.41.75-.43.65-.37h.01l.05-.03.43-.25.82-.47.13-.08 4.34-2.5.11-.06.08-.05.27-.16 3.77-2.18.13-.07 1.62-.94.55-.32 1.44-.83.51.3 1.09.63 2.86 1.65.5.29.13.07 2.46 1.43 2.6 1.5 3.5 2.02.14.08 1.27.73 7.29 4.21.14.08 1.43.83 1.5.85.87.5.69.4.83.48 1.07.62 1.19.69.98.56v.01l.14.07v.01l.69.39 3.28 1.89.54.32v.01l.26.14.66.39 1.46.84 1.67.96.14.08.91.52 5.2 3z"/><path fill="#EC6EF3" d="M17.672 33.584v61.95l-.13-.08-5.16-2.97h-.01l-.63-.37-1.67-.96v-53.12l.01-.01v-.06l.78-.45 1.59-.92.36-.21 3.38-1.95 1.06-.61.29-.17z"/><path fill="#F7F390" d="M26.372 28.554v71.99l-.13-.07-8.57-4.94-.13-.08v-61.8l.13-.07 5.36-3.1h.01l.91-.52 1.05-.62 1.24-.72z"/><path fill="#8BFB8D" d="M35.072 23.554v82.01l-.13-.08-.04-.02-.49-.28-2.18-1.26-1.04-.6-4.82-2.78-.13-.07v-71.85l.13-.07.45-.26h.01l.87-.51 3.63-2.08.64-.38.94-.54.17-.09 1.66-.95.2-.12z"/><path fill="#8BFDFB" d="M43.772 18.524v92.07l-.13-.08-.21-.12v-.01l-1.29-.74-3.31-1.91-3.13-1.8-.36-.21-.27-.16-.13-.08v-81.86l.13-.07.45-.26.38-.22.44-.26.67-.39.43-.26.52-.3.5-.28.59-.34 1.19-.68.69-.41.75-.43.65-.37h.01l.05-.03.43-.25.82-.47z"/><path fill="#EA696C" d="M52.342 13.574l-3.77 2.18-.27.16-.08.05-.11.06-4.34 2.5-.13.08v36.6a4.001 4.001 0 0 0-.539-.509c-.745-1.012-1.629-1.976-2.706-2.4-.666-.262-1.464-.419-2.304-.516-2.069-.914-4.847-.876-6.837-.657-2.854.314-6.419 2.127-7.57 4.936a.693.693 0 0 0-.558.461c-.079.202-.145.404-.218.606a.618.618 0 0 0-.358.434 44.819 44.819 0 0 0-.572 2.445c-.076.287-.158.573-.241.858a.557.557 0 0 0-.349.283c-.219.411-.413.833-.625 1.247a.558.558 0 0 0-.437.288c-.547.999-.98 2.003-1.328 3.049a.639.639 0 0 0-.42.542l-.127 1.517c-.003.036.009.064.012.097-.016.3-.032.603-.039.903.001.009-.004.016-.002.026.002.007.001.015.003.022-.012.605-.016 1.21.015 1.825.001.026.013.044.016.069a.614.614 0 0 0-.01.243c.22 1.291.604 2.401 1.295 3.516.289.466 1.054.298 1.068-.266a.64.64 0 0 0 .073.027c.75 2.926.467 5.794-.115 8.883-.145.29-.266.582-.365.888a.927.927 0 0 0-.751.287.861.861 0 0 0-.223.665 2.46 2.46 0 0 0-.079.295c-.062.295.084.624.398.701.238.059.489.129.747.201a.42.42 0 0 0 .193.054c.247.069.499.136.752.198.023.126.057.249.066.378.102.581.914.475 1.074 0 .017-.063.049-.117.068-.178h.007c.173.162.432.233.649.093.462-.298 1.021.032 1.502-.443.203-.2.289-.398.333-.601 1.348-1 2.563-2.343 3.602-3.605.602-.595 1.191-1.224 1.65-1.872a.556.556 0 0 0 .235-.191 821.726 821.726 0 0 0 4.017-5.81c.035-.03.072-.055.101-.096.062-.088.126-.174.189-.261.171-.153.346-.302.517-.455.177-.158.209-.34.162-.503a.449.449 0 0 0 .061-.348c.256.088.553.03.732-.279.446-.769.823-1.574 1.174-2.391.652-.643 1.072-1.327 1.444-2.251a.474.474 0 0 0-.067-.471c1.28-1.808 2.544-3.844 3.369-5.84.109-.263-.012-.497-.21-.643.492-.655.996-1.303 1.526-1.94v51.8l.13.08 2.58 1.47.39.23.96.55.13.07.63.37.66.38.2.12.4.23 2.62 1.51.13.08v-102.1l-.13.069zM25.7 59.331c.218-.958.518-1.727.929-2.387.652-.402 1.25-.919 1.833-1.404.351-.292.684-.627 1.056-.891a1.86 1.86 0 0 1 .271-.155c.186.188.486.279.737.138.222-.125.422-.185.613-.219a.5.5 0 0 0 .114.133l1.631 1.343c.106.098.211.198.314.3.003.014 0 .026.005.041l.011.03c.035.566.477 1.27.854 1.811.099.155.207.306.317.457l.083.122.004-.003c.033.043.061.088.094.13.016.021.037.028.055.045-.284 3.293-.461 6.6-.839 9.891-.436.535-.793 1.263-1.093 2.027-.071.14-.142.282-.207.422-.479.91-1.019 1.775-1.582 2.64a107.462 107.462 0 0 1-2.572-2.256.689.689 0 0 0-.596-.193c-.595-.989-1.073-2.059-1.467-3.134-.181-1.875-.896-3.738-1.041-5.611.048-1.092.227-2.181.476-3.277z"/><path fill="#EF6DB8" d="M61.172 14.354v100.46l-.13.08-4.9 2.82-.11-.06-.06-.03-1.14-.66-1.07-.62-.03-.01-.33-.19-.01-.01-.92-.53-.13-.08v-57.4c.01-.1.01-.19 0-.29v-44.26l.13-.07 1.62-.94.55-.32 1.44-.83.51.3 1.09.63 2.86 1.65.5.29.13.07z"/><path fill="#F7F390" d="M69.872 19.384v90.41l-.14.09-8.56 4.93-.13.08V14.284l.13.07 2.46 1.43 2.6 1.5 3.5 2.02z"/><path fill="#EC6EF3" d="M78.432 24.324l-7.29-4.21-1.27-.73-.14-.08v33.819a.483.483 0 0 0-.147-.034.8.8 0 0 0-.733.403l-.82-.079c-.581-.056-.822.733-.458 1.105.124.126.236.258.35.39a.543.543 0 0 0 .034.547c.465.763.929 1.866 1.773 2.287v52.142l.14-.09 8.56-4.93.14-.08v-80.38l-.139-.08z"/><path fill="#EC8C8C" d="M87.272 29.414v70.35l-.14.08-8.56 4.94-.14.08v-80.54l.14.08 1.43.83 1.5.85.87.5.69.4.83.48 1.07.62 1.19.69.98.56v.01z"/><path fill="#8BFDFB" d="M95.972 34.434v60.32l-.14.08-8.56 4.93-.14.08v-70.5l.14.07v.01l.69.39 3.28 1.89.54.32.26.15 3.79 2.18z"/><path fill="#F7F390" d="M102.212 38.034v53.12l-6.24 3.6-.14.08v-60.48l.14.08v.01l.91.52 5.2 3z"/><path fill="#7B8A69" d="M34.246 60.535a4.53 4.53 0 0 0-.196-.536 4.085 4.085 0 0 0-.141-.484.669.669 0 0 0 .182-.42c.063-1.211-.195-2.137-.892-3.136-.273-.391-.687-.373-.95-.156a2.337 2.337 0 0 0-.599-.296 1.673 1.673 0 0 0-.294-.063c-.027-.18-.114-.347-.291-.435a1.538 1.538 0 0 0-.947-.166l-.08-.01c-.259-.033-.428.076-.521.24-.073.048-.142.11-.211.17a.541.541 0 0 0-.391.174c-1.147 1.198-1.942 2.516-2.385 3.995a.622.622 0 0 0-.189.374l-.09.866c-.062.391-.109.79-.125 1.204a.65.65 0 0 0 .041.263c-.005.155.002.313.001.469a.55.55 0 0 0-.089.348c.085 1.175.246 2.316.469 3.454a.575.575 0 0 0 .048.254c.048.234.102.469.156.703.004.039-.002.072.008.113l.18.689a.569.569 0 0 0 .261.356l.57 1.351c-.137.225-.162.527.046.766a24.093 24.093 0 0 0 2.48 2.48c.437.377 1.243.028 1.037-.604l-.087-.267a.486.486 0 0 0 .182-.284c.053-.238.117-.469.175-.703.815-1.686 1.595-3.35 1.907-5.11.088-.075.132-.186.182-.345.097-.309.288-.58.345-.897a.622.622 0 0 0 .232-.46c.002-.495-.014-.986-.04-1.476.118-.915.068-2.238.016-2.421zM64.157 59.044a.323.323 0 0 0-.002-.031h-.002c-.009-.063-.013-.125-.023-.187a.556.556 0 0 0-.421-.466 4.469 4.469 0 0 0-.59-1.135c-.103-.479-.229-.953-.594-1.302-.244-.233-.508-.326-.78-.394a.753.753 0 0 0-.469-.477l-1.885-.688c-.407-.149-.699.065-.827.374-.264.068-.486.231-.564.515-.052.193-.094.387-.144.58a.636.636 0 0 0-.193.303 18.368 18.368 0 0 0-.342 1.539.478.478 0 0 0-.204.345l-.018.162h-.004l-.001.044a24.69 24.69 0 0 0-.157 1.718c-.02.044-.044.082-.054.136a14.452 14.452 0 0 0 .032 5.826.581.581 0 0 0 .26.392c.118 1.735 1.568 4.115 2.12 5.146.009.017.022.024.032.039.324.689.663 1.37 1.04 2.04.335.595 1.18.29 1.219-.33.021-.328.078-.646.146-.959.202-.023.393-.153.481-.429l.127-.399a.535.535 0 0 0 .245-.361c.076-.398.185-.778.28-1.166.438-1.146 1.259-2.119 1.334-3.437v-.084c.019-.051.043-.099.05-.155.312-2.41.262-4.765-.092-7.159zM85.421 61.872a6.807 6.807 0 0 0-.219-.842c.011-.04.029-.074.032-.12.083-1.21-.168-2.277-.724-3.219-.258-.545-.611-1.044-1.01-1.521-.053-.382-.104-.765-.158-1.147-.085-.606-.844-.514-1.095-.085a.491.491 0 0 0-.296-.091c-.609-.311-1.179-.462-1.891-.416-.033-.031-.056-.074-.094-.094l-.229-.117a.62.62 0 0 0-.722.093c-2.85 2.49-2.615 7.718-1.294 11.14.235 1.381.939 2.799 1.616 4.121.245.531.503 1.057.777 1.577.025.055.055.113.079.167.014.031.036.046.052.072.155.288.309.577.474.863.132.23.37.296.584.247.019.501.795.809 1.028.272.019-.044.034-.09.052-.134l.004.001.004-.022c.516-1.226.868-2.52 1.144-3.837 1.054-2.166 2.285-4.629 1.886-6.908z"/><path fill="#8BFB8D" d="M73.064 85.723a5.85 5.85 0 0 0-1.381-1.361 24.225 24.225 0 0 0-.456-1.679 54.813 54.813 0 0 0-.05-3.268.686.686 0 0 0-.127-.373 72.224 72.224 0 0 0-.151-3.633c1.791-1.258 2.008-3.437 2.039-5.571.038-2.593.174-4.889-1.587-6.874-.217-.244-.508-.266-.758-.166a.686.686 0 0 0-.555-.409c-.209-1.174-.663-2.411-.812-3.055-.335-1.45-.807-2.712-1.696-3.919-.407-.553-.861-1.049-1.29-1.563a69.357 69.357 0 0 0-1.222-1.879c-.474-.704-1.84-.273-1.471.62.027.065.061.124.09.187l-.009.005c.016.023.029.046.044.069.073.155.149.309.232.455-.379-.23-.78-.43-1.201-.602a.764.764 0 0 0-.25-.276c-3.91-2.602-8.827-.625-12.505 1.519-1.958 1.142-4.677 3.119-5.905 5.468a.529.529 0 0 0-.409.285 103.215 103.215 0 0 0-2.519 4.691 48.342 48.342 0 0 0-1.95 3.425.59.59 0 0 0 .019.6c-.283.626-.54 1.265-.81 1.897a20.762 20.762 0 0 0-2.541 4.14l-.876 1.237c-.042.059-.057.121-.076.182-.053.028-.107.052-.152.107l-4.548 5.666a.542.542 0 0 0-.612.137 4.314 4.314 0 0 0-.438.508 30.127 30.127 0 0 0-2.778 3.569c-.23.35.011.785.368.905 2.104.705 4.541.762 6.928.62.014.323.237.637.684.678 6.085.557 12.196.258 18.289-.142.298.232.664.393 1.072.428.542.046 1.084-.161 1.64-.128.366.022.707.136 1.08.129.953-.017 1.774-.446 2.71-.514 2.844.24 5.743.116 8.598.403.461.046.683-.327.672-.704.099.325.352.583.755.532l1.621-.206c.031-.004.06-.015.091-.021.333.014.667.056 1.006.149.744.208 1.301-.772.853-1.28.369-.14.582-.66.344-.988zm-38.691-3.522c-.458.196-.786.546-.843 1.139-.02.204.005.386.048.56a7.48 7.48 0 0 0-1.379.43c-.375.161-.386.516-.227.798-.508-.047-1.014-.107-1.523-.147-.64-.05-.779.986-.152 1.122.156.034.314.065.47.098a15.06 15.06 0 0 1-2.861-.391c.42-.6.859-1.186 1.321-1.751.228.094.501.083.658-.114l2.326-2.923a.574.574 0 0 0 .527-.243c.106-.154.224-.297.332-.449.016.5.681.782 1.042.278.042-.059.079-.121.121-.18a.87.87 0 0 0 .317.118c-.277.273-.236.803.002 1.1.019.023.044.045.064.068a.717.717 0 0 0-.243.487zm31.051-21.142c-.229 5.051-1.23 9.378-4.106 13.502a29.066 29.066 0 0 1-1.297-1.256l-.314-.362c.216-.245.287-.628.009-.95-.254-.293-.506-.587-.758-.883-.181-.212-.4-.257-.6-.201a50.93 50.93 0 0 0-2.482-6.66c.434-2.488.6-5.054.759-7.601a30.21 30.21 0 0 1 1.198-2.151c.135-.097.259-.206.398-.297 1.14-.11 2.33-.076 3.524-.09a.436.436 0 0 0 .167-.035c1.747 2.194 2.959 4.263 3.531 6.845-.013.044-.026.087-.029.139z"/><path fill="#EC6EF3" d="M92.674 64.221a.72.72 0 0 0-.153-.336l-.007-.131c-.047-.803-1.153-.9-1.377-.276a14.52 14.52 0 0 0-1.005-3.71c-.943-2.255-2.046-4.776-4.053-6.277-2.301-1.721-5.094-2.532-7.909-2.841-.562-.062-.79.585-.589 1.01-.15.2-.188.49-.068.701l-.037.005c-.252.053-.464.337-.451.593.017.243.024.486.019.73.001.342.281.599.614.614.765.033 1.253-.1 1.892-.514.041-.027.071-.062.103-.095l.03-.009c.664.083 1.38.079 2.024.126a.482.482 0 0 0 .271-.063c.398.17.784.36 1.151.585.615.49 1.205 1.028 1.798 1.586.427.401 1.172 0 1.125-.497.348.372.675.812.986 1.281a.488.488 0 0 0-.135.422l.016.099a.79.79 0 0 0-.457-.079c-.022-.104-.038-.209-.062-.314-.102-.452-.856-.362-.819.111.07 2.965.161 5.845.058 8.751-.171.607-.361 1.206-.546 1.807-1.113 1.963-2.322 3.923-3.436 5.914-.166-.114-.336-.224-.501-.341-.211-.149-.471-.133-.693-.025l-1.516-1.518a.72.72 0 0 0-.272-.175l-.234-.228a.64.64 0 0 0-.717-.152c-.68-.742-1.433-1.469-2.328-1.629-.451-.081-1.044.306-.835.835a16.31 16.31 0 0 0 1.27 2.497c-.406-.018-.766.497-.575.944.31.723.664 1.411 1.055 2.079-.09.227-.065.495.177.73.25.242.505.483.762.723.074.106.144.214.22.319.087.12.188.274.297.439a.632.632 0 0 0-.237.746c.229.7.599 1.37 1.032 2.021a14.37 14.37 0 0 1-.222.218l-1.032-.791c-.672-.515-1.582.651-.912 1.183.106.084.235.198.359.304-.55.153-.665.76-.47 1.219.07.164.161.315.262.458a26.296 26.296 0 0 0-1.037-.141c-.734-.081-1.061 1.118-.384 1.417.516.228 1.033.429 1.553.611.012.099.05.196.103.291l-.021.004c-.777.174-.65 1.218 0 1.451 1.745.624 3.27.55 4.986-.124.347-.136.704-.23 1.064-.31 2.305.288 5.219.277 7.239-.582.242-.103.341-.394.362-.63.006-.064-.005-.132-.002-.196a.57.57 0 0 0 .389-.435l.001-.011a.538.538 0 0 0 .308-.361.673.673 0 0 0 .3-.436.663.663 0 0 0 .373-.358c.271-.136.472-.425.407-.831a8.225 8.225 0 0 0-.45-1.698.688.688 0 0 0-.339-.381l-.188-.495c.17-1.416.134-2.669-.314-4.007.292-.554.534-1.123.739-1.705.067-.103.131-.205.186-.307.465-.855.825-1.785 1.073-2.724.305-1.16.399-2.322.362-3.49.18-1.403.12-2.798-.583-3.601z"/><path fill="#FAB8FF" d="M92.609 64.046c-.09-.242-.253-.473-.393-.667l-.016.016c-.387-.627-1.454-.126-1.048.606.033.06.077.112.114.169l-.018.048c-.042.033-.08.053-.123.092-.128.116-.082.32.052.405.068.043.114.1.177.146a.682.682 0 0 0 .218.183l.004.001c.07.062.115.138.177.204-.298-.199-.671-.319-1.124-.349 1.119-3.913-2.199-9.027-5.001-11.492-3.322-2.923-7.918-3.277-11.94-1.766-.108.04-.103.222.029.215 3.895-.203 7.868-.257 10.983 2.479s4.559 6.669 5.053 10.641a.455.455 0 0 0 .456.408c3.289 1.878.389 8.085-.577 10.766-.003.009.003.016.001.025-.258.559-.476 1.06-.605 1.461-.057.177.172.375.333.256 2.451-1.811 4.159-6.741 4.458-9.69.089-.859-.245-3.438-1.21-4.157z"/><path fill="#D7FFD7" d="M72.721 67.674c-.159-.954-.383-2.104-.887-2.934.281-.061.52-.306.417-.663-.191-.657-.783-1.342-1.498-1.42-.539-.059-1.025.26-1.13.739-.003-.914-.099-1.809-.328-2.666.405-1.747-1.305-4.112-2.326-5.418-1.152-1.474-3.06-3.318-5.06-3.285a.146.146 0 0 0-.102.247c.124.128.255.245.385.363-1.585-.784-3.313-1.295-5.083-1.127-2.14.204-5.348.66-6.765 2.464-.094.12.055.282.171.171 1.197-1.146 4.398-1.219 6.032-1.375 2.345-.224 4.325.594 6.222 1.908 3.603 2.496 5.859 6.475 6.038 10.883.014.341.545.448.621.084.078-.375.127-.745.165-1.114 1.753.874 1.807 4.065 1.787 5.666-.023 1.794-.484 3.414-.862 5.144-.09.413.419.601.657.277 1.639-2.232 1.992-5.262 1.546-7.944z"/><path fill="#FF9CA1" d="M44.754 56.299c-.174-.41-.474-.786-.778-1.107-.215-.227-.504-.2-.708-.044-.509-.652-1.229-1.229-2.042-1.726a6.492 6.492 0 0 0-.805-.632 4.66 4.66 0 0 0-.691-.517c-.868-.523-1.868-.835-2.84-1.097-.896-.242-1.543-.268-2.448-.186-.85.077-1.707.072-2.494.329-3.039.254-6.307 1.279-7.797 3.505-.15.224.154.541.379.379 2.742-1.969 7.024-2.642 10.342-2.286 3.558.382 5.861 2.301 8.255 4.759a.5.5 0 0 0 .56.114.325.325 0 0 0 .017.019c.367.359 1.034.102 1.027-.425-.002-.167.105-.329.122-.5a1.113 1.113 0 0 0-.099-.585z"/><path fill="#69C469" d="M72.078 86.81a3.534 3.534 0 0 0-.486-1.378c.196-.368.177-.748-.144-1.127l.033-.013c.811-.348.111-1.533-.694-1.187-6.679 2.866-14.67 3.173-21.843 3.641-.221.014-.442.025-.662.038-2.162-.002-4.33.023-6.48-.27-2.075-.283-4.45-.615-6.064-2.067-.119-.107-.203-.222-.306-.332-.514-1.417-.542-3.002-.261-4.575.47-.88.958-1.754 1.369-2.622 1.43-3.011 3.084-6.332 3.734-9.61.089-.448-.557-.795-.785-.331-.738 1.503-1.295 3.098-1.883 4.677a.443.443 0 0 0-.442.086c-.344.29-.601.74-.832 1.122a3.925 3.925 0 0 0-.366.73c-.021.023-.043.044-.056.077a.51.51 0 0 1-.014.035.552.552 0 0 0-.347.2 26.427 26.427 0 0 0-1.528 2.345c-2.135 2.593-4.684 4.837-6.494 7.778l-.005-.002c-.281-.132-.622.203-.413.448a.647.647 0 0 0-.341.259c-.075.109-.161.205-.24.309a.491.491 0 0 0-.219.282 8.922 8.922 0 0 1-.731.779c-.311.291-.186.748.125.967a6.57 6.57 0 0 0 1.714.863c.49.168.994-.466.693-.901.366.528 1.481.534 2.116.604.817.31 1.677.489 2.548.387a.671.671 0 0 0 .473-.315c.2.182.423.352.692.496.208.112.472-.12.337-.337-.041-.065-.068-.129-.105-.194 4.1.867 8.662.735 12.569.536 2.208.083 4.468.055 6.617-.336 1.895.672 3.908.334 5.904.294 2.266-.045 4.437.478 6.698.117.334-.053 1.161-.282 2.088-.628.094.233.293.43.575.446.409.023.823.003 1.232-.014.376-.016.577-.286.621-.579.06.018.115.039.182.053.12.025.261.029.392.001.458.318 1.122-.131 1.029-.752z"/><path fill="#69C469" d="M49.884 79.654c-1.926-.1-3.708.614-5.583-.321-1.958-.976-1.875-3.464-2.387-5.294-.057-.204-.395-.286-.493-.064-.822 1.87-.021 5.127 1.746 6.279 1.841 1.2 5.275 1.572 6.92-.106.183-.186.044-.482-.203-.494zM56.3 64.94c-1.028-3.831.245-6.817 1.782-10.233.069-.153-.089-.388-.262-.262-2.798 2.049-3.782 6.37-3.314 9.646.477 3.334 2.853 8.041 5.776 9.82.242.147.587-.099.493-.379-1.027-3.081-3.618-5.4-4.475-8.592z"/><path fill="#AA464B" d="M27.083 83.318c-1.574-.027-2.697-.314-3.524-1.785-.104-.185-.18-.392-.267-.592.15-.938.211-1.865.12-2.72a9.596 9.596 0 0 0-.286-1.446 7.266 7.266 0 0 0-.383-2.06.312.312 0 0 0-.424-.18c-.572-1.265-1.295-2.49-2.021-3.559-.35-.886-.613-1.802-.649-2.797-.089-2.475.995-4.575 2.069-6.724.103-.207-.156-.434-.332-.256-2.902 2.951-3.619 6.778-2.479 10.352-.226-.129-.562-.022-.563.309-.003.742.202 1.463.475 2.149.222.559.438 1.302 1.064 1.488.173.051.423-.062.452-.256.085-.583-.312-1.007-.553-1.518-.081-.171-.137-.35-.203-.526.311.629.675 1.246 1.103 1.84.145.202.385.286.617.279.201.497.371 1.004.51 1.521-.084 1.01-.112 2.035-.303 3.023a22.83 22.83 0 0 1-1.166 3.963c-.639.633-1.219 1.322-.659 2.166.173.261.56.366.823.209-.009.455.573.785.859.362.026.039.046.079.077.116.339.407.803.452 1.245.666a.565.565 0 0 0 .803-.429c.326.145.671.022.875-.215a.537.537 0 0 0 .443-.186c.314-.387.324-.777.179-1.154v-.002a.68.68 0 0 0 .354-.841c.713.161 1.452.08 2.068-.41.331-.262.042-.781-.324-.787zM30.648 73.981c-5.367-4.396-5.067-10.099-4.133-16.371.048-.319-.372-.558-.557-.235-1.789 3.123-1.987 7.607-.975 11.016.691 2.331 2.515 6.818 5.565 5.969.152-.043.236-.268.1-.379z"/><path fill="#C04BC9" d="M82.254 73.571c-.055-.348-.58-.381-.735-.096a.747.747 0 0 1-.229.263.418.418 0 0 0-.053-.19c-.417-.755-.938-1.447-1.377-2.189-.404-.682-.705-1.497-1.258-2.068-.253-.261-.807-.08-.767.318l.002.01a21.614 21.614 0 0 1-1.258-4.271 22.74 22.74 0 0 1-.354-5.209c.087-1.938.648-3.177 1.417-4.911.133-.301-.193-.567-.454-.35-3.252 2.7-2.636 8.07-1.826 11.742.669 3.033 2.357 8.611 6.145 9.072.356.043.618-.273.735-.559.252-.621.128-.834.012-1.562zM80.287 86.255c-2.387-.362-5.103-3.209-6.23-5.275-1.424-2.611-.743-5.444-.447-8.236.032-.305-.416-.326-.506-.069-.333.949-.648 1.855-.891 2.739-.35-.021-.733.188-.768.638-.004.05 0 .102-.003.152a.53.53 0 0 0-.546.223c-.243.377-.094 1.003.022 1.403.109.375.331.619.613.828.361 2.637 1.525 5.273 3.291 7.14.188.198.396.231.582.178.547.516 1.157.947 1.898 1.154a.405.405 0 0 0 .287-.024c.811.446 1.655.715 2.491.683.832-.032 1.118-1.396.207-1.534z"/><path opacity=".13" d="M102.082 37.964l-5.2-3-.91-.52v-.01l-.14-.08-3.79-2.18-.26-.15-.54-.32-3.28-1.89-.69-.39v-.01l-.14-.07v-.01l-.98-.56-1.19-.69-1.07-.62-.83-.48-3.06-1.75-1.43-.83-.14-.08-7.29-4.21-1.27-.72v-.01l-.14-.08-3.5-2.02-2.6-1.5-2.46-1.41-.13-.08-4.9-2.82-3.67 2.12-.13.07-8.57 4.94-.13.08-8.57 4.94-.13.07-8.57 4.94-.13.08-8.57 4.94-.13.07-7.46 4.3-.01.01v53.12l1.67.96.63.37h.01l5.16 2.97.13.08 8.57 4.94.13.07 4.82 2.78 1.04.6 2.18 1.26.49.28.04.02.13.08.27.16.36.21 3.13 1.8 3.31 1.91 1.29.74v.01l.21.12.13.08 2.5 1.42.08.05.39.23.96.55.13.07.63.37.66.38.2.12.4.23 2.62 1.51.13.08.92.53.01.01.33.19.03.01 1.07.62 1.14.66.06.03.11.06 4.9-2.82.13-.08 8.56-4.93.14-.09 8.56-4.93.14-.08 8.56-4.94.14-.08 8.56-4.93.14-.08 6.24-3.6v-53.12l-.13-.07zm-49.61 75.49l-.13-.07-8.57-4.94-.13-.07-.01-.01-8.56-4.94-.13-.07-8.57-4.94-.13-.08-8.57-4.94-.13-.07-5.61-3.24v-50.97l5.61-3.23.13-.08 8.57-4.94.13-.08 8.57-4.94.13-.07 8.57-4.94.13-.08 8.57-4.94.13-.07 3.67-2.12 4.9 2.83.13.07 8.56 4.94.14.08 8.56 4.93.14.08 8.56 4.94.14.08 8.56 4.93.14.08 4.38 2.53v50.97l-4.38 2.53-.14.08-8.56 4.93-.14.08-8.56 4.94-.14.08-8.56 4.93-.14.08-8.56 4.94-.13.07-4.9 2.83-3.67-2.12z"/><path d="M18.197 87.922c5.661 1.448 12.032 1.171 17.842 1.34a382.8 382.8 0 0 0 19.258.07c12.66-.268 25.351-1.083 37.918-2.672.92-.116.945-1.573 0-1.469-12.446 1.374-24.902 2.361-37.424 2.64-6.089.136-12.182.128-18.271-.023-6.301-.155-12.964-1.188-19.234-.539-.351.037-.478.554-.089.653z"/><path d="M23.525 87.701a76.718 76.718 0 0 0 11.644-12.19c3.457-4.53 5.291-9.743 8.141-14.607 3.043-5.193 8.344-9.325 14.576-9.348 3.135-.011 6.279 1.049 8.512 3.302 2.43 2.452 2.894 5.187 3.228 8.464.057.558.823.715 1.005.136 1.543-4.895-2.628-10.305-6.872-12.21-5.36-2.407-11.644-1.062-16.102 2.558-5.469 4.44-7.209 10.944-10.623 16.809-3.722 6.394-9.094 11.185-13.94 16.655-.263.297.132.681.431.431z"/><path d="M70.453 62.025c1.851 2.343 2.048 4.926 2.034 7.815-.014 3.013-.782 4.826-2.99 6.832-.394.358.018 1.038.517.888 2.976-.898 3.73-4.585 3.762-7.3.033-2.863.164-7.346-2.897-8.787-.373-.176-.675.238-.426.552z"/><path d="M70.41 76.661c-.113 1.747.262 3.519.519 5.244.293 1.961.448 3.997 1.001 5.9.177.609 1.148.51 1.128-.153-.053-1.76-.457-3.511-.746-5.246-.325-1.949-.504-3.992-1.234-5.836-.14-.351-.642-.308-.668.091zM57.932 54.105c-2.217 2.783-2.541 6.65-1.988 10.056.337 2.076 1.034 4.063 1.936 5.958.84 1.763 1.715 2.71 2.945 4.086.11.123.319.177.475.126l.238-.079c.365-.121.444-.743 0-.821-.738-.13-1.854-2.163-2.146-2.668-.995-1.722-1.704-3.663-2.162-5.595-.908-3.833-.235-7.236 1.047-10.86.068-.19-.216-.364-.345-.203z"/><path d="M57.863 54.674c2.398.119 4.364.626 5.554 2.938.885 1.719 1.005 3.884.929 5.776-.15 3.761-1.504 7.118-3.597 10.203-.365.537.483 1 .857.501 2.964-3.96 4.405-9.238 3.582-14.148-.483-2.879-3.855-8.337-7.427-5.649-.158.119-.112.369.102.379z"/><path d="M57.77 55.011c.239-.086.382-.198.6-.332.226-.138.403-.162.554-.384.096-.141-.006-.319-.149-.367-.543-.184-1.164.465-1.138.982.002.063.065.126.133.101zM62.971 56.295c.395-.213.71-.492 1.182-.495.556-.003 1.034.365 1.216.896.324.949-.254 1.675-.779 2.394-.317.434.33.798.681.525 1.127-.876 1.455-2.735.507-3.854-.864-1.021-2.435-.953-3.229.111-.197.265.174.557.422.423zM51.448 55.85c-1.275-.127-1.758 1.808-1.401 2.73.444 1.145 1.777 1.606 2.796.895 1.065-.742 1.156-2.422.356-3.39-.577-.698-2.315-1.059-2.503.191-.046.309.267.505.516.3.582-.478 1.174-.474 1.581.245.426.753.262 1.954-.665 2.236-.864.262-1.532-.478-1.553-1.308-.021-.842.574-1.102.991-1.694.066-.093-.025-.196-.118-.205z"/><path d="M52.342 56.662c-.303-.395-.773-.488-1.173-.151-.477.402-.627 1.205-.375 1.763.211.467.678.795 1.2.783.71-.016 1.116-.584 1.181-1.24.049-.503-.003-1.09-.377-1.471-.474-.482-1.201-.407-1.725-.057-1.037.693-1.317 2.425-.07 3.067 1.317.678 2.329-.817 1.993-2.001-.152-.534-.526-1.031-1.081-1.185-.589-.163-1.174.109-1.456.644-.516.978.101 2.716 1.375 2.608 1.144-.097 1.587-2.047.456-2.493-.628-.248-1.344.204-1.353.893-.008.611.625 1.205 1.23.885.59-.312.474-1.209-.019-1.547-.615-.422-1.4.298-.989.933.289.446 1.056.296 1.041-.282l-.002-.078-.17.411a9.37 9.37 0 0 0-.104.072l-.466-.061-.014-.386.423-.175c-.195-.002-.08.39-.132.513-.061.142.046.139-.06.087-.191-.095-.284-.613-.177-.785.243-.388.722 1.019.092.911-.355-.061-.242-.568-.123-.765.071-.117.195-.277.326-.321.152-.052.111-.102.198.035.053.083.05.606-.049.614-.322.026-.069-.704-.095-.721.288.188.719-.208.495-.5zM63.816 56.442c-.006.361.222.627.356.95.146.352.205.73.339 1.084.128.335.622.586.901.238.576-.717.758-1.706.168-2.485-.488-.643-1.558-1.031-2.244-.498-.357.277-.011.736.323.78.402.053.768-.072 1.076.288.291.341.232.854-.085 1.152l.92.381c.058-.721-.459-2.108-1.255-2.271-.251-.051-.494.111-.499.381zM42.556 72.074c-1.527 2.433-.402 5.932 1.903 7.456 1.115.737 2.57 1.112 3.899.878 1.677-.296 2.523-1.263 3.53-2.525.071-.089-.04-.207-.127-.127-1.563 1.446-4.372 1.626-6.221.764-2.654-1.237-3.109-3.686-2.697-6.326.025-.168-.187-.28-.287-.12zM29.651 54.427c-4.927 2.16-4.929 8.234-3.755 12.684.588 2.23 1.475 4.834 3.463 6.226.963.674 1.997.959 2.573-.256.197-.415-.347-.941-.687-.53-.553.669-2.275-1.018-2.553-1.401-.456-.628-.744-1.212-1.037-1.931a20.436 20.436 0 0 1-1.318-5.045c-.48-3.691.463-7.113 3.505-9.423.191-.146.032-.422-.191-.324z"/><path d="M29.535 54.905c4.379.496 4.93 5.913 4.364 9.412-.494 3.051-2.08 5.671-2.94 8.594-.12.407.435.602.657.277 2.521-3.698 4.19-8.942 3.323-13.412-.466-2.4-2.379-6.566-5.484-5.169-.163.072-.057.282.08.298zM40.222 57.12c-.408-1.047-1.7-.356-1.955.444-.333 1.04.776 2.064 1.776 1.557.987-.5 1.021-2.093.318-2.838-.801-.848-2.131-.517-2.467.586-.309 1.016.139 2.323 1.373 2.28 1.086-.037 2.02-1.452 1.42-2.435-.679-1.114-2.219-.562-2.67.442-.442.984.146 2.395 1.365 2.276 1.307-.128 1.828-2.038.895-2.899-.441-.407-1.166-.478-1.627-.067-.469.417-.508 1.087-.265 1.628.219.489.933.298 1.071-.14.029-.091.133-.397.09-.477-.117-.219-.164.105-.187.162-.043.105.006.29-.1.37.018-.013.054.076.022.002-.119-.276.168-.335.24-.511.004-.035-.021-.054-.077-.057a.647.647 0 0 1-.109.214.165.165 0 0 1-.154.077c.087.01.024-.026.017-.161a.77.77 0 0 1 .045-.332c.058-.121-.001-.07.042-.054.119.043.151.183.172.295a.969.969 0 0 1-.018.356c-.013.07-.027.132.026.089-.08.066-.03-.177-.032-.168.033-.129.229-.236.356-.206.237.054.537-.168.433-.433zM26.704 56.805l.009-.002c.133-.026.23-.148.269-.269l.014-.042c.07-.217-.053-.406-.216-.53-.678-.518-1.467.51-1.636 1.081-.235.792.386 1.58 1.243 1.338.743-.21 1.254-1.155 1.032-1.89-.255-.84-1.308-1.146-1.902-.469-.566.646-.058 1.6.76 1.63.751.028 1.425-.775 1.307-1.507-.14-.871-1.175-.879-1.729-.405-.525.449-.864 1.53-.071 1.904.221.104.515.071.641-.168.097-.184.118-.377.192-.564.001-.003.108-.188.108-.184l-.459-.475a.642.642 0 0 0-.116.359c.059-.236-.174.545-.186.46l.444.277a.795.795 0 0 1 .039-.167c.058-.097.081-.224.158-.314.077-.085-.014-.041.099-.063zM19.72 87.292c-.121-.91-.456-1.699.019-2.588.33-.618 1.104-.871 1.297-1.521.057-.193-.069-.389-.254-.447-.91-.284-1.725.983-2.009 1.694-.374.938-.393 2.36.42 3.08.176.155.566.071.527-.218z"/><path d="M20.891 83.04c.823-2.717 1.058-6.879.028-9.557-.081-.209-.45-.278-.497 0-.244 1.449-.062 2.943-.06 4.409.002 1.685-.209 3.38-.123 5.059.019.371.541.456.652.089z"/><path d="M20.879 76.469c-1.91-3.386-3.235-6.698-1.982-10.624.577-1.809 1.753-3.184 2.742-4.766.835-1.336 1.135-2.598 1.612-4.072 1.383-4.279 6.754-5.678 10.811-5.755 4.36-.082 8.244 1.848 10.382 5.691.392.705 1.394.086 1.066-.623-1.745-3.772-5.642-5.976-9.694-6.324-4.038-.346-9.807.781-12.494 4.129-1.401 1.746-1.444 4.094-2.535 6.009-1.106 1.941-2.545 3.542-3.165 5.738-1.029 3.645-.377 8.512 2.625 11.085.337.289.866-.072.632-.488zM67.724 54.455c4.761-2.888 10.66-4.791 16.02-2.088 5.3 2.673 6.545 7.639 7.103 13.083.032.313.421.364.537.073 2.283-5.734-2.1-12.231-7.246-14.569-4.85-2.203-13.528-1.671-16.953 2.961-.243.327.221.733.539.54z"/><path d="M91.212 62.376c2.31 1.54 2.213 5.226 1.824 7.696-.409 2.592-1.601 4.681-2.976 6.867-.305.485.387 1.005.785.606 2.475-2.476 3.646-6.27 3.613-9.722-.02-2.131-.346-5.892-3.066-6.117-.379-.031-.451.489-.18.67z"/><path d="M90.363 77.073c.198 1.475.807 2.876 1.109 4.336.344 1.664.334 3.323.546 4.995.053.417.718.615.813.11.558-2.961-.045-7.342-1.94-9.75-.222-.282-.564.043-.528.309zM72.139 55.678c-1.101.322-1.454 1.732-.93 2.68.581 1.05 2.049 1.366 2.954.529.838-.775.781-2.11 0-2.898-.381-.384-.928-.665-1.476-.676-.504-.01-1.107.336-.894.915.102.278.419.375.646.171.851-.764 2.243 1.371.896 2.016-.607.29-1.323-.06-1.537-.685-.224-.655.155-1.208.546-1.7.122-.153.016-.417-.205-.352z"/><path d="M73.404 57.218c.002-.325.01-.53-.275-.749a1 1 0 0 0-.907-.152c-.756.241-.965 1.187-.594 1.823.362.62 1.161.921 1.843.71.787-.243 1.047-1.125.787-1.846-.246-.683-.885-1.368-1.673-1.228-.694.124-1.119.81-1.124 1.486-.006.773.508 1.493 1.29 1.619.758.121 1.52-.454 1.528-1.243.01-.927-1.011-1.545-1.857-1.547-.438-.001-.851.258-.974.692-.145.51.175.872.619 1.05.353.141.712-.158.822-.467a.584.584 0 0 0-.043-.488 2.883 2.883 0 0 0-.129-.163c-.435.507-.46.791-.076.851.193.122.31.141.301-.086 0 .001-.067-.298-.062-.291.047-.07.034-.082-.038-.037-.113.007-.121.043-.025.11a.962.962 0 0 1 .136.267c.005.065.033.06.085-.014-.075.013-.248-.04-.279-.117-.074-.184.162.063.107-.034.141.252.536.138.538-.146zM79.058 53.835c-3.593 1.397-3.113 7.034-2.669 10.068.449 3.071 1.973 9.609 6 9.762.186.007.313-.26.16-.387-1.233-1.025-2.346-1.864-3.091-3.332-.807-1.59-1.369-3.309-1.745-5.049-.753-3.485-1.246-8 1.595-10.632.181-.166-.006-.524-.25-.43z"/><path d="M78.954 54.39c2.645-.007 4.548.767 5.52 3.427.572 1.564.517 3.447.433 5.083-.194 3.776-1.584 6.839-2.966 10.293-.124.309.36.59.568.331 3.003-3.753 4.213-9.736 3.492-14.443-.498-3.249-3.552-6.995-7.176-5.164-.229.116-.113.474.129.473z"/><path d="M84.022 55.612c.894-.492 2.038-.404 2.5.624.418.931-.137 1.822-.979 2.24-.519.258-.064 1.002.45.769 1.387-.627 2.021-2.361 1.143-3.669-.765-1.141-2.507-1.377-3.344-.194-.102.145.092.306.23.23z"/><path d="M85.856 55.411c-.593.047-.797.602-.75 1.14.057.66.397 1.263.89 1.695.288.252.813.185.906-.239.116-.532.219-1.866-.647-1.866-.815-.001-.931 1.252-.87 1.825l.149-.36c-.179.173-.225.316-.241.559-.039.595.834.665 1.003.136.237-.741.494-1.688.251-2.458-.158-.5-.772-1.232-1.36-.87-.193.119-.319.375-.245.601.126.383.48.7.733 1.007l.648-.84c-.4-.277-1.066-.978-1.597-.651-.536.331-.183 1.012.155 1.329.348.326 1.083.007.875-.509-.14-.348-.329-.609-.672-.78a.523.523 0 0 0-.709.709l.674 1.311c.192.373.663.279.874 0 .3-.395.434-.836.457-1.327l-.633.482c.242.1.324.322.32.563l.938-.254c-.442-.962-1.366-1.461-2.396-1.497a.498.498 0 0 0-.475.362l-.047.171c-.173.628.847.892.964.266l.033-.175-.475.362c.688-.02 1.245.416 1.526 1.02.22.473.932.213.938-.254.01-.727-.402-1.261-1.06-1.528-.319-.129-.62.192-.633.482a2650265770164982 2650265770164982 0 0 0 .543.816l-.653-1.323-.709.709c.09.024.152.078.186.164l.875-.509c-.127-.218-.167-.216-.121.007l-.368.368.076-.016-.406-.053c.345.172.668.457.982.68.534.379.997-.405.648-.84-.109-.135-.433-.461-.462-.534l-.245.601.04-.028-.409.054c.591.086.05 1.806-.044 2.111l1.003.136.006-.117-.149.361c.209-.208.218-.332.212-.612-.003-.15-.039-.654.124-.724h-.505l.105.074-.231-.301c.105.293.065.58-.019.873l.906-.239c-.418-.349-.865-1-.623-1.574.084-.207-.009-.518-.286-.496zM25.874 56.033c-.579-.097-.815.918-.768 1.335.061.532.72 1.439 1.318.988.198-.15.176-.434-.068-.521-.192-.068-.338-.091-.46-.272a1.141 1.141 0 0 1-.185-.693c.024-.276.27-.466.239-.735-.003-.043-.027-.094-.076-.102zM39.5 57.808c.297 0 .297-.461 0-.461-.296 0-.297.461 0 .461zM52.805 58.338l.077-.001c.577-.004-.012-.834-.212-.37l-.033.077c-.057.13.006.295.168.294z"/><path d="M52.828 58.076c-.035.185-.205.282-.239.474-.031.176.047.31.213.375l.077.03c.134.052.284-.015.384-.101a.744.744 0 0 0 .248-.685c-.045-.35-.604-.517-.683-.093zM64.713 58.825l.03.153c.06.311.51.172.467-.129l-.022-.155c-.044-.307-.536-.183-.475.131zM85.477 57.612c.342 0 .342-.531 0-.531s-.342.531 0 .531zM26.665 87.589c-1.564-1.406 1.078-3.526 1.82-4.56.144-.201-.132-.439-.326-.326-1.134.663-2.187 1.915-2.509 3.21-.178.715-.181 2.286.936 1.976.125-.034.182-.208.079-.3z"/><path d="M25.852 86.552a.416.416 0 0 0 .236-.087c.096-.069.19-.209.137-.336-.158-.376-.557-.466-.87-.177-.39.36-.48 1.023-.415 1.516.064.484.747.661.904.122.124-.424.133-.823.058-1.257-.054-.313-.531-.436-.732-.193-.379.455-.512.949-.393 1.532.095.468.728.383.865 0 .154-.43.273-1.147-.208-1.414-.216-.119-.446-.089-.647.04a.865.865 0 0 0-.242.244c-.037.052-.161.245-.113.215l.701.402-.056-.577c-.03-.308-.395-.649-.709-.407-.483.372-1.051 1.018-.689 1.653.106.187.34.276.545.222a.645.645 0 0 0 .228-.107c.175-.124.204-.332.064-.497l-.056-.066.114.276c.019-.36.069-.505.364-.742l-.804-.333.068.577c.038.326.373.612.701.402a.93.93 0 0 0 .284-.264.45.45 0 0 0 .079-.142c.091-.138.044-.152-.139-.043l-.273-.21c.082.132-.032.404-.075.531h.865a.744.744 0 0 1 .148-.674l-.748-.31c.041.32.018.591-.085.896h.888c-.012-.086.013-.832.094-.841l-.257-.147.064.086.072-.273-.059.03c-.16.085-.097.377.091.353zM71.618 80.228c-.413 1.683.717 4.055 1.786 5.317 1.115 1.317 3.12 2.44 4.881 1.941.508-.144.356-.815-.117-.867-1.844-.204-3.268-.643-4.443-2.198a8.039 8.039 0 0 1-1.222-2.332c-.211-.646-.266-1.307-.606-1.898-.064-.111-.247-.091-.279.037z"/><path d="M72.111 85.079c.415.686.935 1.3 1.352 1.988.312.516 1.117.178.97-.409a3.314 3.314 0 0 0-.739-1.388l-.743.743 1.254 1.153.627-.813c-.418-.293-1.232-.929-1.613-.217-.327.611.372 1.303.802 1.631.465.354 1.074-.433.627-.813-.416-.355-.997-.947-1.584-.948-.722-.002-.85.755-.557 1.27.349.613 1.255.072.94-.549-.109-.215-.253-.347-.442-.49-.513-.389-1.116.441-.677.877.187.185.323.31.577.386.347.103.745-.253.615-.615-.091-.255-.206-.383-.402-.561l-.677.877.066.074.94-.549c-.395.19-.46.34-.197.45a7.053 7.053 0 0 1 .666.51l.628-.813c-.118-.089-.371-.304-.363-.476l-.151.365.056-.067-.365.151c-.096-.046-.098-.043-.005.008.068.04.135.082.202.124.133.085.263.176.392.268.481.343 1.052-.415.627-.813l-1.243-1.164c-.5-.468-1.178.232-.743.743.235.276.372.578.458.928l.97-.409c-.486-.738-1.005-1.47-1.718-2.003-.332-.248-.746.228-.55.551zM86.229 86.494c2.378 1.256 5.803-1.494 6.035-3.878.024-.243-.3-.271-.415-.112-.672.928-1.285 1.936-2.263 2.575-1.043.682-2.21.685-3.321 1.136-.111.045-.163.211-.036.279z"/><path d="M91.363 85.059c.052-.101.118-.192.199-.272.372-.33-.168-.855-.542-.542-.267.224-.401.486-.506.814-.168.526.479.764.836.486l.896-.698-.707-.707c-.292.366-.584.726-.805 1.141l.929.543c.166-.374.283-.696.143-1.102-.044-.126-.193-.25-.336-.191-.371.154-.569.391-.735.75-.286.618.603 1.165.929.543.176-.335.345-.679.583-.977.406-.508-.199-1.103-.707-.707l-.896.698.854.354c-.019-.195.022-.318.125-.483l-.714-.193c.003.113-.012.224-.045.332-.071.299.336.482.499.211z"/><path d="M92.092 84.176c.593 0 .594-.922 0-.922-.593 0-.594.922 0 .922zM19.722 83.373c-1.155 1.494.11 3.206 1.586 3.839.942.404 4.684 1.254 4.409-.79-.044-.331-.426-.568-.7-.29-.447.453-.786.543-1.436.518a6.804 6.804 0 0 1-1.733-.278c-1.238-.392-2.046-1.401-1.656-2.724.074-.254-.292-.505-.47-.275z"/><path d="M21.149 86.751c-.222-.379-.583-.638-.911-.924-.361-.314-1.008-.021-.849.494l.174.564c.195.631 1.189.361.992-.273-.103-.33-.213-.658-.321-.986-.173-.527-1.001-.457-.994.135.007.625.181 1.212.544 1.722.28.393.925.273.936-.254a1.104 1.104 0 0 0-.4-.907c-.497-.411-1.214.302-.713.713.091.036.127.1.108.194l.936-.254c-.27-.375-.404-.751-.4-1.215l-.994.135c.101.33.199.662.306.991l.992-.273-.186-.561-.849.494c.368.308.707.643 1.157.819.352.139.643-.322.472-.614zM57.681 55.479c.29-.256.637-.528.998-.668.281-.11.609-.086.832-.303.044-.043.049-.129 0-.171-.317-.27-.772-.077-1.104.09-.441.222-.716.501-.889.958-.037.098.097.152.163.094zM19.191 73.952c.174.705.741 1.185 1.407 1.421.316.112.462-.403.139-.505-.566-.178-.964-.545-1.31-1.015-.084-.114-.273-.051-.236.099zM67.276 78.293c.8.087 1.872-.217 2.579-.582.656-.338 1.672-.836 1.798-1.641.024-.151-.06-.293-.226-.297-.736-.016-1.356.637-1.964.991-.366.213-.686.467-1.04.695-.387.249-.826.372-1.196.652-.08.06-.051.172.049.182z"/><path d="M69.698 77.475c.333.25.666.642 1.068.758.119.034.209-.077.187-.187-.09-.469-.685-.79-1.102-.934-.23-.081-.319.238-.153.363zM89.131 77.911c.281.014.488.088.771.005.253-.075.523-.175.748-.313.404-.249.939-.715.789-1.236-.059-.204-.251-.285-.447-.254-.386.062-.622.527-.88.793-.283.291-.661.656-1.024.845-.08.042-.037.156.043.16z"/><path fill="#FFF" d="M65.169 56.109c-.165-.147-.26-.205-.481-.203-.191.002-.279.168-.256.336.036.267.085.426.323.567.151.089.316.023.412-.108l.067-.091c.101-.14.061-.389-.065-.501zM52.289 56.35c-.202-.139-.439.09-.39.3.048.207.086.268.242.413.194.18.595.005.483-.281-.087-.221-.14-.297-.335-.432zM73.219 56.407a.793.793 0 0 0-.503-.102c-.124.009-.22.171-.111.267.233.204.195.393.53.421.094.008.161-.069.192-.146l.035-.088c.049-.124-.032-.291-.143-.352zM86.131 55.638a1.612 1.612 0 0 0-.32-.136c-.235-.076-.427.251-.243.418.165.149.214.262.437.307.14.028.274-.061.277-.211l.002-.11a.308.308 0 0 0-.153-.268zM39.489 56.729c-.169-.047-.322.146-.229.298.13.213.184.393.438.462.11.03.208-.037.245-.139.12-.335-.158-.539-.454-.621zM26.854 56.316l-.064-.075c-.044-.051-.147-.067-.204-.026l-.077.057c-.114.083-.201.256-.102.39l.076.103c.071.096.183.114.276.036l.096-.081c.123-.106.092-.296-.001-.404z"/></svg>