<?xml version="1.0" encoding="utf-8"?>
<!-- Generator: Adobe Illustrator 21.0.2, SVG Export Plug-In . SVG Version: 6.00 Build 0)  -->
<svg version="1.1" xmlns="http://www.w3.org/2000/svg" xmlns:xlink="http://www.w3.org/1999/xlink" x="0px" y="0px"
	 viewBox="0 0 110.979 128.417" enable-background="new 0 0 110.979 128.417" xml:space="preserve">
<g id="Layer_1">
</g>
<g id="Layer_4">
</g>
<g id="border">
	<g id="Layer_63_18_">
		<polygon fill="#7FFFDF" points="110.938,96.253 55.512,128.253 0.088,96.253 0.088,32.253 55.512,0.253 110.938,32.253 		"/>
	</g>
	<path fill="#FFFFFF" d="M102.082,37.964v53.14l-0.01,0.01l-0.02,0.01l-0.41,0.24l-0.37,0.21l-0.62,0.35l-4.15,2.39l-0.01,0.01
		l-0.13,0.08l-0.06,0.03l-0.33,0.19l-0.14,0.08l-0.08,0.05l-0.8,0.45l-0.1,0.06l-0.48,0.28l-1.13,0.65l-0.85,0.49l-0.74,0.43
		l-0.24,0.13l-0.13,0.05l-0.11,0.07l-1,0.57l-0.03,0.02l-2,1.15l-0.51,0.29l-0.14,0.08l-0.03,0.02l-0.14,0.08l-0.01,0.01l-0.04,0.02
		l-0.14,0.08l-0.86,0.49l-0.04,0.03l-0.07,0.04l-1.16,0.67l-0.45,0.26l-0.02,0.02h-0.01l-0.42,0.24l-1.12,0.65l-0.87,0.52
		l-1.18,0.67l-0.08,0.05l-0.12,0.07l-0.04,0.03l-0.04,0.02l-0.02,0.01l-0.1,0.06l-0.29,0.17l-0.03,0.01l-0.16,0.09v0.01l-0.4,0.23
		l-0.27,0.16l-0.11,0.06l-0.18,0.09l-0.02,0.02l-0.04,0.02l-0.46,0.26l-0.14,0.08l-0.09,0.05l-0.06,0.04l-0.24,0.14l-0.02,0.01
		l-0.29,0.17l-0.15,0.08l-0.22,0.13l-0.24,0.14h-0.01l-0.42,0.25l-0.29,0.17l-0.03,0.02l-0.3,0.17l-1.36,0.79l-0.5,0.29l-0.25,0.14
		l-0.7,0.4l-0.03,0.02h-0.01l-0.31,0.18l-0.05,0.03l-0.24,0.15l-0.84,0.48l-0.63,0.36l-0.06,0.03l-0.5,0.29
		c-0.01,0.01-0.01,0.01-0.01,0l-0.53,0.31l-0.18,0.11l-0.11,0.06l-0.03,0.02l-0.73,0.42l-0.05,0.03l-0.05,0.03l-0.03,0.01
		c0,0.01-0.01,0.01-0.01,0.01l-0.02,0.02l-0.25,0.14l-1,0.58l-0.17,0.1l-0.04,0.02l-0.38,0.22l-1.42,0.82l-0.36,0.21l-0.09,0.05
		l-0.24,0.14l-0.8,0.46l-0.26,0.15l-0.28,0.16l-0.01,0.01l-0.2,0.12l-0.23,0.13l-0.35,0.2l-0.83,0.48l-0.01,0.01l-0.09,0.05
		l-0.66,0.38l-0.13,0.07l-0.53,0.31l-0.02,0.01l-0.79,0.46l-0.61,0.35h-0.01l-1.41,0.81l-0.02,0.02l-0.25,0.14l-0.56,0.32h-0.01
		l-0.13,0.08l-0.19,0.11l-0.27,0.16h-0.01l-0.2,0.12l-0.06-0.03l-1.14-0.66l-1.07-0.62l-0.03-0.01l-0.33-0.19l-0.01-0.01l-0.92-0.53
		l-0.13-0.08l-2.62-1.51l-0.4-0.23l-0.2-0.12l-0.66-0.38l-0.63-0.37l-0.13-0.07l-0.96-0.55l-0.39-0.23l-0.08-0.05l-1.4-0.81h-0.01
		l-0.11-0.07l-0.37-0.22h-0.01l-0.27-0.16l-0.33-0.19l-0.13-0.08l-0.16-0.09l-0.03-0.01l-0.06-0.04l-0.04-0.02l-1.29-0.75
		l-0.39-0.23l-0.68-0.39l-0.58-0.33l-0.11-0.06l-1-0.58l-1.72-1c-0.01-0.01-0.02-0.02-0.03-0.02l-1.32-0.76l-1.16-0.67l-0.13-0.07
		l-2.63-1.52l-0.16-0.09l-0.57-0.33l-0.47-0.27l-0.44-0.26l-0.3-0.17l-0.38-0.22l-0.99-0.58l-0.04-0.02l-2.59-1.5l-0.13-0.08
		l-0.02-0.01l-0.1-0.06l-0.18-0.1l-0.67-0.38l-0.82-0.47l-0.09-0.05l-0.5-0.29l-0.01-0.01l-0.08-0.05h-0.01l-0.12-0.07h-0.01
		l-0.31-0.18l-0.73-0.42c-0.01-0.01-0.01-0.01-0.02-0.01l-1.86-1.08l-1.02-0.59l-2.02-1.18l-0.09-0.05l-0.04-0.02l-0.05-0.03
		l-0.2-0.12c0,0-0.01,0-0.02-0.01l-0.28-0.16l-0.53-0.3l-0.82-0.48l-0.06-0.04h-0.01c0,0,0,0-0.01,0l-0.49-0.29l-0.7-0.4l-0.68-0.39
		l-1.22-0.71l-0.1-0.06h-0.01l-0.33-0.19l-0.41-0.24h-0.01l-0.43-0.25l-0.99-0.57l-0.08-0.04l-0.03-0.02v-53.14l0.78-0.45l1.59-0.92
		l0.36-0.21l3.38-1.95l1.06-0.61l0.29-0.17l0.13-0.07l5.36-3.1h0.01l0.91-0.52l1.05-0.62l1.24-0.72l0.13-0.07l0.45-0.26h0.01
		l0.87-0.51l3.63-2.08l0.64-0.38l0.94-0.54l0.17-0.09l1.66-0.95l0.2-0.12l0.13-0.07l0.45-0.26l0.38-0.22l0.44-0.26l0.67-0.39
		l0.43-0.26l0.52-0.3l0.5-0.28l0.59-0.34l1.19-0.68l0.69-0.41l0.75-0.43l0.65-0.37h0.01l0.05-0.03l0.43-0.25l0.82-0.47l0.13-0.08
		l4.34-2.5l0.11-0.06l0.08-0.05l0.27-0.16l3.77-2.18l0.13-0.07l1.62-0.94l0.55-0.32l1.44-0.83l0.51,0.3l1.09,0.63l2.86,1.65
		l0.5,0.29l0.13,0.07l2.46,1.43l2.6,1.5l3.5,2.02l0.14,0.08l1.27,0.73l7.29,4.21l0.14,0.08l1.43,0.83l1.5,0.85l0.87,0.5l0.69,0.4
		l0.83,0.48l1.07,0.62l1.19,0.69l0.98,0.56v0.01l0.14,0.07v0.01l0.69,0.39l3.28,1.89l0.54,0.32v0.01l0.26,0.14l0.66,0.39l1.46,0.84
		l1.67,0.96l0.14,0.08l0.91,0.52L102.082,37.964z"/>
	<polygon fill="#EC6EF3" points="17.672,33.584 17.672,95.534 17.542,95.454 12.382,92.484 12.372,92.484 11.742,92.114 
		10.072,91.154 10.072,38.034 10.082,38.024 10.082,37.964 10.862,37.514 12.452,36.594 12.812,36.384 16.192,34.434 17.252,33.824 
		17.542,33.654 	"/>
	<polygon fill="#F7F390" points="26.372,28.554 26.372,100.544 26.242,100.474 17.672,95.534 17.542,95.454 17.542,33.654 
		17.672,33.584 23.032,30.484 23.042,30.484 23.952,29.964 25.002,29.344 26.242,28.624 	"/>
	<polygon fill="#8BFB8D" points="35.072,23.554 35.072,105.564 34.942,105.484 34.902,105.464 34.412,105.184 32.232,103.924 
		31.192,103.324 26.372,100.544 26.242,100.474 26.242,28.624 26.372,28.554 26.822,28.294 26.832,28.294 27.702,27.784 
		31.332,25.704 31.972,25.324 32.912,24.784 33.082,24.694 34.742,23.744 34.942,23.624 	"/>
	<polygon fill="#8BFDFB" points="43.772,18.524 43.772,110.594 43.642,110.514 43.432,110.394 43.432,110.384 42.142,109.644 
		38.832,107.734 35.702,105.934 35.342,105.724 35.072,105.564 34.942,105.484 34.942,23.624 35.072,23.554 35.522,23.294 
		35.902,23.074 36.342,22.814 37.012,22.424 37.442,22.164 37.962,21.864 38.462,21.584 39.052,21.244 40.242,20.564 40.932,20.154 
		41.682,19.724 42.332,19.354 42.342,19.354 42.392,19.324 42.822,19.074 43.642,18.604 	"/>
	<path fill="#EA696C" d="M52.342,13.574l-3.77,2.18l-0.27,0.16l-0.08,0.05l-0.11,0.06l-4.34,2.5l-0.13,0.08v36.6
		c-0.152-0.176-0.334-0.346-0.539-0.509c-0.745-1.012-1.629-1.976-2.706-2.4c-0.666-0.262-1.464-0.419-2.304-0.516
		c-2.069-0.914-4.847-0.876-6.837-0.657c-2.854,0.314-6.419,2.127-7.57,4.936c-0.228,0.032-0.446,0.174-0.558,0.461
		c-0.079,0.202-0.145,0.404-0.218,0.606c-0.161,0.068-0.297,0.205-0.358,0.434c-0.215,0.813-0.404,1.627-0.572,2.445
		c-0.076,0.287-0.158,0.573-0.241,0.858c-0.14,0.039-0.266,0.128-0.349,0.283c-0.219,0.411-0.413,0.833-0.625,1.247
		c-0.174,0.023-0.337,0.106-0.437,0.288c-0.547,0.999-0.98,2.003-1.328,3.049c-0.211,0.081-0.39,0.261-0.42,0.542
		c-0.042,0.506-0.085,1.011-0.127,1.517c-0.003,0.036,0.009,0.064,0.012,0.097c-0.016,0.3-0.032,0.603-0.039,0.903
		c0.001,0.009-0.004,0.016-0.002,0.026c0.002,0.007,0.001,0.015,0.003,0.022c-0.012,0.605-0.016,1.21,0.015,1.825
		c0.001,0.026,0.013,0.044,0.016,0.069c-0.018,0.076-0.024,0.157-0.01,0.243c0.22,1.291,0.604,2.401,1.295,3.516
		c0.289,0.466,1.054,0.298,1.068-0.266c0.024,0.01,0.048,0.02,0.073,0.027c0.75,2.926,0.467,5.794-0.115,8.883
		c-0.145,0.29-0.266,0.582-0.365,0.888c-0.272-0.019-0.554,0.073-0.751,0.287c-0.176,0.19-0.243,0.434-0.223,0.665
		c-0.028,0.081-0.053,0.173-0.079,0.295c-0.062,0.295,0.084,0.624,0.398,0.701c0.238,0.059,0.489,0.129,0.747,0.201
		c0.057,0.036,0.123,0.048,0.193,0.054c0.247,0.069,0.499,0.136,0.752,0.198c0.023,0.126,0.057,0.249,0.066,0.378
		c0.102,0.581,0.914,0.475,1.074,0c0.017-0.063,0.049-0.117,0.068-0.178c0.002,0,0.004,0,0.007,0
		c0.173,0.162,0.432,0.233,0.649,0.093c0.462-0.298,1.021,0.032,1.502-0.443c0.203-0.2,0.289-0.398,0.333-0.601
		c1.348-1,2.563-2.343,3.602-3.605c0.602-0.595,1.191-1.224,1.65-1.872c0.087-0.04,0.169-0.096,0.235-0.191
		c1.349-1.93,2.685-3.869,4.017-5.81c0.035-0.03,0.072-0.055,0.101-0.096c0.062-0.088,0.126-0.174,0.189-0.261
		c0.171-0.153,0.346-0.302,0.517-0.455c0.177-0.158,0.209-0.34,0.162-0.503c0.071-0.121,0.09-0.24,0.061-0.348
		c0.256,0.088,0.553,0.03,0.732-0.279c0.446-0.769,0.823-1.574,1.174-2.391c0.652-0.643,1.072-1.327,1.444-2.251
		c0.071-0.177,0.028-0.339-0.067-0.471c1.28-1.808,2.544-3.844,3.369-5.84c0.109-0.263-0.012-0.497-0.21-0.643
		c0.492-0.655,0.996-1.303,1.526-1.94v51.8l0.13,0.08l2.58,1.47l0.39,0.23l0.96,0.55l0.13,0.07l0.63,0.37l0.66,0.38l0.2,0.12
		l0.4,0.23l2.62,1.51l0.13,0.08v-102.1L52.342,13.574z M25.7,59.331c0.218-0.958,0.518-1.727,0.929-2.387
		c0.652-0.402,1.25-0.919,1.833-1.404c0.351-0.292,0.684-0.627,1.056-0.891c0.089-0.063,0.18-0.111,0.271-0.155
		c0.186,0.188,0.486,0.279,0.737,0.138c0.222-0.125,0.422-0.185,0.613-0.219c0.028,0.047,0.064,0.092,0.114,0.133
		c0.543,0.448,1.087,0.895,1.631,1.343c0.106,0.098,0.211,0.198,0.314,0.3c0.003,0.014,0,0.026,0.005,0.041
		c0.003,0.01,0.008,0.02,0.011,0.03c0.035,0.566,0.477,1.27,0.854,1.811c0.099,0.155,0.207,0.306,0.317,0.457
		c0.028,0.041,0.061,0.088,0.083,0.122c0.001-0.001,0.002-0.002,0.004-0.003c0.033,0.043,0.061,0.088,0.094,0.13
		c0.016,0.021,0.037,0.028,0.055,0.045c-0.284,3.293-0.461,6.6-0.839,9.891c-0.436,0.535-0.793,1.263-1.093,2.027
		c-0.071,0.14-0.142,0.282-0.207,0.422c-0.479,0.91-1.019,1.775-1.582,2.64c-0.865-0.742-1.729-1.485-2.572-2.256
		c-0.197-0.18-0.406-0.225-0.596-0.193c-0.595-0.989-1.073-2.059-1.467-3.134c-0.181-1.875-0.896-3.738-1.041-5.611
		C25.272,61.516,25.451,60.427,25.7,59.331z"/>
	<path fill="#EF6DB8" d="M61.172,14.354v100.46l-0.13,0.08l-4.9,2.82l-0.11-0.06l-0.06-0.03l-1.14-0.66l-1.07-0.62l-0.03-0.01
		l-0.33-0.19l-0.01-0.01l-0.92-0.53l-0.13-0.08v-57.4c0.01-0.1,0.01-0.19,0-0.29v-44.26l0.13-0.07l1.62-0.94l0.55-0.32l1.44-0.83
		l0.51,0.3l1.09,0.63l2.86,1.65l0.5,0.29L61.172,14.354z"/>
	<polygon fill="#F7F390" points="69.872,19.384 69.872,109.794 69.732,109.884 61.172,114.814 61.042,114.894 61.042,14.284 
		61.172,14.354 63.632,15.784 66.232,17.284 69.732,19.304 	"/>
	<path fill="#EC6EF3" d="M78.432,24.324l-7.29-4.21l-1.27-0.73l-0.14-0.08v33.819c-0.048-0.018-0.098-0.032-0.147-0.034
		c-0.334-0.014-0.588,0.162-0.733,0.403c-0.273-0.026-0.547-0.053-0.82-0.079c-0.581-0.056-0.822,0.733-0.458,1.105
		c0.124,0.126,0.236,0.258,0.35,0.39c-0.077,0.156-0.089,0.344,0.034,0.547c0.465,0.763,0.929,1.866,1.773,2.287v52.142l0.14-0.09
		l8.56-4.93l0.14-0.08v-80.38L78.432,24.324z"/>
	<polygon fill="#EC8C8C" points="87.272,29.414 87.272,99.764 87.132,99.844 78.572,104.784 78.432,104.864 78.432,24.324 
		78.572,24.404 80.002,25.234 81.502,26.084 82.372,26.584 83.062,26.984 83.892,27.464 84.962,28.084 86.152,28.774 87.132,29.334 
		87.132,29.344 	"/>
	<polygon fill="#8BFDFB" points="95.972,34.434 95.972,94.754 95.832,94.834 87.272,99.764 87.132,99.844 87.132,29.344 
		87.272,29.414 87.272,29.424 87.962,29.814 91.242,31.704 91.782,32.024 92.042,32.174 95.832,34.354 	"/>
	<polygon fill="#F7F390" points="102.212,38.034 102.212,91.154 95.972,94.754 95.832,94.834 95.832,34.354 95.972,34.434 
		95.972,34.444 96.882,34.964 102.082,37.964 	"/>
	<path fill="#7B8A69" d="M34.246,60.535c-0.05-0.176-0.119-0.356-0.196-0.536c-0.035-0.167-0.087-0.326-0.141-0.484
		c0.102-0.111,0.173-0.253,0.182-0.42c0.063-1.211-0.195-2.137-0.892-3.136c-0.273-0.391-0.687-0.373-0.95-0.156
		c-0.189-0.127-0.389-0.23-0.599-0.296c-0.104-0.032-0.202-0.052-0.294-0.063c-0.027-0.18-0.114-0.347-0.291-0.435
		c-0.344-0.172-0.657-0.211-0.947-0.166c-0.027-0.003-0.053-0.007-0.08-0.01c-0.259-0.033-0.428,0.076-0.521,0.24
		c-0.073,0.048-0.142,0.11-0.211,0.17c-0.137,0.002-0.275,0.053-0.391,0.174c-1.147,1.198-1.942,2.516-2.385,3.995
		c-0.095,0.094-0.169,0.214-0.189,0.374c-0.031,0.289-0.06,0.578-0.09,0.866c-0.062,0.391-0.109,0.79-0.125,1.204
		c-0.004,0.101,0.012,0.188,0.041,0.263c-0.005,0.155,0.002,0.313,0.001,0.469c-0.059,0.093-0.099,0.202-0.089,0.348
		c0.085,1.175,0.246,2.316,0.469,3.454c-0.003,0.082,0.01,0.166,0.048,0.254c0.048,0.234,0.102,0.469,0.156,0.703
		c0.004,0.039-0.002,0.072,0.008,0.113c0.06,0.23,0.12,0.459,0.18,0.689c0.045,0.174,0.144,0.284,0.261,0.356
		c0.19,0.45,0.38,0.9,0.57,1.351c-0.137,0.225-0.162,0.527,0.046,0.766c0.775,0.894,1.585,1.707,2.48,2.48
		c0.437,0.377,1.243,0.028,1.037-0.604c-0.029-0.089-0.058-0.178-0.087-0.267c0.084-0.066,0.153-0.155,0.182-0.284
		c0.053-0.238,0.117-0.469,0.175-0.703c0.815-1.686,1.595-3.35,1.907-5.11c0.088-0.075,0.132-0.186,0.182-0.345
		c0.097-0.309,0.288-0.58,0.345-0.897c0.137-0.118,0.232-0.283,0.232-0.46c0.002-0.495-0.014-0.986-0.04-1.476
		C34.348,62.041,34.298,60.718,34.246,60.535z"/>
	<path fill="#7B8A69" d="M64.157,59.044c0-0.01-0.001-0.021-0.002-0.031c-0.001,0-0.001,0-0.002,0
		c-0.009-0.063-0.013-0.125-0.023-0.187c-0.041-0.262-0.214-0.406-0.421-0.466c-0.141-0.416-0.344-0.783-0.59-1.135
		c-0.103-0.479-0.229-0.953-0.594-1.302c-0.244-0.233-0.508-0.326-0.78-0.394c-0.069-0.203-0.217-0.385-0.469-0.477
		c-0.628-0.229-1.257-0.459-1.885-0.688c-0.407-0.149-0.699,0.065-0.827,0.374c-0.264,0.068-0.486,0.231-0.564,0.515
		c-0.052,0.193-0.094,0.387-0.144,0.58c-0.085,0.079-0.158,0.174-0.193,0.303c-0.141,0.518-0.249,1.029-0.342,1.539
		c-0.103,0.071-0.181,0.18-0.204,0.345c-0.007,0.054-0.011,0.108-0.018,0.162h-0.004c0,0.015-0.001,0.029-0.001,0.044
		c-0.074,0.577-0.124,1.148-0.157,1.718c-0.02,0.044-0.044,0.082-0.054,0.136c-0.384,1.98-0.375,3.851,0.032,5.826
		c0.038,0.187,0.136,0.314,0.26,0.392c0.118,1.735,1.568,4.115,2.12,5.146c0.009,0.017,0.022,0.024,0.032,0.039
		c0.324,0.689,0.663,1.37,1.04,2.04c0.335,0.595,1.18,0.29,1.219-0.33c0.021-0.328,0.078-0.646,0.146-0.959
		c0.202-0.023,0.393-0.153,0.481-0.429c0.042-0.133,0.085-0.266,0.127-0.399c0.119-0.077,0.213-0.192,0.245-0.361
		c0.076-0.398,0.185-0.778,0.28-1.166c0.438-1.146,1.259-2.119,1.334-3.437c0.001-0.028,0-0.056,0-0.084
		c0.019-0.051,0.043-0.099,0.05-0.155C64.561,63.793,64.511,61.438,64.157,59.044z"/>
	<path fill="#7B8A69" d="M85.421,61.872c-0.05-0.286-0.133-0.565-0.219-0.842c0.011-0.04,0.029-0.074,0.032-0.12
		c0.083-1.21-0.168-2.277-0.724-3.219c-0.258-0.545-0.611-1.044-1.01-1.521c-0.053-0.382-0.104-0.765-0.158-1.147
		c-0.085-0.606-0.844-0.514-1.095-0.085c-0.103-0.07-0.201-0.093-0.296-0.091c-0.609-0.311-1.179-0.462-1.891-0.416
		c-0.033-0.031-0.056-0.074-0.094-0.094c-0.076-0.039-0.153-0.078-0.229-0.117c-0.251-0.129-0.512-0.09-0.722,0.093
		c-2.85,2.49-2.615,7.718-1.294,11.14c0.235,1.381,0.939,2.799,1.616,4.121c0.245,0.531,0.503,1.057,0.777,1.577
		c0.025,0.055,0.055,0.113,0.079,0.167c0.014,0.031,0.036,0.046,0.052,0.072c0.155,0.288,0.309,0.577,0.474,0.863
		c0.132,0.23,0.37,0.296,0.584,0.247c0.019,0.501,0.795,0.809,1.028,0.272c0.019-0.044,0.034-0.09,0.052-0.134
		c0.001,0,0.003,0.001,0.004,0.001c0.001-0.007,0.003-0.015,0.004-0.022c0.516-1.226,0.868-2.52,1.144-3.837
		C84.589,66.614,85.82,64.151,85.421,61.872z"/>
	<path fill="#8BFB8D" d="M73.064,85.723c-0.416-0.574-0.869-0.995-1.381-1.361c-0.128-0.564-0.287-1.123-0.456-1.679
		c0.018-1.091-0.003-2.176-0.05-3.268c-0.007-0.157-0.059-0.275-0.127-0.373c-0.016-1.212-0.074-2.423-0.151-3.633
		c1.791-1.258,2.008-3.437,2.039-5.571c0.038-2.593,0.174-4.889-1.587-6.874c-0.217-0.244-0.508-0.266-0.758-0.166
		c-0.112-0.255-0.329-0.377-0.555-0.409c-0.209-1.174-0.663-2.411-0.812-3.055c-0.335-1.45-0.807-2.712-1.696-3.919
		c-0.407-0.553-0.861-1.049-1.29-1.563c-0.396-0.633-0.805-1.258-1.222-1.879c-0.474-0.704-1.84-0.273-1.471,0.62
		c0.027,0.065,0.061,0.124,0.09,0.187c-0.003,0.002-0.006,0.003-0.009,0.005c0.016,0.023,0.029,0.046,0.044,0.069
		c0.073,0.155,0.149,0.309,0.232,0.455c-0.379-0.23-0.78-0.43-1.201-0.602c-0.056-0.102-0.133-0.198-0.25-0.276
		c-3.91-2.602-8.827-0.625-12.505,1.519c-1.958,1.142-4.677,3.119-5.905,5.468c-0.154,0.017-0.303,0.1-0.409,0.285
		c-0.886,1.542-1.716,3.11-2.519,4.691c-0.689,1.114-1.349,2.249-1.95,3.425c-0.115,0.226-0.082,0.435,0.019,0.6
		c-0.283,0.626-0.54,1.265-0.81,1.897c-1.008,1.271-1.844,2.649-2.541,4.14c-0.292,0.412-0.584,0.825-0.876,1.237
		c-0.042,0.059-0.057,0.121-0.076,0.182c-0.053,0.028-0.107,0.052-0.152,0.107c-1.516,1.889-3.032,3.777-4.548,5.666
		c-0.193-0.076-0.419-0.059-0.612,0.137c-0.184,0.186-0.323,0.349-0.438,0.508c-1.012,1.128-1.938,2.293-2.778,3.569
		c-0.23,0.35,0.011,0.785,0.368,0.905c2.104,0.705,4.541,0.762,6.928,0.62c0.014,0.323,0.237,0.637,0.684,0.678
		c6.085,0.557,12.196,0.258,18.289-0.142c0.298,0.232,0.664,0.393,1.072,0.428c0.542,0.046,1.084-0.161,1.64-0.128
		c0.366,0.022,0.707,0.136,1.08,0.129c0.953-0.017,1.774-0.446,2.71-0.514c2.844,0.24,5.743,0.116,8.598,0.403
		c0.461,0.046,0.683-0.327,0.672-0.704c0.099,0.325,0.352,0.583,0.755,0.532c0.54-0.069,1.081-0.138,1.621-0.206
		c0.031-0.004,0.06-0.015,0.091-0.021c0.333,0.014,0.667,0.056,1.006,0.149c0.744,0.208,1.301-0.772,0.853-1.28
		C73.089,86.571,73.302,86.051,73.064,85.723z M34.373,82.201c-0.458,0.196-0.786,0.546-0.843,1.139
		c-0.02,0.204,0.005,0.386,0.048,0.56c-0.468,0.101-0.929,0.237-1.379,0.43c-0.375,0.161-0.386,0.516-0.227,0.798
		c-0.508-0.047-1.014-0.107-1.523-0.147c-0.64-0.05-0.779,0.986-0.152,1.122c0.156,0.034,0.314,0.065,0.47,0.098
		c-0.989-0.046-1.95-0.169-2.861-0.391c0.42-0.6,0.859-1.186,1.321-1.751c0.228,0.094,0.501,0.083,0.658-0.114
		c0.775-0.974,1.55-1.948,2.326-2.923c0.19,0.013,0.388-0.049,0.527-0.243c0.106-0.154,0.224-0.297,0.332-0.449
		c0.016,0.5,0.681,0.782,1.042,0.278c0.042-0.059,0.079-0.121,0.121-0.18c0.094,0.059,0.201,0.098,0.317,0.118
		c-0.277,0.273-0.236,0.803,0.002,1.1c0.019,0.023,0.044,0.045,0.064,0.068C34.475,81.841,34.383,82.016,34.373,82.201z
		 M65.424,61.059c-0.229,5.051-1.23,9.378-4.106,13.502c-0.446-0.409-0.881-0.824-1.297-1.256c-0.105-0.12-0.209-0.241-0.314-0.362
		c0.216-0.245,0.287-0.628,0.009-0.95c-0.254-0.293-0.506-0.587-0.758-0.883c-0.181-0.212-0.4-0.257-0.6-0.201
		c-0.665-2.272-1.501-4.488-2.482-6.66c0.434-2.488,0.6-5.054,0.759-7.601c0.373-0.723,0.764-1.456,1.198-2.151
		c0.135-0.097,0.259-0.206,0.398-0.297c1.14-0.11,2.33-0.076,3.524-0.09c0.063-0.001,0.118-0.014,0.167-0.035
		c1.747,2.194,2.959,4.263,3.531,6.845C65.44,60.964,65.427,61.007,65.424,61.059z"/>
	<path fill="#EC6EF3" d="M92.674,64.221c-0.026-0.136-0.078-0.247-0.153-0.336l-0.007-0.131c-0.047-0.803-1.153-0.9-1.377-0.276
		c-0.163-1.226-0.483-2.461-1.005-3.71c-0.943-2.255-2.046-4.776-4.053-6.277c-2.301-1.721-5.094-2.532-7.909-2.841
		c-0.562-0.062-0.79,0.585-0.589,1.01c-0.15,0.2-0.188,0.49-0.068,0.701c-0.012,0.002-0.025,0.003-0.037,0.005
		c-0.252,0.053-0.464,0.337-0.451,0.593c0.017,0.243,0.024,0.486,0.019,0.73c0.001,0.342,0.281,0.599,0.614,0.614
		c0.765,0.033,1.253-0.1,1.892-0.514c0.041-0.027,0.071-0.062,0.103-0.095c0.01-0.003,0.02-0.006,0.03-0.009
		c0.664,0.083,1.38,0.079,2.024,0.126c0.105,0.008,0.192-0.021,0.271-0.063c0.398,0.17,0.784,0.36,1.151,0.585
		c0.615,0.49,1.205,1.028,1.798,1.586c0.427,0.401,1.172,0,1.125-0.497c0.348,0.372,0.675,0.812,0.986,1.281
		c-0.099,0.105-0.162,0.246-0.135,0.422c0.005,0.033,0.01,0.066,0.016,0.099c-0.139-0.071-0.3-0.099-0.457-0.079
		c-0.022-0.104-0.038-0.209-0.062-0.314c-0.102-0.452-0.856-0.362-0.819,0.111c0.07,2.965,0.161,5.845,0.058,8.751
		c-0.171,0.607-0.361,1.206-0.546,1.807c-1.113,1.963-2.322,3.923-3.436,5.914c-0.166-0.114-0.336-0.224-0.501-0.341
		c-0.211-0.149-0.471-0.133-0.693-0.025l-1.516-1.518c-0.086-0.087-0.178-0.141-0.272-0.175c-0.078-0.076-0.156-0.152-0.234-0.228
		c-0.229-0.224-0.494-0.242-0.717-0.152c-0.68-0.742-1.433-1.469-2.328-1.629c-0.451-0.081-1.044,0.306-0.835,0.835
		c0.348,0.882,0.787,1.704,1.27,2.497c-0.406-0.018-0.766,0.497-0.575,0.944c0.31,0.723,0.664,1.411,1.055,2.079
		c-0.09,0.227-0.065,0.495,0.177,0.73c0.25,0.242,0.505,0.483,0.762,0.723c0.074,0.106,0.144,0.214,0.22,0.319
		c0.087,0.12,0.188,0.274,0.297,0.439c-0.216,0.158-0.345,0.417-0.237,0.746c0.229,0.7,0.599,1.37,1.032,2.021
		c-0.078,0.078-0.152,0.151-0.222,0.218c-0.344-0.264-0.688-0.527-1.032-0.791c-0.672-0.515-1.582,0.651-0.912,1.183
		c0.106,0.084,0.235,0.198,0.359,0.304c-0.55,0.153-0.665,0.76-0.47,1.219c0.07,0.164,0.161,0.315,0.262,0.458
		c-0.355-0.054-0.704-0.104-1.037-0.141c-0.734-0.081-1.061,1.118-0.384,1.417c0.516,0.228,1.033,0.429,1.553,0.611
		c0.012,0.099,0.05,0.196,0.103,0.291c-0.007,0.002-0.014,0.002-0.021,0.004c-0.777,0.174-0.65,1.218,0,1.451
		c1.745,0.624,3.27,0.55,4.986-0.124c0.347-0.136,0.704-0.23,1.064-0.31c2.305,0.288,5.219,0.277,7.239-0.582
		c0.242-0.103,0.341-0.394,0.362-0.63c0.006-0.064-0.005-0.132-0.002-0.196c0.188-0.065,0.343-0.208,0.389-0.435
		c0.001-0.004,0.001-0.008,0.001-0.011c0.147-0.066,0.261-0.186,0.308-0.361c0.147-0.095,0.261-0.243,0.3-0.436
		c0.168-0.066,0.302-0.191,0.373-0.358c0.271-0.136,0.472-0.425,0.407-0.831c-0.098-0.611-0.231-1.12-0.45-1.698
		c-0.071-0.187-0.196-0.309-0.339-0.381c-0.063-0.165-0.125-0.33-0.188-0.495c0.17-1.416,0.134-2.669-0.314-4.007
		c0.292-0.554,0.534-1.123,0.739-1.705c0.067-0.103,0.131-0.205,0.186-0.307c0.465-0.855,0.825-1.785,1.073-2.724
		c0.305-1.16,0.399-2.322,0.362-3.49C93.437,66.419,93.377,65.024,92.674,64.221z"/>
	<path fill="#FAB8FF" d="M92.609,64.046c-0.09-0.242-0.253-0.473-0.393-0.667L92.2,63.395c-0.387-0.627-1.454-0.126-1.048,0.606
		c0.033,0.06,0.077,0.112,0.114,0.169c-0.006,0.016-0.013,0.032-0.018,0.048c-0.042,0.033-0.08,0.053-0.123,0.092
		c-0.128,0.116-0.082,0.32,0.052,0.405c0.068,0.043,0.114,0.1,0.177,0.146c0.056,0.071,0.126,0.134,0.218,0.183
		c0.001,0.001,0.003,0.001,0.004,0.001c0.07,0.062,0.115,0.138,0.177,0.204c-0.298-0.199-0.671-0.319-1.124-0.349
		c1.119-3.913-2.199-9.027-5.001-11.492c-3.322-2.923-7.918-3.277-11.94-1.766c-0.108,0.04-0.103,0.222,0.029,0.215
		c3.895-0.203,7.868-0.257,10.983,2.479s4.559,6.669,5.053,10.641c0.032,0.261,0.248,0.412,0.456,0.408
		c3.289,1.878,0.389,8.085-0.577,10.766c-0.003,0.009,0.003,0.016,0.001,0.025c-0.258,0.559-0.476,1.06-0.605,1.461
		c-0.057,0.177,0.172,0.375,0.333,0.256c2.451-1.811,4.159-6.741,4.458-9.69C93.908,67.344,93.574,64.765,92.609,64.046z"/>
	<path fill="#D7FFD7" d="M72.721,67.674c-0.159-0.954-0.383-2.104-0.887-2.934c0.281-0.061,0.52-0.306,0.417-0.663
		c-0.191-0.657-0.783-1.342-1.498-1.42c-0.539-0.059-1.025,0.26-1.13,0.739c-0.003-0.914-0.099-1.809-0.328-2.666
		c0.405-1.747-1.305-4.112-2.326-5.418c-1.152-1.474-3.06-3.318-5.06-3.285c-0.126,0.002-0.19,0.156-0.102,0.247
		c0.124,0.128,0.255,0.245,0.385,0.363c-1.585-0.784-3.313-1.295-5.083-1.127c-2.14,0.204-5.348,0.66-6.765,2.464
		c-0.094,0.12,0.055,0.282,0.171,0.171c1.197-1.146,4.398-1.219,6.032-1.375c2.345-0.224,4.325,0.594,6.222,1.908
		c3.603,2.496,5.859,6.475,6.038,10.883c0.014,0.341,0.545,0.448,0.621,0.084c0.078-0.375,0.127-0.745,0.165-1.114
		c1.753,0.874,1.807,4.065,1.787,5.666c-0.023,1.794-0.484,3.414-0.862,5.144c-0.09,0.413,0.419,0.601,0.657,0.277
		C72.814,73.386,73.167,70.356,72.721,67.674z"/>
	<path fill="#FF9CA1" d="M44.754,56.299c-0.174-0.41-0.474-0.786-0.778-1.107c-0.215-0.227-0.504-0.2-0.708-0.044
		c-0.509-0.652-1.229-1.229-2.042-1.726c-0.252-0.231-0.518-0.442-0.805-0.632c-0.212-0.188-0.438-0.365-0.691-0.517
		c-0.868-0.523-1.868-0.835-2.84-1.097c-0.896-0.242-1.543-0.268-2.448-0.186c-0.85,0.077-1.707,0.072-2.494,0.329
		c-3.039,0.254-6.307,1.279-7.797,3.505c-0.15,0.224,0.154,0.541,0.379,0.379c2.742-1.969,7.024-2.642,10.342-2.286
		c3.558,0.382,5.861,2.301,8.255,4.759c0.162,0.167,0.378,0.187,0.56,0.114c0.005,0.006,0.012,0.014,0.017,0.019
		c0.367,0.359,1.034,0.102,1.027-0.425c-0.002-0.167,0.105-0.329,0.122-0.5C44.876,56.671,44.837,56.495,44.754,56.299z"/>
	<path fill="#69C469" d="M72.078,86.81c-0.084-0.559-0.242-0.976-0.486-1.378c0.196-0.368,0.177-0.748-0.144-1.127
		c0.011-0.005,0.022-0.009,0.033-0.013c0.811-0.348,0.111-1.533-0.694-1.187c-6.679,2.866-14.67,3.173-21.843,3.641
		c-0.221,0.014-0.442,0.025-0.662,0.038c-2.162-0.002-4.33,0.023-6.48-0.27c-2.075-0.283-4.45-0.615-6.064-2.067
		c-0.119-0.107-0.203-0.222-0.306-0.332c-0.514-1.417-0.542-3.002-0.261-4.575c0.47-0.88,0.958-1.754,1.369-2.622
		c1.43-3.011,3.084-6.332,3.734-9.61c0.089-0.448-0.557-0.795-0.785-0.331c-0.738,1.503-1.295,3.098-1.883,4.677
		c-0.138-0.049-0.302-0.032-0.442,0.086c-0.344,0.29-0.601,0.74-0.832,1.122c-0.141,0.233-0.277,0.474-0.366,0.73
		c-0.021,0.023-0.043,0.044-0.056,0.077c-0.004,0.011-0.009,0.024-0.014,0.035c-0.134,0.029-0.261,0.083-0.347,0.2
		c-0.56,0.759-1.058,1.543-1.528,2.345c-2.135,2.593-4.684,4.837-6.494,7.778c-0.002-0.001-0.003-0.001-0.005-0.002
		c-0.281-0.132-0.622,0.203-0.413,0.448c-0.126,0.04-0.246,0.121-0.341,0.259c-0.075,0.109-0.161,0.205-0.24,0.309
		c-0.1,0.061-0.177,0.15-0.219,0.282c-0.228,0.271-0.467,0.532-0.731,0.779c-0.311,0.291-0.186,0.748,0.125,0.967
		c0.542,0.383,1.09,0.649,1.714,0.863c0.49,0.168,0.994-0.466,0.693-0.901c0.366,0.528,1.481,0.534,2.116,0.604
		c0.817,0.31,1.677,0.489,2.548,0.387c0.203-0.024,0.365-0.152,0.473-0.315c0.2,0.182,0.423,0.352,0.692,0.496
		c0.208,0.112,0.472-0.12,0.337-0.337c-0.041-0.065-0.068-0.129-0.105-0.194c4.1,0.867,8.662,0.735,12.569,0.536
		c2.208,0.083,4.468,0.055,6.617-0.336c1.895,0.672,3.908,0.334,5.904,0.294c2.266-0.045,4.437,0.478,6.698,0.117
		c0.334-0.053,1.161-0.282,2.088-0.628c0.094,0.233,0.293,0.43,0.575,0.446c0.409,0.023,0.823,0.003,1.232-0.014
		c0.376-0.016,0.577-0.286,0.621-0.579c0.06,0.018,0.115,0.039,0.182,0.053c0.12,0.025,0.261,0.029,0.392,0.001
		C71.507,87.88,72.171,87.431,72.078,86.81z"/>
	<path fill="#69C469" d="M49.884,79.654c-1.926-0.1-3.708,0.614-5.583-0.321c-1.958-0.976-1.875-3.464-2.387-5.294
		c-0.057-0.204-0.395-0.286-0.493-0.064c-0.822,1.87-0.021,5.127,1.746,6.279c1.841,1.2,5.275,1.572,6.92-0.106
		C50.27,79.962,50.131,79.666,49.884,79.654z"/>
	<path fill="#69C469" d="M56.3,64.94c-1.028-3.831,0.245-6.817,1.782-10.233c0.069-0.153-0.089-0.388-0.262-0.262
		c-2.798,2.049-3.782,6.37-3.314,9.646c0.477,3.334,2.853,8.041,5.776,9.82c0.242,0.147,0.587-0.099,0.493-0.379
		C59.748,70.451,57.157,68.132,56.3,64.94z"/>
	<path fill="#AA464B" d="M27.083,83.318c-1.574-0.027-2.697-0.314-3.524-1.785c-0.104-0.185-0.18-0.392-0.267-0.592
		c0.15-0.938,0.211-1.865,0.12-2.72c-0.05-0.473-0.156-0.958-0.286-1.446c-0.036-0.723-0.156-1.417-0.383-2.06
		c-0.067-0.188-0.271-0.249-0.424-0.18c-0.572-1.265-1.295-2.49-2.021-3.559c-0.35-0.886-0.613-1.802-0.649-2.797
		c-0.089-2.475,0.995-4.575,2.069-6.724c0.103-0.207-0.156-0.434-0.332-0.256c-2.902,2.951-3.619,6.778-2.479,10.352
		c-0.226-0.129-0.562-0.022-0.563,0.309c-0.003,0.742,0.202,1.463,0.475,2.149c0.222,0.559,0.438,1.302,1.064,1.488
		c0.173,0.051,0.423-0.062,0.452-0.256c0.085-0.583-0.312-1.007-0.553-1.518c-0.081-0.171-0.137-0.35-0.203-0.526
		c0.311,0.629,0.675,1.246,1.103,1.84c0.145,0.202,0.385,0.286,0.617,0.279c0.201,0.497,0.371,1.004,0.51,1.521
		c-0.084,1.01-0.112,2.035-0.303,3.023c-0.263,1.364-0.666,2.678-1.166,3.963c-0.639,0.633-1.219,1.322-0.659,2.166
		c0.173,0.261,0.56,0.366,0.823,0.209c-0.009,0.455,0.573,0.785,0.859,0.362c0.026,0.039,0.046,0.079,0.077,0.116
		c0.339,0.407,0.803,0.452,1.245,0.666c0.373,0.181,0.766-0.095,0.803-0.429c0.326,0.145,0.671,0.022,0.875-0.215
		c0.167,0.004,0.331-0.049,0.443-0.186c0.314-0.387,0.324-0.777,0.179-1.154l0-0.002c0.308-0.141,0.474-0.507,0.354-0.841
		c0.713,0.161,1.452,0.08,2.068-0.41C27.738,83.843,27.449,83.324,27.083,83.318z"/>
	<path fill="#AA464B" d="M30.648,73.981c-5.367-4.396-5.067-10.099-4.133-16.371c0.048-0.319-0.372-0.558-0.557-0.235
		c-1.789,3.123-1.987,7.607-0.975,11.016c0.691,2.331,2.515,6.818,5.565,5.969C30.7,74.317,30.784,74.092,30.648,73.981z"/>
	<path fill="#C04BC9" d="M82.254,73.571c-0.055-0.348-0.58-0.381-0.735-0.096c-0.068,0.125-0.146,0.204-0.229,0.263
		c-0.003-0.061-0.016-0.124-0.053-0.19c-0.417-0.755-0.938-1.447-1.377-2.189c-0.404-0.682-0.705-1.497-1.258-2.068
		c-0.253-0.261-0.807-0.08-0.767,0.318c0,0.003,0.002,0.007,0.002,0.01c-0.569-1.372-0.985-2.819-1.258-4.271
		c-0.322-1.708-0.432-3.474-0.354-5.209c0.087-1.938,0.648-3.177,1.417-4.911c0.133-0.301-0.193-0.567-0.454-0.35
		c-3.252,2.7-2.636,8.07-1.826,11.742c0.669,3.033,2.357,8.611,6.145,9.072c0.356,0.043,0.618-0.273,0.735-0.559
		C82.494,74.512,82.37,74.299,82.254,73.571z"/>
	<path fill="#C04BC9" d="M80.287,86.255c-2.387-0.362-5.103-3.209-6.23-5.275c-1.424-2.611-0.743-5.444-0.447-8.236
		c0.032-0.305-0.416-0.326-0.506-0.069c-0.333,0.949-0.648,1.855-0.891,2.739c-0.35-0.021-0.733,0.188-0.768,0.638
		c-0.004,0.05,0,0.102-0.003,0.152c-0.202-0.037-0.424,0.035-0.546,0.223c-0.243,0.377-0.094,1.003,0.022,1.403
		c0.109,0.375,0.331,0.619,0.613,0.828c0.361,2.637,1.525,5.273,3.291,7.14c0.188,0.198,0.396,0.231,0.582,0.178
		c0.547,0.516,1.157,0.947,1.898,1.154c0.105,0.029,0.203,0.016,0.287-0.024c0.811,0.446,1.655,0.715,2.491,0.683
		C80.912,87.757,81.198,86.393,80.287,86.255z"/>
	<g id="Layer_2_11_">
		<g id="Layer_16_11_">
			<path opacity="0.13" enable-background="new    " d="M102.082,37.964l-5.2-3l-0.91-0.52v-0.01l-0.14-0.08l-3.79-2.18l-0.26-0.15
				l-0.54-0.32l-3.28-1.89l-0.69-0.39v-0.01l-0.14-0.07v-0.01l-0.98-0.56l-1.19-0.69l-1.07-0.62l-0.83-0.48l-3.06-1.75l-1.43-0.83
				l-0.14-0.08l-7.29-4.21l-1.27-0.72v-0.01l-0.14-0.08l-3.5-2.02l-2.6-1.5l-2.46-1.41l-0.13-0.08l-4.9-2.82l-3.67,2.12l-0.13,0.07
				l-8.57,4.94l-0.13,0.08l-8.57,4.94l-0.13,0.07l-8.57,4.94l-0.13,0.08l-8.57,4.94l-0.13,0.07l-7.46,4.3l-0.01,0.01v53.12
				l1.67,0.96l0.63,0.37h0.01l5.16,2.97l0.13,0.08l8.57,4.94l0.13,0.07l4.82,2.78l1.04,0.6l2.18,1.26l0.49,0.28l0.04,0.02l0.13,0.08
				l0.27,0.16l0.36,0.21l3.13,1.8l3.31,1.91l1.29,0.74v0.01l0.21,0.12l0.13,0.08l2.5,1.42l0.08,0.05l0.39,0.23l0.96,0.55l0.13,0.07
				l0.63,0.37l0.66,0.38l0.2,0.12l0.4,0.23l2.62,1.51l0.13,0.08l0.92,0.53l0.01,0.01l0.33,0.19l0.03,0.01l1.07,0.62l1.14,0.66
				l0.06,0.03l0.11,0.06l4.9-2.82l0.13-0.08l8.56-4.93l0.14-0.09l8.56-4.93l0.14-0.08l8.56-4.94l0.14-0.08l8.56-4.93l0.14-0.08
				l6.24-3.6v-53.12L102.082,37.964z M52.472,113.454l-0.13-0.07l-8.57-4.94l-0.13-0.07l-0.01-0.01l-8.56-4.94l-0.13-0.07
				l-8.57-4.94l-0.13-0.08l-8.57-4.94l-0.13-0.07l-5.61-3.24v-50.97l5.61-3.23l0.13-0.08l8.57-4.94l0.13-0.08l8.57-4.94l0.13-0.07
				l8.57-4.94l0.13-0.08l8.57-4.94l0.13-0.07l3.67-2.12l4.9,2.83l0.13,0.07l8.56,4.94l0.14,0.08l8.56,4.93l0.14,0.08l8.56,4.94
				l0.14,0.08l8.56,4.93l0.14,0.08l4.38,2.53v50.97l-4.38,2.53l-0.14,0.08l-8.56,4.93l-0.14,0.08l-8.56,4.94l-0.14,0.08l-8.56,4.93
				l-0.14,0.08l-8.56,4.94l-0.13,0.07l-4.9,2.83L52.472,113.454z"/>
		</g>
	</g>
	<g>
		<g>
			<path d="M18.197,87.922c5.661,1.448,12.032,1.171,17.842,1.34c6.417,0.187,12.84,0.206,19.258,0.07
				c12.66-0.268,25.351-1.083,37.918-2.672c0.92-0.116,0.945-1.573,0-1.469c-12.446,1.374-24.902,2.361-37.424,2.64
				c-6.089,0.136-12.182,0.128-18.271-0.023c-6.301-0.155-12.964-1.188-19.234-0.539C17.935,87.306,17.808,87.823,18.197,87.922
				L18.197,87.922z"/>
		</g>
	</g>
	<g>
		<g>
			<path d="M23.525,87.701c4.275-3.574,8.265-7.761,11.644-12.19c3.457-4.53,5.291-9.743,8.141-14.607
				c3.043-5.193,8.344-9.325,14.576-9.348c3.135-0.011,6.279,1.049,8.512,3.302c2.43,2.452,2.894,5.187,3.228,8.464
				c0.057,0.558,0.823,0.715,1.005,0.136c1.543-4.895-2.628-10.305-6.872-12.21c-5.36-2.407-11.644-1.062-16.102,2.558
				c-5.469,4.44-7.209,10.944-10.623,16.809C33.312,77.009,27.94,81.8,23.094,87.27C22.831,87.567,23.226,87.951,23.525,87.701
				L23.525,87.701z"/>
		</g>
	</g>
	<g>
		<g>
			<path d="M70.453,62.025c1.851,2.343,2.048,4.926,2.034,7.815c-0.014,3.013-0.782,4.826-2.99,6.832
				c-0.394,0.358,0.018,1.038,0.517,0.888c2.976-0.898,3.73-4.585,3.762-7.3c0.033-2.863,0.164-7.346-2.897-8.787
				C70.506,61.297,70.204,61.711,70.453,62.025L70.453,62.025z"/>
		</g>
	</g>
	<g>
		<g>
			<path d="M70.41,76.661c-0.113,1.747,0.262,3.519,0.519,5.244c0.293,1.961,0.448,3.997,1.001,5.9
				c0.177,0.609,1.148,0.51,1.128-0.153c-0.053-1.76-0.457-3.511-0.746-5.246c-0.325-1.949-0.504-3.992-1.234-5.836
				C70.938,76.219,70.436,76.262,70.41,76.661L70.41,76.661z"/>
		</g>
	</g>
	<g>
		<g>
			<path d="M57.932,54.105c-2.217,2.783-2.541,6.65-1.988,10.056c0.337,2.076,1.034,4.063,1.936,5.958
				c0.84,1.763,1.715,2.71,2.945,4.086c0.11,0.123,0.319,0.177,0.475,0.126c0.079-0.026,0.159-0.053,0.238-0.079
				c0.365-0.121,0.444-0.743,0-0.821c-0.738-0.13-1.854-2.163-2.146-2.668c-0.995-1.722-1.704-3.663-2.162-5.595
				c-0.908-3.833-0.235-7.236,1.047-10.86C58.345,54.118,58.061,53.944,57.932,54.105L57.932,54.105z"/>
		</g>
	</g>
	<g>
		<g>
			<path d="M57.863,54.674c2.398,0.119,4.364,0.626,5.554,2.938c0.885,1.719,1.005,3.884,0.929,5.776
				c-0.15,3.761-1.504,7.118-3.597,10.203c-0.365,0.537,0.483,1,0.857,0.501c2.964-3.96,4.405-9.238,3.582-14.148
				c-0.483-2.879-3.855-8.337-7.427-5.649C57.603,54.414,57.649,54.664,57.863,54.674L57.863,54.674z"/>
		</g>
	</g>
	<g>
		<g>
			<path d="M57.77,55.011c0.239-0.086,0.382-0.198,0.6-0.332c0.226-0.138,0.403-0.162,0.554-0.384
				c0.096-0.141-0.006-0.319-0.149-0.367c-0.543-0.184-1.164,0.465-1.138,0.982C57.639,54.973,57.702,55.036,57.77,55.011
				L57.77,55.011z"/>
		</g>
	</g>
	<g>
		<g>
			<path d="M62.971,56.295c0.395-0.213,0.71-0.492,1.182-0.495c0.556-0.003,1.034,0.365,1.216,0.896
				c0.324,0.949-0.254,1.675-0.779,2.394c-0.317,0.434,0.33,0.798,0.681,0.525c1.127-0.876,1.455-2.735,0.507-3.854
				c-0.864-1.021-2.435-0.953-3.229,0.111C62.352,56.137,62.723,56.429,62.971,56.295L62.971,56.295z"/>
		</g>
	</g>
	<g>
		<g>
			<path d="M51.448,55.85c-1.275-0.127-1.758,1.808-1.401,2.73c0.444,1.145,1.777,1.606,2.796,0.895
				c1.065-0.742,1.156-2.422,0.356-3.39c-0.577-0.698-2.315-1.059-2.503,0.191c-0.046,0.309,0.267,0.505,0.516,0.3
				c0.582-0.478,1.174-0.474,1.581,0.245c0.426,0.753,0.262,1.954-0.665,2.236c-0.864,0.262-1.532-0.478-1.553-1.308
				c-0.021-0.842,0.574-1.102,0.991-1.694C51.632,55.962,51.541,55.859,51.448,55.85L51.448,55.85z"/>
		</g>
	</g>
	<g>
		<g>
			<path d="M52.342,56.662c-0.303-0.395-0.773-0.488-1.173-0.151c-0.477,0.402-0.627,1.205-0.375,1.763
				c0.211,0.467,0.678,0.795,1.2,0.783c0.71-0.016,1.116-0.584,1.181-1.24c0.049-0.503-0.003-1.09-0.377-1.471
				c-0.474-0.482-1.201-0.407-1.725-0.057c-1.037,0.693-1.317,2.425-0.07,3.067c1.317,0.678,2.329-0.817,1.993-2.001
				c-0.152-0.534-0.526-1.031-1.081-1.185c-0.589-0.163-1.174,0.109-1.456,0.644c-0.516,0.978,0.101,2.716,1.375,2.608
				c1.144-0.097,1.587-2.047,0.456-2.493c-0.628-0.248-1.344,0.204-1.353,0.893c-0.008,0.611,0.625,1.205,1.23,0.885
				c0.59-0.312,0.474-1.209-0.019-1.547c-0.615-0.422-1.4,0.298-0.989,0.933c0.289,0.446,1.056,0.296,1.041-0.282
				c-0.001-0.026-0.001-0.052-0.002-0.078c-0.057,0.137-0.113,0.274-0.17,0.411c-0.035,0.024-0.07,0.048-0.104,0.072
				c-0.155-0.02-0.31-0.041-0.466-0.061c-0.005-0.129-0.009-0.257-0.014-0.386c0.141-0.058,0.282-0.117,0.423-0.175
				c-0.195-0.002-0.08,0.39-0.132,0.513c-0.061,0.142,0.046,0.139-0.06,0.087c-0.191-0.095-0.284-0.613-0.177-0.785
				c0.243-0.388,0.722,1.019,0.092,0.911c-0.355-0.061-0.242-0.568-0.123-0.765c0.071-0.117,0.195-0.277,0.326-0.321
				c0.152-0.052,0.111-0.102,0.198,0.035c0.053,0.083,0.05,0.606-0.049,0.614c-0.322,0.026-0.069-0.704-0.095-0.721
				C52.135,57.35,52.566,56.954,52.342,56.662L52.342,56.662z"/>
		</g>
	</g>
	<g>
		<g>
			<path d="M63.816,56.442c-0.006,0.361,0.222,0.627,0.356,0.95c0.146,0.352,0.205,0.73,0.339,1.084
				c0.128,0.335,0.622,0.586,0.901,0.238c0.576-0.717,0.758-1.706,0.168-2.485c-0.488-0.643-1.558-1.031-2.244-0.498
				c-0.357,0.277-0.011,0.736,0.323,0.78c0.402,0.053,0.768-0.072,1.076,0.288c0.291,0.341,0.232,0.854-0.085,1.152
				c0.307,0.127,0.614,0.254,0.92,0.381c0.058-0.721-0.459-2.108-1.255-2.271C64.064,56.01,63.821,56.172,63.816,56.442
				L63.816,56.442z"/>
		</g>
	</g>
	<g>
		<g>
			<path d="M42.556,72.074c-1.527,2.433-0.402,5.932,1.903,7.456c1.115,0.737,2.57,1.112,3.899,0.878
				c1.677-0.296,2.523-1.263,3.53-2.525c0.071-0.089-0.04-0.207-0.127-0.127c-1.563,1.446-4.372,1.626-6.221,0.764
				c-2.654-1.237-3.109-3.686-2.697-6.326C42.868,72.026,42.656,71.914,42.556,72.074L42.556,72.074z"/>
		</g>
	</g>
	<g>
		<g>
			<path d="M29.651,54.427c-4.927,2.16-4.929,8.234-3.755,12.684c0.588,2.23,1.475,4.834,3.463,6.226
				c0.963,0.674,1.997,0.959,2.573-0.256c0.197-0.415-0.347-0.941-0.687-0.53c-0.553,0.669-2.275-1.018-2.553-1.401
				c-0.456-0.628-0.744-1.212-1.037-1.931c-0.654-1.602-1.095-3.331-1.318-5.045c-0.48-3.691,0.463-7.113,3.505-9.423
				C30.033,54.605,29.874,54.329,29.651,54.427L29.651,54.427z"/>
		</g>
	</g>
	<g>
		<g>
			<path d="M29.535,54.905c4.379,0.496,4.93,5.913,4.364,9.412c-0.494,3.051-2.08,5.671-2.94,8.594
				c-0.12,0.407,0.435,0.602,0.657,0.277c2.521-3.698,4.19-8.942,3.323-13.412c-0.466-2.4-2.379-6.566-5.484-5.169
				C29.292,54.679,29.398,54.889,29.535,54.905L29.535,54.905z"/>
		</g>
	</g>
	<g>
		<g>
			<path d="M40.222,57.12c-0.408-1.047-1.7-0.356-1.955,0.444c-0.333,1.04,0.776,2.064,1.776,1.557
				c0.987-0.5,1.021-2.093,0.318-2.838c-0.801-0.848-2.131-0.517-2.467,0.586c-0.309,1.016,0.139,2.323,1.373,2.28
				c1.086-0.037,2.02-1.452,1.42-2.435c-0.679-1.114-2.219-0.562-2.67,0.442c-0.442,0.984,0.146,2.395,1.365,2.276
				c1.307-0.128,1.828-2.038,0.895-2.899c-0.441-0.407-1.166-0.478-1.627-0.067c-0.469,0.417-0.508,1.087-0.265,1.628
				c0.219,0.489,0.933,0.298,1.071-0.14c0.029-0.091,0.133-0.397,0.09-0.477c-0.117-0.219-0.164,0.105-0.187,0.162
				c-0.043,0.105,0.006,0.29-0.1,0.37c0.018-0.013,0.054,0.076,0.022,0.002c-0.119-0.276,0.168-0.335,0.24-0.511
				c0.004-0.035-0.021-0.054-0.077-0.057c-0.023,0.078-0.059,0.149-0.109,0.214c-0.033,0.052-0.094,0.084-0.154,0.077
				c0.087,0.01,0.024-0.026,0.017-0.161c-0.005-0.097,0.001-0.24,0.045-0.332c0.058-0.121-0.001-0.07,0.042-0.054
				c0.119,0.043,0.151,0.183,0.172,0.295c0.022,0.118,0.004,0.241-0.018,0.356c-0.013,0.07-0.027,0.132,0.026,0.089
				c-0.08,0.066-0.03-0.177-0.032-0.168c0.033-0.129,0.229-0.236,0.356-0.206C40.026,57.607,40.326,57.385,40.222,57.12
				L40.222,57.12z"/>
		</g>
	</g>
	<g>
		<g>
			<path d="M26.704,56.805c0.003-0.001,0.006-0.001,0.009-0.002c0.133-0.026,0.23-0.148,0.269-0.269
				c0.005-0.014,0.009-0.028,0.014-0.042c0.07-0.217-0.053-0.406-0.216-0.53c-0.678-0.518-1.467,0.51-1.636,1.081
				c-0.235,0.792,0.386,1.58,1.243,1.338c0.743-0.21,1.254-1.155,1.032-1.89c-0.255-0.84-1.308-1.146-1.902-0.469
				c-0.566,0.646-0.058,1.6,0.76,1.63c0.751,0.028,1.425-0.775,1.307-1.507c-0.14-0.871-1.175-0.879-1.729-0.405
				c-0.525,0.449-0.864,1.53-0.071,1.904c0.221,0.104,0.515,0.071,0.641-0.168c0.097-0.184,0.118-0.377,0.192-0.564
				c0.001-0.003,0.108-0.188,0.108-0.184c-0.153-0.158-0.306-0.317-0.459-0.475c-0.074,0.105-0.112,0.225-0.116,0.359
				c0.059-0.236-0.174,0.545-0.186,0.46c0.148,0.092,0.296,0.185,0.444,0.277c0.007-0.057,0.02-0.113,0.039-0.167
				c0.058-0.097,0.081-0.224,0.158-0.314C26.682,56.783,26.591,56.827,26.704,56.805L26.704,56.805z"/>
		</g>
	</g>
	<g>
		<g>
			<path d="M19.72,87.292c-0.121-0.91-0.456-1.699,0.019-2.588c0.33-0.618,1.104-0.871,1.297-1.521
				c0.057-0.193-0.069-0.389-0.254-0.447c-0.91-0.284-1.725,0.983-2.009,1.694c-0.374,0.938-0.393,2.36,0.42,3.08
				C19.369,87.665,19.759,87.581,19.72,87.292L19.72,87.292z"/>
		</g>
	</g>
	<g>
		<g>
			<path d="M20.891,83.04c0.823-2.717,1.058-6.879,0.028-9.557c-0.081-0.209-0.45-0.278-0.497,0
				c-0.244,1.449-0.062,2.943-0.06,4.409c0.002,1.685-0.209,3.38-0.123,5.059C20.258,83.322,20.78,83.407,20.891,83.04L20.891,83.04
				z"/>
		</g>
	</g>
	<g>
		<g>
			<path d="M20.879,76.469c-1.91-3.386-3.235-6.698-1.982-10.624c0.577-1.809,1.753-3.184,2.742-4.766
				c0.835-1.336,1.135-2.598,1.612-4.072c1.383-4.279,6.754-5.678,10.811-5.755c4.36-0.082,8.244,1.848,10.382,5.691
				c0.392,0.705,1.394,0.086,1.066-0.623c-1.745-3.772-5.642-5.976-9.694-6.324c-4.038-0.346-9.807,0.781-12.494,4.129
				c-1.401,1.746-1.444,4.094-2.535,6.009c-1.106,1.941-2.545,3.542-3.165,5.738c-1.029,3.645-0.377,8.512,2.625,11.085
				C20.584,77.246,21.113,76.885,20.879,76.469L20.879,76.469z"/>
		</g>
	</g>
	<g>
		<g>
			<path d="M67.724,54.455c4.761-2.888,10.66-4.791,16.02-2.088c5.3,2.673,6.545,7.639,7.103,13.083
				c0.032,0.313,0.421,0.364,0.537,0.073c2.283-5.734-2.1-12.231-7.246-14.569c-4.85-2.203-13.528-1.671-16.953,2.961
				C66.942,54.242,67.406,54.648,67.724,54.455L67.724,54.455z"/>
		</g>
	</g>
	<g>
		<g>
			<path d="M91.212,62.376c2.31,1.54,2.213,5.226,1.824,7.696c-0.409,2.592-1.601,4.681-2.976,6.867
				c-0.305,0.485,0.387,1.005,0.785,0.606c2.475-2.476,3.646-6.27,3.613-9.722c-0.02-2.131-0.346-5.892-3.066-6.117
				C91.013,61.675,90.941,62.195,91.212,62.376L91.212,62.376z"/>
		</g>
	</g>
	<g>
		<g>
			<path d="M90.363,77.073c0.198,1.475,0.807,2.876,1.109,4.336c0.344,1.664,0.334,3.323,0.546,4.995
				c0.053,0.417,0.718,0.615,0.813,0.11c0.558-2.961-0.045-7.342-1.94-9.75C90.669,76.482,90.327,76.807,90.363,77.073
				L90.363,77.073z"/>
		</g>
	</g>
	<g>
		<g>
			<path d="M72.139,55.678c-1.101,0.322-1.454,1.732-0.93,2.68c0.581,1.05,2.049,1.366,2.954,0.529c0.838-0.775,0.781-2.11,0-2.898
				c-0.381-0.384-0.928-0.665-1.476-0.676c-0.504-0.01-1.107,0.336-0.894,0.915c0.102,0.278,0.419,0.375,0.646,0.171
				c0.851-0.764,2.243,1.371,0.896,2.016c-0.607,0.29-1.323-0.06-1.537-0.685c-0.224-0.655,0.155-1.208,0.546-1.7
				C72.466,55.877,72.36,55.613,72.139,55.678L72.139,55.678z"/>
		</g>
	</g>
	<g>
		<g>
			<path d="M73.404,57.218c0.002-0.325,0.01-0.53-0.275-0.749c-0.254-0.196-0.6-0.25-0.907-0.152
				c-0.756,0.241-0.965,1.187-0.594,1.823c0.362,0.62,1.161,0.921,1.843,0.71c0.787-0.243,1.047-1.125,0.787-1.846
				c-0.246-0.683-0.885-1.368-1.673-1.228c-0.694,0.124-1.119,0.81-1.124,1.486c-0.006,0.773,0.508,1.493,1.29,1.619
				c0.758,0.121,1.52-0.454,1.528-1.243c0.01-0.927-1.011-1.545-1.857-1.547c-0.438-0.001-0.851,0.258-0.974,0.692
				c-0.145,0.51,0.175,0.872,0.619,1.05c0.353,0.141,0.712-0.158,0.822-0.467c0.059-0.164,0.041-0.336-0.043-0.488
				c-0.041-0.056-0.084-0.11-0.129-0.163c-0.435,0.507-0.46,0.791-0.076,0.851c0.193,0.122,0.31,0.141,0.301-0.086
				c0,0.001-0.067-0.298-0.062-0.291c0.047-0.07,0.034-0.082-0.038-0.037c-0.113,0.007-0.121,0.043-0.025,0.11
				c0.059,0.082,0.105,0.171,0.136,0.267c0.005,0.065,0.033,0.06,0.085-0.014c-0.075,0.013-0.248-0.04-0.279-0.117
				c-0.074-0.184,0.162,0.063,0.107-0.034C73.007,57.616,73.402,57.502,73.404,57.218L73.404,57.218z"/>
		</g>
	</g>
	<g>
		<g>
			<path d="M79.058,53.835c-3.593,1.397-3.113,7.034-2.669,10.068c0.449,3.071,1.973,9.609,6,9.762
				c0.186,0.007,0.313-0.26,0.16-0.387c-1.233-1.025-2.346-1.864-3.091-3.332c-0.807-1.59-1.369-3.309-1.745-5.049
				c-0.753-3.485-1.246-8,1.595-10.632C79.489,54.099,79.302,53.741,79.058,53.835L79.058,53.835z"/>
		</g>
	</g>
	<g>
		<g>
			<path d="M78.954,54.39c2.645-0.007,4.548,0.767,5.52,3.427c0.572,1.564,0.517,3.447,0.433,5.083
				c-0.194,3.776-1.584,6.839-2.966,10.293c-0.124,0.309,0.36,0.59,0.568,0.331c3.003-3.753,4.213-9.736,3.492-14.443
				c-0.498-3.249-3.552-6.995-7.176-5.164C78.596,54.033,78.712,54.391,78.954,54.39L78.954,54.39z"/>
		</g>
	</g>
	<g>
		<g>
			<path d="M84.022,55.612c0.894-0.492,2.038-0.404,2.5,0.624c0.418,0.931-0.137,1.822-0.979,2.24
				c-0.519,0.258-0.064,1.002,0.45,0.769c1.387-0.627,2.021-2.361,1.143-3.669c-0.765-1.141-2.507-1.377-3.344-0.194
				C83.69,55.527,83.884,55.688,84.022,55.612L84.022,55.612z"/>
		</g>
	</g>
	<g>
		<g>
			<path d="M85.856,55.411c-0.593,0.047-0.797,0.602-0.75,1.14c0.057,0.66,0.397,1.263,0.89,1.695
				c0.288,0.252,0.813,0.185,0.906-0.239c0.116-0.532,0.219-1.866-0.647-1.866c-0.815-0.001-0.931,1.252-0.87,1.825
				c0.05-0.12,0.099-0.24,0.149-0.36c-0.179,0.173-0.225,0.316-0.241,0.559c-0.039,0.595,0.834,0.665,1.003,0.136
				c0.237-0.741,0.494-1.688,0.251-2.458c-0.158-0.5-0.772-1.232-1.36-0.87c-0.193,0.119-0.319,0.375-0.245,0.601
				c0.126,0.383,0.48,0.7,0.733,1.007c0.216-0.28,0.432-0.56,0.648-0.84c-0.4-0.277-1.066-0.978-1.597-0.651
				c-0.536,0.331-0.183,1.012,0.155,1.329c0.348,0.326,1.083,0.007,0.875-0.509c-0.14-0.348-0.329-0.609-0.672-0.78
				c-0.467-0.233-0.951,0.237-0.709,0.709c0.225,0.437,0.449,0.874,0.674,1.311c0.192,0.373,0.663,0.279,0.874,0
				c0.3-0.395,0.434-0.836,0.457-1.327c-0.211,0.161-0.422,0.322-0.633,0.482c0.242,0.1,0.324,0.322,0.32,0.563
				c0.313-0.085,0.625-0.169,0.938-0.254c-0.442-0.962-1.366-1.461-2.396-1.497c-0.215-0.008-0.419,0.158-0.475,0.362
				c-0.016,0.057-0.031,0.114-0.047,0.171c-0.173,0.628,0.847,0.892,0.964,0.266c0.011-0.058,0.022-0.116,0.033-0.175
				c-0.158,0.121-0.317,0.241-0.475,0.362c0.688-0.02,1.245,0.416,1.526,1.02c0.22,0.473,0.932,0.213,0.938-0.254
				c0.01-0.727-0.402-1.261-1.06-1.528c-0.319-0.129-0.62,0.192-0.633,0.482c-0.012,0.266-0.085,0.501-0.252,0.714
				c0.265,0.034,0.53,0.068,0.795,0.102c-0.218-0.441-0.435-0.882-0.653-1.323c-0.236,0.236-0.473,0.473-0.709,0.709
				c0.09,0.024,0.152,0.078,0.186,0.164c0.292-0.17,0.583-0.34,0.875-0.509c-0.127-0.218-0.167-0.216-0.121,0.007
				c-0.123,0.123-0.245,0.245-0.368,0.368c0.025-0.005,0.05-0.011,0.076-0.016c-0.135-0.018-0.271-0.035-0.406-0.053
				c0.345,0.172,0.668,0.457,0.982,0.68c0.534,0.379,0.997-0.405,0.648-0.84c-0.109-0.135-0.433-0.461-0.462-0.534
				c-0.082,0.2-0.163,0.401-0.245,0.601c0.013-0.009,0.026-0.018,0.04-0.028c-0.136,0.018-0.273,0.036-0.409,0.054
				c0.591,0.086,0.05,1.806-0.044,2.111c0.334,0.045,0.669,0.091,1.003,0.136c0.002-0.039,0.004-0.078,0.006-0.117
				c-0.05,0.12-0.1,0.24-0.149,0.361c0.209-0.208,0.218-0.332,0.212-0.612c-0.003-0.15-0.039-0.654,0.124-0.724
				c-0.168,0-0.337,0-0.505,0c0.035,0.025,0.07,0.05,0.105,0.074c-0.077-0.1-0.154-0.201-0.231-0.301
				c0.105,0.293,0.065,0.58-0.019,0.873c0.302-0.08,0.604-0.159,0.906-0.239c-0.418-0.349-0.865-1-0.623-1.574
				C86.226,55.7,86.133,55.389,85.856,55.411L85.856,55.411z"/>
		</g>
	</g>
	<g>
		<g>
			<path d="M25.874,56.033c-0.579-0.097-0.815,0.918-0.768,1.335c0.061,0.532,0.72,1.439,1.318,0.988
				c0.198-0.15,0.176-0.434-0.068-0.521c-0.192-0.068-0.338-0.091-0.46-0.272c-0.13-0.193-0.205-0.464-0.185-0.693
				c0.024-0.276,0.27-0.466,0.239-0.735C25.947,56.092,25.923,56.041,25.874,56.033L25.874,56.033z"/>
		</g>
	</g>
	<g>
		<g>
			<path d="M39.5,57.808c0.297,0,0.297-0.461,0-0.461C39.204,57.347,39.203,57.808,39.5,57.808L39.5,57.808z"/>
		</g>
	</g>
	<g>
		<g>
			<path d="M52.805,58.338c0.026,0,0.051,0,0.077-0.001c0.577-0.004-0.012-0.834-0.212-0.37c-0.011,0.026-0.022,0.051-0.033,0.077
				C52.58,58.174,52.643,58.339,52.805,58.338L52.805,58.338z"/>
		</g>
	</g>
	<g>
		<g>
			<path d="M52.828,58.076c-0.035,0.185-0.205,0.282-0.239,0.474c-0.031,0.176,0.047,0.31,0.213,0.375
				c0.026,0.01,0.051,0.02,0.077,0.03c0.134,0.052,0.284-0.015,0.384-0.101c0.204-0.177,0.282-0.419,0.248-0.685
				C53.466,57.819,52.907,57.652,52.828,58.076L52.828,58.076z"/>
		</g>
	</g>
	<g>
		<g>
			<path d="M64.713,58.825c0.01,0.051,0.02,0.102,0.03,0.153c0.06,0.311,0.51,0.172,0.467-0.129
				c-0.007-0.052-0.015-0.103-0.022-0.155C65.144,58.387,64.652,58.511,64.713,58.825L64.713,58.825z"/>
		</g>
	</g>
	<g>
		<g>
			<path d="M85.477,57.612c0.342,0,0.342-0.531,0-0.531C85.135,57.081,85.135,57.612,85.477,57.612L85.477,57.612z"/>
		</g>
	</g>
	<g>
		<g>
			<path d="M26.665,87.589c-1.564-1.406,1.078-3.526,1.82-4.56c0.144-0.201-0.132-0.439-0.326-0.326
				c-1.134,0.663-2.187,1.915-2.509,3.21c-0.178,0.715-0.181,2.286,0.936,1.976C26.711,87.855,26.768,87.681,26.665,87.589
				L26.665,87.589z"/>
		</g>
	</g>
	<g>
		<g>
			<path d="M25.852,86.552c0.102-0.013,0.151-0.025,0.236-0.087c0.096-0.069,0.19-0.209,0.137-0.336
				c-0.158-0.376-0.557-0.466-0.87-0.177c-0.39,0.36-0.48,1.023-0.415,1.516c0.064,0.484,0.747,0.661,0.904,0.122
				c0.124-0.424,0.133-0.823,0.058-1.257c-0.054-0.313-0.531-0.436-0.732-0.193c-0.379,0.455-0.512,0.949-0.393,1.532
				c0.095,0.468,0.728,0.383,0.865,0c0.154-0.43,0.273-1.147-0.208-1.414c-0.216-0.119-0.446-0.089-0.647,0.04
				c-0.102,0.066-0.173,0.146-0.242,0.244c-0.037,0.052-0.161,0.245-0.113,0.215c0.234,0.134,0.467,0.268,0.701,0.402
				c-0.019-0.192-0.038-0.384-0.056-0.577c-0.03-0.308-0.395-0.649-0.709-0.407c-0.483,0.372-1.051,1.018-0.689,1.653
				c0.106,0.187,0.34,0.276,0.545,0.222c0.089-0.023,0.153-0.054,0.228-0.107c0.175-0.124,0.204-0.332,0.064-0.497
				c-0.019-0.022-0.037-0.044-0.056-0.066c0.038,0.092,0.076,0.184,0.114,0.276c0.019-0.36,0.069-0.505,0.364-0.742
				c-0.268-0.111-0.536-0.222-0.804-0.333c0.023,0.192,0.045,0.384,0.068,0.577c0.038,0.326,0.373,0.612,0.701,0.402
				c0.118-0.076,0.203-0.148,0.284-0.264c0.035-0.042,0.061-0.09,0.079-0.142c0.091-0.138,0.044-0.152-0.139-0.043
				c-0.091-0.07-0.182-0.14-0.273-0.21c0.082,0.132-0.032,0.404-0.075,0.531c0.288,0,0.577,0,0.865,0
				c-0.056-0.248-0.017-0.474,0.148-0.674c-0.249-0.103-0.499-0.207-0.748-0.31c0.041,0.32,0.018,0.591-0.085,0.896
				c0.296,0,0.592,0,0.888,0c-0.012-0.086,0.013-0.832,0.094-0.841c-0.086-0.049-0.171-0.098-0.257-0.147
				c0.021,0.029,0.042,0.058,0.064,0.086c0.024-0.091,0.048-0.182,0.072-0.273c-0.02,0.01-0.039,0.02-0.059,0.03
				C25.601,86.284,25.664,86.576,25.852,86.552L25.852,86.552z"/>
		</g>
	</g>
	<g>
		<g>
			<path d="M71.618,80.228c-0.413,1.683,0.717,4.055,1.786,5.317c1.115,1.317,3.12,2.44,4.881,1.941
				c0.508-0.144,0.356-0.815-0.117-0.867c-1.844-0.204-3.268-0.643-4.443-2.198c-0.53-0.702-0.949-1.497-1.222-2.332
				c-0.211-0.646-0.266-1.307-0.606-1.898C71.833,80.08,71.65,80.1,71.618,80.228L71.618,80.228z"/>
		</g>
	</g>
	<g>
		<g>
			<path d="M72.111,85.079c0.415,0.686,0.935,1.3,1.352,1.988c0.312,0.516,1.117,0.178,0.97-0.409
				c-0.133-0.529-0.383-0.977-0.739-1.388c-0.248,0.248-0.495,0.495-0.743,0.743c0.418,0.384,0.836,0.769,1.254,1.153
				c0.209-0.271,0.418-0.542,0.627-0.813c-0.418-0.293-1.232-0.929-1.613-0.217c-0.327,0.611,0.372,1.303,0.802,1.631
				c0.465,0.354,1.074-0.433,0.627-0.813c-0.416-0.355-0.997-0.947-1.584-0.948c-0.722-0.002-0.85,0.755-0.557,1.27
				c0.349,0.613,1.255,0.072,0.94-0.549c-0.109-0.215-0.253-0.347-0.442-0.49c-0.513-0.389-1.116,0.441-0.677,0.877
				c0.187,0.185,0.323,0.31,0.577,0.386c0.347,0.103,0.745-0.253,0.615-0.615c-0.091-0.255-0.206-0.383-0.402-0.561
				c-0.226,0.292-0.451,0.585-0.677,0.877c0.022,0.025,0.044,0.05,0.066,0.074c0.313-0.183,0.627-0.366,0.94-0.549
				c-0.395,0.19-0.46,0.34-0.197,0.45c0.067,0.045,0.134,0.092,0.199,0.139c0.161,0.117,0.315,0.242,0.467,0.371
				c0.209-0.271,0.418-0.542,0.628-0.813c-0.118-0.089-0.371-0.304-0.363-0.476c-0.05,0.122-0.101,0.243-0.151,0.365
				c0.019-0.022,0.037-0.045,0.056-0.067c-0.122,0.05-0.243,0.101-0.365,0.151c-0.096-0.046-0.098-0.043-0.005,0.008
				c0.068,0.04,0.135,0.082,0.202,0.124c0.133,0.085,0.263,0.176,0.392,0.268c0.481,0.343,1.052-0.415,0.627-0.813
				c-0.414-0.388-0.829-0.776-1.243-1.164c-0.5-0.468-1.178,0.232-0.743,0.743c0.235,0.276,0.372,0.578,0.458,0.928
				c0.323-0.136,0.647-0.273,0.97-0.409c-0.486-0.738-1.005-1.47-1.718-2.003C72.329,84.28,71.915,84.756,72.111,85.079
				L72.111,85.079z"/>
		</g>
	</g>
	<g>
		<g>
			<path d="M86.229,86.494c2.378,1.256,5.803-1.494,6.035-3.878c0.024-0.243-0.3-0.271-0.415-0.112
				c-0.672,0.928-1.285,1.936-2.263,2.575c-1.043,0.682-2.21,0.685-3.321,1.136C86.154,86.26,86.102,86.426,86.229,86.494
				L86.229,86.494z"/>
		</g>
	</g>
	<g>
		<g>
			<path d="M91.363,85.059c0.052-0.101,0.118-0.192,0.199-0.272c0.372-0.33-0.168-0.855-0.542-0.542
				c-0.267,0.224-0.401,0.486-0.506,0.814c-0.168,0.526,0.479,0.764,0.836,0.486c0.299-0.233,0.598-0.465,0.896-0.698
				c-0.236-0.236-0.471-0.471-0.707-0.707c-0.292,0.366-0.584,0.726-0.805,1.141c0.31,0.181,0.619,0.362,0.929,0.543
				c0.166-0.374,0.283-0.696,0.143-1.102c-0.044-0.126-0.193-0.25-0.336-0.191c-0.371,0.154-0.569,0.391-0.735,0.75
				c-0.286,0.618,0.603,1.165,0.929,0.543c0.176-0.335,0.345-0.679,0.583-0.977c0.406-0.508-0.199-1.103-0.707-0.707
				c-0.299,0.233-0.598,0.465-0.896,0.698c0.285,0.118,0.569,0.236,0.854,0.354c-0.019-0.195,0.022-0.318,0.125-0.483
				c-0.238-0.064-0.476-0.129-0.714-0.193c0.003,0.113-0.012,0.224-0.045,0.332C90.793,85.147,91.2,85.33,91.363,85.059
				L91.363,85.059z"/>
		</g>
	</g>
	<g>
		<g>
			<path d="M92.092,84.176c0.593,0,0.594-0.922,0-0.922C91.499,83.254,91.498,84.176,92.092,84.176L92.092,84.176z"/>
		</g>
	</g>
	<g>
		<g>
			<path d="M19.722,83.373c-1.155,1.494,0.11,3.206,1.586,3.839c0.942,0.404,4.684,1.254,4.409-0.79
				c-0.044-0.331-0.426-0.568-0.7-0.29c-0.447,0.453-0.786,0.543-1.436,0.518c-0.574-0.023-1.187-0.106-1.733-0.278
				c-1.238-0.392-2.046-1.401-1.656-2.724C20.266,83.394,19.9,83.143,19.722,83.373L19.722,83.373z"/>
		</g>
	</g>
	<g>
		<g>
			<path d="M21.149,86.751c-0.222-0.379-0.583-0.638-0.911-0.924c-0.361-0.314-1.008-0.021-0.849,0.494
				c0.058,0.188,0.116,0.376,0.174,0.564c0.195,0.631,1.189,0.361,0.992-0.273c-0.103-0.33-0.213-0.658-0.321-0.986
				c-0.173-0.527-1.001-0.457-0.994,0.135c0.007,0.625,0.181,1.212,0.544,1.722c0.28,0.393,0.925,0.273,0.936-0.254
				c0.007-0.359-0.121-0.676-0.4-0.907c-0.497-0.411-1.214,0.302-0.713,0.713c0.091,0.036,0.127,0.1,0.108,0.194
				c0.312-0.085,0.624-0.169,0.936-0.254c-0.27-0.375-0.404-0.751-0.4-1.215c-0.331,0.045-0.663,0.09-0.994,0.135
				c0.101,0.33,0.199,0.662,0.306,0.991c0.331-0.091,0.661-0.182,0.992-0.273c-0.062-0.187-0.124-0.374-0.186-0.561
				c-0.283,0.165-0.566,0.33-0.849,0.494c0.368,0.308,0.707,0.643,1.157,0.819C21.029,87.504,21.32,87.043,21.149,86.751
				L21.149,86.751z"/>
		</g>
	</g>
	<g>
		<g>
			<path d="M57.681,55.479c0.29-0.256,0.637-0.528,0.998-0.668c0.281-0.11,0.609-0.086,0.832-0.303c0.044-0.043,0.049-0.129,0-0.171
				c-0.317-0.27-0.772-0.077-1.104,0.09c-0.441,0.222-0.716,0.501-0.889,0.958C57.481,55.483,57.615,55.537,57.681,55.479
				L57.681,55.479z"/>
		</g>
	</g>
	<g>
		<g>
			<path d="M19.191,73.952c0.174,0.705,0.741,1.185,1.407,1.421c0.316,0.112,0.462-0.403,0.139-0.505
				c-0.566-0.178-0.964-0.545-1.31-1.015C19.343,73.739,19.154,73.802,19.191,73.952L19.191,73.952z"/>
		</g>
	</g>
	<g>
		<g>
			<path d="M67.276,78.293c0.8,0.087,1.872-0.217,2.579-0.582c0.656-0.338,1.672-0.836,1.798-1.641
				c0.024-0.151-0.06-0.293-0.226-0.297c-0.736-0.016-1.356,0.637-1.964,0.991c-0.366,0.213-0.686,0.467-1.04,0.695
				c-0.387,0.249-0.826,0.372-1.196,0.652C67.147,78.171,67.176,78.283,67.276,78.293L67.276,78.293z"/>
		</g>
	</g>
	<g>
		<g>
			<path d="M69.698,77.475c0.333,0.25,0.666,0.642,1.068,0.758c0.119,0.034,0.209-0.077,0.187-0.187
				c-0.09-0.469-0.685-0.79-1.102-0.934C69.621,77.031,69.532,77.35,69.698,77.475L69.698,77.475z"/>
		</g>
	</g>
	<g>
		<g>
			<path d="M89.131,77.911c0.281,0.014,0.488,0.088,0.771,0.005c0.253-0.075,0.523-0.175,0.748-0.313
				c0.404-0.249,0.939-0.715,0.789-1.236c-0.059-0.204-0.251-0.285-0.447-0.254c-0.386,0.062-0.622,0.527-0.88,0.793
				c-0.283,0.291-0.661,0.656-1.024,0.845C89.008,77.793,89.051,77.907,89.131,77.911L89.131,77.911z"/>
		</g>
	</g>
	<path fill="#FFFFFF" d="M65.169,56.109c-0.165-0.147-0.26-0.205-0.481-0.203c-0.191,0.002-0.279,0.168-0.256,0.336
		c0.036,0.267,0.085,0.426,0.323,0.567c0.151,0.089,0.316,0.023,0.412-0.108c0.022-0.03,0.045-0.061,0.067-0.091
		C65.335,56.47,65.295,56.221,65.169,56.109z"/>
	<path fill="#FFFFFF" d="M52.289,56.35c-0.202-0.139-0.439,0.09-0.39,0.3c0.048,0.207,0.086,0.268,0.242,0.413
		c0.194,0.18,0.595,0.005,0.483-0.281C52.537,56.561,52.484,56.485,52.289,56.35z"/>
	<path fill="#FFFFFF" d="M73.219,56.407c-0.176-0.096-0.302-0.117-0.503-0.102c-0.124,0.009-0.22,0.171-0.111,0.267
		c0.233,0.204,0.195,0.393,0.53,0.421c0.094,0.008,0.161-0.069,0.192-0.146c0.012-0.029,0.023-0.059,0.035-0.088
		C73.411,56.635,73.33,56.468,73.219,56.407z"/>
	<path fill="#FFFFFF" d="M86.131,55.638c-0.117-0.063-0.193-0.096-0.32-0.136c-0.235-0.076-0.427,0.251-0.243,0.418
		c0.165,0.149,0.214,0.262,0.437,0.307c0.14,0.028,0.274-0.061,0.277-0.211c0-0.037,0.001-0.073,0.002-0.11
		C86.286,55.8,86.225,55.689,86.131,55.638z"/>
	<path fill="#FFFFFF" d="M39.489,56.729c-0.169-0.047-0.322,0.146-0.229,0.298c0.13,0.213,0.184,0.393,0.438,0.462
		c0.11,0.03,0.208-0.037,0.245-0.139C40.063,57.015,39.785,56.811,39.489,56.729z"/>
	<path fill="#FFFFFF" d="M26.854,56.316c-0.021-0.025-0.043-0.05-0.064-0.075c-0.044-0.051-0.147-0.067-0.204-0.026
		c-0.026,0.019-0.052,0.038-0.077,0.057c-0.114,0.083-0.201,0.256-0.102,0.39c0.025,0.034,0.051,0.068,0.076,0.103
		c0.071,0.096,0.183,0.114,0.276,0.036c0.032-0.027,0.064-0.054,0.096-0.081C26.978,56.614,26.947,56.424,26.854,56.316z"/>
</g>
</svg>
