<svg xmlns="http://www.w3.org/2000/svg" width="110.979" height="128.417" viewBox="0 0 110.979 128.417"><path fill="#1A0D3C" d="M110.849 96.417l-55.426 32L0 96.417v-64l55.423-32 55.426 32z"/><path fill="#FFF" d="M101.923 38.139v53.14l-.01.01-1.42.81-6.28 3.62-2.72 1.57-.24.13-.13.05-.11.07-3.029 1.74-.061.029-.16.101-.12.069-.02.011-.55.31-.15.09-.12.07-.689.39-.04.03-.76.44-2.16 1.25-.33.189-.63.38-.24.141-1.38.79-1.46.85-.181.09-.02.021-1.71.979-.96.561-4.01 2.319-.61.351-.35.2-.28.159-.061.03-3.31 1.92-.19.11-.77.439-3.271 1.891-.01.01-.3.17-.13.08-.17.1-.44.25-.42.24-.05.03-.28.16-3.49 2.02-.979.561-.73.42-.49.279-.03.021-.03-.021-.27-.159-.14-.08-.81-.46-.45-.261-.09-.06-.51-.29-.06-.03-.26-.149-.15-.091-.01-.01-1.31-.75-.96-.56-1.15-.66-1.37-.79-.04-.03-2.07-1.189-4.2-2.44-.96-.55-.2-.12-.69-.39-2.76-1.601-.96-.56-1.37-.79-.39-.22-.49-.28-.33-.2-1.85-1.06-.32-.19-.25-.14-.41-.24-.3-.18-1-.57-2.51-1.46-.65-.37-.96-.55-1.3-.75-.09-.05-.7-.41-.02-.01h-.01l-.98-.57-.55-.32-.96-.55-1.45-.84-2.11-1.23-5.35-3.08h-.01l-1.1-.64-1.04-.6V40.988c.09-1.01.18-2.01.28-3.01l1.14-.66.42-.24.24-.14.29-.17 1.61-.92c.01-.01.02-.01.02-.01v-.01l.11-.06.17-.1.32-.19.55-.31.55-.32a22.28 22.28 0 0 0 3.83-2.05c.31-.21.6-.43.88-.67l3.92-2.26 1.99-1.16 4.93-2.83 1.58-.92.17-.09 1.66-.95 1.16-.67 1.54-.91.52-.3.34-.2 1.94-1.1.69-.41 1.46-.83 3.73-2.15 1.99-1.15.46-.27 6.07-3.51.02-.01.2-.12 1.22-.7 1.061.62 6.489 3.75 5.591 3.23 8.939 5.15 1.04.61 2.3 1.31.87.5 1.521.88.199.12 1.17.67.801.46.09.06 1.81 1.04 3.78 2.18.04.03v.01l.26.14.66.39 1.46.84.4.23.26.15.11.07.239.13.051.03.09.06h.01l.05.03.021.01.1.06.61.35.779.44.44.25 1.939 1.12.511.29.45.26.039.03.29.17.19.11 1.341.771z"/><path d="M53.3 115.712c-.009.04-.025.072-.036.11-.013.085-.007.078.036-.11zm10.684-48.204c-1.99 2.15-5.091 2.98-7.891 3.53-4.03.79-9.97 2.52-13.46 5.7-.01.05-.01.09-.02.14-.07.38-.23.69-.44.93l.12.181c.21.069.42.189.6.38.33.35.65.71.97 1.06.12.181.19.351.24.521 1.18.189 2.03 1.31 2.59 2.5.24.3.39.689.39 1.18v.061c0 .17-.02.319-.05.47h.01c-.01.02-.02.05-.03.069-.02.101-.05.2-.09.301-.1.29-.2.58-.32.87-.26.649-.81.97-1.41 1.04a7.72 7.72 0 0 1-.7 1.739c-.06.11-.13.21-.2.29.27.561.5 1.101.75 1.74.07.17.13.32.21.5.05.15.09.29.11.42 4.14 2.48 4.88 7.15 6.65 11.34.85 2.03 2 4.55 1.21 6.71.11 1.19.19 2.391.2 3.58 0 .57.03 1.13.04 1.7.01.19-.17 1.14-.2 1.36-.04.149-.09.29-.16.409l-.01-.01-1.31-.75-.96-.56-1.15-.66-1.37-.79-.04-.03-2.07-1.189-4.2-2.44-.96-.55-.2-.12-.69-.39-2.76-1.601-.96-.56-1.37-.79-.39-.22-.49-.28-.33-.2-1.85-1.06-.32-.19-.25-.14-.41-.24-.3-.18-1-.57-2.51-1.46-.65-.37-.96-.55-1.3-.75-.09-.05-.7-.41-.02-.01h-.01l-.98-.57-.55-.32-.96-.55-1.45-.84-2.11-1.23-5.35-3.08h-.01l-1.1-.64-1.04-.6v-9.67c.85-.641 2.14-.641 2.8.25.16-.57.34-1.141.53-1.71.43-1.311 1.73-1.49 2.72-.98.6-.479 1.41-.54 2.08-.26.9-1.26 2.86-.76 3.54.55.16-.32.34-.63.55-.9.78-.979 2.21-.8 2.98.021.33-1.3.77-2.55 1.46-3.69.8-1.34 3.16-1.01 3.63.45.07.2.12.41.17.61.13-.141.25-.28.39-.41.95-.88 2.81-.561 3.29.71.12.33.22.66.32 1 .06-.13.14-.22.22-.32.11-.42.3-.84.62-1.27.69-.92 1.97-.891 2.53-1.521.72-.819 1.86-.87 2.66-.43 2.06-1.61 4.48-2.38 7.44-4.23 4.17-2.6 10.24-.949 13.95-4.569 1.601-1.552 3.63 1.039 2.181 2.598z" fill="#25E899"/><path fill="#25E899" d="M101.914 91.289l.01-.01v-1.58h.51c.101 0 .19-.021.261-.07 0 .28.08.561.22.811v-1.051c.003-.006.002-.012.004-.018v-.444c-.002-.006-.001-.012-.004-.018a.439.439 0 0 0-.29-.271.392.392 0 0 0-.19-.04h-.51v-6.6c.29-.199.646-.281.994-.255v-.315h-.994v-.649h.37c.7 0 .7-1.101 0-1.101h-.37v-5.14c.08.05.16.1.24.14a.684.684 0 0 0 .754-.066v-1.161c-.094-.149-.182-.303-.284-.442l.22.22c.02.02.044.02.064.035v-.08a9.426 9.426 0 0 0-.994-1.274c-.08-.09-.16-.17-.24-.26-.02-.021-.05-.051-.069-.08.02-.29-.03-.561-.12-.82-.16-.42-.45-.8-.78-1.13-.16-.141-.31-.28-.47-.43-.01-.011-.021-.011-.03-.021-.24-.2-.49-.37-.71-.53a3.2 3.2 0 0 0-.31-.189 2.28 2.28 0 0 0-.92-.23c-.271-.02-.54.01-.79.101-.131.04-.261.1-.37.17-.09-.04-.181-.07-.271-.101-.04-.02-.08-.029-.12-.04-.72-.25-1.46-.39-2.279-.43-.86-.05-1.641.18-2.38.54-.12.06-.23.13-.351.19-.12-.08-.26-.15-.42-.2-.26-.09-.51-.08-.77-.05h-.051c-.199.01-.39.05-.569.13a.196.196 0 0 1-.051.029.526.526 0 0 0-.1.051c-.02.01-.04.02-.05.029-.04.03-.08.061-.11.08 0 .021-.01.021-.02.021-.16.13-.28.29-.38.46l-.38-.061c-.051-.01-.091-.02-.141-.02-.729-.13-1.49-.19-2.24-.24-.119-.01-.25-.01-.369-.02-.11-.011-.221-.011-.341-.011-.13 0-.26.011-.399 0h-.49c-.05-.18-.12-.35-.19-.52l-.149-.3a4.784 4.784 0 0 0-.99-1.261c-.16-.25-.36-.43-.59-.54a.925.925 0 0 0-.22-.09c-.07-.05-.13-.09-.2-.13-.07-.17-.16-.33-.28-.47-.06-.08-.14-.15-.22-.21h-.01c-.15-.14-.33-.24-.54-.3-.17-.061-.36-.08-.57-.08-.69-.01-1.37-.01-2.05-.021-.17 0-.33.021-.471.05-1.369.011-2.729.03-4.1.04-.08 0-.16 0-.25.011-.27 0-.54 0-.82.01-.01-.01-.02-.01-.029 0h-.011c-1.369.01-2.75.03-4.119.05-.41 0-.74.12-.99.32-.04.02-.07.05-.101.09a.834.834 0 0 0-.18.19c-.37.47-.45 1.149-.25 1.71.08.22.2.42.37.59.01.029.04.05.06.069a8.57 8.57 0 0 1-.1.101c-.17.18-.34.39-.51.6-.17-.02-.34-.02-.51.021-.32.029-.62.149-.891.34-.01.02-.02.03-.04.03-.09.09-.189.17-.29.25-.229.239-.42.529-.55.89-.03.08-.06.17-.09.25-.04.13-.07.25-.101.37-.199.1-.39.21-.579.319-.011 0-.011 0-.021.011a1.422 1.422 0 0 0-.51.02c-.05.01-.09.021-.141.03a7.92 7.92 0 0 0-2.069.78c-1.33.699-2.55 1.739-3.38 2.84-.311.41-.5.819-.58 1.22-.021.12-.03.23-.03.35-.05.78.31 1.5.86 2.11.39.45.89.851 1.41 1.17.199.13.39.24.59.34.75.37 1.529.67 2.29 1.011h.01c.26.109.52.229.77.35.57.29 1.08.67 1.561 1.1.479.431.93.91 1.37 1.36.34.36.689.71 1.05 1.06.52.511 1.05 1.011 1.6 1.48.221.2.45.39.681.57.59.46 1.189.899 1.819 1.3.221.13.44.27.67.39.011.021.03.03.051.03.51.28 1.04.54 1.59.76.109.05.22.07.319.08.07.01.141.01.21 0 .08.08.16.16.25.23.86.71 1.771 1.279 2.73 1.84.14.08.28.16.43.24.721.729 1.521 1.39 2.351 2 .35.26.729.369 1.1.369a.915.915 0 0 0 0 .33c0 .04.01.08.03.12.02.061.04.12.08.17.41.57.97 1.021 1.46 1.521.51.52 1.12.979 1.74 1.38.13.09.26.14.39.18.27.08.54.05.77-.06.08-.03.16-.07.23-.12.03-.03.07-.05.1-.08.15.17.3.34.46.51.37.431.75.851 1.13 1.26l.12-.069.16-.101.061-.029 3.029-1.74.11-.07.13-.05.24-.13 2.72-1.57 6.28-3.62 1.42-.811z"/><path fill="#25E899" d="M74.414 76.968c-.01-.02-.021-.04-.03-.069-.08-.141-.17-.32-.18-.32-.01-.01-.01-.021-.01-.03.06-.01.12-.01.18-.02l.03.37c0 .019.01.05.01.069z"/><path fill="none" d="M64.564 65.949a1.13 1.13 0 0 0-.33-.45c-.051-.05-.101-.1-.17-.13l-.091-.061c-.04-.029-.09-.05-.13-.069-.01 0-.01-.011-.02-.011-.431-.229-.99-.27-1.44-.069-.18.02-.29.03-.34.04h-.01v.01h-.101c-.05 0-.109.01-.159.01-.101 0-.2.01-.301.021-.029 0-.06 0-.09.01-.17.03-.33.06-.5.1-.04.011-.08.03-.12.04-.029-.02-.069-.05-.109-.06a.9.9 0 0 0-.551-.14c-.17.01-.329.029-.489.09-.05.02-.11.05-.16.09-.07.05-.13.1-.19.149-.1-.1-.22-.18-.35-.239h-.01a.892.892 0 0 0-.4-.09c-.13 0-.24.029-.35.069-.17-.09-.34-.18-.521-.25-.06-.03-.12-.05-.18-.08-.021 0-.04-.01-.07-.02-.02-.01-.04-.021-.069-.03h-.011c-.35-.11-.72-.17-1.109-.14-.22.02-.43.069-.61.17-.04.02-.08.04-.11.069a.22.22 0 0 0-.08.051c-.1.069-.19.16-.26.26-.02.03-.03.05-.05.08s-.04.07-.06.109v.011a.936.936 0 0 0-.07.18c0 .01-.01.021-.01.03-.02.08-.04.149-.04.229v.011c-.01.01-.01.029-.01.039v.011c-.01.109 0 .21.03.31v.021c.03.149.09.29.18.409.02.04.04.07.07.101-.23-.07-.46-.101-.71-.11-.07 0-.14 0-.2.021-.04 0-.07 0-.1.01-.16.04-.31.1-.45.2-.03.02-.07.05-.1.069a1.266 1.266 0 0 0-.44.68c0 .01-.01.01-.01.02-.12-.029-.25-.04-.37-.029h-.01c-.24.01-.46.079-.66.22-.09-.07-.18-.13-.29-.181-.05-.02-.09-.039-.13-.06a.284.284 0 0 0-.13-.04.295.295 0 0 0-.13-.05c-.01-.01-.01-.03-.01-.04h-.01c-.06-.15-.13-.3-.18-.46-.01-.01-.01-.01-.01-.021-.03-.06-.05-.109-.07-.17-.05-.14-.11-.26-.19-.37a1.306 1.306 0 0 0-.44-.43c-.14-.09-.3-.14-.46-.17-.03 0-.06 0-.1-.01-.19-.01-.39.02-.58.09-.05.02-.11.05-.16.08-.02 0-.03.01-.04.02-.07.04-.13.08-.19.13a1.18 1.18 0 0 0-.22.221v.01l-.01.01h-.01c-.08.11-.15.24-.2.391-.03.05-.04.109-.06.17v.029c-.02.061-.03.12-.04.19-.02.15-.02.31-.01.49.01.08.02.149.02.229-.13-.09-.26-.18-.4-.26-.27-.17-.58-.22-.88-.19-.18.021-.36.061-.52.141-.02.01-.03.01-.05.02-.11.061-.21.12-.3.2-.07.05-.13.11-.18.17-.15.16-.25.36-.3.58-.01.01-.01.021-.01.03h-.02a.63.63 0 0 0-.22-.05c-.26-.04-.52 0-.75.1-.1.04-.2.09-.29.15-.16.1-.31.239-.44.39-.07.08-.13.16-.18.25-.02 0-.03.01-.05.01-.07.021-.15.05-.22.08-.06.03-.13.07-.19.11-.05.029-.11.06-.16.109-.17.12-.32.28-.44.46-.29.15-.53.37-.69.66-.05.011-.1.03-.14.05a1.39 1.39 0 0 0-.2.08c-.2-.13-.41-.21-.62-.22a.884.884 0 0 0-.23 0 .878.878 0 0 0-.23-.07c-.74-.25-1.56-.31-2.33-.26-.02 0-.04 0-.06.01-.2.021-.39.061-.57.15-.03 0-.05.01-.08.03a.369.369 0 0 0-.09.05c-.04.01-.06.04-.1.05l-.01.01c-.09.061-.17.12-.24.2-.04.04-.08.08-.11.13-.04.04-.07.08-.08.13-.02.021-.03.03-.03.051a.77.77 0 0 0-.12.279c-.01.021-.01.04-.02.061-.04.149-.06.3-.08.45-.06-.011-.11-.011-.17-.011h-.2c-.21.011-.43.021-.64.021-.58-.101-1.18-.16-1.79-.23-.4-.05-.8.12-1.11.41a.437.437 0 0 0-.07.061l-.09-.061c-.22-.149-.49-.25-.81-.29-.02 0-.04 0-.06-.01-.3-.03-.59-.05-.89-.08-.01.01-.01.01-.02 0-.07 0-.13-.01-.2-.01-.18-.01-.36-.03-.55-.04h-.01c-.14-.01-.28-.021-.42-.04-.05 0-.11-.01-.16-.021h-.03c-.01-.01-.01-.02-.02-.029v-.011a1.437 1.437 0 0 0-.21-.329c-.13-.16-.28-.29-.47-.41h-.01c-.1-.07-.21-.12-.33-.17-.11-.04-.23-.08-.34-.101-.1-.04-.2-.06-.3-.08-.13-.04-.26-.06-.39-.08-.17-.029-.34-.06-.52-.08-.52-.06-.92.101-1.2.391-.04.03-.08.08-.11.12l-.01-.011c-.04-.029-.08-.069-.12-.1 0 0-.01-.01-.02-.01a1.55 1.55 0 0 0-.65-.3s-.01-.011-.02-.011c-.09-.02-.19-.029-.29-.029-.2 0-.41.04-.62.12-.07.02-.13.06-.2.09-.22.12-.42.25-.6.42-.18.14-.34.31-.48.49-.06.069-.12.14-.17.22-.06.08-.12.17-.18.26-.07-.04-.15-.06-.23-.08-.41-.13-.88-.1-1.28.09-.19.08-.37.21-.51.36-.04.04-.07.08-.1.12-.01.02-.03.04-.04.06-.11.17-.23.4-.39.54-.26.101-.47.24-.63.431-.15.14-.26.319-.33.51-.02.05-.04.1-.05.149-.1.03-.18.04-.23.03-.11-.02-.22-.03-.33-.02-.23.01-.46.069-.66.159-.27-.14-.56-.26-.86-.34a4.797 4.797 0 0 0-2.59-.05c-.3.061-.59.16-.89.25-.06-.07-.12-.13-.18-.189-.05-.04-.1-.091-.16-.131-.59-.449-1.42-.6-2.11-.25-.23.131-.45.301-.64.551l-.06.09a.42.42 0 0 0-.08.109c-.03.051-.06.101-.09.16l-.006.013v18.17c.97.713 1.933 1.437 2.914 2.136 3.729 2.465 7.638 4.608 11.211 7.308 3.449 1.639 6.913 3.239 10.346 4.896 1.275.071 2.575.52 3.819 1.463.514.391 1.03.8 1.549 1.219 4.534 2.347 8.958 4.906 13.148 7.925.044-.061.1-.112.139-.178.04-.04.06-.08.09-.13.1-.17.19-.34.26-.53.06-.17.1-.35.12-.54.06-.46-.01-.979-.13-1.5-.08-.31-.17-.609-.26-.91l-.03-.09.03-.149c.3-1.48.3-3.07.19-4.57a40.634 40.634 0 0 0-.6-4.52c-.38-2.029-.93-4.029-1.71-5.949-.94-2.301-2.17-4.44-3.73-6.37-1.13-1.4-3.34-2.9-3.01-4.91.15-.08.29-.18.42-.29 1.05-.34 2.04-.99 2.32-2.12.31-1.25-.14-2.21-.92-2.99l-.02-.02a6.2 6.2 0 0 0-.66-.561c-.04-.06-.09-.119-.13-.17-.01 0-.02-.01-.03-.02-.26-.29-.57-.48-.91-.601-.01 0-.03-.01-.04-.01-.14-.04-.29-.069-.44-.09l-.42-.24c-.04-.029-.08-.05-.11-.08-.06-.04-.12-.09-.2-.149-.05-.04-.23-.38-.23-.391-.03-.05-.06-.1-.08-.149-.24-.44-.41-.86-.52-1.34.3-.721.48-1.471.55-2.261.19-.079.37-.18.53-.319.08-.061.16-.141.22-.221.03-.029.06-.069.09-.109.06-.03.11-.05.16-.09.07-.03.14-.07.2-.12.52-.09.97-.44 1.22-.94.02 0 .04-.01.05-.02.24-.05.46-.15.66-.29.14-.021.28-.05.4-.101.28-.1.52-.25.7-.46.02-.02.05-.05.07-.08.04 0 .09-.01.13-.029.19-.03.36-.101.51-.21.15-.09.27-.21.38-.351.18-.04.36-.1.53-.2.12.061.25.091.39.101.1.01.2.01.3 0 .26-.021.51-.11.73-.271.07-.05.14-.1.2-.159.07-.07.14-.15.2-.24.09-.141.17-.271.23-.41.01-.01.01-.03.02-.04.05 0 .1 0 .15-.01h.01c.06-.01.12-.021.17-.04.32.09.66.09.94-.05.16.04.33.05.49.029.15-.02.29-.06.42-.12s.25-.14.35-.239c.95 0 1.76-.32 2.6-.75.03-.011.06-.03.09-.051.68.171 1.4.07 2.1-.149.07-.03.13-.05.18-.07.15 0 .301-.02.46-.069.66-.211 1.28-.53 1.891-.851.069-.04.14-.08.21-.11.05-.02.109-.039.16-.069a.58.58 0 0 0 .119-.05l.28-.141c.09-.04.181-.109.271-.18.01 0 .029.01.05.01.05 0 .09.01.149.01h.011c.439 0 .92-.149 1.31-.409.24-.021.47-.091.67-.2.04-.021.09-.05.13-.07.051-.03.091-.05.13-.08.181-.13.32-.29.421-.47.149-.29.199-.61.17-.93v-.011a1.462 1.462 0 0 0-.131-.442z"/><path fill="none" d="M62.003 65.208h.03c.03 0 .09 0 .18-.01m-15.58 11.991l.012.01c-.002-.004-.006-.006-.012-.01"/><path fill="#B7624E" d="M87.624 99.489l-.55.31-.15.09-.12.07-.689.39-.04.03-.76.44-2.16 1.25-.33.189-.63.38-.24.141-1.38.79-1.46.85-.181.09-.02.021-1.71.979-.96.561-4.01 2.319-.61.351-.35.2-.28.159-.061.03-3.31 1.92-.19.11-.77.439-3.271 1.891-.01.01-.3.17-.13.08-.17.1-.44.25-.42.24-.05.03-.28.16-3.49 2.02-.979.561-.73.42-.49.279-.03.021-.03-.021-.27-.159-.14-.08-.81-.46-.45-.261-.09-.06-.51-.29-.06-.03-.26-.149c.05-.141.13-.261.22-.37-.17-.26-.23-.58-.1-.96 0-.011 0-.011.01-.021.61-1.89.28-3.81-.07-5.72-.17-.9-.35-1.81-.44-2.71-.06-.6-.11-1.21-.16-1.811-.08-.939-.18-1.89-.34-2.81-.25-1.37-.73-2.46-1.28-3.71-.36-.83-.69-1.71-1.06-2.59v-.01c-.24-.591-.49-1.17-.77-1.73-.01 0-.01-.01-.02-.02-.02-.061-.05-.11-.08-.17-.01 0-.02 0-.03-.011a.382.382 0 0 1-.14-.069c-.21-.16-.41-.301-.62-.45-.5-.351-.98-.7-1.4-1.19-.21-.25-.41-.52-.61-.79-.35-.479-.66-1-.91-1.55 0-.01 0-.01-.01-.01-.04-.101-.09-.21-.13-.32-.17-.439-.23-.84-.2-1.189.01-.011.01-.011.01-.021.03-.52.26-.939.61-1.26.08-.07.18-.14.27-.21.17-.12.37-.21.59-.29.02-.04.04-.08.05-.12.45-1.03.92-2.47.54-3.2-.4-.77-1-1.38-1.56-2.03-.34-.39-.72-.819-1.07-1.289-.25-.03-.48-.131-.67-.311-.35-.35-.59-.729-.74-1.14-.02-.05-.04-.101-.05-.141-.02-.08-.04-.149-.05-.22-.03-.08-.04-.17-.05-.25-.09-.59.02-1.2.3-1.8.02-.05.05-.09.08-.13.08-.061.16-.141.22-.221.06-.039.12-.079.19-.109l.06-.09c.31-.49.81-.99 1.39-1.07.02 0 .05-.01.08-.01.21-.021.46-.021.7-.01.25 0 .5-.011.72-.061.01 0 .02 0 .03-.01.12-.021.23-.07.32-.13h.01c.76-.521 1.5-.99 2.29-1.41l.36-.18c.19-.091.38-.181.57-.25.1-.051.2-.091.3-.131.64-.25 1.27-.46 1.91-.63l.42-.12c1.13-.29 2.27-.51 3.45-.75 1.94-.39 3.931-.76 5.771-1.54.66-.279 1.38-.659 1.939-1.18.15-.149.301-.3.421-.47.27-.37.449-.79.489-1.28.021-.14.04-.27.08-.39h2.66v.03c.021.1.03.21.021.319v.04c-.011.17-.04.34-.061.51-.05.29-.12.57-.21.841-.17.51-.4.96-.689 1.38-.48.699-1.12 1.279-1.86 1.76-.42.29-.88.54-1.351.75-.659.31-1.359.57-2.069.78-.36.109-.72.21-1.08.29-.18.05-.36.09-.54.13-.19.05-.39.09-.58.13a.914.914 0 0 1-.06.22.99.99 0 0 1-.16.25c-.15.18-.3.351-.46.521-.29.29-.58.569-.88.869.029 0-.08.171-.091.311-.01.1-.029.2-.04.3-.02.12-.04.25-.069.37-.03.22-.03.44 0 .67.05.43.189.86.38 1.25.46.9 1.12 1.68 1.86 2.38.5.48 1.05.91 1.6 1.311 1.95 1.399 4 2.649 6.04 3.909 1.76 1.091 3.52 2.2 5.189 3.44.521.38 1.03.771 1.54 1.17 1.67 1.311 3.311 2.67 5.08 3.8.431.271.86.551 1.28.84.25.16.5.32.74.49l.27.181a95.37 95.37 0 0 1 4.17 3.01 25.4 25.4 0 0 1 1.901 1.582z"/><path fill="#7C9293" d="M101.923 70.758v-32.62l-1.34-.77-.19-.11-.29-.17c-.06.06-.119.12-.18.19-.109.13-.229.25-.35.38-.04.05-.09.09-.13.14-.11.12-.21.25-.271.38-.08.11-.13.22-.17.34-.04.1-.07.19-.08.29-.05.23-.05.46-.01.7v.01c.01.01.01.03.01.04 0 .01-.01.02-.01.02a.747.747 0 0 1-.07.11c-.14.24-.29.45-.46.65-.51.61-1.069 1.18-1.6 1.77-.23-.01-.46.05-.7.2-.06.03-.12.06-.18.11-.32.26-.551.56-.771.87-.05.07-.1.13-.14.2-.11.15-.22.3-.33.44-.04-.01-.08-.03-.12-.04-.06-.01-.12-.03-.18-.03-.23-.04-.45-.03-.65.01-.08.01-.16.03-.229.06-.11.03-.221.08-.32.14-.01 0-.01.01-.021.02h-.01c-.05.02-.1.06-.149.1-.24.17-.44.41-.58.67-.011 0-.011.01-.011.01-.17.02-.34.05-.5.08-.02.01-.029.01-.04.01-.029.01-.05.01-.079.02-.021 0-.04.01-.061.02a2.641 2.641 0 0 0-.679.27s-.01.01-.021.01c-.149.09-.29.2-.43.35-.01 0-.03.02-.04.03-.2.21-.35.47-.49.71-.01.02-.02.03-.029.05-.011.03-.03.05-.04.07-.42.24-.811.39-1.181.7l-.02.02c-.061.05-.12.11-.181.18-.149.17-.3.37-.439.6-.061.09-.12.19-.16.29-.08.14-.15.29-.22.44-.03.06-.05.13-.08.2-.311-.04-.63-.01-.94.07h-.01c-.05.01-.1.03-.15.04-.02.01-.039.01-.06.02-.14.05-.28.1-.41.16 0 .01-.01.01-.01.01-.05.02-.11.05-.16.07-.02.02-.04.03-.06.04h-.011c-.05.03-.109.06-.159.09-.091.05-.17.1-.25.16-.23.18-.41.39-.57.63-.07.12-.14.24-.19.37-.05.08-.08.16-.12.25 0 .01-.01.02-.01.03l-.09.24c-.02.03-.02.06-.03.09-.34.04-.689.03-1.029.03-.261 0-.53.09-.761.24a.637.637 0 0 0-.18.14c-.03.02-.06.05-.09.08 0 .01-.01.01-.021.02-.13.13-.22.29-.27.46-.01.03-.01.05-.021.08-.01.09-.029.16-.039.2-.16.06-.32.11-.48.17-.05.01-.11.03-.16.05-.34.13-.63.3-.88.5l-.03.03c-.1.08-.199.17-.279.27-.2.22-.36.48-.49.79-.04.1-.08.21-.101.31 0 .01-.01.02-.01.02-.04.15-.06.29-.08.44-.01.09-.02.18-.02.27-.01.11-.01.22-.01.33a.315.315 0 0 0-.08-.04 1.18 1.18 0 0 0-.19-.1c-.13-.05-.28-.09-.439-.12-.03-.01-.061-.01-.091-.01-.6-.09-1.239.02-1.85.26-.05.02-.09.03-.13.05-.01 0-.01.01-.01.01-.23.09-.45.21-.67.34-.2.12-.4.26-.58.41-.341.26-.631.57-.851.89a5.102 5.102 0 0 0-.7 1.39c-.13.36-.22.72-.279 1.09a.534.534 0 0 0-.021.13c-.02.1-.03.21-.04.31a1.6 1.6 0 0 0-.43-.04c-.1 0-.19.01-.28.03a.31.31 0 0 1-.08.02c-.319.08-.64.18-.96.24-.149.03-.31.06-.47.07-.15.02-.3 0-.45-.04-.06-.01-.12-.03-.18-.05 0 0-.01 0-.021-.01-.239-.08-.47-.19-.699-.26-.261-.07-.49-.08-.7-.04 0 0 0-.01-.01 0-.23.03-.44.13-.62.28-.011-.01-.021 0-.03.02-.12.08-.23.19-.33.31v.01c-.04.04-.08.09-.11.14-.069.09-.13.18-.18.28-.04.06-.07.12-.1.18-.091-.02-.19-.03-.29-.04-.021 0-.04 0-.061-.01-.21-.01-.42.06-.609.17-.04.02-.08.04-.11.07-.11.08-.21.18-.29.29-.05.05-.09.11-.12.17-.06.11-.11.23-.14.35-.181-.03-.36.01-.55.1-.03.01-.07.03-.101.05-.08.05-.17.1-.26.14-.04.02-.08.03-.13.05-.07-.01-.141-.01-.21-.01h-.01c-.32-.02-.66-.01-1-.01-.5 0-1.04-.01-1.58-.04-.57-.13-1.141-.25-1.74-.27a.813.813 0 0 0-.73.39c-.029.03-.04.07-.06.1-.19-.17-.39-.33-.61-.5-.06-.04-.12-.09-.189-.14-.09-.06-.19-.13-.29-.2a1.22 1.22 0 0 0-.59-.25c-.07-.01-.141-.01-.21-.01a.747.747 0 0 0-.07-.11c-.101-.13-.19-.27-.3-.39h-.011a1.407 1.407 0 0 0-.25-.25l-.01-.01a1.94 1.94 0 0 0-.6-.32c-.26-.09-.521-.1-.77-.06h-.01c-.03-.09-.07-.18-.11-.27-.04-.07-.09-.13-.13-.19-.09-.1-.17-.18-.27-.25-.02-.02-.04-.03-.06-.05-.1-.06-.2-.11-.3-.15-.07-.04-.15-.06-.22-.08-.14-.05-.29-.09-.44-.12-.03-.01-.05-.01-.08-.02-.05-.01-.1-.02-.16-.02-.01-.02-.01-.03-.02-.04 0 0 0-.01-.01-.01-.11-.17-.24-.33-.39-.48-.05-.04-.09-.08-.14-.12-.15-.14-.32-.26-.5-.38l-.01-.01c-.06-.03-.12-.07-.19-.11-.08-.05-.16-.1-.25-.14l-.33-.18c-.2-.11-.44-.2-.7-.29-.15-.06-.31-.11-.47-.17-.05-.02-.11-.04-.16-.07a.358.358 0 0 1-.11-.04c-.05-.02-.09-.04-.14-.06-.07-.03-.14-.07-.21-.1-.23-.13-.44-.27-.59-.46-.11-.14-.2-.29-.25-.48v-.01a2.407 2.407 0 0 0-.84-1.29c-.06-.04-.12-.09-.18-.13a3.54 3.54 0 0 0-.85-.42c-.06-.02-.25-.07-.42-.11-.2-.05-.38-.09-.38-.07-.04-.05-.07-.09-.1-.14-.2-.3-.35-.61-.54-.88-.01-.01-.01-.02-.02-.02-.07-.1-.14-.19-.23-.28-.11-.12-.24-.22-.39-.31l-.18-.09c-.15-.07-.3-.12-.46-.16 0 0 0-.01-.01-.01 0 0-.01 0-.01.01-.08-.03-.16-.05-.25-.07-.03-.01-.06-.01-.09-.02.01-.06.02-.12.02-.18.02-.13.04-.26.05-.39.01-.04.01-.09.01-.14.26-.25.45-.57.54-.9.1-.36.07-.75-.15-1.11-.03-.06-.05-.11-.08-.16-.02-.01-.03-.03-.05-.05-.05-.07-.11-.13-.18-.2-.09-.08-.18-.16-.28-.22a1.5 1.5 0 0 0-.32-.19c-.73-.35-1.65-.39-2.47-.18-.03 0-.06.01-.1.02-.06.02-.13.04-.19.06-.01-.03-.02-.05-.03-.08a.671.671 0 0 0-.1-.23c-.03-.06-.07-.13-.11-.19-.02-.04-.03-.08-.05-.12-.01-.01-.01-.02-.01-.03-.04-.11-.07-.21-.1-.32l-.09-.27a2.12 2.12 0 0 0-.23-.48c-.06-.1-.14-.19-.24-.28-.01 0-.01-.01-.01-.01 0-.08 0-.16.01-.24 0-.03 0-.06.01-.08v-.06c.03-.45-.19-.84-.52-1.09-.07-.05-.14-.09-.22-.13.03-.12.04-.24.05-.37.01-.12 0-.23-.03-.35-.06-.26-.19-.5-.35-.71a1.85 1.85 0 0 0-.4-.39h-.01c-.06-.05-.12-.08-.18-.11l-.06-.03c-.03-.01-.07-.03-.1-.04.01-.03.01-.05.02-.08.07-.28.06-.57-.03-.83-.03-.1-.07-.2-.13-.28-.01-.01-.01-.02-.02-.03-.07-.1-.15-.2-.24-.29-.14-.15-.31-.27-.49-.36-.18-.08-.38-.13-.58-.1-.12.01-.24.02-.36.04-.03-.17-.09-.34-.18-.5-.02-.03-.03-.06-.05-.08h-.01c-.01-.03-.03-.05-.04-.08-.07-.09-.15-.16-.23-.22a.868.868 0 0 0-.23-.16c-.21-.11-.46-.18-.72-.2h-.12c-.06 0-.12 0-.18.01-.1.01-.19.03-.29.05a.784.784 0 0 0-.15-.1c-.01-.01-.03-.02-.04-.03-.01 0-.01 0-.02-.01a2.291 2.291 0 0 0-.15-.49c.01-.09.02-.19.02-.28-.01-.26-.09-.5-.25-.69a.49.49 0 0 0-.12-.13c-.01-.01-.03-.02-.04-.03-.02-.02-.04-.03-.06-.04-.37-.29-.76-.42-1.18-.43-.02-.01-.04-.01-.06-.01-.17-.01-.36.01-.56.04-.08.02-.15.04-.21.06l-.03-.18c.02-.1.02-.2.02-.29 0-.24-.05-.47-.16-.68 0-.01 0-.03-.02-.04a.467.467 0 0 0-.05-.1c.02-.1.03-.2.04-.29-.01-.11-.02-.22-.04-.32 0-.03 0-.05-.01-.07-.01-.01-.01-.01 0-.01 0-.01-.01-.02-.01-.03a.849.849 0 0 0-.09-.22.833.833 0 0 0-.26-.3.923.923 0 0 0-.3-.18c-.02-.01-.05-.01-.07-.02-.09-.02-.18-.03-.26-.03-.14-.18-.31-.34-.52-.45-.17-.11-.36-.18-.58-.21-.16-.04-.33-.06-.51-.05-.41.03-.81.12-1.21.11-.14 0-.27.01-.39.04-.15.02-.29.07-.41.13h-.01c-.07.04-.14.08-.2.12-.11.06-.2.13-.3.19-.02.02-.05.04-.07.06l-.06.03c-.15-.06-.32-.11-.49-.15-.03-.06-.06-.11-.09-.16-.05-.11-.1-.21-.17-.31-.2-.36-.44-.7-.7-1.03-.17-.22-.36-.44-.55-.65a.912.912 0 0 0-.23-.17.912.912 0 0 0-.42-.14c-.03-.01-.05-.01-.08-.01-.05 0-.11 0-.17.01-.09 0-.17.02-.26.06-.19.06-.37.18-.49.34v.01h-.01v.01c-.03.04-.05.08-.07.12-.09.19-.17.38-.25.57-.03.07-.07.15-.1.23a.551.551 0 0 0-.17-.17.156.156 0 0 0-.08-.06.791.791 0 0 0-.42-.09c-.11 0-.2.01-.3.02-.05-.02-.12-.05-.19-.09-.23-.13-.54-.34-.67-.42-.02-.01-.03-.02-.04-.02a6.58 6.58 0 0 0-.72-.32c-.078-.028-.152-.049-.227-.071-.11.08-.216.164-.33.24a22.585 22.585 0 0 1-4.223 2.21l-.16.161-.55.31a.403.403 0 0 1-.205-.135 17.45 17.45 0 0 1-.66.212c-.005.003-.011.009-.015.013-.05.05-.11.08-.17.1h.24c.06.07.13.13.21.16v.01s-.01 0-.02.01l-1.61.92-.29.17-.24.14-.42.24-1.142.66a599.862 599.862 0 0 0-.278 3.008v33.022l-.006.007v.579l.006-.006c.06-.05.11-.1.17-.14.02-.03.05-.05.07-.061.17-.149.34-.3.51-.439l.27.029c.65.08 1.3.12 1.96.08.21-.01.42-.029.64-.06.24-.04.45-.11.63-.21l.4-.03.41-.03c.63.181 1.27.271 1.93.311.12.07.24.12.36.16.26.08.54.09.82.02.03 0 .07-.01.1-.029.24-.07.47-.2.69-.391-.01.01-.03.03-.04.05a1.58 1.58 0 0 0 .7-.859c.13-.12.23-.261.32-.41.13.04.26.07.38.08.05.01.1.02.15.02.18.03.36.04.52.021.05.01.09 0 .13-.01.26-.011.5-.07.73-.16.13-.061.26-.12.38-.2.07-.05.15-.101.21-.16.09-.06.17-.14.25-.22.07-.07.13-.141.19-.221.08-.1.14-.199.21-.31.07 0 .14 0 .21-.01.11 0 .21-.01.32-.03l.27-.06c.29-.091.56-.23.8-.44.07-.05.13-.11.19-.18 0 0 0-.01.01-.01.01-.03.03-.04.05-.07.01 0 .03 0 .04-.01h.02c.28-.04.55-.16.76-.36.02-.01.03-.021.04-.03.16.061.33.101.5.12.14.03.28.03.43.03.27.06.53.04.75-.04.07-.021.13-.04.19-.07.05-.03.1-.05.15-.09.07-.04.13-.09.19-.15.02-.01.03-.02.05-.04.09.181.22.341.36.461.12.119.26.22.41.289h.01c.24.141.51.23.8.32.04.01.08.021.13.03l.21.06.27.061c.05.01.1.02.15.04.08.01.15.029.22.05.03 0 .05.01.07.01.06.01.11.03.16.04.01 0 .01 0 .02.01.22.051.45.091.68.12 1.54.15 3.13-.34 4.66-.1.05.01.1.02.15.01.05.01.11.01.17.01.05 0 .1 0 .16-.01.13-.01.27-.04.4-.09.03-.01.05-.021.08-.021.11-.05.21-.1.31-.18.09-.05.16-.12.23-.2.04-.04.07-.08.1-.13v-.01c.03-.03.05-.05.07-.08.03-.07.06-.14.08-.21h.17c.1 0 .19 0 .29-.01.65-.021 1.3-.101 1.95-.13.31-.011.59-.061.85-.16.06-.01.11-.03.16-.061.17-.06.32-.13.47-.22.12-.07.23-.14.35-.22.19-.13.38-.28.57-.431.15-.109.3-.229.46-.35.08.05.16.11.25.15.01.01.02.01.03.01.05.03.1.05.15.07 0 0 .01 0 .01.01.18.06.34.109.52.13.31.03.62-.01.91-.1.01-.011.01-.011.02-.011.2-.069.38-.17.55-.3.06-.03.11-.07.16-.13.02 0 .04-.02.06-.05.01 0 .02-.01.03-.03.17-.15.3-.34.39-.54a.95.95 0 0 0 .09-.21c.03-.07.05-.14.07-.21.07 0 .15 0 .22-.01.02.01.04 0 .06 0 .17-.01.35-.061.52-.141.07-.02.14-.06.21-.1.04-.02.07-.05.11-.07h.01c.26-.02.51-.1.73-.239h.01l.04-.04c.02-.011.04-.021.06-.04.07-.051.14-.101.2-.17.08-.07.14-.141.22-.24.01-.01.01-.01.01-.021l.06-.09v-.01c.01-.01.02-.021.02-.03.05-.08.09-.16.13-.24.02-.05.04-.1.05-.149h.18c.06 0 .12-.01.17-.01.21-.021.4-.08.57-.16.02-.01.05-.021.07-.03.01.01.02.03.03.04v.01c.12.141.23.271.34.42.04.051.08.101.12.16.13.17.25.351.35.55.02.051.05.091.08.131.03.039.06.079.09.109.11.11.23.18.37.24h.01c.05.02.09.03.14.04.01 0 .01.01.02.01h.01c.16.04.34.04.49 0 .03 0 .07-.01.1-.02.11-.021.2-.061.29-.12.05-.03.09-.061.13-.11.02-.01.04-.03.06-.05.09-.11.17-.21.22-.32.04-.08.07-.149.09-.229.06-.021.12-.05.18-.09.04-.021.07-.04.1-.061.11.04.22.08.33.11.02.01.05.01.07.02.02 0 .04.01.05.01.16.04.31.051.45.021.03-.01.06-.01.1-.01.07-.021.12-.04.19-.07.01 0 .01 0 .02-.01.1-.04.19-.09.28-.16v-.01c.05-.04.1-.08.14-.13.01-.011.01-.021.02-.03l.01-.01c.1-.101.18-.221.24-.351.02-.029.03-.069.04-.1h.01c-.01.09.07.01.23-.19a.333.333 0 0 0 .1-.109c.08-.08.14-.181.18-.28.01-.03.02-.061.03-.08.02-.05.03-.11.04-.16l.73-.06c.31-.03.619-.05.93-.061h.03c.229 0 .46.011.689.03h.101c.47.14.93.2 1.489.14a1.11 1.11 0 0 0 .69-.35c.02-.021.05-.04.07-.07.02.01.029.03.05.04.22.2.51.32.83.391.12.04.25.06.38.08.05.01.1.01.149.02h.101c.5.06 1.01.04 1.39.03h.09c.101 0 .2 0 .311-.011l.51-.029c-.09-.34.11-.52.53-.55.04-.01.08-.01.13-.01h.109l.221-.01h.01l.32-.02h.12l1.1-.04.51-.02.4-.02.569-.02c.36 0 .591.08.641.36.03-.01.06-.01.09-.01l.86-.12c.229.04.47.08.71.1.84.09 1.689-.16 2.51-.41.03 0 .06-.01.09-.02h.01c.011-.01.011-.01.021-.01.16-.05.31-.09.47-.14.021 0 .04-.01.061-.02.119-.03.229-.06.35-.09.02.04.05.07.08.11 0 .01.01.02.02.03.261.35.71.53 1.221.42 1.109-.23 2.31.17 3.449.05.851-.09 1.7 0 2.54-.08.271-.01.54-.05.801-.12.02.03.029.04.05.07 0 0 .01 0 .01.01.03.05.07.1.1.15.131.189.24.36.341.47.319.4.649.74 1.029 1.01.04.29.16.58.4.83.04.28.18.561.43.771.32.26.61.45.95.609h.01c.11.061.221.11.351.16.04.021.08.03.12.051.1.029.189.06.279.069l.09.12c.12.14.29.26.49.34.18.07.4.11.641.09.26-.01.52-.05.77-.109h.02c.11-.021.221-.05.32-.08.05-.01.09-.021.13-.04.271-.09.53-.2.771-.34.01 0 .02 0 .02-.021.04-.01.08-.04.12-.069a.428.428 0 0 0 .14-.091 1.325 1.325 0 0 0 .2-.139c.13-.05.261-.11.391-.16.239-.09.47-.18.699-.27.101.09.221.17.351.239.189.091.38.171.57.23.38.14.779.22 1.189.27.71.091 1.46.061 2.2-.06.01 0 .03 0 .05-.01a11.058 11.058 0 0 0 1.339-.271c.181-.04.37-.09.55-.14.341-.1.681-.21 1.011-.32.13-.04.25-.08.38-.13.02-.01.04-.02.069-.03.011.03.021.051.03.08.061.17.181.32.34.46.341.28.67.57.99.86.01.01.021.01.03.021.16.149.31.289.47.43.24.42.49.79.78 1.13.13.17.27.33.43.479.298.312.636.561.994.784v-.26c-.33-.331-.659-.665-.993-.992z"/><path fill="none" d="M38.665 38.542l-.001-.012c-.008-.057-.009-.066.001.012M53.37 59.47l-.006-.003a.1.1 0 0 0 .006.003"/><path fill="#F1DCFF" d="M99.614 36.798l-.511-.29-1.939-1.12-.44-.25-.779-.44-.61-.35-.1-.06-.021-.01-.05-.03h-.01l-.09-.06-.051-.03-.239-.13-.11-.07-.26-.15-.4-.23-1.46-.84-.66-.39-.26-.14v-.01l-.04-.03-3.78-2.18-1.81-1.04-.09-.06-.801-.46-1.17-.67-.199-.12-1.521-.88-.87-.5-2.3-1.31-1.04-.61-8.939-5.15-5.591-3.23-6.489-3.75-1.061-.62-1.22.7-.2.12-.02.01-6.07 3.51-.46.27-1.99 1.15-3.73 2.15-1.46.83-.69.41-1.94 1.1-.34.2-.52.3-1.54.91-1.16.67-1.66.95-.17.09-1.58.92-4.93 2.83-1.99 1.16-3.92 2.265c-.279.233-.568.459-.876.665-.405.27-.826.525-1.254.773.054.003.107.008.161.008l.46.03c.13 0 .27.01.4.01.24 0 .47-.02.69-.07.33-.08.63-.25.86-.58.05-.07.09-.14.13-.22.02-.05.04-.1.06-.14.36.07.72.12 1.09.17.2.02.39.05.59.07.05.01.11.01.16.01.08.01.15 0 .22-.01h.01a1.168 1.168 0 0 0 .75-.41l.05-.05.06-.09c.06 0 .12.01.17.02.15.04.27.14.39.26.05.05.09.1.13.15.01.01.02.01.02.02.05.05.09.09.13.14.05.06.11.12.16.17.11.12.23.24.34.34.36.35.73.65 1.14.87.09.07.19.12.3.16.09.05.17.09.27.11h.01c.11.05.23.09.36.11h.01c.19.06.39.1.6.11.04.01.09.02.14.02.78.05 1.58-.08 2.36-.15.14-.02.28-.03.42-.04.19-.01.4-.02.61-.02h.01c.13 0 .25.01.38.02-.05.23-.03.46.04.68.05.11.11.23.2.33.01.03.03.05.06.07a.5.5 0 0 0 .07.08c.05.05.1.09.15.13.25.21.46.33.37.63-.02.04-.03.09-.03.13-.04.21-.02.44.06.64.04.14.1.27.19.39.01.03.03.05.06.08.03.05.07.09.12.13.2.2.46.34.74.35.06.01.11.01.17.01.05-.01.1-.02.15-.01.02-.01.04-.02.06-.01.1-.01.19-.01.28 0 0 .03 0 .05.01.08 0 .03.01.06.01.08.05.42.18.77.39 1.05.09.14.21.26.35.36a2.136 2.136 0 0 0 .66.36c.11.04.23.07.36.09.07.02.15.03.23.04.06.01.13.02.19.02.05.07.11.13.18.2.03.02.06.05.09.07.09.07.18.13.29.18l.12.06c.06.03.13.06.19.09.13.06.27.11.41.14.22.06.46.09.69.07.09 0 .19 0 .28-.02.01.34.04.66.11.99 0 .02.01.05.01.07 0 .01 0 .02.01.03.05.22.18.37.34.47.2.11.45.14.68.08v.23c.01.38.08.74.2 1.11a3.891 3.891 0 0 0 .36.84c.05.1.1.21.16.3.15.25.3.46.41.66.04.07.07.13.09.2-.07.1-.14.2-.2.31-.06.12-.11.24-.15.37v.01c-.03.07-.05.14-.07.22-.04.11-.07.22-.1.33-.02.05-.03.11-.05.16-.05.15-.08.31-.09.45-.01.2.03.38.1.55.02.01.05.01.08.02l.28.06c.15.03.31.06.47.07.07.02.15.02.22.02.03.02.07.02.1.01.47.05.95.06 1.43.06.31 0 .7 0 1.04.09.13.04.26.09.37.16.09.05.16.11.23.18.07.08.14.17.19.26.01.02.02.04.04.06.03.05.05.1.08.16.15.35.17.73.15 1.11-.02.47-.13.97-.17 1.43 0 .06-.02.12-.04.17v.01c-.01.03-.03.06-.05.09l-.03.06c.14.12.29.23.46.3.19.11.4.18.6.2.08.02.16.03.23.03h.06c.01.01.03.02.04.04 0 .02.01.06.09.18.01.02.02.03.03.05.08.13.18.26.27.38.11.1.22.21.34.33.03.03.07.06.11.09.05.04.1.08.16.1.44.25 1.01.26 1.48.51l.06.03c.18.11.31.27.42.45.12.23.2.48.23.72.02.17.07.3.13.4.04.09.1.16.16.22.17.15.38.24.59.39.08.05.16.11.24.19.07.07.13.17.18.27v.01c.02.03.03.07.04.1.01.04.02.07.03.1.03-.01.06-.02.1-.03h.03c.15-.03.31-.02.47 0 .26.05.52.14.75.23.1.04.2.09.28.16.14.11.25.24.36.39.03.03.05.07.08.11l.01.01c.12.17.23.35.34.51.1.13.19.25.3.34.09.08.18.15.28.18.06.03.12.05.18.06.02 0 .04-.01.06-.01.05-.01.09-.01.14-.01.15-.02.29-.02.45 0 .02-.01.04 0 .06 0 .01 0 .01 0 .01.01.02-.01.04 0 .06 0 .22.03.36.17.42.34.01.02.02.04.02.05.04.14.04.29-.01.43v.01c0 .03-.01.05-.02.07.03.08.06.13.09.17.08.1.16.09.38.13h.02c.02 0 .04 0 .06.01.02 0 .06.01.089.02h.021c.22.06.43.12.63.18a.3.3 0 0 0 .08.04c.15.05.29.1.43.17.03 0 .061.02.09.03.101.01.2.03.29.09h.011c.029.02.069.04.1.07.11.08.22.17.32.27.05.04.09.09.13.13.01.02.02.03.03.04.17.18.199.4.149.61.22.01.44.01.66 0 .09 0 .17-.01.26-.02.09 0 .17-.01.26-.02a7.566 7.566 0 0 0 1.891-.42c.05.02.09.05.14.06 1.16.53 2.811.4 3.91.24.08-.01.16-.03.23-.06.14-.04.239-.1.329-.18a.89.89 0 0 0 .141-.14c.13-.18.18-.41.16-.65h.06c.13 0 .26 0 .38-.02.271-.03.521-.11.75-.23.11-.05.19-.12.29-.2h.021a2.058 2.058 0 0 0 .63-.71c.05.01.109.01.16.02.12.02.25.03.37.03.029 0 .06 0 .09.01.34.02.649.01.96-.08.21 0 .42 0 .63-.01.109-.01.229-.01.34-.01.11-.01.23-.01.34-.02.13.09.26.16.41.21h.01c.3.1.641.12.96.05.021 0 .05-.01.08-.02.101-.02.19-.06.28-.1.13-.06.26-.14.37-.24a.47.47 0 0 0 .12-.09c.14-.14.27-.3.359-.5v-.01c.03-.07.061-.14.08-.21.05-.15.101-.29.17-.43.061-.13.12-.26.181-.38.01-.01.01-.01.01-.02.17-.28.34-.57.51-.85 0-.01.01-.01.01-.02.141-.23.271-.46.38-.71.04-.09.08-.17.131-.24.13-.21.3-.37.5-.49.22-.14.47-.22.75-.26 0 0 0-.01.01-.01.04-.01.08-.01.13-.01.15-.03.31-.03.47-.03.53.01.99-.08 1.38-.27.181-.08.341-.19.49-.33.08-.06.16-.14.23-.22.069-.07.13-.14.189-.22 0 0 .01-.01.01-.02.08-.1.15-.22.221-.34.14-.25.25-.51.37-.76.04-.09.09-.18.14-.27s.11-.17.17-.25c.18-.21.4-.36.74-.42.109-.02.21-.05.3-.1.16-.07.3-.18.41-.31a1.835 1.835 0 0 0 .439-1.2v-.01c-.01-.03-.01-.06-.01-.09 0-.01.01-.02.021-.03.43.16.88.24 1.39.25.3.01.56-.05.76-.17h.01c.141-.07.25-.17.341-.28.08-.09.14-.19.189-.3.05-.14.09-.29.11-.44.02-.01.05-.02.07-.03.09-.05.17-.1.25-.16a2.2 2.2 0 0 0 .35-.26c.02-.01.03-.02.05-.04l.16-.13s.01 0 .01-.01c.05-.04.11-.08.16-.12.01-.01.03-.02.04-.02.07-.04.13-.07.16-.09h.13c.04 0 .09.01.13.01h.01c.23.02.46.07.69.06.12 0 .24-.02.35-.06.23-.06.44-.18.601-.34a.23.23 0 0 0 .069-.07c.15-.15.25-.32.311-.51v-.01c.03-.05.04-.09.05-.14.02-.06.03-.12.02-.18v-.01a.993.993 0 0 0-.05-.54c0-.03-.02-.07-.029-.1.109-.11.22-.23.329-.34.311-.33.53-.74.811-1.09.06-.09.13-.18.21-.26h.01c.05-.06.11-.11.16-.15h.01c.17-.15.36-.25.601-.31.04-.01.08-.02.109-.03.551-.14.98-.3 1.37-.61.05-.04.11-.08.15-.13.069-.05.13-.11.18-.18.07-.07.14-.15.2-.23.1-.13.15-.27.18-.41.03 0 .061 0 .09-.01.44-.02.87-.14 1.271-.34.01 0 .02 0 .03-.01.449-.22.859-.53 1.199-.9.45-.48 1.061-.76 1.601-1.13.18-.12.34-.25.49-.39.279-.26.51-.56.71-.88.08-.15.159-.3.229-.46v-.01c.021-.04.04-.07.061-.11l.149-.3c.05-.11.11-.21.17-.31.05-.09.101-.18.16-.27.12-.18.24-.35.37-.53.05-.08.11-.15.17-.23.05-.06.09-.13.13-.19.061-.07.101-.15.141-.22l-.456-.261zm-50.45 6.83c-.08-.15-.16-.3-.25-.44.13.04.25.08.37.11a2.059 2.059 0 0 0-.12.33z"/><path fill="#FFF" d="M54.503 12.409l-.02.01-6.07 3.51-.46.27-1.99 1.15-3.73 2.15-1.46.83-.69.41-1.94 1.1c2.16.2 4.34.2 6.5.01 2.47-.21 5.08-.65 7.31-1.78 1.95-.99 3.32-2.98 3.3-5.19 0-.88-.27-1.751-.75-2.47zm-1.81 4.02c-.03-.1-.07-.19-.11-.27.16-.17.27-.37.32-.6.08-.35.12-.7.11-1.05.151.659-.019 1.32-.32 1.92z"/><path fill="none" d="M70.234 25.778c-.04.08-.08.17-.12.25.02 0 .05.01.069.01a.935.935 0 0 1 .16-.1 1.224 1.224 0 0 1-.109-.16z"/><path fill="#25BA7A" d="M64.624 65.638a.373.373 0 0 0-.18-.14.285.285 0 0 0-.08-.04c-.101-.04-.2-.07-.3-.09-.2-.07-.421-.11-.641-.13-.39-.05-.8-.05-1.21-.04h-.18c-.01.01-.021.01-.03.01h-.071c-.05 0-.109.01-.159.01-.101 0-.2.01-.301.021-.029 0-.06 0-.09.01-.26.01-.52.03-.76.03-.021 0-.04.01-.06 0-.061.01-.11.01-.171.01-.25.01-.51 0-.779-.01h-.71c-.32-.011-.65-.021-.98-.011a1.04 1.04 0 0 0-.29-.26c-.05-.03-.1-.06-.149-.08-.021-.01-.04-.01-.061-.02-.03-.01-.07-.021-.109-.03h-.011a.868.868 0 0 0-.359 0l-.12.03c-.101.02-.2.05-.3.08-.261.06-.51.14-.771.22-.02.01-.03.02-.05.02-.1.04-.21.07-.31.12-.08.021-.16.051-.24.091h-.01c-.04.01-.08.02-.12.039v.011c-.03 0-.05.01-.07.02-.1.03-.2.07-.29.11-.1.04-.19.08-.29.12-.16.069-.31.13-.47.2-.01.01-.03.01-.05.02-.03.02-.07.03-.11.05-.03.021-.07.03-.11.05-.03.011-.07.03-.1.04-.12.061-.22.11-.34.16h-.01c-.19.09-.38.181-.57.26-.01.011-.03.011-.04.021-.01 0-.02.01-.03.01-.33.15-.66.29-.99.41-.01.01-.02.02-.04.02a.131.131 0 0 1-.06.021v.01s-.01 0-.01-.01c-.06.03-.13.06-.2.08-.02.01-.03.02-.05.02h-.01c-.07.04-.15.061-.22.091-.19.069-.39.14-.58.21-.37.119-.74.25-1.11.359a.443.443 0 0 1-.11.04c0 .01-.01.01-.02.01-.08.03-.15.051-.23.07-.02.01-.04.01-.06.01-.24.09-.49.17-.73.24-.17.061-.33.11-.5.16l-.93.3c-.22.07-.44.14-.66.22h-.01c-.08.03-.17.051-.25.08l-.18.061c-.18.06-.37.13-.55.189-.01 0-.01 0-.02.011-.46.149-.91.319-1.37.47 0 .01-.01.01-.01.01-.06.03-.11.05-.17.07-.1.029-.18.069-.28.109h-.01c-.36.131-.71.261-1.06.4-.04.02-.08.03-.12.05-.25.101-.49.19-.73.3-.17.061-.34.141-.51.21-.26.11-.52.221-.78.341-.19-.17-.45-.271-.78-.261-.27.011-.54.03-.81.07-.18.021-.37.05-.56.08-.07.01-.13.03-.2.04-.08.02-.16.03-.23.05-.08.021-.16.03-.23.05-.11.03-.21.051-.31.08-.1.021-.19.05-.29.08-.01 0-.03 0-.05.01-.08.021-.16.051-.24.07-.5.15-1 .311-1.49.48-.09-.03-.18-.051-.27-.061-.89-.05-1.75.07-2.62.2-.42.07-.84.15-1.26.21-.35.05-.69.08-1 .05h-.01c-.51-.03-.93-.21-1.18-.67v-.09c0-.26-.07-.521-.21-.74a.971.971 0 0 0-.23-.26c-.12-.11-.25-.19-.42-.24-.06-.03-.13-.05-.2-.069-.1-.021-.21-.03-.33-.03h-.14c-.26-.01-.5.06-.7.18-.17.09-.31.21-.42.36l-.09.09c-.04.04-.08.08-.11.12l-.01.01c-.07.08-.14.16-.2.25l-.18.33c-.15-.03-.3-.01-.46.03-.01 0-.03.01-.04.01a1.21 1.21 0 0 0-.9-.22l-.27.06c-.12.05-.22.11-.32.2-.02.02-.05.04-.07.06-.05.051-.09.101-.13.15-.1.11-.19.21-.26.32-.1.14-.18.27-.26.42-.09-.011-.17-.021-.26-.011h-.01c-.16-.01-.31 0-.46.011-.26.029-.5.08-.73.16l-.15.06c-.1.04-.2.08-.29.14-.47.261-.84.66-1.05 1.2-.07.01-.15.021-.22.05h-.01a.639.639 0 0 0-.18.061h-.29c-.22.01-.44.02-.66.02h-.1c-.28 0-.55-.01-.82-.02-.18 0-.37-.01-.55-.021-.86-.029-1.73-.069-2.59-.05-.36 0-.71.021-1.07.061-.45.039-.91.109-1.36.21-.27.06-.54.14-.79.239-.04.011-.08.03-.12.04-.31.13-.6.28-.87.44l-.006.004v.432l.006-.006v10.36c3.46-2.09 7.54-3.141 11.48-3.79 2.82-.47 5.4-1.08 8.02-2.29 2.61-1.22 5.01-2.83 7.46-4.33 3.23-1.98 6.65-3.4 10.21-4.65 1.87-.649 3.74-1.319 5.63-1.909 1.62-.5 3.29-1.12 4.64-2.16.87.06 1.79 0 2.609.01 1.37.02 3.08.34 4.391-.16a.23.23 0 0 0 .109-.06c.091-.04.16-.11.221-.17v-.011a.584.584 0 0 0-.068-.753z"/><path fill="#25BA7A" d="M24.494 77.329c.04-.08.08-.17.12-.26.06.06.11.109.17.159-.091.03-.191.07-.29.101zm77.939 11.269a.39.39 0 0 1 .19.04c-.12.061-.25.101-.38.12a1.243 1.243 0 0 1-.69.24c-.06 0-.12 0-.18.01-.1 0-.19-.02-.28-.04-.319.17-.74.17-1.04-.06a.703.703 0 0 1-.229-.25c-.01-.021-.03-.04-.04-.061-.04-.069-.07-.13-.11-.199.13.109.101.06-.1-.16-.03-.061-.16-.311-.17-.34-.03-.051-.051-.091-.08-.131-.28-.42-.16-1 .17-1.34.09-.09.189-.18.28-.26a.689.689 0 0 1-.11-.13c-.1-.11-.19-.24-.271-.36-.149-.05-.29-.12-.409-.22h-.021c-.47.07-.95.1-1.42.14a.92.92 0 0 1-.77-.27 2.572 2.572 0 0 1-.74-.18c-.04 0-.09.01-.13.01-.011 0-.021 0-.04.01a.954.954 0 0 1-.48-.03.809.809 0 0 1-.6-.8c0-.25.09-.439.24-.58a.974.974 0 0 1 .319-.2c.021 0 .03-.01.04-.01l.11-.03a.92.92 0 0 1 .21-.17c0-.06.01-.109.02-.17.08-.489.49-.87.95-1.14.08-.12.17-.22.29-.311.22-.159.43-.31.66-.449l.09-.061c.03-.029.05-.069.08-.1.03-.04.06-.07.09-.09.11-.11.25-.2.41-.25.11-.04.22-.061.35-.07l-.01-.04c.07.01.13.021.19.03.17-.4.56-.7 1.02-.7.311 0 .59.14.79.35a1.126 1.126 0 0 1 .3.75c0 .03 0 .051-.01.08.15.061.29.141.41.25.04.03.08.061.12.101.149.16.26.34.33.569.04-.04.09-.069.14-.1v6.6h.511zm-19.3-12.79a.893.893 0 0 0-.1-.109c-.94-1.061-2-2.01-3.16-2.82-.19-.14-.38-.27-.57-.4a.708.708 0 0 0-.71-.05.963.963 0 0 0-.439.45c-.09.19-.101.42.01.63l-.09-.06c-.37-.25-.78-.45-1.221-.561-.029-.01-.06-.01-.079-.01a.873.873 0 0 0-.36 0c-.12.03-.23.07-.33.14a.916.916 0 0 0-.23.171c-.1.039-.199.069-.289.119h-.03c-.16-.149-.34-.27-.54-.369l-.141-.061c-.46-.2-1.02-.28-1.56-.229-.14 0-.28.02-.42.05h-.01c-.55.109-1.07.35-1.46.729-.11.101-.2.21-.29.33-.061.08-.101.15-.15.23-.05.109-.09.21-.13.319-.04.141-.06.28-.06.42-.011.131 0 .261.02.391.03.2.09.39.19.57.02.05.04.09.069.14.03.27.16.49.351.649.12.11.27.19.43.261.19.08.39.09.59.069.101-.01.19-.04.28-.08h.02c.141.07.29.131.44.171.02.01.04.02.06.02.19.05.38.07.561.08.39.21.83.33 1.29.31.25-.01.52-.09.79-.22.09.05.18.09.279.12.341.1.7.13 1.03.06.05 0 .101-.01.15-.02.01.05.02.11.04.17.06.21.14.4.26.55.16.25.39.44.65.55.29.15.63.21.979.21.07 0 .13-.01.2-.01.01 0 .03.01.04.01l.63.15c.03 0 .06 0 .09.01.01.011.03.021.061.021h.02c.13.03.271.06.41.09.43.09.77-.04.99-.271l.02-.02c.26-.01.47-.09.62-.23.24.011.45-.079.62-.229.33-.26.49-.73.31-1.1.23-.391.249-.9-.131-1.341zm-2.79.36c-.01.01-.01.03-.02.04a.986.986 0 0 0-.24-.03c-.05-.16-.11-.31-.17-.46.14.151.281.3.43.45zm22.574-2.717c-.094-.149-.182-.303-.284-.442-.22-.28-.46-.54-.71-.79-.31-.3-.63-.58-.95-.87a.655.655 0 0 0-.09-.08c-.12-.1-.24-.21-.359-.319-.79-.75-1.57-1.49-2.41-2.16-.21-.16-.41-.32-.63-.47-.03-.021-.061-.051-.091-.07-.01-.01-.02-.01-.029-.021-.221-.149-.49-.06-.641.12a.546.546 0 0 0-.139.29c-.36-.01-.73.011-1.08.021-.02.01-.04.01-.05.01-.36.021-.71.04-1.021.04-.39 0-.79.01-1.18.02-.58 0-1.16.021-1.729.061-.431.03-.851.07-1.28.14-.05 0-.09.011-.141.021a3.2 3.2 0 0 0-.319.05c-.17.03-.29.13-.351.27a6.33 6.33 0 0 0-.6-.05c-.16-.01-.32-.02-.48-.02h-.02c-.34-.01-.69 0-1.06.01-.12 0-.23.01-.351.01-.439 0-.899-.01-1.33.07-.09-.12-.18-.24-.279-.35 0-.011-.011-.03-.03-.04a.196.196 0 0 1-.03-.051c-.24-.279-.49-.55-.76-.819-.16-.15-.33-.311-.51-.471-.28-.239-.551-.479-.82-.72-.09-.08-.19-.16-.28-.24 0-.01.01-.02.01-.029a.57.57 0 0 0 .021-.341c-.03-.26-.21-.51-.53-.63-.06-.02-.109-.04-.17-.06-.149-.05-.31-.08-.46-.11-.15-.029-.3-.04-.45-.05-.01-.01-.029-.02-.04-.03-.04-.029-.069-.06-.109-.08-.23-.149-.49-.079-.66.08l-.01.011c-.551.02-1.101.069-1.641.069-1.279.011-2.56.021-3.84.03-.439 0-.88 0-1.33.01-.84 0-1.68 0-2.53.01-.689.011-1.56-.109-2.31.021-.39.07-.76.21-1.04.479l-.01.011v.01s-.01 0-.01.01a.484.484 0 0 0-.061.55c.01.051.04.091.08.131l.01.01c.75.72 1.931.47 2.91.49 1.29.029 2.58.02 3.87.029l3.84.03c.94 0 1.95.15 2.91.06.36.44.74.86 1.12 1.301l1.14 1.29c.42.479 1.07.79 1.61 1.119.22.15.47.12.66.011.47.05.96.02 1.41.04 1.149.029 2.159.04 3.279-.28a.64.64 0 0 0 .46-.51l.42.029c.33.03.65.04.98.051.53.02 1.07.02 1.62.029 1.04.011 2.59.261 3.71-.069.43.51.89.989 1.35 1.489.891.95 1.71 2.061 2.83 2.73.08.05.16.1.24.14a.684.684 0 0 0 .754-.066v-1.165z"/><path fill="none" d="M55.684 72.529h.2c.01-.011.01-.021.02-.03-.071.009-.151.019-.22.03zm-4.96.739c.12-.01.23-.01.34-.02v-.05c-.11.03-.221.051-.34.07z"/><path fill="#C0DDDD" d="M66.122 63.705c-.091-.223-.176-.42-.219-.657-.046-.237-.303-.403-.531-.403H65.3c-.221 0-.492.165-.529.403-.002.021-.008.041-.011.06a.529.529 0 0 0-.331.021.566.566 0 0 0-.226-.044h-2.44l-.002-.003c-.216-.233-.555-.187-.777 0l-.002.003c-.701.006-.699 1.096.005 1.096h.209c.043.082.083.165.122.24a.55.55 0 0 0 .749.197c.226-.14.512-.025.751-.049a.827.827 0 0 0 .41-.153c.257.074.479.057.698-.073.098.065.196.129.294.203a.424.424 0 0 0 .511.017l.072.056c.245.183.677.027.783-.256.351.015.701-.249.536-.658zm13.192-8.283l-.381.381c-.058.02-.112.044-.165.068a.5.5 0 0 0-.456-.078c-.881.251-1.764.108-2.517.736-.758.633-1.333 1.482-1.76 2.367-.151.316.045.681.316.806a.568.568 0 0 0 .294.387l-.596.597c-.501.5.274 1.275.775.775l4.702-4.703a.495.495 0 0 0 .311-.31c.085-.084.168-.168.25-.252.502-.499-.274-1.274-.773-.774z"/><path fill="none" d="M82.933 54.068v-.01m-.43-2.459c-.03.02-.06.05-.09.08 0 .01-.01.01-.021.02-.05.08-.09.18-.1.31 0 .08-.02.17-.04.25-.04.14-.1.28-.16.41-.05.14-.01.3.07.43.03.05.07.09.11.13a.603.603 0 0 0-.23.01c-.05.01-.09.02-.14.02-.271.05-.551.06-.811.12a.31.31 0 0 0-.13.06h-.02c-.17 0-.301.08-.4.19-.17.22-.19.58 0 .76l.01.01c-.01.01-.01.01-.01.02-.17.21-.17.54 0 .75.09.1.22.17.4.17h1.83c.04 0 .09-.01.13-.02.149.04.319 0 .47-.15.79-.77 1.56-1.55 2.34-2.33.271-.27.18-.6-.04-.79a.498.498 0 0 0-.58-.09.552.552 0 0 0-.24-.28.365.365 0 0 0-.25-.07c-.05 0-.09 0-.149.02-.05.01-.101.03-.16.05-.16-.21-.47-.32-.7-.14-.06.04-.12.09-.18.14-.03.03-.061.05-.08.07-.01-.03-.03-.05-.05-.07-.141-.18-.391-.23-.601-.18a.4.4 0 0 0-.178.1m17.89-14.341c-.149.06-.29.19-.31.35-.02.11-.03.2-.03.29v.03a.158.158 0 0 0-.069.04c-.08.04-.15.09-.2.15-.04.03-.08.07-.101.11-.08.11-.14.24-.159.4-.021.05-.03.1-.03.15-.021.24.02.46.09.63-.11.07-.23.14-.34.21-.04.03-.07.05-.11.07h-.939c-.5 0-.65.56-.42.88.01.03.029.06.06.08-.62.51-1.21 1.07-1.75 1.66-.33.33-.64.67-.94 1.01-.06.06-.109.11-.149.17-.03.02-.05.05-.07.07-.09.02-.18.07-.26.17-.05.06-.09.1-.12.16-.01 0-.01.01-.01.01a.794.794 0 0 0-.141-.02.701.701 0 0 0-.42.11l-.01-.01c-.02-.01-.05-.02-.07-.03-.01 0-.01-.01-.029-.02a.204.204 0 0 0-.15-.06c-.07-.03-.149-.02-.229 0-.131.03-.24.1-.32.2-.01 0-.01.01-.021.02-.01.01-.02.03-.029.04a.201.201 0 0 0-.04.1c-.061.16-.021.32.06.46 0 .05.01.09.021.14-.07.06-.12.14-.15.23-.1.02-.2.07-.27.16h-.011c-.01.02-.029.03-.029.05a.353.353 0 0 0-.07.17c-.021.04-.021.09-.021.14 0 .02.011.03.011.05l-.21.21a.58.58 0 0 0-.28-.21c.04-.13.03-.25-.01-.36a.611.611 0 0 0-.261-.31c-.239-.15-.56-.13-.71.19a.3.3 0 0 1-.04.08c0 .01-.01.03-.02.04-.02.04-.04.09-.07.13-.08.18-.18.37-.3.55-.12.22-.27.44-.42.64-.01.02-.03.04-.04.05-.09.12-.18.24-.28.35-.05.03-.1.07-.159.09h-.011c-.06.05-.12.08-.189.11-.03 0-.07.02-.101.03l-.149.08a.456.456 0 0 0-.261.43c-.029.03-.06.07-.1.1-.04.02-.08.05-.13.07-.01.01-.021.02-.04.02-.06.04-.13.08-.2.11-.06.03-.12.07-.14.11-.09.08-.12.18-.13.28-.011.08.01.15.04.23.02.08.069.16.12.22.079.09.18.16.3.18a.46.46 0 0 0 .229-.02c.101-.03.19-.07.28-.12-.18.19-.38.38-.57.58h-.01l-.01.01v-.01c-.03-.07-.07-.14-.11-.2a.458.458 0 0 0-.189-.15c-.13-.06-.301-.05-.471.06-.01.01-.02.02-.029.02-.07.01-.15 0-.221 0-.149-.01-.3-.04-.46-.07a3.992 3.992 0 0 0-.67-.1h-.05c-.07 0-.14.01-.21.02h-.05c-.141.02-.25.1-.32.22-.01.02-.02.03-.03.05 0 .02-.01.03-.02.05-.04.12-.05.24-.021.35.011.01.011.02.021.03l-.01.01h-.061c-.069 0-.14.01-.189.03-.21.07-.311.25-.33.45-.04.25.09.53.37.6.05.01.1.02.149.02h2.361c.189.17.49.22.729-.02l3.78-3.78.561-.56c.04.23.239.42.46.47.159.03.33-.01.47-.15 1.939-1.95 3.89-3.9 5.84-5.85.07-.06.11-.13.13-.2h1.5c.061.1.15.18.25.23v-2.88l-1.34-.77-.193-.11z"/><path fill="#C0DDDD" d="M73.123 62.061h-.05v-.023c.048-.106.1-.213.157-.321.312-.604-.547-1.136-.904-.62a.805.805 0 0 0-.466.049 1.76 1.76 0 0 0-.526.156 16.253 16.253 0 0 0-.335-.403c-.087-.32-.325-.546-.81-.501-.049.004-.097.014-.142.022a1.507 1.507 0 0 0-.452.016.537.537 0 0 0-.64-.329c-.366.079-.597.324-.617.662-.082.113-.141.25-.184.396a3.25 3.25 0 0 1-.735.091c-.466.005-.623.484-.474.807-.671.037-.659 1.093.035 1.093h6.142c.707 0 .707-1.095.001-1.095z"/><path fill="none" d="M57.633 61.929h-.281c.051-.06.07-.12.091-.19.04-.15 0-.32-.16-.47-.03-.02-.05-.05-.08-.07-.11-.09-.22-.17-.33-.22a.177.177 0 0 0-.08-.05c-.15-.08-.31-.13-.49-.16-.05-.01-.09-.01-.14-.01h-.021c-.02 0-.04 0-.06.01-.01 0-.02-.01-.03-.01l-.06-.03h-.02c-.12-.06-.24-.1-.38-.13a.75.75 0 0 0-.16-.04c-.01 0-.03-.01-.04-.01-.02-.04-.05-.08-.08-.12l.01-.01c.01-.17-.01-.37-.09-.55-.01-.05-.04-.1-.06-.15a.935.935 0 0 0-.14-.19c0-.01 0-.01-.01-.01a.12.12 0 0 0-.05-.05c-.16-.14-.36-.2-.62-.1a.3.3 0 0 0-.11.06c-.04.01-.07.03-.11.05-.11.06-.21.14-.28.24-.02.01-.03.03-.04.04-.11-.07-.21-.13-.32-.2-.16-.09-.32-.19-.49-.27-.01-.01-.01-.01-.02-.01a.524.524 0 0 0-.16-.42l-.06-.06-.13-.13a1.77 1.77 0 0 0-.24-.34c-.04-.07-.1-.13-.16-.2a.474.474 0 0 0-.51-.15v.01c-.07.02-.13.05-.19.1a.996.996 0 0 1-.1-.11.503.503 0 0 0-.42-.15.913.913 0 0 0-.13-.08c-.08-.06-.16-.11-.24-.16-.11-.07-.21-.14-.31-.21a.673.673 0 0 1-.11-.07h-.01l-.21-.18c-.12-.11-.24-.21-.36-.31-.04-.05-.09-.1-.13-.15-.05-.06-.09-.11-.14-.16.02-.06.03-.12.03-.19-.03-.22-.08-.42-.16-.61.02-.15-.03-.3-.15-.43a.812.812 0 0 0-.1-.09c-.01-.02-.02-.03-.03-.03-.43-.4-.9-.58-1.5-.63h-.06c-.13 0-.23.04-.31.12-.05.04-.08.09-.11.15 0-.05 0-.09-.01-.14v-.01a.503.503 0 0 0-.14-.24l-.01-.01c-.12-.12-.23-.24-.35-.36-.23-.24-.45-.48-.64-.75-.01-.01-.02-.01-.02-.02a.555.555 0 0 0-.36-.24.605.605 0 0 0-.19 0c-.05-.11-.11-.2-.16-.31v-.01c-.05-.11-.11-.23-.16-.35-.02-.07-.05-.13-.07-.2-.04-.1-.07-.2-.1-.3a.525.525 0 0 0-.2-.29c-.04-.03-.09-.05-.14-.07.01-.09.01-.19.01-.29.05-.03.1-.07.13-.12.11-.12.17-.28.13-.47-.04-.2-.08-.4-.13-.6l-.09-.35a.508.508 0 0 0-.09-.18c-.19-.25-.53-.27-.77-.09-.2-.1-.48-.06-.64.09-.05.04-.09.09-.11.15-.13.01-.25.05-.33.15a.91.91 0 0 0-.18-.21.47.47 0 0 0-.12-.09.53.53 0 0 0-.28-.07.504.504 0 0 0-.38-.27h-.01a.81.81 0 0 0-.22 0 .666.666 0 0 0-.33-.15c-.02 0-.05-.01-.07-.01h-.04c0-.02-.01-.03-.01-.05v-.01c-.07-.34-.2-.65-.42-.91-.08-.09-.18-.17-.28-.24.03-.11.06-.21.08-.32.05-.1.12-.19.2-.29 0-.01.01-.01.01-.02.1-.16.08-.38-.03-.54a.546.546 0 0 0-.18-.19c-.03-.02-.06-.03-.09-.04-.02-.07-.05-.14-.08-.2-.08-.17-.21-.26-.36-.27 0-.01-.01-.02-.01-.02 0-.03 0-.06.01-.09 0-.1 0-.2-.01-.29 0-.05 0-.09-.01-.14v-.01a.88.88 0 0 0-.02-.17c0-.05 0-.1-.02-.15-.03-.18-.06-.35-.11-.52l-.06-.2c-.04-.31-.14-.61-.29-.87-.03-.06-.07-.12-.11-.18-.02-.04-.05-.07-.08-.11-.01-.02-.03-.03-.05-.04v-.01c-.02-.03-.06-.07-.09-.1a1.81 1.81 0 0 0-.3-.25.536.536 0 0 0-.26-.07c.07-.11.11-.26.08-.44-.01-.12-.05-.25-.13-.4a.784.784 0 0 0-.11-.18h-.01a.787.787 0 0 0-.18-.22c-.17-.14-.38-.22-.58-.24-.22-.02-.44.02-.63.12-.12-.09-.24-.18-.37-.26a.305.305 0 0 0-.1-.07c-.04-.04-.09-.06-.13-.09.08-.14.08-.29.03-.41a.59.59 0 0 0-.8-.29c-.13.06-.27.13-.39.2-.03-.01-.05-.03-.08-.04-.09-.06-.2-.1-.3-.15.08-.11.14-.24.17-.37.03-.12.04-.25.01-.37 0-.03 0-.05-.01-.08a.988.988 0 0 0-.15-.33c-.12-.19-.28-.36-.47-.49-.04-.04-.09-.07-.13-.1-.02-.03-.04-.07-.08-.1a.828.828 0 0 0-.11-.15c-.22-.23-.48-.34-.74-.35a.544.544 0 0 0-.18 0 1.3 1.3 0 0 0-.78.41.17.17 0 0 0-.06.06c-.02.01-.03.03-.04.04-.02-.02-.05-.04-.08-.06 0 0 0-.01-.01-.01-.02-.02-.05-.04-.08-.06.01-.04.01-.07.01-.1v-.01c.01-.01.01-.02.01-.03.01-.14-.01-.26-.04-.37l-.03-.29-.06-.59c.01-.06.01-.13.01-.19v-.01c.02-.34-.02-.68-.1-1.03v-.01c-.01-.03-.01-.04-.02-.07a.414.414 0 0 0-.14-.25.459.459 0 0 0-.27-.13.606.606 0 0 0-.45.1c-.26-.19-.55-.34-.83-.39-.17-.03-.32 0-.44.07-.11.02-.22.06-.31.14-.27-.14-.62-.02-.77.21a.44.44 0 0 0-.08.3l-.3-.3c-.05-.06-.1-.11-.16-.16.04-.13.03-.27-.01-.39a.5.5 0 0 0-.19-.24.486.486 0 0 0-.3-.09h-2.39c.02-.15.01-.29-.03-.44 0-.03-.02-.07-.03-.11-.01-.03.04-.43.02-.55a.644.644 0 0 0-.11-.27.953.953 0 0 0-.29-.31c0-.01-.01-.01-.02-.02-.17-.13-.37-.22-.55-.29a.185.185 0 0 0-.07-.02.076.076 0 0 0-.04-.02c-.03-.01-.06-.01-.09-.01a.469.469 0 0 0-.34.08c-.01 0-.01.01-.02.01a.51.51 0 0 0-.44.36v.01h-.01v.01c-.06.23-.15.46-.23.69H18.24a21.869 21.869 0 0 1-3.923 1.795.403.403 0 0 0 .205.135c.05.03.12.04.19.04h8.51v2.09c0 .27.16.43.36.5.08.11.22.19.41.19h5.19c.16 0 .28-.05.37-.14l8.68 8.68c.03.04.07.07.11.09.08.05.16.08.24.08.09 0 .19-.03.27-.08.01 0 .01-.01.02-.01v.26c0 .22.09.36.23.45-.01.04-.01.09-.01.14v.03c-.14.07-.25.18-.27.33-.17.9.02 1.85.47 2.66v.01c.02.05.05.1.08.15-.04 0-.08.01-.11.01a.59.59 0 0 0-.39.54.52.52 0 0 0 .36.5c.06.02.12.04.19.05.51.06 1.04.12 1.55.19l.2.03c.18.02.34-.09.44-.23a.562.562 0 0 0 .08-.51v-.01c-.09-.2-.29-.32-.52-.35.04 0 .08-.01.12-.03.17.11.38.12.56.03.04.02.09.04.13.06h.01c.05.02.1.04.15.05 0 .08.01.17.03.25.02.13.06.25.11.36-.07.16-.07.35.07.52.01.02.02.04.04.06l7.54 7.54.68.68 1.8 1.8c.14.14.31.18.46.15.06.21.22.39.51.39h4.23c.37 0 .55-.3.529-.59-.017-.251-.187-.501-.508-.51z"/><path fill="none" d="M33.244 39.269c.05.03.11.06.16.1.06.04.11.08.16.12m7.609 11.679h-.02"/><path fill="#C0DDDD" d="M14.273 36.769h-1.98l1.61-.92c.01-.01.02-.01.02-.01v-.01a.537.537 0 0 1-.21-.16h.56c.09 0 .17.02.24.06.461.209.381 1.04-.24 1.04z"/><path fill="#5B7070" d="M92.656 51.592l1.644 1.644c.499.5 1.275-.275.776-.775l-1.646-1.645c-.502-.5-1.275.275-.774.776zm1.227 5.425h1.022c.708 0 .708-1.098 0-1.098h-1.022c-.708-.001-.708 1.098 0 1.098z"/><path fill="#6C1C9B" d="M53.858 65.385v.731c0 .299.249.549.549.549.298 0 .548-.25.548-.549v-.731a.554.554 0 0 0-.548-.548c-.3 0-.549.25-.549.548zm-1.279.915c.708 0 .708-1.097 0-1.097-.707.001-.707 1.097 0 1.097z"/><path fill="#6C1C9B" d="M51.446 65.898v1.169c0 .708 1.096.708 1.096 0v-1.169c0-.706-1.096-.706-1.096 0z"/><path fill="#5B7070" d="M54.297 64.216v1.243c0 .706 1.098.706 1.098 0v-1.243c0-.707-1.098-.707-1.098 0zm-12.194 3.781L40.86 69.24c-.5.5.275 1.274.775.775l1.242-1.244c.502-.5-.274-1.275-.774-.774zm-5.57 1.849v1.243c0 .706 1.097.706 1.097 0v-1.243c-.001-.708-1.097-.708-1.097 0zm-6.58-1.463v2.193c0 .708 1.097.708 1.097 0v-2.193c-.001-.707-1.097-.707-1.097 0z"/><path fill="#5B7070" d="M29.809 71c.128.176.23.365.369.534.155.189.379.321.616.375a.559.559 0 0 0 .619-.251.553.553 0 0 0-.085-.665c-.152-.147-.341-.266-.513-.386-.086-.061-.173-.119-.258-.179l-.091-.065c-.038-.028-.092-.075.078.061-.045-.036-.009-.053.069.096v.553h.001l-.475.271a.509.509 0 0 1-.26-.069l.027.013c.033.02.066.038.099.056.26.148.599.063.75-.196a.554.554 0 0 0-.196-.75c-.13-.073-.265-.15-.42-.148-.179.001-.391.1-.472.271a.574.574 0 0 0 .086.666c.042.048.1.08.15.118.079.059.159.114.239.169.099.068.196.137.294.206.044.031.089.065.132.098-.171-.13-.053-.045-.016-.007l.534-.917c-.033-.007-.156-.051-.013.009a.525.525 0 0 1-.089-.051c.123.08.043.03.014 0-.082-.086.072.104.003.007-.087-.119-.157-.25-.244-.371-.177-.24-.472-.358-.75-.196-.239.137-.375.505-.198.748zM14.894 49.523v1.608c0 .707 1.096.707 1.096 0v-1.608c0-.707-1.096-.707-1.096 0zm6.561 9.852c-.328.071-.64.275-.923.45a8.7 8.7 0 0 0-1.019.733c-.542.456.238 1.227.775.775.397-.333 1.013-.804 1.458-.9.692-.151.399-1.207-.291-1.058z"/><path fill="#5B7070" d="M19.079 61v3.837c0 .708 1.097.708 1.097 0V61c0-.708-1.097-.708-1.097 0zm13.761-6.799h1.536c.707 0 .707-1.097 0-1.097H32.84c-.706 0-.706 1.097 0 1.097zm3.016.604h-.987a.553.553 0 0 0-.548.548c0 .298.25.548.548.548h.987c.299 0 .549-.25.549-.548 0-.3-.249-.548-.549-.548zm63.474-.091v.064a.577.577 0 0 0-.68-.1 1.506 1.506 0 0 0-.261.184.435.435 0 0 0-.347-.122c-.313-.244-.907-.109-.907.412v3.964c-.298.494.399 1.127.864.663l1.77-1.768c.304.054.658-.119.658-.521v-2.777c0-.707-1.097-.707-1.097.001zm2.263-9.646c.09-.2.2-.37.33-.49v3.7h-.6c-.25 0-.41-.13-.48-.31-.14-.32.021-.78.471-.79-.051-.35-.03-.9.069-1.42v-.01c.05-.24.12-.479.21-.68zm-7.037 7.949c.501.5 1.274-.274.773-.775l-.276-.278v-.759c0-.3-.251-.549-.549-.549s-.549.249-.549.549v.017c-.36.097-.623.572-.276.918.291.293.583.585.877.877zm.526 1.146a.542.542 0 0 0-.32-.107h-.806a.554.554 0 0 0-.549.548c0 .244.168.451.392.522a.55.55 0 0 0-.063.245v.731a.554.554 0 0 0 .658.536v.099c0 .708 1.098.708 1.098 0v-2.061a.504.504 0 0 0-.41-.513zm-5.658 13.141H86.8c-.907-.904-1.812-1.811-2.719-2.716.24-.316.104-.901-.414-.901h-9.322c-.707 0-.707 1.097 0 1.097h8.509c.019.096.064.19.151.277l3.032 3.034a.499.499 0 0 0 .268.266l.209.211c.309.308.723.13.876-.171h2.034c.706 0 .706-1.097 0-1.097zm-34.798-2.393h-2.568c-.338 0-.512.251-.528.513h-.926c-.707 0-.707 1.097 0 1.097h.855c-.019.233-.014.472-.014.693 0 .664.965.706 1.083.123a.948.948 0 0 0 1.091-.781.603.603 0 0 0-.16-.547h1.166c.708-.001.708-1.098.001-1.098zm5.337-1.097h-5.118c-.708 0-.708 1.096 0 1.096h5.118c.705.001.705-1.096 0-1.096zm-11.697 2.194h-2.627c-.311-.26-.918-.125-.918.4v1.354h-2.668c-.674 0-.704.992-.095 1.086a8.86 8.86 0 0 0-.439.463l-.014.02a.52.52 0 0 0-.329-.106H37.52c-.434 0-.601.411-.502.73h-6.294c.008-.179.008-.36.012-.538a.646.646 0 0 0 .021-.156v-.293c0-.627-.78-.684-1.025-.23-.181-.153-.432-.127-.618-.002-.303-.044-.594.15-.621.525-.076 1.02.359 2.026 1.221 2.594.276.18.749.015.807-.328.025-.159.038-.318.043-.476h6.519c.432 0 .6-.412.502-.729h3.592a.494.494 0 0 0 .404-.185c.211.152.533.151.714-.05.115-.127.235-.249.358-.368.096-.092.195-.18.296-.265.019-.013.084-.063.097-.071a.98.98 0 0 1 .163-.087c.169-.075.256-.255.266-.437h1.279c.173.515 1.064.454 1.064-.184v-1.572h2.45c.705.001.705-1.095-.002-1.095z"/><path fill="none" d="M15.923 51.389c.25.13.59.08.72-.2.15-.32.26-.63.33-.95.14-.06.26-.18.31-.35.03-.1.06-.19.09-.28.29.06.58-.12.64-.42.06-.02.12-.06.16-.11.14-.12.21-.3.2-.48a.549.549 0 0 0-.24-.43c-1.12-.77-2.01-1.93-3.19-2.61-.28-.48-.69-.85-1.14-1.19 0-.01 0-.01-.01-.02-.3-.57-.7-1-1.18-1.43-.01-.01-.02-.01-.03-.02-.1-.23-.26-.44-.48-.64a.709.709 0 0 0-.21-.11v-.3c0-.22-.1-.37-.24-.45-.32-.19-.85-.04-.85.45v2.7c0 .08.01.14.03.2-.06.18-.05.38.13.56l3.98 3.98.43.43c-.06.34-.03.72-.04.97-.02.27.16.45.38.51.01.01.01.02.03.03.041.069.111.12.18.16"/><path fill="none" d="M15.753 48.528c-.05-.05-.08-.09-.12-.13-.14-.14-.28-.27-.43-.4l.6.59c-.019-.02-.039-.04-.05-.06zm-3.17-3.159l.1.11v-.05a.977.977 0 0 1-.1-.06zm-.6-1.011l-.09-.09v.28c0 .05 0 .09-.01.13l.09.09c-.01-.12.03-.24.09-.35a.504.504 0 0 0-.08-.06z"/><path fill="#5B7070" d="M29.091 43.326a.519.519 0 0 0 .045-.329l.013-.127c.036-.377-.396-.61-.721-.53-.098-.183-.258-.312-.486-.312h-.072a.504.504 0 0 0-.244.061.589.589 0 0 0-.27-.171c-.012-.018-.023-.037-.037-.056-.21-.298-.702-.387-.918-.042a1.872 1.872 0 0 0-.359-.085c-.202-.026-.354.093-.448.251a.703.703 0 0 0-.158-.018 1.726 1.726 0 0 0-.757-.29c-.047-.047-.098-.095-.15-.148-.272-.276-.626-.169-.809.068l-.141-.142c-.501-.5-1.276.276-.775.776l1.681 1.681a.57.57 0 0 0 .097.079c.086.133.23.229.437.229h3.654c.516.002.654-.579.418-.895zm-6.445 20.929c-.17-.119-.368-.248-.569-.385a2.419 2.419 0 0 0-.306-.351.532.532 0 0 0-.349-.145 3.052 3.052 0 0 1-.209-.2c.552-.663.94-1.462.938-2.339-.001-.335-.354-.651-.694-.528-.104.037-.2.082-.293.131a1.075 1.075 0 0 0-.208-.046c-.356-.044-.596.242-.75.553-.544.731-.731 1.51-.266 2.373.035.064.078.123.119.185-.396-.058-.687.453-.498.832a.52.52 0 0 0 .033.451c.17.315.313.476.657.58.34.106.655-.164.688-.494.021-.003.042-.008.061-.012.213.146.458.257.731.344a.511.511 0 0 0 .331-.018l.031.016c.639.306 1.131-.539.553-.947zm8.714-11.534h1.535c.707 0 .707-1.097 0-1.097H31.36c-.707 0-.707 1.097 0 1.097zm1.422 1.429l1.645 1.645c.293.293.679.147.849-.123a.526.526 0 0 0 .312-.151c.192-.192.234-.59 0-.774a13.953 13.953 0 0 0-.307-.237 3.066 3.066 0 0 0-.205-.236c-.058-.08-.116-.16-.171-.239-.172-.244-.477-.358-.751-.196a.466.466 0 0 0-.076.056c-.174-.172-.346-.346-.52-.52-.501-.501-1.277.274-.776.775z"/><path fill="#190B3C" d="M87.643 99.478c.091.091.171.181.25.271-.09-.09-.18-.17-.27-.26l-.55.31-.15.09c-2.24-1.739-4.53-3.43-6.8-5.14-.62-.48-1.24-.95-1.86-1.42-.35-.26-.689-.53-1.04-.78-.149-.12-.3-.24-.449-.35-1.73-1.311-3.46-2.61-5.221-3.87-.6-.45-1.21-.88-1.819-1.3-2.631-1.86-5.32-3.641-8.091-5.28-1.729-1.03-3.63-2.35-4.38-4.32-.25-.66-.319-1.31-.21-1.92 0-.04.011-.08.021-.12.18-.87.689-1.649 1.47-2.279.88-.71 1.9-1.04 2.93-1.44.061-.03.13-.05.19-.08 1.04-.42 2.04-.96 2.96-1.59.57-.39 1.65-1.08 2.07-1.86.029-.06.06-.13.069-.189.07-.16.101-.32.09-.48-.01-.17-.029-.34-.039-.5-.061-.46-.12-.89-.051-1.31 0-.061.011-.11.021-.16.02-.05.03-.11.05-.16.07-.229.2-.45.4-.67.05-.05.1-.09.149-.12.13-.07.271-.07.4-.02.3.13.51.55.25.88-.01.01-.021.03-.03.04-.01.02-.03.029-.03.05a.894.894 0 0 0-.18.479l-.01.011c-.021.22-.01.46.02.71.04.439.13.91.07 1.29a.921.921 0 0 1-.04.17c0 .02 0 .04-.01.06-.21.63-.74 1.19-1.221 1.62-1.27 1.12-2.75 2-4.31 2.67-1.63.7-4.8 1.61-4.15 4.061.57 2.189 2.7 3.43 4.551 4.54h.01c.18.109.36.21.53.319.6.37 1.199.74 1.8 1.13 5.1 3.25 9.939 6.891 14.74 10.561 2.05 1.57 4.13 3.109 6.18 4.67.189.14.38.29.56.43.471.36.95.721 1.41 1.09l-.16.101-.12.065z"/><path fill="#190B3C" d="M65.774 64.708c-.04-.04-.07-.07-.12-.1-.061-.03-.12-.06-.19-.07h-.01c-.12-.02-.24 0-.351.1a.424.424 0 0 0-.069.06l-.01.01c-.2.23-.311.5-.37.79a.336.336 0 0 0-.03.14c-.021.101-.04.21-.06.311-.03.21-.051.42-.091.62-.08.37-.21.699-.529.909-.65.421-1.36.771-2.08 1.08h-.011c-.25.11-.5.221-.75.301a.58.58 0 0 1-.119.05c-.051.03-.11.05-.16.069-.181.07-.37.131-.55.2-1.301.46-2.7.63-4.04.92-1.641.351-3.26.811-4.891 1.23-.14.04-.28.07-.42.12h-.01c-.06.01-.11.029-.17.05-2.27.63-4.66 1.479-6.62 2.78-1.48.979-2.86 2.96-1.81 4.71.14.239.31.439.5.63.42.439.95.77 1.48 1.1.01 0 .03.01.04.01.31.2.62.391.91.601.01.01.02.02.03.02.29.221.56.45.79.73l.02.02c.12.15.24.311.34.49.85 1.48.09 2.75-1.09 3.67-.77.62-1.45 1.37-1.45 2.41.01 1.96 2.6 3.14 3.62 4.521 1.82 2.489 3.11 5.42 4.02 8.359 1.21 3.96 1.58 8.12 1.6 12.271v.239c0 .721-.01 1.44-.03 2.16-.01.48-.02.971-.05 1.45 0 .089-.004.181-.006.272.349.252.697.506 1.042.765.008-.029.024-.053.024-.087.01-.021.01-.03.01-.05.01-.15.01-.29.02-.44.02-.42.03-.85.04-1.28.09-2.85.05-5.72-.24-8.55-.08-.77-.18-1.54-.3-2.31v-.021c-.27-1.7-.65-3.39-1.16-5.05-.76-2.479-1.86-4.84-3.21-7.04-.01 0-.01-.01-.02-.02-.03-.061-.07-.12-.11-.181-.15-.25-.31-.489-.47-.729-.58-.87-1.32-1.53-2.09-2.221-.35-.319-.8-.689-1.12-1.1 0-.01 0-.01-.01-.01-.35-.46-.56-.97-.33-1.51.01-.011.01-.011.01-.021.03-.06.06-.11.09-.17.55-.92 1.66-1.3 2.23-2.24a3.365 3.365 0 0 0 .44-1.819c0-.011 0-.021-.01-.03a3.642 3.642 0 0 0-.36-1.51c-.93-1.891-2.73-2.28-4.1-3.69-.12-.13-.21-.26-.27-.39-.03-.05-.04-.101-.05-.141a.577.577 0 0 1-.05-.22c-.04-.28.02-.57.13-.86.01-.02.01-.05.02-.069.06-.141.13-.271.21-.4.09-.14.18-.29.29-.42.15-.17.29-.32.42-.45.12-.12.24-.229.38-.33.65-.52 1.46-.89 2.24-1.22.01 0 .02 0 .03-.01.11-.04.22-.09.32-.13h.01c.2-.08.38-.16.57-.24 2.11-.89 4.34-1.53 6.58-2.06.01-.011.02-.011.03-.011l.12-.029c.71-.171 1.42-.33 2.13-.49 1.13-.25 2.22-.48 3.29-.78.069-.02.149-.04.22-.06.89-.25 1.77-.551 2.649-.94.74-.34 1.721-.71 2.311-1.3.39-.39.42-.89.45-1.37.02-.36.04-.7.199-1 0-.02.011-.04.03-.05a.434.434 0 0 1 .11-.16c0-.01 0-.01.01-.021.09-.1.14-.22.14-.329.011-.011.011-.011.011-.021a.63.63 0 0 0-.169-.418zm-55.157 9.926h8.187c.708 0 .708-1.097 0-1.097h-8.187c-.707.001-.707 1.097 0 1.097z"/><path fill="#190B3C" d="M19.119 74.547l1.682-1.683c.5-.501-.275-1.275-.776-.774l-1.681 1.682c-.5.499.275 1.275.775.775z"/><path fill="#190B3C" d="M20.852 72.953h1.462c.707 0 .707-1.097 0-1.097h-1.462c-.707 0-.707 1.097 0 1.097z"/><path fill="#190B3C" d="M23.227 72.185v-.805a.553.553 0 0 0-.547-.548c-.3 0-.549.249-.549.548v.805c0 .3.249.549.549.549a.553.553 0 0 0 .547-.549z"/><path fill="#190B3C" d="M23.044 71.784h1.829c.707 0 .707-1.098 0-1.098h-1.829c-.706 0-.706 1.098 0 1.098z"/><path fill="#190B3C" d="M25.713 71.162v-.73c0-.3-.25-.55-.548-.55-.3 0-.549.25-.549.55v.73c0 .299.25.548.549.548a.554.554 0 0 0 .548-.548z"/><path fill="#190B3C" d="M25.384 70.906h2.12c.708 0 .708-1.097 0-1.097h-2.12c-.707 0-.707 1.097 0 1.097z"/><path fill="#190B3C" d="M27.555 70.599l1.39 1.389c.5.501 1.274-.275.775-.776-.465-.462-.926-.925-1.389-1.388-.501-.5-1.276.274-.776.775z"/><path fill="#190B3C" d="M29.844 72.294h6.872c.707 0 .707-1.096 0-1.096h-6.872c-.708.001-.708 1.096 0 1.096z"/><path fill="#190B3C" d="M37.25 72.134l1.023-1.023c.5-.501-.274-1.276-.775-.775l-1.024 1.023c-.501.5.275 1.275.776.775z"/><path fill="#190B3C" d="M38.25 71.199h3.363c.707 0 .707-1.098 0-1.098H38.25c-.707 0-.707 1.098 0 1.098z"/><path fill="#190B3C" d="M42.147 71.184c.462-.464.925-.926 1.389-1.39.5-.5-.275-1.275-.775-.775l-1.389 1.391c-.501.5.274 1.274.775.774z"/><path fill="#190B3C" d="M43.222 69.809h2.485c.707 0 .707-1.097 0-1.097h-2.485c-.707 0-.707 1.097 0 1.097z"/><path fill="#190B3C" d="M46.694 69.115v-1.17c0-.708-1.097-.708-1.097 0v1.17c0 .708 1.097.708 1.097 0z"/><path fill="#190B3C" d="M46.439 68.127h2.339c.707 0 .707-1.096 0-1.096h-2.339c-.708.001-.708 1.096 0 1.096z"/><path fill="#190B3C" d="M49.399 67.36v-1.242c0-.707-1.096-.707-1.096 0v1.242c0 .707 1.096.707 1.096 0z"/><path fill="#190B3C" d="M48.997 66.52h1.023c.708 0 .708-1.097 0-1.097h-1.023c-.708 0-.708 1.097 0 1.097z"/><path fill="#190B3C" d="M49.34 66.359l1.389 1.39c.501.501 1.276-.276.775-.776l-1.39-1.39c-.499-.5-1.274.276-.774.776z"/><path fill="#190B3C" d="M51.556 68.055h1.242c.706 0 .706-1.097 0-1.097h-1.242c-.708 0-.708 1.097 0 1.097z"/><path fill="#190B3C" d="M53.711 67.287v-.949c0-.3-.249-.549-.546-.549-.3 0-.548.249-.548.549v.949c0 .301.248.55.548.55a.553.553 0 0 0 .546-.55z"/><path fill="#190B3C" d="M53.676 67.032h1.314c.708 0 .708-1.097 0-1.097h-1.314c-.708 0-.708 1.097 0 1.097zm3.267-5.79l3.803 3.802c.498.5 1.275-.274.774-.775l-3.803-3.802c-.499-.502-1.275.274-.774.775z"/><path fill="#190B3C" d="M54.662 65.459v.73c0 .299.25.549.548.549.3 0 .548-.25.548-.549v-.73c0-.3-.248-.549-.548-.549a.555.555 0 0 0-.548.549z"/><path fill="#190B3C" d="M61.278 64.473h-5.773c-.708 0-.708 1.096 0 1.096h5.773c.707 0 .707-1.096 0-1.096zm-4.313-4.314h-1.024c-.707 0-.707 1.098 0 1.098h1.024c.706-.001.706-1.098 0-1.098z"/><path fill="#190B3C" d="M56.051 60.708v-1.096c0-.707-1.096-.707-1.096 0v1.096c.001.706 1.096.706 1.096 0z"/><path fill="#190B3C" d="M55.649 58.77h-1.681c-.708 0-.708 1.097 0 1.097h1.681c.708 0 .708-1.097 0-1.097z"/><path fill="#190B3C" d="M53.858 60.635v-2.632c0-.708-1.097-.708-1.097 0v2.632c0 .707 1.097.707 1.097 0z"/><path fill="#190B3C" d="M53.163 57.235h-1.754c-.708 0-.708 1.097 0 1.097h1.754c.708 0 .708-1.097 0-1.097z"/><path fill="#190B3C" d="M51.738 57.857v-1.024c0-.707-1.096-.707-1.096 0v1.024c0 .707 1.096.707 1.096 0z"/><path fill="#190B3C" d="M50.02 57.381h1.243c.707 0 .707-1.096 0-1.096H50.02c-.707 0-.707 1.096 0 1.096z"/><path fill="#190B3C" d="M48.96 55.005v1.9c0 .707 1.097.707 1.097 0v-1.9c0-.706-1.097-.706-1.097 0z"/><path fill="#190B3C" d="M49.435 54.092h-2.12c-.707 0-.707 1.097 0 1.097h2.12c.707-.001.707-1.097 0-1.097zm-7.895-4.606h3.363c.707 0 .707-1.097 0-1.097H41.54c-.707 0-.707 1.097 0 1.097z"/><path fill="#190B3C" d="M44.574 49.376v3.218c0 .706 1.097.706 1.097 0v-3.218c0-.707-1.097-.707-1.097 0z"/><path fill="#190B3C" d="M45.634 53.287h1.17c.708 0 .708-1.096 0-1.096h-1.17c-.708 0-.708 1.096 0 1.096z"/><path fill="#190B3C" d="M46.475 52.886v1.242c0 .708 1.096.708 1.096 0v-1.242c0-.708-1.096-.708-1.096 0zm-4.693-4.628l-.95-.95c-.5-.502-1.275.274-.776.774l.95.951c.501.501 1.276-.275.776-.775z"/><path fill="#190B3C" d="M40.759 47.863l1.096-1.097c.501-.499-.275-1.275-.775-.775l-1.096 1.097c-.502.5.274 1.276.775.775z"/><path fill="#190B3C" d="M41.709 45.918l-1.391-1.39c-.499-.5-1.275.276-.774.776l1.39 1.388c.5.503 1.274-.273.775-.774z"/><path fill="#190B3C" d="M40.334 44.844V43.09c0-.709-1.097-.709-1.097 0v1.754c0 .707 1.097.707 1.097 0z"/><path fill="#190B3C" d="M39.64 42.175h-.95a.553.553 0 0 0-.548.549c0 .298.25.549.548.549h.95c.299 0 .548-.25.548-.549 0-.3-.249-.549-.548-.549z"/><path fill="#190B3C" d="M39.091 42.797v-1.608c0-.708-1.096-.708-1.096 0v1.608c0 .707 1.096.707 1.096 0z"/><path fill="#190B3C" d="M38.177 40.567h-1.242c-.708 0-.708 1.097 0 1.097h1.242c.708.001.708-1.097 0-1.097z"/><path fill="#190B3C" d="M37.41 41.262v-1.17c0-.707-1.097-.707-1.097 0v1.17c0 .707 1.097.707 1.097 0z"/><path fill="#190B3C" d="M36.862 39.397h-1.755c-.707 0-.707 1.097 0 1.097h1.755c.707.001.707-1.097 0-1.097z"/><path fill="#190B3C" d="M35.29 39.873v-1.9c0-.707-1.097-.707-1.097 0v1.9c0 .707 1.097.707 1.097 0z"/><path fill="#190B3C" d="M34.742 37.277h-2.267c-.707 0-.707 1.097 0 1.097h2.267c.707.001.707-1.097 0-1.097z"/><path fill="#190B3C" d="M32.95 37.899v-1.754c0-.707-1.096-.707-1.096 0v1.754c0 .707 1.096.707 1.096 0z"/><path fill="#190B3C" d="M32.475 35.597h-.584a.554.554 0 0 0-.549.548c0 .298.25.548.549.548h.584c.299 0 .548-.25.548-.548a.553.553 0 0 0-.548-.548z"/><path fill="#190B3C" d="M32.365 36.145v-1.17c0-.707-1.096-.707-1.096 0v1.17c.001.707 1.096.707 1.096 0z"/><path fill="#190B3C" d="M31.67 34.208h-5.043c-.707 0-.707 1.096 0 1.096h5.043c.708 0 .708-1.096 0-1.096z"/><path fill="#190B3C" d="M23.389 32.365l2.631 2.631c.501.501 1.276-.274.775-.775l-2.631-2.631c-.501-.501-1.276.275-.775.775z"/><path fill="#190B3C" d="M23.315 31.517c-.755.754-1.511 1.51-2.266 2.267-.501.5.274 1.276.775.776l2.265-2.268c.502-.501-.273-1.276-.774-.775z"/><path fill="#190B3C" d="M22.313 32.528h-2.487c-.123.09-.241.185-.369.27-.431.288-.88.559-1.338.821h4.194c.04 0 .08 0 .12-.01.06-.01.11-.03.15-.06.24-.13.32-.44.22-.69a.501.501 0 0 0-.49-.331zm-10.914 9.779c2.363 2.364 4.728 4.727 7.091 7.092.501.5 1.276-.274.776-.776l-7.092-7.091c-.5-.501-1.275.275-.775.775z"/><path fill="#190B3C" d="M19.441 47.527a7347.643 7347.643 0 0 0-3.948 3.948c-.501.5.274 1.274.775.775l3.947-3.949c.501-.5-.274-1.275-.774-.774zm3.969-5.644h3.363c.707 0 .707-1.097 0-1.097H23.41c-.707 0-.707 1.097 0 1.097z"/><path fill="#190B3C" d="M26.239 40.699l1.974 1.973c.501.501 1.276-.274.775-.774a1836.91 1836.91 0 0 0-1.974-1.974c-.5-.501-1.275.275-.775.775zm12.742 5.132h-5.118c-.707 0-.707 1.098 0 1.098h5.118c.707-.001.707-1.098 0-1.098zm-6.945 7.895h1.974c.708 0 .708-1.097 0-1.097h-1.974c-.707 0-.707 1.097 0 1.097z"/><path fill="#190B3C" d="M32.892 52.323l2.851 2.851c.501.502 1.276-.273.775-.775l-2.85-2.85c-.501-.503-1.277.273-.776.774zm9.869-1.872l-3.656 3.655c-.5.5.275 1.275.775.775 1.219-1.218 2.438-2.437 3.655-3.656.502-.499-.274-1.274-.774-.774zm7.333 9.562h-3.948c-.707 0-.707 1.097 0 1.097h3.948c.706 0 .706-1.097 0-1.097z"/><path fill="#190B3C" d="M46.547 60.927v1.023c0 .707 1.097.707 1.097 0v-1.023c.001-.707-1.097-.707-1.097 0zm-5.345-9.083h-1.59c-.707 0-.707 1.097 0 1.097h1.59c.707-.001.707-1.097 0-1.097zm-5.4-5.099v1.15c0 .707 1.096.707 1.096 0v-1.15c0-.707-1.096-.707-1.096 0zM24.58 64.837h-4.606c-.707 0-.707 1.098 0 1.098h4.606c.707 0 .707-1.098 0-1.098z"/><path fill="#190B3C" d="M23.651 64.414l-2.193-2.193c-.5-.501-1.275.274-.775.775.731.731 1.462 1.463 2.193 2.192.501.502 1.276-.274.775-.774z"/><path fill="#190B3C" d="M22.715 63.34v-3.437c0-.707-1.096-.707-1.096 0v3.437c.001.706 1.096.706 1.096 0zm-8.59-8.372h-3.143c-.707 0-.707 1.097 0 1.097h3.143c.708 0 .708-1.097 0-1.097zm14.658 14.951v-2.778c0-.708-1.097-.708-1.097 0v2.778c.001.707 1.097.707 1.097 0z"/><path fill="#190B3C" d="M28.381 68.712h2.12c.707 0 .707-1.096 0-1.096h-2.12c-.707.001-.707 1.096 0 1.096zm6.507-.146h2.267c.707 0 .707-1.097 0-1.097h-2.267c-.707 0-.707 1.097 0 1.097zm26.17-3.07h12.429c.709 0 .709-1.096 0-1.096H61.058c-.705-.001-.705 1.096 0 1.096z"/><path fill="#190B3C" d="M65.774 61.366v3.363c0 .707 1.097.707 1.097 0v-3.363c0-.707-1.097-.707-1.097 0z"/><path fill="#190B3C" d="M66.303 61.85h1.536c.708 0 .708-1.097 0-1.097h-1.536c-.705 0-.705 1.097 0 1.097z"/><path fill="#190B3C" d="M68.69 61.402v-1.389c0-.707-1.097-.707-1.097 0v1.389c0 .707 1.097.707 1.097 0z"/><path fill="#190B3C" d="M68.151 60.452h3.216c.708 0 .708-1.097 0-1.097h-3.216c-.709 0-.709 1.097 0 1.097z"/><path fill="#190B3C" d="M70.747 59.977v1.315c0 .707 1.097.707 1.097 0v-1.315c-.001-.707-1.097-.707-1.097 0z"/><path fill="#190B3C" d="M71.439 60.963h1.976c.706 0 .706-1.096 0-1.096h-1.976c-.705 0-.705 1.096 0 1.096z"/><path fill="#190B3C" d="M74.263 64.893v-6.744c0-.707-1.096-.707-1.096 0v6.744c0 .708 1.096.708 1.096 0z"/><path fill="#190B3C" d="M74.131 58.564c.858-.86 1.718-1.718 2.577-2.577.501-.499-.275-1.275-.777-.775l-2.577 2.577c-.499.501.276 1.276.777.775z"/><path fill="#190B3C" d="M76.402 56.121h3.18c.708 0 .708-1.098 0-1.098h-3.18c-.706 0-.706 1.098 0 1.098z"/><path fill="#190B3C" d="M80.542 57.245V52.72c0-.706-1.097-.706-1.097 0v4.524c0 .707 1.097.707 1.097.001z"/><path fill="#190B3C" d="M80.103 53.187h1.755c.706 0 .706-1.098 0-1.098h-1.755c-.708 0-.708 1.098 0 1.098z"/><path fill="#190B3C" d="M82.68 52.776v-1.425c0-.708-1.097-.708-1.097 0v1.425c0 .707 1.097.707 1.097 0z"/><path fill="#190B3C" d="M82.351 51.68h2.714c.708 0 .708-1.098 0-1.098h-2.714c-.708 0-.708 1.098 0 1.098z"/><path fill="#190B3C" d="M85.696 51.898v-1.892c0-.707-1.097-.707-1.097 0v1.892c0 .707 1.097.707 1.097 0z"/><path fill="#190B3C" d="M85.562 50.121c.31-.311.623-.621.934-.932a.555.555 0 0 0 0-.775.554.554 0 0 0-.777 0c-.312.31-.62.621-.931.932a.554.554 0 0 0 0 .775c.211.21.562.21.774 0z"/><path fill="#190B3C" d="M86.135 49.376h1.863c.708 0 .708-1.097 0-1.097h-1.863c-.708.001-.708 1.097 0 1.097z"/><path fill="#190B3C" d="M88.876 48.828v-.959a.554.554 0 0 0-.549-.548.554.554 0 0 0-.549.548v.959c0 .299.25.549.549.549.298 0 .549-.25.549-.549z"/><path fill="#190B3C" d="M88.907 47.982l1.646-1.645c.498-.5-.276-1.276-.777-.776l-1.645 1.646c-.499.501.275 1.276.776.775z"/><path fill="#190B3C" d="M91.014 46.087v-1.234c0-.707-1.098-.707-1.098 0v1.234c.001.706 1.098.706 1.098 0z"/><path fill="#190B3C" d="M90.466 45.264h2.357c.706 0 .706-1.097 0-1.097h-2.357c-.709 0-.709 1.097 0 1.097z"/><path fill="#190B3C" d="M93.482 44.716v-.905c0-.707-1.098-.707-1.098 0v.905c0 .707 1.098.707 1.098 0z"/><path fill="#190B3C" d="M93.043 44.085h1.616c.708 0 .708-1.097 0-1.097h-1.616c-.709 0-.709 1.097 0 1.097z"/><path fill="#190B3C" d="M98.795 38.654l-4.439 4.44c-.501.501.272 1.276.773.776l4.44-4.442c.502-.5-.273-1.275-.774-.774z"/><path fill="#190B3C" d="M99.787 39.069v-.987a.553.553 0 0 0-.548-.548c-.3 0-.549.249-.549.548v.987c0 .299.249.549.549.549.298 0 .548-.25.548-.549z"/><path fill="#190B3C" d="M100.393 37.258l.19.11-.53.53-.069.07-.141.14c-.02.02-.04.04-.06.05a.364.364 0 0 1-.101.07c-.149.07-.3.06-.43 0-.03-.02-.06-.03-.08-.05-.17-.12-.29-.33-.25-.54.01-.1.061-.21.15-.3l.54-.54.45.26.039.03.292.17zm1.53 6.66v1.56l-.109.11-.011.01a.523.523 0 0 1-.42.16v-.01c-.3-.03-.56-.33-.51-.64.01-.1.06-.2.15-.29.301-.299.601-.6.9-.9z"/><path fill="#190B3C" d="M100.718 45.502v2.12c0 .707 1.098.707 1.098 0v-2.12c0-.708-1.098-.708-1.098 0zm-7.75 9.064v1.609c0 .707 1.097.707 1.097 0v-1.609c0-.705-1.097-.705-1.097 0zm4.681 1.463v-1.461c0-.708-1.098-.708-1.098 0v1.461c0 .707 1.098.707 1.098 0z"/><path fill="#190B3C" d="M97.246 54.896h2.339c.708 0 .708-1.097 0-1.097h-2.339c-.706 0-.706 1.097 0 1.097zm-4.093-3.729h1.021c.709 0 .709-1.097 0-1.097h-1.021c-.708 0-.708 1.097 0 1.097zM76.922 62.571h2.121c.708 0 .708-1.096 0-1.096h-2.121c-.707.001-.707 1.096 0 1.096zm-3.288 2.779h8.188c.707 0 .707-1.096 0-1.096h-8.188c-.709 0-.709 1.096 0 1.096z"/><path fill="#190B3C" d="M81.58 65.263l3.508 3.508c.501.5 1.277-.274.776-.774l-3.511-3.509c-.499-.502-1.272.274-.773.775z"/><path fill="#190B3C" d="M85.841 69.517h3.729c.707 0 .707-1.096 0-1.096h-3.729c-.707 0-.707 1.096 0 1.096zm17.076 19.409c-.002-.006-.001-.012-.004-.018a.439.439 0 0 0-.29-.271.392.392 0 0 0-.19-.04h-5.63c-.71 0-.71 1.101 0 1.101h5.63c.101 0 .19-.021.261-.07.1-.05.18-.14.22-.24.003-.006.002-.012.004-.018v-.444z"/><path fill="#190B3C" d="M100.06 88.78v-4.313c0-.706-1.097-.706-1.097 0v4.313c0 .707 1.097.707 1.097 0z"/><path fill="#190B3C" d="M99.292 85.088h-6.651c-.708 0-.708 1.097 0 1.097h6.651c.708 0 .708-1.097 0-1.097z"/><path fill="#190B3C" d="M95.382 85.417V81.03c0-.707-1.098-.707-1.098 0v4.387c.001.707 1.098.707 1.098 0z"/><path fill="#190B3C" d="M95.295 83.612c1.339-1.34 2.678-2.681 4.02-4.021.501-.5-.275-1.275-.776-.774l-4.02 4.021c-.501.499.275 1.274.776.774z"/><path fill="#190B3C" d="M102.293 80.779h-4.24c-.22 0-.37-.11-.45-.25-.119-.21-.1-.5.051-.681a.53.53 0 0 1 .399-.17h4.24c.701 0 .701 1.101 0 1.101z"/><path fill="#190B3C" d="M101.742 79.935v-4.168c0-.706-1.095-.706-1.095 0v4.168c0 .706 1.095.706 1.095 0z"/><path fill="#190B3C" d="M100.352 80.812v2.047c0 .706 1.098.706 1.098 0v-2.047c0-.707-1.098-.707-1.098 0zm-2.703-.513v-5.994c0-.707-1.098-.707-1.098 0v5.994c0 .707 1.098.707 1.098 0z"/><path fill="#190B3C" d="M96.515 76.023h-7.751c-.706 0-.706 1.098 0 1.098h7.751c.707 0 .707-1.098 0-1.098z"/><path fill="#190B3C" d="M92.458 76.352v-5.775c0-.707-1.095-.707-1.095 0v5.775c0 .707 1.095.707 1.095 0z"/><path fill="#190B3C" d="M91.983 73.172h2.923c.708 0 .708-1.097 0-1.097h-2.923c-.708.001-.708 1.097 0 1.097zm1.586 3.451c-1.681 1.681-3.361 3.362-5.045 5.044-.501.5.275 1.276.776.776l5.043-5.045c.501-.5-.273-1.276-.774-.775zm8.354 7.376v.64a.614.614 0 0 1 0-.64zM84.05 81.031v-5.044c0-.708-1.097-.708-1.097 0v5.044c.001.706 1.097.706 1.097 0z"/><path fill="#190B3C" d="M82.991 78.728h-6.287c-.708 0-.708 1.097 0 1.097h6.287c.708 0 .708-1.097 0-1.097z"/><path fill="#190B3C" d="M79.751 79.036l-3.435 3.435c-.501.501.272 1.275.773.774 1.146-1.144 2.292-2.289 3.437-3.435.502-.5-.274-1.275-.775-.774zm-2.097.641h.137c.708 0 .708-1.096 0-1.096h-.137c-.708.001-.708 1.096 0 1.096h.137c.708 0 .708-1.096 0-1.096h-.137c-.708.001-.708 1.096 0 1.096z"/><path fill="#190B3C" d="M78.275 78.911v-2.924c0-.708-1.098-.708-1.098 0v2.924c0 .707 1.098.707 1.098 0z"/><path fill="#190B3C" d="M77.435 76.901H66.25c-.709 0-.709 1.096 0 1.096h11.185c.707 0 .707-1.096 0-1.096z"/><path fill="#190B3C" d="M71.783 77.573L69.955 79.4c-.499.5.276 1.277.777.775l1.825-1.828c.504-.5-.272-1.274-.774-.774zm1.975-.073l-2.34 2.339c-.501.5.273 1.276.774.775l2.34-2.339c.502-.5-.276-1.276-.774-.775zm-7.178.534v2.997c0 .706 1.097.706 1.097 0v-2.997c-.001-.708-1.097-.708-1.097 0zm4.825-.877v-2.651c0-.706-1.098-.706-1.098 0v.092c0 .708 1.098.708 1.098 0v-1.901c0-.706-1.098-.706-1.098 0v1.901c0 .708 1.098.708 1.098 0v-.092c0-.706-1.098-.706-1.098 0v2.651c0 .707 1.098.707 1.098 0z"/><path fill="#190B3C" d="M70.637 74.707h-2.341c-.707 0-.707 1.098 0 1.098h2.341c.705-.001.705-1.098 0-1.098zm.972-.379l5.921-5.922c.501-.5-.275-1.275-.774-.775l-5.922 5.923c-.501.498.274 1.274.775.774z"/><path fill="#190B3C" d="M73.267 72.879h8.188c.708 0 .708-1.097 0-1.097h-8.188c-.705.001-.705 1.097 0 1.097z"/><path fill="#190B3C" d="M74.986 73.063v2.412c0 .707 1.097.707 1.097 0v-2.412c0-.708-1.097-.708-1.097 0zm2.573-.125l3.069 3.069c.501.502 1.278-.274.777-.773-1.025-1.023-2.048-2.048-3.073-3.07-.499-.501-1.274.273-.773.774zm2.691-1.046v-2.34c0-.706-1.098-.706-1.098 0v2.34c.001.708 1.098.708 1.098 0z"/><path fill="#190B3C" d="M80.065 70.906h2.706c.709 0 .709-1.098 0-1.098h-2.706c-.705 0-.705 1.098 0 1.098zm4.243 7.457h1.313c.708 0 .708-1.097 0-1.097h-1.313c-.709 0-.709 1.097 0 1.097zm-3.474 1.643v4.753c0 .707 1.097.707 1.097 0v-4.753c0-.706-1.097-.706-1.097 0zm3.569-3.559l3.434-3.436c.501-.5-.272-1.275-.773-.775l-3.438 3.437c-.501.499.276 1.274.777.774z"/><path fill="#190B3C" d="M86.667 73.259l-1.462-1.463c-.501-.5-1.275.276-.774.778l1.462 1.46c.501.502 1.275-.275.774-.775z"/><path fill="#190B3C" d="M87.158 73.464h2.777c.709 0 .709-1.097 0-1.097h-2.777c-.708.001-.708 1.097 0 1.097zm2.581-4.035l.584-.585c.212-.212.212-.564 0-.775s-.563-.211-.773 0l-.586.585a.552.552 0 0 0 0 .775c.209.21.564.21.775 0z"/><path fill="#190B3C" d="M90.083 68.787h8.626c.706 0 .706-1.098 0-1.098h-8.626c-.708 0-.708 1.098 0 1.098z"/><path fill="#190B3C" d="M102.917 71.752c-.331-.333-.66-.667-.994-.994-.899-.91-1.81-1.819-2.72-2.72l-.04-.04a.517.517 0 0 0-.28-.15c-.26-.05-.52.13-.609.37-.07.17-.051.38.119.55l.021.021c.83.83 1.65 1.65 2.47 2.479.03.021.061.051.09.08.32.32.63.641.95.95.24.24.47.48.71.71l.22.22c.02.02.044.02.064.035v-1.511zm-36.63-9.765h-6.689c-.708 0-.708 1.097 0 1.097h6.689c.707 0 .707-1.097 0-1.097zM27.793 88.529c-5.33.029-10.89 1.439-15.72 3.989h-.01l-1.1-.64c5.13-2.82 11.06-4.41 16.83-4.45.71 0 .71 1.09 0 1.101zm-15.31-5.511c-.89.19-1.74.471-2.56.83v-1.189c.73-.29 1.49-.53 2.27-.69.681-.15.98.909.29 1.049zm2.593-.964c.707 0 .707-1.096 0-1.096s-.707 1.096 0 1.096zm22.955 20.104c.707 0 .707-1.097 0-1.097s-.707 1.097 0 1.097zm-7.69 3.16c.404-.528.845-1.035 1.332-1.479 1.15-1.05 2.52-1.78 4.13-1.72.7.03.7-1.07 0-1.09-2.03-.08-3.71.899-5.09 2.25a13.708 13.708 0 0 0-1.355 1.572c.329.154.655.312.983.467z"/><path opacity=".13" d="M9.826 38.141v53.121l46.072 26.559 46.074-26.559V38.141L55.898 11.58 9.826 38.141zm90.281 1.08v50.971l-44.209 25.489-44.211-25.489V39.221l44.211-25.489 44.209 25.489z"/></svg>