<svg xmlns="http://www.w3.org/2000/svg" xmlns:xlink="http://www.w3.org/1999/xlink" viewBox="0 0 112.88 128"><defs><style>.cls-1{fill:none;}.cls-2{fill:#9acdc0;}.cls-3{stroke:#c7ddcf;stroke-width:1.12px;fill:url(#linear-gradient);}.cls-3,.cls-39{stroke-miterlimit:10;}.cls-4{opacity:0.05;}.cls-5{clip-path:url(#clip-path);}.cls-38,.cls-39,.cls-44,.cls-6{fill:#fff;}.cls-7{fill:#d94f38;}.cls-8{fill:#6a3e79;}.cls-9{fill:#221f1f;opacity:0.25;}.cls-10{fill:url(#linear-gradient-2);}.cls-11{fill:url(#linear-gradient-3);}.cls-12,.cls-36,.cls-37,.cls-40{fill:#a32f2e;}.cls-12{opacity:0.65;}.cls-13{fill:url(#linear-gradient-4);}.cls-14{fill:url(#linear-gradient-5);}.cls-15{fill:url(#linear-gradient-6);}.cls-16{fill:url(#linear-gradient-7);}.cls-17{fill:url(#linear-gradient-8);}.cls-18{fill:url(#linear-gradient-9);}.cls-19{fill:url(#linear-gradient-10);}.cls-20{fill:url(#linear-gradient-11);}.cls-21{fill:url(#linear-gradient-12);}.cls-22{fill:url(#linear-gradient-13);}.cls-23{fill:url(#linear-gradient-14);}.cls-24{fill:url(#linear-gradient-15);}.cls-25{fill:url(#linear-gradient-16);}.cls-26{fill:url(#linear-gradient-17);}.cls-27{fill:url(#linear-gradient-18);}.cls-28,.cls-31{fill:#99cec0;}.cls-28,.cls-32,.cls-33,.cls-44{opacity:0.2;}.cls-29{fill:url(#linear-gradient-19);}.cls-30{fill:url(#linear-gradient-20);}.cls-34{fill:url(#linear-gradient-21);}.cls-35{fill:url(#linear-gradient-22);}.cls-37{opacity:0.5;}.cls-38{opacity:0.9;}.cls-39{stroke:#fff;}.cls-40{opacity:0.4;}.cls-41{fill:#c0dfd6;}.cls-42{fill:url(#linear-gradient-23);}.cls-43{fill:url(#linear-gradient-24);}.cls-45{fill:#69abdb;}</style><linearGradient id="linear-gradient" x1="13.44" y1="105.12" x2="109.55" y2="15.33" gradientUnits="userSpaceOnUse"><stop offset="0.13" stop-color="#3b8384"/><stop offset="0.85" stop-color="#62969b"/></linearGradient><clipPath id="clip-path"><polygon class="cls-1" points="102.83 90.2 102.83 37.8 57.45 11.6 12.07 37.8 12.07 90.2 57.45 116.4 102.83 90.2"/></clipPath><linearGradient id="linear-gradient-2" x1="34.63" y1="59.9" x2="38.31" y2="63.1" gradientUnits="userSpaceOnUse"><stop offset="0" stop-color="#69abdb"/><stop offset="0.2" stop-color="#a7a9cf"/><stop offset="0.37" stop-color="#d7a7c6"/><stop offset="0.45" stop-color="#e9a6c3"/><stop offset="0.51" stop-color="#e8a2b6"/><stop offset="0.62" stop-color="#e79992"/><stop offset="0.77" stop-color="#e48a5a"/><stop offset="0.83" stop-color="#e38442"/></linearGradient><linearGradient id="linear-gradient-3" x1="52.84" y1="42.79" x2="75.06" y2="37.24" gradientUnits="userSpaceOnUse"><stop offset="0" stop-color="#e9a6c5"/><stop offset="0.09" stop-color="#e79b99"/><stop offset="0.2" stop-color="#e58e6a"/><stop offset="0.29" stop-color="#e3874d"/><stop offset="0.34" stop-color="#e38442"/><stop offset="0.58" stop-color="#aa9689"/><stop offset="0.8" stop-color="#7ba5c4"/><stop offset="0.91" stop-color="#69abdb"/></linearGradient><linearGradient id="linear-gradient-4" x1="78.13" y1="28.91" x2="58.02" y2="68.08" gradientUnits="userSpaceOnUse"><stop offset="0" stop-color="#e9a6c5"/><stop offset="0.14" stop-color="#e79b99"/><stop offset="0.3" stop-color="#e58e6a"/><stop offset="0.43" stop-color="#e3874d"/><stop offset="0.5" stop-color="#e38442"/><stop offset="0.57" stop-color="#df8547"/><stop offset="0.65" stop-color="#d38956"/><stop offset="0.74" stop-color="#c08f6e"/><stop offset="0.84" stop-color="#a49891"/><stop offset="0.94" stop-color="#82a3bc"/><stop offset="1" stop-color="#69abdb"/></linearGradient><linearGradient id="linear-gradient-5" x1="77.74" y1="28.71" x2="57.63" y2="67.88" xlink:href="#linear-gradient-4"/><linearGradient id="linear-gradient-6" x1="78.51" y1="29.11" x2="58.4" y2="68.27" xlink:href="#linear-gradient-4"/><linearGradient id="linear-gradient-7" x1="77.94" y1="28.82" x2="57.83" y2="67.98" xlink:href="#linear-gradient-4"/><linearGradient id="linear-gradient-8" x1="76.22" y1="27.93" x2="56.11" y2="67.1" xlink:href="#linear-gradient-4"/><linearGradient id="linear-gradient-9" x1="91.67" y1="35.87" x2="71.56" y2="75.03" xlink:href="#linear-gradient-4"/><linearGradient id="linear-gradient-10" x1="78.33" y1="29.02" x2="58.22" y2="68.18" xlink:href="#linear-gradient-4"/><linearGradient id="linear-gradient-11" x1="77.59" y1="28.63" x2="57.47" y2="67.8" xlink:href="#linear-gradient-4"/><linearGradient id="linear-gradient-12" x1="81.77" y1="30.78" x2="61.66" y2="69.95" xlink:href="#linear-gradient-4"/><linearGradient id="linear-gradient-13" x1="80.21" y1="29.98" x2="60.09" y2="69.14" xlink:href="#linear-gradient-4"/><linearGradient id="linear-gradient-14" x1="80.58" y1="30.17" x2="60.47" y2="69.33" xlink:href="#linear-gradient-4"/><linearGradient id="linear-gradient-15" x1="82.27" y1="31.04" x2="62.16" y2="70.2" xlink:href="#linear-gradient-4"/><linearGradient id="linear-gradient-16" x1="80.94" y1="30.36" x2="60.83" y2="69.52" xlink:href="#linear-gradient-4"/><linearGradient id="linear-gradient-17" x1="81.61" y1="30.7" x2="61.5" y2="69.87" xlink:href="#linear-gradient-4"/><linearGradient id="linear-gradient-18" x1="88.83" y1="34.41" x2="68.72" y2="73.57" xlink:href="#linear-gradient-4"/><linearGradient id="linear-gradient-19" x1="84.75" y1="32.32" x2="64.64" y2="71.48" xlink:href="#linear-gradient-4"/><linearGradient id="linear-gradient-20" x1="83.79" y1="31.82" x2="63.67" y2="70.98" xlink:href="#linear-gradient-4"/><linearGradient id="linear-gradient-21" x1="34.15" y1="69.88" x2="64.94" y2="58.67" gradientUnits="userSpaceOnUse"><stop offset="0.23" stop-color="#e9a6c5"/><stop offset="0.29" stop-color="#e79b99"/><stop offset="0.36" stop-color="#e58e6a"/><stop offset="0.42" stop-color="#e3874d"/><stop offset="0.45" stop-color="#e38442"/><stop offset="0.51" stop-color="#d9874e"/><stop offset="0.62" stop-color="#c08f6e"/><stop offset="0.76" stop-color="#979ca1"/><stop offset="0.91" stop-color="#69abdb"/></linearGradient><linearGradient id="linear-gradient-22" x1="27.99" y1="57.56" x2="60.1" y2="47.59" gradientUnits="userSpaceOnUse"><stop offset="0.17" stop-color="#e9a6c5"/><stop offset="0.37" stop-color="#e69585"/><stop offset="0.54" stop-color="#e48955"/><stop offset="0.63" stop-color="#e38442"/><stop offset="0.66" stop-color="#dc864b"/><stop offset="0.71" stop-color="#c88d64"/><stop offset="0.78" stop-color="#a7978d"/><stop offset="0.86" stop-color="#7ba5c5"/><stop offset="0.89" stop-color="#69abdb"/></linearGradient><linearGradient id="linear-gradient-23" x1="46.65" y1="35.86" x2="51.35" y2="34.6" gradientUnits="userSpaceOnUse"><stop offset="0.05" stop-color="#e9a6c5"/><stop offset="0.24" stop-color="#e69585"/><stop offset="0.41" stop-color="#e48955"/><stop offset="0.49" stop-color="#e38442"/><stop offset="0.56" stop-color="#db874d"/><stop offset="0.67" stop-color="#c48e69"/><stop offset="0.81" stop-color="#9f9a97"/><stop offset="0.99" stop-color="#6daad6"/><stop offset="1" stop-color="#69abdb"/></linearGradient><linearGradient id="linear-gradient-24" x1="50.22" y1="84.65" x2="67.87" y2="79.92" gradientUnits="userSpaceOnUse"><stop offset="0.27" stop-color="#e9a6c5"/><stop offset="0.36" stop-color="#e79b99"/><stop offset="0.47" stop-color="#e58e6a"/><stop offset="0.55" stop-color="#e3874d"/><stop offset="0.6" stop-color="#e38442"/></linearGradient></defs><title>pegasys</title><g id="Layer_2" data-name="Layer 2"><g id="Layer_1-2" data-name="Layer 1"><polygon class="cls-2" points="112.88 96 112.88 32 57.45 0 2.02 32 2.02 96 57.45 128 112.88 96"/><polygon class="cls-3" points="103.45 90.56 103.45 37.44 57.45 10.88 11.45 37.44 11.45 90.56 57.45 117.12 103.45 90.56"/><g class="cls-4"><g class="cls-5"><polygon class="cls-6" points="3 13.85 1.5 11.37 0 13.85 1.5 14.74 3 13.85"/><polygon class="cls-6" points="1.5 15.2 0 14.31 1.5 16.44 3 14.31 1.5 15.2"/><polygon class="cls-6" points="11.62 13.85 10.12 11.37 8.62 13.85 10.12 14.74 11.62 13.85"/><polygon class="cls-6" points="10.12 15.2 8.62 14.31 10.12 16.44 11.62 14.31 10.12 15.2"/><polygon class="cls-6" points="20.23 13.85 18.74 11.37 17.24 13.85 18.74 14.74 20.23 13.85"/><polygon class="cls-6" points="18.74 15.2 17.24 14.31 18.74 16.44 20.24 14.31 18.74 15.2"/><polygon class="cls-6" points="28.85 13.85 27.35 11.37 25.86 13.85 27.35 14.74 28.85 13.85"/><polygon class="cls-6" points="27.35 15.2 25.85 14.31 27.36 16.44 28.85 14.31 27.35 15.2"/><polygon class="cls-6" points="37.47 13.85 35.97 11.37 34.48 13.85 35.97 14.74 37.47 13.85"/><polygon class="cls-6" points="35.97 15.2 34.47 14.31 35.98 16.44 37.47 14.31 35.97 15.2"/><polygon class="cls-6" points="46.09 13.85 44.59 11.37 43.09 13.85 44.59 14.74 46.09 13.85"/><polygon class="cls-6" points="44.59 15.2 43.09 14.31 44.59 16.44 46.09 14.31 44.59 15.2"/><polygon class="cls-6" points="54.7 13.85 53.21 11.37 51.71 13.85 53.21 14.74 54.7 13.85"/><polygon class="cls-6" points="53.21 15.2 51.71 14.31 53.21 16.44 54.71 14.31 53.21 15.2"/><polygon class="cls-6" points="63.32 13.85 61.83 11.37 60.33 13.85 61.83 14.74 63.32 13.85"/><polygon class="cls-6" points="61.83 15.2 60.33 14.31 61.83 16.44 63.33 14.31 61.83 15.2"/><polygon class="cls-6" points="71.94 13.85 70.44 11.37 68.95 13.85 70.44 14.74 71.94 13.85"/><polygon class="cls-6" points="70.44 15.2 68.94 14.31 70.45 16.44 71.94 14.31 70.44 15.2"/><polygon class="cls-6" points="80.56 13.85 79.06 11.37 77.56 13.85 79.06 14.74 80.56 13.85"/><polygon class="cls-6" points="79.06 15.2 77.56 14.31 79.06 16.44 80.56 14.31 79.06 15.2"/><polygon class="cls-6" points="89.18 13.85 87.68 11.37 86.18 13.85 87.68 14.74 89.18 13.85"/><polygon class="cls-6" points="87.68 15.2 86.18 14.31 87.68 16.44 89.18 14.31 87.68 15.2"/><polygon class="cls-6" points="97.8 13.85 96.3 11.37 94.8 13.85 96.3 14.74 97.8 13.85"/><polygon class="cls-6" points="96.3 15.2 94.8 14.31 96.3 16.44 97.8 14.31 96.3 15.2"/><polygon class="cls-6" points="106.41 13.85 104.92 11.37 103.42 13.85 104.92 14.74 106.41 13.85"/><polygon class="cls-6" points="104.92 15.2 103.42 14.31 104.92 16.44 106.42 14.31 104.92 15.2"/><polygon class="cls-6" points="7.14 21.3 5.64 18.81 4.14 21.3 5.64 22.18 7.14 21.3"/><polygon class="cls-6" points="5.64 22.64 4.14 21.75 5.64 23.88 7.14 21.75 5.64 22.64"/><polygon class="cls-6" points="15.75 21.3 14.26 18.81 12.76 21.3 14.26 22.18 15.75 21.3"/><polygon class="cls-6" points="14.26 22.64 12.76 21.75 14.26 23.88 15.76 21.75 14.26 22.64"/><polygon class="cls-6" points="24.37 21.3 22.88 18.81 21.38 21.3 22.88 22.18 24.37 21.3"/><polygon class="cls-6" points="22.88 22.64 21.38 21.75 22.88 23.88 24.38 21.75 22.88 22.64"/><polygon class="cls-6" points="32.99 21.3 31.49 18.81 30 21.3 31.49 22.18 32.99 21.3"/><polygon class="cls-6" points="31.49 22.64 29.99 21.75 31.5 23.88 32.99 21.75 31.49 22.64"/><polygon class="cls-6" points="41.61 21.3 40.11 18.81 38.61 21.3 40.11 22.18 41.61 21.3"/><polygon class="cls-6" points="40.11 22.64 38.61 21.75 40.11 23.88 41.61 21.75 40.11 22.64"/><polygon class="cls-6" points="50.23 21.3 48.73 18.81 47.23 21.3 48.73 22.18 50.23 21.3"/><polygon class="cls-6" points="48.73 22.64 47.23 21.75 48.73 23.88 50.23 21.75 48.73 22.64"/><polygon class="cls-6" points="58.84 21.3 57.35 18.81 55.85 21.3 57.35 22.18 58.84 21.3"/><polygon class="cls-6" points="57.35 22.64 55.85 21.75 57.35 23.88 58.85 21.75 57.35 22.64"/><polygon class="cls-6" points="67.46 21.3 65.97 18.81 64.47 21.3 65.97 22.18 67.46 21.3"/><polygon class="cls-6" points="65.97 22.64 64.47 21.75 65.97 23.88 67.47 21.75 65.97 22.64"/><polygon class="cls-6" points="76.08 21.3 74.58 18.81 73.09 21.3 74.58 22.18 76.08 21.3"/><polygon class="cls-6" points="74.58 22.64 73.08 21.75 74.59 23.88 76.08 21.75 74.58 22.64"/><polygon class="cls-6" points="84.7 21.3 83.2 18.81 81.7 21.3 83.2 22.18 84.7 21.3"/><polygon class="cls-6" points="83.2 22.64 81.7 21.75 83.2 23.88 84.7 21.75 83.2 22.64"/><polygon class="cls-6" points="93.32 21.3 91.82 18.81 90.32 21.3 91.82 22.18 93.32 21.3"/><polygon class="cls-6" points="91.82 22.64 90.32 21.75 91.82 23.88 93.32 21.75 91.82 22.64"/><polygon class="cls-6" points="101.94 21.3 100.44 18.81 98.94 21.3 100.44 22.18 101.94 21.3"/><polygon class="cls-6" points="100.44 22.64 98.94 21.75 100.44 23.88 101.94 21.75 100.44 22.64"/><polygon class="cls-6" points="110.55 21.3 109.06 18.81 107.56 21.3 109.06 22.18 110.55 21.3"/><polygon class="cls-6" points="109.06 22.64 107.56 21.75 109.06 23.88 110.56 21.75 109.06 22.64"/><polygon class="cls-6" points="3 28.74 1.5 26.26 0 28.74 1.5 29.62 3 28.74"/><polygon class="cls-6" points="1.5 30.08 0 29.19 1.5 31.32 3 29.19 1.5 30.08"/><polygon class="cls-6" points="11.62 28.74 10.12 26.26 8.62 28.74 10.12 29.62 11.62 28.74"/><polygon class="cls-6" points="10.12 30.08 8.62 29.19 10.12 31.32 11.62 29.19 10.12 30.08"/><polygon class="cls-6" points="20.23 28.74 18.74 26.26 17.24 28.74 18.74 29.62 20.23 28.74"/><polygon class="cls-6" points="18.74 30.08 17.24 29.19 18.74 31.32 20.24 29.19 18.74 30.08"/><polygon class="cls-6" points="28.85 28.74 27.35 26.26 25.86 28.74 27.35 29.62 28.85 28.74"/><polygon class="cls-6" points="27.35 30.08 25.85 29.19 27.36 31.32 28.85 29.19 27.35 30.08"/><polygon class="cls-6" points="37.47 28.74 35.97 26.26 34.48 28.74 35.97 29.62 37.47 28.74"/><polygon class="cls-6" points="35.97 30.08 34.47 29.19 35.98 31.32 37.47 29.19 35.97 30.08"/><polygon class="cls-6" points="46.09 28.74 44.59 26.26 43.09 28.74 44.59 29.62 46.09 28.74"/><polygon class="cls-6" points="44.59 30.08 43.09 29.19 44.59 31.32 46.09 29.19 44.59 30.08"/><polygon class="cls-6" points="54.7 28.74 53.21 26.26 51.71 28.74 53.21 29.62 54.7 28.74"/><polygon class="cls-6" points="53.21 30.08 51.71 29.19 53.21 31.32 54.71 29.19 53.21 30.08"/><polygon class="cls-6" points="63.32 28.74 61.83 26.26 60.33 28.74 61.83 29.62 63.32 28.74"/><polygon class="cls-6" points="61.83 30.08 60.33 29.19 61.83 31.32 63.33 29.19 61.83 30.08"/><polygon class="cls-6" points="71.94 28.74 70.44 26.26 68.95 28.74 70.44 29.62 71.94 28.74"/><polygon class="cls-6" points="70.44 30.08 68.94 29.19 70.45 31.32 71.94 29.19 70.44 30.08"/><polygon class="cls-6" points="80.56 28.74 79.06 26.26 77.56 28.74 79.06 29.62 80.56 28.74"/><polygon class="cls-6" points="79.06 30.08 77.56 29.19 79.06 31.32 80.56 29.19 79.06 30.08"/><polygon class="cls-6" points="89.18 28.74 87.68 26.26 86.18 28.74 87.68 29.62 89.18 28.74"/><polygon class="cls-6" points="87.68 30.08 86.18 29.19 87.68 31.32 89.18 29.19 87.68 30.08"/><polygon class="cls-6" points="97.8 28.74 96.3 26.26 94.8 28.74 96.3 29.62 97.8 28.74"/><polygon class="cls-6" points="96.3 30.08 94.8 29.19 96.3 31.32 97.8 29.19 96.3 30.08"/><polygon class="cls-6" points="106.41 28.74 104.92 26.26 103.42 28.74 104.92 29.62 106.41 28.74"/><polygon class="cls-6" points="104.92 30.08 103.42 29.19 104.92 31.32 106.42 29.19 104.92 30.08"/><polygon class="cls-6" points="7.14 36.18 5.64 33.7 4.14 36.18 5.64 37.06 7.14 36.18"/><polygon class="cls-6" points="5.64 37.52 4.14 36.64 5.64 38.77 7.14 36.64 5.64 37.52"/><polygon class="cls-6" points="15.75 36.18 14.26 33.7 12.76 36.18 14.26 37.06 15.75 36.18"/><polygon class="cls-6" points="14.26 37.52 12.76 36.64 14.26 38.77 15.76 36.64 14.26 37.52"/><polygon class="cls-6" points="24.37 36.18 22.88 33.7 21.38 36.18 22.88 37.06 24.37 36.18"/><polygon class="cls-6" points="22.88 37.52 21.38 36.64 22.88 38.77 24.38 36.64 22.88 37.52"/><polygon class="cls-6" points="32.99 36.18 31.49 33.7 30 36.18 31.49 37.06 32.99 36.18"/><polygon class="cls-6" points="31.49 37.52 29.99 36.64 31.5 38.77 32.99 36.64 31.49 37.52"/><polygon class="cls-6" points="41.61 36.18 40.11 33.7 38.61 36.18 40.11 37.06 41.61 36.18"/><polygon class="cls-6" points="40.11 37.52 38.61 36.64 40.11 38.77 41.61 36.64 40.11 37.52"/><polygon class="cls-6" points="50.23 36.18 48.73 33.7 47.23 36.18 48.73 37.06 50.23 36.18"/><polygon class="cls-6" points="48.73 37.52 47.23 36.64 48.73 38.77 50.23 36.64 48.73 37.52"/><polygon class="cls-6" points="58.84 36.18 57.35 33.7 55.85 36.18 57.35 37.06 58.84 36.18"/><polygon class="cls-6" points="57.35 37.52 55.85 36.64 57.35 38.77 58.85 36.64 57.35 37.52"/><polygon class="cls-6" points="67.46 36.18 65.97 33.7 64.47 36.18 65.97 37.06 67.46 36.18"/><polygon class="cls-6" points="65.97 37.52 64.47 36.64 65.97 38.77 67.47 36.64 65.97 37.52"/><polygon class="cls-6" points="76.08 36.18 74.58 33.7 73.09 36.18 74.58 37.06 76.08 36.18"/><polygon class="cls-6" points="74.58 37.52 73.08 36.64 74.59 38.77 76.08 36.64 74.58 37.52"/><polygon class="cls-6" points="84.7 36.18 83.2 33.7 81.7 36.18 83.2 37.06 84.7 36.18"/><polygon class="cls-6" points="83.2 37.52 81.7 36.64 83.2 38.77 84.7 36.64 83.2 37.52"/><polygon class="cls-6" points="93.32 36.18 91.82 33.7 90.32 36.18 91.82 37.06 93.32 36.18"/><polygon class="cls-6" points="91.82 37.52 90.32 36.64 91.82 38.77 93.32 36.64 91.82 37.52"/><polygon class="cls-6" points="101.94 36.18 100.44 33.7 98.94 36.18 100.44 37.06 101.94 36.18"/><polygon class="cls-6" points="100.44 37.52 98.94 36.64 100.44 38.77 101.94 36.64 100.44 37.52"/><polygon class="cls-6" points="110.55 36.18 109.06 33.7 107.56 36.18 109.06 37.06 110.55 36.18"/><polygon class="cls-6" points="109.06 37.52 107.56 36.64 109.06 38.77 110.56 36.64 109.06 37.52"/><polygon class="cls-6" points="3 43.62 1.5 41.14 0 43.62 1.5 44.51 3 43.62"/><polygon class="cls-6" points="1.5 44.97 0 44.08 1.5 46.21 3 44.08 1.5 44.97"/><polygon class="cls-6" points="11.62 43.62 10.12 41.14 8.62 43.62 10.12 44.51 11.62 43.62"/><polygon class="cls-6" points="10.12 44.97 8.62 44.08 10.12 46.21 11.62 44.08 10.12 44.97"/><polygon class="cls-6" points="20.23 43.62 18.74 41.14 17.24 43.62 18.74 44.51 20.23 43.62"/><polygon class="cls-6" points="18.74 44.97 17.24 44.08 18.74 46.21 20.24 44.08 18.74 44.97"/><polygon class="cls-6" points="28.85 43.62 27.35 41.14 25.86 43.62 27.35 44.51 28.85 43.62"/><polygon class="cls-6" points="27.35 44.97 25.85 44.08 27.36 46.21 28.85 44.08 27.35 44.97"/><polygon class="cls-6" points="37.47 43.62 35.97 41.14 34.48 43.62 35.97 44.51 37.47 43.62"/><polygon class="cls-6" points="35.97 44.97 34.47 44.08 35.98 46.21 37.47 44.08 35.97 44.97"/><polygon class="cls-6" points="46.09 43.62 44.59 41.14 43.09 43.62 44.59 44.51 46.09 43.62"/><polygon class="cls-6" points="44.59 44.97 43.09 44.08 44.59 46.21 46.09 44.08 44.59 44.97"/><polygon class="cls-6" points="54.7 43.62 53.21 41.14 51.71 43.62 53.21 44.51 54.7 43.62"/><polygon class="cls-6" points="53.21 44.97 51.71 44.08 53.21 46.21 54.71 44.08 53.21 44.97"/><polygon class="cls-6" points="63.32 43.62 61.83 41.14 60.33 43.62 61.83 44.51 63.32 43.62"/><polygon class="cls-6" points="61.83 44.97 60.33 44.08 61.83 46.21 63.33 44.08 61.83 44.97"/><polygon class="cls-6" points="71.94 43.62 70.44 41.14 68.95 43.62 70.44 44.51 71.94 43.62"/><polygon class="cls-6" points="70.44 44.97 68.94 44.08 70.45 46.21 71.94 44.08 70.44 44.97"/><polygon class="cls-6" points="80.56 43.62 79.06 41.14 77.56 43.62 79.06 44.51 80.56 43.62"/><polygon class="cls-6" points="79.06 44.97 77.56 44.08 79.06 46.21 80.56 44.08 79.06 44.97"/><polygon class="cls-6" points="89.18 43.62 87.68 41.14 86.18 43.62 87.68 44.51 89.18 43.62"/><polygon class="cls-6" points="87.68 44.97 86.18 44.08 87.68 46.21 89.18 44.08 87.68 44.97"/><polygon class="cls-6" points="97.8 43.62 96.3 41.14 94.8 43.62 96.3 44.51 97.8 43.62"/><polygon class="cls-6" points="96.3 44.97 94.8 44.08 96.3 46.21 97.8 44.08 96.3 44.97"/><polygon class="cls-6" points="106.41 43.62 104.92 41.14 103.42 43.62 104.92 44.51 106.41 43.62"/><polygon class="cls-6" points="104.92 44.97 103.42 44.08 104.92 46.21 106.42 44.08 104.92 44.97"/><polygon class="cls-6" points="7.14 51.07 5.64 48.58 4.14 51.07 5.64 51.95 7.14 51.07"/><polygon class="cls-6" points="5.64 52.41 4.14 51.52 5.64 53.65 7.14 51.52 5.64 52.41"/><polygon class="cls-6" points="15.75 51.07 14.26 48.58 12.76 51.07 14.26 51.95 15.75 51.07"/><polygon class="cls-6" points="14.26 52.41 12.76 51.52 14.26 53.65 15.76 51.52 14.26 52.41"/><polygon class="cls-6" points="24.37 51.07 22.88 48.58 21.38 51.07 22.88 51.95 24.37 51.07"/><polygon class="cls-6" points="22.88 52.41 21.38 51.52 22.88 53.65 24.38 51.52 22.88 52.41"/><polygon class="cls-6" points="32.99 51.07 31.49 48.58 30 51.07 31.49 51.95 32.99 51.07"/><polygon class="cls-6" points="31.49 52.41 29.99 51.52 31.5 53.65 32.99 51.52 31.49 52.41"/><polygon class="cls-6" points="41.61 51.07 40.11 48.58 38.61 51.07 40.11 51.95 41.61 51.07"/><polygon class="cls-6" points="40.11 52.41 38.61 51.52 40.11 53.65 41.61 51.52 40.11 52.41"/><polygon class="cls-6" points="50.23 51.07 48.73 48.58 47.23 51.07 48.73 51.95 50.23 51.07"/><polygon class="cls-6" points="48.73 52.41 47.23 51.52 48.73 53.65 50.23 51.52 48.73 52.41"/><polygon class="cls-6" points="58.84 51.07 57.35 48.58 55.85 51.07 57.35 51.95 58.84 51.07"/><polygon class="cls-6" points="57.35 52.41 55.85 51.52 57.35 53.65 58.85 51.52 57.35 52.41"/><polygon class="cls-6" points="67.46 51.07 65.97 48.58 64.47 51.07 65.97 51.95 67.46 51.07"/><polygon class="cls-6" points="65.97 52.41 64.47 51.52 65.97 53.65 67.47 51.52 65.97 52.41"/><polygon class="cls-6" points="76.08 51.07 74.58 48.58 73.09 51.07 74.58 51.95 76.08 51.07"/><polygon class="cls-6" points="74.58 52.41 73.08 51.52 74.59 53.65 76.08 51.52 74.58 52.41"/><polygon class="cls-6" points="84.7 51.07 83.2 48.58 81.7 51.07 83.2 51.95 84.7 51.07"/><polygon class="cls-6" points="83.2 52.41 81.7 51.52 83.2 53.65 84.7 51.52 83.2 52.41"/><polygon class="cls-6" points="93.32 51.07 91.82 48.58 90.32 51.07 91.82 51.95 93.32 51.07"/><polygon class="cls-6" points="91.82 52.41 90.32 51.52 91.82 53.65 93.32 51.52 91.82 52.41"/><polygon class="cls-6" points="101.94 51.07 100.44 48.58 98.94 51.07 100.44 51.95 101.94 51.07"/><polygon class="cls-6" points="100.44 52.41 98.94 51.52 100.44 53.65 101.94 51.52 100.44 52.41"/><polygon class="cls-6" points="110.55 51.07 109.06 48.58 107.56 51.07 109.06 51.95 110.55 51.07"/><polygon class="cls-6" points="109.06 52.41 107.56 51.52 109.06 53.65 110.56 51.52 109.06 52.41"/><polygon class="cls-6" points="3 58.51 1.5 56.03 0 58.51 1.5 59.39 3 58.51"/><polygon class="cls-6" points="1.5 59.85 0 58.97 1.5 61.09 3 58.97 1.5 59.85"/><polygon class="cls-6" points="11.62 58.51 10.12 56.03 8.62 58.51 10.12 59.39 11.62 58.51"/><polygon class="cls-6" points="10.12 59.85 8.62 58.97 10.12 61.09 11.62 58.97 10.12 59.85"/><polygon class="cls-6" points="20.23 58.51 18.74 56.03 17.24 58.51 18.74 59.39 20.23 58.51"/><polygon class="cls-6" points="18.74 59.85 17.24 58.97 18.74 61.09 20.24 58.97 18.74 59.85"/><polygon class="cls-6" points="28.85 58.51 27.35 56.03 25.86 58.51 27.35 59.39 28.85 58.51"/><polygon class="cls-6" points="27.35 59.85 25.85 58.97 27.36 61.09 28.85 58.97 27.35 59.85"/><polygon class="cls-6" points="37.47 58.51 35.97 56.03 34.48 58.51 35.97 59.39 37.47 58.51"/><polygon class="cls-6" points="35.97 59.85 34.47 58.97 35.98 61.09 37.47 58.97 35.97 59.85"/><polygon class="cls-6" points="46.09 58.51 44.59 56.03 43.09 58.51 44.59 59.39 46.09 58.51"/><polygon class="cls-6" points="44.59 59.85 43.09 58.97 44.59 61.09 46.09 58.97 44.59 59.85"/><polygon class="cls-6" points="54.7 58.51 53.21 56.03 51.71 58.51 53.21 59.39 54.7 58.51"/><polygon class="cls-6" points="53.21 59.85 51.71 58.97 53.21 61.09 54.71 58.97 53.21 59.85"/><polygon class="cls-6" points="63.32 58.51 61.83 56.03 60.33 58.51 61.83 59.39 63.32 58.51"/><polygon class="cls-6" points="61.83 59.85 60.33 58.97 61.83 61.09 63.33 58.97 61.83 59.85"/><polygon class="cls-6" points="71.94 58.51 70.44 56.03 68.95 58.51 70.44 59.39 71.94 58.51"/><polygon class="cls-6" points="70.44 59.85 68.94 58.97 70.45 61.09 71.94 58.97 70.44 59.85"/><polygon class="cls-6" points="80.56 58.51 79.06 56.03 77.56 58.51 79.06 59.39 80.56 58.51"/><polygon class="cls-6" points="79.06 59.85 77.56 58.97 79.06 61.09 80.56 58.97 79.06 59.85"/><polygon class="cls-6" points="89.18 58.51 87.68 56.03 86.18 58.51 87.68 59.39 89.18 58.51"/><polygon class="cls-6" points="87.68 59.85 86.18 58.97 87.68 61.09 89.18 58.97 87.68 59.85"/><polygon class="cls-6" points="97.8 58.51 96.3 56.03 94.8 58.51 96.3 59.39 97.8 58.51"/><polygon class="cls-6" points="96.3 59.85 94.8 58.97 96.3 61.09 97.8 58.97 96.3 59.85"/><polygon class="cls-6" points="106.41 58.51 104.92 56.03 103.42 58.51 104.92 59.39 106.41 58.51"/><polygon class="cls-6" points="104.92 59.85 103.42 58.97 104.92 61.09 106.42 58.97 104.92 59.85"/><polygon class="cls-6" points="7.14 65.95 5.64 63.47 4.14 65.95 5.64 66.83 7.14 65.95"/><polygon class="cls-6" points="5.64 67.29 4.14 66.41 5.64 68.54 7.14 66.41 5.64 67.29"/><polygon class="cls-6" points="15.75 65.95 14.26 63.47 12.76 65.95 14.26 66.83 15.75 65.95"/><polygon class="cls-6" points="14.26 67.29 12.76 66.41 14.26 68.54 15.76 66.41 14.26 67.29"/><polygon class="cls-6" points="24.37 65.95 22.88 63.47 21.38 65.95 22.88 66.83 24.37 65.95"/><polygon class="cls-6" points="22.88 67.29 21.38 66.41 22.88 68.54 24.38 66.41 22.88 67.29"/><polygon class="cls-6" points="32.99 65.95 31.49 63.47 30 65.95 31.49 66.83 32.99 65.95"/><polygon class="cls-6" points="31.49 67.29 29.99 66.41 31.5 68.54 32.99 66.41 31.49 67.29"/><polygon class="cls-6" points="41.61 65.95 40.11 63.47 38.61 65.95 40.11 66.83 41.61 65.95"/><polygon class="cls-6" points="40.11 67.29 38.61 66.41 40.11 68.54 41.61 66.41 40.11 67.29"/><polygon class="cls-6" points="50.23 65.95 48.73 63.47 47.23 65.95 48.73 66.83 50.23 65.95"/><polygon class="cls-6" points="48.73 67.29 47.23 66.41 48.73 68.54 50.23 66.41 48.73 67.29"/><polygon class="cls-6" points="58.84 65.95 57.35 63.47 55.85 65.95 57.35 66.83 58.84 65.95"/><polygon class="cls-6" points="57.35 67.29 55.85 66.41 57.35 68.54 58.85 66.41 57.35 67.29"/><polygon class="cls-6" points="67.46 65.95 65.97 63.47 64.47 65.95 65.97 66.83 67.46 65.95"/><polygon class="cls-6" points="65.97 67.29 64.47 66.41 65.97 68.54 67.47 66.41 65.97 67.29"/><polygon class="cls-6" points="76.08 65.95 74.58 63.47 73.09 65.95 74.58 66.83 76.08 65.95"/><polygon class="cls-6" points="74.58 67.29 73.08 66.41 74.59 68.54 76.08 66.41 74.58 67.29"/><polygon class="cls-6" points="84.7 65.95 83.2 63.47 81.7 65.95 83.2 66.83 84.7 65.95"/><polygon class="cls-6" points="83.2 67.29 81.7 66.41 83.2 68.54 84.7 66.41 83.2 67.29"/><polygon class="cls-6" points="93.32 65.95 91.82 63.47 90.32 65.95 91.82 66.83 93.32 65.95"/><polygon class="cls-6" points="91.82 67.29 90.32 66.41 91.82 68.54 93.32 66.41 91.82 67.29"/><polygon class="cls-6" points="101.94 65.95 100.44 63.47 98.94 65.95 100.44 66.83 101.94 65.95"/><polygon class="cls-6" points="100.44 67.29 98.94 66.41 100.44 68.54 101.94 66.41 100.44 67.29"/><polygon class="cls-6" points="110.55 65.95 109.06 63.47 107.56 65.95 109.06 66.83 110.55 65.95"/><polygon class="cls-6" points="109.06 67.29 107.56 66.41 109.06 68.54 110.56 66.41 109.06 67.29"/><polygon class="cls-6" points="3 73.39 1.5 70.91 0 73.39 1.5 74.28 3 73.39"/><polygon class="cls-6" points="1.5 74.74 0 73.85 1.5 75.98 3 73.85 1.5 74.74"/><polygon class="cls-6" points="11.62 73.39 10.12 70.91 8.62 73.39 10.12 74.28 11.62 73.39"/><polygon class="cls-6" points="10.12 74.74 8.62 73.85 10.12 75.98 11.62 73.85 10.12 74.74"/><polygon class="cls-6" points="20.23 73.39 18.74 70.91 17.24 73.39 18.74 74.28 20.23 73.39"/><polygon class="cls-6" points="18.74 74.74 17.24 73.85 18.74 75.98 20.24 73.85 18.74 74.74"/><polygon class="cls-6" points="28.85 73.39 27.35 70.91 25.86 73.39 27.35 74.28 28.85 73.39"/><polygon class="cls-6" points="27.35 74.74 25.85 73.85 27.36 75.98 28.85 73.85 27.35 74.74"/><polygon class="cls-6" points="37.47 73.39 35.97 70.91 34.48 73.39 35.97 74.28 37.47 73.39"/><polygon class="cls-6" points="35.97 74.74 34.47 73.85 35.98 75.98 37.47 73.85 35.97 74.74"/><polygon class="cls-6" points="46.09 73.39 44.59 70.91 43.09 73.39 44.59 74.28 46.09 73.39"/><polygon class="cls-6" points="44.59 74.74 43.09 73.85 44.59 75.98 46.09 73.85 44.59 74.74"/><polygon class="cls-6" points="54.7 73.39 53.21 70.91 51.71 73.39 53.21 74.28 54.7 73.39"/><polygon class="cls-6" points="53.21 74.74 51.71 73.85 53.21 75.98 54.71 73.85 53.21 74.74"/><polygon class="cls-6" points="63.32 73.39 61.83 70.91 60.33 73.39 61.83 74.28 63.32 73.39"/><polygon class="cls-6" points="61.83 74.74 60.33 73.85 61.83 75.98 63.33 73.85 61.83 74.74"/><polygon class="cls-6" points="71.94 73.39 70.44 70.91 68.95 73.39 70.44 74.28 71.94 73.39"/><polygon class="cls-6" points="70.44 74.74 68.94 73.85 70.45 75.98 71.94 73.85 70.44 74.74"/><polygon class="cls-6" points="80.56 73.39 79.06 70.91 77.56 73.39 79.06 74.28 80.56 73.39"/><polygon class="cls-6" points="79.06 74.74 77.56 73.85 79.06 75.98 80.56 73.85 79.06 74.74"/><polygon class="cls-6" points="89.18 73.39 87.68 70.91 86.18 73.39 87.68 74.28 89.18 73.39"/><polygon class="cls-6" points="87.68 74.74 86.18 73.85 87.68 75.98 89.18 73.85 87.68 74.74"/><polygon class="cls-6" points="97.8 73.39 96.3 70.91 94.8 73.39 96.3 74.28 97.8 73.39"/><polygon class="cls-6" points="96.3 74.74 94.8 73.85 96.3 75.98 97.8 73.85 96.3 74.74"/><polygon class="cls-6" points="106.41 73.39 104.92 70.91 103.42 73.39 104.92 74.28 106.41 73.39"/><polygon class="cls-6" points="104.92 74.74 103.42 73.85 104.92 75.98 106.42 73.85 104.92 74.74"/><polygon class="cls-6" points="7.14 80.84 5.64 78.36 4.14 80.84 5.64 81.72 7.14 80.84"/><polygon class="cls-6" points="5.64 82.18 4.14 81.29 5.64 83.42 7.14 81.29 5.64 82.18"/><polygon class="cls-6" points="15.75 80.84 14.26 78.36 12.76 80.84 14.26 81.72 15.75 80.84"/><polygon class="cls-6" points="14.26 82.18 12.76 81.29 14.26 83.42 15.76 81.29 14.26 82.18"/><polygon class="cls-6" points="24.37 80.84 22.88 78.36 21.38 80.84 22.88 81.72 24.37 80.84"/><polygon class="cls-6" points="22.88 82.18 21.38 81.29 22.88 83.42 24.38 81.29 22.88 82.18"/><polygon class="cls-6" points="32.99 80.84 31.49 78.36 30 80.84 31.49 81.72 32.99 80.84"/><polygon class="cls-6" points="31.49 82.18 29.99 81.29 31.5 83.42 32.99 81.29 31.49 82.18"/><polygon class="cls-6" points="41.61 80.84 40.11 78.36 38.61 80.84 40.11 81.72 41.61 80.84"/><polygon class="cls-6" points="40.11 82.18 38.61 81.29 40.11 83.42 41.61 81.29 40.11 82.18"/><polygon class="cls-6" points="50.23 80.84 48.73 78.36 47.23 80.84 48.73 81.72 50.23 80.84"/><polygon class="cls-6" points="48.73 82.18 47.23 81.29 48.73 83.42 50.23 81.29 48.73 82.18"/><polygon class="cls-6" points="58.84 80.84 57.35 78.36 55.85 80.84 57.35 81.72 58.84 80.84"/><polygon class="cls-6" points="57.35 82.18 55.85 81.29 57.35 83.42 58.85 81.29 57.35 82.18"/><polygon class="cls-6" points="67.46 80.84 65.97 78.36 64.47 80.84 65.97 81.72 67.46 80.84"/><polygon class="cls-6" points="65.97 82.18 64.47 81.29 65.97 83.42 67.47 81.29 65.97 82.18"/><polygon class="cls-6" points="76.08 80.84 74.58 78.36 73.09 80.84 74.58 81.72 76.08 80.84"/><polygon class="cls-6" points="74.58 82.18 73.08 81.29 74.59 83.42 76.08 81.29 74.58 82.18"/><polygon class="cls-6" points="84.7 80.84 83.2 78.36 81.7 80.84 83.2 81.72 84.7 80.84"/><polygon class="cls-6" points="83.2 82.18 81.7 81.29 83.2 83.42 84.7 81.29 83.2 82.18"/><polygon class="cls-6" points="93.32 80.84 91.82 78.36 90.32 80.84 91.82 81.72 93.32 80.84"/><polygon class="cls-6" points="91.82 82.18 90.32 81.29 91.82 83.42 93.32 81.29 91.82 82.18"/><polygon class="cls-6" points="101.94 80.84 100.44 78.36 98.94 80.84 100.44 81.72 101.94 80.84"/><polygon class="cls-6" points="100.44 82.18 98.94 81.29 100.44 83.42 101.94 81.29 100.44 82.18"/><polygon class="cls-6" points="110.55 80.84 109.06 78.36 107.56 80.84 109.06 81.72 110.55 80.84"/><polygon class="cls-6" points="109.06 82.18 107.56 81.29 109.06 83.42 110.56 81.29 109.06 82.18"/><polygon class="cls-6" points="3 88.28 1.5 85.8 0 88.28 1.5 89.16 3 88.28"/><polygon class="cls-6" points="1.5 89.62 0 88.74 1.5 90.86 3 88.74 1.5 89.62"/><polygon class="cls-6" points="11.62 88.28 10.12 85.8 8.62 88.28 10.12 89.16 11.62 88.28"/><polygon class="cls-6" points="10.12 89.62 8.62 88.74 10.12 90.86 11.62 88.74 10.12 89.62"/><polygon class="cls-6" points="20.23 88.28 18.74 85.8 17.24 88.28 18.74 89.16 20.23 88.28"/><polygon class="cls-6" points="18.74 89.62 17.24 88.74 18.74 90.86 20.24 88.74 18.74 89.62"/><polygon class="cls-6" points="28.85 88.28 27.35 85.8 25.86 88.28 27.35 89.16 28.85 88.28"/><polygon class="cls-6" points="27.35 89.62 25.85 88.74 27.36 90.86 28.85 88.74 27.35 89.62"/><polygon class="cls-6" points="37.47 88.28 35.97 85.8 34.48 88.28 35.97 89.16 37.47 88.28"/><polygon class="cls-6" points="35.97 89.62 34.47 88.74 35.98 90.86 37.47 88.74 35.97 89.62"/><polygon class="cls-6" points="46.09 88.28 44.59 85.8 43.09 88.28 44.59 89.16 46.09 88.28"/><polygon class="cls-6" points="44.59 89.62 43.09 88.74 44.59 90.86 46.09 88.74 44.59 89.62"/><polygon class="cls-6" points="54.7 88.28 53.21 85.8 51.71 88.28 53.21 89.16 54.7 88.28"/><polygon class="cls-6" points="53.21 89.62 51.71 88.74 53.21 90.86 54.71 88.74 53.21 89.62"/><polygon class="cls-6" points="63.32 88.28 61.83 85.8 60.33 88.28 61.83 89.16 63.32 88.28"/><polygon class="cls-6" points="61.83 89.62 60.33 88.74 61.83 90.86 63.33 88.74 61.83 89.62"/><polygon class="cls-6" points="71.94 88.28 70.44 85.8 68.95 88.28 70.44 89.16 71.94 88.28"/><polygon class="cls-6" points="70.44 89.62 68.94 88.74 70.45 90.86 71.94 88.74 70.44 89.62"/><polygon class="cls-6" points="80.56 88.28 79.06 85.8 77.56 88.28 79.06 89.16 80.56 88.28"/><polygon class="cls-6" points="79.06 89.62 77.56 88.74 79.06 90.86 80.56 88.74 79.06 89.62"/><polygon class="cls-6" points="89.18 88.28 87.68 85.8 86.18 88.28 87.68 89.16 89.18 88.28"/><polygon class="cls-6" points="87.68 89.62 86.18 88.74 87.68 90.86 89.18 88.74 87.68 89.62"/><polygon class="cls-6" points="97.8 88.28 96.3 85.8 94.8 88.28 96.3 89.16 97.8 88.28"/><polygon class="cls-6" points="96.3 89.62 94.8 88.74 96.3 90.86 97.8 88.74 96.3 89.62"/><polygon class="cls-6" points="106.41 88.28 104.92 85.8 103.42 88.28 104.92 89.16 106.41 88.28"/><polygon class="cls-6" points="104.92 89.62 103.42 88.74 104.92 90.86 106.42 88.74 104.92 89.62"/><polygon class="cls-6" points="7.14 95.72 5.64 93.24 4.14 95.72 5.64 96.61 7.14 95.72"/><polygon class="cls-6" points="5.64 97.06 4.14 96.18 5.64 98.31 7.14 96.18 5.64 97.06"/><polygon class="cls-6" points="15.75 95.72 14.26 93.24 12.76 95.72 14.26 96.61 15.75 95.72"/><polygon class="cls-6" points="14.26 97.06 12.76 96.18 14.26 98.31 15.76 96.18 14.26 97.06"/><polygon class="cls-6" points="24.37 95.72 22.88 93.24 21.38 95.72 22.88 96.61 24.37 95.72"/><polygon class="cls-6" points="22.88 97.06 21.38 96.18 22.88 98.31 24.38 96.18 22.88 97.06"/><polygon class="cls-6" points="32.99 95.72 31.49 93.24 30 95.72 31.49 96.61 32.99 95.72"/><polygon class="cls-6" points="31.49 97.06 29.99 96.18 31.5 98.31 32.99 96.18 31.49 97.06"/><polygon class="cls-6" points="41.61 95.72 40.11 93.24 38.61 95.72 40.11 96.61 41.61 95.72"/><polygon class="cls-6" points="40.11 97.06 38.61 96.18 40.11 98.31 41.61 96.18 40.11 97.06"/><polygon class="cls-6" points="50.23 95.72 48.73 93.24 47.23 95.72 48.73 96.61 50.23 95.72"/><polygon class="cls-6" points="48.73 97.06 47.23 96.18 48.73 98.31 50.23 96.18 48.73 97.06"/><polygon class="cls-6" points="58.84 95.72 57.35 93.24 55.85 95.72 57.35 96.61 58.84 95.72"/><polygon class="cls-6" points="57.35 97.06 55.85 96.18 57.35 98.31 58.85 96.18 57.35 97.06"/><polygon class="cls-6" points="67.46 95.72 65.97 93.24 64.47 95.72 65.97 96.61 67.46 95.72"/><polygon class="cls-6" points="65.97 97.06 64.47 96.18 65.97 98.31 67.47 96.18 65.97 97.06"/><polygon class="cls-6" points="76.08 95.72 74.58 93.24 73.09 95.72 74.58 96.61 76.08 95.72"/><polygon class="cls-6" points="74.58 97.06 73.08 96.18 74.59 98.31 76.08 96.18 74.58 97.06"/><polygon class="cls-6" points="84.7 95.72 83.2 93.24 81.7 95.72 83.2 96.61 84.7 95.72"/><polygon class="cls-6" points="83.2 97.06 81.7 96.18 83.2 98.31 84.7 96.18 83.2 97.06"/><polygon class="cls-6" points="93.32 95.72 91.82 93.24 90.32 95.72 91.82 96.61 93.32 95.72"/><polygon class="cls-6" points="91.82 97.06 90.32 96.18 91.82 98.31 93.32 96.18 91.82 97.06"/><polygon class="cls-6" points="101.94 95.72 100.44 93.24 98.94 95.72 100.44 96.61 101.94 95.72"/><polygon class="cls-6" points="100.44 97.06 98.94 96.18 100.44 98.31 101.94 96.18 100.44 97.06"/><polygon class="cls-6" points="110.55 95.72 109.06 93.24 107.56 95.72 109.06 96.61 110.55 95.72"/><polygon class="cls-6" points="109.06 97.06 107.56 96.18 109.06 98.31 110.56 96.18 109.06 97.06"/><polygon class="cls-6" points="3 103.17 1.5 100.68 0 103.17 1.5 104.05 3 103.17"/><polygon class="cls-6" points="1.5 104.51 0 103.62 1.5 105.75 3 103.62 1.5 104.51"/><polygon class="cls-6" points="11.62 103.17 10.12 100.68 8.62 103.17 10.12 104.05 11.62 103.17"/><polygon class="cls-6" points="10.12 104.51 8.62 103.62 10.12 105.75 11.62 103.62 10.12 104.51"/><polygon class="cls-6" points="20.23 103.17 18.74 100.68 17.24 103.17 18.74 104.05 20.23 103.17"/><polygon class="cls-6" points="18.74 104.51 17.24 103.62 18.74 105.75 20.24 103.62 18.74 104.51"/><polygon class="cls-6" points="28.85 103.17 27.35 100.68 25.86 103.17 27.35 104.05 28.85 103.17"/><polygon class="cls-6" points="27.35 104.51 25.85 103.62 27.36 105.75 28.85 103.62 27.35 104.51"/><polygon class="cls-6" points="37.47 103.17 35.97 100.68 34.48 103.17 35.97 104.05 37.47 103.17"/><polygon class="cls-6" points="35.97 104.51 34.47 103.62 35.98 105.75 37.47 103.62 35.97 104.51"/><polygon class="cls-6" points="46.09 103.17 44.59 100.68 43.09 103.17 44.59 104.05 46.09 103.17"/><polygon class="cls-6" points="44.59 104.51 43.09 103.62 44.59 105.75 46.09 103.62 44.59 104.51"/><polygon class="cls-6" points="54.7 103.17 53.21 100.68 51.71 103.17 53.21 104.05 54.7 103.17"/><polygon class="cls-6" points="53.21 104.51 51.71 103.62 53.21 105.75 54.71 103.62 53.21 104.51"/><polygon class="cls-6" points="63.32 103.17 61.83 100.68 60.33 103.17 61.83 104.05 63.32 103.17"/><polygon class="cls-6" points="61.83 104.51 60.33 103.62 61.83 105.75 63.33 103.62 61.83 104.51"/><polygon class="cls-6" points="71.94 103.17 70.44 100.68 68.95 103.17 70.44 104.05 71.94 103.17"/><polygon class="cls-6" points="70.44 104.51 68.94 103.62 70.45 105.75 71.94 103.62 70.44 104.51"/><polygon class="cls-6" points="80.56 103.17 79.06 100.68 77.56 103.17 79.06 104.05 80.56 103.17"/><polygon class="cls-6" points="79.06 104.51 77.56 103.62 79.06 105.75 80.56 103.62 79.06 104.51"/><polygon class="cls-6" points="89.18 103.17 87.68 100.68 86.18 103.17 87.68 104.05 89.18 103.17"/><polygon class="cls-6" points="87.68 104.51 86.18 103.62 87.68 105.75 89.18 103.62 87.68 104.51"/><polygon class="cls-6" points="97.8 103.17 96.3 100.68 94.8 103.17 96.3 104.05 97.8 103.17"/><polygon class="cls-6" points="96.3 104.51 94.8 103.62 96.3 105.75 97.8 103.62 96.3 104.51"/><polygon class="cls-6" points="106.41 103.17 104.92 100.68 103.42 103.17 104.92 104.05 106.41 103.17"/><polygon class="cls-6" points="104.92 104.51 103.42 103.62 104.92 105.75 106.42 103.62 104.92 104.51"/><polygon class="cls-6" points="7.14 110.61 5.64 108.13 4.14 110.61 5.64 111.49 7.14 110.61"/><polygon class="cls-6" points="5.64 111.95 4.14 111.06 5.64 113.19 7.14 111.06 5.64 111.95"/><polygon class="cls-6" points="15.75 110.61 14.26 108.13 12.76 110.61 14.26 111.49 15.75 110.61"/><polygon class="cls-6" points="14.26 111.95 12.76 111.06 14.26 113.19 15.76 111.06 14.26 111.95"/><polygon class="cls-6" points="24.37 110.61 22.88 108.13 21.38 110.61 22.88 111.49 24.37 110.61"/><polygon class="cls-6" points="22.88 111.95 21.38 111.06 22.88 113.19 24.38 111.06 22.88 111.95"/><polygon class="cls-6" points="32.99 110.61 31.49 108.13 30 110.61 31.49 111.49 32.99 110.61"/><polygon class="cls-6" points="31.49 111.95 29.99 111.06 31.5 113.19 32.99 111.06 31.49 111.95"/><polygon class="cls-6" points="41.61 110.61 40.11 108.13 38.61 110.61 40.11 111.49 41.61 110.61"/><polygon class="cls-6" points="40.11 111.95 38.61 111.06 40.11 113.19 41.61 111.06 40.11 111.95"/><polygon class="cls-6" points="50.23 110.61 48.73 108.13 47.23 110.61 48.73 111.49 50.23 110.61"/><polygon class="cls-6" points="48.73 111.95 47.23 111.06 48.73 113.19 50.23 111.06 48.73 111.95"/><polygon class="cls-6" points="58.84 110.61 57.35 108.13 55.85 110.61 57.35 111.49 58.84 110.61"/><polygon class="cls-6" points="57.35 111.95 55.85 111.06 57.35 113.19 58.85 111.06 57.35 111.95"/><polygon class="cls-6" points="67.46 110.61 65.97 108.13 64.47 110.61 65.97 111.49 67.46 110.61"/><polygon class="cls-6" points="65.97 111.95 64.47 111.06 65.97 113.19 67.47 111.06 65.97 111.95"/><polygon class="cls-6" points="76.08 110.61 74.58 108.13 73.09 110.61 74.58 111.49 76.08 110.61"/><polygon class="cls-6" points="74.58 111.95 73.08 111.06 74.59 113.19 76.08 111.06 74.58 111.95"/><polygon class="cls-6" points="84.7 110.61 83.2 108.13 81.7 110.61 83.2 111.49 84.7 110.61"/><polygon class="cls-6" points="83.2 111.95 81.7 111.06 83.2 113.19 84.7 111.06 83.2 111.95"/><polygon class="cls-6" points="93.32 110.61 91.82 108.13 90.32 110.61 91.82 111.49 93.32 110.61"/><polygon class="cls-6" points="91.82 111.95 90.32 111.06 91.82 113.19 93.32 111.06 91.82 111.95"/><polygon class="cls-6" points="101.94 110.61 100.44 108.13 98.94 110.61 100.44 111.49 101.94 110.61"/><polygon class="cls-6" points="100.44 111.95 98.94 111.06 100.44 113.19 101.94 111.06 100.44 111.95"/><polygon class="cls-6" points="110.55 110.61 109.06 108.13 107.56 110.61 109.06 111.49 110.55 110.61"/><polygon class="cls-6" points="109.06 111.95 107.56 111.06 109.06 113.19 110.56 111.06 109.06 111.95"/></g></g><path class="cls-7" d="M41.81,92.76v0Z"/><path class="cls-8" d="M41.81,92.76a.56.56,0,0,1,0-.08l0,0v0A.09.09,0,0,1,41.81,92.76Z"/><path class="cls-9" d="M97.62,86.52C86.51,88,90,78.66,80.27,76.44,88,77.08,89.13,83.69,96,80c-5.88.81-8.68-5.61-14.4-8.63a13,13,0,0,0-12.75.32h0a11,11,0,0,0-4.51-3l-.2-.17.42.14.09,0c3.24,1,7.62.55,13.16-1.11a9,9,0,0,1-4.56-.89,5.12,5.12,0,0,1-1.65-1.47l0,0a1.88,1.88,0,0,1-.16-.23.25.25,0,0,1,0-.07l-.14-.22s0,0,0-.08l-.12-.22,0-.1a1.47,1.47,0,0,1-.1-.22.61.61,0,0,1-.05-.12l-.09-.22a.5.5,0,0,1-.05-.13,2,2,0,0,1-.08-.22,1.21,1.21,0,0,1,0-.14,2.33,2.33,0,0,1-.07-.25s0-.09-.05-.14a2.68,2.68,0,0,0-.07-.27l0-.13L70.3,62l.3.37,0,0c.21.24.42.47.65.69l0,0,.35.32h0c2.63,2.28,6.61,3,13.31-1.3-4,.78-6.67-.07-8.76-1.76a11.06,11.06,0,0,0,7-1.75s-4.67-1.49-4.48-2.67c5.58.36,7.87-1.3,7.87-1.3L82,51.17c5.28,2,9-2.59,9-2.59S86.56,48,86.5,47.16a13.79,13.79,0,0,0,7.83-4.85s-3.73,0-5.4-1c4.22-1.33,9.9-7.36,9.9-9.24a45.4,45.4,0,0,0-15.32,2,32.14,32.14,0,0,0-8.92,4.42h0l-.23.17.06-.22v0a1.24,1.24,0,0,0,0-.16v-.12l0-.06v-.09l0-.06v0l0-.08v0a.2.2,0,0,0,0-.07v-.13h0a0,0,0,0,0,0,0c-.66-.18-4.05,1.13-5.77,1.83L68.35,39c1-1.29,2.92-4,2.21-6.06-.65.5-4.65.82-4.65.82s3.74-5.08,1.8-9.51c-2.74.33-9.65,2.63-13.47,7.47-1.43.08-2.91.19-4.31.41a11.85,11.85,0,0,1-.55-2.06c-.47.87-.86,1.66-1.17,2.4a11.71,11.71,0,0,0-2.36.83c-1.85.21-3.4.7-4.24,1.79-1.53-3.07-3.06-6.3-3.06-6.3a3.49,3.49,0,0,1-.2,1.79c-.36,1.11-1.52,2.66-1.56,4.83,0,1.57,1.31,4.37,1.71,5.18v0c0,.81-.55,3.13-1.37,3.13A2.93,2.93,0,0,0,36,44v0a1.49,1.49,0,0,0-.31.2,2.68,2.68,0,0,0-1,1.16,2.37,2.37,0,0,0-.28.73,12.13,12.13,0,0,0-.36,1.75c-.38,2.29-3.8,8.45-5.85,9.52s-1.21,3.59-.11,5.42A14.09,14.09,0,0,0,29,64h0c.73,1.21.76,1.16,1.19.89s.46.47.77.25c.72-.5,2.39-3.12,4-3.14H35c.24.67-1.71,4.11-2.15,4.59,0,.14,1.75.9,2.48,0,.29-.35,1,.09,1.67-.62.45-.49,3.14-3.72,3-5.24,0-.41-.76-.82-.64-1.35a.15.15,0,0,0,0,.07,6,6,0,0,1,2.42-.62,3.07,3.07,0,0,1,.53.05,7.34,7.34,0,0,0,1.06.08h.28c-.27,3.86-4.79,7.06-6.15,9.06-5.42-.69-7.34.91-5.49,7.65h0a5,5,0,0,0-.45,3.1c-.52,3.07.5,7,3.74,10.61a8.27,8.27,0,0,0-1.44,1.06l0,0h0A6.86,6.86,0,0,0,31,95.71h1.15s0,0,0,0h9.42a1.36,1.36,0,0,1,0-.29.22.22,0,0,1,0-.08l0-.21a.24.24,0,0,0,0-.08c0-.07,0-.14,0-.22l0,0a2.76,2.76,0,0,1,.08-.27l0-.08,0,0s0-.09.05-.13h0a2.14,2.14,0,0,0,.1-.22l.12-.22v0s0,0,0-.08h0V93.4a.22.22,0,0,0,0-.08s0-.09,0-.14a.28.28,0,0,0,0-.09.36.36,0,0,0,0-.11s0-.06,0-.09a.29.29,0,0,1,0-.09s0-.07,0-.1l0,0a2.26,2.26,0,0,1,.15-.39l.05-.08h0c.5-.88,1.43-1,2-1.4h0l.06,0,0,0,.06,0h0l.06-.08h0a.43.43,0,0,0,0-.07l0,0,0-.07v0l0-.1.18-.69a1,1,0,0,1,0-.17l.12-.56h0a13.7,13.7,0,0,0,6,2.81,6.78,6.78,0,0,0-1.53,4H60.24a4.46,4.46,0,0,1,.56-1.91,0,0,0,0,1,0,0s0,0,0-.08h0c0-2.82,2.32-2.19,2.64-3.37l.21-.81a10.9,10.9,0,0,0,8-10.49c0-.22,0-.43,0-.63,6.15.94,2.92,15.25,16.43,15.17a6.54,6.54,0,0,1-4.48-4.69C85.44,93,89.88,94.12,93,92c-6.86,1.35-7.4-2.87-11.3-9.75C85.05,85.78,89.12,92.56,97.62,86.52ZM51,91.59l.22,0ZM61,64.92Zm1.2,1.58,0,0h0l.07.08.12.14Zm.39.45.05,0-.19-.21Zm.67.7.14.15,0,0a.94.94,0,0,0,.1.1Zm.28.29.26.24h0l0,0Zm5.91,4.47Z"/><path class="cls-7" d="M41.81,92.76v0Z"/><path class="cls-8" d="M41.81,92.76a.56.56,0,0,1,0-.08l0,0v0A.09.09,0,0,1,41.81,92.76Z"/><path class="cls-7" d="M36.21,72.6c-5.55.55-7.59,8.92-1.32,15.88a8.36,8.36,0,0,0-1.44,1h0l8.35,3.14c0-2.81,2.33-2.18,2.64-3.36C47.74,77.19,41.11,72.12,36.21,72.6Z"/><path class="cls-8" d="M33.47,89.52h0a6.87,6.87,0,0,0-2.72,5.16H41.24a4.71,4.71,0,0,1,.56-1.9v0a.09.09,0,0,0,0-.05v0Z"/><path class="cls-7" d="M39.11,39.66c-.11-.21-.23-.42-.35-.62a6.76,6.76,0,0,1,1.55-.64l.51-.11a16.9,16.9,0,0,1,2.46-.23c-1.77-3.17-5.09-10.23-5.09-10.23a3.64,3.64,0,0,1-.2,1.79c-.36,1.11-1.52,2.65-1.57,4.83,0,1.84,1.84,5.4,1.84,5.4Z"/><path class="cls-10" d="M34,60.78s.55,0,.65.28c.24.66-1.72,4.11-2.15,4.6,0,.13,1.75.89,2.47,0,.29-.35,1,.09,1.68-.61.45-.49,3.14-3.73,3-5.24,0-.41-.77-.82-.65-1.35A2,2,0,0,1,40.1,57,8.34,8.34,0,0,0,34,60.78Z"/><path class="cls-11" d="M74.18,36.5c-.9-.25-6.8,2.24-6.8,2.24s3.78-4.06,2.81-6.77c-.65.51-4.64.83-4.64.83s3.74-5.08,1.8-9.51c-3.67.43-14.78,4.4-16,13.22a30.85,30.85,0,0,0,.19,3.29c1,.74,2.08,1.63,2.13,1.69L57.83,46a6.84,6.84,0,0,1,.18,4,.94.94,0,0,0,0,.16v0l0,.19v0l0,.18v.05a1.7,1.7,0,0,1,0,.22v0a1.55,1.55,0,0,1,0,.21v0c0,.08,0,.16,0,.25v.05l0,.24v0l0,.28v.07c0,.09,0,.18,0,.28v0l0,.3v.08c0,.1,0,.21,0,.32v0c0,.1,0,.2,0,.3v.08c0,.11,0,.23,0,.34v.89c0,.1,0,.21,0,.32v.07l0,.37v.1c0,.11,0,.23,0,.34v.06c0,.13,0,.26,0,.39l0,.11c0,.13,0,.26,0,.39V57c0,.12.05.25.07.37s0,.08,0,.12h0c1.87-1,3.91-2,4.33-2.29.27-2,2.84-11.14,11.74-17.57A3.68,3.68,0,0,0,74.18,36.5Z"/><path class="cls-12" d="M51.56,39.81l.17.13h0l.16.13h0l.7.55,0,0,.13.1,0,0,.11.09,0,0,.11.09,0,0,.13.11h0l.11.09,0,0,.07.06,0,0,.05,0,0,0,0,0,0,0,0,0h0l0,0L57.83,46a6.84,6.84,0,0,1,.18,4,.94.94,0,0,0,0,.16v0l0,.19v0l0,.18v.05a1.7,1.7,0,0,1,0,.22v0a1.55,1.55,0,0,1,0,.21v0c0,.08,0,.16,0,.25v.05l0,.24v0l0,.28v.07c0,.09,0,.18,0,.28v0l0,.3v.08c0,.1,0,.21,0,.32v0c0,.1,0,.2,0,.3v.08c0,.11,0,.23,0,.34v.89c0,.1,0,.21,0,.32v.07l0,.37v.1c0,.11,0,.23,0,.34v.06c0,.13,0,.26,0,.39l0,.11c0,.13,0,.26,0,.39V57c0,.12.05.25.07.37s0,.08,0,.12,0,.27.08.4A.29.29,0,0,1,58,58a3.59,3.59,0,0,1,.08.35l0,.12c0,.13.07.27.11.4a.56.56,0,0,0,0,.12c0,.11.06.22.1.34l0,.12c.05.13.09.27.14.41a.69.69,0,0,0,.05.13l.12.34a.76.76,0,0,1,0,.11l.17.42L59,61c0,.13.11.25.16.37l.06.12.18.38s0,.1.08.16l.22.41.06.12c.06.11.13.22.19.34.28.47.58,1,.92,1.42a10.16,10.16,0,0,0,5.4,2.08,13.73,13.73,0,0,1-.05-2.57s2.63,1.58,3.52,1.42c-.08-1.47-.21-12.86-.21-12.86s5-15.41,4.66-15.86c-.9-.25-6.8,2.24-6.8,2.24s3.78-4.06,2.81-6.77c-.65.51-4.64.83-4.64.83s3.74-5.08,1.8-9.51c-3.67.43-14.78,4.4-16,13.22a30.85,30.85,0,0,0,.19,3.29Z"/><path class="cls-13" d="M73.31,38.13l.28-.2Z"/><path class="cls-14" d="M72.56,38.73l.15-.12Z"/><path class="cls-15" d="M74.22,37.47h0Z"/><path class="cls-16" d="M72.88,38.47l.35-.27Z"/><path class="cls-17" d="M58,58a3.59,3.59,0,0,1,.08.35l0,.12c0,.13.07.27.11.4a.56.56,0,0,0,0,.12c0,.11.06.22.1.34l0,.12a2.25,2.25,0,0,1,.08.24c.59.27,1.17.46,1.17.46s-.95-2.12-.56-2.65c.38.22,2.14,1.17,2.14,1.17s-.93-1.6-.67-1.93l2.19.71s-.67-1.89-.35-2.24A22.19,22.19,0,0,1,64.7,56s-1.24-2-1-2.7c.64,0,2.29.15,2.29.15s-2.24-1.75-2.09-2.39a26.15,26.15,0,0,1,4-.77s-2.45-.56-2.29-1.06a16.53,16.53,0,0,0,3.67-2.4c-.07-.59-2.89-1.21-3.08-.88l.24-.41a26.57,26.57,0,0,0-4.14,9.66c-.42.26-2.46,1.32-4.33,2.29,0,.13,0,.26.08.39A.29.29,0,0,1,58,58Z"/><path class="cls-18" d="M78.23,62h0C78.29,62,78.3,62,78.23,62Z"/><path class="cls-19" d="M73.79,37.78l.14-.11Z"/><path class="cls-20" d="M72.28,39h0Z"/><path class="cls-7" d="M72.71,38.61l.17-.14Z"/><path class="cls-7" d="M73.23,38.2l.08-.07Z"/><path class="cls-7" d="M72.29,39l.27-.22Z"/><path class="cls-7" d="M73.59,37.93l.2-.15Z"/><path class="cls-7" d="M73.93,37.67l.29-.2Z"/><path class="cls-7" d="M74.23,37.46A32.58,32.58,0,0,1,83.15,33,31.73,31.73,0,0,0,74.23,37.46Z"/><path class="cls-7" d="M72.28,39a28.9,28.9,0,0,0-5.89,6.58A30.93,30.93,0,0,1,72.28,39Z"/><path class="cls-7" d="M66.15,46c.19-.33,3,.29,3.08.88a16.53,16.53,0,0,1-3.67,2.4c-.16.5,2.29,1.06,2.29,1.06a26.15,26.15,0,0,0-4,.77c-.15.64,2.09,2.39,2.09,2.39s-1.65-.12-2.29-.15c-.22.67,1,2.7,1,2.7a22.19,22.19,0,0,0-2.29-.82c-.32.35.35,2.24.35,2.24l-2.19-.71c-.26.33.67,1.93.67,1.93s-1.76-1-2.14-1.17c-.39.53.56,2.65.56,2.65s-.58-.19-1.17-.46l.06.17a.69.69,0,0,0,.05.13l.12.34a.76.76,0,0,1,0,.11l.17.42L59,61c0,.13.11.25.16.37l.06.12.18.38s0,.1.08.16l.22.41.06.12c.06.11.13.22.19.34a18.24,18.24,0,0,0,1.36,2c-.16-1.37-.42-3-.42-3s2.92,1.86,3.26,1.58c-.24-.66-.71-3.41-.71-3.41s3.71,2.09,4.07,1.78c-.41-.86-2.6-4.43-2.6-4.43s6.32.84,6.42.46C70.85,56.9,68,54.77,68,54.77s8.9-1.72,8.91-2.24c-.9-.28-5.45-1.78-5.45-1.78s9-2.54,9.16-3.1c-.81-.48-5.7-3-5.7-3s9-2.73,9-3.25c-.74-.51-4.73-2.09-4.73-2.09s7.44-3.22,8.72-7.37a32.59,32.59,0,0,0-13.6,5.53h0l-.29.2-.14.11-.2.15-.28.2-.08.07-.35.27-.17.14-.15.12-.27.22h0a30.93,30.93,0,0,0-5.89,6.58Z"/><path class="cls-21" d="M71.58,50.81a.41.41,0,0,0-.11-.07h0Z"/><path class="cls-22" d="M62,65.67l-.09-.11Z"/><path class="cls-23" d="M62.27,66l-.13-.15Z"/><path class="cls-24" d="M63.74,67.5l-.26-.24Z"/><path class="cls-25" d="M62.58,66.36a1.29,1.29,0,0,1-.16-.17A1.29,1.29,0,0,0,62.58,66.36Z"/><path class="cls-26" d="M62.69,66.48c.23.24.48.49.73.73C63.17,67,62.92,66.72,62.69,66.48Z"/><path class="cls-27" d="M98.46,31.07a45.05,45.05,0,0,0-15.31,2,32.75,32.75,0,0,1,4.68-1.11c-1.28,4.15-8.72,7.37-8.72,7.37s4,1.58,4.73,2.09c0,.52-9,3.25-9,3.25s4.89,2.53,5.7,3c-.08.4-4.79,1.83-7.42,2.6a5,5,0,0,0,3.57.38,5.23,5.23,0,0,1-3.11.85l3.25,1.05c0,.29-2.83,1-5.3,1.5a20.81,20.81,0,0,0,4.25,5.34c3.59.55,7-1.74,7-1.74S78.11,56.14,78.3,55c5.58.35,7.86-1.3,7.86-1.3L81.65,50.2c5.28,2,9-2.59,9-2.59s-4.49-.61-4.55-1.42A13.84,13.84,0,0,0,94,41.34s-3.73,0-5.41-1C92.79,39,98.46,33,98.46,31.07Z"/><path class="cls-28" d="M63.48,67.26l-.06-.05Z"/><path class="cls-28" d="M62.69,66.48l-.11-.12Z"/><path class="cls-28" d="M62.42,66.19,62.27,66Z"/><path class="cls-28" d="M63.78,67.53h0l0,0Z"/><path class="cls-28" d="M62.14,65.88,62,65.67Z"/><path class="cls-28" d="M73.62,51.48l-2-.67A4.92,4.92,0,0,0,73.62,51.48Z"/><path class="cls-29" d="M71.57,54c-1.91.41-3.61.74-3.61.74s2.89,2.13,3.36,3.06c-.1.38-6.42-.46-6.42-.46s2.19,3.57,2.6,4.43c-.36.31-4.07-1.78-4.07-1.78s.47,2.75.71,3.41c-.34.28-3.26-1.58-3.26-1.58s.26,1.66.42,3c.18.23.37.46.56.68l.09.11.19.21.13.15.15.16a1.29,1.29,0,0,0,.16.17l.11.12c.23.24.48.49.73.73l.06.05.26.24,0,0a9.21,9.21,0,0,0,.93.31c0-.44,0-.79,0-.79a9.92,9.92,0,0,0,3.16,1c-.13-.69-.25-3.55,0-3.24,1.24,1.55,5.06.92,5.06.92l0-.06c-1.46-.82-2.47-2.28-2.95-4.68a11.26,11.26,0,0,0,1.34,1.42l-.13-.27c2.45,1.65,6.94-.13,7.09-.18-.46-.28-3.91-2.46-4-3.05a7.22,7.22,0,0,0,1.57.43A20.81,20.81,0,0,1,71.57,54Z"/><path class="cls-28" d="M71.57,54c-1.91.41-3.61.74-3.61.74s2.89,2.13,3.36,3.06c-.1.38-6.42-.46-6.42-.46s2.19,3.57,2.6,4.43c-.36.31-4.07-1.78-4.07-1.78s.47,2.75.71,3.41c-.34.28-3.26-1.58-3.26-1.58s.26,1.66.42,3c.18.23.37.46.56.68l.09.11.19.21.13.15.15.16a1.29,1.29,0,0,0,.16.17l.11.12c.23.24.48.49.73.73l.06.05.26.24,0,0a9.21,9.21,0,0,0,.93.31c0-.44,0-.79,0-.79a9.92,9.92,0,0,0,3.16,1c-.13-.69-.25-3.55,0-3.24,1.24,1.55,5.06.92,5.06.92l0-.06c-1.46-.82-2.47-2.28-2.95-4.68a11.26,11.26,0,0,0,1.34,1.42l-.13-.27c2.45,1.65,6.94-.13,7.09-.18-.46-.28-3.91-2.46-4-3.05a7.22,7.22,0,0,0,1.57.43A20.81,20.81,0,0,1,71.57,54Z"/><path class="cls-30" d="M71.58,50.81l2,.67a5.23,5.23,0,0,0,3.11-.85,5,5,0,0,1-3.57-.38l-1.69.49A.41.41,0,0,1,71.58,50.81Z"/><path class="cls-28" d="M71.58,50.81l2,.67a5.23,5.23,0,0,0,3.11-.85,5,5,0,0,1-3.57-.38l-1.69.49A.41.41,0,0,1,71.58,50.81Z"/><path class="cls-31" d="M81.3,81.28c3.38,3.53,7.46,10.31,16,4.27-11.11,1.5-7.59-7.87-17.34-10.08,7.72.64,8.85,7.24,15.73,3.54-5.89.82-8.69-5.61-14.4-8.62a13,13,0,0,0-12.76.32,10.84,10.84,0,0,1,2.78,6.65c6.14.94,2.91,15.26,16.43,15.18a6.55,6.55,0,0,1-4.49-4.7c1.87,4.18,6.32,5.3,9.4,3.18C85.73,92.38,85.2,88.16,81.3,81.28Z"/><path class="cls-31" d="M69.93,61c2.59,3.26,6.71,5.2,14.66.12-11.12,2.17-12.2-8.36-18.21-14.55-1.9-2-5.77-6-10.14-4.36,9.89-4.77,12.27,13.34,20.49,8.4-4.89,1-6.2-3.37-9.35-7.65s-7.23-9.72-13.89-5.32c5.64-6.38,12.36,3.08,17.33,2.62a3,3,0,0,0,2-1,2.24,2.24,0,0,1-1.31.34c-3.08-.11-7.06-5.76-13.07-6.93a12.29,12.29,0,0,0-7.83,1.18c2.53-2.4,6.65-1.61,9.27-2.54a3.25,3.25,0,0,0,2.14-2c0-.1.07-.2.1-.3-2.39,3.38-18.85-.91-19.73,7.62.23.46.44.93.64,1.41a22.35,22.35,0,0,1,7.26.75c.12,0,3.35,2.57,3.43,2.67L57.83,46a6.84,6.84,0,0,1,.18,4,.94.94,0,0,0,0,.16v0l0,.19v0l0,.18v.05a1.7,1.7,0,0,1,0,.22v0a1.55,1.55,0,0,1,0,.21v0c0,.08,0,.16,0,.25v.05l0,.24v0l0,.28v.07c0,.09,0,.18,0,.28v0l0,.3v.08c0,.1,0,.21,0,.32v0c0,.1,0,.2,0,.3v.08c0,.11,0,.23,0,.34v.89c0,.1,0,.21,0,.32v.07l0,.37v.1c0,.11,0,.23,0,.34v.06c0,.13,0,.26,0,.39l0,.11c0,.13,0,.26,0,.39V57c0,.12.05.25.07.37s0,.08,0,.12,0,.27.08.4A.29.29,0,0,1,58,58a3.59,3.59,0,0,1,.08.35l0,.12c0,.13.07.27.11.4a.56.56,0,0,0,0,.12c0,.11.06.22.1.34l0,.12c.05.13.09.27.14.41a.69.69,0,0,0,.05.13l.12.34a.76.76,0,0,1,0,.11l.17.42L59,61c0,.13.11.25.16.37l.06.12.18.38s0,.1.08.16l.22.41.06.12c.06.11.13.22.19.34a19.28,19.28,0,0,0,3.84,4.66c3.28,1.27,7.83.81,13.66-.93C73.51,66.67,70.8,65.44,69.93,61Z"/><path class="cls-32" d="M58.05,46.74a8.1,8.1,0,0,1,0,3.31.94.94,0,0,0,0,.16v0l0,.19v0l0,.18v.05a1.7,1.7,0,0,1,0,.22v0a1.55,1.55,0,0,1,0,.21v0c0,.08,0,.16,0,.25v.05l0,.24v0l0,.28v.07c0,.09,0,.18,0,.28v0l0,.3v.08c0,.1,0,.21,0,.32v0c0,.1,0,.2,0,.3v.08c0,.11,0,.23,0,.34v.89c0,.1,0,.21,0,.32v.07l0,.37v.1c0,.11,0,.23,0,.34v.06c0,.13,0,.26,0,.39l0,.11c0,.13,0,.26,0,.39V57c0,.12.05.25.07.37s0,.08,0,.12,0,.27.08.4A.29.29,0,0,1,58,58a3.59,3.59,0,0,1,.08.35l0,.12c0,.13.07.27.11.4a.56.56,0,0,0,0,.12c0,.11.06.22.1.34l0,.12c.05.13.09.27.14.41a.69.69,0,0,0,.05.13l.12.34a.76.76,0,0,1,0,.11l.17.42L59,61c0,.13.11.25.16.37l.06.12.18.38s0,.1.08.16l.22.41.06.12c.06.11.13.22.19.34a19.28,19.28,0,0,0,3.84,4.66c3.28,1.27,7.83.81,13.66-.93C54,69.49,59.69,45.91,58.05,46.74Z"/><g class="cls-33"><path d="M90.93,86.53l-.15,0-.44-.14a9.45,9.45,0,0,1-1.56-.71,9.7,9.7,0,0,1-2-1.56,14.31,14.31,0,0,1-1.89-2.48c-.58-.92-1.1-1.81-1.65-2.53a9.1,9.1,0,0,0-1.7-1.74,5.69,5.69,0,0,0-1.45-.78l-.25-.08-.19,0-.16,0h.36l.27,0a5,5,0,0,1,1.62.59,7.78,7.78,0,0,1,2,1.65,19.2,19.2,0,0,1,1.79,2.53,20.27,20.27,0,0,0,1.73,2.46A12.22,12.22,0,0,0,89,85.33a12.51,12.51,0,0,0,1.4.91l.41.21Z"/></g><path class="cls-32" d="M71,71.7l.57-.17.62-.14c.43-.09.9-.17,1.39-.23a16.37,16.37,0,0,1,3.22,0,21.47,21.47,0,0,1,5.71,1.39c.71.27,1.28.52,1.67.7l.61.28-.15-.1-.41-.28a16.76,16.76,0,0,0-1.57-.93,17.45,17.45,0,0,0-2.51-1.08,14.48,14.48,0,0,0-3.29-.7,12.8,12.8,0,0,0-3.37.15,11.08,11.08,0,0,0-1.43.35l-.63.21c-.19.08-.39.15-.56.24a9.31,9.31,0,0,0-1.29.68l.09.14A13.7,13.7,0,0,1,71,71.7Z"/><path class="cls-32" d="M69.36,71.78A6.08,6.08,0,0,1,73.26,70s-.07,0-.21,0a4.23,4.23,0,0,0-.6,0,5,5,0,0,0-2,.29,3.82,3.82,0,0,0-1,.57,3.29,3.29,0,0,0-.52.55C69.12,71.48,69.24,71.62,69.36,71.78Z"/><path class="cls-32" d="M71.05,75.69a4.47,4.47,0,0,1,1.86.52A4.92,4.92,0,0,1,74,77,6.82,6.82,0,0,1,75,78a15.08,15.08,0,0,1,1.61,2.79c.48,1,.93,2,1.45,3a15.87,15.87,0,0,0,1.65,2.38,16.2,16.2,0,0,0,1.4,1.47l.43.37.15.13L81.5,88l-.41-.4a16,16,0,0,1-1.3-1.54,14.73,14.73,0,0,1-1.48-2.43c-.46-.93-.85-2-1.27-3a15.69,15.69,0,0,0-1.51-3,8.86,8.86,0,0,0-1-1.24,6.66,6.66,0,0,0-1.17-.92,5.24,5.24,0,0,0-2.23-.74l-.35,0a7.29,7.29,0,0,1,.26,1Z"/><path class="cls-32" d="M85.48,76l-.38-.15a9.11,9.11,0,0,1-1.32-.67c-.54-.31-1.16-.72-1.86-1.17a16.29,16.29,0,0,0-2.4-1.36,12.82,12.82,0,0,0-2.66-.79,17.52,17.52,0,0,0-4.4,0,8.05,8.05,0,0,0-2.21.67l-.31.15c.09.17.18.34.26.52l.28-.11a14.53,14.53,0,0,1,2.09-.51,13.23,13.23,0,0,1,6.66.74c.85.37,1.64.82,2.38,1.21a19.13,19.13,0,0,0,2,1,8.22,8.22,0,0,0,1.44.45l.41.07.14,0Z"/><path class="cls-32" d="M71,74.57a12.33,12.33,0,0,1,2.71,0,7.07,7.07,0,0,1,1.53.36,4.41,4.41,0,0,1,.74.33c.12.06.23.14.35.21l.33.25a5.16,5.16,0,0,1,1,1.24,10.21,10.21,0,0,1,.67,1.43c.35,1,.61,1.88.88,2.63A9.94,9.94,0,0,0,80,82.77l.08.14.07.12.12.18.1.15-.07-.17L80.25,83l0-.13-.06-.14a12.52,12.52,0,0,1-.52-1.79c-.19-.77-.35-1.69-.65-2.72a8.65,8.65,0,0,0-.65-1.58,5.13,5.13,0,0,0-1.19-1.46,3.58,3.58,0,0,0-.39-.29c-.14-.08-.27-.17-.41-.24a5.81,5.81,0,0,0-.86-.36A7,7,0,0,0,73.78,74a10.63,10.63,0,0,0-2.83.23l-.32.07c0,.11.07.21.11.31Z"/><g class="cls-33"><path d="M58.19,39.35a5.92,5.92,0,0,1,1.17.18,12.82,12.82,0,0,1,2.17.9c.67.32,1.29.62,1.83.82a6.16,6.16,0,0,0,1.33.33l.21,0h.28l-.12,0-.15-.05-.2-.07a8,8,0,0,1-1.2-.55c-.48-.27-1-.64-1.69-1a9.18,9.18,0,0,0-2.27-1.06,6.24,6.24,0,0,0-1.33-.18,6.12,6.12,0,0,0-1.24.13l-.52.14,1-.52.92-.46.87-.4h-.57a3.5,3.5,0,0,0-.41.05,6.2,6.2,0,0,0-1,.23,6.89,6.89,0,0,0-1.21.52,6.45,6.45,0,0,0-1.08.76,7.56,7.56,0,0,0-.75.76c-.1.12-.18.23-.25.33a2.23,2.23,0,0,0-.17.25,1.48,1.48,0,0,0-.14.23l.68-.45a2.65,2.65,0,0,0-.24.25,1.77,1.77,0,0,0-.14.17l-.1.12-.07.1.1-.08L54,40.7l.16-.13a6.23,6.23,0,0,1,1.14-.67,6,6,0,0,1,2.93-.55Z"/><path d="M70.19,65l-.14-.06-.17-.09a3.68,3.68,0,0,1-.42-.23,9.39,9.39,0,0,1-2.27-1.91A9.28,9.28,0,0,1,66,61a4.37,4.37,0,0,1-.23-.49c-.08-.16-.14-.34-.21-.52-.12-.37-.23-.75-.33-1.16-.41-1.6-.61-3.44-.9-5.39-.15-1-.33-1.93-.56-2.85A15.48,15.48,0,0,0,62.9,48a10,10,0,0,0-1.31-2.14A7,7,0,0,0,60,44.42l-.22-.12-.22-.12L59.07,44a5.51,5.51,0,0,0-.84-.18,5.31,5.31,0,0,0-1.34,0l-.23,0,.11,0a4.2,4.2,0,0,1,1.87-.22,5.54,5.54,0,0,1,2.52,1.05,9.42,9.42,0,0,1,1.23,1.08c.2.21.39.43.57.65a7.88,7.88,0,0,1,.51.73A31,31,0,0,1,65,50.25a10.84,10.84,0,0,0,1.55,2.5,6.06,6.06,0,0,0,.81.8,5.07,5.07,0,0,0,.71.47c.1.06.2.09.28.13l.21.09.17.06-.16-.09a4.56,4.56,0,0,1-.44-.29,6.39,6.39,0,0,1-.62-.54,8.14,8.14,0,0,1-.68-.85A13.2,13.2,0,0,1,65.57,50c-.2-.5-.4-1-.64-1.58a11.53,11.53,0,0,0-.85-1.68,8.68,8.68,0,0,0-.56-.79c-.21-.24-.42-.47-.64-.69a8.33,8.33,0,0,0-1.38-1.1,5.54,5.54,0,0,0-2.84-.9,3.87,3.87,0,0,0-1.14.16,3.79,3.79,0,0,0-.79.32,2.14,2.14,0,0,0-.27.16l-.08,0-.31.09-.2.07-.07,0h.07l.22,0,.13,0-.1.07.16-.08.21,0a1.81,1.81,0,0,0-.42.15l-.19.11.21-.07a2,2,0,0,1,.6,0,2.2,2.2,0,0,1,.89.29,4.3,4.3,0,0,1,1,.76,7.43,7.43,0,0,1,1,1.18,9.13,9.13,0,0,1,.82,1.52,6.74,6.74,0,0,1,.3.86,1.89,1.89,0,0,1,.05.23l0,.24.09.49a19.25,19.25,0,0,1,.2,2.09c0,.72.06,1.44.08,2.14,0,.35,0,.69.05,1l0,.51c0,.16,0,.33,0,.5a10.73,10.73,0,0,0,1,3.38,6.6,6.6,0,0,0,1.37,1.92,4.86,4.86,0,0,0,.49.4l.18.12-.15-.16a5.5,5.5,0,0,1-.4-.48,7.07,7.07,0,0,1-1-2,11.85,11.85,0,0,1-.56-3.24V54c0-.7,0-1.43,0-2.18a14.36,14.36,0,0,0-.27-2.21,4.54,4.54,0,0,0-.12-.53l-.07-.26a2.5,2.5,0,0,0-.07-.26,6.72,6.72,0,0,0-.42-1A8.53,8.53,0,0,0,60.12,46a7,7,0,0,0-1.2-1.14,4.55,4.55,0,0,0-1.2-.67,3.45,3.45,0,0,0-.4-.11,7.5,7.5,0,0,1,.85.14,4.61,4.61,0,0,1,.74.25c.13.06.25.13.37.2l.18.12.18.13A6.42,6.42,0,0,1,61,46.34a9.64,9.64,0,0,1,1.06,2,17,17,0,0,1,.74,2.47c.19.88.35,1.81.49,2.78a36.24,36.24,0,0,0,1.1,5.47c.13.42.27.82.43,1.21.09.19.17.39.27.57s.21.35.31.52a9.17,9.17,0,0,0,4,3.35,2.87,2.87,0,0,0,.45.17L70,65l.16,0,.28.07Z"/></g><path class="cls-32" d="M61.86,35l-.13-.12-.18-.15A4.36,4.36,0,0,0,60.17,34a6.8,6.8,0,0,0-1.05-.24,8.11,8.11,0,0,0-1.23-.06,13.26,13.26,0,0,0-1.36.13,11.14,11.14,0,0,0-1.42.33,5.73,5.73,0,0,0-2.48,1.45,4,4,0,0,0-.74,1l-.16.4a1.52,1.52,0,0,1,.29.45,3.74,3.74,0,0,1,1-1.45,6.29,6.29,0,0,1,2.27-1.2,13.76,13.76,0,0,1,1.34-.33c.43-.09.86-.16,1.27-.21a9.16,9.16,0,0,1,1.15-.05,7.58,7.58,0,0,1,1,.09,4.88,4.88,0,0,1,1.4.45l.2.11.15.1.12.07Z"/><path class="cls-34" d="M64,67.71a19.62,19.62,0,0,1-4-4.84c-.06-.12-.13-.23-.19-.34l-.06-.12L59.47,62c0-.06,0-.11-.08-.16l-.18-.38-.06-.12c0-.12-.11-.24-.16-.37l-.06-.14-.17-.42a.76.76,0,0,0,0-.11L58.6,60a.69.69,0,0,1-.05-.13c0-.14-.09-.28-.14-.41l0-.12c0-.12-.07-.23-.1-.34a.56.56,0,0,1,0-.12c0-.13-.07-.27-.11-.4l0-.12A3.59,3.59,0,0,0,58,58a.29.29,0,0,0,0-.09c0-.13,0-.27-.08-.4s0-.08,0-.12,0-.25-.07-.37v-.05c0-.13,0-.26,0-.39l0-.11c0-.13,0-.26,0-.39V56c0-.11,0-.23,0-.34v-.1l0-.37v-.07c0-.11,0-.22,0-.32V53.9c0-.11,0-.23,0-.34v-.08c0-.1,0-.2,0-.3v0c0-.11,0-.22,0-.32v-.08l0-.3v0c0-.1,0-.19,0-.28v-.07l0-.28v0l0-.24v-.05c0-.09,0-.17,0-.25v0a1.55,1.55,0,0,0,0-.21v0a1.7,1.7,0,0,0,0-.22v-.05l0-.18v0l0-.19v0a.94.94,0,0,1,0-.16,6.84,6.84,0,0,0-.18-4l-4.15-4.54c-.08-.1-3.31-2.63-3.43-2.67a23.47,23.47,0,0,0-9.43-.53l-.51.11a6.76,6.76,0,0,0-1.55.64,21.84,21.84,0,0,1,2.86,11,23.22,23.22,0,0,1-1.16,7.3,3.93,3.93,0,0,1,1.28,0,6.52,6.52,0,0,0,1.53.06c.24,4.62-5.92,8.35-6.5,10.36s-3.36,10.88,8.13,20c5.9,4.7,12.37,3.45,17.19,1a10.89,10.89,0,0,0,1.88-21Z"/><path class="cls-35" d="M58,50.05a6.84,6.84,0,0,0-.18-4l-4.15-4.54c-.08-.1-3.31-2.63-3.43-2.67a23.47,23.47,0,0,0-9.43-.53c-1.31.25-2.71,1-2.69,1.39,0,.81-.55,3.12-1.36,3.12-2.52,0-2.84,2.53-3.09,4.05-.38,2.28-3.8,8.44-5.84,9.52s-1.21,3.59-.11,5.42a13.83,13.83,0,0,0,.87,1.27h0c.73,1.22.76,1.16,1.19.9s.47.46.78.25c.71-.5,2.39-3.12,4-3.14,1.18,0,4.45-4.18,7.21-3.71a6.52,6.52,0,0,0,1.53.06,5.61,5.61,0,0,0,5.22-4.83c2.1-2,2.93-2.38,3.32-1.91a17.87,17.87,0,0,0,1.1,4.5c1.8,4.07,3.05,4.65,4.88,6.63A11.2,11.2,0,0,0,60,63,18.11,18.11,0,0,1,58,50.05Z"/><path class="cls-36" d="M51.29,74.61c-3.34,2.6-3.82,9.56,2.77,14.16C50.67,82.81,51.29,74.61,51.29,74.61Z"/><path class="cls-8" d="M41.81,92.76a.56.56,0,0,1,0-.08l0,0v0A.09.09,0,0,1,41.81,92.76Z"/><path class="cls-37" d="M41.59,93.23h0a3.55,3.55,0,0,1,.21-.44h0l.06-.11c-.08-.05-1.8-.68-1.85-.68a12.61,12.61,0,0,0-.57,2.68h1.81a4.83,4.83,0,0,1,.25-1.2l0-.07A1.34,1.34,0,0,1,41.59,93.23Z"/><path class="cls-36" d="M36,72.64C34,78.05,37.55,85.88,42.56,87.15c.09.2-1.28,1.86-2,3.49A3.16,3.16,0,0,0,40,92l1.17.42.65.24a3.15,3.15,0,0,1,.28-1.37.35.35,0,0,0,0-.08h0c.65-1.17,2.07-1,2.31-1.91.14-.52.26-1,.37-1.5C44.5,87.2,36.45,82.72,36,72.64Z"/><path class="cls-6" d="M37.23,67a3.52,3.52,0,0,0-.6,1.11C32.17,79.85,46.14,90.49,51,90.69,47.77,90.36,32.9,79.86,37.23,67Z"/><path class="cls-38" d="M48.49,52.6a5.61,5.61,0,0,1-5.22,4.83,6.52,6.52,0,0,1-1.53-.06,4,4,0,0,0-2.59.61,2.26,2.26,0,0,0-.17.5s0,0,0,.06a6.18,6.18,0,0,1,2.43-.61,2.89,2.89,0,0,1,.52,0,6.35,6.35,0,0,0,1.07.09l.55,0a6.34,6.34,0,0,0,3.56-1.46,5.9,5.9,0,0,0,2-3.56c1.32-1.24,1.83-2.33,2.67-2.4C51.32,50.27,50.47,50.72,48.49,52.6Z"/><path class="cls-39" d="M42.5,44.48l-3.41,2.66a1.35,1.35,0,0,0,1.59.92A2.64,2.64,0,0,0,42.5,44.48Z"/><path d="M41.93,44.85,39.31,47a1.46,1.46,0,0,0,1.75.42A1.85,1.85,0,0,0,41.93,44.85Z"/><ellipse class="cls-6" cx="41.31" cy="45.82" rx="0.65" ry="0.33" transform="translate(-20.38 46.18) rotate(-48.3)"/><ellipse class="cls-6" cx="41.39" cy="46.47" rx="0.31" ry="0.18" transform="translate(-20.84 46.46) rotate(-48.3)"/><path class="cls-7" d="M38.42,47.69,43.18,44a2.82,2.82,0,0,0-1.73-1.22C40.05,42.37,38.15,44.57,38.42,47.69Z"/><path class="cls-36" d="M38.42,47.69S43.15,44,43.18,44C42.07,43.79,39.88,45.81,38.42,47.69Z"/><path class="cls-39" d="M36.1,46.88l-1.31-.66s-.56,1.27.31,2c.1.08.31,0,.45-.34A10.88,10.88,0,0,1,36.1,46.88Z"/><path d="M36.1,46.88l-1.31-.66a1.88,1.88,0,0,0,.05,1.68s.67,0,.76-.13S36.1,46.88,36.1,46.88Z"/><ellipse class="cls-6" cx="35.35" cy="47.19" rx="0.41" ry="0.21" transform="matrix(0.5, -0.87, 0.87, 0.5, -23.2, 54.21)"/><path class="cls-7" d="M35.6,43a21.2,21.2,0,0,0,.71,3.53c.06.1-.13.26-.26.43a3.68,3.68,0,0,1-2-1.34C33.79,45,34.7,43.44,35.6,43Z"/><path class="cls-36" d="M36.17,46.73c0,.05-.06.16-.12.24a3.68,3.68,0,0,1-2-1.34A15.54,15.54,0,0,1,36.17,46.73Z"/><path d="M27.9,58.12c-.15-.59-.51-1.23-.77-.69a1.32,1.32,0,0,0,.11,1.37c.21.3.36.51.52.18A1.38,1.38,0,0,0,27.9,58.12Z"/><path class="cls-40" d="M33.52,58.14c.2-.13.58.39,0,.91a1.89,1.89,0,0,1-1.25.45c.24.26.81.18.81.18l.31,0a1.7,1.7,0,0,0,.83-.48.83.83,0,0,0,.2-.88A.51.51,0,0,0,33.52,58.14Z"/><path d="M31.75,59.6a1,1,0,0,1,1.4-1.29c.46.37-.12.9-.63.79S31.86,59.33,31.75,59.6Z"/><path class="cls-41" d="M47.35,38.24c.36-4.1,13.5-1.5,12-7.92C58,35.57,38,27.45,40.81,38.27A25,25,0,0,1,47.35,38.24Z"/><path class="cls-42" d="M48.28,38.83c-1.9-1.3-2.29-4.15.73-9.72.8,4.69,5.28,9.56,2.29,11.62C50.69,40.47,50.37,38.86,48.28,38.83Z"/><path class="cls-36" d="M48.39,32.32a14,14,0,0,1,1.19,6.57,9.42,9.42,0,0,1-1.37-1.82C47.14,35.5,48.06,33.11,48.39,32.32Z"/><path class="cls-32" d="M46.32,34.14a2.37,2.37,0,0,0-.57.22,2.89,2.89,0,0,0-.72.57,2.63,2.63,0,0,0-.58,1,2.89,2.89,0,0,0-.13,1.14,2.94,2.94,0,0,0,.25.89.41.41,0,0,0,0,.09v0h.31v0a1.23,1.23,0,0,1,0-.2c-.32-3.13,1.61-3.75,1.61-3.75Z"/><path class="cls-32" d="M43.5,34l-.15.06a2.23,2.23,0,0,0-.51.33,2.53,2.53,0,0,0-.59.71,2.73,2.73,0,0,0-.33,1.11,2.76,2.76,0,0,0,.19,1.14,2.89,2.89,0,0,0,.43.7l0,0,.4,0v0s0-.07-.05-.1a4,4,0,0,1-.27-1.68,3.92,3.92,0,0,1,.48-1.63,4.42,4.42,0,0,1,.3-.47l.13-.17Z"/><path class="cls-43" d="M54.84,72.6c4.9-.48,11.53,4.59,8.25,16.7-.32,1.18-2.64.54-2.64,3.41.1.88-8.55-3-8.55-3a7.57,7.57,0,0,1,1.62-1.23C47.25,81.52,49.29,73.15,54.84,72.6Z"/><path class="cls-8" d="M52.1,89.52a6.84,6.84,0,0,0-2.74,5.17H59.87a4.56,4.56,0,0,1,.62-2Z"/><path class="cls-44" d="M53.15,89.92l-1.09-.4a6.87,6.87,0,0,0-2.74,5.16h1.16A6.85,6.85,0,0,1,53.15,89.92Z"/><path class="cls-44" d="M34.49,90l-1.08-.41a6.85,6.85,0,0,0-2.75,5.16h1.16A6.83,6.83,0,0,1,34.49,90Z"/><path class="cls-7" d="M37.15,67.12c-5.45-.71-7.38.88-5.52,7.64l4.3.23C35.61,72.44,35.66,69.26,37.15,67.12Z"/><path class="cls-8" d="M35.93,75l-4.3-.23h0a4.88,4.88,0,0,0-.13,4.16l4.64-2.38A3.74,3.74,0,0,1,35.93,75Z"/><path class="cls-44" d="M32.74,74.82l-1.11-.06h0a4.88,4.88,0,0,0-.13,4.16l1.06-.54A4.91,4.91,0,0,1,32.74,74.82Z"/><path class="cls-45" d="M55.58,62.9c4.88,0,6.61,9.18.4,9.18-1.39,0-7.88-1.59-6.87,2.64l-3.89-.4s-3.56-7.72,6.86-8A3.58,3.58,0,0,1,55.58,62.9Z"/><path class="cls-8" d="M49.1,74.53l-4-.25a4.8,4.8,0,0,0,.17,4.1L49.44,76A3.21,3.21,0,0,1,49.1,74.53Z"/><path class="cls-44" d="M46.28,74.35l-1.14-.07a4.8,4.8,0,0,0,.17,4.1l1-.59A4.8,4.8,0,0,1,46.28,74.35Z"/><path class="cls-6" d="M17.88,28.78l-.49.28-.17-.3.51-.29-.17-.34-.39.23-.18-.3.42-.24-.25-.5.31-.18.25.5.35-.2-.24-.51.31-.18.25.51.49-.29.17.3-.51.29.17.34.4-.23.17.3-.42.24.25.5-.32.19-.25-.5-.35.2.24.5-.31.18Zm.51-.7-.16-.33-.36.2.17.34Z"/><path class="cls-6" d="M19.4,26l.82-.48c.53-.31,1.11-.21,1.62.68s.31,1.44-.22,1.74l-.82.48Zm2,1.58c.37-.21.45-.48.05-1.16s-.66-.75-1-.54l-.44.26,1,1.7Z"/><path class="cls-6" d="M22.15,24.44l1.5-.87.21.36-1.12.65.35.6,1-.58.21.36-1,.59.42.73,1.12-.65.21.36-1.5.87Z"/><path class="cls-6" d="M24.46,23.11l.41-.24,1.72,1.54-.47-2.26.41-.24.56,2.91-.4.23Z"/><path class="cls-6" d="M30,22.14a1,1,0,0,1-.38,1.29c-.52.3-1.13.15-1.65-.74s-.33-1.49.19-1.79a1,1,0,0,1,1.31.31l-.31.27a.55.55,0,0,0-.79-.21c-.36.2-.41.52,0,1.2s.7.8,1.06.6a.57.57,0,0,0,.21-.8Z"/><path class="cls-6" d="M30.54,21.21c-.51-.89-.33-1.49.19-1.79s1.13-.15,1.64.73.34,1.49-.19,1.8S31.05,22.1,30.54,21.21ZM32,20.37c-.39-.68-.69-.8-1.06-.59s-.4.53,0,1.21.7.8,1,.59S32.39,21.06,32,20.37Z"/><path class="cls-6" d="M32.62,18.39,33,18.2l1.78,1.09-.92-1.59.37-.21,1.4,2.43-.31.17L33.46,19l.94,1.62-.38.22Z"/><path class="cls-6" d="M35.28,16.86l.89-.51A.86.86,0,0,1,37,17.84l-.51.29.54.94-.39.21Zm1.53.61a.41.41,0,0,0,.14-.59.41.41,0,0,0-.57-.17l-.51.29.44.77Z"/><path class="cls-6" d="M38.49,15l.33-.2,2.24,1.94-.39.23-.48-.44-.89.51.13.64-.38.22Zm1.4,1.27L39,15.46l.25,1.21Z"/><path class="cls-6" d="M40.55,13.82l.82-.48a.82.82,0,0,1,1.13.3.8.8,0,0,1,0,.9l1.1.77-.41.24-1-.73-.34.2.57,1-.38.22ZM42,14.4a.36.36,0,0,0,.14-.53.4.4,0,0,0-.55-.17l-.44.26.41.7Z"/><path class="cls-6" d="M43.12,12.33l.38-.22.67,1.17.21-1.67.4-.24-.17,1.5,1.72.84-.45.26-1.34-.65-.06.49.42.73-.38.22Z"/><path class="cls-6" d="M69.87,113.3l1.3-.75a1.26,1.26,0,0,1,1.26,2.18l-.75.43.79,1.36-.55.32Zm2.25.9a.63.63,0,0,0,.2-.87.59.59,0,0,0-.84-.25l-.75.43.65,1.12Z"/><path class="cls-6" d="M73.42,111.25,75.61,110l.31.53-1.63.94.5.88,1.49-.86.31.53-1.49.86.62,1.07,1.63-.94.31.53-2.19,1.26Z"/><path class="cls-6" d="M78.73,110.56l1.59-.92.31.53a1.44,1.44,0,0,1-.53,2c-.76.44-1.65.23-2.4-1.07s-.49-2.19.27-2.62a1.41,1.41,0,0,1,1.92.46l-.46.37a.82.82,0,0,0-1.16-.3c-.52.3-.59.76,0,1.76s1,1.17,1.54.87a.76.76,0,0,0,.31-1.16l0-.08-1,.6Z"/><path class="cls-6" d="M81.19,106.77l.49-.29L85,109.32l-.57.33-.7-.64-1.3.75.19.93L82,111Zm2.06,1.85-1.36-1.2.37,1.77Z"/><path class="cls-6" d="M85.42,107.31a.94.94,0,0,0,1.35.35c.38-.22.62-.57.39-1s-.49-.39-1.1-.22-1.39.27-1.75-.36a1.16,1.16,0,0,1,.59-1.6,1.35,1.35,0,0,1,1.75.24l-.46.4a.75.75,0,0,0-1-.1c-.38.22-.48.53-.36.74s.58.2,1.07.08,1.32-.32,1.79.49a1.29,1.29,0,0,1-.64,1.83,1.5,1.5,0,0,1-2.12-.5Z"/><path class="cls-6" d="M89.28,104.77,87,103.41l.58-.33,1.69,1,0-2,.62-.36v2.7l.88,1.52-.55.32Z"/><path class="cls-6" d="M92.4,103.28a.94.94,0,0,0,1.35.35c.38-.22.62-.57.39-1s-.49-.38-1.1-.21-1.38.27-1.75-.37a1.15,1.15,0,0,1,.59-1.59,1.35,1.35,0,0,1,1.75.24l-.46.4a.75.75,0,0,0-1-.1c-.38.21-.47.53-.35.74s.57.2,1.06.08,1.33-.32,1.8.49a1.31,1.31,0,0,1-.64,1.83,1.5,1.5,0,0,1-2.13-.5Z"/></g></g></svg>