<?xml version="1.0" encoding="utf-8"?>
<!-- Generator: Adobe Illustrator 21.0.2, SVG Export Plug-In . SVG Version: 6.00 Build 0)  -->
<svg version="1.1" xmlns="http://www.w3.org/2000/svg" xmlns:xlink="http://www.w3.org/1999/xlink" x="0px" y="0px"
	 viewBox="0 0 110.979 128.417" enable-background="new 0 0 110.979 128.417" xml:space="preserve">
<g id="Layer_1">
</g>
<g id="Layer_4">
</g>
<g id="border">
	<g id="Layer_63_8_">
		<g>
			<g>
				<polygon fill="#4AFFFF" points="110.949,96.435 55.523,128.435 0.099,96.435 0.099,32.435 55.523,0.435 110.949,32.435 				"/>
			</g>
		</g>
	</g>
	<path fill="#CBFCFE" d="M101.718,38.021v53.14l-0.011,0.01l-0.02,0.01l-0.41,0.24l-0.37,0.21l-0.62,0.35l-4.149,2.39l-0.011,0.01
		l-0.13,0.08l-0.06,0.03l-0.55,0.32l-0.801,0.45l-0.1,0.06l-0.48,0.28l-1.13,0.65l-0.85,0.49l-0.74,0.43l-0.24,0.13l-0.13,0.05
		l-0.109,0.07l-1.03,0.59l-2,1.15l-0.65,0.37l-0.17,0.1l-0.01,0.01l-0.13,0.07l-0.83,0.48l-0.08,0.04l-0.03,0.02l-0.01,0.01
		l-0.07,0.04l-0.149,0.08l-1.01,0.59l-0.37,0.21l-0.08,0.05l-0.01,0.01l-0.011,0.01h-0.01l-0.42,0.24l-0.76,0.44l-0.12,0.07
		l-0.24,0.14l-0.44,0.26l-0.431,0.26l-0.96,0.55l-0.22,0.12l-0.08,0.05l-0.12,0.07l-0.04,0.03l-0.06,0.03l-0.101,0.06l-0.229,0.14
		l-0.061,0.03l-0.029,0.01l-0.16,0.09v0.01l-0.4,0.23l-0.38,0.22l-0.18,0.09l-0.021,0.02l-0.04,0.02l-0.689,0.39l-0.3,0.18
		l-0.021,0.01l-0.29,0.17l-0.149,0.08l-0.221,0.13l-0.24,0.14h-0.01l-0.71,0.42l-0.03,0.02l-0.3,0.17l-1.359,0.79l-0.5,0.29
		l-0.95,0.54l-0.03,0.02h-0.01l-0.36,0.21l-0.24,0.15l-0.84,0.48l-0.63,0.36l-0.06,0.03l-0.5,0.29c-0.01,0.01-0.01,0.01-0.01,0
		l-0.53,0.31l-0.29,0.17l-0.76,0.44l-0.051,0.03l-0.05,0.03l-0.03,0.01c0,0.01-0.01,0.01-0.01,0.01l-0.02,0.02l-0.25,0.14l-0.3,0.17
		l-0.7,0.41l-0.17,0.1l-0.04,0.02l-0.38,0.22l-0.95,0.55l-1.69,0.98l-0.27,0.15l-0.26,0.15l-0.28,0.16l-0.01,0.01l-0.2,0.12
		l-0.23,0.13l-0.35,0.2l-0.83,0.48l-0.01,0.01l-0.09,0.05l-1.32,0.76l-0.021,0.01l-0.79,0.46l-0.609,0.35h-0.01l-1.41,0.81
		l-0.021,0.02l-0.25,0.14l-0.56,0.32h-0.01l-0.131,0.08l-0.189,0.11l-0.271,0.16h-0.01l-0.2,0.12l-0.06-0.03l-1.14-0.66l-0.021-0.01
		l-0.2-0.12l-0.85-0.49l-0.03-0.01l-0.33-0.19l-0.01-0.01l-1.4-0.81l-0.01-0.01l-0.02-0.01l-1.37-0.79l-0.03-0.02h-0.01l-0.83-0.48
		l-0.061-0.04l-0.34-0.19l-0.18-0.11l-0.021-0.01l-0.659-0.38l-0.04-0.03l-0.09-0.05l-0.101-0.06l-0.13-0.07l-0.27-0.16l-0.12-0.07
		h-0.011l-0.72-0.42l-0.24-0.13l-0.39-0.23l-0.05-0.03l-0.03-0.02l-1.4-0.81h-0.01l-0.48-0.29h-0.011l-0.269-0.16l-0.62-0.36
		l-0.03-0.01l-0.06-0.04l-0.04-0.02l-1.29-0.75l-1.07-0.62l-0.689-0.39l-1.65-0.96l-0.13-0.07l-2.89-1.68l-0.37-0.21l-0.05-0.03
		l-0.391-0.22l-0.489-0.28l-0.33-0.2l-1.2-0.69l-0.65-0.37l-0.569-0.33l-0.471-0.27l-0.44-0.26l-0.301-0.17l-0.5-0.29l-0.17-0.1
		c-0.01,0-0.02-0.01-0.029-0.02l-2.31-1.34l-0.21-0.12l-0.05-0.03l-1.16-0.67l-0.67-0.38l-0.82-0.47l-0.09-0.05l-0.5-0.29
		l-0.01-0.01l-0.21-0.12h-0.01l-1.04-0.6c-0.01-0.01-0.01-0.01-0.021-0.01l-0.06-0.03l-1.8-1.05l-1.021-0.59l-2.109-1.23
		l-0.091-0.05l-0.199-0.12c0,0-0.011,0-0.02-0.01l-0.28-0.16l-0.529-0.3l-0.82-0.48l-0.059-0.04h-0.011c0,0,0,0-0.01,0l-0.49-0.29
		l-0.7-0.4l-0.68-0.39l-1.22-0.71l-0.101-0.06h-0.01l-0.33-0.19l-0.41-0.24h-0.01l-0.43-0.25l-0.99-0.57l-0.08-0.04l-0.029-0.02
		v-53.14l0.779-0.45l1.09-0.63l0.5-0.29l0.36-0.21l3.38-1.95l1.061-0.61l5.779-3.34h0.011l0.909-0.52l1.051-0.62l1.819-1.05h0.011
		l0.64-0.38l0.229-0.13l3.631-2.08l0.64-0.38l0.939-0.54l0.171-0.09l1.659-0.95l0.78-0.45l0.38-0.22l0.44-0.26l0.67-0.39l0.43-0.26
		l0.521-0.3l0.5-0.28l0.59-0.34l1.03-0.59l0.159-0.09l0.69-0.41l0.41-0.23l0.48-0.28l0.511-0.29h0.01l0.05-0.03l0.43-0.25l5.29-3.05
		l0.11-0.06l0.08-0.05l0.27-0.16l5.52-3.19l0.55-0.32l1.441-0.83l0.51,0.3l1.09,0.63l2.86,1.65l3.09,1.79l2.6,1.5l0.22,0.13
		l4.69,2.7l0.979,0.57l5.131,2.96l0.909,0.52l1.04,0.61l2.301,1.31l0.869,0.5l0.69,0.4l0.83,0.48l0.49,0.28l0.58,0.34l0.3,0.17
		l0.8,0.46l0.09,0.06l1.81,1.04l3.279,1.89l0.5,0.29l0.04,0.03v0.01l0.261,0.14l0.659,0.39l1.46,0.84l1.94,1.12l0.78,0.44
		l0.439,0.25l0.49,0.28l1.45,0.84l0.17,0.1l0.85,0.49L101.718,38.021z"/>
	<g id="Layer_2_8_">
		<g id="Layer_16_8_">
			<path opacity="0.13" enable-background="new    " d="M55.687,11.488l-46.07,26.56v53.12l1.67,0.96l0.63,0.37h0.011l18.81,10.84
				l1.04,0.6l2.18,1.26l0.49,0.28l0.44,0.26l0.36,0.21l3.13,1.8l3.311,1.91l1.289,0.74v0.01l12.711,7.32l46.07-26.56v-53.12
				L55.687,11.488z M99.896,90.098l-44.209,25.49l-12.51-7.21l-31.701-18.28v-50.97l44.211-25.49l44.209,25.49V90.098z"/>
		</g>
	</g>
	<path fill="#669E1D" d="M73.288,94.051c0.17-0.01,0.34-0.03,0.51-0.05c-0.13,0.13-0.26,0.25-0.39,0.38
		c-0.06-0.05-0.12-0.09-0.189-0.12c-0.28-0.14-0.631-0.13-0.971,0.13c-0.029,0.02-0.05,0.04-0.08,0.06
		c-0.069,0.01-0.14,0.04-0.22,0.05c-0.03-0.11-0.1-0.22-0.19-0.31C72.268,94.151,72.778,94.111,73.288,94.051z M63.108,102.231
		c-0.26,0-0.521,0.1-0.72,0.36c-0.03,0.04-0.061,0.09-0.101,0.14c0.05-0.12,0.09-0.25,0.141-0.37c0.159-0.03,0.31-0.09,0.449-0.21
		c0.5-0.47,0.9-0.98,1.24-1.53c0.37-0.21,0.74-0.43,1.09-0.67C64.458,100.661,63.748,101.411,63.108,102.231z M54.838,59.901
		c-2.42-0.38-4.859-0.56-7.3-0.65c-2.47-0.97-4.979-1.81-7.52-2.57c-0.42-0.31-0.761-0.76-1.24-0.96c-0.2-0.09-0.43,0.01-0.48,0.2
		c-1.13-0.71-2.279-1.4-3.46-2.02c-1.819-1.42-4-2.54-6.22-2.96c-0.3-0.11-0.6-0.22-0.92-0.31c-0.24-0.18-0.479-0.37-0.729-0.56
		c0.27-0.29,0.529-0.59,0.789-0.9c1.25,0.14,2.521,0.17,3.801,0.2c0.46,0.01,0.92,0.02,1.38,0.03c4.13,0.79,8.25,1.58,12.41,0.35
		c0.239-0.07,0.409-0.22,0.51-0.39c0.439-0.02,0.87-0.06,1.3-0.12c1.05,0.01,2.11-0.1,3.15-0.34c0.02,0.04,0.06,0.09,0.109,0.13
		c0.36,0.27,1.181,0.09,1.601,0.04c0.13-0.01,0.22-0.07,0.31-0.13c1.53,1.21,3.07,2.41,4.59,3.62c0.41,0.43,0.81,0.86,1.21,1.29
		c0.58,1.51,0.851,3.07,0.94,4.7c-0.25-0.23-0.51-0.45-0.83-0.63c-0.24-0.15-0.52,0.2-0.3,0.39c0.43,0.39,0.77,0.83,1.06,1.3
		c-0.09,0.08-0.18,0.15-0.27,0.22c-0.62,0.09-1.221,0.21-1.81,0.38C56.248,60.131,55.558,60.011,54.838,59.901z M70.568,48.831
		c-0.26,0-0.54-0.01-0.8-0.03c0.229-0.22,0.47-0.44,0.7-0.67c0.06-0.02,0.109-0.05,0.17-0.07c0.04-0.01,0.069-0.02,0.1-0.03
		c0.07,0.02,0.15,0.03,0.24,0.01c0.04-0.01,0.09-0.01,0.13-0.02c0.02,0.19,0.11,0.36,0.3,0.46c0.021,0.02,0.05,0.04,0.08,0.05
		c0.21,0.09,0.41,0.16,0.61,0.23C71.588,48.811,71.078,48.831,70.568,48.831z M47.028,27.831c0.04,0.12,0.1,0.23,0.191,0.32
		c0.149,0.14,0.27,0.29,0.399,0.43c0.11,0.25,0.23,0.48,0.37,0.71c0.18,0.3,0.37,0.58,0.58,0.85c-0.12,0.1-0.22,0.23-0.28,0.38
		c-0.05,0.1-0.08,0.21-0.09,0.32c-0.13-0.07-0.25-0.14-0.39-0.2c0.08-0.07,0.16-0.17,0.199-0.27c0.11-0.23,0.11-0.53-0.059-0.85
		c-0.03-0.05-0.05-0.09-0.08-0.14c-0.27-0.5-0.57-0.97-0.89-1.44C46.998,27.901,47.007,27.871,47.028,27.831z M17.518,49.271
		c-0.061,0.17-0.11,0.35-0.16,0.52v-2.37c0.07,0,0.14-0.01,0.21-0.02C17.558,48.031,17.548,48.661,17.518,49.271z M24.768,70.331
		c-0.09,0.01-0.17,0.04-0.25,0.05c0.1-0.22,0.2-0.44,0.309-0.66c0.101-0.2,0.2-0.4,0.3-0.6c0.08-0.02,0.15-0.04,0.23-0.06
		c-0.01,0.01-0.021,0.03-0.03,0.04c-0.04,0.04-0.09,0.07-0.14,0.11c-0.17,0.15-0.24,0.33-0.23,0.52c0.011,0.2,0.09,0.4,0.23,0.56
		C25.048,70.301,24.908,70.311,24.768,70.331z M63.998,112.911l-0.27,0.15l-0.26,0.15l-0.28,0.16l-0.01,0.01l-0.2,0.12l-0.23,0.13
		l-0.35,0.2l-0.83,0.48l-0.01,0.01l-0.09,0.05l-1.32,0.76l-0.021,0.01l-0.79,0.46l-0.609,0.35h-0.01l-1.41,0.81l-0.021,0.02
		l-0.25,0.14l-0.56,0.32h-0.01l-0.131,0.08l-0.189,0.11l-0.271,0.16h-0.01l-0.2,0.12l-0.06-0.03l-1.14-0.66l-0.021-0.01l-0.2-0.12
		l-0.85-0.49l-0.03-0.01l-0.33-0.19l-0.01-0.01l-1.4-0.81l-0.01-0.01l-0.02-0.01l-1.37-0.79l-0.03-0.02h-0.01l-0.83-0.48
		l-0.061-0.04l-0.34-0.19l-0.18-0.11l-0.021-0.01l-0.659-0.38l-0.04-0.03l-0.09-0.05l-0.101-0.06l-0.13-0.07l-0.27-0.16l-0.12-0.07
		h-0.011l-0.72-0.42l-0.24-0.13l-0.39-0.23l-0.05-0.03l-0.03-0.02l-1.4-0.81h-0.01l-0.48-0.29h-0.011l-0.269-0.16l-0.62-0.36
		l-0.03-0.01l-0.06-0.04l-0.04-0.02l-1.29-0.75l-1.07-0.62l-0.689-0.39l-1.65-0.96l-0.13-0.07l-2.89-1.68l-0.37-0.21l-0.05-0.03
		l-0.391-0.22l-0.489-0.28l-0.33-0.2l-1.2-0.69l-0.65-0.37l-0.569-0.33l-0.471-0.27l-0.44-0.26l-0.301-0.17l-0.5-0.29l-0.17-0.1
		c-0.01,0-0.02-0.01-0.029-0.02l-2.31-1.34l-0.21-0.12l-0.05-0.03l-1.16-0.67l-0.67-0.38l-0.82-0.47l-0.09-0.05l-0.5-0.29
		l-0.01-0.01l-0.21-0.12h-0.01l-1.04-0.6c-0.01-0.01-0.01-0.01-0.021-0.01l-0.06-0.03l-1.8-1.05l-1.021-0.59l-2.109-1.23
		l-0.091-0.05l-0.199-0.12c0,0-0.011,0-0.02-0.01l-0.28-0.16l-0.529-0.3l-0.82-0.48l-0.059-0.04h-0.011c0,0,0,0-0.01,0l-0.49-0.29
		l-0.7-0.4l-0.68-0.39l-1.22-0.71l-0.101-0.06h-0.01l-0.33-0.19l-0.41-0.24h-0.01l-0.43-0.25l-0.99-0.57l-0.08-0.04l-0.029-0.02
		v-43.5v-9.64l0.779-0.45l1.09-0.63l0.5-0.29l0.36-0.21l3.38-1.95l1.061-0.61l5.779-3.34h0.011l0.909-0.52l1.051-0.62l1.819-1.05
		h0.011l0.64-0.38l0.229-0.13l3.631-2.08l0.64-0.38l0.939-0.54l0.171-0.09l1.659-0.95l0.78-0.45l0.38-0.22l0.44-0.26l0.67-0.39
		l0.43-0.26l0.521-0.3l0.5-0.28l0.59-0.34l1.03-0.59l0.159-0.09l0.69-0.41l0.41-0.23c2.27,1.37,4.399,3.42,5.2,5.4
		c0.109,0.26,0.09,0.48,0,0.67c0.18,0.22,0.359,0.44,0.529,0.66c0.03,0.04,0.061,0.08,0.09,0.11c0.051,0.07,0.11,0.13,0.15,0.2
		c0.05,0.06,0.07,0.11,0.1,0.17c0.051-0.14,0.131-0.27,0.24-0.37c0.01-0.04,0.03-0.07,0.05-0.11c0.021-0.1,0.061-0.2,0.091-0.29
		c0-0.01,0-0.01,0-0.01c-0.15-0.31-0.11-0.67,0.069-0.94c0.02-0.04,0.04-0.07,0.07-0.1c0.03-0.04,0.07-0.08,0.11-0.11
		c-0.04-0.01-0.091-0.02-0.131-0.03c-0.06-0.01-0.109-0.02-0.159-0.03c-0.03-0.01-0.051-0.01-0.08-0.02
		c-0.31-0.1-0.511-0.42-0.53-0.74c-0.021-0.17,0.01-0.34,0.1-0.48c2.5-3.91,8.801-4.09,12.86-3.15c1,0.23,2.01,0.58,3.01,1.02
		c4.69-1.83,9.16,5.76,9.5,9.68c0.09,1.05-1.43,1.13-1.74,0.24c-0.699-2.06-2.229-4-4.119-5.59c0.77,0.73,1.449,1.54,2.02,2.43
		c0.39,0.4,0.74,0.83,1.07,1.3c0.02,0.02,0.04,0.05,0.06,0.07c0.03,0.04,0.04,0.08,0.06,0.12c0.19,0.27,0.37,0.55,0.55,0.85
		c0.35,0.56-0.07,1.22-0.62,1.35c3.53,0.87,11.46,5.62,11,8.9c0.22,0.03,0.42,0.15,0.57,0.4c0.02,0.04,0.04,0.08,0.06,0.12
		c1.25-0.03,2.41,0.47,3.08,1.72c0.7,1.33,1.98,3.22,2,4.71c0,0.26-0.11,0.44-0.27,0.57c0.05,0.52-0.421,0.85-0.931,0.78
		c-0.02-0.01-0.04-0.02-0.069-0.02c0.659,0.62,1.159,1.35,1.31,2.24c0.14,0.77-0.82,1.21-1.26,0.54c-0.79-1.2-2.25-1.87-3.8-2.27
		c-0.171,0.17-0.421,0.27-0.671,0.21c-1.14-0.26-2.199-0.54-3.279-0.74c-2.66-0.11-5.4,0.92-7.99,0.17
		c-1.08,1.79-2.32,3.57-3.771,5.12c-0.529,0.55-1.069,1.07-1.649,1.55c-0.03,0.05-0.07,0.11-0.11,0.16c0.32,0.03,0.61,0.21,0.7,0.59
		c0.05,0.23,0.1,0.45,0.14,0.68c0.011,0.01,0.011,0.01,0.011,0.02c0.02,0.13,0.05,0.25,0.08,0.38c0.01,0,0.02,0,0.02,0
		c1.07,0.36,2.11,0.88,3.17,1.36c0.07-0.03,0.15-0.06,0.24-0.06c1.12-0.07,2.22,0.18,3.27,0.54c0.301,0.11,0.62,0.25,0.95,0.4
		c1.24,0.15,2.49,0.2,3.75,0.15c0.62-0.08,1.25-0.16,1.86-0.23c2.04-0.22,3.72-0.82,5.1-1.83c1.351-1,2.42-2.39,3.25-4.21
		c0.41-0.9,1.62-0.21,1.48,0.62c-0.45,2.64-3.25,6.49-6.33,7.82c1.76,0.59,3.35,0.98,4.439,2.81c1.17,1.95,1.25,3.78,0.87,5.99
		c0,0.01-0.01,0.02-0.01,0.03c0.14,0.23,0.18,0.52-0.02,0.81c-0.04,0.06-0.101,0.11-0.141,0.17c0,0-0.01,0.01-0.02,0.02
		c-0.761,1.06-1.721,2-2.79,2.84c-0.87,0.88-1.78,1.71-2.87,2.37c-0.34,0.2-0.65,0.13-0.87-0.06c-0.6,0.29-1.21,0.55-1.82,0.78
		c-0.739,0.29-1.47,0.53-2.2,0.73c-0.449,0.12-0.89,0.23-1.329,0.33c-4.7,0.99-9.381,0.53-14.051-0.18
		c-0.22,0.31-0.62,0.49-1.05,0.28c-0.42-0.21-0.84-0.38-1.27-0.56c-0.141-0.06-0.28-0.1-0.431-0.15c-0.109-0.02-0.22-0.04-0.34-0.06
		c-3.09-0.51-6.33-0.87-9.5-1.45c-0.02,0.01-0.03,0-0.04-0.01c-2.7-0.49-5.35-1.15-7.84-2.19c-0.43-0.18-0.86-0.37-1.28-0.58
		c-2.899-0.75-5.77-1.6-8.64-2.42c-1.97-0.57-4.47-0.89-6.5-0.11c-0.1,0.21-0.21,0.41-0.31,0.6c-0.24,0.43-0.74,0.45-1.101,0.25
		c-0.72,0.71-1.059,1.72-1.09,2.76c0.17,0.01,0.35,0.08,0.51,0.21c0.681,0.54,1.351,1.09,2.021,1.64c0.979,0.8,1.96,1.61,2.96,2.4
		c0.45,0.33,0.89,0.67,1.33,1.02c0.48,0.36,0.97,0.71,1.47,1.05c0.9,0.62,1.82,1.21,2.79,1.75c0.35,0.19,0.46,0.49,0.43,0.79
		c3.32,0.63,6.53,1.71,9.61,3.14c0.149,0.07,0.25,0.16,0.33,0.27c0.6,0.11,1.21,0.21,1.819,0.29c0.771,0.09,1.53,0.18,2.28,0.33
		c-0.05-0.26,0.021-0.52,0.181-0.72c0.17-0.24,0.479-0.39,0.88-0.3c3.159,0.68,6.479,1.02,9.279,2.711
		c0.101,0.06,0.21,0.12,0.311,0.19c0.109-0.02,0.22-0.04,0.319-0.04c0,0,0,0,0.011,0c1.319-0.16,2.609,0.24,3.899,0.62
		c0.53,0.16,1.07,0.32,1.601,0.43c0.3,0.06,0.59,0.11,0.89,0.16c0.32,0,0.64,0,0.95,0.02c0.22,0.01,0.39,0.09,0.52,0.19
		c1.051,0.12,2.101,0.2,3.15,0.28c2.12-0.17,4.2-0.57,6.24-1.11c0.069-0.11,0.16-0.22,0.319-0.29c0.051-0.02,0.101-0.05,0.15-0.07
		c1.69-0.84,3.41-1.63,5.29-1.89c0.39-0.05,0.69,0.12,0.85,0.36c0.17,0.02,0.33,0.06,0.49,0.11c0.44,0.14,0.63,0.4,0.69,0.69
		c0.91-0.28,1.55,0.83,0.72,1.44c-0.44,0.33-0.87,0.66-1.3,0.99c0.04,0.19,0.029,0.41-0.061,0.58c-0.489,0.95-0.87,1.99-1.689,2.59
		c1.7,0.78,3.29,1.76,4.84,2.86c0.39,0.28,0.47,0.79,0.31,1.17c-0.05,0.14-0.14,0.27-0.26,0.36c0.02,0.02,0.04,0.04,0.07,0.07
		c0.149,0.09,0.3,0.19,0.439,0.29l-0.01,0.01l-0.07,0.04l-1.159,0.67l-0.37,0.21l-0.08,0.05l-0.01,0.01l-0.011,0.01h-0.01
		l-0.42,0.24l-0.76,0.44c-0.21-0.13-0.431-0.26-0.641-0.4c0.181,0.16,0.351,0.32,0.521,0.47l-0.24,0.14l-0.44,0.26l-0.431,0.26
		l-0.96,0.55c-0.59-0.2-1.17-0.44-1.729-0.73c-0.87-0.42-1.7-0.94-2.48-1.53c-0.07-0.06-0.149-0.11-0.22-0.17
		c-0.021,0.03-0.03,0.06-0.05,0.08c-0.561,0.9-1.34,1.61-2.15,2.33c-1.31,2.29-2.93,4.32-4.72,6.27c-0.28,0.3-0.641,0.29-0.92,0.13
		c-0.19,0.35-0.38,0.7-0.59,1.04l-0.7,0.41l-0.17,0.1l-0.04,0.02l-0.38,0.22l-0.95,0.55L63.998,112.911z"/>
	<path fill="#669E1D" d="M63.489,90.414c-0.271-0.232-0.579-0.417-0.891-0.591c-0.185-0.103-0.422,0.109-0.299,0.299
		c0.19,0.294,0.444,0.546,0.709,0.773c0.112,0.096,0.278,0.141,0.412,0.053c0.054-0.035,0.09-0.067,0.122-0.122
		C63.614,90.701,63.604,90.513,63.489,90.414z"/>
	<path fill="#A54E2B" d="M85.944,79.535c-0.052-0.098-0.096-0.197-0.155-0.294c-0.155-0.254-0.438-0.379-0.714-0.373
		c0.389-0.351,0.765-0.696,1.107-1.014c1.548-1.435,3.853-3.951,2.597-6.115c-0.004-0.46-0.063-0.919-0.207-1.354
		c-0.176-0.527-0.886-0.404-0.935,0.126c-0.026,0.276-0.075,0.541-0.128,0.806c-0.021,0.018-0.036,0.041-0.055,0.061
		c-0.179,0.085-0.316,0.249-0.313,0.509c0,0.003-0.001,0.009-0.001,0.013c-0.98,2.075-2.309,3.805-3.906,5.227
		c-0.238-0.116-0.526-0.146-0.82-0.008c-2.168,1.02-4.451,1.458-6.786,1.914c-0.834,0.163-1.646,0.532-2.46,0.842
		c-1.338-0.194-2.688-0.318-4.005,0.367c-0.263,0.137-0.388,0.347-0.421,0.572c-0.043-0.01-0.083-0.028-0.129-0.032
		c-0.668-0.055-1.31,0.015-1.95,0.109c-0.565-0.187-1.122-0.4-1.702-0.561c-1.172-0.325-2.519-0.135-3.723-0.228
		c-0.053-0.004-0.096,0.013-0.145,0.02c-1.373-0.655-2.925-0.84-4.438-0.24c-0.019,0.007-0.035,0.02-0.053,0.028
		c-2.043-0.49-4.073-1.027-6.167-1.293c-2.227-0.282-4.199-0.746-6.265-1.622c-1.122-0.476-2.207-0.832-3.387-0.955
		c0.083-0.102,0.078-0.27-0.051-0.358c-0.762-0.525-1.319-0.709-2.245-0.751c-0.237-0.011-0.421,0.106-0.542,0.271
		c-0.651-0.327-1.31-0.639-1.976-0.929c-1.536-0.669-3.291-1.316-4.996-1.264c-2.084-0.622-7.061-2.368-8.245,0.235
		c-0.104,0.087-0.177,0.208-0.227,0.339c-0.505,0.031-1.029,0.453-0.811,1.024c0.301,0.784,0.713,1.244,1.332,1.429
		c0.002,0.002,0.003,0.005,0.005,0.008c0.356,0.891,0.981,1.505,1.838,2.111c1.459,1.032,2.736,2.229,4.151,3.308
		c0.003,0.003,0.006,0.006,0.009,0.01l0.001-0.002c0.057,0.043,0.11,0.088,0.167,0.131c0.313,0.234,0.622,0.181,0.851-0.005
		c0.778,0.44,1.568,0.842,2.384,1.179c1.512,0.873,3.016,1.762,4.665,2.379c0.529,0.198,2.391,0.605,3.572,0.332
		c0.6,0.159,1.2,0.297,1.792,0.433c0.067,0.138,0.169,0.262,0.344,0.337c0.072,0.031,0.137,0.057,0.207,0.085l-0.001,0.002
		l0.018,0.006c0.325,0.137,0.632,0.26,0.982,0.37c0.065,0.02,0.127,0.018,0.19,0.021c1.12,0.361,2.241,0.648,3.423,0.725
		c1.105,0.433,2.479,0.536,3.45,0.648c0.215,0.025,0.363-0.063,0.458-0.194c0.713,0.186,1.429,0.365,2.154,0.525
		c4.209,0.927,8.481,1.548,12.717,2.339c0.417,0.078,0.727-0.111,0.879-0.386c1.438,0.14,2.886,0.213,4.334,0.225
		c0.299,0.002,0.513-0.135,0.654-0.324c1.565,0.312,3.085,0.279,4.468-0.353c0.208-0.034,0.378-0.12,0.489-0.255
		c0.061-0.035,0.121-0.076,0.183-0.113c0.152,0.019,0.304,0.046,0.456,0.062c0.246,0.026,0.541-0.159,0.65-0.373
		c0.104-0.2,0.191-0.405,0.284-0.608c0.051,0.002,0.098,0.009,0.153,0.001c0.604-0.093,1.2-0.259,1.79-0.454
		c0.301,0.165,0.681,0.182,0.951-0.114c0.108-0.119,0.208-0.244,0.312-0.365c0.813-0.356,1.6-0.771,2.335-1.225
		c1.552-0.958,1.795-2.296,2.005-3.829c0.228-0.125,0.406-0.352,0.429-0.661c0.016-0.212,0.03-0.425,0.046-0.637
		c0.06-0.355,0.092-0.712,0.08-1.113C86.881,79.667,86.378,79.435,85.944,79.535z M83.005,81.633
		c-0.119-0.031-0.246-0.052-0.392-0.045c-0.063,0.003-0.109,0.027-0.168,0.036c-0.082-0.192-0.247-0.285-0.43-0.332
		c0.454-0.297,0.896-0.62,1.328-0.958C83.206,80.765,83.095,81.198,83.005,81.633z"/>
	<path fill="#FFFFFF" d="M86.009,53.928c0.049-0.386-0.276-0.578-0.601-0.574c-0.001,0-0.003-0.001-0.003-0.001
		c-0.011-0.001-0.021-0.003-0.03-0.004c-0.726-1.722-3.842-1.917-5.842-2.335c-0.046-0.021-0.092-0.038-0.138-0.059
		c-0.113-0.052-0.228-0.061-0.337-0.053c-0.207-0.055-0.402-0.112-0.566-0.18c-0.551-0.227-0.954,0.479-0.739,0.923
		c0.032,0.109,0.064,0.219,0.097,0.328c0.029,0.101,0.093,0.173,0.166,0.228c0.413,1.097,0.316,2.274,0.502,3.438
		c-0.172,0.608-0.399,1.197-0.692,1.777c-0.003,0.003-0.006,0.004-0.008,0.007c-0.314,0.405-0.668,0.684-1.124,0.917
		c-0.584,0.297-0.169,1.31,0.449,1.066c1.398-0.553,2.911-0.476,4.297-1.072c0.363-0.156,0.719-0.368,1.069-0.603
		c0.116-0.038,0.234-0.071,0.345-0.121c0.975-0.319,1.813-0.907,2.105-1.936c0.129-0.079,0.249-0.169,0.356-0.272
		c0.214-0.018,0.413-0.143,0.479-0.405c0.046-0.182,0.063-0.365,0.094-0.546C85.942,54.286,85.986,54.114,86.009,53.928z"/>
	<path fill="#FFFFFF" d="M69.252,52.545c-0.001-0.004-0.001-0.009-0.002-0.013c0.503-0.542,1.229-1.098,0.792-1.712
		c-0.168-0.236-0.476-0.362-0.744-0.195c-1.447,0.897-4.113,2.507-3.749,4.574c0.002,0.01,0.007,0.019,0.009,0.028
		c-0.367,0.49-0.691,1.015-0.921,1.618c-0.104,0.276,0.074,0.552,0.287,0.706c0.105,0.068,0.202,0.146,0.291,0.234
		c0.284,0.332,0.691,0.208,0.907-0.075c0,0,0,0,0.001,0c0.067,0.344,0.18,0.69,0.349,0.937c0.39,0.571,1.226,0.212,1.096-0.462
		c-0.001-0.002,0-0.005,0-0.007c0.389-0.125,0.631-0.718,0.263-1.008c-0.041-0.032-0.084-0.059-0.125-0.089l0.004-0.005
		c-0.01-0.004-0.02-0.008-0.03-0.013c-0.149-0.103-0.307-0.186-0.474-0.236c-0.032-0.31-0.002-0.647,0.066-0.981
		c0.227-0.319,0.318-0.782,0.367-1.154c0.457-0.469,0.922-0.932,1.333-1.425c0.136-0.065,0.243-0.19,0.28-0.392
		c0.002-0.01,0.004-0.02,0.006-0.03c0.015-0.078,0.009-0.156-0.007-0.233C69.249,52.588,69.256,52.569,69.252,52.545z"/>
	<path fill="#FFFFFF" d="M59.175,58.072c-0.619-2.715-2.02-5.811-4.439-7.25c0.038-0.194-0.014-0.401-0.229-0.579
		c-0.359-0.296-0.669-0.464-1.017-0.557c-0.098-0.055-0.206-0.094-0.336-0.094c-0.194,0-0.389,0.001-0.583,0.002
		c-0.247,0.007-0.429,0.11-0.55,0.257c-0.019,0.008-0.04,0.017-0.061,0.025c-1.044-0.046-2.09-0.053-3.14-0.046
		c-0.634,0.003-0.849,0.721-0.482,1.162c0.787,0.946,0.579,2.381,0.566,3.519c-0.005,0.499,0.106,1.027,0.043,1.527
		c-0.075,0.258-0.166,0.499-0.271,0.722c-0.054,0.076-0.109,0.152-0.183,0.225c-0.326,0.323-0.683,0.527-0.979,0.888
		c-0.385,0.468-0.042,1.355,0.649,1.115c0.131-0.045,0.233-0.12,0.348-0.181c0.018,0.013,0.028,0.03,0.048,0.042
		c0.14,0.082,0.279,0.165,0.419,0.247c0.286,0.168,0.559,0.105,0.749-0.062c3.03,0.342,5.917,0.69,8.948-0.085
		C59.066,58.849,59.26,58.445,59.175,58.072z"/>
	<path fill="#FFFFFF" d="M35.813,49.956c-0.898,0.361-1.987-0.098-2.882-0.311c-0.574-0.137-1.015,0.443-0.9,0.91
		c-0.023,0.005-0.044,0.012-0.066,0.018c-0.094-0.018-0.197-0.038-0.299-0.058c-0.079-0.038-0.16-0.073-0.239-0.113
		c-0.365-0.184-0.716-0.471-1.124-0.556c-0.185-0.039-0.345-0.004-0.474,0.069c-0.014-0.024-0.047-0.046-0.047-0.072
		c-0.002-0.131-0.135-0.248-0.267-0.204c-0.06,0.021-0.12,0.041-0.181,0.061c-0.162,0.055-0.244,0.176-0.261,0.343
		c-0.043,0.447,0.255,0.71,0.621,0.894c0.222,0.284,0.609,0.432,0.913,0.604c0.288,0.163,0.586,0.303,0.885,0.442
		c0.476,0.59,1.112,0.857,1.911,0.911c0.064,0.004,0.118-0.009,0.173-0.019c0.165,0.187,0.316,0.389,0.434,0.629
		c0.123,0.253,0.473,0.38,0.733,0.299c-0.057-0.021-0.112-0.043-0.168-0.064c0.409,0.192,0.792,0.024,0.956-0.389
		c0.345-0.871,0.789-1.693,1.094-2.581C36.78,50.324,36.277,49.77,35.813,49.956z"/>
	<path fill="#8CD813" d="M72.848,31.987c-0.301-0.835-0.734-1.563-1.23-2.24c0.099-0.2,0.124-0.445,0.031-0.656
		c-0.985-2.227-2.527-3.734-4.339-4.906c-0.007-0.015-0.017-0.028-0.023-0.043c-0.139-0.301-0.391-0.4-0.64-0.368
		c-0.304-0.178-0.615-0.347-0.931-0.511c-0.03-0.087-0.075-0.172-0.145-0.25c-1.407-1.6-4.67-2.523-6.676-2.833
		c-1.793-0.277-4.075-0.767-5.586,0.497c-2.961-0.008-6.204,1.015-7.028,3.899c-0.101,0.352,0.396,0.689,0.646,0.377
		c2.651-3.295,6.708-3.087,10.372-1.86c2.255,0.755,4.256,2.104,5.985,3.71c1.455,1.35,2.358,3.185,3.873,4.457
		c0.428,0.358,0.943,0.208,1.22-0.118c0.926,0.774,2.139,1.498,2.776,1.083c0.176,0.201,0.371,0.396,0.637,0.576
		C72.3,33.144,73.059,32.571,72.848,31.987z"/>
	<path fill="#8CD813" d="M78.897,38.912c-0.61-1.153-1.394-2.159-2.378-3.015c-1.076-0.936-3.468-3.343-5.042-2.886
		c-0.132,0.038-0.224,0.118-0.282,0.218c-0.887-0.587-1.809-1.054-2.715-1.164c-0.266-0.032-0.391,0.301-0.286,0.499
		c0.792,1.501,3.147,2.614,4.382,3.622c1.961,1.604,3.609,3.235,5.293,5.112c0.281,0.313,0.703,0.214,0.932-0.053
		c0.08,0.023,0.17,0.041,0.271,0.054c0.125,0.017,0.262-0.082,0.32-0.184C79.863,40.306,79.295,39.664,78.897,38.912z"/>
	<path fill="#8CD813" d="M85.841,48.457c-0.375-0.734-0.516-1.576-0.763-2.359c-0.101-0.32-0.428-0.468-0.716-0.424
		c-0.028-0.084-0.062-0.166-0.09-0.25c-0.19-0.563-0.936-0.58-1.177-0.136l0,0c-0.184-0.357-0.64-0.361-0.913-0.148
		c-0.091-0.077-0.188-0.142-0.291-0.198c-0.099-0.362-0.325-0.699-0.68-0.958c-0.067-0.049-0.134-0.073-0.199-0.09
		c0.121-0.046,0.236-0.106,0.337-0.188c0.499,0.137,1.002,0.26,1.491,0.424c0.116,0.046,0.222,0.083,0.305,0.105
		c0.227,0.128,0.438,0.285,0.632,0.487c0.532,0.556,1.35-0.149,1.024-0.791c-0.477-0.94-1.631-1.333-2.714-1.516
		c-0.089-0.044-0.186-0.062-0.28-0.042c-0.024-0.004-0.049-0.007-0.073-0.01c-0.193-0.724-0.854-1.407-1.576-1.519
		c-0.765-0.119-1.113,1.016-0.326,1.184c0.289,0.062,0.54,0.188,0.7,0.421c-0.145,0.156-0.192,0.393-0.141,0.613
		c-0.107,0.041-0.223,0.08-0.335,0.137c-0.241,0.123-0.227,0.494,0,0.621c0.19,0.106,0.384,0.141,0.572,0.14
		c-0.317,0.213-0.447,0.771-0.032,1.076c0.416,0.305,0.194,0.652-0.127,0.948c-0.215,0.198-1.016,0.445-0.905,0.834
		c0.106,0.375,0.593,0.328,0.89,0.275c0.226-0.04,0.44-0.146,0.633-0.284c0.023,0.27,0.089,0.438,0.307,0.628
		c0.147,0.129,0.34,0.157,0.507,0.1c0.351,0.15,0.695,0.313,1.022,0.511c0.272,0.166,0.553,0.078,0.736-0.108
		c0.473,0.328,0.953,0.87,1.142,1.122C85.261,49.673,86.202,49.164,85.841,48.457z"/>
	<path fill="#8CD813" d="M85.811,50.247c-0.121-0.329-0.419-0.479-0.704-0.471c-0.153-0.169-0.315-0.329-0.461-0.506
		c-0.246-0.299-0.596-0.26-0.854-0.071c-0.105-0.171-0.207-0.346-0.311-0.525c-0.238-0.411-0.74-0.392-1.03-0.139
		c-0.025-0.06-0.052-0.119-0.078-0.179c-0.21-0.481-0.729-0.388-0.996-0.064c-0.001-0.002-0.002-0.003-0.003-0.005
		c-0.005,0.004-0.01,0.008-0.016,0.012c-0.101-0.156-0.28-0.225-0.449-0.208c-0.091-0.286-0.221-0.545-0.39-0.74
		c-0.394-0.458-1.272,0.027-1.04,0.606c0.134,0.335,0.303,0.644,0.411,0.991c0.129,0.411,0.007,0.878-0.166,1.303
		c-0.128,0.315,0.278,0.538,0.528,0.406c0.314-0.166,0.518-0.458,0.645-0.799c0.17,0.338,0.385,0.654,0.65,0.929
		c0.228,0.236,0.59,0.217,0.826,0.032c0.283,0.264,0.668,0.211,0.906-0.032c0.096,0.103,0.193,0.205,0.305,0.295
		c0.297,0.24,0.655,0.235,0.897,0.048c0.064,0.065,0.122,0.136,0.188,0.2c0.024,0.024,0.052,0.037,0.078,0.056
		c0.115,0.344,0.271,0.657,0.62,0.807c0.169,0.073,0.348,0.077,0.487-0.063C86.404,51.581,86.046,50.885,85.811,50.247z"/>
	<path fill="#8CD813" d="M87.32,56.265c0.159-0.587,0.146-1.208,0.151-1.837c0.006-0.64-0.951-0.771-1.112-0.15
		c-0.194,0.747-0.33,1.511-0.467,2.271c-0.038,0.044-0.072,0.09-0.117,0.132c-0.041,0.04-0.083,0.073-0.124,0.11
		c-0.022,0.006-0.041-0.003-0.063,0.006c-0.508,0.214-0.826,0.493-1.009,0.903c-0.039,0.011-0.077,0.019-0.117,0.038
		c-0.094,0.046-0.115,0.154-0.101,0.247c0.013,0.082,0.047,0.159,0.071,0.238c-0.006,0.043-0.021,0.076-0.025,0.121
		c-0.019,0.187,0.069,0.332,0.198,0.432c0.021,0.068,0.052,0.134,0.065,0.205c0.077,0.396-0.034,0.805-0.078,1.197
		c-0.073,0.652,0.928,0.732,1.104,0.149c0.035-0.114,0.057-0.239,0.076-0.365c0.258-0.075,0.452-0.272,0.598-0.536
		c0.082-0.047,0.156-0.113,0.207-0.204c0.402-0.719,0.813-1.516,1.048-2.309C87.713,56.62,87.548,56.379,87.32,56.265z"/>
	<path fill="#8CD813" d="M83.989,62.98c-0.445-0.023-0.793,0.547-0.53,0.924c0.08,0.116,0.148,0.237,0.224,0.356
		c-0.451-0.424-0.94-0.665-1.445-0.636c0.163-0.215,0.299-0.456,0.417-0.654c0.384-0.643-0.641-1.237-0.998-0.584
		c-0.135,0.246-0.265,0.494-0.457,0.701c-0.191,0.205-0.47,0.185-0.721,0.253c-0.278,0.075-0.312,0.388-0.154,0.587
		c0.318,0.407,0.809,0.385,1.246,0.221c0.013,0.025,0.023,0.052,0.045,0.071c3.165,2.832,3.924,7.44,1.356,10.962
		c-0.148,0.118-0.29,0.243-0.383,0.426c0.009,0.001,0.017,0.002,0.024,0.003c-0.103,0.172-0.028,0.426,0.243,0.461
		c0.77,0.101,1.369-0.416,1.838-1.147c0.789-0.649,1.19-1.769,1.305-3.055C88.541,70.409,86.974,63.135,83.989,62.98z"/>
	<path fill="#8CD813" d="M82.568,88.341c-0.287-0.067-0.521,0.056-0.654,0.267c-0.287-0.353-0.988-0.408-1.091,0.16
		c-0.05,0.273-0.114,0.561-0.177,0.851c-0.111-0.057-0.229-0.104-0.359-0.132c-0.147-0.032-0.326-0.008-0.431,0.114
		c-0.021,0.019-0.04,0.038-0.061,0.056c-0.089,0.063-0.153,0.197-0.078,0.299c0.848,1.154,1.041,2.931,0.815,4.468
		c-0.253,0.679,1.024,1.232,1.246,0.344c0.063-0.254,0.115-0.581,0.146-0.946C83.288,92.411,84.98,88.908,82.568,88.341z"/>
	<path fill="#8CD813" d="M86.058,100.371c-0.061-0.04-0.12-0.08-0.181-0.12l-0.01,0.01l-0.07,0.04l-1.159,0.67l-0.37,0.21
		c-0.09-0.06-0.16-0.17-0.21-0.31c-0.051-0.13-0.101-0.22-0.15-0.34c-1.02-0.56-2.3-0.92-3.24-1.6c-0.939-0.67-1.85-1.4-2.859-1.97
		c-1.46-0.82-3.08-1.37-4.42-2.39c-0.12-0.09-0.17-0.2-0.17-0.31c0-0.08,0.02-0.15,0.069-0.21c0.07-0.11,0.21-0.17,0.38-0.14
		c0.2,0.04,0.391,0.08,0.58,0.13c0.061-0.42,0.471-0.8,0.94-0.66c1.04,0.3,2.229,0.11,3.18,0.73c0.92,0.59,1.67,1.49,2.57,2.12
		c1.88,0.78,3.66,1.7,4.689,3.3c0.141,0.21,0.261,0.43,0.36,0.66C86.018,100.251,86.048,100.311,86.058,100.371z"/>
	<path fill="#25770E" d="M56.219,62.81c-0.204-0.165-0.496-0.223-0.716-0.077c-0.253-0.259-0.707-0.343-0.98-0.05
		c-1.134-0.508-2.407-0.446-3.64-0.388c-1.438,0.067-2.921-0.233-4.248,0.375c-0.466-0.089-0.932-0.162-1.396-0.178
		c-0.406-0.015-0.637,0.249-0.711,0.56c-0.272-0.079-0.545-0.145-0.818-0.23c-2.938-0.914-6.032-1.679-8.75-3.129
		c-0.285-0.152-0.526,0.195-0.331,0.43c1.868,2.251,5.119,3.021,7.761,3.996c2.7,0.997,5.679,1.854,8.632,2.132
		c-0.357,0.275-0.734,0.543-1.153,0.796c-1.814,1.099-3.841,2.065-5.389,3.539c-0.155,0.147-0.041,0.436,0.177,0.427
		c2.277-0.096,4.6-1.896,6.536-2.991c0.798-0.451,1.595-1.032,2.315-1.696c0.16-0.005,0.322,0.001,0.482-0.008
		c0.723-0.041,0.929-0.765,0.646-1.228c0.097-0.126,0.208-0.243,0.296-0.374c0.065-0.028,0.123-0.068,0.184-0.104
		c0.264,0.089,0.582,0.019,0.77-0.271c0.128-0.197,0.249-0.385,0.359-0.582c0.021,0.002,0.042,0,0.063,0.019
		c0.161,0.151,0.442,0.049,0.44-0.182C56.744,63.117,56.516,62.879,56.219,62.81z"/>
	<path fill="#25770E" d="M60.508,60.394c-0.984,0.29-2.14,1.068-2.871,1.785c-0.871,0.852-0.886,2.19-1.692,3.04
		c-0.14,0.146,0.039,0.389,0.218,0.282c0.979-0.583,1.312-1.55,2.029-2.368c0.789-0.897,2.278-0.913,2.942-1.924
		C61.405,60.797,60.962,60.26,60.508,60.394z"/>
	<path fill="#25770E" d="M80.447,47.364c-2.155-0.267-5.519-0.223-7.569,1.051c-1.024,0.07-2.017,0.348-2.64,1.095
		c-0.239,0.287-0.01,0.647,0.346,0.594c1.922-0.285,3.467-0.5,5.426-0.177c1.054,0.174,2.517,0.887,3.512,0.342
		c0.238-0.13,0.238-0.432,0.08-0.62c-0.594-0.705-1.955-0.895-3.138-1.005c0.743-0.112,1.494-0.203,2.273-0.214
		c1.241-0.018,2.475,0.162,3.674,0.472c1.27,0.329,1.838,1.288,2.904,1.766c0.133,0.06,0.253-0.013,0.271-0.155
		C85.843,48.37,81.914,47.545,80.447,47.364z"/>
	<path fill="#25770E" d="M73.77,63.109c-0.065,0.012-0.119,0.04-0.18,0.059c-0.353-0.105-0.859,0.247-1.21,0.348
		c-0.018,0.005-0.035,0.005-0.054,0.009c-0.195-0.167-0.476-0.146-0.677,0.016c-0.523-0.078-1.05-0.297-1.572-0.236
		c-0.522,0.062-0.628,0.719-0.123,0.911c0.194,0.074,0.393,0.144,0.591,0.207c0.028,0.083,0.068,0.163,0.132,0.232
		c0.117,0.127,0.248,0.226,0.385,0.306c0.152,0.513,0.565,0.922,1.019,1.187c0.2,0.117,0.399,0.113,0.564,0.037
		c0.313,0.825,0.83,1.572,1.01,2.456c0.021,0.103,0.165,0.164,0.253,0.103c0.688-0.485,0.398-1.286,0.15-1.963
		c-0.164-0.449-0.342-0.887-0.445-1.354c-0.164-0.739,0.41-1.019,0.727-1.576C74.571,63.439,74.193,63.032,73.77,63.109z"/>
	<path fill="#25770E" d="M61.757,47.761c-0.14-0.28-0.25-0.57-0.3-0.91c-1.149-0.44-2.069-1.65-2.41-2.86
		c-0.149-0.39-0.26-0.8-0.279-1.23c-0.02-0.44,0.31-0.67,0.67-0.69c-1.03-1.57-1.8-3.26-2.061-4.89
		c-0.189,0.04-0.399,0.02-0.59-0.14c-0.87-0.69-1.64-1.56-2.24-2.5c-0.01-0.02-0.029-0.04-0.04-0.06c-0.319-0.4-0.64-0.8-0.93-1.22
		c-0.149-0.21-0.14-0.44-0.03-0.62c-0.02-0.05-0.04-0.1-0.05-0.16c-0.13-0.03-0.26-0.05-0.39-0.09c-0.49-0.04-0.98-0.09-1.47-0.34
		c-0.61-0.3-1.271-0.7-1.631-1.3c-0.85-0.44-1.529-1.02-1.789-1.86c-0.011,0.01-0.021,0.02-0.03,0.03
		c-0.03,0.08-0.05,0.16-0.09,0.23c-0.03,0.06-0.07,0.11-0.11,0.14c-0.04,0.04-0.08,0.07-0.12,0.09c-0.12,0.06-0.25,0.07-0.38,0.05
		c-0.08,0.17-0.231,0.29-0.44,0.21c-0.52-0.18-1.06-0.3-1.59-0.42c0.561,0.21,1.13,0.43,1.7,0.71c0.28,0.14,0.57,0.29,0.85,0.44
		c0.091,0.05,0.191,0.1,0.28,0.15c2.69,1.47,5.29,3.46,7.021,5.96c0.27,0.39,0.58,0.83,0.89,1.3c0.38,0.22,0.7,0.5,0.92,0.9
		c0.12,0.22,0.11,0.46,0.03,0.67c0.5,0.93,0.92,1.89,1.06,2.77c0.15,1.03-1.37,1.51-1.6,0.44c-0.061-0.27-0.13-0.54-0.21-0.81
		c-0.23-0.01-0.45-0.02-0.67-0.06c-1.42-0.17-2.78-0.63-4.17-1.02c-0.141-0.04-0.24-0.11-0.32-0.2c-1.03,0.3-2.09,0.62-3.18,0.59
		c2.91,0.18,6.279,1.73,8.39,3.55c1.42,1.21,4.55,3.35,4.57,5.53c0.13,0.25,0.25,0.5,0.359,0.75c0.2-0.51,0.351-1.03,0.33-1.56
		C61.688,48.861,61.628,48.261,61.757,47.761z M83.098,59.031c0.199-0.17,0.109-0.45-0.06-0.59c-0.12-0.08-0.27-0.11-0.41-0.01
		c-2.609,1.91-6.18,1.96-9.229,1.45c-2.16-0.37-4.24-0.62-6.28-1.21c0.03-0.15-0.02-0.32-0.13-0.41c-0.38-0.3-0.86-0.26-1.24-0.04
		c-0.38-0.14-0.76-0.3-1.15-0.49h-0.011c0-0.01,0-0.01,0-0.02c0.17-1.04,0.681-1.96,0.92-2.98c0.021-0.13,0.051-0.27,0.07-0.41
		c0.02-0.12,0-0.22-0.04-0.31c0.07,0.02,0.12,0.04,0.19,0.05c0.479,0.01,0.76-0.54,0.54-0.93c-0.07-0.12-0.13-0.24-0.2-0.35
		c0.78-0.97,1.63-1.86,2.59-2.7c0.58-0.53,1.22-0.93,1.91-1.25c0.27-0.13,0.55-0.25,0.84-0.35c0.12-0.05,0.24-0.09,0.36-0.13
		c0.92-0.29,1.859-0.25,2.72-0.69c0.11-0.06,0.12-0.25,0-0.3c-1.78-0.82-4.25,0.23-5.71,1.35c-1.021,0.8-2.3,1.85-3.16,3.08
		c-0.06-0.17-0.12-0.35-0.17-0.54c-0.25-1.04,0.34-1.94,0.521-2.93c0.029-0.03,0.069-0.05,0.1-0.07c0.27-0.01,0.49-0.18,0.6-0.41
		c1.25-0.84,2.511-1.65,3.851-2.35c2.43-1.29,4.899-1.23,7.42-2.03c0.09-0.03,0.13-0.18,0.03-0.22
		c-3.711-1.58-8.471,0.94-11.74,3.66c-4.86-2.79-9.34-9.24-6.61-14.72c0.17-0.34-0.25-0.69-0.54-0.41
		c-0.08,0.07-0.149,0.15-0.22,0.23c-0.03-0.03-0.061-0.07-0.101-0.09c-0.329-0.21-0.689-0.31-1.059-0.33
		c-0.03-0.12-0.11-0.23-0.26-0.31c-0.88-0.42-1.851-0.58-2.74-0.99c-1.1-0.51-2.191-1.09-3.25-1.68c-1.16-0.65-1.89-1.58-2.46-2.75
		c-0.231-0.47-0.43-0.97-0.77-1.37c-0.011-0.11-0.08-0.22-0.23-0.21c-0.45,0.02-0.55,0.42-0.44,0.96c0,0.04,0.011,0.09,0.021,0.14
		c0.03,0.13,0.07,0.27,0.12,0.42c-0.061-0.11-0.12-0.22-0.19-0.32c-0.06-0.1-0.12-0.2-0.19-0.29c-0.17-0.25-0.351-0.5-0.53-0.74
		c-0.73-0.94-1.559-1.78-2.15-2.41c-0.739-0.8-1.899-1.7-3.17-2.33l-0.48,0.28l-0.41,0.23l-0.69,0.41l-0.159,0.09
		c1.359,0.55,2.609,1.23,3.8,2.44c0.81,0.83,1.489,1.81,2.13,2.78c-1.47-0.34-3.061-0.43-3.63-0.44c-4.24-0.08-7.57,1.42-11.3,3.35
		c-0.15,0.08-0.11,0.32,0.05,0.36c1.48,0.38,2.73-0.33,4.08-0.87c0.29-0.12,0.56-0.22,0.84-0.31c0.14,0.26,0.439,0.44,0.75,0.23
		c1.43-0.98,2.859-0.56,4.46-0.27c0.479,0.09,0.96,0.17,1.43,0.27c0.07,0.07,0.15,0.14,0.25,0.19c-4.46-0.76-8.79,0.42-13.02,2.28
		c0.08-0.27-0.25-0.52-0.49-0.37c-0.37,0.23-0.71,0.53-1.04,0.86c-0.44-1.01-0.76-1.95-0.94-2.95c0.011-0.1,0.021-0.2,0.021-0.29
		l-0.64,0.38h-0.011l-1.819,1.05l-1.051,0.62l-0.909,0.52h-0.011l-5.779,3.34l-1.061,0.61l-3.38,1.95l-0.36,0.21L10.417,38
		c-0.83,3.09,0.061,5.261-0.479,8.441c-0.07,0.38-0.141,0.79-0.22,1.22v43.5l0.029,0.02l0.08,0.04l0.99,0.57l0.43,0.25h0.01
		l0.41,0.24l0.33,0.19h0.01l0.101,0.06l1.22,0.71l0.68,0.39l0.7,0.4l0.49,0.29c0.01,0,0.01,0,0.01,0h0.011l0.059,0.04l0.82,0.48
		l0.529,0.3l0.28,0.16c0.01,0.01,0.02,0.01,0.02,0.01l0.199,0.12l0.091,0.05l2.109,1.23l1.021,0.59l1.8,1.05
		c-0.01-0.11-0.01-0.22-0.021-0.33c0.45-2.16,0.67-4.37,0.99-6.56c0.851-2.3,2.68-5.52,4.93-7.13c2.32,1.95,5.33,2.93,8.2,3.89
		c4.83,1.6,9.69,3.04,14.69,4.02c4.88,0.96,9.99,1.68,14.97,1.75c1.99,0.02,3.79-0.68,5.65-1.26c1.51-0.47,2.949-0.75,3.91-2.07
		c0.01-0.01,0.01-0.02,0.02-0.03c0.25-0.4-0.29-0.78-0.65-0.6c-1.159,0.56-2.34,1.02-3.529,1.39c-0.141-0.19-0.37-0.32-0.65-0.33
		c-0.979-0.04-1.87,0.3-2.82,0.38c-1.109-0.08-2.18-0.2-3.29-0.46c-0.31-0.07-0.55,0.02-0.739,0.17
		c-0.721-0.26-1.511-0.38-2.141-0.16c-0.13,0.04-0.25,0.09-0.359,0.16c-1.181-0.25-2.37-0.51-3.54-0.78c-0.011,0-0.011,0-0.011,0
		c-0.21-0.05-0.42-0.1-0.63-0.15c-3.319-0.78-6.63-1.62-9.96-2.36c-0.069-0.01-0.13-0.03-0.199-0.05
		c-2.851-0.64-5.57-1.38-8.311-2.4c-1.3-0.48-2.71-0.64-4.04-1.02c-1.42-0.42-2.729-1.36-4.06-2.07c-0.09-0.26-0.301-0.46-0.65-0.42
		c-0.13,0.01-0.25,0.04-0.38,0.06c-0.15,0.04-0.3,0.08-0.45,0.12c-0.03-0.06-0.05-0.11-0.109-0.17c-0.86-0.9-1.961-1.47-3.061-2.03
		c-0.28-0.32-0.55-0.65-0.83-0.92c-0.34-0.33-0.68-0.66-1.01-1c-0.1-0.16-0.2-0.31-0.3-0.47c-0.61-0.97-1.23-1.94-1.811-2.94
		c0.03-0.02,0.061-0.02,0.09-0.04c0.04-0.039,0.07-0.07,0.11-0.11c0.27-0.22,0.28-0.52,0.15-0.76c2.68-2.56,6.199-2.03,9.94-0.82
		c2.63,0.85,5.27,1.58,7.91,2.32c1.65,0.45,3.311,0.91,4.96,1.4c0.95,0.28,1.91,0.55,2.88,0.79c0.01,0.01,0.02,0.02,0.04,0.01
		c4.83,1.27,9.771,2.2,14.72,2.9c4.04,0.58,8.011,0.16,11.921-0.78c0.44-0.1,0.88-0.21,1.329-0.33c0.66-0.17,1.33-0.36,1.99-0.56
		c0.1-0.03,0.17-0.09,0.21-0.17c0.11-0.21-0.01-0.52-0.3-0.52c-2.84,0-5.71,0.92-8.53,1.24c-3.68,0.41-7.37-0.3-10.97-0.97
		c-6.52-1.2-12.77-3.2-19.24-4.57c-3.479-0.74-8.149-2.97-12.069-3.05c0.159-0.84-0.91-0.94-1.641-0.74
		c-0.16-0.05-0.33-0.08-0.5-0.09c-0.04-0.01-0.08-0.02-0.13-0.01c-0.54-0.02-1.109,0.13-1.689,0.4c-1.021-0.15-2.19,0.65-2.9,1.23
		c-0.53,0.43-0.97,1.01-1.19,1.66c-0.05,0.14-0.069,0.3-0.069,0.46c-0.21,0.07-0.431,0.14-0.63,0.23c0.069-0.29,0.12-0.58,0.17-0.88
		c0.63-1.35,1.6-2.47,3.13-3.11c1.04-0.43,2.2-0.62,3.32-0.69c0.8-0.04,1.55,0.27,2.319,0.06c0.3-0.09,0.48-0.47,0.3-0.74
		c-1.149-1.74-5-0.68-6.51,0.03c-0.58,0.27-1.07,0.6-1.51,0.98c0.05-0.2,0.1-0.4,0.16-0.6c0.069-0.24,0.16-0.48,0.25-0.711
		c0.29,0.01,0.56-0.14,0.609-0.51c0.011-0.06,0.011-0.12,0.021-0.19h0.01c0.101-0.33,0.2-0.66,0.3-0.98
		c0.13-0.06,0.24-0.2,0.19-0.34c-0.021-0.04-0.03-0.07-0.04-0.1c0.15-0.35-0.01-0.66-0.3-0.82c-0.641-1.78-1.11-3.32-0.67-5.37
		c0.54-2.48,2.19-4.24,3.83-6.03c0.06-0.07,0.1-0.15,0.119-0.23c0.19,0.1,0.431,0.06,0.58-0.15c0.521-0.76,0.04-1.71-0.26-2.49
		c-0.54-1.37-0.38-2.66-0.47-4.04c0.34-0.39,0.71-0.76,1.1-1.1c0.351-0.31,0.92-0.51,1.05-0.99c0.04-0.15-0.01-0.27-0.1-0.36
		c0.12-0.12,0.24-0.23,0.35-0.36c0.051-0.05,0.08-0.11,0.11-0.17c0.47,0.12,1.04-0.35,0.85-0.9c0.101-0.05,0.19-0.16,0.271-0.35
		c0.09-0.2-0.021-0.41-0.18-0.49c-0.08-0.31-0.21-0.61-0.301-0.91c-0.26-0.85-0.44-1.72-0.59-2.59c-0.45-2.54,1.431-4.47,2.55-6.58
		c0.16-0.07,0.33-0.15,0.53-0.22c1.49-0.56,3.06-0.9,4.58-1.37c3.57-1.11,7.46-0.84,10.94,0.41c3.12,1.13,6.55,3.51,8.899,6.47
		c-1.87-0.02-4,0.58-5.14,0.94c-0.95,0.29-5.62,2.26-3.61,3.82c0.101,0.08,0.28,0.04,0.28-0.11c-0.02-0.72,0.78-1.26,1.73-1.64
		c0,0.36,0.26,0.74,0.689,0.76c-0.17-0.01-0.33-0.01-0.5-0.01c-0.46,0.01-0.49,0.6-0.1,0.76c2.84,1.12,5.68,1.9,8.14,3.81
		c1.69,1.32,3.12,2.93,4.37,4.63c0.09,0.19,0.2,0.36,0.31,0.54c0.42,0.68,0.62,1.52,0.53,2.31c-0.08,0.75,1.07,0.73,1.16,0
		c0.02-0.2,0.08-0.39,0.13-0.58c0.1,0.03,0.2,0,0.271-0.12c0.14-0.27,0.26-0.55,0.38-0.82c-0.011,2.2,0.319,4.36,0.85,6.51
		c0.12,0.45,0.58,0.48,0.86,0.26c0.12,0.13,0.25,0.25,0.38,0.36c-0.01,0.03-0.01,0.05-0.021,0.07c-0.33,0.01-0.64,0.35-0.56,0.72
		c0.09,0.44,0.26,1.17,0.75,1.31c0.03,0.12,0.07,0.24,0.09,0.36c0.12,0.51,0.66,0.49,0.93,0.19c0.511,0.76,1.17,1.44,1.91,1.98
		c0.25,0.18,1.33,0.76,1.42,0.1c0.04-0.33-0.43-0.66-0.64-0.85c-0.46-0.42-0.87-0.88-1.26-1.37c-0.33-0.42-0.641-0.88-0.83-1.39
		c2.49,1.08,5.84,1.23,8.12,1.55C77.718,61.801,80.698,61.101,83.098,59.031z"/>
	<path fill="#25770E" d="M63.998,112.911c-1.59-0.28-3.09-2-4.22-3.62c-0.07,0.03-0.15,0.04-0.23,0.03
		c-2.27-0.4-4.09-3.08-3.989-5.33c0-0.09,0.02-0.18,0.04-0.26c-0.2-0.97-0.011-2.1,0.46-2.78c0.25-0.36,0.68-0.51,1.08-0.29
		c0.08,0.05,0.149,0.11,0.22,0.16c0.04-0.03,0.08-0.06,0.12-0.09c0.92-0.58,1.92,0.11,2.71,0.71c0.47,0.04,0.92,0.11,1.29,0.21
		c0.24,0.07,0.399,0.21,0.5,0.38c0.08-0.27,0.19-0.51,0.3-0.7c0.26-0.42,0.729-1.2,1.27-1.62c0.91-1.06,2-1.76,2.9-1.38
		c0.29,0.12,0.33,0.59,0.1,0.79c-0.89,0.77-1.829,1.26-2.54,2.27c-0.46,0.65-0.819,1.28-1.039,1.99c2.199,1.77,4.89,0.89,7.17-0.8
		c1.23-0.91,2.18-2.95,3.689-3.32c1.16-0.7,3.83,0.22,4.76,0.67c0.98,0.47,2.9,1.3,3.591,2.47l-0.431,0.26l-0.96,0.55l-0.22,0.12
		l-0.08,0.05l-0.12,0.07l-0.04,0.03l-0.06,0.03l-0.101,0.06l-0.229,0.14c-0.22-0.38-0.61-0.8-0.88-1.23
		c-0.15-0.23-0.271-0.47-0.301-0.7c-0.34-0.19-0.689-0.36-1.069-0.49c-0.37-0.12-0.74-0.24-1.11-0.34
		c-0.09-0.03-0.18-0.06-0.27-0.09c-0.4-0.11-0.811-0.22-1.21-0.32c-0.21-0.05-0.45-0.08-0.7-0.12c-1.19,2.64-4.84,4.83-7.45,5.3
		c-1.55,0.28-3.36-0.02-4.38-1.11c-0.05,0.01-0.1,0.02-0.15,0c-0.58-0.13-0.739-0.7-0.62-1.45c-0.189,0.18-0.46,0.29-0.8,0.21
		c-0.609-0.16-3.04-0.54-2.17,1.1c0.24,0.45,0.5,0.87,0.78,1.3c0.45,0.69,0.899,1.39,1.38,2.08c1.28,1.82,2.45,3.12,4.54,3.97
		c0.06,0.03,0.12,0.06,0.16,0.11L63.998,112.911z"/>
	<path fill="#669E1D" d="M33.137,49.113c-0.475-0.467-1.497-0.29-2.121-0.309c-0.695-0.021-1.594-0.063-2.18,0.372
		c-0.109,0.081-0.194,0.212-0.145,0.355c0.005,0.016,0.011,0.03,0.018,0.045c0.204,0.449,1.436,0.155,1.814,0.158
		c0.73,0.005,2.043,0.382,2.613-0.157C33.266,49.455,33.261,49.236,33.137,49.113z"/>
	<path fill="#25770E" d="M51.69,47.662c-0.824-0.229-1.693-0.238-2.57-0.164c0.159-0.294,0.105-0.626-0.116-0.87
		c-0.952-1.046-2.59-1.197-3.897-1.513c-3.011-0.728-6.073-0.647-9.131-0.302c-2.852,0.322-7.71,0.772-8.889,3.931
		c-0.179-0.056-0.313-0.131-0.37-0.234c-0.063-0.112-0.226-0.105-0.291,0c-1.023,1.656,5.305,1.388,5.844,1.377
		c3.227-0.061,6.446-0.096,9.671-0.258c3.101-0.156,6.79-0.162,9.75-1.101C52.107,48.395,52.131,47.784,51.69,47.662z
		 M37.393,48.468c-2.274,0.11-4.548,0.155-6.822,0.302c-0.441,0.029-1.973,0.187-2.978,0.073c2.525-2.831,7.666-2.706,11.076-2.849
		c2.342-0.098,4.576,0.237,6.847,0.78c0.726,0.173,1.482,0.627,2.219,0.893c-0.739,0.114-1.472,0.245-2.175,0.32
		C42.849,48.278,40.115,48.337,37.393,48.468z"/>
	<path fill="#25770E" d="M33.609,53.807c-1.088-0.903-2.364-1.405-3.637-1.992c-0.771-0.355-1.514-0.811-2.266-1.235
		c0.02-0.248-0.119-0.513-0.469-0.558c0.027,0.003-0.299-0.443-0.352-0.493c-0.225-0.211-0.529-0.046-0.56,0.232
		c-0.005,0.044,0.008,0.09,0.009,0.135c-0.176-0.075-0.347-0.163-0.526-0.225c-0.217-0.075-0.426,0.2-0.3,0.391
		c0.783,1.183,2.207,1.84,3.433,2.477c1.428,0.741,2.936,1.401,4.547,1.561C33.633,54.115,33.721,53.899,33.609,53.807z"/>
	<path d="M47.935,57.451c0.768-1.171,0.795-2.886,0.831-4.213c0.037-1.368-0.513-3.349-2.18-3.417
		c-1.247-0.051-2.494,0.177-3.748,0.17c-1.362-0.008-2.675-0.054-4.026,0.131c-0.176,0.024-0.298,0.113-0.375,0.232
		c-0.242-0.067-0.536-0.005-0.714,0.232c-0.015,0.019-0.026,0.038-0.04,0.057c-0.13,0.084-0.216,0.21-0.251,0.354
		c-0.085,0.125-0.164,0.252-0.24,0.378c-0.242,0.044-0.47,0.215-0.523,0.462c-0.053,0.242-0.083,0.455-0.108,0.677
		c-0.117,0.238-0.238,0.48-0.172,0.824c-0.342,0.065-0.656,0.474-0.314,0.837c0.587,0.624,0.986,0.79,1.859,0.961
		c1.556,0.306,2.6,0.939,3.936,1.756c1.425,0.87,3.063,1.503,4.744,1.587c0.16,0.008,0.273-0.086,0.341-0.21
		c0.094-0.006,0.181-0.031,0.262-0.069c0.06,0.315,0.465,0.535,0.741,0.248c0.246-0.255,0.255-0.551,0.097-0.858
		C48.022,57.53,47.977,57.493,47.935,57.451z"/>
	<path d="M77.956,53.324c-0.023-0.258-0.148-0.436-0.311-0.55c-0.038-0.2-0.083-0.399-0.143-0.598
		c-0.042-0.139-0.122-0.259-0.226-0.354c-0.166-0.459-0.354-0.861-0.72-1.254c-0.347-0.372-0.757-0.307-1.031-0.053
		c-1.206-0.503-2.56-0.562-3.8-0.042c-0.158,0.003-0.314,0.004-0.473,0.007c-0.227-0.183-0.546-0.242-0.836-0.06
		c-2.559,1.605-3.691,5.269-2.518,8.035c0.164,0.386,0.68,0.448,1.033,0.265c0.021,0.016,0.041,0.031,0.062,0.046
		c0.097,0.073,0.202,0.104,0.308,0.11c0.163,0.131,0.385,0.178,0.615,0.05c0.07,0.046,0.149,0.086,0.251,0.103
		c0.125,0.021,0.25,0.042,0.375,0.062c0.118,0.02,0.228,0.012,0.327-0.014c0.539,0.035,1.072,0.125,1.606,0.214
		c0.107,0.074,0.231,0.131,0.386,0.142c0.229,0.031,0.458,0.031,0.688-0.001c0.182-0.013,0.317-0.081,0.429-0.17
		c0.71,0.138,1.367,0.172,1.992-0.26c0.195-0.015,0.379-0.112,0.482-0.333c0.133-0.282,0.269-0.562,0.405-0.842
		c0.034-0.031,0.071-0.055,0.1-0.093c0.365-0.49,0.633-0.99,0.84-1.537c0.127-0.116,0.216-0.279,0.222-0.499
		C78.041,54.901,78.028,54.119,77.956,53.324z"/>
	<path fill="#FFFFFF" d="M47.189,53.495c-0.193-0.44-0.599-0.77-1.055-0.924c-0.159-0.107-0.342-0.181-0.541-0.205
		c-0.242-0.029-0.436,0.043-0.587,0.174c-0.208,0.047-0.397,0.145-0.544,0.312c-0.296,0.336-0.313,0.791-0.167,1.195
		c0.021,0.33,0.159,0.653,0.437,0.888c0.099,0.084,0.211,0.121,0.319,0.125c0.241,0.19,0.539,0.298,0.874,0.293
		c0.178,0.031,0.361,0.034,0.548,0C47.295,55.203,47.472,54.135,47.189,53.495z"/>
	<path fill="#FFFFFF" d="M39.793,51.147c-0.008-0.001-0.015,0-0.022-0.001c-0.072-0.06-0.162-0.104-0.282-0.104
		c-0.017,0-0.028,0.007-0.044,0.009c-0.002,0-0.007-0.001-0.009-0.002c-0.144-0.045-0.256,0.017-0.334,0.109
		c-0.092,0.026-0.183,0.055-0.279,0.065c-0.57,0.06-0.598,0.917,0,0.909c0.289-0.004,0.577-0.037,0.865-0.049
		c0.259-0.01,0.439-0.199,0.454-0.454c0.001-0.007,0.001-0.015,0.001-0.022C40.154,51.409,39.99,51.186,39.793,51.147z"/>
	<path fill="#FFFFFF" d="M40.325,53.739c-0.203,0.125-0.203,0.419,0,0.545c0.229,0.365,0.905,0.231,0.905-0.272
		S40.554,53.374,40.325,53.739z"/>
	<path fill="#FFFFFF" d="M77.225,54.244c-0.038-1.065-1.382-2.284-2.103-1.019c-0.031,0.055-0.054,0.115-0.078,0.174
		c-0.312,0.278-0.483,0.724-0.418,1.152c0.075,0.491,0.516,0.73,0.938,0.667c0.018,0.01,0.03,0.023,0.049,0.033
		c0.604,0.306,1.33,0.108,1.598-0.528C77.279,54.565,77.271,54.403,77.225,54.244z"/>
	<path fill="#FFFFFF" d="M70.883,52.713c-0.14,0.092-0.264,0.195-0.354,0.319c-0.056,0.061-0.111,0.124-0.166,0.186
		c0.003,0.002,0.007,0.005,0.01,0.008c-0.035,0.032-0.068,0.065-0.094,0.1c-0.359,0.486,0.447,1.103,0.836,0.645
		c0.005-0.006,0.009-0.013,0.014-0.019c0.002,0,0.003,0,0.005-0.001c0.194-0.041,0.303-0.158,0.353-0.298
		c0.051-0.061,0.095-0.128,0.134-0.203C71.855,52.999,71.359,52.397,70.883,52.713z"/>
	<path fill="#FFFFFF" d="M71.834,56.193c-0.007,0.011-0.008,0.026-0.014,0.038c-0.014,0.007-0.021,0.023-0.033,0.033
		c0.001-0.018,0-0.014-0.005,0.005c-0.071,0.06-0.119,0.151-0.121,0.242c-0.001,0.101,0.022,0.193,0.044,0.291
		c0.082,0.357,0.424,0.397,0.672,0.252c0.108-0.028,0.203-0.102,0.26-0.234c0.055-0.128,0.097-0.242,0.097-0.383
		C72.734,55.95,72.082,55.786,71.834,56.193z"/>
	<path fill="#7F3014" d="M84.51,79.451c-1.572,1.338-4.424,2.897-6.484,3.708c-2.104,0.828-4.155,1.815-6.349,2.378
		c-1.458-0.042-2.926-0.2-4.439-0.108c-0.012,0-0.017,0.01-0.027,0.012c-0.489,0.023-0.973,0.085-1.345,0.087
		c-1.778,0.01-3.352-0.373-5.069-0.728c-0.169-0.035-0.37,0.152-0.247,0.321c0.029,0.04,0.065,0.071,0.097,0.11
		c-5.861-0.822-11.492-2.645-17.271-3.854c-1.416-0.296-2.849-0.577-4.288-0.793c0.259-0.022,0.502-0.054,0.712-0.101
		c0.157-0.035,0.237-0.278,0.102-0.385c-0.725-0.571-1.603-0.663-2.485-0.85c-1.353-0.286-2.649-0.605-3.699-1.562
		c-0.875-0.795-0.492-1.772,0.348-2.362c0.869-0.61,1.725-0.284,2.674-0.366c0.225-0.02,0.334-0.221,0.243-0.423
		c-0.517-1.142-2.137-1.003-3.122-0.622c0.003-0.016,0.014-0.026,0.016-0.042c0.036-0.245-0.059-0.44-0.299-0.526
		c-0.255-0.092-0.515-0.003-0.775,0.029c-0.304,0.037-0.573-0.008-0.867,0.112c-0.018,0.007-0.028,0.02-0.045,0.028
		c-1.971-0.617-3.782-1.04-5.584-0.919c-0.451-0.787-1.481-0.563-2.379-0.017c-0.06-0.013-0.117-0.026-0.179-0.039
		c-0.295-0.057-0.588,0.034-0.747,0.304c-0.134,0.229-0.214,0.479-0.255,0.737c-0.024,0.03-0.048,0.06-0.07,0.089
		c-0.181,0.098-0.361,0.201-0.543,0.314c-0.297,0.184-0.493,0.655-0.254,0.967c0.152,0.199,0.307,0.388,0.465,0.57
		c0.301,1.217,1.523,2.102,2.753,2.479c1.24,1.426,3.113,2.157,4.398,3.671c0.153,0.18,0.345,0.233,0.529,0.207
		c0.104,0.104,0.206,0.204,0.291,0.287c0.104,0.102,0.226,0.196,0.344,0.293c0.027,0.038,0.053,0.078,0.08,0.115
		c0.055,0.074,0.132,0.105,0.211,0.118c1.419,1.036,3.523,1.729,5.122,1.814c0.251,0.013,0.405-0.288,0.283-0.494
		c-0.851-1.436-2.831-1.431-4.19-2.172c-0.355-0.194-0.674-0.438-0.972-0.705c-0.01-0.054-0.01-0.11-0.021-0.164
		c-0.066-0.316-0.04-0.469,0.098-0.567c1.601,1.171,4.545,1.153,6.195,1.377c7.421,1.008,14.518,3.623,21.901,4.855
		c3.171,0.53,6.379,0.787,9.593,0.78c1.088-0.002,2.109-0.155,3.1-0.393c1.559,0.052,3.117-0.149,4.633-0.693
		c2.889-1.038,6.293-2.608,8.386-4.896c0.155-0.17,0.186-0.365,0.146-0.539c0.137-0.108,0.279-0.212,0.409-0.323
		C86.412,79.908,85.284,78.792,84.51,79.451z M32.142,79.625c-0.03-0.244-0.18-0.49-0.422-0.602c0.131-0.011,0.24-0.088,0.313-0.217
		c0.188-0.017,0.34-0.093,0.447-0.235c0.7,0.798,1.853,1.33,3.073,1.655C34.468,80.167,33.142,80.068,32.142,79.625z"/>
	<path fill="#A54E2B" d="M51.632,78.864c-0.507-1.116-2.429-1.224-3.488-1.405c-0.759-0.129-1.517-0.24-2.266-0.421
		c-0.567-0.137-1.114-0.474-1.701-0.328c-0.089,0.022-0.177,0.121-0.166,0.218c0.124,1.113,1.754,1.348,2.632,1.545
		c0.772,0.173,1.554,0.296,2.325,0.472c0.758,0.173,1.493,0.692,2.27,0.606C51.599,79.511,51.785,79.199,51.632,78.864z"/>
	<path fill="#ED7045" d="M88.711,71.431c0.002-0.005,0.004-0.01,0.005-0.015c0.159-0.619-0.791-1.068-1.064-0.449
		c-0.147,0.336-0.271,0.628-0.392,0.973c-0.029,0.084-0.031,0.162-0.023,0.235c-0.315,0.791-0.736,1.514-1.309,2.194
		c-0.123,0.146-0.26,0.279-0.396,0.413c-0.181,0.011-0.359,0.087-0.477,0.26c-0.093,0.137-0.164,0.28-0.248,0.42
		c-0.317,0.294-0.619,0.6-0.85,0.966c-0.02,0.006-0.04,0.008-0.058,0.017c-0.139-0.127-0.283-0.242-0.432-0.325
		c-0.416-0.232-0.737,0.189-0.64,0.527L82.8,76.632c0.184,0.464,0.962,1.025,0.733,1.555c-0.269,0.627,0.495,1.109,0.913,0.583
		c0.024-0.009,0.053-0.008,0.075-0.022c0.415-0.245,0.693-0.599,0.899-1.004c0.174,0.064,0.379,0.035,0.561-0.154
		c0.686-0.712,1.281-1.461,1.791-2.31c0.594-0.989,0.604-2.106,1.051-3.142C88.939,71.87,88.875,71.598,88.711,71.431z"/>
	<path fill="#ED7045" d="M85.141,79.578c-0.063,0.017-0.114,0.053-0.157,0.098c-0.055-0.021-0.104-0.045-0.163-0.063
		c-0.183-0.059-0.367-0.03-0.507,0.062c-0.252,0.002-0.508,0.192-0.562,0.43c-0.036,0.158-0.063,0.319-0.086,0.479
		c-0.233,0.047-0.42,0.285-0.354,0.545c0.085,0.337,0.263,0.607,0.364,0.941c0.152,0.504,0.041,1.104-0.081,1.598
		c-0.133,0.534-0.387,1.123-0.687,1.663c-0.076,0.045-0.142,0.109-0.183,0.181c-0.196,0.345-0.393,0.696-0.698,0.958
		c-0.525,0.451,0.228,1.172,0.752,0.751c0.33-0.265,0.549-0.633,0.722-1.018c0.975-0.206,1.568-0.938,2.203-1.794
		c0.275-0.373,0.569-0.815,0.809-1.289c0.048-0.042,0.092-0.092,0.123-0.16c0.121-0.263,0.191-0.509,0.241-0.755
		c0.043-0.023,0.089-0.04,0.128-0.073C88.078,81.207,86.202,79.301,85.141,79.578z"/>
	<g>
		<g>
			<path d="M21.474,74.478c1.741,4.827,7.393,7.7,11.789,9.618c5.521,2.409,11.369,3.808,17.239,5.059
				c7.708,1.643,15.806,3.273,23.706,2.174c5.61-0.781,12.296-4.257,13.555-10.325c0.061-0.295-0.387-0.534-0.521-0.22
				c-5.999,14.033-26.541,8.933-37.956,6.595c-9.388-1.923-21.83-4.494-27.47-13.046C21.706,74.166,21.398,74.267,21.474,74.478
				L21.474,74.478z"/>
		</g>
	</g>
	<g>
		<g>
			<path d="M84.992,79.008c0.346,0.403,0.867,0.608,1.209,1.022c0.361,0.438,0.328,0.856,0.421,1.376
				c0.058,0.326,0.608,0.415,0.743,0.097c0.521-1.233-0.945-3.109-2.271-2.88C84.909,78.654,84.89,78.889,84.992,79.008
				L84.992,79.008z"/>
		</g>
	</g>
	<g>
		<g>
			<path d="M25.874,74.912c2.648,4.256,9.353,5.687,13.874,6.559c6.2,1.195,12.47,2.406,18.708,3.364
				c6.727,1.032,14.118,1.619,20.536-1.122c4.095-1.749,10.88-6.316,10.731-11.451c-0.006-0.222-0.324-0.332-0.437-0.118
				c-1.505,2.86-2.611,5.23-5.268,7.261c-2.433,1.859-5.08,3.147-8.046,3.931c-6.558,1.733-13.501,0.842-20.073-0.33
				c-5.056-0.902-10.083-1.779-15.158-2.569c-2.464-0.383-4.949-0.81-7.334-1.552c-2.882-0.897-4.989-2.277-7.325-4.132
				C25.973,74.664,25.788,74.773,25.874,74.912L25.874,74.912z"/>
		</g>
	</g>
	<g>
		<g>
			<path d="M21.696,75.045c1.495-4.878,10.869-1.446,14.072-0.482c6.39,1.923,12.725,3.878,19.296,5.15
				c9.323,1.805,31.856,3.905,33.004-10.369c0.051-0.638-0.935-0.63-0.992,0c-0.706,7.751-9.548,9.705-15.961,10.279
				c-9.458,0.847-18.746-1.57-27.822-3.925c-3.21-0.833-22.095-7.987-21.85-0.688C21.448,75.156,21.653,75.186,21.696,75.045
				L21.696,75.045z"/>
		</g>
	</g>
	<g>
		<g>
			<path d="M87.605,69.03c0.05,0.652,0.587,1.269,0.759,1.916c0.177,0.666-0.029,1.771,0.526,2.247
				c0.125,0.108,0.305,0.15,0.454,0.059c0.835-0.512,0.391-1.99,0.127-2.739c-0.234-0.666-0.69-1.8-1.519-1.829
				C87.775,68.677,87.591,68.847,87.605,69.03L87.605,69.03z"/>
		</g>
	</g>
	<g>
		<g>
			<path d="M64.543,61.291c1.264,1.464,3.605,2.239,5.2,3.348c1.08,0.751,2.127,1.578,3.027,2.542
				c0.693,0.743,1.155,1.622,1.96,2.238c0.145,0.11,0.289-0.072,0.27-0.207c-0.289-1.987-2.607-3.676-4.149-4.752
				c-1.718-1.198-4.099-2.973-6.152-3.437C64.538,60.987,64.438,61.171,64.543,61.291L64.543,61.291z"/>
		</g>
	</g>
	<g>
		<g>
			<path d="M64.104,61.147c2.184,2.338,7.9,3.947,10.708,1.965c0.236-0.167,0.172-0.581-0.156-0.575
				c-1.716,0.031-3.266,0.65-5.025,0.407c-1.985-0.274-3.544-1.21-5.295-2.097C64.143,60.749,63.951,60.984,64.104,61.147
				L64.104,61.147z"/>
		</g>
	</g>
	<g>
		<g>
			<path d="M78.016,62.084c5.505,3.175,13.787-4.717,8.914-9.847c-0.174-0.183-0.556,0.006-0.45,0.262
				c1.11,2.689,1.116,4.91-0.969,7.137c-2.02,2.157-4.5,2.589-7.28,1.941C77.93,61.507,77.736,61.923,78.016,62.084L78.016,62.084z"
				/>
		</g>
	</g>
	<g>
		<g>
			<path d="M77.999,64.053c1.281,0.597,2.488,0.87,3.857,0.377c0.851-0.307,2.664-1.308,2.234-2.409
				c-0.044-0.112-0.137-0.208-0.267-0.204c-0.908,0.028-1.301,1.191-2.059,1.642c-1.032,0.614-2.518,0.564-3.653,0.33
				C77.96,63.758,77.842,63.98,77.999,64.053L77.999,64.053z"/>
		</g>
	</g>
	<g>
		<g>
			<path d="M83.158,62.392c0.265,0.504,0.714,0.686,1.154,1.029c0.68,0.531,1.188,1.229,1.575,1.997
				c0.35,0.693,0.59,1.433,0.727,2.196c0.143,0.796,0.029,1.618,0.29,2.384c0.074,0.218,0.351,0.253,0.478,0.063
				c0.943-1.407,0.189-3.833-0.558-5.191c-0.58-1.054-2.2-3.166-3.61-2.615C83.156,62.277,83.128,62.334,83.158,62.392
				L83.158,62.392z"/>
		</g>
	</g>
	<g>
		<g>
			<path d="M64.664,57.723c3.735,2.635,9.401,2.953,13.784,2.327c3.779-0.539,8.781-2.825,8.646-7.372
				c-0.012-0.413-0.564-0.467-0.698-0.094c-0.832,2.303-1.631,4.015-3.931,5.189c-1.883,0.961-4.102,1.287-6.186,1.415
				c-3.83,0.235-7.924-0.149-11.466-1.72C64.64,57.389,64.506,57.611,64.664,57.723L64.664,57.723z"/>
		</g>
	</g>
	<g>
		<g>
			<path d="M64.931,57.231c1.541-4.538,4.615-7.855,9.318-9.18c4.654-1.31,10.506,0.015,12.094,5.091
				c0.193,0.618,1.067,0.358,0.957-0.264c-0.993-5.6-7.497-7.274-12.419-6.201c-4.852,1.057-10.183,5.16-10.341,10.5
				C64.533,57.411,64.861,57.437,64.931,57.231L64.931,57.231z"/>
		</g>
	</g>
	<g>
		<g>
			<path d="M69.072,50.524c2.649,0.237,5.324,0.057,7.983,0.334c3.115,0.324,5.951,1.156,8.824,2.375
				c0.629,0.267,1.173-0.569,0.552-0.944c-4.758-2.879-12.07-3.204-17.407-2.118C68.813,50.214,68.883,50.507,69.072,50.524
				L69.072,50.524z"/>
		</g>
	</g>
	<g>
		<g>
			<path d="M66.215,48.362c2.807-1.828,6.463-2.937,9.74-3.544c3.336-0.618,11.565-0.435,9.548,5.082
				c-0.164,0.448,0.538,0.732,0.764,0.322c2.305-4.175-2.845-6.747-6.423-6.858c-4.89-0.151-9.909,1.879-13.747,4.795
				C65.98,48.249,66.086,48.447,66.215,48.362L66.215,48.362z"/>
		</g>
	</g>
	<g>
		<g>
			<path d="M70.611,43.071c2.611-0.433,5.078-1.115,7.76-1.168c1.418-0.028,2.948,0.014,4.253,0.645
				c1.412,0.682,1.754,1.802,2.318,3.137c0.15,0.354,0.606,0.116,0.641-0.173c0.352-2.986-2.995-4.331-5.41-4.543
				c-3.077-0.27-6.921,0.407-9.675,1.832C70.337,42.883,70.456,43.097,70.611,43.071L70.611,43.071z"/>
		</g>
	</g>
	<g>
		<g>
			<path d="M55.203,32.351c9.173-1.816,20.233-0.553,25,8.674c0.267,0.517,1.184,0.152,0.957-0.403
				c-4.006-9.802-17.152-11.757-26.053-8.618C54.889,32.081,54.975,32.396,55.203,32.351L55.203,32.351z"/>
		</g>
	</g>
	<g>
		<g>
			<path d="M47.139,23.126c4.536-2.924,9.34-3.399,14.516-1.822c2.296,0.699,4.56,1.821,6.349,3.442
				c2.478,2.244,3.429,4.72,4.638,7.718c0.175,0.433,0.889,0.425,0.875-0.118c-0.152-5.71-5.988-10.235-10.939-11.894
				c-4.795-1.607-12.02-1.796-15.601,2.467C46.887,23.026,47.004,23.213,47.139,23.126L47.139,23.126z"/>
		</g>
	</g>
	<g>
		<g>
			<path d="M41.367,20.022c1.828,1.122,3.245,2.131,4.405,3.993c0.999,1.605,1.28,3.527,2.226,5.103
				c0.195,0.326,0.685,0.179,0.699-0.189c0.079-2.025-1.381-4.67-2.566-6.244c-1.103-1.465-2.77-2.93-4.714-2.844
				C41.321,19.844,41.283,19.97,41.367,20.022L41.367,20.022z"/>
		</g>
	</g>
	<g>
		<g>
			<path d="M46.421,24.778c0.259-0.224,0.378-0.512,0.558-0.799c0.196-0.312,0.479-0.598,0.624-0.934
				c0.08-0.185-0.104-0.465-0.315-0.315c-0.318,0.225-0.515,0.58-0.713,0.911c-0.198,0.33-0.402,0.644-0.394,1.038
				C46.184,24.806,46.331,24.856,46.421,24.778L46.421,24.778z"/>
		</g>
	</g>
	<g>
		<g>
			<path d="M24.978,34.053c2.932-2.188,5.561-3.848,9.205-4.68c3.581-0.819,7.487-0.931,11.034,0.109
				c3.353,0.984,6.335,2.99,8.65,5.593c2.289,2.573,3.249,5.541,4.957,8.429c0.248,0.42,0.877,0.227,0.895-0.243
				c0.057-1.454-1.061-3.271-1.735-4.49c-0.901-1.629-1.995-3.188-3.235-4.578c-2.464-2.763-5.645-4.846-9.212-5.873
				c-3.643-1.049-7.613-0.942-11.276-0.045c-3.359,0.823-7.509,2.574-9.482,5.58C24.704,33.971,24.861,34.14,24.978,34.053
				L24.978,34.053z"/>
		</g>
	</g>
	<g>
		<g>
			<path d="M22.517,49.616c2.903-7.085,12.223-8.799,19.04-8.136c3.886,0.378,7.765,1.534,11.144,3.507
				c4.022,2.349,6.137,5.509,8.551,9.35c0.16,0.254,0.595,0.095,0.5-0.211c-2.7-8.685-12.059-13.12-20.542-13.844
				c-7.103-0.606-16.682,1.512-19.001,9.249C22.148,49.734,22.442,49.801,22.517,49.616L22.517,49.616z"/>
		</g>
	</g>
	<g>
		<g>
			<path d="M45.3,41.57c3.313,0.025,6.106-0.315,9.356,0.856c1.635,0.589,3.252,1.485,4.477,2.737
				c1.485,1.518,1.819,3.42,2.706,5.247c0.064,0.133,0.282,0.098,0.314-0.041c0.929-4.039-2.827-7.235-6.162-8.601
				c-2.965-1.214-7.816-2.317-10.815-0.657C44.96,41.231,45.061,41.568,45.3,41.57L45.3,41.57z"/>
		</g>
	</g>
	<g>
		<g>
			<path d="M25.611,49.884c2.943-2.676,5.955-4.444,9.98-4.854c3.281-0.334,6.55,0.173,9.706,1.059
				c3.201,0.9,6.392,2.159,9.008,4.261c2.753,2.212,3.774,4.9,5.106,8.028c0.098,0.231,0.426,0.09,0.437-0.118
				c0.374-7.461-8.753-11.494-14.599-13.24c-6.577-1.964-15.657-1.689-19.772,4.759C25.422,49.865,25.541,49.948,25.611,49.884
				L25.611,49.884z"/>
		</g>
	</g>
	<g>
		<g>
			<path d="M25.516,49.448c4.065,1.639,9.45,1.14,13.745,1.042c4.685-0.106,9.418-0.142,14.063-0.815
				c0.616-0.089,0.477-1.172-0.148-1.097c-4.62,0.554-9.266,0.733-13.914,0.863c-2.16,0.061-4.325,0.11-6.486,0.076
				c-2.392-0.037-4.847-0.48-7.225-0.321C25.4,49.205,25.383,49.394,25.516,49.448L25.516,49.448z"/>
		</g>
	</g>
	<g>
		<g>
			<path d="M26.562,49.437c2.165,2.339,5.346,3.826,8.231,5.06c3.173,1.356,6.377,2.661,9.577,3.954
				c4.502,1.82,12.908,4.573,16.431-0.569c0.198-0.289-0.207-0.718-0.497-0.497c-5.477,4.167-11.818,1.546-17.521-0.772
				c-5.547-2.255-10.892-4.334-16.027-7.428C26.597,49.089,26.441,49.306,26.562,49.437L26.562,49.437z"/>
		</g>
	</g>
	<g>
		<g>
			<path d="M60.453,57.697c0.189,1.052,0.681,1.755-0.219,2.63c-0.693,0.674-1.831,0.937-2.731,1.159
				c-2.165,0.536-4.455,0.655-6.675,0.749c-2.094,0.088-4.23,0.168-6.317-0.036c-4.282-0.42-7.78-2.417-11.797-3.706
				c-0.134-0.043-0.264,0.155-0.144,0.248c5.883,4.573,13.933,4.899,21.058,4.218c2.253-0.215,5.164-0.425,7.059-1.805
				c1.288-0.938,1.645-2.79,0.105-3.718C60.607,57.326,60.419,57.509,60.453,57.697L60.453,57.697z"/>
		</g>
	</g>
	<g>
		<g>
			<path d="M43.488,71.23c3.175-0.044,6.525-1.328,9.186-3.005c1.994-1.256,5.127-3.469,5.189-6.088
				c0.005-0.208-0.283-0.341-0.427-0.177c-1.919,2.184-3.315,4.174-5.906,5.718c-2.562,1.527-5.252,2.418-8.084,3.245
				C43.28,70.972,43.308,71.232,43.488,71.23L43.488,71.23z"/>
		</g>
	</g>
	<g>
		<g>
			<path d="M18.258,74.881c0.485-2.107,1.726-3.696,3.753-4.509c1.856-0.744,3.484-0.203,5.352-0.4
				c0.18-0.019,0.281-0.218,0.149-0.36c-1.46-1.578-4.475-0.894-6.145-0.042c-2.02,1.03-3.526,2.929-3.531,5.254
				C17.835,75.062,18.202,75.121,18.258,74.881L18.258,74.881z"/>
		</g>
	</g>
	<g>
		<g>
			<path d="M20.064,68.03c0.773-1.008,1.787-1.82,3.091-1.953c0.863-0.088,1.71,0.408,2.517,0.212
				c0.146-0.036,0.197-0.204,0.133-0.327c-0.517-0.995-2.296-0.871-3.2-0.584c-1.261,0.401-2.243,1.312-2.818,2.49
				C19.695,68.057,19.94,68.191,20.064,68.03L20.064,68.03z"/>
		</g>
	</g>
	<g>
		<g>
			<path d="M54.587,102.803c0.528,2.285,1.777,4.196,3.415,5.859c0.86,0.873,1.806,1.653,2.741,2.443
				c0.805,0.68,1.521,1.559,2.561,1.808c0.153,0.037,0.334-0.106,0.274-0.274c-0.615-1.701-2.983-2.881-4.311-4.063
				c-1.912-1.701-3.286-3.593-4.393-5.894C54.793,102.517,54.549,102.637,54.587,102.803L54.587,102.803z"/>
		</g>
	</g>
	<g>
		<g>
			<path d="M55.514,103.162c0.361-0.429,0.254-1.018,0.563-1.5c0.4-0.623,1.082-0.833,1.787-0.851
				c0.713-0.019,1.435,0.159,2.061,0.5c0.511,0.279,0.834,0.825,1.437,0.84c0.188,0.005,0.314-0.155,0.328-0.328
				c0.067-0.819-1.111-1.385-1.752-1.654c-0.819-0.345-1.777-0.494-2.651-0.282c-0.711,0.172-1.413,0.558-1.829,1.174
				c-0.372,0.551-0.693,1.6-0.122,2.101C55.384,103.204,55.468,103.216,55.514,103.162L55.514,103.162z"/>
		</g>
	</g>
	<g>
		<g>
			<path d="M61.764,103.928c0.487-2.698,3.765-4.941,5.855-6.329c2.358-1.565,4.876-3.024,7.514-4.064
				c0.643-0.253,0.363-1.304-0.289-1.047c-3.21,1.265-6.33,3.041-9.069,5.138c-2.088,1.598-4.268,3.452-4.318,6.261
				C61.454,104.058,61.732,104.104,61.764,103.928L61.764,103.928z"/>
		</g>
	</g>
	<g>
		<path d="M86.818,99.711l-0.83,0.48l-0.08,0.04l-0.03,0.02l-0.01,0.01l-0.07,0.04l-0.149,0.08c-1.4-1.48-2.68-2.99-4.521-4.18
			c-2.029-1.3-4.35-2.11-6.35-3.42c-0.14-0.09-0.09-0.31,0.09-0.31c2.88-0.03,5.86,2.09,8.09,3.71
			C84.198,97.081,85.778,98.291,86.818,99.711z"/>
	</g>
	<g>
		<g>
			<path d="M61.172,103.386c0.338,2.74,3.536,3.302,5.782,2.81c2.834-0.622,6.321-2.589,7.906-5.093
				c0.265-0.419-0.329-0.855-0.675-0.521c-1.665,1.609-3.31,3.079-5.463,4.03c-1.203,0.532-2.609,0.976-3.942,0.837
				c-1.623-0.169-2.286-1.147-3.387-2.154C61.318,103.228,61.157,103.267,61.172,103.386L61.172,103.386z"/>
		</g>
	</g>
	<g>
		<g>
			<path d="M74.549,101.057c0.822,0.308,1.711,0.354,2.509,0.741c0.858,0.415,1.542,1.045,2.057,1.843
				c0.351,0.543,1.222,0.04,0.87-0.509c-1.049-1.634-3.394-3.347-5.437-2.542C74.323,100.679,74.316,100.97,74.549,101.057
				L74.549,101.057z"/>
		</g>
	</g>
	<g>
		<g>
			<path d="M66.767,111.339c2.029-1.076,3.928-3.059,5.566-4.652c1.49-1.449,3.357-3.279,3.942-5.329
				c0.094-0.329-0.37-0.644-0.607-0.353c-1.508,1.85-2.731,3.759-4.474,5.439c-1.528,1.473-3.566,2.819-4.7,4.623
				C66.384,111.242,66.598,111.429,66.767,111.339L66.767,111.339z"/>
		</g>
	</g>
	<g>
		<g>
			<path d="M80.738,95.492c1.514-0.054,2.821-2.418,3.306-3.637c0.642-1.614,0.565-3.469-0.722-4.739
				c-0.598-0.59-1.539,0.365-0.917,0.917c1.445,1.281,1.085,2.929,0.214,4.462c-0.548,0.963-1.709,1.746-2.042,2.785
				C80.543,95.381,80.632,95.495,80.738,95.492L80.738,95.492z"/>
		</g>
	</g>
	<g>
		<g>
			<path d="M81.024,88.831c0.533-0.079,1.137,0.074,1.564,0.408c0.387,0.302,0.566,0.726,0.912,1.052
				c0.275,0.259,0.734,0.075,0.742-0.307c0.013-0.676-0.597-1.39-1.218-1.616c-0.733-0.266-1.375-0.049-2.073,0.2
				C80.783,88.627,80.852,88.856,81.024,88.831L81.024,88.831z"/>
		</g>
	</g>
	<g>
		<g>
			<path d="M36.284,54.013c0.176-0.739,0.383-1.545,0.753-2.211c0.3-0.539,1.051-1.031,1.029-1.666
				c-0.007-0.191-0.146-0.309-0.328-0.328c-0.77-0.08-1.369,1.106-1.634,1.704c-0.378,0.853-0.462,1.603-0.287,2.501
				C35.863,54.249,36.23,54.238,36.284,54.013L36.284,54.013z"/>
		</g>
	</g>
	<g>
		<g>
			<path d="M47.183,50.011c-0.015,0.524,0.384,0.744,0.647,1.192c0.463,0.787,0.619,1.719,0.617,2.621
				c-0.002,0.878-0.156,1.771-0.468,2.593c-0.236,0.622-0.702,1.108-0.698,1.782c0.001,0.201,0.214,0.396,0.42,0.32
				c2.603-0.952,1.994-9.473-0.478-8.56C47.2,49.967,47.184,49.986,47.183,50.011L47.183,50.011z"/>
		</g>
	</g>
	<g>
		<g>
			<path d="M68.505,58.5c-0.249-1.545-0.469-2.829,0.205-4.301c0.537-1.174,1.396-2.145,2.202-3.139
				c0.406-0.5-0.26-1.211-0.724-0.724c-2.043,2.146-4.342,5.619-2.147,8.433C68.233,59.015,68.543,58.736,68.505,58.5L68.505,58.5z"
				/>
		</g>
	</g>
	<g>
		<g>
			<path d="M75.383,59.603c1.822,0.387,3.229-2.385,3.522-3.819c0.41-2.004-0.231-4.264-2.007-5.404
				c-0.429-0.275-0.879,0.339-0.535,0.693c1.354,1.393,2.072,2.86,1.47,4.828c-0.25,0.815-0.692,1.545-1.287,2.154
				c-0.442,0.451-0.983,0.735-1.259,1.313C75.246,59.455,75.274,59.58,75.383,59.603L75.383,59.603z"/>
		</g>
	</g>
</g>
</svg>
