<svg xmlns="http://www.w3.org/2000/svg" viewBox="0 0 110.979 128.417"><path fill="#0A0F44" d="M55.556 127.881L.417 96.047v-63.67L55.556.542l55.14 31.835v63.669z"/><path fill="#040933" d="M55.422 116.822L10.109 90.66V38.337l45.313-26.162 45.314 26.162V90.66z"/><path fill="#15FFAB" d="M55.555 10.618L9.073 37.416V91.01l46.482 26.795L102.04 91.01V37.416L55.555 10.618zm44.603 79.312l-44.603 25.716L10.951 89.93V38.506L55.555 12.79l44.603 25.716V89.93zM73.31 14.398l-1.22-.698-.481.841 1.176.673-.284.496-1.176-.673-.954 1.666-.528-.303 2.003-3.5 1.748 1-.284.498zm.569 1.382l-1.264 2.208-.51-.292 1.264-2.208.51.292zm-.062-1.254a.367.367 0 0 1 .23-.176.365.365 0 0 1 .289.036c.092.053.152.13.18.232a.358.358 0 0 1-.036.289.372.372 0 0 1-.232.18.358.358 0 0 1-.289-.036.372.372 0 0 1-.18-.232.373.373 0 0 1 .038-.293zm.708 1.624l.51.292-.113.197c.15-.045.271-.064.365-.059a.671.671 0 0 1 .296.094c.134.077.25.201.346.373l-.501.333a.557.557 0 0 0-.224-.266c-.278-.159-.537-.029-.778.391l-.655 1.145-.51-.292 1.264-2.208zm2.804 2.104l-.55-.017c.011-.174-.032-.289-.13-.345a.195.195 0 0 0-.147-.022.18.18 0 0 0-.118.09c-.049.085.002.225.151.42.204.271.325.483.362.635a.632.632 0 0 1-.086.477.803.803 0 0 1-.542.4.926.926 0 0 1-.67-.112c-.37-.212-.529-.543-.476-.992l.551.047c0 .14.007.234.023.281a.362.362 0 0 0 .173.213c.172.099.303.07.393-.088.052-.091.034-.213-.054-.368a9.376 9.376 0 0 0-.112-.163l-.114-.164a1.088 1.088 0 0 1-.188-.397.62.62 0 0 1 .088-.422.724.724 0 0 1 .47-.363.798.798 0 0 1 .597.092c.282.162.409.428.379.798zm1.07.745l-.991 1.732-.51-.292.991-1.732-.218-.124.273-.476.218.125.463-.809.51.292-.463.809.397.227-.273.476-.397-.228zm2.624 1.914l-.814 1.421-.528-.302 2.003-3.5.599.343c.293.168.503.315.629.441.128.127.217.281.267.46a1.15 1.15 0 0 1-.124.916c-.183.32-.436.513-.758.577-.322.065-.665-.007-1.029-.216l-.245-.14zm.281-.489l.197.113c.485.277.834.23 1.048-.144.207-.361.06-.685-.44-.971l-.174-.1-.631 1.102zm2.051.779l.51.292-.113.197c.15-.045.271-.064.365-.059a.668.668 0 0 1 .296.094.94.94 0 0 1 .346.373l-.501.333a.557.557 0 0 0-.224-.266c-.278-.159-.537-.029-.778.391l-.655 1.145-.51-.292 1.264-2.208zm2.247 1.286l-1.264 2.208-.51-.292 1.264-2.208.51.292zm-.062-1.254a.367.367 0 0 1 .23-.176.365.365 0 0 1 .289.036c.092.053.152.13.18.232a.358.358 0 0 1-.036.289.372.372 0 0 1-.232.18.358.358 0 0 1-.289-.036.372.372 0 0 1-.18-.232.365.365 0 0 1 .038-.293zm.451 3.771l1.313.751-.275.481-2.324-1.33 2.422-.913L86 23.349l.273-.476 2.135 1.222-2.417.911zm4.09 1.672l-1.582-.906a.772.772 0 0 0-.071.534.617.617 0 0 0 .311.388.598.598 0 0 0 .367.09c.117-.014.273-.072.471-.176l.293.487a2.024 2.024 0 0 1-.377.171c-.12.039-.238.06-.352.063a1.099 1.099 0 0 1-.34-.043 1.528 1.528 0 0 1-.34-.147c-.329-.189-.533-.446-.612-.772-.078-.327-.016-.667.186-1.019.2-.349.458-.576.775-.682.317-.102.637-.06.958.124.325.186.523.436.593.752.07.313 0 .651-.208 1.015l-.072.121zm-.285-.717c.085-.313-.009-.547-.281-.703a.58.58 0 0 0-.574-.012.701.701 0 0 0-.17.129l1.025.586z"/><circle fill="#15FFAB" cx="92.228" cy="27.593" r=".907"/><circle fill="#15FFAB" cx="68.637" cy="13.634" r=".907"/><path d="M14.413 29.525l.694 1.207-.449.258-1.708-2.973.508-.292c.249-.143.447-.234.594-.272a.866.866 0 0 1 .452.002c.267.069.473.23.619.484.156.272.189.54.098.804s-.291.485-.6.662l-.208.12zm-.239-.416l.168-.096c.412-.237.527-.514.345-.831-.176-.307-.477-.338-.902-.094l-.148.085.537.936zm.663-2.547l.433-.249.88 1.533a.86.86 0 0 1 .391-.501.761.761 0 0 1 .627-.086c.176.058.34.217.49.479l.66 1.149-.433.249-.637-1.109c-.086-.15-.175-.244-.267-.28-.092-.037-.197-.021-.315.047-.152.087-.231.195-.239.324-.006.13.058.31.19.541l.521.907-.433.249-1.868-3.253zm2.44-.607a.306.306 0 0 1-.03-.244.31.31 0 0 1 .151-.197.313.313 0 0 1 .248-.032.309.309 0 0 1 .197.151.313.313 0 0 1 .032.248.309.309 0 0 1-.151.197.317.317 0 0 1-.248.032.32.32 0 0 1-.199-.155zm.946.493l1.077 1.875-.433.249-1.077-1.876.433-.248zm.191-1.941l1.868 3.252-.433.249-1.868-3.252.433-.249zm1.782 2.037a1.075 1.075 0 0 1-.106-.858c.085-.301.266-.532.545-.692.28-.161.572-.202.877-.122.302.08.533.26.694.539.162.281.2.572.115.874a1.147 1.147 0 0 1-.556.696 1.1 1.1 0 0 1-.873.117 1.124 1.124 0 0 1-.696-.554zm.447-.247c.108.187.243.307.406.358a.609.609 0 0 0 .501-.068.61.61 0 0 0 .312-.397c.039-.167.006-.342-.099-.524-.105-.182-.239-.299-.403-.35a.609.609 0 0 0-.501.068.605.605 0 0 0-.308.397.702.702 0 0 0 .092.516zm2.754-2.396l-.249.396c-.123-.083-.226-.1-.309-.053a.164.164 0 0 0-.079.098.152.152 0 0 0 .016.126c.041.072.166.095.373.07.286-.033.493-.031.621.007a.542.542 0 0 1 .313.268.682.682 0 0 1 .061.569.79.79 0 0 1-.37.444c-.315.181-.625.155-.932-.077l.271-.383a.95.95 0 0 0 .216.104c.08.018.158.007.231-.035.146-.084.181-.193.104-.326-.044-.077-.142-.117-.293-.118a8.779 8.779 0 0 0-.337.024.936.936 0 0 1-.372-.032.527.527 0 0 1-.272-.246.618.618 0 0 1-.065-.501.68.68 0 0 1 .324-.399c.24-.138.489-.117.748.064zm.769.362a1.071 1.071 0 0 1-.106-.858c.085-.301.266-.532.545-.692.28-.161.572-.201.877-.122a1.1 1.1 0 0 1 .694.539c.162.281.2.573.115.874a1.147 1.147 0 0 1-.556.696c-.281.161-.572.2-.872.117a1.128 1.128 0 0 1-.697-.554zm.448-.246c.108.187.243.307.406.358a.609.609 0 0 0 .501-.068.605.605 0 0 0 .312-.397c.039-.167.006-.342-.099-.524-.105-.182-.239-.299-.403-.35a.612.612 0 0 0-.502.068.606.606 0 0 0-.307.397.694.694 0 0 0 .092.516zm3.577.557l-.433.249-1.663-2.896.433-.249.117.204a.92.92 0 0 1 .434-.59.936.936 0 0 1 .801-.081c.278.091.499.281.665.568.161.281.212.564.151.847a.937.937 0 0 1-.471.642.93.93 0 0 1-.741.074l.707 1.232zm-.088-2.539a.744.744 0 0 0-.399-.355.545.545 0 0 0-.472.043.573.573 0 0 0-.292.388.726.726 0 0 0 .102.52.738.738 0 0 0 .398.35.557.557 0 0 0 .481-.054.542.542 0 0 0 .274-.383.706.706 0 0 0-.092-.509zm-.435-2.843l.433-.249.88 1.533a.86.86 0 0 1 .391-.501.761.761 0 0 1 .627-.086c.176.058.34.217.49.479l.66 1.149-.433.249-.637-1.109c-.086-.15-.175-.244-.267-.28-.092-.037-.197-.021-.315.047-.151.087-.231.195-.239.324-.006.13.058.31.19.541l.521.907-.433.249-1.868-3.253zm5.258.193l-1.344.772c.1.147.221.241.361.282a.53.53 0 0 0 .418-.061.51.51 0 0 0 .223-.231c.04-.091.064-.232.073-.421l.483-.006a1.686 1.686 0 0 1-.037.35.966.966 0 0 1-.281.517 1.326 1.326 0 0 1-.254.187c-.28.161-.556.2-.829.117-.274-.084-.496-.275-.668-.574-.17-.296-.226-.584-.167-.862.062-.276.229-.493.503-.65.276-.158.545-.196.806-.112.26.083.478.28.656.589l.057.103zm-.648-.099c-.193-.196-.405-.228-.636-.096a.504.504 0 0 0-.256.415.598.598 0 0 0 .021.18l.871-.499zm.524-1.213l.434-.249.096.168a.96.96 0 0 1 .113-.293.566.566 0 0 1 .196-.177.802.802 0 0 1 .422-.094l.029.51a.478.478 0 0 0-.292.05c-.236.136-.252.382-.047.739l.559.972-.433.249-1.077-1.875zm2.749-1.154l-.249.397c-.123-.083-.226-.101-.309-.053a.164.164 0 0 0-.079.098.15.15 0 0 0 .016.125c.041.072.166.095.373.07.287-.033.494-.031.621.007a.54.54 0 0 1 .313.269c.104.181.124.37.061.569a.785.785 0 0 1-.37.443c-.314.181-.625.155-.932-.076l.271-.384a.95.95 0 0 0 .216.104.309.309 0 0 0 .23-.035c.146-.084.181-.193.105-.326-.044-.077-.142-.117-.293-.118l-.168.011-.169.013a.936.936 0 0 1-.372-.032.53.53 0 0 1-.272-.246.618.618 0 0 1-.065-.501.68.68 0 0 1 .324-.399c.239-.138.489-.116.748.064zm2.931-2.979l-.24.425c-.136-.079-.245-.119-.327-.119a.529.529 0 0 0-.284.081.526.526 0 0 0-.249.284.382.382 0 0 0 .027.333c.083.145.258.2.525.165l.366-.049c.297-.041.542-.023.735.053a.933.933 0 0 1 .465.421c.157.273.196.552.116.835-.08.285-.257.506-.529.662a1.056 1.056 0 0 1-.771.138c-.253-.057-.48-.213-.681-.467l.397-.361c.121.163.226.263.316.3a.539.539 0 0 0 .515-.04c.14-.08.229-.194.268-.341s.017-.292-.066-.436a.562.562 0 0 0-.115-.145.47.47 0 0 0-.151-.09.71.71 0 0 0-.197-.038 1.577 1.577 0 0 0-.251.009l-.355.046c-.506.062-.854-.073-1.044-.404a.83.83 0 0 1-.066-.708 1.07 1.07 0 0 1 .507-.593c.341-.197.705-.184 1.089.039zm1.59.495l.845 1.471-.433.249-.845-1.471-.185.106-.232-.405.185-.106-.395-.687.433-.249.395.687.337-.194.232.405-.337.194zm.842.208a1.071 1.071 0 0 1-.106-.858c.085-.301.266-.532.545-.692.28-.161.572-.201.877-.122.302.08.534.26.694.538.161.281.2.573.115.874a1.147 1.147 0 0 1-.556.696 1.1 1.1 0 0 1-.873.117 1.119 1.119 0 0 1-.696-.553zm.447-.247c.108.187.243.307.406.358a.609.609 0 0 0 .501-.068.608.608 0 0 0 .312-.397c.039-.167.006-.342-.099-.524-.105-.182-.24-.299-.403-.35a.609.609 0 0 0-.501.068.603.603 0 0 0-.307.397.692.692 0 0 0 .091.516zm1.481-2.09l.435-.25.099.173a.82.82 0 0 1 .383-.52c.218-.125.428-.154.629-.087.172.056.335.217.487.481l.66 1.149-.435.25-.602-1.047c-.106-.185-.205-.298-.297-.339-.091-.043-.203-.027-.335.049-.144.083-.219.189-.224.318-.005.128.059.308.193.542l.52.905-.435.25-1.078-1.874zm4.467-1.183l-1.344.772c.1.147.221.241.362.282.14.039.28.019.418-.061a.51.51 0 0 0 .223-.231c.04-.091.064-.232.073-.421l.483-.006a1.62 1.62 0 0 1-.037.35.986.986 0 0 1-.282.517 1.326 1.326 0 0 1-.254.187c-.28.161-.556.2-.829.117-.273-.084-.496-.275-.668-.574-.17-.296-.226-.584-.167-.862.062-.276.229-.493.503-.65.276-.159.545-.196.806-.112.259.083.478.28.656.589l.057.103zm-.648-.099c-.193-.196-.405-.228-.636-.095a.482.482 0 0 0-.256.416.598.598 0 0 0 .021.18l.871-.501z" fill="#FFF"/><path fill="#15FFAB" d="M54.864 39.791c-3.632 5.048-5.725 11.018-7.329 16.974a157.418 157.418 0 0 0-2.17 9.067c-.727 3.519-1.018 7.11-1.596 10.654-.113.692.946.989 1.06.292.568-3.478.857-7 1.555-10.457.604-2.989 1.333-5.966 2.116-8.913 1.594-5.994 3.659-11.985 7.312-17.062.414-.575-.539-1.124-.948-.555z"/><path fill="#15FFAB" d="M43.606 77.121c1.179 1.064 1.375 2.434.973 3.922-.185.683.875.975 1.06.292.498-1.843.202-3.676-1.255-4.991-.525-.472-1.304.302-.778.777z"/><path fill="#15FFAB" d="M44.687 77.527a57.651 57.651 0 0 0 2.633-2.431c.502-.499-.275-1.276-.777-.777a58.182 58.182 0 0 1-2.633 2.431c-.533.467.247 1.241.777.777z"/><path fill="#15FFAB" d="M48.934 64.838c-2.556 6.335-3.726 14.384-.451 20.68.326.628 1.275.073.949-.555-3.136-6.028-1.877-13.79.562-19.833.264-.655-.799-.94-1.06-.292z"/><path fill="#15FFAB" d="M50.196 64.636c-.416-2.778-.907-5.543-1.418-8.305-.128-.694-1.187-.4-1.06.292.511 2.762 1.002 5.527 1.418 8.305.105.697 1.163.4 1.06-.292z"/><path fill="#15FFAB" d="M50.247 65.155c1.539-.784 2.988-1.727 4.456-2.633.601-.371.049-1.322-.555-.949-1.468.906-2.918 1.849-4.456 2.633-.63.321-.074 1.269.555.949z"/><path fill="#15FFAB" d="M54.485 40.575v21.168c0 .707 1.099.708 1.099 0V40.575c-.001-.707-1.099-.708-1.099 0zm-9.409 47.069c.741-1.271 2.307-2.314 3.779-2.463.697-.07.704-1.17 0-1.099-1.87.189-3.777 1.375-4.728 3.007-.356.613.593 1.167.949.555z"/><path fill="#15FFAB" d="M44.559 80.986c-.21 2.073-.597 4.111-1.094 6.133-.169.687.891.98 1.06.292.52-2.118.913-4.255 1.134-6.426.07-.702-1.029-.697-1.1.001z"/><path fill="#15FFAB" d="M43.546 87.164c.485 5.302 4.12 9.02 7.858 12.441.521.477 1.3-.298.777-.777-3.486-3.19-7.082-6.694-7.537-11.664-.063-.698-1.163-.705-1.098 0z"/><path fill="#15FFAB" d="M52.299 99.766h7.09c.707 0 .708-1.099 0-1.099h-7.09c-.707.001-.708 1.099 0 1.099zm-3.892-14.728c.118 1.962.413 3.898.83 5.818.15.691 1.21.398 1.06-.292-.397-1.825-.679-3.661-.791-5.526-.042-.703-1.141-.708-1.099 0z"/><path fill="#15FFAB" d="M49.292 90.784c1.21 2.53 2.498 5.274 2.558 8.129.015.706 1.114.708 1.099 0-.065-3.06-1.41-5.97-2.708-8.684-.305-.637-1.253-.08-.949.555zm.342-5.976c1.687-2.895 3.074-6.338 5.422-8.776.491-.509-.285-1.287-.777-.777-2.42 2.512-3.856 6.016-5.594 8.998-.357.613.592 1.167.949.555zm5.077-44.411c3.654 5.077 5.718 11.068 7.312 17.062.783 2.946 1.515 5.924 2.116 8.913.696 3.457.988 6.979 1.556 10.457.114.696 1.173.401 1.06-.292-.568-3.478-.858-7-1.556-10.457-.627-3.107-1.386-6.204-2.21-9.264-1.604-5.957-3.696-11.926-7.329-16.974-.41-.569-1.363-.021-.949.555z"/><path fill="#15FFAB" d="M65.887 76.344c-1.458 1.316-1.753 3.148-1.255 4.991.184.682 1.244.392 1.06-.292-.402-1.488-.206-2.858.973-3.922.525-.475-.254-1.25-.778-.777z"/><path fill="#15FFAB" d="M66.36 76.75a57.651 57.651 0 0 1-2.633-2.431c-.502-.499-1.279.278-.777.777a58.182 58.182 0 0 0 2.633 2.431c.53.464 1.31-.31.777-.777z"/><path fill="#15FFAB" d="M60.277 65.13c2.439 6.043 3.698 13.804.562 19.833-.326.627.622 1.183.949.555 3.275-6.296 2.106-14.344-.451-20.68-.262-.647-1.325-.364-1.06.292z"/><path fill="#15FFAB" d="M61.134 64.928c.416-2.778.907-5.543 1.418-8.305.128-.691-.931-.988-1.06-.292-.511 2.762-1.002 5.527-1.418 8.305-.103.691.955.99 1.06.292z"/><path fill="#15FFAB" d="M60.577 64.206c-1.539-.784-2.988-1.727-4.456-2.633-.603-.373-1.156.577-.555.949 1.468.906 2.918 1.849 4.456 2.633.63.32 1.186-.628.555-.949z"/><path fill="#15FFAB" d="M54.687 40.575v21.168c0 .707 1.099.708 1.099 0V40.575c-.001-.707-1.099-.708-1.099 0zM66.142 87.09c-.952-1.632-2.858-2.818-4.728-3.007-.703-.071-.698 1.028 0 1.099 1.473.149 3.038 1.191 3.779 2.463.357.61 1.307.058.949-.555z"/><path fill="#15FFAB" d="M64.612 80.986c.22 2.17.613 4.308 1.134 6.426.169.686 1.229.396 1.06-.292-.497-2.022-.884-4.06-1.094-6.133-.072-.697-1.171-.705-1.1-.001z"/><path fill="#15FFAB" d="M65.625 87.164c-.455 4.97-4.051 8.474-7.536 11.664-.523.478.256 1.254.777.777 3.738-3.421 7.373-7.139 7.858-12.441.064-.704-1.035-.699-1.099 0z"/><path fill="#15FFAB" d="M57.971 98.668h-7.09c-.707 0-.708 1.099 0 1.099h7.09c.707-.001.708-1.099 0-1.099zm2.793-13.63c-.112 1.865-.394 3.701-.791 5.526-.15.689.909.984 1.06.292.417-1.92.712-3.855.83-5.818.042-.707-1.057-.704-1.099 0z"/><path fill="#15FFAB" d="M60.053 90.382c-2.193.429-4.37.99-6.482 1.722-.664.23-.379 1.292.292 1.06a47.865 47.865 0 0 1 6.482-1.722c.694-.136.4-1.195-.292-1.06z"/><path fill="#15FFAB" d="M60.029 90.229c-1.298 2.714-2.643 5.623-2.708 8.684-.015.707 1.084.707 1.099 0 .06-2.855 1.348-5.6 2.558-8.129.303-.635-.644-1.193-.949-.555zm1.556-5.975c-1.87-3.173-3.878-6.577-6.467-9.227-.495-.507-1.272.271-.777.777 2.521 2.581 4.473 5.913 6.295 9.004.359.609 1.309.057.949-.554z"/><path fill="#15FFAB" d="M54.909 61.99c.865 4.284.908 9.005-.507 13.178-.228.671.833.959 1.06.292 1.479-4.362 1.41-9.289.507-13.762-.14-.693-1.199-.4-1.06.292zm-5.364 29.262c3.282.75 5.535 3.602 8.339 5.262.61.361 1.163-.588.555-.949-2.896-1.715-5.202-4.596-8.601-5.373-.689-.157-.983.903-.293 1.06z"/><path fill="#FFF" d="M56.014 37.132v-6.761c0-.707-1.099-.708-1.099 0v6.761c0 .707 1.099.708 1.099 0zm-.245-8.794c.707 0 .708-1.099 0-1.099-.707 0-.709 1.099 0 1.099zm6.389 17.234l4.937-4.937c.501-.501-.276-1.278-.777-.777l-4.937 4.937c-.501.501.276 1.278.777.777zm6.828-6.448c.707 0 .708-1.099 0-1.099-.707 0-.708 1.099 0 1.099zm-19.514 5.671l-4.937-4.937c-.501-.501-1.278.276-.777.777l4.937 4.937c.501.501 1.278-.276.777-.777zm-7.604-5.671c.707 0 .708-1.099 0-1.099-.707 0-.708 1.099 0 1.099zm22.991 11.622h11.749c.707 0 .708-1.099 0-1.099H64.859c-.707.001-.709 1.099 0 1.099zm14.685.203c.707 0 .708-1.099 0-1.099-.707 0-.708 1.099 0 1.099zm-34.03-1.301H33.765c-.707 0-.708 1.099 0 1.099h11.749c.707-.001.708-1.099 0-1.099zm-14.686 1.301c.707 0 .708-1.099 0-1.099-.707 0-.708 1.099 0 1.099zm43.385 58.484l.41-.238.843 1.452a.823.823 0 0 1 .369-.478.721.721 0 0 1 .595-.084c.168.054.324.204.468.453l.632 1.089-.411.238-.61-1.051c-.083-.142-.168-.231-.255-.265-.088-.034-.187-.019-.299.046-.144.083-.219.186-.226.309-.005.123.056.294.183.513l.499.859-.411.238-1.787-3.081zm4.116-.645l.412-.239 1.032 1.777-.412.239-.108-.186c-.077.256-.213.441-.408.554a.905.905 0 0 1-.764.087 1.145 1.145 0 0 1-.633-.54 1.11 1.11 0 0 1-.148-.805.89.89 0 0 1 .444-.614c.207-.12.442-.143.705-.067l-.12-.206zm-.461 1.449c.099.17.225.282.378.336.157.054.306.04.448-.043a.541.541 0 0 0 .277-.371.702.702 0 0 0-.099-.494.706.706 0 0 0-.38-.331.538.538 0 0 0-.457.053.526.526 0 0 0-.261.366.69.69 0 0 0 .094.484zm2.82-2.716l.317.546a1.14 1.14 0 0 0-.388-.089.562.562 0 0 0-.295.084.587.587 0 0 0-.291.386.658.658 0 0 0 .083.496.676.676 0 0 0 .386.325c.162.049.32.029.474-.061a.61.61 0 0 0 .224-.215c.049-.084.088-.214.117-.39l.315.542a1.252 1.252 0 0 1-.425.42c-.275.16-.556.204-.844.134a1.027 1.027 0 0 1-.664-.505 1.042 1.042 0 0 1-.109-.834 1.1 1.1 0 0 1 .531-.674c.174-.105.364-.159.569-.165zm.006-1.851l1.091 1.879.245-.911.551-.32-.339 1.195 1.427.55-.533.309-1.023-.409-.028.104.397.684-.411.238-1.789-3.082.412-.237zm3.518-.298l.412-.239 1.032 1.777-.412.239-.108-.186c-.077.256-.213.441-.408.554a.905.905 0 0 1-.764.087 1.148 1.148 0 0 1-.633-.54 1.111 1.111 0 0 1-.148-.805.89.89 0 0 1 .444-.614c.207-.12.442-.143.705-.068l-.12-.205zm-.462 1.449c.099.17.225.282.378.336.157.054.306.04.448-.043a.541.541 0 0 0 .277-.371.702.702 0 0 0-.099-.494.706.706 0 0 0-.38-.331.538.538 0 0 0-.457.053.526.526 0 0 0-.261.366.7.7 0 0 0 .094.484zm2.038-1.852l.809 1.394-.41.238-.809-1.394-.175.102-.222-.383.175-.102-.378-.652.411-.238.378.651.319-.185.223.383-.321.186zm-.381-2.035l.41-.238.843 1.452a.823.823 0 0 1 .369-.478.718.718 0 0 1 .595-.084c.168.054.324.204.468.453l.632 1.089-.411.238-.61-1.051c-.083-.142-.168-.231-.255-.265-.088-.034-.187-.019-.299.046-.144.083-.219.186-.226.309-.005.123.056.294.183.513l.499.859-.411.238-1.787-3.081zm3.231 1.039a1.022 1.022 0 0 1-.105-.815c.079-.286.251-.507.515-.66.265-.154.543-.194.833-.12.288.075.508.245.661.509.155.267.192.543.113.83a1.088 1.088 0 0 1-.525.663 1.044 1.044 0 0 1-.829.115 1.062 1.062 0 0 1-.663-.522zm.424-.236c.103.178.232.29.387.339a.581.581 0 0 0 .476-.066.579.579 0 0 0 .295-.379.674.674 0 0 0-.097-.498.677.677 0 0 0-.385-.331.578.578 0 0 0-.476.067.571.571 0 0 0-.29.378.665.665 0 0 0 .09.49zm1.398-1.993l.412-.239.095.164a.775.775 0 0 1 .361-.495c.207-.12.406-.149.597-.085.164.053.319.204.464.455l.633 1.089-.412.239-.576-.993c-.102-.175-.196-.282-.284-.321-.087-.041-.193-.025-.318.048-.136.079-.207.18-.212.304-.004.121.058.293.186.514l.498.858-.412.239-1.032-1.777zm4.679-.875l1.049-.609.232.4-1.892 1.099.29-1.752c.028-.174.049-.323.064-.447s.022-.225.023-.304a.709.709 0 0 0-.075-.369.508.508 0 0 0-.33-.25.55.55 0 0 0-.42.066c-.285.165-.35.428-.196.789l-.423.246c-.277-.633-.149-1.104.382-1.413.257-.149.519-.192.788-.131.27.061.475.212.614.453.089.153.135.327.14.522.003.101-.005.227-.023.378-.019.152-.047.335-.085.549l-.138.773zm.933-1.915c-.261-.449-.364-.868-.31-1.257.047-.351.203-.604.47-.758.266-.155.564-.165.892-.032.365.146.681.45.948.911.267.46.374.884.32 1.273-.047.351-.203.603-.468.757-.265.154-.563.165-.893.033-.366-.146-.685-.455-.959-.927zm.419-.24c.182.313.386.541.615.685.226.14.423.162.591.064.167-.097.246-.278.237-.545-.008-.265-.101-.552-.28-.86-.179-.308-.382-.531-.609-.671-.227-.138-.423-.159-.59-.062-.165.096-.244.277-.237.542.007.264.098.546.273.847zm2.164-2.587l-.487.283.003-.533.679-.394 1.636 2.817-.425.247-1.406-2.42zm2.498-.174a.802.802 0 0 1-.657-.417.888.888 0 0 1-.097-.71.939.939 0 0 1 .456-.572.925.925 0 0 1 .717-.109.887.887 0 0 1 .567.439c.14.242.152.5.036.772a.757.757 0 0 1 .421.111.913.913 0 0 1 .327.337.95.95 0 0 1 .112.755.993.993 0 0 1-.487.603 1.04 1.04 0 0 1-.784.133.921.921 0 0 1-.607-.457c-.183-.316-.185-.611-.004-.885zm-.258-.651c.07.12.169.198.298.232a.471.471 0 0 0 .372-.05.464.464 0 0 0 .225-.297.47.47 0 0 0-.048-.37.468.468 0 0 0-.297-.225.467.467 0 0 0-.369.049.464.464 0 0 0-.225.297.456.456 0 0 0 .044.364zm.671 1.279a.542.542 0 1 0 .608-.791.522.522 0 0 0-.41.055.526.526 0 0 0-.251.329.52.52 0 0 0 .053.407zM57.958 121.536l-.055-.094a.395.395 0 0 1-.045-.098c-.007-.028-.024-.051-.036-.077-.009-.018-.02-.036-.021-.057a.032.032 0 0 0-.003-.014.708.708 0 0 1-.044-.114 4.378 4.378 0 0 1-.031-.108 2.287 2.287 0 0 1-.075-.652c.001-.072.011-.143.018-.215.006-.064.024-.125.034-.188.013-.081.039-.158.062-.236a2.078 2.078 0 0 1 .272-.562c.025-.039.051-.078.081-.113.029-.034.052-.074.087-.103.013-.01.014-.028.029-.037a.093.093 0 0 0 .028-.031c.013-.02.034-.031.05-.049.025-.029.056-.055.085-.081.034-.03.071-.057.105-.088.032-.029.067-.052.101-.077a1.73 1.73 0 0 1 .231-.146 2.596 2.596 0 0 1 .444-.182c.034-.01.067-.027.104-.026.025-.015.056-.009.081-.021.02-.01.043-.007.064-.012.046-.011.094-.016.142-.021.09-.009.18-.014.271-.013.09.001.18.011.27.02.089.009.175.036.263.048.014.002.027.007.041.012.03.01.058.022.089.029.075.017.145.048.216.079.055.024.111.048.165.076.058.03.113.065.169.099.074.046.145.098.212.155.038.032.08.06.11.1.032.015.044.053.076.069.008.004.013.014.018.021.011.015.022.03.038.042a.084.084 0 0 1 .022.024c.014.019.026.039.046.053.01.007.016.019.023.029.021.032.041.064.066.092.028.031.048.066.069.101l.074.126a.565.565 0 0 1 .055.11c.011.033.028.063.044.094.009.018.021.036.02.057a.605.605 0 0 1 .043.119c.006.021.015.04.019.062.004.026.015.051.021.076a2.16 2.16 0 0 1 .072.545c.001.056-.006.112-.003.167-.016.113-.023.227-.052.337-.008.032-.012.065-.021.096l-.048.153c-.017.057-.043.11-.065.165-.052.13-.123.249-.197.367-.038.041-.062.093-.101.133-.015.015-.026.034-.04.05-.032.036-.06.076-.095.109-.026.025-.047.056-.078.074-.061.068-.137.12-.206.179l-.007.006c-.09.06-.176.127-.275.174-.074.035-.145.076-.222.104a4.069 4.069 0 0 0-.141.054c-.03.012-.063.019-.094.029a.68.68 0 0 1-.118.03c-.047.008-.093.026-.142.025a1.537 1.537 0 0 1-.287.031 1.593 1.593 0 0 1-.276-.009c-.043-.006-.087-.007-.13-.014-.052-.008-.104-.021-.156-.029-.1-.015-.193-.053-.288-.081-.051-.015-.098-.04-.147-.06a2.378 2.378 0 0 1-.574-.364c-.039-.034-.075-.072-.112-.107-.028-.026-.048-.058-.08-.08-.006-.004-.01-.012-.015-.018-.017-.025-.033-.049-.057-.068-.013-.01-.021-.027-.03-.042a.514.514 0 0 0-.06-.079.2.2 0 0 1-.028-.037c-.027-.037-.051-.078-.075-.118zm1.487-.909c.043-.035.081-.072.126-.101.089-.059.179-.117.28-.156.041-.016.078-.042.119-.057.075-.027.142-.067.21-.107.037-.022.073-.043.102-.075a.1.1 0 0 1 .026-.02c.037-.02.057-.058.091-.081.045-.061.093-.12.119-.193a.402.402 0 0 0-.008-.31.606.606 0 0 0-.064-.11.378.378 0 0 0-.155-.125.523.523 0 0 0-.218-.046.567.567 0 0 0-.192.029c-.004.002-.009.002-.014.002-.015-.002-.027.006-.04.012a1.791 1.791 0 0 0-.179.106c-.009.006-.02.011-.024.022-.007.016-.02.023-.033.032-.006.005-.014.009-.018.015-.025.037-.058.069-.084.105a.833.833 0 0 0-.107.202 1.079 1.079 0 0 0-.025.641c.008.03.012.062.028.09a.222.222 0 0 1 .019.053.126.126 0 0 0 .041.072zm.262-.016c-.02.012-.04.025-.061.036-.023.012-.039.031-.057.049-.005.006-.013.009-.019.014-.022.017-.05.027-.065.053-.014.024-.048.031-.057.061a.547.547 0 0 0-.085.133.385.385 0 0 0-.006.322.391.391 0 0 0 .135.17.419.419 0 0 0 .248.084.47.47 0 0 0 .236-.04c.008-.004.018-.005.027-.007a.138.138 0 0 0 .027-.008.749.749 0 0 0 .224-.168.87.87 0 0 0 .205-.358c.013-.044.017-.089.026-.133a.618.618 0 0 0 .01-.121c0-.08-.008-.159-.024-.238-.005-.022-.015-.041-.019-.063-.007-.047-.029-.089-.044-.133a.119.119 0 0 0-.013-.025c-.007-.012-.013-.013-.026-.003-.031.023-.064.045-.092.073a.207.207 0 0 1-.038.028l-.179.105a.304.304 0 0 1-.052.023.53.53 0 0 0-.077.034c-.026.014-.052.031-.08.041a.803.803 0 0 0-.144.071zm8.763-4.864l.463.786c.012.02.024.039.035.06.017.034.013.049-.02.072a.891.891 0 0 1-.052.031l-.371.218c-.118.069-.095.075-.164-.039l-.044-.074a.062.062 0 0 0-.016-.02c-.006-.005-.015-.007-.022.001a.083.083 0 0 0-.018.047.683.683 0 0 1-.129.303c-.032.045-.063.096-.117.123a.122.122 0 0 0-.033.027.398.398 0 0 1-.225.132.098.098 0 0 0-.032.013c-.088.047-.183.053-.28.06a.956.956 0 0 1-.328-.038.94.94 0 0 1-.262-.119 3.359 3.359 0 0 1-.097-.068.644.644 0 0 1-.131-.119c-.012-.016-.022-.034-.037-.047-.088-.075-.131-.18-.187-.276-.01-.017-.013-.038-.019-.057-.006-.019-.009-.039-.018-.057a.795.795 0 0 1-.065-.28.985.985 0 0 1 .064-.469c.036-.092.088-.177.146-.259.042-.059.109-.091.147-.153.086-.05.161-.122.265-.134.008-.001.017-.005.024-.008a.6.6 0 0 1 .335-.034.505.505 0 0 1 .133.031.13.13 0 0 0 .058.01c.011-.001.014-.011.011-.018a.536.536 0 0 0-.028-.053l-.069-.119c-.01-.018-.005-.033.012-.044.029-.019.057-.039.086-.057.111-.066.222-.132.334-.196.032-.019.066-.034.1-.05.017-.008.034-.003.044.015l.035.059.472.8zm-1.435.84a.515.515 0 0 0 .19.192.441.441 0 0 0 .389.058.132.132 0 0 1 .033-.008c.036-.003.065-.021.095-.037.055-.029.081-.088.131-.122a.553.553 0 0 0 .094-.338c-.004-.052-.022-.099-.033-.149a.305.305 0 0 0-.056-.124.623.623 0 0 0-.24-.201.468.468 0 0 0-.565.125.44.44 0 0 0-.076.121.545.545 0 0 0 .038.483zm4.763-2.87l.481.816c.033.055.048.063-.025.106l-.445.262-.015.008c-.039.02-.047.019-.069-.017l-.062-.104c-.007-.012-.014-.025-.023-.036a.035.035 0 0 0-.02-.012c-.012-.002-.014.009-.014.017a.687.687 0 0 1-.254.454c-.007.005-.015.01-.02.017a.439.439 0 0 1-.203.14c-.08.033-.164.071-.253.074a.643.643 0 0 1-.456-.131.43.43 0 0 1-.1-.104c-.008-.012-.015-.026-.026-.034-.052-.039-.083-.095-.115-.149l-.644-1.09c-.039-.067-.039-.068.024-.106l.43-.254.03-.017c.031-.015.048-.012.067.015.013.019.024.039.036.059l.446.757c.035.059.071.118.109.176a.553.553 0 0 0 .208.171.162.162 0 0 0 .099.017c.094-.018.194-.029.253-.122.017-.026.046-.039.063-.069a.363.363 0 0 0 .032-.25.719.719 0 0 0-.092-.239c-.162-.271-.321-.544-.481-.816-.065-.111-.066-.095.041-.159l.386-.227a.708.708 0 0 1 .061-.032c.015-.007.029-.002.038.011a210.852 210.852 0 0 0 .513.868zm-7.942 5.058l.222-.131c.034-.02.047-.028.078.012.05.064.118.096.201.084a.492.492 0 0 0 .23-.088c.039-.03.067-.071.096-.109a.105.105 0 0 0 .01-.106c-.032-.077-.075-.109-.159-.103a1.097 1.097 0 0 0-.161.024c-.117.026-.232.061-.349.08-.111.019-.22.05-.335.048a.564.564 0 0 1-.262-.058.328.328 0 0 1-.136-.114.144.144 0 0 0-.027-.033.196.196 0 0 1-.061-.101c-.004-.017-.012-.032-.019-.048-.082-.165-.055-.326.027-.481a.447.447 0 0 1 .123-.161c.023-.05.069-.074.112-.104a.175.175 0 0 0 .033-.028c.092-.099.216-.148.33-.214a.3.3 0 0 0 .129-.044c.038-.024.086-.008.123-.032.133-.015.264-.025.393.028a.59.59 0 0 1 .247.177l.049.06c.026.036.023.049-.017.075l-.03.018-.393.232c-.015.009-.029.018-.045.025-.024.012-.043.007-.061-.013-.011-.013-.02-.028-.032-.041a.181.181 0 0 0-.124-.065c-.086-.004-.166.015-.225.082-.028.032-.064.056-.078.1-.029.09.03.194.124.205a.422.422 0 0 0 .128-.004c.107-.02.213-.046.319-.069.133-.029.263-.071.4-.079a.53.53 0 0 1 .298.05.353.353 0 0 1 .102.076c.06.069.111.142.147.23.072.178.045.345-.028.512a.687.687 0 0 1-.136.183c-.027.025-.04.062-.075.081a.28.28 0 0 0-.084.06c-.054.063-.126.098-.195.139a.373.373 0 0 1-.102.045.28.28 0 0 0-.08.032c-.062.041-.134.052-.202.068a.684.684 0 0 1-.176.021.703.703 0 0 1-.242-.041.473.473 0 0 1-.218-.143c-.053-.028-.081-.079-.111-.127l-.013-.022c-.011-.023-.009-.035.015-.05.046-.029.094-.056.141-.084.034-.016.067-.035.099-.054zm9.251-6.299l-.2.118a.536.536 0 0 1-.053.028c-.015.007-.028.003-.038-.01-.017-.023-.032-.047-.055-.066-.102-.084-.24-.055-.33.023a.434.434 0 0 0-.058.063c-.062.08-.057.193.061.248.01.005.022.006.033.006a.664.664 0 0 0 .154-.009c.106-.023.212-.044.318-.071.074-.019.148-.041.224-.053a.926.926 0 0 1 .328-.011.543.543 0 0 1 .24.119c.011.009.018.022.026.034l.081.132a.58.58 0 0 1 .048.452c-.025.105-.089.188-.147.275-.055.04-.086.106-.151.137a.167.167 0 0 0-.048.037.79.79 0 0 1-.306.185.445.445 0 0 0-.071.03.846.846 0 0 1-.437.084.636.636 0 0 1-.506-.319c-.018-.034-.015-.05.02-.071.145-.087.291-.172.437-.258l.015-.008c.033-.014.053-.012.074.02.041.061.1.083.169.081.099-.002.248-.055.31-.141.029-.04.06-.074.062-.127a.15.15 0 0 0-.085-.126.24.24 0 0 0-.127-.009c-.081.015-.161.037-.243.052-.089.016-.176.045-.267.054-.042.004-.082.019-.125.026-.095.015-.197.02-.286.008a.449.449 0 0 1-.311-.193.585.585 0 0 1-.116-.436.603.603 0 0 1 .112-.264c.034-.048.074-.093.112-.137.013-.015.031-.025.047-.037.027-.02.057-.036.075-.069.009-.016.03-.026.047-.037.058-.036.117-.072.177-.107a.329.329 0 0 1 .134-.055.097.097 0 0 0 .04-.015.6.6 0 0 1 .22-.059c.051-.006.1-.01.151-.009a.573.573 0 0 1 .334.112.458.458 0 0 1 .164.182c.011.024.009.034-.014.05l-.015.009-.224.132zm-4.277 3.02l-.227-.386c-.01-.017-.02-.035-.031-.051-.019-.027-.037-.033-.066-.018-.045.024-.089.052-.134.077-.02.011-.039.024-.06.033-.03.013-.048.007-.065-.02l-.07-.118-.118-.2c-.022-.039-.019-.052.021-.076.046-.029.094-.056.141-.083l.051-.032c.017-.011.02-.029.013-.045a.395.395 0 0 0-.032-.061l-.223-.378c-.043-.073-.042-.074.031-.117l.4-.236a.505.505 0 0 1 .045-.025.033.033 0 0 1 .039.009.435.435 0 0 1 .038.057l.219.371c.056.096.053.082.135.035l.23-.135a.708.708 0 0 1 .061-.032c.014-.006.028-.003.038.011l.014.022c.061.104.123.207.183.312.02.035.018.05-.012.073-.016.012-.033.022-.051.033l-.222.131-.051.032c-.016.011-.02.028-.013.045.005.013.013.026.02.038l.35.593c.029.05.068.092.11.131a.213.213 0 0 0 .081.046c.029.01.058.011.091.002a.658.658 0 0 0 .251-.128l.021-.015c.022-.014.038-.011.052.007a85.584 85.584 0 0 0 .221.378c.011.024.008.038-.013.052-.125.081-.23.189-.367.253-.031.015-.059.034-.095.038-.019.002-.038.012-.056.02a.48.48 0 0 1-.528-.055.755.755 0 0 1-.211-.232l-.211-.356c0-.001 0-.001 0 0zm-3.477 2.042l-.223-.378c-.012-.02-.023-.04-.036-.059-.015-.022-.036-.027-.06-.015-.023.011-.045.025-.067.038-.04.023-.079.048-.119.069-.039.02-.057.015-.078-.021a31.774 31.774 0 0 1-.184-.311c-.025-.044-.022-.054.024-.082l.163-.097c.047-.029.051-.04.024-.09-.02-.038-.043-.074-.065-.111a43.476 43.476 0 0 1-.17-.289.708.708 0 0 1-.032-.061c-.006-.014-.003-.028.011-.038l.022-.014.445-.262c.038-.022.054-.019.079.017.012.016.021.034.031.051l.201.341.031.052c.026.039.037.042.076.019a17.6 17.6 0 0 0 .26-.153c.101-.06.092-.051.142.034l.157.267c.026.044.024.054-.017.085-.018.014-.038.025-.058.037l-.207.122-.051.032c-.016.012-.018.029-.012.046.006.016.016.031.024.045l.332.563a.62.62 0 0 0 .131.157.175.175 0 0 0 .173.039.654.654 0 0 0 .243-.125.127.127 0 0 1 .029-.018c.014-.006.029-.004.039.008a.271.271 0 0 1 .024.035l.183.311c.006.01.012.02.016.03.012.027.008.042-.015.059l-.05.034c-.023.017-.048.032-.068.052-.081.08-.183.127-.279.183a.157.157 0 0 1-.049.016.294.294 0 0 0-.072.026.48.48 0 0 1-.521-.054.734.734 0 0 1-.208-.225l-.218-.371-.001.006z"/></svg>