<svg xmlns="http://www.w3.org/2000/svg" xmlns:xlink="http://www.w3.org/1999/xlink" width="729" height="843" viewBox="55.445 172.775 729 843"><path fill="#21B869" d="M749.043 568.92c-1.807-32.505-4.092-65-7.679-97.361a1186.552 1186.552 0 0 0-2.946-24.444 214.84 214.84 0 0 0-.185-1.355c-.271-1.936-.528-3.875-.824-5.806-.554-3.612-1.102-7.225-1.637-10.839a4919.365 4919.365 0 0 1-3.466-23.881l-34.669-60.021c-37.117-16.793-73.869-34.407-109.103-54.862-27.376-15.894-53.96-33.082-80.958-49.597a1527.63 1527.63 0 0 0-16.891-10.186h-104.24c-4.815 4.103-11.156 6.613-18.002 7.209-.867.076-1.735.154-2.602.24-2.53.433-5.057.901-7.555 1.495-4.595 1.093-9.151 2.366-13.606 3.943a185.951 185.951 0 0 0-4.678 1.73c-1.353.598-3.969 1.735-4.857 2.165-4.273 2.068-8.488 4.259-12.598 6.638-8.757 5.068-17.193 10.667-25.351 16.65a428.176 428.176 0 0 0-6.425 4.79c-.203.154-.482.37-.787.606-.447.35-.895.699-1.341 1.05a970.254 970.254 0 0 0-11.17 8.958c-18.774 15.279-37.209 30.832-55.208 47.02-18.75 16.864-37.412 33.876-57.134 49.611-21.67 17.288-44.398 33.281-68.794 45.491l-6.83 11.825c1.157 27.65.412 55.344-.496 82.998-1.056 32.135-1.689 64.208-1.448 96.362.246 32.857.781 65.713.867 98.571.029 10.919.942 21.728 1.278 32.616l32.548 56.451c1.781.102 3.576.355 5.366.755 12.189 2.721 23.307 9.88 33.166 17.291 4.759 3.577 9.447 7.248 14.146 10.905-.047-.056 3.93 2.978 5.151 3.834 2.433 1.706 4.972 3.268 7.474 4.87 24.432 15.652 49.181 30.799 73.719 46.28 35.061 22.121 71.727 43.368 104.598 69.063h140.991c32.989-25.483 66.739-49.978 101.51-72.986 26.218-17.35 53.035-33.851 80.782-48.652 6.153-3.282 12.049-7.151 18.306-10.257l48.959-84.914c-2.466-58.086-4.155-116.207-7.381-174.256z"/><defs><path id="a" d="M221.654 250.298L22.363 594.946l199.291 345.307h398.582l199.291-345.307-199.291-344.648z"/></defs><clipPath id="b"><use xlink:href="#a" overflow="visible"/></clipPath><g clip-path="url(#b)"><path fill="#1CDEE8" d="M457.042 983.772c1.024-.405 5.418-2.229 6.47-2.644a135.358 135.358 0 0 0 4.014-1.874c4.697-2.301 9.358-4.722 13.775-7.531a128.196 128.196 0 0 0 5.01-3.325c.847-.689 2.215-1.799 2.768-2.304 3.543-3.242 6.698-7.224 10.136-10.835v-53.813c0-9.209 7.235-16.443 16.443-16.443h1.973c5.92 0 11.182 3.289 14.47 8.551 8.306 13.55 21.263 23.892 36.741 28.539 17.152-15.402 35.138-29.68 53.727-43.507 9.319-6.933 18.722-13.752 28.141-20.549-1.897-33.476-29.37-60.512-63.358-60.512-23.021 0-43.41 12.497-54.592 30.913-3.289 5.262-8.551 8.551-14.47 8.551h-1.974c-9.208 0-16.443-7.235-16.443-16.443V679.135H362.406c-11.839 0-21.704 9.865-21.704 21.705 0 7.234 3.946 14.47 9.865 18.416 19.074 12.497 31.571 35.518 28.94 60.511-3.289 29.598-26.967 53.275-55.907 56.564-38.147 3.946-71.034-25.651-71.034-63.142 0-22.362 11.839-42.095 28.94-53.276 6.577-3.946 10.523-11.181 10.523-18.416 0-11.839-9.866-21.705-21.705-21.705H101.078c1.068 6.817 1.901 13.68 2.719 20.52 3.358 28.074 4.307 56.342 4.883 84.589.129 6.31.24 12.622.355 18.935 18.907 10.95 38.146 21.288 57.56 31.368 53.299 27.673 107.461 54.265 156.477 89.258 9.528 6.802 15.063 17.609 12.894 28.589 26.04 15.329 52.152 30.529 78.424 45.448 8.983-2.774 17.926-5.676 26.792-8.823 5.315-1.887 10.614-3.829 15.86-5.904z"/></g><defs><path id="c" d="M221.654 250.298L22.363 594.946l199.291 345.307h398.582l199.291-345.307-199.291-344.648z"/></defs><clipPath id="d"><use xlink:href="#c" overflow="visible"/></clipPath><g opacity=".13" clip-path="url(#d)"><path d="M756.445 401.111c0-3.945.889-7.711 2.464-11.116-54.594-27.821-110.687-53.618-159.144-90.872-7.956-5.146-15.669-10.84-22.631-17.254H437.388V518.65c0 9.208-7.235 16.443-16.443 16.443h-1.974c-5.919 0-11.181-3.289-14.47-8.551-12.497-20.39-35.517-33.544-61.826-30.913-29.598 3.289-53.275 26.967-56.564 55.906-3.946 38.148 25.651 71.035 63.142 71.035 23.021 0 43.41-12.497 54.592-30.913 3.288-5.262 8.55-8.551 14.47-8.551h2.631c9.208 0 16.443 7.235 16.443 16.443v140.753h136.807c11.839 0 21.705-9.865 21.705-21.705 0-7.234-3.946-14.47-9.866-18.416-19.073-12.497-31.57-35.518-28.939-60.511 3.289-29.598 26.967-53.275 55.906-56.564 38.148-3.946 71.035 25.651 71.035 63.142 0 22.362-11.84 42.095-28.94 53.276-6.577 3.946-10.523 11.181-10.523 18.416 0 11.839 9.866 21.705 21.705 21.705h90.168V401.111z"/></g><g><defs><path id="e" d="M437.039 218.381L72.557 603.862l187.491 301.485 338.983-1.5 159.081-234.738-12.088-264.737z"/></defs><clipPath id="f"><use xlink:href="#e" overflow="visible"/></clipPath><g clip-path="url(#f)"><path fill="#FFF" d="M717.579 684.397c-9.208 0-17.101-7.235-17.101-17.101 0-5.92 2.631-11.182 7.893-14.471 19.731-12.496 31.57-34.201 31.57-57.88 0-38.147-30.913-69.061-69.062-69.061-2.631 0-5.262 0-7.893.657-31.57 3.289-57.222 28.94-60.511 60.511-2.631 26.31 9.208 51.303 30.913 65.115 4.604 3.288 7.893 8.55 7.893 14.47 0 9.208-7.234 17.101-17.101 17.101H492.637V548.905c0-11.839-9.866-21.704-21.705-21.704h-1.974c-7.893 0-14.47 3.946-18.416 10.523-10.523 17.759-29.598 28.282-49.987 28.282-16.443 0-32.229-7.235-43.41-19.732-11.181-12.496-16.442-28.939-14.47-46.04 3.289-26.967 24.993-48.672 51.96-51.303 1.974 0 4.604-.658 6.578-.658 20.389 0 39.463 11.182 50.645 28.282 3.946 6.577 11.182 10.523 18.416 10.523h1.974c11.839 0 21.705-9.865 21.705-21.705V235.828h353.199v448.569H717.579z"/><path fill="#257175" d="M841.889 241.09v438.703H718.237a11.79 11.79 0 0 1-11.839-11.839c0-3.946 1.974-7.893 5.262-9.866 21.048-13.812 33.544-36.832 33.544-61.826 0-40.779-32.886-73.665-73.665-73.665-2.631 0-5.262 0-8.551.657-34.201 3.946-61.168 30.913-65.114 65.115-3.289 28.282 9.865 54.592 33.544 70.377 3.288 1.973 5.262 5.919 5.262 9.865a11.79 11.79 0 0 1-11.839 11.84H498.556V548.905c0-14.47-11.839-26.309-26.309-26.309h-1.974c-9.208 0-17.758 5.262-23.02 13.154-9.866 16.443-26.967 26.31-46.041 26.31-15.128 0-29.598-6.577-40.122-17.759-10.523-11.182-15.127-26.31-13.154-42.095 2.631-24.336 22.363-44.726 47.356-47.356h5.92c18.416 0 36.175 9.866 46.041 26.31 4.604 7.893 13.812 13.154 23.02 13.154h1.974c14.47 0 26.309-11.839 26.309-26.309V241.09h343.333m9.866-10.524H488.691v236.781c0 9.208-7.235 16.443-16.443 16.443h-1.974c-5.919 0-11.181-3.289-14.47-8.551-11.181-18.416-31.57-30.913-54.591-30.913-2.631 0-4.604 0-7.235.658-29.598 3.288-53.275 26.966-56.564 55.906-3.946 38.148 25.651 71.034 63.142 71.034 23.021 0 43.41-12.496 54.592-30.913 3.288-5.262 8.55-8.55 14.47-8.55h1.973c9.209 0 16.443 7.234 16.443 16.442v140.754H624.84c11.839 0 21.705-9.866 21.705-21.705 0-7.235-3.947-14.47-9.866-18.416-19.074-12.497-31.571-35.518-28.94-60.511 3.289-29.598 26.967-53.276 55.907-56.564 2.631 0 4.604-.658 7.234-.658 34.86 0 63.8 28.282 63.8 63.8 0 22.362-11.839 42.095-28.939 53.275-6.578 3.946-10.524 11.182-10.524 18.417 0 11.839 9.866 21.704 21.705 21.704h134.177V230.566h.656z"/></g></g><g><path fill="#0C7E47" d="M118.062 420.32l303.212-174.955L724.486 420.32v349.91L421.274 945.185 118.062 770.23V420.32m-61.826-35.518v420.945l365.038 210.472 364.38-210.472V384.802L421.274 174.33 56.236 384.802z"/><path d="M133.847 429.528l287.427-165.747 286.769 165.747v331.494L421.274 926.769 133.847 761.022V429.528m-15.128-9.208v349.91l302.555 174.955L723.827 770.23V420.977L421.274 246.022 118.719 420.32z" opacity=".13"/></g></svg>