<?xml version="1.0" encoding="utf-8"?>
<!-- Generator: Adobe Illustrator 16.0.0, SVG Export Plug-In . SVG Version: 6.00 Build 0)  -->
<!DOCTYPE svg PUBLIC "-//W3C//DTD SVG 1.1//EN" "http://www.w3.org/Graphics/SVG/1.1/DTD/svg11.dtd">
<svg version="1.1" id="Layer_16" xmlns="http://www.w3.org/2000/svg" xmlns:xlink="http://www.w3.org/1999/xlink" x="0px" y="0px"
	 width="111.125px" height="128.667px" viewBox="8.625 -8.695 111.125 128.667"
	 enable-background="new 8.625 -8.695 111.125 128.667" xml:space="preserve">
<g>
	<g>
		<polygon fill="#2088EF" points="119.744,87.43 64.318,119.43 8.894,87.43 8.894,23.431 64.318,-8.569 119.744,23.431 		"/>
		<polygon fill="#7CC8FC" points="110.82,29.16 110.82,82.29 100.39,88.31 100.15,88.43 100.02,88.49 99.91,88.55 81.08,99.43 
			80.53,99.74 79.88,100.12 64.77,108.85 42.47,95.96 42.37,95.91 41.44,95.36 18.82,82.29 18.82,29.16 64.82,2.6 		"/>
		<path fill="#2088EF" d="M54.731,24.213L41.63,22.309l-5.859-11.872l-5.859,11.872l-8.784,1.276
			c-0.187,0.353-0.391,0.698-0.613,1.033c-0.011,0.092-0.03,0.185-0.06,0.275c-0.226,0.703-0.523,1.372-0.905,1.988l6.741,6.571
			l-2.238,13.048l11.718-6.161l11.718,6.161l-2.238-13.048L54.731,24.213z"/>
		<polygon fill="#2088EF" points="93.945,17.136 98.805,26.98 109.668,28.559 101.807,36.222 103.662,47.042 93.945,41.933 
			84.23,47.042 86.085,36.222 78.225,28.559 89.087,26.98 		"/>
		<polygon fill="#2088EF" points="92.61,64.302 97.47,74.146 108.333,75.725 100.472,83.388 102.327,94.208 92.61,89.099 
			82.896,94.208 84.75,83.388 76.89,75.725 87.752,74.146 		"/>
		<polygon fill="#2088EF" points="31.568,70.472 34.585,76.584 41.331,77.564 36.45,82.323 37.602,89.04 31.568,85.868 
			25.538,89.04 26.688,82.323 21.809,77.564 28.553,76.584 		"/>
		<path fill="#344AA5" d="M102.518,62.029c0.045-0.709-0.14-1.474-0.668-2.241c-0.656-0.95-1.242-1.69-2.051-2.218
			c-1.943-1.914-4.089-3.545-6.396-5.07c-0.324-0.658-0.869-1.19-1.658-1.42c-0.624-0.183-1.26-0.354-1.891-0.536
			c-0.834-0.573-1.789-0.681-2.946-0.696c-0.019,0-0.033,0.004-0.052,0.004c-0.162-0.066-0.318-0.136-0.485-0.202
			c-3.298-1.292-6.634-1.576-9.994-0.952c-0.067,0.012-0.14,0.012-0.205,0.024l0.003,0.013c-0.008,0.001-0.017,0.003-0.025,0.005
			c-0.289-0.188-0.578-0.371-0.867-0.554c-0.182-0.667-0.442-1.315-0.693-1.95c-0.794-1.998-2.227-3.746-3.204-5.674
			c-0.312-0.615-0.642-1.22-0.983-1.817c-0.092-2.745-0.652-5.177,0.091-8.035c0.846-3.258,1.489-6.342,5.39-6.913
			c1.063-0.156,1.771-0.708,2.178-1.421c0.614,0.055,1.229,0.097,1.846,0.123c0.473,0.074,0.947,0.129,1.429,0.143
			c0.11,0.003,0.198-0.027,0.274-0.069c0.033,0.003,0.062,0.011,0.096,0.013c0.07,0.005,0.14-0.011,0.206-0.033
			c0.065,0.009,0.128,0.007,0.188-0.007c0.076,0.016,0.152,0.02,0.228,0.007c0.387,0.109,0.881-0.187,0.741-0.66
			c-0.017-0.052-0.039-0.095-0.058-0.144c0.003,0,0.003-0.001,0.005-0.001c-0.004-0.006-0.008-0.011-0.011-0.017
			c-0.175-0.462-0.472-0.792-0.851-0.989c-0.162-0.135-0.332-0.263-0.51-0.384c-0.039-0.143-0.135-0.279-0.305-0.381
			c-0.047-0.028-0.094-0.054-0.141-0.081c0.015-0.294-0.15-0.603-0.531-0.688c-0.534-0.119-1.063-0.229-1.574-0.393
			c-0.404-0.213-0.818-0.407-1.246-0.578c-0.015-0.009-0.029-0.015-0.043-0.023c-0.002,0.002-0.002,0.003-0.003,0.005
			c-0.051-0.021-0.1-0.044-0.149-0.063c-0.151-0.058-0.277-0.046-0.385-0.005c-0.582-0.463-1.354-0.717-2.31-0.583
			c-0.054,0.007-0.103,0.02-0.155,0.027c-0.765-0.514-1.748-0.722-2.875-0.349c-0.066,0.023-0.142,0.036-0.211,0.059
			c-0.518-0.14-1.092-0.176-1.729-0.038c-0.166,0.036-0.317,0.082-0.478,0.123c-0.444-0.023-0.92,0.037-1.422,0.216
			c-0.636,0.228-1.263,0.441-1.883,0.673c-0.019,0.007-0.037,0.008-0.056,0.014c-0.693,0.23-1.315,0.562-1.978,0.874
			c-0.284,0.148-0.528,0.322-0.743,0.513c-0.737,0.197-1.275,0.631-1.625,1.191c-0.407,0.248-0.807,0.519-1.19,0.833
			c-1.321,1.088-2.311,2.83-3.263,4.237c-1.085,1.604-2.154,3.198-3.061,4.911c-0.418,0.791-0.693,1.628-0.918,2.483
			c-1.107,0.889-1.617,2.37-1.255,3.71c-0.061,0.21-0.138,0.413-0.191,0.627c-0.067,0.172-0.125,0.583-0.185,0.757
			c-1.203,2.304-2.422,4.502-2.458,7.502c-0.002,0-0.004,0-0.007,0c0.074,0,0.078,0.545,0.092,0.938
			c-0.676,2.054-1.249,4.027-1.357,6.097c-6.133-2.202-13.875,1.905-18.463,5.704c-0.609,0.504-0.983,1.065-1.177,1.681
			c-0.484,0.498-0.956,0.992-1.364,1.562c-0.08,0.11-0.128,0.229-0.191,0.347c-0.563,0.447-0.983,1.063-1.147,1.82
			c-0.115,0.084-0.229,0.166-0.345,0.246c0.012,0.019,0.024,0.033,0.036,0.052c-0.475,0.483-0.762,1.052-0.878,1.646
			c-0.172,0.217-0.32,0.45-0.424,0.708c-0.568,0.947-0.653,2.651-0.043,3.67c0.419,0.699,1.111,0.745,1.901,0.942
			c0.583,0.146,1.133,0.109,1.644-0.062c-0.022,0.015-0.045,0.027-0.068,0.041c0.118-0.032,0.218-0.096,0.33-0.142
			c0.03-0.013,0.061-0.025,0.091-0.039c0.215-0.096,0.416-0.215,0.604-0.355c0.199-0.124,0.367-0.276,0.521-0.441
			c0.184-0.088,0.362-0.191,0.53-0.318c0.248-0.187,0.499-0.375,0.751-0.563c0.188-0.006,0.379-0.031,0.573-0.08
			c0.448-0.038,0.892-0.188,1.303-0.487c0.309-0.225,0.618-0.449,0.927-0.673c0.602-0.438,0.943-0.994,1.091-1.59
			c3.827-2.651,8.03-5.074,12.322-5.905c2.724-0.526,5.626-0.592,8.389-0.229c0.158,0.132,0.316,0.264,0.501,0.366
			c0.515,0.282,1.065,0.417,1.653,0.404c0.293-0.058,0.587-0.115,0.88-0.174c2.019,0.524,3.889,1.15,5.997,0.925
			c0.261,0.207,0.522,0.408,0.784,0.604l-0.006,0.012c0.029,0.016,0.057,0.031,0.084,0.047c2.537,1.882,5.226,3.243,8.191,4.618
			c0.67,0.31,1.328,0.663,1.986,1.022c5.838,4.028,14.324,7.979,21.63,6.61c4.083-0.766,6.067-3.164,6.979-6.994
			C104.156,65.632,103.518,63.789,102.518,62.029z"/>
		<path fill="#FFD815" d="M51.453,65.395c0.003-0.023,0.001-0.046,0.003-0.069c0.604-0.291,1.25-0.506,1.838-0.833
			c0.364-0.202,0.55-0.519,0.606-0.859c0.236-0.011,0.464-0.028,0.675-0.058c1.905-0.268,1.244-3.18-0.651-2.914
			c-2.343,0.327-4.84-0.134-7.232,0.112c-1.145,0.118-3.599,0.338-4.307,1.385c-2.069,3.056-5.448,6.392-5.61,10.242
			c-0.013,0.31,0.06,0.559,0.165,0.779c-0.032,0.107-0.055,0.223-0.06,0.351c0.015,0.407-0.019,0.812-0.1,1.208
			c-0.089,0.558,0.103,1.018,0.421,1.337c0.077,0.762,0.345,1.457,0.788,2.1c-0.418,0.72-0.331,1.283,0.285,1.684
			c0.329,0.247,0.69,0.309,1.021,0.247c0.48,0.74,1.136,1.41,2.107,2.102c0.246,0.175,0.492,0.272,0.729,0.32
			c0.191,0.156,0.382,0.313,0.572,0.468c0.077,0.139,0.178,0.271,0.322,0.389c0.848,0.689,1.479,1.163,2.396,1.762
			c0.076,0.05,0.153,0.085,0.23,0.117c1.783,1.33,3.428,2.909,3.803,5.186c0.005,0.032,0.018,0.062,0.025,0.092
			c-0.036,0.632,0.466,1.352,1.147,1.352c0.461,0,0.875-0.193,1.135-0.529c0.341-0.21,0.576-0.566,0.556-1.071
			c-0.015-0.373-0.063-0.732-0.132-1.082c0.234-0.198,0.489-0.393,0.709-0.605c0.087,0.001,0.174,0.002,0.261,0.002
			c0.042-0.175,0.096-0.347,0.16-0.516c0.015-0.041,0.016-0.083,0.028-0.125c0.213-0.503,0.37-1.011,0.553-1.518
			c0.41-0.245,0.706-0.654,0.71-1.142c0.182-0.194,0.317-0.436,0.339-0.739c0.046-0.636-0.454-1.317-1.119-1.361
			c-0.121-0.058-0.249-0.103-0.394-0.159c-0.003-0.001-0.005-0.001-0.008-0.002c-0.166-0.171-0.346-0.337-0.562-0.508
			c-0.028-0.022-0.059-0.033-0.088-0.054c-0.01-0.239-0.087-0.484-0.264-0.72c-0.081-0.107-0.168-0.207-0.256-0.308l0.007-0.007
			c-0.015-0.018-0.034-0.027-0.049-0.045c-0.104-0.117-0.207-0.237-0.302-0.362c-0.094-0.124-0.21-0.214-0.336-0.284
			c-0.296-1.305-0.685-2.625-1.1-3.922c0.078-0.174,0.131-0.355,0.135-0.551c0-0.075-0.015-0.146-0.025-0.22
			c0.018,0.058,0.035,0.114,0.052,0.171c0.032-0.264,0.032-0.527-0.001-0.793c-0.013-0.213-0.085-0.407-0.193-0.581
			c0.148-1.061,0.193-2.146,0.297-3.201C50.946,69.566,51.148,67.475,51.453,65.395z"/>
		<path fill="#FFD815" d="M83.256,93.522c0.123-0.145,0.229-0.317,0.303-0.534c0.959-2.777-0.461-5.543-2.147-7.718
			c-0.041-0.053-0.089-0.086-0.136-0.126c-0.16-0.438-0.422-0.854-0.719-1.207c-0.326-0.805-0.761-1.563-1.289-2.24
			c-0.008-0.064-0.018-0.132-0.037-0.195c-0.164-0.518-0.234-1.04-0.271-1.571c0.196-0.47,0.242-0.987,0.185-1.547
			c-0.006-0.061-0.022-0.114-0.035-0.171c0.23-0.647,0.451-1.295,0.619-1.964c0.078-0.316,0.053-0.635-0.047-0.919
			c0.092-0.077,0.182-0.162,0.264-0.266c0.211-0.258,0.322-0.579,0.33-0.902c0.086-0.022,0.166-0.035,0.252-0.063
			c0.037-0.012,0.063-0.042,0.097-0.058c0.044,0.005,0.085,0.018,0.131,0.018c1.233,0,1.584-1.161,1.19-1.893
			c-0.156-0.294-0.428-0.519-0.745-0.618c-0.197-0.063-0.396-0.061-0.591-0.026c-0.271-0.146-0.588-0.212-0.912-0.161
			c-0.073,0.013-0.149,0.014-0.225,0.016c-0.242-0.449-0.685-0.801-1.232-0.917c-0.166-0.035-0.332-0.04-0.491-0.023
			c-0.042-0.031-0.079-0.064-0.121-0.096c-0.155-0.217-0.387-0.369-0.655-0.449c-0.506-0.322-1.023-0.617-1.5-0.906
			c-0.945-0.571-2.313-1.767-3.507-1.242c-0.456,0.198-0.709,0.725-0.622,1.204c0.037,0.197,0.12,0.373,0.25,0.525
			c0.094,0.109,0.75,0.363,0.76,0.386c-0.56-0.089-0.537,0.017,0.066,0.315c0.048,0.034,0.104,0.061,0.154,0.092
			c-0.424,0.523-0.45,1.321,0.007,1.847c0.026,0.031,0.062,0.055,0.088,0.084c0.162,0.815,0.453,1.584,0.64,2.402
			c-0.137,0.509-0.271,1.018-0.379,1.528c-0.158,0.067-0.307,0.172-0.439,0.319c-0.028,0.031-0.059,0.063-0.086,0.097
			c-0.07,0.079-0.129,0.167-0.18,0.258c-0.006-0.006-0.013-0.011-0.019-0.016c-0.238,0.353-0.392,0.697-0.521,1.068
			c-0.137,0.079-0.266,0.175-0.373,0.316c-0.638,0.828-1.043,1.516-1.35,2.505c-0.086,0.278-0.088,0.528-0.031,0.749
			c-0.097,0.336-0.172,0.673-0.224,1.011c-0.175,0.223-0.29,0.513-0.308,0.875c-0.068,1.622,0.021,3.437,1.233,4.475
			c0.063,0.144,0.146,0.284,0.263,0.421c0.164,0.189,0.338,0.359,0.516,0.521c0.096,0.239,0.263,0.467,0.529,0.657
			c0.19,0.153,0.393,0.29,0.594,0.429c0.652,0.613,1.339,1.149,2.15,1.544c0.215,0.174,0.438,0.337,0.666,0.492
			c0.072,0.188,0.18,0.356,0.322,0.479c0.844,0.721,1.742,1.141,2.862,1.206c0.028,0.002,0.049-0.01,0.075-0.009
			c0.111,0.15,0.229,0.299,0.363,0.448c0.412,0.456,0.976,0.503,1.465,0.32c0.174,0.294,0.306,0.596,0.363,0.904
			c0.334,1.769,3.018,1.385,2.766-0.409C83.505,94.323,83.398,93.905,83.256,93.522z"/>
		<path fill="#F9DC8A" d="M71.477,73.918c0.232-0.259,0.375-0.602,0.353-1.03c-0.037-1.323-0.179-2.637-0.376-3.944
			c0.406-0.483,0.509-1.14,0.234-1.782c-0.03-0.07-0.061-0.142-0.09-0.211c-0.031-0.717-0.486-1.361-1.445-1.373
			c-2.639,0.069-4.37-2.656-7.043-2.813c-1.917-0.112-5.623-1.724-7.406-0.521c-1.421,0.958-2.456,1.866-3.191,2.81
			c-0.96-0.287-1.717,0.747-1.613,1.617c0.101,0.29-0.31,0.729-0.164,0.996c-0.431,1.652-0.408,3.482,0.128,5.969
			c-0.241,0.226-0.154,0.623-0.159,1.075c-0.004,0.384,0.04,0.639,0.031,1.021c-0.012,0.091,0.031,0.165,0.031,0.264L51,77.214
			c0,0.486-0.265,1.388,0.063,1.622c0.099,0.837,0.821,1.105,1.214,1.916c0.722,1.482,2.729,2.884,3.893,3.96
			c0.084,0.078-0.067,0.142,0.021,0.193C56.036,85.915,56,86.861,56,87.813v0.032c1,0.571,0.246,1.139,0.146,1.703
			c-0.041,0.361,0.166,0.667,0.322,0.916c-0.114,0.616,0.158,1.306,0.856,1.709c0.23,0.134,0.57,0.269,0.845,0.429
			c0.091,0.126,0.212,0.245,0.353,0.345c0.145,0.103,0.297,0.203,0.441,0.307c0.575,0.406,1.182,0.361,1.646,0.078
			c0.311-0.002,0.593-0.03,0.844-0.084c1.47,0.372,2.713-0.076,4.115-0.751c2.236-1.076,1.142-4.748,1.123-6.439
			c-0.004-0.343-0.084-0.629-0.209-0.87c0.283-0.145,0.529-0.371,0.703-0.693c0.239-0.452,0.49-0.897,0.734-1.347
			c0.395-0.161,0.725-0.467,0.875-0.943c0.033-0.104,0.057-0.19,0.084-0.284c0.025-0.047,0.042-0.104,0.064-0.151
			c0.729-0.664,1.146-2.008,1.47-2.76c0.065-0.154,0.095-0.306,0.101-0.454c0.426-0.479,0.658-0.908,1-1.802
			c0.021-0.059,0.031-0.113,0.047-0.17c0.125-0.276,0.152-0.561,0.101-0.833c0.043-0.188,0.071-0.371,0.073-0.545
			C71.736,75.058,71.629,74.535,71.477,73.918z"/>
		<path fill="#F24179" d="M80.53,99.74c-0.011-0.3-0.13-0.609-0.33-0.869c0.06-0.431,0.069-0.83,0.04-1.2
			c0.02-0.99-0.11-1.771-0.73-2.51c0-0.521-0.22-1.051-0.649-1.36c-0.221-0.17-0.5-0.28-0.841-0.29C78.01,93.5,78,93.49,77.99,93.49
			c-0.42-0.22-0.84-0.39-1.29-0.399c-0.37-0.21-0.771-0.36-1.19-0.42c-0.05-0.01-0.109,0-0.16,0.01c-0.51-0.22-1.02-0.43-1.52-0.64
			c-0.57-0.771-1.64-1.82-2.68-1.73c-0.141-0.09-0.29-0.17-0.44-0.24c-0.28-0.12-0.56-0.199-0.84-0.239
			c-0.48-0.341-1.14-0.381-1.68-0.051c-0.21,0.011-0.421,0.021-0.641,0.03c-0.26,0-0.55,0.19-0.6,0.47
			c-0.07,0.45-0.03,0.73,0.18,1.08c-0.08,0.21-0.14,0.431-0.21,0.641c-0.229,0.14-0.45,0.279-0.66,0.439
			c-0.109-0.01-0.229,0.01-0.359,0.09c-0.07,0.04-0.131,0.08-0.2,0.131c-0.01,0.01-0.021,0.02-0.03,0.02
			c-0.229,0.18-0.5,0.37-0.8,0.57c-0.46,0.16-0.93,0.34-1.38,0.55c-0.1-0.12-0.24-0.2-0.41-0.2c-1.6,0.08-2.97,0.28-4.54-0.21
			c-0.58-0.18-1.12-0.38-1.66-0.59c-0.03-0.04-0.07-0.07-0.09-0.101c-0.1-0.14-0.21-0.239-0.32-0.329
			c-0.01-0.15-0.04-0.29-0.09-0.44c-0.04-0.12-0.11-0.21-0.19-0.28c-0.09-0.45-0.1-0.93-0.11-1.38c0-0.58-0.61-0.729-0.98-0.41
			c-0.36-0.29-0.83-0.38-1.35-0.08c-0.63,0.37-1.17,0.881-1.59,1.48c-0.88-0.14-1.9,0.5-1.87,1.62c0.01-0.021,0.02-0.04,0.04-0.061
			c-0.1,0.221-0.13,0.42-0.13,0.62c-0.46,0.221-0.86,0.63-1.19,0.98c-0.1,0.1-0.24,0.25-0.39,0.42c0.34-0.9,0.57-0.91,0.66-1.43
			c0.87-0.801,0.58-2.69-0.83-2.9c-0.56-0.08-0.86-0.061-1.41,0.08v0.01c-0.02,0-0.04,0-0.06,0.01c-0.18,0.051-0.34,0.13-0.47,0.25
			c-0.22,0.09-0.44,0.181-0.65,0.29c-0.11,0.03-0.22,0.07-0.32,0.12c-0.54-0.17-1.12-0.05-1.51,0.58
			c-0.79,1.25-1.55,2.59-1.66,4.061l0.1,0.05l22.299,12.89l15.11-8.729L80.53,99.74z"/>
		<path fill="#D1AE19" d="M81.799,72.381c-0.045-0.028-0.093-0.045-0.139-0.071c0.001-0.002,0.001-0.003,0.002-0.005
			c-0.014-0.005-0.027-0.011-0.041-0.016c-0.577-0.316-1.186-0.477-1.79-0.718c-0.003-0.002-0.006-0.004-0.011-0.006
			c-0.329-0.276-0.686-0.51-1.055-0.719c-0.021-0.121-0.088-0.237-0.22-0.329c-0.808-0.565-1.685-0.78-2.601-1.113
			c-0.201-0.072-0.379-0.06-0.52,0.007c-0.064-0.036-0.131-0.072-0.195-0.11c-0.047-0.065-0.104-0.127-0.183-0.173
			c-0.08-0.048-0.159-0.098-0.239-0.146c-0.024-0.025-0.037-0.056-0.07-0.081c-0.192-0.146-0.383-0.294-0.568-0.447
			c-0.146-0.117-0.314-0.15-0.477-0.134c-0.301-0.167-0.646-0.264-0.909-0.228c-0.19,0.026-0.343,0.239-0.253,0.427
			c0.027,0.059,0.085,0.11,0.126,0.167c-0.104,0.2-0.122,0.452,0.004,0.67c0.121,0.208,0.228,0.316,0.409,0.476
			c0.033,0.026,0.068,0.045,0.104,0.064c-0.103,0.036-0.207,0.071-0.298,0.135c-0.189,0.135-0.145,0.479,0.051,0.583
			c1.034,0.562,2.26,0.933,3.34,1.422c0.92,0.416,1.75,1.022,2.566,1.605c0.514,0.365,1.096,1.012,1.777,0.888
			c0.521-0.095,0.726-0.826,0.394-1.173c0.069,0.023,0.138,0.052,0.207,0.072C81.829,73.621,82.416,72.768,81.799,72.381z"/>
		<path fill="#D1AE19" d="M55.56,60.807c-0.104-0.008-0.76,0.033-0.864,0.026c-0.233-0.158-0.518-0.212-0.877-0.063
			c-0.014,0.006-0.026,0.01-0.04,0.016c-0.452-0.023-0.902-0.059-1.355-0.068c-0.184-0.004-0.328,0.053-0.44,0.139
			c-0.027-0.004-0.054-0.009-0.081-0.012c-0.093-0.112-0.221-0.198-0.396-0.224c-1.441-0.21-2.904-0.296-4.338-0.07
			c-1.426-0.194-3.006-0.114-4.029,0.712c-0.212,0.171-0.271,0.451-0.212,0.701c-0.521,0.328-1.019,0.698-1.511,1.035
			c-0.26,0.178-0.287,0.455-0.188,0.686c-0.277,0.146-0.207,0.639,0.128,0.65c1.52,0.058,2.976-0.204,4.479-0.419
			c2.602-0.372,5.279-0.279,7.895-0.118c0.707,0.044,1.194-0.471,0.851-0.909c0.114,0.005,0.219-0.006,0.34-0.006
			c0.273,0,0.303-0.179,0.433-0.4c0.001-0.001-0.086-0.31-0.085-0.311C55.918,61.878,56.241,60.858,55.56,60.807z"/>
		<path fill="#344AA5" d="M72.68,65.935c-0.652-0.581-1.623-0.761-2.416-1.078c-0.424-0.169-0.683,0.446-0.275,0.646
			c0.643,0.316,1.304,0.596,1.943,0.918c0.303,0.152,0.731,0.303,0.861-0.124C72.83,66.173,72.773,66.018,72.68,65.935z"/>
		<path fill="#D6B565" d="M72.027,67.43c-0.695-0.231-1.371-0.501-2.035-0.795c0.02-0.056,0.027-0.117,0.006-0.176
			c-0.264-0.701-1.188-0.95-1.807-1.275c-0.334-0.176-0.672-0.344-1.008-0.514c0.114-0.205,0.116-0.474-0.121-0.659
			c-0.344-0.269-0.791-0.484-1.238-0.572c-0.067-0.066-0.15-0.124-0.264-0.153c-1.896-0.507-3.912-0.358-5.848-0.682
			c-0.369-0.062-0.743-0.116-1.117-0.157c-0.016-0.22-0.163-0.429-0.459-0.449c-0.415-0.029-0.831-0.079-1.248-0.098
			c-0.055-0.017-0.11-0.009-0.165-0.024c-0.001,0.011-0.002,0.056-0.002,0.056H56.72c-0.015,0-0.026-0.019-0.04-0.017
			c-0.023-0.001-0.047-0.016-0.071-0.018c-0.379-0.02-0.561,0.325-0.504,0.609c-0.241,0.046-0.48,0.099-0.716,0.177
			c-0.228,0.075-0.202,0.427,0.008,0.503c2.921,1.062,6.217,1.016,9.298,1.371c-0.067,0.699,0.968,1.241,1.472,1.527
			c1.752,0.995,3.533,2.088,5.481,2.646C72.389,68.944,72.756,67.673,72.027,67.43z"/>
		<path fill="#D6B565" d="M66.979,86.547c-0.065-0.204-0.188-0.33-0.336-0.421c-0.055-0.146-0.162-0.271-0.328-0.309
			c-0.412-0.092-0.732-0.026-1.021,0.116c-0.171-0.093-0.382-0.1-0.587,0.074c-0.27,0.228-0.555,0.431-0.835,0.642
			c-0.905,0.335-1.813,0.414-2.827,0.345c-0.647-0.385-1.396-0.766-2.007-0.397c-0.593-0.292-1.195-0.552-1.796-0.849
			c-0.317-0.156-0.653-0.006-0.805,0.239c-0.542,0.108-0.609,0.945-0.057,1.117c-0.074,0.134-0.069,0.302,0.093,0.414
			c1.316,0.909,2.11,1.786,3.805,1.857c1.732,0.072,3.535,0,5.163-0.642C66.264,88.413,67.295,87.529,66.979,86.547z"/>
		<path fill="#6382E5" d="M76.122,19.711c-7.31-1.584-14.156,2.54-17.914,8.665c-2.087,3.401-3.744,7.589-5.192,11.303
			c-1.524,3.91-2.011,7.251-1.989,12.251c0.002,0,0.005,0,0.007,0c0.043,0,1.582,0.748,1.604-0.382
			c0.156-8.033,3.182-15.316,7.045-22.277c1.459-2.629,3.663-4.695,6.133-6.353c3.226-2.161,6.664-1.935,10.287-2.741
			C76.344,20.125,76.382,19.767,76.122,19.711z"/>
		<path fill="#6382E5" d="M35.629,56.562c1.532-1.217,3.301-2.074,5.491-2.396c1.188-0.175,2.387-0.226,3.588-0.2
			c0.207-0.038,0.404-0.092,0.614-0.122c2.349-0.334,4.242,0.328,6.279,0.964c0.292,0.057,0.584,0.113,0.875,0.172
			c-0.764-0.348-1.537-0.675-2.324-0.966c-3.948-1.457-8.115-1.605-12.123-0.346c-3.844,1.209-7.272,3.901-10.037,6.746
			c-2.214,2.277-4.896,5.401-4.142,8.807c0.104,0.471,0.911,0.47,0.972-0.025c0.561-4.53,4.091-8.044,7.617-10.661
			C33.461,57.776,34.526,57.117,35.629,56.562z"/>
		<path fill="#6382E5" d="M103.395,68.587c-5.182,6.419-13.594,6.354-20.328,2.312c-2.877-1.727-6.135-2.757-9.121-4.273
			c-1.479-0.752-2.84-1.725-4.293-2.524c-1.608-0.886-3.43-1.344-4.989-2.327c-0.147-0.094-0.327,0.116-0.227,0.253
			c0.867,1.187,1.817,1.738,3.119,2.395c2.006,1.009,3.787,2.399,5.748,3.491c2.191,1.222,4.575,2.098,6.842,3.17
			c2.078,0.983,3.949,2.273,6.098,3.124c3.621,1.432,7.665,1.356,11.369,0.315c2.742-0.771,6.029-2.638,6.38-5.735
			C104.029,68.43,103.582,68.357,103.395,68.587z"/>
		<path fill="#223D96" d="M100.008,57.922c-0.085-0.094-0.193-0.153-0.309-0.194c-0.061-0.222-0.129-0.439-0.186-0.663
			c-0.121-0.487-0.531-0.636-0.9-0.545c-0.11-0.109-0.223-0.219-0.338-0.325c-0.15-0.183-0.311-0.357-0.479-0.526
			c-0.153-0.248-0.317-0.49-0.521-0.713c-0.188-0.208-0.465-0.344-0.768-0.457c-0.072-0.064-0.145-0.127-0.217-0.194
			c-0.225-0.205-0.473-0.212-0.688-0.12c-0.125-0.046-0.242-0.1-0.354-0.158c0.006-0.11-0.012-0.224-0.084-0.328
			c-0.51-0.736-1.025-1.464-1.83-1.898c-0.322-0.174-0.688-0.058-0.893,0.198c-1.248-1.31-3.281-2.002-5.473-2.345
			c-0.07-0.062-0.154-0.113-0.257-0.147c-2.674-0.879-6.373-1.986-9.139-0.799c-0.492-0.118-0.984-0.236-1.479-0.348
			c-0.113-0.024-0.211-0.021-0.307-0.011c-0.135-0.447-0.355-0.876-0.73-1.29c-0.088-0.095-0.201-0.149-0.322-0.172
			c-0.143-0.394-0.295-0.784-0.483-1.161c-0.101-0.201-0.161-0.316-0.356-0.374C73.891,45.307,74,45.262,74,45.216v-1.062
			c0-0.191-0.215-0.35-0.348-0.463c-0.008-0.092-0.078-0.184-0.088-0.274c-0.058-0.514-0.584-0.712-0.957-0.595
			c-0.096-0.087-0.221-0.132-0.332-0.147c-0.369-1.112-0.854-2.188-1.293-3.305c-0.283-1.503-0.238-3.041-0.586-4.54
			c-0.076-0.332-0.379-0.485-0.674-0.472c0.068-0.279,0.133-0.56,0.209-0.838c0.092-0.339-0.095-0.565-0.352-0.67
			c0.479-2.611,1.227-4.993,2.434-7.42c2.801-2.37,6.803-3.316,10.354-2.482c0.489,0.115,0.815-0.528,0.374-0.816
			c-2.432-1.585-6.604-0.703-9.02,0.453c-3.85,1.842-6.117,5.408-7.197,9.408c-1.274,4.726-1.243,9.195-0.193,13.932
			c0.115,0.519,0.801,7.449,0.002,9.298c-1.461,0.307-2.898,0.613-4.432,0.649c-1.625,0.039-3.438-0.552-5.044-0.208
			c-0.465,0.1-0.468,0.768-0.063,0.935c-0.445,0.345-0.236,1.275,0.506,1.299c1.741,0.059,3.56,0.391,5.209,0.961
			c1.119,0.39,1.959,0.947,3.107,0.906c2.975,2.047,7.808,2.822,10.701,1.955c2.632-0.788,4.679-2.549,5.664-5.128
			c0.422-1.105,0.39-2.233-0.053-3.166c0.168,0.032,0.334,0.078,0.5,0.116c0.229-0.709,0.832-1.258,1.818-1.195
			c2.969,0.189,6.462,1.444,9.363,3.188c0.061,0.025,0.121,0.052,0.181,0.079c0.267,0.038,0.535,0.14,0.8,0.34
			c0.059,0.044,0.116,0.072,0.174,0.112c1.072,0.331,2.084,0.798,2.992,1.472c0.057,0.042,0.104,0.089,0.153,0.134
			c0.085,0.049,0.163,0.105,0.245,0.157c0.033,0.014,0.068,0.025,0.102,0.042c0.197,0.091,0.352,0.21,0.487,0.34
			c0.001,0.001,0.003,0.002,0.004,0.003c0.886,0.642,1.772,1.338,2.515,2.104C101.034,59.462,100.671,58.655,100.008,57.922z"/>
		<path fill="#223D96" d="M62.647,61.75c-1.425-3.063-7.638-2.69-10.385-3.249c-3.858-0.784-7.642-0.866-11.307,0.717
			c-1.499,0.646-2.836,1.712-4.034,2.797c-0.48,0.436-0.871,1.035-1.267,1.63c-0.63,0.676-1.237,1.315-1.843,1.926
			c-0.017,0.009-0.031,0.021-0.047,0.027c-0.155,0.068-0.245,0.182-0.294,0.309c-1.618,1.6-3.263,2.993-5.387,4.273
			c-0.257,0.155-0.109,0.569,0.182,0.551c2.376-0.155,4.202-1.952,5.785-3.575c0.143-0.146,0.282-0.292,0.423-0.438
			c0.856-0.354,1.557-1.077,2.208-1.884c-0.035,0.058-0.079,0.106-0.113,0.165c-0.155,0.261,0.101,0.621,0.401,0.471
			c1.34-0.673,2.24-2.01,3.315-3.067c1.392-0.347,2.669-1.118,4.085-1.312c1.095-0.149,2.198-0.025,2.994-0.896
			c0.133-0.146,0.155-0.348,0.097-0.52c1.738,0.171,3.491,0.619,5.316,0.969c3.061,0.585,6.098,0.648,9.041,1.815
			C62.232,62.624,62.887,62.265,62.647,61.75z"/>
		<path fill="#C6225D" d="M79.701,95.047c-0.088-0.1-0.186-0.184-0.29-0.258c0.014-0.006,0.032-0.01,0.047-0.017
			c0.399-0.189,0.479-0.665,0.233-1.008c-0.336-0.469-0.642-0.451-1.211-0.459c-0.336-0.005-0.664,0.007-0.99,0.021
			c-0.006-0.008-0.006-0.019-0.012-0.024c-0.375-0.395-0.845-0.515-1.354-0.672c-0.015-0.004-0.049-0.012-0.074-0.02
			c-0.051-0.066-0.116-0.128-0.2-0.176c-0.502-0.287-1.024-0.518-1.563-0.718c-0.758-0.429-1.422-0.955-2.035-1.665
			c-0.566-0.516-2.344-0.256-1.835,0.412c0.203,0.267,1.14,0.948,1.362,1.173c-0.021-0.018-0.047-0.033-0.067-0.051
			c-0.644-0.541-0.879-1.328-1.562-1.826c-0.295-0.214-0.711,0.126-0.614,0.456c0.575,1.979,1.629,3.121,3.505,4.021
			c0.826,0.396,2.121,0.739,3.402,0.859c0.017,0.04,0.039,0.074,0.074,0.098c0.666,0.439,1.705-0.027,2.237,0.616
			C79.256,96.419,80.218,95.635,79.701,95.047z"/>
		<path fill="#C6225D" d="M53.187,89.9c-0.572,0.775-0.944,1.698-1.799,2.221c-0.576,0.352-1.436,0.456-1.704,1.146
			c-0.064,0.166,0.044,0.349,0.221,0.373c0.696,0.095,1.582-0.383,2.18-0.69c0.902-0.466,1.479-1.273,2.084-2.052
			C54.885,90.486,53.928,88.895,53.187,89.9z"/>
		<g>
			<path fill="#040830" d="M50,76.93c0.303,4,4.657,8.117,8.456,9.896c0.581,0.271,1.088-0.591,0.505-0.863
				c-3.445-1.613-7.683-5.004-7.96-9.033c-0.044-0.641-0.623-1-0.579,0H50z"/>
		</g>
		<g>
			<path fill="#040830" d="M58.677,86.877c1.614,0.394,3.53,0.432,5.151,0.051c0.628-0.147,0.361-1.112-0.266-0.965
				c-1.438,0.338-3.191,0.298-4.62-0.051C58.316,85.76,58.05,86.724,58.677,86.877L58.677,86.877z"/>
		</g>
		<g>
			<path fill="#040830" d="M69.443,82.71c0.089-0.49,0.244-0.954,0.488-1.384c0.016-0.056,0.03-0.117,0.045-0.176
				c-0.597,0.679-1.31,1.276-1.959,1.814c-1.369,1.139-2.906,2.118-4.479,2.953c-0.695,0.369-0.21,1.317,0.485,0.949
				c1.519-0.808,3.644-1.825,5.303-3.221C69.329,83.329,69.363,83.014,69.443,82.71z"/>
		</g>
		<g>
			<path fill="#040830" d="M72.382,77.23c0.067-0.242,0.164-0.473,0.313-0.675c0.037-0.069,0.082-0.132,0.125-0.196v-8.233
				c0-1.223-1.223-1.223-1.223,0v10.291c0.148-0.223,0.291-0.445,0.409-0.686C72.104,77.539,72.234,77.375,72.382,77.23z"/>
		</g>
		<g>
			<path fill="#040830" d="M41.99,61.612c-3.646,5.025-8.188,10.976-4.869,17.335c1.244,2.387,3.72,3.985,5.882,5.444
				c2.718,1.835,8.691,5.823,5.478,9.742c-0.405,0.494,0.298,1.206,0.707,0.707c3.891-4.746-2.712-9.31-6.189-11.656
				c-3.414-2.305-6.132-4.932-6.083-9.352c0.049-4.384,3.501-8.358,5.937-11.718C43.232,61.593,42.364,61.095,41.99,61.612
				L41.99,61.612z"/>
		</g>
		<g>
			<path fill="#040830" d="M55.986,61.117c-1.33,2.863-5.877,4.161-8.264,6.007c-1.153,0.892-2.134,1.856-2.688,3.224
				c-0.202,0.499-0.254,0.944-0.174,1.472c0.101,0.652,1.031,2.111,1.031,2.111c0,1,1,1,1,0c0,0-0.408-0.596-0.614-0.941
				c-0.594-0.997-0.546-2.008-0.029-3.012c0.8-1.552,2.6-2.533,4.024-3.42c2.131-1.327,5.448-2.528,6.577-4.962
				C57.119,61.015,56.257,60.531,55.986,61.117L55.986,61.117z"/>
		</g>
		<g>
			<path fill="#040830" d="M49.391,94.536c1.399-1.604,2.779-3.203,3.947-4.987c0.95-1.45,1.321-3.193,2.086-4.733
				c0.286-0.574-0.577-1.082-0.863-0.504c-0.691,1.393-1.115,2.895-1.82,4.281c-0.988,1.947-2.632,3.604-4.056,5.236
				C48.262,94.312,48.966,95.023,49.391,94.536L49.391,94.536z"/>
		</g>
		<g>
			<path fill="#040830" d="M71.331,67.379c0.688,2.313,1.563,4.244,1.079,6.731c-0.372,1.913-1.284,3.588-2.43,5.137
				c-1.569,2.117-2.047,4.479-1.303,7.013c0.729,2.47,2.82,4.346,4.93,5.656c2.23,1.388,7.445,2.036,7.654,5.268
				c0.043,0.642,1.043,0.646,1,0c-0.135-2.082-1.828-3.181-3.543-4.063c-3.139-1.614-6.227-2.438-8.324-5.564
				c-2.844-4.24,0.664-7.237,2.283-10.939c1.506-3.444,0.629-6.099-0.383-9.504C72.111,66.497,71.146,66.76,71.331,67.379
				L71.331,67.379z"/>
		</g>
		<g>
			<path fill="#040830" d="M81.867,72.63c-3.143,1.466-3.7,5.324-2.819,8.356c0.621,2.138,2.188,3.949,3.201,5.901
				c1.573,3.033,1.657,6.982-0.356,9.789c-0.377,0.524,0.49,1.023,0.862,0.504c2.319-3.229,1.911-7.316,0.356-10.798
				c-0.993-2.228-2.614-3.995-3.309-6.382c-0.693-2.39,0.264-5.435,2.567-6.509C82.955,73.221,82.447,72.359,81.867,72.63
				L81.867,72.63z"/>
		</g>
		<g>
			<path fill="#040830" d="M53,65.52c0,0.001,3.415,0.008,5.063,0.694c0.595,0.248,0.901-0.721,0.314-0.965
				C56.654,64.531,55,64.521,53,64.52C52,64.52,52,65.52,53,65.52C53,65.52,52,65.52,53,65.52z"/>
		</g>
		<g>
			<path fill="#040830" d="M64.253,66.826c1.422-0.866,2.882-1.155,4.533-1.129c0.646,0.012,0.646-0.988,0-1
				c-1.819-0.029-3.474,0.312-5.038,1.266C63.199,66.297,63.701,67.163,64.253,66.826L64.253,66.826z"/>
		</g>
		<g>
			<path fill="#040830" d="M58.699,69.396c-0.269-2.705-4.073-1.507-5.792-1.466c0.161,0.122,0.321,0.245,0.482,0.367
				c-0.069-0.349-0.206-0.499-0.484-0.707c-0.517-0.387-1.014,0.48-0.505,0.863c0.008,0.035,0.017,0.072,0.025,0.108
				c0.042,0.212,0.272,0.372,0.482,0.367c0.936-0.022,4.646-1.006,4.792,0.466C57.762,70.031,58.762,70.038,58.699,69.396
				L58.699,69.396z"/>
		</g>
		<g>
			<path fill="#040830" d="M53.693,68.346c-0.593,2.508,4.091,2.204,3.833,0.032c-0.075-0.632-1.076-0.641-1,0
				c0.102,0.859-2.066,1.066-1.869,0.232C54.806,67.985,53.841,67.718,53.693,68.346L53.693,68.346z"/>
		</g>
		<g>
			<path fill="#040830" d="M55.674,68.15c-0.258,0.077-0.483,0.084-0.73,0.204c-0.458,0.224-0.225,0.938,0.252,0.933
				c0.474-0.006,0.902-0.086,1.354-0.223c0.559-0.168,0.421-0.94-0.133-0.981c-0.539-0.039-1.041,0.021-1.559,0.171
				c-0.386,0.11-0.53,0.724-0.12,0.914c0.613,0.284,1.151,0.313,1.811,0.204c0.254-0.043,0.435-0.378,0.349-0.615
				c-0.106-0.294-0.242-0.614-0.574-0.706c-0.229-0.063-0.381,0.09-0.57,0.083c-0.645-0.023-0.643,0.977,0,1
				c0.091,0.003,0.178-0.01,0.267-0.03c0.448-0.104-0.081-0.063-0.087-0.081c0.116-0.205,0.232-0.41,0.349-0.615
				c-0.374,0.063-0.692,0.061-1.041-0.103c-0.04,0.305-0.08,0.609-0.12,0.914c0.438-0.126,0.838-0.169,1.293-0.136
				c-0.044-0.327-0.088-0.654-0.133-0.982c-0.372,0.112-0.7,0.182-1.089,0.188c0.084,0.311,0.168,0.621,0.252,0.932
				c0.128-0.063,0.349-0.061,0.491-0.103C56.557,68.93,56.293,67.965,55.674,68.15L55.674,68.15z"/>
		</g>
		<g>
			<path fill="#040830" d="M65.365,69.396c0.146-1.472,3.855-0.487,4.793-0.466c0.209,0.005,0.439-0.155,0.482-0.367
				c0.008-0.036,0.016-0.073,0.022-0.108c0.509-0.384,0.012-1.251-0.504-0.863c-0.278,0.209-0.415,0.359-0.484,0.707
				c0.161-0.122,0.321-0.245,0.482-0.367c-1.72-0.041-5.524-1.239-5.793,1.466C64.301,70.038,65.303,70.031,65.365,69.396
				L65.365,69.396z"/>
		</g>
		<g>
			<path fill="#040830" d="M68.404,68.612c0.203,0.829-2.068,0.639-1.963-0.232c0.076-0.641-0.924-0.632-1,0
				c-0.266,2.179,4.539,2.481,3.929-0.032C69.218,67.719,68.253,67.986,68.404,68.612L68.404,68.612z"/>
		</g>
		<g>
			<path fill="#040830" d="M67.125,69.115c0.143,0.042,0.361,0.04,0.49,0.104c0.084-0.312,0.168-0.621,0.252-0.932
				c-0.389-0.006-0.717-0.075-1.088-0.188c-0.045,0.328-0.09,0.655-0.133,0.982c0.455-0.033,0.854,0.01,1.293,0.136
				c-0.041-0.305-0.08-0.609-0.119-0.914c-0.35,0.162-0.668,0.166-1.041,0.103c0.115,0.205,0.232,0.41,0.35,0.615
				c-0.038,0.104-0.49-0.083-0.15,0.056c0.105,0.043,0.213,0.061,0.33,0.057c0.643-0.023,0.646-1.023,0-1
				c-0.188,0.007-0.342-0.146-0.57-0.083c-0.332,0.092-0.467,0.412-0.573,0.706c-0.085,0.237,0.095,0.572,0.351,0.615
				c0.659,0.109,1.197,0.08,1.811-0.204c0.41-0.19,0.267-0.804-0.119-0.914c-0.518-0.148-1.021-0.21-1.559-0.171
				c-0.555,0.041-0.691,0.813-0.133,0.981c0.451,0.137,0.879,0.217,1.354,0.223c0.479,0.006,0.71-0.709,0.252-0.933
				c-0.246-0.12-0.471-0.127-0.729-0.204C66.771,67.964,66.509,68.93,67.125,69.115L67.125,69.115z"/>
		</g>
		<g>
			<path fill="#040830" d="M58.837,75.331c0.509,2.027,3.906,2.302,4.883,0.526c0.312-0.563-0.552-1.068-0.863-0.504
				c-0.563,1.021-2.757,0.9-3.056-0.289C59.644,74.44,58.68,74.705,58.837,75.331L58.837,75.331z"/>
		</g>
		<g>
			<path fill="#040830" d="M57.455,80.363c1.372,0.57,2.528,1.241,4.052,1.188c1.365-0.047,2.965-0.399,4.069-1.239
				c0.507-0.385,0.01-1.254-0.504-0.863c-1.105,0.841-2.661,1.071-4.01,1.118c-1.166,0.04-2.298-0.733-3.341-1.169
				C57.125,79.151,56.869,80.119,57.455,80.363L57.455,80.363z"/>
		</g>
		<g>
			<path fill="#040830" d="M25.036,71.965c6.296-0.321,10.542-5.821,15.539-8.938c4.082-2.545,8.972-2.422,13.549-1.726
				c3.177,0.483,6.704,1.723,9.934,1.593c0.592-0.022,0.644-0.777,0.133-0.981c-0.061-0.024-0.123-0.05-0.184-0.073
				c-0.6-0.238-0.857,0.729-0.266,0.965c0.061,0.024,0.123,0.049,0.184,0.073c0.044-0.327,0.088-0.655,0.133-0.982
				c-3.417,0.138-7.186-1.179-10.562-1.691c-3.956-0.604-7.884-0.498-11.622,1.028c-6.044,2.469-9.757,9.38-16.683,9.732
				c-0.642,0.032-1.168,0.908-0.523,0.875L25.036,71.965z"/>
		</g>
		<g>
			<path fill="#040830" d="M25.301,71c-4.205-1.24,1.719-8.734,3.069-10.461c3.298-4.219,7.752-6.72,13.121-7.399
				c7.328-0.929,13.471,3.412,19.14,7.434c5.803,4.118,12.041,7.419,18.37,10.655c6.799,3.479,20.467,8.714,24.683-1.356
				c1.942-4.646-0.912-9.846-3.889-13.271c-3.813-4.389-9.045-7.271-14.746-8.188C82.023,47.927,79,47.777,76,47.775c-1,0-1,1,0,1
				c6,0.004,12.729,0.646,18.284,4.313c5.179,3.417,10.69,9.889,8.461,16.517c-1.81,5.377-9.3,5.711-13.837,4.604
				c-7.104-1.735-13.684-6.125-20.096-9.5c-6.147-3.235-11.213-8.156-17.576-11.042c-4.935-2.24-10.838-2.146-15.787,0.039
				c-3.806,1.68-6.292,4.1-8.729,7.358c-1.763,2.357-4.373,5.832-3.784,8.989c0.197,1.054,1.154,1.635,2.097,1.913
				C25.656,72.148,25.918,71.183,25.301,71L25.301,71z"/>
		</g>
		<g>
			<path fill="#040830" d="M66,84.93c0,0,0,4,0,6c0,1,1,1,1,0c0-2,0-4,0-6C67,83.93,66,83.93,66,84.93C66,84.93,66,83.93,66,84.93z"
				/>
		</g>
		<g>
			<path fill="#040830" d="M56.74,85.284c-0.213-0.188-0.481-0.322-0.724-0.48C56.012,84.847,56,84.882,56,84.93c0,0,0,4,0,6
				c0,1,1,1,1,0v-5.529C56.911,85.387,56.823,85.357,56.74,85.284z"/>
		</g>
		<g>
			<path fill="#040830" d="M67.309,90.077c1.391,0.063,2.879-0.064,4.221,0.362c0.615,0.196,0.878-0.77,0.266-0.965
				c-1.43-0.455-3.006-0.33-4.484-0.397C66.664,89.047,66.667,90.047,67.309,90.077L67.309,90.077z"/>
		</g>
		<g>
			<path fill="#040830" d="M55.935,88.923c-1.27,0.004-2.979-0.017-3.866,1.063c-0.406,0.494,0.297,1.206,0.707,0.707
				c0.704-0.855,2.156-0.768,3.159-0.771C56.579,89.921,56.58,88.921,55.935,88.923L55.935,88.923z"/>
		</g>
		<g>
			<path fill="#040830" d="M49.645,89.792c-1.402-0.266-3.257,0.061-4.522,0.714c-0.573,0.296-0.067,1.159,0.505,0.863
				c1.013-0.523,2.629-0.824,3.751-0.612C50.009,90.876,50.278,89.913,49.645,89.792L49.645,89.792z"/>
		</g>
		<g>
			<path fill="#040830" d="M47.04,90.59v0.01c-0.04,0.24-0.2,0.47-0.5,0.5c-2.57,0.32-3.63,2.49-4.07,4.86l-0.1-0.05l-0.93-0.551
				c0.64-2.779,2.04-4.939,5.1-5.33C46.92,89.99,47.09,90.3,47.04,90.59z"/>
		</g>
		<g>
			<path fill="#040830" d="M80.53,99.74l0.55-0.31c-0.1-1.95-0.33-3.86-0.93-5.46c-0.351-0.01-0.7-0.11-1.04-0.26
				c-0.13-0.061-0.25-0.12-0.37-0.181c0.04,0.091,0.09,0.181,0.12,0.271c0.84,1.86,0.939,4.3,1.01,6.14c0,0.061,0,0.12,0.01,0.181
				L80.53,99.74z"/>
		</g>
		<path fill="#040830" d="M75.445,16.722c-4.963-1.165-10.068,0.211-14.051,3.284c-3.678,2.838-7.269,8.581-8.988,12.612
			c-2.22,5.208-4.67,14.22-4.904,20.055c-0.024,0.596,0.9,0.594,0.924,0c0.112-2.778,1.633-8.869,2.449-11.493
			c0.641-2.056,1.583-5.096,2.359-7.078c1.764-4.499,4.158-8.942,7.654-12.434c3.978-3.971,9.725-5.132,15.073-3.877
			c2.252,0.529,4.434,1.508,6.166,3.056c2.04,1.822-1.079,1.711-2.136,1.621c-1.007-0.086-1.976,0.043-2.966,0.201
			c-3.409,0.542-5.608,2.663-6.666,5.853c-1.069,3.225-1.354,7.692,0.277,10.717c1.146,2.126,2.344,4.188,3.381,6.374
			c1.082,2.279,2.869,8.513,1.789,11.063c-0.688,1.625-6.645,0.271-7.813-0.004c-2.253-0.529-10.349-1.47-12.624-1.104
			c-0.587,0.095-0.337,0.984,0.246,0.894c2.813-0.454,10.343,1.46,16.632,1.767c1.031,0.051,2.423,0.417,3.365-0.146
			c3.087-1.848,0.57-9.84-0.461-12.203c-1.077-2.461-2.401-4.771-3.719-7.106c-1.42-2.521-1.006-6.058-0.483-8.827
			c0.549-2.915,2.088-5.014,4.905-6.033c2.627-0.95,5.252,0.012,7.865-0.624c0.191-0.048,0.35-0.247,0.34-0.446
			C83.863,19.058,78.409,17.417,75.445,16.722z"/>
		<g>
			<path fill="#040830" d="M55.893,91.25c0.732,4.08,9.609,3.613,11.351,0.619c0.324-0.56-0.539-1.063-0.863-0.505
				c-1.337,2.298-8.971,2.701-9.524-0.381C56.743,90.351,55.78,90.621,55.893,91.25L55.893,91.25z"/>
		</g>
		<g>
			<path fill="#040830" d="M47.375,76.493c0.645,0,0.645-1,0-1S46.73,76.493,47.375,76.493L47.375,76.493z"/>
		</g>
		<g>
			<path fill="#040830" d="M50.203,65.743c-0.065-0.008-0.12-0.029-0.171-0.055C50.016,65.764,50,65.838,50,65.93c0,0,0,7,0,11
				c0,1,1,1,1,0v-11c0-0.159-0.031-0.283-0.074-0.392C50.708,65.673,50.483,65.772,50.203,65.743z"/>
		</g>
	</g>
	<g opacity="0.13">
		<path d="M18.729,29.165v53.12l46.074,26.56l46.072-26.56v-53.12L64.804,2.605L18.729,29.165z M109.014,30.245v50.97l-44.21,25.49
			l-44.211-25.49v-50.97L64.804,4.756L109.014,30.245z"/>
	</g>
</g>
</svg>
