<svg xmlns="http://www.w3.org/2000/svg" width="111.125" height="128.667" viewBox="8.625 -8.695 111.125 128.667"><path fill="#2088EF" d="M119.744 87.43l-55.426 32-55.424-32V23.431l55.424-32 55.426 32z"/><path fill="#7CC8FC" d="M110.82 29.16v53.13l-10.43 6.02-.24.12-.13.06-.11.06-18.83 10.88-.55.31-.65.38-15.11 8.73-22.3-12.89-.1-.05-.93-.55-22.62-13.07V29.16l46-26.56z"/><path fill="#2088EF" d="M54.731 24.213L41.63 22.309l-5.859-11.872-5.859 11.872-8.784 1.276a12.25 12.25 0 0 1-.613 1.033c-.011.092-.03.185-.06.275a8.967 8.967 0 0 1-.905 1.988l6.741 6.571L24.053 46.5l11.718-6.161L47.489 46.5l-2.238-13.048 9.48-9.239zm39.214-7.077l4.86 9.844 10.863 1.579-7.861 7.663 1.855 10.82-9.717-5.109-9.715 5.109 1.855-10.82-7.86-7.663 10.862-1.579zM92.61 64.302l4.86 9.844 10.863 1.579-7.861 7.663 1.855 10.82-9.717-5.109-9.714 5.109 1.854-10.82-7.86-7.663 10.862-1.579zm-61.042 6.17l3.017 6.112 6.746.98-4.881 4.759 1.152 6.717-6.034-3.172-6.03 3.172 1.15-6.717-4.879-4.759 6.744-.98z"/><path fill="#344AA5" d="M102.518 62.029c.045-.709-.14-1.474-.668-2.241-.656-.95-1.242-1.69-2.051-2.218-1.943-1.914-4.089-3.545-6.396-5.07-.324-.658-.869-1.19-1.658-1.42-.624-.183-1.26-.354-1.891-.536-.834-.573-1.789-.681-2.946-.696-.019 0-.033.004-.052.004-.162-.066-.318-.136-.485-.202-3.298-1.292-6.634-1.576-9.994-.952-.067.012-.14.012-.205.024l.003.013a.221.221 0 0 0-.025.005c-.289-.188-.578-.371-.867-.554-.182-.667-.442-1.315-.693-1.95-.794-1.998-2.227-3.746-3.204-5.674a41.76 41.76 0 0 0-.983-1.817c-.092-2.745-.652-5.177.091-8.035.846-3.258 1.489-6.342 5.39-6.913 1.063-.156 1.771-.708 2.178-1.421.614.055 1.229.097 1.846.123.473.074.947.129 1.429.143a.52.52 0 0 0 .274-.069c.033.003.062.011.096.013.07.005.14-.011.206-.033a.513.513 0 0 0 .188-.007c.076.016.152.02.228.007.387.109.881-.187.741-.66-.017-.052-.039-.095-.058-.144l.005-.001-.011-.017c-.175-.462-.472-.792-.851-.989a6.532 6.532 0 0 0-.51-.384.641.641 0 0 0-.305-.381l-.141-.081a.652.652 0 0 0-.531-.688c-.534-.119-1.063-.229-1.574-.393a13.056 13.056 0 0 0-1.246-.578l-.043-.023-.003.005c-.051-.021-.1-.044-.149-.063a.517.517 0 0 0-.385-.005c-.582-.463-1.354-.717-2.31-.583-.054.007-.103.02-.155.027-.765-.514-1.748-.722-2.875-.349-.066.023-.142.036-.211.059a3.598 3.598 0 0 0-1.729-.038c-.166.036-.317.082-.478.123a3.639 3.639 0 0 0-1.422.216c-.636.228-1.263.441-1.883.673-.019.007-.037.008-.056.014-.693.23-1.315.562-1.978.874a3.655 3.655 0 0 0-.743.513 2.689 2.689 0 0 0-1.625 1.191 10.38 10.38 0 0 0-1.19.833c-1.321 1.088-2.311 2.83-3.263 4.237-1.085 1.604-2.154 3.198-3.061 4.911-.418.791-.693 1.628-.918 2.483-1.107.889-1.617 2.37-1.255 3.71-.061.21-.138.413-.191.627-.067.172-.125.583-.185.757-1.203 2.304-2.422 4.502-2.458 7.502h-.007c.074 0 .078.545.092.938-.676 2.054-1.249 4.027-1.357 6.097-6.133-2.202-13.875 1.905-18.463 5.704-.609.504-.983 1.065-1.177 1.681-.484.498-.956.992-1.364 1.562-.08.11-.128.229-.191.347a3.161 3.161 0 0 0-1.147 1.82c-.115.084-.229.166-.345.246l.036.052a3.21 3.21 0 0 0-.878 1.646c-.172.217-.32.45-.424.708-.568.947-.653 2.651-.043 3.67.419.699 1.111.745 1.901.942a2.882 2.882 0 0 0 1.644-.062c-.022.015-.045.027-.068.041.118-.032.218-.096.33-.142.03-.013.061-.025.091-.039a3.18 3.18 0 0 0 .604-.355c.199-.124.367-.276.521-.441.184-.088.362-.191.53-.318l.751-.563a2.68 2.68 0 0 0 .573-.08 2.551 2.551 0 0 0 1.303-.487l.927-.673c.602-.438.943-.994 1.091-1.59 3.827-2.651 8.03-5.074 12.322-5.905 2.724-.526 5.626-.592 8.389-.229.158.132.316.264.501.366a3.233 3.233 0 0 0 1.653.404c.293-.058.587-.115.88-.174 2.019.524 3.889 1.15 5.997.925.261.207.522.408.784.604l-.006.012.084.047c2.537 1.882 5.226 3.243 8.191 4.618.67.31 1.328.663 1.986 1.022 5.838 4.028 14.324 7.979 21.63 6.61 4.083-.766 6.067-3.164 6.979-6.994.554-2.309-.084-4.152-1.084-5.912z"/><path fill="#FFD815" d="M51.453 65.395c.003-.023.001-.046.003-.069.604-.291 1.25-.506 1.838-.833.364-.202.55-.519.606-.859a7.26 7.26 0 0 0 .675-.058c1.905-.268 1.244-3.18-.651-2.914-2.343.327-4.84-.134-7.232.112-1.145.118-3.599.338-4.307 1.385-2.069 3.056-5.448 6.392-5.61 10.242-.013.31.06.559.165.779a1.406 1.406 0 0 0-.06.351 5.09 5.09 0 0 1-.1 1.208 1.506 1.506 0 0 0 .421 1.337c.077.762.345 1.457.788 2.1-.418.72-.331 1.283.285 1.684.329.247.69.309 1.021.247.48.74 1.136 1.41 2.107 2.102.246.175.492.272.729.32l.572.468c.077.139.178.271.322.389a26.026 26.026 0 0 0 2.396 1.762c.076.05.153.085.23.117 1.783 1.33 3.428 2.909 3.803 5.186.005.032.018.062.025.092-.036.632.466 1.352 1.147 1.352.461 0 .875-.193 1.135-.529.341-.21.576-.566.556-1.071a7.033 7.033 0 0 0-.132-1.082c.234-.198.489-.393.709-.605l.261.002c.042-.175.096-.347.16-.516.015-.041.016-.083.028-.125.213-.503.37-1.011.553-1.518.41-.245.706-.654.71-1.142a1.19 1.19 0 0 0 .339-.739c.046-.636-.454-1.317-1.119-1.361-.121-.058-.249-.103-.394-.159l-.008-.002a5.704 5.704 0 0 0-.562-.508c-.028-.022-.059-.033-.088-.054a1.268 1.268 0 0 0-.264-.72 5.802 5.802 0 0 0-.256-.308l.007-.007c-.015-.018-.034-.027-.049-.045a6.158 6.158 0 0 1-.302-.362 1.054 1.054 0 0 0-.336-.284c-.296-1.305-.685-2.625-1.1-3.922.078-.174.131-.355.135-.551 0-.075-.015-.146-.025-.22l.052.171a3.237 3.237 0 0 0-.001-.793 1.239 1.239 0 0 0-.193-.581c.148-1.061.193-2.146.297-3.201.207-2.097.409-4.188.714-6.268zm31.803 28.127c.123-.145.229-.317.303-.534.959-2.777-.461-5.543-2.147-7.718-.041-.053-.089-.086-.136-.126a4.112 4.112 0 0 0-.719-1.207 9.363 9.363 0 0 0-1.289-2.24 1.196 1.196 0 0 0-.037-.195c-.164-.518-.234-1.04-.271-1.571.196-.47.242-.987.185-1.547-.006-.061-.022-.114-.035-.171.23-.647.451-1.295.619-1.964a1.606 1.606 0 0 0-.047-.919c.092-.077.182-.162.264-.266.211-.258.322-.579.33-.902.086-.022.166-.035.252-.063.037-.012.063-.042.097-.058.044.005.085.018.131.018 1.233 0 1.584-1.161 1.19-1.893a1.282 1.282 0 0 0-.745-.618 1.21 1.21 0 0 0-.591-.026 1.445 1.445 0 0 0-.912-.161c-.073.013-.149.014-.225.016a1.834 1.834 0 0 0-1.232-.917 1.57 1.57 0 0 0-.491-.023c-.042-.031-.079-.064-.121-.096a1.221 1.221 0 0 0-.655-.449c-.506-.322-1.023-.617-1.5-.906-.945-.571-2.313-1.767-3.507-1.242-.456.198-.709.725-.622 1.204.037.197.12.373.25.525.094.109.75.363.76.386-.56-.089-.537.017.066.315.048.034.104.061.154.092-.424.523-.45 1.321.007 1.847.026.031.062.055.088.084.162.815.453 1.584.64 2.402a29.107 29.107 0 0 0-.379 1.528 1.24 1.24 0 0 0-.439.319c-.028.031-.059.063-.086.097-.07.079-.129.167-.18.258l-.019-.016a4.465 4.465 0 0 0-.521 1.068 1.206 1.206 0 0 0-.373.316c-.638.828-1.043 1.516-1.35 2.505a1.354 1.354 0 0 0-.031.749 8.064 8.064 0 0 0-.224 1.011c-.175.223-.29.513-.308.875-.068 1.622.021 3.437 1.233 4.475.063.144.146.284.263.421.164.189.338.359.516.521.096.239.263.467.529.657.19.153.393.29.594.429.652.613 1.339 1.149 2.15 1.544.215.174.438.337.666.492.072.188.18.356.322.479.844.721 1.742 1.141 2.862 1.206.028.002.049-.01.075-.009.111.15.229.299.363.448.412.456.976.503 1.465.32a2.8 2.8 0 0 1 .363.904c.334 1.769 3.018 1.385 2.766-.409a5.841 5.841 0 0 0-.311-1.265z"/><path fill="#F9DC8A" d="M71.477 73.918c.232-.259.375-.602.353-1.03a32.57 32.57 0 0 0-.376-3.944c.406-.483.509-1.14.234-1.782l-.09-.211c-.031-.717-.486-1.361-1.445-1.373-2.639.069-4.37-2.656-7.043-2.813-1.917-.112-5.623-1.724-7.406-.521-1.421.958-2.456 1.866-3.191 2.81-.96-.287-1.717.747-1.613 1.617.101.29-.31.729-.164.996-.431 1.652-.408 3.482.128 5.969-.241.226-.154.623-.159 1.075-.004.384.04.639.031 1.021-.012.091.031.165.031.264L51 77.214c0 .486-.265 1.388.063 1.622.099.837.821 1.105 1.214 1.916.722 1.482 2.729 2.884 3.893 3.96.084.078-.067.142.021.193-.155 1.01-.191 1.956-.191 2.908v.032c1 .571.246 1.139.146 1.703-.041.361.166.667.322.916-.114.616.158 1.306.856 1.709.23.134.57.269.845.429.091.126.212.245.353.345.145.103.297.203.441.307.575.406 1.182.361 1.646.078.311-.002.593-.03.844-.084 1.47.372 2.713-.076 4.115-.751 2.236-1.076 1.142-4.748 1.123-6.439a1.906 1.906 0 0 0-.209-.87 1.64 1.64 0 0 0 .703-.693c.239-.452.49-.897.734-1.347.395-.161.725-.467.875-.943.033-.104.057-.19.084-.284.025-.047.042-.104.064-.151.729-.664 1.146-2.008 1.47-2.76a1.29 1.29 0 0 0 .101-.454c.426-.479.658-.908 1-1.802.021-.059.031-.113.047-.17.125-.276.152-.561.101-.833.043-.188.071-.371.073-.545.002-.148-.105-.671-.257-1.288z"/><path fill="#F24179" d="M80.53 99.74c-.011-.3-.13-.609-.33-.869.06-.431.069-.83.04-1.2.02-.99-.11-1.771-.73-2.51 0-.521-.22-1.051-.649-1.36-.221-.17-.5-.28-.841-.29-.01-.011-.02-.021-.03-.021-.42-.22-.84-.39-1.29-.399-.37-.21-.771-.36-1.19-.42a.434.434 0 0 0-.16.01c-.51-.22-1.02-.43-1.52-.64-.57-.771-1.64-1.82-2.68-1.73-.141-.09-.29-.17-.44-.24-.28-.12-.56-.199-.84-.239a1.526 1.526 0 0 0-1.68-.051c-.21.011-.421.021-.641.03-.26 0-.55.19-.6.47-.07.45-.03.73.18 1.08-.08.21-.14.431-.21.641-.229.14-.45.279-.66.439a.567.567 0 0 0-.359.09 1.956 1.956 0 0 0-.23.151c-.229.18-.5.37-.8.57-.46.16-.93.34-1.38.55-.1-.12-.24-.2-.41-.2-1.6.08-2.97.28-4.54-.21-.58-.18-1.12-.38-1.66-.59-.03-.04-.07-.07-.09-.101-.1-.14-.21-.239-.32-.329-.01-.15-.04-.29-.09-.44a.634.634 0 0 0-.19-.28c-.09-.45-.1-.93-.11-1.38 0-.58-.61-.729-.98-.41-.36-.29-.83-.38-1.35-.08a5.12 5.12 0 0 0-1.59 1.48c-.88-.14-1.9.5-1.87 1.62.01-.021.02-.04.04-.061-.1.221-.13.42-.13.62-.46.221-.86.63-1.19.98-.1.1-.24.25-.39.42.34-.9.57-.91.66-1.43.87-.801.58-2.69-.83-2.9-.56-.08-.86-.061-1.41.08v.01c-.02 0-.04 0-.06.01-.18.051-.34.13-.47.25-.22.09-.44.181-.65.29-.11.03-.22.07-.32.12-.54-.17-1.12-.05-1.51.58-.79 1.25-1.55 2.59-1.66 4.061l.1.05 22.299 12.89 15.11-8.729.651-.383z"/><path fill="#D1AE19" d="M81.799 72.381c-.045-.028-.093-.045-.139-.071l.002-.005-.041-.016c-.577-.316-1.186-.477-1.79-.718l-.011-.006a6.99 6.99 0 0 0-1.055-.719.5.5 0 0 0-.22-.329c-.808-.565-1.685-.78-2.601-1.113a.667.667 0 0 0-.52.007c-.064-.036-.131-.072-.195-.11a.597.597 0 0 0-.183-.173l-.239-.146c-.024-.025-.037-.056-.07-.081a17.718 17.718 0 0 1-.568-.447.641.641 0 0 0-.477-.134c-.301-.167-.646-.264-.909-.228-.19.026-.343.239-.253.427.027.059.085.11.126.167a.694.694 0 0 0 .004.67c.121.208.228.316.409.476a.661.661 0 0 0 .104.064c-.103.036-.207.071-.298.135-.189.135-.145.479.051.583 1.034.562 2.26.933 3.34 1.422.92.416 1.75 1.022 2.566 1.605.514.365 1.096 1.012 1.777.888.521-.095.726-.826.394-1.173.069.023.138.052.207.072.619.193 1.206-.66.589-1.047zM55.56 60.807c-.104-.008-.76.033-.864.026-.233-.158-.518-.212-.877-.063l-.04.016c-.452-.023-.902-.059-1.355-.068a.677.677 0 0 0-.44.139l-.081-.012a.62.62 0 0 0-.396-.224c-1.441-.21-2.904-.296-4.338-.07-1.426-.194-3.006-.114-4.029.712-.212.171-.271.451-.212.701-.521.328-1.019.698-1.511 1.035-.26.178-.287.455-.188.686-.277.146-.207.639.128.65 1.52.058 2.976-.204 4.479-.419 2.602-.372 5.279-.279 7.895-.118.707.044 1.194-.471.851-.909.114.005.219-.006.34-.006.273 0 .303-.179.433-.4.001-.001-.086-.31-.085-.311.648-.294.971-1.314.29-1.365z"/><path fill="#344AA5" d="M72.68 65.935c-.652-.581-1.623-.761-2.416-1.078-.424-.169-.683.446-.275.646.643.316 1.304.596 1.943.918.303.152.731.303.861-.124a.377.377 0 0 0-.113-.362z"/><path fill="#D6B565" d="M72.027 67.43a22.755 22.755 0 0 1-2.035-.795.26.26 0 0 0 .006-.176c-.264-.701-1.188-.95-1.807-1.275-.334-.176-.672-.344-1.008-.514.114-.205.116-.474-.121-.659a3.026 3.026 0 0 0-1.238-.572.567.567 0 0 0-.264-.153c-1.896-.507-3.912-.358-5.848-.682a19.738 19.738 0 0 0-1.117-.157.468.468 0 0 0-.459-.449c-.415-.029-.831-.079-1.248-.098-.055-.017-.11-.009-.165-.024l-.002.056h-.001c-.015 0-.026-.019-.04-.017-.023-.001-.047-.016-.071-.018-.379-.02-.561.325-.504.609-.241.046-.48.099-.716.177-.228.075-.202.427.008.503 2.921 1.062 6.217 1.016 9.298 1.371-.067.699.968 1.241 1.472 1.527 1.752.995 3.533 2.088 5.481 2.646.741.214 1.108-1.057.379-1.3zm-5.048 19.117a.738.738 0 0 0-.336-.421.466.466 0 0 0-.328-.309 1.468 1.468 0 0 0-1.021.116c-.171-.093-.382-.1-.587.074-.27.228-.555.431-.835.642-.905.335-1.813.414-2.827.345-.647-.385-1.396-.766-2.007-.397-.593-.292-1.195-.552-1.796-.849a.625.625 0 0 0-.805.239c-.542.108-.609.945-.057 1.117-.074.134-.069.302.093.414 1.316.909 2.11 1.786 3.805 1.857 1.732.072 3.535 0 5.163-.642.823-.32 1.854-1.204 1.538-2.186z"/><path fill="#6382E5" d="M76.122 19.711c-7.31-1.584-14.156 2.54-17.914 8.665-2.087 3.401-3.744 7.589-5.192 11.303-1.524 3.91-2.011 7.251-1.989 12.251h.007c.043 0 1.582.748 1.604-.382.156-8.033 3.182-15.316 7.045-22.277 1.459-2.629 3.663-4.695 6.133-6.353 3.226-2.161 6.664-1.935 10.287-2.741.241-.052.279-.41.019-.466zM35.629 56.562c1.532-1.217 3.301-2.074 5.491-2.396a21.41 21.41 0 0 1 3.588-.2c.207-.038.404-.092.614-.122 2.349-.334 4.242.328 6.279.964.292.057.584.113.875.172a34.364 34.364 0 0 0-2.324-.966c-3.948-1.457-8.115-1.605-12.123-.346-3.844 1.209-7.272 3.901-10.037 6.746-2.214 2.277-4.896 5.401-4.142 8.807.104.471.911.47.972-.025.561-4.53 4.091-8.044 7.617-10.661a21.74 21.74 0 0 1 3.19-1.973zm67.766 12.025c-5.182 6.419-13.594 6.354-20.328 2.312-2.877-1.727-6.135-2.757-9.121-4.273-1.479-.752-2.84-1.725-4.293-2.524-1.608-.886-3.43-1.344-4.989-2.327-.147-.094-.327.116-.227.253.867 1.187 1.817 1.738 3.119 2.395 2.006 1.009 3.787 2.399 5.748 3.491 2.191 1.222 4.575 2.098 6.842 3.17 2.078.983 3.949 2.273 6.098 3.124 3.621 1.432 7.665 1.356 11.369.315 2.742-.771 6.029-2.638 6.38-5.735.036-.358-.411-.431-.598-.201z"/><path fill="#223D96" d="M100.008 57.922a.735.735 0 0 0-.309-.194c-.061-.222-.129-.439-.186-.663-.121-.487-.531-.636-.9-.545-.11-.109-.223-.219-.338-.325a7.425 7.425 0 0 0-.479-.526 4.658 4.658 0 0 0-.521-.713c-.188-.208-.465-.344-.768-.457-.072-.064-.145-.127-.217-.194a.612.612 0 0 0-.688-.12 3.084 3.084 0 0 1-.354-.158.51.51 0 0 0-.084-.328c-.51-.736-1.025-1.464-1.83-1.898-.322-.174-.688-.058-.893.198-1.248-1.31-3.281-2.002-5.473-2.345a.725.725 0 0 0-.257-.147c-2.674-.879-6.373-1.986-9.139-.799-.492-.118-.984-.236-1.479-.348a.947.947 0 0 0-.307-.011 3.289 3.289 0 0 0-.73-1.29.577.577 0 0 0-.322-.172 10.972 10.972 0 0 0-.483-1.161c-.101-.201-.161-.316-.356-.374-.004-.045.105-.09.105-.136v-1.062c0-.191-.215-.35-.348-.463-.008-.092-.078-.184-.088-.274-.058-.514-.584-.712-.957-.595a.624.624 0 0 0-.332-.147c-.369-1.112-.854-2.188-1.293-3.305-.283-1.503-.238-3.041-.586-4.54-.076-.332-.379-.485-.674-.472.068-.279.133-.56.209-.838.092-.339-.095-.565-.352-.67.479-2.611 1.227-4.993 2.434-7.42 2.801-2.37 6.803-3.316 10.354-2.482.489.115.815-.528.374-.816-2.432-1.585-6.604-.703-9.02.453-3.85 1.842-6.117 5.408-7.197 9.408-1.274 4.726-1.243 9.195-.193 13.932.115.519.801 7.449.002 9.298-1.461.307-2.898.613-4.432.649-1.625.039-3.438-.552-5.044-.208-.465.1-.468.768-.063.935-.445.345-.236 1.275.506 1.299a18.11 18.11 0 0 1 5.209.961c1.119.39 1.959.947 3.107.906 2.975 2.047 7.808 2.822 10.701 1.955 2.632-.788 4.679-2.549 5.664-5.128.422-1.105.39-2.233-.053-3.166.168.032.334.078.5.116.229-.709.832-1.258 1.818-1.195 2.969.189 6.462 1.444 9.363 3.188.061.025.121.052.181.079.267.038.535.14.8.34.059.044.116.072.174.112 1.072.331 2.084.798 2.992 1.472.057.042.104.089.153.134.085.049.163.105.245.157.033.014.068.025.102.042.197.091.352.21.487.34l.004.003c.886.642 1.772 1.338 2.515 2.104-.228-.856-.591-1.663-1.254-2.396zM62.647 61.75c-1.425-3.063-7.638-2.69-10.385-3.249-3.858-.784-7.642-.866-11.307.717-1.499.646-2.836 1.712-4.034 2.797-.48.436-.871 1.035-1.267 1.63a85.804 85.804 0 0 1-1.843 1.926c-.017.009-.031.021-.047.027a.537.537 0 0 0-.294.309c-1.618 1.6-3.263 2.993-5.387 4.273-.257.155-.109.569.182.551 2.376-.155 4.202-1.952 5.785-3.575.143-.146.282-.292.423-.438.856-.354 1.557-1.077 2.208-1.884-.035.058-.079.106-.113.165-.155.261.101.621.401.471 1.34-.673 2.24-2.01 3.315-3.067 1.392-.347 2.669-1.118 4.085-1.312 1.095-.149 2.198-.025 2.994-.896a.52.52 0 0 0 .097-.52c1.738.171 3.491.619 5.316.969 3.061.585 6.098.648 9.041 1.815.415.165 1.07-.194.83-.709z"/><path fill="#C6225D" d="M79.701 95.047a1.676 1.676 0 0 0-.29-.258c.014-.006.032-.01.047-.017.399-.189.479-.665.233-1.008-.336-.469-.642-.451-1.211-.459a17.02 17.02 0 0 0-.99.021c-.006-.008-.006-.019-.012-.024-.375-.395-.845-.515-1.354-.672-.015-.004-.049-.012-.074-.02a.676.676 0 0 0-.2-.176 10.453 10.453 0 0 0-1.563-.718 7.506 7.506 0 0 1-2.035-1.665c-.566-.516-2.344-.256-1.835.412.203.267 1.14.948 1.362 1.173-.021-.018-.047-.033-.067-.051-.644-.541-.879-1.328-1.562-1.826-.295-.214-.711.126-.614.456.575 1.979 1.629 3.121 3.505 4.021.826.396 2.121.739 3.402.859.017.04.039.074.074.098.666.439 1.705-.027 2.237.616.502.61 1.464-.174.947-.762zM53.187 89.9c-.572.775-.944 1.698-1.799 2.221-.576.352-1.436.456-1.704 1.146a.276.276 0 0 0 .221.373c.696.095 1.582-.383 2.18-.69.902-.466 1.479-1.273 2.084-2.052.716-.412-.241-2.003-.982-.998z"/><path fill="#040830" d="M50 76.93c.303 4 4.657 8.117 8.456 9.896.581.271 1.088-.591.505-.863-3.445-1.613-7.683-5.004-7.96-9.033-.044-.641-.623-1-.579 0H50z"/><path fill="#040830" d="M58.677 86.877c1.614.394 3.53.432 5.151.051.628-.147.361-1.112-.266-.965-1.438.338-3.191.298-4.62-.051-.626-.152-.892.812-.265.965z"/><path fill="#040830" d="M69.443 82.71c.089-.49.244-.954.488-1.384.016-.056.03-.117.045-.176-.597.679-1.31 1.276-1.959 1.814-1.369 1.139-2.906 2.118-4.479 2.953-.695.369-.21 1.317.485.949 1.519-.808 3.644-1.825 5.303-3.221.003-.316.037-.631.117-.935zm2.939-5.48a2.04 2.04 0 0 1 .313-.675c.037-.069.082-.132.125-.196v-8.233c0-1.223-1.223-1.223-1.223 0v10.291c.148-.223.291-.445.409-.686a1.93 1.93 0 0 1 .376-.501zM41.99 61.612c-3.646 5.025-8.188 10.976-4.869 17.335 1.244 2.387 3.72 3.985 5.882 5.444 2.718 1.835 8.691 5.823 5.478 9.742-.405.494.298 1.206.707.707 3.891-4.746-2.712-9.31-6.189-11.656-3.414-2.305-6.132-4.932-6.083-9.352.049-4.384 3.501-8.358 5.937-11.718.379-.521-.489-1.019-.863-.502z"/><path fill="#040830" d="M55.986 61.117c-1.33 2.863-5.877 4.161-8.264 6.007-1.153.892-2.134 1.856-2.688 3.224a2.637 2.637 0 0 0-.174 1.472c.101.652 1.031 2.111 1.031 2.111 0 1 1 1 1 0 0 0-.408-.596-.614-.941-.594-.997-.546-2.008-.029-3.012.8-1.552 2.6-2.533 4.024-3.42 2.131-1.327 5.448-2.528 6.577-4.962.27-.581-.592-1.065-.863-.479zm-6.595 33.419c1.399-1.604 2.779-3.203 3.947-4.987.95-1.45 1.321-3.193 2.086-4.733.286-.574-.577-1.082-.863-.504-.691 1.393-1.115 2.895-1.82 4.281-.988 1.947-2.632 3.604-4.056 5.236-.423.483.281 1.194.706.707zm21.94-27.157c.688 2.313 1.563 4.244 1.079 6.731-.372 1.913-1.284 3.588-2.43 5.137-1.569 2.117-2.047 4.479-1.303 7.013.729 2.47 2.82 4.346 4.93 5.656 2.23 1.388 7.445 2.036 7.654 5.268.043.642 1.043.646 1 0-.135-2.082-1.828-3.181-3.543-4.063-3.139-1.614-6.227-2.438-8.324-5.564-2.844-4.24.664-7.237 2.283-10.939 1.506-3.444.629-6.099-.383-9.504-.183-.617-1.148-.354-.963.265z"/><path fill="#040830" d="M81.867 72.63c-3.143 1.466-3.7 5.324-2.819 8.356.621 2.138 2.188 3.949 3.201 5.901 1.573 3.033 1.657 6.982-.356 9.789-.377.524.49 1.023.862.504 2.319-3.229 1.911-7.316.356-10.798-.993-2.228-2.614-3.995-3.309-6.382-.693-2.39.264-5.435 2.567-6.509.586-.27.078-1.132-.502-.861zM53 65.52c0 .001 3.415.008 5.063.694.595.248.901-.721.314-.965-1.723-.718-3.377-.728-5.377-.729-1 0-1 1 0 1 0 0-1 0 0 0zm11.253 1.306c1.422-.866 2.882-1.155 4.533-1.129.646.012.646-.988 0-1-1.819-.029-3.474.312-5.038 1.266-.549.334-.047 1.2.505.863zm-5.554 2.57c-.269-2.705-4.073-1.507-5.792-1.466l.482.367c-.069-.349-.206-.499-.484-.707-.517-.387-1.014.48-.505.863l.025.108c.042.212.272.372.482.367.936-.022 4.646-1.006 4.792.466.063.637 1.063.644 1 .002z"/><path fill="#040830" d="M53.693 68.346c-.593 2.508 4.091 2.204 3.833.032-.075-.632-1.076-.641-1 0 .102.859-2.066 1.066-1.869.232.149-.625-.816-.892-.964-.264z"/><path fill="#040830" d="M55.674 68.15c-.258.077-.483.084-.73.204-.458.224-.225.938.252.933a4.75 4.75 0 0 0 1.354-.223c.559-.168.421-.94-.133-.981a4.347 4.347 0 0 0-1.559.171c-.386.11-.53.724-.12.914.613.284 1.151.313 1.811.204.254-.043.435-.378.349-.615-.106-.294-.242-.614-.574-.706-.229-.063-.381.09-.57.083-.645-.023-.643.977 0 1 .091.003.178-.01.267-.03.448-.104-.081-.063-.087-.081l.349-.615c-.374.063-.692.061-1.041-.103l-.12.914a3.554 3.554 0 0 1 1.293-.136l-.133-.982c-.372.112-.7.182-1.089.188l.252.932c.128-.063.349-.061.491-.103.621-.188.357-1.153-.262-.968zm9.691 1.246c.146-1.472 3.855-.487 4.793-.466.209.005.439-.155.482-.367a2.3 2.3 0 0 0 .022-.108c.509-.384.012-1.251-.504-.863-.278.209-.415.359-.484.707l.482-.367c-1.72-.041-5.524-1.239-5.793 1.466-.062.64.94.633 1.002-.002z"/><path fill="#040830" d="M68.404 68.612c.203.829-2.068.639-1.963-.232.076-.641-.924-.632-1 0-.266 2.179 4.539 2.481 3.929-.032-.152-.629-1.117-.362-.966.264z"/><path fill="#040830" d="M67.125 69.115c.143.042.361.04.49.104l.252-.932a3.766 3.766 0 0 1-1.088-.188c-.045.328-.09.655-.133.982.455-.033.854.01 1.293.136-.041-.305-.08-.609-.119-.914-.35.162-.668.166-1.041.103.115.205.232.41.35.615-.038.104-.49-.083-.15.056a.782.782 0 0 0 .33.057c.643-.023.646-1.023 0-1-.188.007-.342-.146-.57-.083-.332.092-.467.412-.573.706-.085.237.095.572.351.615.659.109 1.197.08 1.811-.204.41-.19.267-.804-.119-.914a4.395 4.395 0 0 0-1.559-.171c-.555.041-.691.813-.133.981.451.137.879.217 1.354.223.479.006.71-.709.252-.933-.246-.12-.471-.127-.729-.204-.623-.186-.885.78-.269.965zm-8.288 6.216c.509 2.027 3.906 2.302 4.883.526.312-.563-.552-1.068-.863-.504-.563 1.021-2.757.9-3.056-.289-.157-.624-1.121-.359-.964.267zm-1.382 5.032c1.372.57 2.528 1.241 4.052 1.188 1.365-.047 2.965-.399 4.069-1.239.507-.385.01-1.254-.504-.863-1.105.841-2.661 1.071-4.01 1.118-1.166.04-2.298-.733-3.341-1.169-.596-.247-.852.721-.266.965zm-32.419-8.398c6.296-.321 10.542-5.821 15.539-8.938 4.082-2.545 8.972-2.422 13.549-1.726 3.177.483 6.704 1.723 9.934 1.593.592-.022.644-.777.133-.981-.061-.024-.123-.05-.184-.073-.6-.238-.857.729-.266.965l.184.073.133-.982c-3.417.138-7.186-1.179-10.562-1.691-3.956-.604-7.884-.498-11.622 1.028-6.044 2.469-9.757 9.38-16.683 9.732-.642.032-1.168.908-.523.875l.368.125z"/><path fill="#040830" d="M25.301 71c-4.205-1.24 1.719-8.734 3.069-10.461 3.298-4.219 7.752-6.72 13.121-7.399 7.328-.929 13.471 3.412 19.14 7.434 5.803 4.118 12.041 7.419 18.37 10.655 6.799 3.479 20.467 8.714 24.683-1.356 1.942-4.646-.912-9.846-3.889-13.271a24.736 24.736 0 0 0-14.746-8.188c-3.026-.487-6.049-.637-9.049-.639-1 0-1 1 0 1 6 .004 12.729.646 18.284 4.313 5.179 3.417 10.69 9.889 8.461 16.517-1.81 5.377-9.3 5.711-13.837 4.604-7.104-1.735-13.684-6.125-20.096-9.5-6.147-3.235-11.213-8.156-17.576-11.042-4.935-2.24-10.838-2.146-15.787.039-3.806 1.68-6.292 4.1-8.729 7.358-1.763 2.357-4.373 5.832-3.784 8.989.197 1.054 1.154 1.635 2.097 1.913.623.182.885-.783.268-.966zM66 84.93v6c0 1 1 1 1 0v-6c0-1-1-1-1 0 0 0 0-1 0 0zm-9.26.354c-.213-.188-.481-.322-.724-.48-.004.043-.016.078-.016.126v6c0 1 1 1 1 0v-5.529a.491.491 0 0 1-.26-.117z"/><path fill="#040830" d="M67.309 90.077c1.391.063 2.879-.064 4.221.362.615.196.878-.77.266-.965-1.43-.455-3.006-.33-4.484-.397-.648-.03-.645.97-.003 1zm-11.374-1.154c-1.27.004-2.979-.017-3.866 1.063-.406.494.297 1.206.707.707.704-.855 2.156-.768 3.159-.771.644-.001.645-1.001 0-.999zm-6.29.869c-1.402-.266-3.257.061-4.522.714-.573.296-.067 1.159.505.863 1.013-.523 2.629-.824 3.751-.612.63.119.899-.844.266-.965z"/><path fill="#040830" d="M47.04 90.59v.01c-.04.24-.2.47-.5.5-2.57.32-3.63 2.49-4.07 4.86l-.1-.05-.93-.551c.64-2.779 2.04-4.939 5.1-5.33.38-.039.55.271.5.561zm33.49 9.15l.55-.31c-.1-1.95-.33-3.86-.93-5.46-.351-.01-.7-.11-1.04-.26-.13-.061-.25-.12-.37-.181.04.091.09.181.12.271.84 1.86.939 4.3 1.01 6.14 0 .061 0 .12.01.181l.65-.381zm-5.085-83.018c-4.963-1.165-10.068.211-14.051 3.284-3.678 2.838-7.269 8.581-8.988 12.612-2.22 5.208-4.67 14.22-4.904 20.055-.024.596.9.594.924 0 .112-2.778 1.633-8.869 2.449-11.493.641-2.056 1.583-5.096 2.359-7.078 1.764-4.499 4.158-8.942 7.654-12.434 3.978-3.971 9.725-5.132 15.073-3.877 2.252.529 4.434 1.508 6.166 3.056 2.04 1.822-1.079 1.711-2.136 1.621-1.007-.086-1.976.043-2.966.201-3.409.542-5.608 2.663-6.666 5.853-1.069 3.225-1.354 7.692.277 10.717 1.146 2.126 2.344 4.188 3.381 6.374 1.082 2.279 2.869 8.513 1.789 11.063-.688 1.625-6.645.271-7.813-.004-2.253-.529-10.349-1.47-12.624-1.104-.587.095-.337.984.246.894 2.813-.454 10.343 1.46 16.632 1.767 1.031.051 2.423.417 3.365-.146 3.087-1.848.57-9.84-.461-12.203-1.077-2.461-2.401-4.771-3.719-7.106-1.42-2.521-1.006-6.058-.483-8.827.549-2.915 2.088-5.014 4.905-6.033 2.627-.95 5.252.012 7.865-.624a.464.464 0 0 0 .34-.446c-.196-3.786-5.65-5.427-8.614-6.122zM55.893 91.25c.732 4.08 9.609 3.613 11.351.619.324-.56-.539-1.063-.863-.505-1.337 2.298-8.971 2.701-9.524-.381-.114-.632-1.077-.362-.964.267zm-8.518-14.757c.645 0 .645-1 0-1s-.645 1 0 1zm2.828-10.75a.506.506 0 0 1-.171-.055c-.016.076-.032.15-.032.242v11c0 1 1 1 1 0v-11c0-.159-.031-.283-.074-.392-.218.135-.443.234-.723.205z"/><path d="M18.729 29.165v53.12l46.074 26.56 46.072-26.56v-53.12L64.804 2.605l-46.075 26.56zm90.285 1.08v50.97l-44.21 25.49-44.211-25.49v-50.97L64.804 4.756l44.21 25.489z" opacity=".13"/></svg>