<?xml version="1.0" encoding="utf-8"?>
<!-- Generator: Adobe Illustrator 21.0.2, SVG Export Plug-In . SVG Version: 6.00 Build 0)  -->
<svg version="1.1" id="Layer_1" xmlns="http://www.w3.org/2000/svg" xmlns:xlink="http://www.w3.org/1999/xlink" x="0px" y="0px"
	 viewBox="0 0 110.8748 128.0417" style="enable-background:new 0 0 110.8748 128.0417;" xml:space="preserve">
<style type="text/css">
	.st0{fill:#FFD43B;}
	.st1{fill:#FFFFFF;}
	.st2{opacity:0.13;enable-background:new    ;}
	.st3{fill:#5A9FD4;}
	.st4{fill:#FFEC00;stroke:#ED9829;stroke-width:1.5;stroke-miterlimit:10;}
	.st5{fill:none;stroke:#ED9829;stroke-width:0.5;stroke-miterlimit:10;}
	.st6{fill:#646464;}
	.st7{fill:url(#path1948_1_);}
	.st8{fill:url(#path1950_1_);}
	.st9{opacity:0.4438;fill:url(#path1894_1_);enable-background:new    ;}
</style>
<g id="Layer_63_11_">
	<polygon class="st0" points="110.8572,32.0116 110.8572,96.0116 55.4373,128.0116 11.0873,102.4117 10.8873,102.2917 
		0.0073,96.0116 0.0073,32.0116 55.4373,0.0116 	"/>
</g>
<path class="st1" d="M101.9206,37.6517v53.14l-0.01,0.01l-1.09,0.62l-0.33,0.19l-0.1299,0.07l-0.88,0.5099l-3.14,1.81l-0.2,0.12
	l-1.93,1.11l-0.16,0.09l-1.48,0.86l-0.47,0.27l-0.14,0.08l-0.47,0.27l-0.24,0.13l-0.03,0.0099l-0.1,0.04l-0.11,0.07l-3.03,1.74
	l-0.82,0.47l-1.05,0.6l-0.04,0.03l-1.23,0.71l-0.45,0.26l-0.01,0.0099l-0.01,0.01h-0.0099l-1.54,0.89l-0.87,0.52l-1.26,0.72
	l-0.12,0.07l-0.08,0.05l-0.41,0.24l-0.03,0.01l-0.16,0.09v0.01l-0.78,0.45l-0.1801,0.09l-0.02,0.02l-0.04,0.02l-1.0099,0.58
	l-0.29,0.17l-0.05,0.03l-0.32,0.18l-0.24,0.14h-0.01l-0.07,0.04l-0.64,0.38l-0.2,0.12l-4.42,2.55l-0.63,0.36l-0.06,0.03l-3.5,2.03
	l-0.02,0.01l-0.01,0.0099l-0.75,0.43l-0.5,0.29l-1.39,0.8l-1.37,0.79l-0.01,0.01l-0.43,0.25l-0.4,0.23l-2.36,1.36l-0.36,0.21
	l-0.04,0.02l-0.68,0.39l-1.8701,1.08l-0.56,0.3199h-0.0099l-0.32,0.19l-0.48,0.28l-1.42-0.82l-0.85-0.49l-0.03-0.01l-1.74-1.01
	l-3.53-2.04l-0.04-0.03l-2.07-1.19l-5.36-3.11l-0.69-0.39l-4.72-2.74l-0.37-0.21l-0.39-0.22l-0.23-0.13l-0.2599-0.15l-0.2401-0.15
	l-0.09-0.05l-1.85-1.06l-0.5699-0.33l-1.71-0.99l-2.51-1.46l-2.09-1.2l-0.82-0.47l-0.09-0.05l-0.5-0.29l-0.01-0.0099l-0.21-0.1201
	h-0.01l-1.04-0.6c-0.0099-0.01-0.0099-0.01-0.02-0.01l-1.86-1.08l-1.02-0.59l-1.33-0.77l-0.72-0.43l-0.04-0.02l-0.02-0.0099
	l-0.29-0.17c0,0-0.01,0-0.02-0.0099l-0.26-0.15l-0.02-0.01l-3.3-1.9l-3.41-1.97l-0.09-0.05l-0.08-0.04l-0.03-0.02v-53.14l5.66-3.26
	l0.77-0.46h0.01l0.25-0.14l0.58-0.33l1.75-1.01l2.27-1.31l0.82-0.48l0.15-0.09l2.07-1.19l0.98-0.57l1.0099-0.59l0.42-0.24l0.45-0.26
	l0.25-0.14c0.0099,0,0.0099,0,0.0099,0l0.57-0.33l3.23-1.86l1.58-0.92l0.17-0.09l1.66-0.95l0.78-0.45l0.3799-0.22l0.44-0.26
	l1.1-0.65l0.52-0.3l2.28-1.3l0.69-0.41l1.4-0.8h0.0099l0.05-0.03l5.72-3.3l0.19-0.11l0.27-0.16l6.07-3.5099l1.44-0.83l1.06,0.62
	l6.49,3.75l2.6,1.5l3.95,2.28l1.34,0.77l6.64,3.83l1.04,0.61l2.3,1.31l0.87,0.5l1.52,0.88l1.37,0.79l0.8,0.46l0.09,0.06l1.8101,1.04
	l3.78,2.1801l0.04,0.03v0.01l0.26,0.14l0.26,0.16l0.4,0.23l0.92,0.53l0.54,0.31l0.02,0.01l1.92,1.11l0.78,0.44l0.44,0.25l1.94,1.12
	L101.9206,37.6517z"/>
<g id="Layer_2_7_">
	<g id="Layer_16_7_">
		<path class="st2" d="M94.6502,33.4416l-0.9989-0.57l-8.1413-4.7l-1.7082-0.98l-2.5473-1.48l-5.3243-3.07l-19.4892-11.24
			l-0.5294-0.31l-0.4695,0.27l-22.1364,12.78l-2.9069,1.68l-4.3354,2.5l-0.7492,0.43l-0.01,0.01l-5.6639,3.26l-0.9989,0.58
			l-7.2123,4.16l-1.5383,0.89v53.12l0.0699,0.04l1.7181,1l0.7492,0.4301l0.1499,0.08l9.0104,5.21l1.7581,1.01l3.3664,1.95
			l5.3842,3.1l3.1467,1.82l0.8791,0.5l1.3385,0.78l0.8891,0.51l0.4895,0.28l0.6693,0.39l4.0956,2.36l6.563,3.79l4.4752,2.58
			l1.0389,0.6l0.2297,0.13l0.3796-0.22l0.3097-0.18l2.5773-1.48l8.4409-4.87l0.6693-0.39l3.1566-1.82h0.01l0.4395-0.2599
			l4.7849-2.76l0.8991-0.52l5.1745-2.98l0.3796-0.22l1.1188-0.65l2.9669-1.71l1.5583-0.9l11.238-6.49l0.899-0.52l1.0289-0.59v-53.12
			L94.6502,33.4416z M100.0745,89.7016l-0.5195,0.3l-0.3197,0.1801l-0.5794,0.34l-7.5919,4.38l-4.6551,2.69l-3.1266,1.8
			l-1.2787,0.74l-0.7192,0.41l-3.9059,2.26l-1.1587,0.67l-0.8991,0.52l-3.9158,2.25l-0.0799,0.05l-0.8691,0.5l-3.0567,1.77
			l-1.5383,0.89l-7.8117,4.51l-2.1377,1.23l-4.685-2.7l-3.8259-2.21l-6.0335-3.48l-1.8381-1.06l-2.0578-1.1801l-0.899-0.52
			l-0.8391-0.49l-0.6393-0.37l-7.1623-4.14l-3.9058-2.26l-1.7581-1.01l-3.4163-1.97l-4.9148-2.84l-0.899-0.51l-0.3896-0.23
			l-0.2297-0.13l-0.6693-0.39v-50.97l6.8927-3.98l0.9989-0.58l7.6119-4.39l4.6451-2.68c0.0099-0.01,0.0099-0.01,0.0199-0.01
			l1.3286-0.77l0.7292-0.42l21.4671-12.39l0.4695-0.27l0.5294,0.31l16.8121,9.71l6.9825,4.03l2.4973,1.44l1.9479,1.12l8.9704,5.17
			l0.9989,0.58l5.4243,3.13V89.7016z"/>
	</g>
</g>
<g>
	<path class="st3" d="M57.3077,121.4072c-0.1318-0.2246-0.1836-0.4346-0.1582-0.6289c0.0234-0.1748,0.1016-0.3018,0.2344-0.3799
		s0.2822-0.084,0.4463-0.0186c0.1826,0.0732,0.3418,0.2246,0.4766,0.4541c0.1338,0.2305,0.1885,0.4434,0.1621,0.6377
		c-0.0234,0.1748-0.1016,0.3018-0.2334,0.3799c-0.1328,0.0771-0.2813,0.083-0.4473,0.0186
		C57.6055,121.7969,57.4454,121.6436,57.3077,121.4072z M57.5167,121.2861c0.0908,0.1563,0.1943,0.2705,0.3086,0.3418
		c0.1133,0.0703,0.2129,0.0801,0.2959,0.0313c0.084-0.0488,0.123-0.1396,0.1182-0.2734s-0.0518-0.2764-0.1416-0.4297
		c-0.0898-0.1543-0.1924-0.2666-0.3057-0.335c-0.1143-0.0693-0.2129-0.0801-0.2959-0.0313s-0.1221,0.1396-0.1172,0.2734
		C57.3829,120.9941,57.4288,121.1357,57.5167,121.2861z"/>
	<path class="st3" d="M58.921,120.7744l-0.5566-0.2197l0.2441-0.1436l0.3486,0.1436l0.0508-0.377l0.251-0.1475l-0.0898,0.5996
		l0.6611,0.2578l-0.2441,0.1436l-0.4551-0.1797l-0.0732,0.4883l-0.25,0.1465L58.921,120.7744z"/>
	<path class="st3" d="M60.1046,119.5361l0.2061-0.1201l0.5186,0.8867l-0.2061,0.1211l-0.0537-0.0928
		c-0.0391,0.1279-0.1064,0.2207-0.2041,0.2773c-0.123,0.0723-0.25,0.0879-0.3818,0.0459c-0.1328-0.0449-0.2393-0.1338-0.3184-0.2695
		c-0.0781-0.1338-0.1025-0.2676-0.0752-0.4023c0.0283-0.1357,0.1016-0.2393,0.2207-0.3086
		c0.1035-0.0605,0.2217-0.0723,0.3535-0.0342L60.1046,119.5361z M59.8751,120.2627c0.0498,0.085,0.1133,0.1406,0.1904,0.168
		c0.0781,0.0264,0.1533,0.0186,0.2236-0.0225c0.0762-0.0449,0.1221-0.1074,0.1387-0.1875c0.0156-0.0811-0.002-0.1641-0.0508-0.2471
		c-0.0479-0.083-0.1123-0.1377-0.1904-0.165c-0.0781-0.0254-0.1543-0.0156-0.2285,0.0273c-0.0713,0.042-0.1133,0.1035-0.1309,0.1846
		C59.8126,120.1016,59.8292,120.1836,59.8751,120.2627z"/>
	<path class="st3" d="M61.6495,119.2959l0.1494-0.0869l0.1133,0.1934l-0.1494,0.0869l0.1162,0.1992l-0.2119,0.125l-0.1172-0.1992
		l-0.6904,0.4043l0.1348-1.8418L61.6495,119.2959z M61.4366,119.4209l-0.2754-0.4717l-0.0488,0.6611L61.4366,119.4209z"/>
	<path class="st3" d="M61.9913,117.6689l0.2246,0.0244l-0.0684,0.6543c0.0166-0.0127,0.0313-0.0234,0.043-0.0322
		s0.0215-0.0156,0.0293-0.0195c0.1143-0.0674,0.2383-0.0811,0.3721-0.043c0.1338,0.0391,0.2354,0.1182,0.3066,0.2402
		c0.0752,0.1289,0.0947,0.2666,0.0566,0.4131c-0.0391,0.1455-0.1221,0.2549-0.251,0.3301c-0.1279,0.0752-0.2666,0.0957-0.415,0.0605
		c-0.1475-0.0352-0.2578-0.1143-0.3301-0.2383c-0.0645-0.1113-0.0879-0.2568-0.0693-0.4355L61.9913,117.6689z M62.6993,118.627
		c-0.043-0.0732-0.1055-0.1211-0.1875-0.1445c-0.083-0.0205-0.1611-0.0098-0.2354,0.0332s-0.1211,0.1064-0.1426,0.1875
		c-0.0215,0.082-0.0107,0.1602,0.0322,0.2334s0.1055,0.1221,0.1875,0.1416c0.082,0.0225,0.1602,0.0117,0.2344-0.0322
		c0.0732-0.043,0.1201-0.1055,0.1416-0.1875C62.752,118.7764,62.7413,118.6992,62.6993,118.627z"/>
	<path class="st3" d="M63.3643,117.9434l-0.1064-0.1816c0.0898-0.0527,0.1445-0.0986,0.1641-0.1357
		c0.0342-0.0684,0.0293-0.1416-0.0166-0.2197c-0.0352-0.0586-0.084-0.0957-0.1465-0.1113c-0.0615-0.0146-0.124-0.0039-0.1875,0.0332
		c-0.0586,0.0342-0.0957,0.0752-0.1113,0.123c-0.0137,0.0479-0.0078,0.1104,0.0166,0.1875l-0.2109,0.124
		c-0.0557-0.1445-0.0674-0.2676-0.0352-0.3691c0.0313-0.1016,0.1084-0.1885,0.2305-0.2598c0.124-0.0723,0.2451-0.0947,0.3662-0.0674
		c0.1201,0.0273,0.2129,0.0977,0.2803,0.2109c0.0752,0.1309,0.083,0.2598,0.0225,0.3916c0.1572-0.001,0.2803,0.0762,0.3711,0.2314
		c0.0742,0.127,0.0918,0.2549,0.0537,0.3848s-0.124,0.2334-0.2568,0.3115c-0.1699,0.0986-0.332,0.1113-0.4873,0.0342
		c-0.0645-0.0332-0.1279-0.0918-0.1914-0.1787l0.2061-0.1201c0.0498,0.0615,0.1074,0.0977,0.1699,0.1094
		c0.0645,0.0117,0.1299-0.002,0.1982-0.042s0.1113-0.0967,0.1299-0.168c0.0176-0.0732,0.0059-0.1465-0.0361-0.2178
		c-0.0557-0.0957-0.1289-0.1426-0.2197-0.1426C63.5138,117.8701,63.4464,117.8945,63.3643,117.9434z"/>
	<path class="st3" d="M65.1222,117.2607l-0.6367,0.3721c0.0479,0.0703,0.1064,0.1143,0.1729,0.1328
		c0.0674,0.0176,0.1328,0.0078,0.1992-0.0303c0.0508-0.0303,0.0859-0.0674,0.1055-0.1104c0.0176-0.0439,0.0293-0.1113,0.0332-0.2002
		l0.2285-0.0059c0.001,0.0615-0.0049,0.1172-0.0156,0.167c-0.0107,0.0508-0.0273,0.0947-0.0488,0.1357s-0.0498,0.0781-0.083,0.1104
		c-0.0342,0.0342-0.0742,0.0635-0.1201,0.0898c-0.1328,0.0781-0.2637,0.0977-0.3936,0.0605
		c-0.1299-0.0391-0.2373-0.1299-0.3203-0.2715c-0.082-0.1396-0.1094-0.2773-0.082-0.4092c0.0283-0.1318,0.1064-0.2354,0.2354-0.3115
		c0.1309-0.0762,0.2598-0.0938,0.3838-0.0557c0.124,0.0391,0.2285,0.1309,0.3145,0.2764L65.1222,117.2607z M64.8126,117.2168
		c-0.0918-0.0938-0.1934-0.1074-0.3027-0.0439c-0.0244,0.0146-0.0459,0.0322-0.0635,0.0518c-0.0176,0.0205-0.0303,0.043-0.04,0.0684
		s-0.0156,0.0518-0.0156,0.0801c-0.002,0.0254,0.002,0.0547,0.0107,0.085L64.8126,117.2168z"/>
	<path class="st3" d="M65.5489,116.665l-0.1064-0.1816c0.0898-0.0527,0.1445-0.0986,0.165-0.1357
		c0.0332-0.0684,0.0283-0.1416-0.0176-0.2197c-0.0352-0.0596-0.084-0.0967-0.1455-0.1113s-0.125-0.0039-0.1885,0.0332
		c-0.0586,0.0342-0.0957,0.0752-0.1113,0.1221c-0.0137,0.0488-0.0078,0.1113,0.0176,0.1885l-0.2119,0.124
		c-0.0557-0.1445-0.0674-0.2676-0.0352-0.3691s0.1094-0.1885,0.2314-0.2598c0.123-0.0723,0.2451-0.0947,0.3652-0.0674
		c0.1211,0.0273,0.2139,0.0967,0.2813,0.2109c0.0752,0.1299,0.082,0.2598,0.0225,0.3916c0.1563-0.001,0.2803,0.0762,0.3701,0.2314
		c0.0742,0.127,0.0918,0.2549,0.0547,0.3848c-0.0391,0.1299-0.125,0.2334-0.2578,0.3115c-0.1689,0.0986-0.3311,0.1113-0.4863,0.0342
		c-0.0645-0.0332-0.1279-0.0918-0.1914-0.1787l0.2051-0.1201c0.0508,0.0615,0.1074,0.0977,0.1709,0.1094s0.1299-0.002,0.1973-0.042
		c0.0693-0.04,0.1123-0.0967,0.1309-0.168c0.0176-0.0732,0.0049-0.1465-0.0361-0.2178c-0.0566-0.0957-0.1299-0.1436-0.2197-0.1426
		C65.6993,116.5918,65.6319,116.6162,65.5489,116.665z"/>
	<path class="st3" d="M66.3995,115.4219l-0.2432,0.1426v-0.2676l0.3389-0.1982l0.8232,1.4072l-0.2119,0.125L66.3995,115.4219z"/>
	<path class="st3" d="M68.1036,115.7793l0.5244-0.3066l0.1162,0.1992l-0.9453,0.5527l0.1426-0.877
		c0.0137-0.0869,0.0244-0.1611,0.0313-0.2246c0.0078-0.0615,0.0107-0.1123,0.0107-0.1504c0.001-0.0781-0.0107-0.1396-0.0381-0.1846
		c-0.0391-0.0664-0.0938-0.1074-0.166-0.125c-0.0713-0.0166-0.1426-0.0068-0.21,0.0332c-0.1426,0.083-0.1748,0.2158-0.0967,0.3955
		l-0.2109,0.124c-0.1396-0.3164-0.0771-0.5518,0.1885-0.707c0.1279-0.0752,0.2598-0.0977,0.3945-0.0674
		c0.1357,0.0303,0.2373,0.1055,0.3076,0.2266c0.0449,0.0762,0.0684,0.1631,0.0713,0.2598c0.002,0.0518-0.002,0.1133-0.0107,0.1904
		c-0.0098,0.0752-0.0234,0.167-0.042,0.2744L68.1036,115.7793z"/>
	<path class="st3" d="M68.8399,114.6816l0.4063,0.6963l-0.2051,0.1211l-0.4072-0.6963l-0.0732,0.043l-0.1123-0.1914l0.0732-0.043
		l-0.2012-0.3428c-0.0654-0.1123-0.0918-0.2021-0.0801-0.2715c0.0156-0.0957,0.0752-0.1738,0.1768-0.2334
		c0.0371-0.0215,0.0889-0.0371,0.1563-0.0488l0.123,0.2109l-0.0273,0.001c-0.0576,0.0029-0.1006,0.0127-0.1289,0.0303
		c-0.0371,0.0215-0.0537,0.0479-0.0518,0.082c0.0029,0.0332,0.0254,0.0859,0.0674,0.1582l0.1719,0.293l0.2236-0.1309l0.1113,0.1914
		L68.8399,114.6816z"/>
	<path class="st3" d="M69.7335,113.4707l-0.4336,0.2539l0.0674,0.2734c0.0088-0.0068,0.0186-0.0137,0.0273-0.0186
		c0.0098-0.0068,0.0176-0.0127,0.0254-0.0176c0.1367-0.0801,0.2764-0.0986,0.418-0.0576s0.2549,0.1318,0.3379,0.2744
		c0.0879,0.1484,0.1084,0.2998,0.0654,0.4551c-0.043,0.1543-0.1406,0.2754-0.292,0.3633c-0.1865,0.1094-0.3848,0.1084-0.5947-0.0029
		l0.0811-0.2305c0.0889,0.0498,0.1641,0.0762,0.2275,0.0811c0.0625,0.0049,0.126-0.0127,0.1914-0.0498
		c0.085-0.0508,0.1387-0.1221,0.1621-0.2158c0.0215-0.0947,0.0068-0.1865-0.0439-0.2734c-0.0527-0.0908-0.125-0.1475-0.2148-0.1709
		c-0.0918-0.0254-0.1807-0.0127-0.2666,0.0371c-0.0947,0.0557-0.1533,0.1465-0.1738,0.2695l-0.0703,0.041l-0.2119-0.8701
		l0.582-0.3398L69.7335,113.4707z"/>
	<path class="st3" d="M70.2735,113.8203c-0.1309-0.2246-0.1836-0.4336-0.1572-0.6289c0.0234-0.1748,0.1006-0.3018,0.2334-0.3789
		c0.1338-0.0781,0.2832-0.084,0.4463-0.0186c0.1836,0.0723,0.3428,0.2246,0.4775,0.4541c0.1338,0.2305,0.1875,0.4424,0.1611,0.6377
		c-0.0225,0.1748-0.1006,0.3018-0.2334,0.3789c-0.1318,0.0771-0.2813,0.083-0.4463,0.0186
		C70.5723,114.2109,70.4112,114.0566,70.2735,113.8203z M70.4825,113.6992c0.0918,0.1563,0.1953,0.2705,0.3096,0.3418
		c0.1133,0.0703,0.2119,0.0811,0.2959,0.0313c0.083-0.0479,0.123-0.1396,0.1172-0.2734c-0.0039-0.1328-0.0508-0.2764-0.1406-0.4297
		c-0.0898-0.1543-0.1924-0.2656-0.3066-0.334c-0.1133-0.0703-0.2119-0.0801-0.2949-0.0313
		c-0.083,0.0479-0.1221,0.1387-0.1172,0.2725C70.3497,113.4082,70.3946,113.5488,70.4825,113.6992z"/>
	<path class="st3" d="M71.6602,112.9844c-0.1465-0.0127-0.2559-0.082-0.3291-0.208c-0.0674-0.1143-0.084-0.2334-0.0508-0.3555
		c0.0342-0.123,0.1104-0.2178,0.2275-0.2861s0.2363-0.0879,0.3584-0.0566c0.1221,0.0303,0.2178,0.1035,0.2852,0.2188
		c0.0703,0.1211,0.0771,0.251,0.0186,0.3867c0.0752-0.002,0.1455,0.0156,0.2119,0.0557c0.0674,0.0391,0.1211,0.0938,0.1641,0.168
		c0.0732,0.124,0.0928,0.251,0.0576,0.377c-0.0352,0.1279-0.1162,0.2285-0.2432,0.3027c-0.1299,0.0762-0.2607,0.0986-0.3916,0.0674
		c-0.1328-0.0293-0.2344-0.1064-0.3057-0.2275C71.5714,113.2695,71.5704,113.1221,71.6602,112.9844z M71.5294,112.6592
		c0.0352,0.0596,0.0859,0.0986,0.1504,0.1143c0.0645,0.0176,0.127,0.0098,0.1855-0.0244c0.0576-0.0342,0.0947-0.084,0.1123-0.1494
		c0.0166-0.0654,0.0088-0.126-0.0244-0.1846c-0.0342-0.0576-0.084-0.0947-0.1494-0.1123c-0.0654-0.0166-0.1279-0.0098-0.1855,0.0244
		s-0.0947,0.084-0.1123,0.1494C71.4893,112.543,71.4962,112.6025,71.5294,112.6592z M71.8682,113.2979
		c0.0381,0.0654,0.0928,0.1084,0.166,0.1279c0.0723,0.0195,0.1406,0.0107,0.2061-0.0273c0.0645-0.0371,0.1064-0.0938,0.125-0.165
		c0.0186-0.0732,0.0088-0.1426-0.0293-0.2061c-0.0371-0.0654-0.0928-0.1074-0.165-0.126s-0.1406-0.0088-0.2051,0.0283
		c-0.0635,0.0371-0.1055,0.0918-0.125,0.165C71.8223,113.166,71.8311,113.2354,71.8682,113.2979z"/>
	<path class="st3" d="M72.7989,111.2324l0.2061-0.1201l0.9014,1.54l-0.207,0.1201l-0.0537-0.0928
		c-0.0342,0.126-0.1035,0.2188-0.2051,0.2793c-0.1221,0.0703-0.248,0.0859-0.3809,0.0439
		c-0.1318-0.0439-0.2383-0.1338-0.3174-0.2686c-0.0781-0.1328-0.1025-0.2666-0.0752-0.4023s0.0996-0.2393,0.2197-0.3096
		c0.1035-0.0605,0.2227-0.0723,0.3535-0.0342L72.7989,111.2324z M72.9522,112.6113c0.0498,0.085,0.1123,0.1406,0.1895,0.168
		c0.0791,0.0264,0.1533,0.0195,0.2246-0.0225c0.0752-0.0439,0.1221-0.1064,0.1377-0.1865c0.0156-0.0811-0.001-0.1641-0.0498-0.2471
		s-0.1123-0.1377-0.1904-0.165c-0.0781-0.0254-0.1543-0.0166-0.2295,0.0273c-0.0703,0.041-0.1133,0.1035-0.1299,0.1836
		C72.8888,112.4502,72.9054,112.5322,72.9522,112.6113z"/>
	<path class="st3" d="M74.3106,110.793l-0.4346,0.2539l0.0674,0.2744c0.0088-0.0078,0.0186-0.0146,0.0273-0.0195
		c0.0098-0.0068,0.0176-0.0127,0.0254-0.0176c0.1367-0.0801,0.2764-0.0986,0.418-0.0566c0.1426,0.04,0.2549,0.1318,0.3379,0.2744
		c0.0879,0.1484,0.1094,0.2988,0.0654,0.4541c-0.043,0.1543-0.1406,0.2754-0.292,0.3643c-0.1865,0.1094-0.3848,0.1084-0.5947-0.0039
		l0.0811-0.2305c0.0889,0.0498,0.1641,0.0762,0.2275,0.082c0.0625,0.0039,0.126-0.0127,0.1914-0.0508
		c0.085-0.0498,0.1387-0.1221,0.1621-0.2158c0.0215-0.0947,0.0068-0.1865-0.0439-0.2725c-0.0527-0.0918-0.125-0.1475-0.2148-0.1719
		c-0.0918-0.0254-0.1807-0.0127-0.2666,0.0371c-0.0947,0.0557-0.1533,0.1465-0.1738,0.2695l-0.0703,0.041l-0.2119-0.8691
		l0.582-0.3408L74.3106,110.793z"/>
	<path class="st3" d="M74.9864,110.3975l-0.2432,0.1426v-0.2666l0.3389-0.1982l0.8242,1.4072l-0.2129,0.124L74.9864,110.3975z"/>
	<path class="st3" d="M76.7872,111.0303l-0.2236-0.0234l0.0684-0.6553c-0.0166,0.0127-0.0313,0.0234-0.0439,0.0322
		c-0.0117,0.0088-0.0215,0.0156-0.0293,0.0205c-0.1133,0.0664-0.2383,0.0801-0.3721,0.043
		c-0.1328-0.0391-0.2354-0.1191-0.3057-0.2402c-0.0762-0.1289-0.0947-0.2676-0.0566-0.4121c0.0381-0.1465,0.1211-0.2568,0.251-0.332
		c0.1279-0.0752,0.2666-0.0957,0.4141-0.0605c0.1484,0.0371,0.2578,0.1152,0.3301,0.2383c0.0645,0.1094,0.0869,0.2549,0.0693,0.4365
		L76.7872,111.0303z M76.0782,110.0713c0.0449,0.0752,0.1084,0.124,0.1904,0.1455s0.1611,0.0117,0.2344-0.0313
		c0.0732-0.0439,0.1201-0.1064,0.1416-0.1885s0.0107-0.1611-0.0313-0.2344c-0.043-0.0732-0.1064-0.1211-0.1895-0.1426
		c-0.0811-0.0215-0.1602-0.0107-0.2344,0.0322c-0.0723,0.043-0.1191,0.1055-0.1406,0.1875S76.0372,109.999,76.0782,110.0713z"/>
	<path class="st3" d="M76.9259,108.8184l0.4424,0.7559c0.0322-0.1338,0.0996-0.2314,0.2031-0.292
		c0.1201-0.0703,0.2461-0.084,0.3779-0.04c0.1318,0.042,0.2363,0.1289,0.3135,0.2617c0.0801,0.1357,0.1064,0.2725,0.0781,0.4092
		c-0.0273,0.1357-0.1025,0.2383-0.2236,0.3096c-0.1035,0.0596-0.2178,0.0732-0.3447,0.043l0.0547,0.0928l-0.2061,0.1201
		l-0.9004-1.54L76.9259,108.8184z M78.0587,109.6348c-0.0498-0.084-0.1133-0.1406-0.1914-0.167
		c-0.0781-0.0273-0.1533-0.0205-0.2236,0.0205c-0.0752,0.0449-0.1211,0.1074-0.1377,0.1875s0,0.1621,0.0488,0.2451
		c0.0508,0.0869,0.1152,0.1426,0.1904,0.167c0.0771,0.0264,0.1533,0.0166,0.2295-0.0273c0.0703-0.041,0.1143-0.1025,0.1299-0.1826
		C78.1212,109.7959,78.1056,109.7148,78.0587,109.6348z"/>
	<path class="st3" d="M78.4102,108.3936l-0.2432,0.1426v-0.2666l0.3389-0.1982l0.8242,1.4072l-0.2129,0.124L78.4102,108.3936z"/>
	<path class="st3" d="M80.087,107.8955l0.1592,0.2725c-0.0791-0.0293-0.1445-0.0449-0.1943-0.0439
		c-0.0488-0.001-0.0986,0.0127-0.1475,0.042c-0.0771,0.0449-0.125,0.1104-0.1445,0.1934c-0.0195,0.084-0.0059,0.167,0.042,0.248
		c0.0488,0.084,0.1133,0.1367,0.1943,0.1631c0.0801,0.0234,0.1602,0.0137,0.2373-0.0313c0.0488-0.0293,0.0859-0.0664,0.1113-0.1084
		c0.0244-0.042,0.0439-0.1074,0.0576-0.1963l0.1592,0.2715c-0.0576,0.0918-0.1289,0.1611-0.2119,0.21
		c-0.1377,0.0811-0.2783,0.1035-0.4229,0.0693c-0.1445-0.0361-0.2559-0.1191-0.333-0.251c-0.0781-0.1338-0.0957-0.2725-0.0557-0.418
		c0.04-0.1465,0.1279-0.2598,0.2646-0.3398C79.8897,107.9258,79.9845,107.8984,80.087,107.8955z"/>
	<path class="st3" d="M80.4522,107.1992l-0.2432,0.1426v-0.2666l0.3389-0.1982l0.8242,1.4072l-0.2129,0.124L80.4522,107.1992z"/>
	<path class="st3" d="M82.0802,106.2471l-0.4336,0.2539l0.0664,0.2734c0.0098-0.0068,0.0195-0.0137,0.0293-0.0195
		c0.0078-0.0059,0.0166-0.0127,0.0244-0.0166c0.1367-0.0801,0.2764-0.0986,0.418-0.0576c0.1416,0.04,0.2549,0.1318,0.3389,0.2744
		c0.0859,0.1484,0.1074,0.2998,0.0645,0.4551c-0.043,0.1533-0.1406,0.2754-0.292,0.3633c-0.1865,0.1094-0.3857,0.1084-0.5947-0.0039
		l0.0811-0.2305c0.0889,0.0508,0.1641,0.0771,0.2275,0.082c0.0625,0.0039,0.126-0.0127,0.1914-0.0508
		c0.085-0.0498,0.1387-0.1211,0.1621-0.2148c0.0215-0.0957,0.0068-0.1865-0.0449-0.2734c-0.0527-0.0908-0.124-0.1475-0.2139-0.1719
		c-0.0918-0.0244-0.1807-0.0127-0.2666,0.0381c-0.0947,0.0557-0.1533,0.1455-0.1738,0.2695l-0.0703,0.041l-0.2119-0.8701
		l0.582-0.3398L82.0802,106.2471z"/>
	<path class="st3" d="M82.8409,105.3574l0.2061-0.1211l0.9014,1.54l-0.2061,0.1211l-0.0547-0.0928
		c-0.0352,0.125-0.1035,0.2188-0.2051,0.2783c-0.1221,0.0713-0.248,0.0859-0.3809,0.0439
		c-0.1318-0.0439-0.2383-0.1328-0.3174-0.2686c-0.0771-0.1328-0.1025-0.2666-0.0752-0.4014
		c0.0273-0.1367,0.0996-0.2393,0.2197-0.3096c0.1045-0.0605,0.2227-0.0723,0.3545-0.0342L82.8409,105.3574z M82.9942,106.7363
		c0.0498,0.084,0.1133,0.1406,0.1895,0.168c0.0791,0.0254,0.1533,0.0186,0.2246-0.0234c0.0762-0.0439,0.1221-0.1064,0.1387-0.1865
		c0.0146-0.0811-0.002-0.1641-0.0508-0.2471s-0.1123-0.1377-0.1914-0.165c-0.0771-0.0254-0.1533-0.0156-0.2285,0.0273
		c-0.0703,0.042-0.1133,0.1035-0.1299,0.1846C82.9317,106.5742,82.9473,106.6563,82.9942,106.7363z"/>
	<path class="st3" d="M83.9581,104.8164l0.2236,0.0244l-0.0684,0.6543c0.0176-0.0127,0.0322-0.0244,0.0439-0.0322
		c0.0117-0.0088,0.0215-0.0156,0.0283-0.0195c0.1152-0.0664,0.2383-0.0811,0.373-0.043c0.1338,0.0391,0.2354,0.1182,0.3066,0.2402
		c0.0752,0.1289,0.0938,0.2666,0.0566,0.4131c-0.0391,0.1455-0.123,0.2549-0.252,0.3301c-0.127,0.0752-0.2656,0.0957-0.4141,0.0605
		c-0.1475-0.0352-0.2578-0.1143-0.3301-0.2383c-0.0645-0.1113-0.0879-0.2568-0.0693-0.4346L83.9581,104.8164z M84.6661,105.7744
		c-0.043-0.0732-0.1055-0.1221-0.1875-0.1436c-0.084-0.0215-0.1621-0.0117-0.2354,0.0322c-0.0742,0.043-0.1221,0.1064-0.1426,0.1875
		c-0.0225,0.083-0.0107,0.1602,0.0322,0.2334s0.1055,0.1221,0.1875,0.1426c0.082,0.0215,0.1602,0.0107,0.2344-0.0332
		c0.0732-0.043,0.1201-0.1055,0.1416-0.1875C84.7188,105.9238,84.7081,105.8467,84.6661,105.7744z"/>
	<path class="st3" d="M85.504,104.2432l-0.4336,0.2539l0.0674,0.2744c0.0088-0.0078,0.0186-0.0137,0.0283-0.0195
		c0.0088-0.0068,0.0166-0.0127,0.0244-0.0176c0.1367-0.0801,0.2764-0.0986,0.418-0.0566c0.1416,0.04,0.2549,0.1318,0.3389,0.2744
		c0.0859,0.1484,0.1074,0.2998,0.0645,0.4541s-0.1406,0.2754-0.292,0.3643c-0.1865,0.1094-0.3848,0.1084-0.5947-0.0039
		l0.0811-0.2305c0.0889,0.0498,0.1641,0.0771,0.2275,0.082c0.0625,0.0039,0.127-0.0127,0.1914-0.0508
		c0.085-0.0498,0.1387-0.1221,0.1621-0.2158c0.0215-0.0947,0.0068-0.1855-0.0439-0.2725c-0.0527-0.0908-0.124-0.1475-0.2148-0.1719
		c-0.0918-0.0254-0.1807-0.0127-0.2666,0.0371c-0.0947,0.0557-0.1523,0.1465-0.1738,0.2695l-0.0703,0.041l-0.2109-0.8691
		l0.5811-0.3408L85.504,104.2432z"/>
	<path class="st3" d="M86.2647,103.3535l0.2061-0.1201l0.9014,1.54l-0.2061,0.1201l-0.0547-0.0928
		c-0.0342,0.126-0.1035,0.2197-0.2051,0.2793c-0.1221,0.0713-0.248,0.0859-0.3809,0.0439
		c-0.1318-0.0439-0.2383-0.1328-0.3174-0.2686c-0.0771-0.1328-0.1025-0.2666-0.0752-0.4023s0.0996-0.2393,0.2197-0.3086
		c0.1045-0.0615,0.2227-0.0723,0.3545-0.0352L86.2647,103.3535z M86.4181,104.7324c0.0498,0.085,0.1133,0.1406,0.1895,0.168
		c0.0791,0.0264,0.1533,0.0195,0.2246-0.0225c0.0762-0.0439,0.1221-0.1064,0.1387-0.1865c0.0156-0.0811-0.002-0.1641-0.0508-0.2471
		s-0.1123-0.1377-0.1914-0.165c-0.0771-0.0254-0.1533-0.0166-0.2285,0.0273c-0.0703,0.041-0.1133,0.1035-0.1299,0.1836
		C86.3556,104.5713,86.3712,104.6533,86.4181,104.7324z"/>
	<path class="st3" d="M87.3829,102.8125l0.2236,0.0254l-0.0684,0.6533c0.0166-0.0127,0.0313-0.0234,0.043-0.0322
		c0.0127-0.0078,0.0215-0.0146,0.0293-0.0195c0.1143-0.0664,0.2383-0.0801,0.3721-0.042s0.2363,0.1182,0.3066,0.2402
		c0.0762,0.1289,0.0947,0.2656,0.0566,0.4131c-0.0391,0.1455-0.1221,0.2549-0.251,0.3301c-0.1279,0.0742-0.2666,0.0947-0.415,0.0605
		c-0.1475-0.0361-0.2578-0.1143-0.3301-0.2383c-0.0645-0.1113-0.0879-0.2568-0.0684-0.4355L87.3829,102.8125z M88.0899,103.7715
		c-0.043-0.0732-0.1055-0.1221-0.1875-0.1445c-0.084-0.0215-0.1611-0.0107-0.2344,0.0322
		c-0.0742,0.0439-0.1221,0.1064-0.1436,0.1875c-0.0215,0.083-0.0107,0.1611,0.0322,0.2344s0.1055,0.1211,0.1875,0.1416
		c0.082,0.0215,0.1602,0.0107,0.2344-0.0322c0.0732-0.043,0.1211-0.1055,0.1416-0.1875
		C88.1427,103.9199,88.1329,103.8438,88.0899,103.7715z"/>
	<path class="st3" d="M88.7384,102.3516l-0.6953,0.4063l-0.1162-0.1982l1.0488-0.6143l-0.0361,1.9746l-0.2305-0.0059
		L88.7384,102.3516z"/>
	<path class="st3" d="M90.4962,102.418l0.1504-0.0879l0.1133,0.1934l-0.1504,0.0879l0.1172,0.1992l-0.2129,0.124l-0.1162-0.1992
		l-0.6904,0.4043l0.1348-1.8408L90.4962,102.418z M90.2843,102.542l-0.2754-0.4717l-0.0488,0.6621L90.2843,102.542z"/>
	<path class="st3" d="M91.6485,101.7441l0.1504-0.0879l0.1133,0.1934l-0.1504,0.0879l0.1172,0.1992l-0.2129,0.124l-0.1162-0.1992
		l-0.6904,0.4043l0.1348-1.8408L91.6485,101.7441z M91.4366,101.8682l-0.2754-0.4717l-0.0488,0.6611L91.4366,101.8682z"/>
	<path class="st3" d="M92.8175,101.0566l-0.6367,0.3721c0.0479,0.0703,0.1055,0.1143,0.1729,0.1328s0.1328,0.0078,0.1992-0.0303
		c0.0508-0.0303,0.0859-0.0674,0.1055-0.1104c0.0176-0.0439,0.0293-0.1113,0.0332-0.2002l0.2285-0.0059
		c0.001,0.0615-0.0049,0.1172-0.0156,0.167c-0.0107,0.0508-0.0273,0.0947-0.0488,0.1357s-0.0498,0.0781-0.083,0.1104
		c-0.0342,0.0342-0.0742,0.0635-0.1201,0.0898c-0.1328,0.0781-0.2637,0.0977-0.3936,0.0596
		c-0.1309-0.0391-0.2373-0.1289-0.3203-0.2705c-0.082-0.1396-0.1094-0.2773-0.082-0.4092c0.0283-0.1318,0.1064-0.2363,0.2354-0.3115
		c0.1309-0.0771,0.2598-0.0938,0.3838-0.0557c0.124,0.0391,0.2285,0.1309,0.3135,0.2764L92.8175,101.0566z M92.5079,101.0127
		c-0.0918-0.0938-0.1934-0.1074-0.3027-0.0439c-0.0254,0.0146-0.0459,0.0322-0.0635,0.0518c-0.0176,0.0205-0.0303,0.043-0.04,0.0684
		s-0.0156,0.0518-0.0156,0.0791c-0.002,0.0264,0.002,0.0557,0.0098,0.0859L92.5079,101.0127z"/>
	<path class="st3" d="M93.0265,99.3984l0.2061-0.1211l0.9004,1.54l-0.2061,0.1211l-0.0537-0.0928
		c-0.0352,0.125-0.1035,0.2188-0.2051,0.2783c-0.1221,0.0713-0.248,0.0859-0.3809,0.0439
		c-0.1328-0.0439-0.2383-0.1328-0.3174-0.2686c-0.0781-0.1328-0.1025-0.2666-0.0752-0.4023s0.0996-0.2393,0.2197-0.3086
		c0.1035-0.0615,0.2217-0.0723,0.3535-0.0342L93.0265,99.3984z M93.1798,100.7764c0.0488,0.085,0.1123,0.1416,0.1895,0.168
		c0.0781,0.0264,0.1533,0.0195,0.2246-0.0225c0.0752-0.0439,0.1221-0.1064,0.1377-0.1865c0.0156-0.0811-0.001-0.1641-0.0498-0.2471
		s-0.1133-0.1377-0.1914-0.165c-0.0771-0.0254-0.1543-0.0166-0.2285,0.0273c-0.0703,0.041-0.1133,0.1035-0.1299,0.1836
		C93.1163,100.6152,93.1329,100.6973,93.1798,100.7764z"/>
	<path class="st3" d="M94.9698,99.7969l-0.6367,0.373c0.0479,0.0693,0.1055,0.1133,0.1729,0.1318s0.1328,0.0088,0.1992-0.0303
		c0.0508-0.0293,0.0859-0.0664,0.1055-0.1094c0.0176-0.0439,0.0293-0.1123,0.0332-0.2012l0.2285-0.0049
		c0.001,0.0615-0.0049,0.1162-0.0156,0.166c-0.0107,0.0508-0.0273,0.0947-0.0488,0.1367c-0.0215,0.04-0.0498,0.0771-0.083,0.1104
		c-0.0342,0.0332-0.0742,0.0625-0.1201,0.0898c-0.1328,0.0771-0.2637,0.0977-0.3936,0.0596
		c-0.1309-0.0391-0.2373-0.1299-0.3203-0.2715c-0.082-0.1396-0.1094-0.2764-0.082-0.4092c0.0283-0.1318,0.1064-0.2354,0.2354-0.3115
		c0.1309-0.0762,0.2598-0.0938,0.3838-0.0547c0.124,0.0381,0.2285,0.1309,0.3135,0.2764L94.9698,99.7969z M94.6602,99.7539
		c-0.0918-0.0938-0.1934-0.1084-0.3027-0.0439c-0.0254,0.0146-0.0459,0.0322-0.0635,0.0518c-0.0176,0.0205-0.0303,0.043-0.04,0.0674
		c-0.0098,0.0254-0.0156,0.0518-0.0156,0.0801c-0.002,0.0264,0.002,0.0547,0.0098,0.085L94.6602,99.7539z"/>
	<path class="st3" d="M95.0948,98.6328l-0.2432,0.1416v-0.2666l0.3389-0.1982l0.8232,1.4072l-0.2119,0.125L95.0948,98.6328z"/>
	<path class="st3" d="M96.3311,97.4648l0.2061-0.1211l0.9004,1.54l-0.2061,0.1211l-0.0537-0.0928
		c-0.0352,0.125-0.1035,0.2188-0.2061,0.2783c-0.1211,0.0713-0.2471,0.0859-0.3799,0.0439
		c-0.1328-0.0439-0.2383-0.1328-0.3184-0.2686c-0.0771-0.1328-0.1016-0.2666-0.0742-0.4023
		c0.0264-0.1357,0.0996-0.2383,0.2197-0.3086c0.1035-0.0615,0.2217-0.0723,0.3535-0.0342L96.3311,97.4648z M96.4835,98.8428
		c0.0498,0.085,0.1133,0.1416,0.1904,0.168c0.0781,0.0264,0.1533,0.0195,0.2246-0.0225c0.0752-0.0439,0.1211-0.1064,0.1377-0.1865
		c0.0156-0.0811-0.002-0.1641-0.0508-0.2471c-0.0479-0.083-0.1123-0.1377-0.1904-0.165c-0.0781-0.0254-0.1543-0.0156-0.2285,0.0273
		c-0.0703,0.042-0.1133,0.1035-0.1309,0.1836C96.421,98.6816,96.4376,98.7637,96.4835,98.8428z"/>
	<path class="st3" d="M97.6681,97.8721l-0.1064-0.1816c0.0898-0.0527,0.1445-0.0986,0.165-0.1357
		c0.0332-0.0684,0.0283-0.1406-0.0176-0.2188c-0.0352-0.0596-0.084-0.0967-0.1455-0.1113c-0.0615-0.0156-0.125-0.0049-0.1885,0.0322
		c-0.0586,0.0342-0.0957,0.0762-0.1113,0.123c-0.0137,0.0479-0.0078,0.1104,0.0176,0.1885l-0.2109,0.123
		c-0.0566-0.1445-0.0684-0.2676-0.0361-0.3691c0.0322-0.1006,0.1094-0.1875,0.2314-0.2598c0.123-0.0713,0.2451-0.0947,0.3652-0.0664
		c0.1211,0.0264,0.2139,0.0967,0.2813,0.2109c0.0752,0.1299,0.082,0.2588,0.0225,0.3906c0.1563,0,0.2803,0.0771,0.3711,0.2324
		c0.0742,0.127,0.0908,0.2539,0.0537,0.3838c-0.0391,0.1299-0.124,0.2334-0.2578,0.3115c-0.1689,0.0996-0.3311,0.1113-0.4863,0.0342
		c-0.0645-0.0322-0.1279-0.0908-0.1914-0.1787l0.2051-0.1201c0.0508,0.0625,0.1084,0.0986,0.1709,0.1104
		c0.0635,0.0107,0.1299-0.0029,0.1973-0.043c0.0693-0.04,0.1123-0.0967,0.1309-0.168c0.0176-0.0732,0.0049-0.1455-0.0361-0.2168
		c-0.0566-0.0957-0.1299-0.1436-0.2197-0.1436C97.8184,97.7988,97.7511,97.8242,97.6681,97.8721z"/>
	<path class="st3" d="M98.3819,97.375c-0.1318-0.2246-0.1836-0.4336-0.1572-0.6289c0.0234-0.1748,0.1006-0.3018,0.2334-0.3799
		c0.1338-0.0781,0.2822-0.084,0.4463-0.0186c0.1836,0.0732,0.3418,0.2246,0.4766,0.4541c0.1348,0.2305,0.1885,0.4434,0.1621,0.6377
		c-0.0225,0.1748-0.1006,0.3018-0.2334,0.3799c-0.1318,0.0771-0.2813,0.083-0.4463,0.0186
		C98.6798,97.7656,98.5196,97.6113,98.3819,97.375z M98.5909,97.2539c0.0918,0.1563,0.1943,0.2695,0.3086,0.3418
		c0.1143,0.0703,0.2129,0.0801,0.2969,0.0313c0.083-0.0488,0.1221-0.1396,0.1172-0.2734c-0.0039-0.1338-0.0518-0.2764-0.1416-0.4297
		c-0.0898-0.1543-0.1914-0.2666-0.3057-0.335c-0.1133-0.0693-0.2119-0.0801-0.2959-0.0313
		c-0.082,0.0488-0.1211,0.1396-0.1172,0.2734C98.4571,96.9619,98.503,97.1035,98.5909,97.2539z"/>
	<path class="st3" d="M100.2227,96.9873l0.5244-0.3066l0.1162,0.1992l-0.9453,0.5527l0.1426-0.8779
		c0.0137-0.0859,0.0244-0.1602,0.0313-0.2236c0.0078-0.0615,0.0107-0.1123,0.0117-0.1514c0-0.0771-0.0117-0.1396-0.0391-0.1846
		c-0.0381-0.0664-0.0938-0.1074-0.166-0.124c-0.0713-0.0176-0.1426-0.0068-0.21,0.0332c-0.1426,0.083-0.1748,0.2148-0.0967,0.3955
		l-0.2109,0.124c-0.1396-0.3174-0.0771-0.5527,0.1885-0.708c0.1279-0.0752,0.2598-0.0977,0.3945-0.0664
		c0.1357,0.0303,0.2373,0.1045,0.3076,0.2256c0.0449,0.0762,0.0693,0.1641,0.0713,0.2607c0.002,0.0508-0.002,0.1123-0.0107,0.1895
		c-0.0098,0.0752-0.0234,0.167-0.042,0.2754L100.2227,96.9873z"/>
	<path class="st3" d="M101.2989,95.002l-0.4336,0.2539l0.0664,0.2744c0.0098-0.0068,0.0186-0.0137,0.0283-0.0195
		c0.0088-0.0068,0.0166-0.0127,0.0244-0.0166c0.1377-0.0801,0.2773-0.0996,0.418-0.0576c0.1426,0.04,0.2559,0.1318,0.3389,0.2744
		c0.0869,0.1484,0.1084,0.2998,0.0654,0.4541c-0.0439,0.1543-0.1416,0.2754-0.293,0.3643
		c-0.1865,0.1094-0.3848,0.1084-0.5938-0.0039l0.0801-0.2305c0.0889,0.0508,0.1641,0.0771,0.2285,0.082
		c0.0625,0.0039,0.126-0.0127,0.1914-0.0508c0.085-0.0498,0.1387-0.1221,0.1621-0.2148c0.0215-0.0957,0.0059-0.1865-0.0449-0.2734
		c-0.0527-0.0908-0.124-0.1475-0.2148-0.1719c-0.0918-0.0254-0.1797-0.0127-0.2656,0.0371
		c-0.0957,0.0566-0.1533,0.1465-0.1738,0.2695l-0.0703,0.041l-0.2119-0.8691l0.5811-0.3408L101.2989,95.002z"/>
	<path class="st3" d="M102.0723,95.1904c-0.1455-0.0127-0.2559-0.082-0.3291-0.208c-0.0674-0.1143-0.084-0.2334-0.0498-0.3555
		c0.0342-0.123,0.1094-0.2178,0.2266-0.2861s0.2363-0.0879,0.3594-0.0566c0.1221,0.0303,0.2168,0.1035,0.2852,0.2188
		c0.0703,0.1211,0.0762,0.251,0.0186,0.3857c0.0752-0.001,0.1445,0.0166,0.2109,0.0566c0.0674,0.0391,0.1221,0.0938,0.165,0.168
		c0.0723,0.124,0.0918,0.251,0.0566,0.377c-0.0342,0.1279-0.1162,0.2285-0.2422,0.3027c-0.1309,0.0762-0.2617,0.0986-0.3926,0.0684
		c-0.1318-0.0313-0.2334-0.1074-0.3047-0.2285C101.9835,95.4756,101.9825,95.3281,102.0723,95.1904z M101.9425,94.8652
		c0.0352,0.0596,0.085,0.0986,0.1494,0.1152c0.0654,0.0166,0.127,0.0088,0.1855-0.0254c0.0576-0.0342,0.0957-0.084,0.1133-0.1494
		c0.0166-0.0654,0.0088-0.126-0.0254-0.1846c-0.0342-0.0576-0.083-0.0947-0.1484-0.1123c-0.0664-0.0166-0.1279-0.0098-0.1855,0.0244
		c-0.0586,0.0332-0.0947,0.084-0.1123,0.1494C101.9024,94.749,101.9093,94.8086,101.9425,94.8652z M102.2813,95.5039
		c0.0371,0.0654,0.0928,0.1074,0.165,0.1289c0.0723,0.0186,0.1416,0.0098,0.2061-0.0283s0.1064-0.0928,0.125-0.165
		c0.0195-0.0732,0.0098-0.1426-0.0283-0.2061c-0.0381-0.0654-0.0928-0.1074-0.166-0.126c-0.0713-0.0195-0.1396-0.0098-0.2041,0.0283
		c-0.0645,0.0371-0.1055,0.0918-0.125,0.165C102.2345,95.3721,102.2442,95.4414,102.2813,95.5039z"/>
	<path class="st3" d="M103.4122,93.7656l-0.6934,0.4063l-0.1172-0.1982l1.0488-0.6143l-0.0352,1.9746l-0.2314-0.0068
		L103.4122,93.7656z"/>
</g>
<circle class="st4" cx="48.3539" cy="50.0625" r="23.4375"/>
<circle class="st5" cx="48.3539" cy="50.0625" r="21.1894"/>
<circle class="st4" cx="62.2289" cy="78.4375" r="23.4375"/>
<circle class="st5" cx="62.2289" cy="78.4375" r="21.1894"/>
<g id="g2303">
	<path id="path46" class="st6" d="M44.1562,50.2168c0-1.107-0.3157-1.6754-0.947-1.7065c-0.2512-0.0119-0.4965,0.0282-0.7351,0.1208
		c-0.1904,0.0682-0.3186,0.1356-0.386,0.2038v2.6423c0.4038,0.2534,0.7625,0.3712,1.0752,0.3527
		C43.825,51.7862,44.1562,51.249,44.1562,50.2168z M44.9349,50.2628c0,0.5624-0.1319,1.0292-0.3972,1.4005
		c-0.2957,0.4201-0.7054,0.6365-1.2293,0.6484c-0.3949,0.0126-0.8017-0.1111-1.2204-0.3705v2.4015l-0.6773-0.2416v-5.3306
		c0.1111-0.1363,0.2542-0.2534,0.4275-0.3527c0.4031-0.2349,0.8929-0.3557,1.4694-0.3616l0.0096,0.0096
		c0.5268-0.0067,0.9329,0.2097,1.2182,0.6484C44.8016,49.1165,44.9349,49.6322,44.9349,50.2628z"/>
	<path id="path48" class="st6" d="M49.0741,51.8388c0,0.7543-0.0756,1.2767-0.2267,1.5672
		c-0.1519,0.2905-0.4409,0.5224-0.8677,0.695c-0.346,0.1363-0.7202,0.2104-1.1218,0.223l-0.1119-0.4268
		c0.4083-0.0556,0.6958-0.1111,0.8625-0.1667c0.3283-0.1111,0.5535-0.2816,0.6773-0.5098c0.0993-0.186,0.1482-0.5409,0.1482-1.0663
		v-0.1764c-0.4631,0.2104-0.9485,0.3149-1.456,0.3149c-0.3334,0-0.6276-0.1045-0.881-0.3149
		c-0.2845-0.229-0.4268-0.5194-0.4268-0.8714v-2.8187l0.6773-0.2319v2.8372c0,0.3031,0.0978,0.5365,0.2934,0.7002
		c0.1956,0.1638,0.449,0.2423,0.7595,0.2364c0.3105-0.0067,0.6432-0.1267,0.9966-0.3616v-3.31h0.6773V51.8388z"/>
	<path id="path50" class="st6" d="M51.7179,52.2745c-0.0808,0.0067-0.1549,0.0096-0.223,0.0096
		c-0.3831,0-0.6817-0.0911-0.8951-0.2742c-0.2127-0.183-0.3194-0.4357-0.3194-0.758v-2.6675h-0.4639v-0.4261h0.4639v-1.1315
		l0.6765-0.2408v1.3723h0.761v0.4261h-0.761v2.649c0,0.2542,0.0682,0.4342,0.2045,0.5394c0.1171,0.0867,0.3031,0.1363,0.5565,0.1489
		V52.2745z"/>
	<path id="path52" class="st6" d="M55.8184,52.219h-0.6773v-2.6142c0-0.266-0.0622-0.495-0.186-0.6861
		c-0.143-0.2164-0.3416-0.3246-0.5965-0.3246c-0.3105,0-0.6987,0.1638-1.1648,0.4913v3.1336h-0.6773v-6.2487l0.6773-0.2134v2.8461
		c0.4327-0.3149,0.9055-0.4727,1.419-0.4727c0.3586,0,0.6491,0.1208,0.8714,0.3616c0.223,0.2408,0.3342,0.5409,0.3342,0.8995V52.219
		L55.8184,52.219z"/>
	<path id="path54" class="st6" d="M59.4181,50.1101c0-0.4253-0.0808-0.7765-0.2416-1.0544
		c-0.1912-0.3386-0.4883-0.5172-0.8899-0.5357c-0.7425,0.043-1.113,0.575-1.113,1.5946c0,0.4676,0.0771,0.8581,0.2327,1.1715
		c0.1986,0.3994,0.4965,0.5965,0.8936,0.5898C59.0454,51.87,59.4181,51.2816,59.4181,50.1101z M60.1598,50.1146
		c0,0.6054-0.1549,1.1092-0.4639,1.5116c-0.3401,0.4505-0.8099,0.6765-1.4093,0.6765c-0.5943,0-1.0574-0.226-1.3916-0.6765
		c-0.3031-0.4024-0.4542-0.9062-0.4542-1.5116c0-0.5691,0.1638-1.0477,0.4913-1.4375c0.346-0.4135,0.801-0.6209,1.3634-0.6209
		c0.5624,0,1.0203,0.2075,1.373,0.6209C59.9961,49.0668,60.1598,49.5455,60.1598,50.1146z"/>
	<path id="path56" class="st6" d="M64.0426,52.219h-0.6773v-2.7624c0-0.3031-0.0911-0.5394-0.2734-0.7099
		c-0.1823-0.1697-0.4253-0.2519-0.7284-0.2453c-0.3216,0.0059-0.6276,0.1111-0.9181,0.3149v3.4026h-0.6773v-3.4863
		c0.3898-0.2838,0.7484-0.469,1.0759-0.5557c0.309-0.0808,0.5817-0.1208,0.8166-0.1208c0.1608,0,0.312,0.0156,0.4542,0.0467
		c0.266,0.0615,0.4824,0.1756,0.6491,0.3431c0.186,0.1852,0.2786,0.4075,0.2786,0.6676V52.219z"/>
	
		<linearGradient id="path1948_1_" gradientUnits="userSpaceOnUse" x1="354.0792" y1="-138.4417" x2="362.3666" y2="-145.5719" gradientTransform="matrix(0.5625 0 0 -0.568 -168.8445 -32.3925)">
		<stop  offset="0" style="stop-color:#5A9FD4"/>
		<stop  offset="1" style="stop-color:#306998"/>
	</linearGradient>
	<path id="path1948" class="st7" d="M34.7218,45.9953c-0.3485,0.0016-0.6812,0.0313-0.974,0.0831
		c-0.8625,0.1524-1.0191,0.4713-1.0191,1.0595v0.7768h2.0383v0.2589h-2.0383h-0.765c-0.5924,0-1.1111,0.3561-1.2733,1.0334
		c-0.1871,0.7764-0.1954,1.2609,0,2.0716c0.1449,0.6034,0.4909,1.0334,1.0833,1.0334h0.7008v-0.9313
		c0-0.6728,0.5821-1.2662,1.2733-1.2662h2.0359c0.5667,0,1.0191-0.4666,1.0191-1.0358V47.138c0-0.5524-0.466-0.9673-1.0191-1.0595
		C35.4335,46.0202,35.0702,45.9937,34.7218,45.9953z M33.6195,46.6201c0.2105,0,0.3825,0.1747,0.3825,0.3896
		c0,0.2141-0.1719,0.3872-0.3825,0.3872c-0.2113,0-0.3825-0.1731-0.3825-0.3872C33.237,46.7948,33.4082,46.6201,33.6195,46.6201z"/>
	
		<linearGradient id="path1950_1_" gradientUnits="userSpaceOnUse" x1="365.5706" y1="-149.8875" x2="362.6112" y2="-145.7003" gradientTransform="matrix(0.5625 0 0 -0.568 -168.8445 -32.3925)">
		<stop  offset="0" style="stop-color:#FFD43B"/>
		<stop  offset="1" style="stop-color:#FFE873"/>
	</linearGradient>
	<path id="path1950" class="st8" d="M37.057,48.1738v0.9051c0,0.7017-0.5949,1.2924-1.2733,1.2924h-2.0359
		c-0.5577,0-1.0191,0.4773-1.0191,1.0358v1.9409c0,0.5524,0.4803,0.8773,1.0191,1.0358c0.6452,0.1897,1.2639,0.224,2.0359,0
		c0.5131-0.1486,1.0191-0.4476,1.0191-1.0358v-0.7768h-2.0359v-0.2589h2.0359h1.0191c0.5924,0,0.8131-0.4132,1.0191-1.0334
		c0.2128-0.6385,0.2038-1.2525,0-2.0716c-0.1464-0.5897-0.426-1.0334-1.0191-1.0334H37.057z M35.912,53.089
		c0.2113,0,0.3825,0.1731,0.3825,0.3872c0,0.2149-0.1712,0.3896-0.3825,0.3896c-0.2105,0-0.3825-0.1747-0.3825-0.3896
		C35.5295,53.2621,35.7014,53.089,35.912,53.089z"/>
	<path id="text3004" class="st6" d="M65.3614,47.5546h0.1187v-0.7447h0.2813v-0.0888h-0.6813v0.0888h0.2813V47.5546
		 M65.8667,47.5546h0.1014v-0.6802l0.2202,0.6801h0.1129l0.2294-0.6778v0.6779h0.1107v-0.8335H66.495l-0.2507,0.7141l-0.2138-0.7141
		h-0.1637V47.5546"/>
	
		<radialGradient id="path1894_1_" cx="-946.8994" cy="-90.2593" r="2.2074" gradientTransform="matrix(1.749057e-08 -0.2399 -1.0547 -3.791546e-07 -60.4035 -171.5025)" gradientUnits="userSpaceOnUse">
		<stop  offset="0" style="stop-color:#B8B8B8;stop-opacity:0.498"/>
		<stop  offset="1" style="stop-color:#7F7F7F;stop-opacity:0"/>
	</radialGradient>
	<path id="path1894" class="st9" d="M37.5215,55.7031c0,0.2925-1.2229,0.5297-2.7315,0.5297s-2.7315-0.2371-2.7315-0.5297
		s1.2229-0.5297,2.7315-0.5297S37.5215,55.4106,37.5215,55.7031z"/>
</g>
<g>
	<path class="st3" d="M54.9337,67.1855H53.274l-0.4316,0.9414H52.212l1.918-4.1201l1.8506,4.1201h-0.6406L54.9337,67.1855z
		 M54.6949,66.6357l-0.5747-1.3184l-0.6025,1.3184H54.6949z"/>
	<path class="st3" d="M56.357,65.6816h0.5649v0.2256c0.1084-0.1133,0.2012-0.1904,0.2783-0.2305
		c0.082-0.042,0.1846-0.0625,0.3086-0.0625c0.2764,0,0.4951,0.1201,0.6553,0.3613c0.1777-0.2412,0.418-0.3613,0.7207-0.3613
		c0.5508,0,0.8262,0.334,0.8262,1.001v1.5117h-0.5674v-1.3584c0-0.2344-0.0283-0.3994-0.0859-0.4971
		c-0.0586-0.0986-0.1543-0.1475-0.2881-0.1475c-0.1563,0-0.2695,0.0586-0.3408,0.1748c-0.0703,0.1172-0.1064,0.3057-0.1064,0.5654
		v1.2627H57.755v-1.3506c0-0.4355-0.125-0.6523-0.376-0.6523c-0.1592,0-0.2754,0.0586-0.3477,0.1777
		c-0.0732,0.1191-0.1094,0.3066-0.1094,0.5625v1.2627H56.357V65.6816z"/>
	<path class="st3" d="M60.3087,66.8867c0-0.3535,0.126-0.6533,0.3789-0.9014c0.252-0.2471,0.5605-0.3711,0.9238-0.3711
		c0.3643,0,0.6738,0.124,0.9287,0.374c0.251,0.249,0.377,0.5557,0.377,0.9189c0,0.3662-0.127,0.6729-0.3799,0.9209
		c-0.2539,0.2461-0.5664,0.3691-0.9365,0.3691c-0.3662,0-0.6729-0.126-0.9209-0.377
		C60.4317,67.5732,60.3087,67.2617,60.3087,66.8867z M60.8858,66.8965c0,0.2451,0.0654,0.4385,0.1953,0.5801
		c0.1338,0.1445,0.3105,0.2158,0.5303,0.2158c0.2207,0,0.3975-0.0713,0.5293-0.2129c0.1328-0.1426,0.1982-0.332,0.1982-0.5703
		c0-0.2373-0.0654-0.4277-0.1982-0.5693c-0.1338-0.1445-0.3105-0.2158-0.5293-0.2158c-0.2158,0-0.3906,0.0713-0.5254,0.2158
		C60.9522,66.4834,60.8858,66.6689,60.8858,66.8965z"/>
	<path class="st3" d="M64.0792,65.6816v1.4033c0,0.4053,0.1592,0.6074,0.4795,0.6074c0.3193,0,0.4785-0.2021,0.4785-0.6074v-1.4033
		h0.5654v1.416c0,0.1963-0.0244,0.3652-0.0732,0.5068c-0.0469,0.1279-0.1279,0.2422-0.2432,0.3438
		c-0.1904,0.166-0.4336,0.249-0.7275,0.249c-0.293,0-0.5352-0.083-0.7256-0.249c-0.1172-0.1016-0.2002-0.2158-0.249-0.3438
		c-0.0469-0.1133-0.0703-0.2822-0.0703-0.5068v-1.416H64.0792z"/>
	<path class="st3" d="M66.3155,65.6816h0.5674v0.2256c0.1973-0.1953,0.4199-0.293,0.668-0.293c0.2842,0,0.5059,0.0889,0.665,0.2686
		c0.1377,0.1523,0.2061,0.4004,0.2061,0.7451v1.499h-0.5674v-1.3652c0-0.2412-0.0332-0.4082-0.1006-0.5
		c-0.0654-0.0938-0.1836-0.1406-0.3564-0.1406c-0.1875,0-0.3203,0.0615-0.3994,0.1855c-0.0771,0.1221-0.1152,0.3359-0.1152,0.6406
		v1.1797h-0.5674V65.6816z"/>
	<path class="st3" d="M69.7169,66.209v1.918h-0.5645v-1.918h-0.2412v-0.5273h0.2412v-0.8965h0.5645v0.8965h0.4395v0.5273H69.7169z"
		/>
	<path class="st3" d="M54.3512,70.0566h0.5674v4.2402h-0.5674V74.041c-0.2227,0.2178-0.4746,0.3262-0.7559,0.3262
		c-0.3345,0-0.6123-0.1221-0.8335-0.3662c-0.2192-0.25-0.3286-0.5605-0.3286-0.9346c0-0.3643,0.1094-0.6689,0.3286-0.9131
		c0.2178-0.2461,0.4912-0.3691,0.8208-0.3691c0.2866,0,0.5425,0.1172,0.7686,0.3516V70.0566z M53.0103,73.0664
		c0,0.2344,0.063,0.4258,0.1885,0.5723c0.1289,0.1494,0.291,0.2236,0.4868,0.2236c0.2095,0,0.3784-0.0713,0.5073-0.2158
		c0.1289-0.1484,0.1934-0.3379,0.1934-0.5674s-0.0645-0.418-0.1934-0.5674c-0.1289-0.1455-0.2964-0.2178-0.5024-0.2178
		c-0.1938,0-0.3564,0.0732-0.4868,0.2207C53.0748,72.6631,53.0103,72.8477,53.0103,73.0664z"/>
	<path class="st3" d="M55.5162,73.0566c0-0.3535,0.126-0.6533,0.3789-0.9014c0.2524-0.2471,0.5605-0.3711,0.9233-0.3711
		c0.3652,0,0.6748,0.124,0.9287,0.374c0.252,0.249,0.377,0.5557,0.377,0.9189c0,0.3662-0.126,0.6729-0.3789,0.9209
		c-0.2549,0.2461-0.5664,0.3691-0.9365,0.3691c-0.3662,0-0.6733-0.126-0.9209-0.377
		C55.6397,73.7432,55.5162,73.4316,55.5162,73.0566z M56.0933,73.0664c0,0.2451,0.0654,0.4385,0.1958,0.5801
		c0.1338,0.1445,0.3105,0.2158,0.5293,0.2158c0.2207,0,0.3975-0.0713,0.5303-0.2129c0.1318-0.1426,0.1982-0.332,0.1982-0.5703
		c0-0.2373-0.0664-0.4277-0.1982-0.5693c-0.1338-0.1445-0.3105-0.2158-0.5303-0.2158c-0.2158,0-0.3901,0.0713-0.5244,0.2158
		C56.1602,72.6533,56.0933,72.8389,56.0933,73.0664z"/>
	<path class="st3" d="M58.7218,71.8516h0.5674v0.2256c0.1973-0.1953,0.4199-0.293,0.668-0.293c0.2842,0,0.5059,0.0889,0.665,0.2686
		c0.1367,0.1523,0.2061,0.4004,0.2061,0.7451v1.499h-0.5674v-1.3652c0-0.2412-0.0342-0.4082-0.1006-0.5
		c-0.0654-0.0938-0.1846-0.1406-0.3564-0.1406c-0.1875,0-0.3203,0.0615-0.3994,0.1855c-0.0771,0.1221-0.1152,0.3359-0.1152,0.6406
		v1.1797h-0.5674V71.8516z"/>
	<path class="st3" d="M63.3438,71.8516h0.5674v2.4453h-0.5674V74.041c-0.2334,0.2178-0.4834,0.3262-0.751,0.3262
		c-0.3379,0-0.6172-0.1221-0.8389-0.3662c-0.2188-0.25-0.3281-0.5605-0.3281-0.9346c0-0.3662,0.1094-0.6719,0.3281-0.916
		c0.2197-0.2441,0.4941-0.3662,0.8242-0.3662c0.2842,0,0.5391,0.1172,0.7656,0.3516V71.8516z M62.003,73.0664
		c0,0.2344,0.0625,0.4258,0.1885,0.5723c0.1289,0.1494,0.291,0.2236,0.4863,0.2236c0.21,0,0.3789-0.0713,0.5078-0.2158
		c0.1289-0.1484,0.1934-0.3379,0.1934-0.5674s-0.0645-0.418-0.1934-0.5674c-0.1289-0.1455-0.2969-0.2178-0.5029-0.2178
		c-0.1934,0-0.3564,0.0732-0.4863,0.2207C62.0675,72.6631,62.003,72.8477,62.003,73.0664z"/>
	<path class="st3" d="M65.2061,72.3789v1.918h-0.5645v-1.918h-0.2412v-0.5273h0.2412v-0.8965h0.5645v0.8965h0.4385v0.5273H65.2061z"
		/>
	<path class="st3" d="M68.2559,73.207h-1.752c0.0146,0.2012,0.0801,0.3613,0.1953,0.4795c0.1162,0.1172,0.2637,0.1758,0.4443,0.1758
		c0.1406,0,0.2578-0.0332,0.3496-0.1006c0.0898-0.0664,0.1934-0.1904,0.3086-0.3711l0.4766,0.2656
		c-0.0732,0.126-0.1514,0.2334-0.2334,0.3232s-0.1699,0.1631-0.2637,0.2207s-0.1943,0.0996-0.3037,0.127
		c-0.1084,0.0264-0.2266,0.04-0.3535,0.04c-0.3652,0-0.6582-0.1172-0.8789-0.3516c-0.2207-0.2363-0.3311-0.5488-0.3311-0.9385
		c0-0.3867,0.1064-0.7002,0.3213-0.9395c0.2158-0.2363,0.502-0.3535,0.8584-0.3535c0.3604,0,0.6445,0.1143,0.8535,0.3438
		c0.208,0.2275,0.3115,0.543,0.3115,0.9463L68.2559,73.207z M67.6759,72.7451c-0.0781-0.3008-0.2686-0.4512-0.5693-0.4512
		c-0.0684,0-0.1328,0.0098-0.1934,0.0313c-0.0605,0.0205-0.1152,0.0508-0.1641,0.0898c-0.0498,0.04-0.0918,0.0869-0.127,0.1416
		c-0.0352,0.0557-0.0625,0.1182-0.0811,0.1885H67.6759z"/>
	<path class="st3" d="M70.6768,70.0566h0.5674v4.2402h-0.5674V74.041c-0.2227,0.2178-0.4746,0.3262-0.7559,0.3262
		c-0.335,0-0.6123-0.1221-0.833-0.3662c-0.2197-0.25-0.3291-0.5605-0.3291-0.9346c0-0.3643,0.1094-0.6689,0.3291-0.9131
		c0.2168-0.2461,0.4912-0.3691,0.8203-0.3691c0.2861,0,0.542,0.1172,0.7686,0.3516V70.0566z M69.336,73.0664
		c0,0.2344,0.0625,0.4258,0.1885,0.5723c0.1289,0.1494,0.291,0.2236,0.4873,0.2236c0.209,0,0.3779-0.0713,0.5068-0.2158
		c0.1289-0.1484,0.1934-0.3379,0.1934-0.5674s-0.0645-0.418-0.1934-0.5674c-0.1289-0.1455-0.2959-0.2178-0.502-0.2178
		c-0.1943,0-0.3564,0.0732-0.4873,0.2207C69.4005,72.6631,69.336,72.8477,69.336,73.0664z"/>
	<path class="st3" d="M72.044,72.1279c0-0.0918,0.0342-0.1729,0.1025-0.2412c0.0693-0.0684,0.1514-0.1025,0.2461-0.1025
		c0.0957,0,0.1777,0.0342,0.2461,0.1025c0.0693,0.0684,0.1035,0.1504,0.1035,0.2461c0,0.0967-0.0342,0.1797-0.1035,0.249
		c-0.0664,0.0664-0.1484,0.0996-0.2461,0.0996c-0.0967,0-0.1797-0.0342-0.248-0.1025C72.0772,72.3115,72.044,72.2285,72.044,72.1279
		z M72.044,74.0156c0-0.0938,0.0342-0.1748,0.1025-0.2432c0.0693-0.0693,0.1514-0.1035,0.2461-0.1035
		c0.0957,0,0.1777,0.0342,0.2461,0.1035c0.0693,0.0684,0.1035,0.1504,0.1035,0.2461c0,0.0967-0.0342,0.1797-0.1035,0.248
		c-0.0664,0.0674-0.1484,0.1006-0.2461,0.1006c-0.0986,0-0.1816-0.0332-0.248-0.1006C72.0772,74.2002,72.044,74.1162,72.044,74.0156
		z"/>
</g>
</svg>
