<?xml version="1.0" encoding="utf-8"?>
<!-- Generator: Adobe Illustrator 16.0.0, SVG Export Plug-In . SVG Version: 6.00 Build 0)  -->
<!DOCTYPE svg PUBLIC "-//W3C//DTD SVG 1.1//EN" "http://www.w3.org/Graphics/SVG/1.1/DTD/svg11.dtd">
<svg version="1.1" id="Layer_1" xmlns="http://www.w3.org/2000/svg" xmlns:xlink="http://www.w3.org/1999/xlink" x="0px" y="0px"
	 width="730px" height="842px" viewBox="55.445 173.775 730 842" enable-background="new 55.445 173.775 730 842"
	 xml:space="preserve">
<g>
	<path fill="#C91AE8" d="M770.272,613.505c-5.173-57.656-11.665-115.181-17.461-172.775l-41.739-72.261
		c-44.429-24.373-89.498-47.455-134.86-70.117c-44.522-22.242-88.577-45.41-133.03-67.786h-91.919
		c-0.534,0.291-1.069,0.577-1.603,0.869c-11.519,6.304-22.957,12.757-34.289,19.393c-23.067,13.508-45.768,27.64-68.065,42.383
		c-24.692,16.328-48.946,33.316-72.751,50.912c-6.186,4.573-12.35,9.175-18.48,13.822c-2.83,2.145-5.656,4.294-8.474,6.455
		c-1.351,1.035-2.701,2.071-4.049,3.11c-0.104,0.081-0.209,0.162-0.331,0.256c-7.275,5.648-14.504,11.357-21.709,17.095
		l-53.209,92.285c2.544,34.299,3.426,68.815,6.24,102.977c1.272,15.446,3.083,30.838,4.966,46.22
		c0.557,4.547,1.123,9.094,1.71,13.638c0.251,1.945,0.503,3.892,0.76,5.838c0.059,0.441,0.186,1.392,0.304,2.271
		c0.983,7.213,1.992,14.423,3.043,21.627c4.715,32.295,10.044,64.498,15.746,96.633c0.36,2.028,0.716,4.059,1.071,6.089
		l33.239,57.546c8.191,5.026,16.31,10.174,24.494,15.216c12.965,7.987,26.263,15.284,39.626,22.576
		c28.209,15.392,56.353,30.91,84.225,46.906c25.539,14.657,50.455,30.323,75.79,45.303h103.382
		c25.604-19.786,56.218-33.603,85.461-46.34c21.807-9.498,43.709-18.873,64.772-29.955c23.709-12.474,46.738-26.202,70.687-38.228
		c4.976-2.499,10.358-3.62,15.551-3.331l78.312-135.821C775.008,675.39,773.045,644.417,770.272,613.505z"/>
	<g>
		<g>
			<defs>
				<polygon id="SVGID_1_" points="221.654,250.298 22.363,595.604 221.654,940.253 620.236,940.253 819.527,594.946 
					620.236,250.298 				"/>
			</defs>
			<clipPath id="SVGID_2_">
				<use xlink:href="#SVGID_1_"  overflow="visible"/>
			</clipPath>
			<g clip-path="url(#SVGID_2_)">
				<g opacity="0.13">
					<path d="M842.264,381.885c9.393,5.381,18.889,10.696,28.198,16.298l110.865-51.2l-5.92-27.624L818.268,367.9
						C826.242,372.603,834.231,377.283,842.264,381.885z"/>
					<path d="M805.575,428.149l4.897-2.262c-1.815-1.053-3.626-2.114-5.438-3.173C805.212,424.526,805.397,426.338,805.575,428.149z
						"/>
					<path d="M750.445,416.775c-0.789-8.17,3.442-15.607,9.7-20.6c-3.861-2.26-7.729-4.51-11.61-6.734l-482.155,148.94v138.78
						l487.58-225.175C752.761,440.252,751.578,428.516,750.445,416.775z"/>
				</g>
			</g>
		</g>
		<g>
			<defs>
				<polygon id="SVGID_3_" points="221.654,250.298 22.363,595.604 221.654,940.253 620.236,940.253 819.527,594.946 
					620.236,250.298 				"/>
			</defs>
			<clipPath id="SVGID_4_">
				<use xlink:href="#SVGID_3_"  overflow="visible"/>
			</clipPath>
			<g clip-path="url(#SVGID_4_)">
				<g opacity="0.13">
					<path d="M576.254,298.373L161.801,546.274l32.886,134.177l442.379-351.26C616.874,318.783,596.594,308.535,576.254,298.373z"/>
					<path d="M710.058,271.234l100.919-80.132l-12.497-25.651l-127.175,76.068C684.285,251.345,697.2,261.251,710.058,271.234z"/>
				</g>
			</g>
		</g>
		<g>
			<defs>
				<polygon id="SVGID_5_" points="221.654,250.298 22.363,595.604 221.654,940.253 620.236,940.253 819.527,594.946 
					620.236,250.298 				"/>
			</defs>
			<clipPath id="SVGID_6_">
				<use xlink:href="#SVGID_5_"  overflow="visible"/>
			</clipPath>
			<g clip-path="url(#SVGID_6_)">
				<g opacity="0.13">
					<path d="M491.353,181.867c-10.402-10.402-10.402-27.781,0-38.184c8.059-8.06,18.856-9.451,28.436-5.83L609.054-4.242
						l-20.39-19.732L435.789,160.07c5.531,2.671,10.085,7.4,12.826,12.972c12.471,6.17,24.897,12.428,37.302,18.73l5.919-9.421
						L491.353,181.867z"/>
					<path d="M401.817,210.089c-1.786-0.866-3.386-2-4.829-3.307L114.445,546.932l75.639,115.76l267.033-425.074
						C438.755,228.299,420.347,219.073,401.817,210.089z"/>
				</g>
			</g>
		</g>
		<g>
			<defs>
				<polygon id="SVGID_7_" points="221.654,250.298 22.363,595.604 221.654,940.253 620.236,940.253 819.527,594.946 
					620.236,250.298 				"/>
			</defs>
			<clipPath id="SVGID_8_">
				<use xlink:href="#SVGID_7_"  overflow="visible"/>
			</clipPath>
			<g clip-path="url(#SVGID_8_)">
				<g opacity="0.13">
					<path d="M770.272,613.505c-0.24-2.682-0.5-5.362-0.746-8.044l-643.242-77.603L80.142,631.409
						c0.355,2.857,0.706,5.716,1.075,8.571c0.251,1.945,0.503,3.892,0.76,5.838c0.059,0.441,0.186,1.392,0.304,2.271
						c0.297,2.178,0.602,4.354,0.903,6.531L772.9,645.4C772.078,634.764,771.225,624.131,770.272,613.505z"/>
				</g>
			</g>
		</g>
		<g>
			<defs>
				<polygon id="SVGID_9_" points="221.654,250.298 22.363,595.604 221.654,940.253 620.236,940.253 819.527,594.946 
					620.236,250.298 				"/>
			</defs>
			<clipPath id="SVGID_10_">
				<use xlink:href="#SVGID_9_"  overflow="visible"/>
			</clipPath>
			<g clip-path="url(#SVGID_10_)">
				<path fill="#FFFFFF" d="M731.391,700.841c-60.511,0-54.591-11.84-99.974-40.779c0,0-303.87,19.074-308.474,24.993
					c-4.196,5.396-22.595,202.539-25.823,237.439c2.959,1.747,5.915,3.498,8.863,5.262h211.161
					c10.389-4.981,20.887-9.613,31.214-14.111c21.807-9.498,43.709-18.873,64.772-29.955
					c20.366-10.715,119.938-83.223,140.313-93.914l-11.529-88.935H731.391z"/>
				<path fill="#FFFFFF" d="M245.332,370.004c-65.773,0-103.264,89.451-109.183,93.397h-23.021L73.586,567.532
					c0.293,4.201,0.609,8.398,0.955,12.59c1.272,15.446,3.083,30.838,4.966,46.22c0.557,4.547,1.123,9.094,1.71,13.638
					c0.112,0.868,0.227,1.736,0.339,2.604l228.233-89.733l28.282-161.801C301.897,391.051,291.372,370.004,245.332,370.004z"/>
				<path fill="#FFB90B" d="M387.401,412.756c-170.351,0-288.084,206.526-293.346,210.473l-12.839,16.747c0,0.001,0,0.003,0,0.005
					c0.251,1.945,0.503,3.892,0.76,5.838c0.059,0.441,0.186,1.392,0.304,2.271c0.069,0.509,0.142,1.017,0.211,1.525l32.953,158.828
					c0.056,0.031,84,59.303,84.056,59.333c28.209,15.392,56.353,30.91,84.225,46.906c7.465,4.284,14.874,8.659,22.258,13.074
					l137.211,40.02c2.786-1.336,79.531-42.665,82.328-43.955v-21.058c-144.042,0-187.451-96.028-187.451-124.968
					c0-19.074,15.127-36.176,24.993-45.384h3.289c28.939,1.974,57.222,0,74.98,0c53.934,0,108.524,107.21,177.586,38.148
					C688.639,701.498,558.409,412.756,387.401,412.756z"/>
				<g>
					<path fill="#FF960B" d="M490.006,758.062c-1.974-4.604-4.604-9.208-5.92-13.813c-0.657-2.631-1.315-4.604-1.973-7.234
						l-0.658-7.235c-0.657-5.262,0-9.866,0-14.47c0.658-4.604,1.315-9.866,2.631-14.47c4.604-19.074,15.128-36.833,29.598-50.646
						c14.47-13.812,32.887-23.021,52.618-27.624c19.731-4.604,39.464-2.631,58.538,0l-3.946,19.074
						c-17.102-3.289-34.86-5.262-51.961-2.631s-32.886,9.865-46.041,21.047c-13.154,11.182-23.021,26.309-27.624,42.752
						c-5.262,16.443-5.262,34.859,1.973,49.987L490.006,758.062z"/>
				</g>
				<g>
					<path fill="#FF960B" d="M643.914,688.344c-1.316-14.47-4.604-28.94-8.551-42.752c-7.893-27.625-19.074-54.592-32.887-79.585
						c-13.154-24.994-29.598-49.33-48.014-71.034c-18.416-21.705-39.464-41.438-63.8-57.881
						c-24.336-15.785-51.96-28.282-81.558-32.229c-30.256-3.946-59.195,0-87.478,8.551c-27.625,8.551-53.934,22.362-77.611,38.148
						c-23.679,15.785-46.041,34.201-66.431,53.934c-20.39,19.731-39.464,40.778-57.223,63.142
						c-8.55,11.181-17.101,22.362-25.651,34.201c-4.604,5.263-8.55,11.182-12.496,17.102l-2.965,4.282
						c0.086,0.707,0.169,1.414,0.256,2.12c0.557,4.547,1.123,9.094,1.71,13.638c0.251,1.945,0.503,3.892,0.76,5.838
						c0.059,0.441,0.186,1.392,0.304,2.271c0.276,2.022,0.559,4.045,0.839,6.066c0.362-0.203,0.72-0.422,1.068-0.671
						c2.631-2.631,1.974-2.631,2.631-3.289l0.658-1.315l1.315-1.973l3.288-4.604l5.92-8.551c3.946-5.919,7.893-11.181,11.839-17.101
						c7.893-11.839,16.443-23.021,24.994-33.544c17.758-21.705,36.175-42.752,55.906-61.826c19.731-19.731,40.779-37.49,63.8-52.618
						c23.021-15.785,47.356-28.282,73.007-36.175c13.155-3.946,26.31-7.235,39.464-8.551c13.813-1.973,26.967-1.973,40.121,0
						c26.31,3.946,51.961,14.471,74.323,29.598c22.362,15.128,42.752,33.544,60.511,54.592
						c17.759,20.39,33.544,43.409,46.698,67.745c13.155,24.336,23.679,49.987,31.571,76.297
						c7.893,26.309,12.497,53.934,8.551,79.585c-1.974,13.154-6.577,24.993-14.471,33.544c-9.208,9.208-19.731,17.101-31.57,19.731
						s-24.336,0.658-36.175-4.604c-12.497-5.262-23.679-13.155-34.859-21.048c-11.182-8.55-22.363-17.101-35.518-24.336
						c-6.577-3.288-13.154-6.577-21.047-8.55c-3.289-1.315-7.894-1.974-11.84-1.974h-11.181
						c-28.282,1.315-55.907,2.631-82.874-1.315s-53.275-12.497-73.007-32.887c-8.551-9.865-15.128-21.047-19.074-33.544
						c-3.946-12.496-5.262-26.309-5.262-39.463c0-3.946-3.289-7.235-7.235-7.235s-7.235,3.289-7.235,7.235
						c0,15.127,1.316,29.598,5.92,44.067c4.604,14.47,11.839,28.282,22.363,39.464c10.523,11.181,23.678,19.073,37.49,24.993
						c13.812,5.92,28.281,9.208,42.752,11.182c28.939,3.946,57.88,2.631,85.504,1.973h9.866c2.631,0,5.92,0.658,8.551,1.315
						c5.919,1.315,11.839,3.946,17.758,7.235c11.84,6.577,22.363,14.47,34.202,23.021s23.678,17.101,37.49,23.021
						c13.154,5.919,30.256,9.208,46.041,5.262s28.939-13.813,39.464-24.336c11.181-11.839,16.442-27.625,19.074-42.095
						C645.887,717.941,645.887,702.813,643.914,688.344z"/>
				</g>
				<g>
					<path fill="#FF960B" d="M370.3,739.646c-8.551,7.893-15.786,16.443-19.732,26.309c-1.973,4.604-3.288,9.209-2.631,14.471
						c0,4.604,1.974,10.523,3.289,15.785c3.946,10.523,9.208,21.047,16.443,30.913c3.288,4.604,7.234,9.208,11.181,13.813
						c1.974,1.973,3.946,4.604,5.92,6.577l6.577,5.919c17.759,15.786,39.464,26.967,62.484,34.202s47.355,9.866,71.691,11.182
						v10.523c-24.993,0-50.645-2.631-75.638-9.208c-24.994-6.577-48.672-18.417-68.404-34.86
						c-20.39-16.442-36.832-37.49-46.698-62.483c-1.974-6.577-4.604-12.497-5.262-20.39c-0.658-7.893,0.657-15.128,3.288-22.362
						c5.263-13.813,13.813-24.336,23.679-33.544L370.3,739.646z"/>
				</g>
				<path fill="#FFB90B" d="M401.87,430.514c0,0-25.651-54.591-76.296-60.511c-4.604-0.657-7.893,3.289-6.577,7.893
					c3.288,14.47,9.865,44.726,6.577,66.431"/>
				<path fill="#FF960B" d="M440.019,554.168c0-17.102-7.893-25.651-18.417-25.651c-9.865,0-18.416,8.55-18.416,25.651
					c0,17.101,9.208,33.544,18.416,33.544C429.495,587.712,440.019,571.268,440.019,554.168z"/>
				<path fill="#FF960B" d="M597.873,729.123c0-8.551-3.946-13.155-7.893-13.155c-3.947,0-7.894,3.946-7.894,13.155
					c0,8.55,3.946,17.101,7.894,17.101C593.269,746.223,597.873,737.673,597.873,729.123z"/>
				<g>
					<path fill="#FF960B" d="M585.376,794.895c-8.551-1.974-15.128-5.92-22.362-10.523c-6.578-4.604-12.497-9.866-17.759-16.443
						s-9.208-13.813-12.497-21.705c-2.631-7.893-3.946-17.101-3.946-25.651l0,0c0-5.262,4.604-9.866,10.523-9.208
						c5.92,0.657,9.866,4.604,9.208,10.523c0,0.657,0,0.657,0,1.315c-1.973,12.497,0.658,25.651,7.893,37.49
						c3.289,5.92,7.893,11.182,13.155,15.785c5.262,4.604,11.181,8.551,17.101,11.182l0,0c1.973,0.658,3.289,3.289,2.631,5.262
						C589.323,794.237,587.35,795.552,585.376,794.895z"/>
				</g>
				<path fill="#FFFFFF" d="M360.434,382.501c0,0-2.631-23.021,45.383-32.229c49.33-9.208,70.377,48.672,148.646,125.626
					c0,0-80.242,8.55-101.947-21.048l-11.182,20.39c-17.759-2.631-34.202-23.678-39.464-44.726
					C397.267,409.468,360.434,382.501,360.434,382.501z"/>
			</g>
		</g>
		<g>
			<defs>
				<polygon id="SVGID_11_" points="237.445,291.775 63.445,594.775 247.445,909.775 600.445,900.775 776.445,591.775 
					592.445,285.775 				"/>
			</defs>
			<clipPath id="SVGID_12_">
				<use xlink:href="#SVGID_11_"  overflow="visible"/>
			</clipPath>
			<g clip-path="url(#SVGID_12_)">
				<path fill="#FF960B" d="M395.951,433.145c-3.289-5.919-7.894-11.839-11.84-17.101c-4.604-5.262-9.208-10.523-14.47-15.128
					c-10.523-9.208-22.362-16.443-35.518-19.731c-3.288-0.658-6.577-1.315-9.208-1.974c1.974,0,3.946-1.315,3.946-3.946
					c0,0,0,0,0-0.657v0.657l0.658,1.315l0.657,2.631l1.315,5.92c0.658,3.946,1.315,7.893,1.974,11.182
					c2.631,15.128,4.604,30.913,1.315,48.014c-0.658,5.262-5.92,9.208-11.182,7.893c-5.262-0.657-8.55-5.919-7.893-11.181v-0.658
					c1.315-12.497,0-27.625-1.973-41.437c-0.658-3.289-1.315-7.235-1.974-10.524l-2.631-10.523
					c-0.658-4.604,1.315-9.866,4.604-13.154c3.288-3.289,8.55-5.262,13.154-4.604c4.604,0.658,8.55,1.315,12.497,2.631
					c16.442,4.604,30.255,13.813,41.437,25.651c11.181,11.182,20.39,24.336,26.967,39.464c1.315,3.289,0,7.235-3.289,8.551
					C401.87,437.75,397.924,436.434,395.951,433.145L395.951,433.145z"/>
			</g>
		</g>
	</g>
	<path fill="#6D306D" d="M118.062,420.32l303.212-174.955L724.486,420.32v349.91L421.274,945.185L118.062,770.23V420.32
		 M56.236,384.802v420.945l365.038,210.472l364.38-210.472V384.802l-364.38-210.472L56.236,384.802L56.236,384.802z"/>
</g>
<g opacity="0.13">
	<path d="M133.847,429.528l287.427-165.747l286.769,165.747v331.494L421.274,926.769L133.847,761.022V429.528 M118.719,420.32
		v349.252l302.555,174.955l302.554-174.955V420.32L421.274,245.365L118.719,420.32L118.719,420.32z"/>
</g>
</svg>
