<?xml version="1.0" encoding="utf-8"?>
<!-- Generator: Adobe Illustrator 16.0.0, SVG Export Plug-In . SVG Version: 6.00 Build 0)  -->
<!DOCTYPE svg PUBLIC "-//W3C//DTD SVG 1.1//EN" "http://www.w3.org/Graphics/SVG/1.1/DTD/svg11.dtd">
<svg version="1.1" id="Layer_11" xmlns="http://www.w3.org/2000/svg" xmlns:xlink="http://www.w3.org/1999/xlink" x="0px" y="0px"
	 width="128px" height="111px" viewBox="0 0 128 111" enable-background="new 0 0 128 111" xml:space="preserve">
<polygon fill="#23E254" points="32.319,110.926 0.319,55.5 32.319,0.074 96.319,0.074 128.319,55.5 96.319,110.926 "/>
<polygon fill="#22BF43" points="117.14,56 90.59,102 37.46,102 31.44,91.574 31.32,91.327 31.26,91.204 31.2,91.087 30.58,90.004 
	29.48,88.102 29.42,88.001 28.84,87 26.53,83 25.37,81 24.21,79 23.71,78.14 23.63,78 21.32,74 19.58,71 19.37,70.64 18.42,69 
	17.63,67.63 16.95,66.46 15.53,64 14.37,62 13.82,61.05 13.79,61 13.22,60 12.96,59.55 12.64,59 10.9,56 11.11,55.63 13.17,52.08 
	14.74,49.37 14.82,49.23 16.12,46.98 16.13,46.97 16.39,46.51 16.52,46.215 18.34,43 18.35,43 21.32,37.935 22.32,36.228 
	22.47,35.984 23.05,34.937 37.46,10 90.59,10 "/>
<path fill="#23E254" d="M52.585,17.675l3.903-11.863L44.693,9.925l-10.07-7.381l0.265,12.485l-10.133,7.305l11.962,3.604
	l3.807,11.893l7.126-10.265l12.484,0.051L52.585,17.675z M42.784,24.214c-2.845-0.495-4.75-3.202-4.255-6.046
	c0.495-2.845,3.202-4.75,6.047-4.255c2.845,0.495,4.75,3.202,4.254,6.046C48.335,22.805,45.629,24.709,42.784,24.214z"/>
<path fill="#23E254" d="M99.751,37.506l3.902-11.863l-11.795,4.112l-10.069-7.381l0.265,12.485l-10.133,7.305l11.963,3.604
	l3.807,11.893l7.127-10.265l12.484,0.051L99.751,37.506z M89.95,44.045c-2.846-0.495-4.75-3.202-4.256-6.046
	c0.496-2.845,3.202-4.75,6.047-4.255c2.846,0.495,4.75,3.202,4.255,6.046C95.501,42.636,92.794,44.54,89.95,44.045z"/>
<path fill="#23E254" d="M100.99,78.322l3.902-11.862l-11.795,4.112l-10.069-7.381l0.265,12.484L73.16,82.981l11.963,3.604
	l3.807,11.893l7.127-10.265l12.484,0.052L100.99,78.322z M91.189,84.861c-2.846-0.494-4.75-3.201-4.256-6.046
	c0.496-2.845,3.202-4.75,6.047-4.255c2.846,0.495,4.75,3.201,4.255,6.047C96.74,83.452,94.033,85.356,91.189,84.861z"/>
<path fill="#23E254" d="M47.248,75.711l3.902-11.862l-11.795,4.112L29.286,60.58l0.265,12.484L19.418,80.37l11.963,3.604
	l3.807,11.893l7.127-10.265l12.484,0.052L47.248,75.711z M37.447,82.25c-2.846-0.494-4.75-3.201-4.256-6.046
	c0.496-2.845,3.202-4.75,6.047-4.255c2.846,0.495,4.75,3.201,4.255,6.047C42.998,80.841,40.291,82.745,37.447,82.25z"/>
<path fill="#3D3D3D" d="M76.373,19.689c-0.975-0.758-1.855-1.409-3.125-1.52c-1.247-0.109-2.518,0.077-3.709,0.446
	c-1.842,0.571-1.056,3.467,0.797,2.893c1.406-0.436,2.705-0.64,3.916,0.302c0.645,0.501,1.489,0.632,2.121,0
	C76.897,21.287,77.02,20.192,76.373,19.689z"/>
<path fill="#3D3D3D" d="M68.813,25.438c-0.083,0.003-0.126,0.008-0.145,0.013c-0.062-0.018-0.124-0.035-0.184-0.057
	c-0.304-0.103-0.594-0.148-0.915-0.185c-0.148-0.017-0.308,0.007-0.455,0.018c-0.057,0.004-0.113,0.006-0.17,0.009
	c-0.554-0.252-1.249-0.146-1.692,0.297c-0.588,0.588-0.564,1.53,0,2.121c0.529,0.555,1.267,0.615,1.985,0.564
	c0.06-0.004,0.118-0.003,0.177-0.005c-0.046,0.013,0.2,0.048,0.272,0.073c0.359,0.124,0.747,0.199,1.126,0.151
	c0.811-0.103,1.5-0.604,1.5-1.5C70.313,26.198,69.626,25.334,68.813,25.438z"/>
<path fill="#3D3D3D" d="M94.389,47.391c-2.361-2.259-4.569-4.078-7.93-4.461c-1.527-0.174-3.087,0.097-4.623-0.006
	c-1.721-0.115-3.369-0.534-5.109-0.456c-0.075,0.003-0.148,0.014-0.222,0.02c0.134-0.979-0.436-2.073-1.714-2.073
	c-0.081,0-0.157,0.006-0.232,0.015c-0.029,0.003-0.057,0.01-0.086,0.015c-0.043,0.007-0.085,0.015-0.125,0.024
	c-0.039,0.01-0.076,0.021-0.114,0.034c-0.022,0.008-0.047,0.016-0.069,0.024c-0.282,0.105-0.524,0.281-0.737,0.512
	c-0.533-0.193-1.151-0.157-1.704,0.26c0.005-0.008-0.028,0.009-0.096,0.048c0.091-0.058-0.105,0.009-0.244,0.06
	c-0.723-0.242-1.429,0.059-2.142,0.275c-0.797,0.015-1.594,0.042-2.4,0.139c-0.494,0.06-1.065,0.148-1.678,0.238
	c-0.101-0.092-0.212-0.174-0.342-0.234c-0.83-0.38-1.603-0.599-2.522-0.624c-0.806-0.021-1.604,0.138-2.414,0.11
	c-0.294-0.01-0.551,0.04-0.77,0.133c-0.875-0.27-1.749-0.548-2.607-0.875c-0.468-0.178-0.883-0.14-1.224,0.031
	c-0.165-0.082-0.346-0.136-0.54-0.161c-0.038-0.108-0.076-0.215-0.12-0.321c-0.861-2.069-4.058-1.351-3.456,0.953
	c0.041,0.155,0.081,0.311,0.121,0.467c-0.059,0.053-0.107,0.115-0.157,0.175c0.073,0.094,0.128,0.206,0.143,0.339
	c0.027,0.045,0.052,0.093,0.072,0.144c0.197,0.491,0.281,0.944,0.089,1.456c-0.067,0.181-0.186,0.332-0.336,0.426
	c0.028,0.037,0.049,0.078,0.081,0.114c0.082,0.093,0.17,0.179,0.258,0.266c-1.831,0.123-3.723,0.964-5.03,2.222
	c-0.115,0.012-0.231,0.033-0.351,0.072c-0.081,0.026-0.16,0.056-0.239,0.084c-0.364-0.211-0.806-0.273-1.284-0.084
	c-0.144,0.057-0.285,0.122-0.428,0.181v0c-0.002,0.001-0.004,0.002-0.006,0.003c-3.122,1.298-6.011,3.142-9.025,4.665
	c-2.563,1.294-3.753,4.32-1.951,6.796c1.692,2.324,5.015,2.741,7.486,1.621c2.627-1.19,4.504-4.133,6.077-6.438
	c0.169-0.083,0.337-0.167,0.506-0.251c0.131,0.17,0.294,0.326,0.497,0.462c1.015,0.682,2.146,1.525,3.344,1.884
	c0.332,1.515,1.044,3.04,1.893,4.344c-1.074-0.645-2.112-0.278-3.375-0.096c-0.253,0.037-0.473,0.144-0.659,0.296
	c-0.312,0.002-0.626,0.043-0.941,0.143c-1.205,0.377-1.834,1.257-2.061,2.396c-0.686,0.392-0.894,1.026-0.783,1.634
	c-0.026,0.064-0.054,0.127-0.077,0.194c-0.225,0.669-0.196,1.465-0.068,2.254c-0.896,1.287-0.562,3.046,0.579,4.078
	c0.386,1.203,1.038,2.339,1.759,3.335c1.554,2.146,3.489,2.915,5.926,3.731c0.038,0.013,0.079,0.021,0.118,0.03
	c0.558,0.707,1.296,1.198,2.239,1.288c1.225,0.115,1.95-0.707,2.363-1.862c0.219-0.145,0.404-0.354,0.529-0.639
	c0.295-0.674,0.466-1.354,0.569-2.042c0.075-0.192,0.12-0.41,0.123-0.654c0.006-0.368,0.021-0.736,0.035-1.104
	c0.11,0.01,0.217,0.005,0.321-0.006c1.755,2.358,5.154,2.558,7.675,0.785c0.373-0.263,0.715-0.619,0.972-1.015
	c0.242,0.001,0.5-0.065,0.761-0.216c0.341,0.111,0.709,0.127,1.055,0.034c-0.234,0.991-0.287,2.007-0.188,2.73
	c0.31,2.249,2.803,2.199,4.537,1.693c0.265,0.179,0.587,0.3,0.959,0.324c2.87,0.182,4.728-3.054,5.959-5.174
	c1.72-2.962,3.097-6.302,2.836-9.801c-0.263-3.53-3.453-5.095-6.686-4.611c-0.399,0.061-0.792,0.144-1.174,0.248
	c0.165-0.491,0.321-0.985,0.473-1.483c0.677-1.64,1.393-3.264,1.934-4.956c0.068-0.215,0.093-0.419,0.084-0.613
	c0.099-0.273,0.191-0.549,0.28-0.827c0.602,0.03,1.221-0.021,1.825-0.143c1.401,0.215,2.772,0.622,4.092,1.162
	c0.051,0.336,0.178,0.665,0.4,0.942c0.854,1.067,2.632,1.775,4.333,2.027c0.379,0.194,0.757,0.39,1.136,0.583
	c1.477,0.749,3.06,0.712,4.668,0.782c0.856,0.038,1.439-0.589,1.729-1.316C98.346,51.224,96.356,49.274,94.389,47.391z"/>
<path fill="#3D3D3D" d="M82.488,24.01c-0.707-0.982-1.604-1.657-2.598-1.828c-1.042-1.287-3.225-2.21-4.619-2.482L75,19.692
	c0,0.001,0,0.002,0,0.004c0-0.032-0.076-0.055-0.225-0.068c-0.199-0.017-0.248,0.002-0.412,0.035
	c-1.464-0.469-2.842-0.984-4.417-1.11c-2.818-0.224-5.545,0.021-8.314,0.537c-2.595,0.483-4.65,1.389-6.302,3.518
	c-1.783,2.297-3.387,4.76-5.064,7.138c-1.336,1.893,1.778,3.681,3.099,1.809c0.155-0.22,0.315-0.438,0.472-0.658
	c1.746-0.742,3.321-1.822,5.072-2.54c1.073-0.439,2.228-0.649,3.401-0.74c1.504,0.117,2.959,0.207,4.503-0.077
	c0.032-0.006,0.058-0.018,0.088-0.025c0.542,0.045,1.078,0.105,1.592,0.235c0.124,0.428,0.393,0.814,0.792,1.043
	c0.999,0.574,2.22,0.589,3.137,1.254c0.271,0.197,0.534,0.302,0.784,0.336c0.18,0.331,0.356,0.665,0.543,0.992
	c0.067,0.117,0.145,0.595,0.228,0.687C74.092,32.932,74.846,34,75.744,34h0.089c0.977,0,1.793-1.192,1.793-2.168
	c0-0.496-0.213-1.138-0.547-1.465c-0.01-0.418-0.039-0.942-0.102-1.383c0.236-0.312,0.461-0.68,0.682-1.003
	c0.422-0.291,0.937-0.562,1.229-0.778c0.32-0.237,0.544-0.606,0.67-1c0.039,0.031,0.077,0.056,0.12,0.086
	c0.243,0.167,0.505,0.27,0.786,0.357C81.887,27.09,83.418,25.306,82.488,24.01z"/>
<path fill="#F90B1C" d="M89.644,32.518c-1.199-1.141-2.555-1.517-4.178-1.623c-1.361-0.088-3.031-0.365-4.297,0.217
	c-0.248-0.134-0.499-0.268-0.758-0.397c-2.06-1.036-3.873,2.055-1.809,3.094c2.343,1.18,4.258,2.307,5.09,4.933
	c0.631,1.992,3.357,1.517,3.52-0.477c0.053-0.65,0.164-1.287,0.303-1.925c0.04-0.187,0.09-0.372,0.143-0.556
	c0.617,0.152,1.336,0.015,1.718-0.463c-0.03,0.003-0.063,0.008-0.094,0.011C90.172,34.665,90.557,33.384,89.644,32.518z"/>
<path fill="#F2BF8C" d="M75.327,35.732c-0.285-0.86-0.679-1.696-1.069-2.504c-0.255-0.524-0.572-1.057-0.943-1.514
	c-1.076-2.415-3.763-2.528-6.138-3.112c-1.086-0.267-2.594-0.426-3.675-0.064c-0.523-0.032-1.043-0.047-1.555-0.041
	c-3.091,0.041-6.833,0.669-9.152,2.854c-0.452,0.425-0.598,0.918-0.541,1.382c-0.152,0.246-0.249,0.536-0.254,0.871
	c-0.015,0.965-0.077,1.896-0.294,2.839c-0.265,1.146,0.418,1.958,1.302,2.153c1.089,0.901,2.711,1.26,4.039,1.526
	c1.285,0.257,2.585,0.247,3.875,0.446c1.875,0.289,3.688,0.768,5.593,0.831c0.378,0.013,0.701-0.094,0.966-0.271
	c0.897,0.134,1.854,0.073,2.696,0.002c0.021-0.002,0.043-0.003,0.063-0.005c0.406,0.093,0.826,0.046,1.191-0.127
	c1.236-0.175,2.607-0.56,3.143-1.599c0.687-0.159,1.26-0.706,1.26-1.673v-0.806C75.833,36.427,75.606,36.027,75.327,35.732z"/>
<g>
	<path fill="#F2BF8C" d="M101.507,59.38c-0.083-0.258-0.231-0.716-0.254-0.755c-0.517-0.905-1.575-1.053-2.451-0.644
		c-0.043,0.021-0.087,0.04-0.129,0.061c-0.45,0.211-0.709,0.662-0.822,1.131c-1.021-0.261-2.285,0.298-2.306,1.67
		c-0.013,0.884-0.18,1.753,0.002,2.632c0.267,1.286,1.52,2.099,2.804,1.776c2.185-0.55,2.718-2.543,2.923-4.492
		C101.537,60.403,101.652,59.934,101.507,59.38z"/>
	<path fill="#F2BF8C" d="M101.484,59.292c0.01,0.03,0.015,0.058,0.022,0.088C101.572,59.584,101.598,59.66,101.484,59.292z"/>
</g>
<path fill="#F2BF8C" d="M30.034,66.407c-0.087-0.093-0.17-0.189-0.252-0.285c0.131,0.155-0.009-0.061-0.091-0.184
	c0.266-1.993-2.896-2.747-3.521-0.644c-0.55,1.85,1.039,3.497,2.372,4.509c0.846,0.642,2.021,0.821,2.975,0.328
	c0.715-0.369,1.141-1.071,1.513-1.754C34.105,66.407,31.214,64.645,30.034,66.407z"/>
<path fill="#161616" d="M35.811,59.832c-0.257-0.051-0.435-0.079-0.645-0.19c0.022,0.012-0.02,0.573-0.011-0.142
	c0.013-1.061-0.832-1.682-1.792-1.792c-0.828-0.096-1.518,0.365-1.906,1.067c-0.176,0.318-0.248,0.63-0.24,0.923
	c-0.478,1.131-0.949,2.263-1.463,3.377c-0.503,1.091-0.059,2.188,0.96,2.565c0.544,0.295,1.225,0.293,1.76-0.024
	c0.432-0.256,0.803-0.582,1.126-0.964c0.137-0.162,0.266-0.33,0.402-0.493c0.036-0.043,0.063-0.072,0.091-0.101
	c0.516-0.052,0.901-0.293,1.158-0.626c0.327-0.056,0.658-0.158,0.987-0.324C37.584,62.425,37.313,60.13,35.811,59.832z"/>
<path fill="#161616" d="M58.639,78.113c-0.547-0.322-1.214-0.305-1.749-0.022c-0.411-0.076-0.847-0.021-1.225,0.201
	c-0.846,0.495-1.131,1.604-0.643,2.45c0.04,0.078,0.061,0.114,0.07,0.125c0.016,0.047,0.033,0.092,0.047,0.138
	c0.058,0.184,0.103,0.372,0.155,0.557c0.183,0.655,0.489,1.166,0.904,1.694c0.826,1.056,2.733,0.437,2.995-0.79
	c0.106-0.5,0.136-0.999,0.132-1.506c-0.001-0.169,0-0.337,0.005-0.507C59.737,79.623,59.448,78.586,58.639,78.113z"/>
<path fill="#161616" d="M98.783,55.724c-0.012-0.015-0.026-0.027-0.038-0.042c-0.068-0.101-0.132-0.206-0.196-0.31
	c-0.196-0.317-0.409-0.625-0.661-0.902c-0.455-0.499-1.171-0.619-1.791-0.43c-0.115-0.042-0.23-0.082-0.344-0.121
	c-0.927-0.313-1.957,0.351-2.204,1.251c-0.271,0.983,0.326,1.893,1.251,2.205c0.163,0.055,0.324,0.112,0.485,0.172
	c0.104,0.048,0.207,0.099,0.308,0.151c0.139,0.073,0.271,0.159,0.398,0.249l0.001,0.001c-0.25-0.167,0.178,0.211,0.257,0.31
	c0.665,0.716,1.863,0.672,2.534,0C99.532,57.509,99.391,56.487,98.783,55.724z"/>
<path fill="#4C4C4C" d="M65.208,18.035c-0.25,0.018-0.489,0.077-0.718,0.179c-0.114,0.039-0.197,0.104-0.257,0.182
	c-0.233,0.094-0.466,0.2-0.7,0.305c-0.142-0.213-0.411-0.335-0.694-0.164c-0.382,0.232-0.772,0.447-1.166,0.656
	c-0.029-0.004-0.054-0.013-0.086-0.012c-2.234,0.05-4.398,1.27-5.988,2.944c-0.905,0.631-1.752,1.353-2.545,2.052
	c-0.383,0.337-0.049,0.901,0.387,0.912c-0.753,1.026-1.484,2.067-2.174,3.14c-0.151,0.234-0.097,0.457,0.048,0.604
	c-0.086,0.042-0.167,0.104-0.228,0.203c-0.274,0.444-0.45,0.905-0.605,1.383c-0.209,0.046-0.378,0.21-0.364,0.5
	c0.012,0.233,0.032,0.37,0.109,0.591c0.057,0.162,0.17,0.269,0.3,0.328c0.033,0.048,0.07,0.099,0.113,0.159
	c0.251,0.348,0.873,0.368,0.982-0.128c0.019-0.085,0.042-0.168,0.063-0.253c0.008-0.006,0.017-0.012,0.024-0.018
	c0.015-0.011,0.03-0.016,0.043-0.029c0.104-0.092,0.202-0.188,0.296-0.284c0.257,0.234,0.771,0.217,0.918-0.222
	c1.771-5.293,7.301-10.233,12.526-11.989C66.162,18.846,65.882,17.929,65.208,18.035z"/>
<path fill="#4C4C4C" d="M51.474,46.28c0.047-0.503,0.045-0.962-0.012-1.474c-0.061-0.542-0.677-0.721-1.002-0.271
	c-0.033,0.045-0.073,0.085-0.11,0.128c-0.272-0.075-0.595,0.038-0.661,0.359c-0.007,0.053-0.023,0.105-0.032,0.158
	c-0.215,0.11-0.45,0.205-0.701,0.287c-0.459,0.039-0.949,0.171-1.45,0.357c-0.739,0.147-1.459,0.272-1.983,0.474
	c-1.495,0.575-2.855,1.491-4.298,2.183c-1.135,0.544-2.351,1.068-3.391,1.776c-0.104,0.043-0.208,0.085-0.314,0.125
	c-0.098,0.037-0.176,0.1-0.235,0.178c-0.054,0.01-0.107,0.026-0.162,0.056c-0.096,0.051-0.185,0.107-0.278,0.161
	c-0.417,0.082-0.792,0.245-1.095,0.541c-0.354,0.085-0.701,0.184-0.976,0.458c-0.191,0.191-0.326,0.421-0.439,0.667
	c-0.198-0.036-0.413,0.031-0.541,0.248c-0.286,0.489-0.511,0.937-0.681,1.473c-0.052,0.164-0.016,0.315,0.069,0.434
	c0,0.022-0.001,0.044,0.001,0.068c0.153,1.41,0.456,2.796,1.328,3.945c0.197,0.26,0.497,0.306,0.719,0.185
	c-0.031,0.056-0.06,0.112-0.091,0.169c-0.341,0.604,0.588,1.146,0.928,0.543c0.62-1.101,1.064-2.284,1.706-3.375
	c0.992-1.688,2.485-2.981,4.07-4.087c2.814-1.963,5.783-4.84,9.439-4.727C51.905,47.333,51.966,46.474,51.474,46.28z M39.215,52.755
	c0.072-0.106,0.143-0.21,0.214-0.314c0.116-0.048,0.23-0.102,0.345-0.154C39.584,52.438,39.397,52.594,39.215,52.755z"/>
<path fill="#4C4C4C" d="M57.034,40.955c0.268-0.63-0.658-1.179-0.929-0.542c-0.136,0.32-0.248,0.639-0.35,0.959
	c-0.026-0.026-0.048-0.057-0.08-0.078c-0.068-0.046-0.136-0.085-0.205-0.128c-0.007-0.264-0.179-0.54-0.515-0.573
	c-0.722-0.064-1.342-0.34-1.86-0.828c-0.167-0.133-0.359-0.163-0.523-0.119c-0.254-0.559-1.11-0.267-1.002,0.373
	c0.064,0.378,0.09,0.788,0.124,1.202c-0.021,0.413-0.089,0.826-0.144,1.254c-0.041,0.32,0.223,0.503,0.499,0.52
	c0.069,0.159,0.153,0.309,0.253,0.451c-0.198,0.113-0.339,0.34-0.285,0.605c0.266,1.301,0.712,2.59,1.377,3.747
	c0.082,0.331,0.16,0.665,0.236,1.002c0.083,0.373,0.421,0.452,0.691,0.339c0.178,0.196,0.463,0.178,0.666,0.041
	c0.013,0.003,0.027,0.005,0.041,0.007c0.059,0.348,0.147,0.675,0.276,0.962c0.116,0.255,0.511,0.345,0.736,0.193
	c0.027-0.019,0.054-0.037,0.082-0.056c0.356-0.241,0.281-0.694,0.034-0.906c-0.294-0.932-0.112-2.389-0.08-3.268
	C56.143,44.348,56.337,42.594,57.034,40.955z M54.938,45.681c-0.007-0.049-0.016-0.098-0.022-0.147
	c0.022-0.057,0.037-0.121,0.041-0.191c0.002-0.045-0.001-0.089,0-0.134c0.036-0.14,0.072-0.28,0.114-0.419
	c0.015,0,0.028,0.001,0.042,0c-0.038,0.394-0.07,0.793-0.1,1.197C54.988,45.885,54.963,45.783,54.938,45.681z"/>
<path fill="#C99363" d="M75.007,33.642c-0.063-0.18-0.198-0.287-0.349-0.339c-0.008-0.123-0.054-0.241-0.146-0.346
	c-0.226-0.252-0.461-0.486-0.701-0.712c-0.15-1.733-2.888-3.664-4.334-2.959c-5.324-2.531-12.572-1.222-17.14,2.327
	c-0.265,0.207-0.22,0.49-0.043,0.679c-0.085,0.029-0.169,0.06-0.257,0.079c-0.678,0.143-0.39,1.18,0.286,1.037
	c1.294-0.272,2.372-1.473,3.558-2.044c1.953-0.941,4.154-1.295,6.295-1.458c3.074-0.233,6.273,0.165,8.913,1.673
	c0.141,0.111,0.277,0.228,0.41,0.347c0.66,0.995,0.896,2.409,1.097,3.498c0.141,0.767,0.405,2.448,0.1,3.608
	c-1.213,0.721-3.603,0.732-4.724,0.806c-2.204,0.145-4.433-0.01-6.63-0.19c-1.529-0.125-3.066-0.261-4.583-0.495
	c-1.104-0.17-3.728-0.379-4.293-1.517c-0.309-0.621-1.236-0.076-0.928,0.542c0.561,1.127,2.229,1.441,3.324,1.703
	c1.746,0.418,3.543,0.559,5.325,0.736c2.243,0.223,4.502,0.379,6.756,0.327c-0.13,0.328,0.023,0.762,0.47,0.726
	c1.229-0.1,2.439-0.34,3.675-0.358c0.241-0.003,0.396-0.138,0.47-0.31c0.104,0.187,0.304,0.303,0.568,0.201
	c0.649-0.249,1.062-0.712,1.322-1.275c0.069,0.226,0.239,0.399,0.506,0.399c0.535,0,0.847-0.533,1.061-1.085
	c0.351-0.293,0.656-0.714,0.382-1.126C75.829,36.653,75.502,35.034,75.007,33.642z"/>
<path fill="#C99363" d="M101.301,58.492c-0.122-0.12-0.27-0.163-0.412-0.15c-0.021-0.026-0.043-0.049-0.068-0.068
	c-0.052-0.175-0.112-0.352-0.188-0.529c-0.214-0.515-1.092-0.516-1.056,0.143c0.008,0.142,0.027,0.292,0.053,0.445
	c-0.31,0.068-0.597,0.424-0.427,0.812c0.722,1.656,0.413,3.73-0.055,5.41c-0.176,0.634,0.632,0.867,0.982,0.414
	C101.457,63.251,103.234,60.403,101.301,58.492z"/>
<path fill="#C99363" d="M33.228,66.973c-0.028-0.688-0.858-0.82-1.387-0.843c-0.099-0.004-0.185,0.028-0.261,0.075
	c-0.357-0.576-1.269-0.04-0.92,0.556c0.579,0.986-0.069,2.307-0.812,3.021c-0.242,0.232-0.196,0.685,0.109,0.845
	c1.842,0.966,2.73-1.136,2.92-2.715C33.081,67.616,33.24,67.285,33.228,66.973z"/>
<path fill="#0C0C0C" d="M60.904,84.065c0.125-0.248,0.187-0.535,0.234-0.911c0.062-0.483-0.529-0.642-0.861-0.415
	c-0.149-0.305-0.592-0.393-0.863-0.145c-0.484,0.44-1.012,1.315-1.747,1.373c-0.109-0.015-0.204-0.05-0.271-0.119
	c-0.229-0.229-0.512-0.186-0.703-0.026c-0.393,0.129-0.591,0.695-0.127,0.961c0.102,0.058,0.203,0.115,0.304,0.173
	c-0.004,0.01-0.01,0.018-0.013,0.026c-0.061,0.156-0.124,0.326-0.185,0.503c-0.277,0.349-0.474,0.84-0.532,1.2
	c-0.021,0.131,0.012,0.266,0.077,0.383c-0.326,1.466-0.406,3.091,0.335,4.151c0.072,0.104,0.173,0.183,0.286,0.227
	c0.062,0.056,0.126,0.104,0.193,0.148c0.053,0.083,0.112,0.161,0.184,0.228c0.188,0.174,0.388,0.274,0.589,0.317
	c0.001,0.099,0.019,0.196,0.073,0.295c0.085,0.157,0.282,0.279,0.464,0.267c0.07-0.005,0.13-0.02,0.185-0.041
	c0.202,0.204,0.54,0.498,0.751,0.231C59.308,92.855,59.333,93,59.361,93h0.002c0.021,0,0.045-0.275,0.066-0.305
	c0.497-0.402,0.792-0.994,1.188-1.545c0.19-0.289,0.064-0.611-0.159-0.746c0.338-1.066,0.519-2.229,0.75-3.317
	c0.022-0.1,0.019-0.201,0-0.279C61.311,85.925,61.237,85.005,60.904,84.065z"/>
<path fill="#0C0C0C" d="M73.593,79.767c0.135-0.354,0.308-0.688,0.561-0.981c0.204-0.239,0.228-0.69-0.109-0.844
	c-0.574-0.262-1.091-0.179-1.372,0.115c-0.075-0.038-0.153-0.076-0.241-0.115c-0.152-0.068-0.308-0.063-0.443-0.018
	c-0.209-0.086-0.416-0.175-0.622-0.267c-0.119-0.349-0.376-0.591-0.816-0.791c-0.341-0.156-0.65-0.021-0.789,0.32
	c-0.056,0.109-0.096,0.224-0.136,0.338c-0.19,0.045-0.366,0.188-0.402,0.38c-0.047,0.368-0.137,0.727-0.269,1.074
	c-0.008,0.027-0.011,0.051-0.015,0.076c-0.737,1.108-0.632,2.549-0.375,3.992c-0.146,1.396-0.186,2.83,0.707,3.892
	c0.307,0.366,0.895,0.069,0.915-0.358c0.163,0.273,0.357,0.493,0.592,0.603c0.315,0.147,0.591,0.157,0.834,0.078
	c0.13,0.021,0.267,0,0.372-0.059c0.664-0.376,0.938-0.924,1.123-1.566c0.181-0.037,0.337-0.155,0.378-0.368
	C73.724,84.023,74.825,80.89,73.593,79.767z"/>
<path fill="#2D2D2D" d="M83.091,60.669c-0.081-0.141-0.176-0.292-0.281-0.442c-0.033-0.17-0.065-0.34-0.097-0.511
	c-0.064-0.356-0.433-0.45-0.717-0.343c-0.29-0.2-0.613-0.312-0.959-0.267c-0.009-0.066-0.017-0.132-0.026-0.197
	c-0.1-0.685-1.135-0.393-1.037,0.286c0.492,3.402,0.234,6.285-0.901,9.527c-0.977,2.787-2.296,5.511-4.425,7.601
	c-0.448,0.439,0.12,1.123,0.65,0.844c1.097-0.577,2.082-1.348,2.933-2.252c0.077,0.017,0.162,0.015,0.254-0.023
	c1.987-0.819,2.958-3.35,3.681-5.201c0.425-1.086,0.911-2.47,1.128-3.847c0.083-0.085,0.143-0.197,0.156-0.341
	C83.615,63.815,83.982,62.212,83.091,60.669z M81.262,61.453c0.095,0.542,0.125,1.099,0.097,1.659
	c-0.031,0.071-0.061,0.142-0.091,0.213C81.294,62.708,81.292,62.086,81.262,61.453z"/>
<path fill="#2D2D2D" d="M69.29,60.827c-0.979,0.605-1.995,1.231-2.871,1.998c-1.743,0.943-3.665,1.268-5.61,0.666
	C60.738,63.314,60.581,63,60.333,63h-0.448c-0.163,0-0.298,0.263-0.395,0.381c-0.71-0.534-1.325-1.016-2.202-1.387
	c-0.63-0.268-1.179,0.702-0.542,0.972c1.039,0.439,1.799,1.333,2.728,1.912c-0.068,0.214-0.008,0.478,0.229,0.63
	c0.846,0.544,1.775,0.829,2.727,1.135c0.353,0.114,0.644-0.179,0.67-0.493c0.221,0.052,0.445,0.102,0.674,0.14
	c0.234,0.038,0.42-0.058,0.538-0.206c0.62,0.122,1.253,0.056,1.847-0.206c0.211-0.093,0.284-0.305,0.258-0.509
	c0.045,0.009,0.095,0.018,0.135,0.026c0.512,0.106,0.801-0.461,0.615-0.805c0.324-0.176,0.646-0.37,0.964-0.594
	c0.389-0.274,0.274-0.772-0.038-0.942c0.643-0.422,1.26-0.891,1.849-1.382C70.416,61.276,69.802,60.511,69.29,60.827z"/>
<path fill="#2D2D2D" d="M78.521,42.745c-0.027-0.568-0.688-0.689-1.002-0.271c-0.148,0.197-0.282,0.401-0.41,0.609
	c-0.102-0.098-0.426-0.159-0.566-0.159c-0.132,0-0.543,0.013-0.543,0.033v-0.122c0-0.543-0.54-0.724-0.816-0.271
	c-0.312,0.509-0.354,0.936-0.43,1.526c-0.014,0.114,0.062,0.211,0.115,0.291c-0.072,0.809-0.311,1.574-0.688,2.305
	c-0.103,0.198-0.063,0.389,0.031,0.536c-0.051,0.113-0.099,0.226-0.149,0.339c-0.695,0.945-1.492,1.805-2.376,2.601
	c-0.014,0.012-0.021,0.026-0.033,0.039c-0.6,0.448-1.17,0.929-1.757,1.395c-0.12,0.095-0.171,0.216-0.172,0.338
	c-0.198,0.135-0.402,0.264-0.614,0.384c-0.167,0.094-0.244,0.229-0.261,0.37c-0.277,0.078-0.555,0.146-0.833,0.208
	c-0.011-0.091-0.033-0.18-0.082-0.254c-0.053-0.418-0.54-0.647-0.905-0.329c-0.017,0.015-0.026,0.03-0.042,0.045
	c-1.92-0.19-3.882,0.135-5.707-0.632c-0.639-0.269-0.915,0.772-0.286,1.037c0.027,0.011,0.053,0.02,0.08,0.03
	c-0.04,0.021-0.079,0.042-0.119,0.063c-0.013,0.007-0.021,0.018-0.034,0.025c-0.567-0.53-1.194-0.932-1.935-0.995
	c-0.691-0.059-0.686,1.017,0,1.075c0.948,0.081,2.011,1.621,2.593,2.278c0.754,0.854,1.521,1.606,2.427,2.303
	C64.021,57.55,64,57.56,64,57.569v0.139c0,0.416,0.521,0.66,0.856,0.462c2.002,1.438,4.326,2.678,6.832,2.584
	c0.395-0.015,0.709-0.449,0.488-0.808c-0.042-0.078-0.083-0.154-0.126-0.23c-0.21-0.502-0.912-0.428-1.053-0.053
	c-1.925-0.138-3.75-1.088-5.372-2.259c0.614-0.729,1.157-1.535,1.573-2.396c0.084-0.04,0.172-0.075,0.266-0.098
	c0.447-0.112,0.467-0.604,0.234-0.874C73.362,52.997,78.802,48.743,78.521,42.745z M63.482,55.661
	c0.097,0.024,0.196,0.043,0.296,0.058c0.073,0.146,0.153,0.286,0.239,0.412C63.833,55.973,63.658,55.817,63.482,55.661z
	 M77.112,45.467c-0.164,0.55-0.381,1.078-0.65,1.579C76.681,46.521,76.89,45.99,77.112,45.467z"/>
<path fill="#2D2D2D" d="M79.059,49.644c-0.318-0.007-0.59,0.086-0.818,0.242c-0.004-0.009-0.004-0.018-0.007-0.027
	c-0.163-0.535-0.855-0.488-1.036,0c-0.121,0.325-0.148,0.651-0.193,0.985C76.974,50.911,77,50.988,77,51.078v0.358
	c0,0.033-0.041,0.064-0.036,0.094c0.011,0.516-0.019,1.036-0.228,1.517c-0.273,0.628,0.641,1.177,0.916,0.542
	c0.186-0.424,0.266-0.844,0.307-1.272c0.167-0.03,0.313-0.147,0.367-0.379c0.062-0.393,0.216-1.229,0.734-1.218
	C79.754,50.734,79.752,49.659,79.059,49.644z"/>
<path fill="#2D2D2D" d="M78.109,25.919c-0.045,0.019-0.082,0.041-0.125,0.062c-0.001-0.003-0.002-0.005-0.004-0.007
	c-0.011,0.008-0.022,0.018-0.034,0.026c-0.023,0.011-0.046,0.022-0.067,0.034c0.168-0.44-0.305-0.724-0.68-0.625
	c-0.122-0.244-0.415-0.372-0.667-0.276c-0.17-0.342-0.834-0.397-1.038,0.088c-0.783,1.86-1.553,3.733-1.453,5.787
	c0.021,0.427,0.483,0.647,0.808,0.459c-0.003,0.115-0.005,0.23-0.001,0.347c0.004,0.119,0.049,0.222,0.118,0.308
	c-0.013,0.105-0.023,0.212-0.029,0.32c-0.033,0.698,1.071,0.683,1.125,0c0.019-0.235,0.13-0.466,0.13-0.696v-0.001
	c0-0.08-0.019-0.158-0.004-0.237c0.002-0.007-0.021-0.014-0.02-0.021c0.619-1.279,1.17-2.573,1.588-3.933
	c0.259-0.246,0.518-0.466,0.773-0.651C78.984,26.574,78.712,25.667,78.109,25.919z M75.824,27.259
	c0.002,0.002,0.004,0.003,0.007,0.005c0.002,0.067,0.008,0.135,0.011,0.203c-0.089,0.173-0.179,0.347-0.269,0.52
	C75.651,27.743,75.735,27.5,75.824,27.259z"/>
<path fill="#F90B1C" d="M87.497,35.664c-0.271-0.355-0.761-0.249-0.952,0.02c-0.128-0.014-0.256,0.012-0.364,0.091
	c-0.283-0.363-0.77-0.618-1.491-0.722c-0.392-0.302-0.79-0.524-1.144-0.594c-0.057-0.55-0.241-1.076-0.618-1.572
	c-0.271-0.356-0.952-0.322-0.993,0.181c-0.174-0.1-0.353-0.195-0.543-0.284c-0.18-0.084-0.363-0.064-0.513,0.014
	c-0.174-0.142-0.356-0.273-0.563-0.373c-0.315-0.151-0.683-0.03-0.789,0.322c-0.01,0.033-0.012,0.065-0.019,0.098
	c-0.332-0.171-0.663-0.339-0.984-0.509c-0.611-0.325-1.155,0.604-0.543,0.928c0.733,0.389,1.463,0.758,2.15,1.189
	c0.651,0.719,1.621,1.359,2.158,1.882c0.829,1.04,1.451,2.249,2.393,3.206c0.216,0.221,0.541,0.191,0.76,0
	c0.141-0.121,0.261-0.254,0.373-0.392c0.233,0.141,0.6,0.082,0.787-0.165C87.209,38.187,88.251,36.652,87.497,35.664z M84.022,35.94
	c-0.003,0.016-0.009,0.034-0.011,0.05c-0.03,0.015-0.06,0.032-0.084,0.052c-0.115,0.02-0.286-0.058-0.474-0.18
	c0.006-0.031,0.012-0.062,0.018-0.093C83.535,35.626,83.749,35.723,84.022,35.94z"/>
<path fill="#2D2D2D" d="M71.264,66.937c0.032-0.516-0.782-0.762-1.002-0.271c-0.272,0.61-0.553,1.232-0.871,1.829
	c-0.179,0-0.361,0.07-0.473,0.232c-0.188,0.271-0.375,0.544-0.563,0.813c-0.849,0.459-1.861,0.736-2.753,0.982
	c-2.277,0.63-4.843,0.386-6.501-1.457c-0.218-0.242-0.499-0.202-0.69-0.039c-0.046-0.109-0.1-0.213-0.153-0.317
	c0.379-0.072,0.669-0.557,0.305-0.897c-0.902-0.848-1.958-1.445-3.085-1.944c-0.483-0.215-1.014-0.471-1.539-0.552
	c-0.211-0.031-0.781-0.058-0.983-0.093c-0.201-0.294-0.65-0.402-0.856-0.035c-0.263,0.119-0.459,0.431-0.294,0.766
	c0.692,1.404,1.862,2.525,2.783,3.79c0.119,0.181,0.243,0.358,0.368,0.536c1.293,2.028,1.558,4.357,1.605,6.695
	c-0.147,0.154-0.218,0.384-0.097,0.626c0.06,0.12,0.12,0.24,0.179,0.358c0.245,0.489,1.005,0.244,1.002-0.271
	c-0.001-0.239-0.006-0.477-0.011-0.713c0.139,0.013,0.281-0.029,0.392-0.162c0.743-0.884,1.097-2.052,1.293-3.172
	c0.064-0.367,0.066-0.688,0.028-0.986c0.178,0.15,0.361,0.29,0.556,0.41c0.268,0.27,0.542,0.533,0.839,0.771
	c0.006,0.007,0.012,0.014,0.019,0.021l0.002-0.003c0.036,0.029,0.07,0.06,0.107,0.087c0.304,0.229,0.628,0.025,0.747-0.265
	c0.138,0.059,0.278,0.114,0.419,0.16c0.081,0.148,0.23,0.261,0.449,0.268c0.326,0.006,0.646,0.014,0.959,0.014
	c0.579,0.042,1.176-0.009,1.782-0.151c0.036-0.008,0.071-0.018,0.106-0.025c0.086-0.022,0.173-0.044,0.259-0.07
	c0.097-0.027,0.192-0.06,0.288-0.094c0.052-0.018,0.101-0.031,0.152-0.051c0-0.002-0.001-0.003-0.002-0.006
	c0.043-0.017,0.087-0.029,0.131-0.049c0.095-0.04,0.159-0.102,0.204-0.175c0.201,0.115,0.455,0.122,0.622-0.087
	c0.018-0.022,0.033-0.047,0.052-0.069c0.332-0.073,0.665-0.203,1.006-0.43c0.966-0.648,1.663-1.8,2.036-2.875
	c0.059-0.168,0.031-0.312-0.045-0.422C70.725,68.953,71.192,68.093,71.264,66.937z M58.86,70.633
	c-0.035-0.131-0.069-0.262-0.108-0.392c0.108,0.1,0.221,0.191,0.333,0.28C59.005,70.542,58.928,70.58,58.86,70.633z"/>
<path fill="#2D2D2D" d="M51.12,51.971c-0.407-0.551-1.341-0.016-0.928,0.543c0.172,0.233,0.336,0.47,0.494,0.708
	c-0.208-0.215-0.419-0.428-0.635-0.643c-0.492-0.489-1.252,0.271-0.76,0.76c0.971,0.965,2.032,1.934,2.498,3.261
	c0.388,1.106,0.492,2.284,1.002,3.351c0.005,0.012,0.013,0.021,0.02,0.032c0.032,0.657,1.067,0.646,1.072-0.035
	C53.903,56.971,52.875,54.348,51.12,51.971z"/>
<g>
	<path fill="#05093F" d="M67.512,66.541c1.538-3.928,5.047-6.887,9.119-7.913c3.526-0.888,6.954,0.512,6.966,4.51
		c0.007,2.565-1.182,5.139-2.323,7.372c-1.311,2.564-3.179,5.199-5.951,6.286c-1.353,0.53-3.079,0.514-4.346-0.224
		c-1.158-0.674-0.948-2.38-0.758-3.468c0.43-2.449,1.526-4.737,2.07-7.16c0.152-0.675-0.884-0.962-1.036-0.286
		c-0.677,3.007-2.29,5.937-2.251,9.069c0.036,2.846,2.834,3.697,5.243,3.43c3.156-0.352,5.461-3.024,7.062-5.531
		c1.664-2.609,3.002-5.737,3.33-8.83c0.469-4.438-2.988-7.014-7.177-6.411c-4.919,0.709-9.188,4.284-10.985,8.872
		C66.222,66.902,67.261,67.18,67.512,66.541L67.512,66.541z"/>
</g>
<g>
	<path fill="#05093F" d="M69.754,70.906c-1.797,2.963-6.813,4.515-9.519,1.802c-1.597-1.601-1.526-4.22-3.255-5.853
		c-0.503-0.476-1.266,0.283-0.76,0.761c2.188,2.065,1.832,5.566,4.827,6.933c3.416,1.558,7.742,0.024,9.637-3.1
		C71.043,70.854,70.113,70.314,69.754,70.906L69.754,70.906z"/>
</g>
<g>
	<path fill="#05093F" d="M58.929,72.73c-0.058,1.806-0.34,3.95-1.945,5.068c-1.207,0.84-2.805,0.556-4.095,0.106
		c-3.509-1.226-6.396-4.66-7.524-8.118c-1.206-3.698,0.383-9.67,5.031-9.632c4.066,0.035,7.964,4.017,9.921,7.232
		c0.36,0.59,1.29,0.051,0.928-0.543c-2.296-3.773-6.716-7.972-11.461-7.753c-5.119,0.236-6.631,6.968-5.456,10.98
		c1.188,4.055,4.762,7.78,8.799,9.043c4.533,1.416,6.748-2.372,6.877-6.385C60.027,72.037,58.951,72.039,58.929,72.73L58.929,72.73z
		"/>
</g>
<g>
	<path fill="#05093F" d="M59.434,65.907c2.795,2.05,7.221,1.503,8.979-1.626c0.34-0.605-0.589-1.147-0.929-0.543
		c-1.493,2.657-5.186,2.943-7.508,1.241C59.417,64.568,58.881,65.502,59.434,65.907L59.434,65.907z"/>
</g>
<g>
	<path fill="#05093F" d="M48.324,54.081c2.245,1.458,3.557,3.64,4.412,6.129c0.224,0.652,1.263,0.372,1.037-0.286
		c-0.949-2.763-2.417-5.156-4.906-6.772C48.283,52.773,47.745,53.705,48.324,54.081L48.324,54.081z"/>
</g>
<g>
	<path fill="#05093F" d="M77.446,57.559c0.271-2.582,1.072-4.994,2.555-7.136c0.396-0.572-0.537-1.108-0.929-0.542
		c-1.594,2.303-2.41,4.908-2.701,7.678C76.298,58.248,77.375,58.24,77.446,57.559L77.446,57.559z"/>
</g>
<g>
	<path fill="#05093F" d="M58.47,51.967c1.952,5.541,7.125,7.906,12.322,9.694c0.657,0.226,0.938-0.813,0.286-1.037
		c-4.797-1.65-9.758-3.794-11.571-8.943C59.278,51.032,58.239,51.312,58.47,51.967L58.47,51.967z"/>
</g>
<g>
	<path fill="#05093F" d="M50.686,37.966c0.313,3.629-0.024,8.104,2.358,11.15c2.227,2.848,6.258,3.261,9.628,3.515
		c3.404,0.256,6.859,0.144,9.421-2.358c2.652-2.591,3.966-6.882,3.92-10.516c-0.009-0.693-1.084-0.694-1.076,0
		c0.043,3.344-1.134,6.871-3.303,9.431c-2.25,2.656-5.773,2.561-8.962,2.368c-2.898-0.176-6.536-0.569-8.591-2.847
		c-2.457-2.722-2.028-7.355-2.319-10.744C51.702,37.281,50.626,37.275,50.686,37.966L50.686,37.966z"/>
</g>
<g>
	<path fill="#05093F" d="M49.326,37.043c2.548,3.799,8.912,4.45,13.021,4.847c4.691,0.453,10.852,0.739,14.463-2.827
		c0.495-0.488-0.266-1.248-0.76-0.76c-3.222,3.181-8.66,2.864-12.853,2.582c-2.561-0.172-5.112-0.593-7.579-1.304
		c-1.89-0.544-4.215-1.367-5.364-3.081C49.87,35.928,48.938,36.465,49.326,37.043L49.326,37.043z"/>
</g>
<g>
	<path fill="#05093F" d="M51.071,43.356c-1.322,0.914-2.922,1.451-4.405,2.038c-2.148,0.852-4.302,1.687-6.408,2.64
		c-2.857,1.293-7.672,3.417-8.112,7.038c-0.44,3.619,3.958,7.084,7.342,6.028c4.411-1.376,6.298-7.569,11.018-8.141
		c0.68-0.082,0.688-1.158,0-1.075c-3.908,0.474-6.354,4.512-9.138,6.864c-1.915,1.618-4.001,2.05-6.051,0.39
		c-1.361-1.102-2.528-2.753-1.957-4.551c1.049-3.3,6.213-5.119,9.045-6.33c2.985-1.274,6.516-2.112,9.208-3.973
		C52.18,43.893,51.644,42.96,51.071,43.356L51.071,43.356z"/>
</g>
<g>
	<path fill="#05093F" d="M78.104,50.211c3.389-0.015,5.622,1.355,8.34,3.154c1.815,1.2,3.53,1.928,5.702,2.132
		c3.306,0.311,7.534-1.144,5.655-5.14c-0.295-0.627-1.221-0.081-0.929,0.543c1.983,4.216-4.94,3.751-7.191,3.019
		c-1.93-0.627-3.589-2.146-5.298-3.2c-1.927-1.188-4.039-1.593-6.279-1.583C77.41,49.139,77.41,50.214,78.104,50.211L78.104,50.211z
		"/>
</g>
<g>
	<path fill="#05093F" d="M75.714,42.805c4.464,0.014,8.93,0.26,13.38,0.597c0.692,0.052,0.687-1.023,0-1.075
		c-4.45-0.337-8.916-0.583-13.38-0.597C75.02,41.728,75.021,42.802,75.714,42.805L75.714,42.805z"/>
</g>
<g>
	<path fill="#05093F" d="M88.595,43.125c2.747,2.571,6.095,4.657,8.277,7.776c0.396,0.563,1.328,0.027,0.929-0.543
		c-2.246-3.208-5.62-5.349-8.446-7.993C88.849,41.891,88.087,42.65,88.595,43.125L88.595,43.125z"/>
</g>
<g>
	<path fill="#05093F" d="M53.233,79.442c1.262,1.058,1.69,2.775,2.798,3.972c0.771,0.834,2.348,0.911,3.259,0.279
		c1.93-1.338,0.162-5.013,0.028-6.781c-0.053-0.687-1.128-0.692-1.076,0c0.127,1.676,1.36,4.027,0.639,5.641
		c-0.255,0.57-1.046,0.483-1.541,0.412c-0.63-0.092-1.019-0.892-1.31-1.372c-0.615-1.017-1.109-2.132-2.038-2.91
		C53.465,78.24,52.7,78.997,53.233,79.442L53.233,79.442z"/>
</g>
<g>
	<path fill="#05093F" d="M56.219,84.297c-1.824,2.308-1.625,10.422,2.922,8.88c1.914-0.649,2.643-3.327,2.839-5.082
		c0.258-2.307,0.177-5.227-1.749-6.813C60.106,81.587,60,81.81,60,82.168l0,0c1,0,1-1.075,0-1.075c0,0,1,0,0,0
		c0,0-0.903,0.639-0.527,0.948c2.456,2.024,2.077,7.167,0.202,9.486c-1.547,1.913-3.169-0.266-3.344-1.912
		c-0.127-1.204-0.144-3.536,0.667-4.562C57.423,84.516,56.649,83.753,56.219,84.297L56.219,84.297z"/>
</g>
<g>
	<path fill="#05093F" d="M69.156,76.641c-1.169,2.236-1.596,5.109-1.273,7.597c0.246,1.898,1.692,4.302,3.972,3.78
		c2.024-0.464,2.524-2.852,2.754-4.611c0.219-1.667,0.438-4.488-0.552-5.992c-0.378-0.578-1.31-0.039-0.928,0.542
		c0.649,0.987,0.517,2.717,0.509,3.838c-0.01,1.573-0.151,3.644-1.322,4.831c-0.739,0.751-1.913,0.229-2.528-0.388
		c-0.76-0.765-0.877-2.09-0.925-3.097c-0.094-1.955,0.311-4.212,1.223-5.957C70.406,76.57,69.479,76.026,69.156,76.641
		L69.156,76.641z"/>
</g>
<g>
	<path fill="#05093F" d="M65.581,58.655c1.716-1.677,2.78-3.987,3.603-6.21c0.241-0.652-0.798-0.931-1.036-0.286
		c-0.756,2.043-1.75,4.195-3.327,5.736C64.324,58.38,65.085,59.14,65.581,58.655L65.581,58.655z"/>
</g>
<g>
	<path fill="#05093F" d="M51.861,38.085c0.43-2.509-0.333-5.761,1.851-7.288c2.418-1.69,6.114-1.998,8.953-2.199
		c3.085-0.219,6.454-0.083,9.115,1.656c2.597,1.697,3.727,5.103,3.396,8.068c-0.077,0.689,0.999,0.682,1.075,0.001
		c0.347-3.115-0.804-6.189-3.084-8.331c-2.479-2.327-6.225-2.576-9.44-2.513c-3.39,0.066-7.184,0.563-10.206,2.185
		c-2.777,1.492-2.201,5.326-2.698,8.147c-0.119,0.678-0.159,0.274-0.038-0.443L51.861,38.085z"/>
</g>
<g>
	<path fill="#05093F" d="M51.383,32.806c-0.46-1.455-0.192-2.141-1.8-2.831c0.037,0.282,0.073,0.563,0.109,0.845
		c2.073-1.787,3.332-4.097,4.721-6.411c1.78-2.964,4.094-4.554,7.484-5.262c3.841-0.803,7.963-0.722,11.766,0.222
		c3.333,0.828,8.146,3.127,8.702,6.913c0.124-0.22,0.249-0.44,0.374-0.661c-2.018,0.312-3.855-0.65-5.854,0
		c-0.655,0.214-0.376,1.252,0.287,1.037c1.909-0.622,3.882,0.304,5.853,0c0.314-0.048,0.414-0.399,0.376-0.662
		c-0.531-3.621-4.345-5.723-7.409-6.998c-3.924-1.632-8.542-1.708-12.693-1.167c-3.442,0.449-6.473,1.53-8.658,4.326
		c-2.037,2.607-3.143,5.69-5.708,7.903c-0.242,0.209-0.2,0.712,0.109,0.844c1.217,0.522,0.978,1.149,1.306,2.188
		C50.555,33.75,51.593,33.468,51.383,32.806L51.383,32.806z"/>
</g>
<g>
	<path fill="#05093F" d="M76.352,33.928c0.403-1.203,0.834-2.396,1.305-3.575c0.295-0.741,0.623-1.468,0.991-2.176
		c0.186-0.356,0.782-1.045,0.629-1.181c0.519,0.455,1.283-0.302,0.76-0.76c-2.024-1.774-4.35,6.297-4.721,7.405
		C75.094,34.301,76.133,34.582,76.352,33.928L76.352,33.928z"/>
</g>
<g>
	<path fill="#05093F" d="M76.646,31.316c3.143,0.921,15.328-2.4,12.646,4.237c-0.26,0.644,0.78,0.92,1.037,0.286
		c3.276-8.108-9.807-4.507-13.396-5.56C76.266,30.084,75.983,31.122,76.646,31.316L76.646,31.316z"/>
</g>
<g>
	<path fill="#05093F" d="M89.476,35.178c-1.731-0.493-3.503-0.479-5.279-0.258c0.172,0.227,0.346,0.453,0.518,0.681
		c0.371-2.291-2.459-3.339-4.183-3.918c-1.07-0.36-4.811-1.686-5.794-0.548c-0.451,0.522,0.305,1.286,0.76,0.76
		c0.427-0.494,3.463,0.453,4.088,0.624c1.087,0.297,4.353,1.188,4.092,2.796c-0.049,0.304,0.14,0.728,0.52,0.68
		c1.679-0.208,3.352-0.247,4.993,0.22C89.858,36.405,90.142,35.368,89.476,35.178L89.476,35.178z"/>
</g>
<g>
	<path fill="#05093F" d="M76.04,32.457c3.249,2.343,6.307,4.952,8.408,8.409c0.146,0.24,0.487,0.356,0.735,0.193
		c1.8-1.183,3.615-3.218,2.757-5.505c-0.242-0.642-1.281-0.364-1.038,0.286c0.687,1.825-0.859,3.37-2.261,4.291
		c0.245,0.064,0.49,0.128,0.736,0.193c-2.2-3.616-5.396-6.344-8.795-8.795C76.019,31.122,75.483,32.056,76.04,32.457L76.04,32.457z"
		/>
</g>
<g>
	<path fill="#05093F" d="M92.656,55.758c1.423,1.142,2.818,2.316,4.211,3.495c0.526,0.445,1.29-0.312,0.761-0.761
		c-1.393-1.178-2.789-2.352-4.212-3.494C92.882,54.569,92.115,55.324,92.656,55.758L92.656,55.758z"/>
</g>
<g>
	<path fill="#05093F" d="M97.088,52.833c0.452,1.58,1.279,3.02,1.936,4.519c0.277,0.635,1.203,0.086,0.929-0.543
		c-0.619-1.414-1.4-2.771-1.828-4.261C97.933,51.882,96.896,52.166,97.088,52.833L97.088,52.833z"/>
</g>
<g>
	<path fill="#05093F" d="M97.749,59.749c1.117-0.359,1.898-1.19,2.347-2.257c0.113-0.271-0.12-0.591-0.376-0.661
		c-0.311-0.085-0.548,0.105-0.66,0.375c-0.295,0.702-0.871,1.273-1.597,1.507C96.806,58.925,97.087,59.963,97.749,59.749
		L97.749,59.749z"/>
</g>
<g>
	<path fill="#05093F" d="M95.972,58.762c-1.053,1.258-1.929,3.056-1.572,4.745c0.436,2.059,2.281,2.653,4.192,2.533
		c4.635-0.289,4.608-6.7,2.172-9.34c-0.472-0.51-1.229,0.252-0.761,0.761c1.909,2.067,2.108,6.649-1.188,7.471
		c-3.956,0.984-3.861-3.282-2.083-5.41C97.173,58.993,96.417,58.229,95.972,58.762L95.972,58.762z"/>
</g>
<g>
	<path fill="#05093F" d="M32.271,56.451c-1.175,2.339-2.408,4.648-3.584,6.988c-0.31,0.617,0.617,1.163,0.929,0.542
		c1.176-2.339,2.409-4.648,3.584-6.988C33.511,56.376,32.583,55.831,32.271,56.451L32.271,56.451z"/>
</g>
<g>
	<path fill="#05093F" d="M33.007,65.877c1.971-1.513,3.855-3.129,5.664-4.832c0.505-0.477-0.256-1.235-0.76-0.76
		c-1.741,1.64-3.549,3.207-5.446,4.664C31.923,65.365,32.457,66.3,33.007,65.877L33.007,65.877z"/>
</g>
<g>
	<path fill="#05093F" d="M28.723,64.212c0.369,2.057,2.322,3.121,4.105,1.845c0.559-0.399,0.022-1.333-0.542-0.928
		c-1.242,0.888-2.275,0.198-2.525-1.202C29.638,63.244,28.602,63.534,28.723,64.212L28.723,64.212z"/>
</g>
<g>
	<path fill="#05093F" d="M28.472,63.014c-1.557,0.47-2.917,1.528-2.841,3.292c0.068,1.566,1.178,3.007,2.368,3.934
		c1.165,0.907,2.697,1.522,4.131,0.897c1.905-0.831,1.952-3.653,1.86-5.365c-0.037-0.689-1.112-0.692-1.075,0
		c0.073,1.364,0.173,3.601-1.239,4.392c-0.938,0.525-2.168-0.149-2.926-0.693c-0.949-0.681-1.75-1.73-2.005-2.881
		c-0.307-1.382,0.838-2.184,2.013-2.538C29.419,63.851,29.137,62.813,28.472,63.014L28.472,63.014z"/>
</g>
<g>
	<path fill="#05093F" d="M51.644,29.321c3.554-2.672,8.168-3.399,12.515-3.221c5.098,0.21,9.601,1.984,12.644,6.164
		c0.404,0.555,1.337,0.019,0.929-0.542c-1.435-1.971-2.94-3.535-5.129-4.654c-2.164-1.107-4.583-1.637-6.979-1.924
		c-4.892-0.586-10.508,0.231-14.522,3.25C50.555,28.804,51.089,29.738,51.644,29.321L51.644,29.321z"/>
</g>
<g>
	<path fill="#05093F" d="M58.454,33.231c-2.571-1.179-4.229,3.451-1.771,4.458c0.834,0.342,1.719-0.429,2.18-1.031
		c0.569-0.743,0.98-1.746,0.824-2.695c-0.142-0.865-0.962-1.637-1.879-1.459c-0.85,0.166-1.338,1.028-1.591,1.781
		c-0.23,0.683-0.315,1.717,0.356,2.188c0.755,0.53,1.813-0.191,2.259-0.807c0.587-0.811,0.071-2.085-0.839-2.388
		c-1.537-0.512-1.699,1.601-1.602,2.569c0.032,0.32,0.324,0.647,0.681,0.518c0.402-0.146,0.828-0.273,1.168-0.542
		c0.37-0.292,0.515-0.711,0.787-1.078c0.12-0.16,0.076-0.379,0-0.542c-0.153-0.333-0.72-0.605-1.061-0.678
		c-0.309-0.065-0.721,0.15-0.68,0.519c0.007,0.064-0.188,0.371-0.221,0.455c-0.064,0.159-0.11,0.317-0.135,0.488
		c-0.057,0.397,0.037,0.792,0.107,1.184c0.059,0.322,0.522,0.516,0.79,0.321c0.316-0.23,0.526-0.444,0.653-0.818
		c0.111-0.328-0.028-0.691,0.042-1.026c0.141-0.677-0.896-0.964-1.037-0.286c-0.07,0.334,0.085,0.993-0.201,1.202
		c0.263,0.107,0.526,0.214,0.79,0.321c-0.05-0.274-0.131-0.557-0.065-0.834c0.075-0.314,0.387-0.686,0.352-1.006
		c-0.227,0.173-0.454,0.346-0.681,0.518c0.064,0.014,0.041,0.029,0.11,0.061c0.092,0.042,0.21,0.232,0.21,0.123
		c0-0.181,0-0.362,0-0.542c0,0.228-0.215,0.5-0.405,0.716c-0.203,0.231-0.559,0.31-0.834,0.41c0.227,0.173,0.465,0.346,0.692,0.519
		c-0.046-0.464-0.076-0.936,0.057-1.388c0.022-0.079,0.078-0.154,0.126-0.184c-0.062,0.037-0.05-0.011,0.001,0.011
		c0.342,0.146,0.475,0.592,0.23,0.879c-0.16,0.187-0.477,0.401-0.727,0.408c0.059-0.001-0.008-0.166-0.011-0.294
		c-0.014-0.553,0.235-1.178,0.623-1.569c0.384-0.387,0.845,0.064,0.89,0.495c0.07,0.666-0.284,1.386-0.694,1.888
		c-0.244,0.298-0.804,0.866-1.151,0.401c-0.515-0.688-0.024-2.856,1.114-2.334C58.536,34.446,59.083,33.52,58.454,33.231
		L58.454,33.231z"/>
</g>
<g>
	<path fill="#05093F" d="M68.747,33.759c-2.884-0.187-2.478,5.207,0.177,4.782c1.958-0.313,2.118-3.739,1.028-4.924
		c-0.7-0.763-1.873-0.617-2.453,0.172c-0.553,0.754-0.479,2.034-0.127,2.849c0.938,2.169,3.726-0.543,2.252-2.161
		c-0.429-0.47-1.283-0.709-1.821-0.294c-0.907,0.699-0.329,2.029,0.076,2.841c0.165,0.33,0.599,0.321,0.845,0.109
		c0.323-0.28,0.647-0.548,0.869-0.919c0.215-0.362,0.215-0.791,0.304-1.188c0.04-0.176,0.011-0.399-0.138-0.523
		c-0.309-0.258-0.827-0.342-1.222-0.293c-0.326,0.04-0.64,0.316-0.519,0.68c0.092,0.279-0.034,0.773,0.022,1.096
		c0.061,0.35,0.31,0.686,0.487,0.981c0.214,0.352,0.715,0.343,0.93,0c0.491-0.785,0.069-1.204-0.072-1.998
		c-0.12-0.681-1.156-0.604-1.036,0.073C68.42,35.443,68.767,36,68.528,36c0.311,0,0.619,0,0.93,0c-0.158,0-0.367-0.312-0.394-0.623
		c-0.025-0.313,0.09-0.58-0.01-0.878c-0.173,0.227-0.346,0.508-0.518,0.734c0.078-0.01,0.156,0.022,0.235,0.026
		c0.149,0.008,0.439,0.169,0.227-0.009c-0.047-0.175-0.093-0.342-0.14-0.516c-0.068,0.306-0.062,0.643-0.195,0.934
		c-0.131,0.286-0.472,0.506-0.701,0.704c0.282,0.036,0.563,0.073,0.845,0.109c-0.204-0.407-0.408-0.839-0.408-1.303
		c-0.002-0.188-0.002-0.133,0.131-0.13c0.444,0.011,0.548,0.551,0.389,0.858c-0.331,0.639-0.493,0.638-0.661,0.013
		c-0.118-0.436-0.174-1.35,0.244-1.667c0.494-0.375,0.9,0.395,0.991,0.754c0.162,0.633,0.029,1.397-0.26,1.974
		c-0.901,1.799-2.48-2.274-0.486-2.145C69.439,34.88,69.436,33.804,68.747,33.759L68.747,33.759z"/>
</g>
<circle fill="#FFFFFF" cx="57.264" cy="34.183" r="1.094"/>
<circle fill="#FFFFFF" cx="68.375" cy="34.542" r="1.094"/>
<circle fill="#05093F" cx="68.688" cy="37.281" r="0.491"/>
<circle fill="#05093F" cx="56.984" cy="36.516" r="0.246"/>
<g opacity="0.13">
	<path d="M90.584,9.911h-53.12l-26.56,46.074l26.56,46.073h53.12l26.561-46.073L90.584,9.911z M89.504,100.194h-50.97l-25.49-44.21
		l25.49-44.211h50.97l25.489,44.211L89.504,100.194z"/>
</g>
</svg>
