<?xml version="1.0" encoding="utf-8"?>
<!-- Generator: Adobe Illustrator 16.0.0, SVG Export Plug-In . SVG Version: 6.00 Build 0)  -->
<!DOCTYPE svg PUBLIC "-//W3C//DTD SVG 1.1//EN" "http://www.w3.org/Graphics/SVG/1.1/DTD/svg11.dtd">
<svg version="1.1" id="Layer_1" xmlns="http://www.w3.org/2000/svg" xmlns:xlink="http://www.w3.org/1999/xlink" x="0px" y="0px"
	 width="110.833px" height="128.339px" viewBox="8.667 -9.172 110.833 128.339"
	 enable-background="new 8.667 -9.172 110.833 128.339" xml:space="preserve">
<g id="Layer_14">
	<polygon fill="#C64439" points="119.5,86.827 64.074,118.827 8.649,86.827 8.649,22.828 64.074,-9.172 119.5,22.828 	"/>
	<polygon fill="#E07E71" points="64.574,2.006 79.715,10.746 80.404,11.146 89.994,16.676 90.864,17.176 94.555,19.307 
		94.645,19.356 100.234,22.586 110.574,28.557 110.574,81.687 100.145,87.706 99.904,87.826 99.774,87.887 99.664,87.946 
		96.635,89.687 94.764,90.767 94.725,90.796 91.475,92.676 89.225,93.977 87.564,94.937 84.895,96.477 80.274,99.146 79.645,99.517 
		79.584,99.546 76.084,101.566 64.524,108.246 54.844,102.646 49.484,99.546 48.794,99.146 40.644,94.437 40.074,94.106 
		32.944,89.986 32.854,89.937 18.574,81.687 18.574,28.557 32.904,20.276 39.824,16.287 44.394,13.656 45.934,12.756 48.734,11.146 
		49.424,10.746 50.884,9.906 56.604,6.606 	"/>
</g>
<g id="Layer_2">
	<g id="Layer_16_1_">
		<path opacity="0.13" enable-background="new    " d="M18.486,28.562v53.121l46.073,26.559l46.074-26.559V28.562L64.56,2.001
			L18.486,28.562z M108.769,29.642v50.97l-44.21,25.49l-44.211-25.49v-50.97L64.559,4.153L108.769,29.642z"/>
	</g>
</g>
<g>
	<g>
		<g>
			<path fill-rule="evenodd" clip-rule="evenodd" fill="#C64439" d="M67.464,82.729c-0.302,0.232-0.563,0.455-0.843,0.646
				c-0.581,0.399-0.97,0.362-1.484-0.144c-0.403-0.397-0.817-0.789-1.179-1.219c-0.295-0.351-0.292-0.771-0.025-1.149
				c0.224-0.326,0.483-0.628,0.722-0.933c-0.183-0.443-0.329-0.873-0.539-1.273c-0.074-0.142-0.296-0.26-0.463-0.283
				c-1.583-0.234-1.587-0.229-1.587-1.849c0-0.283-0.002-0.566,0.004-0.85c0.003-0.776,0.252-1.121,1.024-1.121
				c0.7,0,0.933-0.313,1.186-0.915c0.277-0.663,0.258-1.112-0.25-1.64c-0.457-0.472-0.39-0.927,0.066-1.393
				c0.368-0.378,0.747-0.756,1.126-1.129c0.514-0.5,0.873-0.52,1.443-0.08c0.229,0.172,0.447,0.348,0.667,0.525
				c0.535-0.219,1.063-0.421,1.576-0.646c0.11-0.051,0.213-0.198,0.25-0.318c0.059-0.219,0.071-0.453,0.094-0.675
				c0.071-0.61,0.386-0.91,1.009-0.928c0.552-0.015,1.104-0.008,1.651,0c0.674,0.013,1.056,0.317,1.055,0.992
				c-0.005,0.669,0.248,1.022,0.888,1.135c0.034,0.008,0.073,0.015,0.105,0.034c0.599,0.438,1.098,0.355,1.617-0.181
				c0.381-0.395,0.858-0.339,1.259,0.062c0.42,0.414,0.841,0.823,1.249,1.25c0.419,0.434,0.429,0.807,0.072,1.316
				c-0.196,0.273-0.559,0.58-0.525,0.826c0.076,0.508,0.355,0.992,0.576,1.465c0.041,0.086,0.218,0.124,0.338,0.146
				c0.241,0.049,0.485,0.072,0.732,0.105c0.54,0.067,0.791,0.39,0.791,0.924c0.002,0.606,0.005,1.215,0,1.821
				c-0.004,0.54-0.268,0.887-0.812,0.901c-0.757,0.025-1.161,0.318-1.44,1.085c-0.229,0.616-0.176,0.975,0.232,1.43
				c0.551,0.626,0.499,1.042-0.098,1.616c-0.354,0.341-0.718,0.664-1.079,0.996c-0.493,0.468-0.809,0.536-1.317,0.082
				c-0.619-0.557-1.137-0.454-1.884-0.186c-0.761,0.271-0.766,0.741-0.812,1.304c-0.045,0.561-0.322,0.889-0.882,0.919
				c-0.623,0.027-1.251,0.029-1.877,0c-0.507-0.029-0.88-0.277-0.88-0.841c0.004-0.953-0.482-1.466-1.39-1.636
				C67.709,82.901,67.599,82.804,67.464,82.729z M71.074,79.436c1.758,0.008,3.169-1.366,3.184-3.095
				c0.015-1.719-1.398-3.164-3.113-3.19s-3.16,1.398-3.17,3.123C67.968,78.038,69.326,79.423,71.074,79.436z"/>
			<path fill-rule="evenodd" clip-rule="evenodd" fill="#C64439" d="M92.358,83.638c0.045,1.003-0.063,1.123-1.026,1.365
				c-0.183,0.046-0.354,0.262-0.466,0.441c-0.118,0.188-0.132,0.435-0.23,0.64c-0.141,0.28-0.087,0.47,0.133,0.695
				c0.686,0.708,0.684,1.008,0.06,1.736c-0.126,0.144-0.244,0.289-0.367,0.438c-0.603,0.721-0.898,0.776-1.68,0.24
				c-0.285-0.193-0.489-0.184-0.807-0.037c-0.626,0.286-1.082,0.585-1.005,1.401c0.016,0.209-0.356,0.588-0.618,0.667
				c-0.48,0.145-1.006,0.151-1.516,0.165c-0.516,0.012-0.782-0.31-0.891-0.79c-0.058-0.253-0.066-0.617-0.231-0.724
				c-0.336-0.218-0.761-0.339-1.163-0.405c-0.141-0.023-0.338,0.2-0.489,0.336c-0.662,0.588-0.938,0.593-1.621,0.022
				c-0.088-0.073-0.171-0.149-0.259-0.223c-1.018-0.876-1.013-0.892-0.364-2.06c0.074-0.13,0.068-0.354,0.008-0.499
				c-0.238-0.586-0.504-1.085-1.332-0.974c-0.461,0.064-0.788-0.313-0.819-0.834c-0.015-0.246-0.04-0.492-0.05-0.738
				c-0.062-1.224-0.062-1.221,1.134-1.569c0.129-0.035,0.266-0.145,0.328-0.259c0.408-0.718,0.366-1.114-0.147-1.74
				c-0.336-0.411-0.355-0.819-0.021-1.238c0.156-0.189,0.312-0.381,0.472-0.57c0.771-0.899,0.832-0.903,1.894-0.321
				c0.124,0.07,0.337,0.041,0.488-0.006c0.193-0.065,0.358-0.228,0.553-0.29c0.462-0.14,0.643-0.403,0.613-0.91
				c-0.035-0.566,0.28-0.861,0.848-0.927c0.397-0.046,0.791-0.091,1.188-0.104c0.633-0.022,0.866,0.175,1.025,0.809
				c0.203,0.827,1.382,1.203,2.023,0.649c0.497-0.428,0.844-0.433,1.365-0.013c0.132,0.107,0.256,0.223,0.385,0.335
				c0.985,0.834,0.985,0.834,0.396,2.003c-0.026,0.051-0.071,0.099-0.082,0.151c-0.07,0.375,0.691,1.344,1.088,1.385
				c0.926,0.103,1.056,0.226,1.152,1.122C92.349,83.218,92.349,83.427,92.358,83.638z M85,86.481c1.421,0,2.559-1.146,2.595-2.611
				c0.029-1.298-1.243-2.525-2.611-2.531c-1.169-0.005-2.59,0.896-2.533,2.808C82.485,85.329,83.69,86.477,85,86.481z"/>
			<path fill-rule="evenodd" clip-rule="evenodd" fill="#C64439" d="M71.596,86.997c0.298-0.119,0.61-0.218,0.89-0.372
				c0.131-0.075,0.264-0.244,0.298-0.392c0.184-0.784,0.405-0.92,1.542-0.896c0.689,0.018,0.943,0.237,1.057,0.927
				c0.067,0.445,1.03,0.855,1.418,0.608c0.672-0.427,0.874-0.378,1.592,0.361c0.585,0.6,0.625,0.867,0.213,1.474
				c-0.307,0.465,0.063,1.322,0.62,1.417c0.527,0.087,0.801,0.392,0.816,0.923c0.008,0.229,0.004,0.455-0.002,0.685
				c-0.01,0.53-0.287,0.839-0.798,0.954c-0.709,0.165-1.036,0.933-0.642,1.527c0.28,0.424,0.258,0.817-0.097,1.182
				c-0.174,0.178-0.347,0.351-0.528,0.519c-0.391,0.363-0.801,0.361-1.229,0.052c-0.54-0.387-1.423-0.063-1.556,0.57
				c-0.145,0.67-0.364,0.851-1.041,0.859c-0.17,0-0.342,0-0.515-0.002c-0.622-0.014-0.879-0.243-0.988-0.857
				c-0.127-0.724-0.896-1.059-1.486-0.638c-0.466,0.333-0.874,0.283-1.271-0.104c-0.133-0.134-0.268-0.271-0.397-0.404
				c-0.469-0.506-0.482-0.841-0.061-1.406c0.346-0.463,0.013-1.282-0.553-1.369c-0.674-0.103-0.864-0.318-0.879-1.004
				c-0.002-0.131-0.01-0.263-0.01-0.398c-0.004-0.825,0.162-1.031,0.966-1.189c0.423-0.084,0.819-0.966,0.59-1.322
				c-0.502-0.791-0.45-1.029,0.404-1.813c0.518-0.471,0.851-0.464,1.499,0.021C71.492,86.945,71.544,86.969,71.596,86.997z
				 M76.089,91.308c-0.006-1.141-0.918-2.063-2.049-2.071c-1.147-0.005-2.087,0.944-2.08,2.104c0.009,1.13,0.935,2.067,2.06,2.069
				C75.167,93.421,76.095,92.471,76.089,91.308z"/>
		</g>
	</g>
</g>
<g>
	<g>
		<g>
			<path fill-rule="evenodd" clip-rule="evenodd" fill="#FFFFFF" d="M66.457,82.005c-0.302,0.232-0.562,0.454-0.844,0.646
				c-0.58,0.399-0.969,0.364-1.484-0.144c-0.404-0.396-0.817-0.788-1.18-1.218c-0.294-0.352-0.292-0.771-0.024-1.15
				c0.224-0.324,0.484-0.628,0.722-0.931c-0.183-0.444-0.329-0.875-0.539-1.274c-0.074-0.143-0.296-0.26-0.463-0.284
				c-1.583-0.234-1.587-0.229-1.587-1.847c0-0.284-0.002-0.568,0.004-0.852c0.004-0.775,0.253-1.121,1.025-1.121
				c0.7,0,0.932-0.313,1.186-0.913c0.277-0.664,0.258-1.114-0.251-1.642c-0.457-0.472-0.389-0.925,0.066-1.393
				c0.368-0.378,0.746-0.754,1.126-1.128c0.513-0.5,0.873-0.521,1.443-0.081c0.228,0.173,0.447,0.349,0.668,0.525
				c0.535-0.218,1.061-0.421,1.575-0.646c0.11-0.052,0.213-0.199,0.249-0.319c0.06-0.218,0.071-0.452,0.096-0.674
				c0.069-0.611,0.384-0.909,1.007-0.929c0.553-0.015,1.104-0.008,1.651,0c0.675,0.013,1.057,0.317,1.055,0.993
				c-0.005,0.669,0.249,1.022,0.888,1.134c0.034,0.008,0.073,0.015,0.105,0.036c0.599,0.437,1.099,0.354,1.618-0.183
				c0.38-0.393,0.857-0.339,1.259,0.062c0.419,0.415,0.84,0.825,1.248,1.251c0.42,0.434,0.429,0.807,0.072,1.315
				c-0.194,0.274-0.558,0.58-0.524,0.826c0.076,0.508,0.355,0.993,0.576,1.465c0.04,0.088,0.218,0.125,0.337,0.147
				c0.241,0.048,0.486,0.072,0.733,0.104c0.54,0.067,0.79,0.391,0.79,0.924c0.003,0.607,0.006,1.215,0,1.821
				c-0.004,0.541-0.268,0.887-0.811,0.902c-0.756,0.025-1.161,0.317-1.44,1.085c-0.229,0.616-0.176,0.975,0.231,1.43
				c0.551,0.625,0.5,1.042-0.098,1.616c-0.353,0.34-0.718,0.663-1.078,0.995c-0.494,0.468-0.809,0.536-1.318,0.083
				c-0.618-0.558-1.136-0.454-1.883-0.187c-0.762,0.271-0.767,0.741-0.812,1.305c-0.046,0.56-0.323,0.888-0.882,0.918
				c-0.624,0.027-1.252,0.03-1.878,0c-0.507-0.029-0.879-0.276-0.879-0.841c0.003-0.953-0.482-1.464-1.39-1.634
				C66.701,82.176,66.592,82.078,66.457,82.005z M70.067,78.71c1.758,0.008,3.169-1.365,3.183-3.095
				c0.016-1.719-1.397-3.164-3.113-3.189c-1.715-0.026-3.16,1.399-3.168,3.122C66.961,77.313,68.319,78.697,70.067,78.71z"/>
			<path fill-rule="evenodd" clip-rule="evenodd" fill="#FFFFFF" d="M91.351,82.913c0.045,1.003-0.063,1.122-1.025,1.365
				c-0.183,0.045-0.355,0.261-0.467,0.441c-0.118,0.188-0.132,0.435-0.229,0.64c-0.142,0.279-0.088,0.47,0.132,0.695
				c0.686,0.707,0.684,1.008,0.06,1.735c-0.125,0.145-0.244,0.291-0.365,0.438c-0.604,0.721-0.899,0.776-1.681,0.242
				c-0.286-0.195-0.49-0.185-0.808-0.038c-0.626,0.286-1.081,0.584-1.004,1.4c0.016,0.21-0.357,0.588-0.618,0.667
				c-0.48,0.146-1.006,0.153-1.517,0.165c-0.515,0.012-0.781-0.31-0.89-0.789c-0.058-0.253-0.066-0.617-0.231-0.724
				c-0.337-0.218-0.761-0.34-1.163-0.406c-0.142-0.022-0.338,0.201-0.49,0.337c-0.661,0.587-0.937,0.592-1.62,0.022
				c-0.088-0.073-0.172-0.15-0.259-0.223c-1.018-0.876-1.013-0.892-0.364-2.061c0.074-0.129,0.069-0.354,0.007-0.497
				c-0.237-0.587-0.504-1.086-1.331-0.975c-0.462,0.064-0.788-0.313-0.82-0.835c-0.015-0.246-0.039-0.491-0.05-0.738
				c-0.062-1.224-0.062-1.221,1.136-1.568c0.128-0.036,0.264-0.146,0.327-0.259c0.407-0.719,0.365-1.115-0.148-1.741
				c-0.335-0.41-0.355-0.819-0.021-1.238c0.157-0.188,0.312-0.381,0.473-0.569c0.771-0.899,0.832-0.903,1.893-0.322
				c0.125,0.072,0.337,0.041,0.489-0.006c0.192-0.065,0.359-0.228,0.552-0.29c0.462-0.14,0.643-0.403,0.614-0.908
				c-0.035-0.568,0.28-0.862,0.848-0.928c0.397-0.046,0.79-0.091,1.188-0.104c0.633-0.022,0.866,0.175,1.024,0.81
				c0.203,0.825,1.383,1.202,2.024,0.649c0.496-0.428,0.843-0.434,1.364-0.014c0.133,0.107,0.256,0.223,0.386,0.334
				c0.984,0.835,0.984,0.835,0.396,2.003c-0.026,0.051-0.071,0.099-0.082,0.151c-0.071,0.375,0.691,1.344,1.087,1.385
				c0.926,0.103,1.057,0.227,1.152,1.122C91.342,82.492,91.342,82.702,91.351,82.913z M83.992,85.756c1.421,0,2.56-1.146,2.595-2.61
				c0.029-1.299-1.242-2.526-2.611-2.531c-1.169-0.004-2.589,0.896-2.532,2.809C81.478,84.605,82.683,85.752,83.992,85.756z"/>
			<path fill-rule="evenodd" clip-rule="evenodd" fill="#FFFFFF" d="M70.588,86.272c0.298-0.119,0.61-0.218,0.89-0.371
				c0.133-0.076,0.265-0.246,0.3-0.393c0.183-0.784,0.404-0.92,1.541-0.896c0.688,0.017,0.942,0.236,1.056,0.926
				c0.069,0.445,1.032,0.855,1.419,0.608c0.671-0.426,0.873-0.377,1.593,0.362c0.584,0.599,0.624,0.866,0.212,1.474
				c-0.307,0.465,0.063,1.322,0.62,1.416c0.526,0.088,0.8,0.393,0.815,0.924c0.009,0.228,0.005,0.454-0.002,0.684
				c-0.01,0.531-0.287,0.839-0.796,0.954c-0.71,0.165-1.037,0.934-0.644,1.528c0.28,0.424,0.258,0.816-0.096,1.181
				c-0.174,0.178-0.348,0.352-0.529,0.52c-0.391,0.362-0.8,0.36-1.229,0.052c-0.54-0.388-1.423-0.064-1.556,0.57
				c-0.145,0.669-0.365,0.851-1.042,0.858c-0.17,0-0.341,0-0.513-0.002c-0.623-0.014-0.881-0.242-0.99-0.856
				c-0.127-0.724-0.895-1.059-1.485-0.639c-0.465,0.334-0.875,0.284-1.272-0.104c-0.132-0.135-0.267-0.271-0.397-0.403
				c-0.469-0.508-0.482-0.843-0.061-1.406c0.347-0.464,0.014-1.283-0.553-1.371c-0.673-0.103-0.863-0.318-0.878-1.004
				c-0.002-0.13-0.011-0.263-0.011-0.396c-0.004-0.827,0.162-1.033,0.966-1.191c0.423-0.083,0.82-0.966,0.59-1.321
				c-0.501-0.791-0.449-1.03,0.405-1.813c0.517-0.472,0.85-0.464,1.499,0.021C70.486,86.221,70.537,86.243,70.588,86.272z
				 M75.082,90.583c-0.007-1.142-0.918-2.063-2.05-2.071c-1.146-0.004-2.086,0.943-2.08,2.104c0.009,1.129,0.936,2.067,2.06,2.07
				C74.159,92.695,75.089,91.745,75.082,90.583z"/>
		</g>
	</g>
</g>
<g id="rails">
	<g>
		<g>
			<path fill="#C64439" d="M110.631,38.209c-7.086-4.938-14.762-8.899-23.215-11.557c-15.617-4.906-30.054-2.736-43.28,7.152
				C29.376,44.839,19.877,59.178,14.337,76.04l1.713,2.97l1.068,1.847l1.447,2.49l2.091,3.614l0.032,0.023l1.202,2.048h28.609
				c-0.201-3.337-0.479-7.074-0.579-10.546c-0.278-9.152,1.246-17.908,6.04-25.872C64.637,38.209,82.299,32.17,99.475,37.62
				c5.271,1.68,10.154,4.094,14.826,6.952L110.631,38.209z"/>
			<path fill="#EC1623" d="M53.005,80.012c5.388,1.193,4.896,0.465,5.677,7.262C53.011,86.279,52.499,85.625,53.005,80.012z"/>
			<path fill="#EC1623" d="M27.501,46.16c-1.201-1.048-2.247-1.96-3.263-2.846c2.39-4.432,3.219-4.534,6.481-0.718
				C29.701,43.722,28.656,44.879,27.501,46.16z"/>
			<path fill="#EC1623" d="M54.883,61.348c3.616,2.383,3.616,2.383,2.225,7.531C53.007,66.882,52.929,66.629,54.883,61.348z"/>
			<path fill="#EC1623" d="M46.354,29.417c-0.768-1.211-1.37-2.15-2.137-3.354c1.187-0.667,2.285-1.285,3.557-1.999
				c0.75,1.023,1.397,1.903,2.286,3.111C48.853,27.906,47.699,28.604,46.354,29.417z"/>
			<path fill="#EC1623" d="M74.545,43.913c-0.432-1.153-0.746-1.995-1.129-3.013c0.752-0.373,1.377-0.733,2.043-1.003
				c0.602-0.245,1.244-0.397,2.08-0.656c0.357,0.927,0.703,1.833,1.123,2.927C77.301,42.743,76.121,43.244,74.545,43.913z"/>
			<path fill="#EC1623" d="M90.117,22.338c4.486,0.945,4.555,1.015,3.904,4.179C89.447,25.504,89.447,25.504,90.117,22.338z"/>
			<path fill="#EC1623" d="M65.857,19.233c2.168,0.228,4.875-1.271,5.057,2.702C68.938,21.556,66.109,23.516,65.857,19.233z"/>
			<path fill="#EC1623" d="M89.572,40.687c0.117-0.922,0.211-1.704,0.303-2.446c4.152-0.307,4.617,0.034,4.182,3.129
				C92.627,41.154,91.197,40.934,89.572,40.687z"/>
			<path fill="#EC1623" d="M63.813,47.048c0.727,1.123,1.334,2.063,2.006,3.106c-0.869,1.039-1.703,2.028-2.539,3.02
				C60.221,50.269,60.232,50.093,63.813,47.048z"/>
		</g>
	</g>
	<g>
		<path fill="#AF0011" d="M38.896,57.101c2.201,1.994,4.265,3.863,6.328,5.738c-0.08,0.15-0.161,0.305-0.24,0.456
			c-2.399,0-4.799,0.042-7.196-0.037c-0.446-0.018-0.92-0.48-1.3-0.827c-1.269-1.157-2.503-2.359-3.945-3.727
			c0,1.545,0,2.991,0,4.516c-1.914,0-3.565,0-5.338,0c0-6.769,0-13.489,0-20.341c3.77,0,7.502-0.218,11.196,0.069
			c3.119,0.24,5.351,2.876,5.6,5.833c0.363,4.293-0.91,6.663-4.267,7.952C39.59,56.784,39.452,56.854,38.896,57.101z M32.631,47.964
			c0,1.721,0,3.197,0,4.813c1.43,0,2.731,0.111,4.006-0.029c1.364-0.151,1.639-1.319,1.625-2.429
			c-0.013-1.087-0.181-2.27-1.663-2.341C35.313,47.917,34.023,47.964,32.631,47.964z"/>
		<path fill="#AF0011" d="M63.192,63.217c-1.87,0-3.471,0-5.187,0c-0.049-1.138-0.097-2.194-0.148-3.379c-1.763,0-3.457,0-5.332,0
			c-0.048,1.094-0.099,2.194-0.154,3.376c-1.808,0-3.511,0-5.423,0c0-0.629,0-1.204,0-1.778c0.001-4.272-0.021-8.543,0.01-12.818
			c0.023-3.397,2.182-5.539,5.572-5.583c1.731-0.021,3.463-0.056,5.192,0.006c3.576,0.13,5.458,2.085,5.468,5.631
			C63.203,53.471,63.192,58.273,63.192,63.217z M52.437,54.034c1.644,0,3.146,0.023,4.646-0.021
			c0.261-0.009,0.728-0.292,0.728-0.454c0.007-1.665-0.02-3.338-0.156-4.999c-0.024-0.278-0.611-0.7-0.958-0.723
			c-1.066-0.069-2.165-0.09-3.206,0.108c-0.412,0.08-0.968,0.765-1.005,1.209C52.361,50.709,52.437,52.277,52.437,54.034z"/>
		<path fill="#AF0011" d="M89.983,58.243c3.121,0,6.195,0,9.213,0c0.742-2.449,0.544-2.673-1.722-2.762
			c-1.599-0.058-3.313-0.002-4.757-0.559c-2.762-1.06-3.765-3.991-2.982-7.591c0.569-2.614,2.508-4.214,5.353-4.276
			c2.653-0.06,5.305-0.014,7.959-0.003c0.205,0.001,0.406,0.081,0.692,0.141c0,1.583,0,3.124,0,4.819c-3.019,0-5.974,0-9.114,0
			c-0.052,0.907-0.092,1.673-0.144,2.626c1.42,0,2.654-0.002,3.884,0.001c4.198,0.018,6.19,2.07,6.26,6.292
			c0.042,2.572-0.572,4.726-3.101,5.896c-0.477,0.224-1.027,0.416-1.543,0.429c-2.817,0.051-5.63,0.042-8.448,0.053
			c-0.477,0.004-0.955,0-1.548,0C89.983,61.598,89.983,60.008,89.983,58.243z"/>
		<path fill="#AF0011" d="M74.369,43.098c1.805,0,3.568,0,5.531,0c0,5.019,0,9.97,0,15.057c2.723,0,5.249,0,7.863,0
			c0,1.735,0,3.332,0,5.041c-4.447,0-8.855,0-13.394,0C74.369,56.561,74.369,49.928,74.369,43.098z"/>
		<path fill="#AF0011" d="M71.525,63.249c-1.862,0-3.581,0-5.452,0c0-6.715,0-13.373,0-20.133c1.799,0,3.562,0,5.452,0
			C71.525,49.755,71.525,56.416,71.525,63.249z"/>
	</g>
	<g>
		<path fill="#FFFFFF" d="M37.416,55.789c2.201,1.993,4.264,3.863,6.328,5.737c-0.08,0.151-0.161,0.304-0.24,0.457
			c-2.399,0-4.8,0.042-7.196-0.038c-0.445-0.017-0.92-0.481-1.3-0.827c-1.269-1.158-2.503-2.358-3.945-3.728
			c0,1.546,0,2.992,0,4.517c-1.915,0-3.565,0-5.338,0c0-6.768,0-13.49,0-20.34c3.77,0,7.501-0.219,11.196,0.069
			c3.119,0.239,5.35,2.875,5.6,5.832c0.363,4.293-0.91,6.663-4.266,7.951C38.109,55.475,37.971,55.543,37.416,55.789z M31.15,46.653
			c0,1.721,0,3.198,0,4.813c1.43,0,2.731,0.111,4.006-0.029c1.363-0.151,1.638-1.319,1.625-2.429
			c-0.014-1.087-0.181-2.27-1.664-2.34C33.832,46.605,32.542,46.653,31.15,46.653z"/>
		<path fill="#FFFFFF" d="M61.711,61.907c-1.87,0-3.471,0-5.187,0c-0.049-1.138-0.096-2.195-0.148-3.38c-1.763,0-3.458,0-5.332,0
			c-0.048,1.095-0.098,2.196-0.154,3.376c-1.808,0-3.511,0-5.422,0c0-0.629,0-1.204,0-1.779c0-4.271-0.021-8.542,0.009-12.817
			c0.023-3.397,2.182-5.54,5.572-5.584c1.731-0.021,3.463-0.056,5.192,0.007c3.576,0.129,5.458,2.084,5.468,5.63
			C61.722,52.161,61.711,56.962,61.711,61.907z M50.955,52.724c1.644,0,3.146,0.023,4.647-0.021c0.26-0.008,0.727-0.292,0.727-0.453
			c0.007-1.666-0.02-3.339-0.156-5c-0.024-0.278-0.61-0.7-0.958-0.723c-1.066-0.069-2.165-0.09-3.206,0.108
			c-0.412,0.08-0.968,0.765-1.005,1.209C50.88,49.398,50.955,50.967,50.955,52.724z"/>
		<path fill="#FFFFFF" d="M88.501,56.933c3.123,0,6.197,0,9.214,0c0.742-2.449,0.543-2.673-1.722-2.761
			c-1.601-0.06-3.312-0.002-4.756-0.56c-2.763-1.059-3.767-3.99-2.982-7.591c0.568-2.615,2.507-4.215,5.353-4.276
			c2.653-0.06,5.303-0.012,7.959-0.004c0.203,0.001,0.406,0.081,0.692,0.141c0,1.583,0,3.124,0,4.819c-3.02,0-5.976,0-9.114,0
			c-0.052,0.908-0.092,1.673-0.144,2.626c1.42,0,2.654-0.002,3.882,0.001c4.198,0.019,6.192,2.069,6.262,6.293
			c0.04,2.571-0.572,4.726-3.101,5.894c-0.477,0.224-1.028,0.417-1.543,0.43c-2.818,0.053-5.631,0.041-8.448,0.055
			c-0.477,0.004-0.957,0-1.55,0C88.501,60.287,88.501,58.697,88.501,56.933z"/>
		<path fill="#FFFFFF" d="M72.887,41.788c1.807,0,3.57,0,5.533,0c0,5.019,0,9.97,0,15.057c2.722,0,5.248,0,7.863,0
			c0,1.735,0,3.332,0,5.039c-4.448,0-8.857,0-13.394,0C72.887,55.249,72.887,48.617,72.887,41.788z"/>
		<path fill="#FFFFFF" d="M70.044,61.938c-1.863,0-3.581,0-5.451,0c0-6.716,0-13.373,0-20.133c1.8,0,3.561,0,5.451,0
			C70.044,48.445,70.044,55.106,70.044,61.938z"/>
	</g>
</g>
</svg>
