<?xml version="1.0" encoding="UTF-8" standalone="no"?>
<!-- Generator: Adobe Illustrator 21.0.2, SVG Export Plug-In . SVG Version: 6.00 Build 0)  -->

<svg
   xmlns:dc="http://purl.org/dc/elements/1.1/"
   xmlns:cc="http://creativecommons.org/ns#"
   xmlns:rdf="http://www.w3.org/1999/02/22-rdf-syntax-ns#"
   xmlns:svg="http://www.w3.org/2000/svg"
   xmlns="http://www.w3.org/2000/svg"
   xmlns:sodipodi="http://sodipodi.sourceforge.net/DTD/sodipodi-0.dtd"
   xmlns:inkscape="http://www.inkscape.org/namespaces/inkscape"
   version="1.1"
   x="0px"
   y="0px"
   viewBox="0 0 110.979 128.417"
   enable-background="new 0 0 110.979 128.417"
   xml:space="preserve"
   id="svg476"
   sodipodi:docname="rainbow.svg"
   inkscape:version="0.92.2 5c3e80d, 2017-08-06"><metadata
     id="metadata482"><rdf:RDF><cc:Work
         rdf:about=""><dc:format>image/svg+xml</dc:format><dc:type
           rdf:resource="http://purl.org/dc/dcmitype/StillImage" /><dc:title></dc:title></cc:Work></rdf:RDF></metadata><defs
     id="defs480"><radialGradient
       gradientUnits="userSpaceOnUse"
       r="49.6877"
       cy="64.6317"
       cx="56.0982"
       id="SVGID_1_"><stop
         id="stop11"
         style="stop-color:#FFF200"
         offset="0" /><stop
         id="stop13"
         style="stop-color:#F7941E"
         offset="1" /></radialGradient><radialGradient
       gradientUnits="userSpaceOnUse"
       r="31.3333"
       cy="66.2647"
       cx="56.0515"
       id="SVGID_2_"><stop
         id="stop468"
         style="stop-color:#FFF200"
         offset="0.099" /><stop
         id="stop470"
         style="stop-color:#FFF200;stop-opacity:0"
         offset="1" /></radialGradient></defs><sodipodi:namedview
     pagecolor="#ffffff"
     bordercolor="#666666"
     borderopacity="1"
     objecttolerance="10"
     gridtolerance="10"
     guidetolerance="10"
     inkscape:pageopacity="0"
     inkscape:pageshadow="2"
     inkscape:window-width="1440"
     inkscape:window-height="784"
     id="namedview478"
     showgrid="false"
     inkscape:zoom="1.8377628"
     inkscape:cx="55.489498"
     inkscape:cy="64.208504"
     inkscape:window-x="0"
     inkscape:window-y="1"
     inkscape:window-maximized="1"
     inkscape:current-layer="svg476" /><g
     id="Layer_1" /><g
     id="Layer_4" /><g
     id="Layer_63_23_"><g
       id="g8"><g
         id="g6"><polygon
           style="fill:#008cff"
           id="polygon4"
           points="0.104,96.351 0.104,32.351 55.528,0.351 110.954,32.351 110.954,96.351 55.528,128.351 " /></g></g></g><path
     inkscape:connector-curvature="0"
     style="fill:url(#SVGID_1_)"
     id="path16"
     d="m 102.098,38.062 v 53.14 l -0.01,0.01 -0.02,0.01 -0.41,0.24 -0.37,0.21 -0.62,0.35 -4.15,2.39 -0.01,0.01 -0.13,0.08 -0.06,0.03 -0.55,0.32 -0.8,0.45 -0.1,0.06 -0.48,0.28 -1.13,0.65 -0.85,0.49 -0.74,0.43 -0.24,0.13 -0.13,0.05 -0.11,0.07 -1,0.57 -0.03,0.02 -2,1.15 -0.51,0.29 -0.14,0.08 -0.03,0.02 -0.14,0.08 -0.01,0.01 -1.04,0.59 -0.04,0.03 -0.07,0.04 -1.16,0.67 -0.45,0.26 -0.02,0.02 h -0.01 l -0.42,0.24 -1.12,0.65 -0.87,0.52 -1.18,0.67 -0.08,0.05 -0.12,0.07 -0.04,0.03 -0.04,0.02 -0.02,0.01 -0.1,0.06 -0.29,0.17 -0.03,0.01 -0.16,0.09 v 0.01 l -0.4,0.23 -0.27,0.16 -0.11,0.06 -0.18,0.09 -0.02,0.02 -0.04,0.02 -0.69,0.39 -0.06,0.04 -0.24,0.14 -0.02,0.01 -0.29,0.17 -0.15,0.08 -0.22,0.13 -0.24,0.14 h -0.01 l -0.42,0.25 -0.29,0.17 -0.03,0.02 -0.3,0.17 -1.36,0.79 -0.5,0.29 -0.25,0.14 -0.7,0.4 -0.03,0.02 h -0.01 l -0.31,0.18 -0.05,0.03 -0.24,0.15 -0.84,0.48 -0.63,0.36 -0.06,0.03 -0.5,0.29 c -0.01,0.01 -0.01,0.01 -0.01,0 l -0.53,0.31 -0.29,0.17 -0.76,0.44 -0.05,0.03 -0.05,0.03 -0.03,0.01 c 0,0.01 -0.01,0.01 -0.01,0.01 l -0.02,0.02 -0.25,0.14 -1,0.58 -0.17,0.1 -0.04,0.02 -0.38,0.22 -1.42,0.82 -0.36,0.21 -0.09,0.05 -0.24,0.14 -0.8,0.46 -0.26,0.15 -0.28,0.16 -0.01,0.01 -0.2,0.12 -0.23,0.13 -0.35,0.2 -0.83,0.48 -0.01,0.01 -0.09,0.05 -1.32,0.76 -0.02,0.01 -0.79,0.46 -0.61,0.35 h -0.01 l -1.41,0.81 -0.02,0.02 -0.19,0.1 -0.06,0.04 -0.56,0.32 h -0.01 l -0.13,0.08 -0.19,0.11 -0.27,0.16 h -0.01 l -0.2,0.12 -0.06,-0.03 -1.14,-0.66 -0.02,-0.01 -0.2,-0.12 -0.85,-0.49 -0.03,-0.01 -0.33,-0.19 -0.01,-0.01 -1.4,-0.81 -0.01,-0.01 -0.02,-0.01 -1.37,-0.79 -0.03,-0.02 h -0.01 l -0.83,-0.48 -0.06,-0.04 -0.34,-0.19 -0.18,-0.11 -0.02,-0.01 -0.66,-0.38 -0.04,-0.03 -0.09,-0.05 -0.1,-0.06 -0.13,-0.07 -0.27,-0.16 -0.12,-0.07 h -0.01 l -0.72,-0.42 -0.24,-0.13 -0.39,-0.23 -0.05,-0.03 -0.03,-0.02 -1.4,-0.81 h -0.01 l -0.11,-0.07 -0.37,-0.22 h -0.01 l -0.27,-0.16 -0.62,-0.36 -0.03,-0.01 -0.06,-0.04 -0.04,-0.02 -1.29,-0.75 -0.39,-0.23 -0.68,-0.39 -0.58,-0.33 -0.11,-0.06 -1,-0.58 -1.72,-1 c -0.01,-0.01 -0.02,-0.02 -0.03,-0.02 l -1.32,-0.76 -3.92,-2.26 -0.16,-0.09 -0.57,-0.33 -0.47,-0.27 -0.44,-0.26 -0.3,-0.17 -0.38,-0.22 -0.99,-0.58 -0.04,-0.02 -2.74,-1.59 -0.1,-0.06 -0.18,-0.1 -0.67,-0.38 -0.82,-0.47 -0.09,-0.05 -0.5,-0.29 -0.01,-0.01 -0.08,-0.05 h -0.01 l -0.12,-0.07 h -0.01 l -0.31,-0.18 -0.73,-0.42 c -0.01,-0.01 -0.01,-0.01 -0.02,-0.01 l -1.86,-1.08 -1.02,-0.59 -2.11,-1.23 -0.09,-0.05 -0.2,-0.12 c 0,0 -0.01,0 -0.02,-0.01 l -0.28,-0.16 -0.53,-0.3 -0.82,-0.48 -0.06,-0.04 h -0.01 c 0,0 0,0 -0.01,0 l -0.49,-0.29 -0.7,-0.4 -0.68,-0.39 -1.22,-0.71 -0.1,-0.06 h -0.01 l -0.33,-0.19 -0.41,-0.24 h -0.01 l -0.43,-0.25 -0.99,-0.57 -0.08,-0.04 -0.03,-0.02 v -53.14 l 0.78,-0.45 1.59,-0.92 0.36,-0.21 3.38,-1.95 1.06,-0.61 5.78,-3.34 h 0.01 l 0.91,-0.52 1.05,-0.62 1.82,-1.05 h 0.01 l 0.87,-0.51 3.63,-2.08 0.64,-0.38 0.94,-0.54 0.17,-0.09 1.66,-0.95 0.78,-0.45 0.38,-0.22 0.44,-0.26 0.67,-0.39 0.43,-0.26 0.52,-0.3 0.5,-0.28 0.59,-0.34 1.19,-0.68 0.69,-0.41 0.75,-0.43 0.65,-0.37 h 0.01 l 0.05,-0.03 0.43,-0.25 5.29,-3.05 0.11,-0.06 0.08,-0.05 0.27,-0.16 5.52,-3.19 0.55,-0.32 1.44,-0.83 0.51,0.3 1.09,0.63 2.86,1.65 3.09,1.79 2.6,1.5 0.22,0.13 4.69,2.7 0.98,0.57 5.13,2.96 0.91,0.52 1.04,0.61 2.3,1.31 0.87,0.5 0.69,0.4 0.83,0.48 0.49,0.28 0.58,0.34 0.3,0.17 0.8,0.46 0.09,0.06 1.81,1.04 2.16,1.24 1.12,0.65 0.5,0.29 0.04,0.03 v 0.01 l 0.26,0.14 0.66,0.39 1.46,0.84 1.94,1.12 0.78,0.44 0.44,0.25 0.49,0.28 1.45,0.84 0.17,0.1 0.85,0.49 z" /><g
     id="Layer_2_19_"><g
       id="Layer_16_19_"><path
         style="opacity:0.12999998"
         inkscape:connector-curvature="0"
         id="path74"
         d="m 56.158,11.572 -46.07,26.56 v 53.12 l 1.67,0.96 0.63,0.37 h 0.01 l 14.8,8.53 4.01,2.31 1.04,0.6 2.18,1.26 0.49,0.28 0.44,0.26 0.36,0.21 3.13,1.8 3.31,1.91 1.29,0.74 v 0.01 l 12.71,7.32 46.07,-26.56 v -53.12 z m 44.21,78.61 -44.21,25.49 -12.51,-7.21 -17.89,-10.32 -13.81,-7.96 v -50.97 l 44.21,-25.49 44.21,25.49 z"
         enable-background="new    " /></g></g><g
     id="g1669"
     transform="matrix(0.79207913,0,0,0.79207913,-112.80451,-1.1459335)"><path
       id="path1599"
       style="fill:#dd3e46;stroke:#00e100;stroke-width:1;stroke-miterlimit:4;stroke-dasharray:none;stroke-opacity:1"
       d="m 261.5753,110.32341 a 48.333335,48.333335 0 0 0 -96.66667,0 h 6.66667 a 41.666667,41.666667 0 0 1 83.33333,0 z"
       inkscape:connector-curvature="0" /><path
       id="path1601"
       style="fill:#fcf05a;stroke:#00e100;stroke-width:1;stroke-miterlimit:4;stroke-dasharray:none;stroke-opacity:1"
       d="m 248.24197,110.32341 a 35.000005,35.000005 0 0 0 -70.00001,0 h 6.66667 a 28.333335,28.333335 0 0 1 56.66667,0 z"
       inkscape:connector-curvature="0" /><path
       id="path1603"
       style="fill:#233b8e;stroke:#00e100;stroke-width:1;stroke-miterlimit:4;stroke-dasharray:none;stroke-opacity:1"
       d="m 234.90863,110.32341 a 21.666667,21.666667 0 0 0 -43.33333,0 h 6.66666 a 15,15 0 0 1 30,0 z"
       inkscape:connector-curvature="0" /><path
       id="path1605"
       style="fill:#e97424;stroke:#00e100;stroke-width:1;stroke-miterlimit:4;stroke-dasharray:none;stroke-opacity:1"
       d="m 171.5753,110.32341 a 41.666667,41.666667 0 0 1 83.33333,0 h -6.66666 a 35.000005,35.000005 0 0 0 -70.00001,0 z"
       inkscape:connector-curvature="0" /><path
       id="path1607"
       style="fill:#5dbf86;stroke:#00e100;stroke-width:1;stroke-miterlimit:4;stroke-dasharray:none;stroke-opacity:1"
       d="m 184.90863,110.32341 a 28.333335,28.333335 0 0 1 56.66667,0 h -6.66667 a 21.666667,21.666667 0 0 0 -43.33333,0 z"
       inkscape:connector-curvature="0" /><path
       id="path1609"
       style="fill:#e97424;stroke:#00e100;stroke-width:1;stroke-miterlimit:4;stroke-dasharray:none;stroke-opacity:1"
       d="m 251.5753,56.990074 a 5.0000001,5.0000001 0 0 1 -5,-5 1.66667,1.66667 0 0 0 -3.33334,0 5.0000001,5.0000001 0 0 1 -5,5 1.6666667,1.6666667 0 0 0 0,3.333333 5.0000001,5.0000001 0 0 1 5,5 1.66667,1.66667 0 0 0 3.33334,0 5.0000001,5.0000001 0 0 1 5,-5 1.6666667,1.6666667 0 0 0 0,-3.333333 z m -6.66667,3.385 a 8.3133335,8.3133335 0 0 0 -1.71833,-1.718333 8.3133335,8.3133335 0 0 0 1.71833,-1.718334 8.3133335,8.3133335 0 0 0 1.71834,1.718334 8.3133335,8.3133335 0 0 0 -1.71834,1.718333 z"
       inkscape:connector-curvature="0" /><path
       id="path1611"
       style="fill:#e97424;stroke:#00e100;stroke-width:1;stroke-miterlimit:4;stroke-dasharray:none;stroke-opacity:1"
       d="m 191.5753,50.323407 a 6.6666668,6.6666668 0 0 1 -6.66667,-6.666667 1.6666667,1.6666667 0 0 0 -3.33333,0 6.6666668,6.6666668 0 0 1 -6.66667,6.666667 1.6666667,1.6666667 0 0 0 0,3.333333 6.6666668,6.6666668 0 0 1 6.66667,6.666667 1.6666667,1.6666667 0 0 0 3.33333,0 6.6666668,6.6666668 0 0 1 6.66667,-6.666667 1.6666667,1.6666667 0 0 0 0,-3.333333 z m -8.33334,4.483334 a 10.073334,10.073334 0 0 0 -2.81666,-2.816667 10.073334,10.073334 0 0 0 2.81666,-2.816667 10.073334,10.073334 0 0 0 2.81667,2.816667 10.073334,10.073334 0 0 0 -2.81667,2.816667 z"
       inkscape:connector-curvature="0" /><path
       id="path1613"
       style="fill:#50b4f8;stroke:#00e100;stroke-width:1;stroke-miterlimit:4;stroke-dasharray:none;stroke-opacity:1"
       d="m 196.5753,101.99007 a 9.8983335,9.8983335 0 0 0 -3.81834,0.77334 9.9900002,9.9900002 0 0 0 -9.515,-5.773335 c -5.52333,0 -10,3.731665 -10,8.333335 0,0.06 0.01,0.11833 0.0117,0.18 a 8.6000002,8.6000002 0 0 0 -1.67833,-0.18 c -3.68167,0 -6.66667,2.23833 -6.66667,5 0,2.76167 2.985,5 6.66667,5 h 25 c 4.60166,0 8.33333,-2.985 8.33333,-6.66667 0,-3.68167 -3.73167,-6.66667 -8.33333,-6.66667 z"
       inkscape:connector-curvature="0" /><path
       id="path1615"
       style="fill:#50b4f8;stroke:#00e100;stroke-width:1;stroke-miterlimit:4;stroke-dasharray:none;stroke-opacity:1"
       d="m 229.90863,101.99007 a 9.8983335,9.8983335 0 0 1 3.81833,0.77334 9.9900002,9.9900002 0 0 1 9.515,-5.773335 c 5.52334,0 10.00001,3.731665 10.00001,8.333335 0,0.06 -0.01,0.11833 -0.0117,0.18 a 8.6000002,8.6000002 0 0 1 1.67833,-0.18 c 3.68167,0 6.66667,2.23833 6.66667,5 0,2.76167 -2.985,5 -6.66667,5 h -25 c -4.60167,0 -8.33333,-2.985 -8.33333,-6.66667 0,-3.68167 3.73166,-6.66667 8.33333,-6.66667 z"
       inkscape:connector-curvature="0" /><path
       style="stroke:#00e100;stroke-width:1;stroke-miterlimit:4;stroke-dasharray:none;stroke-opacity:1"
       id="path1617"
       d="m 246.5753,51.990074 a 1.66667,1.66667 0 0 0 -3.33334,0 5.0000001,5.0000001 0 0 1 -5,5 1.6666667,1.6666667 0 0 0 0,3.333333 5.0000001,5.0000001 0 0 1 5,5 1.66667,1.66667 0 0 0 3.33334,0 5.0000001,5.0000001 0 0 1 5,-5 1.6666667,1.6666667 0 0 0 0,-3.333333 5.0000001,5.0000001 0 0 1 -5,-5 z m -1.66667,8.385 a 8.3133335,8.3133335 0 0 0 -1.71833,-1.718333 8.3133335,8.3133335 0 0 0 1.71833,-1.718334 8.3133335,8.3133335 0 0 0 1.71834,1.718334 8.3133335,8.3133335 0 0 0 -1.71834,1.718333 z"
       inkscape:connector-curvature="0" /><path
       style="stroke:#00e100;stroke-width:1;stroke-miterlimit:4;stroke-dasharray:none;stroke-opacity:1"
       id="path1619"
       d="m 184.90863,43.65674 a 1.6666667,1.6666667 0 0 0 -3.33333,0 6.6666668,6.6666668 0 0 1 -6.66667,6.666667 1.6666667,1.6666667 0 0 0 0,3.333333 6.6666668,6.6666668 0 0 1 6.66667,6.666667 1.6666667,1.6666667 0 0 0 3.33333,0 6.6666668,6.6666668 0 0 1 6.66667,-6.666667 1.6666667,1.6666667 0 0 0 0,-3.333333 6.6666668,6.6666668 0 0 1 -6.66667,-6.666667 z m -1.66667,11.150001 a 10.073334,10.073334 0 0 0 -2.81666,-2.816667 10.073334,10.073334 0 0 0 2.81666,-2.816667 10.073334,10.073334 0 0 0 2.81667,2.816667 10.073334,10.073334 0 0 0 -2.81667,2.816667 z"
       inkscape:connector-curvature="0" /><path
       style="stroke:#00e100;stroke-width:1;stroke-miterlimit:4;stroke-dasharray:none;stroke-opacity:1"
       id="path1621"
       d="m 213.24196,60.323407 a 50.056668,50.056668 0 0 0 -50,50.000003 c 0,3.67667 3.73834,6.66667 8.33334,6.66667 h 25 c 5.515,0 10,-3.73834 10,-8.33334 a 7.9183335,7.9183335 0 0 0 -3.83334,-6.54667 13.323334,13.323334 0 0 1 21,0 7.9183335,7.9183335 0 0 0 -3.83333,6.54667 c 0,4.595 4.485,8.33334 10,8.33334 h 25 c 4.595,0 8.33334,-2.99 8.33334,-6.66667 A 50.056668,50.056668 0 0 0 213.24196,60.323407 Z m 0,3.333334 a 46.725001,46.725001 0 0 1 46.33334,41.124999 9.3550002,9.3550002 0 0 0 -3.5,-1.05167 43.333334,43.333334 0 0 0 -85.64334,0 9.2933335,9.2933335 0 0 0 -3.5,1.045 46.725001,46.725001 0 0 1 46.31,-41.118329 z m 20.60667,35.745 a 23.311667,23.311667 0 0 0 -41.21333,0 10.951667,10.951667 0 0 0 -2.605,-2.19 26.651667,26.651667 0 0 1 46.42333,0 10.951667,10.951667 0 0 0 -2.605,2.19 z m 5.66667,-3.535 a 29.968334,29.968334 0 0 0 -52.53667,0 13.5,13.5 0 0 0 -3.5,-0.53 33.323334,33.323334 0 0 1 59.53667,0 13.5,13.5 0 0 0 -3.505,0.53 z m 7.39833,-0.0083 a 36.626667,36.626667 0 0 0 -67.33333,0 12.07,12.07 0 0 0 -4.46834,2.351667 40.018334,40.018334 0 0 1 76.27001,0 12.07,12.07 0 0 0 -4.47334,-2.351667 z M 196.5753,113.65674 h -25 c -2.71,0 -5,-1.52666 -5,-3.33333 0,-1.80667 2.29,-3.33334 5,-3.33334 a 6.8883335,6.8883335 0 0 1 1.35666,0.14834 1.6666667,1.6666667 0 0 0 1.98834,-1.68167 l -0.0117,-0.13333 c 0,-3.67667 3.73833,-6.666669 8.33333,-6.666669 a 8.4133335,8.4133335 0 0 1 7.96,4.708329 1.6666667,1.6666667 0 0 0 2.195,0.93834 8.2283335,8.2283335 0 0 1 3.17834,-0.64667 c 3.67666,0 6.66666,2.24333 6.66666,5 0,2.75667 -2.99,5 -6.66666,5 z m 16.66666,-19.999999 a 16.7,16.7 0 0 0 -13.58333,7.076669 11.781667,11.781667 0 0 0 -3.08333,-0.41 c -0.22667,0 -0.45167,0.0317 -0.67667,0.045 a 20,20 0 0 1 34.68667,0 c -0.225,-0.0133 -0.45,-0.045 -0.67667,-0.045 a 11.781667,11.781667 0 0 0 -3.08333,0.41 16.7,16.7 0 0 0 -13.58334,-7.076669 z m 41.66667,19.999999 h -25 c -3.67667,0 -6.66667,-2.24333 -6.66667,-5 0,-2.75667 2.99,-5 6.66667,-5 a 8.2283335,8.2283335 0 0 1 3.17833,0.64667 1.6666667,1.6666667 0 0 0 2.195,-0.93834 8.4133335,8.4133335 0 0 1 7.96,-4.708329 c 4.59501,0 8.33334,2.989999 8.33334,6.614999 0,0.035 -0.0117,0.15167 -0.0133,0.185 a 1.6666667,1.6666667 0 0 0 1.98833,1.68167 6.9150001,6.9150001 0 0 1 1.35833,-0.14834 c 2.71,0 5,1.52667 5,3.33334 0,1.80667 -2.29,3.33333 -5,3.33333 z"
       inkscape:connector-curvature="0" /></g><g
     id="surface1"
     transform="matrix(0.03616637,0,0,0.03616637,46.164,91.132535)"><path
       id="path1728"
       style="fill:#7fdc45;fill-opacity:1;fill-rule:nonzero;stroke:none"
       d="m 464.69922,142.76953 h 1.1914 c 13.78907,0 24.97266,-11.17969 24.97266,-24.97265 0,-13.79297 -11.18359,-24.972661 -24.97266,-24.972661 H 87.867188 c -13.789063,0 -24.972657,11.179691 -24.972657,24.972661 0,13.79296 11.183594,24.97265 24.972657,24.97265 h 1.191406 l -3.03125,5.96094 c -53.230469,105.375 -10.953125,233.95312 94.421876,287.1914 13.69531,6.92579 28.10547,12.34375 42.96094,16.17579 h 106.9375 c 114.3164,-29.5 183.0625,-146.09375 153.55859,-260.41016 -3.83594,-14.86328 -9.26172,-29.26172 -16.17578,-42.95703 z m 0,0"
       inkscape:connector-curvature="0" /><path
       id="path1730"
       style="fill:#fdcf35;fill-opacity:1;fill-rule:nonzero;stroke:none"
       d="m 369.24609,27.164062 c -2.29687,0.05469 -4.57422,0.304688 -6.82812,0.757813 l -11.8086,1.953125 2.70704,10.183594 C 347.07812,18.628906 324.63672,6.320312 303.20703,12.570312 c -3.08594,0.902344 -6.04687,2.167969 -8.83203,3.761719 L 283.54297,22.289062 290.25781,31.5 C 276.89062,13.484375 251.4375,9.710938 233.42187,23.082031 c -1.55078,1.148438 -3.01171,2.40625 -4.3789,3.757813 l -8.125,8.019531 7.80078,7.152344 c -16.57813,-15.128907 -42.27734,-13.945313 -57.40234,2.632812 -10.04297,11.003907 -13.25,26.628907 -8.36329,40.703125 l 2.49219,7.476563 h 237.17188 l 3.03125,-5.851563 c 3.01172,-5.785156 4.57422,-12.222656 4.55078,-18.742187 0,-22.636719 -18.32031,-41 -40.95313,-41.066407 z m 0,0"
       inkscape:connector-curvature="0" /><path
       id="path1732"
       style="fill:#ffffff;fill-opacity:1;fill-rule:nonzero;stroke:none"
       d="m 348.22656,270.07812 c -6.91406,-6.07812 -16.125,-8.85156 -25.24609,-7.58593 -9.83985,0.15234 -19.63281,1.28125 -29.25391,3.35937 1.08594,-1.73437 25.13672,-41.38672 13.32813,-54.92969 l -1.41016,-1.84375 -1.94922,-0.97265 c -3.0664,-1.66797 -6.48047,-2.60156 -9.96875,-2.71094 -8.23437,0.69531 -15.14844,6.51172 -17.22656,14.51953 -2.27734,-7.5625 -8.92969,-12.96875 -16.79688,-13.65234 -3.39843,0.10937 -6.73828,0.99609 -9.75,2.60156 l -1.83984,0.86719 -1.41016,1.51562 c -12.24218,13.65235 11.91797,53.41407 13.76172,55.36328 -9.85156,-2.23046 -19.91406,-3.42187 -30.01172,-3.57421 -9.03906,-1.25391 -18.17187,1.47656 -25.03125,7.47656 -2.77343,3.86719 -3.46484,8.85156 -1.83984,13.32812 0.82422,10.14063 9.11328,18.0586 19.28516,18.41797 -2.80469,6.94531 -2.80469,14.72266 0,21.66797 2.7539,5.51563 7.85547,9.49219 13.86718,10.83594 1.42188,0.35937 2.8711,0.54297 4.33594,0.54297 19.28516,0 32.50391,-32.50391 35.32031,-39.22266 l 0.54297,1.30078 c 3.14063,7.91016 16.46485,38.35547 34.9961,38.35547 1.57812,0.0117 3.14062,-0.20703 4.65625,-0.65234 6.38281,-1.52735 11.63672,-6.04297 14.08593,-12.13282 2.64454,-6.97656 2.64454,-14.6914 0,-21.66796 10.20704,-0.35938 18.51563,-8.34375 19.28516,-18.53125 1.42188,-4.25782 0.78125,-8.94922 -1.73047,-12.67579 z m 0,0"
       inkscape:connector-curvature="0" /><path
       id="path1734"
       style="fill:#333542;fill-opacity:1;fill-rule:nonzero;stroke:none"
       d="m 322.98047,251.66016 c -3.35938,0 -6.71875,0 -9.85938,0 6.24219,-11.98438 8.59375,-25.625 6.71875,-39.00782 -1.51953,-6.29297 -5.77734,-11.58203 -11.59375,-14.41015 -10.08593,-5.52344 -22.49218,-4.4961 -31.52734,2.60156 -8.96094,-6.98828 -21.21484,-8.00781 -31.20703,-2.60156 -5.76172,2.82031 -10.03125,7.99609 -11.69922,14.19531 -2.04688,13.71484 0.34766,27.72656 6.82422,39.98047 -3.14063,0 -6.5,0 -9.85938,0 -16.57812,0 -27.6289,3.89844 -33.80468,11.91797 -4.58204,6.23047 -5.94532,14.26953 -3.6836,21.66797 1.66797,10.1875 8.00781,19.0039 17.1211,23.83593 -0.67188,6.10938 0.34765,12.29688 2.92578,17.87891 3.97265,7.96094 11.21093,13.8125 19.82422,16.03516 2.47265,0.70312 5.01953,1.0625 7.58593,1.08203 9.60938,-0.41016 18.61328,-4.76563 24.91797,-12.02735 v 13.65235 c 0,0 0,0.86718 0,1.30078 0.31641,5.125 -1.4414,10.16406 -4.875,13.97656 -8.82031,7.30469 -20.28125,10.59766 -31.63672,9.10156 -5.98047,0 -10.83593,4.85547 -10.83593,10.83594 0,5.98047 4.85546,10.83594 10.83593,10.83594 h 1.84375 c 17.16016,1.46094 34.11719,-4.58203 46.48047,-16.57813 7.17969,-8.27734 10.72266,-19.08984 9.85547,-30.01172 V 332.8125 c 6.28516,7.12891 15.21484,11.38672 24.70313,11.80859 2.57031,-0.0117 5.11328,-0.36718 7.58593,-1.08593 8.82813,-2.06641 16.28516,-7.94141 20.36719,-16.03516 2.57031,-5.54688 3.57813,-11.6875 2.92578,-17.76563 9.54688,-4.92968 16.13281,-14.17187 17.66016,-24.8125 2.26562,-7.40234 0.90234,-15.4414 -3.6836,-21.67187 -6.17187,-7.69141 -17.22656,-11.58984 -33.91015,-11.58984 z m 16.46875,28.60156 c -0.0312,0.46484 -0.0312,0.9414 0,1.40625 0,0 -1.30078,9.10156 -8.44922,9.10156 -3.62109,-0.0625 -7.03125,1.67969 -9.10156,4.66016 -2.08203,2.98047 -2.52344,6.80468 -1.19141,10.18359 1.44141,4.03125 1.44141,8.42969 0,12.46094 0,0.75781 -1.51562,3.14062 -6.71875,4.55078 h -1.73437 c -8.125,0 -19.5,-17.01172 -25.35157,-32.50391 v -0.75781 c -0.42187,-0.86719 -0.97265,-1.66797 -1.625,-2.38281 l -0.86718,-0.86719 c -0.66016,-0.59766 -1.38672,-1.10547 -2.16797,-1.51562 h -1.08203 c -1.21485,-0.47657 -2.49219,-0.73829 -3.79297,-0.76172 -1.30078,0.0234 -2.57813,0.28515 -3.79297,0.76172 h -1.08203 c -0.78125,0.3789 -1.50391,0.85546 -2.16797,1.40625 l -0.86719,0.86718 c -0.59375,0.69532 -1.10547,1.45313 -1.51562,2.27735 v 0.86328 c -5.85157,15.82031 -17.22657,32.5039 -25.46094,32.5039 h -1.73438 c -5.19922,-1.51562 -6.39062,-3.78906 -6.71875,-4.55078 -1.44922,-4.02734 -1.44922,-8.42968 0,-12.45703 0.96485,-3.37109 0.23828,-7.01172 -1.94922,-9.7539 -2.03515,-3.08594 -5.5039,-4.92579 -9.20703,-4.875 -6.39453,0 -7.91015,-7.04297 -8.23437,-9.10157 0.0312,-0.46484 0.0312,-0.9414 0,-1.40625 -0.54297,-2.16797 0,-3.25 0,-3.57422 0,-0.32812 5.52344,-3.35937 16.68359,-3.35937 9.03516,0.15234 18.02735,1.16797 26.8711,3.03125 4.125,0.8125 8.35156,-0.83203 10.83203,-4.22266 2.42968,-3.64062 2.42968,-8.38672 0,-12.02734 -10.83203,-18.20313 -17.33203,-38.67969 -14.19141,-42.25391 1.53906,-0.83593 3.23828,-1.3125 4.98438,-1.41015 4.11718,0 6.60937,6.5 6.71484,6.71875 1.42187,4.34375 5.40625,7.33203 9.96875,7.47265 4.55078,-0.0625 8.57031,-2.96875 10.07812,-7.25781 0,0 2.49219,-6.71484 6.71485,-6.71484 1.78906,0.1289 3.52344,0.63672 5.09375,1.51562 2.92578,3.35938 -3.14063,23.94141 -14.30078,42.14453 -3.13282,5.09375 -1.55078,11.76953 3.55468,14.91016 2.40235,1.48437 5.28516,1.96094 8.03907,1.34375 8.83984,-1.86328 17.83203,-2.88281 26.86718,-3.03516 10.83594,0 15.71094,2.27735 16.6875,3.35938 0.38672,1.03906 0.46485,2.16797 0.21485,3.25 z m 0,0"
       inkscape:connector-curvature="0" /><path
       id="path1736"
       style="fill:#333542;fill-opacity:1;fill-rule:nonzero;stroke:none"
       d="m 542.16797,227.28125 c 5.97656,0 10.83203,-4.85547 10.83203,-10.83594 0,-5.98047 -4.85156,-10.83594 -10.83203,-10.83594 h -18.53125 c -1.17969,-0.008 -2.34766,0.17579 -3.46485,0.54297 l -21.01953,7.04297 c -3.10937,-21.74609 -9.39453,-42.91406 -18.63672,-62.83984 18.00782,-8.09375 26.04688,-29.25391 17.95313,-47.27344 -5.78516,-12.859374 -18.58203,-21.124999 -32.6875,-21.093749 h -46.69922 c 7.85547,-27.3125 -7.92969,-55.832031 -35.24219,-63.675781 -9.74218,-2.792969 -20.09765,-2.652344 -29.76172,0.402344 -17.6289,-21.410156 -49.11718,-24.878906 -70.96875,-7.800782 -7.6289,-4.355468 -16.25,-6.664062 -25.02734,-6.71875 -15.625,0.023438 -30.40234,7.109376 -40.19531,19.285157 -5.0586,-1.722657 -10.3711,-2.632813 -15.71094,-2.707031 -28.36328,-0.226563 -51.53906,22.578124 -51.76953,50.945312 -0.0312,3.445312 0.29297,6.890625 0.95312,10.269531 H 87.867188 c -19.75,-0.04297 -35.785157,15.929688 -35.828126,35.679689 -0.03516,14.10547 8.234376,26.91406 21.09375,32.6875 -9.308593,19.99219 -15.625,41.23828 -18.742187,63.05859 L 32.71875,206.15625 c -1.113281,-0.37109 -2.285156,-0.55469 -3.464844,-0.54297 H 10.835938 C 4.855469,205.60937 0,210.46484 0,216.44531 c 0,5.98047 4.855469,10.83594 10.835938,10.83594 h 16.46875 l 24.808593,8.34375 c 0,3.25 0,6.60547 0,9.85547 0.109375,96.83203 62.374999,182.65234 154.394529,212.79297 l -18.96094,24.3789 h -19.39453 c -5.98047,0 -10.83203,4.85547 -10.83203,10.83594 0,5.98047 4.85156,10.83594 10.83203,10.83594 h 24.92188 c 3.34765,-0.0117 6.51172,-1.57422 8.55859,-4.22656 l 28.82031,-36.94922 h 92.96094 l 28.82031,36.94922 c 2.04688,2.65234 5.21094,4.21484 8.5586,4.22656 h 24.05469 c 5.98046,0 10.83593,-4.85547 10.83593,-10.83594 0,-5.98047 -4.85547,-10.83594 -10.83593,-10.83594 H 365.5625 l -18.85156,-24.26953 c 92.42968,-30.01172 154.98828,-116.16015 154.93359,-213.33594 0,-3.35546 0,-6.71484 0,-10.18359 l 24.05469,-7.58203 c -0.004,0 16.46875,0 16.46875,0 z M 364.26172,38.648438 c 15.7539,-3.304688 31.20312,6.792968 34.50781,22.546874 0.48828,2.308594 0.68359,4.671876 0.59375,7.03125 -0.0859,4.855469 -1.34375,9.609376 -3.68359,13.867188 h -39.32813 c 6.37891,-8.753906 9.82813,-19.292969 9.85938,-30.117188 -0.0547,-4.507812 -0.71485,-8.992187 -1.94922,-13.328124 z M 314.42187,21.855469 c 16.62891,0 30.1211,13.488281 30.1211,30.121093 0,16.628907 -13.49219,30.117188 -30.1211,30.117188 h -11.70312 c 10.37891,-17.667969 9.23047,-39.835938 -2.92578,-56.335938 4.45312,-2.570312 9.49219,-3.945312 14.6289,-4.011718 z m -56.44921,4.117187 c 16.60937,0.05469 30.0664,13.511719 30.12109,30.121094 -0.0312,10.789062 -5.86328,20.726562 -15.27734,26.003906 h -20.04297 c 3.5,-17.53125 -2.5586,-35.59375 -15.92969,-47.457031 5.58203,-5.570313 13.13281,-8.722656 21.01953,-8.777344 z m -55.90625,16.578125 c 16.39453,-0.273437 29.90234,12.792969 30.17578,29.1875 0.0508,3.519531 -0.51172,7.03125 -1.67969,10.359375 h -57.10156 c -5.44922,-15.460937 2.67968,-32.417968 18.13672,-37.867187 3.32812,-1.171875 6.83984,-1.746094 10.35937,-1.679688 z M 327.75,442.02344 H 226.11719 C 117.63281,413.89844 52.484375,303.14453 80.609375,194.65625 84.28125,180.49609 89.472656,166.76953 96.101562,153.71484 H 458.08984 c 50.73828,99.9375 10.85547,222.07422 -89.07422,272.8125 -13.04296,6.6211 -26.76953,11.82032 -40.9414,15.4961 z M 465.89062,131.93359 H 87.867188 c -7.808594,0 -14.136719,-6.32421 -14.136719,-14.13671 0,-7.8125 6.328125,-14.14063 14.136719,-14.14063 H 465.89062 c 7.8086,0 14.13672,6.32813 14.13672,14.14063 0,7.8125 -6.32422,14.13671 -14.13672,14.13671 z m 0,0"
       inkscape:connector-curvature="0" /></g><g
     id="surface1-7"
     transform="matrix(0.03616637,0,0,0.03616637,45.9,23.115052)"><path
       id="path1810"
       style="fill:#7fdc45;fill-opacity:1;fill-rule:nonzero;stroke:none"
       d="m 464.69922,142.76953 h 1.1914 c 13.78907,0 24.97266,-11.17969 24.97266,-24.97265 0,-13.79297 -11.18359,-24.972661 -24.97266,-24.972661 H 87.867188 c -13.789063,0 -24.972657,11.179691 -24.972657,24.972661 0,13.79296 11.183594,24.97265 24.972657,24.97265 h 1.191406 l -3.03125,5.96094 c -53.230469,105.375 -10.953125,233.95312 94.421876,287.1914 13.69531,6.92579 28.10547,12.34375 42.96094,16.17579 h 106.9375 c 114.3164,-29.5 183.0625,-146.09375 153.55859,-260.41016 -3.83594,-14.86328 -9.26172,-29.26172 -16.17578,-42.95703 z m 0,0"
       inkscape:connector-curvature="0" /><path
       id="path1812"
       style="fill:#fdcf35;fill-opacity:1;fill-rule:nonzero;stroke:none"
       d="m 369.24609,27.164062 c -2.29687,0.05469 -4.57422,0.304688 -6.82812,0.757813 l -11.8086,1.953125 2.70704,10.183594 C 347.07812,18.628906 324.63672,6.320312 303.20703,12.570312 c -3.08594,0.902344 -6.04687,2.167969 -8.83203,3.761719 L 283.54297,22.289062 290.25781,31.5 C 276.89062,13.484375 251.4375,9.710938 233.42187,23.082031 c -1.55078,1.148438 -3.01171,2.40625 -4.3789,3.757813 l -8.125,8.019531 7.80078,7.152344 c -16.57813,-15.128907 -42.27734,-13.945313 -57.40234,2.632812 -10.04297,11.003907 -13.25,26.628907 -8.36329,40.703125 l 2.49219,7.476563 h 237.17188 l 3.03125,-5.851563 c 3.01172,-5.785156 4.57422,-12.222656 4.55078,-18.742187 0,-22.636719 -18.32031,-41 -40.95313,-41.066407 z m 0,0"
       inkscape:connector-curvature="0" /><path
       id="path1814"
       style="fill:#ffffff;fill-opacity:1;fill-rule:nonzero;stroke:none"
       d="m 348.22656,270.07812 c -6.91406,-6.07812 -16.125,-8.85156 -25.24609,-7.58593 -9.83985,0.15234 -19.63281,1.28125 -29.25391,3.35937 1.08594,-1.73437 25.13672,-41.38672 13.32813,-54.92969 l -1.41016,-1.84375 -1.94922,-0.97265 c -3.0664,-1.66797 -6.48047,-2.60156 -9.96875,-2.71094 -8.23437,0.69531 -15.14844,6.51172 -17.22656,14.51953 -2.27734,-7.5625 -8.92969,-12.96875 -16.79688,-13.65234 -3.39843,0.10937 -6.73828,0.99609 -9.75,2.60156 l -1.83984,0.86719 -1.41016,1.51562 c -12.24218,13.65235 11.91797,53.41407 13.76172,55.36328 -9.85156,-2.23046 -19.91406,-3.42187 -30.01172,-3.57421 -9.03906,-1.25391 -18.17187,1.47656 -25.03125,7.47656 -2.77343,3.86719 -3.46484,8.85156 -1.83984,13.32812 0.82422,10.14063 9.11328,18.0586 19.28516,18.41797 -2.80469,6.94531 -2.80469,14.72266 0,21.66797 2.7539,5.51563 7.85547,9.49219 13.86718,10.83594 1.42188,0.35937 2.8711,0.54297 4.33594,0.54297 19.28516,0 32.50391,-32.50391 35.32031,-39.22266 l 0.54297,1.30078 c 3.14063,7.91016 16.46485,38.35547 34.9961,38.35547 1.57812,0.0117 3.14062,-0.20703 4.65625,-0.65234 6.38281,-1.52735 11.63672,-6.04297 14.08593,-12.13282 2.64454,-6.97656 2.64454,-14.6914 0,-21.66796 10.20704,-0.35938 18.51563,-8.34375 19.28516,-18.53125 1.42188,-4.25782 0.78125,-8.94922 -1.73047,-12.67579 z m 0,0"
       inkscape:connector-curvature="0" /><path
       id="path1816"
       style="fill:#333542;fill-opacity:1;fill-rule:nonzero;stroke:none"
       d="m 322.98047,251.66016 c -3.35938,0 -6.71875,0 -9.85938,0 6.24219,-11.98438 8.59375,-25.625 6.71875,-39.00782 -1.51953,-6.29297 -5.77734,-11.58203 -11.59375,-14.41015 -10.08593,-5.52344 -22.49218,-4.4961 -31.52734,2.60156 -8.96094,-6.98828 -21.21484,-8.00781 -31.20703,-2.60156 -5.76172,2.82031 -10.03125,7.99609 -11.69922,14.19531 -2.04688,13.71484 0.34766,27.72656 6.82422,39.98047 -3.14063,0 -6.5,0 -9.85938,0 -16.57812,0 -27.6289,3.89844 -33.80468,11.91797 -4.58204,6.23047 -5.94532,14.26953 -3.6836,21.66797 1.66797,10.1875 8.00781,19.0039 17.1211,23.83593 -0.67188,6.10938 0.34765,12.29688 2.92578,17.87891 3.97265,7.96094 11.21093,13.8125 19.82422,16.03516 2.47265,0.70312 5.01953,1.0625 7.58593,1.08203 9.60938,-0.41016 18.61328,-4.76563 24.91797,-12.02735 v 13.65235 c 0,0 0,0.86718 0,1.30078 0.31641,5.125 -1.4414,10.16406 -4.875,13.97656 -8.82031,7.30469 -20.28125,10.59766 -31.63672,9.10156 -5.98047,0 -10.83593,4.85547 -10.83593,10.83594 0,5.98047 4.85546,10.83594 10.83593,10.83594 h 1.84375 c 17.16016,1.46094 34.11719,-4.58203 46.48047,-16.57813 7.17969,-8.27734 10.72266,-19.08984 9.85547,-30.01172 V 332.8125 c 6.28516,7.12891 15.21484,11.38672 24.70313,11.80859 2.57031,-0.0117 5.11328,-0.36718 7.58593,-1.08593 8.82813,-2.06641 16.28516,-7.94141 20.36719,-16.03516 2.57031,-5.54688 3.57813,-11.6875 2.92578,-17.76563 9.54688,-4.92968 16.13281,-14.17187 17.66016,-24.8125 2.26562,-7.40234 0.90234,-15.4414 -3.6836,-21.67187 -6.17187,-7.69141 -17.22656,-11.58984 -33.91015,-11.58984 z m 16.46875,28.60156 c -0.0312,0.46484 -0.0312,0.9414 0,1.40625 0,0 -1.30078,9.10156 -8.44922,9.10156 -3.62109,-0.0625 -7.03125,1.67969 -9.10156,4.66016 -2.08203,2.98047 -2.52344,6.80468 -1.19141,10.18359 1.44141,4.03125 1.44141,8.42969 0,12.46094 0,0.75781 -1.51562,3.14062 -6.71875,4.55078 h -1.73437 c -8.125,0 -19.5,-17.01172 -25.35157,-32.50391 v -0.75781 c -0.42187,-0.86719 -0.97265,-1.66797 -1.625,-2.38281 l -0.86718,-0.86719 c -0.66016,-0.59766 -1.38672,-1.10547 -2.16797,-1.51562 h -1.08203 c -1.21485,-0.47657 -2.49219,-0.73829 -3.79297,-0.76172 -1.30078,0.0234 -2.57813,0.28515 -3.79297,0.76172 h -1.08203 c -0.78125,0.3789 -1.50391,0.85546 -2.16797,1.40625 l -0.86719,0.86718 c -0.59375,0.69532 -1.10547,1.45313 -1.51562,2.27735 v 0.86328 c -5.85157,15.82031 -17.22657,32.5039 -25.46094,32.5039 h -1.73438 c -5.19922,-1.51562 -6.39062,-3.78906 -6.71875,-4.55078 -1.44922,-4.02734 -1.44922,-8.42968 0,-12.45703 0.96485,-3.37109 0.23828,-7.01172 -1.94922,-9.7539 -2.03515,-3.08594 -5.5039,-4.92579 -9.20703,-4.875 -6.39453,0 -7.91015,-7.04297 -8.23437,-9.10157 0.0312,-0.46484 0.0312,-0.9414 0,-1.40625 -0.54297,-2.16797 0,-3.25 0,-3.57422 0,-0.32812 5.52344,-3.35937 16.68359,-3.35937 9.03516,0.15234 18.02735,1.16797 26.8711,3.03125 4.125,0.8125 8.35156,-0.83203 10.83203,-4.22266 2.42968,-3.64062 2.42968,-8.38672 0,-12.02734 -10.83203,-18.20313 -17.33203,-38.67969 -14.19141,-42.25391 1.53906,-0.83593 3.23828,-1.3125 4.98438,-1.41015 4.11718,0 6.60937,6.5 6.71484,6.71875 1.42187,4.34375 5.40625,7.33203 9.96875,7.47265 4.55078,-0.0625 8.57031,-2.96875 10.07812,-7.25781 0,0 2.49219,-6.71484 6.71485,-6.71484 1.78906,0.1289 3.52344,0.63672 5.09375,1.51562 2.92578,3.35938 -3.14063,23.94141 -14.30078,42.14453 -3.13282,5.09375 -1.55078,11.76953 3.55468,14.91016 2.40235,1.48437 5.28516,1.96094 8.03907,1.34375 8.83984,-1.86328 17.83203,-2.88281 26.86718,-3.03516 10.83594,0 15.71094,2.27735 16.6875,3.35938 0.38672,1.03906 0.46485,2.16797 0.21485,3.25 z m 0,0"
       inkscape:connector-curvature="0" /><path
       id="path1818"
       style="fill:#333542;fill-opacity:1;fill-rule:nonzero;stroke:none"
       d="m 542.16797,227.28125 c 5.97656,0 10.83203,-4.85547 10.83203,-10.83594 0,-5.98047 -4.85156,-10.83594 -10.83203,-10.83594 h -18.53125 c -1.17969,-0.008 -2.34766,0.17579 -3.46485,0.54297 l -21.01953,7.04297 c -3.10937,-21.74609 -9.39453,-42.91406 -18.63672,-62.83984 18.00782,-8.09375 26.04688,-29.25391 17.95313,-47.27344 -5.78516,-12.859374 -18.58203,-21.124999 -32.6875,-21.093749 h -46.69922 c 7.85547,-27.3125 -7.92969,-55.832031 -35.24219,-63.675781 -9.74218,-2.792969 -20.09765,-2.652344 -29.76172,0.402344 -17.6289,-21.410156 -49.11718,-24.878906 -70.96875,-7.800782 -7.6289,-4.355468 -16.25,-6.664062 -25.02734,-6.71875 -15.625,0.023438 -30.40234,7.109376 -40.19531,19.285157 -5.0586,-1.722657 -10.3711,-2.632813 -15.71094,-2.707031 -28.36328,-0.226563 -51.53906,22.578124 -51.76953,50.945312 -0.0312,3.445312 0.29297,6.890625 0.95312,10.269531 H 87.867188 c -19.75,-0.04297 -35.785157,15.929688 -35.828126,35.679689 -0.03516,14.10547 8.234376,26.91406 21.09375,32.6875 -9.308593,19.99219 -15.625,41.23828 -18.742187,63.05859 L 32.71875,206.15625 c -1.113281,-0.37109 -2.285156,-0.55469 -3.464844,-0.54297 H 10.835938 C 4.855469,205.60937 0,210.46484 0,216.44531 c 0,5.98047 4.855469,10.83594 10.835938,10.83594 h 16.46875 l 24.808593,8.34375 c 0,3.25 0,6.60547 0,9.85547 0.109375,96.83203 62.374999,182.65234 154.394529,212.79297 l -18.96094,24.3789 h -19.39453 c -5.98047,0 -10.83203,4.85547 -10.83203,10.83594 0,5.98047 4.85156,10.83594 10.83203,10.83594 h 24.92188 c 3.34765,-0.0117 6.51172,-1.57422 8.55859,-4.22656 l 28.82031,-36.94922 h 92.96094 l 28.82031,36.94922 c 2.04688,2.65234 5.21094,4.21484 8.5586,4.22656 h 24.05469 c 5.98046,0 10.83593,-4.85547 10.83593,-10.83594 0,-5.98047 -4.85547,-10.83594 -10.83593,-10.83594 H 365.5625 l -18.85156,-24.26953 c 92.42968,-30.01172 154.98828,-116.16015 154.93359,-213.33594 0,-3.35546 0,-6.71484 0,-10.18359 l 24.05469,-7.58203 c -0.004,0 16.46875,0 16.46875,0 z M 364.26172,38.648438 c 15.7539,-3.304688 31.20312,6.792968 34.50781,22.546874 0.48828,2.308594 0.68359,4.671876 0.59375,7.03125 -0.0859,4.855469 -1.34375,9.609376 -3.68359,13.867188 h -39.32813 c 6.37891,-8.753906 9.82813,-19.292969 9.85938,-30.117188 -0.0547,-4.507812 -0.71485,-8.992187 -1.94922,-13.328124 z M 314.42187,21.855469 c 16.62891,0 30.1211,13.488281 30.1211,30.121093 0,16.628907 -13.49219,30.117188 -30.1211,30.117188 h -11.70312 c 10.37891,-17.667969 9.23047,-39.835938 -2.92578,-56.335938 4.45312,-2.570312 9.49219,-3.945312 14.6289,-4.011718 z m -56.44921,4.117187 c 16.60937,0.05469 30.0664,13.511719 30.12109,30.121094 -0.0312,10.789062 -5.86328,20.726562 -15.27734,26.003906 h -20.04297 c 3.5,-17.53125 -2.5586,-35.59375 -15.92969,-47.457031 5.58203,-5.570313 13.13281,-8.722656 21.01953,-8.777344 z m -55.90625,16.578125 c 16.39453,-0.273437 29.90234,12.792969 30.17578,29.1875 0.0508,3.519531 -0.51172,7.03125 -1.67969,10.359375 h -57.10156 c -5.44922,-15.460937 2.67968,-32.417968 18.13672,-37.867187 3.32812,-1.171875 6.83984,-1.746094 10.35937,-1.679688 z M 327.75,442.02344 H 226.11719 C 117.63281,413.89844 52.484375,303.14453 80.609375,194.65625 84.28125,180.49609 89.472656,166.76953 96.101562,153.71484 H 458.08984 c 50.73828,99.9375 10.85547,222.07422 -89.07422,272.8125 -13.04296,6.6211 -26.76953,11.82032 -40.9414,15.4961 z M 465.89062,131.93359 H 87.867188 c -7.808594,0 -14.136719,-6.32421 -14.136719,-14.13671 0,-7.8125 6.328125,-14.14063 14.136719,-14.14063 H 465.89062 c 7.8086,0 14.13672,6.32813 14.13672,14.14063 0,7.8125 -6.32422,14.13671 -14.13672,14.13671 z m 0,0"
       inkscape:connector-curvature="0" /></g></svg>