<svg enable-background="new 0 0 110.8125 127.9375" viewBox="0 0 110.8125 127.9375" xmlns="http://www.w3.org/2000/svg"><path d="m110.8394 95.9654-55.4257 32-55.4239-32v-63.9995l55.4239-32 55.4257 32z" fill="#e50042"/><path d="m101.898 37.6065v53.1401l-.0097.0098-1.0909.6201-.33.1895-.1299.0703-.8799.5097-3.1396 1.8106-.2002.1201-1.9297 1.1094-.1602.0898-1.4805.8604-.4697.2705-.1396.0801-.4707.2695-.2393.1299-.0303.0097-.0996.0401-.1103.0703-3.0303 1.7402-.8193.4698-1.0508.5996-.0401.0302-1.2294.71-.4502.2598-.0098.0107-.0098.0098h-.0107l-1.5401.8896-.8701.5205-1.2597.7198-.1202.0703-.08.0498-.4092.2402-.0303.0098-.1601.0898v.0098l-.7803.4502-.1797.0898-.0195.0205-.0401.0196-1.0107.58-.2901.17-.0498.0302-.3203.1797-.2392.1407h-.0108l-.0693.04-.6406.3799-.1992.1201-4.42 2.5498-.6308.3594-.0596.0302-3.5 2.0303-.0195.0098-.0108.0097-.75.4307-.5.2901-1.3896.7998-1.3701.79-.0098.0098-.4307.25-.3994.2304-2.3603 1.3594-.3594.21-.04.0205-.6807.3896-1.8701 1.0801-.5596.3203h-.0098l-.3203.1895-.4795.2802-1.4209-.8203-.8496-.4892-.0303-.0108-1.7392-1.0097-3.5303-2.0401-.04-.0303-2.0703-1.1894-5.3594-3.1104-.6904-.3896-4.7198-2.7402-.3701-.21-.3896-.2197-.2305-.1299-.2598-.1504-.2402-.1504-.0898-.0498-1.8506-1.0596-.5694-.33-1.7099-.9903-2.5108-1.4599-2.0898-1.2002-.8193-.4698-.0909-.0498-.5-.29-.0097-.0098-.21-.1201h-.0098l-1.04-.6006c-.0098-.0097-.0098-.0097-.0195-.0097l-1.8604-1.0801-1.0205-.5899-1.3301-.7705-.7197-.4297-.04-.0195-.0196-.0107-.29-.17s-.0098 0-.0205-.0097l-.2598-.1494-.0195-.0108-3.3008-1.8994-3.4092-1.9707-.0908-.0498-.0801-.04-.0293-.0196v-53.1401l5.6602-3.2603.7695-.4599h.0098l.25-.1397.5801-.33 4.0205-2.3204.8193-.4799.1504-.0899 2.0703-1.1899.9795-.5703 1.0098-.5899.4209-.2397.4492-.2603.25-.1401h.0107l.5694-.3296 3.2304-1.8604 1.5801-.9199.1699-.0898 1.6602-.9502.7793-.4497.3799-.2202.4404-.2598 1.0996-.6504.5205-.2998 2.2803-1.2998.6894-.4102 1.4004-.7998h.0098l.0498-.0302 5.7197-3.2998.1905-.1104.2705-.1597 6.0693-3.5102 1.4404-.8301 1.0596.6201 6.4902 3.75 2.5996 1.5 3.9502 2.2803 1.3399.77 6.6406 3.8296 1.0401.6104 2.2998 1.31.8701.5 1.5195.8799 1.3701.79.7998.46.0899.0601 1.8105 1.04 3.7803 2.1797.04.0303v.0097l.2598.1402.2598.1601.4004.23.9199.5298.54.31 1.9395 1.1202.7802.4399.4405.25 1.9394 1.1201z" fill="#f3c100"/><g fill="#e50042"><path d="m7.4107 91.0843c-.0531.0986-.0987.1973-.1518.2884.0607-.0835.1214-.167.1897-.258 0-.0152.0076-.0303.0076-.0455-.0152.0075-.0303.0075-.0455.0151zm3.2858-7.5277c-.8347-1.5101-1.5025-4.5075-3.6273-3.3009-1.8668 1.0624.774 2.9746 1.1534 4.5834.1669.7133-.7968 1.7719-.6071 2.4852.1745.6298.3786 2.4077.3482 2.9692.5616 1.0244 2.6719.4038 3.3093 1.3827 1.5254-1.9123 1.3585-4.6213-.5765-8.1196zm36.4772 5.1222c-5.3194-5.4408-9.5158-11.6936-10.176-19.3655-.6374-7.3152-4.2799-12.7864-8.7494-18.0224-3.8018-4.4544-8.4838-7.9906-13.2796-11.208-.9182-.6147-4.0288-2.894-5.0987-3.4555-5.3043 7.7553-6.3066 18.7309-6.3066 28.8386 0 4.3481.5767 8.5672 1.6543 12.5739.0987-.0304.2049-.0607.3111-.0911 1.5556-.4174 2.8304-1.1231 3.4072-2.6863.2959-.8271-2.955-1.896-1.7485-1.3876 1.1079.4705.5384 1.3452.25 2.1875-.258.7512 2.1131 1.4462 2.9251 2.3493.865.9485 1.8212.516 2.7925.1821.8271-.2884 1.6846-.6526 2.5269-.6526 2.4435 0 4.0295.9713 2.0033 3.3616-2.0337 2.4131-1.6922 5.2056-2.1019 7.9147-.4933 3.2402.8195 4.6517 4.0218 3.7942 3.4224-.9182 6.7536-2.0109 10.3657-1.6315 1.0548.1062 1.9275-.5539 2.7166-1.1914 1.6619-1.3507 3.0581-1.2369 4.6061.3643 1.715 1.7757 3.8169 2.9594 7.7781 2.1627-5.1677-2.3903-6.1769-6.5867-8.7494-11.0487 3.0505 1.328 3.6278 3.2911 5.1221 4.9324 1.7194 1.8885 2.7948 2.4029 4.9727 3.0707.9258.2884 1.4822.4495 1.5305.3516.1558-.3149-.3717-.9332-.7739-1.343zm-35.9916-31.6283c-.5539-1.328-1.1231-2.6483-1.6391-3.9839-.2504-.6754-.6071-1.5328.3642-1.8743.8575-.296 1.4039.4325 1.677 1.1079.6147 1.5328.3567 3.1264-.4021 4.7503zm16.1253 30.657c-.9258.1062-1.4494-.3794-1.3735-1.2976.1062-1.2445 1.1762-1.457 2.0489-1.7832.8499-.0152 1.1762.4705 1.1914 1.1686.0227 1.2368-.7665 1.7756-1.8668 1.9122zm5.8961-11.7999c.0076 0 .0076 0 .0152.0076v.0076l.0759.0835-.0911-.0759c0-.0076 0-.0076 0-.0152v-.0076c-.0683-.0531-.1366-.1138-.2049-.1822-.1593-.1517-.3035-.3111-.4477-.4856-.0455-.0531-.0835-.1062-.1214-.1594-.0987-.129-.1897-.2656-.2808-.4022-.0683-.0986-.1366-.2049-.2049-.3111-.3643-.5615-.7133-1.1459-1.1383-1.6163-.0531-.0607-.1062-.1138-.1594-.1669-.0531-.0531-.1062-.1063-.1594-.1518-.0607-.0531-.1138-.0987-.1745-.1442s-.1214-.0911-.1821-.129c-.0683-.0455-.1366-.0835-.2049-.1214-.1669-.0911-.349-.1593-.5387-.2049-.0759-.0228-.1518-.038-.2353-.0456-.7285-.1062-1.6467.0835-2.8608.7437.6905-1.6239 1.0093-2.5573 1.4721-3.4148 1.032-1.935 1.9122-1.8516 3.2478-.0379.167.22.3263.4401.4781.6602.1973.2959.387.5843.5615.8802.0911.1518.1822.3111.2656.4629.0911.167.1745.3415.258.516.0759.167.1518.3415.2277.516.0683.1897.1366.3718.1973.5615.0304.1138.0607.22.0911.3339.0455.1973.0911.387.1214.5843.0379.2049.0607.4022.0759.6071.0152.1669.0228.3339.0228.5084.0001.3871-.0379.7817-.1062 1.1991z"/><path d="m33.2187 75.9201c-2.004-1.5674-2.2667-5.9132-6.9298-3.391.6906-1.6207 1.0106-2.5555 1.4711-3.4149 1.0341-1.9299 1.9126-1.8495 3.2528-.0393 1.5581 2.1044 2.6529 4.1829 2.189 6.8531z"/><path d="m11.18 57.0509c-.5486-1.3277-1.1234-2.6454-1.6346-3.9874-.256-.6719-.61-1.5335.3638-1.8713.8536-.2962 1.4025.431 1.6746 1.1096.614 1.5315.354 3.1218-.4038 4.7491z"/><path d="m27.979 84.6245c.8552-.0108 1.1793.4763 1.1928 1.1691.0241 1.2392-.7635 1.7764-1.867 1.9101-.9216.1116-1.4475-.376-1.3704-1.293.1046-1.245 1.1784-1.4599 2.0446-1.7862z"/><path d="m33.2019 75.9279.0928.078-.076-.087z"/><path d="m7.4486 91.1147c-.0683.0911-.129.1745-.1897.258.0531-.0911.0987-.1897.1518-.2884z"/><path d="m34.3596 74.2588c-.44-1.1253-.8801-2.2507-1.3202-3.376-.1179-.3016-.3311-.5097-.5794-.6318-.2192-1.1918-.4384-2.3837-.6576-3.5755-.2026-1.1016-2.0442-1.0066-2.1962.0775-.0236.1687-.0473.3374-.0709.5061-.0421-.1282-.0931-.2505-.1245-.3857-.3899-1.1878-2.3232-.9441-2.2255.3711.0228.3074.0407.6149.0618.9224-.2031.2527-.3155.5947-.2451.9991.0915.4314.1535.8641.202 1.2973-.3974.0657-.7415.3198-.8154.817-.333 2.2396-.8699 4.3087-1.6599 6.3864-4.4015-2.7956-7.7295-6.711-10.4357-11.1817-1.2545-2.0724-2.372-4.2238-3.4181-6.4081.493-.0892.9462-.4664.9803-1.1113.0427-.8084.1072-2.2515-.0288-3.702.2874-1.7228.2106-3.3337-.1994-5.1554-.2879-1.2786-2.2515-.8805-2.2255.3711.0026.1256.0052.2511.0078.3766-.2319-.0455-.4774-.0679-.7531-.0377-4.1881.4588-1.809 5.9128-.8701 7.9753 3.8665 8.4935 8.6208 16.8176 16.9685 21.5644.5034.2863 1.3011.0785 1.5379-.4753.5-1.1692.9176-2.3374 1.277-3.5208.0005.0878.0033.1754.0036.2631.0037 1.2234.2683 3.9903-.0238 6.2783-1.3039-.0997-2.7429.0811-3.4958.0501-.598-.0246-1.1437.5926-1.103 1.173.1175 1.6746.9614 2.461 2.0657 2.6605-.387.543-.0957 1.3878.554 1.6821.1287.8856 1.2432 1.5596 1.9047.6664.7655-1.0335 3.3857-3.3601 2.6231-5.0105-.1066-.2307-.2628-.4195-.4553-.5754.02-.1645.0384-.3298.055-.4959.3086-3.1037.3001-6.2887.1637-9.4577.2651-.0819.5085-.2449.6771-.4645.0766.1396.1531.2791.2297.4187.1273.692.2546 1.3841.3818 2.0762.1975 1.0739 1.7183.9622 2.1134.111.6934-.0364 1.3854-.739 1.0962-1.4784z"/><path d="m104.5933 91.0691c0 .0152.0076.0303.0076.0455.0683.0911.129.1745.1897.258-.0531-.0911-.0986-.1897-.1518-.2884-.0151-.0075-.0303-.0075-.0455-.0151zm-3.8169.6071c.6374-.9789 2.7478-.3583 3.3093-1.3827-.0304-.5616.1737-2.3394.3482-2.9692.1897-.7133-.774-1.7719-.6071-2.4852.3794-1.6087 3.0202-3.521 1.1535-4.5834-2.1247-1.2066-2.7925 1.7908-3.6273 3.3009-1.9349 3.4983-2.1019 6.2073-.5766 8.1196zm-36.6746-1.6543c.0484.0979.6048-.0633 1.5305-.3516 2.1779-.6678 3.5213-1.1838 4.9727-3.0707 1.4445-1.878 2.5718-2.7303 5.1221-4.9324-2.5725 4.462-3.5817 8.6583-8.7494 11.0487 3.9612.7968 6.0631-.387 7.7781-2.1627 1.5481-1.6011 2.9443-1.715 4.6061-.3643.7892.6374 1.6618 1.2976 2.7166 1.1914 3.6121-.3794 6.9433.7133 10.3657 1.6315 3.2023.8575 4.5151-.5539 4.0218-3.7942-.4098-2.709-.0683-5.5016-2.102-7.9147-2.0261-2.3904-.4401-3.3616 2.0033-3.3616.8423 0 1.6998.3642 2.5269.6526.9713.3339 1.9275.7664 2.7925-.1821.812-.903 1.6846-2.3979 1.4266-3.1492-.2884-.8423-1.5965-.9796-.4886-1.4501 1.2066-.5084.1927.623.4886 1.4501.5767 1.5632 1.8516 2.2689 3.4072 2.6863.1062.0303.2125.0607.3111.0911 1.0775-4.0067 1.6543-8.2258 1.6543-12.5739 0-10.1077-.606-20.9367-5.9103-28.692-1.0699.5615-4.5768 2.6943-5.495 3.3089-4.7958 3.2175-9.4779 6.7537-13.2796 11.208-4.4695 5.2359-8.1119 10.7072-8.7494 18.0224-.6602 7.6718-4.8566 13.9246-10.176 19.3655-.4019.4097-.9295 1.028-.7738 1.343zm36.3635-37.7217c.2732-.6753.8196-1.4038 1.677-1.1079.9713.3415.6147 1.1989.3642 1.8743-.516 1.3356-1.0851 2.6559-1.6391 3.9839-.7588-1.6239-1.0168-3.2175-.4021-4.7503zm-17.5899 33.495c.0152-.6981.3415-1.1838 1.1914-1.1686.8726.3263 1.9426.5387 2.0489 1.7832.0759.9182-.4477 1.4039-1.3735 1.2976-1.1003-.1365-1.8896-.6753-1.8668-1.9122zm-4.1356-11.0866c0-.1745.0076-.3415.0228-.5084.0151-.2049.0379-.4022.0759-.6071.0303-.1973.0759-.387.1214-.5843.0303-.1138.0607-.2201.0911-.3339.0607-.1897.129-.3718.1973-.5615.0759-.1746.1518-.3491.2277-.516.0835-.1745.1669-.349.258-.516.0835-.1517.1746-.3111.2656-.4629.1745-.296.3642-.5843.5615-.8802.1518-.2201.3111-.4401.4781-.6602 1.3356-1.8136 2.2158-1.8971 3.2478.0379.4629.8575.7816 1.7908 1.4721 3.4148-1.2141-.6602-2.1323-.8499-2.8608-.7437-.0835.0076-.1594.0228-.2353.0456-.1897.0455-.3718.1138-.5387.2049-.0683.0379-.1366.0759-.2049.1214-.0607.0379-.1214.0835-.1821.129s-.1138.0911-.1745.1442c-.0531.0455-.1063.0986-.1594.1518-.0531.0531-.1062.1062-.1594.1669-.4249.4705-.774 1.0548-1.1383 1.6163-.0683.1062-.1366.2125-.2049.3111-.0911.1366-.1821.2732-.2808.4022-.038.0531-.0759.1062-.1214.1594-.1442.1745-.2884.3339-.4477.4856-.0683.0683-.1366.129-.2049.1822v.0076.0152l-.0911.0759.0759-.0835v-.0076c.0076-.0076.0076-.0076.0152-.0076-.0683-.4175-.1062-.8121-.1062-1.1991z"/><path d="m78.8308 75.9201c2.004-1.5674 2.2667-5.9132 6.9298-3.391-.6906-1.6207-1.0106-2.5555-1.4711-3.4149-1.0341-1.9299-1.9126-1.8495-3.2528-.0393-1.5581 2.1044-2.6529 4.1829-2.189 6.8531z"/><path d="m100.8696 57.0509c.5486-1.3277 1.1234-2.6454 1.6346-3.9874.256-.6719.61-1.5335-.3638-1.8713-.8536-.2962-1.4025.431-1.6746 1.1096-.6141 1.5315-.3541 3.1218.4038 4.7491z"/><path d="m84.0706 84.6245c-.8552-.0108-1.1793.4763-1.1928 1.1691-.0241 1.2392.7635 1.7764 1.867 1.9101.9216.1116 1.4475-.376 1.3704-1.293-.1046-1.245-1.1784-1.4599-2.0446-1.7862z"/><path d="m78.8477 75.9279-.0929.078.076-.087z"/><path d="m104.6009 91.1147c.0683.0911.129.1745.1897.258-.0531-.0911-.0986-.1897-.1518-.2884z"/><path d="m78.7862 75.7377c.3951.8512 1.9159.9629 2.1134-.111.1273-.6921.2546-1.3841.3818-2.0762.0766-.1396.1531-.2791.2297-.4187.1685.2196.412.3826.6771.4645-.1364 3.169-.1449 6.354.1637 9.4577.0165.1661.035.3314.055.4959-.1924.1559-.3487.3448-.4553.5754-.7625 1.6504 1.8577 3.9769 2.6231 5.0105.6615.8932 1.776.2192 1.9047-.6664.6497-.2943.941-1.1392.554-1.6821 1.1043-.1995 1.9482-.9859 2.0657-2.6605.0407-.5805-.505-1.1977-1.103-1.173-.7529.031-2.1919-.1498-3.4958-.0501-.2921-2.288-.0275-5.0549-.0238-6.2783.0003-.0878.0031-.1754.0036-.2631.3594 1.1834.7769 2.3516 1.277 3.5208.2368.5538 1.0346.7616 1.5379.4753 8.3477-4.7468 13.102-13.0709 16.9685-21.5644.9389-2.0625 3.318-7.5166-.8701-7.9753-.2757-.0302-.5212-.0078-.7531.0377.0026-.1256.0052-.2511.0078-.3766.026-1.2516-1.9377-1.6498-2.2255-.3711-.41 1.8216-.4869 3.4326-.1994 5.1554-.136 1.4505-.0715 2.8935-.0288 3.702.0341.6449.4873 1.022.9803 1.1113-1.0462 2.1842-2.1636 4.3356-3.4181 6.4081-2.7062 4.4707-6.0341 8.3861-10.4357 11.1817-.79-2.0777-1.3269-4.1467-1.6599-6.3864-.0739-.4972-.418-.7512-.8154-.817.0485-.4333.1105-.8659.202-1.2973.0704-.4044-.042-.7464-.2451-.9991.0211-.3074.039-.6149.0618-.9224.0977-1.3153-1.8356-1.5589-2.2255-.3711-.0314.1352-.0825.2575-.1245.3857-.0236-.1687-.0473-.3374-.0709-.5061-.152-1.0841-1.9936-1.1791-2.1962-.0775-.2192 1.1918-.4384 2.3837-.6576 3.5755-.2483.1221-.4615.3302-.5794.6318-.4401 1.1254-.8802 2.2507-1.3202 3.376-.2892.7389.4028 1.4415 1.0962 1.4784z"/></g><path d="m85.5182 28.2066-1.71-.98-2.5508-1.48-25.3691-14.6201-22.6309 13.0498-2.9092 1.6802-4.3408 2.5-14.6494 8.4399-1.54.8902v53.1196l2.54 1.4697 9.1699 5.2901 1.7598 1.0107 3.3701 1.9492 5.3896 3.1006 3.2901 1.8994 2.0801 1.2002.8906.5108.4892.2793.67.3906 10.6709 6.1494 4.4795 2.5801 1.04.6006.2305.1299.3799-.2208.3095-.1796 2.5801-1.4795 8.4502-4.8701.6699-.3907 3.1602-1.8193h.0097l.4405-.2608 11.25-6.4794 1.1191-.6504 17.71-10.21v-53.1196zm14.58 61.5303-9.0205 5.1992-4.6601 2.6904-3.1299 1.7998-1.2803.7403-.7197.4101-3.9102 2.2598-5.9795 3.4394-.9502.5508-3.0595 1.7695-1.5401.8907-7.8203 4.5097-2.1396 1.2295-4.6905-2.7002-9.8701-5.6894-1.8398-1.0606-3.7998-2.1894-.6407-.3701-7.1699-4.1397-3.9101-2.2607-1.7598-1.0098-3.4199-1.9697-6.4395-3.71-.6709-.3896v-50.9707l15.5205-8.9497 6-3.46.7295-.4199 21.961-12.6602 24.3496 14.0498 2.5 1.44 1.9502 1.1201 15.4101 8.8799z" opacity=".13"/><circle cx="56.1161" cy="60.2981" fill="#181b51" r="25.2436" stroke="#fff" stroke-miterlimit="10" stroke-width="2.5"/><path d="m97.5162 42.4712c-.0681-.0214-.1428-.0274-.23.008-.2518.1023-.3737.151-.4917.2182-.1595.0708-.3191.1416-.4786.2124-.0309.0006-.0607-.0046-.0931.0055-.2638.0822-.5159.1873-.7731.2818-.0826-.1869-.2429-.3092-.459-.2162-1.7981.7739-3.6154 1.3774-5.4202 2.0394-.2684.0788-.5279.1734-.7714.2872-.9575.3637-1.9098.7555-2.8523 1.2072-.2244.0466-.4502.0875-.6727.142-1.7854.393-3.5446.9272-5.2589 1.7532-.0713.0343-.1256.0838-.1704.1397-.9173.3764-1.837.7485-2.7612 1.1058-.1008-.2411-.343-.4227-.6059-.2875-1.2856.6608-2.5713 1.3216-3.8569 1.9824-.0947-.0345-.1996-.0392-.3092.0174-.2008.1038-.4171.2075-.6294.311-.7189.2217-1.4316.4561-2.114.7901-.0961-.084-.2185-.1294-.3535-.096-.9629.2385-1.7231.7701-2.3721 1.4667-.3329.1417-.6495.3409-.9348.6401-.4426.4644-.7093 1.1033-.9663 1.7498-.3359.3468-.5395.6745-.6277 1.1643-.8065 1.1443-1.3919 2.5174-1.6873 4.3512-.8508 3.1319-1.5192 6.3132-2.0029 9.5469-.023.1174-.0527.2317-.0752.3494-.0086.0452-.0033.0838-.0035.1252-.0014.0093-.0033.0185-.0046.0278-.0695.0607-.1294.1475-.1602.2839-.2725 1.2069-.5043 2.4207-.7177 3.6381-.0695.0603-.1273.1422-.1519.2602-.1917.92-.3597 1.8437-.517 2.7695-.0388.0532-.0709.116-.0877.1958-.2066.9774-.3373 1.9485-.436 2.923-.1842.0396-.3549.1958-.3724.4833-.0191.3143-.0158.6194.0101.9328.0088.1065.0432.1897.0866.2621-.1419 1.051-.1136 1.9966.1121 3.0424-.0037.3398.0645.4242.3782.9417.0669.1104.1513.1754.2402.2047.0728.3908.2192.7264.4667.9758.1921.1936.5474.2249.6738-.1055.0268-.07.0536-.14.0803-.21.0615-.0411.1177-.0974.1549-.1903.0275-.0686.055-.1372.0825-.2058.1673.0681.3528.0215.451-.2355.2789-.7296.5348-1.4657.7827-2.2058.1101-.0499.2079-.1492.2601-.3168.254-.8164.529-1.6201.8096-2.4206.0376-.0326.0753-.0657.1065-.1166.8507-1.3869 1.5848-2.8243 2.2351-4.362.3177-.4924.6496-.9702.9866-1.443.1338.2463.4286.3811.6646.1229.6451-.7059 1.3044-1.389 1.9739-2.0561.5285-.5027 1.066-.9917 1.6299-1.4486.0515-.0417.0888-.0905.1177-.1426.5309-.3612 1.0701-.688 1.6163-.9925.1198.1142.2846.1574.459.042.4109-.2719.8296-.5249 1.2424-.7922.2447-.1382.4984-.2684.7608-.3938.1018.0389.2142.0369.3212-.0323.8503-.5505 1.7007-1.1011 2.551-1.6516.2301-.0909.4604-.1815.6897-.275.0439.3133.3246.5861.6356.3968.3302-.2011.6493-.4167.9689-.6323.0515.0048.1067-.0042.1647-.0307.2256-.1032.4461-.2182.6702-.3249.7784-.2756 1.5313-.595 2.2639-.97.0178.0101.0305.031.0494.0377.6385.2241.9911-.1635 1.5733-.5193.0183-.0112.0361-.0238.0544-.035.0925.26.331.4421.5904.2524.6768-.4947 1.3535-.9893 2.0303-1.484.0778.0392.1645.0558.2572.0261.0956-.0307.1808-.0749.274-.1083.1213.0768.269.1023.4096.0281.5211-.2753.9911-.598 1.4303-.9553.4621-.3164.899-.7003 1.325-1.1317.0774.0065.1565-.0114.2295-.0784.1056-.0969.2111-.1939.3167-.2909.1443.0906.3244.0876.4743-.095.7395-.9202 1.9121-2.0285 2.3093-3.2764.0448-.1408.0767-.3678.0992-.6256.3565-.5448.637-1.1383.6367-1.8185-.0003-.6567-.3885-.8246-.8546-.799-.1859-.4573-.4339-.6375-.7211-.609.2837-.2382.5564-.4948.8447-.7268.1213-.0992.1766-.236.1887-.3761.0433-.0262.0814-.0553.1253-.0814.0652-.0423.112-.0952.1467-.1531.0104-.0088.0209-.0176.0313-.0265 1.0671-.2061 2.4332-2.418 2.3019-3.5368-.0298-.2544-.0892-.4321-.1597-.5768.1485-.1525.2887-.3381.4189-.5784.1479-.2731.0051-.6943-.2564-.7654-.144-.0392-.2789-.0478-.408-.0431-.088-.0644-.1896-.1179-.3067-.1539-.3715-.1144-.9588.1216-1.3579.5024-.1058-.0043-.2145.0298-.3069.1181-.3416.3258-.6609.666-.9599 1.0224-.2995.0842-.5982.1862-.8962.2998-.0773-.0062-.1589.0091-.2437.0796-.0194.0162-.0395.0308-.0589.0469-.7222.2978-1.4389.663-2.1435 1.0794-.1235-.1462-.3084-.2224-.5055-.1142-.6495.3564-1.2876.7401-1.9323 1.1079-.5326.2189-1.0556.4662-1.5712.7355-.0285-.0621-.0662-.1198-.113-.1679.1457-.0828.2916-.1657.4373-.2485.1033.0485.2243.0504.3499-.026.8717-.5302 1.7434-1.0603 2.6151-1.5905.0821.0523.1837.0667.3037.0084 2.0312-1.0176 3.9489-2.2364 5.7851-3.7044.156-.1247.2085-.2968.1995-.4611.0217-.0826.0225-.1728.0098-.2612.2753-.2192.5434-.4511.7961-.7101.1125-.1046.1665-.2526.1799-.4018.045-.037.0901-.0739.1352-.1109.1256-.0905.1879-.2495.1971-.4129.0553-.0468.1106-.0936.1659-.1404.1396-.1181.214-.3535.1925-.5628.2583-.1259.3297-.4426.2657-.6927.0772-.1852.0602-.4146-.0259-.5825.0063-.0041.0125-.0081.0188-.0121.2311-.149.2554-.409.1711-.6203l.087-.1469c.2009-.3386-.1091-.8612-.4334-.7763zm-7.7568 16.2886 1.4119-.8716c.0754.0043.1534-.0133.2303-.0839.1557-.1431.3202-.2697.477-.4104-.0161.0646-.0217.1301-.0152.1937-.1646.16-.3196.3542-.4637.5723-.131.08-.2514.1857-.3649.305-.1221.0372-.22.1344-.2531.2945-.0673-.0019-.1356.0093-.2024.054-.1878.1258-.3505.2621-.5117.4-.0436.0121-.0874.0245-.1325.0578-.0185.0137-.0356.0297-.054.0434-.0356.0026-.0695-.0009-.1088.0158-.3548.1512-.7179.3127-1.0815.4741.3661-.3287.7198-.6805 1.0686-1.0447z" fill="#e5e5e5"/><path d="m97.8124 43.2809c-.0455.0184-.0917.0366-.1371.055.0605-.3118-.1068-.7107-.4061-.67-4.8971.6651-9.6115 3.1731-14.3397 4.8531-3.8799 1.3787-7.7181 2.3416-11.2397 4.4765-.3106.1314-.6232.257-.9306.3977-.0344-.3576-.4703-.5671-.7449-.3087-.3692.3474-.7599.7115-1.159 1.0887-.301.2218-.5977.4499-.8858.6906-.1553.0938-.3094.191-.4633.2889-.6047.3328-1.1431.6972-1.7084 1.1885-.0506.044-.0875.0959-.1171.1504-.1355-.3019-.5508-.4349-.7656-.0547-.5911 1.0677-1.1361 2.1568-1.6439 3.2855-.0774.172-.0552.3551.0152.5044-.0323.1022-.0642.2049-.0952.3083-.6228.9342-1.151 1.9568-1.5141 3.1532-.1082.3566.1113.5908.3557.6203.0297.1002.081.1849.1499.248-1.0117 1.9199-1.7028 4.0947-1.9107 6.5715-.056.6666.8025.6618.858 0 .7922-9.4349 8.8006-13.9443 15.2462-16.7838 7.1782-3.1622 14.4226-6.1187 21.6641-9.0588.5213-.2113.2979-1.2181-.2279-1.0046z" fill="#fff"/><path d="m96.8474 49.0237c-.118-.6548-.9454-.3778-.8273.277.0306.1696-.0134.349-.1117.5349.0139-.373-.2931-.7558-.6246-.4954-3.2532 2.5559-6.9443 4.4082-10.6462 6.088-.1016-.2402-.3426-.4219-.6053-.2871-1.514.7769-2.9986 1.616-4.467 2.5103-1.6622.533-3.3515.9332-5.0957 1.0819-.5477.0467-.552 1.0892 0 1.0421 1.6605-.1416 3.2792-.5048 4.8744-.9869.0723.0293.1514.0391.2396-.0006.1684-.0759.3407-.1513.51-.227 2.9081-.9547 5.7373-2.3038 8.5696-3.5735 2.1197-.9501 4.2485-1.9006 6.2589-3.163 1.0291-.6463 2.2141-1.1989 1.9253-2.8007z" fill="#b7b7b7"/><path d="m93.1316 58.9839c.1831-.1742.3971-.3086.6229-.4264.1115-.0726.2281-.1362.3506-.1932-.0028-.0151-.005-.0303-.0101-.0454.3899-.3372.7173-.7252.9091-1.2004.2421-.5999-.4977-1.1287-.7409-.526-.0091.0225-.0235.0439-.0336.0662-.122-.1553-.3091-.2354-.5096-.1081-.2184.1387-.4368.2773-.6552.416-.1228-.0113-.2396.0391-.3307.1318-1.0735.6587-2.1646 1.2579-3.2687 1.8264-.0363.0013-.0722-.0006-.111.0152-1.4311.5824-2.838 1.2238-4.2313 1.9292-.0556.0281-.0998.0664-.1391.1079-.5569.2752-1.1138.5505-1.6707.8257-.057.0069-.1105.0182-.156.0322-.0893-.0788-.206-.1142-.3457-.0647-2.2248.7884-4.4496 1.5768-6.6743 2.3652-.3024.1072-.3666.538-.2301.8054-.8713.1299-1.7509.2147-2.6427.2377-.5513.0142-.5464 1.1483 0 1.0421 4.383-.8521 6.4-1.7102 10.4964-3.1317 1.8769-.6513 5.2651-1.9722 6.9693-2.9042.6627-.3624 1.5658-.7202 2.3907-1.1938.0034-.0025.0074-.0043.0107-.0071z" fill="#b7b7b7"/><path d="m58.1352 83.3878c1.2895-5.7473 2.4179-11.5453 3.628-17.3177.5624-2.6826 1.0006-5.6628 2.1743-8.0745 1.474-3.0289 3.9658-4.5897 6.6027-5.7528 8.6195-3.802 17.7339-5.9522 26.4188-9.5564.609-.2527.3675-1.3609-.2673-1.1776-5.5816 1.6119-11.0742 3.6691-16.5847 5.6027-4.2114 1.4778-8.9024 2.5336-12.7986 5.0651-3.4086 2.2146-4.9579 5.6084-5.8918 10.033-1.462 6.927-2.77 13.9446-4.0055 20.9358-.1006.5702.5962.8126.7241.2424z" fill="#181b51"/><path d="m96.788 42.7361c2.7974-.7847-.716 4.6617-.429 4.2683-.8621 1.1819-2.0289 2.1191-3.1754 2.8416-2.0613 1.299-4.4453 2.0849-6.6193 3.0481-4.1499 1.8388-8.404 3.4861-12.4528 5.6323-.5405.2865-.1541 1.3427.3977 1.1458 4.1882-1.4945 8.2766-3.5394 12.38-5.3467 2.9296-1.2903 6.1792-2.4201 8.704-4.7346 1.3315-1.2205 3.5806-4.0207 3.4325-6.3944-.1125-1.803-1.1684-2.0152-2.4784-1.5202-.5562.2102-.3279 1.2193.2407 1.0598z" fill="#181b51"/><path d="m95.6043 49.6974c2.7974-.7847-.716 4.6617-.429 4.2683-.8621 1.1819-2.0289 2.119-3.1754 2.8416-2.0613 1.299-4.4453 2.0849-6.6193 3.0481-4.1499 1.8388-8.404 3.4861-12.4528 5.6322-.5405.2865-.1541 1.3427.3977 1.1458 4.1882-1.4945 8.2766-3.5394 12.38-5.3467 2.9296-1.2903 6.1792-2.4201 8.704-4.7346 1.3315-1.2205 3.5806-4.0207 3.4325-6.3944-.1125-1.803-1.1684-2.0152-2.4784-1.5202-.5562.2103-.3279 1.2193.2407 1.0599z" fill="#181b51"/><path d="m93.2992 57.3018c2.6327-.7387-.7123 4.6068-.7924 4.7066-1.0575 1.3184-2.3296 2.1235-3.6875 2.8508-2.1853 1.1703-4.4994 2.0386-6.7702 2.9304-3.8435 1.5095-8.0216 2.6998-11.5315 5.1994-.4867.3466-.1633 1.4105.3977 1.1458 3.4612-1.6329 6.8988-3.1527 10.4386-4.5222 3.4387-1.3304 7.1784-2.5448 10.2132-5.0078 1.5971-1.2963 4.0492-4.091 3.9608-6.7618-.061-1.8413-1.1259-2.1086-2.4692-1.601-.5564.2102-.3281 1.2193.2405 1.0598z" fill="#181b51"/><path d="m73.3635 72.0538c-2.2918.0407-4.8812 2.1794-6.5966 3.8543-2.2904 2.2364-4.3082 5.3136-4.9615 8.8534-.1042.5645.6013 1.0065.8148.4172 1.137-3.1391 2.521-5.8326 4.6858-8.0987 1.9411-2.032 4.0527-2.8608 6.2048-4.3662.2486-.1741.1428-.6652-.1473-.66z" fill="#181b51"/><path d="m57.7252 81.261c-.4593 2.2636-.9014 5.8632.8608 7.4632 2.2613 2.0533 3.5718-2.3632 4.3351-4.2126.2961-.7175-.5918-1.3515-.8891-.6312-.462 1.1196-1.8524 5.5403-3.1908 3.379-.906-1.4632-.666-3.7779-.3332-5.4178.1585-.7813-.5437-1.6071-.7024-.8248z" fill="#181b51"/><path d="m14.0924 43.5805.087.1469c-.0842.2112-.0599.4713.1711.6203.0063.0041.0125.0081.0188.0121-.0861.1679-.1032.3973-.0259.5825-.0639.2502.0074.5669.2657.6927-.0215.2093.0529.4447.1925.5628.0553.0468.1106.0936.1659.1404.0093.1633.0715.3224.1971.4129.045.037.0901.0739.1352.1109.0134.1492.0674.2972.1799.4018.2527.259.5208.4908.7961.7101-.0127.0884-.0119.1787.0098.2612-.009.1644.0436.3365.1995.4611 1.8363 1.468 3.754 2.6869 5.7851 3.7044.12.0583.2216.044.3037-.0084.8717.5302 1.7434 1.0603 2.6151 1.5905.1256.0764.2466.0745.3499.026.1457.0828.2916.1657.4373.2485-.0467.0481-.0844.1058-.113.1679-.5155-.2693-1.0385-.5166-1.5711-.7355-.6447-.3678-1.2828-.7514-1.9323-1.1079-.1971-.1082-.3819-.0319-.5055.1142-.7046-.4164-1.4213-.7816-2.1435-1.0794-.0194-.0161-.0395-.0308-.0589-.0469-.0848-.0705-.1664-.0859-.2437-.0796-.298-.1136-.5967-.2157-.8962-.2998-.299-.3564-.6183-.6965-.9599-1.0224-.0925-.0882-.2012-.1224-.3069-.1181-.3991-.3809-.9864-.6168-1.3579-.5024-.1171.0361-.2186.0895-.3067.1539-.1291-.0048-.264.0039-.408.0431-.2615.0712-.4043.4923-.2564.7654.1302.2404.2704.426.4189.5784-.0705.1447-.1299.3224-.1597.5768-.1313 1.1188 1.2347 3.3307 2.3019 3.5368.0104.0088.0209.0176.0313.0265.0347.0579.0814.1108.1467.1531.0439.0261.0821.0551.1253.0814.0121.1401.0675.2769.1887.3761.2883.232.561.4886.8447.7268-.2872-.0286-.5353.1517-.7211.609-.4661-.0257-.8543.1423-.8546.799-.0003.6801.2802 1.2736.6367 1.8185.0226.2578.0544.4847.0992.6256.3972 1.2479 1.5698 2.3562 2.3093 3.2764.1498.1826.3299.1857.4743.095.1056.0969.2111.1939.3167.2909.073.067.1521.0849.2295.0784.426.4314.8629.8153 1.325 1.1317.4392.3573.9091.6799 1.4303.9553.1406.0743.2883.0487.4096-.0281.0933.0334.1785.0777.2741.1083.0927.0297.1794.0131.2572-.0261.6768.4947 1.3535.9894 2.0303 1.484.2594.1897.4979.0075.5904-.2524.0183.0113.0361.0239.0544.035.5822.3557.9349.7434 1.5733.5193.0189-.0066.0317-.0276.0494-.0377.7327.375 1.4856.6944 2.264.97.224.1067.4446.2217.6702.3249.058.0265.1132.0356.1647.0307.3196.2156.6387.4312.9689.6323.3109.1893.5916-.0835.6356-.3968.2293.0935.4595.1841.6897.275.8503.5505 1.7007 1.1011 2.551 1.6516.107.0693.2194.0712.3212.0323.2625.1255.5161.2557.7608.3938.4128.2673.8314.5203 1.2424.7922.1744.1154.3393.0723.459-.042.5462.3045 1.0854.6313 1.6163.9925.0289.0521.0662.1009.1177.1426.5639.4569 1.1014.9459 1.6299 1.4486.6695.6672 1.3288 1.3502 1.9739 2.0561.236.2582.5308.1233.6646-.123.337.4727.6689.9506.9866 1.443.6503 1.5377 1.3844 2.9751 2.2351 4.362.0313.0509.0689.0841.1065.1167.2805.8005.5555 1.6043.8096 2.4206.0522.1676.1499.267.2601.3168.2479.7401.5038 1.4762.7827 2.2058.0982.257.2837.3036.451.2355.0275.0686.055.1372.0825.2058.0372.0929.0934.1492.1549.1903.0268.07.0536.14.0803.21.1265.3304.4817.2991.6738.1055.2474-.2493.3938-.585.4667-.9758.0889-.0293.1732-.0944.2402-.2048.3137-.5176.3819-.602.3782-.9417.2257-1.0457.254-1.9914.1121-3.0424.0434-.0724.0778-.1556.0866-.2621.0259-.3134.0292-.6184.0101-.9328-.0174-.2875-.1882-.4437-.3723-.4833-.0987-.9745-.2294-1.9456-.436-2.923-.0169-.0798-.049-.1425-.0877-.1958-.1574-.9258-.3254-1.8495-.517-2.7694-.0246-.118-.0823-.1999-.1519-.2602-.2134-1.2174-.4452-2.4312-.7177-3.6381-.0308-.1364-.0907-.2232-.1602-.2839-.0013-.0093-.0032-.0184-.0046-.0278-.0003-.0414.0051-.08-.0035-.1252-.0225-.1177-.0522-.232-.0752-.3494-.4837-3.2338-1.1521-6.415-2.0029-9.5469-.2954-1.8337-.8807-3.2069-1.6873-4.3512-.0882-.4898-.2918-.8175-.6277-1.1643-.257-.6465-.5237-1.2854-.9663-1.7498-.2852-.2993-.6018-.4984-.9347-.6401-.6491-.6967-1.4093-1.2283-2.3721-1.4667-.135-.0334-.2575.012-.3535.096-.6824-.3341-1.3951-.5684-2.114-.7901-.2123-.1035-.4285-.2072-.6294-.311-.1096-.0566-.2145-.0518-.3092-.0174-1.2856-.6608-2.5713-1.3216-3.8569-1.9824-.263-.1352-.5051.0464-.6059.2875-.9242-.3573-1.8439-.7294-2.7612-1.1058-.0448-.0559-.0991-.1054-.1704-.1397-1.7143-.826-3.4735-1.3602-5.2589-1.7532-.2225-.0545-.4483-.0953-.6727-.142-.9425-.4517-1.8948-.8435-2.8523-1.2072-.2435-.1139-.503-.2084-.7714-.2872-1.8048-.6619-3.6221-1.2655-5.4202-2.0394-.2161-.093-.3764.0293-.459.2162-.2571-.0945-.5093-.1995-.7731-.2818-.0324-.0101-.0622-.0049-.0931-.0055-.1595-.0708-.3191-.1416-.4786-.2124-.118-.0672-.2399-.1159-.4917-.2182-.0872-.0354-.1619-.0294-.23-.008-.3245-.0851-.6346.4376-.4339.7763zm9.259 16.5569c-.3636-.1614-.7267-.3229-1.0815-.4741-.0393-.0167-.0732-.0132-.1088-.0158-.0185-.0137-.0356-.0298-.054-.0434-.0451-.0333-.0889-.0456-.1325-.0578-.1612-.1378-.3238-.2741-.5117-.4-.0668-.0447-.1351-.0559-.2024-.054-.0331-.1601-.131-.2573-.2531-.2945-.1135-.1193-.2338-.225-.3649-.305-.1441-.2181-.2991-.4123-.4637-.5723.0064-.0637.0009-.1291-.0152-.1937.1567.1407.3212.2673.477.4104.0768.0706.1549.0882.2303.0839l1.4119.8716c.3489.3642.7026.716 1.0686 1.0447z" fill="#e5e5e5"/><path d="m14.0018 44.6186c7.2415 2.9401 14.4859 5.8966 21.6641 9.0588 6.4457 2.8395 14.454 7.3489 15.2462 16.7838.0556.6618.914.6666.858 0-.208-2.4769-.899-4.6517-1.9107-6.5715.069-.0631.1202-.1478.1499-.248.2445-.0295.4639-.2636.3557-.6203-.3631-1.1964-.8913-2.2191-1.5141-3.1532-.031-.1034-.0629-.2061-.0952-.3083.0705-.1493.0926-.3324.0152-.5044-.5079-1.1287-1.0528-2.2179-1.6439-3.2855-.2149-.3802-.6302-.2472-.7656.0547-.0296-.0546-.0664-.1064-.117-.1504-.5652-.4914-1.1036-.8557-1.7084-1.1885-.1539-.0979-.308-.1951-.4633-.2889-.2881-.2407-.5848-.4688-.8858-.6906-.3991-.3772-.7898-.7413-1.159-1.0887-.2746-.2584-.7105-.0489-.7449.3087-.3074-.1408-.62-.2663-.9306-.3977-3.5216-2.1349-7.3598-3.0978-11.2397-4.4765-4.7281-1.68-9.4426-4.188-14.3397-4.8531-.2993-.0406-.4666.3582-.4061.67-.0455-.0184-.0916-.0366-.1371-.055-.5257-.2137-.7491.7931-.228 1.0046z" fill="#fff"/><path d="m17.1202 52.1572c2.0104 1.2624 4.1392 2.2129 6.2589 3.163 2.8324 1.2697 5.6616 2.6188 8.5696 3.5735.1693.0758.3416.1511.51.227.0882.0398.1673.0299.2396.0006 1.5952.4821 3.2139.8453 4.8744.9869.552.0471.5477-.9954 0-1.0421-1.7443-.1487-3.4336-.549-5.0957-1.0819-1.4684-.8944-2.953-1.7334-4.467-2.5103-.2628-.1348-.5037.0468-.6053.2871-3.7019-1.6798-7.393-3.5321-10.6462-6.088-.3314-.2604-.6385.1224-.6246.4954-.0982-.1859-.1422-.3653-.1117-.5349.118-.6548-.7094-.9318-.8273-.277-.2888 1.6019.8962 2.1544 1.9253 2.8007z" fill="#b7b7b7"/><path d="m18.9107 59.3168c-.1831-.1742-.3971-.3086-.6229-.4264-.1115-.0726-.2281-.1362-.3506-.1932.0028-.0151.005-.0303.0101-.0454-.3899-.3372-.7173-.7252-.9091-1.2004-.2421-.5999.4977-1.1287.7409-.526.0091.0225.0235.0439.0336.0662.122-.1553.3091-.2354.5096-.1081.2184.1387.4368.2773.6552.416.1228-.0113.2396.0391.3307.1318 1.0735.6587 2.1646 1.2579 3.2687 1.8264.0363.0013.0722-.0006.111.0152 1.4311.5824 2.838 1.2238 4.2313 1.9292.0556.0281.0998.0664.1391.1079.5569.2752 1.1138.5505 1.6707.8257.057.0069.1105.0182.156.0322.0893-.0788.206-.1142.3457-.0647 2.2248.7884 4.4496 1.5768 6.6743 2.3652.3024.1072.3666.538.2301.8054.8713.13 1.7509.2147 2.6427.2377.5513.0143.5464 1.1483 0 1.0421-4.383-.8521-6.4-1.7102-10.4964-3.1317-1.8769-.6513-5.2651-1.9722-6.9693-2.9042-.6627-.3624-1.5658-.7202-2.3907-1.1937-.0034-.0027-.0074-.0045-.0107-.0072z" fill="#b7b7b7"/><path d="m53.907 83.7206c-1.2895-5.7473-2.4179-11.5453-3.628-17.3177-.5624-2.6826-1.0006-5.6628-2.1743-8.0745-1.474-3.0289-3.9658-4.5897-6.6027-5.7528-8.6194-3.802-17.7339-5.9522-26.4188-9.5564-.609-.2527-.3675-1.3609.2673-1.1776 5.5816 1.6119 11.0742 3.6691 16.5847 5.6027 4.2114 1.4778 8.9024 2.5336 12.7986 5.0651 3.4086 2.2146 4.9579 5.6084 5.8918 10.033 1.462 6.927 2.77 13.9446 4.0055 20.9358.1007.5703-.5961.8127-.7241.2424z" fill="#181b51"/><path d="m15.2543 43.069c-2.7974-.7847.716 4.6617.429 4.2683.8621 1.1819 2.0289 2.1191 3.1754 2.8416 2.0613 1.299 4.4453 2.0849 6.6193 3.0481 4.1499 1.8388 8.404 3.4861 12.4528 5.6322.5405.2865.1541 1.3427-.3977 1.1458-4.1882-1.4945-8.2766-3.5394-12.38-5.3467-2.9296-1.2903-6.1792-2.4201-8.704-4.7346-1.3315-1.2205-3.5806-4.0207-3.4325-6.3944.1125-1.803 1.1684-2.0152 2.4784-1.5202.5562.2103.3278 1.2194-.2407 1.0599z" fill="#181b51"/><path d="m16.438 50.0302c-2.7974-.7847.716 4.6617.429 4.2683.8621 1.1819 2.0289 2.119 3.1754 2.8416 2.0613 1.299 4.4453 2.0849 6.6193 3.0481 4.1499 1.8388 8.404 3.4861 12.4528 5.6323.5405.2865.1541 1.3427-.3977 1.1458-4.1882-1.4945-8.2766-3.5394-12.38-5.3467-2.9296-1.2903-6.1792-2.4201-8.704-4.7346-1.3315-1.2205-3.5806-4.0207-3.4325-6.3944.1125-1.803 1.1684-2.0152 2.4784-1.5202.5562.2102.3278 1.2193-.2407 1.0598z" fill="#181b51"/><path d="m18.7431 57.6347c-2.6327-.7387.7123 4.6068.7924 4.7066 1.0575 1.3184 2.3296 2.1235 3.6875 2.8508 2.1853 1.1703 4.4994 2.0386 6.7702 2.9304 3.8435 1.5095 8.0216 2.6998 11.5315 5.1994.4867.3466.1633 1.4105-.3977 1.1458-3.4612-1.6329-6.8989-3.1527-10.4386-4.5222-3.4387-1.3304-7.1784-2.5448-10.2132-5.0078-1.5971-1.2963-4.0492-4.091-3.9607-6.7618.061-1.8413 1.1259-2.1086 2.4692-1.601.5563.2101.3279 1.2193-.2406 1.0598z" fill="#181b51"/><path d="m38.6788 72.3866c2.2918.0407 4.8812 2.1794 6.5966 3.8543 2.2904 2.2364 4.3082 5.3135 4.9615 8.8534.1042.5645-.6013 1.0065-.8148.4172-1.137-3.1391-2.521-5.8326-4.6858-8.0987-1.9411-2.032-4.0527-2.8608-6.2048-4.3662-.2486-.174-.1428-.6651.1473-.66z" fill="#181b51"/><path d="m54.3171 81.5939c.4593 2.2636.9014 5.8631-.8608 7.4632-2.2613 2.0533-3.5718-2.3632-4.3351-4.2126-.2961-.7175.5918-1.3515.8891-.6312.4621 1.1196 1.8525 5.5403 3.1908 3.379.906-1.4632.666-3.7779.3332-5.4178-.1586-.7813.5437-1.6071.7024-.8248z" fill="#181b51"/></svg>