<svg xmlns="http://www.w3.org/2000/svg" width="111.167" height="128.417" viewBox="8.667 -8.625 111.167 128.417"><path fill="#EA9103" d="M119.744 87.5l-55.426 32-55.424-32V23.501l55.424-32 55.426 32z"/><path fill="#F4D706" d="M64.818 2.675l46 26.558v53.125l-10.427 6.02-.245.119-.124.06-.117.06-35.138 20.298-45.949-26.557V29.233z"/><g fill="#EA9103"><path d="M91.608 32.798c-2.238-.661-3.809-1.02-5.279-1.62-.533-.218-1.095-.975-1.188-1.559-.7-4.281-2.15-8.273-4.309-12.023C75.276 7.943 66.491 5.194 56.34 9.782c-6.797 3.073-10.384 8.788-12.479 15.449-4.048 12.878-2.29 25.259 4.21 36.993.328.591 1.474.949 2.273 1.021 3.396.303 6.109 2.814 6.414 6.113.344 3.727-1.664 6.608-5.212 7.477-3.387.831-6.825-.818-7.909-4.148-.469-1.439-.469-3.204-.115-4.69.294-1.234.188-2.125-.379-3.167-4.803-8.814-7.528-18.196-7.018-28.29.482-9.499 2.952-18.381 9.54-25.627C53.718 2.054 65.634-.505 75.174 4.536c6.881 3.636 11.17 9.509 13.615 16.71 1.212 3.569 1.816 7.345 2.819 11.552z"/><path d="M30.285 46.741c.52 1.885 1.086 3.462 1.331 5.088.089.592-.432 1.472-.937 1.932-4.138 3.759-7.458 8.04-8.969 13.525-3.129 11.363 4.964 22.783 16.742 23.26 17.972.729 30.756-8.033 40.239-22.568.607-.931.844-1.691.055-2.858-2.421-3.58-1.229-8.021 2.46-9.961a6.843 6.843 0 0 1 9.551 3.438c1.605 3.845-.348 7.84-4.433 9.293-.722.258-1.499.9-1.859 1.572-7.769 14.564-19.916 23.172-35.979 26.26-9.355 1.8-18.225.486-25.591-6.068-5.806-5.166-7.458-12.119-6.843-19.548.82-9.937 6.211-17.286 14.233-23.365z"/><path d="M73.034 92.737c1.63-1.297 3.026-2.557 4.582-3.57.492-.322 1.466-.173 2.119.054 5.21 1.796 10.496 2.701 15.969 1.428 11.116-2.584 17.153-13.665 13.258-24.369-3.157-8.668-9.255-14.755-17.144-19.191-7.685-4.323-15.928-6.519-24.788-6.26-1.104.034-1.769.344-2.433 1.312-2.419 3.524-6.9 4.075-10.189 1.392-2.978-2.428-3.206-7.241-.475-10.026 2.822-2.876 7.465-2.804 10.133.345.9 1.063 1.766 1.317 3.052 1.332 16.109.184 30.018 5.413 40.707 17.931 4.764 5.579 7.56 12.012 7.86 19.343.223 5.438-1.25 10.445-4.95 14.662-9.511 10.833-25.89 11.684-37.701 5.617z"/></g><g fill="#7D009B"><path d="M40.827 54.372c-1.799 0-3.464.03-5.126-.013-.732-.021-1.207-.506-1.563-1.137a540.027 540.027 0 0 0-3.499-6.115c-.532-.922-1.764-1.394-2.718-.998-.169.068-.28.471-.282.721-.021 2.16-.012 4.322-.012 6.482v1.022h-5.156V31.88c.435 0 .829-.005 1.225 0 2.781.044 5.561.071 8.339.149.612.018 1.231.176 1.826.341 3.001.834 4.66 2.652 4.906 5.336.291 3.166-1.035 5.596-3.803 6.971-.164.08-.325.166-.595.307 1.715 1.022 2.357 2.772 3.321 4.272 1.059 1.653 2.054 3.346 3.137 5.116zm-13.19-18.695c0 2.263-.006 4.357.019 6.45.001.124.267.35.408.348.996-.008 2.007.037 2.981-.125 1.707-.284 2.672-1.551 2.699-3.326.025-1.588-.785-2.77-2.323-3.054-1.201-.221-2.445-.199-3.784-.293zm43.47 18.718c-1.035 0-2.012.076-2.969-.037-.392-.045-.802-.439-1.076-.778-.22-.267-.248-.687-.401-1.159-.312.28-.54.492-.774.697-3.247 2.818-7.711 1.744-9.256-2.258-.964-2.494-1.055-5.064-.305-7.625 1.502-5.133 6.713-6.441 10.072-3.922V31.308h4.711c-.002 7.68-.002 15.331-.002 23.087zm-4.703-8.32h-.008c0-.783.002-1.565 0-2.35-.004-1.241-.319-1.662-1.502-2.01-1.657-.488-3.043.175-3.646 1.791-.632 1.697-.617 3.455-.246 5.191.508 2.383 2.72 3.092 4.637 1.547.512-.41.834-.861.778-1.578-.062-.859-.013-1.728-.013-2.591zm21.748 8.316c-1.039 0-2.016.076-2.971-.035-.388-.047-.761-.467-1.07-.783-.17-.174-.197-.486-.319-.823-.271.214-.489.392-.713.562-1.649 1.269-3.503 1.64-5.507 1.158-2.115-.505-3.676-2.381-3.789-4.813-.137-2.883-.084-5.77-.108-8.659-.008-.832-.002-1.664-.002-2.555h4.78v.917c-.002 2.997-.006 5.995-.003 8.991.003 1.467.433 2.28 1.354 2.598 1.033.353 2.836-.15 3.479-1.027.152-.207.162-.552.164-.834.01-3.212.007-6.425.007-9.637V38.44h4.696c.002 5.297.002 10.572.002 15.951z"/><path d="M44.599 47.241c-.135 2.739 2.256 4.479 4.984 3.683.666-.193 1.285-.55 1.919-.846.979-.457 1.442-.366 2.108.449.357.438.708.882 1.09 1.354-.719.989-1.695 1.599-2.775 2.028-1.954.779-3.983.975-6.04.533-3.396-.727-5.493-3.084-6.068-6.734-.59-3.747.9-7.093 3.958-8.665 2.37-1.217 4.848-1.264 7.272-.185 3.085 1.372 4.052 4.677 3.712 7.598-.076.652-.545.785-1.118.783-2.699-.008-5.398-.002-8.097-.002-.315.006-.632.004-.945.004zm5.906-2.796c-.007-1.959-1.086-3.06-2.871-3.031-1.74.028-3.029 1.339-2.955 3.031h5.826zm55.662 9.95c-1.64 0-3.13.07-4.604-.041-.461-.037-1.021-.479-1.295-.896-.832-1.259-1.545-2.599-2.308-3.899-.146-.25-.302-.492-.483-.789-.889 1.506-1.762 2.924-2.566 4.379-.494.896-1.124 1.354-2.201 1.271-1.123-.087-2.258-.021-3.525-.021.209-.35.348-.598.502-.836 1.469-2.266 2.928-4.535 4.424-6.783.313-.471.34-.797.004-1.279-1.455-2.111-2.861-4.257-4.283-6.392-.131-.194-.242-.401-.424-.702 1.709 0 3.316-.039 4.918.033.313.014.688.407.889.719.773 1.201 1.489 2.442 2.229 3.666.15.248.315.487.52.801.848-1.481 1.668-2.868 2.436-4.283.379-.701.883-1.007 1.688-.975 1.231.049 2.47.013 3.836.013-.172.302-.271.508-.396.693-1.434 2.094-2.856 4.195-4.315 6.271-.294.42-.3.704-.021 1.139 1.512 2.334 2.983 4.689 4.472 7.043.145.243.283.496.503.868z"/></g><path opacity=".13" d="M18.757 29.234v53.121l46.073 26.559 46.074-26.559V29.234L64.83 2.673 18.757 29.234zm90.282 1.08v50.97l-44.21 25.49-44.211-25.49v-50.97L64.829 4.825l44.21 25.489z"/><circle fill-rule="evenodd" clip-rule="evenodd" fill="#FFF" cx="63.375" cy="78.25" r="18.625"/><path fill-rule="evenodd" clip-rule="evenodd" fill="#F4D706" d="M75.23 69.03c-.308-.117-.536-.007-.733.258-1.174 1.578-2.358 3.146-3.538 4.718-.124.163-.215.403-.379.472l-.021.008c-.087.121-.188.23-.302.329.029.048.028.098-.044.149-.29.22-.397.566-.602.846-.262.356-.525.713-.794 1.065-.41.543-.822 1.083-1.255 1.653-.452-1.053-.888-2.063-1.322-3.072-.869-2.024-1.74-4.048-2.607-6.074-.105-.244-.263-.392-.539-.393-.291-.003-.45.152-.56.409-.815 1.91-1.637 3.816-2.456 5.724l-1.456 3.397c-.095-.108-.175-.188-.242-.278-.92-1.228-1.837-2.458-2.756-3.687-1.33-1.775-2.662-3.546-3.989-5.321-.174-.232-.398-.312-.657-.213-.267.102-.414.313-.384.614.125 1.32.249 2.639.377 3.958a.506.506 0 0 0-.072.291c.013.418.121.822.144 1.238.022.404.057.81.123 1.208.139.839.166 1.688.273 2.53a.374.374 0 0 0 .029.104c.004.071.01.143.018.214.107 1.145.218 2.288.327 3.432.132 1.404.263 2.81.402 4.214.04.409.215.557.618.565.341.005.683.009 1.024.012.849-.003 1.698-.011 2.547-.011 4.566 0 9.132.003 13.698.004 1.069 0 2.138.001 3.205-.002.44-.002.609-.139.652-.568.141-1.402.271-2.807.405-4.211.196-2.06.405-4.121.584-6.184.128-1.483.315-2.962.38-4.452.007-.13.058-.259.09-.388.05-.619.098-1.24.152-1.859.032-.306-.017-.578-.34-.699z"/></svg>