<?xml version="1.0" encoding="utf-8"?>
<!-- Generator: Adobe Illustrator 16.0.0, SVG Export Plug-In . SVG Version: 6.00 Build 0)  -->
<!DOCTYPE svg PUBLIC "-//W3C//DTD SVG 1.1//EN" "http://www.w3.org/Graphics/SVG/1.1/DTD/svg11.dtd">
<svg version="1.1" id="Layer_1" xmlns="http://www.w3.org/2000/svg" xmlns:xlink="http://www.w3.org/1999/xlink" x="0px" y="0px"
	 width="111.167px" height="128.417px" viewBox="8.667 -8.625 111.167 128.417"
	 enable-background="new 8.667 -8.625 111.167 128.417" xml:space="preserve">
<g id="Layer_14">
	<polygon fill="#EA9103" points="119.744,87.5 64.318,119.5 8.894,87.5 8.894,23.501 64.318,-8.499 119.744,23.501 	"/>
	<polygon fill="#F4D706" points="64.818,2.675 110.818,29.233 110.818,82.358 100.391,88.378 100.146,88.497 100.022,88.557 
		99.905,88.617 64.767,108.915 18.818,82.358 18.818,29.233 	"/>
	<g>
		<g>
			<path fill="#EA9103" d="M91.608,32.798c-2.238-0.661-3.809-1.02-5.279-1.62c-0.533-0.218-1.095-0.975-1.188-1.559
				c-0.7-4.281-2.15-8.273-4.309-12.023C75.276,7.943,66.491,5.194,56.34,9.782c-6.797,3.073-10.384,8.788-12.479,15.449
				c-4.048,12.878-2.29,25.259,4.21,36.993c0.328,0.591,1.474,0.949,2.273,1.021c3.396,0.303,6.109,2.814,6.414,6.113
				c0.344,3.727-1.664,6.608-5.212,7.477c-3.387,0.831-6.825-0.818-7.909-4.148c-0.469-1.439-0.469-3.204-0.115-4.69
				c0.294-1.234,0.188-2.125-0.379-3.167c-4.803-8.814-7.528-18.196-7.018-28.29c0.482-9.499,2.952-18.381,9.54-25.627
				c8.053-8.859,19.969-11.418,29.509-6.377c6.881,3.636,11.17,9.509,13.615,16.71C90.001,24.815,90.605,28.591,91.608,32.798z"/>
			<path fill="#EA9103" d="M30.285,46.741c0.52,1.885,1.086,3.462,1.331,5.088c0.089,0.592-0.432,1.472-0.937,1.932
				c-4.138,3.759-7.458,8.04-8.969,13.525c-3.129,11.363,4.964,22.783,16.742,23.26c17.972,0.729,30.756-8.033,40.239-22.568
				c0.607-0.931,0.844-1.691,0.055-2.858c-2.421-3.58-1.229-8.021,2.46-9.961c3.606-1.894,7.981-0.321,9.551,3.438
				c1.605,3.845-0.348,7.84-4.433,9.293c-0.722,0.258-1.499,0.9-1.859,1.572c-7.769,14.564-19.916,23.172-35.979,26.26
				c-9.355,1.8-18.225,0.486-25.591-6.068c-5.806-5.166-7.458-12.119-6.843-19.548C16.872,60.169,22.263,52.82,30.285,46.741z"/>
			<path fill="#EA9103" d="M73.034,92.737c1.63-1.297,3.026-2.557,4.582-3.57c0.492-0.322,1.466-0.173,2.119,0.054
				c5.21,1.796,10.496,2.701,15.969,1.428c11.116-2.584,17.153-13.665,13.258-24.369c-3.157-8.668-9.255-14.755-17.144-19.191
				c-7.685-4.323-15.928-6.519-24.788-6.26c-1.104,0.034-1.769,0.344-2.433,1.312c-2.419,3.524-6.9,4.075-10.189,1.392
				c-2.978-2.428-3.206-7.241-0.475-10.026c2.822-2.876,7.465-2.804,10.133,0.345c0.9,1.063,1.766,1.317,3.052,1.332
				c16.109,0.184,30.018,5.413,40.707,17.931c4.764,5.579,7.56,12.012,7.86,19.343c0.223,5.438-1.25,10.445-4.95,14.662
				C101.224,97.953,84.845,98.804,73.034,92.737z"/>
		</g>
	</g>
	<g>
		<g>
			<path fill="#7D009B" d="M40.827,54.372c-1.799,0-3.464,0.03-5.126-0.013c-0.732-0.021-1.207-0.506-1.563-1.137
				c-1.152-2.049-2.322-4.084-3.499-6.115c-0.532-0.922-1.764-1.394-2.718-0.998c-0.169,0.068-0.28,0.471-0.282,0.721
				c-0.021,2.16-0.012,4.322-0.012,6.482c0,0.319,0,0.643,0,1.022c-1.744,0-3.426,0-5.156,0c0-7.47,0-14.91,0-22.454
				c0.435,0,0.829-0.005,1.225,0c2.781,0.044,5.561,0.071,8.339,0.149c0.612,0.018,1.231,0.176,1.826,0.341
				c3.001,0.834,4.66,2.652,4.906,5.336c0.291,3.166-1.035,5.596-3.803,6.971c-0.164,0.08-0.325,0.166-0.595,0.307
				c1.715,1.022,2.357,2.772,3.321,4.272C38.749,50.909,39.744,52.602,40.827,54.372z M27.637,35.677
				c0,2.263-0.006,4.357,0.019,6.45c0.001,0.124,0.267,0.35,0.408,0.348c0.996-0.008,2.007,0.037,2.981-0.125
				c1.707-0.284,2.672-1.551,2.699-3.326c0.025-1.588-0.785-2.77-2.323-3.054C30.22,35.749,28.976,35.771,27.637,35.677z"/>
			<path fill="#7D009B" d="M71.107,54.395c-1.035,0-2.012,0.076-2.969-0.037c-0.392-0.045-0.802-0.439-1.076-0.778
				c-0.22-0.267-0.248-0.687-0.401-1.159c-0.312,0.28-0.54,0.492-0.774,0.697c-3.247,2.818-7.711,1.744-9.256-2.258
				c-0.964-2.494-1.055-5.064-0.305-7.625c1.502-5.133,6.713-6.441,10.072-3.922c0-1.406,0-2.709,0-4.012c0-1.315,0-2.631,0-3.993
				c1.613,0,3.137,0,4.711,0C71.107,38.988,71.107,46.639,71.107,54.395z M66.404,46.075c-0.002,0-0.006,0-0.008,0
				c0-0.783,0.002-1.565,0-2.35c-0.004-1.241-0.319-1.662-1.502-2.01c-1.657-0.488-3.043,0.175-3.646,1.791
				c-0.632,1.697-0.617,3.455-0.246,5.191c0.508,2.383,2.72,3.092,4.637,1.547c0.512-0.41,0.834-0.861,0.778-1.578
				C66.355,47.807,66.404,46.938,66.404,46.075z"/>
			<path fill="#7D009B" d="M88.152,54.391c-1.039,0-2.016,0.076-2.971-0.035c-0.388-0.047-0.761-0.467-1.07-0.783
				c-0.17-0.174-0.197-0.486-0.319-0.823c-0.271,0.214-0.489,0.392-0.713,0.562c-1.649,1.269-3.503,1.64-5.507,1.158
				c-2.115-0.505-3.676-2.381-3.789-4.813c-0.137-2.883-0.084-5.77-0.108-8.659c-0.008-0.832-0.002-1.664-0.002-2.555
				c1.599,0,3.119,0,4.78,0c0,0.299,0,0.608,0,0.917c-0.002,2.997-0.006,5.995-0.003,8.991c0.003,1.467,0.433,2.28,1.354,2.598
				c1.033,0.353,2.836-0.15,3.479-1.027c0.152-0.207,0.162-0.552,0.164-0.834c0.01-3.212,0.007-6.425,0.007-9.637
				c0-0.32,0-0.639,0-1.011c1.599,0,3.12,0,4.696,0C88.152,43.737,88.152,49.012,88.152,54.391z"/>
			<path fill="#7D009B" d="M44.599,47.241c-0.135,2.739,2.256,4.479,4.984,3.683c0.666-0.193,1.285-0.55,1.919-0.846
				c0.979-0.457,1.442-0.366,2.108,0.449c0.357,0.438,0.708,0.882,1.09,1.354c-0.719,0.989-1.695,1.599-2.775,2.028
				c-1.954,0.779-3.983,0.975-6.04,0.533c-3.396-0.727-5.493-3.084-6.068-6.734c-0.59-3.747,0.9-7.093,3.958-8.665
				c2.37-1.217,4.848-1.264,7.272-0.185c3.085,1.372,4.052,4.677,3.712,7.598c-0.076,0.652-0.545,0.785-1.118,0.783
				c-2.699-0.008-5.398-0.002-8.097-0.002C45.229,47.243,44.912,47.241,44.599,47.241z M50.505,44.445
				c-0.007-1.959-1.086-3.06-2.871-3.031c-1.74,0.028-3.029,1.339-2.955,3.031C46.604,44.445,48.53,44.445,50.505,44.445z"/>
			<path fill="#7D009B" d="M106.167,54.395c-1.64,0-3.13,0.07-4.604-0.041c-0.461-0.037-1.021-0.479-1.295-0.896
				c-0.832-1.259-1.545-2.599-2.308-3.899c-0.146-0.25-0.302-0.492-0.483-0.789c-0.889,1.506-1.762,2.924-2.566,4.379
				c-0.494,0.896-1.124,1.354-2.201,1.271c-1.123-0.087-2.258-0.021-3.525-0.021c0.209-0.35,0.348-0.598,0.502-0.836
				c1.469-2.266,2.928-4.535,4.424-6.783c0.313-0.471,0.34-0.797,0.004-1.279c-1.455-2.111-2.861-4.257-4.283-6.392
				c-0.131-0.194-0.242-0.401-0.424-0.702c1.709,0,3.316-0.039,4.918,0.033c0.313,0.014,0.688,0.407,0.889,0.719
				c0.773,1.201,1.489,2.442,2.229,3.666c0.15,0.248,0.315,0.487,0.52,0.801c0.848-1.481,1.668-2.868,2.436-4.283
				c0.379-0.701,0.883-1.007,1.688-0.975c1.231,0.049,2.47,0.013,3.836,0.013c-0.172,0.302-0.271,0.508-0.396,0.693
				c-1.434,2.094-2.856,4.195-4.315,6.271c-0.294,0.42-0.3,0.704-0.021,1.139c1.512,2.334,2.983,4.689,4.472,7.043
				C105.809,53.77,105.947,54.023,106.167,54.395z"/>
		</g>
	</g>
</g>
<g id="Layer_2">
	<g id="Layer_16_1_">
		<path opacity="0.13" enable-background="new    " d="M18.757,29.234v53.121l46.073,26.559l46.074-26.559V29.234L64.83,2.673
			L18.757,29.234z M109.039,30.314v50.97l-44.21,25.49l-44.211-25.49v-50.97L64.829,4.825L109.039,30.314z"/>
	</g>
</g>
<circle fill-rule="evenodd" clip-rule="evenodd" fill="#FFFFFF" cx="63.375" cy="78.25" r="18.625"/>
<path fill-rule="evenodd" clip-rule="evenodd" fill="#F4D706" d="M75.23,69.03c-0.308-0.117-0.536-0.007-0.733,0.258
	c-1.174,1.578-2.358,3.146-3.538,4.718c-0.124,0.163-0.215,0.403-0.379,0.472c-0.006,0.003-0.013,0.005-0.021,0.008
	c-0.087,0.121-0.188,0.23-0.302,0.329c0.029,0.048,0.028,0.098-0.044,0.149c-0.29,0.22-0.397,0.566-0.602,0.846
	c-0.262,0.356-0.525,0.713-0.794,1.065c-0.41,0.543-0.822,1.083-1.255,1.653c-0.452-1.053-0.888-2.063-1.322-3.072
	c-0.869-2.024-1.74-4.048-2.607-6.074c-0.105-0.244-0.263-0.392-0.539-0.393c-0.291-0.003-0.45,0.152-0.56,0.409
	c-0.815,1.91-1.637,3.816-2.456,5.724c-0.482,1.123-0.963,2.246-1.456,3.397c-0.095-0.108-0.175-0.188-0.242-0.278
	c-0.92-1.228-1.837-2.458-2.756-3.687c-1.33-1.775-2.662-3.546-3.989-5.321c-0.174-0.232-0.398-0.312-0.657-0.213
	c-0.267,0.102-0.414,0.313-0.384,0.614c0.125,1.32,0.249,2.639,0.377,3.958c-0.048,0.076-0.076,0.174-0.072,0.291
	c0.013,0.418,0.121,0.822,0.144,1.238c0.022,0.404,0.057,0.81,0.123,1.208c0.139,0.839,0.166,1.688,0.273,2.53
	c0.004,0.036,0.015,0.071,0.029,0.104c0.004,0.071,0.01,0.143,0.018,0.214c0.107,1.145,0.218,2.288,0.327,3.432
	c0.132,1.404,0.263,2.81,0.402,4.214c0.04,0.409,0.215,0.557,0.618,0.565c0.341,0.005,0.683,0.009,1.024,0.012
	c0.849-0.003,1.698-0.011,2.547-0.011c4.566,0,9.132,0.003,13.698,0.004c1.069,0,2.138,0.001,3.205-0.002
	c0.44-0.002,0.609-0.139,0.652-0.568c0.141-1.402,0.271-2.807,0.405-4.211c0.196-2.06,0.405-4.121,0.584-6.184
	c0.128-1.483,0.315-2.962,0.38-4.452c0.007-0.13,0.058-0.259,0.09-0.388c0.05-0.619,0.098-1.24,0.152-1.859
	C75.602,69.423,75.553,69.151,75.23,69.03z"/>
</svg>
