<?xml version="1.0" encoding="utf-8"?>
<!-- Generator: Adobe Illustrator 16.0.0, SVG Export Plug-In . SVG Version: 6.00 Build 0)  -->
<!DOCTYPE svg PUBLIC "-//W3C//DTD SVG 1.1//EN" "http://www.w3.org/Graphics/SVG/1.1/DTD/svg11.dtd">
<svg version="1.1" id="Layer_1" xmlns="http://www.w3.org/2000/svg" xmlns:xlink="http://www.w3.org/1999/xlink" x="0px" y="0px"
	 width="128px" height="111px" viewBox="0 0 128 111" enable-background="new 0 0 128 111" xml:space="preserve">
<g id="Layer_14">
	<polygon fill="#EA9103" points="32.319,110.926 0.319,55.5 32.319,0.075 96.318,0.075 128.318,55.5 96.318,110.926 	"/>
	<polygon fill="#F4D706" points="117.145,56 90.586,102 37.461,102 31.441,91.572 31.322,91.327 31.262,91.204 31.202,91.087 
		10.904,55.949 37.461,10 90.586,10 	"/>
	<g>
		<g>
			<path fill="#EA9103" d="M87.961,36.417c-2.051-0.607-3.49-0.935-4.839-1.485c-0.489-0.2-1.004-0.894-1.091-1.429
				c-0.641-3.925-1.971-7.585-3.948-11.022c-5.095-8.85-13.147-11.37-22.454-7.164c-6.232,2.817-9.52,8.056-11.44,14.163
				c-3.712,11.806-2.099,23.156,3.86,33.915c0.3,0.541,1.351,0.869,2.084,0.935c3.113,0.278,5.6,2.579,5.879,5.604
				c0.315,3.416-1.525,6.058-4.778,6.854c-3.105,0.762-6.257-0.75-7.251-3.803c-0.43-1.32-0.43-2.938-0.105-4.299
				c0.27-1.134,0.173-1.949-0.347-2.904C39.127,57.7,36.629,49.1,37.097,39.846c0.442-8.708,2.706-16.851,8.745-23.493
				c7.383-8.122,18.307-10.468,27.053-5.847c6.307,3.333,10.24,8.717,12.482,15.319C86.488,29.098,87.042,32.56,87.961,36.417z"/>
			<path fill="#EA9103" d="M31.743,49.199c0.476,1.728,0.996,3.174,1.22,4.665c0.082,0.543-0.396,1.349-0.859,1.77
				c-3.793,3.447-6.837,7.372-8.223,12.4c-2.869,10.417,4.551,20.886,15.348,21.323c16.476,0.668,28.197-7.365,36.89-20.689
				c0.557-0.854,0.773-1.55,0.05-2.62c-2.22-3.282-1.126-7.354,2.256-9.132c3.306-1.737,7.316-0.294,8.755,3.15
				c1.473,3.525-0.318,7.188-4.063,8.521c-0.663,0.236-1.376,0.824-1.705,1.44C74.29,83.379,63.154,91.271,48.427,94.102
				c-8.576,1.649-16.707,0.445-23.46-5.564c-5.323-4.736-6.837-11.11-6.273-17.92C19.447,61.51,24.388,54.772,31.743,49.199z"/>
			<path fill="#EA9103" d="M70.934,91.367c1.494-1.19,2.774-2.344,4.2-3.274c0.452-0.295,1.345-0.157,1.942,0.05
				c4.777,1.646,9.623,2.476,14.641,1.309c10.19-2.369,15.725-12.528,12.153-22.34c-2.894-7.947-8.483-13.528-15.716-17.595
				c-7.045-3.963-14.602-5.975-22.725-5.738c-1.012,0.03-1.622,0.315-2.23,1.202c-2.217,3.231-6.325,3.736-9.341,1.276
				c-2.73-2.226-2.939-6.639-0.435-9.192c2.587-2.637,6.844-2.571,9.29,0.317c0.825,0.974,1.619,1.207,2.799,1.22
				c14.768,0.169,27.518,4.963,37.317,16.438c4.368,5.115,6.931,11.013,7.207,17.734c0.204,4.986-1.146,9.576-4.538,13.441
				C96.777,96.148,81.762,96.928,70.934,91.367z"/>
		</g>
	</g>
	<g>
		<g>
			<path fill="#7D009B" d="M40.827,66.372c-1.799,0-3.464,0.03-5.126-0.013c-0.732-0.02-1.207-0.506-1.563-1.137
				c-1.152-2.048-2.322-4.084-3.499-6.115c-0.532-0.922-1.764-1.393-2.718-0.998c-0.169,0.068-0.28,0.471-0.282,0.721
				c-0.021,2.16-0.012,4.322-0.012,6.482c0,0.32,0,0.643,0,1.023c-1.744,0-3.426,0-5.156,0c0-7.47,0-14.91,0-22.454
				c0.435,0,0.829-0.005,1.225,0c2.781,0.044,5.561,0.071,8.339,0.149c0.612,0.018,1.231,0.176,1.826,0.341
				c3.001,0.834,4.66,2.652,4.906,5.336c0.291,3.166-1.035,5.596-3.803,6.97c-0.164,0.081-0.325,0.166-0.595,0.307
				c1.715,1.023,2.357,2.773,3.321,4.273C38.749,62.909,39.744,64.602,40.827,66.372z M27.637,47.677
				c0,2.263-0.006,4.357,0.019,6.45c0.001,0.124,0.267,0.35,0.408,0.348c0.996-0.008,2.007,0.037,2.981-0.125
				c1.707-0.284,2.672-1.551,2.699-3.326c0.025-1.588-0.785-2.77-2.323-3.054C30.22,47.749,28.976,47.771,27.637,47.677z"/>
			<path fill="#7D009B" d="M71.107,66.395c-1.035,0-2.012,0.076-2.969-0.037c-0.391-0.045-0.801-0.44-1.076-0.779
				c-0.219-0.266-0.248-0.686-0.401-1.159c-0.312,0.28-0.54,0.492-0.774,0.697c-3.247,2.819-7.711,1.745-9.256-2.257
				c-0.964-2.494-1.055-5.065-0.305-7.626c1.502-5.133,6.713-6.441,10.072-3.922c0-1.406,0-2.709,0-4.012c0-1.315,0-2.631,0-3.993
				c1.613,0,3.137,0,4.711,0C71.107,50.988,71.107,58.639,71.107,66.395z M66.404,58.075c-0.002,0-0.006,0-0.008,0
				c0-0.783,0.002-1.566,0-2.35c-0.004-1.241-0.319-1.662-1.502-2.01c-1.656-0.488-3.043,0.175-3.646,1.791
				c-0.632,1.697-0.617,3.455-0.246,5.192c0.508,2.382,2.72,3.091,4.637,1.546c0.512-0.41,0.834-0.861,0.778-1.578
				C66.355,59.807,66.404,58.938,66.404,58.075z"/>
			<path fill="#7D009B" d="M88.152,66.391c-1.039,0-2.016,0.076-2.971-0.035c-0.387-0.047-0.76-0.467-1.07-0.783
				c-0.17-0.174-0.197-0.487-0.319-0.824c-0.271,0.214-0.489,0.391-0.713,0.561c-1.649,1.269-3.503,1.64-5.507,1.159
				c-2.115-0.505-3.676-2.381-3.789-4.812c-0.137-2.883-0.084-5.771-0.108-8.66c-0.008-0.832-0.002-1.664-0.002-2.555
				c1.599,0,3.119,0,4.78,0c0,0.299,0,0.608,0,0.917c-0.002,2.997-0.006,5.994-0.003,8.99c0.003,1.467,0.433,2.281,1.354,2.598
				c1.034,0.353,2.836-0.15,3.479-1.027c0.152-0.207,0.162-0.552,0.164-0.834c0.01-3.212,0.007-6.425,0.007-9.637
				c0-0.32,0-0.639,0-1.011c1.599,0,3.12,0,4.696,0C88.152,55.737,88.152,61.012,88.152,66.391z"/>
			<path fill="#7D009B" d="M44.599,59.241c-0.135,2.739,2.256,4.479,4.984,3.683c0.666-0.193,1.285-0.55,1.919-0.846
				c0.979-0.457,1.442-0.366,2.108,0.449c0.357,0.438,0.708,0.882,1.09,1.355c-0.719,0.989-1.695,1.598-2.775,2.028
				c-1.954,0.78-3.983,0.974-6.04,0.534c-3.396-0.727-5.493-3.084-6.068-6.735c-0.59-3.747,0.9-7.093,3.958-8.665
				c2.37-1.217,4.848-1.264,7.272-0.185c3.085,1.372,4.052,4.677,3.712,7.598c-0.076,0.653-0.545,0.785-1.118,0.784
				c-2.699-0.008-5.398-0.003-8.097-0.002C45.229,59.243,44.912,59.241,44.599,59.241z M50.505,56.445
				c-0.007-1.959-1.086-3.06-2.871-3.031c-1.74,0.028-3.029,1.339-2.955,3.031C46.604,56.445,48.53,56.445,50.505,56.445z"/>
			<path fill="#7D009B" d="M106.167,66.395c-1.64,0-3.13,0.07-4.604-0.041c-0.461-0.037-1.021-0.479-1.295-0.896
				c-0.832-1.259-1.545-2.598-2.308-3.9c-0.146-0.25-0.302-0.492-0.483-0.789c-0.889,1.506-1.762,2.924-2.567,4.379
				c-0.494,0.896-1.124,1.354-2.201,1.271c-1.123-0.087-2.258-0.02-3.526-0.02c0.209-0.35,0.348-0.598,0.502-0.836
				c1.469-2.266,2.928-4.535,4.424-6.783c0.313-0.471,0.34-0.797,0.004-1.28c-1.455-2.111-2.861-4.257-4.283-6.392
				c-0.131-0.194-0.242-0.401-0.424-0.702c1.709,0,3.316-0.039,4.918,0.033c0.312,0.014,0.688,0.407,0.889,0.719
				c0.773,1.201,1.489,2.442,2.229,3.666c0.15,0.248,0.315,0.487,0.519,0.801c0.847-1.481,1.668-2.868,2.435-4.283
				c0.379-0.701,0.883-1.007,1.689-0.975c1.232,0.049,2.469,0.013,3.836,0.013c-0.172,0.302-0.27,0.508-0.396,0.693
				c-1.433,2.094-2.856,4.195-4.315,6.271c-0.294,0.419-0.3,0.704-0.021,1.138c1.512,2.334,2.984,4.69,4.472,7.043
				C105.809,65.77,105.947,66.023,106.167,66.395z"/>
		</g>
	</g>
</g>
</svg>
