<svg enable-background="new 0 0 110.9 128" viewBox="0 0 110.9 128" xmlns="http://www.w3.org/2000/svg" xmlns:xlink="http://www.w3.org/1999/xlink"><clipPath id="a"><path d="m38.63277 50.9851h9.208v15.8047h-9.208z"/></clipPath><clipPath id="b"><path d="m29.54098 72.0173h5.877v9.7676h-5.877z"/></clipPath><clipPath id="c"><path d="m75.62308 62.0867h5.3711v3.6474h-5.3711z"/></clipPath><clipPath id="d"><path d="m52.08197 68.6599h1.294v1.7598h-1.294z"/></clipPath><clipPath id="e"><path d="m61.10938 66.3464h15.65819v6.0538h-15.65819z"/></clipPath><clipPath id="f"><path d="m78.53417 66.0506h1.1406v.1572h-1.1406z"/></clipPath><clipPath id="g"><path d="m63.48438 58.4812h3.4707v1.6699h-3.4707z"/></clipPath><clipPath id="h"><path d="m46.82618 52.0867h1.8857v1.6338h-1.8857z"/></clipPath><clipPath id="i"><path d="m50.54588 67.447h1.9922v1.6368h-1.9922z"/></clipPath><clipPath id="j"><path d="m50.39056 65.572h1.47461v1.2061h-1.47461z"/></clipPath><clipPath id="k"><path d="m64.48627 45.2722h14.9688v11.8672h-14.9688z"/></clipPath><clipPath id="l"><path d="m51.88478 42.3718h1.50579v2.3887h-1.50579z"/></clipPath><clipPath id="m"><path d="m57.43748 42.5506h.961v2.2441h-.961z"/></clipPath><clipPath id="n"><path d="m47.89256 43.4754h1.70121v2.1103h-1.70121z"/></clipPath><clipPath id="o"><path d="m48.31448 47.5359h5.7539v10.7559h-5.7539z"/></clipPath><clipPath id="p"><path d="m56.44728 61.7586h2.5918v1.6425h-2.5918z"/></clipPath><clipPath id="q"><path d="m47.57618 58.2888h.8779v1.5498h-.8779z"/></clipPath><clipPath id="r"><path d="m47.83788 59.5554h.4004v.2832h-.4004z"/></clipPath><clipPath id="s"><path d="m62.79007 32.6082h2.6084v15.3349h-2.6084z"/></clipPath><clipPath id="t"><path d="m46.45898 73.7898h22.5459v15.9854h-22.5459z"/></clipPath><clipPath id="u"><path d="m44.62207 37.8504h45.5137v60.0878h-45.5137z"/></clipPath><clipPath id="v"><path d="m44.62207 37.8504h45.5137v60.0878h-45.5137z"/></clipPath><clipPath id="w"><path d="m44.62207 37.8504h45.5137v60.0878h-45.5137z"/></clipPath><clipPath id="x"><path d="m30.13768 60.8631h14.4414v21.0341h-14.4414z"/></clipPath><clipPath id="y"><path d="m36.15038 82.3386h3.252v8.9961h-3.252z"/></clipPath><clipPath id="z"><path d="m48.44138 70.9627h20.11919v5.6582h-20.11919z"/></clipPath><clipPath id="A"><path d="m43.23828 80.1502h9.2832v5.4052h-9.2832z"/></clipPath><path d="m110.86202 95.99075-55.42669 31.9995-55.4234-31.9995v-64l55.4234-32 55.42669 32z" fill="#b339b7"/><path d="m9.30856 37.615.02742 6.5293.0683 16.4375.041 8.4492.0215 5.8135.0117 3.0205.0098 1.0801v.4892l.0518 11.3164.0117.01369.6826.3906.75.4092 4.1601 2.3809.1963.1094 1.1211.6455.8116.4599 1.41009.8008.72071.4092.6016.3408.2392.1338.1319.0498.1074.0664 2.1474 1.2236.6475.37019.23829.1406.16991.1006.0147.0136.3379.1875.3007.17.6602.3701.3935.22169.03909.02831.72071.4101v.0098l.5215.29.4512.25.0215.0215h.0078l1.2285.71.3086.1806.24018.1426.63091.3672 1.2715.7256.121.0645.0801.0546.4063.2286.03119.0097.15722.0928v.0117l.7793.4483.1797.0927.0205.0196.0391.0214.9004.5196.1074.0508.0908.0537.0694.04.1308.07719.0498.02831.3018.1699.0215.0117.0918.0537.1582.0889h.0137l.0214.0107.6875.40919 1.01368.5801.44732.25v.0107l1.4209.8008.1093.06841.4317.2412 1.0615.6191.1475.0801.63178.34959.06252.0303 1.22849.7109 1.75 1 .53032.3096.51068.29.31062.1817.8525.4785.3135.18159.041.0284 1.0098.5703 1.0195.58.0117.0098.3018.1699.1318.0801.2285.12991 1.0215.58009 1 .5703 1.0391.5908.25.1397.2109.1191 1.0137.5908.9687.5401.5625.3203h.0098l.3203.1884.4785.2784 1.42-.8291.7617-.4493.0801-.04.0273-.0107.24018-.1397 1.5-.8808.18951-.1104.541-.3184 2.2793-1.3291.3496-.1972.1602-.0928.041-.03999.2793-.1573.12109-.0703.959-.54881.69921-.41109.1015-.0625 2.5-1.46001.0098-.0117.93069-.5391.3896-.2392.20119-.10751.00981-.0097h.0107l.27048-.1592.11911-.0703.8106-.4785.6904-.3936.8897-.5117.1718-.10841.3799-.22169 1.02049-.5996 1.69931-.9902.6503-.3789.0391-.0313.2285-.12991.38279-.2197.19731-.1191.29-.1709.1885-.1104.1416-.08981.0098-.0098.0703-.04 1.77048-1.0215.02051-.0108.5498-.3183.7901-.46.1298-.0801.0303-.0214.46001-.2598.28999-.1846.75-.4375 1.7598-1.0312 2.0801-1.21.8193-.4697.0908-.0537.1182-.0664.3115-.1836.0703-.0401.0098-.0107.2099-.1201h.0079l.0097-.0098 1.0196-.60249c-.003-.0166-.003-.0166.0068-.0166l.0517-.0254.67972-.39934 1.1299-.66019 1.02049-.58981 2.10161-1.2403.289-.1699s.0118 0 .0215-.0098l.2793-.1601.03909-.0205.0107-.0137.2295-.1309.459-.27531h.0108l2.5283-1.4805 3.2705-1.8984.22169-.1319.08-.039.02741-.0206-.04881-11.2392-.0528-11.6201-.04881-11.3399-.01079-1.7002-.0693-17.2353-.9307-.5391-3.6904-2.1045-9.75-5.5654-1.9873-1.1504-.10251-.0615-.75979-.4385-.7197-.3896-.7002-.4004-2.6602-1.5205-1.5898-.9073-.1699-.0927-1.5215-.8584-.1074-.0625-.0303-.0215-.7598-.4395-.0205-.0097-.3906-.2207-.2197-.1299-.22169-.1289-1.1006-.6455-.5205-.3008-1.30081-.7285-.99019-.5616-.6895-.4101-1.3984-.7901h-.0108l-.0507-.0254-.0616-.039-1.8789-1.0635-.5293-.3105-1.8603-1.0635c0-.0108-.0098-.0108-.0098-.0108l-.22952-.1298-.29979-.17-.8711-.5-.1885-.1035-.2705-.1592-.1084-.0615-.01171-.0107-2.93058-1.6826-3.02842-1.7373-1.45108-.8194-1.04892.6192-5.60928 3.2773h-.0118l-.8173.4795-.0411.0205-.1494.0928-.5107.2998-1.9307 1.1201-1.0615.6201-3.8428 2.2373-6.1035 3.5528-.8965.5263-1.039.6094-.8809.5-.6191.3691-.0918.0508-.2227.1309-.4785.2715-.8672.5-.9219.5605h-.0214l-.5782.3301-1.3593.8008-.2286.1299-.5693.33-.0889.0635-1.3418.7783-.2216.1319h-.0108l-.0918.0605-.1474.0801-.461.2715-1.1806.6875-2.129 1.2392-.041.0274v.0127l-.2617.1406-.4785.29-.1699.1026-1.459.8515-.7227.4102-1.2089.71-.7793.4501-.4375.25-.1319.0782-1.8096 1.0517-2.6035 1.5205z" fill="#835699"/><path d="m9.40818 75.1082v.33l.0108 2.0303v1.6299l.0302 4.7197.0391 6.9297.0508.0303 5.1504 2.9297.0097.0107.90038.5098.459.2598.02052.0302.52048.2998h.02932l.1299.0801.0801.0195.2295.1602.8603.4902.0108.0098.2392.1299.2998.1806 1.58008.8995.09962.0605.0703.04.1309.0694.1699.1006 2.4199 1.3896.2998.1699.25.1407.0098.0097.25.1299v.0098l.09078.04.43952.25.06048.0401.459.2597 2.80082 1.6006.3301.1895.36908.2002.09962.0605.0908.0498.2393.1494.3809.21 1.0293.6103.291.1602.5693.3203.2295.1299.2402.1396.6309.3604.00979.0097.12981.0704.58009.33.2197.1192 2.5303 1.4502.6904.4004.4795.2695.1202.0605.00971.0196.5293.2802.7012.4004.16009.0996 1.36921.7803.41009.2197.17971.1104.25.1396.9004.5196.0996.0605.35059.21.75.4199.12991.0596.2305.1406.0488.0195.27049.17.12991.0605.61029.3594.3194.1806.16991.0899 1.4609.8496.07029.04.64951.3604.9404.5303.00979.0097.3896.2295.19041.1104 2.4102 1.3701.18939.0996.58991.3301 1.7402 1 1.84959 1.0703.1407.0801.55951.3095.2295-.1298.41019-.25.1806-.1104 3.0098-1.75.04-.0195.0303-.0098.0401-.0205.23039-.1397.209-.1298.24021-.1602.2803-.1504.1494-.0801.5303-.3095.14941-.0801.75-.4297v-.0098l1.14059-.6601.08011-.0508.3301-.1895.16019-.08.4296-.2598.09971-.0605.2304-.1397.8496-.5h.00979l1.39061-.7998.4903-.29 6.43938-3.75.67971-.4102.041-.0205 1.2891-.75 2.9804-1.7393.3799-.2207h.01081l.1894-.1093.42968-.2598 2.09961-1.21 3.3506-1.9609.6104-.3496.5595-.3301.49031-.2695 1.20019-.71.85931-.4902.25-.1504 1.58008-.9199.98052-.5899h.01948l.06061-.0195.0595-.0508.51081-.2998h.039l2.33008-1.3594 2.52051-1.4804.36041-.21.539-.3096.0606-.0302.38959-.2403 2.9004-1.6904.04981-.0293-.04981-11.2402v-.6104l-.02051-3.3896z" fill="#63397c"/><path d="m65.49898 18.8982.17.0899v-.0899zm0 0 .17.0899v-.0899zm0 0 .17.0899v-.0899zm-56.2568 18.7461.0605 13.04.0508 11.4297.0205 4.21.0098 2.6601.0205 1.9297v2.2305l.0108.1797v2.11031l.0097 2.0303v1.6299l.0303 4.7197.04 6.9297.0498.0303 5.1504 2.9297.0098.0117.8984.5098.461.2597.0205.0303.5205.2998h.0293l.13078.0801.07911.0195.2295.16019.85938.4902.01171.0098.23829.12981.30082.18169 1.5801.8984.1006.0615.0693.0401.1308.06831.17.10159 2.4199 1.3897.2998.1699.25.1416.01069.0097.25.1299v.0098l.08991.04.4394.25.0606.0401.459.2597 2.8007 1.60159.3301.18851.3692.2002.1015.0615.0899.0498.2402.14841.3799.21 1.0303.6104.289.1601.57029.3203.22951.1299.2393.1397.6308.3603.0098.0098.1299.0703.5801.3291.2197.1191 2.5303 1.4502.6885.4004.4804.2695.1201.0616.0098.0195.5303.2803.6992.3994.1602.1006 1.36909.7802.41011.2198.1797.1103.25.1397.9004.5195.0996.0615.3516.21.75.4199.1299.0596.2295.1416.0508.01949.2695.16991.1308.0616.6094.3584.3203.1816.17.0898 1.4599.8496.0694.0401.6494.3603.9404.5303.0098.0098.3906.2285.1894.1103 2.4102 1.3702.1885.0996.59079.32999 1.73921 1 1.8506 1.0704.1397.08.5596.30959.2304-.1299.4102-.25.1797-.1103 3.0097-1.75.0401-.0196.0302-.0097.0401-.0215.22949-.1397.21091-.1298.2393-.1602.2802-.1504.1504-.0801.5293-.3095.1504-.0801.75-.4297v-.0107l1.1397-.6592.08-.0518.3301-.1885.1602-.08.4297-.2598.1006-.06149.2294-.1397.8506-.5h.0098l1.3896-.7998.4903-.28999 6.4404-3.75.6797-.4102.0391-.0215 1.291-.75 2.9795-1.7382.3799-.22169h.0097l.1904-.1084.4307-.2608 2.09959-1.2099 3.3496-1.961.6104-.3496.55959-.33.4902-.2696 1.2002-.7099.8603-.4903.25-.15041 1.5801-.9199.9795-.5898h.0205l.0596-.0205.05959-.0508.5097-.2998h.041l2.3301-1.3594 2.5195-1.4795.3594-.2099.541-.3106.0596-.0293.38969-.2402 2.90031-1.6905.0498-.02831-.0498-11.2402v-.6104l-.0195-3.3896v-.5303l-.0312-3.6601-.0391-10.6289v-.7598l-.0195-5.7598v-.5l-.041-6.5302-.0293-9.5098-.05081-.0303-.25-.1299-1.89939-1.08-.1709-.1104-7.4688-4.25h-.0107l-3.5694-2.0596-1.4306-.8095-.2901-.1602-.3496-.21-4.2803-2.4306-1.1494-.6602-.1806-.0996-1.70021-.9795-1.83989-1.04-4.1504-2.3701-2.3691-1.3506-.4502-.2696-.2607-.1503-.2989-.17-.1406-.0703-.1601-.0898-.2999-.1699-.3095-.17-.5801-.3398-.0703-.04-4.07031-2.3204-.5-.29-1.29979-.7393-.0694-.04-.6211-.3506-3.4199-1.9502-.959-.5498-1.5302-.8701-1.4903.8701-3.2802 1.9199-.9493.5508-.9306.5401-.7901.4492-2.11911 1.2402-.96089.5606-.4698.2695-1.4697.8496-1.2803.75-.29.1904-.7197.3897-.1602.1103-.71.4004-3.6406 2.1397-.6406.3603-.7998.46v.0195l-.6299.3701-.25.1397-.2402.1299-.6797.4004-.1504.0996-.7793.4404-.2295.1396-.8701.5-.2285.1299-.1416.0908-1.7598 1.0196-.7998.4697-.5508.3105-1.25.7295-.6699.3907-.2295.1396-1.04.6104-1.1407.6699-3.4892 2.0195-.0401.0205-.08.0498-.5996.3604-1.7911 1.0293-.4394.2705-.1094.0498-1.2705.7402h-.0107l-.89072.5196-.60928.3603-.2705.1602-.0791.0498-.1309.08-.4297.25-.1601.0801-.0606.0196-.1006.0703-.3096.1797-2.5507 1.5-.0293.0205-.06061.0293-.05079.0302zm2.0615 37.8135v-.8584l-.0097-1.0498v-.6016l-.0303-1.87009v-.1397l-.0098-2.3203-.0097-2.2695-.0215-6.04v-.0205l-.03911-6.5v-3.4395l-.07028-11.6201 1.5-.8701.4004-.2403.039-.0195.4405-.25.6201-.3701.5-.2901.02928-.0205.27052-.1494.2002-.1201.5801-.3301.7285-.4297.1299-.0703.33-.2002.0401-.0195.1299-.0703.0107-.0098 1.3106-.7597.29-.1602.2393-.1406.4394-.2598.71-.4101.1201-.0694 2.0508-1.2002.1191-.0703.0303-.0195.6006-.3506 2.8398-1.6602 1.6602-.9599.9492-.5596h.0098l.46088-.2705.18941-.1094.96-.5703.7295-.4199 1.9199-1.1299.6807-.3896.1592-.0909.35928-.2295.39072-.2197 2.9394-1.7099.2598-.1504.041-.0205.2705-.17.3193-.1699.2911-.1797.2793-.1699.8994-.5205.79-.46.75-.4296.3399-.1905.9003-.5293.5098-.2998.2598-.1504 1.7304-1 .52929-.3095.27932-.1709 2.6202-1.5196.2597-.1504 1.8701-1.0996.1895-.0996 4.6006-2.6806 1.1201.6298 1.0996.6299.8008.4502 2.8896 1.6504.6104.3496.0596.0401 1.8193 1.0302.8506.5.29.1602.31059.1699.43941.25.1699.0899.2998.1699.7002.4199 2.2998 1.2998 9.6006 5.4805.0391.0195 1.8808 1.0801.3692.2002.3008.1699 4.7695 2.7402.21089.1201.54891.3096 2.1103 1.2002.3701.2002 6.47069 3.7002.709.4102 1.461.8291 1.19921.6806.5303.2998.02048 7.1504.039 7.7998v.5l.02051 6.21v.3096l.0303 6.04.0195 4.5898.0098 3.6602v.5303l.0195 4 .0508 10.1797-3.0605 1.8115-.3897.2197-.0205.0098-.0801.0498-.6591.3916-.62991.3701-.59961.34959-4.74029 2.7715h-.00971l-.12109.0596-.2891.1699-.30081.1797-1.05949.6201-.6807.4004-.50981.29-.16989.0996-2.4199 1.4004-.5801.3399-.2402.1298-3.6895 2.17001-.1406.07999-.3193.19051-.0401.0097-.2598.1504-.8007.4698-.5293.3095-2.7002 1.5703-.0205.0098-.7403.44041-3.1494 1.8399-3.0498 1.7695-2.93941 1.7002-.01079.02151-.1103.05959-.6397.37981-.1494.08009-.1006.0703-.73921.42-.52049.3095-.89951.5215-.06049.04-.1504.0801-.3896.2285-.6104.3399-.08012.0615-.16988.1094-.33012.1894-.36908.21-.1406.0801-.0498.0302-.1202.05959-.04.0303-2.1299 1.2197-.7099.4307-.6202.3506-1.3701-.7715-1.3584-.7695-.9404-.5401-.61042-.3603-1.01949-.5801-.6201-.3496-.0693-.0401-.8106-.4785-.1601-.0615-.2999-.1885-.2197-.1318-.2304-.1299-1.4502-.8301-1.3194-.75-.0801-.0498-.25971-.1484-.39059-.22169-.5098-.29-.9404-.5284-.1299-.0703-.0196-.0215-.2402-.1396-.1797-.09959-.1103-.0615-.22951-.1397-.14939-.0801-.7403-.4199-.1396-.0801-.3701-.2099-.0801-.0498-.1299-.0801-.4199-.2402-.0508-.0303-.3301-.1885-.4199-.2305-.16991-.0996-2.31059-1.3203-.2207-.12009-.5801-.33981-.4199-.2403-3.3398-1.8896-.1006-.0596-.2705-.1504-.1807-.0996-.2392-.1416h-.0108l-.5097-.2998-.2198-.1201-.5703-.3203-.02931-.0196-.05079-.0302-.19921-.1202-.93939-.54-.3809-.2197-.3506-.1797-.1797-.1104-.1298-.0703-.31062-.1797-3.47948-1.9902-.1396-.0684-.0703-.04-.0801-.0498-.0401-.0117-.6601-.37991-2.2901-1.3184-.5-.29-.3105-.18159-.1191-.0596-.5704-.3301-.2597-.1396-.1797-.1016-.4404-.2598-.1299-.0615-.0996-.0596-.6211-.3603-1.7891-1.02831-3.2305-1.8516-1.19921-.6797-.041-10.5615v-1.25l-.00978-2.4199h.00491zm54.1953-56.5596.17.0899v-.0899zm0 0 .17.0899v-.0899z" opacity=".13"/><path d="m87.07907 92.2918c0 3.4472-14.4062 6.2421-32.1787 6.2421-17.7715 0-32.1797-2.7949-32.1797-6.2421 0-3.4444 14.4072-6.2364 32.1797-6.2364 17.77151-.0009 32.1787 2.791 32.1787 6.2364" fill="#422159"/><path d="m89.66017 63.7371-6.6758-14.5098c-1.666-6.874-7.5703-11.8935-14.625-12.4277-.2725 0-.6699.1396-.88481.3086l-.01359.0117c-.002.0019-.0059.0049-.0079.0068-2.70309.084-5.3867 1.0235-7.4912 2.7256-3.40131 2.751-5.0898 7.041-6.6416 11.1299-.6679 1.7666-1.3379 3.5332-2.0078 5.2988-1.8594 1.416-3.8974 2.5938-6.0625 3.501l-14.9599 6.2705c-2.4346 1.0176-4.4209 2.8721-5.60651 5.2285-.416.8281-.73629 1.7051-.94918 2.6065l-1.4883 6.3125c-.7412 3.1455-.168 6.457 1.5879 9.1689 1.7197 2.6563 4.43159 4.5156 7.5273 5.1621l12.86529 2.6865c4.039.8448 11.35941.9463 15.43751.3028l13.3398-2.1104c6.6621-1.0537 12.0645-5.958 13.7559-12.4873l2.8359-10.9482c.6983-2.6983.7207-5.5303.06449-8.2373" fill="#565656"/><path d="m68.34767 37.241c1.6777.1299 3.31931.5224 4.8691 1.1689 1.5195.6309 2.9317 1.4951 4.1895 2.5645 1.2588 1.0693 2.3369 2.3213 3.207 3.7207.8887 1.4336 1.541 2.9941 1.9404 4.6387l.0108.041.0175.039 6.6563 14.4668c.6289 2.6192.6045 5.378-.0713 7.9815l-2.8359 10.9502c-1.64751 6.3603-6.9063 11.1338-13.39751 12.1621l-13.33979 2.1094c-1.6827.2666-3.99221.4121-6.5088.4121-3.3643 0-6.6416-.2657-8.7686-.71001l-12.8623-2.68649c-1.4863-.3106-2.8711-.90141-4.123-1.7588-1.2491-.8574-2.3018-1.9365-3.125-3.207-.8428-1.30379-1.4034-2.7354-1.668-4.2598-.2627-1.52641-.2178-3.0635.1387-4.56931l1.4873-6.3135c.208-.86919.5146-1.7139.916-2.5108 1.1357-2.2588 3.0488-4.042 5.3809-5.0214l14.9619-6.2676c2.1884-.919 4.26068-2.1162 6.1582-3.5576l.1006-.0762.04489-.1182 1.50581-3.9756.5039-1.3232c.8301-2.1963 1.6006-4.1631 2.6006-6.0147 1.1436-2.1171 2.4199-3.7294 3.9033-4.9287 1.9922-1.6103 4.5577-2.5439 7.2276-2.6269l.1494-.0049.1152-.0938c.0039-.0039.0078-.0087.0127-.0117l.0069-.0058c.1318-.10449.41891-.20709.5957-.21289m.01171-.4414c-.2725 0-.6699.1396-.8809.3066l-.0146.0117c-.002.002-.0059.0049-.0078.0069-2.7032.084-5.3858 1.0244-7.4912 2.7256-3.4024 2.7509-5.0899 7.041-6.6407 11.1298-.6679 1.7666-1.3379 3.5332-2.0097 5.2989-1.8623 1.416-3.8975 2.5937-6.0616 3.5009l-14.9599 6.2706c-2.4336 1.0166-4.4199 2.871-5.6055 5.2285-.418.8281-.7363 1.705-.9512 2.6064l-1.4873 6.3125c-.7412 3.1455-.1679 6.457 1.5879 9.169 1.7198 2.6562 4.43069 4.5156 7.5283 5.1621l12.86139 2.6875c2.29491.4795 5.64551.7207 8.85941.7207 2.4472 0 4.8144-.1377 6.5781-.418l13.3398-2.1104c6.6621-1.0527 12.0645-5.958 13.7559-12.4873l2.8359-10.9482c.6992-2.6973.7207-5.5293.0645-8.2363l-6.6758-14.5098c-1.66601-6.874-7.5713-11.8935-14.625-12.4277z" fill="#333"/><path d="m47.95607 76.1843c3.60449-.3916 7.35249.86819 9.9931 3.34869 2.6436 2.48241 4.1299 6.14941 3.9668 9.7685 1.2578-3.0166.3721-6.791-2.0957-8.9336 5.3184-1.9277 11.5967-.9218 16.0469 2.56741-3.9355-3.584-9.22661-5.6426-14.5488-5.6553 5.3955-3.9726 12.6347-5.3232 19.0986-3.5615-4.1885-4.0283-10.8076-4.2822-16.44242-2.8545-5.63279 1.4297-10.84278 4.2539-16.49408 5.6153" fill="#333"/><path d="m35.02348 69.4412c-1.9874-1.4385-4.79692-1.6416-6.9717-.5049 2.3916-.65331 5.1074.0654 6.8642 1.8125-3.2929.0937-6.4843 1.959-8.1816 4.7812 1.4258-1.0761 2.8691-2.1591 4.4961-2.9013 1.625-.7403 3.4736-1.1192 5.2148-.7207-3.63471.2939-6.9648 2.9668-8.039 6.4541 2.9384-3.7022 6.5234-6.8897 10.5449-9.375-1.35162-.2032-2.7012-.4053-4.0527-.6065" fill="#333"/><path d="m63.97847 50.6492c-1.2998-1.7871-1.791-4.1377-1.3222-6.2959.4707-2.1582 1.8955-4.0918 3.81829-5.1777-1.77539 2.9726-2.539 6.5351-2.13959 9.9746.2041-3.3926 2.9033-6.4805 6.2392-7.1338-3.125 2.3359-5.2343 5.9853-5.6982 9.8603 3.5615-3.8183 8.9951-5.8008 14.1777-5.1699-3.5107 1.3184-7.0205 2.6357-10.5302 3.9531-1.5137.5664-3.0264 1.1348-4.5411 1.7032" fill="#333"/><path d="m52.12207 81.5896.89349-1.125c.06252-.0762.07621-.1943.043-.2978l-.32808-.96c-.0488-.1406.0019-.3008.1123-.3555.1094-.0556.2392.0127.2871.1563l.17868.5244c.06351.1826.252.23531.36042.0967l.4052-.5225c.084-.1064.2237-.1045.3116.0029.0185.0274.0371.0586.04979.0909.03321.1025.02051.2197-.043.2998l-2.20119 2.7968c-.0039.004-.00581.0059-.0097.0108" fill="#63392e"/><path d="m45.59468 61.3523-3.63961-4.291 5.8857-4.627-1.6963.4981.39951-1.9473-7.91121 5.7793 3.06941 10.0254" fill="#d7723b"/><path d="m41.70218 67.1062c.0302 0 .0605-.0029.0927-.0137.1661-.0507.2618-.2285.209-.3935l-3.0049-9.8125 7.0713-5.1641-.2343 1.1455c-.0215.1084.01358.2207.0957.2959.08.0743.1962.1026.3027.0703l.123-.0361-4.5996 3.6133c-.0664.0527-.1093.1318-.11721.2168-.00969.085.01762.1709.07132.2353l3.6416 4.292c.1143.1328.3125.1485.4453.0362.1329-.1133.1485-.3135.0372-.4453l-3.4297-4.0411 5.6308-4.4238c.1192-.0928.1543-.2588.086-.3935-.0704-.1348-.2246-.2012-.3702-.1582l-1.19231.3515.29291-1.4336c.0264-.1279-.0293-.2597-.1386-.3281-.1094-.0713-.252-.0664-.3575.0107l-7.9101 5.7784c-.1094.0781-.1553.2187-.1153.3486l3.0665 10.0273c.04099.1348.16599.2217.30369.2217" fill="#63392e"/><path clip-path="url(#a)" d="m45.59468 61.3523-3.63961-4.291 5.8857-4.627-1.6963.4981.39951-1.9473-7.91121 5.7793 3.06941 10.0254" opacity=".1"/><path d="m31.70308 81.5525-2.1621.2324.8819-9.7676 4.9951 2.2374z" fill="#d7723b"/><path d="m29.54098 82.0984c-.084 0-.1631-.0322-.2226-.0898-.0674-.0664-.1006-.15919-.09182-.2549l.88281-9.7637c.0098-.1016.0674-.1953.1543-.24509.0898-.0508.1963-.0576.289-.0147l4.9952 2.2412c.0791.0333.1396.1006.1699.1807.0273.083.0205.1729-.0186.249l-3.7148 7.2959c-.04881.0938-.1426.1592-.25.1709l-2.1621.2295c-.00979.00099-.02149.00099-.03129.00099m5.4473-7.6865-4.2891-1.9258-.8105 8.9414 1.6094-.1728z" fill="#63392e"/><path clip-path="url(#b)" d="m31.70308 81.5525-2.1621.2324.8819-9.7676 4.9951 2.2374z" opacity=".1"/><path d="m67.57717 75.5047 1.456.3251-3.0527-8.5566-19.46492-.5185-1.73038-5.8936-6.5782 4.9766-3.4335 1.3642c-1.9864.791-3.5333 2.4112-4.2305 4.4336-.8233 2.3887-.3653 5.02831 1.2138 6.9971l2.6172 3.2637c2.9502 3.6787 8.043 4.8466 12.3008 2.8183l4.1436-1.3711.0703.0713 4.0117 1.4981 4.3057-2.5957.1884 2.416c4.3575-1.3076 5.6739-5.75 5.6739-5.75l.666 1.8427c2.0928-1.2373 1.8428-5.3212 1.8428-5.3212" fill="#d7723b"/><path d="m42.29688 86.0183c-.78131 0-1.5645-.08691-2.332-.2646-2.292-.5264-4.36331-1.8242-5.835-3.6602l-2.6162-3.26369c-1.6563-2.06541-2.1309-4.7929-1.2686-7.29491.7276-2.1142 2.3379-3.7988 4.4151-4.624l3.3935-1.35249 6.544-4.9473c.081-.0645.1894-.0801.2881-.0488.0986.0332.17479.1103.2041.2119l1.666 5.6719 19.2343.5107c.1319.0049.2461.0889.2891.21l3.0537 8.55659c.0391.10641.01469.2275-.0615.31541-.0762.084-.19341.1241-.3047.09769l-1.0625-.2344c.002 1.1094-.166 4.1055-2.0098 5.1963-.08.0479-.1787.0557-.2675.02541-.0879-.0313-.1582-.1006-.1895-.1904l-.37891-1.0489c-.20119.4453-.5 1.0332-.93259 1.6631-.8272 1.2031-2.3018 2.7891-4.6416 3.4893-.0899.0283-.1904.0107-.2695-.042s-.1289-.1406-.1368-.23341l-.1504-1.9072-3.8652 2.331c-.084.0479-.1836.0596-.2734.0254l-4.0117-1.498c-.0079-.0059-.0176-.0088-.0264-.0118l-3.957 1.3096c-1.4073.666-2.9502 1.0078-4.4971 1.0078m8.52149-2.9892c.082 0 .1621.0332.2226.0966l.0235.0225 3.8007 1.4199 4.1768-2.5185c.0918-.0567.21-.0625.30758-.0117.09571.0507.16122.1494.16991.2558l.1592 2.0195c1.5645-.5595 2.87988-1.6005 3.9141-3.1015.84079-1.2207 1.168-2.3028 1.17279-2.3145.03711-.1308.15531-.2216.293-.2256.13481-.0039.25981.0791.30661.2081l.5225 1.4501c1.5635-1.3427 1.376-4.7695 1.375-4.8046-.0059-.0996.0352-.1963.1104-.2608.0742-.0644.1748-.0869.2734-.0674l.8965.2022-2.7871-7.8135-19.2491-.5098c-.1376-.0058-.2568-.0957-.2929-.22649l-1.6045-5.4561-6.2129 4.6983c-.0205.0175-.04692.0302-.0723.042l-3.43362 1.3652c-1.90429.7607-3.38178 2.3047-4.05168 4.2422-.792 2.29781-.3565 4.7998 1.164 6.6963l2.6172 3.2636c1.3809 1.7207 3.3291 2.94341 5.4834 3.43951 2.1533.4922 4.4395.2422 6.4356-.70901.0117-.0029.0234-.0117.0351-.0146l4.1436-1.3721c.03322-.00981.06542-.01561.10061-.01561" fill="#63392e"/><path d="m44.04977 85.5535-5.92189 5.2685-1.9775.5127.8115-8.9961" fill="#d7723b"/><path d="m36.15038 91.6502c.0264 0 .0527-.003.0781-.0098l1.9785-.5127c.0489-.0117.0928-.0361.1319-.0684l5.9209-5.2705c.13279-.1162.1426-.31541.0273-.4453-.1162-.1299-.3144-.1435-.4482-.0244l-5.86231 5.2158-1.47069.38091.7715-8.5479c.0146-.1738-.1123-.32909-.2852-.3437-.1758-.0147-.3291.1123-.3437.2881l-.8135 8.9922c-.0078.1025.0332.205.1103.2695.0596.05079.1319.07619.2051.07619" fill="#63392e"/><path d="m36.53128 75.4881c-2.2823 1.8281-2.4053 5.4638-4.5791 2.7519-2.1729-2.709-2.087-6.3916.1943-8.2197 2.2803-1.8291 5.1475-2.8731 6.8809.1201 1.7246 2.9717-.2149 3.5176-2.4961 5.3477" fill="#e59776"/><path d="m51.62698 79.8201.8945 1.6201" fill="none"/><path d="m52.52148 81.7576c.0508 0 .1035-.0156.1514-.043.1543-.081.2089-.2744.124-.4267l-.8945-1.6202c-.0821-.15331-.2745-.2089-.42781-.124-.15228.083-.207.2754-.123.4277l.89351 1.6202c.05569.1064.1631.166.2764.166" fill="#63392e"/><path d="m29.54098 81.7849 2.1621-.2324.50099-.9824-2.53809-.1865z" fill="#555759"/><path d="m29.54098 82.0662c-.0752 0-.1465-.0293-.2011-.0811-.0606-.0605-.0909-.1445-.085-.2275l.1279-1.3985c.0137-.1543.1504-.2685.3047-.2568l2.5352.1846c.0957.0068.1816.06149.2285.14259.0478.0849.0488.1855.0058.2695l-.5019.98531c-.044.083-.127.14069-.2246.1524l-2.1602.2295c-.00972 0-.0195 0-.0293 0m2.2139-1.2422-1.8311-.1358-.0683.7764 1.664-.1787z" fill="#63392e"/><path d="m36.15038 91.3347 1.9775-.5127.6456-.5722-2.4795-.5049z" fill="#555759"/><path d="m36.15038 91.6179c-.0664 0-.1309-.0234-.1836-.0664-.0723-.0605-.1094-.1513-.0986-.2422l.1426-1.59081c.00679-.082.04778-.1523.1123-.2021.0664-.04691.1484-.06841.22849-.0498l2.47651.5048c.10548.0215.1914.0997.2188.2032.0254.1045-.0049.21581-.0859.2881l-.6446.5732c-.0332.0293-.0732.0498-.1172.0615l-1.9795.5127c-.0205.00491-.04591.00781-.0693.00781m2.0078-1.2031-1.6094-.3271-.0791.8711 1.5205-.3936z" fill="#63392e"/><path d="m39.22848 66.3963-.7246 1.4638.89849.1065" fill="#d7723b"/><path d="m39.40237 68.2195c.125 0 .2334-.0957.25-.22269.0185-.1377-.0821-.2656-.2207-.2802l-.545-.0655.5664-1.1425c.06248-.126.0098-.2764-.1142-.3379-.125-.0625-.27831-.0098-.3379.1142l-.7256 1.46101c-.0352.0752-.0332.1601.0059.2324.039.0723.10928.1211.1894.1308l.8985.1084c.0126.00198.02339.00198.0332.00198" fill="#63392e"/><path d="m44.10347 72.4783-3.61329-.8203.7383-1.0899" fill="#d7723b"/><path d="m44.10347 72.7302c.1133 0 .2188-.08.24609-.1972.03032-.1367-.05368-.2705-.18938-.3008l-3.252-.7402.5293-.7793c.07808-.1163.0488-.2715-.0664-.3536-.1143-.0771-.27151-.0468-.3516.0674l-.7382 1.0879c-.045.06841-.05471.1563-.0245.23341.0313.07719.0987.1377.17879.1543l3.61231.8213c.0166.00489.0381.00679.05559.00679" fill="#63392e"/><path d="m42.27348 70.5613-3.9512-.8301 1.5762-2.3428" fill="#d7723b"/><path d="m42.27348 70.8132c.11708 0 .2226-.082.246-.2021.0303-.1348-.0585-.2695-.1953-.2998l-3.584-.749 1.3692-2.0342c.0781-.1152.0469-.2725-.0684-.3506-.1162-.07809-.2715-.0488-.3515.06931l-1.5782 2.3428c-.0468.0684-.0546.1572-.0234.2354.0313.0791.0996.1367.1836.15231l3.9512.8301c.0156.00388.03409.00578.0508.00578" fill="#63392e"/><path d="m74.81638 64.2107c-.0234.1035-.0371.209-.0332.3106.002.083.0117.1679.0391.2412.1621.455 1.9609 1.0625 2.19529 1.1425v-.0019l.31641.0918c.43159.12299.8311.1943 1.1992.2109.4229.0215.8057-.02831 1.1416-.14941.0293-.0107.0615-.0225.0889-.03419.1074-.0439.209-.0937.3066-.1513.0196-.0098.0352-.0205.0547-.0332.0547-.0362.1055-.0704.1543-.1065.043-.0351.084-.0683.1231-.1045.3086-.2734.49019-.59081.5898-.8213-.293-.0869-.5684-.1797-.8223-.2715-1.8867-.7138-2.7675-1.6669-3.1777-2.4423-.38869-.7373-.3555-1.3135-.35161-1.3662l.00981-.1026 2.5996-3.4775.2051-.2725c-1.46001-2.3125-4.8662-3.4297-4.90041-3.4404l-.6094-.1953 1.65429-1.3946c-2.23629-3.0429-6.15619-3.7304-6.19529-3.7373l-.6641-.1113 1.2266-1.2695c-1.9258-1.2735-3.8984-1.5108-5.3848-1.4336l-.0957.8691-.0918.8506-.00681.0234c-.01659.0577-.1738.5586-.792.8721-.7363.3731-1.78712.3086-3.123-.1933 0 0-.0039-.002-.0049-.002-3.24121-1.2217-2.8584-2.5322-2.8047-2.6787l.0059-.0195.0107-.0176 1.08789-2.0752c-.11909-.0576-.24219-.1104-.36909-.1602-.2032-.0791-.4122-.1484-.63292-.2041l-.32808 2.2461-.4961-.4668c-.0185-.0175-1.5205-1.4023-3.5527-1.833-.4082-.0849-.8408-.1338-1.2852-.124l-.2207 2.3877-.5156-.416c-.2695-.2139-.8867-.5362-1.7744-.7237-.4346-.0908-.9346-.1494-1.4893-.1445l-.21091 2.1084-1.416-.3877c-.18259.5059-.56639 1.6026-.99219 2.9658l.0508.0567c-.0059.0068-.0381.0351-.0918.0771-.6455 2.083-1.3789 4.7569-1.6475 6.9326l1.6104.8897-.4502.3271c-.0371.0274-.9092.6914-1.0596 2.0245l1.0703 1.9462-.2969 3.5 1.2559 1.0127-1.6621 3.7422 2.3984.15141-1.5176 2.2725.8594.0078.4375.0029.4375.0029 2.5811.0225-.3789 1.4678 4.7207-.4424 2.6943 1.7168 3.4024-2.3565 1.2089.5059.8955.376 1.47369-1.1914 1.48731 1.0361 1.59669-1.7295 1.88081 1.3398 1.2598-1.5283 1.833 1.2744.8525-1.9082 1.9785.3067.0645-2.0137 1.8418-.0488.4922-1.3487c-.1338-.0429-.38869-.1289-.6895-.2412-.7519-.29-1.7949-.7675-1.9765-1.2578-.0879-.2353-.03519-.47169.082-.6846.0566-.10149.127-.1992.2061-.28899.082-.0977.17279-.1856.2607-.2617.2256-.1973.4258-.3213.4258-.3213s-.0899.1592-.1699.376c-.03319.09178-.06548.19428-.08598.29778" fill="#d7723b"/><path d="m42.86328 48.8269c-.0078.4981.1445 1.3613 1.1904 1.6953.1621-.6035.3311-1.1914.4981-1.75-.4444.1494-1.02251.2285-1.6885.0547" fill="#d7723b"/><path d="m81.79588 64.6345c-.0068.0362-.1494.6621-.6592 1.2549-.0215.02351-.042.0508-.0644.0733-.0723.082-.1475.1591-.2246.2265-.0049.0039-.0088.0078-.01369.0117-.083.0733-.168.1368-.25591.1973-.0039 0-.0078-.0029-.0078-.0029-.0429.0293-.0879.05659-.1328.0859-.789.4697-1.789.5635-2.9765.2803l-.2139.5849-.4717 1.292-1.6562.043-.0694 2.1455-2.2334-.34669-.9804 2.1963-1.9991-1.3896-1.2666 1.5332-1.9092-1.3594-1.5888 1.7246-1.5606-1.084-1.3886 1.12009-2.1387-.8955-3.46881 2.4043-2.88668-1.8388-.6465.05949-4.8379.4561.4053-1.5674-2.3799-.0176-.4375-.0039-.1562-.0029h-.2813l-1.4658-.0146 1.56349-2.3418-2.18649-.1368 1.85449-4.1777-1.125-.9053.31051-3.6631-1.0693-1.9482.00678-.1045c.08992-1.1152.60352-1.8721.97272-2.2812l-1.1153-.6192.0254-.2324c.1465-1.3213.4629-2.8164.834-4.2656-.0625-.0186-.123-.0401-.1816-.0606-1.8106-.6816-1.4327-2.6904-1.4297-2.7109l.0722-.3633.3457.1348c.0108.0039.0235.0107.0372.0146.9209.3477 1.6543.0801 2.0507-.1465.5801-1.8574 1.086-3.2216 1.1299-3.3418l.1123-.3037 1.2364.3389.1894-1.8906.30469-.0157c1.71091-.0839 2.89551.3623 3.52441.6895l.1611-1.7607.2979-.0235c2.3232-.1885 4.2881 1.043 5.1767 1.7168l.2481-1.6875.3555.0645c.5742.0996 1.0966.2802 1.56828.5078l-.164.3164c-.10059-.0488-.20319-.0938-.30769-.1367l.002-.002-.002.002c.1045.0429.2071.0879.30769.1367l-.168.3135c-.11909-.0567-.24219-.1114-.36909-.1612-.2032-.0791-.4122-.1474-.63091-.2031l-.33009 2.2441-.4961-.4648c-.0185-.0166-1.5205-1.4023-3.55082-1.833-.41008-.0869-.84179-.1338-1.28709-.124l-.2187 2.3867-.5176-.416c-.26561-.2129-.8848-.5362-1.7734-.7227-.4356-.0918-.9317-.1494-1.4903-.1455l-.21091 2.1094-1.416-.3877c-.18169.5058-.56449 1.6016-.99029 2.9658l.0508.0576c-.0078.0059-.039.0352-.0937.0772-.6455 2.083-1.377 4.7549-1.6475 6.9326l1.6104.8906-.4473.3262c-.0381.0273-.9121.6914-1.0625 2.0254l1.0732 1.9463-.2978 3.5019 1.2558 1.0088-1.66011 3.7461 2.39551.1465-1.52051 2.2715.86031.0088.4366.0029.4384.0029 2.5831.0205-.3799 1.4698 4.7197-.4444 2.6943 1.71581 3.4034-2.3564 1.2089.5078.8955.3731 1.47369-1.1885 1.48921 1.0371 1.59479-1.73151 1.88081 1.3409 1.2598-1.5284 1.834 1.27451.8515-1.9102 1.9785.3066.0645-2.0117 1.8438-.0508.49209-1.3486c-.13379-.043-.38769-.1289-.69139-.2422-.7519-.28609-1.7949-.76559-1.9765-1.2588-.0879-.23631-.0332-.4687.082-.6816.0566-.1025.12889-.1992.2061-.291.083-.0957.17479-.1856.2627-.2627.2236-.1963.4257-.3184.4257-.3184s-.0918.1572-.1718.376c-.0323.0908-.0664.1934-.0879.2998-.0205.1025-.0352.20409-.0332.30659.0029.08601.0146.16901.041.2452.1621.4521 1.959 1.0615 2.19329 1.1406l.002-.002.31741.0918c.43059.1231.8291.1924 1.1982.211.4229.0205.8047-.0313 1.1406-.1524.0313-.0097.0625-.0195.0899-.0322.10841-.04201.209-.08981.3047-.15041.0205-.0117.039-.0205.0556-.03519.0537-.0332.1045-.0703.1553-.10741.043-.0332.084-.0674.1231-.10149.3076-.27451.48819-.5909.5908-.8213-.294-.086-.5684-.1768-.8233-.2735-1.8867-.7099-2.7675-1.665-3.1777-2.4404-.39061-.7373-.3555-1.3135-.35161-1.3662l.00981-.1025 2.5996-3.4786.20409-.2714c-1.459-2.3125-4.8652-3.4288-4.8994-3.4405l-.6094-.1953 1.65429-1.3945c-2.23629-3.044-6.15619-3.7305-6.19719-3.7363l-.6641-.1114 1.2275-1.2695c-1.9257-1.2754-3.8994-1.5137-5.3847-1.4346l.0341-.3183.0049-.042.0401-.3653c1.6787-.0732 3.89839.2481 6.0586 1.8184l.3291.2402-.8936.9239c1.3184.3457 4.36329 1.4033 6.2168 4.1591l.1768.2637-1.1905 1.0049c1.1436.4609 3.6543 1.666 4.8321 3.7451l.1132.2012-2.95311 3.9492c.02051.4424.33991 2.3379 4.19051 3.3516l.3251.0869zm-38.9326-15.8105c-.0059.499.1445 1.3623 1.1914 1.6973.1611-.6045.3301-1.1924.499-1.751-.4463.1504-1.02441.2285-1.6904.0537" fill="#63392e"/><path d="m48.71188 52.6804c.01268.0098.0244.0176.0371.0225.1221.0557.2745-.0244.3448-.1758.04879-.1113.0371-.2305-.0196-.3086-.0039-.0068-.0078-.0127-.01361-.0185-.168-.2012-.459-.4112-.81739-.5713-.3301-.1475-.6533-.2246-.9053-.2285-.0234-.001-.0459-.001-.0664-.001-.0098.001-.0166.001-.0234.001-.0762.0078-.1524.0546-.2041.1279-.0147.0195-.02641.042-.0372.0644-.0673.1504-.0244.3174.0967.3731.0157.0058.0274.0107.043.0137.0146.0029.0293.0029.043.0029.2334.0215.5136.0967.7949.2236.28319.128.5264.2842.69918.4444.00592.0107.01562.0214.02832.0302" fill="#63392e"/><path d="m65.14448 58.7761c.0215.0137.043.0254.0674.0332.2071.0733.4463-.0761.5391-.3359.0674-.1895.0351-.3848-.06741-.5039-.00879-.0098-.01759-.0186-.02729-.0273-.3008-.3086-.8116-.6172-1.4219-.834-.6143-.2159-1.2031-.2969-1.63281-.2491-.01369.002-.02349.003-.03709.0049-.1563.0283-.3037.1602-.3711.3477-.0059.0195-.0117.0361-.0166.0537-.0635.2422.0312.4805.2256.5498.0224.0078.0468.0127.07219.0166.01561 0 .02832 0 .043-.002.00981 0 .01761.002.02641 0 .3877.0059.8564.0928 1.3398.2647.4844.1719.9023.3994 1.207.6406.0166.0137.0342.0283.0537.041" fill="#63392e"/><path clip-path="url(#c)" d="m79.87788 65.7283c.1329.0098.2686.0098.4014-.00491.043-.0322.084-.0664.1231-.10159.3076-.27441.48819-.59081.5908-.82121-.294-.085-.5684-.1778-.8233-.2735-1.8867-.7099-2.7675-1.665-3.1777-2.4404l-1.37009.04s.87009 1.4502 2.0898 2.5117c.2354.2061.4834.3955.7422.5596.45508.28611.93458.48541 1.42379.53031" opacity=".1"/><path clip-path="url(#d)" d="m53.37498 68.8338c.01558-.1416-.14841-.2276-.2568-.1348l-.9824.8555c-.07521.06641-.0713.1855.0107.2451l.8135.5927c.0967.0684.2334.0098.2461-.10741z" opacity=".1"/><path clip-path="url(#e)" d="m76.76756 66.5886c-.13579-.0429-.38969-.1289-.69139-.2422l-.3399.90041-1.9785.0264-.11721 1.9219-1.666-.2774-.82609 1.6485-1.54891-1.044-1.40039 1.5313-1.7773-1.21-1.5762 1.5244-1.6269-.9101-2.1075 1.5674.8955.373 1.4737-1.1885 1.4892 1.0371 1.5948-1.7314 1.8808 1.3408 1.2598-1.5283 1.834 1.2744.85149-1.9101 1.97951.3066.06349-2.0117 1.84381-.0508z" opacity=".1"/><path clip-path="url(#f)" d="m79.67477 66.0506-1.1406.1513c.42381.0205.8047-.0303 1.1406-.1513" fill="#e6e7e8"/><path clip-path="url(#g)" d="m64.54588 58.7078c.002-.0137 1.1533-.3848 1.8193-.1455.0411.0136.0743.0478.0909.0888l.4873 1.2979c.0517.1367-.1016.2607-.2227.1787-.58011-.3926-1.7148-.959-3.03711-.5459-.15619.0488-.27048-.1455-.14548-.2549.126-.1094.27249-.2265.4346-.3369z" opacity=".1"/><path clip-path="url(#h)" d="m48.57618 53.0506c-.1104-.0713-.18562-.1778-.2012-.2862 0-.0107-.0019-.0215-.0019-.0322-.003-.0322-.003-.0654-.0049-.0986-.1524-.2247-.3604-.42-.6524-.5391-.03222-.0137-.0713-.0107-.1025.0078l-.7275.4014c-.0997.0576-.0694.206.0419.2236.4356.0615 1.13088.2676 1.5665.9385.0683.1055.23239.039.2148-.086-.02342-.165-.06451-.3466-.1328-.5292" opacity=".1"/><path clip-path="url(#i)" d="m52.35738 67.45-1.6816.2822c-.1074.0166-.165.1387-.1094.2305l.2559.4336.1601.2705.16019.2724.043.0703c.05462.0938.18841.1016.25581.0176l.2295-.2881.3809-.4746.38178-.47649.07232-.08891c.0879-.1104-.00781-.2734-.1485-.249" opacity=".1"/><path clip-path="url(#j)" d="m51.80077 66.4197-1.1621-.8193c-.1113-.0782-.2608.0097-.24611.1445l.10061.8955c.0097.085.083.14449.1631.13869l1.0664-.0743c.14551-.01259.19721-.20009.0781-.28509" opacity=".1"/><path clip-path="url(#k)" d="m68.52538 46.7576-.9355 1.9346s3.8906-.0381 7.1074 3.1455l-2.1084 1.9375s4.6338.9248 5.80369 3.0576l.85741.3076.20409-.2715c-1.459-2.3125-4.8652-3.4297-4.9004-3.4404l-.6084-.1953 1.65429-1.3946c-2.23629-3.0439-6.15619-3.7304-6.19719-3.7363l-.6641-.1113 1.2275-1.2696c-1.9257-1.2744-3.8974-1.5136-5.3847-1.4345l-.0948.8691c.70121-.1103 2.4571-.2627 4.03911.6016" opacity=".1"/><path clip-path="url(#l)" d="m51.88478 44.7595s.3711-1.9511 1.50578-2.2627c-.41008-.0869-.84179-.1337-1.28709-.124z" opacity=".1"/><path clip-path="url(#m)" d="m58.39848 42.7547c-.2032-.0791-.4122-.1475-.63091-.2032l-.33009 2.2442s.5986-1.416.961-2.041" opacity=".1"/><path clip-path="url(#n)" d="m47.89256 45.5867s.55961-1.6192 1.70121-1.9649c-.4356-.0918-.9327-.1484-1.4903-.1455z" opacity=".1"/><path clip-path="url(#o)" d="m54.01947 47.8562c.1524-.1767-.08-.4199-.2636-.2783-3.2442 2.4814-5.4414 9.9014-5.4414 9.9014v.0019c.4179.1348.8574.4102 1.2402.8106 1.06251-5.7637 3.23541-8.9961 4.4648-10.4356" opacity=".1"/><path clip-path="url(#p)" d="m58.00978 63.1668c.6992-.3155 1.1465-.836 1-1.1592-.1465-.3242-.833-.3301-1.5313-.0156-.6992.3164-1.1474.8369-1 1.1611.14459.3242.83208.3301 1.5313.0137" fill="#bbbdbf"/><path clip-path="url(#q)" d="m48.27348 59.8308c.1962-.0654.2402-.4629.0976-.8867-.1426-.4228-.418-.7119-.6113-.6465-.1973.0655-.24221.4639-.0987.8867.0479.1407.1104.2676.1778.3711.0986.0684.2353.166.4013.2823.0098-.001.0215-.0039.0333-.0069" fill="#bbbdbf"/><path clip-path="url(#r)" d="m48.23827 59.8386c-.166-.1162-.30271-.2138-.4004-.2822.127.1865.2754.2979.4004.2822" fill="#bbbdbf"/><path d="m62.92968 36.3113-.9883 1.8662c.336.6826.9268 1.5147 1.9551 2.1748.1699.1084.3525.2129.5449.3106l.2969-2.6358c-.1523-.0947-.2988-.1953-.4404-.3008-.53911-.3994-.9961-.872-1.3682-1.415" fill="#fffbdd"/><path d="m61.59277 38.8367-.9483 1.789c.2823.7393 1.0137 2.1016 2.7618 2.962.2109.1045.4355.1992.6757.2871l.2891-2.5606c-.2051-.0928-.39452-.1924-.5742-.2978-1.0908-.6367-1.7774-1.4522-2.2041-2.1797" fill="#fffbdd"/><path d="m62.62988 47.3015c-2.3301-.8886-3.2842-2.5537-3.65532-3.5215l-.76168 1.4414c-.0156.1192-.0195.9561 2.4316 1.8907.002.001.004.001.004.001 1.0234.3896 1.7109.4423 2.166.372.07608-.0127.1474-.0273.2109-.0469-.0644-.0214-.1309-.041-.1943-.0644-.0674-.0234-.13581-.0469-.2012-.0723" fill="#fffbdd"/><path d="m65.20608 33.8523.0674-.6103c.0234-.1993-.1036-.3125-.2295-.3526-.0049 0-.0108-.001-.0127-.0019-.125-.0332-.2862-.0088-.377.164l-.05271.0996c.10252.1416.21091.2774.32611.4082.08988.1006.1817.1993.2784.293" fill="#fffbdd"/><path d="m64.81248 34.3338c-.1904-.1827-.3652-.376-.52731-.5801l-1.0215 1.9306c.3047.5069.6855.9541 1.1406 1.337.1318.1113.2686.2158.4121.3144l.3057-2.7236c-.10651-.0899-.2119-.1826-.30959-.2783" fill="#fffbdd"/><path d="m63.91698 45.3377.0391-.3633.0429-.3692.0098-.0966c-.0869-.0303-.1728-.0616-.2568-.0938-.15242-.0576-.3028-.1201-.44342-.1865-1.71968-.7871-2.60059-2.0215-3.03318-2.9033l-.6543 1.2373-.168.3144-.0693.1328c.0147.0635.04.169.083.3018.2481.7783 1.0606 2.5488 3.4609 3.4365.2364.0889.4903.167.7598.2354.0313-.0479.0488-.0879.0576-.1075z" fill="#fffbdd"/><path clip-path="url(#s)" d="m64.27148 46.1931.07419-.8925.00389-.0323.02832-.3291.02839-.3652.2255-2.6318.07621-.8907.0225-.2617.24019-2.8369.043-.4902.24021-2.8252.0586-.6807.086-1.0156-.33792-.333-.04108.2773-.1005.6719-.11531.7744-.3974 2.6885-.1045.706-.3887 2.628-.09859.664-.37892 2.5733-.09569.6416-.07231.4824-.05568.376-.0556.375-.19051 1.2861-.0918.627-.01659.1103-.04682.3184-.02049.1357 1.0732-.3057.34281-.6884z" fill="#f9ec31" opacity=".4"/><path d="m64.38867 47.0291c-.01659.0556-.1729.5576-.791.8711-.7383.373-1.78912.3086-3.12312-.1934-.00188-.001-.00578-.002-.00679-.0029-3.24121-1.2207-2.8584-2.5323-2.8027-2.6778l.0068-.0205.0078-.0166 1.08789-2.0752.168-.3134.164-.3165 4.99511-9.5214c.2198-.417.669-.6055 1.1182-.4688.4502.1387.7188.543.668 1.0127l-1.2207 11.2529-.0401.3653-.0029.0429-.03519.3184-.0957.8691-.0918.8497zm-3.7012.0957c.002.0009.0039.0039.0039.0039 1.0215.3828 1.709.4345 2.166.3613.07618-.0117.1455-.0283.211-.0469-.0664-.0205-.1309-.041-.1944-.0634-.06541-.0225-.1357-.0469-.2002-.0704-2.3349-.8808-3.2939-2.541-3.6699-3.5078l-.7549 1.4424c-.01459.1192-.01459.957 2.4385 1.8809m3.9043-13.9746c.1035.1396.2129.2763.3281.4072.0899.1006.18169.1973.2793.292l.06639-.6104c.02151-.2011-.10739-.3134-.23239-.3515-.0039-.001-.0097-.001-.01369-.002-.123-.0342-.2851-.0088-.375.1651zm.2119 1.1816c-.1904-.1816-.3642-.375-.5283-.5771l-1.0137 1.9335c.3086.5059.6914.9512 1.1465 1.3331.1319.1084.2686.2128.4121.3125l.2969-2.7247c-.1084-.0888-.2129-.1806-.3135-.2773m-.5019 3.3945c-.5381-.3974-.9971-.8691-1.3731-1.4091l-.9795 1.8691c.3379.6807.9326 1.5117 1.9639 2.168.1699.1084.35249.2109.5449.3086l.28709-2.6368c-.15229-.0957-.29979-.1953-.44329-.2998m-.48729 3.292c-1.0918-.6328-1.7832-1.4443-2.21291-2.1699l-.93849 1.793c.2822.7363 1.02249 2.0957 2.77048 2.9511.21091.1016.43652.1963.67582.2823l.2773-2.5606c-.20112-.0928-.39251-.1924-.5722-.2959m-4.33792 1.8799-.06839.1309c.0156.0664.041.1689.085.3017.251.7774 1.06739 2.544 3.4717 3.4229.2392.0879.4921.166.7636.2334.0303-.0479.0489-.0869.0547-.1074l.169-1.5381.038-.3653.0391-.3681.0127-.0977c-.0879-.0293-.1738-.0605-.2588-.0928-.1533-.0576-.2988-.1201-.4433-.1836-1.7217-.7832-2.6075-2.0127-3.0459-2.8945l-.6475 1.2402z" fill="#faea75"/><path d="m58.52538 63.9304c-3.8896 1.17-10.1426-3.166-10.1436-3.1679-.083-.0625-.1669-.125-.246-.1895-.1836-.126-.3623-.2764-.5303-.4521-.83992-.8721-1.086-1.9971-.5528-2.5108.293-.2773.754-.3174 1.2471-.1582.418.1348.8565.4131 1.2412.8125.458.4746.7383 1.0244.8125 1.5108s.4649 1.4697 3.9258.582c.6641-.3369 1.5625-.5039 2.5352-.4121 1.9013.1758 3.3535 1.2637 3.24609 2.4267-.0635.6905-.66409 1.252-1.53519 1.5586m-1.05961-1.9629c-.69821.3164-1.1494.836-1 1.1592.1455.3272.833.3321 1.5332.0156.6983-.3164 1.1455-.8359 1-1.1611s-.8339-.3301-1.5332-.0137m-9.207-2.163c.1953-.0655.2393-.462.0967-.8868-.1416-.4209-.416-.7119-.6123-.6455s-.2412.4629-.0987.8858c.0469.1426.1123.2685.1817.372.126.1875.27539.2989.39838.2832.01172-.0019.02252-.0039.03422-.0087" fill="#63392e"/><path d="m57.99897 63.1423c.6983-.3164 1.1455-.8369 1-1.1611s-.8339-.3301-1.5332-.0137c-.69821.3155-1.1474.836-1 1.1592.1455.3272.833.333 1.5332.0156" fill="#4c2922"/><path d="m48.35548 58.9187c-.1426-.4219-.416-.7129-.6123-.6455-.1953.0654-.2403.4629-.0987.8857.0469.1426.1114.2696.1817.3721.126.1885.27539.2988.39838.2832.01171-.0019.02251-.0039.03421-.0088.1953-.0664.2393-.4629.09671-.8867" fill="#4c2922"/><path d="m53.55667 66.4705c0 1.00581.8144 1.81831 1.8193 1.81831 1.0039 0 1.8174-.8125 1.8174-1.81831 0-1.0039-.8135-1.8194-1.8174-1.8194-1.0049 0-1.8193.8155-1.8193 1.8194" fill="#555759"/><path d="m54.27148 67.742c.1455.124.7988.6826 1.5146.4775.3721-.1064.5997-.3721.711-.502.0713-.0869.1328-.1709.1816-.2548-.4668-.3731-1.0166-.5479-1.7226-.7705-.52051-.1631-.8838-.2784-1.3262-.2842-.0107.1328-.002.27441.0303.42381.1152.48829.4472.77249.6113.91019" fill="#f495a8"/><path d="m55.46677 68.5798c-.457 0-.9414-.206-1.4004-.5947-.1719-.1484-.5762-.4931-.7129-1.081-.039-.169-.0527-.3448-.039-.5196.0127-.166.1513-.2939.3183-.292.4903.0039.8799.128 1.419.2979.7295.2305 1.3095.41499 1.8232.8252.1211.0967.1524.2695.0742.4053-.0625.1074-.1347.208-.2148.3007-.1172.1397-.3984.4668-.8613.6006-.1348.0381-.26759.0576-.4063.0576m.76561-1.0429c-.3691-.2256-.8066-.3643-1.3711-.54401-.3584-.1123-.6269-.1963-.8964-.2392.0019.0039.0019.0058.0029.0078.09079.3867.3613.6172.50879.7422.43651.373.85941.5146 1.22071.4092.2627-.07229.43549-.25879.5351-.37599" fill="#63392e"/><path d="m55.37598 68.6062c-1.1768 0-2.1358-.958-2.1358-2.1357 0-1.1778.959-2.1367 2.1358-2.1367 1.1777 0 2.1348.9589 2.1348 2.1367 0 1.1777-.9571 2.1357-2.1348 2.1357m0-3.6387c-.832 0-1.5049.6758-1.5049 1.503 0 .8301.6729 1.50391 1.5049 1.50391.8271 0 1.5029-.67381 1.5029-1.50391 0-.8272-.6758-1.503-1.5029-1.503" fill="#63392e"/><path d="m66.95117 28.742 1.33691-.2227-.8936-.917z" fill="#fffbdd"/><path d="m67.00488 27.449-1.30571.0654.86139 1.0791z" fill="#fffbdd"/><path d="m68.20698 27.8386.1875.1944-.35841-2.0879c-.1562.4053-.3183.8193-.47751 1.2295.21682.2217.43461.4453.64842.664" fill="#fffbdd"/><path d="m67.15427 27.0623v.0009l.082.0303z" fill="#fffbdd"/><path d="m67.65038 25.7839-1.7051 1.2999c.4024-.0196.8164-.042 1.2266-.0616.1592-.4131.32129-.831.4785-1.2383" fill="#fffbdd"/><path d="m66.19527 30.6287 1.2852-.8428c-.33791.0557-.6817.1113-1.0225.166z" fill="#fffbdd"/><path d="m65.80668 30.4783c.0878-.2256.1757-.4522.2636-.6787-.2129-.2705-.4316-.5449-.6435-.8125z" fill="#fffbdd"/><path d="m65.13377 27.4734c-.0566-.0703-.0615-.1328-.0566-.1728.0078-.0577.041-.1094.0966-.1524l.5997-.457c.7197-.5498 1.4589-1.1133 2.1875-1.669.0253-.0195.0908-.0683.17959-.0634l.02931.0078.0528.0205.0097.0078c.0684.0527.086.1201.0957.1728.19341 1.1221.3907 2.2793.5918 3.4405.0118.0742-.0048.1377-.0488.1884-.0508.0577-.1152.0674-.1367.0713l-1.6074.2686c-.1446.0224-.295.0498-.44141.0742-.05079.0088-.09569.0049-.13679-.0107-.0039-.003-.0078-.0049-.0117-.0059-.0351-.0156-.0664-.042-.0918-.0752-.334-.4189-.6738-.8447-1.0019-1.2578zm2.9023-1.5283c-.1562.4053-.3183.8193-.47751 1.2305.21681.2216.43461.4443.64841.663l.1875.1944zm.25201 2.5742-.89552-.917-.44139 1.1397zm-1.13381-1.457.082.0312zm-1.209.0215c.40429-.0196.8184-.042 1.2266-.0616.1592-.4131.3213-.831.4785-1.2383zm-.2441.4316.85939 1.0791.44431-1.1455z" fill="#f495a8"/><path d="m68.36327 29.2205c.043-.0078.1006-.0108.1602.0205.0615.0381.0996.1045.1015.1738.002.0723-.0342.1406-.0957.1826-.0703.0459-.1406.0918-.209.1367l-.4668.3057c-.6386.419-1.2998.8525-1.9492 1.2774-.0332.0244-.0879.0537-.1611.0507l-.01469-.0009-.084-.0313-.0127-.0127c-.0576-.0566-.07121-.123-.082-.1553-.248-.9775-.5049-1.9892-.7666-3.0088-.0058-.0312-.0273-.1132.0293-.1904.03709-.0547.09769-.0859.16409-.0888.06541-.002.12691.0263.16991.0791.03709.0488.07619.0966.1123.1425l.2012.2559c.30559.3867.622.7871.9345 1.1807.41608-.0655.8399-.1358 1.25-.2022zm-.88279.5654c-.336.0557-.6807.1113-1.0225.166l-.2627.6768zm-1.41021.0147c-.2129-.2706-.4316-.5459-.6445-.8125l.3789 1.4902c.08789-.2256.17581-.4522.2656-.6777" fill="#f495a8"/><path d="m70.45408 30.197c.1084.0508.2393.002.29099-.1064.0508-.1094.00201-.2402-.1064-.291-.1094-.0518-.2402-.0049-.291.1054-.05279.1104-.003.2403.10641.292" fill="#f495a8"/><path d="m62.68747 31.7644c.1084.0508.2393.002.291-.1064.0489-.1104.002-.2412-.1074-.292-.1103-.0508-.2412-.0039-.291.1064-.0527.1104-.00589.2403.1074.292" fill="#f495a8"/><path d="m62.69527 29.1482c-.0332-.0898-.1308-.1348-.22071-.1035l-.30859.1123-.1113-.3057c-.0312-.0898-.1318-.1347-.2207-.1035-.0898.0322-.1348.1319-.1035.2217l.1123.3066-.3057.1123c-.0898.0313-.1347.1319-.10352.2207.01562.045.05082.0782.08992.0967.039.0196.0859.0215.1308.0049l.3076-.1103.1123.3056c.0157.0449.0498.0781.0899.0967.039.0195.0849.0215.1318.0068.0879-.0322.1338-.1328.1026-.2216l-.1124-.3067.3057-.1123c.09179-.0322.1367-.1318.1035-.2207" fill="#faea75"/><path d="m72.58598 27.7205.3105-.1045c.0898-.0303.13869-.1279.1064-.2178-.0302-.0898-.1279-.1387-.2177-.1084l-.31061.1055-.10349-.3106c-.0312-.0898-.12891-.1377-.2187-.1064-.0899.0312-.13681.1289-.1075.2178l.1055.3115-.3105.1035c-.0899.0303-.1377.1279-.1075.2178.0166.0468.0508.082.0918.1025.0391.0176.084.0205.127.0059l.3105-.1045.1055.3105c.0146.0459.0479.0811.08891.0996.03899.0186.084.0215.1279.0069.0898-.0293.13869-.128.1074-.2178z" fill="#faea75"/><path d="m67.90427 31.9998c-.0918.0312-.13871.1289-.1084.2187l.1045.3106-.3086.1045c-.0908.0293-.1387.1279-.1074.2177.0156.0469.0488.0821.0898.1006.0391.0195.084.0215.128.0069l.3095-.1036.1035.3086c.0176.0469.0508.0821.0928.1016.0381.0185.084.0215.127.0068.0898-.0302.13959-.1279.1064-.2177l-.1045-.3096.3096-.1045c.0918-.0313.14059-.1279.1074-.2197-.02931-.0899-.1279-.1377-.2178-.1065l-.30951.1045-.10448-.3096c-.03131-.0918-.12891-.1396-.21781-.1093" fill="#faea75"/><path d="m70.45608 26.7283c.1084.0508.2392.0029.291-.1065.0508-.1093.0029-.2392-.10651-.292-.10929-.0498-.24019-.0029-.291.1065-.0517.1103-.0039.2412.10651.292" fill="#faea75"/><path d="m63.79877 26.6326c-.1093-.0518-.24022-.0039-.29.1055-.0508.1103-.0039.2402.1045.291.11129.0517.2402.0039.293-.1065.0498-.1094.00191-.2392-.1075-.29" fill="#faea75"/><path d="m57.29977 83.4675-5.03999 3.0743-5.8926 3.2812.207-2.0732-1.7187.1884 5.293-3.2607 3.31829-4.5273" fill="#d7723b"/><path d="m46.36718 90.1384c.0527 0 .1055-.0146.1523-.04l5.8946-3.2812c.0039-.002.0068-.0059.0097-.0059l5.0411-3.0762c.1464-.0898.1933-.2822.1035-.4326-.0899-.1494-.2832-.1973-.4346-.1064l-5.03421 3.07121-5.35738 2.9864.1465-1.4746c.0078-.0948-.0254-.1875-.0928-.2549s-.1611-.1026-.2568-.0908l-.3213.03609 4.0967-2.5215c.03508-.0224.0654-.0508.0879-.0849l3.3183-4.5284c.1035-.1396.0723-.3379-.0664-.4414-.1406-.1015-.3398-.0703-.4424.0684l-3.2802 4.4795-5.2403 3.2285c-.125.0781-.1806.2314-.13081.3711.04491.14059.18551.2275.332.2109l1.33011-.1465-.169 1.6875c-.0117.1162.041.2295.1416.295.04979.0332.11138.0507.17189.0507" fill="#63392e"/><path d="m47.14848 86.53-2.30861 1.4219 1.7168-.1894-.20511 2.0732 2.24612-1.3086z" fill="#555759"/><path d="m46.35156 90.1209c-.05369 0-.10739-.0157-.15429-.04691-.0899-.05669-.13872-.16209-.1289-.26559l.1718-1.7256-1.3691.1513c-.1309.0137-.2559-.0634-.2988-.1923-.0449-.1241.0058-.2637.1191-.3321l2.3106-1.42381c.1259-.0771.291-.0478.3789.0742l1.4502 2.001c.0459.0654.0654.1484.0488.2256-.0186.0781-.0674.1474-.1367.1875l-2.249 1.3066c-.04299.02741-.09569.04011-.14261.04011m.72262-3.211-1.0078.6192.461-.0489c.0839-.0117.1679.0186.2294.0782.0616.05949.09479.1455.0821.2314l-.1494 1.5215 1.49609-.8711z" fill="#63392e"/><path clip-path="url(#t)" d="m65.66598 77.5945-1.65041-1.8418s-.71379 5.1504-3.29779 6.9824l-.8877-2.084-8.2481 5.3145-5.02341 2.7002-.09958 1.1074 12.874-7.4785.21 2.3057c3.8887-1.0508 5.3291-4.8457 5.3535-4.8877l.2773-.4913.753 1.50591c1.67479-1.6797 1.4873-5.1201 1.4853-5.1572l-.02151-.333 1.61231.4277c-.0986-.27831-.1347-.9404-.3418-1.2744l-.4834-.6025-1.4785 1.18449-1.6455-.7734z" opacity=".1"/><path d="m50.18647 38.5828-.6611.8398c-.1153.1475-.0117.3623.1777.3623h.3086c.125 0 .2246.1026.2246.2256 0 .1231-.0996.2236-.2246.2236h-1.457c-.1221 0-.2246-.1005-.2246-.2236v-.1465c0-.0508.0175-.0996.0488-.1396l.6601-.8389c.1163-.1474.01181-.3623-.1748-.3623h-.3115c-.1211 0-.2226-.1016-.2226-.2256 0-.123.1015-.2236.2226-.2236h1.457c.125 0 .2256.1006.2256.2236v.1465c.00001.0498-.01848.0986-.0488.1387" fill="#a2dbe4"/><path d="m47.59176 35.3963-1.291 1.6396c-.1152.1465-.0117.3623.1738.3623h.9414c.1241 0 .2246.1006.2246.2236v.2842c0 .124-.1005.2246-.2246.2246h-2.664c-.1231 0-.22459-.1006-.22459-.2246v-.4297c0-.0507.01749-.1006.04879-.1396l1.293-1.6397c.11522-.1455.0107-.3623-.17778-.3623h-.93941c-.1231 0-.22459-.1006-.22459-.2256v-.2822c0-.124.10149-.2246.22459-.2246h2.664c.1241 0 .2246.1006.2246.2246v.4307c-.00001.0498-.01661.0986-.04881.1387" fill="#a2dbe4"/><path d="m38.19238 29.3513-2.2558 2.8623c-.1162.1465-.01269.3614.1758.3614h1.9033c.125 0 .2265.1025.2265.2265v.7178c0 .123-.1015.2236-.2265.2236h-4.50779c-.125 0-.22661-.1006-.22661-.2236v-.8643c0-.0507.0195-.0996.0488-.1396l2.25782-2.8623c.11528-.1475.01178-.3633-.17572-.3633h-1.90429c-.125 0-.22661-.1006-.22661-.2246v-.7168c0-.124.10161-.2256.22661-.2256h4.50779c.125 0 .2265.1016.2265.2256v.8633c0 .0508-.01751.0996-.0498.1396" fill="#a2dbe4"/><path d="m43.65517 31.2576-2.0576 2.6103c-.11518.1465-.0107.3623.17582.3623h1.70509c.123 0 .2256.0996.2256.2246v.627c0 .125-.1026.2256-.2256.2256h-4.127c-.125 0-.2236-.1006-.2236-.2256v-.7734c0-.0489.0166-.0996.0478-.1387l2.0586-2.6094c.1153-.1465.0098-.3623-.1758-.3623h-1.707c-.125 0-.2236-.1006-.2236-.2246v-.6279c0-.1241.0986-.2256.2236-.2256h4.127c.123 0 .2256.1015.2256.2256v.7734c-.00001.0518-.0166.0996-.04891.1387" fill="#a2dbe4"/><g opacity=".5"><path clip-path="url(#u)" d="m45.36818 97.4216c-.18261-.0224-.35262-.0507-.5108-.083.1641.0303.33599.0577.5108.083" fill="#d27c90"/><path clip-path="url(#v)" d="m44.85548 97.3386h.0019c-.0703-.0136-.1416-.0224-.2109-.0361-.06741-.0166-.00592-.0068.209.0361" fill="#d27c90"/><path clip-path="url(#w)" d="m82.98438 49.2273 6.6758 14.5098c.6562 2.707.6347 5.539-.0645 8.2363l-2.8359 10.9482c-1.6914 6.5293-7.0938 11.4346-13.7559 12.4873l-13.3398 2.1104c-3.7188.5869-10.1309.55569-14.2949-.0986 2.6816.3545 7.8496-.2989 21.2695-2.4844 14.3262-2.3369 17.9072-9.3438 18.6328-11.6289.7275-2.2832 3.375-17.33601 3.375-18.7598 0-1.4219-4.15331-8.1279-6.77831-15.2461-2.6172-7.1025-8.8252-11.4326-8.8545-11.4521 4.8945 1.8955 8.6894 6.0879 9.97071 11.3779" fill="#333"/></g><path clip-path="url(#x)" d="m44.10347 63.6062-3.6113 1.8535-.5918 1.9287-1.1269.3848.455-1.3769s-3.8154 1.7597-4.7314 2.2011c-.918.44241-3.6807 7.4707-.1221 13.2998 0 0-4.3848-4.1963-4.23242-7.1699.15042-2.9736.43361-6.3223 5.66992-7.9385l2.8213-1.2734 5.9463-4.65231z" opacity=".1"/><path clip-path="url(#y)" d="m36.96188 82.3386 1.0459 1.4278s-2.3125 5.5019 1.3946 5.72359l-1.0801 1.4971-2.1699.3486z" opacity=".1"/><path clip-path="url(#z)" d="m66.9375 74.76017-.67673-1.93617-1.7745 1.5156-1.00189-.2119-1.7295.7314-1.6885-1.0361-3.6289 2.7979-3.707-2.9287-4.291-.3741 5.30469-.8398 2.54981 1.6709 3.9091-2.1319 1.85748.7129 1.38671-1.0722 1.5049 1.0996 1.622-1.7949 1.17781.9257.41468 1.97593z" opacity=".1"/><path clip-path="url(#A)" d="m51.81056 80.1502-8.57228 5.4052 7.9531-2.2138 1.3301-1.9014z" opacity=".1"/><g fill="#fff"><path d="m15.39584 28.89207c.08744-.05071.18488-.06261.28745-.0356.09681.0261.17299.0862.22532.17608.16787.28957.42049.72512.75786 1.30672-.14436.08474-.36214.2094-.65171.37727-.16703-.28958-.4188-.72512-.75616-1.30672-.14436.08389-.36298.21025-.655.37889.16787.29042.42048.72512.757 1.30756-.14436.08389-.36213.21016-.65087.37634-.16703-.28949-.42048-.72427-.75701-1.30663-.08389-.14436-.2094-.36138-.37642-.65087-.08474-.14436-.1894-.32674-.31574-.54528-.12628-.21862-.27331-.47271-.44118-.7606.14436-.08474.36214-.2094.65088-.37727.21861-.12627.54611-.31576.98335-.56914.08904-.05156.18327-.06506.28415-.03973.10087.02854.17545.08704.227.17607.12628.21786.31575.54536.56914.98251.05071.08743.06421.18251.03973.28422-.02941.09929-.09035.17547-.17779.22618zm-.51444-.13396c-.01582-.02559-.03828-.06437-.06814-.11547-.06987-.12046-.17368-.30106-.31245-.53953-.14521.08398-.36298.21025-.65585.37889.08398.14436.2111.36383.37974.65501.14851-.08391.36798-.21103.6567-.3789z"/><path d="m16.45917 26.9706c.16703.28873.29423.50735.37897.65416.43716-.25262.76465-.44203.98327-.56923.16703.29042.29253.50735.37558.65172-.43554.25262-.76389.44287-.98166.56922.16618.2895.29329.50735.37889.65501.5816-.33652 1.01799-.58829 1.30673-.75616.16617.28873.29328.50735.37726.65171-.58.33482-1.0147.58659-1.30757.75608-.28957.16788-.50566.29338-.65086.37727-.16789-.29034-.29415-.50735-.37728-.65171-.08636-.1485-.15954-.27632-.22427-.3852-.06239-.10973-.11471-.19885-.15623-.27057-.18949-.3275-.31575-.54451-.37726-.65095-.18941-.3275-.31577-.54604-.3789-.65492-.18778-.32506-.31405-.54198-.37719-.65095.32828-.18941.54528-.31491.65163-.37719.65501-.37889 1.09064-.63151 1.30587-.75616.18863.32421.31413.54113.37642.65087-.57659.33574-1.01214.58752-1.3034.757z"/><path d="m21.51354 26.66223c.16703.28949.29329.50735.37643.65172-.65171.37803-1.08726.62981-1.30672.75608-.24092.14047-.4042.23433-.48674.28172-.08244.049-.13692.07972-.16328.09554-.47367-.81753-.86754-1.4989-1.1816-2.04172-.31574-.54367-.55093-.95032-.70791-1.22174.3275-.18949.54443-.31575.65087-.37642.75531 1.30427 1.25885 2.17451 1.51309 2.61259.58235-.33821 1.01629-.58998 1.30586-.75777z"/><path d="m24.50332 25.80001c-.1452.08474-.36298.21016-.65171.37719-.16779-.28957-.4188-.72512-.75608-1.30672-.14437.08313-.36298.21025-.65501.37898.16703.29034.41956.72512.75609 1.30748-.14353.08389-.36131.20855-.65088.37642-.14209-.24582-.35558-.61463-.64062-1.10711-.11802-.20375-.26589-.45784-.44202-.7622-.17783-.30689-.38391-.66405-.61985-1.07079-.05155-.08912-.06346-.18573-.03568-.2866.02618-.09926.08544-.17384.17616-.22786.28873-.16702.72427-.41964 1.30587-.75616.08827-.05232.18242-.06497.28498-.03973.09927.02778.17553.08704.22541.17616.3805.65585.94887 1.63582 1.70334 2.94094zm-1.78507-1.5804c-.01497-.02551-.03735-.06428-.06646-.11548-.06985-.12046-.17451-.30106-.31413-.53953-.14352.08313-.36298.21025-.65501.37897.08482.14436.2111.36374.37897.65492.14929-.08474.36791-.21101.65663-.37888z"/><path d="m25.7141 22.91774c.80079.50576 1.40114.88487 1.80027 1.13894-.32505.18779-.56842.32903-.73095.42381-.49192-.3456-.86051-.60476-1.10656-.7784.05477.59907.09671 1.04847.12329 1.34754-.32336.18778-.56758.32903-.7301.42296-.03935-.94702-.07043-1.65677-.09179-2.12858-.90009-.56748-1.49958-.9449-1.79856-1.13488.36551-.21186.6088-.3531.73095-.42296.55077.38671.91937.64511 1.10485.77341-.06159-.67089-.10183-1.11785-.12234-1.34255.36543-.21271.60956-.35311.73086-.42381.04461 1.06183.07408 1.77083.09008 2.12452z"/><path d="m30.03371 22.59762c-.14521.0839-.36129.2094-.65171.37719-.16786-.29034-.4188-.72512-.75617-1.30748-.14436.08389-.36298.21025-.655.37974.16703.28958.4188.72512.75616 1.30672-.14351.08474-.36129.20931-.65087.37719-.1421-.24582-.35566-.61539-.64147-1.10787-.11801-.2029-.26503-.45785-.44126-.76144-.17773-.30689-.38467-.66405-.62062-1.07154-.05241-.08827-.06261-.18412-.03644-.28669.0261-.09842.08536-.17384.17608-.22616.28873-.16787.72512-.41965 1.30672-.75693.08743-.05071.18327-.06421.28422-.03973.09919.02855.17376.08781.22616.17608.38136.65583.94804 1.63589 1.7042 2.94092zm-1.78346-1.58032c-.01574-.02644-.0382-.06437-.06815-.11556-.06977-.12122-.17443-.30106-.31234-.54029-.14522.0839-.36299.21025-.65502.37974.08474.14436.21016.36298.37974.655.14766-.08475.36544-.2111.65577-.37889z"/><path d="m31.13313 18.47194c-.28873.16787-.5065.29329-.65087.37719.75862 1.30756 1.26216 2.17789 1.51317 2.61259-.32835.18949-.54612.3166-.655.37974-.75615-1.30503-1.2597-2.1762-1.51233-2.61336-.32582.18855-.54283.31405-.65171.37719-.09385-.16253-.17281-.29946-.23594-.4075-.06313-.10889-.10968-.19057-.14124-.24252.97997-.56837 1.63338-.94556 1.95759-1.13335.16693.28873.29328.5065.37633.65002z"/><path d="m31.41256 17.44217c.10889-.06313.32506-.18863.65087-.37727.23518.40674.70877 1.22343 1.41838 2.44837.07896.13617.23603.40674.47197.81508-.10644.06152-.32336.18694-.65171.37727-.21017-.36468-.47198-.81669-.78772-1.35951-.31406-.54366-.6813-1.17882-1.10179-1.90394z"/><path d="m34.8638 15.87518c.33652.58075.84006 1.45193 1.51148 2.6126.05402.09157.06667.18571.04058.28413-.02701.10341-.08542.17959-.17369.23115-.29203.16864-.72757.42126-1.30587.75608-.09157.05318-.18657.06507-.28669.03644-.10087-.02524-.17712-.08204-.2303-.17361-.12627-.21947-.31567-.54697-.5683-.98336-.10474-.17984-.23433-.40505-.39054-.67317-.15953-.27462-.34315-.59394-.5534-.95607-.05148-.08912-.06337-.18488-.03559-.28669.02611-.09918.08544-.17375.17616-.22693.28873-.16787.72428-.41964 1.30588-.75616.08827-.05156.18242-.06506.28413-.03973.0984.02695.17382.0862.22615.17532zm.01783 3.04531c.14765-.08475.36626-.21187.65499-.37974-.01667-.02881-.04161-.07257-.07479-.12781-.23434-.40751-.58829-1.01884-1.06026-1.83299-.14606.0839-.36383.21017-.65669.3789.12634.21862.31574.54528.56675.97837.12788.21862.31737.54688.57.98327z"/><path d="m37.47556 14.36209c.37888.65501.94725 1.63498 1.70173 2.9401-.14522.0839-.36131.20855-.65088.37634-.33651-.58076-.84175-1.45269-1.51309-2.61251-.14352.08389-.36298.21101-.65501.37965.33736.58075.84091 1.45278 1.51224 2.6126-.14352.08397-.36129.2094-.65087.37727-.21101-.36467-.47273-.81669-.78688-1.35952-.3149-.54358-.68299-1.17882-1.10348-1.90394.14521-.0839.36222-.2094.65171-.37727.21777-.12542.54612-.31652.98251-.56914.08828-.05156.18411-.06506.28422-.03973.10089.02862.17631.08788.2278.17615z"/><path d="m43.13344 12.82949c.08743-.05147.18497-.06337.28753-.03636.09673.0261.17376.0862.22617.17608.16694.28958.41957.72512.75693 1.30672-.14436.08474-.36214.2094-.6517.37727-.16704-.28958-.41881-.72512-.75609-1.30672-.14521.08313-.36383.21025-.65499.37889.16617.29043.4187.72512.75607 1.30757-.14437.08305-.36129.20855-.65171.37634-.16618-.2895-.4187-.72428-.75608-1.30664-.08398-.14436-.2094-.36138-.37727-.65087-.0839-.14521-.18864-.32675-.31405-.54528-.12712-.21862-.27424-.47271-.44211-.76144.14521-.0839.36138-.20855.65171-.37643.21777-.12711.54527-.3166.98337-.56914.08826-.05241.18241-.0659.28413-.03973.09927.02779.17554.08704.22617.17608.12551.21786.31575.54528.56923.98251.05148.08743.06421.18242.04058.28422-.02951.09927-.09046.1763-.17789.22693zm-.51442-.13303c-.01659-.02559-.03821-.06437-.06816-.11556-.06892-.12038-.17366-.30107-.31159-.53945-.14521.08305-.36382.21017-.65585.37889.08474.14436.21109.36374.37973.65501.14766-.08475.36713-.2111.65587-.37889z"/><path d="m45.31409 9.82359c.33652.5816.84006 1.45185 1.51148 2.6126.05394.09157.06667.18487.04049.28329-.02693.10341-.08617.17959-.17361.23115-.29202.16949-.72757.42211-1.30672.75616-.09072.05394-.18657.06499-.2866.03644-.10095-.02533-.17712-.08213-.23115-.17369-.12627-.21946-.31576-.54612-.56838-.98336-.10465-.17984-.23433-.4042-.39054-.67308-.15869-.27471-.34399-.59402-.5534-.95615-.05232-.08903-.06337-.18403-.03559-.2866.02618-.09926.08459-.17383.17616-.22701.28873-.16703.72428-.4188 1.30588-.75616.08828-.05071.18327-.06506.28422-.03973.10001.02861.17543.08702.22776.17614zm.01782 3.04616c.14766-.0856.36627-.21271.65501-.37889-.01668-.02974-.04161-.07256-.07479-.12865-.23603-.40758-.58998-1.01883-1.06196-1.83307-.14436.08398-.36298.21025-.655.37974.1255.21777.31575.54443.56667.97752.12796.21861.31745.54611.57007.98335z"/><path d="m47.92583 8.3105c.33652.5816.84091 1.45269 1.51148 2.61336.05394.09072.06667.18495.04134.28337-.02777.10342-.08618.17959-.17446.23031-.29202.16949-.72756.42126-1.30503.75607-.0924.05403-.18741.06592-.28753.03644-.10086-.02448-.17712-.08204-.23029-.17276-.12629-.22031-.31577-.54697-.56831-.98336-.10473-.18069-.23433-.40505-.39054-.67401-.15953-.27386-.34315-.59309-.55341-.95607-.05156-.08827-.06337-.18412-.03559-.28669.02609-.09842.08535-.17375.17616-.22617.28949-.16779.72428-.41956 1.30587-.75692.08827-.05156.18242-.06506.28413-.04058.09929.02948.17471.08874.22618.17701zm.01944 3.04616c.14766-.08644.36543-.21186.655-.37974-.01744-.02973-.04152-.07256-.07479-.12865-.23593-.40674-.58989-1.01883-1.06187-1.83307-.14521.08474-.36298.21025-.65501.37974.12627.21777.31577.54451.56667.97837.12797.21861.31577.54612.57.98335z"/><path d="m51.8443 6.04125c.37889.65501.94727 1.63583 1.70258 2.9401-.14437.08305-.36221.20931-.65096.37634-.33728-.58075-.8425-1.45268-1.51393-2.61251-.14351.08474-.3629.21016-.65416.37973.33652.58075.84091 1.45269 1.51317 2.61251-.1452.08398-.36298.2094-.65171.37727-.33652-.5816-.84091-1.45269-1.51231-2.6126-.14523.08313-.363.21025-.65578.37889.33652.5816.84167 1.45353 1.5131 2.61344-.14523.0839-.36139.20855-.65173.37643-.14209-.2459-.35566-.61463-.64062-1.10711-.11886-.20375-.26512-.45785-.44125-.7622-.17783-.30689-.38469-.66413-.62071-1.07078-.05231-.08912-.06253-.18573-.03559-.28753.02618-.09842.08459-.17299.17616-.22617.21532-.12457.54198-.31405.97837-.56667.09157-.05318.18571-.06752.28414-.03973.10341.02701.17959.08457.23115.17369-.05233-.08912-.06506-.18327-.04058-.28422.02778-.10003.08704-.17545.17616-.22693.21778-.12635.54528-.31576.98336-.56923.08743-.05147.18327-.06497.28413-.04058.10088.03033.17545.08959.22701.17786z"/><path d="m13.04425 31.27803-.23199 1.54812c-.02063.13827.127.24043.24788.1715l.61344-.34981c.08087-.04612.18374-.01791.22944.06224l.10561.18519c.04608.0808.01797.1837-.0629.22981l-1.73592.98991c-.08021.04574-.18373.0179-.2298-.0629l-.15967-.28c-.01884-.03304-.02599-.07205-.02008-.1091l.23326-1.54892c.02101-.13762-.12765-.24006-.25047-.17002l-.61214.34908c-.08021.04574-.18373.0179-.23018-.06355l-.10486-.18389c-.04608-.0808-.01733-.18406.06289-.22981l1.73592-.98991c.08087-.04611.18374-.0179.22981.0629l.16004.28065c.01849.03245.02581.07041.01972.10851"/><path d="m8.94121 30.04395-.37082 2.4655c-.02062.13826.12765.24006.24919.17075l1.11107-.63359c.08015-.0457.18402-.01893.23046.06252l.23299.40857c.04645.08146.01697.18513-.06318.23084l-2.68924 1.53354c-.08145.04645-.18308.01754-.22953-.06392l-.28739-.50396c-.01817-.03186-.02619-.07107-.02039-.10814l.37181-2.46529c.02069-.13831-.12824-.23972-.24918-.17076l-1.11232.6343c-.08145.04645-.18308.01753-.22916-.06327l-.23332-.40915c-.04611-.08087-.01958-.18364.06187-.23009l2.68924-1.53354c.08015-.04571.18472-.01769.23084.06318l.28738.50396c.01925.03375.02619.07107.01968.10855"/></g></svg>