<svg xmlns="http://www.w3.org/2000/svg" width="110.852" height="127.094" viewBox="8.893 -8.5 110.852 127.094"><path fill="#397EE2" d="M119.744 87.5l-55.426 32-55.425-32v-64l55.425-32 55.426 32z"/><path fill="#64A0FF" d="M64.818 2.678l46 26.551v53.129l-10.425 6.021-.247.12-.124.06-.117.059-1.083.62-1.902 1.101-.101.059-1.001.581-4 2.31-2 1.159-2 1.16-.859.5-.141.08-4 2.311-3 1.739-.359.21-1.641.95-1.37.79-1.17.68-2.46 1.421-2 1.159-.95.551-.05.029-1 .571-.45.259-.55.321-3 1.74-.37-.21-3.55-2.061-2.71-1.57-.139-.079-2.25-1.301-.011-.01-.46-.259-.295-.13-3.215-1.82v-.01l-5.064-2.97-1.707-1-.244-.15-1.047-.58-24.938-14.411V29.229z"/><path d="M61.154 12.513c1.742 1.677 3.499 3.34 5.221 5.037 2.23 2.2 4.436 4.427 6.65 6.644 1.016 1.018 1.031 1.984.037 2.98-3.637 3.64-7.273 7.28-10.915 10.917-.871.87-1.704 1.056-2.415.478-.24-.195-.453-.581-.457-.882-.038-2.357-.021-4.714-.021-7.072v-.832c-.891.099-1.709.141-2.508.285-7.012 1.27-12.743 4.7-17.014 10.403-4.178 5.58-5.923 11.916-5.188 18.851.647 6.111 3.166 11.395 7.452 15.83 2.021 2.092 4.391 3.701 6.884 5.162 1.954 1.146 2.67 3.834 1.609 5.834-1.126 2.129-3.622 3.088-5.716 2.112-2.818-1.311-5.293-3.143-7.61-5.198-2.602-2.312-4.784-4.973-6.593-7.932a35.592 35.592 0 0 1-4.076-9.624 35.546 35.546 0 0 1-1.158-9.368c.068-6.747 1.92-12.993 5.503-18.708 2.228-3.555 5.012-6.615 8.326-9.204 2.102-1.643 4.344-3.055 6.749-4.171 3.97-1.843 8.137-3.032 12.529-3.292.651-.038.844-.224.829-.876-.044-1.876.037-3.755-.04-5.628-.035-.85.217-1.395.958-1.748.323.002.643.002.964.002zm6.317 85.973c-2.16-2.096-4.333-4.185-6.48-6.297-1.827-1.795-3.627-3.617-5.437-5.431-.969-.973-.968-1.954.008-2.932 3.635-3.642 7.274-7.279 10.916-10.916.496-.495 1.035-.912 1.811-.765.664.125 1.023.527 1.029 1.201.021 2.334.035 4.668.049 7 .002.25 0 .498 0 .863.885-.096 1.721-.139 2.537-.283 4.305-.766 8.25-2.397 11.711-5.08 5.793-4.488 9.297-10.352 10.346-17.629.85-5.881-.219-11.424-3.076-16.623-2.438-4.436-5.88-7.893-10.295-10.364-1.51-.844-2.686-1.918-2.896-3.736-.199-1.723.363-3.184 1.764-4.215 1.341-.987 2.865-1.26 4.41-.535 2.791 1.311 5.255 3.119 7.559 5.157 2.623 2.321 4.814 5.002 6.637 7.98a35.36 35.36 0 0 1 4.138 9.89c1.274 5.072 1.448 10.188.501 15.312a34.838 34.838 0 0 1-4.881 12.438 36.468 36.468 0 0 1-8.424 9.295c-3.996 3.113-8.455 5.258-13.338 6.481-1.94.488-3.959.688-5.953.931-.604.074-.758.239-.748.817.035 1.875-.035 3.754.035 5.629.032.851-.168 1.453-.957 1.81-.326.002-.646.002-.966.002z" fill="#397EE2"/><path fill="#127DDD" d="M85.984 45.312a2.286 2.286 0 0 0-.56-.064c-1.002-.933-3.339-.79-4.405-.645-.063.008-.131.02-.196.031-.78-.254-1.604.287-2.253.96-.12.081-.237.167-.353.256a1.764 1.764 0 0 0-.579-.45c-.561-.273-1.08-.22-1.551.019-.367-.521-1.072-.799-1.677-.436a8.368 8.368 0 0 0-1.106.794c-.035-.634-.466-1.211-1.291-1.136-2.179.2-5.109-.078-7.554.511-.603.094-1.199.221-1.787.394a1.113 1.113 0 0 0-.508-.122c-2.362-.003-4.721-.111-7.083-.121-1.851-.008-4.344-.222-6.017.732-.074.042-.144.087-.213.131-.382-.763-1.595-1.105-2.001-.123-.938 2.261-2.052 6.393-.411 8.562.048.063.105.122.167.176.035.456.071.911.103 1.363-.037.097-.067.2-.081.322a69.403 69.403 0 0 0-.253 3.184c-.109 1.197-.195 2.41-.132 3.591l-.012.993c-.002.308.088.553.231.74.174.819.457 1.615.897 2.368.235.401.941.599 1.351.374.355-.193.649-.385.925-.628a.948.948 0 0 0 .565.231c.084.004.167.015.25.021 1.415 1.165 3.293 1.21 5.063 1.213.441 0 .726-.181.883-.441.855.65 1.96.681 3.39-.314a.84.84 0 0 0 .136-.117c.624.002 1.248-.015 1.869-.046.961.146 1.918.433 2.854.63 1.707.359 3.321.457 4.971-.185.248-.097.432-.274.551-.495.145-.01.285-.025.425-.052.175.015.351.028.526.042.686.113 1.371.234 2.059.342.402.747 1.305.715 1.914.255.721.075 1.446.12 2.176.116.446-.004.822-.242 1.078-.57l.35-.016c.115.009.234.005.355-.018.178-.01.354-.016.53-.022.017.097.024.192.041.289.188 1.085 1.927 1.341 2.397.336.097-.206.186-.414.271-.622.61.018 1.224.032 1.83.012.555.457 1.34.362 1.778-.188l.035-.006c.711-.146 1.275-.928 1.026-1.644.206-2.11-.026-4.223-.315-6.317.051-.639.105-1.275.119-1.91.008-.018.02-.035.027-.053 1.066-2.429 1.012-5.891.295-8.404.254-.276.446-.604.561-.99.359-1.215-.463-2.558-1.661-2.853z"/><path fill="#3BABFF" d="M87.664 46.407c-1.143-1.022-2.852-.589-4.293-.606-1.74-.022-3.48.199-5.221.199H50.389c-1.56 0-3.544-.453-4.646.833-.304.354-.278.884.015 1.234 1.136 1.35 3.302.933 4.903.933h31.03c1.881 0 4.427.454 5.947-.812.499-.413.505-1.354.026-1.781z"/><path fill="#FFF" d="M79.771 31.422c-1.844-.37-3.698-.249-5.555-.035-1.88.218-3.504.199-5.365-.178-1.693-.344-3.369-.719-5.107-.689-1.756.032-3.472.358-5.162.802-.007-.015-.012-.03-.02-.044-.467-.904-1.559-1.168-2.287-.37-.95 1.042-1.152 2.728-.879 4.225a6.563 6.563 0 0 0-.284 1.834c-.004.654.462 1.091 1.004 1.224 0 .503.048 1 .17 1.489a1.172 1.172 0 0 0-.082.202c-.397.478-.422 1.285.029 1.805-.249.729.053 1.61 1.028 1.61l2.89-.001c.112 0 .215-.011.314-.03 4.299-.063 8.598-.211 12.896-.254 1.947-.02 4.05.226 5.439-1.388 1.047-1.218 1.02-3.176.729-4.65a1.338 1.338 0 0 0-.193-.464c.396-1.081.875-2.126 1.339-3.184.341-.771-.025-1.726-.904-1.904z"/><path fill="#D6D6D6" d="M79.266 42.101c-1.063-1.699-3.936-1.146-5.67-1.148l-6.07-.006c-2.072-.001-4.146-.008-6.22-.015-1.011-.003-2.021-.008-3.031-.008-1.142 0-2.248-.181-2.99.814-.309.415-.455 1-.117 1.456 1.132 1.527 3.62.966 5.324.96 2.461-.008 4.922-.016 7.384-.017 2.133-.001 4.266-.003 6.396-.006 1.608-.002 3.998.393 5.004-1.166.162-.25.143-.617-.01-.864z"/><g fill="#030928"><path d="M90 72H42.595c-.04 0 .64.113.593.066-.635-.634-1.188-1.048-1.188-1.683V38.246c0-.929-1.375-1.267-2.09-1.347-.142-.041-1.014.101-1.185.101H28c-2 0-2 3 0 3h10v30.596c0 .459-.145.817.089 1.075.054.306.049.599.281.831.672.671 1.27 1.344 1.943 2.018.213.213.44.051.719.113.224.388.568.367 1.113.367H90c3 0 3-3 0-3z"/><path d="M45.301 70h42.607c.525 0 1.039-.176 1.294-.488.391-.254.798-.657.798-1.283V45.084c0-.162-.146-.299-.182-.435.036-.815-.593-1.649-1.647-1.649h-7.176c.048 0 .005-.353.005-.546V30.882c0-.416-.128-1.258-.375-1.485C80.398 28.9 79.959 28 79.23 28h-24.2c-.697 0-.858.974-1.025 1.537-.172.213-.005 1.008-.005 1.345v11.572c0 .193-.519.546-.471.546H45.3c-.053 0-.106-.007-.159-.003-.418.034-.743.194-.976.432-.238.233-.264.555-.297.973-.004.053.132.103.132.157V68.23c0 .182-.112.312-.07.461.091.705.454 1.309 1.371 1.309zM87 46v9H47v-9h40zM47 58h40v9H47v-9zm10-15.546V31h20v11.454c0 .193.939.546.99.546H66.894l3.797-8.798-1.482-.65L65.137 43h-8.602c.048 0 .465-.353.465-.546zm-6.439 35.464c-3.264 0-5.917 2.654-5.917 5.917s2.654 5.918 5.917 5.918 5.918-2.655 5.918-5.918-2.655-5.917-5.918-5.917zm33.402 0c-3.263 0-5.917 2.654-5.917 5.917s2.654 5.918 5.917 5.918c3.264 0 5.92-2.655 5.92-5.918s-2.656-5.917-5.92-5.917z"/><path d="M63 35.264l-5 2.89v1.391l5 2.897v-1.816l-3.732-1.768L63 37.091zm13 2.902l-5-2.898v1.816l3.727 1.773L71 40.62v1.827l5-2.89z"/></g><path d="M18.729 29.234v53.12l46.074 26.561 46.073-26.561v-53.12L64.804 2.674l-46.075 26.56zm90.283 1.08v50.97l-44.209 25.49-44.211-25.49v-50.97L64.803 4.825l44.209 25.489z" opacity=".13"/></svg>