<?xml version="1.0" encoding="utf-8"?>
<!-- Generator: Adobe Illustrator 16.0.0, SVG Export Plug-In . SVG Version: 6.00 Build 0)  -->
<!DOCTYPE svg PUBLIC "-//W3C//DTD SVG 1.1//EN" "http://www.w3.org/Graphics/SVG/1.1/DTD/svg11.dtd">
<svg version="1.1" xmlns="http://www.w3.org/2000/svg" xmlns:xlink="http://www.w3.org/1999/xlink" x="0px" y="0px"
	 width="110.979px" height="128.417px" viewBox="0 0 110.979 128.417" enable-background="new 0 0 110.979 128.417"
	 xml:space="preserve">
<g id="Layer_1">
</g>
<g id="Layer_4">
	<g id="Layer_63">
		<polygon fill="#15003E" points="110.849,96.417 55.423,128.417 0,96.417 0,32.417 55.423,0.417 110.849,32.417 		"/>
		<polygon fill="#FFFFFF" points="101.926,38.143 101.926,91.274 101.917,91.284 100.497,92.103 94.216,95.723 91.497,97.293 
			91.256,97.414 91.126,97.473 91.016,97.534 87.986,99.274 86.117,100.353 86.077,100.383 82.827,102.263 81.957,102.774 
			80.577,103.564 79.117,104.414 78.936,104.513 78.917,104.524 77.207,105.513 76.247,106.064 71.626,108.734 70.997,109.103 
			70.936,109.133 67.436,111.154 63.396,113.484 63.386,113.494 62.957,113.744 55.876,117.833 48.306,113.454 48.266,113.433 
			46.197,112.234 40.836,109.133 40.146,108.734 35.056,105.793 34.667,105.564 34.176,105.284 33.846,105.093 31.997,104.024 
			31.426,103.694 29.716,102.704 27.207,101.253 24.296,99.574 24.207,99.524 19.537,96.824 17.426,95.603 9.926,91.274 
			9.926,38.143 24.256,29.864 26.247,28.713 31.176,25.874 32.756,24.963 32.926,24.864 34.586,23.914 35.747,23.244 37.287,22.343 
			37.806,22.043 40.086,20.734 40.776,20.333 42.236,19.494 47.957,16.194 48.417,15.933 54.486,12.423 55.926,11.593 
			56.986,12.204 63.476,15.954 78.006,24.343 79.046,24.944 81.346,26.263 82.216,26.763 83.736,27.643 85.106,28.433 
			85.907,28.893 85.997,28.944 87.806,29.984 91.586,32.173 91.626,32.194 91.626,32.204 91.886,32.353 92.546,32.734 
			94.006,33.574 95.947,34.694 96.726,35.143 97.167,35.393 99.106,36.513 		"/>
	</g>
	<g id="Layer_2_6_">
		<g id="Layer_16_5_">
			<path opacity="0.13" enable-background="new    " d="M9.826,38.141v53.121l46.072,26.559l46.074-26.559V38.141L55.898,11.58
				L9.826,38.141z M100.107,39.221v50.971l-44.209,25.489L11.687,90.192V39.221l44.211-25.489L100.107,39.221z"/>
		</g>
	</g>
	<g>
		<line fill="#25E899" x1="33.567" y1="67.992" x2="33.567" y2="60.992"/>
	</g>
	<g>
		<path fill="#15003E" d="M33.567,68.486c-0.273,0-0.495-0.221-0.495-0.494v-7c0-0.273,0.221-0.494,0.495-0.494
			c0.272,0,0.494,0.221,0.494,0.494v7C34.061,68.265,33.839,68.486,33.567,68.486z"/>
	</g>
	<g>
		<line fill="#15003E" x1="33.567" y1="85.843" x2="33.567" y2="79.552"/>
	</g>
	<g>
		<path fill="#15003E" d="M33.567,86.339c-0.273,0-0.495-0.223-0.495-0.496v-6.291c0-0.273,0.221-0.494,0.495-0.494
			c0.272,0,0.494,0.221,0.494,0.494v6.291C34.061,86.117,33.839,86.339,33.567,86.339z"/>
	</g>
	<g>
		<line fill="#25E899" x1="44.154" y1="62.385" x2="66.948" y2="62.385"/>
	</g>
	<g>
		<rect x="44.154" y="61.89" fill="#15003E" width="22.794" height="0.989"/>
	</g>
	<g>
		<polygon fill="#15003E" points="44.154,62.385 44.401,65.726 46.659,68.777 48.638,68.964 55.881,69.671 63.306,69.138 
			65.796,67.412 66.948,64.127 66.454,62.385 		"/>
	</g>
	<g>
		<path fill="#15003E" d="M61.679,69.89H49.422c-3.177,0-5.763-2.586-5.763-5.763v-7.428c0-0.273,0.221-0.495,0.495-0.495h22.794
			c0.272,0,0.494,0.222,0.494,0.495v7.428C67.442,67.304,64.857,69.89,61.679,69.89z M44.648,57.193v6.934
			c0,2.632,2.142,4.773,4.774,4.773h12.257c2.633,0,4.774-2.141,4.774-4.773v-6.934H44.648z"/>
	</g>
	<g>
		<path fill="#25E899" d="M57.778,62.676c0-1.3-1.054-2.354-2.354-2.354s-2.354,1.054-2.354,2.354s1.054,2.353,2.354,2.353
			S57.778,63.976,57.778,62.676"/>
	</g>
	<g>
		<path fill="#15003E" d="M55.424,65.525c-1.57,0-2.848-1.279-2.848-2.849s1.278-2.849,2.848-2.849s2.848,1.278,2.848,2.849
			S56.995,65.525,55.424,65.525z M55.424,60.817c-1.024,0-1.858,0.834-1.858,1.858s0.834,1.858,1.858,1.858s1.858-0.834,1.858-1.858
			S56.449,60.817,55.424,60.817z"/>
	</g>
	<g>
		<path fill="#15003E" d="M46.599,68.296c0-0.635-0.514-1.148-1.148-1.148s-1.149,0.514-1.149,1.148s0.515,1.148,1.149,1.148
			S46.599,68.931,46.599,68.296"/>
	</g>
	<g>
		<path fill="#15003E" d="M66.781,68.296c0-0.635-0.514-1.148-1.148-1.148s-1.149,0.514-1.149,1.148s0.515,1.148,1.149,1.148
			S66.781,68.931,66.781,68.296"/>
	</g>
	<g>
		<path fill="#EFF4EE" d="M57.448,70.576c0-1.047-0.85-1.898-1.897-1.898s-1.896,0.852-1.896,1.898s0.849,1.895,1.896,1.895
			S57.448,71.623,57.448,70.576"/>
	</g>
	<g>
		<path fill="#EFF4EE" d="M65.504,67.513c0-0.395-0.319-0.713-0.713-0.713c-0.395,0-0.713,0.318-0.713,0.713
			s0.318,0.713,0.713,0.713C65.185,68.226,65.504,67.908,65.504,67.513"/>
	</g>
	<g>
		<path fill="#EFF4EE" d="M46.876,67.513c0-0.395-0.319-0.713-0.713-0.713c-0.394,0-0.713,0.318-0.713,0.713
			s0.319,0.713,0.713,0.713C46.557,68.226,46.876,67.908,46.876,67.513"/>
	</g>
	<g>
		<path fill="#15003E" d="M44.994,85.156h-1.881c-0.273,0-0.495-0.221-0.495-0.494V73.435c0-1.311,1.066-2.377,2.376-2.377
			c1.311,0,2.377,1.066,2.377,2.377v9.344C47.371,84.089,46.304,85.156,44.994,85.156z M43.607,84.167h1.387
			c0.765,0,1.388-0.623,1.388-1.389v-9.344c0-0.766-0.623-1.387-1.388-1.387s-1.387,0.621-1.387,1.387V84.167z"/>
	</g>
	<g>
		<path fill="#15003E" d="M49.106,86.339c-0.273,0-0.494-0.223-0.494-0.496V73.318c0-0.273,0.221-0.494,0.494-0.494
			c0.273,0,0.495,0.221,0.495,0.494v12.525C49.601,86.117,49.379,86.339,49.106,86.339z"/>
	</g>
	<g>
		<path fill="#15003E" d="M47.848,92.404h-3.477c-0.966,0-1.753-0.785-1.753-1.752s0.787-1.754,1.753-1.754h3.477
			c0.967,0,1.753,0.787,1.753,1.754S48.815,92.404,47.848,92.404z M44.371,89.888c-0.421,0-0.764,0.342-0.764,0.764
			c0,0.42,0.342,0.764,0.764,0.764h3.477c0.421,0,0.764-0.344,0.764-0.764c0-0.422-0.343-0.764-0.764-0.764H44.371z"/>
	</g>
	<g>
		<path fill="#15003E" d="M50.783,101.236h-8.689c-1.201,0-2.178-0.977-2.178-2.178c0-1.203,0.977-2.18,2.178-2.18h8.689
			c1.202,0,2.179,0.977,2.179,2.18C52.962,100.259,51.985,101.236,50.783,101.236z M42.094,97.869c-0.656,0-1.189,0.533-1.189,1.189
			s0.534,1.189,1.189,1.189h8.689c0.656,0,1.189-0.533,1.189-1.189s-0.534-1.189-1.189-1.189H42.094z"/>
	</g>
	<g>
		<path fill="#15003E" d="M47.712,97.869h-3.342c-0.273,0-0.495-0.223-0.495-0.496V91.91c0-0.273,0.222-0.494,0.495-0.494h3.342
			c0.273,0,0.495,0.221,0.495,0.494v5.463C48.208,97.646,47.986,97.869,47.712,97.869z M44.865,96.878h2.354v-4.475h-2.354V96.878z"
			/>
	</g>
	<g>
		<path fill="#15003E" d="M49.106,88.125h-5.994c-0.273,0-0.495-0.221-0.495-0.494s0.222-0.494,0.495-0.494h5.994
			c0.273,0,0.495,0.221,0.495,0.494S49.379,88.125,49.106,88.125z"/>
	</g>
	<g>
		<rect x="42.156" y="100.742" fill="#15003E" width="3.227" height="1.184"/>
	</g>
	<g>
		<path fill="#15003E" d="M45.382,102.421h-3.227c-0.272,0-0.494-0.223-0.494-0.496v-1.184c0-0.273,0.222-0.494,0.494-0.494h3.227
			c0.272,0,0.495,0.221,0.495,0.494v1.184C45.877,102.199,45.655,102.421,45.382,102.421z M42.651,101.431h2.236v-0.195h-2.236
			V101.431z"/>
	</g>
	<g>
		<rect x="47.053" y="100.742" fill="#15003E" width="3.225" height="1.184"/>
	</g>
	<g>
		<path fill="#15003E" d="M50.278,102.421h-3.225c-0.273,0-0.495-0.223-0.495-0.496v-1.184c0-0.273,0.222-0.494,0.495-0.494h3.225
			c0.273,0,0.495,0.221,0.495,0.494v1.184C50.773,102.199,50.552,102.421,50.278,102.421z M47.548,101.431h2.236v-0.195h-2.236
			V101.431z"/>
	</g>
	<g>
		<line fill="#15003E" x1="43.112" y1="80.498" x2="46.876" y2="80.498"/>
	</g>
	<g>
		<rect x="43.112" y="80.003" fill="#15003E" width="3.764" height="0.99"/>
	</g>
	<g>
		<line fill="#15003E" x1="43.112" y1="75.607" x2="46.876" y2="75.607"/>
	</g>
	<g>
		<rect x="43.112" y="75.111" fill="#15003E" width="3.764" height="0.99"/>
	</g>
	<g>
		<path fill="#15003E" d="M45.681,88.021c-1.049,0-1.903-0.855-1.903-1.904s0.854-1.902,1.903-1.902s1.903,0.854,1.903,1.902
			S46.73,88.021,45.681,88.021z M45.681,85.203c-0.504,0-0.914,0.41-0.914,0.914s0.41,0.914,0.914,0.914
			c0.504,0,0.914-0.41,0.914-0.914S46.185,85.203,45.681,85.203z"/>
	</g>
	<g>
		<path fill="#15003E" d="M46.042,89.888c-0.273,0-0.495-0.223-0.495-0.496V87.63c0-0.273,0.222-0.494,0.495-0.494
			s0.495,0.221,0.495,0.494v1.762C46.537,89.666,46.315,89.888,46.042,89.888z"/>
	</g>
	<g>
		<path fill="#15003E" d="M48.28,72.392c-0.126,0-0.252-0.047-0.349-0.145l-1.538-1.537h-2.093c-0.272,0-0.494-0.221-0.494-0.494
			s0.222-0.494,0.494-0.494h2.298c0.131,0,0.257,0.051,0.35,0.145l1.682,1.682c0.193,0.193,0.193,0.506,0,0.699
			C48.534,72.345,48.407,72.392,48.28,72.392z"/>
	</g>
	<g>
		<path fill="#15003E" d="M68.298,85.203h-1.881c-1.311,0-2.377-1.066-2.377-2.377V73.48c0-1.311,1.066-2.375,2.377-2.375
			c1.31,0,2.376,1.064,2.376,2.375v11.227C68.793,84.98,68.572,85.203,68.298,85.203z M66.417,72.093
			c-0.766,0-1.388,0.623-1.388,1.387v9.346c0,0.764,0.622,1.387,1.388,1.387h1.386V73.48C67.803,72.716,67.182,72.093,66.417,72.093
			z"/>
	</g>
	<g>
		<path fill="#15003E" d="M62.305,86.384c-0.273,0-0.495-0.221-0.495-0.494V73.365c0-0.273,0.222-0.494,0.495-0.494
			s0.495,0.221,0.495,0.494V85.89C62.8,86.164,62.579,86.384,62.305,86.384z"/>
	</g>
	<g>
		<path fill="#15003E" d="M67.041,92.451h-3.478c-0.967,0-1.753-0.787-1.753-1.754s0.786-1.754,1.753-1.754h3.478
			c0.966,0,1.753,0.787,1.753,1.754S68.006,92.451,67.041,92.451z M63.563,89.933c-0.421,0-0.763,0.344-0.763,0.764
			c0,0.422,0.342,0.764,0.763,0.764h3.478c0.421,0,0.763-0.342,0.763-0.764c0-0.42-0.342-0.764-0.763-0.764H63.563z"/>
	</g>
	<g>
		<path fill="#15003E" d="M69.317,101.283h-8.688c-1.202,0-2.18-0.977-2.18-2.18c0-1.201,0.978-2.178,2.18-2.178h8.688
			c1.201,0,2.179,0.977,2.179,2.178C71.496,100.306,70.518,101.283,69.317,101.283z M60.628,97.914
			c-0.656,0-1.189,0.533-1.189,1.189s0.533,1.189,1.189,1.189h8.688c0.656,0,1.189-0.533,1.189-1.189s-0.533-1.189-1.189-1.189
			H60.628z"/>
	</g>
	<g>
		<path fill="#15003E" d="M67.041,97.914h-3.342c-0.273,0-0.495-0.221-0.495-0.494v-5.465c0-0.273,0.222-0.494,0.495-0.494h3.342
			c0.273,0,0.495,0.221,0.495,0.494v5.465C67.536,97.693,67.314,97.914,67.041,97.914z M64.193,96.925h2.353v-4.475h-2.353V96.925z"
			/>
	</g>
	<g>
		<path fill="#15003E" d="M68.298,88.171h-5.993c-0.273,0-0.495-0.223-0.495-0.494c0-0.273,0.222-0.496,0.495-0.496h5.993
			c0.273,0,0.495,0.223,0.495,0.496C68.793,87.949,68.572,88.171,68.298,88.171z"/>
	</g>
	<g>
		<rect x="66.029" y="100.787" fill="#15003E" width="3.226" height="1.186"/>
	</g>
	<g>
		<path fill="#15003E" d="M69.254,102.466h-3.226c-0.273,0-0.495-0.221-0.495-0.494v-1.186c0-0.271,0.222-0.494,0.495-0.494h3.226
			c0.273,0,0.494,0.223,0.494,0.494v1.186C69.749,102.246,69.528,102.466,69.254,102.466z M66.524,101.478h2.236v-0.195h-2.236
			V101.478z"/>
	</g>
	<g>
		<rect x="61.132" y="100.787" fill="#15003E" width="3.226" height="1.186"/>
	</g>
	<g>
		<path fill="#15003E" d="M64.358,102.466h-3.226c-0.273,0-0.495-0.221-0.495-0.494v-1.186c0-0.271,0.222-0.494,0.495-0.494h3.226
			c0.273,0,0.495,0.223,0.495,0.494v1.186C64.853,102.246,64.631,102.466,64.358,102.466z M61.626,101.478h2.236v-0.195h-2.236
			V101.478z"/>
	</g>
	<g>
		<line fill="#15003E" x1="68.298" y1="80.544" x2="64.536" y2="80.544"/>
	</g>
	<g>
		<rect x="64.536" y="80.05" fill="#15003E" width="3.763" height="0.988"/>
	</g>
	<g>
		<line fill="#15003E" x1="68.298" y1="75.652" x2="64.536" y2="75.652"/>
	</g>
	<g>
		<rect x="64.536" y="75.158" fill="#15003E" width="3.763" height="0.988"/>
	</g>
	<g>
		<path fill="#15003E" d="M65.73,88.066c-1.05,0-1.903-0.854-1.903-1.902c0-1.051,0.854-1.904,1.903-1.904s1.903,0.854,1.903,1.904
			C67.633,87.212,66.78,88.066,65.73,88.066z M65.73,85.25c-0.504,0-0.913,0.41-0.913,0.914c0,0.502,0.409,0.912,0.913,0.912
			s0.914-0.41,0.914-0.912C66.644,85.66,66.234,85.25,65.73,85.25z"/>
	</g>
	<g>
		<path fill="#15003E" d="M65.37,89.933c-0.273,0-0.495-0.221-0.495-0.494v-1.762c0-0.273,0.222-0.496,0.495-0.496
			s0.494,0.223,0.494,0.496v1.762C65.864,89.712,65.643,89.933,65.37,89.933z"/>
	</g>
	<g>
		<path fill="#15003E" d="M63.129,72.439c-0.126,0-0.252-0.049-0.349-0.145c-0.194-0.193-0.194-0.508,0-0.701l1.682-1.682
			c0.093-0.092,0.218-0.145,0.35-0.145h2.298c0.272,0,0.494,0.221,0.494,0.494s-0.222,0.496-0.494,0.496h-2.093l-1.538,1.537
			C63.383,72.39,63.256,72.439,63.129,72.439z"/>
	</g>
	<g>
		<path fill="#15003E" d="M34.843,84.445H32.29c-1.615,0-2.928-1.314-2.928-2.93V63.426c0-1.614,1.313-2.928,2.928-2.928h2.553
			c1.615,0,2.929,1.313,2.929,2.928v18.089C37.771,83.13,36.458,84.445,34.843,84.445z M32.29,61.487
			c-1.069,0-1.938,0.87-1.938,1.938v18.089c0,1.07,0.869,1.939,1.938,1.939h2.553c1.07,0,1.939-0.869,1.939-1.939V63.426
			c0-1.068-0.87-1.938-1.939-1.938H32.29z"/>
	</g>
	<g>
		<path fill="#25E899" d="M35.532,79.552c0-1.086-0.88-1.965-1.965-1.965c-1.085,0-1.965,0.879-1.965,1.965
			c0,1.084,0.88,1.965,1.965,1.965C34.651,81.517,35.532,80.636,35.532,79.552"/>
	</g>
	<g>
		<path fill="#15003E" d="M33.567,82.011c-1.356,0-2.459-1.104-2.459-2.459c0-1.357,1.103-2.459,2.459-2.459
			c1.355,0,2.458,1.102,2.458,2.459C36.025,80.908,34.922,82.011,33.567,82.011z M33.567,78.082c-0.811,0-1.47,0.66-1.47,1.471
			s0.659,1.469,1.47,1.469c0.811,0,1.47-0.658,1.47-1.469S34.377,78.082,33.567,78.082z"/>
	</g>
	<g>
		<path fill="#15003E" d="M37.276,68.486h-7.419c-0.273,0-0.495-0.221-0.495-0.494s0.222-0.496,0.495-0.496h7.419
			c0.273,0,0.495,0.223,0.495,0.496S37.55,68.486,37.276,68.486z"/>
	</g>
	<g>
		<path fill="#15003E" d="M37.276,72.966h-7.419c-0.273,0-0.495-0.223-0.495-0.496c0-0.271,0.222-0.494,0.495-0.494h7.419
			c0.273,0,0.495,0.223,0.495,0.494C37.771,72.744,37.55,72.966,37.276,72.966z"/>
	</g>
	<g>
		<rect x="37.276" y="62.1" fill="#15003E" width="7.141" height="3.648"/>
	</g>
	<g>
		<path fill="#EFF4EE" d="M31.81,91.943v-4.867c0-0.682,0.552-1.232,1.233-1.232h1.048c0.681,0,1.233,0.551,1.233,1.232v4.867"/>
	</g>
	<g>
		<path fill="#15003E" d="M35.324,92.439c-0.273,0-0.494-0.223-0.494-0.496v-4.867c0-0.406-0.333-0.738-0.739-0.738h-1.048
			c-0.407,0-0.738,0.332-0.738,0.738v4.867c0,0.273-0.222,0.496-0.495,0.496s-0.495-0.223-0.495-0.496v-4.867
			c0-0.951,0.775-1.729,1.728-1.729h1.048c0.953,0,1.728,0.777,1.728,1.729v4.867C35.818,92.216,35.597,92.439,35.324,92.439z"/>
	</g>
	<g>
		<path fill="#25E899" d="M35.324,91.943c0-0.969-0.787-1.756-1.757-1.756c-0.971,0-1.757,0.787-1.757,1.756
			c0,0.971,0.787,1.758,1.757,1.758C34.537,93.701,35.324,92.914,35.324,91.943"/>
	</g>
	<g>
		<path fill="#15003E" d="M33.567,94.197c-1.242,0-2.252-1.012-2.252-2.254c0-1.24,1.01-2.25,2.252-2.25
			c1.242,0,2.251,1.01,2.251,2.25C35.818,93.185,34.809,94.197,33.567,94.197z M33.567,90.681c-0.696,0-1.263,0.566-1.263,1.262
			c0,0.697,0.567,1.264,1.263,1.264c0.695,0,1.262-0.566,1.262-1.264C34.829,91.248,34.262,90.681,33.567,90.681z"/>
	</g>
	<g>
		<path fill="#15003E" d="M79.219,84.445h-2.553c-1.614,0-2.928-1.314-2.928-2.93V63.426c0-1.614,1.313-2.928,2.928-2.928h2.553
			c1.615,0,2.929,1.313,2.929,2.928v18.089C82.148,83.13,80.834,84.445,79.219,84.445z M76.667,61.487
			c-1.069,0-1.939,0.87-1.939,1.938v18.089c0,1.07,0.87,1.939,1.939,1.939h2.553c1.07,0,1.939-0.869,1.939-1.939V63.426
			c0-1.068-0.869-1.938-1.939-1.938H76.667z"/>
	</g>
	<g>
		<path fill="#15003E" d="M81.653,68.486h-7.42c-0.273,0-0.494-0.221-0.494-0.494s0.221-0.496,0.494-0.496h7.42
			c0.273,0,0.495,0.223,0.495,0.496S81.926,68.486,81.653,68.486z"/>
	</g>
	<g>
		<path fill="#15003E" d="M81.653,72.966h-7.42c-0.273,0-0.494-0.223-0.494-0.496c0-0.271,0.221-0.494,0.494-0.494h7.42
			c0.273,0,0.495,0.223,0.495,0.494C82.148,72.744,81.926,72.966,81.653,72.966z"/>
	</g>
	<g>
		<line fill="#25E899" x1="77.943" y1="67.992" x2="77.943" y2="60.992"/>
	</g>
	<g>
		<path fill="#15003E" d="M77.943,68.486c-0.272,0-0.494-0.221-0.494-0.494v-7c0-0.273,0.222-0.494,0.494-0.494
			c0.273,0,0.495,0.221,0.495,0.494v7C78.438,68.265,78.216,68.486,77.943,68.486z"/>
	</g>
	<g>
		<rect x="67.092" y="62.1" fill="#15003E" width="7.141" height="3.648"/>
	</g>
	<g>
		<path fill="#EFF4EE" d="M79.7,80.941v-4.867c0-0.682-0.552-1.234-1.232-1.234h-1.048c-0.682,0-1.233,0.553-1.233,1.234v4.867"/>
	</g>
	<g>
		<path fill="#15003E" d="M79.7,81.435c-0.273,0-0.494-0.221-0.494-0.494v-4.867c0-0.408-0.332-0.74-0.738-0.74h-1.048
			c-0.408,0-0.739,0.332-0.739,0.74v4.867c0,0.273-0.222,0.494-0.494,0.494c-0.273,0-0.495-0.221-0.495-0.494v-4.867
			c0-0.953,0.775-1.729,1.729-1.729h1.048c0.953,0,1.728,0.775,1.728,1.729v4.867C80.195,81.214,79.974,81.435,79.7,81.435z"/>
	</g>
	<g>
		<path fill="#25E899" d="M76.186,80.941c0-0.971,0.787-1.758,1.757-1.758c0.971,0,1.757,0.787,1.757,1.758
			s-0.786,1.758-1.757,1.758C76.973,82.699,76.186,81.912,76.186,80.941"/>
	</g>
	<g>
		<path fill="#15003E" d="M77.943,83.193c-1.241,0-2.252-1.01-2.252-2.252s1.011-2.252,2.252-2.252c1.242,0,2.252,1.01,2.252,2.252
			S79.185,83.193,77.943,83.193z M77.943,79.677c-0.695,0-1.263,0.568-1.263,1.264s0.567,1.262,1.263,1.262
			c0.696,0,1.263-0.566,1.263-1.262S78.639,79.677,77.943,79.677z"/>
	</g>
	<g>
		<path fill="#15003E" d="M63.801,57.193H46.594v-4.637h17.207V57.193z M47.584,56.204h15.229v-2.657H47.584V56.204z"/>
	</g>
	<g>
		<path fill="#25E899" d="M61.626,51.724h-12.65c-0.273,0-0.495-0.222-0.495-0.495s0.222-0.495,0.495-0.495h12.65
			c0.272,0,0.494,0.222,0.494,0.495S61.899,51.724,61.626,51.724z"/>
	</g>
	<g>
		<polygon fill="#25E899" points="46.563,40.785 62.462,40.785 63.81,41.299 62.796,44.928 47.564,44.928 		"/>
	</g>
	<g>
		<path fill="#EFF4EE" d="M60.643,49.412H49.716c-1.188,0-2.152-0.963-2.152-2.153v-2.331h15.232v2.331
			C62.796,48.449,61.833,49.412,60.643,49.412"/>
	</g>
	<g>
		<path fill="#15003E" d="M60.643,49.907H49.716c-1.459,0-2.647-1.188-2.647-2.648v-2.826h16.223v2.826
			C63.292,48.72,62.104,49.907,60.643,49.907z M48.058,45.422v1.836c0,0.915,0.744,1.659,1.658,1.659h10.927
			c0.914,0,1.658-0.744,1.658-1.659v-1.836H48.058z"/>
	</g>
	<g>
		<path fill="#0FCE7C" d="M52.387,40.785c-2.392-1.05-4.062-3.439-4.062-6.219c0-1.64,0.582-3.145,1.55-4.318
			c1.245-1.509,9.079-1.585,10.322-0.182c1.062,1.198,1.705,2.773,1.705,4.5c0,2.779-1.669,5.168-4.061,6.218"/>
	</g>
	<g>
		<path fill="#15003E" d="M51.958,41.28c-0.073,0-0.146-0.016-0.217-0.05c-2.636-1.283-4.274-3.901-4.274-6.832
			c0-1.456,0.413-2.87,1.193-4.09c0.148-0.23,0.454-0.297,0.684-0.15c0.229,0.147,0.297,0.454,0.15,0.684
			c-0.679,1.061-1.039,2.291-1.039,3.556c0,2.55,1.425,4.826,3.719,5.942c0.246,0.12,0.348,0.416,0.229,0.662
			C52.318,41.177,52.142,41.28,51.958,41.28z"/>
	</g>
	<g>
		<path fill="#15003E" d="M58.237,41.243c-0.183,0-0.356-0.1-0.443-0.273c-0.122-0.245-0.023-0.542,0.221-0.664
			c2.252-1.128,3.65-3.392,3.65-5.909c0-1.416-0.44-2.766-1.276-3.904c-0.161-0.22-0.114-0.53,0.106-0.691
			c0.22-0.162,0.529-0.115,0.691,0.106c0.961,1.309,1.468,2.861,1.468,4.489c0,2.894-1.608,5.497-4.196,6.793
			C58.387,41.227,58.311,41.243,58.237,41.243z"/>
	</g>
	<g>
		<path fill="#15003E" d="M63.181,45.422H47.179l-2.604-10.25v-0.063c0-5.847,4.757-10.605,10.605-10.605
			c5.848,0,10.605,4.758,10.605,10.605v0.063l-0.017,0.06L63.181,45.422z M47.948,44.433h14.463l2.384-9.384
			c-0.032-5.274-4.333-9.555-9.615-9.555c-5.282,0-9.583,4.28-9.616,9.555L47.948,44.433z"/>
	</g>
	<g>
		<path fill="#15003E" d="M45.069,35.458c-0.273,0-0.494-0.221-0.494-0.494v-9.623c0-0.273,0.221-0.495,0.494-0.495
			c0.273,0,0.495,0.222,0.495,0.495v9.623C45.564,35.237,45.343,35.458,45.069,35.458z"/>
	</g>
	<g>
		<path fill="#15003E" d="M65.291,35.458c-0.273,0-0.495-0.221-0.495-0.494V22.625c0-0.273,0.222-0.495,0.495-0.495
			s0.495,0.222,0.495,0.495v12.339C65.786,35.237,65.564,35.458,65.291,35.458z"/>
	</g>
	<g>
		<path fill="#15003E" d="M45.857,39.78h-1.043c-1.119,0-2.03-0.911-2.03-2.03v-3.899c0-1.119,0.911-2.03,2.03-2.03h0.442
			c0.273,0,0.495,0.222,0.495,0.495s-0.222,0.495-0.495,0.495h-0.442c-0.574,0-1.041,0.467-1.041,1.041v3.899
			c0,0.574,0.467,1.041,1.041,1.041h1.043c0.273,0,0.495,0.221,0.495,0.495S46.13,39.78,45.857,39.78z"/>
	</g>
	<g>
		<path fill="#15003E" d="M65.583,39.78h-1.044c-0.273,0-0.495-0.221-0.495-0.495s0.222-0.495,0.495-0.495h1.044
			c0.573,0,1.041-0.467,1.041-1.041v-3.899c0-0.574-0.468-1.041-1.041-1.041H65.14c-0.273,0-0.495-0.222-0.495-0.495
			s0.222-0.495,0.495-0.495h0.442c1.12,0,2.03,0.911,2.03,2.03v3.899C67.613,38.869,66.703,39.78,65.583,39.78z"/>
	</g>
	<g>
		<path fill="#15003E" d="M45.178,33.914c-0.124,0-0.249-0.047-0.346-0.141c-0.195-0.191-0.199-0.504-0.008-0.7
			c2.809-2.876,6.543-4.46,10.516-4.46c3.742,0,7.317,1.428,10.067,4.02c0.199,0.187,0.208,0.5,0.021,0.699
			c-0.188,0.198-0.501,0.208-0.7,0.021c-2.565-2.418-5.9-3.75-9.389-3.75c-3.705,0-7.188,1.478-9.808,4.162
			C45.435,33.863,45.307,33.914,45.178,33.914z"/>
	</g>
	<g>
		<path fill="#15003E" d="M63.81,41.279H46.563c-0.273,0-0.495-0.221-0.495-0.495c0-0.273,0.221-0.494,0.495-0.494H63.81
			c0.273,0,0.495,0.221,0.495,0.494C64.305,41.058,64.083,41.279,63.81,41.279z"/>
	</g>
	<g>
		<path fill="#FFFFFF" d="M58.728,32.316c0,0.978-0.793,1.771-1.771,1.771c-0.979,0-1.771-0.793-1.771-1.771
			s0.792-1.771,1.771-1.771C57.935,30.545,58.728,31.338,58.728,32.316"/>
	</g>
	<g>
		<path fill="#FFFFFF" d="M59.994,34.964c0,0.396-0.32,0.716-0.716,0.716s-0.717-0.32-0.717-0.716s0.321-0.717,0.717-0.717
			S59.994,34.568,59.994,34.964"/>
	</g>
	<g>
		<path fill="#15003E" d="M61.295,44.011c-0.701,0-1.053-0.531-1.284-0.882c-0.221-0.333-0.313-0.438-0.46-0.438
			s-0.239,0.104-0.46,0.438c-0.232,0.351-0.583,0.882-1.285,0.882s-1.054-0.531-1.285-0.882c-0.221-0.333-0.313-0.438-0.46-0.438
			s-0.239,0.104-0.46,0.438c-0.232,0.351-0.584,0.881-1.286,0.881s-1.053-0.531-1.285-0.881c-0.221-0.334-0.313-0.438-0.459-0.438
			c-0.148,0-0.24,0.104-0.46,0.438c-0.232,0.351-0.584,0.881-1.286,0.881c-0.703,0-1.054-0.531-1.286-0.881
			c-0.221-0.334-0.313-0.438-0.46-0.438c-0.273,0-0.495-0.221-0.495-0.495c0-0.273,0.221-0.495,0.495-0.495
			c0.702,0,1.054,0.53,1.286,0.881c0.221,0.333,0.313,0.438,0.46,0.438s0.24-0.104,0.46-0.438c0.232-0.351,0.584-0.881,1.286-0.881
			s1.052,0.53,1.285,0.881c0.221,0.333,0.313,0.438,0.46,0.438c0.147,0,0.24-0.104,0.461-0.438c0.232-0.351,0.583-0.881,1.285-0.881
			s1.053,0.53,1.285,0.881c0.221,0.333,0.313,0.438,0.46,0.438s0.239-0.104,0.46-0.438c0.232-0.351,0.583-0.881,1.285-0.881
			s1.053,0.53,1.285,0.881c0.221,0.333,0.313,0.438,0.459,0.438c0.273,0,0.494,0.222,0.494,0.495
			C61.79,43.789,61.569,44.011,61.295,44.011z"/>
	</g>
</g>
<g id="Layer_3">
</g>
<g id="Layer_2">
</g>
</svg>
