<svg xmlns="http://www.w3.org/2000/svg" width="110.979" height="128.417" viewBox="0 0 110.979 128.417"><path fill="#25E899" d="M110.849 96.417l-55.426 32L0 96.417v-64l55.423-32 55.426 32z"/><path fill="#FFF" d="M101.926 38.143v53.131l-.009.01-1.42.819-6.281 3.62-2.719 1.57-.241.121-.13.059-.11.061-3.03 1.74-1.869 1.079-.04.03-3.25 1.88-.87.511-1.38.79-1.46.85-.181.099-.019.011-1.71.989-.96.551-4.621 2.67-.629.369-.061.03-3.5 2.021-4.04 2.33-.01.01-.429.25-7.081 4.089-7.57-4.379-.04-.021-2.069-1.199-5.361-3.101-.69-.399-5.09-2.941-.389-.229-.491-.28-.33-.191-1.849-1.069-.571-.33-1.71-.99-2.509-1.451-2.911-1.679-.089-.05-4.67-2.7-2.111-1.221-7.5-4.329V38.143l14.33-8.279 1.991-1.151 4.929-2.839 1.58-.911.17-.099 1.66-.95 1.161-.67 1.54-.901.519-.3 2.28-1.309.69-.401 1.46-.839 5.721-3.3.46-.261 6.069-3.51 1.44-.83 1.06.611 6.49 3.75 14.53 8.389 1.04.601 2.3 1.319.87.5 1.52.88 1.37.79.801.46.09.051 1.809 1.04 3.78 2.189.04.021v.01l.26.149.66.381 1.46.84 1.941 1.12.779.449.441.25 1.939 1.12z"/><path opacity=".13" d="M9.826 38.141v53.121l46.072 26.559 46.074-26.559V38.141L55.898 11.58 9.826 38.141zm90.281 1.08v50.971l-44.209 25.489-44.211-25.489V39.221l44.211-25.489 44.209 25.489z"/><path fill="#25E899" d="M47.14 46.989h18.189l1.542.589-1.161 4.151H48.284z"/><path fill="#EFF4EE" d="M63.248 56.859h-12.5a2.463 2.463 0 0 1-2.463-2.463v-2.667H65.71v2.667a2.463 2.463 0 0 1-2.462 2.463"/><path fill="#15003E" d="M63.248 57.425h-12.5a3.033 3.033 0 0 1-3.029-3.03v-3.233h18.559v3.233a3.035 3.035 0 0 1-3.03 3.03zM48.85 52.294v2.101a1.9 1.9 0 0 0 1.897 1.898h12.5a1.9 1.9 0 0 0 1.897-1.898v-2.101H48.85z"/><path fill="#0FCE7C" d="M53.803 46.989a7.768 7.768 0 0 1-2.872-12.054c1.424-1.727 10.385-1.814 11.809-.208a7.742 7.742 0 0 1 1.95 5.148 7.767 7.767 0 0 1-4.646 7.114"/><path fill="#15003E" d="M53.311 47.555a.575.575 0 0 1-.247-.057 8.633 8.633 0 0 1-4.891-7.816c0-1.666.473-3.283 1.366-4.679a.566.566 0 1 1 .953.611 7.528 7.528 0 0 0-1.188 4.069 7.508 7.508 0 0 0 4.255 6.798.566.566 0 0 1-.248 1.074zm7.183-.042a.565.565 0 0 1-.254-1.072 7.522 7.522 0 0 0 4.177-6.76c0-1.62-.505-3.164-1.461-4.466a.567.567 0 0 1 .913-.67 8.622 8.622 0 0 1 1.679 5.136 8.643 8.643 0 0 1-4.801 7.771.548.548 0 0 1-.253.061z"/><path fill="#15003E" d="M66.151 52.294H47.844l-2.979-11.727v-.071c0-6.69 5.442-12.132 12.132-12.132s12.132 5.442 12.132 12.132v.071l-.017.069-2.961 11.658zm-17.426-1.131h16.546l2.728-10.736c-.038-6.034-4.959-10.931-11.001-10.931s-10.963 4.897-11 10.931l2.727 10.736z"/><path fill="#15003E" d="M45.431 40.895a.564.564 0 0 1-.565-.565V29.322a.565.565 0 1 1 1.131 0V40.33a.565.565 0 0 1-.566.565zm23.133 0a.564.564 0 0 1-.565-.565V26.213a.565.565 0 1 1 1.13 0V40.33a.565.565 0 0 1-.565.565z"/><path fill="#15003E" d="M46.332 45.839h-1.193a2.326 2.326 0 0 1-2.323-2.322v-4.46a2.325 2.325 0 0 1 2.323-2.322h.506a.565.565 0 1 1 0 1.132h-.506a1.19 1.19 0 0 0-1.19 1.19v4.46c0 .656.534 1.19 1.19 1.19h1.193a.565.565 0 1 1 0 1.132zm22.566 0h-1.194a.565.565 0 1 1 0-1.132h1.194a1.19 1.19 0 0 0 1.19-1.19v-4.46a1.19 1.19 0 0 0-1.19-1.19h-.506a.565.565 0 1 1 0-1.132h.506a2.325 2.325 0 0 1 2.323 2.322v4.46a2.325 2.325 0 0 1-2.323 2.322z"/><path fill="#15003E" d="M45.556 39.128a.564.564 0 0 1-.405-.961c3.212-3.291 7.485-5.103 12.03-5.103 4.28 0 8.37 1.633 11.518 4.599a.566.566 0 0 1-.777.824c-2.937-2.767-6.751-4.291-10.741-4.291-4.238 0-8.223 1.691-11.221 4.761a.56.56 0 0 1-.404.171zm21.315 8.426H47.14a.565.565 0 1 1 0-1.131h19.731a.565.565 0 1 1 0 1.131z"/><path fill="#FFF" d="M61.057 37.3a2.026 2.026 0 1 1-4.052 0 2.026 2.026 0 0 1 4.052 0m1.447 3.03a.819.819 0 1 1-1.638 0 .819.819 0 0 1 1.638 0"/><path fill="#15003E" d="M63.994 50.679c-.804 0-1.204-.607-1.47-1.008-.253-.382-.358-.5-.526-.5-.167 0-.273.118-.525.5-.266.401-.667 1.008-1.471 1.008-.803 0-1.204-.607-1.47-1.008-.253-.382-.358-.5-.526-.5s-.273.118-.526.5c-.267.401-.667 1.008-1.471 1.008s-1.205-.607-1.471-1.008c-.253-.382-.358-.5-.526-.5s-.274.118-.527.5c-.266.401-.667 1.008-1.471 1.008s-1.205-.607-1.471-1.008c-.253-.382-.358-.5-.526-.5a.566.566 0 0 1 0-1.132c.803 0 1.204.607 1.471 1.008.252.382.358.501.527.501s.274-.119.527-.501c.266-.401.667-1.008 1.471-1.008s1.205.607 1.471 1.008c.253.382.358.501.526.501s.273-.119.526-.501c.266-.401.667-1.008 1.471-1.008s1.204.607 1.471 1.008c.252.382.358.501.525.501.168 0 .274-.119.526-.501.266-.401.667-1.008 1.47-1.008.804 0 1.205.607 1.47 1.008.253.382.358.501.526.501a.565.565 0 1 1-.001 1.131z"/><path fill="#25E899" d="M49.289 76.194a.66.66 0 0 1-.661-.659v-9.579a.662.662 0 0 1 1.322 0v9.579a.66.66 0 0 1-.661.659zm13.095 18.364a.66.66 0 0 1-.66-.66V63.402a.66.66 0 0 1 1.32 0v30.496a.66.66 0 0 1-.66.66zM51.526 83.431a.66.66 0 0 1-.661-.659V68.818a.662.662 0 0 1 1.322 0v13.954a.66.66 0 0 1-.661.659zm-8.739 3.044c-3.556 0-6.449-2.894-6.449-6.449s2.893-6.448 6.449-6.448 6.449 2.893 6.449 6.448a.66.66 0 1 1-1.321 0c0-2.827-2.301-5.128-5.128-5.128s-5.129 2.301-5.129 5.128a5.135 5.135 0 0 0 5.129 5.129.66.66 0 1 1 0 1.32z"/><path fill="#EFF4EE" d="M46.97 88.522a5.415 5.415 0 0 0-10.829 0"/><path fill="#25E899" d="M46.97 89.182a.66.66 0 0 1-.661-.66c0-2.622-2.133-4.754-4.754-4.754s-4.754 2.132-4.754 4.754a.66.66 0 0 1-1.321 0 6.08 6.08 0 0 1 6.075-6.074 6.081 6.081 0 0 1 6.075 6.074.66.66 0 0 1-.66.66z"/><path fill="#EFF4EE" d="M36.141 88.522a3.506 3.506 0 1 0 3.506 3.507"/><path fill="#25E899" d="M36.141 96.195a4.172 4.172 0 0 1-4.167-4.166 4.171 4.171 0 0 1 4.167-4.167.66.66 0 0 1 0 1.32 2.85 2.85 0 0 0-2.846 2.847c0 1.568 1.276 2.846 2.846 2.846s2.846-1.277 2.846-2.846a.66.66 0 0 1 1.32 0 4.17 4.17 0 0 1-4.166 4.166z"/><path fill="#EFF4EE" d="M70.327 89.865a5.926 5.926 0 1 0 4.458-2.885"/><path fill="#25E899" d="M75.434 99.457a6.593 6.593 0 0 1-5.677-9.928.66.66 0 0 1 1.137.671 5.271 5.271 0 0 0 4.539 7.937 5.272 5.272 0 0 0 5.267-5.266 5.272 5.272 0 0 0-5.845-5.235.662.662 0 0 1-.144-1.313 6.593 6.593 0 0 1 7.309 6.547 6.593 6.593 0 0 1-6.586 6.587z"/><path fill="#EFF4EE" d="M67.499 88.955c.353 1.219 1.866 1.793 3.229 1.793a3.803 3.803 0 0 0 .199-7.602 1.056 1.056 0 0 1-.991-.914 3.795 3.795 0 0 0-7.551.54"/><path fill="#25E899" d="M70.728 91.409c-1.597 0-3.409-.702-3.863-2.271a.656.656 0 0 1 .45-.817.657.657 0 0 1 .817.449c.251.865 1.496 1.317 2.596 1.317a3.147 3.147 0 0 0 3.143-3.143 3.141 3.141 0 0 0-2.979-3.14 1.725 1.725 0 0 1-1.61-1.481 3.149 3.149 0 0 0-3.103-2.688 3.138 3.138 0 0 0-3.135 3.135.66.66 0 0 1-1.32 0 4.46 4.46 0 0 1 4.455-4.455 4.473 4.473 0 0 1 4.409 3.821.408.408 0 0 0 .372.35 4.458 4.458 0 0 1 4.23 4.457 4.468 4.468 0 0 1-4.462 4.466z"/><path fill="#EFF4EE" d="M49.513 89.443a3.384 3.384 0 1 0-4.641 4.928"/><path fill="#25E899" d="M44.872 95.03a.659.659 0 0 1-.453-.179c-1.624-1.529-1.7-4.095-.171-5.718s4.094-1.7 5.718-.171a.66.66 0 0 1-.905.961 2.729 2.729 0 0 0-3.851.115 2.727 2.727 0 0 0 .116 3.851.66.66 0 0 1-.454 1.141z"/><path fill="#EFF4EE" d="M55.412 87.94V77.083"/><path fill="#25E899" d="M55.412 88.6a.66.66 0 0 1-.661-.66V77.083a.66.66 0 0 1 1.321 0V87.94a.66.66 0 0 1-.66.66z"/><path fill="#EFF4EE" d="M55.412 100.295v-5.924"/><path fill="#25E899" d="M55.412 100.956a.66.66 0 0 1-.661-.66v-5.925a.66.66 0 1 1 1.321 0v5.925a.66.66 0 0 1-.66.66z"/><path fill="#EFF4EE" d="M58.407 67.985v3.488"/><path fill="#25E899" d="M58.407 72.133a.66.66 0 0 1-.66-.66v-3.488a.662.662 0 0 1 1.321 0v3.488a.66.66 0 0 1-.661.66z"/><path fill="#EFF4EE" d="M53.467 62.098v5.716"/><path fill="#25E899" d="M53.467 68.475a.661.661 0 0 1-.661-.661v-5.716a.66.66 0 1 1 1.321 0v5.716a.662.662 0 0 1-.66.661z"/></svg>