<svg xmlns="http://www.w3.org/2000/svg" id="Layer_1" x="0" y="0" version="1.1" viewBox="0 0 111.031 127.992" xml:space="preserve"><style>.st5{fill:#ff6498}.st6{fill:#4e1951}.st7{fill:#cdb3e5}.st8{fill:#fff}</style><linearGradient id="SVGID_1_" x1="-289.467" x2="-288.76" y1="-260.315" y2="-259.608" gradientUnits="userSpaceOnUse"><stop offset="0" stop-color="#dedfe3"/><stop offset=".178" stop-color="#dadbdf"/><stop offset=".361" stop-color="#cecfd3"/><stop offset=".546" stop-color="#b9bcbf"/><stop offset=".732" stop-color="#9ca0a2"/><stop offset=".918" stop-color="#787d7e"/><stop offset="1" stop-color="#656b6c"/></linearGradient><path id="Layer_63_4_" fill="#7d3d7f" d="M110.943 96.184l-55.428 32-55.423-32v-64l55.423-32 55.428 32z"/><path fill="#f2ece9" d="M101.526 37.617v53.14l-1.45.83-.19.11-.2.11v.01l-.41.24-.25.14-2.54 1.47-2.04 1.17-.14.08-1.18.68-.41.23-1.55.9-.02.01-.29.16-.13.05-.11.07-1.44.83-.7.4-.65.37-.24.14-.17.1-.01.01-.34.19-.3.17-.82.47-.23.13-.04.03-.72.41v.01l-.51.29-.45.26-.02.02h-.01l-1.07.62-.16.09-.31.18-.24.14-.23.14-.21.13-.06.03-.97.56-.06.04-.09.05-.18.1-.09.05-.12.07-.08.05-.41.24-.03.01-.16.09v.01l-.78.45-.06.03-.12.06-.02.02-.04.02-.29.17-.15.09-.06.03-.27.16-.13.07-.11.06-.16.09-.13.08-.05.03-.3.17-.02.01-.08.05-.14.08-.02.01h-.01l-.71.42-1.01.59-.05.03-.15.08-.25.14v.01l-.27.15-.1.06-.05.03-.16.09-.84.48-.11.07-.42.24-.01.01-1.05.61-.15.08-.63.36-.06.03-.07.04-.25.14v.01l-.84.48-.03.01-.04.03-.31.18h-.01l-1.3.76-.12.07-.07.04-.18.11-.04.02-.24.14-.09.05-.73.42-.29.17-.56.32-.31.18-.04.03-.01.01-.52.3-1.49.85-.01.01-.3.17-.13.08-2.24 1.29-.99.57-.05.03-.01.01-.24.13-.21.12-1.01.59-.83.47-.13.08-.56.32h-.01l-.32.19-.46.27-.02.01-.35-.2-1.07-.62-.54-.32-.23-.13-.08-.04-.03-.01-.04-.02-.2-.12-.55-.32-.95-.55-.32-.18-.1-.07-.78-.45-.58-.33-1.16-.68-.08-.04-.26-.15-.09-.05-.16-.09-.03-.03-.09-.05-.2-.11-.12-.07-.15-.09-.29-.17-.16-.09-.36-.2-.71-.41-.1-.06-.53-.31-.88-.51-.22-.12-.27-.16-1.66-.96-.78-.45-.28-.16-.56-.33-.77-.44-2.41-1.39-.69-.4-.03-.02-1.3-.75-.39-.23-.54-.31-.8-.46-.14-.09-.01-.01-.03-.02-.37-.21-.23-.13-.47-.27-.56-.32-.18-.1-.02-.01-.27-.15-.07-.04-.06-.04-.15-.09-.43-.25-.37-.21-.13-.08-.03-.02-.27-.15-.19-.11-.29-.17-.55-.32-.04-.02-.16-.1-.39-.23-.09-.05-.44-.25-.06-.03-.78-.46-.16-.09-.48-.28-.84-.48-.61-.35-.23-.13-.59-.34-.09-.05-.12-.07-.31-.18-.07-.04-.01-.01-.11-.06-.1-.06h-.01l-.01-.01-.7-.4-.33-.19c-.01-.01-.01-.01-.02-.01l-.05-.03-.69-.4-.35-.2v-.01l-.67-.38-.1-.06-.21-.12-.13-.08-.15-.09-.04-.02-.49-.28-2.11-1.23-.29-.17s-.01 0-.02-.01l-.28-.16-.04-.02-.01-.01-.23-.13-.47-.27h-.01l-1.3-.75-.03-.02-1-.58-.21-.12-1.86-1.07-.16-.09-1.48-.86-.04-.02-.04-.02-.03-.02v-53.14l.93-.54 1.04-.6 9.38-5.41.3-.17 2.3-1.33.38-.22.75-.44.98-.57.26-.15.1-.06.33-.19 1.5-.86.44-.25 2.56-1.47.6-.35.45-.26.53-.31.17-.09.6-.34.92-.53.14-.08.78-.45.02-.01.36-.21.09-.05.35-.21 1.1-.65.52-.3 1.19-.68.11-.06.34-.19.64-.37.22-.13.47-.28.21-.12.53-.3.66-.38h.01l.05-.03.06-.04.82-.47 1.46-.84.12-.07 1.86-1.07c0-.01.01-.01.01-.01l1.39-.8.19-.11.27-.16.11-.06.01-.01 4.9-2.84 2.48-1.43.65.38h.01l2.36 1.37 1.77 1.02.96.55.94.55h.01l.82.48.04.02.66.38 1.94 1.12.68.4h.01l.37.21 2.67 1.54.82.47.36.21.6.34 1.51.88 2.45 1.41 2.41 1.39.05.03 1.04.61 1.6.91.22.13.48.27.14.08.01.01.03.01.54.31.15.09.07.04h.01l.51.31.33.2h.02l.47.27.11.06.24.14.62.36.44.25.07.04.05.03.7.4.05.03.09.06.07.04 1.08.62.02.01.17.1.22.13h.01l.09.06.09.05.06.03.47.27.95.55.23.13.62.36.01.01 1.07.61.43.25.04.03v.01l.12.06.14.08.26.15.02.02.38.22 1.46.84.06.04.87.49.27.16.74.43.2.11.58.33.44.25 1.94 1.12 1.43.83 1.39.8z"/><path fill="#f9dbe9" d="M101.593 79.483v11.28l-.05.03-1.86 1.07-3.28 1.89-.02.01-.54.32-.34.19-.46.26-.03.02-.52.3h-.05v.01l-.12.07-.02.01-.05.03-.24.16-.86.49-.24.14-.2.12-.1.05-.21.12-1.24.73-.02.01-.11.06-.09.05-.07.04-.14.08-.16.09-1.16.67-.24.14-1.03.59-.3.17-.24.14-.01.01-.25.14v.01l-.08.04-.43.25-.06.04-.46.26-.33.19-1.07.62-1.39.8-.7.4-.1.06-.09.05-.24.14-.39.22-1.03.6-.28.16-.58.33-.21.13-.24.14-.63.36-.01.01-.13.07-.59.34-.21.12-2.59 1.5-.63.36-.47.27-.12.07-.02.01-.32.18-.2.12-.7.4-.17.1-.6.34-.76.44-.4.23-.43.25-.91.52-.09.05-.36.21-.75.43-.13.07-.22.13-.05.03-.27.16-.13.07-.6.35-.33.19-.16.09-1.47.85-.07.04-1.57.9-.02.01-.39.23-.19.11-2.4 1.38-.19.11-.59.34-3.59 2.07-.14.08-.55.32-.02-.01-.21-.12-.43-.25-.18-.1-2.3-1.33-.71-.41-.03-.02-.03-.01-.03-.02-.24-.14-.22-.13-.25-.15-.27-.15-.15-.08-.54-.31-.14-.08-.75-.43v-.01l-.52-.29-.38-.23-.24-.13-.09-.05-.3-.18-.04-.02-.13-.07-.45-.26-.1-.06-.24-.14-.84-.49h-.01l-1.39-.8-.22-.12-.27-.16-1.66-.96-.78-.45-.28-.16-.56-.33-.77-.44-2.41-1.39-.69-.4-.03-.02-1.3-.75-.39-.23-.54-.31-.41-.23-.39-.23-1.25-.72-.03-.02-.36-.2h-.01l-.19-.11-.44-.26-.39-.22-1.7-.98-3.37-1.95-.6-.34-.56-.32-.49-.28-1.22-.7-1.1-.64-1.58-.91-.99-.59h-.03l-.05-.02-.07-.05-.51-.29h-.02l-2.34-1.35-2.53-1.47-.37-.21-.28-.16-.25-.15-.05-.03-.41-.24-2.19-1.26-.39-.22-.37-.22v-11.19l1.86-.11 32.77-1.85.24-.01 7.02-.4.92-.05 3.69-.21.46.03 2.24.12.15.01.31.02 5.14.28h.01l4.11.23 14.72.82h.01l1.38.08 15.25.85 1.87.1z"/><path fill="#b3efff" d="M101.893 48.585l-.3-.27v.39l-1.87-1.76-1.41-1.32-.93-.88-3.42 3.17-.02.02-2.1 1.94-2.8 2.63-1.66 1.56-.33-.34-4.66-4.79-10.94-11.62-12.97-3.64-22.42 8.23-11.5 16.58-.87 1.25-.19.27-2.89-2.6-.47-.42-.47-.42-.73-.66-1.7-1.53-2.94-2.65-.26-.23-2.74.83-.71.21-.25.08-.35.1-.55-1.12v-11l2.69-4.52h.01l7.1-4.1h.01l1.92-1.11 1.65-.96.65-.37.78-.45.28-.16.07-.04.29-.17 2.88-1.66.44-.25.94-.54 1.15-.67.18-.1.89-.51.45-.26.36-.21 1.83-1.05.97-.56.45-.26 1.45-.83.52-.3.75-.44.44-.25.45-.26 1.52-.88.52-.3.59-.34 2.47-1.42 3-1.73.5-.29 1.37-.79 4.02-2.32.64-.37 5.11.83.02.01 1.5.87.96.55.92.53.02.02h.01l.76.43 3.57 2.06 2.76 1.59 1.01.58.87.51 1.5.87.03.01 6.3 3.63.24.14.87.5.23.13.14.08.45.27.14.08.01.01.03.01h.01l.53.31h.01l.02.01.2.11v.01l.37.21.16.09h.01l.81.47.36.21.59.34.47.27.09.05.71.41.07.04.13.08.11.06.97.56.02.01.05.03 1.14.66 1.74 1 1.06.61.69.4.3.17.02.01 1.91 1.1.74.43.12.07 1.21.7.04.02h.01l1.77 1.03.09.05.57.33.31.17.93.54 2.13 2.65v9.19c.1.11.2.23.3.35z"/><path fill="#ff92be" d="M71.673 105.835l2.27.85-.2.12-.7.4-.17.1-.6.34-.76.44-.4.23-.43.25-.91.52-.09.05-.36.21-.75.43-.13.07-.22.13-.05.03-.27.16-.13.07-.6.35-.33.19-.16.09-1.47.85-.07.04-1.57.9-.02.01-.39.23-.19.11-2.4 1.38-.19.11-.59.34-3.59 2.07-.14.08-.55.32-.02-.01-.21-.12-.43-.25-.18-.1-2.3-1.33-.71-.41-.03-.02-.03-.01-.03-.02-.24-.14-.22-.13-.25-.15-.27-.15-.15-.08-.54-.31-.14-.08-.75-.43v-.01l-.52-.29-.38-.23-.24-.13-.09-.05-.3-.18-.04-.02-.13-.07-.45-.26-.1-.06-.24-.14-.84-.49h-.01l-1.39-.8-.22-.12-.27-.16-1.66-.96-.78-.45-.28-.16-.56-.33-.77-.44-2.41-1.39-.69-.4-.03-.02-1.3-.75-.39-.23-.54-.31-.41-.23-.39-.23-1.25-.72-.03-.02c-.28-.98-.56-1.96-.74-2.55-.1-.35-.16-.57-.16-.57l2.26-5.81 2.36-3.35 3.72-2.54 3.63-1.36 4.71-1.45 2.81-1.99 1.27-1.73.27-2.35.06-1.68.02-.6.01-.17 1.15-.17.67-.1 2.62-.26 1.68-.16.12-.01.29-.03.05.07.27.35.11.14.84 1.08 2.45 3.17.72 4.35-2.45 4.35-1.81 3.72 2.18 5.17 9.61 6.16.65.24z"/><path d="M90.975 64.059c0 4.79-.958 9.366-2.683 13.534h-9.055c-2.36-.132-4.647-.24-6.887-.335a476.74 476.74 0 00-8.624-.312c.252.204.503.42.767.647H36.106l-.108-.132-.36-.467-.047-.06c-4.899.156-9.21.384-12.948.635a35.434 35.434 0 01-2.084-19.918c3.007-16.553 17.5-29.094 34.915-29.094 16.469 0 30.314 11.211 34.327 26.41a35.557 35.557 0 011.174 9.092z" class="st5"/><path d="M51.423 73.245l.006.002c-.015-.002-.004-.014-.006-.002zM73.263 104.925c.74.3 1.49.59 2.24.87l-.63.36-.47.27-.12.07-.02.01-.32.18-.2.12-.7.4-.17.1-.6.34c-.68-.31-1.36-.64-2.03-.98a92.5 92.5 0 01-1.96-1.03c-2.45-1.36-4.86-2.87-6.97-4.87-1.05-1.01-2.04-2.16-2.69-3.59-.67-1.4-.81-3.21-.2-4.69.29-.74.7-1.41 1.17-1.98.51-.6.94-1.04 1.34-1.56.78-1.01 1.38-2.16 1.6-3.37.23-1.2.04-2.46-.52-3.59-.55-1.13-1.42-2.13-2.42-2.98-.15-.13-.3-.25-.46-.36-.49-.39-1-.74-1.54-1.05-.21-.13-.41-.25-.63-.36-.18-.1-.37-.2-.56-.28a19.8 19.8 0 00-2.9-1.18c.24.01.47.01.72.03h.01l.01.01c.2.46.9.51 1.08.1.08.01.16.01.23.02.15.02.27-.01.38-.06.07-.04.13-.09.18-.15.06.03.13.05.19.08.85.36 1.67.78 2.46 1.26.01 0 .02.01.03.02.19.12.39.24.58.37.07.05.14.09.21.14.25.17.49.35.73.54.22.18.43.36.64.55.86.78 1.62 1.68 2.18 2.74.7 1.3 1 2.88.77 4.38s-.92 2.87-1.76 4.04c-.42.59-.94 1.15-1.29 1.62-.36.5-.64 1.04-.82 1.59-.79 2.23.8 4.47 2.74 6.09 1.97 1.67 4.32 2.98 6.73 4.14 1.23.58 2.49 1.13 3.76 1.64zM52.923 81.215c-.12 1.6-1.06 3.16-2.35 4.06-1.28.94-2.71 1.5-4.11 1.98-2.79.97-5.74 1.51-8 3-2.27 1.49-3.76 3.85-4.37 6.48-.45 1.89-.53 3.87-.38 5.86.06.77.15 1.53.26 2.29l-.39-.23-1.25-.72-.03-.02-.36-.2h-.01l-.19-.11-.44-.26-.39-.22c-.01-.7 0-1.41.04-2.12.1-1.65.36-3.3.87-4.91.48-1.5 1.19-2.96 2.17-4.22.97-1.27 2.21-2.32 3.57-3.1 2.82-1.5 5.75-1.95 8.49-2.79 1.37-.42 2.71-.9 3.82-1.67 1.13-.74 1.86-1.88 2.03-3.2.09-.84.01-1.72-.18-2.58-.07-.32-.16-.63-.26-.94-.04-.14-.08-.28-.13-.41-.02-.05-.03-.1-.05-.15-.14-.41-.32-.81-.49-1.21l.89-.03c.14.31.3.61.42.93.05.14.1.27.15.41.06.15.11.31.16.46.04.12.07.23.1.34.06.2.12.4.16.61.21.86.31 1.75.25 2.67z" class="st6"/><path d="M101.893 48.585l-.3-.27v31.02c-.63-.05-1.25-.11-1.87-.16-2.33-.2-4.61-.39-6.85-.56-2.78-.22-5.5-.41-8.16-.58-.68-.05-1.36-.09-2.04-.13-1.79-.12-3.54-.22-5.26-.31-2.36-.13-4.65-.24-6.89-.34.02-.02.03-.05.06-.07a239.973 239.973 0 012.14-2.79c.29-.37.59-.76.9-1.17l.02-.02c.29-.38.6-.77.91-1.18 0-.01.01-.02.02-.03.24-.31.49-.62.74-.95a1600.64 1600.64 0 017.28-9.33c.38-.48.76-.96 1.14-1.43a523.607 523.607 0 015.58-6.97c1.7-2.04 3.29-3.87 4.63-5.38l.02-.02c1.44-1.63 2.57-2.88 3.2-3.64.24-.29 1.28.6 2.56 1.93.59.61 1.23 1.31 1.87 2.03.1.11.2.23.3.35zM15.363 50.695l-.86.84-1.33-1.15zM41.193 76.655c-4.06.12-11.69.41-16.3.64-.41.02-.79.04-1.15.06-.43.03-.82.05-1.15.07-.04.01-.08.01-.11.01-1.68.12-4.89.48-4.89.48-.09.01-.18.01-.26.03h-.09c-2.25.2-4.23.4-5.94.59-.66.09-1.28.16-1.86.23v-27.54l.9 1.39.58.9c.1.16.23.26.38.31.65.23 1.59-.5 1.44-.57l.49-.48 1.07-1.05.2-.19 5.13 4.44h.01l.01.01.1.09.44.38.52.45.51.44 2.47 2.39 15.81 15.29h.01l1.68 1.63z" class="st7"/><path d="M19.753 56.055v.02l-.08.49-.19 1.25-.44 2.91-6.29-1.49-1.45 3.83-.49 1.29-1.37-1.53v-11.82l1.15 1.53.71.93.29.39 1.64-1.08.82-.54 3.19 2.14 2.39 1.6h.01l.01.01zM101.593 48.315v9.78l-.7.48-1.17-1.47-3.21-4.04-6.32 3.58-3.02 1.71-2.46 1.39.25-.32 4.46-5.75 3.28-4.22 4.79-3.27.05-.04.77-.52.1-.07 1.31 1.14zM68.783 58.115v-.03c-.03-.07-.06-.13-.09-.19l-12.54-20.81c-.02-.03-.03-.05-.05-.07-.01-.01-.02-.03-.03-.04-.06-.07-.13-.14-.21-.2-.01-.01-.02-.01-.03-.02a.898.898 0 00-.28-.13s-.01 0-.01-.01h-.02c-.03-.01-.07-.01-.1-.02-.03 0-.05-.01-.07-.01h-.18c-.02 0-.04.01-.06.01-.04 0-.07.01-.11.02h-.02c0 .01-.01.01-.01.01-.1.03-.2.07-.28.13-.01.01-.02.01-.03.02-.08.06-.15.12-.21.2-.01.01-.02.03-.03.04-.02.02-.03.04-.05.07l-12.54 20.81c-.04.06-.07.12-.09.19 0 .01-.01.02-.01.03-.02.08-.03.15-.04.22 0 .01-.01.03-.01.04s.01.02.01.03c-.01.08 0 .15.01.22.01.01.01.03.01.04v.02c.02.07.05.15.09.22a1.527 1.527 0 00.14.21c.02.01.03.03.05.05.06.06.13.11.2.16l12.54 7.41h.02c.05.03.1.05.16.07.03.01.05.03.08.03.09.03.18.04.27.04.09 0 .18-.01.27-.04.03 0 .05-.02.08-.03.06-.02.11-.04.17-.07h.01l12.53-7.41c.08-.05.14-.1.2-.16l.05-.05c.05-.05.08-.11.12-.16.01-.02.02-.04.03-.05.03-.07.06-.15.08-.22 0-.01 0-.01.01-.02v-.04c.02-.07.02-.14.02-.22v-.07c-.01-.07-.02-.14-.05-.22zm-14.56 5.9l-9.25-5.47 9.25-4.21v9.68zm0-11.96l-8.88 4.04 8.88-14.74v10.7zm2.08-10.7l8.88 14.74-8.88-4.04v-10.7zm4.11 20.23l-4.11 2.43v-9.68l9.25 4.21-5.14 3.04z" class="st8"/><path d="M68.573 63.417c-.332-.36-.87-.44-1.292-.191l-12.018 7.097-12.012-7.097a1.039 1.039 0 00-1.376 1.495l7.672 10.808c.609.035 1.22.077 1.84.135.277.027.562.042.846.06l-5.842-8.23 7.833 4.629v3.693c.688.02 1.383.04 2.078.066v-3.76l7.837-4.628-6.028 8.488c.792.064 1.568.168 2.325.315l8.22-11.575c.283-.4.25-.944-.083-1.305z" class="st8"/><path d="M101.593 77.435v3.6c-.62-.06-1.25-.11-1.87-.17-1.97-.16-3.91-.32-5.79-.46-5.17-.4-10.36-.74-15.42-1.02-2.36-.13-4.64-.24-6.87-.33-2.97-.13-5.84-.24-8.59-.31l-2.1-.06c-.21 0-.42-.01-.63-.01l-1.19-.03c-2.23-.05-4.38-.08-6.46-.1-.06 0-.12 0-.18-.01h-.77c-1.01-.01-1.99-.01-2.96-.01-4.48 0-8.98.07-13.75.21-4.39.13-8.73.35-12.88.63-1.57.1-3.02.22-4.38.34l-.29.03h-.13c-2.34.22-4.35.42-6.03.62-.67.08-1.29.15-1.86.22v-3.61c.57-.08 1.19-.15 1.86-.23 1.64-.18 3.57-.38 5.78-.58l.15-.01c.04 0 .07-.01.11-.01 1.48-.13 2.96-.25 4.55-.36h.08l.81-.06 1.93-.12c3.32-.19 6.74-.34 10.19-.46.84-.02 1.68-.04 2.5-.07.71-.01 1.4-.02 2.1-.04h.01l2.12-.03c2.4-.04 4.77-.06 7.13-.06h.36c.84 0 1.69 0 2.56.01.83.01 1.68.01 2.54.02l2.08.03c.82.02 1.64.03 2.48.05l2.49.06h.01c.62.01 1.23.03 1.86.05 2.24.06 4.54.14 6.92.24.57.02 1.15.04 1.74.07h.09c.61.03 1.22.05 1.84.08 1.63.07 3.28.16 4.97.25s3.4.19 5.11.3c.6.04 1.2.07 1.8.12 1.04.06 2.08.13 3.13.21 1.82.12 3.65.26 5.47.4 1.3.1 2.63.2 3.98.32.51.04 1.02.08 1.53.13.09 0 .17.01.26.02.53.04 1.07.09 1.61.14zM101.593 56.675v2.5l-.84.7-1.03-1.29-3.64-4.58-5.64 3.93-6.58 4.58-.01.01v.01l-.47.32-.79-1.14-.3-.43 1.44-1 1.23-.86 3.07-2.14v-.01l2-1.39 6.43-4.48 3.26 4.09 1.31 1.65zM20.233 56.035l-.04.42-.05.53-.13 1.29-.35 3.63-6.17-1.62-2.19 5.43-.13.32-1.73-2.02v-2.95l1.13 1.32.73-1.81 1.04-2.57 5.63 1.48.26-2.75.09-.89.62.06.69.07h.01z" class="st6"/><path d="M82.531 78.125l9.957-15.769-8.286 16.707zM24.046 77.863l-7.923-13.487 9.513 12.417zM97.979 78.125l3.511-16.208-1.617 16.505z" class="st6"/><path d="M84.963 59.425l-1.23.86c-.38.47-.76.95-1.14 1.43a1600.51 1600.51 0 00-7.28 9.33c-.25.33-.5.64-.74.95-.01.01-.02.02-.02.03-.31.41-.62.8-.91 1.18l-.02.02c-.31.41-.61.8-.9 1.17s-.57.73-.83 1.07c.61.03 1.22.05 1.84.08 2.57-3.34 6.29-8.16 10.12-13.01v-.01l.01-.01c1.11-1.4 2.22-2.8 3.31-4.16l.86-1.07-3.07 2.14zm0 0l-1.23.86c-.38.47-.76.95-1.14 1.43a1600.51 1600.51 0 00-7.28 9.33c-.25.33-.5.64-.74.95-.01.01-.02.02-.02.03-.31.41-.62.8-.91 1.18l-.02.02c-.31.41-.61.8-.9 1.17s-.57.73-.83 1.07c.61.03 1.22.05 1.84.08 2.57-3.34 6.29-8.16 10.12-13.01v-.01l.01-.01c1.11-1.4 2.22-2.8 3.31-4.16l.86-1.07-3.07 2.14zm0 0l-1.23.86c-.38.47-.76.95-1.14 1.43a1600.51 1600.51 0 00-7.28 9.33c-.25.33-.5.64-.74.95-.01.01-.02.02-.02.03-.31.41-.62.8-.91 1.18l-.02.02c-.31.41-.61.8-.9 1.17s-.57.73-.83 1.07c.61.03 1.22.05 1.84.08 2.57-3.34 6.29-8.16 10.12-13.01v-.01l.01-.01c1.11-1.4 2.22-2.8 3.31-4.16l.86-1.07-3.07 2.14zm0 0l-1.23.86c-.38.47-.76.95-1.14 1.43a1600.51 1600.51 0 00-7.28 9.33c-.25.33-.5.64-.74.95-.01.01-.02.02-.02.03-.31.41-.62.8-.91 1.18l-.02.02c-.31.41-.61.8-.9 1.17s-.57.73-.83 1.07c.61.03 1.22.05 1.84.08 2.57-3.34 6.29-8.16 10.12-13.01v-.01l.01-.01c1.11-1.4 2.22-2.8 3.31-4.16l.86-1.07-3.07 2.14zm0 0l-1.23.86c-.38.47-.76.95-1.14 1.43a1600.51 1600.51 0 00-7.28 9.33c-.25.33-.5.64-.74.95-.01.01-.02.02-.02.03-.31.41-.62.8-.91 1.18l-.02.02c-.31.41-.61.8-.9 1.17s-.57.73-.83 1.07c.61.03 1.22.05 1.84.08 2.57-3.34 6.29-8.16 10.12-13.01v-.01l.01-.01c1.11-1.4 2.22-2.8 3.31-4.16l.86-1.07-3.07 2.14zm16.63-11.19v-2.27c-.76-.81-1.37-1.41-1.87-1.86-1.52-1.38-2.05-1.38-2.41-1.39h-.02c-.5 0-.97.22-1.28.6-.43.5-1.08 1.23-1.89 2.15-1.38 1.55-3.3 3.7-5.38 6.2-.55.66-1.11 1.35-1.69 2.06l-.24.3c-6.07 7.51-13.29 16.86-16.75 21.37-.27.35-.51.66-.73.95l-.58.76-.39.51-.78 1.02 2.88.12c2.23.09 4.51.2 6.87.33 5.07.28 10.26.62 15.42 1.02 2.26.18 4.59.37 6.97.57.62.06 1.24.11 1.87.17v-3.01l-1.65-.15c-.07 0-.15-.01-.22-.02-.54-.04-1.08-.09-1.61-.14-1.75-.14-3.46-.28-5.13-.41-1.46-.11-2.92-.22-4.38-.32-1.06-.08-2.12-.15-3.17-.21-.62-.05-1.24-.09-1.85-.12-2.04-.14-4.08-.26-6.09-.37-1.37-.07-2.71-.14-4.03-.2.09-.12.18-.23.27-.35 2.57-3.34 6.29-8.16 10.12-13.01v-.01l.01-.01c1.11-1.4 2.22-2.8 3.31-4.16l.86-1.07v-.01c.38-.47.74-.92 1.11-1.37.23-.28.46-.57.68-.84 2.52-3.08 4.91-5.78 6.54-7.61.42-.47.8-.9 1.13-1.27.01-.02.03-.03.04-.05l.01.01c.55.49 1.31 1.29 2.18 2.25.58.64 1.22 1.36 1.87 2.13v-2.21l.3.27c-.1-.12-.2-.24-.3-.35zm-16.63 11.19l-1.23.86c-.38.47-.76.95-1.14 1.43a1600.51 1600.51 0 00-7.28 9.33c-.25.33-.5.64-.74.95-.01.01-.02.02-.02.03-.31.41-.62.8-.91 1.18l-.02.02c-.31.41-.61.8-.9 1.17s-.57.73-.83 1.07c.61.03 1.22.05 1.84.08 2.57-3.34 6.29-8.16 10.12-13.01v-.01l.01-.01c1.11-1.4 2.22-2.8 3.31-4.16l.86-1.07-3.07 2.14zm0 0l-1.23.86c-.38.47-.76.95-1.14 1.43a1600.51 1600.51 0 00-7.28 9.33c-.25.33-.5.64-.74.95-.01.01-.02.02-.02.03-.31.41-.62.8-.91 1.18l-.02.02c-.31.41-.61.8-.9 1.17s-.57.73-.83 1.07c.61.03 1.22.05 1.84.08 2.57-3.34 6.29-8.16 10.12-13.01v-.01l.01-.01c1.11-1.4 2.22-2.8 3.31-4.16l.86-1.07-3.07 2.14zm0 0l-1.23.86c-.38.47-.76.95-1.14 1.43a1600.51 1600.51 0 00-7.28 9.33c-.25.33-.5.64-.74.95-.01.01-.02.02-.02.03-.31.41-.62.8-.91 1.18l-.02.02c-.31.41-.61.8-.9 1.17s-.57.73-.83 1.07c.61.03 1.22.05 1.84.08 2.57-3.34 6.29-8.16 10.12-13.01v-.01l.01-.01c1.11-1.4 2.22-2.8 3.31-4.16l.86-1.07-3.07 2.14zm0 0l-1.23.86c-.38.47-.76.95-1.14 1.43a1600.51 1600.51 0 00-7.28 9.33c-.25.33-.5.64-.74.95-.01.01-.02.02-.02.03-.31.41-.62.8-.91 1.18l-.02.02c-.31.41-.61.8-.9 1.17s-.57.73-.83 1.07c.61.03 1.22.05 1.84.08 2.57-3.34 6.29-8.16 10.12-13.01v-.01l.01-.01c1.11-1.4 2.22-2.8 3.31-4.16l.86-1.07-3.07 2.14zm0 0l-1.23.86c-.38.47-.76.95-1.14 1.43a1600.51 1600.51 0 00-7.28 9.33c-.25.33-.5.64-.74.95-.01.01-.02.02-.02.03-.31.41-.62.8-.91 1.18l-.02.02c-.31.41-.61.8-.9 1.17s-.57.73-.83 1.07c.61.03 1.22.05 1.84.08 2.57-3.34 6.29-8.16 10.12-13.01v-.01l.01-.01c1.11-1.4 2.22-2.8 3.31-4.16l.86-1.07-3.07 2.14zM44.323 77.595l-.01-.01-2.68-2.59-17.07-16.51-2.36-2.28-1.11-.96-6.95-5.99-.97 1.13-.98 1.14.09.08-.5.49-.48-.74-1.86-2.88v5.52l.21.32c.38.6.96.96 1.65 1.03.27.04.56.02.86-.04.42-.09 1.4-.47 1.86-1.21l.54-.53 3.67 3.17 1.25 1.08.53.46.17.14.22.21 17 16.44.21.21c-4.01.14-9.21.35-12.73.53h-.01c-.74.04-1.41.07-1.98.11l-.52.03-.33.03c-1.74.13-4.49.44-4.68.46-.04 0-.08 0-.12.01h-.13c-2.23.2-4.17.4-5.81.59-.67.07-1.29.15-1.86.22v3.01c.56-.06 1.18-.14 1.86-.22 1.68-.19 3.69-.4 6.03-.61l.43-.03c.03 0 3.2-.36 4.82-.47 3.77-.26 14.01-.64 18.66-.79l3.54-.11-.46-.44z" class="st6"/><path d="M14.993 55.985l-3.69-.07-1.86-.03v-2.98l1.86 2.02.37.4 2.89-1.76z" class="st8"/><path d="M99.463 36.395l-.93-.54-.31-.17-.57-.33-.09-.05-1.77-1.03h-.01l-.04-.02-1.21-.7-.12-.07-.74-.43-1.91-1.1-.02-.01-.3-.17-.69-.4-1.06-.61-1.74-1-1.14-.66-.05-.03-.02-.01-.97-.56-.11-.06-.13-.08-.07-.04-.71-.41-.09-.05-.47-.27-.59-.34-.36-.21-.81-.47h-.01l-.16-.09-.37-.21v-.01l-.2-.11-.02-.01h-.01l-.53-.31h-.01l-.03-.01-.01-.01-.14-.08-.45-.27-.14-.08-.23-.13-.87-.5-.24-.14-6.3-3.63-.03-.01-1.5-.87-.87-.51-1.01-.58-2.76-1.59-3.57-2.06-.76-.43h-.01l-.02-.02-.92-.53-.96-.55-1.5-.87-.02-.01-.25-.14-2.36-1.37h-.01l-.65-.38-1.84 1.06-.64.37-4.02 2.32-1.37.79-.5.29-3 1.73-2.47 1.42-.59.34-.52.3-1.52.88-.45.26-.44.25-.75.44-.52.3-1.45.83-.45.26-.97.56-1.83 1.05-.36.21-.45.26-.89.51-.18.1-1.15.67-.94.54-.44.25-2.88 1.66-.29.17-.07.04-.28.16-.78.45-.65.37-1.65.96-1.92 1.11h-.01l-7.1 4.1h-.01l-.33.19-2.06 1.19-.3.17v53.12l.37.22.39.22 2.19 1.26.41.24.05.03.25.15.28.16.37.21 2.53 1.47 2.34 1.35h.02l.51.29.07.05.05.02h.03l.99.59 1.58.91 1.1.64 1.22.7.49.28.56.32.6.34 3.37 1.95 1.7.98.39.22.44.26.19.11h.01l.36.2.03.02 1.25.72.39.23.41.23.54.31.39.23 1.3.75.03.02.69.4 2.41 1.39.77.44.56.33.28.16.78.45 1.66.96.27.16.22.12 1.39.8h.01l.84.49.24.14.1.06.45.26.13.07.04.02.3.18.09.05.24.13.38.23.52.29v.01l.75.43.14.08.54.31.15.08.27.15.25.15.22.13.24.14.03.02.03.01.03.02.71.41 2.3 1.33.18.1.43.25.21.12.02.01.55-.32.14-.08 3.59-2.07.59-.34.19-.11 2.4-1.38.19-.11.39-.23.02-.01 1.57-.9.07-.04 1.47-.85.16-.09.33-.19.6-.35.13-.07.27-.16.05-.03.22-.13.13-.07.75-.43.36-.21.09-.05.91-.52.43-.25.4-.23.76-.44.6-.34.17-.1.7-.4.2-.12.32-.18.02-.01.12-.07.47-.27.63-.36 2.59-1.5.21-.12.59-.34.13-.07.01-.01.63-.36.24-.14.21-.13.58-.33.28-.16 1.03-.6.39-.22.24-.14.09-.05.1-.06.7-.4 1.39-.8 1.07-.62.33-.19.46-.26.06-.04.43-.25.08-.04v-.01l.25-.14.01-.01.24-.14.3-.17 1.03-.59.24-.14 1.16-.67.16-.09.14-.08.07-.04.09-.05.11-.06.02-.01 1.24-.73.21-.12.1-.05.2-.12.24-.14.86-.49.24-.16.05-.03.02-.01.12-.07v-.01h.05l.52-.3.03-.02.46-.26.34-.19.54-.32.02-.01 3.28-1.89 1.86-1.07.05-.03v-53.12l-2.13-1.23zm.26 53.28l-1.2.69-3.22 1.86-.86.5-.09.05-1.47.85-.04.02-.07.04-.09.05-.02.01-.21.12-.24.14-.16.1-.27.15-.57.33-.06.03-.02.01-.03.02-.31.18-.5.29-1.12.65-.02.01-1.14.66-.67.39-.03.01-.05.03-.04.02-.07.04-.14.08-1.11.64-.02.01-.02.01-.89.52-1.43.82-.44.25-.04.02-.14.08-.34.2-.38.22-.68.39-.26.15-.2.12-.05.03-.04.02-.57.33-.21.12-.51.3h-.01l-.24.14-.17.1-.25.14-.02.01-.09.05-.02.02h-.01l-.05.02-1.87 1.08-1.8 1.04-.59.34-.21.12-1.09.63-1.21.7-.18.1-.2.11-.22.13-.33.19-.46.27-.14.08-.08.05-.2.11-.17.1-.14.08-.74.43-.14.08-.24.14-.1.06-.18.1-.24.14-.03.02-.12.07-.94.53-.51.3-.38.22-.26.15-.09.05-2.98 1.72-.22.13-.31.18-.15.08-.81.47-.07.04-.62.36-1.02.59-.61.35-2.31 1.33-1.35.78-.62-.36-.73-.42-2.13-1.22-.03-.02-.12-.07-.05-.03-.14-.08-.37-.21-.33-.19-.17-.1-.1-.06-.6-.34-.14-.08-.25-.15h-.01l-.14-.08-.07-.04-.36-.2-.53-.31-.48-.28-.05-.03-.54-.31-.2-.11-.09-.06-.14-.08-.67-.38-.1-.06-.02-.01-2.93-1.69-.49-.29-1.59-.92-.53-.3-.23-.13-.22-.13-3.16-1.82-.74-.43-.02-.01-2.7-1.56-.01-.01-.53-.3-.79-.46-.27-.15-.03-.01-.32-.19-.14-.08-.07-.04-.61-.36-3.03-1.75-.23-.13-.6-.34-1.86-1.07h-.01l-.02-.01-.01-.01-.51-.3-.68-.39-.68-.39-1.07-.62-.31-.18-.29-.17-.12-.06h-.01l-.43-.25-4.32-2.5-.59-.34-.63-.37-.68-.39-.08-.05-.03-.01-.39-.22-.4-.23-2.67-1.55v-50.97l.52-.3 2.66-1.53.7-.41 5.99-3.45.48-.28.35-.2 1.36-.78.11-.06.64-.37.49-.29.06-.03.21-.12.67-.39 2.23-1.29.44-.25 1.43-.83.29-.17.37-.21 1.07-.61.45-.26.36-.21.03-.02 2.77-1.6.45-.26 3.16-1.82.45-.26 2.76-1.59.4-.23.44-.25 1.43-.83.21-.12.52-.3 2.34-1.35.71-.41 1.16-.67 3.48-2.01.8-.46 1.1-.63 1.12-.64.6.35h.01l2.37 1.36 1.64.95.17.1 1.88 1.09.26.15.71.41.13.07 2.08 1.2.98.56.01.01 1.53.88.51.3.91.52 1.88 1.08 2.11 1.22.54.32.03.01.26.14.01.01.14.09.45.25 1.13.65h.01l.22.13.41.24.62.36.14.08.7.41.88.5.36.21c.01.01.02.01.03.01l.65.39.02.01.12.07.72.41.1.06.83.48.01.01.23.13.45.27h.01l.96.55.62.36.65.37 1.07.62 1.11.64 1.66.96.04.02.1.06.02.01.93.54 1.13.65.1.06 1 .58.02.01.15.08.52.3.97.56.35.2.14.08.37.21.1.06 1.37.79.18.1.26.15 3.54 2.04v50.97z" opacity=".13"/><g><path d="M62.598 118.973a.455.455 0 01.358-.05.452.452 0 01.286.217c.214.359.536.9.967 1.62l-.807.483-.968-1.621-.813.485.967 1.621-.807.483-.968-1.621-.482-.808-.404-.676-.564-.945.808-.482 1.22-.728a.466.466 0 01.354-.056c.125.035.22.107.286.217l.728 1.22c.066.11.084.228.056.355a.466.466 0 01-.217.286zm-.646-.159l-.086-.143-.4-.67-.813.486.485.813.814-.486zM65.273 115.177l1.936 3.242a.452.452 0 01.055.354.455.455 0 01-.214.292l-1.62.968a.442.442 0 01-.359.05.442.442 0 01-.291-.214l-.728-1.22-.499-.835-.709-1.187a.455.455 0 01-.05-.358.452.452 0 01.218-.286l1.62-.968a.466.466 0 01.355-.055c.125.035.22.107.286.217zm.075 3.808l.813-.485-.095-.16-1.358-2.274-.813.485.725 1.215.728 1.22zM70.693 116.89l-.808.482-.967-1.62c-.18.106-.45.268-.813.485.214.359.536.9.967 1.62l-.808.483-.82-1.374-.564-.945-.794-1.33a.455.455 0 01-.05-.358.452.452 0 01.218-.285l1.62-.968a.466.466 0 01.355-.055c.125.034.22.107.286.217l2.178 3.648zm-2.257-1.946l-.086-.143-.4-.67c-.18.106-.45.268-.813.485l.485.813.814-.485zM71.757 111.306l1.935 3.242a.452.452 0 01.056.355.455.455 0 01-.214.291l-1.22.728-.4.24-.408.243-1.007-1.687-1.41-2.363.709-.423.099-.06 1.22-.727a.466.466 0 01.354-.056c.125.035.22.107.286.217zm.075 3.809l.813-.486-.095-.16-1.358-2.274-.813.485.725 1.215.728 1.22zM76.532 109.007l-.808.483 1.935 3.242-.813.485-1.935-3.242-.808.482c-.12-.201-.22-.37-.302-.505l-.18-.302 2.428-1.45.483.807zM79.53 106.665l1.936 3.242a.452.452 0 01.055.355.455.455 0 01-.213.292l-1.621.967a.442.442 0 01-.358.05.442.442 0 01-.291-.214l-.729-1.22c-.133-.223-.3-.501-.498-.835l-.709-1.187a.455.455 0 01-.05-.358.452.452 0 01.217-.285l1.621-.968a.466.466 0 01.355-.055c.125.034.22.107.286.216zm.076 3.809l.813-.485-.095-.16-1.358-2.275-.813.486.725 1.214.728 1.22z" class="st5"/><path d="M84.438 103.637l2.025 3.391c.07.119.09.243.057.371a.476.476 0 01-.223.305l-1.276.762-.42.25-.425.254-1.053-1.764-1.476-2.472.742-.443.103-.061 1.276-.762a.487.487 0 01.371-.058c.131.036.23.112.3.227zm.079 3.984l.85-.508-.1-.167-1.42-2.38-.85.509.758 1.27.762 1.276zM86.296 103.105c.224.376.393.66.508.85l1.276-.761.504.845-1.276.762.508.85 1.696-1.012.504.845-1.696 1.012-.845.505-.504-.845a50899.133 50899.133 0 01-.508-.851l-.504-.845a74407.961 74407.961 0 01-1.012-1.696l.844-.504 1.696-1.012.505.845-1.696 1.012zM88.223 100.809l.948-.567c.412.446 1.235 1.342 2.47 2.689-.196-.574-.594-1.724-1.194-3.45l.949-.566c.229.819.685 2.462 1.367 4.929l-.85.508c-.82-.79-2.05-1.97-3.69-3.543zM94.58 98.737l-.254-.425c-.188.112-.472.28-.851.507l1.52 2.547.85-.508-.253-.426.845-.504.504.845c.071.119.09.242.058.371a.476.476 0 01-.224.305l-1.695 1.012a.462.462 0 01-.375.052.462.462 0 01-.304-.223l-.762-1.276-.522-.874c-.212-.356-.46-.77-.74-1.242a.476.476 0 01-.053-.374.473.473 0 01.227-.3l1.696-1.011a.487.487 0 01.37-.058c.131.036.231.112.3.227l.508.85-.845.505zM98.308 95.357l2.024 3.392c.071.118.09.242.058.37a.476.476 0 01-.223.305l-1.696 1.013a.462.462 0 01-.374.052.462.462 0 01-.305-.224l-.762-1.276-.521-.873-.742-1.242a.476.476 0 01-.052-.374.473.473 0 01.227-.3l1.696-1.012a.487.487 0 01.37-.058c.132.037.231.112.3.227zm.078 3.984l.851-.508-.1-.166c-.315-.53-.789-1.322-1.42-2.38l-.85.508.758 1.27.761 1.276zM101.7 93.333c.507.85 1.266 2.123 2.278 3.816l-.845.505-2.025-3.391-.85.507 2.024 3.392-.845.504-1.053-1.765-1.476-2.471.845-.504 1.276-.762a.487.487 0 01.371-.058c.13.036.23.112.3.227z" class="st8"/></g><g><path d="M10.497 29.731l.717 1.264c.05.089.063.182.039.279a.359.359 0 01-.172.216l-.951.54.717 1.263-.63.358-.3-.527c-.117-.209-.257-.455-.417-.737l-.357-.63-.36-.634-.357-.63.63-.358.951-.539a.359.359 0 01.274-.036.359.359 0 01.216.171zM9.773 31.4c.143-.08.354-.2.634-.36l-.063-.11-.297-.523-.634.36.36.633zM13.43 29.74a.35.35 0 01.276-.033.348.348 0 01.216.172l.717 1.264-.63.357-.717-1.264-.634.36.717 1.264-.63.357-.717-1.264-.357-.63-.299-.527-.418-.737.63-.357.951-.54a.359.359 0 01.274-.036.359.359 0 01.217.172l.539.951c.049.086.06.177.036.274a.359.359 0 01-.171.216zm-.495-.134l-.063-.111-.297-.523c-.14.08-.35.2-.634.36l.36.634.634-.36zM15.554 26.864l1.433 2.528c.05.089.063.18.037.274a.35.35 0 01-.17.22l-1.264.718a.34.34 0 01-.276.032.34.34 0 01-.22-.17l-.54-.951-.37-.651-.524-.926a.35.35 0 01-.032-.276.348.348 0 01.171-.216c.28-.16.702-.398 1.264-.717a.359.359 0 01.274-.037.359.359 0 01.217.172zm-.008 2.932c.143-.08.354-.2.634-.36l-.07-.124c-.224-.394-.56-.985-1.006-1.774l-.635.36c.12.211.3.527.537.947l.54.951zM17.904 25.118l1.611 2.84c.05.09.063.18.037.275a.35.35 0 01-.17.22l-1.264.717a.34.34 0 01-.276.032.34.34 0 01-.22-.17l-.149-.26-.209-.37.63-.356c.04.068.099.174.18.317l.634-.36-1.433-2.528.63-.357zM19.526 25.03l.36.635.95-.54.358.63-.951.54.36.634 1.263-.717.357.63-1.264.717-.63.357-.357-.63-.211-.373-.148-.26-.358-.63-.36-.635-.356-.63.63-.357 1.264-.717.357.63-1.264.717zM22.868 23.555l-.18-.317-.634.36 1.076 1.897c.143-.08.355-.2.635-.36l-.18-.316.63-.357.357.63c.05.088.062.18.036.273a.35.35 0 01-.17.22l-1.263.718a.34.34 0 01-.277.032.34.34 0 01-.22-.17l-.54-.95-.369-.652-.525-.926a.35.35 0 01-.032-.276.348.348 0 01.172-.216c.28-.16.701-.398 1.264-.717a.359.359 0 01.274-.037.359.359 0 01.216.172l.36.634-.63.358zM25.846 21.447l-.63.357 1.434 2.528-.634.36-1.434-2.528-.63.357-.223-.395-.134-.235 1.894-1.074.357.63zM29.076 20.034l-.18-.317-.634.36.36.634.95-.54a.359.359 0 01.275-.036.359.359 0 01.216.172l.717 1.264c.05.089.062.18.036.274a.35.35 0 01-.17.22l-1.263.717a.34.34 0 01-.277.032.34.34 0 01-.22-.169l-.357-.63.63-.357c.038.069.098.174.18.317l.634-.36-.36-.634c-.211.12-.527.3-.947.537a.348.348 0 01-.274.037.356.356 0 01-.223-.174 92473.167 92473.167 0 00-.717-1.264.35.35 0 01-.032-.276.348.348 0 01.172-.217l1.264-.717a.359.359 0 01.274-.036.359.359 0 01.216.172l.36.634-.63.357zM31.697 17.296l1.611 2.841c.05.089.062.18.036.274a.35.35 0 01-.169.22l-1.264.718a.34.34 0 01-.276.032.34.34 0 01-.221-.17l-.67-1.182-.941-1.659.63-.357 1.433 2.528c.143-.08.355-.2.635-.36l-1.434-2.527.63-.358zM34.806 17.617a.35.35 0 01.277-.032.348.348 0 01.216.172l.537.947c.05.088.062.18.036.274a.35.35 0 01-.169.22l-.951.54-.63.357-.357-.63-.36-.634-.357-.63-.15-.266-.21-.368-.357-.63.63-.357.951-.54a.359.359 0 01.274-.036.359.359 0 01.216.172l.54.95c.049.087.06.178.036.275a.359.359 0 01-.172.216zm-1.128.227l.634-.36a2824.374 2824.374 0 01-.36-.634l-.634.36c.08.14.2.35.36.634zm.717 1.264l.634-.36-.063-.111-.297-.523-.634.36.36.634zM38.195 14.025l1.613 2.845-.63.358-1.433-2.529-.635.36 1.434 2.528-.63.357-1.433-2.528-.635.36 1.434 2.528-.63.357-.607-1.071a93451.049 93451.049 0 00-1.006-1.774.35.35 0 01-.032-.276.348.348 0 01.171-.217l.947-.537a.348.348 0 01.274-.036.35.35 0 01.22.17.359.359 0 01-.036-.274.359.359 0 01.172-.217l.952-.54a.359.359 0 01.273-.036.359.359 0 01.217.172zM38.652 13.353c.105-.06.315-.18.63-.357l1.343 2.37c.075.13.224.393.447.788l-.63.357-.746-1.316-1.044-1.842zM42.167 12.192l-.63.357 1.434 2.528-.635.36-1.433-2.528-.63.357-.224-.394-.133-.236 1.894-1.074.357.63zM44.695 10.758l-.63.357 1.434 2.529-.635.36-1.433-2.529-.63.357-.224-.394-.133-.236 1.894-1.074.357.63zM45.959 10.041l.36.635.95-.54.358.63-.951.54.36.634c.562-.32.984-.558 1.264-.717l.357.63-1.264.717-.63.357-.357-.63-.212-.373a15724.45 15724.45 0 00-.865-1.525l-.357-.63c.317-.18.527-.3.63-.357.634-.36 1.055-.6 1.264-.717l.357.63-1.264.716zM49.571 7.574l1.434 2.528c.05.089.062.18.036.274a.35.35 0 01-.169.22l-.951.54-.313.177-.317.18a236495.362 236495.362 0 01-1.79-3.158l.552-.313.077-.044.951-.54a.359.359 0 01.274-.036.359.359 0 01.216.172zm-.007 2.932l.634-.36-.07-.124-1.007-1.774-.634.36c.12.211.3.527.537.947l.54.951zM49.96 6.94l.63-.357 1.253 2.211c-.102.059-.312.178-.63.357l-.468-.827c-.21-.368-.471-.83-.785-1.384zm1.433 2.528l.63-.357.357.63c-.102.058-.312.178-.63.357l-.133-.235-.224-.395z" class="st8"/></g></svg>