<svg height="144" viewBox="0 0 124.56 144" width="124.56" xmlns="http://www.w3.org/2000/svg"><g clip-rule="evenodd" fill-rule="evenodd"><path d="m124.512 108.145-62.169 35.855-62.141-35.911.006-15.151 124.308.934z" fill="#1d0f3d"/><path d="m124.516 97.872-124.308-.934.021-47.431 124.308.935z" fill="#fff"/><path d="m124.537 55.442-124.308-.935.005-18.236 62.171-35.858 62.139 35.915z" fill="#1d0f3d"/></g><path d="m44.21 67.017 4.028 7.936-3.056 12.981-7.279-5.949 1.275-9.52z" fill="#fbd504"/><path d="m33.457 64.357a1.517 1.517 0 0 1 -1.517-1.517v-11.959a1.517 1.517 0 1 1 3.034 0v11.959c0 .838-.679 1.517-1.517 1.517" fill="#d81f28"/><path d="m31.201 62.841h4.69" fill="#fff"/><path d="m35.891 64.357h-4.69a1.517 1.517 0 1 1 0-3.035h4.69a1.518 1.518 0 0 1 0 3.035" fill="#1a0c3d"/><path d="m44.21 67.017 4.986-4.699a21.018 21.018 0 0 0 -14.908-6.175c-11.644 0-21.083 9.438-21.083 21.083s9.439 21.083 21.083 21.083c4.34 0 8.157 1.584 11.51-.664l4.172.577-.119-6.773-11.949-9.463 2.569-12.099z" fill="#ef3953"/><path d="m34.288 100.378c-12.766 0-23.152-10.386-23.152-23.151 0-12.767 10.386-23.152 23.152-23.152a22.997 22.997 0 0 1 16.371 6.781l1.507 1.506-6.537 6.161-2.838-3.011 3.35-3.157a18.87 18.87 0 0 0 -11.853-4.143c-10.484 0-19.014 8.529-19.014 19.015 0 10.483 8.53 19.013 19.014 19.013" fill="#d81f28"/><path d="m45.909 88.485-2.971-2.881a11.978 11.978 0 0 0 3.393-8.378c0-3.283-1.297-6.352-3.652-8.64l-1.551-1.506 1.663-1.568 1.416 1.5 1.354-1.394a16.052 16.052 0 0 1 4.908 11.608 16.105 16.105 0 0 1 -4.56 11.259m-16.38-11.259a4.76 4.76 0 1 1 9.52 0 4.76 4.76 0 0 1 -9.52 0" fill="#fbd504"/><path d="m34.288 84.055c-3.765 0-6.829-3.063-6.829-6.828a6.836 6.836 0 0 1 6.829-6.83 6.836 6.836 0 0 1 6.829 6.83 6.837 6.837 0 0 1 -6.829 6.828m0-9.52a2.694 2.694 0 0 0 -2.691 2.691 2.694 2.694 0 0 0 2.691 2.69 2.694 2.694 0 0 0 2.691-2.69 2.694 2.694 0 0 0 -2.691-2.691" fill="#d81f28"/><path d="m49.196 62.318-12.03 11.116" fill="#1a0c3d"/><path d="m47.795 60.797 2.809 3.039-12.028 11.118-2.81-3.038z" fill="#d81f28"/><path d="m36.534 81.423 8.648 6.511 4.67 3.514v8.93l-9.38-.453" fill="#ef3953"/><path d="m51.92 100.378h-18.007v-4.139h13.869v-3.76l-12.491-9.403 2.488-3.305 14.141 10.645z" fill="#d81f28"/><path d="m53.387 52.02 1.658-1.658 1.66 1.659-1.658 1.658zm-7.128-7.994.793-.793.793.792-.793.794z" fill="#fbd504"/><path d="m26.274 68.535c-.838 0-1.518-.68-1.518-1.518v-16.136a1.518 1.518 0 0 1 3.036 0v16.136c0 .838-.68 1.518-1.518 1.518" fill="#d81f28"/><path d="m62.817 134.968-54.595-31.008-.444-62.784 54.15-31.777 54.595 31.009.003.316.441 62.468-.272.16zm-53.504-31.649 53.496 30.385 53.06-31.138-.435-61.52-53.496-30.382-53.06 31.136z" fill="#2c3491"/><path d="m62.778 72.932h-1.635l-.526 5.034h-2.269l.528-5.034h-1.232l.2-1.964h1.236l.475-4.607h-1.257l.2-1.964h1.261l.427-4.055h2.265l-.426 4.055h1.637l.429-4.055h2.265l-.429 4.055h1.284l-.2 1.964h-1.285l-.479 4.607h1.285l-.2 1.964h-1.286l-.528 5.034h-2.265zm-1.432-1.964h1.636l.479-4.607h-1.637zm10.973-10.827c2.694 0 4.08 1.611 4.08 4.431v.553h-2.617v-.729c0-1.259-.507-1.737-1.387-1.737-.881 0-1.386.478-1.386 1.737 0 1.285.555 2.242 2.367 3.829 2.319 2.037 3.048 3.497 3.048 5.512 0 2.82-1.411 4.431-4.131 4.431-2.717 0-4.131-1.61-4.131-4.431v-1.082h2.621v1.26c0 1.258.553 1.711 1.437 1.711.879 0 1.433-.453 1.433-1.711 0-1.285-.554-2.241-2.365-3.828-2.317-2.041-3.048-3.5-3.048-5.514 0-2.821 1.387-4.432 4.079-4.432zm8.458 17.825h-2.771v-17.625h2.771v7.555h3.147v-7.555h2.818v17.625h-2.818v-7.553h-3.147zm7.976-17.625h2.77v17.625h-2.77zm4.783 0h2.771v15.108h4.557v2.517h-7.328zm8.533 0h2.771v15.108h4.557v2.517h-7.327v-17.625zm-38.272 26.98v1.599c0 1.923-.963 3.021-2.818 3.021-1.854 0-2.816-1.099-2.816-3.021v-6.252c0-1.925.962-3.023 2.816-3.023 1.855 0 2.818 1.099 2.818 3.023v1.168h-1.788v-1.288c0-.859-.377-1.186-.979-1.186s-.978.326-.978 1.186v6.491c0 .859.376 1.168.978 1.168.601 0 .979-.309.979-1.168v-1.718zm.994-4.653c0-1.925 1.013-3.023 2.867-3.023 1.856 0 2.869 1.099 2.869 3.023v6.252c0 1.923-1.013 3.021-2.869 3.021-1.854 0-2.867-1.099-2.867-3.021zm1.89 6.371c0 .859.376 1.186.978 1.186.601 0 .979-.326.979-1.186v-6.491c0-.859-.379-1.186-.979-1.186-.602 0-.978.326-.978 1.186zm5.064-9.257h1.889v10.305h3.11v1.719h-4.999zm5.666 2.886c0-1.925 1.013-3.023 2.867-3.023 1.855 0 2.869 1.099 2.869 3.023v6.252c0 1.923-1.014 3.021-2.869 3.021-1.854 0-2.867-1.099-2.867-3.021zm1.889 6.371c0 .859.377 1.186.979 1.186s.979-.326.979-1.186v-6.491c0-.859-.378-1.186-.979-1.186s-.979.326-.979 1.186zm9.015 2.767c-.103-.31-.17-.499-.17-1.477v-1.892c0-1.116-.38-1.528-1.239-1.528h-.652v4.896h-1.89v-12.023h2.852c1.959 0 2.801.91 2.801 2.766v.943c0 1.238-.396 2.027-1.237 2.422v.036c.945.394 1.254 1.286 1.254 2.54v1.856c0 .583.018 1.013.207 1.46h-1.926zm-2.061-10.307v3.693h.738c.706 0 1.133-.31 1.133-1.271v-1.186c0-.858-.29-1.237-.959-1.237h-.912zm11.128 10.307h-1.905l-.327-2.183h-2.32l-.324 2.183h-1.734l1.922-12.023h2.765zm-4.311-3.815h1.819l-.893-6.079h-.033zm5.184-8.209h2.989c1.89 0 2.816 1.048 2.816 2.972v6.08c0 1.923-.927 2.972-2.816 2.972h-2.989zm1.889 1.717v8.588h1.065c.603 0 .963-.308.963-1.167v-6.252c0-.858-.36-1.169-.963-1.169zm4.963 1.169c0-1.925 1.014-3.023 2.869-3.023 1.854 0 2.867 1.099 2.867 3.023v6.252c0 1.923-1.013 3.021-2.867 3.021-1.855 0-2.869-1.099-2.869-3.021zm1.89 6.371c0 .859.377 1.186.979 1.186.6 0 .979-.326.979-1.186v-6.491c0-.859-.379-1.186-.979-1.186-.603 0-.979.326-.979 1.186z" fill="#1d0f3d"/></svg>