<?xml version="1.0" encoding="utf-8"?>
<!-- Generator: Adobe Illustrator 16.0.0, SVG Export Plug-In . SVG Version: 6.00 Build 0)  -->
<!DOCTYPE svg PUBLIC "-//W3C//DTD SVG 1.1//EN" "http://www.w3.org/Graphics/SVG/1.1/DTD/svg11.dtd">
<svg version="1.1" id="Layer_1" xmlns="http://www.w3.org/2000/svg" xmlns:xlink="http://www.w3.org/1999/xlink" x="0px" y="0px"
	 width="124.56px" height="144px" viewBox="0 0 124.56 144" enable-background="new 0 0 124.56 144" xml:space="preserve">
<g>
	<polygon fill-rule="evenodd" clip-rule="evenodd" fill="#1D0F3D" points="124.512,108.145 62.343,144 0.202,108.089 0.208,92.938 
		124.516,93.872 	"/>
	<polygon fill-rule="evenodd" clip-rule="evenodd" fill="#FFFFFF" points="124.516,97.872 0.208,96.938 0.229,49.507 
		124.537,50.442 	"/>
	<polygon fill-rule="evenodd" clip-rule="evenodd" fill="#1D0F3D" points="124.537,55.442 0.229,54.507 0.234,36.271 62.405,0.413 
		124.544,36.328 	"/>
</g>
<g>
	<polygon fill="#FBD504" points="44.21,67.017 48.238,74.953 45.182,87.934 37.903,81.985 39.178,72.465 	"/>
	<path fill="#D81F28" d="M33.457,64.357c-0.838,0-1.517-0.679-1.517-1.517V50.881c0-0.838,0.679-1.517,1.517-1.517
		c0.838,0,1.517,0.679,1.517,1.517V62.84C34.974,63.678,34.295,64.357,33.457,64.357"/>
	<line fill="#FFFFFF" x1="31.201" y1="62.841" x2="35.891" y2="62.841"/>
	<path fill="#1A0C3D" d="M35.891,64.357h-4.69c-0.838,0-1.517-0.679-1.517-1.517s0.679-1.518,1.517-1.518h4.69
		c0.838,0,1.517,0.68,1.517,1.518S36.729,64.357,35.891,64.357"/>
	<path fill="#EF3953" d="M44.21,67.017l4.986-4.699c-3.815-3.815-9.086-6.175-14.908-6.175c-11.644,0-21.083,9.438-21.083,21.083
		c0,11.645,9.439,21.083,21.083,21.083c4.34,0,8.157,1.584,11.51-0.664l4.172,0.577l-0.119-6.773l-11.949-9.463l2.569-12.099
		L44.21,67.017"/>
	<path fill="#D81F28" d="M34.288,100.378c-12.766,0-23.152-10.386-23.152-23.151c0-12.767,10.386-23.152,23.152-23.152
		c6.185,0,11.999,2.408,16.371,6.781l1.507,1.506l-6.537,6.161l-2.838-3.011l3.35-3.157c-3.355-2.685-7.492-4.143-11.853-4.143
		c-10.484,0-19.014,8.529-19.014,19.015c0,10.483,8.53,19.013,19.014,19.013"/>
	<path fill="#FBD504" d="M45.909,88.485l-2.971-2.881c2.188-2.258,3.393-5.233,3.393-8.378c0-3.283-1.297-6.352-3.652-8.64
		l-1.551-1.506l1.663-1.568l1.416,1.5l1.354-1.394c3.165,3.074,4.908,7.196,4.908,11.608C50.468,81.452,48.849,85.45,45.909,88.485"
		/>
	<path fill="#FBD504" d="M29.529,77.226c0-2.628,2.13-4.76,4.759-4.76c2.629,0,4.761,2.132,4.761,4.76
		c0,2.629-2.131,4.76-4.761,4.76C31.659,81.985,29.529,79.854,29.529,77.226"/>
	<path fill="#D81F28" d="M34.288,84.055c-3.765,0-6.829-3.063-6.829-6.828c0-3.767,3.063-6.83,6.829-6.83
		c3.766,0,6.829,3.063,6.829,6.83C41.117,80.991,38.054,84.055,34.288,84.055 M34.288,74.535c-1.484,0-2.691,1.207-2.691,2.691
		c0,1.482,1.207,2.69,2.691,2.69c1.484,0,2.691-1.208,2.691-2.69C36.979,75.742,35.772,74.535,34.288,74.535"/>
	<line fill="#1A0C3D" x1="49.196" y1="62.318" x2="37.166" y2="73.434"/>
	
		<rect x="41.112" y="59.686" transform="matrix(0.6788 0.7343 -0.7343 0.6788 63.7153 -9.9063)" fill="#D81F28" width="4.138" height="16.38"/>
	<polyline fill="#EF3953" points="36.534,81.423 45.182,87.934 49.852,91.448 49.852,100.378 40.472,99.925 	"/>
	<polygon fill="#D81F28" points="51.92,100.378 33.913,100.378 33.913,96.239 47.782,96.239 47.782,92.479 35.291,83.076 
		37.779,79.771 51.92,90.416 	"/>
	
		<rect x="53.874" y="50.847" transform="matrix(0.707 -0.7072 0.7072 0.707 -20.6605 54.1715)" fill="#FBD504" width="2.345" height="2.346"/>
	
		<rect x="46.492" y="43.464" transform="matrix(0.7069 -0.7073 0.7073 0.7069 -17.3483 46.1855)" fill="#FBD504" width="1.122" height="1.121"/>
	<path fill="#D81F28" d="M26.274,68.535c-0.838,0-1.518-0.68-1.518-1.518V50.881c0-0.838,0.68-1.517,1.518-1.517
		s1.518,0.679,1.518,1.517v16.136C27.792,67.855,27.112,68.535,26.274,68.535"/>
</g>
<g>
	<path fill="#2C3491" d="M62.817,134.968L8.222,103.96L7.778,41.176l54.15-31.777l54.595,31.009l0.003,0.316l0.441,62.468
		l-0.272,0.16L62.817,134.968z M9.313,103.319l53.496,30.385l53.06-31.138l-0.435-61.52L61.938,10.664L8.878,41.8L9.313,103.319z"/>
</g>
<path fill="#1D0F3D" d="M62.778,72.932h-1.635l-0.526,5.034h-2.269l0.528-5.034h-1.232l0.2-1.964h1.236l0.475-4.607h-1.257
	l0.2-1.964h1.261l0.427-4.055h2.265l-0.426,4.055h1.637l0.429-4.055h2.265l-0.429,4.055h1.284l-0.2,1.964h-1.285l-0.479,4.607h1.285
	l-0.2,1.964h-1.286l-0.528,5.034h-2.265L62.778,72.932z M61.346,70.968h1.636l0.479-4.607h-1.637L61.346,70.968z"/>
<path fill="#1D0F3D" d="M72.319,60.141c2.694,0,4.08,1.611,4.08,4.431v0.553h-2.617v-0.729c0-1.259-0.507-1.737-1.387-1.737
	c-0.881,0-1.386,0.478-1.386,1.737c0,1.285,0.555,2.242,2.367,3.829c2.319,2.037,3.048,3.497,3.048,5.512
	c0,2.82-1.411,4.431-4.131,4.431c-2.717,0-4.131-1.61-4.131-4.431v-1.082h2.621v1.26c0,1.258,0.553,1.711,1.437,1.711
	c0.879,0,1.433-0.453,1.433-1.711c0-1.285-0.554-2.241-2.365-3.828c-2.317-2.041-3.048-3.5-3.048-5.514
	C68.24,61.752,69.627,60.141,72.319,60.141z"/>
<path fill="#1D0F3D" d="M80.777,77.966h-2.771V60.341h2.771v7.555h3.147v-7.555h2.818v17.625h-2.818v-7.553h-3.147V77.966z"/>
<path fill="#1D0F3D" d="M88.753,60.341h2.77v17.625h-2.77V60.341z"/>
<path fill="#1D0F3D" d="M93.536,60.341h2.771v15.108h4.557v2.517h-7.328V60.341z"/>
<path fill="#1D0F3D" d="M102.069,60.341h2.771v15.108h4.557v2.517h-7.327V60.341z"/>
<path fill="#1D0F3D" d="M63.797,87.321v1.599c0,1.923-0.963,3.021-2.818,3.021c-1.854,0-2.816-1.099-2.816-3.021v-6.252
	c0-1.925,0.962-3.023,2.816-3.023c1.855,0,2.818,1.099,2.818,3.023v1.168h-1.788v-1.288c0-0.859-0.377-1.186-0.979-1.186
	c-0.602,0-0.978,0.326-0.978,1.186v6.491c0,0.859,0.376,1.168,0.978,1.168c0.601,0,0.979-0.309,0.979-1.168v-1.718H63.797z"/>
<path fill="#1D0F3D" d="M64.791,82.668c0-1.925,1.013-3.023,2.867-3.023c1.856,0,2.869,1.099,2.869,3.023v6.252
	c0,1.923-1.013,3.021-2.869,3.021c-1.854,0-2.867-1.099-2.867-3.021V82.668z M66.681,89.039c0,0.859,0.376,1.186,0.978,1.186
	c0.601,0,0.979-0.326,0.979-1.186v-6.491c0-0.859-0.379-1.186-0.979-1.186c-0.602,0-0.978,0.326-0.978,1.186V89.039z"/>
<path fill="#1D0F3D" d="M71.745,79.782h1.889v10.305h3.11v1.719h-4.999V79.782z"/>
<path fill="#1D0F3D" d="M77.411,82.668c0-1.925,1.013-3.023,2.867-3.023c1.855,0,2.869,1.099,2.869,3.023v6.252
	c0,1.923-1.014,3.021-2.869,3.021c-1.854,0-2.867-1.099-2.867-3.021V82.668z M79.3,89.039c0,0.859,0.377,1.186,0.979,1.186
	s0.979-0.326,0.979-1.186v-6.491c0-0.859-0.378-1.186-0.979-1.186S79.3,81.688,79.3,82.548V89.039z"/>
<path fill="#1D0F3D" d="M88.315,91.806c-0.103-0.31-0.17-0.499-0.17-1.477v-1.892c0-1.116-0.38-1.528-1.239-1.528h-0.652v4.896
	h-1.89V79.782h2.852c1.959,0,2.801,0.91,2.801,2.766v0.943c0,1.238-0.396,2.027-1.237,2.422v0.036
	c0.945,0.394,1.254,1.286,1.254,2.54v1.856c0,0.583,0.018,1.013,0.207,1.46H88.315z M86.254,81.499v3.693h0.738
	c0.706,0,1.133-0.31,1.133-1.271v-1.186c0-0.858-0.29-1.237-0.959-1.237H86.254z"/>
<path fill="#1D0F3D" d="M97.382,91.806h-1.905l-0.327-2.183h-2.32l-0.324,2.183h-1.734l1.922-12.023h2.765L97.382,91.806z
	 M93.071,87.991h1.819l-0.893-6.079h-0.033L93.071,87.991z"/>
<path fill="#1D0F3D" d="M98.255,79.782h2.989c1.89,0,2.816,1.048,2.816,2.972v6.08c0,1.923-0.927,2.972-2.816,2.972h-2.989V79.782z
	 M100.144,81.499v8.588h1.065c0.603,0,0.963-0.308,0.963-1.167v-6.252c0-0.858-0.36-1.169-0.963-1.169H100.144z"/>
<path fill="#1D0F3D" d="M105.107,82.668c0-1.925,1.014-3.023,2.869-3.023c1.854,0,2.867,1.099,2.867,3.023v6.252
	c0,1.923-1.013,3.021-2.867,3.021c-1.855,0-2.869-1.099-2.869-3.021V82.668z M106.997,89.039c0,0.859,0.377,1.186,0.979,1.186
	c0.6,0,0.979-0.326,0.979-1.186v-6.491c0-0.859-0.379-1.186-0.979-1.186c-0.603,0-0.979,0.326-0.979,1.186V89.039z"/>
</svg>
