<?xml version="1.0" encoding="utf-8"?>
<!-- Generator: Adobe Illustrator 21.0.2, SVG Export Plug-In . SVG Version: 6.00 Build 0)  -->
<svg version="1.1" xmlns="http://www.w3.org/2000/svg" xmlns:xlink="http://www.w3.org/1999/xlink" x="0px" y="0px"
	 viewBox="0 0 110.979 128.417" enable-background="new 0 0 110.979 128.417" xml:space="preserve">
<g id="Layer_1">
</g>
<g id="Layer_4">
	<g>
		<polygon fill="#0A0F44" points="55.542,128.26 0.208,96.314 0.208,32.42 55.542,0.473 110.875,32.42 110.875,96.313 		"/>
	</g>
	<g>
		<polygon fill="#040933" points="55.878,116.944 10.406,90.691 10.406,38.183 55.878,11.93 101.351,38.183 101.351,90.69 		"/>
	</g>
	<g enable-background="new    ">
		<path fill="#15FFAB" d="M55.54,10.585L8.895,37.477V91.26l46.646,26.889l46.648-26.889V37.477L55.54,10.585z M100.3,90.176
			l-44.76,25.807L10.779,90.176V38.57L55.54,12.764L100.3,38.57V90.176z"/>
	</g>
	<g>
		<path fill="#15FFAB" d="M73.226,14.246l-1.224-0.7l-0.483,0.844l1.181,0.676l-0.285,0.498l-1.181-0.676l-0.957,1.672l-0.53-0.303
			l2.01-3.513l1.754,1.004L73.226,14.246z"/>
		<path fill="#15FFAB" d="M73.797,15.634l-1.268,2.216l-0.512-0.293l1.268-2.216L73.797,15.634z M73.735,14.375
			c0.051-0.089,0.128-0.148,0.231-0.176c0.103-0.028,0.199-0.016,0.291,0.036c0.092,0.053,0.152,0.131,0.18,0.233
			c0.029,0.101,0.017,0.198-0.036,0.29c-0.053,0.093-0.131,0.153-0.233,0.181c-0.101,0.029-0.198,0.017-0.29-0.036
			c-0.093-0.053-0.153-0.131-0.181-0.233C73.669,14.567,73.681,14.469,73.735,14.375z"/>
		<path fill="#15FFAB" d="M74.446,16.004l0.512,0.293l-0.113,0.198c0.151-0.045,0.273-0.065,0.366-0.059
			c0.096,0.005,0.195,0.036,0.297,0.094c0.135,0.077,0.251,0.202,0.348,0.374l-0.503,0.334c-0.057-0.125-0.132-0.215-0.224-0.267
			c-0.279-0.16-0.539-0.029-0.781,0.393l-0.657,1.149l-0.512-0.293L74.446,16.004z"/>
		<path fill="#15FFAB" d="M77.26,18.117L76.708,18.1c0.011-0.175-0.032-0.29-0.131-0.347c-0.047-0.027-0.096-0.034-0.147-0.022
			c-0.051,0.012-0.091,0.042-0.118,0.091c-0.049,0.085,0.002,0.225,0.151,0.422c0.205,0.272,0.326,0.485,0.364,0.637
			c0.037,0.152,0.009,0.312-0.087,0.479c-0.122,0.214-0.304,0.348-0.544,0.402c-0.231,0.049-0.455,0.011-0.672-0.113
			c-0.372-0.213-0.531-0.545-0.478-0.996l0.553,0.048c0,0.141,0.008,0.235,0.023,0.282c0.029,0.093,0.087,0.165,0.174,0.214
			c0.173,0.099,0.304,0.07,0.395-0.088c0.052-0.091,0.034-0.214-0.054-0.369c-0.037-0.055-0.074-0.11-0.112-0.164
			c-0.038-0.054-0.076-0.109-0.114-0.165c-0.107-0.158-0.17-0.291-0.189-0.398c-0.024-0.137,0.005-0.278,0.088-0.424
			c0.11-0.193,0.267-0.314,0.471-0.364c0.207-0.049,0.407-0.018,0.6,0.092C77.162,17.478,77.289,17.745,77.26,18.117z"/>
		<path fill="#15FFAB" d="M78.333,18.864l-0.995,1.738l-0.512-0.293l0.995-1.738l-0.219-0.125l0.273-0.478l0.219,0.125l0.465-0.812
			l0.512,0.293l-0.465,0.812l0.398,0.228l-0.273,0.478L78.333,18.864z"/>
		<path fill="#15FFAB" d="M80.966,20.785l-0.816,1.427l-0.53-0.303l2.01-3.513l0.601,0.344c0.294,0.168,0.505,0.316,0.631,0.443
			c0.128,0.128,0.217,0.282,0.268,0.461c0.089,0.313,0.047,0.619-0.125,0.919c-0.184,0.322-0.438,0.515-0.761,0.58
			c-0.323,0.065-0.667-0.007-1.033-0.217L80.966,20.785z M81.248,20.293l0.198,0.113c0.487,0.279,0.838,0.231,1.052-0.144
			c0.207-0.362,0.06-0.687-0.442-0.975l-0.175-0.1L81.248,20.293z"/>
		<path fill="#15FFAB" d="M83.306,21.076l0.512,0.293l-0.114,0.198c0.15-0.045,0.272-0.065,0.366-0.059
			c0.096,0.005,0.195,0.036,0.296,0.094c0.135,0.077,0.251,0.202,0.348,0.374l-0.502,0.334c-0.057-0.125-0.132-0.214-0.224-0.267
			c-0.279-0.16-0.539-0.029-0.781,0.393l-0.657,1.149l-0.512-0.293L83.306,21.076z"/>
		<path fill="#15FFAB" d="M85.561,22.366l-1.268,2.216l-0.512-0.293l1.268-2.216L85.561,22.366z M85.499,21.108
			c0.051-0.089,0.128-0.148,0.231-0.176c0.103-0.028,0.199-0.016,0.291,0.036c0.092,0.053,0.152,0.131,0.18,0.233
			c0.029,0.101,0.017,0.198-0.036,0.29c-0.053,0.092-0.131,0.153-0.233,0.181c-0.101,0.029-0.197,0.017-0.29-0.036
			c-0.093-0.053-0.153-0.131-0.181-0.233C85.432,21.3,85.445,21.202,85.499,21.108z"/>
		<path fill="#15FFAB" d="M85.952,24.892l1.317,0.754l-0.276,0.482l-2.332-1.335l2.43-0.916l-1.131-0.647l0.274-0.478l2.143,1.227
			L85.952,24.892z"/>
		<path fill="#15FFAB" d="M90.056,26.57l-1.588-0.909c-0.09,0.19-0.114,0.368-0.071,0.536c0.044,0.166,0.148,0.296,0.312,0.39
			c0.127,0.073,0.25,0.103,0.368,0.09c0.117-0.014,0.274-0.072,0.473-0.176l0.294,0.489c-0.132,0.075-0.258,0.133-0.379,0.171
			c-0.12,0.039-0.238,0.06-0.353,0.063c-0.115,0.004-0.228-0.01-0.341-0.043c-0.112-0.032-0.226-0.081-0.342-0.147
			c-0.331-0.189-0.535-0.447-0.614-0.774c-0.078-0.328-0.016-0.669,0.186-1.023c0.201-0.35,0.46-0.578,0.778-0.684
			c0.318-0.102,0.639-0.06,0.962,0.124c0.326,0.187,0.524,0.438,0.595,0.754c0.07,0.314,0,0.654-0.209,1.019L90.056,26.57z
			 M89.77,25.851c0.085-0.314-0.009-0.549-0.282-0.705c-0.062-0.036-0.126-0.059-0.191-0.072c-0.065-0.012-0.131-0.013-0.196-0.003
			c-0.065,0.01-0.128,0.031-0.188,0.063c-0.061,0.032-0.118,0.075-0.171,0.129L89.77,25.851z"/>
	</g>
	<g>
		<g>
			<path fill="#15FFAB" d="M23.29,44.478c-2.029,0-3.681-1.651-3.681-3.681c0-2.029,1.651-3.68,3.681-3.68
				c2.029,0,3.68,1.651,3.68,3.68C26.971,42.827,25.32,44.478,23.29,44.478z M23.29,37.999c-1.543,0-2.799,1.255-2.799,2.798
				c0,1.543,1.256,2.798,2.799,2.798c1.543,0,2.798-1.255,2.798-2.798C26.088,39.255,24.833,37.999,23.29,37.999z"/>
		</g>
		<g>
			<g>
				<path fill="#15FFAB" d="M24.175,43.914c0,0.397,0,0.794,0,1.191c0,0.709,1.103,0.711,1.103,0c0-0.397,0-0.794,0-1.191
					C25.277,43.205,24.175,43.204,24.175,43.914L24.175,43.914z"/>
			</g>
		</g>
		<g>
			<g>
				<path fill="#15FFAB" d="M24.884,45.621c0.718,0,1.436,0,2.154,0c0.709,0,0.711-1.103,0-1.103c-0.718,0-1.436,0-2.154,0
					C24.174,44.519,24.173,45.621,24.884,45.621L24.884,45.621z"/>
			</g>
		</g>
		<g>
			<g>
				<path fill="#15FFAB" d="M21.408,43.914c0,0.397,0,0.794,0,1.191c0,0.709,1.103,0.711,1.103,0c0-0.397,0-0.794,0-1.191
					C22.511,43.205,21.408,43.204,21.408,43.914L21.408,43.914z"/>
			</g>
		</g>
		<g>
			<g>
				<path fill="#15FFAB" d="M21.802,44.519c-0.648,0-1.296,0-1.944,0c-0.709,0-0.711,1.103,0,1.103c0.648,0,1.296,0,1.944,0
					C22.511,45.621,22.512,44.519,21.802,44.519L21.802,44.519z"/>
			</g>
		</g>
		<g>
			<g>
				<path fill="#15FFAB" d="M27.05,45.635c0.822-0.024,0.711,1.543,0.716,2.082c0.006,0.709,1.109,0.711,1.103,0
					c-0.011-1.223-0.146-3.232-1.819-3.184C26.342,44.552,26.339,45.655,27.05,45.635L27.05,45.635z"/>
			</g>
		</g>
		<g>
			<g>
				<path fill="#15FFAB" d="M27.769,47.618c0,1.169,0,2.338,0,3.506c0,0.709,1.103,0.711,1.103,0c0-1.169,0-2.338,0-3.506
					C28.871,46.908,27.769,46.907,27.769,47.618L27.769,47.618z"/>
			</g>
		</g>
		<g>
			<g>
				<path fill="#15FFAB" d="M27.799,51.198c0.044,0.493,0.234,1.26-0.228,1.603c-0.288,0.214-0.714,0.269-0.77-0.167
					c-0.039-0.298-0.226-0.548-0.551-0.551c-0.268-0.003-0.59,0.256-0.551,0.551c0.07,0.539,0.265,1.026,0.775,1.286
					c0.428,0.219,0.939,0.172,1.368-0.016c0.441-0.194,0.846-0.557,1.005-1.023c0.181-0.53,0.105-1.137,0.057-1.683
					C28.84,50.497,27.737,50.491,27.799,51.198L27.799,51.198z"/>
			</g>
		</g>
		<g>
			<g>
				<path fill="#15FFAB" d="M25.558,47.994c0,2.148,0,4.296,0,6.444c0,0.709,1.103,0.711,1.103,0c0-2.148,0-4.296,0-6.444
					C26.661,47.285,25.558,47.284,25.558,47.994L25.558,47.994z"/>
			</g>
		</g>
		<g>
			<g>
				<path fill="#15FFAB" d="M21.835,44.519c-0.718,0-1.436,0-2.154,0c-0.709,0-0.711,1.103,0,1.103c0.718,0,1.436,0,2.154,0
					C22.544,45.621,22.545,44.519,21.835,44.519L21.835,44.519z"/>
			</g>
		</g>
		<g>
			<g>
				<path fill="#15FFAB" d="M19.668,44.532c-1.672-0.048-1.808,1.961-1.819,3.184c-0.006,0.71,1.096,0.71,1.103,0
					c0.005-0.54-0.105-2.105,0.716-2.082C20.378,45.655,20.377,44.552,19.668,44.532L19.668,44.532z"/>
			</g>
		</g>
		<g>
			<g>
				<path fill="#15FFAB" d="M17.847,47.618c0,1.169,0,2.338,0,3.506c0,0.709,1.103,0.711,1.103,0c0-1.169,0-2.338,0-3.506
					C18.95,46.908,17.847,46.907,17.847,47.618L17.847,47.618z"/>
			</g>
		</g>
		<g>
			<g>
				<path fill="#15FFAB" d="M17.816,51.198c-0.048,0.546-0.124,1.153,0.057,1.683c0.159,0.466,0.564,0.829,1.005,1.023
					c0.428,0.188,0.94,0.235,1.368,0.016c0.51-0.26,0.705-0.747,0.775-1.286c0.039-0.298-0.281-0.548-0.551-0.551
					c-0.33-0.003-0.513,0.257-0.551,0.551c-0.056,0.435-0.482,0.381-0.77,0.167c-0.462-0.343-0.272-1.111-0.228-1.603
					C18.982,50.492,17.879,50.496,17.816,51.198L17.816,51.198z"/>
			</g>
		</g>
		<g>
			<g>
				<path fill="#15FFAB" d="M20.058,47.994c0,2.148,0,4.296,0,6.444c0,0.709,1.103,0.711,1.103,0c0-2.148,0-4.296,0-6.444
					C21.16,47.285,20.058,47.284,20.058,47.994L20.058,47.994z"/>
			</g>
		</g>
		<g>
			<g>
				<path fill="#15FFAB" d="M26.074,53.913c-1.83,0-3.66,0-5.489,0c-0.709,0-0.711,1.103,0,1.103c1.83,0,3.66,0,5.489,0
					C26.784,55.015,26.785,53.913,26.074,53.913L26.074,53.913z"/>
			</g>
		</g>
	</g>
	<g>
		<g>
			<path fill="#15FFAB" d="M31.152,80.916c-2.029,0-3.68-1.651-3.68-3.68c0-2.029,1.651-3.68,3.68-3.68
				c2.029,0,3.68,1.651,3.68,3.68C34.833,79.265,33.182,80.916,31.152,80.916z M31.152,74.438c-1.543,0-2.798,1.255-2.798,2.798
				c0,1.543,1.255,2.798,2.798,2.798c1.543,0,2.798-1.255,2.798-2.798C33.951,75.693,32.695,74.438,31.152,74.438z"/>
		</g>
		<g>
			<g>
				<path fill="#15FFAB" d="M32.037,80.353c0,0.397,0,0.794,0,1.191c0,0.709,1.103,0.711,1.103,0c0-0.397,0-0.794,0-1.191
					C33.14,79.643,32.037,79.642,32.037,80.353L32.037,80.353z"/>
			</g>
		</g>
		<g>
			<g>
				<path fill="#15FFAB" d="M32.746,82.06c0.718,0,1.436,0,2.154,0c0.709,0,0.711-1.103,0-1.103c-0.718,0-1.436,0-2.154,0
					C32.036,80.957,32.035,82.06,32.746,82.06L32.746,82.06z"/>
			</g>
		</g>
		<g>
			<g>
				<path fill="#15FFAB" d="M29.27,80.353c0,0.397,0,0.794,0,1.191c0,0.709,1.103,0.711,1.103,0c0-0.397,0-0.794,0-1.191
					C30.373,79.643,29.27,79.642,29.27,80.353L29.27,80.353z"/>
			</g>
		</g>
		<g>
			<g>
				<path fill="#15FFAB" d="M29.664,80.957c-0.648,0-1.296,0-1.944,0c-0.709,0-0.711,1.103,0,1.103c0.648,0,1.296,0,1.944,0
					C30.373,82.06,30.375,80.957,29.664,80.957L29.664,80.957z"/>
			</g>
		</g>
		<g>
			<g>
				<path fill="#15FFAB" d="M34.913,82.073c0.822-0.024,0.711,1.543,0.716,2.082c0.006,0.709,1.109,0.711,1.103,0
					c-0.011-1.223-0.146-3.232-1.819-3.184C34.205,80.991,34.202,82.093,34.913,82.073L34.913,82.073z"/>
			</g>
		</g>
		<g>
			<g>
				<path fill="#15FFAB" d="M35.631,84.056c0,1.169,0,2.338,0,3.506c0,0.709,1.103,0.711,1.103,0c0-1.169,0-2.338,0-3.506
					C36.734,83.347,35.631,83.346,35.631,84.056L35.631,84.056z"/>
			</g>
		</g>
		<g>
			<g>
				<path fill="#15FFAB" d="M35.661,87.637c0.044,0.493,0.234,1.26-0.228,1.603c-0.288,0.214-0.714,0.269-0.77-0.167
					c-0.039-0.298-0.226-0.548-0.551-0.551c-0.268-0.003-0.59,0.256-0.551,0.551c0.07,0.539,0.265,1.026,0.775,1.286
					c0.428,0.219,0.939,0.172,1.368-0.016c0.441-0.194,0.846-0.557,1.005-1.023c0.181-0.53,0.105-1.137,0.057-1.683
					C36.702,86.936,35.599,86.929,35.661,87.637L35.661,87.637z"/>
			</g>
		</g>
		<g>
			<g>
				<path fill="#15FFAB" d="M33.42,84.433c0,2.148,0,4.296,0,6.444c0,0.709,1.103,0.711,1.103,0c0-2.148,0-4.296,0-6.444
					C34.523,83.723,33.42,83.722,33.42,84.433L33.42,84.433z"/>
			</g>
		</g>
		<g>
			<g>
				<path fill="#15FFAB" d="M29.697,80.957c-0.718,0-1.436,0-2.154,0c-0.709,0-0.711,1.103,0,1.103c0.718,0,1.436,0,2.154,0
					C30.407,82.06,30.408,80.957,29.697,80.957L29.697,80.957z"/>
			</g>
		</g>
		<g>
			<g>
				<path fill="#15FFAB" d="M27.53,80.97c-1.672-0.048-1.808,1.961-1.819,3.184c-0.006,0.71,1.096,0.71,1.103,0
					c0.005-0.54-0.105-2.105,0.716-2.082C28.24,82.093,28.239,80.991,27.53,80.97L27.53,80.97z"/>
			</g>
		</g>
		<g>
			<g>
				<path fill="#15FFAB" d="M25.709,84.056c0,1.169,0,2.338,0,3.506c0,0.709,1.103,0.711,1.103,0c0-1.169,0-2.338,0-3.506
					C26.812,83.347,25.709,83.346,25.709,84.056L25.709,84.056z"/>
			</g>
		</g>
		<g>
			<g>
				<path fill="#15FFAB" d="M25.679,87.637c-0.048,0.546-0.124,1.153,0.057,1.683c0.159,0.465,0.564,0.829,1.005,1.023
					c0.428,0.188,0.94,0.235,1.368,0.016c0.51-0.26,0.705-0.747,0.775-1.286c0.039-0.298-0.281-0.548-0.551-0.551
					c-0.33-0.003-0.513,0.257-0.551,0.551c-0.056,0.435-0.482,0.381-0.77,0.167c-0.462-0.343-0.272-1.111-0.228-1.603
					C26.844,86.93,25.741,86.934,25.679,87.637L25.679,87.637z"/>
			</g>
		</g>
		<g>
			<g>
				<path fill="#15FFAB" d="M27.92,84.433c0,2.148,0,4.296,0,6.444c0,0.709,1.103,0.711,1.103,0c0-2.148,0-4.296,0-6.444
					C29.023,83.723,27.92,83.722,27.92,84.433L27.92,84.433z"/>
			</g>
		</g>
		<g>
			<g>
				<path fill="#15FFAB" d="M33.937,90.351c-1.83,0-3.66,0-5.489,0c-0.709,0-0.711,1.103,0,1.103c1.83,0,3.66,0,5.489,0
					C34.646,91.454,34.647,90.351,33.937,90.351L33.937,90.351z"/>
			</g>
		</g>
	</g>
	<g>
		<g>
			<path fill="#15FFAB" d="M65.927,70.603c-2.029,0-3.68-1.651-3.68-3.68c0-2.029,1.651-3.681,3.68-3.681
				c2.03,0,3.681,1.651,3.681,3.681C69.608,68.952,67.956,70.603,65.927,70.603z M65.927,64.124c-1.543,0-2.798,1.255-2.798,2.798
				c0,1.543,1.255,2.798,2.798,2.798c1.543,0,2.799-1.255,2.799-2.798C68.726,65.379,67.47,64.124,65.927,64.124z"/>
		</g>
		<g>
			<g>
				<path fill="#15FFAB" d="M66.811,70.039c0,0.397,0,0.794,0,1.191c0,0.709,1.103,0.711,1.103,0c0-0.397,0-0.794,0-1.191
					C67.914,69.33,66.811,69.329,66.811,70.039L66.811,70.039z"/>
			</g>
		</g>
		<g>
			<g>
				<path fill="#15FFAB" d="M67.52,71.746c0.718,0,1.436,0,2.154,0c0.709,0,0.711-1.103,0-1.103c-0.718,0-1.436,0-2.154,0
					C66.811,70.644,66.81,71.746,67.52,71.746L67.52,71.746z"/>
			</g>
		</g>
		<g>
			<g>
				<path fill="#15FFAB" d="M64.045,70.039c0,0.397,0,0.794,0,1.191c0,0.709,1.103,0.711,1.103,0c0-0.397,0-0.794,0-1.191
					C65.148,69.33,64.045,69.329,64.045,70.039L64.045,70.039z"/>
			</g>
		</g>
		<g>
			<g>
				<path fill="#15FFAB" d="M64.439,70.644c-0.648,0-1.296,0-1.944,0c-0.709,0-0.711,1.103,0,1.103c0.648,0,1.296,0,1.944,0
					C65.148,71.746,65.149,70.644,64.439,70.644L64.439,70.644z"/>
			</g>
		</g>
		<g>
			<g>
				<path fill="#15FFAB" d="M69.687,71.759c0.822-0.024,0.712,1.543,0.716,2.082c0.006,0.709,1.108,0.711,1.103,0
					c-0.01-1.223-0.147-3.232-1.819-3.184C68.979,70.677,68.976,71.78,69.687,71.759L69.687,71.759z"/>
			</g>
		</g>
		<g>
			<g>
				<path fill="#15FFAB" d="M70.406,73.743c0,1.169,0,2.338,0,3.506c0,0.709,1.103,0.711,1.103,0c0-1.169,0-2.338,0-3.506
					C71.508,73.033,70.406,73.032,70.406,73.743L70.406,73.743z"/>
			</g>
		</g>
		<g>
			<g>
				<path fill="#15FFAB" d="M70.436,77.323c0.043,0.493,0.234,1.26-0.228,1.603c-0.288,0.214-0.714,0.269-0.77-0.167
					c-0.039-0.298-0.226-0.548-0.551-0.551c-0.268-0.003-0.59,0.256-0.551,0.551c0.07,0.539,0.265,1.026,0.775,1.286
					c0.428,0.219,0.939,0.172,1.368-0.016c0.441-0.194,0.845-0.557,1.005-1.023c0.181-0.53,0.105-1.137,0.057-1.683
					C71.477,76.622,70.374,76.615,70.436,77.323L70.436,77.323z"/>
			</g>
		</g>
		<g>
			<g>
				<path fill="#15FFAB" d="M68.195,74.119c0,2.148,0,4.296,0,6.444c0,0.709,1.103,0.711,1.103,0c0-2.148,0-4.296,0-6.444
					C69.298,73.41,68.195,73.408,68.195,74.119L68.195,74.119z"/>
			</g>
		</g>
		<g>
			<g>
				<path fill="#15FFAB" d="M64.472,70.644c-0.718,0-1.436,0-2.154,0c-0.709,0-0.711,1.103,0,1.103c0.718,0,1.436,0,2.154,0
					C65.181,71.746,65.182,70.644,64.472,70.644L64.472,70.644z"/>
			</g>
		</g>
		<g>
			<g>
				<path fill="#15FFAB" d="M62.305,70.657c-1.672-0.048-1.809,1.961-1.819,3.184c-0.006,0.71,1.097,0.71,1.103,0
					c0.004-0.54-0.105-2.105,0.716-2.082C63.015,71.78,63.014,70.677,62.305,70.657L62.305,70.657z"/>
			</g>
		</g>
		<g>
			<g>
				<path fill="#15FFAB" d="M60.484,73.743c0,1.169,0,2.338,0,3.506c0,0.709,1.103,0.711,1.103,0c0-1.169,0-2.338,0-3.506
					C61.587,73.033,60.484,73.032,60.484,73.743L60.484,73.743z"/>
			</g>
		</g>
		<g>
			<g>
				<path fill="#15FFAB" d="M60.453,77.323c-0.048,0.546-0.124,1.153,0.057,1.683c0.159,0.465,0.564,0.829,1.005,1.023
					c0.428,0.188,0.939,0.235,1.368,0.016c0.51-0.26,0.705-0.747,0.775-1.286c0.039-0.298-0.281-0.549-0.551-0.551
					c-0.33-0.003-0.513,0.257-0.551,0.551c-0.056,0.435-0.483,0.381-0.77,0.167c-0.462-0.343-0.272-1.11-0.228-1.603
					C61.618,76.617,60.515,76.621,60.453,77.323L60.453,77.323z"/>
			</g>
		</g>
		<g>
			<g>
				<path fill="#15FFAB" d="M62.694,74.119c0,2.148,0,4.296,0,6.444c0,0.709,1.103,0.711,1.103,0c0-2.148,0-4.296,0-6.444
					C63.797,73.41,62.694,73.408,62.694,74.119L62.694,74.119z"/>
			</g>
		</g>
		<g>
			<g>
				<path fill="#15FFAB" d="M68.711,80.038c-1.83,0-3.66,0-5.49,0c-0.709,0-0.711,1.103,0,1.103c1.83,0,3.66,0,5.49,0
					C69.421,81.14,69.422,80.038,68.711,80.038L68.711,80.038z"/>
			</g>
		</g>
	</g>
	<g>
		<g>
			<path fill="#15FFAB" d="M43.707,54.458c-2.029,0-3.68-1.651-3.68-3.68c0-2.029,1.651-3.681,3.68-3.681
				c2.029,0,3.681,1.651,3.681,3.681C47.388,52.808,45.736,54.458,43.707,54.458z M43.707,47.98c-1.543,0-2.798,1.255-2.798,2.798
				c0,1.543,1.255,2.798,2.798,2.798c1.543,0,2.799-1.255,2.799-2.798C46.505,49.235,45.25,47.98,43.707,47.98z"/>
		</g>
		<g>
			<g>
				<path fill="#15FFAB" d="M44.592,53.895c0,0.397,0,0.794,0,1.191c0,0.709,1.103,0.711,1.103,0c0-0.397,0-0.794,0-1.191
					C45.694,53.186,44.592,53.185,44.592,53.895L44.592,53.895z"/>
			</g>
		</g>
		<g>
			<g>
				<path fill="#15FFAB" d="M45.3,55.602c0.718,0,1.436,0,2.154,0c0.709,0,0.711-1.103,0-1.103c-0.718,0-1.436,0-2.154,0
					C44.591,54.5,44.59,55.602,45.3,55.602L45.3,55.602z"/>
			</g>
		</g>
		<g>
			<g>
				<path fill="#15FFAB" d="M41.825,53.895c0,0.397,0,0.794,0,1.191c0,0.709,1.103,0.711,1.103,0c0-0.397,0-0.794,0-1.191
					C42.928,53.186,41.825,53.185,41.825,53.895L41.825,53.895z"/>
			</g>
		</g>
		<g>
			<g>
				<path fill="#15FFAB" d="M42.219,54.5c-0.648,0-1.296,0-1.944,0c-0.709,0-0.711,1.103,0,1.103c0.648,0,1.296,0,1.944,0
					C42.928,55.602,42.929,54.5,42.219,54.5L42.219,54.5z"/>
			</g>
		</g>
		<g>
			<g>
				<path fill="#15FFAB" d="M47.467,55.615c0.822-0.024,0.712,1.543,0.716,2.082c0.006,0.709,1.108,0.711,1.103,0
					c-0.01-1.223-0.147-3.232-1.819-3.184C46.759,54.533,46.756,55.636,47.467,55.615L47.467,55.615z"/>
			</g>
		</g>
		<g>
			<g>
				<path fill="#15FFAB" d="M48.186,57.599c0,1.169,0,2.338,0,3.506c0,0.709,1.103,0.711,1.103,0c0-1.169,0-2.338,0-3.506
					C49.288,56.889,48.186,56.888,48.186,57.599L48.186,57.599z"/>
			</g>
		</g>
		<g>
			<g>
				<path fill="#15FFAB" d="M48.216,61.179c0.043,0.493,0.234,1.26-0.228,1.603c-0.288,0.214-0.714,0.269-0.77-0.167
					c-0.039-0.298-0.226-0.548-0.551-0.551c-0.268-0.003-0.59,0.256-0.551,0.551c0.07,0.539,0.265,1.026,0.775,1.286
					c0.428,0.219,0.939,0.172,1.368-0.016c0.441-0.194,0.845-0.557,1.005-1.023c0.181-0.53,0.105-1.137,0.057-1.683
					C49.257,60.478,48.154,60.471,48.216,61.179L48.216,61.179z"/>
			</g>
		</g>
		<g>
			<g>
				<path fill="#15FFAB" d="M45.975,57.975c0,2.148,0,4.296,0,6.443c0,0.709,1.103,0.711,1.103,0c0-2.148,0-4.296,0-6.443
					C47.078,57.265,45.975,57.264,45.975,57.975L45.975,57.975z"/>
			</g>
		</g>
		<g>
			<g>
				<path fill="#15FFAB" d="M42.252,54.5c-0.718,0-1.436,0-2.154,0c-0.709,0-0.711,1.103,0,1.103c0.718,0,1.436,0,2.154,0
					C42.961,55.602,42.962,54.5,42.252,54.5L42.252,54.5z"/>
			</g>
		</g>
		<g>
			<g>
				<path fill="#15FFAB" d="M40.085,54.513c-1.672-0.048-1.809,1.961-1.819,3.184c-0.006,0.71,1.097,0.71,1.103,0
					c0.004-0.54-0.105-2.105,0.716-2.082C40.795,55.636,40.794,54.533,40.085,54.513L40.085,54.513z"/>
			</g>
		</g>
		<g>
			<g>
				<path fill="#15FFAB" d="M38.264,57.599c0,1.169,0,2.338,0,3.506c0,0.709,1.103,0.711,1.103,0c0-1.169,0-2.338,0-3.506
					C39.367,56.889,38.264,56.888,38.264,57.599L38.264,57.599z"/>
			</g>
		</g>
		<g>
			<g>
				<path fill="#15FFAB" d="M38.233,61.179c-0.048,0.546-0.124,1.153,0.057,1.683c0.159,0.465,0.564,0.829,1.005,1.023
					c0.428,0.188,0.939,0.235,1.368,0.016c0.51-0.26,0.705-0.747,0.775-1.286c0.039-0.298-0.281-0.548-0.551-0.551
					c-0.33-0.003-0.513,0.257-0.551,0.551c-0.056,0.435-0.483,0.381-0.77,0.167c-0.462-0.343-0.272-1.11-0.228-1.603
					C39.398,60.472,38.295,60.477,38.233,61.179L38.233,61.179z"/>
			</g>
		</g>
		<g>
			<g>
				<path fill="#15FFAB" d="M40.475,57.975c0,2.148,0,4.296,0,6.443c0,0.709,1.103,0.711,1.103,0c0-2.148,0-4.296,0-6.443
					C41.577,57.265,40.475,57.264,40.475,57.975L40.475,57.975z"/>
			</g>
		</g>
		<g>
			<g>
				<path fill="#15FFAB" d="M46.491,63.893c-1.83,0-3.66,0-5.49,0c-0.709,0-0.711,1.103,0,1.103c1.83,0,3.66,0,5.49,0
					C47.201,64.996,47.202,63.893,46.491,63.893L46.491,63.893z"/>
			</g>
		</g>
	</g>
	<g>
		<g>
			<path fill="#15FFAB" d="M57.785,29.63c-2.029,0-3.68-1.651-3.68-3.681c0-2.029,1.651-3.68,3.68-3.68
				c2.029,0,3.68,1.651,3.68,3.68C61.465,27.979,59.814,29.63,57.785,29.63z M57.785,23.151c-1.543,0-2.798,1.255-2.798,2.798
				c0,1.543,1.255,2.798,2.798,2.798c1.543,0,2.798-1.255,2.798-2.798C60.583,24.406,59.328,23.151,57.785,23.151z"/>
		</g>
		<g>
			<g>
				<path fill="#15FFAB" d="M58.669,29.066c0,0.397,0,0.794,0,1.191c0,0.709,1.103,0.711,1.103,0c0-0.397,0-0.794,0-1.191
					C59.772,28.357,58.669,28.355,58.669,29.066L58.669,29.066z"/>
			</g>
		</g>
		<g>
			<g>
				<path fill="#15FFAB" d="M59.378,30.773c0.718,0,1.436,0,2.154,0c0.709,0,0.711-1.103,0-1.103c-0.718,0-1.436,0-2.154,0
					C58.669,29.67,58.668,30.773,59.378,30.773L59.378,30.773z"/>
			</g>
		</g>
		<g>
			<g>
				<path fill="#15FFAB" d="M55.903,29.066c0,0.397,0,0.794,0,1.191c0,0.709,1.103,0.711,1.103,0c0-0.397,0-0.794,0-1.191
					C57.006,28.357,55.903,28.355,55.903,29.066L55.903,29.066z"/>
			</g>
		</g>
		<g>
			<g>
				<path fill="#15FFAB" d="M56.297,29.67c-0.648,0-1.296,0-1.944,0c-0.709,0-0.711,1.103,0,1.103c0.648,0,1.296,0,1.944,0
					C57.006,30.773,57.007,29.67,56.297,29.67L56.297,29.67z"/>
			</g>
		</g>
		<g>
			<g>
				<path fill="#15FFAB" d="M61.545,30.786c0.822-0.024,0.712,1.543,0.716,2.082c0.006,0.709,1.108,0.711,1.103,0
					c-0.01-1.223-0.147-3.232-1.819-3.184C60.837,29.704,60.834,30.807,61.545,30.786L61.545,30.786z"/>
			</g>
		</g>
		<g>
			<g>
				<path fill="#15FFAB" d="M62.264,32.769c0,1.169,0,2.338,0,3.506c0,0.709,1.103,0.711,1.103,0c0-1.169,0-2.338,0-3.506
					C63.366,32.06,62.264,32.059,62.264,32.769L62.264,32.769z"/>
			</g>
		</g>
		<g>
			<g>
				<path fill="#15FFAB" d="M62.294,36.35c0.043,0.493,0.234,1.26-0.228,1.603c-0.288,0.214-0.714,0.269-0.77-0.167
					c-0.039-0.298-0.226-0.548-0.551-0.551c-0.268-0.003-0.59,0.256-0.551,0.551c0.07,0.539,0.265,1.026,0.775,1.286
					c0.428,0.219,0.939,0.172,1.368-0.016c0.441-0.194,0.845-0.557,1.005-1.023c0.181-0.53,0.105-1.137,0.057-1.683
					C63.335,35.649,62.232,35.642,62.294,36.35L62.294,36.35z"/>
			</g>
		</g>
		<g>
			<g>
				<path fill="#15FFAB" d="M60.053,33.146c0,2.148,0,4.296,0,6.443c0,0.709,1.103,0.711,1.103,0c0-2.148,0-4.296,0-6.443
					C61.155,32.436,60.053,32.435,60.053,33.146L60.053,33.146z"/>
			</g>
		</g>
		<g>
			<g>
				<path fill="#15FFAB" d="M56.33,29.67c-0.718,0-1.436,0-2.154,0c-0.709,0-0.711,1.103,0,1.103c0.718,0,1.436,0,2.154,0
					C57.039,30.773,57.041,29.67,56.33,29.67L56.33,29.67z"/>
			</g>
		</g>
		<g>
			<g>
				<path fill="#15FFAB" d="M54.163,29.684c-1.672-0.048-1.809,1.961-1.819,3.184c-0.006,0.71,1.097,0.71,1.103,0
					c0.004-0.54-0.105-2.105,0.716-2.082C54.873,30.807,54.872,29.704,54.163,29.684L54.163,29.684z"/>
			</g>
		</g>
		<g>
			<g>
				<path fill="#15FFAB" d="M52.342,32.769c0,1.169,0,2.338,0,3.506c0,0.709,1.103,0.711,1.103,0c0-1.169,0-2.338,0-3.506
					C53.445,32.06,52.342,32.059,52.342,32.769L52.342,32.769z"/>
			</g>
		</g>
		<g>
			<g>
				<path fill="#15FFAB" d="M52.311,36.35c-0.048,0.546-0.124,1.153,0.057,1.683c0.159,0.465,0.564,0.829,1.005,1.023
					c0.428,0.188,0.939,0.235,1.368,0.016c0.51-0.26,0.705-0.747,0.775-1.286c0.039-0.298-0.281-0.549-0.551-0.551
					c-0.33-0.003-0.513,0.257-0.551,0.551c-0.056,0.435-0.483,0.381-0.77,0.167c-0.462-0.343-0.272-1.11-0.228-1.603
					C53.476,35.643,52.373,35.648,52.311,36.35L52.311,36.35z"/>
			</g>
		</g>
		<g>
			<g>
				<path fill="#15FFAB" d="M54.553,33.146c0,2.148,0,4.296,0,6.443c0,0.709,1.103,0.711,1.103,0c0-2.148,0-4.296,0-6.443
					C55.655,32.436,54.553,32.435,54.553,33.146L54.553,33.146z"/>
			</g>
		</g>
		<g>
			<g>
				<path fill="#15FFAB" d="M60.569,39.064c-1.83,0-3.66,0-5.49,0c-0.709,0-0.711,1.103,0,1.103c1.83,0,3.66,0,5.49,0
					C61.279,40.167,61.28,39.064,60.569,39.064L60.569,39.064z"/>
			</g>
		</g>
	</g>
	<g>
		<g>
			<path fill="#15FFAB" d="M87.026,80.505c-2.029,0-3.68-1.651-3.68-3.68c0-2.029,1.651-3.68,3.68-3.68
				c2.029,0,3.681,1.651,3.681,3.68C90.706,78.854,89.055,80.505,87.026,80.505z M87.026,74.026c-1.543,0-2.798,1.255-2.798,2.798
				c0,1.543,1.255,2.798,2.798,2.798c1.543,0,2.799-1.255,2.799-2.798C89.824,75.281,88.569,74.026,87.026,74.026z"/>
		</g>
		<g>
			<g>
				<path fill="#15FFAB" d="M87.91,79.941c0,0.397,0,0.794,0,1.191c0,0.709,1.103,0.711,1.103,0c0-0.397,0-0.794,0-1.191
					C89.013,79.232,87.91,79.23,87.91,79.941L87.91,79.941z"/>
			</g>
		</g>
		<g>
			<g>
				<path fill="#15FFAB" d="M88.619,81.648c0.718,0,1.436,0,2.154,0c0.709,0,0.711-1.103,0-1.103c-0.718,0-1.436,0-2.154,0
					C87.91,80.545,87.909,81.648,88.619,81.648L88.619,81.648z"/>
			</g>
		</g>
		<g>
			<g>
				<path fill="#15FFAB" d="M85.144,79.941c0,0.397,0,0.794,0,1.191c0,0.709,1.103,0.711,1.103,0c0-0.397,0-0.794,0-1.191
					C86.247,79.232,85.144,79.23,85.144,79.941L85.144,79.941z"/>
			</g>
		</g>
		<g>
			<g>
				<path fill="#15FFAB" d="M85.538,80.545c-0.648,0-1.296,0-1.944,0c-0.709,0-0.711,1.103,0,1.103c0.648,0,1.296,0,1.944,0
					C86.247,81.648,86.248,80.545,85.538,80.545L85.538,80.545z"/>
			</g>
		</g>
		<g>
			<g>
				<path fill="#15FFAB" d="M90.786,81.661c0.822-0.024,0.712,1.543,0.716,2.082c0.006,0.709,1.108,0.711,1.103,0
					c-0.01-1.223-0.147-3.232-1.819-3.184C90.078,80.579,90.075,81.682,90.786,81.661L90.786,81.661z"/>
			</g>
		</g>
		<g>
			<g>
				<path fill="#15FFAB" d="M91.505,83.644c0,1.169,0,2.338,0,3.506c0,0.709,1.103,0.711,1.103,0c0-1.169,0-2.338,0-3.506
					C92.607,82.935,91.505,82.934,91.505,83.644L91.505,83.644z"/>
			</g>
		</g>
		<g>
			<g>
				<path fill="#15FFAB" d="M91.535,87.225c0.043,0.493,0.234,1.26-0.228,1.603c-0.288,0.214-0.714,0.269-0.77-0.167
					c-0.039-0.298-0.226-0.548-0.551-0.551c-0.268-0.003-0.59,0.256-0.551,0.551c0.07,0.539,0.265,1.026,0.775,1.286
					c0.428,0.219,0.939,0.172,1.368-0.016c0.441-0.194,0.845-0.557,1.005-1.023c0.181-0.53,0.105-1.137,0.057-1.683
					C92.576,86.524,91.473,86.517,91.535,87.225L91.535,87.225z"/>
			</g>
		</g>
		<g>
			<g>
				<path fill="#15FFAB" d="M89.294,84.021c0,2.148,0,4.296,0,6.444c0,0.709,1.103,0.711,1.103,0c0-2.148,0-4.296,0-6.444
					C90.396,83.311,89.294,83.31,89.294,84.021L89.294,84.021z"/>
			</g>
		</g>
		<g>
			<g>
				<path fill="#15FFAB" d="M85.571,80.545c-0.718,0-1.436,0-2.154,0c-0.709,0-0.711,1.103,0,1.103c0.718,0,1.436,0,2.154,0
					C86.28,81.648,86.281,80.545,85.571,80.545L85.571,80.545z"/>
			</g>
		</g>
		<g>
			<g>
				<path fill="#15FFAB" d="M83.404,80.559c-1.672-0.048-1.809,1.961-1.819,3.184c-0.006,0.71,1.097,0.71,1.103,0
					c0.004-0.54-0.105-2.105,0.716-2.082C84.113,81.682,84.113,80.579,83.404,80.559L83.404,80.559z"/>
			</g>
		</g>
		<g>
			<g>
				<path fill="#15FFAB" d="M81.583,83.644c0,1.169,0,2.338,0,3.506c0,0.709,1.103,0.711,1.103,0c0-1.169,0-2.338,0-3.506
					C82.686,82.935,81.583,82.934,81.583,83.644L81.583,83.644z"/>
			</g>
		</g>
		<g>
			<g>
				<path fill="#15FFAB" d="M81.552,87.225c-0.048,0.546-0.124,1.153,0.057,1.683c0.159,0.465,0.564,0.829,1.005,1.023
					c0.428,0.188,0.939,0.235,1.368,0.016c0.51-0.26,0.705-0.747,0.775-1.286c0.039-0.298-0.281-0.548-0.551-0.551
					c-0.33-0.003-0.513,0.257-0.551,0.551c-0.056,0.435-0.482,0.381-0.77,0.167c-0.462-0.343-0.272-1.11-0.228-1.603
					C82.717,86.518,81.614,86.523,81.552,87.225L81.552,87.225z"/>
			</g>
		</g>
		<g>
			<g>
				<path fill="#15FFAB" d="M83.793,84.021c0,2.148,0,4.296,0,6.444c0,0.709,1.103,0.711,1.103,0c0-2.148,0-4.296,0-6.444
					C84.896,83.311,83.793,83.31,83.793,84.021L83.793,84.021z"/>
			</g>
		</g>
		<g>
			<g>
				<path fill="#15FFAB" d="M89.81,89.939c-1.83,0-3.66,0-5.49,0c-0.709,0-0.711,1.103,0,1.103c1.83,0,3.66,0,5.49,0
					C90.52,91.042,90.521,89.939,89.81,89.939L89.81,89.939z"/>
			</g>
		</g>
	</g>
	<g>
		<g>
			<path fill="#15FFAB" d="M83.143,46.811c-2.029,0-3.68-1.651-3.68-3.681c0-2.029,1.651-3.68,3.68-3.68
				c2.029,0,3.681,1.651,3.681,3.68C86.824,45.16,85.173,46.811,83.143,46.811z M83.143,40.333c-1.543,0-2.798,1.255-2.798,2.798
				c0,1.543,1.255,2.798,2.798,2.798c1.543,0,2.799-1.255,2.799-2.798C85.942,41.588,84.686,40.333,83.143,40.333z"/>
		</g>
		<g>
			<g>
				<path fill="#15FFAB" d="M84.028,46.248c0,0.397,0,0.794,0,1.191c0,0.709,1.103,0.711,1.103,0c0-0.397,0-0.794,0-1.191
					C85.131,45.538,84.028,45.537,84.028,46.248L84.028,46.248z"/>
			</g>
		</g>
		<g>
			<g>
				<path fill="#15FFAB" d="M84.737,47.955c0.718,0,1.436,0,2.154,0c0.709,0,0.711-1.103,0-1.103c-0.718,0-1.436,0-2.154,0
					C84.028,46.852,84.026,47.955,84.737,47.955L84.737,47.955z"/>
			</g>
		</g>
		<g>
			<g>
				<path fill="#15FFAB" d="M81.262,46.248c0,0.397,0,0.794,0,1.191c0,0.709,1.103,0.711,1.103,0c0-0.397,0-0.794,0-1.191
					C82.364,45.538,81.262,45.537,81.262,46.248L81.262,46.248z"/>
			</g>
		</g>
		<g>
			<g>
				<path fill="#15FFAB" d="M81.655,46.852c-0.648,0-1.296,0-1.944,0c-0.709,0-0.711,1.103,0,1.103c0.648,0,1.296,0,1.944,0
					C82.365,47.955,82.366,46.852,81.655,46.852L81.655,46.852z"/>
			</g>
		</g>
		<g>
			<g>
				<path fill="#15FFAB" d="M86.904,47.968c0.822-0.024,0.712,1.543,0.716,2.082c0.006,0.709,1.108,0.711,1.103,0
					c-0.01-1.223-0.147-3.232-1.819-3.184C86.196,46.886,86.193,47.988,86.904,47.968L86.904,47.968z"/>
			</g>
		</g>
		<g>
			<g>
				<path fill="#15FFAB" d="M87.622,49.951c0,1.169,0,2.338,0,3.506c0,0.709,1.103,0.711,1.103,0c0-1.169,0-2.338,0-3.506
					C88.725,49.242,87.622,49.241,87.622,49.951L87.622,49.951z"/>
			</g>
		</g>
		<g>
			<g>
				<path fill="#15FFAB" d="M87.653,53.532c0.043,0.493,0.234,1.26-0.228,1.603c-0.288,0.214-0.714,0.269-0.77-0.167
					c-0.039-0.298-0.226-0.548-0.551-0.551c-0.268-0.003-0.59,0.256-0.551,0.551c0.07,0.539,0.265,1.026,0.775,1.286
					c0.428,0.219,0.939,0.172,1.368-0.016c0.441-0.194,0.845-0.557,1.005-1.023c0.181-0.53,0.105-1.137,0.057-1.683
					C88.694,52.831,87.59,52.824,87.653,53.532L87.653,53.532z"/>
			</g>
		</g>
		<g>
			<g>
				<path fill="#15FFAB" d="M85.412,50.328c0,2.148,0,4.296,0,6.444c0,0.709,1.103,0.711,1.103,0c0-2.148,0-4.296,0-6.444
					C86.514,49.618,85.412,49.617,85.412,50.328L85.412,50.328z"/>
			</g>
		</g>
		<g>
			<g>
				<path fill="#15FFAB" d="M81.688,46.852c-0.718,0-1.436,0-2.154,0c-0.709,0-0.711,1.103,0,1.103c0.718,0,1.436,0,2.154,0
					C82.398,47.955,82.399,46.852,81.688,46.852L81.688,46.852z"/>
			</g>
		</g>
		<g>
			<g>
				<path fill="#15FFAB" d="M79.521,46.865c-1.671-0.048-1.809,1.961-1.819,3.184c-0.006,0.71,1.097,0.71,1.103,0
					c0.004-0.54-0.105-2.105,0.716-2.082C80.231,47.988,80.231,46.886,79.521,46.865L79.521,46.865z"/>
			</g>
		</g>
		<g>
			<g>
				<path fill="#15FFAB" d="M77.701,49.951c0,1.169,0,2.338,0,3.506c0,0.709,1.103,0.711,1.103,0c0-1.169,0-2.338,0-3.506
					C78.803,49.242,77.701,49.241,77.701,49.951L77.701,49.951z"/>
			</g>
		</g>
		<g>
			<g>
				<path fill="#15FFAB" d="M77.67,53.532c-0.048,0.546-0.124,1.153,0.057,1.683c0.159,0.465,0.564,0.829,1.005,1.023
					c0.428,0.188,0.939,0.235,1.368,0.016c0.51-0.26,0.705-0.747,0.775-1.286c0.039-0.298-0.281-0.548-0.551-0.551
					c-0.33-0.003-0.513,0.257-0.551,0.551c-0.056,0.435-0.482,0.381-0.77,0.167c-0.462-0.343-0.272-1.11-0.228-1.603
					C78.835,52.825,77.732,52.829,77.67,53.532L77.67,53.532z"/>
			</g>
		</g>
		<g>
			<g>
				<path fill="#15FFAB" d="M79.911,50.328c0,2.148,0,4.296,0,6.444c0,0.709,1.103,0.711,1.103,0c0-2.148,0-4.296,0-6.444
					C81.014,49.618,79.911,49.617,79.911,50.328L79.911,50.328z"/>
			</g>
		</g>
		<g>
			<g>
				<path fill="#15FFAB" d="M85.928,56.246c-1.83,0-3.66,0-5.49,0c-0.709,0-0.711,1.103,0,1.103c1.83,0,3.66,0,5.49,0
					C86.637,57.349,86.639,56.246,85.928,56.246L85.928,56.246z"/>
			</g>
		</g>
	</g>
	<g>
		<g>
			<path fill="#15FFAB" d="M55.758,97.555c-2.029,0-3.68-1.651-3.68-3.68c0-2.029,1.651-3.68,3.68-3.68
				c2.029,0,3.68,1.651,3.68,3.68C59.438,95.904,57.787,97.555,55.758,97.555z M55.758,91.077c-1.543,0-2.798,1.255-2.798,2.798
				c0,1.543,1.255,2.798,2.798,2.798c1.543,0,2.798-1.255,2.798-2.798C58.556,92.332,57.301,91.077,55.758,91.077z"/>
		</g>
		<g>
			<g>
				<path fill="#15FFAB" d="M56.643,96.992c0,0.397,0,0.794,0,1.191c0,0.709,1.103,0.711,1.103,0c0-0.397,0-0.794,0-1.191
					C57.745,96.282,56.643,96.281,56.643,96.992L56.643,96.992z"/>
			</g>
		</g>
		<g>
			<g>
				<path fill="#15FFAB" d="M57.352,98.698c0.718,0,1.436,0,2.154,0c0.709,0,0.711-1.103,0-1.103c-0.718,0-1.436,0-2.154,0
					C56.642,97.596,56.641,98.698,57.352,98.698L57.352,98.698z"/>
			</g>
		</g>
		<g>
			<g>
				<path fill="#15FFAB" d="M53.876,96.992c0,0.397,0,0.794,0,1.191c0,0.709,1.103,0.711,1.103,0c0-0.397,0-0.794,0-1.191
					C54.979,96.282,53.876,96.281,53.876,96.992L53.876,96.992z"/>
			</g>
		</g>
		<g>
			<g>
				<path fill="#15FFAB" d="M54.27,97.596c-0.648,0-1.296,0-1.944,0c-0.709,0-0.711,1.103,0,1.103c0.648,0,1.296,0,1.944,0
					C54.979,98.698,54.981,97.596,54.27,97.596L54.27,97.596z"/>
			</g>
		</g>
		<g>
			<g>
				<path fill="#15FFAB" d="M59.519,98.712c0.822-0.024,0.712,1.543,0.716,2.082c0.006,0.709,1.108,0.711,1.103,0
					c-0.01-1.223-0.147-3.232-1.819-3.184C58.811,97.629,58.808,98.732,59.519,98.712L59.519,98.712z"/>
			</g>
		</g>
		<g>
			<g>
				<path fill="#15FFAB" d="M60.237,100.695c0,1.169,0,2.338,0,3.506c0,0.709,1.103,0.711,1.103,0c0-1.169,0-2.338,0-3.506
					C61.34,99.985,60.237,99.984,60.237,100.695L60.237,100.695z"/>
			</g>
		</g>
		<g>
			<g>
				<path fill="#15FFAB" d="M60.267,104.275c0.043,0.493,0.234,1.26-0.228,1.603c-0.288,0.214-0.714,0.269-0.77-0.167
					c-0.039-0.298-0.226-0.548-0.551-0.551c-0.268-0.003-0.59,0.256-0.551,0.551c0.07,0.539,0.265,1.026,0.775,1.286
					c0.428,0.219,0.939,0.172,1.368-0.016c0.441-0.194,0.845-0.557,1.005-1.023c0.181-0.53,0.105-1.137,0.057-1.683
					C61.308,103.574,60.205,103.568,60.267,104.275L60.267,104.275z"/>
			</g>
		</g>
		<g>
			<g>
				<path fill="#15FFAB" d="M58.026,101.071c0,2.148,0,4.296,0,6.444c0,0.709,1.103,0.711,1.103,0c0-2.148,0-4.296,0-6.444
					C59.129,100.362,58.026,100.361,58.026,101.071L58.026,101.071z"/>
			</g>
		</g>
		<g>
			<g>
				<path fill="#15FFAB" d="M54.303,97.596c-0.718,0-1.436,0-2.154,0c-0.709,0-0.711,1.103,0,1.103c0.718,0,1.436,0,2.154,0
					C55.012,98.698,55.014,97.596,54.303,97.596L54.303,97.596z"/>
			</g>
		</g>
		<g>
			<g>
				<path fill="#15FFAB" d="M52.136,97.609c-1.672-0.048-1.809,1.961-1.819,3.184c-0.006,0.71,1.097,0.71,1.103,0
					c0.004-0.54-0.105-2.105,0.716-2.082C52.846,98.732,52.845,97.629,52.136,97.609L52.136,97.609z"/>
			</g>
		</g>
		<g>
			<g>
				<path fill="#15FFAB" d="M50.315,100.695c0,1.169,0,2.338,0,3.506c0,0.709,1.103,0.711,1.103,0c0-1.169,0-2.338,0-3.506
					C51.418,99.985,50.315,99.984,50.315,100.695L50.315,100.695z"/>
			</g>
		</g>
		<g>
			<g>
				<path fill="#15FFAB" d="M50.285,104.275c-0.048,0.546-0.124,1.153,0.057,1.683c0.159,0.465,0.564,0.829,1.005,1.023
					c0.428,0.188,0.939,0.235,1.368,0.016c0.51-0.26,0.705-0.747,0.775-1.286c0.039-0.298-0.281-0.548-0.551-0.551
					c-0.33-0.003-0.513,0.257-0.551,0.551c-0.056,0.435-0.482,0.381-0.77,0.167c-0.462-0.343-0.272-1.11-0.228-1.603
					C51.45,103.569,50.347,103.573,50.285,104.275L50.285,104.275z"/>
			</g>
		</g>
		<g>
			<g>
				<path fill="#15FFAB" d="M52.526,101.071c0,2.148,0,4.296,0,6.444c0,0.709,1.103,0.711,1.103,0c0-2.148,0-4.296,0-6.444
					C53.628,100.362,52.526,100.361,52.526,101.071L52.526,101.071z"/>
			</g>
		</g>
		<g>
			<g>
				<path fill="#15FFAB" d="M58.542,106.99c-1.83,0-3.66,0-5.489,0c-0.709,0-0.711,1.103,0,1.103c1.83,0,3.66,0,5.489,0
					C59.252,108.092,59.253,106.99,58.542,106.99L58.542,106.99z"/>
			</g>
		</g>
	</g>
	<g>
		<g>
			<path fill="#FFFFFF" d="M59.348,89.235c1.436-1.436,2.872-2.872,4.307-4.307c0.502-0.502-0.277-1.282-0.78-0.78
				c-1.436,1.436-2.872,2.872-4.307,4.307C58.066,88.958,58.845,89.737,59.348,89.235L59.348,89.235z"/>
		</g>
	</g>
	<g>
		<g>
			<path fill="#FFFFFF" d="M87.651,71.427c-1.192-4.095-2.384-8.191-3.577-12.286c-0.198-0.68-1.262-0.391-1.063,0.293
				c1.193,4.095,2.385,8.19,3.577,12.286C86.785,72.4,87.85,72.111,87.651,71.427L87.651,71.427z"/>
		</g>
	</g>
	<g>
		<g>
			<path fill="#FFFFFF" d="M29.027,70.587c-1.192-4.095-2.384-8.191-3.577-12.286c-0.198-0.68-1.262-0.391-1.063,0.293
				c1.193,4.095,2.385,8.19,3.577,12.286C28.162,71.56,29.226,71.271,29.027,70.587L29.027,70.587z"/>
		</g>
	</g>
	<g>
		<g>
			<path fill="#FFFFFF" d="M81.999,73.591c-3.082-1.821-6.163-3.642-9.245-5.463c-0.612-0.362-1.168,0.591-0.557,0.952
				c3.082,1.821,6.164,3.642,9.245,5.463C82.055,74.905,82.61,73.952,81.999,73.591L81.999,73.591z"/>
		</g>
	</g>
	<g>
		<g>
			<path fill="#FFFFFF" d="M61.173,62.985c-3.072-1.667-6.144-3.334-9.216-5.001c-0.624-0.339-1.181,0.613-0.557,0.952
				c3.072,1.667,6.144,3.334,9.216,5.001C61.24,64.276,61.797,63.324,61.173,62.985L61.173,62.985z"/>
		</g>
	</g>
	<g>
		<g>
			<path fill="#FFFFFF" d="M37.788,51.443c-1.959-0.798-3.918-1.597-5.876-2.395c-0.657-0.268-0.943,0.799-0.293,1.063
				c1.959,0.798,3.918,1.596,5.876,2.395C38.152,52.774,38.438,51.708,37.788,51.443L37.788,51.443z"/>
		</g>
	</g>
	<g>
		<g>
			<path fill="#FFFFFF" d="M36.482,65.135c-0.99,1.869-1.979,3.739-2.968,5.609c-0.332,0.627,0.62,1.185,0.952,0.557
				c0.989-1.87,1.979-3.739,2.968-5.609C37.766,65.065,36.815,64.507,36.482,65.135L36.482,65.135z"/>
		</g>
	</g>
	<g>
		<g>
			<path fill="#FFFFFF" d="M53.739,42.594c-1.763,1.169-3.526,2.338-5.288,3.507c-0.589,0.391-0.037,1.346,0.557,0.952
				c1.763-1.169,3.525-2.338,5.288-3.507C54.884,43.156,54.332,42.201,53.739,42.594L53.739,42.594z"/>
		</g>
	</g>
	<g>
		<g>
			<path fill="#FFFFFF" d="M74.856,57.513c-1.763,1.169-3.525,2.338-5.288,3.507c-0.589,0.391-0.037,1.346,0.557,0.952
				c1.763-1.169,3.525-2.338,5.288-3.508C76.001,58.074,75.449,57.119,74.856,57.513L74.856,57.513z"/>
		</g>
	</g>
	<g>
		<g>
			<path fill="#FFFFFF" d="M78.403,39.452c-3.762-2.29-7.525-4.58-11.287-6.869c-0.608-0.37-1.162,0.583-0.557,0.952
				c3.762,2.29,7.525,4.58,11.287,6.869C78.454,40.774,79.009,39.821,78.403,39.452L78.403,39.452z"/>
		</g>
	</g>
	<g>
		<g>
			<path fill="#FFFFFF" d="M48.645,31.946c-5.944,3.224-11.888,6.447-17.833,9.671c-0.624,0.338-0.068,1.291,0.557,0.952
				c5.944-3.224,11.888-6.447,17.833-9.671C49.826,32.56,49.27,31.608,48.645,31.946L48.645,31.946z"/>
		</g>
	</g>
	<g>
		<g>
			<path fill="#FFFFFF" d="M65.378,60.361c-1.963-5.519-3.925-11.039-5.888-16.558c-0.236-0.664-1.302-0.378-1.063,0.293
				c1.963,5.519,3.925,11.039,5.888,16.558C64.551,61.318,65.617,61.032,65.378,60.361L65.378,60.361z"/>
		</g>
	</g>
	<g>
		<g>
			<path fill="#FFFFFF" d="M61.521,92.739c6.146-1.541,12.292-3.082,18.438-4.623c0.688-0.172,0.396-1.236-0.293-1.063
				c-6.146,1.541-12.292,3.082-18.438,4.623C60.54,91.848,60.831,92.911,61.521,92.739L61.521,92.739z"/>
		</g>
	</g>
	<g>
		<g>
			<path fill="#FFFFFF" d="M51.505,89.714c-4.471-1.518-8.942-3.035-13.413-4.553c-0.673-0.229-0.962,0.836-0.293,1.063
				c4.471,1.518,8.942,3.035,13.413,4.553C51.886,91.006,52.175,89.941,51.505,89.714L51.505,89.714z"/>
		</g>
	</g>
	<g>
		<g>
			<circle fill="#15FFAB" cx="92.436" cy="27.384" r="0.91"/>
		</g>
		<g>
			<circle fill="#15FFAB" cx="68.762" cy="13.376" r="0.91"/>
		</g>
	</g>
	<g>
		<path fill="#FFFFFF" d="M10.243,30.118L9.96,30.619c-0.16-0.093-0.289-0.14-0.386-0.141c-0.104-0.005-0.215,0.027-0.335,0.096
			c-0.147,0.085-0.245,0.196-0.294,0.335c-0.05,0.138-0.039,0.268,0.032,0.393c0.098,0.171,0.305,0.236,0.62,0.194l0.432-0.058
			c0.351-0.048,0.64-0.027,0.867,0.063c0.227,0.09,0.41,0.256,0.548,0.497c0.185,0.323,0.231,0.651,0.137,0.986
			c-0.095,0.337-0.303,0.597-0.624,0.782c-0.305,0.175-0.608,0.229-0.91,0.163c-0.299-0.068-0.567-0.252-0.803-0.551l0.468-0.426
			c0.143,0.192,0.267,0.31,0.373,0.354c0.196,0.089,0.399,0.073,0.608-0.047c0.165-0.095,0.27-0.229,0.316-0.402
			c0.046-0.173,0.02-0.345-0.078-0.515c-0.039-0.068-0.084-0.125-0.136-0.171c-0.051-0.046-0.111-0.081-0.179-0.106
			s-0.145-0.04-0.233-0.045c-0.088-0.005-0.186-0.001-0.296,0.011l-0.42,0.054c-0.597,0.073-1.008-0.086-1.232-0.477
			c-0.151-0.264-0.177-0.542-0.078-0.835c0.099-0.295,0.298-0.528,0.598-0.7C9.361,29.839,9.79,29.854,10.243,30.118z"/>
		<path fill="#FFFFFF" d="M11.841,31.679c-0.184-0.32-0.225-0.657-0.125-1.013c0.1-0.356,0.314-0.628,0.643-0.817
			c0.33-0.19,0.676-0.238,1.036-0.144c0.357,0.095,0.63,0.307,0.819,0.636c0.191,0.332,0.236,0.676,0.136,1.031
			c-0.102,0.355-0.321,0.629-0.656,0.821c-0.332,0.191-0.675,0.236-1.03,0.138C12.31,32.236,12.036,32.018,11.841,31.679z
			 M12.369,31.387c0.127,0.221,0.287,0.362,0.479,0.423c0.196,0.06,0.393,0.034,0.592-0.08c0.2-0.115,0.323-0.271,0.369-0.469
			c0.046-0.197,0.007-0.404-0.117-0.619c-0.124-0.215-0.282-0.353-0.476-0.413c-0.196-0.061-0.394-0.034-0.592,0.08
			c-0.196,0.112-0.316,0.269-0.363,0.469C12.215,30.978,12.251,31.181,12.369,31.387z"/>
		<path fill="#FFFFFF" d="M15.895,28.026l0.39,0.68c-0.198-0.075-0.359-0.113-0.482-0.113c-0.122-0.002-0.245,0.032-0.368,0.102
			c-0.192,0.11-0.313,0.27-0.363,0.478c-0.05,0.208-0.016,0.413,0.1,0.617c0.119,0.207,0.278,0.343,0.478,0.406
			c0.201,0.062,0.397,0.038,0.59-0.073c0.123-0.071,0.216-0.159,0.279-0.266c0.061-0.103,0.111-0.265,0.148-0.484l0.388,0.675
			c-0.146,0.227-0.323,0.4-0.53,0.519c-0.343,0.197-0.693,0.251-1.05,0.162c-0.358-0.091-0.632-0.301-0.822-0.631
			c-0.19-0.33-0.233-0.676-0.13-1.037c0.103-0.361,0.324-0.639,0.663-0.835C15.405,28.099,15.641,28.033,15.895,28.026z"/>
		<path fill="#FFFFFF" d="M15.729,26.77c-0.051-0.089-0.063-0.185-0.035-0.288c0.028-0.103,0.087-0.18,0.178-0.232
			c0.093-0.053,0.19-0.066,0.293-0.038c0.102,0.026,0.179,0.085,0.232,0.178c0.053,0.092,0.066,0.19,0.038,0.292
			c-0.026,0.102-0.085,0.179-0.178,0.232c-0.092,0.053-0.19,0.066-0.293,0.038C15.861,26.925,15.783,26.864,15.729,26.77z
			 M16.847,27.352l1.272,2.214l-0.511,0.294l-1.272-2.214L16.847,27.352z"/>
		<path fill="#FFFFFF" d="M19.127,26.043l0.514-0.295l1.272,2.214l-0.514,0.295l-0.133-0.232c-0.097,0.318-0.267,0.547-0.51,0.686
			c-0.306,0.176-0.623,0.211-0.95,0.104c-0.328-0.112-0.589-0.337-0.783-0.675c-0.191-0.332-0.25-0.665-0.179-1.001
			c0.072-0.335,0.256-0.589,0.555-0.76c0.257-0.148,0.55-0.175,0.876-0.08L19.127,26.043z M18.545,27.84
			c0.122,0.212,0.278,0.352,0.468,0.42c0.194,0.068,0.38,0.051,0.557-0.051c0.189-0.109,0.305-0.262,0.347-0.459
			c0.039-0.202-0.001-0.407-0.12-0.614c-0.119-0.208-0.276-0.345-0.47-0.413c-0.193-0.065-0.382-0.044-0.568,0.063
			c-0.176,0.101-0.284,0.252-0.326,0.453C18.393,27.441,18.431,27.642,18.545,27.84z"/>
		<path fill="#FFFFFF" d="M19.864,23.458l2.205,3.839l-0.511,0.294l-2.205-3.839L19.864,23.458z"/>
		<path fill="#FFFFFF" d="M23.489,22.475l1.73,3.012l-0.53,0.304l-1.73-3.012l-0.807,0.463l-0.286-0.498l2.141-1.23l0.286,0.498
			L23.489,22.475z"/>
		<path fill="#FFFFFF" d="M25.127,22.596l0.511-0.294l0.114,0.198c0.037-0.152,0.082-0.268,0.134-0.346
			c0.053-0.08,0.129-0.15,0.231-0.208c0.135-0.077,0.301-0.114,0.499-0.111l0.035,0.603c-0.137-0.014-0.252,0.006-0.344,0.059
			c-0.279,0.16-0.297,0.451-0.055,0.872l0.659,1.148l-0.511,0.294L25.127,22.596z"/>
		<path fill="#FFFFFF" d="M28.5,20.658l0.514-0.295l1.271,2.214l-0.514,0.295l-0.133-0.232c-0.097,0.318-0.267,0.547-0.51,0.686
			c-0.306,0.176-0.623,0.211-0.95,0.104c-0.328-0.112-0.589-0.337-0.783-0.675c-0.191-0.332-0.25-0.665-0.179-1.001
			c0.071-0.335,0.256-0.589,0.555-0.76c0.258-0.148,0.55-0.175,0.876-0.08L28.5,20.658z M27.918,22.455
			c0.122,0.212,0.278,0.352,0.468,0.42c0.194,0.068,0.38,0.051,0.557-0.051c0.189-0.109,0.305-0.262,0.347-0.459
			c0.039-0.202-0.001-0.407-0.12-0.614c-0.119-0.208-0.276-0.345-0.47-0.413c-0.193-0.065-0.382-0.044-0.568,0.063
			c-0.176,0.101-0.284,0.252-0.326,0.453C27.767,22.057,27.804,22.257,27.918,22.455z"/>
		<path fill="#FFFFFF" d="M31.437,19.098l0.39,0.68c-0.198-0.075-0.359-0.113-0.482-0.113c-0.122-0.002-0.245,0.032-0.368,0.102
			c-0.192,0.11-0.313,0.27-0.363,0.478c-0.05,0.208-0.016,0.413,0.1,0.617c0.119,0.207,0.278,0.343,0.478,0.405
			c0.201,0.062,0.398,0.038,0.59-0.073c0.123-0.071,0.216-0.159,0.279-0.266c0.061-0.103,0.111-0.265,0.148-0.484l0.388,0.675
			c-0.146,0.227-0.323,0.4-0.53,0.519c-0.342,0.197-0.692,0.251-1.05,0.162c-0.358-0.091-0.632-0.301-0.822-0.631
			c-0.19-0.33-0.233-0.676-0.131-1.037c0.103-0.361,0.324-0.639,0.663-0.835C30.947,19.171,31.183,19.105,31.437,19.098z"/>
		<path fill="#FFFFFF" d="M31.456,16.799L32.8,19.14l0.309-1.13l0.687-0.394l-0.428,1.482l1.77,0.691l-0.664,0.381l-1.268-0.514
			l-0.035,0.129l0.49,0.852l-0.511,0.294l-2.205-3.839L31.456,16.799z"/>
		<path fill="#FFFFFF" d="M35.159,15.11l2.261,1.821l-0.491-3.065l2.359,1.991l-0.377-2.903l0.575-0.33l0.575,4.633l-2.331-1.968
			l0.489,3.029l-3.636-2.878L35.159,15.11z"/>
		<path fill="#FFFFFF" d="M39.963,12.849c-0.051-0.089-0.063-0.185-0.035-0.288c0.028-0.103,0.087-0.18,0.178-0.232
			c0.092-0.053,0.19-0.066,0.292-0.038c0.102,0.026,0.179,0.085,0.232,0.178c0.053,0.092,0.066,0.19,0.038,0.292
			c-0.026,0.102-0.085,0.179-0.178,0.232c-0.092,0.053-0.19,0.066-0.293,0.038C40.096,13.004,40.017,12.943,39.963,12.849z
			 M41.081,13.431l1.272,2.214l-0.511,0.294l-1.272-2.214L41.081,13.431z"/>
		<path fill="#FFFFFF" d="M41.729,13.059l0.514-0.295l0.117,0.205c0.077-0.28,0.228-0.484,0.452-0.613
			c0.258-0.148,0.505-0.182,0.742-0.103c0.204,0.067,0.395,0.256,0.574,0.568l0.78,1.357l-0.514,0.295l-0.71-1.236
			c-0.125-0.218-0.242-0.352-0.351-0.4c-0.108-0.051-0.24-0.032-0.396,0.058c-0.17,0.098-0.258,0.223-0.265,0.376
			c-0.006,0.151,0.07,0.364,0.228,0.64l0.614,1.068L43,15.273L41.729,13.059z"/>
		<path fill="#FFFFFF" d="M44.281,11.593l0.513-0.295l0.118,0.205c0.077-0.28,0.228-0.485,0.452-0.613
			c0.258-0.148,0.505-0.182,0.742-0.103c0.204,0.067,0.395,0.256,0.574,0.568l0.78,1.357l-0.514,0.295l-0.71-1.236
			c-0.125-0.218-0.242-0.352-0.351-0.4c-0.108-0.051-0.24-0.031-0.396,0.058c-0.17,0.097-0.258,0.223-0.265,0.376
			c-0.006,0.151,0.07,0.364,0.228,0.64l0.614,1.068l-0.514,0.295L44.281,11.593z"/>
		<path fill="#FFFFFF" d="M49.554,10.196l-1.586,0.911c0.118,0.174,0.26,0.285,0.427,0.332c0.166,0.046,0.33,0.022,0.494-0.072
			c0.127-0.073,0.215-0.164,0.264-0.273c0.047-0.107,0.076-0.273,0.086-0.497l0.57-0.007c-0.001,0.152-0.016,0.29-0.044,0.413
			c-0.028,0.124-0.069,0.236-0.124,0.337c-0.055,0.101-0.124,0.192-0.209,0.273c-0.085,0.081-0.185,0.155-0.3,0.221
			c-0.33,0.19-0.656,0.236-0.978,0.139c-0.323-0.099-0.586-0.325-0.788-0.678c-0.201-0.35-0.267-0.689-0.197-1.017
			c0.073-0.326,0.27-0.582,0.593-0.767c0.326-0.187,0.643-0.231,0.952-0.132c0.306,0.098,0.564,0.33,0.774,0.695L49.554,10.196z
			 M48.79,10.08c-0.228-0.232-0.478-0.27-0.751-0.113c-0.062,0.036-0.115,0.079-0.159,0.129c-0.044,0.05-0.078,0.106-0.102,0.167
			c-0.024,0.061-0.038,0.126-0.041,0.194c-0.003,0.068,0.005,0.139,0.025,0.212L48.79,10.08z"/>
		<path fill="#FFFFFF" d="M49.409,8.648l0.511-0.294l0.114,0.198c0.037-0.152,0.082-0.268,0.134-0.346
			c0.053-0.08,0.129-0.15,0.231-0.208c0.135-0.078,0.301-0.114,0.499-0.111l0.035,0.603c-0.137-0.014-0.252,0.006-0.344,0.059
			c-0.279,0.16-0.297,0.451-0.055,0.872l0.659,1.148l-0.511,0.294L49.409,8.648z"/>
	</g>
	<g>
		<g>
			<g>
				<path fill="#FFFFFF" d="M74.928,109.88l0.412-0.239l0.846,1.457c0.07-0.217,0.193-0.377,0.37-0.479
					c0.201-0.117,0.4-0.145,0.597-0.085c0.169,0.054,0.325,0.205,0.47,0.454l0.635,1.093l-0.412,0.239l-0.612-1.055
					c-0.083-0.143-0.168-0.232-0.256-0.266c-0.088-0.035-0.188-0.019-0.3,0.046c-0.144,0.084-0.22,0.187-0.226,0.31
					c-0.005,0.124,0.056,0.295,0.184,0.515l0.501,0.862l-0.412,0.239L74.928,109.88z"/>
			</g>
			<g>
				<path fill="#FFFFFF" d="M79.059,109.232l0.414-0.24l1.036,1.784l-0.414,0.24l-0.109-0.187c-0.078,0.257-0.214,0.442-0.409,0.556
					c-0.247,0.143-0.502,0.173-0.767,0.088c-0.266-0.089-0.477-0.27-0.635-0.542c-0.155-0.267-0.205-0.537-0.148-0.808
					c0.056-0.271,0.205-0.476,0.445-0.616c0.208-0.12,0.443-0.143,0.707-0.068L79.059,109.232z M78.596,110.686
					c0.099,0.171,0.226,0.283,0.38,0.338c0.157,0.054,0.307,0.04,0.45-0.043c0.153-0.089,0.245-0.213,0.278-0.372
					c0.031-0.163-0.002-0.328-0.099-0.496c-0.097-0.167-0.224-0.278-0.381-0.332c-0.156-0.052-0.308-0.034-0.459,0.053
					c-0.142,0.082-0.229,0.205-0.262,0.367C78.472,110.364,78.503,110.526,78.596,110.686z"/>
			</g>
			<g>
				<path fill="#FFFFFF" d="M81.425,107.961l0.318,0.547c-0.161-0.06-0.29-0.09-0.39-0.089c-0.099-0.002-0.198,0.027-0.296,0.084
					c-0.155,0.09-0.252,0.219-0.292,0.387c-0.039,0.168-0.012,0.334,0.083,0.498c0.097,0.167,0.226,0.276,0.388,0.326
					c0.162,0.049,0.321,0.029,0.476-0.061c0.099-0.057,0.174-0.13,0.225-0.216c0.049-0.084,0.088-0.215,0.118-0.392l0.316,0.544
					c-0.117,0.184-0.259,0.324-0.426,0.421c-0.276,0.16-0.558,0.205-0.847,0.134c-0.29-0.072-0.512-0.241-0.666-0.507
					c-0.155-0.266-0.191-0.545-0.109-0.837c0.082-0.292,0.259-0.518,0.533-0.677C81.03,108.022,81.22,107.967,81.425,107.961z"/>
			</g>
			<g>
				<path fill="#FFFFFF" d="M81.432,106.104l1.095,1.886l0.245-0.914l0.553-0.321l-0.34,1.199l1.432,0.552l-0.535,0.31l-1.027-0.41
					l-0.028,0.104l0.399,0.687l-0.412,0.239l-1.796-3.093L81.432,106.104z"/>
			</g>
			<g>
				<path fill="#FFFFFF" d="M84.962,105.804l0.414-0.24l1.036,1.783l-0.414,0.24l-0.109-0.187c-0.077,0.257-0.214,0.442-0.409,0.556
					c-0.247,0.143-0.502,0.173-0.767,0.088c-0.265-0.089-0.477-0.27-0.635-0.542c-0.155-0.267-0.205-0.537-0.148-0.808
					c0.056-0.271,0.205-0.476,0.445-0.616c0.207-0.12,0.443-0.143,0.707-0.068L84.962,105.804z M84.499,107.258
					c0.099,0.171,0.226,0.283,0.38,0.338c0.157,0.054,0.307,0.04,0.45-0.043c0.153-0.089,0.245-0.213,0.278-0.372
					c0.031-0.163-0.002-0.328-0.099-0.496c-0.097-0.167-0.224-0.278-0.381-0.332c-0.156-0.052-0.308-0.034-0.459,0.053
					c-0.142,0.082-0.229,0.205-0.262,0.367C84.375,106.937,84.406,107.098,84.499,107.258z"/>
			</g>
			<g>
				<path fill="#FFFFFF" d="M86.544,105.4l0.812,1.399l-0.412,0.239l-0.812-1.399l-0.176,0.102l-0.223-0.385l0.176-0.102
					l-0.38-0.654l0.412-0.239l0.38,0.654l0.32-0.186l0.223,0.385L86.544,105.4z"/>
			</g>
			<g>
				<path fill="#FFFFFF" d="M86.162,103.358l0.412-0.239l0.846,1.457c0.07-0.217,0.193-0.377,0.37-0.479
					c0.201-0.117,0.4-0.145,0.597-0.085c0.168,0.054,0.325,0.205,0.47,0.454l0.635,1.093l-0.412,0.239l-0.612-1.055
					c-0.083-0.143-0.168-0.232-0.256-0.266c-0.088-0.035-0.188-0.019-0.3,0.046c-0.144,0.084-0.219,0.187-0.226,0.31
					c-0.005,0.124,0.056,0.295,0.184,0.515l0.501,0.862l-0.412,0.239L86.162,103.358z"/>
			</g>
			<g>
				<path fill="#FFFFFF" d="M89.404,104.401c-0.15-0.257-0.185-0.53-0.105-0.818c0.08-0.287,0.252-0.508,0.517-0.662
					c0.266-0.155,0.545-0.195,0.836-0.121c0.289,0.076,0.51,0.246,0.664,0.511c0.155,0.267,0.193,0.545,0.114,0.833
					c-0.081,0.287-0.257,0.509-0.527,0.666c-0.267,0.155-0.545,0.194-0.832,0.115C89.785,104.849,89.563,104.674,89.404,104.401z
					 M89.829,104.163c0.103,0.178,0.233,0.292,0.388,0.34c0.158,0.048,0.318,0.026,0.478-0.067c0.161-0.094,0.26-0.22,0.296-0.38
					c0.036-0.16,0.004-0.326-0.097-0.5c-0.101-0.173-0.229-0.284-0.386-0.332c-0.159-0.048-0.318-0.026-0.478,0.067
					c-0.158,0.091-0.255,0.218-0.291,0.379C89.703,103.833,89.733,103.997,89.829,104.163z"/>
			</g>
			<g>
				<path fill="#FFFFFF" d="M91.232,102.164l0.414-0.24l0.096,0.165c0.061-0.226,0.182-0.392,0.363-0.497
					c0.208-0.12,0.407-0.149,0.599-0.086c0.165,0.053,0.32,0.205,0.466,0.457l0.635,1.093l-0.414,0.24l-0.578-0.996
					c-0.102-0.176-0.197-0.283-0.285-0.322c-0.087-0.041-0.194-0.025-0.32,0.048c-0.137,0.079-0.208,0.181-0.212,0.305
					c-0.004,0.122,0.058,0.294,0.187,0.516l0.5,0.861l-0.414,0.24L91.232,102.164z"/>
			</g>
			<g>
				<path fill="#FFFFFF" d="M95.928,101.286l1.053-0.611l0.233,0.401l-1.899,1.102l0.292-1.758c0.028-0.174,0.049-0.324,0.064-0.449
					c0.015-0.124,0.023-0.226,0.023-0.305c0.003-0.155-0.022-0.278-0.075-0.37c-0.076-0.132-0.187-0.215-0.332-0.251
					c-0.145-0.035-0.285-0.013-0.422,0.066c-0.286,0.166-0.351,0.43-0.196,0.792l-0.425,0.247c-0.278-0.636-0.15-1.108,0.384-1.418
					c0.258-0.15,0.521-0.193,0.791-0.131c0.271,0.062,0.476,0.213,0.617,0.455c0.089,0.154,0.136,0.328,0.14,0.524
					c0.003,0.101-0.005,0.227-0.023,0.379c-0.019,0.152-0.047,0.336-0.086,0.551L95.928,101.286z"/>
			</g>
			<g>
				<path fill="#FFFFFF" d="M96.863,99.364c-0.262-0.451-0.365-0.871-0.311-1.261c0.047-0.352,0.204-0.606,0.471-0.761
					c0.267-0.155,0.565-0.166,0.895-0.032c0.366,0.147,0.683,0.451,0.952,0.914c0.268,0.462,0.375,0.888,0.321,1.278
					c-0.047,0.352-0.204,0.605-0.47,0.76c-0.266,0.155-0.565,0.166-0.897,0.033C97.459,100.148,97.138,99.838,96.863,99.364z
					 M97.284,99.123c0.182,0.314,0.388,0.543,0.617,0.687c0.227,0.141,0.425,0.162,0.593,0.064c0.167-0.097,0.247-0.279,0.238-0.547
					c-0.008-0.266-0.101-0.554-0.281-0.863c-0.179-0.309-0.383-0.533-0.611-0.673c-0.228-0.139-0.425-0.16-0.592-0.063
					c-0.166,0.096-0.245,0.278-0.238,0.544C97.018,98.538,97.109,98.821,97.284,99.123z"/>
			</g>
			<g>
				<path fill="#FFFFFF" d="M99.456,96.527l-0.489,0.284l0.003-0.535l0.681-0.396l1.641,2.827l-0.427,0.248L99.456,96.527z"/>
			</g>
			<g>
				<path fill="#FFFFFF" d="M101.963,96.352c-0.293-0.026-0.512-0.165-0.659-0.418c-0.133-0.23-0.166-0.467-0.097-0.712
					c0.069-0.246,0.222-0.438,0.457-0.574c0.234-0.136,0.474-0.172,0.72-0.109c0.245,0.062,0.435,0.209,0.569,0.441
					c0.141,0.243,0.153,0.501,0.036,0.775c0.149-0.005,0.29,0.032,0.422,0.112c0.134,0.079,0.243,0.192,0.328,0.338
					c0.145,0.25,0.183,0.503,0.112,0.758c-0.071,0.255-0.234,0.457-0.489,0.605c-0.261,0.152-0.523,0.196-0.787,0.134
					c-0.265-0.062-0.468-0.215-0.609-0.459C101.783,96.923,101.781,96.627,101.963,96.352z M101.704,95.699
					c0.07,0.121,0.17,0.198,0.299,0.233c0.131,0.035,0.256,0.018,0.373-0.05c0.116-0.067,0.191-0.167,0.226-0.298
					c0.035-0.131,0.019-0.255-0.049-0.371c-0.067-0.116-0.167-0.191-0.298-0.226c-0.131-0.035-0.255-0.018-0.371,0.049
					c-0.116,0.067-0.191,0.167-0.226,0.298C101.623,95.465,101.638,95.587,101.704,95.699z M102.378,96.983
					c0.076,0.131,0.186,0.217,0.331,0.258c0.145,0.04,0.283,0.021,0.414-0.054c0.129-0.075,0.213-0.185,0.252-0.33
					c0.038-0.146,0.019-0.284-0.056-0.413c-0.076-0.13-0.186-0.215-0.331-0.254c-0.145-0.038-0.282-0.02-0.411,0.055
					c-0.128,0.074-0.212,0.184-0.252,0.33C102.286,96.72,102.304,96.856,102.378,96.983z"/>
			</g>
		</g>
		<g>
			<g>
				<path fill="#FFFFFF" d="M58.616,122.025c-0.018-0.031-0.037-0.063-0.055-0.094c-0.018-0.031-0.036-0.063-0.045-0.099
					c-0.007-0.028-0.024-0.051-0.037-0.077c-0.009-0.018-0.02-0.036-0.021-0.057c0-0.005-0.001-0.01-0.003-0.014
					c-0.018-0.037-0.033-0.075-0.045-0.114c-0.011-0.036-0.021-0.072-0.031-0.108c-0.015-0.05-0.026-0.101-0.035-0.152
					c-0.014-0.072-0.025-0.145-0.031-0.219c-0.009-0.095-0.011-0.189-0.009-0.284c0.001-0.072,0.011-0.144,0.018-0.215
					c0.006-0.064,0.024-0.126,0.034-0.189c0.013-0.081,0.039-0.159,0.062-0.237c0.037-0.121,0.087-0.237,0.146-0.349
					c0.039-0.074,0.082-0.145,0.127-0.215c0.025-0.039,0.051-0.078,0.081-0.113c0.029-0.034,0.052-0.074,0.087-0.103
					c0.013-0.01,0.015-0.028,0.029-0.037c0.012-0.007,0.02-0.019,0.028-0.031c0.013-0.02,0.034-0.031,0.05-0.049
					c0.026-0.03,0.056-0.055,0.085-0.081c0.034-0.03,0.071-0.057,0.105-0.088c0.032-0.029,0.067-0.053,0.102-0.077
					c0.075-0.053,0.15-0.106,0.232-0.147c0.104-0.053,0.209-0.103,0.32-0.142c0.041-0.015,0.083-0.029,0.125-0.041
					c0.034-0.01,0.067-0.027,0.104-0.026c0.025-0.015,0.056-0.009,0.082-0.021c0.02-0.01,0.043-0.007,0.064-0.012
					c0.047-0.011,0.095-0.016,0.142-0.021c0.09-0.009,0.181-0.014,0.272-0.013c0.091,0.001,0.181,0.012,0.271,0.02
					c0.09,0.009,0.175,0.036,0.264,0.048c0.014,0.002,0.027,0.007,0.041,0.012c0.03,0.01,0.059,0.022,0.089,0.029
					c0.076,0.017,0.146,0.049,0.216,0.079c0.056,0.024,0.112,0.048,0.165,0.076c0.058,0.03,0.114,0.065,0.169,0.1
					c0.074,0.047,0.145,0.099,0.212,0.156c0.038,0.032,0.08,0.06,0.111,0.101c0.032,0.015,0.044,0.053,0.076,0.069
					c0.008,0.004,0.013,0.014,0.018,0.021c0.011,0.015,0.022,0.03,0.038,0.042c0.009,0.006,0.016,0.015,0.022,0.024
					c0.014,0.019,0.026,0.039,0.047,0.053c0.01,0.007,0.017,0.019,0.023,0.029c0.021,0.032,0.041,0.064,0.066,0.092
					c0.028,0.031,0.048,0.066,0.069,0.102c0.025,0.042,0.05,0.084,0.075,0.127c0.021,0.035,0.042,0.071,0.055,0.11
					c0.011,0.033,0.028,0.064,0.044,0.094c0.01,0.018,0.021,0.036,0.021,0.057c0,0.003,0.001,0.006,0.002,0.009
					c0.018,0.035,0.03,0.072,0.041,0.11c0.006,0.021,0.015,0.04,0.019,0.063c0.004,0.026,0.015,0.051,0.021,0.077
					c0.02,0.074,0.034,0.149,0.046,0.225c0.017,0.107,0.025,0.214,0.026,0.322c0.001,0.056-0.006,0.112-0.003,0.168
					c-0.016,0.113-0.023,0.227-0.052,0.338c-0.008,0.032-0.012,0.065-0.021,0.096c-0.015,0.051-0.033,0.102-0.048,0.153
					c-0.017,0.057-0.043,0.11-0.065,0.165c-0.052,0.13-0.123,0.25-0.197,0.368c-0.038,0.041-0.062,0.093-0.101,0.134
					c-0.015,0.015-0.026,0.034-0.041,0.051c-0.032,0.036-0.06,0.076-0.095,0.109c-0.026,0.025-0.047,0.056-0.079,0.074
					c-0.061,0.069-0.137,0.12-0.206,0.18c-0.002,0.002-0.005,0.004-0.007,0.006c-0.091,0.06-0.177,0.128-0.276,0.175
					c-0.074,0.035-0.145,0.076-0.223,0.105c-0.047,0.017-0.095,0.035-0.141,0.054c-0.03,0.012-0.063,0.019-0.094,0.029
					c-0.039,0.013-0.078,0.024-0.118,0.03c-0.048,0.008-0.093,0.026-0.142,0.025c-0.095,0.021-0.192,0.028-0.288,0.031
					c-0.092,0.003-0.185,0.004-0.277-0.009c-0.043-0.006-0.087-0.007-0.13-0.014c-0.053-0.008-0.104-0.021-0.157-0.03
					c-0.1-0.015-0.193-0.054-0.289-0.081c-0.051-0.015-0.098-0.041-0.148-0.06c-0.073-0.029-0.142-0.066-0.21-0.104
					c-0.084-0.047-0.164-0.101-0.242-0.158c-0.043-0.032-0.084-0.067-0.124-0.102c-0.039-0.034-0.075-0.072-0.113-0.107
					c-0.028-0.026-0.048-0.058-0.08-0.08c-0.006-0.004-0.01-0.012-0.015-0.018c-0.017-0.025-0.033-0.049-0.058-0.068
					c-0.013-0.01-0.021-0.027-0.03-0.042c-0.018-0.028-0.037-0.055-0.06-0.079c-0.011-0.011-0.02-0.024-0.029-0.038
					C58.664,122.106,58.64,122.065,58.616,122.025C58.616,122.025,58.616,122.025,58.616,122.025z M60.108,121.113
					c0.043-0.035,0.082-0.072,0.126-0.101c0.09-0.059,0.18-0.117,0.281-0.157c0.041-0.016,0.078-0.042,0.119-0.057
					c0.075-0.027,0.143-0.067,0.211-0.107c0.037-0.022,0.073-0.043,0.103-0.075c0.007-0.008,0.017-0.015,0.026-0.02
					c0.037-0.02,0.057-0.059,0.091-0.081c0.045-0.061,0.093-0.12,0.119-0.194c0.037-0.105,0.038-0.209-0.008-0.311
					c-0.017-0.039-0.04-0.075-0.065-0.11c-0.04-0.056-0.093-0.098-0.156-0.126c-0.069-0.031-0.142-0.046-0.218-0.046
					c-0.066,0-0.13,0.007-0.192,0.029c-0.004,0.002-0.009,0.002-0.014,0.002c-0.015-0.002-0.028,0.006-0.04,0.012
					c-0.062,0.032-0.121,0.068-0.179,0.106c-0.009,0.006-0.02,0.011-0.024,0.022c-0.007,0.016-0.02,0.023-0.033,0.033
					c-0.006,0.005-0.014,0.009-0.018,0.015c-0.025,0.037-0.058,0.069-0.084,0.106c-0.045,0.063-0.082,0.131-0.107,0.203
					c-0.045,0.128-0.066,0.26-0.061,0.396c0.003,0.084,0.016,0.166,0.037,0.247c0.008,0.03,0.012,0.062,0.028,0.09
					c0.009,0.017,0.014,0.034,0.019,0.053C60.073,121.067,60.085,121.093,60.108,121.113z M60.371,121.097
					c-0.02,0.012-0.04,0.025-0.061,0.036c-0.023,0.012-0.04,0.031-0.057,0.049c-0.005,0.006-0.013,0.009-0.019,0.014
					c-0.022,0.017-0.05,0.027-0.065,0.053c-0.014,0.024-0.049,0.031-0.057,0.061c-0.036,0.04-0.062,0.085-0.085,0.134
					c-0.052,0.107-0.049,0.216-0.006,0.323c0.027,0.069,0.075,0.125,0.136,0.171c0.075,0.056,0.159,0.082,0.249,0.085
					c0.08,0.003,0.162-0.002,0.237-0.04c0.008-0.004,0.018-0.005,0.027-0.007c0.009-0.003,0.018-0.004,0.027-0.008
					c0.082-0.038,0.159-0.099,0.225-0.169c0.027-0.029,0.051-0.058,0.075-0.089c0.062-0.082,0.1-0.173,0.13-0.27
					c0.014-0.044,0.017-0.089,0.026-0.134c0.008-0.04,0.01-0.081,0.01-0.121c0-0.08-0.008-0.16-0.024-0.239
					c-0.005-0.022-0.015-0.041-0.019-0.063c-0.007-0.047-0.029-0.089-0.044-0.134c-0.003-0.009-0.008-0.017-0.013-0.025
					c-0.007-0.012-0.013-0.013-0.026-0.003c-0.032,0.024-0.065,0.045-0.093,0.074c-0.011,0.011-0.025,0.02-0.038,0.028
					c-0.06,0.035-0.12,0.071-0.18,0.105c-0.016,0.009-0.034,0.017-0.052,0.023c-0.027,0.009-0.053,0.021-0.078,0.035
					c-0.026,0.014-0.052,0.031-0.08,0.041C60.463,121.043,60.417,121.069,60.371,121.097z"/>
			</g>
			<g>
				<path fill="#FFFFFF" d="M69.165,116.216c0.155,0.263,0.31,0.526,0.465,0.789c0.012,0.02,0.024,0.039,0.035,0.06
					c0.017,0.034,0.013,0.049-0.02,0.072c-0.017,0.011-0.034,0.021-0.052,0.031c-0.124,0.073-0.248,0.147-0.372,0.219
					c-0.118,0.069-0.095,0.075-0.164-0.039c-0.015-0.025-0.029-0.05-0.044-0.074c-0.004-0.007-0.009-0.015-0.016-0.02
					c-0.006-0.005-0.015-0.007-0.022,0.001c-0.012,0.014-0.016,0.03-0.018,0.048c-0.015,0.113-0.065,0.213-0.129,0.304
					c-0.032,0.045-0.063,0.096-0.117,0.123c-0.012,0.006-0.024,0.017-0.033,0.027c-0.061,0.069-0.135,0.115-0.226,0.133
					c-0.011,0.002-0.022,0.007-0.032,0.013c-0.088,0.047-0.184,0.053-0.281,0.06c-0.113,0.008-0.222-0.008-0.329-0.038
					c-0.093-0.026-0.182-0.066-0.263-0.119c-0.033-0.022-0.065-0.045-0.098-0.068c-0.049-0.035-0.095-0.072-0.132-0.12
					c-0.012-0.016-0.022-0.034-0.037-0.047c-0.088-0.075-0.132-0.18-0.188-0.277c-0.01-0.017-0.013-0.038-0.019-0.057
					c-0.006-0.019-0.009-0.04-0.018-0.057c-0.044-0.089-0.055-0.185-0.066-0.281c-0.017-0.162,0.005-0.32,0.064-0.471
					c0.036-0.093,0.089-0.177,0.147-0.259c0.042-0.06,0.11-0.092,0.147-0.154c0.086-0.051,0.161-0.122,0.266-0.135
					c0.008-0.001,0.017-0.005,0.024-0.008c0.108-0.049,0.221-0.049,0.336-0.034c0.046,0.006,0.091,0.014,0.134,0.032
					c0.019,0.008,0.038,0.011,0.059,0.01c0.011-0.001,0.014-0.011,0.011-0.018c-0.008-0.018-0.018-0.036-0.028-0.053
					c-0.023-0.04-0.046-0.08-0.069-0.12c-0.01-0.018-0.005-0.033,0.012-0.044c0.029-0.019,0.057-0.039,0.087-0.057
					c0.111-0.066,0.223-0.132,0.335-0.197c0.032-0.019,0.066-0.034,0.1-0.05c0.018-0.008,0.034-0.003,0.044,0.015
					c0.012,0.02,0.024,0.039,0.036,0.059C68.85,115.681,69.008,115.948,69.165,116.216z M67.725,117.059
					c0.045,0.083,0.112,0.144,0.191,0.192c0.122,0.075,0.25,0.106,0.391,0.058c0.011-0.004,0.022-0.007,0.033-0.008
					c0.036-0.003,0.065-0.021,0.096-0.037c0.055-0.029,0.082-0.088,0.132-0.123c0.064-0.104,0.104-0.214,0.094-0.339
					c-0.004-0.052-0.022-0.1-0.033-0.149c-0.01-0.046-0.028-0.089-0.057-0.125c-0.066-0.084-0.141-0.158-0.24-0.201
					c-0.154-0.067-0.306-0.062-0.452,0.025c-0.044,0.027-0.081,0.059-0.115,0.1c-0.032,0.038-0.059,0.076-0.077,0.122
					C67.621,116.742,67.64,116.903,67.725,117.059z"/>
			</g>
			<g>
				<path fill="#FFFFFF" d="M72.504,114.179c0.161,0.273,0.322,0.546,0.483,0.819c0.033,0.055,0.048,0.063-0.025,0.107
					c-0.149,0.088-0.298,0.175-0.447,0.263c-0.005,0.003-0.01,0.006-0.015,0.009c-0.039,0.02-0.047,0.019-0.07-0.017
					c-0.021-0.034-0.041-0.069-0.062-0.104c-0.007-0.012-0.014-0.025-0.023-0.036c-0.005-0.006-0.013-0.011-0.02-0.012
					c-0.012-0.002-0.014,0.009-0.014,0.017c-0.003,0.046-0.014,0.09-0.028,0.134c-0.028,0.085-0.07,0.159-0.128,0.228
					c-0.03,0.036-0.062,0.066-0.099,0.093c-0.007,0.005-0.015,0.01-0.02,0.017c-0.051,0.071-0.128,0.109-0.203,0.141
					c-0.081,0.034-0.164,0.071-0.254,0.075c-0.166,0.007-0.323-0.021-0.458-0.131c-0.038-0.031-0.074-0.062-0.1-0.104
					c-0.008-0.012-0.015-0.026-0.026-0.034c-0.053-0.039-0.083-0.095-0.115-0.15c-0.216-0.364-0.431-0.729-0.646-1.094
					c-0.04-0.067-0.039-0.068,0.024-0.106c0.144-0.085,0.288-0.17,0.432-0.255c0.01-0.006,0.02-0.012,0.03-0.017
					c0.031-0.015,0.048-0.012,0.067,0.015c0.013,0.019,0.024,0.039,0.036,0.059c0.149,0.253,0.298,0.506,0.448,0.759
					c0.035,0.059,0.072,0.118,0.109,0.176c0.045,0.069,0.133,0.135,0.209,0.171c0.033,0.016,0.069,0.023,0.1,0.018
					c0.095-0.018,0.195-0.029,0.254-0.123c0.017-0.026,0.046-0.039,0.063-0.069c0.044-0.081,0.048-0.165,0.032-0.251
					c-0.016-0.085-0.047-0.164-0.092-0.239c-0.163-0.272-0.322-0.546-0.483-0.819c-0.066-0.112-0.067-0.096,0.041-0.159
					c0.129-0.077,0.258-0.152,0.387-0.228c0.02-0.012,0.04-0.023,0.061-0.032c0.015-0.007,0.029-0.002,0.038,0.011
					c0.015,0.021,0.028,0.044,0.041,0.066C72.188,113.642,72.346,113.911,72.504,114.179z"/>
			</g>
			<g>
				<path fill="#FFFFFF" d="M64.535,119.255c0.074-0.044,0.149-0.088,0.223-0.132c0.034-0.02,0.047-0.028,0.079,0.012
					c0.051,0.064,0.119,0.097,0.202,0.084c0.083-0.013,0.162-0.036,0.231-0.088c0.04-0.03,0.067-0.071,0.096-0.109
					c0.022-0.029,0.026-0.067,0.01-0.106c-0.032-0.078-0.075-0.109-0.159-0.103c-0.054,0.004-0.109,0.012-0.162,0.024
					c-0.117,0.026-0.233,0.061-0.351,0.081c-0.111,0.019-0.221,0.051-0.336,0.048c-0.092-0.002-0.181-0.014-0.263-0.058
					c-0.053-0.029-0.104-0.06-0.136-0.114c-0.007-0.012-0.017-0.024-0.027-0.033c-0.031-0.028-0.051-0.061-0.061-0.102
					c-0.004-0.017-0.012-0.033-0.019-0.048c-0.082-0.166-0.055-0.327,0.027-0.483c0.031-0.059,0.066-0.12,0.124-0.161
					c0.023-0.05,0.07-0.075,0.112-0.104c0.012-0.008,0.023-0.018,0.033-0.028c0.092-0.1,0.217-0.149,0.331-0.214
					c0.046-0.005,0.09-0.02,0.129-0.044c0.038-0.024,0.086-0.008,0.124-0.032c0.133-0.015,0.265-0.025,0.395,0.028
					c0.097,0.04,0.182,0.095,0.248,0.177c0.016,0.02,0.034,0.04,0.049,0.06c0.027,0.036,0.023,0.049-0.017,0.075
					c-0.01,0.006-0.02,0.012-0.03,0.018c-0.131,0.077-0.263,0.155-0.394,0.232c-0.015,0.009-0.029,0.018-0.045,0.026
					c-0.025,0.012-0.043,0.007-0.061-0.013c-0.011-0.013-0.02-0.028-0.032-0.041c-0.034-0.036-0.074-0.063-0.125-0.065
					c-0.086-0.004-0.166,0.015-0.226,0.083c-0.028,0.032-0.064,0.056-0.078,0.101c-0.029,0.091,0.03,0.195,0.124,0.206
					c0.042,0.005,0.087,0.004,0.129-0.004c0.107-0.02,0.213-0.046,0.32-0.069c0.133-0.029,0.264-0.071,0.402-0.079
					c0.103-0.006,0.205-0.002,0.299,0.051c0.038,0.021,0.075,0.044,0.103,0.076c0.06,0.069,0.112,0.143,0.147,0.231
					c0.072,0.179,0.045,0.347-0.028,0.514c-0.024,0.054-0.09,0.142-0.136,0.184c-0.027,0.025-0.04,0.062-0.076,0.081
					c-0.03,0.016-0.062,0.034-0.084,0.06c-0.054,0.063-0.126,0.099-0.195,0.14c-0.032,0.019-0.065,0.036-0.102,0.045
					c-0.028,0.007-0.056,0.017-0.08,0.032c-0.062,0.041-0.134,0.052-0.203,0.068c-0.056,0.013-0.116,0.023-0.177,0.021
					c-0.083-0.002-0.166-0.011-0.243-0.042c-0.081-0.033-0.163-0.07-0.219-0.144c-0.054-0.028-0.081-0.079-0.111-0.127
					c-0.005-0.007-0.009-0.015-0.013-0.023c-0.011-0.023-0.009-0.035,0.015-0.05c0.047-0.029,0.094-0.056,0.141-0.084
					C64.47,119.293,64.502,119.274,64.535,119.255L64.535,119.255z"/>
			</g>
			<g>
				<path fill="#FFFFFF" d="M73.818,112.933c-0.067,0.039-0.134,0.079-0.201,0.118c-0.017,0.01-0.035,0.02-0.053,0.029
					c-0.015,0.007-0.028,0.003-0.038-0.01c-0.017-0.023-0.032-0.047-0.055-0.066c-0.103-0.084-0.241-0.055-0.331,0.023
					c-0.021,0.019-0.041,0.04-0.059,0.063c-0.062,0.08-0.057,0.194,0.061,0.249c0.01,0.005,0.022,0.006,0.033,0.006
					c0.052,0.001,0.103,0.002,0.154-0.009c0.106-0.023,0.213-0.044,0.319-0.071c0.074-0.019,0.149-0.042,0.224-0.054
					c0.108-0.017,0.217-0.033,0.329-0.011c0.093,0.018,0.169,0.062,0.241,0.12c0.011,0.009,0.018,0.022,0.026,0.035
					c0.027,0.044,0.054,0.088,0.081,0.133c0.086,0.144,0.086,0.297,0.048,0.454c-0.026,0.105-0.089,0.189-0.148,0.276
					c-0.055,0.04-0.087,0.107-0.151,0.137c-0.018,0.008-0.034,0.023-0.048,0.037c-0.087,0.087-0.192,0.145-0.307,0.185
					c-0.024,0.008-0.049,0.018-0.072,0.03c-0.138,0.071-0.286,0.091-0.438,0.084c-0.11-0.005-0.213-0.039-0.305-0.103
					c-0.084-0.058-0.154-0.128-0.203-0.218c-0.018-0.034-0.015-0.05,0.02-0.071c0.146-0.087,0.292-0.173,0.439-0.259
					c0.005-0.003,0.01-0.006,0.015-0.008c0.033-0.014,0.053-0.012,0.074,0.02c0.041,0.061,0.1,0.083,0.169,0.081
					c0.099-0.002,0.249-0.055,0.311-0.141c0.029-0.04,0.06-0.075,0.063-0.127c0.002-0.047-0.042-0.11-0.086-0.126
					c-0.042-0.015-0.085-0.017-0.127-0.009c-0.082,0.015-0.162,0.037-0.244,0.052c-0.09,0.016-0.177,0.046-0.268,0.055
					c-0.042,0.004-0.083,0.019-0.125,0.026c-0.095,0.015-0.197,0.02-0.287,0.008c-0.134-0.018-0.236-0.088-0.312-0.194
					c-0.093-0.13-0.139-0.275-0.116-0.438c0.014-0.099,0.056-0.185,0.112-0.265c0.034-0.049,0.074-0.093,0.113-0.138
					c0.013-0.015,0.031-0.025,0.047-0.037c0.028-0.02,0.057-0.036,0.075-0.069c0.009-0.016,0.03-0.026,0.047-0.037
					c0.059-0.036,0.118-0.072,0.177-0.107c0.042-0.025,0.084-0.05,0.134-0.055c0.014-0.001,0.028-0.008,0.04-0.015
					c0.069-0.037,0.144-0.05,0.221-0.059c0.051-0.006,0.1-0.01,0.152-0.01c0.125,0.001,0.237,0.042,0.336,0.113
					c0.067,0.048,0.129,0.104,0.165,0.183c0.011,0.024,0.009,0.034-0.014,0.05c-0.005,0.003-0.01,0.006-0.015,0.009
					C73.967,112.845,73.893,112.889,73.818,112.933L73.818,112.933z"/>
			</g>
			<g>
				<path fill="#FFFFFF" d="M69.526,115.964c-0.076-0.129-0.152-0.258-0.228-0.387c-0.01-0.017-0.02-0.035-0.031-0.052
					c-0.019-0.028-0.037-0.033-0.066-0.018c-0.046,0.024-0.09,0.052-0.135,0.078c-0.02,0.011-0.04,0.024-0.061,0.033
					c-0.03,0.013-0.048,0.007-0.065-0.02c-0.024-0.039-0.047-0.079-0.071-0.119c-0.039-0.067-0.079-0.134-0.118-0.201
					c-0.023-0.039-0.019-0.052,0.021-0.077c0.046-0.029,0.094-0.056,0.141-0.084c0.017-0.01,0.034-0.021,0.051-0.032
					c0.017-0.011,0.02-0.029,0.013-0.046c-0.008-0.021-0.02-0.041-0.032-0.061c-0.074-0.127-0.149-0.253-0.223-0.38
					c-0.043-0.074-0.043-0.074,0.031-0.118c0.134-0.079,0.268-0.158,0.402-0.237c0.015-0.009,0.03-0.018,0.045-0.025
					c0.014-0.006,0.03-0.002,0.039,0.009c0.014,0.018,0.027,0.037,0.038,0.057c0.073,0.124,0.146,0.248,0.219,0.372
					c0.057,0.096,0.053,0.083,0.136,0.035c0.077-0.045,0.154-0.091,0.231-0.136c0.02-0.012,0.04-0.023,0.061-0.032
					c0.014-0.006,0.028-0.003,0.038,0.011c0.005,0.007,0.01,0.014,0.014,0.022c0.061,0.104,0.123,0.208,0.184,0.313
					c0.021,0.035,0.018,0.05-0.012,0.073c-0.016,0.012-0.033,0.022-0.051,0.033c-0.074,0.044-0.149,0.088-0.223,0.132
					c-0.017,0.01-0.034,0.021-0.051,0.032c-0.016,0.011-0.02,0.028-0.013,0.045c0.005,0.013,0.013,0.026,0.02,0.038
					c0.117,0.198,0.235,0.396,0.351,0.595c0.03,0.051,0.068,0.092,0.11,0.132c0.024,0.023,0.053,0.036,0.082,0.046
					c0.029,0.01,0.058,0.011,0.092,0.002c0.093-0.026,0.177-0.067,0.252-0.128c0.007-0.006,0.014-0.01,0.021-0.015
					c0.022-0.014,0.038-0.012,0.052,0.007c0.007,0.009,0.013,0.019,0.018,0.029c0.061,0.104,0.123,0.208,0.184,0.313
					c0.007,0.012,0.014,0.025,0.02,0.038c0.011,0.024,0.008,0.038-0.013,0.052c-0.125,0.081-0.231,0.19-0.368,0.254
					c-0.031,0.015-0.059,0.034-0.095,0.038c-0.019,0.002-0.038,0.012-0.056,0.021c-0.188,0.088-0.363,0.069-0.53-0.055
					c-0.086-0.064-0.158-0.139-0.212-0.232C69.668,116.201,69.597,116.082,69.526,115.964
					C69.527,115.963,69.526,115.963,69.526,115.964z"/>
			</g>
			<g>
				<path fill="#FFFFFF" d="M66.037,118.013c-0.075-0.126-0.149-0.253-0.224-0.379c-0.012-0.02-0.023-0.04-0.036-0.059
					c-0.015-0.022-0.036-0.027-0.06-0.015c-0.023,0.011-0.045,0.025-0.068,0.038c-0.04,0.023-0.079,0.048-0.12,0.069
					c-0.039,0.02-0.057,0.015-0.079-0.021c-0.062-0.104-0.124-0.208-0.184-0.312c-0.025-0.044-0.022-0.054,0.024-0.082
					c0.054-0.033,0.109-0.064,0.163-0.097c0.048-0.029,0.051-0.04,0.024-0.09c-0.021-0.038-0.043-0.075-0.065-0.112
					c-0.057-0.097-0.114-0.193-0.171-0.29c-0.012-0.02-0.022-0.04-0.032-0.061c-0.006-0.014-0.003-0.028,0.011-0.038
					c0.007-0.005,0.014-0.01,0.022-0.014c0.149-0.088,0.297-0.176,0.446-0.263c0.039-0.023,0.054-0.019,0.079,0.017
					c0.012,0.016,0.021,0.034,0.031,0.052c0.067,0.114,0.134,0.228,0.202,0.342c0.01,0.017,0.02,0.035,0.031,0.052
					c0.026,0.039,0.037,0.043,0.077,0.019c0.087-0.05,0.174-0.102,0.261-0.153c0.101-0.06,0.092-0.051,0.143,0.034
					c0.053,0.089,0.106,0.178,0.158,0.268c0.026,0.045,0.024,0.055-0.017,0.086c-0.018,0.014-0.038,0.026-0.058,0.037
					c-0.069,0.041-0.139,0.082-0.208,0.123c-0.017,0.01-0.035,0.021-0.051,0.033c-0.016,0.012-0.018,0.029-0.012,0.046
					c0.006,0.016,0.016,0.031,0.024,0.046c0.111,0.188,0.223,0.376,0.333,0.565c0.035,0.061,0.079,0.113,0.132,0.158
					c0.051,0.044,0.106,0.058,0.174,0.039c0.091-0.025,0.171-0.066,0.243-0.125c0.009-0.007,0.019-0.014,0.029-0.019
					c0.014-0.006,0.029-0.004,0.039,0.008c0.009,0.011,0.017,0.023,0.025,0.035c0.062,0.104,0.123,0.208,0.184,0.312
					c0.006,0.01,0.012,0.02,0.016,0.03c0.012,0.027,0.008,0.042-0.015,0.06c-0.016,0.012-0.034,0.022-0.05,0.034
					c-0.023,0.017-0.048,0.032-0.069,0.052c-0.081,0.08-0.184,0.128-0.28,0.184c-0.014,0.008-0.032,0.013-0.049,0.016
					c-0.026,0.005-0.049,0.015-0.073,0.026c-0.185,0.087-0.359,0.066-0.523-0.054c-0.084-0.062-0.156-0.135-0.209-0.226
					c-0.072-0.124-0.146-0.248-0.219-0.372C66.038,118.013,66.037,118.013,66.037,118.013z"/>
			</g>
		</g>
	</g>
</g>
<g id="border">
</g>
</svg>
