<?xml version="1.0" encoding="utf-8"?>
<!-- Generator: Adobe Illustrator 21.0.2, SVG Export Plug-In . SVG Version: 6.00 Build 0)  -->
<svg version="1.1" id="Layer_1" xmlns="http://www.w3.org/2000/svg" xmlns:xlink="http://www.w3.org/1999/xlink" x="0px" y="0px"
	 viewBox="0 0 110.8407 128.0172" style="enable-background:new 0 0 110.8407 128.0172;" xml:space="preserve">
<style type="text/css">
	.st0{fill:#8076FF;}
	.st1{fill:#FFF099;}
	.st2{fill:#EFB275;}
	.st3{fill:#FFD98D;}
	.st4{fill:#DDDDDD;}
	.st5{fill:#C1B6B4;}
	.st6{fill:#83CAFF;}
	.st7{fill:#604F4A;}
	.st8{fill:#FFFFFF;}
	.st9{fill:#0884FF;}
	.st10{opacity:0.13;enable-background:new    ;}
</style>
<g id="Layer_63_1_">
	<polygon class="st0" points="110.9191,32.0255 110.9191,96.0255 55.4992,128.0255 11.1492,102.4255 10.9492,102.3055 
		0.0692,96.0255 0.0692,32.0255 55.4992,0.0255 	"/>
</g>
<path class="st1" d="M102.0121,37.645v53.14l-0.01,0.01l-1.09,0.62l-0.33,0.19l-0.13,0.07l-0.88,0.51l-3.14,1.81l-0.2,0.12
	l-1.93,1.11l-0.16,0.09l-1.48,0.86l-0.47,0.27l-0.14,0.08l-0.47,0.27l-0.2401,0.13l-0.03,0.01l-0.1,0.04l-0.11,0.07l-2.46,1.41
	l-0.57,0.33l-0.82,0.47l-1.05,0.6l-0.04,0.03l-1.23,0.71l-0.45,0.26l-0.02,0.02h-0.0099l-0.47,0.27l-1.07,0.6201l-0.87,0.52
	l-0.16,0.09l-1.1,0.63l-0.05,0.03l-0.07,0.04l-0.08,0.05l-0.41,0.24l-0.03,0.01l-0.05,0.03l-0.05,0.02l-0.06,0.04v0.01l-0.29,0.17
	l-0.49,0.28l-0.1801,0.09l-0.02,0.02l-0.04,0.02l-1.0099,0.58l-0.14,0.08l-0.15,0.09l-0.05,0.03l-0.32,0.1801l-0.24,0.14h-0.01
	l-0.07,0.04l-0.64,0.38l-0.2,0.12l-0.33,0.19l-0.25,0.14c0,0.01-0.01,0.01-0.01,0.01l-0.47,0.27l-0.42,0.24l-0.04,0.03l-0.57,0.33
	l-0.12,0.07l-2.21,1.27l-0.6299,0.36l-0.0601,0.03l-1.45,0.84l-2.05,1.19l-0.02,0.01l-0.01,0.01l-0.4,0.23l-0.35,0.2l-0.5,0.29
	l-0.14,0.08l-1.25,0.72l-0.98,0.57l-0.39,0.22l-0.01,0.01l-0.43,0.25l-0.4,0.23l-2.36,1.36l-0.36,0.21l-0.04,0.02l-0.18,0.1
	l-0.5,0.29l-1.87,1.08l-0.5601,0.32h-0.0099l-0.32,0.19l-0.48,0.28l-0.14-0.08l-1.28-0.74l-0.85-0.4901l-0.03-0.0099l-0.91-0.53
	l-0.17-0.1l-0.05-0.03l-0.18-0.1l-0.43-0.25l-0.17-0.1l-3.36-1.94l-0.04-0.03l-2.07-1.19l-4.75-2.76l-0.61-0.35l-0.69-0.39
	l-0.93-0.54l-0.22-0.12l-0.09-0.06l-0.03-0.02l-2.23-1.29l-1.22-0.71l-0.37-0.21l-0.39-0.22l-0.08-0.05l-0.15-0.08l-0.2599-0.15
	l-0.2401-0.15l-0.09-0.05l-0.35-0.2l-0.08-0.05l-0.08-0.04l-0.04-0.03l-1.3-0.74l-0.05-0.03l-0.15-0.08l-0.37-0.22l-1.71-0.99
	l-2.51-1.46l-2.09-1.2l-0.82-0.47l-0.09-0.05l-0.5-0.29l-0.01-0.01l-0.21-0.12h-0.01l-1.04-0.6c-0.0099-0.01-0.0099-0.01-0.02-0.01
	l-1.86-1.08l-1.02-0.59l-1.33-0.77l-0.72-0.43l-0.04-0.02l-0.02-0.01l-0.29-0.17c0,0-0.01,0-0.02-0.01l-0.26-0.15l-0.02-0.0099
	l-3.3-1.9l-2.58-1.49l-0.83-0.48l-0.09-0.05l-0.08-0.04l-0.03-0.02v-53.14l5.66-3.2599l0.77-0.46h0.01l0.25-0.14l0.58-0.33
	l1.75-1.0099l2.27-1.31l0.82-0.48l0.15-0.09l2.07-1.19l0.98-0.57l1.01-0.59l0.42-0.24l0.45-0.26l0.25-0.14
	c0.0099,0,0.0099,0,0.0099,0l0.57-0.33l3.23-1.86l1.58-0.92l0.17-0.09l1.66-0.95l0.78-0.45l0.38-0.22l0.4399-0.26l1.1-0.65l0.52-0.3
	l2.28-1.3l0.69-0.41l1.38-0.79l0.02-0.01h0.0099l0.05-0.03l5.72-3.3l0.19-0.11l0.27-0.16l2.86-1.65l3.21-1.86l1.44-0.83l1.06,0.62
	l6.49,3.75l2.6,1.5l3.95,2.28l1.34,0.77l6.64,3.83l1.04,0.61l2.3,1.3101l0.87,0.5l1.52,0.8799l1.37,0.79l0.8,0.46l0.09,0.06
	l1.81,1.04l3.78,2.18l0.04,0.03v0.01l0.26,0.14l0.26,0.16l0.4,0.23l0.92,0.53l0.54,0.31l0.02,0.01l1.92,1.11l0.78,0.44l0.44,0.25
	l1.94,1.1201L102.0121,37.645z"/>
<path class="st2" d="M58.7221,19.045v36.33h-48.71v-17.73l5.66-3.2599l0.77-0.46h0.01l0.25-0.14l0.58-0.33l1.75-1.0099l2.27-1.31
	l0.82-0.48l0.15-0.09l2.07-1.19l0.98-0.57l1.01-0.59l0.42-0.24l0.45-0.26l0.25-0.14c0.0099,0,0.0099,0,0.0099,0l0.57-0.33l3.23-1.86
	l1.58-0.92l0.17-0.09l1.66-0.95l0.78-0.45l0.38-0.22l0.4399-0.26l1.1-0.65l0.52-0.3l2.28-1.3l0.69-0.41l1.38-0.79H58.7221z"/>
<path class="st3" d="M37.8021,79.625c0,2.41-0.99,4.59-2.57,6.18c-1.59,1.59-3.78,2.57-6.18,2.57h-18.01l-0.83-0.48l-0.09-0.05
	l-0.08-0.04l-0.03-0.02v-16.91h19.04C33.8621,70.875,37.8021,74.815,37.8021,79.625z"/>
<g>
	<path class="st4" d="M87.6454,53.6206c-0.0923-1.7254-2.5151-1.6241-2.6772,0.0079c-0.0168-0.2766-0.0293-0.5568-0.047-0.8325
		c-0.1065-1.6546-2.4302-1.5265-2.5331,0.078c-0.5045,7.8741-0.6238,16.074-0.3582,24.1022
		c-0.7236-0.0651-1.455,0.2926-1.8157,0.9676c-0.1914,0.3581-0.2626,0.7773-0.2187,1.1789
		c-7.6645-0.4552-15.4377-0.1271-23.0999-0.1279c-8.3775-0.0009-16.9541-0.5199-25.303,0.1604
		c-0.1799,0.0147-0.328,0.0652-0.4673,0.1235c-0.2099-0.3116-0.4278-0.6183-0.6599-0.9162
		c-0.5598-1.661-1.2164-3.2525-2.0027-4.8089c0.1271-1.1196,0.1688-2.2236,0.1551-3.3243c0.4186-0.2162,0.7277-0.624,0.7074-1.2277
		c-0.2463-7.3093,0.3097-14.7091,0.1126-22.0373c0.8439-0.1721,1.552-0.6302,2.3842-0.9684
		c1.1171-0.454,2.3525-0.6018,3.5226-0.8629c0.2223-0.0496,0.3921-0.1519,0.5352-0.2748c4.4069,0.5247,8.968,0.2114,13.3921,0.2073
		c5.2471-0.0048,10.5817,0.2277,15.8114-0.1962c1.5912-0.129,1.4585-2.3059-0.0748-2.4296
		c-0.4472-0.0361-0.896-0.0609-1.3445-0.0874c-0.0065-0.0731,0.0017-0.1474-0.0205-0.2181
		c-0.1641-0.5235-0.6187-0.8421-0.976-1.2351c-0.4835-0.5318-1.2046-0.3615-1.6306,0.0848
		c-11.5829-0.0432-23.2595-0.5775-34.8271-0.1024c-0.67,0.0275-1.0938,0.3761-1.2946,0.8265
		c-0.475,0.1164-0.8934,0.5065-0.9482,1.1567c-0.6702,7.9447-0.7539,16.7229-0.1492,24.7847
		c-0.3152,0.2537-0.5467,0.6255-0.5782,1.0959c-0.2193,3.265-1.3063,9.6753,1.1144,12.4343
		c-0.3777,1.4625,0.3716,2.9708,1.5354,4.1067c0.0438,0.1463,0.0802,0.2928,0.1255,0.4392c0.2479,0.8011,1.103,1.0789,1.8098,0.9151
		c0.3648,0.1723,0.7333,0.309,1.0939,0.3939c0.4284,0.1008,0.8651-0.0185,1.2001-0.2733c0.7092,0.1201,1.4352-0.4695,1.615-1.1732
		c0.19,0.106,0.3984,0.1864,0.6419,0.1985c2.7047,0.1337,5.4117,0.2428,8.119,0.3136c0.2842,0.0372,0.562,0.0919,0.8486,0.1229
		c0.5509,0.0595,1.0627-0.2174,1.4018-0.617c1.2837,0.7921,2.9672,0.6786,4.5671,0.6022c0.7415-0.0354,1.4796-0.026,2.2158,0.0005
		c0.1268,0.6592,0.8641,1.2283,1.6225,0.775c0.1648-0.0985,0.3451-0.1766,0.5321-0.2458c-2.0366,2.1187-3.9581,4.3277-5.7611,6.6497
		c-0.9761,0.6619-1.9664,0.3414-2.7571,1.2215c-0.8043,0.8953-0.1562,2.5038,1.1089,2.4197
		c3.5154-0.2338,7.033-0.4851,10.5567-0.5431c2.6733-0.044,6.3295-0.3259,9.2951,0.3148c0.1358,0.1564,0.2727,0.3133,0.404,0.4677
		c0.4868,0.5718,1.1367,0.5483,1.6449,0.2253c0.1803,0.0844,0.3769,0.1507,0.5451,0.2481c1.2255,0.7097,2.8135-0.9098,1.92-2.0866
		c-2.6993-3.555-5.2853-6.238-8.6212-9.2266c0.3042-0.1539,0.6084-0.3077,0.9126-0.4617c0.1904,0.1131,0.4014,0.1997,0.6531,0.2112
		c3.6924,0.1688,7.4259,0.4941,11.1197,0.2802c0.5873-0.034,0.9425-0.3702,1.0927-0.785c0.0248,0.0036,0.0497,0.007,0.0745,0.0108
		c1.0414,0.1566,2.1758,0.4763,3.2274,0.3801c0.3497-0.032,0.6295-0.2067,0.8346-0.4403c1.9089,0.1581,3.7736,0.3148,5.5188,0.3894
		c0.7043,0.0302,1.1046-0.3927,1.2245-0.9145c0.1855-0.1107,0.36-0.2371,0.5075-0.3791c0.1488-0.1432,0.2772-0.3101,0.395-0.4843
		c0.4484,0.1476,1.0033,0.0789,1.2826-0.3148c0.1475-0.208,0.2652-0.4282,0.3403-0.6541c0.2011-0.2084,0.3427-0.4969,0.3743-0.8626
		C88.3844,73.0485,88.1467,62.9991,87.6454,53.6206z"/>
	<path class="st5" d="M86.2865,83.7775H25.1459c-0.8233,0-1.497,0.6737-1.497,1.497v0.0501
		c1.2791,0.4293,2.5781,0.8732,3.5406,1.8458c0.0994,0.1004,0.1807,0.2046,0.2516,0.3102h57.3731
		c0.4145-0.2414,0.8499-0.4381,1.2822-0.6478c0.2488-0.1207,0.4846-0.2552,0.721-0.3981c0.0211-0.0127,0.0328-0.0189,0.0475-0.027
		c0.0028-0.0077,0.0066-0.0165,0.0172-0.032c0.0725-0.1062,0.1951-0.2078,0.276-0.3084c0.1713-0.2128,0.3879-0.355,0.6254-0.4419
		v-0.351C87.7835,84.4512,87.1099,83.7775,86.2865,83.7775z"/>
	<path class="st5" d="M67.0971,93.5507H44.1694c-1.8248,0-1.7309,2.8284,0.087,2.8284h22.9277
		C69.0089,96.3791,68.915,93.5507,67.0971,93.5507z"/>
	<path class="st6" d="M81.9515,53.0003c-0.103-0.3619-0.3204-0.6155-0.5886-0.7692c0.0576-0.6289-0.2499-1.2832-1.042-1.4712
		c-1.8945-0.4497-3.7591-0.9149-5.5394-1.721c-1.4289-0.647-2.7742-1.3547-4.32-1.6852c-0.294-0.0628-0.5533-0.0343-0.7795,0.0488
		c-0.4181-0.3526-0.8258-0.7303-1.2209-1.1397c-0.535-0.5543-1.1669-0.4202-1.5718-0.0046
		c-11.1899-0.7569-23.0897-0.6457-34.2645,0.0673c-0.4827,0.0308-0.8204,0.239-1.0291,0.5248
		c-0.5782-0.0074-1.1771,0.3904-1.2504,1.1664c-0.1129,1.1954-0.1759,2.3975-0.2117,3.6026
		c-0.1867,0.9946-0.2039,2.0084-0.0389,3.1903c0.0059,2.1717,0.0582,4.3452,0.0569,6.5023
		c-0.0017,2.9839-0.1845,6.0357-0.1228,9.0522c-0.1112,0.206-0.1693,0.4584-0.1335,0.7705c0.0512,0.446,0.1314,0.8656,0.2209,1.2779
		c0.0265,0.4,0.0617,0.7984,0.1018,1.196c0.0016,0.242,0.0164,0.4825,0.0254,0.7237c-0.0387,0.133-0.0789,0.267-0.1141,0.3975
		c-0.1028,0.3814,0.0072,0.717,0.2229,0.9682c0.0209,0.1725,0.0306,0.3461,0.0585,0.5179c0.0048,0.0609,0.0061,0.1233,0.0175,0.1811
		l0.1193,0.6056c0.0915,0.4645,0.3412,0.7498,0.6541,0.8907c0.1931,0.2457,0.4623,0.4296,0.7943,0.5354
		c0.3688,0.1176,0.7376,0.2352,1.1064,0.3528c0.4633,0.1477,0.8655,0.0287,1.1653-0.2255c0.9297,0.2564,1.8671,0.4034,2.8401,0.3565
		c-0.0002-0.0082-0.0005-0.0163-0.0007-0.0245c0.0585-0.004,0.1079-0.0212,0.1623-0.0312c2.6426,0.5268,5.779,0.1217,8.7076-0.46
		c0.7435,0.1317,1.4427,0.2442,2.0625,0.3011c3.0567,0.2806,6.1258,0.3008,9.1931,0.2548
		c7.2483-0.1087,14.497-0.3166,21.7449-0.4655c0.5422-0.0111,1.0254-0.4071,1.2447-0.8995c0.6436,0.2826,1.461,0.1089,1.5513-0.765
		c0.7127-6.8976,0.7474-14.4478,0.3585-21.4717C82.7119,54.7498,82.7302,53.5822,81.9515,53.0003z"/>
	<g>
		<g>
			<path class="st7" d="M81.1676,51.2805v23.3852c0,2.0193-1.6426,3.6619-3.6619,3.6619H34.0306
				c-2.0193,0-3.6619-1.6426-3.6619-3.6619V50.0081c0-2.0193,1.6426-3.6619,3.6619-3.6619h36.7526
				c-1.1432-0.4506-2.2323-1.0035-3.1649-1.8896c0,0-0.0008-0.0009-0.0012-0.0014H34.0306c-3.0617,0-5.5528,2.4911-5.5528,5.5528
				v24.6576c0,3.0617,2.4911,5.5528,5.5528,5.5528h43.4752c3.0617,0,5.5528-2.4911,5.5528-5.5528V51.9458
				C82.4121,51.7868,81.783,51.5594,81.1676,51.2805z"/>
		</g>
	</g>
</g>
<path class="st6" d="M81.5777,49.5993c-0.1686-0.9325-0.7786-1.6433-1.5746-2.1199c-0.0589-0.1637-0.1282-0.3211-0.2271-0.4589
	c-0.7675-1.0694-1.5512-1.1115-2.7741-1.0547c-3.1684,0.1472-5.8633-1.666-9.0755-0.7038
	c-2.0474,0.6133-1.0687,3.7863,0.9806,3.1724c1.7807-0.5334,3.4013,0.2045,5.1276,0.5882c0.0455,0.0101,0.0876,0.0129,0.1327,0.0222
	c-0.0102,0.0431-0.0295,0.0791-0.0379,0.1235c-0.3957,2.0709,2.7447,2.8312,3.2122,0.8291
	c0.0787,0.5855,0.1112,1.2115,0.4679,1.6562c0.4239,0.5285,1.1017,0.8946,1.8062,0.8528
	C81.0663,52.4205,81.8128,50.8996,81.5777,49.5993z"/>
<path class="st4" d="M88.9199,50.2796c-1.3793-4.31,0.0221-8.4143-5.7551-9.2313c-2.1222-0.3001-4.2353-0.278-6.3457-0.1493
	c-4.0924-0.1821-8.2417-0.0344-12.2814-0.3063c-1.8614-0.1252-2.1905,3.0292-0.3261,3.277
	c0.1845,0.0245,0.3757,0.0467,0.5723,0.0672c0.2654,0.452,0.728,0.7948,1.3828,0.8308c2.3322,0.1282,4.5743-0.1003,6.807-0.2975
	c5.1247,0.5389,9.9517,2.0526,9.8454,7.5801c-0.0207,1.078,0.9877,1.6404,1.8952,1.5609c0.3896,2.0543,3.5194,1.0562,3.1637-1.0121
	c-0.0176-0.1025-0.0377-0.2018-0.0565-0.3027C88.6037,52.0487,89.2253,51.2987,88.9199,50.2796z"/>
<path class="st8" d="M83.2919,40.0534H25.4624c-2.7558,0-2.614,2.8284,0.1314,2.8284h57.8295
	C86.1791,42.8818,86.0373,40.0534,83.2919,40.0534z"/>
<path class="st8" d="M64.1829,59.2953c-0.9677-0.1592-1.9996,0.0188-2.971,0.0417c-1.0673,0.0251-1.44,0.2706-1.6837-0.4654
	c-0.1855-0.5604,0.2874-1.8054,0.3296-2.4779c0.0732-1.1683-0.0241-2.058-0.2943-3.1886c-0.3296-1.3789-2.4666-1.5615-3.0545-0.2847
	c-0.3578,0.7769-0.5329,1.4086-0.7632,2.2117c-0.3941,1.3742-1.1378,2.3659-1.7297,3.6056
	c-0.6345,1.3291-0.4068,3.1634-2.3257,2.9859c-0.5417-0.0501-1.2025,0.4025-1.4172,0.885c-0.4911,1.103-0.1415,2.3591-0.1712,3.527
	c-0.0308,1.2105-0.3565,2.1715,0.3962,3.2077c0.4769,0.6565,1.1234,0.8339,1.8895,0.6917c0.1019-0.0189,0.1925-0.0427,0.291-0.0634
	c0.3882,0.0878,0.8259,0.1753,1.266,0.2512c0.0281,0.0532,0.0442,0.1124,0.0799,0.1612c1.5153,2.0713,6.5844,1.6556,8.7372,1.3347
	c2.7738-0.4134,3.4036-2.7025,3.6912-5.1839C66.7782,63.7276,67.8384,59.8967,64.1829,59.2953z"/>
<path class="st9" d="M47.8645,59.5082c-0.8865-0.0277-2.306,0.5825-2.7717,1.3324c-0.6009,0.9677-0.3733,2.3246-0.3908,3.4103
	c-0.0223,1.3825-0.1493,3.3079,0.2268,4.923c-0.1176,0.3386-0.1418,0.7053-0.0555,1.0414c0.071,0.752,0.6546,1.4616,1.646,1.557
	c0.0355,0.0034,0.0717,0.0027,0.1073,0.0053c0.2955,0.1679,0.6284,0.2994,1.0173,0.3742c1.2313,0.2365,1.9949-0.7793,1.9958-1.7409
	c0.0019-0.0036,0.0045-0.0062,0.0064-0.0099c0.5972-1.1726-0.0698-2.6881-0.0335-3.9502
	C49.6653,64.6085,51.0732,59.6085,47.8645,59.5082z"/>
<path class="st2" d="M82.9717,101.7491l-1.07,0.6201l-0.87,0.52l-0.16,0.09l-1.1,0.63l-0.05,0.03l-0.07,0.04l-0.08,0.05l-0.41,0.24
	l-0.03,0.01l-0.05,0.03l-0.05,0.02l-0.06,0.04v0.01l-0.29,0.17h-19.45c-0.66,0-1.19-0.53-1.19-1.19v-0.12
	c0-0.66,0.53-1.19,1.19-1.19H82.9717z"/>
<path class="st2" d="M73.995,106.9541l-2.21,1.27l-0.6299,0.36l-0.0601,0.03l-1.45,0.84h-18c-0.66,0-1.19-0.53-1.19-1.18v-0.13
	c0-0.65,0.53-1.19,1.19-1.19H73.995z"/>
<rect x="94.3854" y="43.6042" transform="matrix(0.7071 0.7071 -0.7071 0.7071 59.9776 -54.5905)" class="st2" width="3" height="3"/>
<rect x="94.3854" y="53.3125" transform="matrix(0.7071 0.7071 -0.7071 0.7071 66.8425 -51.747)" class="st3" width="3" height="3"/>
<rect x="94.3854" y="63.0208" transform="matrix(0.7071 0.7071 -0.7071 0.7071 73.7073 -48.9035)" class="st2" width="3" height="3"/>
<rect x="94.3854" y="72.7292" transform="matrix(0.7071 0.7071 -0.7071 0.7071 80.5721 -46.06)" class="st3" width="3" height="3"/>
<rect x="94.3854" y="82.4375" transform="matrix(0.7071 0.7071 -0.7071 0.7071 87.437 -43.2165)" class="st2" width="3" height="3"/>
<rect x="47.3854" y="25.2083" class="st1" width="22.6667" height="3.4167"/>
<rect x="63.1771" y="26.5417" class="st2" width="3.5" height="14.5833"/>
<rect x="69.9688" y="26.5417" class="st2" width="2.5833" height="14.5833"/>
<g>
	<g>
		<path class="st7" d="M24.1447,52.9015v26.9698c0,2.6278,2.1384,5.7114,4.7661,5.7114h23.5694l-8.6081,9.8713
			c-0.1339,0.169-0.0942,0.4497-0.0286,0.5845l23.8492-0.0776c0.0692-0.1403,0.0979-0.4358-0.0314-0.5872l-9.1565-9.791h24.1207
			c2.6277,0,4.7661-3.0837,4.7661-5.7114V45.9229c0-2.6278-2.1384-4.7657-4.7661-4.7657H46.8988
			c0.6916-0.6684,1.2809-1.4374,1.6871-2.322c0.0768-0.1673,0.1277-0.3404,0.1657-0.5144h33.8739
			c4.1918,0,7.6026,3.4103,7.6026,7.6021v33.9484c0,4.1918-3.4107,8.5479-7.6026,8.5479H64.6523l5.1678,5.1144
			c0.819,0.9602,1.0009,2.4071,0.4533,3.6c-0.469,1.0221-1.4053,1.6601-2.4422,1.6638L43.7217,98.875h-0.0083
			c-1.0304,0-1.9362-0.5992-2.4228-1.6047c-0.5632-1.1625-0.4173-2.6019,0.3619-3.5815l4.9462-5.2695H28.9108
			c-4.1918,0-7.6026-4.356-7.6026-8.5479V52.8147C22.2514,53.0076,23.1794,53.0881,24.1447,52.9015z"/>
	</g>
</g>
<g>
	<g>
		<path class="st7" d="M30.3688,51.2805v23.3852c0,2.0193,1.6426,3.6619,3.6619,3.6619h43.4752
			c2.0193,0,3.6619-1.6426,3.6619-3.6619V50.0081c0-2.0193-1.6426-3.6619-3.6619-3.6619H40.7532
			c1.1432-0.4506,2.2323-1.0035,3.1649-1.8896c0,0,0.0008-0.0009,0.0012-0.0014h33.5865c3.0617,0,5.5528,2.4911,5.5528,5.5528
			v24.6576c0,3.0617-2.4911,5.5528-5.5528,5.5528H34.0306c-3.0617,0-5.5528-2.4911-5.5528-5.5528V51.9458
			C29.1243,51.7868,29.7534,51.5594,30.3688,51.2805z"/>
	</g>
</g>
<g>
	<g>
		<path class="st7" d="M87.3917,52.9015v26.9698c0,2.6278-2.1384,5.7114-4.7661,5.7114H59.0561l8.6081,9.8713
			c0.1339,0.169,0.0942,0.4497,0.0286,0.5845L43.8436,95.961c-0.0692-0.1403-0.0979-0.4358,0.0314-0.5872l9.1565-9.791H28.9108
			c-2.6278,0-4.7661-3.0837-4.7661-5.7114V45.9229c0-2.6278,2.1384-4.7657,4.7661-4.7657h35.7267
			c-0.6916-0.6684-1.2809-1.4374-1.6871-2.322c-0.0768-0.1673-0.1277-0.3404-0.1657-0.5144H28.9108
			c-4.1918,0-7.6026,3.4103-7.6026,7.6021v33.9484c0,4.1918,3.4107,8.5479,7.6026,8.5479h17.9732l-5.1678,5.1144
			c-0.819,0.9602-1.0009,2.4071-0.4534,3.6c0.469,1.0221,1.4053,1.6601,2.4422,1.6638l24.1096,0.0776h0.0083
			c1.0304,0,1.9362-0.5992,2.4228-1.6047c0.5632-1.1625,0.4173-2.6019-0.3619-3.5815l-4.9462-5.2695h17.6879
			c4.1918,0,7.6026-4.356,7.6026-8.5479V52.8147C89.285,53.0076,88.357,53.0881,87.3917,52.9015z"/>
	</g>
</g>
<g>
	<path class="st7" d="M58.1614,72.7029c-0.2299-0.0346-0.459-0.0774-0.69-0.1024c-0.9251-0.1002-1.8577-0.1783-2.7227-0.5535
		c-0.6822-0.296-1.3693-0.5882-1.9153-1.1312c-0.1077-0.1071-0.3427-0.1181-0.5191-0.1185
		c-0.8789-0.0023-1.7579,0.0139-2.6369,0.0231c-0.133,0.0014-0.266,0.0002-0.4199,0.0002c0-3.1572,0-6.3131,0-9.534
		c0.7419-0.0282,1.4829-0.059,2.2241-0.0824c0.1753-0.0055,0.3515,0.0218,0.5272,0.0207c0.4106-0.0026,0.3568,0.0641,0.4451-0.3653
		c0.2061-1.0018,0.4925-1.9792,1.0929-2.8147c0.3384-0.4709,0.7927-0.8583,1.1937-1.2844c0.0682-0.0725,0.1473-0.1413,0.194-0.2267
		c0.5864-1.0713,1.04-2.1801,0.9476-3.4394c-0.0104-0.1418,0.0099-0.2861-0.0033-0.4274c-0.0749-0.803,0.5098-1.3343,1.0904-1.4895
		c0.0633-0.0169,0.1236-0.0452,0.1853-0.0681c0.4027,0,0.8054,0,1.208,0c0.7067,0.2027,1.2968,0.5669,1.6972,1.2043
		c0.3016,0.4801,0.4228,1.0166,0.5134,1.5644c0.0396,0.2396,0.0697,0.4813,0.1219,0.7181c0.2011,0.9133-0.0073,1.7547-0.4136,2.572
		c-0.0817,0.1644-0.091,0.3675-0.1201,0.5549c-0.0667,0.4287-0.1251,0.8587-0.197,1.3581c0.2938-0.0364,0.5746-0.0436,0.8409-0.1095
		c0.6823-0.1688,1.3512-0.3965,2.0381-0.5403c1.0505-0.2199,2.0815-0.1252,3.0665,0.3341c0.5241,0.2444,0.8937,0.6174,1.1169,1.1635
		c0.3077,0.7527,0.3564,1.5046,0.1315,2.2819c-0.0203,0.0702-0.0129,0.1654,0.0187,0.2312
		c0.5331,1.1098,0.5247,2.2258,0.0594,3.3533c-0.0314,0.0761-0.0373,0.1771-0.0181,0.2578
		c0.3048,1.2822,0.0588,2.4233-0.8518,3.4005c-0.0427,0.0458-0.0849,0.1101-0.0909,0.1695
		c-0.0986,0.9763-0.6405,1.6679-1.4104,2.2156c-0.6138,0.4367-1.2722,0.7288-2.0492,0.7174c-0.4174-0.0061-0.836,0.048-1.2535,0.081
		c-0.0612,0.0048-0.1198,0.0431-0.1797,0.0659C60.3091,72.7029,59.2353,72.7029,58.1614,72.7029z M50.5357,69.476
		c0.1571,0,0.2826-0.0035,0.4077,0.0006c0.6612,0.0215,1.3236,0.0279,1.9829,0.0768c0.2325,0.0172,0.5411,0.0702,0.6706,0.2265
		c0.5299,0.6392,1.2545,0.948,1.9973,1.1452c0.8355,0.2218,1.7103,0.3631,2.5737,0.3972c1.3706,0.0543,2.7463,0.0067,4.1189-0.0318
		c0.4947-0.0139,1.0144,0.0023,1.4566-0.3015c0.2137-0.1469,0.4385-0.2822,0.6325-0.4522c0.4503-0.3947,0.7096-0.8717,0.5268-1.4921
		c-0.046-0.1561,0.0109-0.2211,0.1402-0.2936c0.1734-0.0973,0.3576-0.2008,0.4874-0.3461c0.5915-0.6621,0.6693-1.7409,0.1804-2.4813
		c-0.1032-0.1563-0.0836-0.237,0.0396-0.3557c0.2523-0.243,0.4204-0.5276,0.4708-0.891c0.1036-0.7479,0.0126-1.4322-0.5095-2.0214
		c-0.058-0.0655-0.0765-0.2242-0.0393-0.306c0.1748-0.3846,0.3444-0.7682,0.3014-1.2027c-0.044-0.4446-0.1011-0.9036-0.5465-1.1425
		c-0.5185-0.2781-1.0846-0.3825-1.6755-0.3616c-0.7733,0.0274-1.4972,0.2694-2.2246,0.4962
		c-0.5489,0.1712-1.1009,0.2379-1.6813,0.222c-0.6087-0.0167-0.9191-0.3828-1.1763-0.8312c-0.0872-0.1521-0.103-0.3753-0.0783-0.556
		c0.0735-0.5374,0.1922-1.0684,0.2755-1.6047c0.0495-0.3187,0.0264-0.6523,0.2873-0.9058c0.0559-0.0543,0.0792-0.147,0.1059-0.2259
		c0.3861-1.1419,0.1226-2.2182-0.394-3.2393c-0.2424-0.4792-0.7253-0.649-1.2647-0.5987c-0.4067,0.0379-0.4314,0.0548-0.4169,0.4511
		c0.0358,0.9803-0.0359,1.9411-0.4126,2.863c-0.3624,0.887-0.7183,1.7746-1.5067,2.3915c-0.5684,0.4448-0.9233,1.0419-1.1449,1.7097
		c-0.1946,0.5865-0.3345,1.1919-0.4833,1.7927c-0.1149,0.464-0.4731,0.8409-0.9498,0.8846
		c-0.4229,0.0388-0.8515,0.0164-1.2776,0.019c-0.289,0.0018-0.5779,0.0003-0.8738,0.0003
		C50.5357,64.857,50.5357,67.1516,50.5357,69.476z"/>
</g>
<g>
	<path class="st7" d="M50.3767,72.7408h-6.3458V58.9779h6.3458V72.7408z M45.4072,71.3645h3.5932V60.3543h-3.5932V71.3645z"/>
</g>
<g id="Layer_2_4_">
	<g id="Layer_16_4_">
		<path class="st10" d="M96.8825,34.6822l-0.53-0.3l-0.72-0.42l-0.77-0.45l-0.11-0.06l-0.49-0.28l-0.51-0.29l-0.9-0.52l-7.25-4.18
			l-1.71-0.98l-0.72-0.42l-0.45-0.26l-0.49-0.29l-0.05-0.02l-0.42-0.25l-0.41-0.24l-5.33-3.07l-19.5-11.24l-0.53-0.31l-0.47,0.27
			l-17.11,9.88l-5.02,2.9l-1.3,0.75l-0.53,0.31l-0.1,0.05c-0.01,0-0.01,0-0.01,0l-0.25,0.15l-0.42,0.25l-0.3,0.17l-0.27,0.16
			l-0.18,0.1l-1.5,0.87h-0.01l-1.78,1.02l-0.0099,0.01l-0.58,0.34l-0.76,0.43l-0.01,0.0099l-0.03,0.02l-3.25,1.87h-0.01l-2.38,1.37
			l-1,0.58l-2.98,1.72l-4.23,2.4399l-1.54,0.89v53.12l0.07,0.04l1.72,1l0.75,0.43l0.15,0.08l4.32,2.5l0.69,0.39l4,2.32l0.46,0.26
			l1.3,0.75l3.3799,1.95l5.38,3.1l0.69,0.4l0.07,0.04l0.15,0.08l0.11,0.07l0.18,0.1l0.04,0.02l1.91,1.11l0.88,0.5l1.33,0.78
			l0.89,0.5099l0.1801,0.1l0.31,0.18l0.19,0.11l0.48,0.28l3.57,2.05l0.09,0.05l0.44,0.26l0.62,0.36l0.72,0.42c0.01,0,0.01,0,0.01,0
			l0.53,0.3l1.51,0.87l3.17,1.84l4.48,2.58l1.03,0.6l0.23,0.13l0.02-0.0099l0.19-0.11l0.14-0.08l0.03-0.02l0.31-0.18l1.81-1.03
			l0.09-0.05l0.69-0.4l0.5-0.29l0.24-0.14l3.85-2.22l2.4499-1.41l0.74-0.43l0.66-0.38l0.67-0.39l0.44-0.26l2.33-1.34l0.39-0.22
			h0.0099l0.23-0.14l0.21-0.12l0.63-0.36l0.8-0.46l1.2599-0.73l0.46-0.27h0.01l0.46-0.27l0.0099-0.01l0.25-0.14l0.53-0.31l0.37-0.21
			l0.35-0.21l0.55-0.31l0.21-0.13l0.32-0.18l0.43-0.24l0.02-0.01l0.05-0.03l0.13-0.08l0.24-0.13l3.78-2.18l0.38-0.22l1.11-0.65
			l2.97-1.71l1.56-0.9l8.53-4.92h0.01l0.06-0.04l2.65-1.53l0.9-0.52l1.03-0.59v-53.12L96.8825,34.6822z M100.1825,89.7121l-0.52,0.3
			l-0.32,0.18l-0.58,0.34l-7.59,4.38l-4.67,2.69l-3.12,1.8l-1.28,0.7401l-0.72,0.41l-2.93,1.69l-0.07,0.05l-0.16,0.09l-0.18,0.11
			l-0.57,0.32l-0.89,0.51l-0.22,0.13l-0.05,0.03l-0.81,0.47l-0.09,0.05l-3.91,2.25l-0.08,0.05l-0.79,0.45l-0.08,0.05l-0.91,0.53
			l-2.15,1.24l-1.54,0.89l-1.68,0.97l-1.1,0.63l-2.97,1.72l-1.23,0.71l-0.06,0.04h-0.02l-0.75,0.44l-0.28,0.15l-1.8701,1.08
			l-3.45-1.9901l-1.23-0.71l-0.61-0.35l-1.81-1.05l-0.72-0.41l-0.69-0.4l-5.26-3.03l-0.77-0.45l-0.05-0.03l-1.79-1.03l-2.0601-1.18
			l-0.9-0.52l-0.58-0.34l-0.25-0.15l-0.43-0.25l-0.21-0.12l-1.75-1.01l-0.31-0.18l-0.19-0.11l-1.5-0.8701l-3.42-1.97l-3.91-2.26
			l-1.76-1.01l-3.42-1.97l-4.91-2.84l-0.9-0.51l-0.39-0.23l-0.23-0.13l-0.67-0.39v-50.97l3.91-2.26l2.98-1.72l0.93-0.54h0.01
			l0.06-0.04l3.2-1.85h0.01l1.36-0.79h0.01l1.79-1.03l1.25-0.72l0.43-0.25h0.01l0.76-0.44l0.46-0.27h0.01l2.98-1.72
			c0.0099-0.01,0.0099-0.01,0.02-0.01l0.78-0.45l0.35-0.2l0.2-0.12l0.29-0.17l0.17-0.1l0.27-0.15l0.04-0.02l8.03-4.64l13.39-7.73
			l0.47-0.27l0.53,0.31l16.83,9.71l6.98,4.03l0.05,0.03l0.32,0.18l0.11,0.06l0.44,0.26l0.35,0.2l1.23,0.71l1.94,1.12l7.02,4.04
			l1.41,0.81l0.55,0.32l0.04,0.03l0.77,0.44l0.19,0.11l0.54,0.31l0.53,0.31l4.36,2.51V89.7121z"/>
	</g>
</g>
</svg>
