<?xml version="1.0" encoding="utf-8"?>
<!-- Generator: Adobe Illustrator 21.0.2, SVG Export Plug-In . SVG Version: 6.00 Build 0)  -->
<svg version="1.1" id="Layer_1" xmlns="http://www.w3.org/2000/svg" xmlns:xlink="http://www.w3.org/1999/xlink" x="0px" y="0px"
	 viewBox="0 0 110.875 128.0417" style="enable-background:new 0 0 110.875 128.0417;" xml:space="preserve">
<style type="text/css">
	.st0{fill:#005FD1;}
	.st1{fill:#FFFFFF;}
	.st2{fill:#15003E;}
	.st3{fill:#25E899;}
	.st4{fill:#EFF4EE;}
	.st5{fill:none;}
	.st6{fill:#0148B0;}
	.st7{fill:#FECE81;}
	.st8{fill:#0347AF;}
	.st9{fill:#0FCE7C;}
	.st10{fill:#F10107;}
	.st11{fill:#F1FFFF;}
	.st12{opacity:0.13;enable-background:new    ;}
</style>
<g id="Layer_63_27_">
	<polygon class="st0" points="111.0332,31.7417 111.0332,95.7417 55.6132,127.7417 11.2632,102.1417 11.0632,102.0217 
		0.1832,95.7417 0.1832,31.7417 55.6132,-0.2583 	"/>
</g>
<path class="st1" d="M102.1215,37.3617v53.14l-0.01,0.0099l-1.09,0.6201l-0.33,0.1899l-0.13,0.07l-0.88,0.51l-3.14,1.81l-0.2,0.12
	l-1.93,1.11l-0.16,0.09l-1.48,0.86l-0.47,0.27l-0.14,0.08l-0.47,0.27l-0.24,0.13l-0.03,0.01l-0.1,0.04l-0.11,0.0699l-3.03,1.7401
	l-0.82,0.47l-1.05,0.6l-0.04,0.03l-1.23,0.71l-0.45,0.2599l-0.02,0.02h-0.01l-1.54,0.89l-0.87,0.52l-1.26,0.72l-0.05,0.03
	l-0.07,0.04l-0.08,0.05l-0.41,0.24l-0.03,0.01l-0.05,0.03l-0.05,0.02l-0.06,0.04v0.01l-0.78,0.45l-0.18,0.09l-0.02,0.02l-0.04,0.02
	l-1.01,0.58l-0.14,0.08l-0.15,0.09l-0.05,0.03l-0.32,0.18l-0.24,0.14h-0.01l-0.07,0.04l-0.64,0.38l-0.2,0.12l-0.33,0.19l-0.25,0.14
	c0,0.01-0.01,0.01-0.01,0.01l-0.47,0.27l-0.42,0.24l-0.04,0.03l-0.57,0.33l-2.33,1.34l-0.63,0.36l-0.06,0.03l-3.5,2.03l-0.02,0.0099
	l-0.0099,0.01l-0.4,0.23l-0.35,0.2l-0.5,0.29l-0.14,0.08l-1.25,0.72l-0.98,0.57l-0.39,0.22l-0.01,0.01l-0.43,0.25l-0.4,0.23
	l-2.36,1.36l-0.36,0.21l-0.04,0.02l-0.18,0.1l-0.5,0.29l-1.87,1.08l-0.56,0.32h-0.01l-0.32,0.19l-0.48,0.28l-0.14-0.08l-1.28-0.74
	l-0.85-0.49l-0.03-0.01l-0.91-0.53l-0.17-0.1l-0.05-0.03l-0.61-0.35l-0.17-0.1l-3.36-1.94l-0.04-0.03l-2.07-1.19l-4.75-2.76
	l-0.61-0.35l-0.69-0.39l-0.93-0.54l-0.22-0.12l-0.09-0.06l-0.03-0.02l-2.23-1.29l-1.22-0.71l-0.37-0.21l-0.39-0.22l-0.23-0.13
	l-0.26-0.15l-0.24-0.15l-0.09-0.05l-0.35-0.2l-0.08-0.05l-0.08-0.04l-0.04-0.03l-1.3-0.74l-0.05-0.03l-0.15-0.08l-0.37-0.22
	l-1.71-0.99l-2.51-1.46l-2.09-1.2l-0.82-0.47l-0.09-0.05l-0.5-0.29l-0.01-0.01l-0.21-0.12h-0.0099l-1.04-0.6
	c-0.01-0.01-0.01-0.01-0.02-0.01l-1.86-1.08l-1.02-0.59l-1.33-0.77l-0.72-0.43l-0.04-0.02l-0.02-0.01l-0.29-0.17
	c0,0-0.01,0-0.02-0.01l-0.26-0.15l-0.02-0.01l-3.3-1.9l-3.41-1.97l-0.09-0.05l-0.08-0.04l-0.03-0.02v-53.14l5.66-3.26l0.77-0.46
	h0.01l0.25-0.14l0.58-0.33l1.75-1.01l2.27-1.31l0.82-0.48l0.15-0.09l2.07-1.19l0.98-0.57l1.01-0.59l0.42-0.24l0.45-0.26l0.25-0.14
	c0.01,0,0.01,0,0.01,0l0.57-0.33l3.23-1.86l1.58-0.92l0.17-0.09l1.66-0.95l0.78-0.45l0.38-0.22l0.44-0.26l1.1-0.65l0.52-0.3
	l2.28-1.3l0.69-0.41l1.4-0.8h0.01l0.05-0.03l5.72-3.3l0.19-0.11l0.27-0.16l6.07-3.51l1.44-0.83l1.06,0.62l6.4901,3.75l2.6,1.5
	l3.95,2.28l1.34,0.77l6.64,3.83l1.04,0.61l2.3,1.31l0.87,0.5l1.52,0.88l1.37,0.79l0.8,0.46l0.09,0.06l1.81,1.04l3.78,2.18l0.04,0.03
	v0.01l0.26,0.14l0.26,0.16l0.4,0.23l0.92,0.53l0.54,0.31l0.02,0.01l1.92,1.11l0.78,0.44l0.4399,0.25l1.94,1.12L102.1215,37.3617z"/>
<g>
	<path class="st2" d="M69.2168,114.8166l1.5654-0.8994l0.0713,0.1231c0.1651,0.2851,0.2754,0.5586,0.336,0.8144
		c0.0498,0.2412,0.0488,0.4951-0.0049,0.7617c-0.1241,0.5977-0.4571,1.0518-1,1.3653c-0.5303,0.3047-1.0938,0.375-1.6924,0.2099
		c-0.5996-0.167-1.0537-0.5205-1.3633-1.0586c-0.3164-0.5498-0.3926-1.1259-0.2285-1.7304s0.5205-1.0664,1.0723-1.3848
		c0.2959-0.1699,0.6074-0.2686,0.9335-0.2959c0.3135-0.0215,0.669,0.0361,1.0616,0.1699l-0.1836,0.626
		c-0.5488-0.2353-1.0469-0.2246-1.4922,0.0322c-0.4024,0.2305-0.6582,0.5616-0.7705,0.9961
		c-0.1153,0.4268-0.0547,0.8457,0.1806,1.2549c0.2422,0.4229,0.5928,0.6826,1.0528,0.7813c0.4297,0.0898,0.8086,0.04,1.1416-0.1504
		c0.2803-0.1612,0.4775-0.4004,0.5928-0.7188c0.1132-0.3203,0.1084-0.6191-0.0176-0.9023l-0.9463,0.5439L69.2168,114.8166z"/>
	
		<rect x="72.8088" y="110.4844" transform="matrix(0.8665 -0.4992 0.4992 0.8665 -46.4796 51.5529)" class="st2" width="0.6595" height="4.3716"/>
	<polygon class="st2" points="75.9062,109.2658 77.7764,112.5178 77.2061,112.8459 75.335,109.5959 74.4639,110.0969 
		74.1543,109.5598 76.4648,108.2297 76.7734,108.7668 	"/>
	<path class="st2" d="M81.0645,105.8518l0.3886,0.6767c-0.4902-0.0869-0.9121-0.0283-1.2646,0.1748
		c-0.3887,0.2247-0.6377,0.5538-0.7432,0.9854c-0.1084,0.4326-0.0459,0.8506,0.1856,1.2529
		c0.2275,0.3975,0.5566,0.6563,0.9814,0.7754c0.4258,0.1182,0.832,0.0655,1.2236-0.1582c0.1993-0.1162,0.3526-0.2471,0.4551-0.3935
		c0.0596-0.0782,0.1162-0.168,0.168-0.2725c0.0517-0.1045,0.1025-0.2227,0.1504-0.3555l0.3974,0.6905
		c-0.2197,0.375-0.5117,0.665-0.8711,0.873c-0.541,0.3115-1.1113,0.3867-1.7109,0.2305c-0.6016-0.1621-1.0566-0.5117-1.3672-1.0498
		c-0.2773-0.4824-0.3633-1.0049-0.2627-1.5664c0.124-0.6895,0.501-1.2129,1.124-1.5713
		C80.2588,105.9475,80.6406,105.8498,81.0645,105.8518"/>
	<path class="st1" d="M83.8359,105.6819c-0.3066-0.5332-0.374-1.1036-0.2041-1.71c0.17-0.6074,0.5274-1.0684,1.0733-1.3838
		c0.54-0.3096,1.1142-0.3828,1.7217-0.2197c0.6113,0.1641,1.0712,0.5156,1.3828,1.0566c0.3125,0.544,0.3857,1.1192,0.2138,1.7227
		c-0.1718,0.6055-0.5341,1.0683-1.0869,1.3857c-0.4892,0.2832-1.0263,0.3643-1.6103,0.251
		C84.6816,106.6575,84.1855,106.2893,83.8359,105.6819 M84.415,105.3567c0.2412,0.4179,0.5801,0.6816,1.0166,0.789
		c0.4346,0.1084,0.836,0.0576,1.2032-0.1533c0.3974-0.2285,0.6533-0.5586,0.7695-0.9902c0.1123-0.4356,0.0557-0.8526-0.1758-1.251
		c-0.2324-0.4043-0.5615-0.665-0.9883-0.7822c-0.4267-0.1211-0.8388-0.0674-1.2343,0.1611
		c-0.3946,0.2275-0.6475,0.5557-0.7608,0.9863C84.1299,104.5451,84.1865,104.9582,84.415,105.3567"/>
	
		<rect x="89.7913" y="100.7075" transform="matrix(0.8663 -0.4995 0.4995 0.8663 -39.3473 58.7718)" class="st2" width="0.6597" height="4.3706"/>
	<polygon class="st2" points="93.7168,103.345 91.3877,99.2981 95.8154,100.5989 94.2998,97.9651 94.8701,97.6369 97.1846,101.6575 
		92.7607,100.3635 94.2881,103.0158 	"/>
</g>
<g>
	<g id="Artwork_1_">
		<g>
			<polygon class="st2" points="20.1824,96.3363 23.9123,96.3363 34.0523,96.3363 34.5924,96.3363 43.3723,96.3363 45.3824,96.3363 
				48.7623,96.3363 60.5924,96.3363 64.3123,96.3363 66.4623,96.3363 75.1924,96.3363 76.6323,96.3363 88.3123,96.3363 
				92.0323,96.3363 93.9223,95.2464 90.2023,95.2464 76.6124,95.2464 76.0723,95.2464 76.0623,95.2464 75.7123,95.2464 
				75.5223,95.2464 75.1624,95.2464 74.6224,95.2464 67.0223,95.2464 66.4824,95.2464 65.9324,95.2464 65.4223,95.2464 
				64.8724,95.2464 64.3324,95.2464 61.7024,95.2464 61.1623,95.2464 60.6023,95.2464 48.7424,95.2464 48.2024,95.2464 
				47.6524,95.2464 45.3624,95.2464 44.8124,95.2464 44.2724,95.2464 43.8824,95.2464 43.3424,95.2464 42.7924,95.2464 
				35.1623,95.2464 34.6223,95.2464 34.6124,95.2464 34.0824,95.2464 34.0723,95.2464 34.0624,95.2464 22.0224,95.2464 
				18.3023,95.2464 			"/>
		</g>
		<g>
			<path class="st3" d="M43.1548,49.7791c-0.3503,0-0.6343-0.2841-0.6343-0.6343V33.3473c0-0.3503,0.2841-0.6343,0.6343-0.6343
				c0.3503,0,0.6343,0.2841,0.6343,0.6343v15.7975C43.7891,49.495,43.5051,49.7791,43.1548,49.7791z"/>
		</g>
		<g>
			<path class="st3" d="M46.8445,61.7157c-0.3503,0-0.6343-0.2841-0.6343-0.6343V38.0682c0-0.3503,0.2841-0.6343,0.6343-0.6343
				s0.6343,0.2841,0.6343,0.6343v23.0132C47.4789,61.4317,47.1948,61.7157,46.8445,61.7157z"/>
		</g>
		<g>
			<path class="st3" d="M32.4304,66.7348c-5.6143,0-10.1819-4.5676-10.1819-10.1819c0-5.6141,4.5676-10.1817,10.1819-10.1817
				c5.6141,0,10.1817,4.5676,10.1817,10.1817c0,0.3503-0.2841,0.6343-0.6343,0.6343s-0.6343-0.2841-0.6343-0.6343
				c0-4.9147-3.9984-8.9131-8.9131-8.9131c-4.9149,0-8.9133,3.9984-8.9133,8.9131c0,4.9149,3.9984,8.9133,8.9133,8.9133
				c0.3503,0,0.6343,0.2841,0.6343,0.6343C33.0647,66.4508,32.7807,66.7348,32.4304,66.7348z"/>
		</g>
		<g>
			<path class="st4" d="M39.3296,70.5654c0-4.932-3.9982-8.9302-8.9302-8.9302s-8.9302,3.9982-8.9302,8.9302H39.3296z"/>
			<path class="st3" d="M39.3297,71.1998c-0.3503,0-0.6343-0.2841-0.6343-0.6343c0-4.5743-3.7216-8.2959-8.2959-8.2959
				s-8.2957,3.7216-8.2957,8.2959c0,0.3503-0.2841,0.6343-0.6343,0.6343c-0.3503,0-0.6343-0.2841-0.6343-0.6343
				c0-5.274,4.2906-9.5646,9.5644-9.5646c5.274,0,9.5646,4.2906,9.5646,9.5646C39.964,70.9157,39.6799,71.1998,39.3297,71.1998z"/>
		</g>
		<g>
			<path class="st4" d="M21.4691,70.5654c-3.1938,0-5.7828,2.5891-5.7828,5.7828c0,3.1938,2.5891,5.7829,5.7828,5.7829
				s5.7829-2.5891,5.7829-5.7829l0,0L21.4691,70.5654z"/>
			<path class="st3" d="M21.4692,82.7654c-3.5384,0-6.4172-2.8788-6.4172-6.4172s2.8788-6.4172,6.4172-6.4172
				c0.3503,0,0.6343,0.2841,0.6343,0.6343s-0.2841,0.6343-0.6343,0.6343c-2.8389,0-5.1485,2.3096-5.1485,5.1485
				c0,2.8389,2.3096,5.1485,5.1485,5.1485s5.1485-2.3095,5.1485-5.1485c0-0.3503,0.2841-0.6343,0.6343-0.6343
				c0.3503,0,0.6343,0.2841,0.6343,0.6343C27.8863,79.8867,25.0076,82.7654,21.4692,82.7654z"/>
		</g>
		<g>
			<path class="st4" d="M77.8515,72.7792c-2.7387,4.6522-1.1875,10.6436,3.4646,13.3823
				c4.6522,2.7387,10.6436,1.1875,13.3823-3.4646s1.1875-10.6437-3.4646-13.3824c-1.5025-0.8845-3.2142-1.351-4.9577-1.3512
				c-0.3586,0-0.7169,0.0195-1.0734,0.0585L77.8515,72.7792z"/>
			<path class="st3" d="M86.2577,88.1449c-1.7938,0.0002-3.609-0.4628-5.2634-1.4366c-2.3961-1.4106-4.0995-3.6697-4.7963-6.3614
				c-0.6968-2.6917-0.3037-5.4934,1.1067-7.8894c0.1781-0.3019,0.5666-0.4025,0.8685-0.225
				c0.3019,0.1779,0.4027,0.5667,0.225,0.8685c-1.2388,2.1039-1.5839,4.5642-0.972,6.9278c0.612,2.3637,2.1078,4.3474,4.2117,5.586
				c2.1041,1.2389,4.5649,1.5839,6.9279,0.972c2.3637-0.612,4.3474-2.1078,5.586-4.2117c2.5568-4.3434,1.1034-9.9571-3.2398-12.514
				c-1.4039-0.8265-3.0071-1.2634-4.6359-1.2635c-0.3343,0-0.6724,0.0184-1.0046,0.0547c-0.3497,0.0365-0.6614-0.2134-0.6995-0.5618
				s0.2134-0.6614,0.5618-0.6995c0.3777-0.0412,0.7621-0.0621,1.1423-0.0621c1.855,0.0002,3.6807,0.4977,5.2795,1.4388
				c4.9462,2.9119,6.6012,9.3048,3.6897,14.2509C93.3072,86.3105,89.8267,88.1447,86.2577,88.1449z"/>
		</g>
		<g>
			<path class="st4" d="M73.1867,71.2781c0.5827,2.0105,3.0792,2.9582,5.3267,2.9582c3.4644,0,6.2729-2.8086,6.2729-6.273
				c0-3.3373-2.6131-6.0903-5.9459-6.2643c-0.2321-0.0126-0.4592-0.0721-0.6677-0.1749c-0.5232-0.2567-0.8853-0.7558-0.967-1.3329
				c-0.4917-3.4214-3.6638-5.7964-7.0852-5.3048c-3.0809,0.4427-5.3682,3.0821-5.3684,6.1946L73.1867,71.2781z"/>
			<path class="st3" d="M78.5135,74.8706c-2.4619,0-5.2522-1.0563-5.9359-3.4157c-0.0975-0.3366,0.0961-0.6883,0.4326-0.7858
				c0.3366-0.0973,0.6885,0.0961,0.7858,0.4326c0.4979,1.7179,2.7945,2.5004,4.7175,2.5004c3.1092,0,5.6386-2.5294,5.6386-5.6386
				c-0.0002-3.0011-2.3478-5.4745-5.3448-5.631c-0.3207-0.0173-0.6281-0.0979-0.915-0.2395
				c-0.7115-0.3488-1.2034-1.0269-1.3145-1.8127c-0.2135-1.4857-0.9935-2.8005-2.1961-3.7009
				c-1.2025-0.9005-2.6842-1.2793-4.1708-1.0648c-2.7503,0.395-4.8242,2.7881-4.8244,5.5665c0,0.3503-0.2841,0.6343-0.6343,0.6343
				l0,0c-0.3504,0-0.6343-0.2841-0.6343-0.6343c0.0002-3.4051,2.5421-6.338,5.9126-6.8225
				c1.8227-0.2618,3.6379,0.2018,5.1117,1.3051c1.474,1.1035,2.4299,2.7149,2.6919,4.5373
				c0.0524,0.3708,0.2834,0.6892,0.6182,0.8535c0.1336,0.0658,0.2754,0.103,0.4227,0.111c3.6699,0.1917,6.5458,3.2216,6.546,6.8979
				C85.4207,71.772,82.3221,74.8706,78.5135,74.8706z"/>
		</g>
		<g>
			<path class="st4" d="M43.5227,72.0836c-2.2449-2.1125-5.7772-2.0052-7.8897,0.2396c-2.1113,2.2436-2.0055,5.7735,0.2364,7.8866
				L43.5227,72.0836z"/>
			<path class="st3" d="M35.8691,80.8442c-0.1559,0-0.3124-0.0572-0.4349-0.1727c-2.4922-2.3488-2.6103-6.2888-0.2632-8.7828
				c1.1377-1.2092,2.6782-1.9028,4.3379-1.9533c1.6588-0.0499,3.2393,0.5485,4.4483,1.6864
				c0.2552,0.2402,0.2674,0.6416,0.0273,0.8966c-0.24,0.2552-0.6418,0.2673-0.8966,0.0273
				c-0.9621-0.9053-2.2159-1.3811-3.5405-1.3421c-1.3207,0.04-2.5469,0.5922-3.4524,1.5545c-1.868,1.985-1.774,5.1207,0.2094,6.9902
				c0.255,0.2404,0.2669,0.6418,0.0266,0.8966C36.2061,80.7773,36.0378,80.8442,35.8691,80.8442z"/>
		</g>
		<g>
			<path class="st5" d="M53.2529,69.6048V51.699"/>
			<path class="st3" d="M53.2528,70.2391c-0.3503,0-0.6343-0.2841-0.6343-0.6343V51.6989c0-0.3503,0.2841-0.6343,0.6343-0.6343
				c0.3503,0,0.6343,0.2841,0.6343,0.6343v17.9058C53.8872,69.955,53.6031,70.2391,53.2528,70.2391z"/>
		</g>
		<g>
			<path class="st5" d="M53.2529,89.9835v-9.7736"/>
			<path class="st3" d="M53.2528,90.6178c-0.3503,0-0.6343-0.2841-0.6343-0.6343v-9.7736c0-0.3503,0.2841-0.6343,0.6343-0.6343
				c0.3503,0,0.6343,0.2841,0.6343,0.6343v9.7736C53.8872,90.3337,53.6031,90.6178,53.2528,90.6178z"/>
		</g>
		<g>
			<path class="st5" d="M58.1927,36.6934v5.7533"/>
			<path class="st3" d="M58.1928,43.0811c-0.3503,0-0.6343-0.2841-0.6343-0.6343v-5.7534c0-0.3503,0.2841-0.6343,0.6343-0.6343
				s0.6343,0.2841,0.6343,0.6343v5.7534C58.8271,42.797,58.5431,43.0811,58.1928,43.0811z"/>
		</g>
		<g>
			<path class="st5" d="M50.044,26.9851v9.4277"/>
			<path class="st3" d="M50.044,37.0471c-0.3503,0-0.6343-0.2841-0.6343-0.6343V26.985c0-0.3503,0.2841-0.6343,0.6343-0.6343
				s0.6343,0.2841,0.6343,0.6343v9.4278C50.6783,36.763,50.3942,37.0471,50.044,37.0471z"/>
		</g>
		<g>
			<path class="st3" d="M64.7521,80.0663c-0.3503,0-0.6343-0.2841-0.6343-0.6343V29.1358c0-0.3503,0.2841-0.6343,0.6343-0.6343
				s0.6343,0.2841,0.6343,0.6343V79.432C65.3864,79.7822,65.1024,80.0663,64.7521,80.0663z"/>
		</g>
	</g>
	<g id="Hair_1_">
		<g>
			<path class="st6" d="M57.8662,43.7484c8.697-1.3018,18.4836,1.4987,23.4885,8.237c-4.7538,1.2918-7.4843,2.8472-10.1651,5.5249
				c6.5999,0,11.3694,3.3746,15.0865,8.59c-6.172-0.4788-11.3317,1.863-15.6359,3.9865c4.7386,0.6758,8.8178,3.4083,12.5081,7.3543
				c-5.1445,0.3595-10.1681,0.51-14.9596,4.6997L57.8662,43.7484z"/>
			<path class="st2" d="M68.1889,82.6845c-0.1513,0-0.3019-0.0628-0.4096-0.1858c-0.1975-0.226-0.1745-0.5696,0.0515-0.7673
				c4.5619-3.989,9.4097-4.4294,14.1157-4.7531c-3.6936-3.7074-7.4265-5.789-11.3832-6.3534l-1.7402-0.2481l1.5765-0.7777
				c4.3777-2.1596,9.1074-4.237,14.7534-4.1002c-3.869-5.0074-8.4467-7.4449-13.9635-7.4449H69.876l0.9294-0.9283
				c2.6835-2.6805,5.3464-4.1989,9.6219-5.4442c-4.7287-5.7589-13.6391-8.7186-22.4805-7.3954
				c-0.2963,0.0448-0.5738-0.1602-0.6182-0.4572s0.1602-0.5738,0.4572-0.6182c9.5437-1.4287,19.19,1.9674,24.0054,8.4504
				l0.4752,0.64l-0.769,0.2088c-4.0154,1.0913-6.5833,2.3593-8.9883,4.5011c5.6244,0.3846,10.2839,3.2653,14.2099,8.7738
				l0.6754,0.9476l-1.1604-0.0899c-5.2596-0.4088-9.7511,1.2634-13.8869,3.2214c3.8897,0.9545,7.5687,3.3246,11.1984,7.2058
				l0.78,0.8342l-1.8683,0.1296c-4.8768,0.332-9.4833,0.6455-13.9106,4.5168C68.4436,82.6403,68.316,82.6845,68.1889,82.6845z"/>
		</g>
		<g>
			<path class="st6" d="M59.0304,47.316c-8.9862-1.3018-19.0981,1.4987-24.2694,8.237c4.9119,1.2918,7.7331,2.8472,10.503,5.5249
				c-6.8193,0-11.7474,3.3746-15.5881,8.59c6.3772-0.4788,11.7085,1.863,16.1558,3.9865c-4.8961,0.6758-9.111,3.4083-12.924,7.3543
				c5.3155,0.3595,10.5062,0.5101,15.457,4.6998L59.0304,47.316z"/>
			<path class="st2" d="M48.3643,86.2521c-0.1241,0-0.2487-0.0423-0.351-0.1287c-4.5802-3.8761-9.3448-4.1901-14.3892-4.5223
				l-1.9204-0.129l0.8129-0.8414c3.7476-3.8782,7.5441-6.2464,11.5578-7.1998c-4.2747-1.9584-8.9182-3.6292-14.358-3.2209
				l-1.1805,0.0887l0.7019-0.9533c4.0557-5.5071,8.8671-8.3856,14.6738-8.7674c-2.4851-2.14-5.1402-3.4081-9.289-4.4993
				l-0.791-0.208l0.4979-0.6488c4.971-6.4773,14.9292-9.8706,24.7787-8.444c0.2972,0.043,0.5032,0.3188,0.4602,0.6159
				c-0.043,0.2973-0.3207,0.5037-0.6159,0.4602c-9.1405-1.3241-18.3532,1.6349-23.2456,7.3929
				c4.4147,1.2442,7.1639,2.7612,9.9348,5.44l0.9669,0.9347H45.264c-5.7072,0-10.4419,2.4379-14.4423,7.4453
				c5.8228-0.1379,10.7202,1.9368,15.2444,4.0968l1.6363,0.7812l-1.7963,0.248c-4.0919,0.5649-7.9513,2.6462-11.7686,6.3524
				c4.8605,0.3234,9.8676,0.7614,14.5786,4.7481c0.2292,0.194,0.2577,0.537,0.0637,0.7662
				C48.6721,86.1866,48.5189,86.2521,48.3643,86.2521z"/>
		</g>
	</g>
	<g id="Regulus_1_">
		<g>
			<path class="st6" d="M36.7696,62.8149c0-10.5356,8.5406-19.0762,19.0762-19.0762s19.0765,8.5406,19.0765,19.0762l-4.7057,18.5246
				H41.475L36.7696,62.8149z"/>
			<path class="st2" d="M74.8223,60.8763v-0.01c-0.05-0.51-0.12-1.01-0.22-1.51c-0.05-0.34-0.13-0.67-0.21-1
				c0-0.02,0-0.03-0.01-0.05v-0.15c-0.03-0.09-0.06-0.18-0.08-0.27c-0.0099-0.01-0.02-0.03-0.04-0.03c0-0.03-0.01-0.06-0.02-0.09
				c-0.03-0.01-0.06-0.01-0.09-0.01c-0.21-0.21-0.43-0.41-0.65-0.6c0.01,0.03,0.02,0.06,0.03,0.1c0.04,0.13,0.08,0.27,0.12,0.41
				c0.06,0.19,0.11,0.39,0.16,0.59c0.07,0.27,0.14,0.56,0.19,0.84l0.01,0.0099c0.24,1.1801,0.37,2.39,0.37,3.64l-1.43,5.64
				c0.21-0.1,0.42-0.19,0.63-0.28l1.27-5.03l0.0699-0.26C74.9223,62.1564,74.8923,61.5163,74.8223,60.8763z M75.4523,62.6463v-0.04
				c0-0.92-0.07-1.8199-0.21-2.7c-0.05-0.38-0.12-0.7401-0.2-1.11c0,0-0.01,0,0-0.0099c0-0.06-0.02-0.1201-0.04-0.1801
				c0-0.04-0.01-0.09-0.03-0.1299c-0.04-0.2-0.09-0.4-0.14-0.6s-0.11-0.39-0.17-0.59c-0.02-0.08-0.04-0.16-0.06-0.2401
				c-0.04-0.13-0.09-0.27-0.14-0.4c-0.02-0.08-0.05-0.16-0.08-0.24c0-0.01,0-0.01,0-0.01c-0.03-0.08-0.05-0.15-0.08-0.22
				c-0.05-0.15-0.11-0.31-0.17-0.46c-0.01-0.02-0.02-0.05-0.03-0.07c-0.05-0.15-0.11-0.29-0.17-0.44c-0.04-0.08-0.08-0.17-0.12-0.25
				c-0.03-0.08-0.07-0.15-0.1-0.22c0-0.0099,0-0.03-0.02-0.04c-0.11-0.25-0.23-0.5-0.35-0.74c-0.1-0.21-0.2-0.41-0.32-0.61
				c-0.99-1.79-2.25-3.4-3.72-4.79c-0.14-0.14-0.29-0.28-0.44-0.41c-1.06-0.94-2.23-1.78-3.48-2.47c-0.41-0.23-0.83-0.45-1.26-0.64
				c-0.88-0.42-1.8-0.77-2.75-1.05c-0.6-0.17-1.21-0.32-1.83-0.43c-0.63-0.13-1.28-0.22-1.94-0.28c-0.58-0.05-1.17-0.08-1.76-0.08
				c-2.99,0-5.82,0.67-8.36,1.88c-0.4301,0.19-0.86,0.41-1.27,0.65c-0.85,0.48-1.66,1.02-2.42,1.61c-0.44,0.34-0.86,0.7-1.27,1.08
				c-0.21,0.2-0.41,0.4-0.61,0.6c-0.14,0.13-0.27,0.26-0.39,0.4c-0.02,0.02-0.05,0.05-0.06,0.07c-0.11,0.11-0.22,0.23-0.33,0.35
				v0.01c-0.05,0.05-0.1,0.11-0.15,0.17c-0.13,0.15-0.26,0.31-0.39,0.47c-0.04,0.05-0.08,0.09-0.11,0.14
				c-0.2401,0.29-0.47,0.6-0.6801,0.91c-0.0699,0.09-0.13,0.18-0.2,0.28c-0.01,0.01-0.02,0.02-0.03,0.04
				c-0.17,0.26-0.34,0.52-0.51,0.79c-0.6,1-1.12,2.06-1.54,3.16c-0.07,0.17-0.13,0.34-0.19,0.51c-0.01,0.02-0.02,0.03-0.02,0.05
				c-0.05,0.15-0.11,0.31-0.16,0.46c-0.2,0.64-0.37,1.29-0.51,1.96c-0.04,0.17-0.07,0.34-0.1,0.52c-0.03,0.16-0.06,0.32-0.08,0.49
				c-0.04,0.1801-0.06,0.37-0.08,0.56c-0.1,0.7401-0.15,1.4901-0.15,2.25v0.04c-0.01,0.06-0.01,0.11-0.01,0.17v0.07l0.03,0.11
				l0.1,0.42l0.14,0.55l0.03,0.11l0.33,1.27l1.18,4.65l0.04,0.16l0.1,0.41l0.01,0.03l0.04,0.17l0.12,0.45l0.04,0.17l0.98,3.87
				l0.14,0.55l0.11,0.43l0.03,0.11l1.29,5.0699l0.12,0.47h29.59l0.12-0.47l0.16-0.62l0.1801-0.73l0.18-0.7l1.76-6.92l0.23-0.91
				l0.06-0.25l0.14-0.53v-0.03l0.13-0.5l0.27-1.0601l0.17-0.66l0.17-0.67l1.24-4.89l0.01-0.06v-0.07
				C75.4624,62.7563,75.4624,62.7063,75.4523,62.6463z M72.7724,69.0663l-0.17,0.68l-0.05,0.18l-0.11,0.45l-0.02,0.07l-0.1299,0.53
				l-0.51,2l-0.14,0.55l-0.14,0.54l-1.54,6.07l-0.17,0.66h-27.89l-1.27-4.98l-0.13-0.52v-0.0099l-0.14-0.54l-0.17-0.68l-0.14-0.54
				l-0.14-0.55l-0.35-1.38l-0.1-0.38v-0.03l-0.06-0.21l-0.1-0.39v-0.02l-0.06-0.22l-0.09-0.38l-0.96-3.76l-0.45-1.77l-0.2599-1.01
				l-0.14-0.55l-0.03-0.13c0-0.15,0-0.31,0.01-0.46c0.02-0.85,0.1-1.6801,0.24-2.4901c0.11-0.68,0.26-1.34,0.44-1.98
				c0.06-0.21,0.12-0.42,0.18-0.62c0.06-0.17,0.11-0.33,0.18-0.5c0.05-0.17,0.1201-0.35,0.19-0.52c0.48-1.27,1.11-2.47,1.86-3.59
				c0.25-0.39,0.53-0.77,0.82-1.14c0.29-0.38,0.6-0.75,0.93-1.11c0.2-0.23,0.42-0.45,0.64-0.67c0.15-0.15,0.3-0.29,0.45-0.42
				c0.18-0.18,0.36-0.34,0.54-0.49c0.24-0.21,0.48-0.4,0.72-0.59c0.54-0.42,1.11-0.81,1.7-1.17c0.41-0.26,0.83-0.49,1.27-0.71
				c2.5099-1.28,5.35-2,8.36-2c0.74,0,1.48,0.04,2.2,0.14c2.16,0.25,4.21,0.88,6.08,1.82c0.43,0.21,0.85,0.44,1.26,0.7
				c1.14,0.68,2.2,1.48,3.16,2.38c1.4,1.32,2.59,2.84,3.53,4.53c0.02,0.03,0.03,0.06,0.05,0.09c0.07,0.12,0.13,0.24,0.19,0.37
				c0.04,0.07,0.07,0.15,0.11,0.23c0.09,0.16,0.17,0.33,0.2401,0.5h0.0099c0.02,0.03,0.03,0.06,0.03,0.09
				c0.03,0.07,0.06,0.14,0.1,0.21c0.08,0.16,0.15,0.3199,0.21,0.48c0.01,0.01,0.01,0.02,0.01,0.04c0,0,0,0,0,0.01
				c0.08,0.17,0.15,0.35,0.22,0.52c0.08,0.23,0.16,0.47,0.2401,0.7c0,0.0099,0.0099,0.03,0.0099,0.05c0,0,0,0,0.01,0.01
				c0.01,0.03,0.02,0.06,0.03,0.1c0.04,0.13,0.08,0.27,0.12,0.41c0.06,0.19,0.11,0.39,0.16,0.59c0.07,0.27,0.14,0.56,0.19,0.84
				l0.01,0.0099c0.24,1.1801,0.37,2.39,0.37,3.64l-1.43,5.64L72.7724,69.0663z"/>
		</g>
		<g>
			<path class="st7" d="M39.4684,73.5233l32.6602-0.0012l-2.0304,7.8173H41.3563L39.4684,73.5233z"/>
		</g>
		<g>
			<path class="st8" d="M66.1538,89.8011h-20.616c-2.2438-0.0001-4.0627-1.8191-4.0626-4.063v-4.3987h28.7416v4.3987
				C70.2167,87.982,68.3977,89.801,66.1538,89.8011z"/>
			<path class="st2" d="M68.3123,81.3363h-0.34l-0.14-0.54h-14.58v0.54h-3.68l-0.15,0.55h18.7l-0.08-0.32
				C68.1323,81.4764,68.2224,81.4064,68.3123,81.3363z M45.9824,89.2563c0.16,0.17,0.31,0.35,0.4399,0.54h19.83
				c0.1-0.2,0.22-0.39,0.35-0.5699c-0.15,0.02-0.3,0.03-0.45,0.03H45.9824z M40.9323,80.7963v4.94c0,0.44,0.06,0.86,0.18,1.26
				c0.05,0.19,0.11,0.37,0.19,0.54c0.04,0.11,0.09,0.22,0.16,0.3199c0.03,0.07,0.06,0.14,0.11,0.21c0.13,0.24,0.3,0.46,0.47,0.67
				c0.27,0.31,0.58,0.59,0.93,0.82c0.31,0.22,0.66,0.39,1.03,0.52c0.48,0.18,1,0.27,1.54,0.27h20.61c0.14,0,0.28-0.01,0.42-0.02
				c0.21-0.02,0.42-0.05,0.63-0.1c0.28-0.07,0.56-0.16,0.82-0.28c0.63-0.28,1.18-0.69,1.62-1.2c0.17-0.2,0.33-0.42,0.46-0.65
				c0.06-0.08,0.1-0.17,0.14-0.25c0.09-0.17,0.17-0.35,0.23-0.53c0.07-0.16,0.12-0.32,0.15-0.48c0.01-0.02,0.02-0.04,0.02-0.06
				c0.04-0.16,0.07-0.32,0.09-0.49c0.02-0.1801,0.03-0.36,0.03-0.55v-4.94H40.9323z M69.6723,85.7363c0,0.09,0,0.17-0.0099,0.26
				c-0.01,0.18-0.04,0.36-0.08,0.54c-0.02,0.09-0.04,0.17-0.07,0.2599c-0.07,0.21-0.15,0.41-0.25,0.6c-0.14,0.25-0.3,0.48-0.49,0.69
				c-0.36,0.39-0.8,0.71-1.29,0.91c-0.28,0.11-0.57,0.19-0.88,0.23c-0.15,0.02-0.3,0.03-0.45,0.03h-20.61
				c-0.1201,0-0.2401-0.01-0.36-0.02c-0.56-0.05-1.09-0.24-1.54-0.53c-0.15-0.1-0.3-0.21-0.43-0.33c-0.07-0.07-0.14-0.13-0.21-0.2
				c-0.18-0.19-0.34-0.4-0.47-0.62c-0.11-0.18-0.2-0.37-0.27-0.57c-0.16-0.39-0.24-0.81-0.24-1.25v-3.85h27.65V85.7363z"/>
		</g>
		<g>
			<path class="st1" d="M47.9346,73.522c-3.0991-0.949-6.9623-6.1383-6.9623-11.3823c0-3.0947,0.5028-6.9274,3.8632-7.8558
				c1.9085-0.5273,6.725,0.4445,10.5079,11.9854c0.0875,0.2647,0.373,0.4084,0.6377,0.3209
				c0.1602-0.053,0.2834-0.1825,0.3282-0.3452c3.1656-11.563,7.7816-12.9948,9.826-12.3394c4.1035,1.3154,4.692,4.4727,4.692,7.7295
				c0,5.2437-4.132,10.8912-6.7807,11.819L47.9346,73.522z"/>
			<path class="st2" d="M47.7753,74.0419c-3.3973-1.0404-7.3467-6.4662-7.3467-11.9021c0-1.7814,0-7.2023,4.2621-8.38
				c0.7211-0.1991,2.6568-0.4448,5.0469,1.5761c2.3621,1.9973,4.4081,5.577,6.0818,10.6405
				c2.217-8.0216,5.0862-11.0132,7.1074-12.1088c1.5754-0.8538,2.7904-0.6671,3.3745-0.4796
				c4.4674,1.432,5.0697,4.9726,5.0697,8.2472c0,5.6085-4.3341,11.3476-7.1446,12.3322l-0.3596-1.0262
				c2.4754-0.8673,6.4168-6.3934,6.4168-11.306c0-3.4988-0.7336-6.0641-4.3143-7.2118c-0.7134-0.2283-1.6333-0.0828-2.5242,0.4004
				c-1.8455,1.0002-4.4904,3.8186-6.6111,11.5649c-0.094,0.3398-0.3488,0.6078-0.6821,0.7179
				c-0.2658,0.088-0.5503,0.0671-0.8004-0.0589c-0.2503-0.1258-0.4365-0.3418-0.5242-0.6078
				c-4.1929-12.7913-9.2805-11.7883-9.8469-11.6318c-2.3634,0.6531-3.4642,2.9828-3.4642,7.3318
				c0,4.9012,3.5984,9.9501,6.5777,10.8624L47.7753,74.0419z"/>
		</g>
		<g>
			<ellipse class="st9" cx="60.5433" cy="63.9753" rx="1.5129" ry="2.8689"/>
		</g>
		<g>
			<ellipse class="st2" cx="60.5433" cy="63.9753" rx="0.7312" ry="1.3865"/>
		</g>
		<g>
			<path class="st1" d="M61.3797,62.917c0,0.4293-0.1835,0.7772-0.4099,0.7772c-0.2264,0-0.4099-0.3479-0.4099-0.7772
				c0-0.4293,0.1835-0.7772,0.4099-0.7772C61.1961,62.1397,61.3797,62.4877,61.3797,62.917L61.3797,62.917z"/>
		</g>
		<g>
			<path class="st1" d="M61.6726,64.079c0,0.1735-0.0742,0.3143-0.1657,0.3143c-0.0915,0-0.1657-0.1408-0.1657-0.3143
				c0-0.1735,0.0742-0.3143,0.1657-0.3143C61.5984,63.7647,61.6726,63.9054,61.6726,64.079L61.6726,64.079z"/>
		</g>
		<g>
			<ellipse class="st9" cx="51.0158" cy="63.9753" rx="1.5129" ry="2.8689"/>
		</g>
		<g>
			<ellipse class="st2" cx="51.0158" cy="63.9753" rx="0.7312" ry="1.3865"/>
		</g>
		<g>
			<path class="st1" d="M51.8522,62.917c0,0.4293-0.1835,0.7772-0.4099,0.7772c-0.2264,0-0.4099-0.3479-0.4099-0.7772
				c0-0.4293,0.1835-0.7772,0.4099-0.7772C51.6687,62.1397,51.8522,62.4877,51.8522,62.917L51.8522,62.917z"/>
		</g>
		<g>
			<path class="st1" d="M52.1451,64.079c0,0.1735-0.0742,0.3143-0.1657,0.3143c-0.0915,0-0.1657-0.1408-0.1657-0.3143
				c0-0.1735,0.0742-0.3143,0.1657-0.3143C52.0709,63.7647,52.1451,63.9054,52.1451,64.079L52.1451,64.079z"/>
		</g>
		<g>
			<path class="st2" d="M36.7697,63.0824c-0.3004,0-0.5437-0.2434-0.5437-0.5437V44.3841c0-0.3004,0.2434-0.5437,0.5437-0.5437
				c0.3004,0,0.5437,0.2434,0.5437,0.5437v18.1546C37.3134,62.8391,37.07,63.0824,36.7697,63.0824z"/>
		</g>
		<g>
			<path class="st2" d="M74.9223,63.0824c-0.3004,0-0.5437-0.2434-0.5437-0.5437V39.2581c0-0.3004,0.2434-0.5437,0.5437-0.5437
				s0.5437,0.2434,0.5437,0.5437v23.2807C75.466,62.8391,75.2227,63.0824,74.9223,63.0824z"/>
		</g>
		<g>
			<path class="st2" d="M55.8148,67.1122c-0.1665,0-0.3322-0.0372-0.4869-0.1111c-0.2727-0.1301-0.4784-0.3588-0.5789-0.6437
				c-2.5133-7.0887-5.2911-11.0136-8.2564-11.6649c-3.248-0.7142-6.4357,2.5522-8.9966,5.1763l-0.132,0.1352
				c-0.2097,0.2152-0.5542,0.2188-0.7688,0.0092c-0.2149-0.2097-0.2189-0.554-0.0092-0.7688l0.1317-0.135
				c2.749-2.817,6.171-6.323,10.0083-5.4789c3.4041,0.7478,6.3637,4.7922,9.0481,12.3642c0.0081,0.0234,0.0336,0.035,0.0563,0.0273
				c0.0131-0.0048,0.0234-0.0154,0.0273-0.0288c2.2653-7.643,5.0334-11.8074,8.4628-12.732
				c3.9485-1.0635,7.7012,2.4719,10.4403,5.0543l0.1161,0.1094c0.2186,0.206,0.2287,0.5501,0.0228,0.7687
				c-0.206,0.2182-0.5503,0.2289-0.7687,0.0228l-0.1163-0.1097c-2.5524-2.4065-6.0485-5.7023-9.4113-4.7954
				c-2.9922,0.8067-5.5839,4.8407-7.703,11.9902c-0.1019,0.346-0.3665,0.625-0.7074,0.7457
				C56.0693,67.0904,55.9418,67.1122,55.8148,67.1122z"/>
		</g>
		<g>
			<path class="st2" d="M72.1285,74.0658H39.587c-0.3004,0-0.5437-0.2434-0.5437-0.5437s0.2434-0.5437,0.5437-0.5437h32.5415
				c0.3004,0,0.5437,0.2434,0.5437,0.5437S72.4289,74.0658,72.1285,74.0658z"/>
		</g>
		<g>
			<path class="st2" d="M56.5656,80.3879c-1.0156,0-2.0396-0.055-3.0658-0.1665c-4.2987-0.4669-8.0594-1.9115-9.5809-3.6803
				c-0.1958-0.2276-0.1701-0.571,0.0577-0.7667c0.2274-0.1959,0.5704-0.1704,0.7667,0.0577
				c1.3304,1.5467,4.8966,2.8763,8.8738,3.3083c2.8078,0.3051,8.2984,0.4257,13.5239-2.195
				c0.2681-0.1347,0.595-0.0264,0.7297,0.2423c0.1347,0.2683,0.0262,0.595-0.2423,0.7297
				C64.3949,79.5389,60.5509,80.3879,56.5656,80.3879z"/>
		</g>
		<g>
			<path class="st1" d="M77.1137,48.9823c-0.4795-0.2161-0.934-0.4638-1.3848-0.7145c-0.4497-0.2523-0.8953-0.508-1.3367-0.7673
				c-0.4428-0.2577-0.8834-0.5165-1.328-0.7698c-0.4443-0.256-0.8928-0.4978-1.3572-0.7442
				c0.5218,0.0695,1.032,0.2086,1.5168,0.4137c0.4839,0.1987,0.9529,0.4318,1.4036,0.6973
				c0.4497,0.2629,0.8841,0.5513,1.3009,0.8637C76.3478,48.2723,76.744,48.6135,77.1137,48.9823z"/>
		</g>
	</g>
	<g id="Added_1_">
		<g>
			<path class="st6" d="M36.7917,59.624c-1.8309-9.4518,0.0002-15.2399,0.0002-15.2399s3.4729,2.6214,5.0101,5.5208
				C39.5226,52.2597,37.4538,56.2582,36.7917,59.624z"/>
			<path class="st2" d="M42.2924,49.6663l-0.01-0.02c-0.03-0.05-0.05-0.1-0.09-0.15c-0.05-0.1-0.1-0.2-0.17-0.29
				c-0.03-0.06-0.07-0.13-0.11-0.19c-1.69-2.7-4.66-4.97-4.79-5.07l-0.62-0.46l-0.18,0.58l-0.01,0.01l-0.04,0.14
				c-0.01,0.02-0.02,0.08-0.05,0.17c0,0,0,0,0,0.01c-0.1,0.35-0.31,1.21-0.49,2.52c-0.0601,0.39-0.11,0.82-0.16,1.29
				c-0.14,1.5-0.21,3.4-0.06,5.65c0.01,0.2401,0.03,0.4901,0.05,0.7401c0.03,0.39,0.07,0.79,0.11,1.21
				c0.02,0.19,0.04,0.38,0.0601,0.58c0.12,0.98,0.28,2.02,0.49,3.11c0.01,0.07,0.03,0.15,0.04,0.23l0.12,0.6299l0.4,2.05l0.01,0.06
				l0.46-2.38l0.06-0.31l0.01-0.05c0.11-0.54,0.25-1.09,0.43-1.66c0.09-0.3,0.19-0.6,0.31-0.91c0.05-0.17,0.12-0.34,0.19-0.51
				s0.13-0.34,0.2-0.51c0.54-1.25,1.21-2.48,1.94-3.58c0.26-0.4,0.54-0.78,0.82-1.14c0.3-0.39,0.61-0.75,0.92-1.0699
				c0.02-0.02,0.04-0.04,0.06-0.06l0.28-0.29L42.2924,49.6663z M36.8023,56.1463c-0.03-0.2-0.05-0.4-0.06-0.59
				c-0.05-0.45-0.09-0.88-0.12-1.3c-0.02-0.25-0.03-0.49-0.04-0.72c-0.02-0.2401-0.03-0.48-0.04-0.71c-0.05-1.59,0-2.97,0.1-4.13
				c0.03-0.49,0.08-0.94,0.13-1.35c0.11-0.86,0.24-1.53,0.34-2c0.06,0.05,0.13,0.11,0.2,0.17c0.95,0.81,2.49,2.27,3.54,3.87
				c0.0699,0.1,0.13,0.21,0.19,0.31h0.0099c0.03,0.04,0.05,0.09,0.08,0.13v0.01c-0.11,0.11-0.21,0.23-0.32,0.35
				c-0.02,0.02-0.04,0.04-0.05,0.06c-0.06,0.07-0.12,0.15-0.18,0.22c-0.05,0.06-0.1,0.13-0.15,0.19c-0.22,0.28-0.43,0.57-0.64,0.87
				c-0.07,0.09-0.14,0.19-0.2,0.29c-0.01,0-0.01,0.01-0.01,0.01c-0.01,0.01-0.01,0.02-0.01,0.03c-0.17,0.26-0.34,0.52-0.51,0.79
				c-0.62,0.98-1.17,2.05-1.62,3.13c-0.05,0.1-0.09,0.21-0.13,0.31c-0.03,0.07-0.06,0.13-0.08,0.2c-0.07,0.17-0.14,0.34-0.19,0.5099
				c-0.05,0.1-0.08,0.21-0.1201,0.31c-0.02-0.12-0.03-0.25-0.05-0.37C36.8424,56.5364,36.8223,56.3363,36.8023,56.1463z"/>
		</g>
		<g>
			<path class="st6" d="M74.9444,39.258c0,0-4.117,3.1886-5.7941,9.8868c3.0958,2.8853,4.6957,6.6227,5.6189,10.4792
				C76.0927,56.553,76.4024,40.3018,74.9444,39.258L74.9444,39.258z"/>
			<path class="st2" d="M74.3823,56.4064c0-0.01,0-0.01,0-0.01c-0.03-0.08-0.05-0.15-0.08-0.22c-0.06-0.15-0.11-0.3-0.18-0.45
				c-0.01-0.03-0.02-0.0601-0.04-0.09c-0.14-0.09-0.29-0.16-0.44-0.23c-0.06,0.03-0.12,0.08-0.17,0.12c-0.01,0-0.01,0.01-0.01,0.01
				c0.07,0.17,0.14,0.34,0.21,0.52c-0.02,0.01-0.04,0.03-0.06,0.04c0.03,0.0099,0.06,0.03,0.09,0.05c0.01,0,0.01,0,0.02,0.01
				c0.23,0.12,0.45,0.2599,0.66,0.42c0.03,0.02,0.06,0.04,0.08,0.07C74.4423,56.5663,74.4124,56.4863,74.3823,56.4064z
				 M76.2623,42.3963c-0.25-2.7-0.64-3.32-1-3.58l-0.33-0.24l-0.22,0.18l-0.04,0.02l-0.06,0.05c-0.0099,0-0.02,0.01-0.03,0.02
				c-0.01,0.0099-0.03,0.03-0.05,0.04c-0.42,0.35-2.37,2.05-4.05,5.23c-0.09,0.16-0.17,0.33-0.25,0.5
				c-0.08,0.16-0.16,0.32-0.2401,0.48c-0.42,0.91-0.81,1.93-1.13,3.05c-0.06,0.19-0.11,0.38-0.16,0.58
				c-0.03,0.09-0.06,0.1899-0.08,0.29l-0.08,0.31l0.24,0.22c1.29,1.21,2.38,2.64,3.29,4.31c0.02,0.03,0.03,0.06,0.05,0.09
				c0.06,0.12,0.13,0.24,0.18,0.37h0.01c0.04,0.07,0.07,0.15,0.11,0.23c0.08,0.16,0.16,0.33,0.2401,0.5
				c0.02,0.03,0.03,0.06,0.04,0.09c0.03,0.07,0.06,0.14,0.1,0.21c0.06,0.16,0.13,0.31,0.19,0.47c0.01,0.01,0.02,0.03,0.03,0.05
				c0,0,0,0,0,0.01c0.07,0.17,0.14,0.35,0.2,0.53c0.09,0.22,0.17,0.45,0.26,0.69c0,0.0099,0.0099,0.03,0.0099,0.05
				c0,0,0,0,0.01,0.01c0.01,0.03,0.02,0.06,0.03,0.1c0.04,0.13,0.09,0.27,0.13,0.41c0.07,0.19,0.13,0.39,0.19,0.6
				c0.08,0.3,0.17,0.6,0.25,0.92c0.05,0.18,0.09,0.37,0.14,0.56l0.14,0.59l0.24,1.01l0.2-0.47v-0.01l0.42-0.96l0.03-0.07
				c0.07-0.16,0.13-0.35,0.19-0.56c0.06-0.19,0.11-0.4,0.17-0.63c0.03-0.17,0.07-0.36,0.1-0.55c0.0099-0.02,0.0099-0.03,0.0099-0.05
				c0.03-0.15,0.06-0.3199,0.08-0.49c0.03-0.13,0.05-0.26,0.06-0.4c0.04-0.26,0.08-0.53,0.11-0.82c0.07-0.58,0.13-1.2,0.19-1.85
				c0.01-0.21,0.03-0.42,0.05-0.64c0.0099-0.2,0.02-0.41,0.04-0.63c0.09-1.49,0.15-3.06,0.17-4.53v-0.58
				c0.01-0.22,0.01-0.44,0.01-0.66v-0.64C76.4323,45.1363,76.3723,43.6163,76.2623,42.3963z M69.7523,48.9664
				c0.35-1.32,0.8-2.49,1.29-3.52c0.08-0.17,0.16-0.33,0.23-0.49c0.1-0.17,0.18-0.33,0.27-0.49c1-1.85,2.09-3.15,2.84-3.93
				c0.13-0.14,0.25-0.27,0.36-0.3701c0.01-0.0099,0.02-0.02,0.02-0.02c0.02-0.02,0.03-0.03,0.04-0.04
				c0.03,0.1201,0.07,0.25,0.1,0.41c0,0,0.01,0.01,0,0.02c0.21,0.99,0.41,2.8199,0.45,5.6299v0.17c0,0.14,0.0099,0.29,0.0099,0.44
				v1.27c0,0.27,0,0.54-0.0099,0.82c-0.03,1.76-0.1,3.44-0.21,4.93c-0.02,0.23-0.03,0.45-0.05,0.66c-0.02,0.24-0.04,0.46-0.07,0.68
				c0,0.12-0.02,0.23-0.03,0.33c-0.02,0.26-0.05,0.5-0.08,0.73c-0.03,0.26-0.06,0.51-0.09,0.75c-0.02,0.12-0.04,0.24-0.06,0.36
				c0,0.05-0.01,0.11-0.02,0.16c-0.02-0.06-0.04-0.12-0.06-0.18c-0.02-0.08-0.05-0.16-0.08-0.2401c-0.04-0.13-0.09-0.27-0.14-0.4
				c-0.02-0.08-0.05-0.16-0.08-0.24c0-0.01,0-0.01,0-0.01c-0.03-0.08-0.05-0.15-0.08-0.22c-0.06-0.15-0.11-0.3-0.18-0.45
				c-0.01-0.03-0.02-0.0601-0.04-0.09c-0.05-0.14-0.1-0.28-0.17-0.42c-0.03-0.09-0.07-0.18-0.1-0.26c-0.03-0.08-0.07-0.15-0.1-0.22
				l-0.01-0.0099c0-0.01,0-0.02-0.01-0.03c-0.11-0.25-0.23-0.5-0.35-0.74c-0.1-0.21-0.2-0.41-0.32-0.61
				C72.1223,51.6663,71.0424,50.2164,69.7523,48.9664z"/>
		</g>
		<g>
			<path class="st7" d="M36.9208,56.9391C36.1207,49.5748,37.11,45.692,37.11,45.692s2.7917,1.9788,4.0274,4.1675
				C39.3052,51.637,37.4531,54.3984,36.9208,56.9391z"/>
		</g>
		<g>
			<path class="st7" d="M74.188,42.4467c0,0-2.8278,2.1902-3.9798,6.7909c2.1264,1.9819,3.6613,4.3526,4.2954,7.0015
				C74.9554,53.6115,75.1895,43.1636,74.188,42.4467L74.188,42.4467z"/>
		</g>
		<g>
			<path class="st10" d="M41.407,87.5223c-6.8152,0.3733-6.8152,8.2703-6.8152,8.2703h13.6303
				C48.2221,95.7926,48.2221,87.149,41.407,87.5223z"/>
			<path class="st2" d="M45.9824,89.2563h-0.44c-0.1201,0-0.2401-0.01-0.36-0.02c0.05,0.04,0.1,0.08,0.15,0.13
				c0.14,0.14,0.28,0.28,0.4,0.43h0.6899C46.2924,89.6063,46.1424,89.4263,45.9824,89.2563z M48.7423,95.2463
				c-0.07-0.97-0.32-3.06-1.33-4.9c-0.1-0.19-0.21-0.37-0.33-0.55c-0.11-0.19-0.24-0.37-0.39-0.54c-0.18-0.24-0.39-0.47-0.61-0.68
				c-1.03-0.97-2.31-1.51-3.82-1.59c-0.2-0.02-0.4-0.02-0.6-0.02c-0.09,0-0.19,0-0.29,0.01c-0.09,0-0.18,0.0099-0.26,0.02
				c-1.5,0.12-2.68,0.6-3.61,1.27c-0.02,0.02-0.04,0.03-0.06,0.04c-2.03,1.49-2.84,3.9-3.17,5.58c-0.02,0.08-0.03,0.16-0.04,0.24
				c-0.08,0.45-0.13,0.83-0.15,1.12c-0.01,0.13-0.02,0.23-0.02,0.32c-0.01,0.08-0.01,0.16-0.01,0.23v0.54h14.71v-0.54
				C48.7623,95.7663,48.7623,95.5663,48.7423,95.2463z M35.1624,95.2463c0.0099-0.09,0.02-0.18,0.03-0.28
				c0-0.03,0.01-0.07,0.01-0.11c0.01-0.05,0.02-0.11,0.02-0.17c0.01-0.02,0.01-0.04,0.01-0.06c0.1-0.71,0.31-1.66,0.71-2.62
				c0.21-0.49,0.45-0.94,0.72-1.34c0.0099,0,0.02-0.0099,0.02-0.02c0.29-0.44,0.63-0.82,1-1.14c0.11-0.1,0.23-0.2,0.35-0.28
				c0.68-0.52,1.48-0.86,2.38-1.03c0.33-0.07,0.67-0.11,1.02-0.13c0.05,0,0.09-0.01,0.14,0c0.13-0.01,0.25-0.01,0.38-0.01
				c0.09,0,0.17,0.01,0.26,0.01c0.27,0.02,0.54,0.05,0.79,0.11c0.83,0.16,1.57,0.52,2.18,1.06c0.05,0.04,0.1,0.08,0.15,0.13
				c0.14,0.14,0.28,0.28,0.4,0.43c0.15,0.1801,0.29,0.36,0.41,0.55c1.13,1.7,1.44,3.9,1.51,4.9H35.1624z"/>
		</g>
		<g>
			<path class="st11" d="M39.7137,88.1833c-5.1219,0.3435-5.1219,7.6094-5.1219,7.6094h10.2437
				C44.8355,95.7926,44.8355,87.8398,39.7137,88.1833z"/>
			<path class="st2" d="M45.3623,95.2463c-0.06-1.05-0.31-3.37-1.36-5.17c-0.19-0.32-0.4-0.63-0.64-0.91
				c-0.12-0.14-0.24-0.27-0.37-0.39c-0.19-0.17-0.38-0.33-0.59-0.46c-0.14-0.1-0.29-0.19-0.45-0.26c-0.16-0.08-0.32-0.14-0.49-0.2
				c-0.32-0.11-0.67-0.18-1.03-0.21h-0.03c-0.23-0.02-0.47-0.03-0.72-0.01c-0.84,0.06-1.56,0.28-2.18,0.63
				c-0.02,0.02-0.04,0.03-0.06,0.04c-2.42,1.42-3.26,4.73-3.38,6.94v0.12c-0.01,0.15-0.01,0.29-0.01,0.43v0.54h11.33v-0.54
				C45.3823,95.7563,45.3823,95.5563,45.3623,95.2463z M35.1624,95.2463c0.0099-0.09,0.02-0.18,0.03-0.28c0-0.04,0-0.07,0.01-0.11
				c0.01-0.05,0.02-0.11,0.02-0.17c0-0.02,0-0.04,0.01-0.06c0.1-0.85,0.33-2.05,0.85-3.15c0.08-0.17,0.17-0.35,0.27-0.52
				c0.0099-0.02,0.0099-0.02,0.02-0.03c0.31-0.52,0.69-1,1.18-1.37c0.15-0.13,0.31-0.24,0.48-0.33c0.49-0.28,1.06-0.46,1.72-0.5
				c1-0.07,1.81,0.21,2.5,0.85c1.58,1.48,1.94,4.45,2.02,5.67H35.1624z"/>
		</g>
		<g>
			<path class="st10" d="M43.3687,95.7926c0,0,0-6.2531-4.3885-5.983s-4.3885,5.983-4.3885,5.983H43.3687z"/>
			<path class="st2" d="M43.3688,96.3363c-0.3002,0-0.5434-0.2432-0.5437-0.5432l0,0c0-0.032-0.0241-3.214-1.6083-4.7009
				c-0.589-0.5527-1.311-0.7956-2.203-0.74c-3.8218,0.2352-3.8777,5.2285-3.8782,5.441c-0.0007,0.2996-0.2441,0.5427-0.5437,0.5427
				h-0.0007c-0.3-0.0004-0.543-0.2434-0.543-0.5434c0-2.1527,1.0239-6.2872,4.8988-6.5257c1.195-0.0724,2.2085,0.2749,3.017,1.035
				c1.9265,1.8117,1.9487,5.3412,1.9487,5.4906C43.9125,96.093,43.6691,96.3363,43.3688,96.3363z"/>
		</g>
		<g>
			<path class="st10" d="M68.6158,85.8697c7.4769,0.4479,7.4769,9.9229,7.4769,9.9229H61.1389
				C61.1389,95.7926,61.1389,85.4219,68.6158,85.8697z"/>
			<path class="st2" d="M76.6123,95.2463c0-0.05-0.0099-0.1-0.0099-0.15c-0.04-0.58-0.15-1.46-0.38-2.47
				c-0.01-0.09-0.03-0.18-0.07-0.27c-0.13-0.5-0.29-1.02-0.49-1.55c-1-2.62-2.68-4.34-4.9-5.08c-0.18-0.0601-0.36-0.1201-0.55-0.16
				c-0.18-0.05-0.36-0.09-0.54-0.12c-0.17-0.03-0.35-0.06-0.53-0.07c-0.06-0.01-0.12-0.02-0.18-0.02c-0.1-0.02-0.21-0.02-0.31-0.03
				c-1.96-0.11-3.61,0.45-4.92,1.68c-0.69,0.65-1.22,1.42-1.63,2.25c-0.1,0.18-0.1801,0.36-0.26,0.54
				c-0.08,0.1801-0.16,0.36-0.23,0.55c-0.75,1.96-0.95,3.96-1.0099,4.9c-0.01,0.31-0.01,0.51-0.01,0.55v0.54h16.04v-0.54
				C76.6323,95.6263,76.6323,95.4363,76.6123,95.2463z M61.7024,95.2463c0.06-0.95,0.28-3.01,1.09-4.9
				c0.0699-0.19,0.16-0.37,0.25-0.55c0.09-0.19,0.19-0.36,0.29-0.54c0.32-0.54,0.7-1.04,1.15-1.46c0.98-0.93,2.22-1.39,3.67-1.39
				c0.14,0,0.28,0,0.43,0.0099c0.35,0.02,0.68,0.0601,1,0.1201c0.18,0.04,0.35,0.08,0.52,0.1299c0.1,0.03,0.2,0.0601,0.3,0.1
				c0.08,0.01,0.15,0.04,0.22,0.07c0.61,0.22,1.17,0.54,1.68,0.94c0.01,0.01,0.02,0.01,0.02,0.01c0.63,0.5099,1.17,1.16,1.63,1.94
				c0.25,0.43,0.49,0.92,0.69,1.4399c0.26,0.67,0.44,1.34,0.57,1.95c0.19,0.86,0.28,1.64,0.31,2.13H61.7024z"/>
		</g>
		<g>
			<path class="st11" d="M70.4735,87.3114c5.6192,0.3828,5.6192,8.4813,5.6192,8.4813H64.8543
				C64.8543,95.7926,64.8543,86.9286,70.4735,87.3114z"/>
			<path class="st2" d="M66.6024,89.2264c-0.13,0.18-0.25,0.37-0.35,0.5699c0.23-0.0099,0.45-0.03,0.67-0.0699
				c0.16-0.26,0.35-0.51,0.5601-0.73C67.2023,89.1063,66.9124,89.1863,66.6024,89.2264z M76.6123,95.2463
				c0-0.05-0.0099-0.1-0.0099-0.15c-0.0131-0.1895-0.0372-0.4203-0.0669-0.6678c-0.0343-0.3292-0.0866-0.6637-0.153-1.0154
				c-0.0457-0.2513-0.0977-0.5129-0.1601-0.7867c-0.01-0.09-0.03-0.18-0.07-0.27c-0.54-2.03-1.63-4.09-3.58-5.05
				c-0.57-0.28-1.21-0.47-1.93-0.53c-0.04,0-0.09-0.01-0.13-0.01s-0.08-0.01-0.11,0c-0.11-0.01-0.22-0.01-0.32-0.01
				c-0.19,0-0.38,0.01-0.57,0.04c-0.98,0.11-1.84,0.51-2.57,1.2c-0.39,0.37-0.73,0.79-1,1.26c-0.12,0.17-0.22,0.35-0.31,0.54
				c-0.09,0.1801-0.18,0.36-0.26,0.55c-0.79,1.86-0.99,3.93-1.04,4.9c-0.02,0.31-0.02,0.51-0.02,0.55v0.54h12.32v-0.54
				C76.6323,95.6263,76.6323,95.4363,76.6123,95.2463z M65.4223,95.2463c0.0601-1,0.29-3.17,1.15-4.92c0.11-0.2,0.22-0.41,0.35-0.6
				c0.16-0.26,0.35-0.51,0.5601-0.73c0.06-0.07,0.1299-0.14,0.2-0.21c0.33-0.31,0.7-0.54,1.09-0.7c0.26-0.1,0.54-0.17,0.83-0.21
				c0.16-0.02,0.33-0.03,0.5-0.03h0.14c0.06,0,0.13,0,0.19,0.0099c0.79,0.06,1.47,0.29,2.03,0.64c1.61,1,2.38,2.98,2.75,4.62
				c0.19,0.86,0.28,1.64,0.31,2.13H65.4223z"/>
		</g>
		<g>
			<path class="st10" d="M66.4635,95.7926c0,0,0-7.5025,4.3638-7.1785c4.3639,0.324,4.3639,7.1785,4.3639,7.1785H66.4635z"/>
			<path class="st2" d="M75.1912,96.3363c-0.3003,0-0.5437-0.2434-0.5437-0.5437c0-0.0632-0.0527-6.3536-3.8605-6.6363
				c-0.7589-0.0582-1.3903,0.1582-1.9271,0.6561c-1.8271,1.6947-1.8526,5.9379-1.8526,5.9805
				c-0.0004,0.3-0.2437,0.5432-0.5437,0.5432h-0.0004c-0.3002-0.0002-0.5434-0.2434-0.5434-0.5435
				c0-0.1933,0.025-4.7575,2.1989-6.7759c0.7602-0.7058,1.6865-1.0225,2.7487-0.945c4.812,0.3573,4.8674,7.4203,4.8674,7.7209
				C75.7349,96.093,75.4915,96.3363,75.1912,96.3363z"/>
		</g>
		<g>
			<circle class="st2" cx="55.7613" cy="74.2363" r="2.1119"/>
		</g>
		<g>
			<circle class="st2" cx="73.9134" cy="43.7387" r="0.2922"/>
		</g>
		<g>
			<circle class="st2" cx="78.8637" cy="51.3155" r="0.2922"/>
		</g>
		<g>
			<circle class="st2" cx="83.6016" cy="64.6855" r="0.2922"/>
		</g>
		<g>
			<circle class="st2" cx="80.6837" cy="76.6404" r="0.2922"/>
		</g>
		<g>
			<circle class="st2" cx="35.3963" cy="80.2099" r="0.2922"/>
		</g>
		<g>
			<circle class="st2" cx="32.1381" cy="68.5718" r="0.2922"/>
		</g>
		<g>
			<circle class="st2" cx="38.1775" cy="94.6006" r="0.2922"/>
		</g>
		<g>
			<circle class="st2" cx="72.1286" cy="94.6006" r="0.2922"/>
		</g>
		<g>
			<circle class="st2" cx="66.2722" cy="87.2993" r="0.2922"/>
		</g>
		<g>
			<circle class="st2" cx="56.5382" cy="88.8961" r="0.2922"/>
		</g>
		<g>
			<circle class="st2" cx="42.7844" cy="85.0967" r="0.2922"/>
		</g>
		<g>
			<circle class="st2" cx="69.0847" cy="85.0967" r="0.2922"/>
		</g>
		<g>
			<circle class="st2" cx="43.3687" cy="88.6039" r="0.2922"/>
		</g>
		<g>
			<circle class="st2" cx="37.5931" cy="47.0055" r="0.2922"/>
		</g>
		<g>
			<path class="st1" d="M79.609,74.9596c-0.4795-0.2162-0.934-0.4638-1.3848-0.7145c-0.4497-0.2523-0.8953-0.508-1.3367-0.7673
				c-0.4428-0.2577-0.8834-0.5165-1.328-0.7698c-0.4443-0.256-0.8928-0.4978-1.3572-0.7442
				c0.5218,0.0695,1.032,0.2086,1.5168,0.4137c0.4839,0.1987,0.9529,0.4318,1.4036,0.6973
				c0.4497,0.2629,0.8841,0.5513,1.3009,0.8637C78.843,74.2495,79.2392,74.5908,79.609,74.9596z"/>
		</g>
		<g>
			<path class="st1" d="M82.3124,62.5793c-0.4795-0.2162-0.934-0.4638-1.3848-0.7145c-0.4497-0.2523-0.8953-0.508-1.3367-0.7673
				c-0.4428-0.2577-0.8834-0.5165-1.328-0.7698c-0.4443-0.256-0.8928-0.4978-1.3572-0.7442
				c0.5218,0.0695,1.032,0.2086,1.5168,0.4137c0.4839,0.1987,0.9529,0.4318,1.4036,0.6973
				c0.4497,0.2629,0.8841,0.5513,1.3009,0.8637C81.5464,61.8692,81.9426,62.2105,82.3124,62.5793z"/>
		</g>
		<g>
			<path class="st1" d="M51.4423,45.3186c1.8239-0.3739,3.6936-0.4724,5.5467-0.2922c1.8686,0.1802,3.701,0.6321,5.4392,1.3413
				c1.7339,0.7106,3.3636,1.6528,4.8445,2.8009c1.4712,1.1339,2.794,2.4482,3.9372,3.9121
				c-1.4145-1.1878-2.8469-2.3208-4.3636-3.3147c-1.5035-0.998-3.1009-1.8467-4.7696-2.5339
				c-1.6691-0.6802-3.4072-1.1766-5.1838-1.4806C55.1106,45.4399,53.2886,45.3278,51.4423,45.3186z"/>
		</g>
		<g>
			<path class="st1" d="M63.4597,82.7008c0.4688-0.075,0.9375-0.1184,1.4063-0.155c0.4688-0.0354,0.9375-0.0559,1.4063-0.0678
				c0.9375-0.0206,1.875-0.0108,2.8125,0.0473l0.1859,0.0115l-0.0104,0.164c-0.009,0.1413-0.0183,0.2825-0.031,0.4237
				c-0.0126,0.1412-0.0214,0.2825-0.0371,0.4237c-0.016,0.1413-0.0275,0.2825-0.0471,0.4237
				c-0.0174,0.1413-0.0365,0.2825-0.0604,0.4237c-0.0239-0.1413-0.0429-0.2825-0.0604-0.4237
				c-0.0196-0.1412-0.0311-0.2825-0.0471-0.4237c-0.0157-0.1412-0.0245-0.2825-0.0371-0.4237
				c-0.0126-0.1412-0.022-0.2825-0.031-0.4237l0.1755,0.1755c-0.9375,0.0581-1.875,0.068-2.8125,0.0473
				c-0.4688-0.0119-0.9375-0.0324-1.4063-0.0678C64.3972,82.8193,63.9284,82.7758,63.4597,82.7008z"/>
		</g>
		<g>
			<path class="st1" d="M74.7368,40.0451c0.2116,0.554,0.3764,1.1246,0.4929,1.706c0.1189,0.5807,0.1994,1.1687,0.2408,1.76
				c0.042,0.5914,0.0441,1.1849,0.0064,1.7766c-0.035,0.5921-0.1205,1.1801-0.2557,1.7576
				c-0.0541-0.5924-0.0778-1.1772-0.1113-1.7599c-0.0306-0.5826-0.0656-1.1632-0.1049-1.7418
				c-0.0403-0.5795-0.0873-1.1585-0.1373-1.7399C74.8208,41.2219,74.7641,40.6393,74.7368,40.0451z"/>
		</g>
	</g>
</g>
<g id="Layer_2_27_">
	<g id="Layer_16_27_">
		<path class="st12" d="M96.9923,34.3963l-0.53-0.3l-0.72-0.42l-0.77-0.45l-0.11-0.0601l-0.49-0.28l-0.51-0.29l-0.9-0.52l-7.25-4.18
			l-1.71-0.98l-0.72-0.42l-0.45-0.26l-0.49-0.29l-0.05-0.02l-0.42-0.25l-0.41-0.24l-5.33-3.07l-19.5-11.24l-0.53-0.31l-0.47,0.27
			l-17.11,9.88l-5.02,2.9l-1.3,0.75l-0.53,0.31l-0.1,0.05c-0.01,0-0.01,0-0.01,0l-0.25,0.15l-0.42,0.25l-0.3,0.17l-0.27,0.16
			l-0.18,0.1l-1.5,0.87h-0.01l-1.78,1.02l-0.01,0.01l-0.58,0.34l-0.76,0.4301l-0.01,0.0099l-0.03,0.02l-3.25,1.87h-0.01l-2.38,1.37
			l-1,0.58l-2.98,1.72l-4.23,2.44l-1.54,0.89v53.12l0.07,0.04l1.72,1l0.75,0.43l0.15,0.08l4.32,2.5l0.69,0.39l0.53,0.31l1.88,1.09
			l1.59,0.92l0.46,0.26l1.3,0.75l3.38,1.95l5.38,3.1l0.69,0.4l0.0699,0.04l0.15,0.08l0.11,0.07l0.18,0.1l0.04,0.02l1.91,1.11
			l0.88,0.5l1.33,0.78l0.89,0.51l0.18,0.1l0.31,0.18l0.19,0.11l0.48,0.28l3.57,2.05l0.09,0.05l0.44,0.26l0.62,0.36l0.72,0.42
			c0.01,0,0.01,0,0.01,0l0.53,0.3l1.51,0.87l3.17,1.84l4.48,2.58l1.03,0.6l0.23,0.13l0.02-0.01l0.19-0.11l0.14-0.08l0.03-0.02
			l0.31-0.18l1.81-1.03l0.09-0.05l0.69-0.4l0.5-0.29l0.24-0.14l3.85-2.22l2.4499-1.41l0.7401-0.43l0.66-0.38l0.67-0.39l0.44-0.2599
			l2.33-1.34l0.39-0.22h0.01l0.23-0.14l0.21-0.12l0.63-0.36l0.8-0.46l1.26-0.73l0.46-0.27h0.01l0.46-0.27l0.01-0.01l0.25-0.14
			l0.53-0.31l0.37-0.21l0.35-0.21l0.55-0.31l0.21-0.13l0.32-0.18l0.43-0.24l0.02-0.01l0.05-0.03l0.13-0.08l0.24-0.13l3.78-2.18
			l0.38-0.22l1.11-0.65l2.97-1.71l1.5601-0.9l3.05-1.76l1.89-1.09l3.59-2.07h0.01l0.06-0.04l2.65-1.53l0.9-0.52l1.03-0.59v-53.12
			L96.9923,34.3963z M100.2924,89.4263l-0.52,0.3l-0.32,0.18l-0.58,0.34l-7.59,4.38l-1.08,0.62l-1.89,1.09l-1.7,0.98l-3.12,1.8
			l-1.28,0.74l-0.72,0.41l-2.93,1.69l-0.07,0.05l-0.16,0.09l-0.18,0.11l-0.57,0.32l-0.89,0.51l-0.22,0.1299l-0.05,0.03l-0.81,0.47
			l-0.09,0.05l-3.91,2.25l-0.08,0.05l-0.79,0.45l-0.08,0.05l-0.91,0.53l-2.15,1.2401l-1.54,0.89l-1.68,0.97l-1.1,0.63l-2.97,1.72
			l-1.23,0.71l-0.06,0.04h-0.02l-0.75,0.44l-0.28,0.15l-1.87,1.08l-3.45-1.99l-1.23-0.71l-0.61-0.35l-1.81-1.05l-0.72-0.41
			l-0.69-0.4l-5.26-3.03l-0.77-0.45l-0.05-0.03l-1.79-1.03l-2.06-1.18l-0.9-0.52l-0.58-0.34l-0.25-0.15l-0.43-0.25l-0.21-0.12
			l-1.75-1.01l-0.31-0.18l-0.19-0.11l-1.5-0.87l-3.42-1.97l-3.91-2.26l-0.3-0.17l-1.46-0.84l-0.43-0.25l-2.99-1.72l-4.91-2.84
			l-0.9-0.51l-0.39-0.23l-0.23-0.13l-0.67-0.39v-50.97l3.91-2.26l2.98-1.72l0.93-0.54h0.01l0.06-0.04l3.2-1.85h0.01l1.36-0.79h0.01
			l1.79-1.03l1.25-0.72l0.43-0.25h0.01l0.76-0.44l0.46-0.27h0.0099l2.98-1.72c0.01-0.01,0.01-0.01,0.02-0.01l0.78-0.45l0.35-0.2
			l0.2-0.12l0.29-0.17l0.17-0.1l0.27-0.15l0.04-0.02l8.03-4.64l13.39-7.73l0.47-0.27l0.53,0.31l16.83,9.71l6.98,4.03l0.05,0.03
			l0.32,0.1801l0.11,0.06l0.44,0.2599l0.35,0.2l1.23,0.71l1.94,1.12l7.02,4.04l1.41,0.81l0.55,0.32l0.04,0.03l0.77,0.44l0.19,0.11
			l0.54,0.31l0.53,0.31l4.36,2.51V89.4263z"/>
	</g>
</g>
</svg>
