<svg enable-background="new 0 0 110.896 128.021" viewBox="0 0 110.896 128.021" xmlns="http://www.w3.org/2000/svg" xmlns:xlink="http://www.w3.org/1999/xlink"><clipPath id="a"><path d="m54.347 11.827-5.95 3.439-.01.01-.11.061-.27.16-.19.11-.86.499-.53.301s-.01 0-.01.011l-1.86 1.068-.53.311-1.87 1.069-.06.041-.049.03h-.011l-1.4.799-.69.41-.98.56-1.3.74-.52.3-1.1.649-.44.261-.38.22-.78.45-.03.02-.11.06-1.52.869-.17.091-1.58.92-2.66 1.529-.7.4-.71.4-.76.44-.099.06-1.991 1.159-9.719 5.61-3.68 2.12-.931.54v53.14l.031.021.08.041.219.129 3.281 1.89 2.54 1.47h.009l.47.271.231.131.009.01.04.021.28.16c.01.01.02.01.02.01l.29.17 2.11 1.23 1.021.59 1.809 1.051.05.029c.01 0 .01 0 .02.01l1.03.592.01.009h.01l.21.12.01.01.07.041.311.181.119.069.09.05.82.471 2.09 1.199 1.76 1.021.75.44.29.17.46.26.03.02.13.08.8.46.55.32.021.011 1.769 1.01.07.04.01.01.14.09.19.11.29.171.2.109.391.22.229.129.041.029.649.381 1.7.981 1.03.602.38.219.17.1.89.51.69.393.811.469.119.07.29.17.2.109.4.24.93.539.01.01 2.5 1.439.1.061.71.41.96.551.12.07.28.158.04.031.16.09.35.199 3.02 1.75 1.501.871.239.139.031.012.08.041.769.449 1.42.818.48-.279.32-.189h.01l.56-.32.962-.551 1.01-.588.209-.121.25-.141 1.041-.6 2.24-1.291.129-.08.301-.17.01-.01 2.019-1.16.04-.029.312-.18.85-.49.311-.182.51-.287.531-.313 1.74-1.01 1.229-.709.061-.031.631-.359.149-.08 1.06-.619.42-.24.11-.07 1.42-.811v-.01l.45-.248 1.01-.592.711-.42h.01l.16-.091.08-.051.021-.01.3-.17.05-.029.13-.08.16-.09.11-.062.899-.519.039-.021.021-.021.181-.09.781-.449v-.01l.158-.092.029-.009.41-.241.08-.05.12-.069 1.261-.72.631-.38.238-.142.308-.18 1.23-.71h.011l.021-.019.447-.262.512-.289v-.012l.721-.408.039-.031.391-.219.66-.381.301-.171.34-.188.011-.01.169-.101.24-.141.65-.37 2.139-1.23.111-.068.129-.051.24-.131 2.721-1.568.81-.461 1.12-.649.199-.12 4.15-2.391.739-.42.681-.391.01-.01v-53.14l-.209-.12-2.61-1.51-1.81-1.039-.129-.081-.441-.25-.78-.44-1.22-.71-.721-.41-1.459-.84-.17-.1-.49-.29-.26-.14v-.011l-.039-.029-2.133-1.231-1.18-.68-.471-.271-.149-.08-.09-.059h-.011l-.221-.13-1.338-.771-.092-.06-.57-.33-.229-.13-1.371-.79-.58-.33h-.019l-.92-.55-.871-.5-.479-.271-.22-.13-1.6-.91-1.039-.609-.9-.521-6.12-3.53-3.851-2.216-1.061-.609-1.939-1.12-.51-.29-.15-.09-.041-.021-.819-.479h-.009l-5.621-3.25-1.06-.62z"/></clipPath><linearGradient id="b" gradientTransform="matrix(0 -106.24 106.24 0 -749.1022 -77729.7109)" gradientUnits="userSpaceOnUse" x1="-732.7462" x2="-731.7462" y1="7.5761" y2="7.5761"><stop offset="0" stop-color="#eaffef"/><stop offset=".1941" stop-color="#e6fcf0"/><stop offset=".369" stop-color="#dbf4f1"/><stop offset=".5366" stop-color="#c9e5f4"/><stop offset=".6996" stop-color="#afd1f8"/><stop offset=".8579" stop-color="#8eb7fd"/><stop offset=".9208" stop-color="#7fabff"/><stop offset="1" stop-color="#54a1fd"/></linearGradient><clipPath id="c"><path d="m9.787 58.657h57v58.58h-57z"/></clipPath><clipPath id="d"><path d="m26.083 78.051h13.328v10.969h-13.328z"/></clipPath><clipPath id="e"><path d="m16.504 57.99h4.696v3.625h-4.696z"/></clipPath><clipPath id="f"><path d="m27.755 54.115h7v1.883h-7z"/></clipPath><clipPath id="g"><path d="m54.981 80.255h10.655v5.232h-10.655z"/></clipPath><clipPath id="h"><path d="m63.192 91.217h4.225v5.247h-4.225z"/></clipPath><clipPath id="i"><path d="m82.069 65.95h3.566v1.605h-3.566z"/></clipPath><clipPath id="j"><path d="m66.275 79.153h.984v1.203h-.984z"/></clipPath><clipPath id="k"><path d="m74.776 69.025h8.752v8.814h-8.752z"/></clipPath><clipPath id="l"><path d="m84.459 67.704h.711v.479h-.711z"/></clipPath><clipPath id="m"><path d="m72.177 67.122h2.521v1.602h-2.521z"/></clipPath><clipPath id="n"><path d="m58.811 68.991h1.604v.803h-1.604z"/></clipPath><clipPath id="o"><path d="m64.548 79.06h1.122v1.472h-1.122z"/></clipPath><clipPath id="p"><path d="m63.234 78.947h1.255v.878h-1.255z"/></clipPath><clipPath id="q"><path d="m68.227 57.985h13.752v4.299h-13.752z"/></clipPath><clipPath id="r"><path d="m58.946 60.715h.898v2.006h-.898z"/></clipPath><clipPath id="s"><path d="m62.778 59.226h.525v1.68h-.525z"/></clipPath><clipPath id="t"><path d="m56.646 62.721h1.04v1.874h-1.04z"/></clipPath><clipPath id="u"><path d="m61.073 63.898h1.45v8.613h-1.45z"/></clipPath><clipPath id="v"><path d="m65.016 74.724h.577v.346h-.577z"/></clipPath><clipPath id="w"><path d="m68.345 73.407h3.177v1.232h-3.177z"/></clipPath><clipPath id="x"><path d="m66.581 73.317h7.293v3.633h-7.293z"/></clipPath><clipPath id="y"><path d="m68.316 76.081h3.849v1.377h-3.849z"/></clipPath><clipPath id="z"><path d="m68.648 71.798h1.507v1.716h-1.507z"/></clipPath><clipPath id="A"><path d="m61.284 73.069h.938v.91h-.938z"/></clipPath><clipPath id="B"><path d="m61.798 73.923h.36v.082h-.36z"/></clipPath><clipPath id="C"><path d="m64.346 50.255h4.185v10.974h-4.185z"/></clipPath><clipPath id="D"><path d="m80.525 70.439h4.41v20.058h-4.41z"/></clipPath><clipPath id="E"><path d="m18.957 24.578h30.51v7.68h-30.51z"/></clipPath><clipPath id="F"><path d="m9.75 11.044h92.151v106.241h-92.151z"/></clipPath><clipPath id="G"><path d="m52.97 27.966h48.606v9.46h-48.606z"/></clipPath><clipPath id="H"><path d="m52.97 27.966h48.606v9.46h-48.606z"/></clipPath><clipPath id="I"><path d="m52.97 27.966h48.606v9.46h-48.606z"/></clipPath><clipPath id="J"><path d="m52.97 27.966h48.606v9.46h-48.606z"/></clipPath><clipPath id="K"><path d="m52.97 27.966h48.606v9.46h-48.606z"/></clipPath><clipPath id="L"><path d="m52.97 27.966h48.606v9.46h-48.606z"/></clipPath><path d="m110.895 96.013-55.427 32.001-55.423-32.001v-63.999l55.423-32 55.427 32z" fill="#5769ef"/><path clip-path="url(#a)" d="m9.787 10.997h92v106.24h-92z" fill="url(#b)"/><path d="m101.786 58.266v29.772l-39.92-20.612 3.131-3.08.5-.49 14.789-14.51 14.33 12.58z" fill="#7dceff"/><path d="m101.786 87.046v3.64l-.01.012-.68.389-.74.421-4.15 2.39-.198.12-1.12.649-.81.461-2.721 1.57-.24.129-.129.051-.111.07-2.139 1.229-.65.37-.239.14-.17.102-.011.01-.34.188-.301.171-.66.381-.39.22-.04.03-.72.41v.01l-.511.289-.449.261-.02.021h-.012l-1.229.709-.312.181-.239.141-.631.38-1.26.721-.12.069-.08.052-.409.238-.029.012-.16.09v.01l-.78.449-.181.09-.021.021-.038.021-.9.52-.11.061-.16.09-.13.08-.05.029-.3.17-.021.01-.078.051-.16.09h-.012l-.71.42-1.01.59-.45.25v.012l-1.42.811-.109.07-.42.24-1.061.617-.148.08-.632.361-.062.029-1.229.709-1.738 1.012-.531.309-.51.291-.311.182-.852.49-.309.18-.04.029-2.02 1.158-.01.012-.301.17-.131.08-2.238 1.291-1.041.6-.25.139-.209.121-1.012.59-.96.551-.56.318h-.01l-.32.191-.48.279-1.42-.82-.77-.449-.08-.041-.03-.01-.24-.139-1.5-.871-3.02-1.75-.35-.199-.16-.09-.04-.031-.28-.16-.12-.07-.96-.549-.71-.41-.1-.061-2.5-1.439-.01-.01-.93-.541-.4-.24-.2-.109-.29-.17-.12-.068-.809-.471-.691-.391-.89-.51-.17-.1-.38-.221-1.03-.602-1.7-.979-.65-.381-.04-.029-.23-.129-.39-.222-.2-.108-.29-.17-.19-.111-.14-.09-.01-.01-.07-.039-1.77-1.012-.02-.01-.55-.32-.8-.46-.13-.079-.03-.021-.46-.26-.29-.17-.75-.44-1.76-1.021-2.09-1.199-.82-.471-.09-.051-.12-.068-.31-.182-.07-.04-.01-.01-.21-.12h-.01l-.01-.01-1.03-.591c-.01-.01-.01-.01-.02-.01l-.05-.029-1.81-1.051-1.02-.59-2.11-1.229-.29-.171s-.01 0-.02-.01l-.28-.16-.04-.021-.01-.01-.23-.13-.47-.271h-.01l-2.54-1.47-3.28-1.89-.33-.37v-47.16c23.59 6.17 41.06 13.71 54.96 20.16.25.12.5.23.75.35 14.299 6.75 22.601 13.41 36.08 23.07.049.03.09.061.119.08-.07-.06-.18-.15-.22-.19.046.026.136.096.316.226" fill="#53c99e"/><path d="m94.887 94.666-.81.46-2.721 1.57-.24.129-.129.051-.109.07-2.141 1.229-.65.37-.239.14-.17.102-.011.01-.34.188-.301.171-.66.381-.39.22-.04.03-.72.41v.01l-.511.289-.449.261-.02.021h-.012l-1.229.709-.312.182-.239.14-.63.38-1.261.721-.12.069-.08.051-.409.239-.029.011-.16.091v.01l-.78.449-.181.091-.021.02-.038.021-.9.519-.11.062-.159.09-.131.08-.05.029-.3.17-.021.011-.079.05-.16.09h-.011l-.711.42-1.01.59-.45.25v.01l-1.42.811-.109.07-.42.24-1.061.619-.148.08-.632.359-.06.031-1.229.709-1.739 1.01-.531.31-.51.291-.311.18-.85.49-.311.18-.041.029-2.02 1.16-.01.01-.301.17-.13.08-2.239 1.291-1.041.6-.25.141-.209.119-1.011.59-.961.553-.56.318h-.01l-.32.189-.48.279-1.42-.818-.77-.451-.08-.039-.03-.01-.24-.141-1.5-.871-3.02-1.75-.35-.199-.16-.09-.04-.029-.28-.16-.12-.07-.96-.551-.71-.41-.1-.059-2.5-1.441-.01-.01-.93-.539-.4-.24 2.42.199s1.83-3.561 3.49-8.56c1.84-5.539 3.45-12.851 2.09-18.989-2.456-11.104-36.474-32.873-39.764-35.022-.159-.11-.479-.041-.479-.041l-.062-2.188s.58.18.75.25c4.514 1.857 68.433 27.923 84.333 49.653" fill="#62d1a4"/><path clip-path="url(#c)" d="m66.786 110.857-.31.18-.851.49-.311.18-.04.029-2.021 1.16-.01.01-.301.17-.13.08-2.239 1.291-1.041.6-.25.141-.209.119-1.011.59-.96.553-.561.318h-.01l-.319.189-.481.279-1.42-.818-.77-.451-.079-.039-.03-.01-.24-.141-1.5-.871-3.02-1.75-.35-.199-.16-.09-.04-.029-.28-.16-.12-.07-.96-.551-.71-.41-.1-.059-2.5-1.441-.01-.01-.93-.539-.4-.24-.45-.029-5.83-3.592-.65-.379-.04-.029-.23-.129-.39-.222-.2-.108-.29-.17-.19-.11-.14-.091-.01-.011-.07-.038-1.77-1.012-.02-.01-.55-.319-.8-.461-.13-.08-.03-.02-.46-.26-.29-.17-.75-.44-1.76-1.021-2.09-1.199-.82-.472-.09-.05-.12-.068-.31-.182-.07-.04-.01-.01-.21-.12h-.01l-.01-.01-1.03-.59c-.01-.011-.01-.011-.02-.011l-.05-.029-1.81-1.051-1.02-.591-2.11-1.229-.29-.17s-.01 0-.02-.011l-.28-.159-.04-.021-.01-.01-.23-.13-.47-.271h-.01l-2.54-1.47-3.28-1.89-.22-.131-.08-.039-.03-.021v-32.03c10.562 19.832 17.66 28.131 38.24 42.34 5.865 4.046 12.164 7.504 18.764 9.865" opacity=".1"/><path d="m28.018 54.129s1.568-3.027 3.811-1.954c2.242 1.074 1.701 2.155 1.701 2.155z" fill="#a7afac"/><path d="m29.413 54.502s1.431-2.068 4.117-2.111c2.836-.045 1.35 3.004 1.35 3.004z" fill="#9aa5a0"/><path d="m15.142 45.917s.314-1.736 2.094-1.736c1.881 0 1.834 2.568 1.834 2.568z" fill="#9aa5a0"/><path d="m18.17 57.174s.967 2.283 2.573 2.341c1.606.059 2.225-.987 2.225-.987l.349-2.038s-2.687-.938-3.386-1.676l-1.626.657" fill="#a7afac"/><path d="m22.433 56.782-1.631.205-2.426-1.445-.193 1.51.06 1.031.756.558.77.551 1.187.568 1.522-.709z" fill="#787f7c"/><path d="m55.598 97.634c.137 0 .25-.111.25-.25v-17.216c0-.137-.113-.25-.25-.25-.138 0-.25.113-.25.25v17.217c0 .138.112.249.25.249" fill="#53665d"/><path d="m55.577 84.365c.275 0 .5-.227.5-.5v-4.551c0-.274-.225-.5-.5-.5s-.5.226-.5.5v4.551c0 .273.225.5.5.5" fill="#617069"/><path d="m87.454 69.634c-.32 0-.584-.263-.584-.582v-1.75c0-.322.264-.584.584-.584s.582.262.582.584v1.75c0 .321-.262.582-.582.582" fill="#53665d"/><g fill="#fff"><path d="m33.453 19.45c.19.327.373.659.574.981.096.155.063.242-.09.311-.038.018-.073.042-.11.063-.284.159-.283.159-.469-.104-.023-.033-.036-.087-.088-.075-.057.013-.055.074-.07.119-.209.637-.673 1.001-1.296 1.173-.413.114-.769-.014-1.048-.343-.33-.391-.407-.822-.196-1.29.215-.48.615-.771 1.07-.997.163-.081.323-.167.486-.249.111-.056.112-.123.047-.219-.235-.347-.722-.476-1.103-.292-.378.184-.707.431-.966.762-.086.11-.135.101-.226.01-.293-.292-.307-.303-.033-.598.401-.437.879-.761 1.469-.883.596-.124 1.143.114 1.463.635.202.329.389.667.582 1 .001-.002.003-.003.004-.004m-1.467.355c-.275.142-.503.331-.644.611-.129.256-.065.579.146.771.147.135.408.124.653-.001.61-.311.696-1.031.538-1.569-.033-.111-.093-.122-.189-.07-.166.09-.336.172-.504.258"/><path d="m39.177 15.496c.289.498.573.998.868 1.49.08.136.067.218-.077.28-.045.02-.085.048-.128.073-.27.157-.27.157-.456-.088-.029-.038-.068-.095-.103-.096-.072-.001-.062.079-.078.129-.217.629-.887 1.16-1.514 1.2-.448.028-.778-.177-.998-.543-.451-.752-.88-1.516-1.323-2.273-.061-.106-.058-.164.056-.234.449-.276.446-.281.708.169.336.575.675 1.149 1.008 1.726.151.26.325.491.66.475.359-.018.624-.22.781-.53.255-.5.202-1.013-.049-1.495-.256-.49-.547-.964-.829-1.439-.071-.121-.07-.186.063-.263.442-.257.438-.263.694.181.239.411.478.825.717 1.238z"/><path d="m41.99 16.144c-.317.207-.667.327-1.031.411-.098.023-.235.083-.291-.013-.076-.128-.104-.289-.13-.439-.01-.063.077-.062.131-.075.418-.099.819-.24 1.184-.474.158-.099.289-.223.389-.377.121-.185.107-.369-.019-.55-.116-.167-.282-.172-.452-.133-.233.053-.446.164-.666.254-.273.112-.552.209-.85.217-.676.021-1.185-.619-1.016-1.276.151-.588.587-.921 1.095-1.177.281-.141.577-.249.893-.298.151-.024.227.008.266.174.078.332.09.331-.228.405-.395.093-.749.273-1.079.504-.056.04-.106.093-.15.145-.198.238-.233.466-.105.653.119.175.33.219.631.111.283-.105.558-.23.841-.33.225-.082.461-.124.702-.09.736.104 1.092.971.678 1.66-.189.317-.472.532-.793.698"/><path d="m26.936 24.877c-.369.228-.745.357-1.138.439-.077.018-.182.059-.225-.046-.059-.14-.129-.285-.105-.44.01-.063.092-.047.145-.061.495-.12.968-.288 1.36-.629.062-.055.117-.121.164-.189.148-.216.148-.365.013-.563-.131-.19-.32-.2-.508-.137-.278.092-.547.216-.822.317-.131.05-.267.088-.404.115-.497.1-.875-.044-1.125-.456-.246-.403-.223-.825.044-1.208.45-.646 1.117-.931 1.865-1.062.106-.02.177.005.194.127.012.076.034.152.064.222.055.13.029.178-.121.205-.433.077-.833.246-1.192.504-.167.121-.304.273-.356.48-.075.292.137.541.437.508.305-.033.574-.177.852-.292.215-.089.437-.156.667-.18.462-.05.8.141 1.018.552.186.352.14.854-.108 1.174-.204.266-.442.489-.719.62"/><path d="m18.954 23.539c.47-.273.939-.545 1.409-.817.582-.335 1.331-.16 1.697.406.54.838.994 1.728 1.505 2.583.121.204.254.399.31.634.13.55-.1 1.12-.599 1.413-.944.555-1.893 1.104-2.847 1.643-.617.349-1.373.133-1.732-.481-.536-.916-1.06-1.839-1.602-2.751-.404-.679-.143-1.495.488-1.837.464-.251.915-.528 1.371-.793zm-.824 4.075c.21.361.433.719.627 1.09.166.318.404.536.745.642.175.055.341.137.541.107.15-.024.259-.114.39-.164.271-.102.519-.248.761-.4.568-.355 1.158-.676 1.734-1.018.225-.134.468-.239.627-.465.099-.141.177-.306.177-.456 0-.125-.02-.239.044-.354.008-.013-.002-.037-.003-.057-.013-.258-.09-.482-.23-.71-.506-.825-.983-1.668-1.45-2.517-.046-.084-.122-.167-.203-.24-.158-.146-.373-.145-.537-.258-.34-.234-.684-.172-1.006.017-.858.502-1.743.956-2.55 1.541-.084.061-.176.11-.269.155-.361.177-.431.507-.454.857-.023.368.161.67.33.973.236.423.484.837.726 1.257"/><path d="m36.171 19.521c-.694.417-1.26.273-1.658-.396-.325-.549-.646-1.102-.959-1.657-.081-.144-.158-.184-.293-.08-.032.026-.072.043-.108.064-.279.161-.279.161-.44-.119-.14-.243-.14-.242.108-.389.375-.223.327-.14.166-.473-.188-.39-.191-.38.199-.615.149-.089.223-.073.312.08.265.462.271.459.733.191.049-.028.097-.057.146-.084.363-.201.266-.231.502.141.096.15.07.235-.082.315-.198.104-.387.229-.584.335-.109.061-.131.122-.064.233.341.58.672 1.166 1.016 1.745.215.362.565.377.947.061.071-.06.115-.2.221-.158.137.053.218.193.311.305.048.059-.007.115-.05.164-.131.15-.288.268-.423.337"/><path d="m28.202 21.721c-.166-.285-.334-.569-.495-.855-.076-.136-.162-.19-.299-.082-.011.008-.024.014-.036.021-.441.243-.329.233-.599-.21-.047-.078-.028-.129.049-.171.092-.05.178-.116.274-.157.179-.076.189-.183.079-.325-.021-.027-.04-.058-.052-.091-.046-.127-.236-.254-.15-.359.112-.139.312-.205.477-.299.043-.024.082.004.108.039.025.033.046.07.069.107.283.455.283.455.741.189.042-.023.085-.049.127-.073.375-.215.372-.214.564.168.056.109.042.182-.066.243-.213.12-.422.251-.637.367-.11.061-.133.12-.066.233.342.58.673 1.167 1.019 1.745.22.366.618.374.975.021.104-.102.174-.193.314-.041.255.276.261.276.071.464-.198.194-.435.338-.689.435-.514.199-.963.002-1.3-.551-.164-.27-.318-.545-.476-.818z"/><path d="m18.13 27.614c-.243-.419-.49-.834-.726-1.257-.169-.303-.354-.604-.33-.973.022-.351.093-.681.454-.857.093-.045.185-.095.269-.155.806-.585 1.692-1.039 2.549-1.541.322-.189.667-.251 1.007-.017.164.113.378.111.537.258.081.073.156.156.202.24.467.849.945 1.691 1.45 2.517.14.229.218.452.23.71.001.019.011.044.004.057-.064.114-.045.229-.045.354.001.15-.077.316-.176.456-.16.226-.402.331-.627.465-.577.342-1.166.662-1.734 1.018-.243.152-.491.298-.761.4-.132.05-.241.141-.391.164-.2.03-.365-.052-.541-.107-.34-.105-.578-.323-.744-.642-.194-.371-.417-.729-.627-1.09m2.462.102c.026-.015.051-.03.077-.044.22-.121.423-.258.558-.483.082-.136.18-.257.13-.431-.006-.024.011-.059.026-.083.183-.293-.01-.577-.023-.865-.002-.029-.028-.072-.054-.085-.19-.091-.072-.189-.004-.274.067-.084.149-.153.167-.271.035-.233-.043-.431-.146-.64-.13-.266-.37-.292-.599-.361-.069-.02-.131.009-.195.043-.185.099-.353.226-.539.325-.256.137-.45.35-.544.644-.113.354-.121.699.004 1.054.045.126.15.273.038.403-.111.13-.093.295-.168.433-.032.057-.027.134-.01.202.11.44.653.909 1.155.507.038-.03.085-.048.127-.074"/><path d="m20.592 27.715c-.042.025-.089.045-.127.076-.502.401-1.045-.067-1.155-.507-.017-.069-.022-.146.01-.202.075-.138.057-.305.168-.433.112-.13.007-.277-.037-.403-.125-.355-.118-.7-.004-1.055.093-.294.287-.507.544-.644.186-.1.353-.226.538-.324.064-.034.127-.063.195-.043.229.068.469.095.599.361.103.209.181.405.146.64-.017.116-.099.186-.167.27-.068.085-.186.184.004.274.026.013.053.055.054.084.013.288.205.572.023.865-.015.025-.032.06-.026.083.05.174-.048.296-.13.432-.135.224-.337.361-.558.482-.026.014-.051.031-.077.044m-.075-.018c.605-.333.892-1.093.666-1.763-.033-.099-.077-.092-.151-.045-.26.162-.537.289-.819.409-.226.097-.437.228-.607.414-.214.232-.254.554-.094.789.214.313.484.407.816.278.064-.024.126-.055.189-.082m.686-3.005c-.182-.307-.466-.421-.779-.3-.79.307-1.124 1.116-.887 1.851.028.086.059.111.146.058.167-.103.338-.199.519-.281.28-.127.584-.216.811-.435.221-.216.424-.536.19-.893"/></g><path clip-path="url(#d)" d="m39.412 84.051-7.234 4.969-6.095-5.892 2.891-5.077z" opacity=".1"/><path clip-path="url(#e)" d="m21.2 59.864-2.549 1.75-2.147-2.075 1.627-1.55z" opacity=".1"/><path clip-path="url(#f)" d="m34.755 55.208-2.84.653c-.982.227-2.008.169-2.959-.168l-1.201-.424.5-1.155z" opacity=".1"/><path d="m86.761 71.176h-13.24c-1.021 0-1.858-.837-1.858-1.859v-1.572c0-1.022.838-1.859 1.858-1.859h13.24c1.021 0 1.858.837 1.858 1.859v1.572c.001 1.022-.837 1.859-1.858 1.859" fill="#dbce9a"/><path d="m86.761 71.176h-13.24c-1.021 0-1.858-.837-1.858-1.859v-1.572c0-1.022.838-1.859 1.858-1.859h13.24c1.021 0 1.858.837 1.858 1.859v1.572c.001 1.022-.837 1.859-1.858 1.859z" fill="none" stroke="#63392e" stroke-miterlimit="10" stroke-width=".5"/><path d="m85.099 84.843h-10.791c-1.455 0-2.646-1.191-2.646-2.646v-8.582c0-1.457 1.19-2.646 2.646-2.646h10.791c1.457 0 2.646 1.189 2.646 2.646v8.582c0 1.455-1.189 2.646-2.646 2.646" fill="#dbce9a"/><path d="m85.099 84.843h-10.791c-1.455 0-2.646-1.191-2.646-2.646v-8.582c0-1.457 1.19-2.646 2.646-2.646h10.791c1.457 0 2.646 1.189 2.646 2.646v8.582c0 1.455-1.189 2.646-2.646 2.646z" fill="none" stroke="#63392e" stroke-miterlimit="10" stroke-width=".5"/><path d="m80.048 70.259h4.331c.814 0 1.479-.666 1.479-1.479s-.666-1.479-1.479-1.479h-4.331c-.813 0-1.479.666-1.479 1.479s.665 1.479 1.479 1.479" fill="#afa279"/><path d="m81.048 83.301h2.54c.757 0 1.375-.619 1.375-1.375v-7.833c0-.756-.618-1.375-1.375-1.375h-2.54c-.757 0-1.375.619-1.375 1.375v7.833c0 .756.618 1.375 1.375 1.375" fill="#afa279"/><path d="m87.266 69.926c-.311 0-.563-.253-.563-.562v-1.752c0-.31.252-.563.563-.563.309 0 .563.253.563.563v1.752c0 .309-.254.562-.563.562" fill="#f9ebc0"/><path d="m86.516 82.301c-.311 0-.563-.253-.563-.562v-8.251c0-.31.252-.563.563-.563.309 0 .563.253.563.563v8.252c0 .308-.254.561-.563.561" fill="#f9ebc0"/><path d="m25.094 77.784s.682-5.908 2.348-6.06c1.666-.15 11.36 2.195 11.891 3.257.53 1.06.9 7.674.445 8.889-.103.273-14.684-6.086-14.684-6.086" fill="#a7afac"/><path d="m26.802 72.614c.55-.139 9.052 3.992 9.293 4.475l1.48-1.103 2.031 8.021-14.512-6.223z" fill="#787f7c"/><path d="m17.379 76.974c-2.113 0 7.609.477 7.609.477s1.551-3.197.329-3.938c-1.221-.74-6.764-.714-7.139-.476-.376.238-.799 3.937-.799 3.937" fill="#a7afac"/><path d="m18.473 74.437 6.011.494.39-.257.115 2.776-7.848-.307z" fill="#787f7c"/><path d="m21.226 79.669s1.721 4.062 4.578 4.164c2.857.103 3.958-1.755 3.958-1.755l.344-4.233s-2.34-2.409-5.748-2.375l-2.891 1.17" fill="#a7afac"/><path d="m28.661 78.43-2.753.905-4.314-2.569-.346 2.686.106 1.836 1.349.993 1.369.978 2.111 1.011 2.707-1.263z" fill="#787f7c"/><path d="m77.963 98.259c-.096 1.189-4.221 1.826-9.211 1.421-4.989-.404-8.957-1.697-8.859-2.886.098-1.19 4.221-1.827 9.211-1.422 4.989.405 8.956 1.697 8.859 2.887" fill="#3daa7b"/><path d="m79.022 83.322-.236-1.045c-.018-.07-.078-.135-.154-.161l-.711-.259c-.104-.035-.172-.141-.153-.229.021-.09.119-.133.226-.095l.389.141c.137.05.253-.036.223-.163l-.113-.479c-.022-.099.043-.177.146-.179.025 0 .051.006.074.015.074.026.139.09.156.164l.598 2.579c.001.005.001.008.001.012" fill="#63392e"/><path d="m65.636 80.255-6.274 2.767-3.519-1.613.616 1.161h-1.478l4.66 2.919 4.635-.289" fill="#d7723b"/><path d="m59.641 85.724c-.043 0-.086-.013-.125-.037l-4.661-2.918c-.089-.056-.13-.164-.101-.264.029-.103.121-.171.226-.171h1.089l-.433-.817c-.047-.089-.033-.199.037-.271.069-.073.177-.095.269-.054l3.423 1.572 6.176-2.726c.119-.053.258.002.311.121.053.117-.002.257-.121.31l-6.273 2.769c-.061.026-.131.026-.191-.003l-2.89-1.324.291.55c.039.073.037.16-.006.229-.041.071-.119.115-.201.115h-.66l3.904 2.443 4.56-.285c.129-.008.239.092.248.221.008.129-.091.24-.22.248l-4.635.291h-.017z" fill="#63392e"/><path d="m55.844 81.409.615 1.161h-1.479l1.761 1.101.966-1.408z" fill="#555759"/><path d="m56.739 83.882c-.039 0-.078-.01-.111-.031l-1.759-1.102c-.08-.05-.117-.146-.091-.238.026-.09.109-.152.204-.152h1.127l-.452-.853c-.042-.079-.029-.179.034-.245.062-.064.159-.084.242-.047l1.863.856c.058.025.101.074.115.136.019.061.006.125-.028.178l-.97 1.406c-.041.061-.107.092-.174.092m-1.022-1.099.962.603.71-1.033-1.066-.489.324.608c.034.066.032.146-.006.209s-.107.104-.182.104z" fill="#63392e"/><path clip-path="url(#g)" d="m65.636 80.255-6.274 2.767-3.519-1.613.616 1.161h-1.478l4.66 2.919 4.635-.289" opacity=".1"/><path d="m67.416 96.465h-1.146l-3.078-5.248 3.545 2.005z" fill="#d7723b"/><path d="m67.418 96.702h-1.147c-.084 0-.159-.045-.203-.116l-3.077-5.249c-.054-.092-.039-.208.037-.283.072-.076.19-.093.281-.04l3.544 2.005c.06.033.101.09.114.156l.681 3.244c.015.067-.002.141-.048.195-.045.055-.113.088-.182.088m-1.013-.472h.723l-.6-2.854-2.689-1.523z" fill="#63392e"/><path clip-path="url(#h)" d="m67.416 96.465h-1.146l-3.078-5.248 3.545 2.005z" opacity=".1"/><path d="m82.684 71.511.868-.694-6.39-2.211-9.365 11.063-4.229-1.74-.177 6.136-.806 2.63c-.467 1.524-.245 3.175.604 4.522 1.005 1.589 2.75 2.552 4.63 2.552h3.112c3.513 0 6.562-2.413 7.367-5.83l1.132-3.045.075-.008 2.737-1.631.496-3.709 1.491 1.015c1.271-3.14-.698-5.972-.698-5.972l1.381.471c.261-1.791-2.228-3.549-2.228-3.549" fill="#d7723b"/><path d="m70.934 94.005h-3.113c-1.971 0-3.775-.996-4.826-2.663-.889-1.406-1.117-3.126-.631-4.716l.797-2.601.174-6.104c.002-.077.041-.148.105-.19s.146-.05.217-.02l4.072 1.674 9.254-10.932c.063-.074.164-.104.256-.071l6.391 2.211c.08.028.14.099.154.183.015.084-.018.171-.086.224l-.631.507c.646.516 2.309 2.009 2.082 3.587-.01.07-.049.131-.109.168-.061.036-.133.044-.198.021l-.785-.269c.166.322.366.771.53 1.314.314 1.041.548 2.635-.133 4.319-.027.065-.082.116-.15.138-.066.021-.141.01-.2-.031l-1.178-.801-.445 3.332c-.011.07-.052.135-.112.172l-2.738 1.63c-.006.004-.014.008-.021.011l-1.081 2.908c-.404 1.697-1.38 3.229-2.748 4.313-1.376 1.088-3.097 1.686-4.847 1.686m-7.141-15.728-.164 5.796c-.002.021-.004.041-.01.062l-.807 2.631c-.447 1.459-.234 3.036.578 4.327.965 1.529 2.621 2.443 4.43 2.443h3.113c1.646 0 3.262-.563 4.551-1.584 1.291-1.021 2.209-2.466 2.586-4.065.004-.009.008-.019.01-.028l1.133-3.045c.031-.083.105-.142.195-.151l.023-.002 2.596-1.545.48-3.599c.012-.081.063-.149.139-.184.073-.033.16-.025.228.021l1.244.848c.404-1.168.412-2.418.021-3.719-.318-1.056-.793-1.751-.798-1.758-.058-.083-.056-.193.007-.273.06-.082.166-.115.262-.082l1.09.37c-.053-1.533-2.129-3.021-2.15-3.035-.063-.043-.098-.111-.1-.186-.004-.072.029-.146.088-.189l.533-.429-5.834-2.02-9.26 10.938c-.064.078-.175.104-.27.066z" fill="#63392e"/><path d="m77.564 89.853-3.463 6.652-1.117.417-.587-4.45" fill="#d7723b"/><path d="m72.985 97.159c-.043 0-.084-.013-.121-.033-.063-.037-.104-.101-.111-.171l-.59-4.45c-.016-.129.074-.247.203-.264.129-.019.246.071.266.2l.548 4.158.755-.283 3.423-6.57c.06-.115.201-.16.316-.102.114.062.159.203.1.318l-3.463 6.652c-.026.051-.071.091-.126.11l-1.115.416c-.029.013-.057.019-.085.019" fill="#63392e"/><path d="m82.522 81.188-.563 4.358-.837 4.951-1.107-1.086-.69 1.086.571-4.592-1.085-4.035" fill="#d7723b"/><path d="m79.325 90.732c-.026 0-.055-.005-.08-.015-.104-.037-.168-.142-.153-.25l.565-4.547-1.072-3.991c-.034-.125.039-.254.166-.288.125-.034.254.041.287.166l1.086 4.036c.009.029.011.062.006.09l-.442 3.553.13-.2c.038-.062.102-.101.172-.108.069-.008.141.017.19.065l.787.771.762-4.502.562-4.354c.018-.129.137-.22.266-.203.127.017.219.134.203.263l-.563 4.358c0 .004-.002.007-.002.01l-.839 4.949c-.014.086-.075.157-.159.185-.082.028-.175.006-.236-.056l-.9-.883-.534.842c-.05.068-.124.109-.202.109" fill="#63392e"/><path d="m86.114 66.056-.063-.245-.246.053c-2.902.6-3.744-.561-3.904-.846l.66-3.612-.143-.097c-1.475-.996-3.547-.968-4.463-.896l.463-1.063-.207-.118c-2.148-1.221-4.529-.918-5.521-.711l.289-.912-.3-.051c-1.961-.332-3.547.191-4.642.796l.095.256.012.029.083.225c.964-.545 2.357-1.04 4.063-.829l-.396 1.253.479-.146c.029-.009 2.869-.85 5.367.438l-.64 1.476.471-.072c.027-.003 2.668-.388 4.406.671l-.045.248-.581 3.181.028.069c.015.036.183.434.687.796.53.381 1.435.725 2.927.572.201-.021.416-.05.64-.09.01.188-.007.458-.121.743-.015.036-.03.072-.05.109-.02.041-.041.082-.065.123-.008.014-.017.026-.024.041-.045.069-.097.138-.152.2-.017.019-.032.035-.049.054-.186.19-.422.352-.711.479-.25.11-.541.196-.869.256l-.242.044v.002c-.182.025-1.582.216-1.84-.032-.043-.041-.078-.093-.107-.149-.035-.067-.061-.142-.08-.216-.021-.078-.033-.156-.041-.229-.018-.172-.01-.308-.01-.308s-.096.149-.178.354c-.033.08-.064.171-.088.263-.021.086-.037.174-.041.261-.008.181.035.354.17.483.285.268 1.14.238 1.734.183.239-.024.438-.052.541-.067l.119 1.063-1.213.643.624 1.363-1.42.452.063 1.555-1.642-.242-.333 1.438-1.697-.271-.49 1.684-1.336-.197-.588 1.281-.721.047-.975.063-1.486 2.696-2.363-.252-3 1.86-.233-1.105-1.728.842-.293.144-.293.143-.576.28.258-2.02-1.646.694-.134-3.047-1.172-.257-.961-2.433-1.36-.942c-.343-.938.021-1.67.034-1.7l.19-.367-1.368-.06c-.541-1.54-.939-3.564-1.2-5.166.022-.047.034-.075.037-.083l-.054-.021c-.168-1.051-.275-1.907-.321-2.306l1.071-.211-.558-1.476c.368-.188.72-.313 1.041-.397.653-.17 1.173-.159 1.423-.106l.48.106-.644-1.663c.293-.155.596-.265.897-.343 1.496-.388 2.957.038 2.975.044l.483.146-.524-1.606c.164-.036.327-.06.487-.073.103-.01.203-.014.302-.015l.006-.267c-.082.002-.166.006-.25.012l.002-.001-.002.001c.084-.006.168-.01.25-.012l.006-.265c-.39.005-.799.059-1.213.18l-.261.078.393 1.205c-.813-.154-2.533-.325-4.018.572l-.189.114.475 1.227c-.527-.011-1.465.086-2.577.708l-.198.111.5 1.322-.936.184.025.24c.01.095.126 1.171.355 2.602-.19.282-.591.704-1.32.778-.009.002-.019.002-.028.003l-.275.023.072.268c.004.015.418 1.478 1.853 1.333.045-.006.092-.012.139-.021.232 1.089.518 2.19.858 3.118l.06.165.949.042c-.11.396-.201 1.07.107 1.843l.029.073 1.359.944 1.006 2.544 1.051.229.15 3.399 1.5-.634-.265 2.08.981-.479.187-.092.104-.051.293-.145 1.595-.773.248 1.179 3.073-1.907.41-.254 2.533.271 1.517-2.754 1.72-.111.555-1.207 1.4.206.485-1.677 1.726.272.334-1.44 1.793.264-.073-1.789 1.603-.51-.662-1.451 1.091-.578-.114-1.018-.052-.459c.886-.205 1.521-.6 1.89-1.175.021-.035.042-.067.063-.102h.006c.039-.068.074-.141.104-.217.002-.004.004-.009.006-.013.029-.071.055-.146.076-.225h-.001c.007-.023.015-.048.021-.07.143-.557.03-1.021.024-1.047m-31.189 2.364c.502-.105.86-.349 1.108-.597.074.428.156.877.248 1.332-.809.125-1.195-.401-1.356-.735" fill="#63392e"/><path d="m60.331 67.162c.002-.018.004-.032.002-.051-.014-.143-.168-.243-.349-.228-.131.013-.237.085-.28.179-.002.008-.006.017-.008.023-.101.266-.144.652-.104 1.075.035.389.135.732.264.974.012.021.023.044.036.064.004.007.008.014.013.021.047.067.131.113.229.124.026.002.053.004.079.001.181-.017.314-.146.302-.288-.002-.018-.006-.033-.013-.049-.004-.014-.01-.029-.019-.042-.104-.231-.181-.534-.212-.868s-.011-.646.049-.893c.005-.013.009-.029.011-.042" fill="#63392e"/><path d="m72.461 65.721c.002-.018.002-.036.002-.056-.016-.162-.191-.279-.396-.26-.147.013-.27.096-.317.202l-.012.025c-.113.301-.164.741-.119 1.223s.172.905.34 1.182c.004.009.008.017.015.023.067.098.2.155.351.144.014-.002.027-.004.041-.006.182-.033.315-.173.301-.322-.002-.021-.006-.037-.012-.055-.004-.011-.009-.021-.014-.029-.004-.006-.006-.012-.01-.019-.115-.264-.203-.606-.237-.987-.035-.381-.011-.734.056-1.017.004-.014.009-.03.011-.048" fill="#63392e"/><path d="m63.565 73.249c-.211-.298-.58-.571-1.041-.737-.39-.139-.773-.177-1.097-.128-.382.058-.677.235-.776.519-.188.52.352 1.187 1.198 1.489.171.063.339.104.503.125.074.018.15.03.226.044.047.185.113.525.166 1.088.039.433-.231.695-.473.929-.19.186-.369.36-.332.603.037.229.254.362.441.454.721.355 2.191.715 3.295.878.08.011.158.022.232.032.082.01.16.02.235.027.188.019.358.028.5.03.375 0 .925-.024 1.563-.091.381-.038.791-.091 1.217-.159.904-.147 2.175-.428 3.1-.914 1.596-.84 2.151-2.059 1.604-3.523-.143-.382-.436-.68-.844-.859-.031-.015-.063-.026-.096-.039-.097-.036-.197-.064-.303-.09-.115-.026-.234-.046-.357-.058-.526-.047-1.115.039-1.666.261-.158.063-.316.124-.475.182.48-.492.693-1.065.507-1.547-.313-.811-1.642-1.054-2.967-.541-.677.262-1.222.669-1.552 1.115v-.001c-2.011 1.737-2.808.911-2.808.911m4.327 2.889c.005-.001.009-.001.015-.002.139-.016.274-.029.41-.037 1.836-.125 3.408.379 3.848 1.002-.276.133-.586.252-.912.355-1.606.509-3.676.684-4.604.682-.103 0-.22-.007-.35-.018-.075-.006-.152-.015-.234-.024-.075-.009-.153-.018-.233-.03-.515-.071-1.127-.191-1.701-.336.324-.53 1.25-1.03 2.434-1.342.23-.061.473-.113.721-.158.195-.035.398-.066.606-.092m4.565.81c-.5-.769-2.129-1.259-3.922-1.188-.17.006-.342.019-.516.036-.051.005-.102.009-.152.014-.117.015-.235.03-.353.049-.024.002-.048.007-.071.011-1.804.28-3.229.976-3.645 1.774-.486-.133-.922-.28-1.215-.424-.107-.053-.156-.091-.178-.111.032-.05.121-.135.188-.198.268-.261.67-.651.609-1.304-.041-.438-.09-.752-.135-.972.09.011.182.022.274.03.011.396.285.718.627.721l1.312.016c.021 0 .043-.002.063-.004.153-.015.293-.093.401-.224.102-.123.162-.281.177-.45.147-.007.288-.016.424-.029.078-.008.155-.018.231-.025.494-.056.972-.128 1.437-.218.06.19.194.348.38.438.135.067.286.093.438.077.054-.005.107-.016.158-.031l.068-.021.926-.278.926-.277.363-.108c.201-.061.369-.19.473-.366.004-.009.009-.017.013-.026.057-.101.085-.209.09-.319.002-.063-.004-.127-.019-.189.131-.018.261-.026.388-.026.142-.003.278.006.407.025.172.026.33.069.471.132.298.131.498.332.6.599.45 1.2.046 2.139-1.238 2.866m-6.962-1.986c-.059.07-.131.106-.205.106l-.273-.004-1.041-.011c-.15-.002-.279-.164-.299-.364.417.028.837.035 1.244.029.055.002.107.003.162.004.172.006.344.008.511.006-.015.092-.047.172-.099.234m5.681-1.029-.04.012-.886.268-1.352.405c-.121.037-.248.026-.355-.025-.094-.046-.162-.119-.199-.21.884-.188 1.729-.446 2.572-.78.039-.015.076-.028.115-.045.057-.022.113-.043.17-.063l.252-.075c.019-.005.035-.009.056-.013.005.019.008.036.01.057.011.085-.009.173-.056.252-.02.033-.043.063-.07.091-.057.059-.13.104-.212.126z" fill="#63392e"/><path d="m56.471 67.214c.259 1.602.658 3.627 1.199 5.166l1.367.061-.189.367c-.016.031-.377.764-.035 1.701l1.359.941.962 2.433 1.172.257.135 3.047 1.646-.694-.258 2.02.576-.28.293-.144.293-.142 1.728-.843.233 1.105 2.998-1.86 2.365.251 1.487-2.698.974-.063.721-.047.588-1.28 1.338.196.486-1.684 1.699.271.332-1.438 1.645.242-.063-1.556 1.42-.45-.623-1.364 1.212-.643-.119-1.063c-.104.017-.302.044-.539.067-.599.058-1.451.085-1.735-.183-.138-.129-.179-.304-.171-.482.004-.088.02-.176.041-.262.023-.092.054-.182.087-.263.084-.204.178-.354.178-.354s-.007.135.011.307c.008.072.021.151.041.229.02.074.045.148.08.217.028.056.063.107.107.148.258.248 1.658.059 1.84.031v.002l.242-.044c.328-.059.617-.146.869-.256.289-.128.527-.288.711-.479.016-.019.033-.035.049-.054.057-.063.107-.131.152-.2.01-.015.017-.027.024-.041.024-.041.048-.082.067-.123.019-.037.033-.074.048-.109.114-.285.13-.557.121-.743-.226.04-.438.069-.64.09-1.492.151-2.396-.191-2.926-.572-.506-.363-.674-.76-.688-.796l-.028-.069.58-3.181.046-.25c-1.738-1.058-4.379-.673-4.406-.669l-.472.071.642-1.477c-2.5-1.288-5.338-.447-5.369-.439l-.479.146.396-1.253c-1.705-.21-3.1.284-4.063.83l.226.609.222.598.003.019c.008.043.07.429-.238.843-.367.494-1.09.799-2.146.906 0 0-.002.001-.004.001-2.565.26-2.744-.742-2.756-.858l-.002-.014v-.015l.039-1.743c-.1.001-.201.006-.302.015-.161.015-.323.037-.487.073l.523 1.607-.484-.147c-.018-.005-1.478-.432-2.975-.044-.303.078-.605.188-.898.343l.646 1.663-.479-.105c-.25-.054-.771-.064-1.425.105-.319.084-.672.21-1.04.397l.559 1.477-1.071.21c.046.397.153 1.255.321 2.307m15.288-1.501c.05-.105.17-.188.318-.201.204-.021.381.098.396.26.001.02.001.037-.002.056-.004.02-.008.034-.014.051-.066.28-.091.635-.058 1.016.035.381.122.725.239.987.004.007.006.013.008.019.005.01.011.02.016.029.006.018.01.034.012.055.014.151-.119.289-.301.322-.016.002-.027.004-.041.006-.149.014-.285-.047-.353-.143-.005-.008-.011-.016-.017-.023-.166-.276-.295-.699-.338-1.183-.043-.482.006-.921.121-1.222zm-12.052 1.477c.002-.008.006-.017.008-.023.043-.094.149-.167.281-.179.178-.017.334.086.348.229.002.018 0 .032-.002.049s-.006.03-.01.045c-.06.246-.08.559-.049.893.031.335.107.637.213.869.006.013.014.027.02.041.005.016.009.031.01.048.016.145-.121.272-.299.289-.028.002-.057.001-.08-.001-.1-.012-.184-.057-.229-.123-.004-.008-.01-.016-.015-.021-.013-.021-.022-.043-.035-.063-.129-.242-.228-.585-.264-.974-.04-.426.003-.814.103-1.079m13.588 5.968c.408.18.701.479.844.86.549 1.465-.008 2.684-1.604 3.522-.925.486-2.195.767-3.1.913-.426.069-.836.122-1.217.161-.639.064-1.188.089-1.563.089-.142-.001-.312-.011-.501-.031-.074-.007-.152-.016-.234-.025-.074-.01-.152-.021-.232-.032-1.104-.163-2.574-.522-3.295-.878-.188-.092-.405-.227-.441-.454-.037-.242.143-.417.332-.603.24-.232.512-.496.473-.929-.053-.563-.119-.903-.166-1.088-.076-.014-.15-.026-.226-.044-.164-.021-.333-.063-.503-.125-.849-.304-1.386-.972-1.198-1.49.102-.281.395-.461.776-.518.323-.05.708-.011 1.097.128.461.166.83.439 1.041.738 0 0 .797.824 2.809-.912.33-.445.875-.854 1.554-1.115 1.325-.512 2.651-.27 2.966.541.188.48-.025 1.054-.507 1.547.157-.059.316-.118.476-.182.551-.223 1.141-.311 1.668-.262.123.012.241.03.356.057.104.025.206.055.302.091.029.015.061.028.093.041" fill="#d7723b"/><path d="m54.925 68.42c.161.334.547.857 1.356.735-.092-.455-.174-.904-.248-1.332-.247.25-.606.492-1.108.597" fill="#d7723b"/><path d="m67.498 75.835-.055.031c.023-.004.047-.008.071-.012z" fill="#555759"/><path d="m71.85 73.536.369-.219c-.126.002-.256.012-.389.028.018.064.022.127.02.191" fill="#555759"/><path d="m67.868 75.809c.051-.007.104-.011.152-.015l1.967-1.16-.926.278-1.563.923.017.021c.117-.017.233-.032.353-.047" fill="#555759"/><path d="m71.85 73.536c-.004.109-.034.219-.089.32l.866-.511c-.131-.021-.269-.029-.408-.028z" fill="#555759"/><path d="m68.02 75.794c.174-.019.346-.03.518-.036l2.375-1.401-.926.277z" fill="#555759"/><path d="m71.016 73.759-.766.451.886-.265z" fill="#fff"/><path d="m71.176 73.933.217-.128c.027-.028.053-.058.071-.091.046-.079.063-.167.055-.252l-.502.297.119.186z" fill="#fff"/><path d="m71.181 73.931c.082-.022.155-.067.213-.125l-.217.127z" fill="#fff"/><path d="m67.444 75.868.055-.031-.918-1.17c-.076.01-.151.019-.229.026-.135.015-.278.023-.424.029-.015.169-.076.328-.179.451-.106.129-.248.207-.401.223-.021.003-.041.004-.063.003l-1.314-.015c-.341-.004-.614-.324-.627-.721-.091-.009-.183-.02-.272-.029.045.219.096.533.135.971.06.652-.344 1.043-.609 1.303-.066.064-.154.149-.188.199.021.021.07.06.178.111.293.144.729.291 1.215.425.413-.8 1.837-1.494 3.641-1.775" fill="#555759"/><path d="m68.993 74.933c-.052.017-.104.025-.158.031-.15.016-.301-.01-.437-.076-.186-.092-.32-.247-.38-.438-.464.09-.942.161-1.437.217l.918 1.17 1.563-.924z" fill="#555759"/><path d="m64.92 74.72c-.407.007-.828 0-1.245-.029.021.201.147.362.301.364l1.041.012.065-.343c-.054-.001-.107-.002-.162-.004" fill="#fff"/><path d="m65.495 74.962c.051-.063.084-.144.099-.231-.166.001-.339-.001-.513-.007l-.064.342.271.004c.076 0 .148-.036.207-.108" fill="#fff"/><path d="m68.543 74.591c.107.053.232.063.355.025l1.352-.405.767-.452-.101-.158c-.846.334-1.688.592-2.571.78.034.091.105.164.198.21" fill="#fff"/><path d="m71.518 73.462c-.002-.02-.004-.037-.011-.057-.019.004-.036.008-.054.013l-.252.075c-.058.02-.115.04-.17.063-.039.017-.076.03-.117.045l.102.158z" fill="#fff"/><path d="m71.748 73.882c-.104.174-.271.305-.473.365l-.363.108-2.375 1.4c1.793-.068 3.418.422 3.92 1.19 1.283-.729 1.688-1.669 1.238-2.873-.1-.268-.303-.469-.598-.6-.143-.063-.301-.105-.471-.131l-.867.51c-.002.014-.007.022-.011.031" fill="#555759"/><path d="m68.317 76.099c-.137.009-.271.021-.41.037-.006.001-.01.002-.014.002-.209.023-.412.056-.611.092-.248.045-.49.099-.721.158-1.184.311-2.107.811-2.434 1.341.574.145 1.188.268 1.701.337.08.013.158.021.233.031.082.009.16.018.233.023.131.012.248.018.351.019.931.001 2.998-.173 4.604-.683.326-.104.636-.223.912-.354-.436-.625-2.008-1.128-3.844-1.003" fill="#f27d7f"/><path clip-path="url(#i)" d="m85.198 67.419c.092-.037.182-.081.268-.134.019-.037.033-.073.048-.109.114-.285.13-.557.121-.743-.226.04-.438.069-.64.091-1.492.15-2.396-.192-2.926-.573 0 0 .159 1.157 1.323 1.463.226.059.455.103.681.127.398.038.785.011 1.125-.122" opacity=".1"/><path clip-path="url(#j)" d="m66.474 79.189c-.073-.075-.202-.021-.199.084l.026.972c.002.073.072.127.145.108l.728-.188c.086-.022.114-.129.055-.192z" opacity=".1"/><path clip-path="url(#k)" d="m83.409 69.025c-.103.017-.301.043-.539.067l.072.713-1.31.673.559 1.32-1.202.367-.005 1.373-1.378-.185-.426 1.487-1.587-.219-.544 1.539-1.389-.066-.885 1.742.721-.047.588-1.281 1.338.197.486-1.684 1.699.271.332-1.438 1.645.242-.063-1.555 1.42-.452-.623-1.363 1.212-.643z" opacity=".1"/><path clip-path="url(#l)" d="m85.17 67.704-.711.479c.289-.128.526-.289.711-.479" fill="#e6e6e6"/><path clip-path="url(#m)" d="m72.364 68.2c-.072.128-.131.254-.178.368-.048.113.094.205.182.121.744-.713 1.688-.713 2.205-.643.106.014.168-.119.09-.193l-.756-.703c-.023-.021-.058-.032-.09-.028-.523.063-.904.342-1.179.672.005.01.011.02.015.03.006.017.01.033.012.054.013.149-.118.288-.301.322" opacity=".1"/><path clip-path="url(#n)" d="m60.134 69.343c-.099-.012-.183-.057-.229-.124-.004-.007-.009-.015-.014-.021-.012-.021-.023-.043-.034-.063-.175-.101-.379-.161-.612-.144-.026.002-.051.018-.067.039l-.351.51c-.047.068.021.16.103.134.31-.103.842-.196 1.354.106.08.047.168-.053.114-.13-.071-.099-.159-.208-.264-.307" opacity=".1"/><path clip-path="url(#o)" d="m65.198 79.12-.636 1.098c-.04.07.003.16.083.173l.369.06.23.035.231.036.062.011c.08.013.146-.06.131-.139l-.055-.27-.095-.442-.092-.443-.018-.083c-.018-.108-.158-.13-.21-.036" opacity=".1"/><path clip-path="url(#p)" d="m64.343 78.952-1.022.278c-.097.027-.117.154-.033.209l.563.366c.053.034.121.021.158-.029l.461-.646c.062-.089-.022-.209-.127-.178" opacity=".1"/><path clip-path="url(#q)" d="m71.345 58.539.019 1.599s2.58-1.313 5.778-.258l-.763 1.99s3.998-.619 5.486.415l.068-.38.045-.249c-1.738-1.059-4.379-.675-4.406-.671l-.471.072.641-1.476c-2.498-1.288-5.338-.447-5.367-.438l-.479.146.395-1.253c-1.705-.211-3.1.284-4.063.829l.226.61c.43-.306 1.55-.99 2.891-.936" opacity=".1"/><path clip-path="url(#r)" d="m59.591 62.721s-.398-1.424.254-2.006c-.304.078-.604.189-.899.343z" opacity=".1"/><path clip-path="url(#s)" d="m63.267 59.226c-.161.015-.323.037-.487.073l.523 1.607c.001.001-.07-1.144-.036-1.68" opacity=".1"/><path clip-path="url(#t)" d="m57.204 64.595s-.166-1.265.482-1.873c-.318.083-.672.209-1.041.396z" opacity=".1"/><path clip-path="url(#u)" d="m62.041 64.078c.041-.168-.192-.253-.269-.099-1.338 2.73-.346 8.403-.346 8.403h.002c.32-.049.706-.01 1.094.13-1.201-4.194-.826-7.067-.481-8.434" opacity=".1"/><path clip-path="url(#v)" d="m65.495 74.962c.051-.063.084-.144.099-.231-.166.001-.339-.001-.513-.007l-.064.342.271.004c.076 0 .148-.036.207-.108" fill="#e6e6e6"/><path clip-path="url(#w)" d="m68.543 74.591c.107.053.232.063.355.025l1.352-.405.886-.267.04-.013.005-.002c.082-.023.155-.067.213-.127.026-.027.052-.057.069-.09.047-.08.064-.167.056-.252-.002-.021-.004-.038-.011-.057-.018.004-.036.008-.055.013l-.252.075c-.057.02-.113.04-.168.063-.039.017-.078.03-.117.045-.846.334-1.688.592-2.571.78.034.093.105.166.198.212" fill="#e6e6e6"/><path clip-path="url(#x)" d="m73.098 73.475c-.143-.062-.299-.104-.471-.131-.131-.021-.268-.028-.407-.026-.126 0-.256.011-.39.027.018.063.021.126.021.189-.004.11-.034.22-.089.319-.005.011-.01.019-.016.026-.103.176-.271.306-.472.366l-.362.108-.926.277-.926.278-.068.021c-.052.017-.104.026-.158.031-.15.016-.301-.01-.437-.077-.186-.091-.32-.247-.38-.438-.464.09-.942.161-1.437.218l.918 1.168.017.021c.116-.019.233-.035.353-.049.051-.005.104-.009.152-.014.174-.019.346-.03.516-.036 1.793-.069 3.42.421 3.922 1.188 1.283-.726 1.689-1.666 1.238-2.872-.099-.261-.302-.462-.598-.594" opacity=".1"/><path clip-path="url(#y)" d="m68.317 76.099c.826.136 2.602.521 2.936 1.357.326-.104.636-.223.912-.354-.44-.625-2.012-1.128-3.848-1.003" opacity=".1"/><path clip-path="url(#z)" d="m69.774 72.96c.36-.443.487-.938.281-1.106-.205-.167-.664.057-1.025.499-.361.443-.488.938-.281 1.107.205.167.664-.055 1.025-.5" opacity=".3"/><path clip-path="url(#A)" d="m62.179 73.963c.108-.109.006-.388-.229-.623-.234-.234-.515-.336-.623-.228-.107.108-.006.389.229.622.079.078.162.142.243.188.088.014.21.033.359.056.007-.004.015-.009.021-.015" opacity=".3"/><path clip-path="url(#B)" d="m62.159 73.979c-.149-.02-.271-.042-.359-.056.144.083.281.109.359.056" fill="#b3b3b3"/><path d="m64.153 53.429-.041 1.571c.45.344 1.12.703 2.025.802.147.016.304.025.465.026l-.676-1.856c-.133-.012-.266-.031-.395-.054-.49-.086-.95-.251-1.378-.489" fill="#fffbdd"/><path d="m64.099 55.556-.039 1.506c.435.4 1.371 1.064 2.822 1.06.174 0 .356-.011.545-.032l-.656-1.802c-.166.005-.325.002-.48-.008-.941-.065-1.668-.38-2.192-.724" fill="#fffbdd"/><path d="m67.597 60.854c-1.851.182-3.036-.612-3.605-1.136l-.031 1.214c.029.084.306.644 2.248.453h.004c.81-.079 1.285-.271 1.564-.47.047-.033.09-.067.127-.101-.052.008-.102.016-.15.021-.054.008-.107.014-.157.019" fill="#fffbdd"/><path d="m64.855 51.038-.157-.43c-.051-.141-.173-.175-.27-.158-.004.001-.008.002-.01.003-.094.019-.192.088-.196.233l-.002.084c.114.062.233.115.353.164.093.038.186.071.282.104" fill="#fffbdd"/><path d="m64.75 51.489c-.186-.06-.366-.13-.543-.212l-.041 1.624c.371.237.773.408 1.203.514.125.03.25.055.379.074l-.698-1.917c-.1-.026-.201-.053-.3-.083" fill="#fffbdd"/><path d="m67.802 59.12-.095-.258-.094-.259-.025-.067c-.067.009-.135.017-.202.023-.121.014-.24.021-.356.023-1.406.045-2.402-.485-2.982-.93l-.027 1.041-.008.267-.002.108c.031.039.084.101.154.176.424.436 1.553 1.347 3.445 1.144.188-.021.383-.052.586-.096.004-.042.004-.074.002-.09z" fill="#fffbdd"/><path clip-path="url(#C)" d="m68.321 59.573-.244-.62-.01-.024-.09-.227-.102-.254-.722-1.829-.244-.619-.073-.183-.778-1.969-.135-.342-.776-1.963-.188-.47-.278-.707-.336-.112.064.2.157.481.181.555.625 1.924.164.503.612 1.881.156.475.599 1.842.149.459.111.344.087.269.088.27.3.919.146.451.025.079.075.226.031.096.615-.559v-.571z" fill="#f9ec31" opacity=".4"/><path d="m68.673 60.072-.22-.598-.227-.61-.082-.225-.012-.029-.094-.256-2.916-7.905c-.123-.329-.434-.511-.781-.453-.346.058-.582.332-.59.683l-.174 8.002-.006.267-.007.265-.036 1.743v.015l.002.014c.01.115.19 1.117 2.756.857.002 0 .002-.001.004-.001 1.057-.108 1.779-.413 2.147-.906.31-.414.246-.8.238-.843zm-2.43 1.309c-1.942.196-2.221-.361-2.25-.446l.025-1.213c.57.521 1.76 1.31 3.607 1.122.053-.005.105-.012.158-.019.049-.007.1-.015.149-.022-.037.034-.078.068-.125.102-.278.199-.754.394-1.563.476.003-.001-.001-.001-.001 0m-2.03-10.693c.005-.145.103-.216.197-.234.002-.001.006-.002.008-.002.099-.018.222.016.271.156l.158.43c-.096-.031-.189-.065-.283-.104-.119-.049-.236-.102-.354-.163zm.534.801c.099.03.197.058.299.081l.707 1.915c-.129-.019-.256-.043-.379-.072-.432-.104-.834-.273-1.207-.508l.035-1.625c.175.081.357.15.545.209m.791 2.428c.129.022.261.041.394.053l.684 1.853c-.162 0-.317-.009-.468-.024-.903-.096-1.575-.452-2.026-.794l.035-1.571c.427.235.888.398 1.381.483m.766 2.357c.153.01.314.012.48.007l.662 1.8c-.188.021-.369.033-.545.034-1.449.01-2.392-.651-2.824-1.049l.031-1.507c.528.342 1.258.655 2.196.715m-2.263 2.423.022-1.042c.582.442 1.58.969 2.987.919.116-.005.235-.013.358-.024.065-.007.133-.015.2-.025l.025.069.096.258.095.257.399 1.081c0 .017.002.048-.002.091-.203.045-.398.076-.586.098-1.893.211-3.024-.696-3.449-1.131-.071-.075-.125-.136-.155-.174l.002-.109z" fill="#faea75"/><path d="m68.216 89.534c0 2.176 2.055 3.939-.531 3.939-2.588 0-4.685-1.765-4.685-3.939 0-2.178.73-4.328 3.273-3.941 2.529.382 1.943 1.763 1.943 3.941" fill="#e59776"/><path d="m77.764 82.784 1.356.235" fill="none"/><path d="m79.12 83.254c-.013 0-.025-.001-.041-.004l-1.354-.235c-.128-.022-.214-.145-.19-.271.023-.127.145-.214.271-.192l1.356.237c.127.021.213.144.19.271-.021.113-.12.194-.232.194" fill="#63392e"/><path d="m79.573 88.507-.25 2.004.691-1.086 1.108 1.086.289-1.914z" fill="#555759"/><path d="m79.325 90.723c-.024 0-.049-.004-.072-.013-.092-.033-.149-.127-.139-.226l.25-2.005c.014-.109.107-.19.221-.185l1.836.089c.06.003.115.03.154.078.037.046.053.105.045.165l-.289 1.914c-.01.078-.065.145-.143.17-.074.024-.156.006-.215-.051l-.92-.902-.551.865c-.039.065-.107.101-.177.101m.69-1.509c.056 0 .106.021.147.061l.812.795.192-1.271-1.405-.07-.108.875.184-.291c.035-.054.092-.089.154-.097.007-.002.016-.002.024-.002" fill="#63392e"/><path d="m66.27 96.46h1.146l-.144-.69h-1.406z" fill="#555759"/><path d="m67.416 96.671h-1.146c-.072 0-.145-.041-.184-.104l-.402-.689c-.039-.065-.039-.146-.001-.211.037-.066.106-.107.185-.107h1.405c.101 0 .187.07.207.169l.145.688c.014.063-.002.127-.043.178-.041.048-.101.076-.166.076m-1.025-.423h.766l-.057-.267h-.866z" fill="#63392e"/><path d="m72.985 96.916 1.115-.417.305-.58h-1.553z" fill="#555759"/><path d="m72.985 97.128c-.037 0-.076-.01-.109-.03-.055-.033-.092-.09-.101-.153l-.132-.997c-.008-.061.012-.121.051-.166.04-.048.098-.072.158-.072h1.553c.074 0 .144.039.182.101.037.063.039.144.007.208l-.306.58c-.022.046-.063.082-.112.102l-1.115.416c-.027.007-.05.011-.076.011m.11-.997.063.495.793-.297.104-.198z" fill="#63392e"/><path clip-path="url(#D)" d="m82.993 73.671-1.836.102s2.656 2.813 2.519 5.165l-1.623-.455-.757 7.266-.77 4.177.596.571 1.652-10.957 1.438.951c1.199-2.746-.332-5.352-.346-5.386l-.156-.391 1.226.265c-.194-1.754-2.278-3.249-2.301-3.265l-.205-.143 1-.738c-.209-.073-.608-.36-.899-.396h-.574v1.409l-1.217.597z" opacity=".1"/><path d="m64.194 83.733.512 1.101.481-.47" fill="#d7723b"/><path d="m64.706 85.023c-.012 0-.021-.002-.033-.004-.061-.011-.11-.05-.137-.104l-.512-1.101c-.045-.096-.004-.207.092-.25.094-.045.205-.004.25.091l.399.859.291-.285c.074-.072.193-.07.266.003.072.073.072.192-.002.267l-.48.471c-.038.033-.086.053-.134.053" fill="#63392e"/><path d="m69.995 83.733-2.159 1.717-.287-.936" fill="#d7723b"/><path d="m67.836 85.636c-.02 0-.038-.003-.057-.008-.059-.021-.104-.064-.123-.125l-.289-.935c-.029-.1.026-.203.125-.234.101-.03.205.023.235.124l.207.671 1.942-1.543c.082-.065.201-.052.266.03.064.081.051.198-.031.264l-2.158 1.715c-.035.028-.076.041-.117.041" fill="#63392e"/><path d="m68.03 83.905-2.321 1.906-.627-2.007" fill="#d7723b"/><path d="m65.707 85.999c-.018 0-.034-.002-.053-.008-.061-.019-.106-.064-.127-.125l-.625-2.007c-.031-.1.024-.204.123-.235.1-.031.204.024.235.123l.543 1.74 2.106-1.73c.08-.066.197-.055.264.025.066.082.055.198-.025.266l-2.32 1.908c-.035.028-.078.043-.121.043" fill="#63392e"/><path d="m64.04 46.894.769-.729-.982-.206z" fill="#fffbdd"/><path d="m63.507 46.032-.817.613 1.03.324z" fill="#fffbdd"/><path d="m63.435 45.714.065-.014z" fill="#fffbdd"/><path d="m64.457 45.757.209.043-1.147-1.197c.074.332.151.672.229 1.007.235.05.476.098.709.147" fill="#fffbdd"/><path d="m63.196 44.667-.535 1.592c.25-.189.512-.385.768-.577-.079-.339-.157-.682-.233-1.015" fill="#fffbdd"/><path d="m64.377 48.451.464-1.112c-.193.184-.396.371-.591.556z" fill="#fffbdd"/><path d="m64.058 48.522c-.041-.183-.084-.37-.125-.555-.258-.082-.521-.165-.772-.246z" fill="#fffbdd"/><path d="m62.303 46.868.371.116c.397.124.801.251 1.201.377.031.011.063.014.093.009.004 0 .008-.001.012-.002.032-.008.063-.025.093-.053.084-.081.17-.163.256-.241l.924-.88c.013-.012.05-.047.058-.105.007-.053-.011-.102-.052-.145-.639-.666-1.275-1.329-1.893-1.974-.029-.03-.07-.064-.138-.07l-.011-.001-.043.011-.021.009c-.061.035-.082.095-.09.118-.229.681-.461 1.371-.688 2.044l-.188.559c-.019.053-.019.102.004.143.015.026.046.063.112.085m1.214-2.265 1.148 1.197-.207-.043c-.234-.048-.474-.098-.711-.147-.077-.336-.154-.675-.23-1.007m.523 2.291-.213-.934.981.204zm-.604-1.181.064-.015-.064.015c0 .001 0 .001 0 0m-.24-1.046c.076.334.154.677.231 1.014-.257.193-.517.389-.767.578zm.311 1.365.213.938-1.029-.323z" fill="#f495a8"/><path d="m65.28 46.532c-.053.002-.09.029-.115.054l-.414.39c-.237.224-.481.453-.723.681-.375-.119-.756-.24-1.123-.357l-.244-.078c-.043-.014-.088-.028-.135-.042-.051-.015-.104-.007-.146.023-.041.029-.065.076-.065.129-.002.075.048.119.065.136.615.547 1.226 1.091 1.816 1.617.021.017.059.053.119.064l.016.003.066-.016.012-.006c.047-.03.068-.074.082-.104.234-.56.474-1.131.703-1.683l.17-.403c.023-.059.049-.12.074-.18.021-.055.016-.115-.018-.161-.03-.046-.084-.071-.14-.067m-.903 1.918-.127-.556c.197-.185.396-.372.591-.555zm-.444-.483c.041.185.084.372.125.555l-.898-.801c.253.081.515.164.773.246" fill="#f495a8"/><path d="m66.895 45.962c-.094.015-.156.104-.143.197.016.094.104.156.197.142.094-.015.156-.103.143-.197-.015-.094-.103-.156-.197-.142" fill="#f495a8"/><path d="m62.541 50.387c-.094.015-.157.104-.143.197.016.094.104.157.197.142s.156-.103.143-.196c-.014-.095-.102-.158-.197-.143" fill="#f495a8"/><path d="m61.456 49.023c-.061-.043-.145-.029-.188.031l-.15.207-.207-.15c-.061-.043-.145-.028-.188.031-.045.06-.031.144.029.188l.207.149-.148.207c-.043.062-.029.146.03.188.03.021.065.029.101.023.033-.006.065-.023.086-.054l.15-.208.209.15c.029.021.064.028.1.023.033-.006.066-.024.088-.055.043-.06.029-.145-.031-.188l-.207-.149.148-.208c.045-.058.031-.142-.029-.185" fill="#faea75"/><path d="m67.248 43.76.154-.204c.045-.059.033-.144-.025-.188-.061-.044-.145-.033-.188.025l-.153.204-.205-.154c-.06-.046-.144-.033-.188.025-.045.06-.033.145.025.189l.203.154-.154.203c-.045.06-.033.145.025.19.03.022.067.031.104.025.033-.006.064-.022.086-.052l.154-.204.203.155c.031.023.067.031.104.026.033-.007.064-.023.086-.053.045-.059.033-.143-.025-.188z" fill="#faea75"/><path d="m66.086 48.59c-.045.059-.032.144.025.188l.204.155-.155.204c-.045.06-.033.145.026.189.03.022.067.03.103.025.033-.006.064-.022.086-.052l.154-.204.204.155c.031.022.067.031.103.025.033-.006.064-.023.087-.052.045-.059.032-.144-.025-.189l-.204-.154.155-.204c.045-.06.033-.144-.026-.188-.059-.046-.144-.033-.188.025l-.154.204-.203-.155c-.062-.043-.146-.03-.192.028" fill="#faea75"/><path d="m65.431 44.049c.094-.015.157-.103.143-.197-.017-.094-.104-.157-.197-.142-.094.015-.156.103-.144.197.015.094.103.158.198.142" fill="#faea75"/><path d="m61.069 46.908c-.095.015-.158.104-.142.196.016.095.104.157.197.143.093-.016.156-.104.142-.197-.016-.094-.103-.158-.197-.142" fill="#faea75"/><path d="m86.457 71.645c-6.654 6.792-7.776 10.612-7.459 11.62.031.104.207.582 0 .801-.387.409-1.438-.018-2.059-.831-1.978-2.592 5.934-11.72 8.022-11.996.972-.13.955.093 1.496.406" fill="#dbce9a"/><path d="m86.457 71.645c-6.654 6.792-7.776 10.612-7.459 11.62.031.104.207.582 0 .801-.387.409-1.438-.018-2.059-.831-1.978-2.592 5.934-11.72 8.022-11.996.972-.13.955.093 1.496.406z" fill="none" stroke="#63392e" stroke-miterlimit="10" stroke-width=".5"/><path d="m48.717 71.072c-.061.756-2.682 1.158-5.853.902-3.171-.258-5.692-1.078-5.63-1.834.061-.756 2.681-1.16 5.852-.902 3.172.257 5.693 1.076 5.631 1.834" fill="#3daa7b"/><path d="m43.256 52.975c1.374 0 2.748-.002 4.122 0 1.698.004 3.116 1.338 3.198 3.041.12 2.521-.016 5.044.016 7.566.008.599.051 1.197-.125 1.781-.414 1.368-1.641 2.323-3.104 2.331-2.772.018-5.545.015-8.317-.017-1.795-.02-3.176-1.452-3.183-3.252-.011-2.685.013-5.371-.016-8.056-.022-1.999 1.586-3.454 3.4-3.401 1.335.039 2.673.009 4.009.009zm-6.976 7.873c0 1.062.036 2.124-.011 3.184-.04.908.204 1.686.815 2.35.315.342.572.734 1.049.92.357.139.712.078 1.064.137.721.119 1.45.113 2.173.088 1.696-.057 3.392-.01 5.088-.024.662-.006 1.328.067 1.963-.224.394-.18.774-.441.965-.773.158-.272.26-.547.545-.715.035-.021.042-.086.065-.13.301-.58.413-1.167.397-1.847-.058-2.447-.034-4.898.021-7.349.005-.241-.054-.52-.137-.784-.164-.52-.634-.789-.85-1.245-.447-.944-1.281-1.245-2.225-1.241-2.512.01-5.028-.118-7.537.137-.26.025-.525.02-.786.001-1.014-.075-1.586.559-2.081 1.299-.518.775-.499 1.672-.513 2.55-.019 1.219-.005 2.443-.005 3.666" fill="#5769ef"/><path d="m36.28 60.848c0-1.223-.014-2.446.005-3.669.013-.878-.005-1.774.513-2.55.495-.74 1.067-1.374 2.081-1.299.261.018.526.024.786-.001 2.508-.255 5.024-.127 7.537-.137.944-.004 1.778.297 2.225 1.241.216.455.686.726.849 1.245.083.265.143.542.138.784-.055 2.45-.079 4.901-.021 7.349.016.68-.096 1.267-.397 1.847-.023.043-.03.108-.065.13-.285.168-.387.441-.545.715-.191.332-.571.593-.965.773-.635.291-1.301.218-1.963.224-1.696.016-3.392-.031-5.088.024-.723.025-1.452.031-2.173-.088-.352-.059-.707.002-1.065-.137-.476-.186-.733-.578-1.049-.92-.61-.664-.855-1.441-.814-2.35.047-1.058.011-2.119.011-3.181m5.259 3.353c.075 0 .149-.001.225 0 .635.017 1.252-.028 1.832-.346.352-.192.721-.336.833-.779.015-.06.098-.114.162-.147.772-.412.71-1.277 1.047-1.924.035-.067.031-.194-.011-.255-.3-.439.084-.505.34-.604.254-.099.521-.145.708-.379.375-.468.453-.998.493-1.587.051-.746-.438-1.109-.853-1.549-.125-.133-.299-.149-.482-.155-.53-.02-1.057.045-1.59.027-.736-.024-1.43.195-2.009.719-.697.633-1.152 1.378-1.329 2.313-.062.332-.02.79-.429.932-.408.141-.579.528-.917.732-.142.085-.229.259-.278.43-.319 1.104.275 2.819 1.884 2.575.122-.02.249-.003.374-.003" fill="#5769ef"/><path d="m41.539 64.2c-.125 0-.252-.017-.374.003-1.609.242-2.202-1.473-1.884-2.576.049-.171.137-.345.278-.43.339-.203.509-.592.917-.732.409-.142.367-.6.429-.932.177-.935.632-1.68 1.33-2.312.578-.524 1.272-.744 2.008-.72.534.018 1.06-.046 1.591-.026.182.006.357.022.481.154.415.439.904.803.853 1.55-.04.588-.118 1.118-.493 1.587-.187.233-.454.279-.708.378-.256.101-.64.166-.339.605.041.06.045.187.01.254-.337.646-.275 1.513-1.047 1.924-.064.033-.147.088-.162.148-.112.443-.481.586-.833.778-.58.317-1.197.362-1.832.346-.075 0-.15.001-.225.001m-.139-.139c1.746.04 3.338-1.258 3.694-3.011.053-.259-.052-.299-.274-.292-.774.027-1.542-.048-2.312-.143-.618-.076-1.245-.057-1.854.135-.764.24-1.258.893-1.207 1.607.07.959.544 1.507 1.433 1.646.172.028.346.04.52.058m5.314-5.706c-.009-.9-.486-1.514-1.323-1.645-2.119-.333-3.88 1.018-4.291 2.925-.048.223-.014.317.246.312.497-.013.993-.008 1.492.044.773.077 1.552.269 2.33.073.756-.189 1.606-.629 1.546-1.709" fill="#5769ef"/><path d="m41.399 64.061c-.173-.018-.348-.03-.52-.058-.889-.139-1.363-.687-1.432-1.646-.052-.715.443-1.367 1.207-1.607.608-.191 1.236-.211 1.854-.135.769.095 1.537.17 2.312.143.221-.007.327.032.274.292-.357 1.753-1.948 3.052-3.695 3.011" fill="#fefefe"/><path d="m46.714 58.355c.06 1.08-.79 1.521-1.546 1.709-.778.195-1.557.004-2.33-.073-.499-.052-.995-.057-1.492-.044-.26.006-.294-.089-.246-.312.411-1.907 2.172-3.258 4.291-2.925.837.131 1.314.745 1.323 1.645" fill="#fefefe"/><path d="m36.067 60.096c-.776-.335-1.458-.824-1.976-1.498-.387-.503-1.256-.005-.864.505.625.811 1.392 1.449 2.336 1.856.584.253 1.094-.609.504-.863" fill="#5769ef"/><path d="m39.718 67.693v2.161c0 .645 1 .645 1 0v-2.161c0-.644-1-.645-1 0" fill="#5769ef"/><path d="m45.916 67.233v2.977c0 .643 1 .644 1 0v-2.977c0-.644-1-.646-1 0" fill="#5769ef"/><path d="m49.811 61.467c.85.655 1.497 1.506 1.951 2.474.273.583 1.135.075.863-.505-.531-1.133-1.32-2.07-2.309-2.832-.509-.393-1.008.476-.505.863" fill="#5769ef"/><path clip-path="url(#E)" d="m49.467 32.257h-30.51l9.72-5.61 1.99-1.16.1-.06.76-.44.71-.399c.09-.01.19-.01.28-.01 2.52 0 4.71 1.319 5.84 3.27h.11c.63 0 1.25.05 1.82.15 1.92.319 3.48 1.12 4.26 2.16.16.02.35.01.51.029 2.14.311 3.81 1.07 4.41 2.07" fill="#fff" opacity=".9"/><path d="m101.786 42.066v5.86h-14.129c.389-.84 1.659-1.45 3.159-1.45.11 0 .21 0 .31.01.121 0 .231.03.342.04.5-.619 1.25-1.05 2.119-1.17v-.01c.5-1.07 1.671-1.81 3.021-1.81.632 0 1.222.149 1.722.44.59-1.25 1.568-2.06 2.67-2.06.266.001.526.05.786.15" fill="#ebf3ff"/><path d="m44.956 21.796c0 5-4.05 9.05-9.04 9.05-3.14 0-5.91-1.6-7.54-4.03l2.66-1.529 1.58-.92.17-.091 1.52-.869.11-.06.03-.02.78-.45.38-.22.44-.261 1.1-.649.52-.3 1.3-.74.98-.56.69-.41 1.4-.8h.01l.05-.029.06-.04 1.87-1.07c.6 1.199.93 2.558.93 3.998" fill="#fffbdd"/><path clip-path="url(#F)" d="m101.741 37.514-2.899-1.68-.16-.09-.15-.08-.439-.25-.131-.08-.09-.05-1.771-1.03h-.01l-1.371-.79-.438-.25-1.812-1.04-.681-.4-.039-.019-3.489-2.01-1.142-.66-1.039-.601-.239-.14-.671-.38-1.26-.73-.541-.31-.799-.46-1.771-1.021-.141-.079-.228-.131-.871-.5-.238-.14-.771-.439-.16-.091-.68-.39-6.221-3.59-.699-.41-.17-.1-.711-.4-.3-.18-1.28-.74-1.479-.85-.471-.271-.971-.56-2.129-1.23-.791-.45-.92-.529-.96-.551-4.79-2.77-2.48 1.43-3.41 1.97-.61.351-.07.04-1.3.75-.5.29-5.47 3.149-3.52 2.03-4.14 2.39-1.83 1.051-1.7.979-.18.101-1.15.67-4.26 2.449-.36.211-.28.159-1.43.82-3.57 2.07h-.01l-7.44 4.29-.18.109-1.88 1.08-.3.17v53.121l2.95 1.699.41.24.05.028.53.312.37.21 2.53 1.47 2.34 1.352h.02l.51.29.07.05.05.021h.03l.99.59 1.58.91.26.149.84.49 1.22.699.49.279.56.32.6.34 3.37 1.95 2.09 1.2.44.26.19.108h.01l.39.222 2.98 1.72 1.3.75.03.019.69.4 6.46 3.73.49.279 1.39.801h.01l.84.488.24.141.1.061.45.26.15.08.32.189.09.051 1.14.65v.01l.75.43.14.08.54.31.15.078.27.15.25.15.22.131.24.139.03.021.03.01.03.021 3.01 1.74.18.1.43.25.23.131.551-.32.14-.08 1.85-1.07 1.74-1 .59-.34.188-.109 2.4-1.381.19-.109.391-.229.02-.01.931-.531.642-.369.069-.041 1.47-.85.16-.09.33-.189.6-.352.131-.068.271-.16.05-.029.221-.131.129-.07.75-.43.361-.209.09-.051.91-.521.25-.139.18-.111.4-.229 1.359-.779.17-.102.699-.398.521-.301.021-.01.118-.07.472-.27.688-.4 2.53-1.461.21-.118.59-.341.131-.069.011-.01.629-.36.239-.14.211-.132.58-.33.279-.158 1.029-.602.391-.22.24-.14.09-.052.1-.06.361-.21.34-.189 1.39-.801 1.399-.81.461-.262.06-.039.431-.25.08-.041v-.01l.25-.14.01-.01.24-.141.301-.17 2.43-1.399.16-.091.141-.079.07-.04.09-.051 1.58-.92.299-.17.231-.131.01-.01.859-.49.239-.16.069-.039.132-.08h.036l.521-.301.03-.02.459-.261.881-.51.021-.011 5.141-2.96.05-.029v-53.112zm-1.711 52.141-1.199.688-3.221 1.86-1.801 1.04-.619.358-.109.062-.09.05-.021.011-.449.26-.16.101-.27.149-.57.33-.109.06-.31.181-.5.289-2.279 1.32-.671.391-.03.01-.09.051-.07.04-.139.079-3.471 2-.311.181-.131.069-.18.101-.341.2-.379.22-.94.54-.199.12-.051.028-.039.021-.57.33-.209.12-.512.3h-.01l-.24.14-.17.101-.271.149-.091.052-3.34 1.92-.41.239-.59.341-.209.118-2.301 1.331-.18.102-.42.238-.33.191-.051.029-.41.24-.141.078-.078.051-.371.211-.141.08-.738.43-.142.08-.239.141-.101.061-.181.1-.239.139-.03.021-.119.07-.939.529-.51.301-.381.221-.261.148-.09.051-1.319.76-1.439.83-.221.131-.221.129-.31.182-.15.08-.812.469-.068.041-.62.359-1.021.59-.609.352-.94.539-1.369.791-1.352.779-.62-.359-.73-.42-2.13-1.221-.03-.021-.12-.068-.05-.031-.14-.08-.37-.209-.33-.189-.17-.101-.1-.059-.6-.342-.4-.229-.14-.08-.07-.041-.89-.51-.53-.311-.74-.42-.09-.061-.14-.08-.67-.381-.1-.059-.02-.01-2.93-1.691-3.06-1.769-3.16-1.82-.74-.43-.02-.011-2.7-1.561-.54-.312-.79-.459-.27-.149-.03-.01-.32-.19-.14-.079-3.71-2.15-.23-.131-.6-.34-2.41-1.39-.17-.102-.51-.289-.68-.391-1.07-.619-.31-.181-.29-.17-.12-.06h-.01l-4.75-2.75-.59-.34-.63-.371-.68-.39-.08-.05-.03-.01-.39-.222-3.07-1.778v-50.97l.52-.3 1.2-.69 1.46-.84.7-.41 6.47-3.729.35-.2 2.11-1.21.55-.32.21-.119 4.77-2.761.29-.17.37-.21 1.88-1.08.03-.02 9.59-5.53 2.27-1.31 3.07-1.771 1.8-1.04.07-.04.61-.35 2.87-1.66.8-.46 1.1-.63 1.12-.641 4.62 2.66.17.101 1.88 1.09.262.149 2.619 1.511.301.17.539.31 1.721.99.26.15.51.3.91.52.33.19.75.43.801.46 2.109 1.22 3.199 1.841.391.22.369.22.15.09.68.391 1.932 1.12.719.409.98.57.189.11.449.269h.012l.959.55 1.66.96 3.449 1.99.041.021.119.069 2.06 1.191.83.479.439.25.239.141.28.16 1.319.76.14.08.041.02.33.19 1.439.83.21.12.261.149 1.6.92 1.939 1.12v50.972z" opacity=".13"/><g fill="#fffbdd" opacity=".79"><path clip-path="url(#G)" d="m101.577 37.426h-15.681c-.069-.24-.11-.49-.11-.75 0-2.26 2.75-4.16 6.451-4.63l.17.1 1.459.84.721.41 1.221.71.779.44.439.25.131.08 1.811 1.04z"/><path clip-path="url(#H)" d="m101.577 37.426h-9.729c.51-.82 1.601-1.53 3.069-2.01.011 0 .011 0 .021-.01.67-.221 1.42-.41 2.222-.53l1.81 1.04z"/><path clip-path="url(#I)" d="m68.94 37.426h-15.97c.98-1.333 4.18-2.313 7.979-2.313.26 0 .521 0 .779.017 2.53.08 4.74.61 6.09 1.381h.012c.489.274.87.578 1.11.915"/><path clip-path="url(#J)" d="m83.87 35.176c0 .81-.358 1.58-.99 2.25h-14.6c-.17-.18-.32-.37-.449-.57h-.01c-.342-.52-.531-1.09-.531-1.68 0-.66.23-1.28.65-1.85v-.011c1.27-1.699 4.209-2.89 7.641-2.89 1.59 0 3.068.25 4.33.7 2.379.841 3.959 2.341 3.959 4.051"/><path clip-path="url(#K)" d="m77.479 37.426h-16.468c.108-.5.351-.99.719-1.43 1.142-1.4 3.451-2.431 6.211-2.67v-.011c.421-.04.859-.06 1.31-.06 4.228.001 7.728 1.822 8.228 4.171"/><path clip-path="url(#L)" d="m94.946 35.676c0 .24-.01.47-.029.7-.039.359-.1.71-.18 1.05h-16.16c-.141-.56-.211-1.15-.211-1.75 0-1.69.57-3.27 1.541-4.55 1.229-1.63 3.119-2.8 5.289-3.16l.57.33.09.06 1.34.77.221.13h.011l.09.06.149.08.471.271 1.182.68 2.129 1.23.041.029v.011l.26.14.49.29.17.1 1.459.84.721.41c.21.641.33 1.311.35 2.011.006.089.006.178.006.268"/></g></svg>