<svg xmlns="http://www.w3.org/2000/svg" viewBox="0 0 110.979 128.417"><path fill="#050A32" d="M55.745 127.772L.617 95.944V32.287L55.745.458l55.129 31.829v63.657z"/><path fill="#26FFAD" d="M55.744 10.533L9.271 37.325v53.583l46.473 26.789 46.476-26.789V37.325L55.744 10.533zm44.594 79.296L55.744 115.54 11.148 89.829V38.415l44.595-25.711 44.594 25.711v51.414z"/><path fill="#26FFAD" d="M19.254 88.912h74.958c.459 0 .459-.712 0-.712H19.254c-.459.001-.459.712 0 .712zm0-1.945h74.958c.459 0 .459-.712 0-.712H19.254c-.459 0-.459.712 0 .712zM30.24 75.482h52.44c.459 0 .459-.712 0-.712H30.24c-.459.001-.459.712 0 .712z"/><path fill="#26FFAD" d="M94.25 85.932L82.932 74.874c-.328-.321-.832.182-.503.503l11.318 11.058c.328.322.832-.181.503-.503z"/><path fill="#26FFAD" d="M94.521 88.462v-2.088c0-.459-.712-.459-.712 0v2.088c0 .459.712.459.712 0zm-75.3-2.026l11.318-11.058c.329-.321-.175-.824-.503-.503L18.718 85.933c-.329.321.175.824.503.503z"/><path fill="#26FFAD" d="M19.159 88.462v-2.088c0-.459-.712-.459-.712 0v2.088c.001.459.712.459.712 0zm63.783-46.176v10.726h-.712V42.286c0-.459.712-.459.712 0zM82.23 54.72h.712v9.018h-.712zm0 10.726h.712v9.3c0 .461-.712.461-.712 0v-9.3z"/><path fill="#26FFAD" d="M30.525 42.643H82.49c.459 0 .459-.712 0-.712H30.525c-.459 0-.459.712 0 .712zm2.088 2.515h47.172c.459 0 .459-.712 0-.712H32.613c-.459 0-.459.712 0 .712z"/><path fill="#26FFAD" d="M80.046 44.754v8.257h-.712v-8.257c0-.458.712-.458.712 0zm-.712 9.966h.712v9.018h-.712zm0 10.726h.712v7.118c0 .458-.712.458-.712 0v-7.118z"/><path fill="#26FFAD" d="M79.596 72.303H32.519c-.459 0-.459.712 0 .712h47.077c.459 0 .459-.712 0-.712z"/><path fill="#26FFAD" d="M32.827 72.659v-27.81c0-.459-.712-.459-.712 0v27.81c0 .459.712.459.712 0zM29.79 42.287v32.65c0 .459.712.459.712 0v-32.65c0-.459-.712-.459-.712 0z"/><path fill="#FFF" d="M92.931 61.174a3.417 3.417 0 0 1-3.417 3.417H60.423a3.417 3.417 0 0 1-3.417-3.417v-3.891a3.417 3.417 0 0 1 3.417-3.417h29.091a3.417 3.417 0 0 1 3.417 3.417v3.891z"/><path fill="#FFF" d="M60.422 53.012h11.153V32.605a3.418 3.418 0 0 0-3.417-3.417H40.917a3.42 3.42 0 0 0-3.417 3.417v32.366a3.418 3.418 0 0 0 3.417 3.417h27.241a3.416 3.416 0 0 0 3.383-2.941H60.422a4.276 4.276 0 0 1-4.271-4.271v-3.892a4.276 4.276 0 0 1 4.271-4.272zM46.518 31.728a.998.998 0 1 1-.002 1.996.998.998 0 0 1 .002-1.996zm-2.443 0a.998.998 0 1 1-.002 1.996.998.998 0 0 1 .002-1.996zm-2.469 0a.998.998 0 1 1-.002 1.996.998.998 0 0 1 .002-1.996zm-.925 4.746c-.917 0-.917-.974 0-.974h27.477c.917 0 .917.974 0 .974H40.681z"/><path fill="#26FFAD" d="M26.966 82.423h59.558c.229 0 .229-.356 0-.356H26.966c-.23 0-.23.356 0 .356zm1.578-1.566h56.45c.229 0 .229-.356 0-.356h-56.45c-.229 0-.229.356 0 .356zm1.103-1.388H83.89c.23 0 .23-.356 0-.356H29.647c-.229 0-.229.356 0 .356zm1.068-1.139h52.179c.229 0 .229-.356 0-.356H30.715c-.229 0-.229.356 0 .356zm.831-.997h50.47c.23 0 .23-.356 0-.356h-50.47c-.23 0-.23.356 0 .356zm.593-.794h49.135c.229 0 .229-.356 0-.356H32.139c-.23 0-.23.356 0 .356z"/><path fill="#26FFAD" d="M81.273 76.582l5.125 5.789c.153.172.403-.081.252-.252l-5.125-5.789c-.153-.172-.403.08-.252.252zm-49.296-.252l-5.125 5.789c-.151.171.099.424.252.252l5.125-5.789c.151-.172-.099-.424-.252-.252zm-1.04 5.762l1.044-1.423.23.168-1.044 1.424zm2.242-1.442l1.044-1.423.23.169-1.044 1.423zm3.453-1.37l.919-1.229.228.171-.92 1.228zm-.734-1.18l.665-1.02.238.155-.664 1.021zm3.419-1.035l.576-.825.233.163-.575.825zm.434 1.03l.45-.968.26.12-.451.968zm.944 1.05l.45-.967.258.12-.45.967zm-3.415 1.433l.752-1.323.248.14-.752 1.324zm3.773.089l.752-1.323.248.14-.752 1.324zm3.297-1.373l.355-1.3.275.076-.355 1.3zm-1.01-1.187l.427-1.086.264.104-.426 1.086zm3.432.122l.172-1.102.281.044-.172 1.102zm3.587-1.142l.285-.008.034 1.113-.285.009zm3.439-.03l.284-.01.035 1.114-.285.009zm-1.732-.83l.284-.01.035 1.114-.285.01zm-4.181.003l.285-.009.034 1.114-.285.008z"/><path fill="#26FFAD" d="M43.71 76.228l.286-.009.034 1.114-.285.008zm12.436.165l.285-.01.034 1.114-.284.009zm4.081-.166l.285-.01.034 1.114-.284.009zm4.271-.001l.285-.008.034 1.113-.285.009zm4.272 0l.284-.008.034 1.113-.285.009zm4.27 0l.285-.008.034 1.113-.285.009zM55.31 78.19l.284-.01.035 1.114-.285.009zm1.989-1.077l.284-.02.075 1.112-.284.02zm1.78 1.21l.284-.02.075 1.112-.284.02zm1.734-1.23l.283-.035.134 1.106-.283.035zm1.727 1.174l.282-.034.134 1.106-.283.034z"/><path fill="#26FFAD" d="M64.305 77.175l.28-.05.2 1.095-.28.051zm1.833 1.121l.28-.05.2 1.095-.28.051zm2.439 1.175l.28-.051.2 1.096-.28.051zm-.695-2.278l.28-.05.2 1.095-.28.051zm1.744.943l.28-.05.2 1.095-.28.051zm2.724 1.252l.279-.061.274 1.239-.279.061zm3.845.053l.278-.061.274 1.239-.279.061zm-4.429 1.353l.281-.047.235 1.397-.281.047zm4.427.012l.265-.104.573 1.446-.265.105zm4.425.081l.236-.16.873 1.288-.236.16zm-9.39-3.747l.28-.052.2 1.096-.28.051zm2.082 1.103l.28-.05.2 1.095-.28.051zm3.6-.08l.277-.066.258 1.083-.277.067zm-2.176-1.059l.28-.05.201 1.095-.28.051zm-34.728 5.021l.687-1.42.256.124-.686 1.42zM62.82 80.69l.271-.084.463 1.508-.271.083zm4.615-.003l.284-.025.138 1.57-.284.026zm-32.383-3.671l.593-.7.217.184-.593.7zm.334 5.111l1.044-1.423.23.169-1.044 1.423zm27.232 3.535H50.659a1.413 1.413 0 0 1-1.412-1.411c0-.779.633-1.412 1.412-1.412h11.959c.778 0 1.412.633 1.412 1.412 0 .778-.634 1.411-1.412 1.411zm-11.959-2.539c-.621 0-1.127.506-1.127 1.127s.506 1.127 1.127 1.127h11.959c.621 0 1.127-.506 1.127-1.127s-.506-1.127-1.127-1.127H50.659z"/><path d="M67.025 58.271l-.353.209a.602.602 0 0 0-.189-.224.448.448 0 0 0-.241-.06.444.444 0 0 0-.301.103.317.317 0 0 0-.119.254c0 .141.105.254.313.34l.287.118c.234.095.405.21.513.346a.78.78 0 0 1 .162.501.88.88 0 0 1-.265.657.91.91 0 0 1-.662.261.888.888 0 0 1-.62-.222c-.16-.148-.261-.356-.3-.625l.44-.097c.02.169.055.286.105.351.09.124.22.187.392.187a.454.454 0 0 0 .338-.136.47.47 0 0 0 .134-.345.502.502 0 0 0-.023-.154.394.394 0 0 0-.073-.129.589.589 0 0 0-.128-.11 1.242 1.242 0 0 0-.187-.098l-.278-.116c-.395-.167-.592-.411-.592-.732 0-.216.083-.398.248-.543a.894.894 0 0 1 .618-.22c.335-.001.594.161.781.484zm1.034-.429v1.736c0 .248.04.429.121.543a.596.596 0 0 0 .509.248c.22 0 .391-.083.511-.248.081-.111.121-.292.121-.543v-1.736h.435v1.855c0 .304-.095.554-.284.75a1.051 1.051 0 0 1-.784.329 1.045 1.045 0 0 1-1.066-1.079v-1.855h.437zm2.389 2.882v-2.882h.433c.193 0 .346.015.461.045.116.03.213.08.293.151a.787.787 0 0 1 .192.274.841.841 0 0 1 .073.336.68.68 0 0 1-.237.524.696.696 0 0 1 .362.274c.09.13.134.28.134.452 0 .225-.08.416-.239.571a.788.788 0 0 1-.323.2 1.883 1.883 0 0 1-.491.054h-.658zm.435-1.645h.136c.162 0 .28-.036.356-.107.075-.071.113-.177.113-.316 0-.136-.039-.239-.116-.309-.077-.07-.189-.105-.336-.105h-.153v.837zm0 1.236h.269c.197 0 .341-.039.433-.116a.4.4 0 0 0 .146-.318.406.406 0 0 0-.14-.313c-.091-.083-.253-.125-.487-.125h-.22v.872zm3.454-2.044l-.353.209a.602.602 0 0 0-.189-.224.448.448 0 0 0-.241-.06.444.444 0 0 0-.301.103.317.317 0 0 0-.119.254c0 .141.105.254.313.34l.288.118c.234.095.405.21.513.346a.78.78 0 0 1 .162.501.88.88 0 0 1-.265.657.91.91 0 0 1-.662.261.888.888 0 0 1-.62-.222c-.16-.148-.261-.356-.3-.625l.44-.097c.02.169.055.286.105.351.09.124.22.187.392.187a.454.454 0 0 0 .338-.136.47.47 0 0 0 .134-.345.502.502 0 0 0-.023-.154.394.394 0 0 0-.073-.129.589.589 0 0 0-.128-.11 1.242 1.242 0 0 0-.187-.098l-.278-.116c-.395-.167-.592-.411-.592-.732 0-.216.083-.398.248-.543a.894.894 0 0 1 .618-.22c.334-.001.593.161.78.484zm2.729-.274v.515c-.251-.21-.511-.315-.78-.315a.99.99 0 0 0-.748.319c-.204.211-.306.47-.306.776 0 .302.102.557.306.765.204.207.454.311.75.311a.917.917 0 0 0 .39-.075c.06-.025.122-.058.186-.101.064-.042.132-.093.202-.153v.524c-.249.14-.51.211-.784.211-.412 0-.763-.144-1.054-.431a1.43 1.43 0 0 1-.435-1.049c0-.367.121-.694.364-.982a1.45 1.45 0 0 1 1.159-.528c.258.002.508.072.75.213zm1.524 1.499l.892 1.228h-.532l-.823-1.18h-.078v1.18h-.435v-2.882h.509c.381 0 .656.072.825.215.187.159.28.37.28.631 0 .204-.058.38-.175.526a.78.78 0 0 1-.463.282zm-.541-.331h.138c.412 0 .618-.157.618-.472 0-.295-.2-.442-.601-.442h-.155v.914zm2.301-1.323v2.882h-.435v-2.882h.435zm.693 2.882v-2.882h.433c.193 0 .346.015.461.045.116.03.213.08.293.151a.787.787 0 0 1 .192.274.841.841 0 0 1 .073.336.68.68 0 0 1-.237.524.696.696 0 0 1 .362.274c.09.13.134.28.134.452 0 .225-.08.416-.239.571a.788.788 0 0 1-.323.2 1.883 1.883 0 0 1-.491.054h-.658zm.435-1.645h.136c.162 0 .28-.036.356-.107.075-.071.113-.177.113-.316 0-.136-.039-.239-.116-.309-.077-.07-.189-.105-.336-.105h-.153v.837zm0 1.236h.269c.197 0 .341-.039.433-.116a.4.4 0 0 0 .146-.318.406.406 0 0 0-.14-.313c-.091-.083-.253-.125-.487-.125h-.22v.872zm3.415-2.064h-1.155v.692h1.121v.409h-1.121v.963h1.155v.409h-1.59v-2.882h1.59v.409zM57.528 41.314h10.251c.459 0 .459-.712 0-.712H57.528c-.459 0-.459.712 0 .712zm-15.756 3.227h20.976c.459 0 .459-.712 0-.712H41.772c-.459 0-.459.712 0 .712zm14.048-3.227c.459 0 .459-.712 0-.712s-.459.712 0 .712zm8.352 3.227c.459 0 .459-.712 0-.712s-.459.712 0 .712zm-22.399 4.698h22.494c.459 0 .459-.712 0-.712H41.773c-.459 0-.459.712 0 .712zm0 3.986h12.481c.459 0 .459-.712 0-.712H41.773c-.459.001-.459.712 0 .712zM41.773 57.212h12.339c.459 0 .459-.712 0-.712H41.773c-.459 0-.459.712 0 .712zM41.773 61.198h12.481c.459 0 .459-.712 0-.712H41.773c-.459 0-.459.712 0 .712z" fill="#050A32"/><path d="M9.989 33.895l-1.696-2.949.443-.255c.197-.114.364-.189.498-.226a.835.835 0 0 1 .389-.018.92.92 0 0 1 .358.167.983.983 0 0 1 .272.301.804.804 0 0 1 .066.676.818.818 0 0 1 .532.068c.168.08.302.207.403.383.132.23.163.472.091.725a.92.92 0 0 1-.213.394 2.21 2.21 0 0 1-.47.345l-.673.389zm-.523-1.939l.139-.08c.166-.095.266-.202.301-.319.035-.117.011-.248-.071-.39-.08-.138-.18-.221-.3-.248-.12-.026-.256.004-.406.09l-.157.09.494.857zm.728 1.265l.275-.158c.201-.116.326-.24.375-.374a.47.47 0 0 0-.038-.41.477.477 0 0 0-.328-.238c-.142-.032-.333.021-.572.159l-.225.13.513.891zm3.243-2.413l-1.333.767a.652.652 0 0 0 .359.279.527.527 0 0 0 .415-.061.5.5 0 0 0 .221-.229c.039-.091.064-.23.073-.418l.479-.007a1.676 1.676 0 0 1-.036.348 1.068 1.068 0 0 1-.104.283.909.909 0 0 1-.176.229 1.33 1.33 0 0 1-.251.186c-.278.16-.552.199-.823.117-.271-.083-.492-.273-.663-.569-.169-.294-.225-.579-.166-.855.061-.274.227-.489.498-.645.274-.158.54-.195.8-.112.257.082.474.276.651.583l.056.104zm-.643-.098c-.192-.195-.402-.226-.631-.094a.508.508 0 0 0-.219.249.557.557 0 0 0-.012.342l.862-.497zm1.783-1.508l-.247.393c-.122-.082-.224-.1-.307-.052a.167.167 0 0 0-.079.098.148.148 0 0 0 .016.124c.041.071.164.095.37.069.284-.033.489-.031.616.006s.23.126.311.266a.68.68 0 0 1 .061.565.78.78 0 0 1-.367.44c-.312.179-.62.154-.925-.075l.269-.381a.87.87 0 0 0 .214.103c.08.019.156.006.229-.035.145-.083.18-.191.103-.324-.044-.077-.141-.115-.291-.117-.056.003-.111.008-.166.012a8.22 8.22 0 0 1-.168.013.92.92 0 0 1-.369-.032.515.515 0 0 1-.27-.244.609.609 0 0 1-.064-.497.672.672 0 0 1 .321-.396c.238-.137.486-.116.743.064zm.997-.463l.839 1.459-.43.247-.839-1.459-.183.106-.231-.401.183-.106-.392-.682.43-.247.392.682.334-.192.231.401-.334.192zm1.504-2.847l1.022 1.776c.146.253.294.415.444.484a.7.7 0 0 0 .667-.046.704.704 0 0 0 .378-.554c.018-.161-.048-.37-.196-.627l-1.022-1.776.445-.256 1.092 1.898c.179.311.229.622.152.935a1.244 1.244 0 0 1-.609.798 1.231 1.231 0 0 1-1.725-.477l-1.092-1.898.444-.257zm4.252-.575l-.247.393c-.122-.082-.224-.1-.307-.052a.167.167 0 0 0-.079.098.148.148 0 0 0 .016.124c.041.071.164.094.37.069.284-.033.489-.031.616.006.127.038.23.126.311.266a.68.68 0 0 1 .061.565.78.78 0 0 1-.367.44c-.312.179-.62.154-.925-.075l.269-.381c.102.06.173.094.214.103.08.018.156.006.229-.035.145-.083.18-.191.103-.324-.044-.076-.141-.115-.291-.117a4.468 4.468 0 0 0-.166.012 8.22 8.22 0 0 1-.168.013.92.92 0 0 1-.369-.032.519.519 0 0 1-.27-.244.607.607 0 0 1-.064-.496.672.672 0 0 1 .321-.396c.238-.137.486-.117.743.063zm2.611-.552l-1.333.767a.652.652 0 0 0 .359.279.527.527 0 0 0 .415-.061.5.5 0 0 0 .221-.229c.039-.09.064-.23.072-.418l.479-.007a1.676 1.676 0 0 1-.036.348 1.068 1.068 0 0 1-.104.283.909.909 0 0 1-.176.229c-.071.068-.155.13-.252.185-.278.16-.552.199-.822.117-.271-.083-.492-.273-.663-.569-.169-.294-.225-.579-.167-.855.061-.274.227-.489.498-.645.274-.157.541-.195.8-.112.257.082.474.277.651.584l.058.104zm-.643-.097c-.192-.195-.402-.226-.631-.094a.494.494 0 0 0-.253.411.561.561 0 0 0 .021.179l.863-.496zm2.166-.931a1.065 1.065 0 0 1-.106-.852c.084-.299.264-.528.54-.687.278-.16.568-.2.87-.122.3.08.529.258.688.534.16.279.199.568.115.867a1.136 1.136 0 0 1-.551.691c-.279.16-.567.199-.866.117a1.114 1.114 0 0 1-.69-.548zm.444-.245c.107.186.241.304.403.356a.603.603 0 0 0 .497-.068.608.608 0 0 0 .31-.394.706.706 0 0 0-.099-.52c-.104-.181-.237-.296-.4-.347a.603.603 0 0 0-.497.068.603.603 0 0 0-.305.394.686.686 0 0 0 .091.511zm2.143-1.93l.839 1.459-.432.248-.838-1.459-.153.088-.231-.401.153-.088-.413-.718c-.135-.234-.189-.423-.163-.567.034-.199.158-.361.372-.484a.961.961 0 0 1 .327-.099l.253.439-.057.003a.611.611 0 0 0-.27.061c-.076.044-.112.101-.107.171.004.069.05.18.138.333l.353.613.468-.269.231.401-.47.269zm3.069-3.163l-.238.422c-.135-.078-.243-.118-.325-.118a.522.522 0 0 0-.282.081.526.526 0 0 0-.247.282.375.375 0 0 0 .027.33c.083.144.256.198.521.163l.363-.049c.295-.041.538-.024.729.052a.917.917 0 0 1 .461.417c.156.271.195.547.116.828-.08.283-.254.502-.524.657a1.051 1.051 0 0 1-.765.138c-.251-.057-.477-.212-.676-.463l.394-.359c.12.162.225.261.314.298.165.075.335.061.511-.04a.539.539 0 0 0 .266-.338.557.557 0 0 0-.066-.432.557.557 0 0 0-.115-.144.452.452 0 0 0-.15-.089.703.703 0 0 0-.195-.038 1.549 1.549 0 0 0-.249.009l-.353.046c-.502.061-.847-.072-1.036-.401a.823.823 0 0 1-.066-.702c.083-.248.25-.444.502-.589.341-.195.701-.182 1.083.039zm1.334.097l.614 1.068c.177.308.388.392.631.252s.276-.363.099-.672l-.614-1.068.43-.247.62 1.077c.086.149.141.288.167.418a.75.75 0 0 1-.035.368.94.94 0 0 1-.445.508.935.935 0 0 1-.661.128.753.753 0 0 1-.34-.153 1.243 1.243 0 0 1-.276-.355l-.62-1.077.43-.247zm1.346-2.592l.91 1.582c.069-.277.212-.479.43-.604a.933.933 0 0 1 .788-.08c.274.09.491.274.65.551.165.287.217.571.157.855a.939.939 0 0 1-.472.643.923.923 0 0 1-.72.083l.112.195-.43.247-1.856-3.226.431-.246zm2.35 1.721a.744.744 0 0 0-.396-.352.538.538 0 0 0-.468.04.57.57 0 0 0-.29.388.714.714 0 0 0 .099.513c.104.181.235.298.394.35.161.055.32.037.478-.054a.546.546 0 0 0 .275-.379.702.702 0 0 0-.092-.506zm1.614-1.762l-.247.393c-.122-.082-.224-.1-.307-.052a.167.167 0 0 0-.079.098.148.148 0 0 0 .016.124c.041.071.164.094.37.069.284-.033.489-.031.616.006.127.038.23.126.311.266a.68.68 0 0 1 .061.565.78.78 0 0 1-.367.44c-.312.179-.62.154-.925-.075l.269-.381c.102.06.173.094.214.103.08.018.157.006.229-.035.145-.083.18-.191.103-.324-.044-.076-.141-.115-.291-.117-.056.003-.111.008-.167.012a8.22 8.22 0 0 1-.168.013.92.92 0 0 1-.369-.032.515.515 0 0 1-.27-.244.611.611 0 0 1-.065-.496.676.676 0 0 1 .321-.396c.24-.138.488-.117.745.063zm1.818-1.361l.328.571a1.22 1.22 0 0 0-.405-.095.594.594 0 0 0-.309.086.612.612 0 0 0-.305.402.687.687 0 0 0 .085.518c.1.174.234.288.402.341a.602.602 0 0 0 .496-.062.635.635 0 0 0 .235-.224c.051-.087.093-.223.124-.407l.326.567a1.315 1.315 0 0 1-.445.437 1.156 1.156 0 0 1-.882.137 1.074 1.074 0 0 1-.691-.53 1.084 1.084 0 0 1-.11-.872c.086-.304.272-.538.557-.702a1.23 1.23 0 0 1 .594-.167zm.37-.32l.43-.247.096.166a.923.923 0 0 1 .112-.291.554.554 0 0 1 .194-.175.8.8 0 0 1 .419-.093l.029.507a.469.469 0 0 0-.289.05c-.234.135-.25.379-.046.734l.555.964-.43.247-1.07-1.862zm.953-1.578a.309.309 0 0 1-.03-.242.308.308 0 0 1 .15-.195.312.312 0 0 1 .246-.032.301.301 0 0 1 .195.15c.044.077.056.16.032.246a.304.304 0 0 1-.15.195.312.312 0 0 1-.246.032.32.32 0 0 1-.197-.154zm.939.489l1.07 1.86-.43.247-1.07-1.86.43-.247zm2.627 2.312l-.43.247-1.653-2.872.43-.247.116.202a.919.919 0 0 1 .431-.586.93.93 0 0 1 .795-.081c.276.091.496.279.66.564.161.279.211.559.151.841a.927.927 0 0 1-.467.637.927.927 0 0 1-.735.075l.702 1.22zm-.089-2.518a.739.739 0 0 0-.395-.352.539.539 0 0 0-.468.043.57.57 0 0 0-.29.385.72.72 0 0 0 .101.516c.1.174.232.29.395.347.161.055.32.037.478-.054a.536.536 0 0 0 .272-.38.7.7 0 0 0-.093-.505zm1.026-1.31l.839 1.459-.43.247-.84-1.459-.183.105-.231-.401.183-.105-.392-.682.43-.247.392.682.334-.192.231.401-.333.192zm-.114-1.498a.309.309 0 0 1-.03-.242.31.31 0 0 1 .149-.195.312.312 0 0 1 .246-.032.304.304 0 0 1 .196.149c.044.077.055.16.032.246a.306.306 0 0 1-.149.195.312.312 0 0 1-.246.032.308.308 0 0 1-.198-.153zm.939.489l1.07 1.86-.43.247-1.07-1.86.43-.247zm.984.655a1.065 1.065 0 0 1-.106-.852c.084-.299.264-.528.54-.687.278-.16.568-.2.87-.122.3.08.529.258.688.534.16.279.199.568.115.866a1.136 1.136 0 0 1-.551.691c-.279.16-.567.199-.866.117a1.11 1.11 0 0 1-.69-.547zm.444-.246c.107.186.241.305.403.356a.603.603 0 0 0 .497-.068.608.608 0 0 0 .31-.394.706.706 0 0 0-.099-.52c-.104-.181-.237-.296-.4-.347a.603.603 0 0 0-.497.068.603.603 0 0 0-.305.394.685.685 0 0 0 .091.511zm1.468-2.074l.432-.248.099.172a.813.813 0 0 1 .38-.516c.216-.124.424-.153.624-.087.171.056.332.215.483.477l.656 1.14-.433.249-.598-1.04c-.106-.183-.204-.295-.295-.336-.091-.043-.202-.026-.333.049-.143.082-.217.187-.222.316-.005.127.059.306.192.538l.516.898-.432.248-1.069-1.86zm3.408-1.539l-.247.393c-.122-.082-.224-.1-.307-.052a.167.167 0 0 0-.079.098.148.148 0 0 0 .016.124c.041.072.164.095.37.07.284-.033.489-.031.616.006.127.038.23.127.311.266a.68.68 0 0 1 .061.565.78.78 0 0 1-.367.44c-.312.179-.62.154-.925-.075l.269-.381a.93.93 0 0 0 .214.103c.08.018.156.006.229-.035.145-.084.18-.191.103-.324-.044-.076-.141-.115-.291-.117a4.468 4.468 0 0 0-.166.012l-.168.013a.92.92 0 0 1-.369-.032.515.515 0 0 1-.27-.244.613.613 0 0 1-.065-.497.672.672 0 0 1 .321-.396c.239-.137.487-.116.744.063zM58.485 120.001l-.993.585.351.595.964-.568.207.351-.964.568.488.828.993-.585.207.351-1.367.806-1.459-2.477 1.367-.805.206.351zm1.324.432l.722 1.226-.361.213-.722-1.226-.154.091-.199-.337.154-.091-.337-.573.361-.213.337.573.281-.165.199.337-.281.165zm-.348-1.794l.361-.212.752 1.277a.72.72 0 0 1 .323-.424.638.638 0 0 1 .525-.078c.148.046.287.179.415.397l.564.958-.361.213-.544-.924c-.074-.125-.15-.202-.227-.233-.078-.03-.166-.016-.264.042-.126.074-.192.165-.197.274-.004.109.051.26.165.452l.445.755-.361.213-1.596-2.71zm3.38 1.659l-1.048-2.97 1.984 1.424-.254-2.444 2.038 2.387-.383.226-1.12-1.354.215 2.041-1.661-1.191.616 1.653-.387.228zm3.407-4.113l.362-.214.921 1.562-.363.214-.096-.164c-.067.226-.186.39-.357.491a.798.798 0 0 1-.673.081 1.012 1.012 0 0 1-.562-.473.98.98 0 0 1-.135-.709.783.783 0 0 1 1.01-.608l-.107-.18zm-.399 1.281c.088.15.2.248.336.295.138.046.27.033.395-.041a.478.478 0 0 0 .242-.329.617.617 0 0 0-.09-.435.62.62 0 0 0-.337-.29.474.474 0 0 0-.403.05.463.463 0 0 0-.228.324.614.614 0 0 0 .085.426zm3.627-1.128a2.463 2.463 0 0 1 .176.359.775.775 0 0 1 .028.392c-.045.246-.192.442-.439.587a.9.9 0 0 1-.614.135.794.794 0 0 1-.523-.338l.363-.214a.46.46 0 0 0 .174.137c.132.053.27.038.413-.046.264-.156.3-.396.11-.719l-.128-.219a.782.782 0 0 1-.366.512.773.773 0 0 1-.659.077.988.988 0 0 1-.55-.465 1.044 1.044 0 0 1-.151-.693.767.767 0 0 1 .393-.573.73.73 0 0 1 .621-.069l-.104-.177.361-.212.895 1.526zm-.783-.537a.615.615 0 0 0-.336-.293.468.468 0 0 0-.398.047.45.45 0 0 0-.234.343.641.641 0 0 0 .1.416.642.642 0 0 0 .314.287.454.454 0 0 0 .412-.042.46.46 0 0 0 .238-.344.623.623 0 0 0-.096-.414zm-.097-1.875a.264.264 0 0 1-.028-.204.263.263 0 0 1 .125-.166.265.265 0 0 1 .207-.03c.073.018.128.06.166.125a.264.264 0 0 1 .029.207.259.259 0 0 1-.125.166.26.26 0 0 1-.207.029.257.257 0 0 1-.167-.127zm.798.405l.92 1.562-.361.213-.92-1.562.361-.213zm1.713-.918l.283.48a1.026 1.026 0 0 0-.343-.077.501.501 0 0 0-.26.076.514.514 0 0 0-.254.342.582.582 0 0 0 .076.437.592.592 0 0 0 .343.284.505.505 0 0 0 .418-.056.53.53 0 0 0 .196-.191c.043-.074.076-.189.101-.345l.281.477a1.108 1.108 0 0 1-.373.373.97.97 0 0 1-.744.123.909.909 0 0 1-.589-.442.922.922 0 0 1-.101-.736.969.969 0 0 1 .464-.598c.154-.092.322-.14.502-.147zm-.128-.891a.264.264 0 0 1-.028-.204.263.263 0 0 1 .125-.166.264.264 0 0 1 .207-.029.26.26 0 0 1 .167.125.264.264 0 0 1 .029.207.256.256 0 0 1-.125.166.273.273 0 0 1-.375-.099zm.799.405l.921 1.562-.361.213-.921-1.562.361-.213zm1.609-.948l.363-.214.921 1.563-.362.214-.096-.163c-.067.226-.186.39-.357.491a.8.8 0 0 1-.674.081 1.012 1.012 0 0 1-.562-.473.98.98 0 0 1-.135-.709.783.783 0 0 1 1.01-.608l-.108-.182zm-.399 1.281c.088.15.2.248.336.295.138.046.27.033.395-.041a.48.48 0 0 0 .243-.329.621.621 0 0 0-.09-.435.619.619 0 0 0-.338-.29.478.478 0 0 0-.403.049.462.462 0 0 0-.228.325.604.604 0 0 0 .085.426zm1.217-1.763l.363-.214.085.144a.69.69 0 0 1 .316-.439c.182-.107.358-.133.526-.078.145.046.283.179.412.399l.564.958-.362.214-.514-.873c-.091-.154-.175-.247-.252-.281-.077-.036-.171-.021-.281.045-.12.071-.181.16-.185.269-.003.107.053.258.167.453l.444.754-.362.214-.921-1.565zm2.866-1.33l-.205.335c-.104-.069-.19-.082-.26-.041a.14.14 0 0 0-.066.083.13.13 0 0 0 .014.105c.036.06.14.078.314.055.24-.03.413-.03.521 0a.46.46 0 0 1 .265.222c.089.151.107.31.056.477a.66.66 0 0 1-.306.375c-.262.155-.523.136-.782-.055l.224-.325c.087.05.148.078.182.085a.258.258 0 0 0 .193-.032c.122-.072.15-.163.085-.275-.038-.064-.12-.096-.247-.096a6.114 6.114 0 0 0-.14.011l-.142.012a.798.798 0 0 1-.312-.023.437.437 0 0 1-.23-.204.516.516 0 0 1-.059-.419.572.572 0 0 1 .268-.338c.199-.117.408-.102.627.048zm2.721-3.015l.261.443c-.323-.054-.6-.012-.83.124a.992.992 0 0 0-.482.653c-.068.285-.025.559.13.822.153.26.37.427.651.503.281.075.548.038.803-.112a.913.913 0 0 0 .298-.262 1.03 1.03 0 0 0 .108-.181c.034-.068.066-.146.097-.234l.266.451a1.573 1.573 0 0 1-.567.578 1.443 1.443 0 0 1-1.124.164 1.426 1.426 0 0 1-.905-.681 1.475 1.475 0 0 1-.184-1.028c.078-.454.321-.801.729-1.041.22-.131.47-.198.749-.199zm1.243 1.357a.903.903 0 0 1-.097-.719.942.942 0 0 1 .45-.586.946.946 0 0 1 .734-.11c.254.065.45.213.586.445a.919.919 0 0 1 .105.731.96.96 0 0 1-.459.588.917.917 0 0 1-.73.106.93.93 0 0 1-.589-.455zm.373-.211a.613.613 0 0 0 .343.297c.14.041.279.021.42-.061a.51.51 0 0 0 .258-.336c.031-.14.002-.287-.088-.439s-.203-.249-.341-.289a.516.516 0 0 0-.42.061.504.504 0 0 0-.254.336.581.581 0 0 0 .082.431zm1.582-1.978l.528.897c.153.259.331.328.535.208.204-.12.23-.31.078-.569l-.528-.897.361-.213.533.905c.073.125.122.242.144.351a.638.638 0 0 1-.026.312.795.795 0 0 1-.371.433.793.793 0 0 1-.557.115.641.641 0 0 1-.288-.126 1.018 1.018 0 0 1-.236-.298l-.533-.905.36-.213zm1.43-.843l.363-.214.085.144a.69.69 0 0 1 .316-.439c.182-.107.358-.133.527-.079.145.046.282.179.412.399l.564.958-.363.214-.514-.873c-.09-.154-.175-.247-.252-.281-.077-.035-.171-.02-.281.044-.12.071-.181.16-.185.269-.003.107.053.258.167.453l.444.754-.362.214-.921-1.563zm3.057-1.71l.283.48a1.026 1.026 0 0 0-.343-.077.499.499 0 0 0-.26.076.514.514 0 0 0-.254.342.582.582 0 0 0 .076.437c.086.147.2.242.342.284a.508.508 0 0 0 .419-.056.537.537 0 0 0 .196-.191c.043-.074.076-.189.101-.345l.281.477a1.108 1.108 0 0 1-.373.373.974.974 0 0 1-.744.123.906.906 0 0 1-.589-.442.922.922 0 0 1-.101-.736.971.971 0 0 1 .464-.598c.154-.092.322-.14.502-.147zm-.128-.891a.259.259 0 0 1-.027-.204.263.263 0 0 1 .125-.166.264.264 0 0 1 .207-.029.256.256 0 0 1 .166.125.264.264 0 0 1 .029.207.258.258 0 0 1-.124.166.267.267 0 0 1-.208.029.27.27 0 0 1-.168-.128zm.799.405l.921 1.562-.361.213-.921-1.562.361-.213zm.142-1.629l1.596 2.709-.361.212-1.596-2.709.361-.212zm2.527 1.093a.903.903 0 0 1-.097-.719.943.943 0 0 1 .45-.585.95.95 0 0 1 1.32.334.919.919 0 0 1 .105.731.96.96 0 0 1-.459.588.917.917 0 0 1-.73.106.927.927 0 0 1-.589-.455zm.372-.211a.611.611 0 0 0 .344.297c.14.042.279.021.419-.062a.51.51 0 0 0 .258-.336.591.591 0 0 0-.088-.438.6.6 0 0 0-.341-.29.512.512 0 0 0-.42.062.508.508 0 0 0-.254.335.593.593 0 0 0 .082.432zm1.795-1.649l.722 1.226-.363.214-.722-1.226-.128.076-.199-.337.128-.076-.355-.603c-.116-.197-.164-.356-.143-.477.028-.169.131-.306.311-.412a.84.84 0 0 1 .275-.087l.217.369-.048.003a.547.547 0 0 0-.228.054c-.064.038-.094.086-.089.146.004.058.044.151.12.279l.303.515.393-.232.199.337-.393.231zm2.187-.993l.593 1.006-.374.221-1.459-2.477.424-.25c.207-.122.373-.2.496-.234a.737.737 0 0 1 .379-.003.815.815 0 0 1 .523.401c.133.227.164.451.09.673-.073.222-.239.409-.497.561l-.175.102zm-.204-.346l.14-.082c.343-.202.437-.435.281-.7-.151-.256-.403-.279-.757-.071l-.123.073.459.78zm1.208-.995l.361-.213.082.14a.833.833 0 0 1 .092-.247.472.472 0 0 1 .162-.15.686.686 0 0 1 .353-.083l.029.428a.404.404 0 0 0-.244.044c-.197.116-.208.323-.033.62l.477.81-.361.213-.918-1.562zm2.38-1.403l.362-.214.921 1.562-.363.214-.096-.163a.801.801 0 0 1-1.03.573 1.009 1.009 0 0 1-.562-.473.98.98 0 0 1-.135-.709.783.783 0 0 1 1.01-.607l-.107-.183zm-.399 1.281c.088.15.2.248.336.295.138.047.27.033.395-.041a.481.481 0 0 0 .243-.329.616.616 0 0 0-.09-.435.62.62 0 0 0-.337-.29.474.474 0 0 0-.403.05.463.463 0 0 0-.228.324.603.603 0 0 0 .084.426zm3.627-1.128a2.463 2.463 0 0 1 .176.359.775.775 0 0 1 .028.392c-.045.246-.192.442-.439.587a.9.9 0 0 1-.614.135.796.796 0 0 1-.523-.338l.363-.214a.46.46 0 0 0 .174.137c.132.053.27.038.413-.047.264-.155.3-.395.11-.719l-.128-.218a.785.785 0 0 1-.366.512.77.77 0 0 1-.659.077.988.988 0 0 1-.55-.465 1.044 1.044 0 0 1-.151-.693.767.767 0 0 1 .393-.573.73.73 0 0 1 .621-.069l-.104-.177.361-.213.895 1.527zm-.783-.536a.615.615 0 0 0-.336-.293.468.468 0 0 0-.398.047.45.45 0 0 0-.234.343.641.641 0 0 0 .1.416.635.635 0 0 0 .314.286.454.454 0 0 0 .412-.042.46.46 0 0 0 .238-.343.62.62 0 0 0-.096-.414zm.701-1.47l.528.897c.152.259.331.328.535.208.204-.12.23-.31.078-.569l-.529-.897.361-.213.533.905c.074.125.122.242.144.351a.638.638 0 0 1-.026.312.79.79 0 0 1-.371.432.793.793 0 0 1-.557.115.632.632 0 0 1-.288-.127 1.018 1.018 0 0 1-.236-.298l-.533-.905.361-.211zm3.362-.815l-1.119.66c.085.123.187.2.305.232a.444.444 0 0 0 .35-.055.428.428 0 0 0 .185-.196c.033-.077.052-.194.057-.353l.405-.01c0 .108-.009.206-.028.294a.904.904 0 0 1-.085.241c-.038.072-.087.137-.146.195s-.13.111-.211.159c-.233.137-.464.173-.694.106-.23-.068-.418-.226-.565-.475-.145-.247-.195-.487-.148-.721a.82.82 0 0 1 .415-.549c.23-.136.455-.169.675-.102.218.067.403.229.555.487l.049.087zm-.544-.077c-.164-.163-.342-.187-.534-.074a.405.405 0 0 0-.211.351.48.48 0 0 0 .02.151l.725-.428z" fill="#FFF"/></svg>