<?xml version="1.0" encoding="utf-8"?>
<!-- Generator: Adobe Illustrator 21.0.2, SVG Export Plug-In . SVG Version: 6.00 Build 0)  -->
<svg version="1.1" xmlns="http://www.w3.org/2000/svg" xmlns:xlink="http://www.w3.org/1999/xlink" x="0px" y="0px"
	 viewBox="0 0 110.979 128.417" enable-background="new 0 0 110.979 128.417" xml:space="preserve">
<g id="Layer_1">
</g>
<g id="Layer_4">
</g>
<g id="border">
	<g>
		<polygon fill="#050A32" points="55.745,127.772 0.617,95.944 0.617,32.287 55.745,0.458 110.874,32.287 110.874,95.944 		"/>
	</g>
	<g enable-background="new    ">
		<g>
			<g>
				<path fill="#26FFAD" d="M55.744,10.533L9.271,37.325v53.583l46.473,26.789l46.476-26.789V37.325L55.744,10.533z M100.338,89.829
					L55.744,115.54L11.148,89.829V38.415l44.595-25.711l44.594,25.711V89.829z"/>
			</g>
		</g>
	</g>
	<g>
		<g>
			<g>
				<path fill="#26FFAD" d="M19.254,88.912c24.986,0,49.972,0,74.958,0c0.459,0,0.459-0.712,0-0.712c-24.986,0-49.972,0-74.958,0
					C18.795,88.201,18.795,88.912,19.254,88.912L19.254,88.912z"/>
			</g>
		</g>
	</g>
	<g>
		<g>
			<g>
				<path fill="#26FFAD" d="M19.254,86.967c24.986,0,49.972,0,74.958,0c0.459,0,0.459-0.712,0-0.712c-24.986,0-49.972,0-74.958,0
					C18.795,86.255,18.795,86.967,19.254,86.967L19.254,86.967z"/>
			</g>
		</g>
	</g>
	<g>
		<g>
			<g>
				<path fill="#26FFAD" d="M30.24,75.482c17.48,0,34.96,0,52.44,0c0.459,0,0.459-0.712,0-0.712c-17.48,0-34.96,0-52.44,0
					C29.781,74.771,29.781,75.482,30.24,75.482L30.24,75.482z"/>
			</g>
		</g>
	</g>
	<g>
		<g>
			<g>
				<path fill="#26FFAD" d="M94.25,85.932c-3.773-3.686-7.546-7.372-11.318-11.058c-0.328-0.321-0.832,0.182-0.503,0.503
					c3.773,3.686,7.546,7.372,11.318,11.058C94.075,86.757,94.579,86.254,94.25,85.932L94.25,85.932z"/>
			</g>
		</g>
	</g>
	<g>
		<g>
			<g>
				<path fill="#26FFAD" d="M94.521,88.462c0-0.696,0-1.392,0-2.088c0-0.459-0.712-0.459-0.712,0c0,0.696,0,1.392,0,2.088
					C93.809,88.921,94.521,88.921,94.521,88.462L94.521,88.462z"/>
			</g>
		</g>
	</g>
	<g>
		<g>
			<g>
				<path fill="#26FFAD" d="M19.221,86.436c3.773-3.686,7.546-7.372,11.318-11.058c0.329-0.321-0.175-0.824-0.503-0.503
					c-3.773,3.686-7.546,7.372-11.318,11.058C18.389,86.254,18.893,86.757,19.221,86.436L19.221,86.436z"/>
			</g>
		</g>
	</g>
	<g>
		<g>
			<g>
				<path fill="#26FFAD" d="M19.159,88.462c0-0.696,0-1.392,0-2.088c0-0.459-0.712-0.459-0.712,0c0,0.696,0,1.392,0,2.088
					C18.448,88.921,19.159,88.921,19.159,88.462L19.159,88.462z"/>
			</g>
		</g>
	</g>
	<g>
		<g>
			<g>
				<path fill="#26FFAD" d="M82.942,42.286v10.726H82.23V42.286C82.23,41.827,82.942,41.827,82.942,42.286z"/>
			</g>
			<g>
				<rect x="82.23" y="54.72" fill="#26FFAD" width="0.712" height="9.018"/>
			</g>
			<g>
				<path fill="#26FFAD" d="M82.23,65.446h0.712v9.3c0,0.461-0.712,0.461-0.712,0V65.446z"/>
			</g>
		</g>
	</g>
	<g>
		<g>
			<g>
				<path fill="#26FFAD" d="M30.525,42.643c17.322,0,34.643,0,51.965,0c0.459,0,0.459-0.712,0-0.712c-17.322,0-34.643,0-51.965,0
					C30.066,41.931,30.066,42.643,30.525,42.643L30.525,42.643z"/>
			</g>
		</g>
	</g>
	<g>
		<g>
			<g>
				<path fill="#26FFAD" d="M32.613,45.158c15.724,0,31.448,0,47.172,0c0.459,0,0.459-0.712,0-0.712c-15.724,0-31.448,0-47.172,0
					C32.154,44.446,32.154,45.158,32.613,45.158L32.613,45.158z"/>
			</g>
		</g>
	</g>
	<g>
		<g>
			<g>
				<path fill="#26FFAD" d="M80.046,44.754v8.257h-0.712v-8.257C79.334,44.296,80.046,44.296,80.046,44.754z"/>
			</g>
			<g>
				<rect x="79.334" y="54.72" fill="#26FFAD" width="0.712" height="9.018"/>
			</g>
			<g>
				<path fill="#26FFAD" d="M79.334,65.446h0.712v7.118c0,0.458-0.712,0.458-0.712,0V65.446z"/>
			</g>
		</g>
	</g>
	<g>
		<g>
			<g>
				<path fill="#26FFAD" d="M79.596,72.303c-15.692,0-31.385,0-47.077,0c-0.459,0-0.459,0.712,0,0.712c15.692,0,31.385,0,47.077,0
					C80.055,73.015,80.055,72.303,79.596,72.303L79.596,72.303z"/>
			</g>
		</g>
	</g>
	<g>
		<g>
			<g>
				<path fill="#26FFAD" d="M32.827,72.659c0-9.27,0-18.54,0-27.81c0-0.459-0.712-0.459-0.712,0c0,9.27,0,18.54,0,27.81
					C32.115,73.118,32.827,73.118,32.827,72.659L32.827,72.659z"/>
			</g>
		</g>
	</g>
	<g>
		<g>
			<g>
				<path fill="#26FFAD" d="M29.79,42.287c0,10.883,0,21.767,0,32.65c0,0.459,0.712,0.459,0.712,0c0-10.884,0-21.767,0-32.65
					C30.502,41.828,29.79,41.828,29.79,42.287L29.79,42.287z"/>
			</g>
		</g>
	</g>
	<g>
		<g>
			<path fill="#FFFFFF" d="M92.931,61.174c0,1.887-1.53,3.417-3.417,3.417H60.423c-1.887,0-3.417-1.53-3.417-3.417v-3.891
				c0-1.887,1.53-3.417,3.417-3.417h29.091c1.887,0,3.417,1.53,3.417,3.417V61.174z"/>
		</g>
	</g>
	<g>
		<g>
			<path fill="#FFFFFF" d="M60.422,53.012h11.153V32.605c0-1.885-1.529-3.417-3.417-3.417H40.917c-1.885,0-3.417,1.532-3.417,3.417
				v32.366c0,1.888,1.532,3.417,3.417,3.417h27.241c1.725,0,3.152-1.279,3.383-2.941H60.422c-2.355,0-4.271-1.916-4.271-4.271
				v-3.892C56.151,54.928,58.067,53.012,60.422,53.012z M46.518,31.728c0.55,0,0.997,0.447,0.997,0.997
				c0,0.549-0.447,0.997-0.997,0.997c-0.55,0-0.997-0.447-0.997-0.997C45.522,32.174,45.968,31.728,46.518,31.728z M44.075,31.728
				c0.55,0,0.997,0.447,0.997,0.997c0,0.549-0.447,0.997-0.997,0.997c-0.553,0-0.997-0.447-0.997-0.997
				C43.078,32.174,43.523,31.728,44.075,31.728z M41.606,31.728c0.55,0,0.997,0.447,0.997,0.997c0,0.549-0.447,0.997-0.997,0.997
				c-0.55,0-0.997-0.447-0.997-0.997C40.61,32.174,41.057,31.728,41.606,31.728z M40.681,36.474c-0.917,0-0.917-0.974,0-0.974
				h27.477c0.917,0,0.917,0.974,0,0.974H40.681z"/>
		</g>
	</g>
	<g>
		<g>
			<g>
				<path fill="#26FFAD" d="M26.966,82.423c19.853,0,39.705,0,59.558,0c0.229,0,0.229-0.356,0-0.356c-19.853,0-39.705,0-59.558,0
					C26.736,82.067,26.736,82.423,26.966,82.423L26.966,82.423z"/>
			</g>
		</g>
	</g>
	<g>
		<g>
			<g>
				<path fill="#26FFAD" d="M28.544,80.857c18.816,0,37.633,0,56.45,0c0.229,0,0.229-0.356,0-0.356c-18.816,0-37.633,0-56.45,0
					C28.315,80.501,28.315,80.857,28.544,80.857L28.544,80.857z"/>
			</g>
		</g>
	</g>
	<g>
		<g>
			<g>
				<path fill="#26FFAD" d="M29.647,79.469c18.081,0,36.162,0,54.243,0c0.23,0,0.23-0.356,0-0.356c-18.081,0-36.162,0-54.243,0
					C29.418,79.113,29.418,79.469,29.647,79.469L29.647,79.469z"/>
			</g>
		</g>
	</g>
	<g>
		<g>
			<g>
				<path fill="#26FFAD" d="M30.715,78.33c17.393,0,34.786,0,52.179,0c0.229,0,0.229-0.356,0-0.356c-17.393,0-34.786,0-52.179,0
					C30.486,77.974,30.486,78.33,30.715,78.33L30.715,78.33z"/>
			</g>
		</g>
	</g>
	<g>
		<g>
			<g>
				<path fill="#26FFAD" d="M31.546,77.333c16.823,0,33.647,0,50.47,0c0.23,0,0.23-0.356,0-0.356c-16.823,0-33.647,0-50.47,0
					C31.316,76.977,31.316,77.333,31.546,77.333L31.546,77.333z"/>
			</g>
		</g>
	</g>
	<g>
		<g>
			<g>
				<path fill="#26FFAD" d="M32.139,76.539c16.378,0,32.757,0,49.135,0c0.229,0,0.229-0.356,0-0.356c-16.378,0-32.757,0-49.135,0
					C31.909,76.183,31.909,76.539,32.139,76.539L32.139,76.539z"/>
			</g>
		</g>
	</g>
	<g>
		<g>
			<g>
				<path fill="#26FFAD" d="M81.273,76.582c1.708,1.93,3.417,3.859,5.125,5.789c0.153,0.172,0.403-0.081,0.252-0.252
					c-1.708-1.93-3.417-3.859-5.125-5.789C81.372,76.158,81.122,76.41,81.273,76.582L81.273,76.582z"/>
			</g>
		</g>
	</g>
	<g>
		<g>
			<g>
				<path fill="#26FFAD" d="M31.977,76.33c-1.708,1.93-3.417,3.86-5.125,5.789c-0.151,0.171,0.099,0.424,0.252,0.252
					c1.708-1.93,3.417-3.86,5.125-5.789C32.38,76.41,32.13,76.158,31.977,76.33L31.977,76.33z"/>
			</g>
		</g>
	</g>
	<g>
		<g>
			
				<rect x="30.687" y="81.32" transform="matrix(0.5916 -0.8063 0.8063 0.5916 -52.7856 58.726)" fill="#26FFAD" width="1.765" height="0.285"/>
		</g>
	</g>
	<g>
		<g>
			
				<rect x="32.929" y="79.878" transform="matrix(0.5916 -0.8063 0.8063 0.5916 -50.7075 59.9452)" fill="#26FFAD" width="1.765" height="0.285"/>
		</g>
	</g>
	<g>
		<g>
			
				<rect x="36.435" y="78.606" transform="matrix(0.5994 -0.8005 0.8005 0.5994 -48.1317 61.3289)" fill="#26FFAD" width="1.534" height="0.285"/>
		</g>
	</g>
	<g>
		<g>
			
				<rect x="35.742" y="77.523" transform="matrix(0.5452 -0.8383 0.8383 0.5452 -48.5756 65.7977)" fill="#26FFAD" width="1.218" height="0.285"/>
		</g>
	</g>
	<g>
		<g>
			
				<rect x="39.22" y="76.589" transform="matrix(0.5722 -0.8201 0.8201 0.5722 -45.9352 65.405)" fill="#26FFAD" width="1.006" height="0.285"/>
		</g>
	</g>
	<g>
		<g>
			
				<rect x="39.572" y="77.532" transform="matrix(0.422 -0.9066 0.9066 0.422 -47.2384 81.2523)" fill="#26FFAD" width="1.067" height="0.285"/>
		</g>
	</g>
	<g>
		<g>
			
				<rect x="40.515" y="78.582" transform="matrix(0.422 -0.9066 0.9066 0.422 -47.6452 82.7143)" fill="#26FFAD" width="1.067" height="0.285"/>
		</g>
	</g>
	<g>
		<g>
			
				<rect x="37.022" y="79.846" transform="matrix(0.4942 -0.8693 0.8693 0.4942 -50.4264 73.3014)" fill="#26FFAD" width="1.522" height="0.285"/>
		</g>
	</g>
	<g>
		<g>
			
				<rect x="40.795" y="79.935" transform="matrix(0.4942 -0.8693 0.8693 0.4942 -48.5956 76.6262)" fill="#26FFAD" width="1.522" height="0.285"/>
		</g>
	</g>
	<g>
		<g>
			
				<rect x="43.994" y="78.541" transform="matrix(0.2636 -0.9646 0.9646 0.2636 -43.0077 101.0274)" fill="#26FFAD" width="1.347" height="0.285"/>
		</g>
	</g>
	<g>
		<g>
			
				<rect x="43.105" y="77.473" transform="matrix(0.3657 -0.9307 0.9307 0.3657 -44.5274 89.8932)" fill="#26FFAD" width="1.167" height="0.284"/>
		</g>
	</g>
	<g>
		<g>
			
				<rect x="46.441" y="77.553" transform="matrix(0.1543 -0.988 0.988 0.1543 -37.0166 112.1463)" fill="#26FFAD" width="1.115" height="0.285"/>
		</g>
	</g>
	<g>
		<g>
			
				<rect x="50.38" y="77.084" transform="matrix(0.9995 -0.0304 0.0304 0.9995 -2.3392 1.5733)" fill="#26FFAD" width="0.285" height="1.114"/>
		</g>
	</g>
	<g>
		<g>
			
				<rect x="53.815" y="77.055" transform="matrix(0.9995 -0.0307 0.0307 0.9995 -2.3561 1.6922)" fill="#26FFAD" width="0.285" height="1.114"/>
		</g>
	</g>
	<g>
		<g>
			
				<rect x="52.083" y="76.225" transform="matrix(0.9995 -0.0307 0.0307 0.9995 -2.3315 1.6387)" fill="#26FFAD" width="0.285" height="1.114"/>
		</g>
	</g>
	<g>
		<g>
			
				<rect x="47.906" y="76.225" transform="matrix(0.9995 -0.0309 0.0309 0.9995 -2.3527 1.5234)" fill="#26FFAD" width="0.285" height="1.114"/>
		</g>
	</g>
	<g>
		<g>
			
				<rect x="43.73" y="76.225" transform="matrix(0.9995 -0.0307 0.0307 0.9995 -2.3373 1.3836)" fill="#26FFAD" width="0.285" height="1.114"/>
		</g>
	</g>
	<g>
		<g>
			
				<rect x="56.164" y="76.391" transform="matrix(0.9995 -0.0307 0.0307 0.9995 -2.3347 1.764)" fill="#26FFAD" width="0.285" height="1.114"/>
		</g>
	</g>
	<g>
		<g>
			
				<rect x="60.245" y="76.225" transform="matrix(0.9995 -0.0307 0.0307 0.9995 -2.3276 1.8892)" fill="#26FFAD" width="0.285" height="1.114"/>
		</g>
	</g>
	<g>
		<g>
			
				<rect x="64.516" y="76.225" transform="matrix(0.9995 -0.0307 0.0307 0.9995 -2.3256 2.0202)" fill="#26FFAD" width="0.285" height="1.114"/>
		</g>
	</g>
	<g>
		<g>
			
				<rect x="68.787" y="76.225" transform="matrix(0.9995 -0.0307 0.0307 0.9995 -2.3236 2.1513)" fill="#26FFAD" width="0.285" height="1.114"/>
		</g>
	</g>
	<g>
		<g>
			
				<rect x="73.058" y="76.225" transform="matrix(0.9995 -0.0307 0.0307 0.9995 -2.3216 2.2823)" fill="#26FFAD" width="0.285" height="1.114"/>
		</g>
	</g>
	<g>
		<g>
			
				<rect x="55.327" y="78.188" transform="matrix(0.9995 -0.0307 0.0307 0.9995 -2.3902 1.7392)" fill="#26FFAD" width="0.285" height="1.114"/>
		</g>
	</g>
	<g>
		<g>
			
				<rect x="57.338" y="77.102" transform="matrix(0.9977 -0.0676 0.0676 0.9977 -5.1195 4.0644)" fill="#26FFAD" width="0.285" height="1.114"/>
		</g>
	</g>
	<g>
		<g>
			
				<rect x="59.118" y="78.312" transform="matrix(0.9977 -0.0676 0.0676 0.9977 -5.1972 4.1875)" fill="#26FFAD" width="0.285" height="1.114"/>
		</g>
	</g>
	<g>
		<g>
			
				<rect x="60.88" y="77.067" transform="matrix(0.9928 -0.12 0.12 0.9928 -8.8764 7.8861)" fill="#26FFAD" width="0.285" height="1.114"/>
		</g>
	</g>
	<g>
		<g>
			
				<rect x="62.606" y="78.241" transform="matrix(0.9928 -0.12 0.12 0.9928 -9.0049 8.1018)" fill="#26FFAD" width="0.285" height="1.114"/>
		</g>
	</g>
	<g>
		<g>
			
				<rect x="64.403" y="77.138" transform="matrix(0.9837 -0.1799 0.1799 0.9837 -12.9254 12.8808)" fill="#26FFAD" width="0.285" height="1.114"/>
		</g>
	</g>
	<g>
		<g>
			
				<rect x="66.236" y="78.259" transform="matrix(0.9837 -0.1799 0.1799 0.9837 -13.0972 13.2289)" fill="#26FFAD" width="0.285" height="1.114"/>
		</g>
	</g>
	<g>
		<g>
			
				<rect x="68.675" y="79.434" transform="matrix(0.9837 -0.1799 0.1799 0.9837 -13.2687 13.6867)" fill="#26FFAD" width="0.285" height="1.114"/>
		</g>
	</g>
	<g>
		<g>
			
				<rect x="67.98" y="77.156" transform="matrix(0.9837 -0.1799 0.1799 0.9837 -12.8702 13.5246)" fill="#26FFAD" width="0.285" height="1.114"/>
		</g>
	</g>
	<g>
		<g>
			
				<rect x="69.724" y="78.099" transform="matrix(0.9837 -0.1799 0.1799 0.9837 -13.0115 13.8538)" fill="#26FFAD" width="0.285" height="1.114"/>
		</g>
	</g>
	<g>
		<g>
			
				<rect x="72.484" y="79.339" transform="matrix(0.9765 -0.2156 0.2156 0.9765 -15.5355 17.541)" fill="#26FFAD" width="0.285" height="1.269"/>
		</g>
	</g>
	<g>
		<g>
			
				<rect x="76.328" y="79.392" transform="matrix(0.9765 -0.2156 0.2156 0.9765 -15.4566 18.3711)" fill="#26FFAD" width="0.285" height="1.269"/>
		</g>
	</g>
	<g>
		<g>
			
				<rect x="71.88" y="80.764" transform="matrix(0.9862 -0.1655 0.1655 0.9862 -12.4884 13.0407)" fill="#26FFAD" width="0.285" height="1.417"/>
		</g>
	</g>
	<g>
		<g>
			
				<rect x="76.474" y="80.701" transform="matrix(0.9297 -0.3682 0.3682 0.9297 -24.619 33.9365)" fill="#26FFAD" width="0.285" height="1.556"/>
		</g>
	</g>
	<g>
		<g>
			
				<rect x="81.03" y="80.665" transform="matrix(0.8277 -0.5612 0.5612 0.8277 -31.7197 59.5945)" fill="#26FFAD" width="0.285" height="1.556"/>
		</g>
	</g>
	<g>
		<g>
			
				<rect x="71.326" y="77.102" transform="matrix(0.9837 -0.1799 0.1799 0.9837 -12.806 14.1257)" fill="#26FFAD" width="0.285" height="1.114"/>
		</g>
	</g>
	<g>
		<g>
			
				<rect x="73.408" y="78.206" transform="matrix(0.9837 -0.1799 0.1799 0.9837 -12.9706 14.5183)" fill="#26FFAD" width="0.285" height="1.114"/>
		</g>
	</g>
	<g>
		<g>
			
				<rect x="77.039" y="78.117" transform="matrix(0.9726 -0.2323 0.2323 0.9726 -16.1654 20.0827)" fill="#26FFAD" width="0.285" height="1.114"/>
		</g>
	</g>
	<g>
		<g>
			
				<rect x="74.832" y="77.067" transform="matrix(0.9837 -0.1799 0.1799 0.9837 -12.7424 14.7559)" fill="#26FFAD" width="0.285" height="1.114"/>
		</g>
	</g>
	<g>
		<g>
			
				<rect x="39.688" y="81.335" transform="matrix(0.4355 -0.9002 0.9002 0.4355 -50.4958 82.4303)" fill="#26FFAD" width="1.577" height="0.285"/>
		</g>
	</g>
	<g>
		<g>
			
				<rect x="63.042" y="80.617" transform="matrix(0.9559 -0.2937 0.2937 0.9559 -21.1195 22.1434)" fill="#26FFAD" width="0.284" height="1.577"/>
		</g>
	</g>
	<g>
		<g>
			
				<rect x="67.503" y="80.665" transform="matrix(0.9962 -0.0876 0.0876 0.9962 -6.878 6.2416)" fill="#26FFAD" width="0.285" height="1.577"/>
		</g>
	</g>
	<g>
		<g>
			
				<rect x="35.002" y="76.615" transform="matrix(0.6461 -0.7632 0.7632 0.6461 -46.0358 54.2288)" fill="#26FFAD" width="0.918" height="0.285"/>
		</g>
	</g>
	<g>
		<g>
			
				<rect x="35.136" y="81.355" transform="matrix(0.5916 -0.8063 0.8063 0.5916 -50.9971 62.3277)" fill="#26FFAD" width="1.765" height="0.285"/>
		</g>
	</g>
	<g>
		<g>
			<path fill="#26FFAD" d="M62.618,85.662H50.659c-0.779,0-1.412-0.633-1.412-1.411c0-0.779,0.633-1.412,1.412-1.412h11.959
				c0.778,0,1.412,0.633,1.412,1.412C64.03,85.029,63.396,85.662,62.618,85.662z M50.659,83.123c-0.621,0-1.127,0.506-1.127,1.127
				c0,0.621,0.506,1.127,1.127,1.127h11.959c0.621,0,1.127-0.506,1.127-1.127c0-0.621-0.506-1.127-1.127-1.127H50.659z"/>
		</g>
	</g>
	<g>
		<path fill="#050A32" d="M67.025,58.271l-0.353,0.209c-0.066-0.115-0.129-0.189-0.189-0.224c-0.062-0.039-0.143-0.06-0.241-0.06
			c-0.121,0-0.221,0.034-0.301,0.103c-0.08,0.067-0.119,0.152-0.119,0.254c0,0.141,0.105,0.254,0.313,0.34l0.287,0.118
			c0.234,0.095,0.405,0.21,0.513,0.346c0.108,0.136,0.162,0.303,0.162,0.501c0,0.265-0.088,0.484-0.265,0.657
			c-0.178,0.174-0.399,0.261-0.662,0.261c-0.25,0-0.457-0.074-0.62-0.222c-0.16-0.148-0.261-0.356-0.3-0.625l0.44-0.097
			c0.02,0.169,0.055,0.286,0.105,0.351c0.09,0.124,0.22,0.187,0.392,0.187c0.136,0,0.248-0.045,0.338-0.136
			c0.09-0.091,0.134-0.206,0.134-0.345c0-0.056-0.008-0.107-0.023-0.154c-0.016-0.047-0.04-0.09-0.073-0.129
			c-0.033-0.039-0.076-0.076-0.128-0.11c-0.052-0.034-0.115-0.067-0.187-0.098l-0.278-0.116c-0.395-0.167-0.592-0.411-0.592-0.732
			c0-0.216,0.083-0.398,0.248-0.543c0.165-0.147,0.371-0.22,0.618-0.22C66.579,57.786,66.838,57.948,67.025,58.271z"/>
		<path fill="#050A32" d="M68.059,57.842v1.736c0,0.248,0.04,0.429,0.121,0.543c0.121,0.165,0.291,0.248,0.509,0.248
			c0.22,0,0.391-0.083,0.511-0.248c0.081-0.111,0.121-0.292,0.121-0.543v-1.736h0.435v1.855c0,0.304-0.095,0.554-0.284,0.75
			c-0.213,0.219-0.474,0.329-0.784,0.329s-0.57-0.11-0.782-0.329c-0.189-0.197-0.284-0.447-0.284-0.75v-1.855H68.059z"/>
		<path fill="#050A32" d="M70.448,60.724v-2.882h0.433c0.193,0,0.346,0.015,0.461,0.045c0.116,0.03,0.213,0.08,0.293,0.151
			c0.081,0.074,0.145,0.165,0.192,0.274c0.048,0.111,0.073,0.223,0.073,0.336c0,0.207-0.079,0.381-0.237,0.524
			c0.153,0.052,0.274,0.144,0.362,0.274c0.09,0.13,0.134,0.28,0.134,0.452c0,0.225-0.08,0.416-0.239,0.571
			c-0.096,0.096-0.203,0.162-0.323,0.2c-0.131,0.036-0.294,0.054-0.491,0.054H70.448z M70.883,59.079h0.136
			c0.162,0,0.28-0.036,0.356-0.107c0.075-0.071,0.113-0.177,0.113-0.316c0-0.136-0.039-0.239-0.116-0.309
			c-0.077-0.07-0.189-0.105-0.336-0.105h-0.153V59.079z M70.883,60.315h0.269c0.197,0,0.341-0.039,0.433-0.116
			c0.097-0.083,0.146-0.189,0.146-0.318c0-0.124-0.047-0.229-0.14-0.313c-0.091-0.083-0.253-0.125-0.487-0.125h-0.22V60.315z"/>
		<path fill="#050A32" d="M74.337,58.271l-0.353,0.209c-0.066-0.115-0.129-0.189-0.189-0.224c-0.062-0.039-0.143-0.06-0.241-0.06
			c-0.121,0-0.221,0.034-0.301,0.103c-0.08,0.067-0.119,0.152-0.119,0.254c0,0.141,0.105,0.254,0.313,0.34l0.288,0.118
			c0.234,0.095,0.405,0.21,0.513,0.346c0.108,0.136,0.162,0.303,0.162,0.501c0,0.265-0.088,0.484-0.265,0.657
			c-0.178,0.174-0.399,0.261-0.662,0.261c-0.25,0-0.457-0.074-0.62-0.222c-0.16-0.148-0.261-0.356-0.3-0.625l0.44-0.097
			c0.02,0.169,0.055,0.286,0.105,0.351c0.09,0.124,0.22,0.187,0.392,0.187c0.136,0,0.248-0.045,0.338-0.136
			c0.09-0.091,0.134-0.206,0.134-0.345c0-0.056-0.008-0.107-0.023-0.154c-0.016-0.047-0.04-0.09-0.073-0.129
			c-0.033-0.039-0.076-0.076-0.128-0.11c-0.052-0.034-0.115-0.067-0.187-0.098l-0.278-0.116c-0.395-0.167-0.592-0.411-0.592-0.732
			c0-0.216,0.083-0.398,0.248-0.543c0.165-0.147,0.371-0.22,0.618-0.22C73.891,57.786,74.15,57.948,74.337,58.271z"/>
		<path fill="#050A32" d="M77.066,57.997v0.515c-0.251-0.21-0.511-0.315-0.78-0.315c-0.296,0-0.546,0.106-0.748,0.319
			c-0.204,0.211-0.306,0.47-0.306,0.776c0,0.302,0.102,0.557,0.306,0.765c0.204,0.207,0.454,0.311,0.75,0.311
			c0.153,0,0.283-0.025,0.39-0.075c0.06-0.025,0.122-0.058,0.186-0.101c0.064-0.042,0.132-0.093,0.202-0.153v0.524
			c-0.249,0.14-0.51,0.211-0.784,0.211c-0.412,0-0.763-0.144-1.054-0.431c-0.29-0.29-0.435-0.64-0.435-1.049
			c0-0.367,0.121-0.694,0.364-0.982c0.299-0.352,0.685-0.528,1.159-0.528C76.574,57.786,76.824,57.856,77.066,57.997z"/>
		<path fill="#050A32" d="M78.59,59.496l0.892,1.228H78.95l-0.823-1.18h-0.078v1.18h-0.435v-2.882h0.509
			c0.381,0,0.656,0.072,0.825,0.215c0.187,0.159,0.28,0.37,0.28,0.631c0,0.204-0.058,0.38-0.175,0.526
			C78.936,59.361,78.782,59.455,78.59,59.496z M78.049,59.165h0.138c0.412,0,0.618-0.157,0.618-0.472c0-0.295-0.2-0.442-0.601-0.442
			h-0.155V59.165z"/>
		<path fill="#050A32" d="M80.35,57.842v2.882h-0.435v-2.882H80.35z"/>
		<path fill="#050A32" d="M81.043,60.724v-2.882h0.433c0.193,0,0.346,0.015,0.461,0.045c0.116,0.03,0.213,0.08,0.293,0.151
			c0.081,0.074,0.145,0.165,0.192,0.274c0.048,0.111,0.073,0.223,0.073,0.336c0,0.207-0.079,0.381-0.237,0.524
			c0.153,0.052,0.274,0.144,0.362,0.274c0.09,0.13,0.134,0.28,0.134,0.452c0,0.225-0.08,0.416-0.239,0.571
			c-0.096,0.096-0.203,0.162-0.323,0.2c-0.131,0.036-0.294,0.054-0.491,0.054H81.043z M81.478,59.079h0.136
			c0.162,0,0.28-0.036,0.356-0.107c0.075-0.071,0.113-0.177,0.113-0.316c0-0.136-0.039-0.239-0.116-0.309
			c-0.077-0.07-0.189-0.105-0.336-0.105h-0.153V59.079z M81.478,60.315h0.269c0.197,0,0.341-0.039,0.433-0.116
			c0.097-0.083,0.146-0.189,0.146-0.318c0-0.124-0.047-0.229-0.14-0.313c-0.091-0.083-0.253-0.125-0.487-0.125h-0.22V60.315z"/>
		<path fill="#050A32" d="M84.893,58.251h-1.155v0.692h1.121v0.409h-1.121v0.963h1.155v0.409h-1.59v-2.882h1.59V58.251z"/>
	</g>
	<g>
		<path fill="#050A32" d="M57.528,41.314c3.417,0,6.834,0,10.251,0c0.459,0,0.459-0.712,0-0.712c-3.417,0-6.834,0-10.251,0
			C57.069,40.602,57.069,41.314,57.528,41.314L57.528,41.314z"/>
	</g>
	<g>
		<path fill="#050A32" d="M41.772,44.541c6.992,0,13.984,0,20.976,0c0.459,0,0.459-0.712,0-0.712c-6.992,0-13.984,0-20.976,0
			C41.313,43.829,41.313,44.541,41.772,44.541L41.772,44.541z"/>
	</g>
	<g>
		<path fill="#050A32" d="M55.82,41.314c0.459,0,0.459-0.712,0-0.712S55.361,41.314,55.82,41.314L55.82,41.314z"/>
	</g>
	<g>
		<path fill="#050A32" d="M64.172,44.541c0.459,0,0.459-0.712,0-0.712S63.713,44.541,64.172,44.541L64.172,44.541z"/>
	</g>
	<g>
		<path fill="#050A32" d="M41.773,49.239c7.498,0,14.996,0,22.494,0c0.459,0,0.459-0.712,0-0.712c-7.498,0-14.996,0-22.494,0
			C41.314,48.527,41.314,49.239,41.773,49.239L41.773,49.239z"/>
	</g>
	<g>
		<path fill="#050A32" d="M41.773,53.225c4.16,0,8.321,0,12.481,0c0.459,0,0.459-0.712,0-0.712c-4.16,0-8.321,0-12.481,0
			C41.314,52.514,41.314,53.225,41.773,53.225L41.773,53.225z"/>
	</g>
	<g>
		<path fill="#050A32" d="M41.773,57.212c4.113,0,8.226,0,12.339,0c0.459,0,0.459-0.712,0-0.712c-4.113,0-8.226,0-12.339,0
			C41.314,56.5,41.314,57.212,41.773,57.212L41.773,57.212z"/>
	</g>
	<g>
		<path fill="#050A32" d="M41.773,61.198c4.16,0,8.321,0,12.481,0c0.459,0,0.459-0.712,0-0.712c-4.16,0-8.321,0-12.481,0
			C41.314,60.486,41.314,61.198,41.773,61.198L41.773,61.198z"/>
	</g>
	<g>
		<g>
			<path fill="#FFFFFF" d="M9.989,33.895l-1.696-2.949l0.443-0.255c0.197-0.114,0.364-0.189,0.498-0.226
				c0.136-0.037,0.266-0.043,0.389-0.018c0.126,0.027,0.245,0.083,0.358,0.167c0.115,0.085,0.205,0.185,0.272,0.301
				c0.122,0.212,0.143,0.437,0.066,0.676c0.187-0.037,0.365-0.014,0.532,0.068c0.168,0.08,0.302,0.207,0.403,0.383
				c0.132,0.23,0.163,0.472,0.091,0.725c-0.041,0.154-0.113,0.286-0.213,0.394c-0.112,0.114-0.269,0.229-0.47,0.345L9.989,33.895z
				 M9.466,31.956l0.139-0.08c0.166-0.095,0.266-0.202,0.301-0.319c0.035-0.117,0.011-0.248-0.071-0.39
				c-0.08-0.138-0.18-0.221-0.3-0.248c-0.12-0.026-0.256,0.004-0.406,0.09l-0.157,0.09L9.466,31.956z M10.194,33.221l0.275-0.158
				c0.201-0.116,0.326-0.24,0.375-0.374c0.05-0.142,0.038-0.279-0.038-0.41c-0.073-0.127-0.182-0.207-0.328-0.238
				c-0.142-0.032-0.333,0.021-0.572,0.159l-0.225,0.13L10.194,33.221z"/>
			<path fill="#FFFFFF" d="M13.437,30.808l-1.333,0.767c0.099,0.146,0.219,0.239,0.359,0.279c0.139,0.038,0.278,0.018,0.415-0.061
				c0.107-0.061,0.181-0.138,0.221-0.229c0.039-0.091,0.064-0.23,0.073-0.418l0.479-0.007c-0.001,0.128-0.013,0.244-0.036,0.348
				c-0.023,0.104-0.058,0.199-0.104,0.283c-0.046,0.085-0.105,0.162-0.176,0.229c-0.071,0.068-0.155,0.13-0.251,0.186
				c-0.278,0.16-0.552,0.199-0.823,0.117c-0.271-0.083-0.492-0.273-0.663-0.569c-0.169-0.294-0.225-0.579-0.166-0.855
				c0.061-0.274,0.227-0.489,0.498-0.645c0.274-0.158,0.54-0.195,0.8-0.112c0.257,0.082,0.474,0.276,0.651,0.583L13.437,30.808z
				 M12.794,30.71c-0.192-0.195-0.402-0.226-0.631-0.094c-0.052,0.03-0.097,0.066-0.133,0.108s-0.065,0.089-0.086,0.141
				c-0.02,0.051-0.032,0.106-0.034,0.164c-0.002,0.057,0.004,0.117,0.022,0.178L12.794,30.71z"/>
			<path fill="#FFFFFF" d="M14.577,29.202l-0.247,0.393c-0.122-0.082-0.224-0.1-0.307-0.052c-0.039,0.023-0.066,0.055-0.079,0.098
				c-0.013,0.042-0.008,0.084,0.016,0.124c0.041,0.071,0.164,0.095,0.37,0.069c0.284-0.033,0.489-0.031,0.616,0.006
				c0.127,0.037,0.23,0.126,0.311,0.266c0.103,0.18,0.123,0.368,0.061,0.565c-0.063,0.189-0.185,0.335-0.367,0.44
				c-0.312,0.179-0.62,0.154-0.925-0.075l0.269-0.381c0.102,0.06,0.173,0.095,0.214,0.103c0.08,0.019,0.156,0.006,0.229-0.035
				c0.145-0.083,0.18-0.191,0.103-0.324c-0.044-0.077-0.141-0.115-0.291-0.117c-0.056,0.003-0.111,0.008-0.166,0.012
				c-0.055,0.005-0.111,0.009-0.168,0.013c-0.16,0.011-0.283,0-0.369-0.032c-0.11-0.04-0.2-0.121-0.27-0.244
				c-0.093-0.162-0.115-0.327-0.064-0.497c0.052-0.171,0.16-0.303,0.321-0.396C14.072,29.001,14.32,29.022,14.577,29.202z"/>
			<path fill="#FFFFFF" d="M15.574,28.739l0.839,1.459l-0.43,0.247l-0.839-1.459l-0.183,0.106l-0.231-0.401l0.183-0.106
				l-0.392-0.682l0.43-0.247l0.392,0.682l0.334-0.192l0.231,0.401L15.574,28.739z"/>
			<path fill="#FFFFFF" d="M17.078,25.892l1.022,1.776c0.146,0.253,0.294,0.415,0.444,0.484c0.221,0.098,0.443,0.083,0.667-0.046
				c0.226-0.13,0.351-0.314,0.378-0.554c0.018-0.161-0.048-0.37-0.196-0.627l-1.022-1.776l0.445-0.256l1.092,1.898
				c0.179,0.311,0.229,0.622,0.152,0.935c-0.089,0.349-0.292,0.615-0.609,0.798c-0.317,0.182-0.648,0.224-0.993,0.124
				c-0.309-0.09-0.553-0.29-0.732-0.601l-1.092-1.898L17.078,25.892z"/>
			<path fill="#FFFFFF" d="M21.33,25.317l-0.247,0.393c-0.122-0.082-0.224-0.1-0.307-0.052c-0.039,0.023-0.066,0.055-0.079,0.098
				c-0.013,0.042-0.008,0.084,0.016,0.124c0.041,0.071,0.164,0.094,0.37,0.069c0.284-0.033,0.489-0.031,0.616,0.006
				c0.127,0.038,0.23,0.126,0.311,0.266c0.103,0.18,0.123,0.368,0.061,0.565c-0.063,0.189-0.185,0.335-0.367,0.44
				c-0.312,0.179-0.62,0.154-0.925-0.075l0.269-0.381c0.102,0.06,0.173,0.094,0.214,0.103c0.08,0.018,0.156,0.006,0.229-0.035
				c0.145-0.083,0.18-0.191,0.103-0.324c-0.044-0.076-0.141-0.115-0.291-0.117c-0.056,0.003-0.111,0.007-0.166,0.012
				c-0.055,0.005-0.111,0.009-0.168,0.013c-0.16,0.011-0.283,0-0.369-0.032c-0.11-0.04-0.2-0.122-0.27-0.244
				c-0.093-0.162-0.115-0.327-0.064-0.496c0.052-0.171,0.16-0.303,0.321-0.396C20.825,25.117,21.073,25.137,21.33,25.317z"/>
			<path fill="#FFFFFF" d="M23.941,24.765l-1.333,0.767c0.099,0.146,0.219,0.239,0.359,0.279c0.139,0.038,0.277,0.018,0.415-0.061
				c0.107-0.061,0.181-0.138,0.221-0.229c0.039-0.09,0.064-0.23,0.072-0.418l0.479-0.007c-0.001,0.128-0.013,0.244-0.036,0.348
				c-0.023,0.104-0.058,0.199-0.104,0.283c-0.046,0.085-0.105,0.162-0.176,0.229c-0.071,0.068-0.155,0.13-0.252,0.185
				c-0.278,0.16-0.552,0.199-0.822,0.117c-0.271-0.083-0.492-0.273-0.663-0.569c-0.169-0.294-0.225-0.579-0.167-0.855
				c0.061-0.274,0.227-0.489,0.498-0.645c0.274-0.157,0.541-0.195,0.8-0.112c0.257,0.082,0.474,0.277,0.651,0.584L23.941,24.765z
				 M23.298,24.668c-0.192-0.195-0.402-0.226-0.631-0.094c-0.052,0.03-0.096,0.066-0.133,0.108c-0.037,0.042-0.065,0.089-0.086,0.14
				c-0.021,0.052-0.032,0.106-0.034,0.163c-0.003,0.058,0.004,0.117,0.021,0.179L23.298,24.668z"/>
			<path fill="#FFFFFF" d="M25.464,23.737c-0.155-0.269-0.19-0.553-0.106-0.852c0.084-0.299,0.264-0.528,0.54-0.687
				c0.278-0.16,0.568-0.2,0.87-0.122c0.3,0.08,0.529,0.258,0.688,0.534c0.16,0.279,0.199,0.568,0.115,0.867
				c-0.086,0.299-0.269,0.529-0.551,0.691c-0.279,0.16-0.567,0.199-0.866,0.117C25.859,24.205,25.628,24.022,25.464,23.737z
				 M25.908,23.492c0.107,0.186,0.241,0.304,0.403,0.356c0.165,0.051,0.331,0.028,0.497-0.068c0.168-0.097,0.271-0.228,0.31-0.394
				c0.038-0.166,0.005-0.34-0.099-0.52c-0.104-0.181-0.237-0.296-0.4-0.347c-0.165-0.051-0.331-0.028-0.497,0.068
				c-0.164,0.095-0.266,0.226-0.305,0.394C25.778,23.148,25.808,23.319,25.908,23.492z"/>
			<path fill="#FFFFFF" d="M28.051,21.562l0.839,1.459l-0.432,0.248L27.62,21.81l-0.153,0.088l-0.231-0.401l0.153-0.088
				l-0.413-0.718c-0.135-0.234-0.189-0.423-0.163-0.567c0.034-0.199,0.158-0.361,0.372-0.484c0.076-0.044,0.185-0.077,0.327-0.099
				l0.253,0.439l-0.057,0.003c-0.12,0.006-0.21,0.026-0.27,0.061c-0.076,0.044-0.112,0.101-0.107,0.171
				c0.004,0.069,0.05,0.18,0.138,0.333l0.353,0.613l0.468-0.269l0.231,0.401L28.051,21.562z"/>
			<path fill="#FFFFFF" d="M31.12,18.399l-0.238,0.422c-0.135-0.078-0.243-0.118-0.325-0.118c-0.087-0.004-0.181,0.023-0.282,0.081
				c-0.123,0.071-0.206,0.165-0.247,0.282c-0.042,0.116-0.033,0.226,0.027,0.33c0.083,0.144,0.256,0.198,0.521,0.163l0.363-0.049
				c0.295-0.041,0.538-0.024,0.729,0.052c0.191,0.076,0.345,0.214,0.461,0.417c0.156,0.271,0.195,0.547,0.116,0.828
				c-0.08,0.283-0.254,0.502-0.524,0.657c-0.256,0.147-0.511,0.193-0.765,0.138c-0.251-0.057-0.477-0.212-0.676-0.463l0.394-0.359
				c0.12,0.162,0.225,0.261,0.314,0.298c0.165,0.075,0.335,0.061,0.511-0.04c0.139-0.08,0.227-0.192,0.266-0.338
				c0.038-0.145,0.016-0.289-0.066-0.432c-0.033-0.058-0.071-0.105-0.115-0.144c-0.043-0.039-0.093-0.068-0.15-0.089
				c-0.057-0.021-0.122-0.033-0.195-0.038c-0.074-0.004-0.157-0.001-0.249,0.009l-0.353,0.046c-0.502,0.061-0.847-0.072-1.036-0.401
				c-0.127-0.221-0.149-0.455-0.066-0.702c0.083-0.248,0.25-0.444,0.502-0.589C30.378,18.165,30.738,18.178,31.12,18.399z"/>
			<path fill="#FFFFFF" d="M32.454,18.496l0.614,1.068c0.177,0.308,0.388,0.392,0.631,0.252c0.243-0.14,0.276-0.363,0.099-0.672
				l-0.614-1.068l0.43-0.247l0.62,1.077c0.086,0.149,0.141,0.288,0.167,0.418c0.02,0.117,0.008,0.24-0.035,0.368
				c-0.073,0.21-0.221,0.379-0.445,0.508c-0.223,0.128-0.443,0.171-0.661,0.128c-0.134-0.026-0.247-0.077-0.34-0.153
				c-0.085-0.066-0.177-0.184-0.276-0.355l-0.62-1.077L32.454,18.496z"/>
			<path fill="#FFFFFF" d="M33.8,15.904l0.91,1.582c0.069-0.277,0.212-0.479,0.43-0.604c0.251-0.144,0.513-0.17,0.788-0.08
				c0.274,0.09,0.491,0.274,0.65,0.551c0.165,0.287,0.217,0.571,0.157,0.855c-0.06,0.282-0.217,0.496-0.472,0.643
				c-0.215,0.124-0.455,0.152-0.72,0.083l0.112,0.195l-0.43,0.247l-1.856-3.226L33.8,15.904z M36.15,17.625
				c-0.103-0.178-0.234-0.295-0.396-0.352c-0.164-0.058-0.32-0.045-0.468,0.04c-0.158,0.091-0.254,0.22-0.29,0.388
				c-0.035,0.166-0.002,0.337,0.099,0.513c0.104,0.181,0.235,0.298,0.394,0.35c0.161,0.055,0.32,0.037,0.478-0.054
				c0.149-0.086,0.241-0.212,0.275-0.379C36.278,17.962,36.246,17.793,36.15,17.625z"/>
			<path fill="#FFFFFF" d="M37.764,15.863l-0.247,0.393c-0.122-0.082-0.224-0.1-0.307-0.052c-0.039,0.023-0.066,0.055-0.079,0.098
				c-0.013,0.042-0.008,0.084,0.016,0.124c0.041,0.071,0.164,0.094,0.37,0.069c0.284-0.033,0.489-0.031,0.616,0.006
				c0.127,0.038,0.23,0.126,0.311,0.266c0.103,0.18,0.123,0.368,0.061,0.565c-0.063,0.189-0.185,0.335-0.367,0.44
				c-0.312,0.179-0.62,0.154-0.925-0.075l0.269-0.381c0.102,0.06,0.173,0.094,0.214,0.103c0.08,0.018,0.157,0.006,0.229-0.035
				c0.145-0.083,0.18-0.191,0.103-0.324c-0.044-0.076-0.141-0.115-0.291-0.117c-0.056,0.003-0.111,0.008-0.167,0.012
				c-0.055,0.005-0.111,0.009-0.168,0.013c-0.16,0.011-0.283,0-0.369-0.032c-0.11-0.04-0.2-0.121-0.27-0.244
				c-0.093-0.162-0.115-0.327-0.065-0.496c0.053-0.171,0.16-0.303,0.321-0.396C37.259,15.662,37.507,15.683,37.764,15.863z"/>
			<path fill="#FFFFFF" d="M39.582,14.502l0.328,0.571c-0.167-0.063-0.302-0.095-0.405-0.095c-0.103-0.002-0.206,0.027-0.309,0.086
				c-0.162,0.093-0.263,0.227-0.305,0.402c-0.042,0.175-0.013,0.348,0.085,0.518c0.1,0.174,0.234,0.288,0.402,0.341
				c0.169,0.052,0.334,0.031,0.496-0.062c0.103-0.059,0.181-0.134,0.235-0.224c0.051-0.087,0.093-0.223,0.124-0.407l0.326,0.567
				c-0.123,0.191-0.271,0.336-0.445,0.437c-0.288,0.166-0.582,0.211-0.882,0.137c-0.301-0.076-0.532-0.253-0.691-0.53
				c-0.16-0.278-0.197-0.569-0.11-0.872c0.086-0.304,0.272-0.538,0.557-0.702C39.17,14.563,39.368,14.508,39.582,14.502z"/>
			<path fill="#FFFFFF" d="M39.952,14.182l0.43-0.247l0.096,0.166c0.031-0.128,0.068-0.226,0.112-0.291
				c0.044-0.068,0.109-0.126,0.194-0.175c0.113-0.065,0.253-0.096,0.419-0.093l0.029,0.507c-0.115-0.012-0.211,0.005-0.289,0.05
				c-0.234,0.135-0.25,0.379-0.046,0.734l0.555,0.964l-0.43,0.247L39.952,14.182z"/>
			<path fill="#FFFFFF" d="M40.905,12.604c-0.043-0.075-0.053-0.156-0.03-0.242c0.023-0.086,0.073-0.151,0.15-0.195
				c0.078-0.045,0.16-0.055,0.246-0.032c0.086,0.022,0.151,0.072,0.195,0.15c0.044,0.077,0.056,0.16,0.032,0.246
				c-0.022,0.085-0.072,0.151-0.15,0.195c-0.078,0.045-0.16,0.055-0.246,0.032C41.016,12.734,40.951,12.683,40.905,12.604z
				 M41.844,13.093l1.07,1.86l-0.43,0.247l-1.07-1.86L41.844,13.093z"/>
			<path fill="#FFFFFF" d="M44.471,15.405l-0.43,0.247l-1.653-2.872l0.43-0.247l0.116,0.202c0.072-0.267,0.216-0.462,0.431-0.586
				c0.256-0.147,0.521-0.174,0.795-0.081c0.276,0.091,0.496,0.279,0.66,0.564c0.161,0.279,0.211,0.559,0.151,0.841
				c-0.059,0.28-0.215,0.492-0.467,0.637c-0.218,0.125-0.463,0.15-0.735,0.075L44.471,15.405z M44.382,12.887
				c-0.102-0.178-0.234-0.296-0.395-0.352c-0.163-0.057-0.32-0.043-0.468,0.043c-0.158,0.091-0.254,0.219-0.29,0.385
				c-0.035,0.166-0.001,0.338,0.101,0.516c0.1,0.174,0.232,0.29,0.395,0.347c0.161,0.055,0.32,0.037,0.478-0.054
				c0.149-0.086,0.24-0.212,0.272-0.38C44.51,13.223,44.479,13.055,44.382,12.887z"/>
			<path fill="#FFFFFF" d="M45.408,11.577l0.839,1.459l-0.43,0.247l-0.84-1.459l-0.183,0.105l-0.231-0.401l0.183-0.105l-0.392-0.682
				l0.43-0.247l0.392,0.682l0.334-0.192l0.231,0.401L45.408,11.577z"/>
			<path fill="#FFFFFF" d="M45.294,10.079c-0.043-0.075-0.053-0.156-0.03-0.242c0.023-0.086,0.073-0.151,0.149-0.195
				c0.078-0.045,0.16-0.055,0.246-0.032c0.086,0.022,0.151,0.071,0.196,0.149c0.044,0.077,0.055,0.16,0.032,0.246
				c-0.022,0.085-0.072,0.151-0.149,0.195c-0.078,0.045-0.16,0.055-0.246,0.032C45.405,10.209,45.339,10.159,45.294,10.079z
				 M46.233,10.568l1.07,1.86l-0.43,0.247l-1.07-1.86L46.233,10.568z"/>
			<path fill="#FFFFFF" d="M47.217,11.223c-0.155-0.269-0.19-0.553-0.106-0.852c0.084-0.299,0.264-0.528,0.54-0.687
				c0.278-0.16,0.568-0.2,0.87-0.122c0.3,0.08,0.529,0.258,0.688,0.534c0.16,0.279,0.199,0.568,0.115,0.866
				c-0.086,0.299-0.269,0.529-0.551,0.691c-0.279,0.16-0.567,0.199-0.866,0.117C47.612,11.691,47.381,11.508,47.217,11.223z
				 M47.661,10.977c0.107,0.186,0.241,0.305,0.403,0.356c0.165,0.051,0.331,0.028,0.497-0.068c0.168-0.097,0.271-0.228,0.31-0.394
				c0.038-0.166,0.005-0.34-0.099-0.52c-0.104-0.181-0.237-0.296-0.4-0.347c-0.165-0.051-0.331-0.028-0.497,0.068
				c-0.164,0.095-0.266,0.226-0.305,0.394C47.531,10.634,47.561,10.804,47.661,10.977z"/>
			<path fill="#FFFFFF" d="M49.129,8.903l0.432-0.248l0.099,0.172c0.064-0.235,0.191-0.407,0.38-0.516
				c0.216-0.124,0.424-0.153,0.624-0.087c0.171,0.056,0.332,0.215,0.483,0.477l0.656,1.14L51.37,10.09L50.772,9.05
				c-0.106-0.183-0.204-0.295-0.295-0.336c-0.091-0.043-0.202-0.026-0.333,0.049c-0.143,0.082-0.217,0.187-0.222,0.316
				c-0.005,0.127,0.059,0.306,0.192,0.538l0.516,0.898l-0.432,0.248L49.129,8.903z"/>
			<path fill="#FFFFFF" d="M52.537,7.364l-0.247,0.393c-0.122-0.082-0.224-0.1-0.307-0.052c-0.039,0.023-0.066,0.055-0.079,0.098
				c-0.013,0.042-0.008,0.083,0.016,0.124c0.041,0.072,0.164,0.095,0.37,0.07c0.284-0.033,0.489-0.031,0.616,0.006
				c0.127,0.038,0.23,0.127,0.311,0.266c0.103,0.18,0.123,0.368,0.061,0.565c-0.063,0.189-0.185,0.335-0.367,0.44
				c-0.312,0.179-0.62,0.154-0.925-0.075l0.269-0.381c0.102,0.06,0.174,0.094,0.214,0.103c0.08,0.018,0.156,0.006,0.229-0.035
				c0.145-0.084,0.18-0.191,0.103-0.324c-0.044-0.076-0.141-0.115-0.291-0.117c-0.056,0.003-0.111,0.007-0.166,0.012
				c-0.055,0.004-0.111,0.009-0.168,0.013c-0.16,0.011-0.283,0-0.369-0.032c-0.11-0.04-0.2-0.121-0.27-0.244
				c-0.093-0.162-0.115-0.327-0.065-0.497c0.052-0.171,0.16-0.303,0.321-0.396C52.032,7.164,52.28,7.185,52.537,7.364z"/>
		</g>
	</g>
	<g>
		<g>
			<path fill="#FFFFFF" d="M58.485,120.001l-0.993,0.585l0.351,0.595l0.964-0.568l0.207,0.351l-0.964,0.568l0.488,0.828l0.993-0.585
				l0.207,0.351l-1.367,0.806l-1.459-2.477l1.367-0.805L58.485,120.001z"/>
			<path fill="#FFFFFF" d="M59.809,120.433l0.722,1.226l-0.361,0.213l-0.722-1.226l-0.154,0.091l-0.199-0.337l0.154-0.091
				l-0.337-0.573l0.361-0.213l0.337,0.573l0.281-0.165l0.199,0.337L59.809,120.433z"/>
			<path fill="#FFFFFF" d="M59.461,118.639l0.361-0.212l0.752,1.277c0.06-0.191,0.168-0.333,0.323-0.424
				c0.177-0.104,0.351-0.13,0.525-0.078c0.148,0.046,0.287,0.179,0.415,0.397l0.564,0.958l-0.361,0.213l-0.544-0.924
				c-0.074-0.125-0.15-0.202-0.227-0.233c-0.078-0.03-0.166-0.016-0.264,0.042c-0.126,0.074-0.192,0.165-0.197,0.274
				c-0.004,0.109,0.051,0.26,0.165,0.452l0.445,0.755l-0.361,0.213L59.461,118.639z"/>
			<path fill="#FFFFFF" d="M62.841,120.298l-1.048-2.97l1.984,1.424l-0.254-2.444l2.038,2.387l-0.383,0.226l-1.12-1.354l0.215,2.041
				l-1.661-1.191l0.616,1.653L62.841,120.298z"/>
			<path fill="#FFFFFF" d="M66.248,116.185l0.362-0.214l0.921,1.562l-0.363,0.214l-0.096-0.164c-0.067,0.226-0.186,0.39-0.357,0.491
				c-0.216,0.127-0.44,0.155-0.673,0.081c-0.234-0.077-0.421-0.234-0.562-0.473c-0.138-0.234-0.183-0.471-0.135-0.709
				c0.048-0.239,0.177-0.42,0.388-0.544c0.182-0.107,0.389-0.128,0.622-0.064L66.248,116.185z M65.849,117.466
				c0.088,0.15,0.2,0.248,0.336,0.295c0.138,0.046,0.27,0.033,0.395-0.041c0.133-0.079,0.215-0.188,0.242-0.329
				c0.027-0.143-0.004-0.289-0.09-0.435c-0.086-0.147-0.199-0.243-0.337-0.29c-0.137-0.044-0.271-0.028-0.403,0.05
				c-0.124,0.073-0.2,0.181-0.228,0.324C65.739,117.184,65.767,117.326,65.849,117.466z"/>
			<path fill="#FFFFFF" d="M69.476,116.338c0.044,0.074,0.08,0.14,0.108,0.199c0.028,0.059,0.051,0.112,0.068,0.16
				c0.043,0.133,0.053,0.263,0.028,0.392c-0.045,0.246-0.192,0.442-0.439,0.587c-0.209,0.123-0.413,0.168-0.614,0.135
				c-0.207-0.033-0.382-0.146-0.523-0.338l0.363-0.214c0.059,0.069,0.117,0.115,0.174,0.137c0.132,0.053,0.27,0.038,0.413-0.046
				c0.264-0.156,0.3-0.396,0.11-0.719l-0.128-0.219c-0.057,0.231-0.179,0.402-0.366,0.512c-0.212,0.125-0.432,0.151-0.659,0.077
				c-0.229-0.075-0.412-0.23-0.55-0.465c-0.134-0.228-0.185-0.459-0.151-0.693c0.037-0.25,0.168-0.441,0.393-0.573
				c0.197-0.116,0.404-0.139,0.621-0.069l-0.104-0.177l0.361-0.212L69.476,116.338z M68.693,115.801
				c-0.09-0.152-0.202-0.25-0.336-0.293c-0.137-0.044-0.27-0.029-0.398,0.047c-0.137,0.081-0.215,0.195-0.234,0.343
				c-0.018,0.133,0.015,0.272,0.1,0.416c0.084,0.142,0.189,0.238,0.314,0.287c0.137,0.053,0.274,0.039,0.412-0.042
				c0.138-0.081,0.217-0.196,0.238-0.344C68.809,116.082,68.777,115.943,68.693,115.801z"/>
			<path fill="#FFFFFF" d="M68.596,113.926c-0.037-0.063-0.046-0.131-0.028-0.204c0.019-0.073,0.061-0.128,0.125-0.166
				c0.066-0.039,0.135-0.048,0.207-0.03c0.073,0.018,0.128,0.06,0.166,0.125c0.038,0.065,0.048,0.135,0.029,0.207
				c-0.018,0.072-0.06,0.128-0.125,0.166c-0.065,0.039-0.135,0.048-0.207,0.029C68.691,114.036,68.635,113.993,68.596,113.926z
				 M69.394,114.331l0.92,1.562l-0.361,0.213l-0.92-1.562L69.394,114.331z"/>
			<path fill="#FFFFFF" d="M71.107,113.413l0.283,0.48c-0.142-0.052-0.256-0.078-0.343-0.077c-0.086-0.001-0.173,0.025-0.26,0.076
				c-0.136,0.08-0.221,0.194-0.254,0.342c-0.034,0.148-0.008,0.294,0.076,0.437c0.086,0.147,0.201,0.241,0.343,0.284
				c0.143,0.043,0.283,0.024,0.418-0.056c0.087-0.051,0.152-0.115,0.196-0.191c0.043-0.074,0.076-0.189,0.101-0.345l0.281,0.477
				c-0.102,0.162-0.226,0.286-0.373,0.373c-0.242,0.143-0.49,0.184-0.744,0.123c-0.255-0.061-0.451-0.209-0.589-0.442
				c-0.137-0.233-0.171-0.479-0.101-0.736c0.07-0.258,0.225-0.457,0.464-0.598C70.759,113.468,70.927,113.42,71.107,113.413z"/>
			<path fill="#FFFFFF" d="M70.979,112.522c-0.037-0.063-0.046-0.131-0.028-0.204c0.019-0.073,0.061-0.128,0.125-0.166
				c0.065-0.038,0.134-0.048,0.207-0.029c0.073,0.018,0.128,0.06,0.167,0.125c0.038,0.065,0.048,0.135,0.029,0.207
				c-0.018,0.072-0.059,0.128-0.125,0.166c-0.065,0.038-0.134,0.048-0.207,0.029C71.075,112.631,71.019,112.588,70.979,112.522z
				 M71.778,112.927l0.921,1.562l-0.361,0.213l-0.921-1.562L71.778,112.927z"/>
			<path fill="#FFFFFF" d="M73.387,111.979l0.363-0.214l0.921,1.563l-0.362,0.214l-0.096-0.163c-0.067,0.226-0.186,0.39-0.357,0.491
				c-0.216,0.127-0.441,0.155-0.674,0.081c-0.234-0.077-0.421-0.234-0.562-0.473c-0.138-0.234-0.183-0.471-0.135-0.709
				c0.048-0.239,0.177-0.42,0.388-0.544c0.182-0.107,0.389-0.128,0.622-0.064L73.387,111.979z M72.988,113.26
				c0.088,0.15,0.2,0.248,0.336,0.295c0.138,0.046,0.27,0.033,0.395-0.041c0.134-0.079,0.215-0.188,0.243-0.329
				c0.026-0.144-0.004-0.289-0.09-0.435c-0.086-0.147-0.199-0.243-0.338-0.29c-0.137-0.044-0.271-0.028-0.403,0.049
				c-0.124,0.073-0.2,0.181-0.228,0.325C72.877,112.978,72.905,113.12,72.988,113.26z"/>
			<path fill="#FFFFFF" d="M74.205,111.497l0.363-0.214l0.085,0.144c0.053-0.199,0.158-0.346,0.316-0.439
				c0.182-0.107,0.358-0.133,0.526-0.078c0.145,0.046,0.283,0.179,0.412,0.399l0.564,0.958l-0.362,0.214l-0.514-0.873
				c-0.091-0.154-0.175-0.247-0.252-0.281c-0.077-0.036-0.171-0.021-0.281,0.045c-0.12,0.071-0.181,0.16-0.185,0.269
				c-0.003,0.107,0.053,0.258,0.167,0.453l0.444,0.754l-0.362,0.214L74.205,111.497z"/>
			<path fill="#FFFFFF" d="M77.071,110.167l-0.205,0.335c-0.104-0.069-0.19-0.082-0.26-0.041c-0.033,0.019-0.055,0.047-0.066,0.083
				c-0.01,0.036-0.006,0.071,0.014,0.105c0.036,0.06,0.14,0.078,0.314,0.055c0.24-0.03,0.413-0.03,0.521,0
				c0.107,0.031,0.195,0.105,0.265,0.222c0.089,0.151,0.107,0.31,0.056,0.477c-0.051,0.16-0.154,0.285-0.306,0.375
				c-0.262,0.155-0.523,0.136-0.782-0.055l0.224-0.325c0.087,0.05,0.148,0.078,0.182,0.085c0.068,0.015,0.132,0.004,0.193-0.032
				c0.122-0.072,0.15-0.163,0.085-0.275c-0.038-0.064-0.12-0.096-0.247-0.096c-0.047,0.003-0.094,0.007-0.14,0.011
				c-0.046,0.004-0.094,0.008-0.142,0.012c-0.135,0.01-0.239,0.003-0.312-0.023c-0.093-0.033-0.17-0.101-0.23-0.204
				c-0.08-0.136-0.1-0.275-0.059-0.419c0.043-0.145,0.132-0.257,0.268-0.338C76.643,110.002,76.852,110.017,77.071,110.167z"/>
			<path fill="#FFFFFF" d="M79.792,107.152l0.261,0.443c-0.323-0.054-0.6-0.012-0.83,0.124c-0.255,0.15-0.415,0.368-0.482,0.653
				c-0.068,0.285-0.025,0.559,0.13,0.822c0.153,0.26,0.37,0.427,0.651,0.503c0.281,0.075,0.548,0.038,0.803-0.112
				c0.132-0.077,0.231-0.165,0.298-0.262c0.039-0.051,0.075-0.112,0.108-0.181c0.034-0.068,0.066-0.146,0.097-0.234l0.266,0.451
				c-0.143,0.247-0.332,0.439-0.567,0.578c-0.354,0.209-0.729,0.263-1.124,0.164c-0.396-0.102-0.698-0.33-0.905-0.681
				c-0.186-0.316-0.247-0.658-0.184-1.028c0.078-0.454,0.321-0.801,0.729-1.041C79.263,107.22,79.513,107.153,79.792,107.152z"/>
			<path fill="#FFFFFF" d="M81.035,108.509c-0.133-0.226-0.165-0.465-0.097-0.719c0.068-0.254,0.218-0.449,0.45-0.586
				c0.233-0.137,0.478-0.174,0.734-0.11c0.254,0.065,0.45,0.213,0.586,0.445c0.138,0.234,0.173,0.478,0.105,0.731
				c-0.07,0.253-0.223,0.449-0.459,0.588c-0.234,0.138-0.477,0.174-0.73,0.106C81.373,108.901,81.176,108.749,81.035,108.509z
				 M81.408,108.298c0.092,0.156,0.206,0.255,0.343,0.297c0.14,0.041,0.279,0.021,0.42-0.061c0.141-0.083,0.227-0.195,0.258-0.336
				c0.031-0.14,0.002-0.287-0.088-0.439s-0.203-0.249-0.341-0.289c-0.14-0.041-0.28-0.021-0.42,0.061
				c-0.138,0.081-0.223,0.193-0.254,0.336C81.295,108.009,81.322,108.153,81.408,108.298z"/>
			<path fill="#FFFFFF" d="M82.99,106.32l0.528,0.897c0.153,0.259,0.331,0.328,0.535,0.208c0.204-0.12,0.23-0.31,0.078-0.569
				l-0.528-0.897l0.361-0.213l0.533,0.905c0.073,0.125,0.122,0.242,0.144,0.351c0.018,0.099,0.009,0.203-0.026,0.312
				c-0.06,0.178-0.183,0.322-0.371,0.433c-0.187,0.11-0.373,0.149-0.557,0.115c-0.113-0.021-0.209-0.063-0.288-0.126
				c-0.073-0.055-0.152-0.154-0.236-0.298l-0.533-0.905L82.99,106.32z"/>
			<path fill="#FFFFFF" d="M84.42,105.477l0.363-0.214l0.085,0.144c0.053-0.199,0.158-0.346,0.316-0.439
				c0.182-0.107,0.358-0.133,0.527-0.079c0.145,0.046,0.282,0.179,0.412,0.399l0.564,0.958l-0.363,0.214l-0.514-0.873
				c-0.09-0.154-0.175-0.247-0.252-0.281c-0.077-0.035-0.171-0.02-0.281,0.044c-0.12,0.071-0.181,0.16-0.185,0.269
				c-0.003,0.107,0.053,0.258,0.167,0.453l0.444,0.754l-0.362,0.214L84.42,105.477z"/>
			<path fill="#FFFFFF" d="M87.477,103.767l0.283,0.48c-0.142-0.052-0.256-0.078-0.343-0.077c-0.087-0.001-0.173,0.025-0.26,0.076
				c-0.136,0.08-0.221,0.194-0.254,0.342c-0.034,0.148-0.008,0.294,0.076,0.437c0.086,0.147,0.2,0.242,0.342,0.284
				c0.143,0.043,0.283,0.024,0.419-0.056c0.086-0.051,0.152-0.115,0.196-0.191c0.043-0.074,0.076-0.189,0.101-0.345l0.281,0.477
				c-0.102,0.162-0.226,0.286-0.373,0.373c-0.242,0.142-0.489,0.184-0.744,0.123c-0.255-0.061-0.452-0.209-0.589-0.442
				c-0.137-0.233-0.171-0.479-0.101-0.736c0.07-0.257,0.225-0.457,0.464-0.598C87.129,103.822,87.297,103.774,87.477,103.767z"/>
			<path fill="#FFFFFF" d="M87.349,102.876c-0.037-0.063-0.046-0.131-0.027-0.204c0.019-0.073,0.061-0.128,0.125-0.166
				c0.065-0.038,0.134-0.048,0.207-0.029c0.072,0.018,0.128,0.059,0.166,0.125c0.038,0.065,0.048,0.135,0.029,0.207
				c-0.018,0.072-0.059,0.128-0.124,0.166c-0.066,0.038-0.135,0.048-0.208,0.029C87.445,102.985,87.388,102.942,87.349,102.876z
				 M88.148,103.281l0.921,1.562l-0.361,0.213l-0.921-1.562L88.148,103.281z"/>
			<path fill="#FFFFFF" d="M88.29,101.652l1.596,2.709l-0.361,0.212l-1.596-2.709L88.29,101.652z"/>
			<path fill="#FFFFFF" d="M90.817,102.745c-0.133-0.226-0.165-0.465-0.097-0.719c0.068-0.253,0.219-0.449,0.45-0.585
				c0.233-0.137,0.478-0.174,0.734-0.111c0.254,0.065,0.45,0.213,0.586,0.445c0.138,0.234,0.173,0.478,0.105,0.731
				c-0.07,0.253-0.223,0.449-0.459,0.588c-0.234,0.138-0.477,0.174-0.73,0.106C91.154,103.137,90.958,102.985,90.817,102.745z
				 M91.189,102.534c0.092,0.156,0.206,0.255,0.344,0.297c0.14,0.042,0.279,0.021,0.419-0.062c0.141-0.083,0.227-0.195,0.258-0.336
				c0.031-0.14,0.002-0.287-0.088-0.438c-0.09-0.152-0.204-0.249-0.341-0.29c-0.14-0.041-0.28-0.021-0.42,0.062
				c-0.138,0.081-0.222,0.193-0.254,0.335C91.077,102.245,91.104,102.389,91.189,102.534z"/>
			<path fill="#FFFFFF" d="M92.984,100.885l0.722,1.226l-0.363,0.214l-0.722-1.226l-0.128,0.076l-0.199-0.337l0.128-0.076
				l-0.355-0.603c-0.116-0.197-0.164-0.356-0.143-0.477c0.028-0.169,0.131-0.306,0.311-0.412c0.064-0.038,0.156-0.066,0.275-0.087
				l0.217,0.369l-0.048,0.003c-0.102,0.007-0.177,0.025-0.228,0.054c-0.064,0.038-0.094,0.086-0.089,0.146
				c0.004,0.058,0.044,0.151,0.12,0.279l0.303,0.515l0.393-0.232l0.199,0.337L92.984,100.885z"/>
			<path fill="#FFFFFF" d="M95.171,99.892l0.593,1.006l-0.374,0.221l-1.459-2.477l0.424-0.25c0.207-0.122,0.373-0.2,0.496-0.234
				c0.124-0.034,0.25-0.035,0.379-0.003c0.224,0.055,0.399,0.189,0.523,0.401c0.133,0.227,0.164,0.451,0.09,0.673
				c-0.073,0.222-0.239,0.409-0.497,0.561L95.171,99.892z M94.967,99.546l0.14-0.082c0.343-0.202,0.437-0.435,0.281-0.7
				c-0.151-0.256-0.403-0.279-0.757-0.071l-0.123,0.073L94.967,99.546z"/>
			<path fill="#FFFFFF" d="M96.175,98.551l0.361-0.213l0.082,0.14c0.026-0.108,0.056-0.191,0.092-0.247
				c0.037-0.058,0.091-0.108,0.162-0.15c0.095-0.056,0.213-0.083,0.353-0.083l0.029,0.428c-0.097-0.009-0.178,0.006-0.244,0.044
				c-0.197,0.116-0.208,0.323-0.033,0.62l0.477,0.81l-0.361,0.213L96.175,98.551z"/>
			<path fill="#FFFFFF" d="M98.555,97.148l0.362-0.214l0.921,1.562l-0.363,0.214l-0.096-0.163c-0.067,0.226-0.186,0.39-0.357,0.491
				c-0.216,0.127-0.44,0.155-0.673,0.082c-0.234-0.077-0.422-0.234-0.562-0.473c-0.138-0.234-0.183-0.471-0.135-0.709
				c0.048-0.239,0.177-0.42,0.388-0.544c0.182-0.107,0.389-0.128,0.622-0.063L98.555,97.148z M98.156,98.429
				c0.088,0.15,0.2,0.248,0.336,0.295c0.138,0.047,0.27,0.033,0.395-0.041c0.134-0.079,0.215-0.189,0.243-0.329
				c0.027-0.144-0.004-0.289-0.09-0.435c-0.086-0.147-0.199-0.243-0.337-0.29c-0.137-0.044-0.271-0.028-0.403,0.05
				c-0.124,0.073-0.2,0.181-0.228,0.324C98.045,98.147,98.074,98.289,98.156,98.429z"/>
			<path fill="#FFFFFF" d="M101.783,97.301c0.044,0.074,0.08,0.14,0.108,0.199c0.028,0.059,0.051,0.112,0.068,0.16
				c0.043,0.133,0.053,0.263,0.028,0.392c-0.045,0.246-0.192,0.442-0.439,0.587c-0.209,0.123-0.413,0.168-0.614,0.135
				c-0.207-0.033-0.381-0.146-0.523-0.338l0.363-0.214c0.059,0.069,0.117,0.115,0.174,0.137c0.132,0.053,0.27,0.038,0.413-0.047
				c0.264-0.155,0.3-0.395,0.11-0.719l-0.128-0.218c-0.057,0.231-0.179,0.401-0.366,0.512c-0.212,0.125-0.432,0.152-0.659,0.077
				c-0.229-0.075-0.412-0.23-0.55-0.465c-0.134-0.228-0.185-0.459-0.151-0.693c0.037-0.25,0.168-0.441,0.393-0.573
				c0.197-0.116,0.404-0.139,0.621-0.069l-0.104-0.177l0.361-0.213L101.783,97.301z M101,96.765c-0.09-0.152-0.202-0.25-0.336-0.293
				c-0.137-0.044-0.27-0.029-0.398,0.047c-0.137,0.081-0.215,0.195-0.234,0.343c-0.018,0.133,0.015,0.272,0.1,0.416
				c0.084,0.142,0.189,0.238,0.314,0.286c0.137,0.053,0.274,0.039,0.412-0.042c0.138-0.081,0.217-0.196,0.238-0.343
				C101.116,97.045,101.084,96.906,101,96.765z"/>
			<path fill="#FFFFFF" d="M101.701,95.295l0.528,0.897c0.152,0.259,0.331,0.328,0.535,0.208c0.204-0.12,0.23-0.31,0.078-0.569
				l-0.529-0.897l0.361-0.213l0.533,0.905c0.074,0.125,0.122,0.242,0.144,0.351c0.018,0.099,0.009,0.203-0.026,0.312
				c-0.059,0.178-0.184,0.322-0.371,0.432c-0.187,0.11-0.373,0.149-0.557,0.115c-0.113-0.021-0.209-0.063-0.288-0.127
				c-0.073-0.055-0.152-0.154-0.236-0.298l-0.533-0.905L101.701,95.295z"/>
			<path fill="#FFFFFF" d="M105.063,94.48l-1.119,0.66c0.085,0.123,0.187,0.2,0.305,0.232c0.118,0.031,0.235,0.013,0.35-0.055
				c0.09-0.053,0.151-0.118,0.185-0.196c0.033-0.077,0.052-0.194,0.057-0.353l0.405-0.01c0,0.108-0.009,0.206-0.028,0.294
				c-0.018,0.088-0.047,0.169-0.085,0.241c-0.038,0.072-0.087,0.137-0.146,0.195s-0.13,0.111-0.211,0.159
				c-0.233,0.137-0.464,0.173-0.694,0.106c-0.23-0.068-0.418-0.226-0.565-0.475c-0.145-0.247-0.195-0.487-0.148-0.721
				c0.049-0.232,0.187-0.415,0.415-0.549c0.23-0.136,0.455-0.169,0.675-0.102c0.218,0.067,0.403,0.229,0.555,0.487L105.063,94.48z
				 M104.519,94.403c-0.164-0.163-0.342-0.187-0.534-0.074c-0.044,0.026-0.081,0.057-0.112,0.093
				c-0.031,0.036-0.054,0.076-0.071,0.12c-0.017,0.044-0.026,0.09-0.028,0.138c-0.002,0.048,0.005,0.098,0.02,0.151L104.519,94.403z
				"/>
		</g>
	</g>
</g>
</svg>
