<svg enable-background="new 0 0 110.9 128" viewBox="0 0 110.9 128" xmlns="http://www.w3.org/2000/svg" xmlns:xlink="http://www.w3.org/1999/xlink"><defs><path id="a" d="m101.5 37.4v53.1l-46 26.6-46-26.6v-53.1l46-26.6z"/><clipPath id="b"><use xlink:href="#a"/></clipPath><radialGradient id="c" cx="62.2863" cy="34.4375" gradientUnits="userSpaceOnUse" r="49.2108"><stop offset="0" stop-color="#ffff1e"/><stop offset=".07922375" stop-color="#feef19" stop-opacity=".9208"/><stop offset=".2076" stop-color="#fedd13" stop-opacity=".7924"/><stop offset=".3611" stop-color="#fdd10f" stop-opacity=".6389"/><stop offset=".563" stop-color="#fdc90d" stop-opacity=".437"/><stop offset="1" stop-color="#fdc70c" stop-opacity="0"/></radialGradient><linearGradient id="d" gradientUnits="userSpaceOnUse" x1="61.6732" x2="62.9819" y1="24.6494" y2="44.0421"><stop offset="0" stop-color="#fff33b"/><stop offset=".0401054" stop-color="#fee72e"/><stop offset=".1171" stop-color="#fed51b"/><stop offset=".1964" stop-color="#fdca10"/><stop offset=".2809" stop-color="#fdc70c"/><stop offset=".6685" stop-color="#f3903f"/></linearGradient><clipPath id="e"><use xlink:href="#m"/></clipPath><clipPath id="f"><use xlink:href="#n"/></clipPath><clipPath id="g"><use xlink:href="#o"/></clipPath><clipPath id="h"><use xlink:href="#p"/></clipPath><clipPath id="i"><path d="m39.8 74.4.9 3.5h5l-.4.8 2.1 3.3 1.9-3.4-.3-.7h3.2l1.6-5.2-3.6-2.7-8.8 3.3z"/></clipPath><clipPath id="j"><use xlink:href="#q"/></clipPath><clipPath id="k"><use xlink:href="#r"/></clipPath><clipPath id="l"><use xlink:href="#s"/></clipPath><path id="m" d="m69.8 78h4.9c1.8 0 3.2-1.5 3.2-3.2v-.8c0-1.8-1.5-3.2-3.2-3.2h-4.9c-1.8 0-3.2 1.5-3.2 3.2v.8c0 1.8 1.5 3.2 3.2 3.2z"/><path id="n" d="m60.2 71.5h-2.8c-1.3 0-2.3 1-2.3 2.3v1.9c0 1.3 1 2.3 2.3 2.3h2.8c1.3 0 2.3-1 2.3-2.3v-1.9c.1-1.3-1-2.3-2.3-2.3z"/><path id="o" d="m35.6 78h11.8c.9 0 1.6-.7 1.6-1.6v-3.2c0-.9-.7-1.6-1.6-1.6h-10.1c-.2 0-.4.1-.4.3l-1.7 5.6c-.1.2.1.5.4.5z"/><path id="p" d="m30.1 78h1.8c.3 0 .6-.2.6-.5l2-5.2c.1-.4-.2-.9-.6-.9h-.4s-.9 1.4-1.6 2.5c-.7 1.3-1.2 2.4-1.8 4.1z"/><path id="q" d="m45.3 74.2c-.4 0-.7.5-.8.4s-.4-.2-.4-.2-1.4-.2-1.9 0c0 0-1.4.6-1.6.7s.9 2.1.9 2.1 1.1-.7 1.2-1.3c0 0-.6.9-1.4 1.9-.9 1.3-2 2.7-2.1 2.8-.5.5-.5.7-.2.6 0 0 .4.3.7.7s1 .8 1.2.7.4-.8.5-.8c.1-.1.4-1.1.4-1.1s.9-1.3 1.1-1.7c.1-.2.2-.6.3-1 .1-.3.3-.6.4-.7.2-.1.7-.6 1.1-.6"/><path id="r" d="m47.6 74.8c.1.3-.2.8-.1.9s.3.3.3.3 1.2 1 1.3 2.5c0 .2-.1.4-.2.5-.4.5-1.4 1.9-1.5 2-.5.3.3-.4-.5-1.3-.6-.7-1.3-1.2-1.3-1.2s.9-1.4 1.2-1.6c0 0-3.4 5-3.6 5.4-.3.7-.8.9-.8.6 0 0 .2-.2-.3-.4s-1.1-.7-1.1-.9.5-.3.5-.4.9-1 .9-1 .6-1.3.9-1.7c.2-.3.3-.8.4-1.1s1.6 0 1.5-.2"/><path id="s" d="m45.1 77.2c.3 0 1.3.5 1.3.5s.1-.8-.3-1.1c0 0 .7.3 1.1.2l-.2-.7c0-.2.1-.6-.1-.9s-1.3-.9-1.6-1-.6.3-.8.4-.9.2-.9.2c.1.4.8.7.7.7s-1.4.3-.9.5.7 1 .7 1"/></defs><path d="m110.8 32v64l-55.4 32-44.3-25.6-.2-.1-10.9-6.3v-64l55.4-32z" fill="#11a4cc"/><use fill="#fff" xlink:href="#a"/><path clip-path="url(#b)" d="m113.1 85.3c2-5.5 2.2-15.8-1.3-24.9-2.9-7.4-5.7-7.6-9.3-16-5.5-13.2-1.5-19.9-6.5-23.5-5.4-3.9-15.2-7.2-27.7-7.9-14.7-.8-12.2-.6-23.6 0-12.6.7-28.6 12.3-33.3 21.9-3.1 6.3 1.8 12-3.5 19.1-4.8 6.5-7.9 7.3-9.6 11.8-3.5 9.1 4.1 19.8 5.8 22.2 19.6 27.9 99.6 23.2 109-2.7z" fill="#51c7e3"/><path clip-path="url(#b)" d="m103.8 81.1c1.7-4.6 1.9-13.2-1.1-20.9-2.4-6.2-4.8-6.4-7.8-13.4-4.6-11-1.3-16.6-5.5-19.6-4.5-3.2-9.2 2.7-19.6 2.1-12.3-.7-13.8-9.2-23.3-8.7-10.5.6-20 11.6-23.9 19.6-2.6 5.3-2.5 8.7-6.9 14.6-4 5.5-6.6 6.1-8.1 9.9-2.9 7.6 3.5 16.6 4.9 18.6 16.5 23.4 83.4 19.5 91.3-2.2z" fill="#7cdded"/><path clip-path="url(#b)" d="m96.1 77.7c1.4-3.8 1.6-11.1-.9-17.5-2-5.2-4-5.3-6.5-11.2-3.9-9.2-1.1-13.9-4.6-16.5-3.8-2.7-7.7 2.3-16.5 1.8-10.3-.5-11.5-7.7-19.5-7.3-8.8.5-16.8 9.7-20 16.5-2.2 4.4-2.1 7.3-5.7 12.3-3.4 4.6-5.6 5.1-6.8 8.3-2.4 6.4 2.9 13.9 4.1 15.6 13.7 19.5 69.8 16.2 76.4-2z" fill="#b9f6fc"/><path clip-path="url(#b)" d="m117.5 93.1-26.9-43.1c-2.6-4.1-8.3-4.6-11.6-1.1l-40.3 44.2-23.5-45.6c-2.6-5-9.6-5.3-12.6-.6l-30.1 46.2z" fill="#8dc63f"/><path clip-path="url(#b)" d="m42.4 44.2-48 48.9h105.3l-46.8-48.8c-2.8-3-7.6-3-10.5-.1z" fill="#009444"/><circle cx="62.2" cy="34.4" fill="url(#c)" r="13.1"/><circle cx="62.3" cy="34" fill="#ffea6c" opacity=".32" r="10.4"/><circle cx="62.2" cy="34.4" fill="#edd600" r="9.2"/><circle cx="62.2" cy="34.4" fill="#f7df31" r="6.6"/><circle cx="61.8" cy="34" fill="#ffea6c" opacity=".46" r="4.6"/><path d="m55.4 40.6s12.1-.7 10.1-14.8c0 0 5.5 1.5 5.9 8.6.4 7-8.8 13.2-16 6.2z" fill="#f4cb1e" opacity=".54"/><path d="m62.8 43.6c-2.4.2-4.9-.7-6.8-2.2-1.9-1.6-3.1-3.9-3.3-6.4s.6-5 2.3-6.9c1.6-1.9 4-3.1 6.5-3.3s5.1.6 7 2.3c1.9 1.6 3.2 4.1 3.3 6.7.1 1.3-.1 2.5-.6 3.7-.4 1.2-1.1 2.3-2 3.2-1.6 1.7-3.9 2.8-6.4 2.9zm0-.1c1.2-.1 2.4-.4 3.4-1 1.1-.6 2-1.3 2.7-2.3 1.5-1.8 2.2-4.2 2-6.5s-1.3-4.5-3-6-4-2.4-6.3-2.2c-2.3.1-4.6 1.2-6.1 2.9-1.6 1.7-2.4 4.1-2.3 6.5s1.2 4.7 3 6.3c.9.8 1.9 1.4 3.1 1.8 1.1.4 2.3.6 3.5.5z" fill="url(#d)"/><path d="m19.2 46.4h13.1c.4 0 .7.3.7.7v.1c0 .4-.3.7-.7.7h-4.1c-.4 0-.7.3-.7.7v.2c0 .4.3.7.7.7h7.4c.4 0 .7.3.7.8v.3c0 .4-.3.7-.7.7h-15.4c-.4 0-.7-.3-.7-.7v-.5c0-.4.3-.7.7-.7h.3c.4 0 .7-.3.7-.7 0-.4-.3-.7-.7-.7h-1.3c-.4 0-.7-.3-.7-.7v-.1c0-.5.3-.8.7-.8z" fill="#fff"/><path d="m76.4 41.1h13.1c.4 0 .7.3.7.7v.2c0 .4-.3.7-.7.7h-4.1c-.4 0-.7.3-.7.7v.2c0 .4.3.7.7.7h7.4c.4 0 .7.3.7.8v.3c0 .4-.3.7-.7.7h-15.4c-.4 0-.7-.3-.7-.7v-.5c0-.4.3-.7.7-.7h.3c.4 0 .7-.3.7-.7 0-.4-.3-.7-.7-.7h-1.3c-.4 0-.7-.3-.7-.7v-.1c0-.5.3-.9.7-.9z" fill="#fff"/><path d="m20.8 46.8h10.4c.3 0 .6.3.6.6v.1c0 .3-.3.6-.6.6h-3.3c-.3 0-.6.2-.6.5v.1c0 .3.2.6.6.6h5.9c.3 0 .6.3.6.6v.2c0 .3-.3.5-.6.5h-12.1c-.3 0-.6-.3-.6-.6v-.4c0-.3.2-.6.5-.6h.2c.3 0 .5-.3.5-.5 0-.3-.2-.6-.6-.6h-1c-.3 0-.6-.3-.6-.6v-.1c.2-.2.4-.4.7-.4z" fill="#bfe9f7"/><path d="m22.2 36.8h11.3c.9 0 1.6-.7 1.6-1.6 0-.9-.7-1.6-1.6-1.6h-11.3c-.9 0-1.6.7-1.6 1.6 0 .9.7 1.6 1.6 1.6z" fill="#fff"/><path d="m25.3 37.4h7c.9 0 1.6-.7 1.6-1.6 0-.9-.7-1.6-1.6-1.6h-7c-.9 0-1.6.7-1.6 1.6.1.9.8 1.6 1.6 1.6z" fill="#a9f3ff"/><path d="m28.2 37.2h2.2c.7 0 1.3-.6 1.3-1.3 0-.7-.6-1.3-1.3-1.3h-2.2c-.7 0-1.3.6-1.3 1.3 0 .7.6 1.3 1.3 1.3z" fill="#d7fbff"/><path d="m37.9 43.6h-3.9c-.7 0-1.3-.6-1.3-1.3 0-.7.6-1.3 1.3-1.3h3.9c.7 0 1.3.6 1.3 1.3 0 .7-.6 1.3-1.3 1.3z" fill="#fff"/><path d="m78.5 41.6h10.4c.3 0 .6.3.6.6v.1c0 .3-.3.6-.6.6h-3.3c-.3 0-.6.2-.6.5v.1c0 .3.2.6.6.6h5.9c.3 0 .6.3.6.6v.2c0 .3-.3.5-.6.5h-12.2c-.3 0-.6-.3-.6-.6v-.4c0-.3.2-.6.5-.6h.2c.3 0 .5-.3.5-.5 0-.3-.2-.6-.6-.6h-1c-.3 0-.6-.3-.6-.6v-.1c.2-.1.4-.4.8-.4z" fill="#c5fff5"/><path d="m80.2 43.6h4.1c.1 0 .2.1.2.2 0 .1-.1.2-.2.2h-1.3c-.1 0-.2.1-.2.2 0 .1.1.2.2.2h2.3c.1 0 .2.1.2.2v.1c0 .1-.1.2-.2.2h-4.8c-.1 0-.2-.1-.2-.2v-.1c0-.1.1-.2.2-.2h.1c.1 0 .2-.1.2-.2 0-.1-.1-.2-.2-.2h-.4c-.1 0-.2-.1-.2-.2 0-.1.1-.2.2-.2z" fill="#d7fbff"/><path d="m37.2 25.8h8.3c.2 0 .5.2.5.5v.1c0 .2-.2.5-.5.5h-2.6c-.2 0-.4.2-.5.4v.1c0 .3.2.5.5.5h4.7c.3 0 .5.2.4.5v.2c0 .2-.2.4-.4.4h-9.6c-.2 0-.5-.2-.5-.5v-.3c0-.2.2-.4.4-.4h.2c.2 0 .4-.2.4-.4 0-.3-.2-.5-.4-.5h-.8c-.2 0-.4-.2-.4-.5v-.1c-.1-.3.1-.5.3-.5z" fill="#fff"/><path d="m38.5 26.1h6.6c.2 0 .4.2.4.4v.1c0 .2-.2.4-.4.4h-2.1c-.2 0-.4.2-.4.3v.1c0 .2.2.4.4.4h3.7c.2 0 .4.2.4.4v.2c0 .2-.2.3-.4.3h-7.7c-.2 0-.4-.2-.4-.4v-.2c0-.2.1-.3.3-.4h.1c.2 0 .3-.2.3-.3 0-.2-.2-.4-.4-.4h-.7c-.2 0-.4-.2-.4-.4.4-.4.5-.5.7-.5z" fill="#c5fff5"/><path d="m39.7 27.3h2.6c.1 0 .1.1.1.1 0 .1-.1.1-.1.1h-.8c-.1 0-.1.1-.1.1 0 .1.1.1.1.1h1.5c.1 0 .1.1.1.1v.1c0 .1-.1.1-.1.1h-3c-.1 0-.1-.1-.1-.1v.1c0-.1.1-.1.1-.1h.1c.1 0 .1-.1.1-.1 0-.1-.1-.1-.1-.1h-.3c-.1 0-.1-.1-.1-.1-.2-.2-.1-.3 0-.3z" fill="#d7fbff"/><path d="m14.5 93.1 82-.9-19.3 11.7h-43.9z" fill="#009444"/><path d="m18.5 85.7c1.1-1.4 2.2-2.8 3.3-4.2.2-.2 0-.6-.3-.6h-1.6c-.3 0-.4-.3-.3-.5 1-1.3 2-2.6 2.9-3.9.2-.2 0-.5-.3-.5h-1c-.3 0-.4-.3-.3-.5.7-1 1.4-1.9 2.1-2.9.2-.2 0-.5-.3-.5h-.2c-.3 0-.4-.3-.3-.5 1.2-2 2.3-4 3.5-6 .1-.2.5-.2.6 0 1.1 2 2.3 4 3.4 6 .1.2 0 .5-.3.5h-.1c-.3 0-.4.3-.3.5.7 1 1.3 1.9 2 2.9.2.2 0 .5-.3.5h-1c-.3 0-.4.3-.3.5 1 1.3 1.9 2.6 2.9 3.9.2.2 0 .5-.3.5h-1.6c-.3 0-.4.3-.3.5 1.1 1.4 2.1 2.8 3.2 4.2.2.2 0 .5-.3.5h-6c-.2 0-.3.2-.3.3v3.1c0 .2-.2.3-.3.3-.5 0-.9 0-1.3 0-.1 0-.2-.2-.2-.4 0-.9 0-1.9 0-2.8 0-.5-.2-.6-.6-.6-2 0-4 0-5.9 0 .1.3-.1-.1.1-.3z" fill="#006838"/><path d="m28.4 69.1c.3-.4.6-.7.9-1.1 0-.1 0-.1-.1-.1h-.4c-.1 0-.1-.1-.1-.1.3-.3.5-.7.8-1 0-.1 0-.1-.1-.1h-.3c-.1 0-.1-.1-.1-.1.2-.3.4-.5.6-.8 0-.1 0-.1-.1-.1-.1 0-.1-.1-.1-.1.3-.5.6-1 .9-1.6 0-.1.1-.1.2 0 .3.5.6 1 .9 1.6 0 .1 0 .1-.1.1-.1 0-.1.1-.1.1.2.3.3.5.5.8 0 .1 0 .1-.1.1h-.3c-.1 0-.1.1-.1.1.3.3.5.7.8 1 0 .1 0 .1-.1.1h-.4c-.1 0-.1.1-.1.1.3.4.6.7.9 1.1 0 .1 0 .1-.1.1h-1.6s-.1 0-.1.1v.8s0 .1-.1.1-.2 0-.3 0c0 0-.1-.1-.1-.1 0-.2 0-.5 0-.7 0-.1 0-.2-.2-.2-.5 0-1 0-1.6 0 .2 0 .1 0 .2-.1z" fill="#006838"/><path d="m17.4 69.1c.3-.4.6-.7.9-1.1 0-.1 0-.1-.1-.1h-.4c-.1 0-.1-.1-.1-.1.3-.3.5-.7.8-1 0-.1 0-.1-.1-.1h-.3c-.1 0-.1-.1-.1-.1.2-.3.4-.5.6-.8 0-.1 0-.1-.1-.1-.1 0-.1-.1-.1-.1.3-.5.6-1 .9-1.6 0-.1.1-.1.2 0 .3.5.6 1 .9 1.6 0 .1 0 .1-.1.1-.1 0-.1.1-.1.1.2.3.3.5.5.8 0 .1 0 .1-.1.1h-.3c-.1 0-.1.1-.1.1.3.3.5.7.8 1 0 .1 0 .1-.1.1h-.4c-.1 0-.1.1-.1.1.3.4.6.7.9 1.1 0 .1 0 .1-.1.1h-1.6s-.1 0-.1.1v.8s0 .1-.1.1-.2 0-.3 0c0 0-.1-.1-.1-.1 0-.2 0-.5 0-.7 0-.1 0-.2-.2-.2-.5 0-1 0-1.6 0 .2 0 .1 0 .2-.1z" fill="#006838"/><path d="m34.1 75.6c-.1 0-.3 0-.4 0 .1-.3-.1-.4-.3-.3-.4.1-.7.1-.9-.3-.1-.2-.3-.5-.6-.5-.3-.1-.8-.2-.9 0-.5.5-.3-.1-.5-.1-.6.1-1.1.1-1.7.1-.2 0-.4.1-.7.2 0-.2 0-.3 0-.6-.5.8-1.1.3-1.5.3-.4.9-1.2.2-1.7.6-.1-.1-.2-.2-.2-.3-.8.1-1.6.3-2.4.5 0 0-.1.2-.3.2-.4.1-.9.1-1.3.1-.1 0-.6-.1-.6-.2-.6.3-.8.4-1.5-.2.1-.1.1-.2.2-.3-.5.2-.8.2-1.3 0-.4-.2-1-.1-1.5 0-.3.1-.3.2-.4-.1-.7.2-1.4.2-2.2.1-.5.1-1.1.2-1.8.3 0 0-.1.1-.3.3 0-.4 0-.6 0-.8-.6.6-.7.6-1.3 0-.1-.1-.3-.1-.4-.2v-.1c.2-.1.3-.3.4-.3-.1-.1-.2-.2-.4-.4.2-.2.4-.3.4-.3-.1-.2-.1-.3-.2-.4-.1-.2-.2-.4-.3-.6v-.1c.3-.1.6-.1.9-.2-.2-.2-.4-.4-.5-.6.3-.1.5-.1.8-.2-.3-.3-.8-.2-.8-.7.3-.1.5-.3.7-.4-.3-.2-.4-.3-.7-.5.3-.2.5-.3.7-.4-.1 0-.1.1-.2.1-.1-.2-.3-.3-.4-.5.3-.1.4-.1.4-.1-.1-.2-.2-.3-.3-.5.2-.1.4-.1.6-.1-.2-.3-.4-.5-.5-.7h.1c0-.2.1-.5.2-.8.1 0 .3-.1.5-.1-.2-.2-.4-.3-.6-.5 0 0 0-.1.1-.1.2 0 .5.1.6.1-.1-.3-.2-.6-.2-.8 0-.1.1-.2.2-.4.1-.3.1-.6.2-.8h.2v1.3c.1-.1.1-.2.3-.5.1.6.1 1.1.2 1.6 0 0-.2.1-.4.2.3.1.6.1.9.2-.3.2-.5.4-.8.5.3 0 .5.1.8.1-.3.3-.5.4-.8.6.2.1.5.2.9.3-.3.3-.5.5-.7.7.2.1.5.1.8.2-.2.3-.4.5-.5.7.1 0 .2.1.4.1v.4c.2 0 .4 0 .6-.1-.1-.1-.2-.2-.3-.3h.4s-.1-.1-.1-.1c.1-.3.3-.6.5-1.1.2.4.5.7.5.9.1.6.2.8 1 .7-.2-.1-.3-.3-.4-.3.1-.2.1-.4.2-.6.1 0 .2 0 .4-.1-.2-.1-.3-.2-.6-.4h.7c-.3-.4-.1-.9.4-1.3.2.5.4 1 .6 1.5-.1 0-.3.1-.5.1.4.1.6.1.9.1-.2.2-.4.3-.6.4.2 0 .4 0 .7.1-.3.2-.5.3-.7.4.3.1.7.2.9.3-.1-.3-.1-.5-.2-.8.2 0 .3-.1.5-.1-.2-.2-.3-.3-.4-.4.1-.2.1-.4.2-.7.1 0 .2 0 .4-.1-.2-.1-.3-.2-.5-.4 0 0 0-.1.1-.1.2 0 .4 0 .5.1-.1-.2-.3-.4-.3-.5.1-.3.3-.6.4-.9h.2v.8c.1 0 .2-.1.3-.2.1.4.1.7.2 1-.1 0-.2.1-.4.1.3.1.5.1.9.2-.3.2-.4.3-.6.4.8.1.9.2.6.7.2-.1.3-.1.4-.2-.1.5-.1.8.5.7.1-.2.2-.4.3-.6h.2v.7c.1 0 .3-.2.3-.1.3.3.5-.1.7-.1-.2-.1-.3-.3-.5-.4.1 0 .1-.1.2-.1 0-.2 0-.3 0-.5.1 0 .3-.1.5-.1-.2-.2-.4-.4-.5-.6h.1c0-.2.1-.5.1-.8 0 0 .2-.1.3-.1-.2-.2-.3-.3-.4-.4 0 0 0-.1.1-.1.2 0 .4.1.5.1-.1-.2-.2-.5-.3-.7 0-.1.2-.2.2-.3.1-.2.1-.5.2-.7.7.3.2.7.1 1.2.2-.2.3-.3.4-.5.1.5.1.9.2 1.3 0 0-.2.1-.5.1.4.1.6.2 1 .3-.3.2-.5.3-.7.5.3 0 .5.1.8.1-.3.2-.5.4-.7.6.2.1.5.1.9.2-.3.3-.5.4-.7.6.2.1.5.1.8.2-.2.3-.3.4-.4.6.1.2.2.3.3.5.1 0 .3-.1.5-.2-.2-.1-.3-.2-.3-.2.1-.3.1-.6.2-1h.2c-.1-.5.2-.8.4-1.1.1.2.2.4.4.5.1.1.2.3.4.4.1.1.2.1.2.1.1 0 .1-.1.1-.2s.1-.2.1-.4c.1 0 .1 0 .2-.1-.1-.1-.3-.1-.4-.2 0 0 .1-.1.1-.1.2 0 .4 0 .6.1-.4-.4-.3-.8.3-1.4v.9c.1-.1.2-.1.4-.3-.1.6-.1 1 .4 1.4-.2.1-.3.2-.5.2v.1c.3-.1.7-.2 1-.3 0-.1.1-.1.1-.2-.2-.1-.4-.2-.5-.2.1-.3.1-.5.2-.8 0 0 .1 0 .3-.2-.2-.1-.4-.2-.6-.4h.7c-.3-.4-.1-1.1.3-1.5.2.6.4 1.2.6 1.9-.1 0-.3.1-.4.1v.1c.2.1.5.1.8.2-.3.2-.5.3-.7.4.3 0 .5.1.8.1-.3.2-.5.3-.7.5.2.1.5.1.9.2-.3.2-.5.4-.6.5.2.1.4.1.7.2-.2.2-.3.4-.5.6.3.1.6.3.9.4 0-.1.1-.1.1-.2-.1-.1-.2-.2-.4-.3.2-.2.4-.4.5-.6-.1 0-.2-.1-.3-.2 0 0 0-.1.1-.1h.5c-.3-.3-.2-.6.4-1v.5h.9c-.2-.2-.4-.3-.5-.4.1-.3.3-.5.4-.9-.1 0-.2-.2-.4-.4.3 0 .5 0 .7.1-.4-.4-.3-1 .4-1.4 0 .3 0 .5-.1.8.1-.1.2-.2.4-.4 0 .3-.1.5-.1.7 0 .1.1.2.1.2h.2c.1-.1.1-.2.1-.3s-.1-.2-.1-.3c.2-.1.4-.1.6-.1-.2-.2-.4-.3-.6-.5 0 0 0-.1.1-.1.2 0 .4.1.7.1-.9-.5.2-1.1-.2-1.6h.7c-.1.3-.2.6-.3.8h.1c.1-.1.2-.3.3-.4.1.5.1 1 .2 1.5 0 0-.2.1-.4.1v.1c.2.1.5.1.8.2-.3.2-.5.4-.7.6.3 0 .5.1.7.1v.1c-.2.2-.4.3-.7.5.3.1.5.2.9.3-.3.3-.5.5-.7.6.2.1.5.2.7.3-.1 0-.1.1-.2.1v1.1c.2 0 .3 0 .2 0 .4 1 .2 2.2 1 3.1-.2.1-.3.1-.5.2.2.1.3.1.5.2-.2.1-.4.2-.7.4.3 0 .5.1.6.1-.1.3-.1.6-.2.6-.6.1-1.2.2-1.9.3.1-.3.1-.2.1-.1zm-13.4-5.6c.1.2.2.3.3.4-.1 0-.2.1-.4.1.3-.1.7.4.8-.2-.2-.1-.4-.1-.7-.3z" fill="#006838"/><path d="m39.5 78.3c-.2 0-.3 0-.5 0 .1-.4-.1-.5-.4-.4-.5.2-.8.1-1.1-.4-.2-.3-.4-.6-.7-.6-.3-.1-.9-.2-1.1 0-.6.6-.4-.1-.6-.2-.7.1-1.4.1-2 .2-.3 0-.5.1-.8.2 0-.2 0-.4 0-.8-.6 1-1.3.3-1.9.3-.5 1-1.5.2-2.1.7-.1-.1-.2-.2-.3-.3-.9.2-1.9.4-3 .6 0 0-.2.2-.3.2-.5.1-1.1.1-1.6.1-.2 0-.7-.2-.7-.2-.7.4-1 .5-1.8-.3.1-.1.1-.2.2-.4-.6.3-1 .2-1.6 0-.5-.2-1.2-.1-1.8 0-.4.1-.4.2-.5-.2-.8.2-1.7.3-2.7.1-.6.1-1.4.2-2.2.4 0 0-.1.1-.4.4 0-.5 0-.7 0-1-.8.8-.8.7-1.6 0-.1-.1-.3-.2-.5-.3v-.1c.2-.2.4-.3.5-.4-.1-.1-.3-.3-.5-.5.3-.2.4-.3.5-.4-.1-.2-.1-.3-.2-.5-.1-.3-.2-.5-.4-.8v-.1c.4-.1.7-.2 1.1-.2-.3-.3-.5-.5-.7-.8.4-.1.7-.2 1-.2-.3-.4-1-.3-.9-.8.3-.2.6-.3.9-.5-.3-.2-.5-.4-.8-.6.3-.2.6-.4.8-.5h.1c-.2-.2-.3-.4-.5-.6.3-.1.4-.1.5-.2-.1-.2-.2-.4-.3-.6.3-.1.4-.1.7-.2-.2-.3-.5-.6-.7-.8h.2c.1-.3.1-.6.2-1 .1 0 .4-.1.6-.1-.3-.2-.5-.4-.8-.6 0-.1 0-.1.1-.2.3 0 .6.1.7.1-.1-.3-.2-.7-.2-1 0-.1.2-.3.2-.4.1-.3.2-.7.3-1h.3v1.6c.1-.1.2-.3.3-.6.1.7.2 1.3.2 1.9-.1 0-.2.1-.5.2.4.1.7.2 1.2.3-.4.3-.6.4-1 .7.3 0 .6.1 1 .1-.4.3-.6.5-.9.8.3.1.6.2 1.1.4-.3.3-.6.6-.8.8l.9.3c-.3.4-.4.6-.6.9.1 0 .3.1.4.1 0 .2 0 .3-.1.5.3 0 .5-.1.8-.1-.1-.2-.2-.3-.3-.4h.5c-.1 0-.1-.1-.2-.1.2-.4.3-.8.6-1.3.3.5.6.8.6 1.2.1.7.3.9 1.2.8-.2-.2-.4-.3-.4-.4.1-.3.1-.5.2-.8.1 0 .3 0 .4-.1-.2-.1-.4-.3-.7-.5h.8c-.3-.4-.2-1.1.5-1.5.2.6.5 1.2.7 1.8-.1 0-.3.1-.7.2.4.1.7.1 1.1.2-.3.2-.5.3-.7.5.3 0 .5 0 .8.1-.4.2-.6.4-.8.5.4.1.8.3 1.1.4-.1-.4-.2-.7-.2-1 .2-.1.4-.1.6-.2-.2-.2-.4-.4-.5-.4.1-.3.2-.5.2-.8.1 0 .3 0 .5-.1-.2-.2-.4-.3-.6-.4 0 0 0-.1.1-.1.2 0 .5 0 .7.1-.1-.2-.3-.4-.3-.6.1-.4.3-.8.5-1.2h.2v1c.1-.1.2-.2.3-.3l.3 1.2c-.1 0-.3.1-.5.1.4.1.6.1 1.1.2-.3.2-.5.3-.7.5 1 .1 1.1.2.7.8.2-.1.3-.1.5-.2-.1.6-.1 1 .6.9.1-.3.3-.5.4-.8h.2v.8c.1 0 .3-.2.4-.2.4.4.6-.1.9-.2-.2-.2-.4-.3-.6-.4.1 0 .1-.1.2-.1 0-.2 0-.4-.1-.6.2-.1.3-.1.6-.2-.2-.3-.4-.5-.6-.7h.2c.1-.3.1-.6.2-.9 0 0 .2-.1.3-.2-.2-.2-.3-.4-.5-.5 0 0 .1-.1.1-.1.2 0 .5.1.7.1-.1-.3-.3-.6-.3-.9 0-.1.2-.3.3-.4.1-.3.1-.6.2-.9.8.4.2.9.2 1.5.2-.3.3-.4.5-.6.1.6.1 1.1.2 1.6 0 0-.2.1-.6.2.4.1.7.2 1.2.3-.4.2-.6.4-.9.6.3 0 .6.1.9.1-.3.3-.6.5-.9.7.3.1.6.2 1.1.3-.3.3-.6.5-.8.8.3.1.6.1.9.2-.2.3-.4.5-.5.7.1.2.3.4.4.6.1-.1.3-.1.6-.3-.2-.1-.3-.2-.4-.2l.3-1.2h.3c-.1-.6.2-.9.5-1.4.2.3.3.5.4.6.1.2.3.3.4.4s.2.1.3.1.1-.1.2-.2.1-.3.1-.4c.1 0 .1-.1.2-.1-.2-.1-.3-.1-.5-.2 0-.1.1-.1.1-.2.2 0 .4 0 .7.1-.4-.5-.3-.9.4-1.7v1.1c.1-.1.3-.2.5-.3-.1.7-.1 1.3.5 1.7-.2.1-.4.2-.6.3v.1c.4-.1.8-.2 1.2-.3 0-.1.1-.1.1-.2-.2-.1-.5-.2-.5-.3.1-.4.2-.6.3-1 0 0 .1-.1.4-.2-.3-.2-.5-.3-.8-.5h.9c-.4-.5-.2-1.3.4-1.9.2.8.5 1.5.7 2.3-.2 0-.3.1-.5.1v.1c.3.1.6.1 1 .2-.4.2-.6.3-.9.5.3 0 .6.1 1 .1-.4.3-.6.4-.9.6.3.1.6.2 1.1.3-.3.3-.6.5-.8.6.3.1.5.1.8.2-.2.3-.4.5-.6.7.4.2.7.3 1 .5 0-.1.1-.1.1-.2-.1-.1-.3-.2-.5-.3.2-.3.4-.5.6-.7-.1-.1-.2-.2-.4-.3 0 0 0-.1.1-.1h.6c-.3-.4-.2-.8.5-1.3v.7h1.1c-.3-.2-.4-.4-.6-.5.2-.3.3-.7.5-1-.1-.1-.2-.2-.5-.4.4 0 .6.1.9.1-.4-.5-.3-1.2.4-1.7 0 .3 0 .7-.1 1 .1-.1.2-.2.5-.4 0 .4-.1.6-.1.8 0 .1.1.2.2.3.1 0 .2 0 .3-.1s.1-.2.1-.3-.1-.2-.2-.4c.3-.1.5-.1.7-.2-.3-.2-.5-.4-.8-.6 0-.1.1-.1.1-.2.3 0 .5.1.8.1-1.1-.6.3-1.3-.3-2h.8c-.1.4-.2.7-.3 1h.1c.1-.2.2-.3.4-.5.1.6.1 1.2.2 1.8-.1 0-.2.1-.4.1v.1c.3.1.6.2 1 .3-.3.3-.6.4-.9.7.3 0 .6.1.8.1 0 .1 0 .1.1.2-.3.2-.5.4-.8.6.3.1.7.2 1.2.4-.4.3-.6.6-.8.8.3.1.6.2.8.3-.1 0-.1.1-.2.1v1.3h.3c.5 1.3.3 2.6 1.2 3.7-.2.1-.4.2-.6.3.2.1.4.2.6.3-.3.2-.5.3-.8.5.4.1.6.1.8.1-.1.3-.1.8-.2.8-.7.2-1.5.2-2.3.3-.1.2-.1.4-.1.5zm-16.4-6.8c.2.2.2.4.3.5-.2 0-.3.1-.4.1.3-.1.9.4 1-.3-.3 0-.5-.2-.9-.3zm27.5-.7c-.1 0-.1 0-.2 0 .1-.2 0-.2-.1-.1-.2.1-.3 0-.4-.1s-.2-.2-.3-.2-.3-.1-.4 0c-.2.2-.2 0-.2-.1-.3 0-.5 0-.8.1-.1 0-.2.1-.3.1 0-.1 0-.2 0-.3-.2.4-.5.1-.7.1-.2.4-.6.1-.8.3 0 0-.1-.1-.1-.1-.4.1-.7.1-1.1.2 0 0-.1.1-.1.1-.2 0-.4 0-.6 0-.1 0-.3-.1-.3-.1-.3.1-.4.2-.7-.1 0 0 0-.1.1-.2-.2.1-.4.1-.6 0s-.5-.1-.7 0c-.1 0 .3 2.2.3 2.1-.3.1-.2 1.1-.5 1.1-.2 0-1.4 0-1.7.1 0 0 .1-1.7 0-1.6 0-.2-.8-.7-.8-.8-.3.3.3-.7 0-1 0 0-.1-.1-.2-.1.1-.1.2-.1.2-.1s-.1-.1-.2-.2c.1-.1.2-.1.2-.1 0-.1 0-.1-.1-.2 0-.1-.1-.2-.1-.3.1 0 .3-.1.4-.1-.1-.1-.2-.2-.2-.3.1 0 .2-.1.4-.1-.1-.1-.4-.1-.3-.3.1-.1.2-.1.3-.2-.1-.1-.2-.1-.3-.2.1-.1.2-.1.3-.2 0 0 0 0-.1 0-.1-.1-.1-.1-.2-.2.1 0 .2 0 .2-.1s-.1-.1-.1-.2c.1 0 .2 0 .3-.1-.1-.1-.2-.2-.2-.3h.1c0-.1 0-.2.1-.4h.2c-.1-.1-.2-.2-.3-.2 0 0 0 0 0-.1h.3c0-.1-.1-.3-.1-.4s.1-.1.1-.2.1-.3.1-.4h.1v.6s.1-.1.1-.2c0 .3.1.5.1.7 0 0-.1 0-.2.1.2 0 .3.1.4.1-.1.1-.2.2-.4.2.1 0 .2 0 .4.1-.1.1-.2.2-.3.3.1 0 .2.1.4.1-.1.1-.2.2-.3.3.1 0 .2.1.4.1-.1.1-.2.2-.2.3h.2v.2h.3c0-.1-.1-.1-.1-.2h.2s0 0-.1 0c.1-.1.1-.3.2-.5.1.2.2.3.2.4 0 .3.1.4.4.3-.1-.1-.1-.1-.2-.2 0-.1.1-.2.1-.3h.2c-.1-.1-.1-.1-.3-.2h.3c-.1-.2-.1-.4.2-.6.1.2.2.4.3.7-.1 0-.1 0-.2.1.2 0 .3 0 .4.1-.1.1-.2.1-.3.2h.3c-.1.1-.2.1-.3.2.2 0 .3.1.4.1 0-.1-.1-.2-.1-.4.1 0 .1 0 .2-.1-.1-.1-.1-.1-.2-.2 0-.1.1-.2.1-.3h.2c-.1-.1-.2-.1-.2-.2h.2c0-.1-.1-.2-.1-.2 0-.1.1-.3.2-.4h.1v.4s.1-.1.1-.1c0 .2.1.3.1.5 0 0-.1 0-.2.1.1 0 .2.1.4.1-.1.1-.2.1-.3.2.4 0 .4.1.3.3.1 0 .1-.1.2-.1 0 .2 0 .4.2.3.1-.1.1-.2.1-.3h.1v.3s.1-.1.1-.1c.1.1.2 0 .3-.1-.1-.1-.1-.1-.2-.2h.1c0-.1 0-.2 0-.2.1 0 .1 0 .2-.1-.1-.1-.2-.2-.2-.3h.1c0-.1 0-.2.1-.3 0 0 .1 0 .1-.1-.1-.1-.1-.1-.2-.2h.2c0-.1-.1-.2-.1-.3 0 0 .1-.1.1-.2s.1-.2.1-.3c.3.1.1.3.1.5l.2-.2c0 .2.1.4.1.6 0 0-.1 0-.2.1.2 0 .3.1.4.1-.1.1-.2.1-.3.2.1 0 .2 0 .4.1-.1.1-.2.2-.3.3.1 0 .2.1.4.1-.1.1-.2.2-.3.3.1 0 .2.1.3.1-.1.1-.1.2-.2.3.1.1.1.1.2.2.1 0 .1-.1.2-.1-.1 0-.1-.1-.1-.1 0-.2.1-.3.1-.4h.1c-.1-.2.1-.3.2-.5.1.1.1.2.2.2 0 .1.1.1.2.2h.1s.1-.1.1-.1c0-.1 0-.1 0-.2h.1c-.1 0-.1-.1-.2-.1 0 0 0 0 0-.1h.3c-.2-.2-.1-.4.2-.6v.4s.1-.1.2-.1c0 .3 0 .5.2.6-.1 0-.2.1-.2.1.2 0 .3-.1.5-.1 0 0 0 0 0-.1-.1 0-.2-.1-.2-.1 0-.1.1-.2.1-.4 0 0 0 0 .2-.1-.1-.1-.2-.1-.3-.2h.3c-.1-.2-.1-.5.2-.7.1.3.2.6.3.8-.1 0-.1 0-.2 0 .1 0 .2 0 .4.1-.1.1-.2.1-.3.2h.4c-.1.1-.2.2-.3.2.1 0 .2.1.4.1-.1.1-.2.2-.3.2.1 0 .2.1.3.1-.1.1-.1.2-.2.3.1.1.3.1.4.2 0 0 0 0 0-.1-.1 0-.1-.1-.2-.1.1-.1.2-.2.2-.3 0 0-.1-.1-.1-.1h.2c-.1-.2-.1-.3.2-.5v.2h.4c-.1-.1-.2-.1-.2-.2.1-.1.1-.3.2-.4 0 0-.1-.1-.2-.2h.3c-.2-.2-.1-.4.2-.6v.4s.1-.1.2-.2v.3s0 .1.1.1h.1v-.1s0-.1-.1-.1c.1 0 .2 0 .3-.1-.1-.1-.2-.2-.3-.2 0 0 0 0 0-.1h.3c-.4-.2.1-.5-.1-.7h.3c0 .1-.1.3-.1.4 0-.1.1-.1.1-.2 0 .2.1.4.1.7 0 0-.1 0-.2 0 .1 0 .2.1.4.1-.1.1-.2.2-.3.3h.3v.1c-.1.1-.2.2-.3.2.1 0 .2.1.4.1-.1.1-.2.2-.3.3.1 0 .2.1.3.1h-.1v.5h.1c.2.5.1 1 .5 1.4-.1 0-.1.1-.2.1.1 0 .2.1.2.1-.1.1-.2.1-.3.2h.3c0 .1 0 .3-.1.3-.9.7-1.2.7-1.4.9 0-.1 0-.1 0 0zm-6.2-2.6c.1.1.1.1.1.2-.1 0-.1 0-.2 0 .1 0 .3.2.4-.1 0 0-.1 0-.3-.1z" fill="#024c27"/><path d="m20.4 86.8c.6-.7 1.1-1.4 1.7-2.2.1-.1 0-.3-.1-.3h-.8c-.1 0-.2-.2-.1-.3.5-.7 1-1.3 1.5-2 .1-.1 0-.3-.1-.3h-.5c-.1 0-.2-.2-.1-.3.4-.5.7-1 1.1-1.5.1-.1 0-.3-.1-.3h-.1c-.1 0-.2-.1-.2-.3.6-1 1.2-2 1.8-3.1.1-.1.2-.1.3 0 .6 1 1.2 2 1.8 3.1.1.1 0 .3-.1.3 0 0 0 0-.1 0s-.2.2-.1.3c.3.5.7 1 1 1.5.1.1 0 .3-.1.3h-.5c-.1 0-.2.2-.1.3.5.7 1 1.3 1.5 2 .1.1 0 .3-.1.3h-.8c-.1 0-.2.2-.1.3.6.7 1.1 1.4 1.7 2.2.1.1 0 .3-.1.3h-3.6c-.1 0-.2.1-.2.2v1.6c0 .1-.1.2-.2.2-.2 0-.5 0-.7 0 0 0-.1-.1-.1-.2 0-.5 0-1 0-1.5 0-.2-.1-.3-.3-.3-1 0-2 0-3.1 0s-.1-.2 0-.3z" fill="#044725"/><path d="m9.5 90.3 3.6-4.5c.2-.2 0-.6-.3-.6h-1.7c-.3 0-.5-.4-.3-.6 1.1-1.4 2.1-2.8 3.2-4.2.2-.2 0-.6-.3-.6h-1.1c-.3 0-.5-.3-.3-.6.8-1.1 1.5-2.1 2.3-3.1.2-.2 0-.6-.3-.6h-.2c-.3 0-.5-.3-.3-.6 1.3-2.2 2.5-4.3 3.8-6.5.1-.2.5-.2.6 0 1.2 2.2 2.5 4.3 3.7 6.5.1.2 0 .5-.3.6h-.1c-.3 0-.4.3-.3.6.7 1 1.4 2 2.2 3.1.2.2 0 .6-.3.6h-1.1c-.3 0-.5.3-.3.6 1.1 1.4 2.1 2.8 3.2 4.2.2.2 0 .6-.3.6h-1.7c-.3 0-.5.4-.3.6 1.2 1.5 2.3 3 3.5 4.6.2.2 0 .6-.3.6h-6.5c-.2 0-.4.2-.4.4v3.4c0 .2-.2.4-.4.4-.5 0-1 0-1.4 0-.1 0-.2-.3-.2-.4 0-1 0-2.1 0-3.1 0-.5-.2-.6-.6-.6-2.1 0-4.3 0-6.4 0-.4-.2-.6-.5-.4-.8z" fill="#006838"/><path d="m24.9 88.8c.9-1.2 1.8-2.3 2.7-3.4.1-.2 0-.4-.2-.4h-1.3c-.2 0-.4-.3-.2-.4.8-1.1 1.6-2.1 2.4-3.2.1-.2 0-.4-.2-.4h-.8c-.2 0-.4-.3-.2-.4.6-.8 1.1-1.5 1.7-2.3.1-.2 0-.4-.2-.4h-.1c-.2 0-.3-.2-.2-.4 1-1.6 1.9-3.2 2.9-4.9.1-.2.4-.2.5 0 .9 1.6 1.8 3.2 2.8 4.9.1.2 0 .4-.2.4h-.1c-.2 0-.3.3-.2.4.5.8 1.1 1.5 1.6 2.3.1.2 0 .4-.2.4h-.8c-.2 0-.4.3-.2.4.8 1.1 1.6 2.1 2.4 3.2.1.2 0 .4-.2.4h-1.6c-.2 0-.4.3-.2.4.9 1.2 1.7 2.3 2.6 3.4.1.2 0 .4-.2.4h-4.9c-.2 0-.3.1-.3.3v2.5c0 .2-.1.3-.3.3-.4 0-.7 0-1.1 0-.1 0-.2-.2-.2-.3 0-.8 0-1.5 0-2.3 0-.4-.1-.5-.5-.5-1.6 0-3.2 0-4.8 0-.2 0-.3-.2-.2-.4z" fill="#006838"/><path d="m31.8 88c.9-1.2 1.8-2.3 2.7-3.4.1-.2 0-.4-.2-.4h-1.3c-.2 0-.4-.3-.2-.4.8-1.1 1.6-2.1 2.4-3.2.1-.2 0-.4-.2-.4h-1c-.2 0-.4-.3-.2-.4.6-.8 1.1-1.5 1.7-2.3.1-.2 0-.4-.2-.4h-.1c-.2 0-.3-.2-.2-.4 1-1.6 1.9-3.2 2.9-4.9.1-.2.4-.2.5 0 .9 1.6 1.8 3.2 2.8 4.9.1.2 0 .4-.2.4h-.1c-.2 0-.3.3-.2.4.5.8 1.1 1.5 1.6 2.3.1.2 0 .4-.2.4h-.8c-.2 0-.4.3-.2.4.8 1.1 1.6 2.1 2.4 3.2.1.2 0 .4-.2.4h-1.3c-.2 0-.4.3-.2.4.9 1.2 1.7 2.3 2.6 3.4.1.2 0 .4-.2.4h-4.9c-.2 0-.3.1-.3.3v2.5c0 .2-.1.3-.3.3-.4 0-.7 0-1.1 0-.1 0-.2-.2-.2-.3 0-.8 0-1.5 0-2.3 0-.4-.1-.5-.5-.5-1.6 0-3.2 0-4.8 0-.4 0-.5-.2-.3-.4z" fill="#006838"/><path d="m94.8 78.7c.4-.5.8-1 1.2-1.5.1-.1 0-.2-.1-.2h-.6c-.1 0-.2-.1-.1-.2.4-.5.7-.9 1.1-1.4.1-.1 0-.2-.1-.2h-.4c-.1 0-.2-.1-.1-.2.3-.4.5-.7.8-1 .1-.1 0-.2-.1-.2h-.1c-.1 0-.2-.1-.1-.2.4-.7.8-1.4 1.3-2.2 0-.1.2-.1.2 0 .4.7.8 1.4 1.2 2.2 0 .1 0 .2-.1.2-.1 0-.1.1-.1.2.2.3.5.7.7 1 .1.1 0 .2-.1.2h-.3c-.1 0-.2.1-.1.2.4.5.7.9 1.1 1.4.1.1 0 .2-.1.2h-.6c-.1 0-.2.1-.1.2.4.5.8 1 1.2 1.5.1.1 0 .2-.1.2h-2.2c-.1 0-.1.1-.1.2v1.1c0 .1-.1.1-.1.1-.2 0-.3 0-.5 0 0 0-.1-.1-.1-.1 0-.3 0-.7 0-1 0-.2-.1-.2-.2-.2-.7 0-1.4 0-2.1 0-.2-.1-.2-.2-.2-.3z" fill="#006838"/><path d="m89.5 91.3c.8-.9 1.5-1.9 2.2-2.8.1-.1 0-.4-.2-.4h-1.1c-.2 0-.3-.2-.2-.4.7-.9 1.3-1.7 2-2.6.1-.1 0-.4-.2-.4h-.7c-.2 0-.3-.2-.2-.4.5-.7.9-1.3 1.4-1.9.1-.2 0-.4-.2-.4h-.1c-.2 0-.3-.2-.2-.3.8-1.3 1.6-2.7 2.4-4 .1-.2.3-.1.4 0 .8 1.3 1.5 2.6 2.3 4 .1.1 0 .3-.2.3h-.1c-.2 0-.3.2-.2.4.4.6.9 1.3 1.3 1.9.1.2 0 .4-.2.4h-.7c-.2 0-.3.2-.2.4.7.9 1.3 1.7 2 2.6.1.1 0 .4-.2.4h-1c-.2 0-.3.2-.2.4.7.9 1.4 1.9 2.2 2.8.1.1 0 .4-.2.4h-4c-.1 0-.2.1-.2.2v2.1c0 .1-.1.2-.2.2-.3 0-.6 0-.9 0-.1 0-.1-.2-.1-.3 0-.6 0-1.3 0-1.9 0-.3-.1-.4-.4-.4-1.3 0-2.6 0-4 0-.1.1-.2-.1-.1-.3z" fill="#006838"/><path d="m55.8 118.1 28.3-18.1-56.1.2z" fill="#fff"/><path d="m42.7 100.7h-15c-.3 0-.5-.2-.5-.5s.2-.5.5-.5h15c.3 0 .5.2.5.5s-.3.5-.5.5z" fill="#231f20"/><path d="m63.7 100.7h-15c-.3 0-.5-.2-.5-.5s.2-.5.5-.5h15c.3 0 .5.2.5.5s-.3.5-.5.5z" fill="#231f20"/><path d="m83.7 100.5h-15c-.3 0-.5-.2-.5-.5s.2-.5.5-.5h15c.3 0 .5.2.5.5s-.3.5-.5.5z" fill="#231f20"/><g stroke-width=".25"><path d="m84.8 65.2c.2 0 .4-.2.4-.4v-1.8c0-.2-.2-.4-.4-.4-.2 0-.4.2-.4.4v1.8c0 .2.2.4.4.4z" fill="#2e2e54" stroke="#231f20" stroke-miterlimit="10"/><path d="m42.6 65.2c.2 0 .4-.2.4-.4v-1.8c0-.2-.2-.4-.4-.4-.2 0-.4.2-.4.4v1.8c0 .2.2.4.4.4z" fill="#2e2e54" stroke="#231f20" stroke-miterlimit="10"/><circle cx="72.9" cy="94" fill="#0e2947" r="6.1" stroke="#231f20" stroke-miterlimit="10"/><circle cx="72.9" cy="94" fill="none" r="4" stroke="#0fce7c" stroke-dasharray="1.8746 6.561" stroke-linecap="round" stroke-linejoin="round"/><ellipse cx="72.9" cy="94" fill="#efebef" rx="2.5" ry="2.5" stroke="#231f20" stroke-miterlimit="10" transform="matrix(.7071 -.7071 .7071 .7071 -45.1226 79.0565)"/><path d="m35.8 68.6h54.5s3.8 14.6.7 26.3l-10.2.2-1.5-2.9h-12.9l-1.4 2.7h-37.8s-.9-15.9 8.6-26.3z" fill="#fbf9f5" stroke="#231f20" stroke-miterlimit="10"/><path d="m33.8 68.6h56.5c0-1.8-1.5-3.3-3.3-3.3h-49.9c-1.8-.1-3.3 1.4-3.3 3.3z" fill="#fff" stroke="#231f20" stroke-miterlimit="10"/><path d="m82.8 97 7.4-.2c1.2 0 2.1-1 2.1-2.1 0-1.2-1-2.1-2.1-2.1l-7.4.2c-1.2 0-2.1 1-2.1 2.1 0 1.2 1 2.1 2.1 2.1z" fill="#0fce7c" stroke="#0e2947" stroke-miterlimit="10"/><path d="m26.8 96.8h6.2c1.2 0 2.1-1 2.1-2.1 0-1.2-1-2.1-2.1-2.1h-6.2c-1.2 0-2.1 1-2.1 2.1 0 1.2 1 2.1 2.1 2.1z" fill="#0fce7c" stroke="#0e2947" stroke-miterlimit="10"/><circle cx="41.5" cy="94" fill="#2e2e54" r="6.1" stroke="#231f20" stroke-miterlimit="10"/><circle cx="41.5" cy="94" r="4.2" style="fill:none;stroke:#0fce7c;stroke-linecap:round;stroke-linejoin:round;stroke-miterlimit:10;stroke-dasharray:2 7"/><path d="m52 59.6c-1.8-1.5-2.7-3.4-2.7-5.1-1.8 2.2-1.4 5.4.9 7.3s5.6 1.6 7.3-.5c-1.6.3-3.7-.2-5.5-1.7z" fill="#ff5c89" stroke="#231f20" stroke-miterlimit="10"/><path d="m56.6 54c-2.3-1.9-5.6-1.6-7.3.5 1.6-.4 3.8.2 5.5 1.7 1.8 1.5 2.7 3.4 2.7 5.1 1.8-2.2 1.4-5.5-.9-7.3z" fill="#ff5c89" stroke="#231f20" stroke-miterlimit="10"/><path d="m52 59.6c1.8 1.5 3.9 2 5.5 1.7 0-1.7-.9-3.7-2.7-5.1-1.8-1.5-3.9-2-5.5-1.7-.1 1.7.9 3.7 2.7 5.1z" fill="#5050ff" stroke="#231f20" stroke-miterlimit="10"/><ellipse cx="49.4" cy="54.6" fill="#f9ed32" rx=".8" ry=".3" stroke="#231f20" stroke-miterlimit="10" transform="matrix(.7071 -.7071 .7071 .7071 -24.1104 50.9495)"/><path d="m45.5 65.6h9.9c.4 0 .7-.3.7-.7v-2c0-.4-.3-.7-.7-.7h-9.9c-.4 0-.7.3-.7.7v2c0 .4.3.7.7.7z" fill="#ce9bcd" stroke="#231f20" stroke-miterlimit="10"/><path d="m55.9 63.9h-11.1" fill="#efebef" stroke="#231f20" stroke-miterlimit="10"/><path d="m48.9 64.4h3c.2 0 .4-.2.4-.4 0-.2-.2-.4-.4-.4h-3c-.2 0-.4.2-.4.4 0 .2.2.4.4.4z" fill="#ce9bcd" stroke="#231f20" stroke-miterlimit="10"/><path d="m47.1 64.6c.2 0 .3-.1.3-.3v-.6c0-.2-.1-.3-.3-.3-.2 0-.3.1-.3.3v.6c0 .1.1.3.3.3z" fill="#fbf9f5" stroke="#231f20" stroke-miterlimit="10"/><path d="m53.7 64.6c.2 0 .3-.1.3-.3v-.6c0-.2-.1-.3-.3-.3-.2 0-.3.1-.3.3v.6c0 .1.1.3.3.3z" fill="#fbf9f5" stroke="#231f20" stroke-miterlimit="10"/><path d="m57.1 65.7h10.1c.4 0 .8-.4.8-.8v-1.9c0-.4-.4-.8-.8-.8h-10.1c-.4 0-.8.4-.8.8v1.9c0 .4.3.8.8.8z" fill="#efebef" stroke="#231f20" stroke-miterlimit="10"/><path d="m60.5 64.4h3.1c.2 0 .4-.2.4-.4 0-.2-.2-.4-.4-.4h-3.1c-.2 0-.4.2-.4.4 0 .2.2.4.4.4z" fill="none" stroke="#231f20" stroke-miterlimit="10"/><path d="m58.7 64.6c.2 0 .3-.1.3-.3v-.7c0-.2-.1-.3-.3-.3-.2 0-.3.1-.3.3v.7c-.1.2.1.3.3.3z" fill="#27aae1" stroke="#231f20" stroke-miterlimit="10"/><path d="m65.5 64.6c.2 0 .3-.1.3-.3v-.7c0-.2-.1-.3-.3-.3-.2 0-.3.1-.3.3v.7c0 .1.1.3.3.3z" fill="#27aae1" stroke="#231f20" stroke-miterlimit="10"/><path d="m57.1 65.7h10.1c.4 0 .8-.4.8-.8v-1.9c0-.4-.4-.8-.8-.8h-10.1c-.4 0-.8.4-.8.8v1.9c0 .4.3.8.8.8z" fill="#efebef" stroke="#231f20" stroke-miterlimit="10"/><path d="m67.9 63.9h-11.6" fill="#efebef" stroke="#231f20" stroke-miterlimit="10"/><path d="m60.5 64.4h3.1c.2 0 .4-.2.4-.4 0-.2-.2-.4-.4-.4h-3.1c-.2 0-.4.2-.4.4 0 .2.2.4.4.4z" fill="#28e072" stroke="#231f20" stroke-miterlimit="10"/><path d="m58.7 64.6c.2 0 .3-.1.3-.3v-.7c0-.2-.1-.3-.3-.3-.2 0-.3.1-.3.3v.7c-.1.2.1.3.3.3z" fill="#28e072" stroke="#231f20" stroke-miterlimit="10"/><path d="m65.5 64.6c.2 0 .3-.1.3-.3v-.7c0-.2-.1-.3-.3-.3-.2 0-.3.1-.3.3v.7c0 .1.1.3.3.3z" fill="#28e072" stroke="#231f20" stroke-miterlimit="10"/><path d="m44.9 60.1h10.2c.4 0 .7-.3.7-.7v-2c0-.4-.3-.7-.7-.7h-10.2c-.4 0-.7.3-.7.7v1 1c0 .4.3.7.7.7z" fill="#ffde17" stroke="#231f20" stroke-miterlimit="10"/><path d="m55.9 58.4h-11.7" fill="#efebef" stroke="#231f20" stroke-miterlimit="10"/><path d="m48.5 58.8h3.1c.2 0 .4-.2.4-.4 0-.2-.2-.4-.4-.4h-3.1c-.2 0-.4.2-.4.4-.1.2.1.4.4.4z" fill="#f1f2f2" stroke="#231f20" stroke-miterlimit="10"/><path d="m46.6 59c.2 0 .3-.1.3-.3v-.7c0-.2-.1-.3-.3-.3-.2 0-.3.1-.3.3v.7c0 .2.1.3.3.3z" fill="#f1f2f2" stroke="#231f20" stroke-miterlimit="10"/><path d="m53.5 59c.2 0 .3-.1.3-.3v-.7c0-.2-.1-.3-.3-.3-.2 0-.3.1-.3.3v.7c-.1.2.1.3.3.3z" fill="#f1f2f2" stroke="#231f20" stroke-miterlimit="10"/></g><path d="m78 61.3.1.5-5.2-.9c1.9-2.7 4.2-3.8 5.2-4.2.3-.1.5.2.4.4l-.2.5c-1.1 1.6-.9 2.2-.3 3.7z" fill="#f15a29"/><path d="m81.8 62.7-48.3-.1c-.4 0-.4-.5-.1-.6 6.8-1.3 25.1-3.9 48.4.1.4 0 .3.6 0 .6z" fill="#f7941d"/><path d="m81.9 62.6h-48.5s46-.6 48.5 0z" fill="#f15a29"/><ellipse cx="59.9" cy="62" fill="#231f20" opacity=".15" rx="10.6" ry=".9"/><path d="m72.8 59c0 .1-.1.2-.2.2l-23.6-.8c-.1 0-.2-.1-.2-.2 0-.1.1-.2.4-.2l23.6.8c-.1 0 0 .1 0 .2z" fill="#2e2e54" stroke="#231f20" stroke-miterlimit="10" stroke-width=".25"/><path d="m50.8 58c-.2.1-.2.4 0 .5 1.9.9 8.4 3.8 12.6 2.9 3-.7 4.6-2.5 4.6-2.5s-5.9-5.9-17.2-.9z" fill="#21f787" stroke="#231f20" stroke-miterlimit="10" stroke-width=".25"/><path d="m50.8 58.5s12.5 3.3 17.2.4c0 0-2.3 3.3-8 3-5.6-.2-9.2-3.4-9.2-3.4z" fill="#21f787" stroke="#231f20" stroke-miterlimit="10" stroke-width=".25"/><path d="m50.8 58.5s14.9-.8 17.1.3c0 0-5 3.3-17.1-.3z" fill="#2b3990" stroke="#231f20" stroke-miterlimit="10" stroke-width=".25"/><path d="m67.8 58.7c.2.1.8.2.6.5s-.8.4-.9.3z" fill="#21f787" stroke="#231f20" stroke-miterlimit="10" stroke-width=".25"/><path d="m67.6 58.4c.2 0 .7-.5.8-.1s-.1.7-.3.7h-.4z" fill="#2b3990" stroke="#231f20" stroke-miterlimit="10" stroke-width=".25"/><path d="m67.2 58.2c.1-.2.6-.5 1-.2.3.3-.4.4-.5.6z" fill="#21f787" stroke="#231f20" stroke-miterlimit="10" stroke-width=".25"/><path d="m50.7 58.6s.4 0 .1-.7l-.4.1s-.3.3 0 .4c.2.2.3.2.3.2z" style="fill:#21f787;stroke:#231f20;stroke-width:.15;stroke-linecap:round;stroke-linejoin:round;stroke-miterlimit:10"/><path d="m40.3 63.5h46.6c.2 0 .3-.1.3-.3v-.2c0-.2-.1-.3-.3-.3h-46.6c-.2 0-.3.1-.3.3v.2c0 .2.1.3.3.3z" fill="#2e2e54" stroke="#231f20" stroke-miterlimit="10" stroke-width=".25"/><path d="m61.1 63.5c-.7 0-1.7-.2-3.1-.6-5.2-1.5-9.6-6.2-9.6-6.2-.4-.6-.5-.9-.4-1.1.2-.3.8-.1.8-.1 4.4.3 12.4 5.1 13.3 7.1.1.3 0 .5 0 .7-.2.1-.5.2-1 .2zm-12.5-7c.2.2 4.4 4.7 9.5 6.1 2.9.8 3.6.6 3.8.4 0 0 .1-.1 0-.4-.8-1.9-8.7-6.7-13.1-7-.2-.1-.5-.1-.6 0 0 .1-.1.3.4.9z" fill="#0e2947" opacity=".22"/><path d="m48.8 55c-.1.1-.5 0-.6.1h.1c.4 0 .9 0 1.4.1 4.9.9 13.1 5.6 12.9 7.5v.2l.4-.4c.1-.1.3-.1.5-.2-.2-.3-.4-.6-.6-.9-1.4-2.4-3.8-6.3-5.5-6.9-.1-.1-.2-.1-.1-.2 1.8.7 4.2 4.5 5.8 7 .2.4.4.7.6 1h.7c.3.1.4.2.5.3.2.3.1.5.1.6-.1.2-.3.3-.6.3-.1 0-.3-.1-.6-.6-.1.3-.4.7-.9.7-.3 0-.5-.1-.6-.2-.2.1-.3.2-.5.2h-.1c-.1 0-.2-.1-.3-.2-.2 0-.5 0-.8 0s-.5 0-.8 0c-.2 0-.4.1-.6.1-.3 0-.6-.1-.7-.2-6.9-1.2-10.4-7-10.5-7.1 0 0-.3-.4-.2-.9v-.1c-.8.1-1.4.4-1.6 1.1l-.2-.1c.2-.8.9-1.2 1.9-1.3.3-.3.8-.3.9-.2.1.3 0 .3 0 .3zm12.8 8.6c.1 0 .1 0 0 0 .1.1.3 0 .4-.1-.1 0-.2 0-.4.1zm.8-.2c.1.1.2.2.4.1.6-.1.7-.5.8-.8 0-.1-.1-.1-.1-.2-.2 0-.4.1-.5.2s-.3.2-.5.4c0 .2-.1.3-.1.3zm1.5-.6c.2.4.4.6.5.6.2 0 .4-.1.4-.2.1-.1 0-.2-.1-.3s-.2-.2-.4-.2-.4 0-.5 0c0 0 0 0 .1.1zm-3.6.6h.3.5c-.1-.1-.2-.2-.4-.3 0 0 0 0-.1 0-.1.2-.2.2-.3.3zm-1.8-.2c.4.1.8.1 1.2.1.3-.1.5-.2.7-.3-.2-.1-.5-.2-.8-.2-.6 0-1 .1-1.1.3zm2.4-.2c.2.1.4.3.5.4.2 0 .4-.1.5-.1-.1-.2-.3-.4-.6-.4-.1 0-.3 0-.4.1zm-12.9-7.6c0 .1 0 .1-.1.2-.1.4.2.7.2.7 0 .1 3.5 5.7 10.2 6.9 0-.1 0-.1.1-.2.2-.3.7-.4 1.3-.4.4 0 .8.1 1 .3.2-.1.4-.2.7-.3.4 0 .6.2.8.5.1-.1.2-.2.2-.3.2-1.6-7.7-6.4-12.7-7.3-.6-.1-1.2-.1-1.7-.1z" fill="#1b75bc"/><path d="m57.1 54.3s.4.4.4.5-.3-.1-.3-.1l-.1-.3z" fill="#231f20"/><path d="m62.9 62.2c-1.4-3-5.3-7.1-5.3-7.2l.2-.2s4 4.2 5.4 7.2z" fill="#0e2947" opacity=".56"/><path d="m48.3 95.8h16.3c.4 0 .7-.3.7-.7v-.4c0-.4-.3-.7-.7-.7h-16.3c-.4 0-.7.3-.7.7v.4c0 .4.3.7.7.7z" fill="#0fce7c" stroke="#0e2947" stroke-miterlimit="10" stroke-width=".25"/><path d="m69.8 78h7.9c1.8 0 3.2-1.5 3.2-3.2v-2c0-1.8-1.5-3.2-3.2-3.2h-7.9c-1.8 0-3.2 1.5-3.2 3.2v2c0 1.7 1.4 3.2 3.2 3.2z" fill="#0fce7c" stroke="#231f20" stroke-miterlimit="10" stroke-width=".25"/><use fill="#009444" xlink:href="#m"/><path clip-path="url(#e)" d="m77.9 79.3c-.1 0-.1 0-.2 0 .1-.2 0-.2-.2-.2-.2.1-.3 0-.5-.2-.1-.1-.2-.2-.3-.3-.1 0-.4-.1-.5 0-.2.3-.2 0-.2-.1-.3 0-.6 0-.9.1-.1 0-.2.1-.4.1 0-.1 0-.2 0-.3-.3.4-.6.1-.8.1-.2.4-.6.1-.9.3 0-.1-.1-.1-.1-.1-.4.1-.8.2-1.3.2 0 0-.1.1-.1.1-.2 0-.5 0-.7 0-.1 0-.3-.1-.3-.1-.3.2-.4.2-.8-.1 0 0 .1-.1.1-.2-.3.1-.4.1-.7 0-.2-.1-.5-.1-.8 0-.2 0-.2.1-.2-.1-.4.1-.7.1-1.1 0-.2 0-.6.1-.9.2 0 0-.1.1-.2.2 0-.2 0-.3 0-.4-.3.3-.4.3-.7 0-.1-.1-.1-.1-.2-.1 0 0 0 0 0-.1.1-.1.2-.1.2-.2s-.1-.1-.2-.2c.1-.1.2-.1.2-.2s0-.1-.1-.2c0-.1-.1-.2-.2-.3 0 0 0 0 0-.1.2 0 .3-.1.5-.1-.1-.1-.2-.2-.3-.3.2 0 .3-.1.4-.1-.1-.2-.4-.1-.4-.3.1-.1.3-.1.4-.2-.1-.1-.2-.2-.3-.3.1-.1.2-.2.3-.2h-.1c-.1-.1-.1-.2-.2-.3.1 0 .2-.1.2-.1 0-.1-.1-.2-.1-.2.1 0 .2 0 .3-.1-.1-.1-.2-.2-.3-.4h.1c0-.1 0-.3.1-.4h.2c-.1-.1-.2-.2-.3-.3 0 0 0 0 0-.1h.3c0-.1-.1-.3-.1-.4s.1-.1.1-.2.1-.3.1-.4h.1v.7c0-.1.1-.1.1-.3 0 .3.1.6.1.8 0 0-.1 0-.2.1.2 0 .3.1.5.1-.2.1-.3.2-.4.3.1 0 .3 0 .4.1-.2.1-.3.2-.4.3.1 0 .3.1.5.2-.1.1-.3.2-.4.3.1 0 .2.1.4.1-.1.2-.2.3-.3.4h.2v.2h.3c-.1-.1-.1-.1-.1-.2h.2s0 0-.1 0c.1-.2.1-.3.2-.6.1.2.3.4.3.5 0 .3.1.4.5.3-.1-.1-.2-.1-.2-.2s.1-.2.1-.3h.2c-.1-.1-.2-.1-.3-.2h.4c-.1-.2-.1-.5.2-.7.1.3.2.5.3.8-.1 0-.1 0-.3.1.2 0 .3 0 .5.1-.1.1-.2.1-.3.2h.4c-.2.1-.3.2-.3.2.2.1.3.1.5.2 0-.2-.1-.3-.1-.4.1 0 .2 0 .3-.1-.1-.1-.2-.2-.2-.2 0-.1.1-.2.1-.3h.2c-.1-.1-.2-.1-.3-.2 0 0 0 0 0-.1h.3c0-.1-.1-.2-.1-.3 0-.2.1-.3.2-.5h.1v.4s.1-.1.1-.1c0 .2.1.4.1.5 0 0-.1 0-.2.1.2 0 .3.1.5.1-.1.1-.2.1-.3.2.4 0 .5.1.3.4.1 0 .1-.1.2-.1 0 .2 0 .4.2.4.1-.1.1-.2.2-.3h.1v.3s.1-.1.2-.1c.2.2.2 0 .4-.1-.1-.1-.2-.1-.2-.2h.1c0-.1 0-.2 0-.3.1 0 .1 0 .3-.1-.1-.1-.2-.2-.3-.3h.1c0-.1 0-.2.1-.4 0 0 .1 0 .1-.1-.1-.1-.1-.2-.2-.2 0 0 0 0 0-.1h.3c0-.1-.1-.2-.1-.4 0 0 .1-.1.1-.2s.1-.3.1-.4c.3.2.1.4.1.6.1-.1.1-.2.2-.2 0 .3.1.5.1.7 0 0-.1 0-.2.1.2.1.3.1.5.1-.2.1-.3.2-.4.3.1 0 .2 0 .4.1-.1.1-.3.2-.4.3.1 0 .3.1.5.1-.1.1-.3.2-.4.3.1 0 .2.1.4.1-.1.1-.2.2-.2.3.1.1.1.2.2.2s.1-.1.3-.1c-.1-.1-.1-.1-.2-.1 0-.2.1-.3.1-.5h.1c-.1-.3.1-.4.2-.6.1.1.1.2.2.3l.2.2s.1.1.1 0c0 0 .1-.1.1-.1 0-.1 0-.1 0-.2h.1c-.1 0-.1-.1-.2-.1 0 0 0 0 0-.1h.3c-.2-.2-.1-.4.2-.7v.5s.1-.1.2-.1c-.1.3 0 .5.2.7-.1 0-.2.1-.3.1v.1c.2 0 .3-.1.5-.1 0 0 0-.1.1-.1-.1-.1-.2-.1-.2-.1 0-.2.1-.3.1-.4 0 0 0 0 .2-.1-.1-.1-.2-.1-.3-.2h.4c-.2-.2-.1-.6.2-.8.1.3.2.6.3 1-.1 0-.1 0-.2 0 .1 0 .2.1.4.1-.2.1-.3.1-.4.2.1 0 .2 0 .4.1-.2.1-.3.2-.4.3.1 0 .2.1.5.1-.1.1-.2.2-.3.3.1 0 .2.1.4.1-.1.1-.2.2-.2.3.2.1.3.1.4.2v-.1c-.1 0-.1-.1-.2-.1.1-.1.2-.2.3-.3 0 0-.1-.1-.2-.1h.2c-.1-.2-.1-.3.2-.5v.3h.5c-.1-.1-.2-.2-.2-.2.1-.1.1-.3.2-.4 0 0-.1-.1-.2-.2h.4c-.2-.2-.1-.5.2-.7v.4c.1 0 .1-.1.2-.2v.4s0 .1.1.1h.1s.1-.1 0-.1c0 0 0-.1-.1-.2.1 0 .2-.1.3-.1-.1-.1-.2-.2-.3-.3 0 0 0 0 0-.1h.3c-.5-.2.1-.6-.1-.9h.4c-.1.2-.1.3-.1.4 0-.1.1-.1.2-.2 0 .3.1.5.1.8 0 0-.1 0-.2 0 .1 0 .3.1.4.1-.1.1-.2.2-.4.3h.3v.1c-.1.1-.2.2-.4.3.1 0 .3.1.5.2-.2.1-.3.2-.4.3.1 0 .2.1.4.1h-.1v.6h.1c.2.5.1 1.1.5 1.6-.1 0-.2.1-.3.1.1 0 .2.1.3.1-.1.1-.2.1-.3.2h.3c0 .1 0 .3-.1.3-.3.1-.7.1-1 .1.1.8.1.8.1.9zm-7-2.9c.1.1.1.2.1.2-.1 0-.1 0-.2 0 .1-.1.4.2.4-.1-.1 0-.2-.1-.3-.1z" fill="#024c27"/><path clip-path="url(#e)" d="m74.5 78.7c.2-.2.3-.4.5-.7v-.1h-.2s-.1-.1 0-.1c.2-.2.3-.4.5-.6v-.1h-.3s-.1 0 0-.1c.1-.2.2-.3.3-.4v-.1s-.1 0 0-.1c.2-.3.4-.6.5-.9h.1c.2.3.4.6.5.9v.1s-.1 0 0 .1.2.3.3.4v.1h-.2s-.1 0 0 .1c.2.2.3.4.5.6v.1h-.2s-.1.1 0 .1c.2.2.3.4.5.7v.1h-.9s-.1 0-.1.1v.5s0 .1-.1.1-.1 0-.2 0c0 0 0 0 0-.1s0-.3 0-.4 0-.1-.1-.1c-.7-.1-1-.1-1.4-.2.1.1.1.1 0 0z" fill="#006838"/><path clip-path="url(#e)" d="m72.7 79.6c.2-.2.3-.4.5-.7v-.1h-.2s-.1-.1 0-.1c.2-.2.3-.4.5-.6v-.1h-.2s-.1 0 0-.1c.1-.2.2-.3.3-.4v-.1s-.1 0 0-.1c.2-.3.4-.6.5-.9h.1c.2.3.4.6.5.9v.1s-.1 0 0 .1.2.3.3.4v.1h-.2s-.1 0 0 .1c.2.2.3.4.5.6v.1h-.2s-.1.1 0 .1c.2.2.3.4.5.7v.1h-.9s-.1 0-.1.1v.5s0 .1-.1.1-.1 0-.2 0c0 0 0 0 0-.1s0-.3 0-.4 0-.1-.1-.1c-.9-.1-1.2-.1-1.5-.2 0 .1 0 .1 0 0 0 .1-.1 0 0 0z" fill="#006838"/><path clip-path="url(#e)" d="m67.1 79.6c.2-.2.3-.4.5-.7v-.1h-.2s-.1-.1 0-.1c.2-.2.3-.4.5-.6v-.1h-.2s-.1 0 0-.1c.1-.2.2-.3.3-.4v-.1s-.1 0 0-.1c.2-.3.4-.6.5-.9h.1c.2.3.4.6.5.9v.1s-.1 0 0 .1.2.3.3.4v.1h-.2s-.1 0 0 .1c.2.2.3.4.5.6v.1h-.7s-.1.1 0 .1c.2.2.3.4.5.7v.1h-.9s-.1 0-.1.1v.5s0 .1-.1.1-.1 0-.2 0c0 0 0 0 0-.1s0-.3 0-.4 0-.1-.1-.1c-.3-.1-.7-.1-1-.2 0 .1 0 .1 0 0z" fill="#006838"/><use fill="none" stroke="#231f20" stroke-miterlimit="10" stroke-width=".25" xlink:href="#m"/><path d="m58.3 78h3.2c1.8 0 3.2-1.5 3.2-3.2v-2c0-1.8-1.5-3.2-3.2-3.2h-3.2c-1.8 0-3.2 1.5-3.2 3.2v2c0 1.8 1.4 3.2 3.2 3.2z" fill="#0fce7c" stroke="#231f20" stroke-miterlimit="10" stroke-width=".25"/><use fill="#009444" opacity=".81" xlink:href="#n"/><path clip-path="url(#f)" d="m67.7 79.3c-.1 0-.1 0-.2 0 .1-.2 0-.2-.2-.2-.2.1-.3 0-.5-.2-.1-.1-.2-.2-.3-.3-.1 0-.4-.1-.5 0-.2.3-.2 0-.2-.1-.3 0-.6 0-.9.1-.1 0-.2.1-.4.1 0-.1 0-.2 0-.3-.3.4-.6.1-.8.1-.2.4-.6.1-.9.3 0-.1-.1-.1-.1-.1-.4.1-.8.2-1.3.2 0 0-.1.1-.1.1-.2 0-.5 0-.7 0-.1 0-.3-.1-.3-.1-.3.2-.4.2-.8-.1 0 0 .1-.1.1-.2-.3.1-.4.1-.7 0-.2-.1-.5-.1-.8 0-.2 0-.2.1-.2-.1-.4.1-.7.1-1.1 0-.2 0-.6.1-.9.2 0 0-.1.1-.2.2 0-.2 0-.3 0-.4-.3.3-.4.3-.7 0-.1-.1-.1-.1-.2-.1 0 0 0 0 0-.1.1-.1.2-.1.2-.2s-.1-.1-.2-.2c.1-.1.2-.1.2-.2s0-.1-.1-.2c0-.1-.1-.2-.2-.3 0 0 0 0 0-.1.2 0 .3-.1.5-.1-.1-.1-.2-.2-.3-.3.2 0 .3-.1.4-.1-.1-.2-.4-.1-.4-.3.1-.1.3-.1.4-.2-.1-.1-.2-.2-.3-.3.1-.1.2-.2.3-.2h-.1c-.1-.1-.1-.2-.2-.3.1 0 .2-.1.2-.1 0-.1-.1-.2-.1-.2.1 0 .2 0 .3-.1-.1-.1-.2-.2-.3-.4h.1c0-.1 0-.3.1-.4h.2c-.1-.1-.2-.2-.3-.3 0 0 0 0 0-.1h.3c0-.1-.1-.3-.1-.4s.1-.1.1-.2.1-.3.1-.4h.1v.7c0-.1.1-.1.1-.3 0 .3.1.6.1.8 0 0-.1 0-.2.1.2 0 .3.1.5.1-.2.1-.3.2-.4.3.1 0 .3 0 .4.1-.2.1-.3.2-.4.3.1 0 .3.1.5.2-.1.1-.3.2-.4.3.1 0 .2.1.4.1-.1.2-.2.3-.3.4h.2v.2h.3c-.1-.1-.1-.1-.1-.2h.2s0 0-.1 0c.1-.2.1-.3.2-.6.1.2.3.4.3.5 0 .3.1.4.5.3-.1-.1-.2-.1-.2-.2s.1-.2.1-.3h.2c-.1-.1-.2-.1-.3-.2h.4c-.1-.2-.1-.5.2-.7.1.3.2.5.3.8-.1 0-.1 0-.3.1.2 0 .3 0 .5.1-.1.1-.2.1-.3.2h.4c-.2.1-.3.2-.3.2.2.1.3.1.5.2 0-.2-.1-.3-.1-.4.1 0 .2 0 .3-.1-.1-.1-.2-.2-.2-.2 0-.1.1-.2.1-.3h.2c-.1-.1-.2-.1-.3-.2 0 0 0 0 0-.1h.3c0-.1-.1-.2-.1-.3 0-.2.1-.3.2-.5h.1v.4s.1-.1.1-.1c0 .2.1.4.1.5 0 0-.1 0-.2.1.2 0 .3.1.5.1-.1.1-.2.1-.3.2.4 0 .5.1.3.4.1 0 .1-.1.2-.1 0 .2 0 .4.2.4.1-.1.1-.2.2-.3h.1v.3s.1-.1.2-.1c.2.2.2 0 .4-.1 0 .3-.1.2-.2.2h.1c0-.1 0-.2 0-.3.1 0 .1 0 .3-.1-.1-.1-.2-.2-.3-.3h.1c0-.1 0-.2.1-.4 0 0 .1 0 .1-.1-.1-.1-.1-.2-.2-.2 0 0 0 0 0-.1h.3c0-.1-.1-.2-.1-.4 0 0 .1-.1.1-.2s.1-.3.1-.4c.3.2.1.4.1.6.1-.1.1-.2.2-.2 0 .3.1.5.1.7 0 0-.1 0-.2.1.2.1.3.1.5.1-.2.1-.3.2-.4.3.1 0 .2 0 .4.1-.1.1-.3.2-.4.3.1 0 .3.1.5.1-.1.1-.3.2-.4.3.1 0 .2.1.4.1-.1.1-.2.2-.2.3.1.1.1.2.2.2s.1-.1.3-.1c-.1-.1-.1-.1-.2-.1 0-.2.1-.3.1-.5h.1c-.1-.3.1-.4.2-.6.1.1.1.2.2.3l.2.2s.1.1.1 0c0 0 .1-.1.1-.1 0-.1 0-.1 0-.2h.1c-.1 0-.1-.1-.2-.1 0 0 0 0 0-.1h.3c-.2-.2-.1-.4.2-.7v.5s.1-.1.2-.1c-.1.3 0 .5.2.7-.1 0-.2.1-.3.1v.1c.2 0 .3-.1.5-.1 0 0 0-.1.1-.1-.1-.1-.2-.1-.2-.1 0-.2.1-.3.1-.4 0 0 0 0 .2-.1-.1-.1-.2-.1-.3-.2h.4c-.2-.2-.1-.6.2-.8.1.3.2.6.3 1-.1 0-.1 0-.2 0 .1 0 .2.1.4.1-.2.1-.3.1-.4.2.1 0 .2 0 .4.1-.2.1-.3.2-.4.3.1 0 .2.1.5.1-.1.1-.2.2-.3.3.1 0 .2.1.4.1-.1.1-.2.2-.2.3.2.1.3.1.4.2v-.1c-.1 0-.1-.1-.2-.1l.3-.3s-.1-.1-.2-.1h.2c-.1-.2-.1-.3.2-.5v.3h.5c-.1-.1-.2-.2-.2-.2.1-.1.1-.3.2-.4 0 0-.1-.1-.2-.2h.4c-.2-.2-.1-.5.2-.7v.4c.1 0 .1-.1.2-.2v.4s0 .1.1.1h.1s.1-.1 0-.1c0 0 0-.1-.1-.2.1 0 .2-.1.3-.1-.1-.1-.2-.2-.3-.3 0 0 0 0 0-.1h.3c-.5-.2.1-.6-.1-.9h.4c-.1.2-.1.3-.1.4 0-.1.1-.1.2-.2 0 .3.1.5.1.8 0 0-.1 0-.2 0 .1 0 .3.1.4.1-.1.1-.2.2-.4.3h.3v.1c-.1.1-.2.2-.4.3.1 0 .3.1.5.2-.2.1-.3.2-.4.3.1 0 .2.1.4.1h-.1v.6h.1c.2.5.1 1.1.5 1.6-.1 0-.2.1-.3.1.1 0 .2.1.3.1-.1.1-.2.1-.3.2h.3c0 .1 0 .3-.1.3-.3.1-.7.1-1 .1.1.4.1.4.1.5zm-7-2.9c.1.1.1.2.1.2-.1 0-.1 0-.2 0 .1-.1.4.2.4-.1-.1 0-.2-.1-.3-.1z" fill="#024c27"/><path clip-path="url(#f)" d="m56 78.7c.2-.2.3-.4.5-.7v-.1h-.2s-.1-.1 0-.1c.2-.2.3-.4.5-.6v-.1h-.2s-.1 0 0-.1c.1-.2.2-.3.3-.4v-.1s-.1 0 0-.1c.2-.3.4-.6.5-.9h.1c.2.3.4.6.5.9v.1s-.1 0 0 .1.2.3.3.4v.1h-.2s-.1 0 0 .1c.2.2.3.4.5.6v.1h-.2s-.1.1 0 .1c.2.2.3.4.5.7v.1h-.9s-.1 0-.1.1v.5s0 .1-.1.1-.1 0-.2 0c0 0 0 0 0-.1s0-.3 0-.4 0-.1-.1-.1c-.9-.1-1.2-.1-1.5-.2 0 .1 0 .1 0 0 0 .1-.1 0 0 0z" fill="#006838"/><use fill="none" opacity=".81" stroke="#231f20" stroke-miterlimit="10" stroke-width=".25" xlink:href="#n"/><path d="m35.8 78h15.2c1.2 0 2.1-1 2.1-2.1v-4.2c0-1.2-1-2.1-2.1-2.1h-13.1c-.3 0-.5.2-.6.4l-2.1 7.3c-.1.3.2.7.6.7z" fill="#0fce7c" stroke="#231f20" stroke-miterlimit="10" stroke-width=".25"/><use fill="#009444" xlink:href="#o"/><path clip-path="url(#g)" d="m48.2 78.4c-.1 0-.1 0-.2 0 .1-.2 0-.2-.2-.2-.2.1-.3 0-.5-.2-.1-.1-.2-.2-.3-.3-.1 0-.4-.1-.5 0-.2.3-.2 0-.2-.1-.3 0-.6 0-.9.1-.1 0-.2.1-.4.1 0-.1 0-.2 0-.3-.3.4-.6.1-.8.1-.2.4-.6.1-.9.3 0-.1-.1-.1-.1-.1-.4.1-.8.2-1.3.2 0 0-.1.1-.1.1-.2 0-.5 0-.7 0-.1 0-.3-.1-.3-.1-.3.2-.4.2-.8-.1 0 0 .1-.1.1-.2-.3.1-.4.1-.7 0-.2-.1-.5-.1-.8 0-.2 0-.2.1-.2-.1-.4.1-.7.1-1.1 0-.2 0-.6.1-.9.2 0 0-.1.1-.2.2 0-.2 0-.3 0-.4-.2.4-.2.4-.5.1-.1-.1-.1-.1-.2-.1 0 0 0 0 0-.1.1-.1.2-.1.2-.2s-.1-.1-.2-.2c.1-.1.2-.1.2-.2s0-.1-.1-.2c0-.1-.1-.2-.2-.3 0 0 0 0 0-.1.2 0 .3-.1.5-.1-.1-.1-.2-.2-.3-.3.2 0 .3-.1.4-.1-.1-.2-.4-.1-.4-.3.1-.1.3-.1.4-.2-.1-.1-.2-.2-.3-.3.1-.1.2-.2.3-.2h-.1c-.1-.1-.1-.2-.2-.3.1 0 .2-.1.2-.1 0-.1-.1-.2-.1-.2.1 0 .2 0 .3-.1-.1-.1-.2-.2-.3-.4h.1c0-.1 0-.3.1-.4h.2c-.1-.1-.2-.2-.3-.3 0 0 0 0 0-.1h.3c0-.1-.1-.3-.1-.4s.1-.1.1-.2.1-.3.1-.4h.1v.7c0-.1.1-.1.1-.3 0 .3.1.6.1.8 0 0-.1 0-.2.1.2 0 .3.1.5.1-.2.1-.3.2-.4.3.1 0 .3 0 .4.1-.2.1-.3.2-.4.3.1 0 .3.1.5.2-.1.1-.3.2-.4.3.1 0 .2.1.4.1-.1.2-.2.3-.3.4h.2v.2h.3c-.1-.1-.1-.1-.1-.2h.2s0 0-.1 0c.1-.2.1-.3.2-.6.1.2.3.4.3.5 0 .3.1.4.5.3-.1-.1-.2-.1-.2-.2s.1-.2.1-.3h.2c-.1-.1-.2-.1-.3-.2h.4c-.1-.2-.1-.5.2-.7.1.3.2.5.3.8-.1 0-.1 0-.3.1.2 0 .3 0 .5.1 0 .2-.1.2-.2.3h.4c-.2.1-.3.2-.3.2.2.1.3.1.5.2 0-.2-.1-.3-.1-.4.1 0 .2 0 .3-.1-.1-.1-.2-.2-.2-.2 0-.1.1-.2.1-.3h.2c-.1-.1-.2-.1-.3-.2 0 0 0 0 0-.1h.3c0-.1-.1-.2-.1-.3 0-.2.1-.3.2-.5h.1v.4s.1-.1.1-.1c0 .2.1.4.1.5 0 0-.1 0-.2.1.2 0 .3.1.5.1-.1.1-.2.1-.3.2.4 0 .5.1.3.4.1 0 .1-.1.2-.1 0 .2 0 .4.2.4.1-.1.1-.2.2-.3h.1v.3s.1-.1.2-.1c.2.2.2 0 .4-.1-.1-.1-.2-.1-.2-.2h.1c0-.1 0-.2 0-.3.1 0 .1 0 .3-.1-.1-.1-.2-.2-.3-.3h.1c0-.1 0-.2.1-.4 0 0 .1 0 .1-.1-.1-.1-.1-.2-.2-.2 0 0 0 0 0-.1h.3c0-.1-.1-.2-.1-.4 0 0 .1-.1.1-.2s.1-.3.1-.4c.3.2.1.4.1.6.1-.1.1-.2.2-.2 0 .3.1.5.1.7 0 0-.1 0-.2.1.2.1.3.1.5.1-.2.1-.3.2-.4.3.1 0 .2 0 .4.1-.1.1-.3.2-.4.3.1 0 .3.1.5.1-.1.1-.3.2-.4.3.1 0 .2.1.4.1-.1.1-.2.2-.2.3.1.1.1.2.2.2s.1-.1.3-.1c-.1-.1-.1-.1-.2-.1 0-.2.1-.3.1-.5h.1c-.1-.3.1-.4.2-.6.1.1.1.2.2.3l.2.2s.1.1.1 0c0 0 .1-.1.1-.1 0-.1 0-.1 0-.2h.1c-.1 0-.1-.1-.2-.1 0 0 0 0 0-.1h.3c-.2-.2-.1-.4.2-.7v.5s.1-.1.2-.1c-.1.3 0 .5.2.7-.1 0-.2.1-.3.1v.1c.2 0 .3-.1.5-.1 0 0 0-.1.1-.1-.1-.1-.2-.1-.2-.1 0-.2.1-.3.1-.4 0 0 0 0 .2-.1-.1-.1-.2-.1-.3-.2h.4c-.2-.2-.1-.6.2-.8.1.3.2.6.3 1-.1 0-.1 0-.2 0 .1 0 .2.1.4.1-.2.1-.3.1-.4.2.1 0 .2 0 .4.1-.2.1-.3.2-.4.3.1 0 .2.1.5.1-.1.1-.2.2-.3.3.1 0 .2.1.4.1-.1.1-.2.2-.2.3.2.1.3.1.4.2v-.1c-.1 0-.1-.1-.2-.1.1-.1.2-.2.3-.3 0 0-.1-.1-.2-.1h.2c-.1-.2-.1-.3.2-.5v.3h.5c-.1-.1-.2-.2-.2-.2.1-.1.1-.3.2-.4 0 0-.1-.1-.2-.2h.4c-.2-.2-.1-.5.2-.7v.4c.1 0 .1-.1.2-.2v.4s0 .1.1.1h.1s.1-.1 0-.1c0 0 0-.1-.1-.2.1 0 .2-.1.3-.1-.1-.1-.2-.2-.3-.3 0 0 0 0 0-.1h.3c-.5-.2.1-.6-.1-.9h.4c-.1.2-.1.3-.1.4 0-.1.1-.1.2-.2 0 .3.1.5.1.8 0 0-.1 0-.2 0 .1 0 .3.1.4.1-.1.1-.2.2-.4.3h.3v.1c-.1.1-.2.2-.4.3.1 0 .3.1.5.2-.2.1-.3.2-.4.3.1 0 .2.1.4.1h-.1v.6h.1c.2.5.1 1.1.5 1.6-.1 0-.2.1-.3.1.1 0 .2.1.3.1-.1.1-.2.1-.3.2h.3c0 .1 0 .3-.1.3-.3.1-.7.1-1 .1-.2.6-.2.6-.2.7zm-7-3c.1.1.1.2.1.2-.1 0-.1 0-.2 0 .1-.1.4.2.4-.1 0 .1-.1 0-.3-.1z" fill="#024c27"/><path clip-path="url(#g)" d="m44.8 77.8c.2-.2.3-.4.5-.7v-.1h-.2s-.1-.1 0-.1c.2-.2.3-.4.5-.6v-.1h-.2s-.1 0 0-.1c.1-.2.2-.3.3-.4v-.1s-.1 0 0-.1c.2-.3.4-.6.5-.9h.1c.2.3.4.6.5.9v.1s-.1 0 0 .1.2.3.3.4v.1h-.2s-.1 0 0 .1c.2.2.3.4.5.6v.1h-.2s-.1.1 0 .1c.2.2.3.4.5.7v.1h-.9s-.1 0-.1.1v.5s0 .1-.1.1-.1 0-.2 0c0 0 0 0 0-.1s0-.3 0-.4 0-.1-.1-.1c-.8-.2-1.1-.2-1.5-.2.1 0 .1 0 0 0z" fill="#006838"/><path clip-path="url(#g)" d="m43 78.7c.2-.2.3-.4.5-.7v-.1h-.2s-.1-.1 0-.1c.2-.2.3-.4.5-.6v-.1h-.2s-.1 0 0-.1c.1-.2.2-.3.3-.4v-.1s-.1 0 0-.1c.2-.3.4-.6.5-.9h.1c.2.3.4.6.5.9v.1s-.1 0 0 .1.2.3.3.4v.1h-.2s-.1 0 0 .1c.2.2.3.4.5.6v.1h-.2s-.1.1 0 .1c.2.2.3.4.5.7v.1h-.9s-.1 0-.1.1v.5s0 .1-.1.1-.1 0-.2 0c0 0 0 0 0-.1s0-.3 0-.4 0-.1-.1-.1c-.9-.1-1.2-.1-1.5-.2 0 .1 0 .1 0 0 0 .1-.1 0 0 0z" fill="#006838"/><path clip-path="url(#g)" d="m37.4 78.7c.2-.2.3-.4.5-.7v-.1h-.2s-.1-.1 0-.1c.2-.2.3-.4.5-.6v-.1h-.2s-.1 0 0-.1c.1-.2.2-.3.3-.4v-.1s-.1 0 0-.1c.2-.3.4-.6.5-.9h.1c.2.3.4.6.5.9v.1s-.1 0 0 .1.2.3.3.4v.1h-.2s-.1 0 0 .1c.2.2.3.4.5.6v.1h-.2s-.1.1 0 .1c.2.2.3.4.5.7v.1h-.9s-.1 0-.1.1v.5s0 .1-.1.1-.1 0-.2 0c0 0 0 0 0-.1s0-.3 0-.4 0-.1-.1-.1c-.8-.1-1.1-.1-1.5-.2.1.1.1.1 0 0z" fill="#006838"/><g clip-path="url(#g)"><path d="m41.5 76 1.9-1.3.3.9-1.6.9z" fill="#0e2947"/><path d="m40.4 77.7c.8-.3 1.6-.7 2.2-1.2.2-.1.2-.4.2-.7-.1-.2-.5-.4-.5-.6 0-.1-.1-.2-.2-.2-.6-.1-1.1.3-1.6.5-.4.2-.8.5-1.3.7-.5.3-.9.6-1.4.9-.1 0-.1 0-.2 0s-.1.1-.1.1-.1.1-.1.1c-.1.1-.1.2-.1.3-.1.2 0 .4.2.6h.1c0 .2 0 .3.1.4s.2.1.3.1h.1.2c.7 0 1.4-.5 2.1-1m.7-1.4c.1-.1.2-.1.3-.1-.1 0-.2 0-.3.1m-3 2c0-.1-.1-.2-.2-.2 0-.1 0-.1-.1-.2s0 0 0-.1c.3-.1.6-.3.9-.5.1.2.2.3.2.5v.1c-.2.2-.5.3-.8.4" fill="#d6d6ea"/><path d="m41 76.5 1.6-.9" fill="#25e899"/><path d="m40.9 76.5c0-.1 0-.1.1-.2l1.6-.9c.1 0 .1 0 .2.1v.2l-1.6.9c-.2 0-.2 0-.3-.1" fill="#0e2947"/><path d="m37.5 78.8-.3-.6c-.2-.4-.1-.8.3-1l4.1-2.2c.4-.2.8-.1 1 .3l.3.6c.2.4.1.8-.3 1l-4.1 2.2c-.3.2-.8 0-1-.3zm4.8-3.4c-.1-.2-.4-.3-.7-.2l-4.1 2.2c-.2.1-.3.4-.2.7l.3.6c.1.2.4.3.7.2l4.1-2.2c.2-.1.3-.4.2-.7z" fill="#0e2947"/><path d="m38.7 78.3c.2-.1.3-.4.2-.7-.1-.2-.4-.3-.7-.2-.2.1-.3.4-.2.7s.4.4.7.2" fill="#25e899"/><g fill="#0e2947"><path d="m37.9 78.2c-.2-.3-.1-.7.2-.9s.7-.1.9.2.1.7-.2.9c-.4.2-.7.1-.9-.2m.9-.5c-.1-.2-.3-.2-.5-.1s-.2.3-.1.5.3.2.5.1c.1-.1.2-.3.1-.5"/><path d="m41.4 77.4-.9-1.7c0-.1 0-.1 0-.2.1 0 .1 0 .2.1l.9 1.7v.2c-.1-.1-.2-.1-.2-.1"/><path d="m40.4 77.9-.9-1.7c0-.1 0-.1.1-.2h.2l.9 1.7c0 .1 0 .1-.1.2s-.2.1-.2 0"/><path d="m36.3 78.6c0-.1 0-.1.1-.2l1.5-.6c.1 0 .1 0 .2.1 0 .1 0 .1-.1.2l-1.5.6c-.1 0-.2 0-.2-.1"/></g><path d="m34.8 78.7 1.2-.5c.2-.1.3 0 .4.2l.1.2c.1.2 0 .3-.2.4l-1.2.5" fill="#eff4ee"/><path d="m35 79.6c0-.1 0-.1.1-.2l1.2-.5c.1 0 .1-.1.1-.2l-.1-.2c0-.1-.1-.1-.2-.1l-1.2.5c-.1 0-.1 0-.2-.1 0-.1 0-.1.1-.2l1.2-.5c.2-.1.5 0 .6.2l.1.2c.1.2 0 .5-.3.6l-1.2.5c-.1.1-.2 0-.2 0" fill="#0e2947"/><path d="m35.1 79.5c.2-.1.3-.4.3-.6-.1-.2-.4-.3-.6-.3-.2.1-.3.4-.3.6.2.3.4.4.6.3" fill="#25e899"/><path d="m34.4 79.3c-.1-.3 0-.6.3-.7s.6 0 .7.3 0 .6-.3.7c-.2.2-.5 0-.7-.3m.9-.3c-.1-.2-.3-.2-.4-.2-.2.1-.2.3-.2.4.1.2.3.2.4.2.2-.1.2-.2.2-.4" fill="#0e2947"/><path d="m37.2 79.2.9-.9" fill="#0e2947"/><path d="m37.1 79.2v-.1l.9-.9h.1v.1l-.9.9c0 .1-.1.1-.1 0" fill="#0e2947"/><path d="m36 79.8.7-.7c.1-.1.3-.1.4 0l.1.2c.1.1.1.3 0 .4l-.7.7" fill="#eff4ee"/><path d="m36.4 80.4v-.1l.7-.7c.1-.1.1-.2 0-.2l-.1-.2c-.1-.1-.2-.1-.2 0l-.7.7h-.1v-.1l.7-.7c.1-.1.4-.1.5 0l.1.2c.1.1.1.4 0 .5l-.7.7c-.1-.1-.1-.1-.2-.1" fill="#0e2947"/><path d="m36.5 80.3c.1-.1.1-.4 0-.5s-.4-.1-.5 0-.1.4 0 .5.4.1.5 0" fill="#25e899"/><path d="m35.9 80.3c-.2-.2-.2-.5 0-.6.2-.2.5-.2.6 0 .2.2.2.5 0 .6-.1.2-.4.2-.6 0m.5-.5c-.1-.1-.3-.1-.4 0s-.1.3 0 .4.3.1.4 0 .1-.3 0-.4" fill="#0e2947"/></g><ellipse clip-path="url(#g)" cx="36.5" cy="78.4" fill="none" rx="1.2" ry="2.4" stroke="#d6d6ea" stroke-miterlimit="10" stroke-width=".5"/><path clip-path="url(#g)" d="m36.4 78.4.4-2.4z" fill="none" stroke="#d6d6ea" stroke-miterlimit="10" stroke-width=".5"/><use fill="none" stroke="#231f20" stroke-miterlimit="10" stroke-width=".25" xlink:href="#o"/><path d="m30.1 78h3.2c.4 0 .7-.2.8-.6l2.2-6.7c.2-.6-.2-1.1-.8-1.1h-.5s-1.5 1.9-2.4 3.4c-1 1.6-1.7 2.8-2.5 5z" fill="#2e2e54" stroke="#231f20" stroke-miterlimit="10" stroke-width=".25"/><use fill="#d6d6ea" xlink:href="#p"/><path clip-path="url(#h)" d="m34.8 79.8c-.1 0-.1 0-.2 0 0-.1 0-.2-.1-.1-.2.1-.3 0-.4-.1s-.1-.2-.2-.2-.3-.1-.4 0c-.2.2-.1 0-.2-.1-.2 0-.5 0-.7.1-.1 0-.2 0-.3.1 0-.1 0-.1 0-.3-.2.3-.4.1-.6.1-.2.4-.5.1-.7.3 0 0-.1-.1-.1-.1-.3.1-.7.1-1 .2 0 0-.1.1-.1.1-.2 0-.4 0-.6 0-.1 0-.2-.1-.2-.1-.2.1-.3.2-.6-.1 0 0 0-.1.1-.1-.2.1-.4.1-.5 0-.2-.1-.4-.1-.6 0-.1 0-.1.1-.2-.1-.3.1-.6.1-.9 0-.2 0-.5.1-.8.1 0 0 0 .1-.1.1 0-.2 0-.2 0-.3-.3.3-.3.3-.5 0 0 0-.1-.1-.2-.1.1-.1.1-.1.2-.1 0 0-.1-.1-.2-.2.1-.1.2-.1.2-.1 0-.1 0-.1-.1-.2 0-.1-.1-.2-.1-.3.1 0 .2-.1.4-.1-.1-.1-.2-.2-.2-.3.1 0 .2-.1.3-.1-.1-.1-.3-.1-.3-.3.1-.1.2-.1.3-.2-.1-.1-.2-.1-.3-.2.1-.1.2-.1.3-.2 0 0 0 0-.1 0-.1-.1-.1-.1-.2-.2.1 0 .1 0 .2-.1 0-.1-.1-.1-.1-.2.1 0 .1 0 .2-.1-.1-.1-.2-.2-.2-.3h.1c0-.1 0-.2.1-.3h.2c-.1-.1-.2-.1-.3-.2 0 0 0 0 0-.1h.2c0-.1-.1-.2-.1-.4 0 0 .1-.1.1-.2s.1-.2.1-.4h.1v.5s.1-.1.1-.2c0 .2.1.4.1.7 0 0-.1 0-.2.1.1 0 .2.1.4.1-.1.1-.2.1-.3.2.1 0 .2 0 .4.1-.1.1-.2.2-.3.3.1 0 .2.1.4.1-.1.1-.2.2-.3.3.1 0 .2.1.3.1-.1.1-.2.2-.2.3h.2v.2h.3c0-.1-.1-.1-.1-.1h.2s0 0-.1 0c.1-.1.1-.3.2-.5.1.2.2.3.2.4 0 .2.1.3.4.3-.1-.1-.1-.1-.1-.1 0-.1.1-.2.1-.3h.1c-.1 0-.1-.1-.3-.2h.3c-.1-.2-.1-.4.2-.5.1.2.2.4.2.6 0 0-.1 0-.2.1.2 0 .2 0 .4.1-.1.1-.2.1-.2.2h.3c-.1.1-.2.1-.3.2.1 0 .3.1.4.1 0-.1-.1-.2-.1-.3.1 0 .1 0 .2-.1-.1-.1-.1-.1-.2-.2 0-.1.1-.2.1-.3h.2c-.1-.1-.1-.1-.2-.1h.2c0-.1-.1-.1-.1-.2s.1-.3.2-.4h.1v.4s.1-.1.1-.1c0 .2.1.3.1.4 0 0-.1 0-.2.1.1 0 .2 0 .4.1-.1.1-.2.1-.3.2.3 0 .4.1.3.3.1 0 .1 0 .2-.1 0 .2 0 .4.2.3 0-.1.1-.2.1-.3h.1v.3s.1-.1.1-.1c.1.1.2 0 .3-.1-.1-.1-.1-.1-.2-.2h.1c0-.1 0-.1 0-.2.1 0 .1 0 .2-.1-.1-.1-.2-.2-.2-.2h.1c0-.1 0-.2.1-.3 0 0 .1 0 .1-.1-.1-.1-.1-.1-.2-.2h.2c0-.1-.1-.2-.1-.3 0 0 .1-.1.1-.1 0-.1 0-.2.1-.3.3.1.1.3.1.5.1-.1.1-.1.2-.2 0 .2 0 .4.1.6 0 0-.1 0-.2.1.2 0 .3.1.4.1-.1.1-.2.1-.3.2h.3c-.1.1-.2.2-.3.2.1 0 .2.1.4.1-.8.1-.9.1-.9.2.1 0 .2 0 .3.1-.1.1-.1.2-.2.2 0 .1.1.1.1.2 0 0 .1-.1.2-.1-.1 0-.1-.1-.1-.1 0-.1.1-.3.1-.4h.1c0-.2.1-.3.2-.5.1.1.1.2.1.2 0 .1.1.1.2.2h.1s0 0 .1-.1c0 0 0-.1 0-.2h.1c-.1 0-.1 0-.2-.1 0 0 0 0 0-.1h.2c-.2-.2-.1-.3.1-.6v.4s.1-.1.2-.1c0 .2 0 .4.2.6-.1 0-.1.1-.2.1.1 0 .3-.1.4-.1 0 0 0 0 0-.1-.1 0-.2-.1-.2-.1 0-.1.1-.2.1-.3 0 0 0 0 .1-.1-.1-.1-.2-.1-.3-.2h.3c-.1-.2-.1-.5.1-.6.1.3.2.5.3.8-.1 0-.1 0-.2 0 .1 0 .2 0 .4.1-.1.1-.2.1-.3.2h.3c-.1.1-.2.1-.3.2.1 0 .2.1.4.1-.1.1-.2.2-.3.2.1 0 .2.1.3.1-.1.1-.1.2-.2.2.1.1.2.1.4.2 0 0 0 0 0-.1-.1 0-.1-.1-.2-.1.1-.1.1-.2.2-.2 0 0-.1-.1-.1-.1h.2c-.1-.1-.1-.3.2-.4v.2h.4c-.1-.1-.1-.1-.2-.2.1-.1.1-.2.2-.4 0 0-.1-.1-.2-.1h.3c-.2-.2-.1-.4.2-.6v.4s.1-.1.2-.2v.3s0 .1.1.1h.1v-.1s0-.1-.1-.1c.1 0 .2 0 .3-.1-.1-.1-.2-.1-.3-.2 0 0 0 0 0-.1h.3c-.4-.2.1-.5-.1-.7h.3c0 .1-.1.2-.1.3 0-.1.1-.1.1-.2 0 .2.1.4.1.6h-.1c.1 0 .2.1.4.1-.1.1-.2.2-.3.2h.3v.1c-.1.1-.2.1-.3.2.1 0 .2.1.4.1-.1.1-.2.2-.3.3.1 0 .2.1.3.1 0 0 0 0-.1 0v.5h.1c.2.4.1.9.4 1.3-.1 0-.1.1-.2.1.1 0 .1.1.2.1-.1.1-.2.1-.3.2h.3c0 .1 0 .3-.1.3-.2.6-.5.6-.7.8 0-.1 0-.1 0 0zm-5.7-2.4c.1.1.1.1.1.2-.1 0-.1 0-.2 0 .1 0 .3.2.3-.1 0 0-.1 0-.2-.1z" fill="#024c27"/><use fill="none" stroke="#231f20" stroke-miterlimit="10" stroke-width=".25" xlink:href="#p"/><ellipse cx="41.5" cy="94" fill="#efebef" rx="2.5" ry="2.5" stroke="#231f20" stroke-miterlimit="10" stroke-width=".25" transform="matrix(.7071 -.7071 .7071 .7071 -54.3114 56.8727)"/><path d="m29.1 86.5 1.9-1.8c2.5-2.4 5.7-3.7 9.2-3.7h50.8c.4 0 .7-.3.7-.7 0-.4-.3-.7-.7-.7h-51.2c-3.4 0-6.7 1.3-9.2 3.7l-2.4 2.3c-.2.2-.3.5-.1.7.2.4.7.5 1 .2z" fill="#0e2947" stroke="#0fce7c" stroke-miterlimit="10" stroke-width=".25"/><path d="m27.9 91.5c.7 0 1.3-.6 1.3-1.3v-3.5c0-.7-.6-1.3-1.3-1.3-.7 0-1.3.6-1.3 1.3v3.5c0 .8.6 1.3 1.3 1.3z" fill="#60748a" stroke="#231f20" stroke-miterlimit="10" stroke-width=".25"/><path d="m27.2 91.5c.4 0 .7-.3.7-.7v-4.6c0-.4-.3-.7-.7-.7-.4 0-.7.3-.7.7v4.6c0 .4.3.7.7.7z" fill="#fde77a" stroke="#231f20" stroke-miterlimit="10" stroke-width=".25"/><path d="m53.2 84.9v9" fill="none" stroke="#231f20" stroke-miterlimit="10" stroke-width=".25"/><path d="m51.5 82.5h-2.6" fill="none" stroke="#231f20" stroke-miterlimit="10" stroke-width=".25"/><path d="m88.9 82.5h-6" fill="none" stroke="#231f20" stroke-miterlimit="10" stroke-width=".25"/><path d="m92 83.4-58.8-.2" style="fill:none;stroke:#00ff7f;stroke-width:.25;stroke-linecap:round;stroke-linejoin:round;stroke-miterlimit:10"/><path d="m92 84.4-60.2-.2" style="fill:none;stroke:#00ff7f;stroke-width:.25;stroke-linecap:round;stroke-linejoin:round;stroke-miterlimit:10"/><path d="m88.9 85.6h-6" fill="none" stroke="#231f20" stroke-miterlimit="10" stroke-width=".25"/><path d="m46 81.5c.9-.7 1.8-1.5 2.4-2.4.2-.3.1-.7 0-.9-.2-.3-.8-.4-.9-.6 0-.1-.2-.2-.4-.2-.8.1-1.3.7-1.8 1.3-.5.5-.9.9-1.4 1.4s-.9 1.2-1.5 1.7c-.1 0-.2.1-.2.1s-.1.1-.1.1c0 .1-.1.2-.1.2v.4c0 .3.2.6.5.6h.1c0 .2.1.4.4.5 0 .3.1.3.3.3h.1c.1 0 .1 0 .2-.1 1-.5 1.7-1.4 2.4-2.4m.3-2.1c.1-.1.2-.2.4-.3-.1.1-.3.2-.4.3m-3 3.8c-.1-.1-.2-.2-.4-.2 0-.1-.1-.2-.1-.2v-.1c.4-.3.7-.6 1-.9.2.2.4.4.5.6v.1c-.3.1-.7.4-1 .7" fill="#d6d6ea"/><path d="m46.4 79.7 1.7-1.7" fill="#25e899"/><path d="m46.2 79.8c-.1-.1-.1-.2 0-.2l1.7-1.7c.1-.1.2-.1.2 0 .1.1.1.2 0 .2l-1.7 1.7s-.1 0-.2 0" fill="#0e2947"/><path d="m42.7 84-.7-.6c-.4-.4-.4-1 0-1.4l4.4-4.4c.4-.4 1-.4 1.4 0l.6.6c.4.4.4 1 0 1.4l-4.3 4.4c-.4.4-1.1.4-1.4 0zm4.9-6.2c-.3-.3-.7-.3-.9 0l-4.4 4.4c-.3.3-.3.7 0 .9l.6.6c.3.3.7.3.9 0l4.4-4.4c.3-.3.3-.7 0-.9z" fill="#0e2947"/><path d="m42.6 83.9 1.2-1.2" fill="#0e2947"/><path d="m42.5 84c-.1-.1-.1-.1 0-.2l1.2-1.2c.1-.1.1-.1.2 0s.1.1 0 .2l-1.2 1.2s-.1 0-.2 0" fill="#0e2947"/><path d="m41.1 84.7 1-.9c.1-.1.3-.1.5 0l.2.2c.1.1.1.3 0 .5l-1 .9" fill="#eff4ee"/><path d="m41.7 85.5c-.1-.1-.1-.1 0-.2l1-.9c.1-.1.1-.2 0-.3l-.2-.2c-.1-.1-.2-.1-.3 0l-1 .9c-.1.1-.1.1-.2 0s-.1-.1 0-.2l1-.9c.2-.2.5-.2.7 0l.2.2c.2.2.2.5 0 .7l-1 .9c-.1 0-.2 0-.2 0" fill="#0e2947"/><path d="m41.8 85.4c.2-.2.2-.5 0-.7s-.5-.2-.7 0-.2.5 0 .7.5.2.7 0" fill="#25e899"/><path d="m41 85.5c-.2-.2-.2-.6 0-.9.2-.2.6-.2.9 0 .2.2.2.6 0 .9-.3.2-.7.2-.9 0m.7-.7c-.1-.1-.4-.1-.5 0s-.1.4 0 .5.4.1.5 0c.1-.2.1-.4 0-.5" fill="#0e2947"/><path d="m41.6 82.6 1.1 1.3" fill="#0e2947"/><path d="m41.5 82.5h.2l1.1 1.3v.2c-.1 0-.1 0-.2 0l-1.1-1.3c0-.1 0-.1 0-.2" fill="#0e2947"/><path d="m40.9 81 .8 1c.1.1.1.4 0 .5l-.2.2c-.1.1-.4.1-.5 0l-.8-1" fill="#eff4ee"/><path d="m40.1 81.5h.2l.8 1c.1.1.2.1.3 0l.2-.2c.1-.1.1-.2 0-.3l-.8-1c0-.1 0-.1 0-.2h.2l.8 1c.2.2.1.5-.1.7l-.2.2c-.2.2-.5.1-.7-.1l-.8-1c0 .1 0 0 .1-.1" fill="#0e2947"/><path d="m40.2 81.6c.2.2.5.2.7.1.2-.2.2-.5.1-.7-.2-.2-.5-.2-.7-.1-.3.2-.3.5-.1.7" fill="#25e899"/><path d="m40.2 80.8c.3-.2.7-.2.9.1s.2.7-.1.9-.7.2-.9-.1-.2-.6.1-.9m.6.8c.1-.1.2-.3 0-.5-.1-.1-.3-.2-.5 0-.1.1-.2.3 0 .5.1.1.3.1.5 0" fill="#0e2947"/><path d="m41.9 83.2 1.3-1.1" fill="#0e2947"/><path d="m41.8 83.3c0-.1 0-.1 0-.2l1.3-1.1h.2v.2l-1.3 1.1c-.1.1-.2.1-.2 0" fill="#0e2947"/><path d="m40.3 83.9 1-.9c.1-.1.4-.1.5 0l.2.2c.1.1.1.4 0 .5l-1 .9" fill="#eff4ee"/><path d="m40.8 84.8c0-.1 0-.1 0-.2l1-.9c.1-.1.1-.2 0-.3l-.2-.2c-.1-.1-.2-.1-.3 0l-1 .9c-.1 0-.1 0-.2 0 0-.1 0-.1 0-.2l1-.9c.2-.2.5-.1.7.1l.2.2c.2.2.1.5-.1.7l-1 .9c0-.1 0-.1-.1-.1" fill="#0e2947"/><path d="m40.9 84.7c.2-.2.2-.5.1-.7-.2-.2-.5-.2-.7-.1-.2.2-.2.5-.1.7.2.2.5.2.7.1" fill="#25e899"/><path d="m40.1 84.7c-.2-.3-.2-.7.1-.9s.7-.2.9.1.2.7-.1.9-.7.2-.9-.1m.8-.6c-.1-.1-.3-.2-.5 0-.1.1-.2.3 0 .5.1.1.3.2.5 0 .1-.1.1-.4 0-.5" fill="#0e2947"/><path d="m44 83c.3-.3.3-.7 0-1s-.7-.3-1 0-.3.7 0 1c.3.2.8.2 1 0" fill="#25e899"/><path d="m42.9 83.1c-.3-.3-.3-.9 0-1.2s.9-.3 1.2 0 .3.9 0 1.2-.8.3-1.2 0m1-1c-.2-.2-.5-.2-.7 0s-.2.5 0 .7.5.2.7 0 .2-.5 0-.7" fill="#0e2947"/><path d="m47.1 80.7-1.8-1.8c-.1-.1-.1-.2 0-.2.1-.1.2-.1.2 0l1.8 1.8c.1.1.1.2 0 .2 0 .1-.1.1-.2 0" fill="#0e2947"/><path d="m46 81.8-1.8-1.8c-.1-.1-.1-.2 0-.2.1-.1.2-.1.2 0l1.8 1.8c.1.1.1.2 0 .2 0 0-.1 0-.2 0" fill="#0e2947"/><g clip-path="url(#i)"><path d="m53.5 73.3s-.9 2.1-2.9 2c-2.1-.1-4.3-1.6-4.1-3.4l6.1.6.5.3z" fill="#bc690f"/><path d="m47.3 73.9c0 .4.1.7 0 1.1 0 .3.2-.3.2 0 0 .2.2.3.3.5.5.6 1.2 1 1.9 1.3.3.1.7.2 1 0 .1-.1.2-.2.2-.3.3-.4.2-.1.4-.5s.4-.9.5-1.4 0-1-.2-1.4c-.4-.6-1.2-.9-2-.9-.5-.1-1-.1-1.5.1-.3.2-.4.4-.6.7.1.2-.1.4-.2.8z" fill="#0e2947"/><path d="m51 77.1c.1-.1.3-.1.4-.2.1.1 0 .2-.1.3s-.1.2-.1.3.2.1.3.1.1-.2.2-.3.1-.3.2-.4c.1-.3.3-1 .1-1.2s-.6 0-.7.2c-.2.2-.2.4-.3.6 0 .1-.1.2-.1.2 0 .1.1.1.1.2-.1 0-.1.3 0 .2z" fill="#0e2947"/><path d="m52.1 74c-.1-.1.1 0 0 0 0-.1 0-.1 0 0 0-.1 0-.1 0-.1-.1-.2-.1-.3-.1-.5v-.1c0-.3-.1-.6-.3-.9 0-.1-.2-.2-.2-.2-.7-.6-1.7-.8-2.4-.3-.3.1-.5.3-.8.5v.1c.1.1.1.1 0 0-.1 0 .1-.1 0 0 0 0-.1.1-.1.1-.1.1-.1.2 0 .2 0 .2 0 .3-.1.5s-.1.3-.1.3c0 .3 0 .5.2.7.1.1.2.1.3.1.1.1.2.1.3 0s.1-.2.1-.3-.1-.1-.1-.1c-.1-.4 0-.7.1-1.1 0 0 .1 0 .1-.1.1-.1.2-.3.3-.4.2-.1.4-.1.6-.2 0 0 0 .1.1.1 0 .1.1.2.2.2.2 0 .4 0 .5.1h.1c.1.1.3.1.4.2s.2.2.3.3h.1v.3c-.1 0-.1.1-.1.2 0 .2-.1.4-.1.6v.1.1c-.1.2-.2.3-.4.3-.3 0-.4.4-.1.5h.1c0 .2.3.3.5.1.1-.1.1-.1.2-.2v-.1c.1 0 .1-.1.2-.2s.1-.2.1-.3c.1-.2.2-.1.2-.3" fill="#fff"/><path d="m48 74.1 3 1.1.2.2-.4.6-2.9-1.1z" fill="#f276ff"/><path d="m50.1 76.7-2.1-.8c-.2-.1-.4-.3-.3-.5l.2-.4 2.9 1.1-.2.4c0 .1-.3.2-.5.2" fill="#fff"/><path d="m50 76.8-2.1-.8c-.3-.1-.4-.4-.3-.7l.2-.5 3.1 1.1-.2.5c-.1.4-.4.5-.7.4zm-2.1-1.7-.1.4c-.1.2 0 .4.2.4l2.1.8c.2.1.4 0 .4-.2l.1-.4z" fill="#0e2947"/><path d="m49.1 74.5c-.4-.4-.5-.9-.3-1.5.1-.3.3-.6.6-.7.3-.2 1.9.3 2 .7.1.3.1.6 0 1-.2.5-.7.9-1.2.9" fill="#f276ff"/><g fill="#0e2947"><path d="m49 74.5c-.5-.5-.6-1.1-.4-1.6.1-.3.3-.5.5-.7h.1v.1c-.2.2-.4.4-.4.6-.2.5-.1 1 .3 1.4v.1c-.1.1-.1.2-.1.1"/><path d="m50.2 75c-.1 0-.1-.1 0 0-.1-.1 0-.2 0-.2.5-.1.9-.4 1.1-.9.1-.3.1-.6 0-.8 0-.1 0-.1.1-.1s.1 0 .1.1c.1.3.1.6 0 1-.2.4-.7.8-1.3.9z"/><path d="m50.8 76.1-3.1-1 .3-2.2c.4-1.1 1.7-1.7 2.8-1.3s1.7 1.7 1.3 2.8zm-2.8-1.2 2.8 1 1.1-1.6c.4-1-.2-2.1-1.2-2.5s-2.1.1-2.5 1.2z"/><path d="m48.2 72.7c0-.1-.1-.1 0 0-.1-.1-.1-.2 0-.2.7-.4 1.6-.4 2.3-.1s1.3.8 1.7 1.5v.1h-.1c-.3-.6-.9-1.1-1.5-1.4-.9-.3-1.7-.3-2.4.1z"/><path d="m51.2 75.4-3.3-1.2c-.1 0-.1-.1-.1-.1 0-.1.1-.1.1-.1l3.3 1.2c.1 0 .1.1.1.1.1.1 0 .1-.1.1"/></g><path d="m50.9 73.3c-.1.2-.3.3-.5.2s-.3-.3-.2-.5.3-.3.5-.2.3.3.2.5" fill="#fff"/><path d="m51 73.9c0 .1-.1.1-.2.1s-.1-.1-.1-.2.1-.1.2-.1c0 0 .1.1.1.2" fill="#fff"/><path d="m49.4 75.3c-.1 0-.2-.1-.3-.2-.2-.1-.3-.3-.4-.4v-.1h.1c.1.1.2.3.4.4.1.1.3.2.4.2h.2.2c.2 0 .3 0 .5.1 0 0 .1.1 0 .1 0 0-.1.1-.1 0-.1-.1-.2-.1-.4-.1-.1 0-.1 0-.2 0s-.1 0-.2 0-.1 0-.2 0z" fill="#0e2947"/><path d="m50 77.2-2.4-.9c-.1 0-.1-.1-.1-.2s.1-.1.2-.1l2.4.9c.1 0 .1.1.1.2s-.1.1-.2.1z" fill="#f276ff"/><path d="m48.3 75.5h.8v3.6h-.8z" fill="#d6d6ea" transform="matrix(.342 -.9397 .9397 .342 -40.6652 96.5912)"/><path d="m50.3 78.5-3.8-1.4.4-1 3.8 1.4zm-3.4-1.5 3.3 1.2.2-.6-3.3-1.2z" fill="#0e2947"/><path d="m49.5 77.2h.6v1h-.6z" fill="#9393b5" transform="matrix(.342 -.9397 .9397 .342 -40.2622 97.9652)"/><path d="m49.6 72.6c.4 0 .8 0 1.1.2s.6.5.6.9c0 .3-.1.6.1.8.1.1.2.1.2.2.2.2.2.4.2.7 0 .2 0 .5.1.7.2 0 .3-.1.4-.3s0-.3 0-.5c0-.3-.1-.6-.1-1-.1-.6-.1-1.2-.5-1.6-.3-.3-.7-.5-1.2-.5-.4 0-.9.1-1.3.3.2.1.3.2.4.1z" fill="#0e2947"/><path d="m51.6 73.5c.1.3.3.7.2 1s-.2.5-.2.8c0 .5.4 1.1.1 1.6-.1.2-.2.3-.1.5.1.1.2.1.4.1s.2-.2.2-.3.1-.3.2-.4c.1-.2.4-.3.4-.5.1-.2-.1-.4-.1-.6-.1-.3 0-.7 0-1 0-.5 0-1-.2-1.4s-.6-.8-1.1-.9c-.2 0-.7.1-.3.3.2.3.3.4.5.8z" fill="#0e2947"/><path d="m53.5 73.3s-.6-.7-2.3-.7c0 0-.7-.1-2.5.6-.4.1-.8.2-1.2.1-.6-.1-1.2-.4-1.1-1.3 0 0 .9.1 2.3-.1 0 0 1.4-.5 2.8.2.1-.1 1.6.6 2 1.2z" fill="#ff8b00"/><path d="m51.5 71.9-.1-.8s-.1-.2-.4-.3-.6 0-.6 0c-.2-.1-.5-.3-.6-.3s-.4.1-.6.4-.5.7-.5.9 2.8.1 2.8.1z" fill="#eda737"/><path d="m49.8 70.6h.3c.1 0 .3.1.3.2-.2 0-.4 0-.6-.2z" fill="#fbb040"/><path d="m48.9 72s-.5.8-.9.8-1-.2-1.2-.5c-.3-.3 1 .2 2.1-.3z" fill="#fff069" opacity=".35"/><path d="m52 72.4s-1.5-.1-2.3.3c0 0 .2-.5.8-.6.4-.2 1.3.3 1.5.3z" fill="#fff069" opacity=".35"/><path d="m50.5 71.4s-.2-.4-.4-.5-.3-.2-.5-.2c-.1 0-.5.3-.6.8 0 .1 1.1-.1 1.5-.1z" fill="#fff069" opacity=".35"/></g><g clip-path="url(#i)"><use fill="#e61938" xlink:href="#q"/><g clip-path="url(#j)"><path d="m41.9 77.7h.1c.1 0 .1.1.1.2v.1-.1s0 0 0-.1v-.1c0-.1.1-.1.2-.1h.1v.1c0 .1 0 .1-.1.2s-.1.1-.1.1v.1s.1 0 .1-.1c.1 0 .1 0 .2-.1 0 0 .1-.1.1-.1h.1c.1 0 .1 0 .1.1 0 .1.1.2-.2.2h-.1s-.1-.1-.1-.1h-.1s.1.1.1.1v.2s0 .1-.1.1h-.1s-.1-.1-.1-.1v-.1c0-.1 0-.1 0-.2v-.1c0 .1 0 .2-.1.2 0 .1-.1.1-.2.1 0 0 0 0-.1 0 0 0 0 0 0-.1v-.1c0-.1.1-.2.2-.2h.1.1-.1c-.1 0-.1 0-.2 0 0 0 0 0-.1-.1 0-.1 0-.1 0-.1s0 0 0-.1c0 .3.1.2.2.2z" fill="#fabc51"/><g fill="#75b268"><path d="m42.6 77.8c.1-.1.1-.1.1-.1 0-.1 0-.1.1 0-.1 0-.1.1-.2.1.1 0 .1 0 0 0 0 .1.1.1 0 0h.1c0 .1 0 .1-.1 0 0 .1 0 .1 0 0 0 .1-.1.1-.1.1-.1.1-.1.1-.2.2s-.1 0-.1.1 0 0 0-.1h.1c.1-.1.2-.1.3-.3-.1.1-.1.1 0 0-.1 0-.1 0 0 0-.1.1-.1.1 0 0 0 .1 0 .1 0 0z"/><path d="m42.6 77.8c.1 0 .1 0 0 0z"/><path d="m42.6 77.8s0 .1 0 0z"/><path d="m42.6 77.7s0 .1 0 0z"/></g><path d="m42.5 77.5v-.1.1c.1 0 .1 0 0 0 .1 0 .1 0 .1-.1h-.1.1s0 0 .1 0 0 0 0-.1v.1-.1h-.1v.1c0 .1.1.1.1.1s0 0-.1 0v.1c-.2-.1-.2-.1-.1-.1-.1 0 0 0 0 0z" fill="#fff"/><path d="m42.5 77.4c-.1 0-.1 0 0 0z" fill="#75b268"/></g><g clip-path="url(#j)"><path d="m42.8 76.2h.1c.1 0 .1.1.1.2v.1-.1s0 0 0-.1v-.1c0-.1.1-.1.2-.1h.1v.1c0 .1 0 .1-.1.2s-.1.1-.1.1v.1s.1 0 .1-.1c.1 0 .1 0 .2-.1 0 0 .1-.1.1-.1h.1c.1 0 .1 0 .1.1 0 .1.1.2-.2.2h-.1s-.1-.1-.1-.1h-.1s.1.1.1.1v.2s0 .1-.1.1h-.1s-.1-.1-.1-.1v-.1c0-.1 0-.1 0-.2v-.1c0 .1 0 .2-.1.2 0 .1-.1.1-.2.1 0 0 0 0-.1 0 0 0 0 0 0-.1v-.1c0-.1.1-.2.2-.2h.1.1-.1c-.1 0-.1 0-.2 0 0 0 0 0-.1-.1 0-.1 0-.1 0-.1s0 0 0-.1c0 .3.1.2.2.2z" fill="#fabc51"/><g fill="#75b268"><path d="m43.4 76.3c.1 0 .1 0 0 0 .1-.1.1-.1.1-.1 0-.1 0-.1.1 0-.1 0-.1.1-.2.1.1 0 .1 0 0 0 .1.1.1.1 0 0h.1c0 .1 0 .1-.1 0 .1.1 0 .1 0 0 0 .1 0 .1 0 0 0 .1-.1.1-.1.1-.1.1-.1.1-.2.2s-.1 0-.1.1 0 0 0-.1h.1c.1-.1.2-.1.3-.3 0 .1 0 .1 0 0s0 .1 0 0c0 .1 0 .1 0 0z"/><path d="m43.5 76.3s.1 0 0 0c.1 0 .1 0 0 0z"/><path d="m43.4 76.4c.1 0 .1 0 0 0z"/><path d="m43.4 76.3s0 .1 0 0z"/><path d="m43.4 76.2s.1 0 0 0c.1 0 .1 0 0 0 .1 0 .1.1 0 0 .1.1.1.1 0 0 .1.1.1 0 0 0z"/></g><path d="m43.4 76v-.1.1c.1 0 .1 0 .1-.1h-.1.1s0 0 .1 0c0 0 0 0 0-.1v.1-.1h-.1v.1c0 .1.1.1.1.1s0 0-.1 0 0 0 0 0v.1c-.2-.1-.2-.1-.1-.1z" fill="#fff"/><path d="m43.3 75.9s.1 0 0 0c.1 0 .1 0 0 0z" fill="#75b268"/></g><g clip-path="url(#j)"><path d="m41.5 75.4s.1 0 0 0c.1.1.1.2.1.3v.1-.1s0 0 0-.1 0 0 0-.1.1-.1.2-.1h.1v.1c0 .1 0 .1-.1.2s-.1.1-.1.1 0 0-.1 0v.1h.1.2.1.1s.1 0 .1.1c-.1.1 0 .2-.2.2 0 0 0 0-.1 0 0 0-.1-.1-.1-.1s0 0-.1-.1.1.1.1.1v.2s-.1.1-.1.1h-.1s0-.1-.1-.1c0-.1 0-.1 0-.2 0 0 0-.1.1-.1v-.1c0 .1-.1.1-.1.2-.1.1-.2.1-.2 0 0 0 0 0 0-.1 0 0 0 0 0-.1v-.1c0-.1.1-.1.2-.1h.1s-.1-.1-.1-.1c-.1 0-.1 0-.1-.1 0 0 0 0 0-.1 0-.1 0-.1.1-.1h.1c-.3.1-.2.1-.1.1z" fill="#fabc51"/><g fill="#75b268"><path d="m42.1 75.7c.1 0 .1-.1 0 0 .1-.1.1-.1 0 0 .1 0 .1-.1.1-.1 0-.1.1 0 .1 0s-.1 0-.2.1c.1 0 .1 0 0 0 0 .1-.1.1-.1.1-.1 0-.2.1-.2.1h-.1s0 0 0-.1h.1c.1 0 .2 0 .3-.1 0-.1 0-.1 0 0z"/><path d="m42.2 75.7s.1 0 0 0c.1 0 .1 0 0 0z"/><path d="m42.1 75.7s.1 0 0 0c.1 0 .1 0 0 0 .1.1.1.1 0 0 0 .1 0 .1 0 0z"/><path d="m42.1 75.7c0-.1 0-.1 0 0 .1-.1.1-.1 0 0 0-.1 0-.1 0 0 0-.1 0 0 0 0z"/><path d="m42.2 75.6c0-.1 0-.1 0 0z"/></g><path d="m42.2 75.3v-.1.1h.1-.1.1.1s0 0 0-.1-.1.1-.1.1v-.1s0 0-.1 0c0 .1 0 .1.1.1 0 0 0 0-.1-.1s0 0 0 0 0 0-.1 0c-.1.1 0 .1.1.1-.1 0-.1 0 0 0-.1 0-.1.1 0 0 0 .1 0 .1 0 0z" fill="#fff"/><path d="m42.1 75.2c.1 0 .1 0 0 0 .1.1.1.1 0 0z" fill="#75b268"/></g><g clip-path="url(#j)"><path d="m42.9 74.5s0 .1 0 0c.1.1.1.2.1.3v.1-.1s0 0 0-.1 0 0 0-.1.1-.1.2-.1h.1v.1c0 .1 0 .1-.1.2s-.1.1-.1.1 0 0-.1 0v.1h.1.2.1.1s.1 0 .1.1c-.1.1 0 .2-.2.2 0 0 0 0-.1 0 0 0-.1-.1-.1-.1s0 0-.1-.1.1.1.1.1v.2s-.1.1-.1.1h-.1s0-.1-.1-.1c0-.1 0-.1 0-.2 0 0 0-.1.1-.1v-.1c0 .1-.1.1-.1.2-.1.1-.2.1-.2 0 0 0 0 0 0-.1 0 0 0 0 0-.1v-.1c0-.1.1-.1.2-.1h.1s-.1-.1-.1-.1c-.1 0-.1 0-.1-.1 0 0 0 0 0-.1 0-.1 0-.1.1-.1h.1c-.3.1-.2.1-.1.1z" fill="#fabc51"/><g fill="#75b268"><path d="m43.5 74.8c0-.1.1-.1 0 0 .1-.1.1 0 0 0 .1 0 .1-.1.1-.1 0-.1.1 0 .1 0-.1 0-.1 0-.2.1.1 0 .1 0 0 0s.1 0 0 0c.1 0 .1 0 0 0 .1.1.1.1 0 0 0 .1 0 .1 0 0 0 .1-.1.1-.1.1-.1 0-.2.1-.2.1h-.1s0 0 0-.1h.1c.1 0 .1 0 .3-.1-.1 0-.1 0 0 0-.1 0-.1-.1 0 0-.1 0-.1 0 0 0z"/><path d="m43.5 74.8c0-.1 0-.1 0 0 0-.1 0 0 0 0z"/><path d="m43.5 74.7c.1 0 .1 0 0 0z"/></g><path d="m43.5 74.5v-.1.1c.1-.1.1-.1 0 0h.1s0 0 0 0h-.1.1.1s0 0 0-.1-.1.1-.1.1v-.1s0 0-.1 0c0 .1 0 .1.1.1 0 0 0 0-.1-.1s0 0 0 0 0 0-.1 0 0 0 .1.1c-.1 0 0 0 0 0z" fill="#fff"/><path d="m43.5 74.4c0-.1 0-.1 0 0 0-.1.1-.1 0 0 .1-.1.1-.1 0 0z" fill="#75b268"/></g><use style="fill:none;stroke:#0e2947;stroke-width:.1;stroke-linecap:round;stroke-linejoin:round;stroke-miterlimit:10" xlink:href="#q"/><path d="m44.4 76.5-.5 1.3h1.1l.2-1.1z" fill="#e61938"/><use fill="#e61938" xlink:href="#r"/><g clip-path="url(#k)"><path d="m46.9 78.5h.1c.1 0 .1.1.1.2v.1-.1s0 0 0-.1v-.1c0-.1.1-.1.2-.1h.1v.1c0 .1 0 .1-.1.2s-.1.1-.1.1v.1s.1 0 .1-.1c.1 0 .1 0 .2-.1 0 0 .1-.1.1-.1h.1c.1 0 .1 0 .1.1 0 .1.1.2-.2.2h-.1s-.1-.1-.1-.1h-.1s.1.1.1.1v.2s0 .1-.1.1h-.1s-.1-.1-.1-.1v-.1c0-.1 0-.1 0-.2v-.1c0 .1 0 .2-.1.2 0 .1-.1.1-.2.1 0 0 0 0-.1 0 0 0 0 0 0-.1v-.1c0-.1.1-.2.2-.2h.1.1-.1c-.1 0-.1 0-.2 0 0 0 0 0-.1-.1 0-.1 0-.1 0-.1s0 0 0-.1c.1.3.2.2.2.2z" fill="#fabc51"/><g fill="#75b268"><path d="m47.6 78.6c.1 0 .1 0 0 0 .1-.1.1-.1 0 0 .1-.1.1 0 0 0 .1-.1.1-.1.1-.1 0-.1 0-.1.1 0-.1 0-.1 0-.2.1.1 0 .1 0 0 0h.1s0 0-.1 0c.1.1.1.1 0 0 0 .1 0 .1 0 0 0 .1-.1.1-.1.1-.1.1-.1.1-.2.2s-.1 0-.1.1 0 0 0-.1h.1c.1-.1.2-.1.3-.3-.1 0-.1 0 0 0z"/><path d="m47.7 78.6c.1 0 .1 0 0 0z"/><path d="m47.6 78.7s.1 0 0 0c.1 0 .1 0 0 0z"/><path d="m47.6 78.6c0-.1 0-.1 0 0z"/><path d="m47.6 78.5c.1 0 .1 0 0 0 .1.1.1 0 0 0 .1 0 .1 0 0 0z"/></g><path d="m47.6 78.3v-.1.1c0-.1 0-.1 0 0 .1 0 .1 0 .1-.1h-.1.1.1s0 0 0-.1v.1-.1h-.1v.1c0 .1.1.1.1.1s0 0-.1 0v.1c-.3-.1-.2-.1-.1-.1-.1 0-.1 0 0 0z" fill="#fff"/><path d="m47.5 78.2c0-.1.1-.1 0 0 .1 0 .1 0 0 0z" fill="#75b268"/></g><g clip-path="url(#k)"><path d="m47.7 77.3h.1c.1 0 .1 0 .2.1 0 0 .1.1.1.1s-.1-.1-.1-.1 0 0-.1 0 0 0 0-.1c0-.1 0-.1.1-.2s.1-.1.1 0h.1c.1 0 .1.1.1.2v.1.1-.1s.1-.1.1-.2 0-.1.1-.1h.1.1c0 .1.2.1 0 .3 0 0 0 0-.1 0h-.1-.1.2c.1 0 .1.1.1.1v.1.1h-.1s-.1-.1-.1-.1 0-.1-.1-.1c0 0 0 0-.1-.1 0 .1.1.1.1.2s0 .2-.1.2c0 0 0 0-.1 0 0 0 0 0-.1 0 0 0-.1-.1-.1-.1-.1-.1-.1-.2 0-.2s0-.1.1-.1c-.1 0-.1 0-.1.1s-.1.1-.2.1c0 0 0 0-.1 0-.1 0-.1-.1-.1-.1s0 0 0-.1c.1 0 .1-.1.1-.1z" fill="#fabc51"/><g fill="#75b268"><path d="m48.3 76.9c0-.1 0-.1 0 0 0-.1 0-.1 0-.1v-.1c.1.1.1.1 0 .2.1 0 .1 0 0 0 .1-.1.1-.1 0 0h.1s0 0-.1 0c.1 0 .1 0 0 0 .1.1.1.1 0 0v.2c0 .1 0 .2-.1.3v.1s0-.1.1-.1c0-.1 0-.2.1-.3-.1-.1-.1-.1-.1-.2s0 .1 0 0z"/><path d="m48.4 77c0-.1 0-.1 0 0 0-.1 0 0 0 0z"/><path d="m48.3 76.9c0-.1 0-.1 0 0s.1 0 0 0z"/></g><path d="m48.1 76.7c-.1-.1-.1-.1 0 0 0-.1 0-.1 0 0 0-.1.1-.1 0-.1s0 0 0-.1c-.1.1-.1.1 0 .2-.1-.1-.1-.1-.1-.2s0 0 0-.1v.1s-.1-.1-.1-.1v.1h.2-.1s0 0 0 0v.1c0 .2 0 .2.1.1z" fill="#fff"/><path d="m48 76.7s-.1-.1 0 0c0-.1 0-.1 0 0 0-.1 0 0 0 0z" fill="#75b268"/></g><g clip-path="url(#k)"><path d="m44.2 77.3c.1 0 .1.1 0 0 .1.1.1.2.1.3v.1-.1s0 0 0-.1 0 0 0-.1.1-.1.2-.1h.1v.1c0 .1 0 .1-.1.2s-.1.1-.1.1 0 0-.1 0v.1h.1.2.1.1s.1 0 .1.1c-.1.1 0 .2-.2.2 0 0 0 0-.1 0 0 0-.1-.1-.1-.1s0 0-.1-.1.1.1.1.1v.2s-.1.1-.1.1h-.1s0-.1-.1-.1c0-.1 0-.1 0-.2 0 0 0-.1.1-.1v-.1c0 .1-.1.1-.1.2-.1.1-.2.1-.2 0 0 0 0 0 0-.1 0 0 0 0 0-.1v-.1c0-.1.1-.1.2-.1h.1s-.1-.1-.1-.1c-.1 0-.1 0-.1-.1 0 0 0 0 0-.1 0-.1 0-.1.1-.1h.1c-.3.1-.1.1-.1.1z" fill="#fabc51"/><g fill="#75b268"><path d="m44.9 77.6c0-.1 0-.1 0 0 0-.1 0 0 0 0 .1 0 .1-.1.1-.1 0-.1.1 0 .1 0-.1 0-.1 0-.2.1s.1 0 0 0c.1 0 .1.1 0 0 0 .1 0 .1 0 0-.1.1-.1.1 0 0 0 .1 0 .1 0 0 0 .1-.1.1-.1.1-.1 0-.2.1-.2.1h-.1s0 0 0-.1h.1s.1 0 .3-.1c-.1 0-.1 0 0 0-.1 0-.1-.1 0 0-.1 0-.1 0 0 0-.1 0 0 0 0 0z"/><path d="m44.9 77.6s.1 0 0 0c.1 0 .1 0 0 0z"/><path d="m44.9 77.6c-.1-.1-.1-.1 0 0-.1-.1 0-.1 0 0 0-.1 0-.1 0 0 0-.1 0 0 0 0z"/></g><path d="m44.9 77.3v-.1.1c0-.1 0-.1 0 0h.1-.1.1s0 0 .1 0c0 0 0 0 0-.1s-.1.1-.1.1v-.1s0 0-.1 0c0 .1 0 .1.1.1 0 0 0 0-.1-.1s0 0 0 0 0 0-.1 0 0 0 .1.1c-.1 0-.1 0 0 0z" fill="#fff"/><path d="m44.9 77.2c-.1-.1-.1-.1 0 0 0-.1 0-.1 0 0z" fill="#75b268"/></g><g clip-path="url(#k)"><path d="m45.7 77.5s0 .1.1.1c0 .1 0 .1-.1.2 0 0 0 .1-.1.1s.1-.1.1-.1 0 0 0-.1 0 0 .1-.1h.2s.1 0 .1.1v.1c0 .1-.1.1-.2.1h-.1s0 0-.1 0v.1h.1.2.1v.1.1c-.1 0-.1.2-.3.1 0 0 0 0 0-.1v-.1-.1.2c0 .1-.1.1-.1.2h-.1-.1v-.1s0-.1.1-.1c0 0 .1-.1.1-.1s0 0 0-.1c-.1 0-.1.1-.2.1s-.2 0-.2-.1c0 0 0 0 0-.1 0 0 0 0 0-.1 0 0 0-.1.1-.1.1-.1.2-.1.2 0h.1c0-.1 0-.1-.1-.1s-.1-.1-.1-.1 0 0 0-.1c0-.1 0-.1.1-.1h.1c-.1.1 0 .1 0 .2z" fill="#fabc51"/><g fill="#75b268"><path d="m46.2 78h.1.1c-.1 0-.1 0-.2 0 .1.1.1.1 0 0 0 .1 0 .1 0 0 0 .1.1.1 0 0 .1.1 0 .1 0 .1s0 0 0-.1c0 .1 0 .1 0 0-.1.1-.1.1 0 0-.1.1-.1.1-.2.1s-.2 0-.3 0h-.1s0 0 0-.1h.1.3c.1.1.1 0 .2 0-.1 0-.1 0 0 0-.1 0 0 0 0 0-.1 0-.1 0 0 0z"/><path d="m46.2 78.1c.1 0 .1 0 0 0z"/><path d="m46.1 78.1c.1 0 .1 0 0 0z"/><path d="m46.2 78s0 .1 0 0z"/><path d="m46.3 77.9c0 .1 0 .1 0 0z"/></g><path d="m46.3 77.8c.1-.1.1-.1 0 0 .1-.1.1 0 0 0h.1.1c0-.1 0-.1-.2 0 .1-.1.1-.1.1-.1h.1s-.1 0-.1.1c0 0 .1-.1.1-.1s0 0-.1 0v.2s0 0 0-.1 0 0 0 0 0 0-.1 0 0 0 0 0c0-.1 0-.1 0 0 0-.1 0 0 0 0z" fill="#fff"/><path d="m46.4 77.7c0-.1 0-.1 0 0z" fill="#75b268"/></g><use style="fill:none;stroke:#0e2947;stroke-width:.1;stroke-linecap:round;stroke-linejoin:round;stroke-miterlimit:10" xlink:href="#r"/><use fill="#e61938" xlink:href="#s"/><g clip-path="url(#l)"><path d="m44.1 76h2.7" style="fill:none;stroke:#0fce7c;stroke-width:.25;stroke-linecap:round;stroke-linejoin:round;stroke-miterlimit:10"/><path d="m43.6 76.3h3.7v.8h-3.7z" fill="#d6d6ea"/><path d="m47.5 77.3h-4.1v-1.1h4.1zm-3.8-.3h3.6v-.6h-3.6z" fill="#0e2947"/><path d="m46.3 76.4h1v.6h-1z" fill="#9393b5"/></g><path clip-path="url(#l)" d="m43.8 75.6-.5.3.1.2s.5.3.5.5.1.5.1.5.2-1.1-.2-1.5z" fill="#ed1c24"/><path clip-path="url(#l)" d="m47 75.9.2.8h-.5l-.6-.2.2.5.1.6-1.3-.5s-.7-.1-.9-.1z" fill="#ed1c24"/><use style="fill:none;stroke:#0e2947;stroke-width:.1;stroke-linecap:round;stroke-linejoin:round;stroke-miterlimit:10" xlink:href="#s"/></g><path d="m43.7 77.5c.1-.1.2 0 .2.1s-.1.2-.2.1c-.1 0-.1-.1 0-.2" style="fill:#f15a29;stroke:#0e2947;stroke-width:.05;stroke-linecap:round;stroke-linejoin:round;stroke-miterlimit:10;clip-path:url(#i)"/><path d="m48.1 71.9c-.1 0 .1 0 0-.1-.2-.1-.3-.3-.3-.5v-.1c-.1-.4-.4-.7-.7-.8-.1-.1-.2-.1-.3-.1-1.1-.4-2.2-.2-2.9.6-.3.2-.5.5-.7.8 0 0 0 .1-.1.1-.1 0 .1-.1 0 0v.3c-.1.1 0 .2.1.3 0 .2.1.3.1.6v.3c.1.3.3.6.5.7.1.1.2 0 .3 0s.3 0 .4-.1.1-.3-.1-.4c-.1 0-.1-.1-.2-.1-.2-.5-.2-1-.3-1.4 0 0 .1-.1.1-.1 0-.2.1-.4.2-.5.2-.2.4-.3.6-.4 0 0 .1.1.1.1.1.1.2.2.3.1.2-.1.4-.1.6-.1h.2.6c.1.1.3.1.4.2h.1c.1.1.1.2.2.3 0 .1-.1.1 0 .2.1.2.1.5.1.7v.1.1c-.1.2-.1.4-.4.5-.4.1-.3.7.1.6h.1c.1.2.5.2.6-.1 0-.1.1-.2.1-.3 0 0-.1-.1 0-.1s0-.2.1-.3 0-.3 0-.4c0-.2.2-.2.1-.5" fill="#d6d6ea"/><path d="m43.5 73.7h3.9l.3.1-.2.9h-3.7z" fill="#25e899"/><path d="m47 75.8h-2.7c-.3 0-.5-.2-.5-.5v-.5h3.7v.5c0 .2-.2.5-.5.5" fill="#d6d6ea"/><path d="m47 75.9h-2.7c-.4 0-.6-.3-.6-.6v-.7h4v.7c-.1.3-.4.6-.7.6zm-3.1-1.1v.4c0 .2.2.4.4.4h2.7c.2 0 .4-.2.4-.4v-.4z" fill="#0e2947"/><path d="m45 73.7c-.6-.3-1-.8-1-1.5 0-.4.1-.8.4-1.1.3-.4 2.2-.4 2.5 0 .3.3.4.7.4 1.1 0 .7-.4 1.3-1 1.5" fill="#0fce7c"/><path d="m44.9 73.8c-.1 0-.1 0 0 0-.7-.3-1.1-1-1.1-1.7 0-.4.1-.7.3-1 0-.1.1-.1.2 0 .1 0 .1.1 0 .2-.2.3-.3.6-.3.9 0 .6.3 1.2.9 1.4.1 0 .1.1.1.2-.1 0-.1 0-.1 0" fill="#0e2947"/><path d="m46.4 73.8s-.1 0-.1-.1 0-.1.1-.2c.5-.3.9-.8.9-1.4 0-.3-.1-.7-.3-1 0-.1 0-.1 0-.2h.2c.2.3.4.7.4 1.1-.1.9-.5 1.5-1.2 1.8z" fill="#0e2947"/><path d="m47.6 74.8-3.9.2-.6-2.6c0-1.4 1.2-2.6 2.6-2.6s2.6 1.2 2.6 2.6zm-3.7-.2h3.5l.6-2.3c0-1.3-1.1-2.3-2.3-2.3-1.3 0-2.3 1-2.3 2.3z" fill="#0e2947"/><path d="m43.2 72c-.1-.1-.1-.2-.1-.2.7-.7 1.6-1.1 2.6-1.1.9 0 1.8.3 2.5 1 0 0 .1.1 0 .2 0 0-.1.1-.2 0-.6-.6-1.4-.9-2.3-.9s-1.8.4-2.5 1z" fill="#0e2947"/><path d="m47.7 73.8h-4.2c-.1 0-.1-.1-.1-.1 0-.1.1-.1.1-.1h4.2c.1 0 .1.1.1.1.1.1 0 .1-.1.1" fill="#0e2947"/><path d="m46.5 71.7c0 .2-.2.4-.4.4s-.4-.2-.4-.4.2-.4.4-.4c.2-.1.4.1.4.4" fill="#fff"/><path d="m46.8 72.3c0 .1-.1.2-.2.2s-.2-.1-.2-.2.1-.2.2-.2.2.1.2.2" fill="#fff"/><path d="m45.6 74.5c-.1 0-.3 0-.4-.1-.2-.1-.4-.2-.6-.3-.1 0-.1-.1 0-.2 0-.1.1-.1.2 0 .2.1.4.2.5.3.2.1.4.1.5 0 .1 0 .1-.1.2-.1s.1-.1.2-.1c.2-.1.4-.1.6-.1.1 0 .1.1.1.1 0 .1-.1.1-.1.1-.1 0-.3 0-.4 0s-.1.1-.2.1-.1.1-.2.1c-.2.2-.3.2-.4.2z" fill="#0e2947"/><path d="m61.7 75c-.1-.1.1-.1 0 0 0-.1 0-.1 0 0 0-.1 0-.1 0-.1-.1-.1-.2-.2-.3-.4v-.1c-.1-.3-.3-.5-.5-.6-.1-.1-.2-.1-.3-.1-.8-.3-1.7-.2-2.2.5-.2.2-.3.4-.5.6v.1c-.1 0 0 0 0 0v.2.2c0 .2.1.3.1.4v.2c.1.2.2.4.4.6h.2c.1 0 .2 0 .3-.1s0-.2-.1-.3c0 0-.1-.1-.2-.1-.2-.3-.2-.6-.2-1 0 0 0-.1.1-.1 0-.2.1-.3.1-.4.1-.1.3-.2.5-.3 0 0 0 0 .1.1 0 .1.1.1.2.1.2 0 .3-.1.5-.1h.1.4c.1.1.2.1.3.1h.1c0 .1.1.2.1.3 0 0-.1.1 0 .2.1.2.1.4.1.5v.1.1c0 .2-.1.3-.3.4-.3.1-.2.5.1.4h.1c.1.1.4.1.4-.1 0-.1 0-.1.1-.2v-.1c.1 0 0-.1.1-.2s0-.2 0-.3c0-.2.1-.2.1-.3" fill="#d6d6ea"/><path d="m58.2 76.3h3l.2.1-.2.7h-2.8z" fill="#ff7d96"/><path d="m60.8 77.9h-2c-.2 0-.4-.2-.4-.4v-.4h2.8v.4c0 .2-.2.4-.4.4" fill="#d6d6ea"/><path d="m60.8 78h-2c-.3 0-.5-.2-.5-.5v-.5h3v.5c0 .3-.2.5-.5.5zm-2.3-.8v.3c0 .2.1.3.3.3h2c.2 0 .3-.1.3-.3v-.3z" fill="#0e2947"/><path d="m59.3 76.3c-.4-.2-.7-.6-.7-1.1 0-.3.1-.6.3-.8.2-.3 1.5-.7 1.9 0 .2.2.3.5.3.8 0 .5-.3 1-.7 1.1" fill="#ff7d96"/><path d="m59.2 76.4c-.5-.2-.8-.7-.8-1.3 0-.3.1-.5.2-.8 0 0 .1-.1.1 0 0 0 .1.1 0 .1-.1.2-.2.4-.2.7 0 .5.3.9.7 1.1.1.1.1.1 0 .2.1 0 .1 0 0 0" fill="#0e2947"/><path d="m60.4 76.4c-.1 0-.1 0 0 0-.1-.1-.1-.2 0-.2.4-.2.7-.6.7-1.1 0-.3-.1-.5-.2-.7v-.1h.1c.2.2.3.5.3.8-.1.6-.4 1.1-.9 1.3z" fill="#0e2947"/><path d="m61.3 77.2-3 .1-.5-2c0-1.1.9-2 2-2s2 .9 2 2zm-2.8-.2h2.7l.4-1.7c0-1-.8-1.8-1.8-1.8s-1.8.8-1.8 1.8z" fill="#0e2947"/><path d="m61.4 76.4h-3.2c-.1 0-.1 0-.1-.1s0-.1.1-.1h3.2c.1 0 .1.1 0 .2.1 0 .1 0 0 0" fill="#0e2947"/><path d="m60.5 74.8c0 .2-.1.3-.3.3s-.3-.1-.3-.3.1-.3.3-.3.3.1.3.3" fill="#fff"/><path d="m60.7 75.3c0 .1-.1.1-.1.1-.1 0-.1-.1-.1-.1 0-.1.1-.1.1-.1 0-.1.1 0 .1.1" fill="#fff"/><path d="m59.7 76.9c-.4 0-.7-.1-1-.3v-.1h.1c.6.4 1.5.3 2.1-.1h.1v.1c-.5.3-.9.4-1.3.4z" fill="#0e2947"/><path d="m58 75.3s.2 0 1.1-.4c.5-.2.8-.8.8-.8s.9.2 1.2.8.6.5.6.7.1-.5.1-.5l-.6-1.2-1.3-.4-.6.1-.4.2-.6.2-.2.4z" fill="#0e2947"/><path d="m77.8 73.9c-.1-.1 0-.1 0 0 0-.1-.1-.1 0 0 0-.1 0-.1 0-.1-.1-.1-.2-.2-.3-.4v-.1c-.1-.3-.3-.5-.5-.6-.1-.1-.2-.1-.3-.1-.8-.3-1.7-.2-2.2.5-.2.2-.2.4-.4.6 0 0-.1 0-.1.1-.1 0 0-.1 0 0 0 0-.1.2-.1.2v.2c0 .2.1.3.1.4v.2c.1.2.2.4.4.5h.2c.1 0 .2 0 .3-.1s0-.2-.1-.3c0 0-.1-.1-.2-.1-.2-.3-.2-.6-.2-1 0 0 0-.1.1-.1 0-.2.1-.3.1-.4.1-.1.3-.2.5-.3 0 0 0 0 .1.1 0 .1.1.1.2.1.2 0 .3-.1.5-.1h.1.4c.1 0 .2.1.3.1h.1c0 .1.1.2.1.3 0 0-.1.1 0 .2.1.2.1.4.1.5v.1.1c0 .2-.1.3-.3.4-.3.1-.2.5.1.4h.1c.1.1.4.1.4-.1 0-.1 0-.1.1-.2v-.1c.1 0 0-.1.1-.2s0-.2 0-.3c0-.2.1-.2.1-.3" fill="#fff"/><path d="m74.3 75.2h2.9l.3.1-.2.7h-2.8z" fill="#fbb040"/><path d="m76.9 76.7h-2c-.2 0-.4-.2-.4-.4v-.3h2.8v.4c0 .2-.2.3-.4.3" fill="#fff"/><path d="m76.9 76.9h-2c-.3 0-.5-.2-.5-.5v-.5h3v.5c0 .2-.3.5-.5.5zm-2.4-.8v.3c0 .2.1.3.3.3h2c.2 0 .3-.1.3-.3v-.3z" fill="#0e2947"/><path d="m75.3 75.2c-.4-.2-.7-.6-.7-1.1 0-.3.1-.6.3-.8.2-.3 1.7-.3 1.9 0 .2.2.3.5.3.8 0 .5-.3.9-.7 1.1" fill="#fbb040"/><path d="m75.3 75.3c-.5-.2-.8-.7-.8-1.2 0-.3.1-.5.2-.7 0 0 .1-.1.1 0 0 0 .1.1 0 .1-.1.2-.2.4-.2.6 0 .5.3.9.7 1.1.1 0 .1 0 0 .1z" fill="#0e2947"/><path d="m76.4 75.3c-.1-.1-.1-.1 0-.2.4-.2.7-.6.7-1.1 0-.3-.1-.5-.2-.7v-.1h.1c.2.2.3.5.3.8-.1.6-.4 1.1-.9 1.3z" fill="#0e2947"/><path d="m77.3 76.1-3 .1-.5-2c0-1.1.9-1.9 2-1.9s2 .9 2 1.9zm-2.8-.2h2.7l.4-1.7c0-1-.8-1.7-1.8-1.7s-1.8.8-1.8 1.7z" fill="#0e2947"/><path d="m74 74c-.1-.1-.1-.1-.1-.2.5-.5 1.2-.8 1.9-.8s1.3.3 1.9.7v.1h-.1c-.5-.4-1.1-.7-1.7-.7-.7.1-1.3.4-1.9.9z" fill="#0e2947"/><path d="m77.5 75.3h-3.2c-.1 0-.1 0-.1-.1 0 0 0-.1.1-.1h3.2z" fill="#0e2947"/><path d="m76.5 73.7c0 .2-.1.3-.3.3s-.3-.1-.3-.3.1-.3.3-.3.3.1.3.3" fill="#fff"/><path d="m76.8 74.2c0 .1-.1.1-.1.1-.1 0-.1-.1-.1-.1 0-.1.1-.1.1-.1 0-.1.1 0 .1.1" fill="#fff"/><path d="m76.1 75.8c-.4 0-.6-.3-.6-.3s0 0 0-.1h.1s.3.5 1 .2h.1v.1c-.3.1-.4.1-.6.1z" fill="#0e2947"/><path d="m74 74.4c.1 0 .2 0 .2-.1s.1-.2.1-.3.1-.2.2-.2h.2c.1 0 .2-.1.3-.2s.3-.2.4-.2c.2 0 .4.1.4.2 0-.1 0-.2-.1-.3h.1s0 0-.1-.1c.1 0 .3 0 .4.1s.2.1.4.2h.3c.1 0 .3.1.4.2.2.2.4.4.6.7h.1c0-.3 0-.5-.1-.8 0-.1-.1-.2-.2-.3 0 0-.1-.1-.1-.1 0-.1 0-.1-.1-.2 0-.1-.1-.1-.1-.1-.1 0-.1-.1-.1-.1 0-.1 0-.1 0-.2 0 0-.1-.1-.1-.1s0 .1-.1.1c0 0-.1 0-.2 0s-.1-.1-.1-.2-.1-.1-.1-.1c-.1 0-.2 0-.2.1-.1 0-.3 0-.4-.1-.1 0-.2-.1-.3 0-.1 0-.2.1-.2.2v.1c0 .1-.1.1-.2.1s-.3 0-.4 0-.3.1-.3.2v.2c0 .1-.1.1-.2.2-.1 0-.2 0-.2.1-.1 0-.2.1-.2.2s.2.2.1.4c0 .1-.2.2-.2.4-.1-.1 0 0 .1 0 0 0 .1 0 .1-.1" fill="#0e2947"/><path d="m73.9 74c.1 0 .2 0 .2-.1s.1-.2.1-.3.1-.2.2-.2h.2c.1 0 .2-.1.3-.2s.3-.2.4-.2c.2 0 .4.1.4.2 0-.1 0-.2-.1-.3h.1s0 0-.1-.1c.1 0 .3 0 .4.1s.2.1.4.2h.3c.1 0 .3.1.4.2.2.2.4.4.6.7h.1c0-.3 0-.5-.1-.8 0-.1-.1-.2-.2-.3 0 0-.1-.1-.1-.1 0-.1 0-.1-.1-.2 0-.1-.1-.1-.1-.1-.1 0-.1-.1-.1-.1 0-.1 0-.1 0-.2 0 0-.1-.1-.1-.1s0 .1-.1.1c0 0-.1 0-.2 0s-.1-.1-.1-.2-.1-.1-.1-.1c-.1 0-.2 0-.2.1-.1 0-.3 0-.4-.1-.1 0-.2-.1-.3 0-.1 0-.2.1-.2.2v.1c0 .1-.1.1-.2.1s-.3 0-.4 0-.3.1-.3.2v.2c0 .1-.1.1-.2.2-.1 0-.2 0-.2.1-.1 0-.2.1-.2.2s.2.2.1.4c0 .1-.2.2-.2.4 0-.1 0 0 .1 0 0 0 .1 0 .1-.1" fill="#0e2947"/><path d="m74.8 77.1h2.1" style="fill:none;stroke:#fbb040;stroke-width:.15;stroke-linecap:round;stroke-linejoin:round;stroke-miterlimit:10"/><path d="m74.4 77.3h2.7v.4h-2.7z" fill="#d6d6ea"/><path d="m77.2 77.8h-3v-.6h3zm-2.8-.1h2.7v-.3h-2.7z" fill="#0e2947"/><path d="m76.3 77.4h.8v.3h-.8z" fill="#9393b5"/><path d="m69.2 77.6.1-.6h2.6v.7h-2.7z" fill="#d6d6ea" stroke="#0e2947" stroke-miterlimit="10" stroke-width=".15"/><path d="m69.4 76.6h1.7v.3l-1.7-.1z" fill="#0fce7c"/><path d="m70.4 76.7.9.7.5-.1.2-.5-.3-.4-.1-.4.3-.2-.6.1-.6.3z" fill="#d6d6ea" stroke="#0e2947" stroke-miterlimit="10" stroke-width=".15"/><path d="m70.6 76.5s.5.6.8.6.4-.3.1-.7c0 0-.1-.3.1-.5s-.7.1-.7.1z" fill="#0e2947" stroke="#0e2947" stroke-miterlimit="10" stroke-width=".15"/><path d="m71.3 74.7s.2-1-.9-1.3-1.8.6-1.7 1.2.3 1.1 1 1.1l.1.7.5.3s.3-.1.5-.2c.2-.2.4-.4.4-.5 0 0 .2.3.6-.1.1-.2.2-.6.2-.6s-.1-.2-.3-.3c0-.2-.2-.3-.4-.3z" style="fill:#d6d6ea;stroke:#0e2947;stroke-width:.25;stroke-linecap:round;stroke-linejoin:round;stroke-miterlimit:10"/><path d="m70.5 75.5.4-.4h.6v.5l-.6.3-.2-.1z" style="fill:#9393b5;stroke:#0e2947;stroke-width:.1;stroke-linecap:round;stroke-linejoin:round;stroke-miterlimit:10"/><path d="m70.7 75.5.2-.3h.5v.4l-.4.2-.2-.1z" fill="#0e2947"/><path d="m70.1 75s.1-.1.2-.2.2-.1.2-.1-.3.2-.4.3z" fill="#01065b"/><path d="m69.8 75.1c0 .2-.1.3-.3.3s-.4-.1-.4-.3.2-.3.4-.3.3.1.3.3zm0 0c0-.2-.2-.3-.3-.3s-.2.1-.2.3c0 .1.1.2.2.3.2-.1.3-.2.3-.3z" fill="#0e2947"/><path d="m71.2 74.3c0 .2-.1.3-.3.3s-.4-.1-.4-.3.2-.3.4-.3.3.1.3.3zm0 0c0-.2-.2-.3-.3-.3s-.2.1-.2.3c0 .1.1.2.2.3.1-.1.3-.2.3-.3z" fill="#0e2947"/><circle cx="69.5" cy="75.1" fill="#0fce7c" r=".3"/><circle cx="69.5" cy="75" fill="#fff" r=".1"/><circle cx="69.7" cy="75" fill="#fff" r="0"/><circle cx="70.9" cy="74.3" fill="#0fce7c" r=".3"/><circle cx="70.8" cy="74.2" fill="#fff" r=".1"/><circle cx="71.1" cy="74.3" fill="#fff" r="0"/><path d="m71.6 76.7v.2c-.1.1-.2.2-.3.2-.2 0-.2-.1-.3-.2s-.1-.1-.1-.2c-.1-.1-.1-.2.1-.2s.2 0 .3.1c.1 0 0-.1 0-.2s.1-.1.2 0 .1.3.1.3z" fill="#e61938"/><path d="m67.9 77.3s0 1.2.1 1.4.2.3.3.3.6.1.8 0 .3-.5.3-.7-.5-1.3-.5-1.3-.6 0-1 .3z" style="fill:#d6d6ea;stroke:#0e2947;stroke-width:.15;stroke-linecap:round;stroke-linejoin:round;stroke-miterlimit:10"/><path d="m73.3 77.3s.1 1.3.1 1.4-.2.3-.4.3c-.1 0-.7.1-.8.1 0-.1-.4-.4-.4-.6s.4-1.3.4-1.3.7-.3 1.1.1z" style="fill:#d6d6ea;stroke:#0e2947;stroke-width:.15;stroke-linecap:round;stroke-linejoin:round;stroke-miterlimit:10"/><path d="m69 75.2-1.3-1.7" style="fill:none;stroke:#0e2947;stroke-width:.25;stroke-linecap:round;stroke-linejoin:round;stroke-miterlimit:10"/><path d="m71.2 73.9-1.1-1.7" style="fill:none;stroke:#0e2947;stroke-width:.25;stroke-linecap:round;stroke-linejoin:round;stroke-miterlimit:10"/><path d="m69.3 77.6.1-.5h.7v.5z" fill="#9393b5"/><path d="m43.1 72s.8-.8 1.5-1c.5-.2 1.4-.3 2 0 .3.1 1.5.9 1.6 1s-.5-2.1-2.1-2.2c-1.1-.1-2 0-2.5.8-.2.4-.5 1.4-.5 1.4z" style="fill:#f15a29;stroke:#0e2947;stroke-width:.1;stroke-linecap:round;stroke-linejoin:round;stroke-miterlimit:10"/><path d="m44.9 70.9v-.5h1.4v.5z" style="fill:none;stroke:#0e2947;stroke-width:.25;stroke-linecap:round;stroke-linejoin:round;stroke-miterlimit:10"/><path d="m42.8 73.7s.4-.6.3-1.2c0 0-.3.8-.3 1-.1.2-.2.6-.2.6z" fill="#fff" stroke="#231f20" stroke-miterlimit="10" stroke-width=".1"/><path d="m43.2 72.3s-.6 1.6-.6 1.9c0 .2.2.8 1.1.7l-.1-1.2z" style="fill:#f15a29;stroke:#0e2947;stroke-width:.25;stroke-linecap:round;stroke-linejoin:round;stroke-miterlimit:10"/><path d="m46.3 70.7.1.3s-1.6.1-1.7.1-.1-.3.1-.3 1.5-.1 1.5-.1z" style="fill:#f15a29;stroke:#0e2947;stroke-width:.1;stroke-linecap:round;stroke-linejoin:round;stroke-miterlimit:10"/><circle cx="45" cy="71" fill="#be1e2d" r=".1"/><path d="m87.9 72.1c-.4-.1-.8 0-1.2 0-.9 0-1.8.1-2.6.2-.3 0-.3.5 0 .5.9 0 1.8.1 2.6.1.4 0 .7.1 1.2 0 0 0 .2 0 .4-.2s.1-.5-.4-.6z" fill="#0fce7c" stroke="#0e2947" stroke-miterlimit="10" stroke-width=".15"/><path d="m87.5 71.2c-.7.1-1.4 0-2.1 0-.6 0-1.3.1-1.9 0-.3 0-.2-.4 0-.5.6-.2 1.3-.1 1.9-.1.7 0 1.4 0 2.1.1.3 0 .3.4 0 .5z" fill="#0fce7c" stroke="#0e2947" stroke-miterlimit="10" stroke-width=".15"/><path d="m88 74.3c-.6.1-1.2 0-1.8 0s-1.1.1-1.7 0c-.3 0-.4-.4-.1-.5.5-.2 1-.1 1.5-.1.7 0 1.4 0 2 .1.4 0 .4.4.1.5z" fill="#0fce7c" stroke="#0e2947" stroke-miterlimit="10" stroke-width=".15"/><path d="m88.3 77.3c-.6.1-1.2 0-1.8 0s-1.1.1-1.7 0c-.3 0-.4-.4-.1-.5.5-.2 1-.1 1.5-.1.7 0 1.4 0 2 .1.4.1.4.5.1.5z" fill="#0fce7c" stroke="#0e2947" stroke-miterlimit="10" stroke-width=".15"/><path d="m88.3 75.8c-.6.1-1.2 0-1.8 0s-1.1.1-1.7 0c-.3 0-.4-.4-.1-.5.5-.2 1-.1 1.5-.1.7 0 1.4 0 2 .1.3 0 .4.4.1.5z" fill="#0fce7c" stroke="#0e2947" stroke-miterlimit="10" stroke-width=".15"/><path d="m55.5 10.8-46.1 26.6v53.9l46.4 26.8 45.7-27.6v-53.1zm44.3 78.7-43.9 26.5-44.5-25.8v-51.8l44.2-25.4 44.2 25.5z" fill="#e6e7e8"/><path d="m66.6 117.2 1.6-.9.1.1c.2.3.3.6.3.8v.8c-.1.6-.5 1.1-1 1.4s-1.1.4-1.7.2-1.1-.5-1.4-1.1c-.3-.5-.4-1.1-.2-1.7s.5-1.1 1.1-1.4c.3-.2.6-.3.9-.3s.7 0 1.1.2l-.2.6c-.5-.2-1-.2-1.5 0-.4.2-.7.6-.8 1s-.1.8.2 1.3c.2.4.6.7 1.1.8.4.1.8 0 1.1-.2s.5-.4.6-.7.1-.6 0-.9l-.9.5z" fill="#15003e"/><path d="m70.2 112.8h.7v4.4h-.7z" fill="#15003e" transform="matrix(.8665 -.4992 .4992 .8665 -48.0055 50.572)"/><path d="m73.3 111.6 1.9 3.3-.6.3-1.9-3.2-.8.5-.3-.6 2.3-1.3.3.5z" fill="#15003e"/><path d="m78.5 108.2.4.7c-.5-.1-.9 0-1.3.2s-.6.6-.7 1 0 .9.2 1.3.6.7 1 .8.8.1 1.2-.2c.2-.1.4-.2.5-.4.1-.1.1-.2.2-.3s.1-.2.2-.4l.4.7c-.2.4-.5.7-.9.9-.5.3-1.1.4-1.7.2s-1.1-.5-1.4-1-.4-1-.3-1.6c.1-.7.5-1.2 1.1-1.6.3-.2.6-.3 1.1-.3" fill="#15003e"/><path d="m81.2 108c-.3-.5-.4-1.1-.2-1.7s.5-1.1 1.1-1.4c.5-.3 1.1-.4 1.7-.2s1.1.5 1.4 1.1c.3.5.4 1.1.2 1.7s-.5 1.1-1.1 1.4c-.5.3-1 .4-1.6.3-.6-.2-1.1-.5-1.5-1.2m.6-.3c.2.4.6.7 1 .8s.8.1 1.2-.2c.4-.2.7-.6.8-1s.1-.9-.2-1.3c-.2-.4-.6-.7-1-.8s-.8-.1-1.2.2c-.4.2-.6.6-.8 1-.1.5 0 .9.2 1.3" fill="#fff"/><path d="m87.2 103.1h.7v4.4h-.7z" fill="#15003e" transform="matrix(.8663 -.4995 .4995 .8663 -40.874 57.7872)"/><path d="m91.1 105.7-2.3-4 4.4 1.3-1.5-2.7.6-.3 2.3 4-4.4-1.3 1.5 2.7z" fill="#15003e"/><path d="m73 93.3s-.1-.1 0-.1l.3-.6s.1-.1.1 0 .1.1 0 .1l-.3.6s-.1.1-.1 0z" fill="#01065b"/><path d="m72.1 95.1c-.6-.3-.9-1.1-.5-1.8.3-.6 1.1-.9 1.8-.5.3.2.5.4.6.8v.1l-.5.1-.1-.2.3-.1c-.1-.2-.3-.4-.5-.5-.5-.3-1.2-.1-1.5.4s-.1 1.2.4 1.5" fill="#01065b"/><path d="m73 94.9-.1-.2c.2-.1.3-.2.4-.3.1-.2.1-.4 0-.5v-.1h.1v.1h.1c.1.2.1.5-.1.7 0 0-.2.2-.4.3" fill="#48b978"/><path d="m72.8 93.9c-.1 0-.2 0-.2.1s0 .2.1.2.2 0 .2-.1-.1-.2-.1-.2m-.3.4c-.2-.1-.3-.3-.2-.5s.3-.3.5-.2.3.3.2.5c-.1.3-.3.3-.5.2" fill="#01065b"/><path d="m72.9 93.8.9-.2.1.2-.9.2zm.1 1.8-.9-.5.1-.2.7.4.1-.2-.4-.8.2-.1.4.9z" fill="#01065b"/><path d="m74.3 93.3h.1v.1h-.1zm.4-.6c.1 0 .1.1 0 0 0 .1 0 .1-.1.1s0 0 .1-.1c-.1 0 0 0 0 0" fill="#62c08c"/><path d="m72.6 93.2v-.1l.4-.7s.1-.1.1 0v.1l-.5.7s0 .1 0 0" fill="#01065b"/><path d="m41.6 93.3s-.1-.1 0-.1l.3-.6s.1-.1.1 0 .1.1 0 .1l-.3.6z" fill="#01065b"/><path d="m40.9 95.2c-.7-.3-1-1-.7-1.7s1-1 1.7-.7c.3.1.6.4.7.7v.1l-.5.2-.1-.2.2-.1c-.1-.2-.3-.4-.5-.5-.6-.2-1.2 0-1.4.6-.2.5 0 1.2.6 1.4" fill="#01065b"/><path d="m41.7 94.9-.1-.2c.2-.1.3-.2.4-.4s.1-.4 0-.5v-.1h.1v.1h.1c.1.2.1.5 0 .7-.1.1-.3.3-.5.4" fill="#48b978"/><path d="m41.4 93.9c-.1 0-.2 0-.2.1s0 .2.1.2.2 0 .2-.1 0-.2-.1-.2m-.2.5c-.2-.1-.3-.3-.2-.5s.3-.3.5-.2.3.3.2.5-.3.2-.5.2" fill="#01065b"/><path d="m41.5 93.8.9-.3.1.2-.9.3zm.3 1.8-.9-.4.1-.2.7.3.1-.2-.5-.8.2-.1.5.9z" fill="#01065b"/><path d="m42.9 93.1.1-.1.1.1-.1.1zm.3-.6c.1 0 .1.1 0 0 0 .1 0 .1-.1.1s0 0 .1-.1z" fill="#62c08c"/><path d="m41.1 93.3.3-.9s.1-.1.1 0c0 0 .1.1 0 .1l-.4.8c.1 0 .1 0 0 0" fill="#01065b"/></svg>