<?xml version="1.0" encoding="utf-8"?>
<!-- Generator: Adobe Illustrator 21.0.2, SVG Export Plug-In . SVG Version: 6.00 Build 0)  -->
<svg version="1.1" id="Layer_1" xmlns="http://www.w3.org/2000/svg" xmlns:xlink="http://www.w3.org/1999/xlink" x="0px" y="0px"
	 viewBox="0 0 110.875 128.0417" style="enable-background:new 0 0 110.875 128.0417;" xml:space="preserve">
<style type="text/css">
	.st0{fill:#F9006C;}
	.st1{fill:#FFFFFF;}
	.st2{opacity:0.13;enable-background:new    ;}
	.st3{opacity:0.29;fill:#F9006C;}
	.st4{fill:#15003E;}
	.st5{clip-path:url(#SVGID_2_);}
	.st6{fill:#25E899;}
	.st7{fill:#EFF4EE;}
	.st8{fill:#FFFFFF;filter:url(#Adobe_OpacityMaskFilter);}
	.st9{mask:url(#mask0_1_);}
	.st10{fill:#0FCE7C;}
</style>
<g id="Layer_63_36_">
	<polygon class="st0" points="110.8765,32.011 110.8765,96.011 55.4566,128.011 11.1066,102.411 10.9066,102.291 0.0266,96.011 
		0.0266,32.011 55.4566,0.011 	"/>
</g>
<path class="st1" d="M101.9649,37.631v53.14l-0.01,0.0099l-1.09,0.6201l-0.33,0.1899l-0.13,0.07l-0.88,0.51l-3.14,1.81l-0.2,0.12
	l-1.93,1.11l-0.16,0.09l-1.48,0.86l-0.47,0.27l-0.14,0.08l-0.47,0.27l-0.24,0.13l-0.03,0.01l-0.1,0.04l-0.11,0.0699l-3.03,1.7401
	l-0.82,0.47l-1.05,0.6l-0.04,0.03l-1.23,0.71l-0.45,0.2599l-0.02,0.02h-0.01l-1.54,0.89l-0.87,0.52l-1.26,0.72l-0.05,0.03
	l-0.07,0.04l-0.08,0.05l-0.41,0.24l-0.03,0.01l-0.05,0.03l-0.05,0.02l-0.06,0.04v0.01l-0.78,0.45l-0.18,0.09l-0.02,0.02l-0.04,0.02
	l-1.01,0.58l-0.14,0.08l-0.15,0.09l-0.05,0.03l-0.32,0.18l-0.24,0.14h-0.01l-0.07,0.04l-0.64,0.38l-0.2,0.12l-0.33,0.19l-0.25,0.14
	c0,0.01-0.01,0.01-0.01,0.01l-0.47,0.27l-0.42,0.24l-0.04,0.03l-0.57,0.33l-2.33,1.34l-0.63,0.36l-0.06,0.03l-3.5,2.03l-0.02,0.0099
	l-0.0099,0.01l-0.4,0.23l-0.35,0.2l-0.5,0.29l-0.14,0.08l-1.25,0.72l-0.98,0.57l-0.39,0.22l-0.01,0.01l-0.43,0.25l-0.4,0.23
	l-2.36,1.36l-0.36,0.21l-0.04,0.02l-0.18,0.1l-0.5,0.29l-1.87,1.08l-0.56,0.32h-0.01l-0.32,0.19l-0.48,0.28l-0.14-0.08l-1.28-0.74
	l-0.85-0.49l-0.03-0.01l-0.91-0.53l-0.17-0.1l-0.05-0.03l-0.61-0.35l-0.17-0.1l-3.36-1.94l-0.04-0.03l-2.07-1.19l-4.75-2.76
	l-0.61-0.35l-0.69-0.39l-0.93-0.54l-0.22-0.12l-0.09-0.06l-0.03-0.02l-2.23-1.29l-1.22-0.71l-0.37-0.21l-0.39-0.22l-0.23-0.13
	l-0.26-0.15l-0.24-0.15l-0.09-0.05l-0.35-0.2l-0.08-0.05l-0.08-0.04l-0.04-0.03l-1.3-0.74l-0.05-0.03l-0.15-0.08l-0.37-0.22
	l-1.71-0.99l-2.51-1.46l-2.09-1.2l-0.82-0.47l-0.09-0.05l-0.5-0.29l-0.01-0.01l-0.21-0.12h-0.0099l-1.04-0.6
	c-0.01-0.01-0.01-0.01-0.02-0.01l-1.86-1.08l-1.02-0.59l-1.33-0.77l-0.72-0.43l-0.04-0.02l-0.02-0.01l-0.29-0.17
	c0,0-0.01,0-0.02-0.01l-0.26-0.15l-0.02-0.01l-3.3-1.9l-3.41-1.97l-0.09-0.05l-0.08-0.04l-0.03-0.02v-53.14l5.66-3.26l0.77-0.46
	h0.01l0.25-0.14l0.58-0.33l1.75-1.01l2.27-1.31l0.82-0.48l0.15-0.09l2.07-1.19l0.98-0.57l1.01-0.59l0.42-0.24l0.45-0.26l0.25-0.14
	c0.01,0,0.01,0,0.01,0l0.57-0.33l3.23-1.86l1.58-0.92l0.17-0.09l1.66-0.95l0.78-0.45l0.38-0.22l0.44-0.26l1.1-0.65l0.52-0.3
	l2.28-1.3l0.69-0.41l1.4-0.8h0.01l0.05-0.03l5.72-3.3l0.19-0.11l0.27-0.16l6.07-3.51l1.44-0.83l1.06,0.62l6.4901,3.75l2.6,1.5
	l3.95,2.28l1.34,0.77l6.64,3.83l1.04,0.61l2.3,1.31l0.87,0.5l1.52,0.88l1.37,0.79l0.8,0.46l0.09,0.06l1.81,1.04l3.78,2.18l0.04,0.03
	v0.01l0.26,0.14l0.26,0.16l0.4,0.23l0.92,0.53l0.54,0.31l0.02,0.01l1.92,1.11l0.78,0.44l0.4399,0.25l1.94,1.12L101.9649,37.631z"/>
<g id="Layer_2_36_">
	<g id="Layer_16_36_">
		<path class="st2" d="M96.8399,34.6676l-0.53-0.3l-0.72-0.42l-0.77-0.45l-0.11-0.06l-0.49-0.28l-0.51-0.29l-0.9-0.52l-7.25-4.18
			l-1.71-0.98l-0.72-0.42l-0.45-0.26l-0.49-0.29l-0.05-0.02l-0.42-0.25l-0.41-0.24l-5.33-3.07l-19.5-11.24l-0.53-0.31l-0.47,0.27
			l-17.11,9.88l-5.02,2.9l-1.3,0.75l-0.53,0.31l-0.1,0.05c-0.01,0-0.01,0-0.01,0l-0.25,0.15l-0.42,0.25l-0.3,0.17l-0.27,0.16
			l-0.18,0.1l-1.5,0.87h-0.01l-1.78,1.02l-0.0099,0.01l-0.58,0.34l-0.76,0.43l-0.01,0.0099l-0.03,0.02l-3.25,1.87h-0.01l-2.38,1.37
			l-1,0.58l-2.98,1.72l-4.23,2.4399l-1.54,0.89v53.12l0.07,0.04l1.72,1l0.75,0.43l0.15,0.08l4.32,2.5l0.69,0.39l4,2.32l0.46,0.26
			l1.3,0.75l3.3799,1.95l5.38,3.1l0.69,0.4l0.07,0.04l0.15,0.08l0.11,0.07l0.18,0.1l0.04,0.02l1.91,1.11l0.88,0.5l1.33,0.78
			l0.89,0.5099l0.1801,0.1l0.31,0.18l0.19,0.11l0.48,0.28l3.57,2.05l0.09,0.05l0.44,0.26l0.62,0.36l0.72,0.42c0.01,0,0.01,0,0.01,0
			l0.53,0.3l1.51,0.87l3.17,1.84l4.48,2.58l1.03,0.6l0.23,0.13l0.02-0.0099l0.19-0.11l0.14-0.08l0.03-0.02l0.31-0.18l1.81-1.03
			l0.09-0.05l0.69-0.4l0.5-0.29l0.24-0.14l3.85-2.22l2.45-1.41l0.74-0.43l0.66-0.38l0.67-0.39l0.44-0.26l2.33-1.34l0.39-0.22h0.0099
			l0.23-0.14l0.21-0.12l0.63-0.36l0.8-0.46l1.2599-0.73l0.46-0.27h0.01l0.46-0.27l0.0099-0.01l0.25-0.14l0.53-0.31l0.37-0.21
			l0.35-0.21l0.55-0.31l0.21-0.13l0.32-0.18l0.43-0.24l0.02-0.01l0.05-0.03l0.13-0.08l0.24-0.13l3.78-2.18l0.38-0.22l1.11-0.65
			l2.97-1.71l1.56-0.9l8.53-4.92h0.01l0.06-0.04l2.65-1.53l0.9-0.52l1.03-0.59v-53.12L96.8399,34.6676z M100.1399,89.6976l-0.52,0.3
			l-0.32,0.18l-0.58,0.34l-7.59,4.38l-4.67,2.69l-3.12,1.8l-1.28,0.7401l-0.72,0.41l-2.93,1.69l-0.07,0.05l-0.16,0.09l-0.18,0.11
			l-0.57,0.32l-0.89,0.51l-0.22,0.13l-0.05,0.03l-0.81,0.47l-0.09,0.05l-3.91,2.25l-0.08,0.05l-0.79,0.45l-0.08,0.05l-0.91,0.53
			l-2.15,1.24l-1.54,0.89l-1.68,0.97l-1.1,0.63l-2.97,1.72l-1.23,0.71l-0.06,0.04h-0.02l-0.75,0.44l-0.28,0.15l-1.8701,1.08
			l-3.45-1.9901l-1.23-0.71l-0.61-0.35l-1.81-1.05l-0.72-0.41l-0.69-0.4l-5.26-3.03l-0.77-0.45l-0.05-0.03l-1.79-1.03l-2.0601-1.18
			l-0.9-0.52l-0.58-0.34l-0.25-0.15l-0.43-0.25l-0.21-0.12l-1.75-1.01l-0.31-0.18l-0.19-0.11l-1.5-0.8701l-3.42-1.97l-3.91-2.26
			l-1.76-1.01l-3.42-1.97l-4.91-2.84l-0.9-0.51l-0.39-0.23l-0.23-0.13l-0.67-0.39v-50.97l3.91-2.26l2.98-1.72l0.93-0.54h0.01
			l0.06-0.04l3.2-1.85h0.01l1.36-0.79h0.01l1.79-1.03l1.25-0.72l0.43-0.25h0.01l0.76-0.44l0.46-0.27h0.01l2.98-1.72
			c0.0099-0.01,0.0099-0.01,0.02-0.01l0.78-0.45l0.35-0.2l0.2-0.12l0.29-0.17l0.17-0.1l0.27-0.15l0.04-0.02l8.03-4.64l13.39-7.73
			l0.47-0.27l0.53,0.31l16.83,9.71l6.98,4.03l0.05,0.03l0.32,0.18l0.11,0.06l0.44,0.26l0.35,0.2l1.23,0.71l1.94,1.12l7.02,4.04
			l1.41,0.81l0.55,0.32l0.04,0.03l0.77,0.44l0.19,0.11l0.54,0.31l0.53,0.31l4.36,2.51V89.6976z"/>
	</g>
</g>
<rect x="17.0755" y="43.1105" class="st3" width="50.75" height="17.5"/>
<rect x="42.7421" y="68.9438" class="st3" width="50.75" height="17.5"/>
<g>
	<path class="st4" d="M69.5422,115.0858l1.5654-0.8994l0.0713,0.1231c0.1651,0.2851,0.2754,0.5586,0.336,0.8144
		c0.0498,0.2412,0.0488,0.4951-0.0049,0.7617c-0.1241,0.5977-0.4571,1.0518-1,1.3653c-0.5303,0.3047-1.0938,0.375-1.6924,0.2099
		c-0.5996-0.167-1.0537-0.5205-1.3633-1.0586c-0.3164-0.5498-0.3926-1.1259-0.2285-1.7304s0.5205-1.0664,1.0723-1.3848
		c0.2959-0.1699,0.6074-0.2686,0.9335-0.2959c0.3135-0.0215,0.669,0.0361,1.0616,0.1699l-0.1836,0.626
		c-0.5488-0.2353-1.0469-0.2246-1.4922,0.0322c-0.4024,0.2305-0.6582,0.5616-0.7705,0.9961
		c-0.1153,0.4268-0.0547,0.8457,0.1806,1.2549c0.2422,0.4229,0.5928,0.6826,1.0528,0.7813c0.4297,0.0898,0.8086,0.04,1.1416-0.1504
		c0.2803-0.1612,0.4775-0.4004,0.5928-0.7188c0.1132-0.3203,0.1084-0.6191-0.0176-0.9023l-0.9463,0.5439L69.5422,115.0858z"/>
	
		<rect x="73.1341" y="110.7536" transform="matrix(0.8665 -0.4992 0.4992 0.8665 -46.5706 51.7513)" class="st4" width="0.6595" height="4.3716"/>
	<polygon class="st4" points="76.2316,109.535 78.1018,112.787 77.5315,113.1151 75.6604,109.8651 74.7893,110.3661 
		74.4797,109.829 76.7902,108.4989 77.0988,109.036 	"/>
	<path class="st4" d="M81.3899,106.121l0.3886,0.6767c-0.4902-0.0869-0.9121-0.0283-1.2646,0.1748
		c-0.3887,0.2247-0.6377,0.5538-0.7432,0.9854c-0.1084,0.4326-0.0459,0.8506,0.1856,1.2529
		c0.2275,0.3975,0.5566,0.6563,0.9814,0.7754c0.4258,0.1182,0.832,0.0655,1.2236-0.1582c0.1993-0.1162,0.3526-0.2471,0.4551-0.3935
		c0.0596-0.0782,0.1162-0.168,0.168-0.2725c0.0517-0.1045,0.1025-0.2227,0.1504-0.3555l0.3974,0.6905
		c-0.2197,0.375-0.5117,0.665-0.8711,0.873c-0.541,0.3115-1.1113,0.3867-1.7109,0.2305c-0.6016-0.1621-1.0566-0.5117-1.3672-1.0498
		c-0.2773-0.4824-0.3633-1.0049-0.2627-1.5664c0.124-0.6895,0.501-1.2129,1.124-1.5713
		C80.5842,106.2167,80.966,106.119,81.3899,106.121"/>
	<path class="st1" d="M84.1613,105.9511c-0.3066-0.5332-0.374-1.1036-0.2041-1.71c0.17-0.6074,0.5274-1.0684,1.0733-1.3838
		c0.54-0.3096,1.1142-0.3828,1.7217-0.2197c0.6113,0.1641,1.0712,0.5156,1.3828,1.0566c0.3125,0.544,0.3857,1.1192,0.2138,1.7227
		c-0.1718,0.6055-0.5341,1.0683-1.0869,1.3857c-0.4892,0.2832-1.0263,0.3643-1.6103,0.251
		C85.007,106.9267,84.5109,106.5585,84.1613,105.9511 M84.7404,105.6259c0.2412,0.4179,0.5801,0.6816,1.0166,0.789
		c0.4346,0.1084,0.836,0.0576,1.2032-0.1533c0.3974-0.2285,0.6533-0.5586,0.7695-0.9902c0.1123-0.4356,0.0557-0.8526-0.1758-1.251
		c-0.2324-0.4043-0.5615-0.665-0.9883-0.7822c-0.4267-0.1211-0.8388-0.0674-1.2343,0.1611
		c-0.3946,0.2275-0.6475,0.5557-0.7608,0.9863C84.4553,104.8143,84.5119,105.2274,84.7404,105.6259"/>
	
		<rect x="90.1167" y="100.9767" transform="matrix(0.8663 -0.4995 0.4995 0.8663 -39.4383 58.9703)" class="st4" width="0.6597" height="4.3706"/>
	<polygon class="st4" points="94.0422,103.6142 91.7131,99.5673 96.1408,100.8681 94.6252,98.2343 95.1955,97.9061 97.51,101.9267 
		93.0861,100.6327 94.6135,103.285 	"/>
</g>
<g>
	<path class="st0" d="M29.7638,57.6613v0.0052l0.0001,0.0053c0.1224,5.8433,1.038,9.4703,2.7949,12.1408
		c1.7182,2.6116,4.2056,4.2473,7.3227,6.1563c0.2477,1.1745,0.7146,2.949,1.222,4.8764c0.1144,0.435,0.2309,0.8775,0.3474,1.3229
		c0.6699,2.5605,1.3419,5.2173,1.6548,7.0779c0.1447,0.8604,0.181,1.7167,0.2174,2.5715c0.002,0.0463,0.0039,0.0925,0.0059,0.1388
		c0.038,0.8862,0.0823,1.7821,0.2748,2.6075c0.1952,0.8371,0.5474,1.6251,1.2144,2.2916c0.664,0.6636,1.604,1.1709,2.9145,1.5128
		c0.2565,0.0669,0.6975,0.1164,1.2322,0.1568c0.5494,0.0414,1.2396,0.0759,2.0207,0.1036c1.5627,0.0553,3.5031,0.0838,5.4361,0.0847
		c1.9329,0.0009,3.8632-0.0256,5.4055-0.0805c0.7708-0.0275,1.4486-0.0621,1.9833-0.1043c0.5153-0.0407,0.948-0.0916,1.1932-0.1652
		c1.1589-0.3477,2.0213-0.7539,2.6535-1.2798c0.6447-0.5362,1.0223-1.1736,1.249-1.9271c0.2211-0.7352,0.2992-1.5851,0.3548-2.5467
		c0.0161-0.2769,0.0302-0.564,0.045-0.8633c0.037-0.749,0.0777-1.5743,0.1606-2.5078c0.724-3.3284,1.0254-4.445,3.3439-13.0297
		l0.0691-0.2559c0.0689-0.0516,0.1617-0.1213,0.274-0.2062c0.2574-0.1946,0.6177-0.4697,1.0301-0.7922
		c0.8109-0.6338,1.8311-1.4564,2.6666-2.211c4.7015-2.8136,6.3588-8.6887,6.0601-14.5895
		c-0.2995-5.9143-2.5667-12.0606-5.9703-15.6073c-6.5453-9.5411-17.897-11.8013-27.6129-9.5223
		C39.0651,35.4319,29.7638,44.9732,29.7638,57.6613z"/>
	<path class="st4" d="M56.5216,99.6938c-0.0335,0-0.0668,0-0.1003,0c-2.0032-0.001-3.9459-0.0312-5.4704-0.0852
		c-0.8236-0.0293-1.5164-0.0649-2.0595-0.1057c-0.6765-0.0515-1.1099-0.1088-1.4057-0.1857
		c-1.4494-0.3784-2.5484-0.9567-3.3603-1.7682c-0.7302-0.7294-1.2131-1.633-1.4762-2.7627
		c-0.2208-0.9452-0.2645-1.967-0.2995-2.7879l-0.0061-0.1404c-0.036-0.8485-0.0701-1.6497-0.2045-2.4495
		c-0.3049-1.8123-0.9667-4.4317-1.6365-6.9922l-0.3472-1.3218c-0.4485-1.7039-0.8751-3.3238-1.1424-4.5086
		c-3.0472-1.8776-5.5232-3.5747-7.2731-6.2345c-1.9222-2.9217-2.8339-6.8259-2.9561-12.6592l-0.0004-0.0309
		c0-13.6715,10.2222-23.2225,20.3202-25.5911c9.0744-2.1284,21.3437-0.6532,28.6,9.8566c3.4463,3.6317,5.8719,9.9699,6.1862,16.1778
		c0.359,7.092-1.9915,12.7089-6.4523,15.4302c-0.6986,0.6267-1.5894,1.3638-2.6497,2.1925
		c-0.4175,0.3263-0.7819,0.6047-1.0423,0.8017l-0.0069,0.0052c-2.2843,8.4579-2.5924,9.6001-3.3004,12.8525
		c-0.0779,0.892-0.1176,1.6966-0.1526,2.4082c-0.0149,0.3024-0.0293,0.5921-0.0456,0.8719
		c-0.0628,1.0848-0.154,1.9714-0.3947,2.7722c-0.2972,0.9877-0.8079,1.7721-1.561,2.3986c-0.7252,0.603-1.678,1.0685-2.9986,1.4649
		c-0.2951,0.0885-0.7131,0.1494-1.3977,0.2036c-0.5312,0.0419-1.2127,0.0778-2.0258,0.1067
		C60.3889,99.6651,58.4958,99.6938,56.5216,99.6938z M30.7442,57.6522c0.1141,5.4421,0.9262,9.0263,2.6336,11.6215
		c1.5982,2.429,3.9158,3.9605,7.0157,5.8591l0.3602,0.2205l0.0871,0.4131c0.244,1.1568,0.7137,2.9407,1.2108,4.8292l0.3477,1.3241
		c0.6815,2.6049,1.3558,5.2753,1.6733,7.1637c0.1545,0.9199,0.193,1.8203,0.23,2.6908l0.0059,0.1375
		c0.0402,0.9429,0.0843,1.7186,0.2501,2.4291c0.1802,0.7732,0.4829,1.3517,0.9527,1.8211c0.559,0.5586,1.3665,0.9699,2.4689,1.2577
		c0.0957,0.0249,0.3613,0.0749,1.059,0.1279c0.5166,0.0389,1.1836,0.073,1.9812,0.1013c1.5023,0.0532,3.4208,0.0831,5.402,0.0841
		c1.9818-0.0038,3.8948-0.0276,5.37-0.08c0.7851-0.0278,1.4381-0.062,1.9412-0.1017c0.6681-0.0528,0.9061-0.1023,0.9885-0.127
		c1.0448-0.3135,1.7998-0.6716,2.3083-1.0944c0.4604-0.383,0.7495-0.8318,0.9372-1.4559c0.1856-0.617,0.26-1.3741,0.315-2.3209
		c0.0159-0.2742,0.0299-0.5586,0.0444-0.8548c0.0368-0.7461,0.0785-1.5915,0.1633-2.5463l0.0186-0.1216
		c0.7298-3.3553,1.0287-4.4622,3.3553-13.077l0.1574-0.5824l0.5413-0.4063c0.2537-0.1921,0.6097-0.4638,1.0172-0.7823
		c1.0448-0.8167,1.9484-1.5657,2.6133-2.1662l0.0712-0.0644l0.0825-0.0493c3.8722-2.3174,5.9075-7.3105,5.5843-13.6987
		c-0.2938-5.7976-2.5306-11.6768-5.6986-14.978l-0.0557-0.0579l-0.0454-0.0663c-6.6906-9.7533-18.1169-11.1074-26.5805-9.1225
		C40.2076,36.1709,30.7488,45.0059,30.7442,57.6522z"/>
</g>
<g>
	<circle class="st1" cx="56.3079" cy="49.04" r="12.7874"/>
	<path class="st4" d="M56.3078,62.8078c-7.5915,0-13.7677-6.1762-13.7677-13.7678s6.1762-13.7678,13.7677-13.7678
		c7.5917,0,13.7679,6.1762,13.7679,13.7678S63.8996,62.8078,56.3078,62.8078z M56.3078,37.2331
		c-6.5104,0-11.8068,5.2966-11.8068,11.8069s5.2965,11.8069,11.8068,11.8069s11.807-5.2966,11.807-11.8069
		S62.8182,37.2331,56.3078,37.2331z"/>
</g>
<g>
	<path class="st1" d="M38.5477,52.7104c0,0-3.0785,10.4193-5.0913,10.4193s-1.7478-9.4916,0.592-14.2081
		c2.0341-3.7081,3.6705-4.9729,4.4993-4.3809C39.3764,45.1328,39.494,49.2992,38.5477,52.7104z"/>
</g>
<g>
	<path class="st1" d="M80.225,53.5392c0.9472,3.3153,1.6576,9.5905-0.8288,10.0641c-2.1312-0.4736-2.9935-4.0256-3.9072-6.7488
		c-0.9137-2.7233-2.3681-11.6034,0-11.6034C78.0938,45.4904,79.2778,50.224,80.225,53.5392z"/>
</g>
<g>
	<path class="st4" d="M33.4563,64.1102c-0.3499,0-1.012-0.1214-1.5162-0.9344c-1.5097-2.4342-0.8315-10.5344,1.23-14.6899
		l0.0188-0.0358c1.6466-3.0017,3.1502-4.6763,4.469-4.9774c0.5285-0.1206,1.0469-0.0246,1.4597,0.2702
		c1.518,1.0844,1.2413,6.1065,0.3749,9.2296l-0.0046,0.0157c-0.0318,0.1081-0.7934,2.6755-1.8182,5.2898
		C35.6602,63.4036,34.457,64.1102,33.4563,64.1102z M34.918,49.3751c-0.9203,1.8648-1.5854,4.7447-1.7799,7.7099
		c-0.1829,2.7855,0.1402,4.3745,0.3966,4.9314c0.3418-0.3438,1.1549-1.4385,2.4494-4.8153c0.8977-2.3415,1.5775-4.614,1.6212-4.7612
		c0.8531-3.0812,0.6888-6.1576,0.3744-7.0101C37.6337,45.5962,36.5964,46.3198,34.918,49.3751z M37.8999,45.2665L37.8999,45.2665
		L37.8999,45.2665z"/>
</g>
<g>
	<path class="st4" d="M79.3808,64.6043l-0.1974-0.0438c-2.417-0.5372-3.4118-3.6348-4.2896-6.3678
		c-0.1124-0.3497-0.2229-0.6943-0.3343-1.0262c-0.7122-2.1228-2.2453-9.7915-0.5978-12.0818
		c0.3776-0.5249,0.9199-0.8139,1.5273-0.8139l0.0896,0.0041c3.1253,0.287,4.3997,4.7919,5.4236,8.4117l0.1656,0.5834
		c0.557,1.95,1.6652,7.5587,0.1237,10.0609c-0.4154,0.6742-1.0074,1.1015-1.7119,1.2357L79.3808,64.6043z M75.5369,46.2481
		c-0.1957,0.2808-0.5283,1.4518-0.2428,4.4001c0.2248,2.3217,0.747,4.7698,1.1243,5.8944c0.1141,0.3398,0.2273,0.6924,0.3424,1.0504
		c0.6413,1.9971,1.4303,4.454,2.6219,4.9785c0.0695-0.0469,0.1519-0.1274,0.2392-0.2693c0.8529-1.3844,0.513-5.5095-0.3395-8.4937
		l-0.167-0.5884C78.366,50.5714,77.2437,46.6036,75.5369,46.2481z"/>
</g>
<g>
	<defs>
		<rect id="SVGID_1_" x="40.0115" y="58.6478" width="32.6464" height="36.5243"/>
	</defs>
	<clipPath id="SVGID_2_">
		<use xlink:href="#SVGID_1_"  style="overflow:visible;"/>
	</clipPath>
	<g class="st5">
		<g>
			<path class="st1" d="M67.5626,83.313H44.7913l-1.5782-7.4852v-2.7055c5.5935-6.3955,18.668-8.0263,26.6042,0v2.7055
				L67.5626,83.313z"/>
			<path d="M67.6291,83.4022H44.7189l-1.595-7.5744v-2.739l0.0221-0.0252c2.8458-3.2541,7.5942-5.2901,12.7018-5.4463
				c5.4122-0.1666,10.3989,1.767,14.0327,5.4423l0.0258,0.026l-0.0038,2.7679L67.6291,83.4022z M44.8635,83.2238h22.6329
				l2.2316-7.4092v-2.6557c-3.5965-3.6227-8.5224-5.5288-13.8747-5.3634c-5.0456,0.1543-9.7346,2.1575-12.5509,5.3602v2.6627
				L44.8635,83.2238z"/>
		</g>
		<g>
			<path class="st6" d="M44.8755,83.1556h21.0488l1.7835,0.6794l-1.3416,4.7936H46.2003L44.8755,83.1556z"/>
		</g>
		<g>
			<path class="st7" d="M63.5156,94.5536H49.0508c-1.5744,0-2.8505-1.2738-2.8505-2.845v-3.08h20.166v3.08
				C66.3663,93.2799,65.0901,94.5536,63.5156,94.5536"/>
		</g>
		<defs>
			<filter id="Adobe_OpacityMaskFilter" filterUnits="userSpaceOnUse" x="45.6848" y="88.114" width="21.197" height="6.9541">
				<feColorMatrix  type="matrix" values="1 0 0 0 0  0 1 0 0 0  0 0 1 0 0  0 0 0 1 0"/>
			</filter>
		</defs>
		<mask maskUnits="userSpaceOnUse" x="45.6848" y="88.114" width="21.197" height="6.9541" id="mask0_1_">
			<path class="st8" d="M45.6848,88.1142h21.197v6.9539h-21.197V88.1142z"/>
		</mask>
		<g class="st9">
			<g>
				<path class="st4" d="M46.7158,89.143v2.5658c0,1.2849,1.0476,2.3303,2.335,2.3303h14.4648c1.2878,0,2.335-1.0455,2.335-2.3303
					v-2.566H46.7159L46.7158,89.143z M63.5156,95.068H49.051c-1.8563,0-3.3662-1.507-3.3662-3.3593V88.114h21.197v3.5948
					C66.8818,93.5612,65.3718,95.0681,63.5156,95.068L63.5156,95.068z"/>
			</g>
		</g>
		<g>
			<path class="st10" d="M52.5863,83.1556c-3.1659-1.3877-5.3769-4.5441-5.3769-8.2161c-0.0032-2.0824,0.7227-4.1005,2.0523-5.7054
				c1.6483-1.9934,12.0183-2.0945,13.6649-0.2397c1.4047,1.5827,2.2575,3.6644,2.2575,5.9451c0,3.6716-2.2105,6.8278-5.376,8.2157"
				/>
		</g>
		<g>
			<path class="st4" d="M52.0179,83.6696c-0.0781,0-0.1551-0.0179-0.2253-0.0521c-3.4429-1.6716-5.5816-5.0825-5.5816-8.9013
				c0-1.896,0.5392-3.7386,1.5589-5.3282c0.0364-0.057,0.0838-0.1062,0.1393-0.1449c0.0556-0.0386,0.1181-0.066,0.1843-0.0804
				c0.0661-0.0145,0.1345-0.0158,0.2011-0.0039c0.0666,0.0119,0.1303,0.0369,0.1873,0.0733
				c0.057,0.0364,0.1062,0.0837,0.1449,0.1392c0.0387,0.0554,0.0661,0.1179,0.0806,0.1838c0.0145,0.066,0.0158,0.1342,0.0039,0.2007
				c-0.0119,0.0665-0.0368,0.13-0.0732,0.1869c-0.9135,1.4239-1.3963,3.0745-1.3963,4.7735c0,3.422,1.9166,6.4784,5.0019,7.9766
				c0.0609,0.0295,0.1153,0.0707,0.1603,0.1213c0.0449,0.0505,0.0794,0.1094,0.1015,0.1732
				c0.0221,0.0639,0.0313,0.1315,0.0272,0.1989c-0.0042,0.0675-0.0215,0.1334-0.0512,0.1942
				c-0.0422,0.0869-0.1081,0.16-0.1902,0.2112C52.2094,83.6426,52.1146,83.6697,52.0179,83.6696L52.0179,83.6696z M60.3294,83.6217
				c-0.1162,0.0001-0.229-0.039-0.3201-0.1109c-0.0911-0.0718-0.1552-0.1723-0.182-0.2851
				c-0.0268-0.1128-0.0146-0.2313,0.0345-0.3363c0.0492-0.1051,0.1324-0.1905,0.2362-0.2424
				c3.0284-1.5139,4.9099-4.5528,4.9099-7.9309c0-1.9006-0.5939-3.7124-1.717-5.2394c-0.081-0.11-0.1147-0.2476-0.094-0.3825
				c0.0207-0.1349,0.0942-0.256,0.2045-0.3368c0.1102-0.0807,0.2481-0.1144,0.3832-0.0938
				c0.1352,0.0207,0.2566,0.0942,0.3375,0.2042c1.2538,1.7048,1.9168,3.7272,1.9168,5.8483c0,3.7699-2.0996,7.1614-5.479,8.8511
				C60.4856,83.604,60.407,83.6217,60.3294,83.6217z"/>
		</g>
		<g>
			<path class="st4" d="M46.601,88.1142h19.3645l3.2022-12.5204h1.0553L66.7672,89.143H45.7994l-3.4162-13.4214h1.0553
				L46.601,88.1142z"/>
		</g>
		<g>
			<path class="st4" d="M42.3832,75.6573v0.0643h1.0553v-2.0132L42.717,73.032c0,0-0.2035,0.1924-0.3339,0.3156
				C42.3832,74.2946,42.3832,75.6573,42.3832,75.6573z"/>
		</g>
		<g>
			<path class="st4" d="M70.223,75.5294v0.0643h-1.0553v-2.266l0.5142-0.8819c0,0,0.4107,0.3727,0.5411,0.496
				C70.223,73.8888,70.223,75.5294,70.223,75.5294z"/>
		</g>
		<g>
			<path class="st4" d="M43.0425,73.9374c-0.1015,0-0.2006-0.0298-0.2851-0.0859c-0.0845-0.056-0.1506-0.1356-0.1899-0.2289
				c-0.0394-0.0933-0.0503-0.1962-0.0314-0.2955c0.0188-0.0995,0.0667-0.1912,0.1376-0.2636
				c3.6913-3.7729,8.5998-5.8507,13.8215-5.8507c4.9181,0,9.6174,1.8729,13.2326,5.2733c0.0966,0.0942,0.1523,0.2226,0.1551,0.3574
				c0.0027,0.1348-0.0476,0.2654-0.1403,0.3635s-0.2203,0.156-0.3553,0.1612c-0.135,0.0052-0.2668-0.0427-0.3668-0.1334
				c-3.4228-3.22-7.8714-4.993-12.5252-4.993c-4.9418,0-9.5884,1.9676-13.084,5.5405c-0.0479,0.0491-0.1052,0.0882-0.1686,0.1148
				c-0.0634,0.0266-0.1314,0.0403-0.2001,0.0402H43.0425z M67.7079,83.6692H44.8753c-0.1367,0-0.2678-0.0542-0.3644-0.1507
				c-0.0967-0.0965-0.1511-0.2273-0.1511-0.3638c0-0.1364,0.0544-0.2672,0.1511-0.3637c0.0967-0.0965,0.2277-0.1507,0.3644-0.1507
				h22.8326c0.1367,0,0.2678,0.0542,0.3645,0.1507c0.0967,0.0965,0.151,0.2274,0.151,0.3637c0,0.1365-0.0543,0.2673-0.151,0.3638
				C67.9757,83.615,67.8446,83.6692,67.7079,83.6692"/>
		</g>
		<g>
			<path class="st1" d="M60.9808,71.9663c0,1.2922-1.0496,2.3398-2.3447,2.3398c-1.2949,0-2.3445-1.0477-2.3445-2.34
				c0-1.2922,1.0498-2.3397,2.3445-2.3397c1.295,0,2.3445,1.0477,2.3445,2.3397L60.9808,71.9663z M62.6562,75.4642
				c0,0.251-0.0999,0.4916-0.2777,0.669c-0.1778,0.1775-0.419,0.2771-0.6704,0.2771c-0.2514,0-0.4926-0.0997-0.6703-0.2771
				c-0.1777-0.1774-0.2777-0.418-0.2777-0.669c0-0.2509,0.0999-0.4915,0.2777-0.6689c0.1778-0.1775,0.4189-0.2771,0.6702-0.2771
				c0.2514,0,0.4926,0.0996,0.6703,0.2771c0.1778,0.1774,0.2777,0.418,0.2777,0.6689"/>
		</g>
		<g>
			<path class="st4" d="M64.3795,87.0922c-0.8179,0-1.2412-0.5024-1.5502-0.8695c-0.2857-0.3393-0.4373-0.5024-0.7603-0.5024
				c-0.3229,0-0.4745,0.1631-0.7602,0.5024c-0.3089,0.3671-0.7319,0.8695-1.5496,0.8695c-0.8175,0-1.2406-0.5024-1.5497-0.8695
				c-0.2857-0.3393-0.4374-0.5024-0.7604-0.5024c-0.3234,0-0.4751,0.1631-0.7609,0.5026c-0.3091,0.3667-0.7323,0.8695-1.5502,0.8695
				c-0.8177,0-1.2409-0.5028-1.5499-0.8695c-0.2857-0.3395-0.4374-0.5024-0.7603-0.5024c-0.3236,0-0.4754,0.163-0.7616,0.5024
				c-0.3091,0.367-0.7325,0.8695-1.5505,0.8695c-0.8179,0-1.2412-0.5025-1.5503-0.8695c-0.2861-0.3395-0.4379-0.5024-0.7615-0.5024
				c-0.1367,0-0.2678-0.0542-0.3645-0.1506c-0.0967-0.0965-0.151-0.2273-0.151-0.3638c0-0.1364,0.0543-0.2673,0.151-0.3637
				c0.0967-0.0965,0.2278-0.1507,0.3645-0.1507c0.8181,0,1.2415,0.5024,1.5505,0.869c0.2861,0.3395,0.4382,0.5026,0.7613,0.5026
				c0.3236,0,0.4754-0.1629,0.7615-0.5024c0.3093-0.367,0.7326-0.8694,1.5506-0.8694c0.8175,0,1.2407,0.5026,1.5498,0.8694
				c0.2856,0.3395,0.4373,0.5024,0.7603,0.5024c0.3234,0,0.4751-0.1629,0.7612-0.5024c0.3088-0.367,0.732-0.8694,1.5499-0.8694
				c0.8179,0,1.2408,0.5026,1.5498,0.8694c0.2858,0.3395,0.4373,0.5024,0.7603,0.5024c0.323,0,0.4747-0.1629,0.7603-0.5024
				c0.3089-0.3668,0.7319-0.8694,1.5494-0.8694c0.8176,0,1.2407,0.5024,1.5499,0.8694c0.2855,0.3395,0.4373,0.5024,0.7605,0.5024
				c0.1366,0,0.2678,0.0542,0.3644,0.1507c0.0967,0.0965,0.151,0.2274,0.151,0.3637c0,0.1364-0.0543,0.2673-0.151,0.3638
				C64.6472,87.038,64.516,87.0922,64.3795,87.0922"/>
		</g>
	</g>
</g>
</svg>
