<svg xmlns="http://www.w3.org/2000/svg" viewBox="0 0 110.979 128.417"><path fill="#4C2B2B" d="M110.891 96.084l-55.426 32-55.424-32v-64l55.424-32 55.426 32z"/><radialGradient id="a" cx="56.957" cy="65.583" r="39.67" gradientUnits="userSpaceOnUse"><stop offset="0" stop-color="#a4e23b"/><stop offset=".995" stop-color="#009444"/></radialGradient><path fill="url(#a)" d="M101.957 37.81v53.14l-.01.01-.021.01-.41.24-.989.56-4.15 2.39-.01.01-.13.08-.061.03-.55.32-.8.45-.101.06-.479.28-1.13.65-.851.49-.739.43-.24.13-.13.05-.11.07-1.03.59-2 1.15-.819.47-1.05.6-.04.03-1.23.71-.45.26-.01.01-.01.01h-.01l-.421.24-1.119.65-.87.52-1.181.67-.08.05-.119.07-.04.03-.04.02-.021.01-.1.06-.29.17-.03.01-.16.09v.01l-.779.45-.181.09-.02.02-.04.02-.69.39-.3.18-.02.01-.29.17-.15.08-.22.13-.24.14h-.01l-.71.42-.03.02-.3.17-1.36.79-.5.29-.95.54-.029.02h-.011l-.359.21-.24.15-.84.48-.63.36-.061.03-.5.29c-.01.01-.01.01-.01 0l-.53.31-.29.17-.76.44-.05.03-.05.03-.03.01c0 .01-.01.01-.01.01l-.021.02-.25.14-1 .58-.21.12-.38.22-1.42.82-.36.21-.09.05-.24.14-.8.46-.26.15-.28.16-.01.01-.2.12-.229.13-.351.2-.83.48-.01.01-.09.05-1.32.76-.02.01-1.4.81h-.01l-1.41.81-.02.02-.25.14-.56.32h-.01l-.13.08-.19.11-.27.16h-.01l-.2.12-.061-.03-1.14-.66-.02-.01-.2-.12-.851-.49-.029-.01-.33-.19-.011-.01-1.399-.81-.01-.01-.021-.01-1.37-.79-.029-.02h-.011l-.83-.48-.06-.04-.34-.19-.181-.11-.02-.01-.66-.38-.04-.03-.09-.05-.1-.06-.131-.07-.269-.16-.12-.07h-.01l-.72-.42-.24-.13-.391-.23-.05-.03-.029-.02-1.4-.81h-.01l-.48-.29h-.01l-.89-.52-.03-.01-.06-.04-.04-.02-1.289-.75-1.07-.62-.69-.39-1.649-.96-.13-.07-2.891-1.68-.37-.21-.05-.03-.39-.22-.49-.28-.33-.2-1.2-.69-.649-.37-.57-.33-.47-.27-.441-.26-.3-.17-.5-.29-.17-.1c-.01 0-.021-.01-.03-.02l-2.309-1.34-.21-.12-.051-.03-1.159-.67-.67-.38-.82-.47-.09-.05-.5-.29-.011-.01-.21-.12h-.01l-1.04-.6c-.01-.01-.01-.01-.02-.01l-1.86-1.08-1.02-.59-2.11-1.23-.09-.05-.2-.12s-.01 0-.02-.01l-.28-.16-.53-.3-.82-.48-.06-.04h-.01-.01l-.49-.29-.7-.4-.68-.39-1.221-.71-.1-.06h-.01l-.33-.19-.41-.24h-.01l-.431-.25-.989-.57-.08-.04-.03-.02V37.81l.78-.45 5.33-3.08 6.84-3.95h.01l1.37-.79 1.99-1.16 1.3-.75 3.63-2.08.64-.38.941-.54.17-.09 1.66-.95.78-.45.38-.22.439-.26.67-.39.431-.26.519-.3 2.28-1.3.695-.41 1.4-.8h.01l.05-.03.431-.25 5.29-3.05.109-.06.08-.05.271-.16 5.52-3.19.55-.32 1.44-.83 1.06.62 3.4 1.96 3.09 1.79 2.601 1.5.22.13 4.689 2.7.98.57 5.13 2.96.91.52 1.04.61 2.3 1.31.87.5.69.4.829.48 1.37.79.801.46.09.06 1.81 1.04 3.28 1.89.5.29.04.03v.01l.26.14.66.39 1.46.84 1.939 1.12.78.44.44.25.49.28 1.449.84 2.821 1.63z"/><path fill="#FFF8B3" d="M101.957 85.56v5.39l-.01.01-.021.01c-.12-.07-.239-.13-.35-.19-.3-.15-.59-.34-.89-.5.279.31.56.62.829.93l-.989.56-4.15 2.39-.01.01-.13.08-.061.03-.55.32-.8.45-.101.06-.479.28-1.13.65-.851.49-.739.43-.24.13-.13.05-.11.07-1.03.59-2 1.15-.819.47-1.05.6-.04.03-1.23.71-.45.26-.01.01-.01.01h-.01l-.421.24-1.119.65-.87.52-1.181.67-.199-.35c-.07-.12-.141-.24-.21-.37-.011-.02-.021-.03-.03-.04-.12-.22-.25-.45-.38-.67 0 0-.011 0-.011-.01-.289-.34-.579-.69-.829-1.06-.23-.32-.421-.65-.58-1.02a.807.807 0 0 1-.011-.59c0-.04.021-.08.04-.11 0-.02.011-.04.021-.06-.01-.01-.021-.03-.03-.04l-.09-.15c-.1-.16-.2-.31-.3-.47-.04-.07-.08-.14-.11-.21l-.03-.06c-.18-.29-.33-.58-.479-.88a9.8 9.8 0 0 1-.33-.74c-.03-.02-.06-.03-.09-.06l-.01-.01c-.381-.38-.74-.78-1.051-1.21l-.009-.01c-.44-.59-.81-1.22-1.11-1.9-.649-.35-1.309-.69-1.899-1.1-.3-.2-.59-.41-.88-.62h-.01a82.118 82.118 0 0 1-2.87-2.09c-.17.14-.38.2-.62.1-.11-.04-.21-.1-.32-.15l-.01.01c-.41.48-1.3.5-1.42-.27-.01-.08-1.11-.43-1.29-.51-.38-.17-.47-.61-.351-.97.011-.07.04-.13.07-.19-.18-.16-.37-.31-.55-.47-.24-.15-.47-.3-.7-.46l-.439-.03h-.011c-1-.07-1.989-.17-2.989-.26-.011-.01-.02-.01-.03 0-2.01-.2-4.021-.37-6.03-.18-.689.07-2.57.58-3.92.47a.45.45 0 0 1-.11.23c-.02.04-.05.06-.09.08-.01 0-.01 0-.01.01-.04.05-.1.08-.16.1.03.07.05.15.08.22.01.05.03.11.05.15l.09.32c.03.08.051.17.07.26v.01c.05.19.09.39.12.59.56-.1 1.13-.03 1.51.21.37-.24.851-.36 1.38-.41.04 0 .08-.01.12-.01.641-.05 1.351.01 2 .09h.01c.33.03.631.08.9.11.25.04.48.07.67.09.21.02.38.15.49.32.33-.01.649-.04.97-.02h.03c.27 0 .54.04.81.13h.011c.06.02.1.04.159.06.29.12.48.43.431.71v.01a.519.519 0 0 1-.29.38c-.181.1-.36.17-.55.22-.12.04-.24.07-.37.09 0 .11-.03.23-.101.33a.973.973 0 0 1-.399.38c-.021.02-.051.02-.07.03a.95.95 0 0 0-.34.4c-.021.03-.05.05-.08.08.02.32.01.65 0 .98.08.66.04 1.31-.12 2 .09.12.15.27.16.47v.08c.04 0 .08.01.12.02h.01c.12.04.24.11.33.21 0 0 0 .01.01.01.191.21.271.53.13.82-.05.11-.109.22-.16.34-.01.02-.029.03-.04.05-.039.13-.059.27-.1.41-.02.09-.06.16-.1.23.399.35.8.71 1.199 1.07.181-.08.391-.1.631-.01.029 0 .06.01.09.03.05.03.109.05.16.08.92.43 1.819.89 2.72 1.37h.01c.061.03.12.06.17.09.01.01.01.01.01 0 .341.18.671.35 1 .53.021 0 .04-.01.07-.02.67-.07 1.39-.25 2.08-.29.17-.01.35-.01.52 0l.42.06c.08.02.17.04.25.07.319.1.619.29.899.58.04.04.07.08.101.13.01 0 .01.01.01.01 0 .01.01.03.02.05.101.17.13.37.101.57.67.32 1.279.72 1.739 1.26.021.02.03.04.051.06.18.22.359.45.5.7l.01.01c.28.43.51.89.71 1.37 0 .01.01.02.01.02.12.25.22.5.311.76v.01c.26.7.479 1.41.67 2.1l-.24.15-.84.48-.63.36-.061.03-.5.29c-.01.01-.01.01-.01 0l-.53.31-.29.17-.76.44-.05.03-.05.03c-.07-.03-.141-.07-.21-.12-.03.1-.061.2-.101.3l-1 .58-.21.12a.811.811 0 0 1-.29-.15l-.09.37-1.42.82-.36.21-.09.05-.24.14-.8.46-.26.15-.28.16-.01.01-.2.12-.229.13-.351.2-.83.48-.01.01-.09.05-1.32.76-.02.01-1.4.81h-.01l-1.41.81-.02.02-.25.14-.56.32h-.01l-.13.08-.19.11-.27.16h-.01l-.2.12-.061-.03-1.14-.66-.02-.01-.2-.12-.851-.49-.029-.01-.33-.19-.011-.01-1.399-.81-.01-.01-.021-.01-1.37-.79c-.26-.81-.45-1.65-.58-2.48-.01-.01-.02-.01-.029-.01-.021.32-.04.64-.091.96a.59.59 0 0 1-.14.3c0 .24-.01.49-.03.73 0 .09 0 .18-.01.27-.02-.1-.04-.21-.05-.31l-.34-.19-.181-.11-.02-.01-.66-.38-.04-.03-.09-.05.03-.44c-.03-.14-.05-.29-.07-.43-.16-.96-.191-1.91-.22-2.87.01-.02 0-.03 0-.05-.03-.65-.05-1.3-.12-1.95-.06-.65-.13-1.29-.2-1.94-.11-.29-.2-.58-.31-.88-.15-.42-.32-.85-.551-1.25-.329-.57-.67-1.13-.98-1.71-.96-.84-1.22-2.19-1.9-3.28-.58-.93-1.06-1.83-1.439-2.86-.12-.34-.79-1.75-.95-2.73-.1-.13-.19-.27-.29-.41-.27-.32-.28-.68 0-1 .74-.88 1.36-1.81 1.96-2.77.34-1.26.86-2.42 1.34-3.63.34-.84 1.061-1.64 1.04-2.6 0-.36.25-.65.58-.75 0-.01.01-.01.021-.01.25-.66.52-1.32.819-1.96.351-1.03.8-1.99 1.56-2.84.05-.06.109-.1.17-.13.069-.11.14-.22.22-.32.01-.02.03-.02.04-.03-.1-.23-.17-.49-.2-.77-.43-3.49 4.82-4.84 7.45-4.84.17 0 .33.07.45.18h.01c.01-.01.03-.02.04-.03v.01c.07-.03.13-.07.21-.1.25-.09.46-.07.63.03.76-.29 1.51-.65 2.26-.98.79.12 1.841-.31 2.511-.58.149.09.279.21.35.37.2-.23.41-.45.63-.66.01-.07.03-.15.04-.22.33-.21.65-.45.94-.73h.01a.7.7 0 0 0 .08-.1c.56-.55 1.05-1.18 1.5-1.81.04 0 .08 0 .12.01.25-.17.529-.31.859-.37.82-.14 1.141.98.341 1.26-.16.05-.301.15-.44.26.05.04.1.09.13.15.311.87-.61 1.61-1 2.29-1.29 2.27-1.4 5.25.51 7.17.95.95 2.311 2.16 2.92 3.52.051-.04.11-.08.16-.12a.747.747 0 0 1 .16-.67c1.79-2.2 4.84-2.24 7.12-3.73 2.44-1.58 6.4-4.73 5.229-8.08h.011c-.23-.66.89-1.16 1.2-.34.01.02.02.05.02.07.13.37.2.73.25 1.08.11.25.22.5.31.76.131.02.261.08.351.2.04.04.06.08.09.13.03.06.04.12.06.18h.011c.04.11.069.23.1.35.01.02.021.05.021.07.159.56.29 1.13.399 1.7.01.01.021.01.021.02.13.13.26.26.39.38.13.14.269.27.4.4.279.22.55.46.81.7l.01.01c.221.21.44.43.65.65 3.39 2.21 6.57 4.7 9.76 7.18.42.33.84.65 1.26.98.03-.01.061-.01.091-.01.189-.02.39.04.56.22.87.93 1.77 1.83 2.7 2.7.01.01.02.01.029.02.04.05.091.09.131.13.115.1.226.21.346.31z"/><path fill="#BFB56B" d="M74.195 79.954c-1.703-.151-3.566 1.145-3.832 2.841-.024.155.165.248.257.108.688-1.043 2.096-2.162 3.44-1.953.211.033.472-.013.573-.233a.738.738 0 0 0 .069-.256c.032-.292-.255-.485-.507-.507zM101.607 85.25a.272.272 0 0 0-.051-.06c-.02-.03-.05-.05-.08-.07-.01-.01-.019-.01-.029-.02a.489.489 0 0 0-.23-.08c-.68-.75-1.35-1.48-2.229-2.14-.03-.02-.05-.02-.08-.03-.101-.11-.19-.21-.311-.32-.13-.12-.27-.24-.409-.35a11.94 11.94 0 0 0-1.351-.97c-.18-.11-.37-.23-.56-.34-.181-.14-.37-.25-.57-.34-.42-.24-.83-.49-1.231-.74a.685.685 0 0 0-.25-.29c-1.069-.66-2.069-1.39-3.159-1.98-.051-.06-.091-.11-.15-.15-.43-.28-.82-.52-1.23-.73-.011-.03-.02-.05-.051-.07-.77-.73-1.489-1.52-2.43-2.04-.02-.01-.04-.01-.06-.02-.15-.12-.311-.23-.48-.32-.07-.27-.14-.54-.24-.81l-.01-.01-.12-.27c-.1-.2-.29-.27-.47-.26-.07-.13-.14-.26-.23-.38a.44.44 0 0 0-.39-.19c-.13.01-.25.06-.35.14a15.149 15.149 0 0 0-1.65-5.01c-.02-.05-.05-.09-.07-.14-.17-.31-.649-.09-.56.24.77 2.8 1.7 5.15 1.25 8.14-.061.37-.15.74-.26 1.11-.431.58-.66 1.27-1.38 1.68-1.131.65-2.33.13-3.5-.1-.601-.17-1.211-.26-1.9-.19-.11.01-.16.19-.03.22.07.01.141.03.2.05-.25-.01-.5.06-.72.18-.34.18-.34.67-.03.88-.31.32-.4.76-.11 1.18.101.15.28.14.391 0 .71-.94 2.109-.08 2.989.35.771.37 1.57.7 2.311 1.14.77.47.979 1.4 1.7 1.85 0 .01.01.01.02.01.141.31.25.64.5.91.03.03.08.04.13.04.07.09.2.13.311.09 1.319-.58 1.899-2.2 2.54-3.39.35-.65.75-1.39.939-2.15 2.37 1.65 4.59 3.24 6.44 5.63-.47 1.56-2.09 2.82-3.19 3.9-1.399 1.39-2.93 2.64-4.5 3.82-2.569 1.93-5.54 3.85-8.41 5.28a.176.176 0 0 0-.069.05c-.01.01-.01.01-.01.02-.141.16-.011.43.21.45.029.01.06.01.1 0 .04-.01.09-.03.13-.04-.03.06-.04.12-.04.19-.01.03 0 .06.01.1a.48.48 0 0 0 .15.26c.13.11.229.23.33.35.06.11.12.22.18.32.01.04 0 .07.01.11a9.828 9.828 0 0 0 .709 1.74c0 .01.011.01.011.01.13.22.26.45.38.67a5.597 5.597 0 0 0 .259.35c-.01.02-.02.04-.02.06-.03.06-.04.12-.04.19v.33c0 .057.022.101.035.15.095-.062.19-.125.291-.178l-.087-.143 1.181-.67.87-.52 1.119-.65.421-.24h.01l.01-.01.01-.01.45-.26 1.23-.71.04-.03 1.05-.6.819-.47 2-1.15 1.03-.59.11-.07.13-.05.24-.13.739-.43.851-.49 1.13-.65.479-.28.101-.06.8-.45.55-.32.061-.03.13-.08.01-.01 4.15-2.39.989-.56.41-.24.021-.01.01-.01v-5.31c-.11-.129-.231-.259-.35-.389zm-17.22-1.65c.08-.21.11-.41.11-.6.18-.13.3-.34.24-.62-.29-1.44.14-3.01.149-4.46l-.01-.01c.09-.69.12-1.4.03-2.14.09-.88.109-1.76.03-2.64.159.25.279.52.359.81-.01 1.07-.01 2.14-.02 3.21-.11.12-.13.3-.011.44-.01.26 0 .52-.02.78 0 .11.02.2.06.27-.069.71-.199 1.61.2 2.24-.267 1.05-.647 2-1.117 2.72zM67.456 77.68c-.557-.59-1.331-.957-1.935-1.494a1.795 1.795 0 0 1-.302-.355c-.032-.106-.052-.214-.081-.32-.047-.679.063-1.377-.044-2.052-.004-.023-.022-.034-.03-.054.065-.336.142-.67.219-.999.055-.23-.049-.388-.198-.464.067-.128.136-.255.2-.384.546-1.102.977-2.263 1.523-3.368.365-.738.785-1.353.728-2.188-.016-.225-.343-.361-.459-.124-1.093 2.226-2.302 4.449-3.503 6.623-.576 1.043-1.525 2.783-.568 3.869.032.037.085.043.134.055.1.245.214.47.356.636.716.833 1.688 1.144 2.625 1.667 1.562.873 1.336 2.178 2.189 3.426.09.132.291.15.377 0 .131-.227.189-.465.22-.706.105-.033.198-.1.226-.226.295-1.37-.788-2.601-1.677-3.542zM72.497 107.93l-.84.48-.63.36-.061.03-.5.29c-.01.01-.01.01-.01 0a.538.538 0 0 1-.231-.13c-.029.05-.059.11-.1.16-.05.08-.13.15-.21.21 0 .02.01.05.01.07l-.29.17-.76.44-.05.03-.05.03-.03.01c0 .01-.01.01-.01.01l-.021.02-.25.14-1 .58-.21.12-.38.22-1.42.82-.36.21-.09.05-.24.14-.8.46-.26.15-.28.16-.01.01-.2.12-.229.13-.351.2-.83.48-.01.01c-.01-.04-.03-.08-.04-.13-.019.06-.03.12-.05.18l-1.32.76-.02.01-1.4.81h-.01l-1.41.81-.02.02-.25.14-.56.32h-.01l-.13.08a.939.939 0 0 1-.521-.2c-.069.19-.13.37-.21.56l-1.14-.66-.02-.01-.2-.12-.851-.49-.029-.01-.33-.19-.011-.01-1.399-.81-.01-.01-.021-.01-1.37-.79-.029-.02h-.011l-.83-.48c0 .09 0 .18-.01.27-.02-.1-.04-.21-.05-.31-.07-.39-.12-.78-.17-1.17-.05.32-.101.65-.17.98l-.181-.11-.02-.01-.66-.38-.04-.03-.09-.05-.1-.06-.131-.07c-.159-1.68-.289-3.28-.21-4.99 0-.08 0-.17.011-.26.01-.07.029-.12.05-.17-.44-.85-.46-1.95-.51-3.01-.021-.48-.04-.95-.101-1.39l-.09-.42a.44.44 0 0 1-.25-.35c-.05-.71.46-1.4.28-2.11-.16-.6-.58-1-1.07-1.34-.47-.33-.95-.68-1.479-.9-.25-.11-.561-.19-.771-.36-.37-.3.48-.53.63-.53.71.01 1.51.51 2.12.9.3-3.11-.14-6.25.12-9.39.29-3.47.75-6.9 1.21-10.35.04-.3.51-.33.49 0-.141 3.77-.521 7.52-.62 11.29-.08 2.75.53 5.94-.15 8.6-.01.05-.04.08-.069.12.14.22.239.47.3.66.02.08.05.16.07.25.189.28.34.59.399.96.01.04 0 .09 0 .13.061.06.101.13.11.22.09.46.189.93.279 1.39.021.06.04.12.051.18.35.28.66.67.97.83 2.08 1.09 4.3 2.31 6.64 2.7 4.511.76 9.57.13 13.38-2.44.381-.26.801.2.65.57.03.03.059.04.09.07.141.17.271.34.391.52.19 0 .38.09.51.32.399.7.68 1.4.979 2.15.08.23.03.42-.08.57.077.19.137.39.197.59z"/><path fill="#FFFDEE" d="M67.123 65.608c-1.59.239-3.29 2.641-4.298 3.781-.146.165-.286.341-.431.51-.056-.127-.166-.23-.311-.212a2.228 2.228 0 0 0-.606.189c-.258-.029-.526.1-.656.418-.026.063-2.612.209-2.8.232-.448.056-.894.139-1.336.233-1.049-.016-2.178.261-3.145.408-1.239.189-2.213.532-2.96 1.549-.002.003 0 .005-.002.008-.796.43-1.471.997-1.752 1.817-.086.25.233.499.453.349 2.155-1.475 4.547-2.076 7.059-2.698 1.325-.328 3.329-.139 4.754-.702a68.964 68.964 0 0 0-2.964 4.105c-.095.142.105.266.221.17 1.805-1.499 3.083-3.489 4.67-5.199 1.394-1.501 3.148-2.841 4.416-4.424.207-.258.013-.583-.312-.534zM48.035 76.709c-.528 1.7-1.113 3.401-1.72 5.092-.89 1.531-1.634 3.183-2.466 4.735-.874 1.631-2.057 3.28-2.729 4.981v.001c-.051.088-.114.17-.159.262-.098.198.13.36.295.228 2.005-1.614 3.235-3.726 4.332-6.06.682-1.452 1.165-3.014 1.671-4.534.486-1.462 1.347-3.077 1.382-4.623.008-.357-.504-.408-.606-.082z"/><path opacity=".13" d="M55.941 11.246l-46.07 26.56v53.12l1.67.96.63.37h.011l18.81 10.84 1.04.6 2.18 1.26.49.28.439.26.36.21 3.13 1.8 3.311 1.91 1.289.74v.01l12.711 7.32 46.07-26.56v-53.12l-46.071-26.56zm44.209 78.61l-44.209 25.49-12.51-7.21-31.701-18.28v-50.97l44.211-25.49 44.209 25.49v50.97z"/><path fill="#FFF" stroke="#000" stroke-width=".75" stroke-miterlimit="10" d="M61.762 40.342c0-6.471-6.768-11.717-15.117-11.717s-15.117 5.246-15.117 11.717 6.768 11.717 15.117 11.717c1.977 0 3.859-.302 5.59-.837l5.3 3.778-.907-5.875c3.14-2.147 5.134-5.281 5.134-8.783z"/><path fill="#FFD2A6" d="M91.92 54.344c-.027-.014-.056-.022-.083-.035l-.018-.016c-.007-.011-.009-.023-.015-.034-.575-.982-1.671-.721-2.43-.143-.5.102-1.094.324-1.596.634-.455.049-.888.08-1.163.123l-.113.019c.003-.064.011-.128-.005-.2a17.987 17.987 0 0 1-.271-1.737c-.014-.59.025-1.185.041-1.788a.572.572 0 0 0-.179-.453.492.492 0 0 0 .543-.163c.813-.98-.007-2.993-.7-3.859a.438.438 0 0 0-.191-.133l-.013-.036a.55.55 0 0 0-.14-.206c.968-.455 1.892-1.175 2.441-1.648.528-.455 1.221-1.255 1.697-2.125a.616.616 0 0 0 .201-.401 3.83 3.83 0 0 0 .333-1.1c.007-.01.017-.017.022-.027.092-.166.093-.416-.034-.573-.022-.131-.036-.266-.089-.387-.045-.104-.19-.079-.242 0-.025.039-.043.082-.066.121-.807-.465-1.859-.634-2.724-.917-1.694-.555-3.336-1.478-5.119-1.699a16.318 16.318 0 0 0-1.609-.117c-1.242-.554-2.297-.74-3.875.211a.643.643 0 0 0-.236.255c-2.273.617-4.297 1.894-5.293 4.153-.111.252.108.472.313.435a.638.638 0 0 0 .481.284c.74.079 1.304.414 1.948.613.023.029.042.06.074.087.041.034.063.083.089.128-.175-.005-.345.092-.362.352-.014.2-.005.406-.01.608-.345.982-.484 2-.551 3.037l-.118.111a.569.569 0 0 0-.258.138c-.531.499-1.108.952-1.524 1.541-.896.719-1.732.589-2.758.085-.411-.202-.782.114-.827.455-.073.014-.14.049-.156.134-.021.115-.047.231-.07.347-.547.821-.57 2.024-.653 2.969l-.003.03c-.229 1.186-.368 2.375-.208 3.518.035.52.117 1.033.292 1.53.031.088.09.139.146.19.06.163.124.323.198.482a3.56 3.56 0 0 0 .05 1.637c-.012.02-.026.033-.035.056-.238.618.225 1.501.534 2.022.237.4.658.877 1.138 1.071a2.573 2.573 0 0 0-.366.454.56.56 0 0 0-.289.377c-.282 1.086-.699 2.121-1.023 3.194-.062.136-.129.269-.191.403-.286-.109-.627-.023-.706.371-.014.133-.06.259-.085.39a.782.782 0 0 0-.192.431l-.001.007a.54.54 0 0 0-.093.204c-.444 2.061-.601 3.866-.003 5.912.5 1.709 2.863 2.083 3.085 3.835.068.538.917.556.859 0-.006-.059-.023-.108-.031-.165.666-.699 1.236-1.262 2.114-1.794 1.178-.713 2.61-1.221 3.879-1.75 1.1-.458 2.521-1.027 2.988-2.212.018-.045.023-.087.029-.129a.523.523 0 0 0 .395-.146c.192-.193.382-.394.565-.601 1.159-.909 2.237-2.205 1.947-3.417a5.21 5.21 0 0 0 .129-1.093 9.49 9.49 0 0 0 .079-1.567c-.001-.034-.013-.063-.02-.094.428-1.069.781-2.166 1.174-3.248.351-.556.691-1.118 1.026-1.682a36.76 36.76 0 0 0 1.37-1.986c.301.492.827.854 1.567.851 1.411-.005 2.807-1.253 3.825-2.093.896-.739 1.431-1.496 1.471-2.382.455-.528.411-1.285-.306-1.649zm-15.67 5.681c-.179.306-.372.6-.563.897-.19.078-.324.15-.566.306-.094.004-.187.002-.279.003.049-.151.082-.319.076-.522a.466.466 0 0 0-.693-.398c-.668.354-1.605.063-2.31-.045-.978-.15-1.787-.976-2.331-1.737-.596-.833-.849-1.847-1.263-2.777.019-.103.032-.205.055-.308.021-.094-.021-.177-.081-.24.551-.761 1.235-1.399 2.137-1.452.684-.041 1.393.381 2.023.268 2.097.854 3.462 3.489 3.966 5.503.015.06.039.112.07.156l.007.151a.449.449 0 0 0-.248.195zm6.9-10.927c-.61.938-.945 2.063-1.297 3.171-.018.013-.036.017-.054.032-2.114 1.82-4.707 2.752-6.476-.11-.279-.452-.466-.969-.622-1.504a.482.482 0 0 0 .048-.313 11.26 11.26 0 0 1-.167-3.013c.17-.391.234-.742.211-1.091l.081-.417.087-.326a.44.44 0 0 0 .112-.104c.237-.31.396-.597.529-.919l.242-.125a.401.401 0 0 0 .148-.11c1.07.506 2.145.978 3.31 1.3a.39.39 0 0 0 .309-.057c.068.049.132.094.183.128.713.493 1.33.891 1.906 1.549.528.602 1.03 1.202 1.597 1.747a.683.683 0 0 0-.147.162zM80.407 103.36l-.29.17-.03.01-.16.09v.01l-.779.45-.181.09-.02.02-.04.02-.69.39-.3.18-.02.01-.29.17-.15.08-.22.13-.24.14h-.01l-.71.42-.03.02-.3.17c-.431.47-.9.79-1.36.79l-.5.29-.95.54c.021.05.03.09.04.14.011.05.03.09.061.13-.05-.08-.09-.17-.13-.25h-.011c-.34-.64-.689-1.26-1.029-1.89v-.01c-.24-.44-.471-.88-.681-1.34-.01-.01-.02-.02-.02-.03-.11-.26-.23-.51-.33-.78l-.01-.01c-.12-.32-.24-.64-.351-.98-.06-.11-.13-.22-.2-.33 0-.01-.01-.01-.019-.01-.04-.03-.08-.07-.13-.11-.01-.01-.021-.01-.03-.03-.35-.25-.66-.54-.96-.85-.06-.05-.13-.11-.19-.18-.11.02-.23.01-.36-.06-.04-.02-.07-.04-.11-.06-.02-.02-.04-.03-.06-.03 0 0 0-.01-.01-.01-.16-.1-.33-.18-.5-.26-.051-.03-.11-.04-.16-.07-.061-.03-.12-.05-.181-.07-.439-.18-.89-.32-1.35-.44-.18-.05-.37-.1-.55-.14-.28-.05-.57-.09-.86-.12h-.069c-.52-.04-1.03-.05-1.561-.01h-.04a.18.18 0 0 1-.07.05c0 .01 0 .01-.01 0-.12.09-.28.11-.43.03-.28-.14-.37-.21-.49-.37-.04-.04-.07-.09-.11-.14a2.589 2.589 0 0 1-.47-.14c-.01 0-.019 0-.019-.01-.16-.06-.311-.13-.441-.2-.229-.12-.54-.29-.79-.5a.83.83 0 0 1-.149-.13 1.098 1.098 0 0 1-.141-.17c-.27-.14-.51-.31-.729-.52a.55.55 0 0 1-.221-.01.416.416 0 0 1-.34-.32.201.201 0 0 1-.029-.11c0-.12-.021-.26-.04-.39-.051-.33-.08-.67.1-.93-.01-.04-.03-.09-.03-.14-.01-.19 0-.33.011-.46a.529.529 0 0 1-.391.03c-.01 0-.01-.01-.01-.01a.558.558 0 0 1-.33-.21h-.01a.487.487 0 0 1-.07-.46c.13-.36.22-.71.37-1.02-.57-1.44-.06-2.54.9-3.38.25-.22.529-.42.84-.6v-.01c.2-.12.41-.23.62-.34a.41.41 0 0 1-.15-.33c-.36-.02-.71-.05-1.06-.1h-.011c-.27-.03-.55-.07-.81-.13h-.03c-.68-.14-1.35-.32-2.03-.56-.02.06-.05.12-.1.17-.12.17-.33.26-.54.11-.11-.09-.24-.16-.36-.22h-.01c-.31-.14-.64-.2-.979-.24-.17.06-.34.02-.53.02a.37.37 0 0 1-.11-.05c-.05.02-.1.03-.16.03a.652.652 0 0 1-.22.15c-.04 0-.08.01-.12.01a.417.417 0 0 1-.18-.08c-.12.06-.27.05-.38-.03-.08.22-.42.32-.58.13-.06-.08-.11-.16-.15-.24-.04.04-.08.06-.14.07 0 .01 0 .03-.01.04-.12.17-.46.24-.561 0-.01-.04-.02-.06-.029-.1-.131.09-.29.1-.42-.01-.141.09-.341.04-.461-.09a.269.269 0 0 1-.1-.08v-.01c-.05-.05-.07-.12-.07-.21v-.25c-.04-.04-.06-.08-.09-.12a.66.66 0 0 1-.05-.15c-.02-.12.01-.24.08-.32 0-.01 0-.01.01-.01.04-.02.07-.04.09-.08.16-.11.38-.11.511.09.08-.01.17 0 .239.04.091-.04.17-.04.261-.02.09-.19.31-.2.47-.1l.03-.09c.01-.01.02-.02.029-.04.17-.27.63-.24.95-.07.08.01.16.02.24.02.12-.21.35-.35.68-.29.05 0 .09.01.141.02.02 0 .04-.01.06 0v-.01c1.67-.09 3.33.16 5 .04.49-.03.97-.08 1.45-.11.01-.01.02-.01.03 0 .3-.03.59-.04.89-.04.479 0 1.45 0 2.1.3h.011c.329.15.579.36.64.7.33.14.66.28.979.45.17.08.341.17.5.28.46.3.91.62 1.36.93.43.15.84.32 1.2.54l.06.03c1.141.69 2.351 1.34 3.45 2.09.04-.01.1-.02.16-.01.05.01.1.01.15.02h.01c.649.12 1.33.49 1.87.86.279.2.77.55 1.01.94.13.06.25.17.34.35.22.49.45.98.67 1.47l.01.01c.5 1.09 1.011 2.18 1.53 3.26.21.4.42.8.64 1.18.311.52.641 1.01.96 1.51.341.53.66 1.06.9 1.64.11.23.2.47.271.71.009.02.009.03.009.05zM47.997 109.77a7.18 7.18 0 0 0-.05-.46c.01-.02 0-.03 0-.05-.04-.44-.101-.89-.181-1.33-.279-1.67-.76-3.33-1.55-4.72a5.83 5.83 0 0 0-.51-.8c-.13-.19-.28-.37-.43-.55-1.31-3.06-2.81-6.02-4.11-9.07-.11-.25-.42-.19-.56-.01-.98-2.68-1.721-5.44-1.78-8.36.13-.21.21-.46.17-.72-.08-.5-.2-.99-.31-1.48-.02-.3-.061-.51-.19-.86-.04-.08-.08-.13-.13-.2-.18-.51-.43-1.01-.74-1.49-.54-.85-1.38-1.37-2.07-2.04.03-.29-.04-.6-.239-.86-.441-.56-1.07-.7-1.57-.52-.67-.18-1.37-.17-2.08 0-.01-.04-.01-.08-.03-.12-.63-1.17-1.899-1.09-3.05-1.31a.076.076 0 0 0-.05-.02v.01c-.01-.01-.021-.01-.03-.01-.05-.03-.09-.06-.14-.08l-.04-.02c-.38-.14-.68 0-.88.24-.971-.01-1.98.1-3.11.25-2.99.41-6.09.85-9.019 1.5-.15.04-.29.18-.341.34-.25-.11-.559-.05-.63.3-.109.57-.319 1.86.641 1.86.16 0 .29-.05.39-.13.11.29.21.59.311.89.09.39.5.4.73.2 1.23.42 2.48-.05 3.79-.16.19-.02.37-.13.48-.28.05.28.34.46.67.32.359-.16.72-.46.93-.82.15.07.29.12.439.16.16.25.4.44.711.5.39.07.73-.05 1.02-.27.17.05.35.08.53.08.019.11.029.22.08.32-.67.49-1.15 1.75-.98 2.5.06.21.21.35.39.44 0 .01-.01.01-.01.02-.05.21-.08.43-.12.65-.019.11-.05.22-.069.33-.5.27-.48 1.08.06 1.37-.01 0 0 .03.03.11.04.1.09.2.14.29 0 .12.03.23.11.34.95 1.19 2.49.74 3.809.69.511-.02 1.08-.04 1.61-.18.42.14.84.23 1.28.27.159.04.33.06.52.08.13.02.25 0 .36-.04.12 0 .26.01.399.01.061.14.12.29.181.44v.01c.399 1.06.63 2.19 1.04 3.21.279 1.75.97 3.53 1.439 4.73.82 2.08 1.42 4.15 2.07 6.29.31 1.01.5 2.07.649 3.13.011.04.021.07.021.11.13.86.25 1.73.4 2.58.029.16.09.28.18.37-.01-.1-.03-.2-.05-.3l1.649.96.69.39 1.07.62 1.289.75.04.02.06.04.03.01.89.52h.01l.48.29h.01l1.4.81.029.02.05.03.391.23c.08-.04.16-.09.229-.15v.06c0 .07 0 .15.011.22l.72.42h.01l.12.07.269.16.131.07c.04-.27.06-.54.06-.81.041-.81-.029-1.61-.169-2.41zm-27.23-30.49a.337.337 0 0 0-.069-.15c-.25-.38-.67-.71-1.11-.9.021-.01.03-.03.04-.04.441-.01.92-.11 1.29-.18.11.09.24.15.38.2-.221.33-.381.72-.531 1.07z"/><path fill="#5B2525" d="M82.436 48.641a.65.65 0 0 0-.11-.319 6.112 6.112 0 0 0-.589-.714c.066-.304-.018-.639-.343-.825-.352-.2-.722-.35-1.094-.496a4.032 4.032 0 0 0-2.195-1.018c-.191-.355-.596-.572-.978-.738-.528-.23-1.021-.072-1.416.33-.59.601-.85 1.876-.697 2.681a.495.495 0 0 0 .068.165c-.018.133-.043.264-.053.4-.275.9.041 2.293.304 3.121.206.646.71 1.191 1.324 1.582a.58.58 0 0 0 .355.367c1.17.344 1.525.886 2.811.604.221-.048.342-.219.4-.413 1.307-.325 1.831-1.513 1.943-2.816a.84.84 0 0 0 .144-.238c.231-.633.292-1.184.126-1.673zM73.513 44.625c-.049-.763-.257-1.326-.877-1.785-.312-.231-.704-.103-.942.159a16.158 16.158 0 0 0-.708-.214c-.688-.194-1.346-.333-1.952-.23-.213-.147-.519-.229-.742-.057-.22.169-.313.345-.363.613-.002.009.001.015 0 .023-.063.062-.128.115-.188.188-.726.871-1.464 2.513-1.201 3.668.219.958.765 2.159 1.813 2.409a.703.703 0 0 0 .511-.085 5.24 5.24 0 0 0 1.454.072c.02-.001.04 0 .06-.002l-.001-.004c.065-.006.131-.012.192-.021.305-.042.465-.263.504-.517.814-.373 1.525-1.407 1.681-2.343.22-.272.416-.556.489-.878.035-.154.046-.296.059-.44a.655.655 0 0 0 .211-.556z"/><path fill="#FFF" d="M74.46 59.081c-.392-.408-.75-.84-1.152-1.223-.236-.37-.467-.745-.74-1.003-.688-.647-1.979-1.524-2.953-.864-.733.496-.626 1.453-.263 2.173.048.095.112.181.185.259-.057.228.013.485.275.655.53.344 1.393 1.092 2.049.726.333.155.664.317.992.483.367.186.706-.004.856-.283h.021l.013.008c.593.281 1.204-.426.717-.931z"/><path fill="#3F2713" d="M75.868 59.379a15.334 15.334 0 0 1-.242-.593c-.078-.372-.071-.748-.246-1.105a5.074 5.074 0 0 0-.521-.837c-.3-.655-.662-1.274-1.201-1.795-1.348-1.304-3.291-.861-4.916-.493-.524.119-.435.812 0 .972.644.237 1.198-.091 1.866-.127l.171-.009c.015.165.107.329.28.372 1.331.33 2.361 1.08 3.071 2.26.337.558.37 1.21.692 1.787a.069.069 0 0 0 .003.008h.001c.048.084.083.172.146.252.432.554 1.13-.153.896-.692zM94.627 44.72c-.229-1.809-.757-3.502-1.834-5.099-1.203-1.784-3.422-2.394-5.374-2.956-2.615-.753-5.124-1.645-7.763-.562a.222.222 0 0 0-.126.249c-.322.007-.65.015-.989.021-.195.003-.308.303-.107.393.859.385 1.478.413 2.45.463 1.715.088 3.217.615 4.766 1.329 1.558.718 3.247 1.275 4.96 1.533a8.347 8.347 0 0 1-1.313 3.789c-.579.903-1.561.956-2.048 1.811-.023.041-.027.081-.04.121-.084.027-.17.059-.251.069a.688.688 0 0 0-.436.234c-.218-.027-.466.134-.426.37-.026.439.397 1.078.711 1.58-.179.9-.077 2.065-.123 2.639-.03.389-.014.917.096 1.417-.097.593-.192 1.187-.297 1.779-.07.4.369.923.787.605 1.039-.791 2.457-.55 3.278-1.59.217.133.432.24.657.334.271.145.545.287.82.432.052.027.104.038.154.053.062.324.379.56.71.566.029.008.05.03.082.033 1.298.097 2.117-3.008 2.361-3.936.402-1.529.697-4.49-.705-5.677z"/><path fill="#E9F2D1" d="M19.204 75.11a1.791 1.791 0 0 0-.434-.322 25.67 25.67 0 0 0-1.943-2.583c-.442-.52-.94-1.162-1.549-1.535-.016-.266-.193-.46-.469-.454-.147-.341-.669-.502-.853-.086a1.096 1.096 0 0 1-.287.455c-.285.294-.082.674.214.768.005.079-.004.156.015.238.057.249.321.38.559.348l.026.016c.563.752 1.296 1.376 1.959 2.037.542.542 1.053 1.183 1.659 1.644a.422.422 0 0 0 .392.068c.019.022.036.041.054.064.367.459 1.092-.228.657-.658z"/><path fill="#999E8B" d="M20.642 78.219c-.577 0-.577.896 0 .896.577-.001.577-.896 0-.896z"/><path fill="#D6451E" d="M13.793 69.596c-.547 0-.547.848 0 .848s.547-.848 0-.848z"/><path fill="#EFD729" d="M13.963 69.448c-.206 0-.31.156-.315.315-.18-.028-.404.095-.287.367l.014.032c.103.24.389.102.445-.09.041.02.088.032.144.032.422 0 .422-.656-.001-.656z"/><path fill="none" d="M19.124 50.837c.005 0 .005-.008 0-.008"/><linearGradient id="b" gradientUnits="userSpaceOnUse" x1="22.157" y1="71.303" x2="19.906" y2="49.462"><stop offset="0" stop-color="#fff"/><stop offset="1" stop-color="#b0b0b0" stop-opacity="0"/></linearGradient><path fill="url(#b)" d="M26.567 53.104c-.865-1.977-2.4-3.727-1.752-6.089a.346.346 0 0 0-.039-.264c-.023.018-.038.039-.066.055-1.681.905-1.959 2.925-2.6 4.529-.235.59-.788.916-1.324.902a.803.803 0 0 1-.258-.368c-.117-.307-.187-.715-.414-.96-.013-.014-.03-.007-.045-.015-.099-.183-.273-.335-.381-.51-.206-.335.004-.611-.1-.932-.018-.058-.063-.112-.125-.125l-.062-.013c-.099-.021-.225-.007-.293.078a1.09 1.09 0 0 0-.264.625c-.045.026-.096.043-.125.087-.455.692-.511 1.399-.378 2.105-.001 1.706 1.009 3.535 2.228 4.901.048.106.101.208.144.317.036.089.059.177.087.265.48.639.808 1.379.771 2.164-.038.805-.244 1.677-.815 2.218-.792 1.085-2.159 1.973-3.315 2.557-.159.08-.173.32-.06.441-.411.198-.823.402-1.268.644a.653.653 0 0 0-.168.139c-1.363.305-2.456 1.017-2.743 2.516-.092.479.509.815.814.45a.812.812 0 0 0 .169.542c.194.27.621.406.874.112a1.17 1.17 0 0 1 .413-.295c-.004.024-.012.043-.015.068-.066.523.693.64.932.252 1.021-1.658 3.449-1.412 5.237-1.541.67.213 1.479.275 2.122.285a.622.622 0 0 0 .559-.277c2.086-.047 3.393-1.458 4.239-3.409.162-.374.289-.783.393-1.211 1.639-2.733.262-8.393-2.372-10.243zm-5.033 2.566a6.972 6.972 0 0 1 1.078 2.083c-.084.006-.164.039-.206.136-.028.065-.046.132-.072.197a9.119 9.119 0 0 0-.508-1.39c0-.011.008-.019.007-.031-.029-.35-.149-.677-.299-.995zm1.525 7.417a24.93 24.93 0 0 1-2.206.632c.236-.205.453-.413.628-.608.102-.114.197-.24.294-.364.115.049.247.06.373-.018.057-.035.107-.083.158-.13a.442.442 0 0 0 .462.231c.201-.037.378-.11.554-.185l-.263.442z"/><path fill="#FEC" d="M67.7 49.634c-.582 1.038-1.023 2.146-1.133 3.342-.138 1.525-.576 3.13.017 4.6.05.125.261.122.253-.034-.124-2.414.102-5.48 1.545-7.509.292-.412-.43-.848-.682-.399z"/><path fill="#FFF5E3" d="M85.238 38.701c-1.216-1.941-5.211-1.398-7.097-1.134-2.39.333-5.925 2.135-7.078 4.367-.109.212.162.441.338.26 3.465-3.582 9.009-4.363 13.634-3.229.149.036.29-.125.203-.264z"/><path fill="#FEC" d="M74.044 43.734c-.061-.232-.462-.191-.43.058.249 1.943-.722 3.999-1.901 5.515-.802 1.03-1.911 1.645-2.074 3.026-.042.354.465.526.687.285 1.048-1.141 2.063-2.683 2.798-4.049.789-1.469 1.36-3.179.92-4.835zM72.037 64.721c-.722-.94-2.082-1.193-2.947-2.019-.963-.92-1.07-2.334-1.323-3.555-.04-.194-.34-.234-.428-.056-.593 1.198-.193 2.824.465 3.919.751 1.251 2.727 1.916 4.112 1.923.097-.001.188-.125.121-.212zM68.299 64.84c-.517.588-.792 1.453-1.173 2.14-.302.543-1.011 1.277-.762 1.937.05.13.153.231.302.229.783-.01 1.131-1.008 1.413-1.609.34-.724.81-1.683.706-2.495-.028-.221-.303-.411-.486-.202zM31.12 75.88c-1.938-1.961-4.566-.91-7.017-.878-1.777.023-3.201.496-4.888 1.032-1.588.504-3.222.48-4.758 1.199-.162.076-.063.292.083.306 2.407.219 4.998-.726 7.281-1.398 1.424-.419 3.108-.145 4.581-.328 1.587-.198 2.783-.206 4.225.705.397.25.813-.314.493-.638z"/><path fill="#FEC" d="M34.416 75.948c-.8-.066-1.614-.024-2.104.627-.269.006-.507.008-.644.021-.478.043-1.14.044-1.56.311-.775.49-1.237 1.166-1.742 1.918-.279.416-.936 1.052-.836 1.596.036.198.327.218.418.055.309-.557.877-1.105 1.257-1.631.775-1.074 1.562-1.219 2.758-1.311.89-.068 2.321.016 2.893-.817.239-.347-.087-.74-.44-.769z"/><path fill="#D19F71" d="M78.907 104.22l.04-.02.02-.02.181-.09.779-.45v-.01l.16-.09.03-.01.29-.17c.018.063.02.124.017.185.032-.021.061-.049.094-.07.018-.011.035-.007.054-.015-.022-.053-.042-.109-.064-.16-.109-.25-.24-.48-.38-.7-.01-.02-.02-.03-.03-.05-.13-.24-.27-.48-.43-.71-.02-.04-.02-.08-.04-.12-.08-.17-.17-.33-.26-.47-.04-.07-.08-.15-.12-.22-.01-.02-.01-.05-.021-.07-.019-.11-.05-.23-.079-.34-.15-.54-.36-1.08-.591-1.61-.05-.12-.1-.24-.159-.36l-.21-.45c-.03-.08-.07-.16-.101-.23l-.03-.06-.34-.71a.384.384 0 0 0-.14-.17.463.463 0 0 0-.32-.11c-.02-.23-.05-.47-.1-.69l-.01-.01c-.141-.59-.41-1.09-.91-1.21a.334.334 0 0 0-.141 0c-.18.01-.35.12-.38.3-.09.52.15.96.26 1.48.221 1.12-.01 2.22-.479 3.24-.56 1.23-2.3 3.03-3.7 2.38-.21-.29-.42-.58-.64-.83-.7-.84-1.601-2.2-2.69-2.51-.109-.03-.25.06-.229.18.029.32.16.63.33.93-.11-.05-.221-.11-.341-.14.131-.12.16-.35.021-.49-.65-.65-1.73-.66-2.59-.7-.811-.04-1.811-.06-2.65.16-.01-.01-.019-.02-.04-.03-.649-.34-1.33-.63-2-.95-.74-.34-1.37-.88-2.109-1.21-.011-.01-.03-.01-.04-.02-.11-.05-.28.06-.19.19.09.12.19.23.3.33.101.11.221.22.34.32.271.21.551.4.841.59.1.06.21.13.31.19.03.02.059.04.09.05.41.25.811.49 1.231.7 0 .01.01.01.019.01.19.1.38.19.58.28.01.01.03.01.04.02.01.02.01.04.03.05.069.04.149.05.22.07.021.01.05.03.07.03.029.02.06.02.09.02.09.02.189.04.29.06h.01c.08.02.16.03.25.04h.04c.521.05 1.061.01 1.561.01h.069c.66.01 1.29.15 1.931.26l.42.06.279.03c-.02.01-.029.03-.029.04-.04.06-.03.14.029.17.04.02.09.08.13.14.03.03.051.05.061.07.16.13.33.25.5.36.11.07.22.07.31.03.021 0 .03-.01.04-.02.101-.05.17-.15.2-.26.14.19.3.38.46.56.22.27.45.53.64.78.181.24.351.5.5.77.021.02.03.04.051.06.279.49.55 1 .84 1.49 0 .01.01.02.02.03.11.19.23.38.36.56 0 .01.01.02.01.02.17.24.34.46.54.67.03.03.07.05.101.07.29.62.579 1.25.739 1.9l.95-.54c-.05-.2-.14-.4-.24-.6.24.22.49.31.74.31.46 0 .93-.32 1.36-.79.069-.07.14-.16.21-.24.03.03.06.05.09.07l.03-.02.71-.42h.01l.24-.14.22-.13.15-.08.29-.17.02-.01.3-.18.685-.39zM64.422 93.121l-.026-.019c-.04-.443-.681-.845-1.16-1.016-.001-.058-.021-.114-.069-.145-.534-.348-1.491.021-2.041.159-.424.106-.855.187-1.292.184-.487-.003-.652-.25-1.04-.471-.103-.059-.206 0-.247.101-.134.329-.049.583.134.784-.061.021-.126.03-.185.053-.143.055-.184.295 0 .331.315.063.628.067.939.046.328.098.673.14.911.129.561-.024 1.413-.167 2.078-.479.16.134.346.247.514.356.328.214.646.435.965.66.397.281.888-.359.519-.673zM61.921 88.714a1.3 1.3 0 0 1-.61.089c.006-.252-.152-.507-.477-.507a.453.453 0 0 0-.292.104 6.981 6.981 0 0 1-1.897-.385c-.548-.19-1.067-.415-1.64-.426a.33.33 0 0 0-.39-.216c-1.98.397-3.968.079-5.949.336-.106.014-.192.176-.064.233 1.13.497 2.424.361 3.632.409.588.023 1.459.171 2.114-.031a.517.517 0 0 0 .311.201c.298.074.448-.153.439-.371.984.585 2.463 1.41 3.518 1.091a.503.503 0 0 0 .217.048c.031 0 .054-.012.081-.017.417.163 1.102.13 1.296-.061.197-.196-.003-.616-.289-.497z"/><path fill="#D19F71" d="M64.959 95.915c-.183-.218-.558-.216-.817-.247-.261-.031-.522-.031-.784-.036-.073-.142-.266-.263-.428-.246-.445.046-.911.129-1.378.188-.885-.303-1.773-.654-2.677-.896a14.529 14.529 0 0 0-.25-.669c-.016-.263-.483-.363-.567-.044a1.292 1.292 0 0 0 0 .642c-.057.069-.072.164.015.236.024.02.054.033.078.052.015.036.026.072.043.108.076.164.233.206.38.175a7.2 7.2 0 0 0 .885.474c.008.011.011.024.023.032.446.267.916.419 1.397.522.313.106.625.208.929.31a.345.345 0 0 0 .395-.109c.317.055.713.03.89.044.315.024.631.048.945.082.246.026.494.126.739.075.329-.07.366-.471.182-.693zM92.471 55.119c-.086-.427-.472-1.205-.978-1.24a1.594 1.594 0 0 0-.88-.525c-.734-.147-1.049.97-.311 1.126.191.041.32.138.425.255-.274-.023-.545.083-.815.184-.16.059-.167.275 0 .331.431.146.887.288.704.81-.108.308-.297.638-.206.971a.26.26 0 0 0 .13.152c-.445.807-1.244 1.42-1.999 1.908-.907.587-3.032 1.134-3.243-.417-.017-.123-.201-.124-.248-.023-.044-.124-.083-.25-.151-.368a.272.272 0 0 0-.465 0c-.438.753-.58 1.64-.957 2.436-.374.789-.882 1.515-1.364 2.247-.035.012-.072.021-.104.047-.828.667-1.265 1.61-2.176 2.21-.29.191-.611.333-.942.458.702-1.002 1.801-2.514 1.352-3.771-.01-.026-.05-.038-.064-.008a4.516 4.516 0 0 0-.242.634c-.008-.026-.003-.056-.014-.082-.045-.11-.205-.197-.3-.079-.336.416-.435 1.014-.664 1.495-.136.287-.405.66-.505 1.019-.123.105-.247.209-.373.318-.447.387-.915.744-1.399 1.083-2.112.503-4.105.362-6.216.15a5.802 5.802 0 0 1-.621-.572c-.129-.138-.38.004-.32.186.907 2.769 5.63 3.22 8.713 2.026.098 1.166-.121 2.384-.417 3.486-.296 1.102-1.032 1.832-1.726 2.622-.188.15-.369.29-.528.406-2.578 1.87-5.405 2.331-8.015.823-.411-.473-.772-.984-1.017-1.666-.548-1.53-.272-3.128.002-4.672.025-.138-.147-.219-.228-.096-.376.571-.587 1.269-.682 2.006-.133-.124-.404-.032-.419.182-.228 3.291 1.114 6.035 3.792 7.95a.266.266 0 0 0 .154.043l.016.026c-.036.075-.084.14-.116.219-.075.186.215.352.34.198.019-.022.04-.039.059-.062.016.015.024.036.04.05a.19.19 0 0 0 .266 0 .83.83 0 0 0 .271-.651c.807-.743 1.767-1.242 2.867-1.533 1.436-.38 2.598-1.249 3.822-2.044 1.002-.652 2.194-1.572 3.048-2.656 1.624-1.477 2.511-3.556 2.004-5.72.178-.56.291-1.144.554-1.689.461-.956 1.104-1.815 1.67-2.709.499-.789 1.068-1.828 1.172-2.837.663 1.146 3.129.606 4.146-.01 1.092-.661 2.091-1.594 2.563-2.784.808.049.685-1.386.595-1.843zM69.83 78.217c-.188-.397-.476-.784-.722-1.087a5.776 5.776 0 0 0 1.882.162c-.423.272-.825.566-1.16.925zM71.027 49.772c.245-.359-.338-.695-.58-.339-.399.586-1.322.285-1.906.289-.124.001-.214.171-.107.26.357.298.854.451 1.333.433-.104.167-.198.343-.302.509-.245.391-.483.74-.236 1.189.064.116.226.079.265-.034.106-.31.496-.599.688-.868.216-.301.484-.633.605-.982a.27.27 0 0 0-.008-.184c.093-.076.177-.168.248-.273z"/><path fill="#D19F71" d="M78.191 62.192c-.387.386-.613.851-.956 1.272-.454.558-1.149.843-1.814 1.046-1.188.363-2.454.365-3.61.823-.089.035-.079.164.023.169 1.979.09 6.877-.166 6.599-3.211-.012-.117-.149-.191-.242-.099zM89.82 55.507c.005-.13-.042-.203-.124-.299-.125-.149-.354-.149-.513-.066-.33.173-.485.448-.658.74-.295-.135-.635-.113-.807.228-.042.083-.06.198 0 .28.075.104.139.182.265.224l.12.039c-.048.16-.398.351-.474.485-.126.221-.017.532.241.594.623.15 1.25-.584 1.19-1.186a.71.71 0 0 0-.113-.293c.215-.136.428-.273.663-.379.136-.062.206-.229.21-.367zM89.648 39.958c-.287-.064-.601-.083-.871-.16-.571-.161-1.137-.233-1.62-.605-.062-.047-.131.052-.08.104.418.428.87.913 1.423 1.159.259.115.605.277.939.336-.157.085-.607 1.282-.662 1.403-.218.481-.481.928-.77 1.37-.696 1.065-1.942 1.64-2.644 2.69-.09.134.083.289.214.213 2.271-1.305 4.626-3.206 4.835-6.052.035-.456-.43-.61-.764-.458zM68.697 60.128l-.06.024c-.143.059-.036.265.079.186l.031-.025c.027-.001.054-.018.061-.046l.005-.022c.015-.064-.045-.147-.116-.117zM72.117 61.499c-.487.348-1.071.1-1.594-.05-.567-.163-.887-.583-1.321-.917-.072-.056-.169-.006-.214.056-.441.604.884 1.351 1.238 1.564.651.392 1.855.733 2.461.086.352-.375-.119-1.06-.57-.739z"/><path fill="#EABC92" d="M74.566 60.335c-1.399-.532-2.893.164-4.31-.599-1.142-.615-1.551-2.417-1.546-3.611.001-.146-.214-.174-.253-.034-.388 1.38.019 2.797.902 3.91 1.024 1.293 3.805 1.27 5.206.832.258-.081.235-.409.001-.498z"/><path fill="#D19F71" d="M74.682 60.21c-.119-.045-.223.05-.264.15-.129.312.037.658.166.951.113.257.547.187.599-.079.082-.419-.085-.864-.501-1.022zM69.943 53.371c.024-.374-.208-.999-.265-1.131-.052-.121-.265-.12-.316 0-.103.234-.15.827.018 1.166-.351.188-.618.488-.9.771-.334.336-.667.746-.646 1.24.004.087.105.105.153.042.254-.337.494-.681.802-.974.3-.286.734-.435 1.105-.597.226-.099.195-.371.049-.517zM73.546 44.01c-.126.032-.129.191-.034.257.272.188.605.286.892.46.3.183.513.495.838.62.138.053.266-.103.23-.23-.162-.592-1.335-1.254-1.926-1.107zM47.707 112.76l-.12-.07h-.01l-.72-.42-.24-.13-.391-.23-.05-.03-.029-.02-1.4-.81h-.01l-.48-.29h-.01l-.89-.52-.03-.01-.06-.04-.04-.02-1.289-.75-1.07-.62-.69-.39-1.649-.96c-.16-.89-.311-1.78-.53-2.65 0-.04-.01-.07-.021-.11-.569-2.28-1.319-4.48-2.029-6.72-.74-2.32-1.45-4.62-2.28-6.91-.39-1.08-.99-2.43-.92-3.6 0-.05.01-.09.03-.13v-.01a.34.34 0 0 1 .6-.03c.99 1.47 1.5 3.52 2.07 5.19.77 2.28 1.5 4.58 2.26 6.87.29.84.6 1.73.91 2.63.56.69 1.26 1.1 2.06 1.51 1.511.78 3.931 1.47 4.53-.74.07-.27.29-.37.5-.34.18.02.35.15.42.34.061.15.09.31.09.46.01.07.01.13.01.19.07.08.131.18.141.31 0 .07.02.13.02.2.801 1.44 1.42 3.91 1.311 5.92.106.99.126 2 .006 2.93zM35.248 85.314c-.798-.033-1.842.392-2.627.602a6.565 6.565 0 0 1-1.541.226c-.042.001-.081-.007-.122-.01l.003-.002c.065-.079.135-.152.212-.218.441-.416-.184-1.045-.641-.7a.46.46 0 0 0-.275.158.319.319 0 0 0-.2.136.611.611 0 0 0-.104.418c-.04-.007-.079-.018-.121-.022a.207.207 0 0 0-.138.041.423.423 0 0 0-.514-.378c-.095.022-.202.053-.311.084a.513.513 0 0 0-.064-.203.5.5 0 0 0 .21-.068c.204.183.55.239.736.003.1-.126.169-.254.229-.383a.548.548 0 0 0 .649-.224c.967-1.495-1.641-1.802-2.53-1.362-.059.029-.098.068-.137.106-.233-.289-.762-.154-.78.275-.004.1-.013.2-.02.3-.011.038-.025.073-.026.117-.013.504-.287.937-.522 1.385-.03.017-.062.03-.092.055a1.881 1.881 0 0 0-.382.438c-.152.231-.019.462.183.556.108.32.555.491.749.112.032-.063.059-.12.083-.178.805.256 1.893.199 2.425-.328l.001-.001c.362 1.045 1.931.791 2.782.66.938-.144 2.879-.212 3.029-1.448.01-.083-.073-.144-.144-.147zM27.329 81.347a8.016 8.016 0 0 0-.742-.561.454.454 0 0 0-.256-.62c-.342-.141-.698-.225-.99-.468-.234-.196-.586-.015-.516.3.049.217.175.386.326.532a.225.225 0 0 0-.034.206c.188.592.701.999 1.07 1.477.209.27.586.068.652-.209.028.013.05.034.08.045.394.149.72-.431.41-.702zM25.082 78.826a25.665 25.665 0 0 0-4.828.308c-.922.15-1.815.377-2.753.437-.604.039-.923.028-1.399.363-.102.072-.064.225.064.233 1.015.068 2.056-.059 3.057-.228 1.972-.333 3.874-.448 5.86-.598.327-.025.335-.506-.001-.515zM26.974 76.481c-.883.404-1.353 1.029-2.469.734-.816-.216-1.706-.196-2.528-.041-2.432.46-4.802.933-7.206 1.479-.251.057-.199.471.062.453 2.659-.186 5.311-1.144 8.001-1.377 2.487-.215 2.714 1.021 4.401-.91.164-.191-.04-.439-.261-.338zM34.507 78.113c-.461-.129-1.102.227-1.548.35-.47.129-.961.08-1.417.196-.032.008-.055.028-.081.044-.029-.011-.059-.023-.088-.026-.394-.039-.624.223-.906.469-.332.291-.67.584-1.031.839-.341.24-1.4.775-1.197 1.313.032.085.088.124.177.135.214.026.357-.111.509-.244.3-.262.666-.457.993-.68.35-.238.659-.53.996-.785.209-.157.394-.249.539-.398.351.326 1.079.157 1.478.088.548-.096 1.482-.21 1.824-.694.156-.222-.008-.539-.248-.607zM35.582 82.273c-.377.037-.769.231-1.131.252-.54.031-1.199-.238-1.728-.357-1.002-.227-1.74-.545-2.585-1.129-.138-.095-.344.063-.287.22.515 1.422 5.619 3.483 5.949 1.3.02-.13-.057-.301-.218-.286z"/><path fill="#8C4253" d="M79.771 46.145c-1.056-1.111-2.791-1.604-4.116-.642-1.166.847-1.102 2.468-.863 3.709.032.166.298.163.332 0 .172-.835.358-1.826.816-2.55.663-1.046 2.807-.688 3.744-.368.089.031.146-.087.087-.149zM70.986 42.973a.41.41 0 0 0-.211-.16c-.583-.192-1.17-.273-1.738-.165-.155-.069-.358-.063-.565-.009-.181.047-.267.195-.284.351a2.33 2.33 0 0 0-.796.929c-.586.619-.928 1.482-.943 2.414-.004.214.274.218.346.047.591-1.429 1.181-2.629 2.935-2.626.497.001.99-.008 1.486.017.657.034 1.124.388 1.726.482.126.02.294-.056.277-.211-.088-.834-1.202-1.036-2.233-1.069z"/><path fill="#3A101B" d="M82.581 48.772c-.052-.294-.456-.361-.647-.17-.883.884-.892 2.359-1.719 3.342-1.355 1.61-3.855.327-4.854-.985-.057-.074-.168-.032-.15.063.345 1.856 2.786 2.952 4.48 2.512 1.681-.437 3.179-3.112 2.89-4.762zM73.46 44.627c-.073-.228-.439-.329-.557-.073-.659 1.44-1.013 2.601-2.431 3.532-1.482.973-2.634.182-3.569-.992-.141-.177-.424.015-.365.213.493 1.684 2.006 2.449 3.663 2.034 1.751-.437 3.864-2.827 3.259-4.714z"/><path fill="#D190A1" d="M77.825 44.82c-.209-.259-.504-.187-.813-.18l-.056.001c-.14-.279-.485-.279-.78-.313-.081-.009-.125.034-.151.089-.11.079-.168.229-.115.353-.016.006-.032.008-.047.014-.512.213-.68.704-.702 1.215-.006.132.168.16.232.063.294-.436.513-.815 1.085-.841.403-.019 1.066.151 1.348-.198.053-.066.053-.137-.001-.203zM70.952 42.806c-.491-.149-.909-.138-1.417-.173a4.458 4.458 0 0 0-.486-.013c-.054-.105-.161-.179-.303-.131-.84.283-1.313 1.124-1.607 1.903-.019.05.058.096.092.053.408-.513.858-1.104 1.485-1.344.205.018.479.023.626-.123.021-.021.025-.048.024-.074.056-.002.115-.008.169-.008.471.005.936.002 1.406-.013.044-.002.053-.064.011-.077z"/><path fill="#FFF" d="M68.894 42.521a.211.211 0 0 0-.233-.095c-.351.08-.825.383-.906.757-.025.116.108.262.225.173.182-.14.321-.309.521-.432.159-.098.319-.068.419-.237a.131.131 0 0 0 0-.126l-.026-.04zM76.506 44.338c-.436.084-.862.096-1.032.577-.068.192.186.398.355.273.261-.19.561-.302.839-.464.216-.126.065-.43-.162-.386z"/><path fill="#26190F" d="M94.231 43.438a8.243 8.243 0 0 0-.63-2.097c.001-.017.013-.034.013-.049-.034-1.583-1.415-2.314-2.813-2.594-.779-.156-1.595-.175-2.386-.217-1.809-.096-3.202-.774-4.848-1.37-.106-.038-.155.099-.1.17 1.416 1.778 3.849 2.225 5.997 2.438 1.44.143 2.531.44 3.158 1.842.06.135.174.204.3.232.296 2.143.486 4.015-.261 6.223-.401 1.185-1.065 2.236-1.705 3.299-.439.728-1.201.958-1.619 1.612a.467.467 0 0 0 .011.498.52.52 0 0 0 .577.235c.447-.118.836-.353 1.193-.64.489.246.951.528 1.395.855-.053.1-.096.206-.126.329-.17.686.924.839.953.129.002-.045-.006-.083-.008-.125.237-.019.45-.189.508-.485a.493.493 0 0 0 .179-.316l.047-.278a.625.625 0 0 0 .447-.544c.009-.073.011-.145.019-.218.813-1.512.655-3.616.688-5.267.018-.913-.183-2.923-.989-3.662z"/><path fill="#724B2E" d="M91.375 38.378c-1.286-2.04-4.626-2.082-6.735-2.444-2.031-.349-5.212-.674-7.082.368-.109.062-.067.261.067.248.419-.041.839-.072 1.258-.103-.025.092.007.205.111.223 2.121.36 4.271.242 6.393.657 1.488.29 2.98.674 4.483.908.395.208.792.403 1.231.499.198.042.394-.167.274-.356zM70.769 54.625c.126-.138.086-.311-.054-.417-.411-.314-.987.186-1.369.365-.452.212-.815.531-1.248.762-.138.073-.143.299 0 .371.329.165.64-.173.917-.318.09-.047.186-.082.277-.124a.25.25 0 0 0 .131.11c.206.067.411.125.621.174.131.03.234-.019.321-.1a.296.296 0 0 0 .141-.236.127.127 0 0 0 .072-.13 1.24 1.24 0 0 0-.034-.232c.004-.025 0-.051.006-.076a.61.61 0 0 0 .219-.149z"/><path fill="#26190F" d="M76.105 60.197c-.02-.017-.036-.024-.054-.035-.004-.009-.002-.021-.008-.03a.323.323 0 0 0-.182-.14c-.013-.005-.025.005-.038.002-.002-.023.001-.046-.001-.069.382-1.552-.538-3.646-1.61-4.64-.09-.084-.282-.034-.267.11.086.812.47 1.497.729 2.263.011.033.015.067.025.101-.306-.359-.62-.686-.874-.942-.659-.667-2.107-1.827-3.138-1.408-.226.092-.205.426.06.438 1.096.049 1.793.81 2.467 1.582.812.929 1.486 1.782 1.792 2.963-.074.218-.049.466-.052.708a.303.303 0 0 0-.032.265c.03.079.103.106.179.072.169-.074.401-.208.518-.384.019-.005.035-.001.055-.012.214-.121.359-.25.481-.463.067-.115.058-.289-.05-.381zM71.043 54.422c-.036.144.045.306.194.342.265.064.559.016.832.065.261.046.563.211.81.041.107-.075.166-.191.131-.323-.15-.57-1.801-.782-1.967-.125zM69.713 55.327c-.026-.085-.127-.163-.221-.125-.213.086-.243.215-.387.383-.08-.083-.204-.055-.273.043-.023-.037-.044-.074-.079-.112-.054-.056-.12-.054-.183-.031-.004-.001-.005-.005-.009-.007l-.05-.02c-.044-.017-.092.006-.125.033l-.058.048c-.152.128-.048.338.112.387.053.106.155.149.259.119-.003.029-.01.053-.01.084a.308.308 0 0 0 .386.293.303.303 0 0 0 .212-.374l-.034-.103c.033 0 .066.006.102-.011.254-.114.449-.32.358-.607z"/><path fill="#BCBCBC" d="M72.668 57.026c-.851-.733-2.132-1.318-3.273-1.213-.21.02-.308.288-.11.408.329.2.602.27.986.34.695.126 1.355.534 1.897.966.29.232.574.498.847.779-.904-.198-1.782-.266-2.622-.847-.345-.238-.914-.89-1.39-.684-.059.025-.063.114-.021.153.677.637 1.222 1.216 2.084 1.638.494.242 1.059.319 1.593.426.315.063.761.3 1.102.215.159.238.302.484.41.74.143.338.585.071.542-.229-.153-1.056-1.278-2.031-2.045-2.692z"/><path fill="#A6AA99" d="M16.443 71.498a2.676 2.676 0 0 1-.06-.101c-.118-.197-.434-.067-.372.157l.032.113c.027.1.112.154.211.161.075.005.107-.006.155-.064.062-.077.089-.174.034-.266zM15.894 71.797l-.098-.004c-.505-.023-.263.831.15.554l.081-.055a.267.267 0 0 0-.133-.495z"/><path fill="#A6AA99" d="M18.979 75.236c.049-.043.083-.101.061-.183l-.012-.045c-.05-.179-.236-.17-.339-.083-.241-.225-.502-.43-.708-.614a.303.303 0 0 0 .097-.187c.024-.195-.017-.286-.118-.453-.206-.337-.601-.188-.711.078a4.774 4.774 0 0 0-.359-.208c0-.004.004-.008.004-.012l.004-.061a.29.29 0 0 0-.146-.253l-.054-.032c-.031-.019-.065-.017-.1-.022.013-.042.033-.074.036-.129a.761.761 0 0 0-.036-.272c-.072-.251-.434-.312-.564-.074l.007.005c-.008.004-.008.009-.015.014-.006-.13-.089-.257-.257-.257-.125 0-.189.076-.225.166a1.043 1.043 0 0 0-.157-.242c.04-.222-.083-.456-.36-.452a.411.411 0 0 0-.165.032 5.66 5.66 0 0 1-.375-.273c-.026-.109-.086-.204-.208-.248-.007-.002-.013-.001-.02-.002-.04-.049-.087-.091-.126-.142-.067-.086-.093-.102-.102-.103.004-.001.009-.005.013-.021.016-.055.002-.107-.009-.162a.232.232 0 0 0-.167-.167l-.028-.005c-.151-.021-.247.093-.261.209h-.015a.122.122 0 0 1 0 .027c0 .023.015.037.019.057.005.014.006.026.014.039.03.059.075.107.142.135l-.004.003c-.104.267.078.355.16.563.006.017.002.038.011.053l.044.077.012-.012c.102.177.371.189.48.025.069.081.144.159.226.241-.031.223.086.469.358.441l.027.027c.069.063.178.053.241-.004.067.032.136.072.202.087.013.003.022-.007.035-.01.026.106.095.2.236.2.035 0 .051-.024.078-.034-.016.133.064.264.191.351-.017.049-.008.108.046.139l.014.01a.127.127 0 0 0 .04.082c.072.066.141.136.207.208.067.1.172.106.268.073.147.108.302.213.441.33-.403.059-.389.708.055.708.23 0 .347-.178.348-.357.091.081.182.157.273.239.407.364.862 1.048 1.413 1.161.087.018.177-.055.149-.149-.051-.177-.17-.347-.311-.512z"/><path d="M81.935 69.25c.399-3.216 1.513-6.031 3.435-8.655.125-.17-.16-.392-.294-.227-2.11 2.58-3.549 5.45-3.344 8.883.007.132.187.126.203-.001z"/><path d="M85.099 58.428c-.897 2.221 1.105 2.738 2.761 2.067 1.543-.625 4.86-2.512 4.912-4.453.002-.086-.121-.146-.18-.075-1.107 1.341-2.038 2.494-3.568 3.434-.719.442-1.541.912-2.394 1.009-1.368.154-1.257-.931-1.308-1.952-.007-.133-.176-.146-.223-.03z"/><path d="M88.846 54.639c.839-.71 1.848-1.433 2.916-.649.398.292.637.749.659 1.242.022.502-.288.942-.22 1.43.013.095.131.115.201.082.585-.28.665-1.237.57-1.81a2.208 2.208 0 0 0-.938-1.467c-1.15-.778-2.845-.26-3.403 1.007-.062.14.092.269.215.165zM85.847 46.607c.227.467.451.926.59 1.428.143.517.15 1.02.196 1.549.027.305.49.316.484 0-.02-1.054-.399-2.306-1.068-3.133-.097-.121-.262.033-.202.156zM72.382 39.447c.685-.468 1.385-.925 2.141-1.271.651-.298 1.483-.371 2.037-.824.087-.071.033-.214-.064-.242-.705-.201-1.496.234-2.122.543a9.877 9.877 0 0 0-2.211 1.512c-.149.134.049.398.219.282zM75.852 44.311c-2.595 2.694-1.779 10.293 2.981 9.702.231-.029.231-.331 0-.359-4.572-.568-4.37-6.031-2.839-9.233.041-.088-.067-.187-.142-.11z"/><path d="M79.125 53.919c1.253.042 2.339-.837 2.97-1.858.494-.8 1.376-2.644.942-3.549-.04-.083-.161-.088-.221-.028-.299.296-.284.637-.376 1.042a9.646 9.646 0 0 1-.547 1.718c-.593 1.36-1.428 1.997-2.792 2.507-.087.033-.077.165.024.168z"/><path d="M76.002 44.276c2.504 1.157 5.519 2.241 6.683 4.967.159.372.709.052.546-.319-1.276-2.922-4.415-3.791-7.169-4.791-.083-.03-.141.106-.06.143z"/><path d="M75.669 44.13l-.018.027c-.15.223.186.476.37.285l.023-.024c.236-.244-.179-.58-.375-.288z"/><path d="M72.653 43.347c.139.132.237.115.431.149.32.056.635.149.943.251.643.213 1.244.558 1.884.756.167.052.297-.174.171-.294-.492-.466-1.297-.718-1.94-.881-.368-.093-1.158-.369-1.489-.092-.032.027-.029.084 0 .111z"/><path d="M68.25 42.536c.935.042 1.89.17 2.802.378.715.163 1.424.417 2.156.471.097.007.121-.128.047-.175-1.421-.892-3.402-1.068-5.026-.827-.09.013-.063.15.021.153z"/><path d="M72.728 43.279c.04.286.196.468.328.721.224.427.322.884.242 1.366-.115.7-.683 1.123-.84 1.766-.022.092.062.189.159.159 1.272-.403 1.598-3.681.245-4.146-.088-.031-.145.059-.134.134zM68.276 42.572c-2.2.741-3.203 6.16-.478 6.844.103.026.21-.092.146-.189-.773-1.158-1.407-1.865-1.214-3.378.171-1.341 1.063-2.066 1.608-3.195.019-.041-.013-.098-.062-.082z"/><path d="M68.155 49.466c1.043.659 2.115.385 3.076-.297.739-.524 2.092-1.772 2.051-2.753-.004-.106-.134-.21-.235-.135-.66.493-.943 1.511-1.539 2.126-.918.948-2.014 1.287-3.271.866-.118-.039-.18.131-.082.193zM73.549 45.791c.461.183.817.844 1.326.833.11-.002.21-.093.207-.207-.016-.677-.963-.79-1.465-.874a.129.129 0 0 0-.068.248zM83.051 49.125c1.482 1.096 3.301 1.733 4.908 2.63 1.447.808 2.835 1.828 4.385 2.422.246.094.47-.285.262-.45-1.46-1.167-3.243-1.992-4.869-2.907-1.456-.819-2.933-1.741-4.614-1.963-.158-.023-.171.195-.072.268z"/><path d="M86.583 50.974c.02 0 .02-.031 0-.031s-.02.031 0 .031zM86.32 54.377c-.121.161-.171.261-.169.456a.142.142 0 0 0 .212.121c.21-.123.25-.25.256-.496.003-.173-.211-.198-.299-.081zM71.968 47.978c-.499.687-.905 1.417-1.427 2.092-.172.222-.345.442-.508.671-.313.441-.257.486-.372.997-.01.046.043.078.078.046.299-.274.45-.331.67-.672.234-.363.473-.723.712-1.083.415-.625.906-1.206 1.153-1.921.068-.194-.202-.274-.306-.13zM72.029 53.647c.422-.098.45.159.758.328.085.047.198.006.224-.091.181-.692-.784-1.065-1.153-.461-.073.118.045.253.171.224z"/><path d="M72.895 54.082c.406.139.861.245 1.223-.041.289-.229.598-.739.377-1.086-.04-.063-.141-.107-.208-.055-.229.177-.196.41-.347.647-.224.351-.601.413-.982.309-.148-.041-.205.177-.063.226zM69.612 51.67c-.202.58-.046 1.308.227 1.844.221.434.707 1.042 1.242.97.072-.01.104-.111.068-.166-.11-.169-.233-.214-.395-.33a2.121 2.121 0 0 1-.616-.731c-.267-.503-.255-1.052-.398-1.587-.018-.067-.108-.06-.128 0z"/><path d="M70.199 53.198c.095.127.162.131.281.256.163.172.1.196.278.308.046.029.114.002.126-.051.08-.342-.287-.728-.636-.633-.047.012-.082.076-.049.12zM68.04 55.6c.686.145 1.386 0 2.083.18.944.244 1.855.845 2.597 1.466.667.559 1.27 1.241 1.684 2.009.227.42.273 1.069.62 1.396.108.101.33.073.359-.095.247-1.445-1.602-3.211-2.614-3.971-1.068-.802-3.47-2.01-4.738-1.058-.024.02-.027.065.009.073z"/><path d="M69.261 55.708c-.268.547-.467 1.652.014 2.13.062.061.192.04.209-.055.056-.323-.084-.608-.108-.937-.026-.364.019-.734.038-1.096.004-.08-.117-.114-.153-.042z"/><path d="M69.301 56.813c.878 1.126 2.887 2.172 4.342 1.793.114-.03.093-.173 0-.211-.638-.261-1.374-.234-2.036-.47-.821-.293-1.442-.764-2.118-1.3-.136-.107-.294.052-.188.188zM69.471 56.046c.144-.103.274-.11.436-.154a.229.229 0 0 0 .16-.16c.018-.079.011-.103-.023-.177-.039-.084-.172-.139-.259-.106-.259.098-.343.245-.446.496-.029.071.071.145.132.101zM67.698 56.612c.363-.629.664-1.311 1.206-1.812.28-.259.593-.46.978-.502.349-.038.668.085 1.015.015.103-.021.114-.147.057-.215-.508-.611-1.561-.311-2.102.11-.699.543-1.13 1.49-1.333 2.33-.025.104.122.172.179.074z"/><path d="M70.97 54.286c.626.162 1.231.039 1.845.351.792.401 1.394 1.108 1.86 1.846.865 1.369.83 2.683 1.238 4.163.019.069.106.072.143.019.953-1.364-.41-3.758-1.254-4.865-.658-.863-2.708-2.827-3.863-1.63-.037.036-.022.103.031.116z"/><path d="M75.063 61.387c.437-.204.917-.719.739-1.248-.016-.047-.074-.066-.111-.029-.158.156-.239.376-.37.558-.138.193-.25.402-.376.602-.049.077.046.15.118.117zM68.376 59.61c.548.849 1.295 1.503 2.244 1.876.831.326 2.08.596 2.921.222.14-.062.086-.268-.04-.307-.796-.246-1.672-.061-2.496-.317-.973-.302-1.738-.912-2.482-1.587-.075-.07-.207.019-.147.113zM68.727 55.47c-.726 1.378.129 3.137 1.27 3.989 1.413 1.055 3.283 1.29 4.924.658.22-.085.203-.427-.058-.43-.695-.006-1.338.28-2.049.252-.737-.029-1.489-.219-2.121-.607a3.684 3.684 0 0 1-1.391-1.596c-.34-.745-.228-1.463-.355-2.237-.015-.104-.174-.116-.22-.029zM67.415 49.283c-1.309 2.874-2.409 7.138-.628 10.03.077.126.253.04.228-.096-.294-1.66-.765-3.219-.596-4.932.167-1.696.787-3.275 1.217-4.909.034-.128-.162-.222-.221-.093z"/><path d="M66.91 58.751c-.592 2.489.29 5.282 2.821 6.239 2.623.993 6.859.343 8.338-2.256.051-.09-.074-.194-.147-.114-1.879 2.066-4.909 2.779-7.606 1.973-2.764-.826-3.01-3.343-3.183-5.813-.009-.12-.192-.16-.223-.029z"/><path d="M68.778 65.492c3.042 2.768 9.543 1.594 10.91-2.437.075-.22-.275-.371-.378-.16-1.892 3.857-6.891 4.393-10.385 2.406-.117-.066-.252.096-.147.191zM89.59 58.143c1.221-.267 1.82-1.326 2.003-2.481.159-1.008-.927-1.573-1.748-.965-.077.057-.053.176.049.182.407.023.95-.235 1.275.116.258.279.211.784.059 1.094-.342.7-1.031 1.473-1.753 1.783-.16.069-.041.305.115.271z"/><path d="M88.455 56.214c.143.051.471.068.559.196.117.17-.024.446-.113.585a1.981 1.981 0 0 1-.588.576c-.185.121-.408.163-.578.3-.055.044-.023.142.041.157.626.141 1.387-.789 1.633-1.272.345-.677-.41-1.159-.984-.77-.092.062-.073.191.03.228zM86.835 57.309c.32.369.958.216 1.132-.209.038-.092-.055-.171-.136-.178-.285-.026-.583.083-.875.094-.154.005-.218.181-.121.293zM86.085 58.113c.098.385.336.657.748.676a.242.242 0 0 0 .213-.122l.033-.065c.031-.062.019-.118-.022-.17-.191-.242-.465-.117-.622-.466-.092-.203-.402-.056-.35.147zM74.357 52.512c.126.907.128 2.033.519 2.87.053.112.213.047.218-.059.045-.922-.321-1.973-.497-2.877-.03-.161-.262-.089-.24.066zM68.816 52.588c.327-.093.969-.397 1.055-.747a.108.108 0 0 0-.074-.13c-.409-.129-.965.43-1.053.805-.01.042.028.084.072.072z"/><path d="M73.49 51.636c.236.177.425.387.528.667.066.178.085.355.171.525.04.079.145.046.171-.022.21-.547-.328-1.107-.748-1.379-.134-.087-.244.118-.122.209zM70.69 70.626c.45.34 1.26.583 1.582-.051.053-.105-.013-.214-.128-.223-.465-.037-.774.141-1.233-.103-.255-.136-.441.211-.221.377zM68.039 63.908c-.279.966-.517 1.833-1.006 2.731-.36.661-.885 1.346-.966 2.11-.011.103.123.132.187.077.726-.622 1.215-1.741 1.602-2.6.305-.677.654-1.584.395-2.319-.036-.098-.181-.107-.212.001z"/><path d="M66.988 67.019c.064 0 .064-.1 0-.1s-.064.1 0 .1z"/><path d="M66.914 66.925c-1.4 2.087-2.096 4.829-1.918 7.334.073 1.023.273 2.013.942 2.825.943 1.145 2.383 1.577 3.175 2.926.08.136.326.046.264-.111-.85-2.16-3.347-2.615-3.83-5.084-.498-2.549.324-5.543 1.515-7.803.052-.098-.086-.178-.148-.087z"/><path d="M69.183 81.224c1.064-4.069 6.096-3.978 8.89-6.327 1.982-1.667 4.902-4.522 4.174-7.383-.095-.375-.672-.217-.58.16.976 3.999-5.073 7.623-8.025 8.926-2.166.956-4.398 2.016-4.728 4.588-.02.154.23.182.269.036z"/><path d="M81.974 66.881c1.3.846 1.76 2.111 2.13 3.586.203.808.157 2.634.776 3.203.068.062.194.061.239-.031.237-.475-.037-1.14-.129-1.633-.174-.932-.372-1.865-.676-2.764-.324-.957-.99-2.72-2.265-2.645a.154.154 0 0 0-.075.284z"/><path d="M84.676 73.156c-.006 3.775.46 7.175-.455 10.924-.014.056.063.089.093.039 1.903-3.164 1.388-7.527.792-11.021-.043-.247-.43-.183-.43.058z"/><path d="M76.309 79.722c-.53-2.071 2.467-.572 3.305-.098 1.988 1.124 3.782 2.893 4.421 5.119.064.224.422.187.414-.056-.087-2.862-3.726-5.306-6.092-6.318-1.438-.615-3.575-.568-2.241 1.434.065.098.223.038.193-.081zM57.628 76.983c1.008-1.236 3.199-1.633 4.673-1.226.291.08.417-.377.125-.452-1.86-.475-3.858-.106-4.969 1.546-.069.102.092.229.171.132z"/><path d="M62.434 74.812c-.139 1.626-.48 3.658.836 4.929 1.562 1.509 3.966.832 4.797 3.221.077.223.405.188.414-.056.059-1.472-1.216-1.964-2.401-2.408-1.537-.577-3.098-.958-3.331-2.934-.111-.937.124-1.854-.146-2.775-.029-.096-.161-.071-.169.023zM57.264 77.026c1.581-1.982 2.976-4.085 4.652-6.002 1.366-1.562 3.624-5.326 5.915-5.399.322-.01.32-.521 0-.5-2.449.16-3.703 2.662-5.175 4.349-1.981 2.271-4.427 4.606-5.602 7.43-.046.114.134.217.21.122zM70.332 82.198c.525-.708 1.319-1.352 2.159-1.645.608-.212 1.394-.113 1.932-.446.183-.113.213-.42 0-.526-.721-.359-1.718.176-2.366.521-.866.462-1.54 1.059-1.975 1.95-.083.17.14.294.25.146z"/><path d="M67.314 87.422c.219-.952.426-1.911.689-2.852.228-.814.742-1.635.751-2.476.001-.132-.15-.171-.24-.099-.645.516-.909 1.634-1.129 2.405a10.93 10.93 0 0 0-.416 2.975c-.001.195.3.243.345.047zM84.644 71.652c2.112 2.991 5.148 4.977 8.18 6.938 3.494 2.258 6.655 4.467 9.417 7.584.13.147.354-.011.313-.182-.67-2.842-4.806-5.147-7.073-6.654-3.698-2.458-7.51-4.584-10.494-7.951-.162-.183-.487.061-.343.265zM56.833 70.393c-2.745-.237-7.42 1.032-8.555 3.856-.152.378.46.542.61.168 1.097-2.728 5.479-3.244 7.984-3.732.175-.034.117-.278-.039-.292z"/><path d="M48.762 73.677c-.781 4.169-.869 8.618-1.142 12.847-.264 4.09-.56 8.366.131 12.427.025.147.25.106.253-.034.104-4.139-.074-8.251.187-12.393.265-4.222 1.056-8.59.802-12.816-.008-.124-.205-.168-.231-.031zM56.125 70.777c1.263.014 2.631-.331 3.879-.54 1.123-.188 2.515-.334 3.347-1.178.184-.187-.002-.504-.255-.437-1.268.333-2.36.901-3.685 1.108-1.104.172-2.394.17-3.364.763-.127.079-.075.283.078.284z"/><path d="M41.135 91.469c1.931-2.313 3.178-5.436 4.403-8.171a118.753 118.753 0 0 0 3.403-8.431c.108-.3-.392-.517-.521-.22-1.253 2.892-2.281 5.871-3.58 8.745-1.205 2.666-2.916 5.231-3.829 8.004-.022.069.077.13.124.073zM58.438 97.269c.508.59 1.28.927 1.894 1.397.623.478 1.235 1.049 2.024 1.219.247.053.4-.277.175-.414-.693-.422-1.474-.68-2.147-1.147-.597-.414-1.135-1.023-1.861-1.199-.088-.02-.14.08-.085.144zM63.057 99.224c.209-.261.476-.501.472-.849-.001-.085-.096-.142-.17-.098-.263.157-.392.427-.584.665-.159.199.121.482.282.282z"/><path d="M62.625 100.013c2.383.309 4.633.702 6.753 1.862.244.134.479-.177.293-.38-1.531-1.676-4.928-2.058-7.046-1.841-.233.023-.228.329 0 .359z"/><path d="M73.353 107.464c-1.004-3.252-3.295-6.134-5.683-8.469-.145-.141-.418.052-.288.223 2.114 2.781 4.07 5.422 5.27 8.695.206-.186.439-.337.701-.449zM80.945 103.305c-1.618-3.844-3.832-8.063-6.713-10.872-.089-.086-.206.041-.133.133 1.483 1.864 2.771 3.841 3.831 5.976.819 1.649 1.538 3.431 2.494 5.034.162-.112.336-.202.521-.271z"/><path d="M64.099 86.823c1.755 1.131 3.68 1.982 5.454 3.087 1.763 1.097 3.448 2.316 5.174 3.468.272.182.619-.254.355-.46-3.186-2.493-7.079-4.928-10.881-6.337-.146-.055-.223.164-.102.242zM58.749 97.409c.085-.309.067-.639.118-.958.038-.237.063-.438.026-.677-.008-.051-.073-.054-.104-.028-.447.364-.551 1.2-.275 1.693.054.098.206.076.235-.03z"/><path d="M57.626 94.874c1.067 1.097 3.368 1.874 4.874 1.731.117-.011.145-.168.028-.207-.807-.273-1.642-.422-2.446-.735-.788-.307-1.49-.814-2.285-1.083-.172-.058-.288.174-.171.294z"/><path d="M58.149 94.979c.128-.249.156-.517.246-.78.092-.271.268-.492.242-.783-.007-.077-.084-.169-.173-.132-.545.229-.752 1.186-.531 1.695.037.086.176.078.216 0z"/><path d="M58.291 93.401c1.36.129 2.979-.202 4.305-.493.225-.049.18-.427-.055-.407a29.674 29.674 0 0 0-4.279.685c-.127.03-.087.204.029.215zM62.906 93.01c.402.507 1.253.826 1.885.822.065 0 .116-.094.058-.14-.483-.382-1.202-.792-1.814-.904-.136-.025-.212.117-.129.222zM63.078 96.503c.585.153 1.427.379 1.983.06.086-.049.069-.156 0-.209-.498-.378-1.354-.268-1.936-.196-.183.022-.254.29-.047.345z"/><path d="M58.574 93.002c.101-.371.041-.771.026-1.151-.013-.331-.039-.638-.18-.944-.033-.072-.139-.06-.175 0-.335.555-.277 1.576.029 2.134.069.125.264.095.3-.039z"/><path d="M58 91.513c.532-.068 1.004-.616 1.43-.907.294-.201.593-.396.901-.577.248-.145.511-.227.658-.48.073-.126-.023-.258-.155-.27-.553-.052-1.3.647-1.722.96-.391.291-1.083.68-1.164 1.205-.005.03.013.074.052.069zM61.666 89.367c.264-.002.613.174.841.009.041-.03.066-.086.035-.134-.182-.277-.628-.165-.907-.106-.131.028-.1.232.031.231zM63.017 89.519c.395.292.798.569 1.224.815.341.197.689.424 1.093.408.089-.004.146-.097.101-.176-.197-.35-.566-.529-.904-.728a20.357 20.357 0 0 0-1.297-.69c-.252-.125-.438.208-.217.371zM50.036 88.069c.474.62 1.901.384 2.586.397 1.299.026 3.028.413 4.277.078.076-.02.087-.125.021-.164-.978-.593-2.606-.361-3.706-.389-.789-.02-2.485-.426-3.158.003-.023.015-.039.051-.02.075z"/><path d="M56.526 88.431c.55.423 1.289.495 1.955.618.679.125 1.369.281 2.06.307.313.012.365-.453.073-.537-.73-.211-1.509-.273-2.256-.41-.599-.11-1.196-.288-1.805-.186-.109.019-.094.156-.027.208zM57.708 86.265c2.052-.011 4.085.358 6.125.358.231 0 .284-.348.055-.407-1.974-.507-4.215-.569-6.217-.228-.159.028-.118.278.037.277z"/><path d="M50.083 86.794c1.224.035 2.464-.363 3.703-.409a33.64 33.64 0 0 1 3.797.062c.305.023.307-.46 0-.477-1.426-.079-2.865-.126-4.29.007-1.049.098-2.336.098-3.254.657-.073.045-.041.158.044.16z"/><path d="M50.24 86.656c-.448.368-.179 1.244.096 1.638.084.121.215.183.362.147.222-.054.267-.275.192-.471-.078-.204-.229-.359-.279-.582-.05-.221.017-.432-.05-.647-.047-.146-.21-.176-.321-.085zM57.851 86.789l.047-.111c.079-.101.119-.234.045-.353l-.063-.1c-.223-.357-.733.014-.466.36.048.062.137.125.15.205.027.159.241.12.287-.001zM29.214 86.786c.49.559 1.884.606 2.593.662.913.072 2.025.017 2.628-.762.078-.1.012-.296-.141-.242-.999.357-1.847.577-2.924.468-.627-.063-1.555-.479-2.146-.206-.031.015-.029.057-.01.08z"/><path d="M32.353 87.522c2.411 6.584 4.156 13.474 6.226 20.169.029.093.183.081.176-.024-.232-3.483-1.552-6.908-2.483-10.259-.95-3.419-2.036-6.825-3.485-10.069-.107-.245-.527-.071-.434.183zM38.881 83.208c-.333 4.974 1.661 9.659 3.986 13.944 1.292 2.381 2.923 4.671 3.832 7.237.976 2.755.937 5.606 1.026 8.486.005.164.248.206.292.039 1.197-4.581-.293-8.871-2.619-12.811-3.138-5.317-5.903-10.575-5.947-16.895-.002-.37-.546-.363-.57 0z"/><path d="M43.743 97.09c.8.19 1.621.365 2.377.695.876.382 1.362.966 2.019 1.617.185.184.549 0 .457-.266-.623-1.8-3.146-2.357-4.806-2.399-.2-.005-.245.305-.047.353z"/><path d="M48.075 99.284c-.477.458-.533 1.542-.682 2.152-.184.753-.658 1.764-.502 2.534.031.15.232.188.333.088.554-.549.632-1.72.788-2.451.132-.618.531-1.651.278-2.266-.036-.088-.139-.13-.215-.057z"/><path d="M48.037 99.417c.286 2.204 1.002 4.326 1.311 6.531.395 2.811.121 5.332-.411 8.103-.057.295.358.517.514.217 2.2-4.217.504-10.739-1.161-14.884-.048-.122-.273-.125-.253.033zM63.952 99.918c-1.564 5.218-3.615 10.536-4.629 15.885-.065.344.395.465.52.143 1.965-5.053 3.509-10.576 4.705-15.865.087-.386-.481-.545-.596-.163zM27.338 80.213c.515-.401.9-1.032 1.295-1.549.186-.244.345-.504.523-.753.192-.269.392-.444.476-.761.022-.083-.066-.141-.138-.106-.498.245-.916.914-1.241 1.364-.374.519-.843 1.123-1.026 1.74-.021.07.063.103.111.065z"/><path d="M27.087 80.452c.123.353.303.674.592.919.161.137.508.434.741.289.112-.069.127-.164.074-.282-.075-.166-.313-.267-.438-.384a1.968 1.968 0 0 1-.483-.677c-.122-.289-.595-.178-.486.135z"/><path d="M28.598 81.764c.674-.289 1.277-.902 1.873-1.333.548-.396 1.34-.718 1.765-1.238.08-.099.036-.27-.11-.267-.694.017-1.348.601-1.874 1.015-.6.472-1.371 1.04-1.808 1.667-.073.105.063.195.154.156z"/><path d="M31.791 79.694c.433.01.859-.105 1.295-.104.336.001.697.148.991-.041.089-.057.093-.161.031-.239-.241-.3-.76-.219-1.109-.198-.433.027-.911.068-1.285.299-.129.078-.075.279.077.283zM14.695 79.397c1.09-.17 2.165-.412 3.253-.593 1.092-.182 2.261-.158 3.307-.509.151-.051.182-.304 0-.339-2.02-.387-4.765.472-6.618 1.231a.109.109 0 0 0 .058.21z"/><path d="M15.413 79.257c-.143.415-.228.99.194 1.261.063.04.155.001.172-.07.093-.376-.11-.767-.105-1.156.002-.155-.214-.173-.261-.035zM14.033 77.125c-.063.657-.066 1.981.647 2.327.091.044.206-.008.206-.118-.001-.339-.227-.627-.336-.942a4.282 4.282 0 0 1-.251-1.266c-.006-.175-.25-.169-.266-.001z"/><path d="M14.333 77.245c1.285-.147 2.553-.667 3.823-.943 1.256-.272 2.73-.33 3.867-.941.12-.065.055-.231-.065-.24-1.278-.098-2.705.371-3.948.652-1.24.28-2.694.538-3.717 1.327-.052.04-.047.155.04.145z"/><path d="M20.882 75.492c1.082.354 2.487-.028 3.593-.175 1.247-.165 2.831-.189 3.946-.807.164-.091.074-.312-.089-.328-1.328-.127-2.86.348-4.178.515-1.035.131-2.372.078-3.298.601-.081.048-.058.167.026.194z"/><path d="M28.125 74.475c.59.328 1.285.443 1.912.69.664.261 1.305.854 1.978 1.013.068.016.145-.046.12-.12-.219-.643-1.098-1.025-1.677-1.275-.694-.3-1.488-.612-2.25-.613-.16-.001-.226.225-.083.305zM15.624 80.765c.774.027 1.55-.193 2.313-.312.869-.136 1.751-.188 2.616-.341.235-.042.164-.388-.054-.399-.769-.039-1.554.096-2.314.217-.86.137-1.793.226-2.598.559-.141.058-.132.271.037.276zM19.703 78.593c.176.38.785.741 1.221.622a.497.497 0 0 0 .241-.798c-.053-.061-.144-.034-.184.024-.029.042-.059.152-.088.188-.164.199-.19.138-.399.046-.25-.11-.424-.23-.703-.235-.083-.001-.119.086-.088.153z"/><path d="M20.487 79.948l.021.031c.04.06.111.116.188.108 1.349-.142 2.572-.232 3.928-.103.271.026.307-.387.062-.46-1.198-.36-2.937-.341-4.1.157-.067.029-.109.119-.108.188 0 .019-.004.059.009.079zM24.309 80.875a2.278 2.278 0 0 0-.029-.175c-.006-.03-.055-.03-.06 0-.014.07-.02.107-.028.175-.01.075.126.075.117 0z"/><path d="M24.214 80.839c-.233.264-.319.61-.4.944-.092.381-.285 1.026.017 1.345.057.06.147.037.19-.025.201-.29.102-.791.124-1.133.018-.272.001-.826.149-1.069.029-.049-.041-.106-.08-.062z"/><path d="M23.914 82.333c-.054.668.502 1.352.913 1.829a7.634 7.634 0 0 0 1.916 1.605c.299.172.529-.256.264-.452-.613-.452-1.225-.88-1.762-1.426-.483-.491-.749-1.11-1.184-1.618-.053-.06-.141-.005-.147.062z"/><path d="M26.448 85.283c1.117.642 3.623.843 4.507-.286.061-.078.024-.186-.08-.193-.729-.051-1.431.278-2.167.304-.73.026-1.44-.146-2.167-.166-.183-.006-.248.252-.093.341zM30.729 83.742l.118-.026c.048-.011.048-.087 0-.098a4.084 4.084 0 0 0-.118-.026c-.126-.029-.127.179 0 .15z"/><path d="M30.575 83.667c.07.547-.063 1.176.13 1.702.04.11.176.129.243.032.346-.503.149-1.315-.125-1.801-.061-.107-.265-.069-.248.067z"/><path d="M29.55 83.378c.334.194.882.588 1.273.447.063-.023.101-.081.085-.149-.112-.472-.865-.604-1.283-.575-.141.01-.209.199-.075.277z"/><path d="M27.002 83.393c.439.161.959.059 1.42.05.482-.009 1 .047 1.471-.061.223-.051.2-.367 0-.429-.486-.152-1.07-.095-1.572-.066-.45.026-.956.001-1.354.235-.118.069-.082.228.035.271z"/><path d="M26.626 83.401c-.099.286-.165.549-.099.846.024.109.167.137.242.064.24-.235.278-.52.28-.852 0-.251-.346-.281-.423-.058z"/><path d="M25.399 81.083c.03.364.286.643.487.941.304.45.614 1.025 1.004 1.403.144.14.447.001.364-.212-.197-.501-.652-.994-.984-1.416-.211-.268-.444-.691-.796-.773-.035-.007-.078.018-.075.057z"/><path d="M24.817 80.527l-.031.009-.017.134c-.107.032.373.462.383.471l.31-.402c-.137-.081-.178-.06-.311-.093-.174-.043-.316-.136-.476-.218l-.092.338c.462-.008 1.05.75 1.484.433.046-.033.081-.091.061-.15-.094-.276-.41-.413-.653-.541-.323-.17-.585-.187-.94-.098-.183.046-.161.295 0 .35.296.102.42.282.669.421.243.136.544-.213.31-.402-.191-.155-.561-.439-.817-.23-.045.037-.015.107.032.122s.094-.012.133-.035c.058-.037.02-.123-.045-.109z"/><path d="M24.941 79.856l-.023-.012a.245.245 0 0 0-.287.037c-.283.244.01.897.219 1.102.087.086.215.038.255-.067.1-.266.032-.668-.077-.93l-.061.231.018-.022c.083-.104.088-.268-.044-.339zM24.052 84.829c.071-.275.177-.536.309-.787.097-.184.16-.25.146-.459-.006-.083-.081-.155-.168-.128-.497.152-.555.894-.563 1.337-.003.158.236.191.276.037z"/><path d="M23.661 84.417c.086.67.358 1.212.732 1.775.257.387.647 1.054 1.148 1.088.059.004.116-.055.113-.113-.022-.438-.501-.797-.762-1.13-.413-.527-.747-1.106-1.144-1.644-.023-.032-.093-.028-.087.024zM25.837 87.301c.266-.423.589-.826.793-1.284.106-.237-.189-.405-.344-.201-.313.411-.478.92-.635 1.407-.036.112.126.173.186.078z"/><path d="M25.744 87.027c.235.471 1.362.255 1.752.21.724-.083 1.647-.172 2.234-.633.143-.112.022-.36-.146-.353-.799.033-1.615.356-2.424.442-.374.04-1.173-.074-1.415.279-.013.017-.01.039-.001.055z"/><path d="M29.424 86.697a1.21 1.21 0 0 0 .498-.601c.097-.254-.008-.418.019-.679.029-.278-.476-.22-.376.051.114.308-.217.748-.387.983-.106.147.1.341.246.246zM21.012 78.288c.475.293 1.319.069 1.863.076.726.01 1.519.195 2.232.081.201-.032.247-.367.059-.45-.678-.298-1.561-.237-2.291-.238-.526-.001-1.502-.122-1.891.31a.142.142 0 0 0 .028.221zM13.472 71.141c.509 1.083 1.316 1.957 2.206 2.743.885.782 1.81 1.585 2.755 2.289.276.206.589-.232.36-.466-.806-.823-1.772-1.534-2.638-2.299-.873-.772-1.732-1.565-2.633-2.305-.029-.023-.065.005-.05.038zM14.656 69.954c1.497 2.016 3.011 4.276 4.902 5.945.259.229.642-.151.381-.381-1.919-1.696-2.994-4.275-5.07-5.778-.123-.09-.305.09-.213.214z"/><path d="M13.798 71.464c.057-.375-.403-.456-.431-.839l-.284.284c.249.013.479.087.721.139.199.043.377-.123.327-.327-.05-.205-.256-.345-.123-.581.074-.131.363-.184.535-.291.151-.094.05-.312-.117-.278-.214.042-.626.224-.701.45-.032.097.073.234.062.33-.016.14-.135.232-.169.369l.327-.186a3.087 3.087 0 0 0-.863-.194c-.146-.01-.294.139-.284.284.025.382.385 1.1.874.965.056-.015.117-.065.126-.125z"/><path d="M13.447 70.5c.038-.327.101-.787.505-.805.267-.012.429.211.704.168.061-.01.099-.089.082-.144-.122-.382-.731-.536-1.087-.395-.458.182-.511.751-.516 1.176-.003.206.29.194.312 0zM21.313 78.772c.176-.183.458-.586.087-.713-.108-.037-.238.025-.294.119-.116.199-.144.361-.026.564.047.081.167.099.233.03zM13.028 69.5c.539-4.377 5.664-4.396 8.891-5.835 3.071-1.369 5.516-4.495 4.314-7.998-.056-.164-.304-.141-.307.042-.05 2.741-.523 5.168-3.024 6.666-1.604.96-3.493 1.365-5.251 1.947-2.593.858-5.087 2.078-5.014 5.179.007.257.361.242.391-.001zM15.841 69.75c.064-1.166.981-2.058 2.086-2.249.366-.063.213-.63-.155-.561-1.31.247-2.188 1.548-2.198 2.809 0 .173.257.171.267.001z"/><path d="M17.151 69.319c1.842-2.02 5.14-.045 7.429-.775 1.89-.602 3.361-2.445 4.289-4.105 2.435-4.355.354-9.505-3.004-12.764-.184-.179-.467.047-.35.27 1.163 2.208 3.037 3.942 3.643 6.454.734 3.046-.795 6.623-3.167 8.565-2.127 1.741-3.998.808-6.41.84-1.234.017-1.949.317-2.676 1.325-.103.144.128.32.246.19z"/><path d="M23.553 65.026c1.301.181 2.533-.854 3.159-1.911.618-1.045 1.075-2.918.466-4.045-.054-.101-.198-.047-.204.055-.031.512.076 1.019.029 1.532-.06.659-.336 1.359-.619 1.953-.619 1.302-1.488 1.84-2.831 2.198-.1.026-.115.202 0 .218zM20.807 61.543c1.351-.995.825-2.377.141-3.66-1.447-2.713-3.732-5.122-1.711-8.176.043-.066-.046-.162-.112-.112-4.525 3.387 4.519 9.158 1.445 11.641-.171.139.058.439.237.307z"/><path d="M20.092 50.748c-.51 1.196-.312 2.326.295 3.454.888 1.652 1.921 2.982 2.538 4.789.034.1.216.129.234 0 .427-3.096-3.507-4.887-2.909-8.176.015-.089-.117-.163-.158-.067zM23.506 51.244c-.201-.774-.252-1.61-.011-2.384.255-.818.832-1.326 1.387-1.936.078-.086.003-.267-.125-.215-1.802.728-2.192 2.985-1.597 4.631.077.214.405.131.346-.096zM29.259 77.575c.947-.426 1.752-.982 2.791-1.212.807-.178 1.725-.005 2.473-.336.091-.04.077-.179 0-.223-.769-.436-1.959-.153-2.784.048-.961.234-2.061.655-2.703 1.434-.135.165.03.376.223.289z"/><path d="M34.242 75.97c.874 1.18 2.166 1.967 2.983 3.228.934 1.44.958 3.035 1.59 4.55.05.121.252.16.286 0 .333-1.556-.632-3.259-1.415-4.548-.788-1.298-1.809-2.892-3.325-3.385-.082-.027-.174.08-.119.155zM25.477 78.682c.325.14 1.034.254 1.337.051.061-.041.073-.105.045-.171-.183-.425-1.04-.472-1.381-.244-.118.078-.158.296-.001.364zM29.831 81.682c.837 1.349 3.53 2.207 5.034 1.81.121-.032.108-.196 0-.234-.775-.271-1.619-.26-2.407-.545-.889-.322-1.546-.86-2.36-1.299-.165-.089-.373.096-.267.268zM26.863 75.833c.022.335-.099.628-.021.96.026.111.15.141.241.098.448-.208.444-.715.295-1.128-.094-.259-.535-.244-.515.07zM70.468 42.591c.86-.62 1.559-1.556 2.321-2.296.421-.409.851-.809 1.289-1.199.34-.303.74-.555.912-.989.05-.126-.093-.224-.202-.202-.457.094-.78.485-1.114.788-.466.423-.925.856-1.373 1.298-.703.692-1.673 1.515-1.988 2.482-.027.082.08.172.155.118zM75.064 93.078c-.262.551.445 1.491.893 1.789.038.025.097-.008.094-.054-.035-.496-.376-1.586-.881-1.778-.036-.014-.09.008-.106.043zM63.624 86.551c.16.187.668.468.912.372.088-.035.157-.12.126-.221-.092-.292-.694-.464-.971-.405-.121.025-.136.173-.067.254zM46.982 33.073v1.486c.596.096 1.084.293 1.463.592s.74.755 1.084 1.372l-1.479.827c-.444-.809-1.025-1.213-1.743-1.213-.445 0-.814.132-1.107.395s-.439.591-.439.985c0 .359.118.657.356.895.232.232.702.508 1.41.826.611.278 1.117.54 1.517.785.398.246.699.482.902.709.57.617.856 1.362.856 2.237 0 .859-.258 1.618-.773 2.275-.511.652-1.193 1.092-2.047 1.319v1.57h-1.327v-1.524c-.991-.162-1.746-.503-2.267-1.024-.521-.521-.905-1.324-1.153-2.411l1.668-.349c.228.769.506 1.317.835 1.646.343.313.801.47 1.372.47.556 0 1.021-.179 1.395-.538.369-.354.554-.812.554-1.373 0-.5-.154-.902-.462-1.206a4.4 4.4 0 0 0-.694-.497 12.166 12.166 0 0 0-1.171-.603c-.981-.44-1.626-.844-1.934-1.213-.49-.551-.735-1.21-.735-1.979 0-.364.058-.703.174-1.016s.284-.598.505-.853c.22-.255.491-.477.814-.664s.69-.333 1.1-.44v-1.486h1.326z"/><path fill="#3F2713" d="M93.932 55.449c.943-2.466 1.521-4.865 1.587-7.503.006-.228-.344-.278-.399-.054-.533 2.177-1.099 4.392-1.92 6.481l-.309.783c.001-.344-.017-.697-.053-1.063-.032-.327-.292-.561-.577-.65a.701.701 0 0 0-.479-.391c-.34-.516-.727-1.087-1.252-1.303-.069-.062-.13-.132-.2-.193a.865.865 0 0 0-.714-.194 6.599 6.599 0 0 0-1.313-.788c-.049-.022-.104-.033-.157-.045l-.016-.018a.73.73 0 0 0-.631-.224c-.029-.017-.061-.025-.092-.037a14.29 14.29 0 0 0-.351-1.567c.033-.671.05-1.347.04-2.022.14-.411.282-.821.425-1.236.18.792 1.49.579 1.472-.245l-.002-.058c.267.016.551-.096.689-.329a3.05 3.05 0 0 0 .297-.748c.338.077.746-.114.863-.484.589-.583 1.088-1.462 1.356-2.412a5.97 5.97 0 0 1-.469 2.719c-.205.477.408 1.12.804.62 2.211-2.791.624-7.007-1.953-9.063-2.099-1.674-5.302-1.658-7.162.15-1.321-2.139-3.755-3.105-6.331-1.974-1.92.843-3.498 2.34-4.812 3.943-.604.737-1.452 1.629-1.974 2.587-.276.295-.474.557-.641.965-.161.396-.361.805-.131 1.201.089.153.311.223.465.122.02-.013.029-.03.047-.043.067.098.187.184.31.172l.081-.008c.067-.007.112-.039.167-.06-.015.059-.036.117-.048.176-.034.172.163.394.339.26.456-.349.843-.805 1.209-1.283 1.201-1.004 2.215-2.213 3.431-3.207.845-.69 1.755-1.332 2.866-1.461 1.133-.132 1.857.447 2.801.946.092.049.19.051.284.032.28.32.824.245.952-.191.015-.053.017-.108.027-.163.009-.002.011-.014.019-.017l.003.001a.725.725 0 0 0 .003.505c-.04.006-.076.001-.118.01-.343.076-.335.605 0 .686 2.55.614 2.986 5.549 2.998 7.563.003.488-.024.972-.063 1.455-.051.198-.109.394-.146.598a11.2 11.2 0 0 0-.179 1.922c-.177 1.06-.375 2.118-.531 3.182-.064.138-.122.281-.19.415-1.415 2.784-2.064 6.288-.736 9.271.009.144.02.288.034.432-.516.549-.758 1.2-.662 1.977-.005.006-.013.009-.018.015-.485-.041-.9.635-.476 1.032l.718.673c.06.056.13.092.202.118.334.371.597.795.811 1.246.2.618.355 1.196.571 1.708l.003.013c.006.027.022.045.031.07.041.092.087.18.133.267a.657.657 0 0 0 .139.549c.125.154.256.286.385.427a.63.63 0 0 0 .09.278c.303.495.674.874 1.08 1.197-.074.256-.008.539.305.699a16.973 16.973 0 0 1 3.125 2.006c.316.37.401.429.837.732.218.152.634.111.806-.104.276-.345.505-.701.713-1.062.007-.005.013-.007.02-.013 3.225-2.973 2.049-7.66 1.202-11.393-.714-3.137-.785-5.59.365-8.598zm-2.833-16.55a.637.637 0 0 0 .087-.111c.323.76.055 1.674-.331 2.554-.017-.289-.051-.576-.082-.864.38-.39.344-1.013.326-1.579zM68.251 64.13c-.226-.859-.535-1.426-1.098-2.107-.018-.022-.039-.032-.058-.05a.502.502 0 0 0 .028-.251l-.023-.149h.003l-.006-.015c-.011-.076-.024-.15-.036-.225a.517.517 0 0 0 .18-.565 19.982 19.982 0 0 0-1.09-3.091.604.604 0 0 0 .061-.252c.045-1.504-.347-2.809.052-4.304.341-1.279.847-2.53 1.27-3.784.131-.389-.167-.643-.486-.667.042-.14.088-.28.126-.421.09-.334-.391-.548-.564-.238-1.412 2.53-2.811 5.826-3.089 8.723-.118 1.232.069 2.301.538 3.435.258.623.61 1.182.818 1.83.303.946.365 2.479-.092 3.66a8.747 8.747 0 0 1-1.043 1.349c-.051.031-.111.053-.166.08a.366.366 0 0 0-.508.032l-.194.19a3.269 3.269 0 0 1-1.131-.067.442.442 0 0 0-.277.027c-.23-.197-.452-.436-.607-.556-.116-.089-.29.087-.203.203.146.195.334.481.553.718-.003.027-.013.053-.012.081a2.199 2.199 0 0 1-.614-.127c-.098-.037-.172.086-.128.166.089.163.204.289.331.397.003.025.004.05.013.072.228.521 1.476 1.529 2.041 1.12.102-.074.165-.189.129-.318-.014-.05-.046-.082-.069-.123.026-.019.048-.04.074-.059a.728.728 0 0 0 .22-.052c.279-.121.51-.363.612-.636.184-.166.366-.333.535-.507.396-.304.715-.717.989-1.17.437.012.796-.342 1.134-.578.2-.14.405-.312.616-.472a.556.556 0 0 0 .513-.328c.014-.007.027-.017.041-.023a.462.462 0 0 0 .259-.316c.253-.065.449-.287.358-.632z"/><path d="M84.639 49.99c.368.068.807.214 1.174.167.176-.023.304-.228.155-.373-.328-.32-.922-.31-1.328-.147-.15.058-.2.316-.001.353z"/><path fill="#26190F" d="M92.602 39.16a.26.26 0 0 0-.458.037c-.123.034-.232.137-.233.275-.014 2.334.208 4.645-.152 6.967-.339 2.19-1.227 4.157-1.79 6.281a20.11 20.11 0 0 0-.564 3.215c-.536 1.665-.473 3.645-.332 5.253.186 2.125.801 4.22.723 6.362-.081 2.211-.819 4.476-1.782 6.444-.177.361-.023.729.352.865l.258.094c.093.312.44.537.77.527.012.057.03.114.063.168.139.223.292.337.448.384.189.135.386.256.601.35.043.023.087.028.13.039a.743.743 0 0 0 1.229-.018c2.847-3.878 2.41-6.162 1.803-10.53-.24-1.727-.685-5.602-.708-7.25.165-.863.647-1.931.917-2.792.464-1.48 1.223-3.735 1.25-5.292.003-.175.217-1.064.083-1.125.302-1.194-1.175-1.462-1.563-2.754a.443.443 0 0 0-.255-.288c.108-.938.14-1.884.083-2.819.4 1.273.438 2.404.404 3.747-.008.308.388.46.6.249 2.168-2.163-.532-6.47-1.877-8.389zM85.27 67.917c-.028-.146-.048-.292-.083-.438a.397.397 0 0 0-.076-.154l-.077-.494c.22.371.447.735.708 1.064.201.253.647-.021.542-.315-1.139-3.181-1.733-6.433-1.548-9.82.171-3.141 1.689-6.024 1.927-9.209.184-2.468.487-5.352-.579-7.659-.723-1.566-1.674-3.456-3.635-2.96-.532.135-.387.889.125.921.894.056 1.748 1.661 2.05 2.365a6.35 6.35 0 0 1 .527 1.933c.164 1.337.1 2.739.068 4.086-.071 2.999-1.031 5.494-1.674 8.35-.52 2.314-.514 5.11.095 7.668a.618.618 0 0 0-.416.28c-.443.742-.792 1.467-.843 2.259a.525.525 0 0 0-.027.267c.007.04.018.08.028.121.014.223.045.451.114.688a.553.553 0 0 0 .632.419c.061.257.144.502.288.706a.48.48 0 0 0 .395.207c.039.11.066.222.107.332.048.13.121.223.202.299.083.391.178.782.303 1.17.007.022.02.034.029.054.003.626-.005 1.251-.033 1.885-.03.695 1.012.677 1.07 0 .042-.482.044-.962.032-1.442.238.311.506.574.813.716.171.079.37-.014.376-.216.023-.776-.581-1.486-.956-2.134-.18-.312-.33-.631-.484-.949zM76.462 60.843c.008-.157.01-.314.001-.467a.505.505 0 0 0-.123-.309.515.515 0 0 0-.017-.103l.02.015c-.083-.326-.19-.598-.486-.772-.182-.107-.38.01-.431.185a.088.088 0 0 0-.01-.006c-.013.053-.012.103-.016.154-.122-.053-.269-.03-.339.162-.095.26-.144.612-.124.943-.01.02-.027.027-.034.051-.108.388-.232.779-.341 1.171a.421.421 0 0 0-.365.306c-.088.275-.181.552-.258.831-.154.298-.308.595-.459.895a.376.376 0 0 0-.242.274l-.02.091a.456.456 0 0 0-.295.211c-.05-.243-.268-.366-.49-.356a.484.484 0 0 0-.212-.115l.038-.629c.021-.344-.238-.499-.5-.482.003-.048.004-.095.008-.143a.417.417 0 0 0-.059-.25.366.366 0 0 0 .208-.128c.135-.161.219-.309.271-.513.112-.445-.527-.742-.757-.319-.013.03-.04.05-.058.076a.305.305 0 0 0-.326.06.713.713 0 0 0-.164.228 2.548 2.548 0 0 1-.012-.361c.023-.395-.496-.544-.743-.329a.289.289 0 0 0-.354.127.859.859 0 0 0-.142.356.513.513 0 0 0-.373-.155.467.467 0 0 0-.241-.122.355.355 0 0 0-.353-.296c-.363-.009-.581.259-.708.599.026-.283.047-.566.081-.848a.316.316 0 0 0-.124-.293.293.293 0 0 0-.035-.173l.008-.357.037-1.219c0-.011-.004-.018-.005-.028.034-.139.048-.288.082-.469.075-.406.2-.796.357-1.177.068-.164-.06-.296-.208-.335.044-.318.083-.637.15-.95.091-.422-.493-.575-.64-.177-.266.72-.705 1.852-.338 2.611a1.918 1.918 0 0 0-.032.357.341.341 0 0 0-.054.168c-.019.446-.09.962-.089 1.456-.206-.683-.44-1.373-.674-2.1-.952-2.962.18-6.104 1.114-8.942.09-.274-.304-.417-.45-.19-1.344 2.094-2.098 4.724-2.134 7.218-.013.901.12 1.597.416 2.436.765 2.169 1.173 3.922 1.195 6.253.005.526.543.631.854.38.002.02-.001.041 0 .061-.011.106-.03.212-.035.319-.013.287-.043.644.104.892-.128.696-.299 1.899.446 1.956.05.004.084-.02.127-.029.034.097.089.19.174.227l.044.019c.147.064.321.069.441-.057a.63.63 0 0 0 .14-.273.388.388 0 0 0 .258-.09c.051-.042.085-.098.126-.149.008.003.017.002.025.005l-.021.063c-.069.19.047.351.206.429.006.048.009.095.028.146.067.18.23.238.402.163a.62.62 0 0 0 .217-.16.117.117 0 0 0 .096-.131c.005-.009.013-.015.018-.024.109.133.285.199.436.139a.446.446 0 0 0 .389.084.439.439 0 0 0 .272-.237l.009.021c.021-.046.037-.093.055-.14a.51.51 0 0 0 .368-.011c.003-.001.004-.004.007-.006.056.007.108.024.175.009.631-.142 1.049-.9 1.351-1.499.067-.084.143-.161.207-.248.308-.214.472-.65.606-1.04 1.137-.268 1.676-1.843 1.875-3.002.403-.511.651-1.368.449-1.938z"/><path fill="#724B2E" d="M85.171 37.156c-.583-.232-1.29-.313-1.898-.123-.517.162-.599.549-.903.951-.136.181.162.407.313.241.222-.244.436-.493.755-.594.495-.157 1.191.007 1.633.224.407.2.686.477.91.796v.003l.057.162c.016.046.052.06.087.059.188.323.338.679.482 1.06.092.245.416.196.445-.06.133-1.206-.812-2.294-1.881-2.719zM79.867 35.062c-1.582-.492-2.905.482-4.023 1.494-.138.125.038.338.194.252.877-.488 1.802-1.042 2.831-1.083 1.337-.054 2.497.825 2.968 2.051.095.248.423.2.453-.061.144-1.278-1.34-2.316-2.423-2.653z"/><path fill="#26190F" d="M81.872 37.307c-1.04-1.821-3.882-1.296-5.483-.569-2.213 1.006-4.958 3.312-5.81 5.589-.093.249.266.438.438.255 2.379-2.535 6.464-7.483 10.348-4.767.316.221.681-.204.507-.508z"/><path d="M95.845 46.576c-.38-4.109-2.328-8.651-5.72-11.176-2.069-1.54-5.346-1.802-6.979-.137-1.497-2.203-3.833-2.931-6.372-1.713-3.579 1.716-5.728 5.413-7.672 8.663-.14.235.216.439.364.213 2.814-4.29 8.008-12.42 13.352-6.767-.423.599-.68 1.376-.668 2.37.004.333.501.331.516 0 .043-.938.261-1.626.583-2.143a.221.221 0 0 0 .13-.22c1.789-2.35 6.414.027 8.089 2.074 1.417 1.733 2.395 3.783 2.976 5.938 1.023 3.794.547 7.344-.781 10.972-1.132 3.092-1.304 6.019-.837 9.277.323 2.257 1.272 4.606 1.283 6.886.011 2.43-1.464 4.367-2.878 6.199-.331.429.402.852.729.426 1.321-1.724 2.629-3.496 2.888-5.717.357-3.064-1.095-6.151-1.338-9.194-.448-5.599 2.853-10.354 2.335-15.951z"/><path d="M85.546 49.696c.56-3.656.906-9.2-3.012-11.102-.113-.055-.246.089-.142.184 4.747 4.33 2.5 11.029 1.015 16.341-1.131 4.044-.409 7.869.942 11.719.14.399.755.241.64-.177-.351-1.278-.967-2.472-1.248-3.771-.334-1.544-.237-3.2-.106-4.766.24-2.877 1.472-5.563 1.911-8.428zM81.507 37.571c-1.224-1.164-3.333-1.081-4.84-.527-.965.355-1.676.921-2.383 1.641-1.223 1.247-2.525 2.498-3.65 3.828-.181.214.098.5.309.309 1.538-1.388 2.757-3.124 4.428-4.372 2.069-1.545 3.718-1.056 6.052-.737.078.012.153-.076.084-.142zM67.96 49.1c-.117-.243-.409-.436-.588-.646-.175-.204-.363-.435-.585-.591-.093-.066-.244.045-.201.154.186.473.525 1.628 1.231 1.433.158-.044.209-.214.143-.35zM76.522 59.315c-.038-.232-.412-.175-.407.055a9.57 9.57 0 0 1-1.151 4.849c-.103-.107-.299-.103-.381.038-.163.279-.312.556-.453.837a.229.229 0 0 0-.297.096c-.567.914-1.253 2.722-2.207 3.261-.238.134-.077.502.184.435 1.292-.328 1.643-1.736 2.158-2.871.134.068.314.042.364-.142a2.64 2.64 0 0 1 .323-.869c.063.263.417.183.501-.018.8-1.913 1.717-3.547 1.366-5.671z"/><path fill="#724B2E" d="M70.175 61.797a4.045 4.045 0 0 0-.185.513c-.03-.135-.239-.17-.3-.009-.016.032-.017.068-.028.102-.014-.076-.062-.145-.161-.145a.16.16 0 0 0-.121.052l-.041-.083c-.03-.116-.131-.161-.229-.15-.071-.192-.423-.241-.471.013-.019.1-.031.201-.047.301a.223.223 0 0 0-.157-.087c.016-.127.026-.255.035-.399.013-.204-.327-.254-.361-.049-.005.033-.003.06-.008.092-.133-.1-.397-.052-.401.176l-.006.294c-.03-.023-.071-.031-.091.008-.01.02-.012.043-.022.064-.005-.035-.003-.071-.011-.106.005-.007.017-.006.02-.014.11-.28.12-.571.086-.87-.014-.117-.177-.155-.215-.029a2.027 2.027 0 0 0-.057.283c-.035-.018-.072-.012-.109-.014.01-.062.016-.124.032-.185.036-.136-.041-.225-.139-.252.03-.155.054-.311.101-.464.045-.146-.175-.202-.226-.062a4.386 4.386 0 0 0-.229.882c-.07.221-.097.437-.026.677.033.111.146.152.244.132.005.039-.001.075.01.116.029.107.124.144.213.131 0 .104.003.209.004.321.003.344-.006.688.044 1.029.001.01.01.014.014.022a1.853 1.853 0 0 0-.003.247c-.051.018-.093.061-.081.139.032.208.059.415.111.619.028.11.203.089.199-.027-.001-.046-.011-.09-.014-.136.115.063.289.027.314-.121l.001-.017c.031.095.12.15.216.157-.027.129-.059.258-.067.387-.088.024-.128.098-.141.175-.392.305.004 1.248.357 1.439.012.006.023.005.035.009a1.78 1.78 0 0 0 .044.483c.017.067.07.093.125.089a.576.576 0 0 0 .007.266c.037.146.224.15.3.039.132-.193.119-.307.09-.541-.012-.099-.119-.173-.204-.143.07-.302.11-.612.156-.921.013-.014.031-.018.041-.04.212-.456.258-.932.293-1.428a.255.255 0 0 0-.088-.212c.219-.551.324-1.163.507-1.726.047-.146-.101-.225-.214-.186.003-.023.012-.043.014-.066a.144.144 0 0 0 .032-.023.159.159 0 0 0 .134.068.159.159 0 0 0 .116-.05c-.001.007-.005.013-.005.019-.026.15.184.268.264.111a1.42 1.42 0 0 0 .083-.186c.022.122.172.184.256.059.141-.211.214-.442.3-.68.077-.216-.255-.296-.34-.093z"/><path fill="#3F2713" d="M71.438 63.598a4.47 4.47 0 0 1 .028-.465.196.196 0 0 0-.052-.152c.007-.139.016-.276.006-.43-.03-.471-.664-.452-.719 0v.001a1.277 1.277 0 0 0-.137.172.371.371 0 0 0-.259.097.425.425 0 0 0-.16-.052.48.48 0 0 1-.116-.097c.02-.029.041-.052.061-.084.217-.351-.28-.729-.568-.438-.15.151-.274.314-.38.486-.141.15-.277.301-.352.555-.131.444-.161.956-.165 1.445-.027.677.029 1.369.061 2.002.002.037.016.065.025.096-.049.392-.092.786-.133 1.181-.043.417.633.602.805.218.058-.129.096-.265.148-.396.087.064.205.089.299.023l.012-.01c.058.037.124.06.198.063-.022.482.839.47.779-.021-.025-.207-.038-.411-.057-.614.136.022.273-.026.307-.205a6.43 6.43 0 0 0 .093-.774.364.364 0 0 0 .111-.178c.199-.688.355-1.378.47-2.085a.294.294 0 0 0-.305-.338z"/><path fill="#724B2E" d="M69.961 62.199c-.014.022-.02.046-.033.069-.1-.082-.242-.113-.358-.037-.189.125-.321.233-.363.417a.367.367 0 0 0-.017.14c-.009.006-.021.005-.03.013-.144-.164-.427-.129-.554.058-.146-.039-.314.008-.352.188-.105.491-.204.977-.249 1.478-.033.364.501.517.697.239.204.059.463-.018.533-.259.131-.447.234-.906.312-1.366.156.135.42.147.573.024a.265.265 0 0 0 .19-.156c.086-.191.154-.372.203-.576.102-.288-.364-.542-.552-.232z"/></svg>