<?xml version="1.0" encoding="utf-8"?>
<!-- Generator: Adobe Illustrator 21.0.2, SVG Export Plug-In . SVG Version: 6.00 Build 0)  -->
<svg version="1.1" id="Layer_1" xmlns="http://www.w3.org/2000/svg" xmlns:xlink="http://www.w3.org/1999/xlink" x="0px" y="0px"
	 viewBox="0 0 110.8407 128.0172" style="enable-background:new 0 0 110.8407 128.0172;" xml:space="preserve">
<style type="text/css">
	.st0{fill:#FFB43B;}
	.st1{fill:#8B4CC1;}
	.st2{fill:#6C2EAF;}
	.st3{fill:#A86AEA;}
	.st4{fill:#DDDDDD;}
	.st5{fill:#C1B6B4;}
	.st6{fill:#FFFFFF;}
	.st7{fill:#83CAFF;}
	.st8{fill:#FFD400;}
	.st9{fill:#E58F28;}
	.st10{fill:#F9214A;}
	.st11{fill:#3B94FF;}
	.st12{fill:#76DFFF;}
	.st13{fill:#FF6187;}
	.st14{fill:#A8A8A8;}
	.st15{fill:#4181CE;}
	.st16{fill:#FFF206;}
	.st17{fill:#A03ADB;}
	.st18{fill:#604F4A;}
	.st19{opacity:0.13;enable-background:new    ;}
</style>
<g id="Layer_63_2_">
	<polygon class="st0" points="110.7803,32.088 110.7803,96.088 55.3603,128.088 11.0103,102.488 10.8103,102.368 -0.0697,96.088 
		-0.0697,32.088 55.3603,0.088 	"/>
</g>
<path class="st1" d="M101.8725,37.7075v53.14l-0.01,0.01l-1.09,0.62l-0.33,0.19l-0.13,0.07l-0.88,0.51l-3.14,1.81l-0.2,0.12
	l-1.9301,1.11l-0.16,0.09l-1.48,0.86l-0.47,0.27l-0.14,0.08l-0.47,0.27l-0.24,0.13l-0.03,0.01l-0.1,0.04l-0.11,0.07l-2.46,1.41
	l-0.57,0.33l-0.82,0.47l-1.05,0.6l-0.04,0.03l-1.23,0.71l-0.45,0.26l-0.02,0.02h-0.01l-1.54,0.89l-0.87,0.52l-0.16,0.09l-1.1,0.63
	l-0.05,0.03l-0.07,0.04l-0.08,0.05l-0.41,0.24l-0.03,0.01l-0.05,0.03l-0.05,0.02l-0.06,0.04v0.01l-0.78,0.45l-0.18,0.09l-0.02,0.02
	l-0.04,0.02l-1.01,0.58l-0.14,0.08l-0.15,0.09l-0.05,0.03l-0.3199,0.1801l-0.2401,0.14h-0.0099l-0.07,0.04l-0.64,0.38l-0.2,0.12
	l-0.33,0.19l-0.25,0.14c0,0.01-0.0099,0.01-0.0099,0.01l-0.47,0.27l-0.42,0.24l-0.04,0.03l-0.5699,0.33l-2.33,1.34l-0.63,0.36
	l-0.06,0.03l-3.5,2.03l-0.02,0.01l-0.01,0.01l-0.4,0.23l-0.35,0.2l-0.5,0.29l-0.14,0.08l-1.25,0.72l-0.98,0.57l-0.39,0.22
	l-0.01,0.01l-0.43,0.25l-0.4,0.23l-2.36,1.36l-0.36,0.21l-0.04,0.02l-0.18,0.1l-0.5,0.29l-1.87,1.08l-0.56,0.32h-0.01l-0.32,0.19
	l-0.48,0.28l-0.14-0.08l-1.28-0.74l-0.85-0.4901l-0.03-0.0099l-0.91-0.53l-0.17-0.1l-0.05-0.03l-0.18-0.1l-0.4301-0.25l-0.17-0.1
	l-3.36-1.94l-0.04-0.03l-2.07-1.19l-4.75-2.76l-0.61-0.35l-0.6899-0.39l-0.9301-0.54l-0.22-0.12l-0.09-0.06l-0.03-0.02l-2.23-1.29
	l-1.22-0.71l-0.37-0.21l-0.39-0.22l-0.08-0.05l-0.15-0.08l-0.26-0.15l-0.24-0.15l-0.09-0.05l-0.35-0.2l-0.08-0.05l-0.08-0.04
	l-0.04-0.03l-1.3-0.74l-0.05-0.03l-0.15-0.08l-0.37-0.22l-1.71-0.99l-2.5099-1.46l-2.09-1.2l-0.82-0.47l-0.09-0.05l-0.5-0.29
	l-0.01-0.01l-0.21-0.12h-0.01l-1.04-0.6c-0.01-0.01-0.01-0.01-0.02-0.01l-1.86-1.08l-1.02-0.59l-1.33-0.77l-0.72-0.43l-0.04-0.02
	l-0.02-0.01l-0.29-0.17c0,0-0.01,0-0.02-0.01l-0.26-0.15l-0.02-0.0099l-3.3-1.9l-3.41-1.97l-0.09-0.05l-0.08-0.04l-0.03-0.02v-53.14
	l5.66-3.2599l0.77-0.46h0.01l0.25-0.14l0.58-0.33l1.75-1.0099l2.27-1.31l0.82-0.48l0.15-0.09l2.07-1.19l0.98-0.57l1.01-0.59
	l0.42-0.24l0.45-0.26l0.25-0.14c0.01,0,0.01,0,0.01,0l0.57-0.33l3.23-1.86l1.58-0.92l0.17-0.09l1.66-0.95l0.78-0.45l0.38-0.22
	l0.44-0.26l1.1-0.65l0.52-0.3l2.28-1.3l0.69-0.41l1.4-0.8h0.01l0.05-0.03l5.72-3.3l0.19-0.11l0.27-0.16l2.86-1.65l3.21-1.86
	l1.44-0.83l1.06,0.62l6.49,3.75l2.6,1.5l3.95,2.28l1.34,0.77l6.64,3.83l1.04,0.61l2.3,1.3101l0.87,0.5l1.52,0.8799l1.37,0.79
	l0.8,0.46l0.09,0.06l1.81,1.04l3.78,2.18l0.04,0.03v0.01l0.26,0.14l0.26,0.16l0.4,0.23l0.92,0.53l0.54,0.31l0.02,0.01l1.92,1.11
	l0.78,0.44l0.44,0.25l1.94,1.1201L101.8725,37.7075z"/>
<path class="st2" d="M61.1825,37.0208l-27.59-0.2033l10.33,24.01c-0.67,0.29-1.38,0.54-2.1,0.7599
	c-12.48,3.84-25.61-1.59-31.95-12.38v-11.5l5.66-3.2599l0.77-0.46h0.01l0.25-0.14l0.58-0.33l1.75-1.0099l2.27-1.31l0.82-0.48
	l0.15-0.09l2.07-1.19l0.98-0.57l1.01-0.59l0.42-0.24l0.45-0.26l0.25-0.14c0.01,0,0.01,0,0.01,0l0.57-0.33l3.23-1.86l1.58-0.92
	l0.17-0.09l1.66-0.95l0.78-0.45l0.38-0.22l0.44-0.26l1.1-0.65l0.52-0.3l2.28-1.3l0.69-0.41l1.4-0.8h0.01l0.05-0.03l5.72-3.3
	l0.19-0.11l0.27-0.16l2.86-1.65c4.06,3.31,7.21,7.82,8.8701,13.21C61.2325,30.7375,61.5525,33.4108,61.1825,37.0208z"/>
<polygon class="st2" points="101.8725,67.0175 101.8725,90.8475 101.8625,90.8575 100.7725,91.4775 100.4425,91.6675 
	100.3125,91.7375 99.4325,92.2475 96.2925,94.0575 96.0925,94.1775 94.1625,95.2875 94.0025,95.3775 92.5225,96.2375 
	92.0525,96.5075 91.9125,96.5875 91.4425,96.8575 91.2025,96.9875 91.1725,96.9975 91.0725,97.0375 90.9625,97.1075 
	88.5025,98.5175 87.8525,98.5175 87.8525,67.0175 "/>
<path class="st3" d="M48.9217,68.4161H16.0783c-0.6472,0-1.1768-0.5296-1.1768-1.1768l0,0c0-0.6472,0.5296-1.1768,1.1768-1.1768
	h32.8435c0.6472,0,1.1768,0.5296,1.1768,1.1768l0,0C50.0985,67.8865,49.569,68.4161,48.9217,68.4161z"/>
<path class="st3" d="M48.9217,73.7652H16.0783c-0.6472,0-1.1768-0.5296-1.1768-1.1768l0,0c0-0.6472,0.5296-1.1768,1.1768-1.1768
	h32.8435c0.6472,0,1.1768,0.5296,1.1768,1.1768l0,0C50.0985,73.2356,49.569,73.7652,48.9217,73.7652z"/>
<path class="st3" d="M48.9217,79.1143H16.0783c-0.6472,0-1.1768-0.5296-1.1768-1.1768l0,0c0-0.6472,0.5296-1.1768,1.1768-1.1768
	h32.8435c0.6472,0,1.1768,0.5296,1.1768,1.1768l0,0C50.0985,78.5847,49.569,79.1143,48.9217,79.1143z"/>
<path class="st3" d="M48.9217,84.4634H16.0783c-0.6472,0-1.1768-0.5296-1.1768-1.1768l0,0c0-0.6472,0.5296-1.1768,1.1768-1.1768
	h32.8435c0.6472,0,1.1768,0.5296,1.1768,1.1768l0,0C50.0985,83.9338,49.569,84.4634,48.9217,84.4634z"/>
<path class="st3" d="M48.9217,89.8125H16.0783c-0.6472,0-1.1768-0.5296-1.1768-1.1768l0,0c0-0.6472,0.5296-1.1768,1.1768-1.1768
	h32.8435c0.6472,0,1.1768,0.5296,1.1768,1.1768l0,0C50.0985,89.2829,49.569,89.8125,48.9217,89.8125z"/>
<g>
	<path class="st4" d="M84.1703,57.2913c-0.0832-1.5548-2.2664-1.4635-2.4124,0.0071c-0.0152-0.2492-0.0264-0.5017-0.0423-0.7502
		c-0.0959-1.491-2.1899-1.3755-2.2826,0.0703c-0.4546,7.0955-0.5621,14.4846-0.3228,21.7189
		c-0.6521-0.0587-1.3111,0.2637-1.6362,0.8719c-0.1724,0.3227-0.2366,0.7004-0.197,1.0623
		c-6.9066-0.4102-13.9112-0.1146-20.8157-0.1153c-7.5491-0.0008-15.2776-0.4685-22.8009,0.1446
		c-0.1621,0.0132-0.2956,0.0588-0.4211,0.1113c-0.1891-0.2807-0.3855-0.5571-0.5947-0.8256
		c-0.5045-1.4967-1.0961-2.9309-1.8047-4.3333c0.1146-1.0089,0.1521-2.0037,0.1397-2.9956
		c0.3772-0.1948,0.6558-0.5623,0.6375-1.1063c-0.2219-6.5865,0.2791-13.2546,0.1015-19.8582
		c0.7605-0.1551,1.3986-0.5679,2.1484-0.8726c1.0066-0.4091,2.1199-0.5423,3.1742-0.7776c0.2004-0.0447,0.3533-0.1369,0.4823-0.2476
		c3.9711,0.4728,8.0812,0.1905,12.0678,0.1868c4.7283-0.0044,9.5353,0.2052,14.2479-0.1768
		c1.4339-0.1162,1.3143-2.0779-0.0674-2.1894c-0.403-0.0325-0.8074-0.0549-1.2116-0.0787
		c-0.0058-0.0659,0.0015-0.1329-0.0185-0.1965c-0.1478-0.4718-0.5575-0.7588-0.8795-1.113
		c-0.4357-0.4792-1.0855-0.3258-1.4694,0.0764c-10.4375-0.0389-20.9596-0.5204-31.3832-0.0922
		c-0.6037,0.0248-0.9857,0.3389-1.1666,0.7448c-0.4281,0.1049-0.805,0.4565-0.8545,1.0424
		c-0.6039,7.1591-0.6793,15.0693-0.1344,22.3339c-0.284,0.2286-0.4926,0.5636-0.521,0.9875
		c-0.1976,2.9422-1.1771,8.7186,1.0042,11.2048c-0.3403,1.3179,0.3349,2.6771,1.3835,3.7006
		c0.0395,0.1319,0.0722,0.2638,0.1131,0.3958c0.2233,0.7219,0.9939,0.9722,1.6308,0.8246c0.3287,0.1552,0.6608,0.2784,0.9857,0.3549
		c0.3861,0.0909,0.7796-0.0166,1.0814-0.2463c0.639,0.1082,1.2933-0.4231,1.4553-1.0572c0.1712,0.0955,0.359,0.168,0.5784,0.1789
		c2.4373,0.1205,4.8765,0.2188,7.3162,0.2826c0.2561,0.0335,0.5064,0.0828,0.7647,0.1107c0.4965,0.0536,0.9576-0.1959,1.2632-0.5559
		c1.1568,0.7138,2.6738,0.6115,4.1155,0.5427c0.6682-0.0319,1.3333-0.0235,1.9967,0.0005c0.1142,0.5941,0.7787,1.1068,1.4621,0.6984
		c0.1485-0.0888,0.311-0.1592,0.4795-0.2215c-1.8352,1.9092-3.5667,3.8998-5.1915,5.9922
		c-0.8795,0.5965-1.7719,0.3076-2.4845,1.1007c-0.7248,0.8067-0.1408,2.2562,0.9992,2.1804
		c3.1678-0.2107,6.3376-0.4371,9.5128-0.4894c2.409-0.0397,5.7037-0.2937,8.3759,0.2837c0.1224,0.141,0.2457,0.2824,0.3641,0.4214
		c0.4386,0.5153,1.0243,0.4941,1.4823,0.2031c0.1624,0.0761,0.3397,0.1358,0.4912,0.2236c1.1043,0.6396,2.5353-0.8198,1.7302-1.8802
		c-2.4324-3.2035-4.7627-5.6211-7.7687-8.3142c0.2741-0.1387,0.5482-0.2773,0.8223-0.416c0.1716,0.1019,0.3617,0.18,0.5885,0.1903
		c3.3273,0.1521,6.6916,0.4453,10.0201,0.2525c0.5293-0.0306,0.8493-0.3336,0.9847-0.7074
		c0.0224,0.0033,0.0448,0.0063,0.0671,0.0097c0.9384,0.1411,1.9606,0.4292,2.9083,0.3425c0.3151-0.0288,0.5672-0.1863,0.752-0.3968
		c1.7201,0.1424,3.4004,0.2837,4.9731,0.3509c0.6347,0.0272,0.9953-0.3539,1.1034-0.8241c0.1671-0.0998,0.3244-0.2137,0.4573-0.3416
		c0.1341-0.1291,0.2498-0.2794,0.3559-0.4364c0.4041,0.133,0.9041,0.0711,1.1558-0.2837c0.1329-0.1874,0.2389-0.3859,0.3066-0.5894
		c0.1812-0.1878,0.3088-0.4478,0.3373-0.7773C84.8363,74.7981,84.6221,65.7424,84.1703,57.2913z"/>
	<path class="st5" d="M82.9458,84.4662H27.851c-0.7419,0-1.349,0.6071-1.349,1.349v0.0451
		c1.1526,0.3869,2.3232,0.7869,3.1905,1.6632c0.0895,0.0905,0.1629,0.1843,0.2267,0.2796h51.6998
		c0.3735-0.2175,0.7658-0.3948,1.1554-0.5837c0.2242-0.1087,0.4366-0.23,0.6497-0.3587c0.019-0.0114,0.0296-0.017,0.0428-0.0243
		c0.0025-0.007,0.006-0.0149,0.0155-0.0288c0.0654-0.0957,0.1758-0.1873,0.2487-0.2779c0.1544-0.1918,0.3495-0.3199,0.5635-0.3982
		v-0.3163C84.2948,85.0733,83.6878,84.4662,82.9458,84.4662z"/>
	<path class="st5" d="M65.654,93.273H44.9934c-1.6443,0-1.5597,2.5487,0.0784,2.5487h20.6606
		C67.3767,95.8217,67.2921,93.273,65.654,93.273z"/>
	<path class="st6" d="M62.0331,45.0657H27.5278c-1.6443,0-1.5597,2.5487,0.0784,2.5487h34.5053
		C63.7558,47.6144,63.6712,45.0657,62.0331,45.0657z"/>
	<path class="st7" d="M79.0395,56.7324c-0.0928-0.3261-0.2887-0.5546-0.5304-0.6931c0.0519-0.5667-0.2252-1.1563-0.939-1.3258
		c-1.7072-0.4052-3.3874-0.8245-4.9917-1.5508c-1.2876-0.583-2.4998-1.2208-3.8928-1.5185
		c-0.2649-0.0566-0.4986-0.0309-0.7024,0.0439c-0.3768-0.3177-0.7441-0.6581-1.1002-1.027
		c-0.4821-0.4995-1.0515-0.3786-1.4163-0.0042c-10.0834-0.6821-20.8065-0.5819-30.8763,0.0606
		c-0.4349,0.0278-0.7393,0.2153-0.9273,0.4729c-0.521-0.0067-1.0607,0.3518-1.1268,1.0511
		c-0.1017,1.0772-0.1586,2.1604-0.1908,3.2464c-0.1682,0.8962-0.1838,1.8098-0.035,2.8749c0.0054,1.957,0.0524,3.9155,0.0513,5.8593
		c-0.0016,2.6888-0.1663,5.4389-0.1107,8.1571c-0.1002,0.1856-0.1526,0.413-0.1203,0.6943c0.0462,0.4019,0.1184,0.78,0.1991,1.1516
		c0.0239,0.3605,0.0556,0.7194,0.0917,1.0778c0.0014,0.218,0.0148,0.4348,0.0229,0.6521c-0.0349,0.1199-0.0711,0.2406-0.1029,0.3582
		c-0.0927,0.3437,0.0064,0.6461,0.2008,0.8724c0.0189,0.1554,0.0276,0.3119,0.0527,0.4667
		c0.0044,0.0549,0.0055,0.1111,0.0158,0.1632l0.1075,0.5457c0.0825,0.4186,0.3075,0.6756,0.5894,0.8026
		c0.174,0.2214,0.4166,0.3871,0.7157,0.4825c0.3323,0.1059,0.6647,0.2119,0.997,0.3179c0.4175,0.1331,0.7799,0.0259,1.0501-0.2032
		c0.8377,0.231,1.6825,0.3635,2.5592,0.3212c-0.0002-0.0074-0.0005-0.0147-0.0007-0.0221c0.0527-0.0036,0.0972-0.0191,0.1463-0.0281
		c2.3813,0.4747,5.2076,0.1096,7.8466-0.4145c0.67,0.1187,1.3001,0.22,1.8586,0.2713c2.7544,0.2528,5.52,0.2711,8.2841,0.2296
		c6.5316-0.0979,13.0634-0.2853,19.5946-0.4195c0.4885-0.01,0.924-0.3669,1.1217-0.8106c0.58,0.2547,1.3166,0.0981,1.3979-0.6894
		c0.6422-6.2156,0.6735-13.0192,0.323-19.3485C79.7247,58.3089,79.7412,57.2567,79.0395,56.7324z"/>
	<path class="st8" d="M92.7917,38.0589c-0.2518-0.5892-1.1297-0.9656-1.6157-0.3544c-0.0262,0.033-0.0534,0.0672-0.0798,0.1002
		c-0.6415,0.0757-1.1511,0.2544-1.7404,0.5355c-0.9093,0.4336-1.993,0.6696-2.8625,1.1449
		c-0.0206,0.0112-0.0357,0.0252-0.0556,0.0368c-0.4375-0.0706-0.8923,0.002-1.3882,0.1643c-0.518,0.1695-1.0277,0.423-1.3259,0.8267
		c0.2453-1.4513,0.2578-2.9442,0.0343-4.388c0.0868-0.1388,0.1744-0.2772,0.2792-0.4115c0.4939-0.6331,0.1445-1.6304-0.7543-1.6055
		c-1.2204,0.0338-2.2297,0.4333-3.0135,1.2305c-0.4367,0.0505-0.8538,0.3858-0.8869,0.8134
		c-0.8342,0.3421-1.7007,0.6473-2.4377,1.1392c0.0576-0.4688-0.2941-0.8634-0.7139-0.9702
		c-0.0733-1.4589-0.2234-2.9211-0.7484-4.2811c0.0324-0.2083,0.081-0.3952,0.155-0.5469c0.4604-0.9435-0.8738-1.9998-1.6042-1.1027
		c-1.7151,2.1066-3.3509,4.2688-4.8951,6.4979c-0.8253,1.1912-1.4635,1.9296-1.4651,2.9466c-0.382,0.2414-0.6253,0.682-0.4276,1.141
		c0.7439,1.7269,2.4217,2.8008,4.0224,3.7413c0.2532,0.1488,0.4984,0.1692,0.7169,0.1118c0.2491,0.1544,0.5055,0.3,0.7684,0.4283
		c0.3265,0.1977,0.6741,0.3606,1.0142,0.4474c0.0519,0.0746,0.1077,0.1455,0.1627,0.2173c0.045,0.2639,0.2015,0.4999,0.4602,0.658
		c0.1576,0.0963,0.3244,0.1961,0.4973,0.2935c0.4468,0.3216,0.9631,0.5496,1.5634,0.6375c0.4807,0.0704,1.0096,0.0802,1.5405,0.0327
		c0.0085,0.0207,0.0129,0.0426,0.023,0.0628c0.0315,0.2562,0.1727,0.508,0.4912,0.6891c0.1894,0.1077,0.3787,0.2154,0.568,0.323
		c0.3119,0.1774,0.6097,0.1661,0.8492,0.044c0.3453,0.1017,0.6902,0.2103,1.0341,0.3085c0.235,0.2129,0.5749,0.2803,0.8815,0.2112
		c0.5396,0.0991,1.0747,0.1283,1.6015-0.0004c0.1843,0.2748,0.5033,0.4573,0.855,0.3858c0.9552,0.4814,1.8717,0.5601,2.8194-0.4719
		c1.5009-1.6347,2.2305-3.9819,2.8277-6.1629c0.6843-0.9099,1.308-1.8742,1.9228-2.8398c0.0974,0.0023,0.1937-0.0037,0.2837-0.0291
		c0.0409-0.0116,0.0819-0.0231,0.1228-0.0347c0.3253-0.0919,0.6193-0.383,0.6813-0.713
		C93.0343,38.8806,92.9662,38.4671,92.7917,38.0589z M74.0358,39.559c-0.0276,0.1556-0.016,0.2958,0.0206,0.4217
		c-0.3058,0.7729-0.8062,1.1239-1.7745,1.5019c-0.2273,0.0888-0.3934,0.2225-0.5042,0.3794
		c-1.2737-1.5421-1.2601-2.8423,0.0664-3.8959c0.2772-0.1251,0.459-0.2696,0.5488-0.4327c0.6179,0.1622,1.1495,0.478,1.5847,0.9655
		c0.0567,0.0574,0.1151,0.1048,0.1746,0.1441C74.1279,38.9484,74.09,39.2537,74.0358,39.559z M80.4761,42.9636
		c-0.7108,1.2356-1.1115,2.1523-2.7507,2.4819c-0.3528,0.0709-0.6583,0.0485-0.9347-0.031
		c-0.659-1.3102-0.6968-3.2321,0.1778-4.4047c0.6063-0.8128,1.4506-1.4941,2.4381-0.9777c1.0366,0.5422,0.8386,1.8588,1.1147,2.8469
		C80.5054,42.9073,80.4925,42.9352,80.4761,42.9636z M85.732,45.4728c-0.4028,0.681-0.9076,1.2436-1.4298,1.8021
		c-0.3067-0.2069-0.6287-0.2459-0.9624-0.1367c-0.0385-0.0722-0.0785-0.1438-0.1182-0.2138
		c-0.2065-0.3638-0.351-0.7392-0.5689-1.0844c0.0649-0.2578,0.1488-0.5107,0.2627-0.7512c0.0308-0.065,0.0535-0.129,0.0692-0.1917
		c0.1329-0.303,0.2604-0.6033,0.3815-0.8898c0.748-0.2652,1.5625-0.4463,2.3671-0.5436c0.075,0.1129,0.1504,0.2255,0.2167,0.3517
		C86.2856,44.4537,86.092,44.8643,85.732,45.4728z"/>
	<path class="st6" d="M74.2118,29.6247c-2.7962,3.3653-5.2083,7.0763-7.7817,10.6041c-0.8116,1.1126,0.7778,2.2349,1.5854,1.0899
		c2.5178-3.5697,5.2629-7.0477,7.5472-10.7653C76.0444,29.7695,74.8105,28.9042,74.2118,29.6247z"/>
	<path class="st6" d="M84.0026,32.8598c-1.3061,0.5029-2.5295,1.1891-3.7458,1.8685c-1.085,0.606-2.2183,1.0882-3.3371,1.6146
		c0.0819,0.3033,0.0532,0.6334-0.1255,0.9125c-0.0545,0.077-0.1013,0.1582-0.1404,0.2436
		c-0.1015,0.1968-0.2686,0.3338-0.4601,0.4264c0.1903,0.1521,0.4362,0.2374,0.708,0.1635c2.6993-0.7339,5.349-2.4469,7.8029-3.7525
		C85.5291,33.8977,84.8887,32.5187,84.0026,32.8598z"/>
	<path class="st9" d="M91.8285,36.6853c-2.3252,3.7174-4.2636,7.6631-6.279,11.5472c-2.6383,0.078-5.3206-0.2394-7.8332-0.9755
		c-0.974-0.2854-1.3467,1.0561-0.5862,1.5312c2.1974,1.3728,5.6516,1.6264,8.4289,1.4906c0.3302,0.1719,0.7475,0.1791,1.06-0.0738
		c0.062-0.0055,0.131-0.0083,0.1918-0.0142c0.9061-0.0867,1.1676-1.0571,0.8081-1.622c2.0357-3.6079,4.179-7.3089,5.7189-11.1066
		C93.737,36.4779,92.4113,35.7536,91.8285,36.6853z"/>
	<path class="st10" d="M79.3095,39.9694c-0.7665-0.1746-1.4588,0.4905-1.9505,0.9688c-0.5476,0.5328-0.8503,1.0996-0.9182,1.8476
		c-0.0114,0.1259,0.0046,0.2386,0.04,0.3392c-0.1662,0.3623-0.2347,0.7439-0.0495,1.1374c0.789,1.6769,2.7627,0.246,3.4825-0.6877
		C80.637,42.6366,80.8291,40.3157,79.3095,39.9694z"/>
	<path class="st11" d="M85.7191,44.1219c-0.194-0.3928-0.6664-0.6387-1.1125-0.4892c-0.6281,0.2104-1.0196,0.6502-1.3428,1.1977
		c-0.3187,0.54-0.6335,1.1844-0.2301,1.7741c0.9122,1.3335,2.8606-0.3633,2.5626-1.5538
		C85.806,44.787,85.8863,44.4603,85.7191,44.1219z"/>
	<path class="st11" d="M73.1979,37.9054c-0.6445-0.1633-1.0947,0.3092-1.5233,0.6972c-0.4038,0.3655-0.6906,0.8274-0.6372,1.3833
		c0.0042,0.0441,0.0234,0.082,0.0341,0.1235c-0.0061,0.0589-0.0121,0.1179-0.0181,0.1769c-0.0002,0.0473-0.0001,0.0648,0,0.0825
		c-0.1792,0.7078,0.765,1.4288,1.3975,0.9421c0.4205-0.3236,0.7591-0.6665,1.0389-1.1154c0.2435-0.3906,0.4855-0.9353,0.4542-1.4013
		C73.9154,38.3666,73.6235,38.0132,73.1979,37.9054z"/>
	<path class="st12" d="M71.24,40.0152c0,0,0.6248-1.1513,2.4992-1.6931l-0.3471-0.6547l-1.5967,0.316"/>
	<path class="st13" d="M76.6665,42.9482c0,0,0.8041-1.4818,3.2166-2.179l-0.4467-0.8426l-2.055,0.4068"/>
	<path class="st12" d="M83.2269,45.6362c0,0,0.6248-1.1513,2.4992-1.6931l-0.3471-0.6547l-1.5967,0.316"/>
	<path class="st6" d="M79.2952,40.8144c0.1549,0.2031-0.051,0.6083-0.4599,0.9051s-0.8659,0.3729-1.0208,0.1698
		c-0.1549-0.203,0.051-0.6083,0.4599-0.9051C78.6833,40.6874,79.1403,40.6114,79.2952,40.8144z"/>
	<path class="st6" d="M73.0827,38.5109c0.1075,0.1409-0.0354,0.422-0.3191,0.6279c-0.2837,0.2059-0.6008,0.2587-0.7082,0.1178
		c-0.1075-0.1409,0.0354-0.422,0.3191-0.6279C72.6582,38.4228,72.9752,38.37,73.0827,38.5109z"/>
	<path class="st6" d="M85.1005,44.1394c0.1075,0.1409-0.0354,0.422-0.3191,0.6279c-0.2837,0.2059-0.6008,0.2587-0.7082,0.1178
		c-0.1075-0.1409,0.0354-0.422,0.3191-0.6279C84.676,44.0513,84.993,43.9986,85.1005,44.1394z"/>
	<path class="st8" d="M88.3459,53.3848c-1.4202-1.9745-3.9762-2.3562-6.4081-2.8722c-1.2814-0.5008-2.5627-1.0019-3.8464-1.4972
		c-0.1829-0.0706-0.3677-0.0907-0.5459-0.078c-1.4676-0.8031-2.9461-1.5616-4.4782-2.2429
		c-1.6909-1.0695-3.3631-2.1632-4.9989-3.3186c-0.224-0.1582-0.4599-0.2318-0.6878-0.2418
		c-0.0739-0.0613-0.1492-0.1171-0.2231-0.179c-0.0554-0.0463-0.1123-0.0818-0.1692-0.1161
		c-0.0769-0.0831-0.1557-0.1615-0.2319-0.2466c-0.3265-0.3646-0.747-0.4036-1.1115-0.2554
		c-0.0273-0.0167-0.0496-0.0341-0.0773-0.0508c-0.7034-0.4241-1.3591,0.0211-1.5766,0.6342
		c-0.4079,0.1742-0.7211,0.5316-0.7014,0.9671c-0.631,0.2882-0.9608,1.1572-0.3484,1.8637
		c0.2812,0.3244,0.5676,0.6406,0.8568,0.9534c0.0297,0.116,0.0777,0.2323,0.1572,0.346c1.8045,2.5806,4.9378,4.2738,7.8994,5.4115
		c0.0631,0.2671,0.2492,0.511,0.6005,0.665c1.1376,0.479,2.2757,0.9569,3.4133,1.4358c0.8553,0.3936,1.7276,0.7628,2.6212,1.1026
		c0.1083,0.0454,0.2164,0.0912,0.3246,0.1366c0.0009-0.0024,0.0019-0.0049,0.0028-0.0073c0.0946,0.0351,0.1845,0.0758,0.2795,0.1104
		c0.295,0.1073,0.5636,0.0691,0.7878-0.0535c0.8817,0.2575,1.7716,0.4954,2.6734,0.7085c0.6968,0.1647,1.1733-0.2312,1.3226-0.742
		c0.1518,0.0231,0.3011,0.0515,0.4546,0.0711c0.3143,0.0401,0.6129-0.0403,0.8583-0.1912c0.1869-0.0021,0.4113-0.0145,0.7425-0.0328
		c0.4297-0.0239,0.7604-0.2698,0.9487-0.5912c0.0699,0.0126,0.1399,0.0247,0.2098,0.0373
		C88.0441,55.2808,88.962,54.2414,88.3459,53.3848z"/>
	<path class="st9" d="M64.965,47.7996c0,0,9.8734,6.1703,19.3766,6.5315l1.8821-2.7691l2.4375,0.8428l-3.178,4.3945l-14.625-3.5216
		L64.965,47.7996z"/>
	<path class="st6" d="M64.4096,42.9536c0.0358-0.2158,5.8286,4.5996,11.447,5.9295l-4.3505-3.2206l-5.5846-3.7022l-0.6479-0.2408"/>
	<path class="st14" d="M85.3796,59.4572c0.6955-0.3931,0.8824-1.5311,0.0217-1.9261c-1.6076-0.7378-3.4583-0.9636-5.113-1.6247
		c-1.0654-0.4256-1.9504,0.7517-1.4686,1.5303c-0.6198,0.3533-0.8059,1.4838-0.0123,1.8635
		c1.8006,0.8615,3.7355,1.6844,5.7155,2.0123C85.5676,61.4856,86.3137,60.0137,85.3796,59.4572z"/>
	<path class="st14" d="M63.6058,48.26c-0.965-1.4348-2.6563-2.1594-3.5197-3.7086c-0.5804-1.0414-2.1057-0.2217-1.8313,0.8494
		c0.2581,1.0072,0.8456,1.8071,1.5708,2.5367c0.7712,0.7759,1.6182,1.5469,2.6726,1.8884
		C63.3695,50.108,64.0861,48.9742,63.6058,48.26z"/>
	<path class="st15" d="M79.4083,58.0337c-0.0938-0.0353-0.1838-0.076-0.2772-0.1118c0.3621-0.3443,0.5113-0.8725,0.1245-1.3685
		c-1.3384-1.716-3.8773-2.3674-5.7935-3.2884c-2.4044-1.1557-4.7797-2.3693-7.2991-3.2599
		c-0.5382-0.1903-0.9426,0.0691-1.1391,0.4674c-0.6187-0.3845-1.2378-0.771-1.859-1.1586c-0.9926-0.6193-2.108,0.9446-1.1865,1.6838
		c4.8811,3.9156,10.64,6.6273,16.3798,9.0257C79.701,60.5844,80.7451,58.5366,79.4083,58.0337z"/>
	<circle class="st16" cx="44.6225" cy="65.6605" r="9.0523"/>
	<g>
		<rect x="56.497" y="59.1642" class="st17" width="17.7141" height="1.704"/>
		<rect x="56.497" y="62.9271" class="st17" width="17.7141" height="1.704"/>
		<rect x="56.497" y="66.69" class="st17" width="17.7141" height="1.704"/>
		<rect x="56.497" y="70.4529" class="st17" width="17.7141" height="1.704"/>
	</g>
	<g>
		<g>
			<path class="st18" d="M83.9417,56.6433v24.303c0,2.3679-1.9269,5.1467-4.2949,5.1467H58.4081l7.7569,8.8952
				c0.1206,0.1523,0.0849,0.4052,0.0258,0.5267L44.6998,95.445c-0.0624-0.1265-0.0882-0.3927,0.0283-0.5292l8.2511-8.8228H31.2437
				c-2.3679,0-4.2949-2.7788-4.2949-5.1467V50.3548c0-2.3679,1.9269-4.2944,4.2949-4.2944h32.1939
				c-0.6232-0.6023-1.1543-1.2952-1.5203-2.0924c-0.0692-0.1507-0.1151-0.3068-0.1493-0.4635H31.2437
				c-3.7773,0-6.8508,3.073-6.8508,6.8504v30.5915c0,3.7773,3.0735,7.7026,6.8508,7.7026h16.196l-4.6568,4.6087
				c-0.738,0.8653-0.9019,2.1691-0.4085,3.244c0.4227,0.921,1.2663,1.496,2.2007,1.4993l21.7255,0.0699h0.0075
				c0.9285,0,1.7447-0.54,2.1832-1.446c0.5075-1.0475,0.3761-2.3446-0.3262-3.2274l-4.4571-4.7485h15.9389
				c3.7773,0,6.8508-3.9253,6.8508-7.7026V56.5651C85.6478,56.7389,84.8116,56.8115,83.9417,56.6433z"/>
		</g>
	</g>
	<g>
		<path class="st18" d="M83.4012,57.6563c-13.029-1.5795-19.6429-7.979-21.8276-10.5366v0.0004
			c-0.6624-0.7756-0.7499-1.8807-0.2177-2.7491l1.9142-3.1262c0.3703-0.6035,0.9878-1.0109,1.6958-1.1174
			c0.6942-0.1051,1.3964,0.0966,1.9221,0.5524c7.5504,6.5374,13.4651,7.7821,17.7837,8.6911
			c1.1968,0.2518,2.2309,0.4695,3.1797,0.7686c0.7275,0.2293,1.2894,0.7679,1.5418,1.4783
			c0.2545,0.7167,0.1526,1.4874-0.2799,2.1149l-1.9373,2.8176c-0.4108,0.5947-1.084,0.9802-1.8021,1.0331
			C84.7043,57.6327,84.0463,57.6563,83.4012,57.6563z M65.3282,42.2677c-0.0072,0-0.0152,0.0004-0.0231,0.0018
			c-0.0304,0.0046-0.0875,0.0219-0.1273,0.0871l-1.9149,3.1262c-0.0477,0.0772-0.0405,0.1824,0.0174,0.2497v0.0004
			c2.1311,2.4948,9.568,9.4862,21.9259,9.6897c0.045,0.0007,0.094-0.0353,0.1258-0.0815l1.9366-2.8165
			c0.055-0.0794,0.039-0.158,0.0253-0.1979c-0.0159-0.0441-0.0499-0.1016-0.1251-0.1252c-0.8432-0.2656-1.8267-0.4726-2.9656-0.7122
			c-4.302-0.9054-10.8031-2.2737-18.7904-9.1888C65.402,42.2906,65.3752,42.2677,65.3282,42.2677z"/>
	</g>
	<g>
		<path class="st18" d="M88.0829,51.4364l-2.0292-0.8804l5.851-12.836l-8.774,3.8369l-0.0926-7.3289
			c-0.0014-0.1182-0.0832-0.1418-0.0839-0.1418l-6.6197,3.96l-1.4774-7.7017l-7.7659,11.727l-1.8657-1.176l8.2157-12.406
			c0.4202-0.6346,1.1824-0.9509,1.9315-0.8081c0.7774,0.1488,1.3762,0.746,1.5258,1.5209l1.0269,5.3526l3.8746-2.3153
			c0.6906-0.4123,1.5287-0.4296,2.2425-0.0448c0.7405,0.3989,1.2062,1.1675,1.2171,2.0066l0.0506,4.027l6.3579-2.7802
			c0.7195-0.315,1.5504-0.163,2.1174,0.3876c0.593,0.5764,0.7564,1.4306,0.4173,2.176L88.0829,51.4364z"/>
	</g>
	<g>
		<path class="st18" d="M77.5871,45.711c-0.2495,0-0.4874-0.0526-0.7072-0.1584c-0.5633-0.2702-0.9155-0.8458-0.9922-1.6204
			c-0.0709-0.7114,0.102-1.5209,0.4852-2.28c0.3833-0.7591,0.9358-1.3859,1.5569-1.7647c0.6776-0.4127,1.361-0.4906,1.9214-0.2205
			c0.5633,0.2702,0.9155,0.8458,0.9922,1.6201c0.0701,0.7114-0.102,1.5213-0.4852,2.28c-0.3833,0.7591-0.9358,1.3859-1.5569,1.765
			C78.3891,45.5836,77.9754,45.711,77.5871,45.711z M79.1433,40.2321c-0.2495,0-0.5301,0.0903-0.8208,0.2677
			c-0.5055,0.3086-0.9625,0.8314-1.2858,1.4716c-0.3232,0.6402-0.4693,1.3118-0.4122,1.8913
			c0.0513,0.5164,0.2582,0.8864,0.5821,1.0419c0.3232,0.1548,0.7506,0.0899,1.2019-0.1848c0.5055-0.309,0.9625-0.8314,1.2858-1.4716
			s0.4693-1.3121,0.4122-1.8913c-0.0513-0.5164-0.2582-0.8864-0.5821-1.0419C79.4094,40.2596,79.2807,40.2321,79.1433,40.2321z"/>
	</g>
	<g>
		<path class="st18" d="M83.8749,47.6128c-0.1909,0-0.376-0.0395-0.5489-0.1224c-0.4353-0.2092-0.708-0.649-0.7658-1.2381
			c-0.0521-0.5256,0.0745-1.1224,0.3565-1.6804c0.2813-0.5573,0.6892-1.019,1.1476-1.2991
			c0.5149-0.3146,1.0392-0.3711,1.4723-0.1626c0.8497,0.4081,1.0298,1.6899,0.41,2.9181v0.0004
			C85.4528,47.0065,84.6219,47.6128,83.8749,47.6128z M84.9856,43.71c-0.2032,0-0.4064,0.1009-0.5279,0.1753
			c-0.3392,0.2067-0.6588,0.5735-0.8772,1.006c-0.2184,0.4328-0.3218,0.9037-0.2835,1.292
			c0.0188,0.1912,0.0904,0.5316,0.3558,0.6589c0.4042,0.1933,1.1708-0.2236,1.63-1.1329c0.4585-0.9086,0.329-1.7573-0.073-1.9506
			C85.1375,43.7241,85.0616,43.71,84.9856,43.71z"/>
	</g>
	<g>
		<path class="st18" d="M71.8843,41.9777c-0.1931,0-0.3789-0.0409-0.551-0.1235c-0.8497-0.4085-1.029-1.6899-0.4093-2.9177
			c0.6205-1.2282,1.7724-1.8701,2.6207-1.4624c0.4361,0.2095,0.708,0.6494,0.7658,1.2381c0.0521,0.5259-0.0745,1.1224-0.3565,1.68
			l0,0c-0.2813,0.558-0.6892,1.0194-1.1484,1.2998C72.4947,41.8818,72.1808,41.9777,71.8843,41.9777z M72.998,38.0759
			c-0.4216,0-1.0247,0.4169-1.4101,1.1799c-0.4585,0.9083-0.3298,1.7569,0.0723,1.9502c0.2661,0.1287,0.5865-0.0243,0.7528-0.1266
			c0.3392-0.2067,0.6588-0.5735,0.8772-1.006V40.073c0.2184-0.4324,0.3218-0.903,0.2835-1.2913
			c-0.0188-0.1915-0.0904-0.5319-0.3558-0.6592C73.1527,38.0911,73.079,38.0759,72.998,38.0759z"/>
	</g>
	<g>
		<g>
			<path class="st18" d="M78.3331,55.1826v21.0728c0,1.8196-1.4801,3.2998-3.2998,3.2998H35.8572
				c-1.8196,0-3.2998-1.4801-3.2998-3.2998V54.0361c0-1.8196,1.4801-3.2998,3.2998-3.2998h33.1184
				c-1.0301-0.406-2.0116-0.9043-2.8519-1.7027l-0.0011-0.0012H35.8572c-2.759,0-5.0037,2.2448-5.0037,5.0037v22.2193
				c0,2.759,2.2448,5.0037,5.0037,5.0037h39.1762c2.759,0,5.0037-2.2448,5.0037-5.0037V55.7821
				C79.4545,55.6388,78.8877,55.4339,78.3331,55.1826z"/>
		</g>
	</g>
</g>
<path class="st2" d="M53.2425,110.8275c0,1.61-0.37,3.14-1.03,4.49l-0.4301-0.25l-0.17-0.1l-3.36-1.94l-0.04-0.03l-2.07-1.19
	l-4.75-2.76l-0.61-0.35l-0.6899-0.39l-0.9301-0.54l-0.22-0.12l-0.09-0.06l-0.03-0.02l-2.23-1.29l-1.22-0.71l-0.37-0.21l-0.39-0.22
	l-0.08-0.05c1.83-2.72,4.95-4.5,8.48-4.5C48.6625,100.5875,53.2425,105.1675,53.2425,110.8275z"/>
<circle class="st1" cx="38.4852" cy="32.2247" r="1.7675"/>
<circle class="st1" cx="44.2176" cy="32.2247" r="1.7675"/>
<circle class="st1" cx="49.9501" cy="32.2247" r="1.7675"/>
<circle class="st1" cx="49.4102" cy="26.0372" r="1.5208"/>
<circle class="st1" cx="54.3426" cy="26.0372" r="1.5208"/>
<circle class="st1" cx="59.2751" cy="26.0372" r="1.5208"/>
<g id="Layer_2_2_">
	<g id="Layer_16_2_">
		<path class="st19" d="M96.7436,34.7447l-0.53-0.3l-0.72-0.42l-0.77-0.45l-0.11-0.06l-0.49-0.28l-0.51-0.29l-0.9-0.52l-7.25-4.18
			l-1.71-0.98l-0.72-0.42l-0.45-0.26l-0.49-0.29l-0.05-0.02l-0.42-0.25l-0.41-0.24l-5.33-3.07l-19.5-11.24l-0.53-0.31l-0.47,0.27
			l-17.11,9.88l-5.02,2.9l-1.3,0.75l-0.53,0.31l-0.1,0.05c-0.01,0-0.01,0-0.01,0l-0.25,0.15l-0.42,0.25l-0.3,0.17l-0.27,0.16
			l-0.18,0.1l-1.5,0.87h-0.01l-1.78,1.02l-0.0099,0.01l-0.58,0.34l-0.76,0.43l-0.01,0.0099l-0.03,0.02l-3.25,1.87h-0.01l-2.38,1.37
			l-1,0.58l-2.98,1.72l-4.23,2.4399l-1.54,0.89v53.12l0.07,0.04l1.72,1l0.75,0.43l0.15,0.08l4.32,2.5l0.69,0.39l4,2.32l0.46,0.26
			l1.3,0.75l3.3799,1.95l5.38,3.1l0.69,0.4l0.07,0.04l0.15,0.08l0.11,0.07l0.18,0.1l0.04,0.02l1.91,1.11l0.88,0.5l1.33,0.78
			l0.89,0.5099l0.1801,0.1l0.31,0.18l0.19,0.11l0.48,0.28l3.57,2.05l0.09,0.05l0.44,0.26l0.62,0.36l0.72,0.42c0.01,0,0.01,0,0.01,0
			l0.53,0.3l1.51,0.87l3.17,1.84l4.48,2.58l1.03,0.6l0.23,0.13l0.02-0.0099l0.19-0.11l0.14-0.08l0.03-0.02l0.31-0.18l1.81-1.03
			l0.09-0.05l0.69-0.4l0.5-0.29l0.24-0.14l3.85-2.22l2.4499-1.41l0.74-0.43l0.66-0.38l0.67-0.39l0.44-0.26l2.33-1.34l0.39-0.22
			h0.0099l0.23-0.14l0.21-0.12l0.63-0.36l0.8-0.46l1.2599-0.73l0.46-0.27h0.01l0.46-0.27l0.0099-0.01l0.25-0.14l0.53-0.31l0.37-0.21
			l0.35-0.21l0.55-0.31l0.21-0.13l0.32-0.18l0.43-0.24l0.02-0.01l0.05-0.03l0.13-0.08l0.24-0.13l3.78-2.18l0.38-0.22l1.11-0.65
			l2.97-1.71l1.56-0.9l8.53-4.92h0.01l0.06-0.04l2.65-1.53l0.9-0.52l1.03-0.59v-53.12L96.7436,34.7447z M100.0436,89.7746l-0.52,0.3
			l-0.32,0.18l-0.58,0.34l-7.59,4.38l-4.67,2.69l-3.12,1.8l-1.28,0.7401l-0.72,0.41l-2.93,1.69l-0.07,0.05l-0.16,0.09l-0.18,0.11
			l-0.57,0.32l-0.89,0.51l-0.22,0.13l-0.05,0.03l-0.81,0.47l-0.09,0.05l-3.91,2.25l-0.08,0.05l-0.79,0.45l-0.08,0.05l-0.91,0.53
			l-2.15,1.24l-1.54,0.89l-1.68,0.97l-1.1,0.63l-2.97,1.72l-1.23,0.71l-0.06,0.04h-0.02l-0.75,0.44l-0.28,0.15l-1.8701,1.08
			l-3.45-1.9901l-1.23-0.71l-0.61-0.35l-1.81-1.05l-0.72-0.41l-0.69-0.4l-5.26-3.03l-0.77-0.45l-0.05-0.03l-1.79-1.03l-2.0601-1.18
			l-0.9-0.52l-0.58-0.34l-0.25-0.15l-0.43-0.25l-0.21-0.12l-1.75-1.01l-0.31-0.18l-0.19-0.11l-1.5-0.8701l-3.42-1.97l-3.91-2.26
			l-1.76-1.01l-3.42-1.97l-4.91-2.84l-0.9-0.51l-0.39-0.23l-0.23-0.13l-0.67-0.39v-50.97l3.91-2.26l2.98-1.72l0.93-0.54h0.01
			l0.06-0.04l3.2-1.85h0.01l1.36-0.79h0.01l1.79-1.03l1.25-0.72l0.43-0.25h0.01l0.76-0.44l0.46-0.27h0.01l2.98-1.72
			c0.0099-0.01,0.0099-0.01,0.02-0.01l0.78-0.45l0.35-0.2l0.2-0.12l0.29-0.17l0.17-0.1l0.27-0.15l0.04-0.02l8.03-4.64l13.39-7.73
			l0.47-0.27l0.53,0.31l16.83,9.71l6.98,4.03l0.05,0.03l0.32,0.18l0.11,0.06l0.44,0.26l0.35,0.2l1.23,0.71l1.94,1.12l7.02,4.04
			l1.41,0.81l0.55,0.32l0.04,0.03l0.77,0.44l0.19,0.11l0.54,0.31l0.53,0.31l4.36,2.51V89.7746z"/>
	</g>
</g>
</svg>
