<svg xmlns="http://www.w3.org/2000/svg" viewBox="0 0 110.979 128.417"><path fill="#01204C" d="M110.906 96.279l-55.426 32-55.424-32v-64l55.424-32 55.426 32z"/><path fill="#134BBC" d="M101.678 37.861v53.14l-.01.01-.021.01-.41.24-.369.21-.62.35-4.15 2.39-.01.01-.13.08-.061.03-.55.32-.8.45-.1.06-.48.28-1.13.65-.851.49-.739.43-.24.13-.13.05-.11.07-1.03.59-2 1.15-.649.37-.17.1-.01.01-1.04.59-.04.03-.07.04-1.16.67-.45.26-.01.01-.01.01h-.01l-.42.24-1.12.65-.87.52-1.181.67-.079.05-.12.07-.04.03-.04.02-.021.01-.1.06-.29.17-.03.01-.16.09v.01l-.399.23-.38.22-.181.09-.02.02-.04.02-.69.39-.3.18-.02.01-.29.17-.15.08-.22.13-.24.14h-.01l-.71.42-.03.02-.3.17-1.36.79-.5.29-.95.54-.029.02h-.011l-.359.21-.24.15-.84.48-.63.36-.061.03-.5.29c-.01.01-.01.01-.01 0l-.53.31-.29.17-.76.44-.05.03-.05.03-.03.01c0 .01-.01.01-.01.01l-.021.02-.25.14-1 .58-.17.1-.04.02-.38.22-1.42.82-.36.21-.09.05-.24.14-.8.46-.26.15-.28.16-.01.01-.2.12-.229.13-.351.2-.83.48-.01.01-.09.05-1.32.76-.02.01-.79.46-.61.35h-.01l-1.41.81-.02.02-.25.14-.56.32h-.01l-.13.08-.19.11-.27.16h-.01l-.2.12-.061-.03-1.14-.66-.02-.01-.2-.12-.851-.49-.029-.01-.33-.19-.011-.01-1.399-.81-.01-.01-.021-.01-1.37-.79-.029-.02h-.011l-.83-.48-.06-.04-.34-.19-.181-.11-.02-.01-.66-.38-.04-.03-.09-.05-.1-.06-.13-.07-.271-.16-.12-.07h-.01l-.72-.42-.24-.13-.39-.23-.051-.03-.029-.02-1.4-.81h-.01l-.481-.29h-.01l-.269-.16-.62-.36-.03-.01-.06-.04-.039-.02-1.29-.75-1.07-.62-.69-.39-1.649-.96-.13-.07-2.891-1.68-.37-.21-.05-.03-.39-.22-.49-.28-.33-.2-1.2-.69-.649-.37-.57-.33-.47-.27-.441-.26-.3-.17-.5-.29-.17-.1c-.01 0-.02-.01-.03-.02l-2.309-1.34-.21-.12-.05-.03-1.16-.67-.67-.38-.82-.47-.09-.05-.5-.29-.01-.01-.211-.12h-.01l-1.04-.6c-.01-.01-.01-.01-.02-.01l-1.86-1.08-1.019-.59-2.11-1.23-.09-.05-.2-.12s-.01 0-.02-.01l-.28-.16-.53-.3-.82-.48-.06-.04h-.01-.01l-.49-.29-.7-.4-.68-.39-1.221-.71-.1-.06h-.01l-.33-.19-.41-.24h-.01l-.431-.25-.989-.57-.08-.04-.03-.02v-53.14l.78-.45 1.59-.92.36-.21 3.38-1.95 1.059-.61 5.78-3.34h.01l.91-.52 1.05-.62 1.82-1.05h.01l.87-.51 3.63-2.08.64-.38.94-.54.17-.09 1.66-.95.78-.45.38-.22.44-.26.67-.39.431-.26.52-.3.5-.28.59-.34 1.19-.68.689-.41.75-.43.65-.37h.01l.05-.03.431-.25 5.29-3.05.109-.06.08-.05.271-.16 5.52-3.19.55-.32 1.44-.83.51.3 1.09.63 2.86 1.65 3.09 1.79 2.601 1.5.22.13 4.69 2.7.98.57 5.13 2.96.91.52 1.04.61 2.3 1.31.87.5.691.4.829.48.49.28.58.34.3.17.801.46.09.06 1.81 1.04 3.28 1.89.5.29.04.03v.01l.26.14.66.39 1.46.84 1.94 1.12.779.44.44.25.49.28 1.449.84.17.1.851.49 1.804 1.04z"/><path fill="#092E7A" d="M101.678 90.301v.7l-.01.01-.021.01-.41.24-.369.21c-1.28-1.33-2.511-2.7-3.74-3.99-3.141-3.31-6.271-6.61-9.37-9.95-.1-.11.06-.27.17-.16 3.34 3.1 6.64 6.22 9.94 9.37 1.23 1.17 2.541 2.34 3.81 3.56zM101.678 65.061v1.05c-.87-.02-1.73-.05-2.59-.06-2.33-.04-4.73.1-7.01-.41-.061-.02-.061-.11 0-.13 2.59-.58 5.37-.38 8.01-.42.531 0 1.06-.02 1.59-.03zM99.028 36.331c-1.88 1.64-3.59 3.46-5.34 5.25-2.47 2.51-5.1 4.99-7.2 7.81-.079.1.07.24.171.17 2.559-1.92 4.84-4.29 7.119-6.53 2.08-2.04 4.21-4.01 6.101-6.21l-.851-.49zM57.278 12.241c.04 1.52-.09 3.06-.109 4.52-.03 2.53-.101 5.04-.27 7.57-.02.22-.34.22-.359 0-.19-2.84-.25-5.67-.28-8.52-.02-1.37-.13-2.8-.07-4.2l1.088.63zM24.598 29.241c2.58 2.49 5.08 5.06 7.311 7.77.22.27-.11.6-.381.38-2.79-2.3-5.43-4.87-7.98-7.53l1.05-.62zM23.278 57.311c-2.68.88-6.069.39-8.88.4-1.59 0-3.149-.01-4.72-.06v-1.15c1.57-.05 3.13-.06 4.72-.06 2.811.01 6.2-.48 8.88.4.23.08.23.39 0 .47zM9.678 70.421c.42.01.85.01 1.28.01 1.229.01 2.479.09 3.689-.14.221-.04.221-.39 0-.43-1.05-.2-2.1-.15-3.17-.14-.59 0-1.2-.01-1.8 0v.7zM101.678 79.711v.82c-.54-.39-1.07-.78-1.6-1.13a95.976 95.976 0 0 1-4.69-3.31c-.17-.12-.01-.4.16-.28 1.78 1.22 3.62 2.31 5.439 3.47.231.14.462.29.691.43zM101.678 51.431v.76c-.25.05-.5.11-.74.18-1.22.36-2.42.76-3.66 1.05-.279.07-.399-.36-.119-.44 1.349-.36 2.949-1.14 4.519-1.55zM83.978 27.641c-.34.45-.649.92-.97 1.33-.73.92-1.53 1.8-2.22 2.75-.13.19.16.41.319.25.82-.82 1.551-1.73 2.28-2.62.35-.43.8-.88 1.17-1.37l-.579-.34zM38.648 21.141c.771 1.38 1.44 2.86 1.73 4.39.04.18-.2.3-.3.13-.79-1.33-1.37-2.77-2.021-4.18l.591-.34zM12.409 36.281c3.239 2.64 7.069 4.39 10.3 7.06.14.11-.04.33-.19.24-3.59-2.15-7.42-4.19-10.47-7.09l.36-.21z"/><path fill="#844155" d="M87.293 59.755c-.073-.167-.208-.302-.452-.51-.051-.043-.107-.069-.162-.096.029-.062.062-.121.074-.202.012-.073.008-.138.014-.207l.014.002c0-.026-.008-.052-.01-.078.048-1.129-.74-1.762-1.846-2.085-1.65-.483-2.526-1.322-4.208-.404a.795.795 0 0 0-.167-.305c-.016-.017-.033-.03-.049-.046-.409-.676-1.151-1.242-1.823-1.628.461-1.398.855-2.809.964-4.333.34-4.772-3.424-9.343-6.93-12.073a.843.843 0 0 0-.386-.165c-.477-.828-1.018-1.368-1.633-1.438-.027-.069-.06-.137-.087-.206a8.468 8.468 0 0 0-.436-1.025c-.174-.341-.523-.427-.848-.359a25.892 25.892 0 0 0-.642-.763c-.487-.877-1.162-1.628-1.961-2.263-.855-.862-1.859-1.548-3.108-1.867-.053-.013-.1-.009-.149-.013-2.378-1.257-5.019-1.92-6.919-.758-.439.104-.629.231-.953.558a.913.913 0 0 0-.185.28c-.879.517-1.976.691-2.944.956-1.51.414-2.888 1.295-4.217 2.091-1.145.685-2.228 1.459-3.355 2.164-.024.007-.049.01-.072.018-.717.229-1.509.7-2.189 1.271-.969.56-1.852 1.174-2.642 2.034-4.53 4.933-5.772 12.056-4.403 18.474.05.234.17.385.314.492l.105.524a5.807 5.807 0 0 0-1.369.003c-2.203.286-4.621 2.23-5.061 4.43a.867.867 0 0 0 .129.673c-.035.033-.074.061-.107.095a.587.587 0 0 0-.086.76.673.673 0 0 0-.131.383c-.036 3.151 1.799 7.021 4.297 9.238.246.332.512.652.819.942.585.553 1.311.888 2.087 1.128.974.541 2.05.877 3.16.947a.727.727 0 0 0 .498.169c-.254.108-.47.313-.537.571-1.232 4.718.784 10.699 3.874 14.334 1.603 1.885 3.961 3.041 6.281 3.81.872.573 1.998.907 2.873 1.185 1.99.632 3.845 1.039 5.759.568 2.978.102 6.074-.601 8.561-1.672 3.411-1.47 6.547-4.2 8.364-7.436 1.557-2.769 1.759-6.133 1.789-9.283.127-1.398.594-2.732 1.049-4.07.171.246.388.463.636.644.473.345 1.218.383 1.588-.058.255-.002.504-.066.735-.219.423-.278.667-.991.576-1.563.278.082.56.136.839.144.845.025 1.593-.619 1.701-1.403.268-.174.515-.388.699-.678.34-.534-.428-1.106-.863-.667-.789.795-2.396.38-2.553-.873-.106-.855.024-1.852.176-2.696l.077-.425c.649-.336 1.239-.891 1.68-1.509 1.532-1.032 3.202-2.063 3.646-3.562a.562.562 0 0 0 .454-.511c.063-.484.024-1.085-.349-1.439zm-54.479 3.254c-.037.021-.071.045-.107.068a.427.427 0 0 0-.372.177 9.29 9.29 0 0 0-.428.584l-.001-.001c-.013 0-.02.007-.031.008a1.905 1.905 0 0 0-.824-.368c.536-.339 1.136-.473 1.763-.468zm9.705 8.524l-.017-.016c-.007-.04-.003-.079-.012-.12-.092-.403-.636-.644-.986-.401-.835.577-1.367 1.344-1.917 2.153-1.162.328-2.543.48-2.863.352a.533.533 0 0 0-.423.019c-.625-.361-1.218-.842-1.773-1.395-.353-.546-.634-1.168-.896-1.845-.836-2.158-1.348-4.565.096-6.532.175-.239.111-.48-.049-.647.441.086.888.223 1.329.405a.845.845 0 0 0 .406.326c.624.232 1.36.702 2.133 1.129.597.428 1.12.861 1.517 1.223.941.861 1.664 1.841 2.328 2.854.316.858.702 1.677 1.178 2.416-.018.026-.033.053-.051.079zm16.341-5.79c.038-.019.077-.028.114-.05.09-.053.161-.124.246-.182.205.021.408.045.611.072-.055.306-.113.612-.16.919-.319-.012-.671-.02-1.014-.029.069-.244.143-.485.203-.73zm-5.725 27.602c-.12.004-.223.031-.318.064-.341-.19-.683-.381-1.016-.599.217-.029.413-.135.568-.277.298.282.616.545.939.804a9.566 9.566 0 0 1-.173.008zm22.106-16.178c-.411-.274-1.056-.191-1.2.408a22.724 22.724 0 0 1-.882 2.891c-.725.564-1.364 1.22-2.128 1.74-1.675 1.142-3.595 1.064-5.496 1.024-2.177-.437-4.398-1.418-6.403-1.992-.754-.216-1.53-.375-2.31-.528-1.159-.488-2.362-.828-3.603-1.123-.631-.15-1.284-.331-1.946-.506-.192-.067-.385-.149-.578-.199h-.009a7.99 7.99 0 0 0-.94-.401c1.854-.775 3.38-2.08 5.063-3.154 1.14-.188 2.211-.538 3.255-.963 1.109-.191 2.233-.331 3.247-.564 1.619-.372 3.293-.722 4.954-.743.634-.008 1.285.112 1.932.3 1.145.517 2.297 1.018 3.481 1.436.15.053.285.04.411.002.671.852 1.453 1.523 2.413 1.698.058.011.112.008.168.009l.001.001c.246.197.638.236.934.115.02.187.054.371.069.56a.75.75 0 0 0-.433-.011z"/><path fill="#280811" d="M72.044 78.506c-.163.032-.323.055-.484.08.057-.271-.032-.554-.348-.704-.76-.361-1.67-.697-2.629-.971-1.285-.848-2.793-1.005-4.306-1.12a66.83 66.83 0 0 1-.872-.073.835.835 0 0 0-.75-.831 12.127 12.127 0 0 0-1.846.016c-1.681-.664-3.586-.923-4.919.408a.668.668 0 0 0-.104.143c-.086.052-.168.091-.261.159a.797.797 0 0 0-.24.309 21.639 21.639 0 0 0-5.228 1.323c-.682.266-.467 1.214.224 1.162a.578.578 0 0 0 .521.199c.318-.032.633-.088.942-.168l.005-.002a.783.783 0 0 0 .46.474c1.246.489 2.517.616 3.8.71 1.329.441 2.658.944 4.026 1.017.318.017.648.029.984.037 1.588.452 3.29.23 4.962.057 2.251-.233 4.273-.057 6.392-.959l.019-.003-.002-.004c.054-.022.105-.038.159-.062.716-.323.18-1.331-.505-1.197z"/><path fill="#491A28" d="M72.906 79.229c-.314.033-.664.023-.909.249-.152.14-.307.265-.462.386-2.398 1.109-4.648 1.114-7.379 1.242-.063.003-.113.034-.166.059-1.543-.259-3.08-.583-4.6-.311-.279.05-.282.518 0 .565 2.543.429 4.992 1.223 7.584 1.272 1.319.026 2.632-.307 3.841-.799.368-.15.749-.466 1.132-.758.428-.214.855-.443 1.292-.679.55-.295.331-1.294-.333-1.226z"/><path fill="#A87D38" d="M40.257 69.35a.648.648 0 0 0-.8-.003l-.016-.007c-.052-.041-.1-.086-.154-.122-.338-.22-.836-.007-.929.378a.717.717 0 0 0 .16.662c-.588-.081-1.154-.209-1.691-.431-.023-.721-.33-1.351-.709-2.003l-.035-.06c.002-.037 0-.074.002-.111a.58.58 0 0 1 .02-.143c.347-.121.571-.582.236-.87-.356-.306-.694-.334-.977-.208-.088-.347.003-.786.024-1.151.001-.007.004-.011.004-.018l.003-.063c.016-.284-.11-.462-.284-.56-.049-.063-.101-.098-.151-.142.133-.241.014-.608-.275-.676-.375-.089-.71-.011-1.048.168-.348.185-.343.732 0 .918l.05.025a3.114 3.114 0 0 0-.34.62c-.288.713-.227 1.51.007 2.294-.238 2.27 1.457 4.885 3.801 4.864.588.231 1.241.279 1.991.009.634-.228 1.083-.608 1.342-1.068l.132-.029a.554.554 0 0 0 .397-.398c.154-.787-.119-1.379-.76-1.875zM84.444 65.177c-.326.393-.651.799-.956 1.22a.58.58 0 0 0-.213-.08c-.428-.061-.723.151-.915.461-.158-.076-.36-.062-.445.122-.312.675-.256 1.447-.271 2.177 0 .019.01.038.012.058-.024.062-.048.124-.069.185-.14.406.422.71.707.412.055-.058.104-.13.148-.207 1.926-.388 2.261-2.192 2.799-3.884.138-.439-.489-.835-.797-.464z"/><path fill="#CDCCDD" d="M86.918 98.941a.792.792 0 0 0-.23-.34c.11-.84 0-1.62-.229-2.38.13-1.37 0-2.8-.391-4.11.03-.01.061-.03.08-.06.45-.66-.31-1.7-.68-2.23-.6-.86-1.35-1.59-2.19-2.21-.069-.05-.149-.04-.22 0-.609-.72-1.47-1.24-2.29-1.82a.617.617 0 0 0-.59-.09c-.01 0-.01-.01-.02-.02a4.751 4.751 0 0 0-.57-.46c-.45-.42-.84-.88-1.41-1.16a.899.899 0 0 0-.44-.08.327.327 0 0 0-.229-.16.36.36 0 0 0-.11-.02.451.451 0 0 0-.42.32c-.189.79-.58 1.56-1 2.3-.1.18-.21.36-.31.54-.13.22-.26.44-.391.65-.779 1.3-1.949 2.14-2.64 3.42-1.92 1.47-3.74 3.1-5.48 4.79a.852.852 0 0 0-.23-.04c-.69-.01-1.09.2-1.69.58-1.31.83-3.859.94-5.35 1.12-1.31.17-2.63-.01-3.95.07-.17.02-.62.04-1.17.03-.359-.17-.729-.3-.939-.41-.99-.53-2.051-1.27-3.221-1.05-.159.02-.239.14-.279.27-.13-.08-.271-.15-.41-.22-.26-.88-2.41-1.79-3.23-1.88-.109-.16-.229-.32-.34-.48-1.31-.75-2.2-1.99-3.21-3.08-.13-.06-.25-.13-.39-.18-.81-1.09-1.61-2.18-2.31-3.31-.01-.01 0-.03-.01-.05-.12-1.09-.54-2.11-.94-3.13-.09-.92-.23-1.82-.56-2.65 0-.01-.01-.04-.01-.06a.588.588 0 0 0-.181-.36l-.02-.02c.12-.84.22-1.68.32-2.52.029-.33-.13-.53-.351-.63 0-.12.011-.25.011-.37.01-.79-.931-.9-1.301-.4a.5.5 0 0 0-.76.4v.08a.69.69 0 0 0-.18-.24c-.36-.3-1.481-.72-1.62-1.14-.36-.97-1.9-.58-1.57.43.03.11.07.2.12.28-1.67.44-3.22 1-4.9 1.58-2.19.76-4.489 1.17-6.63 2.08-1.09.47-2.109 1.05-3.159 1.58-.98-.09-2.04.35-2.921.68-.829.31-1.67.65-2.529.87-.061-.01-.13-.01-.2-.01-.19-.01-.38-.02-.57-.01-.75 0-1.51.07-2.26.01-.24-.02-.42.06-.54.21v7.15l.03.02.08.04.989.57.07.04 4.32 2.49.069.04 2.31 1.34 2.76 1.6 1.86 1.08c.01 0 .01 0 .02.01l1.04.6h.01l.211.12.01.01.5.29.09.05.82.47.67.38 2.069 1.19.21.13 1.45.84c.01.01.021.02.03.02l.17.1.5.29.3.17.441.26.47.27.57.33.649.37 1.2.69.33.2.49.28.39.22.05.03.37.21 2.891 1.68.13.07 1.649.96.69.39 1.07.62 1.29.75.039.02.06.04.03.01.62.36.269.16h.01l.481.29h.01l1.4.81.029.02.051.03.39.23.24.13.72.42h.01l.12.07.271.16.13.07.1.06.09.05.04.03.66.38.02.01.181.11.34.19.06.04.83.48h.011l.029.02 1.37.79.021.01.01.01 1.399.81.011.01.33.19.029.01.851.49.2.12.02.01 1.14.66.061.03.2-.12h.01l.27-.16.19-.11.13-.08h.01l.56-.32.25-.14.02-.02 1.41-.81h.01l.61-.35.79-.46.02-.01 1.051-.6.01-.01.26-.15.09-.05.01-.01.83-.48.351-.2.229-.13.2-.12.01-.01.28-.16.26-.15.8-.46.24-.14.09-.05.36-.21 1.42-.82.38-.22.04-.02.17-.1 1-.58.25-.14.021-.02s.01 0 .01-.01l.03-.01.05-.03.05-.03.76-.44.29-.17.53-.31c0 .01 0 .01.01 0l.5-.29.061-.03.63-.36.84-.48.24-.15.359-.21h.011l.029-.02.95-.54.5-.29 1.36-.79.3-.17.03-.02.71-.42h.01l.24-.14.22-.13.15-.08.29-.17.02-.01.3-.18.69-.39.04-.02.02-.02.181-.09.38-.22.399-.23v-.01l.16-.09.03-.01.29-.17.1-.06.021-.01.04-.02.04-.03.12-.07.079-.05 1.181-.67.87-.52 1.12-.65.42-.24h.01l.01-.01.01-.01.45-.26 1.23-.71.04-.03 1.05-.6.17-.1c-.024-.15-.084-.3-.174-.43zm-10.1-9.29c0 .08-.01.17-.02.26-.12.17-.17.4-.13.62a.384.384 0 0 1-.09-.05c-.021-.27-.16-.52-.36-.7.21-.27.41-.55.62-.83-.009.23-.02.46-.02.7z"/><path fill="#4F192B" d="M59.173 65.089c-.696-.499-2.271-.222-2.711.546-.101.177-.002.371.178.436.579.211 1.357-.255 1.887.125.674.481 1.312-.631.646-1.107z"/><path fill="#5B1A33" d="M66.146 71.096a.962.962 0 0 0 .225-.299 3.736 3.736 0 0 0 1.202-.329c.859-.398 1.617-.938 2.348-1.537.548-.45 1.578-1.124 1.726-1.848.021-.1-.027-.196-.128-.226-.885-.264-2.005.842-2.665 1.324a16.06 16.06 0 0 1-1.203.82.553.553 0 0 0-.431-.215c-.654-.027-1.302-.223-1.939-.174l.002-.015a1.649 1.649 0 0 0-.257-.78v-.005a.897.897 0 0 0 .135-.597.753.753 0 0 0-.091-.579c-.03-.061-.069-.116-.102-.176.348.166.85.041.994-.41.535-1.671.399-3.445.36-5.182-.047-2.023.143-4.037.176-6.059.067-4.193-.841-8.304-2.039-12.299a85.203 85.203 0 0 0-.892-5.023c-.571-2.787-1.078-5.961-2.879-8.254-.208-.265-.492-.144-.626.082-.027-.01-.045-.027-.075-.034-.751-.182-1.491-.401-2.268-.441a.576.576 0 0 0-.579.327 2.213 2.213 0 0 0-1.143-.082c-.027.005-.042.023-.061.036-.326.024-.616.26-.743.563-.443.14-.814.375-1.112.68a.646.646 0 0 0-.355.218c-2.238.448-4.439 2.179-6.285 3.238-2.609 1.496-4.684 2.191-5.107 5.522-.364 2.875.527 8.174-2.903 9.419-.547.198-.334 1.039.242.882a4.57 4.57 0 0 0 .787-.295.359.359 0 0 0 .356.125c.29-.059.634-.04.997.016a5.154 5.154 0 0 0-.564.22c-2.176 1.031-3.95 3.676-4.424 5.976-.014.066.08.114.114.048.915-1.768 2.071-3.375 3.656-4.594.771-.592 1.654-.935 2.615-.981.002.109.048.213.161.267.254.121.483.252.713.384.049.198.1.391.091.309.006.054.089.057.086 0-.004-.08-.018-.153-.028-.229.494.295.929.62 1.317.975a.654.654 0 0 0 .204.467c.225.209.471.402.73.582.048.071.104.135.155.203.598.87 1.023 1.885 1.343 3.072.039 1.358-.147 2.722-.455 4.058-.638-3.543-2.94-6.725-6.378-5.88-.248.061-.254.447 0 .505 1.005.228 1.819.575 2.498 1.041.847 1.268 1.197 2.81 1.345 4.319.044.446.049.896.027 1.346-.336-1.503-1.022-3.47-2.34-4.239-.104-.506-.342-.968-.819-1.098-.108-.029-.247.035-.27.153-.059.31-.054.387.073.69.209.503.213 1.032.185 1.566-.015.28-.058.554-.104.828-.024.003-.049.002-.072.009-.278-.261-.648.136-.413.424.039.047.069.098.106.146-.008.189-.003.375.014.559-.125.049-.224.173-.178.326.273.914.327 1.895.418 2.859-1.091-1.175-2.929-1.801-4.16-2.641-.136-.092-.3.121-.176.227.622.532 1.28 1.024 1.931 1.522-.008.037-.021.073-.009.115.072.239.187.461.314.677-.118.015-.216.09-.269.273-.053.184.117.3.267.271.017.02.039.046.067.084.068.089.143.173.214.258.21.25.416.504.622.757.373.458.729 1.051 1.236 1.387l.055.086c.011.017.024.025.036.04.056.148.121.288.209.405.473 1.543 1.137 3.014 1.724 4.527a.71.71 0 0 0 .225.301l.003 1.028c0 .052.019.09.027.136-.603.88-1.088 1.859-1.72 2.694-.643.145-1.22.401-1.863.791-.504.307-.395 1.021.014 1.274v.011a.778.778 0 0 0-.566.097c-.303.071-.586.311-.612.663-.271 3.739 1.425 8.682 4.099 11.878.201.291.439.549.71.779.383.388.778.745 1.19 1.053a.565.565 0 0 0 .536.101 17.956 17.956 0 0 0 2.398 1.786c.227.142.435.132.605.049.747.423 1.528.735 2.336 1.027.059.025.115.051.173.075 1.525 1.008 3.138 1.756 4.759 1.08.677.301 1.357.605 1.994 1.018.535.347 1.143-.12 1.184-.679.023-.314.047-.625.068-.937.268-.956.163-2.068.106-3.018a12.957 12.957 0 0 1-.022-.786.531.531 0 0 0 .199-.334c.228-1.319.38-2.643.425-3.974.312-.325.485-.544.774-.943.031-.043.042-.087.057-.131.368.567.98.921 1.691 1.134a8.618 8.618 0 0 0-.423 1.883c-.204 1.756-.424 4.435.499 6.034.271.472 1.154.444 1.249-.164.222-1.43-.265-3.001-.272-4.463a7.486 7.486 0 0 1 .606-3.017c.813.052 1.612.013 2.216-.035l.01-.002c-.08.208-.152.418-.212.624-.274.952-.517 2.523.06 3.4.085.128.284.145.365 0 .362-.653.343-1.57.474-2.299.144-.798.417-1.466.912-2.011 2.21-.572 4.358-1.919 5.565-3.788.201-.311-.183-.624-.476-.476-1.03.524-1.849 1.312-2.813 1.945-.477.313-1.069.498-1.674.641a.665.665 0 0 0-.578-.005 2.366 2.366 0 0 0-.369.207c-.175.034-.353.068-.518.104-.308.066-.631.115-.958.157-.012-.053-.014-.108-.042-.156-.22-.367-.584-.508-.98-.566-.069-.264-.309-.477-.614-.36a2.689 2.689 0 0 0-.538.288c-.594-.069-1.172-.415-1.656-.725-.495-.317-.726-.668-1.334-.652a.546.546 0 0 0-.233.07c-.751-.797-1.889-1.502-2.338-1.766-.864-.506-1.773-.878-2.7-1.2-1.849-1.216-4.026-2.218-6.154-2.543a.71.71 0 0 0 .126-.304c.014-.105.021-.204.023-.301a.897.897 0 0 0 .293-.204.53.53 0 0 0-.231-.874.893.893 0 0 0-.229-.039c1.766-1.092 3.816-1.916 5.919-2.584.028.211.169.394.442.399.69.012 1.197-.42 1.552-.983 1.431-.393 2.853-.734 4.192-1.048.247.166.616.191.848-.028a.984.984 0 0 0 .147-.183c.131-.025.261-.046.392-.067.039.027.077.056.125.075.598.238 1.277.222 1.91.244.36.012.587-.243.674-.541 3.834.022 7.439 1.532 9.317 5.32.11.222.406.055.372-.157-.8-4.844-4.884-6.596-9.27-6.715zM54.633 88.589c.121-.065.094-.26-.038-.292a5.761 5.761 0 0 1-1.27-.5c.185.01.373.01.562.005 1.097.356 2.235.58 3.157.507.324.186.651.315.984.35.042.275.083.551.128.826.013.08.044.148.081.211-.153.682-.27 1.371-.282 2.081-3.907.957-7.466.391-9.979-2.859l-.043-.238c-.029-.163-.167-.241-.313-.264-.414-.844-.827-1.683-1.208-2.529-.25-.856-.367-1.73-.426-2.614.042-.092.091-.176.135-.266.639.885 1.408 1.727 1.619 1.924 1.458 1.363 4.544 4.922 6.893 3.658zm3.375-16.062c.033-.262.03-.528.012-.794.344.059.702-.234.732-.615.003-.04.001-.078.003-.118a.978.978 0 0 0 .353-.298c.209-.299.224-.66.178-1.01.013-.027.027-.053.039-.081.282-.681.256-1.407-.249-1.975-.239-.27-.573-.215-.794-.023a1.28 1.28 0 0 0-.313-.187c-.357-.142-.634.095-.732.398a9.161 9.161 0 0 0-.384-.152 6.552 6.552 0 0 0-2.802-2.126c-1.43-.569-3.216.048-4.673 1.195.289-.774.376-1.64.621-2.433a.666.666 0 0 0-.059-.535c2.479-2.638 6.984-4.406 8.693-.123.624 1.564 1.281 2.855 2.469 3.558a.68.68 0 0 0-.076.179c-.36-.086-.782.27-.662.675.144.484.361.945.505 1.435.019.065.04.125.06.189a.837.837 0 0 0 .325.849c.034.07.059.142.099.211l.002.004c.003.266.018.541.047.812-1.147.25-2.28.582-3.394.965z"/><path fill="#CC5E7B" d="M86.566 58.639c.076-.925-.472-1.697-1.369-1.906-.183-.043-.354.174-.249.329-.076-.023-.146-.059-.229-.066-.36-.032-.434.326-.487.58-.031.149.151.278.268.156.021-.023-.197-.059.021-.021.059.01.129.033.18.061.163.088.297.273.403.42.14.194.253.408.355.625.093.199.099.443.224.624.215.31.651.256.776-.102a.83.83 0 0 0 .007-.454.447.447 0 0 0 .1-.246zM86.423 59.703c-.138.033-.177.249-.041.314 1.121.532-.508 1.904-1.053 2.451-1.362 1.364-2.876 2.676-4.13 4.132-.109.127.026.296.176.227 1.32-.612 2.315-1.804 3.366-2.779.798-.74 1.575-1.258 2.262-2.115.674-.843 1.13-2.639-.58-2.23zM83.536 56.515c-.597-.481-1.454.34-.856.856.838.723-.155 2.597-.51 3.329-.476.978-1.137 1.852-1.615 2.821-.073.147.045.326.216.281 1.23-.323 2.056-2.429 2.505-3.439.456-1.026 1.4-2.929.26-3.848z"/><path fill="#CC5E7B" d="M82.36 56.537a.652.652 0 0 0-.54-.345c-.481-.009-.798.113-1.234-.148-.48-.287-.884-.805-1.221-1.242a14.243 14.243 0 0 1-.865-1.23.448.448 0 0 0 .213-.257c2.121-5.903-2.397-13.451-7.455-16.405a.215.215 0 0 0-.193-.018c-.491-.82-1.042-1.559-1.627-2.116-.126-.12-.241-.248-.362-.371-.949-1.517-2.112-2.921-3.515-3.634-.87-.648-1.796-.885-2.82-1.085a7.963 7.963 0 0 0-1.854-.621c-.401-.079-.553.473-.168.61.895.319 1.73.748 2.515 1.263a.326.326 0 0 0 .191.209c.037.016.069.024.104.035l-.004.007c.03.007.061.019.093.026 5.355 3.803 8.165 11.781 9.968 17.794.11 1.033.196 2.072.335 3.11.022.171.243.171.266 0 .49-3.669-.164-6.762-1.351-9.88-.065-1.29-.479-2.711-1.08-4.028 1.573 1.815 3.221 3.502 4.5 5.594 1.697 2.776 2.083 5.531 1.718 8.622-.048-.149-.107-.297-.133-.448-.04-.239-.416-.176-.414.056.012 1.39.496 2.953 1.271 4.101.349.518.971 1.108 1.637 1.414.018.14.137.24.28.204.051-.013.095-.036.142-.056.501.125 1.001.051 1.407-.374.316-.111.382-.537.196-.787z"/><path fill="#AA5265" d="M81.401 73.271c-.348.162-.313.651-.646.862-.508.322-1.233.262-1.614-.188-.093-.109-.245-.075-.342 0-.268.208-.231.654-.003.882.297.296.679.395 1.083.439.875.095 1.785-.317 2.113-1.155.141-.363-.105-1.067-.591-.84z"/><path fill="#915058" d="M79.83 72.874c-.262-.652-.93-1.112-1.322-1.701-.588-.88-1.002-1.88-1.504-2.811-.7-1.297-1.703-3.006-3.368-2.997-.191.001-.227.276-.045.33 2.034.6 2.553 2.881 3.333 4.593.446.979 1.324 3.158 2.705 2.94.144-.021.256-.219.201-.354zM77.486 73.939c.196-.249.346-.544.148-.834-.065-.097-.213-.136-.301-.039-.188.211-.204.484-.283.749-.027.021-.057.042-.074.078-.08.161-.137.337-.181.521-.577-.744-1.304-1.395-1.799-1.789-1.688-1.346-3.856-2.169-6.016-1.85-.327.048-.202.497.071.529 1.854.221 3.596 1.065 5.039 2.226a7.787 7.787 0 0 1 1.827 2.157c.219.375.327.773.495 1.14-.14.447-.303.937-.26 1.334a.192.192 0 0 0-.101.139c-.142 1.002.042 2.047-.072 3.067-.071.638-.437 1.56-.353 2.286-.324.772-.647 1.547-1.086 2.284-.067.114-.141.223-.211.335-.457-.003-.982.243-1.425.251-.611.011-1.248-.171-1.849-.016-.198.052-.295.34-.127.483.58.493 1.438.621 2.176.65a3.1 3.1 0 0 0 .363-.013c-.151.235-.291.477-.436.715a.515.515 0 0 0-.192.043c-.397.18-.715.488-1.127.655-.472.191-.985.272-1.482.141-.41-.108-.633.449-.283.671.515.327 1.188.392 1.834.27-.878 1.075-1.918 1.866-3.06 2.637a.323.323 0 0 0 .161.597c1.351.088 2.512-1.158 3.366-2.058.576-.608 2.254-2.262 1.949-3.259a43.117 43.117 0 0 0 1.505-2.005c.742-1.067 1.688-2.664 1.31-4.01.021-.242.038-.47.057-.657.083-.83.152-2.007-.301-2.799.374-.206.556-.66.664-1.129.012-.015.027-.022.038-.039.256-.416.291-.872.187-1.336.103-.704.171-1.545-.171-2.125z"/><path opacity=".6" fill="#A57E97" d="M41.744 37.681c.05-.103-.031-.203-.142-.184-2.863.507-4.502 5.091-5.443 7.457-1.314 3.3-1.842 7.389-.26 10.684.183.381.804.111.678-.286-1.009-3.181-.415-6.28.619-9.36 1.052-3.134 3.132-5.434 4.548-8.311zM44.798 53.807c-1.628-2.357-6.279-.565-7.589 1.375-.098.146.064.354.229.298.976-.329 1.824-.964 2.79-1.339 1.419-.552 2.792-.574 4.18.056.234.107.57-.13.39-.39z"/><path opacity=".6" fill="#A57E97" d="M41.619 50.577c-.903.196-3.105.647-3.105 1.874 0 .231.242.344.434.25.903-.444 1.706-.839 2.702-1.066.704-.162 1.342-.218 2.054-.047.609.147 1.103.562 1.715.716a.193.193 0 0 0 .235-.235c-.459-1.698-2.624-1.798-4.035-1.492zM34.855 60.948c-1.933-.242-3.717.076-5.066 1.573-.159.177-.008.511.247.424 1.299-.44 2.168-1.124 3.639-1.058a8.519 8.519 0 0 1 2.208.369c.705.223 1.169.807 1.805 1.14.146.077.346-.017.341-.196-.043-1.506-1.926-2.096-3.174-2.252zM33.849 58.324c-.727.142-3.862 1.138-2.727 2.391.04.044.115.053.166.021.983-.616 1.637-1.144 2.839-1.401.636-.137 1.273-.146 1.918-.104.978.063 1.612.653 2.446 1.05.234.112.464-.068.419-.322-.366-2.054-3.538-1.933-5.061-1.635zM35.632 57.136c-.14.08-.091.264.041.314.466.179 1.017.118 1.504.207.314.057.607.161.883.319.26.149.382.412.605.595.205.169.645.091.603-.25-.155-1.285-2.686-1.725-3.636-1.185zM40.069 55.627c-.1.014-.142.088-.159.17a1.406 1.406 0 0 0-.774-.136c-.178.019-.315.293-.104.386.389.17.724.465.952.822.201.312.212.731.506.979.087.073.208.085.293 0 .424-.42.078-1.087-.21-1.483-.067-.093-.146-.172-.224-.25a2.7 2.7 0 0 1 .753.071c.316.083.503.411.816.453.106.014.208-.024.24-.137.277-.961-1.578-.947-2.089-.875z"/><path fill="#915058" d="M57.335 62.275c-1.033-.766-2.492-1.06-3.311.111-.078.111.07.234.177.176.991-.54 2.147.049 2.917.704a4.76 4.76 0 0 1 1.002 1.218c.224.381.265.831.569 1.163.132.143.334.08.436-.056.797-1.069-1.05-2.767-1.79-3.316zM71.052 65.742c-.628-.002-1.102.601-1.605.923-.682.436-1.576.826-2.371.989-.255.053-.183.427.06.438.967.04 1.686-.085 2.563-.513.635-.31 1.565-.775 1.648-1.543.016-.161-.148-.294-.295-.294z"/><path fill="#AA5265" d="M76.676 60.791c-2.089-.876-3.64 1.133-4.531 2.721-.213.381.275.737.589.455.86-.772 2.061-2.562 3.433-1.966 1.055.458.639 2.039 1.318 2.769.125.135.342.121.469 0 1.126-1.07-.082-3.478-1.278-3.979z"/><path fill="#915058" d="M74.954 78.26c-.865 1.282-1.121 2.62-2.324 3.708-1.397 1.264-3.94 2.569-5.796 2.166-.209-.045-.369.268-.153.364 3.483 1.548 9.304-2.041 8.979-6.047-.031-.379-.49-.513-.706-.191z"/><g fill="#2D0F1A"><path d="M65.588 92.951l.002-.001.025-.025-.027.026zM65.616 92.924c.159-.155.094-.096 0 0z"/><path d="M69.289 86.397c.193-.223.002-.502-.271-.464-.652.094-1.174.304-1.795.515-.981.334-2.329-.13-3.296-.346-1.695-.378-3.306-1.163-4.841-1.95-1.966-1.009-3.837-2.979-6.182-2.784-.156.013-.205.242-.038.284.915.233 1.755.665 2.566 1.175-.145.12-.207.31-.06.515.319.444.644.884.958 1.329.126.235.294.453.434.679.173.281.316.578.437.885-.011-.012-.015-.014-.026-.027-.577.016-1.173-.093-1.75-.118-.291-.012-.483.232-.514.488-.544.127-1.195-.013-1.706-.146-.879-.229-1.735-.803-2.655-.812-.145-.001-.216.179-.116.28.608.614 2.293 1.589 3.745 1.834-.016.01-.033.016-.049.027-.14.099-.09.31.087.32.947.055 1.93.102 2.875.008a.525.525 0 0 0 .311-.15c.581-.02.996-.272 1.031-.915.016-.281-.068-.566-.182-.845-.036-.385-.229-.802-.489-1.216.085.062.168.129.256.187.92.607 1.592 1.287 2.362 2.053.18.178.441-.006.398-.232a1.763 1.763 0 0 0-.351-.748c.316.165.636.323.968.451.599.23 1.251.468 1.924.664-1.071 1.727-1.374 4.259-1.029 6.456-.452.491-.707 1.133-1.29 1.499-.756.474-1.144-.208-1.682-.581.322-.515.408-1.048.011-1.624-.015-.021-.036-.031-.054-.049.051-.19.099-.381.145-.573.181-.755.555-1.624.25-2.384-.046-.115-.188-.213-.31-.126-.63.445-.737 1.196-.891 1.913a18.545 18.545 0 0 0-.295 1.674c-.161-.249-.345-.466-.563-.6-.937-.573-2.028-.614-3.098-.68-1.857-.115-3.663-.139-5.471-.65-.259-.073-.509.292-.277.477 1.591 1.277 3.798 1.273 5.748 1.409 1.103.077 2.52-.008 2.831 1.289.023.098.038.196.05.293-.146.227-.302.447-.436.682-.416.73-3.615-.19-4.982-.544a26.033 26.033 0 0 1-1.225-.621c-2.249-1.238-4.028-3.455-5.451-5.534-2.39-3.49-4.231-9.201-2.697-13.371.087-.234-.252-.34-.378-.16-.14.199-.247.411-.358.621-.166-.127-.395-.169-.644-.039-.734.381-1.219.969-1.536 1.671-1.104 1.22-1.048 3.483-.235 5.082.267 1.46.691 2.832 1.008 3.756 1.355 3.963 5.764 8.11 9.662 9.544.274.101.454-.154.431-.39a18.62 18.62 0 0 0 4.769 2.157c.294.084.525-.302.301-.516-.026-.025-.055-.045-.082-.07.725.095 1.418.062 1.983-.221.035-.018.064-.047.097-.069 1.512.593 3.454.218 4.967-.071.262-.05.557-.112.869-.184.248.116.545.028.717-.178 1.868-.495 4.113-1.351 4.933-2.672.178-.287-.113-.642-.428-.557a14.35 14.35 0 0 0-.943.302c-.133-.301-.346-.588-.492-.843-.325-.57-.281-1.41-.76-1.861a.294.294 0 0 0-.408 0c-.534.472-.309 1.317-.048 1.897a.37.37 0 0 0-.438.055 1.293 1.293 0 0 0-.144.163c-.114.225-.146.455-.209.697-.073.283-.282.552-.56.659-.44.17-.776-.037-1.025-.354-.375-2.14.248-4.424.912-6.476 1.737.323 3.485.183 4.724-1.239z"/></g><path fill="#2D0F1A" d="M58.781 71.477c.001-.039.006-.076-.001-.118-.012-.071-.01-.145-.008-.219.607-.61.805-1.759.534-2.52-.158-.444-.601-.992-1.127-.973-.531.018-.856.378-.746.908.058.278.339.354.569.275.005.006.001.008.01.016.065.063.12.176.131.268.037.31-.049.618-.151.907-.055.155-.168.253-.271.361-.549.185-1.048.379-1.699.354-.902-.035-1.744-.276-2.653-.207-1.328.1-2.747.835-3.328 2.058-.153.323.155.64.481.481l.028-.014a.74.74 0 0 0 .249.346c-1.332.781-2.598 2.078-3.345 3.246-.104.164.07.42.265.344 1.525-.594 2.563-1.986 3.994-2.782 2.044-1.137 4.791-1.259 7.007-1.864.423-.116.433-.694.061-.867z"/><path fill="#3D1122" d="M64.378 67.291c-1.028-.94-2.385-1.327-3.407-2.349a14.51 14.51 0 0 1-1.37-1.581c-.188-.913-.625-2.165-1.17-3.216a41.955 41.955 0 0 1-.925-3.697c-.108-2.751-.604-5.437-1.341-8.093a93.63 93.63 0 0 0-.413-2.407c-.621-3.311-1.046-6.993-.266-10.314.544-2.315 1.956-5.393 4.648-5.52.983-.046.935-1.378 0-1.492-1.04-.126-1.92.07-2.667.493-.118-.418-.517-.732-.96-.394-1.342 1.026-2.237 2.483-3.513 3.589-1.85 1.603-4.171 2.592-5.914 4.318-.191.189.001.568.274.47.099-.036.193-.08.291-.117-.1.056-.199.109-.302.175-.165.105-.164.409.059.45.595.108 1.122.07 1.729.042.776-.036 1.375.418 1.857 1.003.358 1.92 1.4 3.835 2.162 5.481.265.572.511 1.156.741 1.748.066.348.132.695.194 1.043.403 2.256.726 4.512 1.087 6.764.022.346.045.692.064 1.039.063 1.199.772 4.315-.443 5.059a.62.62 0 0 0-.307.59c-1.469-.11-2.821.381-3.977 1.253.484-1.826.93-3.873-.4-5.257-.229-.238-.65-.059-.647.268.002.131-.008.256-.009.385a.315.315 0 0 0-.144.24c-.304 2.591-.941 5.135-1.833 7.604-.061-.515-.122-1.028-.144-1.533-.074-1.725.117-4.87-1.939-5.549-.455-.15-.671.419-.404.717l-.017.004c1.3 1.587.87 4.153 1.046 6.07.011.121.014.235.023.354-.106-.114-.247-.207-.409-.187a.773.773 0 0 0-.315.111c-.173-.67-.486-1.28-1.091-1.699-.243-.168-.472.148-.368.369.709 1.524.621 2.823.421 4.452-.081.659-.364 1.654-.241 2.434-.081-.297-.185-.586-.364-.729-.043-.034-.091-.045-.142-.018-.464.247-.183 1.106-.104 1.5.121.614.303 1.451.647 1.983.11.17.271.219.418.191.163.157.483.15.62-.066.963-1.523 1.876-3.142 2.312-4.899.247-.491.472-.987.697-1.481 1.162-.291 1.633-2.103 1.895-3.284.01-.011.017-.023.026-.035.768-.911 1.934-1.716 3.073-2.079 1.073-.342 2.156.164 3.232-.166a.255.255 0 0 0 .129-.098c.102.17.214.337.34.501.019.024.042.04.062.061a.63.63 0 0 0 .295.238c1.134 2.805 3.958 6.07 6.854 6.1.42.005.671-.547.35-.839z"/><path fill="#2D0F1A" d="M72.963 79.478c-1.256.879-2.229 1.614-3.761 2.044-2.717.761-4.861.13-7.528-.365-.322-.06-.56.387-.235.557 2.585 1.353 5.253 1.458 8.039.807 1.341-.313 3.917-1.102 3.873-2.82-.005-.181-.221-.34-.388-.223z"/><path fill="#CE9C52" d="M40.945 70.903c-.695.295-1.299.732-2.019 1.017-1.227.484-2.456-.504-3.29-1.271-1.715-1.577-1.865-3.327-1.697-5.49.022-.284-.352-.324-.487-.132-1.575 2.208.332 5.687 2.213 7.052 1.081.785 2.215 1.217 3.54.851.781-.216 2.158-.855 2.187-1.771.007-.247-.254-.338-.447-.256zM85.171 64.694c-.099-.354-.534-.292-.656 0-.286.687-.168 1.483-.485 2.185-.208.46-.597.787-.676 1.267-.291.161-.569.35-.852.525-.307.191-.619.338-.749.69-.032.087.034.204.125.221.367.07.671-.12.993-.281.397-.198.843-.386 1.143-.722.1-.111.107-.275.056-.407.796-.951 1.445-2.24 1.101-3.478z"/><path fill="#664617" d="M35.779 64.632a1.845 1.845 0 0 0-.523-.416.399.399 0 0 0-.131-.213c-.237-.204-.475-.302-.771-.392-.569-.171-.887.501-.69.896a.46.46 0 0 0 .079.447c.218.249.575.402.854.57.331.199.704.599 1.077.685.384.088.831-.185.808-.616-.022-.382-.313-.715-.703-.961zM41.202 69.882c-.175-.403-.377-.867-.772-1.092a.298.298 0 0 0-.374.049 15.362 15.362 0 0 1-.358-.618c-.247-.457-.984-.144-.835.352.236.788.565 1.531.852 2.3.123.33.127.754.465.952.3.176.552.11.8-.103.014-.012.015-.033.026-.046.255.109.569-.024.584-.364.021-.502-.192-.978-.388-1.43zM82.618 67.488a1.11 1.11 0 0 1 .062-.305c.021-.014.045-.015.062-.038.137-.185.266-.338.303-.567.022-.138-.105-.261-.241-.185-.039.022-.057.056-.088.081-.012-.011-.02-.027-.034-.034-1.321-.704-1.409 2.942-.798 3.554a.542.542 0 0 0 .844-.108c.198-.339.031-.786-.023-1.142a6.607 6.607 0 0 1-.087-1.256z"/><path fill="#3D1122" d="M41.82 70.837c-.418-.163-.73.352-.563.697a.507.507 0 0 0-.185.285l-.012-.004c-.177-.04-.354.07-.428.224a.235.235 0 0 0-.272.161.859.859 0 0 0-.051.212c-.013.01-.028.018-.042.026-.135.039-.271.075-.404.138-.259.121-.326.405-.257.652-1.862.108-3.894-.846-5.046-2.077-1.549-1.654-2.234-4.362-1.548-6.548a.53.53 0 0 0 .542-.096c.2-.16.388-.352.526-.568.131-.202-.007-.436-.207-.511a.82.82 0 0 0-.591.019c-.1-.167-.299-.268-.514-.149a1.95 1.95 0 0 0-.579.502c-.295-.078-.617-.117-.865-.02-.122.048-.234.103-.351.141-.354-.193-.732-.206-1.131-.171-.627.056-.728.892-.264 1.101-.06.179.059.378.233.435.337.109.675 0 1.004-.098.285-.085.576-.146.87-.19-.268 1.737.683 4.157 1.536 5.576.621 1.553 1.947 2.978 3.523 3.501.763.253 2.379.563 3.354.154.65-.04 1.265-.203 1.795-.543.071.03.144.056.226.067a.393.393 0 0 0 .367-.131c.248-.005.469-.176.497-.484.079-.835-.336-1.979-1.163-2.301zM80.309 71.416c-.631-.885-1.019-2.132-.81-3.218.045-.237-.299-.421-.414-.174-.488 1.043-.513 2.037.006 3.094.337.686 1.292 2.456 2.244 2.158a.21.21 0 0 0 .152-.2c.036-.648-.826-1.165-1.178-1.66zM83.457 60.201c-.781.395-1.02 1.18-1.397 1.912-.409.792-.973 1.381-.776 2.326.038.185.328.182.369 0 .175-.774.897-1.43 1.286-2.111a6.194 6.194 0 0 0 .731-1.963c.024-.127-.094-.223-.213-.164zM74.618 70.298c-.82-1.08-1.525-2.319-2.121-3.535-.133-.271-.504-.069-.457.192.263 1.461.842 2.649 1.653 3.883.587.892 1.459 2.33 2.578 2.502.211.032.38-.118.336-.337-.204-1.025-1.37-1.89-1.989-2.705z"/><path fill="#1E030C" d="M72.37 78.968c-1.671-1.487-3.787-2.233-5.977-2.642-2.213-1.07-4.904-1.534-7.258-1.541-1.173-.003-2.305.381-3.421.839-.883-1.627-3.745.988-4.725 1.299a.537.537 0 0 0-.271.193.564.564 0 0 0-.234.055c-.088-.003-.176-.001-.265-.01-.65-.063-.668.857-.143 1.059l.837.321c.261.1.449-.021.551-.208.034.012.069.019.104.029.07.294.368.522.644.425.83.19 1.325.023 2.127-.339 2-.904 3.617-1.356 5.862-1.387 4.189-.058 7.769 1.005 11.482 2.795.549.266 1.195-.436.687-.888z"/><path fill="#9D9DB2" d="M56.839 100.353c4.269.134 8.483-1.113 11.819-3.705 3.983-2.098 6.404-6.241 8.329-10.216.212-.438-.371-.981-.718-.554-2.041 2.512-3.221 5.386-5.388 7.602a.52.52 0 0 0-.35.046c-1.607.791-2.903 1.908-4.348 2.86-3.845 1.418-8.328 1.505-12.257.951-3.643-.514-7.123-2.228-9.876-4.71-.648-1.027-1.44-1.979-2.085-3.009-.998-1.597-1.692-3.349-2.239-5.144-.481-1.578-.894-3.196-.889-4.852.002-.686.006-1.335-.334-1.872l.012-.075c.089-.47-.587-.669-.723-.199-1.03 3.565-.172 7.441 1.405 10.798.512 2.443 2.788 5.148 4.322 6.67 1.626 1.613 3.671 2.861 5.838 3.76.128.118.246.247.341.405.309.513.079 1.118-.208 1.574-.756 1.2-2.608 1.786-3.945 1.485-.297-.066-.501.335-.251.506-.646-.245-1.262-.492-1.788-.773-2.95-1.58-5.55-4.51-7.42-7.22-.13-.19-.41-.15-.5.02-1.76-2.75-2.92-5.81-3.16-8.75-.02-.27-.39-.27-.42 0-.38 3.79 1.89 7.95 3.82 11.08 1.449 2.35 3.26 4.28 5.439 5.76a6.47 6.47 0 0 1-.41-.13c-1.689-.62-3.26-1.51-4.739-2.52-2.53-1.73-3.99-4-5.41-6.45-.98-2.69-1.51-5.61-1.83-8.43-.061-.53-.771-.53-.82 0-.519 4.98.95 10.07 3.95 14-4.08-1.21-7.83-2.84-11.46-5.19-3.4-2.21-7.35-6.09-7.5-10.43v-.07c0-.24-.38-.39-.5-.13-.03.06-.05.13-.07.19-.01.02-.01.04-.019.06-.12-.03-.25.02-.271.17-.12-.13-.279-.22-.47-.2-.71.07-1.26.54-1.94.61a.37.37 0 0 0-.1.02v5.8c.12.2.24.39.37.58.02.04.03.09.06.13.13.19.29.34.42.51.07.08.131.15.19.22.04.05.08.1.13.14l4.32 2.49.069.04 2.31 1.34 2.76 1.6 2.93 1.69.211.12 1.42.82.67.38 2.069 1.19c.011-.05.021-.1.011-.16.08.04.149.08.229.12-.02.06-.03.11-.03.17l1.45.84c.01.01.021.02.03.02l.17.1.5.29.3.17.441.26.47.27.57.33.649.37 1.2.69.33.2.49.28.39.22.05.03.37.21 2.891 1.68.13.07 1.649.96.69.39 1.07.62 1.29.75.039.02.06.04.03.01.62.36.269.16h.01l.481.29h.01l1.4.81.029.02.051.03.39.23.24.13.72.42h.01l.12.07.271.16.13.07.1.06.09.05.04.03.66.38.02.01.181.11.34.19.06.04.83.48h.011l.029.02 1.37.79.021.01.01.01 1.399.81.011.01.33.19.029.01.851.49.2.12.02.01 1.14.66.061.03.2-.12h.01l.27-.16.19-.11.13-.08h.01l.56-.32.25-.14.02-.02 1.41-.81h.01l.61-.35.79-.46.02-.01 1.051-.6.01-.01c1.02-.9 1.94-1.87 2.76-2.85 1.7-2.03 3.06-4.31 4.79-6.31.72-.84 1.21-1.81 1.74-2.78.33-.59.71-1.09 1.029-1.62l.011-.01c.08-.08.12-.17.14-.27.24-.42.42-.87.5-1.41a.374.374 0 0 0-.72-.2c-.12.31-.271.6-.42.9-.061.02-.13.04-.19.08-.29.2-.7.23-1.09.29-.09-.22-.33-.38-.59-.22-1.311.85-2.44 1.88-3.87 2.55-2.02.94-4.05 1.64-6.22 2.18-3.48.86-6.91.3-10.301-.56-.785-.446-1.684-.796-2.566-1.127a3.873 3.873 0 0 0 2.434-.209.304.304 0 0 0 .006.171c.041.121.099.232.164.337.018.282.27.536.557.575 1.138.814 3.188.904 4.303.922.311.005.556-.189.679-.441a.864.864 0 0 0 .661.081c.221-.063.296-.298.201-.493-.185-.382-.561-.627-.765-1.016-.277-.529-.216-1.238.168-1.694.569-.676 1.62-.424 2.259-.884z"/><path fill="#FDFDFF" d="M86.909 99.481l-1.04.59-.04.03-.07.04c-.29-3.19-.34-6.68-2.09-9.44-1.69-2.65-4.38-3.92-6.32-6.26-.24-.29.061-.73.42-.54 3.141 1.7 6.101 4.39 7.66 7.61.73 1.51 1.03 3.27 1.2 4.92.099 1.05.32 2.06.28 3.05zM37.042 90.017c-.121-.783-.387-1.542-.728-2.288-.22-.814-.408-1.64-.514-2.504-.206-1.686-.023-3.367.051-5.048.288-.915 1.004-1.804 1.093-2.726.018-.184-.198-.333-.366-.279-.113.037-.217.09-.313.154a.439.439 0 0 0-.396-.114c-.09-.432-.35-.688-.838-.694a.463.463 0 0 0-.174.036 3.738 3.738 0 0 0-.224-.163c-.204-.137-.438-.089-.614.042a.399.399 0 0 0-.25.02c-.985.41-1.893.85-2.779 1.454-.143.097-.341.228-.551.381.083-.401-.434-.72-.774-.511-.336.205-.476.509-.522.892-.004.033-.002.092-.001.145-.383.044-.775.156-1.126.244-.216.054-.517.123-.782.237a1.539 1.539 0 0 0-.514.133c-.162.076-.234.262-.246.427-.001.014.009.027.009.041-.33.038-.628.089-.842.144-1.579.4-3.05 1.206-4.544 1.833-2.152.902-4.455 1.402-6.668 2.123-.127.041-.156.263 0 .286 2.695.401 5.331-.417 7.829-1.405 1.317-.521 3.044-1.457 4.587-1.552-.039.151.054.313.248.334.922.099 1.323.288 1.589 1.233.233.83.302 1.696.396 2.549.091.817.102 2.134.731 2.782.25 1.042.66 2.026 1.33 2.871.155.196.512.035.493-.205-.012-.157-.03-.315-.048-.474.096-.055.173-.138.173-.276-.007-2.138-.871-4.064-.544-6.243.075-.506.219-.989.388-1.462.014.233.048.457.122.65.12.314.651.508.822.107.095-.221.153-.471.199-.729.2.545.399 1.059.539 1.497a24.617 24.617 0 0 0 1.764 4.191c.166.407.348.81.554 1.204a.422.422 0 0 0 .08.103 9.58 9.58 0 0 0 1.791 2.554c.112.114.355-.002.287-.168a54.198 54.198 0 0 1-.717-1.826z"/><path fill="#7D7D93" d="M67.863 101.769c-2.073 1.388-4.617 2.042-7.049 2.565-2.295.494-4.446.778-6.658.735a.388.388 0 0 0-.109-.142c-1.01-.779-2.608-.795-3.837-1.006-1.449-.248-3.428-.465-4.536-1.508-.228-.215-.66.081-.454.351.035.046.074.084.111.128-3.607-1.847-6.684-4.706-9.317-7.818-.114-.135-.362.008-.3.175 2.082 5.593 9.11 9.614 14.623 10.834 3.371.746 6.7.559 10.024-.276 2.254-.566 6.609-1.478 7.791-3.75.091-.175-.103-.413-.289-.288z"/><path fill="#CC5E7B" d="M85.716 67.258c-.152-.215-.523-.279-.66 0a2.86 2.86 0 0 0-.208.608.549.549 0 0 0-.17.095c-.507.412-.962.863-1.502 1.237-.466.323-1.025.545-1.423.954-.123.127-.107.271-.026.375a.253.253 0 0 0 .11.233c.15.106.336.138.528.147-.017.01-.032.014-.049.025-.185.125-.132.454.12.444.235-.009.437.127.652.208.055.021.109.031.164.048-.688.533-1.625.515-2.43.758-.236.071-.209.371 0 .452 1.561.608 3.925-.298 4.108-2.105.015-.145-.093-.309-.216-.377-.028-.015-.054-.013-.081-.022.075-.043.156-.068.228-.118.859-.587 1.528-2.012.855-2.962z"/><path fill="#EDAB54" d="M35.931 71.025c-.129-.169-.292-.322-.445-.495-.148-.169-.286-.347-.425-.525-.026-.047-.063-.088-.088-.137-.019-.038-.051-.052-.079-.072a6.671 6.671 0 0 1-.497-.783c-.116-.215-.426-.063-.378.16.094.441.256.85.459 1.242a.179.179 0 0 0 .003.102c.183.504.729 1.237 1.327 1.292a.971.971 0 0 0 .452.067c.088-.011.148-.076.128-.168-.062-.293-.247-.493-.457-.683z"/><path fill="#CCA6C0" d="M39.428 39.213c-1.408.803-2.154 2.665-2.838 4.074-.845 1.741-1.738 3.691-1.552 5.664.012.122.208.171.23.031.3-1.898 1.255-3.541 2.086-5.248.696-1.429 1.99-2.767 2.372-4.292.044-.172-.141-.318-.298-.229zM33.833 60.857c-.454-.21-.926-.113-1.387.035-.209.067-.886.443-.541.747.206.181.516.08.752.016.402-.11.813-.13 1.176-.355.151-.094.183-.358 0-.443zM34.976 58.541c-.162-.31-.557-.229-.848-.2-.427.042-.75.165-1.079.441-.1.084.01.224.118.202.354-.072.753-.083 1.113-.093.274-.008.521.048.695-.197.032-.044.024-.108.001-.153zM38.042 57.169c-.313-.34-.779-.23-1.169-.08-.201.078-.19.409.054.399.349-.015.675.104 1.018.053.176-.026.199-.263.097-.372zM40.035 56.419a.788.788 0 0 0-.44-.151c-.206-.017-.253.325-.049.361.151.026.283.144.435.182.076.019.137-.036.143-.109l.011-.109c.006-.074-.046-.135-.1-.174zM40.964 53.275c-.422-.213-.866.106-1.223.335-.186.119-.068.454.156.371.354-.13.826-.191 1.098-.46.069-.068.06-.201-.031-.246zM41.79 50.848c-.026-.119-.137-.176-.247-.188a1.241 1.241 0 0 0-.636.111c-.267.11-.174.52.123.444.239-.061.853.056.76-.367z"/><path opacity=".13" d="M55.738 11.379l-46.07 26.56v53.12l1.67.961.63.37h.011l18.81 10.84 1.04.6 2.18 1.26.49.28.44.26.36.21 3.13 1.8 3.311 1.91 1.289.74v.01l12.711 7.32 46.07-26.56V37.94L55.738 11.379zm44.209 78.61l-44.209 25.49-12.51-7.21-31.701-18.28v-50.97l44.211-25.49 44.209 25.49v50.97z"/><path d="M49.424 77.644c4.886-1.481 9.566-3.318 14.659-4.07 2.275-.336 4.567-.384 6.745.468 2.639 1.033 3.817 2.969 5.074 5.36.071.135.272.066.277-.075.139-4.683-5.257-6.946-9.203-6.934-2.88.009-5.878.799-8.619 1.617-3.016.9-6.267 1.891-8.987 3.507-.067.038-.023.151.054.127z"/><path d="M57.031 75.15c2.722.348 5.397.34 8.094 1.007 2.76.683 4.927 1.847 7.301 3.33.27.169.65-.179.454-.454-1.495-2.1-4.845-2.998-7.206-3.582-2.619-.648-6.032-1.428-8.696-.692-.233.064-.158.365.053.391z"/><path d="M49.4 78.575c5.611 1.068 10.802 4.157 16.512 4.64 4.441.376 8.236-1.467 8.35-6.264.009-.382-.555-.371-.586 0-1.001 11.819-18.123 1.265-24.207 1.117-.285-.007-.36.452-.069.507z"/><path d="M74.368 77.325c.245-.395.149-.862-.029-1.264-.184-.415-.805-.056-.614.359.124.268.104.57.193.847a.25.25 0 0 0 .45.058zM75.468 78.229c.276 0 .277-.43 0-.43-.276 0-.277.43 0 .43zM62.048 67.654c1.719 1.179 3.708 1.725 5.797 1.474 1.452-.174 3.269-1.035 3.397-2.677.008-.108-.134-.191-.223-.128-1.348.945-2.188 2.154-4.003 2.326-1.628.154-3.438-.434-4.877-1.15-.104-.052-.187.089-.091.155zM71.632 65.076c.177-1.987 1.306-4.922 3.727-4.991 2.618-.074 2.527 3.214 2.543 4.991.001.077.107.088.13.018.694-2.044.271-5.752-2.59-5.671-2.815.08-3.922 3.323-4.013 5.653-.005.132.192.129.203 0z"/><path d="M72.656 64.381c1.083.08 2.087.235 3.031.801.875.524 1.396 1.315 2.161 1.952.061.051.158.004.137-.08-.537-2.128-3.365-3.399-5.377-3.026-.21.039-.143.339.048.353zM72.781 66.607c2.188.104 2.531 1.995 3.189 3.712.43 1.122 1.127 2.752 2.499 2.889.281.028.417-.367.227-.547-.687-.651-1.263-1.099-1.701-1.977-.399-.801-.668-1.661-1.075-2.459-.66-1.296-1.641-2.25-3.18-1.926-.18.039-.129.3.041.308zM71.159 65.877c.43 2.557 1.91 6.492 4.293 7.834.14.079.284-.077.214-.214-.676-1.312-1.763-2.383-2.464-3.702-.694-1.306-1.12-2.709-1.693-4.066-.091-.214-.383-.048-.35.148zM78.821 64.997c.261-1.652.156-3.324.367-4.982.121-.953.276-1.927.787-2.761.551-.898 1.394-1.1 2.11-1.748.042-.038.022-.119-.034-.131-1.615-.332-2.788 1.554-3.204 2.869-.675 2.13-.426 4.511-.363 6.707.005.185.306.245.337.046z"/><path d="M80.023 60.233c1.113-.525 3.195-3.438 1.96-4.609-.055-.052-.167-.036-.183.048-.054.295.011.551.002.851-.015.517-.201 1.011-.441 1.464-.406.766-1.107 1.332-1.488 2.097-.05.101.051.196.15.149z"/><path d="M81.951 55.64c.702.22 1.638.244 1.947 1.047.306.795-.299 1.578-.554 2.292-.047.132.126.201.215.125.705-.598 1.144-1.795.704-2.669-.406-.807-1.478-1.15-2.313-.924-.064.019-.061.11.001.129z"/><path d="M84.256 56.475c.713.324 1.573.434 2.054 1.129.553.798-.103 1.744-.648 2.355-.056.063.016.173.095.123.843-.543 1.583-1.382 1.163-2.449-.37-.94-1.611-1.548-2.578-1.478-.151.01-.255.243-.086.32zM81.515 70.356c.206-1.295.199-2.659.344-3.968.025-.23-.344-.272-.399-.054-.31 1.24-.468 2.771-.163 4.022.025.103.2.113.218 0z"/><path d="M81.514 67.029c1.425-1.095 3.08-1.879 4.488-3.013.947-.764 2.255-2.153 1.917-3.494-.05-.199-.347-.196-.399 0-.202.765-.284 1.448-.836 2.072-.552.623-1.269 1.139-1.945 1.615-1.203.848-2.353 1.576-3.334 2.68-.064.07.023.205.109.14z"/><path d="M86.703 59.216c.225.217.47.38.558.7.067.243-.008.443.189.615.036.032.094.047.137.018.633-.425-.215-1.531-.807-1.52-.092.002-.146.12-.077.187zM81.294 63.72c.409-.607.813-1.22 1.174-1.857.279-.491.682-1.03.738-1.599.01-.105-.127-.14-.193-.08-.435.391-.67 1.075-.956 1.582-.34.602-.679 1.203-1.04 1.793-.108.176.163.33.277.161zM81.19 69.664c.277 1.332 1.42 2.599 2.827 1.788 1.305-.752 2.145-2.601 2.147-4.063 0-.213-.344-.275-.384-.052-.214 1.209-.579 2.43-1.481 3.321-.394.389-.935.745-1.512.575-.709-.209-1.073-1.064-1.426-1.641-.056-.093-.192-.031-.171.072z"/><path d="M81.745 70.237c1.61-.28 2.861-1.712 3.564-3.097.145-.285-.271-.534-.432-.252a7.767 7.767 0 0 1-1.385 1.799c-.558.531-1.216.905-1.826 1.364-.091.069-.038.206.079.186z"/><path d="M85.047 67.137c.236.127.453.229.647.423.136.136.178.212.366.262a.127.127 0 0 0 .154-.087c.134-.511-.59-.896-1.001-.99-.229-.054-.388.272-.166.392z"/><path d="M84.931 67.127c.445-.874.845-2.046.582-3.035-.045-.17-.291-.164-.339 0-.138.47-.128.987-.212 1.47-.086.494-.14.992-.217 1.487-.016.104.129.19.186.078z"/><path d="M81.62 66.736c.616.606 1.607 1.315 2.425.621.697-.592.992-2.051.71-2.888-.052-.155-.275-.164-.324 0-.225.748-.055 1.596-.525 2.282-.548.8-1.436.136-1.966-.335-.215-.193-.529.114-.32.32z"/><path d="M82.177 66.352c.521.108 1.138.476 1.676.366.705-.145 1.035-1.076 1.025-1.704-.004-.262-.3-.354-.485-.201a4.208 4.208 0 0 1-1.464.8c-.285.092-.65.24-.642.588.003.143.094.25.225.296.2.07.846-.013.95.167l.257-.448c-.169.013-.783.176-.896.068-.164-.157-.384-.102-.509.066-.478.638.61.695.949.77.381.084.543-.487.162-.588a4.579 4.579 0 0 0-.4-.083l-.122-.019c-.184-.069-.21.035-.08.313h-.458c.36.322.972.114 1.354.068.208-.025.391-.238.257-.448-.297-.464-.859-.282-1.3-.458l.225.296.001-.063-.308.308c.413-.022.691-.266 1.039-.463a9.29 9.29 0 0 0 1.104-.725l-.428-.245c-.004.264-.236.76-.41.952-.132.146-.239.146-.425.123-.432-.053-.873-.201-1.298-.038-.13.051-.165.268.001.302z"/><path d="M82.971 67.239c.742-.018 1.508-.58 1.36-1.395-.144-.79-.945-.185-1.097.27-.042.127.049.276.175.308a.519.519 0 0 0 .432-.074.562.562 0 0 0 .18-.186l.076-.099c-.308-.231-.439-.255-.395-.073-.092.101-.052.37-.213.5-.08.065-.162.091-.257.123-.171.057-.298.071-.442.186-.18.142-.029.445.181.44zM38.968 76.369c.055 0 .055-.086 0-.086s-.055.086 0 .086z"/><path d="M38.855 76.295c-1.141 4.821.459 9.883 3.3 13.846 3.018 4.209 7.138 6.522 12.183 7.451 4.866.896 9.938.661 14.06-2.314 4.062-2.932 7.725-7.407 9.19-12.196.082-.269-.346-.463-.464-.196-1.8 4.068-4.871 7.864-8.309 10.679-3.875 3.173-8.387 3.824-13.271 3.272-4.686-.53-8.885-2.384-11.928-6.052-3.255-3.924-5.322-9.295-4.535-14.426.022-.147-.19-.214-.226-.064z"/><path d="M77.191 82.951c-.175 3.328-1.039 6.195-1.818 9.394-.042.174.213.299.3.126 1.414-2.815 2.314-6.411 1.818-9.561-.029-.176-.292-.122-.3.041z"/><path d="M77.247 83.106c1.783 2.716 5.327 3.658 7.278 6.314 2.423 3.299 1.467 7.46 2.713 11.157.083.245.475.217.468-.063-.083-3.279-.143-7.759-1.863-10.687-1.863-3.171-5.582-4.66-8.308-6.943-.149-.125-.41.036-.288.222zM35.348 74.941c-1.13 1.7-3.32 2.52-5.16 3.25-2.489.99-4.989 1.95-7.54 2.8-4.1 1.37-8.56 2.91-12.97 3.16v-.71c4.09-.67 8.06-1.66 12-3.01 2.35-.81 4.68-1.69 6.99-2.62 2.26-.9 4.21-2.13 6.37-3.18.19-.09.45.11.31.31z"/><path d="M29.249 63.576c-.61 6.035 6.847 17.248 13.511 11.542.136-.116-.037-.301-.18-.233-4.023 1.908-7.482.503-10.084-2.881-1.806-2.348-3.22-5.416-3.06-8.428.007-.122-.175-.118-.187 0z"/><path d="M29.415 64.346c.69-2.879 2.045-6.381 5.626-6.322 3.844.063 5.074 3.802 6.3 6.69.057.134.29.067.277-.075-.332-3.524-2.874-7.539-6.819-7.291-3.418.215-5.86 3.706-5.529 6.979.007.077.124.106.145.019z"/><path d="M35.375 57.738c1.562-1.101 3.033-1.339 4.422.136 1.199 1.274 1.641 2.998 1.706 4.702.004.117.169.114.18 0 .176-1.898-.475-4.33-1.935-5.639-1.491-1.337-3.363-.921-4.6.506-.13.151.042.426.227.295zM38.531 55.997c1.229-.551 2.214-1.146 3.563-.497 1.163.56 1.656 1.574 2.161 2.69.041.091.198.047.189-.051-.242-2.814-4.138-5.133-6.084-2.313-.078.114.07.216.171.171zM36.623 55.479c1.116-1.476 1.998-3.067 3.248-4.461 1.009-1.125 2.344-2.03 3.235-3.236.107-.145-.092-.275-.219-.219-1.541.673-2.891 2.345-3.944 3.617-1.023 1.236-2.135 2.629-2.649 4.161-.069.209.216.288.329.138z"/><path d="M35.776 57.105c-.55-3.466-1.104-6.591-.319-10.092.741-3.306 2.521-6.33 4.981-8.641 4.561-4.284 10.691-6.227 16.004-9.332.356-.208.034-.761-.323-.553-6.054 3.516-13.487 5.588-18.052 11.201-3.624 4.456-5.13 12.213-2.52 17.514.068.137.25.033.229-.097z"/><path d="M55.695 28.972c2.162.321 4.367.018 6.535.452 3.025.604 5.13 2.395 6.949 4.807 3.81 5.051 4.822 11.127 5.375 17.284.012.128.201.133.203 0 .201-10.888-5.725-25.635-19.062-22.708-.079.016-.085.152 0 .165z"/><path d="M70.727 36.13c2.505 2.254 5.217 4.141 6.908 7.156.804 1.433 1.342 2.956 1.536 4.581.259 2.174-.532 4.039-.46 6.147.006.182.274.281.364.099 1.45-2.937.957-7.395-.42-10.295-1.567-3.299-4.575-6.164-7.728-7.945-.159-.09-.342.129-.2.257z"/><path d="M77.34 50.666c-.325 2.137 1.619 5.257 3.941 5.317.35.009.456-.467.174-.641-.93-.572-1.808-.825-2.583-1.659-.817-.879-.937-1.919-1.275-3.017-.036-.114-.236-.138-.257 0zM29.444 64.341c3.663-1.077 6.284-.315 9.03 2.42 2.134 2.127 3.132 4.601 4.758 7.006.078.115.283.047.236-.099-1.086-3.387-3.135-6.583-6.007-8.723-2.274-1.695-5.747-2.999-8.157-.844-.109.095.005.279.14.24z"/><path d="M33.716 63.699c-2.09 2.192-.595 6.597 1.111 8.543 2.295 2.618 5.528 1.446 7.005-1.401.164-.316-.296-.589-.479-.28-.76 1.287-1.894 2.61-3.535 2.561-1.269-.038-2.412-.971-3.116-1.962-.682-.959-1.138-2.12-1.331-3.279-.254-1.519.236-2.601.645-4.008.05-.17-.176-.304-.3-.174z"/><path d="M35.456 64.689c-1.37 1.285-.406 4.048.807 5.114 1.213 1.066 3.844.998 4.297-.872.035-.143-.111-.24-.235-.181-.732.347-1.162 1.055-2.043 1.117-.705.05-1.366-.327-1.841-.821a3.696 3.696 0 0 1-.958-1.963c-.128-.802.15-1.529.153-2.32 0-.093-.114-.135-.18-.074z"/><path d="M36.598 66.144c-.26.215-.502.309-.647.691-.239.628-.012 1.264.267 1.835.196.402.801.188.808-.219.017-1.014-.156-1.994-.333-2.989-.033-.185-.238-.312-.413-.315l-.25-.004c-.201-.003-.353.138-.417.317-.135.378-.188.79-.259 1.185-.098.552.736.796.851.235.106-.517.082-1.046.188-1.563l-.308.308.045-.006-.498-.203c.202.263.145.176.145.596l.867-.117c-.087-.212-.097-.469-.126-.695l-.538.41c.17.041.396 1.027.474 1.232.213.558.464 1.086.769 1.6a.359.359 0 0 0 .558.072l.063-.063c.124-.124.151-.383 0-.503-.616-.49-1.33-.784-1.905-1.345-.205-.199-.65 0-.522.304.459 1.089 1.149 1.907 2.054 2.664.426.356 1.035-.225.62-.62-.18-.172-.2-.491-.387-.676l-.41.705c.307.096.499.475.774.639.231.138.445.166.711.176.189.007.333-.133.392-.299.223-.624-.289-1.069-.762-1.395-.105-.072-.271-.022-.33.086-.122.225.014.71-.204.87-.073.054-.406-.009-.484-.022-.197-.032.016.038-.107-.04-.418-.263-.773.376-.382.653l-.12-.161c.018.123.153.245.271.271.511.11 1.037.122 1.545.25a.457.457 0 0 0 .572-.436c-.002-.449-.059-.53-.396-.81a6.6 6.6 0 0 1-1.27-1.418c-.53-.779-.885-1.61-1.315-2.438-.187-.359-.647-.085-.6.253.106.764.557 1.561.918 2.229.478.885 1.13 1.715 1.983 2.261l-.223-.389-.001.313.572-.436c-.547-.142-1.121-.13-1.683-.139l.373.284c-.048-.136-.113-.226-.245-.286l-.291.691c.302.116.871.053 1.15-.098.139-.076.21-.117.296-.261.172-.289-.072-.629.057-.897l-.33.086c.107.066.177.185.275.251.194.13.117-.09.12.014.003.115-.132.382-.174.497l.392-.299c-.494-.022-.793-.649-1.261-.814-.417-.147-.681.417-.41.705.171.182.185.503.363.699l.62-.62c-.801-.721-1.489-1.387-2.103-2.285l-.491.378c.586.505 1.249.911 1.845 1.406v-.503l-.063.063.558.072a8.696 8.696 0 0 1-1.011-2.493c-.102-.438-.179-.654-.621-.8-.255-.084-.55.142-.538.41.014.299.009.65.124.93.178.432.867.42.867-.117 0-.382-.02-.723-.266-1.042a.475.475 0 0 0-.498-.203l-.045.006c-.14.02-.281.175-.308.308-.106.517-.082 1.046-.188 1.563l.851.235c.07-.394.118-.809.241-1.19l-.417.317.25-.004-.413-.315c.192.915.252 1.829.292 2.761l.808-.219c-.312-.554-.392-.903-.134-1.465.057-.125.156-.24.196-.373.082-.261-.242-.4-.428-.246z"/><path d="M36.165 65.942c.428.46.881.869 1.35 1.289.501.449.927.983 1.461 1.385.445.334.951-.376.581-.753-.723-.738-1.333-1.586-2.06-2.315l-.683.683c.936.777 1.679 1.735 2.574 2.551v-.661c-.188.243-.245.46-.17.764l.438-.575c-.302-.016-.635-.252-.939-.308-.473-.086-.751.412-.453.779.22.271.455.686.83.748.431.071.822-.431.456-.783-.386-.372-.879-.517-1.345-.761l-.473.81c.329.141.656.285.988.42.446.182.769-.476.454-.78-.456-.44-.955-.874-1.31-1.401a.46.46 0 0 0-.837.353c.02.093-.044.262-.05.355-.02.321-.117.196.068-.087-.106.162-.084.459.076.586.355.282 1.2.824 1.66.576.329-.177.314-.673 0-.854-.561-.323-1.503-1.56-2.182-.929-.523.486-.337 1.7.432 1.79.548.064.591-.67.25-.924-.446-.333-.651-.857-1.131-1.177-.35-.233-.833.153-.71.546.304.973.849 1.878 1.85 2.249 1.048.388 2.121-.003 3.011-.585.44-.288.053-.962-.414-.708-1.497.815-2.996.539-3.514-1.212l-.71.546c.451.31.676.858 1.119 1.198l.382-.907c.201.244.263.267.186.07.018-.231-.125-.267-.426-.106-.008.019.419.305.459.335.3.22.588.466.9.669v-.854c.202-.095.373.052.205-.114-.06-.059-.258-.11-.328-.142-.152-.069-.313-.132-.452-.225l.174.662c.088-.162.029-.461.028-.45 0 .01.051-.385.001-.551l-.765.445c.414.533.901 1.021 1.369 1.506l.566-.733c-.289-.13-.582-.252-.874-.377-.539-.231-1.021.523-.473.81.381.199.84.311 1.155.614l.456-.783c-.12-.02-.33-.396-.42-.502l-.453.779c.42.067.753.303 1.186.317.308.01.499-.297.438-.575l-.045.139c.183-.19.17-.468 0-.661-.796-.901-1.623-1.807-2.551-2.574-.471-.389-1.132.236-.683.683.729.727 1.34 1.574 2.065 2.31l.581-.753c-.553-.413-.991-1.009-1.535-1.45a12.511 12.511 0 0 0-1.348-.93c-.339-.208-.673.255-.415.533z"/><path d="M31.115 61.03c5.769-1.7 9.768 4.494 11.841 9.089.04.088.189.026.157-.066-1.36-3.958-6.748-12.809-12.062-9.173-.073.051-.03.178.064.15zM42.516 62.74c.354.868.707 1.683.831 2.62.123.925.012 1.852-.039 2.779-.005.093.142.139.182.049.775-1.75.446-4.081-.732-5.589-.087-.111-.295.01-.242.141zM42.636 58.286c.277.617.463 1.25.527 1.926.051.538-.004 1.079.047 1.615.014.15.208.179.261.035.442-1.192-.003-2.659-.546-3.745-.097-.196-.376-.025-.289.169zM58.335 67.635c.779.369 1.297 1.097 1.218 1.972-.114 1.262-.985 1.698-1.895 2.364-.088.064-.07.233.061.226 2.45-.143 3.572-4.815.688-4.824-.134 0-.202.2-.072.262z"/><path d="M58.916 68.34c-.077.399.06.803.054 1.21-.008.528-.143 1.014-.317 1.507-.053.151.038.305.158.388a.24.24 0 0 0 .082.035c.197.046.35-.061.422-.24.31-.766.599-2.335-.091-2.981-.095-.088-.281-.061-.308.081zM56.67 66.52c.819-.359 1.768-.507 2.592-.07.706.375.991 1.076 1.558 1.586.071.064.217.026.207-.086-.08-.903-.927-1.694-1.737-2.019-.944-.379-1.906-.133-2.774.325-.177.094-.021.341.154.264z"/><path d="M49.094 66.628c.877-2.362 2.643-4.82 5.39-4.953 2.849-.138 4.253 2.313 5.008 4.679.034.107.222.096.207-.028-.316-2.691-2.05-5.446-5.027-5.46-3.185-.015-5.223 2.891-5.955 5.658-.065.247.291.336.377.104zM44.576 50.203c1.821.751 3.461 2.361 4.403 4.093.946 1.739.902 3.558 1.068 5.468.017.191.275.236.338.046.634-1.926.214-4.142-.759-5.892-1.146-2.062-2.909-2.934-4.999-3.836a.066.066 0 0 0-.051.121z"/><path d="M40.25 53.005c1.574-.284 3.337-.18 4.772.58 1.58.836 2.172 2.223 2.524 3.896.029.137.207.085.223-.03.551-4.112-4.373-5.864-7.583-4.679a.12.12 0 0 0 .064.233zM39.33 48.661c1.82-.946 3.718-3.276 4.149-5.297.026-.124-.14-.255-.235-.137-.646.798-1.038 1.779-1.621 2.626-.694 1.008-1.5 1.846-2.411 2.655-.086.076.023.202.118.153zM77.59 73.612c.305.999 1.024 1.999 2.136 2.155 1.104.155 1.885-.652 2.289-1.589.099-.229-.214-.43-.344-.201-.431.759-1.094 1.516-2.057 1.258-.828-.221-1.38-1.02-1.781-1.725-.074-.13-.287-.044-.243.102z"/><path d="M78.529 68.559c-.418 1.8 1.21 4.168 2.725 5.012 2.062 1.149 3.15-.617 3.674-2.364.009-.029-.035-.04-.045-.012-.671 1.756-2.278 2.828-3.933 1.583-1.45-1.091-1.714-2.633-2.293-4.22-.021-.057-.112-.068-.128.001zM85.046 70.826l.057-.182c.007-.013-.012-.025-.02-.012-.073.119-.055.063-.068.193-.002.021.03.021.031.001z"/><path d="M85.081 70.826c.016-.296.262-.736.308-1.05.007-.048-.059-.088-.086-.036-.156.306-.145.79-.315 1.061-.042.067.088.112.093.025z"/><path d="M84.855 71.682c.38-.537.845-1.318.715-2.009-.015-.077-.125-.102-.176-.047-.226.248-.314.573-.442.883-.154.374-.195.71-.253 1.106-.015.096.097.15.156.067zM79.858 65.559c.211-.403.375-.857.306-1.315-.009-.062-.11-.073-.136-.018-.185.397-.178.852-.335 1.264-.035.095.118.158.165.069zM55.778 79.688c2.67 1.439 6.125 1.645 9.097 1.627 2.661-.016 6.012-.038 8.127-1.829.392-.331-.193-.933-.569-.569-1.974 1.912-5.703 1.816-8.277 1.797-2.84-.02-5.565-.46-8.279-1.262-.138-.041-.229.166-.099.236z"/><path d="M72.262 79.47c.138.129.197.172.385.204.217.036.478-.094.462-.352-.01-.153-.051-.23-.181-.315a.36.36 0 0 0-.368 0 1.842 1.842 0 0 1-.256.144c-.115.059-.134.233-.042.319z"/><path d="M60.468 74.889c4.608-.413 8.229 1.641 11.778 4.362.293.225.745-.019.829-.337.304-1.157.579-2.207.578-3.4-.001-.73-1.056-.707-1.118 0-.095 1.083-.134 2.165-.184 3.25-.031.662.886.705 1.092.148.384-1.041.475-2.051.592-3.148.059-.555-.814-.773-1.053-.285-.115.235-.208.455-.306.698l.829-.337c-1.262-.928-2.13-1.401-3.691-1.642-.731-.113-1.053.905-.312 1.133.909.28 1.742.671 2.595 1.091l.475-1.128c-1.255-.378-2.515-.694-3.738-1.17-.747-.291-1.079.808-.511 1.212 1.259.895 2.514 1.766 3.86 2.526l.7-1.198a111.28 111.28 0 0 0-3.675-1.834l-.726 1.241c1.12.52 2.257.977 3.417 1.402.778.285 1.319-.984.567-1.346-2.795-1.347-5.85-1.481-8.742-2.498-.883-.311-1.246 1.072-.384 1.394 2.745 1.024 5.712 1.109 8.383 2.377l.567-1.346a49.376 49.376 0 0 1-3.083-1.223c-.839-.367-1.572.869-.726 1.241a66.651 66.651 0 0 1 3.7 1.791c.79.408 1.486-.763.7-1.198-1.351-.747-2.62-1.598-3.89-2.474l-.511 1.212c1.233.44 2.504.726 3.762 1.08.654.184 1.123-.823.475-1.128-.964-.453-1.878-.87-2.905-1.159l-.156 1.154c1.401.182 2.072.523 3.164 1.374.358.279.769.168.943-.249l.194-.427-1.053-.285c-.098.983-.196 1.921-.533 2.852l1.092.148c.05-1.086.093-2.168.191-3.25h-1.118c-.002 1.141-.263 2.031-.547 3.1l.829-.337c-3.473-2.68-7.9-5.41-12.464-4.247-.468.119-.387.905.114.86z"/><path d="M63.727 74.243c1.027-.597 2.695-.164 3.75.064 1.514.328 3.01.794 4.413 1.455.755.356 1.356-.65.656-1.123-1.997-1.349-4.547-1.546-6.891-1.462-.738.027-.87 1.043-.172 1.273 2.194.725 4.304.711 6.398 1.781.572.292 1.038-.379.658-.853-1.491-1.858-4.625-1.528-6.712-2.178l-.172 1.273c2.144-.114 4.428.01 6.234 1.288l.656-1.123c-1.7-.831-8.02-3.446-9.183-.76-.097.23.115.511.365.365zM47.94 90.542c2.502 2.334 6.662 3.995 9.653 1.533.132-.109-.01-.358-.171-.294-1.729.686-3.218 1.245-5.104.786-1.57-.382-2.931-1.292-4.222-2.227-.119-.086-.262.104-.156.202z"/><path d="M49.327 88.659c1.65 2.383 6.951 3.724 9.01 1.098.09-.115.013-.347-.163-.281-1.41.534-2.521 1.118-4.102 1.031-1.7-.093-3.357-.75-4.487-2.048-.122-.138-.365.046-.258.2zM53.535 88.35c.657.225 1.342.364 2.038.306.509-.042 1.151-.078 1.442-.541.067-.107.003-.262-.119-.293-.456-.113-.904.147-1.366.197a6.041 6.041 0 0 1-1.878-.091c-.277-.057-.384.33-.117.422zM67.833 90.263c1.08.772 3.395.956 3.896-.65.032-.101-.072-.204-.173-.173-.573.177-.986.644-1.584.794-.682.171-1.385.005-2.027-.235-.165-.061-.236.176-.112.264zM68.526 89.259c.547.169 1.114.23 1.683.157.431-.056 1.01-.136 1.207-.573.045-.099.007-.19-.093-.23-.369-.144-.744.057-1.111.136a3.699 3.699 0 0 1-1.55.02c-.32-.066-.451.393-.136.49zM69.454 87.292c1.1.464 2.866.95 3.886.093.092-.078.049-.27-.076-.287-.558-.079-1.079.05-1.64.046-.701-.005-1.364-.165-2.017-.409-.354-.132-.487.417-.153.557zM59.429 95.951c.36-3.635.37-7.159 2.611-10.223.203-.277-.241-.61-.472-.364-2.609 2.767-2.667 7.016-2.561 10.588.008.275.396.265.422-.001zM62.027 95.014c.099-1.496.052-2.969.432-4.436.334-1.29 1.125-2.465 1.342-3.757.027-.159-.15-.37-.316-.243-2.119 1.625-2.21 6.11-1.696 8.468.03.14.229.098.238-.032zM65.855 94.319c.428-1.254.384-2.587.521-3.893.15-1.429.866-2.772.947-4.162.007-.123-.15-.216-.253-.145-2.017 1.387-1.885 6.017-1.622 8.145.029.225.328.288.407.055z"/><path d="M60.798 84.716c2.421 1.676 5.622 2.155 8.482 1.575 2.014-.409 5.62-2.082 5.395-4.652-.022-.246-.368-.392-.502-.136-2.541 4.847-8.711 4.992-13.284 3.058-.105-.044-.188.088-.091.155zM63.192 65.352c.953 1.104 2.279 1.65 3.741 1.401 1.119-.19 2.667-.936 2.827-2.177.018-.139-.153-.193-.253-.145-.954.455-1.439 1.368-2.547 1.662-1.302.346-2.563-.111-3.592-.918-.124-.098-.283.053-.176.177zM32.343 82.014c-.65 8.866 4.557 16.965 12.656 20.529 9.132 4.018 19.296 3.301 26.86-3.513.165-.149-.057-.448-.241-.313-3.995 2.924-8.132 5.092-13.167 5.467-4.55.339-9.256-.642-13.393-2.537-7.63-3.497-12.748-11.181-12.59-19.632.002-.083-.119-.081-.125-.001zM28.55 85.139c-.133 3.598-.453 8.35 2.609 10.934.153.129.35-.029.27-.208-.767-1.718-1.674-3.268-2.064-5.135-.384-1.84-.46-3.718-.479-5.591-.002-.217-.328-.216-.336 0zM64.593 74.756c.16-.006.525.087.704.12.561.105.799-.759.237-.858-.432-.076-.743-.092-1.094.17-.223.166-.178.58.153.568zM77.017 78.494c.472-.289.643-1.064.839-1.553.244-.608.599-1.282.746-1.917.029-.126.005-.276-.097-.366-.64-.57-.736.83-.825 1.123-.152.502-.327.997-.509 1.489-.137.369-.367.763-.297 1.165.011.063.094.089.143.059z"/><path d="M77.166 78.092c-.692 1.744.207 3.628.13 5.401-.028.652 1.116.458.786-.213-.797-1.619-.402-3.487-.728-5.188-.02-.105-.156-.079-.188 0zM36.077 65.474a.603.603 0 0 0 .106.246c.159.206.47.315.677.087l.042-.046c.19-.209.163-.538-.089-.688l-.016-.009c-.49-.293-.917.453-.444.76l-.101-.108.694-.536a13.557 13.557 0 0 0-.839-.695c-.303-.229-.63.095-.667.383-.221 1.7.149 3.407 1.217 4.768.306.389.961-.119.687-.53-.837-1.257-1.24-2.604-1.033-4.12l-.651.265c.223.182.443.367.661.555.37.316.954-.079.694-.536a.547.547 0 0 0-.218-.206l-.339.805.017.006-.262-.644-.031.055.677-.087a.453.453 0 0 1-.113-.114c-.272-.324-.755.026-.669.389zM34.052 75.742c2.032 2.46 6.887 2.813 8.551-.347.13-.248-.148-.593-.412-.412-1.257.864-2.182 1.823-3.822 1.903-1.517.073-2.88-.586-4.104-1.42-.176-.12-.332.132-.213.276z"/><path d="M35.196 76.056c1.088.967 2.867 1.252 4.272 1.093.56-.063.59-.878 0-.895-.939-.026-1.849-.254-2.743-.531-.542-.168-1.325-.654-1.888-.471-.203.066-.317.3-.201.493.341.569 1.387.711 1.982.889.928.278 1.879.489 2.85.514v-.895c-1.479.172-2.67-.474-4.084-.652-.229-.028-.349.311-.188.455z"/><path d="M40.228 85.425c-.378-1.653-.744-3.354-.77-5.054-.015-.987.114-1.985.537-2.888.216-.462.511-.762.516-1.282.002-.202-.188-.318-.371-.283-1.321.254-1.328 2.654-1.335 3.683-.014 2.034.449 4.008 1.235 5.875.048.114.217.076.188-.051zM76.913 78.201c.019 1.151.081 2.313-.003 3.462-.074 1.015-.436 2.029-.398 3.038a.21.21 0 0 0 .353.146c1.628-1.532.596-4.794.239-6.672-.02-.109-.193-.082-.191.026zM65.687 73.741c-.573-.119-1.102-.21-1.677-.048-.509.144-.434 1.008.129.956.49-.045.967-.183 1.455-.226.364-.031.504-.597.093-.682zM59.312 65.626c-.553-.39-1.274-.063-1.795.223-.074.04-.021.143.054.128.396-.075 1.101-.259 1.452.023.085.068.188.095.289.037a.265.265 0 0 0 .085-.085c.08-.112.013-.256-.085-.326z"/><path fill="#FFF" d="M35.376 65.595a.53.53 0 0 0-.716.187 1.75 1.75 0 0 0-.251.62.567.567 0 0 0 .255.626l.136.083a.295.295 0 0 0 .301 0l.012-.012c.017.008.023.018.042.025.3.127.534-.18.567-.431.047-.362.024-.904-.346-1.098zM35.531 68.018c-.398 0-.398.617 0 .617s.398-.617 0-.617zM84.636 65.336c-.046-.216-.379-.209-.429 0-.073.304-.115.493-.03.788.035.122.202.177.293.077.257-.283.246-.489.166-.865zM83.977 67.228c-.403 0-.403.625 0 .625.402 0 .402-.625 0-.625z"/></svg>