<?xml version="1.0" encoding="utf-8"?>
<!-- Generator: Adobe Illustrator 23.0.1, SVG Export Plug-In . SVG Version: 6.00 Build 0)  -->
<svg version="1.1" id="Layer_1" xmlns="http://www.w3.org/2000/svg" xmlns:xlink="http://www.w3.org/1999/xlink" x="0px" y="0px"
	 viewBox="0 0 110.7617 128.0448" style="enable-background:new 0 0 110.7617 128.0448;" xml:space="preserve">
<style type="text/css">
	.Drop_x0020_Shadow{fill:none;}
	.Round_x0020_Corners_x0020_2_x0020_pt{fill:#FFFFFF;stroke:#231F20;stroke-miterlimit:10;}
	.Live_x0020_Reflect_x0020_X{fill:none;}
	.Bevel_x0020_Soft{fill:url(#SVGID_1_);}
	.Dusk{fill:#FFFFFF;}
	.Foliage_GS{fill:#FFDD00;}
	.Pompadour_GS{fill-rule:evenodd;clip-rule:evenodd;fill:#44ADE2;}
	.st0{fill:#0050D0;}
	.st1{fill:#FFFFFF;}
	.st2{fill:#69A6FF;}
	.st3{fill:#3343A3;}
	.st4{fill:#51B7F8;}
	.st5{fill:#E3EEFF;}
	.st6{fill:#192E7C;}
	.st7{fill:#C7EBFF;}
	.st8{opacity:0.13;enable-background:new    ;}
	.st9{fill:#FCFDFD;}
	.st10{fill:#0161CC;}
	.st11{fill:#0167CA;}
	.st12{fill:#008BBC;}
	.st13{fill:#01CDA7;}
	.st14{fill:#009FB8;}
	.st15{fill:#0396BA;}
	.st16{fill:#03BDAD;}
	.st17{fill:#F6F9FA;}
	.st18{fill:#007AC3;}
	.st19{fill:#01B5AF;}
	.st20{fill:#9BD8DD;}
	.st21{fill:#1D54D8;}
	.st22{fill:#EAEAEA;}
	.st23{fill:#4E5253;}
	.st24{fill:#535353;}
	.st25{fill:#01B9FC;}
	.st26{fill:#FBFBFB;}
	.st27{fill:#F89EA7;}
	.st28{fill:#04B8FA;}
	.st29{fill:#15D89A;}
	.st30{fill:#584242;}
	.st31{fill:#60F9AF;}
	.st32{fill:#A8F8E0;}
	.st33{fill:#F2F2F2;}
	.st34{fill:#047EF4;}
	.st35{fill:#1B75BC;}
	.st36{fill:#3C3C3B;}
	.st37{fill:#1E2752;}
	.st38{fill:#1E2753;}
	.st39{fill:#0365BF;}
	.st40{fill:#FCFDFE;}
	.st41{fill:#C9C5D3;}
	.st42{fill:#736E84;}
	.st43{fill:#E1E5FF;}
	.st44{fill:#436DEF;}
	.st45{fill:#4DBBFF;}
	.st46{fill:#4F34C1;}
	.st47{fill:#B3EAFF;}
	.st48{fill:#E9FAFF;}
	.st49{fill:#0FB797;}
	.st50{fill:#3EFFB5;}
	.st51{fill:#E3D4FF;}
	.st52{fill:#FBF8FF;}
	.st53{fill:#2F106B;}
	.st54{fill:#E3D4FF;stroke:#2F106B;stroke-miterlimit:10;}
	.st55{fill:#3E2B7A;}
	.st56{fill:#FEC547;}
	.st57{fill:#E1F9FF;}
	.st58{fill:#3159FF;}
	.st59{fill:#1B46CC;}
	.st60{fill:#7BD3FF;}
	.st61{fill:#B4ABED;}
	.st62{fill:#D9F4FF;}
	.st63{fill:#A95F29;}
	.st64{fill:#D17D37;}
	.st65{fill:#686868;}
	.st66{fill:#343433;}
</style>
<linearGradient id="SVGID_1_" gradientUnits="userSpaceOnUse" x1="266.2131" y1="149.1955" x2="266.9202" y2="149.9026">
	<stop  offset="0" style="stop-color:#DEDFE3"/>
	<stop  offset="0.1783" style="stop-color:#DADBDF"/>
	<stop  offset="0.3611" style="stop-color:#CECFD3"/>
	<stop  offset="0.546" style="stop-color:#B9BCBF"/>
	<stop  offset="0.7324" style="stop-color:#9CA0A2"/>
	<stop  offset="0.9181" style="stop-color:#787D7E"/>
	<stop  offset="1" style="stop-color:#656B6C"/>
</linearGradient>
<g id="Layer_63_4_">
	<g>
		<polygon class="st65" points="110.8595,31.8588 110.8595,95.8588 55.4295,127.8588 0.0095,95.8588 0.0095,31.8588 52.7295,1.4188 
			55.4295,-0.1412 		"/>
	</g>
</g>
<path class="st66" d="M101.4396,37.2902v53.1399L99.9894,91.26l-0.1899,0.1101l-0.2002,0.1101V91.49l-0.4097,0.2402l-0.25,0.1399
	l-2.54,1.47l-2.04,1.1699L94.2194,94.59l-1.1797,0.6802l-0.4102,0.23l-1.5503,0.8999l-0.02,0.01l-0.29,0.1599l-0.1299,0.05
	l-0.1099,0.0701l-1.4399,0.8301l-0.7002,0.3999l-0.6499,0.3701l-0.2397,0.1399L87.3293,98.53l-0.0098,0.0103l-0.3403,0.1899
	l-0.2998,0.1699l-0.8198,0.47l-0.23,0.1301l-0.04,0.0298l-0.7202,0.4102v0.01l-0.5098,0.2898l-0.4502,0.2603l-0.02,0.02h-0.0098
	l-1.0703,0.6199l-0.1597,0.0901l-0.3101,0.1799l-0.2402,0.1399l-0.23,0.1401l-0.21,0.1299l-0.0601,0.03l-0.9697,0.5601l-0.0601,0.04
	l-0.0903,0.05l-0.1797,0.0999l-0.0898,0.05l-0.1201,0.0701l-0.0801,0.05l-0.4102,0.2397l-0.0298,0.0103l-0.1602,0.0898v0.01
	l-0.7798,0.45l-0.0601,0.03l-0.1201,0.0601l-0.02,0.02l-0.04,0.02l-0.29,0.1699l-0.1499,0.0901l-0.0601,0.0298l-0.27,0.1602
	l-0.1299,0.0701l-0.1099,0.0598l-0.1602,0.0901l-0.1299,0.0801l-0.0498,0.03l-0.3003,0.1699l-0.02,0.01l-0.0801,0.05l-0.1396,0.0801
	L76.4792,104.8h-0.0098l-0.71,0.4202l-1.0098,0.5898l-0.0503,0.03l-0.1499,0.0801l-0.25,0.1399v0.01l-0.27,0.1501l-0.1001,0.0598
	l-0.0498,0.03l-0.1602,0.0901l-0.8398,0.48l-0.1104,0.0701l-0.4199,0.24l-0.0098,0.01l-1.0498,0.6099l-0.1504,0.0801l-0.6299,0.3601
	l-0.0601,0.0298l-0.0698,0.04l-0.25,0.1401c0,0,0,0,0,0.01l-0.8398,0.48l-0.0303,0.01l-0.04,0.0298l-0.3101,0.1802c0,0,0,0-0.0098,0
	l-1.3003,0.76l-0.1201,0.0701l-0.0698,0.04l-0.1802,0.1099l-0.0396,0.02l-0.2402,0.1399l-0.0898,0.05l-0.73,0.4199l-0.29,0.1702
	l-0.5601,0.3201l-0.3101,0.1799l-0.04,0.03l-0.0098,0.0098l-0.52,0.3003l-1.4902,0.8499l-0.0098,0.01l-0.3003,0.1699l-0.1299,0.0801
	l-2.2402,1.29l-0.9897,0.5698l-0.0498,0.0303L59.1794,114.8l-0.2397,0.1301l-0.2104,0.1199l-1.0098,0.5901l-0.8301,0.47
	l-0.1299,0.0801l-0.5601,0.3198h-0.0098l-0.3203,0.1902l-0.46,0.27l-0.02,0.01l-0.3496-0.2002l-1.0703-0.6199l-0.54-0.3201
	l-0.23-0.1299l-0.0801-0.04l-0.0298-0.01l-0.04-0.02l-0.2002-0.1199l-0.5498-0.3201l-0.9502-0.55l-0.3198-0.1799l-0.1001-0.0701
	l-0.7798-0.45l-0.5801-0.3301l-1.1602-0.6799l-0.0801-0.04l-0.2598-0.1499l-0.0903-0.05l-0.1597-0.0901l-0.0298-0.03l-0.0903-0.05
	l-0.1997-0.1099l-0.1201-0.0701l-0.1504-0.0901l-0.2896-0.1699l-0.1602-0.0898L46.4196,111.8l-0.71-0.4099l-0.1001-0.0601
	l-0.5303-0.3098l-0.8799-0.5103l-0.2202-0.1199l-0.2695-0.1599l-1.6602-0.96l-0.7803-0.4502l-0.2798-0.1599l-0.5601-0.3301
	l-0.77-0.4399l-2.4097-1.3899l-0.6904-0.4001l-0.0298-0.02l-1.3003-0.75l-0.3896-0.23l-0.54-0.3098l-0.7998-0.4602l-0.1401-0.0901
	l-0.0103-0.0098l-0.0298-0.02l-0.3701-0.21l-0.23-0.1301l-0.4697-0.27l-0.5601-0.3201l-0.1802-0.0999l-0.02-0.01l-0.27-0.1499
	l-0.0698-0.04l-0.0601-0.04l-0.1499-0.0901l-0.4302-0.25l-0.3701-0.21l-0.1299-0.0801l-0.0303-0.0198l-0.2695-0.1501l-0.1904-0.1101
	l-0.29-0.1699l-0.5498-0.3198l-0.04-0.02l-0.1602-0.1001l-0.3896-0.23l-0.0898-0.05l-0.4404-0.25l-0.0596-0.03l-0.7803-0.46
	l-0.1602-0.0901l-0.48-0.28l-0.8398-0.48l-0.6099-0.3499l-0.23-0.1301l-0.5903-0.3398l-0.0898-0.05l-0.1201-0.0701l-0.3096-0.1799
	l-0.0703-0.04l-0.0098-0.01L23.0993,98.32L22.9997,98.26h-0.0103l-0.0103-0.0098l-0.6997-0.4001l-0.3301-0.1899
	c-0.0098-0.01-0.0098-0.01-0.02-0.01l-0.0498-0.03l-0.6899-0.3999l-0.3501-0.2V97.01l-0.6699-0.3799L20.0695,96.57l-0.21-0.1199
	l-0.1304-0.0801L19.5793,96.28l-0.0396-0.02l-0.4902-0.2798l-1.3398-0.78c-0.0103,0-0.0103-0.01-0.02-0.01l-0.75-0.4399
	l-0.29-0.1702c0,0-0.0103,0-0.02-0.01l-0.2803-0.1599l-0.04-0.02l-0.0098-0.01l-0.23-0.1299l-0.4702-0.27h-0.0098l-1.2998-0.75
	l-0.0303-0.02l-1-0.5801l-0.21-0.1201l-1.8599-1.0698l-0.1602-0.0901l-1.48-0.8601l-0.04-0.0198l-0.04-0.02l-0.0298-0.02V37.2902
	l0.9297-0.54l1.04-0.6001l8.21-4.74l1.1704-0.6702l0.2998-0.1699l0.4102-0.24l1.8896-1.0901l0.3799-0.2197l0.75-0.4402
	l0.9805-0.5701l0.2598-0.1499L25.8596,27.8l0.3301-0.1899l1.5-0.8599l0.4399-0.25l2.5601-1.4702l0.6001-0.3499l0.4497-0.26
	l0.5298-0.3101l0.1704-0.0898l0.6001-0.3401l0.9199-0.53l0.1396-0.0801l0.7803-0.45l0.02-0.01l0.3599-0.21l0.0898-0.05l0.3501-0.21
	l1.1001-0.6501l0.52-0.2998l1.1899-0.6802l0.1099-0.0598l0.3403-0.1902l0.6396-0.3699l0.2202-0.1301l0.4702-0.2798l0.21-0.1201
	l0.4795-0.27l0.0503-0.03l0.6602-0.3799h0.0098l0.0503-0.03l0.0596-0.04l0.8203-0.47l0.4399-0.25l1.02-0.5901l0.1201-0.0698
	l1.8599-1.0701c0-0.01,0.0098-0.01,0.0098-0.01l1.3901-0.8l0.1899-0.1101l0.27-0.1599l0.1104-0.0598l0.0098-0.0103l4.8999-2.8398
	l2.48-1.4302l0.6499,0.3801h0.0103l2.3599,1.3699l1.77,1.02l0.96,0.55l0.9399,0.55h0.0103l0.8198,0.48l0.04,0.02l0.6602,0.3799
	l1.9399,1.1201l0.6797,0.3999h0.0103l0.3701,0.2102l0.5698,0.3298l2.1001,1.21l0.8198,0.4702l0.3604,0.21l0.5996,0.3398
	l1.5103,0.8801l2.4497,1.4099l2.4102,1.3901l0.0498,0.0298l1.04,0.6101l1.6001,0.9099l0.2202,0.1301l0.48,0.27l0.1401,0.0798
	l0.0098,0.0103l0.0303,0.0098l0.5195,0.3l0.02,0.01l0.1499,0.0901l0.0703,0.04h0.0098l0.5103,0.3098l0.3301,0.2002
	c0,0,0.0098,0,0.02,0l0.4697,0.27l0.1104,0.0601l0.2397,0.1399l0.6201,0.3601l0.4399,0.25l0.0698,0.0398l0.0503,0.03l0.6997,0.3999
	l0.0503,0.0303l0.0898,0.0598l0.0698,0.04l1.0801,0.6199l0.02,0.0103l0.1699,0.0999l0.2202,0.1301h0.0098l0.0903,0.0598l0.0898,0.05
	l0.0601,0.03l0.4702,0.27l0.9497,0.55l0.0601,0.04l0.1699,0.0898l0.6201,0.3601l0.0098,0.01l1.0703,0.6099l0.0098,0.01l0.4199,0.24
	l0.04,0.03v0.01l0.1201,0.0601l0.1401,0.0801l0.2598,0.1499l0.02,0.02l0.3799,0.22l1.46,0.8401l0.0601,0.04l0.8701,0.4897
	l0.27,0.1602l0.7402,0.4299l0.1997,0.1101l0.5801,0.3301l0.4399,0.25l1.9399,1.1199l1.4302,0.8298L101.4396,37.2902z"/>
<path class="st8" d="M98.4506,35.5274l-0.31-0.17l-0.57-0.33l-0.09-0.05l-1.77-1.03h-0.01l-0.04-0.02l-1.21-0.7l-0.12-0.07
	l-0.74-0.43l-1.91-1.1l-0.02-0.01l-0.3-0.17l-0.69-0.4l-1.06-0.61l-1.74-1l-1.14-0.66l-0.05-0.03l-0.02-0.01l-0.97-0.56l-0.11-0.06
	l-0.13-0.08l-0.07-0.04l-0.71-0.41l-0.09-0.05l-0.47-0.27l-0.59-0.34l-0.36-0.21l-0.81-0.47h-0.01l-0.16-0.09l-0.37-0.21v-0.01
	l-0.2-0.11l-0.02-0.0099h-0.01l-0.53-0.31h-0.01l-0.03-0.01l-0.01-0.01l-0.14-0.08l-0.45-0.27l-0.14-0.08l-0.23-0.13l-0.87-0.5
	l-0.24-0.14l-6.3-3.63l-0.03-0.01l-1.5-0.87l-0.8701-0.51l-1.0099-0.58l-2.76-1.59l-3.57-2.06l-0.76-0.43h-0.01l-0.02-0.02
	l-0.92-0.53l-0.96-0.55l-1.77-1.02l-2.36-1.37h-0.01l-0.65-0.38l-2.48,1.43l-4.02,2.32l-1.37,0.79l-0.5,0.29l-3,1.73l-2.47,1.42
	l-0.59,0.34l-0.52,0.3l-1.52,0.88l-0.45,0.26l-0.44,0.25l-0.75,0.44l-0.52,0.3l-1.45,0.83l-0.45,0.2599l-0.97,0.5601l-1.83,1.05
	l-0.36,0.21l-0.45,0.26l-0.89,0.51l-0.18,0.1l-1.15,0.67l-0.94,0.54l-0.44,0.25l-2.88,1.66l-0.29,0.17l-0.07,0.04l-0.28,0.16
	l-0.78,0.45l-0.65,0.37l-1.65,0.96l-1.92,1.11h-0.0099l-7.44,4.29l-2.06,1.19l-0.3,0.17v53.12l0.37,0.22l0.39,0.22l2.19,1.26
	l0.41,0.24l0.05,0.03l0.25,0.15l0.28,0.16l0.37,0.21l2.53,1.47l2.34,1.35c0,0,0.01,0,0.02,0l0.51,0.29l0.07,0.05l0.05,0.02h0.03
	l0.99,0.59l1.58,0.91l1.1,0.64l1.22,0.7l0.4901,0.28l0.56,0.32l0.6,0.34l3.37,1.95l2.09,1.2l0.44,0.26l0.19,0.11h0.0099l0.39,0.22
	l1.25,0.72l0.8,0.46l0.54,0.31l0.39,0.23l1.3,0.75l0.03,0.02l0.69,0.4l2.41,1.39l0.77,0.4399l0.56,0.33l0.28,0.16l0.78,0.45
	l1.66,0.96l0.27,0.16l0.22,0.12l1.39,0.8h0.01l0.84,0.49l0.24,0.14l0.1,0.06l0.45,0.26l0.13,0.0699l0.04,0.02l0.3,0.18l0.09,0.05
	l0.2401,0.13l0.38,0.23l0.52,0.29c0,0,0,0,0,0.01l0.75,0.43l0.14,0.08l0.54,0.31l0.15,0.08l0.27,0.15l0.25,0.15l0.22,0.13l0.24,0.14
	l0.03,0.02l0.03,0.01l0.03,0.02l0.71,0.41l2.3,1.33l0.18,0.1l0.43,0.25l0.21,0.12l0.02,0.01l0.55-0.32l0.14-0.08l3.59-2.0699
	l0.59-0.34l0.19-0.11l2.4-1.38l0.19-0.11l0.39-0.23l0.02-0.01l1.57-0.9l0.07-0.04l1.47-0.85l0.16-0.09l0.33-0.19l0.6-0.35l0.13-0.07
	l0.27-0.16l0.05-0.03l0.22-0.13l0.13-0.0699l0.75-0.4301l0.36-0.21l0.09-0.05l0.91-0.52l0.43-0.25l0.4-0.23l1.36-0.78l0.17-0.1
	l0.7-0.4l0.52-0.3l0.02-0.01l0.12-0.07l0.47-0.27l3.22-1.86l0.21-0.12l0.59-0.34l0.13-0.07l0.01-0.01l0.63-0.36l0.24-0.14l0.21-0.13
	l0.58-0.33l0.28-0.16l1.03-0.6l0.39-0.22l0.24-0.14l0.09-0.05l0.1-0.06l0.7-0.4l1.39-0.8l1.07-0.62l0.33-0.19l0.46-0.26l0.06-0.04
	l0.43-0.25l0.08-0.04v-0.01l0.25-0.14l0.01-0.01l0.24-0.14l0.3-0.17l1.03-0.59l0.24-0.14l1.16-0.67l0.16-0.09l0.14-0.08l0.07-0.04
	l0.09-0.05l0.11-0.06l0.02-0.01l1.24-0.73l0.21-0.12l0.1-0.05l0.2-0.12l0.24-0.14l0.86-0.49l0.24-0.16l0.05-0.03l0.02-0.01
	l0.12-0.07v-0.0099h0.05l0.52-0.3l0.03-0.02l0.46-0.26l0.34-0.19l0.54-0.32l0.02-0.01l3.28-1.89l1.86-1.0699l0.05-0.03v-53.12
	L98.4506,35.5274z M94.2706,92.4475l-1.47,0.85l-0.04,0.02l-0.07,0.04l-0.09,0.05l-0.02,0.01l-0.21,0.12l-0.24,0.14l-0.16,0.1
	l-0.27,0.15l-0.57,0.33l-0.06,0.03l-0.02,0.01l-0.03,0.02l-0.31,0.18l-0.5,0.29l-1.12,0.65l-0.02,0.01l-1.14,0.66l-0.67,0.39
	l-0.03,0.01l-0.05,0.03l-0.04,0.02l-0.07,0.04l-0.14,0.08l-1.11,0.64l-0.02,0.0099l-0.02,0.01l-0.89,0.52l-1.43,0.82l-0.44,0.25
	l-0.04,0.02l-0.14,0.08l-0.34,0.2l-0.38,0.22l-0.68,0.39l-0.26,0.15l-0.2,0.12l-0.05,0.03l-0.04,0.02l-0.57,0.33l-0.21,0.12
	l-0.5099,0.3h-0.01l-0.24,0.14l-0.17,0.1l-0.25,0.14l-0.02,0.01l-0.09,0.05l-0.02,0.02h-0.01l-0.05,0.02l-1.87,1.08l-1.8,1.04
	l-0.59,0.34l-0.21,0.12l-2.3,1.33l-0.1801,0.1l-0.42,0.2401l-0.33,0.1899l-0.46,0.27l-0.14,0.08l-0.08,0.05l-0.37,0.21l-0.14,0.08
	l-0.7401,0.4301l-0.14,0.08l-0.2401,0.14l-0.1,0.06l-0.18,0.1l-0.24,0.14l-0.03,0.02l-0.12,0.07l-0.94,0.53l-0.51,0.3l-0.38,0.22
	l-0.2599,0.15l-0.09,0.05l-2.98,1.72l-0.22,0.13l-0.31,0.18l-0.15,0.08l-0.81,0.47l-0.07,0.04l-0.62,0.36l-1.02,0.59l-0.61,0.35
	l-2.31,1.33l-1.35,0.78l-0.62-0.36l-0.73-0.42l-2.13-1.22l-0.03-0.02l-0.12-0.07l-0.05-0.03l-0.14-0.08l-0.37-0.21l-0.33-0.19
	l-0.17-0.1l-0.1-0.0601l-0.6-0.34l-0.14-0.08l-0.25-0.15h-0.01l-0.14-0.08l-0.07-0.04l-0.36-0.2l-0.53-0.31l-0.48-0.28l-0.05-0.03
	l-0.54-0.31l-0.2-0.11l-0.09-0.06l-0.14-0.08l-0.67-0.38l-0.1-0.06l-0.02-0.01l-2.93-1.69l-0.49-0.29l-1.59-0.92l-0.53-0.3
	l-0.23-0.13l-0.22-0.13l-3.16-1.82l-0.7401-0.43l-0.02-0.01l-2.7-1.56l-0.54-0.31l-0.79-0.46l-0.27-0.15l-0.03-0.01l-0.32-0.19
	l-0.14-0.08l-3.71-2.15l-0.23-0.13l-0.6-0.34l-1.86-1.0699h-0.01l-0.02-0.01l-0.01-0.01l-0.5099-0.3l-0.6801-0.39l-0.68-0.39
	l-1.07-0.62l-0.31-0.18l-0.29-0.17l-0.12-0.06c0,0,0,0-0.01,0l-0.43-0.25l-4.32-2.5l-0.59-0.34l-0.63-0.37l-0.6801-0.39l-0.08-0.05
	l-0.03-0.01l-0.39-0.22l-0.4-0.23l-2.67-1.55v-50.97l0.52-0.3l2.66-1.53l0.7-0.41l5.99-3.45l0.48-0.28l0.35-0.2l1.36-0.78l0.11-0.06
	l0.64-0.37l0.49-0.29l0.06-0.03l0.21-0.12l0.67-0.39l2.23-1.29l0.44-0.25l1.43-0.83l0.29-0.17l0.37-0.21l1.0699-0.61l0.45-0.26
	l0.36-0.21l0.03-0.02l2.77-1.6l0.45-0.26l3.16-1.8199l0.45-0.26l2.76-1.59l0.4-0.23l0.44-0.25l1.43-0.83l0.21-0.12l0.52-0.3
	l2.34-1.35l0.71-0.41l1.16-0.67l3.48-2.01l0.8-0.46l1.1-0.63l1.12-0.64l0.6,0.35h0.0099l2.3701,1.36l1.64,0.95l0.17,0.1l1.88,1.09
	l0.2599,0.15l0.71,0.41l0.13,0.07l2.08,1.2l0.98,0.56l0.01,0.01l1.53,0.8799l0.51,0.3l0.91,0.52l1.88,1.08l2.11,1.22l0.54,0.3199
	l0.03,0.01l0.2599,0.14l0.01,0.01l0.14,0.09l0.45,0.25l1.13,0.65h0.01l0.22,0.13l0.41,0.24l0.62,0.36l0.14,0.08l0.7,0.41l0.88,0.5
	l0.36,0.21c0.01,0.01,0.02,0.01,0.03,0.01l0.65,0.39l0.02,0.01l0.12,0.0699l0.72,0.41l0.1,0.06l0.83,0.48l0.01,0.01l0.23,0.13
	l0.45,0.27h0.01l0.96,0.55l0.62,0.36l0.65,0.37l1.07,0.62l1.11,0.64l1.66,0.96l0.04,0.02l0.1,0.06l0.02,0.01l0.93,0.54l1.13,0.65
	l0.1,0.06l1,0.58l0.02,0.01l0.15,0.08l0.52,0.3l0.97,0.56l0.35,0.2l0.14,0.08l0.37,0.21l0.1,0.06l1.3701,0.79l0.18,0.1l0.26,0.15
	l3.54,2.04v50.97l-1.2,0.69l-3.22,1.86l-0.86,0.5L94.2706,92.4475z"/>
<g>
	<path class="st1" d="M80.9013,55.2768c-3.762,0-6.8601,3.0428-6.8601,6.8601c0,3.762,3.0428,6.8601,6.8601,6.8601
		c3.762,0,6.8601-3.0428,6.8601-6.8601S84.6633,55.2768,80.9013,55.2768 M86.2124,58.3196
		c-0.3319,0.2213-0.7192,0.4426-1.1065,0.6639c-0.2213-0.4426-0.4979-0.8852-0.8299-1.2724
		c0.2766-0.166,0.5532-0.3873,0.7745-0.5532C85.5485,57.4344,85.9358,57.877,86.2124,58.3196 M83.3356,56.0513
		c0.5532,0.2213,1.0512,0.4979,1.5491,0.8852c-0.2213,0.2213-0.4979,0.3873-0.7745,0.5532
		c-0.3319-0.3873-0.7192-0.7192-1.1065-1.0512C83.1143,56.2726,83.2249,56.162,83.3356,56.0513 M83.8888,57.6004
		c-0.3873,0.2213-0.7745,0.3319-1.1618,0.4979c-0.166-0.3873-0.3319-0.7745-0.5532-1.1065
		c0.2213-0.1106,0.4426-0.2213,0.6086-0.3873C83.1696,56.8812,83.5569,57.2131,83.8888,57.6004 M83.0589,55.9407
		c-0.1106,0.1106-0.2213,0.2213-0.2766,0.3319c-0.3873-0.2213-0.7192-0.4426-1.1618-0.6086
		C82.1184,55.6641,82.6164,55.7747,83.0589,55.9407 M82.561,56.4386c-0.166,0.1106-0.3319,0.2213-0.4979,0.2766
		c-0.2213-0.3319-0.4426-0.6086-0.6639-0.9405C81.7865,55.9407,82.1738,56.162,82.561,56.4386 M81.012,55.83
		c0.2766,0.2766,0.4979,0.6086,0.7192,0.9958c-0.2213,0.0553-0.4426,0.1106-0.7192,0.1106V55.83z M81.012,57.2131
		c0.2766,0,0.6086-0.0553,0.8852-0.166c0.2213,0.3319,0.3873,0.7192,0.5532,1.1065c-0.4426,0.1106-0.9405,0.166-1.4384,0.2213
		V57.2131z M80.7353,55.83v1.1065c-0.2213,0-0.4426-0.0553-0.7192-0.1106C80.2928,56.4939,80.5141,56.162,80.7353,55.83
		 M79.7948,56.7152c-0.166-0.0553-0.3873-0.166-0.4979-0.2766c0.3873-0.2213,0.7745-0.4426,1.1618-0.6086
		C80.1821,56.1067,79.9608,56.3833,79.7948,56.7152 M80.1821,55.6087c-0.3873,0.166-0.7745,0.3873-1.1618,0.6086
		c-0.1106-0.1106-0.2213-0.2213-0.2766-0.3319C79.1863,55.7747,79.6842,55.6641,80.1821,55.6087 M84.8846,67.3374
		c-0.8852-0.4979-0.9405-1.2171-0.8852-1.4384c0.0553-0.2766,0.2213-0.166,0.3319-0.166c0.6086,0,1.2171-0.166,1.9917-0.9958
		c0.8852-0.8852,1.1618-2.8768-0.2213-4.1493c-1.4384-1.3831-2.9875-1.1618-3.9833,0.1106
		c-0.2213,0.2766-0.7192,0.4426-1.1065,0.4426c-0.6639,0-0.2213,0.4979-0.2213,0.6086c0,0.1106-0.1106,0.166-0.166,0.166
		c-0.2213-0.0553-0.1106,0.2766-0.1106,0.3319c0,0.0553-0.1106,0.166-0.1106,0.166c-0.2766,0-0.2213,0.2213-0.166,0.3319
		c0,0.0553,0,0.166-0.1106,0.2213c-0.1106,0.0553-0.166,0.2766-0.166,0.4426c0,0.2766,0.2766,0.4979,0.7192,0.8299
		c0.4426,0.3319,0.4979,0.6639,0.4979,0.8852c0,0.2213,0.0553,0.6086,0.1106,0.8299c0.1106,0.2766,0.1106,0.8298-0.4979,0.8298
		c-0.7745,0.0553-2.1023,0.6086-2.213,0.6639c-0.4426,0.166-0.9958,0.2213-1.4384,0.1106c-0.2213-0.166-0.4426-0.3319-0.6639-0.5532
		c-0.1106-0.2766,0.0553-0.6086,0.2213-0.8299c0.2766,0.2766,0.6086,0.2213,0.8298,0.2213c0.2213,0,1.2171-0.166,1.3831-0.2213
		c0.166-0.0553,0.2213-0.0553,0.2766,0c0.3873,0.166,0.9405,0.166,1.1618-0.5532c0.2213-0.7745-0.2766-0.5532-0.3873-0.4979
		c-0.0553,0.0553-0.166,0-0.1106-0.0553c0.1106-0.166-0.0553-0.166-0.1106-0.166c-0.2213,0-0.4979,0.2213-0.5532,0.2766
		c-0.1106,0.0553-0.166,0.0553-0.2213,0.0553c-0.2766-0.166-1.1065,0.0553-1.3831-0.3873c0-0.1106-0.2213-1.9363-0.3319-2.2683
		c0-0.0553-0.0553-0.166,0.0553-0.2766c0.2213-0.3319,0.7745,0,1.1065,0c0.3873,0,0.4426-0.166,0.5532-0.2766
		c0.1106-0.1106,0.166-0.0553,0.2213-0.1106c0.0553-0.0553,0-0.1106,0-0.166s0.0553,0,0.1106-0.0553s0-0.166,0-0.2213
		c0.1106-0.166,0.3319-0.0553,0.2213-0.3873c-0.0553-0.2213,0.0553-0.4426,0.166-0.5532c0.166-0.2213,0.8852-1.2171-0.3319-2.2683
		c-1.1618-0.9958-2.3789-0.8852-3.1535-0.0553c-0.7745,0.8299-0.3873,2.047-0.3319,2.3789c0.0553,0.3319-0.166,0.6086-0.4426,0.7192
		c-0.2213,0.1106-0.7192,0.4426-1.0512,0.7192c0.0553-2.6555,1.6597-4.9791,4.094-5.9196c0.1106,0.1106,0.2213,0.2766,0.3319,0.3873
		c-0.2766,0.2213-0.8852,0.7192-0.8852,0.7192s0.0553,0,0.166,0.0553c0.0553,0,0.166,0.0553,0.166,0.0553
		s0.4979-0.4426,0.7745-0.6086c0.166,0.166,0.3873,0.2766,0.6086,0.3873c-0.1106,0.2213-0.4426,0.7745-0.4426,0.7745
		s0.0553,0.0553,0.1106,0.0553c0.0553,0.0553,0.1106,0.0553,0.1106,0.0553s0.3319-0.6086,0.4426-0.8299
		c0.2766,0.1106,0.5532,0.166,0.8299,0.166v1.1065c-0.166,0-0.5532,0-0.7192-0.0553h-0.1106l0.0553,0.1106
		c0.0553,0.0553,0.0553,0.1106,0.1106,0.166l0,0l0,0c0.1106,0,0.4979,0,0.6639,0v2.047h0.2766v-0.4979
		c0.4426,0,0.7745-0.0553,1.1618-0.1106l0,0l0.3873-0.3319h-0.2213c-0.4426,0.0553-0.8298,0.1106-1.1618,0.1106
		c0,0-0.1106,0-0.166,0v-1.2724c0.4979,0,1.0511-0.0553,1.5491-0.2213c0.1106,0.3319,0.3873,1.1618,0.3873,1.1618l0.2766-0.1106
		c0,0-0.2766-0.8299-0.3873-1.1618c0.4426-0.1106,0.8299-0.3319,1.2171-0.4979c0.3319,0.3873,0.6086,0.8299,0.8299,1.2724
		c-0.2213,0.1106-0.5532,0.2213-0.5532,0.2213c0.2766,0.0553,0.4979,0.1106,0.4979,0.1106s0.1106-0.0553,0.166-0.0553
		c0,0.0553,0.0553,0.166,0.0553,0.166l0.3873,0.166l-0.0553-0.1106c0,0-0.1106-0.2766-0.166-0.3319
		c0.3873-0.166,0.7745-0.3873,1.1618-0.6639c0.7192,1.0511,1.0512,2.3236,1.0512,3.596
		C87.4848,64.2392,86.4337,66.1202,84.8846,67.3374"/>
	<path class="st1" d="M73.4326,57.1025l-0.1106,0.1106c-0.3873,0.3319-1.3278,1.2724-1.1618,2.3236v0.0553l0.0553,0.2213
		l0.1106-0.1106c0.5532-0.4979,0.9958-1.3831,1.1618-2.3789l0.0553-0.2766L73.4326,57.1025z"/>
	<path class="st1" d="M71.5516,58.8728l-0.0553,0.1106c-0.0553,0.166-0.166,0.5532-0.2213,0.9958
		c-0.1106,0.6639-0.0553,1.6597,0.4979,2.3789l0.0553,0.1106l0.0553,0.1106l0.1106-0.4426
		c0.1106-0.7745-0.0553-2.3789-0.3319-3.0981l-0.1106-0.2213V58.8728z"/>
	<path class="st1" d="M70.8877,61.639v0.1106c-0.0553,0.6639,0,2.3789,1.3831,3.3194l0.166,0.1106v-0.2213
		c0-0.6639-0.7745-2.6002-1.3278-3.2641l-0.166-0.2213L70.8877,61.639z"/>
	<path class="st1" d="M71.109,64.6818v0.1106c0.2213,0.9958,1.1065,2.5449,2.5449,3.0428l0.2213,0.0553l-0.0553-0.2213
		c-0.2766-0.7192-1.6597-2.4342-2.5449-2.9875l-0.166-0.1106V64.6818z"/>
	<path class="st1" d="M74.0412,58.5962l-0.166,0.0553c-1.0511,0.6639-1.5491,1.4384-1.5491,2.4342v0.2213l0.166-0.1106
		c0.5532-0.4979,1.3278-1.715,1.4937-2.3789l0.0553-0.2766L74.0412,58.5962z"/>
	<path class="st1" d="M73.3773,60.6985l-0.0553,0.1106c-0.2766,0.2766-1.1618,1.2171-1.1065,2.3789
		c0,0.166,0.0553,0.3873,0.1106,0.5532l0.0553,0.166l0.1106-0.166c0.4426-0.6086,0.9958-2.1576,0.9405-2.8768v-0.2213
		L73.3773,60.6985z"/>
	<path class="st1" d="M73.4326,62.7455l-0.0553,0.1106c-0.4426,0.6639-0.6639,1.3278-0.6639,1.9917
		c0,0.4426,0.166,0.8852,0.4426,1.3278l0.1106,0.166l0.0553-0.166c0.166-0.3873,0.3319-1.5491,0.3319-2.4896
		c0-0.3319-0.0553-0.6086-0.1106-0.7745l-0.0553-0.2213L73.4326,62.7455z"/>
	<path class="st1" d="M73.9305,64.9031l-0.0553,0.1106c-0.1106,0.4426-0.2213,0.8299-0.166,1.2724
		c0,0.8852,0.4426,1.6044,1.2171,2.1023l0.1106,0.0553l0.0553-0.166v-0.166c0-0.7192-0.5532-2.6002-0.9958-3.1535l-0.1106-0.166
		L73.9305,64.9031z"/>
	<path class="st1" d="M72.4368,67.78l0.0553,0.1106c0.5532,0.9405,1.5491,2.213,3.3747,1.881h0.166l-0.1106-0.1106
		c-0.3319-0.4979-2.5449-1.7704-3.3194-1.881l-0.2213-0.0553L72.4368,67.78z"/>
	<path class="st1" d="M75.1477,70.2142L75.1477,70.2142l-0.2766,0.0553l0.2766,0.1106c1.1618,0.4979,2.6002,0.6086,3.4854,0.3319
		c0.3319-0.1106,0.4979-0.2766,0.7192-0.4979c1.4937,0.166,2.8768,1.3831,3.7067,2.3789l0.0553,0.0553h0.0553
		c0.1106-0.0553,0.2213-0.166,0.2766-0.2213l0.0553-0.0553l-0.0553-0.0553c-0.8298-1.1065-2.1576-1.7704-2.2129-1.8257
		C80.0161,69.9376,77.9138,69.495,75.1477,70.2142"/>
	<path class="st1" d="M75.203,67.1161v0.1106c0.166,1.1065,0.6086,2.5449,2.4896,2.3789h0.1106l-0.0553-0.1106
		c-0.1106-0.4979-1.8257-1.9363-2.4342-2.3236l-0.166-0.1106L75.203,67.1161z"/>
	<path class="st1" d="M88.2594,56.9918l0.0553,0.2766c0.166,0.9958,0.6086,1.881,1.1618,2.3789l0.1106,0.1106l0.0553-0.2213v-0.0553
		c0.166-1.0512-0.7745-1.9917-1.1618-2.3236L88.37,57.0472L88.2594,56.9918z"/>
	<path class="st1" d="M90.1957,58.7622l-0.1106,0.2213c-0.2766,0.7192-0.3873,2.3236-0.3319,3.0981l0.1106,0.4426l0.0553-0.0553
		l0.0553-0.1106c0.6086-0.7192,0.6086-1.6597,0.4979-2.3789c-0.0553-0.4979-0.166-0.8299-0.2213-0.9958l-0.0553-0.1106V58.7622z"/>
	<path class="st1" d="M90.9149,61.5284l-0.166,0.2213c-0.5532,0.7192-1.3278,2.6002-1.3278,3.2641v0.2213l0.166-0.1106
		c1.3831-0.8852,1.4384-2.6002,1.3831-3.3194v-0.1106L90.9149,61.5284z"/>
	<path class="st1" d="M90.6936,64.5712l-0.2213,0.1106c-0.8852,0.5532-2.2683,2.2683-2.5449,2.9875l-0.0553,0.2213l0.2213-0.0553
		c1.4384-0.4426,2.3789-2.047,2.5449-3.0428v-0.1106L90.6936,64.5712z"/>
	<path class="st1" d="M87.7615,58.4856l0.0553,0.2766c0.2213,0.7192,0.8852,1.9363,1.4937,2.4342l0.166,0.1106v-0.2213
		c0.0553-0.9958-0.4426-1.7704-1.4937-2.4342l-0.1106-0.0553L87.7615,58.4856z"/>
	<path class="st1" d="M88.37,60.6432v0.2213c-0.0553,0.7192,0.5532,2.3236,0.9405,2.8768l0.1106,0.166l0.0553-0.166
		c0.0553-0.2213,0.1106-0.3873,0.1106-0.5532c0.0553-1.1618-0.8299-2.1023-1.1065-2.3789l-0.0553-0.0553L88.37,60.6432z"/>
	<path class="st1" d="M88.3147,62.6349l-0.0553,0.2213c-0.0553,0.166-0.1106,0.4426-0.1106,0.7745
		c0,0.9405,0.1106,2.1023,0.3319,2.4896l0.0553,0.166l0.1106-0.166c0.2766-0.3873,0.4426-0.8299,0.4426-1.3278
		c0-0.6086-0.2213-1.3278-0.6639-1.9916L88.37,62.6902L88.3147,62.6349z"/>
	<path class="st1" d="M87.8168,64.7925l-0.1106,0.166c-0.4426,0.5532-0.9958,2.4342-0.9958,3.1535c0,0,0,0.1106,0,0.166
		l0.0553,0.166l0.1106-0.0553c0.7745-0.4979,1.1618-1.2171,1.2171-2.1023c0-0.3873-0.0553-0.8299-0.166-1.2724l-0.0553-0.1106
		L87.8168,64.7925z"/>
	<path class="st1" d="M89.4212,67.6693l-0.2213,0.0553c-0.7745,0.1106-2.9875,1.3831-3.3194,1.881l-0.1106,0.1106h0.166
		c1.8257,0.3319,2.8215-0.9405,3.3747-1.881l0.0553-0.1106L89.4212,67.6693z"/>
	<path class="st1" d="M80.6247,70.4908c-0.0553,0-1.3831,0.7192-2.2129,1.8257l-0.0553,0.0553l0.0553,0.0553
		c0.0553,0.0553,0.2213,0.166,0.2766,0.2213h0.0553l0.0553-0.0553c0.8299-0.9958,2.213-2.2683,3.7067-2.3789
		c0.2213,0.2213,0.4426,0.3873,0.7192,0.4979c0.8299,0.2766,2.3236,0.166,3.4854-0.3319l0.2766-0.1106l-0.2766-0.0553
		C83.8888,69.495,81.7865,69.9376,80.6247,70.4908"/>
	<path class="st1" d="M86.5997,67.0054l-0.166,0.1106c-0.6086,0.3873-2.2683,1.8257-2.4342,2.3236l-0.0553,0.1106h0.1106
		c1.8257,0.166,2.2683-1.2724,2.4896-2.3789v-0.1106L86.5997,67.0054z"/>
	<path class="st1" d="M39.9065,55.9407h2.3236v2.1023h-2.3236V55.9407z M40.1278,60.4772h1.9363v10.2902h-1.9363V60.4772z"/>
	<path class="st1" d="M25.467,60.4772h1.9363v10.2902h-1.881v-1.4937H25.467c-0.7745,1.2724-2.1023,1.8257-3.5407,1.8257
		c-2.1576,0-3.3747-1.6597-3.3747-3.7067v-6.9155h1.9363v6.0856c0,1.7704,0.3873,3.0981,2.2683,3.0981
		c0.7745,0,1.881-0.3873,2.2683-1.4937c0.3873-0.9405,0.3873-2.1576,0.3873-2.4342v-5.2557H25.467z"/>
	<path class="st1" d="M31.276,61.971L31.276,61.971c0.7192-1.2724,2.1023-1.8257,3.1535-1.8257c0.7192,0,3.8727,0.166,3.8727,3.4854
		v7.0814h-1.9363v-6.4729c0-1.715-0.7192-2.6002-2.3789-2.6002c0,0-1.0512-0.0553-1.881,0.7745
		c-0.2766,0.2766-0.8299,0.7192-0.8299,2.7662v5.5877h-1.9363V60.4772h1.9363V61.971z"/>
	<path class="st1" d="M50.1967,63.7413c-0.1106-1.2724-0.7192-2.1576-2.1023-2.1576c-1.8257,0-2.5449,1.6044-2.5449,3.9833
		c0,2.3789,0.7192,3.9833,2.5449,3.9833c1.2724,0,2.047-0.8299,2.1576-2.3236h1.9363c-0.166,2.3236-1.881,3.7067-4.1493,3.7067
		c-3.2641,0-4.5919-2.3236-4.5919-5.3111c0-2.9875,1.4937-5.477,4.7578-5.477c2.1576,0,3.762,1.3831,3.8727,3.596H50.1967z"/>
	<path class="st1" d="M55.0652,65.9543c-0.166,1.7704,0.6086,3.6514,2.5449,3.6514c1.4937,0,2.2683-0.6086,2.4896-2.1023h2.047
		c-0.3319,2.3236-2.1023,3.4854-4.5365,3.4854c-3.2641,0-4.5919-2.3236-4.5919-5.3111s1.4937-5.477,4.7578-5.477
		c3.0428,0.0553,4.4812,1.9917,4.4812,4.8132v0.9405H55.0652z M60.2656,64.6265c0.0553-1.715-0.7192-3.0428-2.6002-3.0428
		c-1.6044,0-2.5449,1.3831-2.5449,3.0428H60.2656z"/>
	<path class="st1" d="M64.4702,70.6568V61.805h-1.7704v-1.3278h1.7704v-2.2129c0.0553-2.2129,1.7704-2.8215,3.2088-2.8215
		c0.4426,0,0.9405,0.1106,1.3831,0.2213v1.6044c-0.3319,0-0.6639-0.0553-0.9958-0.0553c-1.1065,0-1.715,0.2766-1.6597,1.3831v1.881
		h2.3789v1.3278h-2.3789v8.8518H64.4702z"/>
	<rect x="39.1478" y="73.3116" class="st1" width="0.6404" height="2.7924"/>
	<rect x="40.6279" y="73.2696" class="st1" width="0.6404" height="2.7924"/>
	<rect x="42.4891" y="73.2995" class="st1" width="0.6404" height="2.7924"/>
	<rect x="56.8307" y="73.2995" class="st1" width="0.6404" height="2.7924"/>
	
		<rect x="56.8322" y="72.547" transform="matrix(-1.836970e-16 1 -1 -1.836970e-16 130.7679 16.4632)" class="st1" width="0.6404" height="2.1372"/>
	
		<rect x="54.3286" y="74.615" transform="matrix(-1.836970e-16 1 -1 -1.836970e-16 129.9882 20.8272)" class="st1" width="0.5037" height="1.5855"/>
	<rect x="58.8915" y="73.2995" class="st1" width="0.6404" height="2.7924"/>
	<polygon class="st1" points="52.054,75.8874 51.4584,76.1223 50.3465,73.2935 51.0294,73.2898 	"/>
	<polygon class="st1" points="51.3619,75.8875 51.9576,76.1224 53.0728,73.3039 52.3866,73.2899 	"/>
	
		<rect x="41.564" y="73.1652" transform="matrix(0.8183 -0.5747 0.5747 0.8183 -35.3096 37.6387)" class="st1" width="0.6404" height="3.0179"/>
	<rect x="44.0212" y="73.2696" class="st1" width="0.6404" height="2.7924"/>
	<rect x="45.8823" y="73.2995" class="st1" width="0.6404" height="2.7924"/>
	
		<rect x="44.9573" y="73.1652" transform="matrix(0.8183 -0.5747 0.5747 0.8183 -34.6932 39.589)" class="st1" width="0.6404" height="3.0179"/>
	<rect x="63.8415" y="73.2696" class="st1" width="0.6404" height="2.7924"/>
	<rect x="65.7027" y="73.2995" class="st1" width="0.6404" height="2.7924"/>
	
		<rect x="64.7776" y="73.1652" transform="matrix(0.8183 -0.5747 0.5747 0.8183 -31.0924 50.9806)" class="st1" width="0.6404" height="3.0179"/>
	<path class="st1" d="M48.578,73.2248c-0.8323,0-1.507,0.6747-1.507,1.507c0,0.8323,0.6748,1.507,1.507,1.507
		c0.8323,0,1.507-0.6747,1.507-1.507C50.085,73.8995,49.4103,73.2248,48.578,73.2248z M48.578,75.6229
		c-0.4921,0-0.8911-0.3989-0.8911-0.8911c0-0.4921,0.3989-0.8911,0.8911-0.8911c0.4921,0,0.8912,0.3989,0.8912,0.8911
		C49.4692,75.224,49.0701,75.6229,48.578,75.6229z"/>
	<path class="st1" d="M61.6436,73.2248c-0.8323,0-1.507,0.6747-1.507,1.507c0,0.8323,0.6748,1.507,1.507,1.507
		c0.8323,0,1.507-0.6747,1.507-1.507C63.1506,73.8995,62.4759,73.2248,61.6436,73.2248z M61.6436,75.6229
		c-0.4921,0-0.8911-0.3989-0.8911-0.8911c0-0.4921,0.3989-0.8911,0.8911-0.8911c0.4921,0,0.8912,0.3989,0.8912,0.8911
		C62.5348,75.224,62.1357,75.6229,61.6436,75.6229z"/>
	<rect x="51.4602" y="75.8223" class="st1" width="0.4974" height="0.3001"/>
	<polygon class="st1" points="54.2553,73.5185 54.8011,73.2899 55.913,76.1188 55.2301,76.1224 	"/>
	<polygon class="st1" points="54.8381,73.5226 54.3019,73.2898 53.1867,76.1084 53.8729,76.1223 	"/>
	
		<rect x="54.3019" y="73.2898" transform="matrix(-1 4.388033e-11 -4.388033e-11 -1 109.1012 146.8797)" class="st1" width="0.4974" height="0.3001"/>
</g>
</svg>
