<svg xmlns="http://www.w3.org/2000/svg" width="110.979" height="128.417"><defs><linearGradient y2="124.717" x2="56.053" y1="13.376" x1="56.053" gradientUnits="userSpaceOnUse" id="a"><stop offset="0" stop-color="#01c7ff"/><stop offset="1" stop-color="#0000b8"/></linearGradient></defs><path fill="#152c7c" d="M.129 96.417V32.418l55.424-32 55.426 32v63.999l-55.426 32z"/><path d="M102.053 38.139v53.14l-.01.01-1.09.621-.33.189-.13.07-.88.51-3.141 1.811-.2.119-1.93 1.109-.16.09-1.479.861-.471.27-.14.08-.47.27-.24.131-.03.01-.1.039-.11.07-3.029 1.74-.82.471-1.05.6-.04.029-1.181.68-.05.031-.45.26-.01.01-.01.01h-.01l-.391.221-.02.01-1.13.66-.87.52-1.26.721-.12.07-.08.049-.15.09-.26.15-.03.01-.06.031-.101.059v.01l-.779.451-.181.09-.02.02-.04.02-1.01.58-.29.17-.05.031-.32.18-.24.141h-.01l-.07.039-.06.029-.58.352-.2.119-4.42 2.551-.63.359-.061.029-3.5 2.031-4.04 2.33-.01.01-.43.25-5.71 3.289-.561.32h-.01l-.32.189-.479.281-1.42-.82-.851-.49-.029-.01-1.74-1.01-3.529-2.041-.041-.029-2.07-1.189-5.359-3.111-.689-.389L35.553 106l-.37-.211-.39-.219-.23-.131-.26-.15-.07-.039-.17-.111-.09-.049-1.85-1.061-.57-.33-1.71-.99-2.51-1.459-.26-.15-.45-.26-.48-.27-.9-.521-.82-.469-.09-.051-.5-.289-.01-.012-.21-.119h-.01l-1.04-.6c-.01-.01-.01-.01-.02-.01l-1.86-1.08-1.02-.59-1.33-.771-.72-.43-.04-.02-.02-.01-.29-.17s-.01 0-.02-.01l-.26-.15-.02-.01-3.3-1.9-3.41-1.971-.09-.049-.08-.041-.03-.02v-53.14l14.33-8.27 1.99-1.16 4.93-2.83 1.58-.92.17-.09 1.66-.95.779-.45.381-.22.439-.26 1.101-.65.521-.3 2.279-1.3.689-.41 1.4-.8h.01l.051-.03 5.72-3.3.19-.11.27-.16 6.07-3.51 1.439-.83 1.061.62 6.489 3.75 2.601 1.5 3.95 2.28 1.34.77 6.64 3.83 1.04.61 2.3 1.31.87.5 1.521.88 1.369.79.801.46.09.06 1.81 1.04 3.78 2.18.04.03v.01l.26.14.26.16.4.23.92.53.54.31 1.94 1.12.779.44.44.25 1.939 1.12z" fill="url(#a)"/><path d="M47.538 20.2L30.666 37.073c-.677.677.372 1.726 1.049 1.049L48.587 21.25c.677-.679-.373-1.729-1.049-1.05zM28.234 40.896c.957 0 .957-1.486 0-1.486-.958 0-.958 1.486 0 1.486z" fill="#ffce08"/><path d="M20.903 40.979c-5.27 5.26-6.15 6.15-10.85 10.84v-2.09c3.82-3.82 4.95-4.96 9.8-9.8.67-.68 1.72.37 1.05 1.05zM81.668 72.757l3.561-3.563c.678-.678-.371-1.727-1.05-1.049a5982.787 5982.787 0 0 0-3.561 3.563c-.677.676.372 1.727 1.05 1.049z" fill="#f9006c"/><path d="M102.053 65.679v2.07c-2.99 2.979-11.609 11.609-12.649 12.65-.021.02-.03.029-.051.039-.659.58-1.62-.391-1.05-1.039l.05-.051c1.19-1.189 12.37-12.381 13.561-13.561a.698.698 0 0 1 .139-.108z" fill="#8e2abe"/><path d="M88.049 57.678l4.699-4.699c.677-.678-.372-1.728-1.05-1.049-1.567 1.565-3.132 3.133-4.699 4.7-.678.677.373 1.726 1.05 1.048z" fill="#ffce08"/><path d="M34.558 52.179L17.686 69.052c-.677.676.372 1.725 1.049 1.049l16.873-16.873c.678-.677-.373-1.727-1.05-1.049z" fill="#25e999"/><path d="M85.248 60.272c.957 0 .957-1.486 0-1.486-.958 0-.958 1.486 0 1.486z" fill="#ffce08"/><path d="M93.593 33.269c-2.41 2.42-7.36 7.37-8.689 8.7-.681.68-1.73-.37-1.051-1.05 1.29-1.28 5.92-5.92 8.42-8.41l.4.23zM82.101 44.563c.957 0 .957-1.486 0-1.486-.958 0-.958 1.486 0 1.486z" fill="#3e00ff"/><path d="M71.494 20.509l-2.9 2.9c-.68.68-1.729-.37-1.05-1.05.49-.49 1.46-1.47 2.61-2.62zM65.789 26.001c.957 0 .957-1.486 0-1.486-.958 0-.958 1.486 0 1.486z" fill="#f9006c"/><path d="M15.255 72.876c.957 0 .957-1.486 0-1.486-.958 0-.958 1.486 0 1.486z" fill="#25e999"/><path d="M56.024 11.579l-46.07 26.56v53.12l22.9 13.199 1.65.961 15.771 9.09 5.52 3.18.23.131.689-.4 15.31-8.82 5.591-3.221 1.189-.689 23.3-13.43V38.14zm44.209 78.61l-21.43 12.35-1.64.951-6.58 3.789-14.56 8.4-4.69-2.701-16.79-9.68-1.91-1.1-20.82-12.01v-50.97l44.21-25.49 44.209 25.49v50.971z" opacity=".13"/><g transform="matrix(.2739 0 0 .2739 37 19.885)"><path fill="#ffd400" d="M64.69 5.927L50.365 31.066h11.64l-15.27 31.025 40.129-35.908H73.827L90.685 5.927z"/><path fill="#ffb000" d="M83.431 14.642H59.724l-9.359 16.424h11.64l-15.27 31.025 30.389-27.193H66.995l7.252-8.715h-.42z"/><path d="M46.734 63.591a1.499 1.499 0 0 1-1.345-2.162l14.206-28.863h-9.229a1.501 1.501 0 0 1-1.304-2.242L63.386 5.185a1.502 1.502 0 0 1 1.304-.758h25.995a1.5 1.5 0 0 1 1.153 2.46L77.027 24.683h9.837a1.499 1.499 0 0 1 1 2.618l-40.13 35.908a1.494 1.494 0 0 1-1 .382zm6.212-34.025h9.059a1.499 1.499 0 0 1 1.345 2.162L51.492 55.821l31.446-28.138h-9.111a1.5 1.5 0 0 1-1.153-2.46l14.81-17.796H65.562z" fill="#33363a"/><path d="M113.1 84.413c0 20.676-22.032 37.441-49.209 37.441-27.178 0-49.209-16.766-49.209-37.441 0-20.68 22.031-45.459 49.209-45.459 27.177 0 49.209 24.78 49.209 45.459z" fill="#fff800"/><path d="M113.1 84.413c0 20.676-22.032 37.441-49.209 37.441-27.178 0-49.209-16.766-49.209-37.441 0-20.68 22.031-34.928 49.209-34.928 27.177.001 49.209 14.249 49.209 34.928z" fill="#ffd400"/><path d="M74.37 74.615c0 1.393-4.691 1.643-10.479 1.643-5.788 0-10.479-.25-10.479-1.643 0-1.395 4.691-5.037 10.479-5.037 5.788 0 10.479 3.642 10.479 5.037z" fill="#fff800"/><path d="M113.1 84.413c0 20.676-22.032 37.441-49.209 37.441-27.178 0-49.209-16.766-49.209-37.441 0-20.682 6.261 18.34 49.209 18.34S113.1 63.732 113.1 84.413z" fill="#ffb000"/><path d="M63.891 123.355c-27.961 0-50.709-17.469-50.709-38.941 0-21.27 22.619-46.959 50.709-46.959 28.09 0 50.709 25.689 50.709 46.958 0 21.473-22.748 38.942-50.709 38.942zm0-82.901c-26.428 0-47.709 24.048-47.709 43.959 0 19.818 21.402 35.941 47.709 35.941 26.307 0 47.709-16.122 47.709-35.941 0-19.911-21.282-43.959-47.709-43.959z" fill="#33363a"/><path d="M9.197 47.273c6.385 10.541 15.331 16.738 23.985 17.811 1.492-10.754-.872-23.232-7.258-33.773C19.539 20.767 10.593 14.57 1.94 13.501c-1.493 10.75.872 23.231 7.257 33.772z" fill="#ffd400"/><path d="M1.94 13.501c-1.492 10.75.872 23.23 7.258 33.771 6.385 10.541 15.331 16.738 23.985 17.811z" fill="#ffb000"/><path d="M34.587 51.296c-1.041-7.334-3.593-14.514-7.379-20.764-6.417-10.594-15.56-17.344-25.085-18.52a1.497 1.497 0 0 0-1.669 1.282c-1.611 11.602 1.108 24.27 7.46 34.755 4.339 7.166 9.961 12.622 16.259 15.778a1.499 1.499 0 0 0 1.344-2.682c-5.791-2.903-10.99-7.969-15.036-14.651a51.824 51.824 0 0 1-4.567-9.713c6.1-1 13.157 2.117 12.314-12.987 2.338 2.362 4.503 5.137 6.414 8.292 3.579 5.906 5.99 12.694 6.975 19.631.117.82.879 1.385 1.696 1.274a1.498 1.498 0 0 0 1.274-1.695z" fill="#33363a"/><path d="M118.584 47.273c-6.385 10.541-15.331 16.738-23.985 17.811-1.492-10.754.871-23.232 7.258-33.773 6.386-10.543 15.332-16.74 23.986-17.808 1.491 10.748-.872 23.229-7.259 33.77z" fill="#ffd400"/><path d="M125.843 13.501c1.491 10.75-.872 23.23-7.259 33.771-6.385 10.541-15.331 16.738-23.985 17.811z" fill="#ffb000"/><path d="M127.328 13.295a1.499 1.499 0 0 0-1.669-1.282c-9.525 1.176-18.669 7.926-25.086 18.52-3.787 6.253-6.339 13.434-7.378 20.764a1.5 1.5 0 0 0 2.97.422c.982-6.934 3.395-13.722 6.974-19.631 1.911-3.155 4.076-5.93 6.414-8.292-.844 15.104 6.214 11.987 12.315 12.987a51.824 51.824 0 0 1-4.567 9.713c-4.048 6.684-9.247 11.75-15.036 14.651a1.5 1.5 0 1 0 1.344 2.682c6.296-3.155 11.918-8.611 16.259-15.778 6.351-10.484 9.071-23.152 7.46-34.756z" fill="#33363a"/><g><circle r="7.013" cy="87.775" cx="32.889" fill="#ff1a1a"/><path d="M39.902 87.775a7.014 7.014 0 0 1-14.027 0" fill="#d61d1d"/><circle r="7.014" cy="87.775" cx="94.892" fill="#ff1a1a"/><path d="M101.905 87.775a7.015 7.015 0 0 1-14.028 0" fill="#d61d1d"/></g><path d="M73.528 80.281a1.5 1.5 0 0 0-1.5 1.5 2.592 2.592 0 0 1-2.591 2.588h-1.456a2.592 2.592 0 0 1-2.59-2.588v-1.455c0-.073-.011-.143-.021-.213l3.11-1.556a1.502 1.502 0 0 0-.671-2.842h-7.837a1.502 1.502 0 0 0-.671 2.842l3.109 1.556c-.01.07-.021.14-.021.213v1.455a2.591 2.591 0 0 1-2.589 2.588h-1.457a2.592 2.592 0 0 1-2.591-2.588 1.5 1.5 0 0 0-3 0 5.596 5.596 0 0 0 5.591 5.588H59.8a5.569 5.569 0 0 0 4.09-1.792 5.571 5.571 0 0 0 4.091 1.792h1.456a5.596 5.596 0 0 0 5.591-5.588 1.5 1.5 0 0 0-1.5-1.5z" fill="#33363a"/><g><path d="M47.729 70.144a8.05 8.05 0 0 1-8.053 8.051 8.05 8.05 0 0 1-8.051-8.051 8.052 8.052 0 1 1 16.104 0z" fill="#6d5c4d"/></g><g><circle r="3.281" cy="67.527" cx="35.672" fill="#fff"/></g><path d="M39.676 60.591c-3.245 0-6.113 1.63-7.84 4.111a4.84 4.84 0 0 0-.286.447 9.489 9.489 0 0 0-1.425 4.995c0 5.267 4.284 9.551 9.551 9.551 5.268 0 9.553-4.284 9.553-9.551 0-5.268-4.286-9.553-9.553-9.553zm0 16.104a6.56 6.56 0 0 1-6.047-4.035c.681-.018 1.511-.202 2.44-.394.356-.03.699-.097 1.029-.201.809-.145 1.675-.259 2.577-.259 2.413 0 4.573.814 6.049.854a6.56 6.56 0 0 1-6.048 4.035z" fill="#33363a"/><circle r="1.779" cy="67.527" cx="35.672" fill="#fff"/><g><path d="M96.155 70.144a8.049 8.049 0 0 1-8.051 8.051 8.05 8.05 0 0 1-8.052-8.051 8.052 8.052 0 1 1 16.103 0z" fill="#6d5c4d"/></g><g><circle r="3.28" cy="67.527" cx="84.1" fill="#fff"/></g><path d="M88.105 60.591c-3.243 0-6.11 1.629-7.837 4.108a4.888 4.888 0 0 0-.292.455 9.481 9.481 0 0 0-1.423 4.99c0 5.267 4.285 9.551 9.552 9.551 5.267 0 9.551-4.284 9.551-9.551-.001-5.268-4.285-9.553-9.551-9.553zm0 16.104a6.562 6.562 0 0 1-6.048-4.035c.689-.019 1.527-.201 2.471-.397.335-.03.658-.093.97-.189.819-.148 1.693-.268 2.607-.268 2.413 0 4.571.814 6.047.854a6.56 6.56 0 0 1-6.047 4.035z" fill="#33363a"/><circle r="1.779" cy="67.527" cx="84.101" fill="#fff"/></g><g><path d="M62.871 89.138c-3.905-3.906-10.237-3.906-14.142 0-3.905 3.905-3.905 10.236 0 14.142 3.905 3.905 10.237 3.905 14.142 0 3.905-3.906 3.905-10.237 0-14.142zm-5.303 8.839a2.5 2.5 0 1 1-3.535-3.535 2.5 2.5 0 0 1 3.535 3.535z" fill="#424a60"/><path d="M58.578 93.43a3.928 3.928 0 1 0-5.556 5.556 3.928 3.928 0 0 0 5.556-5.555zm-2.02 3.536a1.071 1.071 0 1 1-1.516-1.514 1.071 1.071 0 0 1 1.515 1.514z" fill="#e7eced"/><g fill="#7383bf"><path d="M58.578 98.987a3.938 3.938 0 0 1-.894.667l2.913 5.329a10 10 0 0 0 3.977-3.978l-5.328-2.913a3.92 3.92 0 0 1-.668.895zM53.022 93.43c.272-.27.574-.491.894-.667l-2.913-5.328a10 10 0 0 0-3.977 3.977l5.328 2.913a3.92 3.92 0 0 1 .668-.894z"/></g></g><g transform="matrix(.51556 0 0 .51556 12.395 54.016)"><path d="M29.095 39.268h9.446c1.701 0 3.346.609 4.638 1.716l9.128 7.828c.611.524 1.505.614 2.184.183 9.496-6.01-2.022-29.728-4.305-34.034-.242-.457-.641-2.936-1.126-3.113l-7.676-2.791a2.248 2.248 0 0 0-2.017.242s-2.164 1.383-2.649 1.383H21.744c-.485 0-2.921-1.383-2.921-1.383a2.25 2.25 0 0 0-2.017-.242L9.13 11.848c-.486.177-.884 2.656-1.126 3.113-2.283 4.306-13.801 28.024-4.305 34.034.68.43 1.574.34 2.184-.183l9.128-7.828a7.129 7.129 0 0 1 4.638-1.716z" fill="#38454f"/><circle r="4" cy="30.268" cx="36.786" fill="#546a79"/><circle r="4" cy="20.268" cx="13.786" fill="#546a79"/><circle r="2" cy="16.268" cx="43.786" fill="#ebba16"/><circle r="2" cy="20.268" cx="39.786" fill="#7383bf"/><circle r="2" cy="20.268" cx="47.786" fill="#d75a4a"/><circle r="2" cy="24.268" cx="43.786" fill="#61b872"/><path d="M31.786 11.712c0-.192-.019-.38-.054-.561a1.077 1.077 0 0 0-.215-.469h-2.479c-.085.007-.165.03-.251.03-.087 0-.167-.022-.251-.03h-2.489a1 1 0 0 0-.192.4 3.007 3.007 0 0 0 0 1.271 3.014 3.014 0 0 0 2.404 2.314 3.002 3.002 0 0 0 3.527-2.955z" fill="#afb6bb"/><path d="M27.286 27.921H24v-3.286a.714.714 0 0 0-.714-.714h-2.571a.714.714 0 0 0-.714.714v3.286h-3.286a.714.714 0 0 0-.714.714v2.571c0 .395.32.714.714.714H20v3.286c0 .395.32.714.714.714h2.571c.395 0 .714-.32.714-.714V31.92h3.286c.395 0 .714-.32.714-.714v-2.571a.713.713 0 0 0-.713-.714z" fill="#546a79"/></g><g transform="matrix(.0833 0 0 .0833 63.176 43.77)"><path d="M370.759 512H141.241c-19.501 0-35.31-15.809-35.31-35.31V35.31c0-19.501 15.809-35.31 35.31-35.31h229.517c19.501 0 35.31 15.809 35.31 35.31v441.38c.001 19.501-15.808 35.31-35.309 35.31z" fill="#ff6464"/><path d="M370.759 370.759H141.241c-9.751 0-17.655-7.904-17.655-17.655v-88.276c0-9.751 7.904-17.655 17.655-17.655h229.517c9.751 0 17.655 7.904 17.655 17.655v88.276c.001 9.751-7.903 17.655-17.654 17.655z" fill="#f0545a"/><g fill="#5a5d6f"><path d="M370.759 220.69H141.241c-9.751 0-17.655-7.904-17.655-17.655V35.31c0-9.751 7.904-17.655 17.655-17.655h229.517c9.751 0 17.655 7.904 17.655 17.655v167.724c.001 9.752-7.903 17.656-17.654 17.656z"/><circle r="17.655" cy="335.448" cx="300.138"/><circle r="17.655" cy="291.31" cx="344.276"/></g><g fill="#445"><path d="M344.276 203.034H167.724a8.829 8.829 0 0 1-8.828-8.828V44.138a8.829 8.829 0 0 1 8.828-8.828h176.552a8.829 8.829 0 0 1 8.828 8.828v150.069a8.829 8.829 0 0 1-8.828 8.827zM256 476.69a8.829 8.829 0 0 1-8.828-8.828v-17.655a8.829 8.829 0 0 1 17.656 0v17.655A8.829 8.829 0 0 1 256 476.69zM282.483 476.69a8.829 8.829 0 0 1-8.828-8.828v-17.655a8.829 8.829 0 0 1 17.656 0v17.655a8.83 8.83 0 0 1-8.828 8.828zM229.517 476.69a8.829 8.829 0 0 1-8.828-8.828v-17.655a8.829 8.829 0 0 1 17.656 0v17.655a8.829 8.829 0 0 1-8.828 8.828z"/></g><path d="M220.69 291.31h-13.241a4.414 4.414 0 0 1-4.414-4.414v-13.241a8.829 8.829 0 0 0-8.828-8.828h-17.655a8.829 8.829 0 0 0-8.828 8.828v13.241a4.414 4.414 0 0 1-4.414 4.414h-13.241a8.829 8.829 0 0 0-8.828 8.828v17.655a8.829 8.829 0 0 0 8.828 8.828h13.241a4.414 4.414 0 0 1 4.414 4.414v13.241a8.829 8.829 0 0 0 8.828 8.828h17.655a8.829 8.829 0 0 0 8.828-8.828v-13.241a4.414 4.414 0 0 1 4.414-4.414h13.241a8.829 8.829 0 0 0 8.828-8.828v-17.655a8.83 8.83 0 0 0-8.828-8.828z" fill="#5a5d6f"/><circle r="13.241" cy="308.966" cx="185.379" fill="#445"/></g><g transform="matrix(.03788 0 0 .03788 48 61.417)"><path d="M389.12 325.666v37.122c0 14.543-11.788 26.33-26.33 26.33H33.157c-14.543.002-26.33-11.786-26.33-26.329V33.157c0-14.543 11.788-26.33 26.33-26.33H362.79c14.543 0 26.33 11.788 26.33 26.33v156.24" fill="#fff"/><path d="M362.786 395.947H33.161C14.874 395.947 0 381.073 0 362.79V33.157C0 14.874 14.874 0 33.161 0h329.626c18.287 0 33.161 14.874 33.161 33.157v156.24a6.825 6.825 0 0 1-6.827 6.827 6.825 6.825 0 0 1-6.827-6.827V33.157c0-10.754-8.753-19.504-19.507-19.504H33.161c-10.754 0-19.507 8.75-19.507 19.504v329.634c0 10.752 8.753 19.502 19.507 19.502h329.626c10.754 0 19.507-8.75 19.507-19.504v-37.123a6.825 6.825 0 0 1 6.827-6.827 6.825 6.825 0 0 1 6.827 6.827v37.123c-.001 18.284-14.875 33.158-33.162 33.158z" fill="#602f75"/><path d="M389.12 300.37a6.826 6.826 0 0 1-6.827-6.827v-75.566a6.825 6.825 0 0 1 6.827-6.827 6.825 6.825 0 0 1 6.827 6.827v75.566a6.826 6.826 0 0 1-6.827 6.827z" fill="#602f75"/><circle r="54.613" cy="109.227" cx="286.72" fill="#fff"/><path d="M286.72 170.667c-33.881 0-61.44-27.563-61.44-61.44 0-33.877 27.559-61.44 61.44-61.44s61.44 27.563 61.44 61.44c0 33.877-27.559 61.44-61.44 61.44zm0-109.227c-26.348 0-47.787 21.437-47.787 47.787 0 26.35 21.439 47.787 47.787 47.787s47.787-21.437 47.787-47.787c0-26.35-21.439-47.787-47.787-47.787z" fill="#00e7ff"/><g fill="#ea3457"><path d="M341.333 354.987H232.107a6.826 6.826 0 0 1-6.827-6.827V238.933a6.825 6.825 0 0 1 6.827-6.827h109.227a6.826 6.826 0 0 1 6.827 6.827V348.16a6.827 6.827 0 0 1-6.828 6.827zm-102.4-13.654h95.573V245.76h-95.573zM153.6 167.253a6.803 6.803 0 0 1-4.826-2L49.787 66.266a6.825 6.825 0 0 1 0-9.653 6.825 6.825 0 0 1 9.653 0l98.987 98.987a6.825 6.825 0 0 1-4.827 11.653z"/><path d="M54.613 167.253a6.803 6.803 0 0 1-4.826-2 6.825 6.825 0 0 1 0-9.653l98.987-98.987a6.825 6.825 0 0 1 9.653 0 6.825 6.825 0 0 1 0 9.653L59.44 165.253a6.807 6.807 0 0 1-4.827 2z"/></g><path fill="#fff" d="M42.223 348.16H176.23l-67.003-116.053z"/><path d="M176.234 354.987H42.22a6.827 6.827 0 0 1-5.914-10.24l67.007-116.053c2.441-4.227 9.387-4.227 11.827 0l67.007 116.053a6.825 6.825 0 0 1-5.913 10.24zM54.047 341.333h110.36l-55.18-95.573z" fill="#ffe600"/></g></svg>