<svg enable-background="new 0 0 110.8438 127.9995" viewBox="0 0 110.8438 127.9995" xmlns="http://www.w3.org/2000/svg"><path d="m110.9644 96.0071-55.4257 32-55.4239-32v-63.9995l55.4239-32 55.4257 32z" fill="#353433"/><path d="m102.025 37.6517v53.14l-.01.01-1.09.62-.33.19-.1299.07-.88.5099-3.14 1.81-.2.12-1.93 1.11-.16.09-1.48.86-.47.27-.14.08-.47.27-.24.13-.03.0099-.1.04-.11.07-3.03 1.74-.82.47-1.05.6-.04.03-1.23.71-.45.26-.01.0099-.01.01h-.0101l-1.54.89-.87.52-1.26.72-.12.07-.08.05-.41.24-.03.01-.16.09v.01l-.78.45-.1801.09-.02.02-.04.02-1.0099.58-.29.17-.05.03-.32.18-.24.14h-.01l-.07.04-.64.38-.2.12-4.42 2.55-.63.36-.06.03-3.5 2.03-.02.01-.01.0099-.75.43-.5.29-1.39.8-1.37.79-.01.01-.43.25-.4.23-2.36 1.36-.36.21-.04.02-.68.39-1.8701 1.08-.56.3199h-.0099l-.32.19-.48.28-1.42-.82-.85-.49-.03-.01-1.74-1.01-3.53-2.04-.04-.03-2.07-1.19-5.36-3.11-.69-.39-4.72-2.74-.37-.21-.39-.22-.23-.13-.2599-.15-.2401-.15-.09-.05-1.85-1.06-.5699-.33-1.71-.99-2.51-1.46-2.09-1.2-.82-.47-.09-.05-.5-.29-.01-.0099-.21-.1201h-.01l-1.04-.6c-.0099-.01-.0099-.01-.02-.01l-1.86-1.08-1.02-.59-1.33-.77-.72-.43-.04-.02-.02-.0099-.29-.17s-.01 0-.02-.0099l-.26-.15-.02-.01-3.3-1.9-3.41-1.97-.09-.05-.08-.04-.03-.02v-53.14l5.66-3.26.77-.46h.01l.25-.14.58-.33 1.75-1.01 2.27-1.31.82-.48.15-.09 2.07-1.19.98-.57 1.0099-.59.42-.24.45-.26.25-.14h.0099l.57-.33 3.23-1.86 1.58-.92.17-.09 1.66-.95.78-.45.3799-.22.44-.26 1.1-.65.52-.3 2.28-1.3.69-.41 1.4-.8h.0099l.05-.03 5.72-3.3.19-.11.27-.16 6.07-3.5099 1.44-.83 1.06.62 6.49 3.75 2.6 1.5 3.95 2.28 1.34.77 6.64 3.83 1.04.61 2.3 1.31.87.5 1.52.88 1.37.79.8.46.09.06 1.8101 1.04 3.78 2.1801.04.03v.01l.26.14.26.16.4.23.92.53.54.31.02.01 1.92 1.11.78.44.44.25 1.94 1.12z" fill="#fff"/><path d="m94.845 33.4416-1-.57-8.15-4.7-1.71-.98-2.55-1.48-5.33-3.07-19.51-11.24-.53-.31-.47.27-22.16 12.78-2.91 1.68-4.34 2.5-.75.43-.01.01-5.67 3.26-1 .58-7.22 4.16-1.54.89v53.12l.07.04 1.72 1 .75.4301.15.08 9.02 5.21 1.76 1.01 3.37 1.95 5.39 3.1 3.15 1.82.88.5 1.34.78.89.51.49.28.67.39 4.1 2.36 6.57 3.79 4.48 2.58 1.04.6.23.13.38-.22.31-.18 2.58-1.48 8.45-4.87.67-.39 3.16-1.82h.01l.44-.2599 4.79-2.76.9-.52 5.18-2.98.38-.22 1.12-.65 2.97-1.71 1.56-.9 11.25-6.49.9-.52 1.03-.59v-53.12zm5.43 56.26-.52.3-.32.1801-.58.34-7.6 4.38-4.66 2.69-3.1299 1.8-1.28.74-.72.41-3.91 2.26-1.16.67-.9.52-3.92 2.25-.08.05-.87.5-3.06 1.77-1.54.89-7.82 4.51-2.14 1.23-4.69-2.7-3.83-2.21-6.04-3.48-1.84-1.06-2.06-1.1801-.9-.52-.84-.49-.64-.37-7.17-4.14-3.91-2.26-1.76-1.01-3.42-1.97-4.92-2.84-.9-.51-.39-.23-.23-.13-.67-.39v-50.97l6.9-3.98 1-.58 7.62-4.39 4.65-2.68c.0099-.01.0099-.01.02-.01l1.33-.77.73-.42 21.49-12.39.47-.27.53.31 16.83 9.71 6.99 4.03 2.5 1.44 1.95 1.12 8.98 5.17 1 .58 5.4301 3.13v50.97z" opacity=".13"/><path d="m35.144 75.345c-.9875-1.6937-1.98-3.3845-2.9617-5.0817-2.4597-4.2526-4.9146-8.5079-7.3699-12.7631-.0677-.1174-.1174-.2452-.1754-.3682.6387-1.0878 1.2833-2.1721 1.9148-3.264 1.3167-2.2761 2.6256-4.5567 3.9394-6.8345 1.1999-2.0803 2.3908-4.1659 3.6104-6.2345.3358-.5696.5555-1.2167 1.0566-1.6837 3.4629 5.993 6.9257 11.986 10.4372 18.0631.3357-.5728.6406-1.0865.9394-1.6038 1.3701-2.3719 2.7422-4.7426 4.1019-7.1205.1404-.2455.2994-.33.5769-.3292 3.2456.0087 6.4912.0085 9.7368.0003.2752-.0007.4338.0774.577.327 1.6274 2.8381 3.269 5.668 4.9074 8.4998.0295.0509.0672.0972.1432.2059.3916-.6733.7626-1.3075 1.13-1.9438 3.0518-5.2844 6.1029-10.5693 9.1552-15.8535.0526-.091.1177-.1747.177-.2617.1041.1479.2206.2886.3106.4446 1.5271 2.6461 3.0491 5.2952 4.5758 7.9415 1.6861 2.9225 3.3706 5.846 5.0726 8.7592.1596.2732.2141.6417.5639.785-.3395.8169-.8358 1.5483-1.2737 2.3105-2.446 4.257-4.898 8.5105-7.3633 12.7563-.6095 1.0496-1.1689 2.1295-1.85 3.1371-.1553-.0381-.1968-.1775-.264-.2949-1.088-1.8984-2.1721-3.799-3.2656-5.6943-2.0272-3.514-4.0591-7.0253-6.0913-10.5365-.2831-.4891-.5786-.9711-.8981-1.506-3.509 6.0759-6.9762 12.0794-10.4744 18.1368-3.5107-6.0792-6.9771-12.0817-10.4433-18.0838-.1947.1079-.2364.2625-.3115.3921-.4037.6969-.8059 1.3946-1.2083 2.0922-1.192 2.0666-2.3833 4.1335-3.5758 6.1997-1.2229 2.119-2.4493 4.2359-3.6692 6.3566-.5826 1.0133-1.154 2.0332-1.7306 3.05z" fill="#8c8c8c"/><path d="m35.144 75.345c.5766-1.0168 1.148-2.0367 1.7308-3.0499 1.2199-2.1207 2.4463-4.2376 3.6692-6.3566 1.1925-2.0663 2.3838-4.1332 3.5758-6.1997.4024-.6976.8046-1.3954 1.2083-2.0922.0751-.1296.1168-.2842.3115-.3921 3.4662 6.0021 6.9326 12.0045 10.4433 18.0838 3.4982-6.0573 6.9654-12.0608 10.4744-18.1368.3194.5349.615 1.0168.8981 1.506 2.0322 3.5112 4.064 7.0225 6.0913 10.5365 1.0934 1.8953 2.1776 3.7959 3.2656 5.6943.0673.1173.1087.2568.264.2949-.82 1.5773-1.752 3.0909-2.6377 4.6307-2.4918 4.332-4.9953 8.6573-7.4963 12.9839-.0967.1674-.2157.3219-.3243.4825-.249.0097-.2707-.2125-.3559-.36-1.3077-2.2617-2.6113-4.5258-3.9169-6.7888-1.4422-2.4998-2.8854-4.999-4.328-7.4987-.577-.9999-1.1551-1.9991-1.7286-3.001-.15-.262-.2693-.305-.4153.0065-.1092.2331-.2517.4507-.3805.6745-1.3115 2.2775-2.6209 4.5562-3.9354 6.832-1.4057 2.4336-2.8123 4.8666-4.2265 7.2952-.572.9823-1.0845 2.0003-1.7408 2.9327-1.0116-1.73-2.0294-3.4563-3.0336-5.1906-2.3923-4.1315-4.7784-8.2665-7.1654-12.401-.091-.1571-.1652-.3238-.2471-.4861z" fill="#666"/><path d="m45.5898 93.4228c.6563-.9324 1.1688-1.9503 1.7408-2.9327 1.4142-2.4286 2.8208-4.8616 4.2265-7.2952 1.3145-2.2758 2.624-4.5545 3.9354-6.832.1289-.2238.2713-.4414.3805-.6745.146-.3115.2653-.2685.4153-.0065.5735 1.0019 1.1516 2.0011 1.7286 3.001 1.4425 2.4996 2.8858 4.9988 4.328 7.4987 1.3055 2.263 2.6092 4.527 3.9169 6.7888.0853.1474.1069.3697.3559.36-.5274 1.095-1.179 2.1207-1.7839 3.1719-2.8024 4.8698-5.6159 9.7332-8.4256 14.5988-.0974.1687-.1969.3362-.3264.557-.6683-1.156-1.3034-2.2538-1.9379-3.352-2.8181-4.8775-5.6363-9.755-8.4527-14.6335-.0444-.0772-.068-.1663-.1014-.2498z" fill="#333"/><g fill="#b2b2b2"><path d="m87.5632 57.0293c-.3498-.1433-.4043-.5118-.5639-.785-1.7021-2.9132-3.3866-5.8367-5.0726-8.7592-1.5267-2.6463-3.0488-5.2954-4.5758-7.9415-.09-.156-.2065-.2968-.3106-.4446.1073-.1274.2544-.0775.3846-.0775 6.7446-.0024 13.4893-.0022 20.2339-.0014.0894 0 .1787.0109.3412.0214-.3625.6391-.6993 1.2418-1.0444 1.8397-2.3859 4.1339-4.7738 8.2666-7.1604 12.4-.6841 1.1848-1.3649 2.3714-2.0511 3.5549-.0431.0744-.1198.1293-.1809.1932z"/><path d="m35.1583 39.1153c-.5011.467-.7208 1.1141-1.0566 1.6837-1.2197 2.0686-2.4106 4.1542-3.6104 6.2345-1.3138 2.2778-2.6227 4.5584-3.9394 6.8345-.6316 1.0918-1.2761 2.1762-1.9148 3.264-.5347-.9003-1.0779-1.7956-1.6023-2.7019-1.6523-2.8557-3.2972-5.7156-4.9457-8.5735-1.2459-2.1599-2.4892-4.3213-3.7439-6.4762-.1647-.2828-.1239-.3695.2014-.3642.6394.0105 1.2792.003 1.9188.003 6.0611 0 12.1221-.0009 18.1832.0044.1694.0003.3675-.0873.5097.0917z"/></g></svg>