<?xml version="1.0" encoding="utf-8"?>
<!-- Generator: Adobe Illustrator 21.0.2, SVG Export Plug-In . SVG Version: 6.00 Build 0)  -->
<svg version="1.1" xmlns="http://www.w3.org/2000/svg" xmlns:xlink="http://www.w3.org/1999/xlink" x="0px" y="0px"
	 viewBox="0 0 110.979 128.417" enable-background="new 0 0 110.979 128.417" xml:space="preserve">
<g id="Layer_1">
</g>
<g id="Layer_4">
</g>
<g id="border">
	<g>
		<polygon fill="#050A32" points="55.416,127.446 0.249,95.594 0.249,31.893 55.416,0.042 110.583,31.893 110.583,95.594 		"/>
	</g>
	<g enable-background="new    ">
		<g>
			<g>
				<path fill="#26FFAD" d="M55.415,10.123L8.909,36.934v53.621l46.505,26.808l46.509-26.808V36.934L55.415,10.123z M100.04,89.475
					l-44.625,25.729L10.788,89.475v-51.45l44.627-25.729l44.625,25.729V89.475z"/>
			</g>
		</g>
	</g>
	<g>
		<g>
			<path fill="#26FFAD" d="M82.789,90.695H26.91c-2.191,0-3.974-1.789-3.974-3.989V48.049c0-2.2,1.783-3.989,3.974-3.989h55.88
				c2.191,0,3.974,1.79,3.974,3.989v38.657C86.763,88.906,84.981,90.695,82.789,90.695z M26.91,45.2
				c-1.563,0-2.834,1.278-2.834,2.849v38.657c0,1.571,1.271,2.849,2.834,2.849h55.88c1.562,0,2.834-1.278,2.834-2.849V48.049
				c0-1.571-1.271-2.849-2.834-2.849H26.91z"/>
		</g>
	</g>
	<g>
		<g>
			<g>
				<path fill="#FFFFFF" d="M26.949,89.081c0.443,0,0.886,0,1.33,0c0.459,0,0.459-0.712,0-0.712c-0.443,0-0.886,0-1.33,0
					C26.49,88.369,26.49,89.081,26.949,89.081L26.949,89.081z"/>
			</g>
		</g>
	</g>
	<g>
		<g>
			<g>
				<path fill="#FFFFFF" d="M30.701,89.081c0.443,0,0.887,0,1.33,0c0.459,0,0.459-0.712,0-0.712c-0.443,0-0.887,0-1.33,0
					C30.241,88.369,30.241,89.081,30.701,89.081L30.701,89.081z"/>
			</g>
		</g>
	</g>
	<g>
		<g>
			<g>
				<path fill="#FFFFFF" d="M34.452,89.081c0.443,0,0.887,0,1.33,0c0.459,0,0.459-0.712,0-0.712c-0.443,0-0.887,0-1.33,0
					C33.993,88.369,33.993,89.081,34.452,89.081L34.452,89.081z"/>
			</g>
		</g>
	</g>
	<g>
		<g>
			<g>
				<path fill="#FFFFFF" d="M38.204,89.081c0.443,0,0.886,0,1.33,0c0.459,0,0.459-0.712,0-0.712c-0.443,0-0.886,0-1.33,0
					C37.745,88.369,37.745,89.081,38.204,89.081L38.204,89.081z"/>
			</g>
		</g>
	</g>
	<g>
		<g>
			<g>
				<path fill="#FFFFFF" d="M41.956,89.081c0.443,0,0.886,0,1.33,0c0.459,0,0.459-0.712,0-0.712c-0.443,0-0.886,0-1.33,0
					C41.496,88.369,41.496,89.081,41.956,89.081L41.956,89.081z"/>
			</g>
		</g>
	</g>
	<g>
		<g>
			<g>
				<path fill="#FFFFFF" d="M45.707,89.081c0.443,0,0.887,0,1.33,0c0.459,0,0.459-0.712,0-0.712c-0.443,0-0.887,0-1.33,0
					C45.248,88.369,45.248,89.081,45.707,89.081L45.707,89.081z"/>
			</g>
		</g>
	</g>
	<g>
		<g>
			<g>
				<path fill="#FFFFFF" d="M49.459,89.081c0.443,0,0.887,0,1.33,0c0.459,0,0.459-0.712,0-0.712c-0.443,0-0.887,0-1.33,0
					C49,88.369,49,89.081,49.459,89.081L49.459,89.081z"/>
			</g>
		</g>
	</g>
	<g>
		<g>
			<g>
				<path fill="#FFFFFF" d="M53.211,89.081c0.443,0,0.886,0,1.33,0c0.459,0,0.459-0.712,0-0.712c-0.443,0-0.886,0-1.33,0
					C52.752,88.369,52.752,89.081,53.211,89.081L53.211,89.081z"/>
			</g>
		</g>
	</g>
	<g>
		<g>
			<g>
				<path fill="#FFFFFF" d="M56.963,89.081c0.443,0,0.886,0,1.33,0c0.459,0,0.459-0.712,0-0.712c-0.443,0-0.886,0-1.33,0
					C56.503,88.369,56.503,89.081,56.963,89.081L56.963,89.081z"/>
			</g>
		</g>
	</g>
	<g>
		<g>
			<g>
				<path fill="#FFFFFF" d="M60.714,89.081c0.443,0,0.886,0,1.33,0c0.459,0,0.459-0.712,0-0.712c-0.443,0-0.886,0-1.33,0
					C60.255,88.369,60.255,89.081,60.714,89.081L60.714,89.081z"/>
			</g>
		</g>
	</g>
	<g>
		<g>
			<g>
				<path fill="#FFFFFF" d="M64.466,89.081c0.443,0,0.886,0,1.33,0c0.459,0,0.459-0.712,0-0.712c-0.443,0-0.886,0-1.33,0
					C64.006,88.369,64.006,89.081,64.466,89.081L64.466,89.081z"/>
			</g>
		</g>
	</g>
	<g>
		<g>
			<g>
				<path fill="#FFFFFF" d="M68.217,89.081c0.443,0,0.886,0,1.33,0c0.459,0,0.459-0.712,0-0.712c-0.443,0-0.886,0-1.33,0
					C67.758,88.369,67.758,89.081,68.217,89.081L68.217,89.081z"/>
			</g>
		</g>
	</g>
	<g>
		<g>
			<g>
				<path fill="#FFFFFF" d="M71.969,89.081c0.443,0,0.886,0,1.33,0c0.459,0,0.459-0.712,0-0.712c-0.443,0-0.886,0-1.33,0
					C71.509,88.369,71.509,89.081,71.969,89.081L71.969,89.081z"/>
			</g>
		</g>
	</g>
	<g>
		<g>
			<g>
				<path fill="#FFFFFF" d="M75.72,89.081c0.443,0,0.886,0,1.33,0c0.459,0,0.459-0.712,0-0.712c-0.443,0-0.886,0-1.33,0
					C75.261,88.369,75.261,89.081,75.72,89.081L75.72,89.081z"/>
			</g>
		</g>
	</g>
	<g>
		<g>
			<g>
				<path fill="#FFFFFF" d="M79.472,89.081c0.443,0,0.886,0,1.33,0c0.459,0,0.459-0.712,0-0.712c-0.443,0-0.886,0-1.33,0
					C79.012,88.369,79.012,89.081,79.472,89.081L79.472,89.081z"/>
			</g>
		</g>
	</g>
	<g>
		<g>
			<g>
				<path fill="#FFFFFF" d="M83.072,88.747c0.332-0.233,0.693-0.418,1.045-0.617c0.399-0.227,0.041-0.842-0.36-0.615
					c-0.352,0.2-0.713,0.385-1.045,0.617C82.34,88.394,82.695,89.012,83.072,88.747L83.072,88.747z"/>
			</g>
		</g>
	</g>
	<g>
		<g>
			<g>
				<path fill="#FFFFFF" d="M84.531,86.018c0-0.491,0-0.981,0-1.472c0-0.459-0.712-0.459-0.712,0c0,0.491,0,0.981,0,1.472
					C83.819,86.477,84.531,86.477,84.531,86.018L84.531,86.018z"/>
			</g>
		</g>
	</g>
	<g>
		<g>
			<g>
				<path fill="#FFFFFF" d="M84.531,82.551c0-0.491,0-0.981,0-1.472c0-0.459-0.712-0.459-0.712,0c0,0.491,0,0.981,0,1.472
					C83.819,83.011,84.531,83.011,84.531,82.551L84.531,82.551z"/>
			</g>
		</g>
	</g>
	<g>
		<g>
			<g>
				<path fill="#FFFFFF" d="M84.531,79.085c0-0.491,0-0.981,0-1.472c0-0.459-0.712-0.459-0.712,0c0,0.491,0,0.981,0,1.472
					C83.819,79.544,84.531,79.544,84.531,79.085L84.531,79.085z"/>
			</g>
		</g>
	</g>
	<g>
		<g>
			<g>
				<path fill="#FFFFFF" d="M84.531,75.618c0-0.491,0-0.981,0-1.472c0-0.459-0.712-0.459-0.712,0c0,0.491,0,0.981,0,1.472
					C83.819,76.077,84.531,76.077,84.531,75.618L84.531,75.618z"/>
			</g>
		</g>
	</g>
	<g>
		<g>
			<g>
				<path fill="#FFFFFF" d="M84.531,72.151c0-0.491,0-0.981,0-1.472c0-0.459-0.712-0.459-0.712,0c0,0.491,0,0.981,0,1.472
					C83.819,72.611,84.531,72.611,84.531,72.151L84.531,72.151z"/>
			</g>
		</g>
	</g>
	<g>
		<g>
			<g>
				<path fill="#FFFFFF" d="M84.531,68.685c0-0.491,0-0.981,0-1.472c0-0.459-0.712-0.459-0.712,0c0,0.491,0,0.981,0,1.472
					C83.819,69.144,84.531,69.144,84.531,68.685L84.531,68.685z"/>
			</g>
		</g>
	</g>
	<g>
		<g>
			<g>
				<path fill="#FFFFFF" d="M84.531,65.218c0-0.491,0-0.981,0-1.472c0-0.459-0.712-0.459-0.712,0c0,0.491,0,0.981,0,1.472
					C83.819,65.678,84.531,65.678,84.531,65.218L84.531,65.218z"/>
			</g>
		</g>
	</g>
	<g>
		<g>
			<g>
				<path fill="#FFFFFF" d="M84.531,61.752c0-0.491,0-0.981,0-1.472c0-0.459-0.712-0.459-0.712,0c0,0.491,0,0.981,0,1.472
					C83.819,62.211,84.531,62.211,84.531,61.752L84.531,61.752z"/>
			</g>
		</g>
	</g>
	<g>
		<g>
			<g>
				<path fill="#FFFFFF" d="M84.531,58.285c0-0.491,0-0.981,0-1.472c0-0.459-0.712-0.459-0.712,0c0,0.491,0,0.981,0,1.472
					C83.819,58.744,84.531,58.744,84.531,58.285L84.531,58.285z"/>
			</g>
		</g>
	</g>
	<g>
		<g>
			<g>
				<path fill="#FFFFFF" d="M84.531,55.151c0-0.491,0-0.982,0-1.473c0-0.459-0.712-0.459-0.712,0c0,0.491,0,0.982,0,1.473
					C83.819,55.61,84.531,55.61,84.531,55.151L84.531,55.151z"/>
			</g>
		</g>
	</g>
	<g>
		<g>
			<g>
				<path fill="#FFFFFF" d="M84.531,52.349c0-0.491,0-0.981,0-1.472c0-0.459-0.712-0.459-0.712,0c0,0.491,0,0.981,0,1.472
					C83.819,52.808,84.531,52.808,84.531,52.349L84.531,52.349z"/>
			</g>
		</g>
	</g>
	<g>
		<g>
			<g>
				<path fill="#FFFFFF" d="M25.691,50.497c0-0.491,0-0.981,0-1.472c0-0.459-0.712-0.459-0.712,0c0,0.491,0,0.981,0,1.472
					C24.978,50.956,25.691,50.956,25.691,50.497L25.691,50.497z"/>
			</g>
		</g>
	</g>
	<g>
		<g>
			<g>
				<path fill="#FFFFFF" d="M25.596,53.299c0-0.491,0-0.981,0-1.472c0-0.459-0.712-0.459-0.712,0c0,0.491,0,0.981,0,1.472
					C24.883,53.758,25.596,53.758,25.596,53.299L25.596,53.299z"/>
			</g>
		</g>
	</g>
	<g>
		<g>
			<g>
				<path fill="#FFFFFF" d="M84.531,49.357c0-0.491,0-0.981,0-1.472c0-0.459-0.712-0.459-0.712,0c0,0.491,0,0.981,0,1.472
					C83.819,49.817,84.531,49.817,84.531,49.357L84.531,49.357z"/>
			</g>
		</g>
	</g>
	<g>
		<g>
			<g>
				<path fill="#FFFFFF" d="M82.489,46.104c-0.443,0-0.887,0-1.33,0c-0.459,0-0.459,0.712,0,0.712c0.443,0,0.887,0,1.33,0
					C82.949,46.816,82.949,46.104,82.489,46.104L82.489,46.104z"/>
			</g>
		</g>
	</g>
	<g>
		<g>
			<g>
				<path fill="#FFFFFF" d="M78.737,46.104c-0.443,0-0.886,0-1.33,0c-0.459,0-0.459,0.712,0,0.712c0.443,0,0.886,0,1.33,0
					C79.197,46.816,79.197,46.104,78.737,46.104L78.737,46.104z"/>
			</g>
		</g>
	</g>
	<g>
		<g>
			<g>
				<path fill="#FFFFFF" d="M74.986,46.104c-0.443,0-0.887,0-1.33,0c-0.459,0-0.459,0.712,0,0.712c0.443,0,0.887,0,1.33,0
					C75.445,46.816,75.445,46.104,74.986,46.104L74.986,46.104z"/>
			</g>
		</g>
	</g>
	<g>
		<g>
			<g>
				<path fill="#FFFFFF" d="M71.234,46.104c-0.443,0-0.886,0-1.33,0c-0.459,0-0.459,0.712,0,0.712c0.443,0,0.886,0,1.33,0
					C71.693,46.816,71.693,46.104,71.234,46.104L71.234,46.104z"/>
			</g>
		</g>
	</g>
	<g>
		<g>
			<g>
				<path fill="#FFFFFF" d="M67.483,46.104c-0.443,0-0.887,0-1.33,0c-0.459,0-0.459,0.712,0,0.712c0.443,0,0.887,0,1.33,0
					C67.942,46.816,67.942,46.104,67.483,46.104L67.483,46.104z"/>
			</g>
		</g>
	</g>
	<g>
		<g>
			<g>
				<path fill="#FFFFFF" d="M63.731,46.104c-0.443,0-0.886,0-1.33,0c-0.459,0-0.459,0.712,0,0.712c0.443,0,0.886,0,1.33,0
					C64.19,46.816,64.19,46.104,63.731,46.104L63.731,46.104z"/>
			</g>
		</g>
	</g>
	<g>
		<g>
			<g>
				<path fill="#FFFFFF" d="M59.979,46.104c-0.443,0-0.887,0-1.33,0c-0.459,0-0.459,0.712,0,0.712c0.443,0,0.887,0,1.33,0
					C60.439,46.816,60.439,46.104,59.979,46.104L59.979,46.104z"/>
			</g>
		</g>
	</g>
	<g>
		<g>
			<g>
				<path fill="#FFFFFF" d="M56.227,46.104c-0.443,0-0.886,0-1.33,0c-0.459,0-0.459,0.712,0,0.712c0.443,0,0.886,0,1.33,0
					C56.687,46.816,56.687,46.104,56.227,46.104L56.227,46.104z"/>
			</g>
		</g>
	</g>
	<g>
		<g>
			<g>
				<path fill="#FFFFFF" d="M52.476,46.104c-0.443,0-0.886,0-1.33,0c-0.459,0-0.459,0.712,0,0.712c0.443,0,0.886,0,1.33,0
					C52.935,46.816,52.935,46.104,52.476,46.104L52.476,46.104z"/>
			</g>
		</g>
	</g>
	<g>
		<g>
			<g>
				<path fill="#FFFFFF" d="M48.724,46.104c-0.443,0-0.886,0-1.33,0c-0.459,0-0.459,0.712,0,0.712c0.443,0,0.886,0,1.33,0
					C49.184,46.816,49.184,46.104,48.724,46.104L48.724,46.104z"/>
			</g>
		</g>
	</g>
	<g>
		<g>
			<g>
				<path fill="#FFFFFF" d="M44.973,46.104c-0.443,0-0.886,0-1.33,0c-0.459,0-0.459,0.712,0,0.712c0.443,0,0.886,0,1.33,0
					C45.432,46.816,45.432,46.104,44.973,46.104L44.973,46.104z"/>
			</g>
		</g>
	</g>
	<g>
		<g>
			<g>
				<path fill="#FFFFFF" d="M41.221,46.104c-0.443,0-0.886,0-1.33,0c-0.459,0-0.459,0.712,0,0.712c0.443,0,0.886,0,1.33,0
					C41.681,46.816,41.681,46.104,41.221,46.104L41.221,46.104z"/>
			</g>
		</g>
	</g>
	<g>
		<g>
			<g>
				<path fill="#FFFFFF" d="M37.47,46.104c-0.443,0-0.886,0-1.33,0c-0.459,0-0.459,0.712,0,0.712c0.443,0,0.886,0,1.33,0
					C37.929,46.816,37.929,46.104,37.47,46.104L37.47,46.104z"/>
			</g>
		</g>
	</g>
	<g>
		<g>
			<g>
				<path fill="#FFFFFF" d="M33.718,46.104c-0.443,0-0.886,0-1.33,0c-0.459,0-0.459,0.712,0,0.712c0.443,0,0.886,0,1.33,0
					C34.178,46.816,34.178,46.104,33.718,46.104L33.718,46.104z"/>
			</g>
		</g>
	</g>
	<g>
		<g>
			<g>
				<path fill="#FFFFFF" d="M29.967,46.104c-0.443,0-0.886,0-1.33,0c-0.459,0-0.459,0.712,0,0.712c0.443,0,0.886,0,1.33,0
					C30.426,46.816,30.426,46.104,29.967,46.104L29.967,46.104z"/>
			</g>
		</g>
	</g>
	<g>
		<g>
			<g>
				<path fill="#FFFFFF" d="M26.366,46.438c-0.332,0.233-0.693,0.418-1.045,0.617c-0.399,0.227-0.041,0.842,0.36,0.615
					c0.352-0.2,0.713-0.385,1.045-0.617C27.099,46.791,26.743,46.173,26.366,46.438L26.366,46.438z"/>
			</g>
		</g>
	</g>
	<g>
		<g>
			<g>
				<path fill="#FFFFFF" d="M24.907,54.628c0,0.491,0,0.981,0,1.472c0,0.459,0.712,0.459,0.712,0c0-0.491,0-0.981,0-1.472
					C25.62,54.169,24.907,54.169,24.907,54.628L24.907,54.628z"/>
			</g>
		</g>
	</g>
	<g>
		<g>
			<g>
				<path fill="#FFFFFF" d="M24.907,58.095c0,0.491,0,0.981,0,1.472c0,0.459,0.712,0.459,0.712,0c0-0.491,0-0.981,0-1.472
					C25.62,57.636,24.907,57.636,24.907,58.095L24.907,58.095z"/>
			</g>
		</g>
	</g>
	<g>
		<g>
			<g>
				<path fill="#FFFFFF" d="M24.907,61.562c0,0.491,0,0.981,0,1.472c0,0.459,0.712,0.459,0.712,0c0-0.491,0-0.981,0-1.472
					C25.62,61.102,24.907,61.102,24.907,61.562L24.907,61.562z"/>
			</g>
		</g>
	</g>
	<g>
		<g>
			<g>
				<path fill="#FFFFFF" d="M24.907,65.028c0,0.491,0,0.981,0,1.472c0,0.459,0.712,0.459,0.712,0c0-0.491,0-0.981,0-1.472
					C25.62,64.569,24.907,64.569,24.907,65.028L24.907,65.028z"/>
			</g>
		</g>
	</g>
	<g>
		<g>
			<g>
				<path fill="#FFFFFF" d="M24.907,68.495c0,0.491,0,0.981,0,1.472c0,0.459,0.712,0.459,0.712,0c0-0.491,0-0.981,0-1.472
					C25.62,68.035,24.907,68.035,24.907,68.495L24.907,68.495z"/>
			</g>
		</g>
	</g>
	<g>
		<g>
			<g>
				<path fill="#FFFFFF" d="M24.907,71.961c0,0.491,0,0.981,0,1.472c0,0.459,0.712,0.459,0.712,0c0-0.491,0-0.981,0-1.472
					C25.62,71.502,24.907,71.502,24.907,71.961L24.907,71.961z"/>
			</g>
		</g>
	</g>
	<g>
		<g>
			<g>
				<path fill="#FFFFFF" d="M24.907,75.428c0,0.491,0,0.981,0,1.472c0,0.459,0.712,0.459,0.712,0c0-0.491,0-0.981,0-1.472
					C25.62,74.969,24.907,74.969,24.907,75.428L24.907,75.428z"/>
			</g>
		</g>
	</g>
	<g>
		<g>
			<g>
				<path fill="#FFFFFF" d="M24.907,78.895c0,0.491,0,0.981,0,1.472c0,0.459,0.712,0.459,0.712,0c0-0.491,0-0.981,0-1.472
					C25.62,78.435,24.907,78.435,24.907,78.895L24.907,78.895z"/>
			</g>
		</g>
	</g>
	<g>
		<g>
			<g>
				<path fill="#FFFFFF" d="M24.907,82.361c0,0.491,0,0.981,0,1.472c0,0.459,0.712,0.459,0.712,0c0-0.491,0-0.981,0-1.472
					C25.62,81.902,24.907,81.902,24.907,82.361L24.907,82.361z"/>
			</g>
		</g>
	</g>
	<g>
		<g>
			<g>
				<path fill="#FFFFFF" d="M24.907,85.828c0,0.491,0,0.981,0,1.472c0,0.459,0.712,0.459,0.712,0c0-0.491,0-0.981,0-1.472
					C25.62,85.368,24.907,85.368,24.907,85.828L24.907,85.828z"/>
			</g>
		</g>
	</g>
	<g>
		<g>
			<g>
				<path fill="#FFFFFF" d="M31.687,69.538c0.139,0.555,0.288,1.107,0.427,1.662c0.112,0.445,0.799,0.256,0.687-0.189
					c-0.139-0.555-0.288-1.107-0.427-1.662C32.262,68.904,31.575,69.093,31.687,69.538L31.687,69.538z"/>
			</g>
		</g>
	</g>
	<g>
		<g>
			<g>
				<path fill="#FFFFFF" d="M32.542,72.91c0.102,0.524,0.278,1.025,0.475,1.52c0.167,0.422,0.856,0.238,0.687-0.189
					c-0.196-0.495-0.373-0.996-0.475-1.52C33.141,72.27,32.455,72.461,32.542,72.91L32.542,72.91z"/>
			</g>
		</g>
	</g>
	<g>
		<g>
			<g>
				<path fill="#FFFFFF" d="M33.813,76.367c0.215,0.418,0.487,0.805,0.76,1.187c0.264,0.37,0.883,0.015,0.615-0.36
					c-0.273-0.382-0.545-0.769-0.76-1.187C34.218,75.599,33.604,75.959,33.813,76.367L33.813,76.367z"/>
			</g>
		</g>
	</g>
	<g>
		<g>
			<g>
				<path fill="#FFFFFF" d="M35.428,79.216c0.206,0.358,0.426,0.708,0.665,1.045c0.263,0.371,0.881,0.016,0.615-0.36
					c-0.239-0.337-0.459-0.686-0.665-1.045C35.814,78.459,35.198,78.817,35.428,79.216L35.428,79.216z"/>
			</g>
		</g>
	</g>
	<g>
		<g>
			<g>
				<path fill="#FFFFFF" d="M36.947,81.591c0.19,0.327,0.407,0.636,0.617,0.95c0.254,0.38,0.872,0.023,0.615-0.36
					c-0.21-0.314-0.428-0.623-0.617-0.95C37.332,80.834,36.716,81.193,36.947,81.591L36.947,81.591z"/>
			</g>
		</g>
	</g>
	<g>
		<g>
			<g>
				<path fill="#FFFFFF" d="M38.618,83.658c0.34,0.435,0.706,0.834,1.164,1.148c0.38,0.26,0.736-0.357,0.36-0.615
					c-0.404-0.276-0.721-0.654-1.02-1.037c-0.12-0.153-0.379-0.125-0.504,0C38.468,83.304,38.498,83.505,38.618,83.658
					L38.618,83.658z"/>
			</g>
		</g>
	</g>
	<g>
		<g>
			<g>
				<path fill="#FFFFFF" d="M41.054,85.411c0.358,0.051,0.732,0.122,1.091,0.048c0.45-0.093,0.259-0.78-0.189-0.687
					c-0.197,0.041-0.492-0.016-0.713-0.048c-0.192-0.027-0.382,0.044-0.438,0.249C40.759,85.142,40.861,85.384,41.054,85.411
					L41.054,85.411z"/>
			</g>
		</g>
	</g>
	<g>
		<g>
			<g>
				<path fill="#FFFFFF" d="M43.348,84.655c0.198-0.244,0.419-0.468,0.617-0.712c0.122-0.151,0.148-0.356,0-0.504
					c-0.127-0.127-0.381-0.151-0.504,0c-0.198,0.244-0.419,0.468-0.617,0.712c-0.122,0.151-0.148,0.356,0,0.504
					C42.971,84.781,43.225,84.806,43.348,84.655L43.348,84.655z"/>
			</g>
		</g>
	</g>
	<g>
		<g>
			<g>
				<path fill="#FFFFFF" d="M45.057,82.755c0.259-0.262,0.503-0.551,0.673-0.879c0.211-0.407-0.403-0.767-0.615-0.36
					c-0.144,0.279-0.342,0.513-0.562,0.735C44.231,82.578,44.734,83.082,45.057,82.755L45.057,82.755z"/>
			</g>
		</g>
	</g>
	<g>
		<g>
			<g>
				<path fill="#FFFFFF" d="M46.68,80.879c0.237-0.333,0.475-0.665,0.712-0.997c0.113-0.158,0.028-0.396-0.128-0.487
					c-0.179-0.105-0.375-0.03-0.487,0.128c-0.237,0.333-0.475,0.665-0.712,0.997c-0.113,0.158-0.028,0.396,0.128,0.487
					C46.372,81.111,46.568,81.036,46.68,80.879L46.68,80.879z"/>
			</g>
		</g>
	</g>
	<g>
		<g>
			<g>
				<path fill="#FFFFFF" d="M48.39,78.599c0.219-0.35,0.437-0.703,0.704-1.02c0.294-0.349-0.207-0.855-0.504-0.504
					c-0.307,0.364-0.564,0.761-0.816,1.164C47.531,78.63,48.147,78.987,48.39,78.599L48.39,78.599z"/>
			</g>
		</g>
	</g>
	<g>
		<g>
			<g>
				<path fill="#FFFFFF" d="M49.767,76.462c0.245-0.349,0.454-0.722,0.665-1.092c0.228-0.4-0.387-0.758-0.615-0.36
					c-0.211,0.37-0.42,0.743-0.665,1.092C48.887,76.479,49.505,76.835,49.767,76.462L49.767,76.462z"/>
			</g>
		</g>
	</g>
	<g>
		<g>
			<g>
				<path fill="#FFFFFF" d="M50.99,74.002c0.046-0.274,0.104-0.543,0.19-0.807c0.143-0.438-0.545-0.624-0.687-0.189
					c-0.086,0.264-0.144,0.533-0.19,0.808c-0.032,0.191,0.048,0.383,0.249,0.438C50.725,74.299,50.958,74.194,50.99,74.002
					L50.99,74.002z"/>
			</g>
		</g>
	</g>
	<g>
		<g>
			<g>
				<path fill="#26FFAD" d="M32.824,66.704c1.985,2.527,5.161,3.69,8.19,4.411c3.145,0.749,6.698,1.099,9.822,0.097
					c0.436-0.14,0.249-0.828-0.189-0.687c-3.03,0.971-6.395,0.582-9.444-0.097c-2.916-0.649-5.979-1.812-7.876-4.228
					C33.044,65.839,32.543,66.347,32.824,66.704L32.824,66.704z"/>
			</g>
		</g>
	</g>
	<g>
		<g>
			<g>
				<path fill="#26FFAD" d="M34.606,67.591c1.111-2.927,5.551-2.935,8.127-2.756c3.617,0.252,7.225,2.168,6.431,6.318
					c-0.086,0.449,0.6,0.64,0.687,0.189c0.845-4.416-2.587-6.684-6.557-7.167c-3.059-0.372-8.071-0.209-9.374,3.226
					C33.756,67.832,34.445,68.016,34.606,67.591L34.606,67.591z"/>
			</g>
		</g>
	</g>
	<g>
		<g>
			<g>
				<path fill="#26FFAD" d="M27.187,62.154c18.125,0,36.251,0,54.376,0c0.459,0,0.459-0.712,0-0.712c-0.032,0-0.063,0-0.095,0
					c-0.459,0-0.459,0.712,0,0.712c0.032,0,0.063,0,0.095,0c0.459,0,0.459-0.712,0-0.712c-18.125,0-36.251,0-54.376,0
					C26.727,61.441,26.727,62.154,27.187,62.154L27.187,62.154z"/>
			</g>
		</g>
	</g>
	<g>
		<g>
			<g>
				<path fill="#26FFAD" d="M81.302,61.038c0,0.396,0,0.791,0,1.187c0,0.459,0.712,0.459,0.712,0c0-0.396,0-0.791,0-1.187
					C82.014,60.578,81.302,60.578,81.302,61.038L81.302,61.038z"/>
			</g>
		</g>
	</g>
	<g>
		<g>
			<g>
				<path fill="#26FFAD" d="M26.973,61.513c0,0.475,0,0.95,0,1.425c0,0.459,0.712,0.459,0.712,0c0-0.475,0-0.95,0-1.425
					C27.685,61.053,26.973,61.053,26.973,61.513L26.973,61.513z"/>
			</g>
		</g>
	</g>
	<g>
		<g>
			<g>
				<path fill="#26FFAD" d="M77.669,54.959H33.693c-2.042,0-3.704,1.662-3.704,3.704v2.897h0c0.226,0,0.413,0.058,0.57,0.15v-3.047
					c0-1.728,1.406-3.134,3.134-3.134h43.976c1.728,0,3.134,1.406,3.134,3.134v3.293c0.15-0.112,0.342-0.18,0.57-0.197v-3.096
					C81.373,56.621,79.711,54.959,77.669,54.959z"/>
			</g>
		</g>
	</g>
	<g>
		<g>
			<g>
				<path fill="#26FFAD" d="M26.617,54.175c18.126,0,36.251,0,54.376,0c0.459,0,0.459-0.712,0-0.712c-0.032,0-0.063,0-0.095,0
					c-0.459,0-0.459,0.712,0,0.712c0.032,0,0.063,0,0.095,0c0.459,0,0.459-0.712,0-0.712c-18.125,0-36.251,0-54.376,0
					C26.157,53.463,26.157,54.175,26.617,54.175L26.617,54.175z"/>
			</g>
		</g>
	</g>
	<g>
		<g>
			<g>
				<path fill="#26FFAD" d="M80.732,53.06c0,0.396,0,0.791,0,1.187c0,0.459,0.712,0.459,0.712,0c0-0.396,0-0.791,0-1.187
					C81.444,52.6,80.732,52.6,80.732,53.06L80.732,53.06z"/>
			</g>
		</g>
	</g>
	<g>
		<g>
			<g>
				<path fill="#26FFAD" d="M26.403,53.534c0,0.475,0,0.95,0,1.425c0,0.459,0.712,0.459,0.712,0c0-0.475,0-0.95,0-1.425
					C27.116,53.075,26.403,53.075,26.403,53.534L26.403,53.534z"/>
			</g>
		</g>
	</g>
	<g>
		<g>
			<g>
				<path fill="#26FFAD" d="M77.099,48.738H33.123c-2.042,0-3.704,1.662-3.704,3.704v1.332c0.18-0.073,0.376-0.093,0.57-0.096
					v-1.236c0-1.729,1.406-3.134,3.134-3.134h43.976c1.728,0,3.134,1.406,3.134,3.134v1.257c0.19-0.04,0.383-0.056,0.57-0.049
					v-1.208C80.803,50.4,79.141,48.738,77.099,48.738z"/>
			</g>
		</g>
	</g>
	<g>
		<g>
			
				<rect x="48.925" y="42.255" transform="matrix(0.9894 -0.1455 0.1455 0.9894 -5.515 9.6851)" fill="#26FFAD" width="29.041" height="0.57"/>
		</g>
	</g>
	<g>
		<g>
			<g>
				
					<rect x="77.74" y="40.425" transform="matrix(0.9878 -0.1554 0.1554 0.9878 -5.6675 12.6446)" fill="#26FFAD" width="0.57" height="4.279"/>
			</g>
		</g>
	</g>
	<g>
		<g>
			
				<rect x="43.94" y="40.071" transform="matrix(0.9709 -0.2393 0.2393 0.9709 -7.9195 15.4868)" fill="#26FFAD" width="31.748" height="0.57"/>
		</g>
	</g>
	<g>
		<g>
			<g>
				
					<rect x="75.36" y="36.524" transform="matrix(0.9684 -0.2495 0.2495 0.9684 -7.2537 20.0942)" fill="#26FFAD" width="0.57" height="4.279"/>
			</g>
		</g>
	</g>
	<g>
		<g>
			
				<rect x="38.687" y="38.191" transform="matrix(0.9446 -0.3282 0.3282 0.9446 -9.5093 20.6144)" fill="#26FFAD" width="35.243" height="0.57"/>
		</g>
	</g>
	<g>
		<g>
			<g>
				
					<rect x="73.268" y="32.612" transform="matrix(0.943 -0.3327 0.3327 0.943 -7.3719 26.4529)" fill="#26FFAD" width="0.57" height="4.279"/>
			</g>
		</g>
	</g>
	<g>
		<g>
			<path fill="#FFFFFF" d="M8.663,34.045l-1.494-2.597l0.39-0.225c0.174-0.1,0.32-0.166,0.439-0.199
				c0.12-0.033,0.234-0.038,0.342-0.016c0.111,0.024,0.216,0.073,0.316,0.147c0.101,0.075,0.181,0.163,0.24,0.265
				c0.107,0.186,0.127,0.385,0.058,0.595c0.165-0.032,0.321-0.013,0.469,0.06c0.148,0.07,0.266,0.183,0.355,0.337
				c0.117,0.203,0.144,0.416,0.081,0.639c-0.037,0.136-0.1,0.252-0.188,0.348c-0.099,0.1-0.237,0.201-0.414,0.303L8.663,34.045z
				 M8.203,32.337l0.123-0.071c0.146-0.084,0.234-0.177,0.265-0.281c0.031-0.104,0.01-0.218-0.062-0.344
				c-0.07-0.122-0.158-0.195-0.265-0.218c-0.106-0.024-0.225,0.003-0.357,0.079l-0.138,0.079L8.203,32.337z M8.843,33.451
				l0.242-0.139c0.177-0.102,0.287-0.211,0.33-0.329c0.045-0.125,0.033-0.246-0.033-0.361c-0.065-0.112-0.161-0.182-0.289-0.21
				c-0.125-0.028-0.293,0.019-0.504,0.14l-0.198,0.114L8.843,33.451z"/>
			<path fill="#FFFFFF" d="M11.7,31.326l-1.174,0.675c0.087,0.129,0.193,0.211,0.316,0.246c0.122,0.034,0.244,0.016,0.365-0.053
				c0.094-0.054,0.159-0.121,0.195-0.202c0.035-0.08,0.056-0.203,0.064-0.368l0.422-0.005c-0.001,0.112-0.012,0.215-0.032,0.306
				c-0.02,0.092-0.051,0.175-0.091,0.25c-0.041,0.075-0.092,0.142-0.155,0.202c-0.063,0.06-0.137,0.114-0.222,0.163
				c-0.245,0.141-0.486,0.175-0.724,0.103c-0.239-0.073-0.434-0.24-0.584-0.501c-0.149-0.259-0.198-0.51-0.147-0.753
				c0.054-0.242,0.2-0.431,0.439-0.568c0.241-0.139,0.476-0.171,0.704-0.099c0.227,0.072,0.418,0.244,0.574,0.514L11.7,31.326z
				 M11.133,31.24c-0.169-0.172-0.354-0.199-0.556-0.083c-0.046,0.026-0.085,0.058-0.117,0.095
				c-0.032,0.037-0.057,0.079-0.075,0.124c-0.018,0.046-0.028,0.094-0.03,0.144c-0.002,0.05,0.004,0.103,0.019,0.157L11.133,31.24z"
				/>
			<path fill="#FFFFFF" d="M12.704,29.911l-0.217,0.347c-0.107-0.073-0.198-0.088-0.27-0.046c-0.035,0.02-0.058,0.049-0.069,0.086
				c-0.012,0.037-0.007,0.073,0.014,0.109c0.036,0.063,0.145,0.083,0.326,0.061c0.25-0.029,0.431-0.027,0.543,0.006
				c0.112,0.033,0.203,0.111,0.274,0.235c0.091,0.158,0.109,0.324,0.053,0.498c-0.055,0.166-0.163,0.295-0.323,0.387
				c-0.275,0.158-0.546,0.136-0.815-0.066l0.237-0.336c0.09,0.053,0.153,0.083,0.189,0.091c0.071,0.016,0.138,0.006,0.202-0.031
				c0.128-0.074,0.158-0.169,0.091-0.286c-0.039-0.067-0.124-0.102-0.257-0.103c-0.049,0.003-0.097,0.007-0.146,0.011
				c-0.048,0.004-0.098,0.008-0.148,0.011c-0.141,0.009-0.249,0-0.325-0.028c-0.097-0.036-0.176-0.107-0.238-0.215
				c-0.082-0.143-0.101-0.289-0.057-0.438c0.046-0.151,0.141-0.267,0.283-0.349C12.259,29.735,12.477,29.754,12.704,29.911z"/>
			<path fill="#FFFFFF" d="M13.582,29.505l0.739,1.285l-0.378,0.218l-0.739-1.285l-0.161,0.093l-0.203-0.353l0.161-0.093
				l-0.345-0.601l0.378-0.218l0.345,0.601l0.294-0.169l0.203,0.353L13.582,29.505z"/>
			<path fill="#FFFFFF" d="M14.907,26.997l0.9,1.564c0.128,0.223,0.258,0.365,0.391,0.427c0.194,0.087,0.39,0.073,0.588-0.041
				c0.199-0.114,0.309-0.277,0.332-0.489c0.015-0.142-0.042-0.326-0.172-0.552l-0.9-1.564l0.392-0.225l0.962,1.672
				c0.158,0.274,0.202,0.548,0.134,0.823c-0.078,0.308-0.257,0.542-0.536,0.702c-0.279,0.161-0.571,0.197-0.875,0.11
				c-0.272-0.079-0.487-0.255-0.645-0.529l-0.962-1.672L14.907,26.997z"/>
			<path fill="#FFFFFF" d="M18.652,26.49l-0.217,0.347c-0.107-0.073-0.197-0.088-0.27-0.046c-0.035,0.02-0.058,0.049-0.069,0.086
				c-0.012,0.037-0.007,0.074,0.014,0.11c0.036,0.063,0.145,0.083,0.326,0.061c0.25-0.029,0.431-0.027,0.543,0.006
				c0.112,0.033,0.203,0.111,0.274,0.235c0.091,0.158,0.109,0.324,0.053,0.498c-0.055,0.166-0.163,0.295-0.323,0.387
				c-0.275,0.158-0.547,0.136-0.815-0.066l0.237-0.336c0.09,0.052,0.153,0.083,0.189,0.091c0.07,0.016,0.138,0.006,0.202-0.031
				c0.127-0.073,0.158-0.169,0.091-0.286c-0.039-0.067-0.124-0.102-0.256-0.103c-0.049,0.003-0.098,0.007-0.146,0.01
				c-0.048,0.004-0.098,0.008-0.148,0.011c-0.141,0.009-0.249,0-0.325-0.028c-0.097-0.036-0.176-0.107-0.238-0.215
				c-0.082-0.142-0.101-0.288-0.057-0.437c0.046-0.151,0.141-0.267,0.283-0.349C18.207,26.313,18.425,26.332,18.652,26.49z"/>
			<path fill="#FFFFFF" d="M20.951,26.004l-1.174,0.675c0.088,0.129,0.193,0.211,0.316,0.246c0.122,0.034,0.244,0.016,0.366-0.053
				c0.094-0.054,0.159-0.122,0.195-0.202c0.035-0.08,0.056-0.202,0.064-0.368l0.422-0.006c-0.001,0.112-0.012,0.215-0.032,0.306
				c-0.02,0.092-0.051,0.175-0.091,0.25c-0.041,0.075-0.092,0.142-0.155,0.202c-0.063,0.06-0.137,0.114-0.222,0.163
				c-0.244,0.141-0.486,0.175-0.724,0.104c-0.239-0.073-0.434-0.24-0.584-0.501c-0.149-0.259-0.198-0.51-0.147-0.753
				c0.054-0.242,0.2-0.431,0.439-0.568c0.241-0.139,0.476-0.171,0.705-0.099c0.227,0.072,0.418,0.244,0.574,0.514L20.951,26.004z
				 M20.385,25.918c-0.169-0.171-0.354-0.199-0.556-0.083c-0.046,0.026-0.085,0.058-0.117,0.096
				c-0.032,0.037-0.057,0.078-0.075,0.124c-0.018,0.046-0.028,0.093-0.03,0.144c-0.002,0.051,0.004,0.103,0.019,0.157L20.385,25.918
				z"/>
			<path fill="#FFFFFF" d="M22.292,25.098c-0.136-0.237-0.167-0.486-0.093-0.75c0.074-0.263,0.233-0.465,0.476-0.605
				c0.245-0.141,0.5-0.176,0.767-0.107c0.264,0.07,0.467,0.227,0.606,0.471c0.141,0.246,0.175,0.5,0.101,0.763
				c-0.076,0.263-0.237,0.466-0.485,0.608c-0.246,0.141-0.5,0.176-0.763,0.103C22.64,25.51,22.437,25.349,22.292,25.098z
				 M22.683,24.882c0.094,0.164,0.213,0.268,0.355,0.313c0.145,0.045,0.291,0.025,0.438-0.059c0.148-0.085,0.239-0.201,0.273-0.347
				c0.034-0.146,0.004-0.299-0.087-0.458c-0.092-0.159-0.209-0.261-0.353-0.305c-0.145-0.045-0.291-0.025-0.438,0.059
				c-0.145,0.083-0.234,0.199-0.268,0.347C22.569,24.58,22.596,24.73,22.683,24.882z"/>
			<path fill="#FFFFFF" d="M24.571,23.183l0.74,1.285l-0.38,0.219l-0.74-1.285l-0.134,0.077l-0.203-0.353l0.134-0.077l-0.364-0.632
				c-0.119-0.206-0.167-0.373-0.144-0.5c0.03-0.175,0.139-0.317,0.328-0.426c0.067-0.039,0.163-0.068,0.288-0.087l0.222,0.387
				l-0.05,0.002c-0.106,0.006-0.185,0.023-0.238,0.054c-0.067,0.038-0.099,0.089-0.095,0.15c0.004,0.061,0.044,0.158,0.121,0.293
				l0.311,0.54l0.412-0.237l0.203,0.353L24.571,23.183z"/>
			<path fill="#FFFFFF" d="M25.71,20.781l1.675,1.347l-0.365-2.268l1.747,1.473l-0.28-2.149l0.425-0.245l0.428,3.429l-1.726-1.456
				l0.363,2.242l-2.693-2.129L25.71,20.781z"/>
			<path fill="#FFFFFF" d="M30.923,19.059l0.38-0.219l0.942,1.638l-0.38,0.219l-0.099-0.171c-0.072,0.235-0.198,0.404-0.377,0.508
				c-0.227,0.13-0.461,0.156-0.703,0.078c-0.243-0.083-0.437-0.249-0.58-0.499c-0.141-0.245-0.186-0.493-0.133-0.74
				c0.053-0.248,0.19-0.436,0.41-0.563c0.19-0.11,0.407-0.129,0.648-0.059L30.923,19.059z M30.493,20.389
				c0.091,0.157,0.206,0.261,0.347,0.311c0.144,0.05,0.281,0.038,0.412-0.038c0.14-0.081,0.226-0.194,0.257-0.341
				c0.029-0.149-0.001-0.301-0.089-0.454c-0.088-0.154-0.204-0.255-0.348-0.306c-0.142-0.048-0.283-0.032-0.42,0.047
				c-0.13,0.075-0.21,0.187-0.241,0.336C30.381,20.095,30.408,20.243,30.493,20.389z"/>
			<path fill="#FFFFFF" d="M31.467,17.145l1.634,2.841l-0.378,0.218l-1.634-2.841L31.467,17.145z"/>
			<path fill="#FFFFFF" d="M32.325,16.651l1.635,2.841l-0.378,0.218l-1.635-2.841L32.325,16.651z"/>
			<path fill="#FFFFFF" d="M35.511,17.628l-1.174,0.675c0.087,0.129,0.193,0.211,0.316,0.246c0.123,0.034,0.245,0.016,0.366-0.053
				c0.094-0.054,0.159-0.121,0.195-0.202c0.035-0.08,0.056-0.203,0.064-0.368l0.422-0.006c-0.001,0.112-0.012,0.215-0.032,0.306
				c-0.02,0.092-0.051,0.175-0.091,0.25c-0.041,0.075-0.092,0.142-0.155,0.202c-0.062,0.06-0.136,0.114-0.221,0.163
				c-0.245,0.141-0.486,0.175-0.724,0.103c-0.239-0.073-0.434-0.24-0.584-0.501c-0.149-0.259-0.198-0.51-0.146-0.753
				c0.054-0.242,0.2-0.431,0.439-0.568c0.241-0.139,0.476-0.172,0.705-0.099c0.227,0.072,0.418,0.244,0.574,0.514L35.511,17.628z
				 M34.944,17.542c-0.169-0.172-0.354-0.199-0.556-0.083c-0.046,0.026-0.085,0.058-0.117,0.096
				c-0.032,0.037-0.058,0.079-0.075,0.124c-0.018,0.045-0.028,0.093-0.03,0.144c-0.002,0.05,0.004,0.103,0.019,0.157L34.944,17.542z
				"/>
			<path fill="#FFFFFF" d="M35.995,16.611l0.74,1.285l-0.378,0.218l-0.74-1.285l-0.161,0.093l-0.203-0.353l0.161-0.093l-0.345-0.601
				l0.378-0.218l0.345,0.601l0.294-0.169l0.203,0.353L35.995,16.611z"/>
			<path fill="#FFFFFF" d="M38.619,13.87l-0.209,0.371c-0.119-0.069-0.214-0.104-0.286-0.104c-0.077-0.003-0.159,0.02-0.248,0.071
				c-0.109,0.063-0.181,0.145-0.218,0.248c-0.037,0.102-0.029,0.199,0.024,0.291c0.073,0.127,0.226,0.175,0.459,0.144l0.32-0.043
				c0.26-0.036,0.474-0.021,0.642,0.046c0.168,0.067,0.304,0.189,0.406,0.368c0.137,0.239,0.171,0.482,0.102,0.729
				c-0.07,0.249-0.224,0.442-0.462,0.579c-0.225,0.13-0.45,0.17-0.673,0.121c-0.221-0.05-0.42-0.186-0.595-0.407l0.347-0.316
				c0.105,0.142,0.198,0.229,0.276,0.262c0.145,0.066,0.295,0.054,0.45-0.035c0.122-0.07,0.2-0.17,0.234-0.298
				c0.034-0.129,0.014-0.255-0.058-0.381c-0.029-0.05-0.063-0.093-0.101-0.127c-0.038-0.034-0.082-0.06-0.132-0.078
				c-0.05-0.018-0.107-0.029-0.172-0.033c-0.065-0.004-0.138-0.001-0.219,0.008l-0.311,0.04c-0.442,0.054-0.746-0.063-0.912-0.353
				c-0.112-0.195-0.132-0.401-0.058-0.618c0.073-0.218,0.22-0.391,0.442-0.519C37.965,13.664,38.283,13.676,38.619,13.87z"/>
			<path fill="#FFFFFF" d="M40.009,14.302l0.739,1.285l-0.378,0.218L39.63,14.52l-0.162,0.093l-0.203-0.353l0.162-0.093
				l-0.346-0.601l0.378-0.218l0.346,0.601L40.1,13.78l0.203,0.353L40.009,14.302z"/>
			<path fill="#FFFFFF" d="M41.565,12.937l0.38-0.219l0.943,1.638l-0.38,0.219l-0.099-0.171c-0.072,0.235-0.198,0.405-0.377,0.508
				c-0.226,0.13-0.461,0.156-0.703,0.078c-0.243-0.083-0.436-0.249-0.58-0.499c-0.141-0.245-0.186-0.493-0.133-0.741
				c0.053-0.248,0.189-0.436,0.41-0.563c0.191-0.11,0.407-0.13,0.649-0.06L41.565,12.937z M41.135,14.267
				c0.09,0.157,0.206,0.261,0.347,0.311c0.144,0.05,0.281,0.038,0.412-0.038c0.14-0.08,0.226-0.194,0.257-0.34
				c0.029-0.149-0.001-0.301-0.089-0.455c-0.088-0.154-0.205-0.255-0.348-0.306c-0.142-0.048-0.283-0.032-0.42,0.047
				c-0.13,0.075-0.21,0.187-0.241,0.336C41.023,13.972,41.051,14.121,41.135,14.267z"/>
			<path fill="#FFFFFF" d="M42.423,12.443l0.38-0.219l0.087,0.151c0.057-0.207,0.168-0.359,0.334-0.454
				c0.191-0.11,0.374-0.135,0.55-0.077c0.151,0.049,0.292,0.189,0.425,0.42l0.578,1.004l-0.38,0.219l-0.526-0.915
				c-0.093-0.161-0.179-0.26-0.26-0.296c-0.08-0.038-0.178-0.023-0.293,0.043c-0.126,0.072-0.191,0.165-0.196,0.278
				c-0.004,0.112,0.052,0.269,0.169,0.474l0.455,0.791l-0.38,0.218L42.423,12.443z"/>
			<path fill="#FFFFFF" d="M44.828,9.459l0.38-0.218l1.635,2.841l-0.38,0.218l-0.099-0.171c-0.065,0.232-0.192,0.402-0.38,0.51
				c-0.225,0.129-0.458,0.154-0.7,0.076c-0.243-0.083-0.437-0.249-0.58-0.499c-0.141-0.245-0.184-0.491-0.132-0.739
				c0.051-0.248,0.187-0.437,0.408-0.563c0.192-0.11,0.408-0.131,0.65-0.061L44.828,9.459z M45.09,11.993
				c0.09,0.157,0.206,0.26,0.347,0.311c0.144,0.05,0.281,0.038,0.412-0.038c0.14-0.08,0.226-0.194,0.257-0.34
				c0.029-0.149-0.001-0.301-0.089-0.455c-0.089-0.154-0.205-0.255-0.348-0.306c-0.142-0.048-0.283-0.032-0.42,0.047
				c-0.13,0.075-0.21,0.187-0.241,0.336C44.977,11.697,45.005,11.846,45.09,11.993z"/>
			<path fill="#FFFFFF" d="M47.585,9.474l0.38-0.219l0.943,1.638l-0.38,0.219l-0.099-0.171c-0.072,0.235-0.198,0.405-0.377,0.508
				c-0.226,0.131-0.461,0.156-0.703,0.078c-0.243-0.083-0.436-0.249-0.58-0.499c-0.141-0.245-0.186-0.493-0.133-0.74
				c0.053-0.248,0.19-0.436,0.41-0.563c0.191-0.11,0.407-0.13,0.649-0.06L47.585,9.474z M47.155,10.804
				c0.09,0.157,0.206,0.26,0.347,0.311c0.144,0.05,0.281,0.038,0.412-0.038c0.14-0.081,0.226-0.194,0.257-0.34
				c0.029-0.149-0.001-0.301-0.089-0.455c-0.089-0.154-0.205-0.255-0.348-0.306c-0.142-0.048-0.283-0.032-0.42,0.047
				c-0.13,0.075-0.21,0.187-0.241,0.336C47.043,10.509,47.071,10.658,47.155,10.804z"/>
			<path fill="#FFFFFF" d="M48.443,8.98l0.378-0.218l0.084,0.146c0.028-0.113,0.061-0.198,0.099-0.256
				c0.039-0.06,0.096-0.111,0.171-0.154c0.1-0.058,0.223-0.085,0.369-0.082l0.026,0.446c-0.101-0.01-0.186,0.004-0.255,0.044
				c-0.206,0.119-0.22,0.334-0.04,0.645l0.489,0.85l-0.378,0.218L48.443,8.98z"/>
			<path fill="#FFFFFF" d="M50.247,6.341l0.38-0.219l1.635,2.841l-0.38,0.219l-0.099-0.171c-0.065,0.232-0.192,0.402-0.38,0.51
				c-0.224,0.129-0.458,0.154-0.7,0.076c-0.243-0.083-0.436-0.249-0.58-0.499c-0.141-0.245-0.184-0.491-0.132-0.739
				c0.051-0.249,0.187-0.437,0.408-0.563c0.192-0.11,0.408-0.131,0.65-0.061L50.247,6.341z M50.509,8.875
				c0.09,0.157,0.206,0.26,0.347,0.311c0.144,0.05,0.281,0.038,0.413-0.038c0.14-0.081,0.225-0.194,0.256-0.34
				c0.029-0.149-0.001-0.301-0.089-0.455c-0.089-0.154-0.205-0.255-0.348-0.306c-0.142-0.048-0.282-0.032-0.42,0.047
				c-0.13,0.075-0.21,0.187-0.241,0.336C50.397,8.58,50.424,8.728,50.509,8.875z"/>
			<path fill="#FFFFFF" d="M52.909,6.782l-0.217,0.347c-0.107-0.073-0.197-0.088-0.27-0.046c-0.035,0.02-0.058,0.049-0.069,0.086
				c-0.011,0.037-0.007,0.073,0.014,0.109c0.036,0.063,0.145,0.083,0.326,0.061c0.25-0.029,0.431-0.027,0.543,0.006
				c0.112,0.033,0.203,0.111,0.274,0.235c0.091,0.158,0.109,0.324,0.053,0.497c-0.055,0.166-0.163,0.295-0.323,0.387
				c-0.275,0.158-0.547,0.136-0.815-0.066l0.237-0.335c0.09,0.052,0.153,0.083,0.189,0.091c0.07,0.016,0.138,0.006,0.201-0.031
				c0.128-0.073,0.158-0.169,0.091-0.286c-0.039-0.067-0.124-0.101-0.256-0.103c-0.049,0.003-0.098,0.006-0.146,0.01
				c-0.048,0.004-0.098,0.007-0.148,0.011c-0.141,0.009-0.249,0-0.325-0.028c-0.097-0.036-0.176-0.107-0.238-0.215
				c-0.082-0.143-0.101-0.289-0.057-0.437c0.046-0.151,0.141-0.267,0.283-0.349C52.465,6.606,52.683,6.624,52.909,6.782z"/>
		</g>
	</g>
	<g>
		<g>
			<path fill="#FFFFFF" d="M57.772,120.228l-0.994,0.585l0.351,0.595l0.964-0.568l0.208,0.352l-0.965,0.568l0.488,0.828l0.994-0.585
				l0.207,0.351l-1.368,0.806l-1.46-2.479l1.368-0.806L57.772,120.228z"/>
			<path fill="#FFFFFF" d="M59.097,120.66l0.723,1.227l-0.361,0.213l-0.723-1.227l-0.154,0.091l-0.199-0.337l0.154-0.091
				l-0.338-0.573l0.361-0.213l0.338,0.573l0.281-0.166l0.199,0.337L59.097,120.66z"/>
			<path fill="#FFFFFF" d="M58.749,118.866l0.361-0.213l0.753,1.278c0.06-0.191,0.168-0.333,0.323-0.424
				c0.177-0.104,0.351-0.13,0.525-0.078c0.149,0.046,0.287,0.179,0.416,0.397l0.565,0.958l-0.361,0.213l-0.545-0.925
				c-0.074-0.125-0.15-0.203-0.227-0.233c-0.078-0.03-0.166-0.016-0.264,0.042c-0.126,0.074-0.192,0.166-0.197,0.274
				c-0.004,0.109,0.051,0.26,0.165,0.452l0.446,0.756l-0.361,0.213L58.749,118.866z"/>
			<path fill="#FFFFFF" d="M62.131,120.525l-1.048-2.972l1.986,1.425l-0.254-2.445l2.039,2.388l-0.384,0.226l-1.121-1.355
				l0.215,2.042l-1.663-1.192l0.616,1.655L62.131,120.525z"/>
			<path fill="#FFFFFF" d="M65.541,116.409l0.363-0.214l0.922,1.564l-0.363,0.214l-0.096-0.164c-0.067,0.226-0.186,0.39-0.357,0.491
				c-0.216,0.127-0.441,0.155-0.674,0.082c-0.234-0.077-0.422-0.235-0.562-0.473c-0.138-0.234-0.183-0.471-0.135-0.71
				c0.048-0.239,0.178-0.42,0.388-0.545c0.182-0.107,0.389-0.128,0.622-0.064L65.541,116.409z M65.142,117.691
				c0.088,0.15,0.2,0.248,0.336,0.296c0.138,0.046,0.27,0.033,0.396-0.041c0.134-0.079,0.215-0.188,0.243-0.329
				c0.027-0.144-0.004-0.289-0.09-0.435c-0.086-0.147-0.199-0.243-0.337-0.291c-0.137-0.044-0.272-0.028-0.403,0.05
				c-0.124,0.073-0.2,0.181-0.228,0.325C65.031,117.409,65.059,117.551,65.142,117.691z"/>
			<path fill="#FFFFFF" d="M68.771,116.563c0.044,0.074,0.08,0.14,0.108,0.2c0.028,0.059,0.051,0.112,0.068,0.16
				c0.043,0.133,0.053,0.264,0.028,0.392c-0.045,0.246-0.192,0.442-0.439,0.587c-0.209,0.123-0.413,0.168-0.614,0.135
				c-0.207-0.033-0.382-0.146-0.524-0.338l0.363-0.214c0.059,0.069,0.117,0.115,0.174,0.137c0.132,0.053,0.27,0.038,0.414-0.046
				c0.264-0.156,0.301-0.396,0.11-0.72l-0.129-0.219c-0.057,0.231-0.179,0.402-0.367,0.512c-0.213,0.126-0.432,0.151-0.659,0.077
				c-0.229-0.075-0.413-0.23-0.551-0.465c-0.134-0.228-0.185-0.459-0.151-0.693c0.037-0.25,0.168-0.441,0.393-0.574
				c0.197-0.116,0.404-0.139,0.621-0.069l-0.104-0.177l0.361-0.213L68.771,116.563z M67.988,116.026
				c-0.09-0.152-0.202-0.25-0.337-0.293c-0.137-0.045-0.27-0.029-0.398,0.047c-0.137,0.081-0.215,0.195-0.235,0.343
				c-0.018,0.133,0.015,0.272,0.1,0.417c0.084,0.142,0.189,0.238,0.314,0.287c0.137,0.053,0.274,0.039,0.412-0.042
				c0.138-0.082,0.217-0.196,0.238-0.344C68.103,116.306,68.072,116.168,67.988,116.026z"/>
			<path fill="#FFFFFF" d="M67.89,114.149c-0.037-0.063-0.046-0.131-0.028-0.204c0.019-0.073,0.061-0.128,0.125-0.166
				c0.066-0.039,0.135-0.048,0.208-0.03c0.073,0.018,0.128,0.06,0.166,0.125c0.038,0.065,0.048,0.135,0.029,0.208
				c-0.018,0.072-0.06,0.128-0.125,0.166c-0.065,0.039-0.135,0.048-0.208,0.029C67.985,114.259,67.929,114.216,67.89,114.149z
				 M68.689,114.554l0.921,1.564l-0.361,0.213l-0.921-1.564L68.689,114.554z"/>
			<path fill="#FFFFFF" d="M70.403,113.635l0.283,0.48c-0.142-0.052-0.256-0.078-0.344-0.077c-0.087-0.001-0.174,0.025-0.26,0.076
				c-0.136,0.08-0.221,0.194-0.255,0.342c-0.034,0.148-0.008,0.294,0.076,0.437c0.087,0.147,0.201,0.242,0.343,0.285
				c0.143,0.043,0.283,0.024,0.419-0.056c0.087-0.051,0.152-0.115,0.196-0.191c0.043-0.074,0.077-0.189,0.102-0.345l0.281,0.477
				c-0.102,0.162-0.227,0.287-0.373,0.373c-0.242,0.143-0.49,0.184-0.745,0.123c-0.255-0.061-0.452-0.209-0.589-0.442
				c-0.137-0.233-0.171-0.479-0.101-0.736c0.07-0.258,0.225-0.457,0.465-0.599C70.055,113.691,70.222,113.642,70.403,113.635z"/>
			<path fill="#FFFFFF" d="M70.275,112.744c-0.037-0.063-0.046-0.131-0.028-0.205c0.019-0.073,0.061-0.128,0.125-0.166
				c0.065-0.038,0.134-0.048,0.207-0.03c0.073,0.018,0.128,0.06,0.167,0.125c0.038,0.065,0.048,0.135,0.029,0.208
				c-0.018,0.072-0.059,0.128-0.125,0.166c-0.065,0.038-0.134,0.048-0.208,0.029C70.371,112.853,70.314,112.81,70.275,112.744z
				 M71.074,113.149l0.921,1.564l-0.361,0.213l-0.921-1.564L71.074,113.149z"/>
			<path fill="#FFFFFF" d="M72.684,112.2l0.363-0.214l0.921,1.564l-0.363,0.214l-0.097-0.164c-0.067,0.226-0.186,0.39-0.357,0.491
				c-0.216,0.127-0.441,0.155-0.675,0.082c-0.234-0.077-0.421-0.234-0.562-0.473c-0.138-0.234-0.183-0.471-0.135-0.71
				c0.048-0.239,0.178-0.42,0.388-0.545c0.182-0.107,0.39-0.129,0.622-0.064L72.684,112.2z M72.285,113.482
				c0.088,0.15,0.2,0.248,0.336,0.295c0.138,0.046,0.27,0.033,0.395-0.041c0.134-0.079,0.215-0.188,0.243-0.329
				c0.026-0.144-0.004-0.289-0.09-0.435c-0.087-0.147-0.199-0.243-0.338-0.29c-0.137-0.045-0.272-0.028-0.403,0.05
				c-0.124,0.073-0.2,0.181-0.228,0.325C72.174,113.2,72.202,113.342,72.285,113.482z"/>
			<path fill="#FFFFFF" d="M73.503,111.718l0.363-0.214l0.085,0.144c0.053-0.2,0.158-0.346,0.316-0.44
				c0.182-0.107,0.358-0.133,0.527-0.078c0.145,0.046,0.283,0.179,0.413,0.399l0.565,0.958l-0.363,0.214l-0.515-0.873
				c-0.091-0.154-0.175-0.247-0.252-0.281c-0.077-0.036-0.171-0.021-0.281,0.045c-0.12,0.071-0.181,0.16-0.185,0.269
				c-0.003,0.107,0.053,0.258,0.168,0.453l0.444,0.754l-0.363,0.214L73.503,111.718z"/>
			<path fill="#FFFFFF" d="M76.371,110.387l-0.205,0.335c-0.104-0.069-0.191-0.082-0.26-0.041c-0.033,0.019-0.055,0.047-0.066,0.083
				c-0.01,0.036-0.006,0.071,0.014,0.105c0.036,0.06,0.14,0.078,0.314,0.055c0.24-0.03,0.414-0.03,0.521,0
				c0.107,0.031,0.195,0.105,0.265,0.222c0.089,0.151,0.107,0.31,0.056,0.477c-0.051,0.16-0.154,0.285-0.307,0.375
				c-0.262,0.155-0.523,0.136-0.783-0.055l0.224-0.325c0.087,0.05,0.148,0.078,0.183,0.085c0.068,0.015,0.132,0.004,0.193-0.032
				c0.122-0.072,0.15-0.164,0.085-0.275c-0.038-0.064-0.12-0.097-0.247-0.096c-0.047,0.003-0.094,0.007-0.14,0.011
				c-0.046,0.004-0.094,0.008-0.142,0.012c-0.135,0.01-0.239,0.003-0.312-0.023c-0.093-0.033-0.17-0.101-0.23-0.204
				c-0.08-0.136-0.1-0.275-0.059-0.419c0.043-0.145,0.132-0.258,0.268-0.338C75.943,110.222,76.152,110.237,76.371,110.387z"/>
			<path fill="#FFFFFF" d="M79.094,107.37l0.261,0.443c-0.323-0.054-0.6-0.012-0.831,0.124c-0.255,0.15-0.415,0.368-0.482,0.654
				c-0.068,0.286-0.025,0.56,0.13,0.823c0.153,0.26,0.37,0.428,0.651,0.503c0.281,0.075,0.548,0.038,0.803-0.112
				c0.132-0.077,0.231-0.165,0.298-0.262c0.039-0.051,0.075-0.112,0.109-0.181c0.034-0.068,0.066-0.146,0.097-0.234l0.266,0.451
				c-0.143,0.247-0.332,0.44-0.567,0.578c-0.354,0.209-0.729,0.264-1.125,0.164c-0.397-0.102-0.698-0.33-0.906-0.682
				c-0.186-0.316-0.247-0.659-0.184-1.029c0.078-0.454,0.321-0.802,0.729-1.042C78.564,107.438,78.815,107.371,79.094,107.37z"/>
			<path fill="#FFFFFF" d="M80.338,108.728c-0.133-0.226-0.166-0.466-0.097-0.719c0.068-0.254,0.218-0.449,0.451-0.586
				c0.233-0.137,0.478-0.174,0.735-0.11c0.254,0.065,0.45,0.213,0.587,0.445c0.138,0.234,0.173,0.479,0.105,0.732
				c-0.07,0.253-0.223,0.45-0.46,0.589c-0.234,0.138-0.478,0.174-0.731,0.106C80.676,109.121,80.479,108.968,80.338,108.728z
				 M80.711,108.517c0.092,0.156,0.206,0.255,0.344,0.297c0.14,0.041,0.28,0.021,0.42-0.061c0.141-0.083,0.228-0.195,0.258-0.336
				c0.031-0.141,0.002-0.287-0.088-0.439c-0.089-0.152-0.203-0.249-0.341-0.29c-0.14-0.041-0.28-0.021-0.42,0.061
				c-0.138,0.082-0.223,0.193-0.254,0.336C80.598,108.228,80.625,108.372,80.711,108.517z"/>
			<path fill="#FFFFFF" d="M82.295,106.537l0.529,0.897c0.153,0.259,0.331,0.328,0.536,0.208c0.205-0.12,0.23-0.31,0.078-0.569
				l-0.529-0.897l0.361-0.213l0.534,0.905c0.073,0.125,0.122,0.242,0.144,0.351c0.018,0.099,0.009,0.203-0.026,0.312
				c-0.06,0.178-0.183,0.322-0.372,0.433c-0.188,0.11-0.373,0.149-0.558,0.115c-0.114-0.021-0.209-0.063-0.288-0.126
				c-0.073-0.055-0.152-0.154-0.236-0.298l-0.534-0.905L82.295,106.537z"/>
			<path fill="#FFFFFF" d="M83.725,105.694l0.363-0.214l0.085,0.144c0.053-0.2,0.158-0.346,0.316-0.439
				c0.182-0.107,0.358-0.134,0.527-0.079c0.145,0.046,0.283,0.179,0.412,0.399l0.565,0.958l-0.363,0.214l-0.515-0.873
				c-0.09-0.154-0.175-0.247-0.252-0.281c-0.077-0.035-0.171-0.02-0.281,0.045c-0.12,0.071-0.181,0.16-0.185,0.269
				c-0.003,0.107,0.053,0.258,0.168,0.453l0.444,0.754l-0.363,0.214L83.725,105.694z"/>
			<path fill="#FFFFFF" d="M86.784,103.982l0.283,0.48c-0.142-0.052-0.256-0.078-0.344-0.077c-0.087-0.001-0.174,0.025-0.26,0.076
				c-0.136,0.08-0.221,0.194-0.254,0.342c-0.034,0.148-0.008,0.294,0.076,0.437c0.087,0.147,0.201,0.242,0.343,0.285
				c0.143,0.043,0.283,0.024,0.419-0.056c0.087-0.051,0.152-0.115,0.196-0.191c0.043-0.074,0.077-0.189,0.101-0.346l0.281,0.477
				c-0.102,0.162-0.226,0.287-0.373,0.373c-0.242,0.142-0.49,0.184-0.745,0.123c-0.255-0.062-0.452-0.209-0.589-0.442
				c-0.137-0.233-0.171-0.479-0.101-0.736c0.07-0.258,0.225-0.457,0.465-0.599C86.436,104.038,86.604,103.989,86.784,103.982z"/>
			<path fill="#FFFFFF" d="M86.657,103.091c-0.037-0.063-0.046-0.131-0.027-0.204c0.019-0.073,0.061-0.129,0.125-0.166
				c0.065-0.038,0.134-0.048,0.208-0.029c0.072,0.018,0.128,0.06,0.166,0.125c0.038,0.065,0.048,0.135,0.029,0.208
				c-0.018,0.072-0.059,0.128-0.124,0.166c-0.066,0.038-0.135,0.048-0.208,0.029C86.752,103.2,86.696,103.157,86.657,103.091z
				 M87.456,103.496l0.921,1.564l-0.361,0.213l-0.921-1.564L87.456,103.496z"/>
			<path fill="#FFFFFF" d="M87.598,101.866l1.597,2.711l-0.361,0.213l-1.597-2.711L87.598,101.866z"/>
			<path fill="#FFFFFF" d="M90.127,102.96c-0.133-0.226-0.166-0.466-0.097-0.719c0.068-0.254,0.219-0.449,0.451-0.585
				c0.233-0.137,0.478-0.174,0.735-0.111c0.255,0.065,0.45,0.213,0.587,0.446c0.138,0.234,0.173,0.479,0.105,0.732
				c-0.07,0.253-0.223,0.449-0.46,0.589c-0.234,0.138-0.478,0.174-0.731,0.107C90.465,103.352,90.268,103.2,90.127,102.96z
				 M90.5,102.749c0.092,0.156,0.206,0.255,0.344,0.297c0.14,0.042,0.279,0.021,0.42-0.062c0.141-0.083,0.228-0.195,0.258-0.336
				c0.031-0.141,0.002-0.287-0.088-0.439c-0.09-0.152-0.204-0.249-0.342-0.29c-0.14-0.041-0.28-0.021-0.42,0.062
				c-0.138,0.081-0.223,0.193-0.254,0.336C90.387,102.46,90.414,102.604,90.5,102.749z"/>
			<path fill="#FFFFFF" d="M92.295,101.099l0.723,1.227l-0.363,0.214l-0.723-1.227l-0.128,0.076l-0.199-0.337l0.128-0.076
				l-0.355-0.604c-0.116-0.197-0.164-0.356-0.143-0.478c0.028-0.169,0.131-0.306,0.311-0.412c0.064-0.038,0.156-0.067,0.275-0.087
				l0.217,0.369l-0.048,0.003c-0.102,0.007-0.178,0.025-0.228,0.054c-0.064,0.038-0.094,0.086-0.089,0.146
				c0.004,0.058,0.044,0.151,0.12,0.28l0.303,0.515l0.393-0.232l0.199,0.337L92.295,101.099z"/>
			<path fill="#FFFFFF" d="M94.484,100.105l0.593,1.006l-0.374,0.221l-1.46-2.478l0.424-0.25c0.208-0.122,0.373-0.2,0.496-0.234
				c0.124-0.034,0.25-0.035,0.379-0.002c0.224,0.055,0.399,0.189,0.524,0.401c0.134,0.227,0.164,0.451,0.09,0.673
				c-0.073,0.223-0.239,0.41-0.497,0.562L94.484,100.105z M94.28,99.758l0.14-0.082c0.343-0.203,0.437-0.436,0.282-0.7
				c-0.151-0.256-0.403-0.279-0.757-0.071l-0.124,0.073L94.28,99.758z"/>
			<path fill="#FFFFFF" d="M95.488,98.763l0.361-0.213l0.082,0.14c0.026-0.109,0.056-0.191,0.092-0.247
				c0.037-0.058,0.091-0.108,0.163-0.15c0.095-0.056,0.213-0.083,0.353-0.083l0.03,0.428c-0.097-0.009-0.179,0.006-0.244,0.045
				c-0.197,0.116-0.208,0.323-0.033,0.62l0.478,0.811l-0.361,0.213L95.488,98.763z"/>
			<path fill="#FFFFFF" d="M97.871,97.359l0.363-0.214l0.922,1.563l-0.363,0.214l-0.096-0.164c-0.067,0.227-0.186,0.39-0.357,0.491
				c-0.216,0.127-0.441,0.155-0.674,0.082c-0.234-0.077-0.422-0.235-0.562-0.473c-0.138-0.234-0.183-0.471-0.135-0.71
				c0.048-0.239,0.178-0.42,0.388-0.545c0.182-0.107,0.389-0.128,0.622-0.063L97.871,97.359z M97.471,98.641
				c0.089,0.15,0.2,0.248,0.336,0.295c0.138,0.047,0.27,0.033,0.395-0.041c0.134-0.079,0.215-0.189,0.243-0.329
				c0.027-0.144-0.004-0.289-0.09-0.436c-0.086-0.147-0.199-0.243-0.337-0.29c-0.137-0.045-0.272-0.028-0.403,0.05
				c-0.124,0.073-0.2,0.181-0.228,0.324C97.36,98.359,97.389,98.501,97.471,98.641z"/>
			<path fill="#FFFFFF" d="M101.101,97.512c0.044,0.074,0.08,0.14,0.108,0.2c0.028,0.059,0.051,0.112,0.068,0.16
				c0.043,0.133,0.053,0.264,0.028,0.392c-0.045,0.246-0.192,0.442-0.439,0.587c-0.209,0.123-0.414,0.168-0.614,0.135
				c-0.207-0.033-0.382-0.146-0.524-0.338l0.363-0.214c0.059,0.069,0.117,0.115,0.174,0.137c0.132,0.053,0.27,0.038,0.414-0.047
				c0.264-0.156,0.301-0.396,0.11-0.72l-0.129-0.218c-0.057,0.231-0.179,0.402-0.367,0.512c-0.213,0.126-0.433,0.152-0.659,0.077
				c-0.229-0.075-0.412-0.23-0.55-0.465c-0.134-0.228-0.185-0.459-0.151-0.693c0.037-0.25,0.168-0.441,0.393-0.574
				c0.197-0.116,0.404-0.139,0.621-0.069l-0.104-0.177l0.361-0.213L101.101,97.512z M100.317,96.975
				c-0.09-0.152-0.202-0.25-0.337-0.293c-0.137-0.045-0.27-0.029-0.398,0.047c-0.137,0.081-0.215,0.195-0.235,0.344
				c-0.018,0.133,0.015,0.272,0.1,0.417c0.084,0.142,0.189,0.238,0.314,0.287c0.137,0.053,0.274,0.04,0.412-0.042
				c0.138-0.081,0.217-0.196,0.238-0.344C100.433,97.256,100.401,97.117,100.317,96.975z"/>
			<path fill="#FFFFFF" d="M101.018,95.504l0.529,0.897c0.153,0.259,0.331,0.328,0.535,0.208c0.205-0.121,0.23-0.31,0.078-0.569
				l-0.529-0.897l0.361-0.213l0.533,0.905c0.074,0.125,0.122,0.242,0.144,0.352c0.018,0.099,0.009,0.203-0.026,0.312
				c-0.06,0.178-0.184,0.322-0.372,0.433c-0.188,0.11-0.373,0.149-0.558,0.115c-0.114-0.021-0.21-0.063-0.289-0.127
				c-0.073-0.055-0.152-0.154-0.236-0.298l-0.533-0.905L101.018,95.504z"/>
			<path fill="#FFFFFF" d="M104.383,94.689l-1.12,0.66c0.085,0.123,0.187,0.2,0.306,0.233c0.118,0.031,0.235,0.013,0.351-0.055
				c0.09-0.053,0.151-0.118,0.185-0.196c0.033-0.077,0.052-0.195,0.057-0.354l0.405-0.01c0,0.108-0.009,0.206-0.028,0.294
				c-0.018,0.088-0.047,0.169-0.085,0.241c-0.038,0.072-0.087,0.137-0.146,0.195c-0.06,0.058-0.13,0.111-0.211,0.159
				c-0.233,0.137-0.464,0.173-0.694,0.107c-0.23-0.068-0.419-0.227-0.566-0.476c-0.146-0.247-0.195-0.488-0.148-0.721
				c0.049-0.232,0.188-0.416,0.416-0.55c0.23-0.136,0.455-0.169,0.676-0.102c0.218,0.067,0.403,0.23,0.555,0.488L104.383,94.689z
				 M103.838,94.612c-0.164-0.163-0.342-0.188-0.535-0.074c-0.044,0.026-0.081,0.057-0.112,0.093
				c-0.031,0.036-0.055,0.076-0.071,0.12c-0.017,0.044-0.026,0.09-0.028,0.139c-0.002,0.048,0.005,0.099,0.02,0.151L103.838,94.612z
				"/>
		</g>
	</g>
</g>
</svg>
