<svg xmlns="http://www.w3.org/2000/svg" viewBox="0 0 110.979 128.417"><path fill="#0A0F44" d="M55.399 128.106L.021 96.133V32.188L55.399.215l55.379 31.973v63.945z"/><path fill="#040933" d="M55.322 117.209L9.812 90.934v-52.55l45.51-26.275 45.509 26.275v52.55z"/><path fill="#15FFAB" d="M60.529 65.165c1.57-.997 2.285-2.567 2.011-4.404-.09-.6-.999-.344-.911.251.209 1.399-.397 2.588-1.577 3.338-.511.325-.038 1.143.477.815z"/><path fill="#15FFAB" d="M62.129 61.127c.499.598 1.009 1.193 1.605 1.699.461.392 1.132-.273.667-.668-.595-.506-1.105-1.101-1.605-1.699-.391-.468-1.055.204-.667.668z"/><path fill="#15FFAB" d="M63.69 62.587c.129 1.935-.59 3.519-2.221 4.596-.505.334-.033 1.152.476.815 1.899-1.254 2.84-3.137 2.688-5.411-.04-.605-.984-.608-.943 0z"/><path fill="#15FFAB" d="M59.978 65.185c.388.86.839 1.689 1.227 2.549.25.554 1.064.074.815-.476-.388-.86-.839-1.689-1.227-2.549-.25-.555-1.064-.074-.815.476z"/><path fill="#15FFAB" d="M67.505 84.387c.997 2.654 1.898 5.36 2.969 7.984.268.656.595 1.281.898 1.92.141.298.247.611.331.929h.902c-.24-.875-.573-1.695-.994-2.591-1.223-2.606-2.053-5.454-3.065-8.149-2.144-5.706-4.289-11.418-5.911-17.299-.162-.586-1.072-.337-.91.251 1.588 5.762 3.68 11.364 5.78 16.955zm-2.997-21.251c4.324 1.061 9.052 1.318 12.915 3.729.518.323.992-.494.476-.815-3.942-2.46-8.73-2.742-13.14-3.824-.591-.146-.842.765-.251.91zm14.378 21.249c.098 1.431.164 2.863.214 4.296.048 1.39.203 2.867.015 4.25-.085.627-.436.989-.796 1.469a2.682 2.682 0 0 0-.404.82h1.063c.117-.242.267-.477.463-.716.396-.482.577-1.06.632-1.679.247-2.764-.062-5.677-.243-8.441a102.297 102.297 0 0 0-2.563-17.109c-.142-.592-1.052-.341-.911.251 1.327 5.542 2.14 11.176 2.53 16.859z"/><path fill="#15FFAB" d="M77.484 67.271c3.139 3.296 4.336 8.644 5.181 13.35.45 2.505.764 5.044 1.036 7.584.228 2.135.613 4.35.701 6.495.033.793 1.065.797 1.032 0-.093-2.25-.494-4.559-.734-6.799-.285-2.663-.628-5.317-1.1-7.942-.861-4.793-2.199-10.214-5.387-13.562-.498-.523-1.231.348-.729.874zm-29.26-6.792c-.761 2.148-.17 4.161 1.632 5.557.475.368 1.148-.295.667-.667-1.557-1.207-2.049-2.776-1.389-4.639.204-.576-.708-.821-.91-.251z"/><path fill="#15FFAB" d="M50.001 65.702c0 1.103-.009 2.204-.094 3.304-.047.608.897.603.944 0 .085-1.1.094-2.201.094-3.304 0-.609-.944-.609-.944 0z"/><path fill="#15FFAB" d="M47.779 60.176c-2.475 3.086-1.952 7.266 1.606 9.238.533.295 1.009-.52.476-.815-2.985-1.654-3.522-5.127-1.415-7.755.377-.471-.286-1.143-.667-.668z"/><path fill="#15FFAB" d="M32.85 69.461c4.727-1.223 8.707-4.123 13.217-5.853.562-.216.319-1.129-.251-.91-4.509 1.73-8.494 4.631-13.217 5.853-.589.152-.339 1.063.251.91zm3.429 23.216c.135.943.075 1.688.181 2.543h.917c-.068-.293-.102-.556-.029-.766.181-.511-.02-1.183-.11-1.69-.449-2.542-.623-5.148-.884-7.714-.512-5.036-1.143-10.099-2.986-14.848-.218-.561-1.131-.318-.91.251 1.856 4.782 2.472 9.87 2.988 14.939.248 2.432.487 4.865.833 7.285zm10.263 2.544h1.083c.301-.633.215-1.44.193-2.11-.084-2.577.068-5.16.328-7.723.532-5.257 1.639-10.443 2.782-15.595.132-.593-.778-.845-.91-.251-1.137 5.125-2.201 10.27-2.778 15.493a59.711 59.711 0 0 0-.365 8.077c.016.646.134 1.377-.243 1.942a.93.93 0 0 0-.09.167zm3.994-26.798c3.694 1.122 7.624-.128 10.56-2.481.475-.381-.198-1.044-.668-.668-2.675 2.144-6.288 3.258-9.642 2.239-.583-.178-.831.733-.25.91z"/><path fill="#15FFAB" d="M32.599 70.061c-1.04.143-1.094 2.269-1.176 2.988-.265 2.33-.273 4.695-.297 7.037-.047 4.65.14 9.314-.48 13.937-.081.602.865.594.944 0 .563-4.201.45-8.429.47-12.656.01-2.289.034-4.581.181-6.866.054-.839.125-1.68.278-2.508.053-.288.123-.572.224-.847.074-.199.13-.179.104-.176.604-.081.348-.991-.248-.909zm12.24-22.818c-.951-1.552-1.99-3.095-2.546-4.843-.489-1.539.092-3.764 1.994-3.626 1.514.11 2.935.687 4.474.717 1.855.036 3.722-.265 5.555-.505 1.96-.257 3.923-.516 5.9-.584 1.706-.059 3.594 0 5.101.896 3.139 1.868 2.521 7.397-.418 9.1-.527.305-.052 1.121.476.815 3.011-1.744 3.69-6.042 2.101-8.966-1.787-3.29-6.39-2.931-9.533-2.638-3.858.359-7.86 1.471-11.712.597-1.197-.272-2.779-.795-3.837.123-1.271 1.103-1.42 3.042-.942 4.545.554 1.743 1.623 3.301 2.57 4.847.319.517 1.136.043.817-.478z"/><path fill="#15FFAB" d="M46.98 46.16c.381-3.27 3.973-4.556 6.823-4.746 3.099-.207 7.584 1.069 7.904 4.746.052.602.997.606.944 0-.371-4.271-5.158-5.874-8.848-5.69-3.438.171-7.324 1.888-7.767 5.69-.07.604.875.597.944 0zm4.141 10.655c.744-.722 1.861-1.674 2.939-1.813.595-.076.603-1.021 0-.944-1.366.175-2.647 1.157-3.607 2.089-.437.426.232 1.093.668.668zm4.387-2.001c1.435.185 2.533 1.019 2.943 2.422.17.583 1.081.335.91-.251-.538-1.843-1.992-2.876-3.854-3.116-.602-.077-.594.868.001.945zm-1.541 4.36c.023.034.045.097-.007-.035.015.038.026.149.006-.014.007.062.004.125.002.187-.008.21.021.394.16.56.185.219.487.183.718.079.19-.085.365-.246.52-.385a.68.68 0 0 0 .244-.469c.017-.248-.178-.434-.394-.506-.062-.021-.131-.022-.195-.035l-.054-.014c-.09-.027.11.052.05.021-.08-.042.09.079.043.034.098.097.06.09.037.038-.105-.235-.442-.289-.646-.169-.24.141-.274.411-.169.646.09.203.32.327.53.363.048.008.097.013.145.024.04.01.085.044-.081-.036-.13-.063-.194-.221-.209-.373l.015-.111c.046-.097.057-.127.036-.087-.029.051.097-.113.027-.038-.033.035-.07.066-.106.098l-.076.062c.091-.073-.022.017-.033.025-.035.026-.068.052-.106.073-.094.051.099-.033.017-.007.131-.041.266.028.365.109.089.074.099.157.108.242-.009-.093.005-.189.002-.283a.89.89 0 0 0-.131-.474c-.145-.212-.412-.307-.646-.169-.212.122-.317.432-.172.644zm8.055-8.42c-.203 1.823-.746 3.55-1.824 5.049-.357.495.463.965.815.476 1.178-1.638 1.732-3.538 1.952-5.525.068-.604-.877-.598-.943 0zM46.431 51.95c.55 1.585 1.408 2.978 2.513 4.236.402.458 1.067-.212.668-.667-.995-1.133-1.775-2.393-2.27-3.82-.2-.572-1.112-.326-.911.251z"/><path fill="#15FFAB" d="M46.414 52.58c.055 2.889.681 5.87 2.32 8.292 1.696 2.506 4.491 3.716 7.478 3.527 2.644-.167 4.717-1.856 5.714-4.26.516-1.244.771-2.556.895-3.892.11-1.174.329-2.973-.235-4.03-.287-.537-1.102-.06-.815.476.34.636.187 2.201.139 3.106a12.994 12.994 0 0 1-.669 3.51c-.82 2.404-2.709 4-5.269 4.162-6.078.384-8.518-5.792-8.615-10.89-.011-.61-.955-.611-.943-.001z"/><path fill="#15FFAB" d="M62.921 53.176c2.323-1.438 2.517-4.311.126-5.787-.201-.124-.542-.062-.646.169-.173.386-.2.849-.441 1.196-.348.502.471.973.815.476.255-.367.262-.797.441-1.196l-.646.169c1.787 1.104 1.586 3.098-.126 4.157-.516.32-.042 1.137.477.816zm-16.489-5.598c-.06-.045-.139-.421-.245-.538-.255-.286-.568-.341-.938-.345a.465.465 0 0 0-.407.234c-.887 1.796-.674 4.508 1.667 4.973.595.118.848-.792.251-.91-1.704-.338-1.735-2.305-1.103-3.586l-.408.234c.295.003.458.569.706.753.489.364.958-.456.477-.815zm5.879 5.477c1.163 1.248 2.759 1.365 4.019.189.446-.416-.223-1.082-.667-.667-.894.834-1.88.673-2.684-.189-.417-.447-1.083.222-.668.667zm-1.933-1.467a3.166 3.166 0 0 1-3.162-3.162 3.166 3.166 0 0 1 3.162-3.163 3.167 3.167 0 0 1 3.163 3.163 3.166 3.166 0 0 1-3.163 3.162zm0-5.57a2.41 2.41 0 0 0-2.407 2.407 2.41 2.41 0 0 0 2.407 2.407 2.41 2.41 0 0 0 2.407-2.407 2.409 2.409 0 0 0-2.407-2.407z"/><path fill="#15FFAB" d="M58.828 51.588a3.166 3.166 0 0 1-3.163-3.162 3.167 3.167 0 0 1 3.163-3.163 3.167 3.167 0 0 1 3.163 3.163 3.168 3.168 0 0 1-3.163 3.162zm0-5.57a2.41 2.41 0 0 0-2.407 2.407 2.41 2.41 0 0 0 2.407 2.407 2.41 2.41 0 0 0 2.407-2.407 2.41 2.41 0 0 0-2.407-2.407z"/><path fill="#15FFAB" d="M53.447 48.52h2.313c.609 0 .609-.944 0-.944h-2.313c-.609 0-.609.944 0 .944zm8.451-.395c.444-.328.927-.64 1.416-.897.539-.283.062-1.098-.476-.815-.489.257-.972.569-1.416.897-.207.152-.31.406-.169.646.119.204.438.322.645.169zm-16.384-.991c.547.305 1.067.736 1.435 1.247.353.489 1.172.018.815-.476a5.548 5.548 0 0 0-1.774-1.586c-.531-.297-1.007.519-.476.815zm.161-17.149c.496 2.692.702 5.521.361 8.245-.076.603.869.596.944 0 .352-2.81.117-5.72-.395-8.496-.11-.598-1.02-.344-.91.251zm17.966 8.15c.518-1.681 1.064-3.365 1.385-5.098.11-.595-.8-.849-.91-.251-.32 1.732-.867 3.417-1.385 5.098-.18.583.732.831.91.251z"/><path fill="#15FFAB" d="M46.464 30.067c2.329-2.194 6.192-2.879 9.267-3.004 1.688-.069 3.367.123 4.883.904 1.823.939 3.163 2.815 3.422 4.85.076.595 1.021.603.944 0-.255-2.007-1.298-3.851-2.942-5.054-1.589-1.163-3.41-1.588-5.349-1.65-3.579-.113-8.197.747-10.892 3.287-.445.418.225 1.085.667.667zm13.566 8.279a.688.688 0 0 1 .573-.272c.115 0 .215.022.303.059a.44.44 0 0 0-.034-.155c-2.115-5.172-9.769-3.358-13.797-2.029-.575.19-.329 1.102.251.91 2.196-.725 4.483-1.244 6.8-1.323 2.223-.076 4.894.391 5.836 2.693a.492.492 0 0 0 .068.117zM53.4 57.017h3.21c.609 0 .609-.944 0-.944H53.4c-.609 0-.609.944 0 .944zm24.607 12.367c.008-.366.169-.587.535-.678.591-.146.34-1.056-.251-.91-.757.187-1.212.821-1.228 1.588-.012.609.932.608.944 0z"/><path fill="#15FFAB" d="M77.458 67.056c-.067.429-.194.842-.315 1.258l.927.125c.008-.174.057-.339.109-.504.125-.394-.347-.748-.693-.533-.274.17-.295.492-.297.785l.927-.125c-.076-.237-.163-.548-.172-.756a.477.477 0 0 0-.71-.407c-.25.141-.273.429-.304.682-.026.207-.049.47.024.669.211.577 1.01.347.91-.251l-.189-1.133c-.088-.529-.948-.4-.927.125.008.206.017.411.024.617.003.08-.027.285.02.051l.33-.33h-.001l.533.217c.13.266-.039-.091-.085-.13-.161-.137-.381-.191-.572-.074-.296.181-.248.547-.248.844-.001.609.943.609.944 0 0-.109 0-.217.003-.325.004-.131.003-.008-.007.016l-.217.282.002-.001-.572-.074c-.015-.013-.216-.377-.062-.061.086.176.348.287.533.217.498-.189.337-.836.321-1.249l-.927.125.189 1.133.91-.251c-.032-.089.003.126-.007-.018-.006-.074-.001-.149.002-.223.001-.028.018-.197.012-.159.01-.067.075-.175-.002-.049l-.169.169a.088.088 0 0 1 .01-.006c-.237-.136-.474-.271-.71-.408.014.338.103.686.206 1.007.16.503.924.419.927-.125 0-.059.044-.26-.019-.129l-.169.169.017-.01-.693-.533a2.939 2.939 0 0 0-.143.755c-.023.543.782.628.927.125.121-.416.248-.829.315-1.259.04-.254-.061-.507-.33-.581-.228-.06-.542.078-.582.333z"/><path fill-rule="evenodd" clip-rule="evenodd" fill="#15FFAB" d="M36.296 55.792c-.894-.852-1.778-1.715-2.665-2.574-.537-.52-1.071-1.043-1.614-1.556-.04-.038-.078-.238-.204-.066-.035.092-.076.182-.104.275-.412 1.41-.827 2.818-1.229 4.231-.14.491-.327.971-.402 1.48-.003.159.129.151.227.179.955.271 1.914.526 2.863.816.394.121.638.124.976-.237a57.196 57.196 0 0 1 2.164-2.187c.15-.146.132-.225-.012-.361z"/><path fill-rule="evenodd" clip-rule="evenodd" fill="#15FFAB" d="M36.28 56.715c-.809.812-1.613 1.628-2.418 2.443l-3.546-.995a.291.291 0 0 0 .105.195c.972.81 1.941 1.622 2.918 2.425.374.307.718.653 1.137.904.19.193.153-.061.17-.104a802.729 802.729 0 0 0 1.788-4.768c.025-.066.114-.155.028-.212-.094-.062-.133.063-.182.112zM25.726 68.744c-.431-1.157-.85-2.319-1.272-3.48-.255-.703-.508-1.406-.772-2.105-.02-.052.034-.248-.155-.149-.071.068-.148.13-.213.202-.986 1.088-1.975 2.174-2.954 3.269-.341.381-.718.73-1.008 1.156-.072.141.05.193.125.26.741.661 1.493 1.309 2.219 1.984.302.281.52.39.982.214a57.297 57.297 0 0 1 2.902-1.022c.197-.065.215-.143.146-.329z"/><path fill-rule="evenodd" clip-rule="evenodd" fill="#15FFAB" d="M25.307 69.568c-1.082.377-2.162.76-3.242 1.141l-2.756-2.444c-.03.105-.016.166.009.221.521 1.153 1.038 2.308 1.566 3.457.202.44.361.901.628 1.31.087.257.164.013.198-.019a814 814 0 0 0 3.692-3.508c.051-.049.17-.09.118-.179-.057-.098-.147-.002-.213.021z"/><path fill-rule="evenodd" clip-rule="evenodd" fill="#FFF" d="M25.539 81.982c-1.109-.544-2.211-1.101-3.316-1.654-.668-.335-1.335-.673-2.007-.999-.05-.024-.146-.203-.215-.002-.006.098-.018.196-.016.294.031 1.468.06 2.937.1 4.405.014.511-.02 1.024.062 1.532.045.153.169.105.27.103.992-.029 1.984-.075 2.976-.084.413-.003.646-.074.86-.519a57.89 57.89 0 0 1 1.406-2.737c.099-.183.058-.252-.12-.339z"/><path fill-rule="evenodd" clip-rule="evenodd" fill="#FFF" d="M25.801 82.868c-.527 1.018-1.049 2.038-1.572 3.057l-3.682.118c.05.096.102.131.158.154 1.171.48 2.34.963 3.513 1.435.449.181.882.407 1.356.52.239.127.128-.103.131-.15.097-1.695.185-3.39.272-5.085.003-.071.062-.182-.038-.211-.106-.031-.105.1-.138.162zm-.999-32.763c-.643-1.054-1.274-2.116-1.909-3.176-.384-.641-.765-1.284-1.157-1.92-.029-.047-.014-.25-.18-.117-.057.079-.12.155-.171.239-.762 1.255-1.527 2.509-2.281 3.769-.262.438-.567.853-.77 1.326-.044.153.086.179.172.231.852.508 1.714 1.002 2.555 1.528.35.219.585.284 1.004.023a58.991 58.991 0 0 1 2.655-1.554c.183-.1.185-.18.082-.349z"/><path fill-rule="evenodd" clip-rule="evenodd" fill="#FFF" d="M24.548 50.993c-.991.575-1.979 1.156-2.967 1.735l-3.169-1.877c-.009.108.015.166.05.215.73 1.033 1.456 2.069 2.193 3.097.282.393.526.816.865 1.167.134.236.164-.019.191-.057.992-1.378 1.976-2.76 2.959-4.144.041-.058.151-.12.082-.198-.074-.085-.144.027-.204.062zm13.198-8.119c-1.102-.557-2.198-1.127-3.296-1.694-.664-.342-1.327-.689-1.995-1.022-.05-.025-.143-.206-.214-.005-.007.098-.02.196-.019.294.013 1.468.024 2.937.047 4.405.008.511-.032 1.023.043 1.532.042.154.167.107.268.106.992-.017 1.985-.051 2.977-.048.413.001.647-.066.866-.509a57.45 57.45 0 0 1 1.439-2.72c.102-.18.061-.25-.116-.339z"/><path fill-rule="evenodd" clip-rule="evenodd" fill="#FFF" d="M37.998 43.763c-.539 1.011-1.073 2.025-1.608 3.038l-3.683.074a.29.29 0 0 0 .156.156c1.165.494 2.328.991 3.495 1.477.447.186.877.417 1.35.536.238.13.129-.102.132-.149a778.4 778.4 0 0 0 .332-5.082c.005-.071.065-.181-.034-.211-.106-.032-.107.1-.14.161z"/><path fill-rule="evenodd" clip-rule="evenodd" fill="#15FFAB" d="M29.518 36.053c-.729-.997-1.447-2.003-2.168-3.006-.436-.607-.869-1.216-1.313-1.817-.033-.045-.035-.248-.189-.101-.051.084-.107.165-.151.253-.654 1.314-1.312 2.627-1.958 3.946-.225.459-.494.897-.657 1.385-.032.156.1.171.191.216.892.436 1.791.856 2.674 1.309.367.189.606.235 1.003-.061a57.675 57.675 0 0 1 2.517-1.77c.173-.114.168-.194.051-.354z"/><path fill-rule="evenodd" clip-rule="evenodd" fill="#15FFAB" d="M29.339 36.96c-.94.656-1.876 1.317-2.813 1.977l-3.314-1.607c0 .109.029.163.068.21.813.969 1.624 1.94 2.443 2.903.314.369.592.77.959 1.091.153.223.162-.033.186-.073.873-1.456 1.74-2.916 2.604-4.377.036-.061.14-.132.065-.204-.081-.077-.141.04-.198.08z"/><path fill-rule="evenodd" clip-rule="evenodd" fill="#FFF" d="M39.653 33.129c-.31-1.196-.607-2.395-.908-3.593-.182-.725-.36-1.451-.551-2.173-.014-.054.059-.243-.139-.164-.078.059-.16.114-.233.179-1.093.981-2.188 1.959-3.275 2.947-.378.343-.789.652-1.121 1.045-.087.133.03.197.098.271.669.733 1.35 1.456 2.003 2.202.271.311.477.442.954.313a58.131 58.131 0 0 1 2.992-.718c.204-.041.23-.118.18-.309z"/><path fill-rule="evenodd" clip-rule="evenodd" fill="#FFF" d="M39.153 33.905c-1.115.264-2.229.533-3.343.801l-2.489-2.715a.295.295 0 0 0-.014.221c.399 1.2.795 2.402 1.202 3.599.156.458.267.933.49 1.368.06.264.162.029.199.001a758.108 758.108 0 0 0 4.033-3.109c.056-.044.178-.071.136-.166-.047-.102-.147-.016-.214 0zm35.53 21.226c.894-.852 1.778-1.715 2.665-2.575.537-.52 1.071-1.043 1.614-1.556.04-.038.078-.238.204-.066.035.092.076.182.104.275.412 1.409.826 2.818 1.229 4.23.14.491.327.971.402 1.48.004.159-.129.151-.226.179-.955.271-1.914.526-2.863.816-.394.121-.638.124-.976-.237a57.204 57.204 0 0 0-2.164-2.187c-.151-.144-.133-.222.011-.359z"/><path fill-rule="evenodd" clip-rule="evenodd" fill="#FFF" d="M74.699 56.054c.809.812 1.613 1.628 2.418 2.443l3.547-.995a.295.295 0 0 1-.104.195c-.972.81-1.941 1.622-2.919 2.425-.374.307-.719.653-1.137.904-.19.193-.153-.06-.17-.104a802.729 802.729 0 0 1-1.788-4.768c-.025-.067-.114-.155-.028-.213.093-.061.132.064.181.113z"/><path fill-rule="evenodd" clip-rule="evenodd" fill="#15FFAB" d="M85.254 68.083c.432-1.157.85-2.32 1.272-3.48.255-.703.507-1.406.772-2.105.02-.052-.034-.248.155-.149.071.067.148.13.214.202.986 1.088 1.975 2.174 2.954 3.268.341.381.718.73 1.008 1.156.073.142-.05.192-.125.26-.741.661-1.492 1.309-2.219 1.984-.302.281-.52.39-.982.214a57.297 57.297 0 0 0-2.902-1.022c-.199-.064-.217-.142-.147-.328z"/><path fill-rule="evenodd" clip-rule="evenodd" fill="#15FFAB" d="M85.672 68.907c1.082.377 2.162.76 3.242 1.141l2.755-2.444a.29.29 0 0 1-.009.221c-.52 1.153-1.037 2.307-1.565 3.457-.202.44-.361.901-.628 1.31-.087.257-.164.013-.198-.02a814 814 0 0 1-3.692-3.508c-.051-.049-.17-.089-.118-.179.058-.097.147-.001.213.022z"/><path fill-rule="evenodd" clip-rule="evenodd" fill="#FFF" d="M87.494 78.871c.839-.907 1.667-1.823 2.498-2.737.503-.553 1.003-1.108 1.513-1.654.038-.04.063-.242.2-.079.04.09.087.176.121.269.499 1.381 1.002 2.761 1.492 4.145.171.482.387.948.493 1.452.014.159-.119.159-.215.193-.936.33-1.878.645-2.806.994-.386.145-.629.164-.99-.175a57.989 57.989 0 0 0-2.296-2.047c-.158-.136-.145-.215-.01-.361z"/><path fill-rule="evenodd" clip-rule="evenodd" fill="#FFF" d="M87.568 79.792c.858.76 1.712 1.524 2.567 2.287l3.477-1.216c-.013.108-.048.159-.092.201-.919.869-1.836 1.741-2.761 2.603-.354.33-.676.697-1.078.974-.178.204-.157-.05-.176-.093-.7-1.546-1.393-3.096-2.084-4.647-.029-.065-.124-.147-.041-.21.089-.068.136.055.188.101zm-1.391-30.348c.643-1.054 1.275-2.116 1.909-3.176.384-.641.765-1.284 1.157-1.92.029-.047.014-.25.18-.117.057.079.12.156.171.239.762 1.255 1.527 2.509 2.281 3.769.262.438.567.853.771 1.326.045.153-.086.179-.173.231-.852.509-1.714 1.002-2.555 1.528-.35.218-.584.285-1.004.023a58.991 58.991 0 0 0-2.655-1.554c-.182-.1-.185-.18-.082-.349z"/><path fill-rule="evenodd" clip-rule="evenodd" fill="#FFF" d="M86.431 50.332c.991.575 1.979 1.156 2.967 1.735l3.169-1.877c.009.108-.015.165-.051.215-.73 1.033-1.456 2.069-2.193 3.097-.282.394-.525.816-.865 1.167-.134.235-.164-.019-.191-.057a799.628 799.628 0 0 1-2.96-4.144c-.041-.058-.15-.12-.082-.198.076-.084.146.027.206.062z"/><path fill-rule="evenodd" clip-rule="evenodd" fill="#15FFAB" d="M73.233 42.213c1.102-.557 2.198-1.127 3.296-1.693.664-.343 1.327-.689 1.995-1.023.05-.025.143-.205.214-.004.007.098.02.196.02.293-.014 1.468-.024 2.937-.047 4.405-.008.511.032 1.023-.044 1.532-.043.153-.167.107-.268.106-.993-.017-1.984-.051-2.977-.048-.413.002-.647-.066-.866-.509a58.878 58.878 0 0 0-1.438-2.72c-.102-.18-.062-.249.115-.339z"/><path fill-rule="evenodd" clip-rule="evenodd" fill="#15FFAB" d="M72.981 43.102c.539 1.011 1.073 2.025 1.608 3.038l3.683.074a.29.29 0 0 1-.156.156c-1.165.494-2.328.991-3.495 1.477-.447.186-.877.417-1.35.536-.238.13-.129-.102-.132-.149a860.465 860.465 0 0 1-.333-5.081c-.004-.071-.064-.181.035-.211.107-.033.107.099.14.16zm8.48-7.709c.729-.997 1.446-2.003 2.167-3.006.436-.607.869-1.216 1.313-1.817.033-.044.035-.248.189-.101.05.084.107.165.151.252.655 1.314 1.312 2.628 1.958 3.946.225.459.493.897.657 1.386.032.156-.1.171-.191.216-.892.435-1.791.856-2.674 1.309-.367.189-.606.235-1.003-.06a57.075 57.075 0 0 0-2.517-1.77c-.171-.115-.167-.196-.05-.355z"/><path fill-rule="evenodd" clip-rule="evenodd" fill="#15FFAB" d="M81.641 36.298c.939.656 1.876 1.317 2.812 1.977l3.314-1.607c0 .109-.029.163-.068.21-.813.969-1.624 1.94-2.443 2.903-.314.369-.592.769-.959 1.091-.153.223-.162-.032-.186-.073a800.408 800.408 0 0 1-2.604-4.377c-.036-.061-.14-.132-.065-.204.081-.076.142.041.199.08z"/><path fill-rule="evenodd" clip-rule="evenodd" fill="#FFF" d="M71.326 32.468c.31-1.195.607-2.395.907-3.593.182-.725.36-1.45.551-2.173.014-.054-.06-.243.138-.164.078.06.16.114.233.179 1.093.98 2.188 1.959 3.274 2.947.378.344.79.652 1.122 1.046.087.133-.03.197-.098.271-.669.734-1.35 1.455-2.003 2.202-.272.311-.477.442-.954.313a58.131 58.131 0 0 0-2.992-.718c-.202-.042-.228-.118-.178-.31z"/><path fill-rule="evenodd" clip-rule="evenodd" fill="#FFF" d="M71.827 33.245c1.115.263 2.229.533 3.343.801l2.489-2.715c.04.101.033.163.014.221-.399 1.2-.795 2.402-1.202 3.599-.156.458-.267.933-.49 1.368-.06.264-.162.029-.199.001a814.699 814.699 0 0 1-4.033-3.109c-.056-.044-.179-.071-.135-.166.046-.103.145-.017.213 0z"/><path fill-rule="evenodd" clip-rule="evenodd" fill="#15FFAB" d="M91.815 58.658c.784-.954 1.557-1.918 2.333-2.879.47-.581.936-1.165 1.414-1.74.035-.043.048-.246.194-.09.046.087.097.171.136.261.58 1.349 1.162 2.697 1.733 4.05.199.471.442.924.578 1.42.023.158-.11.166-.203.205-.915.385-1.836.754-2.743 1.157-.377.168-.619.2-.997-.117a57.922 57.922 0 0 0-2.413-1.909c-.167-.125-.159-.205-.032-.358z"/><path fill-rule="evenodd" clip-rule="evenodd" fill="#15FFAB" d="M91.943 59.573c.901.708 1.798 1.42 2.696 2.132l3.4-1.417c-.006.109-.038.162-.08.206-.866.922-1.73 1.846-2.603 2.761-.334.35-.634.735-1.019 1.035-.166.215-.16-.041-.181-.083a773.219 773.219 0 0 1-2.353-4.516c-.032-.063-.132-.14-.053-.208.084-.073.138.047.193.09z"/><path fill="#15FFAB" d="M18.907 95.584h73.352c.71 0 .711-1.104 0-1.104H18.907c-.71 0-.711 1.104 0 1.104z"/><path fill-rule="evenodd" clip-rule="evenodd" fill="#15FFAB" d="M43.38 103.056h-7.219l1.062-5.633h5.095z"/><g fill-rule="evenodd" clip-rule="evenodd" fill="#040933"><path d="M38.581 99.998c.229.335.453.674.678 1.01.137.204.272.408.411.611.01.015.003.078.065.038.022-.025.045-.048.064-.074.288-.387.577-.773.862-1.161.099-.135.214-.262.292-.408.017-.047-.03-.057-.062-.074-.309-.167-.621-.328-.926-.5-.127-.071-.212-.094-.368-.016-.322.162-.652.317-.984.464-.068.031-.069.056-.032.11z"/><path d="M38.68 99.722c.367-.172.733-.345 1.1-.519l1.149.615a.084.084 0 0 0-.017-.068c-.26-.329-.52-.66-.782-.988-.101-.125-.187-.26-.309-.373-.048-.075-.06.005-.07.016-.373.423-.744.847-1.114 1.272-.015.018-.056.036-.031.061.026.029.052-.005.074-.016z"/></g><path fill-rule="evenodd" clip-rule="evenodd" fill="#FFF" d="M53.387 103.056h-7.219l1.062-5.633h5.095z"/><g fill-rule="evenodd" clip-rule="evenodd" fill="#040933"><path d="M48.587 99.998c.229.335.453.674.678 1.01.136.204.271.408.411.611.01.015.003.078.065.038.022-.025.045-.048.064-.074.288-.387.577-.773.863-1.161.099-.135.213-.262.291-.408.017-.047-.03-.057-.062-.074-.309-.167-.621-.328-.926-.5-.127-.071-.212-.094-.368-.016a21.61 21.61 0 0 1-.984.464c-.067.031-.068.056-.032.11z"/><path d="M48.687 99.722c.367-.172.733-.345 1.1-.519l1.149.615a.084.084 0 0 0-.017-.068c-.26-.329-.52-.66-.782-.988-.101-.125-.187-.26-.309-.373-.047-.075-.06.005-.07.016-.373.423-.744.847-1.114 1.272-.015.018-.056.036-.031.061.025.029.052-.005.074-.016z"/></g><path fill-rule="evenodd" clip-rule="evenodd" fill="#15FFAB" d="M63.394 103.056h-7.219l1.062-5.633h5.095z"/><g fill-rule="evenodd" clip-rule="evenodd" fill="#040933"><path d="M58.595 99.998c.229.335.453.674.678 1.01.137.204.271.408.411.611.01.015.003.078.065.038.021-.025.045-.048.064-.074.288-.387.577-.773.862-1.161.099-.135.214-.262.291-.408.017-.047-.03-.057-.062-.074-.309-.167-.621-.328-.926-.5-.127-.071-.212-.094-.368-.016-.322.162-.652.317-.985.464-.066.031-.067.056-.03.11z"/><path d="M58.694 99.722c.367-.172.733-.345 1.1-.519l1.149.615a.084.084 0 0 0-.017-.068c-.26-.329-.52-.66-.782-.988-.101-.125-.187-.26-.309-.373-.047-.075-.06.005-.07.016-.373.423-.744.847-1.114 1.272-.015.018-.056.036-.031.061.025.029.052-.005.074-.016z"/></g><path fill-rule="evenodd" clip-rule="evenodd" fill="#FFF" d="M73.401 103.056h-7.219l1.061-5.633h5.096z"/><g fill-rule="evenodd" clip-rule="evenodd" fill="#040933"><path d="M68.601 99.998c.229.335.453.674.678 1.01.137.204.271.408.411.611.01.015.003.078.065.038.022-.025.045-.048.065-.074.288-.387.577-.773.862-1.161.099-.135.214-.262.292-.408.017-.047-.03-.057-.062-.074-.309-.167-.621-.328-.926-.5-.127-.071-.212-.094-.368-.016-.322.162-.652.317-.985.464-.067.031-.068.056-.032.11z"/><path d="M68.701 99.722c.367-.172.733-.345 1.1-.519l1.149.615a.084.084 0 0 0-.017-.068c-.26-.329-.52-.66-.782-.988-.101-.125-.187-.26-.309-.373-.047-.075-.06.005-.07.016-.373.423-.744.847-1.114 1.272-.015.018-.056.036-.031.061.025.029.052-.005.074-.016z"/></g><path fill="#15FFAB" d="M55.398 10.335L8.714 37.249v53.826l46.684 26.911 46.686-26.911V37.249L55.398 10.335zm44.796 79.656l-44.796 25.828L10.6 89.991V38.343l44.798-25.827 44.796 25.827v51.648z"/><path d="M20.183 23.554l2.263 1.822-.491-3.067 2.361 1.993-.377-2.906.576-.331.576 4.637-2.333-1.97.489 3.032-3.639-2.88.575-.33zm4.808-2.263a.366.366 0 0 1-.035-.288.371.371 0 0 1 .178-.233.372.372 0 0 1 .293-.038.362.362 0 0 1 .232.178c.053.092.066.19.038.293a.362.362 0 0 1-.178.232.372.372 0 0 1-.293.038.37.37 0 0 1-.235-.182zm1.118.583l1.273 2.216-.512.294-1.273-2.216.512-.294zm.226-2.293l2.207 3.842-.512.294-2.207-3.842.512-.294zm2.282-1.31l.514-.295 2.207 3.842-.514.295-.134-.233c-.088.313-.26.543-.515.689a1.127 1.127 0 0 1-.946.102c-.328-.112-.59-.337-.784-.675-.19-.331-.249-.664-.178-.999.069-.336.253-.59.552-.762.259-.149.552-.176.879-.081l-1.081-1.883zm.352 3.425c.122.213.278.353.469.421.194.068.38.051.558-.051a.68.68 0 0 0 .347-.46.878.878 0 0 0-.12-.615.873.873 0 0 0-.47-.414.669.669 0 0 0-.569.063.65.65 0 0 0-.326.454.844.844 0 0 0 .111.602zm3.521-3.36l.391.68a1.45 1.45 0 0 0-.482-.113.715.715 0 0 0-.368.102.733.733 0 0 0-.364.478.821.821 0 0 0 .1.617.837.837 0 0 0 .478.406.714.714 0 0 0 .59-.073.749.749 0 0 0 .28-.266c.061-.104.111-.265.148-.485l.388.676c-.146.227-.323.4-.531.519a1.374 1.374 0 0 1-1.05.162 1.279 1.279 0 0 1-.823-.632 1.294 1.294 0 0 1-.13-1.038c.103-.362.324-.64.664-.835a1.49 1.49 0 0 1 .709-.198zm2.075-1.319l.514-.295 1.273 2.216-.514.295-.133-.232c-.098.318-.268.547-.51.686a1.127 1.127 0 0 1-.95.104c-.328-.112-.59-.337-.784-.675-.191-.332-.25-.666-.179-1.002.072-.335.257-.589.555-.761.258-.148.55-.175.877-.08l-.149-.256zm-.582 1.799c.122.212.278.353.469.42.194.068.38.051.558-.051a.676.676 0 0 0 .347-.46.874.874 0 0 0-.12-.614.873.873 0 0 0-.47-.414.669.669 0 0 0-.569.063.653.653 0 0 0-.327.454.844.844 0 0 0 .112.602zm1.742-2.465l.512-.294.114.198c.037-.153.082-.268.134-.346.053-.08.13-.15.231-.209a.963.963 0 0 1 .499-.111l.035.603a.563.563 0 0 0-.344.059c-.279.16-.298.451-.055.873l.66 1.149-.512.294-1.274-2.216zm2.441-3.566l.514-.295 2.207 3.842-.514.295-.133-.232c-.088.313-.26.543-.515.689a1.127 1.127 0 0 1-.946.102c-.328-.112-.59-.337-.784-.675-.19-.331-.249-.664-.178-.999.069-.336.253-.59.552-.761.259-.149.553-.176.879-.081l-1.082-1.885zm.352 3.425c.122.212.278.352.469.421.194.068.38.051.558-.051a.676.676 0 0 0 .347-.46.874.874 0 0 0-.12-.614.873.873 0 0 0-.47-.414.665.665 0 0 0-.569.064.65.65 0 0 0-.326.454.844.844 0 0 0 .111.6z" fill="#FFF"/><path d="M73.098 13.999l-1.225-.701-.483.845 1.182.676-.285.499-1.182-.676-.958 1.674-.531-.304 2.012-3.516 1.755 1.005-.285.498zm.572 1.389l-1.269 2.218-.512-.293 1.269-2.218.512.293zm-.062-1.26a.363.363 0 0 1 .231-.176.37.37 0 0 1 .291.036.375.375 0 0 1 .181.233.363.363 0 0 1-.036.291.371.371 0 0 1-.234.181.36.36 0 0 1-.29-.036.372.372 0 0 1-.181-.233.371.371 0 0 1 .038-.296zm.711 1.631l.512.293-.113.198c.15-.045.272-.064.366-.059a.671.671 0 0 1 .297.094.95.95 0 0 1 .348.375l-.503.335a.564.564 0 0 0-.225-.268c-.28-.16-.54-.029-.781.393l-.658 1.15-.512-.293 1.269-2.218zm2.816 2.114l-.553-.017c.011-.175-.032-.291-.131-.347a.195.195 0 0 0-.147-.022.18.18 0 0 0-.119.091c-.049.085.002.225.151.422.205.272.326.485.364.637a.633.633 0 0 1-.087.479.807.807 0 0 1-.544.402.93.93 0 0 1-.673-.113c-.372-.213-.531-.545-.478-.996l.553.047c0 .141.008.235.023.282a.362.362 0 0 0 .174.214c.173.099.305.07.395-.088.052-.091.034-.214-.054-.37l-.112-.164-.114-.165a1.111 1.111 0 0 1-.189-.398.625.625 0 0 1 .088-.424.728.728 0 0 1 .472-.365.8.8 0 0 1 .6.092c.283.163.411.431.381.803zm1.074.748l-.996 1.74-.512-.293.996-1.739-.219-.125.274-.478.219.125.465-.813.512.293-.465.813.398.228-.274.478-.398-.229zm2.636 1.922l-.817 1.428-.531-.304 2.012-3.516.601.344c.294.169.505.316.632.443.128.128.217.282.268.462.089.313.047.619-.125.92-.184.322-.438.515-.761.58-.323.065-.667-.007-1.033-.217l-.246-.14zm.282-.492l.198.113c.487.279.838.231 1.053-.144.208-.363.06-.688-.442-.976l-.175-.1-.634 1.107zm2.06.784l.512.293-.113.198c.151-.045.273-.065.366-.059a.671.671 0 0 1 .297.094.95.95 0 0 1 .348.375l-.503.335a.556.556 0 0 0-.225-.267c-.279-.16-.54-.029-.781.393l-.658 1.15-.512-.293 1.269-2.219zm2.256 1.291l-1.269 2.218-.513-.293 1.269-2.218.513.293zm-.062-1.26a.366.366 0 0 1 .231-.176.37.37 0 0 1 .291.036.375.375 0 0 1 .181.233.363.363 0 0 1-.036.291.374.374 0 0 1-.234.181.36.36 0 0 1-.29-.036.372.372 0 0 1-.181-.233.38.38 0 0 1 .038-.296zm.453 3.787l1.318.754-.276.483-2.334-1.336 2.432-.917-1.132-.648.274-.478 2.145 1.227-2.427.915zm4.108 1.68l-1.589-.91a.773.773 0 0 0-.071.536.625.625 0 0 0 .312.39c.127.073.25.103.368.09.117-.014.275-.072.473-.177l.294.489a1.915 1.915 0 0 1-.379.171c-.121.039-.239.06-.354.064a1.101 1.101 0 0 1-.341-.043 1.561 1.561 0 0 1-.342-.147c-.331-.189-.536-.448-.614-.775-.078-.328-.016-.67.187-1.023.201-.351.46-.579.779-.685.319-.102.639-.06.963.125.327.187.525.439.596.755.07.314 0 .654-.209 1.02l-.073.12zm-.286-.72c.085-.314-.009-.549-.282-.706a.595.595 0 0 0-.387-.075.588.588 0 0 0-.188.063.687.687 0 0 0-.171.129l1.028.589z" fill="#15FFAB"/><g fill="#15FFAB"><circle cx="92.201" cy="27.243" r=".911"/><circle cx="68.509" cy="13.224" r=".911"/></g><path fill="#FFF" d="M74.126 109.788l.412-.239.847 1.459a.823.823 0 0 1 .371-.48.729.729 0 0 1 .598-.085c.169.054.325.205.47.455l.635 1.094-.412.239-.613-1.056c-.083-.143-.169-.232-.256-.267-.088-.035-.188-.019-.301.046-.144.084-.22.187-.227.31-.005.124.056.296.184.515l.501.863-.412.239-1.797-3.093zm4.135-.648l.414-.24 1.036 1.785-.414.241-.109-.187c-.078.257-.214.443-.409.556a.914.914 0 0 1-.768.088 1.15 1.15 0 0 1-.636-.542 1.11 1.11 0 0 1-.148-.808.895.895 0 0 1 .446-.617c.208-.121.444-.143.708-.068l-.12-.208zm-.464 1.455a.717.717 0 0 0 .38.338.52.52 0 0 0 .45-.043.547.547 0 0 0 .279-.373.706.706 0 0 0-.099-.496.704.704 0 0 0-.382-.332.539.539 0 0 0-.459.053.526.526 0 0 0-.262.368.687.687 0 0 0 .093.485zm2.832-2.727l.318.548a1.154 1.154 0 0 0-.39-.089.57.57 0 0 0-.297.084.587.587 0 0 0-.292.387.663.663 0 0 0 .083.498.678.678 0 0 0 .388.326c.163.05.321.029.476-.061a.608.608 0 0 0 .225-.216c.049-.084.088-.215.118-.392l.316.544a1.246 1.246 0 0 1-.427.422c-.276.16-.559.205-.848.135a1.035 1.035 0 0 1-.667-.507 1.043 1.043 0 0 1-.109-.838c.082-.293.259-.518.533-.677a1.18 1.18 0 0 1 .573-.164zm.007-1.859l1.096 1.887.246-.914.554-.322-.34 1.2 1.433.552-.535.311-1.027-.411-.028.104.399.687-.412.239-1.797-3.095.411-.238zm3.533-.3l.414-.24 1.037 1.785-.414.24-.109-.187a.914.914 0 0 1-1.177.644 1.15 1.15 0 0 1-.636-.542 1.11 1.11 0 0 1-.148-.808.895.895 0 0 1 .446-.617c.208-.121.444-.143.708-.068l-.121-.207zm-.463 1.456a.717.717 0 0 0 .38.338.52.52 0 0 0 .45-.043.547.547 0 0 0 .279-.373.706.706 0 0 0-.099-.496.704.704 0 0 0-.382-.332.539.539 0 0 0-.459.053.526.526 0 0 0-.262.368.688.688 0 0 0 .093.485zm2.046-1.86l.813 1.4-.412.239-.813-1.4-.176.102-.223-.385.176-.102-.38-.654.412-.239.38.654.321-.186.223.385-.321.186zm-.383-2.044l.412-.239.847 1.459a.823.823 0 0 1 .371-.48.725.725 0 0 1 .598-.085c.169.054.325.205.47.455l.635 1.094-.412.239-.613-1.056c-.083-.143-.169-.232-.256-.266-.088-.035-.188-.019-.301.046-.144.084-.22.187-.227.31-.005.124.056.296.184.515l.501.863-.412.239-1.797-3.094zm3.246 1.043a1.023 1.023 0 0 1-.105-.819c.08-.288.252-.509.517-.663.266-.155.545-.195.837-.121.289.076.51.246.664.511.155.268.193.545.114.833a1.093 1.093 0 0 1-.527.666 1.047 1.047 0 0 1-.832.116 1.056 1.056 0 0 1-.668-.523zm.425-.237c.104.178.233.292.389.34a.582.582 0 0 0 .478-.067.581.581 0 0 0 .296-.38.678.678 0 0 0-.097-.5c-.101-.173-.229-.284-.386-.332a.582.582 0 0 0-.478.067.576.576 0 0 0-.292.38.669.669 0 0 0 .09.492zm1.404-2.001l.414-.24.096.165a.779.779 0 0 1 .363-.497c.208-.121.408-.149.599-.086.165.053.32.205.466.457l.635 1.094-.414.24-.579-.997c-.102-.176-.197-.283-.285-.322-.087-.041-.194-.025-.32.048-.137.079-.208.181-.213.305-.004.122.058.294.187.516l.5.861-.414.24-1.035-1.784zm4.699-.879l1.054-.612.233.401-1.9 1.103.292-1.76c.028-.175.049-.324.064-.449s.023-.226.023-.305a.708.708 0 0 0-.075-.37.51.51 0 0 0-.332-.251.555.555 0 0 0-.422.066c-.286.166-.351.43-.196.793l-.425.247c-.278-.636-.15-1.109.384-1.419.258-.15.522-.193.791-.131a.922.922 0 0 1 .617.455c.089.154.136.329.14.524.003.101-.005.228-.023.38a11.36 11.36 0 0 1-.086.551l-.139.777zm.937-1.923c-.262-.451-.366-.871-.312-1.262.047-.352.204-.606.472-.762.267-.155.566-.166.895-.032.366.147.684.452.952.915.268.462.375.888.321 1.279-.047.352-.204.606-.47.76-.266.155-.565.166-.897.033-.365-.147-.686-.457-.961-.931zm.421-.242c.182.314.388.543.617.688.227.141.425.162.594.065.167-.097.247-.28.238-.548-.008-.267-.101-.555-.281-.864-.179-.309-.383-.534-.612-.674-.228-.139-.425-.16-.592-.063-.166.097-.245.278-.238.545.008.266.099.55.274.851zm2.174-2.598l-.489.284.003-.535.682-.396 1.643 2.83-.427.248-1.412-2.431zm2.508-.174a.804.804 0 0 1-.66-.418.895.895 0 0 1-.098-.713.944.944 0 0 1 .458-.575.925.925 0 0 1 1.291.332.825.825 0 0 1 .036.776.756.756 0 0 1 .423.112.921.921 0 0 1 .329.338c.146.25.183.503.112.758a.997.997 0 0 1-.489.605 1.044 1.044 0 0 1-.787.134.927.927 0 0 1-.61-.459c-.185-.319-.186-.615-.005-.89zm-.259-.654c.07.121.17.199.299.233a.474.474 0 0 0 .373-.05.471.471 0 0 0 .226-.298.468.468 0 0 0-.049-.371.471.471 0 0 0-.298-.226.472.472 0 0 0-.371.049.471.471 0 0 0-.226.298.467.467 0 0 0 .046.365zm.675 1.285a.544.544 0 0 0 .745.204.525.525 0 0 0 .252-.33.528.528 0 0 0-.056-.413.526.526 0 0 0-.331-.254.524.524 0 0 0-.411.055.53.53 0 0 0-.252.33.515.515 0 0 0 .053.408zM57.801 121.943l-.055-.094a.386.386 0 0 1-.045-.099c-.007-.028-.024-.052-.037-.077-.009-.018-.02-.036-.021-.057a.032.032 0 0 0-.003-.014.794.794 0 0 1-.045-.114l-.031-.109a1.99 1.99 0 0 1-.067-.371 2.45 2.45 0 0 1-.009-.284c.001-.072.011-.144.018-.216.006-.064.024-.126.034-.189.013-.082.039-.159.063-.237.037-.121.087-.237.146-.35.039-.074.082-.145.127-.215.025-.039.051-.078.081-.113.029-.034.052-.074.088-.103.013-.01.015-.028.029-.037a.093.093 0 0 0 .028-.031c.013-.02.035-.031.05-.049.026-.03.056-.055.085-.081.034-.03.072-.057.105-.088.032-.029.067-.053.102-.077.075-.053.15-.106.232-.147a2.616 2.616 0 0 1 .445-.183c.034-.01.067-.027.104-.026.025-.015.056-.009.082-.021.02-.01.043-.007.064-.012.047-.011.095-.016.142-.021.09-.009.181-.014.272-.013.091.001.181.012.271.02.09.009.176.036.265.048.014.002.027.007.041.012.03.01.059.022.089.029.076.017.146.049.216.079.056.024.112.048.165.076.058.031.114.065.169.1.075.047.146.099.212.156.038.032.08.06.111.101.032.016.044.053.076.07.008.004.013.014.018.021.011.015.022.03.038.042a.084.084 0 0 1 .022.024c.014.019.026.039.047.053.01.007.017.019.023.029.021.032.041.064.067.092.028.031.048.066.069.102l.075.127a.565.565 0 0 1 .055.11c.011.033.028.064.044.094.01.018.021.036.021.057a.605.605 0 0 1 .043.119c.006.021.015.04.019.063.004.026.015.051.021.077a2.173 2.173 0 0 1 .072.547c.001.056-.006.112-.003.168-.016.113-.023.228-.053.339-.008.032-.012.065-.021.096-.015.052-.033.102-.048.154-.017.057-.043.11-.065.166-.052.13-.123.25-.197.368-.038.041-.062.093-.101.134-.015.015-.026.034-.041.051-.032.036-.06.076-.095.109-.026.025-.047.056-.079.075-.061.069-.137.12-.207.18l-.007.006c-.091.06-.177.128-.276.175-.074.035-.145.076-.223.105a3.415 3.415 0 0 0-.141.054c-.03.012-.063.019-.095.029a.704.704 0 0 1-.118.03c-.048.008-.093.026-.142.025a1.557 1.557 0 0 1-.288.031 1.604 1.604 0 0 1-.277-.009c-.043-.006-.087-.007-.13-.014-.053-.008-.104-.021-.157-.03-.1-.015-.193-.054-.29-.081-.051-.015-.098-.041-.148-.06a2.24 2.24 0 0 1-.576-.365c-.039-.034-.075-.072-.113-.107-.028-.026-.048-.058-.08-.08-.006-.004-.011-.012-.015-.018a.29.29 0 0 0-.058-.068c-.013-.01-.021-.027-.03-.042a.514.514 0 0 0-.06-.079.224.224 0 0 1-.029-.038 1.701 1.701 0 0 0-.07-.124zm1.494-.913c.043-.035.082-.072.126-.101.09-.059.18-.117.281-.157.041-.016.078-.042.119-.057.075-.027.143-.067.211-.107a.45.45 0 0 0 .103-.076.1.1 0 0 1 .026-.02c.037-.02.057-.059.091-.081.045-.061.093-.12.119-.194a.407.407 0 0 0-.008-.312.612.612 0 0 0-.065-.11.377.377 0 0 0-.156-.126.528.528 0 0 0-.219-.046.567.567 0 0 0-.192.029c-.004.002-.009.002-.014.002-.015-.002-.028.006-.04.012a2.005 2.005 0 0 0-.179.106c-.009.006-.02.011-.024.022-.007.016-.021.023-.033.033-.006.005-.014.009-.018.015-.025.037-.058.069-.084.106a.806.806 0 0 0-.107.203 1.066 1.066 0 0 0-.024.643c.008.03.012.062.028.09a.239.239 0 0 1 .019.053.114.114 0 0 0 .04.073zm.263-.015c-.02.012-.04.025-.061.036-.023.012-.04.031-.057.049-.005.006-.013.009-.019.014-.022.017-.05.027-.065.053-.014.024-.049.031-.057.061a.534.534 0 0 0-.085.134.384.384 0 0 0-.006.323.43.43 0 0 0 .385.256.473.473 0 0 0 .237-.04c.008-.004.018-.005.027-.007a.138.138 0 0 0 .027-.008.744.744 0 0 0 .225-.169.833.833 0 0 0 .205-.359c.014-.044.017-.089.026-.134a.618.618 0 0 0 .01-.121c0-.08-.008-.16-.024-.239-.005-.022-.015-.041-.019-.063-.007-.047-.029-.089-.044-.134a.119.119 0 0 0-.013-.025c-.007-.012-.013-.013-.026-.003-.032.024-.065.045-.093.074a.207.207 0 0 1-.038.028l-.18.105a.304.304 0 0 1-.052.023.454.454 0 0 0-.078.035c-.026.014-.052.031-.08.041a.627.627 0 0 0-.145.07zm8.801-4.885l.465.789c.012.02.024.039.035.06.017.034.013.049-.02.072a.891.891 0 0 1-.052.031l-.372.219c-.119.069-.095.075-.165-.039l-.044-.074a.062.062 0 0 0-.016-.02c-.006-.005-.015-.007-.022.001a.086.086 0 0 0-.018.048.687.687 0 0 1-.129.304c-.032.045-.063.096-.117.123a.109.109 0 0 0-.033.027.398.398 0 0 1-.226.133.098.098 0 0 0-.032.013c-.088.047-.184.053-.281.06a.958.958 0 0 1-.329-.038.946.946 0 0 1-.263-.119 3.408 3.408 0 0 1-.098-.068.603.603 0 0 1-.132-.12c-.012-.016-.022-.034-.038-.047-.088-.075-.132-.181-.188-.277-.01-.017-.013-.038-.019-.057-.006-.019-.009-.04-.018-.057a.807.807 0 0 1-.066-.281.995.995 0 0 1 .064-.471c.036-.093.089-.178.147-.26.042-.06.11-.092.147-.154.086-.051.161-.122.266-.135.008-.001.017-.005.024-.008a.603.603 0 0 1 .336-.034.514.514 0 0 1 .134.032.131.131 0 0 0 .059.01c.011-.001.014-.011.011-.018-.008-.018-.018-.036-.028-.054l-.069-.12c-.01-.018-.005-.033.012-.044.029-.019.057-.039.087-.057l.335-.197c.032-.019.066-.034.1-.05.018-.008.034-.003.044.015l.036.059.473.803zm-1.442.843a.51.51 0 0 0 .191.192.442.442 0 0 0 .391.058.13.13 0 0 1 .034-.008c.036-.003.065-.021.096-.037.055-.029.082-.089.132-.123a.55.55 0 0 0 .094-.339c-.004-.052-.022-.1-.033-.149a.297.297 0 0 0-.057-.125.634.634 0 0 0-.241-.201.472.472 0 0 0-.567.125.448.448 0 0 0-.077.122.546.546 0 0 0 .037.485zm4.784-2.883l.483.82c.033.055.048.064-.025.107l-.447.263-.015.008c-.039.02-.047.019-.07-.017l-.062-.104c-.007-.012-.014-.025-.023-.036a.035.035 0 0 0-.02-.012c-.012-.002-.014.009-.014.017a.677.677 0 0 1-.255.455c-.007.005-.015.01-.02.017a.444.444 0 0 1-.204.141c-.081.034-.165.071-.254.075a.644.644 0 0 1-.458-.132.43.43 0 0 1-.1-.104c-.008-.012-.015-.026-.026-.034-.053-.039-.083-.095-.115-.15l-.646-1.095c-.04-.067-.039-.069.024-.106l.432-.255.03-.017c.031-.015.048-.012.067.015.013.019.024.039.036.059l.448.76c.035.06.072.118.109.176a.558.558 0 0 0 .209.172.173.173 0 0 0 .1.018c.095-.018.195-.029.254-.123.017-.026.047-.039.063-.069a.366.366 0 0 0 .032-.251.732.732 0 0 0-.092-.24c-.163-.272-.323-.546-.483-.819-.066-.112-.067-.096.041-.159l.387-.228a.507.507 0 0 1 .061-.032c.015-.007.029-.002.038.011.015.021.028.044.041.066l.474.803zm-7.976 5.081l.223-.132c.034-.02.047-.028.079.012a.207.207 0 0 0 .202.084.495.495 0 0 0 .231-.088c.04-.03.067-.071.096-.109a.105.105 0 0 0 .01-.106c-.032-.078-.075-.11-.159-.103a1.11 1.11 0 0 0-.162.024c-.117.026-.233.061-.351.081-.111.019-.221.051-.336.048a.557.557 0 0 1-.263-.059.328.328 0 0 1-.136-.114.144.144 0 0 0-.027-.033.195.195 0 0 1-.061-.102c-.004-.017-.012-.033-.019-.048-.082-.166-.055-.328.027-.483a.431.431 0 0 1 .124-.161c.023-.05.07-.075.112-.104a.222.222 0 0 0 .033-.028c.092-.1.217-.149.331-.215a.31.31 0 0 0 .129-.044c.038-.024.086-.008.124-.033.133-.015.266-.025.395.028.097.04.182.095.248.177.016.02.034.04.049.06.027.036.023.049-.017.076l-.03.018-.395.233a1.04 1.04 0 0 1-.045.026c-.025.012-.043.007-.061-.013-.011-.013-.02-.028-.032-.041a.181.181 0 0 0-.125-.065c-.086-.004-.167.015-.226.083-.028.032-.064.056-.078.101-.029.091.03.195.125.206a.43.43 0 0 0 .129-.004c.107-.02.214-.046.32-.069.133-.029.265-.071.402-.079a.525.525 0 0 1 .299.051.372.372 0 0 1 .103.076c.06.069.112.143.147.231.072.179.045.347-.028.514a.73.73 0 0 1-.136.184c-.027.025-.04.062-.076.081a.28.28 0 0 0-.084.06c-.054.063-.127.099-.196.14a.373.373 0 0 1-.102.045.28.28 0 0 0-.08.032c-.062.041-.134.052-.203.068a.687.687 0 0 1-.177.021.69.69 0 0 1-.243-.042.486.486 0 0 1-.219-.144c-.054-.028-.081-.079-.111-.127l-.013-.023c-.011-.023-.009-.035.015-.05l.141-.084.097-.057zm9.291-6.327l-.201.118a.897.897 0 0 1-.053.029c-.015.007-.028.003-.038-.01-.017-.023-.032-.047-.055-.066-.103-.084-.241-.055-.331.023a.505.505 0 0 0-.059.063c-.062.08-.057.194.061.249.01.005.022.006.033.006.052.001.103.002.154-.009.106-.023.213-.044.319-.071.074-.019.149-.042.225-.054a.932.932 0 0 1 .329-.011c.093.018.17.062.241.12.011.009.018.022.026.035l.081.133c.086.144.086.297.048.454-.026.105-.089.189-.148.277-.055.04-.087.107-.151.137a.172.172 0 0 0-.048.037.79.79 0 0 1-.308.185.498.498 0 0 0-.072.03.855.855 0 0 1-.439.084.633.633 0 0 1-.509-.321c-.018-.034-.015-.05.02-.071l.439-.259.015-.008c.033-.014.053-.012.074.02.041.061.1.083.169.081.099-.002.249-.055.311-.141.029-.04.06-.075.063-.127.002-.047-.042-.11-.086-.126a.24.24 0 0 0-.127-.009c-.082.015-.162.037-.244.052-.09.016-.177.046-.269.055-.042.004-.083.019-.125.026a1.03 1.03 0 0 1-.287.008.447.447 0 0 1-.312-.194.59.59 0 0 1-.117-.438.607.607 0 0 1 .112-.265c.034-.049.074-.093.113-.138.013-.015.031-.025.047-.037.028-.02.057-.036.076-.069.009-.016.03-.026.047-.037l.177-.108c.042-.025.084-.05.135-.056a.097.097 0 0 0 .04-.015.604.604 0 0 1 .221-.059c.051-.006.101-.01.152-.01a.575.575 0 0 1 .336.113.47.47 0 0 1 .165.183c.011.024.009.034-.014.05l-.015.009-.221.132zm-4.296 3.033l-.228-.387-.031-.052c-.019-.028-.037-.033-.066-.018-.046.024-.09.052-.135.078-.02.011-.04.024-.061.033-.03.013-.048.007-.065-.02l-.071-.119c-.04-.067-.08-.134-.118-.201-.023-.04-.019-.052.021-.077.046-.029.094-.056.141-.084l.051-.032c.017-.011.02-.029.013-.046a.395.395 0 0 0-.032-.061l-.224-.38c-.043-.074-.043-.074.031-.118l.402-.237a.505.505 0 0 1 .045-.025.033.033 0 0 1 .039.009.435.435 0 0 1 .038.057l.219.372c.057.096.053.083.136.035l.231-.136a.507.507 0 0 1 .061-.032c.014-.006.028-.003.038.011l.014.022.184.313c.021.035.018.05-.012.074-.016.012-.033.022-.051.033l-.223.132-.051.032c-.016.011-.02.028-.013.046.005.013.013.026.02.038.117.199.235.397.351.596.03.051.068.092.11.132a.216.216 0 0 0 .082.046c.029.01.058.011.092.002a.671.671 0 0 0 .252-.129l.021-.015c.022-.014.038-.012.052.007a.175.175 0 0 1 .018.029l.184.313a.455.455 0 0 1 .02.038c.011.024.008.038-.013.052-.125.081-.231.19-.369.254-.031.015-.06.034-.095.038-.019.002-.038.012-.056.021a.486.486 0 0 1-.531-.055.774.774 0 0 1-.212-.233c-.067-.119-.138-.237-.209-.356.001 0 .001 0 0 0zm-3.491 2.051l-.224-.38c-.012-.02-.023-.04-.036-.059-.015-.022-.036-.027-.061-.015-.023.011-.045.025-.068.038-.04.023-.079.048-.12.069-.039.02-.057.015-.079-.021-.062-.104-.124-.208-.184-.313-.025-.044-.022-.054.024-.082l.163-.097c.048-.029.051-.04.024-.09l-.065-.112-.171-.29a.708.708 0 0 1-.032-.061c-.006-.014-.003-.028.011-.038l.022-.014.447-.263c.039-.023.054-.019.079.017.012.016.021.034.031.052l.202.342.031.052c.026.039.037.043.077.019l.261-.153c.101-.06.092-.051.143.034l.158.268c.026.045.024.055-.017.086a.438.438 0 0 1-.058.037l-.208.123a.554.554 0 0 0-.051.033c-.016.012-.018.029-.012.046.006.016.016.031.024.046.111.189.223.377.333.566a.591.591 0 0 0 .132.158.175.175 0 0 0 .174.039.659.659 0 0 0 .244-.125.18.18 0 0 1 .029-.019c.014-.006.029-.004.039.008a.442.442 0 0 1 .025.035l.184.313c.006.01.012.02.016.03.012.027.008.042-.015.06l-.05.034c-.023.017-.048.032-.069.052-.081.08-.184.128-.281.184a.157.157 0 0 1-.049.016.28.28 0 0 0-.073.027.482.482 0 0 1-.523-.054.752.752 0 0 1-.209-.226c-.072-.125-.146-.248-.219-.372h.001z"/></svg>