<svg enable-background="new 0 0 110.875 128.0417" viewBox="0 0 110.875 128.0417" xmlns="http://www.w3.org/2000/svg"><path d="m110.8732 32.0883v64l-55.42 32-44.35-25.6-.2-.12-10.88-6.28v-64l55.43-32z" fill="#6c9b68"/><path d="m101.9615 37.7083v53.14l-.01.0099-1.09.6201-.33.1899-.13.07-.88.51-3.14 1.81-.2.12-1.93 1.11-.16.09-1.48.86-.47.27-.14.08-.47.27-.24.13-.03.01-.1.04-.11.0699-3.03 1.7401-.82.47-1.05.6-.04.03-1.23.71-.45.2599-.02.02h-.01l-1.54.89-.87.52-1.26.72-.05.03-.07.04-.08.05-.41.24-.03.01-.05.03-.05.02-.06.04v.01l-.78.45-.18.09-.02.02-.04.02-1.01.58-.14.08-.15.09-.05.03-.32.18-.24.14h-.01l-.07.04-.64.38-.2.12-.33.19-.25.14c0 .01-.01.01-.01.01l-.47.27-.42.24-.04.03-.57.33-2.33 1.34-.63.36-.06.03-3.5 2.03-.02.0099-.0099.01-.4.23-.35.2-.5.29-.14.08-1.25.72-.98.57-.39.22-.01.01-.43.25-.4.23-2.36 1.36-.36.21-.04.02-.18.1-.5.29-1.87 1.08-.56.32h-.01l-.32.19-.48.28-.14-.08-1.28-.74-.85-.49-.03-.01-.91-.53-.17-.1-.05-.03-.61-.35-.17-.1-3.36-1.94-.04-.03-2.07-1.19-4.75-2.76-.61-.35-.69-.39-.93-.54-.22-.12-.09-.06-.03-.02-2.23-1.29-1.22-.71-.37-.21-.39-.22-.23-.13-.26-.15-.24-.15-.09-.05-.35-.2-.08-.05-.08-.04-.04-.03-1.3-.74-.05-.03-.15-.08-.37-.22-1.71-.99-2.51-1.46-2.09-1.2-.82-.47-.09-.05-.5-.29-.01-.01-.21-.12h-.0099l-1.04-.6c-.01-.01-.01-.01-.02-.01l-1.86-1.08-1.02-.59-1.33-.77-.72-.43-.04-.02-.02-.01-.29-.17s-.01 0-.02-.01l-.26-.15-.02-.01-3.3-1.9-3.41-1.97-.09-.05-.08-.04-.03-.02v-53.14l5.66-3.26.77-.46h.01l.25-.14.58-.33 1.75-1.01 2.27-1.31.82-.48.15-.09 2.07-1.19.98-.57 1.01-.59.42-.24.45-.26.25-.14h.01l.57-.33 3.23-1.86 1.58-.92.17-.09 1.66-.95.78-.45.38-.22.44-.26 1.1-.65.52-.3 2.28-1.3.69-.41 1.4-.8h.01l.05-.03 5.72-3.3.19-.11.27-.16 6.07-3.51 1.44-.83 1.06.62 6.4901 3.75 2.6 1.5 3.95 2.28 1.34.77 6.64 3.83 1.04.61 2.3 1.31.87.5 1.52.88 1.37.79.8.46.09.06 1.81 1.04 3.78 2.18.04.03v.01l.26.14.26.16.4.23.92.53.54.31.02.01 1.92 1.11.78.44.4399.25 1.94 1.12z" fill="#fff"/><path d="m96.8365 34.745-.53-.3-.72-.42-.77-.45-.11-.06-.49-.28-.51-.29-.9-.52-7.25-4.18-1.71-.98-.72-.42-.45-.26-.49-.29-.05-.02-.42-.25-.41-.24-5.33-3.07-19.5-11.24-.53-.31-.47.27-17.11 9.88-5.02 2.9-1.3.75-.53.31-.1.05c-.01 0-.01 0-.01 0l-.25.15-.42.25-.3.17-.27.16-.18.1-1.5.87h-.01l-1.78 1.02-.0099.01-.58.34-.76.43-.01.0099-.03.02-3.25 1.87h-.01l-2.38 1.37-1 .58-2.98 1.72-4.23 2.4399-1.54.89v53.12l.07.04 1.72 1 .75.43.15.08 4.32 2.5.69.39 4 2.32.46.26 1.3.75 3.3799 1.95 5.38 3.1.69.4.07.04.15.08.11.07.18.1.04.02 1.91 1.11.88.5 1.33.78.89.5099.1801.1.31.18.19.11.48.28 3.57 2.05.09.05.44.26.62.36.72.42h.01l.53.3 1.51.87 3.17 1.84 4.48 2.58 1.03.6.23.13.02-.0099.19-.11.14-.08.03-.02.31-.18 1.81-1.03.09-.05.69-.4.5-.29.24-.14 3.85-2.22 2.45-1.41.74-.43.66-.38.67-.39.44-.26 2.33-1.34.39-.22h.0099l.23-.14.21-.12.63-.36.8-.46 1.2599-.73.46-.27h.01l.46-.27.0099-.01.25-.14.53-.31.37-.21.35-.21.55-.31.21-.13.32-.18.43-.24.02-.01.05-.03.13-.08.24-.13 3.78-2.18.38-.22 1.11-.65 2.97-1.71 1.56-.9 8.53-4.92h.01l.06-.04 2.65-1.53.9-.52 1.03-.59v-53.12zm3.3 55.0299-.52.3-.32.18-.58.34-7.59 4.38-4.67 2.69-3.12 1.8-1.28.7401-.72.41-2.93 1.69-.07.05-.16.09-.18.11-.57.32-.89.51-.22.13-.05.03-.81.47-.09.05-3.91 2.25-.08.05-.79.45-.08.05-.91.53-2.15 1.24-1.54.89-1.68.97-1.1.63-2.97 1.72-1.23.71-.06.04h-.02l-.75.44-.28.15-1.8701 1.08-3.45-1.9901-1.23-.71-.61-.35-1.81-1.05-.72-.41-.69-.4-5.26-3.03-.77-.45-.05-.03-1.79-1.03-2.0601-1.18-.9-.52-.58-.34-.25-.15-.43-.25-.21-.12-1.75-1.01-.31-.18-.19-.11-1.5-.8701-3.42-1.97-3.91-2.26-1.76-1.01-3.42-1.97-4.91-2.84-.9-.51-.39-.23-.23-.13-.67-.39v-50.97l3.91-2.26 2.98-1.72.93-.54h.01l.06-.04 3.2-1.85h.01l1.36-.79h.01l1.79-1.03 1.25-.72.43-.25h.01l.76-.44.46-.27h.01l2.98-1.72c.0099-.01.0099-.01.02-.01l.78-.45.35-.2.2-.12.29-.17.17-.1.27-.15.04-.02 8.03-4.64 13.39-7.73.47-.27.53.31 16.83 9.71 6.98 4.03.05.03.32.18.11.06.44.26.35.2 1.23.71 1.94 1.12 7.02 4.04 1.41.81.55.32.04.03.77.44.19.11.54.31.53.31 4.36 2.51v50.9701z" opacity=".13"/><path d="m69.0568 115.1631 1.5654-.8994.0713.1231c.1651.2851.2754.5586.336.8144.0498.2412.0488.4951-.0049.7617-.1241.5977-.4571 1.0518-1 1.3653-.5303.3047-1.0938.375-1.6924.2099-.5996-.167-1.0537-.5205-1.3633-1.0586-.3164-.5498-.3926-1.1259-.2285-1.7304s.5205-1.0664 1.0723-1.3848c.2959-.1699.6074-.2686.9335-.2959.3135-.0215.669.0361 1.0616.1699l-.1836.626c-.5488-.2353-1.0469-.2246-1.4922.0322-.4024.2305-.6582.5616-.7705.9961-.1153.4268-.0547.8457.1806 1.2549.2422.4229.5928.6826 1.0528.7813.4297.0898.8086.04 1.1416-.1504.2803-.1612.4775-.4004.5928-.7188.1132-.3203.1084-.6191-.0176-.9023l-.9463.5439z" fill="#15003e"/><path d="m72.6488 110.8309h.6595v4.3716h-.6595z" fill="#15003e" transform="matrix(.8665 -.4992 .4992 .8665 -46.674 51.5193)"/><path d="m75.7462 109.6123 1.8702 3.252-.5703.3281-1.8711-3.25-.8711.501-.3096-.5371 2.3105-1.3301.3086.5371z" fill="#15003e"/><path d="m80.9045 106.1983.3886.6767c-.4902-.0869-.9121-.0283-1.2646.1748-.3887.2247-.6377.5538-.7432.9854-.1084.4326-.0459.8506.1856 1.2529.2275.3975.5566.6563.9814.7754.4258.1182.832.0655 1.2236-.1582.1993-.1162.3526-.2471.4551-.3935.0596-.0782.1162-.168.168-.2725.0517-.1045.1025-.2227.1504-.3555l.3974.6905c-.2197.375-.5117.665-.8711.873-.541.3115-1.1113.3867-1.7109.2305-.6016-.1621-1.0566-.5117-1.3672-1.0498-.2773-.4824-.3633-1.0049-.2627-1.5664.124-.6895.501-1.2129 1.124-1.5713.3399-.1963.7217-.294 1.1456-.292" fill="#15003e"/><path d="m83.6759 106.0284c-.3066-.5332-.374-1.1036-.2041-1.71.17-.6074.5274-1.0684 1.0733-1.3838.54-.3096 1.1142-.3828 1.7217-.2197.6113.1641 1.0712.5156 1.3828 1.0566.3125.544.3857 1.1192.2138 1.7227-.1718.6055-.5341 1.0683-1.0869 1.3857-.4892.2832-1.0263.3643-1.6103.251-.6446-.1269-1.1407-.4951-1.4903-1.1025m.5791-.3252c.2412.4179.5801.6816 1.0166.789.4346.1084.836.0576 1.2032-.1533.3974-.2285.6533-.5586.7695-.9902.1123-.4356.0557-.8526-.1758-1.251-.2324-.4043-.5615-.665-.9883-.7822-.4267-.1211-.8388-.0674-1.2343.1611-.3946.2275-.6475.5557-.7608.9863-.1152.4287-.0586.8418.1699 1.2403" fill="#fff"/><path d="m89.6314 101.054h.6597v4.3706h-.6597z" fill="#15003e" transform="matrix(.8663 -.4995 .4995 .8663 -39.5418 58.7382)"/><path d="m93.5568 103.6915-2.3291-4.0469 4.4277 1.3008-1.5156-2.6338.5703-.3282 2.3145 4.0206-4.4239-1.294 1.5274 2.6523z" fill="#15003e"/><ellipse cx="69.3065" cy="38.5447" fill="#75ba6e" opacity=".47" rx="18.5" ry="8.25"/><ellipse cx="35.6399" cy="57.0447" fill="#75ba6e" opacity=".47" rx="18.5" ry="8.25"/><ellipse cx="70.8065" cy="72.0447" fill="#75ba6e" opacity=".47" rx="18.5" ry="8.25"/><ellipse cx="38.8065" cy="83.7113" fill="#75ba6e" opacity=".47" rx="18.5" ry="8.25"/><path d="m62.2738 91.9041h-3.7733c-.5137 0-1.7054-.1331-1.7054-2.5369h4.0608c-.0001 0 .6845 1.1544 1.4179 2.5369zm-15.4788 0h5.2247c.5137 0 1.7054-.1331 1.7054-2.5369h-4.3117s-1.4619 1.5191-2.6184 2.5369z" fill="#6c9b68"/><path d="m62.2739 92.5743h-3.7734c-.8873 0-2.3758-.4166-2.3758-3.2072 0-.3701.3002-.6703.6703-.6703h4.0608c.2368 0 .4559.1248.5766.3285.007.0116.7011 1.1841 1.4334 2.5646.1103.2077.1036.4582-.0177.6598-.1209.2012-.3391.3246-.5742.3246zm-4.7701-2.5369c.1536 1.1963.7297 1.1963.9967 1.1963h2.6475c-.2778-.5021-.5196-.9243-.677-1.1963zm-5.4841 2.5369h-5.2248c-.279 0-.5286-.1728-.6272-.4338-.0983-.261-.025-.5554.1844-.7398 1.1227-.9877 2.564-2.4834 2.5785-2.4985.1263-.1312.3008-.2054.4829-.2054h4.3116c.3701 0 .6703.3002.6703.6703.0001 2.7906-1.4883 3.2072-2.3757 3.2072zm-3.5223-1.3406h3.5223c.2671 0 .8431 0 .9967-1.1963h-3.3195c-.2461.2519-.6927.7043-1.1995 1.1963z" fill="#15003e"/><circle cx="51.3635" cy="91.3636" fill="#15003e" r=".245"/><circle cx="52.0357" cy="91.3635" fill="#15003e" r=".245"/><path d="m49.6204 91.904h-.6715v-1.0965c0-.5426.3369-.8795.8795-.8795h3.8287v.6715h-3.8287c-.1749 0-.208.0332-.208.208z" fill="#15003e"/><path d="m59.7349 92.2397c-.1106 0-.2086-.0535-.2697-.1359-.1228.1647-.4178.165-.54-.0003-.0611.0826-.1594.1362-.27.1362-.1853 0-.3357-.1504-.3357-.3357v-1.2685c0-.1853.1504-.3357.3357-.3357.1106 0 .2089.0535.27.1362.1222-.1653.4172-.165.54-.0003.0611-.0823.1591-.1359.2697-.1359.1853 0 .3357.1504.3357.3357v1.2685c.0001.1853-.1503.3357-.3357.3357z" fill="#15003e"/><path d="m50.2407 48.6152s-.0146 1.2404 1.3391 2.4946h6.2095s1.8876-2.3446 3.0477-2.9267c0 0-2.41 1.2529-6.017 1.2529s-4.5793-.8208-4.5793-.8208z" fill="#490d0d"/><path d="m49.1915 51.1098h11.4456v3.0162h-11.4456z" fill="#6c9b68"/><path d="m60.6371 54.4616h-11.4455c-.1853 0-.3357-.1504-.3357-.3357v-3.0161c0-.1853.1504-.3357.3357-.3357h11.4455c.1853 0 .3357.1504.3357.3357v3.0161c.0001.1853-.1504.3357-.3357.3357zm-11.1098-.6714h10.7741v-2.3446h-10.7741z" fill="#15003e"/><path d="m56.8306 52.8656c-.117 0-.2197-.0596-.2799-.1501-.0602.0905-.1629.1501-.2799.1501s-.2197-.0596-.2799-.1501c-.0602.0905-.1629.1501-.2799.1501-.1853 0-.3357-.1504-.3357-.3357v-1.42c0-.1853.1504-.3357.3357-.3357.117 0 .2197.0596.2799.1501.0602-.0905.1629-.1501.2799-.1501s.2197.0596.2799.1501c.0602-.0905.1629-.1501.2799-.1501.1853 0 .3357.1504.3357.3357v1.42c0 .1853-.1504.3357-.3357.3357z" fill="#15003e"/><path d="m54.8197 50.5309c-2.0485 0-5.0314-.519-6.525-1.4811-.1559-.1004-.2007-.3081-.1004-.464.1004-.1556.309-.2007.464-.1004 1.3857.8926 4.2089 1.3741 6.1614 1.3741 1.9882 0 4.9069-.5237 6.1552-1.3697.153-.1044.3619-.0643.4661.0896.1042.1533.064.3622-.0896.4661-1.3718.9297-4.3983 1.4854-6.5317 1.4854z" fill="#25e899"/><path d="m54.9744 51.0412c-.0265 0-.0527 0-.0791 0h-.1513c-1.3749-.0003-3.2509.0009-6.3734-1.038-.176-.0585-.2711-.2487-.2127-.4245.0585-.176.2485-.2709.4245-.2127 3.0196 1.0049 4.8463.9953 6.1614 1.0037h.1519c1.3392.0052 3.1424.0009 6.1616-1.0037.1757-.0582.366.0367.4245.2127.0585.1757-.0367.366-.2127.4245-3.0627 1.019-4.9296 1.038-6.2947 1.038z" fill="#25e899"/><path d="m54.0999 52.2741h-1.5643c-.1853 0-.3357-.1504-.3357-.3357s.1504-.3357.3357-.3357h1.5643c.1853 0 .3357.1504.3357.3357s-.1504.3357-.3357.3357z" fill="#15003e"/><circle cx="54.1" cy="51.9383" fill="#15003e" r=".245"/><path d="m58.4682 86.1333c-1.747-2.0032-2.7607-4.602-3.2955-7.3678-.7639 3.2227-1.8407 6.0659-3.1723 7.6995-.8233 1.01-1.7024 1.986-2.587 2.9022h11.4424c-.6553-1.0485-1.4388-2.1461-2.3876-3.2339z" fill="#630f0f"/><path d="m60.8559 90.0374h-11.4423c-.2688 0-.5117-.1609-.6171-.4085-.105-.2476-.0521-.5339.1347-.7273.9298-.9633 1.7878-1.9254 2.5497-2.8602 1.1623-1.4256 2.2416-4.0646 3.0397-7.4304.0719-.3029.3421-.5158.652-.5158.0049 0 .0096 0 .0143.0003.316.0064.5842.2327.6441.5429.5688 2.9422 1.626 5.3156 3.1424 7.0545.8812 1.0101 1.7057 2.1267 2.4511 3.319.1292.2066.1359.4669.0177.6802-.1182.2129-.3425.3453-.5863.3453zm-9.8958-1.3406h8.652c-.5196-.75-1.0718-1.4611-1.649-2.1229-1.21-1.3872-2.1511-3.1214-2.8121-5.1763-.6191 1.99-1.4814 4.0806-2.6309 5.4911-.485.5946-1.0066 1.1994-1.56 1.8081z" fill="#15003e"/><path d="m49.1812 51.8042c1.4097 2.3218 4.9765 7.1645 6.3018 9.6187.1689.3129.3151.6942.4399 1.1319.1161-.4725.2223-.8557.3091-1.1319.8082-2.571 4.2263-8.3749 5.6361-10.6967 1.4097-2.3218.2541-3.4231.2541-3.4231s-.5627.4801-1.1419.7832c0 0-3.0267 1.9132-4.9782 5.8163 0 0-5.2991-2.1129-5.7317-5.0834 0 0-1.0688-.3779-1.6053-.7294-.0001 0-.8936 1.3927.5161 3.7144zm6.8209 2.0987s-1.3626 1.6824-1.022 6.6465" fill="#630f0f"/><path d="m55.9229 62.8905c-.1498 0-.2816-.0992-.3229-.2435-.1207-.4233-.2595-.7814-.4123-1.0642-.7663-1.4192-2.3379-3.7155-3.7248-5.7415-1.0174-1.4864-1.9783-2.8904-2.5686-3.8627-1.4855-2.4464-.5551-4.0003-.5147-4.0652.0477-.0771.1245-.1315.2127-.151.0876-.0195.1807-.0029.2566.0468.4969.3253 1.523.6898 1.5335.6936.1175.0416.2022.1449.2202.2682.345 2.3694 4.167 4.2223 5.2435 4.7 1.9696-3.7519 4.8309-5.5903 4.9546-5.6682.5612-.295 1.0983-.7506 1.1035-.755.1312-.1114.325-.1065.4495.0125.0553.0524 1.3336 1.3165-.1987 3.84-.7835 1.2906-4.7361 7.8677-5.6028 10.6234-.0908.2892-.1958.6735-.3032 1.1111-.0364.1481-.1676.2528-.32.2557-.0021 0-.0041 0-.0061 0zm-.6133-2.4453c.1754.2927.3331.567.4687.8184.0323.0591.0637.121.0943.1853.0134-.0436.0262-.0858.039-.1266.8676-2.7586 4.5589-8.9415 5.6697-10.7706.8926-1.4701.6758-2.3656.4719-2.7644-.229.174-.5679.4137-.9173.5964-.0055.0049-2.9468 1.9004-4.8303 5.6627-.0064.0137-.014.0271-.0224.0401-.0061.0093-.0128.0183-.0198.0271-.047.0626-1.2541 1.7314-.9538 6.3316zm-5.8416-8.8152c.5813.9569 1.537 2.3533 2.5491 3.8319.8996 1.3147 1.8183 2.6568 2.5745 3.8324-.0401-2.9922.5728-4.5798.9205-5.2353-1.2109-.5385-4.9869-2.4077-5.5379-4.9909-.2598-.0978-.7448-.2892-1.1509-.5001-.151.4858-.2773 1.5433.6447 3.062z" fill="#15003e"/><path d="m47.5167 47.3033s-.6766.6792-.7596 1.6329c0 0-2.6341-.0342-3.8946.6499-1.0933.5934-1.8349 2.029-2.388 2.4668-.2776.2199-.8805.2364-1.3978.9608-.6219.8707.071 2.2731-1.2725 3.1851-1.1168.7581-1.3591 15.2441.0169 16.5841.6516.6347 2.7364 3.8972 2.7364 3.8972s-.7463 6.7995-1.9063 7.5044c-2.2614 1.374-4.1054 5.4312-4.1054 7.3385-.0001 2.4049 6.3432 4.2706 7.2138 4.1462.8707-.1244 6.219-4.2705 10.2408-9.2042 4.0217-4.9337 5.7215-20.896 3.4825-25.0421-1.3253-2.4543-4.892-7.2969-6.3018-9.6187s-.5161-3.7141-.5161-3.7141-.6387-.4008-1.1483-.7868z" fill="#ccae71"/><path d="m41.6966 96.3424c-1.1355 0-4.8481-1.1253-6.6466-2.6856-.7794-.6761-1.1745-1.3941-1.1745-2.134 0-2.0537 1.9015-6.3761 4.428-7.9113.4713-.3802 1.1803-3.4537 1.5614-6.7697-.8065-1.2525-2.0999-3.1778-2.5116-3.579-1.3924-1.3557-1.2356-10.4101-.9385-13.7844.272-3.0879.6654-3.5982 1.013-3.8342.5246-.3561.5874-.7707.6531-1.4724.0465-.4949.0992-1.0561.4504-1.5478.4675-.6549 1.0168-.8815 1.345-1.0168.0678-.0279.1606-.066.1879-.0844.1338-.1059.3581-.396.5752-.6764.4847-.627 1.0881-1.4072 1.9036-1.8497 1.041-.565 2.763-.6956 3.662-.7238.245-.8283.766-1.3717.837-1.4427.2368-.2374.6121-.2636.8795-.0614.4806.3642 1.0939.7494 1.1.7532.1516.0951.2589.247.2979.4216.0393.1749.0067.3578-.0899.5085-.0192.0335-.6235 1.1131.5245 3.0042.5763.949 1.5297 2.342 2.5393 3.8167 1.4692 2.1465 2.9882 4.366 3.7795 5.8314 2.3967 4.4382.6755 20.5968-3.5526 25.7841-3.7682 4.622-9.4023 9.2636-10.6656 9.4442-.0448.0065-.0981.0097-.158.0097zm-3.4551-39.6313c-.2767.4984-.6773 3.252-.6947 7.8112-.0192 5.0128.448 7.4356.7468 7.7853.6825.6645 2.6111 3.671 2.8287 4.0114.0826.1289.1184.2822.1015.4341-.2351 2.1433-.9228 7.2134-2.2245 8.0041-2.0519 1.2466-3.7833 5.0424-3.7833 6.7656 0 .3802.3276.766.6022 1.0223 1.5431 1.4404 5.1285 2.4604 5.8198 2.4604.0067 0 .0134 0 .0198-.0003.8603-.2677 5.9231-4.1795 9.823-8.9639 3.8022-4.6642 5.5484-20.3443 3.4123-24.2998-.7579-1.4037-2.3243-3.6922-3.7065-5.7113-1.02-1.4904-1.9833-2.898-2.5785-3.8781-1.054-1.7363-.9641-3.0661-.764-3.797-.0561-.0378-.1155-.0777-.1766-.1196-.1129.206-.2176.4681-.2429.7588-.03.3465-.3206.6121-.6677.6121-.0346 0-.0652-.0006-.101-.0006-.7558 0-2.6065.0983-3.4737.5691-.567.3078-1.0747.9641-1.4826 1.4916-.2906.3756-.5417.7-.8091.9118-.1603.1268-.3346.1987-.5033.2682-.2679.1106-.5214.215-.7652.5566-.1414.1978-.1714.5202-.2066.8937-.0666.7156-.1583 1.6899-1.1739 2.4143zm.018-.0296" fill="#15003e"/><path d="m62.1223 47.3033s1.1556 1.1013-.2541 3.4231-4.8278 8.1258-5.6361 10.6967c-.9123 2.9022-3.9829 17.579 2.2361 24.7102 4.1835 4.7971 5.1644 9.7845 6.0351 9.9089s14.9496-3.84 16.6852-4.602c1.8982-.8334-4.4059-5.1383-6.2372-7.0483-1.7799-1.8566-3.7962-6.6336-3.7962-6.6336s2.2921-.2358 2.9437-.8707c1.376-1.34-.2238-10.1577-.2653-11.1943s1.0115-2.4462 1.5505-3.1095c.5391-.6633.7463-1.5754.1244-2.4462-.5173-.7244-2.6768-6.8046-2.9544-7.0245-.5531-.4379-1.9788-.5627-1.9788-.5627s-.7463-.5805-2.4461-2.1974-2.1979-1.5337-2.1979-1.5337h-1.9901c-.083-.9536-1.0801-2.2316-1.0801-2.2316s-.437.4782-.7387.7156z" fill="#ccae71"/><path d="m64.5016 96.7113c-.0364 0-.0675-.002-.0931-.0055-.7026-.1007-1.0573-.883-1.7636-2.4418-.8722-1.9248-2.1901-4.833-4.6817-7.6902-6.3103-7.2361-3.4752-21.8376-2.3705-25.3518.878-2.7927 4.5865-9.0058 5.7026-10.8436 1.0826-1.7828.3817-2.5704.3514-2.603-.1408-.1341-.2098-.3162-.2005-.5106.009-.1941.1088-.368.2615-.4885.2112-.1658.547-.519.6584-.6409.1332-.1458.3244-.2252.5211-.2176.1973.0076.3808.1018.5024.2575.094.1204.7899 1.0319 1.0898 1.9737h1.4296c.5641-.0329 1.4421.5388 2.6821 1.7185 1.2367 1.1765 1.9644 1.7985 2.2521 2.0371.4896.0588 1.5591.2336 2.1267.6831.2362.1871.3576.4303 1.4992 3.3576.5423 1.3898 1.3616 3.49 1.5847 3.8028.7209 1.0092.6633 2.2576-.1498 3.2584-.8996 1.107-1.4232 2.1011-1.4008 2.66.0073.1772.0841.7401.1731 1.3921.7593 5.5588 1.006 9.2225-.1097 10.3095-.5149.5013-1.6243.7826-2.4398.9284.645 1.4136 2.0592 4.3288 3.3082 5.6313.4946.5161 1.3715 1.2484 2.2995 2.0234 2.8924 2.4156 4.6366 3.9698 4.4646 5.1803-.0337.238-.1751.6738-.7413.9225-1.2008.5273-15.2063 4.6573-16.9562 4.6573zm-1.2641-48.0366c-.0122.6386-.2135 1.4395-.7966 2.3996-.78 1.285-4.7151 7.8328-5.5693 10.5498-.993 3.1586-3.7399 17.3698 2.1017 24.0688 2.6213 3.0053 3.9881 6.0217 4.8926 8.0178.297.6555.6293 1.3889.8239 1.6525 1.7566-.2255 14.1538-3.6762 16.1584-4.5065-.2595-.7753-2.6568-2.7772-3.973-3.8764-.9575-.7998-1.8617-1.555-2.4078-2.1247-1.8442-1.9233-3.8455-6.637-3.9299-6.8366-.0826-.1958-.0672-.4189.0407-.6019.1082-.1827.2967-.3037.5083-.3256.9956-.103 2.2559-.4024 2.5445-.6837.5679-.5531.4725-3.6375-.2831-9.1676-.1146-.8402-.1749-1.2891-.1842-1.5201-.0372-.9278.5347-2.1253 1.6999-3.559.2517-.3098.5993-.9339.0992-1.6339-.2988-.4184-.8577-1.8262-1.7427-4.0949-.432-1.1076-.9624-2.4671-1.1544-2.8415-.3183-.1827-1.0759-.3311-1.5492-.3727-.1286-.0111-.2511-.0594-.3532-.1385-.0314-.0247-.7919-.6197-2.4962-2.241-1.1617-1.105-1.6627-1.3144-1.7668-1.3491h-1.9591c-.3477 0-.6374-.2656-.6677-.6121-.0055-.0633-.018-.1311-.036-.2027zm2.7987.8068h-.0009zm.0018-.0003h-.0012zm.002-.0003h-.0015zm.0018-.0003c-.0006 0-.0012 0-.0017 0z" fill="#15003e"/><path d="m53.4933 63.5416c-.007 0-.014-.0003-.0212-.0006-.185-.0116-.3258-.1711-.3142-.3561.1463-2.3397-3.401-7.2858-5.5201-9.8396-1.7092-2.0598-1.0802-4.4332-1.0526-4.5333.0495-.1789.2345-.2848.4128-.2342.1786.0492.2834.2336.2345.4123-.0087.0326-.5539 2.1479.922 3.9264.6014.7247 5.8698 7.1712 5.6738 10.3103-.0112.1781-.159.3148-.335.3148zm6.619-5.9975c-.0556 0-.112-.0137-.1638-.0428-.1618-.0908-.2194-.2956-.1289-.4571.6281-1.1201 1.2312-2.0741 1.6987-2.6865 2.5989-3.4062 1.965-5.4649 1.9583-5.4855-.0579-.176.0378-.3657.2141-.4236.1754-.0593.366.0378.4236.2141.032.0969.7489 2.4176-2.0624 6.1023-.4486.5883-1.0334 1.5143-1.6464 2.6073-.0616.1101-.1757.1718-.2932.1718z" fill="#15003e"/><path d="m63.8143 57.392c-1.358-.1577-2.81-.2285-4.3303-.1659 0 0-6.8759-1.027-1.5936 16.575 0 0 2.2229 5.0122 4.019 4.9644s9.2456-1.151 9.2456-1.151" fill="#ccae71"/><path d="m61.8855 79.1015c-1.9548.0006-4.0664-4.6334-4.302-5.1643-.0058-.0128-.0105-.0262-.0145-.0396-3.0647-10.2117-2.0421-14.2786-.6444-15.8924 1.0514-1.2141 2.3371-1.1405 2.5727-1.1157 1.4302-.0582 2.8959-.0006 4.3558.169.1842.0212.3162.1879.2947.3721-.0212.1842-.1868.3209-.3721.2947-1.434-.1661-2.873-.2211-4.2779-.1638-.0201.0015-.0422 0-.0631-.0035-.0442-.0058-1.1239-.1408-2.015.9013-1.2766 1.4925-2.1759 5.345.7861 15.2248.8239 1.8497 2.5372 4.746 3.6771 4.746.0058 0 .0116 0 .0175-.0003 1.7558-.0465 9.1315-1.1364 9.2057-1.1474.1839-.0247.3544.1001.3814.2831.0271.1833-.0995.3541-.2831.3814-.3049.0451-7.4903 1.1067-9.286 1.1544-.0108.0002-.0218.0002-.0329.0002z" fill="#15003e"/><path d="m41.9573 78.3893c-.6415 0-1.3246-1.1268-1.5911-1.6155-.0884-.1629-.0285-.3666.1344-.4553.1623-.0893.3666-.0288.4553.1341.3436.6296.8225 1.2327 1.0052 1.2656.6011-.0265 5.0872-.8466 6.7645-1.1602.0166-.0032.0337-.0052.0506-.0055 1.1431-.0372 2.2978-.8687 3.4318-2.4715.1071-.1507.3162-.1871.4681-.08.1513.1071.1871.3165.08.4681-1.2539 1.7718-2.5765 2.6981-3.9317 2.7534-.4792.0896-6.0784 1.1335-6.8442 1.1663-.0075.0002-.0154.0005-.0229.0005zm32.1412-17.5042c-.0576 0-.1158-.0148-.1687-.0457-.0416-.0241-4.2153-2.424-10.1541-3.1141-.1842-.0212-.3162-.1879-.2947-.3721.0212-.1839.1882-.3194.3721-.2947 6.086.707 10.2411 3.0993 10.4151 3.2008.16.0937.2141.2991.1207.4591-.0626.1071-.1749.1667-.2904.1667z" fill="#15003e"/><path d="m46.2663 54.2841c1.7463.032 3.8432.1901 6.3586.5328 0 0 5.6653.5529 2.5096 13.9861 0 0-.9802 3.1094-2.6524 5.4719" fill="#ccae71"/><path d="m52.4817 74.6107c-.0672 0-.1347-.0201-.1938-.0617-.1513-.1071-.1871-.3168-.08-.4681 1.6231-2.2928 2.5966-5.3482 2.6062-5.3788 1.7168-7.312.7704-10.6789-.3273-12.2119-.8783-1.2269-1.8847-1.3383-1.8945-1.3392-2.3417-.3189-4.4678-.4972-6.3321-.5312-.1853-.0035-.3331-.1565-.3296-.3418s.1548-.3276.3418-.3296c1.8905.0346 4.0431.215 6.3979.5359.0407.0035 1.3089.1431 2.3627 1.615 1.1786 1.6461 2.2093 5.1992.4282 12.7806-.0471.153-1.0218 3.211-2.7051 5.5891-.0655.0925-.1691.1417-.2744.1417z" fill="#15003e"/><path d="m48.7872 77.2236c-.0934 0-.1865-.0387-.2528-.1149-.1219-.1394-.1076-.3514.032-.4736 2.7487-2.4025 2.3787-7.3789 2.3743-7.4284-.0224-.0669-.2327-.2906-.4015-.4704-.9255-.9857-2.8517-3.0365-2.8028-7.959.023-2.3138.6316-4.0376 1.8096-5.1242 1.3834-1.2766 3.033-1.1768 3.1025-1.171.185.0131.3244.1737.3113.3584-.0131.1845-.1743.3221-.3576.3113-.0233-.0009-1.4468-.0768-2.6097 1.0028-1.0305.9566-1.5638 2.5142-1.5847 4.629-.0463 4.6529 1.7552 6.5713 2.621 7.493.3343.3561.5551.5915.5804.869.0049.0532.3986 5.3732-2.6012 7.9951-.0634.0555-.1423.0829-.2208.0829zm-10.3729-21.0446c-.0387 0-.078-.0064-.1167-.0201-.1751-.0611-.2636-.2624-.2022-.4373.1114-.3192 1.0366-1.9082 8.1772-1.7732.1853.0035.3331.1565.3296.3418-.0035.1833-.153.3296-.3357.3296-.002 0-.0041 0-.0061 0-6.7342-.1225-7.5316 1.3281-7.5389 1.3427-.0477.1365-.1719.2165-.3072.2165z" fill="#15003e"/><path d="m61.9097 79.1012c-.1094 0-.2165-.0532-.281-.1516-1.6906-2.5774-1.7159-6.2862-1.6842-7.3597-.8993-.2191-3.4545-1.1745-4.0925-5.0168-.0305-.183.0931-.3558.2761-.3861.1845-.0326.3561.0934.3861.2761.6875 4.1385 3.6855 4.5057 3.813 4.5193.1789.0192.3122.1763.3005.3558-.0029.0442-.2659 4.4553 1.5626 7.243.1018.1551.0585.3631-.0966.4649-.0569.0374-.1209.0551-.184.0551zm-10.6348-9.5894c-.089 0-.1781-.0355-.2441-.1053-.1271-.1347-.1213-.3471.0137-.4745.0498-.0471 1.2379-1.1614 2.845-1.983 1.0642-.5438 1.6397-1.5626 1.759-3.1147.0143-.1845.1664-.3203.3608-.309.1847.0143.3232.1757.309.3608-.137 1.7793-.8513 3.0111-2.1232 3.6611-1.5181.7759-2.678 1.8623-2.6897 1.873-.0649.0614-.1478.0916-.2305.0916z" fill="#15003e"/><path d="m60.2924 71.6522c-.0762 0-.153-.0259-.2159-.0788-.142-.1193-.1603-.3311-.041-.4731.0221-.0262 2.1977-2.6585 1.7593-5.638-.0946-.6432-.167-1.3458-.2435-2.0898-.2671-2.5887-.5993-5.8108-2.0671-5.8108-.1853 0-.3357-.1504-.3357-.3357s.1504-.3357.3357-.3357c2.0738 0 2.4098 3.2605 2.7348 6.4136.0759.7363.1478 1.432.2403 2.0607.4829 3.2835-1.8122 6.052-1.91 6.1683-.0667.0786-.1615.1193-.2569.1193z" fill="#15003e"/><path d="m70.6348 35.7956c-3.1717 0-8.2095 1.5584-8.2095 1.5584s-1.9033-2.7065-3.1128-3.8894l-.0607.1109c-1.3698-1.3036-2.97-2.393-4.4321-2.393-1.4679 0-3.0443 1.1066-4.4181 2.4185l-.0772-.134c-1.209 1.1826-3.1103 3.8869-3.1103 3.8869s-5.0377-1.5584-8.2094-1.5584c-2.1767 0-3.7968.5731-2.9851 1.2438.7365.6085 5.8956 4.2444 7.6494 4.36.2514.0165.677-.0172 1.0643-.0592-.024.3228-.0048.3501.1137.4945s.6651.0455.6651.0455h.0057c-.0318.3755-.0489.7856-.0489 1.2381 0 1.4029.5083 2.5668 1.3396 3.5026-.1215.4059.109.8335.5149.955.0714.0214.1455.0322.22.0322.194 0 .3705-.0725.5057-.1913 1.858 1.3096 4.4461 2.1692 6.7707 2.1692 2.3032 0 4.9166-.8644 6.785-2.1563.3259.271.8097.2266 1.0808-.0993.1641-.1973.2187-.4637.1455-.7097.8315-.9357 1.3397-2.0995 1.3397-3.5024 0-.4525-.017-.8626-.0489-1.2381h.0057s.5305.0927.6352.0077.1675-.225.1434-.5478c.3872.0419.8128.0757 1.0643.0592 1.7538-.1157 6.913-3.7516 7.6494-4.36.8118-.6705-.8085-1.2437-2.9851-1.2436z" fill="#6c9b68"/><g fill="#15003e"><path d="m54.8199 50.2562c-2.2725 0-4.8414-.7814-6.8087-2.0563-.2802.0963-.5952.1042-.8815.0177-.6252-.1874-1.029-.7663-1.0238-1.3892-.8678-1.075-1.3074-2.3216-1.3074-3.7103 0-.1946.0032-.3855.0093-.5717-.2028-.0495-.3631-.1452-.4795-.2872-.0573-.0701-.1039-.135-.1411-.1981-.2316.0143-.4175.0166-.5624.007-2.0854-.1376-7.6079-4.1615-8.032-4.5121-.5758-.4757-.4713-.9897-.3995-1.1887.4032-1.1213 2.7999-1.2423 3.8115-1.2423 2.6998 0 6.6024 1.061 7.9419 1.45.5824-.8065 1.9396-2.639 2.909-3.5872.1152-.1129.2662-.1792.4239-.1897 1.6929-1.5373 3.181-2.2861 4.54-2.2861 1.3659 0 2.9061.7695 4.5825 2.2882.1414.0189.2746.0829.3791.185.97.9484 2.3283 2.7831 2.9111 3.5898 1.3397-.389 5.2423-1.45 7.9424-1.45 1.0116 0 3.4083.121 3.8115 1.2423.0719.199.1763.7131-.3992 1.1887-.4245.3506-5.9469 4.3745-8.0323 4.5121-.1431.0096-.3267.0076-.5551-.0067-.0596.1234-.1472.2435-.2746.3468-.0809.0658-.1853.128-.3523.1612.0055.1783.0084.3616.0084.5487 0 1.3892-.4396 2.6358-1.3077 3.7103.0029.3354-.1117.6651-.3322.9304-.3872.4661-1.0087.6249-1.5536.4472-1.9898 1.2708-4.5677 2.0502-6.8277 2.0502zm-6.7708-3.5098c.1347 0 .27.0404.3861.1225 1.7913 1.2624 4.2377 2.0467 6.3848 2.0467 2.1002 0 4.6136-.7998 6.4037-2.0371.2467-.1714.5787-.1562.8097.0358.0253.0212.0527.0244.0713.0221.0183-.0017.0445-.009.0655-.0343.0209-.025.0279-.0588.0186-.0899-.0663-.2226-.0128-.4632.1414-.6366.7765-.8742 1.1704-1.9027 1.1704-3.0574 0-.4219-.0157-.8193-.0466-1.1809-.0157-.1871.0474-.3721.1743-.5103.153-.167.3919-.2464.6147-.2071.0012.0003.0026.0006.0038.0009.0247-.1367.0916-.2636.1935-.3622.1431-.1385.3381-.2063.5382-.1847.6171.0672.8696.0628.9479.0567 1.3083-.0864 5.5713-2.9218 6.9745-3.9794-.4216-.1402-1.1989-.2854-2.2661-.2854-3.0353 0-7.9619 1.5134-8.0114 1.5286-.2778.0864-.579-.0169-.7465-.2549-.0172-.0244-1.6019-2.2725-2.7511-3.5057-.1248-.0239-.2418-.0829-.336-.1728-1.5181-1.4445-2.891-2.2082-3.9701-2.2082-1.0727 0-2.4034.7512-3.9552 2.2329-.1053.1007-.2394.1632-.3808.1807-1.1466 1.2388-2.7042 3.449-2.7211 3.4731-.1676.238-.4693.3413-.7465.2549-.0495-.0151-4.979-1.5286-8.0111-1.5286-1.0671 0-1.8445.1452-2.2661.2854 1.4029 1.0575 5.6662 3.893 6.9745 3.9794.0783.0052.3299.0105.9479-.0567.1987-.0215.3948.0463.5379.1845.1021.0986.169.2258.1938.3625l.0009-.0003c.2246-.0387.4617.0396.6147.2063.1268.1382.1929.3229.1772.51-.0308.3654-.0465.7628-.0465 1.1815 0 1.1544.3939 2.1832 1.1707 3.0577.1542.1737.2074.4149.1408.6374-.0093.0317-.0012.0573.0076.0733.0087.0163.0259.0375.0576.0471.0512.0035.0719-.0041.0899-.0198.1261-.1112.2843-.1677.4432-.1677zm25.188-9.8341h.0029z"/><path d="m45.6021 42.6236c-.0681 0-.1146-.0049-.1298-.0067-.1842-.0218-.3157-.1891-.2938-.373.0218-.1833.1862-.3145.3704-.2941.0128.0012.3203.0268.5449-.1609.1571-.1315.249-.3485.2729-.6453.1283-1.6039.6121-2.3743.9653-2.937.0992-.1577.1847-.2938.2534-.4312.0416-.0835.0658-.1583.071-.2194-.7721.9935-1.3648 2.2541-1.3712 2.2681-.0596.1277-.1882.2074-.3322.1926l-.5664-.0471c-.1091.4603-.1673 1.1236-.1821 1.3799-.0105.185-.1696.3261-.3544.316-.1853-.0108-.3267-.1693-.316-.3544.0029-.0489.0713-1.2065.2915-1.8134.0518-.1426.1894-.2327.3436-.2199l.6107.0506c.2374-.4742.8571-1.6417 1.6129-2.5087.0896-.1033.2327-.1411.3628-.0969.0372.0131.3692.1364.512.4861.1047.2572.0774.5487-.0818.8667-.0832.1667-.1813.3226-.2851.4882-.334.5315-.7497 1.1934-.8649 2.6332-.039.4885-.2144.8635-.5211 1.1148-.3311.2714-.7139.3118-.9126.3118zm.2155-3.8493c-.0265 0-.0532-.0032-.08-.0096l-.7826-.1917c-.0221-.0055-.0436-.0131-.064-.023-.0561-.0262-5.6193-2.6344-8.7314-1.2056-.1687.0765-.3677.0035-.4451-.1652-.0774-.1684-.0035-.3677.1652-.4451 3.3038-1.5172 8.7527.9537 9.2679 1.1949l.4832.1184c.1417-.2904.3896-.762.6357-1.0645.117-.1443.3282-.1658.4722-.0486.144.117.1655.3285.0486.4722-.3119.3832-.6595 1.1608-.663 1.1687-.0547.1232-.1766.1991-.3067.1991z"/><path d="m64.08 42.7522c-.1938 0-.5932-.0401-.9266-.3328-.3037-.2668-.4637-.6619-.4757-1.1745-.032-1.3915-.503-2.0738-.8812-2.6219-.1286-.1862-.2502-.3622-.3427-.5475-.1591-.3177-.1865-.6092-.0818-.8664.1428-.3497.4748-.4731.512-.4861.1292-.0442.2726-.0061.3628.0966.7558.867 1.3755 2.0345 1.6129 2.509l.6104-.0509c.1498-.0128.2918.0774.3436.2199.2202.6069.2889 1.7645.2918 1.8137.0108.185-.1306.3436-.3157.3544-.1949.0023-.3442-.1309-.3546-.3157-.0148-.2566-.0733-.9202-.1824-1.3802l-.5662.0471c-.1388.0151-.2726-.0649-.3322-.1926-.0064-.014-.599-1.2746-1.3712-2.2681.0052.0608.0294.1356.071.2191.0716.1428.1751.2927.2947.4664.4067.5888.9633 1.3953 1.0002 2.9876.0073.3145.089.544.2432.6819.2159.1935.5269.1699.5307.1679.1818-.0137.3474.1187.3651.302s-.1138.3465-.2968.3663c-.0138.0013-.0534.0048-.1113.0048zm-.258-3.9779c-.13 0-.2519-.0759-.3066-.1993-.0035-.0079-.3512-.7852-.6633-1.1684-.117-.1437-.0954-.3552.0483-.4725.1437-.117.3555-.0954.4725.0483.2464.3026.494.7745.636 1.0645l.4829-.1181c.5152-.2412 5.9641-2.7118 9.2682-1.1949.1687.0774.2426.2767.1653.4451-.0774.1687-.2764.2418-.4451.1652-3.1121-1.4293-8.6759 1.1794-8.7317 1.2056-.0204.0099-.0419.0175-.064.023l-.7823.1917c-.027.0066-.0538.0098-.0802.0098z"/><circle cx="66.1539" cy="40.7243" r=".1904"/><circle cx="66.0918" cy="40.2223" r=".1904"/><path d="m51.0893 49.272c-.0538 0-.1085-.0128-.1591-.0401-.1632-.0882-.224-.2918-.1362-.455l.2959-.5484-1.4-.6488-1.0337.4571c-.1705.0759-.368-.0017-.4428-.1711-.0751-.1696.0015-.368.1711-.4428l1.1727-.5187c.0887-.0393.1894-.0381.277.0023l1.8617.8626c.0841.039.1484.1108.1775.1987s.0209.1839-.023.2653l-.4652.8626c-.0608.1126-.1763.1763-.2959.1763z"/></g><path d="m59.4388 35.3722c-.2123 0-.3852-.1728-.3852-.3852s.1729-.3852.3852-.3852.3852.1728.3852.3852-.1729.3852-.3852.3852z" fill="#ffce08"/><path d="m59.4388 34.7419c.1353 0 .245.1097.245.245s-.1097.245-.245.245-.245-.1097-.245-.245.1096-.245.245-.245m0-.2802c-.2897 0-.5254.2357-.5254.5253s.2357.5253.5254.5253.5254-.2357.5254-.5253-.2358-.5253-.5254-.5253z" fill="#15003e"/><path d="m54.7818 39.625c-.4888 0-.9668-.0355-1.1274-.1082-.4844-.2194-.6776-.5243-.6982-.5583l-2.9236-5.3322c-.089-.1626-.0297-.3669.133-.4559.1623-.0884.3666-.0297.4559.133l2.9172 5.3209c-.0003-.0003-.0003-.0006-.0003-.0006.0015 0 .1123.1545.393.2816.2199.0698 1.5783.0631 1.8058-.0131.2656-.1251.3695-.2787.3738-.2851l2.907-5.3037c.0893-.1626.2935-.2214.4559-.133.1626.089.222.2933.133.4559l-2.9172 5.3209c-.0262.0439-.2127.3395-.6785.5574-.1695.0797-.7057.1204-1.2294.1204z" fill="#15003e"/><path d="m52.6249 37.6562s2.1896-.8393 4.3895 0" fill="#6c9b68"/><path d="m57.0144 37.992c-.0399 0-.0803-.007-.1196-.0221-2.056-.7838-4.1292-.0081-4.1499 0-.1725.0658-.3674-.0201-.4338-.1935-.0663-.1731.0204-.3672.1935-.4338.0943-.0364 2.3371-.8754 4.6293 0 .1734.066.2601.2601.194.4332-.0507.1339-.1782.2162-.3135.2162z" fill="#15003e"/><path d="m58.0347 36.1312c-.0399 0-.0803-.007-.1196-.0221-3.0178-1.1492-6.1622-.0105-6.1936.0012-.1737.064-.3674-.0247-.4314-.1981-.0646-.174.0241-.3672.1981-.4315.1382-.0509 3.4152-1.2367 6.6661.0012.1731.0658.2601.2598.194.4332-.0508.1338-.1783.2161-.3136.2161z" fill="#15003e"/><path d="m50.6588 34.9879c-.0995 0-.1978-.0439-.2642-.128-.1146-.1458-.0896-.3567.0562-.4716.0442-.0346 4.4734-3.4452 8.62.0058.1426.1187.162.3302.0434.4728-.1187.1423-.3308.162-.4728.0433-3.7341-3.1072-7.735-.0256-7.7752.0058-.0614.0483-.1347.0719-.2074.0719z" fill="#15003e"/><path d="m53.9649 39.5479c-.119 0-.2339-.0631-.295-.1749l-.9205-1.6862c-.0887-.1626-.0288-.3669.1338-.4556.1629-.0893.3666-.0291.4556.1338l.9205 1.6862c.0887.1626.0288.3669-.1338.4556-.0512.028-.1062.0411-.1606.0411zm-1.9379-3.5488c-.1187 0-.2339-.0631-.295-.1749l-.5263-.9636c-.0887-.1626-.0291-.3666.1338-.4556.1615-.089.3666-.0291.4556.1338l.5263.9636c.0887.1626.0291.3666-.1338.4556-.0509.028-.1062.0411-.1606.0411zm-.9447-1.7299c-.1187 0-.2339-.0631-.295-.1749l-.3497-.6403c-.0887-.1626-.0291-.3666.1338-.4556.1618-.089.3663-.0294.4556.1338l.3497.6403c.0887.1626.0291.3666-.1338.4556-.0509.028-.1062.0411-.1606.0411z" fill="#15003e"/><path d="m55.6747 39.5479c-.0544 0-.1094-.0131-.1606-.041-.1626-.0887-.2226-.293-.1338-.4556l.9205-1.6862c.089-.1629.2921-.2231.4556-.1338.1626.0887.2226.293.1338.4556l-.9205 1.6862c-.0611.1117-.176.1748-.295.1748zm1.967-3.6023c-.0544 0-.1097-.0131-.1606-.041-.1629-.089-.2226-.293-.1338-.4556l.4972-.91c.089-.1629.2935-.2229.4556-.1338.1629.089.2226.293.1338.4556l-.4972.91c-.0611.1116-.1763.1748-.295.1748zm.9473-1.7343c-.0544 0-.1094-.0131-.1606-.041-.1626-.0887-.2226-.293-.1338-.4556l.318-.5824c.089-.1632.2924-.2229.4556-.1338.1626.089.2226.293.1338.4556l-.318.5824c-.0611.1117-.1763.1748-.295.1748z" fill="#15003e"/><circle cx="51.959" cy="41.0661" fill="#25e899" r=".9847"/><path d="m50.5739 42.2836s.6989.3066 1.3851.3066c1.1505 0 1.8013-1.1296 1.8013-1.1296s-2.2211 1.3993-3.7396-.2902m0-.0001c2.4151-1.5657 3.7396-.1872 3.7396-.1872v-1.6273c-2.0589-1.3682-3.8847.0519-3.8847.0519" fill="#6c9b68"/><path d="m51.9589 42.9259c-.7477 0-1.4887-.3212-1.5201-.3349-.1696-.0745-.2467-.272-.1725-.4419.0393-.0899.1132-.1539.1993-.1833-.2412-.1402-.4736-.3261-.6901-.5662-.0076-.0079-.0145-.0163-.0215-.0253-.0239-.0311-.0413-.0652-.0529-.1007-.0154-.0483-.0195-.0983-.0131-.1472s.0236-.0963.0512-.1388c.0204-.0317.0463-.0602.0777-.0841.0087-.0067.0175-.0128.0265-.0183 1.6967-1.098 2.9166-.8553 3.5814-.531v-.8134c-1.7616-1.0535-3.2782.0823-3.3437.1324-.1466.1126-.3576.0858-.4707-.0608-.1132-.1463-.0867-.3564.0593-.4699.0198-.0154 2.0418-1.5521 4.2767-.0663.0937.0623.1498.1673.1498.2796v1.6272c0 .0914-.0372.1769-.0995.2389.1082.1071.1309.2738.0547.4061-.0306.053-.7632 1.2979-2.0925 1.2979zm-1.3842-1.6955c1.1512.8917 2.6181.1638 2.9419-.0163-.0623-.062-1.068-1.0067-2.9419.0163z" fill="#15003e"/><circle cx="52.3218" cy="40.8898" fill="#fff" r=".1762"/><circle cx="49.8756" cy="39.4077" fill="#15003e" r=".245"/><circle cx="50.5739" cy="42.2836" fill="#15003e" r=".245"/><circle cx="50.0207" cy="41.1703" fill="#15003e" r=".245"/><circle cx="57.6805" cy="41.0661" fill="#25e899" r=".9847"/><path d="m59.6189 41.1703c-2.4151-1.5657-3.7396-.1872-3.7396-.1872v-1.6273c2.0589-1.3682 3.8847.0519 3.8847.0519m-.6984 2.8759s-.6989.3066-1.3851.3066c-1.1505 0-1.8013-1.1296-1.8013-1.1296s2.2211 1.3993 3.7396-.2902" fill="#6c9b68"/><path d="m57.6804 42.9259c-1.329 0-2.0615-1.2449-2.0921-1.2978-.0765-.1327-.0532-.2999.0556-.407-.0628-.0617-.1004-.1466-.1004-.238v-1.6272c0-.1123.0562-.2173.1498-.2796 2.2349-1.4849 4.2563.0509 4.2767.0663.1463.1138.1725.3247.0588.4713-.1143.1458-.3247.1728-.4713.0588-.0646-.0498-1.5798-1.185-3.3425-.1318v.8134c.6648-.3238 1.8844-.5673 3.5811.531.0093.0055.0183.0119.0271.0186.0311.0239.057.0524.0774.0838.0276.0425.0448.0899.0512.1388.0064.0486.0023.0989-.0131.1472-.0116.0355-.0294.0698-.0532.101-.0067.0087-.0137.0172-.0212.025-.2164.24-.4492.4259-.6901.5662.0858.0294.1597.0931.199.1827.0745.1699-.0029.368-.1725.4425-.0313.0136-.7723.3348-1.5203.3348zm-1.5577-1.7115c.3267.1853 1.7843.9199 2.9428.0163-1.8602-1.0157-2.8654-.0917-2.9428-.0163z" fill="#15003e"/><circle cx="58.1141" cy="40.8898" fill="#fff" r=".1762"/><circle cx="59.7639" cy="39.4077" fill="#15003e" r=".245"/><circle cx="59.0656" cy="42.2836" fill="#15003e" r=".245"/><circle cx="59.6189" cy="41.1703" fill="#15003e" r=".245"/><path d="m47.0134 47.1764c-.1234 0-.2421-.0681-.3008-.1862-.0826-.1661-.0151-.3674.151-.4501.5737-.2857 2.0994-1.0322 3.1534-1.4363 1.313-2.006 2.3155-2.5096 2.8322-2.6239.0724-.3564.3032-.6069.5973-.7782v-2.4805c0-.1853.1504-.3357.3357-.3357s.3357.1504.3357.3357v2.2288c.2482-.0553.4949-.0774.7017-.0774.213 0 .4681.0236.7238.0823v-2.2338c0-.1853.1504-.3357.3357-.3357s.3357.1504.3357.3357v2.4936c.2837.1711.5048.4178.5752.7652.5164.1143 1.519.6176 2.8325 2.6239 1.054.4041 2.5797 1.1506 3.1534 1.4363.1661.0826.2336.284.151.4501-.0829.1664-.2848.233-.4501.151-1.1239-.5592-2.4136-1.1506-3.179-1.4451-.0131-.0041-.0256-.009-.0381-.0145-.288-.1097-.4966-.1743-.5859-.1751-.7797 0-1.4058.2967-2.0109.5839-.5714.2709-1.162.551-1.8431.551-.6814 0-1.272-.2802-1.8433-.551-.6054-.2872-1.2312-.5839-2.0109-.5839-.0893.0009-.2976.0655-.5856.1748-.0125.0058-.0256.0108-.0387.0148-.7657.2944-2.0551.8862-3.1787 1.4451-.048.0239-.0989.0352-.1492.0352zm4.0081-2.3411c.9042.0134 1.6144.3503 2.2428.6485.5502.2607 1.0255.4861 1.5556.4861s1.0052-.2255 1.5553-.4861c.6281-.2979 1.3386-.6351 2.2428-.6485-.9109-1.2245-1.5643-1.5757-1.8803-1.6758-.0253.0535-.0591.1033-.1033.1472-.151.1498-.3404.1475-.4475.1475-.2636-.0003-.4303-.1356-.5406-.2249-.0326-.0265-.0815-.066-.101-.0739-.0733.0032-.1283.0384-.2342.1117-.114.0788-.27.1868-.4917.1868-.2214 0-.3773-.1079-.4914-.1868-.1059-.0733-.1609-.1085-.2551-.1085.0015.0047-.0474.0442-.08.0707-.1158.0937-.2901.2243-.5499.2249-.133 0-.3002-.0105-.4384-.1475-.0442-.0439-.0777-.0937-.103-.1469-.316.1001-.9694.451-1.8801 1.6755zm3.0516-2.3481c.3084 0 .5062.137.6374.2278.0358.0247.0893.062.1091.0672.0198-.0052.0736-.0425.1097-.0672.1309-.0908.329-.2278.6371-.2278.231 0 .3948.133.503.2208.0192.0154.0439.0355.0655.0515.0015-.0148.0041-.0291.0076-.0434-.0111-.643-1.3098-.6721-1.3229-.6721-.0128 0-1.3229.0227-1.3229.6802 0 .0134.0003.0256.0006.0369 0 .002.0003.0038.0003.0055.0195-.016.0497-.0404.0724-.0588.1083-.0877.2721-.2206.5031-.2206z" fill="#15003e"/><circle cx="47.5434" cy="46.8408" fill="#6c9b68" r=".7673"/><path d="m47.5434 47.9439c-.6083 0-1.1032-.4949-1.1032-1.1032 0-.608.4949-1.1029 1.1032-1.1029.608 0 1.1029.4949 1.1029 1.1029.0001.6083-.4948 1.1032-1.1029 1.1032zm0-1.5347c-.238 0-.4317.1935-.4317.4315s.1938.4317.4317.4317c.238 0 .4314-.1938.4314-.4317.0001-.238-.1934-.4315-.4314-.4315z" fill="#15003e"/><circle cx="62.0962" cy="46.8408" fill="#6c9b68" r=".7673"/><path d="m62.0961 47.9439c-.608 0-1.1029-.4949-1.1029-1.1032 0-.608.4949-1.1029 1.1029-1.1029s1.1029.4949 1.1029 1.1029c.0001.6083-.4948 1.1032-1.1029 1.1032zm0-1.5347c-.238 0-.4315.1935-.4315.4315s.1935.4317.4315.4317.4314-.1938.4314-.4317c.0001-.238-.1934-.4315-.4314-.4315z" fill="#15003e"/><circle cx="50.327" cy="45.3106" fill="#6c9b68" r=".433"/><path d="m50.3271 46.0793c-.4239 0-.7686-.3448-.7686-.7686 0-.4239.3448-.7689.7686-.7689.4239 0 .7686.345.7686.7689s-.3447.7686-.7686.7686zm0-.8661c-.0535 0-.0972.0436-.0972.0975 0 .0535.0436.0972.0972.0972s.0972-.0436.0972-.0972c0-.0539-.0437-.0975-.0972-.0975z" fill="#15003e"/><circle cx="59.3125" cy="45.3106" fill="#6c9b68" r=".433"/><path d="m59.3125 46.0793c-.4239 0-.7686-.3448-.7686-.7686 0-.4239.3448-.7689.7686-.7689s.7686.345.7686.7689m-.7686-.0975c-.0535 0-.0972.0436-.0972.0975 0 .0535.0436.0972.0972.0972s.0972-.0436.0972-.0972c0-.0539-.0437-.0975-.0972-.0975z" fill="#15003e"/><path d="m54.8197 42.6193c-.1853 0-.3357-.1504-.3357-.3357v-.5752c0-.1853.1504-.3357.3357-.3357s.3357.1504.3357.3357v.5752c0 .1852-.1504.3357-.3357.3357z" fill="#15003e"/><path d="m60.8976 58.2204s-.9938-2.0214-4.4206-1.3188c-.5871.1204-.3154 3.9895-.0842 5.1537.1906.9589 1.9366 1.1161 4.0409.881.4504-.0502.895-.3815 1.3197-.6899 0 0-.186-2.9173-.8558-4.026z" fill="#6c9b68"/><path d="m58.8589 63.37c-1.6921 0-2.6303-.4181-2.7956-1.2493-.0105-.0527-.8102-5.3113.3465-5.5481 3.522-.7215 4.67 1.2722 4.7812 1.4846.6994 1.1725.8897 4.0457.8975 4.1679.0073.1146-.0448.2252-.1379.293l-.0372.0271c-.4509.3276-.917.6662-1.4427.7247-.5967.0666-1.1343.1001-1.6118.1001zm-2.2477-6.1529c-.2749.508-.1338 3.5409.1108 4.7727.1245.627 1.4989.8565 3.6745.6127.3142-.0349.6645-.27 1.0087-.5182-.0722-.908-.3162-2.898-.7951-3.6902-.0047-.0076-.0087-.0154-.0128-.0236-.0387-.0753-.9365-1.7507-3.9861-1.1534z" fill="#15003e"/><path d="m60.4332 63.2716c-.1469 0-.2816-.0972-.3232-.2455-.0355-.1277.0079-.2589.1007-.3413.263-.6974-.0297-4.7867-.5109-5.1597-.169-.0762-.238-.2717-.1618-.4405.0765-.169.2816-.2409.4504-.1647.9743.4399 1.0197 4.5132.9557 5.3531-.0425.5621-.1251.9036-.4204.9863-.03.0086-.0606.0123-.0905.0123z" fill="#15003e"/><path d="m56.7774 56.8642s1.1586.6169.3867 1.5804c0 0-2.0699.4734-2.2263.2799-.1565-.1937-.8917-1.165-.5759-1.2509.3157-.0861 1.9802-.733 2.4155-.6094z" fill="#6c9b68"/><path d="m55.183 59.1052c-.3692 0-.4437-.0922-.5065-.1699-.5638-.6979-.8009-1.2024-.7049-1.4995.046-.1423.1562-.2467.3023-.2863.0663-.0183.1952-.0628.3605-.1193 1.1643-.3983 1.8657-.5944 2.2346-.4891.023.0064.0451.0154.066.0265.0692.0369.679.3773.807.9996.0518.2514.039.6438-.316 1.0872-.0474.0591-.1135.1004-.1874.1172-1.1013.2521-1.7085.3336-2.0556.3336zm-.0451-.6688c.2674.0102 1.1055-.1312 1.8302-.2921.1065-.1591.1446-.3043.1164-.4413-.0535-.2595-.3282-.4559-.4283-.5202-.3171-.0273-1.4288.3544-1.8046.4829-.0649.0221-.1248.0425-.1783.0605.0882.1786.2717.4614.4646.7102z" fill="#15003e"/><circle cx="59.9974" cy="62.3944" fill="#15003e" r=".245"/><circle cx="59.265" cy="62.4386" fill="#15003e" r=".245"/><path d="m61.0598 63.0485c-.0128 0-.0256-.0009-.0387-.0023-.1845-.0212-.3162-.1877-.295-.3718.0012-.0105.117-1.0348.0023-1.7081-.0311-.183.0919-.3564.2746-.3875.1007-.0169.197.0122.2697.0716.0401-.0332.0887-.0573.1434-.069.1821-.0384.3593.0774.3983.2586.1257.5909.0099 1.5955.0049 1.6379-.0215.1839-.1862.3157-.3724.2941-.0192-.0023-.0375-.0061-.0553-.0111-.0237.1663-.1665.2876-.3318.2876z" fill="#15003e"/><path d="m56.2175 95.675s.7733 1.1988 1.9719 0l-.2567-32.0729s-.7719 1.1608-1.7152 0z" fill="#3c2415"/><path d="m57.1483 96.5438c-.0466 0-.0928-.0026-.1394-.0076-.6744-.0719-1.0575-.6543-1.0735-.679-.0349-.0544-.0535-.1175-.0535-.1821v-32.073c0-.142.0896-.2688.2234-.3165.1332-.0468.2831-.0055.373.1047.2173.2679.43.4053.6206.3916.2575-.0108.4882-.2688.5554-.3672.0826-.1213.2348-.1769.3756-.133.1405.0428.2374.1708.2386.3177l.2569 32.0729c.0006.0899-.0346.1763-.0983.24-.4194.4197-.8491.6315-1.2788.6315zm-.595-.9828c.0884.1021.2781.2828.5312.3081.2351.0236.4931-.0902.7681-.3369l-.2499-31.2051c-.1367.0681-.2938.117-.4693.1254-.1993.009-.393-.0337-.5801-.1295zm-.3357.114h.0029z" fill="#15003e"/><path d="m50.8396 61.0542c-.3878.91.6952 1.3763 1.0414.721.2009-.3802.42-2.3325 2.593-2.3325 2.1051 0 1.7437 3.0008 1.7437 4.035 0 .7937 1.7152.7694 1.7152 0s.5725-5.527-3.4589-5.527c-2.4618 0-2.9962 1.606-3.6344 3.1035z" fill="#3c2415"/><path d="m57.0654 64.3996c-.2845 0-.5539-.0692-.759-.1949-.2738-.1679-.4245-.4262-.4245-.727 0-.1187.0047-.2624.0099-.4245.0276-.8615.0742-2.303-.5458-2.9434-.2159-.2229-.5013-.3314-.8719-.3314-1.4602 0-1.8847.9356-2.1683 1.8125-.046.1423-.0823.2546-.128.341-.2319.439-.7477.6075-1.1998.3922-.4181-.199-.7363-.7227-.4472-1.4014l.1027-.2429c.6043-1.4366 1.2891-3.0647 3.8406-3.0647 1.1102 0 1.9987.3401 2.6411 1.011 1.3022 1.3598 1.2004 3.7108 1.1623 4.5958-.0047.1082-.0087.1952-.0087.2557-.0001.5342-.5061.922-1.2034.922zm-2.5914-5.2926c.5545 0 1.0101.1804 1.3543.5359.8178.8446.7657 2.4642.7343 3.4321-.0049.1536-.0093.2901-.0093.4026 0 .1728.2994.2505.512.2505.2569 0 .5318-.1007.5318-.2505 0-.0675.0041-.1644.0093-.2848.0349-.8068.1277-2.9495-.9764-4.1024-.5109-.5333-1.2362-.8038-2.1561-.8038-2.1055 0-2.6228 1.2298-3.2218 2.6536l-.1036.2455c-.1245.2918-.0207.4661.1181.5321.0355.0169.2162.0914.3174-.0995.0183-.0349.0524-.1405.0826-.2339.2205-.6814.7366-2.2774 2.8074-2.2774zm-3.6343 1.9472h.0029z" fill="#15003e"/><path d="m58.1218 57.4578s1.2274.4657.5832 1.5188c0 0-1.9936.731-2.1732.5588-.1796-.1724-1.0317-1.0431-.7292-1.1682.3024-.125 1.8718-.9769 2.3192-.9094zm-3.7993 3.224s.772.907 1.0422.7161c.223-.1576 1.051-1.0978.9824-1.3371-.091-.3173-.6687-1.1137-.9521-.9504-.3985.2295-1.2174 1.0987-1.0725 1.5714zm4.3982-1.1147s1.2266.2917.6858 1.4948c-.1356.3015-1.7296.9457-1.9459.8223-.2162-.1234-.8098-.9241-.5469-1.1191.263-.1948 1.5689-1.1914 1.807-1.198zm-3.6253 2.6748s.1863.8943.5005.7911c.2595-.0853 1.3085-.4565 1.313-.7054.006-.33-.3127-1.2608-.6316-1.1878-.4483.1027-1.1819.6077-1.1819 1.1021z" fill="#6c9b68"/><path d="m55.5458 63.377c-.0873 0-.1737-.0233-.2534-.0692-.3264-.1888-.4763-.7605-.5257-.9976-.0047-.0224-.007-.0454-.007-.0684 0-.2039.0719-.396.1868-.5696-.2543-.1251-.5481-.3832-.8798-.7727-.0297-.0349-.0518-.0754-.0652-.1193-.2284-.7451.8513-1.745 1.2257-1.9606.0762-.0439.1615-.0663.2502-.0663-.0643-.144-.0867-.2688-.0666-.3741.0276-.1466.1236-.2642.2636-.3218.0634-.0262.1853-.0867.3418-.1635 1.1055-.5426 1.777-.8254 2.1558-.7678.0236.0035.0466.0096.0687.018.0733.0276.7215.2886.9272.8897.0829.2426.1199.6337-.1763 1.1181-.0282.046-.0666.0841-.112.1117.1929.0614.6561.2508.8812.7078.1749.3552.1586.7684-.048 1.2283-.208.462-1.5131.8914-1.5687.9095-.5106.1664-.709.1472-.8498.0666-.0207-.0116-.0431-.0268-.0669-.0451.0122.0788.018.1481.0172.2031-.0029.1661-.009.5126-1.5437 1.0183-.0509.0167-.103.0249-.1551.0249zm-.1126-1.1632c.041.1757.11.3657.1658.4637.4576-.1583.8347-.336.9688-.4361-.0297-.2325-.1792-.622-.2903-.7538-.3532.1147-.8111.4766-.8443.7262zm1.7616-1.2396c.0512.1618.2624.4681.3945.5877.3282-.034 1.3453-.4699 1.5195-.6572.1123-.2583.1295-.4713.0509-.6339-.0905-.1868-.3049-.3008-.4396-.3517-.1414.0678-.5144.2988-1.4951 1.0328zm-2.5558-.4402c.2138.2386.4655.4623.599.5339.2229-.2025.6799-.7509.7678-.9665-.0873-.2121-.3593-.5627-.5091-.6587-.3716.2508-.8403.8495-.8577 1.0913zm2.4755.5001-.0009.0009s.0006-.0006.0009-.0009zm-.757-.2322c.0538.0049.1071.0186.1588.0404.0224-.1885.1289-.2962.1975-.3471l.1088-.0812c.5219-.3907.8894-.6529 1.1541-.8283-.7131.2322-1.1041.3075-1.3316.3101.0099.0259.018.05.0244.0719.0636.2212-.0955.5354-.312.8342zm-.2138-2.223c.11.1658.3276.423.5504.6456.2723-.0244 1.0805-.27 1.779-.5208.0849-.1705.1044-.3186.0599-.4504-.0783-.2327-.35-.3992-.4899-.464-.3119.0105-1.3741.5318-1.731.7073-.0614.0299-.1178.0576-.1684.0823z" fill="#15003e"/><path d="m48.9148 57.002s1.1474-2.1372 3.3241-2.0729c.5989.0177.7219 5.0562.3861 5.2206s-1.8786 1.0972-4.5528.6307c-.0001 0-.0903-1.7893.8426-3.7784z" fill="#6c9b68"/><path d="m49.5081 61.245c-.4835 0-.9819-.0445-1.4936-.1338-.1545-.0271-.2697-.1574-.2778-.3139-.0038-.0765-.0832-1.8963.8743-3.9378.0026-.0055.0052-.0111.0081-.0163.05-.0931 1.2356-2.2512 3.5217-2.2512.0358 0 .0716.0006.1079.0015.3992.0116.5534.4771.6514.9307.1638.7573.5176 4.6113-.1277 4.9272l-.0768.0393c-.9694.5021-2.0369.7543-3.1875.7543zm-1.0997-.7512c2.2157.3142 3.5331-.3689 3.9782-.5993v-.0003c.192-.6526.0687-4.0247-.2584-4.6308-1.8265.0099-2.8453 1.7686-2.914 1.8908-.6732 1.4401-.7889 2.7831-.8058 3.3396zm4.069-.6456c-.0029.0012-.0058.0026-.0087.0041z" fill="#15003e"/><path d="m51.4376 60.9788c-.0157 0-.0314-.0012-.0474-.0032-.1836-.0259-.3113-.1958-.2857-.3794.002-.014.1943-1.4171-.0006-2.9771-.023-.1839.1074-.3517.2915-.3747.0916-.0113.1786.0151.2461.0666.0268-.1402.142-.2528.2915-.27.1847-.0201.3506.1114.3718.2956.2229 1.9501.0055 3.1342-.0038 3.1837-.0346.1818-.2109.302-.3919.2671-.055-.0102-.1044-.0335-.1458-.066-.036.1512-.1718.2574-.3257.2574z" fill="#15003e"/><path d="m52.7074 55.6488s.0933 1.4529.3731 1.2766c.2799-.1763 2.009-.6875 2.0401-.9345s.1445-1.4599-.169-1.3666-2.3009.693-2.2442 1.0245zm5.0369.1051s-.4059.8861-.6857.71c-.2799-.1761-1.4104-.2257-1.4414-.4728-.0311-.247-.1445-1.4599.169-1.3666s2.0148.798 1.9581 1.1294zm-4.4248 2.3822s-.2984 1.6719.0311 1.6443c.3294-.0276 1.9686.1011 2.1099-.1037.1413-.205.3285-1.1841.0071-1.2455-.3215-.0615-2.0459-.6155-2.1481-.2951z" fill="#6c9b68"/><path d="m54.577 60.1305c-.1926 0-.416-.0041-.6767-.0108-.2182-.0052-.4434-.0108-.5219-.0047-.1303.0105-.2592-.0396-.3497-.1388-.0783-.0861-.3165-.3477-.0396-1.8992.0026-.0145.0061-.0288.0105-.0431.1661-.5202.9391-.3544 2.1942-.0186.1527.041.2735.0739.3366.0858.0998.0192.2822.0873.3814.3293.1728.4207-.0151 1.2048-.1749 1.4366-.1402.2032-.4177.2635-1.1599.2635zm-1.0235-.565h.0029zm-.0198-.1248c.0986.0006.2237.0038.3837.0079.3503.009 1.0476.0268 1.2944-.0224.0637-.1699.1175-.526.0928-.6878-.0745-.0183-.1719-.0442-.2845-.0742-.281-.0751-1.068-.2857-1.3991-.2938-.0669.4264-.1007.8512-.0873 1.0703zm-.4998-2.1649c-.0637 0-.1274-.0148-.1862-.0448-.1155-.0591-.3858-.197-.4742-1.5431-.0419-.2528-.046-.6345 2.4828-1.3851.144-.0425.2933-.0125.407.0838.0401.034.0754.078.1053.1321.0303-.0538.0655-.0978.1056-.1318.114-.0963.263-.1268.4076-.0841.0236.007 2.3222.7553 2.1933 1.5079-.0047.0285-.0134.0564-.0256.0832-.1082.2362-.3997.7977-.7669.9074-.1388.0407-.2825.0227-.4029-.0535-.0701-.0407-.3494-.0954-.5341-.1315-.4463-.0873-.8187-.1597-.9801-.3759-.1711.2162-.6008.3925-1.4582.7105-.2435.0905-.5775.2144-.6479.2586-.0698.0442-.1478.0663-.2255.0663zm.1894-.5862h.0029zm-.1743-.9705c.0239.3017.069.6066.1149.7969.1286-.0527.2959-.1152.5097-.1946.3334-.1236.9284-.3445 1.125-.4696.0323-.3069.0399-.6371.0221-.8367-.946.2923-1.582.5631-1.7717.704zm4.188.4602.0003.0003zm-1.3002-.3474c.1271.0451.3768.094.5374.1254.2551.0498.4824.094.6497.1644.0669-.0713.1609-.2115.2415-.3605-.2499-.2095-1.0075-.5635-1.4497-.7352-.0161.1964-.0091.5103.0211.8059zm1.8076-.0779h.0029z" fill="#15003e"/><path d="m53.0669 56.4103s.0933 1.4529.3731 1.2766c.2799-.1763 2.009-.6875 2.0401-.9345s.1445-1.4599-.169-1.3666c-.3136.0934-2.301.693-2.2442 1.0245zm4.8002-.2577s-.157.8653-.4638.9851c-.3081.1202-1.3954-.1382-1.4265-.3852s-.1445-1.4599.169-1.3666 1.778.4352 1.7213.7667z" fill="#6c9b68"/><path d="m53.3935 58.0372c-.0637 0-.1271-.0148-.1862-.0448-.1155-.0591-.3858-.197-.4745-1.5431-.0419-.2528-.0463-.6345 2.4828-1.3851.144-.0428.2935-.0122.4073.0841.0401.034.0754.078.1056.1318.03-.0538.0652-.0978.1053-.1318.1138-.0963.263-.1268.4076-.0841.0401.0119.1001.0279.174.048 1.0671.2883 1.8759.5525 1.7825 1.0971 0 .0012-.0003.002-.0006.0032-.0573.3157-.2374 1.068-.6721 1.2379-.3834.1492-1.2283-.0477-1.5774-.2557-.0966-.0573-.1708-.1222-.222-.1938-.1705.2165-.6002.3928-1.459.7113-.2438.0905-.5775.2144-.6479.2586-.0697.0443-.1477.0664-.2254.0664zm.1894-.5862h.0029zm-.1746-.9703c.0241.3014.069.6063.1152.7966.1286-.0527.2956-.1152.5097-.1943.3334-.1239.9284-.3448 1.125-.4699.0326-.3069.0399-.6371.0221-.8367-.9457.2921-1.582.5632-1.772.7043zm2.8916.1443c.1984.1181.8166.2482.9842.1987.055-.0486.1655-.3363.2298-.6203-.1257-.0835-.4507-.2191-1.237-.4332-.0189.2017-.011.5415.023.8548zm1.5673-.4725h.0029z" fill="#15003e"/><path d="m49.9224 60.4167h-1.8236c-.1853 0-.3357-.1504-.3357-.3357s.1504-.3357.3357-.3357h1.8236c.0634 0 .0823-.0221.0902-.0317.0218-.0253.0346-.0678.0346-.1135 0-.0576-.0163-.1542-.1248-.1542h-1.6918c-.1853 0-.3357-.1504-.3357-.3357s.1504-.3357.3357-.3357h1.6918c.2406 0 .4544.0972.6022.2735.1251.1498.194.3459.194.5522.0001.4654-.3424.8165-.7962.8165z" fill="#15003e"/></svg>