<svg xmlns="http://www.w3.org/2000/svg" viewBox="0 0 110.979 128.417"><path fill="#BA1A39" d="M110.927 96.262l-55.426 32-55.424-32v-64l55.424-32 55.426 32z"/><radialGradient id="a" cx="55.703" cy="64.417" r="49.688" gradientUnits="userSpaceOnUse"><stop offset="0" stop-color="#00aeef"/><stop offset="1" stop-color="#2e3192"/></radialGradient><path fill="url(#a)" d="M101.703 37.847v53.14l-.01.01-.021.011-.41.239-.37.21-.619.351-4.15 2.39-.01.01-.13.08-.061.03-.55.32-.8.45-.101.06-.439.26-.04.021-.32.18-.62.36-.189.109-.851.49-.739.43-.24.131-.13.05-.11.069-1 .57-.03.021-2 1.149-.51.29-.14.08-.03.021-.14.079-.011.011-1.04.59-.04.03-.069.04-1.16.67-.45.26-.019.02h-.011l-.42.24-1.12.65-.869.519-1.181.67-.08.05-.12.07-.039.03-.04.02-.021.011-.1.06-.29.17-.03.01-.16.091v.01l-.399.229-.271.16-.11.061-.18.09-.019.019-.04.021-.69.39-.06.04-.24.14-.021.011-.29.17-.039.02-.11.061-.22.13-.24.14h-.01l-.141.08-.279.17-.29.17-.011.01-.02.011-.3.17-.141.08-1.22.71-.5.29-.25.14-.7.4-.03.02h-.01l-.31.18-.05.03-.24.15-.311.18-.529.3-.46.26-.17.101-.061.03-.5.29c-.01.01-.01.01-.01 0l-.53.31-.04.02-.069.051-.181.1-.12.07-.17.1-.47.271-.05.029-.05.03-.03.01c0 .011-.01.011-.01.011l-.021.02-.25.14-1 .58-.17.101-.02.01-.021.01-.38.22-.36.211-.17.09-.77.449-.12.07-.36.21-.09.05-.24.141-.8.46-.26.149-.28.16-.01.01-.2.12-.02.011-.21.119-.351.2-.41.24-.42.24-.01.01-.09.05-1.32.76-.02.011-.79.46-.61.35h-.01l-1.41.811-.02.02-.25.14-.091.051-.47.27h-.01l-.13.08-.19.11-.02.01-.25.15h-.011l-.199.119-.061-.029-1.14-.66-.021-.01-.199-.12-.851-.49-.03-.01-.329-.19-.011-.01-1.399-.811-.011-.01-.02-.01-.8-.46-.101-.06-.33-.19-.14-.08-.03-.02h-.01l-.05-.03-.78-.45-.06-.04-.34-.189-.181-.11-.02-.01-.66-.38-.04-.03-.09-.05-.101-.061-.13-.07-.27-.159-.12-.07h-.01l-.721-.42-.239-.13-.391-.23-.05-.029-.03-.021-1.399-.81h-.01l-.11-.07-.37-.22h-.01l-.271-.16-.62-.36-.029-.01-.06-.04-.04-.021-1.29-.75-.39-.229-.28-.16-.399-.229-.38-.221-.2-.109-.11-.06-1-.58-1.72-1c-.01-.01-.021-.02-.03-.02l-1.32-.76-3.92-2.261-.159-.09-.57-.33-.47-.27-.44-.26-.3-.171-.38-.22-.99-.58-.04-.02-2.74-1.59-.1-.061-.18-.1-.671-.38-.819-.471-.09-.05-.19-.109-.21-.12-.1-.06-.011-.01-.08-.05h-.01l-.12-.07h-.01l-.309-.18-.73-.42c-.01-.011-.01-.011-.02-.011l-1.86-1.079-1.02-.591-.471-.27-.04-.03-.29-.16-1.31-.77-.09-.05-.2-.12s-.01 0-.021-.01l-.279-.16-.53-.3-.82-.48-.06-.04h-.01-.011l-.489-.29-.7-.4-.68-.39-1.221-.71-.1-.06h-.01l-.33-.19-.41-.24h-.01l-.431-.25-.989-.569-.08-.04-.03-.021v-53.14l.78-.45 1.59-.92.359-.21 3.381-1.95 1.059-.61 5.78-3.34h.01l.91-.52 1.05-.62 1.82-1.05h.01l.87-.51 3.63-2.08.64-.381.94-.539.17-.091 1.66-.949.779-.45.381-.221.439-.26.67-.39.431-.26.519-.301.5-.279.59-.34 1.19-.681.689-.41.75-.43.65-.37h.01l.05-.03.431-.25 5.29-3.05.109-.059.08-.05.271-.16 5.52-3.19.55-.319 1.44-.83.51.3 1.09.63 2.86 1.65 3.09 1.79 2.6 1.5.221.13 4.689 2.699.98.57 5.13 2.96.91.521 1.04.609 2.3 1.311.87.5.689.399.83.48.49.28.58.34.3.17.8.46.091.06 1.81 1.04 2.16 1.24 1.12.65.5.29.04.029v.011l.26.14.66.39 1.46.84 1.939 1.12.78.441.441.25.489.28 1.45.84.17.1.851.49 1.813 1.03z"/><path fill="#E53D4D" d="M53.543 71.767c.26.12.521.229.79.28.07.01.14.02.2.02a7.6 7.6 0 0 0-.99-.3zm0 0c.26.12.521.229.79.28.07.01.14.02.2.02a7.6 7.6 0 0 0-.99-.3zm0 0c.26.12.521.229.79.28.07.01.14.02.2.02a7.6 7.6 0 0 0-.99-.3zm36.031-7.7c-.061-.1-.101-.18-.15-.28-.01-.02-.019-.05-.03-.069-.01-.011-.01-.021-.02-.03v-.02c.04-1.73-1.53-3.811-2.271-5.16-.819-1.49-1.89-2.95-3.39-3.78-.01-.01-.01-.021-.019-.021a2.063 2.063 0 0 0-.191-.109l-.25-.311s-.01-.01-.01-.02c-.93-1.12-1.87-1.99-3.44-1.79v.01c-.35-.03-.71-.03-1.01.05-.17.04-.29.12-.37.23-.09.12-.13.28-.12.43v.04c-.16.15-.26.38-.21.69.05.31.13.56.271.84.09.189.27.31.46.36.189.4.359 1.05.62 1.489.059.5.12.99.199 1.481-.329.22-.56.55-.71.939a2 2 0 0 0-.21.19c-.02.03-.05.06-.069.09 0 0 0 .01-.011.01v.011c-.239.369-.189.75.03 1.069 0 .061-.01.12-.01.181-.01.869.439 1.56.83 2.31.1.21.189.41.28.59 0 .08.01.17.02.25.04.57.08 1.141.08 1.72 0 .15-.01.29-.01.431-.07.12-.13.25-.181.39-.05.15-.1.311-.14.47-.16.66-.16 1.381-.02 2.021h-.011c-.1-.43-.25-.84-.449-1.25a.312.312 0 0 0-.061-.13c-.64-1.3-1.63-2.521-2.32-3.76a1.02 1.02 0 0 0-.39-.381h-.01a.901.901 0 0 0-.22-.09c-.07-.05-.141-.09-.211-.12-.06-.02-.13-.04-.189-.05-.021-.09-.04-.189-.07-.28-.12-.439-.3-.88-.51-1.31-.15-.59-.37-1.09-.74-1.59-.779-1.09-1.27-3.05-2.63-3.51-.06-.021-.12-.021-.18-.03-.181-.21-.351-.42-.521-.63-.359-.431-.71-.87-1.08-1.29.011-.01.03-.021.04-.03.051-.04.101-.08.15-.13l.04-.04c.64-.76.37-1.8.21-2.68a.803.803 0 0 0-.75-.66h-.01a.761.761 0 0 0-.36.06c-.32.141-.6.33-.89.521-.4.26-.941.28-1.41.33-.29.029-.48.18-.57.38a.106.106 0 0 0-.03.07.677.677 0 0 0-.05.279v.07c-.29-.19-.62-.4-.97-.58-.21-.11-.42-.2-.63-.28-.101-.04-.2-.069-.3-.09-.011 0-.011-.01-.021-.01a2.048 2.048 0 0 0-.59-.101c-.61-.489-1.2-1.029-1.83-1.5-.399-1.239-.479-2.55-.16-3.81.03-.12.061-.24.101-.36.18-.619.47-1.229.87-1.81 0-.01 0-.01.01-.021.29-.42.64-.829 1.04-1.21.18 0 .359-.01.54-.02 0-.01.01 0 .01 0 .44-.03.88-.08 1.33-.09.28-.01.479-.17.58-.37.01-.01.01-.021.01-.03.22-.43.04-1.08-.55-1.149a1.015 1.015 0 0 0-.18-.021c-.4-.59-.94-.66-1.61-.81-.44-.101-.84-.2-1.23-.11-.17.04-.34.1-.5.22 0-.069 0-.14-.02-.21a.85.85 0 0 0-.14-.39 8.194 8.194 0 0 0-1.211-1.51c.171-2.23-4.18-4.25-5.51-5.221-.05-.029-.09-.04-.13-.06-.76-.84-1.95-1.18-3.09-1.31-.91-.471-1.86-.771-3.1-.5a9.147 9.147 0 0 0-1.74.519c-1.75.14-3.75.93-4.75 2.41 0 0 0 .01-.01.019-.061.07-.101.141-.141.21-.16.091-.31.17-.47.25-.01 0-.021.011-.03.021-.78.46-1.53 1.019-2.21 1.88-1.2 1.51-2.21 3.53-2.33 5.49-.22 3.279.82 9.66 3.88 12.16.7 1.489 1.45 2.97 2.49 4.26.101.12.22.21.351.28.09.079.199.14.319.18.34.939.69 1.87 1.17 2.75.03.05.061.08.09.12.101.42.181.85.221 1.29.01.05.029.09.04.13.029.18.06.35.09.52v.021c0-.01 0-.01.01 0v.01c.01.07.021.13.04.2 0 .04.03.069.04.1a.72.72 0 0 0-.33.16c-.32.271-.63.55-.939.83-.11.04-.221.1-.33.21-.5.53-1.021 1.03-1.57 1.52a.918.918 0 0 0-.21.28.545.545 0 0 0-.29.2c-.15.21-.32.42-.48.63-.069.05-.149.09-.21.17-.42.5-.62.75-.859 1.12 0 .01 0 .01-.011.021a9.33 9.33 0 0 0-.17.27v.01c-.029.05-.069.11-.109.17-.08.11-.17.221-.25.341a.732.732 0 0 0-.141.489.782.782 0 0 0-.369.5c-.131.45-.24.9-.351 1.351-.05.18-.09.35-.13.529a3.51 3.51 0 0 0-.13.271c-.01.01-.01.01-.01.02-.561 1.15-.931 2.46-1.17 3.82-.011.01-.011.021-.011.03-.17.89-.279 1.8-.359 2.7 0 .029-.011.05-.011.069-.119 1.17-.189 2.34-.26 3.4-.02.16.021.29.07.399-.061.311-.12.61-.2.91-.03.141-.07.29-.1.431 0 0 0 .01-.011.01-.119.46-.25.899-.38 1.359a.868.868 0 0 0 0 .421c.011.01 0 .01 0 .01-.01.01 0 .02 0 .02a.67.67 0 0 0 .06.431c.279.58.51 1.159.91 1.67.26.319.609.5.97.66.27.13.54.25.78.43.22.189.439.37.67.54.02.03.05.04.08.05.529.41 1.109.78 1.79 1.06.119.03.229.061.35.08.14.011.27-.01.4-.05.119.04.25.07.38.101.439.14.91.199 1.439.21.12.01.24-.011.34-.051.04-.01.091-.02.131-.04.01 0 .019.011.029.011.01.01.021.01.03.029h.01c.431.351 1.17.261 1.57-.119.06-.061.12-.12.16-.181l.01-.01c.14-.13.25-.26.35-.4.011-.02.021-.04.04-.06.301-.34.53-.74.79-1.11.061-.06.12-.13.17-.22.021-.03.04-.07.061-.1 0-.011 0-.021.01-.021.01-.03.03-.05.05-.08 0-.01 0-.019.01-.03.011-.029.03-.05.04-.079.021 0 .04.01.061.01.17.03.35.02.52-.021.021-.01.04-.01.061-.02.04-.01.08-.03.12-.05a.73.73 0 0 0 .14-.08c.01 0 .03-.011.04-.021.5-.35.9-.819 1.27-1.319.191-.221.37-.44.54-.66.131-.181.261-.37.381-.55l.01-.021c.01-.01.019-.01.019-.02.011 0 .011 0 .021-.011h.01c.18-.04.35-.12.5-.29.17-.189.34-.39.52-.569.011 0 .011 0 .011-.011 1.01-1.109 2.06-2.119 2.93-3.27a11.336 11.336 0 0 0 1.05-1.651c.09.07.19.141.28.19.03.03.06.05.09.07.03.02.07.05.101.06.269.18.55.33.869.41h.011c.12.05.25.08.38.1a.753.753 0 0 0 .34-.01c.02 0 .04 0 .05-.02.15-.03.28-.12.36-.271.279-.55.62-.79 1.21-.93.359-.09.71-.01 1.069 0h.071v.13c.01.12.04.229.09.32.051.09.11.159.19.22.01 0 .01.01.01.01.061.03.11.061.16.1.08.04.17.061.26.08.19.021.391 0 .561-.08.05-.01.09-.039.13-.069h.01v-.01a.72.72 0 0 0 .33-.58c0-.021 0-.051.01-.07.03-.63.12-1.28.25-1.94 0-.02.01-.029.01-.05.101-.569.23-1.14.391-1.72.13-.14.25-.28.35-.44.01-.01.01-.02.021-.029.109-.17.199-.351.26-.54.03-.101.05-.2.06-.29v-.011c.011-.13.011-.239-.01-.359.03-.03.061-.061.09-.101.08-.09.15-.189.221-.29.01-.01.01-.02.01-.02.49-.63.95-1.37 1.37-2.11.019-.04.05-.09.069-.13l.011-.01c.079-.16.17-.31.25-.47h.01c.109-.2.22-.4.319-.601a.347.347 0 0 0 .03-.069c.04-.07.09-.141.12-.21.13-.24.24-.48.32-.73.01-.02.01-.05.02-.08s.021-.06.021-.09c.029-.07.04-.15.05-.23v-.01c.01-.09.02-.16.02-.25 0-.08-.01-.18-.02-.27 0-.021-.01-.03-.01-.05l.01.01c.03.01.07.03.1.04 0 0 .011.01.021 0l.01.01c.021.01.03.01.05.02.141.051.28.061.41.051.311.029.62 0 .93-.15.41-.189.71-.56.92-.979l.061-.141c.05.061.11.12.18.17.05.04.11.07.17.101l.011.01c.22.11.489.14.77.05.01 0 .01-.01.01-.01.04 0 .08-.021.12-.04.561-.26 1.2-.57 1.691-.95 0 0 .01-.01.02-.01.15-.12.271-.24.38-.37l.011-.01c.239-.32.38-.681.29-1.12v-.021a1.867 1.867 0 0 0-.07-.29c-.03-.079-.07-.159-.11-.239-.08-.16-.17-.32-.26-.48.09-.09.16-.21.18-.34.03.2.11.4.271.56.01.011.029.03.029.04.011.011.021.011.021.021.1.1.2.16.31.2-.619 2.04-.649 4.13-.17 6.29v.04l.03.149c0 .021.01.03.021.05a.865.865 0 0 0-.03.23v.07c-.29 1.77.37 3.85 1.18 5.33l.01.01c.03.059.061.12.091.17.01.03.01.06.02.09v.02c.02.12.05.25.09.37.03.11.061.21.11.32v.01c.27.761.74 1.511 1.25 2.21.14.19.28.38.42.561.02.029.04.05.06.08v.02s.011 0 0 .01c0 .141.011.261.03.4v.01c0 .05.01.101.021.15.029.24.09.47.159.7v.01c.141.439.351.85.61 1.24.13.189.29.29.46.34h.01c.011 0 .021.01.04.01v.021c.021.05.061.09.08.14l-.01.01c.02.03.04.05.06.08.07.13.15.25.24.36.08.1.16.19.25.27.84.8 2.15.94 3.34 1.021.49.04.96.029 1.42-.04h.011c.79-.09 1.51-.33 2.149-.721l.01-.01c.23-.13.44-.29.65-.47.08.03.15.06.2.11.01.01.02.02.03.02.619.49 1.319.02 1.35-.58v-.01c.02-.04.01-.09.01-.13.351-.07.681-.311.851-.681v-.01c.01-.02.01-.03.02-.05.03-.08.061-.16.07-.25l.149-.87c.051-.28.101-.56.16-.84.021-.12.04-.24.07-.35l.06-.301.09-.439c.04-.2.08-.391.131-.59.04-.221.09-.44.14-.66v-.01c.49-2.211.99-4.37 1.19-6.54.01-.011.01-.021 0-.03.01-.01.01-.01 0-.021.01-.01.01-.01 0-.02.01-.03.01-.061.01-.09.257-2.848-.022-5.698-1.512-8.648zm-25.651 6.67c-.21.17-.43.33-.649.47-.181.12-.351.24-.54.32a.022.022 0 0 0-.021.021c-.11.069-.229.13-.35.18-1.011.49-2.101.74-3.25.66 0 0-.011.01-.021 0-.14-.021-.29-.03-.439-.05-.25-.04-.511-.07-.78-.091h-.01c-.19-.01-.391-.02-.58-.01-.09-.01-.17 0-.26.01-.07 0-.141.011-.21.021l-.011.01h-.01c-.08.01-.16.021-.24.04-.269.07-.519.18-.739.351a.59.59 0 0 0-.131.1.356.356 0 0 0-.1-.08c-.01-.02-.019-.03-.04-.03a.305.305 0 0 0-.13-.1c-.26-.21-.54-.36-.86-.48l-.019-.01c-.311-.12-.65-.22-.99-.3h-.01c-.28-.061-.54-.11-.811-.14-.02 0-.04-.011-.05 0a.459.459 0 0 0-.12-.021c-.239-.03-.47-.05-.689-.07l.359-.63a.933.933 0 0 0 .351-.359c.029-.051.05-.091.08-.141v-.01l.27-.479c.04-.07.09-.15.13-.221l.391-.69a.937.937 0 0 0 .33-.21c.02-.011.05-.04.069-.061l.09-.12c.04-.06.08-.109.11-.17v-.01c.37-.57.61-1.23.809-1.91 0-.02 0-.03.011-.05.13-.4.229-.81.34-1.21a3.057 3.057 0 0 0 .649-.7c.12-.17.23-.36.341-.55.01 0 .01-.021.01-.021.09-.189.189-.369.28-.569.119-.25.22-.49.319-.721 0-.01 0-.02.011-.039.019-.03.039-.051.059-.08.34-.24.53-.42.68-.681.021.03.03.05.05.08.07.101.131.19.181.29.479.75.899 1.521 1.319 2.3.04.08.08.17.12.25.431.811.86 1.641 1.341 2.44.539.91 1.029 1.87 1.76 2.56.08.08.16.141.229.2a3.534 3.534 0 0 0 1.3.641c.011-.011.011 0 .011 0l.109.029c-.019.01-.028.031-.049.041zm-15.5-22.84c.33-.69.641-1.15 1.061-1.44.229-.02.449-.039.67-.09h.01c.189-.029.37-.069.57-.13.06-.03.119-.05.18-.06.06-.021.11-.05.17-.07 0 0 .01-.01.02-.01.141-.05.29-.12.441-.2.13-.07.23-.16.32-.25.229.04.479.021.66-.08.109-.06.21-.12.31-.18.02-.021.04-.03.06-.05.011 0 .021-.011.021-.011a.7.7 0 0 0 .16-.14h.33c.109 0 .229 0 .35.01h.03c.59 0 1.18-.01 1.78-.17.13-.03.25-.07.38-.12h.01c.11-.029.22-.069.32-.109.02-.011.029-.011.05-.021.01.021.02.05.029.07a.7.7 0 0 0 .11.22c.21.351.57.65.86.9.2.18.399.359.58.569.04.03.069.07.1.11 0 .021-.01.04 0 .06v.011c-.04.479.16 1.109.24 1.47.13.58.22 1.19.28 1.79-.2.38-.341.77-.521 1.26-.79 2.13-2.36 3.28-4.67 3.28-.64 0-1.67-.25-2.56-.66-.04-.019-.08-.04-.11-.059-.64-.311-1.2-.7-1.44-1.15-.01-.04-.02-.09-.029-.13v-.01c-.19-.971-.48-1.9-.811-2.851-.06-.189-.12-.37-.18-.55 0 0-.01-.01 0-.019-.05-.141-.101-.25-.14-.381l-.061-.17c.03-.029.05-.069.07-.1.14-.169.251-.349.35-.539zm5.12 23.87c.26.12.521.229.79.28.07.01.14.02.2.02a7.6 7.6 0 0 0-.99-.3zm0 0c.26.12.521.229.79.28.07.01.14.02.2.02a7.6 7.6 0 0 0-.99-.3z"/><path fill="#FCFAFA" d="M58.249 48.975a.87.87 0 0 0-.225-.361c-.064-1.307-.63-2.599-1.731-3.14a1.153 1.153 0 0 0-.753-.069 1.19 1.19 0 0 0-.726-.091c-.884.15-1.806.232-2.655.533-.813.289-1.784.237-2.481.808-1.751 1.433-1.426 3.612-.248 5.255 1.149 1.602 2.636 2.582 4.68 2.313 1.235-.161 2.834-1.11 3.321-2.371.702-.776 1.146-1.84.818-2.877zM67.823 43.015c-.586-.271-1.204-.313-1.798-.101-.882-.059-1.693-.065-2.531.674-.278.245-.485.54-.658.857-.881.765-1.308 1.922-.991 3.084-.022.416.019.829.154 1.226.463 1.353 1.646 2.485 3.052 2.414.052.046.088.107.144.148.898.66 1.861.44 2.823.074 3.888-1.479 3.279-7.397-.195-8.376z"/><path fill="#664770" d="M60.023 71.246a.831.831 0 0 0-.052-.155c-.011-.025-.015-.052-.026-.076a1.031 1.031 0 0 0-.129-.193l-.009-.015.001.004a2.261 2.261 0 0 0-.185-.195 4.235 4.235 0 0 0-.751-.568c-.31-.188-.618-.365-.972-.455a1.687 1.687 0 0 0-.73-.041c-.081-.142-.189-.26-.309-.245l-.067-.188c-.29-.226-.703-.183-.998.015-.073-.055-.147-.119-.219-.166-.313-.207-.676-.265-1.008-.104-.463-.289-1.004-.181-1.319.295-.233.354-.479.641-.579 1.063a.992.992 0 0 0-.001.384 1.994 1.994 0 0 0-.087.552c-.003.371.263.755.589.915a.949.949 0 0 0 .703.058c.297.465.971.575 1.462.446.424-.109.964-.308 1.332-.632.069.35.312.671.7.704l.189.017a.836.836 0 0 0 .554-.148l.108-.031c.005.001.009.003.014.003.204.01.399-.031.563-.123.6.161 1.229-.333 1.24-.93a.925.925 0 0 0-.014-.191z"/><path fill="#581D5E" d="M68.597 81.809c.029-.328-.092-.671-.244-.955a.665.665 0 0 0-.181-.206l-.008-.012c-.083-.264-.246-.504-.379-.734-.15-.262-.518-.455-.786-.556-.622-.234-1.383-.078-1.88.352-.022.02-.036.041-.056.062a1.553 1.553 0 0 0-.425.076c-.298.099-.534.3-.76.51-.39.363-.858.964-.946 1.506l-.012-.01c-.25-.187-.494-.402-.773-.548-.043-.052-.076-.105-.13-.155a1.376 1.376 0 0 0-.617-.294 1.186 1.186 0 0 0-.407-.026l-.038.001c-.06-.015-.117-.042-.179-.045a1.232 1.232 0 0 0-.456.071c-.38-.06-.771.195-.973.506-.063.087-.089.193-.126.294-.1.108-.18.227-.226.355a.781.781 0 0 0-.233-.14 3.75 3.75 0 0 0-.738-.183c-.044-.06-.093-.116-.135-.178-.392-.559-1.146-.466-1.478.09-.444.742-.865 1.537-1.314 2.309a.777.777 0 0 0-.384.153 2.01 2.01 0 0 0-.56.726c-.038-.016-.063-.044-.108-.052-.5-.091-.783.377-.684.812a.036.036 0 0 1 .002.011c-.176.058-.354.121-.533.164-.769.185-.475 1.477.297 1.349.297-.05.543-.157.783-.288.005.051.016.101.021.151-.011.035-.028.066-.032.107-.033.321-.145.851.029 1.174.035.065.077.127.122.187-.016.115-.015.232.006.347.219 1.221 1.228 1.611 2.304 1.087l.034-.02c.199.127.437.178.678.065.415-.193.672-.416.953-.764a20.87 20.87 0 0 0 1.451-1.397c.104-.098.193-.213.29-.319.741.697 1.901.47 2.689-.025.12-.076.21-.174.296-.273.167-.027.414-.085.385-.163.04.11.371-.393.533-.657.454.479 1.04.853 1.62 1.09.167.068.346.104.526.122 1.018.32 2.113-.015 2.458-1.179a.69.69 0 0 0-.056-.502c.055-.196.083-.404.109-.582a3.827 3.827 0 0 0-.232-1.99c.323-.4.464-.997.503-1.424z"/><path fill="#262024" d="M50.353 114.477c.011-.01.011-.021.011-.03.109-.59.18-1.2.239-1.85v-.05-.021c.12-1.66.051-3.49-.159-5.29.029-.479.029-.979 0-1.479-.07-1.42-.33-2.891-.63-4.29v-.021l-.03-.149c.01-.051.01-.101.019-.15v-.03c.2-1.84.2-3.689-.1-5.54a5.137 5.137 0 0 0-.09-.5c-.03-.17-.061-.35-.101-.52-.02-.11-.069-.19-.109-.271.149-.109.3-.229.43-.359-.019-.15-.03-.3-.05-.45-.021-.05-.04-.09-.061-.16a.432.432 0 0 1 .011-.3c-.311-.83-.54-1.68-.641-2.561-.02-.05-.04-.09-.05-.14a.41.41 0 0 1 0-.36c0-.06-.01-.13-.01-.189-.01-.01-.01-.01-.01-.021V89.686c0-.08.01-.15.05-.21 0-.021.01-.03.02-.04v-.01c0-.01.01-.01.01-.01.051-.07.11-.12.191-.16v-.04c-.01-.021-.02-.03-.03-.05-.029.02-.05.029-.08.05-.05.04-.109.069-.159.109-.021.011-.04.021-.051.04-.05.03-.1.061-.14.101-.15.13-.25.269-.31.42-.03.069-.051.13-.07.2-.24.13-.45.34-.54.659-.021.051-.021.091-.03.141l-.03.1h.011c-.011.021-.011.04-.021.07l-.029.149c-.051.19-.101.37-.15.561v.01c-.03.08-.05.17-.07.25-.59.33-1.279.34-2.13.09-.8-.239-1.66-.279-2.5-.38-.2-.05-.399-.1-.59-.16-.12-.02-.23-.05-.35-.08-.54-.119-1.08-.22-1.631-.27h-.02l-.021-.021c-1.149-1.029-2.319-2.05-3.42-3.119.12-.24.12-.53-.06-.82-.05-.14-.11-.26-.18-.39 0 0 .01 0 0-.011a16.77 16.77 0 0 1-.15-.3c.05-.07.1-.14.14-.24a.273.273 0 0 0 .04-.1c.141-.44.25-.89.341-1.34.039-.2.069-.4.1-.601.16-1.09.2-2.17.2-3.26v-.15a.196.196 0 0 0 .02-.08c0-.021.01-.04.01-.061.101-.34.181-.689.25-1.04 0-.02.011-.04.011-.069.16-.881.26-1.79.359-2.7 0-.01 0-.021.011-.03.229-2.13.489-4.24 1.75-6.01.21-.311.26-.61.21-.88.029-.04.06-.08.069-.13 0-.03 0-.061.011-.091.01-.08 0-.13-.03-.189v-.01c0-.021-.01-.04-.03-.061-.12-.22-.45-.3-.67-.33h-.01c-.4-.17-.9-.13-1.3.29-.24.26-.45.521-.641.78-.27-.311-.729-.44-1.229-.061-4.32 3.301-7.66 7.83-10.521 12.4-2.45 3.91-5.74 8.78-6.83 13.63-.02.09-.04.17-.05.25a.901.901 0 0 1 .09-.22l.471.27 1.02.591 1.86 1.079c.01 0 .01 0 .02.011l.73.42.309.18h.01l.12.07h.01l.08.05.011.01.1.06-.03.06c-.05.11.07.23.17.13.021-.02.051-.04.07-.069l.19.109.09.05.819.471.671.38.18.1.1.061 2.74 1.59.04.02.99.58.38.22.3.171.44.26.47.27.57.33.159.09 3.92 2.261 1.32.76c.01 0 .021.01.03.02l1.72 1 1 .58.11.06.2.109.38.221.399.229.28.16.39.229 1.29.75.04.021.06.04.029.01.62.36.271.16h.01l.37.22.11.07h.01l1.399.81.03.021.05.029.391.23.239.13.721.42h.01l.12.07.27.159.13.07.101.061.09.05.04.03.66.38.02.01.181.11.34.189.06.04.78.45.229.132zM69.633 109.456l.04-.02.53-.31c0 .01 0 .01.01 0l.5-.29.061-.03.17-.101.46-.26.529-.3.311-.18.24-.15.05-.03.31-.18h.01l.03-.02.7-.4.25-.14.5-.29 1.22-.71.141-.08.3-.17.02-.011.011-.01.29-.17.279-.17.141-.08h.01l.24-.14.22-.13.11-.061.039-.02.29-.17.021-.011.24-.14.06-.04.69-.39.04-.021.019-.019.18-.09.11-.061.271-.16.399-.229v-.01l.16-.091.03-.01.29-.17.1-.06.021-.011.04-.02.039-.03.12-.07.08-.05 1.181-.67.869-.519 1.12-.65.42-.24h.011l.019-.02.45-.26 1.16-.67.069-.04.04-.03 1.04-.59.011-.011.14-.079.03-.021.14-.08.51-.29 2-1.149.03-.021 1-.57.11-.069.13-.05.24-.131.739-.43.851-.49.189-.109.62-.36c.09-1.29.021-2.62-.05-3.939.28-.101.52-.301.62-.601.01-.01.01-.01.01-.02.03-.11.05-.23.04-.37 0-.09 0-.181-.01-.271-.09-2.779-.67-5.2-2.13-7.54-.07-.149-.17-.3-.29-.46-.011-.02-.03-.04-.04-.069l-.01.01c-.07-.08-.131-.16-.2-.25a.978.978 0 0 0-.82-.3c-.26-.351-.7-.41-1.06-.271-.011 0-.03.01-.04.021a.769.769 0 0 0-.311.22.78.78 0 0 0-.18.71c.01.04.02.09.02.13.07.33.11.64.11.92 0 .17-.01.34-.04.49-.04.02-.07.04-.11.06-.279.15-.64.33-1.06.521v.01c-.4.18-.86.38-1.35.58-.28.12-.58.24-.881.34l-.01.01c-.689.271-1.43.521-2.149.721h-.011c-.42.12-.83.229-1.229.31-.67-.02-1.34-.09-2.021-.189-.05 0-.1-.011-.14-.021-.27-.28-.66-.439-1.04-.37-.16.03-.31.05-.46.07-.02.01-.04.01-.06.01-.04-.01-.091-.01-.141-.03-.01-.02-.01-.05-.03-.069a.682.682 0 0 0-.05-.16c0-.09.021-.17 0-.25 0-.021-.01-.05-.01-.07-.02-.13-.03-.25-.05-.359-.05-.271-.11-.49-.19-.74h-.01c-.05-.16-.12-.32-.2-.521a1.2 1.2 0 0 0-.71-.72c-.04-.13-.09-.24-.16-.34v-.01c-.08-.11-.18-.2-.279-.28 0-.09-.011-.17-.03-.26a2.58 2.58 0 0 0-.061-.38 5.598 5.598 0 0 0-.319-1.011c-.16-.38-.351-.76-.561-1.13-.22-.37-.449-.729-.689-1.08v-.01l-.061-.09c-.39-.561-.779-1.09-1.109-1.561-.101-.149-.2-.29-.29-.43-.82-1.229-1.931-2.09-2.95-3.16-.96-1.01-1.56-2.229-2.91-2.779-.06-.03-.12-.03-.17-.04a.486.486 0 0 0-.45-.311c-.02-.01-.04-.01-.06-.01H67.192c-.12 0-.25.04-.37.12-.07.04-.13.09-.17.14-.2.25-.2.71-.141 1.061-.04.14-.08.27-.12.409v.011c-.04.149-.079.279-.119.43l-.011.01c-.01.06-.029.11-.04.17-.33 1.08-.689 2.15-1.05 3.23-.47 1.43-1.43 2.7-1.63 4.18v.03c-.01.07.01.13.04.17.06.1.19.13.31.11h.011c.09-.021.17-.08.21-.17.01-.011.02-.021.02-.03v-.01c.09-.16.181-.29.28-.431.36.06.61-.029.88-.12h.01c0-.01.011-.01.021-.01.24-.09.479-.17.81-.149.48.029.98.17 1.48.289h.01c.22.051.42.091.64.12.051.12.09.23.13.351.021.359.051.71.12 1.059v.01c.011.08.03.16.061.24.01.05.02.11.04.16-.011.021-.021.03-.021.05v.01c-.029.061-.06.11-.069.181h-.04c-.011.09 0 .17-.011.26v.03c0 .12-.01.229-.02.34v.01c-.021.271-.061.54-.08.811-.01.09-.021.18-.021.279V83.853c.021.271.141.48.311.63-.01.05-.01.11-.021.16-.02.16-.029.32-.04.48-.02.18-.029.359-.039.54-.101.14-.19.279-.271.43v.01c-.15.271-.27.55-.36.86-.02.04-.029.09-.04.13-.069.2-.109.41-.149.62-.03.14-.05.269-.061.41-.06.39-.08.79-.09 1.189-.02.93.03 1.87.04 2.7.01.46.23.74.521.89a.078.078 0 0 0 0 .07c-.011.37-.021.72-.051 1.05-.449 5.391.11 10.32 1.461 15.48l.07-.046z"/><path fill="#FCFAFA" d="M50.784 114.727l.8.46.02.01.011.01 1.399.811.011.01.329.19.03.01.851.49.199.12.021.01 1.14.66.061.029.199-.119h.011l.25-.15.02-.01.19-.11.13-.08h.01l.47-.27.091-.051.25-.14.02-.02 1.41-.811h.01l.61-.35.79-.46.02-.011 1.32-.76.09-.05.01-.01.42-.24.41-.24.351-.2.21-.119.02-.011.2-.12.01-.01.28-.16.26-.149.8-.46.24-.141.09-.05.36-.21.12-.07.77-.449.17-.09c4.509-2.709.396-.009.446-.938.14.79.124-.272.314.498l.02-.01.17-.101 1-.58.25-.14.021-.02s.01 0 .01-.011l.03-.01.05-.03.05-.029.47-.271.17-.1c-.09-.83-.37-1.67-.54-2.471-.21-.939-.33-1.899-.52-2.85-.11-.56-.34-1.12-.54-1.68-.12-1.53-.2-3.061-.25-4.601.01-.029.03-.06.04-.1.42-2.82-.061-5.54-.16-8.37v-.02c.11-.07.21-.16.3-.271.11-.13.2-.29.26-.49.08-.26 0-.52-.17-.699a.778.778 0 0 0-.279-.19c-.011-.01-.021-.02-.04-.02h-.011a.652.652 0 0 0-.56.05.92.92 0 0 1-.4.109c-.01.011-.01.011-.02 0 0 0-.01.011-.021 0-.159.03-.31.03-.47.04-.05.011-.09.011-.14.021a1.45 1.45 0 0 0-.19-.16.483.483 0 0 0-.12-.08l-.01-.01c-.41-.28-.89-.5-1.13-.92-.04.06-.08.12-.13.18v.01c-.21-.1-.47-.14-.75-.08-.26.051-.51.15-.75.271-.09.04-.17.09-.25.13-.07.04-.13.07-.19.1-.27.15-.52.271-.779.38-.021.011-.03.011-.051.021 0-.01-.01-.01-.01-.021a.502.502 0 0 0-.09-.159c-.2-.301-.6-.44-1.02-.28-.051.02-.11.04-.16.07 0 0 0 .01-.011 0-.01.01-.02.01-.029.02-.12.05-.23.12-.34.19-.011 0-.011 0-.011.01-.609.36-1.149.89-1.699 1.3-.011.021-.011.021-.021.021-.06.05-.12.1-.18.14-.41.29-.9.43-1.38.56h-.011c-.1.04-.189.07-.29.101h-.01c-.34.109-.66.25-.93.47-.21-.21-.43-.4-.65-.59-.109-.15-.229-.311-.34-.46-.16-.22-.37-.43-.63-.43a9.472 9.472 0 0 0-.11-.771c.181-.12.25-.29.25-.479.141-.211.101-.461-.04-.671a.541.541 0 0 0-.069-.079v-.011c-.19-.21-.48-.34-.78-.25-.11.03-.22.07-.32.101-.12.04-.229.09-.35.149l-.01.011a1.015 1.015 0 0 0-.181-.021.484.484 0 0 0-.17 0c-.21.021-.42.11-.62.28-.01.01-.029.02-.04.04-.55.439-1.04.939-1.479 1.5-.22.13-.38.31-.48.5a.111.111 0 0 0-.029.08c-.03.04-.051.08-.051.12 0 0-.01 0-.01.01v.01c-.01.01-.02.02-.02.04a.692.692 0 0 0-.03.25c-.01.01-.01.03-.01.04 0 .06.01.13.01.189.07.381.33.721.78.87h.01c.06.03.13.04.2.061-.05 0-.08.08-.11.22-.13.63-.08 2.51-.04 3.83v.02c.021.54.03.99.03 1.221.01.18.04.33.1.47.141 1.54.37 3.05.61 4.57.06.399.13.79.191 1.189-.021.13-.051.25-.07.38-.17.971-.26 1.96-.3 2.971-.101 2.22.05 4.54.159 6.77V112.597c.03.7.061 1.39.08 2.07l.097.06z"/><path fill="#E53D4D" d="M63.74 42.446c-.3.204-.609.378-.938.531-.58.271-.075 1.126.5.857.329-.153.639-.327.938-.531.525-.358.03-1.219-.5-.857z"/><path fill="#FF6178" d="M61.564 39.898a.555.555 0 0 1-.022-.042c-.087-.168-.278-.256-.459-.263.38.014.553.161.229-.197-.594-.655-1.127-1.381-1.697-2.058-1.102-1.306-2.383-2.609-3.793-3.583-2.224-1.535-5.498-3.315-8.215-2.011-.078.037-.029.138.039.146 3.261.391 5.425 1.215 7.974 3.343 1.88 1.569 3.453 3.509 4.972 5.415.458.576 1.276-.156.972-.75zM66.075 41.934c-.131-.892-1.093-1.066-1.752-1.442-.118-.067-.236-.012-.298.081-.023-.007-.045-.017-.067-.022-.659-.184-1.652-.363-2.105.288-.046.066-.032.185.031.236.411.339.921.317 1.42.423.688.146 1.272.46 1.761.959.234.24.581.169.792-.024a.486.486 0 0 0 .218-.499zM72.207 56.722a18.406 18.406 0 0 0-2.502-2.382c1.43-.144.967-2.3.351-3.095-.19-.244-.508-.12-.639.104a1.031 1.031 0 0 0-.311-.162c-.232-.073-.471.167-.398.399.109.352.303.628.338 1.008.037.408-.003.824-.02 1.233-1.124-.801-2.339-1.462-3.57-1.858-.266-.085-.362.27-.175.414 1.965 1.515 3.991 2.822 5.667 4.681a16.25 16.25 0 0 1 2.121 2.99c.593 1.062.686 2.267 1.276 3.31.149.266.554.202.635-.083.65-2.271-1.375-4.94-2.773-6.559zM72.447 63.016c-.761-1.839-1.936-3.519-3.332-4.923-.104-.104-.302.038-.208.161 1.77 2.338 3.206 5.678 3.153 8.62-.004.207.235.342.411.236 1.376-.823.426-3.008-.024-4.094zM69.342 65.539c-.449-.926-1.13-1.774-1.747-2.593-.729-.967-1.332-2.033-2.217-2.867-.107-.102-.3-.003-.254.148.483 1.597 1.441 2.972 2.382 4.331.482.698.921 1.407 1.223 2.204.228.603.11 1.236.202 1.858.021.145.215.198.327.133 1.176-.688.558-2.239.084-3.214zM64.752 65.79c-.704-1.561-1.635-2.884-2.585-4.288-.179-.265-.538-.038-.418.244.538 1.267 1.178 2.434 1.815 3.655.609 1.171.646 2.602 1.288 3.696a.198.198 0 0 0 .338 0c.591-.994-.001-2.341-.438-3.307zM89.733 64.866c-.88-3.206-2.678-6.067-4.677-8.681-1.851-2.42-3.278-3.609-6.348-3.24-.546.065-.56.81 0 .859 3.415.302 4.918 2.434 6.683 5.106 1.461 2.213 2.457 4.67 3.156 7.218 1.311 4.773 1.432 9.462.133 14.198-.113.414.397.688.699.407 1.7-1.583 1.672-4.378 1.692-6.535.031-3.172-.501-6.283-1.338-9.332zM57.034 73.535c.055-.146.088-.302.069-.474-.037-.35-.397-.512-.674-.279-.348.294-.559.654-.956.911-.456.295-.976.483-1.451.742-.353.193-.658.455-.966.71-.577.479-1.152.697-1.802 1.031-.127.065-.084.246.038.285 1.168.379 2.42-.896 3.431-1.34.399-.175 1.009-.4 1.512-.719.13.677.291 1.356.356 2.051.163 1.719-.256 3.292-.711 4.927-.057.203.203.354.353.205 1.211-1.217 1.485-2.957 1.479-4.614-.006-.996-.012-2.559-.678-3.436zM57.697 60.555c-1.885-2.181-7.315 1.057-9.146 1.95a15.474 15.474 0 0 0-4.957 3.816c-1.031 1.191-2.635 2.104-2.963 3.747-.044.22.284.393.385.162 1.125-2.584 4.842-5.288 7.258-6.477 1.984-.976 6.609-3.455 8.807-2.053a.378.378 0 0 0 .459-.06l.158-.157c.266-.266.233-.657-.001-.928zM66.103 69.577a5.97 5.97 0 0 0-.443.749l-.069-.019c-.238-.063-.434.047-.572.233-1.72 2.316-1.807 5.978-2.367 8.675-.018.084.032.136.093.147-.038.35-.06.704-.039 1.073.012.221.302.254.376.051 1.219-3.347 3.405-7.151 3.655-10.738.024-.366-.456-.421-.634-.171z"/><path fill="#B73043" d="M48.929 61.563c-1.933-3.948-4.557-7.657-6.703-11.507-1.435-2.571-5.34-8.295-3.405-11.318.215-.335-.274-.706-.546-.422-1.121 1.174-1.024 2.879-.548 4.544-.313.025-.605.26-.287.658a.504.504 0 0 0-.081.231c-.15 2.125.471 4.539 1.978 6.1.072.166.145.332.223.497a.491.491 0 0 0 .031.405c.051.131.102.262.151.392a.518.518 0 0 0 .038.293c.229.506.513.98.816 1.441.501 1.34 1.077 2.643 1.886 3.694.623 1.034 1.375 1.994 2.025 2.815.029.037.064.059.098.083.041.069.082.14.124.208.158.993.411 1.903 1.056 2.731-.013.024-.019.048-.032.073-.122.231-.082.604.19.723.418.184.565.231 1.017.261.244.016.405-.145.477-.343.126-.063.295-.142.548-.234.019-.003.035.003.055-.002l.133-.032a.506.506 0 0 0 .366-.398c.324-.117.589-.486.39-.893zM58.96 50.995a.878.878 0 0 0-.106-.09c-.006-.053-.002-.102-.01-.154.296-.981.26-2.13.115-3.078-.149-.972-.603-3-1.877-3.037-.157-.005-.268.155-.229.302.103.395.372.635.585.982.361.589.525 1.321.656 1.991.174.881.127 1.756.104 2.635-.415 1.302-.628 2.382-1.873 3.323-1.407 1.064-3.235.879-4.725.157-2.254-1.094-3.843-4.222-2.886-6.554.057-.138-.137-.214-.229-.133-2.544 2.252.915 6.841 3.269 7.735 2.23.848 5.589-.102 6.729-2.224-.01.418-.046.832-.15 1.248-.155.618-.564.925-.921 1.403-.087.116.028.314.172.3.896-.092 1.401-1.139 1.595-1.917.172-.69.351-2.318-.219-2.889zM65.266 70.198c-.696-.457-1.485-.595-2.163-1.129-.774-.61-1.388-1.499-1.975-2.276-1.222-1.616-1.797-3.62-3.039-5.194-.096-.122-.331-.023-.313.13.255 2.266 4.06 10.859 7.49 8.948.19-.106.169-.369 0-.479zM65.42 64.392c-.548-.821-1.234-1.547-1.742-2.393-.325-.544-.688-.992-1.286-1.187-.207-.067-.361.212-.21.359.48.465.718.999 1.026 1.573.398.743 1.007 1.367 1.428 2.104.818 1.431 1.377 2.908 1.817 4.482.101.358.685.396.762 0 .333-1.713-.881-3.567-1.795-4.938zM69.961 64.048c-.99-1.621-2.53-2.881-3.75-4.322-.111-.132-.294-.013-.307.127-.09.958 1.283 2.089 1.833 2.774a17.048 17.048 0 0 1 1.852 2.799c.474.896.35 1.892.871 2.715.082.129.263.16.374.049 1.102-1.098-.235-3.097-.873-4.142zM50.082 76.704a3.704 3.704 0 0 0-.219.711c-.154.19-.278.409-.393.631-.021.039-.04.082-.061.122a.404.404 0 0 0-.26.05c-.472.273-.734.671-.771 1.215-.026.388.316.544.616.481.038.048.08.095.136.125-.363.69-.786 1.36-.832 2.105-.012.188.213.294.364.209.911-.512 1.451-1.842 1.857-2.762.328-.742.581-1.783.587-2.61.006-.515-.791-.794-1.024-.277zM53.285 72.145c-.008-.352-.42-.643-.741-.426-.62.42-.935 1.136-1.221 1.803-.279.649-.692 1.423-.785 2.123-.05.377.487.542.72.298.233-.244.384-.56.508-.899.796-.801 1.544-1.816 1.519-2.899zM58.408 80.674c-.419-.283-.935-.468-1.305-.331-.25.093-.374.408-.162.614.364.355 1.049.354 1.293.852.268.549 1.11.064.822-.48a1.186 1.186 0 0 0-.119-.176 2.457 2.457 0 0 1 1.843-.751c.696.016.942.71 1.464 1.04.226.143.513-.045.517-.297.046-2.378-3.338-2.064-4.353-.471zM88.966 82.636l-.057-.035c-.327-.204-.812-.081-.995.261-.349.651-2.917.993-3.625 1.204-.679.202-1.365.362-2.061.498-1.323.259-2.511-.535-3.725-.167a.304.304 0 0 0-.133.503c1.704 1.783 4.219 1.37 6.386.861 1.173-.276 3.919-.781 4.493-2.042.184-.401.111-.837-.283-1.083zM47.047 90.51c-.376-.396-.797-.368-1.317-.371a14.926 14.926 0 0 1-3.213-.379c-1.094-.245-2.113-.703-3.062-1.291-.965-.599-1.463-1.618-2.356-2.271-.19-.14-.393.057-.417.239-.273 2.071 2.281 3.758 3.951 4.381 1.363.508 4.942 1.701 6.281.722.344-.252.446-.7.133-1.03z"/><path fill="#564A53" d="M81.315 86.654c-1.108-.169-2.411-.296-3.41-.823-.505-.267-.931-.745-.947-1.329-.019-.64.273-.878.745-1.209.264-.185.363-.676 0-.836-.398-.176-.734-.161-1.012-.028a.565.565 0 0 0-.012-.553c-2.403-4.368-5.13-8.128-8.938-11.347-.256-.217-.698.064-.49.379 1.131 1.714 2.911 3.082 4.186 4.739 1.628 2.114 2.895 4.521 4.176 6.852a.541.541 0 0 0 .646.278c-.558.693-.679 2.014-.372 2.728.356.831 1.465 1.386 2.263 1.653 1.086.365 2.122.204 3.165-.188.134-.051.177-.289 0-.316zM68.619 76.701c-.407-1.128-.983-2.513-1.766-3.428-.242-.283-.667.021-.59.344.274 1.151.983 2.241 1.415 3.344.745 1.905 1.141 3.916 1.823 5.818.108.303.576.352.662 0 .493-1.994-.88-4.243-1.544-6.078zM71.866 86.952c-.908-.448-1.966-.507-2.872-.976-.324-.167-.624.227-.384.497.685.773 1.858 1.25 2.868 1.397.517.076.944-.645.388-.918zM91.869 82.947c-.353-.804-1.664-1.553-2.474-1.038-.086.055-.159.178-.115.282.263.625 1.144.733 1.348 1.394.032.106-.874.521-.992.575-.976.442-2.241.63-3.08 1.312-.22.18-.025.511.216.521 1.426.057 3.383-.237 4.544-1.116.655-.499.889-1.163.553-1.93zM48.795 90.369c-.132-.097-.328-.022-.405.106-.345.566-.084 1.286-.537 1.797-.523.589-1.623.526-2.325.499-1.618-.063-3.177-.51-4.722-.962-.126-.037-.227.131-.129.222 1.455 1.364 4.002 1.957 5.942 1.876.843-.035 1.822-.313 2.318-1.052.507-.755.665-1.903-.142-2.486zM36.939 85.339c-.097-.146-.189-.231-.361-.277-.193-.053-.454-.008-.588.155-.304.368-.784.604-.784 1.157 0 .504.254.975.429 1.43.08.21.406.192.406-.055 0-.214-.093-.873.024-1.02.223-.28.519-.416.78-.657a.602.602 0 0 0 .094-.733z"/><path fill="#9E4AAF" d="M65.553 79.821c-.944.113-2.653.88-2.681 1.991-.005.21.235.337.411.236 1.159-.662 2.26-1.288 3.631-.905.458.127.327.747.767.868.512.141.784-.519.778-.91-.019-1.303-2.025-1.386-2.906-1.28zM63.744 84.078c-.202-.914-.889-1.763-1.588-2.349-.604-.506-3.033-1.389-3.07.064-.01.411.499.474.708.191.176-.236 1.001.229 1.186.317.441.208.726.545 1.037.916.734.876 1.104 2.348 1.172 3.468.006.092.134.112.161.021.284-.942.613-1.635.394-2.628z"/><path fill="#9E4AAF" d="M59.583 82.45c-.593-.591-2.028-1.352-2.847-.865a.194.194 0 0 0-.039.301c.602.59 1.509.751 2.152 1.298.504.426 1.213-.255.734-.734z"/><path fill="#E53D4D" d="M55.793 81.352c-.075-.063-.189-.118-.289-.076-.28.116-.393.364-.501.638-.167.417-.401.797-.648 1.17a6.005 6.005 0 0 1-.936 1.089c-.272.248-.64.407-.86.703-.078.105-.02.277.089.337.799.434 1.801-.755 2.234-1.274.374-.449 1.604-2.006.911-2.587z"/><path fill="#42264C" d="M59.373 70.164c-.396-.404-1-.605-1.524-.789-.394-.139-.887-.192-1.289-.031-.349-.313-.866-.385-1.368-.313-.004-.168-.093-.323-.299-.364-.792-.154-2.257.752-2.027 1.675a.242.242 0 0 0 .103.139c-.228.296-.44.609-.653.941-.202.315.188.657.492.492.585-.318.915-.895 1.438-1.288.34-.256.761-.406 1.183-.428.39-.021.654.113 1.025-.04.043-.018.072-.048.107-.073.334.106.676.192 1.008.31.456.16.864.485 1.346.56.443.067.817-.425.458-.791z"/><path opacity=".13" d="M55.759 11.362l-46.07 26.56v53.12l1.67.96.63.37H12l18.81 10.841 1.04.6 2.18 1.26.49.279.439.261.36.21 3.13 1.8 3.311 1.91 1.289.74v.01l12.711 7.319 46.07-26.56v-53.12l-46.071-26.56zm44.209 78.61l-44.209 25.49-12.51-7.211-31.701-18.279V39.001l44.211-25.49 44.209 25.49v50.971z"/><path d="M47.32 83.239c1.866-.715 2.219-2.607 1.382-4.256-.165-.324-.649-.039-.486.283.313.615.508 1.259.379 1.95-.148.792-.819 1.242-1.416 1.688-.153.113-.07.416.141.335z"/><path d="M48.366 79.117c1.471-.604 2.447-2.875 2.04-4.376-.065-.242-.475-.273-.52 0-.122.739-.07 1.467-.285 2.201-.243.832-.805 1.35-1.354 1.972-.071.081-.003.252.119.203z"/><path d="M50.587 74.968c1.143-1.207 2.586-3.497 2.326-5.23-.045-.297-.452-.229-.535 0-.34.942-.485 1.898-.915 2.827-.346.748-.798 1.427-1.279 2.092-.173.239.206.519.403.311z"/><path d="M52.55 69.917c2.077-.718 3.745-3.484 3.238-5.68-.06-.257-.487-.273-.535 0-.18 1.041-.199 1.988-.67 2.967-.485 1.008-1.351 1.765-2.14 2.53-.075.074.002.219.107.183z"/><path d="M55.439 64.404c1.383-.428 3.494-2.985 2.712-4.517-.093-.182-.351-.118-.407.053-.101.306-.084.595-.14.914-.081.464-.31.896-.54 1.301-.468.823-1.26 1.283-1.807 2.014-.086.115.056.274.182.235z"/><path d="M36.613 87.167c1.968-6.146.752-13.303 4.895-18.636 1.767-2.274 4.228-3.974 6.689-5.408 2.03-1.184 7.525-4.456 9.779-2.517.318.273.779-.176.465-.465-2.146-1.968-5.022-.197-7.313.761a30.078 30.078 0 0 0-8.148 5.077c-6.406 5.582-4.623 13.694-6.676 21.102-.056.201.246.282.309.086zM50.079 76.506c.32.154.378.087.707-.098.795-.447 1.604-.87 2.396-1.321 1.285-.731 2.989-1.603 3.846-2.849.136-.196-.122-.412-.31-.31-1.459.795-2.775 1.96-4.222 2.82-.602.358-2.391.956-2.422 1.75.002.004.003.007.005.008z"/><path d="M56.773 72.17c2.025 4.599.314 9.049-3.016 12.503-2.289 2.373-5.179 3.718-6.737 6.768-.213.417.417.785.627.367 1.929-3.828 6.187-5.675 8.49-9.283 2.148-3.367 3.004-6.887 1.007-10.571-.135-.25-.481-.031-.371.216z"/><path d="M36.251 86.249c.21 3.056 3.434 4.88 6.016 5.752.731.247 6.762 1.114 6.094-1.062-.065-.212-.364-.212-.43 0-.124.404-1.886.761-2.267.809-1.264.157-2.517-.161-3.705-.56-2.288-.767-4.855-2.476-5.302-4.994-.039-.23-.421-.176-.406.055z"/><path d="M49.883 94.937v.02c-.06.211-.12.41-.18.62-.03.101-.061.21-.101.311v.01c-.47 1.39-1.17 2.74-1.829 3.96-1.641 3.021-3.75 7.05-6.761 9.21l-.399-.229-.38-.221c1.84-2.41 4.029-4.569 5.659-7.16 2.011-3.17 4.7-7.649 2.79-11.279-.04-.101-.09-.2-.159-.29-.03-.07-.07-.141-.12-.21a.324.324 0 0 1-.061-.17v-.021c0-.01 0-.019.01-.03.011-.14.141-.26.29-.279.131-.03.271.01.37.14 0 0 0 .01.011.01 0 .011.01.011.01.021.019.03.04.05.06.08v.01c.04.04.07.08.09.13.28.41.49.83.641 1.26h.01c.03.091.06.19.09.28.369 1.237.289 2.537-.041 3.827zM35.383 85.087c-.01.04-.03.09-.04.13-.8 2.58-2.979 4.83-4.8 6.729-2.26 2.36-4.41 4.95-6.75 7.181-.02.029-.05.05-.07.069-.1.101-.22-.02-.17-.13a.839.839 0 0 0 .03-.06c1.12-2.471 3.53-4.49 5.37-6.431 2.24-2.35 4.54-4.72 5.86-7.739.069-.16.239-.181.38-.12.14.061.24.201.19.371z"/><path d="M35.08 85.173c.23.142.538-.022.772-.092.394-.115.816-.063 1.197-.188.316-.104.338-.567 0-.662-.504-.142-1.126.099-1.588.3-.139.061-.69.451-.381.642zM40.864 69.107c0 .01 0 .01-.011.021a.333.333 0 0 1-.17.27v.01c-.06.05-.14.07-.229.08l-.38.03c-.021.01-.05.01-.07.01-.92.11-1.79.37-2.62.74-4.26 1.88-7.5 6.67-10.019 10.18-3.57 4.96-6.311 10.16-8.521 15.82a.885.885 0 0 0-.09.22c.01-.08.03-.16.05-.25l-.29-.16c1.62-6.659 5.561-12.84 9.67-18.21 3.08-4.01 6.79-8.939 12.271-9.229.05 0 .1 0 .149.02.199.047.289.258.26.448zM56.933 106.587c.011 3.399.04 6.81 0 10.21l-.47.27h-.01l-.13.08-.19.11-.02.01c-.05-3.561-.021-7.12-.011-10.68.011-2.931.011-5.851.011-8.78.01-2.44-.19-4.99.21-7.41.02-.14.04-.29.069-.43.011-.061.061-.09.12-.101.03 0 .07.011.101.04.02.011.029.03.04.061.02.1.04.189.05.29.42 2.46.22 5.06.22 7.55.01 2.93.01 5.85.01 8.78zM62.944 113.337l-.21.119-.351.2-.41.24c.03-2.31.08-4.61.08-6.9.011-3.27.011-6.54.021-9.819.02-3.07-.2-6.26.12-9.32l.029-.28c0-.029 0-.06.011-.09 0-.04.01-.069.01-.109.03-.21.26-.261.359-.131.03.03.051.061.061.101.01.01.01.02.01.03.01.1.021.189.03.29.35 3.119.12 6.38.14 9.51.01 3.279.01 6.55.021 9.819-.001 2.1.039 4.22.079 6.34zM60.309 92.047c-.529-.13-.703.604-.538.95.129.271.542.489.84.432.277-.053.407-.297.576-.498a.258.258 0 0 0-.365-.365c-.093.078-.16.168-.234.264-.033.066-.089.086-.166.057-.506-.124-.194-.34-.089-.441.097-.095.161-.353-.024-.399zM59.837 104.303c-.178.336-.499.436-.451.873.052.465.371.631.788.628.579-.005 1.167-.722 1.079-1.289-.013-.08-.098-.123-.17-.129-.244-.021-.396.128-.549.302-.227.257-.256.392-.639.394l.251.104c-.212-.251-.114-.478-.053-.774.031-.15-.178-.256-.256-.109zM59.058 111.786c-.306.358-.333.86.084 1.151.426.298 1.373-.059 1.422-.563.006-.057-.035-.119-.083-.145-.348-.192-.598.088-.95.128-.217.024-.221-.359-.265-.517-.022-.084-.147-.128-.208-.054zM66.083 103.467c0 2.67.03 5.359.01 8.04l-.77.449c-.021-2.829.01-5.67.01-8.489 0-5.08-.38-10.431.22-15.49 0-.021 0-.03.011-.04v-.01c0-.101.02-.2.029-.3.021-.15.21-.15.23 0 .02.13.029.25.04.38.01.029.02.069.02.109.58 5.011.2 10.311.2 15.351zM51.773 86.872c.538.443 1.646.216 2.255.036a.3.3 0 0 0 .211-.211l.019-.088a.184.184 0 0 0-.082-.203c-.307-.204-.72.076-1.047.148-.43.097-.878-.022-1.291.075-.1.025-.149.174-.065.243z"/><path d="M53.859 85.02c-.013 1.914-1.492 4.809 1.348 5.466.924.213 2.031-.449 2.767-.934.812-.535 1.882-1.483 2.002-2.489.012-.102-.13-.182-.212-.121-.651.484-1.061 1.22-1.694 1.751-.783.656-1.46 1.132-2.491 1.197-2.437.155-1.174-3.578-1.358-4.918-.03-.211-.361-.152-.362.048zM56.843 81.178c.28.31.814.417 1.187.616.358.191.68.551 1.096.573.064.003.111-.065.094-.124-.121-.419-.609-.631-.964-.834-.364-.207-.945-.531-1.366-.407a.106.106 0 0 0-.047.176z"/><path d="M58.662 81.947c.099.219.277.38.407.583.164.257.239.557.263.856.02.232.099.518.383.369.072-.038.134-.136.126-.22-.061-.609-.378-1.578-1.063-1.738-.093-.021-.152.069-.116.15z"/><path d="M57.908 84.137c.339-.093.669-.197 1.021-.223.27-.019.457.095.684-.067.058-.042.092-.12.049-.188-.362-.557-1.491-.06-1.871.274-.094.084.004.234.117.204zM58.555 86.25c.374.151 1.047-.032 1.217-.419.036-.083-.005-.181-.104-.183-.248-.006-.41.109-.646.199-.206.077-.344.086-.515.22-.073.057-.017.157.048.183z"/><path d="M59.196 83.768c.143.323.474.437.567.813.106.428-.259.776-.333 1.166-.036.19.168.414.361.278.48-.34.619-1.04.52-1.596-.081-.45-.541-.97-1.02-.896-.112.017-.131.151-.095.235z"/><path d="M59.508 86.011c.065.228.284.281.366.509.092.253-.129.398.021.646.03.05.082.064.137.056l.103-.017c.086-.015.153-.1.178-.178.127-.422-.097-1.486-.749-1.152-.047.024-.07.086-.056.136zM58.984 82.003c.543-.668 1.069-1.347 2.027-1.183.779.134 1.4.813 1.829 1.427.506.723.729 1.539.793 2.41.064.873-.444 1.455-.553 2.256-.009.067.038.126.11.11.982-.217 1.11-1.541 1.091-2.366-.025-1.067-.564-2.187-1.203-3.019-1.195-1.556-3.522-2.011-4.427.108-.084.201.168.459.333.257z"/><path d="M59.799 87.298c.868 1.146 3.572.744 3.845-.75.017-.09-.069-.166-.154-.119-.551.302-.969.751-1.58.944-.708.225-1.288-.183-1.956-.276-.101-.014-.238.092-.155.201z"/><path d="M63.702 86.695c1.018 1.171 2.91 1.976 4.241.867.577-.48.797-1.275.879-1.986.081-.702.033-1.954-.611-2.38-.048-.032-.109.001-.126.052-.174.525.099 1.143.134 1.688a3.135 3.135 0 0 1-.451 1.872c-.968 1.54-2.799.258-3.838-.407-.189-.121-.362.139-.228.294z"/><path d="M62.914 81.725c.677-.578 1.03-1.323 1.841-1.795a2.952 2.952 0 0 1 2.25-.294c.809.22 1.265.951 1.334 1.748.051.591-.606 1.693-.277 2.163.055.079.148.132.246.101.813-.26.715-2.087.591-2.735-.165-.859-.796-1.475-1.578-1.796-1.625-.668-4.486.641-4.6 2.528-.007.106.124.139.193.08zM63.959 85.015c.449-.021.894.13 1.333.084.101-.011.166-.126.086-.207-.357-.362-.947-.325-1.419-.283-.257.023-.264.419 0 .406z"/><path d="M63.619 83.398c.424-.104 1.208-.429 1.248-.92.005-.056-.04-.095-.086-.113-.467-.185-1.063.489-1.312.838-.071.1.046.22.15.195zM62.963 81.613c1.812-3.811 2.938-8.049 4.574-11.961.165-.395-.515-.602-.656-.18-1.313 3.916-3.622 7.967-4.108 12.09-.011.099.148.14.19.051zM52.56 71.708c.248.539 1.105.723 1.635.846.701.164 1.582.242 2.25-.054.219-.096.083-.392-.11-.407-.674-.055-1.317.072-2-.046-.575-.1-1.101-.52-1.667-.527-.102-.001-.147.105-.108.188zM57.126 72.652c2.04.199 5.2-.161 6.76-1.622.214-.2-.059-.521-.303-.393-1.082.569-2.1.984-3.298 1.252-1.049.234-2.181.188-3.183.586-.095.038-.079.167.024.177z"/><path d="M57.445 62.293c1.107 1.835 1.739 3.938 2.807 5.807.693 1.215 2.085 3.57 3.863 3.085 4.863-1.327-.358-8.925-2.258-10.729-.124-.117-.314.031-.233.181.874 1.621 2.04 3.057 2.897 4.694.529 1.013 1.028 2.168.941 3.333-.093 1.227-1.22 2.262-2.415 1.663-1.496-.751-2.457-2.84-3.201-4.235-.701-1.316-1.238-2.751-2.038-4.012-.145-.228-.505-.021-.363.213z"/><path d="M65.287 59.488c.851 1.479 1.987 2.799 2.904 4.238.535.842.926 1.74 1.197 2.697.148.523.215 1.027.136 1.568-.135.999-.925 1.479-2.368 1.442a9.065 9.065 0 0 0-.841-.608c-.119-.081-.223.07-.177.177 1.198 2.776 4.409.324 4.218-1.943-.242-2.874-3.192-5.563-4.91-7.694-.073-.092-.214.026-.159.123z"/><path d="M68.732 57.555c.906 1.318 1.908 2.517 2.724 3.903.97 1.65 3.157 7.27-1.382 6.419-.35-.065-.487.418-.146.535 2.279.781 4.063-1.471 3.621-3.634-.553-2.708-2.669-5.482-4.706-7.309-.058-.05-.159.018-.111.086zM64.654 51.574a34.219 34.219 0 0 1 5.968 3.739c2.427 1.913 3.651 4.386 4.559 7.273.079.253.515.222.483-.066-.65-5.932-5.96-9.092-10.925-11.146-.116-.048-.195.145-.085.2z"/><path d="M75.959 62.645c-3.024.195-2.819 6.29-2.8 8.271.024 2.379.348 4.645 1.24 6.863 1.079 2.685 2.889 4.989 4.064 7.628.088.196.403.056.343-.145-.591-1.954-1.917-3.867-2.918-5.671-1.276-2.302-1.993-4.62-2.108-7.253-.142-3.229-.331-7.211 2.267-9.479.081-.072.019-.221-.088-.214z"/><path d="M75.845 62.8c1.467 1.176 1.404 3.493 3.033 4.542.307.196.686-.282.394-.51-1.453-1.132-1.622-3.337-3.304-4.192-.097-.049-.217.084-.123.16zM78.134 52.81c-.342.923.107 1.927.444 2.787.229.584.473 1.171.55 1.8.105.861-.543 1.244-.972 1.86-.046.065.015.17.095.164 1.037-.07 1.576-1.132 1.416-2.098-.257-1.554-1.17-2.864-1.211-4.47-.004-.192-.259-.213-.322-.043z"/><path d="M78.373 59.171c-.594.899-.181 1.98.229 2.875.298.649.661 1.257.914 1.929.386 1.021-.056 1.699-.227 2.677-.019.105.089.221.195.149.975-.644.938-1.979.626-2.99-.193-.627-.542-1.211-.84-1.791-.49-.956-.571-1.701-.533-2.75.008-.204-.261-.253-.364-.099z"/><path d="M79.635 66.321c-.691.762-.688 1.723-.556 2.696.21 1.537.867 2.642-.173 4.072-.067.094.061.2.149.15.929-.521 1.377-1.26 1.203-2.341-.261-1.619-.866-2.76-.35-4.418.049-.154-.163-.28-.273-.159z"/><path d="M79.218 72.696c-.779.83-.785 1.935-.506 2.987.164.615.482 1.224.743 1.801.352.781.512 1.686.936 2.417.081.141.27.095.321-.042.339-.913-.235-1.919-.617-2.748-.3-.651-.643-1.252-.871-1.938-.283-.847-.045-1.56.17-2.375.026-.099-.103-.181-.176-.102zM78.379 53.168c3.55-2.49 7.756 4.498 9.249 6.963 3.563 5.884 4.67 13.846 1.868 20.223-.126.287.243.514.426.248 4.129-6.008 1.522-15.895-2.021-21.546-1.367-2.182-6.625-9.713-9.729-6.157-.123.138.038.387.207.269z"/><path d="M89.952 79.803c-.537.585-.749 1.554-.902 2.313-.141.69-.275 1.47.187 2.045.098.123.294.043.333-.088.198-.662-.023-1.412.074-2.109.097-.706.44-1.403.429-2.11-.002-.06-.079-.098-.121-.051z"/><path d="M76.718 84.521c2.58 3.603 11.859 2.288 13.691-1.491.088-.182-.135-.379-.288-.223-3.268 3.338-9.343 3.809-13.286 1.597-.07-.039-.17.044-.117.117z"/><path d="M77.314 105.027l-.11.061-.22.13-.24.14h-.01l-.141.08c-.22-5.24-.939-10.39-1.779-15.58-.421-2.61-.91-6.36 1.819-7.87.061-.04.13-.08.2-.109h.02c.08-.03.15 0 .19.06v.01c.04.04.05.101.021.15-.011.01-.021.03-.03.04l-.12.12-.08.08c-2.77 3-1.25 7.21-.64 10.819.639 3.829 1.12 7.929 1.12 11.869zM94.284 90.407l-.03.641c0 .01 0 .01-.01.02-.04.9-.11 1.8-.16 2.71-.03.53-.04 1.08-.05 1.63l-.04.021-.32.18-.62.36c.13-2.08.34-4.15.36-6.15.02-1.63.03-3.39-.53-4.939-.64-1.801-1.609-2.521-3.16-3.32-.01-.01-.02-.01-.029-.01a2.355 2.355 0 0 0-.24-.13c-.14-.07-.08-.29.06-.301.011-.01.021-.01.03-.01.1 0 .2.01.3.021 3 .3 4.271 3.75 4.431 6.399.057.967.038 1.918.008 2.878zM69.564 109.507l-.181.1-.12.07-.17.1c-2.04-6.81-2.33-14.81-1.689-21.84v-.03c.019-.18.029-.359.05-.54v-.01c.02-.22.22-.32.38-.28.02 0 .05.011.06.021.091.05.15.13.15.26v.11c.06 1.8.08 3.62.11 5.439a.078.078 0 0 0 0 .07c.08 5.54.199 11.1 1.479 16.479l-.069.051zM68.579 85.118c1.107.721 2.443 1.561 3.775 1.753.252.037.422-.279.181-.428-1.146-.706-2.506-1.12-3.696-1.771-.293-.16-.538.265-.26.446z"/><path d="M72.904 86.687c-.141 1.53-.29 3.07-.431 4.61l-.239 2.67c-.391 4.729-.631 9.47-.301 14.18l-.529.3-.46.26c-.57-3 .14-6.609.26-9.369.18-4.17.38-8.37 1.12-12.48.01-.08.029-.16.04-.24.01-.1.069-.149.149-.18.16-.061.4.029.391.249z"/><path d="M76.013 105.786l-.02.011-.3.17-.141.08c-.93-2.221-1.51-4.57-2.13-6.9-.45-1.69-.939-3.43-1.189-5.18-.131-.94-.2-1.88-.16-2.82.01-.2.3-.25.35-.05.021.07.03.13.05.2.681 2.83 1.08 5.71 1.891 8.51.58 2.01 1.29 3.939 1.649 5.979zM68.62 84.232c.396.128.947-.144 1.339-.24.44-.11.952-.19 1.347-.418.089-.052.057-.167-.026-.2-.441-.178-1.032-.075-1.483.025-.403.09-1.054.192-1.28.574-.062.102-.003.224.103.259z"/><path d="M71.307 83.535c.527-1.8-.44-4.035-1.137-5.665-.856-2.006-1.943-4.139-3.399-5.787-.36-.408-.957.305-.464.602 1.595.956 2.522 3.852 3.201 5.465.735 1.749.992 3.641 1.686 5.386.02.051.095.059.113-.001zM66.972 69.884c1.081 1.526 2.597 2.744 3.858 4.119 1.392 1.515 2.495 3.284 3.868 4.776.216.234.591-.011.517-.3-.452-1.751-2.229-3.378-3.427-4.654-1.383-1.476-2.884-3.038-4.507-4.251-.18-.135-.437.129-.309.31zM53.869 68.864c.571.158 1.079.119 1.61.446.49.302.831.842 1.241 1.24.08.077.184-.004.17-.1-.167-1.206-1.829-2.551-3.065-1.922-.146.074-.103.296.044.336z"/><path d="M55.947 69.111c.68.401 1.494.521 2.187.949.843.523 1.401 1.266 1.981 2.046.193.26.589.042.439-.256-.428-.848-1.188-1.503-1.955-2.038-.678-.472-1.775-1.096-2.627-.894-.09.022-.102.148-.025.193zM54.209 57.114c1.145.05 2.178-.377 3.046-1.115.739-.628 1.491-2.019 1.223-3.007-.021-.08-.155-.112-.192-.025-.151.354-.188.737-.316 1.103-.172.487-.618.99-.953 1.37-.737.834-1.736 1.335-2.831 1.49-.11.015-.077.179.023.184zM48.39 49.645c.082-2.947 1.922-3.528 4.522-3.854 1.722-.215 3.583-.347 4.913-1.571.138-.127-.041-.354-.199-.258-2.252 1.375-4.781 1.136-7.227 1.915-1.746.557-2.726 1.977-2.201 3.795.031.106.189.083.192-.027z"/><path d="M48.282 48.608c-.965 4.157 4.013 7.362 7.582 5.445 3.403-1.827 3.705-7.091.447-9.237-.309-.203-.591.288-.287.492 2.87 1.933 2.813 6.274.029 8.181-1.494 1.023-3.559.784-5.054-.034-1.81-.99-2.442-2.877-2.441-4.81 0-.157-.24-.194-.276-.037zM65.798 52.069c2.741.712 4.963-1.927 5.317-4.392.373-2.589-1.364-4.813-3.849-5.314-5.557-1.123-8.646 7.917-2.749 9.319.318.075.453-.409.135-.49-2.327-.587-3.087-2.742-2.623-4.927.496-2.332 2.843-3.69 5.088-3.361 2.382.35 3.617 2.438 3.563 4.714-.07 2.854-2.573 3.685-4.881 4.188-.136.028-.129.229-.001.263z"/><path d="M64.402 51.564c.388.163.788.315 1.179.475.118.048.392.125.446-.071.156-.569-1.204-.841-1.567-.833-.265.005-.276.337-.058.429zM67.908 47.899c.897 0 .897-1.393 0-1.393-.899 0-.899 1.393 0 1.393zM54.917 50.309c1.018 0 1.018-1.578 0-1.578-1.017 0-1.017 1.578 0 1.578zM69.517 50.625c.326.602.742.96.823 1.693.079.714-.434 1.253-.411 1.91.002.066.072.138.144.109.687-.274.835-1.365.832-2.02-.002-.715-.473-1.741-1.246-1.877-.107-.018-.197.083-.142.185zM61.47 40.903c.925-.436 1.783-.661 2.796-.416.989.239 1.845 1.09 2.149 2.05.095.299.529.124.399-.169-.508-1.154-1.131-2.061-2.394-2.444-1.075-.327-2.284.083-3.078.814-.093.086.026.214.128.165z"/><path d="M46.291 63.695c-.604-3.75-3.251-7.063-5.174-10.235-2.704-4.458-4.842-9.925-2.423-14.95 1.952-4.057 7.001-7.026 11.422-7.03 4.578-.004 9.713 5.128 11.802 8.885.271.489 1.021.052.748-.438-2.176-3.915-6.599-7.98-11.009-9.071-4.375-1.083-9.143 1.793-12.014 4.857-8.211 8.765 2.946 19.977 6.412 28.082.064.144.258.032.236-.1zM50.683 114.667l-.33-.19-.229-.13c.01-.72-.08-1.66-.059-2.101.039-.949.069-1.899.069-2.85-.01-1.57-.05-3.14-.14-4.71-.061-1.07-.12-2.15-.18-3.22v-.021c-.011-.09-.011-.2-.011-.3v-.03c-.1-1.739-.17-3.479-.2-5.22v-.01c-.01-.24-.02-.46-.02-.7 0-.04.01-.08.03-.11.04-.1.16-.14.27-.12.101.021.181.101.2.23.18 2.01.38 4.02.54 6.03.05.519.09 1.05.12 1.569.14 1.891.24 3.78.25 5.67.01.95.42 4.711-.21 6.271l-.1-.058zM62.72 70.739c-2.059-1.644-3.24-3.844-3.933-6.353-.029-.105-.116-.162-.211-.191a.537.537 0 0 0-.228-.195c.015-.438-.104-.815-.321-1.216-.271-.497-1.077-.216-1.027.293a.526.526 0 0 0-.226.385c-.521-.151-.896.145-1.244.988a.416.416 0 0 0 .018.366c-.047.169-.094.339-.137.51a.478.478 0 0 0 .053.362c-.004.013-.012.02-.015.032-.1.461-.225 1.194-.509 1.717-.056.064-.111.133-.168.189-.052.053-.07.113-.095.173a1.023 1.023 0 0 1-.183.148.008.008 0 0 0 .004.004c-.029.022-.062.039-.09.063-.383.32.105.88.512.664.06-.031.11-.076.164-.114l.012.011c.43.305.909.456 1.423.561.149.03.308 0 .443-.07.039.038.074.078.13.109.259.123.51.253.763.376.158.104.329.191.512.266.012.007.024.011.036.019l.001-.003c.05.02.093.047.144.063.038.013.071.009.107.015l.057.048c.525.438.915.996 1.403 1.452.027.103.055.205.071.314.029.188.238.389.423.423l.157.029c.331.06.639-.087.742-.422.211-.048.423-.058.636-.028.524.11 1.074-.591.576-.988z"/></svg>