<?xml version="1.0" encoding="utf-8"?>
<!-- Generator: Adobe Illustrator 21.0.2, SVG Export Plug-In . SVG Version: 6.00 Build 0)  -->
<svg version="1.1" id="Layer_1" xmlns="http://www.w3.org/2000/svg" xmlns:xlink="http://www.w3.org/1999/xlink" x="0px" y="0px"
	 viewBox="0 0 110.8407 128.0172" style="enable-background:new 0 0 110.8407 128.0172;" xml:space="preserve">
<style type="text/css">
	.st0{fill:#3D1EC1;}
	.st1{fill:url(#SVGID_1_);}
	.st2{fill:url(#SVGID_2_);}
	.st3{fill:url(#SVGID_3_);}
	.st4{fill:url(#SVGID_4_);}
	.st5{fill:#FFE600;}
	.st6{fill:url(#SVGID_5_);}
	.st7{fill:#290296;}
	.st8{fill:url(#SVGID_6_);}
	.st9{fill:url(#SVGID_7_);}
	.st10{fill:url(#SVGID_8_);}
	.st11{fill:url(#SVGID_9_);}
	.st12{fill:url(#SVGID_10_);}
	.st13{fill:url(#SVGID_11_);}
	.st14{fill:url(#SVGID_12_);}
	.st15{fill:url(#SVGID_13_);}
	.st16{fill:url(#SVGID_14_);}
	.st17{fill:url(#SVGID_15_);}
	.st18{fill:url(#SVGID_16_);}
	.st19{opacity:0.13;enable-background:new    ;}
	.st20{fill:url(#SVGID_17_);}
	.st21{fill:url(#SVGID_18_);}
	.st22{fill:url(#SVGID_19_);}
	.st23{fill:url(#SVGID_20_);}
	.st24{fill:url(#SVGID_21_);}
	.st25{fill:url(#SVGID_22_);}
	.st26{fill:url(#SVGID_23_);}
	.st27{fill:url(#SVGID_24_);}
	.st28{fill:url(#SVGID_25_);}
	.st29{fill:url(#SVGID_26_);}
	.st30{fill:url(#SVGID_27_);}
	.st31{fill:url(#SVGID_28_);}
	.st32{fill:url(#SVGID_29_);}
</style>
<g id="Layer_63_13_">
	<polygon class="st0" points="110.9755,32.0255 110.9755,96.0255 55.5555,128.0255 11.2056,102.4255 11.0056,102.3055 
		0.1256,96.0255 0.1256,32.0255 55.5555,0.0255 	"/>
</g>
<linearGradient id="SVGID_1_" gradientUnits="userSpaceOnUse" x1="56.07" y1="11.085" x2="56.07" y2="117.325">
	<stop  offset="0" style="stop-color:#1B75BC"/>
	<stop  offset="1" style="stop-color:#150060"/>
</linearGradient>
<path class="st1" d="M102.07,37.635v53.14l-0.01,0.01l-1.09,0.62l-0.33,0.19l-0.13,0.07l-0.88,0.51l-3.14,1.81l-0.2,0.12l-1.93,1.11
	l-0.16,0.09l-1.48,0.86l-0.47,0.27l-0.14,0.08l-0.47,0.27l-0.24,0.13l-0.03,0.01l-0.1,0.04l-0.11,0.07l-2.46,1.41l-0.57,0.33
	l-0.82,0.47l-1.05,0.6l-0.04,0.03l-1.23,0.71l-0.45,0.26l-0.02,0.02h-0.01l-1.54,0.89l-0.87,0.52l-0.16,0.09l-1.1,0.63l-0.05,0.03
	l-0.07,0.04l-0.08,0.05l-0.41,0.24l-0.03,0.01l-0.05,0.03l-0.05,0.02l-0.06,0.04v0.01l-0.78,0.45l-0.18,0.09l-0.02,0.02l-0.04,0.02
	l-1.01,0.58l-0.14,0.08l-0.15,0.09l-0.05,0.03l-0.32,0.18l-0.24,0.14H77.1l-0.0699,0.04l-0.64,0.38l-0.2,0.12l-0.33,0.19l-0.25,0.14
	c0,0.0099-0.01,0.0099-0.01,0.0099l-0.47,0.27l-0.42,0.24l-0.04,0.03l-0.57,0.33l-2.33,1.34l-0.63,0.36l-0.06,0.03l-3.5,2.03
	l-0.02,0.01l-0.01,0.01l-0.4,0.23l-0.35,0.2l-0.5,0.29l-0.14,0.08l-1.25,0.72l-0.98,0.57l-0.39,0.22l-0.0099,0.01l-0.4301,0.25
	l-0.4,0.23l-2.36,1.36l-0.36,0.21l-0.04,0.02l-0.18,0.1l-0.5,0.29l-1.87,1.08l-0.56,0.32h-0.01l-0.32,0.19l-0.48,0.28l-0.14-0.08
	l-1.28-0.74l-0.85-0.49l-0.03-0.01l-0.91-0.53l-0.17-0.1l-0.05-0.03l-0.1801-0.1l-0.43-0.25l-0.17-0.1l-3.36-1.94l-0.04-0.03
	l-2.0699-1.19l-4.75-2.76l-0.61-0.35l-0.69-0.39l-0.93-0.54l-0.22-0.12l-0.09-0.06l-0.03-0.02l-2.23-1.29l-1.22-0.71l-0.37-0.21
	l-0.39-0.22l-0.08-0.05l-0.15-0.08l-0.26-0.15l-0.24-0.15l-0.09-0.05l-0.35-0.2l-0.08-0.05l-0.08-0.04l-0.04-0.03l-1.3-0.7401
	l-0.05-0.03l-0.15-0.08l-0.37-0.22l-1.71-0.9901l-2.51-1.46l-2.09-1.2l-0.82-0.47l-0.09-0.05l-0.5-0.29l-0.0099-0.01l-0.21-0.12
	h-0.01l-1.04-0.6c-0.01-0.01-0.01-0.01-0.02-0.01l-1.86-1.08l-1.02-0.59l-1.33-0.77l-0.72-0.43l-0.04-0.02l-0.02-0.01l-0.29-0.17
	c0,0-0.01,0-0.02-0.01L17,94.765l-0.02-0.01l-3.3-1.9l-3.41-1.97l-0.09-0.05l-0.08-0.04l-0.03-0.02v-53.14l5.66-3.26l0.77-0.46h0.01
	l0.25-0.14l0.58-0.33l1.75-1.01l2.27-1.31l0.82-0.48l0.15-0.09l2.07-1.19l0.98-0.57l1.01-0.59l0.42-0.24l0.45-0.26l0.25-0.14
	c0.01,0,0.01,0,0.01,0l0.57-0.33l3.23-1.86l1.58-0.92l0.17-0.09l1.66-0.95l0.78-0.45l0.38-0.22l0.44-0.26l1.1-0.65l0.52-0.3
	l2.28-1.3l0.69-0.41l1.4-0.8h0.01l0.05-0.03l5.72-3.3l0.19-0.11l0.27-0.16l2.86-1.65l3.21-1.86l1.44-0.83l1.06,0.62l6.49,3.75
	l2.6,1.5l3.95,2.28l1.34,0.77l6.64,3.83l1.04,0.61l2.3,1.31l0.87,0.5l1.52,0.88l1.37,0.79l0.8,0.46l0.09,0.06l1.81,1.04l3.78,2.18
	l0.04,0.03v0.0099l0.26,0.14l0.2599,0.16l0.4,0.23l0.92,0.53l0.54,0.31l0.02,0.0099l1.92,1.11l0.78,0.44l0.44,0.25l1.94,1.12
	L102.07,37.635z"/>
<linearGradient id="SVGID_2_" gradientUnits="userSpaceOnUse" x1="10.07" y1="65.605" x2="66.93" y2="65.605">
	<stop  offset="0" style="stop-color:#2E3192"/>
	<stop  offset="1" style="stop-color:#00AEEF"/>
</linearGradient>
<path class="st2" d="M66.93,64.495c0,0-1.41-0.1-4.19-0.06c-7.59,0.11-25.39,1.24-52.67,8.09v-4.7
	c13.54-4.3701,30.58-8.2401,49.98-9.14l6.77,1.48L66.93,64.495z"/>
<linearGradient id="SVGID_3_" gradientUnits="userSpaceOnUse" x1="10.07" y1="70.1011" x2="69.03" y2="70.1011">
	<stop  offset="0" style="stop-color:#F15A29"/>
	<stop  offset="1" style="stop-color:#FFF200"/>
</linearGradient>
<path class="st3" d="M69.03,68.375l-0.27,4.33c0,0-2.2-0.34-6.56-0.5699c-8.74-0.44-26.21-0.41-52.13,3.84v-5.71
	c14.22-3.77,32.27-6.72,52.56-5.9l0.11,0.07L69.03,68.375z"/>
<linearGradient id="SVGID_4_" gradientUnits="userSpaceOnUse" x1="10.07" y1="75.6184" x2="70.22" y2="75.6184">
	<stop  offset="0" style="stop-color:#BE1E2D"/>
	<stop  offset="1" style="stop-color:#ED1C24"/>
</linearGradient>
<path class="st4" d="M70.22,77.195l-2.36,3.32c0,0-18.55-4.53-57.79-1.8v-5.46c14.26-2.4,32.26-3.7,52.13-1.12
	c0.74,0.09,1.49,0.19,2.24,0.3L70.22,77.195z"/>
<polygon class="st5" points="76.9013,42.4563 82.4946,57.1557 97.2261,62.6641 84.9745,72.526 84.288,88.2386 71.1229,79.6341 
	55.9671,83.8367 60.0822,68.657 51.4019,55.5417 67.1103,54.7645 "/>
<radialGradient id="SVGID_5_" cx="75.3036" cy="61.9083" r="18.2095" gradientTransform="matrix(1 0.0007 -0.0007 1 -1.1118 3.155)" gradientUnits="userSpaceOnUse">
	<stop  offset="0" style="stop-color:#FFF200"/>
	<stop  offset="1" style="stop-color:#FBD140"/>
</radialGradient>
<polygon class="st6" points="76.2075,46.9207 80.6548,58.6085 92.3681,62.9884 82.6266,70.8298 82.0808,83.3232 71.6129,76.4817 
	59.5622,79.8232 62.8342,67.7535 55.9323,57.3252 68.4224,56.7073 "/>
<g>
	<g>
		<path class="st7" d="M20.9884,53.8908c0.0364,0.1784,0.1257,0.4265,0.1153,0.6212c-0.0035,0.1035-0.029,0.2057,0.0215,0.2856
			c0.0374,0.059,0.0211,0.171,0.0179,0.2745c0.04-0.002,0.0603-0.0218,0.1119-0.028c0.024,0.1061,0.017,0.2285,0.0181,0.3507
			c0.0009,0.1-0.0012,0.198,0.035,0.2808c0.0315,0.072-0.0453,0.2017-0.0644,0.304c-0.0202,0.108-0.0402,0.2189-0.0667,0.3311
			c-0.0066,0.0534-0.0017,0.1025,0.0107,0.175c0.0948,0.0032,0.1823,0.278,0.184,0.3923c0.2196-0.0934,0.4163-0.1009,0.6481-0.1205
			c-0.1008,0.1255-0.1824,0.2314-0.2627,0.3375c-0.0814,0.106-0.1656,0.2007-0.2309,0.3141
			c-0.0571,0.0974-0.0664,0.2158-0.0559,0.3145c0,0.038,0.0248,0.0674,0.0208,0.0943c-0.0822,0.1713,0.0417,0.2916-0.0243,0.4696
			c-0.0073,0.0152-0.003,0.0266,0.0053,0.0491c0.0219,0.0939,0.0431,0.1887,0.0777,0.3165
			c0.0113-0.0042,0.0504-0.0056,0.1005-0.0117c-0.0448,0.0551-0.0959,0.113-0.1119,0.1566
			c-0.0215,0.0585-0.0231,0.1652-0.0176,0.2368c0.0115,0.1512-0.0482,0.3254-0.0899,0.4949
			c-0.0028,0.0266-0.0289,0.062-0.0428,0.0928c-0.1223,0.1613-0.2529,0.3102-0.4184,0.4148
			c-0.093,0.0588-0.1751,0.1568-0.2598,0.2407c-0.1866,0.1618-0.3828,0.3281-0.5703,0.5175
			c-0.0915,0.1004-0.1987,0.2019-0.2927,0.2833c-0.1195,0.1036-0.2491,0.1631-0.4004,0.2111
			c0.0251-0.0358,0.0337-0.0782,0.0619-0.141c-0.0747,0.0425-0.1198,0.0606-0.1721,0.0948
			c-0.1401,0.1079-0.2799,0.1946-0.428,0.2379c-0.1713,0.05-0.3502,0.1233-0.5156,0.1855c-0.0771,0.029-0.1593,0.0446-0.2271,0.0549
			c-0.0352,0.0053-0.0706-0.0098-0.1035,0.0039c-0.1646,0.0817-0.3024,0.0091-0.421-0.0579
			c-0.1558-0.0879-0.3236-0.2023-0.4744-0.3076c-0.0526-0.0297-0.0629-0.1817-0.0063-0.2969
			c0.0717-0.146,0.1696-0.2763,0.2865-0.3672c0.1275-0.0992,0.2547-0.2049,0.3896-0.2793c0.2738-0.151,0.5201-0.4204,0.7567-0.6585
			c0.3814-0.3734,0.755-0.7406,1.1322-1.1054c0.1428-0.1455,0.1552-0.1679,0.1252-0.3317c-0.0275-0.1501-0.0588-0.3243-0.084-0.4946
			c-0.0042-0.0109-0.0042-0.0109-0.0086-0.0223c-0.0991-0.2575-0.0094-0.4075-0.0613-0.6831s-0.1075-0.5621-0.1631-0.8493
			c-0.0042-0.0109-0.0127-0.0333-0.0402-0.0359c0.0184,0.0829,0.02,0.1591,0.0384,0.242c-0.0852-0.1854-0.0838-0.4301-0.1007-0.6546
			c-0.0116,0.0044-0.0242,0.0092-0.0285-0.0022c-0.0186,0.0588-0.0488,0.1216-0.0433,0.1707
			c-0.0016,0.2447-0.1501,0.3529-0.2134,0.6087c-0.035,0.1549-0.0384,0.285,0.0516,0.3784
			c0.0159,0.0069,0.0289,0.0406,0.0303,0.0783c-0.0137,0.0697-0.0388,0.1438-0.0638,0.218
			c-0.0571,0.3051-0.2715,0.479-0.4807,0.6651c-0.0912,0.0744-0.1874,0.1384-0.2825,0.2026
			c-0.4938,0.3515-0.9169,0.3702-1.2392,0.0487c-0.2759-0.2757-0.3691-0.0605-0.4746-0.492
			c-0.1658-0.6779-0.222-0.5619-0.2661-1.2783c-0.0282-0.4588-0.003-0.8816-0.4294-0.303
			c-0.1049,0.0825-0.1511,0.2054-0.2061,0.3066c-0.0172,0.059-0.0459,0.1228-0.079,0.1759
			c-0.0185,0.0205-0.0666,0.0406-0.0896,0.0502c-0.0161-0.006-0.023-0.0549-0.0208-0.0818
			c0.0694-0.1985,0.0404-0.3684,0.0752-0.5516c0.0775-0.3829,0.1369-0.7452,0.2751-1.1258c0.0404-0.1073,0.0693-0.243,0.1117-0.3436
			c0.0395-0.0937,0.0972-0.1783,0.1444-0.2657c0.0363-0.0671,0.0731-0.1328,0.087-0.2032c0.0329-0.0912,0.0879-0.1649,0.1637-0.2211
			c0.5309-0.355,1.0262-0.4191,1.45-0.2234c0.2669,0.1155,0.3517,0.3981,0.3743,0.717c0.0176,0.2474,0.0604,0.5079,0.0844,0.7517
			c0.0132,0.135,0.0353,0.2697,0.0356,0.411c-0.0218,0.4717,0.0643,0.0262,0.0837,0.4951c0.1634,2.7299,1.2105-2.3985,1.2677-3.1095
			c-0.0011-0.1531,0.0198-0.3033,0.0424-0.4499c0.0338-0.2189,0.0684-0.4596,0.0972-0.6866
			c0.0163-0.1082,0.0417-0.2252,0.0454-0.3353c0.0021-0.0632,0.0479-0.1122,0.1031-0.1394c0.2413-0.119,0.0262-0.0993,0.2769-0.0863
			c0.2294,0.0119,0.0799,0.0673,0.2616,0.1488c0.2374,0.1066-0.0338,0.65,0.007,0.9525c0.0423,0.3135,0.0755,0.5401,0.1377,0.8424
			c0.048,0.2335,0.154,0.5056,0.1913,0.7599C20.9362,53.8971,20.9638,53.8997,20.9884,53.8908z M19.0843,60.9442
			c0.13-0.1309,0.2435-0.2789,0.3559-0.4271c0.5699-0.5495,0.7085-2.1519-0.2036-0.8097c-0.2932,0.2971-0.5919,0.5726-0.9329,0.777
			c-0.0594,0.0502-0.124,0.0937-0.1817,0.1394c-0.1141,0.0904-0.147,0.1974-0.0611,0.2712
			c0.0898,0.0772,0.1912,0.1419,0.2884,0.2187c0.0412,0.0348,0.0795,0.0511,0.1514,0.0155c0.0513-0.0254,0.1158-0.0084,0.204-0.0184
			c-0.0591,0.0499-0.0774,0.0706-0.1061,0.095C18.7886,61.2187,18.9164,61.1132,19.0843,60.9442z M20.0011,59.0213
			c0.0018,0.0381,0.0027,0.0765-0.0026,0.1298c0.0174-0.0581,0.0156-0.0961,0.026-0.1389
			C20.0123,59.0169,20.0123,59.0169,20.0011,59.0213z M20.0571,58.3058c-0.0364-0.3715-0.032-0.7453-0.1746-1.0504
			C19.9359,57.6071,19.9562,57.9722,20.0571,58.3058z M19.8584,57.1235c-0.0402-0.177-0.0856-0.32-0.1072-0.4597
			c-0.0385-0.2479-0.0515-0.5104-0.0711-0.7554c-0.0193-0.2423-0.0509-0.4939-0.0751-0.741
			c-0.0318,0.0245-0.0402,0.0407-0.0317,0.0631c0.0329,0.4108,0.0544,0.8257,0.1011,1.2316c0.014,0.0715-0.004,0.1682,0.0724,0.1903
			C19.7285,56.8521,19.7617,57.0449,19.8584,57.1235z"/>
		<path class="st7" d="M22.8919,54.8726c-0.2019-0.1586-0.3463-0.3954-0.4759-0.6345c-0.0966-0.1782-0.1058-0.3825-0.0603-0.6014
			c0.0049-0.027,0.0208-0.0578,0.0652-0.0856c0.0701-0.1131,0.1743-0.2234,0.286-0.3524c0.0859-0.0993,0.2421-0.1576,0.3694-0.189
			c0.0911-0.0225,0.4422,0.1045,0.5171,0.1302c0.0903,0.031,0.187,0.0767,0.2869,0.0939c0.1389,0.0553,0.2457,0.1337,0.3555,0.2616
			c0.0656,0.0797,0.13,0.1514,0.1907,0.2154c0.0709,0.0747,0.127,0.2028,0.1809,0.3066c0.0476,0.0917,0.0714,0.1785,0.1256,0.2615
			c0.0155,0.0078,0.0155,0.0078,0.0229,0.0305c-0.0958-0.1706,0.0337,0.0808,0.0373,0.1142
			c0.0138,0.1259,0.1227,0.2693,0.115,0.3914c-0.0046,0.0724,0.0834,0.1366,0.1796,0.1052c0.5732-0.2246,0.8263-0.217,1.3728-0.4875
			c0.0534-0.0417,0.1023-0.0947,0.1639-0.1516c0.02-0.0185,0.0491-0.0525,0.0699-0.0717c0.0341,0.0273,0.0365,0.0766,0.0318,0.1031
			c-0.0184,0.0686,0.1088,0.0543,0.075,0.1148c-0.2471,0.4778-1.3463,0.8144-1.7743,0.9546
			c-0.0116,0.0038-0.0232,0.0076-0.0358,0.0117c-0.0349,0.0114-0.067,0.0343-0.0594,0.0575
			c0.0074,0.0227-0.0015,0.038-0.0056,0.0645c0.028,0.2057-0.0174,0.4237-0.0368,0.6435c-0.0137,0.156-0.0628,0.2863-0.111,0.4161
			c-0.0241,0.0842-0.0443,0.1795-0.0998,0.2486c-0.0191,0.0193-0.0353,0.05-0.0621,0.0842
			c-0.0201,0.0191-0.0478,0.0537-0.0477,0.0918c-0.0591,0.1338-0.1378,0.249-0.2546,0.3269
			c-0.0238,0.0081-0.0741,0.0505-0.1015,0.0852c-0.148,0.1011-0.319,0.1436-0.4738,0.1759
			c-0.2141,0.0446-0.4094-0.0483-0.5939-0.1992c-0.0661-0.0787-0.158-0.1829-0.2124-0.269
			c-0.1036-0.1637-0.179-0.3946-0.2308-0.6181c-0.0527-0.2227-0.0434-0.4592-0.0185-0.6922
			c0.0293-0.2752,0.0996-0.5563,0.2079-0.8221c0.0321-0.0235,0.0243-0.0461,0.0242-0.0843
			C22.9114,54.8911,22.9075,54.8801,22.8919,54.8726z M24.1661,53.9353c-0.0739-0.1038-0.1269-0.2257-0.2053-0.3363
			c-0.072-0.1015-0.1527-0.1767-0.2604-0.2169c-0.0635-0.0293-0.1304-0.0665-0.2034-0.0834
			c-0.0833-0.0193-0.1676-0.0576-0.268-0.0747c-0.1835-0.0644-0.3692,0.2645-0.4266,0.373
			c-0.1792,0.5434,0.3387,1.0247,0.7417,1.2298c0.5663,0.5296,1.1216,0.0928,0.7242-0.6223
			C24.2626,54.1055,24.2128,54.0008,24.1661,53.9353z M23.8517,56.5083c0.0079,0.0608,0.0313,0.1291,0.0508,0.186
			c-0.0162,0.0308,0.0115,0.0337,0.0308,0.0524c0.0433,0.0487,0.1096,0.0895,0.1756,0.0923c0.0114-0.0039,0.0114-0.0039,0.02-0.0197
			c0.0077-0.015,0.0276-0.0347,0.0354-0.0497c0.1304-0.2723,0.1835-0.5812,0.2144-0.8825c0.0282-0.1109,0.0182-0.2213,0.0273-0.3129
			c-0.3115-0.0221-0.4166,0.1288-0.4966,0.3697C23.8369,56.1619,23.8528,56.2798,23.8517,56.5083z"/>
		<path class="st7" d="M28.0786,54.9295c-0.1576,0.1638-0.4372,0.2317-0.5584,0.3063c-0.1066,0.0324-0.3982,0.059-0.4947,0.0387
			c-0.3515-0.08-0.3883-0.1561-0.5656-0.5151c-0.0647-0.0806-0.0905-0.3087-0.0907-0.4996
			c-0.0003-0.2619,0.3385-1.435,0.3747-1.7088c0.0231-0.1453,0.0455-0.2899,0.1016-0.4572
			c0.0126-0.0915,0.0678-0.1395,0.1183-0.1855c0.0669-0.0609,0.1614-0.086,0.2052-0.1617c0.1577-0.1468,0.0014-0.1946,0.1175-0.2351
			c0.1156-0.0403,0.223-0.0159,0.3087,0.0464c0.0525-0.0027,0.0694,0.0549,0.1319,0.0865c0.0437,0.0121,0.0441,0.0619,0.0577,0.1083
			c0.0111,0.3091-0.0992,0.9289-0.0895,1.2265c-0.0374,0.0987,0.0292,0.4325,0.0304,0.5039
			c0.0019,0.1137,0.0167,0.2324-0.0088,0.3654c0.0028,0.099,0.006,0.2855,0.0681,0.3175c0.0618,0.0318,0.1477,0.2311,0.2122,0.1869
			c0.2437-0.2349,0.6253-0.3585,0.7289-0.5887c0.0596-0.1545,0.1333-0.1257,0.2006-0.2569
			c0.0525-0.1022,0.0653-0.1812,0.0853-0.2494c0.0303-0.1706,0.0552-0.1279,0.0805-0.2722c0.0296-0.1703,0.1004-0.34,0.162-0.4943
			c0.0075-0.1142,0.0293-0.2461,0.0846-0.3102c0.06-0.0696,0.1113-0.0476,0.155-0.0559c0.1611-0.0307,0.0249-0.007,0.1505,0.0206
			c0.0377,0.0392,0.0257,0.0927,0.0688,0.1056c-0.0248,0.2434,0.0273,0.4778-0.0107,0.762
			c-0.014,0.0911-0.0129,0.0036-0.0559,0.1276c0.0313,0.0663,0.0094,0.1854-0.0105,0.2894c-0.022,0.1149,0.0282,0.241-0.0183,0.354
			c0.0141,0.4195,0.0253,0.6407,0.0383,0.6867c0.0064,0.1606,0.4854,0.1522,0.8372-0.0958
			c0.2408-0.1697,0.6151-0.7759,0.7508-1.1962c0.0479-0.1617,0.099-0.3275,0.1694-0.5409c0.0742-0.2251,0.256,0.0837,0.2279,0.1762
			c-0.0204,0.0671-0.0341,0.1204-0.0369,0.158c-0.0786,0.0952-0.0905,0.4951-0.1567,0.5868
			c-0.0175,0.0294,0.0035,0.0612-0.0512,0.1004c-0.1039,0.2386-0.3304,0.6463-0.5186,0.8967
			c-0.1018,0.0524-0.1336,0.0907-0.1994,0.1662c-0.0649,0.0746-0.0822,0.1302-0.1735,0.2092
			c-0.0675,0.0584-0.0824,0.0724-0.1086,0.1172c-0.1014,0.0033-0.1152,0.0441-0.1445,0.0777
			c-0.1914,0.1902-1.1421,0.5092-1.3237,0.14c-0.1653-0.3361-0.281-0.5177-0.2867-0.9408
			c-0.0101-0.0347-0.0101-0.0347-0.0135-0.0464C28.5073,54.4901,28.2435,54.7582,28.0786,54.9295z"/>
		<path class="st7" d="M32.062,48.6993c0.0343-0.0695,0.1212-0.1043,0.1773-0.0935c0.1092,0.0104,0.1937,0.0269,0.2933,0.052
			c0.0559,0.011,0.127,0.031,0.2018,0.0621c0.2017,0.0623,0.3036,0.3217,0.2691,0.5645c-0.021,0.0789-0.0461,0.1733-0.0626,0.2371
			c-0.0096,0.0367-0.0452,0.0848-0.0396,0.108c-0.0198,0.1404-0.0671,0.2668-0.1179,0.3869
			c-0.0637,0.1505-0.1548,0.2846-0.274,0.388c-0.0754,0.0679-0.1506,0.1364-0.2466,0.1724c0,0-0.0121,0.003-0.0252,0.0063
			c-0.0465,0.0242-0.1172,0.054-0.1691,0.0056c-0.0239-0.0438,0.023-0.1176,0.0488-0.1733c0.052-0.161,0.1256-0.3404,0.1886-0.5165
			c0.0308-0.0323,0.0302-0.0851,0.036-0.1201c0.0041-0.0247-0.0051-0.0732-0.0079-0.0845c-0.0209-0.0321-0.065,0.0035-0.0875,0.0216
			c-0.0094,0.0144-0.0216,0.0174-0.0348,0.0207c-0.0613-0.0341-0.1257-0.0799-0.1871-0.1139
			c-0.021-0.032-0.0615-0.034-0.0927-0.0508c-0.1562-0.0968-0.2266-0.2156-0.1323-0.4244c0.0385-0.059,0.0607-0.1333,0.1003-0.1856
			c0.0355-0.0468,0.0678-0.1034,0.0247-0.1672C32.0034,48.7878,32.0342,48.7556,32.062,48.6993z"/>
		<path class="st7" d="M35.9575,51.9768c0.0072-0.184,0.2571-1.1192,0.3167-1.2714c0.0466-0.1192,0.0965-0.2589,0.1407-0.3736
			c0.04-0.1039,0.1047-0.2344,0.1374-0.3355c0.0294-0.0912,0.1006-0.1626,0.1693-0.1827c0.0789-0.0231,0.16-0.0458,0.2342-0.0611
			c0.1503-0.0311,0.2596,0.0573,0.3647,0.1948c0.0023,0.0115,0.0048,0.0234,0.0096,0.0469c0.0564,0.1475,0.1265,0.3063,0.185,0.4641
			c0.0546,0.1472,0.0775,0.3146,0.1086,0.4677c0.0215,0.1058,0.055,0.2091,0.0644,0.3173c0.0683,0.023,0.0658,0.0724,0.0754,0.058
			c0.0203-0.0285,0.1136-0.0105,0.133-0.0388c0.0073-0.0259,0.03-0.0429,0.0373-0.0687c0.042-0.0453,0.0927-0.0934,0.1227-0.159
			c0.0271-0.0593,0.0616-0.0735,0.1225-0.0243c0.0069,0.035,0.0019,0.0728-0.0306,0.1036c-0.0096,0.0144-0.0199,0.042-0.0254,0.0663
			c-0.0076,0.0339-0.0221,0.0776-0.0568,0.0969c-0.0096,0.0144-0.0204,0.0285-0.03,0.0428
			c-0.0097,0.0139-0.0323,0.0309-0.0301,0.0424c-0.0096,0.0144-0.0216,0.0168-0.0323,0.0309
			c-0.0396,0.0572-0.0742,0.0762-0.1232,0.0861c-0.012,0.0024-0.0586,0.0263-0.1005,0.0692
			c-0.0307,0.0314-0.0691,0.039-0.099,0.0201c-0.0955-0.0294-0.1901-0.0313-0.2772-0.0409
			c-0.1416-0.0156-0.2946-0.112-0.3877-0.2626c-0.1184-0.1916-0.1753-0.4387-0.1773-0.6613
			c-0.0009-0.1069-0.0187-0.2065-0.0241-0.3013c-0.004-0.0712-0.0145-0.1586-0.0067-0.2191
			c0.0058-0.0452,0.0082-0.0875-0.0148-0.1316c-0.0122,0.0025-0.04-0.0041-0.0351,0.0193c-0.0097,0.0145-0.0291,0.043-0.0374,0.0692
			c-0.0299,0.1046-0.072,0.2112-0.1123,0.33c-0.024,0.0664-0.0343,0.142-0.029,0.2267c0.0221,0.0447-0.0078,0.0875-0.0124,0.1254
			c-0.0695,0.2234-0.1241,0.4367-0.154,0.6705c-0.0223,0.1747-0.0814,0.3367-0.1195,0.5168c-0.0562,0.27-0.1417,0.5216-0.17,0.7983
			c-0.0067,0.0875-0.0371,0.1936-0.0503,0.2936c-0.0097,0.0734-0.1851,0.7045-0.2444,0.7794
			c0.0052,0.0233-0.0284,0.0429-0.0466,0.072c-0.1002,0.2313-0.2706,0.258-0.4729,0.255c-0.0191,0.0289-0.0479,0.011-0.0777-0.0066
			c-0.2023-0.0024-0.3434-0.156-0.4427-0.3773c-0.0838-0.1868-0.1371-0.4031-0.1786-0.5986
			c-0.0635-0.299-0.135-0.6267-0.1649-0.9223c-0.0337-0.3337-0.0414-0.3368-0.0365-0.6563
			c0.0068-0.4487-0.0534-0.3943,0.0146-0.8901c-0.0068-0.0846,0.0292-0.1541,0.0356-0.2417
			c0.0384-0.2308,0.0917-0.4494,0.1274-0.6448c0.0269-0.147,0.0728-0.1875,0.1902-0.2029c0.0808-0.0105,0.2075-0.019,0.3229-0.0234
			c0.0753-0.0029,0.1891-0.0037,0.2753,0.062c0.1173,0.0894,0.294,0.2087,0.4245,0.3244c0.1513,0.1342,0.1992,0.3059,0.1814,0.5377
			c-0.0184,0.239-0.0743,0.0771-0.0819,0.3366c-0.0536,0.5275-0.2577,0.9837-0.2976,1.4539
			C35.5206,52.8562,35.9494,52.1832,35.9575,51.9768z"/>
		<path class="st7" d="M39.7332,50.8233c0.0043,0.0235-0.0155,0.0515-0.0384,0.0681c-0.0099,0.0137-0.0328,0.0304-0.0264,0.0654
			c-0.0033,0.0498-0.0164,0.0627-0.0481,0.0824c-0.0225,0.0139-0.0208,0.0282-0.0197,0.101
			c0.0241-0.0045,0.0371-0.0069,0.0514,0.0029c0,0,0,0,0.0021,0.0115c-0.0251,0.0046-0.0491,0.0091-0.0863,0.016
			c0.0055-0.0373-0.0011-0.0728-0.0055-0.0963c-0.012,0.0022-0.0241,0.0045-0.0241,0.0045
			c0.0033,0.0848,0.0057,0.1698,0.0091,0.2546c0.0272,0.0069,0.0414,0.0166,0.0535,0.0144
			c0.0274,0.0803,0.0405,0.1509,0.0558,0.2335c0.0154,0.0826,0.0521,0.1608,0.0883,0.2031
			c0.0341,0.0397,0.1922,0.2818,0.2367,0.3222c0.2015,0.1337,0.4588,0.2952,0.6448,0.2856c0.0586-0.003,0.4055-0.1208,0.4651-0.143
			c0.2776-0.1336,0.533-0.3366,0.7691-0.5812c0.1819-0.1884,0.3502-0.3983,0.5334-0.5979c0.0102-0.0135,0.0213-0.0277,0.0315-0.0412
			c0.061-0.0948,0.123-0.1779,0.1844-0.2727c0.1153-0.1517,0.219-0.3014,0.3063-0.4726c0.0282-0.0652,0.0565-0.1303,0.1277-0.1655
			c-0.0089,0.1105-0.0185,0.2093-0.0534,0.3116c-0.0076,0.0377-0.0264,0.0767-0.0479,0.1047
			c-0.0618,0.0941-0.1121,0.1751-0.1466,0.2774c-0.0298,0.0536-0.0716,0.1086-0.1013,0.1618
			c-0.0101,0.014-0.0185,0.0395-0.038,0.0787c0.0353-0.0175,0.0575-0.0333,0.0929-0.0508
			c-0.0009,0.0728-0.0602,0.0945-0.0639,0.1559c0.0149,0.0095,0.0168,0.0216,0.0427,0.0293
			c-0.0277,0.0652-0.0587,0.1108-0.1007,0.1618c-0.058,0.0705-0.1263,0.1537-0.1758,0.2348
			c-0.0919,0.136-0.1992,0.2509-0.3062,0.3654c-0.053,0.0572-0.0995,0.1126-0.1497,0.1583
			c-0.0427,0.0389-0.088,0.0831-0.1303,0.1192c-0.0573,0.049-0.1342,0.0953-0.1996,0.1549c-0.11,0.0919-0.2336,0.174-0.3632,0.2206
			c-0.0346,0.0179-0.0692,0.0363-0.1037,0.0546c-0.1373,0.0724-0.2841,0.1184-0.4227,0.1591
			c-0.1622,0.0476-0.9046,0.0549-1.0737,0.026c-0.4559-0.0854-0.5797-0.2687-0.8062-0.3959
			c-0.0848-0.0447-0.1637-0.1268-0.219-0.214c-0.0905-0.141-0.1432-0.3077-0.1826-0.4772c-0.0813-0.3502-0.0433-0.7375,0.054-1.0981
			c0.0235-0.0782,0.0235-0.0782-0.0102-0.1816c-0.0547,0.0474-0.0874,0.0782-0.0979,0.1534
			c-0.0165,0.1137-0.0475,0.2172-0.089,0.3354c-0.0208-0.1059,0.0146-0.186,0.0358-0.2757c0.0573-0.2311,0.1349-0.455,0.231-0.6681
			c0.1-0.2221,0.2202-0.4329,0.3581-0.6299c0.143-0.2042,0.3025-0.3984,0.4816-0.5528c0.0459-0.0327,0.0823-0.0577,0.1152-0.0821
			c0.0492-0.0365,0.1202-0.0471,0.1682-0.0062c0.035,0.0298,0.0937,0.0124,0.1212,0.0268c0.036,0.0188,0.0629,0.0621,0.0927,0.0811
			c0.1365,0.0366,0.634,0.0707,0.7598,0.1223c0.0419,0.0171,0.0745,0.06,0.1082,0.1028c0.0806,0.0956,0.1508,0.2055,0.2505,0.2614
			c0.0295,0.0193,0.0498,0.0648,0.068,0.0979c0.0495,0.1377,0.076,0.2728,0.0722,0.4261c-0.004,0.1618-0.0452,0.336-0.1078,0.4929
			c-0.0353,0.0913-0.078,0.1743-0.0936,0.2712c-0.0132,0.0824-0.0515,0.1685-0.0829,0.2581
			c-0.0348,0.0991-0.1201,0.1739-0.1911,0.2158c-0.0646,0.0381-0.1574,0.0809-0.2275,0.0769
			c-0.0364-0.0021-0.0742,0.0132-0.1067-0.0296c-0.0021-0.012-0.0152-0.0097-0.0152-0.0097
			c-0.0962,0.0296-0.1765-0.0661-0.2572-0.0877c-0.0142-0.0098-0.0336-0.0425-0.0358-0.0546
			c0.0166-0.0516-0.0128-0.0706-0.0313-0.104c-0.0664-0.0857-0.135-0.1829-0.2137-0.2658
			c-0.0196-0.0332-0.0771-0.0306-0.0889,0.0039C39.7489,50.6761,39.7201,50.7523,39.7332,50.8233z M38.7665,52.1047
			c0.0199,0.0329,0.0441,0.0573,0.0552,0.0873c0.0105,0.0284,0.0482,0.0518,0.0335,0.1034
			c-0.0152-0.0095-0.0272-0.0072-0.0294-0.0187c-0.0835-0.1061-0.1383-0.2541-0.1931-0.4021
			c-0.0143-0.0096-0.0047-0.024-0.0069-0.0355c-0.0346-0.1768-0.0668-0.3412-0.0512-0.5278
			c0.0051-0.0378,0.0103-0.0751,0.0034-0.1106c-0.0046-0.0235-0.0069-0.0355-0.0161-0.0824
			c-0.0233,0.0782-0.0399,0.1314-0.042,0.1793c-0.0025,0.0591-0.0033,0.1106-0.0038,0.1719
			c0.0109,0.3153,0.0788,0.5955,0.2611,0.8166c0.033,0.0423,0.0766,0.0706,0.1225,0.1105c0.0294,0.0187,0.0555,0.026,0.0944,0.0304
			c0.0023,0.012,0.0119-0.0023,0.0367-0.0071c-0.0481-0.0519-0.0932-0.0961-0.1292-0.1461
			c-0.045-0.0625-0.0641-0.1338-0.1124-0.1856C38.7772,52.0907,38.7665,52.1047,38.7665,52.1047z M38.6197,51.3513
			c-0.0244,0.2002,0.0223,0.3747,0.0816,0.5462c0.0023,0.012,0.0143,0.0097,0.0285,0.0188
			c-0.0123-0.1319-0.0266-0.2547-0.0341-0.3719c-0.0052-0.0825-0.007-0.1698-0.0578-0.233
			C38.6281,51.3253,38.6175,51.3398,38.6197,51.3513z M39.5487,51.4793c0.0022,0.012,0.0022,0.012,0.0045,0.024
			C39.5509,51.4913,39.5509,51.4913,39.5487,51.4793z M40.0015,50.1158c-0.0189,0.0401-0.0478,0.094-0.0635,0.146
			c-0.0346,0.0911-0.0117,0.148,0.0563,0.1724c0.0416,0.0168,0.0953,0.0314,0.127,0.0624c0.0896,0.0692,0.1956,0.0439,0.283,0.0104
			c0.0789-0.0303,0.1306-0.1327,0.1656-0.2241c0.0516-0.2163,0.0951-0.2601,0.1343-0.4741
			c0.1219-0.4836-0.2594-0.3078-0.4213-0.1332C40.1624,49.7946,40.0894,49.966,40.0015,50.1158z"/>
		<path class="st7" d="M50.5443,49.3968c-0.0049,0.0847-0.1049,0.3827-0.1626,0.4359c-0.0365,0.0155-0.0455,0.0521-0.0698,0.0665
			c-0.0444,0.0643-0.0776,0.1153-0.123,0.1675c-0.0222,0.026-0.0575,0.0533-0.0674,0.0905
			c-0.0299,0.0753-0.0762,0.1153-0.1355,0.1571c-0.0232,0.0144-0.0473,0.0284-0.0573,0.0534
			c-0.067,0.0906-0.1589,0.178-0.2269,0.2505c-0.0628,0.0668-0.1407,0.1132-0.2233,0.1422
			c-0.1049,0.037-0.2116,0.0434-0.3032,0.0899c-0.082,0.0416-0.1815,0.0546-0.2786,0.0887
			c-0.0372,0.0038-0.0734,0.0076-0.1106,0.0114c-0.1537-0.0321-0.3041-0.0402-0.4382-0.1225
			c-0.0133-0.0103-0.0398-0.0198-0.0652-0.0288c-0.1169-0.036-0.2343-0.0835-0.3195-0.1703
			c-0.0935,0.0585-0.1748,0.1158-0.2425,0.1839c-0.0466,0.0294-0.0811,0.0579-0.1263,0.0989
			c-0.0121,0.0014-0.0237,0.015-0.0237,0.015c-0.0625,0.1035-0.1615,0.1324-0.2547,0.1745
			c-0.158,0.0713-0.3395,0.0884-0.5092,0.0244c-0.0666-0.0283-0.1308-0.0445-0.1949-0.0607
			c-0.3761-0.0987-0.6027-0.3415-0.6918-0.6988c-0.0461-0.1849-0.0371-0.374,0.0306-0.5479
			c0.0639-0.1641,0.1354-0.3318,0.2444-0.4783c-0.0015-0.0116,0.0092-0.0253,0.0211-0.0386
			c0.1324-0.2586,0.3063-0.5092,0.4694-0.7467c0.1215-0.1592,0.2586-0.2964,0.4368-0.4257c0.0233-0.015,0.0725-0.0325,0.1106-0.0368
			c0.0749-0.0209,0.1499-0.0412,0.2375-0.0511c0.0134-0.0015,0.0258-0.0029,0.0381-0.0043
			c0.0803,0.0268,0.1813,0.0156,0.2727,0.0301c0.0271,0.0088,0.0531,0.0182,0.0789,0.0154
			c0.0641,0.0048,0.1147-0.0007,0.1456,0.0446c0.0136,0.0103,0.027,0.0089,0.027,0.0089c0.0629-0.0068,0.1198,0.0475,0.1836,0.0407
			c0.0247-0.0026,0.0518,0.0068,0.0654,0.0171c0.0838,0.0633,0.1785,0.1138,0.2376,0.1921c0.0161,0.0347,0.0309,0.0572,0.048,0.0917
			c0.0358,0.1048,0.0166,0.1864-0.0891,0.2503c-0.1015,0.0614-0.2016,0.142-0.2942,0.2242c0,0,0,0,0.0013,0.0121
			c-0.1241,0.1459-0.2744,0.2827-0.3693,0.4505c-0.0434,0.0648-0.0889,0.1185-0.1334,0.1716
			c-0.0985,0.1319-0.171,0.2729-0.2552,0.4153c-0.0307,0.064-0.0734,0.1294-0.1053,0.1813
			c-0.0226,0.0267-0.0319,0.0519-0.0413,0.0771c-0.0596,0.1397-0.0935,0.2769-0.1033,0.4108
			c-0.0107,0.0131,0.0028,0.0238,0.0056,0.0475c0.0237-0.0151,0.0345-0.0282,0.0451-0.0417c0.11-0.1334,0.2325-0.2685,0.3699-0.3928
			c0.067-0.0681,0.1231-0.1348,0.1634-0.2238c0.0203-0.0382,0.0538-0.0783,0.0874-0.1183c0.0658-0.0918,0.1314-0.1841,0.1833-0.2855
			c0.0717-0.1402,0.1465-0.2812,0.219-0.4338c0.111-0.0242,0.2002-0.0213,0.2844,0.0544c0.028,0.0211,0.055,0.0424,0.0829,0.0635
			c0.0988,0.0982,0.1233,0.2165,0.1478,0.3347c0.0024,0.0238-0.0085,0.0367-0.0183,0.0618
			c-0.0387,0.1125-0.0973,0.2419-0.1398,0.3523c-0.0314,0.0816-0.035,0.1777-0.0112,0.2545
			c0.0278,0.0893,0.0829,0.196,0.1422,0.2866c0.0289,0.0333,0.0726,0.0561,0.1181,0.0482c0.0807-0.014,0.1745-0.0406,0.2541-0.0863
			c0.0702-0.0403,0.1549-0.0923,0.2233-0.143c0.0769-0.057,0.1819-0.1112,0.2578-0.1816c0.0569-0.0528,0.1273-0.1206,0.1835-0.1862
			c0.1475-0.1704,0.3604-0.5876,0.5097-0.7573c0.0111-0.0133,0.0234-0.0143,0.0356-0.0272
			C50.4104,49.3002,50.4769,49.3429,50.5443,49.3968z"/>
		<path class="st7" d="M53.9792,53.114c-0.0484,0.0029-0.0485,0.0028-0.1526,0.081c0,0-0.0014-0.0239-0.0021-0.0356
			c-0.0254-0.0107-0.0254-0.0107-0.0387-0.0339c-0.0232,0.0254-0.0597,0.0276-0.0693,0.0644
			c-0.0573,0.0515-0.1176,0.0674-0.188,0.0959c-0.0239,0.0133-0.0239,0.0132-0.0855-0.0068
			c0.0103-0.0246,0.0095-0.0363,0.0198-0.0614c-0.0365,0.0023-0.0586,0.0282-0.0951,0.0306
			c-0.0103,0.0246-0.0341,0.0379-0.0578,0.0395c-0.0936,0.0663-0.1434,0.0456-0.1981-0.0471
			c-0.0294-0.07-0.0461-0.1408-0.0977-0.1858c-0.0795-0.0905-0.0996-0.2095-0.1324-0.3394
			c-0.0032-0.0477,0.0029-0.1323,0.0226-0.1939c0.0261-0.1579,0.0907-0.2945,0.1787-0.4447c0.178-0.2883,0.3707-0.5409,0.593-0.7589
			c0.442-0.4476,0.3304-0.5755,0.1932-0.9125c-0.1006-0.2469-0.2268-0.4674-0.3652-0.6751c-0.0151-0.047-0.055-0.0807-0.0702-0.1278
			c-0.1227-0.1485-0.4738-1.0985-0.4312-1.2222c0.007-0.0202,0.0092-0.049,0.0319-0.0985c-0.018-0.0708,0.0031-0.1445,0.049-0.2194
			c0.0101-0.0368,0.0438-0.1109,0.0016-0.1684c0.0344-0.0624,0.0491-0.1497,0.076-0.2089c0.0248-0.0547,0.0391-0.1125,0.0661-0.1725
			c0.0157-0.035,0.0339-0.0745,0.0701-0.1125c0.0339-0.0745,0.067-0.1485,0.101-0.2229c0.0452-0.0986,0.1179-0.1749,0.164-0.2618
			c0.011-0.0246,0.0246-0.0254,0.049-0.0391c0.0372-0.0262,0.0471-0.0456,0.0723-0.0884c0.0284-0.0483,0.0595-0.0754,0.087-0.053
			c0.0919,0.0304,0.1576,0.0629,0.2388,0.1308c0,0,0.0125-0.0007,0.0267,0.0103c0.1174,0.0414,0.3527,0.4791,0.3666,0.6286
			c0.0032,0.0345,0.0209,0.0762,0.03,0.0948c0.0192,0.0392,0.0042,0.1458-0.0136,0.2168c-0.0234,0.0932-0.0393,0.2182-0.0847,0.3169
			c-0.0233,0.0492-0.0445,0.0816-0.0836,0.1003c-0.0339,0.0163-0.0723,0.0763-0.0955,0.1255
			c-0.0103,0.0368-0.0588,0.0751-0.0431,0.1344c0,0,0.0013,0.0239-0.0104,0.0368c-0.0347,0.0621-0.0687,0.1359-0.0899,0.1972
			c-0.0436,0.1223-0.0321,0.3402,0.011,0.4317c0.0273,0.0579,0.0946,0.115,0.1344,0.1485c0.1707,0.1226,0.3324,0.5707,0.4763,0.6953
			c0.0654,0.0445,0.0721,0.1762,0.1241,0.222c0.1248,0.2577,0.5833-0.0568,0.8278-0.1831c0.1667-0.0861,0.3627-0.2792,0.5447-0.4303
			c0.1339-0.1014,0.2676-0.2143,0.3896-0.3265c0.0854-0.0748,0.1579-0.168,0.2303-0.2477c0.0563-0.0619,0.1218-0.1358,0.1832-0.2101
			c0.0261,0.0476,0.0405,0.0828,0.054,0.1185c0.0268,0.071,0.0422,0.1428-0.0057,0.2161c-0.0122,0.0365-0.036,0.0612-0.0349,0.0973
			c-0.0229,0.0847-0.0575,0.1639-0.1062,0.231c-0.0532,0.0732-0.0941,0.185-0.1542,0.2454
			c-0.0499,0.0502-0.1097,0.0995-0.1578,0.149c-0.0849,0.0753-0.1696,0.1502-0.2542,0.2251
			c-0.0117,0.0126-0.0362,0.0375-0.0479,0.0502c-0.1342,0.0769-0.254,0.2018-0.3866,0.3031
			c-0.0359,0.0376-0.0839,0.0758-0.132,0.1135c-0.2408,0.1906-0.6392,0.2436-0.5959,0.5313
			c0.0327,0.2175,0.0582,0.1893-0.0021,0.4801c0.0138,0.0355-0.0091,0.0606,0.0046,0.0961
			c-0.0223,0.0372-0.0097,0.0484-0.0097,0.0484c-0.0455,0.0745-0.0151,0.2051-0.0355,0.2779
			c-0.0118,0.0245-0.0346,0.0496-0.0589,0.063c-0.0114,0.0123-0.0233,0.0129-0.0357,0.0257
			c-0.0452,0.0741-0.1024,0.1493-0.1348,0.2351c-0.054,0.1348-0.3654,0.4876-0.457,0.5885
			c-0.034,0.0498-0.0566,0.0873-0.0902,0.1253c-0.0453,0.0744-0.1519,0.1167-0.2227,0.157
			c-0.0112,0.0124-0.023,0.0131-0.0223,0.0253c-0.0681,0.0881-0.1506,0.1287-0.2227,0.1453
			c-0.0229,0.0131-0.0222,0.0253-0.0461,0.039C53.8449,53.302,53.9128,53.2143,53.9792,53.114z M53.4436,52.1493
			c-0.0693,0.0245-0.1385,0.109-0.1714,0.1915c-0.0289,0.0727-0.0715,0.124-0.112,0.1634
			c-0.0455,0.0444-0.0995,0.1077-0.1116,0.1635c-0.0137,0.0634-0.005,0.1339-0.0228,0.1939
			c-0.0211,0.0715-0.0048,0.1207,0.0342,0.1543c0.0524,0.0567,0.1039,0.1012,0.1572,0.1579c0.037,0.0215,0.087,0.0235,0.1324-0.0209
			c0.0402-0.0394,0.0858-0.0771,0.1374-0.1292c0.0455-0.0459,0.0901-0.1138,0.1356-0.1646c0.1046-0.0906,0.184-0.1913,0.2488-0.3395
			c0.0224-0.0253,0.0322-0.0621,0.0436-0.0867c0.0549-0.0991,0.0909-0.2237,0.128-0.32c0.0404-0.105,0.0357-0.23,0.0778-0.3527
			c0.0129-0.0007,0.0116-0.0246,0.0109-0.0368c-0.0218-0.3832-0.4327,0.1936-0.5702,0.3465
			C53.527,52.1083,53.489,52.1332,53.4436,52.1493z"/>
		<path class="st7" d="M60.5165,48.8919c-0.0098,0.0593-0.0387,0.073-0.0247,0.1318c0.0114,0.0478-0.1257,0.3961-0.1511,0.444
			c-0.0753,0.192-0.1565,0.3991-0.236,0.5763c-0.0941,0.2097-0.2226,0.4087-0.3334,0.6135c-0.049,0.0843-0.6229,0.809-0.6844,0.8581
			c-0.1581,0.1099-0.4234,0.4255-0.5693,0.5243c-0.0967,0.0618-0.463,0.2039-0.5461,0.2147
			c-0.1538,0.02-0.3361,0.0235-0.4773,0.0001c-0.2429-0.0401-0.6492-0.3886-0.7805-0.6245
			c-0.0647-0.1058-0.1422-0.1988-0.1836-0.3176c-0.0547-0.1539-0.1075-0.4099-0.1196-0.5835
			c-0.068-0.9715,0.0811-1.1554,0.3528-2.1364c0.0219-0.0847,0.0397-0.1619,0.0551-0.2416c0.0148-0.0771,0.0485-0.1713,0.0687-0.242
			c0.0364-0.1271,0.0673-0.2664,0.102-0.3871c0.0562-0.266,0.3755-0.7312,0.0661-0.7821c-0.09-0.0091-0.1683-0.0025-0.2449-0.0526
			c-0.0718-0.047-0.1572-0.079-0.235-0.1242c-0.0269-0.023-0.0664-0.0456-0.081-0.1052c0.0257-0.0131,0.0504-0.0257,0.063-0.0261
			c0.1786-0.0422,0.3449-0.0831,0.5239-0.1245c0.1155-0.0273,0.2534-0.0356,0.3715-0.0581
			c0.0482-0.0092,0.1028-0.0392,0.1265-0.0994c0.0372-0.0949,0.0984-0.1822,0.1221-0.2907c0.1239-0.231,0.2089-0.4741,0.3475-0.6915
			c0.1238-0.1943,0.2522-0.365,0.4197-0.512c0.0249-0.0366,0.0636-0.0729,0.0898-0.0977c0.0515-0.0365,0.1081-0.0644,0.1694-0.0505
			c0.0744,0.0168,0.1562-0.014,0.2477-0.0152c0.0128-0.0002,0.0128-0.0002,0.0254-0.0125c0.1826-0.0384,0.2453,0.0442,0.3028,0.1645
			c0.0554,0.1159,0.0936,0.2389,0.0949,0.3829c0.0007,0.0718,0.0123,0.1344,0.0272,0.1917c0.012,0.0465,0.0147,0.1078,0.0015,0.168
			c-0.0121,0.0602-0.0215,0.1239-0.0362,0.1922c-0.0198,0.0924-0.0508,0.1924-0.0751,0.2883
			c0.0004,0.0361,0.0006,0.0601-0.0116,0.0963c0.038,0.0235,0.079,0.0251,0.1284,0.0227c0.1497-0.0072,0.3292-0.0329,0.4779-0.0395
			c0.2108-0.0094,0.452-0.0016,0.6717-0.0015c0.0768,0.0001,0.1545,0.0241,0.2449,0.0366c-0.0264,0.0361-0.0391,0.06-0.0517,0.0716
			c-0.0263,0.0239-0.0652,0.0482-0.0904,0.0599c-0.0903,0.036-0.1932,0.0838-0.2834,0.12c0.0001,0.0117-0.0136,0.0117-0.0136,0.0117
			c-0.1415,0.0123-0.3012,0.0665-0.4506,0.0614c-0.0865-0.003-0.1888,0.0084-0.269,0.0377c-0.0495,0.0181-0.1182,0.028-0.1672,0.037
			c-0.0963,0.0175-0.1996,0.0211-0.2959,0.039c-0.0487,0.0091-0.0759,0.0487-0.1014,0.0974
			c-0.0124,0.0119-0.0123,0.0241-0.0247,0.0359c-0.1497,0.4101-0.3481,0.7967-0.507,1.1949c-0.025,0.0483-0.049,0.097-0.0608,0.1329
			c-0.062,0.1212-0.1078,0.235-0.1462,0.3625c-0.032,0.1064-0.0997,0.2184-0.1575,0.3151
			c-0.0493,0.0825-0.0342,0.1926-0.0959,0.2779c-0.1321,0.3026-0.2747,1.2201-0.2378,1.6726
			c0.0156,0.1907,0.0711,0.37,0.1364,0.5488c0.0264,0.0595,0.0764,0.0941,0.1146,0.1416c0.0121-0.0003,0.0244,0.0112,0.0494,0.0107
			c0.1104-0.0023,0.3323,0.0058,0.4426-0.0684c0.0724-0.0491,0.4395-0.342,0.5134-0.403c0.1832-0.1824,0.5999-0.6345,0.7249-0.8703
			c0.1077-0.203,0.1726-0.4687,0.2854-0.6609c0.0497-0.1198,0.1751-0.3842,0.2376-0.5161
			C60.4405,48.9041,60.5217,48.8604,60.5165,48.8919z M58.5323,47.1336c0.1299-0.284-0.0605-0.5368-0.2607-0.2834
			c-0.1722,0.218-0.1785,0.6755-0.2853,1.0495c-0.2578,1.0014,0.1318,0.2491,0.3016-0.1981
			C58.3726,47.4724,58.4349,47.3465,58.5323,47.1336z M58.9106,45.7483c0.0131-0.048,0.0276-0.1102,0.0368-0.1685
			c0.0145-0.0917,0.0374-0.193,0.0481-0.2882c0.0121-0.1072,0.0033-0.2246-0.0168-0.3235c-0.0093-0.0455-0.0528-0.0594-0.079-0.0351
			c-0.0515,0.0368-0.0905,0.0613-0.1151,0.1213c-0.0505,0.0969-0.1019,0.2056-0.1255,0.3139
			c-0.0121,0.0363-0.038,0.0724-0.0501,0.1087c-0.0256,0.0483-0.0582,0.101-0.0756,0.1575
			c-0.0325,0.1057-0.0574,0.2586-0.0841,0.3853c-0.0611,0.2901,0.3149,0.3187,0.3896,0.1018
			C58.8625,46.0009,58.8871,45.8805,58.9106,45.7483z"/>
		<path class="st7" d="M65.0197,49.0525c-0.0156,0.0834-0.1528,0.3664-0.2171,0.4119c-0.0383,0.0108-0.0519,0.0459-0.0779,0.0572
			c-0.0523,0.0582-0.0919,0.1046-0.1436,0.1506c-0.0254,0.023-0.064,0.0456-0.0775,0.0813
			c-0.0403,0.0709-0.0915,0.1048-0.1559,0.1388c-0.0248,0.0114-0.0507,0.0222-0.0638,0.0457
			c-0.0782,0.0814-0.1808,0.1566-0.2577,0.2199c-0.0709,0.0584-0.1545,0.0945-0.2404,0.113
			c-0.1091,0.0235-0.2161,0.0164-0.3134,0.051c-0.0869,0.0309-0.1887,0.0313-0.2887,0.0529
			c-0.0375-0.0009-0.074-0.0017-0.1116-0.0026c-0.1491-0.0512-0.2978-0.0782-0.4209-0.1768
			c-0.012-0.0119-0.0372-0.0246-0.0613-0.0368c-0.1119-0.0504-0.2227-0.1123-0.2966-0.2092
			c-0.1005,0.0463-0.1887,0.0929-0.2647,0.1519c-0.0501,0.0233-0.0881,0.0472-0.1382,0.0822
			c-0.0122-0.0001-0.0256,0.0119-0.0256,0.0119c-0.0753,0.0948-0.1785,0.1112-0.2756,0.1411
			c-0.1659,0.051-0.3491,0.0449-0.5099-0.0399c-0.0627-0.0365-0.1246-0.0606-0.1874-0.0848
			c-0.3609-0.1453-0.5557-0.4147-0.5993-0.7803c-0.0226-0.1893,0.0103-0.3757,0.0996-0.5397
			c0.0843-0.1547,0.1766-0.3121,0.3036-0.4437c0-0.0117,0.0124-0.0239,0.0258-0.0356c0.1644-0.2399,0.3691-0.4667,0.5615-0.6817
			c0.141-0.1426,0.2948-0.2615,0.4885-0.3673c0.0251-0.0119,0.0763-0.0231,0.1148-0.0226c0.0772-0.0113,0.1544-0.022,0.244-0.0208
			c0.0125,0.0002,0.025,0.0004,0.0375,0.0005c0.0765,0.0367,0.1785,0.0383,0.2677,0.0642c0.0258,0.0121,0.0506,0.0248,0.0766,0.0252
			c0.0633,0.0128,0.1143,0.0137,0.1394,0.0626c0.0123,0.0119,0.0258,0.0122,0.0258,0.0122
			c0.0635,0.0012,0.1133,0.0622,0.1777,0.0635c0.0249,0.0005,0.0507,0.0132,0.0629,0.0252
			c0.0754,0.0734,0.1634,0.1354,0.2123,0.2205c0.0117,0.0364,0.0236,0.0606,0.0362,0.097c0.0224,0.1085-0.0069,0.1867-0.1204,0.2371
			c-0.1082,0.048-0.2187,0.1155-0.3213,0.1853c0,0,0,0-0.0002,0.0122c-0.142,0.1291-0.309,0.2459-0.4246,0.4004
			c-0.0514,0.0588-0.1035,0.1063-0.1545,0.1535c-0.1147,0.1185-0.2047,0.2492-0.3065,0.3798
			c-0.0386,0.0596-0.0894,0.1191-0.1277,0.1666c-0.0258,0.0237-0.0383,0.0475-0.0508,0.0713
			c-0.077,0.1311-0.1281,0.2629-0.1547,0.3945c-0.0123,0.0116-0.0002,0.0239-0.0004,0.0479
			c0.0256-0.012,0.0379-0.0236,0.0502-0.0357c0.1263-0.1185,0.2653-0.2371,0.4178-0.3431c0.0753-0.0591,0.1395-0.1183,0.1909-0.2015
			c0.0251-0.0353,0.0635-0.0709,0.1019-0.1064c0.0771-0.0828,0.1542-0.1661,0.2186-0.2601c0.0891-0.13,0.1814-0.2605,0.2728-0.4028
			c0.1136-0.01,0.202,0.0041,0.2764,0.0897c0.0252,0.0245,0.0494,0.049,0.0746,0.0735c0.0861,0.1099,0.0955,0.2303,0.105,0.3507
			c-0.0006,0.0239-0.0132,0.0353-0.0261,0.059c-0.0527,0.1067-0.1274,0.2277-0.1837,0.3319
			c-0.0416,0.077-0.0574,0.1719-0.0433,0.2511c0.0164,0.0921,0.0577,0.2049,0.1055,0.3022
			c0.0246,0.0367,0.0652,0.0648,0.1115,0.0626c0.0822-0.0038,0.1789-0.0183,0.2639-0.0536c0.075-0.0312,0.166-0.072,0.2404-0.1137
			c0.0838-0.0469,0.1953-0.0873,0.2798-0.1477c0.0632-0.0452,0.1411-0.1036,0.2064-0.1616c0.1684-0.1504,0.4332-0.5375,0.6035-0.687
			c0.0128-0.0117,0.0251-0.0113,0.0389-0.0225C64.8986,48.9398,64.9594,48.9905,65.0197,49.0525z"/>
		<path class="st7" d="M66.191,49.4532c0.0556-0.1756,0.545-1.0121,0.643-1.1433c0.0767-0.1028,0.1621-0.2245,0.2353-0.3233
			c0.0663-0.0897,0.1636-0.1986,0.2219-0.2875c0.0526-0.0802,0.1406-0.1304,0.2126-0.1317c0.0826-0.0015,0.1674-0.002,0.2435,0.0027
			c0.1542,0.0096,0.2369,0.1236,0.3026,0.284c-0.0007,0.0117-0.0015,0.0239-0.0031,0.0478c0.0159,0.1571,0.0419,0.3289,0.057,0.4965
			c0.0141,0.1563-0.0079,0.3239-0.0181,0.4798c-0.0071,0.1077-0.0019,0.2162-0.0214,0.323
			c0.0603,0.0402,0.0448,0.0871,0.0579,0.0758c0.0272-0.0222,0.1132,0.0198,0.1394-0.0024c0.0139-0.023,0.0404-0.0335,0.0544-0.0565
			c0.0528-0.0326,0.1148-0.0657,0.1612-0.121c0.042-0.0501,0.0793-0.0547,0.1255,0.0088c-0.0025,0.0356-0.0174,0.0707-0.0571,0.0919
			c-0.0132,0.0113-0.0305,0.0352-0.0422,0.0572c-0.0164,0.0307-0.042,0.069-0.0808,0.0786
			c-0.0131,0.0113-0.0273,0.0221-0.0404,0.0334c-0.0131,0.0108-0.0396,0.0213-0.0404,0.033
			c-0.0132,0.0113-0.0255,0.0105-0.0396,0.0213c-0.0535,0.0448-0.0922,0.0539-0.1425,0.0506
			c-0.0123-0.0008-0.0638,0.0098-0.1159,0.0402c-0.0381,0.0222-0.0774,0.0194-0.1014-0.0066
			c-0.085-0.0535-0.1763-0.0802-0.2584-0.1124c-0.1335-0.0524-0.2564-0.1856-0.307-0.3554
			c-0.0643-0.216-0.0543-0.4694,0.0026-0.6847c0.0273-0.1034,0.0364-0.2042,0.0562-0.297c0.0149-0.0697,0.0278-0.1569,0.0513-0.2131
			c0.0176-0.0421,0.0311-0.0823,0.0204-0.1308c-0.0125-0.0008-0.0378-0.0145-0.0392,0.0094
			c-0.0132,0.0114-0.0396,0.0338-0.0546,0.0569c-0.0566,0.093-0.1257,0.1848-0.1962,0.2888
			c-0.0408,0.0578-0.0709,0.128-0.0881,0.2111c0.0096,0.049-0.0307,0.0824-0.0452,0.1177
			c-0.1264,0.1972-0.2358,0.3886-0.3265,0.6063c-0.0679,0.1627-0.1679,0.3034-0.2525,0.4672
			c-0.1259,0.2457-0.2752,0.4659-0.3758,0.7254c-0.0296,0.0826-0.087,0.1769-0.1263,0.27
			c-0.0287,0.0683-0.3655,0.6309-0.4428,0.6876c-0.0011,0.0239-0.0389,0.0339-0.0642,0.0573
			c-0.1582,0.1968-0.3304,0.1777-0.5259,0.1216c-0.0261,0.0229-0.0493-0.002-0.0735-0.0268
			c-0.1955-0.0555-0.2917-0.2408-0.3296-0.4805c-0.0319-0.2023-0.0266-0.425-0.0153-0.6245
			c0.0173-0.3052,0.0345-0.6403,0.0836-0.9331c0.0554-0.3307,0.0488-0.3359,0.1378-0.6429
			c0.1249-0.4309,0.0522-0.3945,0.2491-0.8549c0.0157-0.0834,0.069-0.141,0.0984-0.2238c0.0981-0.2126,0.2074-0.4095,0.2937-0.5886
			c0.0649-0.1347,0.1201-0.1618,0.2381-0.1457c0.0812,0.0111,0.2062,0.0362,0.3193,0.0624
			c0.0738,0.0171,0.1844,0.0461,0.2507,0.1323c0.09,0.117,0.2301,0.2787,0.3261,0.4247c0.1113,0.1692,0.1124,0.3476,0.034,0.5665
			c-0.0809,0.2257-0.0924,0.0548-0.1685,0.3032c-0.1913,0.4948-0.5098,0.8812-0.6725,1.3244
			C65.535,50.1868,66.1286,49.6502,66.191,49.4532z"/>
	</g>
</g>
<g>
	<g>
		<linearGradient id="SVGID_6_" gradientUnits="userSpaceOnUse" x1="18.6932" y1="58.8875" x2="18.6932" y2="45.4099">
			<stop  offset="0" style="stop-color:#FFF200"/>
			<stop  offset="1" style="stop-color:#FB7E40"/>
		</linearGradient>
		<path class="st8" d="M20.8738,53.5366c0.0364,0.1784,0.1257,0.4265,0.1153,0.6212c-0.0035,0.1035-0.029,0.2057,0.0215,0.2856
			c0.0374,0.059,0.0211,0.171,0.0179,0.2745c0.04-0.002,0.0603-0.0218,0.1119-0.028c0.024,0.1061,0.017,0.2285,0.0181,0.3507
			c0.0009,0.1-0.0012,0.198,0.035,0.2808c0.0315,0.072-0.0453,0.2017-0.0644,0.304c-0.0202,0.108-0.0402,0.2189-0.0667,0.3311
			c-0.0066,0.0534-0.0017,0.1025,0.0107,0.175c0.0948,0.0032,0.1823,0.278,0.184,0.3923c0.2196-0.0934,0.4163-0.1009,0.6481-0.1205
			c-0.1008,0.1255-0.1824,0.2314-0.2627,0.3375c-0.0814,0.106-0.1656,0.2007-0.2309,0.3141
			c-0.0571,0.0974-0.0664,0.2158-0.0559,0.3145c0,0.038,0.0248,0.0674,0.0208,0.0943c-0.0822,0.1713,0.0417,0.2916-0.0243,0.4696
			c-0.0073,0.0152-0.003,0.0266,0.0053,0.0491c0.0219,0.0939,0.0431,0.1887,0.0777,0.3165
			c0.0113-0.0042,0.0504-0.0056,0.1005-0.0117c-0.0448,0.0551-0.0959,0.113-0.1119,0.1566
			c-0.0215,0.0585-0.0231,0.1652-0.0176,0.2368c0.0115,0.1512-0.0482,0.3254-0.0899,0.4949
			c-0.0028,0.0266-0.0289,0.062-0.0428,0.0928c-0.1223,0.1613-0.2529,0.3102-0.4184,0.4148
			c-0.093,0.0588-0.1751,0.1568-0.2598,0.2407c-0.1866,0.1618-0.3828,0.3281-0.5703,0.5175
			c-0.0915,0.1004-0.1987,0.2019-0.2927,0.2833c-0.1195,0.1036-0.2491,0.1631-0.4004,0.2111
			c0.0251-0.0358,0.0337-0.0782,0.0619-0.141c-0.0747,0.0425-0.1198,0.0606-0.1721,0.0948
			c-0.1401,0.1079-0.2799,0.1946-0.428,0.2379c-0.1713,0.05-0.3502,0.1233-0.5156,0.1855c-0.0771,0.029-0.1593,0.0446-0.2271,0.0549
			c-0.0352,0.0053-0.0706-0.0098-0.1035,0.0039c-0.1646,0.0817-0.3024,0.0091-0.421-0.0579
			c-0.1558-0.0879-0.3236-0.2023-0.4744-0.3076c-0.0526-0.0297-0.0629-0.1817-0.0063-0.2969
			c0.0717-0.146,0.1696-0.2763,0.2865-0.3672c0.1275-0.0992,0.2547-0.2049,0.3896-0.2793c0.2738-0.151,0.5201-0.4204,0.7567-0.6585
			c0.3814-0.3734,0.755-0.7406,1.1322-1.1054c0.1428-0.1455,0.1552-0.1679,0.1252-0.3317c-0.0275-0.1501-0.0588-0.3243-0.084-0.4946
			c-0.0042-0.0109-0.0042-0.0109-0.0086-0.0223c-0.0991-0.2575-0.0094-0.4075-0.0613-0.6831s-0.1075-0.5621-0.1631-0.8493
			c-0.0042-0.0109-0.0127-0.0333-0.0402-0.0359c0.0184,0.0829,0.02,0.1591,0.0384,0.242c-0.0852-0.1854-0.0838-0.4301-0.1007-0.6546
			c-0.0116,0.0044-0.0242,0.0092-0.0285-0.0022c-0.0186,0.0588-0.0488,0.1216-0.0433,0.1707
			c-0.0016,0.2447-0.1501,0.3529-0.2134,0.6087c-0.035,0.1549-0.0384,0.285,0.0516,0.3784
			c0.0159,0.0069,0.0289,0.0406,0.0303,0.0783c-0.0137,0.0697-0.0388,0.1438-0.0638,0.218
			c-0.0571,0.3051-0.2715,0.479-0.4807,0.6651c-0.0912,0.0744-0.1874,0.1384-0.2825,0.2026
			c-0.4938,0.3515-0.9169,0.3702-1.2392,0.0487c-0.2759-0.2757-0.3691-0.0605-0.4746-0.492
			c-0.1658-0.6779-0.222-0.5619-0.2661-1.2783c-0.0282-0.4588-0.003-0.8816-0.4294-0.303
			c-0.1049,0.0825-0.1511,0.2054-0.2061,0.3066c-0.0172,0.059-0.0459,0.1228-0.079,0.1759
			c-0.0185,0.0205-0.0666,0.0406-0.0896,0.0502c-0.0161-0.006-0.023-0.0549-0.0208-0.0818
			c0.0694-0.1985,0.0404-0.3684,0.0752-0.5516c0.0775-0.3829,0.1369-0.7452,0.2751-1.1258c0.0404-0.1073,0.0693-0.243,0.1117-0.3436
			c0.0395-0.0937,0.0972-0.1783,0.1444-0.2657c0.0363-0.0671,0.0731-0.1328,0.087-0.2032c0.0329-0.0912,0.0879-0.1649,0.1637-0.2211
			c0.5309-0.355,1.0262-0.4191,1.45-0.2234c0.2669,0.1155,0.3517,0.3981,0.3743,0.717c0.0176,0.2474,0.0604,0.5079,0.0844,0.7517
			c0.0132,0.135,0.0353,0.2697,0.0356,0.411c-0.0218,0.4717,0.0643,0.0262,0.0837,0.4951c0.1634,2.7299,1.2105-2.3985,1.2677-3.1095
			c-0.0011-0.1531,0.0198-0.3033,0.0424-0.4499c0.0338-0.2189,0.0684-0.4596,0.0972-0.6866
			c0.0163-0.1082,0.0417-0.2252,0.0454-0.3353c0.0021-0.0632,0.0479-0.1122,0.1031-0.1394c0.2413-0.119,0.0262-0.0993,0.2769-0.0863
			c0.2294,0.0119,0.0799,0.0673,0.2616,0.1488c0.2374,0.1066-0.0338,0.65,0.007,0.9525c0.0423,0.3135,0.0755,0.5401,0.1377,0.8424
			c0.048,0.2335,0.154,0.5056,0.1913,0.7599C20.8217,53.5429,20.8492,53.5455,20.8738,53.5366z M18.9697,60.59
			c0.13-0.1309,0.2435-0.2789,0.3559-0.4271c0.5699-0.5495,0.7085-2.1519-0.2036-0.8097c-0.2932,0.2971-0.5919,0.5726-0.9329,0.777
			c-0.0594,0.0502-0.124,0.0937-0.1817,0.1394c-0.1141,0.0904-0.147,0.1974-0.0611,0.2712
			c0.0898,0.0772,0.1912,0.1419,0.2884,0.2187c0.0412,0.0348,0.0795,0.0511,0.1514,0.0155c0.0513-0.0254,0.1158-0.0084,0.204-0.0184
			c-0.0591,0.0499-0.0774,0.0706-0.1061,0.095C18.674,60.8646,18.8018,60.7591,18.9697,60.59z M19.8865,58.6671
			c0.0018,0.0381,0.0027,0.0765-0.0026,0.1298c0.0174-0.0581,0.0156-0.0961,0.026-0.1389
			C19.8977,58.6628,19.8977,58.6628,19.8865,58.6671z M19.9425,57.9516c-0.0364-0.3715-0.032-0.7453-0.1746-1.0504
			C19.8213,57.2529,19.8416,57.618,19.9425,57.9516z M19.7438,56.7693c-0.0402-0.177-0.0856-0.32-0.1072-0.4597
			c-0.0385-0.2479-0.0515-0.5104-0.0711-0.7554c-0.0193-0.2423-0.0509-0.4939-0.0751-0.741
			c-0.0318,0.0245-0.0402,0.0407-0.0317,0.0631c0.0329,0.4108,0.0544,0.8257,0.1011,1.2316c0.014,0.0715-0.004,0.1682,0.0724,0.1903
			C19.6139,56.498,19.6471,56.6907,19.7438,56.7693z"/>
		<linearGradient id="SVGID_7_" gradientUnits="userSpaceOnUse" x1="24.4536" y1="58.8875" x2="24.4536" y2="45.4099">
			<stop  offset="0" style="stop-color:#FFF200"/>
			<stop  offset="1" style="stop-color:#FB7E40"/>
		</linearGradient>
		<path class="st9" d="M22.7773,54.5184c-0.2019-0.1586-0.3463-0.3954-0.4759-0.6345c-0.0966-0.1782-0.1058-0.3825-0.0603-0.6014
			c0.0049-0.027,0.0208-0.0578,0.0652-0.0856c0.0701-0.1131,0.1743-0.2234,0.286-0.3524c0.0859-0.0993,0.2421-0.1576,0.3694-0.189
			c0.0911-0.0225,0.4422,0.1045,0.5171,0.1302c0.0903,0.031,0.187,0.0767,0.2869,0.0939c0.1389,0.0553,0.2457,0.1337,0.3555,0.2616
			c0.0656,0.0797,0.13,0.1514,0.1907,0.2154c0.0709,0.0747,0.127,0.2028,0.1809,0.3066c0.0476,0.0917,0.0714,0.1785,0.1256,0.2615
			c0.0155,0.0078,0.0155,0.0078,0.0229,0.0305c-0.0958-0.1706,0.0337,0.0808,0.0373,0.1142
			c0.0138,0.1259,0.1227,0.2693,0.115,0.3914c-0.0046,0.0724,0.0834,0.1366,0.1796,0.1052c0.5732-0.2246,0.8263-0.217,1.3728-0.4875
			c0.0534-0.0417,0.1023-0.0947,0.1639-0.1516c0.02-0.0185,0.0491-0.0525,0.0699-0.0717c0.0341,0.0273,0.0365,0.0766,0.0318,0.1031
			c-0.0184,0.0686,0.1088,0.0543,0.075,0.1148c-0.2471,0.4778-1.3463,0.8144-1.7743,0.9546
			c-0.0116,0.0038-0.0232,0.0076-0.0358,0.0117c-0.0349,0.0114-0.067,0.0343-0.0594,0.0575
			c0.0074,0.0227-0.0015,0.038-0.0056,0.0645c0.028,0.2057-0.0174,0.4237-0.0368,0.6435c-0.0137,0.156-0.0628,0.2863-0.111,0.4161
			c-0.0241,0.0842-0.0443,0.1795-0.0998,0.2486c-0.0191,0.0193-0.0353,0.05-0.0621,0.0842
			c-0.0201,0.0191-0.0478,0.0537-0.0477,0.0918c-0.0591,0.1338-0.1378,0.249-0.2546,0.3269
			c-0.0238,0.0081-0.0741,0.0505-0.1015,0.0852c-0.148,0.1011-0.319,0.1436-0.4738,0.1759
			c-0.2141,0.0446-0.4094-0.0483-0.5939-0.1992c-0.0661-0.0787-0.158-0.1829-0.2124-0.269
			c-0.1036-0.1637-0.179-0.3946-0.2308-0.6181c-0.0527-0.2227-0.0434-0.4592-0.0185-0.6922
			c0.0293-0.2752,0.0996-0.5563,0.2079-0.8221c0.0321-0.0235,0.0243-0.0461,0.0242-0.0843
			C22.7968,54.537,22.7929,54.5259,22.7773,54.5184z M24.0515,53.5811c-0.0739-0.1038-0.1269-0.2257-0.2053-0.3363
			c-0.072-0.1015-0.1527-0.1767-0.2604-0.2169c-0.0635-0.0293-0.1304-0.0665-0.2034-0.0834
			c-0.0833-0.0193-0.1676-0.0576-0.268-0.0747c-0.1835-0.0644-0.3692,0.2645-0.4266,0.373
			c-0.1792,0.5434,0.3387,1.0247,0.7417,1.2298c0.5663,0.5296,1.1216,0.0928,0.7242-0.6223
			C24.1481,53.7513,24.0982,53.6467,24.0515,53.5811z M23.7371,56.1541c0.0079,0.0608,0.0313,0.1291,0.0508,0.186
			c-0.0162,0.0308,0.0115,0.0337,0.0308,0.0524c0.0433,0.0487,0.1096,0.0895,0.1756,0.0923c0.0114-0.0039,0.0114-0.0039,0.02-0.0197
			c0.0077-0.015,0.0276-0.0347,0.0354-0.0497c0.1304-0.2723,0.1835-0.5812,0.2144-0.8825c0.0282-0.1109,0.0182-0.2213,0.0273-0.3129
			c-0.3115-0.0221-0.4166,0.1288-0.4966,0.3697C23.7223,55.8078,23.7382,55.9256,23.7371,56.1541z"/>
		<linearGradient id="SVGID_8_" gradientUnits="userSpaceOnUse" x1="28.8923" y1="58.8875" x2="28.8923" y2="45.4099">
			<stop  offset="0" style="stop-color:#FFF200"/>
			<stop  offset="1" style="stop-color:#FB7E40"/>
		</linearGradient>
		<path class="st10" d="M27.9641,54.5754c-0.1576,0.1638-0.4372,0.2317-0.5584,0.3063c-0.1066,0.0324-0.3982,0.059-0.4947,0.0387
			c-0.3515-0.08-0.3883-0.1561-0.5656-0.5151c-0.0647-0.0806-0.0905-0.3087-0.0907-0.4996
			c-0.0003-0.2619,0.3385-1.435,0.3747-1.7088c0.0231-0.1453,0.0455-0.2899,0.1016-0.4572
			c0.0126-0.0915,0.0678-0.1395,0.1183-0.1855c0.0669-0.0609,0.1614-0.086,0.2052-0.1617c0.1577-0.1468,0.0014-0.1946,0.1175-0.2351
			c0.1156-0.0403,0.223-0.0159,0.3087,0.0464c0.0525-0.0027,0.0694,0.0549,0.1319,0.0865c0.0437,0.0121,0.0441,0.0619,0.0577,0.1083
			c0.0111,0.3091-0.0992,0.9289-0.0895,1.2265c-0.0374,0.0987,0.0292,0.4325,0.0304,0.5039
			c0.0019,0.1137,0.0167,0.2324-0.0088,0.3654c0.0028,0.099,0.006,0.2855,0.0681,0.3175c0.0618,0.0318,0.1477,0.2311,0.2122,0.1869
			c0.2437-0.2349,0.6253-0.3585,0.7289-0.5887c0.0596-0.1545,0.1333-0.1257,0.2006-0.2569
			c0.0525-0.1022,0.0653-0.1812,0.0853-0.2494c0.0303-0.1706,0.0552-0.1279,0.0805-0.2722c0.0296-0.1703,0.1004-0.34,0.162-0.4943
			c0.0075-0.1142,0.0293-0.2461,0.0846-0.3102c0.06-0.0696,0.1113-0.0476,0.155-0.0559c0.1611-0.0307,0.0249-0.007,0.1505,0.0206
			c0.0377,0.0392,0.0257,0.0927,0.0688,0.1056c-0.0248,0.2434,0.0273,0.4778-0.0107,0.762
			c-0.014,0.0911-0.0129,0.0036-0.0559,0.1276c0.0313,0.0663,0.0094,0.1854-0.0105,0.2894c-0.022,0.1149,0.0282,0.241-0.0183,0.354
			c0.0141,0.4195,0.0253,0.6407,0.0383,0.6867c0.0064,0.1606,0.4854,0.1522,0.8372-0.0958
			c0.2408-0.1697,0.6151-0.7759,0.7508-1.1962c0.0479-0.1617,0.099-0.3275,0.1694-0.5409c0.0742-0.2251,0.256,0.0837,0.2279,0.1762
			c-0.0204,0.0671-0.0341,0.1204-0.0369,0.158c-0.0786,0.0952-0.0905,0.4951-0.1567,0.5868
			c-0.0175,0.0294,0.0035,0.0612-0.0512,0.1004c-0.1039,0.2386-0.3304,0.6463-0.5186,0.8967
			c-0.1018,0.0524-0.1336,0.0907-0.1994,0.1662c-0.0649,0.0746-0.0822,0.1302-0.1735,0.2092
			c-0.0675,0.0584-0.0824,0.0724-0.1086,0.1172c-0.1014,0.0033-0.1152,0.0441-0.1445,0.0777
			c-0.1914,0.1902-1.1421,0.5092-1.3237,0.14c-0.1653-0.3361-0.281-0.5177-0.2867-0.9408
			c-0.0101-0.0347-0.0101-0.0347-0.0135-0.0464C28.3927,54.1359,28.1289,54.404,27.9641,54.5754z"/>
		<linearGradient id="SVGID_9_" gradientUnits="userSpaceOnUse" x1="32.269" y1="58.8875" x2="32.269" y2="45.4099">
			<stop  offset="0" style="stop-color:#FFF200"/>
			<stop  offset="1" style="stop-color:#FB7E40"/>
		</linearGradient>
		<path class="st11" d="M31.9474,48.3452c0.0343-0.0695,0.1212-0.1043,0.1773-0.0935c0.1092,0.0104,0.1937,0.0269,0.2933,0.052
			c0.0559,0.011,0.127,0.031,0.2018,0.0621c0.2017,0.0623,0.3036,0.3217,0.2691,0.5645c-0.021,0.0789-0.0461,0.1733-0.0626,0.2371
			c-0.0096,0.0367-0.0452,0.0848-0.0396,0.108c-0.0198,0.1404-0.0671,0.2668-0.1179,0.3869
			c-0.0637,0.1505-0.1548,0.2846-0.274,0.388c-0.0754,0.0679-0.1506,0.1364-0.2466,0.1724c0,0-0.0121,0.003-0.0252,0.0063
			c-0.0465,0.0242-0.1172,0.054-0.1691,0.0056c-0.0239-0.0438,0.023-0.1176,0.0488-0.1733c0.052-0.161,0.1256-0.3404,0.1886-0.5165
			c0.0308-0.0323,0.0302-0.0851,0.036-0.1201c0.0041-0.0247-0.0051-0.0732-0.0079-0.0845c-0.0209-0.0321-0.065,0.0035-0.0875,0.0216
			c-0.0094,0.0144-0.0216,0.0174-0.0348,0.0207c-0.0613-0.0341-0.1257-0.0799-0.1871-0.1139
			c-0.021-0.032-0.0615-0.034-0.0927-0.0508c-0.1562-0.0968-0.2266-0.2156-0.1323-0.4244c0.0385-0.059,0.0607-0.1333,0.1003-0.1856
			c0.0355-0.0468,0.0678-0.1034,0.0247-0.1672C31.8888,48.4336,31.9197,48.4014,31.9474,48.3452z"/>
		<linearGradient id="SVGID_10_" gradientUnits="userSpaceOnUse" x1="36.1564" y1="58.8875" x2="36.1564" y2="45.4099">
			<stop  offset="0" style="stop-color:#FFF200"/>
			<stop  offset="1" style="stop-color:#FB7E40"/>
		</linearGradient>
		<path class="st12" d="M35.8429,51.6226c0.0072-0.184,0.2571-1.1192,0.3167-1.2714c0.0466-0.1192,0.0965-0.2589,0.1407-0.3736
			c0.04-0.1039,0.1047-0.2344,0.1374-0.3355c0.0294-0.0912,0.1006-0.1626,0.1693-0.1827c0.0789-0.0231,0.16-0.0458,0.2342-0.0611
			c0.1503-0.0311,0.2596,0.0573,0.3647,0.1948c0.0023,0.0115,0.0048,0.0234,0.0096,0.0469c0.0564,0.1475,0.1265,0.3063,0.185,0.4641
			c0.0546,0.1472,0.0775,0.3146,0.1086,0.4677c0.0215,0.1058,0.055,0.2091,0.0644,0.3173c0.0683,0.023,0.0658,0.0724,0.0754,0.058
			c0.0203-0.0285,0.1136-0.0105,0.133-0.0388c0.0073-0.0259,0.03-0.0429,0.0373-0.0687c0.042-0.0453,0.0927-0.0934,0.1227-0.159
			c0.0271-0.0593,0.0616-0.0735,0.1225-0.0243c0.0069,0.035,0.0019,0.0728-0.0306,0.1036c-0.0096,0.0144-0.0199,0.042-0.0254,0.0663
			c-0.0076,0.0339-0.0221,0.0776-0.0568,0.0969c-0.0096,0.0144-0.0204,0.0285-0.03,0.0428
			c-0.0097,0.0139-0.0323,0.0309-0.0301,0.0424c-0.0096,0.0144-0.0216,0.0168-0.0323,0.0309
			c-0.0396,0.0572-0.0742,0.0762-0.1232,0.0861c-0.012,0.0024-0.0586,0.0263-0.1005,0.0692
			c-0.0307,0.0314-0.0691,0.039-0.099,0.0201c-0.0955-0.0294-0.1901-0.0313-0.2772-0.0409
			c-0.1416-0.0156-0.2946-0.112-0.3877-0.2626c-0.1184-0.1916-0.1753-0.4387-0.1773-0.6613
			c-0.0009-0.1069-0.0187-0.2065-0.0241-0.3013c-0.004-0.0712-0.0145-0.1586-0.0067-0.2191
			c0.0058-0.0452,0.0082-0.0875-0.0148-0.1316c-0.0122,0.0025-0.04-0.0041-0.0351,0.0193c-0.0097,0.0145-0.0291,0.043-0.0374,0.0692
			c-0.0299,0.1046-0.072,0.2112-0.1123,0.33c-0.024,0.0664-0.0343,0.142-0.029,0.2267c0.0221,0.0447-0.0078,0.0875-0.0124,0.1254
			c-0.0695,0.2234-0.1241,0.4367-0.154,0.6705c-0.0223,0.1747-0.0814,0.3367-0.1195,0.5168c-0.0562,0.27-0.1417,0.5216-0.17,0.7983
			c-0.0067,0.0875-0.0371,0.1936-0.0503,0.2936c-0.0097,0.0734-0.1851,0.7045-0.2444,0.7794
			c0.0052,0.0233-0.0284,0.0429-0.0466,0.072c-0.1002,0.2313-0.2706,0.258-0.4729,0.255c-0.0191,0.0289-0.0479,0.011-0.0777-0.0066
			c-0.2023-0.0024-0.3434-0.156-0.4427-0.3773c-0.0838-0.1868-0.1371-0.4031-0.1786-0.5986
			c-0.0635-0.299-0.135-0.6267-0.1649-0.9223c-0.0337-0.3337-0.0414-0.3368-0.0365-0.6563
			c0.0068-0.4487-0.0534-0.3943,0.0146-0.8901c-0.0068-0.0846,0.0292-0.1541,0.0356-0.2417
			c0.0384-0.2308,0.0917-0.4494,0.1274-0.6448c0.0269-0.147,0.0728-0.1875,0.1902-0.2029c0.0808-0.0105,0.2075-0.019,0.3229-0.0234
			c0.0753-0.0029,0.1891-0.0037,0.2753,0.062c0.1173,0.0894,0.294,0.2087,0.4245,0.3244c0.1513,0.1342,0.1992,0.3059,0.1814,0.5377
			c-0.0184,0.239-0.0743,0.0771-0.0819,0.3366c-0.0536,0.5275-0.2577,0.9837-0.2976,1.4539
			C35.406,52.5021,35.8348,51.829,35.8429,51.6226z"/>
		<linearGradient id="SVGID_11_" gradientUnits="userSpaceOnUse" x1="40.5804" y1="58.8875" x2="40.5804" y2="45.4099">
			<stop  offset="0" style="stop-color:#FFF200"/>
			<stop  offset="1" style="stop-color:#FB7E40"/>
		</linearGradient>
		<path class="st13" d="M39.6186,50.4692c0.0043,0.0235-0.0155,0.0515-0.0384,0.0681c-0.0099,0.0137-0.0328,0.0304-0.0264,0.0654
			c-0.0033,0.0498-0.0164,0.0627-0.0481,0.0824c-0.0225,0.0139-0.0208,0.0282-0.0197,0.101
			c0.0241-0.0045,0.0371-0.0069,0.0514,0.0029c0,0,0,0,0.0021,0.0115c-0.0251,0.0046-0.0491,0.0091-0.0863,0.016
			c0.0055-0.0373-0.0011-0.0728-0.0055-0.0963c-0.012,0.0022-0.0241,0.0045-0.0241,0.0045
			c0.0033,0.0848,0.0057,0.1698,0.0091,0.2546c0.0272,0.0069,0.0414,0.0166,0.0535,0.0144
			c0.0274,0.0803,0.0405,0.1509,0.0558,0.2335c0.0154,0.0826,0.0521,0.1608,0.0883,0.2031
			c0.0341,0.0397,0.1922,0.2818,0.2367,0.3222c0.2015,0.1337,0.4588,0.2952,0.6448,0.2856c0.0586-0.003,0.4055-0.1208,0.4651-0.143
			c0.2776-0.1336,0.533-0.3366,0.7691-0.5812c0.1819-0.1884,0.3502-0.3983,0.5334-0.5979c0.0102-0.0135,0.0213-0.0277,0.0315-0.0412
			c0.061-0.0948,0.123-0.1779,0.1844-0.2727c0.1153-0.1517,0.219-0.3014,0.3063-0.4726c0.0282-0.0652,0.0565-0.1303,0.1277-0.1655
			c-0.0089,0.1105-0.0185,0.2093-0.0534,0.3116c-0.0076,0.0377-0.0264,0.0767-0.0479,0.1047
			c-0.0618,0.0941-0.1121,0.1751-0.1466,0.2774c-0.0298,0.0536-0.0716,0.1086-0.1013,0.1618
			c-0.0101,0.014-0.0185,0.0395-0.038,0.0787c0.0353-0.0175,0.0575-0.0333,0.0929-0.0508
			c-0.0009,0.0728-0.0602,0.0945-0.0639,0.1559c0.0149,0.0095,0.0168,0.0216,0.0427,0.0293
			c-0.0277,0.0652-0.0587,0.1108-0.1007,0.1618c-0.058,0.0705-0.1263,0.1537-0.1758,0.2348
			c-0.0919,0.136-0.1992,0.2509-0.3062,0.3654c-0.053,0.0572-0.0995,0.1126-0.1497,0.1583
			c-0.0427,0.0389-0.088,0.0831-0.1303,0.1192c-0.0573,0.049-0.1342,0.0953-0.1996,0.1549c-0.11,0.0919-0.2336,0.174-0.3632,0.2206
			c-0.0346,0.0179-0.0692,0.0363-0.1037,0.0546c-0.1373,0.0724-0.2841,0.1184-0.4227,0.1591
			c-0.1622,0.0476-0.9046,0.0549-1.0737,0.026c-0.4559-0.0854-0.5797-0.2687-0.8062-0.3959
			c-0.0848-0.0447-0.1637-0.1268-0.219-0.214c-0.0905-0.141-0.1432-0.3077-0.1826-0.4772c-0.0813-0.3502-0.0433-0.7375,0.054-1.0981
			c0.0235-0.0782,0.0235-0.0782-0.0102-0.1816c-0.0547,0.0474-0.0874,0.0782-0.0979,0.1534
			c-0.0165,0.1137-0.0475,0.2172-0.089,0.3354c-0.0208-0.1059,0.0146-0.186,0.0358-0.2757c0.0573-0.2311,0.1349-0.455,0.231-0.6681
			c0.1-0.2221,0.2202-0.4329,0.3581-0.6299c0.143-0.2042,0.3025-0.3984,0.4816-0.5528c0.0459-0.0327,0.0823-0.0577,0.1152-0.0821
			c0.0492-0.0365,0.1202-0.0471,0.1682-0.0062c0.035,0.0298,0.0937,0.0124,0.1212,0.0268c0.036,0.0188,0.0629,0.0621,0.0927,0.0811
			c0.1365,0.0366,0.634,0.0707,0.7598,0.1223c0.0419,0.0171,0.0745,0.06,0.1082,0.1028c0.0806,0.0956,0.1508,0.2055,0.2505,0.2614
			c0.0295,0.0193,0.0498,0.0648,0.068,0.0979c0.0495,0.1377,0.076,0.2728,0.0722,0.4261c-0.004,0.1618-0.0452,0.336-0.1078,0.4929
			c-0.0353,0.0913-0.078,0.1743-0.0936,0.2712c-0.0132,0.0824-0.0515,0.1685-0.0829,0.2581
			c-0.0348,0.0991-0.1201,0.1739-0.1911,0.2158c-0.0646,0.0381-0.1574,0.0809-0.2275,0.0769
			c-0.0364-0.0021-0.0742,0.0132-0.1067-0.0296c-0.0021-0.012-0.0152-0.0097-0.0152-0.0097
			c-0.0962,0.0296-0.1765-0.0661-0.2572-0.0877c-0.0142-0.0098-0.0336-0.0425-0.0358-0.0546
			c0.0166-0.0516-0.0128-0.0706-0.0313-0.104c-0.0664-0.0857-0.135-0.1829-0.2137-0.2658
			c-0.0196-0.0332-0.0771-0.0306-0.0889,0.0039C39.6343,50.3219,39.6055,50.3981,39.6186,50.4692z M38.6519,51.7505
			c0.0199,0.0329,0.0441,0.0573,0.0552,0.0873c0.0105,0.0284,0.0482,0.0518,0.0335,0.1034
			c-0.0152-0.0095-0.0272-0.0072-0.0294-0.0187c-0.0835-0.1061-0.1383-0.2541-0.1931-0.4021
			c-0.0143-0.0096-0.0047-0.024-0.0069-0.0355c-0.0346-0.1768-0.0668-0.3412-0.0512-0.5278
			c0.0051-0.0378,0.0103-0.0751,0.0034-0.1106c-0.0046-0.0235-0.0069-0.0355-0.0161-0.0824
			c-0.0233,0.0782-0.0399,0.1314-0.042,0.1793c-0.0025,0.0591-0.0033,0.1106-0.0038,0.1719
			c0.0109,0.3153,0.0788,0.5955,0.2611,0.8166c0.033,0.0423,0.0766,0.0706,0.1225,0.1105c0.0294,0.0187,0.0555,0.026,0.0944,0.0304
			c0.0023,0.012,0.0119-0.0023,0.0367-0.0071c-0.0481-0.0519-0.0932-0.0961-0.1292-0.1461
			c-0.045-0.0625-0.0641-0.1338-0.1124-0.1856C38.6626,51.7365,38.6519,51.7505,38.6519,51.7505z M38.5051,50.9971
			c-0.0244,0.2002,0.0223,0.3747,0.0816,0.5462c0.0023,0.012,0.0143,0.0097,0.0285,0.0188
			c-0.0123-0.1319-0.0266-0.2547-0.0341-0.3719c-0.0052-0.0825-0.007-0.1698-0.0578-0.233
			C38.5136,50.9711,38.5029,50.9856,38.5051,50.9971z M39.4341,51.1251c0.0022,0.012,0.0022,0.012,0.0045,0.024
			C39.4363,51.1371,39.4363,51.1371,39.4341,51.1251z M39.8869,49.7616c-0.0189,0.0401-0.0478,0.094-0.0635,0.146
			c-0.0346,0.0911-0.0117,0.148,0.0563,0.1724c0.0416,0.0168,0.0953,0.0314,0.127,0.0624c0.0896,0.0692,0.1956,0.0439,0.283,0.0104
			c0.0789-0.0303,0.1306-0.1327,0.1656-0.2241c0.0516-0.2163,0.0951-0.2601,0.1343-0.4741
			c0.1219-0.4836-0.2594-0.3078-0.4213-0.1332C40.0479,49.4405,39.9749,49.6118,39.8869,49.7616z"/>
		<linearGradient id="SVGID_12_" gradientUnits="userSpaceOnUse" x1="48.1032" y1="58.8875" x2="48.1032" y2="45.4099">
			<stop  offset="0" style="stop-color:#FFF200"/>
			<stop  offset="1" style="stop-color:#FB7E40"/>
		</linearGradient>
		<path class="st14" d="M50.4297,49.0426c-0.0049,0.0847-0.1049,0.3827-0.1626,0.4359c-0.0365,0.0155-0.0455,0.0521-0.0698,0.0665
			c-0.0444,0.0643-0.0776,0.1153-0.123,0.1675c-0.0222,0.026-0.0575,0.0533-0.0674,0.0905
			c-0.0299,0.0753-0.0762,0.1153-0.1355,0.1571c-0.0232,0.0144-0.0473,0.0284-0.0573,0.0534
			c-0.067,0.0906-0.1589,0.178-0.2269,0.2505c-0.0628,0.0668-0.1407,0.1132-0.2233,0.1422
			c-0.1049,0.037-0.2116,0.0434-0.3032,0.0899c-0.082,0.0416-0.1815,0.0546-0.2786,0.0887
			c-0.0372,0.0038-0.0734,0.0076-0.1106,0.0114c-0.1537-0.0321-0.3041-0.0402-0.4382-0.1225
			c-0.0133-0.0103-0.0398-0.0198-0.0652-0.0288c-0.1169-0.036-0.2343-0.0835-0.3195-0.1703
			c-0.0935,0.0585-0.1748,0.1158-0.2425,0.1839c-0.0466,0.0294-0.0811,0.0579-0.1263,0.0989
			c-0.0121,0.0014-0.0237,0.015-0.0237,0.015c-0.0625,0.1035-0.1615,0.1324-0.2547,0.1745
			c-0.158,0.0713-0.3395,0.0884-0.5092,0.0244c-0.0666-0.0283-0.1308-0.0445-0.1949-0.0607
			c-0.3761-0.0987-0.6027-0.3415-0.6918-0.6988c-0.0461-0.1849-0.0371-0.374,0.0306-0.5479
			c0.0639-0.1641,0.1354-0.3318,0.2444-0.4783c-0.0015-0.0116,0.0092-0.0253,0.0211-0.0386
			c0.1324-0.2586,0.3063-0.5092,0.4694-0.7467c0.1215-0.1592,0.2586-0.2964,0.4368-0.4257c0.0233-0.015,0.0725-0.0325,0.1106-0.0368
			c0.0749-0.0209,0.1499-0.0412,0.2375-0.0511c0.0134-0.0015,0.0258-0.0029,0.0381-0.0043
			c0.0803,0.0268,0.1813,0.0156,0.2727,0.0301c0.0271,0.0088,0.0531,0.0182,0.0789,0.0154
			c0.0641,0.0048,0.1147-0.0007,0.1456,0.0446c0.0136,0.0103,0.027,0.0089,0.027,0.0089c0.0629-0.0068,0.1198,0.0475,0.1836,0.0407
			c0.0247-0.0026,0.0518,0.0068,0.0654,0.0171c0.0838,0.0633,0.1785,0.1138,0.2376,0.1921c0.0161,0.0347,0.0309,0.0572,0.048,0.0917
			c0.0358,0.1048,0.0166,0.1864-0.0891,0.2503c-0.1015,0.0614-0.2016,0.142-0.2942,0.2242c0,0,0,0,0.0013,0.0121
			c-0.1241,0.1459-0.2744,0.2827-0.3693,0.4505c-0.0434,0.0648-0.0889,0.1185-0.1334,0.1716
			c-0.0985,0.1319-0.171,0.2729-0.2552,0.4153c-0.0307,0.064-0.0734,0.1294-0.1053,0.1813
			c-0.0226,0.0267-0.0319,0.0519-0.0413,0.0771c-0.0596,0.1397-0.0935,0.2769-0.1033,0.4108
			c-0.0107,0.0131,0.0028,0.0238,0.0056,0.0475c0.0237-0.0151,0.0345-0.0282,0.0451-0.0417c0.11-0.1334,0.2325-0.2685,0.3699-0.3928
			c0.067-0.0681,0.1231-0.1348,0.1634-0.2238c0.0203-0.0382,0.0538-0.0783,0.0874-0.1183c0.0658-0.0918,0.1314-0.1841,0.1833-0.2855
			c0.0717-0.1402,0.1465-0.2812,0.219-0.4338c0.111-0.0242,0.2002-0.0213,0.2844,0.0544c0.028,0.0211,0.055,0.0424,0.0829,0.0635
			c0.0988,0.0982,0.1233,0.2165,0.1478,0.3347c0.0024,0.0238-0.0085,0.0367-0.0183,0.0618
			c-0.0387,0.1125-0.0973,0.2419-0.1398,0.3523c-0.0314,0.0816-0.035,0.1777-0.0112,0.2545
			c0.0278,0.0893,0.0829,0.196,0.1422,0.2866c0.0289,0.0333,0.0726,0.0561,0.1181,0.0482c0.0807-0.014,0.1745-0.0406,0.2541-0.0863
			c0.0702-0.0403,0.1549-0.0923,0.2233-0.143c0.0769-0.057,0.1819-0.1112,0.2578-0.1816c0.0569-0.0528,0.1273-0.1206,0.1835-0.1862
			c0.1475-0.1704,0.3604-0.5876,0.5097-0.7573c0.0111-0.0133,0.0234-0.0143,0.0356-0.0272
			C50.2958,48.946,50.3623,48.9887,50.4297,49.0426z"/>
		<linearGradient id="SVGID_13_" gradientUnits="userSpaceOnUse" x1="54.832" y1="58.8875" x2="54.832" y2="45.4099">
			<stop  offset="0" style="stop-color:#FFF200"/>
			<stop  offset="1" style="stop-color:#FB7E40"/>
		</linearGradient>
		<path class="st15" d="M53.8647,52.7598c-0.0484,0.0029-0.0485,0.0028-0.1526,0.081c0,0-0.0014-0.0239-0.0021-0.0356
			c-0.0254-0.0107-0.0254-0.0107-0.0387-0.0339c-0.0232,0.0254-0.0597,0.0276-0.0693,0.0644
			c-0.0573,0.0515-0.1176,0.0674-0.188,0.0959c-0.0239,0.0133-0.0239,0.0132-0.0855-0.0068
			c0.0103-0.0246,0.0095-0.0363,0.0198-0.0614c-0.0365,0.0023-0.0586,0.0282-0.0951,0.0306
			c-0.0103,0.0246-0.0341,0.0379-0.0578,0.0395c-0.0936,0.0663-0.1434,0.0456-0.1981-0.0471
			c-0.0294-0.07-0.0461-0.1408-0.0977-0.1858c-0.0795-0.0905-0.0996-0.2095-0.1324-0.3394
			c-0.0032-0.0477,0.0029-0.1323,0.0226-0.1939c0.0261-0.1579,0.0907-0.2945,0.1787-0.4447c0.178-0.2883,0.3707-0.5409,0.593-0.7589
			c0.442-0.4476,0.3304-0.5755,0.1932-0.9125c-0.1006-0.2469-0.2268-0.4674-0.3652-0.6751c-0.0151-0.047-0.055-0.0807-0.0702-0.1278
			c-0.1227-0.1485-0.4738-1.0985-0.4312-1.2222c0.007-0.0202,0.0092-0.049,0.0319-0.0985c-0.018-0.0708,0.0031-0.1445,0.049-0.2194
			c0.0101-0.0368,0.0438-0.1109,0.0016-0.1684c0.0344-0.0624,0.0491-0.1497,0.076-0.2089c0.0248-0.0547,0.0391-0.1125,0.0661-0.1725
			c0.0157-0.035,0.0339-0.0745,0.0701-0.1125c0.0339-0.0745,0.067-0.1485,0.101-0.2229c0.0452-0.0986,0.1179-0.1749,0.164-0.2618
			c0.011-0.0246,0.0246-0.0254,0.049-0.0391c0.0372-0.0262,0.0471-0.0456,0.0723-0.0884c0.0284-0.0483,0.0595-0.0754,0.087-0.053
			c0.0919,0.0304,0.1576,0.0629,0.2388,0.1308c0,0,0.0125-0.0007,0.0267,0.0103c0.1174,0.0414,0.3527,0.4791,0.3666,0.6286
			c0.0032,0.0345,0.0209,0.0762,0.03,0.0948c0.0192,0.0392,0.0042,0.1458-0.0136,0.2168c-0.0234,0.0932-0.0393,0.2182-0.0847,0.3169
			c-0.0233,0.0492-0.0445,0.0816-0.0836,0.1003c-0.0339,0.0163-0.0723,0.0763-0.0955,0.1255
			c-0.0103,0.0368-0.0588,0.0751-0.0431,0.1344c0,0,0.0013,0.0239-0.0104,0.0368c-0.0347,0.0621-0.0687,0.1359-0.0899,0.1972
			c-0.0436,0.1223-0.0321,0.3402,0.011,0.4317c0.0273,0.0579,0.0946,0.115,0.1344,0.1485c0.1707,0.1226,0.3324,0.5707,0.4763,0.6953
			c0.0654,0.0445,0.0721,0.1762,0.1241,0.222c0.1248,0.2577,0.5833-0.0568,0.8278-0.1831c0.1667-0.0861,0.3627-0.2792,0.5447-0.4303
			c0.1339-0.1014,0.2676-0.2143,0.3896-0.3265c0.0854-0.0748,0.1579-0.168,0.2303-0.2477c0.0563-0.0619,0.1218-0.1358,0.1832-0.2101
			c0.0261,0.0476,0.0405,0.0828,0.054,0.1185c0.0268,0.071,0.0422,0.1428-0.0057,0.2161c-0.0122,0.0365-0.036,0.0612-0.0349,0.0973
			c-0.0229,0.0847-0.0575,0.1639-0.1062,0.231c-0.0532,0.0732-0.0941,0.185-0.1542,0.2454
			c-0.0499,0.0502-0.1097,0.0995-0.1578,0.149c-0.0849,0.0753-0.1696,0.1502-0.2542,0.2251
			c-0.0117,0.0126-0.0362,0.0375-0.0479,0.0502c-0.1342,0.0769-0.254,0.2018-0.3866,0.3031
			c-0.0359,0.0376-0.0839,0.0758-0.132,0.1135c-0.2408,0.1906-0.6392,0.2436-0.5959,0.5313
			c0.0327,0.2175,0.0582,0.1893-0.0021,0.4801c0.0138,0.0355-0.0091,0.0606,0.0046,0.0961
			c-0.0223,0.0372-0.0097,0.0484-0.0097,0.0484c-0.0455,0.0745-0.0151,0.2051-0.0355,0.2779
			c-0.0118,0.0245-0.0346,0.0496-0.0589,0.063c-0.0114,0.0123-0.0233,0.0129-0.0357,0.0257
			c-0.0452,0.0741-0.1024,0.1493-0.1348,0.2351c-0.054,0.1348-0.3654,0.4876-0.457,0.5885
			c-0.034,0.0498-0.0566,0.0873-0.0902,0.1253c-0.0453,0.0744-0.1519,0.1167-0.2227,0.157
			c-0.0112,0.0124-0.023,0.0131-0.0223,0.0253c-0.0681,0.0881-0.1506,0.1287-0.2227,0.1453
			c-0.0229,0.0131-0.0222,0.0253-0.0461,0.039C53.7303,52.9478,53.7983,52.8601,53.8647,52.7598z M53.329,51.7951
			c-0.0693,0.0245-0.1385,0.109-0.1714,0.1915c-0.0289,0.0727-0.0715,0.124-0.112,0.1634C53,52.1945,52.946,52.2578,52.934,52.3136
			c-0.0137,0.0634-0.005,0.1339-0.0228,0.1939c-0.0211,0.0715-0.0048,0.1207,0.0342,0.1543
			c0.0524,0.0567,0.1039,0.1012,0.1572,0.1579c0.037,0.0215,0.087,0.0235,0.1324-0.0209c0.0402-0.0394,0.0858-0.0771,0.1374-0.1292
			c0.0455-0.0459,0.0901-0.1138,0.1356-0.1646c0.1046-0.0906,0.184-0.1913,0.2488-0.3395c0.0224-0.0253,0.0322-0.0621,0.0436-0.0867
			c0.0549-0.0991,0.0909-0.2237,0.128-0.32c0.0404-0.105,0.0357-0.23,0.0778-0.3527c0.0129-0.0007,0.0116-0.0246,0.0109-0.0368
			c-0.0218-0.3832-0.4327,0.1936-0.5702,0.3465C53.4124,51.7541,53.3744,51.7791,53.329,51.7951z"/>
		<linearGradient id="SVGID_14_" gradientUnits="userSpaceOnUse" x1="58.4959" y1="58.8875" x2="58.4959" y2="45.4099">
			<stop  offset="0" style="stop-color:#FFF200"/>
			<stop  offset="1" style="stop-color:#FB7E40"/>
		</linearGradient>
		<path class="st16" d="M60.4019,48.5377c-0.0098,0.0593-0.0387,0.073-0.0247,0.1318c0.0114,0.0478-0.1257,0.3961-0.1511,0.444
			c-0.0753,0.192-0.1565,0.3991-0.236,0.5763c-0.0941,0.2097-0.2226,0.4087-0.3334,0.6135c-0.049,0.0843-0.6229,0.809-0.6844,0.8581
			c-0.1581,0.1099-0.4234,0.4255-0.5693,0.5243c-0.0967,0.0618-0.463,0.2039-0.5461,0.2147
			c-0.1538,0.02-0.3361,0.0235-0.4773,0.0001c-0.2429-0.0401-0.6492-0.3886-0.7805-0.6245
			c-0.0647-0.1058-0.1422-0.1988-0.1836-0.3176c-0.0547-0.1539-0.1075-0.4099-0.1196-0.5835
			c-0.068-0.9715,0.0811-1.1554,0.3528-2.1364c0.0219-0.0847,0.0397-0.1619,0.0551-0.2416c0.0148-0.0771,0.0485-0.1713,0.0687-0.242
			c0.0364-0.1271,0.0673-0.2664,0.102-0.3871c0.0562-0.266,0.3755-0.7312,0.0661-0.7821c-0.09-0.0091-0.1683-0.0025-0.2449-0.0526
			c-0.0718-0.047-0.1572-0.079-0.235-0.1242c-0.0269-0.023-0.0664-0.0456-0.081-0.1052c0.0257-0.0131,0.0504-0.0257,0.063-0.0261
			c0.1786-0.0422,0.3449-0.0831,0.5239-0.1245c0.1155-0.0273,0.2534-0.0356,0.3715-0.0581
			c0.0482-0.0092,0.1028-0.0392,0.1265-0.0994c0.0372-0.0949,0.0984-0.1822,0.1221-0.2907c0.1239-0.231,0.2089-0.4741,0.3475-0.6915
			c0.1238-0.1943,0.2522-0.365,0.4197-0.512c0.0249-0.0366,0.0636-0.0729,0.0898-0.0977c0.0515-0.0365,0.1081-0.0644,0.1694-0.0505
			c0.0744,0.0168,0.1562-0.014,0.2477-0.0152c0.0128-0.0002,0.0128-0.0002,0.0254-0.0125c0.1826-0.0384,0.2453,0.0442,0.3028,0.1645
			c0.0554,0.1159,0.0936,0.2389,0.0949,0.3829c0.0007,0.0718,0.0123,0.1344,0.0272,0.1917c0.012,0.0465,0.0147,0.1078,0.0015,0.168
			c-0.0121,0.0602-0.0215,0.1239-0.0362,0.1922c-0.0198,0.0924-0.0508,0.1924-0.0751,0.2883
			c0.0004,0.0361,0.0006,0.0601-0.0116,0.0963c0.038,0.0235,0.079,0.0251,0.1284,0.0227c0.1497-0.0072,0.3292-0.0329,0.4779-0.0395
			c0.2108-0.0094,0.452-0.0016,0.6717-0.0015c0.0768,0.0001,0.1545,0.0241,0.2449,0.0366c-0.0264,0.0361-0.0391,0.06-0.0517,0.0716
			c-0.0263,0.0239-0.0652,0.0482-0.0904,0.0599c-0.0903,0.036-0.1932,0.0838-0.2834,0.12c0.0001,0.0117-0.0136,0.0117-0.0136,0.0117
			c-0.1415,0.0123-0.3012,0.0665-0.4506,0.0614c-0.0865-0.003-0.1888,0.0084-0.269,0.0377c-0.0495,0.0181-0.1182,0.028-0.1672,0.037
			c-0.0963,0.0175-0.1996,0.0211-0.2959,0.039c-0.0487,0.0091-0.0759,0.0487-0.1014,0.0974
			c-0.0124,0.0119-0.0123,0.0241-0.0247,0.0359c-0.1497,0.4101-0.3481,0.7967-0.507,1.1949c-0.025,0.0483-0.049,0.097-0.0608,0.1329
			c-0.062,0.1212-0.1078,0.235-0.1462,0.3625c-0.032,0.1064-0.0997,0.2184-0.1575,0.3151
			c-0.0493,0.0825-0.0342,0.1926-0.0959,0.2779c-0.1321,0.3026-0.2747,1.2201-0.2378,1.6726
			c0.0156,0.1907,0.0711,0.37,0.1364,0.5488c0.0264,0.0595,0.0764,0.0941,0.1146,0.1416c0.0121-0.0003,0.0244,0.0112,0.0494,0.0107
			c0.1104-0.0023,0.3323,0.0058,0.4426-0.0684c0.0724-0.0491,0.4395-0.342,0.5134-0.403c0.1832-0.1824,0.5999-0.6345,0.7249-0.8703
			c0.1077-0.203,0.1726-0.4687,0.2854-0.6609c0.0497-0.1198,0.1751-0.3842,0.2376-0.5161
			C60.3259,48.5499,60.4071,48.5062,60.4019,48.5377z M58.4177,46.7795c0.1299-0.284-0.0605-0.5368-0.2607-0.2834
			c-0.1722,0.218-0.1785,0.6755-0.2853,1.0495c-0.2578,1.0014,0.1318,0.2491,0.3016-0.1981
			C58.258,47.1182,58.3203,46.9923,58.4177,46.7795z M58.7961,45.3941c0.0131-0.048,0.0276-0.1102,0.0368-0.1685
			c0.0145-0.0917,0.0374-0.193,0.0481-0.2882c0.0121-0.1072,0.0033-0.2246-0.0168-0.3235c-0.0093-0.0455-0.0528-0.0594-0.079-0.0351
			c-0.0515,0.0368-0.0905,0.0613-0.1151,0.1213c-0.0505,0.0969-0.1019,0.2056-0.1255,0.3139
			c-0.0121,0.0363-0.038,0.0724-0.0501,0.1087c-0.0256,0.0483-0.0582,0.101-0.0756,0.1575
			c-0.0325,0.1057-0.0574,0.2586-0.0841,0.3853c-0.0611,0.2901,0.3149,0.3187,0.3896,0.1018
			C58.7479,45.6468,58.7726,45.5263,58.7961,45.3941z"/>
		<linearGradient id="SVGID_15_" gradientUnits="userSpaceOnUse" x1="62.5381" y1="58.8875" x2="62.5381" y2="45.4099">
			<stop  offset="0" style="stop-color:#FFF200"/>
			<stop  offset="1" style="stop-color:#FB7E40"/>
		</linearGradient>
		<path class="st17" d="M64.9051,48.6984c-0.0156,0.0834-0.1528,0.3664-0.2171,0.4119c-0.0383,0.0108-0.0519,0.0459-0.0779,0.0572
			c-0.0523,0.0582-0.0919,0.1046-0.1436,0.1506c-0.0254,0.023-0.064,0.0456-0.0775,0.0813
			c-0.0403,0.0709-0.0915,0.1048-0.1559,0.1388c-0.0248,0.0114-0.0507,0.0222-0.0638,0.0457
			c-0.0782,0.0814-0.1808,0.1566-0.2577,0.2199c-0.0709,0.0584-0.1545,0.0945-0.2404,0.113
			c-0.1091,0.0235-0.2161,0.0164-0.3134,0.051c-0.0869,0.0309-0.1887,0.0313-0.2887,0.0529
			c-0.0375-0.0009-0.074-0.0017-0.1116-0.0026c-0.1491-0.0512-0.2978-0.0782-0.4209-0.1768
			c-0.012-0.0119-0.0372-0.0246-0.0613-0.0368c-0.1119-0.0504-0.2227-0.1123-0.2966-0.2092
			c-0.1005,0.0463-0.1887,0.0929-0.2647,0.1519c-0.0501,0.0233-0.0881,0.0472-0.1382,0.0822
			c-0.0122-0.0001-0.0256,0.0119-0.0256,0.0119c-0.0753,0.0948-0.1785,0.1112-0.2756,0.1411
			c-0.1659,0.051-0.3491,0.0449-0.5099-0.0399c-0.0627-0.0365-0.1246-0.0606-0.1874-0.0848
			c-0.3609-0.1453-0.5557-0.4147-0.5993-0.7803c-0.0226-0.1893,0.0103-0.3757,0.0996-0.5397
			c0.0843-0.1547,0.1766-0.3121,0.3036-0.4437c0-0.0117,0.0124-0.0239,0.0258-0.0356c0.1644-0.2399,0.3691-0.4667,0.5615-0.6817
			c0.141-0.1426,0.2948-0.2615,0.4885-0.3673c0.0251-0.0119,0.0763-0.0231,0.1148-0.0226c0.0772-0.0113,0.1544-0.022,0.244-0.0208
			c0.0125,0.0002,0.025,0.0004,0.0375,0.0005c0.0765,0.0367,0.1785,0.0383,0.2677,0.0642c0.0258,0.0121,0.0506,0.0248,0.0766,0.0252
			c0.0633,0.0128,0.1143,0.0137,0.1394,0.0626c0.0123,0.0119,0.0258,0.0122,0.0258,0.0122
			c0.0635,0.0012,0.1133,0.0622,0.1777,0.0635c0.0249,0.0005,0.0507,0.0132,0.0629,0.0252
			c0.0754,0.0734,0.1634,0.1354,0.2123,0.2205c0.0117,0.0364,0.0236,0.0606,0.0362,0.097c0.0224,0.1085-0.0069,0.1867-0.1204,0.2371
			c-0.1082,0.048-0.2187,0.1155-0.3213,0.1853c0,0,0,0-0.0002,0.0122c-0.142,0.1291-0.309,0.2459-0.4246,0.4004
			c-0.0514,0.0588-0.1035,0.1063-0.1545,0.1535c-0.1147,0.1185-0.2047,0.2492-0.3065,0.3798
			c-0.0386,0.0596-0.0894,0.1191-0.1277,0.1666c-0.0258,0.0237-0.0383,0.0475-0.0508,0.0713
			c-0.077,0.1311-0.1281,0.2629-0.1547,0.3945c-0.0123,0.0116-0.0002,0.0239-0.0004,0.0479
			c0.0256-0.012,0.0379-0.0236,0.0502-0.0357c0.1263-0.1185,0.2653-0.2371,0.4178-0.3431c0.0753-0.0591,0.1395-0.1183,0.1909-0.2015
			c0.0251-0.0353,0.0635-0.0709,0.1019-0.1064c0.0771-0.0828,0.1542-0.1661,0.2186-0.2601c0.0891-0.13,0.1814-0.2605,0.2728-0.4028
			c0.1136-0.01,0.202,0.0041,0.2764,0.0897c0.0252,0.0245,0.0494,0.049,0.0746,0.0735c0.0861,0.1099,0.0955,0.2303,0.105,0.3507
			c-0.0006,0.0239-0.0132,0.0353-0.0261,0.059c-0.0527,0.1067-0.1274,0.2277-0.1837,0.3319
			c-0.0416,0.077-0.0574,0.1719-0.0433,0.2511c0.0164,0.0921,0.0577,0.2049,0.1055,0.3022
			c0.0246,0.0367,0.0652,0.0648,0.1115,0.0626c0.0822-0.0038,0.1789-0.0183,0.2639-0.0536c0.075-0.0312,0.166-0.072,0.2404-0.1137
			c0.0838-0.0469,0.1953-0.0873,0.2798-0.1477c0.0632-0.0452,0.1411-0.1036,0.2064-0.1616c0.1684-0.1504,0.4332-0.5375,0.6035-0.687
			c0.0128-0.0117,0.0251-0.0113,0.0389-0.0225C64.784,48.5856,64.8448,48.6364,64.9051,48.6984z"/>
		<linearGradient id="SVGID_16_" gradientUnits="userSpaceOnUse" x1="66.4584" y1="58.8875" x2="66.4584" y2="45.4099">
			<stop  offset="0" style="stop-color:#FFF200"/>
			<stop  offset="1" style="stop-color:#FB7E40"/>
		</linearGradient>
		<path class="st18" d="M66.0764,49.0991c0.0556-0.1756,0.545-1.0121,0.643-1.1433c0.0767-0.1028,0.1621-0.2245,0.2353-0.3233
			c0.0663-0.0897,0.1636-0.1986,0.2219-0.2875c0.0526-0.0802,0.1406-0.1304,0.2126-0.1317c0.0826-0.0015,0.1674-0.002,0.2435,0.0027
			c0.1542,0.0096,0.2369,0.1236,0.3026,0.284c-0.0007,0.0117-0.0015,0.0239-0.0031,0.0478c0.0159,0.1571,0.0419,0.3289,0.057,0.4965
			c0.0141,0.1563-0.0079,0.3239-0.0181,0.4798c-0.0071,0.1077-0.0019,0.2162-0.0214,0.323
			c0.0603,0.0402,0.0448,0.0871,0.0579,0.0758c0.0272-0.0222,0.1132,0.0198,0.1394-0.0024c0.0139-0.023,0.0404-0.0335,0.0544-0.0565
			c0.0528-0.0326,0.1148-0.0657,0.1612-0.121c0.042-0.0501,0.0793-0.0547,0.1255,0.0088c-0.0025,0.0356-0.0174,0.0707-0.0571,0.0919
			c-0.0132,0.0113-0.0305,0.0352-0.0422,0.0572c-0.0164,0.0307-0.042,0.069-0.0808,0.0786
			c-0.0131,0.0113-0.0273,0.0221-0.0404,0.0334c-0.0131,0.0108-0.0396,0.0213-0.0404,0.033
			c-0.0132,0.0113-0.0255,0.0105-0.0396,0.0213c-0.0535,0.0448-0.0922,0.0539-0.1425,0.0506
			c-0.0123-0.0008-0.0638,0.0098-0.1159,0.0402c-0.0381,0.0222-0.0774,0.0194-0.1014-0.0066
			c-0.085-0.0535-0.1763-0.0802-0.2584-0.1124c-0.1335-0.0524-0.2564-0.1856-0.307-0.3554
			c-0.0643-0.216-0.0543-0.4694,0.0026-0.6847c0.0273-0.1034,0.0364-0.2042,0.0562-0.297c0.0149-0.0697,0.0278-0.1569,0.0513-0.2131
			c0.0176-0.0421,0.0311-0.0823,0.0204-0.1308c-0.0125-0.0008-0.0378-0.0145-0.0392,0.0094
			c-0.0132,0.0114-0.0396,0.0338-0.0546,0.0569c-0.0566,0.093-0.1257,0.1848-0.1962,0.2888
			c-0.0408,0.0578-0.0709,0.128-0.0881,0.2111c0.0096,0.049-0.0307,0.0824-0.0452,0.1177
			c-0.1264,0.1972-0.2358,0.3886-0.3265,0.6063c-0.0679,0.1627-0.1679,0.3034-0.2525,0.4672
			c-0.1259,0.2457-0.2752,0.4659-0.3758,0.7254c-0.0296,0.0826-0.087,0.1769-0.1263,0.27
			c-0.0287,0.0683-0.3655,0.6309-0.4428,0.6876c-0.0011,0.0239-0.0389,0.0339-0.0642,0.0573
			c-0.1582,0.1968-0.3304,0.1777-0.5259,0.1216c-0.0261,0.0229-0.0493-0.002-0.0735-0.0268
			c-0.1955-0.0555-0.2917-0.2408-0.3296-0.4805c-0.0319-0.2023-0.0266-0.425-0.0153-0.6245
			c0.0173-0.3052,0.0345-0.6403,0.0836-0.9331c0.0554-0.3307,0.0488-0.3359,0.1378-0.6429
			c0.1249-0.4309,0.0522-0.3945,0.2491-0.8549c0.0157-0.0834,0.069-0.141,0.0984-0.2238c0.0981-0.2126,0.2074-0.4095,0.2937-0.5886
			c0.0649-0.1347,0.1201-0.1618,0.2381-0.1457c0.0812,0.0111,0.2062,0.0362,0.3193,0.0624
			c0.0738,0.0171,0.1844,0.0461,0.2507,0.1323c0.09,0.117,0.2301,0.2787,0.3261,0.4247c0.1113,0.1692,0.1124,0.3476,0.034,0.5665
			c-0.0809,0.2257-0.0924,0.0548-0.1685,0.3032c-0.1913,0.4948-0.5098,0.8812-0.6725,1.3244
			C65.4204,49.8326,66.014,49.296,66.0764,49.0991z"/>
	</g>
</g>
<polygon class="st5" points="23.3887,40.5439 23.7063,41.5211 24.7337,41.5211 23.9025,42.125 24.22,43.1022 23.3887,42.4983 
	22.5575,43.1022 22.875,42.125 22.0437,41.5211 23.0712,41.5211 "/>
<polygon class="st5" points="37.0858,31.9842 36.25,33.5 37.4333,34.7633 35.7334,34.4368 34.8976,35.9525 34.6829,34.235 
	32.983,33.9085 34.5501,33.1735 34.3354,31.4559 35.5187,32.7192 "/>
<polygon class="st5" points="85.8524,36.5475 85.0166,38.0632 86.1999,39.3265 84.5,39 83.6642,40.5158 83.4494,38.7982 
	81.7496,38.4717 83.3167,37.7367 83.102,36.0191 84.2853,37.2824 "/>
<polygon class="st5" points="58.1607,90.3108 57.3249,91.8265 58.5081,93.0899 56.8083,92.7633 55.9724,94.2791 55.7577,92.5615 
	54.0579,92.235 55.625,91.5 55.4103,89.7824 56.5935,91.0458 "/>
<polygon class="st5" points="70.3303,30.8305 69.4224,32.477 70.7077,33.8493 68.8612,33.4946 67.9533,35.1412 67.72,33.2754 
	65.8735,32.9207 67.5759,32.1223 67.3426,30.2566 68.628,31.6289 "/>
<polygon class="st5" points="94.5803,49.5805 93.6724,51.227 94.9577,52.5993 93.1112,52.2446 92.2033,53.8912 91.97,52.0254 
	90.1235,51.6707 91.8259,50.8723 91.5926,49.0066 92.878,50.3789 "/>
<polygon class="st5" points="26.5803,85.7055 25.6724,87.352 26.9578,88.7243 25.1112,88.3696 24.2033,90.0162 23.97,88.1504 
	22.1235,87.7957 23.8259,86.9973 23.5926,85.1316 24.878,86.5039 "/>
<polygon class="st5" points="49.0133,37.206 47.9638,39.1092 49.4496,40.6955 47.3152,40.2855 46.2657,42.1887 45.9961,40.0321 
	43.8618,39.6221 45.8295,38.6993 45.5599,36.5427 47.0456,38.1289 "/>
<polygon class="st5" points="52.1383,100.706 51.0888,102.6092 52.5746,104.1955 50.4402,103.7855 49.3907,105.6887 
	49.1211,103.5321 46.9868,103.1221 48.9545,102.1992 48.6849,100.0427 50.1706,101.6289 "/>
<polygon class="st5" points="57.2717,23.587 55.7528,26.3415 57.9031,28.6373 54.814,28.0439 53.295,30.7985 52.9048,27.6772 
	49.8157,27.0838 52.6636,25.7481 52.2734,22.6268 54.4238,24.9226 "/>
<polygon class="st5" points="44.0193,86.7539 42.1695,90.1084 44.7882,92.9043 41.0262,92.1816 39.1764,95.5362 38.7012,91.735 
	34.9392,91.0123 38.4075,89.3857 37.9323,85.5846 40.551,88.3805 "/>
<polygon class="st5" points="77.0586,91.3737 74.0031,95.0188 76.5256,99.0511 72.1147,97.2716 69.0592,100.9166 69.3886,96.1717 
	64.9778,94.3922 69.5922,93.2392 69.9216,88.4943 72.4441,92.5267 "/>
<g id="Layer_2_10_">
	<g id="Layer_16_10_">
		<path class="st19" d="M101.05,37.0583h-0.01l-3.6-2.08l-0.5-0.29l-0.53-0.3l-0.72-0.42l-0.77-0.45l-0.11-0.06l-0.49-0.28
			l-0.51-0.29l-0.69-0.4l-0.21-0.12l-4.61-2.66l-1.21-0.7l-1.4301-0.82l-1.71-0.98l-0.72-0.42l-0.45-0.2599l-0.4901-0.29l-0.05-0.02
			l-0.42-0.25l-0.41-0.2401l-2.69-1.55l-2.64-1.52l-19.5-11.2401l-0.53-0.31l-0.47,0.27l-17.11,9.88l-5.02,2.9l-1.3,0.75l-0.53,0.31
			l-0.1,0.05c-0.01,0-0.01,0-0.01,0l-0.25,0.15l-0.42,0.25l-0.3,0.17l-0.27,0.16l-0.18,0.1l-1.5,0.87h-0.01l-1.78,1.02l-0.01,0.01
			l-0.58,0.34l-0.76,0.43l-0.01,0.01l-0.03,0.02l-1.59,0.91l-1.66,0.96H22.15l-2.38,1.37l-1,0.58l-2.98,1.72l-4.23,2.44l-1.54,0.89
			v53.12l0.07,0.04l1.72,1l0.75,0.43l0.15,0.08l4.32,2.5l0.6899,0.39l4,2.32l0.46,0.26l1.3,0.75l3.38,1.95l0.48,0.28l4.9,2.82
			l0.69,0.4l0.07,0.04l0.15,0.08l0.11,0.07l0.18,0.1l0.04,0.02l1.91,1.11l0.88,0.5l1.33,0.78l0.89,0.51l0.18,0.1l0.31,0.18
			l0.19,0.11l0.48,0.28l3.5699,2.05l0.09,0.05l0.44,0.26l0.62,0.36l0.72,0.42c0.0099,0,0.0099,0,0.0099,0l0.53,0.3l1.51,0.87
			l3.17,1.84l4.48,2.58l1.03,0.6l0.23,0.13l0.02-0.01l0.19-0.11l0.14-0.08l0.03-0.02l0.31-0.18l1.81-1.03l0.09-0.05l0.69-0.4
			l0.5-0.29l0.24-0.14l3.85-2.22l2.45-1.41l0.74-0.4301l0.66-0.3799l0.67-0.39l0.44-0.26l2.33-1.34l0.39-0.22h0.01l0.23-0.14
			l0.21-0.12l0.63-0.36l0.8-0.46l1.26-0.73l0.46-0.27h0.01l0.46-0.27l0.01-0.0099l0.25-0.14l0.53-0.31l0.37-0.21l0.35-0.21
			l0.55-0.31l0.21-0.13l0.32-0.1801l0.43-0.24l0.02-0.01l0.05-0.03l0.13-0.08l0.24-0.13l3.78-2.18l0.38-0.22l1.11-0.65l0.36-0.21
			l0.88-0.5099l1.73-0.9901l1.56-0.9l8.51-4.91l0.02-0.0099H97.47l0.0601-0.04l2.65-1.53l0.9-0.52l1.03-0.59v-53.12L101.05,37.0583z
			 M100.24,89.7183l-0.52,0.3l-0.3199,0.18l-0.58,0.34l-2.79,1.61l-4.8,2.77l-4.67,2.69l-1.99,1.15l-1.13,0.65l-1.28,0.74
			l-0.72,0.41l-0.4,0.23l-2.53,1.46l-0.07,0.05l-0.16,0.09l-0.1801,0.11l-0.5699,0.32l-0.89,0.51l-0.22,0.13l-0.05,0.03l-0.81,0.47
			l-0.09,0.05l-3.91,2.25l-0.08,0.05l-0.79,0.45l-0.08,0.05l-0.91,0.53l-2.15,1.24l-1.54,0.89l-1.68,0.97l-1.1,0.63l-2.97,1.72
			l-1.23,0.71l-0.0601,0.04h-0.02l-0.75,0.44l-0.28,0.15l-1.87,1.08l-3.45-1.99l-1.23-0.71l-0.61-0.35l-1.81-1.05l-0.72-0.41
			l-0.69-0.4l-5.2599-3.03l-0.77-0.45l-0.05-0.03l-1.79-1.03l-2.06-1.18l-0.9-0.52l-0.58-0.34l-0.25-0.15l-0.43-0.25l-0.21-0.12
			l-1.75-1.01l-0.31-0.18l-0.19-0.11l-1.5-0.87l-0.42-0.2401l-3-1.73l-3.91-2.26l-1.7599-1.01l-3.42-1.97l-4.91-2.84l-0.9-0.5099
			l-0.39-0.23l-0.23-0.13l-0.67-0.39v-50.97l3.91-2.26l2.98-1.72l0.93-0.54h0.01l0.06-0.04l3.2-1.85h0.01l1.36-0.79H24.35l1.79-1.03
			l1.25-0.72l0.15-0.08l0.28-0.17h0.01l0.76-0.44l0.46-0.27h0.01l2.98-1.72c0.01-0.01,0.01-0.01,0.02-0.01l0.78-0.45l0.35-0.2
			l0.2-0.12l0.29-0.17l0.17-0.1l0.27-0.15l0.04-0.02l8.03-4.64l13.39-7.73l0.47-0.27l0.53,0.31l16.83,9.71l3.8701,2.24l3.11,1.79
			l0.05,0.03l0.32,0.18l0.11,0.06l0.44,0.26l0.35,0.2l1.23,0.71l1.67,0.96l0.27,0.16l0.77,0.44l5.94,3.42l0.19,0.11
			c0.01,0,0.02,0,0.02,0l0.1,0.07l1.41,0.81l0.55,0.3199l0.04,0.03l0.77,0.44l0.19,0.11l0.54,0.31l0.5,0.29l0.03,0.02l0.54,0.31
			l0.88,0.51l2.94,1.69V89.7183z"/>
	</g>
</g>
<radialGradient id="SVGID_17_" cx="71.5" cy="66.6667" r="28.375" gradientUnits="userSpaceOnUse">
	<stop  offset="0" style="stop-color:#FFF200"/>
	<stop  offset="1" style="stop-color:#F9ED32;stop-opacity:0"/>
</radialGradient>
<circle class="st20" cx="71.5" cy="66.6667" r="28.375"/>
<radialGradient id="SVGID_18_" cx="54.4583" cy="26.5313" r="5.5625" gradientUnits="userSpaceOnUse">
	<stop  offset="0" style="stop-color:#FFF200"/>
	<stop  offset="0.3581" style="stop-color:#FCF018;stop-opacity:0.6419"/>
	<stop  offset="0.7364" style="stop-color:#FAEE2B;stop-opacity:0.2636"/>
	<stop  offset="1" style="stop-color:#F9ED32;stop-opacity:0"/>
</radialGradient>
<circle class="st21" cx="54.4583" cy="26.5313" r="5.5625"/>
<radialGradient id="SVGID_19_" cx="68.2708" cy="32.625" r="4.3438" gradientUnits="userSpaceOnUse">
	<stop  offset="0" style="stop-color:#FFF200"/>
	<stop  offset="0.3581" style="stop-color:#FCF018;stop-opacity:0.6419"/>
	<stop  offset="0.7364" style="stop-color:#FAEE2B;stop-opacity:0.2636"/>
	<stop  offset="1" style="stop-color:#F9ED32;stop-opacity:0"/>
</radialGradient>
<circle class="st22" cx="68.2708" cy="32.625" r="4.3438"/>
<radialGradient id="SVGID_20_" cx="84.0833" cy="38.0313" r="4.1354" gradientUnits="userSpaceOnUse">
	<stop  offset="0" style="stop-color:#FFF200"/>
	<stop  offset="0.3581" style="stop-color:#FCF018;stop-opacity:0.6419"/>
	<stop  offset="0.7364" style="stop-color:#FAEE2B;stop-opacity:0.2636"/>
	<stop  offset="1" style="stop-color:#F9ED32;stop-opacity:0"/>
</radialGradient>
<circle class="st23" cx="84.0833" cy="38.0313" r="4.1354"/>
<radialGradient id="SVGID_21_" cx="93.2708" cy="51.0938" r="4.1354" gradientUnits="userSpaceOnUse">
	<stop  offset="0" style="stop-color:#FFF200"/>
	<stop  offset="0.3581" style="stop-color:#FCF018;stop-opacity:0.6419"/>
	<stop  offset="0.7364" style="stop-color:#FAEE2B;stop-opacity:0.2636"/>
	<stop  offset="1" style="stop-color:#F9ED32;stop-opacity:0"/>
</radialGradient>
<circle class="st24" cx="93.2708" cy="51.0938" r="4.1354"/>
<radialGradient id="SVGID_22_" cx="47.2708" cy="39.4063" r="4.1354" gradientUnits="userSpaceOnUse">
	<stop  offset="0" style="stop-color:#FFF200"/>
	<stop  offset="0.3581" style="stop-color:#FCF018;stop-opacity:0.6419"/>
	<stop  offset="0.7364" style="stop-color:#FAEE2B;stop-opacity:0.2636"/>
	<stop  offset="1" style="stop-color:#F9ED32;stop-opacity:0"/>
</radialGradient>
<circle class="st25" cx="47.2708" cy="39.4063" r="4.1354"/>
<radialGradient id="SVGID_23_" cx="35.2708" cy="33.5938" r="3.3438" gradientUnits="userSpaceOnUse">
	<stop  offset="0" style="stop-color:#FFF200"/>
	<stop  offset="0.3581" style="stop-color:#FCF018;stop-opacity:0.6419"/>
	<stop  offset="0.7364" style="stop-color:#FAEE2B;stop-opacity:0.2636"/>
	<stop  offset="1" style="stop-color:#F9ED32;stop-opacity:0"/>
</radialGradient>
<circle class="st26" cx="35.2708" cy="33.5938" r="3.3438"/>
<radialGradient id="SVGID_24_" cx="23.3333" cy="42.1563" r="2.4063" gradientUnits="userSpaceOnUse">
	<stop  offset="0" style="stop-color:#FFF200"/>
	<stop  offset="0.3581" style="stop-color:#FCF018;stop-opacity:0.6419"/>
	<stop  offset="0.7364" style="stop-color:#FAEE2B;stop-opacity:0.2636"/>
	<stop  offset="1" style="stop-color:#F9ED32;stop-opacity:0"/>
</radialGradient>
<circle class="st27" cx="23.3333" cy="42.1563" r="2.4063"/>
<radialGradient id="SVGID_25_" cx="24.75" cy="87.4063" r="3.5" gradientUnits="userSpaceOnUse">
	<stop  offset="0" style="stop-color:#FFF200"/>
	<stop  offset="0.3581" style="stop-color:#FCF018;stop-opacity:0.6419"/>
	<stop  offset="0.7364" style="stop-color:#FAEE2B;stop-opacity:0.2636"/>
	<stop  offset="1" style="stop-color:#F9ED32;stop-opacity:0"/>
</radialGradient>
<circle class="st28" cx="24.75" cy="87.4063" r="3.5"/>
<radialGradient id="SVGID_26_" cx="40" cy="90.6563" r="6.6667" gradientUnits="userSpaceOnUse">
	<stop  offset="0" style="stop-color:#FFF200"/>
	<stop  offset="0.3581" style="stop-color:#FCF018;stop-opacity:0.6419"/>
	<stop  offset="0.7364" style="stop-color:#FAEE2B;stop-opacity:0.2636"/>
	<stop  offset="1" style="stop-color:#F9ED32;stop-opacity:0"/>
</radialGradient>
<circle class="st29" cx="40" cy="90.6563" r="6.6667"/>
<radialGradient id="SVGID_27_" cx="50.0833" cy="102.6563" r="4.3854" gradientUnits="userSpaceOnUse">
	<stop  offset="0" style="stop-color:#FFF200"/>
	<stop  offset="0.3581" style="stop-color:#FCF018;stop-opacity:0.6419"/>
	<stop  offset="0.7364" style="stop-color:#FAEE2B;stop-opacity:0.2636"/>
	<stop  offset="1" style="stop-color:#F9ED32;stop-opacity:0"/>
</radialGradient>
<circle class="st30" cx="50.0833" cy="102.6563" r="4.3854"/>
<radialGradient id="SVGID_28_" cx="56.5833" cy="91.7396" r="4.3854" gradientUnits="userSpaceOnUse">
	<stop  offset="0" style="stop-color:#FFF200"/>
	<stop  offset="0.3581" style="stop-color:#FCF018;stop-opacity:0.6419"/>
	<stop  offset="0.7364" style="stop-color:#FAEE2B;stop-opacity:0.2636"/>
	<stop  offset="1" style="stop-color:#F9ED32;stop-opacity:0"/>
</radialGradient>
<circle class="st31" cx="56.5833" cy="91.7396" r="4.3854"/>
<radialGradient id="SVGID_29_" cx="71.6667" cy="94.8229" r="7.6354" gradientUnits="userSpaceOnUse">
	<stop  offset="0" style="stop-color:#FFF200"/>
	<stop  offset="0.3581" style="stop-color:#FCF018;stop-opacity:0.6419"/>
	<stop  offset="0.7364" style="stop-color:#FAEE2B;stop-opacity:0.2636"/>
	<stop  offset="1" style="stop-color:#F9ED32;stop-opacity:0"/>
</radialGradient>
<circle class="st32" cx="71.6667" cy="94.8229" r="7.6354"/>
</svg>
