<svg width="200" height="100" viewBox="0 0 200 100" fill="none" xmlns="http://www.w3.org/2000/svg">
<path d="M67.157 54.124C67.0692 54.0362 67.0692 53.8605 66.9813 53.6849C66.9813 53.5093 66.8935 53.3336 66.8935 53.158C66.7179 53.3336 66.6301 53.4214 66.4544 53.5971C66.2788 53.6849 66.1032 53.8605 65.8397 53.9483C65.6641 54.0362 65.4007 54.124 65.1372 54.2118C64.8738 54.2996 64.6103 54.2996 64.2591 54.2996C63.7322 54.2996 63.2931 54.2118 62.854 54.124C62.4149 53.9483 62.0637 53.7727 61.8002 53.5093C61.5368 53.2458 61.2733 52.9824 61.0977 52.6311C60.9221 52.2798 60.8342 51.8408 60.8342 51.4895C60.8342 50.4357 61.1855 49.6454 61.9758 49.1185C62.7662 48.5916 63.9078 48.2403 65.4007 48.2403H66.8057V47.6256C66.8057 47.1865 66.6301 46.8353 66.3666 46.484C66.1032 46.2206 65.6641 46.0449 65.0494 46.0449C64.5225 46.0449 64.1712 46.1327 63.9078 46.3962C63.6443 46.5718 63.5565 46.9231 63.5565 47.2744H61.0977C61.0977 46.8353 61.1855 46.484 61.3611 46.1327C61.5368 45.7815 61.8002 45.4302 62.1515 45.1668C62.5027 44.9033 62.9418 44.6399 63.4687 44.4643C63.9956 44.2886 64.5225 44.2008 65.225 44.2008C65.8397 44.2008 66.3666 44.2886 66.8935 44.3764C67.4204 44.5521 67.8595 44.7277 68.2108 44.9911C68.562 45.2546 68.9133 45.6059 69.0889 46.0449C69.2645 46.484 69.4402 46.9231 69.4402 47.5378V51.7529C69.4402 52.2798 69.4402 52.7189 69.528 53.0702C69.6158 53.4214 69.7036 53.6849 69.7914 53.9483V54.124H67.157ZM64.7859 52.3677C65.0494 52.3677 65.3128 52.3677 65.4885 52.2798C65.6641 52.192 65.9276 52.1042 66.1032 52.0164C66.2788 51.9286 66.4544 51.8408 66.5423 51.6651C66.6301 51.5773 66.8057 51.4017 66.8057 51.3139V49.6454H65.4885C65.1372 49.6454 64.7859 49.6454 64.5225 49.7332C64.2591 49.821 63.9956 49.9088 63.82 50.0845C63.6443 50.1723 63.5565 50.3479 63.4687 50.6113C63.3809 50.787 63.3809 50.9626 63.3809 51.2261C63.3809 51.5773 63.4687 51.8408 63.7322 52.0164C63.9078 52.2798 64.2591 52.3677 64.7859 52.3677Z" fill="white"/>
<path d="M79.0999 44.2008C79.4512 44.2008 79.8024 44.2008 80.1537 44.2886C80.5049 44.3764 80.7684 44.3764 80.944 44.4643L80.5928 46.9231C80.2415 46.8353 79.8902 46.7475 79.539 46.7475C79.1877 46.7475 78.8364 46.6596 78.573 46.6596C77.8705 46.6596 77.3436 46.8353 76.9045 47.0987C76.4654 47.3622 76.202 47.7134 75.9385 48.2403V54.0362H73.3919V44.3764H75.6751L75.7629 45.9571C76.1142 45.4302 76.6411 44.9911 77.1679 44.6399C77.8705 44.3764 78.3974 44.2008 79.0999 44.2008Z" fill="white"/>
<path d="M89.3743 51.0504L90.2525 44.3765H92.5357L90.7794 54.0362H88.584L87.3546 47.8891L86.1251 54.0362H83.9298L82.1734 44.3765H84.4567L85.3348 51.0504L86.5642 44.3765H88.2327L89.3743 51.0504Z" fill="white"/>
<path d="M98.8584 54.2997C98.0681 54.2997 97.4534 54.2119 96.8386 53.9484C96.2239 53.685 95.697 53.3337 95.258 52.9824C94.8189 52.5434 94.4676 52.1043 94.2042 51.4896C93.9407 50.8749 93.8529 50.2602 93.8529 49.6454V49.2942C93.8529 48.5917 93.9407 47.8891 94.2042 47.2744C94.4676 46.6597 94.7311 46.1328 95.1702 45.6937C95.6092 45.2547 96.0483 44.9034 96.663 44.64C97.2777 44.3765 97.8924 44.2887 98.5071 44.2887C99.2097 44.2887 99.8244 44.3765 100.351 44.64C100.878 44.9034 101.405 45.1669 101.756 45.6059C102.108 46.045 102.459 46.5719 102.634 47.0988C102.81 47.7135 102.898 48.3282 102.898 49.0307V50.0845H96.3118C96.3996 50.4358 96.4874 50.6992 96.5752 50.9627C96.7508 51.2261 96.9265 51.4896 97.1021 51.6652C97.3655 51.8408 97.629 52.0165 97.8924 52.1043C98.1559 52.1921 98.5071 52.2799 98.8584 52.2799C99.1219 52.2799 99.3853 52.2799 99.5609 52.1921C99.8244 52.1043 100 52.1043 100.263 52.0165C100.527 51.9287 100.703 51.8408 100.878 51.6652C101.054 51.4896 101.229 51.4018 101.405 51.1383L102.634 52.4555C102.459 52.719 102.283 52.8946 102.02 53.0703C101.756 53.2459 101.493 53.5093 101.142 53.5971C100.79 53.7728 100.439 53.8606 100 53.9484C99.8244 54.2119 99.3853 54.2997 98.8584 54.2997ZM98.595 46.2206C98.3315 46.2206 98.0681 46.3085 97.8046 46.3963C97.5412 46.4841 97.3655 46.6597 97.1899 46.8353C97.0143 47.011 96.8386 47.2744 96.7508 47.5379C96.663 47.8013 96.5752 48.0648 96.4874 48.416H100.615V48.2404C100.615 47.977 100.527 47.7135 100.439 47.5379C100.351 47.2744 100.263 47.0988 100.088 46.9232C99.9122 46.7475 99.7366 46.5719 99.4731 46.4841C99.2097 46.3085 98.9462 46.2206 98.595 46.2206Z" fill="white"/>
<path d="M111.24 54.124C111.153 54.0362 111.153 53.8605 111.065 53.6849C111.065 53.5093 110.977 53.3336 110.977 53.158C110.801 53.3336 110.714 53.4214 110.538 53.5971C110.362 53.6849 110.187 53.8605 109.923 53.9483C109.748 54.0362 109.484 54.124 109.221 54.2118C108.957 54.2996 108.694 54.2996 108.342 54.2996C107.816 54.2996 107.377 54.2118 106.937 54.124C106.498 53.9483 106.147 53.7727 105.884 53.5093C105.62 53.2458 105.357 52.9824 105.181 52.6311C105.005 52.2798 104.918 51.8408 104.918 51.4895C104.918 50.4357 105.269 49.6454 106.059 49.1185C106.85 48.5916 107.991 48.2403 109.484 48.2403H110.889V47.6256C110.889 47.1865 110.714 46.8353 110.45 46.484C110.187 46.2206 109.748 46.0449 109.133 46.0449C108.606 46.0449 108.255 46.1327 107.991 46.3962C107.728 46.5718 107.64 46.9231 107.64 47.2744H105.181C105.181 46.8353 105.269 46.484 105.445 46.1327C105.62 45.7815 105.884 45.4302 106.235 45.1668C106.586 44.9033 107.025 44.6399 107.552 44.4643C108.079 44.2886 108.606 44.2008 109.308 44.2008C109.923 44.2008 110.45 44.2886 110.977 44.3764C111.504 44.5521 111.943 44.7277 112.294 44.9911C112.645 45.2546 112.997 45.6059 113.172 46.0449C113.348 46.484 113.524 46.9231 113.524 47.5378V51.7529C113.524 52.2798 113.524 52.7189 113.611 53.0702C113.699 53.4214 113.787 53.6849 113.875 53.9483V54.124H111.24ZM108.869 52.3677C109.133 52.3677 109.396 52.3677 109.572 52.2798C109.748 52.192 110.011 52.1042 110.187 52.0164C110.362 51.9286 110.538 51.8408 110.626 51.6651C110.714 51.5773 110.889 51.4017 110.889 51.3139V49.6454H109.66C109.308 49.6454 108.957 49.6454 108.694 49.7332C108.43 49.821 108.167 49.9088 107.991 50.0845C107.816 50.1723 107.728 50.3479 107.64 50.6113C107.552 50.787 107.552 50.9626 107.552 51.2261C107.552 51.5773 107.64 51.8408 107.903 52.0164C108.079 52.2798 108.43 52.3677 108.869 52.3677Z" fill="white"/>
<path d="M120.373 51.2261L120.461 51.9286L120.549 51.2261L122.656 44.3765H125.291L121.603 54.0362H119.232L115.543 44.3765H118.178L120.373 51.2261Z" fill="white"/>
<path d="M131.965 54.2997C131.175 54.2997 130.56 54.2119 129.945 53.9484C129.33 53.685 128.804 53.3337 128.364 52.9824C127.925 52.5434 127.574 52.1043 127.311 51.4896C127.047 50.8749 126.959 50.2602 126.959 49.6454V49.2942C126.959 48.5917 127.047 47.8891 127.311 47.2744C127.574 46.6597 127.838 46.1328 128.277 45.6937C128.716 45.2547 129.155 44.9034 129.769 44.64C130.384 44.3765 130.999 44.2887 131.614 44.2887C132.316 44.2887 132.931 44.3765 133.458 44.64C133.985 44.9034 134.512 45.1669 134.863 45.6059C135.214 46.045 135.565 46.5719 135.741 47.0988C135.917 47.7135 136.004 48.3282 136.004 49.0307V50.0845H129.418C129.506 50.4358 129.594 50.6992 129.682 50.9627C129.857 51.2261 130.033 51.4896 130.209 51.6652C130.472 51.8408 130.735 52.0165 130.999 52.1043C131.262 52.1921 131.614 52.2799 131.965 52.2799C132.228 52.2799 132.492 52.2799 132.667 52.1921C132.931 52.1043 133.106 52.1043 133.37 52.0165C133.633 51.9287 133.809 51.8408 133.985 51.6652C134.16 51.4896 134.336 51.4018 134.512 51.1383L135.741 52.4555C135.565 52.719 135.39 52.8946 135.126 53.0703C134.863 53.2459 134.599 53.5093 134.248 53.5971C133.897 53.7728 133.546 53.8606 133.106 53.9484C132.931 54.2119 132.492 54.2997 131.965 54.2997ZM131.701 46.2206C131.438 46.2206 131.175 46.3085 130.911 46.3963C130.648 46.4841 130.472 46.6597 130.296 46.8353C130.121 47.011 129.945 47.2744 129.857 47.5379C129.769 47.8013 129.682 48.0648 129.594 48.416H133.721V48.2404C133.721 47.977 133.633 47.7135 133.546 47.5379C133.458 47.2744 133.37 47.0988 133.194 46.9232C133.019 46.7475 132.843 46.5719 132.58 46.4841C132.316 46.3085 131.965 46.2206 131.701 46.2206Z" fill="white"/>
<path d="M140.834 52.7189C140.834 52.4555 140.834 52.2798 140.922 52.1042C141.01 51.9286 141.098 51.7529 141.273 51.5773C141.449 51.4017 141.625 51.3139 141.8 51.226C141.976 51.1382 142.239 51.0504 142.503 51.0504C142.766 51.0504 143.03 51.1382 143.205 51.226C143.381 51.3139 143.557 51.4017 143.732 51.5773C143.908 51.7529 143.996 51.9286 144.083 52.1042C144.171 52.2798 144.171 52.5433 144.171 52.7189C144.171 52.9824 144.171 53.158 144.083 53.3336C143.996 53.5093 143.908 53.6849 143.732 53.8605C143.557 54.0361 143.381 54.124 143.205 54.2118C143.03 54.2996 142.766 54.2996 142.503 54.2996C142.239 54.2996 141.976 54.2996 141.8 54.2118C141.625 54.124 141.361 54.0361 141.273 53.8605C141.098 53.6849 141.01 53.5093 140.922 53.3336C140.834 53.158 140.834 52.8945 140.834 52.7189Z" fill="white"/>
<path d="M149.001 49.2064C149.001 48.5038 149.089 47.8891 149.265 47.2744C149.44 46.6597 149.791 46.1328 150.143 45.6937C150.494 45.2547 151.021 44.9034 151.548 44.64C152.075 44.3765 152.777 44.2887 153.48 44.2887C154.182 44.2887 154.885 44.3765 155.412 44.64C155.939 44.9034 156.465 45.2547 156.817 45.6937C157.168 46.1328 157.519 46.6597 157.695 47.2744C157.87 47.8891 157.958 48.5038 157.958 49.2064V49.382C157.958 50.0845 157.87 50.787 157.695 51.3139C157.519 51.9287 157.168 52.4555 156.817 52.8946C156.465 53.3337 155.939 53.685 155.412 53.9484C154.885 54.2119 154.182 54.2997 153.48 54.2997C152.777 54.2997 152.075 54.2119 151.548 53.9484C151.021 53.685 150.494 53.3337 150.143 52.8946C149.791 52.4555 149.44 51.9287 149.265 51.3139C149.089 50.6992 149.001 50.0845 149.001 49.382V49.2064ZM151.46 49.382C151.46 49.8211 151.46 50.1723 151.548 50.5236C151.636 50.8749 151.723 51.2261 151.899 51.4896C152.075 51.753 152.25 51.9287 152.514 52.1043C152.777 52.2799 153.128 52.3677 153.48 52.3677C153.831 52.3677 154.182 52.2799 154.446 52.1043C154.709 51.9287 154.885 51.753 155.06 51.4896C155.236 51.2261 155.324 50.8749 155.412 50.5236C155.499 50.1723 155.499 49.8211 155.499 49.382V49.2064C155.499 48.8551 155.499 48.416 155.412 48.0648C155.324 47.7135 155.236 47.3622 155.06 47.0988C154.885 46.8353 154.709 46.6597 154.446 46.4841C154.182 46.3085 153.831 46.2206 153.48 46.2206C153.128 46.2206 152.777 46.3085 152.514 46.4841C152.25 46.6597 152.075 46.8353 151.899 47.0988C151.723 47.3622 151.636 47.7135 151.548 48.0648C151.46 48.416 151.46 48.7673 151.46 49.2064V49.382Z" fill="white"/>
<path d="M167.355 44.2008C167.706 44.2008 168.057 44.2008 168.408 44.2886C168.76 44.3764 169.023 44.3764 169.199 44.4643L168.847 46.9231C168.496 46.8353 168.145 46.7475 167.794 46.7475C167.442 46.7475 167.091 46.6596 166.828 46.6596C166.125 46.6596 165.598 46.8353 165.159 47.0987C164.72 47.3622 164.457 47.7134 164.193 48.2403V54.0362H161.734V44.3764H164.018L164.105 45.9571C164.457 45.4302 164.984 44.9911 165.51 44.6399C166.037 44.3764 166.652 44.2008 167.355 44.2008Z" fill="white"/>
<path d="M171.131 49.2063C171.131 48.5038 171.218 47.8012 171.394 47.1865C171.57 46.5718 171.833 46.0449 172.184 45.6059C172.536 45.1668 172.975 44.8155 173.414 44.5521C173.941 44.2886 174.468 44.2008 175.082 44.2008C175.609 44.2008 176.136 44.2886 176.575 44.4643C177.014 44.6399 177.366 44.9033 177.629 45.2546L177.717 44.2886H180V53.6849C180 54.2996 179.912 54.9143 179.649 55.4412C179.385 55.9681 179.122 56.4072 178.683 56.7584C178.244 57.1097 177.805 57.3731 177.19 57.5488C176.663 57.7244 176.048 57.8122 175.346 57.8122C175.082 57.8122 174.731 57.8122 174.38 57.7244C174.029 57.6366 173.677 57.5488 173.414 57.461C173.063 57.3731 172.799 57.1975 172.448 56.9341C172.184 56.7584 171.921 56.495 171.658 56.2315L172.799 54.7387C173.15 55.0899 173.502 55.3534 173.853 55.529C174.292 55.7046 174.643 55.7925 175.17 55.7925C175.873 55.7925 176.4 55.6168 176.839 55.2656C177.19 54.9143 177.453 54.3874 177.453 53.6849V53.158C177.19 53.5093 176.839 53.7727 176.4 53.9483C176.048 54.124 175.521 54.2118 175.082 54.2118C174.468 54.2118 173.941 54.124 173.414 53.8605C172.975 53.5971 172.536 53.2458 172.184 52.8067C171.833 52.3677 171.57 51.8408 171.394 51.2261C171.218 50.6113 171.131 49.9966 171.131 49.2941V49.2063ZM173.677 49.3819C173.677 49.821 173.677 50.1723 173.765 50.5235C173.853 50.8748 173.941 51.1382 174.116 51.4017C174.292 51.6651 174.468 51.8408 174.731 52.0164C174.995 52.192 175.258 52.2798 175.609 52.2798C176.048 52.2798 176.4 52.192 176.663 52.0164C176.926 51.8408 177.19 51.5773 177.366 51.3139V47.1865C177.19 46.9231 177.014 46.6596 176.663 46.484C176.4 46.3084 176.048 46.2206 175.609 46.2206C175.258 46.2206 174.995 46.3084 174.731 46.484C174.468 46.6596 174.292 46.8353 174.116 47.0987C173.941 47.3622 173.853 47.7134 173.765 48.0647C173.677 48.416 173.677 48.7672 173.677 49.2063V49.3819Z" fill="white"/>
<path d="M32.9089 62.8178C40.0383 62.8178 45.8178 57.0383 45.8178 49.9089C45.8178 42.7795 40.0383 37 32.9089 37C25.7795 37 20 42.7795 20 49.9089C20 57.0383 25.7795 62.8178 32.9089 62.8178Z" stroke="white" stroke-width="2.5"/>
<path d="M35.3677 54.5631C35.2799 54.4753 35.2799 54.2996 35.1921 54.124C35.1921 53.9484 35.1043 53.7728 35.1043 53.5971C34.9287 53.7728 34.753 53.8606 34.5774 54.0362C34.4018 54.2118 34.1383 54.2996 33.9627 54.3875C33.6992 54.4753 33.5236 54.5631 33.1723 54.6509C32.9089 54.7387 32.5576 54.7387 32.2942 54.7387C31.7673 54.7387 31.3282 54.6509 30.8891 54.4753C30.4501 54.2996 30.0988 54.124 29.7475 53.8606C29.3963 53.5971 29.2206 53.2459 29.045 52.8946C28.8694 52.5433 28.7816 52.1043 28.7816 51.6652C28.7816 50.6114 29.2206 49.7332 30.011 49.2063C30.8013 48.5916 32.0307 48.3282 33.6114 48.3282H35.1043V47.7135C35.1043 47.1866 34.9287 46.8353 34.6652 46.5719C34.3139 46.3084 33.8749 46.1328 33.2602 46.1328C32.7333 46.1328 32.382 46.2206 32.1186 46.4841C31.8551 46.7475 31.7673 47.011 31.7673 47.3622H29.1328C29.1328 46.9231 29.2206 46.4841 29.3963 46.1328C29.5719 45.7815 29.8353 45.4303 30.2744 45.079C30.6257 44.8156 31.0648 44.5521 31.5917 44.3765C32.1186 44.2009 32.7333 44.113 33.4358 44.113C34.0505 44.113 34.5774 44.2009 35.1043 44.3765C35.6312 44.5521 36.0703 44.7277 36.5093 45.079C36.8606 45.3425 37.2119 45.7815 37.3875 46.2206C37.5631 46.6597 37.7387 47.1866 37.7387 47.8013V52.1921C37.7387 52.719 37.7387 53.158 37.8266 53.5093C37.9144 53.8606 38.0022 54.2118 38.09 54.3875V54.5631H35.3677ZM32.8211 52.719C33.0845 52.719 33.348 52.719 33.5236 52.6311C33.787 52.5433 33.9627 52.4555 34.1383 52.3677C34.3139 52.2799 34.4896 52.1921 34.5774 52.0164C34.6652 51.9286 34.8408 51.753 34.9287 51.6652V49.9089H33.6114C33.1723 49.9089 32.8211 49.9089 32.5576 49.9967C32.2942 50.0845 32.0307 50.1723 31.8551 50.3479C31.6795 50.5236 31.5038 50.6114 31.416 50.8748C31.3282 51.0505 31.3282 51.3139 31.3282 51.4895C31.3282 51.8408 31.416 52.1043 31.6795 52.3677C31.9429 52.6311 32.382 52.719 32.8211 52.719Z" fill="white"/>
</svg>
