<svg width="200" height="100" viewBox="0 0 200 100" fill="none" xmlns="http://www.w3.org/2000/svg">
<path d="M74.9333 50.057C74.7467 45.2985 78.5067 41.3066 83.3067 41.1216H83.6533C88.08 41.1216 90.6934 43.6859 91.4667 46.6996L88.6934 47.6249C88.1867 45.2985 86.0267 43.6859 83.6533 43.871C80.8 43.871 77.92 45.933 77.92 50.1099C77.92 54.2869 80.72 56.2696 83.68 56.2696C86.08 56.3225 88.2134 54.7627 88.8534 52.4892L91.5467 53.3616C90.5867 56.8512 87.3067 59.2304 83.6533 59.0454C78.9067 59.1247 74.9867 55.3972 74.9067 50.6915C74.9067 50.48 74.9067 50.2685 74.9333 50.057Z" fill="white"/>
<path d="M96.9333 58.6489H94.0267V41.0687H96.9333V47.9686C97.76 46.9905 99.0133 46.4353 100.32 46.4882C103.253 46.4882 104.693 48.5766 104.693 51.1674V58.6489H101.867V51.6432C102.053 50.4007 101.173 49.2375 99.92 49.0525C99.76 49.026 99.5733 49.026 99.4133 49.0525C98.0533 49.0525 96.9333 50.1628 96.9333 51.5111C96.9333 51.5904 96.9333 51.6432 96.9333 51.7226V58.6489Z" fill="white"/>
<path d="M110.987 51.8811L114.053 51.4052C114.747 51.3259 114.933 50.9558 114.933 50.5592C114.933 49.5547 114.267 48.7616 112.667 48.7616C111.44 48.6558 110.347 49.5547 110.213 50.7707V50.8765L107.627 50.2949C107.84 48.2593 109.707 46.4352 112.64 46.4352C116.32 46.4352 117.707 48.4972 117.707 50.9029V56.7718C117.707 57.4062 117.733 58.0407 117.867 58.6752H115.227C115.12 58.1729 115.093 57.6706 115.12 57.1683C114.32 58.3844 112.907 59.0982 111.44 59.0453C109.387 59.2039 107.6 57.7235 107.387 55.6879V55.5028C107.36 53.3086 108.933 52.1719 110.987 51.8811ZM114.907 53.7845V53.2557L111.787 53.7052C110.907 53.7316 110.213 54.4454 110.187 55.3178C110.187 56.1902 110.907 56.8775 111.787 56.8511H111.92C113.413 57.0361 114.773 55.9522 114.933 54.4718C114.933 54.4454 114.933 54.4454 114.933 54.4189C114.987 54.2075 114.96 53.996 114.907 53.7845Z" fill="white"/>
<path d="M122.533 40.8307C123.547 40.8307 124.4 41.6238 124.427 42.6548C124.427 43.6594 123.6 44.4789 122.587 44.5053C121.573 44.5053 120.747 43.6858 120.72 42.6812C120.693 41.6502 121.52 40.8307 122.533 40.8307ZM121.147 58.7016V46.8317H124V58.6488L121.147 58.7016Z" fill="white"/>
<path d="M130.453 58.6488H127.6V46.8318H130.373V48.418C131.12 47.2019 132.453 46.4617 133.893 46.4881C136.8 46.4881 138.187 48.5766 138.187 51.1673V58.6488H135.36V51.6432C135.36 50.1892 134.693 49.026 132.907 49.026C131.52 49.026 130.4 50.1628 130.4 51.5374C130.4 51.6432 130.4 51.7225 130.4 51.8282L130.453 58.6488Z" fill="white"/>
<path d="M144.507 41.0687H141.68V58.6489H144.507V41.0687Z" fill="white"/>
<path d="M149.6 40.8307C150.613 40.8307 151.44 41.6502 151.467 42.6548C151.467 43.6594 150.64 44.4789 149.627 44.5053C148.613 44.5053 147.787 43.6858 147.76 42.6812V42.6548C147.76 41.6502 148.56 40.8307 149.6 40.8307ZM148.187 58.7016V46.8317H151.013V58.6488L148.187 58.7016Z" fill="white"/>
<path d="M157.52 58.6488H154.693V46.8318H157.467V48.418C158.213 47.2019 159.547 46.4617 160.987 46.4881C163.893 46.4881 165.307 48.5766 165.307 51.1673V58.6488H162.48V51.6432C162.667 50.4007 161.787 49.2375 160.533 49.0524C160.373 49.026 160.187 49.026 160.027 49.0524C158.64 49.0524 157.52 50.1628 157.547 51.5374C157.547 51.6432 157.547 51.7489 157.547 51.8282L157.52 58.6488Z" fill="white"/>
<path d="M174.987 51.8019L180 58.6489H176.507L173.013 53.7581L171.547 55.2914V58.6489H168.72V41.0687H171.547V51.5904L176.133 46.8318H179.893L174.987 51.8019Z" fill="white"/>
<path d="M41.28 36.3102L53.5733 43.3158V57.3534L41.3333 64.3855L29.04 57.4592V43.3686L41.28 36.3102ZM41.28 26L36.7733 28.5908L24.5067 35.6492L20 38.24V62.5878L24.5067 65.1522L36.8 72.1313L41.3067 74.6957L45.8133 72.1049L58.0533 65.0464L62.56 62.4557V38.0814L58.0533 35.5171L45.76 28.5114L41.28 26Z" fill="white"/>
</svg>
