<svg width="200" height="100" viewBox="0 0 200 100" fill="none" xmlns="http://www.w3.org/2000/svg">
<path fill-rule="evenodd" clip-rule="evenodd" d="M129.52 64.5877V55.004C129.52 49.6189 125.207 45.1465 119.845 45.1237C114.437 45.1009 110.033 49.5048 110.056 54.9127C110.078 60.2978 114.551 64.5877 119.936 64.5877H129.52ZM119.776 38.6433C128.744 38.6433 136 45.8995 136 54.8671V71.0909H119.776C110.809 71.0909 103.552 63.8347 103.552 54.8671C103.552 45.8995 110.809 38.6433 119.776 38.6433Z" fill="white"/>
<path fill-rule="evenodd" clip-rule="evenodd" d="M93.8181 71.0909H100.308V38.6433H93.8181V71.0909Z" fill="white"/>
<path fill-rule="evenodd" clip-rule="evenodd" d="M100.308 32.1539C100.308 33.9591 98.8452 35.3986 97.0629 35.3986C95.2577 35.3986 93.8181 33.9362 93.8181 32.1539C93.8181 30.3717 95.2805 28.9093 97.0629 28.9093C98.8452 28.8865 100.308 30.3488 100.308 32.1539Z" fill="white"/>
<path fill-rule="evenodd" clip-rule="evenodd" d="M68.9987 61.0124C70.163 62.3349 71.6241 63.4294 73.3363 64.2959C75.0486 65.1624 76.6923 65.5956 78.2904 65.5956C80.0026 65.6184 81.4181 65.208 82.5367 64.3871C83.6554 63.5662 84.2033 62.6998 84.2033 61.7649C84.2033 60.7844 83.8837 60.0091 83.1988 59.4163C82.5367 58.8234 81.5779 58.413 80.3451 58.185L76.738 57.4553C72.7428 56.6572 69.9575 55.5627 68.4279 54.1946C66.8983 52.7809 66.1221 50.934 66.145 48.6082C66.1678 45.8491 67.2408 43.5005 69.3411 41.5396C71.4643 39.5786 74.2952 38.6209 77.8566 38.6437C79.9341 38.6665 81.9203 39.0085 83.7924 39.7154C85.6644 40.3995 87.6049 41.494 89.5911 42.9989L87.7191 45.3703L85.9384 47.6277C84.5229 46.3508 83.1303 45.4387 81.7833 44.937C80.4364 44.4126 79.1807 44.1618 77.9936 44.139C76.5325 44.139 75.2312 44.4582 74.1582 45.1651C73.0624 45.8491 72.5145 46.8068 72.5145 47.9925C72.4916 49.6798 73.7929 50.7743 76.3499 51.2532L82.7879 52.5757C88.0159 53.6246 90.6185 56.3836 90.5728 60.83C90.5728 62.0157 90.3217 63.2014 89.8194 64.4099C89.3172 65.6184 88.5638 66.7357 87.5364 67.7618C86.5091 68.7879 85.185 69.6087 83.5641 70.2016C81.9432 70.7944 80.0711 71.0909 77.9479 71.0909C73.1309 71.0453 68.6791 69.2211 64.6154 65.5956L68.9987 61.0124Z" fill="white"/>
</svg>
