<?xml version="1.0" encoding="UTF-8"?>
<svg width="190px" height="213px" viewBox="0 0 190 213" version="1.1" xmlns="http://www.w3.org/2000/svg" xmlns:xlink="http://www.w3.org/1999/xlink">
    <!-- Generator: Sketch 49 (51002) - http://www.bohemiancoding.com/sketch -->
    <title>helmet</title>
    <desc>Created with Sketch.</desc>
    <defs>
        <polygon id="path-1" points="0.0176 0.4473 123.3826 0.4473 123.3826 41 0.0176 41"></polygon>
    </defs>
    <g id="Module-02-Templates" stroke="none" stroke-width="1" fill="none" fill-rule="evenodd">
        <g id="Gitcoin-Press-kit" transform="translate(-145.000000, -3339.000000)">
            <g id="Illustrations" transform="translate(90.000000, 3188.000000)">
                <g id="card" transform="translate(0.000000, 87.000000)">
                    <g id="helmet" transform="translate(55.000000, 63.000000)">
                        <g id="logo">
                            <polygon id="Fill-1" fill="#25E899" points="28.3076 143.9233 150.8106 143.9233 161.1916 147.8853 153.3826 175.8403 36.0176 175.8403"></polygon>
                            <g id="Group-33" transform="translate(0.000000, 0.393000)">
                                <path d="M136.792,210 L52.608,210 C43.445,210 36.018,202.572 36.018,193.409 L36.018,175.447 L153.383,175.447 L153.383,193.409 C153.383,202.572 145.955,210 136.792,210" id="Fill-2" fill="#EFF4EE"></path>
                                <g id="Group-6" transform="translate(33.000000, 172.000000)">
                                    <mask id="mask-2" fill="white">
                                        <use xlink:href="#path-1"></use>
                                    </mask>
                                    <g id="Clip-5"></g>
                                    <path d="M6.0176,6.4473 L6.0176,21.4093 C6.0176,28.9033 12.1146,35.0003 19.6086,35.0003 L103.7916,35.0003 C111.2866,35.0003 117.3826,28.9033 117.3826,21.4093 L117.3826,6.4473 L6.0176,6.4473 Z M103.7916,41.0003 L19.6086,41.0003 C8.8056,41.0003 0.0176,32.2123 0.0176,21.4093 L0.0176,0.4473 L123.3826,0.4473 L123.3826,21.4093 C123.3826,32.2123 114.5946,41.0003 103.7916,41.0003 Z" id="Fill-4" fill="#15003E" mask="url(#mask-2)"></path>
                                </g>
                                <path d="M73.1836,143.5303 C54.7586,135.4373 41.8906,117.0293 41.8906,95.6163 C41.8906,82.9773 46.3726,71.3853 53.8346,62.3443 C63.4276,50.7193 123.7806,50.1293 133.3636,60.9463 C141.5386,70.1763 146.5016,82.3163 146.5016,95.6163 C146.5016,117.0283 133.6366,135.4343 115.2136,143.5283" id="Fill-7" fill="#0FCE7C"></path>
                                <path d="M69.876,146.5283 C69.436,146.5283 68.988,146.4303 68.565,146.2243 C48.527,136.4753 36.08,116.5843 36.08,94.3133 C36.08,83.2573 39.218,72.5113 45.153,63.2413 C46.046,61.8453 47.9,61.4353 49.297,62.3323 C50.692,63.2253 51.1,65.0813 50.206,66.4753 C44.89,74.7793 42.08,84.4053 42.08,94.3133 C42.08,114.2693 53.234,132.0923 71.19,140.8303 C72.681,141.5543 73.301,143.3493 72.575,144.8403 C72.057,145.9073 70.987,146.5283 69.876,146.5283" id="Fill-9" fill="#15003E"></path>
                                <path d="M118.248,146.248 C117.148,146.248 116.09,145.641 115.563,144.591 C114.821,143.109 115.421,141.307 116.902,140.564 C134.527,131.735 145.477,114.013 145.477,94.313 C145.477,83.229 142.021,72.663 135.484,63.758 C134.505,62.422 134.793,60.544 136.128,59.564 C137.463,58.584 139.341,58.871 140.322,60.207 C147.619,70.149 151.477,81.943 151.477,94.313 C151.477,116.298 139.258,136.076 119.59,145.93 C119.158,146.145 118.7,146.248 118.248,146.248" id="Fill-11" fill="#15003E"></path>
                                <path d="M38.3506,172.4473 L151.0496,172.4473 L169.5976,99.4313 C169.3976,58.3013 135.8756,24.9043 94.7006,24.9043 C53.5256,24.9043 20.0036,58.3013 19.8036,99.4313 L38.3506,172.4473 Z M155.7156,178.4473 L33.6846,178.4473 L13.8026,100.1773 L13.8026,99.8023 C13.8026,55.1953 50.0926,18.9043 94.7006,18.9043 C139.3076,18.9043 175.5986,55.1953 175.5986,99.8023 L175.5986,100.1773 L175.5056,100.5413 L155.7156,178.4473 Z" id="Fill-13" fill="#15003E"></path>
                                <path d="M16.8027,101.6758 C15.1457,101.6758 13.8027,100.3328 13.8027,98.6758 L13.8027,24.5398 C13.8027,22.8828 15.1457,21.5398 16.8027,21.5398 C18.4597,21.5398 19.8027,22.8828 19.8027,24.5398 L19.8027,98.6758 C19.8027,100.3328 18.4597,101.6758 16.8027,101.6758" id="Fill-15" fill="#15003E"></path>
                                <path d="M172.5986,101.6758 C170.9416,101.6758 169.5986,100.3328 169.5986,98.6758 L169.5986,3.6078 C169.5986,1.9498 170.9416,0.6078 172.5986,0.6078 C174.2556,0.6078 175.5986,1.9498 175.5986,3.6078 L175.5986,98.6758 C175.5986,100.3328 174.2556,101.6758 172.5986,101.6758" id="Fill-17" fill="#15003E"></path>
                                <path d="M22.8701,134.9736 L14.8291,134.9736 C6.6521,134.9736 0.0001,128.3216 0.0001,120.1456 L0.0001,90.1046 C0.0001,81.9286 6.6521,75.2766 14.8291,75.2766 L18.2391,75.2766 C19.8961,75.2766 21.2391,76.6196 21.2391,78.2766 C21.2391,79.9336 19.8961,81.2766 18.2391,81.2766 L14.8291,81.2766 C9.9611,81.2766 6.0001,85.2366 6.0001,90.1046 L6.0001,120.1456 C6.0001,125.0136 9.9611,128.9736 14.8291,128.9736 L22.8701,128.9736 C24.5271,128.9736 25.8701,130.3166 25.8701,131.9736 C25.8701,133.6306 24.5271,134.9736 22.8701,134.9736" id="Fill-19" fill="#15003E"></path>
                                <path d="M174.8506,134.9736 L166.8086,134.9736 C165.1516,134.9736 163.8086,133.6306 163.8086,131.9736 C163.8086,130.3166 165.1516,128.9736 166.8086,128.9736 L174.8506,128.9736 C179.7186,128.9736 183.6786,125.0136 183.6786,120.1456 L183.6786,90.1046 C183.6786,85.2366 179.7186,81.2766 174.8506,81.2766 L171.4406,81.2766 C169.7836,81.2766 168.4406,79.9336 168.4406,78.2766 C168.4406,76.6196 169.7836,75.2766 171.4406,75.2766 L174.8506,75.2766 C183.0266,75.2766 189.6786,81.9286 189.6786,90.1046 L189.6786,120.1456 C189.6786,128.3216 183.0266,134.9736 174.8506,134.9736" id="Fill-21" fill="#15003E"></path>
                                <path d="M17.6406,89.7725 C16.8846,89.7725 16.1276,89.4885 15.5446,88.9185 C14.3596,87.7615 14.3366,85.8625 15.4946,84.6765 C36.9766,62.6735 65.5436,50.5565 95.9346,50.5565 C124.5566,50.5565 151.9066,61.4775 172.9466,81.3075 C174.1526,82.4445 174.2076,84.3425 173.0726,85.5485 C171.9346,86.7525 170.0366,86.8115 168.8306,85.6745 C148.9096,66.8975 123.0206,56.5565 95.9346,56.5565 C67.1736,56.5565 40.1306,68.0325 19.7866,88.8685 C19.1996,89.4705 18.4196,89.7725 17.6406,89.7725" id="Fill-23" fill="#15003E"></path>
                                <path d="M161.1914,146.5254 L28.3074,146.5254 C26.6504,146.5254 25.3074,145.1824 25.3074,143.5254 C25.3074,141.8684 26.6504,140.5254 28.3074,140.5254 L161.1914,140.5254 C162.8484,140.5254 164.1914,141.8684 164.1914,143.5254 C164.1914,145.1824 162.8484,146.5254 161.1914,146.5254" id="Fill-25" fill="#15003E"></path>
                                <path d="M122.0391,78.2764 C122.0391,85.8124 115.9311,91.9224 108.3941,91.9224 C100.8581,91.9224 94.7491,85.8124 94.7491,78.2764 C94.7491,70.7404 100.8581,64.6314 108.3941,64.6314 C115.9311,64.6314 122.0391,70.7404 122.0391,78.2764" id="Fill-27" fill="#FFFFFF"></path>
                                <path d="M131.7891,98.6758 C131.7891,101.7228 129.3191,104.1928 126.2721,104.1928 C123.2261,104.1928 120.7551,101.7228 120.7551,98.6758 C120.7551,95.6288 123.2261,93.1588 126.2721,93.1588 C129.3191,93.1588 131.7891,95.6288 131.7891,98.6758" id="Fill-29" fill="#FFFFFF"></path>
                                <path d="M141.8193,166.4873 C137.0593,166.4873 134.5963,163.5563 132.7983,161.4173 C131.1353,159.4383 130.2533,158.4873 128.3733,158.4873 C126.4943,158.4873 125.6113,159.4383 123.9493,161.4173 C122.1513,163.5563 119.6893,166.4873 114.9303,166.4873 C110.1723,166.4873 107.7093,163.5563 105.9113,161.4173 C104.2483,159.4383 103.3653,158.4873 101.4853,158.4873 C99.6033,158.4873 98.7203,159.4383 97.0573,161.4183 C95.2583,163.5563 92.7953,166.4873 88.0353,166.4873 C83.2763,166.4873 80.8133,163.5563 79.0153,161.4173 C77.3523,159.4383 76.4693,158.4873 74.5903,158.4873 C72.7073,158.4873 71.8233,159.4383 70.1583,161.4183 C68.3593,163.5573 65.8953,166.4873 61.1343,166.4873 C56.3743,166.4873 53.9103,163.5573 52.1113,161.4183 C50.4463,159.4383 49.5623,158.4873 47.6793,158.4873 C46.0223,158.4873 44.6793,157.1443 44.6793,155.4873 C44.6793,153.8303 46.0223,152.4873 47.6793,152.4873 C52.4403,152.4873 54.9043,155.4173 56.7033,157.5563 C58.3683,159.5363 59.2523,160.4873 61.1343,160.4873 C63.0173,160.4873 63.9013,159.5363 65.5663,157.5563 C67.3653,155.4173 69.8293,152.4873 74.5903,152.4873 C79.3483,152.4873 81.8113,155.4183 83.6093,157.5573 C85.2723,159.5363 86.1553,160.4873 88.0353,160.4873 C89.9173,160.4873 90.8003,159.5363 92.4653,157.5563 C94.2623,155.4173 96.7253,152.4873 101.4853,152.4873 C106.2443,152.4873 108.7073,155.4183 110.5053,157.5573 C112.1683,159.5363 113.0503,160.4873 114.9303,160.4873 C116.8103,160.4873 117.6933,159.5363 119.3553,157.5573 C121.1533,155.4183 123.6153,152.4873 128.3733,152.4873 C133.1313,152.4873 135.5943,155.4173 137.3923,157.5563 C139.0553,159.5363 139.9383,160.4873 141.8193,160.4873 C143.4763,160.4873 144.8193,161.8303 144.8193,163.4873 C144.8193,165.1443 143.4763,166.4873 141.8193,166.4873" id="Fill-31" fill="#15003E"></path>
                            </g>
                        </g>
                    </g>
                </g>
            </g>
        </g>
    </g>
</svg>