<svg width="338" height="303" viewBox="0 0 338 303" fill="none" xmlns="http://www.w3.org/2000/svg">
<path d="M113.826 168.586L180.5 86L270.5 168.586L196.018 265.981L113.826 168.586Z" fill="#5932C4"/>
<path d="M177.804 136.363C175.561 134.256 174.708 131.518 175.898 130.247C177.087 128.977 179.87 129.656 182.113 131.763C184.356 133.871 185.21 136.609 184.02 137.879C182.83 139.149 180.047 138.47 177.804 136.363Z" fill="#826ECC" stroke="#5932C4" stroke-width="2" stroke-miterlimit="10"/>
<path d="M188.37 138.311C182.302 131.998 178.622 125.687 180.15 124.215C181.678 122.742 187.835 126.666 193.902 132.979C199.97 139.292 203.65 145.603 202.122 147.076C200.595 148.548 194.438 144.624 188.37 138.311Z" fill="#826ECC" stroke="#5932C4" stroke-width="2" stroke-miterlimit="10"/>
<path d="M189.715 149.523C187.472 147.415 186.619 144.677 187.809 143.407C188.998 142.137 191.781 142.816 194.024 144.923C196.267 147.031 197.121 149.769 195.931 151.039C194.741 152.309 191.958 151.63 189.715 149.523Z" fill="#826ECC" stroke="#5932C4" stroke-width="2" stroke-miterlimit="10"/>
<path d="M172.183 143.079C172.308 143.226 172.402 143.425 172.412 143.645C172.422 143.865 172.338 144.064 172.149 144.2C172.044 144.315 171.919 144.346 171.793 144.377C171.709 144.398 171.667 144.408 171.573 144.387C171.353 144.397 171.155 144.313 171.019 144.124C170.716 143.798 170.728 143.305 171.053 143.002C171.199 142.877 171.398 142.783 171.618 142.773C171.859 142.847 172.057 142.932 172.183 143.079Z" fill="#E2E0E7"/>
<path d="M179.566 145.97C179.817 146.264 179.826 146.663 179.543 146.955C179.428 147.028 179.355 147.091 179.229 147.122C178.978 147.184 178.737 147.11 178.56 146.932C178.309 146.638 178.299 146.239 178.582 145.947C178.729 145.821 178.886 145.738 179.075 145.78C179.242 145.739 179.441 145.823 179.566 145.97Z" fill="#E2E0E7"/>
<path d="M179.98 142.974C179.907 143.037 179.791 143.11 179.666 143.141C179.582 143.161 179.54 143.172 179.488 143.14C179.31 143.14 179.111 143.055 178.986 142.908C178.861 142.761 178.777 142.604 178.778 142.426C178.778 142.247 178.862 142.049 179.009 141.923C179.292 141.63 179.742 141.653 179.993 141.947C180.285 142.231 180.263 142.681 179.98 142.974Z" fill="#E2E0E7"/>
<path d="M184.684 156.769C184.809 156.916 184.851 157.083 184.85 157.262C184.85 157.44 184.756 157.597 184.651 157.712C184.577 157.774 184.462 157.847 184.336 157.879C184.295 157.889 184.211 157.91 184.158 157.878C183.981 157.878 183.824 157.783 183.709 157.678C183.469 157.426 183.449 156.985 183.742 156.735C183.815 156.672 183.931 156.599 184.056 156.568C184.098 156.557 184.182 156.537 184.234 156.568C184.412 156.569 184.569 156.663 184.684 156.769Z" fill="#E2E0E7"/>
<path d="M182.689 149.249C182.574 149.143 182.522 148.934 182.533 148.798C182.533 148.619 182.628 148.462 182.733 148.347C182.879 148.222 183.047 148.181 183.214 148.139C183.392 148.14 183.549 148.234 183.664 148.339C183.789 148.486 183.831 148.654 183.831 148.832C183.83 149.011 183.736 149.168 183.631 149.283C183.557 149.345 183.442 149.418 183.317 149.449C183.275 149.46 183.191 149.481 183.139 149.449C182.961 149.448 182.814 149.396 182.689 149.249Z" fill="#E2E0E7"/>
<path d="M211.14 98.9758C214.996 101.984 218.633 104.645 221.86 108.343C222.298 108.858 223.833 110.749 225.504 112.828C226.976 114.645 228.166 116.221 228.959 117.271C229.379 116.989 229.756 116.718 230.165 116.394C230.551 117.055 231.178 117.434 231.837 117.404C232.225 117.353 232.497 117.197 232.686 117.061C234.143 115.765 262.629 90.0591 268.264 71.8796L268.412 71.2197C268.045 71.5331 268.476 70.5806 268.476 70.5806C269.393 67.2816 269.502 64.8503 268.723 62.0603L268.64 61.7247L268.358 61.4829C265.691 60.5848 263.011 60.7138 259.723 61.4386C240.154 65.704 213.17 93.7094 211.796 95.1625L211.565 95.4868C211.492 95.5495 211.586 95.7489 211.565 95.8431C211.354 96.2513 211.458 96.849 212.178 97.7838L211.14 98.9758Z" fill="#C2BDFF"/>
<path d="M259.252 61.5106L252.015 64.0589C252.015 64.0589 256.333 66.4182 258.307 68.6455C260.281 70.8727 263.122 73.3748 265.375 77.6256C265.375 77.6256 268.22 73.137 268.466 70.5384L267.62 69.6348C267.63 69.6768 263.3 62.9574 259.252 61.5106Z" fill="#C2BDFF"/>
<path d="M181.411 123.253C181.493 123.767 182.112 123.391 183.91 124.192C185.949 125.068 187.809 126.655 188.938 127.623C189.669 128.243 190.024 128.6 190.683 128.749C191.949 129.014 192.537 128.156 193.625 128.421C194.336 128.601 194.482 129.189 195.599 130.292C197.104 131.701 197.72 132.572 198.315 133.004C199.517 133.908 200.114 133.983 200.144 134.465C200.174 135.304 197.986 135.445 197.806 136.513C197.732 137.111 198.275 137.332 199.57 138.971C200.99 140.756 201.27 142.245 201.95 142.299C202.996 142.397 203.294 140.008 204.163 140.104C204.665 140.158 205.354 140.789 205.977 143.662C207.434 142.367 208.891 141.071 210.359 139.817C214.207 136.149 218.087 132.428 221.935 128.76L226.035 124.851L226.066 124.799C226.161 124.642 226.602 123.731 225.299 121.16C225.163 120.971 225.08 120.813 224.944 120.624C223.076 117.926 220.79 114.974 218.001 111.969C214.241 107.914 210.553 104.686 207.282 102.246C204.794 100.814 203.82 101.188 203.673 101.314L199.542 105.275L187.965 116.332C187.546 116.97 186.801 117.912 185.658 118.862C185.186 119.291 184.662 119.866 183.896 120.545C181.894 122.154 181.317 122.697 181.411 123.253Z" fill="#C2BDFF"/>
<path d="M201.478 142.728C202.313 144.124 202.886 145.362 203.292 146.286C204.75 144.99 208.818 140.955 210.276 139.66C214.124 135.991 217.962 132.281 221.81 128.612L225.92 124.746L226.046 124.536C226.141 124.379 226.57 123.961 225.267 121.39C225.099 121.61 225.121 121.159 225.121 121.159C224.985 120.97 224.923 120.897 224.787 120.707C217.376 126.683 207.876 135.712 201.478 142.728Z" fill="#F2F2F4"/>
<path d="M175.955 130.124L176.238 129.832C175.966 129.81 175.893 129.872 175.955 130.124Z" fill="#E2E0E7"/>
<path d="M231.06 113.545C230.674 112.706 230.027 112.065 229.568 111.288C229.265 110.784 228.983 110.364 228.586 110.017C231.26 107.352 233.496 104.171 236.034 101.317C240.974 95.7755 247.231 91.4219 251.409 85.3123C254.578 80.6988 256.042 76.3742 256.747 74.3743C258.525 69.3483 259.277 64.8435 259.598 61.4696C260.865 61.2005 262.487 60.9323 264.413 60.9899C265.931 61.015 267.27 61.2177 268.358 61.4827C268.462 61.5459 268.525 61.6194 268.64 61.7245C269.013 63.4129 269.199 64.8808 269.239 65.9394C269.361 67.8682 269.181 68.9368 268.791 69.879C268.707 70.0779 268.623 70.2768 268.56 70.3815C268.096 72.0991 267.412 74.0047 266.54 76.0462C265.32 78.8413 263.986 81.1749 262.716 83.0475C253.596 96.3022 243.421 107.636 232.434 117.301C232.361 117.364 232.329 117.416 232.256 117.479L232.13 117.332C232.099 117.384 232.026 117.447 231.9 117.478C231.858 117.488 231.858 117.488 231.816 117.499L231.774 117.509C232.007 116.116 231.539 114.584 231.06 113.545Z" fill="white"/>
<path d="M171.634 140.143C171.759 140.468 171.936 140.647 172.197 140.983C172.448 141.277 172.573 141.424 172.793 141.592C173.597 142.15 174.613 141.943 174.781 141.901C175.241 141.787 175.629 141.558 175.828 141.464C176.017 141.328 176.174 141.245 176.247 141.182C176.394 141.057 176.541 140.931 176.709 140.712C176.814 140.597 176.929 140.346 177.024 140.01C177.474 140.033 178.154 140.087 178.982 139.838C179.851 139.578 180.417 139.171 180.794 138.899C181.003 138.847 181.339 138.764 181.715 138.671C182.092 138.578 182.344 138.516 182.7 138.338C182.941 138.234 183.266 138.109 183.653 137.88C183.611 138.068 183.569 138.257 183.568 138.435C183.568 138.435 183.715 138.31 183.862 138.184C183.841 138.279 183.746 138.435 183.746 138.614C183.735 138.928 183.923 139.149 183.986 139.222C183.818 139.442 183.545 139.776 183.397 140.258C183.187 140.845 183.176 141.337 183.196 141.599C183.081 141.672 182.924 141.756 182.735 141.891C182.358 142.163 182.169 142.299 182.096 142.361C181.666 142.779 181.904 144.101 182.645 144.941C183.126 145.446 183.92 145.961 184.402 145.753C184.486 145.732 184.591 145.617 184.957 145.482C185.272 145.315 185.366 145.336 185.471 145.221C185.617 145.096 185.796 144.918 185.912 144.489C186.152 144.563 186.56 144.595 186.989 144.534C187.628 144.42 188.047 144.138 188.32 143.982C188.162 144.243 188.026 144.589 187.92 145.06C187.857 145.343 187.846 145.657 187.814 145.888C187.509 146.275 187.111 146.819 186.816 147.604C186.49 148.442 186.405 149.175 186.383 149.626C185.87 149.886 185.513 150.242 185.303 150.472C184.989 150.817 184.422 151.402 184.295 152.324C184.231 152.785 184.356 153.11 184.398 153.278C184.512 153.74 184.752 153.992 184.951 154.254C185.201 154.548 185.41 154.853 185.818 155.064C186.121 155.211 186.362 155.285 186.832 155.391C187.021 155.434 187.157 155.445 187.376 155.435C187.418 155.424 187.596 155.425 187.889 155.352C188.633 155.124 189.178 154.633 189.178 154.633C189.65 154.204 189.892 153.744 189.997 153.45C190.447 153.473 191.336 153.475 192.29 153.016C193.128 152.631 193.621 152.108 193.757 151.941C194.596 151.021 194.787 149.994 194.85 149.533C195.06 149.481 195.279 149.471 195.593 149.483C195.907 149.494 196.179 149.516 196.42 149.59C196.472 149.8 196.513 150.324 196.282 150.826C196.229 150.973 196.124 151.088 196.051 151.15C196.176 151.119 196.302 151.088 196.428 151.057C198.441 149.134 200.486 147.159 202.499 145.236C202.489 145.194 202.489 145.194 202.478 145.152C202.315 142.699 201.523 141.292 200.823 140.441C199.675 139.034 197.605 137.854 197.879 136.629C197.943 136.346 198.037 136.367 199.652 134.632C200.533 133.701 200.659 133.492 200.764 133.199C200.827 132.916 200.87 132.371 199.795 130.723C199.149 129.726 198.387 128.623 196.997 127.498C195.732 126.52 195.126 126.046 194.425 126.086C192.625 126.176 192.41 128.9 190.777 129.127C189.217 129.29 188.573 126.867 185.394 125.161C185.185 125.034 184.987 124.95 184.736 124.834C183.69 124.381 182.738 124.126 182.037 123.988C181.995 123.999 181.995 123.999 181.943 123.967C180.15 125.88 178.304 127.762 176.51 129.675C176.646 129.686 176.751 129.749 176.887 129.76C177.358 129.866 177.787 129.804 178.133 129.763C178.038 129.92 177.954 130.119 177.922 130.35C177.775 130.831 177.753 131.282 177.794 131.628C176.894 131.762 176.213 132.064 175.825 132.293C175.594 132.439 175.354 132.544 175.07 132.836C174.494 133.38 174.231 133.935 174.094 134.28C173.726 135.128 173.704 135.935 173.734 136.417C173.41 136.542 172.886 136.761 172.456 137.179C172.131 137.482 171.984 137.785 171.921 137.89C171.606 138.413 171.594 138.906 171.562 139.136C171.447 139.209 171.415 139.618 171.634 140.143Z" fill="#E2E0E7"/>
<path d="M180.705 136.205C179.166 136.631 177.772 137.644 176.953 139.004C175.76 138.854 174.461 139.353 173.716 140.295C173.548 140.514 173.391 140.776 173.463 141.07C173.567 141.489 174.09 141.627 174.488 141.617C175.074 141.65 175.775 141.61 176.195 141.15C176.436 140.868 176.521 140.491 176.814 140.24C177.181 139.927 177.715 139.928 178.196 139.898C178.898 139.858 179.578 139.734 180.196 139.358C180.5 139.15 180.794 138.899 181.119 138.774C181.517 138.586 181.936 138.483 182.344 138.337C183.517 137.869 184.346 136.728 184.39 135.471C184.444 134.612 183.612 132.146 182.418 132.531C181.266 132.905 180.738 135.262 180.705 136.205Z" fill="#F2F2F4"/>
<path d="M186.284 141.503C184.744 141.928 183.35 142.941 182.531 144.301C182.531 144.479 182.583 144.867 182.875 145.151C183.22 145.467 183.691 145.394 184.12 145.333C184.811 145.251 185.314 144.948 185.733 144.666C186.194 144.374 186.215 144.28 186.655 144.082C187.054 143.894 187.472 143.791 187.881 143.645C189.054 143.176 189.883 142.036 189.927 140.779C189.981 139.919 189.149 137.454 187.955 137.839C186.845 138.203 186.317 140.559 186.284 141.503Z" fill="#F2F2F4"/>
<path d="M192.677 147.756C192.258 147.681 191.233 147.49 190.248 148.001C188.876 148.741 188.108 150.49 188.345 152.345C187.749 152.27 187.1 152.342 186.534 152.571C185.77 152.894 185.35 153.354 185.067 153.647C184.93 153.814 184.826 153.929 184.815 154.065C184.793 154.516 185.588 154.853 185.839 154.969C186.09 155.085 186.832 155.391 187.712 155.173C188.005 155.101 188.633 154.945 189.001 154.454C189.41 153.952 189.149 153.616 189.516 153.302C189.956 152.926 190.478 153.42 191.567 153.151C191.735 153.109 192.237 152.985 192.803 152.577C192.919 152.504 193.254 152.243 193.611 151.71C194.398 150.58 194.106 149.94 194.725 149.386C195.343 148.832 195.929 149.222 196.243 148.876C197.146 147.852 194.402 143.233 193.281 143.555C192.957 143.68 192.516 144.412 192.677 147.756Z" fill="#F2F2F4"/>
<path d="M197.688 148.964C197.824 148.975 198.172 147.509 197.871 146.114C197.197 142.853 193.14 141.186 193.045 141.343C192.94 141.458 196.297 142.986 197.284 146.437C197.606 147.738 197.552 148.953 197.688 148.964Z" fill="#F2F2F4"/>
<path d="M181.271 124.846L189.183 130.768L194.485 127.585C192.913 128.776 191.675 129.883 190.857 130.709C188.309 133.165 188.885 133.335 186.998 134.87C186.18 135.518 185.352 136.123 185.466 136.585C185.602 136.952 186.251 136.88 187.255 137.344C188.572 137.998 188.623 138.742 189.188 138.869C191.155 139.273 193.434 129.982 196.238 130.001C196.866 130.023 197.786 130.508 198.902 132.858C196.018 135.576 193.187 138.325 190.304 141.042C190.545 140.938 196.347 138.7 200.224 141.97C201.352 142.937 202.041 144.102 202.415 145.078C202.253 142.625 201.46 141.219 200.761 140.368C199.612 138.96 197.542 137.781 197.817 136.555C197.88 136.272 197.974 136.294 199.589 134.558C200.47 133.628 200.596 133.419 200.701 133.125C200.765 132.843 200.808 132.298 199.733 130.649C199.086 129.652 198.324 128.549 196.934 127.424C195.67 126.446 195.064 125.973 194.362 126.013C192.562 126.102 192.347 128.827 190.714 129.053C189.154 129.216 188.51 126.794 185.332 125.087C185.123 124.961 184.924 124.876 184.673 124.76C183.627 124.307 182.675 124.053 181.975 123.915L181.271 124.846Z" fill="#BFBFBF"/>
<path d="M181.709 131.282C183.517 132.838 183.882 133.059 183.924 133.049C183.998 132.986 182.451 131.944 182.045 130.486C181.713 129.322 182.02 127.51 184.673 124.76C183.617 124.265 182.759 124.21 182.016 124.083L176.196 129.842C176.51 129.853 177.023 129.949 177.714 129.867C177.514 130.139 177.829 129.972 177.839 130.014C177.922 130.171 178.194 130.193 178.362 130.152C178.666 130.121 179.137 130.049 179.66 130.187C180.769 130.357 181.458 130.988 181.709 131.282Z" fill="#CCCCCC"/>
<path d="M175.955 130.124L176.238 129.832C175.966 129.81 175.893 129.872 175.955 130.124Z" fill="#CCCCCC"/>
<path d="M210.15 139.513C213.904 136.001 217.658 132.49 221.422 129.02C221.62 129.283 221.912 129.745 222.068 130.374C222.255 131.129 222.18 131.726 222.138 132.093C221.663 133.947 221.189 135.801 220.714 137.655L216.757 143.754L212.991 147.758C213.14 146.92 213.288 146.082 213.467 145.192C213.353 144.552 213.156 143.755 212.812 142.905C212.198 141.499 211.415 140.491 210.819 139.881C210.568 139.765 210.359 139.639 210.15 139.513Z" fill="#02E2AC"/>
<path d="M188.185 116.501C191.834 112.926 195.525 109.341 199.164 105.725C198.892 105.525 198.516 105.262 197.982 105.082C197.208 104.829 196.539 104.816 196.151 104.868C194.288 105.24 192.434 105.654 190.571 106.026L184.273 109.678L180.101 113.293C181.137 113.17 182.184 113.089 183.178 112.976C184.067 113.335 184.904 113.662 185.793 114.021C186.316 114.337 186.984 114.884 187.569 115.629C187.862 115.913 188.028 116.228 188.185 116.501Z" fill="#02E2AC"/>
<path d="M201.049 126.628L209.682 121.82L211.454 120.536L212.273 118.997L212.886 115.907L212.96 115.666L212.625 115.571L212.175 115.727L208.993 115.98L207.452 116.94L201.049 126.628Z" fill="#02E2AC"/>
<path d="M201.049 126.628L209.682 121.82L211.454 120.536L212.273 118.997L212.886 115.907L201.049 126.628Z" fill="#0DB589"/>
<path d="M193.995 110.521L188.343 115.883C188.343 115.883 184.435 112.487 182.383 112.995C182.425 112.985 187.12 109.863 193.995 110.521Z" fill="#0DB589"/>
<path d="M216.399 134.048C214.501 135.898 212.603 137.748 210.705 139.598C210.705 139.598 213.931 143.652 213.362 145.663C213.939 144.763 214.485 143.738 214.98 142.502C216.294 139.194 216.468 136.123 216.399 134.048Z" fill="#0DB589"/>
<path d="M207.176 102.717C207.176 102.717 208.901 103.581 208.954 103.613C214.631 106.437 221.948 116.958 221.948 116.958C222.636 117.945 223.68 119.468 224.838 121.452C227.061 119.299 229.242 117.156 231.465 115.003C231.455 114.961 231.444 114.919 231.392 114.888C230.058 112.19 227.951 108.527 224.556 104.87C220.619 100.636 216.594 98.026 213.719 96.4671L211.769 98.2855L207.176 102.717Z" fill="#02E2AC"/>
<path d="M214.357 96.888L214.283 96.9507L208.212 102.772L208.003 103.002L207.637 102.603L207.784 102.477L212.345 98.0983L212.702 97.7429L213.782 96.7187L214.033 96.4784L214.357 96.888Z" fill="#0DB589"/>
<path d="M216.375 97.8579L209.842 104.15L210.208 104.549L216.741 98.2571L216.375 97.8579Z" fill="#0DB589"/>
<path d="M219.103 99.7202L212.35 106.2L212.716 106.599L219.468 100.119L219.103 99.7202Z" fill="#0DB589"/>
<path d="M221.527 101.97L214.774 108.45L215.14 108.849L221.892 102.369L221.527 101.97Z" fill="#0DB589"/>
<path d="M230.663 113.198L224.13 119.49L224.496 119.889L231.018 113.555L230.663 113.198Z" fill="#0DB589"/>
<path d="M228.869 110.081L222.116 116.561L222.481 116.96L229.234 110.48L228.869 110.081Z" fill="#0DB589"/>
<path d="M227.052 107.592L220.299 114.072L220.665 114.471L227.418 107.991L227.052 107.592Z" fill="#0DB589"/>
<path d="M224.222 104.775L217.469 111.255L217.834 111.654L224.587 105.175L224.222 104.775Z" fill="#0DB589"/>
<path d="M211.821 98.3171C212.281 98.5594 213.348 99.0968 213.4 99.1284C219.078 101.953 226.394 112.474 226.394 112.474C227.083 113.461 228.126 114.984 229.326 116.957C230.039 116.247 230.763 115.578 231.434 114.877C230.099 112.18 227.992 108.517 224.598 104.86C220.661 100.626 216.636 98.0156 213.761 96.4567L211.821 98.3171Z" fill="#0DB589"/>
<path d="M217.26 110.773L217.114 110.898L216.904 111.128C207.295 101.041 204.29 101.651 203.997 101.723L184.252 120.546L183.822 120.964L181.453 123.243C182.729 123.372 185.826 124.208 190.725 128.739L192.445 127.066L192.843 126.701L193.703 125.864C193.766 125.76 193.882 125.687 194.049 125.645C194.813 125.501 196.391 126.668 198.731 129.117L198.333 129.482C197.079 128.19 196.212 127.38 195.564 126.918C195.397 126.781 195.24 126.686 195.125 126.581C194.331 126.065 194.132 126.159 194.132 126.159L193.702 126.577L193.272 126.995L191.867 128.322L191.437 128.741L190.755 129.399L190.578 129.22C190.118 128.8 189.658 128.379 189.209 128.001C186.169 125.414 184.004 124.392 182.602 123.937C182.362 123.863 182.174 123.821 182.027 123.768C181.274 123.599 180.928 123.64 180.887 123.65L180.028 123.773L188.05 116.133L188.448 115.768L194.1 110.406L194.498 110.041L199.238 105.484L199.668 105.066L203.799 101.104C203.956 101.021 204.92 100.604 207.418 102.078C207.575 102.173 207.732 102.268 207.889 102.363C208.411 102.679 209.007 103.11 209.707 103.604C209.822 103.71 209.979 103.804 210.146 103.941C210.805 104.446 211.484 105.035 212.268 105.686C212.383 105.792 212.55 105.928 212.665 106.033C213.302 106.633 213.991 107.263 214.744 107.968C214.859 108.073 214.984 108.22 215.099 108.325C215.704 109.154 216.425 109.911 217.26 110.773Z" fill="#5932C4"/>
<path d="M232.278 116.85C232.288 116.892 232.299 116.934 232.309 116.976C232.298 117.112 232.256 117.301 232.12 117.468C232.088 117.52 232.015 117.583 231.889 117.614C231.847 117.625 231.847 117.625 231.805 117.635C231.387 117.739 230.78 117.444 229.976 116.708C229.913 116.634 229.808 116.571 229.735 116.456L230.082 116.058C230.196 116.163 230.259 116.237 230.364 116.3C231.325 117.131 231.618 117.058 231.702 117.037C231.786 117.017 231.796 116.88 231.796 116.88C231.756 116.356 231.662 115.8 231.475 115.223C231.434 115.056 231.34 114.856 231.298 114.688C231.142 114.237 230.892 113.765 230.642 113.293C230.558 113.135 230.475 112.978 230.391 112.82C229.974 112.033 229.463 111.225 228.92 110.469C228.795 110.322 228.711 110.164 228.586 110.017C227.991 109.23 227.396 108.442 226.874 107.77C226.749 107.623 226.623 107.476 226.55 107.36C225.297 105.889 224.336 104.881 224.326 104.839L223.961 104.439L223.595 104.04C223.585 103.998 222.822 103.252 221.662 102.159C221.547 102.054 221.422 101.907 221.265 101.812C220.638 101.255 219.897 100.592 219.113 99.9405C218.998 99.8354 218.831 99.6987 218.674 99.6039C217.953 99.0256 217.19 98.4575 216.448 97.9734C216.291 97.8787 216.134 97.7839 215.978 97.6892C215.34 97.2682 214.671 96.8996 214.022 96.6148C213.824 96.5305 213.677 96.4777 213.479 96.3933C212.893 96.1821 212.328 96.0548 211.815 95.9591C211.815 95.9591 211.732 95.9798 211.7 96.0321C211.669 96.0845 211.616 96.4092 212.399 97.4175C212.461 97.491 212.534 97.6065 212.649 97.7116L212.251 98.0774C212.188 98.0038 212.115 97.8884 212.053 97.8148C211.343 96.922 211.051 96.2819 211.261 95.8737C211.282 95.7795 211.355 95.7168 211.429 95.6541C211.576 95.5287 211.785 95.4769 211.869 95.4561C211.911 95.4458 211.963 95.4774 212.005 95.467C216.776 96.0668 223.701 103.391 224.004 103.716L224.777 104.504C224.933 104.777 231.942 112.08 232.278 116.85Z" fill="#5932C4"/>
<path d="M268.964 61.778C269.733 64.526 269.528 67.6487 268.664 70.9793C263.372 90.3651 233.702 116.319 232.245 117.615L232.12 117.468L231.921 117.206C231.963 117.195 232.068 117.08 232.32 116.84C235.014 114.436 250.196 100.706 260.156 86.3527C260.293 86.1854 260.387 86.0284 260.513 85.8192C262.308 83.1933 263.925 80.567 265.249 78.0132C265.333 77.8143 265.459 77.605 265.543 77.4061C266.636 75.1767 267.529 73.041 268.12 70.9359C268.193 70.6951 268.257 70.4123 268.32 70.1294C269.016 67.1967 269.168 64.3987 268.472 61.9443L268.462 61.9024L268.409 61.8708C265.941 61.0571 263.136 61.0391 260.089 61.6597C259.838 61.7219 259.587 61.7841 259.335 61.8463C257.231 62.3228 255.021 63.0924 252.737 64.1029C252.538 64.1967 252.339 64.2905 252.14 64.3843C249.5 65.5719 246.808 67.0844 244.073 68.7854C243.915 68.8688 243.727 69.0046 243.57 69.088C228.805 78.3971 214.354 92.9265 211.879 95.4981C211.669 95.7281 211.523 95.8535 211.491 95.9058L211.261 95.6956L211.094 95.5589C212.646 93.9281 249.855 55.155 268.483 61.4518L268.839 61.4527L268.964 61.778Z" fill="#5932C4"/>
<path d="M214.044 96.5205L213.97 96.5832L207.784 102.478L207.532 102.718L207.167 102.319L207.313 102.193L211.948 97.7516L212.347 97.3859L213.427 96.3617L213.678 96.1213L214.044 96.5205Z" fill="#5932C4"/>
<path d="M195.7 126.75L195.522 126.928L194.191 128.192L193.865 128.495L192.785 129.52L192.46 129.823L191.38 130.847L191.055 131.15L189.975 132.174L189.65 132.477L188.57 133.501L188.245 133.805L187.165 134.829L186.84 135.132L185.76 136.156L185.435 136.459L185.11 136.762L183.925 137.901C183.852 137.964 183.82 138.016 183.747 138.079C183.611 138.246 183.453 138.33 183.453 138.33L183.255 138.067L183.13 137.92L183.528 137.554C183.843 137.209 184.189 136.634 184.264 135.859C184.371 134.674 183.777 133.352 182.451 131.944C180.654 130.074 178.959 129.692 177.735 129.773C176.426 129.874 175.64 130.469 175.609 130.521L175.243 130.122L181.859 123.81L182.185 123.506L182.55 123.906L182.477 123.968L181.827 124.575L181.25 125.118L180.526 125.787L179.95 126.33L179.226 126.999L178.65 127.543L177.926 128.211L176.741 129.351C178.155 128.956 180.426 128.973 182.828 131.495C184.27 133.008 184.937 134.445 184.788 135.818C184.787 135.996 184.745 136.185 184.692 136.331L185.521 135.547L186.276 134.826L186.779 134.346L187.534 133.624L188.037 133.144L188.792 132.423L189.296 131.942L190.082 131.168L191.267 130.029L191.844 129.486L193.102 128.284L193.679 127.74L194.895 126.549L195.147 126.308L195.7 126.75Z" fill="#5932C4"/>
<path d="M199.667 105.244L199.426 105.704C199.426 105.704 199.321 105.641 199.133 105.599C198.045 105.156 193.809 104.023 186.997 108.291C186.578 108.573 186.117 108.865 185.698 109.147C184.294 110.118 182.815 111.33 181.211 112.751C182.635 112.576 185.387 112.741 188.375 115.83C188.427 115.862 188.437 115.904 188.49 115.936L188.091 116.301C188.039 116.27 188.029 116.228 187.976 116.196C183.986 112.108 180.404 113.44 180.373 113.493L179.116 113.982L180.122 113.02C191.625 102.025 198.538 104.633 199.552 105.139C199.615 105.212 199.667 105.244 199.667 105.244Z" fill="#5932C4"/>
<path d="M194.172 110.7C190.997 107.39 185.708 109.189 185.666 109.199L185.5 108.706C185.741 108.602 191.166 106.814 194.581 110.376L194.172 110.7Z" fill="#5932C4"/>
<path d="M192.57 127.213C187.536 121.959 183.822 120.964 183.77 120.932L183.907 120.409C184.054 120.462 187.809 121.446 192.969 126.847L192.57 127.213Z" fill="#5932C4"/>
<path d="M185.991 136.01L185.594 135.663C185.594 135.663 186.842 134.063 183.605 130.679C180.356 127.254 178.083 128.306 177.999 128.327L177.749 127.855C177.864 127.782 180.41 126.573 184.003 130.314C187.606 134.096 186.064 135.947 185.991 136.01Z" fill="#5932C4"/>
<path d="M187.291 134.798L186.894 134.451C186.894 134.451 188.143 132.85 184.905 129.467C181.656 126.041 179.383 127.094 179.299 127.115L179.049 126.642C179.164 126.569 181.71 125.36 185.303 129.101C188.896 132.842 187.364 134.735 187.291 134.798Z" fill="#5932C4"/>
<path d="M188.591 133.586L188.194 133.239C188.194 133.239 189.443 131.638 186.205 128.255C182.956 124.829 180.683 125.882 180.599 125.903L180.349 125.43C180.464 125.357 183.01 124.148 186.603 127.889C190.154 131.64 188.612 133.491 188.591 133.586Z" fill="#5932C4"/>
<path d="M189.839 132.342L189.442 131.995C189.442 131.995 190.795 130.279 187.505 127.043C184.141 123.69 181.952 124.722 181.91 124.732L181.66 124.26C181.775 124.187 184.205 123.051 187.861 126.687C191.559 130.313 189.912 132.279 189.839 132.342Z" fill="#5932C4"/>
<path d="M191.957 130.303L191.434 130.166C191.656 129.265 191.28 128.467 191.28 128.467L191.762 128.259C191.762 128.259 192.221 129.214 191.957 130.303Z" fill="#5932C4"/>
<path d="M193.792 128.558L193.269 128.42C193.491 127.52 193.116 126.722 193.116 126.722L193.597 126.514C193.597 126.514 194.056 127.469 193.792 128.558Z" fill="#5932C4"/>
<path d="M226.108 124.788L226.077 124.841L221.977 128.749L221.547 129.168L216.808 133.724L216.409 134.09L210.757 139.452L210.359 139.817L202.348 147.499L202.538 146.651C202.538 146.651 202.622 146.274 202.477 145.508C202.436 145.34 202.384 145.131 202.332 144.921C201.989 143.536 201.031 141.281 198.609 138.14C198.275 137.689 197.878 137.164 197.45 136.691L197.272 136.512L197.996 135.843L198.426 135.425L199.82 134.056L200.25 133.638L200.607 133.282C200.618 133.146 200.576 132.8 200.305 132.244C200.222 132.087 200.139 131.929 200.055 131.772C199.69 131.194 199.158 130.48 198.301 129.535L198.7 129.169C201.467 132.09 201.203 133.357 201.193 133.494L201.161 133.546L200.186 134.455L199.788 134.821L198.068 136.493C202.318 141.63 203.044 144.745 203.094 146.023L205.464 143.745L205.894 143.327L225.638 124.504C225.712 124.263 226.482 121.268 216.82 111.149L217.03 110.919L217.177 110.793C217.302 110.94 217.417 111.046 217.542 111.193C218.388 112.096 219.13 112.937 219.808 113.704C219.934 113.851 220.049 113.956 220.174 114.103C220.853 114.87 221.437 115.616 222.001 116.277C222.127 116.424 222.21 116.582 222.325 116.687C222.972 117.506 223.515 118.262 223.943 118.913C224.026 119.071 224.152 119.218 224.235 119.375C224.527 119.837 224.809 120.257 224.997 120.656C225.08 120.813 225.163 120.971 225.247 121.128C226.634 123.679 226.203 124.631 226.108 124.788Z" fill="#5932C4"/>
<path d="M231.654 115.046L231.402 115.286L230.322 116.31L229.923 116.676L225.289 121.118L225.142 121.243L224.776 120.844L225.028 120.604L231.215 114.709L231.288 114.646L231.654 115.046Z" fill="#5932C4"/>
<path d="M190.491 141.619L190.061 142.037C190.228 141.995 190.406 141.996 190.574 141.954C191.317 141.904 192.133 142.147 192.917 142.621L192.969 142.652C193.022 142.684 193.063 142.674 193.074 142.716C193.178 142.779 193.283 142.842 193.387 142.905C193.44 142.937 193.492 142.968 193.502 143.01C193.931 143.305 194.338 143.694 194.756 144.125C196.563 146.037 196.947 147.767 196.881 149.119C196.892 149.161 196.892 149.161 196.86 149.213C196.828 149.622 196.744 149.999 196.638 150.292L197.823 149.153L198.547 148.484L199.123 147.941L199.847 147.272L200.424 146.729L201.147 146.06L201.724 145.516L202.374 144.91L202.447 144.848L202.813 145.247L202.488 145.55L195.871 151.862L195.474 151.515C195.506 151.463 196.125 150.731 196.315 149.526C196.496 148.28 196.248 146.56 194.378 144.574C193.835 143.996 193.334 143.586 192.811 143.27C192.706 143.207 192.602 143.144 192.497 143.081C191.828 142.712 191.211 142.553 190.594 142.573C189.934 142.602 189.421 142.863 189.033 143.092C188.991 143.103 188.918 143.166 188.886 143.218L188.498 143.626L188.446 143.594L188.279 143.457L188.101 143.279C188.143 143.268 188.269 143.059 188.573 142.85L188.646 142.788L189.653 141.826L189.947 141.575L190.062 141.502L190.387 141.199L190.492 141.084L191.467 140.175L191.897 139.757L192.872 138.848L193.302 138.43L194.277 137.52L194.707 137.102L195.682 136.193L196.112 135.775L197.087 134.866L197.517 134.448L198.492 133.539L198.922 133.12L200.107 131.981L200.327 131.793L200.693 132.192L200.41 132.485L199.225 133.624L198.648 134.168L197.39 135.37L196.813 135.913L195.628 137.052L194.842 137.826L194.296 138.317L193.541 139.038L193.038 139.519L192.241 140.25L191.738 140.731L190.983 141.452L190.491 141.619Z" fill="#5932C4"/>
<path d="M213.18 147.801L212.215 148.752L212.751 147.506C212.804 147.359 214.265 143.926 210.391 139.765C210.338 139.733 210.328 139.691 210.276 139.66L210.674 139.294C210.726 139.325 210.737 139.367 210.789 139.399C213.703 142.551 213.76 145.297 213.538 146.732C215.069 145.196 216.317 143.774 217.356 142.404C217.692 141.964 217.985 141.535 218.29 141.149C222.834 134.547 221.953 130.269 221.579 129.115C221.527 128.905 221.464 128.832 221.464 128.832L221.935 128.581C221.935 128.581 221.956 128.665 222.009 128.697C222.425 129.84 224.651 136.858 213.18 147.801Z" fill="#5932C4"/>
<path d="M217.816 142.646L217.324 142.456C217.356 142.404 219.354 137.19 216.221 133.869L216.619 133.504C219.993 137.076 217.931 142.395 217.816 142.646Z" fill="#5932C4"/>
<path d="M206.019 143.652L205.506 143.735C205.495 143.693 204.697 139.928 199.652 134.632L200.05 134.266C205.168 139.678 205.977 143.484 206.019 143.652Z" fill="#5932C4"/>
<path d="M198.294 149.438L197.834 149.195L198.043 149.322L197.834 149.195C197.897 149.091 199.042 146.893 195.752 143.478C192.514 140.094 190.889 141.253 190.847 141.263L190.524 140.854C190.597 140.791 192.547 139.329 196.108 143.122C199.691 146.821 198.357 149.333 198.294 149.438Z" fill="#5932C4"/>
<path d="M199.594 148.225L199.134 147.983L199.343 148.109L199.134 147.983C199.197 147.878 200.342 145.68 197.052 142.265C193.814 138.882 192.19 140.041 192.148 140.051L191.824 139.641C191.897 139.579 193.847 138.117 197.408 141.91C200.991 145.609 199.657 148.121 199.594 148.225Z" fill="#5932C4"/>
<path d="M200.884 146.971L200.424 146.728C200.487 146.624 201.632 144.426 198.341 141.011C195.104 137.627 193.479 138.786 193.437 138.797L193.114 138.387C193.187 138.324 195.136 136.862 198.698 140.655C202.281 144.354 200.947 146.866 200.884 146.971Z" fill="#5932C4"/>
<path d="M202.131 145.727L201.671 145.485L201.88 145.611L201.63 145.495C201.63 145.495 202.733 143.308 199.589 139.767C196.456 136.269 194.737 137.585 194.737 137.585L194.414 137.175C194.487 137.112 196.541 135.535 199.988 139.401C203.424 143.226 202.194 145.623 202.131 145.727Z" fill="#5932C4"/>
<path d="M198.362 135.886C198.362 135.886 197.546 135.464 196.656 135.64L196.574 135.126C197.673 134.899 198.593 135.383 198.645 135.415L198.362 135.886Z" fill="#5932C4"/>
<path d="M200.197 134.141C200.197 134.141 199.381 133.719 198.491 133.895L198.409 133.381C199.508 133.153 200.428 133.638 200.48 133.67L200.197 134.141Z" fill="#5932C4"/>
<path d="M260.187 86.4785C255.77 76.1744 243.653 69.0672 243.497 68.9724L243.791 68.5435C243.895 68.6067 256.221 75.8402 260.669 86.2702L260.187 86.4785Z" fill="#5932C4"/>
<path d="M265.238 78.1495C261.758 70.0175 252.182 64.3739 252.077 64.3108L252.361 63.8399C252.465 63.903 262.188 69.5994 265.761 77.9308L265.238 78.1495Z" fill="#5932C4"/>
<path d="M268.664 70.9792L268.182 71.1875C268.161 71.1036 268.109 71.072 268.088 70.9881C265.879 66.0143 260.381 62.4779 259.325 61.8043C259.22 61.7411 259.168 61.7095 259.168 61.7095L259.451 61.2386C259.504 61.2702 259.713 61.3966 260.079 61.6176C261.678 62.691 266.099 65.8262 268.288 70.1816C268.403 70.4649 268.549 70.6959 268.664 70.9792Z" fill="#5932C4"/>
<path d="M216.104 97.4799L209.414 103.855L209.779 104.254L216.469 97.8792L216.104 97.4799Z" fill="#5932C4"/>
<path d="M218.832 99.3422L211.932 105.948L212.298 106.347L219.197 99.7415L218.832 99.3422Z" fill="#5932C4"/>
<path d="M221.318 101.665L214.418 108.271L214.784 108.67L221.684 102.064L221.318 101.665Z" fill="#5932C4"/>
<path d="M230.528 112.653L223.838 119.028L224.203 119.427L230.893 113.052L230.528 112.653Z" fill="#5932C4"/>
<path d="M228.796 109.787L221.896 116.393L222.262 116.792L229.162 110.187L228.796 109.787Z" fill="#5932C4"/>
<path d="M226.603 107.213L219.704 113.819L220.069 114.218L226.969 107.613L226.603 107.213Z" fill="#5932C4"/>
<path d="M223.982 104.345L217.082 110.95L217.448 111.349L224.347 104.744L223.982 104.345Z" fill="#5932C4"/>
<path d="M243.038 73.2264C243.457 73.1227 243.709 72.7042 243.605 72.2847C243.502 71.8652 243.083 71.6125 242.665 71.7162C242.246 71.8198 241.994 72.2384 242.098 72.6579C242.201 73.0774 242.62 73.3301 243.038 73.2264Z" fill="#5932C4"/>
<path d="M248.304 77.7997C248.723 77.696 248.975 77.2774 248.871 76.8579C248.767 76.4384 248.349 76.1857 247.93 76.2894C247.512 76.3931 247.26 76.8116 247.363 77.2312C247.467 77.6507 247.927 77.893 248.304 77.7997Z" fill="#5932C4"/>
<path d="M216.998 95.1659C217.417 95.0622 217.669 94.6436 217.565 94.2241C217.461 93.8046 217.043 93.5519 216.624 93.6556C216.205 93.7593 215.953 94.1778 216.057 94.5974C216.203 95.0065 216.579 95.2695 216.998 95.1659Z" fill="#5932C4"/>
<path d="M221.952 98.659C222.371 98.5553 222.623 98.1368 222.519 97.7173C222.415 97.2978 221.997 97.0451 221.578 97.1488C221.159 97.2525 220.907 97.671 221.011 98.0905C221.157 98.4997 221.575 98.7523 221.952 98.659Z" fill="#5932C4"/>
<path d="M233.271 112.241C233.69 112.138 233.942 111.719 233.838 111.3C233.734 110.88 233.316 110.627 232.897 110.731C232.478 110.835 232.226 111.253 232.33 111.673C232.434 112.092 232.852 112.345 233.271 112.241Z" fill="#5932C4"/>
<path d="M226.402 103.167C226.82 103.063 227.072 102.645 226.969 102.225C226.865 101.806 226.447 101.553 226.028 101.657C225.609 101.761 225.357 102.179 225.461 102.599C225.565 103.018 225.983 103.271 226.402 103.167Z" fill="#5932C4"/>
<path d="M205.956 105.69C206.375 105.587 206.627 105.168 206.523 104.749C206.42 104.329 206.001 104.076 205.583 104.18C205.164 104.284 204.912 104.702 205.016 105.122C205.13 105.583 205.538 105.794 205.956 105.69Z" fill="#5932C4"/>
<path d="M210.921 109.225C211.34 109.122 211.592 108.703 211.488 108.283C211.384 107.864 210.966 107.611 210.547 107.715C210.128 107.819 209.876 108.237 209.98 108.657C210.084 109.076 210.502 109.329 210.921 109.225Z" fill="#5932C4"/>
<path d="M223.326 123.963C223.745 123.859 223.997 123.441 223.893 123.021C223.789 122.602 223.371 122.349 222.952 122.453C222.533 122.556 222.281 122.975 222.385 123.394C222.489 123.814 222.907 124.067 223.326 123.963Z" fill="#5932C4"/>
<path d="M151.499 138.893C151.802 139.219 151.78 139.67 151.455 139.973C151.13 140.276 150.68 140.254 150.377 139.928C150.075 139.602 150.096 139.152 150.421 138.849C150.757 138.587 151.249 138.599 151.499 138.893Z" fill="#5932C4"/>
<path d="M150.375 100.454C150.083 100.17 150.094 99.6779 150.419 99.3749C150.744 99.0718 151.194 99.094 151.497 99.4197C151.8 99.7454 151.778 100.196 151.453 100.499C151.17 100.792 150.678 100.78 150.375 100.454Z" fill="#5932C4"/>
<path d="M203.49 82.3926C203.793 82.7184 203.772 83.169 203.446 83.472C203.121 83.7751 202.671 83.7529 202.369 83.4272C202.076 83.1434 202.087 82.6509 202.413 82.3478C202.706 82.0971 203.198 82.1089 203.49 82.3926Z" fill="#5932C4"/>
<path d="M212.497 56.4197C212.8 56.7454 212.778 57.196 212.453 57.4991C212.128 57.8022 211.678 57.78 211.375 57.4543C211.072 57.1285 211.094 56.6779 211.419 56.3748C211.744 56.0718 212.194 56.094 212.497 56.4197Z" fill="#5932C4"/>
<path d="M234.004 143.937C234.297 144.221 234.286 144.713 233.96 145.016C233.635 145.319 233.185 145.297 232.883 144.972C232.58 144.646 232.601 144.195 232.927 143.892C233.252 143.589 233.743 143.601 234.004 143.937Z" fill="#5932C4"/>
<path d="M264.497 141.42C264.79 141.703 264.778 142.196 264.453 142.499C264.128 142.802 263.678 142.78 263.375 142.454C263.072 142.129 263.094 141.678 263.419 141.375C263.744 141.072 264.236 141.084 264.497 141.42Z" fill="#5932C4"/>
<path d="M259.497 117.42C259.79 117.703 259.778 118.196 259.453 118.499C259.128 118.802 258.678 118.78 258.375 118.454C258.072 118.129 258.094 117.678 258.419 117.375C258.744 117.072 259.236 117.084 259.497 117.42Z" fill="#5932C4"/>
<path d="M289.497 76.4199C289.79 76.7037 289.778 77.1963 289.453 77.4993C289.128 77.8024 288.678 77.7802 288.375 77.4545C288.072 77.1288 288.094 76.6782 288.419 76.3751C288.744 76.072 289.236 76.0838 289.497 76.4199Z" fill="#5932C4"/>
<path d="M296.497 151.42C296.79 151.703 296.778 152.196 296.453 152.499C296.128 152.802 295.678 152.78 295.375 152.454C295.072 152.129 295.094 151.678 295.419 151.375C295.744 151.072 296.236 151.084 296.497 151.42Z" fill="#5932C4"/>
<path d="M264.497 210.42C264.79 210.703 264.778 211.196 264.453 211.499C264.128 211.802 263.678 211.78 263.375 211.454C263.072 211.129 263.094 210.678 263.419 210.375C263.744 210.072 264.236 210.084 264.497 210.42Z" fill="#5932C4"/>
<path d="M218.497 259.42C218.79 259.704 218.778 260.196 218.453 260.499C218.128 260.802 217.678 260.78 217.375 260.454C217.072 260.129 217.094 259.678 217.419 259.375C217.744 259.072 218.236 259.084 218.497 259.42Z" fill="#5932C4"/>
<path d="M116.497 56.4199C116.79 56.7037 116.778 57.1963 116.453 57.4993C116.128 57.8024 115.678 57.7802 115.375 57.4545C115.072 57.1288 115.094 56.6782 115.419 56.3751C115.744 56.072 116.236 56.0838 116.497 56.4199Z" fill="#5932C4"/>
<path d="M161.497 64.4197C161.79 64.7034 161.778 65.196 161.453 65.4991C161.128 65.8021 160.678 65.78 160.375 65.4543C160.072 65.1285 160.094 64.6779 160.419 64.3748C160.744 64.0718 161.236 64.0836 161.497 64.4197Z" fill="#5932C4"/>
<path d="M72.4972 121.42C72.7897 121.704 72.7783 122.196 72.4532 122.499C72.1282 122.802 71.6782 122.78 71.3753 122.454C71.0724 122.129 71.0943 121.678 71.4193 121.375C71.7443 121.072 72.2362 121.084 72.4972 121.42Z" fill="#5932C4"/>
<path d="M46.4971 187.42C46.7896 187.703 46.7782 188.196 46.4532 188.499C46.1281 188.802 45.6781 188.78 45.3752 188.454C45.0724 188.129 45.0942 187.678 45.4192 187.375C45.7443 187.072 46.2361 187.084 46.4971 187.42Z" fill="#5932C4"/>
<path d="M94.497 189.42C94.7895 189.703 94.7781 190.196 94.4531 190.499C94.128 190.802 93.678 190.78 93.3751 190.454C93.0723 190.129 93.0941 189.678 93.4191 189.375C93.7441 189.072 94.236 189.084 94.497 189.42Z" fill="#5932C4"/>
<path d="M45.4971 246.42C45.7896 246.703 45.7782 247.196 45.4532 247.499C45.1281 247.802 44.6781 247.78 44.3752 247.454C44.0724 247.129 44.0942 246.678 44.4192 246.375C44.7442 246.072 45.2361 246.084 45.4971 246.42Z" fill="#5932C4"/>
<path d="M134.497 227.42C134.79 227.703 134.778 228.196 134.453 228.499C134.128 228.802 133.678 228.78 133.375 228.454C133.072 228.129 133.094 227.678 133.419 227.375C133.744 227.072 134.236 227.084 134.497 227.42Z" fill="#5932C4"/>
<path d="M105.497 289.42C105.79 289.703 105.778 290.196 105.453 290.499C105.128 290.802 104.678 290.78 104.375 290.454C104.072 290.129 104.094 289.678 104.419 289.375C104.744 289.072 105.236 289.084 105.497 289.42Z" fill="#5932C4"/>
<path d="M154.497 266.42C154.79 266.703 154.778 267.196 154.453 267.499C154.128 267.802 153.678 267.78 153.375 267.454C153.072 267.129 153.094 266.678 153.419 266.375C153.744 266.072 154.236 266.084 154.497 266.42Z" fill="#5932C4"/>
<path d="M195.497 27.4197C195.79 27.7034 195.778 28.196 195.453 28.4991C195.128 28.8021 194.678 28.78 194.375 28.4543C194.072 28.1285 194.094 27.6779 194.419 27.3748C194.744 27.0718 195.236 27.0836 195.497 27.4197Z" fill="#5932C4"/>
<path d="M202.497 182.42C202.79 182.703 202.778 183.196 202.453 183.499C202.128 183.802 201.678 183.78 201.375 183.454C201.072 183.129 201.094 182.678 201.419 182.375C201.744 182.072 202.236 182.084 202.497 182.42Z" fill="#FFCC00"/>
<path d="M229.497 147.42C229.79 147.703 229.778 148.196 229.453 148.499C229.128 148.802 228.678 148.78 228.375 148.454C228.072 148.129 228.094 147.678 228.419 147.375C228.744 147.072 229.236 147.084 229.497 147.42Z" fill="#FFCC00"/>
<path d="M209.497 216.42C209.79 216.703 209.778 217.196 209.453 217.499C209.128 217.802 208.678 217.78 208.375 217.454C208.072 217.129 208.094 216.678 208.419 216.375C208.744 216.072 209.236 216.084 209.497 216.42Z" fill="#FFCC00"/>
<path d="M225.497 189.42C225.79 189.703 225.778 190.196 225.453 190.499C225.128 190.802 224.678 190.78 224.375 190.454C224.072 190.129 224.094 189.678 224.419 189.375C224.744 189.072 225.236 189.084 225.497 189.42Z" fill="#FFCC00"/>
<path d="M157.497 124.42C157.79 124.703 157.778 125.196 157.453 125.499C157.128 125.802 156.678 125.78 156.375 125.454C156.072 125.129 156.094 124.678 156.419 124.375C156.744 124.072 157.236 124.084 157.497 124.42Z" fill="#FFCC00"/>
<path d="M227.497 168.42C227.79 168.703 227.778 169.196 227.453 169.499C227.128 169.802 226.678 169.78 226.375 169.454C226.072 169.129 226.094 168.678 226.419 168.375C226.744 168.072 227.236 168.084 227.497 168.42Z" fill="#FFCC00"/>
<path d="M255.497 169.42C255.79 169.703 255.778 170.196 255.453 170.499C255.128 170.802 254.678 170.78 254.375 170.454C254.072 170.129 254.094 169.678 254.419 169.375C254.744 169.072 255.236 169.084 255.497 169.42Z" fill="#FFCC00"/>
<path d="M218.964 117.653C219.382 117.549 219.634 117.13 219.531 116.711C219.427 116.291 219.009 116.039 218.59 116.142C218.171 116.246 217.919 116.665 218.023 117.084C218.127 117.504 218.545 117.756 218.964 117.653Z" fill="#5932C4"/>
<path d="M215.329 113.744C215.748 113.64 216 113.222 215.896 112.802C215.792 112.383 215.374 112.13 214.955 112.234C214.536 112.337 214.284 112.756 214.388 113.175C214.534 113.585 214.952 113.837 215.329 113.744Z" fill="#5932C4"/>
<path d="M257.285 88.221C257.704 88.1174 257.956 87.6988 257.852 87.2793C257.748 86.8598 257.33 86.6071 256.911 86.7108C256.492 86.8145 256.24 87.233 256.344 87.6525C256.49 88.0617 256.866 88.3247 257.285 88.221Z" fill="#5932C4"/>
<path d="M253.287 83.0221C253.705 82.9184 253.957 82.4998 253.854 82.0803C253.75 81.6608 253.332 81.4081 252.913 81.5118C252.494 81.6155 252.242 82.0341 252.346 82.4536C252.491 82.8627 252.91 83.1154 253.287 83.0221Z" fill="#5932C4"/>
<path d="M210.124 115.344C208.805 115.403 207.6 116.102 206.907 117.253L200.021 128.04L211.212 120.996C212.082 120.38 212.722 119.376 212.86 118.317L213.296 115.227L210.124 115.344ZM212.348 118.222C212.22 119.144 211.675 119.991 210.92 120.534L201.761 126.274L207.367 117.496C207.84 116.711 208.594 116.168 209.474 115.95C209.683 115.898 209.945 115.878 210.165 115.868L212.719 115.77L212.348 118.222Z" fill="#5932C4"/>
<path d="M184.112 133.269C184.091 133.186 184.029 133.112 183.977 133.08L183.914 133.007C182.547 131.075 180.56 129.875 178.144 129.449L177.955 129.406L177.861 129.563C177.829 129.616 177.766 129.72 177.745 129.815C177.503 130.275 177.408 130.788 177.407 131.323C176.402 131.394 175.439 131.81 174.726 132.521C173.75 133.43 173.277 134.749 173.389 136.102C172.929 136.216 172.509 136.498 172.143 136.811C171.534 137.407 171.188 138.161 171.165 138.968C171.143 139.775 171.476 140.582 172.019 141.16C172.802 141.99 173.943 142.287 174.99 142.028C175.492 141.903 175.964 141.653 176.362 141.287C176.687 140.984 176.908 140.618 177.066 140.178C178.405 140.381 179.808 139.945 180.825 139.025C181.139 139.036 181.443 139.006 181.778 138.923C182.322 138.788 182.836 138.527 183.266 138.109C183.307 138.099 183.339 138.047 183.381 138.036C184.838 136.741 185.125 134.666 184.112 133.269ZM180.784 138.501L180.69 138.48L180.617 138.542C180.575 138.553 180.585 138.595 180.543 138.605C179.61 139.504 178.322 139.867 177.014 139.612L176.784 139.58L176.71 139.821C176.594 140.25 176.374 140.617 176.049 140.92C175.042 141.881 173.389 141.845 172.428 140.837C171.947 140.332 171.697 139.682 171.709 139.011C171.721 138.34 172.005 137.691 172.508 137.21C172.833 136.907 173.221 136.678 173.64 136.574L173.682 136.564L173.933 136.502L173.871 136.25C173.695 135.002 174.148 133.777 175.039 132.889C175.72 132.23 176.642 131.824 177.658 131.795L177.919 131.775L177.899 131.513C177.858 130.989 177.943 130.433 178.184 129.973C180.329 130.377 182.117 131.493 183.338 133.194C183.359 133.278 183.369 133.32 183.421 133.351L183.494 133.467C184.518 134.727 184.001 136.592 182.921 137.616C182.459 138.264 181.642 138.556 180.784 138.501Z" fill="#5932C4"/>
<path d="M172.329 142.953C172.152 142.775 171.901 142.659 171.629 142.637C171.357 142.615 171.116 142.719 170.896 142.907C170.497 143.273 170.475 143.902 170.841 144.301C171.018 144.48 171.269 144.596 171.541 144.618C171.635 144.639 171.719 144.618 171.803 144.597C171.971 144.556 172.128 144.472 172.233 144.357C172.411 144.18 172.526 143.928 172.548 143.656C172.611 143.373 172.507 143.132 172.329 142.953ZM172.098 143.634C172.087 143.77 172.024 143.875 171.961 143.979C171.888 144.042 171.773 144.115 171.636 144.104C171.5 144.093 171.396 144.03 171.291 143.967C171.229 143.894 171.156 143.778 171.166 143.642C171.177 143.506 171.198 143.411 171.303 143.296C171.335 143.244 171.418 143.223 171.502 143.203C171.544 143.192 171.586 143.182 171.628 143.171C171.764 143.182 171.858 143.203 171.931 143.319C172.046 143.424 172.067 143.508 172.098 143.634Z" fill="#5932C4"/>
<path d="M193.607 143.073L193.555 143.042C193.555 143.042 193.555 143.042 193.544 143C193.492 142.968 193.44 142.937 193.429 142.895C193.429 142.895 193.429 142.895 193.387 142.905C193.325 142.832 193.22 142.768 193.116 142.705C193.063 142.674 193.053 142.632 193.011 142.642L192.959 142.61C192.237 142.21 191.327 142.124 190.489 142.331C190.029 142.445 189.589 142.643 189.169 142.925C188.981 143.061 188.792 143.197 188.656 143.364C188.624 143.416 188.541 143.437 188.509 143.489C188.257 143.73 188.026 144.054 187.89 144.4C187.69 144.85 187.543 145.331 187.542 145.866C186.535 146.827 186.072 148.189 186.184 149.541C185.734 149.697 185.388 149.916 185.063 150.219C184.455 150.815 184.108 151.569 184.127 152.365C184.105 153.172 184.396 153.991 184.981 154.558C185.577 155.168 186.319 155.474 187.125 155.497C187.397 155.518 187.701 155.488 187.952 155.426C188.455 155.301 188.926 155.051 189.314 154.643C189.681 154.33 189.933 153.911 190.091 153.471C191.42 153.632 192.739 153.217 193.704 152.265C194.428 151.597 194.9 150.634 195.049 149.617C195.499 149.64 195.97 149.567 196.42 149.411C196.546 149.38 196.703 149.297 196.829 149.266L196.986 149.182L197.028 149.172L197.007 149.088L196.986 149.004C196.572 146.613 195.446 144.577 193.607 143.073ZM194.788 149.103L194.516 149.081L194.495 149.354C194.43 150.349 193.989 151.26 193.307 151.918C192.405 152.765 191.17 153.16 189.914 152.936L189.684 152.904L189.61 153.145C189.463 153.627 189.242 153.993 188.917 154.296C187.91 155.258 186.257 155.222 185.296 154.213C184.816 153.709 184.566 153.058 184.577 152.387C184.589 151.717 184.873 151.068 185.376 150.587C185.701 150.284 186.058 150.107 186.518 149.993L186.77 149.93L186.749 149.668C186.563 148.379 186.995 147.07 187.939 146.213L188.085 146.087L188.096 145.951C188.108 145.102 188.403 144.317 189.011 143.721C189.902 142.833 191.4 142.418 192.602 142.966C192.707 143.029 192.811 143.092 192.916 143.155C193.02 143.219 193.083 143.292 193.188 143.355L193.25 143.429C193.303 143.46 193.355 143.492 193.407 143.524C195.069 144.849 196.101 146.686 196.369 148.845C195.856 149.106 195.291 149.157 194.788 149.103Z" fill="#5932C4"/>
<path d="M190.345 141.031C189.909 139.626 189.116 138.397 187.945 137.44L187.893 137.409C187.841 137.377 187.83 137.335 187.736 137.314C187.12 136.799 186.314 136.598 185.602 136.774C185.56 136.784 185.518 136.795 185.476 136.805C185.393 136.826 185.267 136.857 185.194 136.92C184.869 137.044 184.597 137.201 184.345 137.441C184.135 137.671 183.936 137.943 183.83 138.236C183.725 138.53 183.662 138.812 183.703 139.158C183.105 139.796 182.831 140.665 182.976 141.609C182.683 141.682 182.494 141.817 182.274 142.005C181.446 142.789 181.527 144.194 182.435 145.171C183.093 145.854 184.004 146.118 184.757 145.932C185.051 145.859 185.365 145.692 185.575 145.462C185.795 145.274 185.952 145.013 186.058 144.72C186.706 144.826 187.355 144.755 187.869 144.494C188.11 144.39 188.298 144.254 188.477 144.076C188.77 143.826 188.959 143.512 189.096 143.166C189.085 143.124 189.127 143.114 189.117 143.072C189.201 142.873 189.275 142.632 189.254 142.37C189.662 142.403 190.05 142.351 190.406 142.174L190.605 142.08L190.553 141.87C190.543 141.828 190.532 141.787 190.512 141.703C190.491 141.619 190.48 141.577 190.46 141.493C190.408 141.283 190.377 141.157 190.345 141.031ZM189.622 141.7C189.444 141.7 189.224 141.71 189.036 141.667L188.712 141.614L188.711 141.97C188.731 142.232 188.658 142.473 188.584 142.714C188.51 142.955 188.395 143.206 188.258 143.373C188.185 143.436 188.122 143.541 188.048 143.603C187.514 144.137 186.707 144.292 185.86 144.101L185.578 144.037L185.514 144.32C185.451 144.603 185.335 144.854 185.157 145.032C184.549 145.627 183.45 145.499 182.771 144.732C182.051 143.975 182.011 142.916 182.619 142.321C182.755 142.153 182.954 142.06 183.206 141.997C183.248 141.987 183.289 141.977 183.289 141.977L183.583 141.904L183.52 141.652C183.302 140.771 183.534 139.913 184.079 139.421L183.933 139.19L184.111 139.369L184.226 139.296L184.195 139.17C184.144 138.604 184.333 138.112 184.69 137.757C185.224 137.224 186.198 137.027 187.014 137.448C187.066 137.48 187.16 137.501 187.223 137.575C187.275 137.606 187.38 137.67 187.442 137.743L187.505 137.817C187.515 137.859 187.557 137.848 187.557 137.848L187.568 137.89L187.609 137.88C188.738 138.847 189.521 140.033 189.874 141.46L189.926 141.67C189.884 141.68 189.758 141.711 189.622 141.7Z" fill="#5932C4"/>
<path d="M184.946 156.57C184.768 156.391 184.517 156.275 184.245 156.254C184.162 156.275 184.067 156.253 183.984 156.274C183.816 156.316 183.659 156.399 183.554 156.514C183.156 156.88 183.133 157.508 183.499 157.908C183.677 158.086 183.928 158.202 184.2 158.224C184.283 158.203 184.378 158.225 184.461 158.204C184.629 158.162 184.786 158.079 184.891 157.964C185.069 157.786 185.185 157.535 185.206 157.263C185.228 156.99 185.123 156.749 184.946 156.57ZM184.672 157.261C184.662 157.397 184.599 157.502 184.525 157.565C184.452 157.627 184.337 157.7 184.201 157.69C184.065 157.679 183.96 157.616 183.856 157.552C183.793 157.479 183.72 157.363 183.731 157.227C183.741 157.091 183.762 156.997 183.878 156.924C183.993 156.851 184.066 156.788 184.202 156.799C184.338 156.81 184.433 156.831 184.506 156.946C184.652 156.999 184.683 157.125 184.672 157.261Z" fill="#5932C4"/>
<path d="M183.874 148.109C183.696 147.931 183.446 147.815 183.173 147.793C182.912 147.813 182.66 147.876 182.44 148.064C182.262 148.241 182.146 148.493 182.125 148.765C182.103 149.037 182.208 149.279 182.385 149.457C182.563 149.636 182.814 149.752 183.086 149.774C183.17 149.753 183.264 149.774 183.348 149.754C183.515 149.712 183.672 149.629 183.777 149.514C183.955 149.336 184.071 149.085 184.092 148.812C184.166 148.571 184.052 148.288 183.874 148.109ZM183.642 148.79C183.632 148.926 183.611 149.021 183.495 149.094C183.422 149.156 183.307 149.229 183.171 149.219C183.035 149.208 182.93 149.145 182.826 149.081C182.763 149.008 182.69 148.892 182.701 148.756C182.711 148.62 182.774 148.515 182.848 148.453C182.921 148.39 182.963 148.38 183.047 148.359C183.089 148.348 183.131 148.338 183.172 148.328C183.308 148.339 183.403 148.36 183.518 148.465C183.591 148.58 183.622 148.706 183.642 148.79Z" fill="#5932C4"/>
<path d="M179.776 145.74C179.598 145.562 179.347 145.446 179.075 145.424C178.803 145.402 178.562 145.506 178.384 145.684C177.986 146.05 177.963 146.679 178.339 147.12C178.58 147.372 178.956 147.457 179.291 147.374C179.459 147.333 179.616 147.249 179.721 147.134C180.119 146.768 180.141 146.14 179.776 145.74ZM179.366 146.777C179.187 146.954 178.873 146.943 178.696 146.765C178.633 146.691 178.623 146.649 178.602 146.565C178.561 146.397 178.613 146.251 178.718 146.136C178.791 146.073 178.833 146.063 178.917 146.042C178.959 146.032 179.001 146.021 179.043 146.011C179.179 146.022 179.273 146.043 179.346 146.158C179.565 146.327 179.544 146.599 179.366 146.777Z" fill="#5932C4"/>
<path d="M180.213 141.758C179.847 141.359 179.219 141.337 178.821 141.702C178.643 141.88 178.527 142.131 178.506 142.404C178.484 142.676 178.588 142.917 178.766 143.096C178.943 143.275 179.194 143.391 179.466 143.412C179.561 143.434 179.644 143.413 179.728 143.392C179.896 143.351 180.053 143.267 180.158 143.152C180.556 142.787 180.578 142.158 180.213 141.758ZM179.803 142.795C179.729 142.858 179.614 142.931 179.478 142.92C179.342 142.909 179.248 142.888 179.133 142.783C179.07 142.709 178.997 142.594 179.008 142.457C179.019 142.321 179.04 142.227 179.155 142.154C179.228 142.091 179.312 142.07 179.354 142.06C179.521 142.019 179.668 142.071 179.783 142.177C179.992 142.303 179.981 142.617 179.803 142.795Z" fill="#5932C4"/>
<path d="M190.565 141.378L190.052 141.46C189.336 137.853 185.487 136.669 185.435 136.637L185.572 136.113C185.771 136.198 189.766 137.435 190.565 141.378Z" fill="#5932C4"/>
<path d="M191.97 140.051L191.457 140.133C190.741 136.526 186.892 135.342 186.84 135.31L186.977 134.786C187.176 134.871 191.171 136.108 191.97 140.051Z" fill="#5932C4"/>
<path d="M193.364 138.681L192.851 138.764C192.136 135.156 188.287 133.972 188.235 133.941L188.372 133.417C188.581 133.543 192.576 134.78 193.364 138.681Z" fill="#5932C4"/>
<path d="M194.769 137.354L194.256 137.436C193.541 133.829 189.692 132.645 189.639 132.613L189.777 132.09C189.975 132.174 193.971 133.411 194.769 137.354Z" fill="#5932C4"/>
<path d="M196.174 136.027L195.661 136.109C194.946 132.502 191.097 131.318 191.045 131.286L191.182 130.762C191.38 130.847 195.376 132.084 196.174 136.027Z" fill="#5932C4"/>
<path d="M197.579 134.699L197.066 134.782C196.351 131.174 192.502 129.99 192.45 129.959L192.587 129.435C192.786 129.519 196.781 130.756 197.579 134.699Z" fill="#5932C4"/>
<path d="M198.974 133.33L198.461 133.413C197.746 129.805 193.897 128.621 193.844 128.59L193.981 128.066C194.18 128.15 198.176 129.387 198.974 133.33Z" fill="#5932C4"/>
<path d="M247.216 179.289C247.767 181.512 246.402 183.72 244.224 184.259C242.004 184.809 239.756 183.451 239.216 181.269C238.666 179.046 240.031 176.838 242.251 176.288C244.46 175.697 246.666 177.065 247.216 179.289Z" fill="#02E2AC"/>
<path d="M239.175 181.28C239.725 183.503 242.025 184.893 244.245 184.343C245.501 184.032 246.487 183.165 247.012 182.055C246.771 182.16 246.52 182.222 246.269 182.284C243.42 182.989 240.493 181.22 239.787 178.368C239.756 178.242 239.735 178.158 239.704 178.032C239.095 178.984 238.894 180.147 239.175 181.28Z" fill="#02C995"/>
<path d="M242.188 176.037C239.885 176.607 238.467 178.961 239.038 181.269C239.61 183.576 241.962 184.997 244.265 184.427C246.569 183.857 247.987 181.502 247.415 179.195C246.844 176.888 244.492 175.467 242.188 176.037ZM244.151 183.966C242.099 184.474 240.06 183.242 239.551 181.186C239.043 179.131 240.313 177.08 242.323 176.582C244.376 176.074 246.414 177.306 246.923 179.361C247.422 181.375 246.203 183.458 244.151 183.966Z" fill="#5932C4"/>
<path d="M154.601 38.4036C153.739 34.9216 155.849 31.4162 159.326 30.5557C162.802 29.6951 166.304 31.8112 167.166 35.2932C168.017 38.7332 165.917 42.2805 162.441 43.1411C158.954 43.9597 155.452 41.8436 154.601 38.4036Z" fill="#6F3FF5"/>
<path d="M155.185 39.1488C156.237 41.7823 159.081 43.2154 161.384 43.0015C163.687 42.7876 165.479 41.409 166.352 39.5457C166.006 39.9431 164.632 41.3962 162.538 41.5583C162.057 41.5884 160.225 41.7302 159.118 40.4905C158.752 40.0912 158.606 39.6821 158.555 39.4723C157.867 37.5944 159.022 35.7948 158.667 35.6157C158.301 35.3946 157.031 37.2672 156.278 36.9193C156.173 36.8562 156.058 36.7511 155.891 36.6144C155.891 36.6144 155.536 36.257 155.37 35.764C155.13 35.1555 155.226 34.2858 155.74 33.4907C155.541 33.7626 154.05 36.3578 155.185 39.1488Z" fill="#8271FF"/>
<path d="M159.283 30.5657C155.848 31.4159 153.696 34.9316 154.558 38.4136C155.409 41.8536 158.922 44.0116 162.398 43.1511C165.874 42.2905 167.985 38.7852 167.123 35.3032C166.261 31.8212 162.759 29.7051 159.283 30.5657ZM162.263 42.6057C159.08 43.3937 155.881 41.4251 155.102 38.2788C154.323 35.1324 156.276 31.8886 159.418 31.1111C162.601 30.3231 165.8 32.2916 166.579 35.438C167.357 38.5843 165.446 41.8178 162.263 42.6057Z" fill="#5932C4"/>
<path d="M302.833 103.479C304.588 105.003 305.85 107.05 306.442 109.442C307.979 115.65 304.168 121.981 297.969 123.516C295.875 124.034 293.719 123.944 291.784 123.31C288.029 122.147 284.916 119.089 283.908 115.02C282.372 108.811 286.183 102.48 292.382 100.946C296.152 100.013 299.917 101.039 302.676 103.384L302.718 103.374C302.749 103.321 302.77 103.405 302.833 103.479Z" fill="#FFCC00"/>
<path d="M294.76 121.327C294.917 121.243 295.022 121.128 295.169 121.003C295.661 120.837 296.101 120.639 296.531 120.399C296.405 120.43 296.269 120.419 296.217 120.387C297.737 118.987 299.657 116.686 301.013 113.724C303.419 108.543 303.278 105.817 302.935 104.611C303.113 104.611 303.281 104.57 303.438 104.486C303.459 104.57 303.479 104.654 303.5 104.738C303.811 106.175 303.753 108.994 301.504 113.914C300.327 116.521 298.889 118.435 297.547 119.836C302.451 117.019 305.36 111.535 304.88 105.821C305.589 106.892 306.11 108.099 306.432 109.4C307.979 115.65 304.168 121.981 297.927 123.526C295.833 124.044 293.719 123.944 291.752 123.362C292.79 122.705 293.744 121.89 294.76 121.327Z" fill="#F4B400"/>
<path d="M302.906 103.416C302.854 103.385 302.801 103.353 302.739 103.279C299.97 100.893 296.162 99.8763 292.351 100.82C286.068 102.375 282.267 108.748 283.825 115.04C284.853 119.193 287.966 122.252 291.773 123.446C293.75 124.07 295.864 124.17 298 123.641C304.283 122.086 308.126 115.703 306.568 109.411C305.966 106.977 304.661 104.941 302.906 103.416ZM297.865 123.096C296.064 123.542 294.285 123.537 292.579 123.113C292.297 123.05 292.004 122.944 291.722 122.88C290.226 122.405 288.867 121.583 287.676 120.543C287.509 120.406 287.383 120.259 287.216 120.122C285.848 118.725 284.784 116.94 284.275 114.884C282.79 108.885 286.444 102.816 292.434 101.334C294.067 100.929 295.71 100.923 297.29 101.2C297.52 101.232 297.709 101.274 297.949 101.348C299.612 101.783 301.191 102.594 302.497 103.74C302.779 103.982 303.072 104.265 303.322 104.56C304.586 105.894 305.546 107.616 306.023 109.545C307.55 115.534 303.896 121.603 297.865 123.096Z" fill="#5932C4"/>
<path d="M287.351 120.668L287.227 120.164C287.268 120.154 292.62 118.607 295.942 111.017C299.243 103.522 297.311 101.284 297.3 101.242L297.699 100.876C297.814 100.981 299.913 103.356 296.433 111.207C292.996 119.048 287.602 120.605 287.351 120.668Z" fill="#5932C4"/>
<path d="M303.364 104.549C303.675 105.986 303.628 108.847 301.337 113.777C298.468 119.964 294.381 122.311 292.621 123.103C292.14 123.311 291.804 123.394 291.763 123.404L291.638 122.901C291.638 122.901 291.68 122.891 291.764 122.87C292.622 122.568 297.608 120.622 300.845 113.587C303.841 107.014 302.883 104.401 302.497 103.74C302.424 103.624 302.372 103.593 302.372 103.593L302.739 103.279L302.781 103.269C302.781 103.269 302.843 103.343 302.906 103.416C303.031 103.563 303.219 103.962 303.364 104.549Z" fill="#5932C4"/>
<path d="M81.9228 235.555C81.379 237.816 81.54 240.215 82.4467 242.506C84.8008 248.453 91.58 251.394 97.5178 249.043C99.5238 248.249 101.227 246.924 102.434 245.284C104.816 242.157 105.574 237.859 104.031 233.962C101.677 228.014 94.8978 225.074 88.9601 227.424C85.3493 228.854 82.8797 231.876 81.9955 235.387L81.9553 235.403C81.8993 235.379 81.9311 235.459 81.9228 235.555Z" fill="#FFCC00"/>
<path d="M98.8592 245.398C98.6828 245.421 98.5306 245.388 98.3383 245.372C97.841 245.522 97.3679 245.616 96.8788 245.67C96.9992 245.623 97.1036 245.535 97.1279 245.479C95.077 245.222 92.1781 244.463 89.354 242.839C84.3857 240.018 82.918 237.717 82.4968 236.536C82.3523 236.64 82.1918 236.703 82.0154 236.727C82.0472 236.807 82.079 236.888 82.1108 236.968C82.6918 238.318 84.3759 240.58 89.0641 243.279C91.5362 244.718 93.8181 245.441 95.7244 245.802C90.0966 246.356 84.5431 243.581 81.6169 238.651C81.661 239.935 81.9376 241.22 82.4307 242.465C84.8008 248.453 91.58 251.393 97.5579 249.027C99.5639 248.233 101.227 246.924 102.49 245.308C101.264 245.376 100.014 245.266 98.8592 245.398Z" fill="#F4B400"/>
<path d="M81.8268 235.547C81.851 235.491 81.8752 235.434 81.8835 235.338C82.7518 231.787 85.2615 228.749 88.9124 227.304C94.9304 224.921 101.725 227.902 104.111 233.93C105.686 237.908 104.928 242.205 102.522 245.389C101.275 247.045 99.6117 248.354 97.5656 249.164C91.5476 251.546 84.7124 248.581 82.3264 242.553C81.4038 240.223 81.2829 237.807 81.8268 235.547ZM97.3588 248.641C99.0839 247.958 100.53 246.921 101.672 245.586C101.865 245.37 102.042 245.114 102.235 244.898C103.176 243.642 103.806 242.185 104.171 240.646C104.228 240.437 104.245 240.245 104.301 240.036C104.604 238.104 104.434 236.033 103.654 234.064C101.38 228.318 94.8806 225.499 89.1434 227.77C87.5787 228.389 86.2375 229.339 85.112 230.481C84.9432 230.641 84.8145 230.785 84.6617 230.985C83.5597 232.304 82.7454 233.882 82.3476 235.573C82.2583 235.934 82.185 236.334 82.1518 236.719C81.8978 238.54 82.1162 240.498 82.8479 242.347C85.0825 248.109 91.5815 250.928 97.3588 248.641Z" fill="#5932C4"/>
<path d="M104.508 240.559L104.317 240.077C104.277 240.093 99.0222 241.94 91.9104 237.691C84.8705 233.505 85.1439 230.562 85.128 230.522L84.5913 230.455C84.5587 230.607 84.2286 233.759 91.6205 238.131C98.9724 242.518 104.267 240.654 104.508 240.559Z" fill="#5932C4"/>
<path d="M82.1117 236.735C82.6926 238.086 84.3927 240.387 89.121 243.071C95.0493 246.441 99.7391 245.979 101.632 245.602C102.145 245.492 102.466 245.365 102.506 245.349L102.315 244.867C102.315 244.867 102.275 244.882 102.195 244.914C101.32 245.167 96.1312 246.478 89.4108 242.631C83.1546 239.018 82.4174 236.335 82.3476 235.573C82.34 235.436 82.3642 235.38 82.3642 235.38L81.8835 235.338L81.8434 235.354C81.8434 235.354 81.8351 235.45 81.8268 235.547C81.8102 235.739 81.889 236.173 82.1117 236.735Z" fill="#5932C4"/>
<path d="M244.949 99.8915C240.524 104.103 233.544 103.917 229.335 99.4826C227.298 97.3599 226.204 94.5586 226.273 91.6032C226.341 88.6478 227.571 85.8947 229.689 83.8566C231.095 82.5293 232.813 81.5697 234.656 81.1135C235.619 80.8751 236.572 80.7728 237.597 80.7861C240.549 80.8569 243.299 82.0906 245.336 84.2132C246.714 85.6528 247.632 87.3846 248.079 89.1885C248.961 92.9326 247.896 97.0696 244.949 99.8915Z" fill="white"/>
<path d="M245.153 92.0944C245.151 92.9852 244.961 93.8337 244.677 94.6609C244.624 94.8075 244.572 94.9541 244.519 95.1007L244.487 95.153C244.319 95.5508 244.099 95.917 243.836 96.2936C243.742 96.4506 243.637 96.5656 243.542 96.7226C243.312 97.0468 243.028 97.3395 242.735 97.5903C241.33 98.9176 239.518 99.6778 237.581 99.7564C237.445 99.7456 237.32 99.7767 237.142 99.7762C237.058 99.7969 236.964 99.7757 236.87 99.7545C235.697 99.6884 234.599 99.3815 233.616 98.8234C233.46 98.7287 233.303 98.6339 233.146 98.5392C232.613 98.1814 232.111 97.7713 231.641 97.3088C228.644 94.1775 228.789 89.1995 231.914 86.1999C232.921 85.2384 234.136 84.5814 235.434 84.26C238.073 83.6068 241.013 84.3484 242.997 86.4394C242.997 86.4394 242.997 86.4394 243.008 86.4813C243.133 86.6284 243.258 86.7755 243.384 86.9226C244.553 88.414 245.177 90.2184 245.153 92.0944Z" fill="white"/>
<path d="M235.498 84.1554C231.142 85.2336 228.496 89.6284 229.576 93.9914C230.116 96.1728 231.483 97.9268 233.26 99.0007C233.24 98.9168 233.271 98.8644 233.292 98.7702C233.439 98.4666 235.328 96.2183 235.296 96.0925C235.213 95.9351 233.329 96.2234 232.889 96.065C231.226 95.4527 230.299 93.3226 230.648 91.678C230.669 91.5837 230.742 91.521 230.774 91.4687C231.101 89.9184 233.008 88.8231 234.567 89.1941C235.697 89.4487 236.385 90.7921 237.231 91.5176C237.628 91.8645 237.941 92.2322 238.223 92.6522C238.557 93.1038 238.85 93.2094 239.32 93.4936C240.094 93.9254 240.47 94.1884 241.183 93.4777C241.613 93.0596 241.908 92.4525 242.348 92.0764C242.862 91.6376 243.511 91.3878 244.117 91.861C244.765 92.324 244.617 92.9838 244.375 93.6225C244.154 94.1669 243.599 94.6161 243.326 95.1289C242.874 95.9976 243.313 96.156 244.077 96.5459C245.315 94.7255 245.801 92.3791 245.23 90.0718C244.244 85.7301 239.854 83.0771 235.498 84.1554Z" fill="#6F3FF5"/>
<path d="M243.364 86.1261C240.179 82.7741 234.862 82.6654 231.517 85.8531C228.172 89.0407 228.068 94.3647 231.253 97.7167C231.796 98.2946 232.413 98.8098 233.082 99.1784C233.134 99.21 233.187 99.2416 233.239 99.2732C234.42 99.9157 235.759 100.297 237.099 100.321C237.863 100.355 238.596 100.262 239.308 100.086C240.69 99.744 241.979 99.0243 243.059 98C244.673 96.4428 245.588 94.391 245.655 92.1483C245.712 89.8636 244.921 87.7443 243.364 86.1261ZM245.153 92.0945C245.151 92.9854 244.961 93.8338 244.677 94.661C244.624 94.8076 244.572 94.9542 244.519 95.1008L244.487 95.1531C244.319 95.5509 244.099 95.9172 243.836 96.2938C243.742 96.4507 243.637 96.5657 243.542 96.7227C243.312 97.047 243.028 97.3397 242.735 97.5904C241.33 98.9177 239.518 99.6779 237.581 99.7565C237.445 99.7457 237.32 99.7768 237.142 99.7763C237.058 99.797 236.964 99.7758 236.87 99.7546C235.698 99.6886 234.599 99.3817 233.616 98.8235C233.46 98.7288 233.303 98.634 233.146 98.5393C232.613 98.1815 232.111 97.7714 231.641 97.309C228.644 94.1776 228.789 89.1996 231.914 86.2C232.921 85.2385 234.136 84.5815 235.435 84.2601C238.073 83.6069 241.013 84.3485 242.997 86.4395C242.997 86.4395 242.997 86.4395 243.008 86.4815C243.133 86.6285 243.258 86.7756 243.384 86.9227C244.553 88.4141 245.177 90.2185 245.153 92.0945Z" fill="#5932C4"/>
<path d="M245.702 83.8999C243.551 81.6722 240.696 80.3753 237.567 80.304C234.48 80.2223 231.557 81.3464 229.292 83.5098C227.059 85.6209 225.776 88.5206 225.697 91.6123C225.618 94.7039 226.743 97.6311 228.905 99.9008C231.86 103.043 236.17 104.113 240.108 103.138C241.992 102.672 243.805 101.733 245.315 100.291C249.908 95.8594 250.089 88.5128 245.702 83.8999ZM244.949 99.8916C240.524 104.103 233.544 103.917 229.335 99.4827C227.298 97.3601 226.204 94.5587 226.273 91.6033C226.341 88.6479 227.571 85.8948 229.689 83.8567C231.094 82.5294 232.813 81.5698 234.656 81.1137C235.619 80.8752 236.572 80.7729 237.597 80.7862C240.549 80.857 243.299 82.0907 245.336 84.2133C246.714 85.6529 247.632 87.3847 248.078 89.1886C248.961 92.9327 247.896 97.0697 244.949 99.8916Z" fill="#5932C4"/>
<path d="M230.994 107.086C231.413 106.982 231.665 106.564 231.561 106.144C231.458 105.725 231.039 105.472 230.621 105.576C230.202 105.679 229.95 106.098 230.054 106.517C230.199 106.926 230.576 107.189 230.994 107.086Z" fill="#5932C4"/>
<path d="M237.183 100.122L234.364 96.8132L237.028 93.5713C237.773 92.6301 239.155 92.4661 240.127 93.1605L240.775 93.6234L240.481 94.0523L239.833 93.5894C239.081 93.0633 238.044 93.1863 237.467 93.9079L235.117 96.8048L237.665 99.7358L237.183 100.122Z" fill="#5932C4"/>
<path d="M234.457 97.0125L232.79 98.8946L233.187 99.2415L234.854 97.3595L234.457 97.0125Z" fill="#5932C4"/>
<path d="M235.034 96.2909C234.406 96.4464 233.411 96.559 232.512 96.1583C231.613 95.7576 230.976 94.9803 230.56 93.8368C229.789 91.6232 230.723 90.368 231.342 89.8142C232.359 88.8947 233.982 88.6265 235.174 89.1328L235.477 89.2804L233.787 91.7912C233.891 92.0326 234.131 92.6411 234.622 92.8311C234.926 92.9786 235.313 92.9273 235.743 92.6874C236.56 92.2179 236.874 91.8729 236.99 91.6217C237.074 91.4228 237.263 91.287 237.483 91.2771C237.692 91.2253 237.933 91.2993 238.068 91.4883C238.486 91.9192 238.747 92.4334 238.735 92.926L238.202 92.9246C238.192 92.5263 238.015 92.1694 237.67 91.8541C237.618 91.8225 237.565 91.7909 237.523 91.8013C237.482 91.8117 237.44 91.822 237.408 91.8743C237.167 92.3349 236.695 92.7633 235.951 93.17C235.406 93.483 234.841 93.5339 234.391 93.3335C233.544 92.9644 233.232 91.8841 233.222 91.8421L233.191 91.7162L234.65 89.5297C233.687 89.2336 232.462 89.4923 231.707 90.2135C230.837 91.0077 230.605 92.2228 231.094 93.66C231.427 94.6461 232.001 95.3499 232.743 95.6558C234.04 96.2253 235.528 95.59 235.528 95.59L235.736 96.0727C235.694 96.083 235.411 96.1975 235.034 96.2909Z" fill="#5932C4"/>
<path d="M237 91.6636C236.667 90.6775 235.047 89.8766 235.047 89.8766L235.288 89.4161C235.341 89.4477 237.108 90.3014 237.545 91.5288L237 91.6636Z" fill="#5932C4"/>
<path d="M244.03 93.6637C243.957 93.5482 243.884 93.4327 243.727 93.3379L242.755 92.6436C242.65 92.5804 242.588 92.5069 242.452 92.496C242.253 92.4117 241.991 92.4319 241.782 92.4838C241.572 92.5356 241.384 92.6713 241.247 92.8387L240.681 93.6022L240.377 93.9892C240.303 94.0519 240.23 94.1146 240.104 94.1457L237.999 94.8003C237.507 94.9667 237.182 95.4479 237.264 95.9617L237.399 96.8634C237.429 97.1674 237.586 97.4403 237.847 97.5983C238.108 97.7562 238.391 97.8198 238.684 97.7473L241.857 96.9173C242.066 96.8655 242.297 96.7194 242.433 96.5521L242.769 96.1128L243.115 95.7154L243.829 94.8265C243.86 94.7742 243.934 94.7115 243.955 94.6172C244.039 94.4183 244.081 94.2298 244.071 94.0096C244.134 93.905 244.103 93.7791 244.03 93.6637ZM243.536 94.5427L242.151 96.3102C242.088 96.4149 241.973 96.4879 241.889 96.5087L238.716 97.3386C238.549 97.3801 238.413 97.3692 238.298 97.2641C238.183 97.159 238.068 97.0539 238.068 96.8757L237.934 95.974C237.914 95.7119 238.029 95.4607 238.281 95.3985L240.386 94.7438C240.595 94.692 240.784 94.5563 240.91 94.347L241.781 93.1964C241.844 93.0918 241.959 93.0188 242.084 92.9876C242.21 92.9565 242.388 92.957 242.503 93.0621L243.475 93.7565C243.59 93.8616 243.663 93.9771 243.694 94.103C243.652 94.2915 243.599 94.4381 243.536 94.5427Z" fill="#5932C4"/>
<path d="M244.404 95.1737L243.694 94.1027L244.302 93.3288C244.407 93.2138 244.46 93.0672 244.418 92.8994C244.377 92.7316 244.346 92.6057 244.189 92.511L243.572 91.9958C243.458 91.8906 243.311 91.8378 243.144 91.8793C242.976 91.9208 242.861 91.9938 242.756 92.1089L242.263 92.8097L241.834 92.5151L242.327 91.8142C242.495 91.5946 242.768 91.4381 243.061 91.3655C243.364 91.3349 243.647 91.3986 243.877 91.6088L244.493 92.124C244.713 92.2923 244.869 92.5652 244.9 92.8693C244.931 93.1733 244.867 93.4561 244.658 93.6861L244.28 94.1358L244.781 94.9022L244.404 95.1737Z" fill="#5932C4"/>
<path d="M242.432 92.0558L241.294 90.3339L243.113 86.1884L243.615 86.4203L241.901 90.2727L242.893 91.7636L242.432 92.0558Z" fill="#5932C4"/>
<path d="M243.543 96.7225L242.759 96.0706L243.105 95.6732L243.889 96.3252L243.543 96.7225Z" fill="#5932C4"/>
<path d="M138.419 79.4427C138.678 81.2042 138.224 82.9637 137.154 84.3863C136.083 85.8088 134.491 86.7373 132.764 86.9422C131.088 87.1788 129.436 86.7865 128.087 85.8291C127.983 85.766 127.92 85.6924 127.826 85.6712C127.763 85.5977 127.659 85.5345 127.596 85.461C126.311 84.3989 125.497 82.9085 125.26 81.2309C125.002 79.4694 125.455 77.7099 126.526 76.2874C127.47 75.0741 128.769 74.2182 130.235 73.8553C130.487 73.7931 130.696 73.7413 130.958 73.721C132.717 73.4637 134.474 73.9192 135.906 75.034C136.836 75.7387 137.546 76.6315 137.973 77.6388C138.067 77.8382 138.15 77.9956 138.202 78.2054C138.244 78.3732 138.285 78.541 138.327 78.7088C138.337 78.9289 138.399 79.1806 138.419 79.4427Z" fill="#F3587D"/>
<path d="M125.374 82.0486C125.706 83.391 126.488 84.5774 127.554 85.4712C127.617 85.5447 127.721 85.6079 127.784 85.6814C127.847 85.755 127.951 85.8181 128.045 85.8393C129.394 86.7967 131.047 87.189 132.722 86.9524C134.48 86.6952 136.042 85.819 137.112 84.3965C138.088 83.1309 138.551 81.5915 138.46 79.9667C138.218 80.7836 137.798 81.5999 137.263 82.3112C136.056 83.901 134.348 84.9026 132.411 85.1594C130.558 85.3954 128.759 84.9504 127.254 83.8983C127.149 83.8351 127.045 83.7719 126.982 83.6984C126.878 83.6352 126.815 83.5617 126.71 83.4985C126.198 83.0465 125.728 82.584 125.374 82.0486Z" fill="#C64268"/>
<path d="M138.035 78.0686C138.045 78.1105 138.045 78.1105 138.097 78.1421C138.181 78.2995 138.285 78.3627 138.4 78.4678C135.746 81.9298 131.847 84.4976 128.883 85.8102C128.757 85.6631 128.59 85.5264 128.392 85.442C131.335 84.2237 135.307 81.5932 138.035 78.0686Z" fill="#C64268"/>
<path d="M138.517 77.682C138.423 77.4826 138.371 77.2729 138.288 77.1154C137.871 76.3282 137.338 75.6141 136.701 75.015C136.576 74.8679 136.419 74.7732 136.262 74.6784C134.778 73.532 132.854 72.9399 130.875 73.207C128.98 73.4535 127.272 74.455 126.139 75.9822C124.964 77.5197 124.499 79.4155 124.747 81.3132C124.778 81.6172 124.85 81.9109 124.913 82.1626C124.954 82.3304 124.996 82.4982 125.037 82.666C125.412 83.8199 126.101 84.8069 126.978 85.6583C127.145 85.795 127.313 85.9317 127.48 86.0684C129.016 87.2464 130.909 87.7126 132.804 87.4662C133.056 87.404 133.317 87.3837 133.569 87.3215C135.16 86.9275 136.533 86.0089 137.54 84.6911C138.107 83.9275 138.517 83.0692 138.78 82.158C139.002 81.2573 139.077 80.3037 138.932 79.3601C138.871 78.752 138.694 78.217 138.517 77.682ZM138.419 79.4425C138.678 81.204 138.224 82.9636 137.154 84.3861C136.083 85.8086 134.491 86.7371 132.763 86.942C131.088 87.1786 129.436 86.7863 128.087 85.8289C127.983 85.7658 127.92 85.6922 127.826 85.671C127.763 85.5975 127.659 85.5343 127.596 85.4608C126.311 84.3988 125.497 82.9083 125.26 81.2307C125.002 79.4692 125.455 77.7097 126.525 76.2872C127.47 75.0739 128.769 74.218 130.235 73.8551C130.487 73.7929 130.696 73.7411 130.958 73.7208C132.716 73.4636 134.474 73.919 135.906 75.0338C136.836 75.7385 137.546 76.6313 137.973 77.6386C138.067 77.838 138.15 77.9954 138.202 78.2052C138.243 78.373 138.285 78.5408 138.327 78.7086C138.337 78.9287 138.399 79.1804 138.419 79.4425Z" fill="#5932C4"/>
<path d="M139.388 76.3534C139.105 76.8243 138.811 77.2532 138.517 77.6822C138.381 77.8495 138.286 78.0064 138.15 78.1738C135.327 81.8554 131.114 84.59 128.077 85.7871C127.878 85.8809 127.668 85.9328 127.469 86.0266C127.145 86.1514 126.81 86.2344 126.516 86.307L126.433 86.3277C125.386 86.5869 124.632 86.5954 124.162 86.3111C123.691 86.0268 123.42 85.6488 123.389 85.1666C123.225 83.7827 124.84 82.0472 124.913 81.9845L124.86 82.1311L125.205 82.4465C125.174 82.4988 125.1 82.5615 125.027 82.6242C124.586 83.1785 123.789 84.2663 123.902 85.0841C123.943 85.4301 124.131 85.6507 124.445 85.8402C124.759 86.0297 125.47 86.0316 126.34 85.772C126.549 85.7201 126.758 85.6683 126.957 85.5745C127.167 85.5227 127.324 85.4392 127.533 85.3874C130.581 84.2322 135.045 81.4354 137.868 77.5756C138.005 77.4083 138.099 77.2513 138.236 77.084C138.466 76.7597 138.687 76.3935 138.907 76.0272C140.031 74.1018 139.728 73.7761 139.718 73.7341C139.425 73.4503 137.948 74.1276 136.649 74.9835C136.533 75.0566 136.418 75.1297 136.303 75.2027L136.021 74.7827C136.063 74.7723 136.136 74.7097 136.21 74.647C137.122 74.0206 139.332 72.7164 140.074 73.3787C140.534 73.7992 140.323 74.7419 139.388 76.3534Z" fill="#5932C4"/>
<path d="M231.419 230.442C231.678 232.204 231.224 233.963 230.154 235.386C229.084 236.808 227.491 237.737 225.764 237.942C224.089 238.178 222.436 237.786 221.087 236.829C220.983 236.765 220.92 236.692 220.826 236.671C220.763 236.597 220.659 236.534 220.596 236.46C219.311 235.398 218.497 233.908 218.26 232.23C218.002 230.469 218.455 228.709 219.526 227.287C220.47 226.074 221.769 225.218 223.235 224.855C223.487 224.793 223.696 224.741 223.958 224.721C225.717 224.463 227.474 224.919 228.906 226.033C229.836 226.738 230.546 227.631 230.973 228.638C231.067 228.838 231.15 228.995 231.202 229.205C231.244 229.373 231.285 229.541 231.327 229.708C231.337 229.928 231.399 230.18 231.419 230.442Z" fill="#F3587D"/>
<path d="M218.374 233.048C218.706 234.391 219.489 235.577 220.554 236.471C220.617 236.544 220.722 236.607 220.784 236.681C220.847 236.754 220.951 236.818 221.046 236.839C222.394 237.796 224.047 238.188 225.722 237.952C227.481 237.695 229.042 236.818 230.112 235.396C231.088 234.13 231.551 232.591 231.46 230.966C231.218 231.783 230.798 232.599 230.263 233.311C229.056 234.901 227.348 235.902 225.411 236.159C223.558 236.395 221.759 235.95 220.254 234.898C220.149 234.835 220.045 234.771 219.982 234.698C219.878 234.635 219.815 234.561 219.71 234.498C219.198 234.046 218.728 233.584 218.374 233.048Z" fill="#C64268"/>
<path d="M231.035 229.068C231.045 229.11 231.045 229.11 231.098 229.142C231.181 229.299 231.285 229.362 231.4 229.467C228.746 232.929 224.847 235.497 221.883 236.81C221.758 236.663 221.59 236.526 221.392 236.442C224.335 235.223 228.307 232.593 231.035 229.068Z" fill="#C64268"/>
<path d="M231.517 228.682C231.423 228.482 231.371 228.272 231.288 228.115C230.871 227.328 230.338 226.614 229.701 226.014C229.576 225.867 229.419 225.773 229.262 225.678C227.778 224.532 225.854 223.939 223.875 224.207C221.98 224.453 220.272 225.455 219.139 226.982C217.964 228.519 217.499 230.415 217.747 232.313C217.778 232.617 217.85 232.91 217.913 233.162C217.954 233.33 217.996 233.498 218.037 233.666C218.412 234.819 219.101 235.806 219.978 236.658C220.145 236.794 220.313 236.931 220.48 237.068C222.016 238.246 223.91 238.712 225.804 238.466C226.056 238.403 226.317 238.383 226.569 238.321C228.16 237.927 229.533 237.008 230.54 235.691C231.107 234.927 231.517 234.069 231.78 233.158C232.002 232.257 232.077 231.303 231.932 230.36C231.871 229.752 231.694 229.217 231.517 228.682ZM231.419 230.442C231.678 232.204 231.224 233.963 230.154 235.386C229.083 236.808 227.491 237.737 225.763 237.942C224.088 238.178 222.436 237.786 221.087 236.828C220.983 236.765 220.92 236.692 220.826 236.671C220.763 236.597 220.659 236.534 220.596 236.46C219.311 235.398 218.497 233.908 218.26 232.23C218.002 230.469 218.455 228.709 219.526 227.287C220.47 226.073 221.769 225.218 223.235 224.855C223.487 224.792 223.696 224.741 223.958 224.72C225.716 224.463 227.474 224.918 228.906 226.033C229.836 226.738 230.546 227.631 230.973 228.638C231.067 228.838 231.15 228.995 231.202 229.205C231.244 229.373 231.285 229.54 231.327 229.708C231.337 229.928 231.399 230.18 231.419 230.442Z" fill="#5932C4"/>
<path d="M232.388 227.353C232.105 227.824 231.811 228.253 231.517 228.682C231.381 228.849 231.286 229.006 231.15 229.173C228.327 232.855 224.114 235.59 221.077 236.787C220.878 236.88 220.668 236.932 220.469 237.026C220.145 237.151 219.81 237.234 219.516 237.306L219.433 237.327C218.386 237.586 217.632 237.595 217.162 237.311C216.691 237.026 216.42 236.648 216.389 236.166C216.225 234.782 217.84 233.047 217.913 232.984L217.86 233.131L218.205 233.446C218.174 233.498 218.1 233.561 218.027 233.624C217.586 234.178 216.789 235.266 216.902 236.084C216.944 236.43 217.131 236.65 217.445 236.84C217.759 237.029 218.47 237.031 219.34 236.771C219.549 236.72 219.758 236.668 219.957 236.574C220.167 236.522 220.324 236.439 220.533 236.387C223.581 235.232 228.045 232.435 230.868 228.575C231.005 228.408 231.099 228.251 231.236 228.083C231.466 227.759 231.687 227.393 231.907 227.027C233.031 225.101 232.728 224.776 232.718 224.734C232.425 224.45 230.948 225.127 229.649 225.983C229.534 226.056 229.418 226.129 229.303 226.202L229.021 225.782C229.063 225.772 229.136 225.709 229.21 225.646C230.122 225.02 232.333 223.716 233.074 224.378C233.534 224.799 233.323 225.741 232.388 227.353Z" fill="#5932C4"/>
<path d="M197.101 267.574L111.087 172.005L96.4869 118.503L82.5012 61L105.001 80.5L109.021 91.7514L136.155 118.503L190.423 172.005L197.101 267.574Z" fill="#5BF1CD"/>
</svg>
