<svg height="265" width="182" xmlns="http://www.w3.org/2000/svg" xmlns:xlink="http://www.w3.org/1999/xlink"><mask id="a" fill="#fff"><path d="m0 264.46h181.914v-263.92h-181.914z" fill="#fff" fill-rule="evenodd"/></mask><g fill="none" fill-rule="evenodd"><path d="m13.772 150.954v-22.952z" fill="#25e899"/><path d="m13.772 150.954v-22.952" stroke="#15003e" stroke-linecap="round" stroke-width="3.24"/><path d="m13.772 209.506v-20.634z" fill="#15003e"/><path d="m13.772 209.507v-20.635" stroke="#15003e" stroke-linecap="round" stroke-width="3.24"/><path d="m48.446 132.565h74.654z" fill="#25e899"/><path d="m48.446 132.565h74.654" stroke="#15003e" stroke-linejoin="round" stroke-width="3.24"/><path d="m48.446 132.565.81 10.962 7.396 10.005 6.48.615 23.723 2.315 24.321-1.746 8.154-5.66 3.77-10.776-1.618-5.715z" fill="#15003e"/><g transform="translate(0 .001)"><path d="m105.844 155.56h-40.142c-9.53 0-17.256-7.737-17.256-17.28v-24.364h74.654v24.363c0 9.544-7.726 17.28-17.256 17.28z" stroke="#15003e" stroke-linejoin="round" stroke-width="3.24"/><path d="m93.066 133.52c0-4.261-3.45-7.717-7.707-7.717-4.256 0-7.707 3.456-7.707 7.718 0 4.263 3.451 7.718 7.707 7.718 4.257 0 7.707-3.455 7.707-7.718" fill="#25e899"/><path d="m93.066 133.52c0-4.261-3.45-7.717-7.707-7.717-4.256 0-7.707 3.456-7.707 7.718 0 4.263 3.451 7.718 7.707 7.718 4.257 0 7.707-3.455 7.707-7.718z" stroke="#15003e" stroke-linejoin="round" stroke-width="3.24"/><path d="m56.454 151.954a3.765 3.765 0 0 0 -3.763-3.768 3.765 3.765 0 0 0 -3.762 3.768 3.765 3.765 0 0 0 3.762 3.768 3.765 3.765 0 0 0 3.763-3.768m66.1 0a3.765 3.765 0 0 0 -3.763-3.768 3.765 3.765 0 0 0 -3.763 3.768 3.765 3.765 0 0 0 3.763 3.768 3.765 3.765 0 0 0 3.763-3.768" fill="#15003e"/><path d="m91.984 159.427c0-3.434-2.78-6.22-6.21-6.22a6.215 6.215 0 0 0 -6.212 6.22c0 3.436 2.781 6.22 6.211 6.22s6.21-2.784 6.21-6.22m26.389-10.039a2.336 2.336 0 0 0 -4.67 0 2.336 2.336 0 1 0 4.67 0m-61.01 0a2.336 2.336 0 0 0 -4.67 0 2.337 2.337 0 0 0 2.335 2.338 2.337 2.337 0 0 0 2.335-2.338" fill="#eff4ee"/><path d="m51.198 205.627h-6.163v-36.817c0-3.41 2.76-6.173 6.163-6.173a6.168 6.168 0 0 1 6.164 6.173v30.646c0 3.41-2.76 6.172-6.164 6.172z" stroke="#15003e" stroke-linejoin="round" stroke-width="3.24"/><path d="m64.666 168.427v41.079m-4.121 19.894h-11.39a4.124 4.124 0 0 1 -4.12-4.126 4.124 4.124 0 0 1 4.12-4.127h11.39a4.124 4.124 0 0 1 4.121 4.127 4.124 4.124 0 0 1 -4.121 4.127zm9.612 28.97h-28.456a5.52 5.52 0 0 1 -5.517-5.525 5.52 5.52 0 0 1 5.517-5.524h28.456a5.52 5.52 0 0 1 5.517 5.524 5.52 5.52 0 0 1 -5.517 5.524z" stroke="#15003e" stroke-linecap="round" stroke-linejoin="round" stroke-width="3.24"/><path d="m49.155 247.32h10.947v-17.92h-10.947zm-4.12-31.954h19.631" mask="url(#a)" stroke="#15003e" stroke-linecap="round" stroke-linejoin="round" stroke-width="3.24"/><path d="m41.904 262.253h10.566v-3.884h-10.566z" fill="#15003e" mask="url(#a)"/><path d="m41.904 262.253h10.566v-3.884h-10.566z" mask="url(#a)" stroke="#15003e" stroke-linejoin="round" stroke-width="3.24"/><path d="m57.942 262.253h10.565v-3.884h-10.565z" fill="#15003e" mask="url(#a)"/><path d="m57.942 262.253h10.565v-3.884h-10.565z" mask="url(#a)" stroke="#15003e" stroke-linejoin="round" stroke-width="3.24"/><g mask="url(#a)"><path d="m45.035 191.974h12.327" fill="#15003e"/><path d="m45.035 191.974h12.327" stroke="#15003e" stroke-linejoin="round" stroke-width="3.24"/></g><g mask="url(#a)"><path d="m45.035 175.93h12.327" fill="#15003e"/><path d="m45.035 175.93h12.327" stroke="#15003e" stroke-linejoin="round" stroke-width="3.24"/></g><g stroke="#15003e" stroke-width="3.24"><path d="m58.06 210.402a4.616 4.616 0 0 0 -4.612-4.62 4.616 4.616 0 0 0 -4.614 4.62 4.616 4.616 0 0 0 4.614 4.62 4.616 4.616 0 0 0 4.612-4.62zm-3.431 10.745v-5.781m-5.7-57.115h7.525l5.51 5.517" mask="url(#a)" stroke-linecap="round" stroke-linejoin="round"/><path d="m121.362 205.777h6.163v-36.817c0-3.41-2.759-6.173-6.163-6.173a6.167 6.167 0 0 0 -6.164 6.173v30.646c0 3.41 2.76 6.172 6.164 6.172z" mask="url(#a)" stroke-linejoin="round"/><path d="m107.894 168.577v41.079m4.121 19.894h11.39a4.124 4.124 0 0 0 4.12-4.126 4.124 4.124 0 0 0 -4.12-4.127h-11.39a4.123 4.123 0 0 0 -4.12 4.127 4.124 4.124 0 0 0 4.12 4.127zm-9.612 28.97h28.456a5.52 5.52 0 0 0 5.517-5.525 5.52 5.52 0 0 0 -5.517-5.524h-28.456a5.52 5.52 0 0 0 -5.517 5.524 5.52 5.52 0 0 0 5.517 5.525z" mask="url(#a)" stroke-linecap="round" stroke-linejoin="round"/><path d="m112.458 247.471h10.947v-17.92h-10.947zm15.067-31.955h-19.63" mask="url(#a)" stroke-linecap="round" stroke-linejoin="round"/></g><path d="m120.091 262.403h10.566v-3.884h-10.567z" fill="#15003e" mask="url(#a)"/><path d="m120.091 262.403h10.566v-3.884h-10.567z" mask="url(#a)" stroke="#15003e" stroke-linejoin="round" stroke-width="3.24"/><path d="m104.053 262.403h10.564v-3.884h-10.564z" fill="#15003e" mask="url(#a)"/><path d="m104.053 262.403h10.564v-3.884h-10.564z" mask="url(#a)" stroke="#15003e" stroke-linejoin="round" stroke-width="3.24"/><g mask="url(#a)"><path d="m127.525 192.124h-12.325" fill="#15003e"/><path d="m127.525 192.124h-12.325" stroke="#15003e" stroke-linejoin="round" stroke-width="3.24"/></g><g mask="url(#a)"><path d="m127.525 176.08h-12.325" fill="#15003e"/><path d="m127.525 176.08h-12.325" stroke="#15003e" stroke-linejoin="round" stroke-width="3.24"/></g><path d="m114.5 210.552a4.616 4.616 0 0 1 4.613-4.62 4.617 4.617 0 0 1 4.613 4.62 4.616 4.616 0 0 1 -4.613 4.62 4.616 4.616 0 0 1 -4.613-4.62zm3.43 10.745v-5.781m5.701-57.115h-7.525l-5.51 5.517m-92.644 39.375h-8.36c-4.403 0-7.971-3.574-7.971-7.982v-59.328c0-4.408 3.568-7.982 7.97-7.982h8.36c4.403 0 7.972 3.574 7.972 7.982v59.328c0 4.408-3.57 7.982-7.971 7.982z" mask="url(#a)" stroke="#15003e" stroke-linecap="round" stroke-linejoin="round" stroke-width="3.24"/><path d="m20.206 188.871a6.44 6.44 0 0 0 -6.434-6.444 6.44 6.44 0 0 0 -6.435 6.444 6.44 6.44 0 0 0 6.435 6.443 6.439 6.439 0 0 0 6.434-6.443" fill="#25e899" mask="url(#a)"/><path d="m20.206 188.871a6.44 6.44 0 0 0 -6.434-6.444 6.44 6.44 0 0 0 -6.435 6.444 6.44 6.44 0 0 0 6.435 6.443 6.439 6.439 0 0 0 6.434-6.443z" mask="url(#a)" stroke="#15003e" stroke-linecap="round" stroke-width="3.24"/><path d="m1.62 150.953h24.303m-24.303 14.694h24.303" mask="url(#a)" stroke="#15003e" stroke-linecap="round" stroke-linejoin="round" stroke-width="3.24"/><path d="m25.923 143.597h23.386v-11.968h-23.386z" fill="#15003e" mask="url(#a)"/><g mask="url(#a)"><path d="m8.017 229.513v-15.965a4.043 4.043 0 0 1 4.04-4.045h3.43a4.043 4.043 0 0 1 4.04 4.045v15.965" fill="#eff4ee"/><path d="m8.017 229.513v-15.965a4.043 4.043 0 0 1 4.04-4.045h3.43a4.043 4.043 0 0 1 4.04 4.045v15.965" stroke="#15003e" stroke-linecap="round" stroke-width="3.24"/></g><path d="m19.526 229.513a5.759 5.759 0 0 0 -5.754-5.763 5.76 5.76 0 0 0 -5.756 5.763 5.759 5.759 0 0 0 5.756 5.763 5.758 5.758 0 0 0 5.754-5.763" fill="#25e899" mask="url(#a)"/><path d="m19.526 229.513a5.759 5.759 0 0 0 -5.754-5.763 5.76 5.76 0 0 0 -5.756 5.763 5.759 5.759 0 0 0 5.756 5.763 5.758 5.758 0 0 0 5.754-5.763z" mask="url(#a)" stroke="#15003e" stroke-linecap="round" stroke-width="3.24"/><path d="m154.932 203.293h8.361c4.403 0 7.97-3.574 7.97-7.982v-59.328c0-4.408-3.567-7.982-7.97-7.982h-8.36c-4.403 0-7.972 3.574-7.972 7.982v59.328c0 4.408 3.57 7.982 7.971 7.982zm16.332-52.34h-24.304m24.304 14.694h-24.304" mask="url(#a)" stroke="#15003e" stroke-linecap="round" stroke-linejoin="round" stroke-width="3.24"/><g mask="url(#a)"><path d="m159.113 150.953v-22.952" fill="#25e899"/><path d="m159.113 150.953v-22.952" stroke="#15003e" stroke-linecap="round" stroke-width="3.24"/></g><path d="m123.575 143.597h23.386v-11.968h-23.386z" fill="#15003e" mask="url(#a)"/><g mask="url(#a)"><path d="m164.868 193.425v-15.964a4.043 4.043 0 0 0 -4.04-4.046h-3.43a4.043 4.043 0 0 0 -4.04 4.046v15.964" fill="#eff4ee"/><path d="m164.868 193.425v-15.964a4.043 4.043 0 0 0 -4.04-4.046h-3.43a4.043 4.043 0 0 0 -4.04 4.046v15.964" stroke="#15003e" stroke-linecap="round" stroke-width="3.24"/></g><path d="m153.358 193.425a5.758 5.758 0 0 1 5.754-5.762 5.759 5.759 0 0 1 5.756 5.762 5.76 5.76 0 0 1 -5.756 5.763 5.759 5.759 0 0 1 -5.754-5.763" fill="#25e899" mask="url(#a)"/><path d="m153.358 193.425a5.758 5.758 0 0 1 5.754-5.762 5.759 5.759 0 0 1 5.756 5.762 5.76 5.76 0 0 1 -5.756 5.763 5.759 5.759 0 0 1 -5.754-5.763z" mask="url(#a)" stroke="#15003e" stroke-linecap="round" stroke-width="3.24"/><g mask="url(#a)"><path d="m180.294 262.837h-166.522" fill="#15003e"/><path d="m180.294 262.837h-166.522" stroke="#15003e" stroke-linecap="round" stroke-width="3.24"/></g><path d="m58.06 113.916h53.117v-11.96h-53.117z" mask="url(#a)" stroke="#15003e" stroke-linecap="round" stroke-width="3.24"/><path d="m64.241 95.976h41.43" mask="url(#a)" stroke="#25e899" stroke-linecap="round" stroke-width="3.24"/><path d="m56.337 61.724h52.074l4.413 1.687-3.32 11.9h-49.89z" fill="#25e899" mask="url(#a)"/><path d="m102.452 90.02h-35.786c-3.895 0-7.052-3.162-7.052-7.063v-7.646h49.89v7.646c0 3.9-3.157 7.063-7.052 7.063" fill="#eff4ee" mask="url(#a)"/><path d="m102.452 90.02h-35.786c-3.895 0-7.052-3.162-7.052-7.063v-7.646h49.89v7.646c0 3.9-3.157 7.063-7.052 7.063z" mask="url(#a)" stroke="#15003e" stroke-linecap="round" stroke-width="3.24"/><path d="m75.413 61.724c-7.833-3.444-13.303-11.28-13.303-20.394 0-5.38 1.904-10.315 5.077-14.163 4.078-4.95 29.733-5.2 33.806-.596a22.2 22.2 0 0 1 5.586 14.759c0 9.114-5.47 16.95-13.3 20.395" fill="#0fce7c" mask="url(#a)"/><path d="m74.007 61.723c-7.75-3.776-13.091-11.738-13.091-20.949a23.2 23.2 0 0 1 3.655-12.539m38.353-1.224a23.202 23.202 0 0 1 4.495 13.763c0 9.115-5.23 17.008-12.851 20.83" mask="url(#a)" stroke="#15003e" stroke-linecap="round" stroke-width="3.24"/><path d="m51.446 43.11c0-18.313 14.825-33.16 33.113-33.16s33.114 14.847 33.114 33.16l-8.168 32.201h-49.891l-8.168-32.2zm0-.479v-31.559m66.226 31.559v-40.469" mask="url(#a)" stroke="#15003e" stroke-linecap="round" stroke-width="3.24"/><path d="m54.025 56.805h-3.418c-2.766 0-5.028-2.265-5.028-5.035v-12.787c0-2.77 2.262-5.036 5.028-5.036h1.45m63.155 22.858h3.418c2.765 0 5.029-2.265 5.029-5.035v-12.787c0-2.77-2.264-5.036-5.029-5.036h-1.45" mask="url(#a)" stroke="#15003e" stroke-linecap="round" stroke-width="3.24"/><path d="m51.802 37.564c8.517-8.736 20.285-14.14 33.282-14.14 12.29 0 23.48 4.831 31.862 12.743m-60.609 25.555h56.487" mask="url(#a)" stroke="#15003e" stroke-linecap="round" stroke-width="3.24"/><path d="m96.18 33.947a5.804 5.804 0 0 1 -5.8 5.809c-3.203 0-5.8-2.6-5.8-5.809a5.804 5.804 0 0 1 5.8-5.808c3.204 0 5.8 2.6 5.8 5.808m4.145 8.684a2.347 2.347 0 0 1 -2.345 2.349 2.348 2.348 0 0 1 -2.345-2.349 2.348 2.348 0 0 1 2.345-2.349 2.347 2.347 0 0 1 2.345 2.349" fill="#fff" mask="url(#a)"/><path d="m104.589 70.68c-2.857 0-2.857-4.326-5.714-4.326s-2.857 4.327-5.714 4.327c-2.858 0-2.858-4.327-5.716-4.327-2.859 0-2.859 4.327-5.718 4.327-2.858 0-2.858-4.327-5.716-4.327-2.86 0-2.86 4.327-5.72 4.327s-2.86-4.327-5.72-4.327" mask="url(#a)" stroke="#15003e" stroke-linecap="round" stroke-width="3.24"/></g></g></svg>