<svg id="ey0lu0nyz23k1" xmlns="http://www.w3.org/2000/svg" xmlns:xlink="http://www.w3.org/1999/xlink" viewBox="0 0 412 468" shape-rendering="geometricPrecision" text-rendering="geometricPrecision"><style><![CDATA[#ey0lu0nyz23k32 {animation: ey0lu0nyz23k32_c_o 8000ms linear infinite normal forwards}@keyframes ey0lu0nyz23k32_c_o { 0% {opacity: 0} 82.500000% {opacity: 0} 85% {opacity: 1} 95% {opacity: 1} 100% {opacity: 0} }#ey0lu0nyz23k37 {animation: ey0lu0nyz23k37_c_o 8000ms linear infinite normal forwards}@keyframes ey0lu0nyz23k37_c_o { 0% {opacity: 0} 60% {opacity: 0} 62.500000% {opacity: 1} 77.500000% {opacity: 1} 82.500000% {opacity: 0} 100% {opacity: 0} }#ey0lu0nyz23k45 {animation: ey0lu0nyz23k45_c_o 8000ms linear infinite normal forwards}@keyframes ey0lu0nyz23k45_c_o { 0% {opacity: 0} 35% {opacity: 0} 37.500000% {opacity: 1} 55% {opacity: 1} 60% {opacity: 0} 100% {opacity: 0} }#ey0lu0nyz23k51 {animation: ey0lu0nyz23k51_c_o 8000ms linear infinite normal forwards}@keyframes ey0lu0nyz23k51_c_o { 0% {opacity: 0} 17.500000% {opacity: 0} 25% {opacity: 1} 32.500000% {opacity: 1} 37.500000% {opacity: 0} 100% {opacity: 0} }#ey0lu0nyz23k54 {animation: ey0lu0nyz23k54_c_o 8000ms linear infinite normal forwards}@keyframes ey0lu0nyz23k54_c_o { 0% {opacity: 1} 15% {opacity: 1} 20% {opacity: 0} 100% {opacity: 0} }#ey0lu0nyz23k66 {animation: ey0lu0nyz23k66_c_o 8000ms linear infinite normal forwards}@keyframes ey0lu0nyz23k66_c_o { 0% {opacity: 0} 18.750000% {opacity: 1} 37.500000% {opacity: 0} 56.250000% {opacity: 1} 100% {opacity: 0} }#ey0lu0nyz23k67 {animation: ey0lu0nyz23k67_c_o 8000ms linear infinite normal forwards}@keyframes ey0lu0nyz23k67_c_o { 0% {opacity: 1} 18.750000% {opacity: 0} 37.500000% {opacity: 1} 56.250000% {opacity: 0} 100% {opacity: 1} }#ey0lu0nyz23k68 {animation: ey0lu0nyz23k68_c_o 8000ms linear infinite normal forwards}@keyframes ey0lu0nyz23k68_c_o { 0% {opacity: 0} 18.750000% {opacity: 1} 37.500000% {opacity: 0} 56.250000% {opacity: 1} 100% {opacity: 0} }#ey0lu0nyz23k69 {animation: ey0lu0nyz23k69_c_o 8000ms linear infinite normal forwards}@keyframes ey0lu0nyz23k69_c_o { 0% {opacity: 1} 18.750000% {opacity: 0} 37.500000% {opacity: 1} 56.250000% {opacity: 0} 100% {opacity: 1} }#ey0lu0nyz23k70 {animation: ey0lu0nyz23k70_c_o 8000ms linear infinite normal forwards}@keyframes ey0lu0nyz23k70_c_o { 0% {opacity: 0} 18.750000% {opacity: 1} 37.500000% {opacity: 0} 56.250000% {opacity: 1} 100% {opacity: 0} }#ey0lu0nyz23k71 {animation: ey0lu0nyz23k71_c_o 8000ms linear infinite normal forwards}@keyframes ey0lu0nyz23k71_c_o { 0% {opacity: 1} 18.750000% {opacity: 0} 37.500000% {opacity: 1} 56.250000% {opacity: 0} 100% {opacity: 1} }#ey0lu0nyz23k72 {animation: ey0lu0nyz23k72_c_o 8000ms linear infinite normal forwards}@keyframes ey0lu0nyz23k72_c_o { 0% {opacity: 0} 18.750000% {opacity: 1} 37.500000% {opacity: 0} 56.250000% {opacity: 1} 100% {opacity: 0} }#ey0lu0nyz23k73 {animation: ey0lu0nyz23k73_c_o 8000ms linear infinite normal forwards}@keyframes ey0lu0nyz23k73_c_o { 0% {opacity: 1} 18.750000% {opacity: 0} 37.500000% {opacity: 1} 56.250000% {opacity: 0} 100% {opacity: 1} }#ey0lu0nyz23k74 {animation: ey0lu0nyz23k74_c_o 8000ms linear infinite normal forwards}@keyframes ey0lu0nyz23k74_c_o { 0% {opacity: 0} 18.750000% {opacity: 1} 37.500000% {opacity: 0} 56.250000% {opacity: 1} 100% {opacity: 0} }#ey0lu0nyz23k75 {animation: ey0lu0nyz23k75_c_o 8000ms linear infinite normal forwards}@keyframes ey0lu0nyz23k75_c_o { 0% {opacity: 1} 18.750000% {opacity: 0} 37.500000% {opacity: 1} 56.250000% {opacity: 0} 100% {opacity: 1} }#ey0lu0nyz23k76 {animation: ey0lu0nyz23k76_c_o 8000ms linear infinite normal forwards}@keyframes ey0lu0nyz23k76_c_o { 0% {opacity: 0} 18.750000% {opacity: 1} 37.500000% {opacity: 0} 56.250000% {opacity: 1} 100% {opacity: 0} }#ey0lu0nyz23k77 {animation: ey0lu0nyz23k77_c_o 8000ms linear infinite normal forwards}@keyframes ey0lu0nyz23k77_c_o { 0% {opacity: 1} 18.750000% {opacity: 0} 37.500000% {opacity: 1} 56.250000% {opacity: 0} 100% {opacity: 1} }#ey0lu0nyz23k78 {animation: ey0lu0nyz23k78_s_do 8000ms linear infinite normal forwards}@keyframes ey0lu0nyz23k78_s_do { 0% {stroke-dashoffset: 398.980000} 33.750000% {stroke-dashoffset: 0} 67.500000% {stroke-dashoffset: 0} 100% {stroke-dashoffset: -398.980000} }]]></style><path id="ey0lu0nyz23k2" d="M60.034900,375.904000L89.469700,436.936000C97.238300,454.098000,114.675000,465.233000,134.010000,465.233000L277.817000,465.233000C297.153000,465.233000,314.676000,454.098000,322.358000,436.936000L375.962000,319.644000C374.408000,318.555000,371.991000,317.132000,368.798000,316.211000C359.389000,313.448000,350.671000,317.048000,346.096000,318.974000C346.096000,318.974000,322.617000,328.769000,297.757000,338.815000C297.757000,338.815000,285.500000,343.755000,271.516000,347.857000C216.704000,364.015000,162.841000,346.350000,139.621000,356.229000C133.492000,358.825000,123.738000,362.006000,117.523000,364.518000C113.380000,366.192000,108.805000,368.285000,103.971000,366.778000C101.036000,365.857000,100.950000,364.518000,98.360500,363.597000C92.922400,361.671000,87.484300,365.522000,80.665100,368.871000C76.176500,371.048000,69.357400,373.894000,60.034900,375.904000Z" fill="rgb(218,209,255)" stroke="none" stroke-width="1"/><g id="ey0lu0nyz23k3"><path id="ey0lu0nyz23k4" d="M262.970000,464.814000L144.972000,464.814000C144.972000,464.814000,118.904000,470.591000,100.086000,449.410000L95.597900,445.726000C95.597900,416.926000,106.129000,402.778000,114.933000,394.657000C124.601000,385.783000,134.096000,383.773000,134.528000,383.689000L146.267000,381.094000C145.922000,379.838000,145.835000,379.001000,145.835000,378.917000L145.835000,378.834000C145.835000,354.890000,152.396000,336.639000,165.344000,324.499000C182.003000,308.844000,203.065000,309.262000,204.273000,309.346000C219.552000,309.346000,232.068000,314.202000,241.477000,323.830000C245.965000,328.434000,249.418000,333.709000,252.094000,339.234000C260.122000,355.057000,261.416000,373.057000,261.503000,381.178000L273.156000,383.773000C273.501000,383.857000,283.083000,385.950000,292.750000,395.410000C301.555000,404.033000,312.086000,420.694000,312.086000,451.084000C308.892000,453.931000,304.749000,457.028000,299.483000,459.624000C284.464000,467.075000,269.703000,465.819000,262.970000,464.814000Z" fill="rgb(255,255,255)" stroke="none" stroke-width="1"/><path id="ey0lu0nyz23k5" d="M312.086000,455.019000C311.309000,449.996000,309.669000,442.712000,305.526000,434.675000C300.951000,425.717000,295.254000,419.940000,292.319000,417.010000C279.544000,404.536000,266.855000,401.689000,266.337000,401.606000L250.799000,398.173000C250.627000,387.373000,248.900000,363.513000,238.283000,342.499000C234.744000,335.132000,230.083000,328.099000,224.127000,322.071000C223.782000,321.737000,223.436000,321.402000,223.091000,321.067000C225.767000,322.323000,229.996000,324.164000,235.176000,326.257000C242.599000,329.271000,244.584000,329.774000,247.001000,331.616000C251.749000,335.299000,253.389000,340.574000,254.770000,346.015000C258.223000,359.494000,259.949000,372.806000,260.899000,383.271000C267.286000,384.527000,273.674000,385.866000,280.148000,387.122000C285.672000,389.969000,292.491000,394.489000,298.534000,401.606000C316.574000,422.787000,312.949000,449.410000,312.086000,455.019000Z" fill="rgb(140,101,247)" fill-opacity="0.12" stroke="none" stroke-width="1"/><path id="ey0lu0nyz23k6" d="M95.943200,450.080000C96.720100,445.056000,97.583300,442.796000,101.727000,434.759000C106.302000,425.801000,111.999000,420.024000,114.933000,417.094000C127.709000,404.620000,140.398000,401.773000,140.915000,401.689000L156.453000,398.257000C156.625000,387.457000,158.352000,363.597000,168.969000,342.583000C172.508000,335.216000,177.169000,328.183000,183.125000,322.155000C183.471000,321.820000,183.816000,321.486000,184.161000,321.151000C181.485000,322.406000,177.256000,324.248000,172.077000,326.341000C164.653000,329.355000,162.668000,329.858000,160.251000,331.699000C155.503000,335.383000,153.863000,340.657000,152.482000,346.099000C149.029000,359.578000,147.303000,372.890000,146.354000,383.355000C139.966000,384.611000,133.578000,385.950000,127.104000,387.206000C121.580000,390.052000,114.761000,394.573000,108.718000,401.689000C90.764100,422.787000,95.080000,444.387000,95.943200,450.080000Z" fill="rgb(140,101,247)" fill-opacity="0.12" stroke="none" stroke-width="1"/><path id="ey0lu0nyz23k7" d="M243.808000,326.760000C242.081000,324.583000,239.405000,321.820000,235.694000,319.225000C231.723000,316.462000,227.925000,314.872000,225.163000,313.951000C222.487000,312.946000,219.120000,311.941000,215.236000,311.272000C210.920000,310.518000,207.208000,310.016000,204.101000,310.100000C201.339000,310.183000,198.318000,310.602000,195.037000,311.188000C190.376000,311.941000,186.147000,313.365000,182.780000,314.620000C179.845000,315.876000,176.479000,317.718000,172.940000,320.062000C170.955000,321.402000,169.228000,322.741000,167.761000,324.081000C166.380000,325.169000,164.912000,326.425000,163.445000,327.932000C161.546000,329.857000,159.992000,331.699000,158.784000,333.374000C159.733000,332.704000,161.028000,331.783000,162.754000,330.695000C169.401000,326.676000,184.075000,319.392000,203.410000,319.392000C224.990000,319.392000,241.736000,330.443000,247.433000,334.797000C248.814000,335.885000,249.591000,336.471000,249.591000,336.471000L243.808000,326.760000ZM229.910000,319.811000C229.306000,321.318000,225.335000,321.318000,220.933000,319.811000C216.531000,318.304000,213.510000,315.792000,214.028000,314.286000C214.287000,313.616000,215.322000,313.197000,216.790000,313.113000C218.430000,313.030000,220.674000,313.448000,223.005000,314.286000C225.249000,315.039000,227.148000,316.127000,228.443000,317.132000C229.651000,318.137000,230.169000,319.058000,229.910000,319.811000Z" fill="rgb(111,63,245)" stroke="none" stroke-width="1"/><path id="ey0lu0nyz23k8" d="M202.979000,412.071000C174.753000,412.071000,160.510000,403.113000,153.518000,395.578000C145.836000,387.290000,144.973000,379.169000,144.973000,378.834000L144.973000,378.750000C144.973000,354.388000,151.619000,335.802000,164.826000,323.495000C181.744000,307.588000,203.238000,308.007000,204.446000,308.090000C219.984000,308.090000,232.673000,313.030000,242.340000,322.825000C263.834000,344.760000,262.280000,382.852000,262.194000,384.443000L262.194000,384.527000C262.107000,384.862000,260.985000,391.727000,253.044000,398.592000C242.340000,407.466000,225.594000,412.071000,202.979000,412.071000ZM147.562000,378.666000C147.649000,379.336000,148.684000,386.787000,155.590000,394.071000C165.171000,404.201000,181.572000,409.559000,203.065000,409.559000C230.256000,409.559000,244.153000,402.610000,251.058000,396.750000C258.050000,390.806000,259.431000,384.778000,259.518000,384.108000C259.604000,382.183000,260.726000,345.095000,240.355000,324.416000C231.291000,315.207000,219.120000,310.518000,204.360000,310.518000L204.274000,310.518000C204.101000,310.518000,182.780000,310.016000,166.552000,325.253000C153.950000,337.057000,147.562000,355.057000,147.562000,378.666000Z" fill="rgb(111,63,245)" stroke="none" stroke-width="1"/><path id="ey0lu0nyz23k9" d="M314.158000,452.089000L311.568000,452.089000C311.568000,422.117000,301.382000,405.792000,292.750000,397.420000C283.514000,388.294000,274.106000,386.201000,274.019000,386.201000L260.812000,383.271000L261.417000,380.843000L274.624000,383.773000C275.055000,383.857000,284.723000,386.034000,294.563000,395.578000C303.454000,404.285000,314.158000,421.196000,314.158000,452.089000Z" fill="rgb(111,63,245)" stroke="none" stroke-width="1"/><path id="ey0lu0nyz23k10" d="M266.510000,466.154000L263.920000,466.154000L263.920000,422.452000C263.920000,390.973000,275.832000,385.280000,276.350000,385.029000L277.472000,387.289000L276.954000,386.117000L277.472000,387.289000C277.386000,387.373000,266.510000,392.815000,266.510000,422.368000L266.510000,466.154000Z" fill="rgb(111,63,245)" stroke="none" stroke-width="1"/><path id="ey0lu0nyz23k11" d="M267.804000,433.168000C266.682000,433.168000,266.078000,433.084000,265.992000,433.084000L266.251000,430.573000C267.200000,430.656000,288.952000,432.749000,302.073000,408.052000L304.404000,409.224000C292.664000,431.410000,273.674000,433.168000,267.804000,433.168000Z" fill="rgb(111,63,245)" stroke="none" stroke-width="1"/><path id="ey0lu0nyz23k12" d="M267.114000,456.108000C265.646000,456.108000,264.697000,456.024000,264.697000,456.024000L264.956000,453.512000C265.215000,453.512000,293.355000,455.940000,310.014000,431.075000L312.172000,432.415000C297.584000,454.266000,274.537000,456.108000,267.114000,456.108000Z" fill="rgb(111,63,245)" stroke="none" stroke-width="1"/><path id="ey0lu0nyz23k13" d="M96.375000,448.489000L93.785400,448.489000C93.785400,419.187000,104.489000,403.196000,113.466000,394.824000C123.307000,385.783000,132.974000,383.773000,133.406000,383.690000L146.526000,380.759000L147.131000,383.187000L133.924000,386.118000C133.837000,386.118000,124.429000,388.127000,115.106000,396.750000C106.647000,404.703000,96.375000,420.192000,96.375000,448.489000Z" fill="rgb(111,63,245)" stroke="none" stroke-width="1"/><path id="ey0lu0nyz23k14" d="M144.023000,466.154000L141.434000,466.154000L141.434000,422.452000C141.434000,392.899000,130.557000,387.373000,130.471000,387.373000L131.593000,385.113000C132.111000,385.364000,144.023000,391.057000,144.023000,422.536000L144.023000,466.154000Z" fill="rgb(111,63,245)" stroke="none" stroke-width="1"/><path id="ey0lu0nyz23k15" d="M140.225000,433.168000C134.355000,433.168000,115.365000,431.410000,103.540000,409.308000L105.870000,408.136000C119.077000,432.833000,141.520000,430.657000,141.693000,430.657000L141.951000,433.168000C141.951000,433.168000,141.261000,433.168000,140.225000,433.168000Z" fill="rgb(111,63,245)" stroke="none" stroke-width="1"/><path id="ey0lu0nyz23k16" d="M140.829000,456.108000C133.320000,456.108000,110.359000,454.266000,95.771100,432.498000L97.929100,431.159000C114.589000,455.940000,142.728000,453.596000,142.987000,453.596000L143.246000,456.108000C143.246000,456.024000,142.383000,456.108000,140.829000,456.108000Z" fill="rgb(111,63,245)" stroke="none" stroke-width="1"/><path id="ey0lu0nyz23k17" d="M210.402000,452.675000L197.800000,452.675000C190.031000,452.675000,182.694000,449.745000,177.170000,444.387000L162.754000,430.322000C157.748000,425.466000,151.101000,422.787000,144.023000,422.787000L144.023000,420.275000C151.792000,420.275000,159.129000,423.205000,164.653000,428.564000L179.155000,442.629000C184.161000,447.484000,190.808000,450.163000,197.886000,450.163000L210.489000,450.163000C217.567000,450.163000,224.213000,447.484000,229.220000,442.629000L243.721000,428.564000C249.246000,423.205000,256.497000,420.275000,264.352000,420.275000L264.352000,422.787000C257.273000,422.787000,250.627000,425.466000,245.620000,430.322000L231.119000,444.387000C225.508000,449.745000,218.171000,452.675000,210.402000,452.675000Z" fill="rgb(111,63,245)" stroke="none" stroke-width="1"/></g><g id="ey0lu0nyz23k18"><path id="ey0lu0nyz23k19" d="M267.200000,93.515400C277.731000,109.087000,283.774000,127.589000,283.774000,147.515000C283.774000,157.478000,282.220000,167.105000,279.371000,176.147000C260.813000,187.366000,238.456000,198.249000,214.287000,207.542000C183.730000,219.347000,153.691000,227.384000,128.486000,230.733000C128.745000,231.570000,128.918000,232.407000,129.004000,233.244000C154.382000,229.896000,184.680000,221.775000,215.323000,209.970000C238.543000,201.012000,260.122000,190.714000,278.249000,179.915000C264.438000,218.593000,226.458000,246.472000,181.917000,246.472000C163.359000,246.472000,145.922000,241.616000,130.903000,233.161000C149.030000,251.914000,174.753000,263.635000,203.324000,263.635000C258.137000,263.635000,302.677000,220.351000,302.677000,167.273000C302.591000,137.636000,288.866000,111.180000,267.200000,93.515400Z" fill="rgb(163,249,228)" stroke="none" stroke-width="1"/><path id="ey0lu0nyz23k20" d="M104.662000,143.915000C116.401000,138.557000,128.227000,133.115000,139.966000,127.757000C142.210000,126.752000,144.714000,126.920000,146.785000,128.259000C148.857000,129.599000,149.979000,131.859000,149.807000,134.203000C149.720000,135.710000,150.411000,137.134000,151.792000,137.971000C153.087000,138.808000,154.727000,138.892000,156.108000,138.138000C174.321000,128.762000,217.222000,103.646000,221.710000,71.664400C214.891000,70.408600,179.845000,64.548200,146.181000,86.399200C115.279000,106.659000,106.561000,136.631000,104.662000,143.915000Z" fill="rgb(230,255,249)" stroke="none" stroke-width="1"/><path id="ey0lu0nyz23k21" d="M221.710000,71.748200C217.222000,103.646000,174.321000,128.845000,156.108000,138.222000C154.727000,138.975000,153.087000,138.892000,151.792000,138.055000C150.497000,137.217000,149.720000,135.794000,149.807000,134.287000C149.979000,131.859000,148.857000,129.683000,146.785000,128.343000C144.714000,127.004000,142.210000,126.836000,139.966000,127.841000C128.227000,133.199000,116.401000,138.641000,104.662000,143.999000C105.007000,142.575000,105.611000,140.399000,106.647000,137.552000C117.782000,132.445000,128.917000,127.338000,140.052000,122.231000C142.297000,121.227000,144.800000,121.394000,146.872000,122.734000C148.943000,124.073000,150.065000,126.334000,149.893000,128.678000C149.807000,130.185000,150.497000,131.608000,151.878000,132.445000C153.173000,133.283000,154.813000,133.366000,156.194000,132.613000C173.372000,123.822000,212.560000,100.883000,220.674000,71.580700C221.020000,71.664500,221.365000,71.664500,221.710000,71.748200Z" fill="rgb(91,241,205)" stroke="none" stroke-width="1"/><path id="ey0lu0nyz23k22" d="M104.576000,146.761000L104.576000,143.999000L139.880000,127.841000C142.124000,126.836000,144.627000,127.004000,146.699000,128.343000C148.771000,129.683000,149.893000,131.943000,149.720000,134.287000C149.634000,135.794000,150.325000,137.217000,151.706000,138.055000C153,138.892000,154.640000,138.976000,156.022000,138.222000C174.235000,128.845000,217.135000,103.729000,221.624000,71.748100L224.213000,72.083000C219.552000,105.153000,175.875000,130.855000,157.230000,140.399000C154.986000,141.571000,152.396000,141.403000,150.238000,140.064000C148.080000,138.724000,146.958000,136.464000,147.131000,134.036000C147.217000,132.529000,146.527000,131.190000,145.232000,130.352000C143.937000,129.515000,142.383000,129.431000,141.002000,130.017000L104.576000,146.761000Z" fill="rgb(2,226,172)" stroke="none" stroke-width="1"/><path id="ey0lu0nyz23k23" d="M232.241000,261.291000L213.337000,246.305000C211.093000,244.547000,207.813000,244.798000,205.914000,246.891000C204.101000,248.816000,201.512000,249.737000,198.836000,249.402000C196.160000,249.068000,193.916000,247.393000,192.794000,245.049000L187.355000,233.998000C186.320000,231.905000,184.075000,230.733000,181.745000,231.068000L177.688000,231.570000C175.961000,231.821000,174.494000,232.826000,173.631000,234.333000L162.064000,256.016000L159.733000,254.844000L171.300000,233.161000C172.509000,230.900000,174.753000,229.393000,177.256000,229.058000L181.313000,228.556000C184.766000,228.054000,188.046000,229.812000,189.600000,232.910000L195.038000,243.961000C195.815000,245.551000,197.282000,246.640000,199.095000,246.891000C200.907000,247.142000,202.634000,246.556000,203.842000,245.216000C206.691000,242.119000,211.525000,241.784000,214.805000,244.379000L233.709000,259.365000L232.241000,261.291000Z" fill="rgb(2,226,172)" stroke="none" stroke-width="1"/><path id="ey0lu0nyz23k24" d="M232.241000,261.291000L213.337000,246.305000C211.093000,244.547000,207.813000,244.798000,205.914000,246.891000C204.101000,248.816000,201.512000,249.737000,198.836000,249.402000C196.160000,249.068000,193.915000,247.393000,192.793000,245.049000L187.355000,233.998000C186.319000,231.905000,184.075000,230.733000,181.745000,231.068000L177.688000,231.570000C175.961000,231.821000,174.494000,232.826000,173.631000,234.333000L162.064000,256.016000C169.919000,259.281000,182.090000,263.216000,197.455000,264.305000C212.129000,265.309000,224.127000,263.300000,232.241000,261.291000Z" fill="rgb(229,255,249)" stroke="none" stroke-width="1"/><path id="ey0lu0nyz23k25" d="M232.414000,261.040000C231.464000,261.291000,230.428000,261.542000,229.392000,261.709000L213.165000,248.816000C210.920000,247.058000,207.726000,247.309000,205.741000,249.402000C203.928000,251.328000,201.339000,252.249000,198.663000,251.914000C195.987000,251.579000,193.743000,249.905000,192.621000,247.561000L187.183000,236.509000C186.147000,234.416000,183.902000,233.244000,181.572000,233.579000L177.601000,234.081000C175.875000,234.333000,174.321000,235.337000,173.544000,236.844000L163.272000,256.100000C162.927000,255.933000,162.582000,255.849000,162.323000,255.681000L173.889000,233.998000C174.666000,232.491000,176.220000,231.486000,177.946000,231.235000L182.003000,230.733000C184.334000,230.398000,186.578000,231.570000,187.614000,233.663000L193.052000,244.714000C194.174000,247.058000,196.419000,248.649000,199.095000,249.067000C201.770000,249.486000,204.360000,248.481000,206.173000,246.556000C208.072000,244.463000,211.352000,244.212000,213.596000,245.970000L232.414000,261.040000Z" fill="rgb(91,241,205)" stroke="none" stroke-width="1"/><path id="ey0lu0nyz23k26" d="M301.814000,190.547000L288.262000,187.115000C286.708000,186.696000,285.155000,187.450000,284.550000,188.873000L282.133000,194.147000C281.702000,195.068000,281.788000,196.073000,282.306000,196.910000C282.824000,197.747000,283.687000,198.333000,284.723000,198.417000C287.830000,198.752000,290.075000,201.431000,289.816000,204.445000L288.435000,220.854000L301.814000,190.547000Z" fill="rgb(229,255,249)" stroke="none" stroke-width="1"/><path id="ey0lu0nyz23k27" d="M302.073000,190.296000L301.037000,192.640000L287.572000,189.207000C286.018000,188.789000,284.464000,189.542000,283.860000,190.966000L282.220000,194.566000C282.306000,194.398000,282.306000,194.147000,282.392000,193.980000L284.809000,188.705000C285.414000,187.282000,286.967000,186.612000,288.521000,186.947000L302.073000,190.296000Z" fill="rgb(91,241,205)" stroke="none" stroke-width="1"/><path id="ey0lu0nyz23k28" d="M288.521000,220.854000L285.931000,220.686000L287.312000,204.277000C287.485000,202.603000,286.190000,201.096000,284.550000,200.928000C282.738000,200.761000,281.098000,199.756000,280.234000,198.166000C279.371000,196.575000,279.199000,194.817000,279.889000,193.142000L282.306000,187.868000C283.428000,185.356000,286.277000,184.017000,289.039000,184.687000L302.591000,188.119000L301.900000,190.547000L288.348000,187.114000C286.795000,186.696000,285.241000,187.449000,284.637000,188.873000L282.220000,194.147000C281.788000,195.068000,281.874000,196.073000,282.392000,196.910000C282.910000,197.747000,283.773000,198.333000,284.809000,198.417000C287.917000,198.752000,290.161000,201.431000,289.902000,204.445000L288.521000,220.854000Z" fill="rgb(2,226,172)" stroke="none" stroke-width="1"/><path id="ey0lu0nyz23k29" d="M203.238000,266.063000C147.045000,266.063000,101.296000,221.691000,101.296000,167.189000C101.296000,112.687000,147.045000,68.315700,203.238000,68.315700C259.432000,68.315700,305.181000,112.687000,305.181000,167.189000C305.181000,221.691000,259.432000,266.063000,203.238000,266.063000ZM203.238000,70.827300C148.426000,70.827300,103.885000,114.027000,103.885000,167.189000C103.885000,220.352000,148.426000,263.551000,203.238000,263.551000C258.051000,263.551000,302.591000,220.268000,302.591000,167.189000C302.591000,114.111000,258.051000,70.827300,203.238000,70.827300Z" fill="rgb(2,226,172)" stroke="none" stroke-width="1"/></g><path id="ey0lu0nyz23k30" display="none" d="M105.525000,232.072000C86.448700,232.072000,74.364100,227.719000,70.997700,219.514000C66.163800,207.626000,76.349400,193.310000,102.245000,175.561000L103.712000,177.654000C78.939000,194.566000,69.098700,207.961000,73.414600,218.593000C77.040000,227.552000,93.958500,231.235000,119.854000,228.891000C146.613000,226.463000,179.932000,217.840000,213.855000,204.780000C247.779000,191.719000,278.076000,175.729000,299.225000,159.654000C319.682000,144.166000,329.350000,130.185000,325.638000,121.227000C322.099000,112.520000,308.029000,108.753000,285.068000,110.343000L284.896000,107.832000C309.151000,106.157000,324.084000,110.511000,328.055000,120.306000C332.198000,130.520000,322.531000,145.171000,300.778000,161.580000C279.458000,177.738000,248.901000,193.896000,214.718000,207.040000C180.623000,220.184000,146.958000,228.807000,120.027000,231.319000C114.761000,231.821000,109.927000,232.072000,105.525000,232.072000Z" fill="rgb(2,226,172)" stroke="none" stroke-width="1"/><g id="ey0lu0nyz23k31"><g id="ey0lu0nyz23k32" transform="matrix(0.39541207388999 0 0 0.39541207388999 170.11696846897271 147.20639155104038)" opacity="0"><g id="ey0lu0nyz23k33"><path id="ey0lu0nyz23k34" d="M28.890000,47.115800L2.508800,57.459000C1.888667,57.662474,1.477767,58.251449,1.500900,58.903700L14.364700,127.852100C14.499645,128.219442,14.778723,128.515760,15.137327,128.672455C15.495931,128.829149,15.902966,128.832633,16.264200,128.682100L29.909600,123.332100C31.274200,122.797100,30.917500,121.887400,30.917500,121.887400L27.860000,104.719100L40.140800,99.904100C59.244400,92.414100,63.803000,75.934100,61.619000,63.670700C59.435000,51.407300,52.087200,38.020900,28.890000,47.115800ZM44.432800,69.359300C46.001700,78.714700,41.515400,84.671800,33.328100,87.881700L25.140800,91.091700L20.692600,65.023100L28.879900,61.813100C41.160800,56.998200,42.489200,61.725100,44.432800,69.359300Z" fill="rgb(2,226,172)" stroke="rgb(229,255,249)" stroke-width="3" stroke-miterlimit="10"/><path id="ey0lu0nyz23k35" d="M102.910000,75.294500C101.090600,76.007800,100.832100,74.010100,100.832100,74.010100L95.412100,44.124500C93.985500,40.485700,95.287900,35.776900,84.549900,40.511700L76.362700,43.721700L83.449700,81.874800C83.449700,81.874800,83.984700,83.239300,82.165300,83.952700L68.975300,89.124300C68.614004,89.274936,68.206865,89.271508,67.848157,89.114809C67.489448,88.958110,67.210282,88.661731,67.075300,88.294300L54.666000,19.167900C54.666000,19.167900,54.309400,18.257900,56.128800,17.544800L69.774200,12.194800C71.138700,11.659800,71.218900,13.202700,71.218900,13.202700L74.098200,29.915800L85.924200,25.279200C102.298700,18.859200,109.424200,24.986800,111.626100,34.619200L118.017800,68.322000C118.017800,68.322000,118.552800,69.686500,116.278600,70.578200Z" fill="rgb(2,226,172)" stroke="rgb(229,255,249)" stroke-width="3" stroke-miterlimit="10"/><path id="ey0lu0nyz23k36" d="M137.598500,4.494800L111.217400,14.838000C110.597204,15.041389,110.186265,15.630419,110.209500,16.282700L123.073200,85.231100C123.208236,85.598477,123.487439,85.894778,123.846152,86.051384C124.204865,86.207991,124.611974,86.211320,124.973200,86.060600L138.618700,80.710600C139.983200,80.175600,139.626500,79.265900,139.626500,79.265900L136.568900,62.098000L148.849800,57.283000C167.953400,49.793000,172.511900,33.313000,170.327900,21.049600C168.143900,8.786200,160.795700,-4.600000,137.598500,4.494800ZM153.141400,26.738300C154.710300,36.093700,150.223900,42.050800,142.036600,45.260700L133.849400,48.470700L129.401200,22.402100L137.588400,19.192100C149.869300,14.377200,151.197800,19.104000,153.141400,26.738300Z" fill="rgb(2,226,172)" stroke="rgb(229,255,249)" stroke-width="3" stroke-miterlimit="10"/></g></g><g id="ey0lu0nyz23k37" transform="matrix(0.58249355912760 0 0 0.58249355912760 159.73298889431553 140.16109394368800)" opacity="0"><g id="ey0lu0nyz23k38"><path id="ey0lu0nyz23k39" d="M22.906000,88.222000C22.906000,88.222000,19.907400,92.030000,26.882800,90.156500C35.330600,87.881600,39.409600,86.114200,47.649600,80.907500C49.864404,81.268061,52.105701,81.440942,54.349600,81.424300C37.764100,97.881300,8.955100,98.810500,22.906000,88.222000ZM16.045200,78.020000C16.045200,78.020000,12.956000,82.986000,19.906200,81.034700C28.894100,78.509100,35.740200,75.885600,46.646200,68.942400C48.301386,69.597150,50.073886,69.903268,51.852800,69.841600C30.505500,86.455600,1.041700,90.587800,16.045200,78.020000Z" fill="rgb(255,204,0)" stroke="none" stroke-width="1"/><path id="ey0lu0nyz23k40" d="M29.122200,50.936700C36.288300,54.656700,32.090000,62.210800,32.090000,62.210800C32.090000,62.210800,42.032500,50.818400,33.098600,45.009200C24.758600,39.599200,19.171200,37.484000,36.311700,15.782300C36.312900,15.781800,4.842000,38.315900,29.122200,50.936700Z" fill="rgb(2,226,172)" stroke="none" stroke-width="1"/><path id="ey0lu0nyz23k41" d="M70.716800,78.860000C70.716800,78.860000,74.542500,80.097000,69.208500,84.333700C59.064600,92.384300,23.032100,107.858200,11.165000,107.458100C6.901700,107.313400,12.856700,102.416700,14.819900,101.106300C15.859146,100.369684,16.988299,99.768948,18.179900,99.318700C13.004900,98.069500,-5.766900,115.266600,10.121300,111.783500C53.447000,102.274200,83.161800,79.448600,70.716800,78.860000ZM15.785000,64.740800C15.785000,64.740800,-1.011500,76.480000,11.596600,73.343600C16.922000,72.018600,26.936000,67.877000,36.016600,63.373600C43.435200,59.693600,50.591100,55.269800,50.591100,55.269800C49.251356,56.615065,48.022585,58.066462,46.916800,59.609800C30.046600,72.011700,-7.233500,84.092700,1.234000,74.887600C8.391900,67.101900,15.785000,64.740800,15.785000,64.740800ZM56.397200,70.170800C71.602700,52.656100,58.971900,46.601600,53.304600,50.332200C52.615835,50.765279,51.961947,51.251491,51.348900,51.786400C51.525758,51.050279,51.921761,50.385125,52.484600,49.878800C63.005800,40.750100,79.113000,53.996500,56.214600,70.826000C56.316310,70.620812,56.378267,70.398229,56.397200,70.170000Z" fill="rgb(255,204,0)" stroke="none" stroke-width="1"/><path id="ey0lu0nyz23k42" d="M15.292800,0C15.292800,0,30.086400,6.410000,15.882800,30.882900C4.496600,50.515300,20.231300,52.913600,27.372900,59.945000C14.254300,55.046500,4.125000,50.172600,6.054600,41.145000C8.890600,27.893100,26.230000,15.149000,15.292800,0Z" fill="rgb(2,226,172)" stroke="none" stroke-width="1"/><path id="ey0lu0nyz23k43" d="M35.684600,109.536200C54.516200,103.444000,82.006500,90.453900,79.235800,81.498500C79.235800,81.498500,79.255800,85.300300,66.391300,93.413400C51.879900,102.567800,32.403400,109.876800,20.186400,112.520800C20.186400,112.520800,23.304700,113.537000,35.684600,109.536200Z" fill="rgb(255,204,0)" stroke="none" stroke-width="1"/><path id="ey0lu0nyz23k44" d="M158.937800,20.767700L158.377800,20.989200L158.253900,20.676000L159.760400,20.080000L159.884300,20.393200L159.326800,20.613800L159.944800,22.176000L159.554800,22.330400ZM161.975800,19.656300L161.968600,19.659100L162.000600,21.362700L161.744400,21.464100L160.605700,20.198400L160.599800,20.200700L161.186900,21.684600L160.816900,21.831000L160.074900,19.955700L160.617000,19.741200L161.653400,20.866300L161.640700,19.336300L162.179200,19.123200L162.921200,20.998600L162.563000,21.140300ZM116.498900,57.938200C115.635301,59.865096,114.119727,61.425641,112.218900,62.345200C111.263628,62.830522,110.140947,62.861382,109.160457,62.429269C108.179967,61.997156,107.445243,61.147716,107.158900,60.115200C106.194500,57.677600,106.847600,55.354600,112.294600,53.199500L114.307500,52.403200L116.497500,57.939100ZM123.414800,61.441300L116.808500,44.743300C115.119500,40.474200,111.570200,38.621700,105.705700,40.941800C102.655279,42.166959,99.895041,44.016985,97.602500,46.372900L99.474600,49.052200C101.330184,47.346902,103.463252,45.970873,105.781900,44.983400C109.162500,43.645900,111.153900,44.431600,112.268000,47.247600L113.102800,49.357600L111.413700,50.025900C103.203700,53.273900,100.759700,57.924400,102.654700,62.714200C104.287400,66.841000,107.656400,68.220300,112.252800,66.401700C114.936707,65.287224,117.094341,63.190819,118.285600,60.540100L119.663400,62.926600L123.415300,61.442300ZM139.371400,55.128300L133.408500,57.487500L116.990900,36.972300L122.199400,34.911600L132.332800,47.500600L135.029100,51.420600C134.850136,44.509459,133.930545,37.637436,132.286100,30.922400L137.352300,28.918000C139.153783,37.530999,139.832458,46.341007,139.371400,55.128300ZM160.116300,40.681800C159.250099,42.607532,157.734626,44.167567,155.834800,45.089200C154.879450,45.574901,153.756497,45.605963,152.775759,45.173817C151.795021,44.741671,151.060152,43.891991,150.773900,42.859200C149.809500,40.421500,150.466200,38.097100,155.907200,35.944500L157.924900,35.146200L160.114900,40.682100ZM167.034600,44.183900L160.428300,27.485900C158.739300,23.216800,155.182800,21.367100,149.323000,23.685900C146.271651,24.910993,143.510590,26.761352,141.217500,29.117900L143.090800,31.796700C144.947619,30.090994,147.081837,28.714581,149.401600,27.726700C152.777500,26.391000,154.772400,27.175300,155.886500,29.991300L156.721400,32.101300L155.032300,32.769600C146.820300,36.018600,144.377100,40.668600,146.272300,45.458400C147.905000,49.585200,151.271600,50.965400,155.866900,49.147400C158.551277,48.031604,160.709749,45.935065,161.903200,43.284300L163.283200,45.669900L167.035100,44.185600ZM101.356200,74.758600C100.676660,77.406550,99.207746,79.785160,97.144500,81.578600L93.684500,79.730400C95.071323,78.185002,95.976555,76.268181,96.289000,74.215400C96.421200,72.704800,96.041800,70.979600,94.506700,67.099500L83.956200,40.432000L89.037800,38.422000L99.443500,64.722900C101.496700,69.912500,101.914100,72.174200,101.356200,74.758600Z" fill="rgb(2,226,172)" stroke="none" stroke-width="1"/></g></g><g id="ey0lu0nyz23k45" transform="matrix(0.46911725507463 -0.02458539356182 0.02458539356182 0.46911725507463 178.22045434934503 146.29482270288898)" opacity="0"><g id="ey0lu0nyz23k46"><path id="ey0lu0nyz23k47" d="M34.300800,107.165300L0,26.358900L81.574800,0L101.043800,85.598900L70.621000,105.816800" fill="rgb(111,63,245)" stroke="none" stroke-width="1"/><path id="ey0lu0nyz23k48" d="M68.464100,98.523400L93.018200,82.399100L76.321400,9.088700L43.040000,19.842600" fill="rgb(140,101,247)" fill-opacity="0.12" stroke="none" stroke-width="1"/><path id="ey0lu0nyz23k49" d="M53.034500,50.772300L39.468800,55.155700L35.174600,44.957200L49.644600,40.281500L46.371700,30.152500L20.687400,38.451800L33.394700,68.504800L56.365900,61.082200ZM61.445100,77.419400L49.056400,78.026600L45.702800,70.121000L35.573800,73.393900L42.041600,89.082700L64.893400,88.091100Z" fill="rgb(235,235,235)" stroke="none" stroke-width="1"/><path id="ey0lu0nyz23k50" d="M52.853600,50.830700L56.185000,61.140700L68.846300,57.050000L71.846300,70.663000L61.445100,77.419400L64.893400,88.091100L84.004700,75.523400L76.729100,43.115900ZM46.190800,30.210700L49.463800,40.339700L74.243800,32.332600L71.875100,21.911700Z" fill="rgb(255,255,255)" stroke="none" stroke-width="1"/></g></g><g id="ey0lu0nyz23k51" transform="matrix(0.59981973157420 -0.04194348156980 0.04265940889811 0.61005796936051 145.50864422793734 149.04099746672563)" opacity="0"><g id="ey0lu0nyz23k52"><path id="ey0lu0nyz23k53" d="M44.401300,56.483000C37.015900,65.739800,29.698300,74.913000,22.186700,84.326100C37.215100,81.447900,51.975100,78.620300,67.027800,75.737100C59.375600,69.225000,51.920000,62.880800,44.401300,56.483000ZM53.891300,23.333000Q52.951800,26.825000,52.012700,30.317700Q48.798600,42.316000,45.591800,54.313500C45.473100,54.760000,45.257300,55.154600,45.786400,55.600800Q55.576400,63.867200,65.319000,72.189200C66.346795,73.101123,67.438295,73.938613,68.585200,74.695300L54.095200,23.325300ZM3.923200,64.204600C4.249484,64.321121,4.611838,64.274312,4.897800,64.078700C8.254000,60.746500,11.650800,57.450200,14.864500,53.984700C15.815617,52.717543,16.613369,51.342238,17.241100,49.887500Q21.035200,43.003400,24.811100,36.108400C24.991915,35.840756,25.126299,35.544536,25.208600,35.232200C25.656600,32.225300,26.077200,29.214500,26.518600,26.112200C24.725300,26.052200,23.018600,25.974200,21.311600,25.955800C21.079900,25.953400,20.802700,26.206900,20.618700,26.408700C17.748700,29.575700,14.775700,32.658700,12.077300,35.967300C10.827640,37.737712,9.735943,39.614494,8.814800,41.576000C7.123100,44.630000,5.434300,47.690000,3.790000,50.771900C3.352310,51.597408,3.003489,52.467047,2.749400,53.366200C1.909400,56.320800,1.131300,59.292500,0.302000,62.359600C1.563900,63.012400,2.724400,63.650700,3.923200,64.204600ZM17.517700,55.972200C18.365400,65.098500,19.206400,74.173500,20.076300,83.546900C27.621600,74.091400,34.992400,64.854100,42.313900,55.678000C34.060000,55.775700,25.832300,55.873600,17.517700,55.972200ZM28.680000,36.406700L43.584600,53.573600C46.226200,43.740000,48.814600,34.100800,51.461500,24.241900C43.778100,28.344900,36.277800,32.350000,28.680000,36.406700ZM17.271200,54.130000C25.405200,54.041000,33.377700,53.952700,41.580200,53.861800C36.580200,48.096700,31.753800,42.534200,26.825400,36.853200ZM5.886700,69.031600L4.393300,89.948000C9.258900,88.147100,13.976200,86.401000,18.854100,84.596000C14.530000,79.405700,10.290700,74.316900,5.886700,69.031600ZM17.595700,80.285900L17.763500,80.185900C17.059800,72.302800,16.399400,64.461300,15.638100,56.281400C12.343300,59.701400,9.200600,62.965400,5.971100,66.319100C9.717300,70.838600,13.692500,75.596900,17.595700,80.285900ZM48.115700,24.052800Q44.304400,24.305100,40.493600,24.558700C36.843600,24.807200,33.193600,25.066100,29.541400,25.305300C29.085600,25.335300,28.757600,25.365300,28.681400,25.952700C28.314700,28.778600,27.904100,31.599700,27.515200,34.422700C27.521519,34.550985,27.542557,34.678118,27.577900,34.801600Q37.917000,29.480800,48.162800,24.206900ZM32.725100,23.090000C39.572800,22.713200,46.420200,22.335600,53.507100,21.944900L47.351100,14.053200C42.426200,17.026800,37.559900,19.964500,32.693500,22.902200ZM57.999100,79.092700L41.685600,82.217700C34.909300,83.515700,28.114700,84.720900,21.370000,86.160000C18.935310,86.814110,16.545818,87.626129,14.216700,88.590900C12.266700,89.285400,10.329400,90.020900,8.389200,90.743500C8.156468,90.814957,7.967522,90.986134,7.873500,91.210700Q32.955500,85.266100,58.038200,79.320700ZM2.828100,84.244700C3.285700,78.691500,3.730400,73.138600,4.196900,67.587300C4.310725,67.105537,4.041786,66.615728,3.574200,66.453200C2.414200,65.913200,1.296100,65.287400,-0,64.613200L2.536700,84.791500L2.700200,84.811500C2.757155,84.626018,2.799912,84.436471,2.828100,84.244500ZM28.130000,23.212600C31.347900,21.115600,34.684200,19.201400,37.971100,17.210400C38.182900,17.081300,38.382200,16.929600,38.586700,16.788400L38.493800,16.626200L23.914400,23.824600C25.560000,23.968500,26.822700,24.064300,28.130000,23.212600ZM84.792000,50.778800L89.314300,64.203200L81.894300,66.702700L70.107400,31.713300L80.302500,28.278800Q87.431700,25.877200,91.730000,27.320000Q96.028300,28.762800,97.810000,34.051200C98.501254,36.006164,98.553535,38.130194,97.959300,40.116800C97.300339,42.206841,96.074775,44.073244,94.418800,45.508600L109.846300,57.284500L101.613000,60.058100L88.740000,49.447100L84.791400,50.777100ZM82.760000,44.747500L85.153600,43.941200C87.006619,43.462982,88.676160,42.445889,89.951000,41.018600C90.815223,39.770603,90.978701,38.166478,90.384000,36.769800C90.036794,35.321144,88.920069,34.181395,87.478800,33.804700C85.562482,33.544920,83.611547,33.797274,81.824400,34.536100L79.573600,35.294300L82.758400,44.748100ZM132.630000,49.611200L130.496900,46.519000L130.113700,46.648100C129.735074,48.183124,128.917177,49.574482,127.760100,50.651900C126.456220,51.870210,124.896839,52.782115,123.195700,53.321100Q118.479100,54.910000,115.236600,53.191800Q111.992100,51.472600,110.397900,46.735000L104.520000,29.288200L111.818800,26.829400L117.083500,42.457300C117.490189,44.011841,118.359960,45.405971,119.577400,46.454700C120.691843,47.202125,122.109963,47.331288,123.341100,46.797500C125.123725,46.360287,126.544299,45.016504,127.079800,43.260900Q127.754200,40.754100,126.159800,36.017500L121.918900,23.428700L129.217700,20.969900L138.231200,47.726000L132.630000,49.612800ZM151.591000,12.870000C154.496208,11.771440,157.760441,12.222921,160.258400,14.068800Q164.182400,16.862900,166.350700,23.302100Q168.583300,29.929400,167.045700,34.497000C166.006200,37.364522,163.736239,39.615210,160.859957,40.630221C157.983676,41.645232,154.803889,41.317707,152.194900,39.737700L151.692300,39.907100L151.465600,43.262600L145.888200,45.141500L133.344400,7.905900L140.643200,5.447000L143.561800,14.110800Q144.118300,15.762300,145.054900,19.498100L145.343900,19.400700C146.086131,16.251049,148.477382,13.751243,151.591000,12.870000ZM151.212200,19.501700C149.659912,19.881945,148.393720,21.000943,147.825500,22.494700Q147.142700,24.579400,148.383700,28.424700L148.649300,29.213200Q150.100800,33.522200,152.008300,34.958300C153.377764,35.927966,155.152563,36.116802,156.695400,35.457000C158.178816,34.969553,159.281050,33.715747,159.574400,32.182100C159.950923,30.003702,159.708818,27.763366,158.875600,25.715700Q157.545600,21.767100,155.538500,20.243100C154.328839,19.248616,152.684012,18.966666,151.212200,19.501500ZM163.583100,9.391700L171.576200,6.699000L181.696900,20.051000C182.675663,21.401461,183.497080,22.859230,184.145200,24.396000L184.289700,24.347300C183.917441,22.710853,183.737257,21.036582,183.752800,19.358400L183.635600,2.636500L191.460600,0L190.307400,33.991900C190.327145,36.754534,189.517237,39.459501,187.982500,41.756700C186.490818,43.818896,184.373619,45.344808,181.945500,46.107700C180.698708,46.529626,179.409007,46.812116,178.100000,46.950000L176.149200,41.159000C177.162973,41.054741,178.161357,40.834019,179.124600,40.501200C180.365159,40.106088,181.424289,39.281773,182.111900,38.176200C182.864900,36.858396,183.230719,35.354841,183.167300,33.838400L183.153800,32.375600Z" fill="rgb(111,63,245)" stroke="none" stroke-width="1"/></g></g><g id="ey0lu0nyz23k54"><path id="ey0lu0nyz23k55" d="M145.836000,178.408000C147.994000,177.571000,150.238000,176.733000,152.396000,175.812000C152.741000,175.645000,153.259000,175.645000,153,174.975000C152.741000,174.305000,152.396000,174.557000,151.964000,174.724000C149.547000,175.645000,147.130000,176.566000,144.713000,177.571000C144.023000,177.905000,143.678000,177.822000,143.419000,177.068000C143.160000,176.315000,142.814000,175.561000,142.469000,174.808000C141.520000,172.464000,142.297000,169.952000,144.627000,168.864000C147.735000,167.357000,151.015000,166.101000,154.381000,165.013000C156.971000,164.175000,159.301000,165.347000,160.424000,167.692000C161.632000,170.287000,162.668000,172.966000,163.790000,175.645000C164.826000,178.324000,163.704000,180.919000,160.855000,182.008000C158.007000,183.180000,155.158000,184.268000,152.310000,185.357000C149.029000,186.696000,147.562000,189.961000,148.943000,193.226000C149.375000,194.231000,149.806000,195.236000,150.238000,196.240000C150.411000,196.742000,150.324000,196.994000,149.893000,197.161000C148.684000,197.580000,147.562000,198.166000,146.267000,198.501000C144.023000,199.003000,141.865000,197.998000,141.002000,195.905000C139.707000,192.808000,138.412000,189.710000,137.117000,186.612000C136.168000,184.268000,137.204000,181.924000,139.534000,180.919000C141.606000,180.082000,143.678000,179.245000,145.836000,178.408000ZM147.821000,171.961000C147.476000,171.040000,146.440000,170.622000,145.490000,171.040000C144.627000,171.375000,144.109000,172.380000,144.455000,173.217000C144.800000,174.054000,145.922000,174.557000,146.785000,174.305000C147.648000,173.887000,148.166000,172.882000,147.821000,171.961000Z" fill="rgb(2,226,172)" stroke="none" stroke-width="1"/><path id="ey0lu0nyz23k56" d="M167.588000,190.129000C165.516000,190.966000,163.358000,191.803000,161.287000,192.640000C160.941000,192.808000,160.424000,192.891000,160.683000,193.394000C160.941000,194.063000,161.373000,193.729000,161.718000,193.645000C164.049000,192.724000,166.380000,191.887000,168.624000,190.882000C169.746000,190.380000,170.178000,190.631000,170.523000,191.719000C170.782000,192.724000,171.386000,193.645000,171.559000,194.649000C171.904000,196.910000,170.782000,199.003000,168.624000,199.840000C165.689000,201.012000,162.668000,202.184000,159.733000,203.356000C157.230000,204.361000,154.381000,203.189000,153.345000,200.761000C152.137000,197.998000,151.015000,195.319000,149.893000,192.556000C148.943000,190.212000,150.065000,187.533000,152.482000,186.612000C155.244000,185.524000,158.007000,184.436000,160.855000,183.347000C164.826000,181.757000,166.207000,178.491000,164.653000,174.640000C164.222000,173.636000,163.272000,172.547000,163.617000,171.626000C163.963000,170.789000,165.430000,170.706000,166.466000,170.287000C169.401000,169.115000,171.818000,170.119000,173.026000,172.966000C174.148000,175.729000,175.357000,178.408000,176.479000,181.171000C177.774000,184.184000,176.824000,186.361000,173.717000,187.701000C171.731000,188.538000,169.660000,189.291000,167.588000,190.129000ZM168.279000,197.412000C169.142000,196.994000,169.573000,195.905000,169.228000,195.068000C168.797000,194.147000,167.761000,193.812000,166.811000,194.231000C165.948000,194.649000,165.516000,195.570000,165.862000,196.491000C166.293000,197.329000,167.502000,197.747000,168.279000,197.412000Z" fill="rgb(255,204,0)" stroke="none" stroke-width="1"/><path id="ey0lu0nyz23k57" d="M212.819000,169.868000C211.697000,170.873000,210.488000,171.794000,209.194000,172.463000C205.482000,174.473000,202.374000,173.384000,200.821000,169.701000C199.612000,166.854000,198.404000,164.008000,197.282000,161.161000C197.023000,160.575000,198.490000,158.650000,199.094000,158.817000C199.440000,158.901000,199.440000,159.319000,199.612000,159.571000C200.907000,162.585000,202.116000,165.598000,203.410000,168.612000C204.532000,171.208000,206.863000,171.961000,209.366000,170.538000C209.625000,170.370000,209.884000,170.203000,210.143000,170.036000C211.956000,168.696000,212.128000,168.277000,211.265000,166.184000C209.971000,163.087000,208.762000,159.989000,207.381000,156.975000C206.863000,155.887000,207.554000,155.803000,208.244000,155.552000C208.848000,155.301000,209.539000,154.715000,209.971000,155.887000C211.870000,160.743000,214.028000,165.431000,215.840000,170.287000C217.567000,174.975000,215.927000,178.491000,211.179000,180.417000C210.402000,180.752000,210.229000,180.166000,209.884000,179.747000C209.453000,179.245000,209.884000,178.994000,210.316000,178.826000C210.488000,178.742000,210.747000,178.575000,210.920000,178.491000C214.804000,175.896000,214.804000,174.138000,212.819000,169.868000Z" fill="rgb(2,226,172)" stroke="none" stroke-width="1"/><path id="ey0lu0nyz23k58" d="M192.707000,187.533000C189.858000,187.868000,189.858000,187.868000,188.909000,185.524000C186.665000,180.082000,184.420000,174.640000,182.090000,169.282000C181.744000,168.529000,181.744000,167.943000,182.176000,167.357000C183.816000,164.845000,186.233000,163.338000,189.168000,162.668000C191.153000,162.250000,192.879000,163.087000,194.261000,164.426000C196.419000,166.519000,197.627000,169.031000,197.886000,171.961000C198.231000,175.980000,195.555000,178.910000,191.326000,179.077000C190.635000,179.077000,189.858000,179.078000,189.081000,178.994000C190.290000,181.840000,191.498000,184.687000,192.707000,187.533000ZM186.319000,172.380000C186.837000,173.552000,187.441000,174.808000,187.787000,176.064000C188.132000,177.152000,188.823000,177.403000,189.772000,177.403000C190.290000,177.403000,190.894000,177.403000,191.412000,177.319000C193.829000,176.984000,195.210000,175.394000,194.951000,173.050000C194.692000,170.371000,193.656000,168.026000,191.844000,166.017000C190.549000,164.510000,188.995000,164.259000,187.182000,165.180000C186.233000,165.682000,185.370000,166.352000,184.679000,167.105000C184.334000,167.524000,184.248000,167.859000,184.507000,168.361000C185.197000,169.701000,185.715000,171.040000,186.319000,172.380000Z" fill="rgb(2,226,172)" stroke="none" stroke-width="1"/><path id="ey0lu0nyz23k59" d="M221.192000,140.147000C222.659000,143.580000,224.041000,146.929000,225.422000,150.361000C226.630000,148.854000,227.925000,147.599000,229.651000,146.845000C232.414000,145.673000,235.089000,146.510000,236.298000,149.273000C237.765000,152.538000,239.060000,155.803000,240.441000,159.068000C240.614000,159.571000,240.614000,159.822000,240.010000,160.073000C239.664000,160.157000,239.319000,160.324000,238.974000,160.492000C238.283000,160.826000,238.024000,160.575000,237.765000,159.989000C236.729000,157.394000,235.607000,154.715000,234.485000,152.120000C234.140000,151.366000,233.881000,150.696000,233.363000,150.027000C232.068000,148.352000,230.342000,148.185000,228.702000,149.440000C227.839000,150.110000,227.148000,150.947000,226.458000,151.868000C226.112000,152.371000,226.371000,152.706000,226.544000,153.124000C227.839000,156.306000,229.133000,159.571000,230.601000,162.668000C231.119000,163.757000,230.428000,163.924000,229.651000,164.175000C228.961000,164.426000,228.357000,164.929000,227.925000,163.757000C225.076000,156.808000,222.142000,149.859000,219.207000,142.910000C218.948000,142.241000,218.948000,141.822000,219.638000,141.403000C220.156000,140.985000,220.588000,140.650000,221.192000,140.147000Z" fill="rgb(2,226,172)" stroke="none" stroke-width="1"/><path id="ey0lu0nyz23k60" d="M249.850000,156.473000C247.606000,157.310000,245.189000,157.143000,243.117000,155.468000C240.441000,153.375000,239.060000,150.696000,239.146000,147.431000C239.233000,143.915000,241.304000,141.571000,244.930000,140.650000C247.778000,139.896000,251.145000,141.320000,252.871000,143.999000C254.166000,146.008000,254.856000,148.185000,254.597000,150.613000C254.338000,153.375000,252.785000,155.301000,249.850000,156.473000ZM251.058000,146.929000C250.627000,145.757000,249.936000,144.501000,248.814000,143.580000C247.519000,142.492000,246.052000,142.073000,244.412000,142.827000C242.685000,143.580000,241.736000,144.836000,241.909000,146.678000C242.167000,149.608000,243.290000,152.203000,245.620000,154.213000C246.829000,155.301000,248.296000,155.468000,249.764000,154.799000C251.231000,154.129000,252.094000,152.957000,252.181000,151.366000C252.094000,149.775000,251.663000,148.436000,251.058000,146.929000Z" fill="rgb(2,226,172)" stroke="none" stroke-width="1"/><path id="ey0lu0nyz23k61" d="M256.583000,146.008000C255.806000,144.166000,255.029000,142.324000,254.252000,140.482000C254.079000,140.064000,253.993000,139.729000,254.252000,139.310000C255.978000,136.799000,258.223000,134.957000,261.244000,134.204000C263.920000,133.534000,265.991000,134.538000,267.027000,136.966000C268.408000,140.231000,269.703000,143.496000,271.171000,146.761000C271.602000,147.766000,270.998000,147.850000,270.307000,148.101000C269.703000,148.268000,269.013000,149.022000,268.495000,147.850000C267.286000,144.836000,265.991000,141.906000,264.783000,138.892000C264.179000,137.385000,263.143000,136.296000,261.417000,136.296000C259.345000,136.296000,257.877000,137.385000,256.755000,138.976000C256.496000,139.394000,256.755000,139.729000,256.928000,140.064000C258.395000,143.580000,259.777000,147.013000,261.330000,150.529000C261.762000,151.533000,261.330000,151.785000,260.467000,152.036000C259.690000,152.287000,259.172000,152.622000,258.741000,151.533000C258.136000,149.608000,257.360000,147.850000,256.583000,146.008000Z" fill="rgb(2,226,172)" stroke="none" stroke-width="1"/><path id="ey0lu0nyz23k62" d="M216.876000,160.157000C216.272000,158.650000,215.581000,157.227000,215.063000,155.720000C214.804000,155.050000,214.459000,154.631000,213.682000,155.050000C213.078000,155.385000,212.819000,155.217000,212.560000,154.631000C212.301000,153.961000,212.301000,153.627000,213.078000,153.459000C213.941000,153.292000,213.941000,152.873000,213.596000,152.203000C213.164000,151.366000,212.905000,150.445000,212.474000,149.608000C212.387000,149.357000,212.215000,149.022000,212.560000,148.771000C213.164000,148.352000,213.596000,147.431000,214.286000,147.515000C214.804000,147.515000,214.804000,148.520000,215.150000,149.022000C215.322000,149.273000,215.409000,149.608000,215.495000,149.859000C215.840000,150.529000,215.840000,151.534000,216.531000,151.868000C217.135000,152.203000,217.912000,151.534000,218.602000,151.199000C219.293000,150.947000,219.466000,151.199000,219.638000,151.701000C219.811000,152.203000,219.983000,152.538000,219.293000,152.789000C218.602000,153.040000,217.567000,153.124000,217.308000,153.710000C217.049000,154.464000,217.739000,155.217000,218.084000,155.971000C219.034000,158.315000,219.983000,160.575000,220.933000,162.836000C221.710000,164.678000,222.314000,165.013000,224.299000,164.678000C224.904000,164.594000,225.076000,164.845000,225.249000,165.264000C225.508000,165.766000,225.249000,165.933000,224.817000,166.101000C222.141000,167.189000,219.466000,166.854000,218.430000,163.757000C217.998000,162.668000,217.394000,161.413000,216.876000,160.157000Z" fill="rgb(2,226,172)" stroke="none" stroke-width="1"/></g></g><path id="ey0lu0nyz23k63" d="M61.070600,378.248000L60.121100,375.904000L95.166600,361.922000C98.015100,360.750000,101.295000,362.006000,102.590000,364.685000C103.281000,366.025000,104.748000,366.694000,106.215000,366.359000L139.707000,356.146000L140.484000,358.573000L106.906000,368.787000C104.144000,369.457000,101.382000,368.201000,100.173000,365.773000C99.482600,364.266000,97.669900,363.597000,96.116100,364.266000L61.070600,378.248000Z" fill="rgb(140,101,247)" stroke="none" stroke-width="1"/><path id="ey0lu0nyz23k64" d="M270.653000,350.871000L269.617000,348.527000L352.742000,315.039000C360.770000,311.858000,369.833000,313.532000,375.962000,319.476000L374.149000,321.234000C368.798000,316.044000,360.770000,314.453000,353.778000,317.300000L270.653000,350.871000Z" fill="rgb(140,101,247)" stroke="none" stroke-width="1"/><g id="ey0lu0nyz23k65"><path id="ey0lu0nyz23k66" d="M309.324000,298.462000C311.223000,298.462000,312.690000,296.955000,312.690000,295.197000C312.690000,293.355000,311.136000,291.932000,309.324000,291.932000C307.425000,291.932000,305.957000,293.439000,305.957000,295.197000C305.957000,297.039000,307.425000,298.462000,309.324000,298.462000Z" opacity="0" fill="rgb(255,204,0)" stroke="none" stroke-width="1"/><path id="ey0lu0nyz23k67" d="M122.616000,50.148300C124.515000,50.148300,125.982000,48.641300,125.982000,46.883300C125.982000,45.041500,124.428000,43.618300,122.616000,43.618300C120.717000,43.618300,119.249000,45.125200,119.249000,46.883300C119.249000,48.641300,120.717000,50.148300,122.616000,50.148300Z" fill="rgb(140,101,247)" stroke="none" stroke-width="1"/><path id="ey0lu0nyz23k68" d="M297.930000,62.538900C299.224000,62.538900,300.260000,61.534300,300.260000,60.278500C300.260000,59.022700,299.224000,58.018100,297.930000,58.018100C296.635000,58.018100,295.599000,59.022700,295.599000,60.278500C295.599000,61.534300,296.548000,62.538900,297.930000,62.538900Z" opacity="0" fill="rgb(255,204,0)" stroke="none" stroke-width="1"/><path id="ey0lu0nyz23k69" d="M70.910900,147.180000C72.205800,147.180000,73.241600,146.175000,73.241600,144.920000C73.241600,143.664000,72.205800,142.659000,70.910900,142.659000C69.616100,142.659000,68.580200,143.664000,68.580200,144.920000C68.580200,146.092000,69.616100,147.180000,70.910900,147.180000Z" fill="rgb(255,204,0)" stroke="none" stroke-width="1"/><path id="ey0lu0nyz23k70" d="M349.894000,224.370000C351.189000,224.370000,352.224000,223.365000,352.224000,222.110000C352.224000,220.854000,351.189000,219.849000,349.894000,219.849000C348.599000,219.849000,347.563000,220.854000,347.563000,222.110000C347.563000,223.365000,348.599000,224.370000,349.894000,224.370000Z" opacity="0" fill="rgb(140,101,247)" stroke="none" stroke-width="1"/><path id="ey0lu0nyz23k71" d="M256.324000,287.663000C257.619000,287.663000,258.654000,286.658000,258.654000,285.402000C258.654000,284.146000,257.619000,283.142000,256.324000,283.142000C255.029000,283.142000,253.993000,284.146000,253.993000,285.402000C253.993000,286.658000,255.029000,287.663000,256.324000,287.663000Z" fill="rgb(140,101,247)" stroke="none" stroke-width="1"/><path id="ey0lu0nyz23k72" d="M144.196000,288.249000C145.491000,288.249000,146.526000,287.244000,146.526000,285.988000C146.526000,284.732000,145.491000,283.728000,144.196000,283.728000C142.901000,283.728000,141.865000,284.732000,141.865000,285.988000C141.865000,287.244000,142.901000,288.249000,144.196000,288.249000Z" opacity="0" fill="rgb(140,101,247)" stroke="none" stroke-width="1"/><path id="ey0lu0nyz23k73" d="M35.433900,242.537000C38.109800,242.537000,40.354100,240.444000,40.354100,237.765000C40.354100,235.170000,38.196100,232.993000,35.433900,232.993000C32.758000,232.993000,30.513700,235.086000,30.513700,237.765000C30.513700,240.444000,32.758000,242.537000,35.433900,242.537000Z" fill="rgb(140,101,247)" stroke="none" stroke-width="1"/><path id="ey0lu0nyz23k74" d="M349.893000,177.738000C352.569000,177.738000,354.814000,175.645000,354.814000,172.966000C354.814000,170.370000,352.656000,168.194000,349.893000,168.194000C347.131000,168.194000,344.973000,170.287000,344.973000,172.966000C344.973000,175.561000,347.131000,177.738000,349.893000,177.738000Z" opacity="0" fill="rgb(255,204,0)" stroke="none" stroke-width="1"/><path id="ey0lu0nyz23k75" d="M355.159000,277.616000C357.835000,277.616000,360.079000,275.523000,360.079000,272.844000C360.079000,270.249000,357.921000,268.072000,355.159000,268.072000C352.397000,268.072000,350.239000,270.165000,350.239000,272.844000C350.239000,275.523000,352.483000,277.616000,355.159000,277.616000Z" fill="rgb(140,101,247)" stroke="none" stroke-width="1"/><path id="ey0lu0nyz23k76" d="M247.951000,34.492600C250.627000,34.492600,252.871000,32.399600,252.871000,29.720600C252.871000,27.125300,250.713000,24.948600,247.951000,24.948600C245.189000,24.948600,243.031000,27.041600,243.031000,29.720600C243.117000,32.399600,245.275000,34.492600,247.951000,34.492600Z" opacity="0" fill="rgb(140,101,247)" stroke="none" stroke-width="1"/><path id="ey0lu0nyz23k77" d="M80.664800,309.262000C82.563800,309.262000,84.031200,307.755000,84.031200,305.997000C84.031200,304.155000,82.477500,302.732000,80.664800,302.732000C78.765900,302.732000,77.298500,304.239000,77.298500,305.997000C77.298500,307.839000,78.765900,309.262000,80.664800,309.262000Z" fill="rgb(255,204,0)" stroke="none" stroke-width="1"/></g><path id="ey0lu0nyz23k78" d="M-42.441000,15.461500C-50.202542,17.721821,-142.128250,103.829059,32.139000,56.483500C206.406250,9.137941,205.051618,-68.068951,142.281000,-52.854950" transform="matrix(1 0 0 1 145.03100000000009 162.10949999500011)" fill="none" stroke="rgb(2,226,172)" stroke-width="3" stroke-linecap="round" stroke-linejoin="round" stroke-dashoffset="398.980000" stroke-dasharray="398.980000"/><path id="ey0lu0nyz23k79" d="M277.904000,467.661000L134.096000,467.661000C113.725000,467.661000,95.339200,455.940000,87.138900,437.857000L4.272780,253.672000C-1.424260,241.030000,-1.424260,226.547000,4.272780,213.989000L87.138900,29.804400C95.252900,11.720800,113.725000,0,134.096000,0L277.904000,0C298.275000,0,316.661000,11.720800,324.861000,29.804400L407.727000,213.989000C413.424000,226.631000,413.424000,241.114000,407.727000,253.672000L324.861000,437.857000C316.661000,456.024000,298.275000,467.661000,277.904000,467.661000ZM134.096000,2.511610C114.761000,2.511610,97.238200,13.646400,89.555800,30.809000L6.689710,214.993000C1.337940,226.965000,1.337940,240.696000,6.689710,252.751000L89.555800,436.936000C97.324500,454.098000,114.761000,465.233000,134.096000,465.233000L277.904000,465.233000C297.239000,465.233000,314.762000,454.098000,322.444000,436.936000L405.310000,252.751000C410.662000,240.779000,410.662000,227.049000,405.310000,214.993000L322.444000,30.809000C314.762000,13.646400,297.239000,2.511610,277.904000,2.511610L134.096000,2.511610Z" fill="rgb(2,226,172)" stroke="none" stroke-width="1"/></svg>