<?xml version="1.0" encoding="utf-8"?>
<!-- Generator: Adobe Illustrator 24.1.0, SVG Export Plug-In . SVG Version: 6.00 Build 0)  -->
<svg version="1.1" id="Ebene_1" xmlns="http://www.w3.org/2000/svg" xmlns:xlink="http://www.w3.org/1999/xlink" x="0px" y="0px"
	 viewBox="0 0 134 30" style="enable-background:new 0 0 134 30;" xml:space="preserve">
<style type="text/css">
	.st0{fill:#FFFFFF;}
</style>
<g>
	<path class="st0" d="M12.3,29.4C12.2,29.4,12.2,29.4,12.3,29.4c-0.1,0.2-0.1,0.2,0,0.2c0.1,0,0.1,0,0.1-0.1
		C12.4,29.5,12.4,29.4,12.3,29.4z"/>
	<path class="st0" d="M11,28.8c-0.1,0-0.2,0.1-0.2,0.2s0.1,0.1,0.2,0.2c0.1,0,0.2-0.1,0.2-0.2C11.1,28.8,11.1,28.8,11,28.8z"/>
	<circle class="st0" cx="9.7" cy="28.2" r="0.2"/>
	<path class="st0" d="M8.4,27.1c-0.1,0-0.3,0.1-0.3,0.3c0,0.2,0.1,0.3,0.3,0.3c0.1,0,0.3-0.1,0.3-0.3C8.7,27.2,8.6,27.1,8.4,27.1z"
		/>
	<circle class="st0" cx="7.3" cy="26.3" r="0.3"/>
	<path class="st0" d="M6.3,24.9c-0.2,0-0.4,0.2-0.4,0.4s0.2,0.4,0.4,0.4s0.4-0.2,0.4-0.4S6.5,24.9,6.3,24.9z"/>
	<path class="st0" d="M5.4,23.6C5.2,23.6,5,23.8,5,24s0.2,0.4,0.4,0.4c0.2,0,0.4-0.2,0.4-0.4S5.7,23.6,5.4,23.6z"/>
	<path class="st0" d="M4.7,22.3c-0.3,0-0.5,0.2-0.5,0.5c0,0.2,0.2,0.5,0.5,0.5c0.2-0.1,0.4-0.3,0.5-0.5C5.2,22.5,5,22.3,4.7,22.3z"
		/>
	<circle class="st0" cx="4.2" cy="21.4" r="0.5"/>
	<path class="st0" d="M4.3,19.9c0-0.3-0.2-0.6-0.6-0.6c-0.4,0-0.6,0.2-0.6,0.6c0,0.3,0.2,0.6,0.6,0.6C4.1,20.5,4.3,20.2,4.3,19.9z"
		/>
	<path class="st0" d="M3.6,19.1c0.4,0,0.6-0.3,0.6-0.6s-0.3-0.6-0.6-0.6c-0.3,0-0.6,0.3-0.6,0.6S3.3,19.1,3.6,19.1z"/>
	<path class="st0" d="M3,17c0,0.3,0.3,0.6,0.6,0.6c0.4,0,0.7-0.3,0.7-0.7c0-0.4-0.3-0.7-0.7-0.7C3.3,16.3,3,16.6,3,17z"/>
	<circle class="st0" cx="3.8" cy="15.5" r="0.7"/>
	<path class="st0" d="M24.8,26.5C24.7,26.5,24.8,26.6,24.8,26.5L24.8,26.5z"/>
	<path class="st0" d="M23.4,27.1C23.6,27.2,23.5,27.1,23.4,27.1L23.4,27.1z"/>
	<path class="st0" d="M23.4,27.3c0.1,0,0.1,0,0-0.2C23.3,27.2,23.4,27.3,23.4,27.3z"/>
	<path class="st0" d="M22,27.7C22,27.8,22.1,27.8,22,27.7c0.2,0.1,0.2,0,0.2,0l-0.1-0.1C22,27.6,22,27.7,22,27.7z"/>
	<path class="st0" d="M20.6,28c-0.1,0-0.2,0.1-0.2,0.2c0,0.1,0.1,0.2,0.2,0.2c0.1,0,0.2-0.1,0.2-0.2C20.8,28.1,20.8,28,20.6,28z"/>
	<path class="st0" d="M19.2,28.2c-0.1,0-0.2,0.1-0.2,0.2c0,0.1,0.1,0.2,0.2,0.2c0.1,0,0.2-0.1,0.2-0.2
		C19.4,28.3,19.3,28.2,19.2,28.2z"/>
	<path class="st0" d="M17.7,28.2c-0.2,0-0.3,0.1-0.3,0.3s0.1,0.3,0.3,0.3s0.3-0.1,0.3-0.3C17.9,28.4,17.8,28.2,17.7,28.2z"/>
	<path class="st0" d="M16.2,28.1c-0.2,0-0.3,0.1-0.3,0.3c0,0.2,0.1,0.3,0.3,0.3s0.3-0.1,0.3-0.3C16.5,28.3,16.3,28.1,16.2,28.1z"/>
	<path class="st0" d="M14.7,27.9c-0.2,0-0.4,0.2-0.4,0.4s0.2,0.4,0.4,0.4s0.4-0.2,0.4-0.4C15.1,28,14.9,27.9,14.7,27.9z"/>
	<path class="st0" d="M13.2,27.4c-0.2,0-0.4,0.2-0.4,0.4s0.2,0.4,0.4,0.4s0.4-0.2,0.4-0.4C13.7,27.6,13.5,27.4,13.2,27.4z"/>
	<path class="st0" d="M11.9,26.8c-0.2,0-0.4,0.2-0.4,0.4s0.2,0.4,0.4,0.4c0.2,0,0.4-0.2,0.4-0.4S12.1,26.8,11.9,26.8z"/>
	<circle class="st0" cx="10.6" cy="26.5" r="0.5"/>
	<path class="st0" d="M9.4,25c-0.3,0-0.6,0.2-0.6,0.5s0.2,0.6,0.5,0.6s0.6-0.2,0.6-0.5C10,25.2,9.7,25,9.4,25z"/>
	<path class="st0" d="M9,24.5c0-0.4-0.3-0.6-0.6-0.6c-0.3,0-0.6,0.3-0.6,0.6s0.3,0.6,0.6,0.6C8.7,25.1,9,24.8,9,24.5z"/>
	<path class="st0" d="M7.5,23.9c0.4,0,0.6-0.3,0.6-0.6c0-0.4-0.3-0.6-0.6-0.6c-0.4,0-0.6,0.3-0.6,0.6S7.1,23.9,7.5,23.9z"/>
	<path class="st0" d="M7.5,22c0-0.4-0.3-0.7-0.7-0.7c-0.4,0-0.7,0.3-0.7,0.7s0.3,0.7,0.7,0.7C7.1,22.6,7.5,22.3,7.5,22z"/>
	<path class="st0" d="M29.7,17.7c-0.1,0.1,0,0.2,0,0.2S29.8,17.8,29.7,17.7z"/>
	<path class="st0" d="M29.1,19C29,19,29,19.1,29.1,19c-0.1,0.2,0,0.2,0,0.2s0.1,0,0.1-0.1C29.2,19.1,29.2,19,29.1,19z"/>
	<path class="st0" d="M28.4,20.3c-0.1,0-0.2,0.1-0.2,0.2s0.1,0.2,0.2,0.2c0.1,0,0.2-0.1,0.2-0.2C28.5,20.3,28.5,20.3,28.4,20.3z"/>
	<path class="st0" d="M27.5,21.4c-0.1,0-0.2,0.1-0.2,0.2c0,0.1,0.1,0.2,0.2,0.2s0.2-0.1,0.2-0.2C27.7,21.5,27.6,21.4,27.5,21.4z"/>
	<path class="st0" d="M26.5,22.5c-0.1,0-0.2,0.1-0.2,0.2c0,0.1,0.1,0.2,0.2,0.2s0.2-0.1,0.2-0.2C26.8,22.6,26.7,22.5,26.5,22.5z"/>
	<path class="st0" d="M25.4,23.5c-0.2,0-0.3,0.1-0.3,0.3s0.1,0.3,0.3,0.3c0.2,0,0.3-0.1,0.3-0.3S25.6,23.5,25.4,23.5z"/>
	<path class="st0" d="M24.2,24.3c-0.2,0-0.3,0.1-0.3,0.3c0,0.2,0.1,0.3,0.3,0.3s0.3-0.1,0.3-0.3C24.5,24.4,24.4,24.3,24.2,24.3z"/>
	<path class="st0" d="M22.9,25c-0.2,0-0.4,0.2-0.4,0.4c0,0.2,0.2,0.4,0.4,0.4c0.2,0,0.4-0.2,0.4-0.4C23.3,25.2,23.1,25,22.9,25z"/>
	<path class="st0" d="M21.5,25.5c-0.2,0-0.4,0.2-0.4,0.4c0,0.2,0.2,0.4,0.4,0.4s0.4-0.2,0.4-0.4C21.9,25.7,21.7,25.5,21.5,25.5z"/>
	<path class="st0" d="M20.1,25.8c-0.2,0-0.4,0.2-0.4,0.4s0.2,0.4,0.4,0.4c0.2,0,0.4-0.2,0.4-0.4S20.3,25.8,20.1,25.8z"/>
	<circle class="st0" cx="18.6" cy="26.4" r="0.5"/>
	<circle class="st0" cx="17.1" cy="26.4" r="0.5"/>
	<path class="st0" d="M16.2,26.2c0-0.3-0.2-0.6-0.6-0.6c-0.3,0-0.6,0.2-0.6,0.6c0,0.3,0.2,0.6,0.6,0.6
		C15.9,26.8,16.2,26.5,16.2,26.2z"/>
	<path class="st0" d="M14.8,25.8c0-0.3-0.3-0.6-0.6-0.6s-0.6,0.3-0.6,0.6s0.3,0.6,0.6,0.6S14.8,26.1,14.8,25.8z"/>
	<path class="st0" d="M12.8,25.8c0.3,0,0.6-0.3,0.6-0.6c0-0.4-0.3-0.6-0.6-0.6s-0.6,0.3-0.6,0.6C12.2,25.6,12.5,25.8,12.8,25.8z"/>
	<path class="st0" d="M26.7,5.4C26.7,5.3,26.6,5.4,26.7,5.4L26.7,5.4z"/>
	<path class="st0" d="M27.4,6.8C27.3,6.7,27.3,6.8,27.4,6.8L27.4,6.8z"/>
	<path class="st0" d="M27.4,6.6c-0.1,0-0.1,0,0,0.2C27.5,6.7,27.4,6.6,27.4,6.6z"/>
	<path class="st0" d="M27.9,8.2c0.1,0,0.1,0,0.1-0.1C28,8,28,8,27.9,8c-0.1,0-0.1,0-0.1,0.1C27.8,8.2,27.9,8.2,27.9,8.2z"/>
	<path class="st0" d="M28.5,9.5c0-0.1-0.1-0.2-0.2-0.2c-0.1,0-0.2,0.1-0.2,0.2c0.1,0.1,0.2,0.2,0.2,0.2C28.4,9.7,28.5,9.6,28.5,9.5z
		"/>
	<path class="st0" d="M28.4,11c0,0.1,0.1,0.2,0.2,0.2c0.1,0,0.2-0.1,0.2-0.2s-0.1-0.2-0.2-0.2C28.5,10.8,28.4,10.9,28.4,11z"/>
	<path class="st0" d="M28.7,12.2c-0.1,0-0.2,0.1-0.2,0.2c0,0.1,0.1,0.2,0.2,0.2c0.1,0,0.2-0.1,0.2-0.2
		C28.9,12.3,28.8,12.2,28.7,12.2z"/>
	<path class="st0" d="M28.6,13.7c-0.2,0-0.3,0.1-0.3,0.3s0.1,0.3,0.3,0.3c0.2,0,0.3-0.1,0.3-0.3S28.8,13.7,28.6,13.7z"/>
	<path class="st0" d="M28.4,15.1c-0.2,0-0.3,0.2-0.3,0.3c0,0.2,0.2,0.3,0.3,0.3c0.2,0,0.3-0.2,0.3-0.3
		C28.7,15.2,28.6,15.1,28.4,15.1z"/>
	<path class="st0" d="M27.9,16.5c-0.2,0-0.4,0.2-0.4,0.4c0,0.2,0.2,0.4,0.4,0.4c0.2,0,0.4-0.2,0.4-0.4
		C28.3,16.7,28.1,16.5,27.9,16.5z"/>
	<path class="st0" d="M27.4,17.8c-0.2,0-0.4,0.2-0.4,0.4s0.2,0.4,0.4,0.4c0.2,0,0.4-0.2,0.4-0.4S27.6,17.8,27.4,17.8z"/>
	<path class="st0" d="M26.6,19.1c-0.2,0-0.4,0.2-0.4,0.4s0.2,0.4,0.4,0.4c0.2,0,0.4-0.2,0.4-0.4S26.9,19.1,26.6,19.1z"/>
	<circle class="st0" cx="25.7" cy="20.7" r="0.5"/>
	<circle class="st0" cx="24.6" cy="21.7" r="0.5"/>
	<path class="st0" d="M23.4,22c-0.3,0-0.6,0.2-0.6,0.6c0,0.3,0.2,0.6,0.6,0.6c0.3,0,0.6-0.2,0.6-0.6C24,22.3,23.7,22,23.4,22z"/>
	<path class="st0" d="M21.5,23.3c0,0.3,0.3,0.6,0.6,0.6c0.3,0,0.6-0.3,0.6-0.6s-0.3-0.6-0.6-0.6C21.8,22.7,21.5,23,21.5,23.3z"/>
	<path class="st0" d="M20.1,23.8c0,0.3,0.3,0.6,0.6,0.6c0.4,0,0.6-0.3,0.6-0.6s-0.2-0.6-0.6-0.6C20.3,23.2,20.1,23.5,20.1,23.8z"/>
	<path class="st0" d="M17.9,0.6C17.8,0.5,17.8,0.6,17.9,0.6L17.9,0.6z"/>
	<path class="st0" d="M17.9,0.4c0,0-0.1,0,0,0.2C18,0.5,17.9,0.4,17.9,0.4z"/>
	<path class="st0" d="M19.3,1.2c0.1,0,0.1,0,0.1-0.1c0-0.1,0-0.1-0.1-0.1c-0.1,0-0.1,0-0.1,0.1C19.1,1.2,19.2,1.2,19.3,1.2z"/>
	<path class="st0" d="M20.6,2c0.1,0,0.2-0.1,0.2-0.2c0-0.1-0.1-0.2-0.2-0.2c-0.1,0-0.2,0.1-0.2,0.2C20.4,1.9,20.5,2,20.6,2z"/>
	<circle class="st0" cx="21.8" cy="2.7" r="0.2"/>
	<path class="st0" d="M22.9,3.9c0.1,0,0.2-0.1,0.2-0.2c0-0.1-0.1-0.2-0.2-0.2c-0.1,0-0.2,0.1-0.2,0.2C22.6,3.8,22.8,3.9,22.9,3.9z"
		/>
	<path class="st0" d="M23.9,5c0.2,0,0.3-0.1,0.3-0.3s-0.1-0.3-0.3-0.3c-0.2,0-0.3,0.1-0.3,0.3S23.8,5,23.9,5z"/>
	<path class="st0" d="M24.8,6.3c0.2,0,0.3-0.2,0.3-0.3S25,5.6,24.8,5.6s-0.3,0.2-0.3,0.3C24.5,6.1,24.6,6.3,24.8,6.3z"/>
	<path class="st0" d="M25.5,7.6c0.2,0,0.4-0.2,0.4-0.4s-0.2-0.4-0.4-0.4S25.1,7,25.1,7.2C25.2,7.4,25.3,7.6,25.5,7.6z"/>
	<path class="st0" d="M25.7,8.6c0,0.2,0.2,0.4,0.4,0.4c0.2,0,0.4-0.2,0.4-0.4c0-0.2-0.2-0.4-0.4-0.4C25.9,8.2,25.7,8.4,25.7,8.6z"/>
	<path class="st0" d="M26.4,9.7C26.2,9.6,26,9.8,26,10.1c0,0.2,0.2,0.4,0.4,0.4c0.2,0,0.4-0.2,0.4-0.4C26.8,9.9,26.6,9.7,26.4,9.7z"
		/>
	<circle class="st0" cx="26.6" cy="11.6" r="0.5"/>
	<circle class="st0" cx="26.6" cy="13.1" r="0.5"/>
	<path class="st0" d="M26.9,14.5c0-0.3-0.2-0.6-0.6-0.6c-0.3,0-0.6,0.2-0.6,0.6c0,0.3,0.2,0.6,0.6,0.6
		C26.7,15.1,26.9,14.8,26.9,14.5z"/>
	<path class="st0" d="M25.3,16c0,0.3,0.3,0.6,0.6,0.6c0.4,0,0.6-0.3,0.6-0.6s-0.3-0.6-0.6-0.6C25.6,15.4,25.3,15.7,25.3,16z"/>
	<path class="st0" d="M5.4,3.5C5.5,3.5,5.5,3.4,5.4,3.5L5.4,3.5z"/>
	<path class="st0" d="M6.7,2.7c0,0,0,0,0,0.2c0,0,0,0,0,0C6.8,2.8,6.7,2.7,6.7,2.7z"/>
	<path class="st0" d="M6.7,2.9C6.8,2.9,6.8,2.8,6.7,2.9L6.7,2.9z"/>
	<path class="st0" d="M8.2,2.4c0.1,0,0.1,0,0.1-0.1c0-0.1,0-0.1-0.1-0.1C8.1,2.1,8,2.2,8,2.2C8,2.3,8.1,2.4,8.2,2.4z"/>
	<path class="st0" d="M9.6,2c0.1,0,0.2-0.1,0.2-0.2c0-0.1-0.1-0.2-0.2-0.2c-0.1,0-0.2,0.1-0.2,0.2C9.4,1.9,9.5,2,9.6,2z"/>
	<path class="st0" d="M11.1,1.8c0.1,0,0.2-0.1,0.2-0.2c0-0.1-0.1-0.2-0.2-0.2c-0.1,0-0.2,0.1-0.2,0.2C10.9,1.7,11,1.8,11.1,1.8z"/>
	<path class="st0" d="M12.6,1.8c0.1,0,0.2-0.1,0.2-0.2c0-0.1-0.1-0.2-0.2-0.2c-0.1,0-0.2,0.1-0.2,0.2C12.4,1.7,12.4,1.8,12.6,1.8z"
		/>
	<path class="st0" d="M14.1,1.8c0.2,0,0.3-0.1,0.3-0.3s-0.1-0.3-0.3-0.3c-0.2,0-0.3,0.1-0.3,0.3S13.9,1.8,14.1,1.8z"/>
	<circle class="st0" cx="15.5" cy="1.8" r="0.3"/>
	<path class="st0" d="M17,2.6c0.2,0,0.4-0.2,0.4-0.4S17.2,1.8,17,1.8S16.6,2,16.6,2.2S16.8,2.5,17,2.6z"/>
	<path class="st0" d="M18.3,3.2c0.2,0,0.4-0.2,0.4-0.4s-0.2-0.4-0.4-0.4s-0.4,0.2-0.4,0.4S18.1,3.2,18.3,3.2z"/>
	<path class="st0" d="M19.2,3.5c0,0.2,0.2,0.4,0.4,0.4c0.2,0,0.4-0.2,0.4-0.4s-0.2-0.4-0.4-0.4C19.4,3.1,19.2,3.3,19.2,3.5z"/>
	<circle class="st0" cx="20.8" cy="4.5" r="0.5"/>
	<circle class="st0" cx="21.8" cy="5.6" r="0.5"/>
	<path class="st0" d="M22.1,6.8c0,0.3,0.2,0.6,0.6,0.6c0.3,0,0.6-0.2,0.6-0.6c0-0.4-0.3-0.6-0.6-0.6S22.1,6.4,22.1,6.8z"/>
	<path class="st0" d="M22.8,8c0,0.3,0.3,0.6,0.6,0.6C23.7,8.6,24,8.4,24,8c0-0.3-0.3-0.6-0.6-0.6C23.1,7.4,22.8,7.7,22.8,8z"/>
	<path class="st0" d="M23.3,9.4c0,0.4,0.3,0.6,0.6,0.6c0.3,0,0.6-0.3,0.6-0.6c0-0.4-0.3-0.6-0.6-0.6C23.6,8.8,23.3,9.1,23.3,9.4z"/>
	<path class="st0" d="M24.3,10.2c-0.4,0-0.7,0.3-0.7,0.7c0,0.4,0.3,0.7,0.7,0.7c0.4,0,0.7-0.3,0.7-0.7C25,10.5,24.7,10.2,24.3,10.2z
		"/>
	<path class="st0" d="M0.1,13.8c0-0.1,0.1-0.1,0-0.2C0,13.7,0,13.8,0.1,13.8z"/>
	<circle class="st0" cx="0.5" cy="12.3" r="0.2"/>
	<path class="st0" d="M1.4,10.9c0-0.1-0.1-0.2-0.2-0.2c-0.1,0-0.2,0.1-0.2,0.2c0,0.1,0.1,0.2,0.2,0.2C1.2,11.1,1.3,11,1.4,10.9z"/>
	<path class="st0" d="M1.8,9.9c0.2,0,0.3-0.1,0.3-0.3c0-0.2-0.1-0.3-0.3-0.3S1.5,9.4,1.5,9.6C1.5,9.8,1.7,9.9,1.8,9.9z"/>
	<path class="st0" d="M2.7,8.8c0.2,0,0.4-0.2,0.4-0.4C3.1,8.2,2.9,8,2.7,8S2.3,8.2,2.3,8.4C2.3,8.6,2.5,8.8,2.7,8.8z"/>
	<path class="st0" d="M3.7,7.7c0.2,0,0.5-0.2,0.5-0.5C4.2,7,4,6.8,3.7,6.8S3.2,7,3.2,7.2C3.3,7.5,3.5,7.7,3.7,7.7z"/>
	<path class="st0" d="M4.8,6.8c0.3,0,0.5-0.2,0.5-0.5S5.1,5.8,4.8,5.8C4.5,5.7,4.3,6,4.3,6.2C4.3,6.5,4.5,6.8,4.8,6.8z"/>
	<path class="st0" d="M6,6c0.3,0,0.6-0.3,0.6-0.6C6.6,5,6.4,4.7,6,4.7C5.7,4.7,5.4,5,5.4,5.4C5.4,5.7,5.7,6,6,6z"/>
	<path class="st0" d="M7.3,5.3C7.7,5.3,8,5,8,4.6c0-0.4-0.3-0.7-0.7-0.7c-0.4,0-0.7,0.3-0.7,0.7C6.6,5,6.9,5.3,7.3,5.3z"/>
	<path class="st0" d="M20,23.8c-0.1-0.2-0.3-0.3-0.6-0.3c-0.1,0-0.1,0-0.2,0c0.2-0.1,0.4-0.3,0.4-0.6c0.2,0.1,0.4,0.2,0.6,0.2
		c0.5,0,0.8-0.4,0.8-0.8c0.1,0.1,0.3,0.2,0.5,0.2c0.4,0,0.8-0.4,0.8-0.8c0-0.1,0-0.2,0-0.2c0.4,0.2,0.8,0.2,1.1-0.2
		c0.2-0.3,0.2-0.6,0-0.9c0.1,0.1,0.3,0.2,0.5,0.2c0.4,0,0.7-0.3,0.7-0.7c0-0.4-0.3-0.7-0.7-0.7c-0.2,0-0.4,0.1-0.5,0.2
		c0-0.1,0-0.2,0-0.3c0.3,0,0.6-0.2,0.8-0.5v0.1c0,0.4,0.3,0.7,0.7,0.7c0.4,0,0.7-0.3,0.7-0.7c0-0.4-0.3-0.7-0.7-0.7
		c-0.3,0-0.5,0.1-0.6,0.4c0-0.1,0-0.1,0-0.2c0-0.2,0-0.3-0.1-0.5c0.2,0,0.4-0.1,0.5-0.2c0.1,0.3,0.3,0.4,0.6,0.4
		c0.4,0,0.6-0.3,0.6-0.6c0.1-0.3-0.2-0.6-0.6-0.6c-0.1,0-0.2,0-0.3,0.1c0-0.2-0.1-0.4-0.3-0.6c0.4-0.1,0.8-0.5,0.7-0.9
		c0-0.2-0.2-0.5-0.4-0.6c0.4-0.1,0.7-0.5,0.6-0.9c-0.1-0.3-0.3-0.6-0.7-0.6c0.4,0,0.7-0.4,0.7-0.8c0-0.4-0.4-0.7-0.8-0.7
		c-0.4,0-0.7,0.4-0.7,0.8s0.3,0.6,0.6,0.7c-0.4,0-0.8,0.4-0.7,0.8c0,0.3,0.2,0.5,0.4,0.6c-0.4,0.1-0.7,0.5-0.7,0.9
		c0,0.2,0.1,0.3,0.2,0.4c-0.5,0.1-0.8,0.5-0.7,1c0,0.1,0,0.2,0.1,0.3c-0.5,0-0.8,0.4-0.8,0.9c0,0.1,0,0.2,0,0.3
		c-0.5,0-0.9,0.4-0.9,0.9c0,0,0,0,0,0.1c0,0-0.1,0-0.2,0c-0.5,0-0.9,0.4-1,0.8c-0.1,0-0.2,0-0.3,0c-0.4,0-0.8,0.2-0.9,0.6
		c-0.4-0.3-0.9-0.2-1.2,0.1c0,0.1-0.1,0.1-0.1,0.2c-0.3-0.4-0.9-0.4-1.3,0c-0.1,0.1-0.1,0.2-0.2,0.2c-0.3-0.4-0.9-0.4-1.3-0.1
		c0,0-0.1,0-0.1,0.1c-0.2-0.4-0.7-0.6-1.2-0.4c0,0-0.1,0-0.2,0.1c-0.1-0.5-0.6-0.8-1.1-0.7c-0.1,0-0.1,0-0.2,0.1
		c0-0.5-0.4-0.9-0.9-0.9h-0.1c0.1-0.5-0.2-1-0.7-1.1c-0.1,0-0.1,0-0.2,0c0.2-0.4,0-1-0.5-1.2H9.8c0.3-0.4,0.2-1-0.2-1.3
		c0,0-0.1,0-0.1-0.1c0.4-0.3,0.5-0.9,0.2-1.3l-0.1-0.1c0.2-0.1,0.4-0.3,0.5-0.6c0.1-0.2,0-0.5-0.1-0.7c0.5-0.1,0.8-0.6,0.7-1.1v-0.1
		c0.5,0,0.9-0.4,0.9-0.8c0-0.1,0-0.1,0-0.2c0.5,0.1,1-0.2,1.1-0.7v-0.1c0.4,0.2,1,0.1,1.2-0.4V9.6c0.2,0.2,0.4,0.2,0.7,0.2
		c0.3,0,0.5-0.2,0.7-0.4c0.3,0.4,0.8,0.5,1.2,0.2l0.1-0.1c0.2,0.5,0.7,0.7,1.2,0.5c0.1,0,0.1,0,0.2-0.1c0,0.3,0.2,0.5,0.4,0.6
		c0.2,0.1,0.4,0.1,0.6,0.1c0,0,0,0.1,0.1,0.1c0,0.2,0.1,0.4,0.2,0.5c0.5,0.5,1.5,1.6,1.3,3.2c0,0.4,0.2,0.6,0.4,0.3
		c1.7-1.8,1.4-4,1.4-4.3c0-0.2,0-0.3-0.1-0.5c0-0.1,0-0.2,0-0.3c0-0.4-0.2-0.9-0.6-1.2c0-0.1,0-0.2,0-0.3c0-0.6-0.3-1.1-0.9-1.3
		c0-0.6-0.5-1.2-1.1-1.3c-0.1-0.6-0.6-1-1.2-1c0,0,0,0-0.1,0c-0.2-0.5-0.6-0.8-1.1-0.8c-0.1,0-0.2,0-0.3,0c-0.3-0.6-0.9-0.8-1.5-0.6
		c-0.3-0.5-1-0.7-1.5-0.4c0,0-0.1,0-0.1,0.1c-0.3-0.4-0.9-0.6-1.4-0.2c-0.1,0-0.1,0.1-0.2,0.2C12,2.4,11.4,2.3,11,2.7
		c-0.1,0.1-0.2,0.2-0.3,0.3c-0.3-0.4-0.8-0.4-1.2-0.1C9.4,3,9.3,3.2,9.3,3.4C9,3.1,8.6,3,8.2,3.3C7.9,3.6,7.8,4,8.1,4.4
		c0.1,0.3,0.4,0.4,0.6,0.4c0.4,0,0.7-0.3,0.8-0.6c0.3,0.4,0.8,0.5,1.2,0.2c0.1-0.1,0.2-0.2,0.3-0.3c0.3,0.4,0.9,0.5,1.3,0.2l0.1-0.1
		c0.3,0.4,0.9,0.6,1.4,0.2c0,0.1,0.1,0.1,0.1,0.2c-0.2,0-0.5,0.1-0.6,0.3c-0.4-0.4-1.1-0.4-1.5,0.1c0,0,0,0.1-0.1,0.1
		c-0.2-0.1-0.4-0.2-0.6-0.2c-0.4,0-0.8,0.2-0.9,0.6C9.6,5.1,9,5.2,8.8,5.6C8.7,5.7,8.6,5.8,8.6,5.9c-0.4-0.3-1-0.1-1.2,0.3
		C7.3,6.4,7.3,6.5,7.3,6.7C6.9,6.5,6.3,6.6,6.1,7C6.1,7.1,6,7.3,6,7.4c0,0.1,0,0.2,0,0.2c-0.1,0-0.2-0.1-0.4-0.1
		c-0.4,0-0.8,0.4-0.8,0.8c0,0.1,0.1,0.3,0.1,0.4C4.8,8.6,4.7,8.6,4.6,8.6C4.1,8.6,3.8,9,3.8,9.3c0,0.4,0.3,0.7,0.7,0.7
		c0.4,0.1,0.8-0.3,0.8-0.7c0-0.1,0-0.2-0.1-0.3C5.3,9,5.5,9.1,5.6,9.1c0.4,0,0.8-0.4,0.8-0.8c0-0.1,0-0.1,0-0.2
		c0.4,0.2,0.9,0.1,1.2-0.2c0.1-0.1,0.1-0.3,0.1-0.4c0.1,0,0.3,0.1,0.5,0.1C8,7.8,7.9,8,7.9,8.2C7.3,8.1,6.8,8.5,6.7,9
		c0,0.1,0,0.1,0,0.2v0.1H6.6c-0.5,0-0.9,0.4-0.9,0.9c0,0.1,0,0.2,0,0.3c0,0,0,0-0.1,0c-0.5,0-0.9,0.4-0.9,0.9c0,0.2,0,0.3,0.1,0.5
		c-0.4,0-0.8,0.4-0.8,0.8c0,0.2,0.1,0.4,0.3,0.6c-0.4,0-0.8,0.4-0.8,0.8c0,0.4,0.4,0.8,0.8,0.8c0.4,0,0.8-0.4,0.8-0.8
		c0-0.2-0.1-0.4-0.2-0.6c0.2,0,0.4-0.1,0.6-0.3c0,0.2,0.1,0.4,0.2,0.6C5.2,14,4.9,14.5,5.1,15c0,0.2,0.2,0.3,0.3,0.4
		C5,15.6,4.8,16.1,5,16.5c0.1,0.2,0.2,0.3,0.4,0.4C5,17.1,4.8,17.6,5,18c0.1,0.2,0.3,0.4,0.6,0.4c-0.4,0.2-0.5,0.6-0.3,1
		c0.1,0.3,0.4,0.4,0.7,0.4h0.1c-0.4,0.1-0.6,0.5-0.4,0.9c0.1,0.4,0.5,0.6,0.9,0.4C7,21,7.2,20.6,7,20.2c-0.1-0.3-0.4-0.5-0.7-0.5
		H6.2c0.3-0.1,0.5-0.4,0.6-0.7c0,0,0,0,0-0.1c0.1,0.1,0.3,0.2,0.5,0.3C7,19.6,7,20.1,7.4,20.4c0.2,0.1,0.4,0.2,0.6,0.2
		c-0.5,0.4-0.4,0.9,0,1.2C8.1,21.9,8.3,22,8.5,22c0.1,0,0.2,0,0.2,0c-0.2,0.4-0.1,0.8,0.2,1.1c0.1,0.1,0.3,0.1,0.4,0.1
		c0.2,0,0.4-0.1,0.5-0.2c-0.3,0.3-0.2,0.8,0.1,1c0.3,0.3,0.8,0.2,1-0.1c0.2-0.3,0.2-0.7,0-1c0.1,0,0.2,0,0.3,0
		c0,0.3,0.2,0.6,0.5,0.8h-0.1c-0.4,0-0.7,0.3-0.7,0.7c0,0.4,0.3,0.7,0.7,0.7c0.4,0,0.7-0.3,0.7-0.7c0-0.3-0.1-0.5-0.4-0.6
		c0.1,0,0.1,0,0.2,0c0.2,0,0.3,0,0.5-0.1c0,0.5,0.4,0.8,0.9,0.8c0.2,0,0.4-0.1,0.6-0.3c0.1,0.4,0.5,0.8,0.9,0.7
		c0.2,0,0.5-0.2,0.6-0.4c0.1,0.4,0.5,0.7,0.9,0.6c0.3-0.1,0.6-0.3,0.6-0.7c0,0.4,0.4,0.7,0.8,0.7c0.4,0,0.7-0.4,0.7-0.8
		c0-0.4-0.3-0.7-0.7-0.7c0.1-0.1,0.1-0.2,0.2-0.2c0.2,0.2,0.6,0.3,0.9,0.2c-0.3,0.2-0.4,0.6-0.2,1c0.2,0.3,0.6,0.4,1,0.2
		C20.1,24.6,20.2,24.2,20,23.8z"/>
	<path class="st0" d="M3.5,24.7c0,0,0.1,0,0-0.1C3.4,24.7,3.5,24.7,3.5,24.7z"/>
	<path class="st0" d="M2.8,23.2C2.7,23.2,2.7,23.2,2.8,23.2c-0.1,0.2-0.1,0.2,0,0.2c0.1,0,0.1,0,0.1-0.1C3,23.2,2.9,23.2,2.8,23.2z"
		/>
	<circle class="st0" cx="2.3" cy="22" r="0.2"/>
	<path class="st0" d="M1.9,20.3c-0.1,0-0.2,0.1-0.2,0.2s0.1,0.2,0.2,0.2c0.1,0,0.2-0.1,0.2-0.2S2,20.3,1.9,20.3z"/>
	<path class="st0" d="M1.9,19c0-0.2-0.1-0.3-0.3-0.3c-0.2,0-0.3,0.1-0.3,0.3s0.1,0.3,0.3,0.3C1.8,19.3,1.9,19.2,1.9,19z"/>
	<circle class="st0" cx="1.5" cy="17.5" r="0.4"/>
	<path class="st0" d="M1.2,16.1c0,0.2,0.2,0.4,0.4,0.4c0.2,0,0.4-0.2,0.4-0.4c0-0.2-0.2-0.4-0.4-0.4C1.4,15.6,1.2,15.8,1.2,16.1z"/>
	<path class="st0" d="M1.8,15.1c0.3,0,0.5-0.2,0.5-0.5c0-0.3-0.2-0.5-0.5-0.5s-0.5,0.2-0.5,0.5C1.4,14.8,1.6,15.1,1.8,15.1z"/>
	<path class="st0" d="M2.2,12.6c-0.3,0-0.5,0.2-0.5,0.5c0,0.3,0.2,0.5,0.5,0.5s0.5-0.2,0.5-0.5C2.8,12.9,2.5,12.6,2.2,12.6z"/>
	<path class="st0" d="M2.8,12.4c0.3,0,0.6-0.3,0.6-0.6s-0.3-0.6-0.6-0.6s-0.6,0.3-0.6,0.6S2.5,12.4,2.8,12.4z"/>
	<path class="st0" d="M3.6,11.2c0.4,0,0.6-0.3,0.6-0.6c0-0.3-0.2-0.7-0.6-0.7C3.2,9.9,3,10.2,3,10.5C2.9,10.9,3.2,11.2,3.6,11.2z"/>
</g>
<g id="consensys">
	<path class="st0" d="M42,20.7c-0.8,0-1.5-0.2-2.2-0.4c-0.7-0.3-1.3-0.7-1.8-1.2s-0.9-1.1-1.2-1.8c-0.6-1.4-0.6-3,0-4.4s1.6-2.4,3-3
		s3-0.6,4.5,0c0.7,0.3,1.3,0.7,1.8,1.3c0.1,0.1,0.2,0.3,0.2,0.4c0.1,0.2,0,0.4-0.1,0.6c-0.1,0.2-0.3,0.3-0.6,0.3s-0.4-0.1-0.6-0.2
		c-0.4-0.4-0.9-0.7-1.4-0.9c-0.5-0.3-1.1-0.4-1.7-0.4c-0.6,0-1.1,0.1-1.6,0.3s-1,0.5-1.3,0.9c-0.4,0.4-0.7,0.8-0.9,1.4
		c-0.4,1-0.4,2.2,0,3.3c0.4,1,1.2,1.8,2.2,2.2c0.5,0.2,1.1,0.3,1.6,0.3c0.6,0,1.2-0.1,1.7-0.4c0.5-0.2,1-0.6,1.4-1
		c0.1-0.1,0.3-0.2,0.4-0.3c0,0,0.1,0,0.2,0c0.1,0,0.3,0,0.4,0.1c0.2,0.1,0.3,0.4,0.3,0.6s-0.1,0.4-0.2,0.6c-0.5,0.6-1.2,1-1.8,1.3
		C43.5,20.5,42.8,20.7,42,20.7z"/>
	<path class="st0" d="M53.8,20.7c-0.8,0-1.5-0.2-2.2-0.4c-0.7-0.3-1.3-0.7-1.8-1.2s-0.9-1.1-1.2-1.8c-0.6-1.4-0.6-3,0-4.4
		c0.3-0.7,0.7-1.3,1.2-1.8s1.1-0.9,1.8-1.2c1.4-0.6,3-0.6,4.4,0s2.4,1.7,3,3c0.6,1.4,0.6,3,0,4.4c-0.3,0.7-0.7,1.3-1.2,1.8
		S56.7,20,56,20.3C55.3,20.5,54.6,20.7,53.8,20.7z M53.8,10.8c-0.6,0-1.1,0.1-1.6,0.3s-1,0.5-1.3,0.9c-0.4,0.4-0.7,0.8-0.9,1.4
		c-0.4,1-0.4,2.2,0,3.3c0.9,2.1,3.4,3.1,5.5,2.2c0.5-0.2,1-0.5,1.4-0.9c1.2-1.2,1.6-3,0.9-4.6c-0.2-0.5-0.5-1-0.9-1.4
		s-0.8-0.7-1.3-0.9C54.9,10.9,54.4,10.8,53.8,10.8z"/>
	<path class="st0" d="M69.5,20.7c-0.4,0-0.7-0.3-0.7-0.7v-6.4c0-0.4-0.1-0.7-0.2-1c-0.3-0.7-0.8-1.2-1.5-1.5s-1.4-0.3-2.1,0
		c-0.3,0.1-0.6,0.3-0.9,0.6c-0.2,0.2-0.4,0.6-0.6,0.9c-0.1,0.3-0.2,0.7-0.2,1V20c0,0.2-0.1,0.4-0.2,0.5c-0.1,0.1-0.3,0.2-0.5,0.2
		c-0.4,0-0.7-0.3-0.7-0.7v-6.4c0-0.6,0.1-1.1,0.3-1.6s0.5-1,0.9-1.3c0.4-0.4,0.8-0.7,1.3-0.9c1-0.4,2.2-0.4,3.3,0
		c1,0.4,1.8,1.2,2.2,2.2c0.2,0.5,0.3,1.1,0.3,1.6V20c0,0.2-0.1,0.4-0.2,0.5C69.9,20.6,69.7,20.7,69.5,20.7z"/>
	<path class="st0" d="M76.6,20.7c-0.5,0-1.1-0.1-1.6-0.3c-0.5-0.2-0.9-0.4-1.3-0.8c-0.4-0.3-0.7-0.7-0.9-1.1
		c-0.2-0.4-0.3-0.9-0.3-1.4c0-0.4,0.3-0.7,0.7-0.7c0.4,0,0.7,0.3,0.7,0.7c0,0.3,0.1,0.6,0.2,0.8c0.1,0.3,0.3,0.5,0.6,0.7
		c0.3,0.2,0.5,0.4,0.8,0.5s0.7,0.2,1.1,0.2s0.7-0.1,1.1-0.2c0.3-0.1,0.6-0.3,0.9-0.5c0.2-0.2,0.4-0.4,0.6-0.7
		c0.1-0.2,0.2-0.5,0.2-0.8s-0.1-0.5-0.2-0.7c-0.2-0.2-0.4-0.5-0.6-0.6c-0.2-0.2-0.5-0.4-0.8-0.5s-0.6-0.2-1-0.3
		c-0.5,0-1-0.1-1.4-0.3c-0.4-0.1-0.8-0.3-1.2-0.6c-0.3-0.2-0.6-0.5-0.8-0.9c-0.2-0.3-0.3-0.7-0.3-1.1s0.1-0.8,0.3-1.2
		c0.2-0.4,0.5-0.7,0.8-0.9c0.3-0.3,0.8-0.5,1.2-0.6c1-0.3,2-0.3,3,0c0.5,0.2,0.9,0.4,1.2,0.6c0.4,0.3,0.6,0.6,0.8,0.9
		c0.2,0.4,0.3,0.8,0.3,1.2s-0.3,0.7-0.7,0.7c-0.2,0-0.4-0.1-0.5-0.2c-0.1-0.1-0.2-0.3-0.2-0.6c0-0.2-0.1-0.4-0.2-0.5
		c-0.1-0.2-0.3-0.3-0.5-0.4c-0.2-0.2-0.5-0.3-0.8-0.3c-0.3-0.1-0.6-0.1-0.9-0.1s-0.6,0-1,0.1c-0.3,0.1-0.5,0.2-0.8,0.3
		c-0.2,0.1-0.4,0.3-0.5,0.5s-0.2,0.4-0.2,0.5c0,0.2,0.1,0.3,0.2,0.5c0.2,0.2,0.4,0.3,0.6,0.4c0.2,0.1,0.5,0.2,0.8,0.3
		s0.5,0.1,0.8,0.2c0.5,0.1,1,0.2,1.5,0.4s0.9,0.4,1.3,0.7s0.6,0.6,0.8,1.1c0.2,0.4,0.3,0.9,0.3,1.3c0,0.5-0.1,1-0.3,1.4
		c-0.2,0.4-0.5,0.8-0.9,1.1C78.7,20.3,77.7,20.7,76.6,20.7z"/>
	<path class="st0" d="M84,20.7c-0.4,0-0.7-0.3-0.7-0.7v-9.9c0-0.2,0.1-0.4,0.2-0.5s0.3-0.2,0.5-0.2h6.1c0.4,0,0.7,0.3,0.7,0.7
		c0,0.2-0.1,0.4-0.2,0.5s-0.3,0.2-0.5,0.2h-5.3v3.5h3.8c0.4,0,0.7,0.3,0.7,0.7s-0.3,0.7-0.7,0.7h-3.8v3.5h5.3c0.4,0,0.7,0.3,0.7,0.7
		l0,0c0,0.2-0.1,0.4-0.2,0.5s-0.3,0.2-0.5,0.2L84,20.7z"/>
	<path class="st0" d="M100.4,20.7c-0.4,0-0.7-0.3-0.7-0.7v-6.4c0-0.4-0.1-0.7-0.2-1c-0.3-0.7-0.8-1.2-1.5-1.5s-1.4-0.3-2.1,0
		c-0.3,0.1-0.6,0.3-0.9,0.6c-0.2,0.2-0.4,0.6-0.6,0.9c-0.1,0.3-0.2,0.7-0.2,1V20c0,0.4-0.3,0.7-0.7,0.7c-0.4,0-0.7-0.3-0.7-0.7v-6.4
		c0-1.7,1-3.2,2.5-3.8c1-0.4,2.2-0.4,3.3,0c0.5,0.2,1,0.5,1.3,0.9c0.4,0.4,0.7,0.8,0.9,1.3c0.2,0.5,0.3,1.1,0.3,1.6V20
		C101.2,20.4,100.8,20.7,100.4,20.7z"/>
	<path class="st0" d="M107.6,20.7c-0.5,0-1.1-0.1-1.6-0.3c-0.5-0.2-0.9-0.4-1.3-0.8c-0.4-0.3-0.7-0.7-0.9-1.1
		c-0.2-0.4-0.3-0.9-0.3-1.4c0-0.2,0.1-0.4,0.2-0.5c0.3-0.3,0.7-0.3,1,0c0.1,0.1,0.2,0.3,0.2,0.5c0,0.3,0.1,0.6,0.2,0.8
		c0.1,0.3,0.3,0.5,0.6,0.7c0.2,0.2,0.5,0.4,0.8,0.5s0.7,0.2,1.1,0.2s0.7-0.1,1.1-0.2c0.3-0.1,0.6-0.3,0.9-0.5
		c0.2-0.2,0.4-0.4,0.6-0.7c0.1-0.2,0.2-0.5,0.2-0.8s-0.1-0.5-0.2-0.7c-0.2-0.2-0.4-0.5-0.6-0.6c-0.2-0.2-0.5-0.4-0.8-0.5
		s-0.6-0.2-1-0.3c-0.5,0-1-0.1-1.4-0.3c-0.4-0.1-0.8-0.3-1.2-0.6c-0.3-0.2-0.6-0.5-0.8-0.9c-0.2-0.3-0.3-0.7-0.3-1.1
		s0.1-0.8,0.3-1.2c0.2-0.4,0.5-0.7,0.8-0.9c0.4-0.3,0.8-0.5,1.2-0.6c1-0.3,2-0.3,3,0c0.5,0.2,0.9,0.4,1.2,0.6
		c0.3,0.2,0.6,0.6,0.8,0.9c0.2,0.4,0.3,0.8,0.3,1.2c0,0.2-0.1,0.4-0.2,0.5s-0.3,0.2-0.5,0.2s-0.4-0.1-0.5-0.2
		c-0.1-0.1-0.2-0.3-0.2-0.6c0-0.2-0.1-0.4-0.2-0.5c-0.1-0.2-0.3-0.3-0.5-0.4c-0.2-0.2-0.5-0.3-0.8-0.3c-0.3-0.1-0.6-0.1-0.9-0.1
		s-0.6,0-1,0.1c-0.3,0.1-0.5,0.2-0.8,0.3c-0.2,0.1-0.4,0.3-0.5,0.5s-0.2,0.4-0.2,0.5c0,0.2,0.1,0.3,0.2,0.5c0.2,0.2,0.4,0.3,0.6,0.4
		c0.2,0.1,0.5,0.2,0.8,0.3s0.5,0.1,0.8,0.2c0.5,0.1,1,0.2,1.5,0.4s0.9,0.4,1.3,0.7s0.6,0.6,0.8,1.1c0.2,0.4,0.3,0.9,0.3,1.3
		c0,0.5-0.1,1-0.3,1.4c-0.2,0.4-0.5,0.8-0.9,1.1C109.6,20.3,108.6,20.7,107.6,20.7z"/>
	<path class="st0" d="M118.6,20.7c-0.4,0-0.7-0.3-0.7-0.7v-3.7l-4.5-5.8c-0.1-0.2-0.2-0.3-0.2-0.5s0.1-0.4,0.3-0.5
		c0.1-0.1,0.3-0.2,0.5-0.2s0.4,0.1,0.6,0.3l4.1,5.3l4.2-5.3c0.1-0.2,0.3-0.2,0.5-0.3l0,0c0.2,0,0.4,0.1,0.5,0.2
		c0.2,0.1,0.2,0.3,0.3,0.5c0,0.2,0,0.4-0.2,0.5l-4.6,5.8V20c0,0.2-0.1,0.4-0.2,0.5C119,20.6,118.8,20.7,118.6,20.7z"/>
	<path class="st0" d="M129.5,20.7c-0.5,0-1.1-0.1-1.6-0.3c-0.5-0.2-0.9-0.4-1.3-0.8c-0.4-0.3-0.7-0.7-0.9-1.1
		c-0.2-0.4-0.3-0.9-0.3-1.4c0-0.4,0.3-0.7,0.7-0.7c0.2,0,0.4,0.1,0.5,0.2s0.2,0.3,0.2,0.5c0,0.3,0.1,0.6,0.2,0.8
		c0.1,0.3,0.3,0.5,0.6,0.7c0.2,0.2,0.5,0.4,0.8,0.5s0.7,0.2,1.1,0.2c0.4,0,0.7-0.1,1.1-0.2c0.3-0.1,0.6-0.3,0.9-0.5
		c0.2-0.2,0.4-0.4,0.6-0.7c0.1-0.2,0.2-0.5,0.2-0.8s-0.1-0.5-0.2-0.7c-0.2-0.2-0.4-0.5-0.6-0.6c-0.2-0.2-0.5-0.4-0.8-0.5
		s-0.6-0.2-1-0.3c-0.5,0-1-0.1-1.4-0.3c-0.4-0.1-0.8-0.3-1.2-0.6c-0.3-0.2-0.6-0.5-0.8-0.9c-0.2-0.3-0.3-0.7-0.3-1.1
		s0.1-0.8,0.3-1.2c0.2-0.4,0.5-0.7,0.8-0.9c0.4-0.3,0.8-0.5,1.2-0.6c1-0.3,2-0.3,3,0c0.4,0.1,0.8,0.3,1.2,0.6
		c0.3,0.2,0.6,0.6,0.8,0.9c0.2,0.4,0.3,0.8,0.3,1.2s-0.3,0.7-0.7,0.7c-0.2,0-0.4-0.1-0.5-0.2c-0.1-0.1-0.2-0.3-0.2-0.6
		c0-0.2-0.1-0.4-0.2-0.5c-0.1-0.2-0.3-0.3-0.5-0.4c-0.2-0.2-0.5-0.3-0.8-0.3c-0.3-0.1-0.6-0.1-0.9-0.1c-0.3,0-0.6,0-1,0.1
		c-0.3,0.1-0.5,0.2-0.8,0.3c-0.2,0.1-0.4,0.3-0.5,0.5s-0.2,0.4-0.2,0.5c0,0.2,0.1,0.3,0.2,0.5c0.2,0.2,0.4,0.3,0.6,0.4
		c0.2,0.1,0.5,0.2,0.8,0.3s0.5,0.1,0.8,0.2c0.5,0.1,1,0.2,1.5,0.4s0.9,0.4,1.3,0.7c0.4,0.3,0.6,0.6,0.8,1.1c0.2,0.4,0.3,0.9,0.3,1.3
		c0,0.5-0.1,1-0.3,1.4s-0.5,0.8-0.9,1.1C131.6,20.3,130.6,20.7,129.5,20.7z"/>
</g>
</svg>
