<?xml version="1.0" encoding="utf-8"?>
<!-- Generator: Adobe Illustrator 24.1.0, SVG Export Plug-In . SVG Version: 6.00 Build 0)  -->
<svg version="1.1" xmlns="http://www.w3.org/2000/svg" xmlns:xlink="http://www.w3.org/1999/xlink" x="0px" y="0px"
	 viewBox="0 0 1000 500" style="enable-background:new 0 0 1000 500;" xml:space="preserve">
<style type="text/css">
	.st0{fill:none;stroke:#F9006C;stroke-width:2;stroke-miterlimit:10;stroke-dasharray:11.97,11.97;}
	.st1{fill:none;stroke:#5000FF;stroke-width:2;stroke-miterlimit:10;stroke-dasharray:12.11,12.11;}
	.st2{fill:none;stroke:#5000FF;stroke-width:2;stroke-miterlimit:10;}
	.st3{fill:#15003E;}
	.st4{fill:#25E899;}
	.st5{fill:none;stroke:#25E899;stroke-width:2;stroke-miterlimit:10;}
	.st6{fill:none;stroke:#3E00FF;stroke-width:2;stroke-miterlimit:10;}
	.st7{fill:#3E00FF;}
	.st8{fill:none;stroke:#8E2ABE;stroke-width:2;stroke-miterlimit:10;}
	.st9{fill:#8E2ABE;}
	.st10{fill:none;stroke:#FFCE08;stroke-width:2;stroke-miterlimit:10;}
	.st11{fill:#FFCE08;}
	.st12{fill:#15013D;}
	.st13{fill:none;stroke:#F9006C;stroke-width:2;stroke-miterlimit:10;}
</style>
<g id="lines">
	<path id="line1" class="st0" d="M0,199c89.7,68,272.3,161.2,512.8,111.4c280.2-58,433.5-176,487.2-227.3"/>
	<path id="line2" class="st1" d="M0,294.3c49.3,46.2,253.1,207.4,545.1,113.8c278.5-89.3,419.6-69.1,454.9-62.5"/>
</g>
<g id="robots">
	<g>
		<path class="st2" d="M985.8,336.3c1.9,0.4,3.9,1,5.8,1.6"/>
		<polygon class="st3" points="835.8,287.2 838.9,296.9 846.1,306.5 853.2,312.2 862.3,317 873.7,320.4 879.8,321.6 881.9,327.7 
			883,339 882.7,346.1 870.8,343.5 856.9,339 848.7,334.1 845.4,337.6 842.7,338.9 832.3,332 833.9,326.1 829.8,323.5 823.5,317.5 
			818.2,308.4 813.2,297 815.5,292.5 818.6,289 824.2,286.3 832,286.1 		"/>
		<polyline class="st3" points="1000,394.4 1000,298.5 984.8,300.4 973.8,299.3 960.5,296 958.5,294.6 938.7,301.3 932.6,298.9 
			928.3,299.3 924.9,296.7 924.1,291.8 924.1,287.1 925.2,282.7 930,276.7 935,276.4 940.6,274.4 942.3,273.1 948.8,260.4 
			949.8,256 954,256.6 958.9,256 961.8,254.1 963.4,251.9 966,238.2 965.4,234.8 962.9,231.6 959.3,229.7 953.3,227.7 950.1,216.4 
			943.3,205.9 932,197.4 919.8,192.5 904.9,192.6 892.4,196.5 881.9,202.7 874.1,211.6 871.4,217.1 865.1,216.8 860.2,217.6 
			857.2,221.1 854.7,235.2 855.8,240 859,242 860.6,243.1 863.6,243.3 865.1,244.5 866.4,245.4 867.5,254.9 868.4,262.9 
			872.9,266.8 879.3,270.1 882.3,276.9 885.4,283.8 888.7,287.6 893.5,289.3 893.3,295.8 894.9,304.1 896.8,307.8 895.7,312.5 
			886.2,315 882.1,321.1 885.2,328.6 886.2,339.2 885.6,347.9 898.7,359.6 921.2,373.5 944.6,383.5 972.9,390.8 996.5,394.2 
			1000,394.4 		"/>
		<path class="st4" d="M1000,393.5c-5.2-0.3-73.3-5.1-113.5-46.3c0.5-2.9,2.2-16.5-3.6-25.9l3.6-5.4l8.7-2
			c2.2,1.3,13.5,7.1,28.5,1.2c6.5-2.5,10.3-5.7,11.4-9.5c0.4-1.4,0.4-2.9,0-4.4l3.4,1.3l20-6.8c2.3,4.1,14.4,23,41.4,28.1v-2
			c-28.9-5.6-39.9-27.5-40-27.8l-0.4-0.8l-20.9,7.1l-8.2-3.1l2,2.7c1,1.5,1.2,3.3,0.8,5c-0.9,3.1-4.4,6-10.2,8.2
			c-15.4,6-27-1.2-27.1-1.2l-0.4-0.2l-10.3,2.4l-4.7,7.2l0.4,0.5c6.3,9.7,3.6,25.4,3.6,25.5l-0.1,0.5l0.4,0.4
			c41,42.3,110.9,47,115.3,47.2V393.5z"/>
		<path class="st5" d="M866.3,245.1l-6-1.8c-3.8-1.1-6.2-4.9-5.5-8.8l1.9-11.2c0.6-3.8,3.9-6.6,7.7-6.6h7.2"/>
		<path class="st5" d="M906.4,192.7c-53.6,7.8-37.8,70.6-37.8,70.6c3,3,6.6,5.2,10.6,6.4l5.6,13.1c1.4,3.3,4.4,5.8,8,6.5l8.6,1.7
			l1.2,0.1l8.7,0.8c3.6,0.3,7.2-1.1,9.5-3.9l9.1-10.9c4.2,0,8.3-1.1,12-3.1c0,0,34.2-56.8-15.1-79.1
			C926.8,194.8,918.9,190.9,906.4,192.7z"/>
		<path class="st5" d="M949.5,256.4l6.3,0.3c4,0.2,7.5-2.6,8.1-6.5l1.9-11.2c0.6-3.8-1.5-7.5-5.2-8.7l-7.5-2.6"/>
		<path class="st5" d="M958.7,229.8c0,0,5.2-48.1-39.1-50.8s-53.8,37.4-53.8,37.4"/>
		<path class="st5" d="M922.9,259.3l-33.9-5.9c-6.1-1.1-8.6-7.2-9-13.4l-0.1-6.7c1.1-6.2,7-10.3,13.2-9.2l36.7,6.9
			c6.2,1.2,10.2,7.2,9,13.4l-2.7,5.8C932.8,255.8,929,260.5,922.9,259.3z"/>
		<path class="st5" d="M893.5,289.3c0,0-1.6,11.8,3.3,18.2l-1.3,5.3"/>
		<path class="st5" d="M924.8,282.9c0,0-2.5,13.2,1.9,15.5s5.8,0.4,5.8,0.4"/>
		<path class="st5" d="M848.7,334.4c10.7,7.1,33.9,12,33.9,12c1.5-15.7-2.7-24.7-2.7-24.7c-41.4-6.3-44.2-34.7-44.2-34.7
			s-17.5-5.7-22.5,10.5c0,0,6.1,20,20.8,29.2"/>
		<path class="st5" d="M854.2,327.1c0,0-5.2,8.8-11.2,11.9l-10.7-7c0,0,3-8,2.9-13.4c0,0,4.7-1.2,7.7,2l-0.1,4.1l3.1,1.5
			c1.3-0.9,2.2-2.1,2.7-3.6C848.5,322.7,853.2,323.6,854.2,327.1z"/>
		<path class="st4" d="M1000,297.7c-13.4,2.8-27.3,1.6-40-3.4l-0.8,1.8c8.5,3.4,17.6,5.2,26.8,5.1c4.7,0,9.4-0.5,14-1.4V297.7z"/>
		<path class="st5" d="M979.7,300c0,0,5.2,8.8,2.2,16"/>
		<path class="st5" d="M995,299.9c0,0,6.8,10.5,0.8,21.6"/>
		<path class="st5" d="M949.8,332.8c2.5,3.3,1.7,8-1.6,10.5c-2.5,1.9-5.9,1.9-8.5,0.2"/>
		<path class="st5" d="M937.9,341.9c-2.6-3.2-2.1-7.9,1.1-10.5c2.6-2.1,6.1-2.2,8.9-0.4"/>
		<circle class="st5" cx="943.8" cy="337.1" r="3"/>
		<path class="st5" d="M938,343.4c0,0-13,14.8-10.9,32.7"/>
		<path class="st5" d="M949.8,331.1c0,0,11.8-14,31.1-15.5"/>
		<path class="st5" d="M893.2,294.4c0,0,16.7,7.7,31.1-2.2"/>
		<path class="st5" d="M894.2,301.9c0,0,17.7,6.2,31.5-4.8"/>
		<path class="st5" d="M896.6,307.8c0,0,19.5,7.5,33.8-8.2"/>
		<path class="st4" d="M897.5,273.1c1.5,1.1,3.3,1.9,5.2,2.3c1.8,0.4,3.7,0.2,5.5-0.3c1.7-0.7,3.3-1.6,4.7-2.9
			c0.7-0.6,1.3-1.3,1.9-2l1.6-2.2l1.6,1.2l-2,2.2c-0.8,0.7-1.5,1.4-2.2,2c-1.6,1.2-3.4,2.1-5.3,2.7c-1.9,0.4-4,0.4-5.9-0.2
			C900.6,275.4,898.9,274.4,897.5,273.1z"/>
		<path class="st4" d="M913.5,266.7c0.8-0.2,1.7-0.2,2.5,0.1c0.8,0.3,1.6,0.8,2.2,1.4c0.6,0.6,1,1.4,1.2,2.3
			c0.2,0.8,0.2,1.7-0.1,2.5c-0.5-0.7-0.9-1.3-1.3-1.9c-0.4-0.5-0.8-1-1.2-1.5C915.8,268.5,914.7,267.6,913.5,266.7z"/>
		<path class="st5" d="M817.5,307.9c0,0,4.7-11.7,20.8-12.2"/>
		<path class="st5" d="M826.5,320.5c0,0,1-12.5,16.3-17.9"/>
		<path class="st5" d="M867.2,342.3c0,0-6.4-10.7,2.6-22.7"/>
		<path class="st5" d="M844.2,325.3c0,0,3.2-8.5,9.3-12.7"/>
		<path class="st5" d="M900.6,193.9l3.7,14.3c0.7,2.6,2.4,4.8,4.7,6.1l0,0c1.9,1.1,4.2,1.5,6.4,1.1l1.1-0.2c2.4-0.4,4.6-1.6,6.1-3.5
			l10.9-13.3"/>
		<path class="st5" d="M949.6,346.1l2.8-2.9c0.3-0.3,0.8-0.3,1.1,0c0.1,0.1,0.2,0.2,0.2,0.3l1.2,3.6c0.1,0.4-0.1,0.9-0.5,1
			c-0.1,0-0.2,0-0.3,0l-4-0.7c-0.4-0.1-0.7-0.5-0.6-0.9C949.4,346.3,949.5,346.2,949.6,346.1z"/>
		<path class="st5" d="M937.7,328.7l-2.8,2.8c-0.3,0.3-0.8,0.3-1.1,0c-0.1-0.1-0.2-0.2-0.2-0.3l-1.1-3.6c-0.1-0.4,0.1-0.8,0.5-1
			c0.1,0,0.3,0,0.4,0l4,0.8c0.4,0.1,0.7,0.5,0.6,1C937.8,328.5,937.8,328.6,937.7,328.7z"/>
		<circle class="st5" cx="841.5" cy="330.7" r="1.8"/>
		<circle class="st5" cx="938.7" cy="342.6" r="1.2"/>
		<circle class="st5" cx="948.9" cy="331.9" r="1.2"/>
		<path class="st5" d="M923.5,256.1c-0.4,0-0.9,0-1.3-0.1l-31.3-5.5c-5.3-1-6.5-7.1-6.8-10.6l-0.1-6c0.8-4,4.4-7,8.5-7
			c0.5,0,1,0.1,1.5,0.2l34,6.4c4.6,0.9,7.7,5.4,6.9,10l-2.4,5C929.2,253.8,926.6,256.1,923.5,256.1z"/>
		<path class="st5" d="M956.6,229c0,0,3.8,17.3-3.8,27.4"/>
		<path class="st5" d="M867.8,216.6c0,0-8,12.8-4.8,27.3"/>
		<g id="hand">
			<polygon class="st3" points="834.1,278.6 825.6,277.8 817.3,279.7 810.4,284.1 805.9,288.6 805.1,290.7 789.7,270.7 784.7,258 
				790,254.6 799,264.4 803.3,269.9 807.2,267.5 804.5,256 802.8,242 809.5,239.9 815.5,254.5 818.6,264.3 822.6,264.1 824.5,255.6 
				825.3,245.7 833,246 835.1,258.6 			"/>
			<path class="st5" d="M804.7,291c0,0,7.7-16.3,29.5-12.3l0.8-20.4l-1.5-12.4l-8.3-0.3l-0.7,10.2l-1.8,8.6l-4.4,0.3l-2.9-10.2
				l-6-14.4l-6.8,2l2.1,14.6l2.9,10.9l-4.8,2.8l-4.3-6.7l-8.5-9.2l-5.7,3.4l5.2,12.9L804.7,291z"/>
			<line class="st5" x1="804.9" y1="256.7" x2="815" y2="254.4"/>
			<line class="st5" x1="824.7" y1="255.9" x2="835" y2="258.3"/>
			<line class="st5" x1="798.2" y1="263.6" x2="789.8" y2="270.6"/>
		</g>
	</g>
	<g id="meet">
		<path class="st3" d="M699.6,300c0,0,21.6,19,0.8,39.7l-0.7,10.3l2.3,14.1c0,0,35.3-9.1,30.4-51.8c0,0-2.5-21.7-16.3-39.5l-15.6,8
			L699.6,300z"/>
		<path class="st3" d="M686.3,260.2c0,0,26.6-36.2,50.2-48.6l-4-11.1l-3.2-5.7c0,0-48.3-12.6-75.1-7.2c0,0-10.9,11.6-10,13.2
			l-2.8-5.8l-2.5-0.5l-1.7,1.6l0.4,16.5l1.1,2.1c0,0-7.5,20.4-7.3,39.7"/>
		<path class="st3" d="M696.6,322.6c-1.2-4.7,3.3-31.6,10-38.6c3.5-3.6,6.9-7.3,10-11.2l-10.9-6.7l-18.6-5.8l-54.9-7.2l-14.1,4.6
			l-21.5,9.3l-16.5,10l-10.6,9l-4.2,5l-6.4,16.1l-5.3,15.4l-2.2,16.8l0.4,13l2.8,10l4.9,9l8.1,8.3l10.5,5.3l14,2l18.8-0.5l4.7,11.1
			l9.5,19.5l14.7,1.3l19,0.1l17.3-1.6l13-2.5l14.1-4.9l13.6-7.5l-2.8-15.2C708.1,364.9,697.5,326,696.6,322.6z M599.4,359.9
			c-1.1,2.4-10.5-1.3-11.5-2c-3.2-2.1-4.8-5.7-5.2-9.4c-0.4-2.7-0.3-5.4,0.4-8c0.2-1.2,0.4-2.3,0.7-3.4c0.2-0.7,0.5-1.5,0.7-2.2
			c0.2-1.6,0.5-3.2,1-4.7c0.9-2.6,2.4-4.9,3.2-7.5c0.1-0.2,0.2-0.4,0.5-0.4l0.1-0.2c0.3-0.6,1.2-0.1,0.9,0.5v0c0,0.1,0,0.1,0,0.2
			c-0.2,3.4,1.1,6.3,1.9,9.6c0.7,2.9,1.1,5.9,2,8.8c1.7,6,3.7,12.1,6,17.9C600,359.6,599.8,359.8,599.4,359.9z"/>
		<path class="st6" d="M627.5,380.8c-31.2,14-54.5,1.8-54.5,1.8c-45.2-23.5-6.1-93.6-6.1-93.6s22.4-6.3,28.7,20.1
			c0,0-27.6,46.1-2.5,50.6c0,0,9.5,2.7,21.2-4.3"/>
		<path class="st6" d="M625.1,337.7c0,0-19.6,13.5-7.3,33.5s34.7,9.6,34.7,9.6l-8.3-15.3c0,0-11.2,4.4-14.2-3.7s4.7-11.9,4.7-11.9
			L625.1,337.7z"/>
		<path class="st6" d="M681.9,374.6c0,0,20.6,1,22.7-19.3s-18.9-24.9-18.9-24.9l-2.3,15c0,0,10,2.9,7.9,10s-9.5,5.8-9.5,5.8
			L681.9,374.6z"/>
		<path class="st6" d="M638.6,214.1c-3.7,10.7-6.8,25.3-7.7,44.9"/>
		<path class="st6" d="M630.8,258.7l11.1,8l5.8,10.9l26.8,0.7c0,0,25.3-44.8,62.4-67l-7.1-15.9c0,0-47-12.9-75.5-7.6
			c0,0-4.6,3.3-9.8,12.8"/>
		<path class="st6" d="M736.4,211.2c0,0-38.1-8.8-69.8-8.2"/>
		<path class="st6" d="M641.8,266.7l6.6-24.3l-4.5-14.4c0,0,4.4-20.5,13.4-27l1.3,2.9"/>
		<ellipse transform="matrix(0.5 -0.866 0.866 0.5 109.9411 702.5258)" class="st6" cx="663.4" cy="256.1" rx="6.3" ry="4.1"/>
		<path class="st6" d="M702.5,364.1c0,0,30.5-6.6,30.5-47c0,0,0-19.5-16.5-44.1c0,0-10.5,4.6-16.8,26.8c0,0,21.7,21.4,0.5,39.7"/>
		<path class="st6" d="M699.7,300.4c-4.4,12.4-3.9,26,1.3,38.1"/>
		<path class="st6" d="M686.3,260.4c0,0,16.5,2.7,30.2,12.4"/>
		<path class="st6" d="M610.3,386.1c4.1,9.4,9,19.7,14.9,31.1c0,0,58.6,8.2,90.9-15.4c0,0-1.4-21.5-9.8-38.8"/>
		<path class="st6" d="M590,320.4c0,0,0.8,13.2,10.1,39.8"/>
		<path class="st6" d="M557.6,310c0,0,20.5-6.3,31.7,10.9"/>
		<path class="st6" d="M584,335c0,0-20.7-7.7-32.7,6.7"/>
		<path class="st6" d="M583.7,353.1c0,0-14,4.5-17.2,25"/>
		<path class="st6" d="M597,360.4c0,0-7.7,13.6,4,27"/>
		<path class="st6" d="M707.1,310.7c0,0,5.2-16.1,20-17.4"/>
		<path class="st6" d="M709.7,322.9c6.7-4.6,15.3-5.8,23-3.2"/>
		<path class="st6" d="M706.6,332.5c0,0,14.5,0.9,19,13.3"/>
		<polyline class="st6" points="642.4,418.7 650.7,401 691.8,394.2 704.7,408.2 		"/>
		<path class="st6" d="M631.1,253.4c0,0-43.4,12.2-63.7,35.3"/>
		<line class="st6" x1="731.1" y1="210.2" x2="725.5" y2="194.3"/>
		<path class="st6" d="M592.9,269.4c0,0,14.8,6.1,18.8,16.2l11.3-7.5c-2.5-6.9-7.1-12.8-13.1-17"/>
		<path class="st6" d="M695,262.8c0,0-1.8,10.1-7.1,13.6l8.1,4.3c0,0,9.8-7.2,9.2-14.2"/>
		<path class="st7" d="M669.5,220.7c0.2-0.9,0.6-1.7,1.2-2.4c0.6-0.7,1.4-1.3,2.3-1.6c1-0.3,2-0.3,3,0.1c0.9,0.4,1.6,1.1,2,1.9
			c-0.8-0.2-1.6-0.3-2.4-0.4c-0.7,0-1.4,0.1-2,0.3C672.2,219.2,670.8,219.9,669.5,220.7z"/>
		<path class="st7" d="M699.1,222.9c0.6-0.2,1.4-0.2,2,0c0.7,0.2,1.3,0.7,1.8,1.3c0.5,0.6,0.7,1.5,0.5,2.3c-0.1,0.7-0.6,1.4-1.2,1.8
			c-0.1-0.6-0.2-1.2-0.4-1.7c-0.1-0.4-0.3-0.8-0.6-1.1c-0.3-0.4-0.6-0.8-0.9-1.1C700,223.9,699.6,223.5,699.1,222.9z"/>
		<line class="st6" x1="595.6" y1="309.1" x2="602.8" y2="313.6"/>
		<path class="st6" d="M674.9,222.6l0.3,0.1c0.9,0.4,1.4,1.4,1,2.4l-2.8,7c-0.4,0.9-1.4,1.4-2.4,1l-0.3-0.1c-0.9-0.4-1.4-1.4-1-2.4
			l2.8-7C672.9,222.7,673.9,222.2,674.9,222.6z"/>
		<path class="st6" d="M697.8,226.8l0.3,0.2c0.7,0.4,0.9,1.4,0.5,2.1l-3.4,5.4c-0.4,0.7-1.4,0.9-2.1,0.5l-0.3-0.2
			c-0.7-0.4-0.9-1.4-0.5-2.1l3.4-5.4C696.2,226.6,697.1,226.4,697.8,226.8z"/>
		<polyline class="st6" points="710.9,374.9 703.7,386 714.5,390.5 		"/>
		<polyline class="st6" points="613.7,393.4 625.7,398.2 621.2,408.4 		"/>
		<path class="st7" d="M675.6,315.7c0.4-0.9,0.9-1.8,1.4-2.5c0.6-0.8,1.2-1.5,1.8-2.1c0.7-0.7,1.4-1.3,2.1-1.8
			c0.8-0.6,1.6-1.1,2.5-1.4c-0.4,0.9-0.9,1.8-1.4,2.5c-1.1,1.5-2.5,2.9-4,4C677.3,314.9,676.5,315.3,675.6,315.7z"/>
		<path class="st7" d="M638.1,320.2c-0.9-0.4-1.8-0.8-2.5-1.4c-1.5-1.1-2.9-2.5-4-4c-0.6-0.8-1.1-1.6-1.4-2.5
			c0.9,0.4,1.8,0.9,2.5,1.4c1.5,1.1,2.9,2.5,4,4C637.2,318.5,637.7,319.3,638.1,320.2z"/>
		<path class="st7" d="M679.8,324.4c0.7-0.7,1.5-1.3,2.3-1.8c0.8-0.5,1.7-0.9,2.5-1.2c0.9-0.4,1.8-0.6,2.7-0.9
			c0.9-0.2,1.9-0.3,2.9-0.3c-0.7,0.7-1.5,1.3-2.3,1.8c-1.6,1-3.4,1.7-5.2,2.1C681.8,324.3,680.8,324.5,679.8,324.4z"/>
		<path class="st7" d="M622.3,330.1c0.9-0.4,1.8-0.7,2.8-0.8c1.9-0.3,3.8-0.4,5.6-0.1c1,0.1,1.9,0.4,2.8,0.7
			c-0.9,0.4-1.8,0.7-2.8,0.8c-1.9,0.3-3.8,0.3-5.6,0.1C624.2,330.8,623.2,330.5,622.3,330.1z"/>
		<path class="st7" d="M664.9,307.9c-0.1-1-0.1-1.9,0.1-2.9c0.1-0.9,0.3-1.9,0.6-2.8c0.3-0.9,0.6-1.8,1-2.6c0.4-0.9,1-1.7,1.6-2.5
			c0.1,1,0.1,2-0.1,2.9c-0.3,1.9-0.8,3.7-1.7,5.4C666,306.3,665.5,307.1,664.9,307.9z"/>
		<path class="st7" d="M654.2,300.9c-0.4-0.9-0.8-1.8-1-2.8c-0.4-1.8-0.6-3.7-0.4-5.6c0.1-1,0.3-1.9,0.6-2.9c0.5,0.9,0.8,1.8,1,2.8
			c0.2,0.9,0.4,1.9,0.4,2.8c0.1,0.9,0.1,1.9,0,2.8C654.7,299,654.5,300,654.2,300.9z"/>
		<path class="st7" d="M646.5,309.7c-0.8-0.5-1.6-1.1-2.3-1.8c-0.7-0.7-1.3-1.4-1.8-2.2c-0.6-0.8-1-1.6-1.5-2.4
			c-0.4-0.9-0.8-1.8-1-2.8c0.8,0.5,1.6,1.1,2.3,1.8c0.7,0.7,1.3,1.4,1.8,2.2c0.6,0.8,1.1,1.6,1.5,2.4
			C646,307.8,646.3,308.8,646.5,309.7z"/>
		<path class="st6" d="M637.9,213l-0.7-15.8c-0.1-1.4,1-2.5,2.4-2.6c0.9,0,1.8,0.5,2.3,1.3l5,9.5c0.2,0.4,0.2,0.9,0,1.4l-4.4,8.3
			c-0.4,0.7-1.3,1-2,0.6c-0.1-0.1-0.2-0.1-0.3-0.2l-1.8-1.5C638.1,213.7,638,213.4,637.9,213z"/>
		<g id="eth">
			<path class="st6" d="M663.1,357.5l-21.2-22.7l12.8-28.3l21.2,22.7L663.1,357.5z"/>
			<path class="st6" d="M641.8,334.7l18.4,5.7l15.6-11.3 M654.7,306.4l8.4,51.1"/>
		</g>
	</g>
	<g id="network">
		<path class="st3" d="M163.7,320.6c0,0-23.7,60.7-34.7,65s-38.2-24.7-38.2-24.7L79,346.1c0,0-12.6,20.4-5.2,42.5l7,3.5l4.8,6
			l-10.5,4.9l-5.6-4.1l-5,2l-1.5,4.2l0.2,3.5l-9.5,3.1l-1-7.7l1.3-5.9l3-4.3l-2.2-9.3l-0.7-10l1.2-10.8l3.9-13l5.9-11.5l5.7-7.9
			l-1.8-2l-2.8-6.1l-0.4-9.9l1.7-6.2l2.7-4.9l4.8-3.6l4.3,1.2l4.3,5.5L88,308l4.7,2.1l4.6,2.3l5.3,1.4l5.1,1l-3-3.9
			c0,0-2.9-7.8-2.9-9s0.2-12.6,4-19l-6-9.5l-4.4-11l-2.8-11.6l0.3-9.9l1.8-10.1l3.6-11.2l5-9.4l6.5-8.1L120,195l14.2-2.8l12.3,1
			l2-6.4l2.4-0.7l2.4,0.1l2.7,0.6l1.7,1.4l1,9.7l6.5,5l4.6,9.1l2.1,10.6l-1,16.2l4.5,5.8l0.8,2.2l-8.6,9.7l-2.9-1.1l-8.6,14.4
			l-8.3,11.9l-9.1,9.1l-8.6,4.7l-2.7,1.4l-1.9,9l1.7,4.6l1.8,3.9l3.4,0.7l13.6-3.6l8.8-4.8l3.4-1.5l3.7,1.9l1.7,5.2L163.7,320.6z"/>
		<path class="st8" d="M195.2,369.5c0,0-7.5-2-8.6-11.8"/>
		<path class="st3" d="M150,353c-0.2-0.1-0.4-0.1-0.5,0l-1.3-0.9l8.4-17.6l5.3,10.8l6.4,9.1l3.8,1.6c0.5,0.4,1.1,0.7,1.6,1.1
			c0.5,0.4,1.1,0.6,1.7,0.7c0.2,0,0.4-0.1,0.4-0.2l3.3,1.4l11.8-3l-1.6-8l1.6-8.1l9.6,4.3l0.7,2.8l-0.7,3.3l1.9,3.6l5,1.2l3.9-3.2
			l8.1,5.6l-1.3,2.7l-7.8,4.8l-7.6,0.1l-5.9,4l-10.9,3.3l-9.6,0.1l-11-3.5l-7.1-6l-6.5-8.5l-1.2-0.8
			C150.4,353.4,150.2,353.2,150,353z"/>
		<path class="st8" d="M146.6,192.8l1.7-6.2c3.2-1.3,6.8-0.9,9.6,1.2l0.3,9.4"/>
		<path class="st8" d="M219.9,357.9c0,0-9.1,13-22.5,4.7s-6.2-23.3-6.2-23.3l10.2,5.7c0,0-3,7.5,2.4,9.5s8-3.1,8-3.1L219.9,357.9z"
			/>
		<path class="st8" d="M54,411.1c0,0-5.6-14.9,8.8-21.2s22.7,8,22.7,8l-10.5,5.3c0,0-4.5-6.7-9.2-3.4s-2,8.4-2,8.4L54,411.1z"/>
		<path class="st8" d="M176,247.3l-7.4,8.4c-0.5,0.6-1.5,0.7-2.1,0.3c-4.7-3.2-22.8-14.4-44.6-14.9c-0.8,0-1.5-0.7-1.6-1.5
			c-0.4-3.5-1-12.6,1.1-18.2c0.2-0.7,0.9-1.1,1.7-1.1c6.8,0.5,41.7,4,53.1,25.1C176.5,246.1,176.4,246.8,176,247.3z"/>
		<path class="st8" d="M169.4,244.1c-9.9-12.6-30.8-16.9-41.3-18.3c-1.5-0.2-2.8,0.8-3,2.3c0,0,0,0.1,0,0.1
			c-0.2,1.9-0.2,3.8-0.2,5.6c0,1.4,1.1,2.5,2.4,2.6c16.4,1.6,30.2,8.4,37.6,12.7c1.1,0.7,2.5,0.4,3.4-0.5l1-1.2
			C170.1,246.5,170.2,245.1,169.4,244.1z"/>
		<path class="st8" d="M170.5,238c0,0,11-45-32.2-45.9s-45.4,51.4-45.4,51.4s-2.8,27,22,48.6c22.8,19.9,50.1-37.3,50.1-37.3"/>
		<path class="st9" d="M144.2,273.1c-0.2,1.4-1,2.6-2.2,3.4c-1.4,0.7-3,0.8-4.4,0.1c-0.3-0.1-0.7-0.3-1-0.5
			c-0.3-0.2-0.6-0.4-0.9-0.7c-0.6-0.5-1-1.1-1.3-1.8c-0.5-1.3-0.3-2.9,0.6-4c-0.3,2.3,1.1,4.4,3.3,5.2c0.9,0.5,1.9,0.6,2.9,0.3
			C142.4,274.6,143.5,274,144.2,273.1z"/>
		<path class="st8" d="M153.2,185.9c0,0-14.6-48.5-59.5,14.5c-19.2,26.9-27.9,8.4-27.9,8.4"/>
		<path class="st8" d="M70.4,331.1c0,0,3.4-1.5,7.2,3.1s2.4,10.6,2.4,10.6s-14.3,20.2-6,44.6"/>
		<path class="st8" d="M70.8,331c0,0-24.5,29.6-13.4,62.7"/>
		<path class="st8" d="M79.2,346.5c0,0,26.4,37.1,47.7,39.5c11.3,1.3,36.1-64.4,36.1-64.4s4-14.7-3.8-16.4
			c-5.9-1.2-7.5,8.4-36.9,10.9c0,0-28.2,0.6-40.9-14.8c-4.9-5.9-8.9-2.9-11.7,1.2c-3.1,4.7-4.4,10.3-3.8,15.9
			c0.5,4.9,1.3,9.6,5.3,12.4"/>
		<path class="st8" d="M85.4,354.2c0,0,13.2-14.3-0.5-27C76.7,319.4,68,328,68,328"/>
		<path class="st8" d="M134.5,334l-4.7,13.7c-0.4,1.2-1.7,1.9-3,1.5c-0.2-0.1-0.3-0.1-0.4-0.2c-3.7-2.2-10.2-7.1-12.8-15.5
			c-0.4-1.2,0.3-2.5,1.6-2.9c0,0,0.1,0,0.1,0c3.6-0.9,10.9-2.1,17.8,0.5C134.3,331.5,134.9,332.8,134.5,334z"/>
		<path class="st8" d="M190.6,355.5c0,0-20.2,15.5-33.2-20.1"/>
		<path class="st8" d="M203.4,365c0,0-31.4,24.5-53.2-12.7"/>
		<path class="st8" d="M128.4,296c0,0-7.3,11.6,2.4,19.1"/>
		<path class="st8" d="M106,283.1c0,0-10.3,19.5,1.5,31.5"/>
		
			<ellipse transform="matrix(0.1719 -0.9851 0.9851 0.1719 -138.4942 294.3697)" class="st8" cx="105.9" cy="229.6" rx="5" ry="2.8"/>
		<path class="st8" d="M77.1,349.8c0,0,0.8-10.5-10.6-13"/>
		<path class="st8" d="M74.4,356.7c0,0-2.7-10.2-13.5-9.2"/>
		<path class="st8" d="M72,365.6c0,0-3.7-9.8-15.2-7.1"/>
		<path class="st8" d="M71.3,375.6c0,0-2.3-8.6-16.7-5.2"/>
		<path class="st8" d="M72.4,385.1c0,0-7.8-7.7-17.6,0.5"/>
		<path class="st8" d="M182.8,372.7c0,0-8.4-5.1-4.7-13.8"/>
		<path class="st8" d="M164.4,367.7c0,0-4.5-5.9,4.1-13.9"/>
		<path class="st8" d="M160.4,342.9c-4.7,3.1-7.5,8.5-7.1,14.1"/>
		<ellipse class="st8" cx="129.6" cy="354.6" rx="1.6" ry="1.6"/>
		<circle class="st8" cx="108.4" cy="329.1" r="1.8"/>
		<circle class="st8" cx="138.3" cy="328.9" r="1.8"/>
		<path class="st8" d="M119.4,343c0,0-25.9,2.5-24.7,21.5"/>
		<path class="st8" d="M132.1,342.4c0,0,11.8,0.3,19.2,7.4"/>
		<path class="st8" d="M119.8,230.1c0,0-8.1-1.5-11.2-0.1"/>
		<path class="st8" d="M103,230.4c0,0-6.4,1.4-8.7,3.4"/>
		<path class="st8" d="M126.5,301.1c0,0-15.8,2.7-23.5-10.1"/>
		<path class="st8" d="M126.2,309.1c0,0-13.5,4.3-23.8-3.4"/>
		<path class="st3" d="M66.5,209.3c0-0.3-0.1-0.5-0.4-0.6c-1-0.2-2.1-0.4-3.1-0.4c-0.3-0.1-0.7-0.2-1.1-0.2
			c-0.4-0.3-0.8-0.5-1.2-0.7c-1-1.4-1.3-3.2-0.7-4.8c0.7-2,2.5-3.5,4.7-3.7c2.1-0.1,4,0.9,5.1,2.6c0.6,1.1,0.5,2.4-0.3,3.3
			c0,1.7-0.9,3.2-2.3,4.1C66.9,209.2,66.7,209.3,66.5,209.3z"/>
		<polygon class="st3" points="64.9,204.6 64.9,204.6 64.9,204.6 		"/>
		<circle class="st8" cx="65" cy="204.1" r="5"/>
		<g id="planet">
			<circle class="st3" cx="224.8" cy="309.6" r="31.7"/>
			<circle class="st8" cx="224.5" cy="309.7" r="32"/>
			<path class="st8" d="M251.1,291.7c0,0-4,20.1-10.2,10.2s-9.3,8.8-9.3,8.8s-6,18.5-26.7-25.8"/>
			<path class="st8" d="M226.3,342.1c0,0,0.4-23.3-6-19.6s-17.3,2.8-17-5.1s-9.3,1.1-9.3,1.1"/>
			<path class="st8" d="M254.8,319.9c0,0-11.6-4.3-11.1,2.6s4.4,6-3.9,15.2"/>
		</g>
	</g>
	<g id="learn">
		<path class="st3" d="M384.3,384.4c0,0-5,32.3-37.5,31.3L339,414l6.1-10.5l3.2,1l7.2-1.4l8.3-6.8l5.8-8.3l3.4-10.1l0.8-12"/>
		<polyline class="st3" points="346.2,404.4 339.2,398.2 337.6,394.2 343.9,388.1 359.7,390.5 366.6,352.7 369.4,353.4 371.1,344.1 
			298.6,331.2 296,344.4 302,350.5 296.5,379.2 321.6,384.1 322.2,387.9 325.1,392.6 326.6,394 327.6,398.4 329.3,402.8 
			331.4,406.6 334.7,410 337.4,412.5 341.9,415.1 		"/>
		<path class="st3" d="M477.2,396.4c0,0-4.6-19.6-28.2-33.8l1.4-13c0,0,29,14.6,35,34.7s-2,16.3-2,16.3L477.2,396.4z"/>
		<path class="st3" d="M478.7,395.4c0,0-4.3,3.9-1.8,10.5l-8.9,3.1l-9.7,8.4l12.2-0.3l36.7-15.3l-2.3-5.9l-9.9,2.4
			c0,0-2.7-6.1-8.5-6.3"/>
		<path class="st3" d="M444.7,439.6c0,0,2.4-22.7-4.7-44.2l5.1-15.1l4-21.2l0.7-8.9l-1.9-3.5l-11.9-2.3l-17.8-0.3l-15,3.2l-15.8,5.8
			l-13.1,8.1l-1.1,3.1l5.9,12.4l8.9,13.4l11.9,12l7.4,5.4l1.1,2.7l6.1,11.2l3.8,10l1.8,10.8"/>
		<path class="st10" d="M373.9,366c4.2,9.9,18.5,37.9,48.1,49.5c1.6,0.6,3.4,0.3,4.8-0.8c5.5-4.8,19.2-20.7,23-63.5
			c0.2-2.4-1.3-4.6-3.7-5.1c-10.7-2.4-41.1-6.6-70.6,14.1C373.7,361.6,373,364,373.9,366z"/>
		<path class="st10" d="M388.8,352.6c0,0,13.3,18.3,22.6,19.5s11.7-28,11.7-28"/>
		<path class="st10" d="M448.8,362.8c0,0,22.3,11.7,28.5,34.1"/>
		<path class="st10" d="M449.9,349.5c0,0,32.6,14.6,37.6,42.6"/>
		<path class="st10" d="M489.9,401.1c-5.9-4.1-3.6,5.8-3.6,5.8l-8.8,1.6c0,0-5-12.8,5.1-15.7s12,6.2,12,6.2"/>
		<path class="st10" d="M460.3,355.6c0,0,3.3,8.3-2.7,13.1"/>
		<path class="st10" d="M472.6,365.5c0,0,3.9,9.1-5.4,13"/>
		<path class="st10" d="M482.6,378.1c0,0-0.4,9.2-9,9.9"/>
		<polyline class="st10" points="321.9,383.9 296.5,379.4 303.4,340 366.8,351.2 359.8,390.6 334.7,386.1 		"/>
		<path class="st10" d="M344,387.7c0,0-5,10.5-15.4,6.5c-10.8-4.1-5.6-16.6-5.3-18.7l11.4,2.8c0,0-2.6,8.2,0.7,8"/>
		<path class="st10" d="M337.6,394c0,0,5.1,18.2,22,5.9s14-34.8,14-34.8"/>
		<path class="st10" d="M326.1,393.1c0,0,4.9,30,31.6,21.9c6.1-1.8,11.7-5.1,16.1-9.8c5.5-5.8,9.1-13,10.4-20.9"/>
		<path class="st10" d="M406.4,407.2c0,0,12.4,16.1,14.2,35.4"/>
		<path class="st10" d="M440.1,395c0,0,6.3,18.7,4.9,45.3"/>
		<path class="st10" d="M415,422.3c0,0,16,5.9,29-5.8"/>
		<path class="st10" d="M419.4,435.5c0,0,14.1,5.6,25.8-5.5"/>
		<path class="st10" d="M328.8,401.8c0,0,5.7,3.8,11.5-2.7"/>
		<path class="st10" d="M342.7,415.3c0,0,7.1-3,4.5-11.3"/>
		<path class="st10" d="M357.8,401.4c0,0,6.6,5.2,3.8,12.2"/>
		<path class="st10" d="M366.3,393.2c0,0,7.1,0.9,9.7,9.4"/>
		<path class="st10" d="M372.3,382.1c4.8,0.9,8.8,4.3,10.3,9"/>
		<polyline class="st10" points="476.9,405.8 468,409.2 471,417.2 507.1,401.7 504.5,395.3 494.6,399.1 		"/>
		<line class="st10" x1="489.3" y1="401.1" x2="486.2" y2="402.3"/>
		<line class="st10" x1="494.6" y1="399.1" x2="489.3" y2="401.1"/>
		<polyline class="st10" points="467.8,409.2 458.3,417.3 470.9,417.4 		"/>
		<line class="st10" x1="464.1" y1="417.3" x2="463.2" y2="413.3"/>
		<line class="st10" x1="444.1" y1="382.4" x2="419.1" y2="363.3"/>
		<line class="st10" x1="402.6" y1="367.7" x2="397" y2="399.2"/>
		<path class="st11" d="M294.9,326.8c-0.7-0.6-1.4-1.3-1.9-2.1c-1.1-1.5-1.9-3.2-2.4-5c-0.3-0.9-0.5-1.9-0.5-2.8
			c0.7,0.6,1.4,1.4,1.9,2.2c0.5,0.8,1,1.5,1.4,2.4c0.4,0.8,0.7,1.7,1,2.6C294.7,324.9,294.9,325.8,294.9,326.8z"/>
		<path class="st11" d="M305.7,326.4c-0.1-1-0.1-1.9,0.1-2.9c0.3-1.8,0.9-3.6,1.7-5.2c0.4-0.9,1-1.7,1.6-2.4c0.1,1,0.1,1.9-0.1,2.9
			c-0.1,0.9-0.4,1.8-0.6,2.7c-0.3,0.9-0.6,1.7-1,2.5C306.9,324.9,306.4,325.7,305.7,326.4z"/>
		<path class="st11" d="M290,334.3c-1,0-1.9-0.1-2.9-0.3c-0.9-0.2-1.8-0.5-2.6-0.8c-0.9-0.3-1.7-0.7-2.5-1.2
			c-0.8-0.5-1.6-1.1-2.3-1.7c1,0,1.9,0.1,2.9,0.3c0.9,0.2,1.8,0.5,2.6,0.8c0.9,0.3,1.7,0.7,2.5,1.2
			C288.6,333.1,289.3,333.6,290,334.3z"/>
		<polyline class="st10" points="301.3,349.9 295.9,344.2 298,331 371.3,344.2 369.6,353.6 366.3,352.9 		"/>
		<polyline class="st10" points="298.1,372.1 307,373.5 313.8,366.7 349.8,372.7 351,378.7 360.8,381.2 		"/>
		<line class="st10" x1="314" y1="351.5" x2="364.3" y2="360.3"/>
		<circle class="st10" cx="310.4" cy="350.8" r="3.8"/>
		<g id="head">
			<polygon class="st3" points="361.2,295.4 372,316.5 382.1,330.1 389.5,336.1 394.8,338.1 399.8,338.4 406.2,336.5 413.3,331.1 
				422.7,319.8 429.7,306.5 432.7,297.8 432.6,294.8 438,291.7 442.3,285.7 443.4,276.9 442.4,271.9 439.3,267.3 436.5,264.6 
				434.1,263.2 434.9,260 433,251.1 430.4,244.6 425.1,237.3 415.9,231.3 406,228.6 397.3,228.2 391.1,228.7 383.2,230.9 
				375.8,235.4 369.7,242.3 365.7,248.5 361.7,260.9 361.1,262.2 356.8,264.1 352.6,267.8 349.7,273.7 349,280 350.6,286.4 
				354,291.2 358.7,294.6 			"/>
			<circle class="st10" cx="366.7" cy="278.9" r="17.6"/>
			<circle class="st10" cx="366.8" cy="278.9" r="11.5"/>
			<line class="st10" x1="357" y1="284.9" x2="371.7" y2="268.7"/>
			<line class="st10" x1="360.5" y1="288.4" x2="367" y2="281.5"/>
			<circle class="st10" cx="425.8" cy="278.5" r="17.6"/>
			<circle class="st10" cx="426" cy="278.5" r="11.5"/>
			<line class="st10" x1="416.2" y1="284.6" x2="430.9" y2="268.4"/>
			<line class="st10" x1="419.6" y1="288" x2="426.1" y2="281.2"/>
			<path class="st10" d="M384.2,276.4c0,0,13-4.9,24,0.5"/>
			<path class="st10" d="M384.5,282.4c0,0,13-4.9,24,0.5"/>
			<path class="st10" d="M361.9,296.2c0,0,17.6,43.2,36.3,42.2s33.7-33.2,34.6-44"/>
			<path class="st10" d="M361.6,261.9c0,0,5.3-39,44.1-33.3c31.4,4.6,28.9,34.3,28.9,34.3"/>
			<ellipse class="st10" cx="391.9" cy="239.8" rx="6.3" ry="2.3"/>
			<path class="st10" d="M385.5,240l0.3,8.3c3.4,2.4,7.9,2.6,11.5,0.4l0.9-8.8"/>
			<path class="st10" d="M391.9,239.8c0,0,18.1-45.9,30-22.6c11.5,22.5,23.4-1.4,23.4-1.4"/>
			<circle class="st10" cx="447.7" cy="211.4" r="5.2"/>
			<path class="st11" d="M398.8,316.2c1.7,1.1,3.7,1.8,5.7,2c1,0.1,2,0,2.9-0.1c0.5,0,1-0.2,1.5-0.2c0.5-0.1,1.1-0.2,1.7-0.3
				c-0.4,0.4-0.8,0.8-1.3,1.2c-0.5,0.3-1,0.6-1.5,0.9c-1.1,0.5-2.3,0.7-3.5,0.6c-1.2-0.1-2.4-0.5-3.4-1.2
				C400,318.3,399.2,317.3,398.8,316.2z"/>
		</g>
	</g>
</g>
<g id="particles">
	<g>
		<line class="st5" x1="87" y1="65.1" x2="87" y2="76.9"/>
		<line class="st5" x1="92.9" y1="71" x2="81.1" y2="71"/>
	</g>
	<g>
		<polygon class="st12" points="139.4,82 152.5,96.1 144.6,113.7 131.4,99.6 		"/>
		<polygon class="st6" points="152.5,96.1 144.6,113.7 131.4,99.6 139.4,82 		"/>
		<path class="st6" d="M144.6,113.7l-1.7-10.6L139.4,82 M152.5,96.1l-9.7,7l-11.4-3.5"/>
	</g>
	<g>
		<polygon class="st12" points="231.9,131.7 225,138.3 226.6,147.8 218.1,143.3 209.7,147.8 211.3,138.3 204.4,131.7 213.9,130.3 
			218.1,121.7 222.4,130.3 		"/>
		<polygon class="st5" points="225,138.3 226.6,147.8 218.1,143.3 209.7,147.8 211.3,138.3 204.4,131.7 213.9,130.3 218.1,121.7 
			222.4,130.3 231.9,131.7 		"/>
	</g>
	<g>
		<line class="st10" x1="294.3" y1="71.9" x2="294.3" y2="83.7"/>
		<line class="st10" x1="300.2" y1="77.8" x2="288.4" y2="77.8"/>
	</g>
	<g>
		<path class="st12" d="M341.9,186.8c-5.1,1.1-3.4,9.1,1.7,7.9S347,185.7,341.9,186.8z"/>
		<path class="st12" d="M348.7,173.3c-1.2,3-3.7,7.4-2.9,11.5l0.3-0.1c0.6-0.1,1.2,0.2,1.3,0.9c0,0,0,0,0,0l0.9,4.1
			c0.1,0.6-0.2,1.2-0.9,1.3c0,0,0,0,0,0l-9,1.9c-0.6,0.1-1.2-0.3-1.4-0.9l-0.9-4.1c-0.1-0.6,0.3-1.2,0.9-1.4l0.3-0.1
			c-1-4.1-5-7-7.3-9.2c-1.7-1.6-2.8-3.6-3.3-5.9c-1.4-6.5,1.8-12.1,8.9-13.6s12,2.6,13.5,8.2C349.8,168.4,349.6,170.9,348.7,173.3z"
			/>
		<path class="st6" d="M337.4,186.8c0-0.1,0-0.2-0.1-0.2c-1-4.1-5-7-7.3-9.2c-1.7-1.6-2.8-3.6-3.3-5.9c-1.4-6.5,1.8-12.1,8.9-13.6
			s12,2.6,13.5,8.2c0.7,2.4,0.5,5-0.4,7.3c-1.2,3-3.7,7.4-2.9,11.5c0,0.1,0,0.2,0,0.2"/>
		<path class="st8" d="M345.8,191.8c0.3,1.6-0.7,3.1-2.2,3.4c-1.6,0.3-3.1-0.7-3.4-2.2l0,0"/>
		<path class="st8" d="M337,186.6l9-1.9c0.6-0.1,1.2,0.3,1.4,0.9l0.9,4.1c0.1,0.6-0.3,1.2-0.9,1.4l-9,1.9c-0.6,0.1-1.2-0.3-1.4-0.9
			l-0.9-4.1C336,187.4,336.4,186.8,337,186.6z"/>
		<line class="st10" x1="324" y1="172" x2="319.7" y2="172.9"/>
		<line class="st10" x1="356.3" y1="165.1" x2="352.1" y2="166.1"/>
		<line class="st10" x1="325.1" y1="177.7" x2="322.6" y2="179.7"/>
		<line class="st10" x1="353.4" y1="158.4" x2="350.9" y2="160.4"/>
		<line class="st10" x1="322.8" y1="166.4" x2="319.5" y2="165.6"/>
		<line class="st10" x1="356.6" y1="172.4" x2="353.3" y2="171.7"/>
		<line class="st10" x1="341.4" y1="184.6" x2="340" y2="178.1"/>
		
			<rect x="337.4" y="173.2" transform="matrix(0.5442 -0.839 0.839 0.5442 7.7507 364.5241)" class="st10" width="3.9" height="3.9"/>
	</g>
	<g>
		<line class="st13" x1="475.1" y1="107.2" x2="475.1" y2="118.9"/>
		<line class="st13" x1="481" y1="113.1" x2="469.2" y2="113.1"/>
	</g>
	<g>
		<polygon class="st12" points="541.8,195 545.2,214 528.9,224.4 525.5,205.5 		"/>
		<polygon class="st6" points="545.2,214 528.9,224.4 525.5,205.5 541.8,195 		"/>
		<path class="st6" d="M528.9,224.4l4.3-9.8l8.6-19.6 M545.2,214l-12,0.6l-7.7-9.2"/>
	</g>
	<g>
		<polygon class="st12" points="612.7,90.7 605.8,97.3 607.4,106.8 599,102.3 590.5,106.8 592.1,97.3 585.2,90.7 594.7,89.3 
			599,80.7 603.2,89.3 		"/>
		<polygon class="st5" points="605.8,97.3 607.4,106.8 599,102.3 590.5,106.8 592.1,97.3 585.2,90.7 594.7,89.3 599,80.7 
			603.2,89.3 612.7,90.7 		"/>
	</g>
	<g>
		<circle class="st12" cx="716.2" cy="128.6" r="13"/>
		<path class="st5" d="M714.9,128.6c-1.4,0-2.6-1.2-2.6-2.6s1.2-2.6,2.6-2.6l0,0"/>
		<path class="st5" d="M717.5,128.6c1.4,0,2.6,1.2,2.6,2.6s-1.2,2.6-2.6,2.6l0,0"/>
		<line class="st5" x1="716.2" y1="120.8" x2="716.2" y2="123.4"/>
		<line class="st5" x1="716.2" y1="133.8" x2="716.2" y2="136.4"/>
		<line class="st5" x1="714.9" y1="128.6" x2="717.5" y2="128.6"/>
		<path class="st5" d="M720.1,124.7c-0.7-0.7-1.6-1.2-2.6-1.3h-2.6"/>
		<path class="st5" d="M712.3,132.5c0.7,0.7,1.6,1.2,2.6,1.3h2.6"/>
		<circle class="st5" cx="716.2" cy="128.6" r="13"/>
	</g>
	<g>
		<line class="st6" x1="751.7" y1="54.4" x2="751.7" y2="66.2"/>
		<line class="st6" x1="757.6" y1="60.3" x2="745.8" y2="60.3"/>
	</g>
	<g>
		<line class="st5" x1="812.2" y1="164.9" x2="812.2" y2="176.7"/>
		<line class="st5" x1="818.1" y1="170.8" x2="806.3" y2="170.8"/>
	</g>
	<g>
		<line class="st13" x1="903.6" y1="74.7" x2="903.6" y2="86.5"/>
		<line class="st13" x1="909.5" y1="80.6" x2="897.7" y2="80.6"/>
	</g>
	<g>
		<line class="st6" x1="895.7" y1="409" x2="895.7" y2="420.8"/>
		<line class="st6" x1="901.6" y1="414.9" x2="889.8" y2="414.9"/>
	</g>
	<g>
		<path class="st12" d="M808.8,419.7c-4.9-1.8-7.7,5.8-2.8,7.6S813.7,421.5,808.8,419.7z"/>
		<path class="st12" d="M821.7,411.9c-2.6,1.9-7,4.3-8.6,8.2l0.3,0.1c0.6,0.2,0.9,0.9,0.7,1.5l-1.4,3.9c-0.2,0.6-0.9,0.9-1.5,0.7
			l-8.7-3.2c-0.6-0.2-0.9-0.9-0.7-1.5l1.4-3.9c0.2-0.6,0.9-0.9,1.5-0.7l0.3,0.1c1.3-4-0.5-8.6-1.2-11.7c-0.6-2.2-0.4-4.6,0.4-6.7
			c2.3-6.2,8-9.3,14.7-6.8s8.7,8.6,7.1,14.1C825.2,408.3,823.7,410.4,821.7,411.9z"/>
		<path class="st6" d="M804.9,417.3c0-0.1,0.1-0.2,0.1-0.2c1.3-4-0.5-8.6-1.2-11.7c-0.6-2.2-0.4-4.6,0.4-6.7c2.3-6.2,8-9.3,14.7-6.8
			s8.7,8.6,7.1,14.1c-0.7,2.4-2.2,4.5-4.2,6c-2.6,1.9-7,4.3-8.6,8.2l-0.1,0.2"/>
		<path class="st8" d="M809.4,426c-0.6,1.5-2.3,2.2-3.7,1.6c-1.4-0.6-2.2-2.2-1.7-3.6"/>
		<path class="st8" d="M801.9,421.6l1.4-3.9c0.2-0.6,0.9-0.9,1.5-0.7l8.6,3.2c0.6,0.2,0.9,0.9,0.7,1.5l-1.4,3.9
			c-0.2,0.6-0.9,0.9-1.5,0.7l-8.6-3.2C802,422.9,801.7,422.2,801.9,421.6z"/>
		<line class="st10" x1="801.4" y1="397.7" x2="797.4" y2="396.2"/>
		<line class="st10" x1="832.4" y1="409" x2="828.4" y2="407.6"/>
		<line class="st10" x1="799.4" y1="403.1" x2="796.2" y2="403.5"/>
		<line class="st10" x1="833.6" y1="401.8" x2="830.4" y2="402.2"/>
		<line class="st10" x1="803.4" y1="392.3" x2="801" y2="389.9"/>
		<line class="st10" x1="828.8" y1="415.4" x2="826.4" y2="413"/>
		<line class="st10" x1="809.4" y1="417.6" x2="811.7" y2="411.3"/>
		
			<rect x="810.8" y="406.5" transform="matrix(0.9073 -0.4206 0.4206 0.9073 -96.4205 379.6917)" class="st10" width="3.9" height="3.9"/>
	</g>
	<g>
		<line class="st13" x1="583" y1="427.8" x2="583" y2="439.6"/>
		<line class="st13" x1="588.9" y1="433.7" x2="577.1" y2="433.7"/>
	</g>
	<g>
		<line class="st6" x1="173.9" y1="436.6" x2="173.9" y2="448.4"/>
		<line class="st6" x1="179.8" y1="442.5" x2="168" y2="442.5"/>
	</g>
	<g>
		<line class="st10" x1="109.8" y1="405.9" x2="109.8" y2="417.7"/>
		<line class="st10" x1="115.7" y1="411.8" x2="103.9" y2="411.8"/>
	</g>
</g>
</svg>
