<svg xmlns="http://www.w3.org/2000/svg" width="899" height="1416"><circle cx="751.728" cy="784.055" r="10.611" fill="#ffe477" stroke-width=".344"/><path d="M751.396 784.056c0-3.995 2.209-7.473 5.471-9.283a10.562 10.562 0 0 0-5.14-1.328c-5.86 0-10.61 4.75-10.61 10.61 0 5.861 4.75 10.612 10.61 10.612 1.865 0 3.617-.483 5.14-1.329a10.606 10.606 0 0 1-5.47-9.282z" fill="#ffd422" stroke-width=".344"/><circle cx="751.728" cy="770.471" r="5.355" fill="#57e5d0" stroke-width=".344"/><path d="M751.512 770.47a5.352 5.352 0 0 1 2.785-4.698 5.355 5.355 0 1 0 0 9.396 5.354 5.354 0 0 1-2.785-4.698z" fill="#28c6af" stroke-width=".344"/><path d="M755.992 818.785c3.923-11.168-1.951-23.402-13.12-27.324-11.168-3.923-23.401 1.951-27.324 13.12-1.536 4.372-2.579 17.26-3.279 31.322-.094 1.895 1.697 3.325 3.526 2.817l7.035-1.955-10.365 11.976c-.5.578-.787 1.31-.813 2.073-.092 2.678-.174 5.307-.245 7.831-.108 3.794 2.25 6.538 5.207 7.576 2.957 1.039 6.513.372 8.802-2.656 1.522-2.014 3.102-4.116 4.706-6.264.456-.611.69-1.363.661-2.125l-.6-15.829 4.268 5.926c1.109 1.54 3.401 1.544 4.512.006 8.248-11.412 15.493-22.121 17.029-26.494z" fill="#9a4c00" stroke-width=".344"/><path d="M715.548 804.58c-1.536 4.373-2.579 17.261-3.279 31.323-.094 1.895 1.697 3.325 3.526 2.817l7.035-1.955-10.365 11.976c-.5.578-.787 1.31-.813 2.073-.092 2.678-.174 5.307-.245 7.831-.108 3.794 2.25 6.538 5.207 7.576l26.258-74.76c-11.168-3.923-23.4 1.95-27.324 13.12z" fill="#663a00" stroke-width=".344"/><path d="M747.463 818.785c-3.923-11.168 1.95-23.402 13.119-27.324 11.168-3.923 23.402 1.951 27.324 13.12 1.536 4.372 2.58 17.26 3.28 31.322.094 1.895-1.698 3.325-3.526 2.817l-7.035-1.955 10.365 11.976c.5.578.787 1.31.813 2.073.092 2.678.173 5.307.245 7.831.107 3.794-2.25 6.538-5.208 7.576-2.957 1.039-6.513.372-8.801-2.656a1317.988 1317.988 0 0 1-4.706-6.264 3.346 3.346 0 0 1-.661-2.125l.6-15.829-4.268 5.926c-1.109 1.54-3.402 1.544-4.513.006-8.247-11.412-15.492-22.121-17.028-26.494z" fill="#9a4c00" stroke-width=".344"/><path d="M787.906 804.58c1.536 4.373 2.58 17.261 3.28 31.323.094 1.895-1.698 3.325-3.526 2.817l-7.035-1.955 10.365 11.976c.5.578.787 1.31.813 2.073.092 2.678.173 5.307.245 7.831.107 3.794-2.25 6.538-5.208 7.576l-26.258-74.76c11.168-3.923 23.401 1.95 27.324 13.12z" fill="#663a00" stroke-width=".344"/><g fill="#ff5c5c"><path d="M778.999 814.986c0-15.062-12.21-27.271-27.271-27.271-15.062 0-27.272 12.21-27.272 27.27 0 2.909 1.017 7.958 2.659 14.212a2.38 2.38 0 0 0 3.558 1.417l21.055-13.073 21.056 13.073a2.381 2.381 0 0 0 3.558-1.417c1.64-6.254 2.657-11.303 2.657-14.211z"/><path d="M751.728 817.54l-18.094 23.27a7.131 7.131 0 0 0-1.172 6.534c4.392 13.84 9.73 29.008 13.672 39.93 1.89 5.239 9.297 5.239 11.188 0 3.942-10.922 9.28-26.09 13.672-39.93a7.132 7.132 0 0 0-1.172-6.534z"/></g><g fill="#f33"><path d="M732.462 847.344c4.392 13.84 9.73 29.008 13.672 39.93.945 2.62 3.27 3.929 5.594 3.929v-73.662l-18.094 23.269a7.13 7.13 0 0 0-1.172 6.534z"/><path d="M724.456 814.986c0 2.908 1.017 7.957 2.658 14.211a2.38 2.38 0 0 0 3.558 1.417l21.056-13.073v-29.827c-15.063 0-27.272 12.21-27.272 27.272z"/></g><path d="M769.82 840.81l-18.092-23.269-18.094 23.27a7.131 7.131 0 0 0-1.172 6.534 876.005 876.005 0 0 0 6.202 18.725l13.064-18.431 13.063 18.43a876.005 876.005 0 0 0 6.202-18.724 7.133 7.133 0 0 0-1.172-6.535z" fill="#ffe477" stroke-width=".344"/><path d="M751.728 817.54l-18.094 23.27a7.131 7.131 0 0 0-1.172 6.534 875.987 875.987 0 0 0 6.202 18.725l13.064-18.43z" fill="#ffd422" stroke-width=".344"/><path d="M751.728 787.715c-15.062 0-27.272 12.21-27.272 27.27 0 .7.06 1.526.172 2.459l27.1-15.241 27.099 15.241c.112-.934.172-1.76.172-2.458 0-15.062-12.21-27.271-27.271-27.271z" fill="#57e5d0" stroke-width=".344"/><path d="M751.728 787.715c-15.062 0-27.272 12.21-27.272 27.27 0 .7.06 1.526.172 2.459l27.1-15.241z" fill="#28c6af" stroke-width=".344"/><path d="M753.831 883c.553-.553.87-1.319.872-2.101 0-.786-.317-1.551-.872-2.107a2.992 2.992 0 0 0-2.104-.87c-.785 0-1.55.318-2.104.87a2.995 2.995 0 0 0-.872 2.107c.003.782.32 1.548.872 2.1a3.008 3.008 0 0 0 2.104.876 3.008 3.008 0 0 0 2.104-.875z" fill="#57e5d0" stroke-width=".344"/><g fill="#ffe477"><path d="M740.047 803.467c.553-.553.87-1.319.872-2.101 0-.786-.317-1.551-.872-2.107a2.992 2.992 0 0 0-2.104-.87c-.786 0-1.55.318-2.104.87a2.995 2.995 0 0 0-.872 2.107c.003.782.32 1.548.872 2.1a3.008 3.008 0 0 0 2.104.876 3.008 3.008 0 0 0 2.104-.875zM767.615 803.467c.553-.553.87-1.319.873-2.101 0-.786-.317-1.551-.873-2.107a2.992 2.992 0 0 0-2.103-.87c-.786 0-1.551.318-2.104.87a2.995 2.995 0 0 0-.872 2.107c.002.782.32 1.548.872 2.1a3.008 3.008 0 0 0 2.104.876 3.007 3.007 0 0 0 2.103-.875z"/></g><path d="M739.832 848.423a2.616 2.616 0 0 1-.442-3.673l10.28-13.09a2.615 2.615 0 1 1 4.115 3.231l-10.28 13.09c-1.577 1.633-3.194.818-3.673.442z" fill="#eebf00" stroke-width=".344"/><path d="M759.95 847.982l-10.28-13.09a2.616 2.616 0 1 1 4.115-3.232l10.28 13.09a2.616 2.616 0 0 1-.442 3.673c-.48.376-2.305 1.279-3.673-.441z" fill="#ffd422" stroke-width=".344"/><path d="M751.728 871.722a2.615 2.615 0 0 1-2.616-2.616v-85.05a2.615 2.615 0 1 1 5.231 0v85.05a2.616 2.616 0 0 1-2.615 2.616z" fill="#3e3d42" stroke-width=".344"/><circle r="10.611" cy="784.055" cx="146.441" fill="#ffe477" stroke-width=".344"/><path d="M146.11 784.056c0-3.995 2.208-7.473 5.47-9.283a10.562 10.562 0 0 0-5.14-1.328c-5.86 0-10.61 4.75-10.61 10.61 0 5.861 4.75 10.612 10.61 10.612 1.865 0 3.617-.483 5.14-1.329a10.606 10.606 0 0 1-5.47-9.282z" fill="#ffd422" stroke-width=".344"/><circle r="5.355" cy="770.471" cx="146.441" fill="#57e5d0" stroke-width=".344"/><path d="M146.225 770.47a5.352 5.352 0 0 1 2.785-4.698 5.355 5.355 0 1 0 0 9.396 5.354 5.354 0 0 1-2.785-4.698z" fill="#28c6af" stroke-width=".344"/><path d="M150.705 818.785c3.923-11.168-1.951-23.402-13.12-27.324-11.167-3.923-23.401 1.951-27.324 13.12-1.536 4.372-2.578 17.26-3.279 31.322-.094 1.895 1.697 3.325 3.526 2.817l7.035-1.955-10.365 11.976c-.5.578-.787 1.31-.813 2.073-.092 2.678-.174 5.307-.245 7.831-.108 3.794 2.25 6.538 5.207 7.576 2.957 1.039 6.513.372 8.802-2.656a1318 1318 0 0 0 4.706-6.264c.456-.611.69-1.363.661-2.125l-.6-15.829 4.268 5.926c1.109 1.54 3.401 1.544 4.512.006 8.248-11.412 15.493-22.121 17.029-26.494z" fill="#9a4c00" stroke-width=".344"/><path d="M110.261 804.58c-1.536 4.373-2.578 17.261-3.279 31.323-.094 1.895 1.697 3.325 3.526 2.817l7.035-1.955-10.365 11.976c-.5.578-.787 1.31-.813 2.073-.092 2.678-.174 5.307-.245 7.831-.108 3.794 2.25 6.538 5.207 7.576l26.258-74.76c-11.167-3.923-23.4 1.95-27.324 13.12z" fill="#663a00" stroke-width=".344"/><path d="M142.176 818.785c-3.923-11.168 1.95-23.402 13.119-27.324 11.168-3.923 23.402 1.951 27.325 13.12 1.535 4.372 2.578 17.26 3.279 31.322.094 1.895-1.698 3.325-3.526 2.817l-7.035-1.955 10.365 11.976c.5.578.787 1.31.813 2.073.092 2.678.173 5.307.245 7.831.107 3.794-2.25 6.538-5.207 7.576-2.958 1.039-6.514.372-8.802-2.656a1317.32 1317.32 0 0 1-4.706-6.264 3.346 3.346 0 0 1-.661-2.125l.6-15.829-4.268 5.926c-1.109 1.54-3.402 1.544-4.513.006-8.247-11.412-15.492-22.121-17.028-26.494z" fill="#9a4c00" stroke-width=".344"/><path d="M182.62 804.58c1.535 4.373 2.578 17.261 3.279 31.323.094 1.895-1.698 3.325-3.526 2.817l-7.035-1.955 10.365 11.976c.5.578.787 1.31.813 2.073.092 2.678.173 5.307.245 7.831.107 3.794-2.25 6.538-5.207 7.576l-26.259-74.76c11.168-3.923 23.401 1.95 27.325 13.12z" fill="#663a00" stroke-width=".344"/><g fill="#ff5c5c"><path d="M173.712 814.986c0-15.062-12.21-27.271-27.271-27.271-15.062 0-27.272 12.21-27.272 27.27 0 2.909 1.018 7.958 2.659 14.212a2.38 2.38 0 0 0 3.558 1.417l21.055-13.073 21.056 13.073a2.381 2.381 0 0 0 3.558-1.417c1.64-6.254 2.657-11.303 2.657-14.211z"/><path d="M146.44 817.54l-18.093 23.27a7.131 7.131 0 0 0-1.172 6.534c4.392 13.84 9.73 29.008 13.672 39.93 1.89 5.239 9.297 5.239 11.188 0 3.942-10.922 9.28-26.09 13.672-39.93a7.132 7.132 0 0 0-1.172-6.534z"/></g><g fill="#f33"><path d="M127.175 847.344c4.392 13.84 9.73 29.008 13.672 39.93.945 2.62 3.27 3.929 5.594 3.929v-73.662l-18.094 23.269a7.13 7.13 0 0 0-1.172 6.534z"/><path d="M119.169 814.986c0 2.908 1.017 7.957 2.658 14.211a2.38 2.38 0 0 0 3.558 1.417l21.056-13.073v-29.827c-15.063 0-27.272 12.21-27.272 27.272z"/></g><path d="M164.534 840.81l-18.093-23.269-18.094 23.27a7.131 7.131 0 0 0-1.172 6.534 876.005 876.005 0 0 0 6.202 18.725l13.064-18.431 13.063 18.43a876.005 876.005 0 0 0 6.203-18.724 7.133 7.133 0 0 0-1.173-6.535z" fill="#ffe477" stroke-width=".344"/><path d="M146.44 817.54l-18.093 23.27a7.131 7.131 0 0 0-1.172 6.534 875.987 875.987 0 0 0 6.202 18.725l13.064-18.43z" fill="#ffd422" stroke-width=".344"/><path d="M146.44 787.715c-15.061 0-27.27 12.21-27.27 27.27 0 .7.06 1.526.171 2.459l27.1-15.241 27.099 15.241c.112-.934.172-1.76.172-2.458 0-15.062-12.21-27.271-27.271-27.271z" fill="#57e5d0" stroke-width=".344"/><path d="M146.44 787.715c-15.061 0-27.27 12.21-27.27 27.27 0 .7.06 1.526.171 2.459l27.1-15.241z" fill="#28c6af" stroke-width=".344"/><path d="M148.544 883c.553-.553.87-1.319.872-2.101 0-.786-.317-1.551-.872-2.107a2.992 2.992 0 0 0-2.104-.87c-.785 0-1.55.318-2.104.87a2.995 2.995 0 0 0-.872 2.107c.003.782.32 1.548.872 2.1a3.008 3.008 0 0 0 2.104.876 3.008 3.008 0 0 0 2.104-.875z" fill="#57e5d0" stroke-width=".344"/><g fill="#ffe477"><path d="M134.76 803.467c.553-.553.87-1.319.872-2.101 0-.786-.317-1.551-.872-2.107a2.992 2.992 0 0 0-2.104-.87c-.785 0-1.55.318-2.104.87a2.995 2.995 0 0 0-.872 2.107c.003.782.32 1.548.872 2.1a3.008 3.008 0 0 0 2.104.876 3.008 3.008 0 0 0 2.104-.875zM162.328 803.467c.553-.553.87-1.319.873-2.101 0-.786-.317-1.551-.873-2.107a2.992 2.992 0 0 0-2.103-.87c-.786 0-1.551.318-2.104.87a2.995 2.995 0 0 0-.872 2.107c.002.782.32 1.548.872 2.1a3.008 3.008 0 0 0 2.104.876 3.007 3.007 0 0 0 2.103-.875z"/></g><path d="M134.545 848.423a2.616 2.616 0 0 1-.442-3.673l10.28-13.09a2.615 2.615 0 1 1 4.115 3.231l-10.28 13.09c-1.577 1.633-3.194.818-3.673.442z" fill="#eebf00" stroke-width=".344"/><path d="M154.663 847.982l-10.28-13.09a2.616 2.616 0 1 1 4.115-3.232l10.28 13.09a2.616 2.616 0 0 1-.442 3.673c-.48.376-2.305 1.279-3.673-.441z" fill="#ffd422" stroke-width=".344"/><path d="M146.44 871.722a2.615 2.615 0 0 1-2.615-2.616v-85.05a2.615 2.615 0 1 1 5.231 0v85.05a2.616 2.616 0 0 1-2.615 2.616z" fill="#3e3d42" stroke-width=".344"/></svg>