<svg xmlns="http://www.w3.org/2000/svg" width="899" height="1415"><path d="M390.275 1061.276a255.457 255.457 0 0 1-6.446 1.284h5.382c.36-.431.699-.85 1.064-1.284z" fill="#fcf1d4" stroke="#333" stroke-width=".0079278"/><path d="M338.437 1072.842c-2.251 0-4.075 1.927-4.075 4.301v34.052c0 6.328.47 12.596 1.39 18.77h8.252a118.17 118.17 0 0 1-1.494-18.77v-34.052c0-2.374-1.825-4.3-4.074-4.3zm218.956 0c-2.251 0-4.074 1.927-4.074 4.301v34.052c0 6.304-.509 12.596-1.5 18.77h8.25a127.58 127.58 0 0 0 1.395-18.77v-34.052c0-2.374-1.823-4.3-4.071-4.3z" stroke="#000" stroke-width="4.52994492"/><path d="M564.237 1144.122c-9.197-8.625-23.326-7.373-31.56 2.796-8.232 10.169-7.451 25.403 1.746 34.03l26.975 25.297c2.391 2.243 6.035 1.738 7.836-1.088 16.08-25.208 3.622-52.951-4.997-61.035zm0 0" fill="#ff756e"/><path d="M569.24 1205.157c-1.81 2.826-5.45 3.327-7.845 1.088-.448-.417-.92-.864-1.419-1.335 13.933-24.572 1.97-50.889-6.385-58.721-3.726-3.49-8.25-5.364-12.863-5.676 7.693-3.693 16.88-2.604 23.507 3.614 8.62 8.077 21.075 35.822 5.003 61.03zm0 0" fill="#fc4830"/><path d="M529.887 1203.426c-4.673-12.22-17.814-18.037-29.346-12.988-11.535 5.046-17.097 19.043-12.423 31.263l13.71 35.838c1.216 3.178 4.678 4.515 7.45 2.875 24.724-14.635 24.99-45.537 20.61-56.988zm0 0" fill="#f4bc8e"/><path d="M509.279 1260.414c-2.775 1.638-6.235.299-7.455-2.875a297.19 297.19 0 0 1-.719-1.889c22.544-15.12 22.668-44.503 18.421-55.605-1.895-4.946-5.167-8.84-9.162-11.382 8.393.477 16.153 5.956 19.52 14.765 4.382 11.446 4.114 42.348-20.605 56.986zm0 0" fill="#efa66f"/><path d="M478.231 1245.04c0 15.37-19.363 63.593-28.64 85.815-1.894 4.538-7.794 4.538-9.69 0-9.275-22.222-28.638-70.445-28.638-85.815 0-20.208 14.99-36.594 33.484-36.594 18.491 0 33.484 16.386 33.484 36.594zm0 0" fill="#fbdbb7"/><path d="M478.231 1245.043c0 15.364-19.365 63.588-28.64 85.81-1.891 4.54-7.793 4.54-9.688 0a1136.505 1136.505 0 0 1-3.845-9.324c9.921-24.32 24.79-63.02 24.79-76.487 0-16.925-10.512-31.168-24.795-35.345a30.514 30.514 0 0 1 8.696-1.25c18.49 0 33.482 16.382 33.482 36.596zm-113.236-50.226c8.214-9.738 22.38-10.294 31.643-1.246 9.263 9.05 10.114 24.28 1.9 34.019-5.971 7.082-17.98 21.32-24.09 28.563-2.136 2.533-5.81 2.498-7.9-.079-18.66-22.988-9.248-52.128-1.553-61.256zm0 0" fill="#f4bc8e"/><path d="M398.54 1227.59c-5.976 7.082-17.98 21.318-24.094 28.563-2.137 2.533-5.805 2.497-7.898-.081a46.795 46.795 0 0 1-2.418-3.241 5.552 5.552 0 0 0 1.087-.99c6.108-7.246 18.116-21.48 24.087-28.566 8.219-9.735 7.366-24.968-1.894-34.016a23.637 23.637 0 0 0-1.934-1.694c4.014.816 7.892 2.81 11.162 6.006 9.26 9.05 10.114 24.28 1.901 34.019zm0 0" fill="#efa66f"/><path d="M341.69 1137.114c12.054-1.366 23.017 8.457 24.487 21.939 1.469 13.483-7.114 25.52-19.168 26.886-8.764.994-26.387 2.991-35.356 4.01-3.134.354-5.866-2.328-5.874-5.774-.082-30.728 24.615-45.78 35.912-47.061zm0 0" fill="#ff756e"/><path d="M347.012 1185.939c-8.768.992-26.388 2.994-35.358 4.007-3.135.357-5.865-2.323-5.875-5.771a48.582 48.582 0 0 1 .151-4.178c.452.08.93.096 1.413.042 8.966-1.017 26.588-3.012 35.354-4.009 12.056-1.363 20.636-13.4 19.167-26.883a27.137 27.137 0 0 0-.424-2.667c2.518 3.513 4.216 7.814 4.734 12.573 1.47 13.483-7.11 25.52-19.162 26.886zm0 0" fill="#fc4830"/><path d="M430.77 1257.807c-2.161.72-3.378 3.22-2.72 5.585l4.087 14.637c.54 1.93 2.161 3.17 3.914 3.17.397 0 .797-.064 1.196-.197 2.162-.72 3.379-3.222 2.72-5.584l-4.086-14.638c-.661-2.362-2.95-3.693-5.11-2.973zm131.405-73.956c-2.261 0-4.093 2.004-4.093 4.475 0 2.47 1.832 4.474 4.093 4.474h.056c2.262 0 4.093-2.004 4.093-4.474s-1.831-4.475-4.093-4.475zm-51.301 54.342h-.056c-2.261 0-4.093 2.003-4.093 4.473 0 2.472 1.832 4.474 4.093 4.474h.056c2.262 0 4.093-2.002 4.093-4.474 0-2.47-1.831-4.473-4.093-4.473zm-137.86 2.861h.057c2.26 0 4.093-2.004 4.093-4.474 0-2.471-1.833-4.472-4.093-4.472h-.058c-2.259 0-4.093 2-4.093 4.472 0 2.47 1.833 4.474 4.093 4.474zm-50.533-72.507h-.058c-2.26 0-4.093 2.004-4.093 4.473 0 2.47 1.833 4.473 4.093 4.473h.058c2.26 0 4.093-2.003 4.093-4.473 0-2.47-1.834-4.473-4.093-4.473zm0 0"/><path d="M335.423 1127.781c.105.73.212 1.458.328 2.185-5.385 2.017-11.88 5.816-17.857 11.94-6.862 7.034-15.031 19.307-14.983 37.85.009 2.903 1.146 5.682 3.122 7.622 1.735 1.706 3.99 2.64 6.303 2.64.322 0 .643-.016.965-.053l35.356-4.007a23.8 23.8 0 0 0 8.39-2.582 123.164 123.164 0 0 0 4.527 6.144c-2.36 3.453-4.499 8.049-6.031 13.023-.72 2.34.434 4.88 2.576 5.666 2.143.79 4.464-.47 5.184-2.812 1.052-3.417 2.455-6.635 3.96-9.158a118.444 118.444 0 0 0 11.392 10.955 3.851 3.851 0 0 0 2.492.927c1.228 0 2.443-.6 3.248-1.745 1.378-1.96 1.04-4.769-.75-6.274a110.047 110.047 0 0 1-10.52-10.135c6.722-4.392 15.738-3.621 22.01 2.506 3.736 3.649 5.922 8.598 6.157 13.936.226 5.106-1.385 9.977-4.54 13.718l-24.09 28.564a1.161 1.161 0 0 1-.919.434c-.204 0-.594-.064-.91-.452-5.981-7.372-9.271-15.968-9.77-25.555-.128-2.466-2.052-4.35-4.318-4.21-2.258.14-3.984 2.251-3.856 4.72.608 11.643 4.584 22.069 11.822 30.983 1.763 2.17 4.297 3.432 6.954 3.46h.09c2.626 0 5.145-1.207 6.927-3.318l24.09-28.563a27.617 27.617 0 0 0 1.923-2.582 107.644 107.644 0 0 0 6.112 2.54 44.204 44.204 0 0 0-2.414 14.458c0 8.297 5.034 30.24 29.01 87.672 1.55 3.714 4.833 6.02 8.568 6.02 3.735 0 7.017-2.306 8.567-6.02 3.264-7.814 8.158-19.77 12.948-32.348.867-2.284-.122-4.902-2.21-5.851-2.087-.948-4.479.13-5.35 2.411-4.745 12.467-9.598 24.323-12.834 32.074-.273.65-.76.788-1.121.788-.36 0-.849-.138-1.12-.788-17.703-42.404-28.272-73.788-28.272-83.958 0-4.177.742-8.165 2.077-11.829a104.95 104.95 0 0 0 29.496 4.202c2.26 0 4.093-2.003 4.093-4.473 0-2.472-1.832-4.474-4.093-4.474a97.417 97.417 0 0 1-25.239-3.306c5.388-7.445 13.719-12.238 23.058-12.238 16.208 0 29.392 14.408 29.392 32.121 0 3.703-1.444 12.313-8.316 32.319-.796 2.313.277 4.891 2.391 5.759 2.117.868 4.477-.3 5.272-2.614 5.949-17.31 8.84-28.912 8.84-35.464a44.285 44.285 0 0 0-1.965-13.074c2.14-.715 4.258-1.498 6.35-2.35l11.34 29.647c1.025 2.68 3.052 4.77 5.558 5.736a8.701 8.701 0 0 0 3.133.585c1.55 0 3.095-.417 4.485-1.24 14.919-8.83 20.868-22.544 23.232-32.497 3.036-12.781 1.47-24.23-.793-30.15a28.935 28.935 0 0 0-2.445-4.932 124.179 124.179 0 0 0 5.788-7.5l21.725 20.371c1.716 1.61 3.9 2.483 6.14 2.483a8.483 8.483 0 0 0 1.182-.082c2.637-.366 5.02-1.944 6.537-4.325 6.454-10.116 9.33-21.85 8.317-33.931-.207-2.461-2.197-4.277-4.449-4.048-2.251.226-3.91 2.402-3.704 4.862.847 10.097-1.466 19.518-6.878 28a1.198 1.198 0 0 1-.856.564 1.145 1.145 0 0 1-.957-.31l-22.237-20.858a128.18 128.18 0 0 0 9.018-17.683c.938-2.248.027-4.899-2.03-5.923-2.056-1.023-4.482-.032-5.42 2.217a119.033 119.033 0 0 1-7.767 15.405c-2.652-3.143-4.239-7.15-4.512-11.504-.337-5.329 1.306-10.524 4.625-14.624 6.747-8.331 18.333-9.394 25.83-2.366 2.271 2.132 4.697 5.776 6.652 10 1.021 2.204 3.484 3.087 5.5 1.97 2.017-1.115 2.825-3.806 1.804-6.01-2.458-5.31-5.52-9.839-8.625-12.748a25.212 25.212 0 0 0-7.799-5.01c.198-1.163.378-2.332.547-3.503h-8.295c-.091.587-.18 1.173-.279 1.758-7.844-.362-15.84 3.034-21.465 9.982-4.784 5.91-7.151 13.426-6.664 21.165.444 7.043 3.222 13.485 7.86 18.29a113.647 113.647 0 0 1-5.23 6.839c-7.274-6.109-17.364-7.987-26.561-3.966-6.702 2.934-11.904 8.49-14.65 15.644a30.02 30.02 0 0 0-.733 19.4 99.866 99.866 0 0 1-6.752 2.445c-6.599-11.859-18.536-19.795-32.136-19.795-13.115 0-24.678 7.385-31.402 18.547a98.448 98.448 0 0 1-6.2-2.498 30.34 30.34 0 0 0 1.101-9.617c-.343-7.748-3.496-14.912-8.877-20.17-9.435-9.22-23.254-9.936-33.097-2.51a115.92 115.92 0 0 1-3.744-5.06 27.778 27.778 0 0 0 2.164-2.596c4.434-6.06 6.403-13.71 5.55-21.548-1.677-15.397-13.958-26.773-27.697-25.964-.019-.115-.034-.23-.052-.346zm10.094 9.257c8.94.206 16.708 7.888 17.82 18.11.594 5.439-.76 10.73-3.813 14.902a18.23 18.23 0 0 1-3.678 3.761c-.01.008-.018.011-.029.019-.016.012-.028.026-.043.037-2.343 1.76-5.06 2.862-7.96 3.19l-35.357 4.007a1.152 1.152 0 0 1-.951-.339 1.387 1.387 0 0 1-.409-.996c-.04-15.325 6.72-25.478 12.397-31.298 4.513-4.624 9.645-7.83 13.985-9.634a132.542 132.542 0 0 0 3.557 12.584c.61 1.81 2.176 2.928 3.842 2.928.47 0 .95-.088 1.416-.277 2.121-.853 3.206-3.425 2.423-5.743a123.886 123.886 0 0 1-3.2-11.25zm164.847 51.625c7.25 0 14.1 4.539 16.973 12.055 1.85 4.839 2.775 14.554.423 24.45-1.955 8.232-6.875 19.58-19.207 26.88a1.123 1.123 0 0 1-.995.084 1.264 1.264 0 0 1-.727-.75l-11.327-29.612a111.61 111.61 0 0 0 16.707-10.278c1.87-1.389 2.355-4.17 1.084-6.214-1.268-2.043-3.814-2.575-5.684-1.186a103.505 103.505 0 0 1-15.156 9.363 20.368 20.368 0 0 1 .69-12.502c1.89-4.927 5.49-8.761 10.141-10.795a17.595 17.595 0 0 1 7.078-1.495z" stroke="#000" stroke-width=".5787294000000001"/></svg>