<?xml version="1.0" encoding="utf-8"?>
<!-- Generator: Adobe Illustrator 16.0.0, SVG Export Plug-In . SVG Version: 6.00 Build 0)  -->
<!DOCTYPE svg PUBLIC "-//W3C//DTD SVG 1.1//EN" "http://www.w3.org/Graphics/SVG/1.1/DTD/svg11.dtd">
<svg version="1.1" xmlns="http://www.w3.org/2000/svg" xmlns:xlink="http://www.w3.org/1999/xlink" x="0px" y="0px"
	 width="899.21px" height="1415px" viewBox="0 0 899.21 1415" enable-background="new 0 0 899.21 1415" xml:space="preserve">
<g id="SUPERWOMAN">
</g>
<g id="LIPSTICK">
</g>
<g id="LIPSTICK2">
</g>
<g id="BLACKPANTHER">
</g>
<g id="BUNNY">
</g>
<g id="Geordi_Shades">
	<g>
		<path fill="#FFFFFF" d="M149.909,685.171c0,0,163.582,39.083,305.912,39.083c142.331,0,293.784-31.037,293.784-31.037v-71.264
			c0,0-60.549-36.782-292.59-36.782c-232.042,0-307.418,34.482-307.418,34.482L149.909,685.171z"/>
		<g>
			<path d="M657.324,600.018c-2.349-0.323-4.752-0.643-7.215-0.959l0.016,109.32c2.44-0.289,4.847-0.577,7.215-0.865
				L657.324,600.018z"/>
			<path d="M669.039,601.72c-2.34-0.359-4.744-0.716-7.215-1.07l0.016,106.312c2.447-0.303,4.854-0.604,7.215-0.903L669.039,601.72z
				"/>
			<path d="M645.609,598.492c-2.354-0.29-4.761-0.576-7.215-0.859l0.016,112.101c2.438-0.275,4.837-0.551,7.215-0.827
				L645.609,598.492z"/>
			<path d="M622.179,595.898c-2.361-0.234-4.769-0.464-7.215-0.69l0.017,117.038c2.425-0.247,4.835-0.495,7.215-0.745
				L622.179,595.898z"/>
			<path d="M633.894,597.125c-2.357-0.261-4.765-0.517-7.215-0.77l0.017,114.667c2.431-0.261,4.836-0.523,7.215-0.787
				L633.894,597.125z"/>
			<path d="M704.185,608.186c-2.29-0.505-4.692-1.015-7.215-1.528l0.014,95.674c2.497-0.35,4.903-0.692,7.215-1.024L704.185,608.186
				z"/>
			<path d="M727.615,614.205c-2.163-0.655-4.563-1.346-7.215-2.065l0.012,86.767c2.648-0.404,5.06-0.778,7.215-1.117
				L727.615,614.205z"/>
			<path d="M715.9,610.959c-2.25-0.573-4.652-1.159-7.216-1.755l0.014,91.451c2.543-0.372,4.945-0.728,7.215-1.068L715.9,610.959z"
				/>
			<path d="M188.746,609.223c-2.572,0.544-4.975,1.074-7.215,1.587l-0.012,82.535c2.257,0.403,4.665,0.829,7.214,1.274
				L188.746,609.223z"/>
			<path d="M692.47,605.764c-2.314-0.449-4.717-0.898-7.215-1.348l0.014,99.523c2.477-0.333,4.877-0.661,7.215-0.983L692.47,605.764
				z"/>
			<path d="M610.464,594.802c-2.367-0.209-4.771-0.416-7.215-0.617l0.018,119.219c2.422-0.232,4.83-0.467,7.214-0.704
				L610.464,594.802z"/>
			<path d="M680.754,603.625c-2.328-0.401-4.732-0.8-7.215-1.198l0.015,103.056c2.458-0.317,4.866-0.632,7.215-0.943
				L680.754,603.625z"/>
			<path d="M587.034,592.952c-2.372-0.166-4.777-0.328-7.215-0.485l0.018,123.048c2.418-0.203,4.825-0.409,7.215-0.619
				L587.034,592.952z"/>
			<path d="M493.314,589.136c-2.384-0.038-4.788-0.071-7.215-0.102l0.02,131.778c2.405-0.061,4.811-0.127,7.215-0.201
				L493.314,589.136z"/>
			<path d="M505.029,589.352c-2.383-0.051-4.787-0.098-7.215-0.141l0.02,131.253c2.406-0.082,4.812-0.169,7.215-0.264
				L505.029,589.352z"/>
			<path d="M598.749,593.822c-2.369-0.187-4.774-0.37-7.215-0.548l0.018,121.221c2.42-0.218,4.827-0.438,7.215-0.662
				L598.749,593.822z"/>
			<path d="M481.6,588.982c-2.383-0.025-4.791-0.045-7.215-0.063l0.02,132.139c2.404-0.039,4.81-0.084,7.215-0.137L481.6,588.982z"
				/>
			<path d="M516.744,589.635c-2.381-0.065-4.786-0.125-7.215-0.183l0.02,130.564c2.408-0.102,4.813-0.209,7.215-0.322
				L516.744,589.635z"/>
			<path d="M732.127,697.075c3.504-0.563,5.951-0.971,7.215-1.184l-0.011-77.693c-1.829-0.716-4.213-1.587-7.216-2.574
				L732.127,697.075z"/>
			<path d="M462.689,721.189c2.402-0.015,4.808-0.039,7.215-0.069l-0.02-132.23c-2.387-0.013-4.789-0.023-7.215-0.029
				L462.689,721.189z"/>
			<path d="M575.319,592.183c-2.374-0.146-4.779-0.289-7.215-0.427l0.018,124.708c2.416-0.188,4.823-0.379,7.215-0.574
				L575.319,592.183z"/>
			<path d="M169.804,691.209c2.125,0.396,4.536,0.84,7.215,1.327l0.012-80.666c-2.684,0.65-5.083,1.264-7.215,1.835L169.804,691.209
				z"/>
			<path d="M551.89,590.919c-2.378-0.11-4.783-0.217-7.216-0.32l0.019,127.535c2.414-0.156,4.818-0.316,7.215-0.481L551.89,590.919z
				"/>
			<path d="M563.604,591.507c-2.376-0.128-4.781-0.251-7.215-0.372l0.018,126.202c2.414-0.172,4.821-0.347,7.215-0.527
				L563.604,591.507z"/>
			<path d="M528.459,589.987c-2.379-0.079-4.786-0.154-7.215-0.225l0.02,129.715c2.409-0.121,4.814-0.247,7.214-0.378
				L528.459,589.987z"/>
			<path d="M540.174,590.415c-2.38-0.095-4.782-0.186-7.215-0.273l0.019,128.707c2.412-0.139,4.816-0.283,7.215-0.432
				L540.174,590.415z"/>
			<path d="M399.616,589.503c-2.429,0.057-4.829,0.119-7.215,0.182l-0.019,129.545c2.404,0.142,4.809,0.277,7.215,0.405
				L399.616,589.503z"/>
			<path d="M387.901,589.808c-2.427,0.07-4.833,0.143-7.215,0.22l-0.019,128.46c2.402,0.163,4.808,0.319,7.215,0.469
				L387.901,589.808z"/>
			<path d="M423.046,589.077c-2.419,0.032-4.835,0.064-7.215,0.104l-0.019,131.21c2.407,0.095,4.812,0.184,7.215,0.263
				L423.046,589.077z"/>
			<path d="M411.331,589.262c-2.424,0.044-4.831,0.091-7.215,0.142l-0.019,130.463c2.405,0.12,4.81,0.231,7.215,0.336
				L411.331,589.262z"/>
			<path d="M376.186,590.181c-2.427,0.084-4.835,0.17-7.215,0.261l-0.018,127.203c2.4,0.183,4.806,0.36,7.214,0.531L376.186,590.181
				z"/>
			<path d="M364.471,590.617c-2.432,0.098-4.833,0.201-7.215,0.306l-0.018,125.783c2.399,0.202,4.804,0.398,7.215,0.589
				L364.471,590.617z"/>
			<polygon points="153.6,618.906 149.571,620.468 149.946,687.304 153.59,688.042 			"/>
			<path d="M200.461,606.888c-2.528,0.475-4.925,0.943-7.215,1.405l-0.013,87.106c2.307,0.396,4.714,0.806,7.215,1.227
				L200.461,606.888z"/>
			<path d="M434.761,588.948c-2.423,0.021-4.83,0.044-7.215,0.071l-0.019,131.773c2.408,0.07,4.813,0.131,7.214,0.184
				L434.761,588.948z"/>
			<path d="M744.157,620.291c-0.066-0.034-0.176-0.089-0.326-0.163l0.011,74.985l5.764-1.001v-71.016L744.157,620.291z"/>
			<path d="M165.315,614.955c-3.359,0.97-5.733,1.743-7.215,2.255l-0.01,71.745l0.692,0.14c0.183,0.037,2.451,0.492,6.523,1.267
				L165.315,614.955z"/>
			<path d="M352.756,591.127c-2.429,0.113-4.839,0.229-7.215,0.349l-0.018,124.203c2.397,0.219,4.803,0.434,7.215,0.643
				L352.756,591.127z"/>
			<path d="M446.455,588.874c-2.423,0.009-4.807,0.026-7.194,0.042l-0.02,132.151c2.416,0.042,4.827,0.076,7.233,0.1
				L446.455,588.874z"/>
			<path d="M458.17,588.855c-0.481,0-0.957-0.001-1.44-0.001c-1.945,0-3.852,0.007-5.774,0.011l0.02,132.335
				c1.538,0.008,3.075,0.013,4.608,0.013c0.868,0,1.737-0.005,2.606-0.007L458.17,588.855z"/>
			<path d="M341.042,591.712c-2.434,0.129-4.837,0.263-7.215,0.399l-0.018,122.453c2.396,0.236,4.801,0.469,7.215,0.696
				L341.042,591.712z"/>
			<path d="M235.606,601.244c-2.464,0.338-4.881,0.678-7.215,1.019l-0.015,98.863c2.36,0.364,4.766,0.73,7.215,1.1L235.606,601.244z
				"/>
			<path d="M259.037,598.319c-2.46,0.278-4.856,0.559-7.215,0.842l-0.015,105.443c2.375,0.339,4.779,0.678,7.215,1.017
				L259.037,598.319z"/>
			<path d="M270.751,597.06c-2.452,0.251-4.853,0.505-7.215,0.762l-0.016,108.419c2.379,0.326,4.784,0.651,7.215,0.975
				L270.751,597.06z"/>
			<path d="M223.891,602.933c-2.487,0.377-4.882,0.755-7.215,1.133l-0.014,95.22c2.35,0.375,4.754,0.756,7.215,1.141
				L223.891,602.933z"/>
			<path d="M212.176,604.808c-2.5,0.421-4.902,0.84-7.215,1.256l-0.013,91.314c2.332,0.387,4.74,0.782,7.214,1.183L212.176,604.808z
				"/>
			<path d="M247.321,599.709c-2.465,0.307-4.863,0.617-7.215,0.928l-0.015,102.261c2.368,0.352,4.773,0.705,7.215,1.058
				L247.321,599.709z"/>
			<path d="M317.611,593.121c-2.437,0.165-4.842,0.332-7.215,0.504l-0.017,118.464c2.392,0.269,4.796,0.534,7.215,0.796
				L317.611,593.121z"/>
			<path d="M282.466,595.917c-2.45,0.227-4.847,0.458-7.215,0.691l-0.016,111.202c2.383,0.312,4.789,0.623,7.215,0.932
				L282.466,595.917z"/>
			<path d="M329.326,592.374c-2.434,0.146-4.84,0.296-7.215,0.449l-0.017,120.542c2.394,0.253,4.798,0.502,7.215,0.748
				L329.326,592.374z"/>
			<path d="M294.182,594.887c-2.444,0.205-4.846,0.413-7.215,0.624L286.95,709.31c2.386,0.298,4.792,0.594,7.215,0.887
				L294.182,594.887z"/>
			<path d="M305.896,593.958c-2.439,0.184-4.845,0.371-7.215,0.562l-0.017,116.217c2.389,0.284,4.794,0.564,7.214,0.842
				L305.896,593.958z"/>
		</g>
		<linearGradient id="SVGID_1_" gradientUnits="userSpaceOnUse" x1="147.8384" y1="602.6563" x2="749.6104" y2="602.6563">
			<stop  offset="0" style="stop-color:#505052"/>
			<stop  offset="0.2581" style="stop-color:#FFFFFF"/>
			<stop  offset="0.2852" style="stop-color:#E3E3E4"/>
			<stop  offset="0.3298" style="stop-color:#BDBDBE"/>
			<stop  offset="0.3775" style="stop-color:#9B9C9D"/>
			<stop  offset="0.4284" style="stop-color:#808182"/>
			<stop  offset="0.4836" style="stop-color:#6B6C6E"/>
			<stop  offset="0.545" style="stop-color:#5C5D5F"/>
			<stop  offset="0.6179" style="stop-color:#545557"/>
			<stop  offset="0.7312" style="stop-color:#515254"/>
		</linearGradient>
		<path fill="url(#SVGID_1_)" d="M731.653,631.842l-0.06-0.038c-0.553-0.352-13.985-8.716-53.614-17.229
			c-37.599-8.077-106.504-17.704-221.25-17.704c-217.827,0-289.695,33.013-290.396,33.346l-18.495,1.219L148,613.114
			c7.494-5.521,85.663-39.643,308.73-39.643c220.478,0,281.171,34.122,292.881,41.777v16.594H731.653z"/>
		<linearGradient id="SVGID_2_" gradientUnits="userSpaceOnUse" x1="147.8003" y1="703.708" x2="749.6104" y2="703.708">
			<stop  offset="0" style="stop-color:#505052"/>
			<stop  offset="0.2581" style="stop-color:#FFFFFF"/>
			<stop  offset="0.2852" style="stop-color:#E3E3E4"/>
			<stop  offset="0.3298" style="stop-color:#BDBDBE"/>
			<stop  offset="0.3775" style="stop-color:#9B9C9D"/>
			<stop  offset="0.4284" style="stop-color:#808182"/>
			<stop  offset="0.4836" style="stop-color:#6B6C6E"/>
			<stop  offset="0.545" style="stop-color:#5C5D5F"/>
			<stop  offset="0.6179" style="stop-color:#545557"/>
			<stop  offset="0.7312" style="stop-color:#515254"/>
		</linearGradient>
		<path fill="url(#SVGID_2_)" d="M455.844,735.693c-136.63,0-274.121-33.224-308.043-41.883v-22.088l16.887,1.833
			c1.559,0.387,157.441,38.737,291.156,38.737c133.995,0,278.438-30.472,279.882-30.78l13.885-0.379v21.711
			C708.069,711.63,592.277,735.693,455.844,735.693z"/>
	</g>
</g>
</svg>
