<svg xmlns="http://www.w3.org/2000/svg" width="899" height="1416"><path d="M710.69 649.032h-21.018c-8.88 0-16.079-7.607-16.079-16.991s7.2-16.992 16.08-16.992h21.017c8.88 0 16.079 7.608 16.079 16.992s-7.2 16.991-16.079 16.991z" fill="#292929"/><path d="M215.048 649.032H194.03c-8.88 0-16.079-7.607-16.079-16.991s7.2-16.992 16.079-16.992h21.018c8.88 0 16.078 7.608 16.078 16.992s-7.197 16.991-16.078 16.991z" fill="#444"/><path d="M326.956 598.438c-8.878 0-16.076-7.605-16.078-16.988-.003-9.383 7.195-16.992 16.075-16.994l255.462-.055h.003c8.879 0 16.076 7.606 16.079 16.988.002 9.384-7.196 16.993-16.076 16.995l-255.462.054h-.003z" fill="#292929"/><path d="M326.956 564.401h.003l125.401.027v33.983l-125.407-.027c-8.88 0-16.078-7.61-16.075-16.995.002-9.382 7.2-16.988 16.078-16.988z" fill="#444"/><path d="M483.715 649.032h-62.71c-8.88 0-16.08-7.607-16.08-16.991s7.2-16.992 16.08-16.992h62.71c8.88 0 16.08 7.608 16.08 16.992s-7.2 16.991-16.08 16.991z" fill="#292929"/><path d="M421.004 615.05h31.356v33.982h-31.356c-8.88 0-16.078-7.607-16.078-16.991s7.199-16.992 16.078-16.992z" fill="#444"/><path d="M397.761 567.495c-8.372-.6-99.262-6.86-135.13.289-4.638.923-20.893 5.122-35.287 20.336-10.693 11.3-23.435 32.211-23.435 67.655 0 73.291 46.61 112.153 89.919 117.245 4.515.53 9.03.793 13.527.793 29.388-.002 57.98-11.19 80.063-31.683 21.774-20.202 48.004-59.698 49.316-133.127.194-10.822-3.7-21.088-10.965-28.91-7.294-7.858-17.472-12.427-28.008-12.598zm279.615 20.625c-14.394-15.214-30.649-19.413-35.287-20.336-35.87-7.148-126.76-.887-135.13-.29-10.535.172-20.713 4.743-28.007 12.597-7.264 7.823-11.159 18.09-10.965 28.91 1.312 73.43 27.542 112.925 49.316 133.128 22.085 20.494 50.673 31.682 80.063 31.682 4.495 0 9.014-.261 13.527-.792 43.307-5.092 89.92-43.954 89.92-117.245-.002-35.444-12.744-56.355-23.437-67.654z" fill="#008de4"/><path d="M307.355 564.439c-17.445.216-33.689 1.145-44.724 3.344-4.638.923-20.893 5.122-35.287 20.336-10.693 11.3-23.435 32.211-23.435 67.655 0 73.291 46.61 112.153 89.919 117.245 4.515.53 9.03.792 13.527.792V564.44zm199.604 3.056c-10.535.17-20.713 4.742-28.007 12.596-7.264 7.823-11.159 18.09-10.965 28.91 1.312 73.43 27.542 112.925 49.316 133.128 22.085 20.494 50.673 31.682 80.063 31.682V564.44c-39.262-.487-84.611 2.64-90.407 3.055z" fill="#2ac1ff"/></svg>