<svg height="1415" width="899" xmlns="http://www.w3.org/2000/svg" xmlns:xlink="http://www.w3.org/1999/xlink"><defs><path id="a" d="m168.28 348.34h602.6v241.5h-602.6z"/><path id="b" d="m168.28 348.34h602.6v241.5h-602.6z"/><path id="c" d="m203.86 244.34c46.51-81.53 63.28-97.95 134.48-136.06 71.21-38.11 164.21-56.47 245.47-38.11 81.27 18.35 168.33 49.29 229.58 107.31 40.84 38.68 62.22 91.42 64.16 158.21l-10.7 110.7c15.86 75.78 19.42 128.27 10.7 157.45-8.72 29.19-34.05 66.84-75.99 112.98 9.93-58.95 9.93-101.47 0-127.55-9.92-26.09-15.81-48.11-17.66-66.06-.95-7.65-5.67-45.89-14.18-114.74h-602.62c3.84-73.18 16.09-127.9 36.76-164.13z"/><path id="d" d="m704.85 335.69c12.68 1.5 22.81 6.79 30.37 15.89s17.62 28.06 30.16 56.89c13.45-27.45 21.16-46.42 23.15-56.89s8.61-20.92 19.88-31.34"/><path id="e" d="m883.34 741.38c.49 19.05-9.51 32.05-30 39-30.74 10.42-62.13 14.27-72.59-2.06s-24.5-11.37-26.86-30.54c-2.35-19.17-18.19-37.28-7.68-62.54 4.95-11.88 13.66-10.9 21.1-16.35 8.38-6.13 15.4-23.38 29.88-22.23 4.35.34 25.23 5.35 25.23 5.35-8.71 17.06 21.55-1.16 32.42 1.42 13.13 3.1 6.15 9.59 15.85 25.28s16.93 9.73 19.69 32.22c1.84 14.99-.5 25.14-7.04 30.45z"/><path id="f" d="m306.74 373.73-95.35-137.21-59.5 167.44z"/><path id="g" d="m467.24 356.17-91.93-151.96-73.46 167.44z"/><path id="h" d="m633.27 378.87-89.38-181.88-87.41 155.29z"/><path id="i" d="m782.42 426.27-75.23-201.38-84.17 144.67z"/><path id="j" d="m181.38 517.33c31.31-7.96 64.11 0 75.84 0 22.28 0 41.36-22.83 83.43-22.83 54.18 0 90.21-12.95 116.13-12.95 17.16 0 36.65 5.97 61.93 4.12 14.5-1.05 34.4 8.84 64.05 5.12 19.99-2.51 34.27 12.94 93.4 12.94 10.55 0 20.79-.47 40.23 6.14 9.47 3.23 27.63 11.08 54.49 23.57v-123.73c-10.64-3.57-21.69-5.35-33.13-5.35-33.38 0-45.01-10.15-50.82-15.1-13.88-11.82-73.81-10.26-87.33-21.36-16.84-13.83-64.48-3.67-116.32-12.44-10.09-1.71-49.76 12.44-62 9.41-19.98-4.97-67.81-4.97-89.51.92-14.05 3.82-28.57 18.08-74.55 18.08-20.76 0-57.29 0-75.84 13.04-4.35 3.05-17.25 7.32-38.71 12.8v123.73c20.18-9.31 33.08-14.67 38.71-16.11z"/></defs><g fill="none"><use xlink:href="#a"/><use xlink:href="#a"/><use xlink:href="#b"/><use xlink:href="#b"/></g><use fill="#0e6630" xlink:href="#c"/><use fill="none" stroke="#333" stroke-width="26.97" xlink:href="#c"/><use fill="none" xlink:href="#d"/><use fill="none" stroke="#333" stroke-width="26.97" xlink:href="#d"/><use fill="#d00202" xlink:href="#e"/><use fill="none" stroke="#333" stroke-width="26.97" xlink:href="#e"/><use fill="#d00202" xlink:href="#f"/><use fill="none" stroke="#000" xlink:href="#f"/><use fill="#d00202" xlink:href="#g"/><use fill="none" stroke="#000" xlink:href="#g"/><use fill="#d00202" xlink:href="#h"/><use fill="none" stroke="#000" xlink:href="#h"/><use fill="#d00202" xlink:href="#i"/><use fill="none" stroke="#000" xlink:href="#i"/><use fill="#d00202" xlink:href="#j"/><use fill="none" stroke="#333" stroke-width="26.97" xlink:href="#j"/></svg>