<svg height="1416" width="899" xmlns="http://www.w3.org/2000/svg"><g fill="none" fill-rule="evenodd" stroke="#333" stroke-width="26.97"><path d="m155.168 493.268c1.05-46.458-1.872-76.544-8.766-90.258-10.34-20.57-43.913-24.44-59.265-38.107-31.375-27.929-45.926-55.666-51.647-61.707-12.782-13.494-15.141-46.196 0-46.196h826.349c13.052 0 13.052 30.916 0 46.196s-28.448 41.642-51.539 61.707-49.593 23.15-63.329 38.107c-9.157 9.972-9.157 37.724 0 83.256-133.284-32.727-232.836-49.091-298.657-49.091s-163.536 18.698-293.146 56.093z" fill="#004ca4"/><path d="m147.238 532.204c16.78-7.912 29.252-12.857 37.417-14.836 30.27-7.336 61.97 0 73.31 0 21.544 0 39.988-21.04 80.655-21.04 52.378 0 87.207-11.928 112.256-11.928 16.596 0 35.433 5.494 59.871 3.797 14.012-.973 33.25 8.138 61.914 4.71 19.325-2.312 33.13 11.922 90.292 11.922 10.196 0 20.094-.428 38.886 5.665 9.154 2.968 26.713 10.205 52.675 21.71v-114.005c-10.285-3.282-20.962-4.924-32.03-4.924-32.259 0-43.506-9.354-49.124-13.914-13.416-10.89-71.351-9.457-84.415-19.68-16.284-12.744-62.336-3.382-112.448-11.462-9.758-1.574-48.105 11.461-59.93 8.664-19.32-4.572-65.551-4.572-86.528.854-13.583 3.513-27.618 16.652-72.073 16.652-20.066 0-55.378 0-73.311 12.015-4.203 2.816-16.675 6.747-37.417 11.795z" fill="#fcfcfc" stroke-linecap="round" stroke-linejoin="round"/><g fill="#004ca4" stroke-linejoin="round"><path d="m26 271.493v-99.895h80.995v99.895" stroke-linecap="round"/><path d="m121.545 271.493v-99.895h80.995v99.895" stroke-linecap="square"/><path d="m217.089 271.493v-99.895h80.996v99.895" stroke-linecap="round"/><path d="m312.634 271.493v-99.895h80.995v99.895" stroke-linecap="square"/><path d="m408.178 271.493v-134.318h80.996v134.318" stroke-linecap="round"/><path d="m503.723 271.493v-99.895h80.995v99.895" stroke-linecap="square"/><path d="m599.268 271.493v-99.895h80.995v99.895" stroke-linecap="round"/><path d="m694.812 271.493v-99.895h80.996v99.895" stroke-linecap="square"/><path d="m790.357 271.493v-99.895h80.995v99.895" stroke-linecap="round"/></g><path d="m64.033 170.846c-16.535 0-34.033-14.19-34.033-45.604 0-20.943 11.344-44.024 34.033-69.242 19.377 29.129 29.067 52.21 29.067 69.242 0 25.548-12.532 45.604-29.067 45.604zm483.287 0c16.535 0 34.033-14.19 34.033-45.604 0-20.943-11.345-44.024-34.033-69.242-19.378 29.129-29.067 52.21-29.067 69.242 0 25.548 12.532 45.604 29.067 45.604zm-384.287 0c-16.535 0-34.033-14.19-34.033-45.604 0-20.943 11.344-44.024 34.033-69.242 19.378 29.129 29.067 52.21 29.067 69.242 0 25.548-12.532 45.604-29.067 45.604zm488.252 0c-16.535 0-34.033-14.19-34.033-45.604 0-20.943 11.345-44.024 34.033-69.242 19.378 29.129 29.067 52.21 29.067 69.242 0 25.548-12.532 45.604-29.067 45.604zm-300.252 0c-16.535 0-34.033-14.19-34.033-45.604 0-20.943 11.344-44.024 34.033-69.242 19.378 29.129 29.067 52.21 29.067 69.242 0 25.548-12.532 45.604-29.067 45.604zm483.287 0c16.535 0 34.033-14.19 34.033-45.604 0-20.943-11.345-44.024-34.033-69.242-19.378 29.129-29.067 52.21-29.067 69.242 0 25.548 12.532 45.604 29.067 45.604zm-389.253-32c16.535 0 34.033-14.19 34.033-45.604 0-20.943-11.344-44.024-34.033-69.242-19.377 29.129-29.067 52.21-29.067 69.242 0 25.548 12.532 45.604 29.067 45.604zm-192 32c16.535 0 34.033-14.19 34.033-45.604 0-20.943-11.344-44.024-34.033-69.242-19.377 29.129-29.067 52.21-29.067 69.242 0 25.548 12.532 45.604 29.067 45.604zm493.218 0c-16.535 0-34.033-14.19-34.033-45.604 0-20.943 11.345-44.024 34.033-69.242 19.378 29.129 29.067 52.21 29.067 69.242 0 25.548-12.532 45.604-29.067 45.604z" fill="#f5a623"/></g></svg>