<?xml version="1.0" encoding="utf-8"?>
<!-- Generator: Adobe Illustrator 22.1.0, SVG Export Plug-In . SVG Version: 6.00 Build 0)  -->
<svg version="1.1" id="Layer_1" xmlns="http://www.w3.org/2000/svg" xmlns:xlink="http://www.w3.org/1999/xlink" x="0px" y="0px"
	 viewBox="0 0 899.2 1415.7" style="enable-background:new 0 0 899.2 1415.7;" xml:space="preserve">
<style type="text/css">
	.st0{fill:none;}
	.st1{fill:#333333;}
	.st2{fill:#F45742;}
	.st3{fill:none;stroke:#FFFFFF;stroke-width:33.7692;stroke-miterlimit:10;}
	.st4{fill:none;stroke:#333333;stroke-width:28.232;stroke-miterlimit:10;}
	.st5{fill:#F45742;stroke:#333333;stroke-width:28.232;stroke-miterlimit:10;}
</style>
<g>
	<rect x="27" y="208.1" class="st0" width="845.2" height="483"/>
	<g>
		<path class="st1" d="M538.7,101.3c0-10,0.5-15.7-0.7-25.4c-0.2-2-1.9-3.5-3.9-3.5l-3.4,0.1c-2.9,0.1-4.8-3.1-3.4-5.8
			c8.3-16.4-11.1-30.2-26.8-38.1c-1.4-0.7-3.1-0.4-4.2,0.7l0,0c-2.7,2.7-7.1,0.1-6.2-3.7c1.5-6.6,2.5-13.6,4.5-19.6
			c0.7-2.1-0.5-4.4-2.5-5c-19.3-5.9-68.8,15.8-82.5,36c-1,1.5-2.9,2-4.5,1.3c-16.1-7.1-18-5.3-29.1,15.2c-0.9,1.7-0.5,3.8,0.9,5
			c5.2,4.5,7.9,10.3,10.2,14.7c1.3,2.6-0.4,5.7-3.1,5.8l0,0c-9.3,0.4-16.5,8.7-16.1,18.6c0.2,4.9,0.6,9.8,1.3,13.4
			c0.3,1.9,2,3.3,3.8,3.2l10.1-0.4c3.7-0.2,5.4,4.9,2.3,7.2c-3.2,2.4-6.5,4.8-9.8,6.8c-1.4,0.8-2.1,2.4-1.9,4
			c3.2,20.3,16.9,65.3,39.5,32.5c1.5-2.1,4.5-2.1,6-0.1c13.9,19.3,61.3,16.5,46.8-27.4c2.7,9,10.7,17.1,15.5,25.6
			c0.9,1.7,2.9,2.3,4.6,1.5c18.6-8.6,26-24.2,25.6-39.6c-0.1-2.4,1.9-4.4,4.2-4.1l0.8,0.1c10.2,1.4,19.4-5.8,21.7-16.3
			c0.1-0.5,0.2-1,0.4-1.4C538.7,102.1,538.7,101.7,538.7,101.3z"/>
		<path class="st2" d="M155.2,475.6c-1.8-150.3,84.9-157.2,104.2-233.5c0.1-0.6,0.3-1.2,0.4-1.7c17.8-71.6,79-121.6,149.1-121.6
			h76.2c62.6,0,118.5,40.2,142.6,101.1c3.4,8.7,7.3,16.4,11.5,22.2C663,274.8,751.5,345,751.5,456.5"/>
		<g>
			<path class="st3" d="M711.9,335.3c-149.2-33.5-356.4-42.4-505.5-8.4"/>
		</g>
		<g>
			<path class="st3" d="M652.3,262.1c-149.2-33.5-246.8-44.3-395.9-10.3"/>
		</g>
		<g>
			<path class="st3" d="M612,193.8c-149.2-33.5-200.1-39-330.1,0"/>
		</g>
		<path class="st4" d="M155.2,475.6c-1.8-150.3,84.9-157.2,104.2-233.5c0.1-0.6,0.3-1.2,0.4-1.7c17.8-71.6,79-121.6,149.1-121.6
			h76.2c62.6,0,118.5,40.2,142.6,101.1c3.4,8.7,7.3,16.4,11.5,22.2C663,274.8,751.5,345,751.5,456.5"/>
		<g>
			<path class="st5" d="M767,406.7c-209.3-67.5-425.5-67.5-634.8,0c-13.8,4.5-22.6,23.8-19.7,42.7c2.9,19.3,5.9,38.7,8.8,58
				c5.3,34,28.1,55,51,48.1c183-55.2,371.4-55.2,554.4-0.1c23,6.9,45.9-14.2,51.2-48.3c2.9-19.3,5.8-38.5,8.8-57.8
				C789.6,430.5,780.8,411.2,767,406.7z"/>
		</g>
	</g>
</g>
</svg>
