<svg xmlns="http://www.w3.org/2000/svg" width="899.21" height="1415"><path fill="#FCEE25" d="M449.605 360.744c-42.692 73.964-287.994 92.84-287.994 92.84v89.339c116.074 0 262.183 14.396 287.994 14.396s171.92-14.396 287.994-14.396v-89.339c.001 0-245.301-18.876-287.994-92.84z"/><path fill="#DB2C29" stroke="#343333" stroke-width="9" stroke-miterlimit="10" d="M449.59 412.363l16.922 34.285 37.836 5.498-27.379 26.687 6.463 37.683-33.842-17.791-33.841 17.791 6.463-37.683-27.378-26.687 37.836-5.498z"/><path fill="#E5D540" d="M233.46 444.958l9.943 99.849 77.115 4.091 6.784-122.615s-39.695 13.036-93.842 18.675z"/><linearGradient id="a" gradientUnits="userSpaceOnUse" x1="449.606" y1="459.018" x2="590.539" y2="459.018"><stop offset="0" stop-color="#fff"/><stop offset=".872" stop-color="#fff" stop-opacity=".128"/><stop offset="1" stop-color="#fff" stop-opacity="0"/></linearGradient><path opacity=".5" fill="url(#a)" d="M449.605 360.744l2.232 196.547 138.701-9.122-10.147-119.961c.001 0-114.862-37.776-130.786-67.464z"/><path fill="#343333" d="M449.605 566.319c-8.593 0-29.137-1.473-57.57-3.51-60.476-4.335-151.868-10.886-230.424-10.886a9 9 0 0 1-9-9v-89.339a9.002 9.002 0 0 1 8.309-8.974c.609-.047 61.664-4.853 127.006-18.555 84.543-17.729 137.756-41.869 153.884-69.811a9.001 9.001 0 0 1 15.59 0c16.14 27.962 69.412 52.115 154.057 69.847 65.335 13.687 126.226 18.473 126.833 18.519a9.002 9.002 0 0 1 8.31 8.974v89.339a9 9 0 0 1-9 9c-78.556 0-169.948 6.551-230.425 10.886-28.433 2.038-48.976 3.51-57.57 3.51zm-278.994-32.368c77.07.465 164.267 6.715 222.711 10.904 27.004 1.936 48.333 3.464 56.283 3.464s29.278-1.529 56.283-3.464c58.444-4.189 145.641-10.439 222.711-10.904V461.82c-19.124-1.817-68.619-7.172-120.833-18.11-80.862-16.939-133.945-39.649-158.161-67.615-24.216 27.966-77.299 50.675-158.162 67.615-52.214 10.938-101.708 16.293-120.833 18.11v72.131z"/></svg>