<svg height="1416" width="899" xmlns="http://www.w3.org/2000/svg"><g fill="none" fill-rule="evenodd" stroke="#333" stroke-width="26.97"><path d="m657.697 68.507 48.712 302.21c102.254 12.191 173.285 34.868 173.285 73.643 0 44.468-143.49 70.751-430.473 78.85-286.921-5.64-430.411-31.185-430.471-76.635-.052-38.887 69.992-62.037 170.593-74.75l51.755-301.708c-.051-1.621.087-3.23.415-4.83 8.501-41.459 101.231-44.287 207.444-44.287 81.863 0 162.193 2.582 195.217 21.017 9.822 5.483 12.34 16.94 13.524 24.354a6.83 6.83 0 0 1 0 2.136z" fill="#000" stroke-linecap="round"/><path d="m171 410.81 22.476-127.263c112.367-10.365 197.584-15.547 255.65-15.547 58.067 0 143.258 5.182 255.573 15.547l22.555 127.263c-127.994-12.764-223.735-19.146-287.223-19.146-63.487 0-153.164 6.382-269.031 19.146z" fill="#000"/><g stroke-linejoin="round"><path d="m355.431 408.474 16.638-151.474h146.45l18.447 151.474z" fill="#f5c023"/><path d="m419 356.474 4.998-46.474h43.995l5.542 46.474z" fill="#333"/></g></g></svg>