<svg xmlns="http://www.w3.org/2000/svg" width="899" height="1415"><path d="M803.175 262.457C731.073 180.248 577.099 94.694 419.506 76.714c-60.064-6.837-130.549-1.723-186.16 21.975-148.379 63.242-156.88 208.223-83.757 264.165l283.195 14.688 318.664 34.024c47.274-1.867 84.563-27.542 83.583-76.283-.534-27.257-13.887-52.335-31.856-72.826zm0 0" fill="#f25c58"/><path d="M149.59 362.854c-2.158-21.129 11.109-41.37 32.238-47.32 174.825-49.245 381.935-39.515 550.758 27.438 22.869 9.051 34.042 34.94 24.99 57.792-9.033 22.834-34.922 34.036-57.78 24.973-150.83-59.78-337.67-68.507-493.841-24.515-26.36 7.427-53.42-10.512-56.366-38.368zm0 0M686.519 100.07c0 22.346-12.35 41.8-30.586 51.917a712.21 712.21 0 0 0-86.68-38.872 59.033 59.033 0 0 1-1.443-13.046c0-32.778 26.58-59.351 59.351-59.351 32.778 0 59.358 26.573 59.358 59.351zm0 0" fill="#995f47"/><path d="M342.273 114.907c-8.193 0-14.838 6.65-14.838 14.838 0 8.193 6.645 14.838 14.838 14.838s14.838-6.645 14.838-14.838c0-8.187-6.645-14.838-14.838-14.838zm0 0" fill="#333"/><path d="M682.361 149.633c12.038-13.417 18.995-30.998 18.995-49.564 0-40.907-33.282-74.19-74.195-74.19-38.112 0-69.597 28.9-73.72 65.933-44.206-14.832-88.598-24.857-132.259-29.838-69.962-7.967-140.545.44-193.652 23.066-85.612 36.489-128.676 99.777-136.376 161.019-6.146 48.857 10.924 96.043 44.716 124.762 7.22 33.619 41.354 53.913 74.109 44.688 152.785-43.041 338.372-33.84 484.344 24.022 22.706 9.005 47.801 3.015 64.17-13.539 96.31-7.84 119.23-101.024 55.838-173.317-31.537-35.961-77.895-72.079-131.97-103.042zm-55.2-94.078c24.55 0 44.52 19.97 44.52 44.514 0 13.62-6.257 26.336-16.676 34.703a729.254 729.254 0 0 0-72.294-32.418 49.736 49.736 0 0 1-.063-2.285c0-24.544 19.969-44.514 44.513-44.514zm78.104 356.388C549.487 350.197 359.1 342.665 201.93 386.94c-17.424 4.91-35.585-6.895-37.585-25.594-1.461-14.351 7.584-27.612 21.506-31.531 173.282-48.81 375.626-38.739 541.272 26.95 15.14 5.996 22.741 23.176 16.653 38.542-6.036 15.25-23.338 22.654-38.512 16.635zm69.643-18.891c3.943-26.284-10.35-53.385-36.848-63.874-171.485-68.003-380.926-78.44-560.25-27.925-16.88 4.749-30.157 16.386-37.353 31.23-16.282-22.115-23.733-51.89-19.86-82.725 7.335-58.342 50.55-108.428 118.564-137.414 48.527-20.677 113.647-28.29 178.658-20.885 155.064 17.69 305.24 102.154 374.2 180.78 39.921 45.528 40.582 104.972-17.11 120.813zm0 0" fill="#333"/><path d="M280.474 129.182c-60.21 17.07-115.548 54.44-128.084 116.326-1.63 8.03 3.566 15.859 11.596 17.488.992.197 1.983.296 2.963.296 6.912 0 13.099-4.854 14.525-11.893 10.205-50.381 58.11-79.785 107.095-93.666 7.886-2.232 12.466-10.437 10.228-18.322-2.232-7.886-10.437-12.46-18.323-10.229zm0 0" fill="#333"/></svg>