<svg width="899" height="1415" fill="none" xmlns="http://www.w3.org/2000/svg"><g clip-path="url(#clip0)"><path d="M452 236c-235.2 0-332 96.9-332 96.9V688c0 73.8 110.7 336.7 332 405.9 221.3-69.2 332-346 332-406V333S687.2 236 452 236z" fill="#FFEEE2" stroke="#000" stroke-width="12.5" stroke-miterlimit="10"/><path d="M452 236c-235.2 0-332 96.9-332 96.9V688c0 73.8 110.7 336.7 332 405.9 221.3-69.2 332-346 332-406V333S687.2 236 452 236z" stroke="#000" stroke-width="12.5" stroke-miterlimit="10"/><path d="M604.3 803.4h-83l-41.6-55.7h-55.4l-46.1 55.7h-78.5L189 706l96.9 153h124.6l41.5-41.7 41.5 41.7h124.6L715 706l-110.7 97.4zM424 942h56v132.8l-28 33.2-28-33.2V942zM618 554c-28.3 0-53.2 11-69 28 15.8 17 40.7 28 69 28 28.3 0 53.2-11 69-28a94.4 94.4 0 0 0-69-28zM271.7 487.8c44.4 0 61.8 12.4 68.6 19 9.7 9.6 29 9.6 38.7 0 9.7-9.5-18.6-31-31.7-38-13.2-7.1-30.3-9.8-61.6-9.8-62 0-96.7 53.2-96.7 53.2s37.2-24.4 82.7-24.4zM632.3 487.8c-44.4 0-61.8 12.4-68.6 19-9.7 9.6-29 9.6-38.7 0-9.7-9.5 18.6-31 31.7-38 13.2-7.1 30.3-9.8 61.6-9.8 62 0 96.7 53.2 96.7 53.2s-37.2-24.4-82.7-24.4zM217 582c15.8 17 40.7 28 69 28 28.3 0 53.2-11 69-28a94.4 94.4 0 0 0-69-28c-28.3 0-53.2 11-69 28z" fill="#000"/></g><defs><clipPath id="clip0"><path fill="#fff" d="M0 0h899v1415H0z"/></clipPath></defs></svg>