<svg xmlns="http://www.w3.org/2000/svg" width="899" height="1415"><path d="M150.452 892.686v69.183h77.857a111.088 111.088 0 0 1-9.716-45.5v-23.686z" fill="#9ea7af"/><g fill="#368c0e"><path d="M149.809 719.006V549.725h-34.985c-38.506 0-69.722 31.217-69.722 69.722v75.782c0 38.505 31.216 69.719 69.722 69.719h42.38a146.366 146.366 0 0 1-7.395-45.942zM781.698 549.725H746.71v169.28c0 15.876-2.574 31.344-7.395 45.943h42.383c38.509 0 69.72-31.214 69.72-69.72v-75.78c0-38.506-31.211-69.723-69.72-69.723z"/></g><path d="M366.523 306.594c-1.527 0-3.019.616-4.104 1.686l-54.198 53.803a8.734 8.734 0 0 1-6.148 2.527c-2.308 0-4.52-.911-6.15-2.527l-52.618-52.243a5.777 5.777 0 0 0-4.101-1.683 5.794 5.794 0 0 0-3.972 1.56l-82.48 77.057a8.649 8.649 0 0 1-2.947 1.799v330.433c0 49.466 24.692 95.106 66.055 122.089a6.001 6.001 0 0 1 2.734 5.045v70.232c0 48.125 30.543 89.203 73.158 104.665 14.643-25.884 20.202-13.125 21.498 5.404 5.202.758 10.519 1.158 15.927 1.158h73.338c1.459-1.044 3.59-1.501 7.23-1.47 1.584-.22 3.457-.352 5.173-.447-.3-.195-.085-.188.508-.027.711-.037 1.513-.082 2.012-.11 3.805-.21 6.524.21 8.949 1.098.262 0 .345.01 2.578-.071 2.37.11 4.743.086 7.115.07 2.246-.01 4.494 0 6.74 0h62.156c4.823-.097 7.027.086 9.225.956h53.136c60.98 0 110.584-49.893 110.584-111.226v-70.233a6.004 6.004 0 0 1 2.732-5.045c41.363-26.982 66.054-72.62 66.054-122.088V385.067c-.386-.141-.783-.25-1.152-.45l-131.038-71.08a5.86 5.86 0 0 0-2.775-.704c-1.55 0-3.01.598-4.11 1.686l-49.478 49.121a8.738 8.738 0 0 1-6.15 2.53 8.732 8.732 0 0 1-6.151-2.53l-49.48-49.124a5.879 5.879 0 0 0-4.105-1.683 5.792 5.792 0 0 0-4.104 1.686l-49.477 49.121a8.728 8.728 0 0 1-6.15 2.53 8.732 8.732 0 0 1-6.152-2.53l-55.76-55.363a5.795 5.795 0 0 0-4.102-1.683zm61.57 720.772c.153.073.305.156.457.233h.396a8.743 8.743 0 0 0-.853-.233z" fill="#5dc647"/><path d="M223.593 320.59l-70.835 66.182a8.643 8.643 0 0 1-2.946 1.798v330.433c0 49.465 24.691 95.106 66.054 122.089a6 6 0 0 1 2.732 5.045v70.232c0 48.126 30.552 89.182 73.166 104.643.182-.322.37-.666.55-.976V814.305a5.996 5.996 0 0 0-2.734-5.042c-41.363-26.983-66.054-72.622-66.054-122.09v-364.17c0-.808.056-1.604.067-2.412z" opacity=".15" fill="#490089"/><path d="M204.263 608.077c0 35.012 28.383 63.395 63.395 63.395h47.177c35.011 0 63.394-28.383 63.394-63.395V594.81H204.263z" fill="#fff"/><path d="M146.792 389.119a8.797 8.797 0 0 1-3.44-.705 8.607 8.607 0 0 1-5.246-7.908V217.47c0-82.622 67.52-149.838 150.519-149.838h319.272c82.997 0 150.52 67.216 150.52 149.838v159.592a8.594 8.594 0 0 1-4.261 7.407 8.756 8.756 0 0 1-8.598.147L614.52 313.538a5.859 5.859 0 0 0-2.775-.705c-1.55 0-3.01.599-4.11 1.687l-49.474 49.12a8.74 8.74 0 0 1-12.302 0l-49.48-49.123a5.876 5.876 0 0 0-4.104-1.684 5.794 5.794 0 0 0-4.105 1.687l-49.477 49.12a8.73 8.73 0 0 1-6.15 2.53 8.73 8.73 0 0 1-6.151-2.53l-55.761-55.362a5.793 5.793 0 0 0-4.102-1.684c-1.527 0-3.019.616-4.104 1.686l-54.198 53.803a8.733 8.733 0 0 1-6.148 2.527 8.74 8.74 0 0 1-6.15-2.527l-52.624-52.243a5.778 5.778 0 0 0-4.101-1.683 5.794 5.794 0 0 0-3.972 1.56l-82.48 77.058a8.716 8.716 0 0 1-5.96 2.344z" fill="#203a74"/><path d="M146.792 389.119a8.797 8.797 0 0 1-3.44-.705 8.607 8.607 0 0 1-5.246-7.908V217.47c0-82.622 67.52-149.838 150.519-149.838h319.272c82.997 0 150.52 67.216 150.52 149.838v159.592a8.594 8.594 0 0 1-4.261 7.407 8.756 8.756 0 0 1-8.598.147L614.52 313.538a5.859 5.859 0 0 0-2.775-.705c-1.55 0-3.01.599-4.11 1.687l-49.474 49.12a8.74 8.74 0 0 1-12.302 0l-49.48-49.123a5.876 5.876 0 0 0-4.104-1.684 5.794 5.794 0 0 0-4.105 1.687l-49.477 49.12a8.73 8.73 0 0 1-6.15 2.53 8.73 8.73 0 0 1-6.151-2.53l-55.761-55.362a5.793 5.793 0 0 0-4.102-1.684c-1.527 0-3.019.616-4.104 1.686l-54.198 53.803a8.733 8.733 0 0 1-6.148 2.527 8.74 8.74 0 0 1-6.15-2.527l-52.624-52.243a5.778 5.778 0 0 0-4.101-1.683 5.794 5.794 0 0 0-3.972 1.56l-82.48 77.058a8.716 8.716 0 0 1-5.96 2.344z" fill="#083e63"/><path d="M223.06 217.47c0-82.622 67.52-149.838 150.52-149.838h-84.958c-82.997 0-150.52 67.216-150.52 149.838v163.036c0 3.438 2.062 6.546 5.246 7.908a8.796 8.796 0 0 0 3.441.705c2.173 0 4.32-.808 5.96-2.347l70.308-65.686z" fill="#0f001e" opacity=".15"/><path d="M678.25 610.17c0 35.012-28.383 63.395-63.394 63.395h-47.177c-35.012 0-63.395-28.383-63.395-63.394 0-35.012 28.383-63.395 63.395-63.395h47.177c35.008 0 63.395 28.383 63.395 63.395z" fill="#fff"/><path d="M746.068 892.686h-68.142v23.686c0 16.208-3.491 31.6-9.716 45.5h77.858z" fill="#9ea7af"/><g fill="#c5ccd3"><path d="M807.988 983.166c0 8.109-6.634 14.743-14.743 14.743H760.81c-8.109 0-14.743-6.634-14.743-14.743V871.39c0-8.11 6.634-14.743 14.743-14.743h32.434c8.109 0 14.743 6.634 14.743 14.743zM150.451 983.166c0 8.109-6.634 14.743-14.742 14.743h-32.435c-8.108 0-14.743-6.634-14.743-14.743V871.39c0-8.11 6.635-14.743 14.743-14.743h32.435c8.108 0 14.742 6.634 14.742 14.743zM283.005 478.959c0 4.865-3.98 8.846-8.846 8.846H241.99c-4.865 0-8.846-3.98-8.846-8.846V425.61c0-4.865 3.981-8.845 8.846-8.845h32.17c4.864 0 8.845 3.98 8.845 8.845zM536.583 478.959c0 4.865-3.98 8.846-8.846 8.846h-32.169c-4.865 0-8.846-3.98-8.846-8.846V425.61c0-4.865 3.98-8.845 8.846-8.845h32.17c4.864 0 8.845 3.98 8.845 8.845zM663.372 478.959c0 4.865-3.98 8.846-8.846 8.846h-32.169c-4.865 0-8.846-3.98-8.846-8.846V425.61c0-4.865 3.98-8.845 8.846-8.845h32.169c4.865 0 8.846 3.98 8.846 8.845z"/></g><path d="M567.679 695.68h47.177c47.148 0 85.509-38.358 85.509-85.51 0-47.15-38.361-85.508-85.509-85.508h-47.177c-47.148 0-85.51 38.358-85.51 85.509 0 47.15 38.362 85.509 85.51 85.509zm0-126.79h47.177c22.763 0 41.28 18.518 41.28 41.28 0 22.764-18.517 41.281-41.28 41.281h-47.177c-22.764 0-41.28-18.517-41.28-41.28s18.514-41.28 41.28-41.28z" fill="#333"/><path d="M591.267 632.285c5.809 0 11.53-2.359 15.628-6.487 4.128-4.098 6.487-9.818 6.487-15.627 0-5.809-2.36-11.5-6.487-15.628-4.099-4.128-9.79-6.487-15.628-6.487-5.838 0-11.529 2.36-15.627 6.487-4.128 4.099-6.487 9.82-6.487 15.628 0 5.809 2.359 11.529 6.487 15.627 4.095 4.128 9.816 6.487 15.627 6.487zM572.102 862.274c0-12.213-9.899-22.114-22.115-22.114H346.535c-12.216 0-22.114 9.901-22.114 22.114 0 12.214 9.898 22.115 22.114 22.115h203.452c12.216 0 22.115-9.901 22.115-22.115zM371.722 744.028c0 26.994 21.96 48.955 48.958 48.955h55.16c26.993 0 48.957-21.961 48.957-48.955V723.06c0-12.213-9.898-22.114-22.114-22.114-12.213 0-22.114 9.901-22.114 22.114v20.968c0 2.562-2.164 4.726-4.73 4.726H420.68c-2.562 0-4.73-2.164-4.73-4.726V615.116c14.782-4.8 25.503-18.688 25.503-35.05v-24.444c0-12.213-9.898-22.114-22.115-22.114-12.215 0-22.114 9.901-22.114 22.114v17.072H204.263c-12.216 0-22.114 9.902-22.114 22.115v13.268c0 47.151 38.36 85.51 85.509 85.51h47.177c21.825 0 41.76-8.233 56.887-21.74zm-56.887-94.67h-47.177c-19.726 0-36.268-13.909-40.328-32.435h41.834c0 .206-.032.413-.032.62 0 5.838 2.36 11.528 6.487 15.627 4.099 4.128 9.819 6.487 15.628 6.487 5.808 0 11.496-2.36 15.627-6.487 4.128-4.099 6.487-9.819 6.487-15.628 0-.206-.027-.413-.032-.619h41.834c-4.06 18.523-20.602 32.434-40.328 32.434z" fill="#333"/><path d="M288.625 45.516c-95.189 0-172.635 77.14-172.635 171.954v163.035c0 9.544 4.419 18.337 11.705 24.08V527.61h-12.87c-50.64 0-91.84 41.2-91.84 91.839v75.782c0 50.636 41.2 91.832 91.84 91.832h27.206c11.747 26.573 30.34 49.924 54.453 67.516v15.994h-23.952c-.442-19.945-16.773-36.04-36.818-36.04H103.28c-20.324 0-36.857 16.532-36.857 36.857v111.778c0 20.324 16.533 36.857 36.857 36.857h32.434c20.048 0 36.379-16.098 36.818-36.042h42.342a134.06 134.06 0 0 0 17.247 23.143c.674-.098 1.368.032 2.066.17 3.33-.37 6.43 1.728 9.256 4.98.129.01.442.06.613.15.307.054.62.1.938.137.07 0 .144-.011.215-.011 12.188-6.262 24.832-8.323 25.959 4.256 3.497-.66 6.824 2.649 9.644 7.6 1.39-.02 2.734.085 4.004.343l.476-.061c-.298-.107-.599-.207-.896-.318-.335-.125.687.2 1.031.3-.045.012-.09.012-.135.018 1.256.45 2.521.873 3.784 1.305 18.603-36.13 24.115-15.489 24.483 7.517-.231-.094-.485-.18-.726-.273.187.101.37.19.561.302.056 0 .112.01.168.015v-.04l.126.053c.952.07 1.905.173 2.853.322 1.92-.061 6.031.023 5.69 0 2.225-.012 4.452-.011 6.678-.011-1.06.89.867.29 2.044.035.014-.093.029-.097.049-.012.437-.093.771-.138.771-.024 0 1.013-.01 1.81-.01 2.784.28.054.556.117.825.187.058-1.032.096-1.897.159-2.971.019-.336.673 0 1.009 0-.168.382 1.091.179 2 .048.017-.164.035-.15.06-.011.448-.063.82-.11.82-.04-.01 1.721-.015 3.194-.022 4.8.215.145.427.293.633.45.096-1.748.182-3.408.29-5.25.019-.339.677 0 1.016 0-.152.355 1.112.168 2.025.047.017-.16.04-.15.063-.011.452-.06.829-.101.828-.038-.01 3.507-.026 6.718-.046 9.776.127.185.256.367.38.556.167-3.295.34-6.635.554-10.332.019-.338.678 0 1.016 0-.16.37 1.11.173 2.029.047.016-.16.038-.147.063-.011.452-.062.828-.107.828-.041-.01 2.47-.022 4.603-.033 6.87.185-.062.37-.126.555-.19.118-2.192.23-4.336.366-6.68.019-.338.678 0 1.016 0h5.236c-.996 1.537.523.569 1.546.096.016-.427.043-.394.077-.036.409-.184.735-.285.734-.06-.01 1.312-.014 2.373-.02 3.626l.875-.298c.065-1.125.119-2.172.189-3.328.023-.392.783 0 1.175 0 4.614.131 8.506-.59 8.672-.096l5.194-1.773c-.465-.105-.893-.205-1.075-.278-.904.11-1.81.207-2.715.316.878-.18 1.755-.301 2.632-.393.018-.016.062-.03.162-.038.313-.024 1.08-.08 1.296-.082h.018c2.68-.163 5.362-.056 8.061-.059.61-.117 1.314-.131 2.036-.096 2.57-.713 4.474-1.28 6.056-1.766-.248-1.235 3.322-1.753 3.42-1.046 3.418-1.016 3.756-.717 7.513.718.393-.08.81-.167 1.166-.231.235-.043.474-.071.715-.098 1.464-2.018 3.637-2.87 8.587-2.828 1.583-.22 3.456-.352 5.172-.447-.3-.195-.086-.187.508-.027.712-.037 1.513-.082 2.012-.11 3.805-.21 6.525.21 8.949 1.098.262 0 .345.011 2.578-.07 1.019.046 2.038.065 3.056.074-.496-11.773-10.193-21.168-22.092-21.168h-80.75c-48.781 0-88.468-39.974-88.468-89.109v-70.232c0-9.547-4.777-18.36-12.765-23.564-35.08-22.884-56.024-61.6-56.024-103.567V474.4h39.112v4.558c0 17.073 13.886 30.96 30.958 30.96h32.169c17.072 0 30.962-13.887 30.962-30.96V474.4H464.61v4.558c0 17.073 13.89 30.96 30.962 30.96h32.169c17.072 0 30.958-13.887 30.958-30.96V474.4h32.701v4.558c0 17.073 13.886 30.96 30.959 30.96h32.171c17.073 0 30.959-13.887 30.959-30.96V474.4h39.11v244.606c0 41.967-20.945 80.682-56.012 103.56a28.043 28.043 0 0 0-12.775 23.576v70.23c0 49.136-39.69 89.113-88.471 89.113h-24.725c-12.216 0-22.116 9.9-22.116 22.114 0 .49.02.975.052 1.458 1.386.025 2.773.06 4.156.02 2.167-.051 4.335-.02 6.502-.02H551.405c.681 0 1.395-.206 2.044 0 .61.193 1.22.393 1.826.599.833-.206 1.667-.406 2.495-.627 3.924-.706 7.74-.104 11.635.15.59.039 2.28-.105 1.905-.054 3.473-.171 6.958-.076 10.436-.063h52.718c7.5-10.583 14.792-16.41 13.991-.664 1.632-1.495 3.156-2.704 4.354-3.37 2.062-1.145 4.25-2.303 6.526-2.977 1.093-.639 2.239-1.239 3.274-1.919a3.482 3.482 0 0 1 1.128-1.293l-4.544-6.364a134.167 134.167 0 0 0 22.457-28.487h42.344c.44 19.945 16.77 36.042 36.814 36.042h32.436c20.325 0 36.857-16.533 36.857-36.857V871.395c0-20.325-16.532-36.857-36.857-36.857h-32.435c-20.048 0-36.373 16.096-36.815 36.04h-23.956v-15.994c24.114-17.588 42.705-40.94 54.456-67.516h27.21c50.635 0 91.832-41.196 91.832-91.832v-75.782c0-50.639-41.197-91.838-91.833-91.838h-12.875V401.148c7.298-5.776 11.704-14.662 11.704-24.083V217.47c0-94.814-77.448-171.954-172.634-171.954zm359.831 982.876c-.234.215-.471.443-.707.663h.668c.014-.223.028-.447.039-.663zm-367.644-3.983c-.095 0-.192.011-.287.012.157.106.314.211.47.318-.06-.11-.121-.223-.183-.33zm-9.644-7.6c-1.447.273-2.922 1.237-4.401 3.032 1.573.354 3.017.806 4.355 1.35.142-1.618.162-3.086.046-4.382zm-25.959-4.257c-.019.011-.038.018-.056.028 1.328.15 2.683.26 3.657.998a4 4 0 0 1 .495-.2 7.386 7.386 0 0 0-2.327-.736 9.66 9.66 0 0 0-1.769-.09zm4.096.827c1.429.724 2.634 1.9 3.62 3.428.411-.104.835-.179 1.267-.237.187-.271.38-.533.581-.786-1.703-2.034-3.573-3.03-5.468-2.405zm5.468 2.405c.181.216.358.454.535.692 1.078-.04 2.213.063 3.401.333.033.414-.044-.583.001 0 .76.173 1.54.406 2.34.718-2.163-2.432-4.58-3.816-6.15-1.907-.044.053-.084.109-.127.163zm3.938 1.027c-.138-1.738.046.623.17 2.209h.008l-.178-2.21zm-3.403-.335c-.38.015-.752.045-1.116.095a16.4 16.4 0 0 0-.718 1.169c.088.162.166.338.25.506 1.106.167 2.142.364 3.065.587-.476-.858-.967-1.662-1.481-2.356zm-1.834 1.263a14.497 14.497 0 0 0-.548-.932c-.569.146-1.115.337-1.64.568.57.209 1.114.463 1.637.752.109.015.21.032.318.047.078-.144.152-.294.233-.435zm-9.418-5.314a7.599 7.599 0 0 1-.59-.122l.133.157c.156.042.355.108.55.17l.017-.046c.023-.062-.026-.115-.11-.159zm.093.206l-.018.047a.575.575 0 0 1 .1-.021c-.03-.011-.054-.016-.082-.025zm-.018.047c-.1.019-.198.039-.295.063.063.075.127.149.19.226.036-.096.069-.193.105-.289zm-.295.063c-.079-.094-.158-.189-.237-.281-.007 0-.017-.011-.024-.011l-1.365-.154c-.041.396-.1.805-.16 1.216a5.7 5.7 0 0 1 1.786-.773zm-.37-.439a.459.459 0 0 0-.023-.028c-.063 0-.082 0-.019.02.014 0 .028.01.041.01zm45.159-922.556h319.272c70.805 0 128.404 57.298 128.404 127.724v136.967l-111.266-60.355a28.026 28.026 0 0 0-13.293-3.363c-7.427 0-14.417 2.879-19.69 8.11l-40.045 39.754-40.089-39.801c-5.192-5.128-12.35-8.066-19.645-8.066-7.425 0-14.413 2.877-19.685 8.108l-40.048 39.76-46.359-46.028c-5.266-5.21-12.247-8.078-19.656-8.078-7.295 0-14.453 2.94-19.684 8.107l-44.765 44.436-43.202-42.89c-5.266-5.22-12.248-8.092-19.667-8.092-7.133 0-13.918 2.68-19.069 7.517l-59.914 55.976V217.47c0-70.426 57.6-127.724 128.4-127.724zm77.895 245.626l44.273 43.957c5.815 5.776 13.533 8.96 21.739 8.96 8.206 0 15.926-3.183 21.732-8.95l38.006-37.728 37.991 37.718c5.815 5.776 13.533 8.96 21.739 8.96 8.194 0 15.911-3.179 21.732-8.955l40.876-40.584 109.985 59.66v31.76H685.49v-4.556c0-17.072-13.886-30.962-30.958-30.962h-32.172c-17.072 0-30.959 13.89-30.959 30.962v4.557h-32.7v-4.557c0-17.072-13.887-30.962-30.96-30.962h-32.168c-17.072 0-30.961 13.89-30.961 30.962v4.557H305.123v-4.557c0-17.072-13.89-30.962-30.962-30.962h-32.168c-17.073 0-30.959 13.89-30.959 30.962v4.557h-39.113V399.13l66.939-62.54 41.48 41.182c5.814 5.773 13.533 8.951 21.733 8.951 8.194 0 15.912-3.176 21.73-8.946zM255.259 438.879h5.631v26.812h-5.631zm253.58 0h5.628v26.812h-5.628zm126.786 0h5.632v26.812h-5.632zm-520.804 132.96h12.87v61.775h-15.6c-12.215 0-22.115 9.903-22.115 22.116s9.9 22.112 22.116 22.112h15.6v41.164c0 8.053.636 16 1.745 23.828h-14.616c-26.248 0-47.607-21.356-47.607-47.604v-75.782c0-26.251 21.356-47.61 47.607-47.61zm654.006 0h12.874c26.248 0 47.604 21.358 47.604 47.609v75.782c0 26.248-21.353 47.604-47.604 47.604h-14.62c1.11-7.828 1.746-15.775 1.746-23.828v-41.164h15.601c12.216 0 22.114-9.9 22.114-22.112 0-12.213-9.898-22.116-22.114-22.116h-15.6zM110.645 878.76h17.69v97.033h-17.69zm657.537 0h17.69v97.033h-17.69zm-68.141 36.037h23.913v24.952h-25.998c1.344-7.599 2.085-15.402 2.085-23.384zm-527.476 0h23.915v1.571c0 7.979.739 15.784 2.083 23.385h-25.998zm62.604 92.585c-.143 0-.285.01-.428.015.343.057.686.096 1.026.087.203 0-.396-.1-.598-.1zm9.52 5.425c-.182.096-.36.202-.542.299a41.39 41.39 0 0 1 2.035 2.76c.62-.743 1.21-1.346 1.756-1.76.034-.027.067-.045.101-.068-.98-.328-2.28-.848-3.35-1.23zm-.76.418c-.674.364-1.35.726-2.016 1.111-.038.212-.078.425-.12.64.473.266.89.527 1.27.784.273-.857.56-1.703.866-2.535zm418.222 8.179c-.078.044-.146.072-.226.118.067-.011.136-.011.204-.015.011-.035.015-.07.021-.104zm-362.743 2.778c-1.574-.044-3.234.933-4.948 3.22 2.911.079 5.735.586 8.323 1.82.18.087.491.371.843.719.503.163.939.38 1.296.661.418.072.815.142 1.185.215-1.934-3.947-4.208-6.566-6.699-6.635zm355.688 1.97c-.442.29-.863.556-1.233.76-.721.395-1.4 1.1-2.027 1.958.547-.056 1.112-.112 1.631-.174.179-.021.429-.047.636-.071.338-.83.696-1.693.957-2.393.011-.028.025-.053.036-.08zm-425.244.611c.112.11.227.215.34.326.348.25.683.536 1.01.842.01-.142.018-.287.03-.426.015-.149.042-.288.07-.427-.057-.054-.112-.103-.168-.153a5.076 5.076 0 0 0-1.282-.162zm.34.326a8.057 8.057 0 0 0-.494-.322 6.204 6.204 0 0 0-.577.056c.306.618.605 1.213.89 1.77.372.126.74.247 1.115.379l.063-.87c-.333-.338-.662-.684-.998-1.014zm197.901.271c1.268.603 2.528 1.362 3.86 2.196.01-.08.011-.162.017-.242-1.48-1.074-2.253-1.606-3.878-1.954zm-199.886.321c-.002 0-.005.011-.008.016.011.011.024.016.036.024l-.029-.039zm163.557.88c-.86.256-2.046.625-3.42 1.046.047.232.23.489.593.767 2.137-.894 2.871-1.488 2.827-1.813zm-108.142.69c.457.298.887.618 1.298.953.181-.057.361-.117.545-.17l-.247-.507a27.726 27.726 0 0 0-1.596-.276zm1.843.784c.167.344.258.525.423.864.269-.077.526-.143.793-.218-.268-.258-.543-.5-.817-.745-.132.035-.268.062-.4.099zm.423.864l-.136.038.042.039c.042 0 .084 0 .127-.011l-.033-.069zm.033.069l.124.255c.067.066.137.13.202.198.295.052.568.108.808.168l.721.18c-.29-.299-.587-.59-.884-.88-.326.029-.656.059-.971.08zm114.35-1.636c-.182 0-.571.015-.797.02.35.133.74.275 1.155.426.081-.143.164-.287.25-.42a7.901 7.901 0 0 0-.608-.026zm-1.462.038c-.363.011-.553.015-1.05.028l-.186.048c.136.033.26.062.396.098.291-.063.556-.116.84-.174zm-102.592.17l.195.064-.073-.056c-.039 0-.082 0-.122-.011zm.361.196c-.043 0-.09.011-.133.016.008 0 .014.011.02.016l.203.04c-.03-.026-.06-.048-.09-.072zm99.731.044c-7.146 1.886-4.17 1.073.167.095-.054-.032-.115-.063-.167-.095zm160.697.473c4.012 1.427 7.965 3.026 12.006 4.37 4.02 1.338-7.712-4.048-11.937-4.368h-.07zm-36.292.385c.027.2.057.397.09.594 2.3 1.358 5.287 3.061 9.744 5.32-2.91-3.5-5.62-4.903-9.833-5.914zm-231.395 0c-.057.011-.117.016-.174.023.45.331.897.665 1.351.989.12.234.167.318.283.543.304.04.562.09.853.13.08-.166.16-.338.24-.505-.008-.076.008-.124.06-.123.011-.024.023-.044.035-.068a46.28 46.28 0 0 0-2.648-.988zm108.636.011c-2.476.306-4.968.46-7.465.564 1.609.684 4.264 1.452 8.48 2.276.283-.714.557-1.37.817-1.97a56.666 56.666 0 0 1-1.832-.87zm-100.22.148l.721.583c.073-.015.149-.026.223-.04-.192-.122-.401-.269-.63-.44-.108-.035-.203-.07-.314-.103zm109.437.222c-.375.167-.757.342-1.177.54.589.18 1.215.365 1.865.555.026-.484.052-.372.078.02.812.237 1.673.48 2.632.74 1.044.281-1.735-1.392-2.778-1.679-.286-.079-.36-.106-.62-.177zm-101.74.099c.15.197.275.413.368.656l.186.045c.186-.02.378-.033.58-.035-.087-.19-.177-.365-.265-.55-.282-.04-.576-.08-.868-.117zm.368.656c-.188-.045-.42-.094-.614-.14l.105.121c.182.033.332.053.522.088h.008c-.008-.02-.012-.046-.02-.068zm.013.07a4.307 4.307 0 0 0-.382.074c.163.188.334.39.506.593.012 0 .024.01.036.017a3.254 3.254 0 0 0-.152-.684h-.008zm80.522-.48c-.937.034-1.872.087-2.807.132.507.077 1.001.178 1.481.308.452-.148.929-.302 1.326-.44zm-79.763.421l.086.193.5.12c.428-.06.765-.12.98-.189-.55-.082-1.079-.13-1.566-.124zm.099.223l.061.143c.152-.017.286-.034.416-.052-.164-.033-.314-.059-.477-.09zm-13.483.14c.018.053.038.101.055.154.077-.015.146-.02.223-.035-.093-.04-.186-.079-.278-.12zm6.442.18l2.168 1.75c.04-.326-.019-.629-.147-.915a8.515 8.515 0 0 0-2.021-.836zm6.345.202v.027c.2.236.373.429.586.685l.734.281c-.048-.118-.09-.248-.139-.364a30.174 30.174 0 0 0-1.181-.629zm-11.21.327a2.573 2.573 0 0 1-.081.04c.125.033.262.063.38.098 0-.001 0 0 0 0l-.297-.135zm12.308.096c.03.07.06.135.088.206.037.02.072.044.108.064l-.196-.27zm96.081.038c-.553.295-1.115.607-1.708.949 1.313.23 2.712.464 4.28.7 1.896.287.08-.51-2.572-1.65zm-95.858.533c.008.014.01.028.016.043h.082l-.097-.038zm-.455.044l.028.033c.03 0 .062 0 .092-.011-.04-.011-.08-.017-.12-.025zm12.156.494c-.168 0-.378.016-.603.044.478.05.947.1 1.53.151.315.027-.617-.13-.927-.195zm78.88 2.089a64.652 64.652 0 0 0-6.532 5.017c1.315-.567 2.704-.618 4.154 0a60.792 60.792 0 0 0 2.379-5.016zm-168.628.036c-.396.204-.762.514-1.105.925.29-.038.58-.079.869-.118.178-.262.356-.523.536-.779-.1-.011-.2-.018-.3-.028zm-.538 1.247a199.8 199.8 0 0 1-1.533 1.227c-.058.113-.117.223-.173.341l.099.214.649-.292c.314-.506.634-1.003.958-1.49zm127.818 1.81l-.772.376c-.013 2.392-.034 4.304-.052 6.318h.473c.112-2.194.218-4.331.35-6.692zm-49.927.454l.064.164c.056.01.088.015.145.023l.064-.035-.273-.15zm.273.151l.105.06c.347.046.593.088.99.138.733.09.097-.08-.881-.315l-.214.118zm.105.06c-.06-.012-.111-.017-.17-.025-.036.021-.07.046-.108.068.142.351.28.71.415 1.08.288-.095.586-.172.907-.21.1-.068.19-.125.29-.19-.444-.243-.89-.48-1.334-.724zm-43.172.807v.048h.07l-.069-.052zm.07.052l.375.281-.063-.262c-.104 0-.208-.015-.313-.02zm-.071 0h-.123c.044.413.082.829.112 1.25.005-.414.007-.829.011-1.247zm128.66 1.523c-.025 0-.036.363-.032 1.087-.138.06-.277.118-.415.177h.087c.116 0 .22.011.33.012v-.19l.133-.058c-.045-.687-.08-1.034-.103-1.029zm.102 1.029c.01.105.01.134.018.254.444.026.846.093 1.21.2.086-.026.185-.037.275-.06.268-.451.52-.89.762-1.32a86.39 86.39 0 0 0-2.265.925zm-.549.235c-.656 0-1.312.011-1.969.011.333.048.944.123 1.498.192-.106.046-.213.09-.319.137.403.02.798.045 1.21.063v-.082c-.28-.037-.527-.073-.89-.118.157-.07.314-.135.47-.203zm-.79.34c-.906-.048-1.796-.09-2.676-.135-.255.249-.51.502-.765.76.3.099.575.19 1.01.341.033.011.108.045.145.059.761-.343 1.522-.688 2.286-1.024zm-2.286 1.024l-.363.164a18.15 18.15 0 0 0 1.73.711c.117-.06.23-.124.348-.182a33.403 33.403 0 0 0-1.715-.693zm-.363.164c-.304-.142-.608-.291-.912-.44-.354.36-.71.72-1.065 1.098-.07.107-.14.21-.209.32.729-.326 1.458-.65 2.186-.978zm4.02-1.184v.066c.092 0 .176.011.268.015.344.014.112-.027-.267-.08zm-45.98.16zm0 0l-.376.183c0 .206 0 .367-.01.57.116.011.231.023.345.038.015-.277.023-.51.038-.79zm-109.207.375c-.009.01-.018.015-.028.023-.035.76-.068 1.521-.123 2.265.465-.194.931-.383 1.399-.572.036-.348.071-.639.108-.997-.04-.198-.089-.406-.132-.608a36.184 36.184 0 0 0-1.224-.11zm-.15 2.287c-.114.047-.226.097-.338.145l-.076.464.352.24c.024-.28.041-.566.062-.849zm104.465-1.156c-.105.044-.213.097-.32.145v.179c.103-.011.204-.012.306-.02.01-.095.012-.208.016-.304zm4.503.167v.326c.153-.01.111-.01.299-.02.01-.097.01-.182.014-.28a6.4 6.4 0 0 0-.31-.026zm.294.36c-.098 0-.194.01-.297.014-.014 2-.031 3.915-.049 5.735.022.011.044.014.066.02.085-1.843.18-3.776.28-5.77zm-37.382 1.662c-.07.044-.138.09-.207.135l-.366.782c.315.164.632.322.95.48-.126-.475-.252-.933-.377-1.397zm-72.616 1.591c-.007.035-.011.071-.017.106.104-.019.21-.033.314-.05l-.297-.055zm6.457 2.002c-.06.04-.121.078-.181.117.137.099.272.2.408.3-.075-.14-.151-.278-.227-.417zm103.187 1.509v.168c.01.015.011.029.018.044 0-.062.01-.136.01-.198-.01-.011-.017-.011-.025-.015zm0 .268v.24l.01.01c0-.073.01-.162.011-.236-.01-.01-.01-.01-.016-.012zm313.565 13.582c-.536 0-1.002.011-1.422.038.442.16.866.324 1.285.489.246-.169.49-.34.735-.51a13.948 13.948 0 0 0-.598-.017zm-1.979.096c-.556.061-1.022.145-1.334.264l.22.27c.22.027.737.146 1.724.388-.104-.087-.289-.226-.201-.183.12.057.22.108.322.158-.389-.395-.671-.72-.73-.897zm3.008.14c-.202.177-.393.348-.591.523.242.1.48.198.715.299l.146-.252c-.089-.191-.18-.381-.27-.57zm-4.009.533c.307.38.611.763.912 1.15.22-.17.44-.342.666-.506a47.68 47.68 0 0 1-1.578-.644zm1.578.644c.237.093.47.189.767.306l.038-.035a8.203 8.203 0 0 0-.53-.468c-.09.066-.184.13-.275.196zm.767.306c-.324.3-.62.583-.916.868l.457.598c.284.126.54.252.856.377l.542-.994c-.273-.26-.54-.532-.81-.797-.043-.017-.08-.034-.13-.052zm3.865 8.865c0 .062-.011.125-.011.187.236-.06.477-.115.712-.176-.011 0-.012-.01-.018-.01zm260.019 21.25c-.295.093-.555.183-.84.275l.447.402c.133-.224.252-.455.393-.677zM87.32 1114.337c-.058.226-.134.54-.195.776h.219c.06-.2.12-.401.182-.602-.068-.059-.138-.115-.206-.174zm471.388 2.82a1022.65 1022.65 0 0 0-10.607 6.573v1.075c3.568-2.405 7.063-4.946 10.563-7.47.014-.061.03-.117.044-.178zm77.856 522.451c-.329.106-1.663.438-2.193.59.732-.193 1.462-.395 2.193-.59z" fill="#333"/><path fill="#333" stroke="#333" stroke-width="16.942" stroke-linejoin="round" d="M256.089 1013.01h380.93v15.238H256.09z"/></svg>