<svg xmlns="http://www.w3.org/2000/svg" width="899.21" height="1415"><path fill="#343333" stroke="#343333" stroke-width="23.4" stroke-miterlimit="10" d="M716.433 202.691c-31.643-3.956-55.354 104.451-83.852 95.451-28.455-8.986-130.15-4.514-182.732-4.5-52.582-.014-154.278-4.486-182.732 4.5-28.498 9-52.209-99.407-83.852-95.451-35.999 4.5-58.676 81.952-57.142 234.944 2.243 223.724 17.999 424.479 44.998 458.977 14.081 17.991 141.005 94.572 196.347 117.547 40.454 16.794 78.527 14.464 82.381 14.464s41.927 2.33 82.381-14.464c55.342-22.975 182.266-99.556 196.347-117.547 26.999-34.498 42.755-235.252 44.998-458.977 1.533-152.991-21.143-230.444-57.142-234.944z"/><path d="M580.876 475.567l-7.848-4.406a4.04 4.04 0 0 0-.431 1.098c.667-3.244 2.817-27.149 1.154-84.852-1.047-36.372-9.631-107.151-9.717-107.843l8.873.098c.088.696 8.78 70.684 9.84 107.486 1.746 60.552-.554 86.073-1.871 88.419z"/><path fill="#999" d="M647.369 968.024s-28.952-46.786-28.994-52.475 43.226-79.656 72.291-92.632c12.919-5.768 31.821-29.227 48.673-57.421 11.531-19.292 18.658-29.568 24.828-49.302 10.502-33.594 15.6-74.803 15.833-91l-3.94 67.167c0 13.223-9.597 43.522-28.891 77.572-17.332 30.589-38.071 54.613-52.835 61.204-21.108 9.423-65.403 80.366-65.702 84.379s26.514 47.703 26.514 47.703l-7.777 4.805z"/><path d="M608.549 780.01l-6.363-6.364c20.311-20.311 60.718-33.625 82.425-40.778 6.257-2.062 12.727-4.193 14.015-5.034-.006.004-.14.092-.326.281l6.402 6.324c-1.795 1.818-5.58 3.124-17.273 6.977-20.999 6.919-60.082 19.797-78.88 38.594z"/><path d="M601.336 773.017l-6.363-6.364c26.172-26.172 72.223-33.716 94.354-37.341 3.483-.57 7.062-1.157 8.887-1.583 4.49-11.172 24.797-78.513 25.301-84.212-.001.011-.023.273.035.666l8.902-1.319c.176 1.187.542 3.658-12.47 46.488-12.997 42.777-14.482 44.281-15.28 45.088-1.677 1.699-3.864 2.106-13.92 3.754-21.204 3.473-65.323 10.7-89.446 34.823zM481.814 767.315l-8.429-3.562c8.51-13.006 22.043-33.345 25.179-35.8 3.24-2.537 12.559-5.915 16.46-7.56l5.651 6.747c-7.348 3.099-14.706 6.537-16.482 7.839-2.232 2.236-12.044 16.54-22.379 32.336z"/><path d="M781.709 610.396c-3.052 11.012-11.938 37.146-14.304 48.478-.772-37.828-1.503-103.514 1.357-148.067 4.391-13.62 7.305-27.7 7.914-42.702 1.743-42.897-15.434-89.717-54.018-147.25 2.214-63.187 2.806-118.984 2.806-118.984-2.146-2.15-3.562-3.083-8.965-3.129 0 0-6.419 260.595-16.872 285.167-3.22.589-9.707 1.687-15.166 2.61-13.497 2.284-17.881 3.049-19.016 3.384l-.771.228-.645.48c-12.494 9.317-108.532 95.819-123.879 110.742l-1.217 1.184-.248 3.132c-1.695 20.647-1.126 29.713 2.101 33.451.206.239.43.454.661.656.336.502.744.845 1.244.97.082.021.186.008.277.015a5.862 5.862 0 0 0 2.391.534c4.646 0 11.574-6.079 35.07-28.763 7.25-6.999 14.746-14.236 20.715-19.552 58.12-51.752 71.197-62.213 74.922-63.391 2.345-.519 15.348.974 31.826 5.694 15.539 4.45 27.643 9.928 34.066 15.34-3.439 6.799-7.061 13.661-10.764 20.672-4.957 9.385-9.979 18.906-14.887 28.818-9.748.186-33.701 1.132-38.816 2.364-45.977 11.077-86.725 37.279-119.466 58.334-8.669 5.575-16.858 10.841-24.063 15.089l4.57 7.753c1.492-.879 3.03-1.809 4.594-2.763 1.772 7.909 8.859 21.46 18.379 21.644 12.78.246 97.13-13.386 104.371-34.26 5.923-17.075 12.056-45.657 12.927-56.845.266-.065.529-.137.796-.201 1.779-.429 7.931-.894 15.008-1.282-4.281 10.177-8.198 20.562-11.722 29.919-7.317 19.437-14.229 37.795-20.612 43.672-4.991 4.595-34.083 13.404-86.468 26.182-5.625 1.372-8.149 1.99-9.043 2.27-1.786.558-4.008 1.252-34.572 35.11a3606.88 3606.88 0 0 0-26.42 29.639c-4.122-3.141-8.162-5.989-12.075-8.486 3.615-6.434 7.669-12.917 9.545-14.9.906.209 2.492.894 3.507 1.333 2.852 1.231 5.797 2.503 8.793 1.957 1.308-.239 5.289-.967 16.694-16.77l-7.299-5.267c-4.219 5.847-9.222 11.687-11.195 13.118-.843-.186-2.425-.869-3.425-1.3-3.196-1.381-6.731-2.685-10.309-1.65-2.829.818-16.521 23.385-16.521 23.385 14.354 7.882 24.792 18.835 27.065 18.656s9.45-7.42 17.438-14.967c11.291-10.667 26.959-27.761 30.208-30.567 2.048-.602 9.273-2.32 16.888-4.129 54.321-12.911 92.112-22.954 99.982-29.996 12.951-11.589 29.262-56.423 29.418-56.864 10.061-28.199 22.569-51.884 34.667-74.791 6.854-12.977 13.563-25.687 19.378-38.551-2.143 65.551.592 151.015.624 152.006l.239-.008c-19.481 60.159-55.97 108.662-80.76 120.424-5.729 2.718-11.94 7.52-18.503 14.299l-73.524-71.47-10.689 2.36 84.599 82.015 3.125-3.471c6.942-7.712 13.286-12.961 18.854-15.604 18.628-8.838 41.846-35.145 60.591-68.654 21.752-38.884 35.058-93.513 36.915-105.984l1.709-32.466zm-178.357 101.73c1.335-.342 2.665-.685 3.985-1.028l1.946 8.447c-1.369.347-2.73.69-4.082 1.029l-1.849-8.448zm-6.888 10.617c-1.499.369-2.973.729-4.414 1.08l-1.835-8.382c1.473-.366 2.942-.733 4.409-1.102l1.84 8.404zm19.58-13.938c1.117-.299 2.226-.598 3.325-.896l2.037 8.507c-1.132.298-2.268.596-3.404.891l-1.958-8.502zm12.004-3.299c1.253-.355 2.493-.709 3.711-1.063l1.948 8.647c-1.189.331-2.392.663-3.604.994l-2.055-8.578zm12.353-3.648c1.095-.339 2.171-.677 3.221-1.012l2.03 8.792c-1.071.323-2.164.649-3.277.977l-1.974-8.757zm11.79-3.902c1.163-.417 2.27-.83 3.335-1.238l1.846 9.126c-.993.351-2.028.707-3.111 1.069l-2.07-8.957zm-70.716 19.643l1.826 8.339c-1.421.341-2.789.668-4.092.979l-1.821-8.319.553-.135 3.534-.864zm-12.696 3.76l1.674 7.642c-6.034 1.437-9.757 2.334-12.117 2.933 4.753-5.042 8.412-8.769 10.443-10.575zm127.23-74.087c-2.486 7.007-17.174 44.435-26.94 53.174-.67.599-1.765 1.261-3.207 1.971l-1.896-9.385c1.923-1.004 3.42-1.965 4.406-2.874 7.957-7.326 14.568-24.888 22.939-47.123 4.148-11.017 8.435-22.381 13.287-33.563 2.572-.104 5.056-.192 7.304-.258-5.632 11.893-11.031 24.431-15.893 38.058z"/><path d="M635.24 459.719l6.839-6.001 2.252-1.061 13.21-2.129-15.809-14.842-.121-5.97 19.676-23.258-19.792-21.306-.104-5.496 15.843-22.09-19.057-19.666-.413-5.771 13.395-18.5-13.589-11.236-.662-5.808 16.879-25.205-3.186-2.057s-11.436 18.544-15.221 17.458c-2.165-.621-6.429-1.651-6.429-1.651l.542 6.119c.08.859 7.65 83.119 5.747 168.47z"/><path d="M668.534 325.439c-2.687-22.279-6.803-37.613-6.996-47.037l-14.89 19.812 13.498 11.17.775 6.106-13.654 18.858 19.045 19.653.425 5.754-15.894 22.161 19.753 21.351.133 5.962-19.487 23.036 19.132 17.967-.002 6.352-20.747 2.504s-28.726 25.616-38.899 35.583c-31.491 30.853-89.753 87.934-97.707 92.735-4.386.588-8.601.189-10.784-.5 6.047-6.582 27.068-24.945 44.337-40.029 33.354-29.136 55.493-48.73 59.165-55.361 7.212-13.021 9.347-93.394 9.566-102.515l.003-.119-.004-.119c-1.317-45.701-6.789-93.306-9.075-107.524l-9.203-.644c2.256 14.024 7.968 63.084 9.278 108.308-.813 33.614-3.818 89.911-8.438 98.253-3.183 5.746-34.411 33.025-57.213 52.943-47.733 41.696-49.131 43.776-48.538 47.821.324 2.219 1.528 4.156 3.482 5.601 3.457 2.558 8.705 3.16 12.88 3.16a45.47 45.47 0 0 0 6.455-.457c2.142-.327 4.355-.666 39.411-34.175 19.525-18.665 43.455-42.11 62.683-60.948 7.332-7.182 32.969-31.699 36.253-34.494s22.173-3.4 22.173-3.4l-.296-3.563c-.001-65.559-3.6-109.167-6.62-134.205z"/><path d="M546.758 454.536v-28.451l13.997-6.607v13.014l-2.891 1.427v-10.421l-9 3.76v21.143l20.891-10.316v-32.808l-22.997 10.856v-29.349l13.997-5.807v13.376l-2.891 1.427v-10.422l-9 3.761v21.142l20.891-10.316v-32.446l-31.997 13.275v133.063h9v-49.349l14.433-6.813v13.013l-2.89 1.428v-10.422l-9 3.761v21.143l20.89-10.316v-32.808zM509.758 459.085l13.997-6.607v13.014l-2.891 1.427v-10.421l-9 3.76v21.143l20.891-10.316v-32.808l-22.997 10.856v-29.349l13.997-5.807v13.376l-2.891 1.427v-10.422l-9 3.761v21.142l20.891-10.316v-32.446l-31.997 13.275v133.063h9v-49.349l14.433-6.813v13.013l-2.89 1.428v-10.422l-9 3.761v21.143l20.89-10.316v-32.808l-23.433 11.062z"/><path fill="#999" d="M484 665.527c-1.987 1.349-13.194-3.213-16.003-6.333s-.11-87.114.837-89.667c2.039-5.491 96.511-77.592 108.118-96.164 2.001-3.203 8.387-18.714 6.51-83.849-1.104-38.333-6.194-93.239-9.133-109.811l18.309.641c3.009 16.975 7.646 68.018 8.817 108.652 1.445 50.19-1.663 81.786-9.239 93.908-14.218 22.75-104.383 91.941-106.216 95.616s-.013 85.659-2 87.007z"/><path fill="#999" d="M728.009 561.304c-2.529.281-13.892-4.087-17.569-5.424s-40.756-14.94-43.921-14.396-124.513 110.787-125.886 109.898-3.65-2.128-5.546-3.589-1.114-42.913 0-46.094 132.515-120.86 127.582-118.297c-.222.115 16.956-.666 19.18-2.297 2.176-1.597-2.935-136.763-2.935-136.763 0-23.416-11.982-48.988-9.497-60.954 1.631-7.852 33.47-67.148 45.083-84.527 0 0-7.643-1.011-13.071 4.495s-37.157 63.181-40.852 78.204c-2.17 8.823 8.485 45.405 10.076 62.098l4.802 119.69s-18.267.277-21.691 3.196-134.717 123.66-136.677 127.641-1.76 59.423 0 63.401 14.557 11.632 17.81 11.524 126.697-112.227 129.437-112.749 39.764 15.996 39.764 15.996 16.11 6.333 16.372 8.178-4.008 14.924-2.732 16.396c2.322 2.682 25.735-41.701 23.849-45.646-1.229-2.566-11.049 9.737-13.578 10.019z"/><path d="M458.291 280.958l-2.244 197.567-6.198.355-6.199-.355-2.244-197.567-9 .101 2.338 205.971 15.105.865 15.104-.865 2.338-205.971z"/><path fill="#999" d="M457.833 280.797h-15.969l2.392 196.564 5.593.609 5.592-.609z"/><path d="M318.821 475.567l7.848-4.406a4.04 4.04 0 0 1 .431 1.098c-.667-3.244-2.817-27.149-1.154-84.852 1.047-36.372 9.631-107.151 9.717-107.843l-8.873.098c-.088.696-8.78 70.684-9.84 107.486-1.746 60.552.554 86.073 1.871 88.419z"/><path fill="#999" d="M252.328 968.024s28.952-46.786 28.994-52.475-43.226-79.656-72.291-92.632c-12.919-5.768-31.821-29.227-48.673-57.421-11.531-19.292-18.658-29.568-24.828-49.302-10.502-33.594-15.6-74.803-15.833-91l3.94 67.167c0 13.223 9.597 43.522 28.891 77.572 17.332 30.589 38.071 54.613 52.835 61.204 21.108 9.423 65.403 80.366 65.702 84.379s-26.514 47.703-26.514 47.703l7.777 4.805z"/><path d="M291.148 780.01l6.363-6.364c-20.311-20.311-60.718-33.625-82.425-40.778-6.257-2.062-12.727-4.193-14.015-5.034.006.004.14.092.326.281l-6.402 6.324c1.795 1.818 5.58 3.124 17.273 6.977 21 6.919 60.083 19.797 78.88 38.594z"/><path d="M298.361 773.017l6.363-6.364c-26.172-26.172-72.223-33.716-94.354-37.341-3.483-.57-7.062-1.157-8.887-1.583-4.49-11.172-24.797-78.513-25.301-84.212.001.011.023.273-.035.666l-8.902-1.319c-.176 1.187-.542 3.658 12.47 46.488 12.997 42.777 14.482 44.281 15.28 45.088 1.677 1.699 3.864 2.106 13.92 3.754 21.204 3.473 65.323 10.7 89.446 34.823zM657.757 840.002l-86.867-84.237-4.91 1.507-3.4 3.221 18.626 17.812c-18.963 16.761-35.553 34.029-44.04 43.152-22.677 24.379-22.869 27.654-22.951 29.053l-.03.516c-.675 11.393-1.945 33.827-2.876 56.064-.791 18.913-1.068 31.271-1.061 39.433l-22.919-30.749.794-76.271 19.872-24.928s-23.372-32.672-57.888-35.867v-.056a5.979 5.979 0 0 1-.501 0v.056c-34.516 3.195-57.888 35.867-57.888 35.867l19.872 24.928.794 76.271-22.919 30.749c.008-8.162-.27-20.52-1.061-39.433-.931-22.237-2.201-44.672-2.876-56.064l-.03-.516c-.082-1.398-.274-4.674-22.951-29.053-8.487-9.123-25.077-26.391-44.04-43.152l18.626-17.812-3.4-3.221-4.91-1.507-86.867 84.237 2.445 3.181c21.451 27.897 41.921 64.735 44.269 70.653-.829 4.626-13.165 26.291-32.187 57.02l8.035 4.163c30.878-49.883 33.182-57.948 33.209-61.669.025-3.649-13.515-28.761-13.651-29.015-6.772-12.538-18.531-27.808-30.12-43.434l50.84-49.3c28.027 24.783 54.826 54.265 61.748 63.289.084 6.313.812 19.217 1.644 33.968 1.36 24.131 3.401 60.318 2.225 67.329-3.828 7.433-38.128 55.971-38.33 56.38l8.399 3.723c.196-.297 38.496-57.142 38.496-57.142s1.152-32.103-1.805-70.797c-1.215-15.891-1.672-29.655-1.636-34.928l.01-1.456-.846-1.186c-6.402-8.984-35.427-40.605-63.428-65.462l.754-.731c31.758 27.991 61.238 61.509 64.53 67.17 3.499 59.148 4.824 102.372 3.311 107.844-2.54 5.204-24.425 37.46-38.051 56.878l7.827 4.104c3.476-4.953 33.925-48.494 38.212-56.842l33.56-45.026-.856-82.306-17.438-22.771c20.639-22.787 35.754-25.939 46.734-25.985 10.981.046 26.097 3.198 46.735 25.985l-17.438 22.771-.856 82.306 33.56 45.026c4.287 8.348 34.736 51.889 38.212 56.842l7.827-4.104c-13.626-19.418-35.511-51.674-38.051-56.878-1.514-5.472-.188-48.695 3.311-107.844 3.292-5.661 32.772-39.179 64.53-67.17l.754.731c-28.001 24.857-57.025 56.478-63.428 65.462l-.846 1.186.01 1.456c.036 5.272-.421 19.037-1.636 34.928-2.957 38.694-1.805 70.797-1.805 70.797s38.3 56.845 38.496 57.142l8.399-3.723c-.202-.409-34.502-48.947-38.33-56.38-1.177-7.011.864-43.198 2.225-67.329.832-14.751 1.56-27.654 1.644-33.968 6.922-9.024 33.721-38.506 61.748-63.289l50.84 49.3c-11.589 15.626-23.348 30.896-30.12 43.434-.137.254-13.677 25.365-13.651 29.015.027 3.721 2.331 11.786 33.209 61.669l8.035-4.163c-19.021-30.729-31.357-52.394-32.187-57.02 2.348-5.918 22.817-42.756 44.269-70.653l2.445-3.181z"/><path d="M417.883 767.315l8.429-3.562c-8.51-13.006-22.043-33.345-25.179-35.8-3.24-2.537-12.559-5.915-16.46-7.56l-5.651 6.747c7.348 3.099 14.706 6.537 16.482 7.839 2.232 2.236 12.044 16.54 22.379 32.336z"/><path fill="#999" d="M723.501 643.528c-1.936.739-17.091 4.021-18.729 4.407s-18.147 63.242-20.764 65.503-122.918 25.041-126.974 27.345-42.919 46.277-46.481 46.03c-3.546-.247-25.546-26.988-60.462-27.237v-.012h-.486v.012c-34.917.249-56.916 26.991-60.462 27.237-3.563.248-42.426-43.726-46.481-46.03s-124.357-25.084-126.974-27.345-19.126-65.118-20.764-65.503-16.793-3.668-18.729-4.407 23.467 83.368 25.354 85.278 127.978 25.579 132.183 28.466 54.232 59.181 56.586 56.037c19.948-26.65 43.148-35.654 59.53-35.741 16.382.087 39.582 9.091 59.53 35.741 2.354 3.145 52.381-53.149 56.586-56.037s130.296-26.556 132.183-28.466 27.29-86.017 25.354-85.278z"/><path fill="#999" d="M510.667 697.027c-2.883-.934-5.107 7.957-7.412 7.595-2.286-.359-31.9-20.524-53.148-20.846v-.015h-.516v.015c-21.248.322-50.862 20.486-53.148 20.846-2.305.362-4.529-8.529-7.412-7.595s-33 26.333-32.619 29.06 10.286 12.774 12.572 12.881 15.31-21.146 19.88-21.607 5.097 8.461 7.252 7.605c2.145-.852 35.983-22.986 53.733-23.195 17.75.209 51.588 22.344 53.733 23.195 2.155.855 2.682-8.066 7.252-7.605s17.594 21.714 19.88 21.607 12.191-10.155 12.572-12.881-29.736-28.126-32.619-29.06z"/><path d="M119.697 642.863c1.857 12.471 15.163 67.1 36.915 105.984 18.745 33.509 41.963 59.816 60.591 68.654 5.568 2.643 11.912 7.892 18.854 15.604l3.125 3.471 84.599-82.015-10.689-2.36-73.528 71.469c-6.563-6.779-12.773-11.581-18.503-14.299-24.79-11.763-61.278-60.266-80.76-120.424l.239.008c.032-.991 2.767-86.455.624-152.006 5.814 12.865 12.524 25.575 19.378 38.551 12.098 22.906 24.606 46.592 34.667 74.791.156.441 16.467 45.274 29.418 56.864 7.87 7.042 45.661 17.085 99.982 29.996 7.614 1.81 14.84 3.527 16.888 4.129 3.249 2.806 18.917 19.9 30.208 30.567 7.988 7.547 15.165 14.788 17.438 14.967s12.712-10.774 27.065-18.656c0 0-13.691-22.567-16.521-23.385-3.577-1.034-7.112.27-10.309 1.65-1 .432-2.582 1.115-3.425 1.3-1.974-1.431-6.977-7.271-11.195-13.118l-7.299 5.267c11.405 15.803 15.387 16.531 16.694 16.77 2.996.546 5.941-.726 8.793-1.957 1.015-.438 2.601-1.124 3.507-1.333 1.876 1.983 5.93 8.466 9.545 14.9-3.913 2.497-7.953 5.345-12.075 8.486a3604.784 3604.784 0 0 0-26.42-29.639c-30.564-33.857-32.786-34.552-34.572-35.11-.894-.279-3.418-.897-9.043-2.27-52.385-12.778-81.477-21.586-86.468-26.182-6.383-5.877-13.295-24.236-20.612-43.672-3.523-9.358-7.44-19.742-11.722-29.919 7.077.388 13.229.853 15.008 1.282.267.064.53.136.796.201.871 11.188 7.004 39.771 12.927 56.845 7.241 20.874 91.591 34.506 104.371 34.26 9.52-.183 16.606-13.734 18.379-21.644a335.66 335.66 0 0 0 4.594 2.763l4.57-7.753c-7.205-4.248-15.395-9.514-24.063-15.089-32.741-21.055-73.489-47.257-119.466-58.334-5.115-1.232-29.068-2.178-38.816-2.364-4.907-9.912-9.93-19.434-14.887-28.818-3.703-7.012-7.324-13.874-10.764-20.672 6.424-5.412 18.527-10.89 34.066-15.34 16.479-4.72 29.481-6.213 31.826-5.694 3.725 1.178 16.802 11.639 74.922 63.391 5.969 5.315 13.465 12.553 20.715 19.552 23.496 22.684 30.424 28.762 35.07 28.763a5.867 5.867 0 0 0 2.391-.534c.092-.006.195.006.277-.015.5-.125.908-.468 1.244-.97.231-.203.455-.417.661-.656 3.227-3.737 3.796-12.803 2.101-33.451l-.248-3.132-1.217-1.184c-15.347-14.923-111.385-101.425-123.879-110.742l-.645-.48-.771-.228c-1.135-.335-5.519-1.1-19.016-3.384-5.459-.924-11.946-2.021-15.166-2.61-10.453-24.572-16.872-285.167-16.872-285.167-5.403.046-6.818.979-8.965 3.129 0 0 .592 55.798 2.806 118.984-38.584 57.533-55.761 104.353-54.018 147.25.609 15.001 3.523 29.082 7.914 42.702 2.86 44.553 2.13 110.239 1.357 148.067-2.366-11.331-11.252-37.466-14.304-48.478l1.713 32.467zm174.799 77.712c-1.352-.339-2.713-.682-4.082-1.029l1.946-8.447c1.32.343 2.65.686 3.985 1.028l-1.849 8.448zm10.577-6.235c1.467.368 2.937.735 4.409 1.102l-1.835 8.382c-1.441-.351-2.915-.711-4.414-1.08l1.84-8.404zm-23.378 2.967a990.093 990.093 0 0 1-3.404-.891l2.037-8.507c1.1.298 2.208.597 3.325.896l-1.958 8.502zm-12.1-3.223a730.107 730.107 0 0 1-3.604-.994l1.948-8.647c1.218.353 2.458.707 3.711 1.063l-2.055 8.578zm-12.273-3.47a477.242 477.242 0 0 1-3.277-.977l2.03-8.792c1.05.335 2.126.673 3.221 1.012l-1.974 8.757zm-11.885-3.7a191.338 191.338 0 0 1-3.111-1.069l1.846-9.126c1.065.408 2.172.82 3.335 1.238l-2.07 8.957zm76.32 11.549l.553.135-1.821 8.319c-1.303-.311-2.671-.638-4.092-.979l1.826-8.339 3.534.864zm19.604 13.471c-2.36-.599-6.083-1.497-12.117-2.933l1.674-7.642c2.031 1.806 5.69 5.533 10.443 10.575zM187.796 609.215c2.248.066 4.731.154 7.304.258 4.853 11.182 9.139 22.547 13.287 33.563 8.371 22.234 14.982 39.796 22.939 47.123.986.908 2.483 1.87 4.406 2.874l-1.896 9.385c-1.442-.71-2.537-1.372-3.207-1.971-9.767-8.739-24.454-46.167-26.94-53.174-4.863-13.628-10.261-26.166-15.893-38.058z"/><path d="M264.457 459.719l-6.839-6.001-2.252-1.061-13.21-2.129 15.809-14.842.121-5.97-19.676-23.258 19.792-21.306.104-5.496-15.843-22.09L261.52 337.9l.413-5.771-13.395-18.5 13.589-11.236.662-5.808-16.879-25.205 3.186-2.057s11.436 18.544 15.221 17.458c2.165-.621 6.429-1.651 6.429-1.651l-.542 6.119c-.08.859-7.649 83.119-5.747 168.47z"/><path d="M231.163 325.439c2.687-22.279 6.803-37.613 6.996-47.037l14.89 19.812-13.498 11.17-.775 6.106 13.654 18.858-19.045 19.653-.425 5.754 15.894 22.161-19.753 21.351-.133 5.962 19.487 23.036-19.132 17.967.002 6.352 20.747 2.504s28.726 25.616 38.899 35.583c31.491 30.853 89.753 87.934 97.707 92.735 4.386.588 8.601.189 10.784-.5-6.047-6.582-27.068-24.945-44.337-40.029-33.354-29.136-55.493-48.73-59.165-55.361-7.212-13.021-9.347-93.394-9.566-102.515l-.003-.119.004-.119c1.317-45.701 6.789-93.306 9.075-107.524l9.203-.644c-2.256 14.024-7.968 63.084-9.278 108.308.813 33.614 3.818 89.911 8.438 98.253 3.183 5.746 34.411 33.025 57.213 52.943 47.733 41.696 49.131 43.776 48.538 47.821-.324 2.219-1.528 4.156-3.482 5.601-3.457 2.558-8.705 3.16-12.88 3.16a45.47 45.47 0 0 1-6.455-.457c-2.142-.327-4.355-.666-39.411-34.175-19.525-18.665-43.455-42.11-62.683-60.948-7.332-7.182-32.969-31.699-36.253-34.494s-22.173-3.4-22.173-3.4l.296-3.563c.001-65.559 3.601-109.167 6.62-134.205z"/><g><path d="M352.939 454.536v-28.451l-13.997-6.607v13.014l2.891 1.427v-10.421l9 3.76v21.143l-20.891-10.316v-32.808l22.997 10.856v-29.349l-13.997-5.807v13.376l2.891 1.427v-10.422l9 3.761v21.142l-20.891-10.316v-32.446l31.997 13.275v133.063h-9v-49.349l-14.433-6.813v13.013l2.89 1.428v-10.422l9 3.761v21.143l-20.89-10.316v-32.808zM389.939 459.085l-13.997-6.607v13.014l2.891 1.427v-10.421l9 3.76v21.143l-20.891-10.316v-32.808l22.997 10.856v-29.349l-13.997-5.807v13.376l2.891 1.427v-10.422l9 3.761v21.142l-20.891-10.316v-32.446l31.997 13.275v133.063h-9v-49.349l-14.433-6.813v13.013l2.89 1.428v-10.422l9 3.761v21.143l-20.89-10.316v-32.808l23.433 11.062z"/></g><path fill="#999" d="M415.697 665.527c1.987 1.349 13.194-3.213 16.003-6.333s.11-87.114-.837-89.667c-2.039-5.491-96.511-77.592-108.118-96.164-2.001-3.203-8.387-18.714-6.51-83.849 1.104-38.333 6.194-93.239 9.133-109.811l-18.309.641c-3.009 16.975-7.646 68.018-8.817 108.652-1.445 50.19 1.663 81.786 9.239 93.908 14.218 22.75 104.383 91.941 106.216 95.616s.013 85.659 2 87.007z"/><path fill="#999" d="M171.688 561.304c2.529.281 13.892-4.087 17.569-5.424s40.756-14.94 43.921-14.396 124.513 110.788 125.886 109.899 3.65-2.128 5.546-3.589 1.114-42.913 0-46.094-132.515-120.86-127.582-118.297c.222.115-16.956-.666-19.18-2.297-2.176-1.597 2.935-136.763 2.935-136.763 0-23.416 11.982-48.988 9.497-60.954-1.631-7.852-33.47-67.148-45.083-84.527 0 0 7.643-1.011 13.071 4.495s37.157 63.181 40.852 78.204c2.17 8.823-8.485 45.405-10.076 62.098l-4.802 119.69s18.267.277 21.691 3.196S380.65 590.203 382.61 594.184s1.76 59.423 0 63.401-14.557 11.632-17.81 11.524-126.696-112.227-129.436-112.748-39.764 15.996-39.764 15.996-16.11 6.333-16.372 8.178 4.008 14.924 2.732 16.396c-2.322 2.682-25.735-41.701-23.849-45.646 1.228-2.566 11.048 9.737 13.577 10.019z"/></svg>