<svg height="1416" width="899" xmlns="http://www.w3.org/2000/svg"><g fill="none" fill-rule="evenodd"><path d="m447.765 702.203-34.138 47.097-157.448 30.299-68.245-30.3-57.733-111.026 15.751-37.032-15.75-87.496 15.75-57.197-23.627-131.226 23.627 16.833 41.982-57.197 94.475-74.03 68.245-40.398 97.111-20.2" fill="#2863c3"/><path d="m447.765 702.203-34.138 47.097-157.448 30.299-68.245-30.3-57.733-111.026 15.751-37.032-15.75-87.496 15.75-57.197-23.627-131.226 23.627 16.833 41.982-57.197 94.475-74.03 68.245-40.398 97.111-20.2" fill="none" stroke="#000" stroke-width="1.405"/><path d="m446.06 702.203 34.072 47.097 157.319 30.299 68.175-30.3 57.674-111.025-15.735-37.032 15.735-87.496-15.735-57.197 23.603-131.226-23.603 16.833-41.94-57.197-94.378-74.03-68.175-40.398-97.012-20.2" fill="#2863c3"/><path d="m446.06 702.203 34.072 47.097 157.319 30.299 68.175-30.3 57.674-111.025-15.735-37.032 15.735-87.496-15.735-57.197 23.603-131.226-23.603 16.833-41.94-57.197-94.378-74.03-68.175-40.398-97.012-20.2" fill="none" stroke="#000" stroke-width="1.405"/><path d="m263.468 707.321 115.173-29.532 36.968-51.331-183.409-62.178-44.069 62.178z" fill="#fff"/><path d="m263.468 707.321 115.173-29.532 36.968-51.331-183.409-62.178-44.069 62.178z" fill="none" stroke="#000" stroke-width="1.405"/><path d="m631.293 707.321-114.893-29.531-36.847-51.331 182.967-62.179 43.962 62.178z" fill="#fff"/><path d="m631.293 707.321-114.893-29.531-36.847-51.331 182.967-62.179 43.962 62.178zm-393.183-142.583v-221.704l5.607-55.97 5.639-49.734m408.39 327.408v-221.704l-5.981-55.97-5.947-49.734m-494.238 441.53-12.68-42.413 16.906-35.332-25.358-87.103 25.358-59.097-11.28-115.109m595.834 339.054 12.679-42.413-16.906-35.332 25.359-87.103-25.36-59.097 11.282-115.109" fill="none" stroke="#000" stroke-width="1.405"/><text fill="#fff" font-family="LucidaGrande, Lucida Grande" font-size="277" stroke="#2490f6"><tspan x="337" y="505">G</tspan></text></g></svg>