<svg xmlns="http://www.w3.org/2000/svg" viewBox="0 0 899 1415"><path d="M446.5 1067.7c-43.3-.2-84.4-18.9-112.9-51.5-176-199.9-273-367.3-273-471.6 0-216.9 173.1-393.4 385.9-393.4s385.9 176.5 385.9 393.4c0 104.2-96.9 271.7-273 471.6-28.5 32.6-69.6 51.4-112.9 51.5z" fill="#d9e4e8"/><path d="M477.3 128.4C602.5 254.7 672.5 425.3 672 603.1c0 140.9-95.7 320.3-214 488.2 46.1-3 89.1-24.3 119.5-59.1 120-136.3 279-343.9 279-487.5 0-220.1-167.2-400.2-379.2-416.3z" opacity=".14" fill="#17292d"/><path d="M345.1 681.9c-38.9 0-92-6.8-124.4-39.1-36-36-39.9-98.8-39-132.9.2-11.4 9.4-20.5 20.7-20.7 2.8-.1 5.7-.1 8.6-.1 38.9 0 92 6.8 124.4 39.1 36 36 39.9 98.8 39 132.9-.2 11.4-9.4 20.5-20.7 20.7-2.7 0-5.6.1-8.6.1zm194.6-.2c-11.4-.2-20.5-9.4-20.7-20.7-.9-34.2 3-96.9 39-132.9 32.3-32.3 85.5-39.1 124.4-39.1 3 0 5.8 0 8.6.1 11.4.2 20.5 9.4 20.7 20.7.9 34.2-3 96.9-39 132.9-32.3 32.3-85.5 39.1-124.4 39.1-.1.1-5.7 0-8.6-.1z" fill="#79d3d3"/><path d="M446.5 127.1c-226.4 0-410 186.9-410 417.6 0 143.6 159 351.3 279 487.5 63 72.3 172.7 79.9 245 17 6-5.3 11.7-10.9 17-17 120-136.3 279-343.9 279-487.5 0-230.6-183.6-417.6-410-417.6zm94.8 873.2c-45.4 52.4-124.6 58-177 12.6-4.5-3.9-8.7-8.1-12.6-12.6-172.2-195.4-267-357.3-267-455.6 0-203.6 162.3-369.3 361.8-369.3s361.8 165.7 361.8 369.3c0 98.3-94.8 260.2-267 455.6zM398.6 661.6c1.1-42.8-4.8-109.3-46-150.6-38.4-38.4-98.7-46.2-141.3-46.2-3.2 0-6.3 0-9.3.1-24.2.6-43.7 20.1-44.3 44.3-1.1 42.8 4.8 109.3 46 150.6C242.1 698.2 302.4 706 345 706c3.2 0 6.3 0 9.3-.1 24.3-.6 43.8-20.1 44.3-44.3zm-48.2-3.9H345c-28.1 0-79.4-4.2-107.2-32-28.8-28.8-32.5-81.8-32-112.6h5.4c28.1 0 79.4 4.2 107.2 32 28.9 28.7 32.6 81.8 32 112.6zm385.3-148.5c-.6-24.2-20.1-43.7-44.3-44.3-3 0-6.1-.1-9.3-.1-42.7 0-103 7.8-141.3 46.2-41.2 41.2-47.1 107.9-46 150.6.6 24.2 20.1 43.7 44.3 44.3 3 0 6.1.1 9.3.1 42.7 0 103-7.8 141.3-46.2 41.3-41.2 47.2-107.9 46-150.6zm-80.1 116.5c-27.9 27.9-79.1 32-107.2 32H543c-.5-30.8 3.2-83.8 32-112.6 27.9-27.9 79.1-32 107.2-32h5.4c.6 30.8-3.2 83.8-32 112.6zM518.9 898.9c0 13.3-10.8 24.1-24.1 24.1h-96.5c-13.3 0-24.1-10.8-24.1-24.1s10.8-24.1 24.1-24.1h96.5c13.3 0 24.1 10.8 24.1 24.1z" fill="#141f38"/></svg>