<svg clip-rule="evenodd" fill-rule="evenodd" stroke-linecap="round" stroke-miterlimit="10" viewBox="0 0 254 380" xmlns="http://www.w3.org/2000/svg"><path d="m130.968 27.43c6.765-11.63 22.58-15.049 35.325-7.637s17.595 22.849 10.83 34.48c0 0-15.797.527-32.935-4.161-17.138-4.687-13.22-22.682-13.22-22.682" fill-rule="nonzero"/><path d="m115.058 11.393c27.017 12.548 44.298 32.671 38.597 44.942-5.7 12.272-32.222 12.047-59.239-.502-27.016-12.549-44.296-32.672-38.596-44.943 5.7-12.272 32.222-12.046 59.238.503" fill-rule="nonzero"/><path d="m93.612 180.574v28.829" fill="none" stroke="#000" stroke-width="4.5"/><path d="m157.362 180.574v28.829" fill="none" stroke="#000" stroke-width="4.5"/><path d="m83.861 173.37v7.834c0 12.107 4.81 23.718 13.371 32.279l28.755 28.755 28.505-28.506c8.561-8.56 13.37-20.171 13.37-32.278v-10.662" fill="none" stroke="#000" stroke-width="4.5"/><path d="m132.358 186.612h-15.492c-26.374 0-47.754-21.38-47.754-47.754v-57.492c0-26.373 21.38-47.754 47.754-47.754h15.492c26.374 0 47.754 21.381 47.754 47.754v57.492c0 26.374-21.38 47.754-47.754 47.754z" fill="none" stroke="#03000b" stroke-linecap="butt" stroke-width="4.5"/><path d="m81.112 98.862h16.5" fill="#eff4ee" fill-rule="nonzero" stroke="#000" stroke-width="4.5"/><path d="m95.646 85.612c0-4.013-3.254-7.266-7.267-7.266s-7.267 3.253-7.267 7.266c0 4.014 3.254 7.267 7.267 7.267s7.267-3.253 7.267-7.267" style="fill-rule:nonzero;stroke:#000;stroke-width:.75;stroke-linecap:butt;stroke-linejoin:round;stroke-miterlimit:1.41421"/><path d="m90.516 80.368 2.023-2.022 2.022 2.022-2.022 2.023z" fill="#eff4ee"/><path d="m132.761 98.862h16.5" fill="#eff4ee" fill-rule="nonzero" stroke="#000" stroke-width="4.5"/><path d="m147.295 85.612c0-4.013-3.254-7.266-7.267-7.266s-7.267 3.253-7.267 7.266c0 4.014 3.254 7.267 7.267 7.267s7.267-3.253 7.267-7.267" style="fill-rule:nonzero;stroke:#000;stroke-width:.75;stroke-linecap:butt;stroke-linejoin:round;stroke-miterlimit:1.41421"/><path d="m142.166 80.368 2.022-2.022 2.022 2.022-2.022 2.023z" fill="#eff4ee"/><g stroke="#000"><path d="m99.487 69.237h-21.375v-7.875h13.5c4.349 0 7.875 3.526 7.875 7.875" fill-rule="nonzero" stroke-linecap="butt" stroke-linejoin="round" stroke-miterlimit="1.41421" stroke-width=".75"/><path d="m151.699 69.237h-21.375v-7.875h13.5c4.349 0 7.875 3.526 7.875 7.875" fill-rule="nonzero" stroke-linecap="butt" stroke-linejoin="round" stroke-miterlimit="1.41421" stroke-width=".75"/><path d="m112.612 117.987c-4.349 0-7.875-3.525-7.875-7.875 0-4.349 3.526-7.875 7.875-7.875v-13.687" fill="#eff4ee" fill-rule="nonzero" stroke-linejoin="round" stroke-width="4.5"/><path d="m173.93 57.854-13.038 13.038v35.152c0 5.975 4.843 10.819 10.819 10.819h3.425l.093-10.468 4.883-5.532s-.115-38.767-6.182-43.009" fill-rule="nonzero" stroke-linecap="butt" stroke-linejoin="round" stroke-miterlimit="1.41421" stroke-width=".75"/><path d="m171.362 56.862h-69.158c-7.635 0-13.825-6.189-13.825-13.824l14.507-7.344 18.476-2.082 25.933 2.386 18.583 11.359z" fill-rule="nonzero" stroke-linecap="butt" stroke-linejoin="round" stroke-miterlimit="1.41421" stroke-width=".75"/><path d="m93.612 141.612s19 14.5 43 0" fill="#eff4ee" fill-rule="nonzero" stroke-width="4.5"/><path d="m99.436 144.834s14.426-9.277 27.426 0" fill="none" stroke-width="4.5"/></g><path d="m174.874 18.059c1.263 1.458 1.611 3.227.776 3.951-.835.722-2.536.127-3.8-1.331-1.263-1.457-1.611-3.226-.775-3.949.835-.723 2.535-.128 3.799 1.329" fill-rule="nonzero"/><path d="m58.611 356.613h-35.999v-98.118c0-24.697 15.334-45.811 37-54.343v-4.04-120.81c0-31.308 25.381-56.69 56.689-56.69h15.622c31.309 0 56.689 25.382 56.689 56.69v120.81l.004 2.187c24.523 6.919 42.496 29.458 42.496 56.196v98.118h-105.245" fill="none" stroke="#000" stroke-width="4.5"/><path d="m173.612 124.113c2.239 2.239 5.333 3.624 8.75 3.624 6.835 0 12.375-5.541 12.375-12.375s-5.54-12.375-12.375-12.375c-3.415 0-6.508 1.385-8.747 3.622" fill="#eff4ee" fill-rule="nonzero" stroke="#000" stroke-width="4.5"/><path d="m78.487 223.362c0-2.899-2.35-5.25-5.25-5.25-2.899 0-5.25 2.351-5.25 5.25 0 2.9 2.351 5.25 5.25 5.25 2.9 0 5.25-2.35 5.25-5.25" fill-rule="nonzero"/><path d="m73.237 223.362v34.75" fill="none" stroke="#000" stroke-width="4.5"/><path d="m185.362 223.362c0-2.899-2.35-5.25-5.25-5.25-2.899 0-5.25 2.351-5.25 5.25 0 2.9 2.351 5.25 5.25 5.25 2.9 0 5.25-2.35 5.25-5.25" fill-rule="nonzero"/><path d="m180.112 223.362v45" fill="none" stroke="#000" stroke-width="4.5"/><path d="m180.112 276.237v11.438" fill="none" stroke="#040300" stroke-width="4.5"/><path d="m73.237 264.8v11.437" fill="none" stroke="#000" stroke-width="4.5"/><path d="m76.05 356.613h30.75" fill="none" stroke="#000" stroke-width="4.5"/></svg>