<svg viewBox="0 0 339 518" xmlns="http://www.w3.org/2000/svg" fill-rule="evenodd" clip-rule="evenodd" stroke-linecap="round" stroke-miterlimit="10"><path d="M124.817 253.099v38.438M209.817 253.099v38.438M111.815 243.492v10.446a60.849 60.849 0 0 0 17.827 43.038l38.34 38.341 38.008-38.008a60.865 60.865 0 0 0 17.827-43.038v-14.216" fill="none" stroke="#000" stroke-width="6"/><path d="M87.135 199.948H72.559c-9.397 0-17.014-7.618-17.014-17.015v-35.519c0-9.398 7.617-17.015 17.014-17.015h14.576c9.397 0 17.014 7.617 17.014 17.015v35.519c0 9.397-7.617 17.015-17.014 17.015" fill-rule="nonzero"/><path d="M176.478 261.15h-20.656c-35.165 0-63.672-28.507-63.672-63.672v-76.656c0-35.165 28.507-63.672 63.672-63.672h20.656c35.165 0 63.672 28.507 63.672 63.672v76.656c0 35.165-28.507 63.672-63.672 63.672z" fill="none" stroke="#000" stroke-width="6" stroke-linecap="butt"/><path d="M127.528 145.168c0-5.351-4.338-9.688-9.689-9.688s-9.689 4.337-9.689 9.688c0 5.351 4.338 9.688 9.689 9.688s9.689-4.337 9.689-9.688" fill-rule="nonzero"/><path d="M120.688 119.491l2.697-2.697 2.696 2.697-2.696 2.696-2.697-2.696z" fill="#eff4ee"/><path d="M196.393 145.168c0-5.351-4.338-9.688-9.689-9.688s-9.689 4.337-9.689 9.688c0 5.351 4.338 9.688 9.689 9.688s9.689-4.337 9.689-9.688" fill-rule="nonzero"/><path d="M189.554 119.491l2.697-2.697 2.696 2.697-2.696 2.696-2.697-2.696z" fill="#eff4ee"/><path d="M132.65 104.65h-28.5v-10.5h18c5.799 0 10.5 4.701 10.5 10.5M202.265 104.65h-28.5v-10.5h18c5.799 0 10.5 4.701 10.5 10.5" fill-rule="nonzero"/><path d="M150.15 169.65c-5.799 0-10.5-4.701-10.5-10.5s4.701-10.5 10.5-10.5V130.4" fill="#eff4ee" fill-rule="nonzero" stroke="#000" stroke-width="6" stroke-linejoin="round"/><path d="M231.906 89.472l-17.383 17.384v46.869c0 7.967 6.458 14.425 14.425 14.425h4.567l.123-13.957 6.512-7.376s-.154-51.689-8.244-57.345" fill-rule="nonzero" stroke="#000" stroke-linecap="butt" stroke-linejoin="round" stroke-miterlimit="1.414"/><path d="M232.79 145.168h-29.728c0 9.034-7.324 16.357-16.357 16.357-9.034 0-16.358-7.323-16.358-16.357h-36.151c0 9.034-7.323 16.357-16.357 16.357-9.034 0-16.358-7.323-16.358-16.357H86.123" fill="none" stroke="#000" stroke-width="6"/><path d="M124.817 201.15s25.333 19.333 57.333 0" fill="#eff4ee" fill-rule="nonzero" stroke="#000" stroke-width="6"/><path d="M132.582 205.446s19.235-12.37 36.568 0M78.148 487.817H30.15V356.993c0-32.929 20.445-61.081 49.333-72.457V118.069c0-41.744 33.841-75.586 75.586-75.586h20.829c41.745 0 75.585 33.842 75.585 75.586V279.15l.005 2.916c32.698 9.225 56.662 39.277 56.662 74.927v130.824H167.823" fill="none" stroke="#000" stroke-width="6"/><path d="M69.051 144.151v-29.246c0-46.809 37.946-84.755 84.755-84.755h23.355c46.809 0 84.755 37.946 84.755 84.755v29.246" fill="none" stroke="#000" stroke-width="6"/><path d="M231.483 177.817a16.448 16.448 0 0 0 11.667 4.833c9.113 0 16.5-7.388 16.5-16.5s-7.387-16.5-16.5-16.5a16.45 16.45 0 0 0-11.663 4.829" fill="#eff4ee" fill-rule="nonzero" stroke="#3e00ff" stroke-width="6"/><path d="M104.65 310.15a7 7 0 1 0-14 0 7 7 0 0 0 14 0" fill-rule="nonzero"/><path d="M97.65 310.15v46.333" fill="none" stroke="#000" stroke-width="6"/><path d="M247.15 310.15a7 7 0 1 0-14 0 7 7 0 0 0 14 0" fill-rule="nonzero"/><path d="M240.15 310.15v60" fill="none" stroke="#000" stroke-width="6"/><path d="M240.15 380.65v15.25" fill-rule="nonzero" stroke="#000" stroke-width="6"/><path d="M97.65 365.4v15.25" fill="#eff4ee" fill-rule="nonzero" stroke="#000" stroke-width="6"/><path d="M101.4 487.817h41" fill="none" stroke="#000" stroke-width="6"/><path d="M257.438 199.948h-14.576c-9.397 0-17.014-7.618-17.014-17.015v-35.519c0-9.398 7.617-17.015 17.014-17.015h14.576c9.397 0 17.015 7.617 17.015 17.015v35.519c0 9.397-7.618 17.015-17.015 17.015" fill-rule="nonzero"/><path d="M263.916 165.174c0-6.498-5.268-11.767-11.766-11.767s-11.766 5.269-11.766 11.767c0 6.498 5.268 11.766 11.766 11.766s11.766-5.268 11.766-11.766" fill="#eff4ee" fill-rule="nonzero"/><path d="M261.916 140.15v-25.245" fill-rule="nonzero" stroke="#000" stroke-width="13" stroke-linecap="butt"/><path d="M69.051 140.15v-25.245" fill="none" stroke="#000" stroke-width="13" stroke-linecap="butt"/><path d="M122.488 66.566s17.848 37.788 98.325 8.561L205.14 63.953l-21.066-6.35-28.252-.453-33.334 9.416z" fill-rule="nonzero"/><path d="M202.265 78.9s25.774 0 20.774 23.5l9.75-4.75V87.151l-16.807-15.468-13.717 7.217zM122.488 66.566S114.79 56.15 113.04 50.9h24s-11.28-8.75-4.39-26l22.612 22.611V35.15s22.278 3 25.528 16.25l18.644 6.775.21 3.322-77.156 5.069z" fill-rule="nonzero"/><path d="M187.494 137.354l3.129-3.129 3.13 3.129-3.13 3.13-3.129-3.13zM119.358 137.354l3.13-3.129 3.129 3.129-3.129 3.13-3.13-3.13z" fill="#eff4ee"/></svg>