<?xml version="1.0" standalone="no"?>
<!DOCTYPE svg PUBLIC "-//W3C//DTD SVG 1.1//EN" "http://www.w3.org/Graphics/SVG/1.1/DTD/svg11.dtd">
<svg xmlns="http://www.w3.org/2000/svg">
<defs >
<font id="LibreFranklin" horiz-adv-x="567" ><font-face
    font-family="Libre Franklin Thin ExtraLight"
    units-per-em="1000"
    panose-1="0 0 0 0 0 0 0 0 0 0"
    ascent="966"
    descent="-246"
    alphabetic="0" />
<glyph unicode=" " horiz-adv-x="219" />
<glyph unicode="!" horiz-adv-x="235" d="M117 11Q116 4 114 2T103 0H57Q50 0 48 3T46 12L56 78Q57 83 58 84T63 86H119Q123 86 125 84T127 76L117 11ZM123 163Q121 159 119 157T111 155H94Q89 155 87 157T85 165L152 735Q153 740 154 741T158 742H209Q212 742
214 739T216 734L123 163Z" />
<glyph unicode="&quot;" horiz-adv-x="380" d="M285 550Q284 546 282 544T273 541H254Q249 541 247 543T245 551L250 736Q251 740 253 741T257 742H325Q329 742 331 740T332 734L285 550ZM397 550Q396 546 394 544T385 541H366Q361 541 359 543T357 551L362 736Q363
740 365 741T369 742H437Q441 742 443 740T444 734L397 550Z" />
<glyph unicode="#" horiz-adv-x="603" d="M134 7Q133 2 131 1T125 0L100 4Q96 5 95 7T93 13L306 736Q308 740 309 741T313 742L339 738Q344 737 346 734T346 725L134 7ZM339 7Q338 2 336 1T329 0L305 4Q300 5 299 7T297 13L510 736Q512 740 513 741T518 742L543
738Q548 737 550 734T551 725L339 7ZM526 256Q525 252 523 250T515 248H51Q46 248 43 250T41 258L45 283Q46 288 47 289T51 290H522Q526 290 528 288T530 282L526 256ZM589 466Q588 462 586 460T578 458H113Q108 458 106 460T104 468L108 493Q109 498 110 499T114
500H585Q589 500 591 498T593 492L589 466Z" />
<glyph unicode="$" horiz-adv-x="581" d="M528 167Q521 117 490 77T410 14T300 -9Q295 -10 292 -12T288 -18L279 -84Q278 -88 277 -90T271 -92H244Q239 -92 237 -90T236 -84L246 -15Q246 -10 246 -10T242 -9Q154 -9 103 22T22 113Q19 118 19 122T23 129L44 143Q50
146 55 145T61 139Q92 91 132 66T243 39Q248 39 251 41T255 48L293 329Q295 338 291 344T277 355Q208 387 168 414T114 476T107 559Q115 613 146 654T229 721T341 751Q346 751 349 754T354 760L361 815Q362 818 363 819T367 821H395Q400 821 402 818T404 809L396
756Q396 753 396 752T400 750Q461 744 503 719T577 655Q580 653 582 649T578 641L549 619Q545 616 543 618T537 627Q517 655 481 674T400 700Q394 701 391 699T387 691L346 400Q345 393 346 392T354 387L382 374Q436 351 470 322T520 254T528 167V167ZM344 695Q345
699 343 700T337 701Q267 695 219 655T162 554Q158 527 167 504T204 459T282 411Q290 408 298 411T307 425L344 695ZM297 44Q297 41 297 41T301 40Q370 40 417 78T473 174Q480 225 453 258T355 324Q337 329 334 314L297 44V44Z" />
<glyph unicode="%" horiz-adv-x="902" d="M296 753Q344 753 378 728T427 656T432 538Q422 470 395 423T328 352T240 327Q192 327 157 352T107 425T102 544Q112 612 139 658T206 728T296 753V753ZM239 362Q278 362 309 385T362 449T390 543Q401 620 376 669T294
719Q256 719 224 696T172 631T143 537Q133 461 158 412T239 362V362ZM694 416Q742 416 776 391T825 318T830 201Q820 132 793 85T726 14T638 -10Q590 -10 556 15T506 88T501 206Q511 274 538 321T605 392T694 416V416ZM638 24Q675 24 706 48T760 113T789 205Q796
255 787 295T753 358T693 381Q656 381 624 357T571 292T542 200Q535 151 545 111T578 48T638 24V24ZM180 3Q176 -1 173 -2T163 -4H145Q137 -4 136 1T139 12L731 746Q733 750 736 750T744 750H766Q771 750 773 748T772 740L180 3Z" />
<glyph unicode="&amp;" horiz-adv-x="749" d="M386 753Q435 753 471 735T526 685T538 604Q533 568 510 532T442 463T323 399Q307 395 315 383L465 169Q469 164 471 165T481 174Q504 192 531 220T585 279T631 339T660 386Q662 390 666 390T674 389L695 381Q698
379 700 375T702 367Q688 336 657 295T587 210T510 132Q504 129 503 126T505 117Q523 99 552 83T615 57T682 47Q690 47 693 44T695 35L693 14Q691 5 688 3T676 0Q641 0 600 13T521 46T462 87Q457 90 454 89T446 82Q393 40 335 18T216 -5Q118 -5 68 48T29 190Q37
249 77 298T203 397Q215 403 217 407T211 423Q183 458 171 494T163 571Q171 623 202 664T282 729T386 753V753ZM385 709Q338 709 303 689T247 637T219 566Q215 538 222 513T249 459L270 433Q272 430 277 430T287 433Q386 477 432 518T486 611Q493 662 462 685T385
709V709ZM265 358Q260 366 254 366T238 360Q175 334 134 287T84 183Q75 118 115 79T223 40Q273 40 323 61T412 115Q420 120 422 125T421 137L265 358V358Z" />
<glyph unicode="&apos;" horiz-adv-x="236" d="M178 550Q177 546 175 544T166 541H147Q142 541 140 543T138 551L143 736Q144 740 146 741T150 742H218Q222 742 224 740T225 734L178 550Z" />
<glyph unicode="(" horiz-adv-x="272" d="M161 -165Q153 -165 152 -157Q121 -87 101 -18T74 126T80 288Q97 411 153 527T285 738Q290 742 299 742H312Q317 742 318 739T318 732Q276 667 239 593T175 441T136 281Q120 170 132 62T180 -160Q185 -165 177 -165H161V-165Z" />
<glyph unicode=")" horiz-adv-x="272" d="M-33 -165Q-37 -165 -38 -162T-39 -155Q3 -90 40 -16T105 136T143 296Q159 408 147 516T99 737Q94 742 102 742H118Q126 742 127 734Q159 664 179 595T205 451T199 289Q182 166 126 50T-6 -161Q-11 -165 -20 -165H-33V-165Z" />
<glyph unicode="*" horiz-adv-x="339" d="M220 564Q219 565 218 564T216 561L124 444Q123 442 121 443T116 446L93 463Q91 465 91 467T92 472L190 578Q191 580 191 581T189 583L83 615Q80 616 80 618T79 624L93 650Q95 652 96 652T100 651L200 611Q202 610 204
612T208 617L217 738Q217 740 218 741T224 742H258Q261 742 262 740T263 735L240 614Q240 611 241 611T244 612L358 657Q362 660 363 658T365 653L371 629Q371 625 371 624T368 621L254 583Q252 582 250 580T248 576L313 476Q315 473 315 471T311 465L285 449Q282
446 279 448T276 451L220 564Z" />
<glyph unicode="+" horiz-adv-x="545" d="M489 359Q489 354 487 353T479 351L90 350Q85 350 83 352T81 359L86 388Q87 392 88 393T91 394L486 395Q490 395 492 393T494 387L489 359ZM248 168Q243 168 240 171T238 181L292 569Q293 575 294 576T300 577H329Q333
577 335 575T337 570L283 175Q282 171 281 170T276 168H248Z" />
<glyph unicode="," horiz-adv-x="193" d="M-6 -136Q-14 -136 -8 -126L52 -13Q55 -7 53 -4T44 0H34Q29 0 28 1T27 7L37 78Q37 82 39 84T46 86H103Q110 86 108 77L99 18Q98 14 98 11T95 6L15 -128Q13 -131 10 -133T2 -136H-6V-136Z" />
<glyph unicode="-" horiz-adv-x="381" d="M310 251Q309 246 307 245T299 243L75 242Q70 242 68 244T66 251L71 281Q72 286 73 287T76 288L307 289Q311 289 313 287T315 281L310 251Z" />
<glyph unicode="." horiz-adv-x="188" d="M94 11Q93 4 91 2T79 0H34Q27 0 24 3T22 12L32 78Q33 84 35 85T40 87H96Q100 87 102 85T103 77L94 11Z" />
<glyph unicode="/" horiz-adv-x="331" d="M-23 -56Q-27 -56 -28 -54T-29 -49L333 737Q335 740 336 741T342 742H374Q380 742 381 739T380 729L22 -48Q20 -53 17 -54T10 -56H-23V-56Z" />
<glyph unicode="0" horiz-adv-x="678" d="M405 752Q470 752 519 721T596 627T624 468Q624 445 622 420T616 366Q598 240 552 157T441 32T302 -10Q237 -10 188 20T111 113T83 268Q83 291 85 316T91 370Q105 466 134 537T206 657T299 728T405 752V752ZM306 39Q367
39 417 73T504 181T558 372Q562 401 564 428T566 478Q566 596 522 649T404 703Q344 703 293 668T204 558T149 366Q145 338 143 312T141 263Q141 146 187 93T306 39V39Z" />
<glyph unicode="1" horiz-adv-x="444" d="M360 50Q369 50 367 42L362 8Q361 3 360 2T354 0H26Q21 0 20 1T19 8L24 44Q25 47 26 48T31 50H169Q175 50 176 56L262 669Q263 673 262 674T256 673L114 620Q103 617 105 627L108 654Q109 660 111 663T118 668L265 737Q273
741 278 741T290 742H321Q330 742 329 731L233 56Q232 50 238 50H360V50Z" />
<glyph unicode="2" horiz-adv-x="577" d="M304 307Q355 352 398 396T466 486T492 580Q492 622 471 648T417 689T347 703Q302 703 247 680T149 604Q144 598 138 602L108 628Q105 630 105 633T111 641Q161 699 228 725T356 752Q406 752 450 735T521 680T548 584Q548
524 521 473T447 374T339 272L100 62Q95 58 95 55T102 51H473Q484 51 482 41L478 9Q477 4 476 2T469 0H32Q19 0 20 14L23 39Q24 47 26 52T32 63T44 74L304 307Z" />
<glyph unicode="3" horiz-adv-x="628" d="M137 645Q131 653 136 659Q175 692 212 712T287 742T366 752Q466 752 522 706T579 590Q579 545 559 507T502 441T418 396Q414 395 414 393T419 388Q474 375 512 333T551 226Q551 163 516 109T414 23T250 -10Q188 -10 148
4T80 40T28 90Q23 96 27 100L59 124Q61 126 63 126T66 124Q99 78 149 59T258 39Q324 39 378 61T463 125T495 222Q495 270 468 302T397 350T304 366H214Q203 366 205 374L210 407Q210 413 218 413H291Q352 413 405 436T490 497T522 585Q522 636 480 669T366 703Q319
703 284 691T221 661T168 623Q159 616 152 626L137 645V645Z" />
<glyph unicode="4" horiz-adv-x="629" d="M463 737Q465 740 468 741T478 742H520Q530 742 529 731L463 266Q462 259 469 259H569Q574 259 577 257T580 251L575 220Q574 216 572 214T564 211H463Q454 211 453 202L427 9Q426 4 424 2T416 0H377Q368 0 370 11L397
204Q399 211 391 211H53Q43 211 44 222L50 258Q51 265 53 270T62 283L463 737V737ZM394 259Q401 259 402 268L456 649Q458 662 443 644L114 271Q108 264 109 262T114 259H394Z" />
<glyph unicode="5" horiz-adv-x="644" d="M603 742Q610 742 612 740T612 732L604 698Q602 695 600 693T593 691H240Q235 691 233 689T230 682L173 419Q172 414 174 412T180 412Q215 432 262 448T369 465Q426 465 473 446T550 387T579 281Q579 195 538 129T426
27T266 -10Q221 -10 181 0T106 32T39 89Q35 93 35 96T39 101L64 122Q67 125 70 124T77 120Q106 89 150 63T260 37Q336 37 395 67T487 152T521 276Q521 326 499 357T440 403T359 418Q318 418 281 407T213 380T157 348Q151 347 149 347T141 350L115 369Q110 374 110
376T111 387L187 734Q188 740 191 741T202 742H603Z" />
<glyph unicode="6" horiz-adv-x="649" d="M434 752Q465 752 491 745T537 727T573 700T600 669Q603 663 598 659L565 641Q560 637 552 649Q533 675 505 689T434 703Q350 703 291 663T198 553T152 398Q151 393 151 389T150 383Q150 378 154 378T163 381Q208 401
258 419T373 438Q443 438 489 414T560 350T584 255Q584 199 563 151T503 67T415 10T308 -10Q236 -10 186 22T109 116T82 266Q82 288 84 313T90 365Q107 486 153 572T271 705T434 752V752ZM371 389Q341 389 304 382T232 364T171 337Q148 323 142 304T136 249Q136
214 145 177T176 109T230 58T312 39Q370 39 419 67T497 143T527 247Q527 308 488 348T371 389V389Z" />
<glyph unicode="7" horiz-adv-x="590" d="M598 742Q603 742 605 740T606 733L603 707Q601 701 599 694T590 679Q539 617 490 545T395 396T311 248T245 115T203 13Q202 6 199 3T190 0H148Q142 0 141 4T142 17Q163 71 198 146T282 310T393 493T528 681Q532 686 531
688T524 691H113Q109 691 108 693T107 701L115 735Q116 739 118 740T126 742H598Z" />
<glyph unicode="8" horiz-adv-x="661" d="M400 752Q461 752 507 731T578 672T604 577Q604 534 588 501T550 443T507 402T476 377Q471 373 471 370T477 363Q493 356 512 345T547 316T575 272T586 207Q586 154 564 114T501 46T408 4T292 -10Q220 -10 167 10T86 69T57
166Q57 220 79 258T134 326T202 378Q207 382 208 385T203 393Q181 408 164 423T138 460T128 518Q128 585 164 637T262 721T400 752V752ZM395 704Q335 704 287 679T212 614T184 525Q184 481 209 457T285 419L389 394Q409 389 436 403T489 445T532 508T550 579Q550
636 509 670T395 704V704ZM297 38Q366 38 418 59T500 118T530 206Q530 251 505 281T428 324L281 362Q270 366 243 353T185 312T134 247T112 164Q112 108 161 73T297 38V38Z" />
<glyph unicode="9" horiz-adv-x="645" d="M246 -10Q212 -10 185 -3T136 15T100 41T73 72Q68 79 73 83L104 99Q112 104 119 93Q140 66 170 53T248 39Q329 39 386 79T477 189T523 344Q525 359 522 361T512 360Q468 340 419 322T306 304Q237 304 190 328T120 393T97
489Q97 546 118 594T178 677T266 732T372 752Q442 752 491 720T566 627T593 477Q593 383 571 296T505 140T396 31T246 -10V-10ZM306 353Q339 353 375 360T446 381T506 412Q529 426 535 445T542 497Q542 532 532 568T502 634T449 684T368 704Q311 704 262 676T184
600T154 496Q154 436 193 395T306 353V353Z" />
<glyph unicode=":" horiz-adv-x="188" d="M152 426Q151 419 149 417T138 415H92Q85 415 83 418T81 428L90 493Q91 498 93 500T98 502H154Q158 502 160 500T162 492L152 426ZM95 14Q94 7 91 5T79 3H34Q27 3 25 6T23 15L32 81Q33 86 35 87T40 89H96Q100 89 102 87T103
79L95 14Z" />
<glyph unicode=";" horiz-adv-x="214" d="M-5 -136Q-8 -136 -10 -133T-10 -124L51 -10Q54 -4 54 -2T46 0H36Q32 0 29 3T27 9L37 81Q38 84 39 85T44 86H101Q105 86 106 84T108 78L99 16Q98 9 96 4L16 -130Q14 -134 12 -135T3 -136H-5V-136ZM92 415Q85 415 83 418T81
427L90 493Q91 498 93 499T98 501H154Q158 501 160 499T162 491L152 426Q151 419 149 417T138 415H92V415Z" />
<glyph unicode="&lt;" horiz-adv-x="528" d="M447 189Q446 180 441 178T430 178L77 326Q73 328 71 331T69 338L75 378Q75 384 77 385T84 389L478 538Q487 542 492 539T495 527L492 496Q491 491 488 489T476 482L142 357L437 232Q445 228 448 224T451 214L447 189Z" />
<glyph unicode="=" horiz-adv-x="545" d="M504 459Q503 454 501 453T493 451L104 450Q99 450 97 452T96 459L99 487Q101 492 102 493T105 494L500 495Q504 495 506 493T508 487L504 459ZM473 237Q472 233 470 231T462 229L74 228Q69 228 67 230T65 238L68 266Q69
271 70 272T74 273L469 274Q472 274 475 272T477 266L473 237Z" />
<glyph unicode="&gt;" horiz-adv-x="528" d="M63 217Q64 223 67 225T79 232L412 357L116 483Q101 489 102 499L107 529Q108 544 125 538L476 388Q481 387 483 384T485 376L479 336Q479 331 477 330T470 325L77 178Q69 175 64 179T59 191L63 217V217Z" />
<glyph unicode="?" horiz-adv-x="516" d="M244 11Q243 4 241 2T230 0H184Q178 0 175 3T173 12L183 78Q184 83 185 84T190 86H246Q251 86 252 84T254 76L244 11ZM92 617Q89 619 88 622T88 629Q128 686 193 719T331 752Q397 752 442 730T508 666T522 568Q515 516
488 476T425 403T353 334T290 259T255 164Q253 157 247 157H215Q211 157 208 160T206 170Q214 229 241 272T303 350T373 418T434 488T467 573Q475 634 438 669T329 705Q291 705 252 691T182 654T135 603Q134 602 133 602T126 602L92 617Z" />
<glyph unicode="@" horiz-adv-x="834" d="M609 -47Q558 -79 502 -96T386 -113Q295 -113 227 -84T117 -3T58 117T52 264Q63 345 102 416T201 542T338 629T503 661Q566 661 626 642T731 584T798 484T808 337Q798 262 765 204T684 114T583 81Q559 81 541 87T514 105T503
140Q503 146 500 145T493 136Q466 106 430 87T342 67Q306 67 278 89T236 151T229 246Q238 310 269 362T348 444T449 475Q490 475 517 456T558 403Q560 402 562 403T567 409L581 445Q583 448 584 448T588 449H620Q624 449 626 447T627 442L557 214Q542 165 550 147T587
128Q625 128 660 154T720 227T755 336Q766 411 747 464T690 550T602 598T500 614Q420 614 352 586T232 509T147 394T104 256Q95 192 108 134T157 31T253 -40T400 -66Q444 -66 475 -58T533 -35T586 -5Q593 -1 598 -3T605 -9L616 -27Q621 -34 618 -39T609 -47V-47ZM284
242Q275 183 293 149T351 115Q387 115 421 136T482 192T521 270Q537 324 529 359T498 410T448 427Q407 427 372 402T314 335T284 242V242Z" />
<glyph unicode="A" horiz-adv-x="706" d="M22 0Q18 0 16 3T15 12L381 732Q384 738 387 740T398 742H442Q450 742 454 739T458 730L619 10Q620 6 618 3T611 0H576Q564 0 563 10L514 226Q513 232 506 232H191Q183 232 179 224L68 6Q67 2 64 1T56 0H22V0ZM494 280Q504
280 502 292L416 668Q414 678 411 677T402 665L211 293Q207 285 207 283T212 280H494Z" />
<glyph unicode="B" horiz-adv-x="687" d="M83 0Q78 0 76 2T74 10L176 730Q177 742 188 742H397Q513 742 576 701T639 578Q639 503 599 454T484 381Q478 380 478 377T483 372Q540 361 573 325T607 227Q607 163 583 120T516 50T419 12T306 0H83V0ZM298 47Q343 47
387 54T468 79T526 132T548 223Q548 270 523 298T456 338T357 351H192Q186 351 183 349T178 341L138 56Q137 51 139 49T147 47H298ZM361 399Q422 399 471 418T550 475T580 571Q580 635 529 665T389 695H238Q234 695 231 693T226 685L188 409Q187 404 189 402T195
399H361Z" />
<glyph unicode="C" horiz-adv-x="698" d="M444 752Q508 752 560 724T643 650T674 551Q674 543 666 543L624 540Q617 540 616 551Q609 619 562 661T440 703Q375 703 326 678T241 608T184 509T152 393T142 275Q142 160 193 100T349 40Q427 40 484 77T580 193Q583
198 591 195L627 182Q634 180 630 172Q615 140 593 112T544 62T485 24T418 -1T345 -10Q261 -10 202 24T113 122T83 279Q83 343 96 410T136 539T205 648T306 724T444 752V752Z" />
<glyph unicode="D" horiz-adv-x="707" d="M85 0Q80 0 77 3T74 13L176 734Q177 739 180 740T188 742H309Q430 742 506 711T618 619T655 463Q655 314 606 211T457 54T203 0H85V0ZM203 47Q344 47 430 94T555 235T595 464Q595 551 563 601T466 672T300 694H237Q227
694 225 682L140 61Q139 53 141 50T150 47H203Z" />
<glyph unicode="E" horiz-adv-x="616" d="M176 733Q177 739 178 740T186 742H611Q618 742 616 733L612 703Q611 699 609 697T601 694H237Q232 694 230 693T226 686L187 405Q186 402 187 401T193 399H479Q483 399 484 397T485 390L480 358Q479 351 470 351H188Q179
351 178 341L139 56Q138 48 145 48H524Q530 48 532 46T533 39L529 7Q528 2 527 1T521 0H84Q73 0 74 12L176 733V733Z" />
<glyph unicode="F" horiz-adv-x="587" d="M176 732Q177 739 179 740T187 742H599Q608 742 606 733L602 703Q601 699 600 697T592 694H238Q232 694 230 692T226 684L186 395Q185 391 186 389T193 386H485Q489 386 490 385T492 379L489 348Q489 344 487 342T479
339H186Q181 339 180 337T176 328L132 7Q131 2 128 1T121 0H81Q75 0 74 2T74 12L176 732V732Z" />
<glyph unicode="G" horiz-adv-x="732" d="M337 -10Q256 -10 199 24T113 122T83 278Q83 371 106 456T174 608T287 713T441 752Q505 752 558 725T642 653T674 555Q674 547 668 546L623 539Q619 538 618 540T616 550Q615 593 593 627T531 682T439 703Q363 703 308
668T216 571T161 434T143 275Q143 160 193 100T341 39Q399 39 443 59T520 112T572 182T596 254L607 327Q608 336 598 336H415Q407 336 408 343L411 372Q412 377 417 377H657Q661 377 663 375T664 369L613 10Q612 0 601 0H583Q570 0 571 10L583 114Q584 119 581
119T574 113Q552 79 518 51T438 7T337 -10V-10Z" />
<glyph unicode="H" horiz-adv-x="727" d="M188 362Q185 362 183 360T180 354L132 9Q131 4 129 2T120 0H84Q78 0 76 3T74 12L176 733Q177 739 178 740T186 742H224Q229 742 231 740T232 731L189 419Q188 412 189 411T196 410H571Q576 410 578 413T582 420L626 734Q627
739 628 740T634 742H674Q679 742 681 740T682 730L581 10Q580 4 579 2T571 0H535Q529 0 526 2T524 11L572 356Q573 362 567 362H188Z" />
<glyph unicode="I" horiz-adv-x="278" d="M224 742Q235 742 232 730L132 12Q131 4 129 2T118 0H86Q78 0 76 3T74 12L176 733Q177 739 178 740T186 742H224Z" />
<glyph unicode="J" horiz-adv-x="403" d="M281 147Q274 98 256 63T206 9T123 -10Q80 -10 53 0T18 14Q13 17 12 19T11 25L27 62Q28 64 30 65T40 62Q51 57 71 50T122 43Q172 43 194 70T226 162L306 733Q307 739 308 740T314 742H355Q364 742 362 730L281 147V147Z" />
<glyph unicode="K" horiz-adv-x="680" d="M592 11Q598 0 590 0H541Q533 0 531 7L336 403Q334 409 332 407T324 401L176 258Q171 254 168 251T164 241L132 9Q131 4 129 2T120 0H85Q79 0 76 3T74 11L176 734Q177 739 178 740T185 742H225Q229 742 231 740T233 732L177
331Q176 326 177 327T183 332L609 736Q613 740 617 741T626 742H673Q678 742 678 739T675 732L382 454Q381 452 380 451T379 446L592 11V11Z" />
<glyph unicode="L" horiz-adv-x="591" d="M176 732Q177 742 187 742H226Q235 742 232 730L139 56Q137 48 145 48H504Q514 48 513 39L509 7Q508 2 507 1T501 0H84Q72 0 74 12L176 732V732Z" />
<glyph unicode="M" horiz-adv-x="885" d="M81 0Q76 0 75 2T74 12L176 733Q177 739 178 740T186 742H230Q235 742 237 740T240 735L407 84Q409 75 413 76T422 87L774 735Q778 742 786 742H832Q841 742 840 731L739 10Q738 4 737 2T729 0H693Q687 0 684 2T682 11L766
613Q767 617 766 617T764 614L436 10Q433 4 430 2T419 0H382Q376 0 374 2T369 12L216 610Q215 614 214 614T211 610L127 9Q126 4 124 2T116 0H81V0Z" />
<glyph unicode="N" horiz-adv-x="755" d="M702 742Q711 742 710 731L609 9Q608 0 600 0H577Q571 0 567 1T559 8L226 623Q222 631 218 630T213 620L127 9Q126 4 124 2T116 0H84Q78 0 76 3T74 12L176 733Q177 739 178 740T186 742H213Q219 742 222 740T228 733L557
122Q562 114 567 115T573 126L659 734Q660 739 661 740T667 742H702Z" />
<glyph unicode="O" horiz-adv-x="759" d="M343 -10Q260 -10 202 22T114 119T83 275Q83 298 84 321T90 370Q108 494 156 579T278 708T446 752Q528 752 586 719T674 621T705 461Q705 439 704 416T698 366Q681 244 633 160T512 33T343 -10V-10ZM347 39Q469 39 542
121T640 371Q644 399 645 423T647 470Q647 588 596 645T445 703Q325 703 249 620T149 366Q145 341 144 317T142 272Q142 155 194 97T347 39V39Z" />
<glyph unicode="P" horiz-adv-x="678" d="M185 323Q181 323 178 321T174 313L132 9Q131 4 129 2T122 0H83Q72 0 74 10L176 731Q177 737 178 739T186 742H414Q486 742 541 724T626 668T657 567Q657 486 620 432T518 351T365 323H185ZM598 569Q598 640 547 667T408
695H238Q234 695 231 693T226 685L184 383Q183 376 184 374T191 371H367Q438 371 489 393T569 460T598 569V569Z" />
<glyph unicode="Q" horiz-adv-x="760" d="M90 372Q108 496 156 581T278 709T445 752Q528 752 586 719T674 622T705 463Q705 441 704 417T698 366Q680 235 631 154T503 27Q494 22 494 15Q494 2 511 -17T556 -51T618 -72Q624 -73 625 -75T626 -82L621 -115Q620 -120
615 -121T599 -122Q579 -122 551 -112T493 -75T439 -3Q436 2 424 -1Q405 -5 384 -7T343 -10Q262 -10 204 22T114 118T83 277Q83 299 84 323T90 372V372ZM149 364Q145 338 144 314T142 268Q142 152 194 96T345 39Q466 39 541 120T640 371Q644 398 645 422T647 469Q647
584 597 643T444 703Q322 703 248 618T149 364V364Z" />
<glyph unicode="R" horiz-adv-x="683" d="M570 14Q575 0 561 0H523Q517 0 515 3T511 11L417 342Q416 347 413 349T399 351H190Q179 351 178 339L132 11Q131 4 129 2T120 0H85Q79 0 76 3T74 11L176 733Q177 739 178 740T186 742H448Q549 742 603 703T658 587Q658
530 636 485T575 408T481 363Q476 361 474 359T472 355L570 14V14ZM366 398Q438 398 489 416T569 474T597 581Q597 639 559 667T442 695H240Q229 695 226 686L187 407Q186 402 187 400T193 398H366V398Z" />
<glyph unicode="S" horiz-adv-x="623" d="M551 624Q527 658 485 680T381 703Q324 703 278 682T206 624T179 535Q179 517 187 498T217 459T280 423L413 373Q487 345 519 306T551 213Q551 141 515 91T416 16T275 -10Q189 -10 132 21T39 116Q37 121 38 126T46 136L64
147Q70 152 75 151T84 144Q107 109 132 86T191 51T278 39Q342 39 390 56T466 111T494 205Q494 239 472 265T384 318L241 375Q174 401 148 442T122 528Q122 580 142 621T199 691T283 736T386 752Q434 752 472 740T540 706T594 653Q599 648 599 645T595 639L564 616Q562
615 559 616T551 624V624Z" />
<glyph unicode="T" horiz-adv-x="628" d="M112 735Q113 740 114 741T120 742H642Q647 742 648 740T648 733L643 703Q642 699 640 697T633 694H424Q418 694 415 692T411 684L317 10Q316 3 314 2T307 0H268Q262 0 260 2T259 12L354 682Q355 694 343 694H115Q107
694 108 703L112 735Z" />
<glyph unicode="U" horiz-adv-x="704" d="M599 233Q588 150 553 96T458 16T315 -10Q202 -10 148 38T93 186Q93 201 94 217T98 251L166 732Q167 738 169 740T175 742H213Q219 742 221 739T222 730L152 229Q151 217 150 207T149 185Q149 111 192 75T320 39Q388 39
436 60T512 125T550 234L620 733Q621 739 622 740T629 742H661Q666 742 667 739T669 731L599 233V233Z" />
<glyph unicode="V" horiz-adv-x="694" d="M705 742Q714 742 710 731L347 11Q343 4 340 2T329 0H289Q281 0 277 2T270 12L117 732Q116 742 126 742H160Q171 742 172 732L312 77Q316 59 324 75L656 735Q658 740 661 741T668 742H705V742Z" />
<glyph unicode="W" horiz-adv-x="1027" d="M1033 742Q1039 742 1040 739T1041 730L732 11Q729 4 726 2T714 0H676Q668 0 664 3T658 12L570 638Q569 641 568 641T564 638L296 11Q293 4 290 2T278 0H239Q223 0 222 12L120 731Q119 737 121 739T129 742H163Q170 742
172 740T175 732L266 89Q268 80 270 80T277 89L552 735Q554 740 556 741T566 742H599Q606 742 608 740T611 732L702 87Q703 79 706 79T713 90L988 735Q990 740 993 741T1001 742H1033V742Z" />
<glyph unicode="X" horiz-adv-x="668" d="M577 11Q581 5 581 3T574 0H529Q526 0 524 1T520 6L351 321Q347 328 344 328T335 323L75 4Q73 2 70 1T64 0H18Q13 0 13 3T17 14L307 370Q312 376 313 381T311 392L129 734Q128 737 128 739T132 742H180Q185 742 187 741T190
736L348 437Q354 427 362 437L608 738Q610 741 612 741T618 742H667Q671 742 671 739T670 733L387 386Q384 382 384 380T385 373L577 11V11Z" />
<glyph unicode="Y" horiz-adv-x="647" d="M660 742Q665 742 666 738T664 729L368 326Q365 321 364 317T361 303L319 13Q318 5 315 3T302 0H271Q264 0 263 3T262 13L302 296Q304 304 304 308T300 317L115 730Q112 736 113 739T122 742H157Q165 742 168 739T173
731L328 382Q337 362 351 382L605 734Q609 739 612 740T623 742H660V742Z" />
<glyph unicode="Z" horiz-adv-x="607" d="M27 0Q22 0 19 2T17 9L20 26Q21 32 22 36T29 45L533 688Q535 691 534 692T530 694H134Q125 694 127 704L131 736Q132 740 133 741T137 742H612Q620 742 619 734L616 715Q615 710 614 708T609 701L101 55Q94 48 102 48H514Q517
48 519 47T521 41L516 7Q515 3 514 2T508 0H27V0Z" />
<glyph unicode="[" horiz-adv-x="272" d="M55 -165Q50 -165 47 -162T44 -155L168 736Q169 740 171 741T177 742H316Q320 742 322 740T323 735L320 706Q319 703 318 702T312 701H224Q220 701 217 698T214 690L98 -118Q98 -123 98 -123T104 -124H192Q196 -124 198
-126T201 -133L197 -158Q196 -162 195 -163T189 -165H55V-165Z" />
<glyph unicode="\" horiz-adv-x="331" d="M232 -56Q222 -56 221 -46L82 732Q81 738 82 740T88 742H120Q123 742 126 740T128 734L270 -52Q270 -54 270 -55T264 -56H232V-56Z" />
<glyph unicode="]" horiz-adv-x="272" d="M-36 -165Q-41 -165 -43 -163T-44 -158L-40 -129Q-39 -126 -38 -125T-33 -124H55Q60 -124 63 -121T66 -113L181 695Q181 700 181 700T175 701H87Q83 701 81 703T78 710L82 735Q83 740 84 741T90 742H225Q230 742 233 739T235
732L111 -159Q110 -163 109 -164T102 -165H-36V-165Z" />
<glyph unicode="^" horiz-adv-x="476" d="M269 454Q268 460 265 459T259 452L92 144Q90 140 88 139T82 138H47Q43 138 42 142T42 150L236 505Q248 528 261 536T286 536T304 503L400 144Q401 140 400 138T394 136H360Q356 136 352 138T348 145L269 454Z" />
<glyph unicode="_" horiz-adv-x="505" d="M386 -97Q385 -101 383 -103T375 -105L26 -106Q21 -106 19 -104T18 -96L21 -66Q23 -62 24 -61T27 -59L382 -58Q386 -58 388 -60T390 -67L386 -97Z" />
<glyph unicode="`" horiz-adv-x="275" d="M90 747Q91 749 93 749T98 749L314 656Q317 655 318 652T319 645L309 628Q308 623 306 623T298 624L81 697Q75 699 73 703T74 711L90 747V747Z" />
<glyph unicode="a" horiz-adv-x="540" d="M377 68Q331 29 282 10T179 -10Q107 -10 67 23T26 114Q26 165 50 201T114 259T203 294T302 310L402 318Q421 320 423 334L427 364Q428 370 428 376T429 388Q429 439 396 468T304 497Q254 497 211 474T128 406Q125 403
123 403T117 404L88 420Q86 422 85 425T88 433Q125 480 181 510T308 540Q362 540 400 523T458 473T478 396Q478 389 478 382T476 366L426 10Q425 3 423 2T415 0H390Q385 0 382 3T380 11L387 69Q387 80 377 68V68ZM412 265Q413 273 411 276T401 278L316 271Q282
268 241 261T163 238T103 194T79 120Q79 79 109 57T192 34Q229 34 265 47T330 82Q361 104 379 127T400 172L412 265Z" />
<glyph unicode="b" horiz-adv-x="594" d="M64 0Q57 0 55 4T53 15L154 733Q155 738 157 740T163 742H196Q201 742 202 739T203 729L168 478Q167 469 169 469T179 476Q186 481 209 496T269 526T357 540Q423 540 463 513T522 438T542 330Q542 271 526 211T477 101T393
21T272 -10Q222 -10 190 5T141 40T118 69Q115 74 112 73T106 63L96 13Q95 5 92 3T80 0H64ZM125 176Q120 137 139 104T192 52T267 33Q323 33 364 59T433 127T475 222T489 326Q489 406 453 451T344 497Q290 497 242 472T160 412L125 176Z" />
<glyph unicode="c" horiz-adv-x="538" d="M333 540Q380 540 414 526T474 486T516 427Q519 422 519 420T515 415L483 402Q481 401 479 403T473 410Q451 441 430 460T386 488T336 497Q280 497 237 473T163 407T118 316T102 214Q102 131 145 82T266 33Q318 33 361
58T443 134Q449 140 454 135L479 120Q482 119 483 115T483 108Q462 79 437 57T383 20T324 -2T260 -10Q195 -10 148 17T76 95T50 213Q50 272 68 330T123 436T213 512T333 540V540Z" />
<glyph unicode="d" horiz-adv-x="594" d="M433 0Q428 0 425 3T422 13L430 62Q432 70 429 70T418 63Q409 54 387 37T329 5T247 -10Q162 -10 106 43T50 201Q50 260 68 319T121 429T210 509T333 540Q387 540 418 522T470 485Q479 478 483 480T488 495L522 732Q523
738 524 740T532 742H563Q572 742 571 731L470 12Q469 4 467 2T457 0H433ZM479 424Q449 459 414 478T336 497Q279 497 236 472T162 404T117 310T102 206Q102 147 123 109T180 52T259 33Q306 33 346 55T413 110T443 172L479 424Z" />
<glyph unicode="e" horiz-adv-x="578" d="M263 -10Q198 -10 150 17T76 95T50 212Q50 274 69 332T124 437T214 512T336 540Q398 540 443 515T511 444T535 329Q535 315 534 301T531 270Q530 263 525 258T512 252H112Q106 252 103 245T100 207Q100 128 146 81T266
34Q325 34 371 57T451 126Q455 130 457 130T463 127L488 111Q494 107 490 99Q461 62 426 38T351 2T263 -10V-10ZM465 292Q476 292 482 300T488 340Q488 411 446 454T333 497Q270 497 223 467T146 389T111 292H465Z" />
<glyph unicode="f" horiz-adv-x="367" d="M372 530Q375 530 377 528T378 522L374 495Q373 489 367 489H238Q231 489 229 480L163 10Q162 4 161 2T154 0H122Q118 0 115 3T113 12L179 483Q181 489 175 489H64Q61 489 60 491T58 497L62 524Q63 528 64 529T68 530H177Q182
530 184 532T187 539L199 618Q208 680 239 711T331 742H405Q409 742 411 740T413 733L409 708Q408 701 400 701H323Q287 701 271 680T249 622L237 536Q236 530 242 530H372V530Z" />
<glyph unicode="g" horiz-adv-x="586" d="M213 -175Q102 -175 46 -139T-11 -44Q-11 0 17 35T94 92Q101 95 103 97T99 103Q84 114 77 125T69 150Q69 169 81 183T111 208T147 224Q153 227 155 231T152 237Q118 256 103 282T87 344Q87 391 105 427T154 487T227 525T313
538Q374 538 408 524T461 492Q466 487 470 488T481 494Q493 503 507 511T539 526T573 532Q585 532 589 529T592 518L590 500Q589 492 586 489T572 484Q553 483 541 480T516 470Q486 456 490 446Q494 437 497 424T501 391Q501 344 483 310T432 253T360 220T274 209Q264
209 240 208T188 201T141 186T121 158Q121 143 144 136T219 125L340 118Q413 114 447 84T482 -2Q482 -41 468 -69T427 -118T367 -150T293 -169T213 -175V-175ZM213 -134Q250 -134 288 -129T359 -109T411 -70T431 -4Q431 32 410 50T333 70L164 81Q129 73 101 57T57
17T40 -37Q40 -90 87 -112T213 -134V-134ZM276 250Q323 250 363 264T428 311T454 397Q454 445 419 471T315 497Q268 497 227 481T161 432T135 347Q135 300 172 275T276 250V250Z" />
<glyph unicode="h" horiz-adv-x="578" d="M62 0Q58 0 55 3T52 11L154 733Q155 739 156 740T163 742H192Q203 742 201 732L163 467Q162 456 169 460Q212 487 244 504T306 531T372 540Q444 540 480 507T517 417Q517 411 517 405T515 391L461 10Q460 4 458 2T451
0H421Q409 0 411 11L463 377Q464 384 464 391T465 405Q465 449 441 472T363 496Q328 496 298 486T234 455T158 405L102 9Q101 4 99 2T92 0H62Z" />
<glyph unicode="i" horiz-adv-x="226" d="M102 12Q101 4 99 2T89 0H64Q57 0 54 3T52 12L124 521Q125 527 126 528T133 530H165Q170 530 172 527T174 518L102 12ZM197 655Q196 648 194 644T183 640H148Q141 640 139 644T138 656L148 729Q150 742 162 742H197Q202
742 205 738T207 727L197 655Z" />
<glyph unicode="j" horiz-adv-x="226" d="M94 -47Q85 -111 58 -140T-40 -170Q-85 -170 -96 -168T-106 -159L-102 -133Q-101 -129 -100 -128T-96 -127L-39 -125Q-1 -124 18 -105T45 -40L124 521Q125 526 127 528T134 530H165Q170 530 172 527T174 518L94 -47V-47ZM197
655Q196 648 194 644T183 640H148Q141 640 139 644T138 656L148 729Q150 742 162 742H197Q202 742 205 738T207 727L197 655Z" />
<glyph unicode="k" horiz-adv-x="544" d="M474 12Q477 6 477 3T469 0H430Q425 0 422 2T417 9L282 294Q280 299 273 292L132 167Q128 163 126 159T122 149L102 12Q101 4 99 2T89 0H64Q57 0 54 3T52 12L154 733Q155 739 156 740T163 742H195Q200 742 202 739T203
730L135 240Q134 231 135 231T143 237L459 521Q465 527 468 528T477 530H516Q525 530 526 525T519 513L329 343Q325 340 324 338T323 330L474 12V12Z" />
<glyph unicode="l" horiz-adv-x="226" d="M102 12Q101 4 99 2T89 0H64Q57 0 54 3T52 12L154 733Q155 739 156 740T164 742H195Q206 742 203 730L102 12Z" />
<glyph unicode="m" horiz-adv-x="899" d="M62 0Q58 0 55 3T52 11L124 521Q125 527 126 528T132 530H163Q168 530 170 528T171 520L163 465Q162 455 168 460Q208 486 239 504T299 531T362 540Q425 540 456 513T492 452Q493 448 497 451T508 459Q548 486 579 504T639
531T702 540Q770 540 804 507T838 418Q838 411 838 405T836 390L782 10Q781 4 779 2T772 0H742Q730 0 732 11L784 376Q786 384 786 392T786 407Q786 450 764 473T693 496Q658 496 626 483T566 452T518 418Q508 411 503 405T495 388L442 10Q441 4 439 2T432 0H402Q398
0 395 3T392 11L444 377Q451 433 431 464T353 496Q320 496 291 486T231 455T158 405L102 9Q101 4 99 2T92 0H62V0Z" />
<glyph unicode="n" horiz-adv-x="578" d="M62 0Q57 0 54 3T52 11L124 521Q125 527 126 528T132 530H163Q168 530 170 528T171 521L162 460Q161 450 169 456Q221 496 269 518T372 540Q444 540 480 506T517 417Q517 411 517 405T515 391L461 10Q460 4 458 2T451
0H420Q416 0 413 3T411 11L463 376Q464 384 464 391T465 405Q465 449 441 472T363 496Q328 496 298 486T234 455T158 405L102 9Q101 4 99 2T91 0H62V0Z" />
<glyph unicode="o" horiz-adv-x="598" d="M262 -10Q197 -10 149 17T76 95T50 212Q50 283 72 343T133 447T225 515T337 540Q402 540 449 512T522 432T547 312Q547 218 509 146T407 32T262 -10V-10ZM266 34Q332 34 384 69T466 168T496 317Q496 400 454 448T335 497Q270
497 217 461T133 360T102 213Q102 131 145 83T266 34V34Z" />
<glyph unicode="p" horiz-adv-x="592" d="M37 -165Q33 -165 31 -162T29 -154L124 518Q125 526 127 528T137 530H161Q166 530 169 527T172 518L164 468Q163 462 166 462T176 468Q186 476 206 493T262 525T346 540Q432 540 486 488T541 331Q541 271 524 211T471
101T384 21T262 -10Q210 -10 176 6T123 42Q115 49 111 46T105 32L79 -156Q78 -161 77 -163T70 -165H37V-165ZM258 33Q313 33 356 58T429 126T473 220T489 324Q489 384 468 422T412 478T334 497Q286 497 246 476T181 423T152 363L114 106Q145 72 179 53T258 33V33Z"
/>
<glyph unicode="q" horiz-adv-x="594" d="M406 -165Q397 -165 398 -152L424 34Q426 45 425 46T412 39Q383 20 342 5T251 -10Q155 -10 104 50T52 210Q52 267 68 325T116 432T200 510T323 540Q378 540 409 526T456 496T478 470Q482 466 485 467T491 476L502 518Q504
526 507 528T520 530H533Q539 530 541 527T541 515L448 -156Q447 -161 445 -163T437 -165H406V-165ZM262 33Q307 33 353 53T434 109L470 354Q474 391 458 424T409 477T329 497Q274 497 232 473T162 407T119 316T104 214Q104 128 147 81T262 33V33Z" />
<glyph unicode="r" horiz-adv-x="362" d="M62 0Q57 0 54 3T52 11L124 521Q125 527 126 528T132 530H162Q167 530 169 528T171 520L161 456Q160 450 163 450T170 454Q202 486 230 505T285 532T338 540Q358 540 366 537T373 529L368 495Q368 492 368 491T365 490Q359
490 351 490T331 491Q308 491 278 480T221 450T174 408T151 359L102 9Q101 4 99 2T92 0H62V0Z" />
<glyph unicode="s" horiz-adv-x="504" d="M209 -10Q134 -10 80 22T8 103Q4 111 10 114L37 129Q40 131 43 130T48 125Q67 82 108 58T210 33Q233 33 262 39T319 57T365 91T383 145Q383 172 360 194T282 233L183 262Q119 282 95 310T70 374Q70 427 101 464T181 520T284
540Q348 540 395 516T465 445Q467 442 466 440T461 435L437 421Q434 420 432 421T426 425Q407 459 371 478T281 497Q248 497 211 486T147 450T121 387Q121 366 138 347T203 311L330 271Q382 255 407 224T433 153Q433 113 413 83T360 31T287 0T209 -10V-10Z" />
<glyph unicode="t" horiz-adv-x="365" d="M205 0Q153 0 131 20T108 83Q108 92 108 102T110 121L160 482Q161 487 160 488T155 489H64Q58 489 58 497L62 525Q63 528 64 529T68 530H160Q163 530 166 532T169 539L201 701Q202 710 212 710H234Q239 710 241 707T242
697L219 537Q218 532 219 531T224 530H360Q363 530 365 528T367 522L363 494Q362 491 362 490T356 489H220Q212 489 210 480L161 127Q160 117 159 110T158 94Q158 61 171 51T211 41H287Q292 41 294 39T296 32L292 11Q291 6 286 3Q278 2 262 2T229 1T205 0V0Z" />
<glyph unicode="u" horiz-adv-x="573" d="M207 -10Q142 -10 102 25T61 118Q61 123 61 128T62 140L116 520Q117 526 119 528T126 530H156Q162 530 164 527T166 519L115 159Q114 152 114 146T113 134Q113 82 139 58T214 34Q264 34 313 62T416 137L471 521Q472 527
474 528T481 530H511Q516 530 519 527T521 519L449 9Q448 4 447 2T440 0H411Q407 0 404 2T402 9L411 69Q412 74 410 75T403 73Q335 23 290 7T207 -10V-10Z" />
<glyph unicode="v" horiz-adv-x="534" d="M530 530Q535 530 538 527T539 519L261 11Q257 4 253 2T242 0H223Q215 0 210 3T203 12L68 520Q67 530 77 530H108Q113 530 116 528T120 520L236 80Q241 60 252 83L490 523Q495 530 502 530H530V530Z" />
<glyph unicode="w" horiz-adv-x="786" d="M778 530Q783 530 785 527T787 519L566 10Q564 4 560 2T549 0H517Q499 0 499 12L423 434Q421 442 419 441T413 431L226 10Q224 4 221 2T210 0H175Q158 0 157 12L72 520Q70 530 80 530H112Q117 530 120 528T123 520L197
80Q199 70 202 72T210 84L408 524Q410 530 418 530H446Q451 530 454 528T458 520L538 80Q540 70 543 72T550 84L742 523Q746 530 755 530H778V530Z" />
<glyph unicode="x" horiz-adv-x="522" d="M448 13Q454 5 454 3T447 0H405Q400 0 397 2T392 7L262 224Q259 230 256 229T247 222L49 5Q48 2 45 1T35 0H4Q-3 0 -5 4T0 18L225 260Q230 265 231 269T230 278L84 521Q82 524 83 527T88 530H127Q133 530 135 528T139
523L266 315Q268 311 272 311T281 318L462 525Q465 529 467 529T476 530H509Q515 530 516 527T515 519L302 282Q297 277 296 273T297 264L448 13V13Z" />
<glyph unicode="y" horiz-adv-x="513" d="M45 -165Q17 -165 1 -164T-15 -155L-12 -135Q-11 -128 -5 -125T20 -122H77Q101 -122 123 -105T161 -63T186 -11T189 35L66 516Q63 530 75 530H109Q119 530 120 523L229 91Q231 82 235 82T246 93L472 521Q474 526 477 528T484
530H514Q523 530 517 521L206 -69Q192 -96 175 -114T137 -144T94 -160T45 -165V-165Z" />
<glyph unicode="z" horiz-adv-x="463" d="M6 0Q1 0 0 2T-1 9L2 31Q3 37 6 41T15 53L389 480Q393 484 393 487T387 490H95Q90 490 89 492T89 499L93 523Q94 528 96 529T102 530H452Q457 530 457 524L452 498Q451 492 449 487T440 476L67 50Q63 45 63 43T68 41H388Q396
41 394 34L390 9Q389 5 388 3T381 0H6V0Z" />
<glyph unicode="{" horiz-adv-x="276" d="M171 -165Q141 -165 120 -158T87 -137T71 -107T69 -69L102 164Q105 188 96 212T66 252T8 268Q5 268 3 270T2 276L5 305Q6 308 6 309T8 310Q66 311 98 343T138 421L171 650Q175 678 190 698T231 730T294 742H319Q323 742
325 740T327 735L323 706Q322 703 321 702T316 701H294Q270 701 255 695T232 677T221 646L189 416Q183 376 166 350T127 309T78 292Q71 291 69 289T73 285Q99 283 118 270T148 231T152 162L120 -70Q116 -98 128 -111T177 -124H197Q201 -124 203 -126T205 -133L202
-158Q201 -162 200 -163T193 -165H171V-165Z" />
<glyph unicode="|" horiz-adv-x="266" d="M61 -165Q56 -165 54 -163T51 -157L191 840Q192 844 193 845T198 847H227Q233 847 234 844T235 835L97 -158Q96 -162 95 -163T89 -165H61Z" />
<glyph unicode="}" horiz-adv-x="276" d="M-36 -165Q-41 -165 -43 -163T-44 -158L-40 -129Q-39 -126 -38 -125T-33 -124H-11Q13 -124 28 -118T52 -99T62 -69L94 161Q100 202 116 228T156 269T204 285Q212 286 214 288T210 292Q185 294 165 307T134 347T130 415L163
647Q167 676 156 688T106 701H86Q82 701 80 703T78 710L81 735Q82 740 83 741T89 742H112Q142 742 162 735T195 714T212 684T213 646L181 413Q178 389 186 365T216 325T274 309Q276 309 278 307T280 301L276 273Q275 269 275 268T273 267Q216 266 184 234T145 156L112
-73Q109 -101 94 -121T52 -153T-12 -165H-36V-165Z" />
<glyph unicode="~" horiz-adv-x="548" d="M496 370Q483 357 455 344T382 331Q352 331 330 338T288 354T249 370T203 377Q165 377 139 364T96 334Q91 332 89 333T86 340L79 362Q78 366 78 368T80 374Q104 391 132 405T200 419Q228 419 250 412T294 396T336 380T384
373Q422 373 444 385T479 412Q485 415 487 414T491 406L499 383Q501 378 496 370V370Z" />
<glyph unicode="&#xa0;" horiz-adv-x="219" />
<glyph unicode="&#xa1;" horiz-adv-x="235" d="M179 451Q178 447 177 446T172 444H116Q112 444 110 446T109 455L118 520Q119 526 120 528T129 530H175Q183 530 186 527T189 517L179 451V451ZM90 -159Q90 -162 89 -163T84 -165H33Q31 -165 29 -163T27 -156L113
368Q114 372 115 373T122 375H139Q145 375 148 373T150 364L90 -159V-159Z" />
<glyph unicode="&#xa2;" horiz-adv-x="558" d="M273 13Q272 5 270 3T259 0H240Q232 0 230 4T228 14L242 117Q242 122 245 124T253 126H279Q285 126 287 123T288 115L273 13V13ZM360 629Q359 622 356 619T345 616H326Q319 616 316 620T314 631L329 733Q330 739
332 740T339 742H366Q371 742 373 739T375 732L360 629V629ZM311 651Q358 651 392 637T452 597T494 538Q497 533 497 531T493 526L461 513Q459 512 457 514T451 521Q429 552 408 571T364 599T314 608Q258 608 215 584T141 518T96 427T80 325Q80 242 123 193T244
144Q296 144 339 169T421 245Q427 251 432 246L457 231Q460 230 461 226T461 219Q440 190 415 168T361 131T302 109T238 101Q173 101 126 128T54 206T28 324Q28 383 46 441T101 547T191 623T311 651V651Z" />
<glyph unicode="&#xa3;" horiz-adv-x="601" d="M-15 0Q-19 0 -22 3T-24 10L-20 41Q-19 45 -18 46T-13 47H21Q61 46 96 88T144 218Q148 243 149 277T151 354Q150 356 150 356T146 357H54Q52 357 50 359T49 365L53 394Q53 397 54 398T57 399H140Q143 399 146 401T149
407L141 479Q135 542 151 592T201 678T278 733T370 752Q413 752 449 738T509 702T540 653Q542 649 541 649T535 646L503 633Q499 632 496 633T492 639Q479 669 451 685T372 702Q329 702 292 686T230 638T198 563Q192 522 195 477T201 404Q205 400 208 400H375Q378
400 380 398T381 393L377 363Q376 360 375 359T371 358H215Q211 358 208 356T204 348Q206 320 205 292T199 230Q191 177 176 141T146 84T122 53Q119 50 118 49T121 48H324Q377 48 415 66T477 127Q480 129 483 129T488 129L516 119Q518 118 521 115T521 108Q490
54 440 27T321 0H-15V0Z" />
<glyph unicode="&#xa4;" horiz-adv-x="518" d="M251 199Q222 199 198 207T156 232Q152 233 149 233T142 228L95 186Q89 182 85 183T76 189L65 203Q61 208 61 212T64 221L112 262Q119 270 116 279Q106 299 101 323T100 376Q105 403 116 428T144 475Q150 481 147
486L111 527Q107 532 107 536T112 546L129 560Q134 565 138 564T145 558L182 516Q184 514 186 514T193 517Q216 531 242 538T295 546Q323 546 347 538T388 513Q393 512 396 513T403 517L456 563Q460 566 463 565T468 561L486 541Q488 537 488 535T486 529L432 481Q426
475 428 469Q439 450 444 425T446 370Q442 344 432 319T403 274Q400 271 398 268T400 261L440 216Q443 212 443 209T441 203L417 183Q414 180 411 181T406 185L368 231Q364 234 361 234T356 230Q331 215 305 207T251 199V199ZM255 248Q291 248 322 266T375 313T400
376Q405 408 393 436T356 481T295 498Q259 498 228 480T176 434T150 370Q146 339 158 311T195 265T255 248V248Z" />
<glyph unicode="&#xa5;" horiz-adv-x="585" d="M625 742Q630 742 633 738T632 729L340 333Q336 329 334 325T331 310L289 13Q288 5 285 3T273 0H244Q237 0 234 4T231 13L272 300Q273 308 273 312T271 321L86 730Q84 736 85 739T95 742H132Q140 742 143 739T148
731L302 382Q307 373 310 373T319 383L576 734Q582 740 584 741T595 742H625V742ZM490 305Q489 300 487 299T478 297L123 296Q118 296 116 298T114 305L117 331Q118 336 119 337T123 338L485 339Q489 339 491 337T493 331L490 305ZM469 163Q468 158 466 157T458
155L103 154Q98 154 95 156T93 164L97 189Q98 194 99 195T102 196L465 197Q468 197 471 195T473 189L469 163Z" />
<glyph unicode="&#xa6;" horiz-adv-x="266" d="M145 442Q141 442 139 444T137 450L191 840Q192 844 193 845T198 847H227Q233 847 234 844T235 835L181 449Q180 445 179 444T174 442H145ZM61 -165Q56 -165 54 -163T51 -157L106 233Q106 237 107 238T112 240H142Q147
240 149 237T151 228L97 -158Q96 -162 95 -163T89 -165H61Z" />
<glyph unicode="&#xa7;" horiz-adv-x="480" d="M328 196Q369 170 391 139T408 64Q402 26 375 -4T304 -51T206 -69Q142 -69 89 -38T16 44Q14 47 14 48T14 52L45 68Q48 70 51 69T55 63Q75 25 115 1T210 -24Q268 -24 309 -1T356 67Q361 96 341 122T258 175L167 212Q107
237 84 273T68 354Q74 401 110 434T196 485Q154 507 134 529T109 575T107 623Q112 660 138 689T207 735T303 752Q364 752 407 724T470 657Q473 656 473 654T470 649L444 634Q439 632 436 633T432 638Q412 668 381 687T307 707Q242 707 203 684T158 621Q155 597
170 573T241 523L325 486Q397 455 424 415T444 324Q437 272 403 243T328 196V196ZM266 226Q295 224 322 236T369 272T392 321Q396 345 392 364T370 401T313 434L254 459Q222 456 193 441T143 402T120 353Q116 323 130 302T201 255L266 226V226Z" />
<glyph unicode="&#xa8;" horiz-adv-x="197" d="M123 653Q122 645 120 643T109 641H76Q69 641 67 644T65 653L76 733Q77 739 79 740T86 742H124Q130 742 132 739T133 730L123 653ZM242 653Q241 645 239 643T228 641H195Q188 641 186 644T184 653L195 733Q196 739
198 740T205 742H243Q249 742 251 739T252 730L242 653Z" />
<glyph unicode="&#xa9;" horiz-adv-x="830" d="M378 -10Q299 -10 234 19T123 101T58 224T49 374Q60 452 99 520T197 641T329 722T481 752Q560 752 625 722T736 640T801 518T811 368Q800 290 761 221T662 100T529 19T378 -10V-10ZM381 38Q448 38 511 61T627 129T715
235T762 374Q773 448 755 509T697 614T601 681T479 705Q411 705 347 681T231 613T144 506T98 368Q87 293 104 232T161 128T258 61T381 38V38ZM461 590Q498 590 525 577T572 543T606 494Q608 491 607 490T606 487L572 472Q570 471 568 473T564 479Q546 513 520 530T463
547Q420 547 385 525T325 464T293 372Q284 295 316 249T410 202Q450 202 485 224T545 282Q547 284 550 283T555 280L576 268Q580 266 580 257Q563 236 543 218T501 187T455 166T404 159Q348 159 308 186T251 262T243 375Q252 438 283 486T360 562T461 590V590Z"
/>
<glyph unicode="&#xaa;" horiz-adv-x="404" d="M256 749Q297 749 324 735T362 695T368 634L345 471Q343 456 343 446T345 417Q347 414 346 413T340 411H312Q308 411 306 413T303 419L302 455Q302 459 300 458T294 452Q264 428 238 417T178 405Q126 405 99 430T78
499Q85 546 128 572T252 606L311 612Q317 613 320 615T325 622L328 640Q332 677 313 695T251 713Q220 713 197 702T150 661Q149 660 147 660T141 662L115 673Q115 674 114 676T114 682Q137 714 173 731T256 749V749ZM121 495Q118 470 136 455T190 440Q213 440 234
448T273 473Q289 484 299 496T311 522L317 570Q318 575 317 577T309 578L262 574Q218 571 188 561T142 535T121 495V495Z" />
<glyph unicode="&#xab;" horiz-adv-x="427" d="M349 81Q351 78 350 78T343 77H327Q324 77 322 79T319 83L208 250Q206 255 205 258T207 265L369 443Q371 446 372 446T376 446H394Q398 446 401 444T401 436L265 262Q263 259 262 256T262 249L349 81ZM179 81Q181
78 180 78T174 77H158Q155 77 152 79T149 83L38 250Q36 255 35 258T37 265L199 443Q202 446 203 446T207 446H225Q228 446 231 444T231 436L96 262Q94 259 93 256T93 249L179 81Z" />
<glyph unicode="&#xac;" horiz-adv-x="545" d="M489 359Q489 354 487 353T479 351L90 350Q85 350 83 352T81 359L86 388Q87 392 88 393T91 394L486 395Q490 395 492 393T494 387L489 359ZM470 217Q469 213 468 211T462 209H434Q429 209 427 211T426 217L447 379Q448
383 449 384T454 386H484Q489 386 491 383T492 374L470 217Z" />
<glyph unicode="&#xad;" horiz-adv-x="381" d="M529 251Q528 246 526 245T518 243L294 242Q289 242 287 244T285 251L290 281Q291 286 292 287T295 288L526 289Q530 289 532 287T534 281L529 251Z" />
<glyph unicode="&#xae;" horiz-adv-x="545" d="M276 275Q209 275 159 307T85 394T69 516Q79 581 118 634T215 720T339 752Q405 752 455 720T530 633T546 510Q537 446 497 392T399 307T276 275V275ZM277 312Q336 312 385 337T467 408T507 516Q516 576 497 620T438
690T339 715Q280 715 231 690T149 618T108 510Q95 420 142 366T277 312V312ZM375 397Q375 395 375 394T372 393H345Q344 393 343 394T342 398L316 504Q315 506 315 506T310 506H256Q254 506 253 505T250 501L235 396Q235 394 235 394T233 393H208Q206 393 205 395T204
398L236 627Q236 629 236 629T237 630H338Q373 630 391 614T406 569Q402 541 385 528T351 509Q350 509 348 508T347 506L375 397V397ZM318 535Q338 535 354 543T373 570Q375 583 367 592T326 601H269Q267 601 266 601T264 596L255 537Q255 536 255 536T257 535H318V535Z"
/>
<glyph unicode="&#xaf;" horiz-adv-x="282" d="M332 688Q331 683 329 682T320 680H78Q73 680 71 683T70 690L73 717Q74 720 75 721T79 723H329Q332 723 334 721T335 715L332 688Z" />
<glyph unicode="&#xb0;" horiz-adv-x="464" d="M446 703Q440 660 416 626T355 573T275 554Q230 554 198 574T152 629T143 709Q149 753 172 786T232 839T313 858Q357 858 389 838T436 784T446 703V703ZM399 708Q406 755 383 785T310 815Q261 815 227 784T186 702Q180
655 203 625T275 594Q324 594 358 625T399 708V708Z" />
<glyph unicode="&#xb1;" horiz-adv-x="545" d="M452 88Q451 83 449 82T441 80L52 79Q47 79 45 81T44 88L47 117Q48 121 49 122T53 123L448 124Q451 124 453 122T456 116L452 88ZM500 430Q499 426 497 424T488 422L100 421Q96 421 94 423T91 431L96 459Q96 464
97 465T102 466L497 467Q500 467 502 465T504 459L500 430ZM258 240Q253 240 251 243T249 253L302 641Q304 646 305 647T310 648H339Q343 648 345 646T347 641L292 246Q291 243 290 242T285 240H258Z" />
<glyph unicode="&#xb2;" horiz-adv-x="452" d="M189 577Q221 606 248 633T291 690T307 749Q307 788 279 807T216 826Q189 826 154 812T92 765Q88 760 85 763L66 779Q63 781 68 788Q100 824 141 840T222 857Q253 857 281 846T326 812T343 751Q343 714 326 682T280
620T211 555L61 423Q57 421 58 419T63 416H296Q302 416 301 410L298 389Q297 387 297 386T293 384H19Q10 384 11 393L12 409Q14 417 16 421T25 431L189 577Z" />
<glyph unicode="&#xb3;" horiz-adv-x="467" d="M94 789Q93 791 93 794T94 799Q130 830 164 843T238 857Q302 857 337 829T372 755Q372 712 345 681T271 633Q268 632 268 631T272 628Q306 620 330 594T354 526Q354 486 332 452T268 398T165 378Q126 378 101 386T58
409T25 441Q23 444 25 446L45 463Q47 465 49 463Q70 434 102 422T170 409Q233 409 276 440T319 524Q319 554 302 574T258 604T199 614H142Q135 614 137 620L140 640Q140 644 145 644H191Q230 644 263 658T316 697T336 752Q336 784 310 805T239 827Q194 827 166
810T114 776Q108 771 104 778L94 789V789Z" />
<glyph unicode="&#xb4;" horiz-adv-x="275" d="M326 711Q327 707 326 704T319 699L81 623Q76 622 73 624T69 630L65 647Q64 656 68 657L311 751Q313 752 316 751T320 746L326 711Z" />
<glyph unicode="&#xb5;" horiz-adv-x="573" d="M215 34Q263 34 313 62T416 137L471 521Q472 527 474 528T481 530H511Q516 530 519 527T521 519L449 9Q448 4 447 2T440 0H411Q407 0 404 3T402 10L411 74Q412 79 411 79T404 73Q361 43 329 25T269 -1T213 -10Q176
-10 148 0T98 34L71 -153Q70 -161 69 -163T58 -165H33Q26 -165 23 -162T21 -153L116 520Q117 526 119 528T126 530H156Q162 530 164 527T166 519L112 138Q109 110 121 87T158 49T215 34V34Z" />
<glyph unicode="&#xb6;" horiz-adv-x="540" d="M467 705Q465 705 463 703T460 698L350 -80Q350 -82 350 -83T346 -85H318Q314 -85 313 -82T312 -78L421 702Q421 704 421 704T417 705H382Q380 705 378 703T375 698L265 -81Q265 -83 264 -84T261 -85H232Q229 -85
227 -83T226 -78L279 302Q279 303 279 303T278 305Q207 305 163 335T100 414T89 517Q97 573 129 624T218 709T352 742H520Q523 742 524 741T525 736L521 708Q520 705 520 705T518 705H467Z" />
<glyph unicode="&#xb7;" horiz-adv-x="179" d="M144 342Q143 335 141 333T130 331H67Q60 331 58 334T56 343L65 408Q66 413 68 414T73 416H146Q150 416 152 414T154 406L144 342Z" />
<glyph unicode="&#xb8;" horiz-adv-x="202" d="M136 -132Q131 -169 100 -187T26 -205Q3 -205 -15 -199T-47 -183Q-50 -183 -51 -181T-53 -176L-39 -155Q-38 -153 -37 -154T-33 -157Q-24 -164 -12 -168T20 -173Q52 -173 69 -162T89 -129Q92 -106 75 -96T19 -84Q15
-84 14 -82T12 -78L61 5H98L66 -56Q65 -57 65 -57T67 -58Q97 -60 112 -71T133 -99T136 -132V-132Z" />
<glyph unicode="&#xb9;" horiz-adv-x="367" d="M211 411Q216 411 216 406L213 384Q212 380 208 380H1Q-4 380 -3 385L0 408Q1 411 4 411H91Q94 411 96 415L150 801Q152 806 146 804L56 770Q50 768 51 775L53 791Q54 795 55 797T59 800L151 844Q157 846 160 846T167
847H187Q193 847 192 840L132 415Q130 411 134 411H211V411Z" />
<glyph unicode="&#xba;" horiz-adv-x="417" d="M274 751Q323 751 355 729T400 668T407 575Q400 526 377 488T318 429T231 407Q180 407 149 429T104 490T98 580Q106 632 129 670T190 729T274 751V751ZM273 713Q219 713 186 676T144 578Q135 516 156 480T231 443Q285
443 318 481T362 583Q370 641 348 677T273 713V713Z" />
<glyph unicode="&#xbb;" horiz-adv-x="426" d="M158 252Q161 255 162 258T162 265L75 439Q74 443 75 444T80 446H97Q101 446 105 441L217 263Q219 259 219 256T216 248L56 80Q55 79 54 78T48 77H33Q28 77 26 78T24 84L158 252V252ZM327 252Q330 255 331 258T331
265L245 439Q244 443 245 444T249 446H267Q270 446 275 441L387 263Q389 259 389 256T386 248L226 80Q224 79 223 78T218 77H202Q198 77 195 78T194 84L327 252V252Z" />
<glyph unicode="&#xbc;" horiz-adv-x="867" d="M260 307Q265 307 265 302L262 280Q261 276 257 276H50Q45 276 46 281L49 304Q50 307 53 307H140Q143 307 145 311L199 697Q201 702 195 700L105 666Q99 664 100 671L102 687Q103 691 104 693T108 696L200 740Q206
742 209 742T216 743H236Q242 743 241 736L181 311Q179 307 183 307H260V307ZM176 3Q172 -1 169 -2T160 -4H141Q134 -4 133 1T136 12L727 746Q730 750 733 750T740 750H763Q767 750 770 748T769 740L176 3ZM700 463Q702 466 704 466T709 467H737Q742 467 742 460L700
167Q700 163 703 163H767Q774 163 774 158L770 138Q770 135 769 134T764 133H700Q695 133 695 128L678 6Q677 2 676 1T670 0H646Q641 0 642 7L658 128Q660 133 654 133H442Q436 133 437 140L440 162Q441 168 442 170T448 178L700 463V463ZM657 163Q661 163 662
168L695 408Q696 411 694 411T687 405L480 171Q473 163 480 163H657Z" />
<glyph unicode="&#xbd;" horiz-adv-x="929" d="M279 307Q284 307 284 302L281 280Q280 276 276 276H69Q64 276 65 281L68 304Q69 307 72 307H159Q162 307 164 311L218 697Q220 702 214 700L124 666Q118 664 119 671L121 687Q122 691 123 693T127 696L219 740Q225
742 228 742T235 743H255Q261 743 260 736L200 311Q198 307 202 307H279V307ZM159 3Q155 -1 152 -2T143 -4H124Q117 -4 116 1T119 12L710 746Q713 750 716 750T723 750H746Q750 750 753 748T752 740L159 3ZM674 193Q706 222 733 249T776 306T792 365Q792 404 764
423T701 442Q674 442 639 428T577 381Q573 376 570 379L551 395Q548 397 553 404Q585 440 626 456T707 473Q738 473 766 462T811 428T828 367Q828 330 811 298T765 236T696 171L546 39Q542 37 543 35T548 32H781Q787 32 786 26L783 5Q782 3 782 2T778 0H504Q495
0 496 9L497 25Q499 33 501 37T510 47L674 193Z" />
<glyph unicode="&#xbe;" horiz-adv-x="893" d="M112 684Q111 686 111 689T112 694Q148 725 182 738T256 752Q320 752 355 724T390 650Q390 607 363 576T289 528Q286 527 286 526T290 523Q324 515 348 489T372 421Q372 381 350 347T286 293T183 273Q144 273 119
281T76 304T43 336Q41 339 43 341L63 358Q65 360 67 358Q88 329 120 317T188 304Q251 304 294 335T337 419Q337 449 320 469T276 499T217 509H160Q153 509 155 515L158 535Q158 539 163 539H209Q248 539 281 553T334 592T354 647Q354 679 328 700T257 722Q212 722
184 705T132 671Q126 666 122 673L112 684V684ZM227 3Q223 -1 220 -2T211 -4H192Q185 -4 184 1T187 12L778 746Q781 750 784 750T791 750H814Q818 750 821 748T820 740L227 3ZM754 463Q756 466 758 466T763 467H791Q796 467 796 460L754 167Q754 163 757 163H821Q828
163 828 158L824 138Q824 135 823 134T818 133H754Q749 133 749 128L732 6Q731 2 730 1T724 0H700Q695 0 696 7L712 128Q714 133 708 133H496Q490 133 491 140L494 162Q495 168 496 170T502 178L754 463V463ZM711 163Q715 163 716 168L749 408Q750 411 748 411T741
405L534 171Q527 163 534 163H711Z" />
<glyph unicode="&#xbf;" horiz-adv-x="508" d="M264 519Q265 526 268 528T278 530H324Q330 530 333 527T335 518L326 452Q325 448 324 446T318 444H262Q258 444 256 446T254 454L264 519ZM423 -40Q426 -41 427 -44T427 -52Q387 -108 322 -141T184 -175Q117 -175
72 -153T7 -89T-6 9Q-1 51 18 80T65 133T122 179T179 227T226 286T253 367Q255 373 261 373H293Q298 373 300 370T302 360Q293 301 267 261T207 191T139 136T80 80T48 5Q40 -56 77 -91T186 -127Q224 -127 263 -114T333 -77T379 -26Q381 -24 382 -24T388 -25L423
-40Z" />
<glyph unicode="&#xc0;" horiz-adv-x="706" d="M22 0Q18 0 16 3T15 12L381 732Q384 738 387 740T398 742H442Q450 742 454 739T458 730L619 10Q620 6 618 3T611 0H576Q564 0 563 10L514 226Q513 232 506 232H191Q183 232 179 224L68 6Q67 2 64 1T56 0H22V0ZM494
280Q504 280 502 292L416 668Q414 678 411 677T402 665L211 293Q207 285 207 283T212 280H494ZM318 959Q319 961 321 961T326 961L542 868Q545 867 546 864T547 857L537 840Q536 835 534 835T526 836L309 909Q303 911 301 915T302 923L318 959V959Z" />
<glyph unicode="&#xc1;" horiz-adv-x="706" d="M22 0Q18 0 16 3T15 12L381 732Q384 738 387 740T398 742H442Q450 742 454 739T458 730L619 10Q620 6 618 3T611 0H576Q564 0 563 10L514 226Q513 232 506 232H191Q183 232 179 224L68 6Q67 2 64 1T56 0H22V0ZM494
280Q504 280 502 292L416 668Q414 678 411 677T402 665L211 293Q207 285 207 283T212 280H494ZM571 923Q572 919 571 916T564 911L326 835Q321 834 318 836T314 842L310 859Q309 868 313 869L556 963Q558 964 561 963T565 958L571 923Z" />
<glyph unicode="&#xc2;" horiz-adv-x="706" d="M22 0Q18 0 16 3T15 12L381 732Q384 738 387 740T398 742H442Q450 742 454 739T458 730L619 10Q620 6 618 3T611 0H576Q564 0 563 10L514 226Q513 232 506 232H191Q183 232 179 224L68 6Q67 2 64 1T56 0H22V0ZM494
280Q504 280 502 292L416 668Q414 678 411 677T402 665L211 293Q207 285 207 283T212 280H494ZM450 909Q443 915 442 914T431 907L362 858Q356 854 354 854T346 853H305Q299 853 298 856T302 864L414 946Q419 951 423 953T436 955H459Q465 955 468 951T474 945L562
862Q567 858 567 856T560 853H516Q511 853 508 855T501 860L450 909Z" />
<glyph unicode="&#xc3;" horiz-adv-x="706" d="M22 0Q18 0 16 3T15 12L381 732Q384 738 387 740T398 742H442Q450 742 454 739T458 730L619 10Q620 6 618 3T611 0H576Q564 0 563 10L514 226Q513 232 506 232H191Q183 232 179 224L68 6Q67 2 64 1T56 0H22V0ZM494
280Q504 280 502 292L416 668Q414 678 411 677T402 665L211 293Q207 285 207 283T212 280H494ZM573 899Q561 892 544 887T501 881Q475 881 457 887T424 899T388 905Q365 905 353 896T328 884Q321 882 320 883T316 890L310 909Q309 913 309 915T311 919Q328 931
344 937T384 944Q407 944 426 938T463 925T503 918Q515 918 523 921T539 928T557 937Q564 939 567 938T571 930L577 910Q578 906 578 904T573 899V899Z" />
<glyph unicode="&#xc4;" horiz-adv-x="706" d="M22 0Q18 0 16 3T15 12L381 732Q384 738 387 740T398 742H442Q450 742 454 739T458 730L619 10Q620 6 618 3T611 0H576Q564 0 563 10L514 226Q513 232 506 232H191Q183 232 179 224L68 6Q67 2 64 1T56 0H22V0ZM494
280Q504 280 502 292L416 668Q414 678 411 677T402 665L211 293Q207 285 207 283T212 280H494ZM407 865Q406 857 404 855T393 853H360Q353 853 351 856T349 865L360 945Q361 951 363 952T370 954H408Q414 954 416 951T417 942L407 865ZM526 865Q525 857 523 855T512
853H479Q472 853 470 856T468 865L479 945Q480 951 482 952T489 954H527Q533 954 535 951T536 942L526 865Z" />
<glyph unicode="&#xc5;" horiz-adv-x="706" d="M22 0Q18 0 16 3T15 12L381 732Q384 738 387 740T398 742H442Q450 742 454 739T458 730L619 10Q620 6 618 3T611 0H576Q564 0 563 10L514 226Q513 232 506 232H191Q183 232 179 224L68 6Q67 2 64 1T56 0H22V0ZM494
280Q504 280 502 292L416 668Q414 678 411 677T402 665L211 293Q207 285 207 283T212 280H494ZM531 862Q525 820 492 792T418 764Q390 764 368 777T336 815T330 869Q335 909 368 936T442 964Q471 964 492 950T524 914T531 862V862ZM486 866Q490 892 477 907T439
922Q415 922 395 905T370 861Q367 839 382 822T418 805Q444 805 463 823T486 866V866Z" />
<glyph unicode="&#xc6;" horiz-adv-x="974" d="M882 48Q888 48 890 46T891 39L887 7Q886 2 885 1T879 0H471Q465 0 463 3T461 12L492 228Q492 230 491 231T487 232H237Q233 232 230 230T223 224L68 6Q63 0 55 0H22Q17 0 15 3T16 12L527 732Q532 738 535 740T546
742H967Q971 742 973 740T974 733L970 701Q969 697 968 696T960 694H625Q619 694 617 692T613 683L573 405Q572 401 574 400T581 399H844Q849 399 851 397T852 390L847 357Q847 353 846 352T840 351H577Q572 351 569 349T564 340L525 56Q524 50 525 49T531 48H882V48ZM489
280Q494 280 497 283T500 291L553 670Q554 681 550 680T538 667L264 288Q260 283 260 282T264 280H489V280Z" />
<glyph unicode="&#xc7;" horiz-adv-x="698" d="M444 752Q508 752 560 724T643 650T674 551Q674 543 666 543L624 540Q617 540 616 551Q609 619 562 661T440 703Q375 703 326 678T241 608T184 509T152 393T142 275Q142 160 193 100T349 40Q427 40 484 77T580 193Q583
198 591 195L627 182Q634 180 630 172Q615 140 593 112T544 62T485 24T418 -1T345 -10Q261 -10 202 24T113 122T83 279Q83 343 96 410T136 539T205 648T306 724T444 752V752ZM402 -132Q397 -169 366 -187T292 -205Q269 -205 251 -199T219 -183Q216 -183 215 -181T213
-176L227 -155Q228 -153 229 -154T233 -157Q242 -164 254 -168T286 -173Q318 -173 335 -162T355 -129Q358 -106 341 -96T285 -84Q281 -84 280 -82T278 -78L327 5H364L332 -56Q331 -57 331 -57T333 -58Q363 -60 378 -71T399 -99T402 -132V-132Z" />
<glyph unicode="&#xc8;" horiz-adv-x="616" d="M176 733Q177 739 178 740T186 742H611Q618 742 616 733L612 703Q611 699 609 697T601 694H237Q232 694 230 693T226 686L187 405Q186 402 187 401T193 399H479Q483 399 484 397T485 390L480 358Q479 351 470 351H188Q179
351 178 341L139 56Q138 48 145 48H524Q530 48 532 46T533 39L529 7Q528 2 527 1T521 0H84Q73 0 74 12L176 733V733ZM310 959Q311 961 313 961T318 961L534 868Q537 867 538 864T539 857L529 840Q528 835 526 835T518 836L301 909Q295 911 293 915T294 923L310
959V959Z" />
<glyph unicode="&#xc9;" horiz-adv-x="616" d="M176 733Q177 739 178 740T186 742H611Q618 742 616 733L612 703Q611 699 609 697T601 694H237Q232 694 230 693T226 686L187 405Q186 402 187 401T193 399H479Q483 399 484 397T485 390L480 358Q479 351 470 351H188Q179
351 178 341L139 56Q138 48 145 48H524Q530 48 532 46T533 39L529 7Q528 2 527 1T521 0H84Q73 0 74 12L176 733V733ZM563 923Q564 919 563 916T556 911L318 835Q313 834 310 836T306 842L302 859Q301 868 305 869L548 963Q550 964 553 963T557 958L563 923Z" />
<glyph unicode="&#xca;" horiz-adv-x="616" d="M176 733Q177 739 178 740T186 742H611Q618 742 616 733L612 703Q611 699 609 697T601 694H237Q232 694 230 693T226 686L187 405Q186 402 187 401T193 399H479Q483 399 484 397T485 390L480 358Q479 351 470 351H188Q179
351 178 341L139 56Q138 48 145 48H524Q530 48 532 46T533 39L529 7Q528 2 527 1T521 0H84Q73 0 74 12L176 733V733ZM442 909Q435 915 434 914T423 907L354 858Q348 854 346 854T338 853H297Q291 853 290 856T294 864L406 946Q411 951 415 953T428 955H451Q457
955 460 951T466 945L554 862Q559 858 559 856T552 853H508Q503 853 500 855T493 860L442 909Z" />
<glyph unicode="&#xcb;" horiz-adv-x="616" d="M176 733Q177 739 178 740T186 742H611Q618 742 616 733L612 703Q611 699 609 697T601 694H237Q232 694 230 693T226 686L187 405Q186 402 187 401T193 399H479Q483 399 484 397T485 390L480 358Q479 351 470 351H188Q179
351 178 341L139 56Q138 48 145 48H524Q530 48 532 46T533 39L529 7Q528 2 527 1T521 0H84Q73 0 74 12L176 733V733ZM398 865Q397 857 395 855T384 853H351Q344 853 342 856T340 865L351 945Q352 951 354 952T361 954H399Q405 954 407 951T408 942L398 865ZM517
865Q516 857 514 855T503 853H470Q463 853 461 856T459 865L470 945Q471 951 473 952T480 954H518Q524 954 526 951T527 942L517 865Z" />
<glyph unicode="&#xcc;" horiz-adv-x="278" d="M224 742Q235 742 232 730L132 12Q131 4 129 2T118 0H86Q78 0 76 3T74 12L176 733Q177 739 178 740T186 742H224ZM107 959Q108 961 110 961T115 961L331 868Q334 867 335 864T336 857L326 840Q325 835 323 835T315
836L98 909Q92 911 90 915T91 923L107 959V959Z" />
<glyph unicode="&#xcd;" horiz-adv-x="278" d="M224 742Q235 742 232 730L132 12Q131 4 129 2T118 0H86Q78 0 76 3T74 12L176 733Q177 739 178 740T186 742H224ZM360 923Q361 919 360 916T353 911L115 835Q110 834 107 836T103 842L99 859Q98 868 102 869L345
963Q347 964 350 963T354 958L360 923Z" />
<glyph unicode="&#xce;" horiz-adv-x="278" d="M224 742Q235 742 232 730L132 12Q131 4 129 2T118 0H86Q78 0 76 3T74 12L176 733Q177 739 178 740T186 742H224ZM239 909Q232 915 231 914T220 907L151 858Q145 854 143 854T135 853H94Q88 853 87 856T91 864L203
946Q208 951 212 953T225 955H248Q254 955 257 951T263 945L351 862Q356 858 356 856T349 853H305Q300 853 297 855T290 860L239 909Z" />
<glyph unicode="&#xcf;" horiz-adv-x="278" d="M224 742Q235 742 232 730L132 12Q131 4 129 2T118 0H86Q78 0 76 3T74 12L176 733Q177 739 178 740T186 742H224ZM195 865Q194 857 192 855T181 853H148Q141 853 139 856T137 865L148 945Q149 951 151 952T158 954H196Q202
954 204 951T205 942L195 865ZM314 865Q313 857 311 855T300 853H267Q260 853 258 856T256 865L267 945Q268 951 270 952T277 954H315Q321 954 323 951T324 942L314 865Z" />
<glyph unicode="&#xd0;" horiz-adv-x="672" d="M341 360Q340 353 337 351T326 349H38Q31 349 29 352T28 362L32 389Q33 394 34 395T39 397H337Q341 397 343 395T345 387L341 360ZM49 0Q44 0 41 3T39 13L140 734Q141 739 144 740T152 742H274Q394 742 470 711T582
619T619 463Q619 314 570 211T421 54T167 0H49V0ZM167 47Q308 47 394 94T519 235T559 464Q559 551 527 601T430 672T264 694H201Q191 694 190 682L104 61Q103 53 105 50T114 47H167Z" />
<glyph unicode="&#xd1;" horiz-adv-x="755" d="M702 742Q711 742 710 731L609 9Q608 0 600 0H577Q571 0 567 1T559 8L226 623Q222 631 218 630T213 620L127 9Q126 4 124 2T116 0H84Q78 0 76 3T74 12L176 733Q177 739 178 740T186 742H213Q219 742 222 740T228
733L557 122Q562 114 567 115T573 126L659 734Q660 739 661 740T667 742H702ZM614 899Q602 892 585 887T542 881Q516 881 498 887T465 899T429 905Q406 905 394 896T369 884Q362 882 361 883T357 890L351 909Q350 913 350 915T352 919Q369 931 385 937T425 944Q448
944 467 938T504 925T544 918Q556 918 564 921T580 928T598 937Q605 939 608 938T612 930L618 910Q619 906 619 904T614 899V899Z" />
<glyph unicode="&#xd2;" horiz-adv-x="759" d="M343 -10Q260 -10 202 22T114 119T83 275Q83 298 84 321T90 370Q108 494 156 579T278 708T446 752Q528 752 586 719T674 621T705 461Q705 439 704 416T698 366Q681 244 633 160T512 33T343 -10V-10ZM347 39Q469 39
542 121T640 371Q644 399 645 423T647 470Q647 588 596 645T445 703Q325 703 249 620T149 366Q145 341 144 317T142 272Q142 155 194 97T347 39V39ZM345 959Q346 961 348 961T353 961L569 868Q572 867 573 864T574 857L564 840Q563 835 561 835T553 836L336 909Q330
911 328 915T329 923L345 959V959Z" />
<glyph unicode="&#xd3;" horiz-adv-x="759" d="M343 -10Q260 -10 202 22T114 119T83 275Q83 298 84 321T90 370Q108 494 156 579T278 708T446 752Q528 752 586 719T674 621T705 461Q705 439 704 416T698 366Q681 244 633 160T512 33T343 -10V-10ZM347 39Q469 39
542 121T640 371Q644 399 645 423T647 470Q647 588 596 645T445 703Q325 703 249 620T149 366Q145 341 144 317T142 272Q142 155 194 97T347 39V39ZM598 923Q599 919 598 916T591 911L353 835Q348 834 345 836T341 842L337 859Q336 868 340 869L583 963Q585 964
588 963T592 958L598 923Z" />
<glyph unicode="&#xd4;" horiz-adv-x="759" d="M343 -10Q260 -10 202 22T114 119T83 275Q83 298 84 321T90 370Q108 494 156 579T278 708T446 752Q528 752 586 719T674 621T705 461Q705 439 704 416T698 366Q681 244 633 160T512 33T343 -10V-10ZM347 39Q469 39
542 121T640 371Q644 399 645 423T647 470Q647 588 596 645T445 703Q325 703 249 620T149 366Q145 341 144 317T142 272Q142 155 194 97T347 39V39ZM477 909Q470 915 469 914T458 907L389 858Q383 854 381 854T373 853H332Q326 853 325 856T329 864L441 946Q446
951 450 953T463 955H486Q492 955 495 951T501 945L589 862Q594 858 594 856T587 853H543Q538 853 535 855T528 860L477 909Z" />
<glyph unicode="&#xd5;" horiz-adv-x="759" d="M343 -10Q260 -10 202 22T114 119T83 275Q83 298 84 321T90 370Q108 494 156 579T278 708T446 752Q528 752 586 719T674 621T705 461Q705 439 704 416T698 366Q681 244 633 160T512 33T343 -10V-10ZM347 39Q469 39
542 121T640 371Q644 399 645 423T647 470Q647 588 596 645T445 703Q325 703 249 620T149 366Q145 341 144 317T142 272Q142 155 194 97T347 39V39ZM600 899Q588 892 571 887T528 881Q502 881 484 887T451 899T415 905Q392 905 380 896T355 884Q348 882 347 883T343
890L337 909Q336 913 336 915T338 919Q355 931 371 937T411 944Q434 944 453 938T490 925T530 918Q542 918 550 921T566 928T584 937Q591 939 594 938T598 930L604 910Q605 906 605 904T600 899V899Z" />
<glyph unicode="&#xd6;" horiz-adv-x="759" d="M343 -10Q260 -10 202 22T114 119T83 275Q83 298 84 321T90 370Q108 494 156 579T278 708T446 752Q528 752 586 719T674 621T705 461Q705 439 704 416T698 366Q681 244 633 160T512 33T343 -10V-10ZM347 39Q469 39
542 121T640 371Q644 399 645 423T647 470Q647 588 596 645T445 703Q325 703 249 620T149 366Q145 341 144 317T142 272Q142 155 194 97T347 39V39ZM434 865Q433 857 431 855T420 853H387Q380 853 378 856T376 865L387 945Q388 951 390 952T397 954H435Q441 954
443 951T444 942L434 865ZM553 865Q552 857 550 855T539 853H506Q499 853 497 856T495 865L506 945Q507 951 509 952T516 954H554Q560 954 562 951T563 942L553 865Z" />
<glyph unicode="&#xd7;" horiz-adv-x="522" d="M421 184Q416 180 413 181T406 187L110 530Q108 534 107 536T110 543L133 563Q136 565 138 565T142 561L442 214Q444 212 445 209T443 204L421 184ZM66 204Q63 207 63 210T67 219L458 563Q462 566 465 565T470 560L488
540Q490 538 491 536T490 531L93 182Q90 180 88 181T83 184L66 204Z" />
<glyph unicode="&#xd8;" horiz-adv-x="713" d="M753 723Q755 721 756 718T754 711L654 614Q675 568 680 506T675 366Q658 244 610 160T489 33T320 -10Q250 -10 198 13T114 81L30 -4Q24 -10 20 -9T10 -3L-7 14Q-11 20 -12 23T-10 31L88 126Q68 172 62 233T67 370Q85
494 133 579T255 708T423 752Q492 752 544 728T628 659L716 747Q719 751 722 751T730 747L753 723V723ZM128 366Q120 306 122 257T135 170L589 621Q565 662 523 682T421 702Q300 702 227 619T128 366V366ZM613 371Q622 433 621 482T607 570L154 121Q179 80 222
60T324 40Q445 40 517 121T613 371V371Z" />
<glyph unicode="&#xd9;" horiz-adv-x="704" d="M599 233Q588 150 553 96T458 16T315 -10Q202 -10 148 38T93 186Q93 201 94 217T98 251L166 732Q167 738 169 740T175 742H213Q219 742 221 739T222 730L152 229Q151 217 150 207T149 185Q149 111 192 75T320 39Q388
39 436 60T512 125T550 234L620 733Q621 739 622 740T629 742H661Q666 742 667 739T669 731L599 233V233ZM322 959Q323 961 325 961T330 961L546 868Q549 867 550 864T551 857L541 840Q540 835 538 835T530 836L313 909Q307 911 305 915T306 923L322 959V959Z"
/>
<glyph unicode="&#xda;" horiz-adv-x="704" d="M599 233Q588 150 553 96T458 16T315 -10Q202 -10 148 38T93 186Q93 201 94 217T98 251L166 732Q167 738 169 740T175 742H213Q219 742 221 739T222 730L152 229Q151 217 150 207T149 185Q149 111 192 75T320 39Q388
39 436 60T512 125T550 234L620 733Q621 739 622 740T629 742H661Q666 742 667 739T669 731L599 233V233ZM575 923Q576 919 575 916T568 911L330 835Q325 834 322 836T318 842L314 859Q313 868 317 869L560 963Q562 964 565 963T569 958L575 923Z" />
<glyph unicode="&#xdb;" horiz-adv-x="704" d="M599 233Q588 150 553 96T458 16T315 -10Q202 -10 148 38T93 186Q93 201 94 217T98 251L166 732Q167 738 169 740T175 742H213Q219 742 221 739T222 730L152 229Q151 217 150 207T149 185Q149 111 192 75T320 39Q388
39 436 60T512 125T550 234L620 733Q621 739 622 740T629 742H661Q666 742 667 739T669 731L599 233V233ZM454 909Q447 915 446 914T435 907L366 858Q360 854 358 854T350 853H309Q303 853 302 856T306 864L418 946Q423 951 427 953T440 955H463Q469 955 472 951T478
945L566 862Q571 858 571 856T564 853H520Q515 853 512 855T505 860L454 909Z" />
<glyph unicode="&#xdc;" horiz-adv-x="704" d="M599 233Q588 150 553 96T458 16T315 -10Q202 -10 148 38T93 186Q93 201 94 217T98 251L166 732Q167 738 169 740T175 742H213Q219 742 221 739T222 730L152 229Q151 217 150 207T149 185Q149 111 192 75T320 39Q388
39 436 60T512 125T550 234L620 733Q621 739 622 740T629 742H661Q666 742 667 739T669 731L599 233V233ZM410 865Q409 857 407 855T396 853H363Q356 853 354 856T352 865L363 945Q364 951 366 952T373 954H411Q417 954 419 951T420 942L410 865ZM529 865Q528 857
526 855T515 853H482Q475 853 473 856T471 865L482 945Q483 951 485 952T492 954H530Q536 954 538 951T539 942L529 865Z" />
<glyph unicode="&#xdd;" horiz-adv-x="647" d="M660 742Q665 742 666 738T664 729L368 326Q365 321 364 317T361 303L319 13Q318 5 315 3T302 0H271Q264 0 263 3T262 13L302 296Q304 304 304 308T300 317L115 730Q112 736 113 739T122 742H157Q165 742 168 739T173
731L328 382Q337 362 351 382L605 734Q609 739 612 740T623 742H660V742ZM538 923Q539 919 538 916T531 911L293 835Q288 834 285 836T281 842L277 859Q276 868 280 869L523 963Q525 964 528 963T532 958L538 923Z" />
<glyph unicode="&#xde;" horiz-adv-x="677" d="M634 386Q624 312 584 267T483 201T346 180H165Q160 180 158 177T154 169L132 9Q131 4 129 2T122 0H83Q79 0 76 3T74 10L176 733Q177 739 178 740T186 742H224Q229 742 231 739T232 730L213 585Q212 583 213 582T217
581H392Q471 581 529 561T615 497T634 386V386ZM576 392Q587 471 536 502T387 533H217Q212 533 209 531T204 523L163 236Q162 231 163 229T169 227H348Q440 227 502 265T576 392V392Z" />
<glyph unicode="&#xdf;" horiz-adv-x="588" d="M377 742Q438 742 470 721T512 669T517 605Q512 565 493 542T445 503T386 473Q339 449 319 436T296 397Q293 373 307 364T360 340Q384 333 414 322T470 290T511 238T519 157Q511 102 480 65T404 9T308 -10Q273 -10
237 -2T179 23Q174 25 172 27T172 34L194 62Q197 64 199 63T203 59Q225 47 247 40T302 33Q371 33 415 66T469 158Q476 202 458 226T409 266T344 294Q321 301 297 311T258 341T248 398Q253 435 279 459T361 510Q384 521 407 533T447 563T468 612Q473 652 447 675T368
699Q301 699 252 658T191 534L117 10Q117 4 116 2T109 0H76Q72 0 70 3T68 10L133 478Q134 483 133 485T127 487H68Q64 487 63 489T61 495L65 522Q65 525 66 526T71 528H132Q137 528 138 531T141 539Q147 587 167 624T218 688T290 728T377 742V742Z" />
<glyph unicode="&#xe0;" horiz-adv-x="540" d="M377 68Q331 29 282 10T179 -10Q107 -10 67 23T26 114Q26 165 50 201T114 259T203 294T302 310L402 318Q421 320 423 334L427 364Q428 370 428 376T429 388Q429 439 396 468T304 497Q254 497 211 474T128 406Q125
403 123 403T117 404L88 420Q86 422 85 425T88 433Q125 480 181 510T308 540Q362 540 400 523T458 473T478 396Q478 389 478 382T476 366L426 10Q425 3 423 2T415 0H390Q385 0 382 3T380 11L387 69Q387 80 377 68V68ZM412 265Q413 273 411 276T401 278L316 271Q282
268 241 261T163 238T103 194T79 120Q79 79 109 57T192 34Q229 34 265 47T330 82Q361 104 379 127T400 172L412 265ZM204 747Q205 749 207 749T212 749L428 656Q431 655 432 652T433 645L423 628Q422 623 420 623T412 624L195 697Q189 699 187 703T188 711L204
747V747Z" />
<glyph unicode="&#xe1;" horiz-adv-x="540" d="M377 68Q331 29 282 10T179 -10Q107 -10 67 23T26 114Q26 165 50 201T114 259T203 294T302 310L402 318Q421 320 423 334L427 364Q428 370 428 376T429 388Q429 439 396 468T304 497Q254 497 211 474T128 406Q125
403 123 403T117 404L88 420Q86 422 85 425T88 433Q125 480 181 510T308 540Q362 540 400 523T458 473T478 396Q478 389 478 382T476 366L426 10Q425 3 423 2T415 0H390Q385 0 382 3T380 11L387 69Q387 80 377 68V68ZM412 265Q413 273 411 276T401 278L316 271Q282
268 241 261T163 238T103 194T79 120Q79 79 109 57T192 34Q229 34 265 47T330 82Q361 104 379 127T400 172L412 265ZM456 711Q457 707 456 704T449 699L211 623Q206 622 203 624T199 630L195 647Q194 656 198 657L441 751Q443 752 446 751T450 746L456 711Z" />
<glyph unicode="&#xe2;" horiz-adv-x="540" d="M377 68Q331 29 282 10T179 -10Q107 -10 67 23T26 114Q26 165 50 201T114 259T203 294T302 310L402 318Q421 320 423 334L427 364Q428 370 428 376T429 388Q429 439 396 468T304 497Q254 497 211 474T128 406Q125
403 123 403T117 404L88 420Q86 422 85 425T88 433Q125 480 181 510T308 540Q362 540 400 523T458 473T478 396Q478 389 478 382T476 366L426 10Q425 3 423 2T415 0H390Q385 0 382 3T380 11L387 69Q387 80 377 68V68ZM412 265Q413 273 411 276T401 278L316 271Q282
268 241 261T163 238T103 194T79 120Q79 79 109 57T192 34Q229 34 265 47T330 82Q361 104 379 127T400 172L412 265ZM335 697Q328 703 327 702T316 695L247 646Q241 642 239 642T231 641H190Q184 641 183 644T187 652L299 734Q304 739 308 741T321 743H344Q350
743 353 739T359 733L447 650Q452 646 452 644T445 641H401Q396 641 393 643T386 648L335 697Z" />
<glyph unicode="&#xe3;" horiz-adv-x="540" d="M377 68Q331 29 282 10T179 -10Q107 -10 67 23T26 114Q26 165 50 201T114 259T203 294T302 310L402 318Q421 320 423 334L427 364Q428 370 428 376T429 388Q429 439 396 468T304 497Q254 497 211 474T128 406Q125
403 123 403T117 404L88 420Q86 422 85 425T88 433Q125 480 181 510T308 540Q362 540 400 523T458 473T478 396Q478 389 478 382T476 366L426 10Q425 3 423 2T415 0H390Q385 0 382 3T380 11L387 69Q387 80 377 68V68ZM412 265Q413 273 411 276T401 278L316 271Q282
268 241 261T163 238T103 194T79 120Q79 79 109 57T192 34Q229 34 265 47T330 82Q361 104 379 127T400 172L412 265ZM459 687Q447 680 430 675T387 669Q361 669 343 675T310 687T274 693Q251 693 239 684T214 672Q207 670 206 671T202 678L196 697Q195 701 195
703T197 707Q214 719 230 725T270 732Q293 732 312 726T349 713T389 706Q401 706 409 709T425 716T443 725Q450 727 453 726T457 718L463 698Q464 694 464 692T459 687V687Z" />
<glyph unicode="&#xe4;" horiz-adv-x="540" d="M377 68Q331 29 282 10T179 -10Q107 -10 67 23T26 114Q26 165 50 201T114 259T203 294T302 310L402 318Q421 320 423 334L427 364Q428 370 428 376T429 388Q429 439 396 468T304 497Q254 497 211 474T128 406Q125
403 123 403T117 404L88 420Q86 422 85 425T88 433Q125 480 181 510T308 540Q362 540 400 523T458 473T478 396Q478 389 478 382T476 366L426 10Q425 3 423 2T415 0H390Q385 0 382 3T380 11L387 69Q387 80 377 68V68ZM412 265Q413 273 411 276T401 278L316 271Q282
268 241 261T163 238T103 194T79 120Q79 79 109 57T192 34Q229 34 265 47T330 82Q361 104 379 127T400 172L412 265ZM292 653Q291 645 289 643T278 641H245Q238 641 236 644T234 653L245 733Q246 739 248 740T255 742H293Q299 742 301 739T302 730L292 653ZM411
653Q410 645 408 643T397 641H364Q357 641 355 644T353 653L364 733Q365 739 367 740T374 742H412Q418 742 420 739T421 730L411 653Z" />
<glyph unicode="&#xe5;" horiz-adv-x="540" d="M377 68Q331 29 282 10T179 -10Q107 -10 67 23T26 114Q26 165 50 201T114 259T203 294T302 310L402 318Q421 320 423 334L427 364Q428 370 428 376T429 388Q429 439 396 468T304 497Q254 497 211 474T128 406Q125
403 123 403T117 404L88 420Q86 422 85 425T88 433Q125 480 181 510T308 540Q362 540 400 523T458 473T478 396Q478 389 478 382T476 366L426 10Q425 3 423 2T415 0H390Q385 0 382 3T380 11L387 69Q387 80 377 68V68ZM412 265Q413 273 411 276T401 278L316 271Q282
268 241 261T163 238T103 194T79 120Q79 79 109 57T192 34Q229 34 265 47T330 82Q361 104 379 127T400 172L412 265ZM430 698Q424 656 391 628T317 600Q289 600 267 613T235 651T229 705Q234 745 267 772T341 800Q370 800 391 786T423 750T430 698V698ZM385 702Q389
728 376 743T338 758Q314 758 294 741T269 697Q266 675 281 658T317 641Q343 641 362 659T385 702V702Z" />
<glyph unicode="&#xe6;" horiz-adv-x="928" d="M475 252Q462 252 458 247T451 224Q444 180 463 136T522 63T616 34Q667 34 701 48T759 85T801 127Q806 131 808 130T813 127L837 111Q839 110 840 107T839 99Q817 67 782 42T702 4T610 -10Q550 -10 513 10T454 58T421
108Q419 110 418 108T415 103Q393 81 362 54T285 9T175 -10Q95 -10 56 30T27 139Q38 212 102 256T292 309L400 318Q408 319 414 323T422 334L426 364Q434 426 402 461T298 497Q251 497 208 474T126 405Q122 401 120 401T114 404L87 420Q85 422 85 425T87 433Q113
467 147 491T223 527T308 540Q383 540 422 511T468 426Q506 484 562 512T686 540Q756 540 804 509T873 417T882 270Q881 261 877 257T862 252H475V252ZM682 497Q629 497 582 472T503 400T463 292L815 293Q827 293 830 297T835 311Q843 362 826 404T772 472T682
497V497ZM411 263Q413 271 411 274T399 276L308 270Q236 264 187 247T112 203T80 137Q73 90 102 61T191 34Q244 37 289 56T365 108T400 177L411 263V263Z" />
<glyph unicode="&#xe7;" horiz-adv-x="538" d="M333 540Q380 540 414 526T474 486T516 427Q519 422 519 420T515 415L483 402Q481 401 479 403T473 410Q451 441 430 460T386 488T336 497Q280 497 237 473T163 407T118 316T102 214Q102 131 145 82T266 33Q318 33
361 58T443 134Q449 140 454 135L479 120Q482 119 483 115T483 108Q462 79 437 57T383 20T324 -2T260 -10Q195 -10 148 17T76 95T50 213Q50 272 68 330T123 436T213 512T333 540V540ZM318 -132Q313 -169 282 -187T208 -205Q185 -205 167 -199T135 -183Q132 -183
131 -181T129 -176L143 -155Q144 -153 145 -154T149 -157Q158 -164 170 -168T202 -173Q234 -173 251 -162T271 -129Q274 -106 257 -96T201 -84Q197 -84 196 -82T194 -78L243 5H280L248 -56Q247 -57 247 -57T249 -58Q279 -60 294 -71T315 -99T318 -132V-132Z" />
<glyph unicode="&#xe8;" horiz-adv-x="578" d="M263 -10Q198 -10 150 17T76 95T50 212Q50 274 69 332T124 437T214 512T336 540Q398 540 443 515T511 444T535 329Q535 315 534 301T531 270Q530 263 525 258T512 252H112Q106 252 103 245T100 207Q100 128 146 81T266
34Q325 34 371 57T451 126Q455 130 457 130T463 127L488 111Q494 107 490 99Q461 62 426 38T351 2T263 -10V-10ZM465 292Q476 292 482 300T488 340Q488 411 446 454T333 497Q270 497 223 467T146 389T111 292H465ZM233 747Q234 749 236 749T241 749L457 656Q460
655 461 652T462 645L452 628Q451 623 449 623T441 624L224 697Q218 699 216 703T217 711L233 747V747Z" />
<glyph unicode="&#xe9;" horiz-adv-x="578" d="M263 -10Q198 -10 150 17T76 95T50 212Q50 274 69 332T124 437T214 512T336 540Q398 540 443 515T511 444T535 329Q535 315 534 301T531 270Q530 263 525 258T512 252H112Q106 252 103 245T100 207Q100 128 146 81T266
34Q325 34 371 57T451 126Q455 130 457 130T463 127L488 111Q494 107 490 99Q461 62 426 38T351 2T263 -10V-10ZM465 292Q476 292 482 300T488 340Q488 411 446 454T333 497Q270 497 223 467T146 389T111 292H465ZM486 711Q487 707 486 704T479 699L241 623Q236
622 233 624T229 630L225 647Q224 656 228 657L471 751Q473 752 476 751T480 746L486 711Z" />
<glyph unicode="&#xea;" horiz-adv-x="578" d="M263 -10Q198 -10 150 17T76 95T50 212Q50 274 69 332T124 437T214 512T336 540Q398 540 443 515T511 444T535 329Q535 315 534 301T531 270Q530 263 525 258T512 252H112Q106 252 103 245T100 207Q100 128 146 81T266
34Q325 34 371 57T451 126Q455 130 457 130T463 127L488 111Q494 107 490 99Q461 62 426 38T351 2T263 -10V-10ZM465 292Q476 292 482 300T488 340Q488 411 446 454T333 497Q270 497 223 467T146 389T111 292H465ZM364 697Q357 703 356 702T345 695L276 646Q270
642 268 642T260 641H219Q213 641 212 644T216 652L328 734Q333 739 337 741T350 743H373Q379 743 382 739T388 733L476 650Q481 646 481 644T474 641H430Q425 641 422 643T415 648L364 697Z" />
<glyph unicode="&#xeb;" horiz-adv-x="578" d="M263 -10Q198 -10 150 17T76 95T50 212Q50 274 69 332T124 437T214 512T336 540Q398 540 443 515T511 444T535 329Q535 315 534 301T531 270Q530 263 525 258T512 252H112Q106 252 103 245T100 207Q100 128 146 81T266
34Q325 34 371 57T451 126Q455 130 457 130T463 127L488 111Q494 107 490 99Q461 62 426 38T351 2T263 -10V-10ZM465 292Q476 292 482 300T488 340Q488 411 446 454T333 497Q270 497 223 467T146 389T111 292H465ZM321 653Q320 645 318 643T307 641H274Q267 641
265 644T263 653L274 733Q275 739 277 740T284 742H322Q328 742 330 739T331 730L321 653ZM440 653Q439 645 437 643T426 641H393Q386 641 384 644T382 653L393 733Q394 739 396 740T403 742H441Q447 742 449 739T450 730L440 653Z" />
<glyph unicode="&#xec;" horiz-adv-x="226" d="M102 12Q101 4 99 2T89 0H64Q57 0 54 3T52 12L124 521Q125 527 126 528T133 530H164Q169 530 172 527T174 518L102 12ZM49 747Q50 749 52 749T57 749L273 656Q276 655 277 652T278 645L268 628Q267 623 265 623T257
624L40 697Q34 699 32 703T33 711L49 747V747Z" />
<glyph unicode="&#xed;" horiz-adv-x="226" d="M102 12Q101 4 99 2T89 0H64Q57 0 54 3T52 12L124 521Q125 527 126 528T133 530H164Q169 530 172 527T174 518L102 12ZM301 711Q302 707 301 704T294 699L56 623Q51 622 48 624T44 630L40 647Q39 656 43 657L286
751Q288 752 291 751T295 746L301 711Z" />
<glyph unicode="&#xee;" horiz-adv-x="226" d="M102 12Q101 4 99 2T89 0H64Q57 0 54 3T52 12L124 521Q125 527 126 528T133 530H164Q169 530 172 527T174 518L102 12ZM180 697Q173 703 172 702T161 695L92 646Q86 642 84 642T76 641H35Q29 641 28 644T32 652L144
734Q149 739 153 741T166 743H189Q195 743 198 739T204 733L292 650Q297 646 297 644T290 641H246Q241 641 238 643T231 648L180 697Z" />
<glyph unicode="&#xef;" horiz-adv-x="226" d="M102 12Q101 4 99 2T89 0H64Q57 0 54 3T52 12L124 521Q125 527 126 528T133 530H164Q169 530 172 527T174 518L102 12ZM137 653Q136 645 134 643T123 641H90Q83 641 81 644T79 653L90 733Q91 739 93 740T100 742H138Q144
742 146 739T147 730L137 653ZM256 653Q255 645 253 643T242 641H209Q202 641 200 644T198 653L209 733Q210 739 212 740T219 742H257Q263 742 265 739T266 730L256 653Z" />
<glyph unicode="&#xf0;" horiz-adv-x="598" d="M543 254Q532 177 495 118T398 24T261 -10Q188 -10 138 23T65 117T52 255Q63 332 102 392T199 486T324 520Q375 520 414 503T480 456Q464 509 433 556T344 646L167 552Q163 550 160 552T154 558L147 573Q143 581
148 584L311 669Q289 682 264 695T209 721Q205 722 204 726T206 733L231 748Q236 751 239 751T248 748Q280 735 306 722T357 692L467 751Q470 753 473 752T477 748L486 725Q487 723 487 721T486 716L390 668Q495 590 527 485T543 254V254ZM266 34Q323 34 370 63T450
143T491 257Q500 319 482 369T426 448T332 477Q276 477 227 447T146 366T104 252Q96 191 114 142T171 63T266 34V34Z" />
<glyph unicode="&#xf1;" horiz-adv-x="578" d="M62 0Q57 0 54 3T52 11L124 521Q125 527 126 528T132 530H163Q168 530 170 528T171 521L162 460Q161 450 169 456Q221 496 269 518T372 540Q444 540 480 506T517 417Q517 411 517 405T515 391L461 10Q460 4 458 2T451
0H420Q416 0 413 3T411 11L463 376Q464 384 464 391T465 405Q465 449 441 472T363 496Q328 496 298 486T234 455T158 405L102 9Q101 4 99 2T91 0H62V0ZM494 687Q482 680 465 675T422 669Q396 669 378 675T345 687T309 693Q286 693 274 684T249 672Q242 670 241
671T237 678L231 697Q230 701 230 703T232 707Q249 719 265 725T305 732Q328 732 347 726T384 713T424 706Q436 706 444 709T460 716T478 725Q485 727 488 726T492 718L498 698Q499 694 499 692T494 687V687Z" />
<glyph unicode="&#xf2;" horiz-adv-x="598" d="M262 -10Q197 -10 149 17T76 95T50 212Q50 283 72 343T133 447T225 515T337 540Q402 540 449 512T522 432T547 312Q547 218 509 146T407 32T262 -10V-10ZM266 34Q332 34 384 69T466 168T496 317Q496 400 454 448T335
497Q270 497 217 461T133 360T102 213Q102 131 145 83T266 34V34ZM237 747Q238 749 240 749T245 749L461 656Q464 655 465 652T466 645L456 628Q455 623 453 623T445 624L228 697Q222 699 220 703T221 711L237 747V747Z" />
<glyph unicode="&#xf3;" horiz-adv-x="598" d="M262 -10Q197 -10 149 17T76 95T50 212Q50 283 72 343T133 447T225 515T337 540Q402 540 449 512T522 432T547 312Q547 218 509 146T407 32T262 -10V-10ZM266 34Q332 34 384 69T466 168T496 317Q496 400 454 448T335
497Q270 497 217 461T133 360T102 213Q102 131 145 83T266 34V34ZM489 711Q490 707 489 704T482 699L244 623Q239 622 236 624T232 630L228 647Q227 656 231 657L474 751Q476 752 479 751T483 746L489 711Z" />
<glyph unicode="&#xf4;" horiz-adv-x="598" d="M262 -10Q197 -10 149 17T76 95T50 212Q50 283 72 343T133 447T225 515T337 540Q402 540 449 512T522 432T547 312Q547 218 509 146T407 32T262 -10V-10ZM266 34Q332 34 384 69T466 168T496 317Q496 400 454 448T335
497Q270 497 217 461T133 360T102 213Q102 131 145 83T266 34V34ZM368 697Q361 703 360 702T349 695L280 646Q274 642 272 642T264 641H223Q217 641 216 644T220 652L332 734Q337 739 341 741T354 743H377Q383 743 386 739T392 733L480 650Q485 646 485 644T478
641H434Q429 641 426 643T419 648L368 697Z" />
<glyph unicode="&#xf5;" horiz-adv-x="598" d="M262 -10Q197 -10 149 17T76 95T50 212Q50 283 72 343T133 447T225 515T337 540Q402 540 449 512T522 432T547 312Q547 218 509 146T407 32T262 -10V-10ZM266 34Q332 34 384 69T466 168T496 317Q496 400 454 448T335
497Q270 497 217 461T133 360T102 213Q102 131 145 83T266 34V34ZM492 687Q480 680 463 675T420 669Q394 669 376 675T343 687T307 693Q284 693 272 684T247 672Q240 670 239 671T235 678L229 697Q228 701 228 703T230 707Q247 719 263 725T303 732Q326 732 345
726T382 713T422 706Q434 706 442 709T458 716T476 725Q483 727 486 726T490 718L496 698Q497 694 497 692T492 687V687Z" />
<glyph unicode="&#xf6;" horiz-adv-x="598" d="M262 -10Q197 -10 149 17T76 95T50 212Q50 283 72 343T133 447T225 515T337 540Q402 540 449 512T522 432T547 312Q547 218 509 146T407 32T262 -10V-10ZM266 34Q332 34 384 69T466 168T496 317Q496 400 454 448T335
497Q270 497 217 461T133 360T102 213Q102 131 145 83T266 34V34ZM325 653Q324 645 322 643T311 641H278Q271 641 269 644T267 653L278 733Q279 739 281 740T288 742H326Q332 742 334 739T335 730L325 653ZM444 653Q443 645 441 643T430 641H397Q390 641 388 644T386
653L397 733Q398 739 400 740T407 742H445Q451 742 453 739T454 730L444 653Z" />
<glyph unicode="&#xf7;" horiz-adv-x="545" d="M305 178Q304 171 302 169T290 167H227Q220 167 218 170T217 179L225 244Q227 249 228 250T233 252H307Q311 252 313 250T314 242L305 178ZM489 359Q489 354 487 353T479 351L90 350Q85 350 83 352T81 359L86 388Q87
392 88 393T91 394L486 395Q490 395 492 393T494 387L489 359ZM351 503Q350 497 348 495T337 493H273Q266 493 264 496T262 505L272 570Q273 575 274 576T279 578H353Q357 578 359 576T360 568L351 503Z" />
<glyph unicode="&#xf8;" horiz-adv-x="577" d="M18 3Q13 -1 9 0T0 6L-9 18Q-13 24 -13 28T-8 38L557 525Q563 530 566 529T574 523L586 508Q589 504 590 501T586 494L18 3ZM252 -10Q186 -10 138 17T65 95T39 212Q39 283 61 343T123 447T214 515T326 540Q392 540
439 512T511 432T536 312Q536 218 498 146T396 32T252 -10V-10ZM256 34Q321 34 373 69T455 168T485 317Q485 400 443 448T324 497Q259 497 206 461T122 360T91 213Q91 131 134 83T256 34V34Z" />
<glyph unicode="&#xf9;" horiz-adv-x="573" d="M207 -10Q142 -10 102 25T61 118Q61 123 61 128T62 140L116 520Q117 526 119 528T126 530H156Q162 530 164 527T166 519L115 159Q114 152 114 146T113 134Q113 82 139 58T214 34Q264 34 313 62T416 137L471 521Q472
527 474 528T481 530H511Q516 530 519 527T521 519L449 9Q448 4 447 2T440 0H411Q407 0 404 2T402 9L411 69Q412 74 410 75T403 73Q335 23 290 7T207 -10V-10ZM206 747Q207 749 209 749T214 749L430 656Q433 655 434 652T435 645L425 628Q424 623 422 623T414 624L197
697Q191 699 189 703T190 711L206 747V747Z" />
<glyph unicode="&#xfa;" horiz-adv-x="573" d="M207 -10Q142 -10 102 25T61 118Q61 123 61 128T62 140L116 520Q117 526 119 528T126 530H156Q162 530 164 527T166 519L115 159Q114 152 114 146T113 134Q113 82 139 58T214 34Q264 34 313 62T416 137L471 521Q472
527 474 528T481 530H511Q516 530 519 527T521 519L449 9Q448 4 447 2T440 0H411Q407 0 404 2T402 9L411 69Q412 74 410 75T403 73Q335 23 290 7T207 -10V-10ZM458 711Q459 707 458 704T451 699L213 623Q208 622 205 624T201 630L197 647Q196 656 200 657L443 751Q445
752 448 751T452 746L458 711Z" />
<glyph unicode="&#xfb;" horiz-adv-x="573" d="M207 -10Q142 -10 102 25T61 118Q61 123 61 128T62 140L116 520Q117 526 119 528T126 530H156Q162 530 164 527T166 519L115 159Q114 152 114 146T113 134Q113 82 139 58T214 34Q264 34 313 62T416 137L471 521Q472
527 474 528T481 530H511Q516 530 519 527T521 519L449 9Q448 4 447 2T440 0H411Q407 0 404 2T402 9L411 69Q412 74 410 75T403 73Q335 23 290 7T207 -10V-10ZM337 697Q330 703 329 702T318 695L249 646Q243 642 241 642T233 641H192Q186 641 185 644T189 652L301
734Q306 739 310 741T323 743H346Q352 743 355 739T361 733L449 650Q454 646 454 644T447 641H403Q398 641 395 643T388 648L337 697Z" />
<glyph unicode="&#xfc;" horiz-adv-x="573" d="M207 -10Q142 -10 102 25T61 118Q61 123 61 128T62 140L116 520Q117 526 119 528T126 530H156Q162 530 164 527T166 519L115 159Q114 152 114 146T113 134Q113 82 139 58T214 34Q264 34 313 62T416 137L471 521Q472
527 474 528T481 530H511Q516 530 519 527T521 519L449 9Q448 4 447 2T440 0H411Q407 0 404 2T402 9L411 69Q412 74 410 75T403 73Q335 23 290 7T207 -10V-10ZM294 653Q293 645 291 643T280 641H247Q240 641 238 644T236 653L247 733Q248 739 250 740T257 742H295Q301
742 303 739T304 730L294 653ZM413 653Q412 645 410 643T399 641H366Q359 641 357 644T355 653L366 733Q367 739 369 740T376 742H414Q420 742 422 739T423 730L413 653Z" />
<glyph unicode="&#xfd;" horiz-adv-x="513" d="M45 -165Q17 -165 1 -164T-15 -155L-12 -135Q-11 -128 -5 -125T20 -122H77Q101 -122 123 -105T161 -63T186 -11T189 35L66 516Q63 530 75 530H109Q119 530 120 523L229 91Q231 82 235 82T246 93L472 521Q474 526
477 528T484 530H514Q523 530 517 521L206 -69Q192 -96 175 -114T137 -144T94 -160T45 -165V-165ZM448 711Q449 707 448 704T441 699L203 623Q198 622 195 624T191 630L187 647Q186 656 190 657L433 751Q435 752 438 751T442 746L448 711Z" />
<glyph unicode="&#xfe;" horiz-adv-x="590" d="M191 742Q196 742 199 738T201 729L164 468Q163 460 166 460T175 468Q185 476 206 493T262 525T346 540Q411 540 458 511T527 421T537 272Q525 187 487 124T391 25T262 -10Q210 -10 176 6T124 42Q108 54 105 32L79
-156Q78 -161 77 -163T70 -165H38Q34 -165 31 -162T29 -154L153 730Q155 738 157 740T167 742H191V742ZM114 106Q145 72 179 53T258 33Q314 33 361 61T442 144T485 274Q496 351 478 400T421 473T334 497Q286 497 246 476T181 423T152 363L114 106V106Z" />
<glyph unicode="&#xff;" horiz-adv-x="513" d="M45 -165Q17 -165 1 -164T-15 -155L-12 -135Q-11 -128 -5 -125T20 -122H77Q101 -122 123 -105T161 -63T186 -11T189 35L66 516Q63 530 75 530H109Q119 530 120 523L229 91Q231 82 235 82T246 93L472 521Q474 526
477 528T484 530H514Q523 530 517 521L206 -69Q192 -96 175 -114T137 -144T94 -160T45 -165V-165ZM283 653Q282 645 280 643T269 641H236Q229 641 227 644T225 653L236 733Q237 739 239 740T246 742H284Q290 742 292 739T293 730L283 653ZM402 653Q401 645 399
643T388 641H355Q348 641 346 644T344 653L355 733Q356 739 358 740T365 742H403Q409 742 411 739T412 730L402 653Z" />
<glyph unicode="&#x2013;" horiz-adv-x="545" d="M473 244Q473 240 471 238T462 236H74Q69 236 67 238T65 245L69 275Q71 280 72 281T75 282L470 283Q474 283 476 281T478 275L473 244Z" />
<glyph unicode="&#x2014;" horiz-adv-x="866" d="M795 244Q795 240 792 238T783 236H74Q69 236 67 238T65 245L69 275Q71 280 72 281T75 282L792 283Q795 283 797 281T799 275L795 244Z" />
<glyph unicode="&#x2018;" horiz-adv-x="213" d="M264 742Q270 742 268 735L209 642Q200 626 212 626H229Q235 625 236 624T237 619L226 546Q225 542 223 540T217 538H140Q136 538 135 539T135 543L144 609Q145 611 145 613T147 616L233 735Q235 738 239 740T248
742H264V742Z" />
<glyph unicode="&#x2019;" horiz-adv-x="213" d="M91 538Q85 538 88 544L147 638Q155 654 143 654H126Q122 654 121 655T119 661L129 734Q130 737 132 739T138 742H216Q219 742 220 741T220 737L212 671Q211 668 211 667T208 664L122 545Q121 541 117 540T108
538H91V538Z" />
<glyph unicode="&#x201a;" horiz-adv-x="213" d="M0 -117Q-8 -117 -3 -110L56 -16Q63 0 51 0H34Q30 0 28 1T27 7L37 80Q38 83 40 85T46 88H124Q127 88 128 87T129 82L120 16Q119 14 118 13T116 10L31 -109Q30 -113 26 -115T17 -117H0V-117Z" />
<glyph unicode="&#x201c;" horiz-adv-x="366" d="M255 538Q251 538 251 539T250 543L260 609Q260 611 261 613T263 616L348 735Q351 738 354 740T362 742H379Q387 742 383 735L324 642Q316 626 328 626H345Q351 625 352 624T352 619L341 546Q341 542 338 540T332
538H255V538ZM102 538Q98 538 98 539T97 543L107 609Q107 611 108 613T110 616L195 735Q198 738 201 740T210 742H227Q234 742 230 735L171 642Q163 626 175 626H192Q198 625 199 624T199 619L188 546Q188 542 186 540T179 538H102V538Z" />
<glyph unicode="&#x201d;" horiz-adv-x="366" d="M244 538Q238 538 241 544L300 638Q308 654 296 654H279Q275 654 273 655T272 661L282 734Q283 737 285 739T291 742H369Q372 742 373 741T373 737L365 671Q364 668 363 667T361 664L275 545Q274 541 270 540T261
538H244V538ZM91 538Q85 538 88 544L147 638Q155 654 143 654H126Q122 654 121 655T119 661L129 734Q130 737 132 739T138 742H216Q219 742 220 741T220 737L212 671Q211 668 211 667T208 664L122 545Q121 541 117 540T108 538H91V538Z" />
<glyph unicode="&#x201e;" horiz-adv-x="329" d="M116 -117Q108 -117 113 -110L172 -16Q179 0 167 0H150Q146 0 144 1T143 7L153 80Q154 83 156 85T162 88H240Q243 88 244 87T245 82L236 16Q235 14 234 13T232 10L147 -109Q146 -113 142 -115T133 -117H116V-117ZM219
-117Q211 -117 216 -110L275 -16Q282 0 270 0H253Q249 0 247 1T246 7L256 80Q257 83 259 85T265 88H343Q346 88 347 87T348 82L339 16Q338 14 337 13T335 10L250 -109Q249 -113 245 -115T236 -117H219V-117Z" />
<glyph unicode="&#x2022;" horiz-adv-x="298" d="M156 300Q135 300 118 310T93 339T88 380Q91 401 103 417T134 444T173 454Q196 454 212 444T236 415T241 374Q239 354 227 337T196 310T156 300V300Z" />
<glyph unicode="&#x2039;" horiz-adv-x="256" d="M179 81Q181 78 180 78T174 77H158Q155 77 152 79T149 83L38 250Q36 255 35 258T37 265L199 443Q202 446 203 446T207 446H225Q228 446 231 444T231 436L96 262Q94 259 93 256T93 249L179 81Z" />
<glyph unicode="&#x203a;" horiz-adv-x="257" d="M159 252Q162 255 163 258T163 265L76 439Q75 443 76 444T81 446H98Q102 446 106 441L218 263Q220 259 220 256T217 248L57 80Q56 79 55 78T49 77H34Q29 77 27 78T25 84L159 252V252Z" />
</font>
</defs>
</svg>
