<svg height="267" width="370" xmlns="http://www.w3.org/2000/svg"><g fill="none"><path d="m-115-166h600v600h-600z"/><path d="m247.7 98.9c-7.3-2-16-5.5-20.1-12.6l-17.9-35.2c-3.8-6.6-3-15.8-.9-23.8 3-11.2-3.6-22.7-14.9-25.7-11.2-3-22.7 3.6-25.7 14.9-3 11.2 3.6 22.7 14.9 25.7h.2c7.3 2 15.9 5.5 19.9 12.6l17.9 35.2c3.8 6.6 3 15.8.9 23.8-3 11.2 3.6 22.7 14.8 25.7s22.7-3.6 25.7-14.9c3.1-11.2-3.6-22.7-14.8-25.7zm-85.5-30.6-12.6 18c-4.1 7.1-12.8 10.7-20.1 12.6-11.2 3-17.9 14.5-14.9 25.7s14.5 17.9 25.7 14.9 17.9-14.5 14.9-25.7c-2.1-7.9-2.9-17.2.9-23.8l9.5-19.7c1-2.2-2-4-3.4-2zm-105.1 129.8c-1.4 0-2.6.7-3.5 1.7l-47.1 60.1c-1 1.6-2.4 2.8-4 3.6l-2.1 1.2c-.5.7 0 1 .9 1h3.8c1.6 0 3.1-.7 4.1-1.9l13.8-17.6c.2-.3.7-.5 1-.5h32.1c.7 0 1.4.5 1.4 1.4v16.7c0 1 .9 2.1 2.1 2.1 1 0 2.1-.9 2.1-2.1v-61.5c-.1-2.3-2.2-4.2-4.6-4.2zm.5 41.6c0 .7-.5 1.4-1.4 1.4h-27.2c-1 0-1.7-1.2-1-2.1l26.9-34.5c1.2-1.6 2.6-.9 2.6 1v34.2zm36.8 25.9h.5c1 0 2.1-.9 2.1-2.1v-63.5c0-1-.9-2.1-2.1-2.1h-.5c-1 0-2.1.9-2.1 2.1v63.5c0 1.2 1.1 2.1 2.1 2.1zm50.4-50.4c-6.7 0-11.7.9-14.7 2.4-2.9 1.6-4.8 4-5.5 7.2-.9 3.5-1.2 8.8-1.2 16.1 0 7.2.5 12.8 1.6 16.2 1 3.3 2.9 5.7 5.9 7.1 3.1 1.6 7.9 2.2 14.5 2.2 3.3 0 6.6-.2 9.8-.3 1.2 0 2.2-.2 3.1-.3 2.4-.2 4.1-2.2 4.1-4.5-2.1.3-4.7.5-7.2.7-3.1.2-6 .3-8.6.3-5.7 0-10.1-.5-12.5-1.6-2.6-1-4.3-2.9-5.2-5.7-.5-1.9-.9-4.5-1-7.9v-3.8c0-.7.5-1.4 1.4-1.4h28.4c3.5 0 6.2-4 6.2-7.1 0-4.8-.3-10.7-3.6-14.5-4.6-5.1-9.5-5.1-15.5-5.1zm14.8 18.9c0 2.2-1.7 4-4 4h-26.8c-.7 0-1.4-.7-1.4-1.4 0-3.3.2-8.6.9-10.5.7-2.6 2.8-4.7 5.2-5.7 2.2-.9 5.9-1.4 10.9-1.4 4.1 0 7.2.3 9.1 1.2 2.1.9 3.6 2.6 4.7 5 1 2.4 1.4 4.3 1.4 9.5zm34.2-5.3v-7.4c0-.7-.5-1.4-1.4-1.4h-7.2c-1.2 0-2.1-.9-2.1-2.1s.9-2.1 2.1-2.1h7.3c.7 0 1.4-.5 1.4-1.4v-14.3c0-1.2 1-2.2 2.2-2.2s2.2 1 2.2 2.2v14.5c0 .7.5 1.4 1.4 1.4h9c1.2 0 2.1.9 2.1 2.1s-.9 2.1-2.1 2.1h-9c-.7 0-1.4.5-1.4 1.4v41.9c0 1.2-1 2.2-2.2 2.2s-2.2-1-2.2-2.2zm43.5-7.6v-20.9c0-1.2-1-2.2-2.2-2.2s-2.2 1-2.2 2.2v63c0 1.2 1 2.2 2.2 2.2s2.2-1 2.2-2.2v-23.5c0-4.8.3-8.5.9-11.2.5-2.8 2.1-5 4.5-6.7s6-2.4 10.9-2.4c4.3 0 7.4.3 9.5 1.2s3.6 2.4 4.3 4.8c.7 2.2 1 5.9 1 10.9v26.9c0 1.2 1 2.2 2.2 2.2s2.2-1 2.2-2.2v-32.4c0-13.7-8.3-15.8-15.8-15.8h-5c-3.3.1-11.3.5-14.7 6.1zm64.2-15.7c1.4 0 2.6-1.2 2.6-2.6v-2.1c0-1.4-1.2-2.6-2.6-2.6s-2.6 1.2-2.6 2.6v2.1c0 1.4 1.3 2.6 2.6 2.6zm0 61.3c1.2 0 2.2-1 2.2-2.2v-47.1c0-1.2-1-2.2-2.2-2.2s-2.2 1-2.2 2.2v47.1c0 1.1 1 2.2 2.2 2.2zm48-51.6c-12.1 0-20.2 7.6-20.2 19v12.6c0 11.4 8.1 19 20.2 19s20.2-7.6 20.2-19v-12.6c0-11.5-8.1-19-20.2-19zm15.6 32.1c0 10.5-8.3 14.3-15.5 14.3s-15.5-3.8-15.5-14.3v-13.6c0-10.5 8.3-14.3 15.5-14.3s15.5 3.8 15.5 14.3z" fill="#fff"/></g></svg>