<svg viewBox="0 0 888.39 195" xmlns="http://www.w3.org/2000/svg"><g transform="translate(-77.73 -48.75)"><path d="m77.73 175.35c0-15.8 14-26 33.8-26a92.92 92.92 0 0 1 23.6 3.4v-9.75a18.72 18.72 0 0 0 -3.8-12q-5.4-6.6-18-6.6a21.91 21.91 0 0 0 -11.2 2.6 12.87 12.87 0 0 1 1 4.8 9.62 9.62 0 0 1 -10 9.8 9.77 9.77 0 0 1 -10.2-10.2c0-10.2 11.2-20.8 33.2-20.8 13.4 0 23.2 4 29 10.8 4.4 5.2 6.6 12 6.6 19.8v42.8h13.4v14.4h-29.6v-10.4c-7 6.6-18 12-29.6 12-15.8 0-28.2-9-28.2-24.65zm57.4 1.4v-14a80.4 80.4 0 0 0 -21-3c-12.2 0-19 5.8-19 14.2 0 7.8 5.8 13 15.8 13 9.2.05 17.6-4.4 24.2-10.2z"/><path d="m203.53 188.55c-2.6-4.8-4-10.6-4-17.6v-43.95h-13.4v-14.8h30.4v55a21.72 21.72 0 0 0 2.2 10.4c2.4 4.6 6.4 6.6 12.6 6.6 9.4 0 18.2-5.8 25.8-13v-44.2h-13.8v-14.8h31v71.8h13.4v14.4h-30v-15c-8.2 8.8-19 16.6-31.4 16.6-11 0-18.4-4.45-22.8-11.45z"/><path d="m328.73 189.15a30.06 30.06 0 0 1 -2.6-12.6v-49.55h-16.2v-14.8h16.2v-19.85l17.2-7v26.8h26.2v14.85h-26.2v46.6a15.58 15.58 0 0 0 1.2 6.6c1.6 2.8 4.8 4.2 9.8 4.2 5.2 0 11.4-2.4 16.4-4.8l-1.8 15.4a41.29 41.29 0 0 1 -19.4 5c-9.6 0-17-3.45-20.8-10.85z"/><path d="m397.73 155.35c0-24.2 17.6-44.8 45-44.8s45 20.4 45 44.8c0 24-17.8 44.6-45 44.6-27.6.05-45-20.4-45-44.6zm72.2 0c0-17.6-11.2-30.2-27.2-30.2-16.2 0-27.4 12.6-27.4 30.2s11.2 30 27.4 30c16 0 27.2-12.35 27.2-30z"/><path d="m516.93 184h13.4v-57h-13.4v-14.8h29.8v15c7.2-8.4 17.8-16.6 30.4-16.6 10 0 16.8 3.8 21 9.8a20.22 20.22 0 0 1 2.6 6c8.8-8.8 19.4-15.8 30.4-15.8 12.4 0 20 4.6 24 12.4a38.09 38.09 0 0 1 3.4 16.4v44.6h13.4v14.4h-43.4v-14.4h12.8v-40.8a27.11 27.11 0 0 0 -1.6-9.8c-2-4.8-6-7-12.2-7-8.8 0-17 5.2-24.6 12.6v45h12.6v14.4h-42.6v-14.4h12.8v-40.8a27.48 27.48 0 0 0 -1.4-9.8c-2.2-4.8-6-7-12.2-7-9.2 0-17.4 5.6-24.8 12.8v44.8h12.6v14.4h-43z"/><path d="m704.13 146.15c0-47.6 31-82 59-97.4l8.4 12.6c-26.2 16.4-49.4 43.8-49.4 84.8 0 41.2 23.2 68.6 49.4 85l-8.4 12.6c-28-15.4-59-49.75-59-97.6z"/><path d="m898.73 231.15c26.2-16.4 49.4-43.8 49.4-85 0-41-23.2-68.4-49.4-84.8l8.4-12.6c28 15.4 59 49.8 59 97.4 0 47.8-31 82.2-59 97.6z"/><path d="m825.71 134.2c-5.32 2.54-16.59 7.39-16.59 7.39a36.4 36.4 0 0 1 -4.49-3.71c-11.58-12.23-9.32-35.73 4.29-47.24 14.76-12.49 39.82-12.38 54.51.24 16.85 14.47 14.79 41.84-4.75 52.24-10.55 5.62-22.41 8.74-33.56 13.27-7.91 3.2-13.65 8.35-14.2 17.71-.5 8.6 3 15.21 10.71 19.13 8 4 16.35 4.35 24.8 1.56 7.51-2.47 13.05-7 13.79-15.37.76-8.66-.94-16.57-9.08-21.62-1.38-.86-2.78-1.66-4.79-2.85 4.77-2.23 15.67-7.13 15.67-7.13s2.05 1.62 3.39 2.9c16 15.32 12.21 44.44-7.23 54.92-13.77 7.42-28.24 7.8-42.41 1.33-12.83-5.85-19.2-16.76-19.63-30.56-.41-13.29 4.93-24.37 17.22-30.33 9.73-4.71 20.19-7.92 30.34-11.78 12.89-4.89 17.3-10.59 16.09-20.89a17.68 17.68 0 0 0 -.69-3.46c-3.25-9.73-14.56-15.31-27.62-13.69-11.16 1.39-18.54 8.74-19.48 19.21-.85 9.74 4.11 15.41 13.71 18.73z"/></g><path d="m693.89 13.47h128.27v168.44h-128.27z" fill="none"/></svg>