<svg id="ezi5a2zt1581" xmlns="http://www.w3.org/2000/svg" xmlns:xlink="http://www.w3.org/1999/xlink" viewBox="0 0 1400 900" shape-rendering="geometricPrecision" text-rendering="geometricPrecision" width="1400" height="900"><style><![CDATA[#ezi5a2zt1584 {
           animation-name: ezi5a2zt1584_s_p, ezi5a2zt1584_s_o, ezi5a2zt1584_s_w;
           animation-duration: 2100ms;
           animation-fill-mode: forwards;
           animation-timing-function: linear;
           animation-direction: normal;
           animation-iteration-count: infinite;  
        }@keyframes ezi5a2zt1584_s_p { 0% {stroke: rgb(250,114,175);animation-timing-function: cubic-bezier(0.445000,0.050000,0.550000,0.950000)} 31.428571% {stroke: rgb(127,81,214);animation-timing-function: cubic-bezier(0.445000,0.050000,0.550000,0.950000)} 59.047619% {stroke: rgb(84,216,208);animation-timing-function: cubic-bezier(0.445000,0.050000,0.550000,0.950000)} 95.238095% {stroke: rgb(250,114,175)} 100% {stroke: rgb(250,114,175)} }@keyframes ezi5a2zt1584_s_o { 0% {stroke-opacity: 1} 55.238095% {stroke-opacity: 1;animation-timing-function: cubic-bezier(0.445000,0.050000,0.550000,0.950000)} 63.809524% {stroke-opacity: 0;animation-timing-function: cubic-bezier(0.445000,0.050000,0.550000,0.950000)} 94.761905% {stroke-opacity: 0;animation-timing-function: cubic-bezier(0.445000,0.050000,0.550000,0.950000)} 100% {stroke-opacity: 0.550000} }@keyframes ezi5a2zt1584_s_w { 0% {stroke-width: 8} 47.619048% {stroke-width: 32} 95.238095% {stroke-width: 8} 100% {stroke-width: 8} }#ezi5a2zt1585 {
           animation-name: ezi5a2zt1585_s_p, ezi5a2zt1585_s_o, ezi5a2zt1585_s_w;
           animation-duration: 2100ms;
           animation-fill-mode: forwards;
           animation-timing-function: linear;
           animation-direction: normal;
           animation-iteration-count: infinite;  
        }@keyframes ezi5a2zt1585_s_p { 0% {stroke: rgb(250,114,175);animation-timing-function: cubic-bezier(0.445000,0.050000,0.550000,0.950000)} 31.428571% {stroke: rgb(127,81,214);animation-timing-function: cubic-bezier(0.445000,0.050000,0.550000,0.950000)} 59.047619% {stroke: rgb(84,216,208);animation-timing-function: cubic-bezier(0.445000,0.050000,0.550000,0.950000)} 95.238095% {stroke: rgb(250,114,175)} 100% {stroke: rgb(250,114,175)} }@keyframes ezi5a2zt1585_s_o { 0% {stroke-opacity: 1} 49.523810% {stroke-opacity: 1;animation-timing-function: cubic-bezier(0.445000,0.050000,0.550000,0.950000)} 58.095238% {stroke-opacity: 0;animation-timing-function: cubic-bezier(0.445000,0.050000,0.550000,0.950000)} 89.523810% {stroke-opacity: 0;animation-timing-function: cubic-bezier(0.445000,0.050000,0.550000,0.950000)} 99.047619% {stroke-opacity: 1} 100% {stroke-opacity: 1} }@keyframes ezi5a2zt1585_s_w { 0% {stroke-width: 8} 47.619048% {stroke-width: 32} 95.238095% {stroke-width: 8} 100% {stroke-width: 8} }#ezi5a2zt1586 {
           animation-name: ezi5a2zt1586_s_p, ezi5a2zt1586_s_o, ezi5a2zt1586_s_w;
           animation-duration: 2100ms;
           animation-fill-mode: forwards;
           animation-timing-function: linear;
           animation-direction: normal;
           animation-iteration-count: infinite;  
        }@keyframes ezi5a2zt1586_s_p { 0% {stroke: rgb(250,114,175);animation-timing-function: cubic-bezier(0.445000,0.050000,0.550000,0.950000)} 31.428571% {stroke: rgb(127,81,214);animation-timing-function: cubic-bezier(0.445000,0.050000,0.550000,0.950000)} 59.047619% {stroke: rgb(84,216,208);animation-timing-function: cubic-bezier(0.445000,0.050000,0.550000,0.950000)} 95.238095% {stroke: rgb(250,114,175)} 100% {stroke: rgb(250,114,175)} }@keyframes ezi5a2zt1586_s_o { 0% {stroke-opacity: 1} 44.285714% {stroke-opacity: 1;animation-timing-function: cubic-bezier(0.445000,0.050000,0.550000,0.950000)} 52.857143% {stroke-opacity: 0;animation-timing-function: cubic-bezier(0.445000,0.050000,0.550000,0.950000)} 83.333333% {stroke-opacity: 0;animation-timing-function: cubic-bezier(0.445000,0.050000,0.550000,0.950000)} 92.857143% {stroke-opacity: 1} 100% {stroke-opacity: 1} }@keyframes ezi5a2zt1586_s_w { 0% {stroke-width: 8} 47.619048% {stroke-width: 32} 95.238095% {stroke-width: 8} 100% {stroke-width: 8} }#ezi5a2zt1587 {
           animation-name: ezi5a2zt1587_s_p, ezi5a2zt1587_s_o, ezi5a2zt1587_s_w;
           animation-duration: 2100ms;
           animation-fill-mode: forwards;
           animation-timing-function: linear;
           animation-direction: normal;
           animation-iteration-count: infinite;  
        }@keyframes ezi5a2zt1587_s_p { 0% {stroke: rgb(250,114,175);animation-timing-function: cubic-bezier(0.445000,0.050000,0.550000,0.950000)} 31.428571% {stroke: rgb(127,81,214);animation-timing-function: cubic-bezier(0.445000,0.050000,0.550000,0.950000)} 59.047619% {stroke: rgb(84,216,208);animation-timing-function: cubic-bezier(0.445000,0.050000,0.550000,0.950000)} 95.238095% {stroke: rgb(250,114,175)} 100% {stroke: rgb(250,114,175)} }@keyframes ezi5a2zt1587_s_o { 0% {stroke-opacity: 1} 39.047619% {stroke-opacity: 1;animation-timing-function: cubic-bezier(0.445000,0.050000,0.550000,0.950000)} 47.619048% {stroke-opacity: 0;animation-timing-function: cubic-bezier(0.445000,0.050000,0.550000,0.950000)} 78.095238% {stroke-opacity: 0;animation-timing-function: cubic-bezier(0.445000,0.050000,0.550000,0.950000)} 87.619048% {stroke-opacity: 1} 100% {stroke-opacity: 1} }@keyframes ezi5a2zt1587_s_w { 0% {stroke-width: 8} 47.619048% {stroke-width: 32} 95.238095% {stroke-width: 8} 100% {stroke-width: 8} }#ezi5a2zt1588 {
           animation-name: ezi5a2zt1588_s_p, ezi5a2zt1588_s_o, ezi5a2zt1588_s_w;
           animation-duration: 2100ms;
           animation-fill-mode: forwards;
           animation-timing-function: linear;
           animation-direction: normal;
           animation-iteration-count: infinite;  
        }@keyframes ezi5a2zt1588_s_p { 0% {stroke: rgb(250,114,175);animation-timing-function: cubic-bezier(0.445000,0.050000,0.550000,0.950000)} 31.428571% {stroke: rgb(127,81,214);animation-timing-function: cubic-bezier(0.445000,0.050000,0.550000,0.950000)} 59.047619% {stroke: rgb(84,216,208);animation-timing-function: cubic-bezier(0.445000,0.050000,0.550000,0.950000)} 95.238095% {stroke: rgb(250,114,175)} 100% {stroke: rgb(250,114,175)} }@keyframes ezi5a2zt1588_s_o { 0% {stroke-opacity: 1} 33.809524% {stroke-opacity: 1;animation-timing-function: cubic-bezier(0.445000,0.050000,0.550000,0.950000)} 42.380952% {stroke-opacity: 0;animation-timing-function: cubic-bezier(0.445000,0.050000,0.550000,0.950000)} 72.380952% {stroke-opacity: 0;animation-timing-function: cubic-bezier(0.445000,0.050000,0.550000,0.950000)} 81.904762% {stroke-opacity: 1} 100% {stroke-opacity: 1} }@keyframes ezi5a2zt1588_s_w { 0% {stroke-width: 8} 47.619048% {stroke-width: 32} 95.238095% {stroke-width: 8} 100% {stroke-width: 8} }#ezi5a2zt1589 {
           animation-name: ezi5a2zt1589_s_p, ezi5a2zt1589_s_o, ezi5a2zt1589_s_w;
           animation-duration: 2100ms;
           animation-fill-mode: forwards;
           animation-timing-function: linear;
           animation-direction: normal;
           animation-iteration-count: infinite;  
        }@keyframes ezi5a2zt1589_s_p { 0% {stroke: rgb(250,114,175);animation-timing-function: cubic-bezier(0.445000,0.050000,0.550000,0.950000)} 31.428571% {stroke: rgb(127,81,214);animation-timing-function: cubic-bezier(0.445000,0.050000,0.550000,0.950000)} 59.047619% {stroke: rgb(84,216,208);animation-timing-function: cubic-bezier(0.445000,0.050000,0.550000,0.950000)} 95.238095% {stroke: rgb(250,114,175)} 100% {stroke: rgb(250,114,175)} }@keyframes ezi5a2zt1589_s_o { 0% {stroke-opacity: 1} 28.571429% {stroke-opacity: 1;animation-timing-function: cubic-bezier(0.445000,0.050000,0.550000,0.950000)} 37.142857% {stroke-opacity: 0;animation-timing-function: cubic-bezier(0.445000,0.050000,0.550000,0.950000)} 67.142857% {stroke-opacity: 0;animation-timing-function: cubic-bezier(0.445000,0.050000,0.550000,0.950000)} 76.666667% {stroke-opacity: 1} 100% {stroke-opacity: 1} }@keyframes ezi5a2zt1589_s_w { 0% {stroke-width: 8} 47.619048% {stroke-width: 32} 95.238095% {stroke-width: 8} 100% {stroke-width: 8} }#ezi5a2zt15810 {
           animation-name: ezi5a2zt15810_s_p, ezi5a2zt15810_s_o, ezi5a2zt15810_s_w;
           animation-duration: 2100ms;
           animation-fill-mode: forwards;
           animation-timing-function: linear;
           animation-direction: normal;
           animation-iteration-count: infinite;  
        }@keyframes ezi5a2zt15810_s_p { 0% {stroke: rgb(250,114,175);animation-timing-function: cubic-bezier(0.445000,0.050000,0.550000,0.950000)} 31.428571% {stroke: rgb(127,81,214);animation-timing-function: cubic-bezier(0.445000,0.050000,0.550000,0.950000)} 59.047619% {stroke: rgb(84,216,208);animation-timing-function: cubic-bezier(0.445000,0.050000,0.550000,0.950000)} 95.238095% {stroke: rgb(250,114,175)} 100% {stroke: rgb(250,114,175)} }@keyframes ezi5a2zt15810_s_o { 0% {stroke-opacity: 1} 23.333333% {stroke-opacity: 1;animation-timing-function: cubic-bezier(0.445000,0.050000,0.550000,0.950000)} 31.904762% {stroke-opacity: 0;animation-timing-function: cubic-bezier(0.445000,0.050000,0.550000,0.950000)} 61.904762% {stroke-opacity: 0;animation-timing-function: cubic-bezier(0.445000,0.050000,0.550000,0.950000)} 71.428571% {stroke-opacity: 1} 100% {stroke-opacity: 1} }@keyframes ezi5a2zt15810_s_w { 0% {stroke-width: 8} 47.619048% {stroke-width: 32} 95.238095% {stroke-width: 8} 100% {stroke-width: 8} }#ezi5a2zt15811 {
           animation-name: ezi5a2zt15811_s_p, ezi5a2zt15811_s_o, ezi5a2zt15811_s_w;
           animation-duration: 2100ms;
           animation-fill-mode: forwards;
           animation-timing-function: linear;
           animation-direction: normal;
           animation-iteration-count: infinite;  
        }@keyframes ezi5a2zt15811_s_p { 0% {stroke: rgb(250,114,175);animation-timing-function: cubic-bezier(0.445000,0.050000,0.550000,0.950000)} 31.428571% {stroke: rgb(127,81,214);animation-timing-function: cubic-bezier(0.445000,0.050000,0.550000,0.950000)} 59.047619% {stroke: rgb(84,216,208);animation-timing-function: cubic-bezier(0.445000,0.050000,0.550000,0.950000)} 95.238095% {stroke: rgb(250,114,175)} 100% {stroke: rgb(250,114,175)} }@keyframes ezi5a2zt15811_s_o { 0% {stroke-opacity: 1} 18.095238% {stroke-opacity: 1;animation-timing-function: cubic-bezier(0.445000,0.050000,0.550000,0.950000)} 26.666667% {stroke-opacity: 0;animation-timing-function: cubic-bezier(0.445000,0.050000,0.550000,0.950000)} 56.666667% {stroke-opacity: 0;animation-timing-function: cubic-bezier(0.445000,0.050000,0.550000,0.950000)} 66.190476% {stroke-opacity: 1} 100% {stroke-opacity: 1} }@keyframes ezi5a2zt15811_s_w { 0% {stroke-width: 8} 47.619048% {stroke-width: 32} 95.238095% {stroke-width: 8} 100% {stroke-width: 8} }#ezi5a2zt15812 {
           animation-name: ezi5a2zt15812_s_p, ezi5a2zt15812_s_o, ezi5a2zt15812_s_w;
           animation-duration: 2100ms;
           animation-fill-mode: forwards;
           animation-timing-function: linear;
           animation-direction: normal;
           animation-iteration-count: infinite;  
        }@keyframes ezi5a2zt15812_s_p { 0% {stroke: rgb(250,114,175);animation-timing-function: cubic-bezier(0.445000,0.050000,0.550000,0.950000)} 31.428571% {stroke: rgb(127,81,214);animation-timing-function: cubic-bezier(0.445000,0.050000,0.550000,0.950000)} 59.047619% {stroke: rgb(84,216,208);animation-timing-function: cubic-bezier(0.445000,0.050000,0.550000,0.950000)} 95.238095% {stroke: rgb(250,114,175)} 100% {stroke: rgb(250,114,175)} }@keyframes ezi5a2zt15812_s_o { 0% {stroke-opacity: 1} 12.857143% {stroke-opacity: 1;animation-timing-function: cubic-bezier(0.445000,0.050000,0.550000,0.950000)} 21.428571% {stroke-opacity: 0;animation-timing-function: cubic-bezier(0.445000,0.050000,0.550000,0.950000)} 51.904762% {stroke-opacity: 0;animation-timing-function: cubic-bezier(0.445000,0.050000,0.550000,0.950000)} 61.428571% {stroke-opacity: 1} 100% {stroke-opacity: 1} }@keyframes ezi5a2zt15812_s_w { 0% {stroke-width: 8} 47.619048% {stroke-width: 32} 95.238095% {stroke-width: 8} 100% {stroke-width: 8} }#ezi5a2zt15813 {
           animation-name: ezi5a2zt15813_s_p, ezi5a2zt15813_s_o, ezi5a2zt15813_s_w;
           animation-duration: 2100ms;
           animation-fill-mode: forwards;
           animation-timing-function: linear;
           animation-direction: normal;
           animation-iteration-count: infinite;  
        }@keyframes ezi5a2zt15813_s_p { 0% {stroke: rgb(250,114,175);animation-timing-function: cubic-bezier(0.445000,0.050000,0.550000,0.950000)} 31.428571% {stroke: rgb(127,81,214);animation-timing-function: cubic-bezier(0.445000,0.050000,0.550000,0.950000)} 59.047619% {stroke: rgb(84,216,208);animation-timing-function: cubic-bezier(0.445000,0.050000,0.550000,0.950000)} 95.238095% {stroke: rgb(250,114,175)} 100% {stroke: rgb(250,114,175)} }@keyframes ezi5a2zt15813_s_o { 0% {stroke-opacity: 1} 8.571429% {stroke-opacity: 1;animation-timing-function: cubic-bezier(0.445000,0.050000,0.550000,0.950000)} 17.142857% {stroke-opacity: 0;animation-timing-function: cubic-bezier(0.445000,0.050000,0.550000,0.950000)} 47.619048% {stroke-opacity: 0;animation-timing-function: cubic-bezier(0.445000,0.050000,0.550000,0.950000)} 57.142857% {stroke-opacity: 1} 100% {stroke-opacity: 1} }@keyframes ezi5a2zt15813_s_w { 0% {stroke-width: 8} 47.619048% {stroke-width: 32} 95.238095% {stroke-width: 8} 100% {stroke-width: 8} }#ezi5a2zt15814 {
           animation-name: ezi5a2zt15814_s_p, ezi5a2zt15814_s_o, ezi5a2zt15814_s_w;
           animation-duration: 2100ms;
           animation-fill-mode: forwards;
           animation-timing-function: linear;
           animation-direction: normal;
           animation-iteration-count: infinite;  
        }@keyframes ezi5a2zt15814_s_p { 0% {stroke: rgb(250,114,175);animation-timing-function: cubic-bezier(0.445000,0.050000,0.550000,0.950000)} 31.428571% {stroke: rgb(127,81,214);animation-timing-function: cubic-bezier(0.445000,0.050000,0.550000,0.950000)} 59.047619% {stroke: rgb(84,216,208);animation-timing-function: cubic-bezier(0.445000,0.050000,0.550000,0.950000)} 95.238095% {stroke: rgb(250,114,175)} 100% {stroke: rgb(250,114,175)} }@keyframes ezi5a2zt15814_s_o { 0% {stroke-opacity: 1} 4.285714% {stroke-opacity: 1;animation-timing-function: cubic-bezier(0.445000,0.050000,0.550000,0.950000)} 12.857143% {stroke-opacity: 0;animation-timing-function: cubic-bezier(0.445000,0.050000,0.550000,0.950000)} 42.857143% {stroke-opacity: 0;animation-timing-function: cubic-bezier(0.445000,0.050000,0.550000,0.950000)} 52.380952% {stroke-opacity: 1} 100% {stroke-opacity: 1} }@keyframes ezi5a2zt15814_s_w { 0% {stroke-width: 8} 47.619048% {stroke-width: 32} 95.238095% {stroke-width: 8} 100% {stroke-width: 8} }#ezi5a2zt15815 {
           animation-name: ezi5a2zt15815_s_p, ezi5a2zt15815_s_o, ezi5a2zt15815_s_w;
           animation-duration: 2100ms;
           animation-fill-mode: forwards;
           animation-timing-function: linear;
           animation-direction: normal;
           animation-iteration-count: infinite;  
        }@keyframes ezi5a2zt15815_s_p { 0% {stroke: rgb(250,114,175);animation-timing-function: cubic-bezier(0.445000,0.050000,0.550000,0.950000)} 31.428571% {stroke: rgb(127,81,214);animation-timing-function: cubic-bezier(0.445000,0.050000,0.550000,0.950000)} 59.047619% {stroke: rgb(84,216,208);animation-timing-function: cubic-bezier(0.445000,0.050000,0.550000,0.950000)} 95.238095% {stroke: rgb(250,114,175)} 100% {stroke: rgb(250,114,175)} }@keyframes ezi5a2zt15815_s_o { 0% {stroke-opacity: 1;animation-timing-function: cubic-bezier(0.445000,0.050000,0.550000,0.950000)} 9.047619% {stroke-opacity: 0;animation-timing-function: cubic-bezier(0.445000,0.050000,0.550000,0.950000)} 39.047619% {stroke-opacity: 0;animation-timing-function: cubic-bezier(0.445000,0.050000,0.550000,0.950000)} 48.571429% {stroke-opacity: 1} 100% {stroke-opacity: 1} }@keyframes ezi5a2zt15815_s_w { 0% {stroke-width: 8} 47.619048% {stroke-width: 32} 95.238095% {stroke-width: 8} 100% {stroke-width: 8} }#ezi5a2zt15819 {
           animation-name: ezi5a2zt15819_s_p, ezi5a2zt15819_s_w;
           animation-duration: 2100ms;
           animation-fill-mode: forwards;
           animation-timing-function: linear;
           animation-direction: normal;
           animation-iteration-count: infinite;  
        }@keyframes ezi5a2zt15819_s_p { 0% {stroke: rgb(250,114,175);animation-timing-function: cubic-bezier(0.445000,0.050000,0.550000,0.950000)} 31.428571% {stroke: rgb(127,81,214);animation-timing-function: cubic-bezier(0.445000,0.050000,0.550000,0.950000)} 59.047619% {stroke: rgb(84,216,208);animation-timing-function: cubic-bezier(0.445000,0.050000,0.550000,0.950000)} 95.238095% {stroke: rgb(250,114,175)} 100% {stroke: rgb(250,114,175)} }@keyframes ezi5a2zt15819_s_w { 0% {stroke-width: 8} 47.619048% {stroke-width: 32} 95.238095% {stroke-width: 8} 100% {stroke-width: 8} }]]></style><rect id="ezi5a2zt1582" width="1400" height="900" rx="0" ry="0" fill="rgb(14,3,51)" stroke="none" stroke-width="1"/><g id="ezi5a2zt1583" mask="url(#ezi5a2zt15816)"><path id="ezi5a2zt1584" d="M654,278.480000L486.650000,-346.230000M913.350000,1246.230000L746,621.520000" fill="none" stroke="rgb(250,114,175)" stroke-width="8" stroke-miterlimit="10"/><path id="ezi5a2zt1585" d="M611.210000,296.220000L287.840000,-263.880000M1112.160000,1163.880000L788.790000,603.780000" fill="none" stroke="rgb(250,114,175)" stroke-width="8" stroke-miterlimit="10"/><path id="ezi5a2zt1586" d="M574.440000,324.440000L117.120000,-132.880000M1282.880000,1032.880000L825.560000,575.560000" fill="none" stroke="rgb(250,114,175)" stroke-width="8" stroke-miterlimit="10"/><path id="ezi5a2zt1587" d="M546.220000,361.210000L-13.880000,37.840000M1413.880000,862.160000L853.780000,538.790000" fill="none" stroke="rgb(250,114,175)" stroke-width="8" stroke-miterlimit="10"/><path id="ezi5a2zt1588" d="M528.480000,404L-96.230000,236.650000M1496.230000,663.350000L871.520000,496" fill="none" stroke="rgb(250,114,175)" stroke-width="8" stroke-miterlimit="10"/><path id="ezi5a2zt1589" d="M522.430000,450L-124.320000,450M1524.320000,450L877.570000,450" fill="none" stroke="rgb(250,114,175)" stroke-width="8" stroke-miterlimit="10"/><path id="ezi5a2zt15810" d="M528.480000,496L-96.230000,663.350000M1496.230000,236.650000L871.520000,404" fill="none" stroke="rgb(250,114,175)" stroke-width="8" stroke-miterlimit="10"/><path id="ezi5a2zt15811" d="M546.220000,538.790000L-13.880000,862.160000M1413.880000,37.840000L853.780000,361.210000" fill="none" stroke="rgb(250,114,175)" stroke-width="8" stroke-miterlimit="10"/><path id="ezi5a2zt15812" d="M574.440000,575.560000L117.120000,1032.880000M1282.880000,-132.880000L825.560000,324.440000" fill="none" stroke="rgb(250,114,175)" stroke-width="8" stroke-miterlimit="10"/><path id="ezi5a2zt15813" d="M611.210000,603.780000L287.840000,1163.880000M1112.160000,-263.880000L788.790000,296.220000" fill="none" stroke="rgb(250,114,175)" stroke-width="8" stroke-miterlimit="10"/><path id="ezi5a2zt15814" d="M654,621.520000L486.650000,1246.230000M913.350000,-346.230000L746,278.480000" fill="none" stroke="rgb(250,114,175)" stroke-width="8" stroke-miterlimit="10"/><path id="ezi5a2zt15815" d="M700,272.430000L700,-374.320000M700,1274.320000L700,627.570000" fill="none" stroke="rgb(250,114,175)" stroke-width="8" stroke-miterlimit="10"/><mask id="ezi5a2zt15816" mask-type="alpha"><rect id="ezi5a2zt15817" width="1400" height="900" rx="0" ry="0" transform="matrix(1 0 0 1 -0.00000000000091 -0.00000000000023)" fill="rgb(14,3,51)" stroke="none" stroke-width="1"/></mask></g><path id="ezi5a2zt15818" display="none" d="M700,745.750000C558.899352,745.758494,437.442281,646.092431,409.908016,507.704363C382.373752,369.316296,456.431099,230.749873,586.788971,176.747853C717.146843,122.745833,867.498149,168.348782,945.892877,285.667406C1024.287604,402.986031,1008.891364,559.344913,909.120000,659.120000C853.781307,714.767611,778.479185,745.962250,700,745.750000ZM700,194.250000C559,194.250000,444.260000,309,444.260000,450C444.260000,591,559,705.750000,700,705.750000C841,705.750000,955.740000,591,955.740000,450C955.740000,309,841,194.250000,700,194.250000Z" fill="rgb(250,114,175)" stroke="none" stroke-width="1"/><rect id="ezi5a2zt15819" width="343.150000" height="343.150000" rx="0" ry="0" transform="matrix(0.70710700000000 0.70710700000000 -0.70710700000000 0.70710700000000 700 207.35623294999999)" fill="rgb(14,3,51)" stroke="rgb(250,114,175)" stroke-width="8"/><path id="ezi5a2zt15820" d="M58.900000,13.730000Q58.900000,7.210000,62,3.600000C64.202861,1.141130,67.403790,-0.183392,70.700000,0C73.992531,-0.178831,77.188515,1.145167,79.390000,3.600000Q82.510000,7.200000,82.510000,13.730000L82.510000,21.220000Q82.510000,27.940000,79.390000,31.440000Q76.270000,34.940000,70.700000,34.940000Q65.130000,34.940000,62.020000,31.440000Q58.910000,27.940000,58.900000,21.220000ZM70.700000,31.200000C72.969946,31.350873,75.163906,30.351569,76.540000,28.540000Q78.470000,25.870000,78.480000,20.930000L78.480000,14C78.603349,11.380591,77.926713,8.785657,76.540000,6.560000C75.219911,4.664014,73.005716,3.594830,70.700000,3.740000C68.393905,3.602841,66.183526,4.679595,64.870000,6.580000C63.487222,8.799965,62.810744,11.387320,62.930000,14L62.930000,20.910000Q62.930000,25.840000,64.870000,28.520000C66.239707,30.336014,68.429843,31.342800,70.700000,31.200000ZM106.560000,10.460000L110.300000,10.460000L110.300000,34.270000L106.560000,34.270000L106.560000,30L106,30C105.317536,31.446229,104.286705,32.700407,103,33.650000C101.599805,34.591189,99.935643,35.060658,98.250000,34.990000C97.010796,35.003438,95.779890,34.786419,94.620000,34.350000C93.538962,33.926842,92.570404,33.259461,91.790000,32.400000C90.968137,31.467188,90.348448,30.374219,89.970000,29.190000C89.512807,27.745006,89.293284,26.235361,89.320000,24.720000L89.320000,10.460000L93,10.460000L93,24.190000C93,26.690000,93.520000,28.510000,94.540000,29.660000C95.775097,30.901227,97.494923,31.534269,99.240000,31.390000C101.292204,31.491406,103.274271,30.629798,104.600000,29.060000C105.965237,27.286911,106.653134,25.084931,106.540000,22.850000ZM118.130000,10.460000L125.620000,10.460000L125.620000,0.670000L129.360000,0.670000L129.360000,10.460000L138.580000,10.460000L138.580000,13.920000L129.360000,13.920000L129.360000,29.380000C129.360000,30.380000,129.790000,30.820000,130.660000,30.820000L137.420000,30.820000L137.420000,34.270000L129.310000,34.270000C128.315550,34.307165,127.350939,33.926398,126.650000,33.220000C125.967351,32.494999,125.606707,31.524867,125.650000,30.530000L125.650000,13.920000L118.160000,13.920000ZM23.900000,80.260000C23.931548,82.060173,23.591110,83.847476,22.900000,85.510000C22.294231,86.953408,21.403068,88.259541,20.280000,89.350000C19.185313,90.394494,17.888814,91.204381,16.470000,91.730000C13.532866,92.810377,10.307134,92.810377,7.370000,91.730000C5.966779,91.196843,4.684807,90.387535,3.600000,89.350000C2.484125,88.257697,1.599852,86.951693,1,85.510000C0.313532,83.846089,-0.026722,82.059757,0,80.260000L0,79.680000C-0.024078,77.893431,0.316179,76.120696,1,74.470000C1.611517,73.018917,2.509419,71.706076,3.640000,70.610000C4.736149,69.557620,6.036184,68.740844,7.460000,68.210000C10.361254,67.121448,13.558746,67.121448,16.460000,68.210000C17.885470,68.737492,19.186153,69.554675,20.280000,70.610000C21.410581,71.706076,22.308483,73.018917,22.920000,74.470000C23.607910,76.119467,23.948331,77.893058,23.920000,79.680000ZM12,89C13.092436,89.011636,14.176445,88.807747,15.190000,88.400000C16.162396,88.007989,17.038942,87.411119,17.760000,86.650000C18.513518,85.853462,19.101534,84.915356,19.490000,83.890000C19.921790,82.732875,20.132112,81.504865,20.110000,80.270000L20.110000,79.690000C20.126999,78.484827,19.916660,77.287250,19.490000,76.160000C19.101534,75.134644,18.513518,74.196538,17.760000,73.400000C16.258197,71.825372,14.175971,70.936088,12,70.940000C9.825517,70.933480,7.743512,71.819055,6.240000,73.390000C5.489991,74.189248,4.902435,75.126620,4.510000,76.150000C4.088097,77.278550,3.877916,78.475225,3.890000,79.680000L3.890000,80.260000C3.873012,81.494471,4.083174,82.721542,4.510000,83.880000C4.902435,84.903380,5.489991,85.840752,6.240000,86.640000C6.962870,87.398987,7.838923,87.995522,8.810000,88.390000C9.823159,88.800163,10.906991,89.007416,12,89ZM30.580000,68.060000L37.920000,68.060000L37.920000,62C37.874396,61.004770,38.235364,60.033766,38.920000,59.310000C39.621604,58.597322,40.590619,58.212619,41.590000,58.250000L51,58.250000L51,61.710000L43,61.710000C42.140000,61.710000,41.700000,62.190000,41.700000,63.150000L41.700000,68.040000L51.600000,68.040000L51.600000,71.500000L41.660000,71.500000L41.660000,91.870000L37.920000,91.870000L37.920000,71.520000L30.580000,71.520000ZM88.750000,68.060000L96.240000,68.060000L96.240000,58.270000L100,58.270000L100,68.060000L109.220000,68.060000L109.220000,71.520000L100,71.520000L100,87C100,88,100.440000,88.440000,101.300000,88.440000L108.070000,88.440000L108.070000,91.890000L99.940000,91.890000C98.942748,91.926302,97.975384,91.545878,97.270000,90.840000C96.587351,90.114999,96.226707,89.144867,96.270000,88.150000L96.270000,71.520000L88.750000,71.520000ZM119.520000,88.420000L127.870000,88.420000L127.870000,71.520000L120.380000,71.520000L120.380000,68.060000L131.620000,68.060000L131.620000,88.420000L139.390000,88.420000L139.390000,91.870000L119.520000,91.870000ZM126.340000,61C126.328029,60.102156,126.690343,59.239849,127.340000,58.620000C128.653362,57.311190,130.778675,57.313650,132.089004,58.625497C133.399333,59.937343,133.399333,62.062657,132.089004,63.374503C130.778675,64.686350,128.653362,64.688810,127.340000,63.380000C126.690343,62.760151,126.328029,61.897844,126.340000,61ZM171.220000,91.910000L167.470000,91.910000L167.470000,74.780000C167.513829,73.795217,167.244241,72.821901,166.700000,72C166.123880,71.247686,165.204241,70.840633,164.260000,70.920000C163.266264,70.891381,162.315995,71.327691,161.690000,72.100000C160.944586,73.153067,160.590841,74.433626,160.690000,75.720000L160.690000,91.870000L157,91.870000L157,74.590000C157.014509,73.647596,156.695770,72.730338,156.100000,72C155.525048,71.328767,154.672900,70.959872,153.790000,71C152.750673,70.948590,151.753753,71.417068,151.130000,72.250000C150.463743,73.206091,150.133174,74.356051,150.190000,75.520000L150.190000,91.870000L146.450000,91.870000L146.450000,68.060000L150.190000,68.060000L150.190000,70.660000L150.770000,70.660000C151.092141,69.658078,151.730813,68.787800,152.590000,68.180000C153.435410,67.644750,154.419594,67.370013,155.420000,67.390000C156.450176,67.351319,157.461589,67.673132,158.280000,68.300000C159.028583,68.909099,159.572936,69.732608,159.840000,70.660000L160.420000,70.660000C161.303826,68.603269,163.363088,67.303311,165.600000,67.390000C167.171777,67.296979,168.700014,67.926686,169.750000,69.100000C170.771387,70.347741,171.295000,71.929266,171.220000,73.540000ZM180.430000,81.160000C180.425978,83.272863,181.214583,85.310388,182.640000,86.870000C184.172840,88.361897,186.265299,89.135671,188.400000,89C189.389925,89.016063,190.376923,88.888057,191.330000,88.620000C192.096395,88.393616,192.817266,88.034873,193.460000,87.560000C194.035245,87.136760,194.524059,86.607212,194.900000,86C195.272367,85.408507,195.571238,84.773826,195.790000,84.110000L199.340000,85.110000C198.705072,87.259446,197.402114,89.150837,195.620000,90.510000C193.480608,92.001037,190.903780,92.733251,188.300000,92.590000C186.697225,92.608241,185.106681,92.309164,183.620000,91.710000C182.248810,91.112501,181.016251,90.237452,180,89.140000C178.956354,88.010445,178.141348,86.689456,177.600000,85.250000C177.011216,83.649618,176.719765,81.955133,176.740000,80.250000L176.740000,79.100000C176.724925,77.506277,177.027479,75.925517,177.630000,74.450000C178.190344,73.054171,179.030996,71.788089,180.100000,70.730000C181.167168,69.677078,182.431208,68.844578,183.820000,68.280000C185.289296,67.680084,186.862998,67.377579,188.450000,67.390000C191.715417,67.308545,194.848139,68.682546,197,71.140000C198.658526,73.066747,199.598473,75.508489,199.660000,78.050000L199.660000,81.120000ZM188.430000,70.980000C187.407203,70.964809,186.390320,71.137679,185.430000,71.490000C184.549723,71.807613,183.735969,72.285693,183.030000,72.900000C182.354415,73.494034,181.792005,74.205517,181.370000,75C180.936384,75.830632,180.652063,76.730983,180.530000,77.660000L195.890000,77.660000C195.839182,76.690758,195.583568,75.743284,195.140000,74.880000C194.728819,74.070057,194.157240,73.352181,193.460000,72.770000C192.764002,72.182659,191.967981,71.725371,191.110000,71.420000C190.241927,71.101863,189.324533,70.939373,188.400000,70.940000Z" transform="matrix(1 0 0 1 600.17072191000000 403.70458429500002)" fill="rgb(255,255,255)" stroke="none" stroke-width="1"/></svg>