<?xml version="1.0" encoding="UTF-8"?>
<svg width="899px" height="1415px" viewBox="0 0 899 1415" version="1.1" xmlns="http://www.w3.org/2000/svg" xmlns:xlink="http://www.w3.org/1999/xlink">
    <!-- Generator: Sketch 49.3 (51167) - http://www.bohemiancoding.com/sketch -->
    <title>Mustache-3-B28E28</title>
    <desc>Created with Sketch.</desc>
    <defs></defs>
    <g id="Mustache-3-B28E28" stroke="none" stroke-width="1" fill="none" fill-rule="evenodd">
        <g id="avatar-mustache4-tone1" transform="translate(147.000000, 570.000000)">
            <path d="M381.8,230.1 L322.7,217.4 C317.9,216.4 312.6,218.1 307.9,221.9 C304.9,224.3 300.4,224.3 297.4,221.9 C292.7,218.1 287.4,216.4 282.6,217.4 L223.5,230.1 C186.7,238 156.5,263.4 138,302 L298,267.6 C299.7,267.2 301.2,266.5 302.6,265.6 C304,266.5 305.5,267.2 307.2,267.6 L467.3,302 C448.8,263.4 418.6,238 381.8,230.1 Z" id="Shape" stroke="#333333" stroke-width="14.716" fill="#B28E28" fill-rule="nonzero"></path>
            <rect id="Rectangle-path" x="0.7" y="0.5" width="603.7" height="241.5"></rect>
        </g>
    </g>
</svg>