<svg width="44" height="53" viewBox="0 0 44 53" fill="none" xmlns="http://www.w3.org/2000/svg">
<path d="M0.5 0.5H43.5V49C43.5 50.933 41.933 52.5 40 52.5H4C2.067 52.5 0.5 50.933 0.5 49V0.5Z" fill="#3E00FF" stroke="white"/>
<path d="M14.71 38.15V41.57C14.3833 41.73 13.99 41.8567 13.53 41.95C13.07 42.0433 12.6 42.09 12.12 42.09C11.3867 42.09 10.75 41.9433 10.21 41.65C9.67 41.3567 9.25667 40.9367 8.97 40.39C8.68333 39.8433 8.54 39.19 8.54 38.43C8.54 37.6833 8.68333 37.0367 8.97 36.49C9.25667 35.9433 9.66333 35.5233 10.19 35.23C10.7233 34.9367 11.3467 34.79 12.06 34.79C12.56 34.79 13.0267 34.8633 13.46 35.01C13.9 35.1567 14.2667 35.3633 14.56 35.63L14.12 36.57C13.7867 36.31 13.46 36.1233 13.14 36.01C12.82 35.8967 12.47 35.84 12.09 35.84C11.3567 35.84 10.8 36.06 10.42 36.5C10.0467 36.94 9.86 37.5833 9.86 38.43C9.86 39.3033 10.0533 39.9633 10.44 40.41C10.8267 40.85 11.4033 41.07 12.17 41.07C12.6367 41.07 13.0967 41.0067 13.55 40.88V39.08H12.01V38.15H14.71ZM18.7926 36.83C18.9859 36.83 19.1526 36.8567 19.2926 36.91L19.2826 38.05C19.0692 37.9633 18.8492 37.92 18.6226 37.92C18.1959 37.92 17.8692 38.0433 17.6426 38.29C17.4226 38.5367 17.3126 38.8633 17.3126 39.27V42H16.0726V38.38C16.0726 37.8467 16.0459 37.37 15.9926 36.95H17.1626L17.2626 37.84C17.3892 37.5133 17.5892 37.2633 17.8626 37.09C18.1359 36.9167 18.4459 36.83 18.7926 36.83ZM24.7209 36.95V42H23.4909V41.19C23.3376 41.47 23.1176 41.69 22.8309 41.85C22.5443 42.0033 22.2176 42.08 21.8509 42.08C21.4109 42.08 21.0209 41.9733 20.6809 41.76C20.3409 41.5467 20.0776 41.2433 19.8909 40.85C19.7043 40.4567 19.6109 40 19.6109 39.48C19.6109 38.96 19.7043 38.5 19.8909 38.1C20.0843 37.6933 20.3509 37.38 20.6909 37.16C21.0309 36.9333 21.4176 36.82 21.8509 36.82C22.2176 36.82 22.5443 36.9 22.8309 37.06C23.1176 37.2133 23.3376 37.43 23.4909 37.71V36.95H24.7209ZM22.1909 41.1C22.6043 41.1 22.9243 40.9567 23.1509 40.67C23.3776 40.3833 23.4909 39.98 23.4909 39.46C23.4909 38.9267 23.3776 38.5167 23.1509 38.23C22.9243 37.9433 22.6009 37.8 22.1809 37.8C21.7676 37.8 21.4443 37.95 21.2109 38.25C20.9843 38.5433 20.8709 38.9533 20.8709 39.48C20.8709 40 20.9843 40.4 21.2109 40.68C21.4443 40.96 21.7709 41.1 22.1909 41.1ZM28.9723 36.82C30.179 36.82 30.7823 37.5133 30.7823 38.9V42H29.5323V38.96C29.5323 38.56 29.4557 38.27 29.3023 38.09C29.149 37.9033 28.9123 37.81 28.5923 37.81C28.2123 37.81 27.9057 37.9333 27.6723 38.18C27.439 38.42 27.3223 38.74 27.3223 39.14V42H26.0823V38.38C26.0823 37.8467 26.0557 37.37 26.0023 36.95H27.1723L27.2623 37.78C27.4357 37.4733 27.669 37.2367 27.9623 37.07C28.2623 36.9033 28.599 36.82 28.9723 36.82ZM33.6977 37.89V40.15C33.6977 40.7433 33.9744 41.04 34.5277 41.04C34.6811 41.04 34.8477 41.0133 35.0277 40.96V41.95C34.8077 42.03 34.5411 42.07 34.2277 42.07C33.6544 42.07 33.2144 41.91 32.9077 41.59C32.6011 41.27 32.4477 40.81 32.4477 40.21V37.89H31.4777V36.95H32.4477V35.72L33.6977 35.3V36.95H35.0377V37.89H33.6977Z" fill="white"/>
<path d="M21.875 27.9998C21.5828 27.9998 21.3135 27.8443 21.1682 27.5907L16.6385 19.7247C16.4932 19.471 16.4932 19.1601 16.6385 18.9065C16.7838 18.6529 17.0531 18.4974 17.3453 18.4974H26.4064C26.6985 18.4974 26.9679 18.6529 27.1132 18.9065C27.2584 19.1601 27.2584 19.471 27.1132 19.7247L22.5834 27.5907C22.4365 27.8443 22.1672 27.9998 21.875 27.9998ZM18.7589 20.1338L21.875 25.5452L24.9911 20.1338H18.7589Z" fill="white"/>
<path d="M30.9362 28.0001H12.8158C12.5236 28.0001 12.2542 27.8447 12.109 27.591C11.9637 27.3374 11.9637 27.0265 12.109 26.7729L18.0327 16.4867C18.2579 16.0956 18.7574 15.9614 19.1476 16.1872C19.5377 16.4131 19.6715 16.9138 19.4463 17.3049L14.2294 26.3638H29.5226L24.2861 17.2721C24.0609 16.8811 24.1947 16.3803 24.5848 16.1545C24.975 15.9287 25.4745 16.0629 25.6997 16.454L31.643 26.7729C31.7883 27.0265 31.7883 27.3374 31.643 27.591C31.4978 27.8447 31.2284 28.0001 30.9362 28.0001Z" fill="white"/>
<path d="M19.9883 14.9042C19.8496 14.9042 19.7092 14.8682 19.5802 14.7945C19.1901 14.5687 19.0562 14.068 19.2815 13.6769L21.1652 10.4091C21.3105 10.1555 21.5798 10 21.872 10C22.1642 10 22.4335 10.1555 22.5788 10.4091L24.4495 13.6573C24.6747 14.0484 24.5409 14.5491 24.1507 14.7749C23.7606 15.0007 23.2611 14.8665 23.0359 14.4754L21.872 12.4545L20.6967 14.4951C20.5449 14.7585 20.2707 14.9042 19.9883 14.9042Z" fill="#0FCE7C"/>
</svg>
