<svg width="311" height="241" viewBox="0 0 311 241" fill="none" xmlns="http://www.w3.org/2000/svg">
<path d="M307.173 178.732C306.681 179.585 306.976 180.669 307.83 181.145C308.683 181.637 309.75 181.342 310.243 180.488C310.719 179.635 310.423 178.568 309.586 178.075C308.733 177.599 307.649 177.894 307.173 178.732Z" fill="#E2E0E7"/>
<path d="M262.576 199.383C262.28 199.925 262.198 200.549 262.362 201.14C262.527 201.73 262.904 202.223 263.446 202.535C263.79 202.732 264.184 202.83 264.578 202.83C264.775 202.83 264.989 202.814 265.186 202.748C265.777 202.584 266.269 202.207 266.581 201.665C267.205 200.565 266.827 199.17 265.727 198.529C265.186 198.234 264.562 198.152 263.971 198.316C263.38 198.48 262.888 198.858 262.576 199.383Z" fill="#E2E0E7"/>
<path d="M267.188 137.989C270.192 140.402 273.836 141.682 277.628 141.682C278.235 141.682 278.826 141.65 279.433 141.6C283.865 141.124 287.837 138.941 290.644 135.477C290.661 135.461 290.661 135.461 290.677 135.445C291.514 135.51 292.302 135.559 293.008 135.559H293.172C295.65 135.559 297.357 135.133 298.227 134.263C299.114 133.376 299.491 132.358 299.376 131.226C299.015 128.058 294.616 125.234 294.419 125.103L294.321 125.251C294.337 124.594 294.305 123.904 294.239 123.231C293.763 118.816 291.596 114.827 288.133 112.036C284.669 109.245 280.32 107.965 275.888 108.441C271.243 108.934 267.221 111.314 264.546 114.745C262.116 113.875 256.437 112.102 255.19 114.039C254.402 115.237 255.387 117.158 258.407 120.277C259.277 121.163 260.18 122.017 261.132 122.821C260.951 124.101 260.935 125.447 261.082 126.794C261.312 129.01 261.985 131.111 263.019 133.015C264.053 134.903 265.449 136.594 267.188 137.989Z" fill="#F3587D"/>
<path d="M247.409 209.824C246.769 210.94 247.163 212.335 248.263 212.976C248.624 213.173 249.018 213.271 249.395 213.271C250.2 213.271 250.971 212.861 251.398 212.122C252.038 211.006 251.644 209.61 250.544 208.97C250.019 208.675 249.395 208.593 248.804 208.757C248.197 208.905 247.705 209.299 247.409 209.824Z" fill="#E2E0E7"/>
<path d="M245.079 204.241C245.423 204.438 245.817 204.553 246.211 204.553C246.425 204.553 246.622 204.521 246.819 204.471C247.41 204.307 247.918 203.93 248.214 203.388C248.526 202.863 248.608 202.239 248.444 201.648C248.28 201.041 247.886 200.548 247.36 200.253C246.261 199.612 244.849 200.006 244.225 201.106C243.585 202.206 243.979 203.618 245.079 204.241Z" fill="#E2E0E7"/>
<path d="M241.796 236.958C241.501 237.499 241.419 238.107 241.583 238.698C241.747 239.305 242.124 239.798 242.666 240.093C243.011 240.306 243.405 240.405 243.799 240.405C243.996 240.405 244.209 240.372 244.406 240.323C244.997 240.159 245.489 239.781 245.801 239.239C246.425 238.14 246.047 236.728 244.948 236.104C244.586 235.891 244.193 235.792 243.799 235.792C243.602 235.792 243.388 235.825 243.191 235.874C242.6 236.038 242.108 236.432 241.796 236.958Z" fill="#E2E0E7"/>
<path d="M243.47 219.69C243.766 219.164 243.848 218.54 243.684 217.95C243.52 217.358 243.142 216.866 242.617 216.554C242.075 216.242 241.451 216.177 240.861 216.324C240.27 216.488 239.777 216.882 239.465 217.408C239.17 217.95 239.088 218.557 239.252 219.164C239.416 219.755 239.794 220.248 240.319 220.543C240.68 220.757 241.074 220.855 241.468 220.855C241.665 220.855 241.878 220.822 242.075 220.773C242.666 220.609 243.159 220.231 243.47 219.69Z" fill="#E2E0E7"/>
<path d="M231.455 77.7118C231.931 76.8746 231.636 75.7911 230.799 75.2986C229.945 74.8226 228.862 75.1181 228.386 75.9553C227.893 76.8088 228.189 77.8923 229.042 78.3684C229.896 78.8608 230.963 78.5653 231.455 77.7118Z" fill="#E2E0E7"/>
<path d="M175.039 86.6414C174.563 87.4949 174.842 88.5784 175.696 89.0544C176.549 89.5468 177.616 89.2514 178.109 88.3977C178.585 87.5606 178.289 86.4772 177.452 85.9847C176.599 85.5087 175.515 85.8042 175.039 86.6414Z" fill="#E2E0E7"/>
<path d="M177.009 51.7913C177.009 43.5343 170.296 36.8203 162.056 36.8203C153.8 36.8203 147.086 43.5343 147.086 51.7913C147.086 60.0319 153.8 66.7458 162.056 66.7458C170.296 66.7458 177.009 60.0319 177.009 51.7913Z" fill="#6F3FF5"/>
<path d="M137.172 24.5743C136.696 25.4278 136.992 26.4949 137.829 26.9874C138.682 27.4634 139.766 27.1679 140.242 26.3307C140.734 25.4771 140.439 24.3936 139.585 23.9176C138.748 23.4252 137.665 23.7206 137.172 24.5743Z" fill="#E2E0E7"/>
<path d="M124.353 235.875C123.877 236.713 124.156 237.796 125.01 238.288C125.864 238.764 126.93 238.469 127.423 237.632C127.899 236.778 127.603 235.695 126.766 235.219C125.913 234.726 124.829 235.022 124.353 235.875Z" fill="#E2E0E7"/>
<path d="M51.1785 191.176C51.1785 196.708 55.676 201.205 61.2075 201.205C66.7391 201.205 71.2529 196.708 71.2529 191.176C71.2529 185.643 66.7391 181.146 61.2075 181.146C55.676 181.146 51.1785 185.643 51.1785 191.176Z" fill="#02E2AC"/>
<path d="M41.0681 11.655C37.9822 16.0544 36.1932 21.4058 36.1932 27.1677C36.1932 42.1386 48.3724 54.3353 63.3585 54.3353C68.4523 54.3353 73.2057 52.8971 77.2835 50.4437C77.2889 50.4438 77.3062 50.4449 77.3104 50.4449L77.3109 50.4271C85.2015 45.6673 90.5073 37.0328 90.5073 27.1677C90.5073 12.1803 78.3281 0 63.3585 0C54.2979 0 46.255 4.44864 41.3308 11.2939L41.2322 11.2446C41.2159 11.2775 41.1502 11.4088 41.0681 11.655Z" fill="#FFCC00"/>
<path d="M0.0164185 70.7845C-0.213409 77.4492 1.95328 84.3438 5.81064 91.2711C5.81064 91.2875 5.81064 91.2875 5.81064 91.3039H5.84341C28.5113 131.899 109.712 173.693 113.717 175.762L113.947 175.318C114.094 175.417 114.291 175.483 114.505 175.515C114.57 175.532 114.636 175.532 114.702 175.532C115.736 175.532 116.885 174.547 118.313 172.462L131.231 179.833V179.849C129.721 186.333 131.198 188.172 131.51 188.484L131.641 188.582L143.032 195.083C142.622 197.759 141.457 214.765 173.431 233.035L176.156 234.595L174.219 232.133C173.989 231.837 168.803 224.975 175.22 213.468L197.544 226.223L196.641 224.401C196.624 224.368 196.263 223.58 196.132 221.84L214.516 232.346L215.172 231.312C215.025 231.197 213.268 229.884 212.218 227.339C213.268 227.454 214.352 227.339 215.386 227.027C216.256 229.227 217.815 231.066 219.85 232.215C222.559 233.758 225.727 233.988 228.648 232.871C229.272 233.807 230.093 234.579 231.045 235.12C232.128 235.744 233.343 236.072 234.574 236.072C235.214 236.072 235.838 235.99 236.478 235.81C238.316 235.301 239.843 234.119 240.795 232.461C241.747 230.803 241.993 228.866 241.484 227.027C240.992 225.189 239.794 223.646 238.136 222.694C237.249 222.185 236.264 221.889 235.214 221.807C234.771 218.655 232.9 215.881 230.142 214.289C229.83 213.156 229.288 212.122 228.566 211.236C229.929 211.564 231.39 211.4 232.801 210.776C233.179 211.383 233.687 211.859 234.262 212.188C234.935 212.565 235.657 212.746 236.396 212.746C238.218 212.746 240.105 211.662 241.172 209.791C242.682 207.148 242.042 203.914 239.744 202.601C239.186 202.289 238.595 202.125 237.939 202.076C237.742 199.876 236.626 198.005 234.902 196.954C234.738 196.215 234.459 195.542 234.065 194.968C234.508 195.231 234.82 195.362 234.869 195.378L235.181 194.722C236.363 195.362 237.643 195.674 238.956 195.674C239.679 195.674 240.401 195.575 241.123 195.378C243.897 196.954 247.246 197.135 250.184 195.92C250.791 196.79 251.546 197.479 252.432 197.988C253.549 198.629 254.763 198.924 255.961 198.924C258.456 198.924 260.869 197.627 262.199 195.329C263.134 193.671 263.381 191.734 262.888 189.895C262.379 188.057 261.181 186.514 259.523 185.562C258.588 185.02 257.504 184.708 256.372 184.659C255.863 181.573 254.041 178.946 251.333 177.403C249.314 176.238 246.934 175.827 244.603 176.189C244.324 175.023 243.799 173.94 243.027 173.004C245.982 172.512 248.165 173.431 248.214 173.464L248.772 172.364L230.388 161.858C231.964 161.086 232.834 160.988 232.85 160.988L234.82 160.824L212.546 148.102C219.259 136.676 228.025 137.743 228.123 137.76L231.258 138.187L228.501 136.611C196.46 118.307 182.41 128.042 180.358 129.733L168.835 123.15C168.425 123.019 166.078 122.69 161.236 127.303L148.318 119.916C149.467 117.487 149.697 115.944 149.024 115.09C148.892 114.909 148.728 114.795 148.564 114.712L148.827 114.286C144.378 111.446 39.1641 45.1271 0.705872 69.619L0.114899 70.0294L0.0164185 70.7845Z" fill="#E2E0E7"/>
<path d="M90.0069 101.863C100.383 101.863 108.794 110.275 108.794 120.652C108.794 125.843 106.688 130.543 103.285 133.943C103.272 133.787 103.229 133.628 103.112 133.481C102.628 132.87 97.0642 128.877 97.1306 128.589C97.228 128.169 101.665 127.776 102.525 127.201C105.925 124.925 106.806 119.64 105.087 116.143C104.981 115.928 104.824 115.815 104.654 115.763C103.013 112.448 98.1335 111.093 94.859 112.81C92.4842 114.054 91.659 117.425 90.1241 119.494C89.3753 120.504 88.9715 121.538 88.4754 122.639C87.9479 123.811 87.4142 124.253 86.4769 125.16C84.9903 126.597 84.3008 127.317 82.2974 126.138C81.0644 125.412 80.118 124.255 78.8522 123.59C77.4543 122.856 75.8696 122.73 74.7654 124.089C73.6066 125.515 74.2243 126.904 75.173 128.179C76.0157 129.312 77.4593 129.947 78.3527 130.996C79.83 132.731 78.9037 133.314 77.4335 134.584C73.6268 131.145 71.22 126.186 71.22 120.652C71.22 110.275 79.6312 101.863 90.0069 101.863Z" fill="#6F3FF5"/>
<path d="M175.606 212.7L144.452 195.369L144.548 202.639L150.823 214.308L163.099 225.833L173.838 232.717L171.896 225.439L173.114 217.811L175.593 212.939" fill="#02E2AC"/>
<path d="M212.151 148.813L181.422 130.739L187.737 127.137L200.975 126.632L217.132 131.374L228.508 137.142L221.251 139.157L215.294 144.074L212.35 148.68" fill="#02E2AC"/>
<path d="M157.774 160.439L165.11 159.148L169.113 160.451L188.875 178.726L166.77 172.74L162.11 170.752L159.423 167.796L156.034 160.677" fill="#02E2AC"/>
<path d="M132.629 180.465C132.629 180.465 136.091 159.752 161.958 128.546C187.825 97.3393 161.958 128.546 161.958 128.546L143.693 118.219C143.693 118.219 122.135 134.993 114.152 169.647" fill="#02E2AC"/>
<path d="M143.624 152.09L144.067 152.337L144.707 152.698V152.681C160.727 124.644 167.834 124.332 168.458 124.332L223.314 155.669L224.545 156.375L231.193 160.167C228.353 161.185 221.919 164.812 213.384 177.666L208.558 174.908L207.491 174.301L205.045 172.905C204.848 172.741 204.553 172.626 204.175 172.626C202.37 172.741 199.497 176.238 195.624 183.017L196.69 183.625C198.759 180.013 200.318 177.731 201.467 176.303C201.762 175.926 202.041 175.614 202.271 175.351C203.732 173.759 204.274 173.857 204.29 173.857L205.521 174.563L206.719 175.253L210.642 177.502C210.642 177.502 210.642 177.502 210.642 177.518L211.841 178.191L213.778 179.307L214.106 178.831C214.926 177.584 215.731 176.418 216.519 175.335C221.87 167.882 226.252 164.287 229.108 162.563C229.125 162.563 229.125 162.547 229.141 162.547C229.601 162.268 230.011 162.038 230.389 161.858C231.964 161.086 232.834 160.988 232.851 160.988L234.82 160.823L212.546 148.101L211.48 147.494L195.821 138.564L194.754 137.957L181.524 130.405L180.358 129.732L168.836 123.15C168.425 123.019 166.078 122.69 161.236 127.303C160.941 127.566 160.645 127.861 160.333 128.189C159.316 129.224 158.183 130.471 156.952 131.965C156.706 132.277 156.443 132.605 156.18 132.933C155.015 134.411 153.751 136.102 152.389 138.055C152.159 138.383 151.929 138.712 151.699 139.056C150.567 140.714 149.369 142.553 148.105 144.572C147.891 144.917 147.678 145.261 147.465 145.606C146.25 147.592 144.97 149.743 143.64 152.074C143.64 152.074 143.64 152.09 143.624 152.09Z" fill="#5932C4"/>
<path d="M113.158 174.087C113.175 174.169 113.191 174.268 113.207 174.35C113.306 174.662 113.536 175.072 113.946 175.318C114.094 175.417 114.291 175.482 114.504 175.515C114.57 175.532 114.636 175.532 114.701 175.532C115.735 175.532 116.884 174.547 118.312 172.462C118.46 172.248 118.608 172.019 118.755 171.789L117.721 171.132C117.557 171.395 117.393 171.641 117.245 171.855C115.588 174.251 114.816 174.284 114.668 174.3C114.488 174.284 114.406 174.038 114.406 174.038C114.176 172.856 114.127 171.543 114.225 170.131C114.258 169.688 114.291 169.244 114.357 168.785C114.504 167.652 114.718 166.454 115.013 165.239C115.111 164.829 115.21 164.418 115.341 164.008C115.867 161.972 116.572 159.904 117.327 157.868C117.492 157.475 117.639 157.081 117.787 156.703C118.641 154.569 119.56 152.501 120.413 150.662C120.594 150.285 120.774 149.907 120.939 149.546C122.892 145.524 124.517 142.733 124.55 142.651L124.582 142.602L125.19 141.535L125.814 140.435C125.863 140.37 127.094 138.186 129.08 135.117C129.293 134.788 129.507 134.444 129.753 134.082C130.853 132.441 132.133 130.586 133.545 128.698C133.791 128.37 134.037 128.042 134.3 127.713C135.596 126.022 136.992 124.348 138.436 122.789C138.731 122.477 139.01 122.165 139.322 121.869C140.57 120.572 141.867 119.374 143.163 118.373C143.524 118.094 143.885 117.831 144.247 117.585C145.428 116.78 146.61 116.14 147.759 115.73C147.743 115.73 147.956 115.713 148.055 115.845C148.137 115.96 148.481 116.649 147.25 119.308C147.135 119.538 147.02 119.801 146.873 120.08L147.973 120.638C148.104 120.392 148.219 120.146 148.317 119.916C149.466 117.486 149.696 115.943 149.023 115.09C148.892 114.909 148.728 114.794 148.563 114.712C148.153 114.466 147.71 114.466 147.447 114.532C147.332 114.564 147.234 114.614 147.119 114.663C136.712 118.619 125.239 138.958 124.747 139.828L123.483 142.028C122.974 142.898 111.254 163.204 113.158 174.087Z" fill="#5932C4"/>
<path d="M0.0164032 70.7845C-0.213409 77.4492 1.95326 84.3438 5.81062 91.2711C5.82706 91.2875 5.82706 91.3039 5.84338 91.3039C28.5113 131.899 109.712 173.693 113.717 175.762L113.947 175.318L114.291 174.662C114.226 174.629 113.848 174.432 113.159 174.087C105.772 170.197 63.9493 147.74 33.5833 121.131C33.2222 120.819 32.861 120.491 32.5 120.179C27.0176 115.303 21.9293 110.297 17.5139 105.257C17.1692 104.863 16.8244 104.453 16.4962 104.059C12.7866 99.7087 9.60228 95.3257 7.12373 90.9756C6.81186 90.434 6.5 89.8758 6.20456 89.3176C2.87244 83.047 1.03407 76.8419 1.24747 70.883L1.2639 70.7354L1.39523 70.6532C6.46713 67.4194 12.8031 65.8435 19.976 65.548C20.5505 65.5316 21.1413 65.5151 21.7323 65.5151C26.7386 65.4331 32.1552 65.9584 37.8017 66.9597C38.2941 67.0419 38.7865 67.1239 39.279 67.2224C45.8938 68.4536 52.8206 70.3085 59.8294 72.5739C60.2562 72.7216 60.6994 72.8529 61.1262 73.0007C99.5022 85.657 140.111 110.313 147.12 114.663C147.76 115.057 148.121 115.287 148.17 115.32L148.564 114.712L148.827 114.286C144.378 111.446 39.1641 45.1271 0.705872 69.619L0.114883 70.0294L0.0164032 70.7845Z" fill="#5932C4"/>
<path d="M142.95 118.258L143.164 118.373L160.333 128.19L160.989 128.567L161.597 127.5L161.236 127.303L148.318 119.916L147.251 119.309L144.247 117.585L143.558 117.191L142.95 118.258Z" fill="#5932C4"/>
<path d="M200.975 176.024L201.467 176.303L205.144 178.404L206.047 178.913L209.05 180.637L209.953 181.146L212.941 182.853L213.86 183.378L216.847 185.085L217.766 185.611L220.754 187.318L221.656 187.843L224.66 189.55L225.547 190.059L228.567 191.783L229.453 192.292L230.307 192.784L233.589 194.656C233.77 194.77 233.918 194.885 234.066 194.967C234.509 195.23 234.82 195.361 234.87 195.378L235.182 194.721L235.395 194.278L234.295 193.638C233.442 193.047 232.276 191.963 231.685 190.24C230.766 187.613 231.423 184.33 233.622 180.489C236.61 175.252 240.188 173.463 243.028 173.004C245.982 172.511 248.165 173.43 248.214 173.463L248.772 172.363L230.389 161.857L229.535 161.365L228.928 162.432L229.141 162.547V162.563C229.158 162.547 229.158 162.563 229.158 162.563L230.914 163.565L232.539 164.5L234.525 165.633L236.134 166.552L238.103 167.685L239.696 168.588L241.682 169.737L245.03 171.641C241.665 171.543 236.577 172.839 232.539 179.882C230.159 184.051 229.486 187.679 230.52 190.667C230.668 191.061 230.815 191.422 230.996 191.766L228.698 190.453L226.564 189.222L225.12 188.401L222.986 187.187L221.542 186.366L219.408 185.135L217.963 184.314L215.715 183.033L212.415 181.146L210.807 180.226L207.278 178.207L205.685 177.304L202.271 175.351L201.582 174.957L200.975 176.024Z" fill="#5932C4"/>
<path d="M180.112 129.946L180.949 130.832C180.966 130.816 181.146 130.652 181.524 130.405C183.739 128.846 192.669 123.954 210.347 129.699C211.463 130.061 212.612 130.471 213.794 130.931C217.487 132.326 221.508 134.181 225.907 136.578C222.624 136.971 216.502 138.925 211.479 147.494C211.414 147.609 211.348 147.724 211.282 147.839L212.349 148.446C212.415 148.331 212.481 148.216 212.546 148.101C219.26 136.676 228.025 137.743 228.123 137.759L231.258 138.186L228.501 136.61C196.46 118.307 182.41 128.041 180.358 129.732C180.227 129.831 180.145 129.913 180.112 129.946Z" fill="#5932C4"/>
<path d="M195.513 139.069C200.777 129.853 213.668 130.922 213.801 130.929L213.914 129.704C213.35 129.643 200.098 128.561 194.443 138.46L195.513 139.069Z" fill="#5932C4"/>
<path d="M208.308 175.32C216.66 160.697 224.513 156.377 224.59 156.335L224.012 155.248C223.681 155.425 215.791 159.737 207.239 174.711L208.308 175.32Z" fill="#5932C4"/>
<path d="M228.007 191.44L228.714 190.434C228.682 190.41 225.004 187.532 230.368 178.14C235.804 168.622 241.447 169.707 241.684 169.757L241.953 168.556C241.681 168.491 235.221 167.16 229.299 177.53C223.325 187.989 227.813 191.306 228.007 191.44Z" fill="#5932C4"/>
<path d="M224.429 189.396L225.136 188.389C225.104 188.365 221.426 185.487 226.79 176.096C232.227 166.579 237.87 167.664 238.106 167.714L238.375 166.513C238.102 166.446 231.643 165.117 225.721 175.487C219.747 185.944 224.235 189.261 224.429 189.396Z" fill="#5932C4"/>
<path d="M220.85 187.352L221.556 186.346C221.525 186.322 217.847 183.444 223.211 174.052C228.649 164.533 234.29 165.623 234.527 165.671L234.796 164.47C234.526 164.401 228.066 163.067 222.141 173.443C216.168 183.901 220.656 187.218 220.85 187.352Z" fill="#5932C4"/>
<path d="M217.273 185.311L217.975 184.298C217.939 184.272 213.972 181.244 219.59 172.079C225.334 162.711 230.824 163.732 230.884 163.742L231.149 162.539C230.894 162.485 224.787 161.246 218.54 171.435C212.266 181.67 217.066 185.167 217.273 185.311Z" fill="#5932C4"/>
<path d="M211.412 181.897L212.502 181.327C211.509 179.43 211.899 177.402 211.903 177.382L210.696 177.141C210.676 177.241 210.219 179.619 211.412 181.897Z" fill="#5932C4"/>
<path d="M206.289 178.971L207.379 178.4C206.386 176.505 206.775 174.476 206.779 174.455L205.572 174.215C205.552 174.314 205.095 176.695 206.289 178.971Z" fill="#5932C4"/>
<path d="M131.51 188.482L131.641 188.581L143.032 195.082L144.214 195.755L157.428 203.306L158.494 203.929L174.154 212.859L175.22 213.467L197.544 226.222L196.641 224.4C196.624 224.367 196.263 223.579 196.132 221.839C196.099 221.412 196.083 220.936 196.083 220.394C196.083 220.378 196.083 220.378 196.083 220.378C196.099 217.046 196.969 211.497 200.646 203.125C201.171 201.878 201.795 200.564 202.468 199.185L202.73 198.677L200.777 197.56L199.595 196.887L195.656 194.622L194.458 193.949L193.489 193.391C193.424 193.112 193.292 192.34 193.621 190.846C193.703 190.485 193.801 190.075 193.949 189.615C194.409 188.138 195.229 186.168 196.69 183.623L195.623 183.016C190.978 191.142 192.291 193.85 192.472 194.129L192.554 194.277L195.213 195.804L196.28 196.411L201.105 199.169C194.376 213.04 194.507 220.427 195.082 223.398L188.434 219.606L187.219 218.9L132.347 187.563C132.002 187.038 128.686 180.734 144.707 152.697V152.68L144.083 152.319L143.64 152.073C143.64 152.073 143.64 152.089 143.623 152.089C143.426 152.45 143.229 152.795 143.032 153.14C141.637 155.602 140.406 157.9 139.29 160.034C139.093 160.412 138.912 160.773 138.732 161.134C137.649 163.268 136.697 165.222 135.859 167.027C135.695 167.421 135.531 167.799 135.367 168.16C134.399 170.36 133.594 172.33 132.971 174.086C132.823 174.496 132.675 174.89 132.56 175.268C132.133 176.483 131.805 177.599 131.543 178.6C131.428 179.027 131.313 179.438 131.231 179.831V179.848C129.721 186.332 131.198 188.171 131.51 188.482Z" fill="#5932C4"/>
<path d="M113.553 169.738L114.226 170.131L117.246 171.855L118.313 172.462L131.231 179.833V179.849L131.592 180.046L132.199 178.979L131.543 178.602L114.357 168.785L114.16 168.67L113.553 169.738Z" fill="#5932C4"/>
<path d="M220.982 206.475L222.197 207.181C221.803 207.197 221.409 207.247 220.999 207.329C219.259 207.673 217.634 208.593 216.107 210.087C216.058 210.119 216.025 210.152 215.993 210.201C215.911 210.267 215.828 210.349 215.763 210.431C215.566 210.612 215.385 210.825 215.205 211.039C215.123 211.137 215.041 211.236 214.958 211.334C214.187 212.253 213.448 213.32 212.743 214.552C209.739 219.821 209.804 223.958 210.789 226.912C210.806 226.995 210.822 227.06 210.871 227.142C211.167 228.045 211.577 228.817 211.988 229.49L208.639 227.586L206.637 226.436L205.077 225.534L203.058 224.384L201.499 223.482L199.48 222.333L197.888 221.43L196.082 220.396L195.885 220.281L195.278 221.348L196.132 221.84L214.515 232.346L215.172 231.312C215.024 231.197 213.268 229.884 212.217 227.339C211.085 224.647 210.707 220.593 213.826 215.159C214.712 213.599 215.648 212.335 216.6 211.318C216.797 211.104 217.01 210.907 217.224 210.727C218.504 209.545 219.834 208.823 221.245 208.527C222.755 208.232 224.085 208.511 225.02 208.872C225.168 208.921 225.316 208.97 225.447 209.036L226.596 209.693L226.678 209.578L226.957 209.151L227.269 208.675C227.22 208.642 226.76 208.281 226.005 207.936L225.808 207.821L222.969 206.212L222.197 205.769L221.934 205.622L220.999 205.08L220.72 204.916L218.044 203.389L216.83 202.683L214.138 201.156L212.923 200.451L210.231 198.924L209.017 198.235L206.325 196.692L205.11 196.002L202.418 194.459L201.203 193.77L198.512 192.226L197.297 191.537L193.948 189.616L193.39 189.305L192.783 190.372L193.62 190.848L196.887 192.719L198.512 193.638L201.991 195.641L203.633 196.56L206.899 198.448L209.148 199.728L210.609 200.566L212.743 201.78L214.171 202.601L216.337 203.832L217.765 204.653L219.899 205.868L220.982 206.475Z" fill="#5932C4"/>
<path d="M173.432 233.035L176.156 234.595L174.219 232.132C173.99 231.837 168.803 224.975 175.221 213.468C175.286 213.353 175.352 213.238 175.418 213.123L174.334 212.516C174.269 212.631 174.203 212.745 174.154 212.86C169.312 221.528 170.74 227.782 172.086 230.835C167.785 228.275 164.141 225.73 161.055 223.284C160.07 222.48 159.151 221.708 158.281 220.937C144.362 208.674 144.001 198.497 144.215 195.755C144.247 195.296 144.297 195.033 144.297 195.017L143.098 194.738C143.082 194.787 143.066 194.902 143.033 195.082C142.622 197.758 141.457 214.765 173.432 233.035Z" fill="#5932C4"/>
<path d="M160.065 223.984L161.064 223.266C160.988 223.16 153.528 212.58 158.785 203.375L157.715 202.766C152.063 212.663 159.735 223.527 160.065 223.984Z" fill="#5932C4"/>
<path d="M187.198 219.707L188.428 219.654C188.424 219.564 188.157 210.606 196.509 195.982L195.44 195.372C186.889 210.345 187.181 219.332 187.198 219.707Z" fill="#5932C4"/>
<path d="M207.773 228.402L208.668 227.556L208.221 227.979L208.671 227.559C208.507 227.381 204.705 223.072 210.143 213.553C215.504 204.165 219.853 205.872 219.896 205.887L220.399 204.761C220.184 204.667 215.047 202.483 209.073 212.944C203.151 223.312 207.582 228.198 207.773 228.402Z" fill="#5932C4"/>
<path d="M204.194 226.358L205.09 225.511L204.642 225.934L205.093 225.514C204.928 225.336 201.127 221.026 206.563 211.508C211.926 202.121 216.275 203.825 216.317 203.842L216.82 202.717C216.606 202.623 211.469 200.438 205.494 210.899C199.572 221.266 204.003 226.154 204.194 226.358Z" fill="#5932C4"/>
<path d="M200.616 224.315L201.515 223.471C201.35 223.293 197.549 218.983 202.985 209.464C208.351 200.074 212.699 201.78 212.739 201.799L213.242 200.674C213.027 200.579 207.889 198.398 201.916 208.855C195.994 219.223 200.425 224.111 200.616 224.315Z" fill="#5932C4"/>
<path d="M197.103 222.152L198.001 221.309L197.552 221.73L198.004 221.312C197.966 221.272 194.294 217.057 199.447 207.349C204.536 197.759 209.105 199.728 209.151 199.75L209.666 198.631C209.437 198.526 203.988 196.166 198.36 206.772C192.758 217.328 196.923 221.959 197.103 222.152Z" fill="#5932C4"/>
<path d="M200.107 198.033C200.123 198.018 201.691 196.651 203.812 196.545L203.749 195.314C201.182 195.444 199.364 197.045 199.288 197.114L200.107 198.033Z" fill="#5932C4"/>
<path d="M194.984 195.106C194.999 195.091 196.566 193.724 198.688 193.618L198.626 192.387C196.058 192.517 194.24 194.118 194.164 194.187L194.984 195.106Z" fill="#5932C4"/>
<path d="M33.5345 121.375C37.6765 95.8157 61.0329 73.0729 61.2686 72.8468L60.4142 71.9587C60.1762 72.1896 36.528 95.2098 32.3195 121.18L33.5345 121.375Z" fill="#5932C4"/>
<path d="M17.4764 105.459C20.7496 85.2631 39.2146 67.2782 39.4014 67.1002L38.547 66.2121C38.3579 66.3949 19.6011 84.6555 16.2613 105.263L17.4764 105.459Z" fill="#5932C4"/>
<path d="M5.81061 91.27C5.81061 91.2865 5.81061 91.2865 5.81061 91.3029H5.84337L7.02524 91.4999C7.0581 91.3193 7.09086 91.1552 7.12372 90.9746C9.35602 78.5973 19.7462 67.5333 21.7323 65.5141C21.9293 65.3171 22.0442 65.2023 22.0605 65.1859L21.2071 64.2994C21.1249 64.3815 20.6818 64.8247 19.976 65.547C16.8737 68.8465 8.71585 78.3183 6.20454 89.3166C6.05677 89.9568 5.92553 90.6135 5.81061 91.27Z" fill="#5932C4"/>
<path d="M138.842 121.607L157.411 132.231L156.8 133.298L138.231 122.675L138.842 121.607Z" fill="#5932C4"/>
<path d="M133.667 127.343L152.831 138.307L152.22 139.374L133.056 128.41L133.667 127.343Z" fill="#5932C4"/>
<path d="M129.386 133.866L148.549 144.83L147.939 145.898L128.775 134.934L129.386 133.866Z" fill="#5932C4"/>
<path d="M114.804 163.696L133.373 174.319L132.762 175.387L114.193 164.763L114.804 163.696Z" fill="#5932C4"/>
<path d="M117.114 156.323L136.278 167.288L135.668 168.355L116.503 157.391L117.114 156.323Z" fill="#5932C4"/>
<path d="M120.558 149.322L139.722 160.286L139.111 161.354L119.947 150.39L120.558 149.322Z" fill="#5932C4"/>
<path d="M124.918 141.363L144.083 152.328L143.472 153.395L124.308 142.43L124.918 141.363Z" fill="#5932C4"/>
<path d="M73.4033 110.657C78.705 101.366 90.5724 98.1323 99.8628 103.434C109.153 108.753 112.403 120.622 107.101 129.913C106.182 131.521 105.066 132.966 103.769 134.214C103.671 134.312 103.589 134.394 103.49 134.476C101.209 136.61 98.4348 138.17 95.3489 139.007C93.6582 139.467 91.9347 139.696 90.2113 139.696C86.8793 139.696 83.5964 138.826 80.6254 137.136C76.1279 134.558 72.8944 130.389 71.532 125.398C70.1696 120.392 70.8262 115.155 73.4033 110.657ZM72.7139 125.07C73.2555 127.04 74.0926 128.879 75.2252 130.52C75.4222 130.832 75.6355 131.127 75.8654 131.423C75.8982 131.472 75.9474 131.521 75.9803 131.571C76.604 132.342 77.2934 133.081 78.032 133.738C78.3275 134.017 78.6394 134.279 78.9677 134.542C79.6735 135.1 80.4284 135.609 81.2328 136.069C85.1557 138.301 89.6696 138.991 94.0685 138.055C94.3969 137.989 94.7087 137.907 95.037 137.825C95.234 137.776 95.4474 137.71 95.6443 137.644C98.2049 136.857 100.503 135.527 102.44 133.754C102.752 133.491 103.047 133.196 103.343 132.9C104.36 131.833 105.263 130.619 106.018 129.305C110.991 120.605 107.955 109.475 99.2555 104.501C96.4322 102.893 93.33 102.121 90.2769 102.121C83.9575 102.121 77.8186 105.404 74.4701 111.265C74.4538 111.281 74.4538 111.314 74.4374 111.33C74.2075 111.724 74.0106 112.118 73.8136 112.529C71.9588 116.452 71.5649 120.851 72.7139 125.07Z" fill="#5932C4"/>
<path d="M66.9361 106.964C70.498 100.742 76.2593 96.2774 83.1861 94.3896C90.0964 92.5017 97.3351 93.421 103.556 96.9832C109.793 100.529 114.258 106.307 116.146 113.218C118.033 120.129 117.114 127.368 113.552 133.606C108.612 142.257 99.5345 147.133 90.1949 147.133C85.6974 147.133 81.1179 145.983 76.9323 143.603C64.0801 136.249 59.599 119.834 66.9361 106.964ZM77.5397 142.536C89.8174 149.529 105.476 145.245 112.485 132.982C115.883 127.056 116.753 120.145 114.947 113.546C113.158 106.947 108.891 101.432 102.949 98.0502C99.0257 95.8013 94.6923 94.6522 90.2934 94.6522C88.0282 94.6522 85.7467 94.9641 83.4979 95.5715C76.8995 97.3772 71.4007 101.645 68.0031 107.588C65.7215 111.577 64.6381 115.943 64.6381 120.244C64.6381 129.141 69.2669 137.809 77.5397 142.536Z" fill="#5932C4"/>
<path d="M64.7171 82.1172C63.7416 82.1172 62.9508 81.3263 62.9508 80.3507C62.9508 79.3751 63.7416 78.5842 64.7171 78.5842C65.6926 78.5842 66.4834 79.3751 66.4834 80.3507C66.4834 81.3263 65.6926 82.1172 64.7171 82.1172Z" fill="#5932C4"/>
<path d="M55.3582 95.2646C54.3827 95.2646 53.5919 94.4738 53.5919 93.4982C53.5919 92.5226 54.3827 91.7318 55.3582 91.7318C56.3337 91.7318 57.1245 92.5226 57.1245 93.4982C57.1245 94.4738 56.3337 95.2646 55.3582 95.2646Z" fill="#5932C4"/>
<path d="M135.48 116.868C134.504 116.868 133.714 116.077 133.714 115.102C133.714 114.126 134.504 113.335 135.48 113.335C136.455 113.335 137.246 114.126 137.246 115.102C137.246 116.077 136.455 116.868 135.48 116.868Z" fill="#5932C4"/>
<path d="M126.26 127.506C125.285 127.506 124.494 126.715 124.494 125.74C124.494 124.764 125.285 123.973 126.26 123.973C127.236 123.973 128.026 124.764 128.026 125.74C128.026 126.715 127.236 127.506 126.26 127.506Z" fill="#5932C4"/>
<path d="M108.401 164.279C107.426 164.279 106.635 163.488 106.635 162.512C106.635 161.537 107.426 160.746 108.401 160.746C109.377 160.746 110.167 161.537 110.167 162.512C110.167 163.488 109.377 164.279 108.401 164.279Z" fill="#5932C4"/>
<path d="M112.88 150.932C111.905 150.932 111.114 150.141 111.114 149.165C111.114 148.19 111.905 147.399 112.88 147.399C113.856 147.399 114.646 148.19 114.646 149.165C114.646 150.141 113.856 150.932 112.88 150.932Z" fill="#5932C4"/>
<path d="M118.804 140.075C117.829 140.075 117.038 139.284 117.038 138.309C117.038 137.333 117.829 136.542 118.804 136.542C119.78 136.542 120.57 137.333 120.57 138.309C120.57 139.284 119.78 140.075 118.804 140.075Z" fill="#5932C4"/>
<path d="M166.246 134.444C165.271 134.444 164.48 133.653 164.48 132.677C164.48 131.702 165.271 130.911 166.246 130.911C167.222 130.911 168.013 131.702 168.013 132.677C168.013 133.653 167.222 134.444 166.246 134.444Z" fill="#5932C4"/>
<path d="M157.028 145.081C156.052 145.081 155.261 144.291 155.261 143.315C155.261 142.339 156.052 141.548 157.028 141.548C158.003 141.548 158.794 142.339 158.794 143.315C158.794 144.291 158.003 145.081 157.028 145.081Z" fill="#5932C4"/>
<path d="M137.31 185.107C136.335 185.107 135.544 184.317 135.544 183.341C135.544 182.365 136.335 181.574 137.31 181.574C138.286 181.574 139.077 182.365 139.077 183.341C139.077 184.317 138.286 185.107 137.31 185.107Z" fill="#5932C4"/>
<path d="M125.01 238.288C125.864 238.764 126.93 238.469 127.423 237.632C127.899 236.778 127.603 235.695 126.766 235.219C125.913 234.726 124.829 235.022 124.353 235.875C123.877 236.713 124.156 237.796 125.01 238.288Z" fill="#5932C4"/>
<path d="M307.83 181.145C308.683 181.637 309.75 181.342 310.243 180.488C310.719 179.635 310.423 178.568 309.586 178.075C308.733 177.599 307.649 177.894 307.173 178.732C306.681 179.585 306.976 180.669 307.83 181.145Z" fill="#5932C4"/>
<path d="M229.042 78.3684C229.895 78.8608 230.962 78.5653 231.455 77.7118C231.931 76.8746 231.635 75.7911 230.798 75.2986C229.944 74.8226 228.861 75.1181 228.385 75.9553C227.893 76.8088 228.188 77.8923 229.042 78.3684Z" fill="#5932C4"/>
<path d="M175.697 89.0544C176.55 89.5468 177.617 89.2514 178.109 88.3977C178.585 87.5606 178.29 86.4772 177.453 85.9847C176.599 85.5087 175.516 85.8042 175.04 86.6414C174.564 87.4949 174.843 88.5784 175.697 89.0544Z" fill="#5932C4"/>
<path d="M137.829 26.9874C138.682 27.4634 139.766 27.1679 140.242 26.3307C140.734 25.4771 140.439 24.3936 139.585 23.9176C138.748 23.4252 137.665 23.7206 137.172 24.5743C136.696 25.4278 136.992 26.4949 137.829 26.9874Z" fill="#5932C4"/>
<path d="M143.648 168.508C142.672 168.508 141.881 167.717 141.881 166.742C141.881 165.766 142.672 164.975 143.648 164.975C144.623 164.975 145.414 165.766 145.414 166.742C145.414 167.717 144.623 168.508 143.648 168.508Z" fill="#5932C4"/>
<path d="M149.571 157.651C148.596 157.651 147.805 156.86 147.805 155.885C147.805 154.909 148.596 154.118 149.571 154.118C150.547 154.118 151.337 154.909 151.337 155.885C151.337 156.86 150.547 157.651 149.571 157.651Z" fill="#5932C4"/>
<path d="M40.9832 123.669C40.0077 123.669 39.2169 122.878 39.2169 121.903C39.2169 120.927 40.0077 120.136 40.9832 120.136C41.9587 120.136 42.7495 120.927 42.7495 121.903C42.7495 122.878 41.9587 123.669 40.9832 123.669Z" fill="#5932C4"/>
<path d="M47.0755 109.766C46.1 109.766 45.3092 108.975 45.3092 108C45.3092 107.024 46.1 106.233 47.0755 106.233C48.051 106.233 48.8418 107.024 48.8418 108C48.8418 108.975 48.051 109.766 47.0755 109.766Z" fill="#5932C4"/>
<path d="M162.22 158.361C165.224 157.753 168.327 158.689 170.477 160.84L191.996 181.195L162.893 171.624C160.546 170.722 158.642 168.867 157.69 166.536L154.965 159.822L162.22 158.361ZM158.839 166.06C159.66 168.095 161.301 169.704 163.32 170.475L187.153 178.306L169.623 161.726C168.13 160.232 166.111 159.411 164.042 159.411C163.517 159.411 162.992 159.461 162.467 159.576L156.656 160.741L158.839 166.06Z" fill="#5932C4"/>
<path d="M230.732 184.248C230.716 184.035 230.798 183.871 230.897 183.739L230.979 183.559C232.998 178.486 236.789 174.612 241.943 172.38L242.354 172.199L242.649 172.528C242.797 172.675 242.928 172.839 243.027 173.004C243.798 173.939 244.323 175.023 244.602 176.188C246.933 175.827 249.313 176.237 251.332 177.403C254.04 178.946 255.862 181.572 256.371 184.659C257.504 184.708 258.587 185.02 259.523 185.561C261.181 186.514 262.379 188.057 262.888 189.895C263.38 191.734 263.134 193.671 262.198 195.329C260.869 197.627 258.456 198.924 255.961 198.924C254.763 198.924 253.548 198.628 252.432 197.988C251.546 197.479 250.791 196.79 250.183 195.92C247.245 197.135 243.897 196.954 241.123 195.378C240.4 195.575 239.678 195.673 238.956 195.673C237.643 195.673 236.362 195.362 235.181 194.721C235.099 194.689 235 194.639 234.918 194.59C231.044 192.374 229.239 187.876 230.732 184.248ZM241.057 194.13L241.303 194.048L241.533 194.18C241.599 194.212 241.631 194.245 241.697 194.295C244.274 195.772 247.442 195.887 250.15 194.59L250.643 194.344L250.938 194.82C251.48 195.723 252.186 196.429 253.039 196.921C255.879 198.546 259.506 197.545 261.115 194.721C261.903 193.343 262.116 191.75 261.69 190.224C261.279 188.697 260.294 187.416 258.916 186.629C258.046 186.136 257.061 185.873 256.01 185.873H255.862L255.288 185.89L255.239 185.332C254.894 182.41 253.253 179.898 250.725 178.47C248.788 177.354 246.49 177.009 244.258 177.518L243.618 177.649L243.503 177.009C243.306 175.778 242.797 174.645 242.025 173.693C237.446 175.778 234.065 179.274 232.193 183.821V183.838C232.21 184.018 232.144 184.166 232.062 184.281L231.947 184.544C230.388 187.991 232.538 191.816 235.525 193.523C237.2 194.475 239.169 194.689 241.057 194.13Z" fill="#5932C4"/>
<path d="M262.576 199.383C262.888 198.858 263.38 198.48 263.971 198.316C264.562 198.152 265.186 198.234 265.727 198.529C266.827 199.17 267.205 200.565 266.581 201.665C266.269 202.207 265.777 202.584 265.186 202.748C264.989 202.814 264.775 202.83 264.578 202.83C264.184 202.83 263.79 202.732 263.446 202.535C262.904 202.223 262.527 201.73 262.362 201.14C262.198 200.549 262.28 199.925 262.576 199.383ZM263.544 200.811C263.626 201.09 263.807 201.32 264.053 201.468C264.299 201.599 264.578 201.632 264.857 201.566C265.136 201.484 265.366 201.304 265.514 201.057C265.645 200.811 265.694 200.532 265.612 200.253C265.53 199.974 265.366 199.744 265.104 199.596C264.956 199.514 264.759 199.465 264.578 199.465C264.48 199.465 264.398 199.465 264.299 199.498C264.02 199.58 263.79 199.744 263.659 200.007C263.511 200.253 263.479 200.532 263.544 200.811Z" fill="#5932C4"/>
<path d="M214.812 211.547L214.927 211.4C214.927 211.383 214.943 211.35 214.959 211.334C215.041 211.235 215.123 211.137 215.206 211.038C215.238 211.022 215.255 211.006 215.288 210.989C215.435 210.792 215.583 210.612 215.764 210.431C215.829 210.349 215.911 210.267 215.993 210.201C216.026 210.152 216.059 210.119 216.108 210.086C217.536 208.757 219.506 208.051 221.558 208.051C222.658 208.051 223.79 208.248 224.89 208.658C225.366 208.839 225.842 209.069 226.301 209.331C226.433 209.413 226.564 209.479 226.679 209.577C227.401 210.021 228.041 210.595 228.567 211.235C229.289 212.122 229.831 213.156 230.142 214.289C232.9 215.881 234.771 218.655 235.214 221.807C236.265 221.889 237.25 222.185 238.136 222.693C239.794 223.646 240.992 225.189 241.484 227.027C241.993 228.866 241.747 230.803 240.795 232.461C239.843 234.119 238.317 235.301 236.478 235.809C235.838 235.99 235.214 236.072 234.574 236.072C233.343 236.072 232.129 235.744 231.045 235.12C230.093 234.578 229.273 233.807 228.649 232.871C225.727 233.987 222.559 233.758 219.851 232.214C217.815 231.065 216.256 229.227 215.386 227.027C214.352 227.339 213.269 227.454 212.218 227.339C211.89 227.323 211.562 227.273 211.233 227.208L210.872 227.142L210.807 227.126L210.79 226.912L210.757 226.682C210.052 221.101 211.463 215.865 214.812 211.547ZM215.534 225.665L216.141 225.435L216.338 226.059C217.06 228.226 218.521 230.031 220.458 231.147C222.969 232.592 225.973 232.723 228.665 231.541L229.174 231.312L229.437 231.804C229.995 232.773 230.733 233.528 231.652 234.053C234.492 235.678 238.103 234.677 239.728 231.853C240.516 230.474 240.713 228.882 240.303 227.355C239.876 225.829 238.891 224.548 237.529 223.76C236.675 223.284 235.707 223.022 234.656 223.022H234.098L234.049 222.464C233.786 219.476 232.079 216.8 229.486 215.323L229.092 215.126L229.026 214.863C228.567 212.943 227.385 211.367 225.694 210.398C223.15 208.937 219.572 208.806 217.225 210.727C217.011 210.907 216.798 211.104 216.601 211.317C216.437 211.498 216.289 211.695 216.141 211.892L215.993 212.122C215.928 212.237 215.829 212.368 215.682 212.45L215.665 212.467C212.694 216.373 211.398 221.068 211.923 226.075C213.137 226.256 214.385 226.124 215.534 225.665Z" fill="#5932C4"/>
<path d="M221 205.08C221.164 201.682 222.329 198.464 224.43 195.641L224.496 195.542C224.545 195.427 224.627 195.296 224.775 195.198C225.875 193.704 227.565 192.834 229.322 192.752C229.42 192.735 229.519 192.735 229.617 192.735C229.847 192.735 230.077 192.752 230.306 192.785C231.061 192.867 231.8 193.096 232.473 193.49C233.113 193.868 233.655 194.36 234.065 194.968C234.459 195.542 234.738 196.215 234.902 196.954C236.626 198.005 237.742 199.876 237.939 202.076C238.596 202.125 239.186 202.289 239.745 202.601C242.043 203.914 242.683 207.148 241.173 209.791C240.106 211.662 238.218 212.746 236.396 212.746C235.657 212.746 234.935 212.565 234.262 212.188C233.688 211.859 233.179 211.383 232.801 210.776C231.39 211.4 229.929 211.564 228.567 211.236C227.992 211.121 227.45 210.907 226.925 210.612C226.17 210.185 225.53 209.594 225.021 208.872C224.972 208.806 224.923 208.74 224.89 208.658C224.578 208.215 224.332 207.723 224.151 207.181C223.281 207.476 222.362 207.575 221.492 207.427L221 207.345V207.329L220.983 206.853C220.983 206.721 220.967 206.606 220.983 206.475C220.967 206.311 220.967 206.147 220.967 205.983C220.95 205.687 220.967 205.375 221 205.08ZM222.969 206.212C223.413 206.147 223.856 205.999 224.282 205.802L224.972 205.457L225.152 206.212C225.3 206.803 225.514 207.345 225.809 207.821C226.104 208.346 226.498 208.79 226.958 209.151C227.139 209.299 227.335 209.43 227.532 209.545C229.075 210.431 230.979 210.382 232.769 209.43L233.343 209.118L233.622 209.709C233.918 210.333 234.328 210.809 234.87 211.121C236.577 212.106 238.94 211.219 240.106 209.167C241.271 207.115 240.844 204.653 239.121 203.684C238.694 203.422 238.185 203.29 237.627 203.29C237.545 203.29 237.463 203.29 237.397 203.307L236.741 203.34V202.699C236.708 200.631 235.739 198.842 234.213 197.972L234.41 197.381L234.065 197.906L233.803 197.758L233.753 197.463C233.54 196.166 232.867 195.132 231.849 194.557C230.323 193.687 228.091 193.753 226.498 195.132C226.367 195.247 226.236 195.378 226.104 195.526C226.088 195.542 226.072 195.559 226.055 195.575C225.924 195.723 225.793 195.887 225.678 196.068L225.546 196.248C225.514 196.314 225.481 196.363 225.448 196.396L225.399 196.478L225.382 196.462C225.349 196.494 225.333 196.511 225.317 196.511C223.298 199.285 222.231 202.453 222.198 205.769V206.262C222.444 206.278 222.707 206.262 222.969 206.212Z" fill="#5932C4"/>
<path d="M241.796 236.958C242.108 236.432 242.6 236.038 243.191 235.874C243.388 235.825 243.602 235.792 243.799 235.792C244.193 235.792 244.586 235.891 244.948 236.104C246.047 236.728 246.425 238.14 245.801 239.239C245.489 239.781 244.997 240.159 244.406 240.323C244.209 240.372 243.996 240.405 243.799 240.405C243.405 240.405 243.011 240.306 242.666 240.093C242.124 239.798 241.747 239.305 241.583 238.698C241.419 238.107 241.501 237.499 241.796 236.958ZM242.765 238.386C242.847 238.665 243.027 238.895 243.273 239.026C243.52 239.174 243.815 239.207 244.078 239.141C244.357 239.059 244.586 238.878 244.734 238.632C244.866 238.386 244.915 238.09 244.833 237.811C244.751 237.549 244.586 237.319 244.34 237.171C244.078 237.023 243.799 236.991 243.52 237.073C243.24 237.138 243.011 237.319 242.879 237.565C242.732 237.811 242.699 238.107 242.765 238.386Z" fill="#5932C4"/>
<path d="M239.466 217.408C239.778 216.882 240.27 216.488 240.861 216.324C241.452 216.177 242.076 216.242 242.617 216.554C243.143 216.866 243.52 217.358 243.684 217.95C243.848 218.54 243.766 219.164 243.471 219.69C243.159 220.231 242.667 220.609 242.076 220.773C241.879 220.822 241.665 220.855 241.468 220.855C241.074 220.855 240.68 220.757 240.319 220.543C239.794 220.248 239.417 219.755 239.252 219.164C239.088 218.557 239.17 217.95 239.466 217.408ZM240.434 218.836C240.516 219.115 240.68 219.345 240.943 219.476C241.189 219.624 241.468 219.657 241.747 219.591C242.026 219.509 242.256 219.328 242.404 219.082C242.535 218.836 242.568 218.54 242.503 218.261C242.42 217.999 242.24 217.769 241.994 217.621C241.829 217.523 241.649 217.473 241.468 217.473C241.37 217.473 241.288 217.49 241.189 217.523C240.91 217.588 240.68 217.769 240.533 218.015C240.401 218.261 240.352 218.557 240.434 218.836Z" fill="#5932C4"/>
<path d="M247.409 209.824C247.705 209.299 248.197 208.905 248.804 208.757C249.395 208.593 250.019 208.675 250.544 208.97C251.644 209.61 252.038 211.006 251.398 212.122C250.971 212.861 250.2 213.271 249.395 213.271C249.018 213.271 248.624 213.173 248.263 212.976C247.163 212.335 246.769 210.94 247.409 209.824ZM248.87 211.909C249.379 212.188 250.035 212.023 250.331 211.498C250.429 211.334 250.479 211.154 250.479 210.973C250.479 210.595 250.282 210.234 249.937 210.037C249.773 209.955 249.592 209.906 249.395 209.906C249.313 209.906 249.215 209.906 249.116 209.939C248.837 210.021 248.607 210.185 248.476 210.448C248.181 210.957 248.361 211.613 248.87 211.909Z" fill="#5932C4"/>
<path d="M244.225 201.106C244.849 200.006 246.261 199.612 247.36 200.253C247.886 200.548 248.28 201.041 248.444 201.648C248.608 202.239 248.526 202.863 248.214 203.388C247.918 203.93 247.41 204.307 246.819 204.471C246.622 204.521 246.425 204.553 246.211 204.553C245.817 204.553 245.423 204.438 245.079 204.241C243.979 203.618 243.585 202.206 244.225 201.106ZM245.686 203.175C245.932 203.322 246.228 203.355 246.49 203.273C246.769 203.207 246.999 203.027 247.147 202.781C247.295 202.534 247.328 202.239 247.245 201.96C247.18 201.697 246.999 201.467 246.753 201.32C246.589 201.221 246.392 201.172 246.211 201.172C245.85 201.172 245.489 201.369 245.292 201.714C244.997 202.222 245.177 202.879 245.686 203.175Z" fill="#5932C4"/>
<path d="M220.728 206.004L221.958 205.949C221.579 197.424 229.54 192.61 229.621 192.564L228.995 191.502C228.64 191.712 220.316 196.728 220.728 206.004Z" fill="#5932C4"/>
<path d="M216.824 203.774L218.053 203.72C217.675 195.195 225.635 190.38 225.716 190.334L225.09 189.273C224.736 189.483 216.412 194.499 216.824 203.774Z" fill="#5932C4"/>
<path d="M212.92 201.544L214.15 201.489C213.771 192.964 221.732 188.15 221.812 188.104L221.187 187.042C220.832 187.252 212.508 192.269 212.92 201.544Z" fill="#5932C4"/>
<path d="M209.016 199.313L210.246 199.259C209.867 190.732 217.827 185.918 217.908 185.872L217.282 184.811C216.928 185.021 208.604 190.037 209.016 199.313Z" fill="#5932C4"/>
<path d="M205.111 197.083L206.341 197.029C205.962 188.483 213.923 183.688 214.003 183.641L213.378 182.58C213.024 182.79 204.699 187.806 205.111 197.083Z" fill="#5932C4"/>
<path d="M201.207 194.853L202.437 194.799C202.058 186.273 210.019 181.459 210.1 181.413L209.474 180.352C209.119 180.562 200.795 185.578 201.207 194.853Z" fill="#5932C4"/>
<path d="M197.303 192.623L198.532 192.568C198.154 184.043 206.114 179.229 206.195 179.182L205.569 178.121C205.215 178.331 196.891 183.347 197.303 192.623Z" fill="#5932C4"/>
<path d="M41.0681 11.655C41.1502 11.5402 41.2322 11.4088 41.3308 11.2939C46.255 4.44864 54.2979 0 63.3585 0C78.3281 0 90.5073 12.1803 90.5073 27.1677C90.5073 37.0328 85.2015 45.6673 77.3109 50.4271L77.3104 50.4449C77.3062 50.4449 77.2889 50.4438 77.2835 50.4437C73.2057 52.8971 68.4523 54.3353 63.3585 54.3353C48.3724 54.3353 36.1932 42.1386 36.1932 27.1677C36.1932 21.4058 37.9822 16.0544 41.0681 11.655ZM63.3585 53.1042C67.6261 53.1042 71.664 52.0701 75.2094 50.2151C75.2094 50.2151 75.2094 50.2151 75.2258 50.2151C75.8496 49.9032 76.4569 49.5584 77.0314 49.1809C80.1172 47.2602 82.7764 44.7159 84.8117 41.7118C85.0743 41.3178 85.3205 40.9239 85.5667 40.5299C87.9139 36.623 89.2763 32.0596 89.2763 27.1677C89.2763 12.8698 77.6551 1.23116 63.3585 1.23116C59.4355 1.23116 55.7259 2.10123 52.3939 3.66063C51.9342 3.87404 51.4747 4.10388 51.015 4.35015V4.36648C47.4861 6.27074 44.4494 8.97934 42.1515 12.246C41.6426 12.9683 41.1666 13.7233 40.7398 14.5114C38.6224 18.254 37.4242 22.5713 37.4242 27.1677C37.4242 41.4656 49.0453 53.1042 63.3585 53.1042Z" fill="#5932C4"/>
<path d="M61.2075 181.146C66.7391 181.146 71.2529 185.643 71.2529 191.176C71.2529 196.708 66.7391 201.205 61.2075 201.205C55.676 201.205 51.1785 196.708 51.1785 191.176C51.1785 185.643 55.676 181.146 61.2075 181.146ZM61.2075 199.974C66.066 199.974 70.0219 196.034 70.0219 191.176C70.0219 186.316 66.066 182.377 61.2075 182.377C56.3489 182.377 52.4096 186.316 52.4096 191.176C52.4096 196.034 56.3489 199.974 61.2075 199.974Z" fill="#5932C4"/>
<path d="M162.056 36.8203C170.296 36.8203 177.009 43.5343 177.009 51.7913C177.009 60.0319 170.296 66.7458 162.056 66.7458C153.8 66.7458 147.086 60.0319 147.086 51.7913C147.086 43.5343 153.8 36.8203 162.056 36.8203ZM162.056 65.5146C169.623 65.5146 175.778 59.3588 175.778 51.7913C175.778 44.2238 169.623 38.0515 162.056 38.0515C154.473 38.0515 148.317 44.2238 148.317 51.7913C148.317 59.3588 154.473 65.5146 162.056 65.5146Z" fill="#5932C4"/>
<path d="M85.6553 41.7766L85.6865 40.5454C85.5575 40.5422 72.6498 40.0228 60.9476 24.8866C49.3952 9.94431 52.4576 3.78208 52.4897 3.72116L51.4141 3.12161C51.2618 3.39253 47.8203 9.92026 59.973 25.64C72.0575 41.2684 85.1063 41.7638 85.6553 41.7766Z" fill="#5932C4"/>
<path d="M40.7399 14.5116C40.8548 17.9588 42.5619 24.2951 50.4407 34.1444C60.3219 46.4889 70.8105 49.4766 75.2095 50.2153C75.2095 50.2153 75.2095 50.2153 75.2259 50.2153C76.4405 50.4122 77.1792 50.445 77.3105 50.445L77.3433 49.2138C77.3269 49.2138 77.2285 49.2138 77.0315 49.1811C74.9469 49.0169 62.6527 47.4082 51.409 33.373C40.9697 20.3226 41.7083 13.8878 42.1516 12.2462C42.2336 11.9671 42.3157 11.8194 42.3157 11.8194L41.3309 11.2941L41.2323 11.2448C41.2159 11.2777 41.1502 11.409 41.0682 11.6552C40.9041 12.1477 40.6743 13.0834 40.7399 14.5116Z" fill="#5932C4"/>
<path d="M95.1032 138.73L99.6187 129.761L91.8468 123.982C89.6203 122.323 86.4505 122.668 84.632 124.771L83.4554 126.13L84.3867 126.935L85.5633 125.576C86.9602 123.963 89.3967 123.695 91.1126 124.97L98.0542 130.133L94.0035 138.176L95.1032 138.73Z" fill="#5932C4"/>
<path d="M99.4551 130.218L104.245 133.516L103.548 134.529L98.7579 131.232L99.4551 130.218Z" fill="#5932C4"/>
<path d="M97.8326 128.926C99.3426 128.926 101.608 128.641 103.477 127.211C105.27 125.842 106.303 123.727 106.547 120.925C107.014 115.566 104.26 113.242 102.577 112.334C99.7674 110.816 95.9965 111.089 93.6025 112.977L93.0286 113.429L98.2253 118.099C98.1532 118.705 97.8815 120.151 96.9037 120.872C96.273 121.34 95.4146 121.43 94.3518 121.146C92.2808 120.593 91.3487 119.909 90.9312 119.431C90.5961 119.049 90.0976 118.841 89.5831 118.896C89.0726 118.944 88.6325 119.223 88.3761 119.662C87.6652 120.882 87.4231 122.137 87.6772 123.294L88.8794 123.031C88.6903 122.169 88.8786 121.244 89.4388 120.282C89.5126 120.157 89.6336 120.128 89.6993 120.122C89.7498 120.112 89.8949 120.117 90.0047 120.242C90.7757 121.124 92.1318 121.828 94.0345 122.336C95.4787 122.722 96.6937 122.562 97.6403 121.86C99.3658 120.58 99.4772 117.979 99.4812 117.87L99.4909 117.581L94.9754 113.524C96.9951 112.317 99.8259 112.246 101.992 113.416C104.439 114.739 105.621 117.366 105.321 120.819C105.108 123.261 104.236 125.082 102.73 126.233C100.114 128.233 96.4212 127.597 96.3844 127.589L96.1664 128.801C96.2329 128.812 96.8837 128.926 97.8326 128.926Z" fill="#5932C4"/>
<path d="M90.8228 119.574C91.024 117.128 94.2098 114.454 94.2427 114.426L93.4564 113.479C93.309 113.602 89.8402 116.51 89.5966 119.475L90.8228 119.574Z" fill="#5932C4"/>
<path d="M76.1451 128.008C76.2272 127.68 76.3914 127.384 76.6212 127.122L78.3774 125.053C78.5416 124.856 78.7221 124.692 78.9355 124.577C79.3787 124.282 79.904 124.15 80.4292 124.2C80.9217 124.232 81.3976 124.413 81.808 124.741L83.4823 126.104L84.385 126.843C84.4014 126.859 84.4179 126.859 84.4342 126.875C84.6148 127.023 84.8446 127.105 85.0908 127.122L90.1791 127.434C91.3774 127.516 92.3458 128.435 92.4607 129.633L92.6741 131.701C92.7561 132.391 92.5263 133.08 92.0503 133.606C91.5908 134.115 90.9178 134.41 90.2284 134.41H90.212L82.5958 134.344C82.0706 134.344 81.5454 134.164 81.1186 133.836L80.101 133.048L79.1325 132.309L76.9987 130.667C76.8509 130.552 76.7032 130.421 76.6048 130.273C76.2929 129.912 76.0959 129.453 76.0466 128.977C76.0138 128.648 76.0466 128.32 76.1451 128.008ZM77.7373 129.699L81.8736 132.851C82.087 133.015 82.3497 133.113 82.6123 133.113L90.2284 133.179C90.5895 133.179 90.9013 133.031 91.1312 132.769C91.3774 132.506 91.4923 132.178 91.4595 131.816L91.2461 129.764C91.1805 129.174 90.7044 128.714 90.0971 128.665L85.0088 128.353C84.4999 128.32 84.0075 128.123 83.6135 127.795L81.0201 125.693C80.8068 125.496 80.5276 125.414 80.2486 125.414C79.904 125.414 79.5593 125.562 79.313 125.841L77.5567 127.926C77.327 128.189 77.2285 128.517 77.2777 128.845C77.3106 129.19 77.4747 129.485 77.7373 129.699Z" fill="#5932C4"/>
<path d="M76.135 131.616L77.1377 128.771L75.3496 127.408C75.0675 127.193 74.8871 126.881 74.8415 126.53C74.795 126.179 74.8887 125.831 75.1051 125.55L76.2352 124.09C76.4548 123.806 76.773 123.627 77.1304 123.588C77.4831 123.545 77.8349 123.652 78.1106 123.882L79.6599 125.164L80.4453 124.215L78.8961 122.933C78.3599 122.49 77.6859 122.296 76.995 122.363C76.3033 122.44 75.6878 122.785 75.2614 123.337L74.1314 124.797C73.713 125.339 73.5311 126.01 73.6208 126.69C73.7098 127.368 74.0584 127.971 74.6026 128.386L75.679 129.207L74.9745 131.206L76.135 131.616Z" fill="#5932C4"/>
<path d="M78.7955 123.548L80.3896 119.054L74.0308 110.792L73.0546 111.542L79.0047 119.275L77.635 123.137L78.7955 123.548Z" fill="#5932C4"/>
<path d="M78.8938 134.635L80.3389 132.748L79.3611 132.001L77.916 133.888L78.8938 134.635Z" fill="#5932C4"/>
<path d="M261.132 122.822C261.197 122.346 261.279 121.87 261.378 121.41C261.837 119.375 262.658 117.47 263.791 115.78C264.02 115.418 264.283 115.074 264.546 114.745C267.221 111.315 271.243 108.934 275.888 108.442C280.32 107.966 284.669 109.246 288.133 112.037C291.596 114.828 293.763 118.816 294.239 123.232C294.304 123.905 294.337 124.595 294.321 125.251C294.337 125.678 294.304 126.089 294.272 126.499C294.025 129.29 293.106 131.932 291.531 134.263C291.268 134.674 290.972 135.068 290.677 135.445C290.661 135.462 290.661 135.462 290.644 135.478C287.837 138.942 283.865 141.125 279.433 141.601C278.826 141.65 278.235 141.683 277.628 141.683C273.836 141.683 270.192 140.403 267.188 137.99C265.448 136.594 264.053 134.904 263.019 133.016C261.985 131.112 261.312 129.011 261.082 126.794C260.935 125.448 260.951 124.102 261.132 122.822ZM262.313 126.663C262.74 130.767 264.759 134.444 267.96 137.038C271.177 139.631 275.215 140.813 279.302 140.37C283.176 139.96 286.672 138.154 289.183 135.248C289.38 135.068 289.528 134.887 289.676 134.707C289.823 134.526 289.971 134.329 290.102 134.132C292.4 131.03 293.418 127.221 293.008 123.364C292.581 119.276 290.562 115.583 287.361 112.989C284.587 110.757 281.206 109.575 277.693 109.575C277.135 109.575 276.577 109.607 276.019 109.657C271.916 110.1 268.239 112.103 265.645 115.32C263.988 117.388 262.888 119.785 262.461 122.329C262.363 122.789 262.297 123.265 262.264 123.741C262.231 124.152 262.215 124.562 262.215 124.972C262.215 125.53 262.248 126.105 262.313 126.663Z" fill="#5932C4"/>
<path d="M258.407 120.278C259.277 121.164 260.18 122.018 261.132 122.822C261.493 123.134 261.87 123.446 262.264 123.742C270.668 130.456 281.682 134.198 289.183 135.249C289.708 135.331 290.201 135.396 290.677 135.446C291.514 135.511 292.302 135.561 293.008 135.561H293.172C295.65 135.561 297.357 135.134 298.227 134.264C299.114 133.377 299.491 132.36 299.376 131.227C299.015 128.059 294.616 125.235 294.419 125.104L294.321 125.252L293.763 126.155C293.91 126.253 294.075 126.368 294.272 126.499C295.601 127.468 297.948 129.487 298.145 131.358C298.227 132.113 297.965 132.77 297.357 133.394C296.734 134.001 295.158 134.346 293.008 134.33C292.548 134.33 292.056 134.313 291.531 134.264C291.071 134.231 290.595 134.198 290.102 134.133C282.634 133.262 271.029 129.421 262.461 122.33C262.084 122.034 261.722 121.722 261.378 121.411C260.656 120.77 259.95 120.114 259.293 119.424C255.715 115.731 256.158 114.812 256.224 114.713C256.733 113.925 260.393 114.598 263.791 115.78C264.086 115.879 264.382 115.977 264.661 116.092L265.087 114.943C264.94 114.894 264.743 114.812 264.546 114.746C262.116 113.876 256.437 112.103 255.19 114.04C254.402 115.238 255.387 117.159 258.407 120.278Z" fill="#5932C4"/>
</svg>
