<svg xmlns="http://www.w3.org/2000/svg" width="612" height="629.06"><path fill="#25E899" d="M226.763 343.296h138.234"/><path fill="none" stroke="#15003E" stroke-width="6" stroke-linejoin="round" stroke-miterlimit="10" d="M226.763 343.296h138.234"/><path fill="#15003E" d="M226.763 343.296l1.501 20.27 13.693 18.5 12 1.136 43.925 4.28 45.036-3.228 15.097-10.465 6.982-19.925L362 343.296z"/><path fill="none" stroke="#15003E" stroke-width="6" stroke-linejoin="round" stroke-miterlimit="10" d="M333.045 385.815h-74.33c-17.646 0-31.952-14.305-31.952-31.951v-45.048h138.234v45.048c0 17.647-14.306 31.951-31.952 31.951z"/><path fill="#25E899" d="M309.385 345.066c0-7.883-6.39-14.271-14.271-14.271-7.881 0-14.27 6.389-14.27 14.271 0 7.881 6.389 14.271 14.27 14.271 7.881 0 14.271-6.39 14.271-14.271"/><circle fill="none" stroke="#15003E" stroke-width="6" stroke-linejoin="round" stroke-miterlimit="10" cx="295.114" cy="345.066" r="14.271"/><path fill="#15003E" d="M241.591 379.149a6.967 6.967 0 1 0-13.933 0 6.967 6.967 0 0 0 13.933 0M363.984 379.149a6.967 6.967 0 1 0-13.933 0 6.967 6.967 0 0 0 13.933 0"/><path fill="#EFF4EE" d="M356.242 374.404a4.323 4.323 0 1 0-8.646 0 4.323 4.323 0 0 0 8.646 0M243.272 374.404a4.324 4.324 0 1 0-8.648.002 4.324 4.324 0 0 0 8.648-.002"/><path fill="none" stroke="#15003E" stroke-width="6" stroke-linecap="round" stroke-linejoin="round" stroke-miterlimit="10" d="M230.257 503.472l-8.6-19.255a7.629 7.629 0 0 1 3.856-10.078 7.63 7.63 0 0 1 10.079 3.854l8.6 19.256a7.631 7.631 0 0 1-13.935 6.223zM188.606 541.567l-21.487-48.112c-2.3-5.151.01-11.191 5.162-13.493 5.15-2.299 11.19.011 13.491 5.163l21.487 48.112c2.301 5.15-.01 11.191-5.16 13.491-5.152 2.301-11.192-.009-13.493-5.161z"/><path fill="none" stroke="#15003E" stroke-width="6.00018" stroke-linecap="round" stroke-linejoin="round" stroke-miterlimit="10" d="M221.652 484.23l8.266 18.509-30.257 13.513-8.266-18.509z"/><path fill="#15003E" d="M167.276 493.824l7.978 17.863-6.557 2.928-7.977-17.863z"/><path fill="none" stroke="#15003E" stroke-width="6.00018" stroke-linejoin="round" stroke-miterlimit="10" d="M167.276 493.824l7.978 17.863-6.557 2.928-7.977-17.863z"/><path fill="#15003E" d="M179.362 520.914l7.978 17.863-6.557 2.928-7.978-17.862z"/><path fill="none" stroke="#15003E" stroke-width="6.00018" stroke-linejoin="round" stroke-miterlimit="10" d="M179.362 520.914l7.978 17.863-6.557 2.928-7.978-17.862z"/><path fill="none" stroke="#15003E" stroke-width="6" stroke-linecap="round" stroke-linejoin="round" stroke-miterlimit="10" d="M239.725 487.247l9.76-4.359"/><path fill="none" stroke="#15003E" stroke-width="6" stroke-linejoin="round" stroke-miterlimit="10" d="M250.276 472.591l-11.224 2.068-12.341-66.952c-1.143-6.198 2.957-12.15 9.155-13.293 6.199-1.143 12.15 2.957 13.293 9.155l10.272 55.729c1.143 6.198-2.956 12.15-9.155 13.293z"/><path fill="none" stroke="#15003E" stroke-width="6" stroke-linecap="round" stroke-linejoin="round" stroke-miterlimit="10" d="M262.331 400.424l13.769 74.698"/><path fill="#15003E" d="M234.476 449.832l22.447-4.138"/><path fill="none" stroke="#15003E" stroke-width="6" stroke-linejoin="round" stroke-miterlimit="10" d="M234.476 449.832l22.447-4.138"/><path fill="#15003E" d="M229.099 420.657l22.446-4.137"/><path fill="none" stroke="#15003E" stroke-width="6" stroke-linejoin="round" stroke-miterlimit="10" d="M229.099 420.657l22.446-4.137"/><circle fill="#FFF" stroke="#15003E" stroke-width="6" stroke-linecap="round" stroke-linejoin="round" stroke-miterlimit="10" cx="255.972" cy="480.518" r="8.542"/><path fill="none" stroke="#15003E" stroke-width="6" stroke-linecap="round" stroke-linejoin="round" stroke-miterlimit="10" d="M230.264 387.202l13.702-2.526 11.882 8.182"/><g><path fill="none" stroke="#15003E" stroke-width="6" stroke-linecap="round" stroke-linejoin="round" stroke-miterlimit="10" d="M355.449 518.254h21.09a7.63 7.63 0 0 0 7.63-7.63 7.63 7.63 0 0 0-7.63-7.632h-21.09a7.63 7.63 0 0 0-7.629 7.632 7.63 7.63 0 0 0 7.629 7.63zM337.65 571.819h52.692c5.642 0 10.215-4.573 10.215-10.216 0-5.641-4.573-10.214-10.215-10.214H337.65c-5.641 0-10.215 4.573-10.215 10.214.001 5.643 4.575 10.216 10.215 10.216z"/><path fill="none" stroke="#15003E" stroke-width="6" stroke-linecap="round" stroke-linejoin="round" stroke-miterlimit="10" d="M356.27 518.254h20.269v33.136H356.27z"/><path fill="#15003E" d="M370.403 571.818h19.563V579h-19.563z"/><path fill="none" stroke="#15003E" stroke-width="6" stroke-linejoin="round" stroke-miterlimit="10" d="M370.403 571.818h19.563V579h-19.563z"/><path fill="#15003E" d="M340.707 571.818h19.563V579h-19.563z"/><path fill="none" stroke="#15003E" stroke-width="6" stroke-linejoin="round" stroke-miterlimit="10" d="M340.707 571.818h19.563V579h-19.563z"/><path fill="none" stroke="#15003E" stroke-width="6" stroke-linecap="round" stroke-linejoin="round" stroke-miterlimit="10" d="M366.403 502.992v-10.689"/></g><g><path fill="none" stroke="#15003E" stroke-width="6" stroke-linejoin="round" stroke-miterlimit="10" d="M370.022 469.883l11.224-2.069-12.341-66.952c-1.143-6.198-7.095-10.297-13.293-9.154s-10.297 7.094-9.154 13.292l10.272 55.729c1.143 6.197 7.094 10.296 13.292 9.154z"/><path fill="none" stroke="#15003E" stroke-width="6" stroke-linecap="round" stroke-linejoin="round" stroke-miterlimit="10" d="M333.03 406.757l13.769 74.698"/><path fill="#15003E" d="M376.67 442.987l-22.446 4.138"/><path fill="none" stroke="#15003E" stroke-width="6" stroke-linejoin="round" stroke-miterlimit="10" d="M376.67 442.987l-22.446 4.138"/><path fill="#15003E" d="M371.292 413.812l-22.446 4.137"/><path fill="none" stroke="#15003E" stroke-width="6" stroke-linejoin="round" stroke-miterlimit="10" d="M371.292 413.812l-22.446 4.137"/><circle fill="none" stroke="#15003E" stroke-width="6" stroke-linecap="round" stroke-linejoin="round" stroke-miterlimit="10" cx="367.527" cy="479.32" r="8.541"/><path fill="none" stroke="#15003E" stroke-width="6" stroke-linecap="round" stroke-linejoin="round" stroke-miterlimit="10" d="M358.275 382.971l-13.702 2.525-8.182 11.882"/></g><path fill="#15003E" d="M185.058 341.568h43.303v22.129h-43.303z"/><g><path fill="#FFF" stroke="#15003E" stroke-width="6" stroke-linecap="round" stroke-linejoin="round" stroke-miterlimit="10" d="M113.714 444.853l-11.539-10.32c-6.076-5.435-6.597-14.765-1.163-20.841l73.133-81.767c5.435-6.075 14.765-6.596 20.841-1.161l11.539 10.32c6.076 5.435 6.595 14.766 1.161 20.841l-73.133 81.767c-5.432 6.075-14.763 6.595-20.839 1.161z"/><path fill="#25E899" d="M172.463 367.558l28.293-31.634"/><path fill="none" stroke="#15003E" stroke-width="6" stroke-linecap="round" stroke-miterlimit="10" d="M172.463 367.558l28.293-31.634"/><path fill="#15003E" d="M100.286 448.255l25.436-28.439"/><path fill="none" stroke="#15003E" stroke-width="6" stroke-linecap="round" stroke-miterlimit="10" d="M100.286 448.255l25.436-28.439"/><path fill="#25E899" d="M134.603 427.759c4.387-4.904 3.967-12.436-.938-16.822-4.905-4.388-12.437-3.968-16.824.937-4.387 4.905-3.967 12.437.938 16.824 4.906 4.386 12.437 3.966 16.824-.939"/><circle fill="none" stroke="#15003E" stroke-width="6" stroke-linecap="round" stroke-miterlimit="10" cx="125.722" cy="419.816" r="11.914"/><path fill="none" stroke="#15003E" stroke-width="6" stroke-linecap="round" stroke-linejoin="round" stroke-miterlimit="10" d="M155.692 352.558l33.542 29.999M137.58 372.808l33.542 30"/><path fill="#EFF4EE" d="M67.681 468.726l19.679-22.002a7.48 7.48 0 0 1 10.563-.589l4.733 4.233a7.481 7.481 0 0 1 .589 10.563l-19.679 22.003"/><path fill="none" stroke="#15003E" stroke-width="6" stroke-linecap="round" stroke-miterlimit="10" d="M67.681 468.726l19.679-22.002a7.48 7.48 0 0 1 10.563-.589l4.733 4.233a7.481 7.481 0 0 1 .589 10.563l-19.679 22.003"/><path fill="#25E899" d="M83.566 482.934c3.923-4.386 3.548-11.123-.839-15.047-4.386-3.923-11.124-3.547-15.046.839-3.923 4.387-3.548 11.124.838 15.047s11.124 3.547 15.047-.839"/><circle fill="none" stroke="#15003E" stroke-width="6" stroke-linecap="round" stroke-miterlimit="10" cx="75.623" cy="475.83" r="10.656"/></g><path fill="#15003E" d="M365.876 341.568h43.303v22.129h-43.303z"/><path fill="none" stroke="#15003E" stroke-width="6" stroke-linecap="round" stroke-miterlimit="10" d="M437.899 584.178h-308.34M244.565 286.698h98.353v22.118h-98.353z"/><path fill="none" stroke="#25E899" stroke-width="6" stroke-linecap="round" stroke-miterlimit="10" d="M256.011 275.644h76.714"/><g><path fill="#25E899" d="M233.842 214.231l95.509-13.248 8.521 1.966-3.063 22.64-91.505 12.692z"/><path fill="none" stroke="#15003E" stroke-width="6" stroke-linecap="round" stroke-miterlimit="10" d="M325.61 254.322l-65.635 9.104c-7.144.991-13.737-3.997-14.728-11.141l-1.943-14.004 91.504-12.692 1.941 14.004c.993 7.144-3.995 13.739-11.139 14.729z"/><path fill="#0FCE7C" d="M268.83 209.378c-15.241-4.316-27.264-17.277-29.579-33.972a41.009 41.009 0 0 1 5.713-27.231c6.223-10.102 53.212-17.088 61.854-9.69 7.371 6.311 12.556 15.239 13.993 25.608 2.315 16.695-5.725 32.437-19.212 40.739"/><path fill="none" stroke="#15003E" stroke-width="6" stroke-linecap="round" stroke-miterlimit="10" d="M266.252 209.733c-15.174-4.944-26.994-18.168-29.334-35.039a42.856 42.856 0 0 1 3.52-23.894M310.471 138.801a42.853 42.853 0 0 1 11.738 24.063c2.315 16.695-5.273 32.481-18.278 41.421"/><path fill="none" stroke="#15003E" stroke-width="6" stroke-linecap="round" stroke-miterlimit="10" d="M220.143 181.383c-4.652-33.542 18.767-64.504 52.309-69.156 33.542-4.653 64.505 18.765 69.158 52.308l-6.801 61.054-91.504 12.692-23.162-56.898zM220.021 180.505l-8.017-57.799M341.487 163.657l-10.28-74.12"/><path fill="none" stroke="#15003E" stroke-width="6" stroke-linecap="round" stroke-miterlimit="10" d="M228.353 205.81l-6.269.869c-5.072.703-9.797-2.871-10.501-7.942l-3.249-23.422c-.704-5.071 2.871-9.797 7.944-10.5l2.658-.369M340.575 190.243l6.268-.869c5.073-.704 8.648-5.429 7.944-10.501l-3.248-23.421c-.703-5.072-5.43-8.647-10.503-7.943l-2.658.369"/><path fill="none" stroke="#15003E" stroke-width="6" stroke-linecap="round" stroke-miterlimit="10" d="M219.388 171.134c13.402-18.168 33.611-31.058 57.449-34.364 22.542-3.126 44.292 2.875 61.676 15.233M233.842 214.228l103.601-14.371"/><path fill="#FFF" d="M299.864 153.22c.814 5.875-3.289 11.299-9.163 12.113-5.875.815-11.299-3.287-12.114-9.163-.814-5.876 3.287-11.299 9.163-12.113 5.874-.815 11.298 3.287 12.114 9.163M309.672 168.069c.33 2.375-1.33 4.569-3.706 4.899s-4.568-1.33-4.897-3.705a4.343 4.343 0 0 1 8.603-1.194"/><path fill="none" stroke="#15003E" stroke-width="6" stroke-linecap="round" stroke-miterlimit="10" d="M324.617 218.358c-5.241.727-6.34-7.197-11.582-6.47-5.238.726-4.14 8.651-9.38 9.377-5.242.727-6.34-7.197-11.582-6.47-5.244.728-4.144 8.652-9.388 9.378-5.242.728-6.341-7.197-11.583-6.47-5.245.728-4.146 8.652-9.391 9.379-5.246.728-6.346-7.196-11.591-6.469"/></g><g><g stroke-width=".5"><path fill="#FFDC92" stroke="#F6B92F" d="M480.318 107.467l-12.125 11.644 12.125 11.645 12.118-11.645-12.118-11.644z"/><path opacity=".85" fill="#FFAC46" stroke="#FFAC46" d="M480.318 75.649l-12.125 11.647 12.125 11.645 12.118-11.645-12.118-11.647z"/><path fill="#FFA150" stroke="#FFA150" d="M480.69 29.27l-20.224 19.432 20.224 19.432 20.228-19.432L480.69 29.27z"/><path fill="#FFDC92" stroke="#F6B92F" d="M512.919 107.467l-12.118 11.644 12.118 11.645 12.118-11.645-12.118-11.644zM447.705 107.467l-12.119 11.644 12.119 11.645 12.125-11.645-12.125-11.644zM464.012 91.804l-12.119 11.644 12.119 11.645 12.118-11.645-12.118-11.644z"/><path opacity=".837" fill="#FFAC46" stroke="#FFAC46" d="M463.857 60.293l-12.119 11.645 12.119 11.644 12.124-11.644-12.124-11.645z"/><path fill="#FFDC92" stroke="#F6B92F" d="M454.521 16.135l-6.68 6.418 6.68 6.422 6.684-6.422-6.684-6.418zM536.995 104.955l-6.68 6.418 6.68 6.422 6.685-6.422-6.685-6.418zM524.307 47.856l-6.679 6.418 6.679 6.422 6.685-6.422-6.685-6.418zM422.799 98.61l-6.68 6.419 6.68 6.421 6.686-6.421-6.686-6.419z"/><path opacity=".85" fill="#FFAC46" stroke="#FFAC46" d="M448.139 75.95L436.02 87.594l12.119 11.645 12.125-11.645-12.125-11.644zM512.746 75.95l-12.119 11.644 12.119 11.645 12.124-11.645-12.124-11.644z"/><path fill="#FFDC92" stroke="#F6B92F" d="M496.612 91.804l-12.118 11.644 12.118 11.645 12.124-11.645-12.124-11.644z"/><path opacity=".85" fill="#FFAC46" stroke="#F6B92F" d="M497.033 60.293l-12.118 11.645 12.118 11.644 12.118-11.644-12.118-11.645z"/></g><path fill="#FFF" stroke="#15003E" stroke-width="6" stroke-linecap="round" d="M432.916 128.045l46.102 290.268a5.707 5.707 0 0 0 11.325-.397l3.557-40.512 34.088-248.417a5.717 5.717 0 0 0-5.588-6.484l-83.771-1.063a5.705 5.705 0 0 0-5.781 5.635c-.006.326.012.648.068.97z"/><path fill="#15003E" d="M436.031 140.467h88.821l-6.345 44.41h-74.879l-9.604-48.799z"/><text transform="translate(453.06 170.859)" fill="#25E899" font-family="'Muli-Bold'" font-size="25.377">OSS</text><path fill="#15003E" d="M445.549 197.565h72.958l-3.172 12.689h-69.786z"/></g><g><path fill="#FFF" stroke="#15003E" stroke-width="6" stroke-linecap="round" stroke-linejoin="round" stroke-miterlimit="10" d="M526.754 319.649l-4.483-14.816c-2.361-7.803-10.6-12.216-18.401-9.854l-105 31.768c-7.803 2.361-12.214 10.6-9.853 18.403l4.483 14.817c2.36 7.802 10.599 12.213 18.4 9.853l105-31.77c7.803-2.361 12.214-10.599 9.854-18.401z"/><path fill="none" stroke="#15003E" stroke-width="6" stroke-linecap="round" stroke-linejoin="round" stroke-miterlimit="10" d="M425.364 318.732l13.032 43.071M451.369 310.863l13.032 43.073"/><path fill="#25E899" d="M431.881 340.268l-40.623 12.292"/><path fill="none" stroke="#15003E" stroke-width="6" stroke-linecap="round" stroke-miterlimit="10" d="M431.881 340.268l-40.623 12.292"/><path fill="#EFF4EE" d="M503.963 307.325l-28.255 8.549a7.48 7.48 0 0 0-4.992 9.326l1.839 6.079a7.48 7.48 0 0 0 9.325 4.995l28.256-8.548"/><path fill="none" stroke="#15003E" stroke-width="6" stroke-linecap="round" stroke-miterlimit="10" d="M503.963 307.325l-28.255 8.549a7.48 7.48 0 0 0-4.992 9.326l1.839 6.079a7.48 7.48 0 0 0 9.325 4.995l28.256-8.548"/><path fill="#25E899" d="M510.135 327.723c-5.633 1.705-11.581-1.48-13.285-7.113s1.48-11.581 7.113-13.285 11.581 1.48 13.285 7.113c1.705 5.633-1.48 11.58-7.113 13.285"/><circle fill="none" stroke="#15003E" stroke-width="6" stroke-linecap="round" stroke-miterlimit="10" cx="507.049" cy="317.524" r="10.656"/></g></svg>