<svg width="255" height="189" xmlns="http://www.w3.org/2000/svg"><defs><linearGradient x1="50%" y1="118.6%" x2="50%" y2="-181.493%" id="a"><stop stop-color="#EC008C" offset="0%"/><stop stop-color="#512D91" offset="100%"/></linearGradient><linearGradient x1="50.001%" y1="263.596%" x2="50.001%" y2="-122.882%" id="b"><stop stop-color="#EC008C" offset="0%"/><stop stop-color="#512D91" offset="100%"/></linearGradient><linearGradient x1="50.002%" y1="480.188%" x2="50.002%" y2="-46.097%" id="c"><stop stop-color="#EC008C" offset="0%"/><stop stop-color="#512D91" offset="100%"/></linearGradient><linearGradient x1="43.609%" y1="38.49%" x2="59.733%" y2="73.78%" id="d"><stop stop-color="#EC008C" offset="0%"/><stop stop-color="#512D91" offset="100%"/></linearGradient><linearGradient x1="50.839%" y1="10.785%" x2="50.097%" y2="77.381%" id="e"><stop stop-color="#EC69B5" offset="0%"/><stop stop-color="#EC008C" offset="32.8%"/><stop stop-color="#512D91" offset="100%"/></linearGradient><linearGradient x1="41.858%" y1="28.702%" x2="48.831%" y2="67.355%" id="f"><stop stop-color="#EC008C" offset="0%"/><stop stop-color="#512D91" offset="100%"/></linearGradient><linearGradient x1="45.566%" y1="59.501%" x2="66.534%" y2="119.393%" id="g"><stop stop-color="#EC008C" offset="0%"/><stop stop-color="#C30C8D" offset="19.73%"/><stop stop-color="#921A8F" offset="45.93%"/><stop stop-color="#6F2490" offset="69%"/><stop stop-color="#592B91" offset="87.81%"/><stop stop-color="#512D91" offset="100%"/></linearGradient></defs><g fill="none" fill-rule="evenodd"><g transform="translate(78)"><g transform="translate(38.211)"><ellipse fill="url(#a)" cx="18.809" cy="30.327" rx="7.559" ry="7.375"/><ellipse fill="url(#b)" cx="5.912" cy="15.982" rx="5.87" ry="5.727"/><path d="M22.288 4.264c0 2.322-1.932 4.205-4.31 4.205-2.382 0-4.313-1.883-4.313-4.205S15.596.058 17.98.058c2.377 0 4.31 1.884 4.31 4.206z" fill="url(#c)"/></g><path d="M98.624 164.172c-7.8-18.208-28.553-68.678-30.741-74.002l-.224-23.284c-.008 0-.013.002-.021.004l-.095-9.017c.953-.94 2.17-2.538 2.407-4.715.412-3.768-2.386-7.227-5.162-7.803-2.175-.45-10.886-.86-14.787-.71-3.9-.15-12.614.26-14.79.71-2.775.576-5.573 4.035-5.162 7.804.237 2.176 1.453 3.773 2.407 4.714l-.14 13.332c.012-.003.026-.004.039-.006l-.238 18.97c-2.188 5.325-22.94 55.795-30.741 74.003-2.319 5.414-1.692 11.245 1.766 16.418 3.14 4.697 8.391 8.238 12.217 8.238 6.426 0 21.63.078 30.867.13V189c.063 0 1.488-.01 3.774-.021l3.773.021v-.042c9.237-.052 24.441-.13 30.867-.13 3.826 0 9.078-3.541 12.217-8.238 3.459-5.173 4.086-11.005 1.767-16.418zm-6.09 13.584c-2.642 3.954-6.485 5.938-7.894 5.938-7.413 0-26.474.104-34.64.15-8.167-.046-27.227-.15-34.64-.15-1.41 0-5.252-1.984-7.895-5.938-1.744-2.61-3.39-6.739-1.316-11.578 8.212-19.17 30.73-73.974 30.956-74.525l.186-.452.2-20.404h.014l.162-15.447-1.162-.772c-.012-.008-1.182-.869-1.302-1.97-.11-1 .725-2.047 1.117-2.235 1.643-.315 9.881-.758 13.595-.59l.001.007.083-.003.083.003v-.007c3.715-.168 11.955.275 13.596.59.392.188 1.227 1.235 1.117 2.235-.12 1.107-1.304 1.97-1.302 1.97l-1.162.773.154 14.618.046-.003.177 21.235.186.453c.226.55 22.744 55.354 30.956 74.525 2.074 4.838.429 8.966-1.315 11.577z" fill="#FFF" fill-rule="nonzero"/><path d="M17.622 155.49l-3.089 7.282c-4.048 7.86.894 12.523 4.05 13.217.137.03 11.09.036 23.833.031 4.283-1.294 8.523-2.82 12.764-4.827 10.472-5.094 19.386-12.363 25.308-21.46l-5.303-12.647c-16.52 9.621-39.283 11.517-57.484 18.214l-.079.19z" fill="url(#d)"/><path d="M68.293 120.558l-7.57-17.697c-15.18-3.66-24.937 9.208-24.937 9.208l-6.518 15.07c13.2.961 26.801-1.34 39.025-6.58z" fill="url(#e)"/><path d="M29.881 127.511l-11.995 28.231c18.277-6.71 41.136-8.611 57.724-18.252l-6.986-16.627c-12.135 5.296-25.639 7.622-38.743 6.648z" fill="url(#f)"/><path d="M85.249 162.475l-.003-.006-5.321-12.405c-5.983 8.983-14.988 16.16-25.567 21.19-4.284 1.982-8.569 3.488-12.895 4.766l7.91-.004c15.894.01 31.82.01 31.987-.027 3.188-.685 8.181-5.29 4.09-13.05l-.201-.464z" fill="url(#g)"/><ellipse fill="#FFF" transform="rotate(23.709 39.661 130.35)" cx="39.661" cy="130.35" rx="6.062" ry="23.043"/></g><g transform="translate(0 16)"><g transform="translate(26.625)"><ellipse fill="url(#a)" cx="13.575" cy="21.348" rx="5.456" ry="5.192"/><ellipse fill="url(#b)" cx="4.267" cy="11.25" rx="4.236" ry="4.031"/><path d="M16.086 3.002c0 1.634-1.394 2.96-3.11 2.96-1.72 0-3.113-1.326-3.113-2.96 0-1.635 1.393-2.961 3.113-2.961 1.716 0 3.11 1.326 3.11 2.96z" fill="url(#c)"/></g><path d="M70.023 117.24c-5.538-13.025-20.273-49.127-21.826-52.936l-.159-16.655-.015.002-.067-6.45c.676-.672 1.54-1.815 1.709-3.372.292-2.695-1.695-5.17-3.666-5.582-1.544-.322-7.729-.615-10.498-.507-2.769-.108-8.956.185-10.501.507-1.97.412-3.957 2.887-3.665 5.582.168 1.557 1.032 2.7 1.709 3.373l-.1 9.536.028-.004-.17 13.57C21.25 68.113 6.516 104.215.978 117.24c-1.646 3.873-1.201 8.044 1.254 11.744 2.229 3.36 5.958 5.893 8.674 5.893 4.562 0 15.357.056 21.916.093v.03c.044 0 1.056-.007 2.679-.015 1.623.008 2.634.015 2.679.015v-.03c6.558-.037 17.353-.093 21.915-.093 2.717 0 6.446-2.533 8.675-5.893 2.455-3.7 2.9-7.872 1.254-11.744zm-4.323 9.717c-1.877 2.829-4.605 4.248-5.606 4.248-5.263 0-18.796.074-24.594.107-5.798-.033-19.331-.107-24.595-.107-1 0-3.728-1.42-5.605-4.248-1.238-1.867-2.406-4.82-.934-8.282 5.83-13.714 21.818-52.916 21.978-53.31l.132-.323.143-14.595h.01l.115-11.05-.825-.553c-.009-.005-.84-.62-.925-1.409-.078-.715.515-1.464.793-1.599 1.166-.225 7.016-.542 9.653-.422v.006l.06-.003.058.003v-.006c2.638-.12 8.488.197 9.654.423.278.134.87.883.793 1.598-.086.792-.926 1.41-.925 1.41l-.825.552.11 10.457.032-.002.126 15.19.132.324c.16.394 16.148 39.596 21.979 53.31 1.472 3.46.304 6.413-.934 8.28z" fill="#FFF" fill-rule="nonzero"/><path d="M12.937 111.473l-2.18 5.172c-2.855 5.581.631 8.893 2.858 9.386.096.021 7.823.025 16.812.022 3.021-.919 6.013-2.002 9.004-3.428 7.387-3.617 13.675-8.78 17.853-15.24l-3.74-8.981c-11.654 6.832-27.712 8.179-40.551 12.935l-.056.134z" fill="url(#d)"/><path d="M48.41 86.25L43.087 73.66c-10.67-2.604-17.53 6.552-17.53 6.552l-4.58 10.721c9.278.685 18.839-.953 27.431-4.681z" fill="url(#e)"/><path d="M21.46 91.01l-8.55 20.406c13.027-4.85 29.322-6.225 41.147-13.193l-4.98-12.018c-8.65 3.828-18.276 5.509-27.617 4.806z" fill="url(#f)"/><path d="M60.89 116.292l-.003-.004-3.771-8.939c-4.242 6.473-10.624 11.646-18.123 15.27-3.037 1.428-6.074 2.513-9.14 3.434l5.606-.002c11.266.006 22.556.006 22.674-.02 2.26-.494 5.8-3.812 2.9-9.404l-.144-.335z" fill="url(#g)"/><ellipse fill="#FFF" transform="rotate(23.709 28.16 93.107)" cx="28.16" cy="93.107" rx="4.308" ry="16.443"/></g><g transform="translate(184 16)"><g transform="translate(26.625)"><ellipse fill="url(#a)" cx="13.575" cy="21.348" rx="5.456" ry="5.192"/><ellipse fill="url(#b)" cx="4.267" cy="11.25" rx="4.236" ry="4.031"/><path d="M16.086 3.002c0 1.634-1.394 2.96-3.11 2.96-1.72 0-3.113-1.326-3.113-2.96 0-1.635 1.393-2.961 3.113-2.961 1.716 0 3.11 1.326 3.11 2.96z" fill="url(#c)"/></g><path d="M70.023 117.24c-5.538-13.025-20.273-49.127-21.826-52.936l-.159-16.655-.015.002-.067-6.45c.676-.672 1.54-1.815 1.709-3.372.292-2.695-1.695-5.17-3.666-5.582-1.544-.322-7.729-.615-10.498-.507-2.769-.108-8.956.185-10.501.507-1.97.412-3.957 2.887-3.665 5.582.168 1.557 1.032 2.7 1.709 3.373l-.1 9.536.028-.004-.17 13.57C21.25 68.113 6.516 104.215.978 117.24c-1.646 3.873-1.201 8.044 1.254 11.744 2.229 3.36 5.958 5.893 8.674 5.893 4.562 0 15.357.056 21.916.093v.03c.044 0 1.056-.007 2.679-.015 1.623.008 2.634.015 2.679.015v-.03c6.558-.037 17.353-.093 21.915-.093 2.717 0 6.446-2.533 8.675-5.893 2.455-3.7 2.9-7.872 1.254-11.744zm-4.323 9.717c-1.877 2.829-4.605 4.248-5.606 4.248-5.263 0-18.796.074-24.594.107-5.798-.033-19.331-.107-24.595-.107-1 0-3.728-1.42-5.605-4.248-1.238-1.867-2.406-4.82-.934-8.282 5.83-13.714 21.818-52.916 21.978-53.31l.132-.323.143-14.595h.01l.115-11.05-.825-.553c-.009-.005-.84-.62-.925-1.409-.078-.715.515-1.464.793-1.599 1.166-.225 7.016-.542 9.653-.422v.006l.06-.003.058.003v-.006c2.638-.12 8.488.197 9.654.423.278.134.87.883.793 1.598-.086.792-.926 1.41-.925 1.41l-.825.552.11 10.457.032-.002.126 15.19.132.324c.16.394 16.148 39.596 21.979 53.31 1.472 3.46.304 6.413-.934 8.28z" fill="#FFF" fill-rule="nonzero"/><path d="M12.937 111.473l-2.18 5.172c-2.855 5.581.631 8.893 2.858 9.386.096.021 7.823.025 16.812.022 3.021-.919 6.013-2.002 9.004-3.428 7.387-3.617 13.675-8.78 17.853-15.24l-3.74-8.981c-11.654 6.832-27.712 8.179-40.551 12.935l-.056.134z" fill="url(#d)"/><path d="M48.41 86.25L43.087 73.66c-10.67-2.604-17.53 6.552-17.53 6.552l-4.58 10.721c9.278.685 18.839-.953 27.431-4.681z" fill="url(#e)"/><path d="M21.46 91.01l-8.55 20.406c13.027-4.85 29.322-6.225 41.147-13.193l-4.98-12.018c-8.65 3.828-18.276 5.509-27.617 4.806z" fill="url(#f)"/><path d="M60.89 116.292l-.003-.004-3.771-8.939c-4.242 6.473-10.624 11.646-18.123 15.27-3.037 1.428-6.074 2.513-9.14 3.434l5.606-.002c11.266.006 22.556.006 22.674-.02 2.26-.494 5.8-3.812 2.9-9.404l-.144-.335z" fill="url(#g)"/><ellipse fill="#FFF" transform="rotate(23.709 28.16 93.107)" cx="28.16" cy="93.107" rx="4.308" ry="16.443"/></g></g></svg>