<svg xmlns="http://www.w3.org/2000/svg" viewBox="0 0 999.5 249.45" width="2500" height="624"><path fill="#000d2b" fill-rule="evenodd" d="M73.63 0l-58 33.99 58 33.99 59.1-33.99L73.63 0zm9.54 181.47v67.98l78.8-44.95v-67.99l-78.8 44.96zm59.1-126.1v67.99l-59.1 33.99V89.36l59.1-33.99zM0 123.36l59.1 33.99V89.36L0 55.37v67.99zm0 92.1l59.1 33.99v-67.98L0 147.48v67.98zm366.07-122.3v-3.31c0-9.94-5.44-15.45-15.24-15.45h-49v34.22h49c9.8 0 15.24-5.52 15.24-15.45zm35.93 56.3v14.35q0 39.74-39.18 39.74h-82.73a5.18 5.18 0 01-5.44-5.52V54.52a5.18 5.18 0 015.44-5.52h74q39.18 0 39.18 39.74v4.42c0 21-15.24 25.39-15.24 25.39v1.1S402 124.07 402 149.46zm-27.22 13.24v-13.24c0-9.94-5.44-15.45-15.24-15.45h-57.68v44.16h57.68c9.8 0 15.24-5.52 15.24-15.45zm104.48 21c10.88 0 18.5-7.73 18.5-18.77v-7.73h-35.91c-7.62 0-12 4.42-12 12.14v2.21c0 7.73 4.35 12.14 12 12.14h17.41zm42.45-59.61v74a5.18 5.18 0 01-5.44 5.52h-13.06a5.18 5.18 0 01-5.44-5.52v-5.52h-1.09s-5.44 13.25-21.77 13.25h-16.33q-32.65 0-32.65-33.12v-3.31q0-33.12 32.65-33.12h39.18v-11c0-8.83-5.44-14.35-14.15-14.35h-15.23c-7.62 0-12 4.42-12 12.14a5.18 5.18 0 01-5.44 5.52H437.9a5.18 5.18 0 01-5.44-5.52c0-22.08 12-34.22 34.83-34.22h19.59c22.86 0 34.83 12.14 34.83 35.33zm129.52 0c0-23.18-12-35.33-34.83-35.33H599c-16.33 0-21.77 13.25-21.77 13.25h-1.09v-5.54a5.18 5.18 0 00-5.44-5.52h-13.08a5.18 5.18 0 00-5.44 5.52V198a5.18 5.18 0 005.44 5.52h13.06a5.18 5.18 0 005.44-5.52v-68.41c0-11 7.62-18.77 18.5-18.77h18.5c8.71 0 14.15 5.52 14.15 14.35V198a5.18 5.18 0 005.44 5.52h13.06a5.18 5.18 0 005.44-5.52v-74zm104.48 45.26c0 8.83-5.44 14.35-14.15 14.35H718.7c-8.71 0-14.15-5.52-14.15-14.35v-44.18c0-8.83 5.44-14.35 14.15-14.35h22.86c8.71 0 14.15 5.52 14.15 14.35v3.31a5.18 5.18 0 005.44 5.52h13.06a5.18 5.18 0 005.44-5.52v-4.42c0-23.18-12-35.33-34.83-35.33h-29.38c-22.86 0-34.83 12.14-34.83 35.33v46.36c0 23.18 12 35.33 34.83 35.33h29.39c22.86 0 34.83-12.14 34.83-35.33V166a5.18 5.18 0 00-5.44-5.52h-13.07a5.18 5.18 0 00-5.44 5.52v3.31zm74-44.16v44.16c0 8.83 5.44 14.35 14.15 14.35h25c8.71 0 14.15-5.52 14.15-14.35v-44.18c0-8.83-5.44-14.35-14.15-14.35h-25c-8.71 0-14.15 5.52-14.15 14.35zm-23.94 45.26v-46.38c0-23.18 12-35.33 34.83-35.33h31.56c22.84 0 34.84 12.14 34.84 35.33v46.36c0 23.18-12 35.33-34.83 35.33H840.6c-22.86 0-34.83-12.14-34.83-35.33zm177.4-81.69c-16.33 0-21.77 13.25-21.77 13.25h-1.09v-5.54a5.18 5.18 0 00-5.44-5.52h-13.05a5.18 5.18 0 00-5.44 5.52V198a5.18 5.18 0 005.44 5.52h13.06a5.18 5.18 0 005.44-5.52v-67.31c0-11 7.62-18.77 18.5-18.77h15.24a5.18 5.18 0 005.44-5.52V94.26a5.18 5.18 0 00-5.44-5.52h-10.88z"/></svg>