<svg width="105" height="51" fill="none" xmlns="http://www.w3.org/2000/svg"><path d="M63.567 26.533c.94-.575.94-1.94 0-2.516L47.57 14.222a1.475 1.475 0 0 0-2.245 1.258v19.59a1.475 1.475 0 0 0 2.245 1.258l15.996-9.795z" fill="#fff"/><path fill-rule="evenodd" clip-rule="evenodd" d="M9.47.255C4.727.255.86 4.075.86 8.817v33.588c0 4.741 3.867 8.562 8.61 8.562h86.595c4.743 0 8.61-3.82 8.61-8.562V8.817c0-4.741-3.867-8.562-8.61-8.562H9.47zM4.548 8.817c0-2.68 2.191-4.874 4.922-4.874h86.595c2.73 0 4.921 2.194 4.921 4.874v33.588c0 2.68-2.19 4.874-4.92 4.874H9.47c-2.73 0-4.922-2.194-4.922-4.874V8.817z" fill="#fff"/></svg>