<svg fill="none" height="332" width="333" xmlns="http://www.w3.org/2000/svg"><path clip-rule="evenodd" d="m166.622 246.232c44.382 0 80.378-36.001 80.378-80.431s-35.996-80.43-80.378-80.43c-44.381 0-80.377 36-80.377 80.43s35.996 80.431 80.377 80.431zm0 2.564c45.812 0 82.95-37.158 82.95-82.995 0-45.836-37.138-82.994-82.95-82.994-45.811 0-82.95 37.158-82.95 82.994 0 45.837 37.139 82.995 82.95 82.995z" fill="#bbafd0" fill-rule="evenodd"/><path clip-rule="evenodd" d="m131.697 132.17-36.891-36.768 1.364-1.36 36.891 36.769zm106.012 105.661-36.891-36.769 1.364-1.359 36.891 36.768z" fill="#d6d6d6" fill-rule="evenodd"/><path d="m112.859 112.034a5.8 5.8 0 0 1 -8.185 0 5.754 5.754 0 0 1 0-8.157 5.8 5.8 0 0 1 8.185 0 5.754 5.754 0 0 1 0 8.157zm115.76 114.689a5.8 5.8 0 0 1 -8.184 0 5.754 5.754 0 0 1 0-8.157 5.801 5.801 0 0 1 8.184 0 5.754 5.754 0 0 1 0 8.157z" fill="#bbafd0"/></svg>