<svg id="Layer_1" xmlns="http://www.w3.org/2000/svg" viewBox="0 0 899.2 1415.7"><style>.st1{fill:#333}</style><path fill="none" d="M147.7 570.5h603.7V812H147.7z"/><path class="st1" d="M393.7 602.5c-8-7.8-18.5-13.8-29.7-17.9-11.3-4.1-23.4-6.3-35.7-6.8-12.3-.4-24.6.8-36.5 4.1-11.8 3.3-23.1 8.5-32.4 16.2l-6.6-7.4c10.2-9.5 22.5-16.2 35.4-20.6 13-4.4 26.6-6.6 40.2-7 13.7-.3 27.5 1.3 40.9 5.3 13.3 4 26.4 10.2 37.6 19.8l-13.2 14.3zm238.5-1.4c-9.1-7.8-20.2-13.2-31.9-16.7-11.7-3.4-24.1-4.9-36.3-4.7-12.2.3-24.4 2.3-35.7 6.2-11.3 3.9-21.9 9.7-30 17.4l-13-14.4c11.3-9.6 24.4-15.7 37.8-19.5 13.4-3.8 27.3-5.3 41-4.9 13.7.5 27.3 2.8 40.3 7.4 12.9 4.6 25.3 11.3 35.4 21.1l-7.6 8.1z"/><ellipse transform="matrix(.00679 -1 1 .00679 -95.001 1213.604)" class="st1" cx="563.4" cy="654.6" rx="36.6" ry="29.7"/><ellipse transform="matrix(.00679 -1 1 .00679 -327.492 976.331)" class="st1" cx="327.7" cy="653" rx="36.6" ry="29.7"/></svg>