<svg height="1415" width="899" xmlns="http://www.w3.org/2000/svg"><g fill="none" fill-rule="evenodd"><g fill-rule="nonzero" transform="translate(249 -12)"><circle cx="206.166" cy="206.391" fill="#8e2abe" r="145.299" transform="matrix(.70710678 -.70710678 .70710678 .70710678 -85.555852 206.231901)"/><path d="m206.2 74.5c35.2 0 68.4 13.7 93.3 38.6s38.6 58 38.6 93.3-13.7 68.4-38.6 93.3-58 38.6-93.3 38.6-68.4-13.7-93.3-38.6-38.6-58-38.6-93.3 13.7-68.4 38.6-93.3 58-38.6 93.3-38.6zm0-26.8c-87.7 0-158.7 71.1-158.7 158.7s71.1 158.7 158.7 158.7 158.7-71.1 158.7-158.7-71.1-158.7-158.7-158.7z" fill="#333"/></g><path d="m27 179.8h845.2v724.5h-845.2z"/><g fill-rule="nonzero"><path d="m750.3 495.9c0-166.1-134.6-300.7-300.7-300.7s-300.7 134.6-300.7 300.7v136.5l72.8-50.4 19.4-145.9c1.5-11.5 11.3-20 22.8-20l187.6 48.9 183.7-48.9c11.5 0 21.3 8.5 22.8 20l19.5 145.9 72.8 50.4z" fill="#8e2abe"/><path d="m449.6 221.3c37 0 72.8 7.2 106.6 21.5 32.6 13.8 61.9 33.5 87 58.7 25.2 25.2 44.9 54.4 58.7 87 14.3 33.7 21.5 69.6 21.5 106.6v118.7l26.9 18.5v-137.2c0-166.1-134.6-300.7-300.7-300.7s-300.7 134.6-300.7 300.7v137.2l26.9-18.5v-118.7c0-37 7.2-72.8 21.5-106.6 13.8-32.6 33.5-61.9 58.7-87 25.2-25.2 54.4-44.9 87-58.7 33.8-14.2 69.6-21.5 106.6-21.5" fill="#333"/></g></g></svg>