<?xml version="1.0" encoding="UTF-8"?>
<svg width="899px" height="1415px" viewBox="0 0 899 1415" version="1.1" xmlns="http://www.w3.org/2000/svg" xmlns:xlink="http://www.w3.org/1999/xlink">
    <!-- Generator: Sketch 49.3 (51167) - http://www.bohemiancoding.com/sketch -->
    <title>0-F4EA6E</title>
    <desc>Created with Sketch.</desc>
    <defs></defs>
    <g id="0-F4EA6E" stroke="none" stroke-width="1" fill="none" fill-rule="evenodd">
        <g id="000000" transform="translate(27.000000, -12.000000)">
            <g id="Group" transform="translate(222.000000, 0.000000)" fill-rule="nonzero">
                <circle id="Oval" fill="#F4EA6E" transform="translate(206.166060, 206.391220) rotate(-45.000000) translate(-206.166060, -206.391220) " cx="206.16606" cy="206.39122" r="145.298607"></circle>
                <path d="M206.2,74.5 C241.4,74.5 274.6,88.2 299.5,113.1 C324.4,138 338.1,171.1 338.1,206.4 C338.1,241.7 324.4,274.8 299.5,299.7 C274.6,324.6 241.5,338.3 206.2,338.3 C170.9,338.3 137.8,324.6 112.9,299.7 C88,274.8 74.3,241.7 74.3,206.4 C74.3,171.1 88,138 112.9,113.1 C137.8,88.2 170.9,74.5 206.2,74.5 Z M206.2,47.7 C118.5,47.7 47.5,118.8 47.5,206.4 C47.5,294 118.6,365.1 206.2,365.1 C293.8,365.1 364.9,294 364.9,206.4 C364.9,118.8 293.8,47.7 206.2,47.7 Z" id="Shape" fill="#333333"></path>
            </g>
            <g id="Group" transform="translate(0.000000, 191.000000)">
                <rect id="Rectangle-path" x="0" y="0.8" width="845.2" height="724.5"></rect>
                <path d="M723.3,316.9 C723.3,150.8 588.7,16.2 422.6,16.2 C256.5,16.2 121.9,150.8 121.9,316.9 L121.9,453.4 L194.7,403 L214.1,257.1 C215.6,245.6 225.4,237.1 236.9,237.1 L424.5,286 L608.2,237.1 C619.7,237.1 629.5,245.6 631,257.1 L650.5,403 L723.3,453.4 L723.3,316.9 Z" id="Shape" fill="#F4EA6E" fill-rule="nonzero"></path>
                <path d="M422.6,42.3 C459.6,42.3 495.4,49.5 529.2,63.8 C561.8,77.6 591.1,97.3 616.2,122.5 C641.4,147.7 661.1,176.9 674.9,209.5 C689.2,243.2 696.4,279.1 696.4,316.1 L696.4,434.8 L723.3,453.3 L723.3,316.1 C723.3,150 588.7,15.4 422.6,15.4 C256.5,15.4 121.9,150 121.9,316.1 L121.9,453.3 L148.8,434.8 L148.8,316.1 C148.8,279.1 156,243.3 170.3,209.5 C184.1,176.9 203.8,147.6 229,122.5 C254.2,97.3 283.4,77.6 316,63.8 C349.8,49.6 385.6,42.3 422.6,42.3" id="Shape" fill="#333333" fill-rule="nonzero"></path>
            </g>
        </g>
    </g>
</svg>