<svg width="899" height="1415" xmlns="http://www.w3.org/2000/svg"><g fill="none" fill-rule="evenodd"><path d="M27 180.2h845.2v724.5H27z"/><path d="M750.3 496.3c0-166.1-134.6-300.7-300.7-300.7S148.9 330.2 148.9 496.3v136.5l72.8-50.4 19.4-145.9c1.5-11.5 11.3-20 22.8-20h371.3c11.5 0 21.3 8.5 22.8 20l19.5 145.9 72.8 50.4V496.3z" fill="#4E3521" fill-rule="nonzero"/><path d="M449.6 221.7c37 0 72.8 7.2 106.6 21.5 32.6 13.8 61.9 33.5 87 58.7 25.2 25.2 44.9 54.4 58.7 87 14.3 33.7 21.5 69.6 21.5 106.6v118.7l26.9 18.5V495.5c0-166.1-134.6-300.7-300.7-300.7S148.9 329.4 148.9 495.5v137.2l26.9-18.5V495.5c0-37 7.2-72.8 21.5-106.6 13.8-32.6 33.5-61.9 58.7-87 25.2-25.2 54.4-44.9 87-58.7 33.8-14.2 69.6-21.5 106.6-21.5" fill="#333" fill-rule="nonzero"/></g></svg>