<?xml version="1.0" encoding="UTF-8"?>
<svg width="899px" height="1415px" viewBox="0 0 899 1415" version="1.1" xmlns="http://www.w3.org/2000/svg" xmlns:xlink="http://www.w3.org/1999/xlink">
    <!-- Generator: Sketch 49.3 (51167) - http://www.bohemiancoding.com/sketch -->
    <title>8-back-8E2ABE</title>
    <desc>Created with Sketch.</desc>
    <defs></defs>
    <g id="8-back-8E2ABE" stroke="none" stroke-width="1" fill="none" fill-rule="evenodd">
        <g id="000000" transform="translate(-1.000000, 58.000000)">
            <g id="Group" fill-rule="nonzero">
                <path d="M453.6,826.9 C448.3,826.9 443,826.7 437.7,826.2 C374.3,820.5 309.1,781.1 249.1,712.2 L241.2,703.1 L231.3,709.9 C226.5,713.2 220.9,714.9 214.9,714.9 C213.9,714.9 212.9,714.9 212,714.8 C210.9,714.7 209.8,714.6 208.6,714.4 C180.9,709.5 150.6,674.3 141.2,635.9 C140.9,634.7 140.6,633.4 140.4,632.2 C135.7,609.7 123.2,588 106.1,572.7 L106,572.6 C78.9,548.8 58.4,515.9 49.6,482.3 C45.5,466.6 44.4,451.8 46.4,438.4 C50.1,415.1 44.9,388.9 31.8,364.5 C26.1,354 21.9,343.3 19.1,332.6 C10.1,297.2 14.5,261.2 30.3,240.8 C39.9,228.4 53.3,222.1 70,222.1 C71.5,222.1 73.1,222.2 74.6,222.3 L84,222.9 L87.8,214.3 C90,209.2 90.3,203.4 88.6,197.7 C87.3,193.4 86.2,189.1 85.4,184.9 C80.6,160.9 86.7,142.1 104.1,127.4 C119.5,114.3 143.8,104.3 176.3,97.6 C196.3,93.5 212.9,82 222.9,65.1 C242.5,33 282.2,13.8 329.1,13.8 C333.2,13.8 337.3,13.9 341.4,14.2 C368.8,16.1 395.6,24.2 418.9,37.7 C424.8,41.2 431.7,43.3 438.7,43.7 C439.8,43.8 440.9,43.8 441.9,43.8 C444,43.8 446.2,43.7 448.3,43.4 C452.7,42.8 457.3,42.5 461.8,42.5 C464.2,42.5 466.6,42.6 469,42.8 C484.4,43.9 499.3,48.3 512.2,55.7 C519.3,59.8 527.4,62.3 535.7,62.8 C537,62.9 538.2,62.9 539.5,62.9 C551,62.9 562,59.2 570.5,52.6 C585.9,40.8 606.1,34.3 627.5,34.3 C629.9,34.3 632.4,34.4 634.9,34.6 C660.6,36.4 683.4,47.4 697.4,64.8 C708.4,78.4 712.9,94.3 710.5,110.9 L710.5,111 L710.5,111.2 C709,121.8 715.5,131.6 726.1,134.5 C772.9,147.8 805.1,182.5 810.2,225.1 C811.1,232.9 816.8,239.2 824.4,241.1 L825.5,241.7 L828.2,241.7 C849,243.3 866.2,252.2 876.7,266.9 C886.5,280.6 889.3,298 884.6,315.9 C882.9,322.3 880.4,328.6 877.1,334.7 C864.4,358.1 860.7,383.8 866.5,407.3 C870.2,422.8 869.6,440.3 864.9,457.7 C856.8,487.3 837.9,515.3 813,534.7 L812.9,534.8 C792.1,551.2 778.7,577.4 777.9,603.1 C777.6,611.9 776.4,621.1 774.3,630.3 C759.2,696.2 706.7,749.8 657.3,749.8 C657.3,749.8 657.3,749.8 657.3,749.8 C656,749.8 654.6,749.8 653.3,749.7 C652.8,749.7 652.2,749.6 651.6,749.6 C645.7,749.1 640,747.8 634.5,745.8 L626.5,742.8 L620.4,748.7 C567.7,799.8 510,826.9 453.6,826.9 Z" id="Shape" fill="#8E2ABE"></path>
                <path d="M329,27.2 C332.7,27.2 336.6,27.3 340.4,27.6 C365.8,29.4 390.6,36.9 412.1,49.4 C419.8,53.9 428.7,56.6 437.7,57.2 C439.1,57.3 440.5,57.3 441.9,57.3 C444.6,57.3 447.4,57.1 450.1,56.7 C453.9,56.2 457.8,55.9 461.8,55.9 C463.9,55.9 466,56 468.1,56.1 C481.4,57 494.3,60.9 505.5,67.3 C514.4,72.4 524.5,75.5 534.8,76.2 C536.4,76.3 538,76.4 539.5,76.4 C539.5,76.4 539.5,76.4 539.5,76.4 C553.9,76.4 567.8,71.7 578.7,63.3 C591.8,53.3 609.1,47.7 627.6,47.7 C629.7,47.7 631.9,47.8 634.1,47.9 C656.1,49.4 675.4,58.6 687.1,73.1 C693.1,80.5 699.7,92.8 697.4,109 C697.4,109 697.4,109 697.4,109 C696.2,117.6 698.2,126.2 703.1,133.4 C707.7,140.1 714.7,145.1 722.6,147.3 C764.1,159.1 792.6,189.5 797,226.6 C798.8,241.9 811.3,253.8 826.9,254.9 L828.8,228.1 L826.9,254.9 C843.8,256.1 857.6,263.1 865.8,274.5 C873.2,284.9 875.3,298.3 871.6,312.3 C870.2,317.7 868.1,323 865.3,328.1 C851.1,354.4 846.9,383.5 853.5,410.2 C856.7,423.5 856.1,438.6 852,453.9 C844.7,480.7 827.5,506.2 804.8,523.8 L804.7,523.9 L804.6,524 C792.8,533.3 782.9,545.4 776,559 C769,572.7 765,587.7 764.6,602.3 C764.3,610.3 763.2,618.6 761.3,626.9 C754.4,657.1 739,685.2 718.1,706.1 C699,725.1 676.9,736 657.4,736 C656.3,736 655.2,736 654.2,735.9 C653.8,735.9 653.3,735.8 652.9,735.8 C648.3,735.4 643.7,734.4 639.4,732.8 L623.4,726.8 L611.2,738.7 C586.3,762.9 560.4,781.5 534,794.1 C507.4,806.8 480.4,813.2 453.9,813.2 C449,813.2 444.1,813 439.2,812.5 C409.3,809.8 378.6,798.9 348,780.2 C317.8,761.6 288,735.7 259.6,703 L243.8,684.9 L224,698.5 C221.4,700.3 218.6,701.1 215.2,701.1 C215.2,701.1 215.2,701.1 215.2,701.1 C214.6,701.1 214,701.1 213.4,701 C212.7,700.9 211.9,700.8 211.2,700.7 C191.1,697.2 163.5,668.8 154.6,632.3 C154.3,631.2 154.1,630.2 153.9,629.1 C148.6,603.8 134.6,579.5 115.4,562.3 L115.3,562.2 L115.2,562.1 C90.1,540 71,509.6 62.9,478.5 C59,465 58,452 59.7,440.4 C63.8,414.3 58.1,385 43.6,358.1 L43.6,358 L43.6,357.9 C38.5,348.4 34.6,338.7 32.2,329.1 C28.1,313.2 27,297.1 28.8,282.4 C30.5,268.6 34.7,257 41,248.9 C48,239.8 57.5,235.4 70.1,235.4 C71.3,235.4 72.6,235.4 73.8,235.5 L92.7,236.7 L100.2,219.4 C103.7,211.5 104.1,202.3 101.5,193.6 C100.3,189.8 99.4,185.9 98.6,182.1 C94.8,162.8 99.1,149 112.8,137.4 C126.5,125.8 148.7,116.8 178.9,110.6 C202.7,105.8 222.3,92 234.3,71.9 C251.6,43.9 287,27.2 329,27.2 Z M329,0.3 C276.1,0.3 232.8,22.8 211.3,58.1 C203.5,71.3 190.3,80.9 173.5,84.3 C112.7,96.8 59.7,124.6 72.2,187.4 C73.1,192.1 74.3,196.8 75.7,201.4 C76.5,204 76.4,206.5 75.5,208.7 C73.6,208.6 71.8,208.5 70,208.5 C10,208.5 -9.5,275.2 6,335.8 C9.1,347.8 13.8,359.6 19.9,370.7 C31.8,392.9 36.3,416.1 33.1,436.2 C30.9,451 31.9,467.7 36.6,485.6 C46.5,523.4 69.5,558.3 97.1,582.6 C112.2,596.1 123.2,615.4 127.2,634.8 C127.5,636.2 127.8,637.5 128.1,638.9 C138.9,683 172.9,721.6 206.2,727.4 C207.7,727.7 209.3,727.9 210.8,728 C212.2,728.1 213.6,728.2 214.9,728.2 C223.9,728.2 232,725.6 238.9,720.8 C298,788.7 366.3,833.1 436.5,839.4 C442.2,839.9 447.9,840.2 453.6,840.2 C516.3,840.2 576.7,809.6 629.7,758 C636.2,760.4 643.1,762 650.3,762.6 C651,762.7 651.6,762.7 652.3,762.7 C653.9,762.8 655.5,762.8 657.1,762.8 C712.7,762.8 770.5,705.6 787.2,632.9 C789.5,622.8 790.8,612.8 791.2,603.2 C791.9,581.4 803.2,559.2 821.1,545 C847.2,524.7 868.5,495 877.8,460.9 C883.3,440.6 883.7,421.2 879.5,403.8 C874.5,383.9 877.7,361.3 888.8,340.8 C892.6,333.9 895.5,326.6 897.5,318.9 C909.7,272.3 878.9,231.5 828.7,227.9 C828.7,227.9 828.7,227.9 828.7,227.9 C825.9,227.7 823.8,225.8 823.5,223.3 C817.9,175.4 782,136.1 729.7,121.3 C725.6,120.1 723.2,116.6 723.8,112.8 C723.8,112.8 723.8,112.8 723.8,112.7 C730.6,65.9 691.2,24.7 635.8,20.9 C633,20.7 630.2,20.6 627.5,20.6 C602.4,20.6 579.4,28.5 562.2,41.8 C555.8,46.8 547.7,49.3 539.4,49.3 C538.4,49.3 537.5,49.3 536.5,49.2 C530.4,48.8 524.3,47 518.8,43.8 C504.6,35.6 487.8,30.4 469.9,29.1 C467.2,28.9 464.4,28.8 461.8,28.8 C456.6,28.8 451.4,29.2 446.4,29.8 C444.9,30 443.4,30.1 441.9,30.1 C441.1,30.1 440.4,30.1 439.6,30 C434.7,29.7 429.9,28.2 425.6,25.7 C401.3,11.6 372.7,2.5 342.3,0.4 C337.8,0.5 333.4,0.3 329,0.3 Z" id="Shape" fill="#333333"></path>
            </g>
            <rect id="Rectangle-path" x="28" y="145.2" width="845.2" height="724.5"></rect>
        </g>
    </g>
</svg>