<svg viewBox="0 0 899 1415" xmlns="http://www.w3.org/2000/svg"><g fill="#4e3521"><path d="m614.2 145.3s56.9-95.1 160.3-11.1 67.6 852.5 67.6 852.5h-78.1s60-591.5-3-737-83.4-64.4-83.4-64.4z"/><path d="m750.3 495.9c0-166.8-135.7-301.8-302.8-300.7-165.6 1.1-298.6 137-298.6 302.6v134.6l42.8-30.4 19.4-145.9c1.5-11.5 11.3-20 22.8-20l130.2-44.1c56.5-9.2 114.2-9.2 170.8 0l130.3 44.1c11.5 0 21.3 8.5 22.8 20l19.5 145.9 42.8 30.4z"/><path d="m291.9 145.3s-56.9-95.1-160.3-11.1-67.7 852.4-67.7 852.4h78.1s-60-591.5 3-737 83.4-64.4 83.4-64.4z"/></g><path d="m27 179.8h845.2v724.5h-845.2z" fill="none"/><path d="m449.6 221.3c37 0 72.8 7.2 106.6 21.5 32.6 13.8 61.9 33.5 87 58.7 25.2 25.2 44.9 54.4 58.7 87 14.3 33.7 21.5 69.6 21.5 106.6v118.7l26.9 18.5v-137.2c0-166.1-134.6-300.7-300.7-300.7s-300.7 134.6-300.7 300.7v137.2l26.9-18.5v-118.7c0-37 7.2-72.8 21.5-106.6 13.8-32.6 33.5-61.9 58.7-87 25.2-25.2 54.4-44.9 87-58.7 33.8-14.2 69.6-21.5 106.6-21.5" fill="#333"/><path d="m624.9 269-63.5-40c-5.6-3.5-7.3-11-3.8-16.5l40-63.5c3.5-5.6 11-7.3 16.5-3.8l63.5 40c5.6 3.5 7.3 11 3.8 16.5l-40 63.5c-3.4 5.6-10.9 7.3-16.5 3.8zm-343.7 0 63.5-40c5.6-3.5 7.3-11 3.8-16.5l-40-63.5c-3.5-5.6-11-7.3-16.5-3.8l-63.5 40c-5.6 3.5-7.3 11-3.8 16.5l40 63.5c3.4 5.6 10.9 7.3 16.5 3.8zm129.1-63.6 74.9 3.4c6.6.3 12.2-4.8 12.5-11.4l3.4-74.9c.3-6.6-4.8-12.2-11.4-12.5l-74.9-3.4c-6.6-.3-12.2 4.8-12.5 11.4l-3.4 74.9c-.3 6.5 4.8 12.1 11.4 12.5z" fill="#333"/></svg>