<svg data-name="HAIR BACK" xmlns="http://www.w3.org/2000/svg" viewBox="0 0 899.21 1415.66"><path d="M859.284 527.493a49.257 49.257 0 0 0-8.183-20.335c-8.218-11.303-20.756-8.656-32.486-7.437-15.61 1.622-31.224 3.19-47.478 4.847a56.327 56.327 0 0 0-1.234-7.207c-2.77-8.882-4.484-18.4-8.953-26.353-3.9-6.941-4.45-11.695-.645-18.856 12.2-22.956-1.128-43.946-26.942-43.52a41.616 41.616 0 0 1-5.003-.502l.295-1.902a31.264 31.264 0 0 1 3.148.18c19.957 3.109 35.74-11.489 33.571-33.63-1.592-16.251-4.831-32.34-7.515-49.654 11.147-3.982 22.604-8.752 34.465-12.09 8.724-2.453 18.123-2.426 26.958-4.586 13.804-3.374 21.912-16.535 19.844-30.707a27.682 27.682 0 0 0-27.826-24.007c-17.76.327-35.036 3.177-51.52 10.075-11.676 4.887-23.478 9.494-35.004 14.712-5.119 2.317-9.124 3.217-12.534-2.345-.946-1.544-3.11-2.367-3.969-3.93-.827-1.51-1.601-4.249-.835-5.243 6.982-9.06 14.165-17.98 21.676-26.603 1.198-1.374 4.318-1.487 6.547-1.479 10.348.038 20.699.608 31.041.453 15.01-.225 27.45-13.002 27.33-27.564-.132-15.897-12.289-28.353-27.929-28.634-7.998-.143-16.085.393-23.973-.617-17.503-2.24-33.5 1.324-46.996 12.448-9.194 7.578-17.003 16.838-25.438 25.338-1.618 1.631-3.123 4.414-4.934 4.641-9.957 1.251-19.994 1.873-30.003 2.71a79.358 79.358 0 0 1 18.618-14.253c3.251-1.763 7.915-.694 11.6-1.925 14.12-4.718 21.993-17.134 20.079-30.914-1.966-14.14-13.179-23.531-28.457-24.336-18.868-.994-34.296 7.167-48.23 18.443-8.833 7.148-16.613 15.596-25.11 23.694a34.918 34.918 0 0 1 1.433-4.38c9.107-19.06 9.657-38.922 5.494-59.186-3.263-15.888-13.771-27.476-23.646-39.457-10.231-12.412-26.72-14.831-39.564-5.584-12.041 8.67-14.682 25.165-5.852 38.45 3.11 4.677 7.376 8.605 10.322 13.366 2.417 3.907 3.66 8.54 5.421 12.848-2.346 1.052-2.96 1.524-3.617 1.59-6.076.62-12.149 1.336-18.242 1.71-32.162 1.974-54.993 17.086-67.162 47.378-.875 2.179-1.989 4.262-2.991 6.39l-1.845-.76c.988-2.966 1.476-6.235 3.055-8.844 5.835-9.641 11.982-19.095 18.1-28.562 8.323-12.878 5.762-29.653-5.852-37.812-14.083-9.894-30.066-7.981-39.768 5.434-8.907 12.316-17.117 25.139-25.642 37.75.201.137-.333-.037-.54-.4-.815-1.418-1.512-2.904-2.28-4.35-8.942-16.863-18.345-33.492-33.05-46.118-12.486-10.722-27.669-14.45-43.47-11.485-12.782 2.397-20.944 14.527-20.841 26.837.109 13.168 8.184 23.338 21.423 27.262 3.264.967 7.797 1.553 9.303 3.89 6.964 10.804 13.17 22.108 19.333 33.404.69 1.266.033 4.565-1.08 5.31a35.967 35.967 0 0 0-15.49 23.374c-11.695-6.174-23.061-12.124-34.357-18.204-1.332-.717-3.011-1.99-3.294-3.276-4.76-21.611-20.962-31.686-40.056-36.179a143.302 143.302 0 0 0-46.038-3.474c-16.746 1.646-32.234-.075-48.35-4.099-20.83-5.2-38.283 13.718-32.29 34.303 1.958 6.729 6.88 12.595 9.59 17.35-8.766 4.79-18.286 10.05-27.878 15.178a20.343 20.343 0 0 1-5.316 1.686c-13.037 2.796-26.148 5.272-39.117 8.352-13.063 3.103-20.728 13.59-20.684 27.303.04 12.438 8.19 23.866 20.526 26.062 7.127 1.268 14.782-.298 22.186-.784 3.613-.237 7.225-2.064 9.857 2.496 6.509 11.278 16.394 19.17 26.927 26.475a10.007 10.007 0 0 1 3.761 7.056c.103 12.097 2.778 23.561 9.413 33.505 5.963 8.938 13.399 16.886 20.032 25.39 1.473 1.89 3.556 4.498 3.223 6.401-1.842 10.52-.609 20.425 4.063 28.586-4.97 6.2-9.234 11.705-13.74 17.004-1.021 1.2-2.957 2.498-4.345 2.37-9.761-.899-18.434 2.342-25.658 8.145-15.563 12.5-31.05 25.191-45.514 38.916-6.445 6.115-11.484 14.4-15.176 22.594-9.746 21.629 1.166 41.948 24.535 44.684 14.832 1.736 30.008.539 45.03.654 1.511.011 3.022.001 4.65.001-1.52 8.005-3.146 15.315-4.26 22.7-2.1 13.91-2.966 27.814 6.325 39.827 2.75 3.557 3.164 6.61 2.185 10.906-4.545 19.93-5.48 39.572 6.52 57.727.803 1.215.842 3.052.914 4.615.565 12.358.691 24.751 1.759 37.064.367 4.236-.564 6.095-4.106 8.173-15.758 9.248-29.91 20.493-40.322 35.748-6.954 10.19-11.001 21.56-8.423 33.952 3.917 18.823 16.685 29.498 34.711 33.948 16.817 4.151 33.792 7.7 50.787 11.062 3.986.788 5.482 2.56 7.523 5.892 4.072 6.65 8.806 13.325 14.706 18.273 3.778 3.168 6.42 5.95 7.913 10.602 7.05 21.986 22.1 36.971 44.535 40.39 12.3 1.875 18.946 7.05 25.716 16.073 7.337 9.78 18.071 15.443 30.37 10.721 7.624-2.927 14.02-9.052 20.967-13.742 1.208-1.15 3.373-.282 5.577.473 19.554 6.696 37.614-4.11 39.66-24.335.507-5.019 2.414-6.718 6.674-8.08q32.424-10.372 64.696-21.212c7.812-2.634 15.392-5.957 23.264-9.038 2.848 20.528 10.858 31.912 27.36 38.74a72.746 72.746 0 0 0 16.176 4.731c39.565 6.304 78.159 1.527 116.072-10.64a36.473 36.473 0 0 1 10.21-1.867c10.991-.229 21.997.174 32.985-.13 15.619-.43 28.163-7.449 36.995-20.046 8.39-11.967 15.714-24.68 23.606-37.003a7.6 7.6 0 0 1 3.528-3.126c17.338-5.608 20.699-24.59 19.787-40.446-.858-14.912-7.091-27.558-17.652-38.722 2.85-1.124 5.195-2.117 7.586-2.981 16.733-6.047 31.356-15.349 42.228-29.522 25.498-33.24 28.47-55.593 4.82-91.944-8.094-12.442-19.461-22.83-29.8-33.711-8.158-8.585-8.476-8.283-1.472-18.793.795.165 1.678.385 2.574.53 16.15 2.615 32.387 7.81 48.434 7.276 30.601-1.02 40.54-12.83 47.455-34.923 4.595-14.68 4.977-29.725 2.51-44.624zm-644.77-299.257c.634 13.691 5.414 24.424 17.793 33.507-6.034 0-10.051.15-14.044-.097a4.813 4.813 0 0 1-3.204-2.035c-11.471-17.947-11.45-17.961-27.352-28.412z" fill="#0ecf7c" stroke="#333" stroke-miterlimit="10" stroke-width="25.28"/></svg>