<svg height="1415.66" width="899.21" xmlns="http://www.w3.org/2000/svg"><path d="m2.661 28.548c-1.2-.833-1.788-6.811-1.788-6.811s-1.005-6.443-.858-7.766 2.302-3.186 3.013-3.062c-1.445-2.081 1.494-2.865 1.494-2.865s2.792-2.523 9.259-3.895c.612-.049-.883-.637-2.164-.806.449-.885 3.267.609 3.267.609s-1.127-1.2-2.426-1.567c.375-.382 2.086.714 4.018 1.444 3.519 1.332 6.678 1.205 7.731 2.675.515.588.059 1.661.793 1.76.734.098 4.997 1.273 6.369 5.462-1.593-1.812-2.72-1.738-2.72-1.738s2.475 2.817 2.426 4.875c-.019.79-.801 1.406-1.422 2.523-.993 1.787-2.021 4.144-2.203 5.168-.296 1.666-.638 4.41-1.349 4.508s-.587-10.729-.489-11.416c.245-1.003-4.312-2.179-4.312-2.179s3.331 2.131 2.522 4.164c-.883-2.353-2.106-2.377-2.106-2.377s2.572 4.948 1.053 5.903c-.883-5.56-3.135-6.713-4.948-7.544-1.813-.834-5.757-.491-8.06.367-2.302.857-4.679.172-4.679.172l.393 2.107-1.103-.883-.22 1.348s.709 1.272.612 2.009c-.71-.882-1.029-.882-1.029-.882s.613 1.005.343 1.543c-.343-.71-.931-.465-.931-.465s.249 7.546-.486 7.619z" fill="#3596ec" stroke="#333" stroke-linecap="square" stroke-width="1.142" transform="matrix(24.40556 0 0 22.8543 97.04 52.167)"/></svg>