<svg width="899" height="1415" xmlns="http://www.w3.org/2000/svg"><g fill="none" fill-rule="evenodd"><ellipse stroke="#333" stroke-width="25" fill="#3596EC" cx="449.5" cy="169.5" rx="117.5" ry="120.5"/><path d="M27 135.2h845.2v724.5H27z"/><path d="M750.3 451.3c0-166.1-134.6-300.7-300.7-300.7S148.9 285.2 148.9 451.3v136.5l72.8-50.4 19.4-145.9c1.5-11.5 11.3-20 22.8-20h371.3c11.5 0 21.3 8.5 22.8 20l19.5 145.9 72.8 50.4V451.3z" fill="#3596EC"/><path d="M449.6 176.7c37 0 72.8 7.2 106.6 21.5 32.6 13.8 61.9 33.5 87 58.7 25.2 25.2 44.9 54.4 58.7 87 14.3 33.7 21.5 69.6 21.5 106.6v118.7l26.9 18.5V450.5c0-166.1-134.6-300.7-300.7-300.7S148.9 284.4 148.9 450.5v137.2l26.9-18.5V450.5c0-37 7.2-72.8 21.5-106.6 13.8-32.6 33.5-61.9 58.7-87 25.2-25.2 54.4-44.9 87-58.7 33.8-14.2 69.6-21.5 106.6-21.5" fill="#333"/><path d="M738 429.124c27.584 6.361 50.018 3.435 67.3-8.78 17.282-12.213 39.716-40.995 67.3-86.344-14.303 110.006-29.721 186.25-46.254 228.732-16.533 42.482-45.982 81.524-88.346 117.125V429.124z" stroke="#333" stroke-width="20" fill="#3596EC"/></g></svg>