<?xml version="1.0" standalone="no"?><!-- Generator: Gravit.io --><svg xmlns="http://www.w3.org/2000/svg" xmlns:xlink="http://www.w3.org/1999/xlink" style="isolation:isolate" viewBox="0 0 899 1415" width="899" height="1415"><defs><clipPath id="_clipPath_viZriZ4ERlj6v6FH7MxzXT6b17MmREEa"><rect width="899" height="1415"/></clipPath></defs><g clip-path="url(#_clipPath_viZriZ4ERlj6v6FH7MxzXT6b17MmREEa)"><path d=" M 564.7 1111 C 933.9 778.3 814 383.5 814 383.5 C 721.7 80.8 449.5 99.6 449.5 99.6 C 449.5 99.6 177.3 80.8 85 383.5 C 85 383.5 -34.9 778.3 334.3 1111 C 334.3 1111 206.1 849.2 200 649.6 L 200 542 C 200 522.2 215.5 505.5 236.6 502.5 C 374.6 459.9 524 459.9 662.1 502.5 C 683.2 505.5 698.7 522.3 698.7 542 L 698.7 649.6 C 693 849.2 564.7 1111 564.7 1111 Z " fill="rgb(240,230,255)" vector-effect="non-scaling-stroke" stroke-width="26.974" stroke="rgb(51,51,51)" stroke-linejoin="miter" stroke-linecap="butt" stroke-miterlimit="4"/></g></svg>