
<svg width="1033px" height="284px" viewBox="0 0 1033 284" version="1.1" xmlns="http://www.w3.org/2000/svg" xmlns:xlink="http://www.w3.org/1999/xlink">
    <g id="Page-1" stroke="none" stroke-width="1" fill="none" fill-rule="evenodd">
        <g id="arweave" transform="translate(-2.000000, -1.000000)" fill-rule="nonzero">
            <g id="layer1" transform="translate(0.523104, 0.023307)">
                <g id="g874" transform="translate(0.196704, 0.759721)">
                    <polygon id="path831" fill="#5594B0" points="328.272486 0.46344351 164.676927 0.46344351 246.397466 47.7346815"></polygon>
                    <g id="g851" fill="#3C7B8D">
                        <polygon id="path821" points="1.23584936 0.46344351 164.831408 0.46344351 83.1108695 47.7346815"></polygon>
                        <polygon id="path837" points="246.397466 142.122676 164.676927 283.781909 164.676927 189.393914"></polygon>
                    </g>
                    <polyline id="path843" fill="#7DBCD8" points="82.9563883 47.7346815 82.9563883 142.122676 164.676927 94.8514384 164.676927 0.46344351 82.9563883 47.7346815"></polyline>
                    <g id="g860" transform="translate(81.875020, 0.000000)" fill="#2D6C88">
                        <polygon id="path835" points="82.8019071 283.627428 1.08136819 142.122676 82.8019071 189.393914 82.8019071 283.627428"></polygon>
                        <polyline id="path845" points="164.522446 47.7346815 164.522446 142.122676 82.8019071 94.8514384 82.8019071 0.46344351 164.522446 47.7346815"></polyline>
                    </g>
                    <g id="g856" fill="#69A8C4">
                        <polygon id="path829" points="82.9563883 142.122676 1.23584936 0.46344351 82.9563883 47.7346815"></polygon>
                        <polygon id="path833" points="246.397466 142.122676 328.118005 0.46344351 246.397466 47.7346815"></polygon>
                        <polyline id="path847" points="164.676927 189.239433 82.9563883 142.122676 164.676927 94.8514384 246.397466 142.122676 164.676927 189.239433"></polyline>
                    </g>
                </g>
            </g>
            <g id="Group" transform="translate(330.000000, 114.000000)" fill="#fff">
                <path d="M29,72.2 L23.3,87 L0.5,87 L37.1,0.3 L57.5,0.3 L94,87 L71.3,87 L65.5,72.2 L29,72.2 Z M47.2,25.3 L36.1,54 L58.4,54 L47.2,25.3 Z" id="Shape"></path>
                <path d="M135,62.1 L135,87.1 L113.6,87.1 L113.6,0.9 L151.4,0.9 C172.7,0.9 187,12.6 187,31.2 C187,43.2 180.8,52.7 170.5,57.9 L192.7,87.1 L166.8,87.1 L148.3,62.1 L135,62.1 Z M150.9,42.8 C159.1,42.8 165.7,38.2 165.7,31.1 C165.7,24.1 159.1,19.7 150.9,19.7 L135,19.7 L135,42.8 L150.9,42.8 L150.9,42.8 Z" id="Shape"></path>
                <polygon id="Path" points="304.6 87.6 284 87.6 266.6 35 249.2 87.6 228.5 87.6 200.6 0.9 223.3 0.9 239.4 54.5 257.6 1.1 257.6 0.8 275.3 0.8 293.5 54.3 309.6 0.8 332.3 0.8"></polygon>
                <polygon id="Path" points="374.4 35.2 412.5 35.2 412.5 53.5 374.4 53.5 374.4 68.5 418.1 68.5 418.1 87 353 87 353 0.8 418.1 0.8 418.1 19.4 374.4 19.4"></polygon>
                <path d="M463.2,72.2 L457.5,87 L434.7,87 L471.3,0.3 L491.7,0.3 L528.2,87 L505.5,87 L499.7,72.2 L463.2,72.2 Z M481.4,25.3 L470.3,54 L492.6,54 L481.4,25.3 Z" id="Shape"></path>
                <polygon id="Path" points="583.9 87.6 562.4 87.6 525 0.9 548.6 0.9 573.2 59.3 597.8 0.9 621.4 0.9"></polygon>
                <polygon id="Path" points="661.1 35.2 699.2 35.2 699.2 53.5 661.1 53.5 661.1 68.5 704.8 68.5 704.8 87 639.7 87 639.7 0.8 704.8 0.8 704.8 19.4 661.1 19.4"></polygon>
            </g>
        </g>
    </g>
</svg>