<svg viewBox="0 0 300.113 172.423" xmlns="http://www.w3.org/2000/svg" xmlns:xlink="http://www.w3.org/1999/xlink"><linearGradient id="a" gradientTransform="matrix(1 0 0 -1 0 -3127.634)" gradientUnits="userSpaceOnUse" x1="35.293" x2="125.625" y1="-3154.505" y2="-3244.837"><stop offset="0" stop-color="#00d3e6"/><stop offset="1" stop-color="#2b4cd4"/></linearGradient><path d="m132.168 24.75a8.25 8.25 0 1 1 -8.25-8.25 8.25 8.25 0 0 1 8.25 8.25zm-16.5 41.25a49.5 49.5 0 1 1 -49.5-49.5 49.5 49.5 0 0 1 49.5 49.5zm-16.5 0a33 33 0 1 0 -33 33 33 33 0 0 0 33-33zm14.08 51.92a8.23 8.23 0 0 0 -11.639-.021l-.021.021-33 33a8.245 8.245 0 0 0 11.66 11.66l33-33a8.231 8.231 0 0 0 .021-11.639z" fill="url(#a)"/><path d="m161.628 66.312c-5.084 0-9.16-2.83-9.16-8.681v-9.831h-4.844v-5.756h4.844v-6.666h6.57v6.666h6.762v5.756h-6.762v8.537c0 2.926 1.247 4.076 4.076 4.076a7.509 7.509 0 0 0 2.686-.431v5.8a13.609 13.609 0 0 1 -4.172.53zm9.831-36.257h6.57v14.724a8.007 8.007 0 0 1 6.859-3.262c5.8 0 9.255 4.221 9.255 10.455v14.052h-6.57v-12.949c0-3.453-1.486-5.563-4.221-5.563-3.021 0-5.323 2.206-5.323 6.81v11.7h-6.57zm40.718 36.5a12.115 12.115 0 0 1 -12.565-12.564 12.186 12.186 0 0 1 12.612-12.47c7.051 0 12.854 5.036 12.518 14.052h-18.7c.288 2.83 2.4 5.275 6.475 5.275 2.3 0 4.316-1.007 5.083-2.638h6.858c-1.443 4.84-6.191 8.341-12.281 8.341zm-5.9-15.3h11.271a5.487 5.487 0 0 0 -5.516-4.412 5.6 5.6 0 0 0 -5.754 4.409zm-50.357 49.231c.815 2.446 2.685 3.549 5.419 3.549 2.878 0 5.419-1.871 5.419-5.659v-2.83a8.59 8.59 0 0 1 -6.954 3.165c-6.235 0-11.318-5.371-11.318-12.085 0-6.762 5.083-12.133 11.318-12.133a8.482 8.482 0 0 1 6.954 3.213v-2.689h6.57v22.493c0 8.68-5.9 11.989-12.133 11.989-6.763 0-11.223-3.884-11.7-9.016zm5.275-20a6.139 6.139 0 1 0 6.091 6.138 5.961 5.961 0 0 0 -6.086-6.139zm19.424-5.468h6.57v3.837a6.387 6.387 0 0 1 5.948-4.124 7.576 7.576 0 0 1 2.206.287v6.667a9.029 9.029 0 0 0 -2.974-.528c-3.117 0-5.18 2.446-5.18 6.379v11.464h-6.57zm28.781-.528a8.555 8.555 0 0 1 6.9 3.21v-2.683h6.57v23.983h-6.57v-2.689a8.558 8.558 0 0 1 -6.907 3.213c-6.378 0-11.269-5.707-11.269-12.517s4.893-12.517 11.276-12.517zm1.392 6c-3.6 0-6.043 2.781-6.043 6.522s2.445 6.523 6.043 6.523 6.042-2.783 6.042-6.523-2.45-6.527-6.047-6.527zm19.424-5.468h6.57v2.678a8.739 8.739 0 0 1 6.954-3.213c6.379 0 11.271 5.707 11.271 12.517s-4.892 12.517-11.271 12.517a8.742 8.742 0 0 1 -6.954-3.213v12.712h-6.57zm12.084 5.463c-3.6 0-6.043 2.781-6.043 6.522s2.443 6.523 6.043 6.523 6.043-2.783 6.043-6.523-2.45-6.522-6.043-6.522zm18.464-17.457h6.57v14.723a8.006 8.006 0 0 1 6.858-3.261c5.8 0 9.256 4.22 9.256 10.455v14.055h-6.57v-12.953c0-3.452-1.487-5.562-4.221-5.562-3.021 0-5.323 2.206-5.323 6.809v11.706h-6.57z" fill="#32343f"/></svg>