<svg width="509" height="509" viewBox="0 0 509 509" fill="none" xmlns="http://www.w3.org/2000/svg">
<circle cx="488.82" cy="281.82" r="11.82" fill="url(#paint0_angular_1584_4711)"/>
<circle cx="488.82" cy="281.82" r="11.82" fill="url(#paint1_radial_1584_4711)"/>
<circle cx="488.82" cy="281.82" r="11.82" fill="url(#paint2_radial_1584_4711)"/>
<path d="M438.993 268.876C440.732 270.698 442.095 272.845 443.004 275.194C443.913 277.543 444.351 280.048 444.292 282.566C444.233 285.084 443.679 287.566 442.661 289.87C441.643 292.174 440.181 294.254 438.358 295.993C436.536 297.732 434.389 299.095 432.04 300.004C429.691 300.913 427.186 301.351 424.668 301.292C422.15 301.233 419.668 300.679 417.365 299.66C415.061 298.642 412.98 297.18 411.241 295.358L425.117 282.117L438.993 268.876Z" fill="white"/>
<path d="M438.993 268.876C440.732 270.698 442.095 272.845 443.004 275.194C443.913 277.543 444.351 280.048 444.292 282.566C444.233 285.084 443.679 287.566 442.661 289.87C441.643 292.174 440.181 294.254 438.358 295.993C436.536 297.732 434.389 299.095 432.04 300.004C429.691 300.913 427.186 301.351 424.668 301.292C422.15 301.233 419.668 300.679 417.365 299.66C415.061 298.642 412.98 297.18 411.241 295.358L425.117 282.117L438.993 268.876Z" fill="url(#paint3_linear_1584_4711)"/>
<path d="M438.993 268.876C440.732 270.698 442.095 272.845 443.004 275.194C443.913 277.543 444.351 280.048 444.292 282.566C444.233 285.084 443.679 287.566 442.661 289.87C441.643 292.174 440.181 294.254 438.358 295.993C436.536 297.732 434.389 299.095 432.04 300.004C429.691 300.913 427.186 301.351 424.668 301.292C422.15 301.233 419.668 300.679 417.365 299.66C415.061 298.642 412.98 297.18 411.241 295.358L425.117 282.117L438.993 268.876Z" fill="url(#paint4_radial_1584_4711)"/>
<path d="M438.993 268.876C440.732 270.698 442.095 272.845 443.004 275.194C443.913 277.543 444.351 280.048 444.292 282.566C444.233 285.084 443.679 287.566 442.661 289.87C441.643 292.174 440.181 294.254 438.358 295.993C436.536 297.732 434.389 299.095 432.04 300.004C429.691 300.913 427.186 301.351 424.668 301.292C422.15 301.233 419.668 300.679 417.365 299.66C415.061 298.642 412.98 297.18 411.241 295.358L425.117 282.117L438.993 268.876Z" fill="url(#paint5_radial_1584_4711)"/>
<path d="M438.993 268.876C440.732 270.698 442.095 272.845 443.004 275.194C443.913 277.543 444.351 280.048 444.292 282.566C444.233 285.084 443.679 287.566 442.661 289.87C441.643 292.174 440.181 294.254 438.358 295.993C436.536 297.732 434.389 299.095 432.04 300.004C429.691 300.913 427.186 301.351 424.668 301.292C422.15 301.233 419.668 300.679 417.365 299.66C415.061 298.642 412.98 297.18 411.241 295.358L425.117 282.117L438.993 268.876Z" fill="url(#paint6_radial_1584_4711)"/>
<path d="M438.993 268.876C440.732 270.698 442.095 272.845 443.004 275.194C443.913 277.543 444.351 280.048 444.292 282.566C444.233 285.084 443.679 287.566 442.661 289.87C441.643 292.174 440.181 294.254 438.358 295.993C436.536 297.732 434.389 299.095 432.04 300.004C429.691 300.913 427.186 301.351 424.668 301.292C422.15 301.233 419.668 300.679 417.365 299.66C415.061 298.642 412.98 297.18 411.241 295.358L425.117 282.117L438.993 268.876Z" fill="url(#paint7_radial_1584_4711)"/>
<rect x="395" y="182.506" width="19.0599" height="19.0599" transform="rotate(-60 395 182.506)" fill="url(#paint8_radial_1584_4711)"/>
<rect x="395" y="182.506" width="19.0599" height="19.0599" transform="rotate(-60 395 182.506)" fill="url(#paint9_radial_1584_4711)"/>
<rect x="395" y="182.506" width="19.0599" height="19.0599" transform="rotate(-60 395 182.506)" fill="url(#paint10_radial_1584_4711)"/>
<path d="M453.36 364.18L424.59 380.79L424.59 347.57L453.36 364.18Z" fill="white"/>
<path d="M453.36 364.18L424.59 380.79L424.59 347.57L453.36 364.18Z" fill="url(#paint11_radial_1584_4711)"/>
<path d="M453.36 364.18L424.59 380.79L424.59 347.57L453.36 364.18Z" fill="url(#paint12_radial_1584_4711)"/>
<path d="M453.36 364.18L424.59 380.79L424.59 347.57L453.36 364.18Z" fill="url(#paint13_radial_1584_4711)"/>
<path d="M57.0001 191.668V96.3336C57.0001 88.3505 50.5285 81.8789 42.5455 81.8789C34.5624 81.8789 28.0908 88.3505 28.0908 96.3335V191.668C28.0908 199.651 34.5624 206.123 42.5455 206.123C50.5285 206.123 57.0001 199.651 57.0001 191.668Z" fill="url(#paint14_linear_1584_4711)"/>
<rect x="42.5757" y="88.2285" width="17.347" height="17.347" transform="rotate(45 42.5757 88.2285)" fill="white"/>
<rect x="42.5757" y="88.2285" width="17.347" height="17.347" transform="rotate(45 42.5757 88.2285)" fill="url(#paint15_radial_1584_4711)"/>
<rect x="42.5757" y="88.2285" width="17.347" height="17.347" transform="rotate(45 42.5757 88.2285)" fill="url(#paint16_radial_1584_4711)"/>
<rect x="42.5757" y="88.2285" width="17.347" height="17.347" transform="rotate(45 42.5757 88.2285)" fill="url(#paint17_radial_1584_4711)"/>
<circle cx="42.5759" cy="129.626" r="10.5144" fill="url(#paint18_angular_1584_4711)"/>
<circle cx="42.5759" cy="129.626" r="10.5144" fill="url(#paint19_radial_1584_4711)"/>
<circle cx="42.5759" cy="129.626" r="10.5144" fill="url(#paint20_radial_1584_4711)"/>
<path d="M53.0903 157.005L37.3187 166.11L37.3187 147.899L53.0903 157.005Z" fill="white"/>
<path d="M53.0903 157.005L37.3187 166.11L37.3187 147.899L53.0903 157.005Z" fill="url(#paint21_radial_1584_4711)"/>
<path d="M53.0903 157.005L37.3187 166.11L37.3187 147.899L53.0903 157.005Z" fill="url(#paint22_radial_1584_4711)"/>
<path d="M53.0903 157.005L37.3187 166.11L37.3187 147.899L53.0903 157.005Z" fill="url(#paint23_radial_1584_4711)"/>
<path d="M42.5759 173.869C43.9567 173.869 45.324 174.141 46.5996 174.67C47.8753 175.198 49.0344 175.972 50.0107 176.949C50.9871 177.925 51.7616 179.084 52.29 180.36C52.8184 181.636 53.0903 183.003 53.0903 184.384C53.0903 185.764 52.8184 187.132 52.29 188.407C51.7616 189.683 50.9871 190.842 50.0107 191.818C49.0344 192.795 47.8753 193.569 46.5996 194.098C45.324 194.626 43.9567 194.898 42.5759 194.898L42.5759 184.384V173.869Z" fill="white"/>
<path d="M42.5759 173.869C43.9567 173.869 45.324 174.141 46.5996 174.67C47.8753 175.198 49.0344 175.972 50.0107 176.949C50.9871 177.925 51.7616 179.084 52.29 180.36C52.8184 181.636 53.0903 183.003 53.0903 184.384C53.0903 185.764 52.8184 187.132 52.29 188.407C51.7616 189.683 50.9871 190.842 50.0107 191.818C49.0344 192.795 47.8753 193.569 46.5996 194.098C45.324 194.626 43.9567 194.898 42.5759 194.898L42.5759 184.384V173.869Z" fill="url(#paint24_linear_1584_4711)"/>
<path d="M42.5759 173.869C43.9567 173.869 45.324 174.141 46.5996 174.67C47.8753 175.198 49.0344 175.972 50.0107 176.949C50.9871 177.925 51.7616 179.084 52.29 180.36C52.8184 181.636 53.0903 183.003 53.0903 184.384C53.0903 185.764 52.8184 187.132 52.29 188.407C51.7616 189.683 50.9871 190.842 50.0107 191.818C49.0344 192.795 47.8753 193.569 46.5996 194.098C45.324 194.626 43.9567 194.898 42.5759 194.898L42.5759 184.384V173.869Z" fill="url(#paint25_radial_1584_4711)"/>
<path d="M42.5759 173.869C43.9567 173.869 45.324 174.141 46.5996 174.67C47.8753 175.198 49.0344 175.972 50.0107 176.949C50.9871 177.925 51.7616 179.084 52.29 180.36C52.8184 181.636 53.0903 183.003 53.0903 184.384C53.0903 185.764 52.8184 187.132 52.29 188.407C51.7616 189.683 50.9871 190.842 50.0107 191.818C49.0344 192.795 47.8753 193.569 46.5996 194.098C45.324 194.626 43.9567 194.898 42.5759 194.898L42.5759 184.384V173.869Z" fill="url(#paint26_radial_1584_4711)"/>
<path d="M42.5759 173.869C43.9567 173.869 45.324 174.141 46.5996 174.67C47.8753 175.198 49.0344 175.972 50.0107 176.949C50.9871 177.925 51.7616 179.084 52.29 180.36C52.8184 181.636 53.0903 183.003 53.0903 184.384C53.0903 185.764 52.8184 187.132 52.29 188.407C51.7616 189.683 50.9871 190.842 50.0107 191.818C49.0344 192.795 47.8753 193.569 46.5996 194.098C45.324 194.626 43.9567 194.898 42.5759 194.898L42.5759 184.384V173.869Z" fill="url(#paint27_radial_1584_4711)"/>
<path d="M42.5759 173.869C43.9567 173.869 45.324 174.141 46.5996 174.67C47.8753 175.198 49.0344 175.972 50.0107 176.949C50.9871 177.925 51.7616 179.084 52.29 180.36C52.8184 181.636 53.0903 183.003 53.0903 184.384C53.0903 185.764 52.8184 187.132 52.29 188.407C51.7616 189.683 50.9871 190.842 50.0107 191.818C49.0344 192.795 47.8753 193.569 46.5996 194.098C45.324 194.626 43.9567 194.898 42.5759 194.898L42.5759 184.384V173.869Z" fill="url(#paint28_radial_1584_4711)"/>
<path d="M474 421.225V323.775C474 315.615 480.615 309 488.775 309C496.935 309 503.55 315.615 503.55 323.775V421.225C503.55 429.385 496.935 436 488.775 436C480.615 436 474 429.385 474 421.225Z" fill="white"/>
<path d="M474 421.225V323.775C474 315.615 480.615 309 488.775 309C496.935 309 503.55 315.615 503.55 323.775V421.225C503.55 429.385 496.935 436 488.775 436C480.615 436 474 429.385 474 421.225Z" fill="url(#paint29_linear_1584_4711)"/>
<path d="M474 421.225V323.775C474 315.615 480.615 309 488.775 309C496.935 309 503.55 315.615 503.55 323.775V421.225C503.55 429.385 496.935 436 488.775 436C480.615 436 474 429.385 474 421.225Z" fill="url(#paint30_radial_1584_4711)"/>
<path d="M474 421.225V323.775C474 315.615 480.615 309 488.775 309C496.935 309 503.55 315.615 503.55 323.775V421.225C503.55 429.385 496.935 436 488.775 436C480.615 436 474 429.385 474 421.225Z" fill="url(#paint31_radial_1584_4711)"/>
<rect width="21.4953" height="21.4953" transform="matrix(-1 0 0 1 499.42 315.49)" fill="url(#paint32_radial_1584_4711)"/>
<rect width="21.4953" height="21.4953" transform="matrix(-1 0 0 1 499.42 315.49)" fill="url(#paint33_radial_1584_4711)"/>
<rect width="21.4953" height="21.4953" transform="matrix(-1 0 0 1 499.42 315.49)" fill="url(#paint34_radial_1584_4711)"/>
<path d="M488.672 346.426L479.365 362.547H497.98L488.672 346.426Z" fill="white"/>
<path d="M488.672 346.426L479.365 362.547H497.98L488.672 346.426Z" fill="url(#paint35_radial_1584_4711)"/>
<path d="M488.672 346.426L479.365 362.547H497.98L488.672 346.426Z" fill="url(#paint36_radial_1584_4711)"/>
<path d="M488.672 346.426L479.365 362.547H497.98L488.672 346.426Z" fill="url(#paint37_radial_1584_4711)"/>
<path d="M488.672 377.363C487.261 377.363 485.863 377.641 484.559 378.181C483.255 378.722 482.071 379.513 481.073 380.511C480.075 381.509 479.283 382.694 478.743 383.998C478.203 385.302 477.925 386.7 477.925 388.111C477.925 389.522 478.203 390.92 478.743 392.224C479.283 393.528 480.075 394.713 481.073 395.711C482.071 396.709 483.255 397.5 484.559 398.04C485.863 398.581 487.261 398.859 488.672 398.859L488.672 388.111V377.363Z" fill="white"/>
<path d="M488.672 377.363C487.261 377.363 485.863 377.641 484.559 378.181C483.255 378.722 482.071 379.513 481.073 380.511C480.075 381.509 479.283 382.694 478.743 383.998C478.203 385.302 477.925 386.7 477.925 388.111C477.925 389.522 478.203 390.92 478.743 392.224C479.283 393.528 480.075 394.713 481.073 395.711C482.071 396.709 483.255 397.5 484.559 398.04C485.863 398.581 487.261 398.859 488.672 398.859L488.672 388.111V377.363Z" fill="url(#paint38_radial_1584_4711)"/>
<path d="M488.672 377.363C487.261 377.363 485.863 377.641 484.559 378.181C483.255 378.722 482.071 379.513 481.073 380.511C480.075 381.509 479.283 382.694 478.743 383.998C478.203 385.302 477.925 386.7 477.925 388.111C477.925 389.522 478.203 390.92 478.743 392.224C479.283 393.528 480.075 394.713 481.073 395.711C482.071 396.709 483.255 397.5 484.559 398.04C485.863 398.581 487.261 398.859 488.672 398.859L488.672 388.111V377.363Z" fill="url(#paint39_radial_1584_4711)"/>
<path d="M488.672 377.363C487.261 377.363 485.863 377.641 484.559 378.181C483.255 378.722 482.071 379.513 481.073 380.511C480.075 381.509 479.283 382.694 478.743 383.998C478.203 385.302 477.925 386.7 477.925 388.111C477.925 389.522 478.203 390.92 478.743 392.224C479.283 393.528 480.075 394.713 481.073 395.711C482.071 396.709 483.255 397.5 484.559 398.04C485.863 398.581 487.261 398.859 488.672 398.859L488.672 388.111V377.363Z" fill="url(#paint40_radial_1584_4711)"/>
<path d="M488.672 377.363C487.261 377.363 485.863 377.641 484.559 378.181C483.255 378.722 482.071 379.513 481.073 380.511C480.075 381.509 479.283 382.694 478.743 383.998C478.203 385.302 477.925 386.7 477.925 388.111C477.925 389.522 478.203 390.92 478.743 392.224C479.283 393.528 480.075 394.713 481.073 395.711C482.071 396.709 483.255 397.5 484.559 398.04C485.863 398.581 487.261 398.859 488.672 398.859L488.672 388.111V377.363Z" fill="url(#paint41_radial_1584_4711)"/>
<circle r="10.7476" transform="matrix(-1 0 0 1 488.672 419.046)" fill="white"/>
<circle r="10.7476" transform="matrix(-1 0 0 1 488.672 419.046)" fill="url(#paint42_radial_1584_4711)"/>
<circle r="10.7476" transform="matrix(-1 0 0 1 488.672 419.046)" fill="url(#paint43_radial_1584_4711)"/>
<circle r="10.7476" transform="matrix(-1 0 0 1 488.672 419.046)" fill="url(#paint44_radial_1584_4711)"/>
<circle r="10.7476" transform="matrix(-1 0 0 1 488.672 419.046)" fill="url(#paint45_radial_1584_4711)"/>
<circle cx="101.397" cy="181.397" r="20.3965" fill="url(#paint46_angular_1584_4711)"/>
<circle cx="101.397" cy="181.397" r="20.3965" fill="url(#paint47_radial_1584_4711)"/>
<circle cx="101.397" cy="181.397" r="20.3965" fill="url(#paint48_radial_1584_4711)"/>
<path d="M107.397 382C110.075 382 112.727 382.528 115.202 383.553C117.677 384.578 119.925 386.08 121.819 387.974C123.713 389.868 125.215 392.116 126.24 394.591C127.265 397.066 127.793 399.718 127.793 402.397C127.793 405.075 127.265 407.727 126.24 410.202C125.215 412.677 123.713 414.925 121.819 416.819C119.925 418.713 117.677 420.215 115.202 421.24C112.727 422.265 110.075 422.793 107.396 422.793L107.397 402.397V382Z" fill="white"/>
<path d="M107.397 382C110.075 382 112.727 382.528 115.202 383.553C117.677 384.578 119.925 386.08 121.819 387.974C123.713 389.868 125.215 392.116 126.24 394.591C127.265 397.066 127.793 399.718 127.793 402.397C127.793 405.075 127.265 407.727 126.24 410.202C125.215 412.677 123.713 414.925 121.819 416.819C119.925 418.713 117.677 420.215 115.202 421.24C112.727 422.265 110.075 422.793 107.396 422.793L107.397 402.397V382Z" fill="url(#paint49_linear_1584_4711)"/>
<path d="M107.397 382C110.075 382 112.727 382.528 115.202 383.553C117.677 384.578 119.925 386.08 121.819 387.974C123.713 389.868 125.215 392.116 126.24 394.591C127.265 397.066 127.793 399.718 127.793 402.397C127.793 405.075 127.265 407.727 126.24 410.202C125.215 412.677 123.713 414.925 121.819 416.819C119.925 418.713 117.677 420.215 115.202 421.24C112.727 422.265 110.075 422.793 107.396 422.793L107.397 402.397V382Z" fill="url(#paint50_radial_1584_4711)"/>
<path d="M107.397 382C110.075 382 112.727 382.528 115.202 383.553C117.677 384.578 119.925 386.08 121.819 387.974C123.713 389.868 125.215 392.116 126.24 394.591C127.265 397.066 127.793 399.718 127.793 402.397C127.793 405.075 127.265 407.727 126.24 410.202C125.215 412.677 123.713 414.925 121.819 416.819C119.925 418.713 117.677 420.215 115.202 421.24C112.727 422.265 110.075 422.793 107.396 422.793L107.397 402.397V382Z" fill="url(#paint51_radial_1584_4711)"/>
<path d="M107.397 382C110.075 382 112.727 382.528 115.202 383.553C117.677 384.578 119.925 386.08 121.819 387.974C123.713 389.868 125.215 392.116 126.24 394.591C127.265 397.066 127.793 399.718 127.793 402.397C127.793 405.075 127.265 407.727 126.24 410.202C125.215 412.677 123.713 414.925 121.819 416.819C119.925 418.713 117.677 420.215 115.202 421.24C112.727 422.265 110.075 422.793 107.396 422.793L107.397 402.397V382Z" fill="url(#paint52_radial_1584_4711)"/>
<path d="M107.397 382C110.075 382 112.727 382.528 115.202 383.553C117.677 384.578 119.925 386.08 121.819 387.974C123.713 389.868 125.215 392.116 126.24 394.591C127.265 397.066 127.793 399.718 127.793 402.397C127.793 405.075 127.265 407.727 126.24 410.202C125.215 412.677 123.713 414.925 121.819 416.819C119.925 418.713 117.677 420.215 115.202 421.24C112.727 422.265 110.075 422.793 107.396 422.793L107.397 402.397V382Z" fill="url(#paint53_radial_1584_4711)"/>
<rect x="67" y="318" width="27" height="27" fill="url(#paint54_radial_1584_4711)"/>
<rect x="67" y="318" width="27" height="27" fill="url(#paint55_radial_1584_4711)"/>
<rect x="67" y="318" width="27" height="27" fill="url(#paint56_radial_1584_4711)"/>
<path d="M42.3965 245L60.0604 275.595H24.7326L42.3965 245Z" fill="white"/>
<path d="M42.3965 245L60.0604 275.595H24.7326L42.3965 245Z" fill="url(#paint57_radial_1584_4711)"/>
<path d="M42.3965 245L60.0604 275.595H24.7326L42.3965 245Z" fill="url(#paint58_radial_1584_4711)"/>
<path d="M42.3965 245L60.0604 275.595H24.7326L42.3965 245Z" fill="url(#paint59_radial_1584_4711)"/>
<path d="M127.643 307.385L74.9981 254.74L127.642 254.74L127.643 307.385Z" fill="url(#paint60_linear_1584_4711)"/>
<path d="M381.85 381.861L307.385 381.861L344.617 344.629L381.85 381.861Z" fill="url(#paint61_linear_1584_4711)"/>
<path d="M307.385 127.642L254.74 127.642L254.74 74.998L307.385 127.642Z" fill="url(#paint62_linear_1584_4711)"/>
<path d="M164.875 344.617L127.642 381.85V307.385L164.875 344.617Z" fill="white"/>
<path d="M164.875 344.617L127.642 381.85V307.385L164.875 344.617Z" fill="url(#paint63_linear_1584_4711)"/>
<path d="M164.875 344.617L127.642 381.85V307.385L164.875 344.617Z" fill="url(#paint64_radial_1584_4711)"/>
<path d="M164.875 344.617L127.642 381.85V307.385L164.875 344.617Z" fill="url(#paint65_radial_1584_4711)"/>
<path d="M164.875 344.617L127.642 381.85V307.385L164.875 344.617Z" fill="url(#paint66_radial_1584_4711)"/>
<path d="M164.875 344.617L127.642 381.85V307.385L164.875 344.617Z" stroke="url(#paint67_linear_1584_4711)" stroke-width="0.635876" stroke-linejoin="round"/>
<path d="M202.107 381.85H127.643L164.875 344.617L202.107 381.85Z" fill="url(#paint68_linear_1584_4711)"/>
<path d="M254.74 127.642L202.085 127.654L254.74 74.998L254.74 127.642Z" fill="url(#paint69_linear_1584_4711)"/>
<path d="M254.74 127.642L202.085 127.654L254.74 74.998L254.74 127.642Z" fill="url(#paint70_radial_1584_4711)"/>
<path d="M381.85 381.861L344.617 344.629L381.85 307.396V381.861Z" fill="white"/>
<path d="M381.85 381.861L344.617 344.629L381.85 307.396V381.861Z" fill="url(#paint71_linear_1584_4711)"/>
<path d="M381.85 381.861L344.617 344.629L381.85 307.396V381.861Z" fill="url(#paint72_radial_1584_4711)"/>
<path d="M381.85 381.861L344.617 344.629L381.85 307.396V381.861Z" fill="url(#paint73_radial_1584_4711)"/>
<path d="M381.85 381.861L344.617 344.629L381.85 307.396V381.861Z" fill="url(#paint74_radial_1584_4711)"/>
<path d="M381.85 381.861L344.617 344.629L381.85 307.396V381.861Z" stroke="url(#paint75_linear_1584_4711)" stroke-width="0.635876" stroke-linejoin="round"/>
<path d="M381.85 202.107L344.617 164.875L381.85 127.643V202.107Z" fill="url(#paint76_linear_1584_4711)"/>
<path d="M381.85 127.643L344.617 164.875L307.385 127.643H381.85Z" fill="url(#paint77_linear_1584_4711)"/>
<path d="M164.863 164.875L127.642 202.097L127.642 127.654L164.863 164.875Z" fill="url(#paint78_linear_1584_4711)"/>
<path d="M202.084 127.655L164.863 164.876L127.642 127.655L202.084 127.655Z" fill="url(#paint79_linear_1584_4711)"/>
<path d="M307.385 381.861L254.752 434.494V381.85L307.385 381.861Z" fill="url(#paint80_linear_1584_4711)"/>
<path d="M307.385 381.861L254.752 434.494V381.85L307.385 381.861Z" fill="url(#paint81_radial_1584_4711)"/>
<path d="M127.643 254.74L74.9982 254.74L127.643 202.096L127.643 254.74Z" fill="url(#paint82_linear_1584_4711)"/>
<path d="M127.643 254.74L74.9982 254.74L127.643 202.096L127.643 254.74Z" fill="url(#paint83_linear_1584_4711)"/>
<path d="M254.751 434.494L202.107 381.85H254.751V434.494Z" fill="url(#paint84_linear_1584_4711)"/>
<path d="M344.617 344.629L307.385 381.862L254.751 381.85V254.764L344.617 344.629Z" fill="url(#paint85_linear_1584_4711)"/>
<path d="M344.617 344.629L307.385 381.862L254.751 381.85V254.764L344.617 344.629Z" fill="url(#paint86_linear_1584_4711)"/>
<path d="M254.74 254.752L164.875 344.617L127.642 307.385V254.741H254.729L254.74 254.752Z" fill="url(#paint87_linear_1584_4711)"/>
<path d="M254.74 254.752L164.875 344.617L127.642 307.385V254.741H254.729L254.74 254.752Z" fill="url(#paint88_radial_1584_4711)"/>
<path d="M254.729 254.741L127.642 254.741L127.642 202.096L164.863 164.875L254.729 254.741Z" fill="url(#paint89_linear_1584_4711)"/>
<path d="M254.729 254.741L127.642 254.741L127.642 202.096L164.863 164.875L254.729 254.741Z" fill="url(#paint90_radial_1584_4711)"/>
<path d="M344.617 164.875L254.74 254.752L254.74 127.643H307.385L344.617 164.875Z" fill="url(#paint91_linear_1584_4711)"/>
<path d="M344.617 164.875L254.74 254.752L254.74 127.643H307.385L344.617 164.875Z" fill="url(#paint92_radial_1584_4711)"/>
<path d="M254.74 127.642V254.752L254.729 254.74L164.863 164.875L202.085 127.654L254.74 127.642Z" fill="url(#paint93_angular_1584_4711)"/>
<path d="M254.752 381.85L202.107 381.85L164.875 344.617L254.74 254.752L254.752 254.763L254.752 381.85Z" fill="url(#paint94_linear_1584_4711)"/>
<path d="M381.85 254.752L254.74 254.752L344.617 164.875L381.85 202.107L381.85 254.752Z" fill="url(#paint95_linear_1584_4711)"/>
<path d="M381.85 307.396L344.617 344.629L254.752 254.763L254.74 254.752L381.85 254.752V307.396Z" fill="url(#paint96_linear_1584_4711)"/>
<path d="M381.85 307.396L344.617 344.629L254.752 254.763L254.74 254.752L381.85 254.752V307.396Z" fill="url(#paint97_radial_1584_4711)"/>
<path d="M434.494 254.752L381.849 307.396V254.752H434.494Z" fill="url(#paint98_linear_1584_4711)"/>
<path d="M434.493 254.752H381.849V202.107L434.493 254.752Z" fill="url(#paint99_linear_1584_4711)"/>
<path d="M434.493 254.752H381.849V202.107L434.493 254.752Z" fill="url(#paint100_radial_1584_4711)"/>
<path d="M127.642 381.85V307.385L127.642 254.741L127.642 202.096L127.642 127.654L202.085 127.654L254.74 127.643H307.385L381.849 127.643L381.849 202.108V254.752V307.396V381.861L307.385 381.861L254.751 381.85L202.107 381.85L127.642 381.85Z" stroke="white" stroke-width="1.07236" stroke-miterlimit="10"/>
<path d="M254.752 434.494L202.107 381.85L164.875 344.617L127.642 307.385L74.9979 254.74L127.642 202.096L164.863 164.875L202.085 127.654L254.74 74.998L307.385 127.642L344.617 164.875L381.849 202.107L434.494 254.752L381.849 307.396L344.617 344.628L307.385 381.861L254.752 434.494Z" stroke="white" stroke-width="1.07236" stroke-miterlimit="10"/>
<path d="M254.729 254.74L127.642 254.741L74.9978 254.741" stroke="white" stroke-width="1.07236" stroke-miterlimit="10"/>
<path d="M434.494 254.752L381.85 254.752L254.74 254.752" stroke="white" stroke-width="1.07236" stroke-miterlimit="10"/>
<path d="M254.74 254.752L254.74 127.642L254.74 74.998" stroke="white" stroke-width="1.07236" stroke-miterlimit="10"/>
<path d="M254.751 434.495V381.85V254.764" stroke="white" stroke-width="1.07236" stroke-miterlimit="10"/>
<path d="M381.849 381.861L344.617 344.629L254.751 254.764L254.74 254.752L254.729 254.741L164.863 164.875L127.642 127.654" stroke="white" stroke-width="1.07236" stroke-miterlimit="10"/>
<path d="M381.85 127.643L344.617 164.875L254.74 254.752L164.875 344.617L127.642 381.85" stroke="white" stroke-width="1.07236" stroke-miterlimit="10"/>
<circle cx="255" cy="252" r="42" fill="white"/>
<path d="M236 236C236 226.059 244.059 218 254 218C263.941 218 272 226.059 272 236V278H236V236Z" fill="url(#paint101_linear_1584_4711)"/>
<path d="M236.5 236C236.5 226.335 244.335 218.5 254 218.5C263.665 218.5 271.5 226.335 271.5 236V277.5H236.5V236Z" stroke="#FFF2F2"/>
<ellipse cx="254.5" cy="277" rx="26.5" ry="2" fill="#C9B8FF"/>
<path d="M228 273.5H281V277H228V273.5Z" fill="#C9B8FF"/>
<ellipse cx="254.5" cy="273.5" rx="26.5" ry="2.5" fill="#F0EBFF"/>
<ellipse cx="254.5" cy="273" rx="20.5" ry="2" fill="#C9B8FF"/>
<path d="M234 269.5H275V273H234V269.5Z" fill="#C9B8FF"/>
<ellipse cx="254.5" cy="269.5" rx="20.5" ry="2.5" fill="#F0EBFF"/>
<ellipse cx="254.5" cy="269.419" rx="18.5001" ry="2.22001" fill="#C9B8FF"/>
<ellipse cx="254.5" cy="269.42" rx="8.14005" ry="0.740005" fill="#8C65F7"/>
<path d="M255.559 269.473C255.559 269.473 255.232 269.604 254.97 269.604C254.708 269.604 254.512 269.539 254.381 269.473V251.969H255.526V269.473H255.559Z" fill="#02E2AC"/>
<path d="M254.512 253.998L254.414 253.082C254.25 251.118 254.839 249.221 256.082 247.716C257.325 246.211 259.125 245.294 261.055 245.098L261.972 245L262.07 245.916C262.43 249.941 259.452 253.54 255.395 253.9L254.479 253.998H254.512ZM260.99 246.276C259.42 246.472 258.013 247.225 257.031 248.435C256.049 249.646 255.526 251.151 255.591 252.722C258.798 252.329 261.154 249.483 260.99 246.243V246.276Z" fill="#02E2AC"/>
<path d="M255.46 260.477L254.544 260.411C250.52 260.051 247.51 256.485 247.87 252.428L247.968 251.512L248.884 251.61C250.847 251.773 252.614 252.722 253.857 254.227C255.133 255.732 255.722 257.63 255.526 259.593L255.428 260.509L255.46 260.477ZM248.982 252.755C248.818 255.994 251.174 258.808 254.381 259.233C254.479 257.663 253.955 256.158 252.941 254.947C251.927 253.737 250.52 252.984 248.982 252.788V252.755Z" fill="#02E2AC"/>
<path d="M334.171 265.147L327.451 252.066C325.824 251.009 324.428 249.633 323.347 248.022C322.267 246.41 321.524 244.596 321.164 242.69C320.502 239.231 323.644 235.422 325.623 238.382C327.601 241.342 338.13 253.394 338.13 253.394" fill="white"/>
<path d="M334.171 265.147L327.451 252.066C325.824 251.009 324.428 249.633 323.347 248.022C322.267 246.41 321.524 244.596 321.164 242.69C320.502 239.231 323.644 235.422 325.623 238.382C327.601 241.342 338.13 253.394 338.13 253.394" fill="url(#paint102_radial_1584_4711)"/>
<path d="M334.171 265.147L327.451 252.066C325.824 251.009 324.428 249.633 323.347 248.022C322.267 246.41 321.524 244.596 321.164 242.69C320.502 239.231 323.644 235.422 325.623 238.382C327.601 241.342 338.13 253.394 338.13 253.394" fill="url(#paint103_radial_1584_4711)"/>
<path d="M334.171 265.147L327.451 252.066C325.824 251.009 324.428 249.633 323.347 248.022C322.267 246.41 321.524 244.596 321.164 242.69C320.502 239.231 323.644 235.422 325.623 238.382C327.601 241.342 338.13 253.394 338.13 253.394" fill="url(#paint104_radial_1584_4711)"/>
<path d="M334.171 265.147L327.451 252.066C325.824 251.009 324.428 249.633 323.347 248.022C322.267 246.41 321.524 244.596 321.164 242.69C320.502 239.231 323.644 235.422 325.623 238.382C327.601 241.342 338.13 253.394 338.13 253.394" stroke="white" stroke-width="2" stroke-linejoin="round"/>
<path d="M338.323 249.68L325.362 233.574C325.362 233.574 318.31 228.798 319.263 221.398C319.538 219.263 321.145 219.392 322.436 219.87C323.298 220.2 324.089 220.691 324.768 221.317L335.738 231.225L339.043 235.739" fill="white"/>
<path d="M338.323 249.68L325.362 233.574C325.362 233.574 318.31 228.798 319.263 221.398C319.538 219.263 321.145 219.392 322.436 219.87C323.298 220.2 324.089 220.691 324.768 221.317L335.738 231.225L339.043 235.739" fill="url(#paint105_radial_1584_4711)"/>
<path d="M338.323 249.68L325.362 233.574C325.362 233.574 318.31 228.798 319.263 221.398C319.538 219.263 321.145 219.392 322.436 219.87C323.298 220.2 324.089 220.691 324.768 221.317L335.738 231.225L339.043 235.739" fill="url(#paint106_radial_1584_4711)"/>
<path d="M338.323 249.68L325.362 233.574C325.362 233.574 318.31 228.798 319.263 221.398C319.538 219.263 321.145 219.392 322.436 219.87C323.298 220.2 324.089 220.691 324.768 221.317L335.738 231.225L339.043 235.739" fill="url(#paint107_radial_1584_4711)"/>
<path d="M338.323 249.68L325.362 233.574C325.362 233.574 318.31 228.798 319.263 221.398C319.538 219.263 321.145 219.392 322.436 219.87C323.298 220.2 324.089 220.691 324.768 221.317L335.738 231.225L339.043 235.739" stroke="white" stroke-width="2" stroke-linejoin="round"/>
<path d="M339.984 217.502L332.11 202.914C331.824 202.359 331.39 201.893 330.856 201.568C330.322 201.243 329.709 201.072 329.084 201.073C327.587 201.113 325.856 202.195 325.337 206.67C324.37 215.023 333.179 227.377 333.179 227.377L339.042 235.737" fill="white"/>
<path d="M339.984 217.502L332.11 202.914C331.824 202.359 331.39 201.893 330.856 201.568C330.322 201.243 329.709 201.072 329.084 201.073C327.587 201.113 325.856 202.195 325.337 206.67C324.37 215.023 333.179 227.377 333.179 227.377L339.042 235.737" fill="url(#paint108_radial_1584_4711)"/>
<path d="M339.984 217.502L332.11 202.914C331.824 202.359 331.39 201.893 330.856 201.568C330.322 201.243 329.709 201.072 329.084 201.073C327.587 201.113 325.856 202.195 325.337 206.67C324.37 215.023 333.179 227.377 333.179 227.377L339.042 235.737" fill="url(#paint109_radial_1584_4711)"/>
<path d="M339.984 217.502L332.11 202.914C331.824 202.359 331.39 201.893 330.856 201.568C330.322 201.243 329.709 201.072 329.084 201.073C327.587 201.113 325.856 202.195 325.337 206.67C324.37 215.023 333.179 227.377 333.179 227.377L339.042 235.737" fill="url(#paint110_radial_1584_4711)"/>
<path d="M339.984 217.502L332.11 202.914C331.824 202.359 331.39 201.893 330.856 201.568C330.322 201.243 329.709 201.072 329.084 201.073C327.587 201.113 325.856 202.195 325.337 206.67C324.37 215.023 333.179 227.377 333.179 227.377L339.042 235.737" stroke="white" stroke-width="2" stroke-linejoin="round"/>
<path d="M346.563 345.179L339.691 334.225C339.691 334.225 328.927 329.702 317.938 305.126L313.545 300.612C313.545 300.612 312.375 290.281 301.843 279.048L293.101 264.927C293.101 264.927 287.175 256.375 299.724 258.048C310.123 259.435 316.369 277.818 316.369 277.818L320.824 281.793L325.32 283.952L335.072 263.235L338.131 253.394L340.326 210.865L344.185 205.851C344.185 205.851 348.524 204.533 348.978 210.047C349.431 215.561 350.057 222.733 350.057 222.733L354.373 243.624L353.174 252.406L357.581 270.94L359.401 278.797L359.46 287.725L364.768 314.191L368.86 323.298" fill="white"/>
<path d="M346.563 345.179L339.691 334.225C339.691 334.225 328.927 329.702 317.938 305.126L313.545 300.612C313.545 300.612 312.375 290.281 301.843 279.048L293.101 264.927C293.101 264.927 287.175 256.375 299.724 258.048C310.123 259.435 316.369 277.818 316.369 277.818L320.824 281.793L325.32 283.952L335.072 263.235L338.131 253.394L340.326 210.865L344.185 205.851C344.185 205.851 348.524 204.533 348.978 210.047C349.431 215.561 350.057 222.733 350.057 222.733L354.373 243.624L353.174 252.406L357.581 270.94L359.401 278.797L359.46 287.725L364.768 314.191L368.86 323.298" fill="url(#paint111_radial_1584_4711)"/>
<path d="M346.563 345.179L339.691 334.225C339.691 334.225 328.927 329.702 317.938 305.126L313.545 300.612C313.545 300.612 312.375 290.281 301.843 279.048L293.101 264.927C293.101 264.927 287.175 256.375 299.724 258.048C310.123 259.435 316.369 277.818 316.369 277.818L320.824 281.793L325.32 283.952L335.072 263.235L338.131 253.394L340.326 210.865L344.185 205.851C344.185 205.851 348.524 204.533 348.978 210.047C349.431 215.561 350.057 222.733 350.057 222.733L354.373 243.624L353.174 252.406L357.581 270.94L359.401 278.797L359.46 287.725L364.768 314.191L368.86 323.298" fill="url(#paint112_radial_1584_4711)"/>
<path d="M346.563 345.179L339.691 334.225C339.691 334.225 328.927 329.702 317.938 305.126L313.545 300.612C313.545 300.612 312.375 290.281 301.843 279.048L293.101 264.927C293.101 264.927 287.175 256.375 299.724 258.048C310.123 259.435 316.369 277.818 316.369 277.818L320.824 281.793L325.32 283.952L335.072 263.235L338.131 253.394L340.326 210.865L344.185 205.851C344.185 205.851 348.524 204.533 348.978 210.047C349.431 215.561 350.057 222.733 350.057 222.733L354.373 243.624L353.174 252.406L357.581 270.94L359.401 278.797L359.46 287.725L364.768 314.191L368.86 323.298" fill="url(#paint113_radial_1584_4711)"/>
<path d="M346.563 345.179L339.691 334.225C339.691 334.225 328.927 329.702 317.938 305.126L313.545 300.612C313.545 300.612 312.375 290.281 301.843 279.048L293.101 264.927C293.101 264.927 287.175 256.375 299.724 258.048C310.123 259.435 316.369 277.818 316.369 277.818L320.824 281.793L325.32 283.952L335.072 263.235L338.131 253.394L340.326 210.865L344.185 205.851C344.185 205.851 348.524 204.533 348.978 210.047C349.431 215.561 350.057 222.733 350.057 222.733L354.373 243.624L353.174 252.406L357.581 270.94L359.401 278.797L359.46 287.725L364.768 314.191L368.86 323.298" stroke="white" stroke-width="2" stroke-linejoin="round"/>
<path d="M177.178 265.147L183.898 252.066C185.525 251.009 186.921 249.633 188.002 248.022C189.083 246.41 189.825 244.596 190.185 242.69C190.847 239.231 187.705 235.422 185.727 238.382C183.748 241.342 173.22 253.394 173.22 253.394" fill="white"/>
<path d="M177.178 265.147L183.898 252.066C185.525 251.009 186.921 249.633 188.002 248.022C189.083 246.41 189.825 244.596 190.185 242.69C190.847 239.231 187.705 235.422 185.727 238.382C183.748 241.342 173.22 253.394 173.22 253.394" fill="url(#paint114_radial_1584_4711)"/>
<path d="M177.178 265.147L183.898 252.066C185.525 251.009 186.921 249.633 188.002 248.022C189.083 246.41 189.825 244.596 190.185 242.69C190.847 239.231 187.705 235.422 185.727 238.382C183.748 241.342 173.22 253.394 173.22 253.394" fill="url(#paint115_radial_1584_4711)"/>
<path d="M177.178 265.147L183.898 252.066C185.525 251.009 186.921 249.633 188.002 248.022C189.083 246.41 189.825 244.596 190.185 242.69C190.847 239.231 187.705 235.422 185.727 238.382C183.748 241.342 173.22 253.394 173.22 253.394" fill="url(#paint116_radial_1584_4711)"/>
<path d="M177.178 265.147L183.898 252.066C185.525 251.009 186.921 249.633 188.002 248.022C189.083 246.41 189.825 244.596 190.185 242.69C190.847 239.231 187.705 235.422 185.727 238.382C183.748 241.342 173.22 253.394 173.22 253.394" stroke="white" stroke-width="2" stroke-linejoin="round"/>
<path d="M173.026 249.68L185.987 233.574C185.987 233.574 193.039 228.798 192.086 221.398C191.811 219.263 190.204 219.392 188.913 219.87C188.051 220.2 187.26 220.691 186.581 221.317L175.611 231.225L172.307 235.739" fill="white"/>
<path d="M173.026 249.68L185.987 233.574C185.987 233.574 193.039 228.798 192.086 221.398C191.811 219.263 190.204 219.392 188.913 219.87C188.051 220.2 187.26 220.691 186.581 221.317L175.611 231.225L172.307 235.739" fill="url(#paint117_radial_1584_4711)"/>
<path d="M173.026 249.68L185.987 233.574C185.987 233.574 193.039 228.798 192.086 221.398C191.811 219.263 190.204 219.392 188.913 219.87C188.051 220.2 187.26 220.691 186.581 221.317L175.611 231.225L172.307 235.739" fill="url(#paint118_radial_1584_4711)"/>
<path d="M173.026 249.68L185.987 233.574C185.987 233.574 193.039 228.798 192.086 221.398C191.811 219.263 190.204 219.392 188.913 219.87C188.051 220.2 187.26 220.691 186.581 221.317L175.611 231.225L172.307 235.739" fill="url(#paint119_radial_1584_4711)"/>
<path d="M173.026 249.68L185.987 233.574C185.987 233.574 193.039 228.798 192.086 221.398C191.811 219.263 190.204 219.392 188.913 219.87C188.051 220.2 187.26 220.691 186.581 221.317L175.611 231.225L172.307 235.739" stroke="white" stroke-width="2" stroke-linejoin="round"/>
<path d="M171.366 217.502L179.239 202.914C179.525 202.359 179.959 201.893 180.493 201.568C181.027 201.243 181.64 201.072 182.265 201.073C183.762 201.113 185.493 202.195 186.012 206.67C186.979 215.023 178.17 227.377 178.17 227.377L172.307 235.737" fill="white"/>
<path d="M171.366 217.502L179.239 202.914C179.525 202.359 179.959 201.893 180.493 201.568C181.027 201.243 181.64 201.072 182.265 201.073C183.762 201.113 185.493 202.195 186.012 206.67C186.979 215.023 178.17 227.377 178.17 227.377L172.307 235.737" fill="url(#paint120_radial_1584_4711)"/>
<path d="M171.366 217.502L179.239 202.914C179.525 202.359 179.959 201.893 180.493 201.568C181.027 201.243 181.64 201.072 182.265 201.073C183.762 201.113 185.493 202.195 186.012 206.67C186.979 215.023 178.17 227.377 178.17 227.377L172.307 235.737" fill="url(#paint121_radial_1584_4711)"/>
<path d="M171.366 217.502L179.239 202.914C179.525 202.359 179.959 201.893 180.493 201.568C181.027 201.243 181.64 201.072 182.265 201.073C183.762 201.113 185.493 202.195 186.012 206.67C186.979 215.023 178.17 227.377 178.17 227.377L172.307 235.737" fill="url(#paint122_radial_1584_4711)"/>
<path d="M171.366 217.502L179.239 202.914C179.525 202.359 179.959 201.893 180.493 201.568C181.027 201.243 181.64 201.072 182.265 201.073C183.762 201.113 185.493 202.195 186.012 206.67C186.979 215.023 178.17 227.377 178.17 227.377L172.307 235.737" stroke="white" stroke-width="2" stroke-linejoin="round"/>
<path d="M164.786 345.179L171.658 334.225C171.658 334.225 182.422 329.702 193.411 305.126L197.804 300.612C197.804 300.612 198.974 290.281 209.506 279.048L218.248 264.927C218.248 264.927 224.175 256.375 211.625 258.048C201.227 259.435 194.981 277.818 194.981 277.818L190.526 281.793L186.029 283.952L176.277 263.235L173.218 253.394L171.023 210.865L167.164 205.851C167.164 205.851 162.825 204.533 162.372 210.047C161.918 215.561 161.292 222.733 161.292 222.733L156.976 243.624L158.175 252.406L153.768 270.94L151.948 278.797L151.89 287.725L146.581 314.191L142.489 323.298" fill="white"/>
<path d="M164.786 345.179L171.658 334.225C171.658 334.225 182.422 329.702 193.411 305.126L197.804 300.612C197.804 300.612 198.974 290.281 209.506 279.048L218.248 264.927C218.248 264.927 224.175 256.375 211.625 258.048C201.227 259.435 194.981 277.818 194.981 277.818L190.526 281.793L186.029 283.952L176.277 263.235L173.218 253.394L171.023 210.865L167.164 205.851C167.164 205.851 162.825 204.533 162.372 210.047C161.918 215.561 161.292 222.733 161.292 222.733L156.976 243.624L158.175 252.406L153.768 270.94L151.948 278.797L151.89 287.725L146.581 314.191L142.489 323.298" fill="url(#paint123_radial_1584_4711)"/>
<path d="M164.786 345.179L171.658 334.225C171.658 334.225 182.422 329.702 193.411 305.126L197.804 300.612C197.804 300.612 198.974 290.281 209.506 279.048L218.248 264.927C218.248 264.927 224.175 256.375 211.625 258.048C201.227 259.435 194.981 277.818 194.981 277.818L190.526 281.793L186.029 283.952L176.277 263.235L173.218 253.394L171.023 210.865L167.164 205.851C167.164 205.851 162.825 204.533 162.372 210.047C161.918 215.561 161.292 222.733 161.292 222.733L156.976 243.624L158.175 252.406L153.768 270.94L151.948 278.797L151.89 287.725L146.581 314.191L142.489 323.298" fill="url(#paint124_radial_1584_4711)"/>
<path d="M164.786 345.179L171.658 334.225C171.658 334.225 182.422 329.702 193.411 305.126L197.804 300.612C197.804 300.612 198.974 290.281 209.506 279.048L218.248 264.927C218.248 264.927 224.175 256.375 211.625 258.048C201.227 259.435 194.981 277.818 194.981 277.818L190.526 281.793L186.029 283.952L176.277 263.235L173.218 253.394L171.023 210.865L167.164 205.851C167.164 205.851 162.825 204.533 162.372 210.047C161.918 215.561 161.292 222.733 161.292 222.733L156.976 243.624L158.175 252.406L153.768 270.94L151.948 278.797L151.89 287.725L146.581 314.191L142.489 323.298" fill="url(#paint125_radial_1584_4711)"/>
<path d="M164.786 345.179L171.658 334.225C171.658 334.225 182.422 329.702 193.411 305.126L197.804 300.612C197.804 300.612 198.974 290.281 209.506 279.048L218.248 264.927C218.248 264.927 224.175 256.375 211.625 258.048C201.227 259.435 194.981 277.818 194.981 277.818L190.526 281.793L186.029 283.952L176.277 263.235L173.218 253.394L171.023 210.865L167.164 205.851C167.164 205.851 162.825 204.533 162.372 210.047C161.918 215.561 161.292 222.733 161.292 222.733L156.976 243.624L158.175 252.406L153.768 270.94L151.948 278.797L151.89 287.725L146.581 314.191L142.489 323.298" stroke="white" stroke-width="2" stroke-linejoin="round"/>
<path d="M459 242.495C456.45 242.727 454.985 242.94 454.086 243.644C453.029 244.469 452.778 245.979 452.5 249C452.213 245.868 451.953 244.367 450.794 243.561C449.894 242.931 448.439 242.727 446 242.505C448.541 242.273 450.015 242.06 450.905 241.365C451.971 240.531 452.222 239.03 452.5 236C452.76 238.789 452.991 240.281 453.854 241.143C454.716 242.004 456.218 242.245 459 242.495Z" fill="white"/>
<path d="M114 137.495C111.45 137.727 109.985 137.94 109.086 138.644C108.029 139.469 107.778 140.979 107.5 144C107.213 140.868 106.953 139.367 105.794 138.561C104.894 137.931 103.439 137.727 101 137.505C103.541 137.273 105.015 137.06 105.905 136.365C106.971 135.531 107.222 134.03 107.5 131C107.76 133.789 107.991 135.281 108.854 136.143C109.716 137.004 111.218 137.245 114 137.495Z" fill="white"/>
<path d="M409.466 343.335C408.488 341.115 407.855 339.864 406.951 339.269C405.891 338.568 404.46 338.799 401.663 339.461C404.389 338.258 405.658 337.572 406.032 336.288C406.327 335.29 406.071 333.921 405.534 331.664C406.509 333.876 407.145 335.135 408.038 335.725C409.109 336.431 410.532 336.203 413.337 335.538C410.911 336.613 409.641 337.271 409.128 338.306C408.614 339.34 408.851 340.762 409.466 343.335Z" fill="white"/>
<path d="M93.8027 323.956C93.5833 321.54 93.3814 320.153 92.7142 319.3C91.933 318.299 90.5022 318.062 87.6406 317.798C90.6075 317.526 92.0296 317.28 92.7932 316.182C93.3901 315.33 93.5833 313.951 93.7939 311.641C94.0134 314.047 94.2153 315.444 94.8736 316.287C95.6636 317.298 97.0857 317.535 99.9561 317.798C97.3139 318.044 95.9006 318.264 95.0843 319.081C94.2679 319.898 94.0397 321.321 93.8027 323.956Z" fill="white"/>
<path d="M232.15 203.428L233.602 202.696C236.484 201.383 240.276 203.428 242.053 207.281C243.83 211.135 242.942 215.311 240.038 216.624L238.456 217.485" fill="url(#paint126_linear_1584_4711)"/>
<path d="M232.15 203.428L233.602 202.696C236.484 201.383 240.276 203.428 242.053 207.281C243.83 211.135 242.942 215.311 240.038 216.624L238.456 217.485" stroke="white" stroke-width="0.5" stroke-miterlimit="10" stroke-linecap="round"/>
<path d="M238.702 217.499C241.595 216.173 242.493 211.942 240.708 208.049C238.922 204.156 235.13 202.075 232.238 203.401C229.345 204.728 228.447 208.959 230.232 212.852C232.017 216.745 235.809 218.826 238.702 217.499Z" fill="#E6FFF9" stroke="white" stroke-width="0.5" stroke-miterlimit="10"/>
<path d="M215.278 249.996C221.199 249.374 225.461 243.751 224.798 237.435C224.135 231.119 218.798 226.503 212.877 227.125C206.956 227.746 202.693 233.37 203.356 239.686C204.019 246.002 209.357 250.618 215.278 249.996Z" fill="url(#paint127_linear_1584_4711)" stroke="white" stroke-width="0.5" stroke-miterlimit="10"/>
<path d="M213.122 250.543C219.043 249.921 223.306 244.297 222.642 237.982C221.979 231.666 216.642 227.05 210.721 227.671C204.8 228.293 200.537 233.917 201.2 240.233C201.864 246.548 207.201 251.164 213.122 250.543Z" fill="#E6FFF9" stroke="white" stroke-width="0.5" stroke-miterlimit="10"/>
<path d="M303.74 223.718C304.404 217.391 300.121 211.756 294.174 211.131C288.227 210.507 282.867 215.13 282.203 221.457C281.538 227.785 285.821 233.42 291.768 234.045C297.716 234.669 303.075 230.046 303.74 223.718Z" fill="url(#paint128_linear_1584_4711)" stroke="white" stroke-width="0.5" stroke-miterlimit="10"/>
<path d="M305.899 224.271C306.564 217.944 302.281 212.308 296.334 211.684C290.386 211.06 285.027 215.683 284.362 222.01C283.698 228.338 287.981 233.973 293.928 234.597C299.875 235.222 305.235 230.598 305.899 224.271Z" fill="#E6FFF9" stroke="white" stroke-width="0.5" stroke-miterlimit="10"/>
<path d="M267.825 167.721L264.991 166.273C259.366 163.675 251.965 167.721 248.497 175.344C245.03 182.967 246.763 191.228 252.431 193.826L255.518 195.53" fill="url(#paint129_linear_1584_4711)"/>
<path d="M267.825 167.721L264.991 166.273C259.366 163.675 251.965 167.721 248.497 175.344C245.03 182.967 246.763 191.228 252.431 193.826L255.518 195.53" stroke="white" stroke-width="0.5" stroke-miterlimit="10" stroke-linecap="round"/>
<path d="M271.752 186.132C275.236 178.534 273.484 170.276 267.838 167.688C262.193 165.099 254.792 169.16 251.308 176.758C247.824 184.356 249.577 192.614 255.222 195.203C260.867 197.791 268.268 193.73 271.752 186.132Z" fill="#E6FFF9" stroke="white" stroke-width="0.5" stroke-miterlimit="10"/>
<defs>
<radialGradient id="paint0_angular_1584_4711" cx="0" cy="0" r="1" gradientUnits="userSpaceOnUse" gradientTransform="translate(489.008 280.674) rotate(106.342) scale(13.661 13.7557)">
<stop offset="0.15625" stop-color="#D3FFFC"/>
<stop offset="0.410853" stop-color="#FFEFAE"/>
<stop offset="0.695086" stop-color="#DAC4FF"/>
<stop offset="0.857713" stop-color="#E2C5F8"/>
<stop offset="1" stop-color="#FFC9DC"/>
</radialGradient>
<radialGradient id="paint1_radial_1584_4711" cx="0" cy="0" r="1" gradientUnits="userSpaceOnUse" gradientTransform="translate(483.337 278.339) rotate(66.9487) scale(17.0372)">
<stop stop-color="white"/>
<stop offset="0.824451" stop-color="white" stop-opacity="0"/>
<stop offset="1" stop-color="white"/>
</radialGradient>
<radialGradient id="paint2_radial_1584_4711" cx="0" cy="0" r="1" gradientUnits="userSpaceOnUse" gradientTransform="translate(488.007 279.339) rotate(86.7467) scale(14.3237 30.1339)">
<stop stop-color="white"/>
<stop offset="0.529096" stop-color="white" stop-opacity="0"/>
</radialGradient>
<linearGradient id="paint3_linear_1584_4711" x1="438.993" y1="268.876" x2="411.241" y2="295.358" gradientUnits="userSpaceOnUse">
<stop stop-color="white"/>
<stop offset="0.791667" stop-color="#FEEDDB"/>
<stop offset="1" stop-color="#FDFCE6"/>
</linearGradient>
<radialGradient id="paint4_radial_1584_4711" cx="0" cy="0" r="1" gradientUnits="userSpaceOnUse" gradientTransform="translate(406.125 279.608) rotate(10.8482) scale(41.8912)">
<stop stop-color="#FFE373"/>
<stop offset="1" stop-color="white" stop-opacity="0"/>
</radialGradient>
<radialGradient id="paint5_radial_1584_4711" cx="0" cy="0" r="1" gradientUnits="userSpaceOnUse" gradientTransform="translate(409.306 270.693) rotate(73.0144) scale(29.241)">
<stop stop-color="#5BF1CD"/>
<stop offset="1" stop-color="white" stop-opacity="0"/>
</radialGradient>
<radialGradient id="paint6_radial_1584_4711" cx="0" cy="0" r="1" gradientUnits="userSpaceOnUse" gradientTransform="translate(433.747 304.851) rotate(-75.4006) scale(26.3124)">
<stop stop-color="#F579A6"/>
<stop offset="1" stop-color="white" stop-opacity="0"/>
</radialGradient>
<radialGradient id="paint7_radial_1584_4711" cx="0" cy="0" r="1" gradientUnits="userSpaceOnUse" gradientTransform="translate(426.285 264.966) rotate(67.7894) scale(32.5646 29.4759)">
<stop offset="0.0989583" stop-color="white"/>
<stop offset="1" stop-color="white" stop-opacity="0"/>
</radialGradient>
<radialGradient id="paint8_radial_1584_4711" cx="0" cy="0" r="1" gradientUnits="userSpaceOnUse" gradientTransform="translate(397.113 198.002) rotate(-35.4935) scale(20.8144)">
<stop stop-color="#FFE373"/>
<stop offset="1" stop-color="white" stop-opacity="0"/>
</radialGradient>
<radialGradient id="paint9_radial_1584_4711" cx="0" cy="0" r="1" gradientUnits="userSpaceOnUse" gradientTransform="translate(394.558 188.818) rotate(40.5964) scale(17.6802)">
<stop stop-color="#8C65F7"/>
<stop offset="1" stop-color="white" stop-opacity="0"/>
</radialGradient>
<radialGradient id="paint10_radial_1584_4711" cx="0" cy="0" r="1" gradientUnits="userSpaceOnUse" gradientTransform="translate(413.836 200.071) rotate(-109.261) scale(15.3145)">
<stop stop-color="#5BF1CD"/>
<stop offset="1" stop-color="white" stop-opacity="0"/>
</radialGradient>
<radialGradient id="paint11_radial_1584_4711" cx="0" cy="0" r="1" gradientUnits="userSpaceOnUse" gradientTransform="translate(422.172 349.253) rotate(54.5065) scale(41.8912)">
<stop offset="0.28885" stop-color="#5BF1CD"/>
<stop offset="1" stop-color="white" stop-opacity="0"/>
</radialGradient>
<radialGradient id="paint12_radial_1584_4711" cx="0" cy="0" r="1" gradientUnits="userSpaceOnUse" gradientTransform="translate(421.62 373.431) rotate(-15.6422) scale(27.338)">
<stop offset="0.00577577" stop-color="#F579A6"/>
<stop offset="1" stop-color="#FFEFAE"/>
</radialGradient>
<radialGradient id="paint13_radial_1584_4711" cx="0" cy="0" r="1" gradientUnits="userSpaceOnUse" gradientTransform="translate(451.104 363.954) rotate(137.42) scale(26.4568)">
<stop stop-color="#D3FFFC"/>
<stop offset="1" stop-color="white" stop-opacity="0"/>
</radialGradient>
<linearGradient id="paint14_linear_1584_4711" x1="42.5455" y1="81.8789" x2="42.5455" y2="206.123" gradientUnits="userSpaceOnUse">
<stop stop-color="#E7F1F4"/>
<stop offset="0.541667" stop-color="#FEEDDB"/>
<stop offset="1" stop-color="#FDFCE6"/>
</linearGradient>
<radialGradient id="paint15_radial_1584_4711" cx="0" cy="0" r="1" gradientUnits="userSpaceOnUse" gradientTransform="translate(44.4989 102.332) rotate(-35.4935) scale(18.9439)">
<stop offset="0.28885" stop-color="#5BF1CD"/>
<stop offset="1" stop-color="white" stop-opacity="0"/>
</radialGradient>
<radialGradient id="paint16_radial_1584_4711" cx="0" cy="0" r="1" gradientUnits="userSpaceOnUse" gradientTransform="translate(55.4329 102.582) rotate(-105.642) scale(12.3627)">
<stop offset="0.00577577" stop-color="#F579A6"/>
<stop offset="1" stop-color="#FFEFAE"/>
</radialGradient>
<radialGradient id="paint17_radial_1584_4711" cx="0" cy="0" r="1" gradientUnits="userSpaceOnUse" gradientTransform="translate(51.1471 89.2488) rotate(47.4195) scale(11.9642)">
<stop stop-color="#D3FFFC"/>
<stop offset="1" stop-color="white" stop-opacity="0"/>
</radialGradient>
<radialGradient id="paint18_angular_1584_4711" cx="0" cy="0" r="1" gradientUnits="userSpaceOnUse" gradientTransform="translate(42.743 128.606) rotate(106.342) scale(12.1521 12.2363)">
<stop offset="0.15625" stop-color="#D3FFFC"/>
<stop offset="0.410853" stop-color="#FFEFAE"/>
<stop offset="0.695086" stop-color="#DAC4FF"/>
<stop offset="0.857713" stop-color="#E2C5F8"/>
<stop offset="1" stop-color="#FFC9DC"/>
</radialGradient>
<radialGradient id="paint19_radial_1584_4711" cx="0" cy="0" r="1" gradientUnits="userSpaceOnUse" gradientTransform="translate(37.699 126.529) rotate(66.9487) scale(15.1553)">
<stop stop-color="white"/>
<stop offset="0.824451" stop-color="white" stop-opacity="0"/>
<stop offset="1" stop-color="white"/>
</radialGradient>
<radialGradient id="paint20_radial_1584_4711" cx="0" cy="0" r="1" gradientUnits="userSpaceOnUse" gradientTransform="translate(41.8529 127.419) rotate(86.7467) scale(12.7416 26.8055)">
<stop stop-color="white"/>
<stop offset="0.529096" stop-color="white" stop-opacity="0"/>
</radialGradient>
<radialGradient id="paint21_radial_1584_4711" cx="0" cy="0" r="1" gradientUnits="userSpaceOnUse" gradientTransform="translate(35.993 148.822) rotate(54.5065) scale(22.9646)">
<stop offset="0.28885" stop-color="#5BF1CD"/>
<stop offset="1" stop-color="white" stop-opacity="0"/>
</radialGradient>
<radialGradient id="paint22_radial_1584_4711" cx="0" cy="0" r="1" gradientUnits="userSpaceOnUse" gradientTransform="translate(35.6902 162.076) rotate(-15.6422) scale(14.9866)">
<stop offset="0.00577577" stop-color="#F579A6"/>
<stop offset="1" stop-color="#FFEFAE"/>
</radialGradient>
<radialGradient id="paint23_radial_1584_4711" cx="0" cy="0" r="1" gradientUnits="userSpaceOnUse" gradientTransform="translate(51.8535 156.881) rotate(137.42) scale(14.5035)">
<stop stop-color="#D3FFFC"/>
<stop offset="1" stop-color="white" stop-opacity="0"/>
</radialGradient>
<linearGradient id="paint24_linear_1584_4711" x1="42.5759" y1="173.869" x2="42.5759" y2="194.898" gradientUnits="userSpaceOnUse">
<stop stop-color="white"/>
<stop offset="0.791667" stop-color="#FEEDDB"/>
<stop offset="1" stop-color="#FDFCE6"/>
</linearGradient>
<radialGradient id="paint25_radial_1584_4711" cx="0" cy="0" r="1" gradientUnits="userSpaceOnUse" gradientTransform="translate(34.393 190.966) rotate(-35.4935) scale(22.9646)">
<stop stop-color="#FFE373"/>
<stop offset="1" stop-color="white" stop-opacity="0"/>
</radialGradient>
<radialGradient id="paint26_radial_1584_4711" cx="0" cy="0" r="1" gradientUnits="userSpaceOnUse" gradientTransform="translate(32.0615 186.331) rotate(26.6728) scale(16.0298)">
<stop stop-color="#5BF1CD"/>
<stop offset="1" stop-color="white" stop-opacity="0"/>
</radialGradient>
<radialGradient id="paint27_radial_1584_4711" cx="0" cy="0" r="1" gradientUnits="userSpaceOnUse" gradientTransform="translate(54.858 189.565) rotate(-121.742) scale(14.4244)">
<stop stop-color="#F579A6"/>
<stop offset="1" stop-color="white" stop-opacity="0"/>
</radialGradient>
<radialGradient id="paint28_radial_1584_4711" cx="0" cy="0" r="1" gradientUnits="userSpaceOnUse" gradientTransform="translate(36.2154 177.43) rotate(21.4477) scale(17.8518 16.1586)">
<stop offset="0.0989583" stop-color="white"/>
<stop offset="1" stop-color="white" stop-opacity="0"/>
</radialGradient>
<linearGradient id="paint29_linear_1584_4711" x1="488.775" y1="309" x2="488.775" y2="436" gradientUnits="userSpaceOnUse">
<stop stop-color="#E7F1F4"/>
<stop offset="0.541667" stop-color="#FEEDDB"/>
<stop offset="1" stop-color="#FDFCE6"/>
</linearGradient>
<radialGradient id="paint30_radial_1584_4711" cx="0" cy="0" r="1" gradientUnits="userSpaceOnUse" gradientTransform="translate(500.274 412.257) rotate(-108.071) scale(84.7034 52.8392)">
<stop stop-color="#FFE373"/>
<stop offset="1" stop-color="white" stop-opacity="0"/>
</radialGradient>
<radialGradient id="paint31_radial_1584_4711" cx="0" cy="0" r="1" gradientUnits="userSpaceOnUse" gradientTransform="translate(471.516 403.79) rotate(-81.8089) scale(74.8469 23.5917)">
<stop stop-color="#B6FFEA"/>
<stop offset="1" stop-color="white" stop-opacity="0"/>
</radialGradient>
<radialGradient id="paint32_radial_1584_4711" cx="0" cy="0" r="1" gradientUnits="userSpaceOnUse" gradientTransform="translate(2.38317 17.4766) rotate(-35.4935) scale(23.474)">
<stop stop-color="#FFE373"/>
<stop offset="1" stop-color="white" stop-opacity="0"/>
</radialGradient>
<radialGradient id="paint33_radial_1584_4711" cx="0" cy="0" r="1" gradientUnits="userSpaceOnUse" gradientTransform="translate(-0.498441 7.11836) rotate(40.5964) scale(19.9393)">
<stop stop-color="#8C65F7"/>
<stop offset="1" stop-color="white" stop-opacity="0"/>
</radialGradient>
<radialGradient id="paint34_radial_1584_4711" cx="0" cy="0" r="1" gradientUnits="userSpaceOnUse" gradientTransform="translate(21.2424 19.8093) rotate(-109.261) scale(17.2713)">
<stop stop-color="#5BF1CD"/>
<stop offset="1" stop-color="white" stop-opacity="0"/>
</radialGradient>
<radialGradient id="paint35_radial_1584_4711" cx="0" cy="0" r="1" gradientUnits="userSpaceOnUse" gradientTransform="translate(497.037 363.902) rotate(-144.507) scale(23.474)">
<stop stop-color="#FFE373"/>
<stop offset="1" stop-color="white" stop-opacity="0"/>
</radialGradient>
<radialGradient id="paint36_radial_1584_4711" cx="0" cy="0" r="1" gradientUnits="userSpaceOnUse" gradientTransform="translate(499.918 353.544) rotate(139.404) scale(19.9393)">
<stop stop-color="#8C65F7"/>
<stop offset="1" stop-color="white" stop-opacity="0"/>
</radialGradient>
<radialGradient id="paint37_radial_1584_4711" cx="0" cy="0" r="1" gradientUnits="userSpaceOnUse" gradientTransform="translate(476.118 362.469) rotate(-58.2577) scale(14.7443)">
<stop stop-color="#5BF1CD"/>
<stop offset="1" stop-color="white" stop-opacity="0"/>
</radialGradient>
<radialGradient id="paint38_radial_1584_4711" cx="0" cy="0" r="1" gradientUnits="userSpaceOnUse" gradientTransform="translate(497.037 394.84) rotate(-144.507) scale(23.474)">
<stop stop-color="#FFE373"/>
<stop offset="1" stop-color="white" stop-opacity="0"/>
</radialGradient>
<radialGradient id="paint39_radial_1584_4711" cx="0" cy="0" r="1" gradientUnits="userSpaceOnUse" gradientTransform="translate(499.918 384.482) rotate(139.404) scale(19.9393)">
<stop stop-color="#8C65F7"/>
<stop offset="1" stop-color="white" stop-opacity="0"/>
</radialGradient>
<radialGradient id="paint40_radial_1584_4711" cx="0" cy="0" r="1" gradientUnits="userSpaceOnUse" gradientTransform="translate(476.118 393.407) rotate(-58.2577) scale(14.7443)">
<stop stop-color="#5BF1CD"/>
<stop offset="1" stop-color="white" stop-opacity="0"/>
</radialGradient>
<radialGradient id="paint41_radial_1584_4711" cx="0" cy="0" r="1" gradientUnits="userSpaceOnUse" gradientTransform="translate(488.209 384.57) rotate(118.937) scale(12.5582)">
<stop offset="0.269931" stop-color="white" stop-opacity="0"/>
<stop offset="0.750175" stop-color="white" stop-opacity="0"/>
<stop offset="1" stop-color="white"/>
</radialGradient>
<radialGradient id="paint42_radial_1584_4711" cx="0" cy="0" r="1" gradientUnits="userSpaceOnUse" gradientTransform="translate(2.38317 17.4766) rotate(-35.4935) scale(23.474)">
<stop stop-color="#FFE373"/>
<stop offset="1" stop-color="white" stop-opacity="0"/>
</radialGradient>
<radialGradient id="paint43_radial_1584_4711" cx="0" cy="0" r="1" gradientUnits="userSpaceOnUse" gradientTransform="translate(-0.498441 7.11836) rotate(40.5964) scale(19.9393)">
<stop stop-color="#8C65F7"/>
<stop offset="1" stop-color="white" stop-opacity="0"/>
</radialGradient>
<radialGradient id="paint44_radial_1584_4711" cx="0" cy="0" r="1" gradientUnits="userSpaceOnUse" gradientTransform="translate(23.3021 16.0436) rotate(-121.742) scale(14.7443)">
<stop stop-color="#5BF1CD"/>
<stop offset="1" stop-color="white" stop-opacity="0"/>
</radialGradient>
<radialGradient id="paint45_radial_1584_4711" cx="0" cy="0" r="1" gradientUnits="userSpaceOnUse" gradientTransform="translate(9.70523 8.49208) rotate(52.0013) scale(12.3159)">
<stop offset="0.269931" stop-color="white" stop-opacity="0"/>
<stop offset="0.750175" stop-color="white" stop-opacity="0"/>
<stop offset="1" stop-color="white"/>
</radialGradient>
<radialGradient id="paint46_angular_1584_4711" cx="0" cy="0" r="1" gradientUnits="userSpaceOnUse" gradientTransform="translate(101.721 179.418) rotate(106.342) scale(23.5733 23.7368)">
<stop offset="0.15625" stop-color="#D3FFFC"/>
<stop offset="0.410853" stop-color="#FFEFAE"/>
<stop offset="0.695086" stop-color="#DAC4FF"/>
<stop offset="0.857713" stop-color="#E2C5F8"/>
<stop offset="1" stop-color="#FFC9DC"/>
</radialGradient>
<radialGradient id="paint47_radial_1584_4711" cx="0" cy="0" r="1" gradientUnits="userSpaceOnUse" gradientTransform="translate(91.9358 175.389) rotate(66.9487) scale(29.3992)">
<stop stop-color="white"/>
<stop offset="0.824451" stop-color="white" stop-opacity="0"/>
<stop offset="1" stop-color="white"/>
</radialGradient>
<radialGradient id="paint48_radial_1584_4711" cx="0" cy="0" r="1" gradientUnits="userSpaceOnUse" gradientTransform="translate(99.9938 177.116) rotate(86.7467) scale(24.7169 51.9989)">
<stop stop-color="white"/>
<stop offset="0.529096" stop-color="white" stop-opacity="0"/>
</radialGradient>
<linearGradient id="paint49_linear_1584_4711" x1="107.397" y1="382" x2="107.397" y2="422.793" gradientUnits="userSpaceOnUse">
<stop stop-color="white"/>
<stop offset="0.791667" stop-color="#FEEDDB"/>
<stop offset="1" stop-color="#FDFCE6"/>
</linearGradient>
<radialGradient id="paint50_radial_1584_4711" cx="0" cy="0" r="1" gradientUnits="userSpaceOnUse" gradientTransform="translate(91.5227 415.166) rotate(-35.4935) scale(44.5482)">
<stop stop-color="#FFE373"/>
<stop offset="1" stop-color="white" stop-opacity="0"/>
</radialGradient>
<radialGradient id="paint51_radial_1584_4711" cx="0" cy="0" r="1" gradientUnits="userSpaceOnUse" gradientTransform="translate(87 406.174) rotate(26.6728) scale(31.0956)">
<stop stop-color="#5BF1CD"/>
<stop offset="1" stop-color="white" stop-opacity="0"/>
</radialGradient>
<radialGradient id="paint52_radial_1584_4711" cx="0" cy="0" r="1" gradientUnits="userSpaceOnUse" gradientTransform="translate(131.222 412.447) rotate(-121.742) scale(27.9813)">
<stop stop-color="#F579A6"/>
<stop offset="1" stop-color="white" stop-opacity="0"/>
</radialGradient>
<radialGradient id="paint53_radial_1584_4711" cx="0" cy="0" r="1" gradientUnits="userSpaceOnUse" gradientTransform="translate(95.058 388.907) rotate(21.4477) scale(34.63 31.3454)">
<stop offset="0.0989583" stop-color="white"/>
<stop offset="1" stop-color="white" stop-opacity="0"/>
</radialGradient>
<radialGradient id="paint54_radial_1584_4711" cx="0" cy="0" r="1" gradientUnits="userSpaceOnUse" gradientTransform="translate(69.9935 339.952) rotate(-35.4935) scale(29.4855)">
<stop stop-color="#FFE373"/>
<stop offset="1" stop-color="white" stop-opacity="0"/>
</radialGradient>
<radialGradient id="paint55_radial_1584_4711" cx="0" cy="0" r="1" gradientUnits="userSpaceOnUse" gradientTransform="translate(66.3739 326.941) rotate(40.5964) scale(25.0456)">
<stop stop-color="#8C65F7"/>
<stop offset="1" stop-color="white" stop-opacity="0"/>
</radialGradient>
<radialGradient id="paint56_radial_1584_4711" cx="0" cy="0" r="1" gradientUnits="userSpaceOnUse" gradientTransform="translate(93.6823 342.882) rotate(-109.261) scale(21.6944)">
<stop stop-color="#5BF1CD"/>
<stop offset="1" stop-color="white" stop-opacity="0"/>
</radialGradient>
<radialGradient id="paint57_radial_1584_4711" cx="0" cy="0" r="1" gradientUnits="userSpaceOnUse" gradientTransform="translate(26.5227 278.166) rotate(-35.4935) scale(44.5482)">
<stop offset="0.28885" stop-color="#5BF1CD"/>
<stop offset="1" stop-color="white" stop-opacity="0"/>
</radialGradient>
<radialGradient id="paint58_radial_1584_4711" cx="0" cy="0" r="1" gradientUnits="userSpaceOnUse" gradientTransform="translate(52.2348 278.754) rotate(-105.642) scale(29.0719)">
<stop offset="0.00577577" stop-color="#F579A6"/>
<stop offset="1" stop-color="#FFEFAE"/>
</radialGradient>
<radialGradient id="paint59_radial_1584_4711" cx="0" cy="0" r="1" gradientUnits="userSpaceOnUse" gradientTransform="translate(42.1565 247.399) rotate(47.4195) scale(28.1348)">
<stop stop-color="#D3FFFC"/>
<stop offset="1" stop-color="white" stop-opacity="0"/>
</radialGradient>
<linearGradient id="paint60_linear_1584_4711" x1="127.643" y1="254.74" x2="109.609" y2="268.821" gradientUnits="userSpaceOnUse">
<stop stop-color="white"/>
<stop offset="0.179306" stop-color="#F0F6F8"/>
<stop offset="0.499056" stop-color="#E7F1F4"/>
<stop offset="0.804596" stop-color="#FEEDDB"/>
<stop offset="1" stop-color="#FDFCE6"/>
</linearGradient>
<linearGradient id="paint61_linear_1584_4711" x1="363.233" y1="363.245" x2="336.143" y2="379.634" gradientUnits="userSpaceOnUse">
<stop stop-color="white"/>
<stop offset="0.179306" stop-color="#F0F6F8"/>
<stop offset="0.499056" stop-color="#E7F1F4"/>
<stop offset="0.804596" stop-color="#FEEDDB"/>
<stop offset="1" stop-color="#FDFCE6"/>
</linearGradient>
<linearGradient id="paint62_linear_1584_4711" x1="281.062" y1="101.32" x2="263.029" y2="115.401" gradientUnits="userSpaceOnUse">
<stop stop-color="white"/>
<stop offset="0.179306" stop-color="#F0F6F8"/>
<stop offset="0.499056" stop-color="#E7F1F4"/>
<stop offset="0.804596" stop-color="#FEEDDB"/>
<stop offset="1" stop-color="#FDFCE6"/>
</linearGradient>
<linearGradient id="paint63_linear_1584_4711" x1="146.258" y1="326.001" x2="109.026" y2="363.233" gradientUnits="userSpaceOnUse">
<stop stop-color="#E7F1F4"/>
<stop offset="0.541667" stop-color="#FEEDDB"/>
<stop offset="1" stop-color="#FDFCE6"/>
</linearGradient>
<radialGradient id="paint64_radial_1584_4711" cx="0" cy="0" r="1" gradientUnits="userSpaceOnUse" gradientTransform="translate(101.498 341.784) rotate(9.50652) scale(57.5017)">
<stop stop-color="#FFE373"/>
<stop offset="1" stop-color="white" stop-opacity="0"/>
</radialGradient>
<radialGradient id="paint65_radial_1584_4711" cx="0" cy="0" r="1" gradientUnits="userSpaceOnUse" gradientTransform="translate(114.449 318.851) rotate(85.5964) scale(48.8431)">
<stop stop-color="#8C65F7"/>
<stop offset="1" stop-color="white" stop-opacity="0"/>
</radialGradient>
<radialGradient id="paint66_radial_1584_4711" cx="0" cy="0" r="1" gradientUnits="userSpaceOnUse" gradientTransform="translate(140.215 375.536) rotate(-76.7423) scale(36.1175)">
<stop stop-color="#F579A6"/>
<stop offset="1" stop-color="white" stop-opacity="0"/>
</radialGradient>
<linearGradient id="paint67_linear_1584_4711" x1="146.258" y1="326.001" x2="109.026" y2="363.233" gradientUnits="userSpaceOnUse">
<stop stop-color="#D3FFFC"/>
<stop offset="0.244792" stop-color="#FCF7D6"/>
<stop offset="1" stop-color="#FFCEE0"/>
</linearGradient>
<linearGradient id="paint68_linear_1584_4711" x1="159.978" y1="350.303" x2="163.363" y2="380.766" gradientUnits="userSpaceOnUse">
<stop offset="0.00243902" stop-color="white"/>
<stop offset="0.301121" stop-color="#E3D9FD"/>
<stop offset="0.604167" stop-color="#B6FFEA"/>
<stop offset="1" stop-color="white"/>
</linearGradient>
<linearGradient id="paint69_linear_1584_4711" x1="265.628" y1="66.5784" x2="293.44" y2="101.89" gradientUnits="userSpaceOnUse">
<stop offset="0.00243902" stop-color="white"/>
<stop offset="0.1415" stop-color="#FFD98F"/>
<stop offset="0.272784" stop-color="#FFD0E1"/>
<stop offset="0.338542" stop-color="#E8D9F8"/>
<stop offset="0.510417" stop-color="#C9BCFF"/>
<stop offset="0.640625" stop-color="#D5E0FA"/>
<stop offset="0.8425" stop-color="#B6FFEA"/>
<stop offset="1" stop-color="white"/>
</linearGradient>
<radialGradient id="paint70_radial_1584_4711" cx="0" cy="0" r="1" gradientUnits="userSpaceOnUse" gradientTransform="translate(246.204 109.856) rotate(135.436) scale(101.757 49.076)">
<stop stop-color="white" stop-opacity="0"/>
<stop offset="0.209653" stop-color="white" stop-opacity="0"/>
<stop offset="0.38469" stop-color="white"/>
</radialGradient>
<linearGradient id="paint71_linear_1584_4711" x1="400.466" y1="326.013" x2="363.233" y2="363.245" gradientUnits="userSpaceOnUse">
<stop stop-color="#E7F1F4"/>
<stop offset="0.541667" stop-color="#FEEDDB"/>
<stop offset="1" stop-color="#FDFCE6"/>
</linearGradient>
<radialGradient id="paint72_radial_1584_4711" cx="0" cy="0" r="1" gradientUnits="userSpaceOnUse" gradientTransform="translate(355.706 341.796) rotate(9.50652) scale(57.5017)">
<stop stop-color="#FFE373"/>
<stop offset="1" stop-color="white" stop-opacity="0"/>
</radialGradient>
<radialGradient id="paint73_radial_1584_4711" cx="0" cy="0" r="1" gradientUnits="userSpaceOnUse" gradientTransform="translate(368.656 318.863) rotate(85.5964) scale(48.8431)">
<stop stop-color="#8C65F7"/>
<stop offset="1" stop-color="white" stop-opacity="0"/>
</radialGradient>
<radialGradient id="paint74_radial_1584_4711" cx="0" cy="0" r="1" gradientUnits="userSpaceOnUse" gradientTransform="translate(394.422 375.548) rotate(-76.7423) scale(36.1175)">
<stop stop-color="#F579A6"/>
<stop offset="1" stop-color="white" stop-opacity="0"/>
</radialGradient>
<linearGradient id="paint75_linear_1584_4711" x1="400.466" y1="326.013" x2="363.233" y2="363.245" gradientUnits="userSpaceOnUse">
<stop stop-color="#D3FFFC"/>
<stop offset="0.244792" stop-color="#FCF7D6"/>
<stop offset="1" stop-color="#FFCEE0"/>
</linearGradient>
<linearGradient id="paint76_linear_1584_4711" x1="385.065" y1="172.604" x2="346.14" y2="170.911" gradientUnits="userSpaceOnUse">
<stop offset="0.00243902" stop-color="white"/>
<stop offset="0.166069" stop-color="#B6FFEA"/>
<stop offset="0.536882" stop-color="#DED1FF"/>
<stop offset="1" stop-color="white"/>
</linearGradient>
<linearGradient id="paint77_linear_1584_4711" x1="337.473" y1="126.898" x2="343.116" y2="164.141" gradientUnits="userSpaceOnUse">
<stop offset="0.00243902" stop-color="white"/>
<stop offset="0.431292" stop-color="#FFD98F"/>
<stop offset="0.834917" stop-color="#B6FFEA"/>
<stop offset="1" stop-color="white"/>
</linearGradient>
<linearGradient id="paint78_linear_1584_4711" x1="146.253" y1="146.265" x2="119.17" y2="162.649" gradientUnits="userSpaceOnUse">
<stop stop-color="white"/>
<stop offset="0.179306" stop-color="#F0F6F8"/>
<stop offset="0.499056" stop-color="#E7F1F4"/>
<stop offset="0.804596" stop-color="#FEEDDB"/>
<stop offset="1" stop-color="#FDFCE6"/>
</linearGradient>
<linearGradient id="paint79_linear_1584_4711" x1="157.721" y1="126.91" x2="163.363" y2="164.143" gradientUnits="userSpaceOnUse">
<stop offset="0.00243902" stop-color="white"/>
<stop offset="0.431292" stop-color="#FFD98F"/>
<stop offset="0.834917" stop-color="#B6FFEA"/>
<stop offset="1" stop-color="white"/>
</linearGradient>
<linearGradient id="paint80_linear_1584_4711" x1="291.946" y1="347.124" x2="319.757" y2="382.436" gradientUnits="userSpaceOnUse">
<stop offset="0.00243902" stop-color="white"/>
<stop offset="0.1415" stop-color="#FFD98F"/>
<stop offset="0.272784" stop-color="#FFD0E1"/>
<stop offset="0.338542" stop-color="#E8D9F8"/>
<stop offset="0.510417" stop-color="#C9BCFF"/>
<stop offset="0.640625" stop-color="#D5E0FA"/>
<stop offset="0.8425" stop-color="#B6FFEA"/>
<stop offset="1" stop-color="white"/>
</linearGradient>
<radialGradient id="paint81_radial_1584_4711" cx="0" cy="0" r="1" gradientUnits="userSpaceOnUse" gradientTransform="translate(272.536 390.388) rotate(135.436) scale(101.714 49.076)">
<stop stop-color="white" stop-opacity="0"/>
<stop offset="0.209653" stop-color="white" stop-opacity="0"/>
<stop offset="0.38469" stop-color="white"/>
</radialGradient>
<linearGradient id="paint82_linear_1584_4711" x1="138.528" y1="193.678" x2="166.34" y2="228.99" gradientUnits="userSpaceOnUse">
<stop offset="0.00243902" stop-color="white"/>
<stop offset="0.1415" stop-color="#FFD98F"/>
<stop offset="0.272784" stop-color="#FFD0E1"/>
<stop offset="0.338542" stop-color="#E8D9F8"/>
<stop offset="0.510417" stop-color="#C9BCFF"/>
<stop offset="0.640625" stop-color="#D5E0FA"/>
<stop offset="0.8425" stop-color="#B6FFEA"/>
<stop offset="1" stop-color="white"/>
</linearGradient>
<linearGradient id="paint83_linear_1584_4711" x1="137.418" y1="222.225" x2="77.9519" y2="211.271" gradientUnits="userSpaceOnUse">
<stop offset="0.129825" stop-color="white" stop-opacity="0"/>
<stop offset="0.429629" stop-color="white"/>
</linearGradient>
<linearGradient id="paint84_linear_1584_4711" x1="254.187" y1="395.998" x2="203.293" y2="405.586" gradientUnits="userSpaceOnUse">
<stop offset="0.15625" stop-color="#D3FFFC"/>
<stop offset="0.410853" stop-color="#FFEFAE"/>
<stop offset="0.802083" stop-color="#DAC4FF"/>
<stop offset="1" stop-color="#FFC9DC"/>
</linearGradient>
<linearGradient id="paint85_linear_1584_4711" x1="343.884" y1="344.663" x2="236.744" y2="337.06" gradientUnits="userSpaceOnUse">
<stop stop-color="white"/>
<stop offset="0.130208" stop-color="#FFE99A"/>
<stop offset="0.296286" stop-color="#FFC1D8"/>
<stop offset="0.732044" stop-color="white"/>
</linearGradient>
<linearGradient id="paint86_linear_1584_4711" x1="240.642" y1="358.739" x2="304.555" y2="334.002" gradientUnits="userSpaceOnUse">
<stop stop-color="white"/>
<stop offset="0.203125" stop-color="white" stop-opacity="0.86"/>
<stop offset="0.494792" stop-color="white" stop-opacity="0.5"/>
<stop offset="0.958333" stop-color="white" stop-opacity="0"/>
</linearGradient>
<linearGradient id="paint87_linear_1584_4711" x1="210.64" y1="177.701" x2="273.168" y2="265.491" gradientUnits="userSpaceOnUse">
<stop offset="0.00243902" stop-color="white"/>
<stop offset="0.1415" stop-color="#FFD98F"/>
<stop offset="0.272784" stop-color="#FFD0E1"/>
<stop offset="0.338542" stop-color="#E8D9F8"/>
<stop offset="0.510417" stop-color="#C9BCFF"/>
<stop offset="0.640625" stop-color="#D5E0FA"/>
<stop offset="0.8425" stop-color="#B6FFEA"/>
<stop offset="1" stop-color="white"/>
</linearGradient>
<radialGradient id="paint88_radial_1584_4711" cx="0" cy="0" r="1" gradientUnits="userSpaceOnUse" gradientTransform="translate(185.934 260.004) rotate(135.616) scale(173.671 118.49)">
<stop stop-color="white" stop-opacity="0"/>
<stop offset="0.209653" stop-color="white" stop-opacity="0"/>
<stop offset="0.38469" stop-color="white"/>
</radialGradient>
<linearGradient id="paint89_linear_1584_4711" x1="120.489" y1="216.041" x2="213.57" y2="247.068" gradientUnits="userSpaceOnUse">
<stop offset="0.1415" stop-color="#FFD98F"/>
<stop offset="0.597347" stop-color="#FFD0E1"/>
<stop offset="1" stop-color="white"/>
</linearGradient>
<radialGradient id="paint90_radial_1584_4711" cx="0" cy="0" r="1" gradientUnits="userSpaceOnUse" gradientTransform="translate(183.613 235.991) rotate(136.232) scale(122.823 167.514)">
<stop stop-color="white" stop-opacity="0"/>
<stop offset="0.209653" stop-color="white" stop-opacity="0"/>
<stop offset="0.38469" stop-color="white"/>
</radialGradient>
<linearGradient id="paint91_linear_1584_4711" x1="256.444" y1="107.165" x2="254.187" y2="241.427" gradientUnits="userSpaceOnUse">
<stop offset="0.1415" stop-color="#FFD98F"/>
<stop offset="0.272784" stop-color="#FFD0E1"/>
<stop offset="0.338542" stop-color="#E8D9F8"/>
<stop offset="0.640625" stop-color="#D5E0FA"/>
<stop offset="0.8425" stop-color="#B6FFEA"/>
<stop offset="1" stop-color="white"/>
</linearGradient>
<radialGradient id="paint92_radial_1584_4711" cx="0" cy="0" r="1" gradientUnits="userSpaceOnUse" gradientTransform="translate(275.806 170.132) rotate(135.616) scale(173.693 118.49)">
<stop stop-color="white" stop-opacity="0"/>
<stop offset="0.209653" stop-color="white" stop-opacity="0"/>
<stop offset="0.38469" stop-color="white"/>
</radialGradient>
<radialGradient id="paint93_angular_1584_4711" cx="0" cy="0" r="1" gradientUnits="userSpaceOnUse" gradientTransform="translate(239 214.5) rotate(-157.283) scale(47.1383 54.0083)">
<stop offset="0.0663421" stop-color="#DEF2F5"/>
<stop offset="0.125922" stop-color="#D3FFFC"/>
<stop offset="0.17686" stop-color="#D7FEF7"/>
<stop offset="0.410853" stop-color="#FFEFAE"/>
<stop offset="0.802083" stop-color="#DAC4FF"/>
<stop offset="1" stop-color="#FFC9DC"/>
</radialGradient>
<linearGradient id="paint94_linear_1584_4711" x1="286.518" y1="286.529" x2="219.604" y2="318.892" gradientUnits="userSpaceOnUse">
<stop stop-color="white"/>
<stop offset="0.179306" stop-color="#F0F6F8"/>
<stop offset="0.499056" stop-color="#E7F1F4"/>
<stop offset="0.804596" stop-color="#FEEDDB"/>
<stop offset="1" stop-color="#FDFCE6"/>
</linearGradient>
<linearGradient id="paint95_linear_1584_4711" x1="376.394" y1="196.652" x2="309.472" y2="229.016" gradientUnits="userSpaceOnUse">
<stop stop-color="white"/>
<stop offset="0.179306" stop-color="#F0F6F8"/>
<stop offset="0.499056" stop-color="#E7F1F4"/>
<stop offset="0.804596" stop-color="#FEEDDB"/>
<stop offset="1" stop-color="#FDFCE6"/>
</linearGradient>
<linearGradient id="paint96_linear_1584_4711" x1="334.16" y1="183.759" x2="399.358" y2="314.958" gradientUnits="userSpaceOnUse">
<stop offset="0.00243902" stop-color="white"/>
<stop offset="0.1415" stop-color="#FFD98F"/>
<stop offset="0.272784" stop-color="#FFD0E1"/>
<stop offset="0.338542" stop-color="#E8D9F8"/>
<stop offset="0.510417" stop-color="#C9BCFF"/>
<stop offset="0.640625" stop-color="#D5E0FA"/>
<stop offset="0.8425" stop-color="#B6FFEA"/>
<stop offset="1" stop-color="white"/>
</linearGradient>
<radialGradient id="paint97_radial_1584_4711" cx="0" cy="0" r="1" gradientUnits="userSpaceOnUse" gradientTransform="translate(337.046 262.323) rotate(136.232) scale(122.845 167.535)">
<stop stop-color="white" stop-opacity="0"/>
<stop offset="0.209653" stop-color="white" stop-opacity="0"/>
<stop offset="0.38469" stop-color="white"/>
</radialGradient>
<linearGradient id="paint98_linear_1584_4711" x1="387.698" y1="269.648" x2="400.705" y2="297.831" gradientUnits="userSpaceOnUse">
<stop offset="0.00243902" stop-color="white"/>
<stop offset="0.431292" stop-color="#FFD98F"/>
<stop offset="0.834917" stop-color="#B6FFEA"/>
<stop offset="1" stop-color="white"/>
</linearGradient>
<linearGradient id="paint99_linear_1584_4711" x1="389.143" y1="199.749" x2="416.544" y2="276.787" gradientUnits="userSpaceOnUse">
<stop offset="0.00243902" stop-color="white"/>
<stop offset="0.1415" stop-color="#FFD98F"/>
<stop offset="0.272784" stop-color="#FFD0E1"/>
<stop offset="0.338542" stop-color="#E8D9F8"/>
<stop offset="0.510417" stop-color="#C9BCFF"/>
<stop offset="0.640625" stop-color="#D5E0FA"/>
<stop offset="0.8425" stop-color="#B6FFEA"/>
<stop offset="1" stop-color="white"/>
</linearGradient>
<radialGradient id="paint100_radial_1584_4711" cx="0" cy="0" r="1" gradientUnits="userSpaceOnUse" gradientTransform="translate(397.325 239.276) rotate(136.743) scale(50.8899 98.1094)">
<stop stop-color="white" stop-opacity="0"/>
<stop offset="0.209653" stop-color="white" stop-opacity="0"/>
<stop offset="0.38469" stop-color="white"/>
</radialGradient>
<linearGradient id="paint101_linear_1584_4711" x1="254" y1="218" x2="254" y2="278" gradientUnits="userSpaceOnUse">
<stop stop-color="#E7F1F4"/>
<stop offset="0.541667" stop-color="#FEEDDB"/>
<stop offset="1" stop-color="#FDFCE6"/>
</linearGradient>
<radialGradient id="paint102_radial_1584_4711" cx="0" cy="0" r="1" gradientUnits="userSpaceOnUse" gradientTransform="translate(337.155 244.268) rotate(139.631) scale(24.3761 22.9905)">
<stop offset="0.28885" stop-color="#5BF1CD"/>
<stop offset="1" stop-color="white" stop-opacity="0"/>
</radialGradient>
<radialGradient id="paint103_radial_1584_4711" cx="0" cy="0" r="1" gradientUnits="userSpaceOnUse" gradientTransform="translate(332.858 258.357) rotate(-143.894) scale(14.5145 16.4436)">
<stop offset="0.00577577" stop-color="#F579A6"/>
<stop offset="1" stop-color="#FFEFAE"/>
</radialGradient>
<radialGradient id="paint104_radial_1584_4711" cx="0" cy="0" r="1" gradientUnits="userSpaceOnUse" gradientTransform="translate(319.955 248.07) rotate(64.9576) scale(14.9403 14.9618)">
<stop stop-color="#D3FFFC"/>
<stop offset="1" stop-color="white" stop-opacity="0"/>
</radialGradient>
<radialGradient id="paint105_radial_1584_4711" cx="0" cy="0" r="1" gradientUnits="userSpaceOnUse" gradientTransform="translate(339.993 228.33) rotate(147.487) scale(26.9347 27.9463)">
<stop offset="0.28885" stop-color="#5BF1CD"/>
<stop offset="1" stop-color="white" stop-opacity="0"/>
</radialGradient>
<radialGradient id="paint106_radial_1584_4711" cx="0" cy="0" r="1" gradientUnits="userSpaceOnUse" gradientTransform="translate(335.782 242.476) rotate(-148.249) scale(19.0429 16.8342)">
<stop offset="0.00577577" stop-color="#F579A6"/>
<stop offset="1" stop-color="#FFEFAE"/>
</radialGradient>
<radialGradient id="paint107_radial_1584_4711" cx="0" cy="0" r="1" gradientUnits="userSpaceOnUse" gradientTransform="translate(317.877 230.544) rotate(56.6701) scale(17.5167 17.1401)">
<stop stop-color="#D3FFFC"/>
<stop offset="1" stop-color="white" stop-opacity="0"/>
</radialGradient>
<radialGradient id="paint108_radial_1584_4711" cx="0" cy="0" r="1" gradientUnits="userSpaceOnUse" gradientTransform="translate(343.36 209.059) rotate(136.041) scale(30.2262 26.4755)">
<stop offset="0.28885" stop-color="#5BF1CD"/>
<stop offset="1" stop-color="white" stop-opacity="0"/>
</radialGradient>
<radialGradient id="paint109_radial_1584_4711" cx="0" cy="0" r="1" gradientUnits="userSpaceOnUse" gradientTransform="translate(337.79 227.151) rotate(-141.293) scale(16.3851 20.8001)">
<stop offset="0.00577577" stop-color="#F579A6"/>
<stop offset="1" stop-color="#FFEFAE"/>
</radialGradient>
<radialGradient id="paint110_radial_1584_4711" cx="0" cy="0" r="1" gradientUnits="userSpaceOnUse" gradientTransform="translate(323.766 214.767) rotate(69.0867) scale(18.0322 17.7014)">
<stop stop-color="#D3FFFC"/>
<stop offset="1" stop-color="white" stop-opacity="0"/>
</radialGradient>
<radialGradient id="paint111_radial_1584_4711" cx="0" cy="0" r="1" gradientUnits="userSpaceOnUse" gradientTransform="translate(380.293 232.386) rotate(134.661) scale(131.592 111.372)">
<stop offset="0.28885" stop-color="#5BF1CD"/>
<stop offset="1" stop-color="white" stop-opacity="0"/>
</radialGradient>
<radialGradient id="paint112_radial_1584_4711" cx="0" cy="0" r="1" gradientUnits="userSpaceOnUse" gradientTransform="translate(355.661 312.109) rotate(-140.15) scale(68.6038 90.9803)">
<stop offset="0.00577577" stop-color="#F579A6"/>
<stop offset="1" stop-color="#FFEFAE"/>
</radialGradient>
<radialGradient id="paint113_radial_1584_4711" cx="0" cy="0" r="1" gradientUnits="userSpaceOnUse" gradientTransform="translate(297.98 258.868) rotate(70.7337) scale(77.709 75.2256)">
<stop stop-color="#D3FFFC"/>
<stop offset="1" stop-color="white" stop-opacity="0"/>
</radialGradient>
<radialGradient id="paint114_radial_1584_4711" cx="0" cy="0" r="1" gradientUnits="userSpaceOnUse" gradientTransform="translate(174.195 244.268) rotate(40.3685) scale(24.3761 22.9905)">
<stop offset="0.28885" stop-color="#5BF1CD"/>
<stop offset="1" stop-color="white" stop-opacity="0"/>
</radialGradient>
<radialGradient id="paint115_radial_1584_4711" cx="0" cy="0" r="1" gradientUnits="userSpaceOnUse" gradientTransform="translate(178.492 258.357) rotate(-36.1059) scale(14.5145 16.4436)">
<stop offset="0.00577577" stop-color="#F579A6"/>
<stop offset="1" stop-color="#FFEFAE"/>
</radialGradient>
<radialGradient id="paint116_radial_1584_4711" cx="0" cy="0" r="1" gradientUnits="userSpaceOnUse" gradientTransform="translate(191.394 248.07) rotate(115.042) scale(14.9403 14.9618)">
<stop stop-color="#D3FFFC"/>
<stop offset="1" stop-color="white" stop-opacity="0"/>
</radialGradient>
<radialGradient id="paint117_radial_1584_4711" cx="0" cy="0" r="1" gradientUnits="userSpaceOnUse" gradientTransform="translate(171.356 228.33) rotate(32.5132) scale(26.9347 27.9463)">
<stop offset="0.28885" stop-color="#5BF1CD"/>
<stop offset="1" stop-color="white" stop-opacity="0"/>
</radialGradient>
<radialGradient id="paint118_radial_1584_4711" cx="0" cy="0" r="1" gradientUnits="userSpaceOnUse" gradientTransform="translate(175.567 242.476) rotate(-31.7506) scale(19.0429 16.8342)">
<stop offset="0.00577577" stop-color="#F579A6"/>
<stop offset="1" stop-color="#FFEFAE"/>
</radialGradient>
<radialGradient id="paint119_radial_1584_4711" cx="0" cy="0" r="1" gradientUnits="userSpaceOnUse" gradientTransform="translate(193.472 230.544) rotate(123.33) scale(17.5167 17.1401)">
<stop stop-color="#D3FFFC"/>
<stop offset="1" stop-color="white" stop-opacity="0"/>
</radialGradient>
<radialGradient id="paint120_radial_1584_4711" cx="0" cy="0" r="1" gradientUnits="userSpaceOnUse" gradientTransform="translate(167.989 209.059) rotate(43.9592) scale(30.2262 26.4755)">
<stop offset="0.28885" stop-color="#5BF1CD"/>
<stop offset="1" stop-color="white" stop-opacity="0"/>
</radialGradient>
<radialGradient id="paint121_radial_1584_4711" cx="0" cy="0" r="1" gradientUnits="userSpaceOnUse" gradientTransform="translate(173.559 227.151) rotate(-38.7073) scale(16.3851 20.8001)">
<stop offset="0.00577577" stop-color="#F579A6"/>
<stop offset="1" stop-color="#FFEFAE"/>
</radialGradient>
<radialGradient id="paint122_radial_1584_4711" cx="0" cy="0" r="1" gradientUnits="userSpaceOnUse" gradientTransform="translate(187.583 214.767) rotate(110.913) scale(18.0322 17.7014)">
<stop stop-color="#D3FFFC"/>
<stop offset="1" stop-color="white" stop-opacity="0"/>
</radialGradient>
<radialGradient id="paint123_radial_1584_4711" cx="0" cy="0" r="1" gradientUnits="userSpaceOnUse" gradientTransform="translate(131.056 232.386) rotate(45.3394) scale(131.592 111.372)">
<stop offset="0.28885" stop-color="#5BF1CD"/>
<stop offset="1" stop-color="white" stop-opacity="0"/>
</radialGradient>
<radialGradient id="paint124_radial_1584_4711" cx="0" cy="0" r="1" gradientUnits="userSpaceOnUse" gradientTransform="translate(155.688 312.109) rotate(-39.8496) scale(68.6038 90.9803)">
<stop offset="0.00577577" stop-color="#F579A6"/>
<stop offset="1" stop-color="#FFEFAE"/>
</radialGradient>
<radialGradient id="paint125_radial_1584_4711" cx="0" cy="0" r="1" gradientUnits="userSpaceOnUse" gradientTransform="translate(213.369 258.868) rotate(109.266) scale(77.709 75.2256)">
<stop stop-color="#D3FFFC"/>
<stop offset="1" stop-color="white" stop-opacity="0"/>
</radialGradient>
<linearGradient id="paint126_linear_1584_4711" x1="237.559" y1="202.299" x2="237.559" y2="217.485" gradientUnits="userSpaceOnUse">
<stop stop-color="#FDDEE4"/>
<stop offset="1" stop-color="#B6FFEA"/>
</linearGradient>
<linearGradient id="paint127_linear_1584_4711" x1="212.877" y1="227.125" x2="215.278" y2="249.996" gradientUnits="userSpaceOnUse">
<stop stop-color="#FDDEE4"/>
<stop offset="1" stop-color="#B6FFEA"/>
</linearGradient>
<linearGradient id="paint128_linear_1584_4711" x1="282.203" y1="221.457" x2="303.74" y2="223.718" gradientUnits="userSpaceOnUse">
<stop stop-color="#FDDEE4"/>
<stop offset="1" stop-color="#B6FFEA"/>
</linearGradient>
<linearGradient id="paint129_linear_1584_4711" x1="257.269" y1="165.486" x2="257.269" y2="195.53" gradientUnits="userSpaceOnUse">
<stop stop-color="#FDDEE4"/>
<stop offset="1" stop-color="#B6FFEA"/>
</linearGradient>
</defs>
</svg>
