<svg height="224" width="158" xmlns="http://www.w3.org/2000/svg" xmlns:xlink="http://www.w3.org/1999/xlink"><mask id="a" fill="#fff"><path d="m.363.714h11.49v11.49h-11.49z" fill="#fff" fill-rule="evenodd"/></mask><g fill="none" fill-rule="evenodd"><path d="m114.57 107.903 13.953 27.492-10.588 44.96-25.216-20.6 4.42-32.98z" fill="#fff"/><path d="m77.318 98.69a5.257 5.257 0 0 1 -5.256-5.256v-41.426a5.256 5.256 0 0 1 10.512 0v41.426a5.257 5.257 0 0 1 -5.256 5.257" fill="#15003e"/><path d="m69.504 93.435h16.246" fill="#fff"/><path d="m85.75 98.69h-16.246a5.257 5.257 0 0 1 0-10.512h16.246a5.257 5.257 0 0 1 0 10.513" fill="#15003e"/><path d="m114.57 107.903 17.27-16.278c-13.216-13.216-31.474-21.391-51.64-21.391-40.335 0-73.032 32.697-73.032 73.03 0 40.335 32.697 73.033 73.031 73.033 15.034 0 28.256 5.488 39.87-2.3l14.454 2-.413-23.465-41.39-32.777 8.898-41.911 12.951-9.941" fill="#fff"/><path d="m80.2 223.463c-44.223 0-80.2-35.977-80.2-80.197 0-44.222 35.977-80.199 80.2-80.199 21.421 0 41.561 8.342 56.708 23.49l5.22 5.22-22.643 21.341-9.832-10.43 11.602-10.936c-11.623-9.3-25.952-14.35-41.056-14.35-36.318 0-65.864 29.545-65.864 65.864 0 36.316 29.546 65.863 65.864 65.863" fill="#15003e"/><path d="m120.454 182.267-10.295-9.975c7.58-7.823 11.755-18.13 11.755-29.026 0-11.373-4.494-22-12.653-29.926l-5.37-5.216 5.759-5.434 4.906 5.198 4.692-4.83c10.963 10.648 17 24.928 17 40.208 0 14.64-5.61 28.488-15.794 39.001" fill="#0fce7c"/><path d="m63.71 143.265c0-9.106 7.382-16.489 16.489-16.489s16.49 7.383 16.49 16.49c0 9.106-7.383 16.488-16.49 16.488s-16.49-7.382-16.49-16.489" fill="#eff4ee"/><path d="m80.2 133.944c-5.142 0-9.323 4.182-9.323 9.322 0 5.139 4.181 9.322 9.322 9.322 5.14 0 9.322-4.183 9.322-9.322 0-5.14-4.182-9.322-9.322-9.322m0 32.978c-13.044 0-23.657-10.612-23.657-23.656s10.613-23.657 23.657-23.657 23.656 10.613 23.656 23.657-10.612 23.656-23.656 23.656m51.641-75.298-41.675 38.506" fill="#15003e"/><path d="m95.03 135.395-9.73-10.529 41.675-38.505 9.73 10.528z" fill="#15003e"/><path d="m87.98 157.806 29.955 22.55 16.175 12.176v30.932l-32.492-1.565" fill="#fff"/><path d="m141.277 223.464h-62.38v-14.334h48.046v-13.02l-43.273-32.579 8.621-11.452 48.987 36.875z" fill="#15003e"/><path d="m11.853 6.459-5.745 5.745-5.745-5.745 5.745-5.745z" fill="#25e899" mask="url(#a)" transform="translate(146 49.493)"/><path d="m127.161 28.257-2.747 2.747-2.746-2.747 2.746-2.746zm28.529-24.116a4.141 4.141 0 1 0 -8.282 0 4.141 4.141 0 0 0 8.282 0" fill="#25e899"/><path d="m52.438 113.159a5.257 5.257 0 0 1 -5.256-5.256v-55.894a5.256 5.256 0 0 1 10.513 0v55.894a5.258 5.258 0 0 1 -5.257 5.256" fill="#15003e"/></g></svg>