<?xml version="1.0" encoding="utf-8"?>
<!-- Generator: Adobe Illustrator 21.0.2, SVG Export Plug-In . SVG Version: 6.00 Build 0)  -->
<svg version="1.1" id="Layer_1" xmlns="http://www.w3.org/2000/svg" xmlns:xlink="http://www.w3.org/1999/xlink" x="0px" y="0px"
	 viewBox="0 0 111 128.1667" style="enable-background:new 0 0 111 128.1667;" xml:space="preserve">
<style type="text/css">
	.st0{fill:#050932;}
	.st1{fill:#26FFAD;}
	.st2{enable-background:new    ;}
</style>
<g id="Layer_63_11_">
	<g>
		<g>
			<polygon class="st0" points="110.8691,96.1958 55.4434,128.1958 0.0195,96.1958 0.0195,32.1963 55.4434,0.1963 110.8691,32.1963 
							"/>
		</g>
	</g>
</g>
<g>
	<g>
		<g>
			<path class="st1" d="M46.6667,44.2l-0.1-0.3h-5.9c-0.1,0.3-0.2,0.5-0.3,0.8h5.6c0.3,1.6,0.9,7.9-6.2,12.7l0.7-2.3
				c0.9-0.5,4.4-2.7,4.5-8.8v-0.4h-4.6v0.8h3.8c-0.3,5.9-3.9,7.6-4.1,7.7l-0.2,0.1l-1.5,4.8l0.8-0.6
				C48.7666,53,46.6667,44.3,46.6667,44.2z"/>
		</g>
	</g>
</g>
<g>
	<g>
		<g>
			<path class="st1" d="M23.4667,54.4c0,0-3.8-1.8-4.1-7.7h3.8v-0.8h-4.6v0.4c0.2,6.1,3.7,8.3,4.5,8.8l0.7,2.3
				c-7.1-4.8-6.5-11.2-6.2-12.7h5.5c0-0.2,0-0.4,0-0.6c0-0.1-0.1-0.2-0.1-0.2h-6.2l-0.1,0.3c0,0.1-2.1,8.8,7.5,14.5l0.9,0.6
				l-1.5-4.8L23.4667,54.4z"/>
		</g>
	</g>
</g>
<g>
	<g>
		<g>
			<g>
				<path class="st1" d="M77.7666,22.1l-1-0.6l-2.1-1.2l-0.3-0.2l-1.9-1.1l-0.3-0.2l-2.3-1.3l-1-0.6l-13.4-7.8l-10.4,6l-1,0.6
					l-2.5,1.4l-0.3,0.2l-2.6,1.5l-0.3,0.2l-2.4,1.4l-1,0.6l-26.3,15.2v53.9l46.8,27l46.8-27V36.3L77.7666,22.1z M100.4667,89.1
					l-45,25.9l-44.8-25.9V37.4l25.4-14.6l1-0.5l2.4-1.4l0.3-0.2l2.6-1.5l0.3-0.2l2.5-1.4l1-0.6l9.6-5.5l12.6,7.3l1,0.6l2.3,1.3
					l0.3,0.2l1.9,1.1l0.3,0.2l2.1,1.2l1,0.6l23.2,13.4L100.4667,89.1L100.4667,89.1z"/>
			</g>
		</g>
	</g>
</g>
<g>
	<g>
		<g>
			<path class="st1" d="M33.7666,69.7h-3.8V64h3.8V69.7z M30.7666,68.7h2v-3.9h-2V68.7z"/>
		</g>
	</g>
</g>
<g>
	<g>
		<g>
			<path class="st1" d="M38.2666,72.3h-13v-3.5h12.9L38.2666,72.3L38.2666,72.3z M26.2666,71.5h11.1v-1.7h-11.1V71.5z"/>
		</g>
	</g>
</g>
<g>
	<g>
		<g>
			<path class="st1" d="M39.8667,75.5h-16.2v-4h16.2V75.5L39.8667,75.5z M24.6667,74.7h14.4v-2.2h-14.4V74.7z"/>
		</g>
	</g>
</g>
<g>
	<g>
		<g>
			<polygon class="st1" points="67.725,118.1833 66.625,118.9833 65.625,117.1833 66.625,116.6833 66.125,115.9833 65.225,116.4833 
				64.325,114.9833 65.425,114.1833 65.025,113.4833 62.925,114.6833 66.125,120.1833 68.225,118.9833 			"/>
		</g>
		<g>
			<polygon class="st1" points="69.525,118.3833 70.425,117.6833 67.725,112.9833 68.425,112.4833 67.925,111.6833 65.625,113.1833 
				66.025,113.9833 66.725,113.4833 			"/>
		</g>
		<g>
			<polygon class="st1" points="74.325,115.4833 71.125,109.9833 70.225,110.4833 71.625,112.9833 70.925,113.3833 69.525,110.8833 
				68.525,111.4833 71.725,116.9833 72.725,116.4833 71.325,114.1833 72.125,113.6833 73.425,115.9833 			"/>
		</g>
		<g>
			<path class="st1" d="M71.925,109.4833l3.2,5.6l1.8-1c0.5-0.3,0.6-0.8,0.3-1.2l-2.3-4c-0.3-0.5-0.8-0.6-1.2-0.3L71.925,109.4833z
				 M76.325,113.1833c0,0.1,0,0.2-0.1,0.2l-0.6,0.3l-2.3-4l0.6-0.3c0.1,0,0.2,0,0.2,0.1L76.325,113.1833z"/>
		</g>
		<g>
			<polygon class="st1" points="78.025,106.9833 77.525,106.1833 75.425,107.4833 78.725,112.9833 80.725,111.8833 80.325,110.9833 
				79.125,111.6833 78.225,109.9833 79.125,109.4833 78.725,108.6833 77.725,109.1833 76.825,107.6833 			"/>
		</g>
		<g>
			<polygon class="st1" points="82.025,108.1833 79.025,105.3833 78.225,105.8833 81.525,111.4833 82.225,110.9833 80.425,107.8833 
				83.325,110.3833 84.125,109.9833 80.925,104.3833 80.125,104.6833 			"/>
		</g>
		<g>
			<polygon class="st1" points="83.425,102.8833 85.225,106.9833 82.525,103.4833 81.525,103.9833 85.725,108.9833 86.625,108.4833 
				84.325,102.3833 			"/>
		</g>
		<g>
			<polygon class="st1" points="88.225,107.4833 90.225,106.3833 89.825,105.4833 88.625,106.1833 87.725,104.6833 88.625,103.9833 
				88.225,103.3833 87.225,103.8833 86.325,102.1833 87.525,101.6833 87.025,100.8833 84.925,101.9833 			"/>
		</g>
		<g>
			<path class="st1" d="M92.025,102.8833c0.2-0.2,0.2-0.6,0-0.9l-1.4-2.4c-0.2-0.4-0.7-0.5-1.1-0.3l-1.9,1.1l3.2,5.6l0.9-0.5
				l-1.1-1.9l0.3-0.2l1.5,1.6l0.9-0.5L92.025,102.8833z M91.025,102.3833L91.025,102.3833l-0.6,0.5l-1.2-2.2l0.6-0.4h0.1
				L91.025,102.3833z"/>
		</g>
	</g>
</g>
<g>
	<g>
		<line class="st1" x1="67.3667" y1="28" x2="67.4667" y2="27.7"/>
	</g>
</g>
<g>
	<g>
		<path class="st1" d="M31.8669,64.7996c-2.0059,0-3.7383-0.7529-5.1494-2.2363c-4.9434-5.1982-4.377-17.6602-4.3496-18.1885
			l0.0234-0.4746h18.7461l0.0283,0.4697c0.0322,0.5283,0.7236,12.9951-4.1699,18.1934
			C35.5983,64.0466,33.8727,64.7996,31.8669,64.7996z M23.3512,44.9001c-0.0527,2.334-0.0371,12.6338,4.0918,16.9746
			c1.2148,1.2773,2.7031,1.9248,4.4238,1.9248c1.7188,0,3.1992-0.6465,4.4004-1.9219c4.0908-4.3447,3.9961-14.6543,3.9199-16.9775
			H23.3512z"/>
	</g>
</g>
<g class="st2">
	<g>
		<path class="st1" d="M26.2565,52.3982c-0.1055,0-0.2646,0-0.4766,0c0-0.2119,0-0.5313,0-0.957c-0.1055,0-0.2656,0-0.4805,0
			c0,0.2119,0,0.5313,0,0.957c-0.1055,0-0.2646,0-0.4766,0c0-0.1797,0-0.4502,0-0.8105c0-0.1494,0-0.3359,0-0.5586
			c0-0.2246,0-0.4863,0-0.7842c0-0.0654,0.0234-0.1211,0.0713-0.1689c0.0459-0.0459,0.1016-0.0684,0.1689-0.0684
			c0.2119,0,0.5313,0,0.957,0c0.0645,0,0.1211,0.0225,0.168,0.0684c0.0459,0.0479,0.0684,0.1035,0.0684,0.1689
			C26.2565,50.7244,26.2565,51.4421,26.2565,52.3982z M25.7799,50.9646c0-0.0195,0-0.0479,0-0.084c0-0.0889,0-0.2207,0-0.3965
			c-0.1055,0-0.2656,0-0.4805,0c0,0.1064,0,0.2666,0,0.4805C25.4079,50.9646,25.568,50.9646,25.7799,50.9646z"/>
		<path class="st1" d="M28.1706,50.2449c0,0.4258,0,1.0635,0,1.9131c0,0.0674-0.0234,0.123-0.0684,0.1689
			c-0.0479,0.0479-0.1035,0.0713-0.1689,0.0713c-0.1602,0-0.3994,0-0.7197,0c-0.0527,0-0.1309,0-0.2363,0
			c-0.0547,0-0.1348,0-0.2402,0c0-0.2656,0-0.5977,0-0.9961c0-0.3975,0-0.8623,0-1.3945c0.0918,0,0.2324,0,0.418,0
			c0.0127,0,0.0322,0,0.0586,0c0.1602,0,0.4004,0,0.7197,0c0.0654,0,0.1211,0.0225,0.1689,0.0684
			C28.1471,50.1238,28.1706,50.1794,28.1706,50.2449z M27.2135,51.9216c0.1074,0,0.2676,0,0.4805,0c0-0.0215,0-0.0527,0-0.0947
			c0-0.2979,0-0.7451,0-1.3428c-0.1064,0-0.2666,0-0.4805,0c0,0.1602,0,0.3994,0,0.7168
			C27.2135,51.3611,27.2135,51.6013,27.2135,51.9216z"/>
		<path class="st1" d="M30.0837,50.2449c0,0.4258,0,1.0635,0,1.9131c0,0.0674-0.0225,0.123-0.0674,0.1689
			c-0.0488,0.0479-0.1045,0.0713-0.1699,0.0713c-0.2129,0-0.5332,0-0.9561,0c-0.0674,0-0.124-0.0234-0.1689-0.0713
			c-0.0469-0.0459-0.0713-0.1016-0.0713-0.1689c0-0.1602,0-0.3994,0-0.7197c0-0.1318,0-0.2959,0-0.4932c0-0.2012,0-0.4346,0-0.7002
			c0-0.0654,0.0244-0.1211,0.0713-0.1689c0.0449-0.0459,0.1016-0.0684,0.1689-0.0684c0.2119,0,0.5303,0,0.9561,0
			c0.0654,0,0.1211,0.0225,0.1699,0.0684C30.0612,50.1238,30.0837,50.1794,30.0837,50.2449z M29.1266,51.9216
			c0.1084,0,0.2686,0,0.4805,0c0-0.0215,0-0.0527,0-0.0947c0-0.2979,0-0.7451,0-1.3428c-0.1064,0-0.2666,0-0.4805,0
			c0,0.1602,0,0.3994,0,0.7168C29.1266,51.3611,29.1266,51.6013,29.1266,51.9216z"/>
		<path class="st1" d="M31.9967,50.2449c0,0.2139,0,0.5322,0,0.9561c0,0.0674-0.0215,0.125-0.0674,0.1719
			c-0.0479,0.0459-0.1045,0.0684-0.1689,0.0684c-0.1602,0-0.4004,0-0.7207,0c0,0.2119,0,0.5313,0,0.957c-0.1055,0-0.2637,0-0.4766,0
			c0-0.1055,0-0.2393,0-0.3994c0-0.1572,0-0.3438,0-0.5576c0-0.1055,0-0.2646,0-0.4766c0-0.1084,0-0.2686,0-0.4805
			c0-0.1055,0-0.2646,0-0.4766c0.1064,0,0.2656,0,0.4766,0c0.1602,0,0.4004,0,0.7207,0c0.0645,0,0.1211,0.0225,0.1689,0.0684
			C31.9753,50.1238,31.9967,50.1794,31.9967,50.2449z M31.0397,50.9646c0.1094,0,0.2695,0,0.4805,0c0-0.0195,0-0.0479,0-0.084
			c0-0.0889,0-0.2207,0-0.3965c-0.1055,0-0.2656,0-0.4805,0C31.0397,50.5906,31.0397,50.7507,31.0397,50.9646z"/>
		<path class="st1" d="M33.9108,50.4841c-0.2383,0-0.3965,0-0.4766,0c0,0.958,0,1.5967,0,1.9141c-0.2402,0-0.4004,0-0.4805,0
			c0-0.9561,0-1.5938,0-1.9141c-0.2383,0-0.3965,0-0.4766,0c0-0.1182,0-0.2178,0-0.2979s0-0.1396,0-0.1787
			c0.7178,0,1.1953,0,1.4336,0C33.9108,50.2195,33.9108,50.3787,33.9108,50.4841z"/>
		<path class="st1" d="M34.3913,50.0076c0.0801,0,0.2383,0,0.4766,0c0,0.2988,0,0.8965,0,1.7939c0,0.0996,0,0.2979,0,0.5967
			c-0.0781,0-0.2363,0-0.4766,0c0-0.1992,0-0.4971,0-0.8955C34.3913,51.1052,34.3913,50.6072,34.3913,50.0076z"/>
		<path class="st1" d="M36.7819,50.2449c0,0.4258,0,1.0635,0,1.9131c0,0.0674-0.0234,0.123-0.0684,0.1689
			c-0.0479,0.0479-0.1035,0.0713-0.1689,0.0713c-0.2139,0-0.5332,0-0.9561,0c-0.0684,0-0.124-0.0234-0.1699-0.0713
			c-0.0469-0.0459-0.0703-0.1016-0.0703-0.1689c0-0.1602,0-0.3994,0-0.7197c0-0.1318,0-0.2959,0-0.4932c0-0.2012,0-0.4346,0-0.7002
			c0-0.0654,0.0234-0.1211,0.0703-0.1689c0.0459-0.0459,0.1016-0.0684,0.1699-0.0684c0.2109,0,0.5303,0,0.9561,0
			c0.0654,0,0.1211,0.0225,0.1689,0.0684C36.7585,50.1238,36.7819,50.1794,36.7819,50.2449z M35.8249,51.9216
			c0.1074,0,0.2676,0,0.4805,0c0-0.0215,0-0.0527,0-0.0947c0-0.2979,0-0.7451,0-1.3428c-0.1064,0-0.2666,0-0.4805,0
			c0,0.1602,0,0.3994,0,0.7168C35.8249,51.3611,35.8249,51.6013,35.8249,51.9216z"/>
		<path class="st1" d="M38.695,50.2449c0,0.4795,0,1.1973,0,2.1533c-0.1064,0-0.2646,0-0.4766,0c0-0.4258,0-1.0635,0-1.9141
			c-0.1064,0-0.2666,0-0.4805,0c0,0.4268,0,1.0645,0,1.9141c-0.1064,0-0.2646,0-0.4766,0c0-0.2656,0-0.5977,0-0.9961
			c0-0.3975,0-0.8623,0-1.3945c0.1064,0,0.2646,0,0.4766,0c0.1602,0,0.4004,0,0.7197,0c0.0654,0,0.1211,0.0225,0.1699,0.0684
			C38.6725,50.1238,38.695,50.1794,38.695,50.2449z"/>
	</g>
</g>
<g class="st2">
	<g>
		<path class="st1" d="M28.0563,54.2449c0,0.4258,0,1.0635,0,1.9131c0,0.0674-0.0225,0.123-0.0674,0.1689
			c-0.0479,0.0479-0.1045,0.0713-0.1689,0.0713c-0.1602,0-0.4004,0-0.7207,0c-0.0518,0-0.1309,0-0.2363,0
			c-0.0537,0-0.1338,0-0.2402,0c0-0.2656,0-0.5977,0-0.9961c0-0.3975,0-0.8623,0-1.3945c0.0928,0,0.2324,0,0.4189,0
			c0.0127,0,0.0322,0,0.0576,0c0.1602,0,0.4004,0,0.7207,0c0.0645,0,0.1211,0.0225,0.1689,0.0684
			C28.0339,54.1238,28.0563,54.1794,28.0563,54.2449z M27.0993,55.9216c0.1084,0,0.2686,0,0.4805,0c0-0.0215,0-0.0527,0-0.0947
			c0-0.2979,0-0.7451,0-1.3428c-0.1055,0-0.2656,0-0.4805,0c0,0.1602,0,0.3994,0,0.7168
			C27.0993,55.3611,27.0993,55.6013,27.0993,55.9216z"/>
		<path class="st1" d="M29.7331,55.2009c0.0654,0,0.1211,0.0244,0.1689,0.0723c0.0459,0.0449,0.0684,0.1016,0.0684,0.168
			c0,0.2119,0,0.5313,0,0.957c-0.1064,0-0.2646,0-0.4766,0c0-0.2119,0-0.5313,0-0.957c-0.1064,0-0.2666,0-0.4805,0
			c0,0.2119,0,0.5313,0,0.957c-0.1064,0-0.2646,0-0.4766,0c0-0.2119,0-0.5313,0-0.957c0-0.1055,0-0.2646,0-0.4766
			c0-0.1055,0-0.2393,0-0.3994c0-0.1592,0-0.3457,0-0.5576c0.1055,0,0.2646,0,0.4766,0c0.1602,0,0.4004,0,0.7197,0
			c0.0654,0,0.1211,0.0225,0.1689,0.0684c0.0459,0.0479,0.0684,0.1035,0.0684,0.1689c0,0.1602,0,0.3994,0,0.7197
			c0,0.0645-0.0225,0.1211-0.0684,0.1689C29.8542,55.1785,29.7985,55.2009,29.7331,55.2009z M29.4938,54.9646
			c0-0.0195,0-0.0479,0-0.084c0-0.0889,0-0.2207,0-0.3965c-0.1064,0-0.2666,0-0.4805,0c0,0.1064,0,0.2666,0,0.4805
			C29.1217,54.9646,29.2819,54.9646,29.4938,54.9646z"/>
		<path class="st1" d="M30.4499,54.0076c0.0801,0,0.2393,0,0.4766,0c0,0.2988,0,0.8965,0,1.7939c0,0.0996,0,0.2979,0,0.5967
			c-0.0771,0-0.2363,0-0.4766,0c0-0.1992,0-0.4971,0-0.8955C30.4499,55.1052,30.4499,54.6072,30.4499,54.0076z"/>
		<path class="st1" d="M31.3424,54.0076c0.0889,0,0.2666,0,0.5352,0c0.0605,0.2881,0.1807,0.8652,0.3604,1.7324
			c0.0596-0.2881,0.1797-0.8652,0.3594-1.7324c0.0889,0,0.2676,0,0.5352,0c-0.1084,0.3984-0.3262,1.1953-0.6553,2.3906
			c-0.0801,0-0.2393,0-0.4795,0C31.8893,56.0007,31.6706,55.2038,31.3424,54.0076z"/>
		<path class="st1" d="M34.0212,54.4841c0,0.2119,0,0.3721,0,0.4805c0.3203,0,0.5596,0,0.7197,0c0,0.2119,0,0.3711,0,0.4766
			c-0.3193,0-0.5596,0-0.7197,0c0,0.2119,0,0.3721,0,0.4805c0.4258,0,0.7451,0,0.957,0c0,0.2119,0,0.3711,0,0.4766
			c-0.4238,0-0.7432,0-0.957,0c-0.2119,0-0.3711,0-0.4766,0c0-0.1055,0-0.1992,0-0.2793s0-0.1455,0-0.1973
			c0-0.2402,0-0.4004,0-0.4805c0-0.2402,0-0.3984,0-0.4766c0-0.2402,0-0.4004,0-0.4805c0-0.2373,0-0.3965,0-0.4766
			c0.2402,0,0.3984,0,0.4766,0c0.4805,0,0.7988,0,0.957,0c0,0.2383,0,0.3975,0,0.4766
			C34.5544,54.4841,34.235,54.4841,34.0212,54.4841z"/>
		<path class="st1" d="M36.6549,55.2009c0.0645,0,0.1211,0.0244,0.1689,0.0723c0.0449,0.0449,0.0674,0.1016,0.0674,0.168
			c0,0.2119,0,0.5313,0,0.957c-0.1055,0-0.2646,0-0.4766,0c0-0.2119,0-0.5313,0-0.957c-0.1055,0-0.2656,0-0.4805,0
			c0,0.2119,0,0.5313,0,0.957c-0.1055,0-0.2646,0-0.4766,0c0-0.2119,0-0.5313,0-0.957c0-0.1055,0-0.2646,0-0.4766
			c0-0.1055,0-0.2393,0-0.3994c0-0.1592,0-0.3457,0-0.5576c0.1064,0,0.2646,0,0.4766,0c0.1602,0,0.4004,0,0.7207,0
			c0.0645,0,0.1211,0.0225,0.1689,0.0684c0.0449,0.0479,0.0674,0.1035,0.0674,0.1689c0,0.1602,0,0.3994,0,0.7197
			c0,0.0645-0.0225,0.1211-0.0674,0.1689C36.776,55.1785,36.7194,55.2009,36.6549,55.2009z M36.4147,54.9646
			c0-0.0195,0-0.0479,0-0.084c0-0.0889,0-0.2207,0-0.3965c-0.1055,0-0.2656,0-0.4805,0c0,0.1064,0,0.2666,0,0.4805
			C36.0426,54.9646,36.2028,54.9646,36.4147,54.9646z"/>
	</g>
</g>
<g class="st2">
	<g>
		<path class="st1" d="M14.7096,30.7576c-0.1377,0.0791-0.3438,0.1973-0.6182,0.3555c-0.1582-0.2734-0.3965-0.6875-0.7139-1.2383
			c-0.1377,0.0781-0.3447,0.1982-0.6221,0.3574c0.1582,0.2754,0.3965,0.6875,0.7139,1.2402
			c-0.1367,0.0781-0.3438,0.1973-0.6172,0.3555c-0.1348-0.2324-0.3359-0.583-0.6055-1.0508c-0.1113-0.1924-0.25-0.4336-0.416-0.7227
			c-0.1689-0.292-0.3633-0.6309-0.5859-1.0176c-0.0488-0.084-0.0605-0.1758-0.0352-0.2715c0.0254-0.0938,0.082-0.1641,0.168-0.2148
			c0.2754-0.1582,0.6885-0.3955,1.2402-0.7139c0.084-0.0479,0.1738-0.0615,0.2695-0.0381c0.0947,0.0273,0.166,0.084,0.2148,0.168
			C13.4596,28.5886,13.9958,29.5193,14.7096,30.7576z M13.0212,29.2556c-0.0137-0.0254-0.0352-0.0605-0.0625-0.1094
			c-0.0664-0.1152-0.165-0.2852-0.2959-0.5117c-0.1367,0.0781-0.3447,0.1982-0.6221,0.3574
			c0.0791,0.1367,0.1982,0.3438,0.3584,0.6211C12.5397,29.533,12.7467,29.4138,13.0212,29.2556z"/>
		<path class="st1" d="M15.5827,26.5388c0.3174,0.5508,0.7939,1.3789,1.4277,2.4785c0.0498,0.0879,0.0625,0.1777,0.0381,0.2715
			c-0.0264,0.0967-0.0811,0.1689-0.165,0.2168c-0.208,0.1191-0.5195,0.2988-0.9336,0.5381
			c-0.0674,0.0381-0.1699,0.0977-0.3066,0.1768c-0.0703,0.04-0.1738,0.0996-0.3115,0.1787c-0.1982-0.3438-0.4463-0.7744-0.7432-1.29
			s-0.6445-1.1182-1.041-1.8076c0.1201-0.0693,0.3008-0.1729,0.542-0.3115c0.0166-0.0098,0.042-0.0254,0.0752-0.0439
			c0.208-0.1201,0.5186-0.2988,0.9336-0.5381c0.084-0.0479,0.1738-0.0605,0.2695-0.0371
			C15.4626,26.3982,15.5339,26.4548,15.5827,26.5388z M15.5934,29.4265c0.1406-0.0811,0.3477-0.2002,0.6221-0.3584
			c-0.0156-0.0283-0.0391-0.0684-0.0703-0.1221c-0.2227-0.3867-0.5566-0.9668-1.002-1.7402
			c-0.1367,0.0791-0.3447,0.1982-0.6221,0.3584c0.1191,0.207,0.2979,0.5166,0.5352,0.9287
			C15.1755,28.6999,15.3551,29.0115,15.5934,29.4265z"/>
		<path class="st1" d="M17.9958,25.1482c0.3174,0.5518,0.7939,1.3789,1.4277,2.4795c0.0498,0.0879,0.0625,0.1768,0.0381,0.2705
			c-0.0264,0.0977-0.082,0.1699-0.166,0.2178c-0.2773,0.1602-0.6904,0.3975-1.2402,0.7148
			c-0.0859,0.0498-0.1768,0.0615-0.2715,0.0342c-0.0957-0.0244-0.168-0.0791-0.2188-0.167
			c-0.1191-0.207-0.2988-0.5176-0.5371-0.9316c-0.0977-0.1709-0.2207-0.3848-0.3672-0.6396
			c-0.1504-0.2607-0.3252-0.5635-0.5234-0.9082c-0.0488-0.084-0.0596-0.1748-0.0342-0.2715
			c0.0254-0.0928,0.0811-0.1641,0.168-0.2139c0.2744-0.1582,0.6885-0.3965,1.2402-0.7148c0.084-0.0479,0.1738-0.0605,0.2695-0.0381
			C17.8757,25.0076,17.9469,25.0642,17.9958,25.1482z M18.0065,28.0369c0.1406-0.0811,0.3477-0.2002,0.623-0.3584
			c-0.0166-0.0283-0.04-0.0684-0.0703-0.1221c-0.2227-0.3867-0.5576-0.9668-1.0029-1.7402
			c-0.1377,0.0781-0.3447,0.1982-0.6221,0.3574c0.1191,0.207,0.2979,0.5176,0.5352,0.9297
			C17.5885,27.3103,17.7682,27.6208,18.0065,28.0369z"/>
		<path class="st1" d="M20.4753,23.7205c0.1602,0.2773,0.3984,0.6914,0.7148,1.2402c0.0498,0.0859,0.0625,0.1777,0.0391,0.2734
			c-0.0273,0.0947-0.084,0.166-0.168,0.2148c-0.207,0.1191-0.5176,0.2988-0.9326,0.5371c0.1582,0.2744,0.3965,0.6875,0.7139,1.2393
			c-0.1367,0.0791-0.3428,0.1982-0.6172,0.3564c-0.0791-0.1367-0.1787-0.3105-0.2979-0.5176
			c-0.1182-0.2051-0.2568-0.4453-0.417-0.7227c-0.0791-0.1367-0.1973-0.3438-0.3555-0.6191
			c-0.0811-0.1387-0.2002-0.3457-0.3584-0.6211c-0.0791-0.1367-0.1973-0.3418-0.3564-0.6172
			c0.1377-0.0801,0.3438-0.1982,0.6182-0.3564c0.207-0.1191,0.5186-0.2988,0.9326-0.5381c0.084-0.0479,0.1748-0.0605,0.2695-0.0371
			C20.3551,23.5798,20.4264,23.6365,20.4753,23.7205z M19.7721,25.3669c0.1406-0.0801,0.3477-0.2002,0.623-0.3584
			c-0.0146-0.0244-0.0352-0.0605-0.0635-0.1084c-0.0664-0.1152-0.1641-0.2861-0.2949-0.5127
			c-0.1377,0.0791-0.3447,0.1982-0.6221,0.3584C19.4928,24.8826,19.612,25.0896,19.7721,25.3669z"/>
		<path class="st1" d="M23.1344,22.6033c-0.2744,0.1582-0.4805,0.2764-0.6182,0.3555c0.7148,1.2412,1.1914,2.0674,1.4297,2.4795
			c-0.3115,0.1797-0.5195,0.2988-0.623,0.3584c-0.7129-1.2383-1.1895-2.0654-1.4277-2.4795
			c-0.3086,0.1777-0.5146,0.2959-0.6191,0.3564c-0.0879-0.1543-0.1621-0.2832-0.2227-0.3887
			c-0.0586-0.1016-0.1035-0.1797-0.1328-0.2305c0.9307-0.5352,1.5498-0.8916,1.8584-1.0693
			C22.9372,22.2605,23.0553,22.4656,23.1344,22.6033z"/>
		<path class="st1" d="M23.401,21.6267c0.1035-0.0596,0.3096-0.1777,0.6172-0.3555c0.2236,0.3867,0.6699,1.1621,1.3398,2.3242
			c0.0742,0.1289,0.2227,0.3867,0.4453,0.7734c-0.1006,0.0576-0.3066,0.1758-0.6182,0.3555
			c-0.1982-0.3438-0.4463-0.7744-0.7432-1.29S23.7985,22.3162,23.401,21.6267z"/>
		<path class="st1" d="M26.6764,20.1492c0.3184,0.5518,0.7939,1.3789,1.4277,2.4795c0.0508,0.0879,0.0625,0.1768,0.0381,0.2705
			c-0.0264,0.0967-0.0811,0.1689-0.165,0.2178c-0.2773,0.1602-0.6914,0.3975-1.2402,0.7139
			c-0.0869,0.0498-0.1777,0.0615-0.2725,0.0342c-0.0957-0.0234-0.168-0.0781-0.2188-0.166
			c-0.1191-0.207-0.2979-0.5176-0.5371-0.9316c-0.0977-0.1719-0.2207-0.3848-0.3672-0.6406
			c-0.1504-0.2598-0.3252-0.5625-0.5234-0.9082c-0.0488-0.084-0.0596-0.1738-0.0342-0.2715
			c0.0254-0.0918,0.0811-0.1641,0.168-0.2139c0.2744-0.1582,0.6885-0.3955,1.2402-0.7139c0.084-0.0488,0.1738-0.0615,0.2695-0.0381
			C26.5563,20.0085,26.6276,20.0652,26.6764,20.1492z M26.6882,23.0369c0.1396-0.0801,0.3467-0.2002,0.6221-0.3584
			c-0.0166-0.0283-0.04-0.0684-0.0703-0.1221c-0.2227-0.3867-0.5576-0.9668-1.0029-1.7402
			c-0.1367,0.0791-0.3447,0.1992-0.6221,0.3584c0.1201,0.207,0.2979,0.5166,0.5352,0.9287
			C26.2702,22.3103,26.4489,22.6218,26.6882,23.0369z"/>
		<path class="st1" d="M29.1569,18.7205c0.3574,0.6221,0.8926,1.5527,1.6074,2.791c-0.1377,0.0791-0.3438,0.1973-0.6182,0.3555
			c-0.3184-0.5508-0.7939-1.377-1.4287-2.4785c-0.1377,0.0781-0.3447,0.1982-0.6221,0.3574
			c0.3184,0.5527,0.7939,1.3789,1.4287,2.4805c-0.1377,0.0781-0.3438,0.1973-0.6182,0.3555
			c-0.1992-0.3438-0.4473-0.7744-0.7441-1.29c-0.2959-0.5156-0.6436-1.1182-1.041-1.8076c0.1377-0.0791,0.3438-0.1973,0.6182-0.3555
			c0.207-0.1201,0.5186-0.2988,0.9336-0.5381c0.084-0.0479,0.1738-0.0615,0.2695-0.0381
			C29.0358,18.5798,29.1081,18.6365,29.1569,18.7205z"/>
		<path class="st1" d="M34.1169,15.863c0.3184,0.5527,0.7939,1.3789,1.4277,2.4805c0.0508,0.0879,0.0635,0.1768,0.0381,0.2705
			c-0.0254,0.0967-0.0811,0.1689-0.165,0.2178c-0.208,0.1191-0.5186,0.2988-0.9336,0.5371
			c-0.0674,0.0391-0.1689,0.0977-0.3066,0.1768c-0.0703,0.04-0.1738,0.1006-0.3115,0.1787
			c-0.1982-0.3438-0.4463-0.7734-0.7432-1.2891c-0.2959-0.5156-0.6436-1.1191-1.041-1.8086
			c0.1201-0.0684,0.3018-0.1729,0.542-0.3125c0.0176-0.0088,0.042-0.0234,0.0762-0.043c0.207-0.1191,0.5176-0.2988,0.9326-0.5371
			c0.084-0.0488,0.1748-0.0615,0.2695-0.0381C33.9967,15.7234,34.068,15.779,34.1169,15.863z M34.1286,18.7517
			c0.1396-0.0801,0.3467-0.2002,0.6221-0.3584c-0.0166-0.0283-0.04-0.0684-0.0703-0.1221
			c-0.2227-0.3867-0.5576-0.9668-1.0029-1.7402c-0.1367,0.0791-0.3447,0.1992-0.6221,0.3584
			c0.1201,0.207,0.2979,0.5166,0.5352,0.9287C33.7106,18.0251,33.8893,18.3367,34.1286,18.7517z"/>
		<path class="st1" d="M37.0046,15.8523c0.084-0.0479,0.1738-0.0596,0.2715-0.0342c0.0928,0.0254,0.1641,0.082,0.2139,0.1689
			c0.1582,0.2744,0.3965,0.6875,0.7148,1.2393c-0.1377,0.0791-0.3438,0.1973-0.6182,0.3555
			c-0.1582-0.2734-0.3965-0.6875-0.7148-1.2383c-0.1367,0.0781-0.3438,0.1982-0.6221,0.3574
			c0.1582,0.2754,0.3965,0.6875,0.7148,1.2402c-0.1377,0.0781-0.3438,0.1973-0.6182,0.3555
			c-0.1582-0.2744-0.3965-0.6875-0.7148-1.2393c-0.0781-0.1377-0.1973-0.3438-0.3555-0.6191
			c-0.0791-0.1367-0.1787-0.3096-0.2979-0.5166c-0.1201-0.207-0.2578-0.4473-0.417-0.7227
			c0.1377-0.0791,0.3438-0.1982,0.6182-0.3555c0.208-0.1201,0.5186-0.2988,0.9336-0.5381c0.084-0.0479,0.1738-0.0615,0.2695-0.0381
			c0.0947,0.0273,0.166,0.084,0.2148,0.168c0.1191,0.208,0.2979,0.5186,0.5371,0.9326c0.0488,0.085,0.0605,0.1748,0.0371,0.2705
			C37.1442,15.7322,37.0885,15.8044,37.0046,15.8523z M36.5163,15.7244c-0.0137-0.0254-0.0352-0.0605-0.0625-0.1094
			c-0.0664-0.1152-0.165-0.2852-0.2959-0.5117c-0.1377,0.0781-0.3447,0.1982-0.6221,0.3574
			c0.0791,0.1367,0.1982,0.3438,0.3584,0.6211C36.0339,16.0017,36.2409,15.8826,36.5163,15.7244z"/>
		<path class="st1" d="M37.0417,13.7703c0.1035-0.0596,0.3105-0.1787,0.6182-0.3564c0.2236,0.3867,0.6699,1.1621,1.3389,2.3242
			c0.0742,0.1289,0.2227,0.3867,0.4463,0.7734c-0.1006,0.0586-0.3076,0.1777-0.6182,0.3564
			c-0.1992-0.3438-0.4473-0.7744-0.7441-1.29C37.7868,15.0623,37.4401,14.4597,37.0417,13.7703z"/>
		<path class="st1" d="M38.1979,13.1042c0.1152-0.0654,0.3457-0.1992,0.6934-0.3994c0.2939,0.3271,0.8809,0.9863,1.7598,1.9766
			c-0.1367-0.418-0.4111-1.2559-0.8262-2.5137c0.1152-0.0664,0.3457-0.1992,0.6934-0.3994c0.1572,0.5967,0.4688,1.792,0.9355,3.5869
			c-0.1035,0.0596-0.3105,0.1787-0.6221,0.3574C40.2467,15.1316,39.3688,14.2624,38.1979,13.1042z"/>
		<path class="st1" d="M42.026,11.7224c0.1582,0.2754,0.2783,0.4824,0.3584,0.6211c0.415-0.2383,0.7266-0.418,0.9336-0.5371
			c0.1582,0.2754,0.2764,0.4814,0.3564,0.6191c-0.415,0.2393-0.7266,0.418-0.9336,0.5371c0.1582,0.2754,0.2773,0.4824,0.3584,0.623
			c0.5518-0.3184,0.9658-0.5566,1.2402-0.7148c0.1572,0.2744,0.2764,0.4805,0.3555,0.6172
			c-0.5488,0.3164-0.9619,0.5547-1.2402,0.7148c-0.2744,0.1582-0.4805,0.2764-0.6182,0.3555
			c-0.1582-0.2744-0.2764-0.4805-0.3555-0.6172c-0.0811-0.1406-0.1504-0.2627-0.2109-0.3662
			c-0.0596-0.1035-0.1094-0.1895-0.1475-0.2559c-0.1787-0.3115-0.2979-0.5176-0.3564-0.6191
			c-0.1787-0.3105-0.2979-0.5176-0.3574-0.6211c-0.1777-0.3086-0.2969-0.5146-0.3564-0.6182
			c0.3115-0.1797,0.5166-0.2979,0.6182-0.3555c0.6221-0.3594,1.0352-0.5967,1.2402-0.7148
			c0.1777,0.3076,0.2959,0.5146,0.3555,0.6182C42.7174,11.3249,42.3034,11.5632,42.026,11.7224z"/>
		<path class="st1" d="M45.9753,10.6853c0.084-0.0479,0.1738-0.0596,0.2715-0.0332c0.0928,0.0254,0.1641,0.082,0.2148,0.168
			c0.1582,0.2754,0.3965,0.6875,0.7139,1.2402c-0.1377,0.0781-0.3438,0.1973-0.6182,0.3555
			c-0.1582-0.2744-0.3965-0.6875-0.7139-1.2393c-0.1377,0.0791-0.3447,0.1982-0.6221,0.3584
			c0.1582,0.2744,0.3965,0.6875,0.7139,1.2393c-0.1377,0.0791-0.3428,0.1973-0.6182,0.3555
			c-0.1582-0.2744-0.3965-0.6875-0.7139-1.2393c-0.0791-0.1377-0.1982-0.3438-0.3564-0.6191
			c-0.0791-0.1367-0.1787-0.3096-0.2979-0.5166s-0.2578-0.4473-0.416-0.7227c0.1367-0.0791,0.3428-0.1973,0.6182-0.3555
			c0.207-0.1201,0.5176-0.2988,0.9326-0.5381c0.084-0.0479,0.1748-0.0605,0.2695-0.0371c0.0947,0.0273,0.166,0.084,0.2148,0.168
			c0.1191,0.207,0.2979,0.5176,0.5371,0.9316c0.0488,0.0859,0.0605,0.1758,0.0381,0.2715
			C46.1149,10.5662,46.0592,10.6374,45.9753,10.6853z M45.487,10.5574c-0.0137-0.0244-0.0352-0.0605-0.0625-0.1084
			c-0.0664-0.1152-0.165-0.2861-0.2959-0.5127c-0.1377,0.0791-0.3447,0.1982-0.6221,0.3584
			c0.0791,0.1367,0.1982,0.3438,0.3584,0.6211C45.0046,10.8347,45.2126,10.7156,45.487,10.5574z"/>
	</g>
</g>
<g class="st2">
	<g>
		<path class="st1" d="M92.2383,97.8487l0.9463,2.2275l-0.7998,0.458L91.751,98.128L92.2383,97.8487z"/>
	</g>
</g>
<g class="st2">
	<g>
		<path class="st1" d="M95.1387,96.8057c0.6152,1.0762,1.5371,2.6855,2.7637,4.8262c-0.2383,0.1367-0.5938,0.3398-1.0684,0.6123
			c-0.5469-0.9541-1.3652-2.3838-2.457-4.2891c-0.1211,0.0693-0.3008,0.1719-0.5371,0.3076
			c-0.0664-0.1162-0.1504-0.2637-0.2539-0.4434c-0.1016-0.1787-0.2227-0.3867-0.3574-0.625
			c0.2363-0.1357,0.5938-0.3398,1.0684-0.6123c0.1504-0.0859,0.3066-0.1084,0.4727-0.0674
			C94.9316,96.5626,95.0547,96.6602,95.1387,96.8057z"/>
		<path class="st1" d="M99.127,98.7979c0.0664,0.1162,0.168,0.2949,0.3086,0.5371c0.2402-0.1377,0.5996-0.3438,1.0742-0.6152
			c-0.1387-0.2422-0.3438-0.6016-0.6152-1.0762c-0.3594,0.2061-0.8945,0.5117-1.6074,0.9199
			c-0.1484,0.0859-0.3047,0.1074-0.4648,0.0645c-0.168-0.0459-0.2949-0.1436-0.3809-0.2939
			c-0.1348-0.2373-0.3066-0.5361-0.5117-0.8945s-0.4434-0.7754-0.7148-1.25c-0.084-0.1455-0.1035-0.3027-0.0566-0.4697
			c0.043-0.1602,0.1387-0.2832,0.2891-0.3691c0.4746-0.2725,1.1895-0.6816,2.1445-1.2285c0.1465-0.083,0.3008-0.1035,0.4668-0.0625
			c0.1621,0.0479,0.2852,0.1445,0.3691,0.291c0.5449,0.9541,1.3652,2.3838,2.4551,4.2871c0.0859,0.1514,0.1074,0.3057,0.0625,0.4658
			c-0.0449,0.168-0.1406,0.2939-0.2852,0.377c-0.4805,0.2744-1.1953,0.6836-2.1445,1.2275
			c-0.1504,0.0859-0.3066,0.1045-0.4707,0.0566c-0.1641-0.041-0.2891-0.1357-0.375-0.2871
			c-0.1367-0.2373-0.3398-0.5928-0.6113-1.0684C98.2949,99.2735,98.6523,99.0694,99.127,98.7979z M99.2832,96.5753
			c-0.0254-0.0439-0.0625-0.1064-0.1094-0.1885c-0.1133-0.1992-0.2832-0.4941-0.5078-0.8877
			c-0.2383,0.1367-0.5957,0.3418-1.0762,0.6162c0.1367,0.2373,0.3418,0.5967,0.6172,1.0762
			C98.4492,97.0528,98.8066,96.8477,99.2832,96.5753z"/>
	</g>
</g>
<g>
	<g>
		<g>
			<path class="st1" d="M63.2666,56.1c0.1-0.1,0-0.3-0.2-0.2c-2.7,1.3-5.2,6.3-5.2,6.3l0,0c0.2,0.2,0.6,0.4,0.8,0.7l0,0
				C60.1667,58.9,62.1667,57,63.2666,56.1z"/>
		</g>
		<g>
			<path class="st1" d="M59.5667,94.3l-1.5-1.5l0.2-1c-0.1,0-0.1,0-0.2,0c-0.2,0-0.3,0-0.4-0.1l-0.2,1.1c0,0.1,0,0.2,0.1,0.3
				l1.3,1.3l-0.7,0.2l-2.2-1.2l-2.1-4.7c-0.3-0.2-0.5-0.5-0.5-0.9h-0.1c-0.1,0-0.2,0.1-0.2,0.1c-0.1,0.1-0.1,0.2,0,0.3l2.5,5.5
				c0,0.1,0.1,0.1,0.1,0.1l2.3,1.4h0.1h0.1l1.3-0.4c0.1,0,0.2-0.1,0.2-0.2C59.6667,94.4,59.6667,94.3,59.5667,94.3z"/>
		</g>
		<g>
			<path class="st1" d="M49.5667,63.2l0.5,0.7c0.1,0.1,0.2,0.1,0.3,0.1s0.2-0.1,0.2-0.2l0.3-0.7l0.7,3.8c0,0.1,0.1,0.1,0.1,0.2
				l1.8,1.1c-0.1-0.2-0.1-0.5,0-0.7l-1.4-0.9l-0.8-4.5c0-0.1-0.1-0.2-0.2-0.2c-0.1,0-0.2,0-0.3,0.2l-0.5,1l-0.8-1.1
				c-0.1-0.1-0.2-0.1-0.3-0.1s-0.2,0.2-0.2,0.3l0.4,6.6c0,0.1,0,0.1,0.1,0.2l5.7,7l0,0c0-0.2,0-0.4,0.2-0.6l-5.4-6.6L49.5667,63.2z"
				/>
		</g>
		<g>
			<path class="st1" d="M49.3667,65c-0.1,0-0.2-0.1-0.3-0.2l-0.1-2.5c0-0.1,0.1-0.2,0.2-0.3c0.1,0,0.2,0,0.3,0.1l0.8,1.1l0.5-1
				c0-0.1,0.2-0.2,0.3-0.1c0.1,0,0.2,0.1,0.2,0.2l0.4,2.4c0,0.1,0,0.2-0.1,0.2c0,0.1-0.1,0.1-0.2,0.1H49.3667L49.3667,65z
				 M49.5667,63.1l0.1,1.4h1.5l-0.3-1.4l-0.4,0.7c0,0.1-0.1,0.1-0.2,0.1c-0.1,0-0.2,0-0.2-0.1L49.5667,63.1z"/>
		</g>
		<g>
			<path class="st1" d="M80.5667,74.2c0.1,1.1,0,2.5-0.6,3.8l-1.4-1.2c-0.1-0.1-0.2-0.1-0.3-0.1s-0.2,0.1-0.2,0.2l-1.1,4.2l-3.3,1.5
				l0,0l0,0c-0.1,0-0.2,0.1-0.3,0.2l-1.8,3.5l0,0c-0.7,1.9-2,3.4-3.7,4.5c-1.7,1-3.7,1.5-5.7,1.2l-3.7-0.5c-2.2-0.3-4-1.6-4.9-3.6
				c-0.8-1.7-0.8-3.6-0.1-5.3l1.3-3c0,0,0,0,0-0.1l0.7-4.6h-0.1c-0.2,0-0.3,0-0.4-0.1l-0.7,4.6l-1.3,3c-0.8,1.8-0.8,3.9,0.1,5.7
				c1,2.1,3,3.6,5.4,3.9l3.7,0.5c0.4,0,0.8,0.1,1.1,0.1c1.7,0,3.4-0.5,4.9-1.4c1.8-1.1,3.2-2.8,3.9-4.8l1.7-3.3l0,0l3.5-1.5
				c0.1,0,0.1-0.1,0.2-0.2l1-3.9l1.3,1.1c0.1,0.1,0.2,0.1,0.2,0.1c0.1,0,0.2-0.1,0.2-0.1c0.9-1.7,1-3.3,0.9-4.6
				C80.9667,74,80.7666,74.1,80.5667,74.2z"/>
		</g>
		<g>
			<path class="st1" d="M58.1667,95.1h-0.1l-0.9-0.6c-0.1-0.1-0.1-0.1-0.1-0.2s0.1-0.2,0.2-0.2l1.5-0.5c0.1,0,0.2,0,0.3,0.1l0.7,0.7
				c0.1,0.1,0.1,0.2,0.1,0.2s-0.1,0.2-0.2,0.2L58.1667,95.1L58.1667,95.1z M57.7666,94.4l0.4,0.2l0.8-0.3l-0.3-0.3L57.7666,94.4z"/>
		</g>
		<g>
			<path class="st1" d="M71.9667,94.9l-1.7-1.6l1.5-6.2c0-0.2-0.1-0.3-0.2-0.3c-0.2,0-0.3,0.1-0.3,0.2l-1.5,6.3c0,0.1,0,0.2,0.1,0.3
				l1.7,1.6l-0.1,1.2l-3.9-2.4l-0.9-2.2c-0.1,0.1-0.3,0.2-0.5,0.3l0.9,2.2c0,0.1,0.1,0.1,0.1,0.1l4.4,2.7h0.1h0.1
				c0.1,0,0.1-0.1,0.2-0.2l0.1-1.8C71.9667,95,71.9667,95,71.9667,94.9z"/>
		</g>
		<g>
			<path class="st1" d="M71.5667,97.1h-0.1l-1-0.6c-0.1-0.1-0.1-0.2-0.1-0.3l0.5-1.7c0-0.1,0.1-0.1,0.2-0.2c0.1,0,0.2,0,0.2,0.1
				l0.6,0.5c0.1,0.1,0.1,0.1,0.1,0.2l-0.1,1.8c0,0.1-0.1,0.2-0.1,0.2C71.6667,97.1,71.5667,97.1,71.5667,97.1z M70.8667,96.1
				l0.5,0.3l0.1-1.2l-0.2-0.2L70.8667,96.1z"/>
		</g>
		<g>
			<path class="st1" d="M56.0667,80.9C55.9667,80.9,55.9667,80.9,56.0667,80.9c-0.1,0-0.2-0.1-0.2-0.2l-0.5-1.4c0-0.1,0-0.2,0.1-0.3
				c0.1,0,0.2,0,0.3,0.1l0.4,1.1l0.4-0.3c0.1-0.1,0.2-0.1,0.3,0s0.1,0.2,0,0.3l-0.6,0.5C56.1667,80.9,56.0667,80.9,56.0667,80.9z"/>
		</g>
		<g>
			<path class="st1" d="M59.6667,82.1L59.6667,82.1c-0.2-0.1-0.2-0.1-0.2-0.2l-0.2-1.2c0-0.1,0.1-0.2,0.2-0.3c0.1,0,0.2,0.1,0.3,0.2
				l0.1,0.8l2.5-1.6c0.1-0.1,0.2,0,0.3,0.1s0,0.2-0.1,0.3l-2.8,1.7C59.7666,82.1,59.7666,82.1,59.6667,82.1z"/>
		</g>
		<g>
			<path class="st1" d="M57.0667,82.2L57.0667,82.2c-0.2,0-0.2-0.1-0.2-0.2l-0.5-2.5c0-0.1,0.1-0.2,0.2-0.3c0.1,0,0.2,0.1,0.3,0.2
				l0.4,2.2l2.8-1.8c0.1-0.1,0.2,0,0.3,0.1s0,0.2-0.1,0.3l-3.1,1.9C57.1667,82.2,57.1667,82.2,57.0667,82.2z"/>
		</g>
		<g>
			<path class="st1" d="M72.7666,31.1l-0.4-0.2c-0.1-0.1-0.2-0.2-0.1-0.3c0.1-0.1,0.2-0.2,0.3-0.1l0.4,0.2l0.2-0.4
				c0.1-0.1,0.2-0.2,0.3-0.1s0.2,0.2,0.1,0.3l-0.2,0.4l0.4,0.2c0.1,0.1,0.2,0.2,0.1,0.3c0,0.1-0.1,0.1-0.1,0.1c-0.1,0-0.1,0-0.2,0
				l-0.4-0.2l-0.2,0.4c0,0.1-0.1,0.1-0.1,0.1c-0.1,0-0.1,0-0.2,0c-0.1-0.1-0.2-0.2-0.1-0.3L72.7666,31.1z"/>
		</g>
		<g>
			<path class="st1" d="M76.0667,74.3c0.1-0.1,0.1-0.3,0.2-0.4h-0.1l-1.1,1.4l-1.7-1.2l-1.4,1.5l-1.3-0.9l-1.3,1.1l-0.8-0.3
				l-1.1-0.5l-3.1,2.1l-2.4-1.6l-4.2,0.4l0.4-1.3h-2.3h-0.4h-0.4h-0.8l1.4-2l-2.1-0.2l1.5-3.3l-1.1-0.9l0.3-3.1l-0.9-1.8
				c0.1-1.2,0.9-1.8,1-1.8l0.4-0.3l-1.4-0.8c0.3-1.9,0.9-4.3,1.5-6.2l0.1-0.1V54c0.4-1.2,0.7-2.2,0.9-2.6l1.3,0.4l0,0l0.2-1.9
				c0.5,0,0.9,0.1,1.3,0.1c0.8,0.2,1.3,0.5,1.6,0.7l0.5,0.4l0,0l0.2-2.1c0.4,0,0.8,0,1.2,0.1c1.8,0.4,3.2,1.7,3.2,1.7l0.4,0.4l0,0
				l0.3-2c0.2,0.1,0.4,0.1,0.6,0.2c0.1,0,0.2,0.1,0.3,0.1l0.2-0.3c-0.1,0-0.2-0.1-0.3-0.1l0,0l0,0c0.1,0,0.2,0.1,0.3,0.1l0.2-0.3
				c-0.4-0.2-0.9-0.4-1.4-0.5l-0.3-0.1l-0.2,1.5c-0.8-0.6-2.5-1.7-4.6-1.6h-0.3l-0.2,1.6c-0.6-0.3-1.6-0.7-3.2-0.6h-0.3l-0.2,1.7
				l-1.1-0.3l-0.1,0.3c0,0.1-0.5,1.3-1,3c-0.4,0.2-1,0.4-1.8,0.1l0,0l-0.3-0.1l-0.1,0.3c0,0-0.4,1.8,1.3,2.4c0.1,0,0.1,0,0.2,0.1
				c-0.3,1.3-0.6,2.6-0.8,3.8v0.2l1,0.6c-0.3,0.4-0.8,1-0.9,2v0.1l0.9,1.8l-0.3,3.3l1,0.8l-1.7,3.7l2,0.1l-1.4,2.1h1.3h0.3h0.1h0.4
				h2.1l-0.4,1.4l4.3-0.4h0.6l2.6,1.7l3.1-2.1l1.9,0.8l1.3-1l1.4,1l1.4-1.5l1.1,0.8C75.1667,75.3,75.7666,74.9,76.0667,74.3z
				 M52.3667,54.4c0.6,0.2,1.1,0.1,1.5,0c-0.2,0.5-0.3,1-0.5,1.6C52.4667,55.6,52.3667,54.9,52.3667,54.4z"/>
		</g>
		<g>
			<path class="st1" d="M86.8667,68.5c-3.4-0.9-3.7-2.6-3.7-3l2.7-3.5l-0.1-0.2c-1-1.9-3.3-3-4.3-3.4l1.1-0.9l-0.2-0.2
				c-1.6-2.5-4.4-3.5-5.5-3.8l0.8-0.8l-0.3-0.2c-1.9-1.4-3.9-1.7-5.4-1.7v0.3l0,0v0.3c1.3-0.1,3.1,0.2,4.8,1.3l-1.1,1.1l0.6,0.1
				c0,0,3.5,0.7,5.5,3.4l-1.5,1.2l0.5,0.2c0,0,3.1,1,4.4,3.1l-0.2,0.2l-2.4,3.1v0.1c0,0,0,0.6,0.3,1.2c0.4,0.7,1.1,1.6,2.8,2.2
				c0.2,0.1,0.5,0.2,0.7,0.3c-0.1,0.2-0.3,0.5-0.5,0.7l-0.1,0.1l-0.1,0.1l0,0c-0.1,0.1-0.2,0.1-0.3,0.1h-0.1c-0.3,0.1-0.6,0.1-1,0.1
				c-0.3,0-0.7-0.1-1.1-0.2l-0.3-0.1l0,0c-0.2-0.1-1.8-0.6-2-1c0-0.1,0-0.1,0-0.2c0-0.1,0-0.2,0-0.3s0.1-0.2,0.1-0.3
				c0.1-0.2,0.2-0.3,0.2-0.3s-0.2,0.1-0.4,0.3c-0.1,0.1-0.2,0.1-0.2,0.2c-0.1,0.1-0.1,0.2-0.2,0.3c-0.1,0.2-0.2,0.4-0.1,0.6
				c0.2,0.4,1.1,0.9,1.8,1.1c0.3,0.1,0.5,0.2,0.6,0.2l-0.5,1.2h-1.7l-0.1,1.8l-1.1-0.2l0,0c0,0.2-0.1,0.4-0.2,0.6l1.9,0.3l0.1-1.9
				h1.5l0.4-1.2l0.2-0.5c1.1,0.3,2,0.2,2.7-0.2c0,0,0.1,0,0.1-0.1l0,0c0.1-0.1,0.2-0.1,0.2-0.2l0,0c0.1-0.1,0.1-0.1,0.2-0.2l0,0
				c0,0,0,0,0.1-0.1c0.5-0.5,0.6-1.1,0.6-1.1l0.1-0.3L86.8667,68.5z"/>
		</g>
		<g>
			<path class="st1" d="M58.8667,56L58.8667,56c0.1-0.2,0-0.4-0.2-0.5c-0.1-0.1-0.3,0-0.4,0l0,0c-0.3,0.2-0.5,0.6-0.7,1.1
				c-0.2,0.4-0.3,0.9-0.2,1.2v0.1l0,0c0,0.1,0.1,0.2,0.2,0.3h0.1c0.2,0.1,0.4,0,0.5-0.1c0,0,0,0,0-0.1c0,0,0,0,0-0.1
				c0-0.3,0.1-0.7,0.2-1S58.5667,56.3,58.8667,56L58.8667,56z"/>
		</g>
		<g>
			<path class="st1" d="M72.6667,61.1C72.6667,61.1,72.6667,61,72.6667,61.1c0.1-0.2,0-0.5-0.2-0.6s-0.3,0-0.5,0l0,0
				c-0.3,0.3-0.6,0.7-0.8,1.2s-0.3,1.1-0.3,1.5l0,0c0,0.1,0.1,0.3,0.3,0.3l0,0c0.2,0.1,0.4,0,0.5-0.2c0,0,0,0,0-0.1l0,0l0,0
				c0-0.3,0.1-0.8,0.3-1.2C72.1667,61.8,72.3667,61.4,72.6667,61.1C72.5667,61.1,72.6667,61.1,72.6667,61.1z"/>
		</g>
		<g>
			<path class="st1" d="M71.6667,53l0.1-0.8l0.1-0.8v-0.3l0,0v-0.3l1.2-10.1c0-0.4-0.2-0.8-0.6-0.9c-0.4-0.1-0.8,0-1,0.4l-4.6,8.5
				l-0.2,0.3l-0.2,0.3l-1,1.8l0,0l0,0c0,0.1-0.4,1.3,2.5,2.4l0,0c1.2,0.5,2.1,0.5,2.8,0.2C71.4667,53.5,71.6667,53,71.6667,53
				L71.6667,53z M68.3667,53c-2.2-0.8-2.2-1.6-2.2-1.7l0.7-1.3c0.3,0.9,1.2,2.4,3.3,3.2c0.1,0,0.1,0,0.2,0.1c0.1,0,0.1,0,0.2,0.1
				c-0.1,0-0.1,0-0.2,0C69.8667,53.4,69.2666,53.4,68.3667,53L68.3667,53z M71.9667,40.5c0.1-0.2,0.2-0.2,0.3-0.1l0,0
				c0.1,0,0.2,0.1,0.2,0.3l-0.1,0.5c-0.1-0.1-0.2-0.2-0.2-0.3C72.1667,40.8,72.0667,40.7,71.9667,40.5L71.9667,40.5z M72.1667,41.6
				c0.1,0.1,0.2,0.2,0.3,0.3l-0.3,2.4c-0.1-0.1-0.3-0.2-0.4-0.3c-0.4-0.3-0.7-0.7-1-1.2l0.9-1.7
				C71.7666,41.3,71.9667,41.4,72.1667,41.6z M71.6667,44.6c0.1,0.1,0.3,0.2,0.4,0.3l-0.3,2.4c-0.2-0.1-0.3-0.2-0.5-0.3
				c-0.9-0.6-1.4-1.3-1.7-2l0.9-1.7C70.7666,43.9,71.1667,44.3,71.6667,44.6z M71.1667,47.6c0.2,0.1,0.3,0.2,0.5,0.3l-0.3,2.3
				c-0.2-0.1-0.4-0.2-0.6-0.3c-1.6-0.8-2.2-2-2.5-2.7l0.9-1.6C69.5667,46.3,70.2666,47,71.1667,47.6z M67.4667,49l0.6-1.1
				c0.4,0.8,1.2,1.9,2.7,2.6c0.1,0.1,0.3,0.1,0.4,0.2c0.1,0,0.2,0.1,0.2,0.1v0.1v0.3v0.3l-0.2,1.4c0,0,0,0.1-0.1,0.1
				c-0.2-0.1-0.5-0.1-0.7-0.2c-2.1-0.8-2.9-2.4-3.1-3.1c0-0.1-0.1-0.2-0.1-0.3l0.1-0.1L67.4667,49z"/>
		</g>
		<g>
			<path class="st1" d="M63.5667,74.9c-0.8,0-1.6-0.2-2.4-0.5l0,0l0,0c-0.3-0.3-0.4-0.7-0.4-1c0-0.9,1.4-1.6,2.2-1.9
				c1.2-0.4,2.8-0.7,4.1-0.7l0,0c0.3,0,0.7,0,1,0.1h0.2l-0.1,0.2c-0.5,1.7-1.6,2.9-2.9,3.5C64.7666,74.8,64.1667,74.9,63.5667,74.9z
				 M61.2666,74.1c1.3,0.6,2.7,0.6,3.8,0.2l0,0c1.5-0.6,2.2-2,2.5-3c-0.3,0-0.5,0-0.8,0l0,0c-1.3,0-2.8,0.3-4,0.7s-1.9,1-1.9,1.5
				C60.9667,73.6,61.1667,73.8,61.2666,74.1z"/>
		</g>
		<g>
			<path class="st1" d="M58.7666,65.9l1.5,0.6"/>
		</g>
		<g>
			<path class="st1" d="M67.6667,66.9c-0.1,0.1-0.3,0.2-0.4,0.2l-0.1,0.7c0,0.1-0.1,0.2-0.2,0.2c0,0-0.1,0-0.1,0.1
				c-0.1,0-0.2,0-0.3,0l0,0l0,0l-1.1-0.2l-1.7-0.3c-0.1,0-0.3-0.1-0.4-0.2c-0.1-0.1-0.1-0.2-0.1-0.3c0.1-0.3,0.2-0.4,0.2-0.4
				s0.1-0.3,0-0.3c0-0.1-0.2,0.4-0.3,0.3c-0.1,0,0.1-0.4,0-0.4s-0.1,0-0.2,0c0,0-0.1,0.4-0.2,0.6V67c0,0.2,0,0.4,0.2,0.6
				c0.1,0.1,0.2,0.3,0.4,0.3c0.1,0,0.1,0,0.2,0.1h0.1l1.1,0.2l1.1,0.2l0.4,0.1c0.2,0.1,0.5,0,0.7-0.1l0,0c0.1-0.1,0.2-0.2,0.3-0.3
				l0,0c0-0.1,0.1-0.1,0.1-0.2C67.6667,67.2,67.7666,66.9,67.6667,66.9z"/>
		</g>
		<g>
			<path class="st1" d="M67.8667,66.4c0,0.2-0.1,0.4-0.3,0.5c0.4,0.4,0.6,1.5,0.4,2.7c-0.3,2.6-1.7,4.1-2.9,4.6
				c-1.5,0.6-3.5,0.1-4.6-0.6c-0.6-0.4-1-0.8-1-1.2c0-0.3,0.3-0.5,0.7-0.8c0.6-0.4,1.3-0.9,1.7-1.9c0.4-0.9,0.4-2.1-0.1-3.3
				c1,0.3,2,0.5,3,0.5c-0.1-0.1-0.1-0.2-0.1-0.3s0-0.2,0-0.3c-1.1-0.1-2.1-0.3-3.2-0.6l-0.6-0.2l0.3,0.6c0.6,1.3,0.7,2.5,0.3,3.5
				c-0.3,0.8-1,1.3-1.5,1.7s-1,0.7-1,1.3c0,0.5,0.5,1.1,1.2,1.6c0.9,0.6,2.1,1,3.3,1c0.6,0,1.2-0.1,1.8-0.3c0.9-0.4,1.7-1.1,2.3-2.1
				c0.5-0.8,0.8-1.9,1-2.9C68.7666,68.1,68.4667,66.9,67.8667,66.4z"/>
		</g>
		<g>
			<path class="st1" d="M65.5667,64c-0.9-0.1-1.7,0.1-2.3,0.4l0,0c-3.1,0.8-3.5-0.5-3.5-0.5l0,0c-0.1-0.4-0.3-0.9-0.7-1.4
				c-0.3-0.4-0.7-0.6-1.1-0.7c-0.4-0.1-0.9-0.1-1.1,0.1c-0.5,0.5-0.3,1.5,0.5,2.3c0.1,0.2,0.3,0.3,0.5,0.4c0.1,0.1,0.1,0.1,0.2,0.2
				c0,0,4.4,2.4,8.8,2.8c0.2,0,0.4,0,0.6-0.1c0.6-0.3,1-0.7,1-1.3C68.5667,65.1,67.2666,64.2,65.5667,64z M57.9667,64.2
				L57.9667,64.2c-0.2-0.1-0.3-0.2-0.4-0.2c-0.1-0.1-0.1-0.2-0.2-0.3c-0.1-0.4-0.1-0.7,0.1-0.8c0.2-0.1,0.4,0.2,0.6,0.6
				S58.1667,64.1,57.9667,64.2z M66.7666,66.9c-0.6,0.3-1.2,0.3-1.4,0c-0.1-0.3,0.2-0.8,0.9-1.1s1.2-0.3,1.4,0
				C67.7666,66.1,67.3667,66.6,66.7666,66.9z"/>
		</g>
		<g>
			<path class="st1" d="M74.2666,80.7c-0.1,0-0.1,0-0.2-0.1c-0.1-0.1-0.1-0.3,0-0.4l3.3-3.7l2.5-4.8l-1.2,0.2c-0.1,0-0.2,0-0.2-0.1
				c-0.1-0.1-0.1-0.1-0.1-0.2v-0.2l-2.1,3.7c0,0,0,0.1-0.1,0.1l-5.8,4.2c-0.1,0.1-0.3,0.1-0.4-0.1c-0.1-0.1-0.1-0.3,0.1-0.4l5.7-4.1
				l2.7-4.8c0.1-0.1,0.2-0.2,0.3-0.1c0.1,0,0.2,0.2,0.2,0.3l-0.1,1.1l1.4-0.2c0.1,0,0.2,0,0.3,0.1s0.1,0.2,0,0.3l-2.8,5.3
				c0,0,0,0,0,0.1l-3.3,3.8C74.4667,80.6,74.3667,80.7,74.2666,80.7z"/>
		</g>
		<g>
			<path class="st1" d="M72.0667,35.5l0.3,0.3c0.3,0.4,0.7,0.7,1,1.1l0.1,0.1l0,0h0.1c0.1,0,0.3-0.1,0.4-0.1l1.5-0.4
				c0,0,0.1,0,0.1-0.1s0-0.1,0-0.2c-0.3-1.1-0.5-2.2-0.8-3.2c0,0,0-0.1-0.1-0.2l0,0h-0.1l0,0c-0.1,0-0.1,0.1-0.2,0.1
				c-0.6,0.6-1.3,1.2-1.9,1.7l-0.5,0.5c-0.1,0-0.1,0.1-0.1,0.2C71.9667,35.4,71.9667,35.5,72.0667,35.5z M74.6667,33.9l0.5,1.9
				l-0.2-0.2c-0.2-0.2-0.4-0.4-0.7-0.6C74.3667,34.7,74.5667,34.3,74.6667,33.9z M73.8667,36.6l0.3-1.1l0.9,0.8L73.8667,36.6z
				 M73.8667,35L73.8667,35L73.8667,35L73.8667,35z M74.2666,33.8c-0.1,0.4-0.2,0.8-0.4,1.2c-0.4,0-0.8,0.1-1.1,0.1L74.2666,33.8z
				 M73.7666,35.4l-0.3,1.1l-0.9-1L73.7666,35.4z"/>
		</g>
		<g>
			<path class="st1" d="M75.3667,37c-0.1,0-0.1,0-0.2,0l-0.7,0.2c-0.4,0.1-0.8,0.2-1.2,0.3c-0.3-0.3-0.6-0.7-1-1l-0.2-0.2l-0.1-0.1
				c0,0-0.1-0.1-0.2-0.1c-0.1,0-0.1,0-0.1,0.1s0,0.2,0,0.2c0.3,0.9,0.6,1.9,0.9,2.8c0,0,0,0.1,0.1,0.1l0,0h0.1l0,0
				c0.1,0,0.1,0,0.1-0.1c0.6-0.4,1.2-0.9,1.7-1.3l0.4-0.3c0.1,0,0.1-0.1,0.2-0.1c0.1,0,0.1-0.1,0.1-0.2
				C75.4667,37.1,75.3667,37,75.3667,37z M73.2666,38.4l0.2-0.7c0.3-0.1,0.6-0.2,1-0.2L73.2666,38.4z M73.0667,37.7
				c-0.1,0.2-0.1,0.4-0.2,0.7l-0.5-1.4C72.6667,37.2,72.8667,37.4,73.0667,37.7z"/>
		</g>
		<g>
			<path class="st1" d="M77.1667,37.7c0.1,0,0.2,0,0.3-0.1c0-0.1,0-0.2-0.1-0.3"/>
		</g>
		<g>
			
				<ellipse transform="matrix(0.353 -0.9356 0.9356 0.353 8.3168 91.1904)" class="st1" cx="70.0939" cy="39.5817" rx="0.2" ry="0.2"/>
		</g>
		<g>
			<path class="st1" d="M69.8667,37.3c0-0.1-0.1-0.1-0.2-0.1l-0.3,0.1l-0.1-0.3c0-0.1-0.1-0.1-0.2-0.1s-0.1,0.1-0.1,0.2l0.1,0.3
				l-0.3,0.1c-0.1,0-0.1,0.1-0.1,0.2l0.1,0.1h0.1l0.3-0.1l0.1,0.3l0.1,0.1h0.1c0.1,0,0.1-0.1,0.1-0.2l-0.1-0.3l0.3-0.1
				C69.8667,37.5,69.8667,37.4,69.8667,37.3z"/>
		</g>
		<g>
			<path class="st1" d="M74.9667,39.6c-0.1,0-0.1,0.1-0.1,0.2l0.1,0.3l-0.3,0.1c-0.1,0-0.1,0.1-0.1,0.2l0.1,0.1h0.1l0.3-0.1l0.1,0.3
				l0.1,0.1h0.1c0.1,0,0.1-0.1,0.1-0.2l-0.1-0.3l0.3-0.1c0.1,0,0.1-0.1,0.1-0.2s-0.1-0.1-0.2-0.1l-0.3,0.1l-0.1-0.3
				C75.1667,39.6,75.0667,39.6,74.9667,39.6z"/>
		</g>
		<g>
			<path class="st1" d="M76.9667,34.5c0.1,0,0.2,0,0.3-0.1"/>
		</g>
		<g>
			
				<ellipse transform="matrix(0.353 -0.9356 0.9356 0.353 12.8169 88.7028)" class="st1" cx="70.5453" cy="35.0841" rx="0.2" ry="0.2"/>
		</g>
		<g>
			<path class="st1" d="M61.4667,65.8c-0.2,0.1-0.4,0.3-0.7,0.2c0.1,0,0.1,0.1,0.2,0.1c-0.1,0.1-0.1,0.2-0.2,0.2
				c-0.1,0.1-0.2,0.1-0.3,0l-0.3-0.1l-1.2-0.5c-0.2-0.1-0.2-0.3-0.2-0.6c0,0,0,0,0.1,0V65c0-0.1,0-0.2,0-0.3c0-0.2-0.2-0.3-0.4-0.1
				c-0.1,0.1-0.1,0.1-0.2,0.2h0.1c-0.2,0.5,0,1,0.4,1.1l1.5,0.7c0,0,0,0,0.1,0c0.2,0.1,0.4,0,0.6-0.1c0.2-0.1,0.3-0.2,0.4-0.4h0.1
				C61.4667,66.2,61.4667,66,61.4667,65.8z"/>
		</g>
	</g>
</g>
<g>
	<g>
		<path class="st1" d="M41.4667,86.9h11.5c-0.1-0.3-0.1-0.7-0.1-1h-11.4C41.5667,86.2,41.5667,86.6,41.4667,86.9z"/>
	</g>
</g>
<g>
	<g>
		<path class="st1" d="M21.5667,85.9h-10.8c-0.8,0-0.8,1,0,1h10.8C21.5667,86.6,21.5667,86.2,21.5667,85.9z"/>
	</g>
</g>
<g>
	<g>
		<path class="st1" d="M101.0667,85.9h-29.1c-0.1,0.4-0.2,0.7-0.4,1h29.6C101.8667,86.9,101.8667,85.9,101.0667,85.9z"/>
	</g>
</g>
<g>
	<g>
		<path class="st1" d="M42.2663,103.9997h-9.0576l-0.1494-0.209c-0.4609-0.6465-1.0791-1.0381-1.8906-1.2002l-0.4023-0.0801v-0.2109
			c-0.5313-0.709-1.4199-1.0996-2.5-1.0996h-0.167l-0.1328-0.1006c-0.3643-0.2734-0.7031-0.4297-1.0977-0.5088l-0.2021-0.0908
			c-0.7832-0.5869-1.5869-1.0898-2.3643-1.5762l-0.126-0.1113c-0.2559-0.3203-0.7197-0.7217-1.4727-0.8164l-0.1611-0.0488
			l-0.3018-0.1582c-0.2559-0.1367-0.458-0.2441-0.6963-0.3037l-0.3779-0.0957V74.3972l21.0996,0.1055V103.9997z M33.7135,102.9997
			h7.5527V75.4968l-19.0996-0.0938v21.2373c0.1953,0.0801,0.3721,0.1738,0.5459,0.2666l0.208,0.1094
			c0.9805,0.1494,1.6104,0.6641,1.9805,1.1025c0.7451,0.4658,1.5137,0.9492,2.2773,1.5156
			c0.4453,0.1035,0.8496,0.2861,1.2529,0.5684c1.2744,0.0381,2.3457,0.5244,3.0459,1.3828
			c0.0342,0.0205,0.0674,0.0439,0.0977,0.0713C32.4469,101.8728,33.1647,102.324,33.7135,102.9997z"/>
	</g>
</g>
<g>
	<g>
		<path class="st1" d="M60.4667,15.2v4.9l0,0h-22.7c-0.6,0-0.6,1,0,1h22.7v9.6h-0.1h-33.8v-2.8c0-0.6-1-0.6-1,0v8c0,0.1,0,0.1,0,0.2
			c-0.1,0.3,0.1,0.7,0.5,0.7h34.4h0.1c0.3,0.3,0.9,0.1,0.9-0.4V15.1C61.3667,14.5,60.4667,14.5,60.4667,15.2z M60.4667,35.8
			C60.3667,35.8,60.3667,35.8,60.4667,35.8h-33.9v-4.1h33.8c0,0,0,0,0.1,0L60.4667,35.8L60.4667,35.8z"/>
	</g>
</g>
</svg>
