<svg enable-background="new 0 0 111 128.1667" viewBox="0 0 111 128.1667" xmlns="http://www.w3.org/2000/svg"><path d="m111.1608 96.1542-55.4257 32-55.4239-32v-63.9995l55.4239-32 55.4257 32z" fill="#050932"/><g fill="#26ffad"><path d="m60.7167 55.05c-.7-.1-1.2-.4-1.5-.7-.1.6-.1 1.2-.2 1.8.9999.1 1.4999-.7 1.7-1.1m-41.8-1h.3c3.9.6 4.9-1.1 5.1-1.4l-1.2-4.8.2-.1c1.9-1.4 4.7-1.6 5.9-1.6l-.7-1.4.3-.2c2.8-1.8 6-1.6 7.3-1.4l-.5-1.2.4-.1c2.6-.6 4.7 0 6.3.7l-.1.3-.1.3c-1.3-.6-3.2-1.2-5.5-.8l.6 1.6-.7-.2s-3.9-.9-7.1 1l1 1.9-.6-.1s-3.6-.3-5.8 1.3l.1.3 1 4.2v.1s-.2.6-.9 1.1c-.7.6-1.9 1.1-3.9 1-.3 0-.6 0-.9-.1 0 .2 0 .6.2 1 0 0 0 .1.1.1 0 .1.1.1.1.2v.1c.1.1.1.2.2.3 0 0 0 0 .1.1.3.2.6.4 1 .6.3.1.7.2 1.2.3h.3c.2 0 2.1.2 2.5-.2.1-.1.1-.1.1-.2s.1-.2.1-.3 0-.2 0-.3c0-.2 0-.4 0-.4s.1.2.3.5c.1.1.1.2.1.3s.1.2.1.3c0 .2 0 .5-.2.7-.4.4-1.5.4-2.3.4-.3 0-.6 0-.7 0l-.1 1.4 1.7.8-.7 1.9 1.9.5v2.1l2.2-.5.6 1.9 2.2-.5.8 2.2 1.8-.4.9 1.7h1 1.3l2.2 3.5 3.1-.5 4.2 2.2.2-1.5 2.4 1 .4.2.4.2.8.3-.5-2.7 2.3.8-.1-4.1 1.5-.4 1.1-3.3 1.7-1.4c.4-1.3-.2-2.2-.2-2.3l-.3-.5 1.8-.2c.6-2.1 1-4.8 1.2-7 0-.1-.1-.1-.1-.1h.1c.1-1.4.2-2.6.2-3.1l-1.4-.2.6-2c-.5-.2-1-.4-1.4-.4-.9-.2-1.6-.1-1.9 0l-.5998.2.7-2.3c-.4-.2-.8-.3-1.2-.4-2-.4-3.9.3-4 .3l-.6.2.6-2.2c-.2 0-.4-.1-.7-.1-.1 0-.3 0-.4 0v-.4-.4c.5 0 1.1 0 1.6.1l.4.1-.4 1.6c1.1-.3 3.4-.6 5.4.4l.3.1-.5 1.7c.7-.1 2 0 3.5.7l.3.1-.6 1.8 1.3.2v.3c0 .1-.1 1.6-.3 3.5.3.4.8.9 1.8.9h.4l-.1.4s-.4 2-2.4 1.9c-.1 0-.1 0-.2 0-.2 1.5-.5 3-.9 4.2l-.1.2-1.3.1c.2.5.4 1.4 0 2.5v.1l-1.7 1.4-1.1 3.5-1.4.4.1 4.5-2.1-.7.5 2.8-1.3-.5c-.1 0-.2-.1-.3-.1-.2-.1-.4-.2-.6-.3l-2.2-.9-.2 1.6-4.3-2.3-.6-.3-3.4.6-2.2-3.5h-2.3l-.8-1.6-1.7.8-.8-2.2-2.3.5-.6-1.9-2.4.5v-2.4l-2.2-.5.8-2-1.5-.7.1-1.4v-.6c-1.2-.2-2.1-.7-2.6-1.4l-.1-.1c-.1-.2-.2-.4-.3-.6v-.1c-.2-.7-.1-1.4-.1-1.4z"/><path d="m37.1167 52.85c.1.4.2.9.2 1.4s-.1 1-.2 1.3v.1c0 .2.2.4.4.4h.1c.2 0 .4-.1.5-.2.2-.4.3-1 .4-1.6 0-.6-.1-1.2-.3-1.6-.1-.1-.2-.2-.4-.2-.5-.1-.7.1-.7.4-.1001-.1-.1001 0 0 0"/><path d="m53.4167 53.75s0 .1 0 0c.1.4.2.8.2 1.2s-.1.9-.2 1.2v.1.1c0 .2.2.4.4.4h.1c.1 0 .2-.1.3-.2v-.1c.2-.3.3-.8.3-1.3 0-.6-.1-1.1-.2-1.4-.1-.1-.2-.2-.4-.2-.3-.2-.5 0-.5.2-.1 0-.1 0 0 0"/><path d="m37.9167 68.45c1.3.6 3 .8 4.2 1 .6.1 1.1.1 1.6.1h2.1c.2 0 .4 0 .7-.1.1 0 .2 0 .3-.1.1 0 .2 0 .3-.1 1.5-.3 3.4-.9 4.3-1.4.2-.1.5-.3.6-.6 0-.3-.2-.5-.5-.8s-.7-.6-.7-1.2c0-.8.1-1.2.1-1.5.1 0 .2-.1.3-.1.2 0 .4-.1.7-.2 1.1-.5 1.8-1.4 1.5-2.1-.2-.4-.6-.6-1.1-.6h-.1c-.4 0-.9.1-1.3.3-.6.3-1.1.7-1.3 1.1 0 0-1 1.2-3.8-1-.5-.6-1.2-1.1-2.2-1.4-1.8-.6-3.6-.1-3.9 1-.2.7.1 1.4.8 2-.2-.1-.4-.1-.6-.2-.8-.3-1.5-.3-2.2-.2-.2 0-.3.1-.5.1-.1 0-.3.1-.4.1 0 0-.1 0-.1.1-.5.3-.9.7-1.1 1.2-.7 2.1.1 3.6 2.3 4.6zm13.8-6.3c.3-.3.7-.5.8-.4.2.1 0 .5-.3.8-.1.1-.2.2-.3.3-.2.1-.4.2-.5.1-.1-.1 0-.5.3-.8zm-9.1.7c-.3.2-.9 0-1.4-.6s-.7-1.2-.5-1.5c.3-.2.9 0 1.4.6.6.6.8 1.3.5 1.5zm.7 1.2c0 .1-.1.2-.2.3s-.3.1-.5.1l-1.8-.4-1.2-.3h-.1c-.1 0-.2-.1-.3-.2l-.1-.1c-.1-.1-.1-.2-.1-.3v-.1h.1l.3.1c.1 0 .2 0 .2.1.1 0 .1 0 .2.1 1.1.3 2.3.5 3.5.7zm6.1999 0c0 .3-.2.5-.4.5l-1.4.1h-.4c-.1 0-.2 0-.3-.1s-.1-.2-.1-.3h.7.2c.6001 0 1.2-.1 1.7-.2zm-11.0999 4c.5-.9 2.6-1.7 5-1.7h.5c.3 0 .6 0 .8.1.3 0 .7.1 1 .2 1.6.3 2.9.9 3.4 1.6-.8.2-1.6.5-2.2.6-.1 0-.2 0-.3.1-.1 0-.2 0-.3.1-.2 0-.3 0-.5.1-1.2.1-4 0-6.2-.5-.4-.4-.8-.5-1.2-.6zm-2.3-4c.1-.4.4-.6.7-.8.2-.1.4-.2.6-.2s.4-.1.5-.1h.5v.3s.1.3.1.4c.2.2.4.4.7.4l.5.1 1.3.3 1.3.3h.1.2c.2 0 .4 0 .6-.1s.4-.4.5-.6c.6.1 1.3.1 1.9.2h.3.6c0 .2.1.4.3.6s.3.3.6.3h.1l1.8-.1c.5 0 .8-.5.8-1 .1 0 .2 0 .4-.1 0 .3-.1.7-.1 1.3 0 .9.5 1.4.9 1.7.1.1.2.2.3.3 0 0-.1.1-.2.2-.4.2-.9.4-1.6.7-.6-1-2.6-1.8-5-2.1h-.1c-.2 0-.3 0-.5 0-.1 0-.1 0-.2 0-.2 0-.5 0-.7 0-2.4.1-4.5.8-5.1 1.9-2-1-2.6-2.2-2.1-3.9z"/><path d="m47.4167 25.75h-.1z"/><path d="m46.5166 31.85c-.1 0-.3.1-.3.2.0001-.2.2001-.2.3-.2"/><path d="m43.8167 42.25c-.2 0-.4 0-.6 0z"/><path d="m42.7167 45.95h.2v.1c-.1 0-.2-.1-.2-.1"/><path d="m48.5166 26.85-1.3.6.1-1.3zm0-.5c-.4-.2-.7-.4-1.1-.6 0-.5.1-.9.1-1.4m-1.7999 2.2 1.2-.4-.1 1.2zm1.4-2.3c0 .4-.1.9-.1 1.3-.3.1-.6.2-.9.3l-.3.1zm1.8999 2.8c.1 0 .1-.1.1-.1 0-.1 0-.1 0-.2l-.3-.7c-.4-.8-.8-1.7-1.2-2.5 0 0 0-.1-.1-.1h-.1c-.1 0-.1.1-.2.1-.7.9-1.4 1.9-2.1 2.9 0 .1-.1.1 0 .2 0 .1.1.1.1.1l1.3 1c.1.1.2.2.4.3 0 0 .1 0 .1.1h.1c.5-.2 1-.5 1.5-.7z"/><path d="m47.1167 28.75c.3-.1.6-.3 1-.4l-1 1.2c-.1001-.3 0-.6 0-.8m-1.3-.7c.3.2.6.4.9.6l-.1.7zm-.5-.9s-.1-.1-.2-.1-.1 0-.2.1v.2c0 .1.1.1.1.2l.3.5c.4.7.8 1.4 1.2 2.1l.1.1h.1c.1 0 .1-.1.1-.1.7-.8 1.4-1.6 2.1-2.4 0 0 .1-.1.1-.2s0-.1-.1-.2c-.1 0-.1 0-.2 0s-.1.1-.2.1l-.3.1c-.5.2-.9.4-1.4.6-.3-.3-.7-.5-1-.8z"/><path d="m42.9167 27.05c-.1 0-.2-.1-.2-.2s.1-.2.2-.2.2.1.2.2-.1001.2-.2.2"/><path d="m49.3167 32.15c-.1 0-.2-.1-.2-.2s.1-.2.2-.2.2.1.2.2c-.0001.1-.1.2-.2.2"/><path d="m47.7167 43.15v.1c0 .1-.1.1-.2.2-.5.6-2 1.9-4.5 1.8-.3 0-.5 0-.8-.1 0-.1 0-.1 0-.1l.4-1.5.1-.3.1-.4v-.1h.3.5c1.9 0 3.2-.8 3.9-1.5l.1 1.4zm-3.2001-3.4c1.2-.2 2.2-.6 2.9-1.1l.2 2c-.5.6-1.7 1.5-3.7 1.6-.2 0-.5 0-.7 0l.7-2.5zm.8001-3.2c.6-.2 1.3-.4 1.8-.8l.2 2.1c-.6.5-1.4 1-2.6 1.2-.2 0-.4.1-.6.1l.8-2.5c.0999 0 .3-.1.4-.1m.9-3.3c.2-.1.5-.2.7-.3l.2 2.2c-.5.3-1 .6-1.6.8-.2 0-.3.1-.5.1l.8-2.6c.1-.1.3-.2.4-.2m.6-1c-.1.1-.3.2-.5.2-.1.1-.2.1-.4.2l.2-.6c.1-.2.2-.2.3-.2.1 0 .3.1.3.3zm-1.8001 14.3c-1.1 0-1.7-.3-2.1-.5-.1 0-.1-.1-.2-.1h.2.2c2.5.1 4-1.1 4.7-1.8l.1 1.6c.0001.1-.2999.9-2.9.8zm-3.3999-1.5c0 .1-.1.6.4 1.1.5.6 1.5 1 2.9 1 3.4.1 3.6-1.2 3.6-1.4l-.2-2.3v-.4-.4l-.9-10.7c0-.5-.4-.8-.8-.9-.5 0-.9.2-1 .7l-3.2 10.8-.1.3-.1.3-.3.8z"/><path d="m50.5166 29.75c.1-.1.2-.1.2 0l.2.2.2-.2c.1-.1.2-.1.2 0 .1.1.1.2 0 .2l-.2.2.2.2c.1.1.1.2 0 .2h-.1s-.1 0-.1-.1l-.2-.2-.2.2h-.1s-.1 0-.1-.1c-.1-.1-.1-.2 0-.2l.2-.2-.2-.2c-.0999.1-.0999 0 0 0"/><path d="m42.1167 23.75-.2-.2c-.1-.1-.1-.2 0-.2.1-.1.2-.1.2 0l.2.2.2-.2c.1-.1.2-.1.2 0 .1.1.1.2 0 .2l-.2.2.2.2c.1.1.1.2 0 .2 0 0-.1.1-.1 0 0 0-.1 0-.1-.1l-.2-.2-.2.2s-.1.1-.1 0c0 0-.1 0-.1-.1-.1-.1-.1-.2 0-.2z"/><path d="m44.4167 29.85c.1.1.1.2 0 .2l-.2.2.2.2c.1.1.1.2 0 .2 0 0-.1.1-.1 0 0 0-.1 0-.1-.1l-.2-.2-.2.2s-.1.1-.1 0c0 0-.1 0-.1-.1-.1-.1-.1-.2 0-.2l.2-.2-.2-.2c-.1-.1-.1-.2 0-.2.1-.1.2-.1.2 0l.2.2.2-.2c0 .2.1.2.2.2"/><path d="m44.5166 23.85c-.1 0-.2-.1-.2-.2s.1-.2.2-.2.2.1.2.2c.1001.1.0001.2-.2.2"/><path d="m50.7167 26.95c.1 0 .2.1.2.2s-.1.2-.2.2-.2-.1-.2-.2c-.1-.2-.0001-.3.2-.2"/><path d="m19.5166 54.85h.4c-.0999.1-.1999 0-.4 0m.1001.4c0 .2.1.4.2.6-.1-.2-.2-.4-.2-.6"/><path d="m22.6167 59.55.1-1.4zm1 2.7 1.3.3zm2 2.5v-2zm1.3-.3.8-.2.1.5-.1-.5zm1.4 1.7h.2zm6.6999 3h-1z"/><path d="m20.3167 56.55 1 .6c-.1-.1-.3-.1-.4-.2-.1 0-.1-.1-.2-.1-.2001-.1-.3-.2-.4-.3"/><path d="m20.7167 56.85s.1.1.2.1c-.1-.1-.2-.1-.2-.1"/><path d="m37.0166 55.65s0 .1 0 0zm.1001.3c.1.1.2.1.3.2-.1 0-.3-.1-.3-.2"/><path d="m54.1167 56.35c0 .1 0 .1 0 0 0 .1 0 .1-.1.1 0 0 0 0-.1.1 0 0 0 0 .1-.1.1 0 .1 0 .1-.1zm-.1001.2c-.1 0-.1.1-.2.1.1001 0 .1001 0 .2-.1z"/><path d="m38.7167 42.45c1.2.1 2.3.4 3.2.8-.9001-.4-2-.7-3.2-.8m-1.4 1.8-.4-1.1zm-7.8001.8 1 1.9h-.3.3z"/><path d="m48.9167 43.45c-.1 0-.1 0 0 0zm.5 0-.5 2.2z"/><path d="m56.6167 47.65c.2 0 .3.1.5.1-.2 0-.4-.1-.5-.1m1.3.4-.5 1.5z"/><path d="m53.5166 45.15c.1 0 .2 0 .4.1-.1999-.1-.2999-.1-.4-.1m.8001.2c.1 0 .3.1.4.2-.1-.1-.3-.1-.4-.2m-.3001 2.4.4-1.1z"/><path d="m51.0166 49.55c.1 0 .1 0 .2.1 2 3.5 1.2 11.1 1.1 11.2h-.1c-.4 0-.9.1-1.3.3 1.3-5.7.5-9.5 0-11.3-.0999-.2.0001-.3.1-.3"/><path d="m52.2167 60.85c-.4 0-.9.1-1.3.3.4-.3.9-.3 1.3-.3"/><path d="m59.1167 54.35c.1.1.3.2.4.3-.1-.1-.2-.2-.4-.3m1.6.7c-.1.2-.2.4-.3.6.0999-.3.2-.5.3-.6zm-1.8.9v.2c0-.1 0-.2 0-.2z"/><path d="m9.0166 36.75v53.8l46.8 27 46.8-27v-53.9l-26.3-15.2-1-.6-2.4-1.4-.3-.2-2.6-1.5-.3-.2-2.5-1.4-1-.6-10.4-6-13.4 7.8-1 .6-2.3 1.3-.3.2-1.9 1.1-.3.2-2.1 1.2-1 .6zm1.9001 52.8v-51.7l23.2-13.4 1-.6 2.1-1.2.3-.2 1.9-1.1.3-.2 2.3-1.3 1-.6 12.6-7.3 9.6 5.5 1 .6 2.5 1.4.3.2 2.6 1.5.3.2 2.4 1.4 1 .5 25.4 14.6v51.7l-44.9 25.9z"/><path d="m77.6167 64.45h3.8v5.7h-3.8zm3 .8h-2v3.9h2z"/><path d="m73.1167 72.75.1-3.5h12.9v3.5zm12-2.5h-11.1v1.7h11.1z"/><path d="m71.5166 75.95v-4h16.2v4zm15.2001-3.1h-14.4v2.2h14.4z"/><path d="m51.5166 79.85c0 .2-.2.6.1.6l10.3.5h.1s.2-.1.3-.1l11-4.7c.2-.1.3-.2.2-.4 0-.2-.2-.3-.4-.3h-2.1999l.8-1.3c.1-.1 0-.3-.1-.4s-.3-.2-.5-.1l-8.7 2.5-10-4.3h-.1c-.1.2-.2.5-.3.7l10.2 4.4h.4l7.6-2.1-.6.9c-.1.1-.1.3 0 .4s.2.2.4.2h1.3l-9.6 3.9-9.9-.4c-.8001-.1-.5 0-.3001 0z"/><path d="m67.3167 75.05 2-.8v.7l-1.2.5 1.4 1.6.5-.3c.1.1.2.3.3.4l-.8.3c0 .1-.2.1-.3.1h-.1c-.1 0-.1 0-.2 0l-1.7-2c-.1-.1-.1-.2-.1-.3s.1-.2.2-.2z"/><path d="m27.8167 83.45.1.1 1.6 4.6c.6 2.7 2 5.1 4 6.8 2 1.8 4.5 2.7 7 2.7h4.5c2.8 0 5.4-1.6 6.9-4.2 1.3-2.3 1.6-5 .9-7.5l-.4-1.4h48.1c.6 0 .6-1 0-1h-48.1c-.1 0-.2 0-.3.1l-.5-1.8-.3-9.6c-.1 0-.1 0-.2 0h-.1c0 .4-.1.9-.3 1.3l.2 8.4v.1l1.2 4.2c.7 2.3.4 4.8-.8 6.8-1.4 2.5-3.8 3.9-6.4 3.9h-4.5c-2.3 0-4.6-.9-6.5-2.5-1.8-1.6-3.2-3.9-3.7-6.4l-1.6-4.8c-.1-.1-.2-.2-.3-.2l-.2-.2c0 .3 0 .6-.3.6z"/><path d="m20.2167 68.05c.1.1.1.2.2.3h.3l1.1-.4c-.3.5-.6 1.2-.8 2.1-.4 1.6-.8 4.1.2 6.8 0 .1.1.2.2.2.1.1.2.1.3 0l1.7-1.3.4 3c.2-.1.4-.1.6-.1h.1l-.4-3.7c0-.1-.1-.2-.2-.3s-.2-.1-.3 0l-1.8 1.3c-.6-1.9-.6-3.8 0-5.9.4-1.7 1.1-2.8 1.1-2.8.1-.1.1-.3 0-.4s-.3-.2-.4-.1l-1.6.6c.1-2.4 3.1-4.8 3.1-4.8 0-.1.1-.2.1-.3s0-.2-.1-.3l-.8-.7 1.1-.4c-.1-.3-.1-.5-.1-.8l-1.8.7c-.1.1-.2.2-.2.3 0 .2 0 .3.1.4l.9.8c-1 .8-3.4 3.2-3 5.8z"/><path d="m11.1167 84.55h13.3.1l1.2 7.8c0 .1.1.3.2.3s.2 0 .3-.1l1.3-1.4.8 1.3c.1.1.2.2.3.2h.1c.1-.1.2-.2.2-.4l-.8-7.2 1.5-6.3c.1-.2 0-.4-.2-.5-.2 0-.4.1-.4.3l-1.6 6.4v.1l.6 5.6-.2-.3c0-.1-.1-.2-.2-.2s-.2 0-.3.1l-1.1 1.2-1.1-7.1-.8-6.9c0-.2-.2-.3-.4-.3s-.3.2-.3.4l.7 6h-13.2c-.7 0-.7 1 0 1z"/><path d="m28.8167 80.85c-.1 0-.3-.2-.4-.3 0-.2.1-.4.3-.4l2-.4c.2 0 .4.1.4.3s-.1.4-.3.4l-2 .4c.1 0 .1 0 0 0"/><path d="m46.0166 97.05-.8 4c0 .1 0 .2.1.3s.2.1.3.1h1.6c.1 0 .2-.1.3-.2l4.5-8c0-.1-.2.3-.3.2-.1-.2-.3-.2-.4-.1h-.1c0 .1 0 .2-.1.3-.1.2-.3.5-.5.7 0 .1 0 .1-.1.2v.1l.1-.1-3.6 6.2h-1l.8-3.8c-.1999 0-.3999.1-.8.1z"/><path d="m51.9167 92.25h-6.1v-.1c-.2 0-.5.1-.8.1-.1 0-.2 0-.3 0h-12.4c-.1 0-.2 0-.3.1l-.5-.8c0-.1-.1-.2-.3-.1s-.3.3-.3.2l4.9 9.4c.1.1.1.2.2.2l1.6.6h.1.2c.1 0 .2-.1.2-.2l.6-4.5c-.2 0-.4-.1-.6-.2l-.6 4.2-1.1-.4-3.9-7.5h19.1c.5 0 .8999-1 .3-1z"/><path d="m45.6167 101.35c-.1 0-.2 0-.2-.1-.1 0-.1-.1-.1-.2l.2-1c0-.1.2-.2.3-.2h2c.1 0 .2 0 .3.1s.1.2 0 .3l-.6 1c-.1 0-.2.1-.3.1zm1.7-1h-1.2l-.1.4h1.1z"/><path d="m37.8167 102.05c-.1 0-.1 0 0 0l-1.7-.6c-.1 0-.2 0-.2-.1l-.4-.8c-.1-.1-.1-.2 0-.3.1 0 .2-.1.3-.1h2.2c.1 0 .1 0 .2.1.1 0 .1.1.1.2l-.2 1.4c0 .1 0 .2-.1.2s-.1 0-.2 0m-1.5-1.4.1.3 1.1.4.1-.7z"/><path d="m68.6958 118.1083-1.1.7-1-1.7 1-.5-.5-.8-.9.6-.8999-1.6 1.0999-.7-.4-.8-2.1 1.2 3.2 5.6 2.1-1.2z"/><path d="m70.4958 118.2083.9-.6-2.7-4.8.7-.4-.5-.8-2.3 1.4.4.8.7-.4z"/><path d="m75.2959 115.4083-3.2001-5.6-.9.5 1.4 2.5-.7.4-1.4-2.5-1 .6 3.2 5.6 1-.6-1.3999-2.3.7999-.5 1.3 2.4z"/><path d="m72.8958 109.3083 3.2 5.6 1.8-1c.5-.3.6-.8.3-1.2l-2.3-4c-.3-.5-.8-.6-1.2-.3zm4.4001 3.7c0 .1 0 .2-.1.2l-.6.3-2.3-4 .6-.3c.1 0 .2 0 .2.1z"/><path d="m78.9958 106.9083-.5-.8-2.1 1.2 3.3 5.6 2-1.2-.3999-.8-1.2001.6-.9-1.6.9-.5-.4-.8-1 .5-.8999-1.5z"/><path d="m82.9958 108.0083-3-2.8-.8.5 3.3 5.6.7-.5-1.8-3.1 2.9001 2.5.7999-.4-3.2-5.6-.8.4z"/><path d="m84.3958 102.7083 1.8 4.2-2.7-3.6-1 .5 4.2 5.1.9-.6-2.2999-6.1z"/><path d="m89.1958 107.4083 2-1.2-.3999-.8-1.2001.7-.9-1.6.9-.6-.4-.7-1 .5-.8999-1.6 1.1999-.6-.5-.8-2.1 1.1z"/><path d="m92.9958 102.7083c.2-.2.2-.6 0-.9l-1.4-2.4c-.2-.4-.7-.5-1.1-.3l-1.9 1.1 3.2 5.6.9-.5-1.1-1.9.3-.2 1.5 1.6.9-.5zm-1-.5-.6.5-1.2-2.2.6-.4h.1z"/><path d="m60.6167 55.05c-.6-.2-1-.5-1.4-.8.1-.3.1-.5.1-.8.3.4.8.9 1.7 1h.4l-.1.4s-.6 2-2.5 1.7c0 0 0 0-.1 0 0-.2.1-.4.1-.6 1 .2 1.6-.4 1.8-.9z"/><path d="m60.6167 55.05c-.1.2-.2.4-.4.5.2-.1.2999-.3.4-.5z"/><path d="m25.6167 88.75h2.5c.6 0 .5.6 0 .6h-2.5c-.6001 0-.5-.6 0-.6z"/><path d="m45.7018 77.0593c-1.7412 0-3.6211-1.4434-5.5938-4.2969l.6172-.4258c1.8887 2.7324 3.6963 4.1123 5.1934 3.9629 1.6631-.1523 2.5469-2.083 2.5557-2.1025l.6855.3057c-.043.0957-1.0664 2.3467-3.167 2.543-.0966.0087-.1933.0136-.291.0136z"/><path d="m94.8167 44.65-.1-.3h-5.9c-.1.3-.2.5-.3.8h5.6c.3 1.6.9 7.9-6.2 12.7l.7-2.3c.9-.5 4.4-2.7 4.5-8.8v-.4h-4.6v.8h3.8c-.3 5.9-3.9 7.6-4.1 7.7l-.2.1-1.5 4.8.8-.6c9.6-5.7 7.5-14.4 7.5-14.5z"/><path d="m71.2167 54.85s-3.8-1.8-4.1-7.7h3.8v-.8h-4.6v.4c.2 6.1 3.7 8.3 4.5 8.8l.7 2.3c-7.1-4.8-6.5-11.2-6.2-12.7h5.5c0-.2 0-.4 0-.6 0-.1-.1-.2-.1-.2h-6.2l-.1.3c0 .1-2.1 8.8 7.5 14.5l.9.6-1.5-4.8z"/><path d="m79.7165 65.2497c-2.2715 0-4.1855-.835-5.6904-2.4814-4.8867-5.3496-3.8535-17.4502-3.8076-17.9629l.041-.4551h18.7051l.0488.4453c.0566.5088 1.3232 12.5303-3.498 17.9131-1.5099 1.6866-3.461 2.541-5.7989 2.541zm-8.5342-19.8994c-.1377 2.2549-.498 12.2783 3.583 16.7441 1.3076 1.4297 2.9727 2.1553 4.9512 2.1553 2.041 0 3.7412-.7422 5.0537-2.207 4.0254-4.4941 3.4697-14.4668 3.2891-16.6924z"/><g enable-background="new"><path d="m76.6999 51.1697v2.874c-.1406 0-.3535 0-.6357 0 0-.5684 0-1.4199 0-2.5537-.1416 0-.3545 0-.6406 0v2.5537c-.1416 0-.3535 0-.6357 0 0-.5684 0-1.4199 0-2.5537-.1426 0-.3555 0-.6406 0v2.5537c-.1426 0-.3535 0-.6367 0 0-.2393 0-.5996 0-1.082 0-.1992 0-.4473 0-.7441 0-.2998 0-.6494 0-1.0479 0-.0859.0313-.1611.0957-.2246.0605-.0605.1348-.0908.2246-.0908h.957c.0889 0 .1641.0303.2246.0908.0635.0635.0957.1387.0957.2246 0-.0859.0293-.1611.0898-.2246.0645-.0605.1387-.0908.2256-.0908h.96c.0879 0 .1621.0303.2256.0908.0604.0634.0907.1386.0907.2246z"/><path d="m77.9772 51.49v.6406h.9609v.6367c-.4277 0-.748 0-.9609 0v.6406h1.2764v.6357c-.5654 0-.9912 0-1.2764 0-.2832 0-.4961 0-.6367 0 0-.2832 0-.4951 0-.6357 0-.1445 0-.2705 0-.377s0-.1943 0-.2637c0-.3203 0-.5322 0-.6367 0-.3203 0-.5332 0-.6406 0-.3174 0-.5293 0-.6357h.6367 1.2764v.6357c-.5655.0001-.9912.0001-1.2764.0001z"/><path d="m81.8073 51.1697v2.5537c0 .0898-.0303.1641-.0908.2256-.0635.0635-.1387.0947-.2256.0947-.2129 0-.5332 0-.9609 0-.0684 0-.1738 0-.3154 0-.0723 0-.1787 0-.3203 0 0-.3545 0-.7979 0-1.3291 0-.5303 0-1.1504 0-1.8604h.5576.0781.9609c.0869 0 .1621.0303.2256.0908.0605.0635.0908.1387.0908.2247zm-1.2774 2.2383h.6406c0-.0293 0-.0713 0-.126 0-.3984 0-.9951 0-1.792-.1406 0-.3545 0-.6406 0v.957z"/><path d="m82.3776 50.8542h.6367v2.3936.7959c-.1035 0-.3164 0-.6367 0 0-.3545 0-.7979 0-1.3291 0-.5303 0-1.1504 0-1.8604z"/><path d="m85.568 54.0437c-.1416 0-.3535 0-.6357 0 0-.2832 0-.708 0-1.2764-.1426 0-.3555 0-.6406 0v1.2764c-.1426 0-.3535 0-.6367 0 0-.2393 0-.5996 0-1.082 0-.1992 0-.4473 0-.7441 0-.2998 0-.6494 0-1.0479 0-.0859.0313-.1611.0957-.2246.0605-.0605.1348-.0908.2246-.0908h1.2773c.0859 0 .1611.0303.2246.0908.0605.0635.0908.1387.0908.2246zm-.6357-1.9131c0-.0254 0-.0635 0-.1123 0-.1182 0-.2939 0-.5283-.1426 0-.3555 0-.6406 0v.6406z"/></g><g enable-background="new"><path d="m75.2458 54.6667v.8281.4131.8281c-.1836 0-.3213 0-.4131 0 0-.3691 0-.6445 0-.8281-.1836 0-.3223 0-.416 0v.8281c-.1826 0-.3203 0-.4121 0 0-.2061 0-.3779 0-.5166s0-.2422 0-.3115c0-.208 0-.3457 0-.4131 0-.415 0-.6914 0-.8281h.4121v.8281h.416c0-.415 0-.6914 0-.8281z"/><path d="m76.0739 55.0798v.415h.624v.4131c-.2773 0-.4854 0-.624 0v.415h.8291v.4131c-.3672 0-.6436 0-.8291 0-.1826 0-.3213 0-.4131 0 0-.1836 0-.3213 0-.4131 0-.0938 0-.1748 0-.2441s0-.126 0-.1709c0-.208 0-.3457 0-.4131 0-.208 0-.3467 0-.415 0-.2061 0-.3438 0-.4131h.4131.8291v.4131c-.3672 0-.6436 0-.8291 0z"/><path d="m78.5592 56.7361c-.0918 0-.2295 0-.4131 0 0-.1836 0-.46 0-.8281-.0908 0-.2295 0-.415 0v.8281c-.0918 0-.2295 0-.4131 0 0-.1553 0-.3896 0-.7021 0-.1289 0-.29 0-.4824 0-.1953 0-.4219 0-.6797 0-.0566.0205-.1055.0615-.1465.0391-.0391.0879-.0586.1465-.0586h.8281c.0566 0 .1055.0195.1465.0586.0391.041.0586.0898.0586.1465zm-.413-1.2412c0-.0166 0-.041 0-.0732 0-.0762 0-.1904 0-.3418-.0908 0-.2295 0-.415 0v.415z"/><path d="m80.2155 54.8718v1.6563c0 .0586-.0195.1064-.0586.1465-.041.041-.0898.0615-.1465.0615-.1387 0-.3457 0-.623 0-.0449 0-.1133 0-.2051 0-.0469 0-.1152 0-.207 0 0-.2305 0-.5176 0-.8623 0-.3438 0-.7471 0-1.207h.3613.0508.623c.0566 0 .1055.0195.1465.0586.0391.0409.0586.0898.0586.1464zm-.8281 1.4512h.416c0-.0186 0-.0459 0-.0811 0-.2588 0-.6455 0-1.1621-.0918 0-.2305 0-.416 0v.6201z"/><path d="m81.8278 56.323v.4131c-.4131 0-.6904 0-.8291 0-.1523 0-.2559 0-.3086 0s-.0859 0-.1035 0c0-.5186 0-.9502 0-1.2949 0-.3438 0-.6025 0-.7744h.4121v1.6563c.3691-.0001.6455-.0001.8291-.0001z"/><path d="m82.2428 54.6667h.4131v1.5527.5166c-.0674 0-.2041 0-.4131 0 0-.2305 0-.5176 0-.8623 0-.3437 0-.747 0-1.207z"/><path d="m84.3131 54.8718v1.8643c-.0918 0-.2305 0-.4141 0 0-.3691 0-.9209 0-1.6563-.0908 0-.2295 0-.415 0v1.6563c-.0918 0-.2295 0-.4131 0 0-.2305 0-.5176 0-.8623 0-.3438 0-.7471 0-1.207h.4131.624c.0557 0 .1045.0195.1455.0586.0401.0409.0596.0898.0596.1464z"/><path d="m85.1413 55.0798v.415h.623v.4131c-.2773 0-.4844 0-.623 0v.415h.8281v.4131c-.3672 0-.6426 0-.8281 0-.1836 0-.3213 0-.4131 0 0-.1836 0-.3213 0-.4131 0-.0938 0-.1748 0-.2441s0-.126 0-.1709c0-.208 0-.3457 0-.4131 0-.208 0-.3467 0-.415 0-.2061 0-.3438 0-.4131h.4131.8281v.4131c-.3672 0-.6426 0-.8281 0z"/></g><g enable-background="new"><path d="m9.4411 31.4929c.084-.0479.1748-.0596.2715-.0322.0938.0234.165.0801.2148.167.1191.207.2979.5166.5342.9287.0508.0869.0635.1758.0381.2695-.0254.0977-.0811.1699-.165.2178-.207.1201-.5186.2988-.9336.5381-.1367.0781-.3428.1973-.6172.3555-.0801-.1367-.1992-.3428-.3564-.6172-.0811-.1406-.2002-.3477-.3584-.6221-.0791-.1377-.1973-.3438-.3555-.6182-.041-.0703-.0908-.1572-.1504-.2607s-.1289-.2246-.209-.3613c-.0781-.1377-.1973-.3428-.3555-.6182.1377-.0791.3438-.1973.6182-.3555.207-.1201.5186-.2988.9326-.5381.084-.0479.1748-.0615.2695-.0381.0947.0273.166.084.2148.1689.1191.207.2988.5176.5371.9326.0488.084.0615.1738.0381.2695-.0283.0939-.0839.1662-.1679.214zm-1.1104.2315c.1406-.0811.3477-.2002.623-.3594-.0146-.0254-.0352-.0605-.0635-.1094-.0664-.1152-.165-.2852-.2959-.5117-.1367.0781-.3438.1982-.6211.3574.0782.1367.1974.3438.3575.6231zm.7149 1.2402c.1396-.0811.3477-.2002.6221-.3594-.0146-.0254-.0361-.0605-.0635-.1094-.0664-.1152-.1641-.2852-.2949-.5117-.1367.0781-.3447.1982-.6221.3574.0791.1368.1982.3457.3584.6231z"/><path d="m10.4528 29.6736c.1582.2744.2783.4824.3584.6221.415-.2393.7256-.418.9336-.5381.1582.2754.2764.4805.3555.6191-.415.2383-.7256.418-.9336.5371.1582.2744.2773.4814.3594.6221.5518-.3174.9648-.5557 1.2402-.7139.1572.2734.2764.4805.3555.6172-.5488.3164-.9629.5547-1.2402.7139-.2744.1582-.4805.2764-.6182.3564-.1582-.2754-.2764-.4805-.3555-.6172-.0811-.1406-.1514-.2637-.2109-.3652-.0596-.1055-.1094-.1914-.1475-.2578-.1797-.3105-.2979-.5176-.3564-.6172-.1787-.3125-.2979-.5195-.3584-.623-.1768-.3086-.2959-.5137-.3555-.6172.3105-.1797.5166-.2988.6172-.3564.623-.3584 1.0361-.5967 1.2402-.7139.1777.3066.2969.5137.3564.6172-.5498.3163-.9629.5546-1.2402.7148z"/><path d="m13.735 28.197c-.041-.0693-.1006-.1738-.1797-.3105-.1367.0791-.3447.1992-.6221.3584.0791.1367.1982.3438.3584.6221.207-.1191.5186-.2988.9336-.5371.084-.0488.1738-.0615.2695-.0381.0938.0283.166.084.2139.168.1592.2773.3975.6904.7139 1.2402.0508.0869.0625.1758.0381.2695-.0264.0967-.0811.1689-.165.2178-.2773.1602-.6914.3975-1.2402.7139-.0869.0498-.1777.0615-.2725.0342-.0957-.0234-.168-.0781-.2188-.166-.0781-.1367-.1973-.3418-.3555-.6172.1377-.0801.3438-.1982.6182-.3564.0391.0674.0977.1709.1797.3115.1396-.0801.3467-.2002.6211-.3584-.0801-.1406-.1992-.3477-.3574-.6221-.208.1191-.5176.2979-.9297.5352-.0869.0508-.1768.0625-.2695.0371-.0967-.0254-.1699-.082-.2207-.1699-.0791-.1367-.1777-.3086-.2979-.5156-.1191-.209-.2578-.4492-.416-.7227-.0488-.0859-.0596-.1758-.0342-.2734.0254-.0918.0811-.1641.168-.2139.2744-.1582.6885-.3955 1.2402-.7139.084-.0488.1738-.0615.2695-.0381.0947.0273.166.084.2148.1689.0801.1396.1992.3467.3574.6211-.1366.079-.3427.1972-.6171.3554z"/><path d="m16.653 26.1023c-.2744.1582-.4805.2764-.6172.3564.7148 1.2402 1.1914 2.0664 1.4287 2.4785-.3115.1797-.5186.2988-.6221.3594-.7139-1.2383-1.1904-2.0664-1.4287-2.4805-.3086.1777-.5146.2969-.6182.3564-.0889-.1543-.1631-.2832-.2227-.3867s-.1045-.1807-.1338-.2314c.9307-.5361 1.5498-.8926 1.8584-1.0703.1583.2754.2775.4805.3556.6182z"/><path d="m22.6755 22.2205c.3574.6211.8936 1.5527 1.6074 2.791-.1377.0781-.3438.1973-.6182.3555-.3184-.5518-.7939-1.3779-1.4287-2.4795-.1377.0791-.3447.1982-.6221.3584.3184.5508.7949 1.3789 1.4287 2.4785-.1377.0801-.3428.1982-.6182.3564-.3174-.5518-.7939-1.3779-1.4287-2.4795-.1367.0791-.3447.1992-.6221.3584.3184.5518.7949 1.3789 1.4287 2.4795-.1377.0791-.3428.1973-.6182.3555-.1338-.2324-.3359-.582-.6055-1.0508-.1113-.1914-.25-.4336-.416-.7227-.168-.291-.3633-.6289-.5859-1.0156-.0488-.0859-.0596-.1768-.0332-.2734.0244-.0928.0801-.1641.167-.2139.2051-.1182.5146-.2959.9297-.5352.0869-.0498.1768-.0625.2686-.0381.0977.0264.1709.082.2197.166-.0488-.084-.0615-.1748-.0381-.2695.0273-.0947.084-.166.168-.2148.207-.1191.5176-.2979.9326-.5371.084-.0479.1748-.0605.2695-.0371.0948.0273.1661.084.215.168z"/><path d="m24.0944 21.8171c.1582.2744.2773.4824.3584.6221.415-.2383.7256-.418.9326-.5371.1582.2734.2773.4805.3564.6172-.415.2393-.7256.418-.9336.5381.1582.2744.2773.4814.3584.6221.5527-.3184.9658-.5566 1.2402-.7148.1582.2754.2773.4805.3564.6172-.5498.3164-.9629.5547-1.2402.7148-.2744.1582-.4814.2773-.6182.3555-.1582-.2734-.2773-.4805-.3555-.6172-.082-.1406-.1514-.2617-.2109-.3652-.0605-.1035-.1094-.1895-.1484-.2559-.1787-.3125-.2969-.5176-.3555-.6191-.1797-.3105-.2988-.5176-.3584-.6211-.1768-.3086-.2959-.5156-.3564-.6191.3115-.1787.5176-.2969.6182-.3555.6221-.3584 1.0361-.5957 1.2402-.7148.1777.3086.2969.5156.3564.6191-.5497.3163-.9628.5546-1.2401.7137z"/><path d="m27.6354 19.364c.3184.5518.7949 1.3779 1.4277 2.4795.0508.0869.0635.1758.0381.2695-.0254.0977-.0811.1699-.165.2178-.207.1191-.5186.2988-.9336.5371-.0664.0391-.1689.0986-.3066.1768-.0703.041-.1738.1006-.3105.1797-.1992-.3438-.4473-.7744-.7441-1.29-.2959-.5156-.6436-1.1182-1.041-1.8076.1211-.0693.3018-.1738.543-.3125.0166-.0098.041-.0244.0752-.0439.207-.1191.5186-.2979.9326-.5371.084-.0479.1748-.0615.2695-.0381.0946.0272.1659.0838.2147.1688zm.0117 2.8867c.1396-.0811.3477-.2002.6221-.3584-.0166-.0273-.04-.0684-.0703-.1211-.2227-.3867-.5576-.9668-1.0029-1.7402-.1367.0781-.3438.1982-.6211.3574.1191.207.2969.5166.5352.9287.1191.2071.2988.5186.537.9336z"/><path d="m28.0133 18.7361c.1035-.0586.3096-.1777.6182-.3555.2227.3867.6699 1.1621 1.3389 2.3242.0742.1289.2227.3867.4463.7734-.1016.0586-.3076.1768-.6182.3555-.1992-.3438-.4473-.7734-.7441-1.2891-.2959-.5156-.6436-1.1191-1.0411-1.8085z"/><path d="m32.8962 20.0505c-.1377.0781-.3428.1973-.6182.3555-.1582-.2744-.3965-.6875-.7139-1.2393-.1377.0791-.3447.1982-.6221.3584.1582.2744.3965.6875.7139 1.2393-.1377.0791-.3428.1982-.6182.3564-.1338-.2324-.3359-.584-.6055-1.0508-.1113-.1934-.25-.4336-.416-.7227-.168-.293-.3633-.6309-.5859-1.0176-.0488-.084-.0596-.1758-.0332-.2725.0244-.0928.0801-.1641.167-.2139.2744-.1582.6885-.3965 1.2402-.7148.084-.0479.1748-.0605.2695-.0371.0947.0273.166.084.2148.168.3585.6212.8937 1.5529 1.6076 2.7911zm-1.6885-1.5019c-.0137-.0254-.0352-.0615-.0625-.1094-.0664-.1152-.165-.2861-.2959-.5127-.1367.0791-.3447.1982-.6221.3584.0791.1367.1982.3438.3584.6221.1397-.0811.3477-.2002.6221-.3584z"/><path d="m36.0719 14.0955c.3164.5488.5547.9619.7148 1.2402.1582.2744.2764.4805.3555.6182.3184.5518.5557.9648.7148 1.2393-.2754.1582-.4814.2773-.6182.3555-.3184-.5508-.5566-.9648-.7148-1.2383-.2744.1582-.4814.2773-.6221.3574.3184.5527.5557.9648.7148 1.2402-.2744.1582-.4814.2764-.6182.3555-.1777-.3076-.3262-.5654-.4453-.7734-.1191-.207-.209-.3623-.2695-.4658-.1787-.3115-.2969-.5176-.3555-.6182-.3584-.6221-.5957-1.0352-.7148-1.2402.3115-.1797.5176-.2979.6182-.3555.3574.6191.5947 1.0313.7148 1.2402.3105-.1797.5186-.2988.6221-.3594-.3584-.6211-.5967-1.0352-.7148-1.2402.2755-.1583.4805-.2764.6182-.3555z"/><path d="m37.6686 13.9998c.1582.2734.2773.4824.3574.6211.415-.2383.7266-.418.9336-.5371.1582.2744.2773.4805.3564.6182-.415.2393-.7256.4189-.9336.5381.1582.2734.2773.4805.3584.6211.5518-.3174.9648-.5557 1.2402-.7139.1582.2744.2773.4805.3555.6172-.5488.3164-.9629.5547-1.2402.7139-.2734.1582-.4805.2773-.6172.3564-.1592-.2744-.2773-.4805-.3564-.6172-.0811-.1406-.1504-.2627-.21-.3652-.0605-.1045-.1094-.1904-.1484-.2568-.1787-.3115-.2979-.5176-.3555-.6182-.1797-.3115-.2988-.5186-.3584-.6221-.1777-.3086-.2969-.5146-.3564-.6182.3115-.1787.5176-.2979.6182-.3564.6221-.3574 1.0352-.5957 1.2402-.7139.1777.3076.2959.5146.3564.6182-.5497.3163-.9628.5546-1.2402.7148z"/><path d="m42.8171 14.3357c-.1367.0801-.3438.1982-.6172.3564-.1592-.2744-.3965-.6875-.7148-1.2393-.1377.0791-.3447.1992-.6221.3584.1582.2744.3965.6875.7139 1.2393-.1367.0791-.3428.1973-.6172.3555-.1348-.2324-.3359-.582-.6055-1.0508-.1113-.1914-.25-.4336-.416-.7227-.1689-.291-.3633-.6289-.5859-1.0156-.0488-.0859-.0605-.1768-.0342-.2734.0244-.0928.0811-.1641.167-.2139.2754-.1582.6885-.3965 1.2402-.7139.084-.0488.1738-.0615.2695-.0381.0947.0273.166.083.2148.1689.3584.6212.8936 1.5509 1.6075 2.7892zm-1.6875-1.501c-.0146-.0254-.0352-.0615-.0635-.1094-.0664-.1152-.165-.2861-.2959-.5127-.1367.0791-.3447.1992-.6221.3584.0791.1367.1982.3438.3584.6221.1406-.0801.3477-.2002.6231-.3584z"/><path d="m43.6901 10.1179c.3174.5518.7939 1.3779 1.4277 2.4795.0498.0869.0625.1758.0381.2695-.0264.0977-.0811.1699-.165.2178-.208.1191-.5195.2988-.9336.5371-.0674.0391-.1699.0986-.3066.1768-.0703.041-.1738.1006-.3115.1797-.1982-.3438-.4463-.7744-.7432-1.29s-.6445-1.1182-1.041-1.8076c.1201-.0693.3008-.1738.542-.3125.0166-.0098.042-.0244.0752-.0439.208-.1191.5186-.2979.9336-.5371.084-.0479.1738-.0615.2695-.0381.0947.0272.166.0839.2148.1688zm.0117 2.8867c.1396-.0801.3467-.2002.6211-.3584-.0156-.0273-.0391-.0684-.0703-.1211-.2227-.3867-.5566-.9668-1.002-1.7402-.1367.0781-.3447.1982-.6221.3574.1201.207.2979.5166.5352.9287.1202.2071.2989.5186.5381.9336z"/><path d="m47.3542 10.9011c.1582.2744.2773.4805.3564.6172-.6201.3564-1.0332.5947-1.2402.7139-.2295.1328-.3838.2207-.4629.2666-.0781.0449-.1299.0752-.1553.0889-.4473-.7754-.8193-1.4219-1.1162-1.9375s-.5195-.9024-.6689-1.1602c.3115-.1787.5176-.2969.6191-.3555.7129 1.2393 1.1895 2.0654 1.4277 2.4805.5528-.3184.9659-.5557 1.2403-.7139z"/><path d="m46.5475 8.0623c.1035-.0596.3105-.1787.6182-.3555.2236.3867.6689 1.1621 1.3389 2.3242.0742.1289.2227.3867.4453.7734-.1006.0576-.3066.1758-.6172.3555-.1992-.3438-.4473-.7744-.7441-1.29-.296-.5157-.6436-1.1182-1.0411-1.8076z"/><path d="m49.8229 6.5857c.3584.6211.8945 1.5518 1.6074 2.79-.1367.0791-.3428.1973-.6172.3555-.3184-.5518-.7939-1.3779-1.4287-2.4795-.1377.0791-.3447.1992-.6221.3584.3184.5518.7939 1.3789 1.4277 2.4795-.1367.0791-.3428.1973-.6172.3555-.1992-.3438-.4473-.7734-.7441-1.2891-.2959-.5156-.6436-1.1191-1.041-1.8086.1377-.0781.3438-.1973.6182-.3555.207-.1191.5186-.2988.9326-.5371.085-.0488.1748-.0615.2695-.0381.0948.0274.1661.084.2149.169z"/><path d="m51.2419 6.1814c.1582.2754.2783.4824.3584.623.415-.2393.7266-.418.9336-.5381.1582.2744.2764.4805.3555.6182-.4141.2393-.7256.418-.9326.5371.1582.2754.2773.4824.3584.623.5518-.3184.9648-.5566 1.2402-.7148.1572.2744.2764.4805.3555.6172-.5488.3164-.9629.5547-1.2402.7148-.2744.1582-.4805.2764-.6172.3555-.1592-.2744-.2773-.4805-.3564-.6172-.0811-.1406-.1514-.2627-.21-.3652-.0605-.1045-.1094-.1904-.1484-.2568-.1797-.3115-.2979-.5176-.3555-.6182-.1797-.3115-.2988-.5186-.3594-.6221-.1768-.3086-.2959-.5146-.3555-.6182.3105-.1797.5166-.2979.6182-.3555.6221-.3594 1.0352-.5967 1.2402-.7148.1777.3076.2959.5146.3555.6182-.5499.3164-.963.5547-1.2403.7139z"/></g><path d="m93.1556 97.9014.9453 2.2266-.7988.458-.6348-2.4063z"/><g enable-background="new"><path d="m96.056 96.8575c.6152 1.0752 1.5371 2.6846 2.7637 4.8271-.2383.1348-.5938.3398-1.0693.6113-.5459-.9551-1.3652-2.3848-2.4561-4.2891-.1211.0693-.3008.1719-.5371.3076-.0664-.1162-.1514-.2637-.2539-.4434-.1025-.1787-.2227-.3867-.3584-.625.2373-.1357.5938-.3398 1.0684-.6123.1504-.0859.3076-.1084.4736-.0664.1621.047.2851.1447.3691.2902z"/><path d="m100.0443 98.8487c.0664.1172.168.2969.3076.5391.2412-.1387.6006-.3447 1.0752-.6162-.1387-.2422-.3438-.6016-.6152-1.0762-.3594.2061-.8945.5127-1.6074.9199-.1494.0859-.3047.1074-.4648.0645-.168-.0459-.2949-.1436-.3809-.2939-.1357-.2373-.3066-.5361-.5117-.8945s-.4434-.7754-.7158-1.25c-.083-.1455-.1025-.3027-.0566-.4688.0439-.1621.1396-.2842.29-.3701.4746-.2725 1.1895-.6816 2.1445-1.2275.1455-.084.3008-.1055.4658-.0635.1631.0479.2861.1455.3691.29.5459.9551 1.3652 2.3848 2.4561 4.2891.0859.1504.1074.3047.0625.4648-.0449.168-.1406.2939-.2852.377-.4805.2744-1.1953.6836-2.1445 1.2275-.1504.0859-.3066.1045-.4707.0566-.1641-.041-.2891-.1357-.375-.2871-.1367-.2373-.3398-.5928-.6123-1.0684.2372-.1357.5937-.3398 1.0693-.6123zm.1552-2.2217c-.0244-.0439-.0615-.1064-.1084-.1885-.1133-.1992-.2832-.4941-.5078-.8877-.2383.1357-.5957.3418-1.0762.6162.1367.2383.3418.5967.6172 1.0762.2413-.1386.5997-.3437 1.0752-.6162z"/></g></g></svg>