<?xml version="1.0" encoding="utf-8"?>
<!-- Generator: Adobe Illustrator 21.0.2, SVG Export Plug-In . SVG Version: 6.00 Build 0)  -->
<svg version="1.1" id="Layer_1" xmlns="http://www.w3.org/2000/svg" xmlns:xlink="http://www.w3.org/1999/xlink" x="0px" y="0px"
	 viewBox="0 0 111 128.1667" style="enable-background:new 0 0 111 128.1667;" xml:space="preserve">
<style type="text/css">
	.st0{fill:#050932;}
	.st1{fill:#26FFAD;}
	.st2{enable-background:new    ;}
</style>
<g id="Layer_63_13_">
	<g>
		<g>
			<polygon class="st0" points="111.0098,95.9042 55.5841,127.9042 0.1602,95.9042 0.1602,31.9047 55.5841,-0.0953 
				111.0098,31.9047 			"/>
		</g>
	</g>
</g>
<g>
	<g>
		<g>
			<path class="st1" d="M91.9948,48.1l-0.1-0.3h-6.9c-0.1,0.3-0.2,0.5-0.3,0.8h6.6c0.3,1.6,0.9,7.9-6.2,12.7l0.7-2.3
				c0.9-0.5,4.4-2.7,4.5-8.8v-0.4h-5.6v0.8h4.8c-0.3,5.9-3.9,7.6-4.1,7.7l-0.2,0.1l-1,3.1c0.2,0.3,0.3,0.7,0.4,1.1
				C94.0948,56.8,91.9948,48.2,91.9948,48.1z"/>
		</g>
	</g>
</g>
<g>
	<g>
		<g>
			<path class="st1" d="M69.3948,61.7l-1-3.3l-0.2-0.1c0,0-3.8-1.8-4.1-7.7h4.8v-0.8h-5.6v0.4c0.2,6.1,3.7,8.3,4.5,8.8l0.7,2.3
				c-7.1-4.8-6.5-11.2-6.2-12.7h6.5c0-0.2,0-0.4,0-0.6c0-0.1-0.1-0.2-0.1-0.2h-7.2001l-0.1,0.3c0,0.1-2.1,8.8,7.5,14.5
				C69.0948,62.2,69.1948,61.9,69.3948,61.7z"/>
		</g>
	</g>
</g>
<g id="peeking_15_">
	<g>
		<g>
			<g>
				<path class="st1" d="M60.2948,54.3c-0.7-0.1-1.2-0.4-1.5-0.7c-0.1,0.6-0.1,1.2-0.2,1.8C59.5948,55.5,60.0948,54.7,60.2948,54.3
					 M18.5948,53.3h0.3c3.9,0.6,4.9-1.1,5.1-1.4l-1.2-4.8l0.2-0.1c1.9-1.4,4.7-1.6,5.9-1.6l-0.7-1.4l0.3-0.2c2.8-1.8,6-1.6,7.3-1.4
					l-0.5-1.2l0.4-0.1c2.6-0.6,4.7,0,6.3,0.7l-0.1,0.3l0,0l-0.1,0.3c-1.3-0.6-3.2-1.2-5.5-0.8l0.6,1.6l-0.7-0.2c0,0-3.9-0.9-7.1,1
					l1,1.9l-0.6-0.1c0,0-3.6-0.3-5.8,1.3l0.1,0.3l1,4.2v0.1c0,0-0.2,0.6-0.9,1.1c-0.7,0.6-1.9,1.1-3.9,1c-0.3,0-0.6,0-0.9-0.1
					c0,0.2,0,0.6,0.2,1c0,0,0,0.1,0.1,0.1c0,0.1,0.1,0.1,0.1,0.2c0,0,0,0,0,0.1c0.1,0.1,0.1,0.2,0.2,0.3c0,0,0,0,0.1,0.1
					c0.3,0.2,0.6,0.4,1,0.6c0.3,0.1,0.7,0.2,1.2,0.3h0.3l0,0c0.2,0,2.1,0.2,2.5-0.2c0.1-0.1,0.1-0.1,0.1-0.2c0-0.1,0.1-0.2,0.1-0.3
					s0-0.2,0-0.3c0-0.2,0-0.4,0-0.4s0.1,0.2,0.3,0.5c0.1,0.1,0.1,0.2,0.1,0.3s0.1,0.2,0.1,0.3c0,0.2,0,0.5-0.2,0.7
					c-0.4,0.4-1.5,0.4-2.3,0.4c-0.3,0-0.6,0-0.7,0l-0.1,1.4l1.7,0.8l-0.7,1.9l1.9,0.5v2.1l2.2-0.5l0.6,1.9l2.2-0.5l0.8,2.2l1.8-0.4
					l0.9,1.7h1h1.3l2.2,3.5l3.1-0.5l4.2,2.2l0.2-1.5l2.4,1l0.4,0.2l0.4,0.2l0.8,0.3l-0.5-2.7l2.3,0.8l-0.1-4.1l1.5-0.4l1.1-3.3
					l1.7-1.4c0.4-1.3-0.2-2.2-0.2-2.3l-0.3-0.5l1.8-0.2c0.6-2.1,1-4.8,1.2-7c0-0.1-0.1-0.1-0.1-0.1h0.1c0.1-1.4,0.2-2.6,0.2-3.1
					l-1.4-0.2l0.6-2c-0.5-0.2-1-0.4-1.4-0.4c-0.9-0.2-1.6-0.1-1.9,0l-0.6,0.2l0.7-2.3c-0.4-0.2-0.8-0.3-1.2-0.4
					c-2-0.4-3.9,0.3-4,0.3l-0.6,0.2l0.6-2.2c-0.2,0-0.4-0.1-0.7-0.1c-0.1,0-0.3,0-0.4,0v-0.4v-0.4c0.5,0,1.1,0,1.6,0.1l0.4,0.1
					l-0.4,1.6c1.1-0.3,3.4-0.6,5.4,0.4l0.3,0.1l-0.5,1.7c0.7-0.1,2,0,3.5,0.7l0.3,0.1l-0.6,1.8l1.3,0.2v0.3c0,0.1-0.1,1.6-0.3,3.5
					c0.3,0.4,0.8,0.9,1.8,0.9l0,0h0.4l-0.1,0.4c0,0-0.4,2-2.4,1.9c-0.1,0-0.1,0-0.2,0c-0.2,1.5-0.5,3-0.9,4.2l-0.1,0.2l-1.3,0.1
					c0.2,0.5,0.4,1.4,0,2.5v0.1L54.4948,64l-1.1,3.5l-1.4,0.4l0.1,4.5l-2.1-0.7l0.5,2.8l-1.3-0.5l0,0c-0.1,0-0.2-0.1-0.3-0.1
					c-0.2-0.1-0.4-0.2-0.6-0.3l-2.2-0.9l-0.2,1.6l-4.3-2.3l-0.6-0.3l-3.4,0.6l-2.2-3.5h-2.3l-0.8-1.6L30.4948,68l-0.8-2.2l-2.3,0.5
					l-0.6-1.9l-2.4,0.5v-2.4l-2.2-0.5l0.8-2l-1.5-0.7l0.1-1.4v-0.6c-1.2-0.2-2.1-0.7-2.6-1.4l-0.1-0.1l0,0c-0.1-0.2-0.2-0.4-0.3-0.6
					l0,0v-0.1l0,0c-0.2-0.7-0.1-1.4-0.1-1.4L18.5948,53.3z"/>
			</g>
			<g>
				<path class="st1" d="M36.6948,52.1L36.6948,52.1c0.1,0.4,0.2,0.9,0.2,1.4s-0.1,1-0.2,1.3l0,0l0,0c0,0,0,0,0,0.1
					c0,0.2,0.2,0.4,0.4,0.4c0,0,0,0,0.1,0c0.2,0,0.4-0.1,0.5-0.2l0,0c0.2-0.4,0.3-1,0.4-1.6c0-0.6-0.1-1.2-0.3-1.6l0,0
					c-0.1-0.1-0.2-0.2-0.4-0.2C36.8948,51.6,36.6948,51.8,36.6948,52.1C36.6948,52,36.6948,52.1,36.6948,52.1"/>
			</g>
			<g>
				<path class="st1" d="M52.9948,53C52.9948,53,52.9948,53.1,52.9948,53c0.1,0.4,0.2,0.8,0.2,1.2s-0.1,0.9-0.2,1.2c0,0,0,0,0,0.1
					c0,0,0,0,0,0.1c0,0.2,0.2,0.4,0.4,0.4h0.1c0.1,0,0.2-0.1,0.3-0.2l0,0v-0.1c0.2-0.3,0.3-0.8,0.3-1.3c0-0.6-0.1-1.1-0.2-1.4l0,0
					c-0.1-0.1-0.2-0.2-0.4-0.2C53.1948,52.6,52.9948,52.8,52.9948,53L52.9948,53"/>
			</g>
			<g>
				<path class="st1" d="M37.5948,67.7c1.3,0.6,3,0.8,4.2,1c0.6,0.1,1.1,0.1,1.6,0.1c0.9,0,1.6,0,2.1,0c0.2,0,0.4,0,0.7-0.1
					c0.1,0,0.2,0,0.3-0.1c0.1,0,0.2,0,0.3-0.1c1.5-0.3,3.4-0.9,4.3-1.4c0.2-0.1,0.5-0.3,0.6-0.6c0-0.3-0.2-0.5-0.5-0.8
					s-0.7-0.6-0.7-1.2c0-0.8,0.1-1.2,0.1-1.5c0.1,0,0.2-0.1,0.3-0.1c0.2,0,0.4-0.1,0.7-0.2c1.1-0.5,1.8-1.4,1.5-2.1
					c-0.2-0.4-0.6-0.6-1.1-0.6h-0.1c-0.4,0-0.9,0.1-1.3,0.3c-0.6,0.3-1.1,0.7-1.3,1.1c0,0-1,1.2-3.8-1c-0.5-0.6-1.2-1.1-2.2-1.4
					c-1.8-0.6-3.6-0.1-3.9,1c-0.2,0.7,0.1,1.4,0.8,2c-0.2-0.1-0.4-0.1-0.6-0.2c-0.8-0.3-1.5-0.3-2.2-0.2c-0.2,0-0.3,0.1-0.5,0.1
					c-0.1,0-0.3,0.1-0.4,0.1c0,0-0.1,0-0.1,0.1c-0.5,0.3-0.9,0.7-1.1,1.2C34.4948,65.2,35.3948,66.7,37.5948,67.7z M51.2948,61.4
					c0.3-0.3,0.7-0.5,0.8-0.4c0.2,0.1,0,0.5-0.3,0.8c-0.1,0.1-0.2,0.2-0.3,0.3c-0.2,0.1-0.4,0.2-0.5,0.1l0,0
					C50.8948,62.1,50.9948,61.7,51.2948,61.4z M42.2948,62.1c-0.3,0.2-0.9,0-1.4-0.6s-0.7-1.2-0.5-1.5c0.3-0.2,0.9,0,1.4,0.6
					C42.2948,61.2,42.4948,61.9,42.2948,62.1z M42.8948,63.3c0,0.1-0.1,0.2-0.2,0.3c-0.1,0.1-0.3,0.1-0.5,0.1l-1.8-0.4l-1.2-0.3
					h-0.1l0,0c-0.1,0-0.2-0.1-0.3-0.2l-0.1-0.1c-0.1-0.1-0.1-0.2-0.1-0.3v-0.1c0,0,0,0,0.1,0l0.3,0.1c0.1,0,0.2,0,0.2,0.1
					c0.1,0,0.1,0,0.2,0.1C40.4948,62.9,41.6948,63.1,42.8948,63.3z M49.0948,63.3c0,0.3-0.2,0.5-0.4,0.5l-1.4,0.1h-0.4
					c-0.1,0-0.2,0-0.3-0.1s-0.1-0.2-0.1-0.3c0.2,0,0.5,0,0.7,0c0.1,0,0.1,0,0.2,0C47.9948,63.5,48.5948,63.4,49.0948,63.3z
					 M37.9948,67.3c0.5-0.9,2.6-1.7,5-1.7c0.2,0,0.4,0,0.5,0l0,0c0.3,0,0.6,0,0.8,0.1c0.3,0,0.7,0.1,1,0.2c1.6,0.3,2.9,0.9,3.4,1.6
					c-0.8,0.2-1.6,0.5-2.2,0.6c-0.1,0-0.2,0-0.3,0.1c-0.1,0-0.2,0-0.3,0.1c-0.2,0-0.3,0-0.5,0.1c-1.2,0.1-4,0-6.2-0.5
					C38.7948,67.5,38.3948,67.4,37.9948,67.3z M35.6948,63.3c0.1-0.4,0.4-0.6,0.7-0.8c0.2-0.1,0.4-0.2,0.6-0.2
					c0.2,0,0.4-0.1,0.5-0.1c0.2,0,0.3,0,0.5,0c0,0.1,0,0.2,0,0.3s0.1,0.3,0.1,0.4l0,0c0.2,0.2,0.4,0.4,0.7,0.4l0.5,0.1l1.3,0.3
					l1.3,0.3h0.1c0.1,0,0.1,0,0.2,0c0.2,0,0.4,0,0.6-0.1c0.2-0.1,0.4-0.4,0.5-0.6c0.6,0.1,1.3,0.1,1.9,0.2c0.1,0,0.2,0,0.3,0
					c0.2,0,0.4,0,0.6,0c0,0.2,0.1,0.4,0.3,0.6c0.2,0.2,0.3,0.3,0.6,0.3h0.1l1.8-0.1c0.5,0,0.8-0.5,0.8-1c0.1,0,0.2,0,0.4-0.1
					c0,0.3-0.1,0.7-0.1,1.3c0,0.9,0.5,1.4,0.9,1.7c0.1,0.1,0.2,0.2,0.3,0.3c0,0-0.1,0.1-0.2,0.2c-0.4,0.2-0.9,0.4-1.6,0.7
					c-0.6-1-2.6-1.8-5-2.1h-0.1c-0.2,0-0.3,0-0.5,0c-0.1,0-0.1,0-0.2,0c-0.2,0-0.5,0-0.7,0c-2.4,0.1-4.5,0.8-5.1,1.9
					C35.7948,66.2,35.1948,65,35.6948,63.3z"/>
			</g>
		</g>
		<g>
			<polygon class="st1" points="46.9948,25 46.9948,25 46.8948,25 			"/>
		</g>
		<g>
			<g>
				<path class="st1" d="M46.0948,31.1c-0.1,0-0.3,0.1-0.3,0.2C45.8948,31.1,45.9948,31.1,46.0948,31.1"/>
			</g>
			<g>
				<path class="st1" d="M43.4948,41.5c-0.2,0-0.4,0-0.6,0C43.0948,41.5,43.2948,41.5,43.4948,41.5 M42.7948,41.5L42.7948,41.5
					L42.7948,41.5 M42.8948,41.5L42.8948,41.5L42.8948,41.5"/>
			</g>
			<g>
				<path class="st1" d="M42.2948,45.2c0.1,0,0.1,0,0.2,0v0.1C42.3948,45.3,42.3948,45.2,42.2948,45.2"/>
			</g>
			<g>
				<path class="st1" d="M48.0948,26.1l-1.3,0.6l0.1-1.3L48.0948,26.1z M48.0948,25.6c-0.4-0.2-0.7-0.4-1.1-0.6
					c0-0.5,0.1-0.9,0.1-1.4 M46.9948,25L46.9948,25L46.9948,25L46.9948,25z M45.2948,25.8l1.2-0.4l-0.1,1.2L45.2948,25.8z
					 M46.6948,23.5c0,0.4-0.1,0.9-0.1,1.3c-0.3,0.1-0.6,0.2-0.9,0.3l-0.3,0.1L46.6948,23.5 M48.6948,26.3c0.1,0,0.1-0.1,0.1-0.1
					c0-0.1,0-0.1,0-0.2l-0.3-0.7c-0.4-0.8-0.8-1.7-1.2-2.5c0,0,0-0.1-0.1-0.1l0,0h-0.1l0,0c-0.1,0-0.1,0.1-0.2,0.1
					c-0.7,0.9-1.4,1.9-2.1,2.9c0,0.1-0.1,0.1,0,0.2c0,0.1,0.1,0.1,0.1,0.1l1.3,1c0.1,0.1,0.2,0.2,0.4,0.3c0,0,0.1,0,0.1,0.1l0,0h0.1
					c0.5-0.2,1-0.5,1.5-0.7L48.6948,26.3"/>
			</g>
			<g>
				<path class="st1" d="M46.6948,28c0.3-0.1,0.6-0.3,1-0.4l-1,1.2C46.6948,28.5,46.6948,28.2,46.6948,28 M45.3948,27.3
					c0.3,0.2,0.6,0.4,0.9,0.6l-0.1,0.7L45.3948,27.3z M44.8948,26.4c0,0-0.1-0.1-0.2-0.1c-0.1,0-0.1,0-0.2,0.1c0,0.1,0,0.1,0,0.2
					c0,0.1,0.1,0.1,0.1,0.2l0.3,0.5c0.4,0.7,0.8,1.4,1.2,2.1l0.1,0.1l0,0h0.1l0,0c0.1,0,0.1-0.1,0.1-0.1c0.7-0.8,1.4-1.6,2.1-2.4
					c0,0,0.1-0.1,0.1-0.2c0-0.1,0-0.1-0.1-0.2c-0.1,0-0.1,0-0.2,0c-0.1,0-0.1,0.1-0.2,0.1l-0.3,0.1c-0.5,0.2-0.9,0.4-1.4,0.6
					c-0.3-0.3-0.7-0.5-1-0.8L44.8948,26.4"/>
			</g>
			<g>
				<path class="st1" d="M42.4948,26.3c-0.1,0-0.2-0.1-0.2-0.2c0-0.1,0.1-0.2,0.2-0.2c0.1,0,0.2,0.1,0.2,0.2
					C42.7948,26.2,42.6948,26.3,42.4948,26.3"/>
			</g>
			<g>
				<path class="st1" d="M48.8948,31.4c-0.1,0-0.2-0.1-0.2-0.2c0-0.1,0.1-0.2,0.2-0.2c0.1,0,0.2,0.1,0.2,0.2
					C49.0948,31.3,48.9948,31.4,48.8948,31.4"/>
			</g>
			<g>
				<path class="st1" d="M47.3948,42.4v0.1c0,0.1-0.1,0.1-0.2,0.2c-0.5,0.6-2,1.9-4.5,1.8c-0.3,0-0.5,0-0.8-0.1c0-0.1,0-0.1,0-0.1
					l0.4-1.5l0.1-0.3l0.1-0.4V42c0.1,0,0.2,0,0.3,0c0.2,0,0.3,0,0.5,0c1.9,0,3.2-0.8,3.9-1.5l0.1,1.4L47.3948,42.4z M44.0948,39
					c1.2-0.2,2.2-0.6,2.9-1.1l0.2,2c-0.5,0.6-1.7,1.5-3.7,1.6c-0.2,0-0.5,0-0.7,0l0.7-2.5C43.6948,39,43.8948,39,44.0948,39
					 M44.9948,35.8c0.6-0.2,1.3-0.4,1.8-0.8l0.2,2.1c-0.6,0.5-1.4,1-2.6,1.2c-0.2,0-0.4,0.1-0.6,0.1l0.8-2.5
					C44.5948,35.9,44.7948,35.8,44.9948,35.8 M45.7948,32.5c0.2-0.1,0.5-0.2,0.7-0.3l0.2,2.2c-0.5,0.3-1,0.6-1.6,0.8
					c-0.2,0-0.3,0.1-0.5,0.1l0.8-2.6C45.5948,32.6,45.6948,32.5,45.7948,32.5 M46.4948,31.5c-0.1,0.1-0.3,0.2-0.5,0.2
					c-0.1,0.1-0.2,0.1-0.4,0.2l0.2-0.6c0.1-0.2,0.2-0.2,0.3-0.2l0,0c0.1,0,0.3,0.1,0.3,0.3L46.4948,31.5z M44.5948,45.8
					c-1.1,0-1.7-0.3-2.1-0.5c-0.1,0-0.1-0.1-0.2-0.1c0.1,0,0.1,0,0.2,0c0.1,0,0.1,0,0.2,0c2.5,0.1,4-1.1,4.7-1.8l0.1,1.6
					C47.5948,45.1,47.1948,45.9,44.5948,45.8L44.5948,45.8z M41.2948,44.3c0,0.1-0.1,0.6,0.4,1.1c0.5,0.6,1.5,1,2.9,1l0,0
					c3.4,0.1,3.6-1.2,3.6-1.4l0,0l0,0l-0.2-2.3v-0.4v-0.4l-0.9-10.7c0-0.5-0.4-0.8-0.8-0.9c-0.5,0-0.9,0.2-1,0.7l-3.2,10.8l-0.1,0.3
					l0,0l-0.1,0.3l-0.3,0.8L41.2948,44.3L41.2948,44.3z"/>
			</g>
			<g>
				<path class="st1" d="M50.0948,29c0.1-0.1,0.2-0.1,0.2,0l0.2,0.2l0.2-0.2c0.1-0.1,0.2-0.1,0.2,0c0.1,0.1,0.1,0.2,0,0.2l-0.2,0.2
					l0.2,0.2c0.1,0.1,0.1,0.2,0,0.2h-0.1c0,0-0.1,0-0.1-0.1l-0.2-0.2l-0.2,0.2h-0.1c0,0-0.1,0-0.1-0.1c-0.1-0.1-0.1-0.2,0-0.2
					l0.2-0.2L50.0948,29C49.9948,29.1,49.9948,29,50.0948,29"/>
			</g>
			<g>
				<path class="st1" d="M41.7948,23l-0.2-0.2c-0.1-0.1-0.1-0.2,0-0.2c0.1-0.1,0.2-0.1,0.2,0l0.2,0.2l0.2-0.2c0.1-0.1,0.2-0.1,0.2,0
					c0.1,0.1,0.1,0.2,0,0.2l-0.2,0.2l0.2,0.2c0.1,0.1,0.1,0.2,0,0.2c0,0-0.1,0.1-0.1,0c0,0-0.1,0-0.1-0.1l-0.2-0.2l-0.2,0.2
					c0,0-0.1,0.1-0.1,0c0,0-0.1,0-0.1-0.1c-0.1-0.1-0.1-0.2,0-0.2L41.7948,23z"/>
			</g>
			<g>
				<path class="st1" d="M43.9948,29.1c0.1,0.1,0.1,0.2,0,0.2l-0.2,0.2l0.2,0.2c0.1,0.1,0.1,0.2,0,0.2c0,0-0.1,0.1-0.1,0
					c0,0-0.1,0-0.1-0.1l-0.2-0.2l-0.2,0.2c0,0-0.1,0.1-0.1,0c0,0-0.1,0-0.1-0.1c-0.1-0.1-0.1-0.2,0-0.2l0.2-0.2l-0.2-0.2
					c-0.1-0.1-0.1-0.2,0-0.2c0.1-0.1,0.2-0.1,0.2,0l0.2,0.2l0.2-0.2C43.7948,29.1,43.9948,29.1,43.9948,29.1"/>
			</g>
			<g>
				<path class="st1" d="M44.1948,23.1c-0.1,0-0.2-0.1-0.2-0.2c0-0.1,0.1-0.2,0.2-0.2c0.1,0,0.2,0.1,0.2,0.2
					S44.2948,23.1,44.1948,23.1"/>
			</g>
			<g>
				<path class="st1" d="M50.2948,26.2c0.1,0,0.2,0.1,0.2,0.2c0,0.1-0.1,0.2-0.2,0.2c-0.1,0-0.2-0.1-0.2-0.2
					C50.0948,26.2,50.1948,26.1,50.2948,26.2"/>
			</g>
			<g>
				<path class="st1" d="M19.1948,54.1L19.1948,54.1c0.2,0,0.3,0,0.4,0C19.4948,54.2,19.2948,54.1,19.1948,54.1 M19.1948,54.5
					c0,0.2,0.1,0.4,0.2,0.6l0,0l0,0C19.2948,54.9,19.1948,54.7,19.1948,54.5"/>
			</g>
			<g>
				<path class="st1" d="M22.2948,58.8L22.2948,58.8l0.1-1.4l0,0L22.2948,58.8z M23.8948,59.6L23.8948,59.6L23.8948,59.6
					L23.8948,59.6z M23.1948,61.5l1.3,0.3L23.1948,61.5L23.1948,61.5L23.1948,61.5z M25.1948,64L25.1948,64v-2V64z M26.4948,63.7
					l0.8-0.2l0.1,0.5l-0.1-0.5L26.4948,63.7z M27.8948,65.4h0.2H27.8948z M34.5948,68.4h-1H34.5948L34.5948,68.4L34.5948,68.4z"/>
			</g>
			<g>
				<path class="st1" d="M19.8948,55.8l1,0.6c-0.1-0.1-0.3-0.1-0.4-0.2c-0.1,0-0.1-0.1-0.2-0.1
					C20.1948,56,19.9948,55.9,19.8948,55.8"/>
			</g>
			<g>
				<path class="st1" d="M20.2948,56.1c0,0,0.1,0.1,0.2,0.1C20.3948,56.1,20.3948,56.1,20.2948,56.1"/>
			</g>
			<g>
				<path class="st1" d="M36.5948,54.9L36.5948,54.9L36.5948,54.9C36.5948,54.9,36.5948,55,36.5948,54.9
					C36.5948,55,36.5948,54.9,36.5948,54.9L36.5948,54.9L36.5948,54.9 M36.6948,55.2c0.1,0.1,0.2,0.1,0.3,0.2l0,0
					C36.8948,55.4,36.7948,55.3,36.6948,55.2"/>
			</g>
			<g>
				<path class="st1" d="M53.7948,55.6C53.7948,55.7,53.6948,55.7,53.7948,55.6c0,0.1,0,0.1-0.1,0.1c0,0,0,0-0.1,0.1
					c0,0,0,0,0.1-0.1C53.6948,55.7,53.6948,55.7,53.7948,55.6C53.6948,55.7,53.7948,55.7,53.7948,55.6L53.7948,55.6 M53.5948,55.8
					c-0.1,0-0.1,0.1-0.2,0.1l0,0C53.4948,55.9,53.5948,55.9,53.5948,55.8L53.5948,55.8"/>
			</g>
			<g>
				<path class="st1" d="M38.2948,41.7c1.2,0.1,2.3,0.4,3.2,0.8C40.5948,42.1,39.4948,41.8,38.2948,41.7 M36.8948,43.5L36.8948,43.5
					l-0.4-1.1L36.8948,43.5z M29.0948,44.3l1,1.9h-0.3h0.3L29.0948,44.3L29.0948,44.3 M23.6948,47.8L23.6948,47.8L23.6948,47.8
					L23.6948,47.8L23.6948,47.8z"/>
			</g>
			<g>
				<path class="st1" d="M48.4948,42.7C48.4948,42.7,48.3948,42.7,48.4948,42.7L48.4948,42.7
					C48.3948,42.7,48.4948,42.7,48.4948,42.7L48.4948,42.7 M48.9948,42.7L48.9948,42.7l-0.5,2.2l0,0L48.9948,42.7L48.9948,42.7"/>
			</g>
			<g>
				<path class="st1" d="M56.1948,46.9c0.2,0,0.3,0.1,0.5,0.1C56.4948,47,56.3948,46.9,56.1948,46.9 M57.5948,47.3l-0.5,1.5
					L57.5948,47.3L57.5948,47.3"/>
			</g>
			<g>
				<path class="st1" d="M53.0948,44.4L53.0948,44.4c0.1,0,0.2,0,0.4,0.1C53.2948,44.4,53.1948,44.4,53.0948,44.4 M53.8948,44.6
					c0.1,0,0.3,0.1,0.4,0.2l0,0C54.1948,44.7,54.0948,44.7,53.8948,44.6 M53.5948,47L53.5948,47l0.4-1.1L53.5948,47z"/>
			</g>
			<g>
				<path class="st1" d="M50.5948,48.8c0.1,0,0.1,0,0.2,0.1c2,3.5,1.2,11.1,1.1,11.2h-0.1c-0.4,0-0.9,0.1-1.3,0.3
					c1.3-5.7,0.5-9.5,0-11.3C50.3948,48.9,50.4948,48.8,50.5948,48.8"/>
			</g>
			<g>
				<path class="st1" d="M51.7948,60.1L51.7948,60.1L51.7948,60.1C51.8948,60.1,51.8948,60.1,51.7948,60.1c-0.4,0-0.9,0.1-1.3,0.3
					l0,0C50.9948,60.1,51.3948,60.1,51.7948,60.1"/>
			</g>
			<g>
				<path class="st1" d="M58.7948,53.6L58.7948,53.6c0.1,0.1,0.3,0.2,0.4,0.3C58.9948,53.8,58.8948,53.7,58.7948,53.6 M60.2948,54.3
					c-0.1,0.2-0.2,0.4-0.3,0.6C60.0948,54.6,60.1948,54.4,60.2948,54.3L60.2948,54.3 M58.5948,55.2c0,0.1,0,0.1,0,0.2l0,0
					C58.5948,55.3,58.5948,55.2,58.5948,55.2L58.5948,55.2"/>
			</g>
		</g>
	</g>
</g>
<g>
	<g>
		<g>
			<g>
				<path class="st1" d="M8.6948,36v53.8l46.8,27l46.8-27V35.9l-26.3-15.2l-1-0.6l-2.4-1.4l-0.3-0.2l-2.6-1.5l-0.3-0.2l-2.5-1.4
					l-1-0.6l-10.4-6l-13.4,7.8l-1,0.6l-2.3,1.3l-0.3,0.2l-1.9,1.1l-0.3,0.2l-2.1,1.2l-1,0.6L8.6948,36z M10.5948,88.8V37.1
					l23.2-13.4l1-0.6l2.1-1.2l0.3-0.2l1.9-1.1l0.3-0.2l2.3-1.3l1-0.6l12.6-7.3l9.6,5.5l1,0.6l2.5,1.4l0.3,0.2l2.6,1.5l0.3,0.2
					l2.4,1.4l1,0.5l25.4,14.6v51.7l-44.8999,25.9L10.5948,88.8L10.5948,88.8z"/>
			</g>
		</g>
	</g>
</g>
<g>
	<g>
		<g>
			<path class="st1" d="M74.7948,63.7h3.8v5.7h-3.8V63.7z M77.7948,64.5h-2v3.9h2V64.5z"/>
		</g>
	</g>
</g>
<g>
	<g>
		<g>
			<path class="st1" d="M70.2948,72l0.1-3.5h12.9V72H70.2948L70.2948,72z M82.2948,69.5h-11.1v1.7h11.1V69.5z"/>
		</g>
	</g>
</g>
<g>
	<g>
		<g>
			<path class="st1" d="M68.6948,75.2v-4h16.2v4H68.6948L68.6948,75.2z M83.8948,72.1h-14.4v2.2h14.4V72.1z"/>
		</g>
	</g>
</g>
<g>
	<g>
		<g>
			<path class="st1" d="M51.0948,79.1c0,0.2-0.2,0.6,0.1,0.6l9.1,0.5l0,0c0,0,0.2-0.1,0.3-0.1l9.8-4.7c0.2-0.1,0.3-0.2,0.2-0.4
				c0-0.2-0.2-0.3-0.4-0.3h-1.9l0.7-1.3c0.1-0.1,0-0.3-0.1-0.4c-0.1-0.1-0.3-0.2-0.4-0.1l-7.7,2.5l-8.9-4.3h-0.1
				c-0.1,0.2-0.2,0.5-0.3,0.7l0,0l9.1,4.4c0.1,0,0.3,0,0.4,0l6.8-2.1l-0.5,0.9c-0.1,0.1-0.1,0.3,0,0.4c0.1,0.1,0.2,0.2,0.4,0.2h1.2
				l-8.5,3.9l-8.8-0.4C50.6948,79,50.8948,79.1,51.0948,79.1z"/>
		</g>
		<g>
			<path class="st1" d="M65.1948,74.3l1.8-0.8c0,0.2,0,0.5,0,0.7l-1.1,0.5l1.2,1.6l0.5-0.3c0.1,0.1,0.2,0.3,0.2,0.4l-0.7,0.3
				c0,0.1-0.2,0.1-0.3,0.1h-0.1c-0.1,0-0.1,0-0.2,0l-1.6-2c-0.1-0.1-0.1-0.2-0.1-0.3C64.9948,74.4,65.0948,74.3,65.1948,74.3z"/>
		</g>
		<g>
			<path class="st1" d="M27.3948,82.7L27.3948,82.7L27.3948,82.7l1.7,4.7c0.6,2.7,2,5.1,4,6.8c2,1.8,4.5,2.7,7,2.7h4.5
				c2.8,0,5.4-1.6,6.9-4.2c1.3-2.3,1.6-5,0.9-7.5l-0.4-1.4l0,0h48.1c0.6,0,0.6-1,0-1h-48.1c-0.1,0-0.2,0-0.3,0.1l-0.5-1.8l-0.3-9.6
				c-0.1,0-0.1,0-0.2,0h-0.1c0,0.4-0.1,0.9-0.3,1.3l0.2,8.4v0.1l1.2,4.2c0.7,2.3,0.4,4.8-0.8,6.8c-1.4,2.5-3.8,3.9-6.4,3.9h-4.5
				c-2.3,0-4.6-0.9-6.5-2.5c-1.8-1.6-3.2-3.9-3.7-6.4l0,0l-1.6-4.8c-0.1-0.1-0.2-0.2-0.3-0.2l0,0l-0.2-0.2
				C27.6948,82.4,27.6948,82.7,27.3948,82.7z"/>
		</g>
		<g>
			<path class="st1" d="M19.7948,67.3c0.1,0.1,0.1,0.2,0.2,0.3c0.1,0,0.2,0,0.3,0l1.1-0.4c-0.3,0.5-0.6,1.2-0.8,2.1
				c-0.4,1.6-0.8,4.1,0.2,6.8c0,0.1,0.1,0.2,0.2,0.2c0.1,0.1,0.2,0.1,0.3,0l1.7-1.3l0.4,3c0.2-0.1,0.4-0.1,0.6-0.1h0.1l-0.4-3.7
				c0-0.1-0.1-0.2-0.2-0.3c-0.1-0.1-0.2-0.1-0.3,0l-1.8,1.3c-0.6-1.9-0.6-3.8,0-5.9c0.4-1.7,1.1-2.8,1.1-2.8c0.1-0.1,0.1-0.3,0-0.4
				c-0.1-0.1-0.3-0.2-0.4-0.1l-1.6,0.6c0.1-2.4,3.1-4.8,3.1-4.8c0-0.1,0.1-0.2,0.1-0.3s0-0.2-0.1-0.3l-0.8-0.7l1.1-0.4
				c-0.1-0.3-0.1-0.5-0.1-0.8l-1.8,0.7c-0.1,0.1-0.2,0.2-0.2,0.3c0,0.2,0,0.3,0.1,0.4l0.9,0.8
				C21.7948,62.3,19.3948,64.7,19.7948,67.3z"/>
		</g>
		<g>
			<path class="st1" d="M10.6948,83.8h13.3h0.1l1.2,7.8c0,0.1,0.1,0.3,0.2,0.3c0.1,0,0.2,0,0.3-0.1l1.3-1.4l0.8,1.3
				c0.1,0.1,0.2,0.2,0.3,0.2h0.1c0.1-0.1,0.2-0.2,0.2-0.4l-0.8-7.2l1.5-6.3c0.1-0.2,0-0.4-0.2-0.5c-0.2,0-0.4,0.1-0.4,0.3l-1.6,6.4
				v0.1l0.6,5.6l-0.2-0.3c0-0.1-0.1-0.2-0.2-0.2s-0.2,0-0.3,0.1l-1.1,1.2l-1.1-7.1l-0.8-6.9c0-0.2-0.2-0.3-0.4-0.3s-0.3,0.2-0.3,0.4
				l0.7,6h-13.2C9.9948,82.8,9.9948,83.8,10.6948,83.8z"/>
		</g>
		<g>
			<path class="st1" d="M28.3948,80.1c-0.1,0-0.3-0.2-0.4-0.3c0-0.2,0.1-0.4,0.3-0.4l2-0.4c0.2,0,0.4,0.1,0.4,0.3s-0.1,0.4-0.3,0.4
				L28.3948,80.1C28.4948,80.1,28.4948,80.1,28.3948,80.1"/>
		</g>
	</g>
</g>
<g>
	<g>
		<path class="st1" d="M45.5948,96.3l-0.8,4c0,0.1,0,0.2,0.1,0.3s0.2,0.1,0.3,0.1h1.6c0.1,0,0.2-0.1,0.3-0.2l4.5-8
			c0-0.1-0.2,0.3-0.3,0.2c-0.1-0.2-0.3-0.2-0.4-0.1h-0.1c0,0.1,0,0.2-0.1,0.3c-0.1,0.2-0.3,0.5-0.5,0.7c0,0.1,0,0.1-0.1,0.2
			c0,0.1,0,0.1,0,0.1l0.1-0.1l-3.6,6.2h-1l0.8-3.8C46.1948,96.2,45.9948,96.3,45.5948,96.3z"/>
	</g>
</g>
<g>
	<g>
		<path class="st1" d="M51.4948,91.5h-6.1v-0.1c-0.2,0-0.5,0.1-0.8,0.1c-0.1,0-0.2,0-0.3,0h-12.4c-0.1,0-0.2,0-0.3,0.1l-0.5-0.8
			c0-0.1-0.1-0.2-0.3-0.1c-0.2,0.1-0.3,0.3-0.3,0.2l4.9,9.4c0.1,0.1,0.1,0.2,0.2,0.2l1.6,0.6h0.1c0.1,0,0.1,0,0.2,0
			c0.1,0,0.2-0.1,0.2-0.2l0.6-4.5c-0.2,0-0.4-0.1-0.6-0.2l-0.6,4.2l-1.1-0.4l-3.9-7.5h19.1C51.7948,92.5,52.0948,91.5,51.4948,91.5z
			"/>
	</g>
</g>
<g>
	<g>
		<path class="st1" d="M45.1948,100.6c-0.1,0-0.2,0-0.2-0.1c-0.1,0-0.1-0.1-0.1-0.2l0.2-1c0-0.1,0.2-0.2,0.3-0.2h2
			c0.1,0,0.2,0,0.3,0.1s0.1,0.2,0,0.3l-0.6,1c-0.1,0-0.2,0.1-0.3,0.1L45.1948,100.6 M46.8948,99.6h-1.2l-0.1,0.4h1.1L46.8948,99.6z"
			/>
	</g>
</g>
<g>
	<g>
		<path class="st1" d="M37.3948,101.3C37.2948,101.3,37.2948,101.3,37.3948,101.3l-1.7-0.6c-0.1,0-0.2,0-0.2-0.1l-0.4-0.8
			c-0.1-0.1-0.1-0.2,0-0.3c0.1,0,0.2-0.1,0.3-0.1h2.2c0.1,0,0.1,0,0.2,0.1c0.1,0,0.1,0.1,0.1,0.2l-0.2,1.4c0,0.1,0,0.2-0.1,0.2
			C37.4948,101.3,37.4948,101.3,37.3948,101.3 M35.8948,99.9l0.1,0.3l1.1,0.4l0.1-0.7C37.1948,99.9,35.8948,99.9,35.8948,99.9z"/>
	</g>
</g>
<g>
	<g>
		<g>
			<polygon class="st1" points="67.7281,118.0833 66.6281,118.7833 65.6281,117.0833 66.6281,116.5833 66.1281,115.7833 
				65.2281,116.3833 64.3281,114.7833 65.4281,114.0833 65.0281,113.2833 62.9281,114.5833 66.1281,120.0833 68.2281,118.8833 			
				"/>
		</g>
		<g>
			<polygon class="st1" points="69.5281,118.1833 70.4281,117.5833 67.7281,112.7833 68.4281,112.3833 67.9281,111.5833 
				65.6281,112.9833 66.0281,113.7833 66.7281,113.3833 			"/>
		</g>
		<g>
			<polygon class="st1" points="74.3281,115.3833 71.0281,109.7833 70.2281,110.2833 71.6281,112.7833 70.9281,113.1833 
				69.5281,110.6833 68.5281,111.2833 71.7281,116.8833 72.7281,116.2833 71.3281,113.9833 72.1281,113.4833 73.4281,115.8833 			
				"/>
		</g>
		<g>
			<path class="st1" d="M71.8281,109.2833l3.2,5.6l1.8-1c0.5-0.3,0.6-0.8,0.3-1.2l-2.3-4c-0.3-0.5-0.8-0.6-1.2-0.3L71.8281,109.2833
				z M76.3281,112.9833c0,0.1,0,0.2-0.1,0.2l-0.6,0.3l-2.3-4l0.6-0.3c0.1,0,0.2,0,0.2,0.1L76.3281,112.9833z"/>
		</g>
		<g>
			<polygon class="st1" points="77.9281,106.8833 77.4281,106.0833 75.3281,107.2833 78.7281,112.8833 80.7281,111.6833 
				80.3281,110.8833 79.1281,111.4833 78.1281,109.8833 79.0281,109.3833 78.6281,108.5833 77.6281,109.0833 76.7281,107.5833 			
				"/>
		</g>
		<g>
			<polygon class="st1" points="81.9281,107.8833 78.9281,105.1833 78.1281,105.6833 81.5281,111.1833 82.2281,110.6833 
				80.3281,107.6833 83.3281,110.0833 84.0281,109.6833 80.8281,104.1833 80.0281,104.5833 			"/>
		</g>
		<g>
			<polygon class="st1" points="83.3281,102.5833 85.1281,106.7833 82.4281,103.1833 81.4281,103.6833 85.6281,108.7833 
				86.5281,108.1833 84.2281,102.0833 			"/>
		</g>
		<g>
			<polygon class="st1" points="88.1281,107.2833 90.1281,106.0833 89.7281,105.2833 88.5281,105.9833 87.6281,104.3833 
				88.5281,103.7833 88.1281,103.0833 87.1281,103.5833 86.2281,101.9833 87.4281,101.3833 86.9281,100.5833 84.8281,101.6833 			
				"/>
		</g>
		<g>
			<path class="st1" d="M91.9281,102.5833c0.2-0.2,0.2-0.6,0-0.9l-1.4-2.4c-0.2-0.4-0.7-0.5-1.1-0.3l-1.9,1.1l3.2,5.6l0.9-0.5
				l-1.1-1.9l0.3-0.2l1.5,1.6l0.9-0.5L91.9281,102.5833z M90.9281,102.0833L90.9281,102.0833l-0.6,0.5l-1.2-2.2l0.6-0.4h0.1
				L90.9281,102.0833z"/>
		</g>
	</g>
</g>
<g id="peeking_13_">
	<g>
		<g>
			<g>
				<path class="st1" d="M60.1948,54.3c-0.6-0.2-1-0.5-1.4-0.8c0.1-0.3,0.1-0.5,0.1-0.8c0.3,0.4,0.8,0.9,1.7,1l0,0h0.4l-0.1,0.4
					c0,0-0.6,2-2.5,1.7c0,0,0,0-0.1,0c0-0.2,0.1-0.4,0.1-0.6C59.4948,55.4,59.9948,54.8,60.1948,54.3z"/>
			</g>
		</g>
		<g>
			<g>
				<path class="st1" d="M60.1948,54.3c-0.1,0.2-0.2,0.4-0.4,0.5C59.9948,54.7,60.0948,54.5,60.1948,54.3L60.1948,54.3"/>
			</g>
		</g>
	</g>
</g>
<g>
	<g>
		<path class="st1" d="M25.1948,88h2.5c0.6,0,0.5,0.6,0,0.6h-2.5C24.6948,88.6,24.6948,88,25.1948,88z"/>
	</g>
</g>
<g>
	<g>
		<path class="st1" d="M82.2946,64.6999H70.5944c-1.2686,0-2.2998-1.0313-2.2998-2.2998v-16H85.195v15.3994
			c0.0547,0.6992-0.1963,1.4102-0.71,1.9639C83.9342,64.3591,83.1354,64.6999,82.2946,64.6999z M69.2946,47.4001v15
			c0,0.7285,0.5713,1.2998,1.2998,1.2998h11.7002c0.5635,0,1.0947-0.2246,1.457-0.6162c0.3223-0.3467,0.4795-0.79,0.4443-1.2461
			l-0.001-14.4375H69.2946z"/>
	</g>
</g>
<g>
	<g>
		<path class="st1" d="M84.2946,47.2996H68.695c-1.2783,0-2.4004-1.1211-2.4004-2.3994s1.1221-2.4004,2.4004-2.4004h15.5996
			c1.2783,0,2.4004,1.1221,2.4004,2.4004c0.0566,0.543-0.1436,1.127-0.5654,1.5928C85.6657,47.0056,84.9967,47.2996,84.2946,47.2996
			z M68.695,43.4997c-0.7197,0-1.4004,0.6807-1.4004,1.4004s0.6807,1.3994,1.4004,1.3994h15.5996
			c0.4199,0,0.8193-0.1738,1.0938-0.4775c0.2305-0.2539,0.3398-0.5645,0.3096-0.8721c-0.0029-0.7695-0.6836-1.4502-1.4033-1.4502
			H68.695z"/>
	</g>
</g>
<g>
	<g>
		<path class="st1" d="M40.0856,77.9304l-2.7988-5.8525l2.6553-0.7373l4.9063,4.9063l-0.707,0.707l-1.8066-1.8066L40.0856,77.9304z
			 M38.7028,72.7224l1.6016,3.3467l1.3184-1.6338l-1.9756-1.9756L38.7028,72.7224z"/>
	</g>
</g>
<g>
	<g>
		<polygon class="st1" points="49.4264,78.1247 47.4245,75.0554 44.4294,76.6413 43.9606,75.7585 47.7643,73.7449 48.7624,75.2751 
			48.8991,74.1404 49.8913,74.2595 		"/>
	</g>
</g>
<g>
	<g>
		
			<rect x="44.1699" y="76.3867" transform="matrix(0.9982 -0.0595 0.0595 0.9982 -4.9181 2.8003)" class="st1" width="0.7494" height="15.1264"/>
	</g>
</g>
<g>
	<g>
		<rect x="36.7946" y="79.7253" class="st1" width="3.6006" height="0.75"/>
	</g>
</g>
<g>
	<g>
		<g>
			<path class="st1" d="M79.2948,54.7c0,1.2-1,1.8-2.2,1.8s-2.2-0.5-2.2-1.8s1-2.2,2.2-2.2S79.2948,53.5,79.2948,54.7z"/>
		</g>
		<g>
			<polygon class="st1" points="78.1948,58.3 75.8948,58.3 74.7948,55.1 79.2948,55.1 			"/>
		</g>
		<g>
			<path class="st1" d="M77.9948,59.4h-2c-0.2,0-0.4-0.2-0.4-0.4l0,0c0-0.2,0.2-0.4,0.4-0.4h2c0.2,0,0.4,0.2,0.4,0.4l0,0
				C78.4948,59.2,78.2948,59.4,77.9948,59.4z"/>
		</g>
		<g>
			<path class="st1" d="M77.9948,60.4h-2c-0.2,0-0.4-0.2-0.4-0.4l0,0c0-0.2,0.2-0.4,0.4-0.4h2c0.2,0,0.4,0.2,0.4,0.4l0,0
				C78.4948,60.2,78.2948,60.4,77.9948,60.4z"/>
		</g>
		<g>
			<path class="st1" d="M77.4948,61.1h-0.8c-0.1,0-0.2-0.1-0.2-0.2l0,0c0-0.1,0.1-0.2,0.2-0.2h0.8c0.1,0,0.2,0.1,0.2,0.2l0,0
				C77.6948,61,77.5948,61.1,77.4948,61.1z"/>
		</g>
		<g>
			<path class="st1" d="M74.6948,53L74.6948,53c-0.1,0.1-0.2,0.1-0.3,0l-1.3-1.5c-0.1-0.1-0.1-0.2,0-0.3l0,0c0.1-0.1,0.2-0.1,0.3,0
				l1.3,1.5C74.7948,52.8,74.7948,52.9,74.6948,53z"/>
		</g>
		<g>
			<path class="st1" d="M79.0948,53L79.0948,53c0.1,0.1,0.2,0.1,0.3,0l1.3-1.5c0.1-0.1,0.1-0.2,0-0.3l0,0c-0.1-0.1-0.2-0.1-0.3,0
				l-1.3,1.5C78.9948,52.8,79.0948,52.9,79.0948,53z"/>
		</g>
		<g>
			<path class="st1" d="M76.8948,51.9L76.8948,51.9c0.1,0,0.2-0.1,0.2-0.2l-0.1-2c0-0.1-0.1-0.2-0.2-0.2l0,0c-0.1,0-0.2,0.1-0.2,0.2
				l0.1,2C76.6948,51.8,76.7948,51.9,76.8948,51.9z"/>
		</g>
	</g>
</g>
<g class="st2">
	<g>
		<path class="st1" d="M14.7057,26.7126c0.3574,0.6221,0.8936,1.5518,1.6074,2.791c-0.1377,0.0791-0.3437,0.1973-0.6182,0.3555
			c-0.3184-0.5518-0.7939-1.3789-1.4287-2.4805c-0.1367,0.0791-0.3447,0.1992-0.6221,0.3584
			c0.3184,0.5527,0.7949,1.3799,1.4287,2.4805c-0.1377,0.0791-0.3438,0.1982-0.6182,0.3564
			c-0.3174-0.5527-0.7939-1.3789-1.4287-2.4805c-0.1367,0.0781-0.3438,0.1982-0.6211,0.3574
			c0.3174,0.5527,0.7939,1.3809,1.4277,2.4805c-0.1377,0.0801-0.3438,0.1982-0.6182,0.3564
			c-0.1338-0.2324-0.3359-0.583-0.6055-1.0508c-0.1104-0.1934-0.25-0.4346-0.416-0.7227c-0.168-0.292-0.3633-0.6309-0.5859-1.0176
			c-0.0488-0.085-0.0596-0.1748-0.0332-0.2725c0.0244-0.0918,0.0811-0.1641,0.167-0.2129c0.2051-0.1182,0.5146-0.2969,0.9297-0.5352
			c0.0869-0.0508,0.1768-0.0635,0.2695-0.0391c0.0967,0.0264,0.1699,0.0811,0.2188,0.166c-0.0488-0.085-0.0615-0.1738-0.0381-0.2695
			c0.0283-0.0938,0.083-0.165,0.168-0.2139c0.207-0.1191,0.5186-0.2979,0.9326-0.5371c0.084-0.0488,0.1748-0.0615,0.2695-0.0381
			C14.5856,26.572,14.6569,26.6277,14.7057,26.7126z"/>
		<path class="st1" d="M17.1862,25.2839c0.3174,0.5518,0.793,1.3789,1.4277,2.4795c0.0508,0.0869,0.0625,0.1777,0.0371,0.2705
			c-0.0254,0.0967-0.0811,0.1689-0.165,0.2178c-0.2773,0.1602-0.6904,0.3984-1.2402,0.7148
			c-0.0869,0.0488-0.1768,0.0605-0.2715,0.0332c-0.0957-0.0234-0.168-0.0791-0.2188-0.166
			c-0.1191-0.207-0.2979-0.5176-0.5371-0.9326c-0.0986-0.1709-0.2207-0.3838-0.3682-0.6387
			c-0.1494-0.2607-0.3242-0.5635-0.5225-0.9082c-0.0488-0.085-0.0596-0.1748-0.0342-0.2725
			c0.0254-0.0918,0.0811-0.1641,0.168-0.2129c0.2744-0.1582,0.6885-0.3965,1.2402-0.7148c0.084-0.0488,0.1738-0.0605,0.2695-0.0381
			C17.0661,25.1443,17.1374,25.199,17.1862,25.2839z M17.1969,28.1716c0.1396-0.0811,0.3477-0.2012,0.6221-0.3594
			c-0.0156-0.0273-0.0391-0.0684-0.0693-0.1211c-0.2227-0.3867-0.5576-0.9668-1.0029-1.7402
			c-0.1367,0.0781-0.3447,0.1982-0.6221,0.3574c0.1191,0.207,0.2979,0.5176,0.5352,0.9297
			C16.779,27.4451,16.9577,27.7576,17.1969,28.1716z"/>
		<path class="st1" d="M19.4059,24.8337c-0.04-0.0703-0.1006-0.1748-0.1787-0.3115c-0.1377,0.0791-0.3447,0.1982-0.6221,0.3584
			c0.0781,0.1367,0.1982,0.3447,0.3574,0.6221c0.208-0.1201,0.5186-0.2988,0.9336-0.5381c0.084-0.0479,0.1738-0.0605,0.2695-0.0371
			c0.0947,0.0273,0.166,0.084,0.2139,0.168c0.1602,0.2773,0.3984,0.6914,0.7148,1.2402c0.0498,0.0859,0.0625,0.1758,0.0371,0.2695
			c-0.0254,0.0977-0.0811,0.1699-0.165,0.2188c-0.2773,0.1592-0.6904,0.3975-1.2402,0.7139
			c-0.0869,0.0498-0.1777,0.0615-0.2725,0.0342c-0.0957-0.0244-0.168-0.0801-0.2178-0.167
			c-0.0791-0.1367-0.1973-0.3428-0.3564-0.6172c0.1377-0.0791,0.3438-0.1982,0.6182-0.3555
			c0.0391,0.0674,0.0986,0.1709,0.1797,0.3105c0.1396-0.0811,0.3467-0.2002,0.6221-0.3584
			c-0.0811-0.1396-0.2002-0.3477-0.3584-0.6221c-0.207,0.1191-0.5166,0.2979-0.9287,0.5352
			c-0.0869,0.0498-0.1768,0.0625-0.2695,0.0361c-0.0977-0.0254-0.1709-0.0811-0.2207-0.168
			c-0.0791-0.1377-0.1787-0.3105-0.2979-0.5176c-0.1201-0.207-0.2588-0.4482-0.417-0.7227
			c-0.0488-0.085-0.0586-0.1748-0.0332-0.2715c0.0254-0.0928,0.0811-0.1641,0.168-0.2139c0.2744-0.1582,0.6875-0.3965,1.2402-0.7139
			c0.084-0.0488,0.1738-0.0615,0.2695-0.0391c0.0938,0.0273,0.165,0.084,0.2139,0.168c0.0811,0.1406,0.2002,0.3477,0.3584,0.623
			C19.8864,24.5564,19.6803,24.6755,19.4059,24.8337z"/>
		<path class="st1" d="M22.3249,22.738c-0.2744,0.1582-0.4805,0.2764-0.6172,0.3555c0.7148,1.2412,1.1904,2.0684,1.4277,2.4805
			c-0.3105,0.1797-0.5186,0.2988-0.6221,0.3584c-0.7139-1.2393-1.1895-2.0654-1.4287-2.4805
			c-0.3076,0.1777-0.5137,0.2959-0.6172,0.3564c-0.0889-0.1543-0.1631-0.2832-0.2236-0.3867
			c-0.0586-0.1035-0.1035-0.1797-0.1328-0.2305c0.9307-0.5371,1.5498-0.8926,1.8584-1.0703
			C22.1276,22.3943,22.2467,22.6013,22.3249,22.738z"/>
		<path class="st1" d="M25.0719,20.3337c0.1035-0.0596,0.3096-0.1787,0.6182-0.3555c0.2227,0.3867,0.668,1.1602,1.3379,2.3242
			c0.0742,0.1289,0.2227,0.3867,0.4453,0.7734c-0.1006,0.0576-0.3066,0.1758-0.6172,0.3555
			c-0.1484-0.2578-0.3711-0.6445-0.668-1.1602S25.5182,21.1091,25.0719,20.3337z"/>
		<path class="st1" d="M28.3464,18.8562c0.3584,0.6221,0.8945,1.5518,1.6074,2.791c-0.1367,0.0791-0.3428,0.1973-0.6172,0.3555
			c-0.3184-0.5518-0.7949-1.3789-1.4287-2.4805c-0.1377,0.0791-0.3447,0.1982-0.6221,0.3584
			c0.3174,0.5527,0.7939,1.3799,1.4277,2.4805c-0.1367,0.0791-0.3428,0.1982-0.6172,0.3555
			c-0.1992-0.3438-0.4473-0.7754-0.7441-1.291c-0.2969-0.5137-0.6436-1.1172-1.041-1.8066
			c0.1377-0.0781,0.3438-0.1973,0.6182-0.3555c0.208-0.1191,0.5186-0.2988,0.9336-0.5371c0.084-0.0488,0.1738-0.0615,0.2695-0.0381
			C28.2272,18.7156,28.2975,18.7712,28.3464,18.8562z"/>
		<path class="st1" d="M30.8268,17.4275c0.3584,0.6221,0.8945,1.5518,1.6074,2.791c-0.1377,0.0791-0.3438,0.1973-0.6182,0.3555
			c-0.3174-0.5508-0.7939-1.3789-1.4277-2.4805c-0.1377,0.0801-0.3447,0.1992-0.6221,0.3594
			c0.3174,0.5527,0.7939,1.3789,1.4277,2.4805c-0.1367,0.0781-0.3438,0.1973-0.6172,0.3555
			c-0.1992-0.3447-0.4473-0.7754-0.7441-1.291c-0.2969-0.5146-0.6436-1.1172-1.041-1.8066
			c0.1377-0.0791,0.3438-0.1973,0.6182-0.3555c0.208-0.1201,0.5186-0.2988,0.9336-0.5381c0.084-0.0479,0.1738-0.0615,0.2686-0.0381
			C30.7077,17.2869,30.778,17.3425,30.8268,17.4275z"/>
		<path class="st1" d="M33.3073,15.9998c0.3174,0.5508,0.7939,1.3789,1.4277,2.4785c0.0508,0.0879,0.0625,0.1777,0.0381,0.2715
			c-0.0264,0.0967-0.0811,0.1689-0.165,0.2168c-0.2773,0.1602-0.6914,0.3984-1.2402,0.7148
			c-0.0869,0.0498-0.1777,0.0615-0.2725,0.0332c-0.0957-0.0234-0.168-0.0791-0.2178-0.166
			c-0.1201-0.207-0.2988-0.5176-0.5371-0.9326c-0.0996-0.1709-0.2217-0.3838-0.3691-0.6387
			c-0.1494-0.2607-0.3242-0.5635-0.5225-0.9082c-0.0488-0.085-0.0596-0.1748-0.0332-0.2725
			c0.0244-0.0918,0.0811-0.1631,0.167-0.2129c0.2754-0.1582,0.6885-0.3965,1.2402-0.7148c0.084-0.0479,0.1748-0.0605,0.2695-0.0371
			C33.1872,15.8591,33.2585,15.9138,33.3073,15.9998z M33.318,18.8865c0.1406-0.0811,0.3477-0.2002,0.6221-0.3584
			c-0.0156-0.0273-0.0391-0.0684-0.0693-0.1211c-0.2227-0.3867-0.5576-0.9678-1.0029-1.7412
			c-0.1367,0.0791-0.3447,0.1982-0.6221,0.3584c0.1191,0.207,0.2979,0.5176,0.5352,0.9297
			C32.9001,18.1609,33.0798,18.4724,33.318,18.8865z"/>
		<path class="st1" d="M33.6686,15.3826c0.1143-0.0664,0.3457-0.1992,0.6934-0.3994c0.293,0.3271,0.8789,0.9863,1.7598,1.9756
			c-0.1367-0.418-0.4121-1.2559-0.8262-2.5127c0.1143-0.0664,0.3457-0.2002,0.6934-0.3994c0.1563,0.5957,0.4688,1.791,0.9346,3.5859
			c-0.1035,0.0605-0.3105,0.1797-0.6221,0.3594C35.7174,17.4099,34.8385,16.5408,33.6686,15.3826z"/>
		<path class="st1" d="M40.1647,15.7664c-0.1367,0.0791-0.3428,0.1982-0.6172,0.3555c-0.1582-0.2754-0.3965-0.6885-0.7148-1.2402
			c-0.1367,0.0791-0.3438,0.1982-0.6211,0.3584c0.1572,0.2744,0.3955,0.6885,0.7129,1.2402
			c-0.1367,0.0791-0.3428,0.1982-0.6172,0.3555c-0.1348-0.2324-0.3359-0.582-0.6055-1.0508c-0.1113-0.1934-0.25-0.4336-0.416-0.7227
			c-0.168-0.291-0.3633-0.6309-0.5859-1.0176c-0.0488-0.084-0.0596-0.1738-0.0342-0.2715c0.0254-0.0918,0.0811-0.1641,0.168-0.2139
			c0.2744-0.1572,0.6885-0.3955,1.2402-0.7139c0.084-0.0488,0.1738-0.0615,0.2695-0.0381c0.0947,0.0273,0.165,0.083,0.2139,0.168
			C38.9157,13.5974,39.4518,14.5271,40.1647,15.7664z M38.4772,14.2634c-0.0146-0.0244-0.0352-0.0605-0.0635-0.1094
			c-0.0654-0.1152-0.165-0.2861-0.2949-0.5127c-0.1377,0.0791-0.3447,0.1982-0.6221,0.3584
			c0.0781,0.1367,0.1982,0.3447,0.3574,0.6221C37.9948,14.5408,38.2018,14.4216,38.4772,14.2634z"/>
		<path class="st1" d="M41.2174,11.8572c-0.2754,0.1582-0.4814,0.2773-0.6182,0.3555c0.7148,1.2422,1.1904,2.0684,1.4277,2.4805
			c-0.3115,0.1797-0.5186,0.2988-0.6221,0.3594c-0.7129-1.2402-1.1895-2.0664-1.4277-2.4805
			c-0.3086,0.1777-0.5146,0.2959-0.6182,0.3555c-0.0889-0.1543-0.1631-0.2822-0.2236-0.3867
			c-0.0586-0.1035-0.1035-0.1797-0.1328-0.2305c0.9307-0.5361,1.5498-0.8926,1.8584-1.0703
			C41.0192,11.5144,41.1374,11.7205,41.2174,11.8572z"/>
		<path class="st1" d="M41.4831,10.8816c0.1035-0.0596,0.3096-0.1787,0.6182-0.3555c0.2227,0.3867,0.6689,1.1611,1.3389,2.3242
			c0.0742,0.1289,0.2227,0.3867,0.4453,0.7734c-0.1006,0.0576-0.3066,0.1768-0.6182,0.3555
			c-0.1982-0.3447-0.4463-0.7754-0.7432-1.291C42.2272,12.1736,41.8805,11.571,41.4831,10.8816z"/>
		<path class="st1" d="M42.6393,10.2165c0.1152-0.0664,0.3457-0.1992,0.6934-0.4004c0.293,0.3271,0.8799,0.9863,1.7598,1.9756
			c-0.1367-0.418-0.4121-1.2559-0.8262-2.5127c0.1143-0.0664,0.3457-0.1992,0.6934-0.3994c0.1563,0.5957,0.4688,1.792,0.9355,3.5869
			c-0.1045,0.0596-0.3115,0.1787-0.623,0.3584C44.6882,12.2439,43.8102,11.3748,42.6393,10.2165z"/>
		<path class="st1" d="M46.4674,8.8337c0.1582,0.2754,0.2773,0.4824,0.3574,0.6211c0.415-0.2383,0.7266-0.418,0.9336-0.5371
			c0.1592,0.2754,0.2773,0.4805,0.3564,0.6182c-0.415,0.2393-0.7256,0.4189-0.9326,0.5381
			c0.1572,0.2734,0.2773,0.4824,0.3574,0.6211c0.5518-0.3174,0.9648-0.5547,1.2402-0.7139
			c0.1582,0.2744,0.2773,0.4814,0.3555,0.6182c-0.5488,0.3164-0.9629,0.5547-1.2402,0.7148
			c-0.2734,0.1582-0.4805,0.2764-0.6172,0.3555c-0.1582-0.2754-0.2773-0.4805-0.3564-0.6182
			c-0.0801-0.1396-0.1504-0.2617-0.21-0.3652c-0.0605-0.1045-0.1094-0.1895-0.1475-0.2568
			c-0.1797-0.3105-0.2979-0.5166-0.3564-0.6182c-0.1787-0.3105-0.2988-0.5176-0.3584-0.6221
			c-0.1777-0.3076-0.2959-0.5146-0.3555-0.6172c0.3105-0.1797,0.5166-0.2979,0.6182-0.3555
			c0.6221-0.3584,1.0352-0.5967,1.2402-0.7148c0.1768,0.3076,0.2959,0.5137,0.3555,0.6172
			C47.1589,8.4353,46.7448,8.6736,46.4674,8.8337z"/>
	</g>
</g>
<g class="st2">
	<g>
		<path class="st1" d="M92.5664,97.4737l0.9463,2.2275l-0.7998,0.458l-0.6338-2.4063L92.5664,97.4737z"/>
	</g>
</g>
<g class="st2">
	<g>
		<path class="st1" d="M95.4668,96.4307c0.6152,1.0762,1.5371,2.6855,2.7637,4.8262c-0.2383,0.1367-0.5938,0.3398-1.0684,0.6123
			c-0.5469-0.9541-1.3652-2.3838-2.457-4.2891c-0.1211,0.0693-0.3008,0.1719-0.5371,0.3076
			c-0.0664-0.1162-0.1504-0.2637-0.2539-0.4434c-0.1016-0.1787-0.2227-0.3867-0.3574-0.625
			c0.2363-0.1357,0.5938-0.3398,1.0684-0.6123c0.1504-0.0859,0.3066-0.1084,0.4727-0.0674
			C95.2598,96.1876,95.3828,96.2852,95.4668,96.4307z"/>
		<path class="st1" d="M99.4551,98.4229c0.0664,0.1162,0.168,0.2949,0.3086,0.5371c0.2402-0.1377,0.5996-0.3438,1.0742-0.6152
			c-0.1387-0.2422-0.3438-0.6016-0.6152-1.0762c-0.3594,0.2061-0.8945,0.5117-1.6074,0.9199
			c-0.1484,0.0859-0.3047,0.1074-0.4648,0.0645c-0.168-0.0459-0.2949-0.1436-0.3809-0.2939
			c-0.1348-0.2373-0.3066-0.5361-0.5117-0.8945s-0.4434-0.7754-0.7148-1.25c-0.084-0.1455-0.1035-0.3027-0.0566-0.4697
			c0.043-0.1602,0.1387-0.2832,0.2891-0.3691c0.4746-0.2725,1.1895-0.6816,2.1445-1.2285c0.1465-0.083,0.3008-0.1035,0.4668-0.0625
			c0.1621,0.0479,0.2852,0.1445,0.3691,0.291c0.5449,0.9541,1.3652,2.3838,2.4551,4.2871c0.0859,0.1514,0.1074,0.3057,0.0625,0.4658
			c-0.0449,0.168-0.1406,0.2939-0.2852,0.377c-0.4805,0.2744-1.1953,0.6836-2.1445,1.2275
			c-0.1504,0.0859-0.3066,0.1045-0.4707,0.0566c-0.1641-0.041-0.2891-0.1357-0.375-0.2871
			c-0.1367-0.2373-0.3398-0.5928-0.6113-1.0684C98.623,98.8985,98.9805,98.6944,99.4551,98.4229z M99.6113,96.2003
			c-0.0254-0.0439-0.0625-0.1064-0.1094-0.1885c-0.1133-0.1992-0.2832-0.4941-0.5078-0.8877
			c-0.2383,0.1367-0.5957,0.3418-1.0762,0.6162c0.1367,0.2373,0.3418,0.5967,0.6172,1.0762
			C98.7773,96.6778,99.1348,96.4727,99.6113,96.2003z"/>
	</g>
</g>
<g>
	<g>
		<path class="st1" d="M101.5948,62.3h-11.5h-0.1c-0.2,0-0.5,0.1-0.5,0.4v19.8c0,0.6,0.9,0.5,0.9,0V63.1h11.2
			C102.1948,63.2,102.1948,62.3,101.5948,62.3z"/>
	</g>
</g>
<g>
	<g>
		<path class="st1" d="M23.8948,40.6v-4.8c0-0.2-0.1-0.3-0.2-0.3l0,0h-13.7c-0.3,0-0.3,0.7,0,0.7h13.5v4.3h-13.5
			c-0.3,0-0.3,0.7,0,0.7h13.7C23.8948,41.1,23.9948,40.8,23.8948,40.6z"/>
	</g>
</g>
</svg>
