<svg enable-background="new 0 0 111 128.1667" viewBox="0 0 111 128.1667" xmlns="http://www.w3.org/2000/svg"><path d="m111.0098 95.9042-55.4257 32-55.4239-32v-63.9995l55.4239-32 55.4257 32z" fill="#050932"/><g fill="#26ffad"><path d="m91.9948 48.1-.1-.3h-6.9c-.1.3-.2.5-.3.8h6.6c.3 1.6.9 7.9-6.2 12.7l.7-2.3c.9-.5 4.4-2.7 4.5-8.8v-.4h-5.6v.8h4.8c-.3 5.9-3.9 7.6-4.1 7.7l-.2.1-1 3.1c.2.3.3.7.4 1.1 9.5-5.8 7.4-14.4 7.4-14.5z"/><path d="m69.3948 61.7-1-3.3-.2-.1s-3.8-1.8-4.1-7.7h4.8v-.8h-5.6v.4c.2 6.1 3.7 8.3 4.5 8.8l.7 2.3c-7.1-4.8-6.5-11.2-6.2-12.7h6.5c0-.2 0-.4 0-.6 0-.1-.1-.2-.1-.2h-7.2001l-.1.3c0 .1-2.1 8.8 7.5 14.5.2001-.4.3001-.7.5001-.9z"/><path d="m60.2948 54.3c-.7-.1-1.2-.4-1.5-.7-.1.6-.1 1.2-.2 1.8 1 .1 1.5-.7 1.7-1.1m-41.7-1h.3c3.9.6 4.9-1.1 5.1-1.4l-1.2-4.8.2-.1c1.9-1.4 4.7-1.6 5.9-1.6l-.7-1.4.3-.2c2.8-1.8 6-1.6 7.3-1.4l-.5-1.2.4-.1c2.6-.6 4.7 0 6.3.7l-.1.3-.1.3c-1.3-.6-3.2-1.2-5.5-.8l.6 1.6-.7-.2s-3.9-.9-7.1 1l1 1.9-.6-.1s-3.6-.3-5.8 1.3l.1.3 1 4.2v.1s-.2.6-.9 1.1c-.7.6-1.9 1.1-3.9 1-.3 0-.6 0-.9-.1 0 .2 0 .6.2 1 0 0 0 .1.1.1 0 .1.1.1.1.2v.1c.1.1.1.2.2.3 0 0 0 0 .1.1.3.2.6.4 1 .6.3.1.7.2 1.2.3h.3c.2 0 2.1.2 2.5-.2.1-.1.1-.1.1-.2s.1-.2.1-.3 0-.2 0-.3c0-.2 0-.4 0-.4s.1.2.3.5c.1.1.1.2.1.3s.1.2.1.3c0 .2 0 .5-.2.7-.4.4-1.5.4-2.3.4-.3 0-.6 0-.7 0l-.1 1.4 1.7.8-.7 1.9 1.9.5v2.1l2.2-.5.6 1.9 2.2-.5.8 2.2 1.8-.4.9 1.7h1 1.3l2.2 3.5 3.1-.5 4.2 2.2.2-1.5 2.4 1 .4.2.4.2.8.3-.5-2.7 2.3.8-.1-4.1 1.5-.4 1.1-3.3 1.7-1.4c.4-1.3-.2-2.2-.2-2.3l-.3-.5 1.8-.2c.6-2.1 1-4.8 1.2-7 0-.1-.1-.1-.1-.1h.1c.1-1.4.2-2.6.2-3.1l-1.4-.2.6-2c-.5-.2-1-.4-1.4-.4-.9-.2-1.6-.1-1.9 0l-.6.2.7-2.3c-.4-.2-.8-.3-1.2-.4-2-.4-3.9.3-4 .3l-.6.2.6-2.2c-.2 0-.4-.1-.7-.1-.1 0-.3 0-.4 0v-.4-.4c.5 0 1.1 0 1.6.1l.4.1-.4 1.6c1.1-.3 3.4-.6 5.4.4l.3.1-.5 1.7c.7-.1 2 0 3.5.7l.3.1-.6 1.8 1.3.2v.3c0 .1-.1 1.6-.3 3.5.3.4.8.9 1.8.9h.4l-.1.4s-.4 2-2.4 1.9c-.1 0-.1 0-.2 0-.2 1.5-.5 3-.9 4.2l-.1.2-1.3.1c.2.5.4 1.4 0 2.5v.1l-1.7 1.4-1.1 3.5-1.4.4.1 4.5-2.1-.7.5 2.8-1.3-.5c-.1 0-.2-.1-.3-.1-.2-.1-.4-.2-.6-.3l-2.2-.9-.2 1.6-4.3-2.3-.6-.3-3.4.6-2.2-3.5h-2.3l-.8-1.6-1.8.8-.8-2.2-2.3.5-.6-1.9-2.4.5v-2.4l-2.2-.5.8-2-1.5-.7.1-1.4v-.6c-1.2-.2-2.1-.7-2.6-1.4l-.1-.1c-.1-.2-.2-.4-.3-.6v-.1c-.2-.7-.1-1.4-.1-1.4z"/><path d="m36.6948 52.1c.1.4.2.9.2 1.4s-.1 1-.2 1.3v.1c0 .2.2.4.4.4h.1c.2 0 .4-.1.5-.2.2-.4.3-1 .4-1.6 0-.6-.1-1.2-.3-1.6-.1-.1-.2-.2-.4-.2-.5-.1-.7.1-.7.4 0-.1 0 0 0 0"/><path d="m52.9948 53s0 .1 0 0c.1.4.2.8.2 1.2s-.1.9-.2 1.2v.1.1c0 .2.2.4.4.4h.1c.1 0 .2-.1.3-.2v-.1c.2-.3.3-.8.3-1.3 0-.6-.1-1.1-.2-1.4-.1-.1-.2-.2-.4-.2-.3-.2-.5 0-.5.2z"/><path d="m37.5948 67.7c1.3.6 3 .8 4.2 1 .6.1 1.1.1 1.6.1h2.1c.2 0 .4 0 .7-.1.1 0 .2 0 .3-.1.1 0 .2 0 .3-.1 1.5-.3 3.4-.9 4.3-1.4.2-.1.5-.3.6-.6 0-.3-.2-.5-.5-.8s-.7-.6-.7-1.2c0-.8.1-1.2.1-1.5.1 0 .2-.1.3-.1.2 0 .4-.1.7-.2 1.1-.5 1.8-1.4 1.5-2.1-.2-.4-.6-.6-1.1-.6h-.1c-.4 0-.9.1-1.3.3-.6.3-1.1.7-1.3 1.1 0 0-1 1.2-3.8-1-.5-.6-1.2-1.1-2.2-1.4-1.8-.6-3.6-.1-3.9 1-.2.7.1 1.4.8 2-.2-.1-.4-.1-.6-.2-.8-.3-1.5-.3-2.2-.2-.2 0-.3.1-.5.1-.1 0-.3.1-.4.1 0 0-.1 0-.1.1-.5.3-.9.7-1.1 1.2-.8 2.1.1 3.6 2.3 4.6zm13.7-6.3c.3-.3.7-.5.8-.4.2.1 0 .5-.3.8-.1.1-.2.2-.3.3-.2.1-.4.2-.5.1-.1-.1 0-.5.3-.8zm-9 .7c-.3.2-.9 0-1.4-.6s-.7-1.2-.5-1.5c.3-.2.9 0 1.4.6s.7 1.3.5 1.5zm.6 1.2c0 .1-.1.2-.2.3s-.3.1-.5.1l-1.8-.4-1.2-.3h-.1c-.1 0-.2-.1-.3-.2l-.1-.1c-.1-.1-.1-.2-.1-.3v-.1h.1l.3.1c.1 0 .2 0 .2.1.1 0 .1 0 .2.1 1.1.3 2.3.5 3.5.7zm6.2 0c0 .3-.2.5-.4.5l-1.4.1h-.4c-.1 0-.2 0-.3-.1s-.1-.2-.1-.3h.7.2c.6 0 1.2-.1 1.7-.2zm-11.1 4c.5-.9 2.6-1.7 5-1.7h.5c.3 0 .6 0 .8.1.3 0 .7.1 1 .2 1.6.3 2.9.9 3.4 1.6-.8.2-1.6.5-2.2.6-.1 0-.2 0-.3.1-.1 0-.2 0-.3.1-.2 0-.3 0-.5.1-1.2.1-4 0-6.2-.5-.4-.4-.8-.5-1.2-.6zm-2.3-4c.1-.4.4-.6.7-.8.2-.1.4-.2.6-.2s.4-.1.5-.1h.5v.3s.1.3.1.4c.2.2.4.4.7.4l.5.1 1.3.3 1.3.3h.1.2c.2 0 .4 0 .6-.1s.4-.4.5-.6c.6.1 1.3.1 1.9.2h.3.6c0 .2.1.4.3.6s.3.3.6.3h.1l1.8-.1c.5 0 .8-.5.8-1 .1 0 .2 0 .4-.1 0 .3-.1.7-.1 1.3 0 .9.5 1.4.9 1.7l.3.3s-.1.1-.2.2c-.4.2-.9.4-1.6.7-.6-1-2.6-1.8-5-2.1h-.1c-.2 0-.3 0-.5 0-.1 0-.1 0-.2 0-.2 0-.5 0-.7 0-2.4.1-4.5.8-5.1 1.9-2-1-2.6-2.2-2.1-3.9z"/><path d="m46.9948 25h-.1z"/><path d="m46.0948 31.1c-.1 0-.3.1-.3.2.1-.2.2-.2.3-.2"/><path d="m43.4948 41.5c-.2 0-.4 0-.6 0z"/><path d="m42.2948 45.2h.2v.1c-.1 0-.1-.1-.2-.1"/><path d="m48.0948 26.1-1.3.6.1-1.3zm0-.5c-.4-.2-.7-.4-1.1-.6 0-.5.1-.9.1-1.4m-1.8 2.2 1.2-.4-.1 1.2zm1.4-2.3c0 .4-.1.9-.1 1.3-.3.1-.6.2-.9.3l-.3.1zm2 2.8c.1 0 .1-.1.1-.1 0-.1 0-.1 0-.2l-.3-.7c-.4-.8-.8-1.7-1.2-2.5 0 0 0-.1-.1-.1h-.1c-.1 0-.1.1-.2.1-.7.9-1.4 1.9-2.1 2.9 0 .1-.1.1 0 .2 0 .1.1.1.1.1l1.3 1c.1.1.2.2.4.3 0 0 .1 0 .1.1h.1c.5-.2 1-.5 1.5-.7z"/><path d="m46.6948 28c.3-.1.6-.3 1-.4l-1 1.2c0-.3 0-.6 0-.8m-1.3-.7c.3.2.6.4.9.6l-.1.7zm-.5-.9s-.1-.1-.2-.1-.1 0-.2.1v.2c0 .1.1.1.1.2l.3.5c.4.7.8 1.4 1.2 2.1l.1.1h.1c.1 0 .1-.1.1-.1.7-.8 1.4-1.6 2.1-2.4 0 0 .1-.1.1-.2s0-.1-.1-.2c-.1 0-.1 0-.2 0s-.1.1-.2.1l-.3.1c-.5.2-.9.4-1.4.6-.3-.3-.7-.5-1-.8z"/><path d="m42.4948 26.3c-.1 0-.2-.1-.2-.2s.1-.2.2-.2.2.1.2.2c.1.1 0 .2-.2.2"/><path d="m48.8948 31.4c-.1 0-.2-.1-.2-.2s.1-.2.2-.2.2.1.2.2-.1.2-.2.2"/><path d="m47.3948 42.4v.1c0 .1-.1.1-.2.2-.5.6-2 1.9-4.5 1.8-.3 0-.5 0-.8-.1 0-.1 0-.1 0-.1l.4-1.5.1-.3.1-.4v-.1h.3.5c1.9 0 3.2-.8 3.9-1.5l.1 1.4zm-3.3-3.4c1.2-.2 2.2-.6 2.9-1.1l.2 2c-.5.6-1.7 1.5-3.7 1.6-.2 0-.5 0-.7 0l.7-2.5zm.9-3.2c.6-.2 1.3-.4 1.8-.8l.2 2.1c-.6.5-1.4 1-2.6 1.2-.2 0-.4.1-.6.1l.8-2.5s.2-.1.4-.1m.8-3.3c.2-.1.5-.2.7-.3l.2 2.2c-.5.3-1 .6-1.6.8-.2 0-.3.1-.5.1l.8-2.6c.2-.1.3-.2.4-.2m.7-1c-.1.1-.3.2-.5.2-.1.1-.2.1-.4.2l.2-.6c.1-.2.2-.2.3-.2.1 0 .3.1.3.3zm-1.9 14.3c-1.1 0-1.7-.3-2.1-.5-.1 0-.1-.1-.2-.1h.2.2c2.5.1 4-1.1 4.7-1.8l.1 1.6c.1.1-.3.9-2.9.8zm-3.3-1.5c0 .1-.1.6.4 1.1.5.6 1.5 1 2.9 1 3.4.1 3.6-1.2 3.6-1.4l-.2-2.3v-.4-.4l-.9-10.7c0-.5-.4-.8-.8-.9-.5 0-.9.2-1 .7l-3.2 10.8-.1.3-.1.3-.3.8z"/><path d="m50.0948 29c.1-.1.2-.1.2 0l.2.2.2-.2c.1-.1.2-.1.2 0 .1.1.1.2 0 .2l-.2.2.2.2c.1.1.1.2 0 .2h-.1s-.1 0-.1-.1l-.2-.2-.2.2h-.1s-.1 0-.1-.1c-.1-.1-.1-.2 0-.2l.2-.2-.2-.2c-.1.1-.1 0 0 0"/><path d="m41.7948 23-.2-.2c-.1-.1-.1-.2 0-.2.1-.1.2-.1.2 0l.2.2.2-.2c.1-.1.2-.1.2 0 .1.1.1.2 0 .2l-.2.2.2.2c.1.1.1.2 0 .2 0 0-.1.1-.1 0 0 0-.1 0-.1-.1l-.2-.2-.2.2s-.1.1-.1 0c0 0-.1 0-.1-.1-.1-.1-.1-.2 0-.2z"/><path d="m43.9948 29.1c.1.1.1.2 0 .2l-.2.2.2.2c.1.1.1.2 0 .2 0 0-.1.1-.1 0 0 0-.1 0-.1-.1l-.2-.2-.2.2s-.1.1-.1 0c0 0-.1 0-.1-.1-.1-.1-.1-.2 0-.2l.2-.2-.2-.2c-.1-.1-.1-.2 0-.2.1-.1.2-.1.2 0l.2.2.2-.2c0 .2.2.2.2.2"/><path d="m44.1948 23.1c-.1 0-.2-.1-.2-.2s.1-.2.2-.2.2.1.2.2-.1.2-.2.2"/><path d="m50.2948 26.2c.1 0 .2.1.2.2s-.1.2-.2.2-.2-.1-.2-.2c0-.2.1-.3.2-.2"/><path d="m19.1948 54.1h.4c-.1.1-.3 0-.4 0m0 .4c0 .2.1.4.2.6-.1-.2-.2-.4-.2-.6"/><path d="m22.2948 58.8.1-1.4zm.9 2.7 1.3.3zm2 2.5v-2zm1.3-.3.8-.2.1.5-.1-.5zm1.4 1.7h.2zm6.7 3h-1z"/><path d="m19.8948 55.8 1 .6c-.1-.1-.3-.1-.4-.2-.1 0-.1-.1-.2-.1-.1-.1-.3-.2-.4-.3"/><path d="m20.2948 56.1s.1.1.2.1c-.1-.1-.1-.1-.2-.1"/><path d="m36.5948 54.9s0 .1 0 0zm.1.3c.1.1.2.1.3.2-.1 0-.2-.1-.3-.2"/><path d="m53.7948 55.6c0 .1-.1.1 0 0 0 .1 0 .1-.1.1 0 0 0 0-.1.1 0 0 0 0 .1-.1 0 0 0 0 .1-.1-.1.1 0 .1 0 0zm-.2.2c-.1 0-.1.1-.2.1.1 0 .2 0 .2-.1z"/><path d="m38.2948 41.7c1.2.1 2.3.4 3.2.8-.9-.4-2-.7-3.2-.8m-1.4 1.8-.4-1.1zm-7.8.8 1 1.9h-.3.3z"/><path d="m48.4948 42.7c-.1 0 0 0 0 0zm.5 0-.5 2.2z"/><path d="m56.1948 46.9c.2 0 .3.1.5.1-.2 0-.3-.1-.5-.1m1.4.4-.5 1.5z"/><path d="m53.0948 44.4c.1 0 .2 0 .4.1-.2-.1-.3-.1-.4-.1m.8.2c.1 0 .3.1.4.2-.1-.1-.2-.1-.4-.2m-.3 2.4.4-1.1z"/><path d="m50.5948 48.8c.1 0 .1 0 .2.1 2 3.5 1.2 11.1 1.1 11.2h-.1c-.4 0-.9.1-1.3.3 1.3-5.7.5-9.5 0-11.3-.1-.2 0-.3.1-.3"/><path d="m51.7948 60.1c.1 0 .1 0 0 0-.4 0-.9.1-1.3.3.5-.3.9-.3 1.3-.3"/><path d="m58.7948 53.6c.1.1.3.2.4.3-.2-.1-.3-.2-.4-.3m1.5.7c-.1.2-.2.4-.3.6.1-.3.2-.5.3-.6zm-1.7.9v.2c0-.1 0-.2 0-.2z"/><path d="m8.6948 36v53.8l46.8 27 46.8-27v-53.9l-26.3-15.2-1-.6-2.4-1.4-.3-.2-2.6-1.5-.3-.2-2.5-1.4-1-.6-10.4-6-13.4 7.8-1 .6-2.3 1.3-.3.2-1.9 1.1-.3.2-2.1 1.2-1 .6zm1.9 52.8v-51.7l23.2-13.4 1-.6 2.1-1.2.3-.2 1.9-1.1.3-.2 2.3-1.3 1-.6 12.6-7.3 9.6 5.5 1 .6 2.5 1.4.3.2 2.6 1.5.3.2 2.4 1.4 1 .5 25.4 14.6v51.7l-44.8999 25.9z"/><path d="m74.7948 63.7h3.8v5.7h-3.8zm3 .8h-2v3.9h2z"/><path d="m70.2948 72 .1-3.5h12.9v3.5zm12-2.5h-11.1v1.7h11.1z"/><path d="m68.6948 75.2v-4h16.2v4zm15.2-3.1h-14.4v2.2h14.4z"/><path d="m51.0948 79.1c0 .2-.2.6.1.6l9.1.5s.2-.1.3-.1l9.8-4.7c.2-.1.3-.2.2-.4 0-.2-.2-.3-.4-.3h-1.9l.7-1.3c.1-.1 0-.3-.1-.4s-.3-.2-.4-.1l-7.7 2.5-8.9-4.3h-.1c-.1.2-.2.5-.3.7l9.1 4.4h.4l6.8-2.1-.5.9c-.1.1-.1.3 0 .4s.2.2.4.2h1.2l-8.5 3.9-8.8-.4c-.9-.1-.7 0-.5 0z"/><path d="m65.1948 74.3 1.8-.8v.7l-1.1.5 1.2 1.6.5-.3c.1.1.2.3.2.4l-.7.3c0 .1-.2.1-.3.1h-.1c-.1 0-.1 0-.2 0l-1.6-2c-.1-.1-.1-.2-.1-.3.2-.1.3-.2.4-.2z"/><path d="m27.3948 82.7 1.7 4.7c.6 2.7 2 5.1 4 6.8 2 1.8 4.5 2.7 7 2.7h4.5c2.8 0 5.4-1.6 6.9-4.2 1.3-2.3 1.6-5 .9-7.5l-.4-1.4h48.1c.6 0 .6-1 0-1h-48.1c-.1 0-.2 0-.3.1l-.5-1.8-.3-9.6c-.1 0-.1 0-.2 0h-.1c0 .4-.1.9-.3 1.3l.2 8.4v.1l1.2 4.2c.7 2.3.4 4.8-.8 6.8-1.4 2.5-3.8 3.9-6.4 3.9h-4.5c-2.3 0-4.6-.9-6.5-2.5-1.8-1.6-3.2-3.9-3.7-6.4l-1.6-4.8c-.1-.1-.2-.2-.3-.2l-.2-.2c0 .3 0 .6-.3.6z"/><path d="m19.7948 67.3c.1.1.1.2.2.3h.3l1.1-.4c-.3.5-.6 1.2-.8 2.1-.4 1.6-.8 4.1.2 6.8 0 .1.1.2.2.2.1.1.2.1.3 0l1.7-1.3.4 3c.2-.1.4-.1.6-.1h.1l-.4-3.7c0-.1-.1-.2-.2-.3s-.2-.1-.3 0l-1.8 1.3c-.6-1.9-.6-3.8 0-5.9.4-1.7 1.1-2.8 1.1-2.8.1-.1.1-.3 0-.4s-.3-.2-.4-.1l-1.6.6c.1-2.4 3.1-4.8 3.1-4.8 0-.1.1-.2.1-.3s0-.2-.1-.3l-.8-.7 1.1-.4c-.1-.3-.1-.5-.1-.8l-1.8.7c-.1.1-.2.2-.2.3 0 .2 0 .3.1.4l.9.8c-1 .8-3.4 3.2-3 5.8z"/><path d="m10.6948 83.8h13.3.1l1.2 7.8c0 .1.1.3.2.3s.2 0 .3-.1l1.3-1.4.8 1.3c.1.1.2.2.3.2h.1c.1-.1.2-.2.2-.4l-.8-7.2 1.5-6.3c.1-.2 0-.4-.2-.5-.2 0-.4.1-.4.3l-1.6 6.4v.1l.6 5.6-.2-.3c0-.1-.1-.2-.2-.2s-.2 0-.3.1l-1.1 1.2-1.1-7.1-.8-6.9c0-.2-.2-.3-.4-.3s-.3.2-.3.4l.7 6h-13.2c-.7 0-.7 1 0 1z"/><path d="m28.3948 80.1c-.1 0-.3-.2-.4-.3 0-.2.1-.4.3-.4l2-.4c.2 0 .4.1.4.3s-.1.4-.3.4l-2 .4c.1 0 .1 0 0 0"/><path d="m45.5948 96.3-.8 4c0 .1 0 .2.1.3s.2.1.3.1h1.6c.1 0 .2-.1.3-.2l4.5-8c0-.1-.2.3-.3.2-.1-.2-.3-.2-.4-.1h-.1c0 .1 0 .2-.1.3-.1.2-.3.5-.5.7 0 .1 0 .1-.1.2v.1l.1-.1-3.6 6.2h-1l.8-3.8c-.2 0-.4.1-.8.1z"/><path d="m51.4948 91.5h-6.1v-.1c-.2 0-.5.1-.8.1-.1 0-.2 0-.3 0h-12.4c-.1 0-.2 0-.3.1l-.5-.8c0-.1-.1-.2-.3-.1s-.3.3-.3.2l4.9 9.4c.1.1.1.2.2.2l1.6.6h.1.2c.1 0 .2-.1.2-.2l.6-4.5c-.2 0-.4-.1-.6-.2l-.6 4.2-1.1-.4-3.9-7.5h19.1c.6 0 .9-1 .3-1z"/><path d="m45.1948 100.6c-.1 0-.2 0-.2-.1-.1 0-.1-.1-.1-.2l.2-1c0-.1.2-.2.3-.2h2c.1 0 .2 0 .3.1s.1.2 0 .3l-.6 1c-.1 0-.2.1-.3.1zm1.7-1h-1.2l-.1.4h1.1z"/><path d="m37.3948 101.3c-.1 0-.1 0 0 0l-1.7-.6c-.1 0-.2 0-.2-.1l-.4-.8c-.1-.1-.1-.2 0-.3.1 0 .2-.1.3-.1h2.2c.1 0 .1 0 .2.1.1 0 .1.1.1.2l-.2 1.4c0 .1 0 .2-.1.2s-.1 0-.2 0m-1.5-1.4.1.3 1.1.4.1-.7z"/><path d="m67.7281 118.0833-1.1.7-1-1.7 1-.5-.5-.8-.9.6-.9-1.6 1.1-.7-.4-.8-2.1 1.3 3.2 5.5 2.1-1.2z"/><path d="m69.5281 118.1833.9-.6-2.7-4.8.7-.4-.5-.8-2.3 1.4.4.8.7-.4z"/><path d="m74.3281 115.3833-3.3-5.6-.8.5 1.4 2.5-.7.4-1.4-2.5-1 .6 3.2 5.6 1-.6-1.4-2.3.8-.5 1.3 2.4z"/><path d="m71.8281 109.2833 3.2 5.6 1.8-1c.5-.3.6-.8.3-1.2l-2.3-4c-.3-.5-.8-.6-1.2-.3zm4.5 3.7c0 .1 0 .2-.1.2l-.6.3-2.3-4 .6-.3c.1 0 .2 0 .2.1z"/><path d="m77.9281 106.8833-.5-.8-2.1 1.2 3.4 5.6 2-1.2-.4-.8-1.2.6-1-1.6.9-.5-.4-.8-1 .5-.9-1.5z"/><path d="m81.9281 107.8833-3-2.7-.8.5 3.4 5.5.7-.5-1.9-3 3 2.4.7-.4-3.2-5.5-.8.4z"/><path d="m83.3281 102.5833 1.8 4.2-2.7-3.6-1 .5 4.2 5.1.9-.6-2.3-6.1z"/><path d="m88.1281 107.2833 2-1.2-.4-.8-1.2.7-.9-1.6.9-.6-.4-.7-1 .5-.9-1.6 1.2-.6-.5-.8-2.1 1.1z"/><path d="m91.9281 102.5833c.2-.2.2-.6 0-.9l-1.4-2.4c-.2-.4-.7-.5-1.1-.3l-1.9 1.1 3.2 5.6.9-.5-1.1-1.9.3-.2 1.5 1.6.9-.5zm-1-.5-.6.5-1.2-2.2.6-.4h.1z"/><path d="m60.1948 54.3c-.6-.2-1-.5-1.4-.8.1-.3.1-.5.1-.8.3.4.8.9 1.7 1h.4l-.1.4s-.6 2-2.5 1.7c0 0 0 0-.1 0 0-.2.1-.4.1-.6 1.1.2 1.6-.4 1.8-.9z"/><path d="m60.1948 54.3c-.1.2-.2.4-.4.5.2-.1.3-.3.4-.5z"/><path d="m25.1948 88h2.5c.6 0 .5.6 0 .6h-2.5c-.5 0-.5-.6 0-.6z"/><path d="m82.2946 64.6999h-11.7002c-1.2686 0-2.2998-1.0313-2.2998-2.2998v-16h16.9004v15.3994c.0547.6992-.1963 1.4102-.71 1.9639-.5508.5957-1.3496.9365-2.1904.9365zm-13-17.2998v15c0 .7285.5713 1.2998 1.2998 1.2998h11.7002c.5635 0 1.0947-.2246 1.457-.6162.3223-.3467.4795-.79.4443-1.2461l-.001-14.4375z"/><path d="m84.2946 47.2996h-15.5996c-1.2783 0-2.4004-1.1211-2.4004-2.3994s1.1221-2.4004 2.4004-2.4004h15.5996c1.2783 0 2.4004 1.1221 2.4004 2.4004.0566.543-.1436 1.127-.5654 1.5928-.4639.5126-1.1329.8066-1.835.8066zm-15.5996-3.7999c-.7197 0-1.4004.6807-1.4004 1.4004s.6807 1.3994 1.4004 1.3994h15.5996c.4199 0 .8193-.1738 1.0938-.4775.2305-.2539.3398-.5645.3096-.8721-.0029-.7695-.6836-1.4502-1.4033-1.4502z"/><path d="m40.0856 77.9304-2.7988-5.8525 2.6553-.7373 4.9063 4.9063-.707.707-1.8066-1.8066zm-1.3828-5.208 1.6016 3.3467 1.3184-1.6338-1.9756-1.9756z"/><path d="m49.4264 78.1247-2.0019-3.0693-2.9951 1.5859-.4688-.8828 3.8037-2.0136.9981 1.5302.1367-1.1347.9922.1191z"/><path d="m44.1699 76.3867h.7494v15.1264h-.7494z" transform="matrix(.9982 -.0595 .0595 .9982 -4.9181 2.8003)"/><path d="m36.7946 79.7253h3.6006v.75h-3.6006z"/><path d="m79.2948 54.7c0 1.2-1 1.8-2.2 1.8s-2.2-.5-2.2-1.8 1-2.2 2.2-2.2 2.2 1 2.2 2.2z"/><path d="m78.1948 58.3h-2.3l-1.1-3.2h4.5z"/><path d="m77.9948 59.4h-2c-.2 0-.4-.2-.4-.4 0-.2.2-.4.4-.4h2c.2 0 .4.2.4.4.1.2-.1.4-.4.4z"/><path d="m77.9948 60.4h-2c-.2 0-.4-.2-.4-.4 0-.2.2-.4.4-.4h2c.2 0 .4.2.4.4.1.2-.1.4-.4.4z"/><path d="m77.4948 61.1h-.8c-.1 0-.2-.1-.2-.2 0-.1.1-.2.2-.2h.8c.1 0 .2.1.2.2 0 .1-.1.2-.2.2z"/><path d="m74.6948 53c-.1.1-.2.1-.3 0l-1.3-1.5c-.1-.1-.1-.2 0-.3.1-.1.2-.1.3 0l1.3 1.5c.1.1.1.2 0 .3z"/><path d="m79.0948 53c.1.1.2.1.3 0l1.3-1.5c.1-.1.1-.2 0-.3-.1-.1-.2-.1-.3 0l-1.3 1.5c-.1.1 0 .2 0 .3z"/><path d="m76.8948 51.9c.1 0 .2-.1.2-.2l-.1-2c0-.1-.1-.2-.2-.2-.1 0-.2.1-.2.2l.1 2c0 .1.1.2.2.2z"/><g enable-background="new"><path d="m14.7057 26.7126c.3574.6221.8936 1.5518 1.6074 2.791-.1377.0791-.3437.1973-.6182.3555-.3184-.5518-.7939-1.3789-1.4287-2.4805-.1367.0791-.3447.1992-.6221.3584.3184.5527.7949 1.3799 1.4287 2.4805-.1377.0791-.3438.1982-.6182.3564-.3174-.5527-.7939-1.3789-1.4287-2.4805-.1367.0781-.3438.1982-.6211.3574.3174.5527.7939 1.3809 1.4277 2.4805-.1377.0801-.3438.1982-.6182.3564-.1338-.2324-.3359-.583-.6055-1.0508-.1104-.1934-.25-.4346-.416-.7227-.168-.292-.3633-.6309-.5859-1.0176-.0488-.085-.0596-.1748-.0332-.2725.0244-.0918.0811-.1641.167-.2129.2051-.1182.5146-.2969.9297-.5352.0869-.0508.1768-.0635.2695-.0391.0967.0264.1699.0811.2188.166-.0488-.085-.0615-.1738-.0381-.2695.0283-.0938.083-.165.168-.2139.207-.1191.5186-.2979.9326-.5371.084-.0488.1748-.0615.2695-.0381.0949.0277.1662.0834.215.1683z"/><path d="m17.1862 25.2839c.3174.5518.793 1.3789 1.4277 2.4795.0508.0869.0625.1777.0371.2705-.0254.0967-.0811.1689-.165.2178-.2773.1602-.6904.3984-1.2402.7148-.0869.0488-.1768.0605-.2715.0332-.0957-.0234-.168-.0791-.2188-.166-.1191-.207-.2979-.5176-.5371-.9326-.0986-.1709-.2207-.3838-.3682-.6387-.1494-.2607-.3242-.5635-.5225-.9082-.0488-.085-.0596-.1748-.0342-.2725.0254-.0918.0811-.1641.168-.2129.2744-.1582.6885-.3965 1.2402-.7148.084-.0488.1738-.0605.2695-.0381.0949.0284.1662.0831.215.168zm.0107 2.8877c.1396-.0811.3477-.2012.6221-.3594-.0156-.0273-.0391-.0684-.0693-.1211-.2227-.3867-.5576-.9668-1.0029-1.7402-.1367.0781-.3447.1982-.6221.3574.1191.207.2979.5176.5352.9297.1191.2071.2978.5196.537.9336z"/><path d="m19.4059 24.8337c-.04-.0703-.1006-.1748-.1787-.3115-.1377.0791-.3447.1982-.6221.3584.0781.1367.1982.3447.3574.6221.208-.1201.5186-.2988.9336-.5381.084-.0479.1738-.0605.2695-.0371.0947.0273.166.084.2139.168.1602.2773.3984.6914.7148 1.2402.0498.0859.0625.1758.0371.2695-.0254.0977-.0811.1699-.165.2188-.2773.1592-.6904.3975-1.2402.7139-.0869.0498-.1777.0615-.2725.0342-.0957-.0244-.168-.0801-.2178-.167-.0791-.1367-.1973-.3428-.3564-.6172.1377-.0791.3438-.1982.6182-.3555.0391.0674.0986.1709.1797.3105.1396-.0811.3467-.2002.6221-.3584-.0811-.1396-.2002-.3477-.3584-.6221-.207.1191-.5166.2979-.9287.5352-.0869.0498-.1768.0625-.2695.0361-.0977-.0254-.1709-.0811-.2207-.168-.0791-.1377-.1787-.3105-.2979-.5176-.1201-.207-.2588-.4482-.417-.7227-.0488-.085-.0586-.1748-.0332-.2715.0254-.0928.0811-.1641.168-.2139.2744-.1582.6875-.3965 1.2402-.7139.084-.0488.1738-.0615.2695-.0391.0938.0273.165.084.2139.168.0811.1406.2002.3477.3584.623-.1377.0784-.3438.1975-.6182.3557z"/><path d="m22.3249 22.738c-.2744.1582-.4805.2764-.6172.3555.7148 1.2412 1.1904 2.0684 1.4277 2.4805-.3105.1797-.5186.2988-.6221.3584-.7139-1.2393-1.1895-2.0654-1.4287-2.4805-.3076.1777-.5137.2959-.6172.3564-.0889-.1543-.1631-.2832-.2236-.3867-.0586-.1035-.1035-.1797-.1328-.2305.9307-.5371 1.5498-.8926 1.8584-1.0703.1582.2735.2773.4805.3555.6172z"/><path d="m25.0719 20.3337c.1035-.0596.3096-.1787.6182-.3555.2227.3867.668 1.1602 1.3379 2.3242.0742.1289.2227.3867.4453.7734-.1006.0576-.3066.1758-.6172.3555-.1484-.2578-.3711-.6445-.668-1.1602s-.6699-1.162-1.1162-1.9374z"/><path d="m28.3464 18.8562c.3584.6221.8945 1.5518 1.6074 2.791-.1367.0791-.3428.1973-.6172.3555-.3184-.5518-.7949-1.3789-1.4287-2.4805-.1377.0791-.3447.1982-.6221.3584.3174.5527.7939 1.3799 1.4277 2.4805-.1367.0791-.3428.1982-.6172.3555-.1992-.3438-.4473-.7754-.7441-1.291-.2969-.5137-.6436-1.1172-1.041-1.8066.1377-.0781.3438-.1973.6182-.3555.208-.1191.5186-.2988.9336-.5371.084-.0488.1738-.0615.2695-.0381.0947.0273.165.0829.2139.1679z"/><path d="m30.8268 17.4275c.3584.6221.8945 1.5518 1.6074 2.791-.1377.0791-.3438.1973-.6182.3555-.3174-.5508-.7939-1.3789-1.4277-2.4805-.1377.0801-.3447.1992-.6221.3594.3174.5527.7939 1.3789 1.4277 2.4805-.1367.0781-.3438.1973-.6172.3555-.1992-.3447-.4473-.7754-.7441-1.291-.2969-.5146-.6436-1.1172-1.041-1.8066.1377-.0791.3438-.1973.6182-.3555.208-.1201.5186-.2988.9336-.5381.084-.0479.1738-.0615.2686-.0381.0957.0273.166.0829.2148.1679z"/><path d="m33.3073 15.9998c.3174.5508.7939 1.3789 1.4277 2.4785.0508.0879.0625.1777.0381.2715-.0264.0967-.0811.1689-.165.2168-.2773.1602-.6914.3984-1.2402.7148-.0869.0498-.1777.0615-.2725.0332-.0957-.0234-.168-.0791-.2178-.166-.1201-.207-.2988-.5176-.5371-.9326-.0996-.1709-.2217-.3838-.3691-.6387-.1494-.2607-.3242-.5635-.5225-.9082-.0488-.085-.0596-.1748-.0332-.2725.0244-.0918.0811-.1631.167-.2129.2754-.1582.6885-.3965 1.2402-.7148.084-.0479.1748-.0605.2695-.0371.0948.0273.1661.082.2149.168zm.0107 2.8867c.1406-.0811.3477-.2002.6221-.3584-.0156-.0273-.0391-.0684-.0693-.1211-.2227-.3867-.5576-.9678-1.0029-1.7412-.1367.0791-.3447.1982-.6221.3584.1191.207.2979.5176.5352.9297.1191.207.2988.5185.537.9326z"/><path d="m33.6686 15.3826c.1143-.0664.3457-.1992.6934-.3994.293.3271.8789.9863 1.7598 1.9756-.1367-.418-.4121-1.2559-.8262-2.5127.1143-.0664.3457-.2002.6934-.3994.1563.5957.4688 1.791.9346 3.5859-.1035.0605-.3105.1797-.6221.3594-.5841-.5821-1.463-1.4512-2.6329-2.6094z"/><path d="m40.1647 15.7664c-.1367.0791-.3428.1982-.6172.3555-.1582-.2754-.3965-.6885-.7148-1.2402-.1367.0791-.3438.1982-.6211.3584.1572.2744.3955.6885.7129 1.2402-.1367.0791-.3428.1982-.6172.3555-.1348-.2324-.3359-.582-.6055-1.0508-.1113-.1934-.25-.4336-.416-.7227-.168-.291-.3633-.6309-.5859-1.0176-.0488-.084-.0596-.1738-.0342-.2715.0254-.0918.0811-.1641.168-.2139.2744-.1572.6885-.3955 1.2402-.7139.084-.0488.1738-.0615.2695-.0381.0947.0273.165.083.2139.168.3584.6221.8945 1.5518 1.6074 2.7911zm-1.6875-1.503c-.0146-.0244-.0352-.0605-.0635-.1094-.0654-.1152-.165-.2861-.2949-.5127-.1377.0791-.3447.1982-.6221.3584.0781.1367.1982.3447.3574.6221.1407-.081.3477-.2002.6231-.3584z"/><path d="m41.2174 11.8572c-.2754.1582-.4814.2773-.6182.3555.7148 1.2422 1.1904 2.0684 1.4277 2.4805-.3115.1797-.5186.2988-.6221.3594-.7129-1.2402-1.1895-2.0664-1.4277-2.4805-.3086.1777-.5146.2959-.6182.3555-.0889-.1543-.1631-.2822-.2236-.3867-.0586-.1035-.1035-.1797-.1328-.2305.9307-.5361 1.5498-.8926 1.8584-1.0703.1583.2743.2765.4804.3565.6171z"/><path d="m41.4831 10.8816c.1035-.0596.3096-.1787.6182-.3555.2227.3867.6689 1.1611 1.3389 2.3242.0742.1289.2227.3867.4453.7734-.1006.0576-.3066.1768-.6182.3555-.1982-.3447-.4463-.7754-.7432-1.291-.2969-.5146-.6436-1.1172-1.041-1.8066z"/><path d="m42.6393 10.2165c.1152-.0664.3457-.1992.6934-.4004.293.3271.8799.9863 1.7598 1.9756-.1367-.418-.4121-1.2559-.8262-2.5127.1143-.0664.3457-.1992.6934-.3994.1563.5957.4688 1.792.9355 3.5869-.1045.0596-.3115.1787-.623.3584-.584-.581-1.462-1.4501-2.6329-2.6084z"/><path d="m46.4674 8.8337c.1582.2754.2773.4824.3574.6211.415-.2383.7266-.418.9336-.5371.1592.2754.2773.4805.3564.6182-.415.2393-.7256.4189-.9326.5381.1572.2734.2773.4824.3574.6211.5518-.3174.9648-.5547 1.2402-.7139.1582.2744.2773.4814.3555.6182-.5488.3164-.9629.5547-1.2402.7148-.2734.1582-.4805.2764-.6172.3555-.1582-.2754-.2773-.4805-.3564-.6182-.0801-.1396-.1504-.2617-.21-.3652-.0605-.1045-.1094-.1895-.1475-.2568-.1797-.3105-.2979-.5166-.3564-.6182-.1787-.3105-.2988-.5176-.3584-.6221-.1777-.3076-.2959-.5146-.3555-.6172.3105-.1797.5166-.2979.6182-.3555.6221-.3584 1.0352-.5967 1.2402-.7148.1768.3076.2959.5137.3555.6172-.5487.3164-.9628.5547-1.2402.7148z"/></g><path d="m92.5664 97.4737.9463 2.2275-.7998.458-.6338-2.4063z"/><g enable-background="new"><path d="m95.4668 96.4307c.6152 1.0762 1.5371 2.6855 2.7637 4.8262-.2383.1367-.5938.3398-1.0684.6123-.5469-.9541-1.3652-2.3838-2.457-4.2891-.1211.0693-.3008.1719-.5371.3076-.0664-.1162-.1504-.2637-.2539-.4434-.1016-.1787-.2227-.3867-.3574-.625.2363-.1357.5938-.3398 1.0684-.6123.1504-.0859.3066-.1084.4727-.0674.162.048.285.1456.369.2911z"/><path d="m99.4551 98.4229c.0664.1162.168.2949.3086.5371.2402-.1377.5996-.3438 1.0742-.6152-.1387-.2422-.3438-.6016-.6152-1.0762-.3594.2061-.8945.5117-1.6074.9199-.1484.0859-.3047.1074-.4648.0645-.168-.0459-.2949-.1436-.3809-.2939-.1348-.2373-.3066-.5361-.5117-.8945s-.4434-.7754-.7148-1.25c-.084-.1455-.1035-.3027-.0566-.4697.043-.1602.1387-.2832.2891-.3691.4746-.2725 1.1895-.6816 2.1445-1.2285.1465-.083.3008-.1035.4668-.0625.1621.0479.2852.1445.3691.291.5449.9541 1.3652 2.3838 2.4551 4.2871.0859.1514.1074.3057.0625.4658-.0449.168-.1406.2939-.2852.377-.4805.2744-1.1953.6836-2.1445 1.2275-.1504.0859-.3066.1045-.4707.0566-.1641-.041-.2891-.1357-.375-.2871-.1367-.2373-.3398-.5928-.6113-1.0684.2361-.1358.5936-.3399 1.0682-.6114zm.1562-2.2226c-.0254-.0439-.0625-.1064-.1094-.1885-.1133-.1992-.2832-.4941-.5078-.8877-.2383.1367-.5957.3418-1.0762.6162.1367.2373.3418.5967.6172 1.0762.2422-.1387.5997-.3438 1.0762-.6162z"/></g><path d="m101.5948 62.3h-11.5-.1c-.2 0-.5.1-.5.4v19.8c0 .6.9.5.9 0v-19.4h11.2c.6.1.6-.8 0-.8z"/><path d="m23.8948 40.6v-4.8c0-.2-.1-.3-.2-.3h-13.7c-.3 0-.3.7 0 .7h13.5v4.3h-13.5c-.3 0-.3.7 0 .7h13.7c.2-.1.3-.4.2-.6z"/></g></svg>