<?xml version="1.0" encoding="utf-8"?>
<!-- Generator: Adobe Illustrator 21.0.2, SVG Export Plug-In . SVG Version: 6.00 Build 0)  -->
<svg version="1.1" id="Layer_1" xmlns="http://www.w3.org/2000/svg" xmlns:xlink="http://www.w3.org/1999/xlink" x="0px" y="0px"
	 viewBox="0 0 111 128.1667" style="enable-background:new 0 0 111 128.1667;" xml:space="preserve">
<style type="text/css">
	.st0{fill:#050932;}
	.st1{fill:#26FFAD;}
	.st2{enable-background:new    ;}
</style>
<g id="Layer_63_8_">
	<g>
		<g>
			<polygon class="st0" points="110.9525,96.2583 55.5268,128.2583 0.1029,96.2583 0.1029,32.2588 55.5268,0.2588 110.9525,32.2588 
							"/>
		</g>
	</g>
</g>
<g>
	<g>
		<g>
			<g>
				<path class="st1" d="M77.55,22.1333l-1-0.6l-2.1-1.2l-0.3-0.2l-1.9-1.1l-0.3-0.2l-2.3-1.3l-1-0.6l-13.4-7.8l-10.4,6l-1,0.6
					l-2.5,1.4l-0.3,0.2l-2.6,1.5l-0.3,0.2l-2.4,1.4l-1,0.6l-26.3,15.2v53.9l46.8,27l46.8-27v-53.8L77.55,22.1333z M100.15,89.1333
					l-44.9,25.9l-44.9-25.9v-51.7l25.4-14.6l1-0.5l2.4-1.4l0.3-0.2l2.6-1.5l0.3-0.2l2.5-1.4l1-0.6l9.6-5.5l12.6,7.3l1,0.6l2.3,1.3
					l0.3,0.2l1.9,1.1l0.3,0.2l2.1,1.2l1,0.6l23.2,13.4L100.15,89.1333L100.15,89.1333z"/>
			</g>
		</g>
	</g>
</g>
<g>
	<g>
		<g>
			<path class="st1" d="M38.15,76.0333l-3.7,1l-1.4-5.5l3.7-1L38.15,76.0333z M34.95,75.8333l1.9-0.5l-1-3.8l-1.9,0.5L34.95,75.8333
				z"/>
		</g>
	</g>
</g>
<g>
	<g>
		<g>
			<path class="st1" d="M43.15,77.3333l-12.6,3.3l-0.9-3.4l12.5-3.3L43.15,77.3333L43.15,77.3333z M31.35,79.6333l10.7-2.8l-0.4-1.6
				l-10.7,2.8L31.35,79.6333z"/>
		</g>
	</g>
</g>
<g>
	<g>
		<g>
			<path class="st1" d="M45.55,80.0333l-15.7,4.1l-1-3.9l15.7-4.1L45.55,80.0333L45.55,80.0333z M30.65,83.1333l13.9-3.7l-0.6-2.1
				l-13.9,3.7L30.65,83.1333z"/>
		</g>
	</g>
</g>
<g>
	<g>
		<g>
			<path class="st1" d="M50.15,83.1333h-39.6c-0.6,0-0.6,1,0,1h41.1C51.05,83.9333,50.55,83.5333,50.15,83.1333z"/>
		</g>
		<g>
			<path class="st1" d="M99.95,83.1333h-12.3c0,0.3,0,0.7,0,1h12.4C100.65,84.1333,100.65,83.1333,99.95,83.1333z"/>
		</g>
	</g>
</g>
<g>
	<g>
		<g>
			<polygon class="st1" points="67.7666,118.2417 66.6667,118.9417 65.6667,117.2417 66.6667,116.7417 66.1667,115.9417 
				65.2666,116.5417 64.3667,114.9417 65.4667,114.2417 65.0667,113.4417 62.9667,114.6417 66.1667,120.2417 68.2666,119.0417 			
				"/>
		</g>
		<g>
			<polygon class="st1" points="69.5667,118.3417 70.4667,117.7417 67.7666,112.9417 68.4667,112.5417 67.9667,111.7417 
				65.6667,113.1417 66.0667,113.9417 66.7666,113.5417 			"/>
		</g>
		<g>
			<polygon class="st1" points="74.3667,115.5417 71.1667,109.9417 70.2666,110.4417 71.6667,112.9417 70.9667,113.3417 
				69.5667,110.8417 68.5667,111.4417 71.7666,117.0417 72.7666,116.4417 71.3667,114.1417 72.1667,113.6417 73.4667,116.0417 			
				"/>
		</g>
		<g>
			<path class="st1" d="M71.9667,109.4417l3.2,5.6l1.8-1c0.5-0.3,0.6-0.8,0.3-1.2l-2.3-4c-0.3-0.5-0.8-0.6-1.2-0.3L71.9667,109.4417
				z M76.3667,113.1417c0,0.1,0,0.2-0.1,0.2l-0.6,0.3l-2.3-4l0.6-0.3c0.1,0,0.2,0,0.2,0.1L76.3667,113.1417z"/>
		</g>
		<g>
			<polygon class="st1" points="78.0667,107.0417 77.5667,106.2417 75.4667,107.4417 78.7666,113.0417 80.7666,111.8417 
				80.3667,111.0417 79.1667,111.6417 78.2666,110.0417 79.1667,109.5417 78.7666,108.7417 77.7666,109.2417 76.8667,107.7417 			
				"/>
		</g>
		<g>
			<polygon class="st1" points="82.0667,108.1417 79.0667,105.3417 78.2666,105.8417 81.5667,111.4417 82.2666,110.9417 
				80.4667,107.8417 83.3667,110.3417 84.1667,109.9417 80.9667,104.3417 80.1667,104.7417 			"/>
		</g>
		<g>
			<polygon class="st1" points="83.4667,102.8417 85.2666,107.0417 82.5667,103.4417 81.5667,103.9417 85.7666,109.0417 
				86.6667,108.4417 84.3667,102.3417 			"/>
		</g>
		<g>
			<polygon class="st1" points="88.2666,107.5417 90.2666,106.3417 89.8667,105.5417 88.6667,106.2417 87.7666,104.6417 
				88.6667,104.0417 88.2666,103.3417 87.2666,103.8417 86.3667,102.2417 87.5667,101.6417 87.0667,100.8417 84.9667,101.9417 			
				"/>
		</g>
		<g>
			<path class="st1" d="M92.0667,102.8417c0.2-0.2,0.2-0.6,0-0.9l-1.4-2.4c-0.2-0.4-0.7-0.5-1.1-0.3l-1.9,1.1l3.2,5.6l0.9-0.5
				l-1.1-1.9l0.3-0.2l1.5,1.6l0.9-0.5L92.0667,102.8417z M91.0667,102.3417L91.0667,102.3417l-0.6,0.5l-1.2-2.2l0.6-0.4h0.1
				L91.0667,102.3417z"/>
		</g>
	</g>
</g>
<g id="peeking_14_">
	<g>
		<g>
			<g>
				<path class="st1" d="M50.45,54.6333L50.45,54.6333c0.1,0.2,0.2,0.4,0.4,0.5C50.65,55.0333,50.55,54.8333,50.45,54.6333"/>
			</g>
		</g>
	</g>
</g>
<g>
	<g>
		<g>
			<path class="st1" d="M45.75,51.7333l-0.2-0.3l-6.7,1.8c0,0.3-0.1,0.5-0.1,0.8l6.4-1.7c0.7,1.5,2.9,7.4-2.8,13.9l0.1-2.4
				c0.7-0.7,3.6-3.7,2.1-9.7l-0.1-0.4l-5.4,1.4l0.2,0.8l4.6-1.2c1.2,5.8-1.8,8.3-2,8.5l-0.2,0.1l-0.2,3.3c0.3,0.2,0.5,0.6,0.7,1
				C49.95,59.7333,45.75,51.8333,45.75,51.7333z"/>
		</g>
	</g>
</g>
<g>
	<g>
		<g>
			<path class="st1" d="M27.25,70.7333l-1.8-2.9h-0.2c0,0-4.1-0.8-5.9-6.4l4.6-1.2l-0.2-0.8l-5.4,1.4l0.1,0.4
				c1.7,5.8,5.7,7.1,6.6,7.4l1.3,2c-8.1-2.8-9.1-9.2-9.2-10.7l6.3-1.7c-0.1-0.2-0.1-0.4-0.2-0.6c0-0.1-0.1-0.2-0.1-0.2l-7,1.8v0.3
				c0,0.1,0.2,9,10.9,12.1C27.15,71.3333,27.15,71.0333,27.25,70.7333z"/>
		</g>
	</g>
</g>
<g>
	<g>
		<path class="st1" d="M28.6396,73.4112c-0.3896,0-0.7725-0.1055-1.1133-0.3145c-0.4971-0.3047-0.8721-0.8086-1.0547-1.4199
			l-4.0313-15.502l16.3662-4.251l3.9268,14.8818c0.2637,1.5645-0.6592,3.0518-2.1367,3.5049l-0.0186,0.0059l-11.2998,3
			C29.0674,73.38,28.8525,73.4112,28.6396,73.4112z M23.6592,56.8917l3.7754,14.5156c0.1074,0.3574,0.3271,0.6611,0.6143,0.8369
			c0.2852,0.1748,0.6172,0.2109,0.958,0.1104l11.3057-3.002c0.9941-0.3105,1.6152-1.3135,1.4443-2.3369l-3.6631-13.873
			L23.6592,56.8917z"/>
	</g>
</g>
<g>
	<g>
		<path class="st1" d="M22.374,57.004c-0.4131,0-0.834-0.1157-1.2109-0.3418c-0.5752-0.3457-0.9775-0.9038-1.1035-1.5308
			c-0.168-0.5542-0.0771-1.2212,0.2617-1.7852c0.3467-0.5757,0.9043-0.978,1.5313-1.103l15.0693-3.9932
			c0.585-0.1772,1.2529-0.0835,1.8154,0.2549c0.5762,0.3462,0.9775,0.9043,1.1025,1.5308c0.1689,0.6128,0.0781,1.2739-0.2637,1.8276
			c-0.3359,0.5425-0.8857,0.9272-1.5117,1.0566l-15.0869,3.9966C22.7832,56.9752,22.5801,57.004,22.374,57.004z M37.5293,49.1637
			c-0.1143,0-0.2275,0.0161-0.3359,0.0488l-15.1152,4.0044c-0.3809,0.0771-0.6982,0.3096-0.8994,0.6445
			c-0.1943,0.3232-0.249,0.6978-0.1504,1.0283c0.082,0.397,0.3145,0.7139,0.6504,0.9155c0.3223,0.1929,0.6953,0.2485,1.0273,0.1489
			l15.1465-4.0112c0.3613-0.0723,0.6797-0.293,0.873-0.605c0.1943-0.3154,0.2451-0.6963,0.1416-1.0728
			c-0.0781-0.3853-0.3096-0.7017-0.6445-0.9033C38.0049,49.2315,37.7637,49.1637,37.5293,49.1637z"/>
	</g>
</g>
<g>
	<g>
		<path class="st1" d="M66.125,91.4337h-0.75c0-4.2471,0.0957-8.3213,0.1963-12.6348l0.0039-0.1748l0.75,0.0176l-0.0039,0.1748
			C66.2197,83.1251,66.125,87.1954,66.125,91.4337z"/>
	</g>
</g>
<g>
	<g>
		<rect x="69.6504" y="80.3585" class="st1" width="3.5996" height="0.75"/>
	</g>
</g>
<g class="st2">
	<g>
		<path class="st1" d="M27.3301,61.1051c0.0703-0.0186,0.1387-0.0083,0.2041,0.0308c0.0625,0.0356,0.1025,0.0908,0.1221,0.1631
			c0.0605,0.2305,0.1514,0.5771,0.2734,1.041c-0.1152,0.0303-0.2881,0.0757-0.5195,0.1362
			c-0.0605-0.2305-0.1514-0.5771-0.2734-1.041c-0.1152,0.0303-0.2891,0.0762-0.5215,0.1372
			c0.0605,0.2305,0.1514,0.5771,0.2734,1.041c-0.1152,0.0303-0.2891,0.0752-0.5195,0.1357c-0.0605-0.23-0.1514-0.5767-0.2734-1.0405
			c-0.0293-0.1152-0.0752-0.2881-0.1357-0.5186c-0.0303-0.1152-0.0684-0.2607-0.1143-0.4346
			c-0.0449-0.1738-0.0986-0.377-0.1592-0.6074c0.1152-0.0303,0.2881-0.0757,0.5186-0.1362
			c0.1738-0.0459,0.4355-0.1143,0.7832-0.2056c0.0713-0.0186,0.1387-0.0083,0.2031,0.0269c0.0645,0.0386,0.1045,0.0928,0.123,0.1631
			c0.0449,0.1738,0.1143,0.4355,0.2061,0.7842c0.0186,0.0703,0.0098,0.1382-0.0264,0.2031
			C27.4551,61.046,27.4004,61.0865,27.3301,61.1051z M27.001,60.9166c-0.0059-0.0215-0.0137-0.0518-0.0244-0.0928
			c-0.0254-0.0957-0.0625-0.2393-0.1123-0.4297c-0.1152,0.0303-0.2891,0.0762-0.5225,0.1372
			c0.0303,0.1152,0.0762,0.2891,0.1367,0.5225C26.5967,61.023,26.7705,60.9771,27.001,60.9166z"/>
		<path class="st1" d="M29.3281,59.1915c0.1367,0.5205,0.3418,1.3008,0.6152,2.3408c0.0195,0.0732,0.0107,0.1401-0.0254,0.2031
			c-0.0391,0.0654-0.0938,0.1069-0.1641,0.1255c-0.2324,0.061-0.5801,0.1523-1.041,0.2734
			c-0.0723,0.019-0.1406,0.0098-0.2041-0.0293c-0.0645-0.0361-0.1064-0.0898-0.125-0.1631
			c-0.0684-0.2588-0.1533-0.584-0.2559-0.9746c-0.1025-0.3896-0.2217-0.8457-0.3584-1.3662
			c0.1152-0.0303,0.2871-0.0757,0.5176-0.1362c0.1221,0.4619,0.3037,1.1553,0.5469,2.083c0.1191-0.0308,0.293-0.0767,0.5234-0.1372
			c-0.1221-0.4639-0.3047-1.1582-0.5469-2.083C28.9258,59.2974,29.0977,59.252,29.3281,59.1915z"/>
		<path class="st1" d="M31.4785,58.9024c0.1377,0.5225,0.3428,1.3037,0.6152,2.3438c-0.1152,0.0303-0.2871,0.0757-0.5186,0.1362
			c-0.1221-0.4639-0.3037-1.1582-0.5469-2.082c-0.1152,0.0303-0.2891,0.0762-0.5225,0.1372
			c0.1221,0.4629,0.3037,1.1572,0.5469,2.082c-0.1152,0.0303-0.2881,0.0757-0.5186,0.1362
			c-0.0762-0.2891-0.1709-0.6504-0.2842-1.083c-0.1143-0.4326-0.2471-0.9395-0.3984-1.5186
			c0.1152-0.0303,0.2871-0.0757,0.5176-0.1362c0.1748-0.0454,0.4355-0.1143,0.7842-0.2056
			c0.0713-0.0186,0.1387-0.0083,0.2031,0.0269C31.4199,58.7779,31.46,58.8321,31.4785,58.9024z"/>
		<path class="st1" d="M33.5605,58.356c0.1367,0.5225,0.3418,1.3037,0.6152,2.3438c-0.1152,0.0303-0.2881,0.0752-0.5195,0.1357
			c-0.1211-0.4639-0.3037-1.1582-0.5459-2.082c-0.1152,0.0303-0.2891,0.0762-0.5225,0.1377
			c0.1221,0.4629,0.3037,1.1572,0.5469,2.082c-0.1152,0.0303-0.2881,0.0752-0.5186,0.1357
			c-0.0762-0.2891-0.1709-0.6504-0.2842-1.083c-0.1143-0.4326-0.2471-0.9395-0.3984-1.5186
			c0.1152-0.0303,0.2871-0.0752,0.5176-0.1357c0.1748-0.0459,0.4355-0.1147,0.7832-0.2061
			c0.0713-0.0186,0.1387-0.0083,0.2031,0.0269C33.502,58.2315,33.542,58.2857,33.5605,58.356z"/>
		<path class="st1" d="M34.6699,58.3443c0.0605,0.2305,0.1064,0.4043,0.1377,0.5225c0.3486-0.0918,0.6094-0.1602,0.7832-0.2061
			c0.0605,0.2305,0.1064,0.4033,0.1357,0.5186c-0.3477,0.0918-0.6094,0.1602-0.7832,0.2061
			c0.0605,0.2305,0.1064,0.4043,0.1367,0.5225c0.4648-0.1221,0.8115-0.2129,1.042-0.2734c0.0605,0.2305,0.1064,0.4033,0.1357,0.5186
			c-0.4609,0.1211-0.8076,0.2119-1.041,0.2734c-0.2305,0.0605-0.4033,0.1055-0.5186,0.1357
			c-0.0605-0.2305-0.1064-0.4033-0.1357-0.5186c-0.0313-0.1182-0.0586-0.2197-0.0811-0.3066s-0.042-0.1592-0.0566-0.2158
			c-0.0684-0.2617-0.1143-0.4346-0.1357-0.5186c-0.0693-0.2617-0.1152-0.4355-0.1377-0.5225
			c-0.0674-0.2588-0.1133-0.4316-0.1357-0.5195c0.2607-0.0684,0.4336-0.1138,0.5176-0.1357
			c0.5234-0.1372,0.8701-0.2285,1.042-0.2734c0.0674,0.2588,0.1133,0.4316,0.1367,0.5195
			C35.25,58.192,34.9033,58.2828,34.6699,58.3443z"/>
		<path class="st1" d="M37.7402,58.3707c0.0713-0.0186,0.1387-0.0078,0.2041,0.0313c0.0635,0.0356,0.1035,0.0908,0.1221,0.1631
			c0.0605,0.2305,0.1523,0.5771,0.2734,1.041c-0.1152,0.0303-0.2871,0.0757-0.5186,0.1362
			c-0.0605-0.2305-0.1514-0.5771-0.2734-1.041c-0.1152,0.0303-0.2891,0.0757-0.5225,0.1372
			c0.0605,0.2305,0.1514,0.5771,0.2734,1.041c-0.1152,0.0303-0.2881,0.0757-0.5186,0.1362
			c-0.0605-0.2305-0.1514-0.5771-0.2734-1.041c-0.0303-0.1152-0.0752-0.2881-0.1357-0.5186
			c-0.0303-0.1152-0.0684-0.2607-0.1143-0.4346s-0.0986-0.377-0.1592-0.6074c0.1152-0.0303,0.2871-0.0757,0.5176-0.1362
			c0.1748-0.0459,0.4355-0.1143,0.7842-0.2061c0.0713-0.0186,0.1387-0.0078,0.2031,0.0273
			c0.0635,0.0386,0.1035,0.0928,0.1221,0.1631c0.0459,0.1738,0.1152,0.4355,0.2061,0.7842
			c0.0186,0.0703,0.0107,0.1382-0.0264,0.2031C37.8662,58.3121,37.8115,58.3521,37.7402,58.3707z M37.4121,58.1827
			c-0.0059-0.0215-0.0137-0.0518-0.0244-0.0928c-0.0254-0.0957-0.0635-0.2393-0.1133-0.4297
			c-0.1152,0.0303-0.2891,0.0757-0.5225,0.1372c0.0303,0.1152,0.0762,0.2891,0.1377,0.5225
			C37.0078,58.2887,37.1816,58.2432,37.4121,58.1827z"/>
	</g>
</g>
<g class="st2">
	<g>
		<path class="st1" d="M32.5479,62.9981c0.1367,0.5205,0.3418,1.3008,0.6152,2.3408c0.0195,0.0732,0.0107,0.1406-0.0264,0.2031
			c-0.0381,0.0654-0.0928,0.1074-0.1631,0.126c-0.2324,0.0605-0.5801,0.1523-1.041,0.2734
			c-0.0732,0.0186-0.1406,0.0098-0.2041-0.0293c-0.0645-0.0361-0.1064-0.0898-0.126-0.1631
			c-0.0674-0.2588-0.1523-0.584-0.2559-0.9746c-0.1016-0.3896-0.2217-0.8457-0.3584-1.3662
			c0.1152-0.0303,0.2881-0.0762,0.5186-0.1367c0.1211,0.4619,0.3037,1.1553,0.5469,2.083c0.1182-0.0303,0.292-0.0762,0.5225-0.1367
			c-0.1221-0.4639-0.3037-1.1582-0.5469-2.083C32.1445,63.1046,32.3174,63.0587,32.5479,62.9981z"/>
		<path class="st1" d="M34.6982,62.7091c0.0605,0.2334,0.1523,0.5801,0.2734,1.041c0.0195,0.0742,0.0107,0.1436-0.0254,0.207
			c-0.0391,0.0635-0.0938,0.1045-0.1641,0.123c-0.1738,0.0449-0.4346,0.1143-0.7832,0.2051
			c0.0605,0.2305,0.1514,0.5771,0.2734,1.041c-0.1152,0.0303-0.2881,0.0762-0.5186,0.1367
			c-0.0303-0.1152-0.0684-0.2598-0.1143-0.4346c-0.0449-0.1709-0.0977-0.374-0.1592-0.6064
			c-0.0303-0.1152-0.0752-0.2881-0.1357-0.5186c-0.0313-0.1182-0.0771-0.292-0.1377-0.5225
			c-0.0303-0.1152-0.0752-0.2891-0.1357-0.5195c0.1152-0.0303,0.2871-0.0762,0.5176-0.1367
			c0.1748-0.0459,0.4355-0.1143,0.7832-0.2051c0.0713-0.0186,0.1387-0.0088,0.2041,0.0264
			C34.6396,62.585,34.6797,62.6387,34.6982,62.7091z M33.8633,63.7667c0.1182-0.0303,0.292-0.0762,0.5225-0.1367
			c-0.0059-0.0215-0.0137-0.0518-0.0244-0.0928c-0.0254-0.0957-0.0635-0.2393-0.1133-0.4297
			c-0.1152,0.0303-0.2891,0.0762-0.5225,0.1367C33.7559,63.3595,33.8018,63.5333,33.8633,63.7667z"/>
	</g>
</g>
<g class="st2">
	<g>
		<path class="st1" d="M19.5537,25.877c0.084-0.0483,0.1738-0.0591,0.2715-0.0332c0.0928,0.0259,0.1641,0.0811,0.2139,0.168
			c0.1582,0.2744,0.3965,0.6885,0.7139,1.2402c-0.1367,0.0791-0.3428,0.1978-0.6172,0.356
			c-0.1582-0.2754-0.3965-0.6885-0.7148-1.2402c-0.1367,0.0791-0.3447,0.1987-0.6221,0.3584
			c0.1582,0.2744,0.3965,0.6885,0.7139,1.2402c-0.1367,0.0791-0.3428,0.1978-0.6172,0.356
			c-0.1582-0.2754-0.3965-0.6885-0.7148-1.2402c-0.0791-0.1377-0.1973-0.3438-0.3555-0.6182
			c-0.0791-0.1377-0.1787-0.3096-0.2979-0.5176c-0.1201-0.207-0.2578-0.4473-0.417-0.7227c0.1377-0.0791,0.3438-0.1978,0.6182-0.356
			c0.208-0.1196,0.5186-0.2983,0.9336-0.5376c0.084-0.0483,0.1738-0.0601,0.2695-0.0381c0.0947,0.0288,0.166,0.084,0.2148,0.1689
			c0.1191,0.207,0.2979,0.5176,0.5361,0.9326c0.0488,0.085,0.0615,0.1743,0.0381,0.2695
			C19.6934,25.7573,19.6377,25.8286,19.5537,25.877z M19.0654,25.7495c-0.0137-0.0244-0.0352-0.0615-0.0625-0.1094
			c-0.0664-0.1152-0.166-0.2861-0.2959-0.5127c-0.1377,0.0791-0.3447,0.1987-0.6221,0.3584
			c0.0791,0.1367,0.1982,0.3447,0.3574,0.6221C18.583,26.0273,18.79,25.9077,19.0654,25.7495z"/>
		<path class="st1" d="M21.4492,22.7251c0.3564,0.6201,0.8916,1.5488,1.6045,2.7871c0.0508,0.0869,0.0635,0.1772,0.0381,0.2695
			c-0.0264,0.0981-0.0811,0.1704-0.165,0.2188c-0.2773,0.1597-0.6914,0.3979-1.2402,0.7144
			c-0.0869,0.0498-0.1777,0.0615-0.2715,0.0327c-0.0957-0.0229-0.1689-0.0786-0.2188-0.1655
			c-0.1777-0.3086-0.4004-0.6953-0.668-1.1602s-0.5801-1.0068-0.9375-1.627c0.1377-0.0791,0.3438-0.1973,0.6182-0.3555
			c0.3164,0.5498,0.792,1.376,1.4287,2.4805c0.1406-0.0811,0.3477-0.2002,0.6221-0.3584c-0.3184-0.5527-0.7939-1.3789-1.4287-2.4805
			C20.9688,23.002,21.1748,22.8833,21.4492,22.7251z"/>
		<path class="st1" d="M24.1064,21.604c0.3584,0.6221,0.8936,1.5518,1.6074,2.791c-0.1377,0.0791-0.3438,0.1978-0.6182,0.356
			c-0.3174-0.5518-0.7939-1.3789-1.4287-2.4805c-0.1367,0.0791-0.3438,0.1987-0.6221,0.3584
			c0.3184,0.5527,0.7949,1.3789,1.4287,2.4805c-0.1377,0.0791-0.3438,0.1978-0.6182,0.356
			c-0.1982-0.3447-0.4463-0.7754-0.7432-1.291c-0.2969-0.5146-0.6436-1.1172-1.041-1.8076c0.1377-0.0791,0.3438-0.1978,0.6182-0.356
			c0.207-0.1191,0.5186-0.2988,0.9326-0.5376c0.084-0.0483,0.1748-0.0601,0.2695-0.0376
			C23.9863,21.4639,24.0576,21.519,24.1064,21.604z"/>
		<path class="st1" d="M26.5869,20.1758c0.3574,0.6221,0.8936,1.5518,1.6074,2.791c-0.1377,0.0791-0.3438,0.1978-0.6182,0.356
			c-0.3174-0.5518-0.7939-1.3789-1.4287-2.4805c-0.1367,0.0791-0.3447,0.1987-0.6221,0.3579
			c0.3184,0.5527,0.7939,1.3789,1.4287,2.4805c-0.1377,0.0791-0.3438,0.1982-0.6182,0.3564
			c-0.1982-0.3447-0.4463-0.7754-0.7432-1.291c-0.2969-0.5146-0.6436-1.1172-1.041-1.8076
			c0.1367-0.0791,0.3428-0.1982,0.6172-0.3564c0.208-0.1191,0.5186-0.2983,0.9336-0.5371c0.084-0.0483,0.1738-0.0601,0.2695-0.0381
			C26.4668,20.0352,26.5381,20.0908,26.5869,20.1758z"/>
		<path class="st1" d="M28.0059,19.772c0.1582,0.2754,0.2783,0.4824,0.3584,0.6221c0.4141-0.2388,0.7256-0.418,0.9326-0.5376
			c0.1592,0.2744,0.2764,0.4805,0.3564,0.6182c-0.415,0.2393-0.7256,0.418-0.9336,0.5376c0.1582,0.2744,0.2773,0.4814,0.3594,0.6221
			c0.5508-0.3179,0.9648-0.5562,1.2393-0.7144c0.1582,0.2744,0.2773,0.4805,0.3555,0.6182
			c-0.5488,0.3164-0.9619,0.5547-1.2393,0.7144c-0.2754,0.1582-0.4814,0.2769-0.6191,0.356
			c-0.1582-0.2754-0.2764-0.4805-0.3555-0.6182c-0.0801-0.1406-0.1504-0.2617-0.21-0.3652
			c-0.0596-0.1045-0.1094-0.1895-0.1475-0.2568c-0.1797-0.3115-0.2988-0.5166-0.3574-0.6182
			c-0.1777-0.3105-0.2969-0.5176-0.3574-0.6221c-0.1777-0.3076-0.2969-0.5146-0.3555-0.6182
			c0.3105-0.1792,0.5166-0.2979,0.6172-0.356c0.623-0.3584,1.0361-0.5962,1.2402-0.7144c0.1777,0.3086,0.2969,0.5146,0.3564,0.6182
			C28.6963,19.374,28.2832,19.6123,28.0059,19.772z"/>
		<path class="st1" d="M31.9541,18.7349c0.084-0.0483,0.1748-0.0591,0.2715-0.0332c0.0938,0.0259,0.1641,0.0811,0.2148,0.168
			c0.1582,0.2744,0.3965,0.6885,0.7139,1.2402c-0.1377,0.0791-0.3428,0.1978-0.6182,0.356
			c-0.1582-0.2754-0.3955-0.6885-0.7139-1.2402c-0.1377,0.0791-0.3447,0.1982-0.6221,0.3584
			c0.1582,0.2744,0.3965,0.6885,0.7139,1.2402c-0.1377,0.0791-0.3428,0.1978-0.6182,0.3555
			c-0.1582-0.2754-0.3955-0.6885-0.7139-1.2402c-0.0791-0.1377-0.1973-0.3438-0.3564-0.6182
			c-0.0781-0.1377-0.1777-0.3096-0.2969-0.5176c-0.1201-0.207-0.2578-0.4473-0.417-0.7227
			c0.1377-0.0786,0.3438-0.1973,0.6182-0.3555c0.207-0.1196,0.5186-0.2988,0.9336-0.5376c0.084-0.0483,0.1738-0.0601,0.2695-0.0381
			c0.0938,0.0288,0.166,0.084,0.2148,0.1689c0.1191,0.207,0.2969,0.5176,0.5361,0.9326c0.0488,0.085,0.0615,0.1743,0.0381,0.2695
			C32.0947,18.6152,32.0381,18.6865,31.9541,18.7349z M31.4658,18.6074c-0.0137-0.0244-0.0342-0.0615-0.0625-0.1094
			c-0.0664-0.1152-0.165-0.2861-0.2949-0.5127c-0.1377,0.0791-0.3457,0.1982-0.623,0.3584
			c0.0801,0.1367,0.1992,0.3447,0.3584,0.6221C30.9834,18.8848,31.1914,18.7656,31.4658,18.6074z"/>
		<path class="st1" d="M36.3311,14.1543c0.3564,0.6201,0.8916,1.5488,1.6045,2.7871c0.0498,0.0869,0.0635,0.1772,0.0381,0.2695
			c-0.0264,0.0981-0.082,0.1704-0.166,0.2188c-0.2773,0.1597-0.6904,0.3979-1.2402,0.7144
			c-0.0859,0.0498-0.1768,0.0615-0.2715,0.0327c-0.0957-0.0229-0.168-0.0781-0.2188-0.165
			c-0.1768-0.3086-0.3994-0.6953-0.668-1.1602c-0.2676-0.4648-0.5801-1.0068-0.9365-1.627c0.1377-0.0791,0.3428-0.1978,0.6182-0.356
			c0.3164,0.5498,0.792,1.376,1.4277,2.4805c0.1406-0.0806,0.3477-0.2002,0.623-0.3584c-0.3184-0.5527-0.7949-1.3789-1.4287-2.4805
			C35.8496,14.4312,36.0557,14.3125,36.3311,14.1543z"/>
		<path class="st1" d="M38.9883,13.0337c0.1592,0.2764,0.3975,0.6904,0.7139,1.2393c0.0498,0.0879,0.0625,0.1777,0.0391,0.2734
			c-0.0273,0.0952-0.083,0.1665-0.167,0.2148c-0.208,0.1191-0.5186,0.2983-0.9336,0.5376c0.1582,0.2744,0.3965,0.6885,0.7139,1.2402
			c-0.1367,0.0791-0.3428,0.1973-0.6172,0.3555c-0.0791-0.1377-0.1787-0.3096-0.2979-0.5176
			c-0.1182-0.2041-0.2568-0.4453-0.417-0.7227c-0.0791-0.1377-0.1973-0.3438-0.3555-0.6182
			c-0.0801-0.1396-0.2002-0.3467-0.3584-0.6221c-0.0791-0.1367-0.1973-0.3428-0.3564-0.6182
			c0.1377-0.0791,0.3438-0.1978,0.6182-0.3555c0.208-0.1196,0.5186-0.2988,0.9336-0.5376c0.084-0.0483,0.1738-0.0601,0.2695-0.0381
			C38.8682,12.8931,38.9395,12.9487,38.9883,13.0337z M38.2842,14.6807c0.1406-0.0811,0.3477-0.2002,0.623-0.3584
			c-0.0137-0.0244-0.0352-0.0615-0.0625-0.1094c-0.0664-0.1152-0.166-0.2861-0.2959-0.5127
			c-0.1377,0.0791-0.3447,0.1982-0.6221,0.3584C38.0059,14.1953,38.125,14.4033,38.2842,14.6807z"/>
	</g>
</g>
<g class="st2">
	<g>
		<path class="st1" d="M92.1969,98.057l0.9463,2.2275l-0.7998,0.458l-0.6338-2.4063L92.1969,98.057z"/>
	</g>
</g>
<g class="st2">
	<g>
		<path class="st1" d="M95.0973,97.0141c0.6152,1.0762,1.5371,2.6855,2.7637,4.8262c-0.2383,0.1367-0.5938,0.3398-1.0693,0.6123
			c-0.5459-0.9541-1.3652-2.3838-2.4561-4.2891c-0.1211,0.0693-0.3008,0.1719-0.5371,0.3076
			c-0.0664-0.1162-0.1514-0.2637-0.2539-0.4434c-0.1025-0.1787-0.2227-0.3867-0.3584-0.625
			c0.2373-0.1357,0.5938-0.3398,1.0684-0.6123c0.1504-0.0859,0.3076-0.1084,0.4736-0.0674
			C94.8903,96.7709,95.0133,96.8686,95.0973,97.0141z"/>
		<path class="st1" d="M99.0856,99.0063c0.0664,0.1162,0.168,0.2949,0.3076,0.5371c0.2412-0.1377,0.6006-0.3438,1.0752-0.6152
			c-0.1387-0.2422-0.3438-0.6016-0.6152-1.0762c-0.3594,0.2061-0.8945,0.5117-1.6074,0.9199
			c-0.1494,0.0859-0.3047,0.1074-0.4648,0.0645c-0.168-0.0459-0.2949-0.1436-0.3809-0.2939
			c-0.1357-0.2373-0.3066-0.5361-0.5117-0.8945s-0.4434-0.7754-0.7158-1.25c-0.083-0.1455-0.1025-0.3027-0.0566-0.4697
			c0.0439-0.1602,0.1396-0.2832,0.29-0.3691c0.4746-0.2725,1.1895-0.6816,2.1445-1.2285c0.1455-0.083,0.3008-0.1035,0.4658-0.0625
			c0.1631,0.0479,0.2861,0.1445,0.3691,0.291c0.5459,0.9541,1.3652,2.3838,2.4561,4.2871c0.0859,0.1514,0.1074,0.3057,0.0625,0.4658
			c-0.0449,0.168-0.1406,0.2939-0.2852,0.377c-0.4805,0.2744-1.1953,0.6836-2.1445,1.2275
			c-0.1504,0.0859-0.3066,0.1045-0.4707,0.0566c-0.1641-0.041-0.2891-0.1357-0.375-0.2871
			c-0.1367-0.2373-0.3398-0.5928-0.6123-1.0684C98.2536,99.4818,98.61,99.2777,99.0856,99.0063z M99.2409,96.7836
			c-0.0244-0.0439-0.0615-0.1064-0.1084-0.1885c-0.1133-0.1992-0.2832-0.4941-0.5078-0.8877
			c-0.2383,0.1367-0.5957,0.3418-1.0762,0.6162c0.1367,0.2373,0.3418,0.5967,0.6172,1.0762
			C98.4069,97.2611,98.7653,97.0561,99.2409,96.7836z"/>
	</g>
</g>
<g>
	<g>
		<g>
			<path class="st1" d="M44.75,80.5333h1.3c0.2,0,0.3-0.1,0.4-0.2s0.1-0.2,0-0.3l-0.6-0.8l5.8,1.9c0.1,0,0.3,0,0.4,0l8.5-2.7
				c-0.1-0.2-0.1-0.5-0.1-0.7l-8.5,2.7l-6.9-2.3c-0.2-0.1-0.4,0-0.5,0.1s-0.2,0.3-0.1,0.4l0.9,1.2h-2.2c-0.2,0-0.4,0.1-0.5,0.2
				s0,0.3,0.2,0.4l9.4,4.3c0.1,0,0.2,0.1,0.3,0.1l0,0l6.7-0.3c0.1-0.2,0.3-0.5,0.4-0.7l-7.1,0.3L44.75,80.5333z"/>
		</g>
		<g>
			<path class="st1" d="M46.65,82.1333c-0.1,0-0.2,0-0.2,0l-3.5-1.6c-0.2-0.1-0.2-0.2-0.2-0.3s0.2-0.2,0.4-0.2h2.3l-0.9-1.2
				c-0.1-0.1-0.1-0.3,0.1-0.4c0.1-0.1,0.3-0.1,0.5-0.1l3.7,1.3c0.1,0,0.2,0.1,0.2,0.2s0,0.2-0.1,0.3l-1.9,2.1
				C46.95,82.1333,46.85,82.1333,46.65,82.1333z M44.65,80.5333l1.9,0.9l1.4-1.5l-2.1-0.7l0.7,0.9c0.1,0.1,0.1,0.2,0,0.3
				c-0.1,0.1-0.2,0.1-0.4,0.1C46.1501,80.5333,44.65,80.5333,44.65,80.5333z"/>
		</g>
		<g>
			<path class="st1" d="M64.85,96.2333l0.8,4h-1.1l-3.5-6c-0.6-0.4-0.9-1-1.2-1.6c-0.1,0-0.1,0-0.2,0.1c-0.1,0.1-0.1,0.3-0.1,0.4
				l4.5,7.7c0.1,0.1,0.2,0.2,0.3,0.2h1.7c0.1,0,0.2,0,0.3-0.1s0.1-0.2,0.1-0.3l-0.9-4.1C65.25,96.3333,65.05,96.3333,64.85,96.2333z
				"/>
		</g>
		<g>
			<path class="st1" d="M88.95,64.0333l0.9-0.7c0.1-0.1,0.1-0.2,0.1-0.3c0-0.1-0.1-0.2-0.2-0.3l-2.5-0.8c0,0.2,0,0.5,0,0.7l1.6,0.6
				l-0.8,0.6c-0.1,0.1-0.1,0.2-0.1,0.3c0,0.1,0.1,0.2,0.1,0.3c0,0,3.1,2.2,3.1,4.4l-1.6-0.5c-0.1,0-0.3,0-0.4,0.1
				c-0.1,0.1-0.1,0.3,0,0.4c0,0,0.7,1,1.2,2.6c0.6,1.9,0.6,3.7,0,5.4l-1.8-1.2c-0.1-0.1-0.2-0.1-0.3,0c-0.1,0-0.2,0.1-0.2,0.3
				l-0.5,3.6c0.2,0,0.5,0.1,0.7,0.2l0.4-3.1l1.7,1.2c0.1,0.1,0.2,0.1,0.3,0c0.1,0,0.2-0.1,0.2-0.2c1-2.5,0.7-4.8,0.2-6.3
				c-0.2-0.8-0.5-1.5-0.8-1.9l1.1,0.4c0.1,0,0.2,0,0.3,0c0.1-0.1,0.1-0.1,0.2-0.2C92.35,67.0333,89.95,64.8333,88.95,64.0333z"/>
		</g>
		<g>
			<path class="st1" d="M83.05,84.1333l-1.4,3.8l0,0c-0.6,2.3-1.9,4.5-3.8,5.9c-1.9,1.5-4.2,2.3-6.7,2.3h-4.6
				c-2.6,0-5.1-1.3-6.5-3.6c-1.2-1.9-1.5-4.2-0.8-6.3l1.2-3.8v-0.1l0.2-6.4c-0.4-0.6-0.6-1.2-0.6-1.9l-0.2,8.2l-1.2,3.8
				c-0.7,2.3-0.4,4.8,0.9,6.9c1.5,2.4,4.2,3.9,7.1,3.9h4.6c2.6,0,5.1-0.9,7.1-2.5s3.4-3.8,4-6.3l1.1-3
				C83.25,84.8333,83.15,84.5333,83.05,84.1333z"/>
		</g>
		<g>
			<path class="st1" d="M81.05,90.5333c-0.2-0.1-0.4,0-0.5,0.1l-5,9.6l-1.1,0.4l-0.6-4.4c-0.2,0.1-0.4,0.1-0.7,0.2l0.6,4.7
				c0,0.1,0.1,0.2,0.2,0.2c0.1,0,0.1,0,0.2,0h0.1l1.6-0.6c0.1,0,0.1-0.1,0.2-0.2l5.1-9.7C81.35,90.8333,81.25,90.6333,81.05,90.5333
				z"/>
		</g>
		<g>
			<path class="st1" d="M86.95,88.0333L86.95,88.0333l-9.9-0.1c-0.1,0-0.2-0.1-0.3-0.2s0-0.3,0-0.4l1.1-1.5l-1.3-0.6
				c-0.1-0.1-0.2-0.2-0.2-0.4c0-0.2,0.2-0.3,0.3-0.3l6.4-0.2l-0.6-5.3c0-0.2,0.1-0.4,0.3-0.4s0.4,0.1,0.4,0.3l0.6,5.6
				c0,0.1,0,0.2-0.1,0.3c-0.1,0.1-0.2,0.1-0.2,0.1l-5.2,0.2l0.3,0.1c0.1,0,0.2,0.1,0.2,0.2s0,0.2-0.1,0.3l-0.9,1.3l9,0.1l1.2-9.2
				c0-0.2,0.2-0.3,0.4-0.3s0.3,0.2,0.3,0.4l-1.2,9.5C87.25,87.9333,87.15,88.0333,86.95,88.0333z"/>
		</g>
		<g>
			<path class="st1" d="M82.85,81.2333L82.85,81.2333l-2-0.4c-0.2,0-0.3-0.2-0.3-0.4c0-0.2,0.2-0.3,0.4-0.3l2,0.3
				c0.2,0,0.3,0.2,0.3,0.4C83.15,81.1333,83.05,81.2333,82.85,81.2333z"/>
		</g>
		<g>
			<path class="st1" d="M66.05,100.8333h-1.7c-0.1,0-0.2-0.1-0.3-0.2l-0.6-1c-0.1-0.1-0.1-0.2,0-0.3c0.1-0.1,0.2-0.2,0.3-0.2h2.1
				c0.1,0,0.3,0.1,0.3,0.2l0.2,1c0,0.1,0,0.2-0.1,0.3C66.25,100.8333,66.15,100.8333,66.05,100.8333z M64.55,100.2333h1.1l-0.1-0.4
				h-1.3L64.55,100.2333z"/>
		</g>
		<g>
			<path class="st1" d="M74.25,101.5333c-0.1,0-0.1,0-0.2,0c-0.1,0-0.1-0.1-0.1-0.2l-0.2-1.5c0-0.1,0-0.2,0.1-0.2
				c0.1-0.1,0.1-0.1,0.2-0.1h2.3c0.1,0,0.2,0.1,0.3,0.1s0.1,0.2,0,0.3l-0.4,0.8c0,0.1-0.1,0.1-0.2,0.1l-1.6,0.6
				C74.25,101.5333,74.25,101.5333,74.25,101.5333z M74.35,100.0333l0.1,0.7l1.2-0.4l0.2-0.3
				C75.85,100.0333,74.35,100.0333,74.35,100.0333z"/>
		</g>
		<g>
			<path class="st1" d="M91.75,50.8333l-0.1-0.3l-0.3,0.1c-4,1.6-5.5,0.1-5.8-0.3l0.1-5.4l-0.2-0.1c-2.4-1.1-5.3-0.5-6.6-0.2
				l0.4-1.6l-0.3-0.1c-3.4-1.2-6.7-0.2-8.1,0.3l0.2-1.4h-0.4c-2.9,0-5.1,1.1-6.5,2.3l0.2,0.3l0,0l0.2,0.3c1.3-1,3.1-2.1,5.7-2.2
				l-0.3,1.9l0.7-0.3c0,0,3.9-1.9,7.8-0.7l-0.6,2.3l0.7-0.2c0,0,3.7-1.2,6.5-0.1v0.4l-0.1,4.7l0.1,0.1c0,0,0.4,0.6,1.2,1
				c0.9,0.4,2.2,0.7,4.4,0.1c0.3-0.1,0.6-0.2,0.9-0.3c0.1,0.3,0.1,0.7,0,1.1c0,0.1,0,0.1,0,0.2c0,0.1,0,0.1-0.1,0.2c0,0,0,0,0,0.1
				s-0.1,0.2-0.2,0.3c0,0,0,0.1-0.1,0.1c-0.2,0.3-0.5,0.6-0.9,0.9c-0.3,0.2-0.7,0.4-1.2,0.6l-0.3,0.1l0,0c-0.3,0.1-2.2,0.7-2.7,0.4
				c-0.1,0-0.1-0.1-0.2-0.2c-0.1-0.1-0.1-0.2-0.2-0.3c0-0.1-0.1-0.2-0.1-0.3c-0.1-0.2-0.1-0.4-0.1-0.4s-0.1,0.2-0.2,0.6
				c0,0.1-0.1,0.3-0.1,0.4c0,0.1,0,0.3,0,0.4c0,0.3,0.1,0.5,0.4,0.7c0.5,0.3,1.7,0.1,2.5-0.2c0.3-0.1,0.6-0.2,0.8-0.2l0.4,1.5
				l-1.6,1.2l1.2,1.8l-1.9,1l0.5,2.2h-2.4l-0.1,2.1h-2.5l-0.3,2.5h-2l-0.5,2l-1,0.2l-1.4,0.3l-1.5,4.2l-3.5,0.2l-3.9,3.4l-0.6-1.5
				l-2.3,1.6l-0.4,0.3l-0.4,0.3l-0.8,0.5l-0.1-3l-2.2,1.4l-0.9-4.4l-1.7-0.1l-2-3.3l-2.2-1c-0.7-1.3-0.4-2.4-0.4-2.5l0.2-0.6l-2,0.2
				c-1.1-2.1-2.2-4.9-3-7.2c0-0.1,0-0.1,0-0.1h-0.1c-0.5-1.5-0.9-2.7-1-3.2l1.5-0.6l0,0l0,0l-1.2-2c0.5-0.4,1-0.6,1.4-0.8
				c0.9-0.4,1.7-0.5,2-0.5h0.7l0,0l0,0l0,0l-1.3-2.2c0.4-0.3,0.8-0.5,1.2-0.7c2.1-0.9,4.3-0.7,4.3-0.6l0.7,0.1l0,0l0,0l-1.1-2.2
				c0.2-0.1,0.5-0.2,0.7-0.2c0.1,0,0.3-0.1,0.4-0.1l-0.1-0.4c-0.1,0-0.2,0-0.4,0.1l0,0l0,0c0.1,0,0.2-0.1,0.4-0.1l-0.1-0.4
				c-0.6,0.1-1.1,0.3-1.7,0.6l-0.4,0.2l0.9,1.6c-1.2,0-3.7,0.1-5.6,1.8l-0.2,0.2l1,1.7c-0.8,0.1-2.1,0.5-3.5,1.6l-0.3,0.2l1,1.8
				l-1.3,0.5l0.1,0.3c0,0.1,0.5,1.7,1.1,3.7c-0.2,0.5-0.7,1.2-1.7,1.4l0,0l-0.4,0.1l0.2,0.4c0,0,1,2,3,1.5c0.1,0,0.1,0,0.2-0.1
				c0.6,1.5,1.3,3,2,4.3l0.1,0.2l1.4-0.2c-0.1,0.6,0,1.6,0.6,2.6l0.1,0.1l2.2,1l2.1,3.4l1.6,0.1l1,4.9l2-1.3l0.1,3.1l1.0997-0.7
				l0.2-0.2l0.1-0.1l0,0l0.4-0.3l2.1-1.5l0.6,1.6l4-3.5l0.5-0.5l3.7-0.2l1.5-4.3l2.5-0.6l0.5-1.9h2.1l0.3-2.5h2.5l0.1-2.2h2.6
				l-0.5-2.6l2.2-1.1l-1.3-1.9l1.4-1.1l-0.4-1.4l-0.2-0.7c1.2-0.5,2-1.2,2.4-2.1c0-0.1,0-0.1,0.1-0.2l0,0c0-0.1,0.1-0.2,0.1-0.3l0,0
				c0-0.1,0-0.2,0.1-0.3l0,0v-0.1C92.05,51.4333,91.85,50.8333,91.75,50.8333z M47.45,61.6333c0.7-0.3,1.2-0.7,1.5-1.1
				c0.2,0.6,0.4,1.2,0.7,1.9C48.45,62.7333,47.75,62.1333,47.45,61.6333z"/>
		</g>
		<g>
			<path class="st1" d="M65.25,46.3333l-0.5-0.8l-0.5-0.8l-0.2-0.3l0,0l-0.2-0.3l-6-10.8c-0.3-0.4-0.7-0.6-1.2-0.5
				c-0.5,0.2-0.8,0.6-0.7,1.1l1.7,11.6l0.1,0.4l0.1,0.4l0.4,2.5l0,0l0,0c0,0.2,0.5,1.6,4.2,0.6l0,0c1.5-0.4,2.5-1,2.9-1.8
				C65.45,46.9333,65.25,46.4333,65.25,46.3333L65.25,46.3333z M62.05,48.8333c-2.7,0.7-3.3,0-3.3-0.1l-0.3-1.8
				c0.9,0.6,2.8,1.5,5.5,0.8c0.1,0,0.1,0,0.2-0.1c0.1,0,0.1,0,0.2-0.1c0,0.1-0.1,0.1-0.2,0.2
				C63.85,48.1333,63.25,48.5333,62.05,48.8333L62.05,48.8333z M56.55,33.9333c0-0.2,0.1-0.3,0.2-0.4l0,0c0.1,0,0.3,0,0.4,0.2
				l0.3,0.6c-0.1,0-0.3,0-0.4-0.1c-0.2,0-0.4-0.1-0.5-0.2V33.9333z M57.55,34.9333c0.1,0,0.3,0,0.5,0l1.5,2.6c-0.2,0-0.4,0-0.6,0
				c-0.6,0-1.3-0.2-1.9-0.4l-0.3-2.3C56.95,34.8333,57.25,34.8333,57.55,34.9333z M59.25,38.2333c0.2,0,0.4,0,0.6,0l1.4,2.5
				c-0.2,0-0.5,0.1-0.7,0.1c-1.3,0.1-2.4-0.3-3.1-0.7l-0.3-2.3C57.85,38.1333,58.55,38.2333,59.25,38.2333z M60.95,41.4333
				c0.2,0,0.5-0.1,0.7-0.1l1.4,2.4c-0.3,0.1-0.5,0.1-0.8,0.2c-2.1,0.4-3.6-0.4-4.3-0.8l-0.3-2.2
				C58.45,41.3333,59.55,41.5333,60.95,41.4333z M58.25,45.4333l-0.2-1.5c0.9,0.5,2.5,1,4.5,0.6c0.2,0,0.3-0.1,0.5-0.1
				c0.1,0,0.2-0.1,0.3-0.1l0.1,0.1l0.2,0.3l0.2,0.3l0.8,1.5v0.1c-0.3,0.1-0.6,0.2-0.8,0.3c-2.7,0.8-4.5-0.3-5.2-0.8
				c-0.1-0.1-0.2-0.2-0.3-0.2v-0.2L58.25,45.4333z"/>
		</g>
		<g>
			<g>
				<path class="st1" d="M73.25,64.4333c-1.7,0-3.4-0.4-4.9-1.3c-2.3-1.3-3.9-3.4-4.6-6c-0.7-2.6-0.4-5.2,1-7.5
					c1.3-2.3,3.4-3.9,6-4.6c2.6-0.7,5.2-0.4,7.5,1c2.3,1.3,3.9,3.4,4.6,6l0,0c0.7,2.6,0.4,5.2-1,7.5c-1.3,2.3-3.4,3.9-6,4.6
					C75.05,64.3333,74.15,64.4333,73.25,64.4333z M73.35,46.3333c-0.7,0-1.4,0.1-2.2,0.3c-4.4,1.2-6.9,5.7-5.8,10.1
					c1,3.6,4.3,6,7.9,6c0.7,0,1.4-0.1,2.1-0.3c2.1-0.6,3.9-1.9,5-3.8c1.1-1.9,1.4-4.1,0.8-6.2c-0.6-2.1-1.9-3.9-3.8-5
					C76.15,46.7333,74.75,46.3333,73.35,46.3333z"/>
			</g>
			<g>
				<path class="st1" d="M54.85,67.5333c-2.4,0-4.9-2.6-5.9-6.4c-0.5-1.9-0.6-3.9-0.2-5.5c0.5-1.8,1.5-3,2.8-3.3
					c1.3-0.4,2.8,0.1,4.1,1.4c1.2,1.2,2.1,2.9,2.7,4.8l0,0c1.2,4.2,0,8.1-2.7,8.8C55.35,67.5333,55.05,67.5333,54.85,67.5333z
					 M52.35,53.9333c-0.1,0-0.3,0-0.4,0.1c-0.7,0.2-1.3,1-1.6,2.1c-0.3,1.3-0.3,3,0.2,4.6c0.4,1.7,1.2,3.1,2.2,4.1
					c0.8,0.8,1.7,1.2,2.4,1s1.3-1,1.6-2.1c0.3-1.3,0.3-3-0.2-4.6l0,0c-0.4-1.7-1.2-3.1-2.2-4.1
					C53.75,54.3333,53.05,53.9333,52.35,53.9333z"/>
			</g>
			<g>
				<path class="st1" d="M57.45,60.8333c-0.4,0-0.7-0.3-0.8-0.6c-0.1-0.5,0.1-0.9,0.6-1.1l7.8-2.1c0.5-0.1,0.9,0.1,1.1,0.6
					c0.1,0.5-0.1,0.9-0.6,1.1l-7.8,2.1C57.55,60.8333,57.55,60.8333,57.45,60.8333z"/>
			</g>
			<g>
				<path class="st1" d="M81.45,53.5333c-0.4,0-0.7-0.3-0.8-0.6c-0.1-0.5,0.1-0.9,0.6-1.1l8.2-2.2c0.5-0.1,0.9,0.1,1.1,0.6
					c0.1,0.5-0.1,0.9-0.6,1.1l-8.2,2.2C81.65,53.4333,81.55,53.5333,81.45,53.5333z"/>
			</g>
		</g>
		<g>
			<path class="st1" d="M70.85,64.9333c0.6-0.8,0.7-1.7,0.4-2.3c-0.6-1.1-2.6-1.1-4.4-0.1c-0.9,0.5-1.6,1.3-2,2l0,0
				c-2.5,3-3.8,2-3.8,2l0,0c-0.4-0.4-1-0.7-1.7-0.8c-0.6-0.1-1.2-0.1-1.6,0.1c-0.5,0.2-0.9,0.5-1,0.9c-0.1,0.8,0.8,1.6,2.1,1.9
				c0.3,0,0.5,0.1,0.8,0.1c0.1,0,0.2,0,0.3,0C59.95,68.6333,68.15,68.5333,70.85,64.9333z M68.65,63.9333c0.4-0.7,1-1.2,1.4-1
				c0.3,0.2,0.3,0.9-0.1,1.7c-0.4,0.7-1,1.2-1.4,1S68.25,64.6333,68.65,63.9333z M59.15,67.8333
				C59.15,67.9333,59.15,67.9333,59.15,67.8333c-0.1,0.1-0.3,0.1-0.6,0c-0.1,0-0.3-0.1-0.4-0.2c-0.4-0.3-0.6-0.7-0.5-0.8
				c0.1-0.2,0.6-0.1,1,0.2C59.15,67.3333,59.35,67.7333,59.15,67.8333z"/>
		</g>
		<g>
			<path class="st1" d="M76.95,87.9333c-0.1,0-0.2-0.1-0.3-0.2s0-0.2,0-0.3l1.1-1.5l-1.4-0.6c-0.1-0.1-0.2-0.2-0.2-0.3
				c0-0.1,0.2-0.2,0.3-0.2l3-0.1l0,0c0.2,0,0.3,0.1,0.3,0.3l0.3,2.7c0,0.1,0,0.2-0.1,0.2c-0.1,0.1-0.1,0.1-0.2,0.1L76.95,87.9333
				L76.95,87.9333z M77.95,85.3333l0.5,0.2c0.1,0,0.1,0.1,0.2,0.2c0,0.1,0,0.2,0,0.3l-1,1.3h1.9l-0.2-2H77.95z"/>
		</g>
		<g>
			<path class="st1" d="M68.75,70.0333c1.3-0.1,2.5-0.6,3.5-1.3c0.5-0.3,0.9-0.7,1.3-1.2c0.2-0.2,0.4-0.4,0.5-0.7
				c0-0.1,0-0.3-0.1-0.4c-0.1-0.4-0.1-0.7-0.4-1c-0.3-0.3-0.7-0.5-1.1-0.5c-0.9,0-1.5,0.9-1.3,1.8c0.1,0.6,0.2,1.2,0.4,1.8
				c0.1,0.4,0.7,0.2,0.7-0.2c-0.1-0.6-0.3-1.2-0.4-1.9c-0.1-0.6,0.7-1.1,1.2-0.7c0.3,0.2,0.3,0.7,0.4,1.1c0-0.1,0-0.2,0-0.3
				c-1,1.5-2.7,2.5-4.6,2.7C68.35,69.4333,68.25,70.1333,68.75,70.0333L68.75,70.0333z"/>
		</g>
		<g>
			<g>
				<path class="st1" d="M53.05,28.5333l0.6,0.1c0.6,0.1,1.2,0.3,1.8,0.4h0.1l0,0c0,0,0.1,0,0.1-0.1c0.1-0.1,0.2-0.3,0.3-0.4
					l1.2-1.4c0,0,0.1-0.1,0.1-0.2s0-0.1-0.1-0.2c-1-0.9-2-1.8-3-2.7c0,0-0.1-0.1-0.2-0.1l0,0h-0.1l0,0c-0.1,0.1-0.1,0.1-0.1,0.2
					c-0.3,1-0.5,2-0.8,3.1l-0.2,0.8c0,0.1,0,0.1,0,0.2C52.85,28.4333,52.95,28.4333,53.05,28.5333z M54.55,25.0333l1.8,1.6h-0.3
					c-0.3,0-0.7-0.1-1.1-0.1C54.85,26.0333,54.65,25.5333,54.55,25.0333z M55.55,28.3333l-0.4-1.3l1.5,0.2L55.55,28.3333z
					 M54.55,26.6333L54.55,26.6333L54.55,26.6333L54.55,26.6333z M54.05,25.2333c0.1,0.5,0.3,1,0.5,1.4c-0.4,0.3-0.7,0.6-1.1,0.9
					L54.05,25.2333z M54.65,27.1333l0.4,1.3l-1.5-0.4L54.65,27.1333z"/>
			</g>
			<g>
				<path class="st1" d="M57.35,27.6333c-0.1,0-0.1,0.1-0.2,0.1l-0.6,0.6c-0.3,0.4-0.6,0.7-1,1.1c-0.6-0.1-1.1-0.3-1.7-0.4l-0.4-0.1
					c-0.1,0-0.1,0-0.2,0c-0.1,0-0.2,0-0.2,0.1c-0.1,0-0.1,0.1-0.1,0.2s0.1,0.2,0.1,0.2c1,0.7,1.9,1.4,2.8,2.1c0,0,0.1,0.1,0.2,0.1
					l0,0h0.1l0,0c0.1,0,0.1-0.1,0.1-0.2c0.3-0.8,0.6-1.7,0.8-2.5l0.2-0.6c0-0.1,0.1-0.2,0.1-0.3c0-0.1,0-0.2,0-0.2
					C57.45,27.6333,57.45,27.6333,57.35,27.6333z M56.25,30.5333l-0.2-0.8c0.3-0.3,0.5-0.6,0.8-0.9L56.25,30.5333z M55.55,29.9333
					c0.1,0.3,0.2,0.5,0.2,0.8l-1.4-1.1C54.75,29.7333,55.15,29.8333,55.55,29.9333z"/>
			</g>
			<g>
				
					<ellipse transform="matrix(0.9713 -0.2377 0.2377 0.9713 -4.6709 14.9404)" class="st1" cx="59.6156" cy="26.8381" rx="0.3" ry="0.3"/>
			</g>
			<g>
				
					<ellipse transform="matrix(0.9713 -0.2377 0.2377 0.9713 -6.4989 13.7654)" class="st1" cx="53.8292" cy="33.8305" rx="0.3" ry="0.3"/>
			</g>
		</g>
		<g>
			<path class="st1" d="M52.05,31.7333c-0.1-0.1-0.2,0-0.3,0.1l-0.2,0.3l-0.3-0.2c-0.1-0.1-0.2,0-0.3,0.1s0,0.2,0.1,0.3l0.3,0.2
				l-0.2,0.3c-0.1,0.1,0,0.2,0.1,0.3h0.1c0,0,0.1,0,0.1-0.1l0.2-0.3l0.3,0.2h0.1c0,0,0.1,0,0.1-0.1c0.1-0.1,0-0.2-0.1-0.3l-0.3-0.2
				l0.2-0.3C52.15,31.9333,52.15,31.7333,52.05,31.7333z"/>
		</g>
		<g>
			<path class="st1" d="M59.85,23.4333l0.2-0.3c0.1-0.1,0-0.2-0.1-0.3c-0.1-0.1-0.2,0-0.3,0.1l-0.2,0.3l-0.3-0.2
				c-0.1-0.1-0.2,0-0.3,0.1s0,0.2,0.1,0.3l0.3,0.2l-0.2,0.3c-0.1,0.1,0,0.2,0.1,0.3c0,0,0.1,0,0.2,0c0,0,0.1,0,0.1-0.1l0.2-0.3
				l0.3,0.2c0,0,0.1,0,0.2,0c0,0,0.1,0,0.1-0.1c0.1-0.1,0-0.2-0.1-0.3L59.85,23.4333z"/>
		</g>
		<g>
			<path class="st1" d="M58.75,30.5333c-0.1,0.1,0,0.2,0.1,0.3l0.3,0.2l-0.2,0.3c-0.1,0.1,0,0.2,0.1,0.3c0,0,0.1,0,0.2,0
				c0,0,0.1,0,0.1-0.1l0.2-0.3l0.3,0.2c0,0,0.1,0,0.2,0c0,0,0.1,0,0.1-0.1c0.1-0.1,0-0.2-0.1-0.3l-0.3-0.2l0.2-0.3
				c0.1-0.1,0-0.2-0.1-0.3s-0.2,0-0.3,0.1l-0.2,0.3l-0.3-0.2C58.95,30.4333,58.85,30.4333,58.75,30.5333z"/>
		</g>
		<g>
			
				<ellipse transform="matrix(0.9713 -0.2377 0.2377 0.9713 -4.0072 14.2578)" class="st1" cx="57.1167" cy="23.745" rx="0.3" ry="0.3"/>
		</g>
		<g>
			
				<ellipse transform="matrix(0.9713 -0.2377 0.2377 0.9713 -5.4118 13.0073)" class="st1" cx="51.2291" cy="28.9439" rx="0.3" ry="0.3"/>
		</g>
		<g>
			<path class="st1" d="M72.75,68.0333c-0.1,0-0.2-0.1-0.2-0.1l-0.2-1.1c0-0.1,0-0.2,0.1-0.2s0.2,0,0.2,0.1l0.2,1.1
				C72.95,67.8333,72.95,67.9333,72.75,68.0333L72.75,68.0333z"/>
		</g>
		<g>
			<path class="st1" d="M55.15,58.8333L55.15,58.8333c-0.1-0.3-0.3-0.4-0.6-0.3c-0.2,0-0.3,0.2-0.4,0.3l0,0c-0.1,0.4,0,1,0.1,1.6
				s0.4,1,0.6,1.3c0,0,0,0.1,0.1,0.1l0,0c0.1,0.1,0.2,0.1,0.4,0.1h0.1c0.3-0.1,0.4-0.3,0.4-0.5c0,0,0,0,0-0.1c0,0,0,0,0-0.1
				c-0.2-0.3-0.4-0.7-0.5-1.2S55.15,59.3333,55.15,58.8333C55.15,58.9333,55.15,58.8333,55.15,58.8333z"/>
		</g>
		<g>
			<path class="st1" d="M72.25,53.8333L72.25,53.8333c-0.1-0.3-0.4-0.4-0.6-0.4c-0.2,0.1-0.4,0.2-0.4,0.4l0,0
				c-0.1,0.5-0.1,1.1,0.1,1.8c0.2,0.7,0.5,1.3,0.8,1.6l0,0c0.1,0.1,0.3,0.2,0.5,0.1c0,0,0,0,0.1,0c0.3-0.1,0.4-0.3,0.4-0.5v-0.1l0,0
				l0,0c-0.2-0.4-0.4-0.8-0.6-1.4C72.25,54.9333,72.25,54.3333,72.25,53.8333C72.25,53.9333,72.25,53.9333,72.25,53.8333z"/>
		</g>
	</g>
</g>
<g>
	<g>
		<path class="st1" d="M79.85,91.2333h-20.2c-0.9,0-0.9,0.6,0,0.6h20.2C80.85,91.8333,80.85,91.2333,79.85,91.2333z"/>
	</g>
</g>
<g>
	<g>
		<g>
			<path class="st1" d="M40.85,42.2333l-2.7,3.4c-0.4,0.5,0.4,1.1,0.8,0.6l2.7-3.4C42.05,42.3333,41.25,41.7333,40.85,42.2333z"/>
		</g>
		<g>
			<path class="st1" d="M42.85,40.6333c-0.5-0.4-1.1,0.4-0.6,0.8C42.75,41.8333,43.35,41.0333,42.85,40.6333z"/>
		</g>
	</g>
</g>
<g>
	<g>
		<g>
			<path class="st1" d="M30.35,41.7333l1,4.2c0.2,0.6,1.1,0.4,1-0.3l-1-4.2C31.15,40.8333,30.15,41.1333,30.35,41.7333z"/>
		</g>
		<g>
			<path class="st1" d="M30.25,39.1333c-0.6,0.2-0.4,1.1,0.3,1C31.15,39.9333,30.85,39.0333,30.25,39.1333z"/>
		</g>
	</g>
</g>
<g>
	<g>
		<g>
			<path class="st1" d="M21.55,44.3333l1.8,3.9c0.3,0.6,1.2,0.1,0.9-0.4l-1.8-3.9C22.15,43.3333,21.25,43.7333,21.55,44.3333z"/>
		</g>
		<g>
			<path class="st1" d="M20.95,41.8333c-0.6,0.3-0.1,1.2,0.4,0.9C21.95,42.4333,21.55,41.5333,20.95,41.8333z"/>
		</g>
	</g>
</g>
<g>
	<g>
		<g>
			<path class="st1" d="M14.45,50.7333l3.6,2.4c0.5,0.4,1.1-0.5,0.5-0.8l-3.6-2.4C14.45,49.4333,13.95,50.3333,14.45,50.7333z"/>
		</g>
		<g>
			<path class="st1" d="M12.75,48.8333c-0.4,0.5,0.5,1.1,0.8,0.5C13.95,48.8333,13.05,48.3333,12.75,48.8333z"/>
		</g>
	</g>
</g>
</svg>
