<?xml version="1.0" encoding="UTF-8"?>
<svg width="603px" height="884px" viewBox="0 0 603 884" version="1.1" xmlns="http://www.w3.org/2000/svg" xmlns:xlink="http://www.w3.org/1999/xlink">
    <!-- Generator: Sketch 51.3 (57544) - http://www.bohemiancoding.com/sketch -->
    <title>3-8A2BE2</title>
    <desc>Created with Sketch.</desc>
    <defs>
        <path d="M87.6,226.7 C54.6,226.7 25.5,205.6 15.4,174.1 L0.1,126.6 L37.9,0 L138.8,0.3 L175.2,126.4 L159.6,174.3 C149.4,205.5 120.5,226.6 87.6,226.6 L87.6,226.7 Z" id="path-1"></path>
        <path d="M62,27.6 L28.4,140.4 L42.4,183.9 C50.7,209.7 74.5,227.1 101.7,227.1 L101.8,227.1 C128.8,227.1 152.5,209.8 160.9,184.1 L175.2,140.2 L142.7,27.8 L62,27.6 Z M41.9,0.5 L163,0.8 L203.6,140.7 L186.7,192.5 C174.7,229.3 140.5,254.1 101.9,254.2 L101.7,254.2 C62.9,254.2 28.5,229.1 16.6,192.2 L0,140.7 L41.9,0.5 Z" id="path-3"></path>
        <path d="M221.9,680.1 C199,680 176.4,673.8 156.6,662.2 C123,642.5 92.5,618.1 65.9,589.6 C23.7,544.4 0.5,485.5 0.5,423.7 L0.5,133 C0.5,104.1 10.9,76.2 29.8,54.3 C48.7,32.5 74.9,18.1 103.4,14 C164.5,5.1 226.8,0.6 288.5,0.6 C350.2,0.6 412.5,5.1 473.6,14 C502.2,18.1 528.3,32.5 547.2,54.3 C566.1,76.1 576.5,104.1 576.5,133 L576.5,422.9 C576.5,484.1 553.6,542.6 512.1,587.6 L511.6,588.2 C484.7,617.3 453.8,642.3 419.6,662.4 C399.6,674.2 376.8,680.4 353.7,680.4 L221.9,680.1 Z" id="path-5"></path>
        <path d="M0.06,442.248032 L0.06,141.971028 C1.98719336,77.3306728 50.1330075,23.0072516 114.5,13.7 C176.6,4.7 239.1,0.2 301.6,0.2 C364.1,0.2 426.6,4.7 488.5,13.7 C554.2,23.2 603,79.6 603,146 L603,435.9 C603,500.4 578.8,562.4 535.1,609.8 L534.6,610.4 C506.8,640.6 474.8,666.4 439.6,687.1 C417.6,700.1 392.5,707 366.9,707 L366.5,707 L234.9,706.6 C209.6,706.5 184.7,699.6 162.8,686.8 C128.2,666.5 96.6,641.2 69.1,611.8 C25.9646381,565.652935 1.42303441,505.253801 0.0599997356,442.248019 L0.06,442.248032 Z M301.6,27.2 C240.5,27.2 178.9,31.6 118.5,40.4 C93.1,44.1 69.9,56.8 53.1,76.2 C36.3,95.5 27.1,120.4 27.1,146 L27.1,436.7 C27.1,465.6 32.5,494 43.1,520.9 C53.7,547.9 69.1,572.2 88.9,593.4 C114.6,620.9 144,644.5 176.5,663.5 C194.3,674 214.5,679.5 235,679.6 L366.7,679.9 L367,679.9 C387.6,679.9 408,674.4 426,663.8 C459,644.4 488.9,620.3 514.9,592.1 L515.4,591.5 C554.6,549 576.2,493.7 576.2,435.9 L576.2,146 C576.2,120.4 567,95.6 550.2,76.2 C533.4,56.8 510.2,44.1 484.8,40.4 C424.3,31.6 362.7,27.2 301.6,27.2 Z" id="path-7"></path>
    </defs>
    <g id="3-8A2BE2" stroke="none" stroke-width="1" fill="none" fill-rule="evenodd">
        <g id="Group-3" transform="translate(211.000000, 643.000000)">
            <mask id="mask-2" fill="white">
                <use xlink:href="#path-1"></use>
            </mask>
            <g id="Clip-2"></g>
            <polygon id="Fill-1" fill="#8338E3" mask="url(#mask-2)" points="0.02 226.72 175.22 226.72 175.22 -0.08 0.02 -0.08"></polygon>
        </g>
        <g id="Group-6" transform="translate(197.000000, 629.000000)">
            <mask id="mask-4" fill="white">
                <use xlink:href="#path-3"></use>
            </mask>
            <g id="Clip-5"></g>
            <polygon id="Fill-4" fill="#323232" mask="url(#mask-4)" points="-0.02 254.28 203.62 254.28 203.62 0.48 -0.02 0.48"></polygon>
        </g>
        <g id="Group-9" transform="translate(13.000000, 13.000000)">
            <mask id="mask-6" fill="white">
                <use xlink:href="#path-5"></use>
            </mask>
            <g id="Clip-8"></g>
            <polygon id="Fill-7" fill="#8338E3" mask="url(#mask-6)" points="0.5 680.44 576.5 680.44 576.5 0.52 0.5 0.52"></polygon>
        </g>
        <g id="Group-12">
            <mask id="mask-8" fill="white">
                <use xlink:href="#path-7"></use>
            </mask>
            <g id="Clip-11"></g>
            <polygon id="Fill-10" fill="#323232" mask="url(#mask-8)" points="0.06 707 603.06 707 603.06 0.2 0.06 0.2"></polygon>
        </g>
    </g>
</svg>