<svg width="899" height="1415" xmlns="http://www.w3.org/2000/svg"><g fill="none" fill-rule="evenodd"><g fill-rule="nonzero"><path d="M446.6 1170.7c-33 0-62.1-21.1-72.2-52.6l-15.3-47.5L396.9 944l100.9.3 36.4 126.1-15.6 47.9c-10.2 31.2-39.1 52.3-72 52.3v.1z" fill="#8A2BE2"/><path d="M407 957.6l80.7.2 32.5 112.4-14.3 43.9c-8.4 25.7-32.1 43-59.1 43h-.1c-27.2 0-51-17.4-59.3-43.2l-14-43.5L407 957.6zm-20.1-27.1L345 1070.7l16.6 51.5c11.9 36.9 46.3 62 85.1 62h.2c38.6-.1 72.8-24.9 84.8-61.7l16.9-51.8L508 930.8l-121.1-.3z" fill="#333"/></g><path d="M148.5 280.2h602.6v241.5H148.5z"/><path d="M148.5 280.2h602.6v241.5H148.5z"/><path d="M148.5 280.1h602.6v241.5H148.5z"/><g fill-rule="nonzero"><path d="M449.7 1019.2c-22.4 0-45-5.1-65.2-14.9l-145.3-69.8c-40.3-19.4-64.9-60.8-62.5-105.5v-.2c.6-10.4-.1-20.9-1.9-31.1l-13-74-.2-277.3c0-28.7 10.4-56.5 29.2-78.3 18.8-21.7 44.8-36 73.3-40.1 60.8-8.8 122.9-13.3 184.3-13.3 61.4 0 123.5 4.5 184.3 13.3 28.5 4.1 54.5 18.4 73.3 40.1 18.8 21.7 29.2 49.5 29.2 78.3l2.5 277.5-12.1 74.8c-1.6 9.7-2.1 19.6-1.6 29.3 2.4 44.6-22.1 86-62.3 105.5l-146.6 70.7c-20.2 9.9-42.9 15-65.4 15z" fill="#8A2BE2"/><path d="M448.4 328.2c60.8 0 122.2 4.4 182.4 13.2 25.2 3.7 48.3 16.3 65 35.6 16.7 19.3 25.9 44 25.9 69.5v.2l2.5 276.2-11.9 73.7c-1.7 10.6-2.3 21.5-1.7 32.2 2.1 39.2-19.4 75.5-54.7 92.6l-146.6 70.7c-18.5 8.9-39.1 13.6-59.6 13.6-20.4 0-41-4.7-59.4-13.5L245 922.4c-17.3-8.3-31.6-21.5-41.4-38-9.8-16.5-14.4-35.4-13.4-54.6v-.2c.6-11.4-.1-22.9-2.1-34.2l-12.8-72.9-.2-276.1c0-25.5 9.2-50.2 25.9-69.5 16.7-19.3 39.8-31.9 65-35.6 60.2-8.7 121.6-13.1 182.4-13.1zm0-27c-62.3 0-124.5 4.5-186.3 13.4-65.5 9.5-114 65.6-114 131.8l.2 278.5 13.2 75.2c1.6 9.3 2.2 18.7 1.7 28.1v.2c-2.7 50 25 96.7 70.1 118.4l145.3 69.8c22.2 10.7 46.5 16.2 71.1 16.2 24.7 0 49.1-5.6 71.3-16.3l146.6-70.7c45-21.7 72.6-68.4 69.9-118.3-.5-8.8 0-17.7 1.4-26.5l12.3-76-2.5-278.5c0-66.2-48.6-122.3-114-131.8-61.8-9-124-13.5-186.3-13.5z" fill="#333"/></g><path d="M148.5 280.1h602.6v241.5H148.5z"/></g></svg>