<?xml version="1.0" encoding="utf-8"?>
<!-- Generator: Adobe Illustrator 23.0.1, SVG Export Plug-In . SVG Version: 6.00 Build 0)  -->
<svg version="1.1" id="Layer_1" xmlns="http://www.w3.org/2000/svg" xmlns:xlink="http://www.w3.org/1999/xlink" x="0px" y="0px"
	 viewBox="0 0 110.9073334 127.9528961" style="enable-background:new 0 0 110.9073334 127.9528961;" xml:space="preserve">
<style type="text/css">
	.Drop_x0020_Shadow{fill:none;}
	.Round_x0020_Corners_x0020_2_x0020_pt{fill:#FFFFFF;stroke:#231F20;stroke-miterlimit:10;}
	.Live_x0020_Reflect_x0020_X{fill:none;}
	.Bevel_x0020_Soft{fill:url(#SVGID_1_);}
	.Dusk{fill:#FFFFFF;}
	.Foliage_GS{fill:#FFDD00;}
	.Pompadour_GS{fill-rule:evenodd;clip-rule:evenodd;fill:#44ADE2;}
	.st0{fill:#1B75BC;}
	.st1{fill:#FFFFFF;}
	.st2{opacity:0.13;enable-background:new    ;}
	.st3{fill:#3C3C3B;}
</style>
<linearGradient id="SVGID_1_" gradientUnits="userSpaceOnUse" x1="-365.9492798" y1="-233.2695313" x2="-365.242157" y2="-232.5624237">
	<stop  offset="0" style="stop-color:#DEDFE3"/>
	<stop  offset="0.1783311" style="stop-color:#DADBDF"/>
	<stop  offset="0.3611409" style="stop-color:#CECFD3"/>
	<stop  offset="0.546043" style="stop-color:#B9BCBF"/>
	<stop  offset="0.7323959" style="stop-color:#9CA0A2"/>
	<stop  offset="0.9181451" style="stop-color:#787D7E"/>
	<stop  offset="1" style="stop-color:#656B6C"/>
</linearGradient>
<g>
	<g id="Layer_63_11_">
		<polygon class="st0" points="110.8889694,31.8278713 110.8889694,95.8278732 55.4689827,127.8278732 11.119009,102.2278976 
			10.9189968,102.1079025 0.0389917,95.8278732 0.0389917,31.8278713 55.4689827,-0.172128 		"/>
	</g>
	<path class="st1" d="M99.412468,35.9578056l-0.25-0.1400146l-1.9400024-1.1199951l-0.4400024-0.25l-0.7800293-0.4400024
		l-1.9199829-1.1099854l-0.0200195-0.0100098l-0.539978-0.3099976l-0.9199829-0.5300293L92.202446,31.817791l-0.2600098-0.1599731
		l-0.1699829-0.0900269l-0.0900269-0.0499878v-0.0100098l-0.039978-0.0299683l-3.7800293-2.1800537l-1.8099976-1.039978
		l-0.0899658-0.0599976l-0.7999878-0.460022l-1.3699951-0.789978l-1.5200195-0.8800049l-0.2000122-0.1099854l-0.6699829-0.3900146
		l-2.2999878-1.3099976l-1.0400391-0.6099854l-3.789978-2.1900024l-2.8499756-1.6400146l-1.3400269-0.7700195l-3.9500122-2.2799683
		l-2.5999718-1.500001l-6.4899902-3.75l-1.0599976-0.6199951l-1.4400024,0.8300171L53.94244,12.0777998l-2.6099854,1.5100098
		l-2.8599854,1.6499634l-0.2700195,0.1600342l-0.1900024,0.1099854l-5.7199707,3.2999887l-0.0500488,0.0300293h-0.0099487
		l-0.0200195,0.0100098l-0.8400269,0.4799805l-0.539978,0.3099976l-0.6900024,0.4099731l-2.2800293,1.3000488l-0.1899414,0.1099854
		l-0.3300171,0.1900024l-1.1000366,0.6499634l-0.4400024,0.2600098l-0.3799438,0.2200317l-0.7800293,0.4500122l-1.6599731,0.9499512
		l-0.1700439,0.0900269l-1.579958,0.9199829l-3.2300415,1.8599854l-0.5700073,0.3300171c0,0,0,0-0.0099487,0l-0.25,0.1400146
		l-0.4500122,0.2600098l-0.4200439,0.2399902L25.2924747,28.60783l-0.9800415,0.5699463l-2.0700073,1.1900024l-0.1499634,0.0900269
		l-0.3900146,0.2299805l-0.4299927,0.25l-2.2700195,1.3099976l-1.75,1.0100098l-0.5799561,0.3300171l-0.25,0.1400146h-0.0100098
		l-0.7700195,0.4599609l-3.8599854,2.2300415l-1.7999878,1.0299683v53.1400108l0.0299683,0.0200195l0.0800171,0.039978
		l0.0899658,0.0499878l0.8300171,0.4799805l0.7700195,0.4400024l1.8099976,1.0500488l3.2999878,1.8999634l0.0200195,0.0100098
		l0.2600098,0.1500244c0.0099487,0.0099487,0.0199585,0.0099487,0.0199585,0.0099487l0.2900391,0.1700439l0.0199585,0.0100098
		l0.0400391,0.0199585l0.7199707,0.4299927l1.3300171,0.7700195l1.0199585,0.5900269l1.7400513,1.0099487l0.1199951,0.0700073
		c0.0100098,0,0.0100098,0,0.0199585,0.0100098l0.2000122,0.1199951l0.1300049,0.0700073l0.5,0.289978l0.210022,0.1200562h0.0100098
		l0.2099609,0.1199951l0.0100098,0.0099487l0.5,0.2900391l0.0900269,0.0499878l0.8200073,0.4700317l2.0899658,1.1999512
		l1.4400024,0.8400269l1.0700073,0.6199951l0.2999878,0.1699829c0.0100098,0.0100098,0.0200195,0.0100098,0.0200195,0.0100098
		l1.3900146,0.8099976l0.3699951,0.2200317l0.1499653,0.0799561l0.0499878,0.0300293l0.7900391,0.4500122l0.5100098,0.289978
		l0.039978,0.0300293l0.0800171,0.039978c0.0299683,0.0100098,0.0499878,0.0299683,0.0799561,0.0499878l0.3500366,0.2000122
		l0.0899658,0.0499878l0.2400513,0.1500244l0.2599487,0.1499634l0.1500244,0.0800171l0.0800171,0.0499878l0.3899536,0.2200317
		l0.3700562,0.2099609l1.2099609,0.710022h0.0100098l0.7600098,0.4400024c0.1499634,0.0800171,0.2799683,0.1599731,0.4199829,0.25
		l1.0499878,0.5999756l0.0300293,0.0200195l0.0899658,0.0599976l0.2200317,0.1199951l0.289978,0.1699829h0.0100098l0.5,0.2900391
		l0.1300049,0.0799561l0.4400024,0.25h0.0100098l0.1400146,0.0900269h0.0099487l0.0900269,0.0499878l0.6099854,0.3500366
		l0.5100098,0.2999878l0.2800293,0.1599731l0.4599609,0.2700195l3.5,2.0299683l0.3300171,0.1900024l1.7399902,1l0.039978,0.0300293
		l1.1200562,0.6400146c0.0099487,0,0.0099487,0.0100098,0.0199585,0.0199585h0.0100098l0.3200073,0.1900024l0.5,0.2900391
		l0.1400146,0.0799561l0.1399536,0.0800171l0.0200195,0.0200195h0.0100098l0.0900269,0.0499878l0.9899902,0.5700073
		l0.1699829,0.0999756l0.4299927,0.25l0.1799927,0.1000366l0.0499878,0.0299683l0.1700439,0.1000366l0.9099731,0.5299683
		l0.0300293,0.0100098l0.8499756,0.4899902l1.2800293,0.7399902l0.1399536,0.0800171l0.4800415-0.2799683l0.3200073-0.1900024
		h0.0099487l0.5599976-0.3200073l1.8700562-1.0800171l0.5-0.289978l0.1799927-0.1000366l0.039978-0.0199585l0.3599854-0.210022
		l2.3599854-1.3599854l0.4000244-0.2300415l0.4299927-0.25l0.0100098-0.0100098l0.3900146-0.2199707l0.6300011-0.3699951
		l0.3499756-0.2000122l0.6300049-0.3599854l0.1099854-0.0700073l0.2800293-0.1500244l0.1799927-0.1099854l0.0499878-0.0299683
		l0.1400146-0.0800171l0.3499756-0.2000122l0.1500244-0.0899658l0.1900024-0.1100464l0.1400146-0.0799561l0.0199585-0.0100098
		l0.2700195-0.1500244l0.1300049-0.0800171l0.0100098-0.0099487l0.0199585-0.0100098l2.0500488-1.1900024l0.3299561-0.1900024
		l1.1199951-0.6500244l0.0599976-0.0299683l0.1400146-0.0800171l0.1099854-0.0599976l0.3700562-0.2200317h0.0099487
		l0.6100464-0.3499756l1.5999756-0.9199829l0.1199951-0.0700073l0.5700073-0.3300171l0.039978-0.0299683l0.4200439-0.2399902
		l0.4699707-0.2700195c0,0,0.0100098,0,0.0100098-0.0100098l0.25-0.1400146l0.3300171-0.1900024l0.1999512-0.1199951
		l0.6400146-0.3800049l0.0700073-0.039978h0.0100098l0.2399902-0.1400146l0.0300293-0.0200195l0.289978-0.1599731
		l0.0499878-0.0299683l0.0100098-0.0100098l0.2800293-0.1600342l0.4599609-0.2600098l0.1099854-0.0699463l0.4400024-0.25
		l0.0400391-0.0200195l0.0199585-0.0200195l0.1800537-0.0899658l0.4899902-0.2800293l0.289978-0.1699829v-0.0100098
		l0.0599976-0.039978l0.0499878-0.0200195l0.0499878-0.0300293l0.0300293-0.0099487l0.0800171-0.0500488l0.3299561-0.1900024
		l0.0599976-0.039978l0.0200195-0.0100098l0.0700073-0.039978l0.0499878-0.0300293l0.5700073-0.3200073
		c0-0.0099487,0-0.0099487,0-0.0099487l0.1300049-0.0700073l0.4000244-0.2300415l0.1599731-0.0899658l0.8699951-0.5200195
		l1.0700073-0.6199951l0.4700317-0.2700195h0.0099487l0.0200195-0.0199585l0.4500122-0.2600098l1.2299805-0.710022
		l0.0400391-0.0299683l1.0499878-0.6000366l0.8200073-0.4699707l0.5699463-0.3300171l0.6000366-0.3399658l1.8599854-1.0700073
		l0.0200195-0.0100098l0.0899658-0.0599976l0.1000366-0.0400391l0.0299683-0.0099487l0.1400146-0.0700073l0.0999756-0.0599976
		l0.0700073-0.0400391l0.4000244-0.2299805l0.1199951-0.0700073l0.0200195-0.0100098l0.4699707-0.2699585l0.7900391-0.460022
		l0.6899414-0.4000244l0.1600342-0.0899658l0.6799927-0.3900146l0.0200195-0.0100098l0.8699951-0.5l0.3599854-0.2099609
		l0.2000122-0.1200562l3-1.7299805l0.1400146-0.0800171l0.8800049-0.5099487l0.1299438-0.0700073l0.3300171-0.1900024
		l1.0900269-0.6199951l0.0100098-0.0100098V37.4477959L99.412468,35.9578056z"/>
	<g id="Layer_2_9_">
		<g id="Layer_16_9_">
			<path class="st2" d="M100.0124435,36.3077812l-0.4799805-0.2799683l-0.6900024-0.4000244l-1.8400269-1.0499878
				l-0.1499634-0.0900269l-0.5300293-0.2999878l-0.7199707-0.4199829l-0.6799927-0.4000244l-0.0900269-0.0499878
				l-0.1099854-0.0599976l-0.4899902-0.2799683l-0.5100098-0.2900391l-0.9000244-0.5199585l-0.5100098-0.3000488
				l-0.2600098-0.1499634l-1.2599487-0.7200317l-0.9000244-0.5199585l-1.8499756-1.0599976l-2.4700317-1.4300537
				l-1.710022-0.9799805l-0.4399414-0.2600098l-0.2800293-0.1599731l-0.4500122-0.2600098l-0.0100098-0.0100098
				l-0.4799805-0.2799683l-0.0499878-0.0200195l-0.4199829-0.25l-0.2300415-0.1400146l-0.1799927-0.0999756l-0.8599854-0.4899902
				l-2.3699951-1.3699951l-1.3599854-0.7800293l-0.7400513-0.4299927l-1.2799683-0.7399902l-4.1199951-2.3699951
				l-2.2200317-1.2800293l-0.5899658-0.3399658l-2.4200439-1.3900146l-0.1899414-0.1099854l-3.9300499-2.2700205
				L60.5724449,13.56779l-1.1099854-0.6400146l-0.3699951-0.2099609l-0.1600342-0.0900269l-0.039978-0.0199585l-0.6400146-0.3700562
				l-0.2399902-0.1399536l-0.2799683-0.1700439l-0.2300415-0.1300049l-1.0100098-0.5799561l-0.5299683-0.3099976
				l-0.4700317,0.2699585l-1.0599976,0.6100464l-2.039978,1.1799927l-0.9000244,0.5199585l-0.4299927,0.25l-0.75,0.4300537
				l-2.8299561,1.6299438l-1.4100342,0.8200083l-0.4699707,0.2700195l-0.1199951,0.0700073l-0.1800537,0.1099854
				L45.19244,17.1277885l-0.7000122,0.4100342l-0.7299805,0.4199829l-0.8399658,0.4799805l-0.2400513,0.1400146
				l-0.5599976,0.3200073l-0.3800049,0.2199707l-1.4400024,0.8300171l-1.9199829,1.1099854l-1.1400146,0.6600342
				l-0.6599731,0.3800049l-3.2200317,1.8599854l-0.4499512,0.2600098l-0.8500366,0.4899902l-0.5299702,0.3099976
				l-0.1000366,0.0499878c-0.0099487,0-0.0099487,0-0.0099487,0l-0.25,0.1500244l-0.4200439,0.25l-0.2999878,0.1699829
				l-0.2700195,0.1599731l-0.1799927,0.1000366l-0.0299683,0.0200195l-1.4400024,0.8299561l-0.0300293,0.0200195h-0.0100098
				l-0.1399536,0.0800171l-0.3400269,0.1900024l-0.8099976,0.4699707l-0.4899902,0.2800293l-0.0100098,0.0099487
				l-0.5800171,0.3400269l-0.4799805,0.2700195l-0.1500244,0.0899658L25.362421,28.567791l-0.0099487,0.0100098
				l-0.0300293,0.0200195l-0.7600098,0.4400024l-0.1599731,0.0899658l-0.1300049,0.0800171l-1.0999756,0.6300049
				l-1.1000366,0.6300049h-0.0100098l-0.6699829,0.3800049l-1.710022,0.9899902l-1,0.5800171L18.3524723,32.60783
				l-2.6500244,1.5299683l-0.7199707,0.4199829l-3.5100098,2.0200195l-1.5400391,0.8900146v53.1199913l0.0700073,0.039978
				l0.1900024,0.1099854l1.1699829,0.6800537h0.0100098l0.3500366,0.2099609l0.75,0.4299927l0.1499634,0.0800171
				l3.5100098,2.0300293l0.4899902,0.2799683l0.3200073,0.1900024l0.6900024,0.3900146l4,2.3200073l0.460022,0.2600098
				l0.0599976,0.039978l1.2399902,0.710022l3.3800049,1.9499512l5.3800068,3.1000366l0.6900024,0.3999634l0.0700073,0.0400391
				l0.1499634,0.0799561l0.1100464,0.0700073l0.1799927,0.1000366l0.039978,0.0199585l1.9099731,1.1100464l0.8800049,0.5
				l1.3300171,0.7799683l0.8900146,0.5100098l0.1799927,0.0999756l0.3099976,0.1799927l0.1900024,0.1100464l0.4799805,0.2799683
				l3.5700073,2.0499878l0.0900269,0.0500488l0.4400024,0.2599487l0.6199951,0.3600464l0.7199707,0.4199829
				c0.0100098,0,0.0100098,0,0.0100098,0l0.5300293,0.2999878l1.5099487,0.8699951l3.1700439,1.8400269l4.4799805,2.5800171
				l0.7200317,0.4199829l0.3099976,0.1799927l0.2299805,0.1300049l0.0200195-0.0100098l0.1900024-0.1099854l0.1399536-0.0800171
				l0.0300293-0.0200195l0.3099976-0.1799927l0.0800171-0.0499878h0.0099487l1.7200317-0.9799805l0.0899658-0.0499878
				l0.6900024-0.4000244l0.5-0.289978l0.2400513-0.1400146l3.8499756-2.2200317l2.4500084-1.4099731l0.7399902-0.4299927
				l0.6599731-0.3800049l0.6700439-0.3900146l0.4400024-0.2600098l2.3299561-1.3399658l0.3900146-0.2200317h0.0100098
				l0.2299805-0.1400146l0.210022-0.1199951l0.6300049-0.3599854l0.7999878-0.4599609l1.2600098-0.7300415l0.4599609-0.2699585
				h0.0100098l0.460022-0.2700195l0.0100098-0.0100098l0.25-0.1400146l0.5299683-0.3099976l0.3699951-0.2099609l0.3500366-0.210022
				l0.5499878-0.3099976l0.210022-0.1300049l0.3200073-0.1799927l0.4299927-0.2399902l0.0199585-0.0100098l0.0500488-0.0300293
				l0.1299438-0.0799561l0.2400513-0.1300049l3.7799683-2.1799927l0.3800049-0.2200317l1.1099854-0.6500244l2.9700317-1.7099609
				l1.5599976-0.9000244l8.5299683-4.9199829h0.0100098l0.0599976-0.039978l2.6500244-1.5300293l0.8999634-0.5200195
				l0.9900513-0.5699463l0.039978-0.0200195V37.4678154L100.0124435,36.3077812z M100.1524582,89.5177994l-0.5200195,0.2999878
				l-0.3200073,0.1799927l-0.5799561,0.3400269l-4.2200317,2.4400024l-0.6099854,0.3499756l-2.7600098,1.5900269
				l-4.6699829,2.6900024l-3.1199951,1.7999878l-1.2800293,0.7399902l-0.7199707,0.4100342l-2.9299927,1.6899414
				l-0.0700073,0.0500488l-0.1600342,0.0899658l-0.1799927,0.1099854l-0.5700073,0.3200073l-0.8900146,0.5100098
				l-0.2199707,0.1300049l-0.0499878,0.0300293l-0.8099976,0.4699707l-0.0900269,0.0499878l-3.9099731,2.25l-0.0800171,0.0500488
				l-0.789978,0.4499512l-0.0800171,0.0500488l-0.9100342,0.5299683l-2.1499634,1.2399902l-1.539978,0.8900146l-1.6800537,0.9699707
				l-1.0999718,0.6300049l-2.9699707,1.7200317l-1.2300415,0.7099609l-0.0599976,0.0400391h-0.0200195l-0.75,0.4400024
				l-0.2799683,0.1499634l-1.8699951,1.0800171l-3.4500122-1.9899902l-1.2299805-0.710022l-0.6099854-0.3499756
				l-1.8100586-1.0499878l-0.7199707-0.4100342l-0.6900024-0.3999634l-5.2600098-3.0300293l-0.7699585-0.4500122
				l-0.0500488-0.0299683l-1.789978-1.0300293l-2.0599976-1.1799927l-0.9000244-0.5199585l-0.5799561-0.3400269l-0.25-0.1500244
				l-0.4300537-0.25l-0.2099609-0.1199951l-1.75-1.0100098l-0.3099976-0.1799927l-0.1900024-0.1099854l-1.5000019-0.8699951
				l-3.4199829-1.9699707l-3.5400391-2.0400391l-0.3699951-0.2199707l-1.7600098-1.0100098l-3.4199829-1.9700317
				l-4.5999756-2.6599731l-0.3099976-0.1799927l-0.9000244-0.5100098l-0.3900146-0.2299805l-0.2299805-0.1300049
				l-0.210022-0.1199951l-0.4599609-0.2700195V38.5477715l3.9099731-2.2599487l1.0599976-0.6100464l0.0300293-0.0199585
				l1.4199829-0.8200073l0.1099854-0.0599976l0.3599854-0.210022l0.9299927-0.539978h0.0100098l0.0599976-0.0400391
				l0.5800171-0.3299561l0.1400146-0.0800171l2.1599731-1.25l0.0200195-0.0100098l0.2999878-0.1799927h0.0100098l1.3599854-0.789978
				h0.0100098l0.2000122-0.1100464l1.4899902-0.8599854l0.0999756-0.0599976l1.25-0.7199707l0.4300537-0.25h0.0099487
				l0.7600098-0.4400024l0.460022-0.2700195h0.0100098l0.5999756-0.3499756l0.2399902-0.1400146l0.5499878-0.3099976l1.2900391-0.75
				l0.2999878-0.1699829c0.0100098-0.0100098,0.0100098-0.0100098,0.0200195-0.0100098l0.7799702-0.4500122l0.3500366-0.2000122
				l0.1999512-0.1199951l0.2900391-0.1699829l0.1699829-0.1000366l0.2700195-0.1499634l0.039978-0.0200195l0.4199829-0.2399902
				l0.0100098-0.0100098l2.8400269-1.6400146l0.0299683-0.0199585l3.2900391-1.9000244l0.289978-0.1699829l1.1500244-0.6600342
				l0.2199707-0.1300049l0.7200317-0.4099731l0.1900024-0.1099854l1.5999756-0.9200439l0.75-0.4400024l0.0700073-0.039978
				l0.0599976-0.039978l0.3300171-0.1900024l0.3800049-0.2200317l1.4399414-0.8299561l0.0600586-0.0300293l1.8699951-1.0800171
				l0.1099854-0.0599976l0.7299805-0.4299927l0.5499878-0.3099985l0.9200439-0.539978l0.0999756-0.0599976l1.8699951-1.0700073
				l0.1000366-0.0599976l1.3199463-0.7600098l0.4700317-0.2700195l0.5299683,0.3099976l0.6100464,0.3500366l0.1399536,0.0799561
				l0.4400024,0.25l0.8099976,0.4700317l0.1500244,0.0900269l0.710022,0.4099731l0.7799683,0.4500122l0.8200073,0.4699707
				l3.4999962,2.0200205l0.3099976,0.1799927l2.1799927,1.2600098l0.6000366,0.3499756l2.0499878,1.1799927l1.3699951,0.7900391
				l2.3599854,1.3599854l2.5,1.4400024l1.3699951,0.7999878l1.9100342,1.1000366l0.1599731,0.0899658l0.539978,0.3099976
				l0.5,0.2900391l0.0500488,0.0299683l0.3200073,0.1799927l0.0599976,0.0300293l0.0499878,0.0299683l0.4400024,0.2600098
				l0.3499756,0.2000122l0.3099976,0.1799927l0.7800293,0.4500122l0.0899658,0.0499878l0.0499878,0.0299683l1.9400024,1.1200562
				l1.9400024,1.1099854l0.1000366,0.0599976l1.6499634,0.9500122l0.6500244,0.3800049l1.4699707,0.8399658l0.2400513,0.1400146
				l0.9699707,0.5599976l0.5700073,0.3300171l0.8400269,0.4799805l0.3499756,0.2000122l0.2000122,0.1199951l0.039978,0.0299683
				l0.7700195,0.4400024l0.1900024,0.1100464l0.539978,0.3099976l0.2800293,0.1599731l0.25,0.1500244l1.3399658,0.7699585
				l0.710022,0.4100342l0.6799927,0.3900146l1.6300049,0.9399414V89.5177994z"/>
		</g>
	</g>
</g>
<g id="Layer_1-2">
	<polygon class="st0" points="81.9544983,80.6545563 66.0313416,64.7313995 81.9544983,48.808239 72.4869919,39.339653 
		56.5638351,55.2628174 40.639595,39.339653 31.1720905,48.808239 47.095253,64.7313995 31.1720905,80.6545563 
		40.639595,90.1220703 56.5638351,74.1989059 72.4869919,90.1220703 	"/>
	<polyline class="st3" points="51.0347366,28.9509945 41.7356949,38.2500343 49.5693092,46.0836449 56.5638351,39.0048866 
		63.5572853,46.0836449 71.3919754,38.2500343 62.0929337,28.9509945 56.5638351,23.4218941 51.0347366,28.9509945 	"/>
	<polyline class="st3" points="51.0347366,100.6111603 41.7356949,91.3121185 49.5693092,83.478508 56.5638351,90.5561829 
		63.5572853,83.478508 71.3919754,91.3121185 62.0929337,100.6111603 56.5638351,106.1402588 51.0347366,100.6111603 	"/>
	<path class="st1" d="M75.1624527,108.3308716l0.9579391,6.3686981l0.3959427-0.2311707l-0.3462982-2.2331848l2.0797653-1.2142639
		l1.7711182,1.4013062l0.4017715-0.2345734l-5.0325775-3.9897308L75.1624527,108.3308716z M77.9414291,110.7668304
		l-1.8311005,1.0690842l-0.3611374-2.2666931c-0.0363312-0.2469482-0.0867538-0.4916153-0.1510391-0.7328033
		c0.232254,0.2103729,0.4199982,0.3711243,0.5632401,0.482254L77.9414291,110.7668304z M81.3131714,106.169838
		c0.1657104,0.2838287,0.3418808,0.5693207,0.528511,0.8564682l-0.021225,0.0123978
		c-0.3012085-0.1513367-0.5814514-0.2187576-0.8407135-0.2022781c-0.2592697,0.0164871-0.5270233,0.1051712-0.8032455,0.2660522
		c-0.5250549,0.3065491-0.8232269,0.7150192-0.894516,1.2254028c-0.0712814,0.5103912,0.0862427,1.0963516,0.47258,1.7578888
		c0.3670807,0.6287384,0.7854919,1.0263519,1.2552185,1.1928482c0.4697266,0.1665039,0.9671097,0.0963821,1.4921494-0.2103653
		c0.5414124-0.3160934,0.8294525-0.7768555,0.8641281-1.3822708l0.0281525-0.0164413l0.4284744,0.5330658l0.2276611-0.1329193
		l-3.1974182-5.4764633l-0.3431396,0.2003403L81.3131714,106.169838z M82.6220245,108.4116135
		c0.3369446,0.5771179,0.4784775,1.0499649,0.4245834,1.4185486c-0.053894,0.3685913-0.2956772,0.6781235-0.7253723,0.9286041
		c-0.8383102,0.4890518-1.5739059,0.1915817-2.2067871-0.8924026c-0.3260269-0.5584183-0.4702911-1.0452118-0.4327774-1.4603729
		s0.264061-0.7440643,0.6796494-0.986702c0.4411011-0.2575378,0.8360291-0.3142929,1.1847839-0.1702652
		c0.3487549,0.1440201,0.6955872,0.5117569,1.0405045,1.1031876L82.6220245,108.4116135z M85.415802,109.2727661l2.7975082-1.633316
		l-0.1933441-0.3311615l-2.4401779,1.4246979l-1.2881088-2.2062531l2.3035812-1.3449326l-0.1934128-0.3312683l-2.3035812,1.3449402
		l-1.1365662-1.9466934l2.4401779-1.4246902l-0.1930237-0.3306046l-2.7972946,1.6331863L85.415802,109.2727661z
		 M89.4765701,104.2636108l0.2207336-2.62117l-0.3815308,0.2227554l-0.1826096,2.268425l-2.0753098-0.949852l-0.3991241,0.2330322
		l2.4120255,1.0840378l-0.2306366,2.7729416l0.381424-0.2226868l0.2075958-2.4102783l2.1941986,1.0079956l0.4027557-0.2351456
		L89.4765701,104.2636108z"/>
</g>
</svg>
