<svg enable-background="new 0 0 110.9073334 127.9528961" viewBox="0 0 110.9073334 127.9528961" xmlns="http://www.w3.org/2000/svg" xmlns:xlink="http://www.w3.org/1999/xlink"><clipPath id="a"><path d="m83.1756287 50.4279594.3054885-4.6614227 10.4626771 6.8843193-.3054886 4.6614227z"/></clipPath><clipPath id="b"><path d="m18.5450726 56.9158363 2.5141315-9.6833191 5.7491646 2.4756966-2.2504826 8.7465782z"/></clipPath><path d="m110.919342 31.993578v63.999998l-55.4199829 32-44.3499765-25.5999755-.2000122-.1199952-10.8800051-6.2800293v-63.999998l55.4299938-31.9999992z" fill="#61fff7"/><path d="m102.0089264 37.6114082v53.1400185l-.0099487.0099487-.7900391.4500122-.2999878.1699829-.3300171.1900024-.1300049.0700073-.8800049.5100098-.1399536.0800171-3 1.7299805-.2000122.1199951-.3599854.210022-.8699951.5-.0200195.0100098-.6799927.3900146-.1600342.0899658-.6900024.4000244-.789978.4599609-.4700317.2700195-.0199585.0100098-.1199951.0700073-.4000244.2299805-.0700073.039978-.0999756.0599976-.1400146.0700073-.0299683.0100098-.1000366.0400391-.0899658.0599976-.0200195.0099487-1.8599854 1.0700073-.6000366.3400269-.5700073.3300171-.8199463.4699707-1.0500488.5999756-.039978.0300293-.7800293.4400024-.0099487.0100098-.4400024.2600098-.3500366.1999512-.0999756.0599976-.0200195.0200195h-.0100098l-.4699707.2700195-1.0700073.6199951-.8699951.5200195-.1600342.0899658-.3999634.2299805-.1300049.0700073v.0100098l-.5700073.3200073-.0499878.0300293-.0700073.039978-.0200195.0100098-.0599976.039978-.3299561.1900024-.0800171.0499878-.0300293.0100098-.0499878.0300293-.0499878.0199585-.0599976.0400391v.0100098l-.2900391.1699829-.4899902.2799683-.1799927.0900269-.0199585.0200195-.0400391.0199585-.4400024.25-.1099854.0700073-.460022.2600098-.1399536.0800171-.1400146.0799561-.0100098.0100098-.0499878.0300293-.2900391.1599731-.0299683.0200195-.2399902.1400146h-.0100098l-.0700073.039978-.6400146.3800049-.2000122.1199951-.3299561.1900024-.25.1400146c0 .0100098-.0100098.0100098-.0100098.0100098l-.4700317.2699585-.4199829.2399902-.039978.0300293-.5700073.3300171-.1199951.0700073-1.6000366.9199829-.6099854.3499756h-.0100098l-.3699951.2200317-.1099854.0599976-.1400146.0799561-.0599976.0300293-1.1199951.6500244-.3300171.1900024-2.0499878 1.1899414-.0199585.0100098-.0100098.0100098-.1300049.0800171-.2700195.1499634-.0200195.0100098-.1399536.0800171-.1900024.1099854-.1500244.0900269-.3499756.2000122-.1400146.0799561-.0499878.0300293-.1799927.1099854-.2800293.1500244-.1099854.0700073-.6300049.3599854-.3499756.2000122-.6300011.3699951-.3900146.2199707-.0100098.0100098-.4299927.25-.4000244.2299805-2.3599854 1.3600464-.3599854.2099609-.0400391.0200195-.1799927.0999756-.5.2900391-1.8699951 1.0799561-.5599976.3200073h-.0100098l-.3200073.1900024-.4799805.2800293-.1400146-.0800171-1.2799683-.7399902-.8500366-.4899902-.0299683-.0100098-.9099731-.5300293-.1700439-.0999756-.0499878-.0300293-.1799927-.0999756-.4299927-.25-.1699829-.0999756-.9900513-.5700073-.0899658-.0499878h-.0100098l-.0200195-.0200195-.1399536-.0800171-.1400146-.0800171-.5-.289978-.3200073-.1900024h-.0100098c-.0100098-.0100098-.0100098-.0200195-.0200195-.0200195l-1.1199951-.6399536-.039978-.0300293-1.7399902-1-.3300171-.1900024-3.5-2.0299683-.460022-.2700195-.2799683-.1599731-.5100098-.3000488-.6099854-.3499756-.0900269-.0499878h-.0100098l-.1399536-.0900269h-.0100098l-.4400024-.25-.1300049-.0800171-.5-.289978h-.0100098l-.289978-.1699829-.2200317-.1199951-.0899658-.0599976-.0300293-.0200195-1.0499878-.5999756c-.1400146-.0900269-.2700195-.1700439-.4199829-.25l-.7600098-.4400024h-.0100098l-1.210022-.710022-.3699951-.210022-.3899536-.2199707-.0800171-.0499878-.1500244-.0800171-.2600098-.1500244-.2399899-.1499639-.0899658-.0499878-.3500366-.2000122c-.0299683-.0200195-.0499878-.0400391-.0799561-.0499878l-.0800171-.0400391-.0400391-.0299683-.5099487-.2900391-.7900391-.4499512-.0499878-.0300293-.1500244-.0800171-.3699951-.2199707-1.3899536-.8099976s-.0100098 0-.0200195-.0100098l-.2999878-.1699829-1.0700073-.6199951-1.3200073-.7700195-.1199951-.0700073-.7000122-.4000244-.2399902-.1399536-1.1500244-.6600342-.8200073-.4699707-.0899658-.0499878-.5-.2900391-.0100098-.0100098-.210022-.1199951h-.0099489l-.210022-.1199951-.5-.289978-.1300049-.0700073-.2000121-.1199949c-.0100098-.0100098-.0100098-.0100098-.0199585-.0100098l-.1200562-.0700073-1.7399902-1.0100098-1.0199585-.5899658-1.3300171-.7700195-.7200317-.4299927-.039978-.0200195-.0200195-.0100098-.289978-.1699829s-.0100098 0-.0200195-.0100098l-.2600098-.1499634-.0199585-.0100098-3.2999887-1.9000244-1.8099976-1.0499878-.7700195-.4400024-.2200317-.1300049-.6099854-.3499756-.0899658-.0499878-.0800171-.0400391-.0300293-.0199585v-53.1400184l1.5-.8599854.3000488-.1700439 3.8599854-2.2299805.7699594-.460022h.0100098l.25-.1399536.5800171-.3300171 1.75-1.0100098 2.2700195-1.3099976.4299927-.25.3900146-.2299805.1499634-.0900269 2.0700073-1.1900024.9799805-.5700073 1.0100098-.5899658.4200439-.2399902.4499512-.2600098.25-.1400146h.0100098l.5700073-.3300171 3.2299805-1.8599854 1.5800171-.9199829.1699829-.0900269 1.6600342-.9500122.7799683-.4499512.3800049-.2200317.4400024-.2600098 1.1000366-.6499634.3299561-.1900024.1900024-.1100464 2.2800293-1.2999878.6900024-.4099731.539978-.3099976.8400269-.4800415.0199585-.0099487h.0100096l.0499878-.0300293 5.7200317-3.2999868.1900024-.1099854.2700195-.1600342 2.8599854-1.6499634 2.6099854-1.5100098.5999756-.3500366 1.4400024-.8299561 1.0599976.6199951 6.4900513 3.75 2.5999718 1.499999 3.9500122 2.2799683 1.3399658.7700195 2.8500366 1.6400146 3.789978 2.1900024 1.039978.6099854 2.3000488 1.3099976.6699829.3900146.2000122.1099854 1.5199585.8800049 1.3699951.789978.8000488.460022.0899658.0599976 1.8099976 1.039978 3.7800293 2.1799927.039978.0300293v.0100098l.0900269.0499878.1699829.0899658.2600098.1600342.3999634.2299805.9200439.5300293.539978.3099976.0200195.0100098 1.9199829 1.1099854.7800293.4400024.4400024.25 1.9399414 1.1199951.25.1400146 1.8400269 1.0700073z" fill="#352e2e"/><path d="m101.2789459 37.1914253c-7.0599975 10.9399414-24.4299927 18.6799927-44.7399864 18.6799927-20.5800171 0-38.1500244-7.9500122-45.0300293-19.1199951l.3000488-.1700439 3.8599854-2.2299805.7699594-.460022h.0100098l.25-.1399536.5800171-.3300171 1.75-1.0100098 2.2700195-1.3099976.4299927-.25.3900146-.2299805.1499634-.0900269 2.0700073-1.1900024.9799805-.5700073 1.0100098-.5899658.4200439-.2399902.4499512-.2600098.25-.1400146h.0100098l.5700073-.3300171 3.2299805-1.8599854 1.5800171-.9199829.1699829-.0900269 1.6600342-.9500122.7799683-.4499512.3800049-.2200317.4400024-.2600098 1.1000366-.6499634.3299561-.1900024.1900024-.1100464 2.2800293-1.2999878.6900024-.4099731.539978-.3099976.8400269-.4800415.0199585-.0099487h.0100088l.0499878-.0300293 5.7200317-3.2999868.1900024-.1099854.2700195-.1600342 2.8599854-1.6499634 2.6099854-1.5100098.5999756-.3500366 1.4400024-.8299561 1.0599976.6199951 6.4900513 3.75 2.5999718 1.499999 3.9500122 2.2799683 1.3399658.7700195 2.8500366 1.6400146 3.789978 2.1900024 1.039978.6099854 2.3000488 1.3099976.6699829.3900146.2000122.1099854 1.5199585.8800049 1.3699951.789978.8000488.460022.0899658.0599976 1.8099976 1.039978 3.7800293 2.1799927.039978.0300293v.0100098l.0900269.0499878.1699829.0899658.2600098.1600342.3999634.2299805.9200439.5300293.539978.3099976.0200195.0100098 1.9199829 1.1099854.7800293.4400024.4400024.25 1.9399414 1.1199951.25.1400146z" fill="#39585b"/><path d="m102.0089264 68.2613754v20.1000366h-91.9999971v-20.3500366l7.0700082-8.199955h77.6400109z" fill="#5b5b5b"/><path d="m102.0089264 68.2613754v6.6700439c-8.2599487 4.9400024-25.2999878 8.3299561-44.9899864 8.3299561-21.4799805 0-39.8099976-4.039978-47.0100098-9.7199707v-5.5300293l7.0700083-8.199955h77.6400146z" fill="#777"/><path d="m43.9146042 75.4970627 4.4510879 14.217392 11.445652-.2445679 3.4239121-16.3369522" fill="#edd1b7"/><path d="m34.235889 31.084021h42.75v25.438765h-42.75z" fill="#242d28"/><path d="m35.964653 33.105759h39.292473v21.195652h-39.292473z" fill="#64ffe1"/><path d="m102.0089264 88.361412v2.3900147l-.0099487.0099487-.7900391.4500122h-90.3900118l-.6099853-.3499756-.0899659-.0499877-.0800171-.0400391-.0300292-.0199585v-2.3900147z" fill="#595959"/><path d="m46.8689766 61.2514229-8.2200317 21.0499916-1.1400147 2.9099731h-4.4400024l1.7200317-3.4199829 10.3399658-20.5399818z" fill="#64ffe1"/><path d="m50.6689644 61.2514229-5.4500122 21.6699867-.5800171 2.289978h-3.8099976l.9000244-2.5899658 7.4400025-21.3699989z" fill="#64ffe1"/><path d="m65.9289703 85.2113876h-3.2600059l-.4199829-1.9599609-4.7400513-22.0000038 2.420044-.2300415 5.4799766 22.1000404z" fill="#64ffe1"/><path d="m57.659168 44.469891h1.711957v16.777174h-1.711957z" fill="#64ffe1"/><path d="m53.420036 44.469891h1.483696v16.777174h-1.483696z" fill="#64ffe1"/><path d="m49.180908 44.469891h1.548913v16.777174h-1.548913z" fill="#64ffe1"/><path d="m44.941776 44.469891h1.940217v16.777174h-1.940217z" fill="#64ffe1"/><path d="m14.6156902 69.3177185 16.4347821-16.7368813v-12.5729026l-16.2880431 10.135868z" fill="#394c43"/><path d="m36.7646446 88.6232224c.712574-1.5037308 11.6683083.4489212 13.6008759 4.3422928.6718864 1.3535538.3332825 3.1030121-1.0619278 3.524437-3.4874802 1.0534056-13.2922516-6.2770158-12.5389481-7.8667298z" fill="#2e4c38"/><path d="m58.2137833 94.3575592c-.6602211-1.8027496 9.26577-9.0051956 13.8585205-7.3719025 1.5967102.5678101 2.7391434 2.271225 2.0116501 3.7367401-1.8184357 3.6632081-15.1721917 5.5409775-15.8701706 3.6351624z" fill="#2e4c38"/><path d="m15.8244658 66.0079346 14.3433179-13.8176499v-10.5410461l-14.3433179 9.3395119z" fill="#64ffe1"/><path d="m13.425473 50.143803h1.300272v19.190218h-1.300272z" fill="#4d5b55"/><path d="m14.7624292 50.1438026 16.2880431-10.135868h-.5625l-17.0624991 10.135868" fill="#597267"/><path d="m97.0993881 69.3177185-16.4347839-16.7368813v-12.5729026l16.2880401 10.135868z" fill="#394c43"/><path d="m95.8906097 66.0079346-14.3433151-13.8176499v-10.5410461l14.3433151 9.3395119z" fill="#64ffe1"/><path d="m96.989334 50.143803h1.300272v19.190218h-1.300272z" fill="#4d5b55" transform="matrix(-1 0 0 -1 195.278931 119.477821)"/><path d="m34.1319847 90.0407944c.3331604-1.748848 5.421051-2.7990112 6.5054321-1.5963516.8900757.9871521-.2428589 4.2399139-2.7880249 4.4529724-2.0227966.1693191-3.9444885-1.6645279-3.7174072-2.8566208z" fill="#274431"/><path d="m72.7089386 85.2113876h-3.8099976l-.5700073-2.2699585-5.4599571-21.6900062h1.4899864l7.459961 21.4099769z" fill="#64ffe1"/><path d="m39.7224846 87.4914703c3.6284943.3647461 8.2087173 2.2844849 10.566288 4.8900757.1040268.1149902-.0566635.2680664-.1803551.1657104-1.9787941-1.637146-4.5979614-2.7598267-7.0863953-3.5734863-2.3537865-.7695923-8.8627129-1.791748-8.5791245 2.1480103.0237808.3302002-.107254.5587006-.1906204.2394257-.762741-2.9197998 3.136818-4.1042328 5.4702073-3.8697358z" fill="#64ad77"/><path d="m47.5993843 92.6492386.4239159-4.7445679 12.0978241-.016304.586956 5.967392" fill="#edd1b7"/><path d="m58.5530586 85.6364365c-.0635986-1.1807861-2.022583-1.6170044-2.2016602-.2979736-.0025635.019043-.0062866.0379028-.0089111.0569458-.4788208.0150146-.9610596.2711792-1.1422729.814209-.0068359.0203857-.0120239.0410156-.0187378.0614014-.0134888-.0529785-.0215454-.1082153-.0358276-.1608887-.1723633-.6361694-1.241333-.894104-1.5371094-.2009277-.2097168.4915161-.3361816 1.0305176-.4365234 1.5845337-.0281982-.0137329-.0575562-.0236816-.0866699-.0343018-.0314331-.2510376-.0613403-.5021362-.100708-.7529907-.1639404-1.0436401-1.4596558-.7310181-1.7503052.0535889-.0001221 0-.0002441-.0001221-.0003662-.0001221-.5169678-.1165771-.9761963.1571045-1.1499023.6116943-.321167-.8230591-.7197876-1.5881348-1.2540894-2.2357178-.1086426-.1316528-.3590698.0099487-.2938232.1710205.4528198 1.1174316.7680054 2.3010864 1.034668 3.505188.0013428.2334595.0371094.4732056.1046143.7071533.026001.09021.0596313.171875.098877.246582.3058472 1.5078125.5682983 3.0305176.9503174 4.4830322.135437.5150757.956604.5464478 1.0742798 0 .0343628-.1594849.0537109-.3213501.0841064-.4814453.2210083.5560913.8137207.671814 1.3013916.4822388.0155029.1914673.0253296.3812256.0479736.5747681.1321411 1.1307983 1.4053345 1.840332 2.3190308.9605713.1570435-.1511841.2688599-.3222046.3608398-.5016479.1269531-.0016479.2537231-.024231.3779907-.0578613.0499878.4737549.1143188.9424438.2011108 1.402771.1968384 1.0442505 1.859314 1.0125732 2.0792236 0 .7504272-3.4556886.1714477-7.4855959-.0175172-10.9918214z" fill="#a57a67" stroke="#a57a67" stroke-miterlimit="10"/><path d="m96.9526443 50.1438026-16.2880401-10.135868h.5625l17.0625 10.135868" fill="#597267"/><path d="m59.2021675 86.4004135c-.4355469.5610352-.9528809.7095947-1.6869507 1.2598877-.1487427.1115112-.4300537.1851196-.6068726.3117676-.1478271.105896-.1431274.4033813-.2871094.4894409-1.0379639.6206665-1.5881958-.1287231-2.6225586-.4876709-.727356-.2523804-1.2957764-.3151245-2.1038818-.3015747-.2772827.0046387-.5458374.2401123-.5319214.5319214.0474243.9958496-2.4034424-1.1226807-2.4039307-1.1230469-.1704102-.1364746-.4260864.0305176-.3128662.241394.4890747.9111328 1.4642334 2.5958862 2.6859741 2.5438232.7557373-.0321655 1.0230103-.4973145 1.0852051-1.0953979 1.9035645.2498169 3.1916504 1.8667603 4.9660645.3919067.5760498-.4788818 1.3067627-.5531006 1.8880005-1.0328369-.1849975-.5426635-.166687-1.1376342-.0691528-1.7296142z" fill="#936654"/><path d="m75.2566223 88.6965027c-.3331604-1.748848-5.421051-2.7990112-6.5054321-1.5963593-.8900757.9871521.2428589 4.2399216 2.7880249 4.45298 2.0227966.1693192 3.9444885-1.6645278 3.7174072-2.8566207z" fill="#274431"/><path d="m62.232536 44.469891h1.858696v16.777174h-1.858696z" fill="#64ffe1"/><path d="m85.3689728 100.3014145-.4400024.2600098-.4500122.2599487-.0200195.0200195h-.0100098l-.4699707.2700195-1.0700073.6199951-.8699951.5200195-.1600342.0899658-.3999634.2299805-.1300049.0700073v.0100098l-.5700073.3200073-.0499878.0300293-.0700073.039978-.0200195.0100098-.0599976.039978-.3299561.1900024-.0800171.0499878-.0300293.0100098-.0499878.0300293-.0499878.0199585-.0599976.0400391v.0100098l-.2900391.1699829-.4899902.2799683-.1799927.0900269-.0199585.0200195-.0400391.0199585-.4400024.25-.1099854.0700073-.460022.2600098-.1399536.0800171-.1400146.0799561-.0100098.0100098-.0499878.0300293-.2900391.1599731-.0299683.0200195-.2399902.1400146h-.0100098l-.0700073.039978-.6400146.3800049-.2000122.1199951-.3299561.1900024-.25.1400146c0 .0100098-.0100098.0100098-.0100098.0100098l-.4700317.2699585-.4199829.2399902-.039978.0300293-.5700073.3300171-.1199951.0700073-1.6000366.9199829-.6099854.3499756h-.0100098l-.3699951.2200317-.1099854.0599976-.1400146.0799561-.0599976.0300293-1.1199951.6500244-.3300171.1900024-2.0499878 1.1899414-.0199585.0100098-.0100098.0100098-.1300049.0800171-.2700195.1499634-.0200195.0100098-.1399536.0800171-.1900024.1099854-.1500244.0900269-.3499756.2000122-.1400146.0799561-.0499878.0300293-.1799927.1099854-.2800293.1500244-.1099854.0700073-.6300049.3599854-.3499756.2000122-.6300011.3699951-.3900146.2199707-.0100098.0100098-.4299927.25-.4000244.2299805-2.3599854 1.3600464-.3599854.2099609-.0400391.0200195-.1799927.0999756-.5.2900391-1.8699951 1.0799561-.5599976.3200073h-.0100098l-.3200073.1900024-.4799805.2800293-.1400146-.0800171-1.2799683-.7399902-.8500366-.4899902-.0299683-.0100098-.9099731-.5300293-.1700439-.0999756-.0499878-.0300293-.1799927-.0999756-.4299927-.25-.1699829-.0999756-.9900513-.5700073-.0899658-.0499878h-.0100098l-.0200195-.0200195-.1399536-.0800171-.1400146-.0800171-.5-.289978-.3200073-.1900024h-.0100098c-.0100098-.0100098-.0100098-.0200195-.0200195-.0200195l-1.1199951-.6399536-.039978-.0300293-1.7399902-1-.3300171-.1900024-3.5-2.0299683-.460022-.2700195-.2799683-.1599731-.5100098-.3000488-.6099854-.3499756-.0900269-.0499878h-.0100098l-.1399536-.0900269h-.0100098l-.4400024-.25-.1300049-.0800171-.5-.289978h-.0100098l-.289978-.1699829-.2200317-.1199951-.0899658-.0599976-.0300293-.0200195-1.0499878-.5999756c-.1400146-.0900269-.2700195-.1700439-.4199829-.25l-.7600098-.4400024h-.0100098l-1.210022-.710022-.3699951-.210022-.3899536-.2199707-.0800171-.0499878-.1500244-.0800171-.2600098-.1500244-.2399897-.1499638-.0899658-.0499878-.3500366-.2000122c-.0299683-.0200195-.0499878-.0400391-.0799561-.0499878l-.0800171-.0400391-.0400391-.0299683-.5099487-.2900391-.7900391-.4499512-.0499878-.0300293-.1500244-.0800171-.3699951-.2199707-1.3899536-.8099976s-.0100098 0-.0200195-.0100098l-.2999878-.1699829-1.0700073-.6199951-1.4400024-.8400269-.9400024-.539978c3.9299927-2.1500244 7.0299683-6.3200073 11.0100098-7.2700195 7.6199951-1.8200073 13.3099976 6.7800293 13.3099976 6.7800293l21.1300011-6.7200317c-.0000002.0000002 7.5899656 4.049988 13.5700071 7.3300173z" fill="#1a3022"/><path d="m42.3819962 71.9101105 5.5434761 14.4782562s4.0513992 3.8609695 3.782608 2.0869598c-.4891281-3.2282639 4.076088 2.7391281 4.9565239.0652161.3095818-.9402161 1.539669-.0694962 2.608696-.717392l4.2391281-17.1521759" fill="#23211f"/><path d="m64.6863403 71.2579346c-6.6521721 21.391304-6.019474 9.358696-11.7554321 9.358696s-10.3858719-4.0622864-10.3858719-9.0733719 4.6499138-9.0733681 10.3858719-9.0733681 13.2434692 4.0029945 11.7554321 8.788044z" fill="#281a0e"/><path d="m42.058979 61.2514229-10.9100341 19.9400062-2.2000123 4.0199585h-7.6300048l3.9100341-5.2600097 13.8900147-18.699955z" fill="#64ffe1"/><path d="m91.358963 85.2113876h-7.6300049l-2.0900268-3.8200073-11.0199585-20.1399574h2.9400024l14.0699463 18.949955z" fill="#64ffe1"/><path d="m80.4689484 85.2113876h-4.4500122l-1.1199952-2.8699951-8.2299804-21.0899696h1.7299804l10.3699952 20.5899696z" fill="#64ffe1"/><path d="m38.974384 44.469891h2.983696v16.777174h-2.983696z" fill="#64ffe1"/><path d="m70.555908 44.469891h2.983696v16.777174h-2.983696z" fill="#64ffe1"/><path d="m38.0689278 92.4713974c-2.4499512 1.460022-4.7599487 2.9899902-6.9599609 4.8300171-1.3099976 1.0899658-2.5 2.2999878-3.7000122 3.4899902l-.1199951-.0700073-.7000122-.4000244c1.3400269-1.5499878 2.9500122-2.9199829 4.539978-4.1699829 1.960022-1.5299683 4.3700562-3.3900146 6.8099976-4 .1900023-.0499878.3000487.2200317.1300048.3200073z" fill="#64ad77"/><path d="m85.3789215 100.2914047-.0099487.0100098-.4400024.2600098-.3500366.1999512c-4.25-2.8199463-8.5199585-5.539978-13.539978-6.8800049-.1400146-.0299683-.1099854-.25.039978-.25 2.8400269.0600586 5.4500122 1.3300171 7.9299927 2.6000366 2.1799926 1.1099853 4.5200194 2.3699951 6.369995 4.0599975z" fill="#64ad77"/><path d="m66.659172 44.469891h1.744565v16.777174h-1.744565z" fill="#64ffe1"/><path d="m72.6292267 92.7342377c-.1415405-.2836914-.6516113-.2337646-.7068481.0924072-.1086426.6414795-.1925049 1.2632446-.2879028 1.8741455-.1777954-.0045166-.3600464.0882568-.4313354.3009033-.6013794 1.7935181-2.3602905 3.5908813-3.6216431 5.0170288-1.3158569 1.4876709-2.8968506 2.512085-4.6866417 3.3527832-2.0025635.9406738-4.2540283 2.1699829-6.5515747 1.7894897-1.6157837-.2675781-3.0584717-1.0723267-4.7081909-1.279541-.7921753-.0994873-1.0648804 1.1343994-.4005127 1.4786987.0896606.0464478.1757202.0859985.2644043.1310425-.1721802.2288818-.2237549.5221558-.0696411.7493286-2.9588623-.5872192-5.7748413-1.7817383-8.2047729-3.6144409-3.0321655-2.2869263-4.8004761-5.2059326-6.5612793-8.4847412-.1149902-.2140503-.4108887-.0588989-.3712769.1565552 1.6263428 8.8422241 11.7108154 14.0183105 19.9506836 13.904541 4.9939575-.0689697 8.9199791-1.484436 12.4576988-5.0162964 2.494995-2.4908447 5.7743529-6.7523803 3.9288329-10.4519042z" fill="#0e1e13"/><path d="m77.371124 68.681847h11.641304v1.467391h-11.641304z" fill="#64ffe1"/><path d="m87.740692 54.399239h1.271739v15.26087h-1.271739z" fill="#64ffe1"/><path d="m22.718952 68.681847h11.641304v1.467391h-11.641304z" fill="#64ffe1" transform="matrix(-1 0 0 -1 57.079208 138.831085)"/><path d="m22.718952 54.399239h1.271739v15.26087h-1.271739z" fill="#64ffe1" transform="matrix(-1 0 0 -1 46.709641 124.059341)"/><path d="m75.56134 64.328583h6.505435v.586957h-6.505435z" fill="#64ffe1"/><path d="m87.080368 68.7777634-1.8382721.380455-3.696907-4.5060883.5215912-.3235473z" fill="#64ffe1"/><path d="m23.9906902 69.6601105 5.201088 5.9673843 1.907608-2.3967361-5.086956-3.766304" fill="#64ffe1"/><path d="m64.6118317 63.874958c-.0134888-.0269775-.0539551-.0032349-.0404663.0236816.0109253.0217285.0218506.043396.0327759.0651245.0134888.0269775.0539551.0032959.0404663-.0236206z" fill="#93633f"/><path d="m47.8366432 35.6262665v15.5223389h15.447525v-15.5223389zm5.1954079 2.2740402h3.0031281v4.9937897l-3.0031281 3.0146523zm8.0885506 11.0657921h-11.1041527l3.0001221-3.0176735h8.1040306z" fill="#202328" opacity=".79"/><path d="m70.2581329 86.2686386c-3.3338623.3647461-7.5421715 2.2844849-9.7083092 4.8900757-.0955811.1149902.052063.2680664.1657104.1657104 1.8181152-1.637146 4.2246056-2.7598267 6.5109825-3.5734863 2.1626587-.7695923 8.1430664-1.791748 7.8825073 2.1480103-.0218506.3302002.0985489.5586929.175148.239418.7008058-2.9197998-2.8821181-4.1042252-5.026039-3.8697281z" fill="#64ad77"/><path d="m34.2298203 91.3010712s6.75 14.9552841 20.25 15.2073364c13.5.2520599 20.7391281-16.0475235 20.7391281-16.0475235s.9782639-3.5287704-2.8369522-3.4447556c-3.8152161.0840225-11.3594704 11.4792633-31.891304 3.0246658-7.1413079-2.9406432-6.2608719 1.2602769-6.2608719 1.2602769z" fill="#1c3a27"/><path d="m25.2289619 79.9513779c1.8699951.4500122 3.8399658.8699951 5.9199829 1.2400513l-2.2000122 4.0199585h-7.6300049z" fill="#38c6c2"/><path d="m34.7889595 81.7914047c1.2600098.1799927 2.539978.3599854 3.8599854.5100098l-1.1400146 2.9099731h-4.4400024z" fill="#38c6c2"/><path d="m41.7289619 82.6214218c1.1499634.1199951 2.3099976.2099609 3.4899902.2999878l-.5800171 2.289978h-3.8099976z" fill="#38c6c2"/><path d="m65.4089508 83.1214218.5200195 2.0899658h-3.260006l-.4199829-1.9599609c1.0699464-.0400391 2.1199914-.0800171 3.1599694-.1300049z" fill="#38c6c2"/><path d="m71.818924 82.6613998.8900146 2.5499878h-3.8099976l-.5700073-2.2699585c1.1799927-.0800171 2.3500366-.1700439 3.4899903-.2800293z" fill="#38c6c2"/><path d="m78.7689362 81.8413925 1.7000122 3.3699951h-4.4500122l-1.1199951-2.8699951c1.3200073-.1499634 2.6099853-.3200073 3.8699951-.5z" fill="#38c6c2"/><path d="m91.358963 85.2113876h-7.6300049l-2.0900269-3.8200073c2.1000366-.3599854 4.1000366-.75 5.9899902-1.1900024z" fill="#38c6c2"/><path d="m73.7740631 87.2071152c-.5606689-.1905518-1.197876-.2611694-1.7998657-.1802368.1752319-.0396729.2196045-.2805786.0264282-.3430786-.2436523-.0788574-.4910889-.1309814-.6977539.0554199-.0198975.0180054-.1253662.1495361-.1268921.1726074-.06427.038208-.1389771.0627441-.2047729.0985107-.173584-.335083-.5241699-.581604-.9238281-.5141602-.0906372.0153198-.1333618.1397095-.0863647.2123413.1038818.1604614.3763428.2385864.444397.3856812.102478.2216187-.0909424.5478516-.2286987.7011719-.0933228.1038208-.1826782.2176514-.2843628.3131714-.4309692.4047852-1.0067139.6954346-1.4768677 1.0577393-.0818481.0631104-.0403442.2103271.0752563.1784668.4979248-.1369629.9379272-.3026123 1.376709-.5769653.2694702-.168457.5665283-.3446045.8114014-.5662231.0152588-.0085449.0303955-.0036011.0454102-.0158081.7220459-.5883789 1.5822144-.7380371 2.4862061-.5313721.9286499.2122803 1.4279175.68573 1.675354 1.6034546.0307617.1139526.2080078.1486206.2642212.0345459.4824216-.9801027-.5328982-1.7987672-1.3759768-2.0852662z" fill="#64ad77"/><path d="m43.7774239 91.4110947c-1.2796021-.2332764-2.6499634-.336731-3.8095093-.9690552-.4858398-.2648926-1.3086548-.6670532-1.569519-1.1575928-.322937-.2074585-.298645-.4384155.072876-.692749.0656128-.2750244.2182007-.4464722.4577637-.5144043.1060181-.0910645.3533325-.2252197.4552002-.3103027.0482178-.0402832.0197144-.1223755-.0361938-.137085-.6433105-.1692505-1.2865601.0602417-1.6533813.4645996-.7537842-.2439575-1.7928467.2510986-2.3673096.6981812-.6271362.4880371-1.1841431 1.3242188-1.2028198 2.133728-.0019531.0823364.1218872.1209106.1600952.043335.3700562-.7505493.7393188-1.3008423 1.4803467-1.7375488.4935913-.2908936 1.105835-.3392334 1.6298828-.5289307-.0456543.338562.0811768.7119141.4606323 1.0583496 1.4677734 1.3401489 4.0186768 1.6298218 5.9001465 1.8106079.0913084.008728.1127317-.1445923.0217894-.1611328z" fill="#64ad77"/><path d="m67.3899689 89.9681625c-.6477051.1781006-1.2150879.668457-1.8067627.9835205-.6537476.3480835-1.4170532.5687256-2.0086632 1.0136719-.0358887.0269775-.026062.0856934.0236816.0873413.6937218.0233765 1.3655968-.2894287 1.9929771-.55896.6688232-.2873535 1.5336914-.6070557 1.9926147-1.1925659.1149904-.1467285.0150758-.3904418-.1938475-.3330078z" fill="#64ad77"/><g fill="#202328"><path d="m72.3947906 109.6333618 3.0074539 5.1863632 5.1613693-2.9929581-3.0074539-5.1863632zm2.1764985-.2468033 1.0034103-.5818558.9675446 1.668541-.4193192 1.589119zm4.8465652 2.1301728-3.7101517 2.1514359.4177322-1.5895538 2.7077408-1.5701523z"/><path d="m78.8659058 106.7558365-.0044708-.0077133c-.1200409-.2070084-.0619583-.4336853.1287079-.5442429.1571503-.0911331.3245926-.0827255.4337463.070137l-.1293411.0750046c-.0674057-.0831528-.1455994-.1008606-.244278-.0436401-.1207123.0699997-.1445618.209938-.0552292.3639908l.0044556.0076752c.0899048.1550446.216713.2037048.3431702.1303787.0948715-.0550156.1340179-.1420517.0910721-.2470932l.1245499-.0722198c.0759048.1772919.0076065.3288345-.1553192.4233093-.2145997.124443-.4142305.0562362-.5370637-.1555863z"/><path d="m79.6715851 106.2886429-.0044708-.0077133c-.1166916-.2012405-.0595016-.4338303.1436234-.5516205.2041092-.1183624.4292679-.0546494.5465164.1475525l.0044708.0077057c.1166992.2012482.0672989.4318695-.1406097.5524368-.2098161.1216659-.434517.0499802-.5495301-.1483612zm.5584717-.3264389-.0044708-.0077133c-.082077-.1415329-.2215118-.2009201-.3556671-.1231308-.1341248.0777817-.1561661.2230988-.0701828.3713913l.0044556.0076752c.0870972.1501999.2345428.1946869.3590927.1224594.1293715-.0750199.1533126-.2214432.0667724-.3706818z"/><path d="m80.3795853 105.4123077.1523285-.0883331.5770721.3305359-.2886505-.4977875.1159592-.0672379.3992157.688446-.132225.0766754-.6145248-.3487167.3059692.5276413-.1159286.0672226z"/><path d="m81.4221573 105.4420395.1226425-.0711212c.0488663.0643158.1101074.1059952.2260666.0387497.0756836-.0438919.1047668-.1173782.0679245-.1809082s-.082428-.0692902-.2041702-.0231323c-.176712.0728836-.2833252.0678177-.3581543-.0612259-.0653152-.1126328-.0186386-.2529526.1241455-.3357468.1475449-.085556.2747879-.069252.3646927.0548782l-.1168747.0677795c-.0543518-.0650101-.1134033-.0719376-.1919785-.0263748-.0776596.0450363-.096077.1059113-.0653687.1588669.0323868.0558548.0715256.0704575.2004242.0188751.17379-.0711899.2839432-.0733261.3638.0643768.0692291.1193924.0227661.2711182-.1286087.358902-.186859.1083527-.3195876.0605317-.4045409-.063919z"/><path d="m81.893219 104.534584.4282913-.2483521.0586243.1010971-.3008575.1744537.109436.1887207.2414322-.1399994.0558319.0962906-.2414246.1399994.1166916.2012405.3171539-.1839066.0586243.1010971-.4445877.2578049z"/><path d="m82.5484695 104.1546173.1523285-.0883331.5771103.330513-.2886505-.4977798.115921-.0672226.3992157.688446-.132225.0766754-.6145172-.3487167.3059616.5276413-.1159286.0672226z"/><path d="m83.5910721 104.1843338.1226501-.0711212c.0488663.0643158.1101074.1059952.2260666.0387497.0756836-.0438919.1047592-.1173782.0679169-.1809082-.0368347-.0635376-.0824203-.0692902-.2041626-.0231323-.176712.072876-.2833252.0678177-.3581543-.0612259-.0653152-.1126328-.0186386-.2529526.1241455-.3357468.1475372-.085556.2747879-.069252.3646927.0548782l-.1168823.0677719c-.0543442-.0650024-.1134033-.0719299-.1919785-.0263672-.077652.0450363-.096077.1059113-.0653687.1588669.0323868.0558548.0715332.0704575.2004242.0188751.1737976-.0711899.2839508-.0733337.3638.0643768.0692291.1193924.0227737.2711182-.1286011.358902-.186859.1083527-.3195876.0605317-.4045485-.063919z"/><path d="m84.4147186 103.5935135-.4531937-.2582932.1408539-.0816803.3195267.1955566-.0148392-.3722305.1245804-.0722504.0120468.5153809.1725311.2975311-.128418.0744705z"/><path d="m84.8881989 103.4321594.1226501-.0711212c.0488663.0643158.1101074.1059952.2260666.0387497.0756836-.0438919.1047592-.1173782.0679245-.1809082-.0368423-.0635376-.082428-.0692902-.2041702-.0231323-.176712.072876-.2833252.0678177-.3581543-.0612259-.0653152-.1126328-.0186386-.2529526.1241455-.3357468.1475372-.085556.2747879-.069252.3646927.0548782l-.1168823.0677719c-.0543442-.0650024-.1134033-.0719299-.1919708-.0263672-.0776596.0450287-.096077.1059113-.0653763.1588669.0323944.0558548.0715332.0704575.2004318.0188751.17379-.0711899.2839432-.0733337.3638.0643768.0692291.1193924.0227661.2711182-.1286087.358902-.1868591.1083528-.3195877.0605317-.4045486-.063919z"/><path d="m82.7958603 109.1895828.401268.6919861c.0060654.0104599.0025482.0238342-.0078659.0298767l-1.8543396 1.0752869c-.0104141.0060349-.0237732.002449-.0298386-.0080109l-1.9184265-3.3083344c-.0060654-.0104675-.0025406-.0238419.0078659-.0298767l.8113708-.4704971c.0104141-.0060349.0237732-.002449.0298386.0080109l1.5061798 2.5974121 1.0241165-.5938644c.0104066-.0060349.0237656-.0024491.029831.0080108z" opacity=".99"/><path d="m84.6817932 105.7134857 1.4351654 2.4749451c.0060654.0104599.0025406.0238342-.0078659.0298691l-.7641678.4431229c-.0104141.0060425-.0237732.002449-.0298386-.0080109l-.1945724-.3355408c.0124664.2992935-.2036896.6753998-.5286255.8638229-.7285233.4224548-1.5611954.1459579-1.9965057-.604744-.4353409-.7507324-.2616882-1.6107254.466835-2.0331802.3249359-.1884232.7617569-.1839905 1.0153275-.0245056l-.1976242-.3407974c-.0060654-.0104599-.0025406-.0238342.0078659-.0298691l.7641678-.4431229c.0104141-.0060424.0237731-.002449.0298385.0080109zm-.0842743 1.7024765c-.1995316-.3440857-.6129532-.5014496-.9746017-.2917404s-.4304199.6466904-.230896.9907761c.2025528.3493042.6129303.5014114.9745789.2917023s.4334716-.6414338.2309188-.990738z" opacity=".99"/><path d="m87.1508408 107.614212-.7641983.4431458c-.0104141.0060349-.0237732.002449-.0298386-.0080109l-2.0063095-3.4598846c-.0060654-.0104599-.0025406-.0238342.0078735-.0298691l.7641983-.4431458c.0104141-.0060425.0237732-.002449.0298386.0080109l.7687607 1.3257294c-.0124664-.2992935.2006302-.6805878.5308304-.8720703.7285233-.4224548 1.5611343-.1459732 1.9964676.6047668.435318.7507019.2617264 1.6107025-.4667969 2.0331573-.3302078.1914749-.7639618.1922455-1.0175247.032753l.1945648.3355408c.006073.0104676.0025482.0238419-.0078659.0298767zm.495758-1.9663467c-.1995316-.3440857-.6129532-.5014496-.9693375-.2947922-.3668747.2127457-.4356461.6497269-.2361221.9938126.2025528.3493042.6129303.5014114.979805.2886734.3563843-.2066651.4282074-.6383896.2256546-.9876938z" opacity=".99"/><path d="m91.1365051 104.3138351c.3446274.5943069-.0450363 1.1058731-.6739655 1.4705734-.7099609.4116898-1.3396072.3477783-1.6780624-.2130356-.0063477-.0105133-.0027847-.024437.0077896-.030571l.7485275-.4340515c.0102158-.005928.0231781-.002243.0294418.0078354.1539307.2476807.3768692.2511902.6071548.1176605.1938934-.1124344.2908554-.2592392.1941223-.4260635-.1118698-.1929092-.3261337-.1034698-.8937912.0167236-.4948502.1127777-.9260025.2025528-1.2071381-.2822723-.3023224-.521347-.0093994-1.0185928.6719208-1.4136734.7238312-.4197388 1.2892761-.2663651 1.571434.1982193.0063858.0105133.0027771.0244141-.0078125.0305481l-.7538223.4371262c-.0101852.0059052-.0230942.002243-.0293579-.0077972-.1206894-.1933289-.2960663-.2423782-.5095901-.1185532-.1624451.0942001-.2563934.2462158-.1687241.3973923.1058121.1824799.3440857.0860825.8502579-.0193176.5210344-.1279603.9574281-.2208252 1.2416154.2692565z" opacity=".99"/></g><g clip-path="url(#a)" enable-background="new" fill="#00c1a0"><path d="m83.8615646 46.7006149-.1889038-.1325226.0365829-.4694862.1949921.1283035zm-.1679458-.7942543c-.0783386-.051548-.1095276-.0263786-.1180878.1042671l-.0410995.4500542c-.0093002.1419296.0159607.1996918.1157303.273571l.211174.1471825c.0947266.0623245.1246338.0490913.1400299-.0970612l.0350266-.4458199c.0153961-.1461792-.0098877-.2039261-.1101608-.2699051l-.2111969-.1471939c-.0074922-.0055999-.0146333-.0106315-.0214158-.0150947"/><path d="m84.2599945 46.2964859-.1337128-.0879784-.0113678.1734848.1225586.0806427-.0590897.6356354.133194.0958672.0611572-.6671867c.0077592-.1182938-.0297012-.1675988-.1127395-.230465"/><path d="m84.7676086 47.3296661-.1944809-.1361923.0421524-.4657898.1944809.1361923zm-.1465301-.7791328c-.0947037-.0623093-.1302032-.0527878-.1400223.0970612l-.0406036.4421501c-.009819.1498222.0154648.2075691.1101608.2698822l.2111969.1471901c.0078888.0058632.0153503.0110779.0224152.015728.0820847.0540085.1090012.0254745.1231842-.1091194l.0350266-.4458199c.0153885-.1461525-.015976-.199707-.1101608-.2699051z"/><path d="m85.0323257 46.8375587-.0113754.173481.116478.0848694-.0535202.6393013.1337051.0879784.0550766-.6629372c.0133057-.1146393-.0291901-.1755142-.1127472-.2304955z"/><path d="m85.6731262 47.9666328-.1944733-.1361923.0426712-.4737053.1889038.1325226zm-.1722336-.7972221c-.0793839-.0522308-.1048737-.0288696-.1137924.1072311l-.0406036.4421539c-.009819.1498489.0154419.2075844.109642.2777939l.2111969.1471939c.1002731.065979.130722.0448723.1400223-.0970612l.0410995-.4500504c.0093002-.1419334-.0159607-.1996956-.1101608-.2699089l-.2116928-.1392899c-.0091553-.0067747-.0177231-.0128057-.0257111-.0180624"/><path d="m86.2459259 48.3599815-.1889038-.1325226.0365829-.4694824.194458.1361771zm-.1465225-.7791595c-.0947189-.0623207-.1246338-.0490913-.1400223.0970612l-.0350342.4458199c-.0153885.1461525.0098724.2039146.1101608.2699051l.2111816.1471786c.0074539.0055504.0145187.0105057.0212097.0149078.077713.051136.1046524.0226135.1188126-.1119652l.0406036-.4421539c.009819-.1498451-.0159607-.1996918-.1157379-.273571z"/><path d="m86.5161972 47.8715286-.0169373.1698151.1220474.0885353-.0590973.6356354.1387711.0995064.0555878-.670826c.0077515-.1182938-.0291748-.1754761-.1127472-.2304649z"/><path d="m87.1514359 48.9969101-.1944733-.1361923.0426636-.4736786.1944809.1361923zm-.1709748-.7963905c-.0760574-.050045-.1061401-.0296745-.1150589.1064301l-.0410995.4500237c-.0093079.1419601.0159607.1996956.1101608.2699089l.211174.1471786c.100296.0659904.1302032.0527878.1455994-.0933914l.0350266-.4458199c.0153961-.1461563-.0098877-.2039299-.1101608-.2699089l-.2111969-.1471634c-.0086213-.0064545-.0167771-.0122109-.0244447-.0172577"/><path d="m87.5498657 48.5927811-.1337128-.0879822-.0113678.1734848.1169891.0769806-.0535202.6393013.133194.0958672.0611572-.66716c.0077592-.1182939-.0297011-.1676255-.1127395-.2304917"/><path d="m88.0574799 49.625988-.1944809-.1361923.0421524-.4658165.1944809.1361885zm-.1465302-.7791595c-.1002731-.065979-.1302032-.0527611-.1400223.0970573l-.0406036.4421539c-.009819.1498184.0154648.2075958.1101608.2699051l.2111969.1471939c.0078888.0058327.0153503.0110512.0224228.0157013.0820618.0539932.1089935.0254974.1231689-.1090965l.0350342-.4458199c.0153885-.1461525-.015976-.1997032-.1101608-.2699051z"/><path d="m88.3221741 49.1338654-.0113678.1734848.1164932.084877-.0535202.6393013.1337051.0879822.0550613-.6629791c.0133209-.1146011-.0291748-.1754761-.1127472-.2304649z"/><path d="m88.9635162 50.2550621-.1944733-.1361885.0421524-.4658165.1889038.1325226zm-.1465225-.7791595c-.100296-.0659904-.1302032-.052784-.1400223.0970612l-.0406036.4421539c-.009819.1498184.0154419.2075806.1101608.2699051l.2111893.1471901c.0078964.0058365.015358.011055.0224228.0157013.0820236.0539742.1085663.0251884.1176071-.1127586l.0405807-.4421654c.009819-.1498451-.0159607-.1996956-.1101608-.2699051z"/><path d="m89.5358047 50.6562767-.1889038-.1325264.0365601-.4694672.1944733.1361885zm-.1465301-.7791328c-.0947189-.0623245-.124649-.0491333-.1400223.0970573l-.0350342.4458199c-.0153885.1461563.0098724.2038918.1101685.2698822l.211174.1471786c.0074539.0055771.0145187.0105324.0212097.0149307.077713.0511398.1046524.0226173.1188126-.1119919l.0406036-.4421501c.009819-.1498222-.0159607-.1996956-.1157379-.2735748z"/><path d="m89.806076 50.16782-.0169449.1698189.1220474.0885353-.0590973.6356316.1392822.0916481.0550766-.6629372c.0077515-.1182976-.0291748-.1755028-.1127472-.2304955z"/><path d="m90.4413071 51.2932281-.1944733-.1361885.0426712-.4737053.1944733.1361885zm-.1709748-.7963905c-.0760574-.0500412-.1061401-.0297012-.1150589.1064034l-.0406036.4421539c-.009819.1498184.0154648.207592.109642.2777939l.2111969.1471901c.100296.0659904.130722.0448723.1455994-.0933914l.0355453-.4537086c.0148773-.1382637-.0104065-.1960373-.1106796-.2620163l-.2111893-.1471939c-.0086288-.0064279-.0167846-.0121842-.0244522-.0172311"/><path d="m90.8341599 50.8854332-.1281357-.0843124-.0113678.173481.1169891.0769806-.0535202.6393013.133194.0958672.0611649-.6671867c.0077438-.1182672-.0297089-.1675989-.1183243-.234131"/><path d="m91.3473511 51.9222794-.1944809-.1361656.0421524-.4658165.1889038.1325264zm-.1689453-.7948609c-.0820465-.0539818-.1085663-.0251884-.1176071.1127892l-.0406036.4421501c-.009819.1498222.015976.199707.1101608.2699089l.2111969.1471901c.1002731.065979.1302032.0527611.1400223-.0970573l.0406036-.4421539c.009819-.1498489-.0154648-.2075958-.1101608-.2699051l-.2111969-.1471939c-.0078889-.0058633-.0153733-.0110894-.0224152-.0157281"/><path d="m91.6120453 51.4301834-.0113678.1734848.116478.0848656-.0535049.6392899.1337051.0879784.0555725-.6708374c.0128098-.106739-.029686-.167614-.1132584-.2226067z"/><path d="m92.2533875 52.5513573-.1944733-.1361923.0421371-.4658279.1889038.1325226zm-.1465226-.7791596c-.100296-.0659904-.1302032-.0527611-.1455994.0933914l-.0350265.4458199c-.0153961.1461792.0154419.2075844.1101608.2699051l.211174.1471825c.0074615.0055733.0145798.0105667.0213242.015007.0784378.051609.1096573.0259056.1186981-.1120682l.0406036-.4421539c.009819-.1498184-.0159607-.1996918-.1101608-.2699051z"/><path d="m92.5180893 52.0592346-.0169449.1698189.1220474.0885315-.0535202.6393013.133194.0958672.0555878-.6708527c.0133286-.1146011-.0291672-.1754761-.1127472-.2304649z"/><path d="m93.1533203 53.1846428-.1889038-.1325226.0371017-.477375.1944733.1361923zm-.1708374-.7963295c-.0752487-.0494804-.1012115-.026432-.1151962.1063423l-.0355453.4537048c-.0148697.1382675.0104065.1960411.1101608.2699089l.2111969.1471901c.0947189.0623245.1302032.0527611.1400223-.0970573l.0411224-.4500427c.0093002-.1419563-.015976-.199707-.1162491-.265686l-.2111969-.1471901c-.0086212-.0064278-.0167236-.0121728-.0243149-.01717"/><path d="m93.7316971 53.5816345-.1944809-.1361656.0421524-.4658165.1944809.1361923zm-.1465302-.7791328c-.094696-.0623131-.1302032-.0527878-.1400223.0970573l-.0406036.442154c-.009819.1498222.0154648.2075958.109642.2777939l.2117157.1393051c.0079498.0058708.0154495.0111389.0225525.0158157.0819626.0539322.1088257.0259209.1225281-.1013489l.0355453-.4536781c.0153961-.1461792-.0104065-.1960411-.1101608-.2699089z"/><path d="m83.4516068 47.0148773-.0169449.1698151.1220474.0885353-.0590744.6356468.133194.0958672.061142-.6671715c.0077515-.1182938-.0291748-.1755028-.1127472-.2304916z"/><path d="m84.086853 48.1402969-.1888962-.1325226.0370789-.4773865.1944733.1361923zm-.1678619-.7942047c-.0776215-.051075-.1044846-.023037-.1181641.1042175l-.0411224.4500389c-.0093002.1419334.0159607.1996956.1101608.2699089l.211174.1471786c.100296.0659904.1302109.0527611.1455994-.0933914l.0355453-.4537086c.0148773-.1382637-.0103836-.1960297-.1106796-.2620201l-.211174-.1471786c-.0075149-.0055847-.0146179-.0106201-.0213394-.0150452"/><path d="m84.4852676 47.7361565-.1337128-.0879822-.0113678.1734848.1169891.0769806-.0535201.6393013.133194.0958672.0611649-.6671867c.0077514-.1182672-.0296937-.1675874-.1127473-.230465"/><path d="m84.9928818 48.7693367-.1944809-.1361656.0421524-.4658165.1944809.1361885zm-.1465302-.7791328c-.094696-.0623131-.1302032-.0527878-.1400223.0970573l-.0406036.4421539c-.009819.1498184.0154648.2075958.1101608.2699051l.2111969.1471939c.0078964.0058327.0153732.0110626.0224228.0157013.082077.0540085.1089935.0254707.1231766-.1090965l.0350266-.4458199c.0153961-.1461792-.0154572-.207592-.1101608-.2699051z"/><path d="m85.5707321 49.1742401-.1944733-.1361885.0426712-.4736786.1889038.1325226zm-.169075-.7949715c-.0819626-.053936-.1088257-.0259209-.1225281.1013451l-.0355453.4536819c-.0153961.1461792.0104065.1960373.1101608.2699051l.2111969.1471901c.094696.0623131.1302032.0527878.1400223-.0970573l.0406036-.4421539c.009819-.1498184-.0154648-.207592-.1101608-.2699051l-.2111969-.1471939c-.0079498-.0058709-.0154495-.0111389-.0225525-.015812"/><path d="m85.9635925 48.7664452-.1281357-.0843124-.0169449.1698151.1225662.0806465-.0535278.6393013.133194.0958672.0555878-.670826c.0077591-.1182939-.0297012-.1676255-.1127396-.2304917"/><path d="m86.4712067 49.7996521-.1889038-.1325264.0365753-.4694824.1944809.1361923zm-.1465302-.7791595c-.0947189-.0623245-.1246338-.0490952-.1400223.0970573l-.0350266.4458199c-.0153961.1461563.0098877.2039299.1101608.2699089l.2111893.1471901c.0074615.0055504.0145111.0104942.0211945.0148926.0777206.0511398.1046524.022644.1188278-.1119499l.0405884-.4421654c.009819-.1498222-.0159607-.1996956-.1157379-.2735748z"/><path d="m86.741478 49.3111954-.0169449.1698189.1220474.0885353-.0590744.6356468.1337051.0879784.0606308-.6593094c.0077515-.1182709-.0291748-.1754761-.1127472-.2304688z"/><path d="m87.182251 50.3003998.0426559-.47369.1944733.1361885-.0421524.4657898zm.0234833-.6602135c-.0760345-.0500298-.1061401-.0296707-.1150589.1064301l-.0405807.4421654c-.009819.1498184.0154419.2075806.109642.2777939l.211174.1471519c.100296.0659904.130722.044899.1455994-.0933914l.0355453-.4536819c.0148773-.1382904-.0103836-.1960258-.1106796-.2620163l-.2111893-.1471939c-.0086289-.0064279-.0167771-.0122109-.0244522-.0172578"/><path d="m87.9550858 50.8335953-.1944809-.1361885.0421524-.4657936.1889038.1324997zm-.1465302-.7791329c-.1002731-.065979-.1302032-.0527878-.1455917.0933685l-.0350189.4458313c-.0153885.1461792.0154419.2075806.1101685.2699051l.211174.1471786c.0074539.0055771.0145798.0105705.0213013.0149956.0784531.0516205.1096802.0259209.118721-.1120529l.0406036-.4421539c.009819-.1498184-.015976-.199707-.1101608-.2699051z"/><path d="m88.2198029 50.3414879-.0169449.1698151.1220474.0885353-.0535202.6393013.133194.0958672.0555878-.670826c.0133209-.1146278-.0291901-.1755142-.1127472-.2304916z"/><path d="m88.8606033 51.470562-.1944733-.1361923.0426712-.4737053.1889038.1325264zm-.169075-.795002c-.0819626-.0539322-.1088486-.0259056-.1225281.1013451l-.0355453.4537086c-.0148773.1382637.0104065.1960411.1101608.2699051l.2111969.1471939c.094696.0623131.1302032.0527611.1400223-.0970612l.0411224-.4500389c.0093002-.1419334-.0159836-.199707-.1106796-.2620201l-.2111969-.1471901c-.0079498-.0058746-.0154495-.0111694-.0225525-.0158424"/><path d="m89.2534409 51.0627518-.1281357-.0843124-.016922.1698303.1225662.0806465-.0535278.6393013.133194.0958672.0555725-.6708679c.0077514-.1182672-.029686-.1675874-.1127472-.230465"/><path d="m89.7610779 52.0959435-.1889038-.1324959.0365753-.4694824.1944809.1361885zm-.1465302-.7791329c-.0947189-.0623207-.1246262-.049118-.1400223.0970612l-.0406036.4421539c-.009819.1498184.0154419.2075806.1157379.273571l.2056198.1434975c.0078888.0058632.0153503.0110817.0224152.015728.0820694.053997.1090012.0254745.1231766-.1090927l.0350113-.4458313c.0153961-.1461792-.0098648-.2039146-.1101608-.2699051z"/><path d="m90.0313492 51.6075172-.0169449.1698151.1220474.0885353-.0590744.6356201.1336899.0879669.0606461-.6592712c.0077515-.1182938-.0291672-.1755028-.1127472-.2304916z"/><path d="m90.667099 52.7250099-.1944733-.1361923.0421524-.4658165.1944733.1361923zm-.1465225-.7791595c-.0947037-.0623131-.1302109-.0527611-.1400299.0970612l-.0405807.4421616c-.009819.1498489.0154419.2075844.1101608.2699089l.211174.1471786c.0079498.0059013.0154648.0111809.0225525.0158424.0819626.0539322.1088486.0259323.1225281-.1013451l.0355453-.4537086c.0153961-.1461525-.0104065-.1960411-.1101608-.2699089z"/><path d="m90.9318161 52.2328987-.0113678.1734848.1164703.0848694-.0535202.6393013.133194.0958672.0555878-.6708527c.0133286-.1146011-.0291672-.1754761-.1127472-.2304688z"/><path d="m91.5726242 53.3619766-.1944809-.1361923.0426712-.4737053.1889038.1325226zm-.169075-.795002c-.0819321-.0539093-.1083984-.0256348-.1169586.105011l-.0411224.4500427c-.0148697.1382637.015976.199707.1101608.2699051l.2111969.1471939c.0947037.0623093.1302032.0527573.1400223-.0970612l.0406036-.4421539c.0153961-.1461792-.0154572-.207592-.1101608-.2699051l-.2111969-.1471901c-.0079422-.0059013-.0154648-.0111808-.0225449-.0158424"/><path d="m92.1504822 53.7668533-.1944809-.1361885.0371017-.4773483.1944733.1361923zm-.1722412-.7972221c-.079422-.0522537-.1053848-.0291748-.1193695.1035957l-.0350266.4458199c-.0153961.1461525.0098877.2039261.109642.2777939l.2111969.1471634c.094696.0623131.130722.044899.1400223-.0970573l.0411148-.450016c.0093079-.1419563-.015976-.199707-.110672-.2620163l-.2111969-.1471939c-.0091324-.0067598-.0177002-.0128175-.025711-.0180894"/><path d="m92.5433121 53.3590469-.1281357-.0843163-.0169449.1698456.1225662.0806465-.0535049.639286.133194.0958672.0555725-.6708374c.0077514-.1182937-.029686-.1676139-.1127472-.2304916"/><path d="m93.0509491 54.3922653-.1889038-.1325264.0365829-.4694824.1944504.1361771zm-.1678696-.794178c-.0776215-.051075-.1044846-.0230637-.1181641.1041908l-.0355453.4537048c-.0153961.146183.0098648.2039185.1101608.2699089l.211174.1471786c.0947189.0623245.1246338.0490952.1400223-.0970612l.0350342-.4458199c.0153885-.1461525-.0098724-.2039146-.1101608-.2699051l-.2111816-.1471786c-.007515-.0055884-.014618-.0105932-.0213395-.0150183"/><path d="m93.3156433 53.9001427-.0113678.1734848.1220474.0885353-.0590973.6356316.1337128.0879822.0606461-.6592979c.0077515-.1182709-.0291748-.1754761-.1127472-.2304688z"/><path d="m83.6567917 49.1158485-.1944733-.1361923.0421524-.4657898.1944733.1361923zm-.1465225-.7791328c-.0947037-.0623131-.1302032-.0527878-.1400299.0970573l-.0406036.4421539c-.009819.1498222.0154648.2075691.1101685.2698784l.2111893.1471939c.0079498.0058975.0154495.0111656.0225525.0158424.0819702.0539322.1088333.0259209.1225281-.1013489l.035553-.4537048c.0153885-.1461525-.0159836-.199707-.1101685-.2698822z"/><path d="m84.2346497 49.5207558-.1944809-.1361923.04216-.4658165.1889038.1325226zm-.1465302-.7791596c-.1002731-.065979-.1302032-.0527611-.1455917.0933914l-.0350342.4458199c-.0153885.1461792.0098877.2039261.1101608.2699051l.2111969.1471939c.0074615.0055466.0145569.0105553.0213013.0149918.0784378.051609.1096802.0259209.118721-.1120529l.0406036-.4421539c.009819-.1498184-.015976-.1997032-.1101608-.2699051z"/><path d="m84.4993439 49.0286331-.016922.1698303.1220474.0885315-.0535202.6393013.1337128.0879822.0550537-.6629791c.0077515-.1182671-.0291748-.1754761-.1127472-.2304649z"/><path d="m84.945694 50.0215263.0371017-.4773712.1944733.1361923-.0421524.4658165zm.0429001-.6545219c-.0947266-.0623245-.1246338-.0490913-.1400299.0970612l-.0350266.4458199c-.0153961.1461525.0098648.2039146.1101608.2699051l.2106781.1550789c.094696.0623131.125145.0412064.1400223-.0970573l.0410995-.4500542c.0093079-.1419601-.0159531-.1996956-.1162491-.265686z"/><path d="m85.4053879 49.657711-.0174561.1777039.1225586.0806465-.0590744.6356468.1331711.0958557.0611649-.6671867c.0077515-.1182938-.0291672-.1754761-.1127472-.2304688z"/><path d="m86.0406265 50.7830887-.1944809-.1361885.0421524-.4657898.1944733.1361885zm-.1679458-.7942276c-.0783386-.0515442-.1095276-.0263786-.1180954.1042671l-.0410995.4500542c-.009819.1498184.0159607.1996956.1101685.2698784l.211174.1471825c.1002884.0659904.1302032.052784.1455917-.0933952l.0350342-.4458199c.0153885-.1461525-.0098877-.2039261-.1101608-.2699051l-.2111969-.1471634c-.0074998-.0056038-.0146333-.0106354-.0214158-.0150986"/><path d="m86.4334793 50.3752937-.1281357-.0843124-.0113754.1734848.116478.0848656-.053009.6314125.133194.095871.0555878-.6708298c.0133284-.1146279-.0297014-.1676255-.1127397-.2304917"/><path d="m86.9466629 51.4121666-.1944733-.1361885.0421524-.4658203.1889038.1325264zm-.1465225-.7791596c-.1002731-.065979-.1302109-.0527611-.1400223.0970612l-.0406036.4421539c-.0098267.1498451.0154572.207592.1101608.2699051l.2111893.1471901c.0078964.0058365.0153732.0110931.0224228.015728.0820389.0539856.1085587.0251884.1176071-.1127853l.0406036-.4421539c.0098114-.1498184-.0159836-.199707-.1101685-.2699051z"/><path d="m87.2113647 50.9200439-.0113678.1734848.1164932.0848808-.0535278.6393013.133194.0958672.0555954-.6708527c.013298-.1146126-.0291977-.1754875-.1127701-.2304802z"/><path d="m87.8521881 52.0491066-.1944733-.1361656.0370941-.4773712.1944733.1361923zm-.1722412-.7972221c-.0794373-.052269-.1053848-.0291786-.1193619.1035919l-.035553.4537086c-.0148697.1382675.0104065.1960411.1101685.2699089l.2111893.1471901c.0947037.0623131.130722.0448723.1400223-.0970612l.0411072-.4500504c.0093002-.1419601-.0159607-.1996956-.1106796-.2620201l-.211174-.1471786c-.0091554-.0067748-.0177079-.0128211-.0257188-.0180892"/><path d="m88.2450256 51.6413231-.1281356-.0843124-.0169449.1698189.1225662.0806465-.0535202.6392746.1331863.0958672.0555954-.670826c.0077515-.1182976-.0296936-.1675912-.1127472-.2304688"/><path d="m88.7526398 52.6745033-.1889038-.1325226.0365829-.4694862.1944733.1361923zm-.1633759-.7911911c-.0820618-.053997-.1089935-.0254745-.1231766.1090927l-.0350113.4458313c-.0153885.1461792.0098724.2039146.1101608.2699051l.2111816.1471786c.0947189.0623245.1302032.0527878.1400223-.0970573l.0406036-.4421539c.009819-.1498184-.0154648-.207592-.1101608-.2699051l-.2111969-.1471901c-.0078963-.0058365-.0153579-.011055-.0224227-.0157013"/><path d="m89.0229263 52.1860619-.0169373.1698151.1220474.0885353-.0590973.6356354.1337128.0879784.0611572-.66716c.0072403-.110405-.0297012-.1676254-.1132584-.2226028z"/><path d="m89.6586761 53.3035812-.1944733-.1361923.0421524-.4658165.1944809.1361923zm-.1465225-.7791595c-.094696-.0623131-.1302032-.0527611-.1400223.0970612l-.0406036.4421501c-.009819.1498222.0154572.2075958.1101608.2699089l.2111969.1471901c.0078888.0058365.0153503.0110512.0224152.0157013.0820847.0540085.1090012.0255013.1231766-.1090927l.0350342-.4458199c.0153885-.1461525-.0104065-.1960411-.1101608-.2699051z"/><path d="m90.2365341 53.7084885-.1944733-.1361923.0421524-.4658165.1889038.1325226zm-.1465225-.7791596c-.100296-.0659904-.1302032-.0527878-.1400299.0970573l-.040596.4421539c-.009819.1498184.0154572.2075958.1101608.2699051l.2111893.1471939c.0078964.0058365.015358.0110512.0224228.0157013.0820465.0539818.1085663.0251846.1176071-.1127625l.040596-.4421501c.0098267-.1498489-.015976-.199707-.1101608-.2699089z"/><path d="m90.501236 53.2163658-.0169449.1698151.1220703.0885468-.0535278.6392746.1337128.0879822.0550536-.6629525c.0133286-.1146278-.0291748-.1754761-.1127472-.2304649z"/><path d="m90.9475861 54.2092361.0370941-.4773483.194458.1361542-.0421371.4658279zm.0484695-.650856c-.100296-.0659943-.1302109-.0527611-.1455994.0933914l-.0350342.4458199c-.0153885.1461792.0098724.2039146.1101608.2699051l.2106628.1550674c.0947189.0623245.130722.044899.1400223-.0970573l.0411224-.4500427c.009819-.1498184-.0159607-.1996918-.1101608-.2699051z"/><path d="m91.40728 53.845417-.0169449.1698151.1220474.0885353-.0535278.6393013.133194.0958672.0555954-.670826c.0077515-.1182938-.0291748-.1755028-.1127472-.2304916z"/><path d="m92.042511 54.9708252-.1889038-.1325264.0365829-.4694824.1944733.1361923zm-.1678467-.7941933c-.0776215-.051075-.1044846-.0230637-.118187.1042023l-.0355453.4537086c-.0148544.138279.0104065.1960411.1101608.2699089l.2111969.1471901c.0947189.0623245.1302032.0527611.1400223-.0970612l.0406036-.4421501c.009819-.1498489-.0154648-.2075958-.1157379-.2735748l-.2111969-.1471901c-.007492-.005577-.014595-.0106086-.0213165-.0150337"/><path d="m92.4409409 54.5666924-.1281433-.0843124-.0169373.1698189.1225662.0806465-.0590973.6356354.1387634.0995331.0555878-.6708527c.0077591-.1182939-.0297012-.1676026-.1127395-.2304688"/><path d="m92.948555 55.5998726-.1944809-.1361885.0421524-.4657898.1944809.1361885zm-.1465302-.779129c-.0947189-.0623245-.1302032-.0527878-.1400223.0970573l-.0406036.4421539c-.009819.1498184.0154572.207592.1101608.2699051l.2111969.1471672c.0078888.0058594.0153503.0110779.0224152.0157242.0820618.053997.1090012.0254745.1231842-.1091194l.0350266-.4458199c.0153885-.1461525-.0104065-.1960373-.1101608-.2698784z"/><path d="m93.5264053 56.0047798-.1944733-.1361885.0421524-.4658203.1889038.1325264zm-.1689453-.7948608c-.0820389-.0539818-.1085587-.0251846-.1175995.1127625l-.0406036.4421539c-.0153961.1461792.0154572.207592.1101608.2699051l.2111893.1471901c.0947037.0623131.1302109.0527878.1400299-.0970573l.0406036-.4421539c.0153732-.1461639-.0154648-.2075958-.1101837-.2699203l-.211174-.1471786c-.0078964-.0058329-.0153732-.0110629-.0224228-.0157015"/><path d="m83.3688812 49.5186691-.1281357-.0843124-.0113754.1734848.1169968.0769768-.0535278.6393013.133194.095871.0611649-.6671867c.0077513-.118271-.0352632-.1712571-.1183168-.2341348"/><path d="m83.8820648 50.555542-.1944733-.1361885.0421524-.4658203.1944733.1361923zm-.1465225-.7791596c-.1002731-.0659752-.1302032-.052784-.1400223.0970612l-.0406036.4421539c-.009819.1498184.0154572.207592.1101761.2699165l.211174.1471786c.0078964.0058365.0153809.0110664.0224228.0157013.0820465.0539856.1085663.0251884.1176071-.1127586l.0406036-.4421539c.009819-.1498451-.0159836-.199707-.1101685-.2699051z"/><path d="m84.1467819 50.0634346-.0113678.1734848.116478.0848656-.0535278.6392746.1337128.0879784.0550766-.6629372c.0133209-.1146278-.0291977-.1754875-.1127472-.2304649z"/><path d="m84.6025925 50.3797798-.1281357-.0843124-.0113754.1735077.1169968.0769806-.0535202.6392746.1331863.0958672.0555954-.670826c.0133209-.1146279-.0297089-.1676255-.1127472-.2304917"/><path d="m85.1157761 51.4166527-.1944733-.1361923.0421524-.4658165.1889038.1325264zm-.1465226-.7791596c-.100296-.0659904-.1302032-.0527611-.1400223.0970612l-.0406036.4421501c-.009819.1498489.0154419.2075844.1101608.2699089l.2111969.1471901c.0074539.0055504.0145569.0105553.0213013.0149956.0784378.051609.1096802.0259209.118721-.1120529l.0405807-.4421654c.009819-.1498222-.0159607-.1996956-.1101608-.2699089z"/><path d="m85.3804779 50.92453-.0169449.1698189.1220474.0885315-.0535049.6393166.1336975.0879669.055069-.6629677c.0133286-.1145973-.0291672-.1754723-.1127472-.2304649z"/><path d="m85.8268051 51.9174156.0371017-.477375.1944733.1361923-.0421524.4658165zm.0429001-.6545257c-.0947037-.0623093-.1246338-.0490913-.1400299.0970612l-.0350113.4458313c-.0153885.1461525.0098724.2039146.1096497.2777939l.211174.1471786c.0947189.0623245.130722.0448761.1400223-.0970573l.0355453-.4537086c.0153961-.1461792-.0103836-.1960258-.1101608-.2699051z"/><path d="m86.2865219 51.5536079-.0174637.1777039.1225662.0806465-.0590973.6356354.1387711.0995064.0555878-.670826c.0077515-.1182938-.0296936-.1675873-.1127472-.2304649z"/><path d="m86.6141891 51.7856674-.0169449.1698151.1220474.0885353-.0535202.6392746.1337128.0879784.055069-.6629372c.0077515-.1182938-.0291901-.1755142-.1127396-.2304916z"/><path d="m87.249939 52.9031601-.1889038-.1325226.0365829-.4694862.1944733.1361923zm-.1465226-.7791596c-.0947189-.0623245-.1246338-.0490952-.1400223.0970612l-.0350341.4458199c-.0153961.1461792.0098877.2039261.109642.2777939l.2117157.1393013c.0074921.0056038.0146103.0106201.0213165.0150337.0776291.051075.1044846.0230637.118187-.1042023l.0355453-.4537086c.0153961-.1461525-.0103989-.1960411-.1101608-.2699089z"/><path d="m87.5146408 52.4110374-.0113754.1734848.1220551.0885353-.059082.6356468.133194.0958672.0611496-.6671982c.0077438-.1182709-.0291748-.1754761-.1127472-.2304688z"/></g><path d="m67.0229034 66.1728745c-.2173462-.4119263-.7058716-.7254028-1.1969604-.8036499.2971802-.5132446.4916992-1.052063.5181274-1.6015053.0390625-.8112183-.5922852-1.3812866-1.3336182-1.6032104-.1657104-.0496216-.3240356-.062439-.482605-.0767212.2556152-.5744019.3679199-1.1929932.1878662-1.8432007-.3024902-1.0927124-1.2556114-1.583374-2.3411827-1.5072632-.7792969.0546265-1.6384888.2105713-2.4647217.4508057.392395-.598999.480896-1.1820679-.112915-1.6205444-.7924805-.585144-2.4678955-.1316528-3.2891846.1720581-.4432983.1639404-.8973999.4028931-1.2424316.7312012-.6774292.0159912-1.3461304.3461914-1.9171753.755249-.0061035-.062439.0007935-.1251221-.0193481-.1870728-.1935425-.5941772-.8014526-.6714478-1.3387451-.6130981-1.0443726.1135254-2.1171875.6976318-2.7025146 1.5941772-.0291138-.0388184-.041748-.081604-.0806274-.1178589-.4835815-.4511108-1.1050415-.0281982-1.5274048.2863159-.7640991.5690918-1.4602051 1.4172363-2.0044556 2.3360596.0925903.1063232.1398315.2504272.0813599.4298096-.0525513.1611938-.0930786.3198853-.1306152.4852295-.0536499.2359619-.2230225.345459-.406189.3571777.0110474.2553139-.1431885.5202675-.4734497.52631-.4111328.0075684-.8181152.0546265-1.225708.1051636-.005249.0081787-.0127563.0124512-.0178833.020813-1.0822144 1.7641602-1.467041 4.9680786-.9798584 6.9416504.0283203.1147461.1639404.1680298.2696533.1364136-.0895996.7373657-.1494751 1.4876709-.1494751 2.2578735 0 7.9420776 4.9492188 14.3804321 11.0543823 14.3804321 3.3062134 0 5.3106079-.6591797 6.9755859-3.1893921-.0855103-.1047363-.1251221-.244873-.062439-.4178467.6204224-1.7116699 1.7879639-3.149231 2.8354492-4.6438599-.0201416-.0784302-.0259399-.1638184.0064697-.2626343.388855-1.1856689 1.1453209-2.3250122 1.7405357-3.4165649.1176147-.2156982.3154907-.274231.4987183-.2346191.055603-.4621582.0253296-.8988037-.1422729-1.2548828-.065979-.1400757-.2744141-.1500854-.3742676-.0482178-.1704712.1738892-.2957153.3676758-.3966675.5726318-.0648193-.1436157-.2266235-.1982422-.3847046-.1711426.1174927-.4258423.2363281-.8607788.3579102-1.3139038.6378784-2.3770752.3887939-4.6519165-.4197998-6.6699829.3112183-.2684326.600708-.5588989.8621826-.8630981.0220947-.0001221.0445557-.0006104.0668335-.0009766-.0766602.083374-.1350708.1846924-.1356812.3193359-.0011597.2512817.0623779.3969727.2375488.5418701.0632324.1512451.1848755.2503052.3270874.2927246.0245361.1856079.1478271.3165894.3014526.378479-.1538086.2808838-.3334351.5544434-.4456177.8232422-.085083.2039185.1799927.3377686.338562.2602539.9473879-.4629516 1.6884768-1.6524048 1.1387941-2.6940307z" fill="#23211f"/><path d="m57.3501778 57.6029243c-1.0487061-.0673218-2.7514038.470459-3.7996216 1.3573608-.0320435-.2609253-.1725464-.5040894-.4344482-.6881104-.4620972-.324707-1.0360107-.178772-1.5220337.0114136-.8919067.348938-1.6491699 1.0419922-2.2173462 1.850647.0007324-.0067139.0015259-.0134888.0022583-.0202026.0106812-.0953369-.06427-.2280273-.152832-.2664795-.9760132-.4240723-2.2510986.8070679-2.8469849 1.4770508-.6755981.7595825-1.1087036 1.6735229-1.2074585 2.6485596-.632019-.401123-2.2229614.3013344-2.0197754 1.0239296.0389404.1385498.2112427.1792603.3133545.0827637.2590942-.244751.5246582-.4592285.8813477-.5455322.2832031-.0685425.5368652.0283813.8059692-.0073853.0076294.2290649.0272827.4595947.0745239.6923828.0247192.1216431.2008057.0855103.2072144-.0280762.0697021-1.2349892.4217529-2.3880043 1.2450562-3.3412514.3678589-.4259644 1.7305908-1.7719116 2.3692627-1.3892212.031189.0186768.0620117.0238647.092041.0256348-.1928101.3158569-.3571777.6437988-.4891968.9720459-.0487671.1212158.1343994.1802368.1998901.0842285.5441895-.7971191 1.0629272-1.5280762 1.8625488-2.0936279.7259521-.5134888 2.0482788-1.1953735 2.3612671.0050659-.1767578.2286987-.3236084.4675293-.3912354.7260132-.02948.1127319.1185913.2098389.2023926.1177979.565918-.6211548 1.1431885-1.1173096 1.9052734-1.4949951.852356-.4224854 1.7221069-.5127563 2.6166382-.7703247.2438965-.0702515.1843872-.4141236-.0581054-.4296876z" fill="#565656"/><path d="m60.0394478 57.8358955c-.2928467-.333313-1.2213135-.5800781-1.5056763-.1428223-.0369263.0567627.0023193.1229858.0583496.1434937.2029419.0740967.4138794.1032104.6240234.151001.2606201.0593262.3707275.1940308.5913086.3096313.1094971.0574341.2225342.0040283.263916-.1073608.0120239-.0322876.0240479-.0645752.0360107-.0968018.0336305-.090454-.008911-.1899414-.067932-.2571411z" fill="#444"/><path d="m65.4997101 62.2143745c-.3118896-.1689453-.6819458-.230896-1.0200806-.1108398.3415527-.4440308.5330811-.8789063.4173584-1.5050049-.1327515-.7177124-.4865112-1.4788818-1.164608-1.8158569-1.5230103-.756897-4.4122314.123291-5.4622803 1.3640137-.0756836.0894165.0181274.2249146.1278076.1656494 1.1560669-.6245117 2.37677-1.0441284 3.6970215-1.1418457 1.9566002-.1447754 2.4818687 1.4594727 1.8651123 3.0546875-.03125.0809326.0144043.1539917.081295.190979-.1649742.1992188-.2672081.4442749-.4002037.7007446-.0422363.081543.0713501.1845703.1350098.104126.3504601-.4431763.9734459-.8504028 1.522274-.5285645.5270386.309082.6804199.937561.6711426 1.5078163-.0015869.0999756.1504517.1498413.1965942.0532227.3483887-.7302284.0529175-1.64954-.6664428-2.0391274z" fill="#565656"/><path d="m63.1074409 62.5678902c-.0444336-.0071411-.0889282-.0142212-.1333618-.0213623-.0291138-.0046387-.0424194.0386353-.0124512.0452271.0437622.0095825.0875244.0192261.1312866.0288696.0347901.0076293.0487061-.0473023.0145264-.0527344z" fill="#444"/><g clip-path="url(#b)" enable-background="new" fill="#00c1a0"><path d="m20.0864906 52.8047676-.5774536.4168892-.0116062.0261192.1531773 3.9413758.015131.0135154 1.2781772-.9908294.0134087-.0343895-.0277233-.8013497-.0145779-.0138588-.7034092.5397263-.1143703-3.0837441z" opacity=".988235"/><path d="m21.7928314 54.6678848c-.0307846-.0095024-.0587692-.0281792-.0835533-.0550575-.0248089-.0269051-.0464115-.0620232-.0644035-.1043663-.0180073-.0423813-.0323982-.0920029-.0427666-.1478615-.0103779-.0559044-.0167274-.1180496-.0186481-.1854362-.0028934-.1015892.0043507-.2066231.0207081-.3099899.0163612-.1033936.0418301-.2050514.0753613-.2998657.0335217-.09478.075079-.1826591.1236153-.2585373.0484886-.0758057.1039143-.1395874.165205-.1862793.0194359-.0145912.0383987-.0264626.0568428-.0357475.0184326-.0092812.0363464-.015976.0536938-.0202179.0173378-.0042419.034111-.0060272.0502739-.005497.0161533.0005302.0316982.0033798.0465851.008419.0307579.0104027.0587196.0301437.0834846.0580635.0247421.0278893.0462952.0639381.0642662.1070023.0179539.043026.0323353.0930519.0427456.148941.0104027.055851.0168438.1175613.0189285.1839981.0025215.1007042-.0048599.2046165-.0210209.3066444-.0161552.102005-.0410957.2021904-.0737114.2954826-.032629.0933189-.072958.1797943-.119894.2543259-.0469799.0746002-.1006088.1372833-.1597996.1829109-.0204601.0159836-.0404072.0291176-.0597954.0395279-.0193977.0104179-.0382328.0181046-.0564556.0231972-.0182343.0050926-.0358543.0075836-.0528107.0075989-.016964.0000191-.0332661-.0024414-.0488511-.0072556m1.0817108-2.927227-.0160522-.0058708-.501524.366394-.0132008.0338135.0147533.3895416c-.0099812-.0228004-.0215778-.0438957-.0346088-.0631485-.0130386-.0192642-.0275116-.0366859-.0432415-.0521355-.0157394-.015461-.0327339-.0289497-.0508041-.040329-.0180817-.0113869-.037241-.0206642-.0572929-.0276985-.0247917-.0086975-.050951-.0139656-.0781307-.0155487-.0272045-.0015869-.0554314.000515-.0843334.0065613-.0289249.0060501-.0585251.0160522-.0884495.0302582-.0299492.0142174-.0602207.0326462-.0904617.055542-.1223431.0883331-.2343216.2121468-.3330154.3621025-.0988922.1502609-.1843243.3265877-.2534008.5194855-.069128.1930428-.121788.4024353-.1551399.6185913-.0333328.2160339-.0473347.4385414-.0392418.6579132.0042725.1465034.0178413.2795181.0397224.3977432.0218449.118042.0519676.2213058.0893803.3085289.037344.087059.0819416.1581154.1328087.2119293.050766.0537033.107769.090229.1700363.1083565.0315876.0091972.0645332.0136528.0987091.0132179.0341377-.0004387.0695019-.0057602.1059647-.0161285.0364227-.0103607.0739422-.0257492.1124306-.0463371.0384483-.0205612.0778637-.0463066.1181202-.0773926.0549641-.0427361.109148-.0985909.1605721-.1632843.051363-.064621.0999889-.1380768.1439056-.2161179.0438786-.0779762.0830727-.1605568.1156101-.2435074.0325241-.0829163.0584145-.1662445.0756969-.2457581l.0104733.3801003.0138359.013649.4909725-.3821716.0128975-.0333595z" opacity=".988235"/><path d="m23.9520092 53.0591965c-.0288048-.0100555-.0549088-.0290108-.0779457-.0559006-.0230598-.0269165-.043045-.061779-.0595856-.103611-.0165558-.0418739-.0296612-.0907249-.0389442-.1455765-.0092907-.0548897-.0147514-.1157837-.0160141-.1816864-.0019112-.09935.0057144-.2018166.0218735-.3024292.016161-.1006355.0408497-.1993561.0730476-.2911911.0321865-.0918007.0718575-.1766624.117981-.2496262.0460796-.0728951.0985699-.1338692.1564312-.1780052.0183506-.0137939.0362339-.0249367.0536098-.0335655.0173664-.008625.0342255-.0147324.0505333-.0184555.0163002-.0037193.032053-.0050583.0472126-.0041428.0151539.0009117.0297165.0040779.0436497.0093613.0287781.0109177.0548592.0308838.077879.0587692.0229969.0278549.0429401.0636139.0594673.1061363.0165119.0424881.0296135.0917397.0389462.1466217.0093231.0548439.0148849.1153259.0163174.1803284.0015793.0984955-.0061626.1998863-.0221291.2992249-.0159626.0993156-.0401573.19664-.0715008.2870331-.0313549.0904198-.0698814.1739578-.1145134.2456512-.044672.0717583-.0954857.1316948-.1513824.1748161-.0193214.0151215-.0381413.0274696-.0564137.0371666-.01828.0097046-.0360126.0167542-.0531502.0212746-.0171471.004528-.0336971.0065231-.0496044.006115-.015915-.0004044-.0311871-.0032158-.045765-.0083084m-.2577915-3.0550804-.4925365.3523979-.013031.0334053.094738 3.9776421.0117512.0037842.4837551-.3725166.0126762-.0329552-.0081005-.374794c.008606.0225143.0188675.0431747.0305862.0619011.0117149.0187111.0248852.0354881.0393181.0502357.0144234.01474.0301075.0274544.0468559.0380554.0167389.0105972.0345402.0190773.0532093.0253639.0234547.0078926.0482826.0123177.0740986.0130959.025795.0007782.0525761-.0020828.0799637-.0087585.0273628-.0066681.0553341-.0171471.0835285-.0316086.0281734-.0144463.0565739-.0328712.0848255-.0554504.1129093-.0861626.2162113-.2058067.307354-.3497543.0909672-.1436729.1699276-.3117294.2343006-.4951363.0643291-.1832733.1141682-.3820992.1468945-.5875282.0327435-.2055359.0483971-.4179344.0442696-.628273-.0021152-.139286-.012579-.2668991-.0306263-.3814087-.0180721-.1146812-.0437565-.2162514-.0762844-.3032494-.0325871-.0871468-.0720482-.159687-.1176205-.2161293-.0456619-.0565529-.0974617-.0969543-.1546288-.1196823-.0291901-.0116081-.0597782-.0186081-.0916653-.0208015-.0319195-.0021935-.0651398.0004311-.0995541.0080795-.0344505.0076561-.0700989.0203438-.1068382.038269-.0367813.0179405-.0746536.0411339-.1135159.0697746-.0514145.0389938-.1025791.0911942-.1515255.1526413-.0490017.0615158-.095768.1322784-.138319.2083054-.0425873.076088-.0809402.1574211-.1130772.2399864-.0321484.0825996-.0580654.1663971-.0757694.2473717l-.0355072-1.5288467z" opacity=".988235"/><path d="m26.1908283 49.4422913c-.0265732-.0114441-.0555477-.0178947-.0869427-.0189896-.0314274-.001091-.0652809.0031815-.1015797.013195-.0363388.0100212-.0751286.0257988-.1163902.0476952-.0413094.0219193-.0850964.049984-.1313801.0845528-.1029034.0754356-.1965313.1615372-.2789726.2574425-.0826073.0960999-.1539097.2019577-.2120037.3166618-.0581532.1148224-.1030121.2383995-.1327.3697662-.029686.1313629-.0441685.2703705-.0416126.4160156.0007744.0773163.0058708.1431313.0147648.1990128.0088882.0558434.0215702.1017609.0375252.139328.0159416.0375328.0351505.0667229.057106.0891342.0219345.0223961.0466118.0380249.0735111.0484505.0211163.0081863.043602.0131683.0672054.0157013.0235863.002533.0482864.0026169.0738525.0010147.0255451-.0016022.0519543-.0048904.0789757-.0091133.0269985-.0042191.0546093-.0093689.0825825-.0147018.0431252-.0065613.0824585-.0135422.1181679-.0199432.0356693-.0063896.0677299-.0122032.0963478-.0164261.0285892-.0042229.0537491-.0068626.0756359-.0069237.0218716-.0000572.0404797.0024643.0559845.0085678.0104752.0041161.0195332.0098686.0272217.0175629.0076866.0076942.0140038.0173302.019001.0292206.0049953.0118866.0086727.0260239.0110779.0427246.0024052.0166969.0035381.0359573.0034485.0580902.0015507.0440941-.0023098.086071-.0107937.1255264-.008482.0394554-.0215893.0764084-.0385399.1104546-.0169544.0340538-.0377579.0652161-.0616283.093071-.0238857.0278702-.0508461.0524406-.0801029.0732956-.014904.0122948-.0293941.0227852-.0433979.0313644-.0140095.0085793-.0275288.0152435-.0404873.0198746-.0129604.0046349-.0253582.0072365-.0371151.0076942-.0117607.0004578-.0228806-.001236-.0332813-.005188-.0134354-.0051041-.0256729-.0139847-.0365467-.0268898-.0108795-.0129089-.0203953-.02985-.0283794-.0510635-.007988-.021225-.0144444-.04673-.0192051-.0767632-.0047607-.0300446-.007822-.0646172-.0090199-.1039734l-.0109749-.0042114-.4532547.3447495-.0124054.0323181c.0024643.0860786.0097904.1630707.0217075.2309723.0119076.0678368.0283947.1265945.0491905.1762733.0207748.0496254.0458431.0901871.0749359.1216965.0290565.0314751.0621243.0539131.0989265.067337.0300617.0109673.0626144.0159149.0975094.0148544.0348568-.0010605.0720463-.0081139.1114235-.0211487.0393295-.0130234.0808392-.0320129.124382-.0569611.0434856-.0249138.0889969-.0557709.1363869-.092556.0937881-.0721664.1828594-.1554832.2635403-.2500763.0805225-.0944061.1527481-.2001076.2130375-.3172836.0602245-.1170464.1085987-.2456551.1414871-.3860779.0328865-.1404266.0503273-.2928429.0486355-.4575996-.000824-.0744896-.0056362-.1381607-.0140133-.1924324-.0083828-.0543137-.0203362-.0992203-.0354347-.1361427-.01511-.0369492-.033371-.0659027-.0543613-.0882835-.0210075-.0223999-.0447483-.0382156-.070797-.0488663-.0212479-.0086899-.0440311-.0139465-.0681229-.0165367-.0241108-.002594-.04953-.0025215-.0760288-.0005569-.0265236.0019646-.0541267.0058289-.0825806.0108109-.0284786.0049858-.0578098.0110931-.087759.0175476-.0396042.0052414-.0762234.0112801-.1098537.0169945-.0336685.0057259-.064333.0111275-.0919952.0150871-.0276852.0039635-.0523567.006485-.0740128.0064392-.0216732-.000042-.0403214-.002655-.0559502-.0089607-.0097351-.0039253-.0182972-.009285-.0256882-.016346-.0073929-.007061-.0136127-.0158272-.0186615-.0265694-.0050507-.010746-.0089283-.023468-.0116329-.0384369-.0027065-.0149689-.00424-.0321884-.0046024-.0519295-.0003529-.0419464.0044804-.0823708.0134296-.1205444.0089493-.0381775.0220089-.0740852.0381031-.1070023.0160885-.0329056.0352058-.0628128.0562744-.0889969.0210571-.0261726.0440598-.0486183.0679302-.0666199.0128326-.0100632.0250149-.0183601.0365639-.0249443.0115433-.0065842.0224514-.0114517.0327377-.0146561.0102825-.0032043.0199413-.0047455.0289898-.0046692.0090466.0000725.0174809.0017624.0253181.0050163.012289.0051041.0231075.0140648.0325069.0266953.0093956.0126266.0173702.0289268.0239716.0487137.0065994.019783.0118275.0430527.0157318.0696335.0039005.0265732.0064793.0564499.0077801.0894623l.0123615.0143356.4463426-.3400116.0099926-.0234184c-.0012894-.074955-.0068474-.1442833-.0167084-.2070847-.0098705-.0628548-.0240536-.1191902-.0425854-.1680984-.0185509-.0489578-.0414619-.0904808-.0687771-.1236687-.0273456-.0332222-.0591067-.0580941-.0953254-.0736885" opacity=".988235"/></g><path d="m65.6727448 65.2943344c-.0712891.0271606-.0579834.1226196.0176392.1304321.4866333.050354.8728638.3300171 1.1394043.7324219.192749.2910767.2116089.5883789.3209839.9020386.0227051.0650635.1141357.0684204.1356201 0 .2556762-.8150635-.7314454-2.100647-1.6136475-1.7648926z" fill="#565656"/><path d="m64.3716049 75.3452835c-.0659332-.2374115-.4068184-.1598358-.4494438.0476608-.4307556 2.0950089-1.1641655 3.7773819-2.116188 5.6630096-.7965584 1.5776672-1.29739 3.272377-2.1161461 4.846199-.0834122.1603241.1456985.280571.2573891.1583099 1.5278778-1.6725311 2.1232567-3.5718384 3.2013741-5.5365143.8599242-1.5670775 1.722557-3.3805617 1.2230147-5.178665z" fill="#565656"/><path d="m48.7640877 86.5308228c-.9060059-1.7625122-2.2314453-3.3482666-3.2747192-5.0440063-1.2470093-2.0268555-1.8517456-4.1743774-2.4876709-6.4376831-.0704956-.2509766-.4489136-.1997681-.4526978.0612793-.0626831 4.2828369 2.8135986 8.8435059 5.8162842 11.7281494.211914.2034911.5299072-.0526734.3988037-.3077393z" fill="#565656"/><path d="m41.1800613 79.7993774-1.6736755.1231842c-2.6933441.1982346-3.3141212-1.9630585-3.5123558-4.6564026v-.0000076c-.1982346-2.6933441.1011429-4.8988266 2.794487-5.0970612l1.6736794-.1231842z" fill="#385054"/><path d="m41.9722176 80.6629181h-.0000038c-.9475899.0782394-1.7791862-.6265106-1.8574257-1.5740967l-.7309303-8.8527679c-.0782394-.9475861.6265068-1.7791824 1.5740967-1.8574219h.0000038c.9475899-.0782394 1.7791862.6265106 1.8574257 1.5740967l.7309303 8.8527679c.0782394.9475861-.6265107 1.7791824-1.5740967 1.8574219z" fill="#2b2b2b"/><path d="m65.5978165 78.930397 1.6781693-.0113907c2.7005692-.0183258 3.1460724-2.2224274 3.1277466-4.9229889v-.0000153c-.0183258-2.7005615-.4935532-4.8749466-3.1941223-4.8566208l-1.6781616.0113907z" fill="#385054"/><path d="m66.1413422 80.141983c.9507904-.0064468 1.7163315-.7824478 1.709877-1.7332382l-.0602875-8.8826828c-.0064468-.950798-.7824478-1.7163315-1.7332382-1.709877h-.0000076c-.9507904.0064468-1.7163239.7824478-1.709877 1.7332382l.0602875 8.8826828c.0064544.9507981.7824554 1.7163315 1.7332458 1.709877z" fill="#2b2b2b"/><path d="m42.0212021 71.2272415-1.9951172-.1347656c.5839844-8.6479492 6.2924805-15.1689453 13.2783203-15.1689453 6.9423828 0 12.6474609 6.4755859 13.2714844 15.0634766l-1.9941406.1445313c-.5390625-7.40625-5.4921875-13.2080078-11.2773438-13.2080078-5.8232422-.0000001-10.7792969 5.8437499-11.2832031 13.3037108z" fill="#2b2b2b"/><path d="m96.8826904 34.6502342-.5299683-.2999878-.7200317-.4200439-.7699585-.4499512-.1100464-.0599976-.4899902-.2800293-.5100098-.289978-.8999634-.5200195-7.25-4.1799908-1.710022-.9799805-.7199707-.4200439-.4500122-.2600098-.4899902-.289978-.0500488-.0200195-.4199829-.25-.4099731-.2399902-5.3300171-3.0700073-19.5-11.2399902-.5300293-.3099976-.4699707.2700195-17.1099854 9.8800049-5.0200195 2.8999634-1.2999878.75-.5300312.3099976-.0999756.0500488c-.0100098 0-.0100098 0-.0100098 0l-.25.1499634-.4199829.25-.2999878.1700439-.2700195.1599731-.1799927.0999756-1.5.8699951h-.0100098l-1.7800293 1.0200195-.0099487.0100098-.5800171.3400269-.7600098.4299927-.0100098.0099487-.0299683.0200195-3.25 1.8699951h-.0100098l-2.3800049 1.3699932-1 .5800171-2.9799795 1.7200317-4.2300413 2.4399414-1.539978.8900146v53.1199989l.0700073.0400391 1.7199707 1 .75.4299927.1500244.0800171 4.3200064 2.5.6900024.3899536 4 2.3200073.4599609.2600098 1.3000488.75 3.3799438 1.9500122 5.3800068 3.0999756.6900024.4000244.0700073.039978.1500244.0800171.1099854.0700073.1799927.0999756.0400391.0200195 1.9099731 1.1099854.8800049.5 1.3300171.7800293.8899536.5099487.1800537.1000366.3099976.1799927.1900024.1099854.4799805.2800293 3.5700073 2.0499878.0899658.0499878.4400024.2600098.6199951.3599854.7200317.4199829h.0100098l.5299683.3000488 1.5100098.8699951 3.1699829 1.8399658 4.4800415 2.5800171 1.0299683.5999756.2299805.1300049.0200195-.0099487.1900024-.1100464.1400146-.0799561.0299683-.0200195.3099976-.1799927 1.8099976-1.0300293.0900269-.0499878.6900024-.4000244.5-.289978.2399902-.1400146 3.8500366-2.2199707 2.4499512-1.4100342.7399902-.4299927.6600342-.3800049.6699829-.3899536.4400024-.2600098 2.3300171-1.3400269.3900146-.2199707h.0099487l.2300415-.1400146.2099609-.1199951.6300049-.3599854.8000488-.460022 1.2599487-.7299805.460022-.2700195h.0100101l.460022-.2700195.0099487-.0100098.25-.1399536.5300293-.3099976.3699951-.210022.3499756-.210022.5500488-.3099976.2099609-.1300049.3200073-.1799927.4299927-.2399902.0200195-.0100098.0499878-.0299683.1300049-.0800171.2399902-.1300049 3.7800293-2.1799927.3800049-.2199707 1.1099854-.6500244 2.9699707-1.710022 1.5599976-.8999634 8.5300293-4.9200439h.0100098l.0599976-.039978 2.6499634-1.5299683.9000244-.5200195 1.0299683-.5900269v-53.1199986zm3.2999878 55.0299721-.5199585.3000488-.3200073.1799927-.5800171.3399658-7.5899658 4.3800049-4.6700439 2.6900024-3.1199951 1.7999878-1.2799683.7400513-.7200317.4099731-2.9299927 1.6900024-.0700073.0499878-.1599731.0900269-.1799927.1099854-.5700073.3200073-.8900146.5100098-.2199707.1300049-.0500488.0299683-.8099976.4700317-.0899658.0499878-3.9100342 2.25-.0799561.0499878-.7900391.4500122-.0800171.0499878-.9099731.5300293-2.1500244 1.2399902-1.539978.8899536-1.6799927.9700317-1.0999756.6300049-2.9700317 1.7199707-1.2299805.710022-.0599976.039978h-.0200195l-.75.4400024-.2799683.1500244-1.8700562 1.0800171-3.4499512-1.9900513-1.2300415-.7099609-.6099854-.3500366-1.8099976-1.0499878-.7199707-.4099731-.6900024-.4000244-5.2600098-3.0299683-.7700195-.4500122-.0499878-.0300293-1.789978-1.0299683-2.0600586-1.1799927-.8999634-.5200195-.5800171-.3400269-.25-.1499634-.4299927-.25-.210022-.1199951-1.75-1.0100098-.3099976-.1799927-.1900024-.1099854-1.5000019-.8700562-3.4199829-1.9699707-3.9099731-2.2600098-1.7600098-1.0100098-3.4199829-1.9699707-4.9100332-2.8400269-.8999634-.5100098-.3900146-.2299805-.2300415-.1300049-.6699829-.3900146v-50.9699741l3.9100342-2.2600098 2.9799795-1.7199707.9299927-.5400391h.0100098l.0599976-.039978 3.2000122-1.8499756h.0100098l1.3599854-.7900372h.0100098l1.789978-1.0299683 1.25-.7200317.4299927-.25h.0100098l.7600098-.4400024.4599609-.2699585h.0100098l2.9800415-1.7200317c.0099487-.0100098.0099487-.0100098.0199604-.0100098l.7800293-.4500122.3499756-.1999512.2000122-.1199951.289978-.1700439.1700439-.0999756.2699585-.1500244.0400391-.0199585 8.0299683-4.6400146 13.3900146-7.7300415.4699707-.2699585.5300293.3099976 16.8300171 9.7099609 6.9799805 4.0300293.0499878.0300293.3200073.1799927.1099854.0599976.4400024.2600098.3500366.1999512 1.2299805.710022 1.9400024 1.1199951 7.0200195 4.0399761 1.4099731.8099976.5499878.3200073.0400391.0300293.7699585.4400024.1900024.1099854.5400391.3099976.5299683.3099976 4.3599854 2.5100098v50.9699742z" opacity=".13"/><path d="m70.0160065 70.6541977c-.418335-.7520752-1.1307983-1.5142212-2.0290527-1.4939575-.0699463-.3110962-.2180176-.6100464-.3990479-.8104858-.4169312-.461792-1.1514282-.765625-1.7507935-.5071411-.0875244.0377808-.0648804.1907959.0270386.2070923.53479.0946045 1.0259399.1445313 1.4020996.5911865.3970337.4714355.3170776.9380493.4207153 1.4894409.010498.0560303.09375.0774536.1305542.0344849.1500244-.1750488.2106934-.4030762.2119751-.6427612 1.6372681.8728027 2.1711426 2.5311279 2.2682495 4.3430176.0044556.0830688.1362305.1118774.1534424.020752.2062378-1.0906374.1103516-2.2508547-.4351806-3.2316286z" fill="#a2f4f4"/><path d="m40.6447945 68.4754257c-.6433105.1524048-1.175415.3343506-1.4620972.9990845-.0804443.1865234-.1029053.3930664-.1036377.602478-.9639282.0088501-2.0591431.1815796-2.6813965.9776611-.472168.604126-.6882324 1.7969971-.3825073 2.5918579.0206299.0536499.1967163-.1376343.2022705-.1810913.045166-.3543701-.0372925-.7059937.0284424-1.0626221.0737305-.4001465.2581787-.7888794.5025635-1.1115112.5966187-.7875977 1.4732056-.7565308 2.3652954-.8060913.0493774.2631836.1334229.5200806.2457275.7373047.0097046.0187378.0271606.0263672.0427246.0368652-.0096436-.4160767-.0119629-.789978.1411133-1.1407471.0170898-.1786499.0560913-.3562622.1679688-.5332031.1005249-.1589966.2639771-.3865967.4112549-.5109253.1369629-.1156006.3231201-.1365356.4958496-.1871338-.0068359-.026001-.0020752-.0527954-.0050049-.0792847-.0229493-.1122435-.013733-.2283324.0314331-.3326415z" fill="#a2f4f4"/></svg>