<?xml version="1.0" encoding="utf-8"?>
<!-- Generator: Adobe Illustrator 23.0.1, SVG Export Plug-In . SVG Version: 6.00 Build 0)  -->
<svg version="1.1" id="Layer_1" xmlns="http://www.w3.org/2000/svg" xmlns:xlink="http://www.w3.org/1999/xlink" x="0px" y="0px"
	 viewBox="0 0 110.9073334 127.9528961" style="enable-background:new 0 0 110.9073334 127.9528961;" xml:space="preserve">
<style type="text/css">
	.Drop_x0020_Shadow{fill:none;}
	.Round_x0020_Corners_x0020_2_x0020_pt{fill:#FFFFFF;stroke:#231F20;stroke-miterlimit:10;}
	.Live_x0020_Reflect_x0020_X{fill:none;}
	.Bevel_x0020_Soft{fill:url(#SVGID_1_);}
	.Dusk{fill:#FFFFFF;}
	.Foliage_GS{fill:#FFDD00;}
	.Pompadour_GS{fill-rule:evenodd;clip-rule:evenodd;fill:#44ADE2;}
	.st0{fill:#617BFF;}
	.st1{fill:#FFFFFF;}
	.st2{opacity:0.13;enable-background:new    ;}
</style>
<linearGradient id="SVGID_1_" gradientUnits="userSpaceOnUse" x1="-365.9492798" y1="-233.2695313" x2="-365.242157" y2="-232.5624237">
	<stop  offset="0" style="stop-color:#DEDFE3"/>
	<stop  offset="0.1783311" style="stop-color:#DADBDF"/>
	<stop  offset="0.3611409" style="stop-color:#CECFD3"/>
	<stop  offset="0.546043" style="stop-color:#B9BCBF"/>
	<stop  offset="0.7323959" style="stop-color:#9CA0A2"/>
	<stop  offset="0.9181451" style="stop-color:#787D7E"/>
	<stop  offset="1" style="stop-color:#656B6C"/>
</linearGradient>
<g id="Layer_63_3_">
	<polygon class="st0" points="110.9379807,31.9605045 110.9379807,95.9605026 55.5179977,127.9605026 11.1680222,102.360527 
		10.9680099,102.2405319 0.088005,95.9605026 0.088005,31.9605045 55.5179977,-0.0394949 	"/>
</g>
<path class="st1" d="M99.4614868,36.0904388l-0.25-0.1400146l-1.9400024-1.1199951l-0.4400024-0.25l-0.7800293-0.4400024
	l-1.9199829-1.1099854l-0.0200195-0.0100098l-0.539978-0.3099976l-0.9199829-0.5300293l-0.4000244-0.2299805l-0.2600098-0.1599731
	l-0.1699829-0.0900269l-0.0900269-0.0499878v-0.0100098l-0.039978-0.0299683l-3.7800293-2.1800537l-1.8099976-1.039978
	l-0.0899658-0.0599976l-0.7999878-0.460022l-1.3699951-0.789978l-1.5200195-0.8800049L82.12146,26.0904388l-0.6699829-0.3900146
	l-2.2999878-1.3099976l-1.0400391-0.6099854l-3.789978-2.1900024l-2.8499756-1.6400146l-1.3400269-0.7700195l-3.9500122-2.2799683
	l-2.5999794-1.500001l-6.4899902-3.75l-1.0599976-0.6199951l-1.4400024,0.8300171l-0.6000366,0.3499756l-2.6099854,1.5100098
	l-2.8599854,1.6499634l-0.2700195,0.1600342l-0.1900024,0.1099854l-5.7199707,3.2999887l-0.0500488,0.0300293h-0.0099487
	l-0.0200195,0.0100098l-0.8400269,0.4799805l-0.539978,0.3099976l-0.6900024,0.4099731l-2.2800293,1.3000488l-0.1899414,0.1099854
	l-0.3300171,0.1900024l-1.1000366,0.6499634l-0.4400024,0.2600098l-0.3799438,0.2200317l-0.7800293,0.4500122l-1.6599731,0.9499512
	l-0.1700439,0.0900269l-1.5799561,0.9199829l-3.2300415,1.8599854l-0.5700073,0.3300171c0,0,0,0-0.0099487,0l-0.25,0.1400146
	l-0.4500122,0.2600098l-0.4200439,0.2399902l-1.0099487,0.5900269l-0.9800415,0.5699463l-2.0700073,1.1900024l-0.1499634,0.0900269
	l-0.3900146,0.2299805l-0.4299927,0.25l-2.2700195,1.3099976l-1.75,1.0100098l-0.5799561,0.3300171l-0.25,0.1400146H16.461483
	l-0.7700195,0.4599609l-3.8599854,2.2300415l-1.7999878,1.0299683v53.1400146l0.0299683,0.0200195l0.0800171,0.039978
	l0.0899658,0.0499878l0.8300171,0.4799805l0.7700195,0.4400024l1.8099976,1.0500488l3.2999878,1.8999634l0.0200195,0.0100098
	l0.2600098,0.1500244c0.0099487,0.0099487,0.0199585,0.0099487,0.0199585,0.0099487l0.2900391,0.1700439l0.0199585,0.0100098
	l0.0400391,0.0199585l0.7199707,0.4299927l1.3300171,0.7700195l1.0199585,0.5900269l1.7400513,1.0099487l0.1199951,0.0700073
	c0.0100098,0,0.0100098,0,0.0199585,0.0100098l0.2000122,0.1199951l0.1300049,0.0700073l0.5,0.289978l0.210022,0.1200562h0.0100098
	l0.2099609,0.1199951l0.0100098,0.0099487l0.5,0.2900391l0.0900269,0.0499878l0.8200073,0.4700317l2.0899658,1.1999512
	l1.4400024,0.8400269l1.0700073,0.6199951l0.2999878,0.1699829c0.0100098,0.0100098,0.0200195,0.0100098,0.0200195,0.0100098
	l1.3900146,0.8099976l0.3699951,0.2200317l0.1499634,0.0799561l0.0499878,0.0300293l0.7900391,0.4500122l0.5100098,0.289978
	l0.039978,0.0300293l0.0800171,0.039978c0.0299683,0.0100098,0.0499878,0.0299683,0.0799561,0.0499878l0.3500366,0.2000122
	l0.0899658,0.0499878l0.2400513,0.1500244l0.2599487,0.1499634l0.1500244,0.0800171l0.0800171,0.0499878l0.3899536,0.2200317
	l0.3700562,0.2099609l1.2099609,0.710022h0.0100098l0.7600098,0.4400024c0.1499634,0.0800171,0.2799683,0.1599731,0.4199829,0.25
	l1.0499878,0.5999756l0.0300293,0.0200195l0.0899658,0.0599976l0.2200317,0.1199951l0.289978,0.1699829h0.0100098l0.5,0.2900391
	l0.1300049,0.0799561l0.4400024,0.25h0.0100098l0.1400146,0.0900269h0.0099487l0.0900269,0.0499878l0.6099854,0.3500366
	l0.5100098,0.2999878l0.2800293,0.1599731l0.4599609,0.2700195l3.5,2.0299683l0.3300171,0.1900024l1.7399902,1l0.039978,0.0300293
	l1.1200562,0.6400146c0.0099487,0,0.0099487,0.0100098,0.0199585,0.0199585h0.0100098l0.3200073,0.1900024l0.5,0.2900391
	l0.1400146,0.0799561l0.1399536,0.0800171l0.0200195,0.0200195h0.0100098l0.0900269,0.0499878l0.9899902,0.5700073
	l0.1699829,0.0999756l0.4299927,0.25l0.1799927,0.1000366l0.0499878,0.0299683l0.1700439,0.1000366l0.9099731,0.5299683
	l0.0300293,0.0100098l0.8499756,0.4899902l1.2800293,0.7399902l0.1399536,0.0800171l0.4800415-0.2799683l0.3200073-0.1900024
	h0.0099487l0.5599976-0.3200073l1.8700562-1.0800171l0.5-0.289978l0.1799927-0.1000366l0.039978-0.0199585l0.3599854-0.210022
	l2.3599854-1.3599854l0.4000244-0.2300415l0.4299927-0.25l0.0100098-0.0100098l0.3900146-0.2199707l0.6300087-0.3699951
	l0.3499756-0.2000122l0.6300049-0.3599854l0.1099854-0.0700073l0.2800293-0.1500244l0.1799927-0.1099854l0.0499878-0.0299683
	l0.1400146-0.0800171l0.3499756-0.2000122l0.1500244-0.0899658l0.1900024-0.1100464l0.1400146-0.0799561l0.0199585-0.0100098
	l0.2700195-0.1500244l0.1300049-0.0800171l0.0100098-0.0099487l0.0199585-0.0100098l2.0500488-1.1900024l0.3299561-0.1900024
	l1.1199951-0.6500244l0.0599976-0.0299683l0.1400146-0.0800171l0.1099854-0.0599976l0.3700562-0.2200317h0.0099487
	l0.6100464-0.3499756l1.5999756-0.9199829l0.1199951-0.0700073l0.5700073-0.3300171l0.039978-0.0299683l0.4200439-0.2399902
	l0.4699707-0.2700195c0,0,0.0100098,0,0.0100098-0.0100098l0.25-0.1400146l0.3300171-0.1900024l0.1999512-0.1199951
	l0.6400146-0.3800049l0.0700073-0.039978h0.0100098l0.2399902-0.1400146l0.0300293-0.0200195l0.289978-0.1599731
	l0.0499878-0.0299683l0.0100098-0.0100098l0.2800293-0.1600342l0.4599609-0.2600098l0.1099854-0.0699463l0.4400024-0.25
	l0.0400391-0.0200195l0.0199585-0.0200195l0.1800537-0.0899658l0.4899902-0.2800293l0.289978-0.1699829v-0.0100098
	l0.0599976-0.039978l0.0499878-0.0200195l0.0499878-0.0300293l0.0300293-0.0099487l0.0800171-0.0500488l0.3299561-0.1900024
	l0.0599976-0.039978l0.0200195-0.0100098l0.0700073-0.039978l0.0499878-0.0300293l0.5700073-0.3200073
	c0-0.0099487,0-0.0099487,0-0.0099487l0.1300049-0.0700073l0.4000244-0.2300415l0.1599731-0.0899658l0.8699951-0.5200195
	l1.0700073-0.6199951l0.4700317-0.2700195h0.0099487l0.0200195-0.0199585l0.4500122-0.2600098l1.2299805-0.710022
	l0.0400391-0.0299683l1.0499878-0.6000366l0.8200073-0.4699707l0.5699463-0.3300171l0.6000366-0.3399658l1.8599854-1.0700073
	l0.0200195-0.0100098l0.0899658-0.0599976l0.1000366-0.0400391l0.0299683-0.0099487l0.1400146-0.0700073l0.0999756-0.0599976
	l0.0700073-0.0400391l0.4000244-0.2299805l0.1199951-0.0700073l0.0200195-0.0100098l0.4699707-0.2699585l0.7900391-0.460022
	l0.6899414-0.4000244l0.1600342-0.0899658l0.6799927-0.3900146l0.0200195-0.0100098l0.8699951-0.5l0.3599854-0.2099609
	l0.2000122-0.1200562l3-1.7299805l0.1400146-0.0800171l0.8800049-0.5099487l0.1299438-0.0700073l0.3300171-0.1900024
	l1.0900269-0.6199951l0.0100098-0.0100098V37.5804291L99.4614868,36.0904388z"/>
<g id="Layer_2_1_">
	<g id="Layer_16_1_">
		<path class="st2" d="M100.0614624,36.4404144l-0.4799805-0.2799683l-0.6900024-0.4000244l-1.8400269-1.0499878
			l-0.1499634-0.0900269L96.37146,34.3204193l-0.7199707-0.4199829l-0.6799927-0.4000244l-0.0900269-0.0499878l-0.1099854-0.0599976
			l-0.4899902-0.2799683l-0.5100098-0.2900391L92.87146,32.3004608l-0.5100098-0.3000488l-0.2600098-0.1499634l-1.2599487-0.7200317
			l-0.9000244-0.5199585l-1.8499756-1.0599976L85.62146,28.1204071l-1.710022-0.9799805l-0.4399414-0.2600098l-0.2800293-0.1599731
			l-0.4500122-0.2600098l-0.0100098-0.0100098l-0.4799805-0.2799683l-0.0499878-0.0200195l-0.4199829-0.25l-0.2300415-0.1400146
			L81.37146,25.6604462l-0.8599854-0.4899902l-2.3699951-1.3699951l-1.3599854-0.7800293l-0.7400513-0.4299927l-1.2799683-0.7399902
			l-4.1199951-2.3699951l-2.2200317-1.2800293l-0.5899658-0.3399658l-2.4200439-1.3900146l-0.1899414-0.1099854
			l-3.9300575-2.2700205l-0.6699829-0.3900146l-1.1099854-0.6400146l-0.3699951-0.2099609l-0.1600342-0.0900269l-0.039978-0.0199585
			l-0.6400146-0.3700562l-0.2399902-0.1399536l-0.2799683-0.1700439l-0.2300415-0.1300049l-1.0100098-0.5799561
			l-0.5299683-0.3099976l-0.4700317,0.2699585l-1.0599976,0.6100464l-2.039978,1.1799927l-0.9000244,0.5199585l-0.4299927,0.25
			l-0.75,0.4300537l-2.8299561,1.6299438l-1.4100342,0.8200083l-0.4699707,0.2700195l-0.1199951,0.0700073l-0.1800537,0.1099854
			l-0.1099854,0.0599976l-0.7000122,0.4100342l-0.7299805,0.4199829l-0.8399658,0.4799805l-0.2400513,0.1400146
			l-0.5599976,0.3200073l-0.3800049,0.2199707l-1.4400024,0.8300171l-1.9199829,1.1099854l-1.1400146,0.6600342
			l-0.6599731,0.3800049l-3.2200317,1.8599854l-0.4499512,0.2600098l-0.8500366,0.4899902l-0.5299683,0.3099976
			l-0.1000366,0.0499878c-0.0099487,0-0.0099487,0-0.0099487,0l-0.25,0.1500244l-0.4200439,0.25l-0.2999878,0.1699829
			l-0.2700195,0.1599731l-0.1799927,0.1000366l-0.0299683,0.0200195l-1.4400024,0.8299561l-0.0300293,0.0200195h-0.0100098
			l-0.1399536,0.0800171l-0.3400269,0.1900024l-0.8099976,0.4699707l-0.4899902,0.2800293l-0.0100098,0.0099487
			l-0.5800171,0.3400269l-0.4799805,0.2700195l-0.1500244,0.0899658l-0.1300049,0.0700073l-0.0099487,0.0100098
			l-0.0300293,0.0200195l-0.7600098,0.4400024l-0.1599731,0.0899658l-0.1300049,0.0800171l-1.0999756,0.6300049
			l-1.1000366,0.6300049h-0.0100098l-0.6699829,0.3800049l-1.710022,0.9899902l-1,0.5800171l-0.3299561,0.1900024
			l-2.6500244,1.5299683l-0.7199707,0.4199829l-3.5100098,2.0200195l-1.5400391,0.8900146v53.1199951l0.0700073,0.039978
			l0.1900024,0.1099854l1.1699829,0.6800537h0.0100098l0.3500366,0.2099609l0.75,0.4299927l0.1499634,0.0800171l3.5100098,2.0300293
			l0.4899902,0.2799683l0.3200073,0.1900024l0.6900024,0.3900146l4,2.3200073l0.460022,0.2600098l0.0599976,0.039978
			l1.2399902,0.710022l3.3800049,1.9499512l5.3800049,3.1000366l0.6900024,0.3999634l0.0700073,0.0400391l0.1499634,0.0799561
			l0.1100464,0.0700073l0.1799927,0.1000366l0.039978,0.0199585l1.9099731,1.1100464l0.8800049,0.5l1.3300171,0.7799683
			l0.8900146,0.5100098l0.1799927,0.0999756l0.3099976,0.1799927l0.1900024,0.1100464l0.4799805,0.2799683l3.5700073,2.0499878
			l0.0900269,0.0500488l0.4400024,0.2599487l0.6199951,0.3600464l0.7199707,0.4199829c0.0100098,0,0.0100098,0,0.0100098,0
			l0.5300293,0.2999878l1.5099487,0.8699951l3.1700439,1.8400269l4.4799805,2.5800171l0.7200317,0.4199829l0.3099976,0.1799927
			l0.2299805,0.1300049l0.0200195-0.0100098l0.1900024-0.1099854l0.1399536-0.0800171l0.0300293-0.0200195l0.3099976-0.1799927
			l0.0800171-0.0499878h0.0099487l1.7200317-0.9799805l0.0899658-0.0499878l0.6900024-0.4000244l0.5-0.289978l0.2400513-0.1400146
			l3.8499756-2.2200317l2.450016-1.4099731l0.7399902-0.4299927l0.6599731-0.3800049l0.6700439-0.3900146l0.4400024-0.2600098
			l2.3299561-1.3399658l0.3900146-0.2200317h0.0100098l0.2299805-0.1400146l0.210022-0.1199951l0.6300049-0.3599854
			l0.7999878-0.4599609l1.2600098-0.7300415l0.4599609-0.2699585h0.0100098l0.460022-0.2700195l0.0100098-0.0100098l0.25-0.1400146
			l0.5299683-0.3099976l0.3699951-0.2099609l0.3500366-0.210022l0.5499878-0.3099976l0.210022-0.1300049l0.3200073-0.1799927
			l0.4299927-0.2399902l0.0199585-0.0100098l0.0500488-0.0300293l0.1299438-0.0799561l0.2400513-0.1300049l3.7799683-2.1799927
			l0.3800049-0.2200317l1.1099854-0.6500244l2.9700317-1.7099609l1.5599976-0.9000244l8.5299683-4.9199829h0.0100098
			l0.0599976-0.039978l2.6500244-1.5300293l0.8999634-0.5200195l0.9900513-0.5699463l0.039978-0.0200195V37.6004486
			L100.0614624,36.4404144z M100.2014771,89.6504364l-0.5200195,0.2999878l-0.3200073,0.1799927l-0.5799561,0.3400269
			l-4.2200317,2.4400024l-0.6099854,0.3499756l-2.7600098,1.5900269l-4.6699829,2.6900024l-3.1199951,1.7999878
			l-1.2800293,0.7399902l-0.7199707,0.4100342l-2.9299927,1.6899414l-0.0700073,0.0500488l-0.1600342,0.0899658
			l-0.1799927,0.1099854l-0.5700073,0.3200073l-0.8900146,0.5100098l-0.2199707,0.1300049l-0.0499878,0.0300293
			l-0.8099976,0.4699707l-0.0900269,0.0499878l-3.9099731,2.25l-0.0800171,0.0500488l-0.789978,0.4499512l-0.0800171,0.0500488
			l-0.9100342,0.5299683l-2.1499634,1.2399902l-1.539978,0.8900146l-1.6800537,0.9699707l-1.0999794,0.6300049l-2.9699707,1.7200317
			l-1.2300415,0.7099609l-0.0599976,0.0400391h-0.0200195l-0.75,0.4400024l-0.2799683,0.1499634l-1.8699951,1.0800171
			l-3.4500122-1.9899902l-1.2299805-0.710022l-0.6099854-0.3499756l-1.8100586-1.0499878l-0.7199707-0.4100342l-0.6900024-0.3999634
			l-5.2600098-3.0300293l-0.7699585-0.4500122l-0.0500488-0.0299683l-1.789978-1.0300293l-2.0599976-1.1799927l-0.9000244-0.5199585
			l-0.5799561-0.3400269l-0.25-0.1500244l-0.4300537-0.25l-0.2099609-0.1199951l-1.75-1.0100098l-0.3099976-0.1799927
			l-0.1900024-0.1099854l-1.5-0.8699951l-3.4199829-1.9699707l-3.5400391-2.0400391l-0.3699951-0.2199707l-1.7600098-1.0100098
			l-3.4199829-1.9700317l-4.5999756-2.6599731l-0.3099976-0.1799927l-0.9000244-0.5100098l-0.3900146-0.2299805
			l-0.2299805-0.1300049l-0.210022-0.1199951l-0.4599609-0.2700195V38.6804047l3.9099731-2.2599487l1.0599976-0.6100464
			l0.0300293-0.0199585l1.4199829-0.8200073l0.1099854-0.0599976l0.3599854-0.210022l0.9299927-0.539978h0.0100098
			l0.0599976-0.0400391l0.5800171-0.3299561l0.1400146-0.0800171l2.1599731-1.25l0.0200195-0.0100098l0.2999878-0.1799927h0.0100098
			l1.3599854-0.789978h0.0100098l0.2000122-0.1100464l1.4899902-0.8599854l0.0999756-0.0599976l1.25-0.7199707l0.4300537-0.25
			h0.0099487l0.7600098-0.4400024l0.460022-0.2700195h0.0100098l0.5999756-0.3499756l0.2399902-0.1400146l0.5499878-0.3099976
			l1.2900391-0.75l0.2999878-0.1699829c0.0100098-0.0100098,0.0100098-0.0100098,0.0200195-0.0100098l0.7799683-0.4500122
			l0.3500366-0.2000122l0.1999512-0.1199951l0.2900391-0.1699829l0.1699829-0.1000366l0.2700195-0.1499634l0.039978-0.0200195
			l0.4199829-0.2399902l0.0100098-0.0100098l2.8400269-1.6400146l0.0299683-0.0199585l3.2900391-1.9000244l0.289978-0.1699829
			l1.1500244-0.6600342l0.2199707-0.1300049l0.7200317-0.4099731l0.1900024-0.1099854l1.5999756-0.9200439l0.75-0.4400024
			l0.0700073-0.039978l0.0599976-0.039978l0.3300171-0.1900024l0.3800049-0.2200317l1.4399414-0.8299561l0.0600586-0.0300293
			l1.8699951-1.0800171l0.1099854-0.0599976l0.7299805-0.4299927l0.5499878-0.3099985l0.9200439-0.539978l0.0999756-0.0599976
			l1.8699951-1.0700073l0.1000366-0.0599976l1.3199463-0.7600098l0.4700317-0.2700195l0.5299683,0.3099976l0.6100464,0.3500366
			l0.1399536,0.0799561l0.4400024,0.25l0.8099976,0.4700317l0.1500244,0.0900269l0.710022,0.4099731l0.7799683,0.4500122
			l0.8200073,0.4699717l3.5000038,2.0200195l0.3099976,0.1799927l2.1799927,1.2600098l0.6000366,0.3499756l2.0499878,1.1799927
			l1.3699951,0.7900391L73.37146,23.210434l2.5,1.4400024l1.3699951,0.7999878l1.9100342,1.1000366l0.1599731,0.0899658
			l0.539978,0.3099976l0.5,0.2900391l0.0500488,0.0299683l0.3200073,0.1799927l0.0599976,0.0300293l0.0499878,0.0299683
			l0.4400024,0.2600098l0.3499756,0.2000122l0.3099976,0.1799927l0.7800293,0.4500122l0.0899658,0.0499878l0.0499878,0.0299683
			l1.9400024,1.1200562l1.9400024,1.1099854l0.1000366,0.0599976l1.6499634,0.9500122l0.6500244,0.3800049l1.4699707,0.8399658
			l0.2400513,0.1400146l0.9699707,0.5599976l0.5700073,0.3300171l0.8400269,0.4799805l0.3499756,0.2000122l0.2000122,0.1199951
			l0.039978,0.0299683l0.7700195,0.4400024l0.1900024,0.1100464l0.539978,0.3099976l0.2800293,0.1599731l0.25,0.1500244
			l1.3399658,0.7699585l0.710022,0.4100342l0.6799927,0.3900146l1.6300049,0.9399414V89.6504364z"/>
	</g>
</g>
<path class="st0" d="M73.1772003,35.1106148H58.1404724H43.1037407H28.0670109v15.0367279v15.0367317v0.9641724v13.9849091
	v0.0876465v14.9490814h15.0367298V80.2208023v-0.0876465V66.1482468v-0.9641724V50.1473427h15.0367317h15.0367279h15.0367355
	V35.1106148H73.1772003z"/>
<path class="st0" d="M58.2280807,80.1331558h14.9491196v15.0367279h0.5259171
	c3.8470535-0.0021896,7.5354538-1.5321579,10.2548676-4.2533188c2.7194061-2.7211609,4.2471848-6.4104462,4.2471848-10.2574997
	V65.1840744H58.2280807V80.1331558z"/>
<path class="st1" d="M75.301384,113.8699646l0.7277603-0.4210968l-0.927742-1.6033936l1.318779-0.7630692l-0.3752289-0.6484985
	l-1.318779,0.7630692l-0.5887299-1.0174789l1.6659775-0.9639587l-0.3749619-0.6480331l-2.3937378,1.3850479L75.301384,113.8699646z"
	/>
<path class="st1" d="M77.5617752,108.9362869c-0.7560425,0.4374542-1.0693588,1.3395691-0.5857697,2.1753387
	s1.4285431,1.0252991,2.1845856,0.5878448c0.7560349-0.4374542,1.062645-1.3511581,0.5790634-2.1869278
	C79.2560654,108.6767731,78.3122482,108.5020523,77.5617752,108.9362869z M78.7687302,111.0222321
	c-0.3810349,0.2204666-0.8562469,0.1241913-1.1064835-0.3082962c-0.2435379-0.4208984-0.0898895-0.876091,0.2929916-1.0976334
	c0.3828888-0.2215424,0.8530273-0.1297531,1.0976334,0.2929993c0.2483902,0.4335556,0.0971603,0.8929214-0.2838745,1.1133957
	L78.7687302,111.0222321z"/>
<path class="st1" d="M82.0991592,105.0356827l-0.6878967,0.3980255l0.5855103,1.0119171l-0.483017,0.2794724l0.3223953,0.5571823
	l0.4830093-0.27948l1.2141953,2.098465l0.6879044-0.3980255l-1.2142029-2.098465l0.5632095-0.325882l-0.3223953-0.5571747
	l-0.5632019,0.3258743L82.0991592,105.0356827z"/>
<path class="st1" d="M86.8252335,103.5763245c-0.2104492,0.1217651-0.5492477,0.401329-0.5449829,0.9829483
	c-0.3356171-0.2389221-0.699501-0.2251358-1.1335373-0.0043106c-0.2498474,0.1445694-0.5445328,0.4747086-0.504921,0.884285
	l-0.2271805-0.3926239l-0.6953125,0.4023209l1.5365906,2.6556396l0.6953125-0.4023132l-0.8193893-1.4161301
	c-0.2631149-0.4547348-0.0860367-0.7774658,0.1976547-0.9416122c0.2725601-0.1577072,0.6015625-0.0745926,0.8213501,0.2913666
	l0.8456802,1.4615555l0.6953125-0.4023209l-0.8193893-1.4161301c-0.2336121-0.4037399-0.1310043-0.7514496,0.181427-0.9322205
	c0.2846146-0.1646805,0.6223984-0.0792236,0.842865,0.3018112l0.8357544,1.4444046l0.6878967-0.3980331l-0.8783951-1.5181046
	C88.0887833,103.3989792,87.4677048,103.2045822,86.8252335,103.5763245z"/>
<path class="st1" d="M90.7215805,101.8378677c-0.3644257-0.1838913-0.8091507-0.0478363-1.0478745,0.0902939
	c-0.6994858,0.4047318-1.0477829,1.311615-0.5542755,2.1645355c0.493515,0.8529205,1.4536057,1.0033798,2.1530914,0.5986481
	c0.2614365-0.1512756,0.5843964-0.4977798,0.5972748-0.8690414l0.197403,0.3411636l0.6953201-0.4023132l-1.5365906-2.6556473
	l-0.6953201,0.4023209L90.7215805,101.8378677z M90.9840546,103.9703674
	c-0.3810349,0.2204742-0.9012299,0.1341324-1.1479797-0.2923279c-0.2467575-0.4264603-0.0621033-0.9200134,0.3189316-1.1404877
	c0.363884-0.2105408,0.875824-0.1652145,1.1421585,0.2950821C91.5634995,103.2929382,91.3595276,103.7531204,90.9840546,103.9703674
	L90.9840546,103.9703674z"/>
<path class="st1" d="M92.3328171,99.1143494l-0.6878967,0.3980255l0.5855026,1.0119171l-0.4830093,0.27948l0.3223877,0.5571747
	l0.483017-0.2794724l1.2141953,2.0984573l0.6878967-0.3980255l-1.2141953-2.0984573l0.5632019-0.325882l-0.3223877-0.5571823
	l-0.5632095,0.325882L92.3328171,99.1143494z"/>
<path class="st1" d="M93.5156555,97.8532791c-0.2442856,0.1413498-0.3440323,0.4416122-0.2091217,0.6747742
	s0.4484177,0.3023453,0.6927109,0.1609955c0.1106415-0.0640182,0.1913147-0.1693649,0.2242966-0.2928772
	c0.0329742-0.1235199,0.0155182-0.2550583-0.0485001-0.3656998s-0.1693649-0.1913376-0.2928772-0.2242966
	c-0.1235199-0.0329666-0.2550583-0.0155258-0.3657074,0.0485001L93.5156555,97.8532791z"/>
<path class="st1" d="M94.6923065,99.0998154l-0.6878967,0.3980255l1.5363159,2.6551819l0.6878967-0.3980255L94.6923065,99.0998154z"
	/>
<path class="st1" d="M98.3204041,99.3764954c-0.0160599,0.1218414-0.0603104,0.2382736-0.1292572,0.3400421
	c-0.0689468,0.1017609-0.1606522,0.1860123-0.267868,0.2461319c-0.3865967,0.2236862-0.9155731,0.1350021-1.1655426-0.29702
	c-0.2499771-0.4320221-0.0501022-0.9121094,0.3364944-1.1357956c0.1045456-0.0637741,0.2225647-0.1022186,0.3446121-0.1122131
	c0.1220245-0.0100327,0.2447433,0.0086136,0.3582764,0.0544815l0.3102264-0.7363663
	c-0.4412842-0.1852036-0.9589462-0.1356506-1.4025574,0.1210327c-0.7616043,0.4406738-1.1203461,1.369072-0.6367569,2.2048416
	c0.4835815,0.8357697,1.4771881,1.0045776,2.2387924,0.5639038c0.449173-0.2598953,0.7471008-0.6902924,0.8062515-1.164444
	L98.3204041,99.3764954z"/>
<path class="st1" d="M79.4667511,107.909523l1.5365906,2.6556473l0.6953125-0.4023209l-1.1844254-2.0470123l0.6280975-0.3634262
	c0.1780014-0.1029892,0.2312393-0.343544,0.1188583-0.5377731l-0.1488571-0.2572632L79.4667511,107.909523z"/>
<path class="st1" d="M68.4206161,111.9250183l-1.2088318,0.69944l-1.2088318,0.6994476l-1.2088318,0.6994476l0.6994476,1.2088318
	l0.6994476,1.2088318l0.0448532,0.0775146l0.6505127,1.1242676l0.0040817,0.0070496l0.6953659,1.2017822l1.2088318-0.6994476
	l-0.6953659-1.2017822l-0.0040817-0.0070419l-0.6505203-1.1242752l-0.0448456-0.0775146l-0.6994476-1.2088318l1.2088318-0.6994476
	l1.2088318-0.69944l1.2088318-0.6994476l-0.6994476-1.2088318L68.4206161,111.9250183z"/>
<path class="st1" d="M69.3130875,116.2398376l1.2017899-0.6953735l0.6994476,1.2088318l0.0422821-0.0244675
	c0.309166-0.1791229,0.5345154-0.4736862,0.6265564-0.8189392c0.092041-0.3452606,0.0432587-0.7129135-0.1356964-1.0221863
	l-0.7198257-1.2440643l-2.4099197,1.3944092L69.3130875,116.2398376z"/>
</svg>
