<svg enable-background="new 0 0 110.9073334 127.9528961" viewBox="0 0 110.9073334 127.9528961" xmlns="http://www.w3.org/2000/svg"><path d="m110.8372574 31.9700851v64l-55.4199829 32-44.3499775-25.5999755-.2000122-.1199952-10.8800048-6.2800293v-64l55.4299945-31.9999995z" fill="#505050"/><path d="m99.3607559 36.1000175-.25-.1400146-1.9400024-1.1199951-.4400024-.25-.7800293-.4400024-1.919983-1.1099854-.0200195-.0100098-.539978-.3099976-.9199829-.5300293-.4000244-.2299786-.2600098-.1599731-.1699829-.0900269-.0900269-.0499878v-.0100098l-.039978-.0299683-3.7800293-2.1800537-1.8099976-1.039978-.0899658-.0599976-.7999878-.460022-1.3699951-.789978-1.5200195-.8800049-.2000122-.1099854-.6699829-.3900146-2.2999878-1.3099976-1.0400391-.6099854-3.789978-2.1900024-2.8499756-1.6400146-1.3400269-.7700195-3.9500122-2.2799683-2.5999718-1.500001-6.4899902-3.75-1.0599976-.6199951-1.4400024.8300171-.6000366.3499756-2.6099854 1.5100098-2.8599854 1.6499634-.2700195.1600342-.1900024.1099854-5.7199707 3.2999887-.0500488.0300293h-.0099487l-.0200195.0100098-.8400269.4799805-.539978.3099976-.6900024.4099731-2.2800293 1.3000488-.1899414.1099854-.3300171.1900024-1.1000366.6499634-.4400024.2600098-.3799438.2200317-.7800293.4500122-1.6599731.9499512-.1700439.0900269-1.579958.9199829-3.2300415 1.8599854-.5700073.3300171s0 0-.0099487 0l-.25.1400146-.4500122.2600098-.4200439.2399902-1.0099487.5900269-.9800415.5699463-2.0700073 1.1900024-.1499634.0900269-.3900146.2299805-.4299927.25-2.2700195 1.3099957-1.75 1.0100098-.5799561.3300171-.25.1400146h-.0100098l-.7700195.4599609-3.8599854 2.2300415-1.7999878 1.0299683v53.1400185l.0299683.0200195.0800171.039978.0899658.0499878.8300171.4799805.7700195.4400024 1.8099976 1.0500488 3.2999878 1.8999634.0200195.0100098.2600098.1500244c.0099487.0099487.0199585.0099487.0199585.0099487l.2900391.1700439.0199585.0100098.0400391.0199585.7199707.4299927 1.3300171.7700195 1.0199585.5900269 1.7400513 1.0099487.1199951.0700073c.0100098 0 .0100098 0 .0199585.0100098l.2000122.1199951.1300049.0700073.5.289978.210022.1200562h.0100098l.2099609.1199951.0100098.0099487.5.2900391.0900269.0499878.8200073.4700317 2.0899658 1.1999512 1.4400024.8400269 1.0700073.6199951.2999878.1699829c.0100098.0100098.0200195.0100098.0200195.0100098l1.3900146.8099976.3699951.2200317.1499634.0799561.0499897.0300293.7900391.4500122.5100098.289978.039978.0300293.0800171.039978c.0299683.0100098.0499878.0299683.0799561.0499878l.3500366.2000122.0899658.0499878.2400513.1500244.2599487.1499634.1500244.0800171.0800171.0499878.3899536.2200317.3700562.2099609 1.2099609.710022h.0100098l.7600098.4400024c.1499634.0800171.2799683.1599731.4199829.25l1.0499878.5999756.0300293.0200195.0899658.0599976.2200317.1199951.289978.1699829h.0100098l.5.2900391.1300049.0799561.4400024.25h.0100093l.1400146.0900269h.0099487l.0900269.0499878.6099854.3500366.5100098.2999878.2800293.1599731.4599609.2700195 3.5 2.0299683.3300171.1900024 1.7399902 1 .039978.0300293 1.1200562.6400146c.0099487 0 .0099487.0100098.0199585.0199585h.0100098l.3200073.1900024.5.2900391.1400146.0799561.1399536.0800171.0200195.0200195h.0100098l.0900269.0499878.9899902.5700073.1699829.0999756.4299927.25.1799927.1000366.0499878.0299683.1700439.1000366.9099731.5299683.0300293.0100098.8499756.4899902 1.2800293.7399902.1399536.0800171.4800415-.2799683.3200073-.1900024h.0099487l.5599976-.3200073 1.8700562-1.0800171.5-.289978.1799927-.1000366.039978-.0199585.3599854-.210022 2.3599854-1.3599854.4000244-.2300415.4299927-.25.0100098-.0100098.3900146-.2199707.6300011-.3699951.3499756-.2000122.6300049-.3599854.1099854-.0700073.2800293-.1500244.1799927-.1099854.0499878-.0299683.1400146-.0800171.3499756-.2000122.1500244-.0899658.1900024-.1100464.1400146-.0799561.0199585-.0100098.2700195-.1500244.1300049-.0800171.0100098-.0099487.0199585-.0100098 2.0500488-1.1900024.3299561-.1900024 1.1199951-.6500244.0599976-.0299683.1400146-.0800171.1099854-.0599976.3700562-.2200317h.0099487l.6100464-.3499756 1.5999756-.9199829.1199951-.0700073.5700073-.3300171.039978-.0299683.4200439-.2399902.4699707-.2700195s.0100098 0 .0100098-.0100098l.25-.1400146.3300171-.1900024.1999512-.1199951.6400146-.3800049.0700073-.039978h.0100098l.2399902-.1400146.0300293-.0200195.289978-.1599731.0499878-.0299683.0100098-.0100098.2800293-.1600342.4599609-.2600098.1099854-.0699463.4400024-.25.0400391-.0200195.0199585-.0200195.1800537-.0899658.4899902-.2800293.289978-.1699829v-.0100098l.0599976-.039978.0499878-.0200195.0499878-.0300293.0300293-.0099487.0800171-.0500488.3299561-.1900024.0599976-.039978.0200195-.0100098.0700073-.039978.0499878-.0300293.5700073-.3200073c0-.0099487 0-.0099487 0-.0099487l.1300049-.0700073.4000244-.2300415.1599731-.0899658.8699951-.5200195 1.0700073-.6199951.4700317-.2700195h.0099487l.0200195-.0199585.4500122-.2600098 1.2299805-.710022.0400391-.0299683 1.0499878-.6000366.8200073-.4699707.5699463-.3300171.6000366-.3399658 1.8599854-1.0700073.0200195-.0100098.0899658-.0599976.1000366-.0400391.0299683-.0099487.1400146-.0700073.0999756-.0599976.0700073-.0400391.4000244-.2299805.1199951-.0700073.0200195-.0100098.4699707-.2699585.7900391-.460022.6899414-.4000244.1600342-.0899658.6799927-.3900146.0200195-.0100098.8699951-.5.3599854-.2099609.2000122-.1200562 3-1.7299805.1400146-.0800171.8800049-.5099487.1299438-.0700073.3300171-.1900024 1.0900269-.6199951.0100098-.0100098v-53.1400187z" fill="#fff"/><path d="m99.9607315 36.4499931-.4799805-.2799683-.6900024-.4000244-1.8400269-1.0499878-.1499634-.0900269-.5300293-.2999878-.7199707-.4199829-.6799927-.4000244-.0900269-.0499878-.1099854-.0599976-.4899902-.2799683-.5100098-.2900391-.9000244-.5199585-.5100098-.3000488-.2600098-.1499615-1.2599487-.7200317-.9000244-.5199585-1.8499756-1.0599976-2.4700317-1.4300537-1.710022-.9799805-.4399414-.2600098-.2800293-.1599731-.4500122-.2600098-.0100098-.0100098-.4799805-.2799683-.0499878-.0200195-.4199829-.25-.2300415-.1400146-.1799927-.0999756-.8599854-.4899902-2.3699951-1.3699951-1.3599854-.7800293-.7400513-.4299927-1.2799683-.7399902-4.1199951-2.3699951-2.2200317-1.2800293-.5899655-.3399656-2.4200439-1.3900146-.1899414-.1099854-3.9300499-2.2700205-.6699829-.3900146-1.1099854-.6400146-.3699951-.2099609-.1600342-.0900269-.039978-.0199585-.6400146-.3700562-.2399902-.1399536-.2799683-.1700439-.2300415-.1300049-1.0100098-.5799561-.5299683-.3099976-.4700317.2699585-1.0599976.6100464-2.039978 1.1799927-.9000244.5199585-.4299927.25-.75.4300537-2.8299561 1.6299438-1.4100342.8200083-.4699707.2700195-.1199951.0700073-.1800537.1099854-.1099854.0599976-.7000122.4100342-.7299805.4199829-.8399658.4799805-.2400513.1400146-.5599976.3200073-.3800049.2199707-1.4400024.8300171-1.9199829 1.1099854-1.1400146.6600342-.6599731.3800049-3.2200317 1.8599854-.4499512.2600098-.8500366.4899902-.5299702.3099976-.1000366.0499878c-.0099487 0-.0099487 0-.0099487 0l-.25.1500244-.4200439.25-.2999878.1699829-.2700195.1599731-.1799927.1000366-.0299683.0200195-1.4400024.8299561-.0300293.0200195h-.0100098l-.1399536.0800171-.3400269.1900024-.8099976.4699707-.4899902.2800293-.0100098.0099487-.5800171.3400269-.4799805.2700195-.1500244.0899658-.1300049.0700073-.0099487.0100098-.0300293.0200195-.7600098.4400024-.1599731.0899658-.1300049.0800171-1.0999756.6300049-1.1000366.6300049h-.0100098l-.6699829.3800049-1.710022.9899902-1 .5800152-.3299561.1900024-2.6500244 1.5299683-.7199707.4199829-3.5100098 2.0200195-1.5400391.8900146v53.1199989l.0700073.039978.1900024.1099854 1.1699829.6800537h.0100098l.3500366.2099609.75.4299927.1499634.0800171 3.5100098 2.0300293.4899902.2799683.3200073.1900024.6900024.3900146 4 2.3200073.460022.2600098.0599976.039978 1.2399902.710022 3.3800049 1.9499512 5.3800068 3.1000366.6900024.3999634.0700073.0400391.1499634.0799561.1100464.0700073.1799927.1000366.039978.0199585 1.9099731 1.1100464.8800049.5 1.3300171.7799683.8900146.5100098.1799927.0999756.3099976.1799927.1900024.1100464.4799805.2799683 3.5700073 2.0499878.0900269.0500488.4400024.2599487.6199951.3600464.7199707.4199829h.0100098l.5300293.2999878 1.5099487.8699951 3.1700439 1.8400269 4.4799805 2.5800171.7200317.4199829.3099976.1799927.2299805.1300049.0200195-.0100098.1900024-.1099854.1399536-.0800171.0300293-.0200195.3099976-.1799927.0800171-.0499878h.0099487l1.7200317-.9799805.0899658-.0499878.6900024-.4000244.5-.289978.2400513-.1400146 3.8499756-2.2200317 2.4500084-1.4099731.7399902-.4299927.6599731-.3800049.6700439-.3900146.4400024-.2600098 2.3299561-1.3399658.3900146-.2200317h.0100098l.2299805-.1400146.210022-.1199951.6300049-.3599854.7999878-.4599609 1.2600098-.7300415.4599609-.2699585h.0100098l.460022-.2700195.0100098-.0100098.25-.1400146.5299683-.3099976.3699951-.2099609.3500366-.210022.5499878-.3099976.210022-.1300049.3200073-.1799927.4299927-.2399902.0199585-.0100098.0500488-.0300293.1299438-.0799561.2400513-.1300049 3.7799683-2.1799927.3800049-.2200317 1.1099854-.6500244 2.9700317-1.7099609 1.5599976-.9000244 8.5299683-4.9199829h.0100098l.0599976-.039978 2.6500244-1.5300293.8999634-.5200195.9900513-.5699463.039978-.0200195v-53.1199992zm.1400147 53.2100258-.5200195.2999878-.3200073.1799927-.5799561.3400269-4.2200317 2.4400024-.6099854.3499756-2.7600098 1.5900269-4.6699829 2.6900024-3.1199951 1.7999878-1.2800293.7399902-.7199707.4100342-2.9299927 1.6899414-.0700073.0500488-.1600342.0899658-.1799927.1099854-.5700073.3200073-.8900146.5100098-.2199707.1300049-.0499878.0300293-.8099976.4699707-.0900269.0499878-3.9099731 2.25-.0800171.0500488-.789978.4499512-.0800171.0500488-.9100342.5299683-2.1499634 1.2399902-1.539978.8900146-1.6800537.9699707-1.0999718.6300049-2.9699707 1.7200317-1.2300415.7099609-.0599976.0400391h-.0200195l-.75.4400024-.2799683.1499634-1.8699951 1.0800171-3.4500122-1.9899902-1.2299805-.710022-.6099854-.3499756-1.8100586-1.0499878-.7199707-.4100342-.6900024-.3999634-5.2600098-3.0300293-.7699585-.4500122-.0500488-.0299683-1.789978-1.0300293-2.0599976-1.1799927-.9000244-.5199585-.5799561-.3400269-.25-.1500244-.4300537-.25-.2099609-.1199951-1.75-1.0100098-.3099976-.1799927-.1900024-.1099854-1.5000019-.8699951-3.4199829-1.9699707-3.5400391-2.0400391-.369995-.2199704-1.7600098-1.0100098-3.4199829-1.9700317-4.5999756-2.6599731-.3099976-.1799927-.9000244-.5100098-.3900146-.2299805-.2299805-.1300049-.210022-.1199951-.4599609-.2700195v-50.9700355l3.9099731-2.2599487 1.0599976-.6100464.0300293-.0199585 1.4199829-.8200073.1099854-.0599976.3599854-.210022.9299927-.539978h.0100098l.0599976-.0400391.5800171-.3299561.1400146-.0800171 2.1599731-1.25.0200195-.0100098.2999878-.1799927h.0100098l1.3599854-.7899761h.0100098l.2000122-.1100464 1.4899902-.8599854.0999756-.0599976 1.25-.7199707.4300537-.25h.0099487l.7600098-.4400024.460022-.2700195h.0100098l.5999756-.3499756.2399902-.1400146.5499878-.3099976 1.2900391-.75.2999878-.1699829c.0100098-.0100098.0100098-.0100098.0200195-.0100098l.7799702-.4500122.3500366-.2000122.1999512-.1199951.2900391-.1699829.1699829-.1000366.2700195-.1499634.039978-.0200195.4199829-.2399902.0100098-.0100098 2.8400269-1.6400146.0299683-.0199585 3.2900391-1.9000244.289978-.1699829 1.1500244-.6600342.2199707-.1300049.7200317-.4099731.1900024-.1099854 1.5999756-.9200439.75-.4400024.0700073-.039978.0599976-.039978.3300171-.1900024.3800049-.2200317 1.4399414-.8299561.0600586-.0300293 1.8699951-1.0800171.1099851-.0599977.7299805-.4299927.5499878-.3099985.9200439-.539978.0999756-.0599976 1.8699951-1.0700073.1000366-.0599976 1.3199463-.7600098.4700317-.2700195.5299683.3099976.6100464.3500366.1399536.0799561.4400024.25.8099976.4700317.1500244.0900269.710022.4099731.7799683.4500122.8200073.4699717 3.4999962 2.0200195.3099976.1799927 2.1799927 1.2600098.6000366.3499756 2.0499878 1.1799927 1.3699951.7900391 2.3599854 1.3599854 2.5 1.4400024 1.3699951.7999878 1.9100342 1.1000366.1599731.0899658.539978.3099976.5.2900391.0500488.0299683.3200073.1799927.0599976.0300293.0499878.0299683.4400024.2600098.3499756.2000122.3099976.1799927.7800293.4500122.0899658.0499878.0499878.0299683 1.9400024 1.1200562 1.9400024 1.1099854.1000366.0599976 1.6499634.9500122.6500244.380003 1.4699707.8399658.2400513.1400146.9699707.5599976.5700073.3300171.8400269.4799805.3499756.2000122.2000122.1199951.039978.0299683.7700195.4400024.1900024.1100464.539978.3099976.2800293.1599731.25.1500244 1.3399658.7699585.710022.4100342.6799927.3900146 1.6300049.9399414v50.9700351z" opacity=".13"/><path d="m68.307159 110.588509h3.162475v3.162844h-3.162475z" fill="#f25022" transform="matrix(.8643917 -.5028189 .5028189 .8643917 -46.923725 50.352379)"/><g fill="#fefefe"><path d="m79.5899353 106.2358932c.6678467 1.149559 1.336647 2.2985535 2.0051346 3.4477386-.1991577.1154251-.396698.2328949-.5973358.3457642-.4909744-.8491516-.9865875-1.6960297-1.4790192-2.5447693-.0219421-.0384445-.0452881-.0756531-.0700989-.1124268-.0014114.0247192-.0008545.0491486.0011597.0731506.1632538 1.0671082.3186417 2.1353683.4841766 3.2019958-.1386108.0874557-.2829666.1650314-.4232407.2496185-.8575516-.6628036-1.711937-1.3304291-2.5681305-1.9953003-.0193176-.0126648-.0393982-.0244522-.0600739-.0350494.2090759.3755569.4314041.7438278.6454468 1.1169205.2995071.5141449.5982361 1.0291595.8982468 1.5434341-.187439.1098938-.3752975.2183151-.5626068.3276978-.6689911-1.1493149-1.3376617-2.2988205-2.0058289-3.4481888l.8596649-.5000687c.6631088.5236969 1.327446 1.0458221 1.9910583 1.5696487.1674194.1300735.3311691.2648468.50103.3917923-.1497574-1.0497742-.292923-2.099968-.446106-3.1490326.2732164-.1649091.551079-.3218457.826523-.4829252z"/><path d="m81.3005295 106.5501328c.4765015.8242874.9573364 1.6464844 1.4356155 2.4701614l-.5870285.3414688c-.4797363-.8232498-.9580231-1.6469269-1.4374466-2.4703674.195549-.1150284.3905335-.2310105.5888596-.3412628z"/><path d="m80.7411499 105.6229858c.151825.0482483.2636414.2008514.2644577.3599854.002388.1787109-.1310272.3403854-.297905.3939285-.1693268.0617905-.3802872-.0066757-.4661407-.1696854-.1018448-.1648102-.0483551-.3956451.1049194-.5099869.1086807-.0875472.2612458-.1216659.3946686-.0742416z"/><path d="m83.6724472 105.2625656c.1062469.1899872.2190552.3765793.3269501.5664597-.2751312-.0349884-.5709381.0133286-.7954712.184906-.1823883.12957-.3076782.3360214-.3324585.5582733-.0357361.2789764.0790939.5548706.2416763.7756729.1262054.1736755.3099442.3134613.5246582.3524399.2260666.0460281.4625092-.0287781.6489334-.15728.1797943-.1340332.3143845-.321579.4037704-.5259247.1055984.1771317.2069244.3571777.3130264.5344391-.1580505.2844086-.4263763.4899979-.7109451.6376114-.2918625.1497192-.6365662.2064209-.9573364.126709-.3473969-.0851288-.6463165-.3209381-.838913-.6190186-.199646-.3101959-.3283768-.6804276-.2995911-1.0535126.0216293-.3164368.1682434-.6168137.3863907-.8448486.2380905-.2473221.5476456-.4231186.8796387-.5082703.0686341-.0177383.1385575-.0281143.2096711-.0276565z"/><path d="m85.4972153 104.095253c.1139908.1974335.2294464.3944397.3437576.5916824-.1606674-.0076904-.3247986.044693-.4543839.1388474-.1567841.1163788-.2146301.3228607-.1976242.5105667.0161438.2001495.1050568.3852768.2094421.5537262l.6874008 1.1817093-.5828781.3390656c-.4795609-.822937-.9573898-1.6473083-1.4375839-2.4698639.1932068-.1153793.3882751-.2275696.5836563-.3399429.0812149.1418152.1643372.2825165.2460556.4244614-.026268-.1904221-.0191956-.3946838.0802917-.5647964.1063157-.192856.3090745-.3218996.521866-.3654558z"/><path d="m88.2888718 103.2548752c-.2354813-.1685791-.531662-.2514954-.8201981-.2214966-.3331223.0333176-.6416779.19104-.9043198.3924713-.2764359.2107315-.4849854.5198212-.5358887.8673706-.0492935.3128967.0252533.6339874.1664658.9141617.1616974.3322678.4114304.6397934.7532959.7968445.2932968.1366577.6366959.1481476.9424438.047966.2548523-.0842361.4929123-.22229.692627-.4020538.2338943-.2090302.3965988-.5008392.4350052-.8133774.0419388-.298378-.0272598-.6029434-.1584473-.8710251-.1347122-.2741394-.3202743-.5315094-.5709838-.7108612zm.088684 1.4664001c.0173798.1597366-.0237427.3274765-.1244812.454361-.1186066.1475143-.2881165.2508087-.4695587.3013077-.1848755.0512085-.3885422.0143433-.5487213-.0900726-.2055664-.1347656-.3477097-.3461151-.4492493-.5661545-.0925064-.2001114-.1400223-.4336472-.0716248-.648407.047966-.1589203.1629944-.2898407.299614-.379982.170929-.1147995.3891373-.1747284.592308-.1196442.2145615.0548553.3808212.2188873.5036316.3962555.1288606.1973114.2439118.4141769.2680817.6523361z"/><path d="m90.7653961 102.977623c.287941.1956711.4412613.5861664.330101.9218216-.0997086.331131-.3815994.5706406-.6774292.7282181-.2132797.1065674-.4436417.1859436-.6811905.2118912-.1102829-.1910553-.2229309-.3803024-.3316193-.5722809.2259445.023056.4573288-.0010147.67099-.0804901.147995-.0566406.2955551-.1411972.3864441-.2747269.0856628-.1300583.0077362-.3139038-.1250305-.3770752-.113884-.0417175-.23806-.0292282-.3562622-.0189362-.2198639.0233383-.4411011.0641174-.6624146.0358047-.1562347-.021347-.306366-.0923538-.4157867-.2070847-.1617661-.1687851-.2756882-.3991165-.2615128-.6373825.0141144-.275795.1712189-.5280685.3781509-.7034912.2452545-.2071075.5521851-.3382797.868042-.3909988.1058655.1812439.2108994.3625488.3162537.543663-.2531357-.0191879-.5127411.0422058-.727478.1777878-.1082382.068512-.2024612.1860504-.1918106.3202591.0202866.127327.1274185.2476578.261795.2527084.2325058.0145416.4605789-.0541077.6924667-.0545731.1814958-.0027236.3725663.0205537.526291.1248857z"/><path d="m93.0655441 100.5718689c-.233696-.1926651-.5391159-.2987976-.8420563-.2796249-.3486404.0205841-.6732635.1829529-.9472046.3913803-.2200623.1689835-.4012985.3951797-.4903107.6603394-.1105042.3199158-.0773773.6761856.0514832.9857407.1307678.3084412.319046.6034927.5924301.8042221.2656326.19841.6118927.2837753.9394836.2336121.3236618-.0495758.6230621-.2083664.8738632-.4140091.2562027-.2117691.4377441-.5166702.4797592-.8479538.0493546-.345787-.0480347-.6988297-.2221527-.9974136-.1119612-.2020265-.2551268-.3901674-.435295-.5362932zm-.0458755 1.1477814c.0530396.1432648.0835724.2991943.0578461.4515839-.0254974.1535263-.1166306.2910385-.2371979.3867722-.1291428.1037216-.283989.1801376-.4495239.2000351-.1782227.0230179-.3608322-.0363388-.5015945-.1447906-.1686401-.1285095-.2919235-.3081665-.3834305-.497757-.088623-.1831665-.1436844-.3922577-.1070023-.5962524.0315399-.1886215.1528473-.3535004.3110428-.457901.1602249-.1089859.3609085-.1740952.5547562-.1357803.1757431.029213.326622.1381836.4428406.2690201.1348876.1541212.2391814.3341444.3122634.52507z"/></g><path d="m73.4732971 108.2550659c.5301132.9113083 1.0602264 1.8226242 1.5900192 2.7341156-.9111786.5296097-1.8223114 1.0600433-2.7336197 1.5901566-.530426-.9111252-1.0602264-1.8226242-1.5903397-2.7339401z" fill="#80ba01"/><path d="m95.5653152 98.8885727c.1615829.2755814.3210754.5519562.4820251.8279037.0922165.1511993.1701431.3115692.2766571.453598.0629654.0832977.1536789.1636734.2649384.1612625.1869354-.0029068.3461075-.1415863.4251175-.3036194l.281929.4846649c-.126152.1719666-.3019333.3040924-.4922485.3973007-.1808777.08815-.3971252.1294479-.5904465.0575409-.2214355-.0798721-.3780289-.2713013-.4953918-.4671936-.2479172-.4225235-.4925156-.8474045-.739975-1.2706223-.2885742.1678619-.5770111.3352203-.8652115.5037231.3864136.6650162.773468 1.3296661 1.160202 1.9944916l-.5914993.3440704c-.3867264-.6648254-.7739182-1.3289719-1.1595078-1.9940338-.1384583.0766983-.2738495.1601486-.4126282.2370377-.0911789-.1582031-.1823578-.3164139-.2759476-.4736481.134613-.0825729.2720184-.1603622.4093628-.2389832-.1118393-.215744-.2698059-.4132004-.325882-.6541367-.0542831-.2150879-.0333099-.4504852.06884-.6490326.1563797-.3107452.4732208-.5151138.8027725-.6022568.1006775.1671982.1967468.3374939.2960129.5059357-.1695633.0188293-.3508072.0726166-.4590759.2136993-.086586.1101151-.0864029.2644958-.0366135.3904419.0639572.1591034.1644287.2995377.2462921.4490738.2889404-.1672211.5770111-.3352203.8652649-.5028992-.1066513-.1884689-.2199936-.3730469-.3240891-.5629959.1634598-.1701965.3209686-.3454666.4816666-.5174713.1452942.245369.2847137.4945831.4327393.7387848.193161-.1161957.3896027-.2274857.5843735-.3416367l.2793427.4802094c-.2004241.1059116-.3928679.2255405-.5890197.3387912z" fill="#fff"/><path d="m72.2128601 113.0211487c.530426.9111252 1.0600357 1.8223038 1.5901489 2.7336121l-2.7336197 1.5901566-1.590332-2.7339401c.911171-.5296022 1.8221207-1.0603563 2.7338028-1.5898286z" fill="#02a4ef"/><path d="m75.2259293 111.2680054 1.5903397 2.7339325-2.7339325 1.5903397c-.5301132-.9113083-1.0605469-1.8224335-1.5901566-2.7336121.9111252-.5304337 1.8224411-1.0605469 2.7337494-1.5906601z" fill="#ffb902"/><path d="m27.6933155 36.2513313h26.3724155c-.0015869 8.7908058 0 17.5816078-.0015869 26.3724136-8.7892189 0-17.5800247 0-26.3708286 0z" fill="#f25022"/><path d="m56.7584076 36.2513313h26.3724136c0 8.7908058.0015869 17.5816078-.0015793 26.3724136-8.7892227-.0015831-17.5800247 0-26.3692474 0-.0031624-8.7908058-.0015869-17.5816078-.0015869-26.3724136z" fill="#80ba01"/><path d="m27.6933155 65.3148422c8.7908039.0031662 17.5816097-.0015869 26.3724155.0031662.0015755 8.7908096 0 17.5800247 0 26.3708344h-26.3724155z" fill="#02a4ef"/><path d="m56.7599945 65.3180084c8.7892227-.0031662 17.5800247-.0015869 26.3708267-.0015869v26.3724213h-26.3724136c.0015869-8.7908097-.0015755-17.5816193.0015869-26.3708344z" fill="#ffb902"/></svg>