<?xml version="1.0" encoding="utf-8"?>
<!-- Generator: Adobe Illustrator 23.0.1, SVG Export Plug-In . SVG Version: 6.00 Build 0)  -->
<svg version="1.1" id="Layer_1" xmlns="http://www.w3.org/2000/svg" xmlns:xlink="http://www.w3.org/1999/xlink" x="0px" y="0px"
	 viewBox="0 0 110.9073334 127.9528961" style="enable-background:new 0 0 110.9073334 127.9528961;" xml:space="preserve">
<style type="text/css">
	.Drop_x0020_Shadow{fill:none;}
	.Round_x0020_Corners_x0020_2_x0020_pt{fill:#FFFFFF;stroke:#231F20;stroke-miterlimit:10;}
	.Live_x0020_Reflect_x0020_X{fill:none;}
	.Bevel_x0020_Soft{fill:url(#SVGID_1_);}
	.Dusk{fill:#FFFFFF;}
	.Foliage_GS{fill:#FFDD00;}
	.Pompadour_GS{fill-rule:evenodd;clip-rule:evenodd;fill:#44ADE2;}
	.st0{fill:#505050;}
	.st1{fill:#FFFFFF;}
	.st2{opacity:0.13;enable-background:new    ;}
	.st3{fill:#F25022;}
	.st4{fill:#FEFEFE;}
	.st5{fill:#80BA01;}
	.st6{fill:#02A4EF;}
	.st7{fill:#FFB902;}
</style>
<linearGradient id="SVGID_1_" gradientUnits="userSpaceOnUse" x1="-365.9492798" y1="-233.2695313" x2="-365.242157" y2="-232.5624237">
	<stop  offset="0" style="stop-color:#DEDFE3"/>
	<stop  offset="0.1783311" style="stop-color:#DADBDF"/>
	<stop  offset="0.3611409" style="stop-color:#CECFD3"/>
	<stop  offset="0.546043" style="stop-color:#B9BCBF"/>
	<stop  offset="0.7323959" style="stop-color:#9CA0A2"/>
	<stop  offset="0.9181451" style="stop-color:#787D7E"/>
	<stop  offset="1" style="stop-color:#656B6C"/>
</linearGradient>
<g>
	<g id="Layer_63_4_">
		<g>
			<g>
				<polygon class="st0" points="110.8372574,31.9700851 110.8372574,95.9700851 55.4172745,127.9700851 11.067297,102.3701096 
					10.8672848,102.2501144 -0.01272,95.9700851 -0.01272,31.9700851 55.4172745,-0.0299144 				"/>
			</g>
		</g>
	</g>
	<path class="st1" d="M99.3607559,36.1000175l-0.25-0.1400146l-1.9400024-1.1199951l-0.4400024-0.25l-0.7800293-0.4400024
		L94.0307388,33.04002l-0.0200195-0.0100098l-0.539978-0.3099976l-0.9199829-0.5300293l-0.4000244-0.2299786l-0.2600098-0.1599731
		l-0.1699829-0.0900269l-0.0900269-0.0499878v-0.0100098l-0.039978-0.0299683l-3.7800293-2.1800537l-1.8099976-1.039978
		l-0.0899658-0.0599976l-0.7999878-0.460022l-1.3699951-0.789978l-1.5200195-0.8800049l-0.2000122-0.1099854l-0.6699829-0.3900146
		l-2.2999878-1.3099976l-1.0400391-0.6099854l-3.789978-2.1900024l-2.8499756-1.6400146l-1.3400269-0.7700195l-3.9500122-2.2799683
		l-2.5999718-1.500001l-6.4899902-3.75l-1.0599976-0.6199951l-1.4400024,0.8300171l-0.6000366,0.3499756l-2.6099854,1.5100098
		l-2.8599854,1.6499634l-0.2700195,0.1600342l-0.1900024,0.1099854l-5.7199707,3.2999887l-0.0500488,0.0300293h-0.0099487
		l-0.0200195,0.0100098l-0.8400269,0.4799805l-0.539978,0.3099976l-0.6900024,0.4099731l-2.2800293,1.3000488l-0.1899414,0.1099854
		l-0.3300171,0.1900024l-1.1000366,0.6499634l-0.4400024,0.2600098l-0.3799438,0.2200317l-0.7800293,0.4500122l-1.6599731,0.9499512
		l-0.1700439,0.0900269l-1.579958,0.9199829l-3.2300415,1.8599854l-0.5700073,0.3300171c0,0,0,0-0.0099487,0l-0.25,0.1400146
		l-0.4500122,0.2600098l-0.4200439,0.2399902l-1.0099487,0.5900269l-0.9800415,0.5699463l-2.0700073,1.1900024l-0.1499634,0.0900269
		l-0.3900146,0.2299805l-0.4299927,0.25l-2.2700195,1.3099957l-1.75,1.0100098l-0.5799561,0.3300171l-0.25,0.1400146h-0.0100098
		l-0.7700195,0.4599609l-3.8599854,2.2300415l-1.7999878,1.0299683v53.1400185l0.0299683,0.0200195l0.0800171,0.039978
		l0.0899658,0.0499878l0.8300171,0.4799805l0.7700195,0.4400024l1.8099976,1.0500488l3.2999878,1.8999634l0.0200195,0.0100098
		l0.2600098,0.1500244c0.0099487,0.0099487,0.0199585,0.0099487,0.0199585,0.0099487l0.2900391,0.1700439l0.0199585,0.0100098
		l0.0400391,0.0199585l0.7199707,0.4299927l1.3300171,0.7700195l1.0199585,0.5900269l1.7400513,1.0099487l0.1199951,0.0700073
		c0.0100098,0,0.0100098,0,0.0199585,0.0100098l0.2000122,0.1199951l0.1300049,0.0700073l0.5,0.289978l0.210022,0.1200562h0.0100098
		l0.2099609,0.1199951l0.0100098,0.0099487l0.5,0.2900391l0.0900269,0.0499878l0.8200073,0.4700317l2.0899658,1.1999512
		l1.4400024,0.8400269l1.0700073,0.6199951l0.2999878,0.1699829c0.0100098,0.0100098,0.0200195,0.0100098,0.0200195,0.0100098
		l1.3900146,0.8099976l0.3699951,0.2200317l0.1499634,0.0799561l0.0499897,0.0300293l0.7900391,0.4500122l0.5100098,0.289978
		l0.039978,0.0300293l0.0800171,0.039978c0.0299683,0.0100098,0.0499878,0.0299683,0.0799561,0.0499878l0.3500366,0.2000122
		l0.0899658,0.0499878l0.2400513,0.1500244l0.2599487,0.1499634l0.1500244,0.0800171l0.0800171,0.0499878l0.3899536,0.2200317
		l0.3700562,0.2099609l1.2099609,0.710022h0.0100098l0.7600098,0.4400024c0.1499634,0.0800171,0.2799683,0.1599731,0.4199829,0.25
		l1.0499878,0.5999756l0.0300293,0.0200195l0.0899658,0.0599976l0.2200317,0.1199951l0.289978,0.1699829h0.0100098l0.5,0.2900391
		l0.1300049,0.0799561l0.4400024,0.25H40.60075l0.1400146,0.0900269h0.0099487l0.0900269,0.0499878l0.6099854,0.3500366
		l0.5100098,0.2999878l0.2800293,0.1599731l0.4599609,0.2700195l3.5,2.0299683l0.3300171,0.1900024l1.7399902,1l0.039978,0.0300293
		l1.1200562,0.6400146c0.0099487,0,0.0099487,0.0100098,0.0199585,0.0199585h0.0100098l0.3200073,0.1900024l0.5,0.2900391
		l0.1400146,0.0799561l0.1399536,0.0800171l0.0200195,0.0200195h0.0100098l0.0900269,0.0499878l0.9899902,0.5700073
		l0.1699829,0.0999756l0.4299927,0.25l0.1799927,0.1000366l0.0499878,0.0299683l0.1700439,0.1000366l0.9099731,0.5299683
		l0.0300293,0.0100098l0.8499756,0.4899902l1.2800293,0.7399902l0.1399536,0.0800171l0.4800415-0.2799683l0.3200073-0.1900024
		h0.0099487l0.5599976-0.3200073l1.8700562-1.0800171l0.5-0.289978l0.1799927-0.1000366l0.039978-0.0199585l0.3599854-0.210022
		l2.3599854-1.3599854l0.4000244-0.2300415l0.4299927-0.25l0.0100098-0.0100098l0.3900146-0.2199707l0.6300011-0.3699951
		l0.3499756-0.2000122l0.6300049-0.3599854l0.1099854-0.0700073l0.2800293-0.1500244l0.1799927-0.1099854l0.0499878-0.0299683
		l0.1400146-0.0800171l0.3499756-0.2000122l0.1500244-0.0899658l0.1900024-0.1100464l0.1400146-0.0799561l0.0199585-0.0100098
		l0.2700195-0.1500244l0.1300049-0.0800171l0.0100098-0.0099487l0.0199585-0.0100098l2.0500488-1.1900024l0.3299561-0.1900024
		l1.1199951-0.6500244l0.0599976-0.0299683l0.1400146-0.0800171l0.1099854-0.0599976l0.3700562-0.2200317h0.0099487
		l0.6100464-0.3499756l1.5999756-0.9199829l0.1199951-0.0700073l0.5700073-0.3300171l0.039978-0.0299683l0.4200439-0.2399902
		l0.4699707-0.2700195c0,0,0.0100098,0,0.0100098-0.0100098l0.25-0.1400146l0.3300171-0.1900024l0.1999512-0.1199951
		l0.6400146-0.3800049l0.0700073-0.039978h0.0100098l0.2399902-0.1400146l0.0300293-0.0200195l0.289978-0.1599731
		l0.0499878-0.0299683l0.0100098-0.0100098l0.2800293-0.1600342l0.4599609-0.2600098l0.1099854-0.0699463l0.4400024-0.25
		l0.0400391-0.0200195l0.0199585-0.0200195l0.1800537-0.0899658l0.4899902-0.2800293l0.289978-0.1699829v-0.0100098
		l0.0599976-0.039978l0.0499878-0.0200195l0.0499878-0.0300293l0.0300293-0.0099487l0.0800171-0.0500488l0.3299561-0.1900024
		l0.0599976-0.039978l0.0200195-0.0100098l0.0700073-0.039978l0.0499878-0.0300293l0.5700073-0.3200073
		c0-0.0099487,0-0.0099487,0-0.0099487l0.1300049-0.0700073l0.4000244-0.2300415l0.1599731-0.0899658l0.8699951-0.5200195
		l1.0700073-0.6199951l0.4700317-0.2700195h0.0099487l0.0200195-0.0199585l0.4500122-0.2600098l1.2299805-0.710022
		l0.0400391-0.0299683l1.0499878-0.6000366l0.8200073-0.4699707l0.5699463-0.3300171l0.6000366-0.3399658l1.8599854-1.0700073
		l0.0200195-0.0100098l0.0899658-0.0599976l0.1000366-0.0400391l0.0299683-0.0099487l0.1400146-0.0700073l0.0999756-0.0599976
		l0.0700073-0.0400391l0.4000244-0.2299805l0.1199951-0.0700073l0.0200195-0.0100098l0.4699707-0.2699585l0.7900391-0.460022
		l0.6899414-0.4000244l0.1600342-0.0899658l0.6799927-0.3900146l0.0200195-0.0100098l0.8699951-0.5l0.3599854-0.2099609
		l0.2000122-0.1200562l3-1.7299805l0.1400146-0.0800171l0.8800049-0.5099487l0.1299438-0.0700073l0.3300171-0.1900024
		l1.0900269-0.6199951l0.0100098-0.0100098V37.5900078L99.3607559,36.1000175z"/>
	<g id="Layer_2_5_">
		<g id="Layer_16_5_">
			<path class="st2" d="M99.9607315,36.4499931l-0.4799805-0.2799683l-0.6900024-0.4000244l-1.8400269-1.0499878
				l-0.1499634-0.0900269l-0.5300293-0.2999878l-0.7199707-0.4199829l-0.6799927-0.4000244l-0.0900269-0.0499878
				l-0.1099854-0.0599976l-0.4899902-0.2799683l-0.5100098-0.2900391l-0.9000244-0.5199585l-0.5100098-0.3000488
				l-0.2600098-0.1499615l-1.2599487-0.7200317l-0.9000244-0.5199585l-1.8499756-1.0599976l-2.4700317-1.4300537
				l-1.710022-0.9799805l-0.4399414-0.2600098l-0.2800293-0.1599731l-0.4500122-0.2600098l-0.0100098-0.0100098
				l-0.4799805-0.2799683l-0.0499878-0.0200195l-0.4199829-0.25l-0.2300415-0.1400146l-0.1799927-0.0999756l-0.8599854-0.4899902
				l-2.3699951-1.3699951l-1.3599854-0.7800293l-0.7400513-0.4299927l-1.2799683-0.7399902l-4.1199951-2.3699951
				l-2.2200317-1.2800293L67.730751,17.870039l-2.4200439-1.3900146l-0.1899414-0.1099854l-3.9300499-2.2700205
				l-0.6699829-0.3900146l-1.1099854-0.6400146l-0.3699951-0.2099609l-0.1600342-0.0900269l-0.039978-0.0199585
				l-0.6400146-0.3700562l-0.2399902-0.1399536l-0.2799683-0.1700439l-0.2300415-0.1300049l-1.0100098-0.5799561
				l-0.5299683-0.3099976l-0.4700317,0.2699585l-1.0599976,0.6100464l-2.039978,1.1799927l-0.9000244,0.5199585l-0.4299927,0.25
				l-0.75,0.4300537l-2.8299561,1.6299438l-1.4100342,0.8200083l-0.4699707,0.2700195l-0.1199951,0.0700073l-0.1800537,0.1099854
				l-0.1099854,0.0599976l-0.7000122,0.4100342l-0.7299805,0.4199829l-0.8399658,0.4799805l-0.2400513,0.1400146
				l-0.5599976,0.3200073l-0.3800049,0.2199707l-1.4400024,0.8300171l-1.9199829,1.1099854l-1.1400146,0.6600342
				l-0.6599731,0.3800049l-3.2200317,1.8599854l-0.4499512,0.2600098l-0.8500366,0.4899902l-0.5299702,0.3099976
				l-0.1000366,0.0499878c-0.0099487,0-0.0099487,0-0.0099487,0l-0.25,0.1500244l-0.4200439,0.25l-0.2999878,0.1699829
				l-0.2700195,0.1599731l-0.1799927,0.1000366l-0.0299683,0.0200195l-1.4400024,0.8299561l-0.0300293,0.0200195h-0.0100098
				l-0.1399536,0.0800171l-0.3400269,0.1900024l-0.8099976,0.4699707l-0.4899902,0.2800293l-0.0100098,0.0099487
				l-0.5800171,0.3400269l-0.4799805,0.2700195l-0.1500244,0.0899658l-0.1300049,0.0700073l-0.0099487,0.0100098
				l-0.0300293,0.0200195l-0.7600098,0.4400024l-0.1599731,0.0899658l-0.1300049,0.0800171l-1.0999756,0.6300049
				l-1.1000366,0.6300049h-0.0100098l-0.6699829,0.3800049l-1.710022,0.9899902l-1,0.5800152l-0.3299561,0.1900024
				l-2.6500244,1.5299683l-0.7199707,0.4199829l-3.5100098,2.0200195l-1.5400391,0.8900146v53.1199989l0.0700073,0.039978
				l0.1900024,0.1099854l1.1699829,0.6800537h0.0100098l0.3500366,0.2099609l0.75,0.4299927l0.1499634,0.0800171
				l3.5100098,2.0300293l0.4899902,0.2799683l0.3200073,0.1900024l0.6900024,0.3900146l4,2.3200073l0.460022,0.2600098
				l0.0599976,0.039978l1.2399902,0.710022l3.3800049,1.9499512l5.3800068,3.1000366l0.6900024,0.3999634l0.0700073,0.0400391
				l0.1499634,0.0799561l0.1100464,0.0700073l0.1799927,0.1000366l0.039978,0.0199585l1.9099731,1.1100464l0.8800049,0.5
				l1.3300171,0.7799683l0.8900146,0.5100098l0.1799927,0.0999756l0.3099976,0.1799927l0.1900024,0.1100464l0.4799805,0.2799683
				l3.5700073,2.0499878l0.0900269,0.0500488l0.4400024,0.2599487l0.6199951,0.3600464l0.7199707,0.4199829
				c0.0100098,0,0.0100098,0,0.0100098,0l0.5300293,0.2999878l1.5099487,0.8699951l3.1700439,1.8400269l4.4799805,2.5800171
				l0.7200317,0.4199829l0.3099976,0.1799927l0.2299805,0.1300049l0.0200195-0.0100098l0.1900024-0.1099854l0.1399536-0.0800171
				l0.0300293-0.0200195l0.3099976-0.1799927l0.0800171-0.0499878h0.0099487l1.7200317-0.9799805l0.0899658-0.0499878
				l0.6900024-0.4000244l0.5-0.289978l0.2400513-0.1400146l3.8499756-2.2200317l2.4500084-1.4099731l0.7399902-0.4299927
				l0.6599731-0.3800049l0.6700439-0.3900146l0.4400024-0.2600098l2.3299561-1.3399658l0.3900146-0.2200317h0.0100098
				l0.2299805-0.1400146l0.210022-0.1199951l0.6300049-0.3599854l0.7999878-0.4599609l1.2600098-0.7300415l0.4599609-0.2699585
				h0.0100098l0.460022-0.2700195l0.0100098-0.0100098l0.25-0.1400146l0.5299683-0.3099976l0.3699951-0.2099609l0.3500366-0.210022
				l0.5499878-0.3099976l0.210022-0.1300049l0.3200073-0.1799927l0.4299927-0.2399902l0.0199585-0.0100098l0.0500488-0.0300293
				l0.1299438-0.0799561l0.2400513-0.1300049l3.7799683-2.1799927l0.3800049-0.2200317l1.1099854-0.6500244l2.9700317-1.7099609
				l1.5599976-0.9000244l8.5299683-4.9199829h0.0100098l0.0599976-0.039978l2.6500244-1.5300293l0.8999634-0.5200195
				l0.9900513-0.5699463l0.039978-0.0200195V37.6100273L99.9607315,36.4499931z M100.1007462,89.6600189l-0.5200195,0.2999878
				l-0.3200073,0.1799927l-0.5799561,0.3400269l-4.2200317,2.4400024l-0.6099854,0.3499756l-2.7600098,1.5900269
				l-4.6699829,2.6900024l-3.1199951,1.7999878l-1.2800293,0.7399902l-0.7199707,0.4100342l-2.9299927,1.6899414
				l-0.0700073,0.0500488l-0.1600342,0.0899658l-0.1799927,0.1099854l-0.5700073,0.3200073l-0.8900146,0.5100098
				l-0.2199707,0.1300049l-0.0499878,0.0300293l-0.8099976,0.4699707l-0.0900269,0.0499878l-3.9099731,2.25l-0.0800171,0.0500488
				l-0.789978,0.4499512l-0.0800171,0.0500488l-0.9100342,0.5299683l-2.1499634,1.2399902l-1.539978,0.8900146l-1.6800537,0.9699707
				l-1.0999718,0.6300049l-2.9699707,1.7200317l-1.2300415,0.7099609l-0.0599976,0.0400391h-0.0200195l-0.75,0.4400024
				l-0.2799683,0.1499634l-1.8699951,1.0800171l-3.4500122-1.9899902l-1.2299805-0.710022l-0.6099854-0.3499756
				l-1.8100586-1.0499878l-0.7199707-0.4100342l-0.6900024-0.3999634l-5.2600098-3.0300293l-0.7699585-0.4500122
				l-0.0500488-0.0299683l-1.789978-1.0300293l-2.0599976-1.1799927l-0.9000244-0.5199585l-0.5799561-0.3400269l-0.25-0.1500244
				l-0.4300537-0.25l-0.2099609-0.1199951l-1.75-1.0100098l-0.3099976-0.1799927l-0.1900024-0.1099854l-1.5000019-0.8699951
				l-3.4199829-1.9699707l-3.5400391-2.0400391L24.020731,96.740036l-1.7600098-1.0100098l-3.4199829-1.9700317
				l-4.5999756-2.6599731l-0.3099976-0.1799927l-0.9000244-0.5100098l-0.3900146-0.2299805l-0.2299805-0.1300049
				l-0.210022-0.1199951l-0.4599609-0.2700195V38.6899834l3.9099731-2.2599487l1.0599976-0.6100464l0.0300293-0.0199585
				l1.4199829-0.8200073l0.1099854-0.0599976l0.3599854-0.210022l0.9299927-0.539978h0.0100098l0.0599976-0.0400391
				l0.5800171-0.3299561l0.1400146-0.0800171l2.1599731-1.25l0.0200195-0.0100098l0.2999878-0.1799927h0.0100098
				l1.3599854-0.7899761h0.0100098l0.2000122-0.1100464l1.4899902-0.8599854l0.0999756-0.0599976l1.25-0.7199707l0.4300537-0.25
				h0.0099487l0.7600098-0.4400024l0.460022-0.2700195h0.0100098l0.5999756-0.3499756l0.2399902-0.1400146l0.5499878-0.3099976
				l1.2900391-0.75l0.2999878-0.1699829c0.0100098-0.0100098,0.0100098-0.0100098,0.0200195-0.0100098l0.7799702-0.4500122
				l0.3500366-0.2000122l0.1999512-0.1199951l0.2900391-0.1699829l0.1699829-0.1000366l0.2700195-0.1499634l0.039978-0.0200195
				l0.4199829-0.2399902l0.0100098-0.0100098l2.8400269-1.6400146l0.0299683-0.0199585l3.2900391-1.9000244l0.289978-0.1699829
				l1.1500244-0.6600342l0.2199707-0.1300049l0.7200317-0.4099731l0.1900024-0.1099854l1.5999756-0.9200439l0.75-0.4400024
				l0.0700073-0.039978l0.0599976-0.039978l0.3300171-0.1900024l0.3800049-0.2200317l1.4399414-0.8299561l0.0600586-0.0300293
				l1.8699951-1.0800171L49.85075,16.699995l0.7299805-0.4299927l0.5499878-0.3099985l0.9200439-0.539978l0.0999756-0.0599976
				l1.8699951-1.0700073l0.1000366-0.0599976l1.3199463-0.7600098l0.4700317-0.2700195l0.5299683,0.3099976l0.6100464,0.3500366
				l0.1399536,0.0799561l0.4400024,0.25l0.8099976,0.4700317l0.1500244,0.0900269l0.710022,0.4099731l0.7799683,0.4500122
				l0.8200073,0.4699717l3.4999962,2.0200195l0.3099976,0.1799927l2.1799927,1.2600098l0.6000366,0.3499756l2.0499878,1.1799927
				l1.3699951,0.7900391l2.3599854,1.3599854l2.5,1.4400024l1.3699951,0.7999878l1.9100342,1.1000366l0.1599731,0.0899658
				l0.539978,0.3099976l0.5,0.2900391l0.0500488,0.0299683l0.3200073,0.1799927l0.0599976,0.0300293l0.0499878,0.0299683
				l0.4400024,0.2600098l0.3499756,0.2000122l0.3099976,0.1799927l0.7800293,0.4500122l0.0899658,0.0499878l0.0499878,0.0299683
				l1.9400024,1.1200562l1.9400024,1.1099854l0.1000366,0.0599976l1.6499634,0.9500122l0.6500244,0.380003l1.4699707,0.8399658
				l0.2400513,0.1400146l0.9699707,0.5599976l0.5700073,0.3300171l0.8400269,0.4799805l0.3499756,0.2000122l0.2000122,0.1199951
				l0.039978,0.0299683l0.7700195,0.4400024l0.1900024,0.1100464l0.539978,0.3099976l0.2800293,0.1599731l0.25,0.1500244
				l1.3399658,0.7699585l0.710022,0.4100342l0.6799927,0.3900146l1.6300049,0.9399414V89.6600189z"/>
		</g>
	</g>
</g>
<g>
	
		<rect x="68.3071594" y="110.5885086" transform="matrix(0.8643917 -0.5028189 0.5028189 0.8643917 -46.9237251 50.3523788)" class="st3" width="3.1624749" height="3.1628439"/>
	<path class="st4" d="M79.5899353,106.2358932c0.6678467,1.149559,1.336647,2.2985535,2.0051346,3.4477386
		c-0.1991577,0.1154251-0.396698,0.2328949-0.5973358,0.3457642c-0.4909744-0.8491516-0.9865875-1.6960297-1.4790192-2.5447693
		c-0.0219421-0.0384445-0.0452881-0.0756531-0.0700989-0.1124268c-0.0014114,0.0247192-0.0008545,0.0491486,0.0011597,0.0731506
		c0.1632538,1.0671082,0.3186417,2.1353683,0.4841766,3.2019958c-0.1386108,0.0874557-0.2829666,0.1650314-0.4232407,0.2496185
		c-0.8575516-0.6628036-1.711937-1.3304291-2.5681305-1.9953003c-0.0193176-0.0126648-0.0393982-0.0244522-0.0600739-0.0350494
		c0.2090759,0.3755569,0.4314041,0.7438278,0.6454468,1.1169205c0.2995071,0.5141449,0.5982361,1.0291595,0.8982468,1.5434341
		c-0.187439,0.1098938-0.3752975,0.2183151-0.5626068,0.3276978c-0.6689911-1.1493149-1.3376617-2.2988205-2.0058289-3.4481888
		l0.8596649-0.5000687c0.6631088,0.5236969,1.327446,1.0458221,1.9910583,1.5696487
		c0.1674194,0.1300735,0.3311691,0.2648468,0.50103,0.3917923c-0.1497574-1.0497742-0.292923-2.099968-0.446106-3.1490326
		C79.0366287,106.5539093,79.3144913,106.3969727,79.5899353,106.2358932z"/>
	<path class="st4" d="M81.3005295,106.5501328c0.4765015,0.8242874,0.9573364,1.6464844,1.4356155,2.4701614l-0.5870285,0.3414688
		c-0.4797363-0.8232498-0.9580231-1.6469269-1.4374466-2.4703674
		C80.9072189,106.7763672,81.1022034,106.6603851,81.3005295,106.5501328z"/>
	<path class="st4" d="M80.7411499,105.6229858c0.151825,0.0482483,0.2636414,0.2008514,0.2644577,0.3599854
		c0.002388,0.1787109-0.1310272,0.3403854-0.297905,0.3939285c-0.1693268,0.0617905-0.3802872-0.0066757-0.4661407-0.1696854
		c-0.1018448-0.1648102-0.0483551-0.3956451,0.1049194-0.5099869
		C80.455162,105.6096802,80.6077271,105.5755615,80.7411499,105.6229858z"/>
	<path class="st4" d="M83.6724472,105.2625656c0.1062469,0.1899872,0.2190552,0.3765793,0.3269501,0.5664597
		c-0.2751312-0.0349884-0.5709381,0.0133286-0.7954712,0.184906c-0.1823883,0.12957-0.3076782,0.3360214-0.3324585,0.5582733
		c-0.0357361,0.2789764,0.0790939,0.5548706,0.2416763,0.7756729c0.1262054,0.1736755,0.3099442,0.3134613,0.5246582,0.3524399
		c0.2260666,0.0460281,0.4625092-0.0287781,0.6489334-0.15728c0.1797943-0.1340332,0.3143845-0.321579,0.4037704-0.5259247
		c0.1055984,0.1771317,0.2069244,0.3571777,0.3130264,0.5344391c-0.1580505,0.2844086-0.4263763,0.4899979-0.7109451,0.6376114
		c-0.2918625,0.1497192-0.6365662,0.2064209-0.9573364,0.126709c-0.3473969-0.0851288-0.6463165-0.3209381-0.838913-0.6190186
		c-0.199646-0.3101959-0.3283768-0.6804276-0.2995911-1.0535126c0.0216293-0.3164368,0.1682434-0.6168137,0.3863907-0.8448486
		c0.2380905-0.2473221,0.5476456-0.4231186,0.8796387-0.5082703
		C83.5314102,105.2724838,83.6013336,105.2621078,83.6724472,105.2625656z"/>
	<path class="st4" d="M85.4972153,104.095253c0.1139908,0.1974335,0.2294464,0.3944397,0.3437576,0.5916824
		c-0.1606674-0.0076904-0.3247986,0.044693-0.4543839,0.1388474c-0.1567841,0.1163788-0.2146301,0.3228607-0.1976242,0.5105667
		c0.0161438,0.2001495,0.1050568,0.3852768,0.2094421,0.5537262l0.6874008,1.1817093l-0.5828781,0.3390656
		c-0.4795609-0.822937-0.9573898-1.6473083-1.4375839-2.4698639c0.1932068-0.1153793,0.3882751-0.2275696,0.5836563-0.3399429
		c0.0812149,0.1418152,0.1643372,0.2825165,0.2460556,0.4244614c-0.026268-0.1904221-0.0191956-0.3946838,0.0802917-0.5647964
		C85.081665,104.2678528,85.2844238,104.1388092,85.4972153,104.095253z"/>
	<path class="st4" d="M88.2888718,103.2548752c-0.2354813-0.1685791-0.531662-0.2514954-0.8201981-0.2214966
		c-0.3331223,0.0333176-0.6416779,0.19104-0.9043198,0.3924713c-0.2764359,0.2107315-0.4849854,0.5198212-0.5358887,0.8673706
		c-0.0492935,0.3128967,0.0252533,0.6339874,0.1664658,0.9141617c0.1616974,0.3322678,0.4114304,0.6397934,0.7532959,0.7968445
		c0.2932968,0.1366577,0.6366959,0.1481476,0.9424438,0.047966c0.2548523-0.0842361,0.4929123-0.22229,0.692627-0.4020538
		c0.2338943-0.2090302,0.3965988-0.5008392,0.4350052-0.8133774c0.0419388-0.298378-0.0272598-0.6029434-0.1584473-0.8710251
		C88.7251434,103.691597,88.5395813,103.434227,88.2888718,103.2548752z M88.3775558,104.7212753
		c0.0173798,0.1597366-0.0237427,0.3274765-0.1244812,0.454361c-0.1186066,0.1475143-0.2881165,0.2508087-0.4695587,0.3013077
		c-0.1848755,0.0512085-0.3885422,0.0143433-0.5487213-0.0900726c-0.2055664-0.1347656-0.3477097-0.3461151-0.4492493-0.5661545
		c-0.0925064-0.2001114-0.1400223-0.4336472-0.0716248-0.648407c0.047966-0.1589203,0.1629944-0.2898407,0.299614-0.379982
		c0.170929-0.1147995,0.3891373-0.1747284,0.592308-0.1196442c0.2145615,0.0548553,0.3808212,0.2188873,0.5036316,0.3962555
		C88.2383347,104.2662506,88.3533859,104.4831161,88.3775558,104.7212753z"/>
	<path class="st4" d="M90.7653961,102.977623c0.287941,0.1956711,0.4412613,0.5861664,0.330101,0.9218216
		c-0.0997086,0.331131-0.3815994,0.5706406-0.6774292,0.7282181c-0.2132797,0.1065674-0.4436417,0.1859436-0.6811905,0.2118912
		c-0.1102829-0.1910553-0.2229309-0.3803024-0.3316193-0.5722809c0.2259445,0.023056,0.4573288-0.0010147,0.67099-0.0804901
		c0.147995-0.0566406,0.2955551-0.1411972,0.3864441-0.2747269c0.0856628-0.1300583,0.0077362-0.3139038-0.1250305-0.3770752
		c-0.113884-0.0417175-0.23806-0.0292282-0.3562622-0.0189362c-0.2198639,0.0233383-0.4411011,0.0641174-0.6624146,0.0358047
		c-0.1562347-0.021347-0.306366-0.0923538-0.4157867-0.2070847c-0.1617661-0.1687851-0.2756882-0.3991165-0.2615128-0.6373825
		c0.0141144-0.275795,0.1712189-0.5280685,0.3781509-0.7034912c0.2452545-0.2071075,0.5521851-0.3382797,0.868042-0.3909988
		c0.1058655,0.1812439,0.2108994,0.3625488,0.3162537,0.543663c-0.2531357-0.0191879-0.5127411,0.0422058-0.727478,0.1777878
		c-0.1082382,0.068512-0.2024612,0.1860504-0.1918106,0.3202591c0.0202866,0.127327,0.1274185,0.2476578,0.261795,0.2527084
		c0.2325058,0.0145416,0.4605789-0.0541077,0.6924667-0.0545731
		C90.4206009,102.8500137,90.6116714,102.873291,90.7653961,102.977623z"/>
	<path class="st4" d="M93.0655441,100.5718689c-0.233696-0.1926651-0.5391159-0.2987976-0.8420563-0.2796249
		c-0.3486404,0.0205841-0.6732635,0.1829529-0.9472046,0.3913803c-0.2200623,0.1689835-0.4012985,0.3951797-0.4903107,0.6603394
		c-0.1105042,0.3199158-0.0773773,0.6761856,0.0514832,0.9857407c0.1307678,0.3084412,0.319046,0.6034927,0.5924301,0.8042221
		c0.2656326,0.19841,0.6118927,0.2837753,0.9394836,0.2336121c0.3236618-0.0495758,0.6230621-0.2083664,0.8738632-0.4140091
		c0.2562027-0.2117691,0.4377441-0.5166702,0.4797592-0.8479538c0.0493546-0.345787-0.0480347-0.6988297-0.2221527-0.9974136
		C93.3888779,100.9061356,93.2457123,100.7179947,93.0655441,100.5718689z M93.0196686,101.7196503
		c0.0530396,0.1432648,0.0835724,0.2991943,0.0578461,0.4515839c-0.0254974,0.1535263-0.1166306,0.2910385-0.2371979,0.3867722
		c-0.1291428,0.1037216-0.283989,0.1801376-0.4495239,0.2000351c-0.1782227,0.0230179-0.3608322-0.0363388-0.5015945-0.1447906
		c-0.1686401-0.1285095-0.2919235-0.3081665-0.3834305-0.497757c-0.088623-0.1831665-0.1436844-0.3922577-0.1070023-0.5962524
		c0.0315399-0.1886215,0.1528473-0.3535004,0.3110428-0.457901c0.1602249-0.1089859,0.3609085-0.1740952,0.5547562-0.1357803
		c0.1757431,0.029213,0.326622,0.1381836,0.4428406,0.2690201
		C92.8422928,101.3487015,92.9465866,101.5287247,93.0196686,101.7196503z"/>
	<path class="st5" d="M73.4732971,108.2550659c0.5301132,0.9113083,1.0602264,1.8226242,1.5900192,2.7341156
		c-0.9111786,0.5296097-1.8223114,1.0600433-2.7336197,1.5901566c-0.530426-0.9111252-1.0602264-1.8226242-1.5903397-2.7339401
		L73.4732971,108.2550659z"/>
	<path class="st1" d="M95.5653152,98.8885727c0.1615829,0.2755814,0.3210754,0.5519562,0.4820251,0.8279037
		c0.0922165,0.1511993,0.1701431,0.3115692,0.2766571,0.453598c0.0629654,0.0832977,0.1536789,0.1636734,0.2649384,0.1612625
		c0.1869354-0.0029068,0.3461075-0.1415863,0.4251175-0.3036194l0.281929,0.4846649
		c-0.126152,0.1719666-0.3019333,0.3040924-0.4922485,0.3973007c-0.1808777,0.08815-0.3971252,0.1294479-0.5904465,0.0575409
		c-0.2214355-0.0798721-0.3780289-0.2713013-0.4953918-0.4671936c-0.2479172-0.4225235-0.4925156-0.8474045-0.739975-1.2706223
		c-0.2885742,0.1678619-0.5770111,0.3352203-0.8652115,0.5037231c0.3864136,0.6650162,0.773468,1.3296661,1.160202,1.9944916
		l-0.5914993,0.3440704c-0.3867264-0.6648254-0.7739182-1.3289719-1.1595078-1.9940338
		c-0.1384583,0.0766983-0.2738495,0.1601486-0.4126282,0.2370377c-0.0911789-0.1582031-0.1823578-0.3164139-0.2759476-0.4736481
		c0.134613-0.0825729,0.2720184-0.1603622,0.4093628-0.2389832c-0.1118393-0.215744-0.2698059-0.4132004-0.325882-0.6541367
		c-0.0542831-0.2150879-0.0333099-0.4504852,0.06884-0.6490326c0.1563797-0.3107452,0.4732208-0.5151138,0.8027725-0.6022568
		c0.1006775,0.1671982,0.1967468,0.3374939,0.2960129,0.5059357c-0.1695633,0.0188293-0.3508072,0.0726166-0.4590759,0.2136993
		c-0.086586,0.1101151-0.0864029,0.2644958-0.0366135,0.3904419c0.0639572,0.1591034,0.1644287,0.2995377,0.2462921,0.4490738
		c0.2889404-0.1672211,0.5770111-0.3352203,0.8652649-0.5028992c-0.1066513-0.1884689-0.2199936-0.3730469-0.3240891-0.5629959
		c0.1634598-0.1701965,0.3209686-0.3454666,0.4816666-0.5174713c0.1452942,0.245369,0.2847137,0.4945831,0.4327393,0.7387848
		c0.193161-0.1161957,0.3896027-0.2274857,0.5843735-0.3416367l0.2793427,0.4802094
		C95.9539108,98.6556931,95.761467,98.775322,95.5653152,98.8885727z"/>
	<path class="st6" d="M72.2128601,113.0211487c0.530426,0.9111252,1.0600357,1.8223038,1.5901489,2.7336121l-2.7336197,1.5901566
		l-1.590332-2.7339401C70.3902283,114.0813751,71.301178,113.550621,72.2128601,113.0211487z"/>
	<path class="st7" d="M75.2259293,111.2680054l1.5903397,2.7339325l-2.7339325,1.5903397
		c-0.5301132-0.9113083-1.0605469-1.8224335-1.5901566-2.7336121
		C73.4033051,112.3282318,74.314621,111.7981186,75.2259293,111.2680054z"/>
</g>
<g>
	<path class="st3" d="M27.6933155,36.2513313H54.065731c-0.0015869,8.7908058,0,17.5816078-0.0015869,26.3724136
		c-8.7892189,0-17.5800247,0-26.3708286,0V36.2513313L27.6933155,36.2513313z"/>
	<path class="st5" d="M56.7584076,36.2513313h26.3724136c0,8.7908058,0.0015869,17.5816078-0.0015793,26.3724136
		c-8.7892227-0.0015831-17.5800247,0-26.3692474,0C56.7568321,53.8329391,56.7584076,45.0421371,56.7584076,36.2513313
		L56.7584076,36.2513313z"/>
	<path class="st6" d="M27.6933155,65.3148422c8.7908039,0.0031662,17.5816097-0.0015869,26.3724155,0.0031662
		c0.0015755,8.7908096,0,17.5800247,0,26.3708344H27.6933155V65.3148422L27.6933155,65.3148422z"/>
	<path class="st7" d="M56.7599945,65.3180084c8.7892227-0.0031662,17.5800247-0.0015869,26.3708267-0.0015869
		c0,8.790802,0,17.5816116,0,26.3724213H56.7584076C56.7599945,82.8980331,56.7568321,74.1072235,56.7599945,65.3180084
		L56.7599945,65.3180084z"/>
</g>
</svg>
