<svg enable-background="new 0 0 110.9073334 127.9528961" viewBox="0 0 110.9073334 127.9528961" xmlns="http://www.w3.org/2000/svg" xmlns:xlink="http://www.w3.org/1999/xlink"><linearGradient id="a" gradientTransform="matrix(111 0 0 -96 40144.421875 34589.578125)" gradientUnits="userSpaceOnUse" x1="-361.402679" x2="-360.9422" y1="359.881531" y2="359.421051"><stop offset="0" stop-color="#a5edfa"/><stop offset="1" stop-color="#4fadff"/></linearGradient><path d="m110.8008041 31.8738976v64.0000038l-55.4199791 32-44.3499755-25.5999756-.2000123-.1199951-10.8800049-6.2800293v-64.0000038l55.4299927-31.9999993z" fill="#29a9ff"/><path d="m99.3243103 36.00383-.25-.1400146-1.9400024-1.1199951-.4400024-.25-.7800293-.4400024-1.9199829-1.1099854-.0200195-.0100098-.539978-.3099976-.9199829-.5300293-.4000244-.2299786-.2600098-.1599731-.1699829-.0900269-.0900269-.0499878v-.0100098l-.039978-.0299683-3.7800293-2.1800537-1.8099976-1.039978-.0899658-.0599976-.7999878-.460022-1.3699951-.789978-1.5200195-.8800049-.2000122-.1099854-.6699829-.3900146-2.2999878-1.3099976-1.0400391-.6099854-3.789978-2.1900024-2.8499756-1.6400146-1.3400269-.7700195-3.9500122-2.2799683-2.5999756-1.500001-6.4899902-3.75-1.0599976-.6199951-1.4400024.8300171-.6000366.3499756-2.6099854 1.5100098-2.8599854 1.6499634-.2700195.1600342-.1900024.1099854-5.7199707 3.2999887-.0500488.0300293h-.0099487l-.0200195.0100098-.8400269.4799805-.539978.3099976-.6900024.4099731-2.2800293 1.3000488-.1899414.1099854-.3300171.1900024-1.1000366.6499634-.4400024.2600098-.3799438.2200317-.7800293.4500122-1.6599731.9499512-.1700439.0900269-1.5799561.9199829-3.2300415 1.8599854-.5700073.3300171s0 0-.0099487 0l-.25.1400146-.4500122.2600098-.4200439.2399902-1.0099487.5900269-.9800415.5699463-2.0700073 1.1900024-.1499634.0900269-.3900146.2299805-.4299927.25-2.2700195 1.3099957-1.75 1.0100098-.5799561.3300171-.25.1400146h-.0100098l-.7700195.4599609-3.8599854 2.2300415-1.7999878 1.0299683v53.1400146l.0299683.0200195.0800171.039978.0899658.0499878.8300171.4799805.7700195.4400024 1.8099976 1.0500488 3.2999878 1.8999634.0200195.0100098.2600098.1500244c.0099487.0099487.0199585.0099487.0199585.0099487l.2900391.1700439.0199585.0100098.0400391.0199585.7199707.4299927 1.3300171.7700195 1.0199585.5900269 1.7400513 1.0099487.1199951.0700073c.0100098 0 .0100098 0 .0199585.0100098l.2000122.1199951.1300049.0700073.5.289978.210022.1200562h.0100098l.2099609.1199951.0100098.0099487.5.2900391.0900269.0499878.8200073.4700317 2.0899658 1.1999512 1.4400024.8400269 1.0700073.6199951.2999878.1699829c.0100098.0100098.0200195.0100098.0200195.0100098l1.3900146.8099976.3699951.2200317.1499634.0799561.0499878.0300293.7900391.4500122.5100098.289978.039978.0300293.0800171.039978c.0299683.0100098.0499878.0299683.0799561.0499878l.3500366.2000122.0899658.0499878.2400513.1500244.2599487.1499634.1500244.0800171.0800171.0499878.3899536.2200317.3700562.2099609 1.2099609.710022h.0100098l.7600098.4400024c.1499634.0800171.2799683.1599731.4199829.25l1.0499878.5999756.0300293.0200195.0899658.0599976.2200317.1199951.289978.1699829h.0100098l.5.2900391.1300049.0799561.4400024.25h.0100098l.1400146.0900269h.0099487l.0900269.0499878.6099854.3500366.5100098.2999878.2800293.1599731.4599609.2700195 3.5 2.0299683.3300171.1900024 1.7399902 1 .039978.0300293 1.1200562.6400146c.0099487 0 .0099487.0100098.0199585.0199585h.0100098l.3200073.1900024.5.2900391.1400146.0799561.1399536.0800171.0200195.0200195h.0100098l.0900269.0499878.9899902.5700073.1699829.0999756.4299927.25.1799927.1000366.0499878.0299683.1700439.1000366.9099731.5299683.0300293.0100098.8499756.4899902 1.2800293.7399902.1399536.0800171.4800415-.2799683.3200073-.1900024h.0099487l.5599976-.3200073 1.8700562-1.0800171.5-.289978.1799927-.1000366.039978-.0199585.3599854-.210022 2.3599854-1.3599854.4000244-.2300415.4299927-.25.0100098-.0100098.3900146-.2199707.6300049-.3699951.3499756-.2000122.6300049-.3599854.1099854-.0700073.2800293-.1500244.1799927-.1099854.0499878-.0299683.1400146-.0800171.3499756-.2000122.1500244-.0899658.1900024-.1100464.1400146-.0799561.0199585-.0100098.2700195-.1500244.1300049-.0800171.0100098-.0099487.0199585-.0100098 2.0500488-1.1900024.3299561-.1900024 1.1199951-.6500244.0599976-.0299683.1400146-.0800171.1099854-.0599976.3700562-.2200317h.0099487l.6100464-.3499756 1.5999756-.9199829.1199951-.0700073.5700073-.3300171.039978-.0299683.4200439-.2399902.4699707-.2700195s.0100098 0 .0100098-.0100098l.25-.1400146.3300171-.1900024.1999512-.1199951.6400146-.3800049.0700073-.039978h.0100098l.2399902-.1400146.0300293-.0200195.289978-.1599731.0499878-.0299683.0100098-.0100098.2800293-.1600342.4599609-.2600098.1099854-.0699463.4400024-.25.0400391-.0200195.0199585-.0200195.1800537-.0899658.4899902-.2800293.289978-.1699829v-.0100098l.0599976-.039978.0499878-.0200195.0499878-.0300293.0300293-.0099487.0800171-.0500488.3299561-.1900024.0599976-.039978.0200195-.0100098.0700073-.039978.0499878-.0300293.5700073-.3200073c0-.0099487 0-.0099487 0-.0099487l.1300049-.0700073.4000244-.2300415.1599731-.0899658.8699951-.5200195 1.0700073-.6199951.4700317-.2700195h.0099487l.0200195-.0199585.4500122-.2600098 1.2299805-.710022.0400391-.0299683 1.0499878-.6000366.8200073-.4699707.5699463-.3300171.6000366-.3399658 1.8599854-1.0700073.0200195-.0100098.0899658-.0599976.1000366-.0400391.0299683-.0099487.1400146-.0700073.0999756-.0599976.0700073-.0400391.4000244-.2299805.1199951-.0700073.0200195-.0100098.4699707-.2699585.7900391-.460022.6899414-.4000244.1600342-.0899658.6799927-.3900146.0200195-.0100098.8699951-.5.3599854-.2099609.2000122-.1200562 3-1.7299805.1400146-.0800171.8800049-.5099487.1299438-.0700073.3300171-.1900024 1.0900269-.6199951.0100098-.0100098v-53.1400149z" fill="#fff"/><path d="m99.9242859 36.3538055-.4799805-.2799683-.6900024-.4000244-1.8400269-1.0499878-.1499634-.0900269-.5300293-.2999878-.7199707-.4199829-.6799927-.4000244-.0900269-.0499878-.1099854-.0599976-.4899902-.2799683-.5100098-.2900391-.9000244-.5199585-.5100098-.3000469-.2600098-.1499634-1.2599487-.7200317-.9000244-.5199585-1.8499756-1.0599976-2.4700317-1.4300537-1.710022-.9799805-.4399414-.2600098-.2800293-.1599731-.4500122-.2600098-.0100098-.0100098-.4799805-.2799683-.0499878-.0200195-.4199829-.25-.2300415-.1400146-.1799927-.0999756-.8599854-.4899902-2.3699951-1.3699951-1.3599854-.7800293-.7400513-.4299927-1.2799683-.7399902-4.1199951-2.3699951-2.2200317-1.2800293-.5899658-.3399658-2.4200439-1.3900146-.1899414-.1099854-3.9300537-2.2700205-.6699829-.3900146-1.1099854-.6400146-.3699951-.2099609-.1600342-.0900269-.039978-.0199585-.6400146-.3700562-.2399902-.1399536-.2799683-.1700439-.2300415-.1300049-1.0100098-.5799561-.5299683-.3099976-.4700317.2699585-1.0599976.6100464-2.039978 1.1799927-.9000244.5199585-.4299927.25-.75.4300537-2.8299561 1.6299438-1.4100342.8200083-.4699707.2700195-.1199951.0700073-.1800537.1099854-.1099854.0599976-.7000122.4100342-.7299805.4199829-.8399658.4799805-.2400513.1400146-.5599976.3200073-.3800049.2199707-1.4400024.8300171-1.9199829 1.1099854-1.1400146.6600342-.6599731.3800049-3.2200317 1.8599854-.4499512.2600098-.8500366.4899902-.5299683.3099976-.1000366.0499878c-.0099487 0-.0099487 0-.0099487 0l-.25.1500244-.4200439.25-.2999878.1699829-.2700195.1599731-.1799927.1000366-.0299683.0200195-1.4400024.8299561-.0300293.0200195h-.0100098l-.1399536.0800171-.3400269.1900024-.8099976.4699707-.4899902.2800293-.0100098.0099487-.5800171.3400269-.4799805.2700195-.1500244.0899658-.1300049.0700073-.0099487.0100098-.0300293.0200195-.7600098.4400024-.1599731.0899658-.1300049.0800171-1.0999756.6300049-1.1000366.6300049h-.0100098l-.6699829.3800049-1.710022.9899902-1 .5800152-.3299561.1900024-2.6500244 1.5299683-.7199707.4199829-3.5100098 2.0200195-1.5400391.8900146v53.1199951l.0700073.039978.1900024.1099854 1.1699829.6800537h.0100098l.3500366.2099609.75.4299927.1499634.0800171 3.5100098 2.0300293.4899902.2799683.3200073.1900024.6900024.3900146 4 2.3200073.460022.2600098.0599976.039978 1.2399902.710022 3.3800049 1.9499512 5.3800049 3.1000366.6900024.3999634.0700073.0400391.1499634.0799561.1100464.0700073.1799927.1000366.039978.0199585 1.9099731 1.1100464.8800049.5 1.3300171.7799683.8900146.5100098.1799927.0999756.3099976.1799927.1900024.1100464.4799805.2799683 3.5700073 2.0499878.0900269.0500488.4400024.2599487.6199951.3600464.7199707.4199829h.0100098l.5300293.2999878 1.5099487.8699951 3.1700439 1.8400269 4.4799805 2.5800171.7200317.4199829.3099976.1799927.2299805.1300049.0200195-.0100098.1900024-.1099854.1399536-.0800171.0300293-.0200195.3099976-.1799927.0800171-.0499878h.0099487l1.7200317-.9799805.0899658-.0499878.6900024-.4000244.5-.289978.2400513-.1400146 3.8499756-2.2200317 2.4500122-1.4099731.7399902-.4299927.6599731-.3800049.6700439-.3900146.4400024-.2600098 2.3299561-1.3399658.3900146-.2200317h.0100098l.2299805-.1400146.210022-.1199951.6300049-.3599854.7999878-.4599609 1.2600098-.7300415.4599609-.2699585h.0100098l.460022-.2700195.0100098-.0100098.25-.1400146.5299683-.3099976.3699951-.2099609.3500366-.210022.5499878-.3099976.210022-.1300049.3200073-.1799927.4299927-.2399902.0199585-.0100098.0500488-.0300293.1299438-.0799561.2400513-.1300049 3.7799683-2.1799927.3800049-.2200317 1.1099854-.6500244 2.9700317-1.7099609 1.5599976-.9000244 8.5299683-4.9199829h.0100098l.0599976-.039978 2.6500244-1.5300293.8999634-.5200195.9900513-.5699463.039978-.0200195v-53.1199952zm.1400146 53.210022-.5200195.2999878-.3200073.1799927-.5799561.3400269-4.2200317 2.4400024-.6099854.3499756-2.7600098 1.5900269-4.6699829 2.6900024-3.1199951 1.7999878-1.2800293.7399902-.7199707.4100342-2.9299927 1.6899414-.0700073.0500488-.1600342.0899658-.1799927.1099854-.5700073.3200073-.8900146.5100098-.2199707.1300049-.0499878.0300293-.8099976.4699707-.0900269.0499878-3.9099731 2.25-.0800171.0500488-.789978.4499512-.0800171.0500488-.9100342.5299683-2.1499634 1.2399902-1.539978.8900146-1.6800537.9699707-1.0999756.6300049-2.9699707 1.7200317-1.2300415.7099609-.0599976.0400391h-.0200195l-.75.4400024-.2799683.1499634-1.8699951 1.0800171-3.4500122-1.9899902-1.2299805-.710022-.6099854-.3499756-1.8100586-1.0499878-.7199707-.4100342-.6900024-.3999634-5.2600098-3.0300293-.7699585-.4500122-.0500488-.0299683-1.789978-1.0300293-2.0599976-1.1799927-.9000244-.5199585-.5799561-.3400269-.25-.1500244-.4300537-.25-.2099609-.1199951-1.75-1.0100098-.3099976-.1799927-.1900024-.1099854-1.5-.8699951-3.4199829-1.9699707-3.5400391-2.0400391-.3699951-.2199707-1.7600098-1.0100098-3.4199829-1.9700317-4.5999754-2.6599728-.3099976-.1799927-.9000244-.5100098-.3900146-.2299805-.2299805-.1300049-.210022-.1199951-.4599609-.2700195v-50.9700317l3.9099731-2.2599487 1.0599976-.6100464.0300293-.0199585 1.4199829-.8200073.1099854-.0599976.3599854-.210022.9299927-.539978h.0100098l.0599976-.0400391.5800171-.3299561.1400146-.0800171 2.1599731-1.25.0200195-.0100098.2999878-.1799927h.0100098l1.3599854-.7899761h.0100098l.2000122-.1100464 1.4899902-.8599854.0999756-.0599976 1.25-.7199707.4300537-.25h.0099487l.7600098-.4400024.460022-.2700195h.0100098l.5999756-.3499756.2399902-.1400146.5499878-.3099976 1.2900391-.75.2999878-.1699829c.0100098-.0100098.0100098-.0100098.0200195-.0100098l.7799683-.4500122.3500366-.2000122.1999512-.1199951.2900391-.1699829.1699829-.1000366.2700195-.1499634.039978-.0200195.4199829-.2399902.0100098-.0100098 2.8400269-1.6400146.0299683-.0199585 3.2900391-1.9000244.289978-.1699829 1.1500244-.6600342.2199707-.1300049.7200317-.4099731.1900024-.1099854 1.5999756-.9200439.75-.4400024.0700073-.039978.0599976-.039978.3300171-.1900024.3800049-.2200317 1.4399414-.8299561.0600586-.0300293 1.8699951-1.0800171.1099854-.0599976.7299805-.4299927.5499878-.3099985.9200439-.539978.0999756-.0599976 1.8699951-1.0700073.1000366-.0599976 1.3199463-.7600098.4700317-.2700195.5299683.3099976.6100464.3500366.1399536.0799561.4400024.25.8099976.4700317.1500244.0900269.710022.4099731.7799683.4500122.8200073.4699707 3.5 2.0200205.3099976.1799927 2.1799927 1.2600098.6000366.3499756 2.0499878 1.1799927 1.3699951.7900391 2.3599854 1.3599854 2.5 1.4400024 1.3699951.7999878 1.9100342 1.1000366.1599731.0899658.539978.3099976.5.2900391.0500488.0299683.3200073.1799927.0599976.0300293.0499878.0299683.4400024.2600098.3499756.2000122.3099976.1799927.7800293.4500122.0899658.0499878.0499878.0299683 1.9400024 1.1200562 1.9400024 1.1099854.1000366.0599976 1.6499634.9500122.6500244.380003 1.4699707.8399658.2400513.1400146.9699707.5599976.5700073.3300171.8400269.4799805.3499756.2000122.2000122.1199951.039978.0299683.7700195.4400024.1900024.1100464.539978.3099976.2800293.1599731.25.1500244 1.3399658.7699585.710022.4100342.6799927.3900146 1.6300049.9399414v50.9700312z" opacity=".13"/><g clip-rule="evenodd" fill-rule="evenodd"><path d="m87.0035172 68.5298004v17.0351334 5.3572769c0 .6253433-.5069427 1.1322937-1.1322937 1.1322937h-31.5736199c-.625351 0-1.1322937-.5069504-1.1322937-1.1322937v-5.3572769-41.3710327h-22.5588093v16.2239304h16.5924816c.625351 0 1.1322975.5069466 1.1322975 1.1322975v4.2249794c0 .625351-.5069466 1.1322937-1.1322975 1.1322937h-21.9055595c-.625349 0-1.1322956-.5069427-1.1322956-1.1322937v-2.9236832-18.6575241-5.3572807c0-.6253471.5069466-1.1322937 1.1322956-1.1322937h33.1849632c.625351 0 1.1322975.5069466 1.1322975 1.1322937v5.3572807 41.3710327h20.9474678v-16.223938h-16.5924873c-.6253471 0-1.1322937-.5069504-1.1322937-1.1322937v-4.2249832c0-.625351.5069466-1.1322937 1.1322937-1.1322937h21.9055595c.625351 0 1.1322937.5069427 1.1322937 1.1322937v4.5460815z" fill="url(#a)"/><path d="m76.9162216 113.5834274-.5282974.4703064-1.0071411-.4580765-.0126572.0072098c-.2741852.1562729-.5401154.2387619-.797821.2474594-.2576981.0086975-.5065155-.0454712-.7464676-.1625061-.2399445-.1170349-.4669266-.2922211-.6809464-.5255508s-.4132309-.5117569-.5976334-.8352966c-.1795425-.3150177-.3112335-.6220551-.3950653-.9211273-.0838394-.2990723-.114357-.5805893-.091568-.8445587.0227966-.2639618.1040421-.5062561.2437515-.7268829.1397018-.2206192.3445358-.4078674.614502-.5617294.2699661-.1538696.5344009-.2340851.7933121-.2406616.2589111-.0065689.5071259.0465317.7446518.159317.2375183.1127777.4635773.2814331.6781769.5059738.2145996.2245483.4104538.4921951.5875778.8029556.2668915.4682693.4339294.8961639.5011139 1.2836838.0671921.3875198.0251923.7427979-.1259995 1.0658417l-.4481125.331543zm-1.7574463-.3772888c.1687317-.0961685.2998276-.2117767.3933029-.3468323.0934677-.1350479.1440201-.2963943.1516342-.4840317.0076218-.1876373-.0295105-.4047623-.1113892-.6513672-.0818787-.2466125-.2137985-.5295486-.3957748-.8488312l-.1018982-.1787872c-.3227005-.566185-.6396713-.9213104-.9509125-1.0653915-.3112488-.1440811-.6398163-.1175461-.9857025.0795975-.3458939.1971436-.5326767.4699707-.5603638.8185043-.0276871.3485413.1198196.8058853.4425201 1.3720703l.098259.1724091c.1819763.3192825.3575821.5759125.5268326.7699051.1692429.1939926.3369751.3338547.5031967.4195862.1662292.0857391.3306503.1217422.4932709.108017.1626206-.013733.3282929-.0686799.4970246-.1648484zm2.4219513-5.3988113.4871979-.2776871 1.8997879 3.3332367-.2783966.1586761-.4217911-.284111-.0891495.4907227c-.0522995.0749283-.123291.1562805-.2129745.2440491-.0896835.0877762-.2041245.1713333-.3433228.2506714-.261528.1490555-.520195.1879196-.7760086.1165848s-.4904709-.2943039-.7039871-.6689224l-1.3393173-2.3498611.4871979-.2776871 1.382988 2.4264908c.1285934.2256241.2646103.3539581.4080429.3850021.1434402.031044.2910767.0032959.4429321-.0832596.1729507-.0985641.3034668-.2053833.391571-.3204575.0880966-.1150742.1636124-.2497559.2265472-.404068zm4.52594 1.9548797c-.3965149.2259979-.7977905.257309-1.2038498.093956-.4060669-.1633606-.7704391-.5281219-1.0931396-1.0943069-.1625595-.2852173-.2740707-.5544128-.3345413-.8075867-.0604706-.2531662-.0756149-.4856415-.045433-.6974182.0301895-.2117844.1041946-.4005966.222023-.566452.117836-.1658554.2737656-.3040848.467804-.4146729.1940384-.1105957.3913727-.1737213.5920181-.1893768.2006378-.0156555.399147.0164261.5955353.0962524s.3864212.2097931.5701141.3899155c.1836929.1801147.3556061.4106522.5157394.6916199.3275528.5746994.4608536 1.0782089.39991 1.5105591-.0609514.4323501-.289673.7615203-.6861802.9875106zm-.2183686-.3831253c.1181107-.0673218.212326-.1520386.2826538-.2541656.0703278-.1021194.1101227-.2234955.1193848-.3641357.0092621-.1406326-.0144424-.3047791-.071106-.4924393-.0566559-.1876602-.1541367-.4028168-.2924423-.645462l-.0509491-.0894012c-.1455765-.2554169-.2842102-.4569855-.4159088-.6047058-.131691-.1477127-.2587357-.2529602-.381134-.3157349-.122406-.0627747-.2436371-.086731-.3637009-.0718765-.1200714.0148544-.2433777.058342-.3699265.1304626-.1265411.0721283-.226799.1560593-.300766.2518005-.073967.0957336-.1167984.211792-.128479.3481674-.0116882.1363831.0112457.29673.0688019.4810638.0575638.1843338.1567001.3999481.2974243.6468506l.0545959.095787c.1407242.2469025.278595.4446793.4136124.5933228s.2659912.2558746.3929214.3217087c.1269379.0658264.2533112.0939026.3791275.0842361.1258165-.009674.24778-.0481643.3658906-.1154785zm1.175644-4.6292648c.0565186-.0773315.1166763-.1482773.1804733-.2128372.0637894-.0645599.1378708-.1208801.2222366-.1689606.1012344-.0577011.1931686-.0974121.275795-.1191254s.1489868-.0327454.1990814-.0330963l.1634903.5074615c-.0778275.0105209-.1547318.027565-.2307205.0511322-.0759811.0235672-.1667023.0654068-.2721558.1255035-.1349792.0769348-.238533.1697922-.3106537.2785797s-.1369629.2303391-.194519.3646622l1.521286 2.6691437-.4871979.2776794-1.8997955-3.3332291.2784042-.1586761.4436264.3224182zm3.2420806-1.9155121.4871979-.2776871 1.8997879 3.3332367-.2783966.1586761-.4217911-.284111-.0891495.4907227c-.0522995.0749283-.1232834.1562805-.2129745.2440491-.0896759.0877762-.2041245.1713333-.3433228.2506714-.261528.1490555-.520195.1879196-.7760086.1165848s-.4904709-.2943039-.7039871-.6689224l-1.3393173-2.3498688.4871979-.2776794 1.382988 2.4264908c.1286011.2256241.2646103.3539581.4080429.3850021.1434402.031044.2910843.0032959.4429398-.0832596.1729431-.0985718.3034668-.2053909.3915634-.3204575.0880966-.1150742.1636124-.2497559.2265549-.404068zm3.9955292-2.1672897c.0438614-.0701218.1073074-.1499939.1903458-.239624.083046-.0896301.1899414-.1717072.3207092-.2462311.2699585-.1538696.5280228-.1937943.7741852-.1197815s.4760056.2983246.6895142.6729431l1.3393173 2.3498688-.4871979.2776794-1.382988-2.4264908c-.1237411-.2171097-.2518997-.3414612-.3844681-.3730545-.132576-.031601-.279007-.0017166-.4393005.0896378-.1560669.0889587-.2727203.1906891-.3499603.3052139-.0772324.1145172-.1506424.2480011-.2202225.4004593l1.5431213 2.7074509-.4871979.2776794-1.382988-2.4264832c-.1237411-.2171097-.2550583-.3396606-.393959-.3676529s-.2821732.0000916-.4298096.0842361c-.1518555.0865479-.2697144.1861572-.3535995.2988205-.0838776.1126709-.1606064.2452316-.2301941.3976898l1.5504074 2.7202225-.4871979.2776794-1.8997955-3.3332291.2784042-.1586761.4227371.3004837.0991211-.4879456c.0480804-.0725174.1125793-.1529922.193512-.2414169.0809326-.0884323.1888885-.1711121.3238678-.2480392.1223297-.069725.2361145-.1176605.341362-.1438065s.2112885-.0386429.3181229-.0374985l.4279556.2213745z" fill="#fff"/></g></svg>