<?xml version="1.0" standalone="no"?>
<!DOCTYPE svg PUBLIC "-//W3C//DTD SVG 1.1//EN" "http://www.w3.org/Graphics/SVG/1.1/DTD/svg11.dtd">
<svg xmlns="http://www.w3.org/2000/svg">
<defs >
<font id="MiriamLibre" horiz-adv-x="558" ><font-face
    font-family="Miriam Libre"
    units-per-em="1000"
    panose-1="0 0 5 0 0 0 0 0 0 0"
    ascent="969"
    descent="-344"
    alphabetic="0" />
<glyph unicode=" " glyph-name="space" horiz-adv-x="270" />
<glyph unicode="!" glyph-name="exclam" horiz-adv-x="316" d="M142 212T138 216T134 226V681Q134 687 138 691T148 695H198Q204 695 208 691T212 681V226Q212 220 208 216T198 212H148Q142 212 138 216ZM147 -14T129 4T110 49Q110 75 128 93T174 112Q200 112
218 94T236 49Q236 23 218 5T174 -14Q147 -14 129 4Z" />
<glyph unicode="&quot;" glyph-name="quotedbl" horiz-adv-x="427" d="M63 462T58 469T56 487L103 685Q104 690 108 692T117 695H185Q195 695 200 688T202 671L110 462H73Q63 462 58 469ZM232 462T227 469T225 487L272 685Q273 690 277 692T286 695H354Q364 695
369 688T371 671L279 462H242Q232 462 227 469Z" />
<glyph unicode="#" glyph-name="numbersign" horiz-adv-x="766" d="M108 329T104 333T100 343V389Q100 395 104 399T114 403H243V552Q243 558 247 562T257 566H303Q309 566 313 562T317 552V403H449V552Q449 558 453 562T463 566H509Q515 566 519 562T523 552V403H652Q658
403 662 399T666 389V343Q666 337 662 333T652 329H114Q108 329 104 333ZM251 0T247 4T243 14V163H114Q108 163 104 167T100 177V223Q100 229 104 233T114 237H652Q658 237 662 233T666 223V177Q666 171 662 167T652 163H523V14Q523 8 519 4T509 0H463Q457 0 453
4T449 14V163H317V14Q317 8 313 4T303 0H257Q251 0 247 4Z" />
<glyph unicode="$" glyph-name="dollar" horiz-adv-x="551" d="M369 361T403 341T462 284T486 190Q486 128 457 82T375 12T256 -13H250L238 -79Q236 -85 232 -89T221 -93H181Q175 -93 172 -89T170 -79L183 -6Q115 8 71 40Q67 42 66 47T66 57L89 102Q94 111 103
111Q108 111 111 109Q157 82 196 71L240 322Q188 342 153 364T94 423T70 517Q70 579 99 622T178 687T286 708Q301 708 308 707L320 774Q322 780 326 784T337 788H377Q383 788 386 784T388 774L374 696Q421 683 460 658Q464 656 465 651T464 640L442 599Q439 593
433 591T421 593Q394 610 361 621L319 380Q369 361 403 341ZM153 477T179 452T255 405L295 633H287Q226 633 190 603T153 521Q153 477 179 452ZM324 65T363 97T403 183Q403 226 378 251T304 296L263 63Q324 65 363 97Z" />
<glyph unicode="%" glyph-name="percent" horiz-adv-x="759" d="M113 -23T107 -23Q101 -23 97 -19T92 -7V37L508 542Q486 540 474 540Q432 540 388 556T305 599Q311 569 311 527Q311 438 281 392T191 345Q131 345 101 391T70 527Q70 616 100 662T191 708Q223 708
242 699T288 670Q328 641 355 628Q412 601 466 601Q509 601 546 617T609 665L630 690Q636 696 642 696Q648 696 652 692T657 680V635L119 -17Q113 -23 107 -23ZM225 406T237 436T250 525Q250 591 237 619T191 647Q155 647 143 617T131 527Q131 467 143 437T190
406Q225 406 237 436ZM509 -13T479 33T448 169Q448 258 478 304T569 350Q628 350 658 304T689 169Q689 80 659 34T569 -13Q509 -13 479 33ZM603 48T615 78T628 167Q628 233 615 261T569 289Q533 289 521 259T509 169Q509 109 521 79T568 48Q603 48 615 78Z" />
<glyph unicode="&amp;" glyph-name="ampersand" horiz-adv-x="686" d="M553 -193T496 -105L419 15Q352 -13 279 -13Q178 -13 117 35T55 170Q55 228 87 272T191 372Q163 418 147 459T130 545Q130 594 152 631T211 688T291 708Q332 708 365 690T418 642T437 574Q437
524 401 477T287 364L447 114Q496 152 524 208T552 328Q552 334 556 338T566 342H614Q620 342 624 338T629 329Q629 244 591 172T486 52L546 -41Q577 -87 603 -104T675 -121H702Q708 -121 712 -125T716 -135V-179Q716 -185 712 -189T702 -193H660Q553 -193 496
-105ZM316 477T340 507T365 568Q365 599 343 619T287 640Q251 640 229 616T207 549Q207 491 250 421Q316 477 340 507ZM336 60T379 77L227 313Q178 273 156 244T133 176Q133 119 175 90T286 60Q336 60 379 77Z" />
<glyph unicode="&apos;" glyph-name="quotesingle" horiz-adv-x="258" d="M63 462T58 469T56 487L103 685Q104 690 108 692T117 695H185Q195 695 200 688T202 671L110 462H73Q63 462 58 469Z" />
<glyph unicode="(" glyph-name="parenleft" horiz-adv-x="349" d="M237 -128T231 -120Q167 -40 124 71T80 319Q80 456 123 567T230 759Q237 766 248 766Q258 766 263 761L284 743Q290 739 290 732Q290 729 287 724Q236 645 201 543T166 319Q166 197 201 95T287
-86Q290 -91 290 -94Q290 -99 284 -105L263 -123Q256 -128 248 -128Q237 -128 231 -120Z" />
<glyph unicode=")" glyph-name="parenright" horiz-adv-x="350" d="M92 -128T87 -123L66 -105Q57 -96 63 -86Q114 -7 149 95T184 319Q184 441 149 543T63 724Q60 729 60 732Q60 737 66 743L87 761Q93 766 102 766Q113 766 120 759Q183 678 226 567T270 319Q270
182 227 71T119 -120Q114 -128 102 -128Q92 -128 87 -123Z" />
<glyph unicode="*" glyph-name="asterisk" horiz-adv-x="480" d="M89 635Q80 638 80 649Q80 654 81 657L93 686Q98 695 107 695Q111 695 115 693L215 655L207 746V748Q207 754 211 758T222 762H258Q265 762 269 758T272 746L265 655L363 693Q369 695 373 695Q382
695 385 687L398 658Q400 652 400 649Q400 640 390 637L240 593L89 635ZM215 406T211 410T207 422L215 513L115 475Q109 473 106 473Q98 473 93 482L81 511Q80 514 80 519Q80 530 89 533L240 575L390 531Q400 528 400 518Q400 516 398 510L385 481Q381 473 373
473Q369 473 363 475L265 513L272 422V420Q272 413 268 410T258 406H222Q215 406 211 410Z" />
<glyph unicode="+" glyph-name="plus" horiz-adv-x="626" d="M553 324T557 321T561 310V268Q561 261 557 258T547 254H349V54Q349 48 346 44T335 40H293Q286 40 283 44T279 54V254H79Q73 254 69 257T65 268V310Q65 317 69 320T79 324H279V522Q279 528 282 532T293
536H335Q342 536 345 532T349 522V324H547Q553 324 557 321Z" />
<glyph unicode="," glyph-name="comma" horiz-adv-x="249" d="M63 -97T59 -90T56 -72L103 93Q107 103 117 103H185Q196 103 201 96T202 79L110 -97H73Q63 -97 59 -90Z" />
<glyph unicode="-" glyph-name="hyphen" horiz-adv-x="456" d="M98 270T94 274T90 284V332Q90 338 94 342T104 346H352Q358 346 362 342T366 332V284Q366 278 362 274T352 270H104Q98 270 94 274Z" />
<glyph unicode="." glyph-name="period" horiz-adv-x="246" d="M97 -14T79 4T60 49Q60 75 78 93T124 112Q150 112 168 94T186 49Q186 23 168 5T124 -14Q97 -14 79 4Z" />
<glyph unicode="/" glyph-name="slash" horiz-adv-x="405" d="M9 -55T7 -52T6 -44L330 747Q335 759 348 759H392Q396 759 398 756T399 748L76 -43Q72 -55 58 -55H13Q9 -55 7 -52Z" />
<glyph unicode="0" glyph-name="zero" horiz-adv-x="595" d="M181 -13T123 79T65 348Q65 523 123 615T298 708Q415 708 472 616T530 348Q530 -13 298 -13Q181 -13 123 79ZM385 66T415 139T446 348Q446 483 416 556T297 629Q217 629 183 561T149 344Q149 212 180
139T298 66Q385 66 415 139Z" />
<glyph unicode="1" glyph-name="one" horiz-adv-x="430" d="M58 0T54 4T50 14V59Q50 65 54 69T64 73H184V591H95Q89 591 85 595T81 605V637L218 708H247Q253 708 257 704T261 694V73H381Q387 73 391 69T395 59V14Q395 8 391 4T381 0H64Q58 0 54 4Z" />
<glyph unicode="2" glyph-name="two" horiz-adv-x="507" d="M76 0T66 10T55 34V120Q55 189 74 228T134 297T275 387Q323 415 347 446T372 520Q372 572 338 602T248 632Q183 632 111 590Q107 587 102 587Q96 587 91 595L70 630Q67 635 67 639Q67 650 76 654Q116
679 162 693T254 707Q345 707 398 659T452 528Q452 478 434 441T384 375T300 312Q284 301 272 294T251 281Q201 250 179 233T145 191T133 128V76H414Q419 76 422 73T425 64V12Q425 7 422 4T414 0H91Q76 0 66 10Z" />
<glyph unicode="3" glyph-name="three" horiz-adv-x="529" d="M175 -12T116 20T22 108Q20 112 20 116Q20 125 28 131L62 155Q67 158 72 158Q82 158 88 149Q118 109 159 86T242 62Q284 62 319 83T374 140T395 218Q395 260 375 295T320 350T246 371Q235 371 230
370L209 342Q206 336 198 336Q193 336 190 339L152 366Q147 369 147 376Q147 382 150 385L317 619H92Q86 619 82 623T78 633V681Q78 687 82 691T92 695H375Q396 695 409 682T423 651Q423 636 413 622L281 440Q336 432 380 401T449 322T474 218Q474 156 443 103T358
19T242 -12Q175 -12 116 20Z" />
<glyph unicode="4" glyph-name="four" horiz-adv-x="561" d="M359 0T355 4T351 14V173H69Q57 173 49 181T40 202V244L311 683Q314 688 320 691T332 695H406Q415 695 421 689T427 674V246H497Q503 246 507 242T511 232V187Q511 181 507 177T497 173H427V14Q427
8 423 4T413 0H365Q359 0 355 4ZM351 246V613L125 246H351Z" />
<glyph unicode="5" glyph-name="five" horiz-adv-x="540" d="M187 -17T128 16T32 106Q30 108 30 114Q30 122 37 126L71 151Q76 154 82 154Q93 154 98 146Q126 105 168 81T255 57Q298 57 334 78T392 136T413 217Q413 260 392 296T336 352T259 373Q195 373 137 325Q127
317 115 320L87 328Q82 329 80 334T78 345L129 666Q131 679 140 687T163 695H427Q433 695 437 691T441 681V635Q441 629 437 625T427 621H196L165 422Q214 445 263 445Q324 445 376 415T459 332T490 217Q490 154 458 100T372 15T255 -17Q187 -17 128 16Z" />
<glyph unicode="6" glyph-name="six" horiz-adv-x="574" d="M232 -13T181 16T100 97T70 211Q70 319 77 386T111 510Q153 597 232 646T410 695Q417 695 421 691T425 681V636Q425 631 421 627T412 622Q338 622 281 589T189 497T151 359Q173 393 217 414T304 436Q364
436 413 406T491 324T519 211Q519 151 489 100T407 18T294 -13Q232 -13 181 16ZM333 61T366 81T420 136T440 211Q440 251 420 286T367 341T294 362Q254 362 221 342T169 288T150 211Q150 169 169 135T221 81T294 61Q333 61 366 81Z" />
<glyph unicode="7" glyph-name="seven" horiz-adv-x="454" d="M109 0T109 13Q109 15 111 23L338 619H44Q38 619 34 623T30 633V681Q30 687 34 691T44 695H378Q393 695 403 685T414 659V607L190 14Q188 8 184 4T173 0H122Q109 0 109 13Z" />
<glyph unicode="8" glyph-name="eight" horiz-adv-x="589" d="M228 -13T173 15T87 93T55 202Q55 255 81 303T155 384Q123 407 106 443T89 523Q89 574 116 616T191 684T294 709Q351 709 398 685T472 620T500 529Q500 481 481 437T427 364Q478 339 506 295T534 198Q534
140 502 92T415 15T294 -13Q228 -13 173 15ZM384 407T402 443T420 523Q420 559 402 584T354 623T294 637Q242 637 206 604T170 523Q170 481 196 456T260 417T361 390Q384 407 402 443ZM338 59T374 78T432 130T453 202Q453 246 428 271T366 310T259 339L220 348Q182
329 159 289T136 204Q136 163 156 130T213 78T294 59Q338 59 374 78Z" />
<glyph unicode="9" glyph-name="nine" horiz-adv-x="574" d="M157 0T153 4T149 14V59Q149 64 153 68T162 73Q236 73 293 106T385 198T423 336Q401 302 357 281T270 259Q210 259 161 289T83 371T55 484Q55 544 85 595T167 677T280 708Q342 708 393 679T474 598T504
484Q504 376 497 309T463 185Q421 98 342 49T164 0Q157 0 153 4ZM320 333T353 353T405 407T424 484Q424 526 405 560T353 614T280 634Q241 634 208 614T154 559T134 484Q134 444 154 409T207 354T280 333Q320 333 353 353Z" />
<glyph unicode=":" glyph-name="colon" horiz-adv-x="308" d="M119 371T115 375T110 386V481Q110 487 114 491T125 496H183Q189 496 193 492T198 481V386Q198 380 194 376T183 371H125Q119 371 115 375ZM119 0T115 4T110 15V110Q110 116 114 120T125 125H183Q189
125 193 121T198 110V15Q198 9 194 5T183 0H125Q119 0 115 4Z" />
<glyph unicode=";" glyph-name="semicolon" horiz-adv-x="274" d="M107 371T103 375T98 386V481Q98 487 102 491T113 496H171Q177 496 181 492T186 481V386Q186 380 182 376T171 371H113Q107 371 103 375ZM53 -97T49 -90T46 -72L93 93Q97 103 107 103H175Q186
103 191 96T192 79L100 -97H63Q53 -97 49 -90Z" />
<glyph unicode="&lt;" glyph-name="less" horiz-adv-x="549" d="M484 429T473 424L142 287L473 152Q484 147 484 135V91Q484 84 479 81T466 80L75 242Q65 246 65 259L66 319Q66 330 77 335L466 495Q468 496 472 496Q477 496 480 493T484 484V441Q484 429 473 424Z" />
<glyph unicode="=" glyph-name="equal" horiz-adv-x="626" d="M73 346T69 349T65 360V402Q65 409 69 412T79 416H547Q553 416 557 413T561 402V360Q561 353 557 350T547 346H79Q73 346 69 349ZM73 161T69 164T65 175V217Q65 224 69 227T79 231H547Q553 231 557
228T561 217V175Q561 168 557 165T547 161H79Q73 161 69 164Z" />
<glyph unicode="&gt;" glyph-name="greater" horiz-adv-x="549" d="M484 259Q484 246 474 242L83 80Q81 79 77 79Q72 79 69 82T65 91V135Q65 147 76 152L407 287L76 424Q65 429 65 441V484Q65 491 70 494T83 495L472 335Q483 330 483 319L484 259Z" />
<glyph unicode="?" glyph-name="question" horiz-adv-x="451" d="M180 204Q170 204 168 211Q146 254 146 296Q146 339 167 370T238 446Q272 478 290 502T308 554Q308 586 284 607T220 629Q191 629 163 617T110 586Q104 582 100 582Q94 582 89 589L69 620Q65 625
65 631Q65 641 74 648Q101 671 142 686T227 702Q295 702 340 662T386 555Q386 510 367 479T315 415Q301 401 301 401Q261 362 244 340T227 291Q227 271 238 241L239 237Q239 228 231 225L188 206L180 204ZM181 -14T163 4T144 49Q144 75 162 93T208 112Q234 112
252 94T270 49Q270 23 252 5T208 -14Q181 -14 163 4Z" />
<glyph unicode="@" glyph-name="at" horiz-adv-x="938" d="M359 -114T267 -60T120 87T65 290Q65 400 119 492T266 639T469 694Q579 694 671 640T818 493T873 290Q873 218 847 169T781 95T696 71Q656 71 625 91T580 149Q559 116 520 94T432 72Q373 72 336 105T298
193Q298 243 332 276T427 318L523 331Q544 334 553 344T562 376V382Q562 415 536 437T468 459Q407 459 368 406Q364 399 355 399Q350 399 346 402L321 422Q317 425 317 429T318 439Q340 477 380 498T469 520Q539 520 582 482T625 382V209Q625 173 647 152T700 130Q727
130 752 147T794 201T811 290Q811 383 765 461T641 586T469 632Q376 632 298 586T173 462T127 290Q127 197 173 119T297 -6T469 -52H682Q688 -52 692 -56T696 -66V-100Q696 -106 692 -110T682 -114H469Q359 -114 267 -60ZM474 130T503 149T548 197T565 253V281L432
262Q360 252 360 195Q360 166 381 148T438 130Q474 130 503 149Z" />
<glyph unicode="A" glyph-name="A" horiz-adv-x="610" d="M42 0T38 6T36 22L253 682Q255 688 260 691T272 695H338Q344 695 349 692T357 682L574 22Q575 20 575 15Q575 9 571 5T559 0H510Q504 0 499 3T491 13L435 187H175L119 13Q118 7 112 4T100 0H51Q42 0 38
6ZM412 260L305 591L198 260H412Z" />
<glyph unicode="B" glyph-name="B" horiz-adv-x="567" d="M111 0T101 10T90 36V659Q90 674 100 684T126 695H299Q350 695 392 673T457 610T481 519Q481 477 464 441T413 379Q466 357 496 310T527 204Q527 147 500 101T427 27T324 0H126Q111 0 101 10ZM286 398Q333
398 366 432T400 514Q400 559 369 590T291 621H170V398H286ZM319 75Q373 75 408 111T444 200Q444 253 409 288T319 323H170V75H319Z" />
<glyph unicode="C" glyph-name="C" horiz-adv-x="546" d="M244 -13T189 20T102 109T70 231V465Q70 531 102 587T189 676T309 709Q362 709 408 691T489 637Q494 633 494 625Q494 618 489 612Q468 588 462 582Q455 577 448 577Q440 577 433 584Q383 632 310 632Q267
632 231 609T174 548T153 465V231Q153 187 174 149T231 87T310 64Q383 64 433 112Q440 119 448 119Q455 119 462 114Q468 108 489 84Q494 79 494 71Q494 64 489 59Q454 24 408 6T309 -13Q244 -13 189 20Z" />
<glyph unicode="D" glyph-name="D" horiz-adv-x="630" d="M111 0T101 10T90 36V659Q90 674 100 684T126 695H304Q375 695 435 660T530 564T565 431V264Q565 192 530 132T435 36T304 0H126Q111 0 101 10ZM304 77Q353 77 394 101T459 166T483 257V439Q483 488 459
529T394 594T304 618H172V77H304Z" />
<glyph unicode="E" glyph-name="E" horiz-adv-x="524" d="M111 0T101 10T90 36V659Q90 674 100 684T126 695H455Q461 695 465 691T469 681V632Q469 626 465 622T455 618H172V404H388Q394 404 398 400T402 390V343Q402 337 398 333T388 329H172V77H455Q461 77 465
73T469 63V14Q469 8 465 4T455 0H126Q111 0 101 10Z" />
<glyph unicode="F" glyph-name="F" horiz-adv-x="509" d="M98 0T94 4T90 14V659Q90 674 100 684T126 695H455Q461 695 465 691T469 681V632Q469 626 465 622T455 618H172V384H388Q394 384 398 380T402 370V323Q402 317 398 313T388 309H172V14Q172 8 168 4T158
0H104Q98 0 94 4Z" />
<glyph unicode="G" glyph-name="G" horiz-adv-x="617" d="M248 -12T192 21T103 110T70 232V465Q70 531 103 587T192 676T314 709Q369 709 417 690T500 636Q505 632 505 624Q505 617 500 611Q493 603 472 582Q465 577 458 577Q450 577 443 584Q392 632 315 632Q271
632 234 609T174 548T152 465V232Q152 188 174 150T233 88T315 65Q359 65 396 87T455 146T477 228V307H336Q330 307 326 311T322 321V367Q322 373 326 377T336 381H521Q536 381 546 371T557 345V232Q557 166 525 110T436 21T314 -12Q248 -12 192 21Z" />
<glyph unicode="H" glyph-name="H" horiz-adv-x="680" d="M98 0T94 4T90 14V681Q90 687 94 691T104 695H158Q164 695 168 691T172 681V404H508V681Q508 687 512 691T522 695H576Q582 695 586 691T590 681V14Q590 8 586 4T576 0H522Q516 0 512 4T508 14V329H172V14Q172
8 168 4T158 0H104Q98 0 94 4Z" />
<glyph unicode="I" glyph-name="I" horiz-adv-x="442" d="M73 0T69 4T65 14V61Q65 67 69 71T79 75H180V620H79Q73 620 69 624T65 634V681Q65 687 69 691T79 695H363Q369 695 373 691T377 681V634Q377 628 373 624T363 620H262V75H363Q369 75 373 71T377 61V14Q377
8 373 4T363 0H79Q73 0 69 4Z" />
<glyph unicode="J" glyph-name="J" horiz-adv-x="359" d="M38 0T34 4T30 15V61Q30 68 34 72T45 76H104Q139 76 160 98T182 157V681Q182 687 186 691T196 695H250Q256 695 260 691T264 681V156Q264 114 246 78T194 21T114 0H45Q38 0 34 4Z" />
<glyph unicode="K" glyph-name="K" horiz-adv-x="563" d="M99 0T95 3T90 13V681Q90 687 94 691T104 695H158Q164 695 168 691T172 681V383H201L443 686Q451 695 461 695H524Q531 695 534 692T538 682Q538 676 534 672L275 351L533 25Q537 21 537 15Q537 8 533
4T522 0H459Q450 0 442 9L205 308H172V13Q172 7 168 4T157 0H105Q99 0 95 3Z" />
<glyph unicode="L" glyph-name="L" horiz-adv-x="474" d="M111 0T101 10T90 36V681Q90 687 94 691T104 695H158Q164 695 168 691T172 681V77H425Q431 77 435 73T439 63V14Q439 8 435 4T425 0H126Q111 0 101 10Z" />
<glyph unicode="M" glyph-name="M" horiz-adv-x="901" d="M419 -13T414 -10T406 0L214 556L148 17Q147 9 142 5T128 0H81Q73 0 69 5T65 18L152 684Q153 689 156 692T164 695H234Q240 695 246 692T253 682L450 111L649 686Q652 695 661 695H730Q738 695 743 691T750
678L836 18V16Q836 10 832 5T820 0H772Q764 0 759 4T752 17L686 554L494 0Q492 -6 487 -9T475 -13H425Q419 -13 414 -10Z" />
<glyph unicode="N" glyph-name="N" horiz-adv-x="680" d="M98 0T94 4T90 14V674Q90 683 96 689T111 695H170Q178 695 185 692T196 681L512 129V681Q512 687 516 691T526 695H576Q582 695 586 691T590 681V21Q590 12 584 6T569 0H509Q501 0 494 3T483 14L168 565V14Q168
8 164 4T154 0H104Q98 0 94 4Z" />
<glyph unicode="O" glyph-name="O" horiz-adv-x="630" d="M249 -13T193 20T103 109T70 231V464Q70 530 103 586T192 675T315 708Q381 708 437 675T527 586T560 464V231Q560 165 527 109T438 20T315 -13Q249 -13 193 20ZM359 64T396 87T456 148T478 231V464Q478
508 456 546T397 608T315 631Q271 631 234 608T174 547T152 464V231Q152 187 174 149T233 87T315 64Q359 64 396 87Z" />
<glyph unicode="P" glyph-name="P" horiz-adv-x="557" d="M98 0T94 4T90 14V659Q90 674 100 684T126 695H294Q354 695 404 666T483 588T512 480Q512 421 483 372T404 294T294 265H172V14Q172 8 168 4T158 0H104Q98 0 94 4ZM289 342Q327 342 359 360T409 411T428
480Q428 517 410 549T359 599T289 618H172V342H289Z" />
<glyph unicode="Q" glyph-name="Q" horiz-adv-x="639" d="M623 -193T591 -176T512 -124L489 -106L448 -75Q401 -38 377 -26T315 -13Q249 -13 193 20T103 109T70 231V464Q70 530 103 586T192 675T315 708Q381 708 437 675T527 586T560 464V231Q560 167 529 113T446
25L521 -35L544 -54Q585 -88 613 -104T672 -121H685Q691 -121 695 -125T699 -135V-179Q699 -185 696 -189T685 -193H664Q623 -193 591 -176ZM359 64T396 87T456 148T478 231V464Q478 508 456 546T397 608T315 631Q271 631 234 608T174 547T152 464V231Q152 187
174 149T233 87T315 64Q359 64 396 87Z" />
<glyph unicode="R" glyph-name="R" horiz-adv-x="562" d="M98 0T94 4T90 14V659Q90 674 100 684T126 695H300Q356 695 402 668T476 595T503 493Q503 420 457 365T341 296L507 28Q510 24 510 18Q510 10 505 5T491 0H440Q430 0 425 9L250 292H172V14Q172 8 168 4T158
0H104Q98 0 94 4ZM294 369Q348 369 383 404T419 492Q419 547 384 582T294 618H172V369H294Z" />
<glyph unicode="S" glyph-name="S" horiz-adv-x="531" d="M196 -13T147 1T61 40Q57 42 56 47T56 57L79 102Q84 111 93 111Q98 111 101 109Q178 63 247 63Q311 63 352 95T393 183Q393 219 375 242T330 279T255 312Q192 336 154 356T88 416T60 517Q60 579 89 622T168
687T276 708Q324 708 369 695T450 658Q454 656 455 651T454 640L432 599Q429 593 423 591T411 593Q344 633 277 633Q216 633 180 603T143 521Q143 485 161 462T205 424T281 391Q290 387 348 365T441 298T476 190Q476 128 447 82T365 12T246 -13Q196 -13 147 1Z"
/>
<glyph unicode="T" glyph-name="T" horiz-adv-x="544" d="M239 0T235 4T231 14V618H58Q52 618 48 622T44 632V681Q44 687 48 691T58 695H486Q492 695 496 691T500 681V632Q500 626 496 622T486 618H313V14Q313 8 309 4T299 0H245Q239 0 235 4Z" />
<glyph unicode="U" glyph-name="U" horiz-adv-x="671" d="M267 -13T211 20T123 113T90 251V681Q90 687 94 691T104 695H158Q164 695 168 691T172 681V246Q172 192 193 151T252 88T336 66Q382 66 419 88T477 151T499 246V681Q499 687 503 691T513 695H567Q573 695
577 691T581 681V251Q581 174 549 114T460 20T336 -13Q267 -13 211 20Z" />
<glyph unicode="V" glyph-name="V" horiz-adv-x="608" d="M265 0T260 3T252 13L46 673Q45 675 45 680Q45 686 49 690T61 695H110Q116 695 122 692T129 682L304 104L479 682Q481 688 486 691T498 695H547Q556 695 560 689T562 673L356 13Q355 7 349 4T337 0H271Q265
0 260 3Z" />
<glyph unicode="W" glyph-name="W" horiz-adv-x="999" d="M258 0T251 5T241 18L46 674Q45 676 45 679Q45 686 50 690T62 695H114Q121 695 126 691T133 681L294 119L455 681Q457 687 462 691T474 695H526Q533 695 538 691T545 681L706 119L867 681Q869 687 874
691T886 695H938Q946 695 951 689T954 674L759 18Q757 10 750 5T734 0H678Q670 0 663 5T653 18L499 553L347 18Q345 10 338 5T322 0H266Q258 0 251 5Z" />
<glyph unicode="X" glyph-name="X" horiz-adv-x="607" d="M60 0T55 5T50 17Q50 22 53 28L255 348L54 667Q51 673 51 678Q51 685 56 690T69 695H123Q133 695 138 687L304 425L469 687Q474 695 484 695H538Q546 695 551 690T556 678Q556 673 553 667L352 348L554
28Q557 22 557 17Q557 10 552 5T539 0H484Q474 0 469 8L304 271L138 8Q133 0 123 0H68Q60 0 55 5Z" />
<glyph unicode="Y" glyph-name="Y" horiz-adv-x="567" d="M251 0T247 4T243 14V335L38 668Q35 674 35 678Q35 686 40 690T53 695H107Q116 695 122 686L284 419L445 686Q451 695 460 695H514Q522 695 527 691T532 678Q532 674 529 668L325 338V14Q325 8 321 4T311
0H257Q251 0 247 4Z" />
<glyph unicode="Z" glyph-name="Z" horiz-adv-x="551" d="M75 0T65 11T55 38Q55 47 60 55L384 618H82Q76 618 72 622T68 632V681Q68 687 72 691T82 695H460Q475 695 484 684T494 657Q494 647 490 640L164 77H482Q488 77 492 73T496 63V14Q496 8 492 4T482 0H89Q75
0 65 11Z" />
<glyph unicode="[" glyph-name="bracketleft" horiz-adv-x="315" d="M111 -193T101 -183T90 -157V770Q90 785 100 795T126 806H256Q262 806 266 802T270 792V748Q270 742 266 738T256 734H169V-121H256Q262 -121 266 -125T270 -135V-179Q270 -185 266 -189T256
-193H126Q111 -193 101 -183Z" />
<glyph unicode="\" glyph-name="backslash" horiz-adv-x="405" d="M334 -55T329 -43L6 748L5 752Q5 759 13 759H57Q71 759 75 747L399 -44L400 -48Q400 -55 392 -55H347Q334 -55 329 -43Z" />
<glyph unicode="]" glyph-name="bracketright" horiz-adv-x="315" d="M53 -193T49 -189T45 -179V-135Q45 -129 49 -125T59 -121H146V734H59Q53 734 49 738T45 748V792Q45 798 49 802T59 806H189Q204 806 214 796T225 770V-157Q225 -172 215 -182T189 -193H59Q53
-193 49 -189Z" />
<glyph unicode="^" glyph-name="asciicircum" horiz-adv-x="546" d="M79 334T75 338T70 349Q70 352 72 358L229 681Q235 695 252 695H299Q316 695 322 681L474 358Q476 352 476 350Q476 343 471 339T458 334H413Q408 334 403 337T396 345L273 597L151 345Q149
340 144 337T134 334H87Q79 334 75 338Z" />
<glyph unicode="_" glyph-name="underscore" horiz-adv-x="490" d="M8 -110T4 -106T0 -96V-50Q0 -44 4 -40T14 -36H476Q482 -36 486 -40T490 -50V-96Q490 -102 486 -106T476 -110H14Q8 -110 4 -106Z" />
<glyph unicode="`" glyph-name="grave" horiz-adv-x="588" d="M322 631T312 643L231 736Q227 740 227 746Q227 752 230 755T241 759H308Q328 759 336 740L373 650Q375 644 375 643Q375 638 372 635T362 631H338Q322 631 312 643Z" />
<glyph unicode="a" glyph-name="a" horiz-adv-x="560" d="M148 -13T99 30T50 145Q50 211 94 254T219 308L349 326Q378 330 391 345T404 390V398Q404 446 367 475T273 505Q229 505 197 488T145 439Q137 426 125 426Q119 426 112 431L85 449Q76 457 76 466Q76 470
79 476Q108 524 158 551T275 579Q335 579 382 557T454 493T480 398V14Q480 8 476 4T466 0H424Q418 0 414 4T410 14V83Q379 38 331 13T225 -13Q148 -13 99 30ZM282 57T322 83T384 148T407 226V267Q383 264 253 246L225 242Q125 227 125 148Q125 107 155 82T233 57Q282
57 322 83Z" />
<glyph unicode="b" glyph-name="b" horiz-adv-x="590" d="M272 -13T233 4T164 53V14Q164 8 160 4T150 0H104Q98 0 94 4T90 14V745Q90 751 94 755T104 759H154Q160 759 164 755T168 745V509Q196 542 234 560T316 579Q373 579 421 551T497 475T525 370V196Q525 139
497 91T421 15T316 -13Q272 -13 233 4ZM346 61T378 79T428 130T447 200V366Q447 404 429 436T378 486T308 505Q270 505 238 487T187 436T168 366V200Q168 162 186 130T237 80T308 61Q346 61 378 79Z" />
<glyph unicode="c" glyph-name="c" horiz-adv-x="492" d="M223 -13T173 16T94 95T65 205V361Q65 420 94 470T173 550T282 579Q325 579 363 563T431 519Q437 513 437 505Q437 498 431 490Q421 479 408 467Q401 461 393 461Q384 461 377 468Q337 505 282 505Q244
505 212 487T162 436T143 366V200Q143 162 161 130T212 80T282 61Q337 61 377 98Q384 105 393 105Q401 105 408 99Q420 89 431 76Q437 70 437 61Q437 53 431 47Q402 19 364 3T282 -13Q223 -13 173 16Z" />
<glyph unicode="d" glyph-name="d" horiz-adv-x="590" d="M217 -13T169 15T93 91T65 196V370Q65 427 93 475T169 551T275 579Q316 579 354 564T422 522V745Q422 751 426 755T436 759H486Q492 759 496 755T500 745V14Q500 8 496 4T486 0H440Q434 0 430 4T426 14V58Q398
24 359 6T274 -13Q217 -13 169 15ZM320 61T352 79T403 130T422 200V366Q422 404 404 436T353 486T282 505Q244 505 212 487T162 436T143 366V200Q143 162 161 130T212 80T282 61Q320 61 352 79Z" />
<glyph unicode="e" glyph-name="e" horiz-adv-x="557" d="M223 0T173 29T94 108T65 218V361Q65 420 94 470T173 550T282 579Q341 579 391 550T470 471T499 361V293Q499 278 489 268T463 257H143V213Q143 175 161 143T212 93T282 74H427Q433 74 437 70T441 60V14Q441
8 437 4T427 0H282Q223 0 173 29ZM421 329V366Q421 404 403 436T352 486T282 505Q244 505 212 487T162 436T143 366V329H421Z" />
<glyph unicode="f" glyph-name="f" horiz-adv-x="408" d="M138 0T134 4T130 14V492H54Q48 492 44 496T40 506V552Q40 558 44 562T54 566H130V606Q130 672 171 715T284 759H364Q370 759 374 755T378 745V702Q378 696 374 692T364 688H283Q249 688 229 667T208 610V566H344Q350
566 354 562T358 552V506Q358 500 354 496T344 492H208V14Q208 8 204 4T194 0H144Q138 0 134 4Z" />
<glyph unicode="g" glyph-name="g" horiz-adv-x="585" d="M184 -206T125 -171T65 -67Q65 -32 81 0T124 53Q99 70 88 87T76 130Q76 161 93 189T141 236Q107 262 88 300T69 386Q69 443 96 487T171 555T275 579Q314 579 353 566H551Q557 566 561 562T565 552V506Q565
500 561 496T551 492H450Q481 447 481 386Q481 329 454 285T379 217T275 193Q237 193 196 206Q174 196 162 180T150 146Q150 123 170 112Q186 103 217 99T314 89L353 86Q401 82 435 73T494 38T519 -38Q519 -120 452 -163T279 -206Q184 -206 125 -171ZM334 262T369
296T405 386Q405 441 370 475T275 510Q216 510 181 476T145 386Q145 331 180 297T275 262Q334 262 369 296ZM358 -137T402 -115T446 -46Q446 -22 434 -10T400 6T336 15Q327 16 294 18T220 26Q196 29 180 32Q160 17 149 -5T137 -50Q137 -96 179 -116T288 -137Q358
-137 402 -115Z" />
<glyph unicode="h" glyph-name="h" horiz-adv-x="594" d="M98 0T94 4T90 14V745Q90 751 94 755T104 759H154Q160 759 164 755T168 745V496Q194 537 235 558T329 579Q414 579 466 527T519 390V14Q519 8 515 4T505 0H455Q449 0 445 4T441 14V375Q441 439 408 472T317
506Q250 506 209 462T168 341V14Q168 8 164 4T154 0H104Q98 0 94 4Z" />
<glyph unicode="i" glyph-name="i" horiz-adv-x="393" d="M172 644T168 648T164 658V745Q164 751 168 755T178 759H226Q232 759 236 755T240 745V658Q240 652 236 648T226 644H178Q172 644 168 648ZM184 0T174 10T163 36V492H59Q53 492 49 496T45 506V552Q45 558
49 562T59 566H205Q220 566 230 556T241 530V74H344Q350 74 354 70T358 60V14Q358 8 354 4T344 0H199Q184 0 174 10Z" />
<glyph unicode="j" glyph-name="j" horiz-adv-x="355" d="M191 664T187 668T183 678V765Q183 771 187 775T197 779H245Q251 779 255 775T259 765V678Q259 672 255 668T245 664H197Q191 664 187 668ZM43 -193T39 -189T35 -179V-135Q35 -129 39 -125T49 -121H107Q141
-121 161 -100T182 -43V492H49Q43 492 39 496T35 506V552Q35 558 39 562T49 566H224Q239 566 249 556T260 530V-43Q260 -106 221 -149T116 -193H49Q43 -193 39 -189Z" />
<glyph unicode="k" glyph-name="k" horiz-adv-x="537" d="M99 0T95 3T90 13V745Q90 751 94 755T104 759H154Q160 759 164 755T168 745V346H209L406 557Q414 566 423 566H488Q494 566 497 563T501 554Q501 548 497 544L275 312L509 20Q512 16 512 12Q512 7 509
4T500 0H435Q426 0 418 9L209 272H168V13Q168 7 164 4T153 0H105Q99 0 95 3Z" />
<glyph unicode="l" glyph-name="l" horiz-adv-x="350" d="M143 0T133 10T122 36V685H29Q23 685 19 689T15 699V745Q15 751 19 755T29 759H164Q179 759 189 749T200 723V74H306Q312 74 316 70T320 60V14Q320 8 316 4T306 0H158Q143 0 133 10Z" />
<glyph unicode="m" glyph-name="m" horiz-adv-x="925" d="M98 0T94 4T90 14V552Q90 558 94 562T104 566H154Q160 566 164 562T168 552V498Q192 538 231 558T319 579Q382 579 428 550T495 469Q516 522 560 550T660 578Q745 578 797 526T850 389V14Q850 8 846 4T836
0H786Q780 0 776 4T772 14V374Q772 438 739 471T648 505Q586 505 548 461T509 340V14Q509 8 505 4T495 0H445Q439 0 435 4T431 14V375Q431 439 398 472T307 506Q245 506 207 462T168 341V14Q168 8 164 4T154 0H104Q98 0 94 4Z" />
<glyph unicode="n" glyph-name="n" horiz-adv-x="594" d="M98 1T94 5T90 15V552Q90 558 94 562T104 566H154Q160 566 164 562T168 552V497Q194 538 235 559T329 580Q414 580 466 528T519 391V15Q519 9 515 5T505 1H455Q449 1 445 5T441 15V376Q441 440 408 473T317
507Q250 507 209 463T168 342V15Q168 9 164 5T154 1H104Q98 1 94 5Z" />
<glyph unicode="o" glyph-name="o" horiz-adv-x="564" d="M223 -13T173 16T94 95T65 205V361Q65 420 94 470T173 550T282 579Q341 579 391 550T470 471T499 361V205Q499 146 470 96T391 16T282 -13Q223 -13 173 16ZM320 61T352 79T402 130T421 200V366Q421 404
403 436T352 486T282 505Q244 505 212 487T162 436T143 366V200Q143 162 161 130T212 80T282 61Q320 61 352 79Z" />
<glyph unicode="p" glyph-name="p" horiz-adv-x="590" d="M98 -193T94 -189T90 -179V552Q90 558 94 562T104 566H150Q156 566 160 562T164 552V508Q192 542 231 560T316 579Q373 579 421 551T497 475T525 370V196Q525 139 497 91T421 15T315 -13Q274 -13 236 2T168
44V-179Q168 -185 164 -189T154 -193H104Q98 -193 94 -189ZM346 61T378 79T428 130T447 200V366Q447 404 429 436T378 486T308 505Q270 505 238 487T187 436T168 366V200Q168 162 186 130T237 80T308 61Q346 61 378 79Z" />
<glyph unicode="q" glyph-name="q" horiz-adv-x="590" d="M430 -193T426 -189T422 -179V57Q394 24 356 6T274 -13Q217 -13 169 15T93 91T65 196V370Q65 427 93 475T169 551T274 579Q318 579 357 562T426 513V552Q426 558 430 562T440 566H486Q492 566 496 562T500
552V-179Q500 -185 496 -189T486 -193H436Q430 -193 426 -189ZM320 61T352 79T403 130T422 200V366Q422 404 404 436T353 486T282 505Q244 505 212 487T162 436T143 366V200Q143 162 161 130T212 80T282 61Q320 61 352 79Z" />
<glyph unicode="r" glyph-name="r" horiz-adv-x="463" d="M58 0T54 4T50 14V60Q50 66 54 70T64 74H147V495H64Q58 495 54 499T50 509V552Q50 558 54 562T64 566H189Q204 566 214 556T225 530V480L283 525Q319 553 341 562T389 572H419Q426 572 429 568T433 558V509Q433
503 429 499T419 495H397Q372 495 350 485T284 439L225 392V74H341Q347 74 351 70T355 60V14Q355 8 351 4T341 0H64Q58 0 54 4Z" />
<glyph unicode="s" glyph-name="s" horiz-adv-x="470" d="M180 -10T136 2T60 37Q56 39 55 43T55 53L76 95Q81 103 89 103Q91 103 97 101Q163 61 230 61Q283 61 313 84T344 151Q344 177 331 193T295 220T226 249Q165 272 130 292T75 343T55 422Q55 499 106 539T237
579Q279 579 320 567T395 533Q399 531 400 526T399 517L379 476Q377 470 372 468T360 470Q296 508 237 508Q188 508 161 487T133 426Q133 395 148 376T184 348T251 321Q310 300 344 282T400 234T422 156Q422 79 369 35T226 -10Q180 -10 136 2Z" />
<glyph unicode="t" glyph-name="t" horiz-adv-x="443" d="M202 0T161 43T120 153V493H54Q48 493 44 497T40 507V552Q40 558 44 562T54 566H120V671Q120 677 124 681T134 685H184Q190 685 194 681T198 671V566H374Q380 566 384 562T388 552V506Q388 500 384 496T374
492H198V162Q198 123 221 100T283 75L374 74Q380 74 384 70T388 60V14Q388 8 384 4T374 0H274Q202 0 161 43Z" />
<glyph unicode="u" glyph-name="u" horiz-adv-x="594" d="M180 -13T128 39T75 176V552Q75 558 79 562T89 566H139Q145 566 149 562T153 552V191Q153 128 187 94T277 60Q344 60 385 104T426 225V552Q426 558 430 562T440 566H490Q496 566 500 562T504 552V14Q504
8 500 4T490 0H440Q434 0 430 4T426 14V70Q400 29 359 8T265 -13Q180 -13 128 39Z" />
<glyph unicode="v" glyph-name="v" horiz-adv-x="528" d="M227 0T222 3T214 13L26 544Q25 546 25 551Q25 557 29 561T41 566H87Q93 566 98 563T106 553L264 97L419 553Q421 559 426 562T438 566H482Q491 566 495 560T497 544L309 13Q307 7 302 4T290 0H233Q227 0 222 3Z" />
<glyph unicode="w" glyph-name="w" horiz-adv-x="866" d="M217 0T212 3T204 13L26 544Q25 546 25 551Q25 557 29 561T41 566H85Q91 566 96 563T104 553L252 97L386 553Q390 566 405 566H454Q470 566 473 553L607 97L755 553Q757 559 762 562T774 566H819Q828 566
832 560T834 544L656 13Q654 7 649 4T637 0H580Q574 0 569 3T561 13L429 447L299 13Q297 7 292 4T280 0H223Q217 0 212 3Z" />
<glyph unicode="x" glyph-name="x" horiz-adv-x="528" d="M50 0T45 5T40 17Q40 22 43 28L219 298L63 538Q60 544 60 549Q60 556 65 561T78 566H126Q136 566 141 558L264 368L387 558Q392 566 402 566H450Q458 566 463 561T468 549Q468 544 465 538L309 298L485
28Q488 22 488 17Q488 10 483 5T470 0H422Q412 0 407 8L264 228L121 8Q116 0 106 0H58Q50 0 45 5Z" />
<glyph unicode="y" glyph-name="y" horiz-adv-x="533" d="M174 -193T169 -187T167 -172L225 -6L26 544Q25 546 25 551Q25 557 29 561T41 566H87Q93 566 98 563T106 553L263 105L419 553Q421 559 426 562T438 566H482Q491 566 495 560T497 544L241 -180Q239 -186
234 -189T222 -193H183Q174 -193 169 -187Z" />
<glyph unicode="z" glyph-name="z" horiz-adv-x="476" d="M63 0T54 11T45 36Q45 45 49 52L323 492H69Q63 492 59 496T55 506V552Q55 558 59 562T69 566H393Q407 566 416 555T426 531Q426 522 421 514L147 74H417Q423 74 427 70T431 60V14Q431 8 427 4T417 0H77Q63
0 54 11Z" />
<glyph unicode="{" glyph-name="braceleft" horiz-adv-x="357" d="M201 -193T160 -150T119 -40V146Q119 189 116 209T101 244T60 267V346Q89 354 101 368T116 403T119 467V653Q119 719 160 762T273 806H303Q309 806 313 802T317 792V748Q317 742 313 738T303 734H272Q238
734 218 713T197 656V460Q197 410 193 382T174 335T131 307V306Q160 297 174 279T192 232T197 153V-43Q197 -78 217 -99T272 -121H303Q309 -121 313 -125T317 -135V-179Q317 -185 313 -189T303 -193H273Q201 -193 160 -150Z" />
<glyph unicode="|" glyph-name="bar" horiz-adv-x="373" d="M158 -193T154 -189T150 -179V775Q150 781 154 785T164 789H209Q215 789 219 785T223 775V-179Q223 -185 219 -189T209 -193H164Q158 -193 154 -189Z" />
<glyph unicode="}" glyph-name="braceright" horiz-adv-x="357" d="M48 -193T44 -189T40 -179V-135Q40 -129 44 -125T54 -121H85Q119 -121 139 -100T160 -43V153Q160 203 164 231T183 278T226 306V307Q197 316 183 334T165 381T160 460V656Q160 691 140 712T85
734H54Q48 734 44 738T40 748V792Q40 798 44 802T54 806H84Q156 806 197 763T238 653V467Q238 424 241 404T256 369T297 346V267Q268 259 256 245T241 210T238 146V-40Q238 -106 197 -149T84 -193H54Q48 -193 44 -189Z" />
<glyph unicode="&#xa0;" glyph-name="uni00A0" horiz-adv-x="270" />
<glyph unicode="&#xa1;" glyph-name="exclamdown" horiz-adv-x="326" d="M146 453T128 471T110 516Q110 542 128 560T172 579Q199 579 217 561T236 516Q236 490 218 472T172 453Q146 453 128 471ZM142 -130T138 -126T134 -116V339Q134 345 138 349T148 353H198Q204
353 208 349T212 339V-116Q212 -122 208 -126T198 -130H148Q142 -130 138 -126Z" />
<glyph unicode="&#xa2;" glyph-name="cent" horiz-adv-x="512" d="M420 89T431 76Q437 70 437 61Q437 53 431 47Q402 19 364 3T282 -13Q265 -13 248 -10L230 -115Q228 -121 224 -125T213 -129H173Q167 -129 164 -125T162 -115L184 10Q130 37 98 89T65 205V361Q65
420 94 470T173 550T282 579H284L302 681Q304 687 308 691T319 695H359Q365 695 368 691T370 681L350 568Q395 554 431 519Q437 513 437 505Q437 498 431 490Q421 479 408 467Q401 461 393 461Q384 461 377 468Q358 486 337 494L261 63Q275 61 282 61Q337 61 377
98Q384 105 393 105Q401 105 408 99Q420 89 431 76ZM143 167T158 138T198 89L271 505Q217 500 180 461T143 366V200Q143 167 158 138Z" />
<glyph unicode="&#xa3;" glyph-name="sterling" horiz-adv-x="562" d="M499 75T503 71T507 61V14Q507 8 503 4T493 0H114Q99 0 89 10T78 36V57L142 323H69Q63 323 59 327T55 337V383Q55 389 59 393T69 397H160L196 545Q235 708 382 708H472Q478 708 482 704T486
694V651Q486 645 482 641T472 637H385Q340 637 313 609T271 523L241 397H408Q414 397 418 393T422 383V337Q422 331 418 327T408 323H223L164 75H493Q499 75 503 71Z" />
<glyph unicode="&#xa4;" glyph-name="currency" horiz-adv-x="646" d="M85 104Q80 109 80 113Q80 118 85 123L143 181Q98 240 98 315Q98 390 143 449L85 507Q80 512 80 517Q80 521 85 526L112 553Q117 558 121 558Q126 558 131 553L189 496Q249 540 323 540Q397
540 457 496L515 553Q520 558 525 558Q529 558 534 553L561 526Q566 521 566 517Q566 512 561 507L503 449Q548 390 548 315Q548 240 503 181L561 123Q566 118 566 113Q566 109 561 104L534 77Q529 72 525 72Q520 72 515 77L457 134Q397 90 323 90Q248 90 189 135L131
77Q126 72 121 72Q117 72 112 77L85 104ZM367 153T404 174T463 233T485 315Q485 359 464 396T405 455T323 477Q279 477 242 456T183 397T161 315Q161 271 182 234T241 175T323 153Q367 153 404 174Z" />
<glyph unicode="&#xa5;" glyph-name="yen" horiz-adv-x="587" d="M532 695T537 691T542 678Q542 674 539 668L373 399H475Q481 399 485 395T489 385V346Q489 340 485 336T475 332H335V266H475Q481 266 485 262T489 252V213Q489 207 485 203T475 199H335V14Q335
8 331 4T321 0H267Q261 0 257 4T253 14V199H113Q107 199 103 203T99 213V252Q99 258 103 262T113 266H253V332H113Q107 332 103 336T99 346V385Q99 391 103 395T113 399H213L48 668Q45 674 45 678Q45 686 50 690T63 695H117Q126 695 132 686L294 419L455 686Q461
695 470 695H524Q532 695 537 691Z" />
<glyph unicode="&#xa6;" glyph-name="brokenbar" horiz-adv-x="373" d="M150 775Q150 781 154 785T164 789H209Q215 789 219 785T223 775V455H150V775ZM158 -193T154 -189T150 -179V141H223V-179Q223 -185 219 -189T209 -193H164Q158 -193 154 -189Z" />
<glyph unicode="&#xa7;" glyph-name="section" horiz-adv-x="592" d="M242 -206T195 -191T106 -148Q102 -146 101 -141T102 -132L122 -91Q124 -85 129 -83T141 -85Q178 -108 208 -118T274 -132Q286 -93 286 -58Q286 5 261 62T184 204Q133 288 107 348T80 476Q80
554 109 610T190 694T304 723Q392 723 474 673Q485 666 483 652L481 607Q481 599 475 596T461 597Q420 623 388 635T318 650Q306 610 306 575Q306 530 327 484T392 369Q431 306 454 261T495 160T512 41Q512 -37 483 -92T402 -177T288 -206Q242 -206 195 -191ZM394
-97T413 -57T432 36Q432 111 404 177T320 333Q273 412 250 464T226 570Q226 603 233 635Q198 614 179 574T160 481Q160 426 183 373T255 241Q292 180 313 139T350 48T366 -53Q366 -86 359 -118Q394 -97 413 -57Z" />
<glyph unicode="&#xa8;" glyph-name="dieresis" horiz-adv-x="588" d="M143 644T139 648T135 658V745Q135 751 139 755T149 759H197Q203 759 207 755T211 745V658Q211 652 207 648T197 644H149Q143 644 139 648ZM385 644T381 648T377 658V745Q377 751 381 755T391
759H439Q445 759 449 755T453 745V658Q453 652 449 648T439 644H391Q385 644 381 648Z" />
<glyph unicode="&#xa9;" glyph-name="copyright" horiz-adv-x="968" d="M374 -114T282 -60T135 87T80 290Q80 400 134 492T281 639T484 694Q594 694 686 640T833 493T888 290Q888 180 834 88T687 -59T484 -114Q374 -114 282 -60ZM577 -52T655 -6T780 118T826 290Q826
383 780 461T656 586T484 632Q391 632 313 586T188 462T142 290Q142 197 188 119T312 -6T484 -52Q577 -52 655 -6ZM441 57T405 78T347 136T326 215V365Q326 408 347 444T405 502T484 523Q560 523 604 476Q609 471 609 466Q609 461 604 456L586 437Q582 433 576
433Q569 433 563 439Q535 467 484 467Q443 467 414 437T384 365V215Q384 173 413 143T484 113Q535 113 563 141Q569 147 576 147Q582 147 586 143L604 124Q609 119 609 114Q609 109 604 104Q560 57 484 57Q441 57 405 78Z" />
<glyph unicode="&#xaa;" glyph-name="ordfeminine" horiz-adv-x="387" d="M120 379T93 404T65 469Q65 506 90 531T160 562L232 572Q248 574 254 581T260 604V609Q260 633 241 649T190 665Q147 665 121 629Q115 622 109 622Q106 622 100 625L85 635Q75 643 81 654Q98
681 127 696T192 711Q243 711 275 683T307 609V401Q307 395 303 391T293 386H278Q271 386 267 390T263 401V426Q245 403 220 391T164 379Q120 379 93 404ZM195 423T216 437T250 472T262 514V533Q228 530 201 525L164 520Q112 511 112 471Q112 449 127 436T169 423Q195
423 216 437Z" />
<glyph unicode="&#xab;" glyph-name="guillemotleft" horiz-adv-x="494" d="M55 241V319L205 433Q209 436 215 436Q220 436 223 433T227 423V373Q227 365 220 359L114 280L220 201Q227 195 227 187V137Q227 131 224 128T215 124Q209 124 205 127L55 241ZM267 241V319L417
433Q422 436 427 436Q432 436 435 433T439 423V373Q439 365 432 359L326 280L432 201Q439 195 439 187V137Q439 131 436 128T427 124Q422 124 417 127L267 241Z" />
<glyph unicode="&#xac;" glyph-name="logicalnot" horiz-adv-x="626" d="M499 159T495 163T491 173V335H79Q73 335 69 338T65 349V391Q65 398 69 401T79 405H547Q553 405 557 402T561 391V173Q561 167 557 163T547 159H505Q499 159 495 163Z" />
<glyph unicode="&#xad;" glyph-name="uni00AD" horiz-adv-x="456" d="M98 270T94 274T90 284V332Q90 338 94 342T104 346H352Q358 346 362 342T366 332V284Q366 278 362 274T352 270H104Q98 270 94 274Z" />
<glyph unicode="&#xae;" glyph-name="registered" horiz-adv-x="968" d="M374 -114T282 -60T135 87T80 290Q80 400 134 492T281 639T484 694Q594 694 686 640T833 493T888 290Q888 180 834 88T687 -59T484 -114Q374 -114 282 -60ZM577 -52T655 -6T780 118T826
290Q826 383 780 461T656 586T484 632Q391 632 313 586T188 462T142 290Q142 197 188 119T312 -6T484 -52Q577 -52 655 -6ZM366 65T363 68T359 77V489Q359 499 366 506T384 514H495Q531 514 561 497T608 449T626 383Q626 336 598 301T525 255L630 87Q632 85 632
80Q632 74 628 70T618 65H586Q578 65 573 73L462 252H416V77Q416 73 413 69T405 65H371Q366 65 363 68ZM491 305Q525 305 547 327T569 382Q569 416 547 438T491 460H416V305H491Z" />
<glyph unicode="&#xaf;" glyph-name="overscore" horiz-adv-x="588" d="M158 663T154 666T150 676V713Q150 719 154 722T164 726H424Q430 726 434 723T438 713V676Q438 670 434 667T424 663H164Q158 663 154 666Z" />
<glyph unicode="&#xb0;" glyph-name="degree" horiz-adv-x="412" d="M166 416T133 435T80 488T60 562Q60 602 79 635T132 688T206 708Q246 708 279 689T332 636T352 562Q352 522 333 489T280 436T206 416Q166 416 133 435ZM240 479T264 503T289 562Q289 596 265
620T206 645Q172 645 148 621T123 562Q123 528 147 504T206 479Q240 479 264 503Z" />
<glyph unicode="&#xb1;" glyph-name="plusminus" horiz-adv-x="586" d="M513 423T517 420T521 409V367Q521 360 517 357T507 353H329V173Q329 167 326 163T315 159H273Q266 159 263 163T259 173V353H79Q73 353 69 356T65 367V409Q65 416 69 419T79 423H259V601Q259
607 262 611T273 615H315Q322 615 325 611T329 601V423H507Q513 423 517 420ZM513 70T517 67T521 56V14Q521 7 517 4T507 0H79Q73 0 69 3T65 14V56Q65 63 69 66T79 70H507Q513 70 517 67Z" />
<glyph unicode="&#xb2;" glyph-name="uni00B2" horiz-adv-x="316" d="M67 359T60 366T52 384V425Q52 459 65 481T97 516T148 546Q185 565 197 580T210 616Q210 637 196 650T159 663Q128 663 88 638Q84 636 81 636Q75 636 72 641L57 667Q56 669 56 673Q56 681 62
685Q111 716 162 716Q208 716 236 691T265 622Q265 584 248 558T188 509Q180 505 155 492T118 464T106 431V411H244Q250 411 253 407T257 397V372Q257 367 253 363T244 359H77Q67 359 60 366Z" />
<glyph unicode="&#xb3;" glyph-name="uni00B3" horiz-adv-x="324" d="M115 346T85 362T36 408Q33 413 33 417Q33 424 38 427L59 442Q63 445 68 445Q76 445 81 437Q94 418 112 408T150 398Q178 398 196 417T215 465Q215 493 197 512T151 531H148L139 519Q136 514
129 514Q124 514 119 517L100 530Q96 533 95 537T97 547L170 650H76Q71 650 68 653T64 662V691Q64 696 67 699T76 703H214Q227 703 236 695T245 674Q245 663 238 655L182 577Q220 567 244 537T269 465Q269 416 234 381T150 346Q115 346 85 362Z" />
<glyph unicode="&#xb4;" glyph-name="acute" horiz-adv-x="588" d="M233 631T230 636T230 650L267 740Q275 759 295 759H362Q368 759 372 756T376 746Q376 740 372 736L291 643Q281 631 265 631H241Q233 631 230 636Z" />
<glyph unicode="&#xb5;" glyph-name="uni00B5" horiz-adv-x="599" d="M103 -193T99 -189T95 -179V552Q95 558 99 562T109 566H159Q165 566 169 562T173 552V191Q173 128 207 94T297 60Q364 60 405 104T446 225V552Q446 558 450 562T460 566H510Q516 566 520 562T524
552V14Q524 8 520 4T510 0H460Q454 0 450 4T446 14V70Q420 29 379 8T285 -13Q221 -13 173 21V-179Q173 -185 169 -189T159 -193H109Q103 -193 99 -189Z" />
<glyph unicode="&#xb6;" glyph-name="paragraph" horiz-adv-x="637" d="M277 -193T273 -189T269 -179V267Q211 267 162 296T84 374T55 481Q55 539 84 588T162 666T269 695H588Q594 695 598 691T602 681V635Q602 629 598 625T588 621H502V-179Q502 -185 498 -189T488
-193H442Q436 -193 432 -189T428 -179V621H343V-179Q343 -185 339 -189T329 -193H283Q277 -193 273 -189Z" />
<glyph unicode="&#xb7;" glyph-name="middot" horiz-adv-x="266" d="M107 216T89 234T70 279Q70 305 88 323T134 342Q160 342 178 324T196 279Q196 253 178 235T134 216Q107 216 89 234Z" />
<glyph unicode="&#xb8;" glyph-name="cedilla" horiz-adv-x="588" d="M241 -209Q230 -209 225 -199L211 -164Q210 -162 210 -159Q210 -152 219 -148Q252 -135 252 -98V-79Q252 -73 255 -69T265 -65H317Q324 -65 329 -70T334 -83V-94Q334 -142 306 -170T245 -209H241Z" />
<glyph unicode="&#xb9;" glyph-name="uni00B9" horiz-adv-x="293" d="M62 359T59 362T55 371V398Q55 403 58 406T67 410H120V644H85Q78 644 74 648T70 658V679L142 716H158Q164 716 168 712T173 701V410H226Q231 410 234 407T238 398V371Q238 366 235 363T226
359H67Q62 359 59 362Z" />
<glyph unicode="&#xba;" glyph-name="ordmasculine" horiz-adv-x="396" d="M147 379T111 415T75 502V588Q75 639 111 675T198 711Q249 711 285 675T321 588V502Q321 451 285 415T198 379Q147 379 111 415ZM228 426T250 447T272 499V591Q272 621 250 642T198 664Q168
664 146 643T124 591V499Q124 469 146 448T198 426Q228 426 250 447Z" />
<glyph unicode="&#xbb;" glyph-name="guillemotright" horiz-adv-x="494" d="M73 124T67 124Q62 124 59 127T55 137V187Q55 195 62 201L168 280L62 359Q55 365 55 373V423Q55 429 58 432T67 436Q72 436 77 433L227 319V241L77 127Q73 124 67 124ZM285 124T279
124Q274 124 271 127T267 137V187Q267 195 274 201L380 280L274 359Q267 365 267 373V423Q267 429 270 432T279 436Q284 436 289 433L439 319V241L289 127Q285 124 279 124Z" />
<glyph unicode="&#xbc;" glyph-name="onequarter" horiz-adv-x="701" d="M77 359T74 362T70 371V398Q70 403 73 406T82 410H135V644H100Q93 644 89 648T85 658V679L157 716H173Q179 716 183 712T188 701V410H241Q246 410 249 407T253 398V371Q253 366 250 363T241
359H82Q77 359 74 362ZM89 -13T86 -10T83 -2V46Q83 54 87 59L626 702Q630 707 636 707Q640 707 643 704T646 696V648Q646 640 642 635L103 -8Q99 -13 93 -13Q89 -13 86 -10ZM557 0T554 3T550 12V83H422Q414 83 407 89T400 105V128L532 341Q539 351 549 351H584Q592
351 597 346T603 333V134H631Q636 134 639 131T643 122V95Q643 90 640 87T631 83H603V12Q603 7 600 4T591 0H562Q557 0 554 3ZM550 134V274L463 134H550Z" />
<glyph unicode="&#xbd;" glyph-name="onehalf" horiz-adv-x="736" d="M73 359T70 362T66 371V398Q66 403 69 406T78 410H131V644H96Q89 644 85 648T81 658V679L153 716H169Q175 716 179 712T184 701V410H237Q242 410 245 407T249 398V371Q249 366 246 363T237
359H78Q73 359 70 362ZM90 -13T87 -10T84 -2V46Q84 54 88 59L627 702Q631 707 637 707Q641 707 644 704T647 696V648Q647 640 643 635L104 -8Q100 -13 94 -13Q90 -13 87 -10ZM473 0T466 7T458 25V66Q458 100 471 122T503 157T554 187Q591 206 603 221T616 257Q616
278 602 291T565 304Q534 304 494 279Q490 277 487 277Q481 277 478 282L463 308Q462 310 462 314Q462 322 468 326Q517 357 568 357Q614 357 642 332T671 263Q671 225 654 199T594 150Q586 146 561 133T524 105T512 72V52H650Q656 52 659 48T663 38V13Q663 8 659
4T650 0H483Q473 0 466 7Z" />
<glyph unicode="&#xbe;" glyph-name="threequarters" horiz-adv-x="723" d="M104 -13T101 -10T98 -2V46Q98 54 102 59L641 702Q645 707 651 707Q655 707 658 704T661 696V648Q661 640 657 635L118 -8Q114 -13 108 -13Q104 -13 101 -10ZM135 346T105 362T56 408Q53
413 53 417Q53 424 58 427L79 442Q84 445 88 445Q96 445 101 437Q114 418 132 408T170 398Q198 398 216 417T235 465Q235 493 217 512T171 531H168L159 519Q156 514 149 514Q143 514 139 517L120 530Q116 533 115 537T117 547L190 650H96Q91 650 88 653T84 662V691Q84
696 87 699T96 703H234Q247 703 256 695T265 674Q265 663 258 655L202 577Q240 567 264 537T289 465Q289 416 254 381T170 346Q135 346 105 362ZM582 0T579 3T575 12V83H447Q439 83 432 89T425 105V128L557 341Q564 351 574 351H609Q617 351 622 346T628 333V134H656Q661
134 664 131T668 122V95Q668 90 665 87T656 83H628V12Q628 7 625 4T616 0H587Q582 0 579 3ZM575 134V274L488 134H575Z" />
<glyph unicode="&#xbf;" glyph-name="questiondown" horiz-adv-x="455" d="M221 453T203 471T185 516Q185 542 203 560T247 579Q274 579 292 561T311 516Q311 490 293 472T247 453Q221 453 203 471ZM160 -137T115 -97T69 10Q69 55 88 86T140 150Q154 164 154 164Q194
203 211 225T228 274Q228 294 217 324L216 328Q216 337 224 340L267 359L275 361Q285 361 287 354Q309 311 309 269Q309 226 288 195T217 119Q183 87 165 63T147 11Q147 -21 171 -42T235 -64Q264 -64 292 -52T345 -21Q351 -17 355 -17Q361 -17 366 -24L386 -55Q390
-60 390 -66Q390 -76 381 -83Q354 -106 313 -121T228 -137Q160 -137 115 -97Z" />
<glyph unicode="&#xc0;" glyph-name="Agrave" horiz-adv-x="610" d="M42 0T38 6T36 22L253 682Q255 688 260 691T272 695H338Q344 695 349 692T357 682L574 22Q575 20 575 15Q575 9 571 5T559 0H510Q504 0 499 3T491 13L435 187H175L119 13Q118 7 112 4T100 0H51Q42
0 38 6ZM412 260L305 591L198 260H412ZM288 752T278 764L197 857Q193 861 193 867Q193 873 196 876T207 880H274Q294 880 302 861L339 771Q341 765 341 764Q341 759 338 756T328 752H304Q288 752 278 764Z" />
<glyph unicode="&#xc1;" glyph-name="Aacute" horiz-adv-x="610" d="M42 0T38 6T36 22L253 682Q255 688 260 691T272 695H338Q344 695 349 692T357 682L574 22Q575 20 575 15Q575 9 571 5T559 0H510Q504 0 499 3T491 13L435 187H175L119 13Q118 7 112 4T100 0H51Q42
0 38 6ZM412 260L305 591L198 260H412ZM283 752T280 757T280 771L317 861Q325 880 345 880H412Q418 880 422 877T426 867Q426 861 422 857L341 764Q331 752 315 752H291Q283 752 280 757Z" />
<glyph unicode="&#xc2;" glyph-name="Acircumflex" horiz-adv-x="610" d="M42 0T38 6T36 22L253 682Q255 688 260 691T272 695H338Q344 695 349 692T357 682L574 22Q575 20 575 15Q575 9 571 5T559 0H510Q504 0 499 3T491 13L435 187H175L119 13Q118 7 112 4T100
0H51Q42 0 38 6ZM412 260L305 591L198 260H412ZM176 752T173 758T174 771L255 871Q261 880 273 880H337Q349 880 355 871L436 771Q439 768 439 764Q439 759 436 756T426 752H393Q381 752 368 762L305 811L242 762Q229 752 218 752H184Q176 752 173 758Z" />
<glyph unicode="&#xc3;" glyph-name="Atilde" horiz-adv-x="610" d="M42 0T38 6T36 22L253 682Q255 688 260 691T272 695H338Q344 695 349 692T357 682L574 22Q575 20 575 15Q575 9 571 5T559 0H510Q504 0 499 3T491 13L435 187H175L119 13Q118 7 112 4T100 0H51Q42
0 38 6ZM412 260L305 591L198 260H412ZM354 764T337 769T295 783Q255 797 243 797Q230 797 223 793T209 780Q206 775 204 775T195 775L167 784Q158 787 159 797Q167 828 193 847T254 867Q271 867 288 862T331 848Q368 833 383 833Q405 833 416 850Q420 855 423
856T432 855L459 847Q470 843 467 834Q460 803 433 784T371 764Q354 764 337 769Z" />
<glyph unicode="&#xc4;" glyph-name="Adieresis" horiz-adv-x="610" d="M42 0T38 6T36 22L253 682Q255 688 260 691T272 695H338Q344 695 349 692T357 682L574 22Q575 20 575 15Q575 9 571 5T559 0H510Q504 0 499 3T491 13L435 187H175L119 13Q118 7 112 4T100
0H51Q42 0 38 6ZM412 260L305 591L198 260H412ZM154 765T150 769T146 779V866Q146 872 150 876T160 880H208Q214 880 218 876T222 866V779Q222 773 218 769T208 765H160Q154 765 150 769ZM396 765T392 769T388 779V866Q388 872 392 876T402 880H450Q456 880 460
876T464 866V779Q464 773 460 769T450 765H402Q396 765 392 769Z" />
<glyph unicode="&#xc5;" glyph-name="Aring" horiz-adv-x="610" d="M271 739T247 763T223 821Q223 855 247 879T305 903Q339 903 363 879T387 821Q387 787 363 763T305 739Q271 739 247 763ZM317 792T325 800T334 821Q334 833 326 841T305 850Q293 850 285 842T276
821Q276 809 284 801T305 792Q317 792 325 800ZM42 0T38 6T36 22L253 682Q255 688 260 691T272 695H338Q344 695 349 692T357 682L574 22Q575 20 575 15Q575 9 571 5T559 0H510Q504 0 499 3T491 13L435 187H175L119 13Q118 7 112 4T100 0H51Q42 0 38 6ZM412 260L305
591L198 260H412Z" />
<glyph unicode="&#xc6;" glyph-name="AE" horiz-adv-x="871" d="M8 0T4 3T0 12Q0 17 4 22L431 682Q439 695 454 695H802Q808 695 812 691T816 681V632Q816 626 812 622T802 618H519V404H735Q741 404 745 400T749 390V343Q749 337 745 333T735 329H519V77H802Q808
77 812 73T816 63V14Q816 8 812 4T802 0H473Q458 0 448 10T437 36V187H205L95 13Q87 0 71 0H14Q8 0 4 3ZM437 260V552L252 260H437Z" />
<glyph unicode="&#xc7;" glyph-name="Ccedilla" horiz-adv-x="546" d="M244 -13T189 20T102 109T70 231V465Q70 531 102 587T189 676T309 709Q362 709 408 691T489 637Q494 633 494 625Q494 618 489 612Q468 588 462 582Q455 577 448 577Q440 577 433 584Q383
632 310 632Q267 632 231 609T174 548T153 465V231Q153 187 174 149T231 87T310 64Q383 64 433 112Q440 119 448 119Q455 119 462 114Q468 108 489 84Q494 79 494 71Q494 64 489 59Q454 24 408 6T309 -13Q244 -13 189 20ZM257 -209Q246 -209 241 -199L227 -164Q226
-162 226 -159Q226 -152 235 -148Q268 -135 268 -98V-79Q268 -73 271 -69T281 -65H333Q340 -65 345 -70T350 -83V-94Q350 -142 322 -170T261 -209H257Z" />
<glyph unicode="&#xc8;" glyph-name="Egrave" horiz-adv-x="524" d="M111 0T101 10T90 36V659Q90 674 100 684T126 695H455Q461 695 465 691T469 681V632Q469 626 465 622T455 618H172V404H388Q394 404 398 400T402 390V343Q402 337 398 333T388 329H172V77H455Q461
77 465 73T469 63V14Q469 8 465 4T455 0H126Q111 0 101 10ZM263 752T253 764L172 857Q168 861 168 867Q168 873 171 876T182 880H249Q269 880 277 861L314 771Q316 765 316 764Q316 759 313 756T303 752H279Q263 752 253 764Z" />
<glyph unicode="&#xc9;" glyph-name="Eacute" horiz-adv-x="524" d="M111 0T101 10T90 36V659Q90 674 100 684T126 695H455Q461 695 465 691T469 681V632Q469 626 465 622T455 618H172V404H388Q394 404 398 400T402 390V343Q402 337 398 333T388 329H172V77H455Q461
77 465 73T469 63V14Q469 8 465 4T455 0H126Q111 0 101 10ZM258 752T255 757T255 771L292 861Q300 880 320 880H387Q393 880 397 877T401 867Q401 861 397 857L316 764Q306 752 290 752H266Q258 752 255 757Z" />
<glyph unicode="&#xca;" glyph-name="Ecircumflex" horiz-adv-x="524" d="M111 0T101 10T90 36V659Q90 674 100 684T126 695H455Q461 695 465 691T469 681V632Q469 626 465 622T455 618H172V404H388Q394 404 398 400T402 390V343Q402 337 398 333T388 329H172V77H455Q461
77 465 73T469 63V14Q469 8 465 4T455 0H126Q111 0 101 10ZM151 752T148 758T149 771L230 871Q236 880 248 880H312Q324 880 330 871L411 771Q414 768 414 764Q414 759 411 756T401 752H368Q356 752 343 762L280 811L217 762Q204 752 193 752H159Q151 752 148 758Z"
/>
<glyph unicode="&#xcb;" glyph-name="Edieresis" horiz-adv-x="524" d="M111 0T101 10T90 36V659Q90 674 100 684T126 695H455Q461 695 465 691T469 681V632Q469 626 465 622T455 618H172V404H388Q394 404 398 400T402 390V343Q402 337 398 333T388 329H172V77H455Q461
77 465 73T469 63V14Q469 8 465 4T455 0H126Q111 0 101 10ZM129 765T125 769T121 779V866Q121 872 125 876T135 880H183Q189 880 193 876T197 866V779Q197 773 193 769T183 765H135Q129 765 125 769ZM371 765T367 769T363 779V866Q363 872 367 876T377 880H425Q431
880 435 876T439 866V779Q439 773 435 769T425 765H377Q371 765 367 769Z" />
<glyph unicode="&#xcc;" glyph-name="Igrave" horiz-adv-x="442" d="M73 0T69 4T65 14V61Q65 67 69 71T79 75H180V620H79Q73 620 69 624T65 634V681Q65 687 69 691T79 695H363Q369 695 373 691T377 681V634Q377 628 373 624T363 620H262V75H363Q369 75 373 71T377
61V14Q377 8 373 4T363 0H79Q73 0 69 4ZM204 752T194 764L113 857Q109 861 109 867Q109 873 112 876T123 880H190Q210 880 218 861L255 771Q257 765 257 764Q257 759 254 756T244 752H220Q204 752 194 764Z" />
<glyph unicode="&#xcd;" glyph-name="Iacute" horiz-adv-x="442" d="M73 0T69 4T65 14V61Q65 67 69 71T79 75H180V620H79Q73 620 69 624T65 634V681Q65 687 69 691T79 695H363Q369 695 373 691T377 681V634Q377 628 373 624T363 620H262V75H363Q369 75 373 71T377
61V14Q377 8 373 4T363 0H79Q73 0 69 4ZM199 752T196 757T196 771L233 861Q241 880 261 880H328Q334 880 338 877T342 867Q342 861 338 857L257 764Q247 752 231 752H207Q199 752 196 757Z" />
<glyph unicode="&#xce;" glyph-name="Icircumflex" horiz-adv-x="442" d="M73 0T69 4T65 14V61Q65 67 69 71T79 75H180V620H79Q73 620 69 624T65 634V681Q65 687 69 691T79 695H363Q369 695 373 691T377 681V634Q377 628 373 624T363 620H262V75H363Q369 75 373
71T377 61V14Q377 8 373 4T363 0H79Q73 0 69 4ZM92 752T89 758T90 771L171 871Q177 880 189 880H253Q265 880 271 871L352 771Q355 768 355 764Q355 759 352 756T342 752H309Q297 752 284 762L221 811L158 762Q145 752 134 752H100Q92 752 89 758Z" />
<glyph unicode="&#xcf;" glyph-name="Idieresis" horiz-adv-x="442" d="M73 0T69 4T65 14V61Q65 67 69 71T79 75H180V620H79Q73 620 69 624T65 634V681Q65 687 69 691T79 695H363Q369 695 373 691T377 681V634Q377 628 373 624T363 620H262V75H363Q369 75 373
71T377 61V14Q377 8 373 4T363 0H79Q73 0 69 4ZM70 765T66 769T62 779V866Q62 872 66 876T76 880H124Q130 880 134 876T138 866V779Q138 773 134 769T124 765H76Q70 765 66 769ZM312 765T308 769T304 779V866Q304 872 308 876T318 880H366Q372 880 376 876T380
866V779Q380 773 376 769T366 765H318Q312 765 308 769Z" />
<glyph unicode="&#xd0;" glyph-name="Eth" horiz-adv-x="630" d="M375 695T435 660T530 564T565 431V264Q565 192 530 132T435 36T304 0H126Q111 0 101 10T90 36V314H27Q21 314 17 318T13 328V369Q13 375 17 379T27 383H90V659Q90 674 100 684T126 695H304Q375
695 435 660ZM483 439Q483 488 459 529T394 594T304 618H172V383H309Q315 383 319 379T323 369V328Q323 322 319 318T309 314H172V77H304Q353 77 394 101T459 166T483 257V439Z" />
<glyph unicode="&#xd1;" glyph-name="Ntilde" horiz-adv-x="680" d="M98 0T94 4T90 14V674Q90 683 96 689T111 695H170Q178 695 185 692T196 681L512 129V681Q512 687 516 691T526 695H576Q582 695 586 691T590 681V21Q590 12 584 6T569 0H509Q501 0 494 3T483
14L168 565V14Q168 8 164 4T154 0H104Q98 0 94 4ZM389 764T372 769T330 783Q290 797 278 797Q265 797 258 793T244 780Q241 775 239 775T230 775L202 784Q193 787 194 797Q202 828 228 847T289 867Q306 867 323 862T366 848Q403 833 418 833Q440 833 451 850Q455
855 458 856T467 855L494 847Q505 843 502 834Q495 803 468 784T406 764Q389 764 372 769Z" />
<glyph unicode="&#xd2;" glyph-name="Ograve" horiz-adv-x="630" d="M249 -13T193 20T103 109T70 231V464Q70 530 103 586T192 675T315 708Q381 708 437 675T527 586T560 464V231Q560 165 527 109T438 20T315 -13Q249 -13 193 20ZM359 64T396 87T456 148T478 231V464Q478
508 456 546T397 608T315 631Q271 631 234 608T174 547T152 464V231Q152 187 174 149T233 87T315 64Q359 64 396 87ZM298 752T288 764L207 857Q203 861 203 867Q203 873 206 876T217 880H284Q304 880 312 861L349 771Q351 765 351 764Q351 759 348 756T338 752H314Q298
752 288 764Z" />
<glyph unicode="&#xd3;" glyph-name="Oacute" horiz-adv-x="630" d="M249 -13T193 20T103 109T70 231V464Q70 530 103 586T192 675T315 708Q381 708 437 675T527 586T560 464V231Q560 165 527 109T438 20T315 -13Q249 -13 193 20ZM359 64T396 87T456 148T478 231V464Q478
508 456 546T397 608T315 631Q271 631 234 608T174 547T152 464V231Q152 187 174 149T233 87T315 64Q359 64 396 87ZM293 752T290 757T290 771L327 861Q335 880 355 880H422Q428 880 432 877T436 867Q436 861 432 857L351 764Q341 752 325 752H301Q293 752 290
757Z" />
<glyph unicode="&#xd4;" glyph-name="Ocircumflex" horiz-adv-x="630" d="M249 -13T193 20T103 109T70 231V464Q70 530 103 586T192 675T315 708Q381 708 437 675T527 586T560 464V231Q560 165 527 109T438 20T315 -13Q249 -13 193 20ZM359 64T396 87T456 148T478
231V464Q478 508 456 546T397 608T315 631Q271 631 234 608T174 547T152 464V231Q152 187 174 149T233 87T315 64Q359 64 396 87ZM186 752T183 758T184 771L265 871Q271 880 283 880H347Q359 880 365 871L446 771Q449 768 449 764Q449 759 446 756T436 752H403Q391
752 378 762L315 811L252 762Q239 752 228 752H194Q186 752 183 758Z" />
<glyph unicode="&#xd5;" glyph-name="Otilde" horiz-adv-x="630" d="M249 -13T193 20T103 109T70 231V464Q70 530 103 586T192 675T315 708Q381 708 437 675T527 586T560 464V231Q560 165 527 109T438 20T315 -13Q249 -13 193 20ZM359 64T396 87T456 148T478 231V464Q478
508 456 546T397 608T315 631Q271 631 234 608T174 547T152 464V231Q152 187 174 149T233 87T315 64Q359 64 396 87ZM364 764T347 769T305 783Q265 797 253 797Q240 797 233 793T219 780Q216 775 214 775T205 775L177 784Q168 787 169 797Q177 828 203 847T264
867Q281 867 298 862T341 848Q378 833 393 833Q415 833 426 850Q430 855 433 856T442 855L469 847Q480 843 477 834Q470 803 443 784T381 764Q364 764 347 769Z" />
<glyph unicode="&#xd6;" glyph-name="Odieresis" horiz-adv-x="630" d="M249 -13T193 20T103 109T70 231V464Q70 530 103 586T192 675T315 708Q381 708 437 675T527 586T560 464V231Q560 165 527 109T438 20T315 -13Q249 -13 193 20ZM359 64T396 87T456 148T478
231V464Q478 508 456 546T397 608T315 631Q271 631 234 608T174 547T152 464V231Q152 187 174 149T233 87T315 64Q359 64 396 87ZM164 765T160 769T156 779V866Q156 872 160 876T170 880H218Q224 880 228 876T232 866V779Q232 773 228 769T218 765H170Q164 765
160 769ZM406 765T402 769T398 779V866Q398 872 402 876T412 880H460Q466 880 470 876T474 866V779Q474 773 470 769T460 765H412Q406 765 402 769Z" />
<glyph unicode="&#xd7;" glyph-name="multiply" horiz-adv-x="517" d="M449 147Q452 141 452 136Q452 130 449 127L422 100Q417 95 411 95Q407 95 401 99L259 241L117 99Q111 95 107 95Q103 95 97 99L70 126Q65 133 65 137Q65 141 69 147L211 289L70 430Q66 434
66 440Q66 446 71 451L98 478Q101 481 107 481Q112 481 118 478L259 337L400 478Q404 482 410 482Q416 482 421 477L448 450Q452 446 452 440Q452 434 448 430L307 289L449 147Z" />
<glyph unicode="&#xd8;" glyph-name="Oslash" horiz-adv-x="644" d="M583 695T586 693T589 686Q589 683 586 678L529 593Q566 533 566 464V231Q566 165 533 109T444 20T321 -13Q277 -13 236 2T162 45L140 12Q137 7 131 4T119 0H66Q59 0 56 5T57 17L114 101Q76
161 76 231V464Q76 530 109 586T198 675T321 708Q366 708 407 692T482 648L505 683Q508 688 514 691T526 695H578Q583 695 586 693ZM158 206T166 179L436 581Q414 605 384 618T321 631Q277 631 240 608T180 547T158 464V231Q158 206 166 179ZM484 488T476 514L207
112Q230 90 259 77T321 64Q365 64 402 87T462 148T484 231V464Q484 488 476 514Z" />
<glyph unicode="&#xd9;" glyph-name="Ugrave" horiz-adv-x="671" d="M267 -13T211 20T123 113T90 251V681Q90 687 94 691T104 695H158Q164 695 168 691T172 681V246Q172 192 193 151T252 88T336 66Q382 66 419 88T477 151T499 246V681Q499 687 503 691T513 695H567Q573
695 577 691T581 681V251Q581 174 549 114T460 20T336 -13Q267 -13 211 20ZM318 752T308 764L227 857Q223 861 223 867Q223 873 226 876T237 880H304Q324 880 332 861L369 771Q371 765 371 764Q371 759 368 756T358 752H334Q318 752 308 764Z" />
<glyph unicode="&#xda;" glyph-name="Uacute" horiz-adv-x="671" d="M267 -13T211 20T123 113T90 251V681Q90 687 94 691T104 695H158Q164 695 168 691T172 681V246Q172 192 193 151T252 88T336 66Q382 66 419 88T477 151T499 246V681Q499 687 503 691T513 695H567Q573
695 577 691T581 681V251Q581 174 549 114T460 20T336 -13Q267 -13 211 20ZM313 752T310 757T310 771L347 861Q355 880 375 880H442Q448 880 452 877T456 867Q456 861 452 857L371 764Q361 752 345 752H321Q313 752 310 757Z" />
<glyph unicode="&#xdb;" glyph-name="Ucircumflex" horiz-adv-x="671" d="M267 -13T211 20T123 113T90 251V681Q90 687 94 691T104 695H158Q164 695 168 691T172 681V246Q172 192 193 151T252 88T336 66Q382 66 419 88T477 151T499 246V681Q499 687 503 691T513
695H567Q573 695 577 691T581 681V251Q581 174 549 114T460 20T336 -13Q267 -13 211 20ZM206 752T203 758T204 771L285 871Q291 880 303 880H367Q379 880 385 871L466 771Q469 768 469 764Q469 759 466 756T456 752H423Q411 752 398 762L335 811L272 762Q259 752
248 752H214Q206 752 203 758Z" />
<glyph unicode="&#xdc;" glyph-name="Udieresis" horiz-adv-x="671" d="M267 -13T211 20T123 113T90 251V681Q90 687 94 691T104 695H158Q164 695 168 691T172 681V246Q172 192 193 151T252 88T336 66Q382 66 419 88T477 151T499 246V681Q499 687 503 691T513
695H567Q573 695 577 691T581 681V251Q581 174 549 114T460 20T336 -13Q267 -13 211 20ZM184 765T180 769T176 779V866Q176 872 180 876T190 880H238Q244 880 248 876T252 866V779Q252 773 248 769T238 765H190Q184 765 180 769ZM426 765T422 769T418 779V866Q418
872 422 876T432 880H480Q486 880 490 876T494 866V779Q494 773 490 769T480 765H432Q426 765 422 769Z" />
<glyph unicode="&#xdd;" glyph-name="Yacute" horiz-adv-x="567" d="M251 0T247 4T243 14V335L38 668Q35 674 35 678Q35 686 40 690T53 695H107Q116 695 122 686L284 419L445 686Q451 695 460 695H514Q522 695 527 691T532 678Q532 674 529 668L325 338V14Q325
8 321 4T311 0H257Q251 0 247 4ZM262 752T259 757T259 771L296 861Q304 880 324 880H391Q397 880 401 877T405 867Q405 861 401 857L320 764Q310 752 294 752H270Q262 752 259 757Z" />
<glyph unicode="&#xde;" glyph-name="Thorn" horiz-adv-x="557" d="M98 0T94 4T90 14V681Q90 687 94 691T104 695H158Q164 695 168 691T172 681V566H294Q354 566 404 537T483 459T512 351Q512 292 483 243T404 165T294 136H172V14Q172 8 168 4T158 0H104Q98 0
94 4ZM289 213Q327 213 359 231T409 282T428 351Q428 388 410 420T359 470T289 489H172V213H289Z" />
<glyph unicode="&#xdf;" glyph-name="germandbls" horiz-adv-x="587" d="M98 -193T94 -189T90 -179V540Q90 607 116 659T190 741T302 771Q356 771 399 750T468 692T493 608Q493 554 466 518T389 443Q363 423 351 410T339 384Q339 370 354 359T401 330Q443 308
471 288T521 234T542 151Q542 102 520 66T460 10T375 -10Q346 -10 313 -3T259 14Q251 18 249 21T246 32L247 76Q247 83 251 86T262 87Q326 61 371 61Q412 61 438 84T464 147Q464 175 450 195T416 229T361 261Q311 287 286 310T260 373Q260 408 279 432T338 488Q377
520 396 543T415 601Q415 643 385 671T301 699Q237 699 203 656T168 535V-179Q168 -185 164 -189T154 -193H104Q98 -193 94 -189Z" />
<glyph unicode="&#xe0;" glyph-name="agrave" horiz-adv-x="560" d="M148 -13T99 30T50 145Q50 211 94 254T219 308L349 326Q378 330 391 345T404 390V398Q404 446 367 475T273 505Q229 505 197 488T145 439Q137 426 125 426Q119 426 112 431L85 449Q76 457 76
466Q76 470 79 476Q108 524 158 551T275 579Q335 579 382 557T454 493T480 398V14Q480 8 476 4T466 0H424Q418 0 414 4T410 14V83Q379 38 331 13T225 -13Q148 -13 99 30ZM282 57T322 83T384 148T407 226V267Q383 264 253 246L225 242Q125 227 125 148Q125 107 155
82T233 57Q282 57 322 83ZM257 631T247 643L166 736Q162 740 162 746Q162 752 165 755T176 759H243Q263 759 271 740L308 650Q310 644 310 643Q310 638 307 635T297 631H273Q257 631 247 643Z" />
<glyph unicode="&#xe1;" glyph-name="aacute" horiz-adv-x="560" d="M148 -13T99 30T50 145Q50 211 94 254T219 308L349 326Q378 330 391 345T404 390V398Q404 446 367 475T273 505Q229 505 197 488T145 439Q137 426 125 426Q119 426 112 431L85 449Q76 457 76
466Q76 470 79 476Q108 524 158 551T275 579Q335 579 382 557T454 493T480 398V14Q480 8 476 4T466 0H424Q418 0 414 4T410 14V83Q379 38 331 13T225 -13Q148 -13 99 30ZM282 57T322 83T384 148T407 226V267Q383 264 253 246L225 242Q125 227 125 148Q125 107 155
82T233 57Q282 57 322 83ZM252 631T249 636T249 650L286 740Q294 759 314 759H381Q387 759 391 756T395 746Q395 740 391 736L310 643Q300 631 284 631H260Q252 631 249 636Z" />
<glyph unicode="&#xe2;" glyph-name="acircumflex" horiz-adv-x="560" d="M148 -13T99 30T50 145Q50 211 94 254T219 308L349 326Q378 330 391 345T404 390V398Q404 446 367 475T273 505Q229 505 197 488T145 439Q137 426 125 426Q119 426 112 431L85 449Q76 457
76 466Q76 470 79 476Q108 524 158 551T275 579Q335 579 382 557T454 493T480 398V14Q480 8 476 4T466 0H424Q418 0 414 4T410 14V83Q379 38 331 13T225 -13Q148 -13 99 30ZM282 57T322 83T384 148T407 226V267Q383 264 253 246L225 242Q125 227 125 148Q125 107
155 82T233 57Q282 57 322 83ZM145 631T142 637T143 650L224 750Q230 759 242 759H306Q318 759 324 750L405 650Q408 647 408 643Q408 638 405 635T395 631H362Q350 631 337 641L274 690L211 641Q198 631 187 631H153Q145 631 142 637Z" />
<glyph unicode="&#xe3;" glyph-name="atilde" horiz-adv-x="560" d="M148 -13T99 30T50 145Q50 211 94 254T219 308L349 326Q378 330 391 345T404 390V398Q404 446 367 475T273 505Q229 505 197 488T145 439Q137 426 125 426Q119 426 112 431L85 449Q76 457 76
466Q76 470 79 476Q108 524 158 551T275 579Q335 579 382 557T454 493T480 398V14Q480 8 476 4T466 0H424Q418 0 414 4T410 14V83Q379 38 331 13T225 -13Q148 -13 99 30ZM282 57T322 83T384 148T407 226V267Q383 264 253 246L225 242Q125 227 125 148Q125 107 155
82T233 57Q282 57 322 83ZM323 643T306 648T264 662Q224 676 212 676Q199 676 192 672T178 659Q175 654 173 654T164 654L136 663Q127 666 128 676Q136 707 162 726T223 746Q240 746 257 741T300 727Q337 712 352 712Q374 712 385 729Q389 734 392 735T401 734L428
726Q439 722 436 713Q429 682 402 663T340 643Q323 643 306 648Z" />
<glyph unicode="&#xe4;" glyph-name="adieresis" horiz-adv-x="560" d="M148 -13T99 30T50 145Q50 211 94 254T219 308L349 326Q378 330 391 345T404 390V398Q404 446 367 475T273 505Q229 505 197 488T145 439Q137 426 125 426Q119 426 112 431L85 449Q76 457
76 466Q76 470 79 476Q108 524 158 551T275 579Q335 579 382 557T454 493T480 398V14Q480 8 476 4T466 0H424Q418 0 414 4T410 14V83Q379 38 331 13T225 -13Q148 -13 99 30ZM282 57T322 83T384 148T407 226V267Q383 264 253 246L225 242Q125 227 125 148Q125 107
155 82T233 57Q282 57 322 83ZM123 644T119 648T115 658V745Q115 751 119 755T129 759H177Q183 759 187 755T191 745V658Q191 652 187 648T177 644H129Q123 644 119 648ZM365 644T361 648T357 658V745Q357 751 361 755T371 759H419Q425 759 429 755T433 745V658Q433
652 429 648T419 644H371Q365 644 361 648Z" />
<glyph unicode="&#xe5;" glyph-name="aring" horiz-adv-x="560" d="M148 -13T99 30T50 145Q50 211 94 254T219 308L349 326Q378 330 391 345T404 390V398Q404 446 367 475T273 505Q229 505 197 488T145 439Q137 426 125 426Q119 426 112 431L85 449Q76 457 76
466Q76 470 79 476Q108 524 158 551T275 579Q335 579 382 557T454 493T480 398V14Q480 8 476 4T466 0H424Q418 0 414 4T410 14V83Q379 38 331 13T225 -13Q148 -13 99 30ZM282 57T322 83T384 148T407 226V267Q383 264 253 246L225 242Q125 227 125 148Q125 107 155
82T233 57Q282 57 322 83ZM240 617T216 641T192 699Q192 733 216 757T274 781Q308 781 332 757T356 699Q356 665 332 641T274 617Q240 617 216 641ZM286 670T294 678T303 699Q303 711 295 719T274 728Q262 728 254 720T245 699Q245 687 253 679T274 670Q286 670
294 678Z" />
<glyph unicode="&#xe6;" glyph-name="ae" horiz-adv-x="899" d="M148 -13T99 30T50 145Q50 211 94 254T219 308L349 326Q378 330 391 345T404 390V398Q404 446 367 475T273 505Q229 505 197 488T145 439Q137 426 125 426Q119 426 112 431L85 449Q76 457 76 466Q76
470 79 476Q108 524 158 551T275 579Q335 579 381 557T453 495Q483 534 527 556T624 579Q683 579 733 550T812 471T841 361V293Q841 278 831 268T805 257H485V213Q485 175 503 143T554 93T624 74H769Q775 74 779 70T783 60V14Q783 8 779 4T769 0H624Q564 0 514
29T436 109Q405 53 348 20T225 -13Q148 -13 99 30ZM763 329V366Q763 404 745 436T694 486T624 505Q586 505 554 487T504 436T485 366V329H763ZM282 57T322 83T384 148T407 226V267Q383 264 253 246L225 242Q125 227 125 148Q125 107 155 82T233 57Q282 57 322 83Z"
/>
<glyph unicode="&#xe7;" glyph-name="ccedilla" horiz-adv-x="492" d="M223 -13T173 16T94 95T65 205V361Q65 420 94 470T173 550T282 579Q325 579 363 563T431 519Q437 513 437 505Q437 498 431 490Q421 479 408 467Q401 461 393 461Q384 461 377 468Q337 505
282 505Q244 505 212 487T162 436T143 366V200Q143 162 161 130T212 80T282 61Q337 61 377 98Q384 105 393 105Q401 105 408 99Q420 89 431 76Q437 70 437 61Q437 53 431 47Q402 19 364 3T282 -13Q223 -13 173 16ZM230 -209Q219 -209 214 -199L200 -164Q199 -162
199 -159Q199 -152 208 -148Q241 -135 241 -98V-79Q241 -73 244 -69T254 -65H306Q313 -65 318 -70T323 -83V-94Q323 -142 295 -170T234 -209H230Z" />
<glyph unicode="&#xe8;" glyph-name="egrave" horiz-adv-x="557" d="M223 0T173 29T94 108T65 218V361Q65 420 94 470T173 550T282 579Q341 579 391 550T470 471T499 361V293Q499 278 489 268T463 257H143V213Q143 175 161 143T212 93T282 74H427Q433 74 437 70T441
60V14Q441 8 437 4T427 0H282Q223 0 173 29ZM421 329V366Q421 404 403 436T352 486T282 505Q244 505 212 487T162 436T143 366V329H421ZM265 631T255 643L174 736Q170 740 170 746Q170 752 173 755T184 759H251Q271 759 279 740L316 650Q318 644 318 643Q318 638
315 635T305 631H281Q265 631 255 643Z" />
<glyph unicode="&#xe9;" glyph-name="eacute" horiz-adv-x="557" d="M223 0T173 29T94 108T65 218V361Q65 420 94 470T173 550T282 579Q341 579 391 550T470 471T499 361V293Q499 278 489 268T463 257H143V213Q143 175 161 143T212 93T282 74H427Q433 74 437 70T441
60V14Q441 8 437 4T427 0H282Q223 0 173 29ZM421 329V366Q421 404 403 436T352 486T282 505Q244 505 212 487T162 436T143 366V329H421ZM260 631T257 636T257 650L294 740Q302 759 322 759H389Q395 759 399 756T403 746Q403 740 399 736L318 643Q308 631 292 631H268Q260
631 257 636Z" />
<glyph unicode="&#xea;" glyph-name="ecircumflex" horiz-adv-x="557" d="M223 0T173 29T94 108T65 218V361Q65 420 94 470T173 550T282 579Q341 579 391 550T470 471T499 361V293Q499 278 489 268T463 257H143V213Q143 175 161 143T212 93T282 74H427Q433 74
437 70T441 60V14Q441 8 437 4T427 0H282Q223 0 173 29ZM421 329V366Q421 404 403 436T352 486T282 505Q244 505 212 487T162 436T143 366V329H421ZM153 631T150 637T151 650L232 750Q238 759 250 759H314Q326 759 332 750L413 650Q416 647 416 643Q416 638 413
635T403 631H370Q358 631 345 641L282 690L219 641Q206 631 195 631H161Q153 631 150 637Z" />
<glyph unicode="&#xeb;" glyph-name="edieresis" horiz-adv-x="557" d="M223 0T173 29T94 108T65 218V361Q65 420 94 470T173 550T282 579Q341 579 391 550T470 471T499 361V293Q499 278 489 268T463 257H143V213Q143 175 161 143T212 93T282 74H427Q433 74 437
70T441 60V14Q441 8 437 4T427 0H282Q223 0 173 29ZM421 329V366Q421 404 403 436T352 486T282 505Q244 505 212 487T162 436T143 366V329H421ZM131 644T127 648T123 658V745Q123 751 127 755T137 759H185Q191 759 195 755T199 745V658Q199 652 195 648T185 644H137Q131
644 127 648ZM373 644T369 648T365 658V745Q365 751 369 755T379 759H427Q433 759 437 755T441 745V658Q441 652 437 648T427 644H379Q373 644 369 648Z" />
<glyph unicode="&#xec;" glyph-name="igrave" horiz-adv-x="393" d="M184 0T174 10T163 36V492H59Q53 492 49 496T45 506V552Q45 558 49 562T59 566H205Q220 566 230 556T241 530V74H344Q350 74 354 70T358 60V14Q358 8 354 4T344 0H199Q184 0 174 10ZM174 631T164
643L83 736Q79 740 79 746Q79 752 82 755T93 759H160Q180 759 188 740L225 650Q227 644 227 643Q227 638 224 635T214 631H190Q174 631 164 643Z" />
<glyph unicode="&#xed;" glyph-name="iacute" horiz-adv-x="393" d="M184 0T174 10T163 36V492H59Q53 492 49 496T45 506V552Q45 558 49 562T59 566H205Q220 566 230 556T241 530V74H344Q350 74 354 70T358 60V14Q358 8 354 4T344 0H199Q184 0 174 10ZM169 631T166
636T166 650L203 740Q211 759 231 759H298Q304 759 308 756T312 746Q312 740 308 736L227 643Q217 631 201 631H177Q169 631 166 636Z" />
<glyph unicode="&#xee;" glyph-name="icircumflex" horiz-adv-x="393" d="M184 0T174 10T163 36V492H59Q53 492 49 496T45 506V552Q45 558 49 562T59 566H205Q220 566 230 556T241 530V74H344Q350 74 354 70T358 60V14Q358 8 354 4T344 0H199Q184 0 174 10ZM62
631T59 637T60 650L141 750Q147 759 159 759H223Q235 759 241 750L322 650Q325 647 325 643Q325 638 322 635T312 631H279Q267 631 254 641L191 690L128 641Q115 631 104 631H70Q62 631 59 637Z" />
<glyph unicode="&#xef;" glyph-name="idieresis" horiz-adv-x="393" d="M184 0T174 10T163 36V492H59Q53 492 49 496T45 506V552Q45 558 49 562T59 566H205Q220 566 230 556T241 530V74H344Q350 74 354 70T358 60V14Q358 8 354 4T344 0H199Q184 0 174 10ZM40 644T36
648T32 658V745Q32 751 36 755T46 759H94Q100 759 104 755T108 745V658Q108 652 104 648T94 644H46Q40 644 36 648ZM282 644T278 648T274 658V745Q274 751 278 755T288 759H336Q342 759 346 755T350 745V658Q350 652 346 648T336 644H288Q282 644 278 648Z" />
<glyph unicode="&#xf0;" glyph-name="eth" horiz-adv-x="574" d="M223 -13T173 16T94 95T65 205V308Q65 368 94 418T173 497T282 526Q352 526 409 485Q390 567 332 622L194 557Q192 556 189 556Q184 556 181 559T177 568V608Q177 613 180 618T188 625L269 663Q218
686 157 686Q152 686 148 690T144 700V745Q144 751 148 755T159 759Q269 759 351 701L472 758Q474 759 477 759Q482 759 485 756T489 747V707Q489 702 486 697T478 690L403 655Q433 623 458 574Q482 523 490 462T499 316V205Q499 146 470 96T391 16T282 -13Q223
-13 173 16ZM320 61T352 79T402 130T421 200V313Q421 351 403 383T352 433T282 452Q244 452 212 434T162 383T143 313V200Q143 162 161 130T212 80T282 61Q320 61 352 79Z" />
<glyph unicode="&#xf1;" glyph-name="ntilde" horiz-adv-x="594" d="M98 1T94 5T90 15V552Q90 558 94 562T104 566H154Q160 566 164 562T168 552V497Q194 538 235 559T329 580Q414 580 466 528T519 391V15Q519 9 515 5T505 1H455Q449 1 445 5T441 15V376Q441 440
408 473T317 507Q250 507 209 463T168 342V15Q168 9 164 5T154 1H104Q98 1 94 5ZM354 643T337 648T295 662Q255 676 243 676Q230 676 223 672T209 659Q206 654 204 654T195 654L167 663Q158 666 159 676Q167 707 193 726T254 746Q271 746 288 741T331 727Q368 712
383 712Q405 712 416 729Q420 734 423 735T432 734L459 726Q470 722 467 713Q460 682 433 663T371 643Q354 643 337 648Z" />
<glyph unicode="&#xf2;" glyph-name="ograve" horiz-adv-x="564" d="M223 -13T173 16T94 95T65 205V361Q65 420 94 470T173 550T282 579Q341 579 391 550T470 471T499 361V205Q499 146 470 96T391 16T282 -13Q223 -13 173 16ZM320 61T352 79T402 130T421 200V366Q421
404 403 436T352 486T282 505Q244 505 212 487T162 436T143 366V200Q143 162 161 130T212 80T282 61Q320 61 352 79ZM263 631T253 643L172 736Q168 740 168 746Q168 752 171 755T182 759H249Q269 759 277 740L314 650Q316 644 316 643Q316 638 313 635T303 631H279Q263
631 253 643Z" />
<glyph unicode="&#xf3;" glyph-name="oacute" horiz-adv-x="564" d="M223 -13T173 16T94 95T65 205V361Q65 420 94 470T173 550T282 579Q341 579 391 550T470 471T499 361V205Q499 146 470 96T391 16T282 -13Q223 -13 173 16ZM320 61T352 79T402 130T421 200V366Q421
404 403 436T352 486T282 505Q244 505 212 487T162 436T143 366V200Q143 162 161 130T212 80T282 61Q320 61 352 79ZM258 631T255 636T255 650L292 740Q300 759 320 759H387Q393 759 397 756T401 746Q401 740 397 736L316 643Q306 631 290 631H266Q258 631 255
636Z" />
<glyph unicode="&#xf4;" glyph-name="ocircumflex" horiz-adv-x="564" d="M223 -13T173 16T94 95T65 205V361Q65 420 94 470T173 550T282 579Q341 579 391 550T470 471T499 361V205Q499 146 470 96T391 16T282 -13Q223 -13 173 16ZM320 61T352 79T402 130T421
200V366Q421 404 403 436T352 486T282 505Q244 505 212 487T162 436T143 366V200Q143 162 161 130T212 80T282 61Q320 61 352 79ZM151 631T148 637T149 650L230 750Q236 759 248 759H312Q324 759 330 750L411 650Q414 647 414 643Q414 638 411 635T401 631H368Q356
631 343 641L280 690L217 641Q204 631 193 631H159Q151 631 148 637Z" />
<glyph unicode="&#xf5;" glyph-name="otilde" horiz-adv-x="564" d="M223 -13T173 16T94 95T65 205V361Q65 420 94 470T173 550T282 579Q341 579 391 550T470 471T499 361V205Q499 146 470 96T391 16T282 -13Q223 -13 173 16ZM320 61T352 79T402 130T421 200V366Q421
404 403 436T352 486T282 505Q244 505 212 487T162 436T143 366V200Q143 162 161 130T212 80T282 61Q320 61 352 79ZM329 643T312 648T270 662Q230 676 218 676Q205 676 198 672T184 659Q181 654 179 654T170 654L142 663Q133 666 134 676Q142 707 168 726T229
746Q246 746 263 741T306 727Q343 712 358 712Q380 712 391 729Q395 734 398 735T407 734L434 726Q445 722 442 713Q435 682 408 663T346 643Q329 643 312 648Z" />
<glyph unicode="&#xf6;" glyph-name="odieresis" horiz-adv-x="564" d="M223 -13T173 16T94 95T65 205V361Q65 420 94 470T173 550T282 579Q341 579 391 550T470 471T499 361V205Q499 146 470 96T391 16T282 -13Q223 -13 173 16ZM320 61T352 79T402 130T421 200V366Q421
404 403 436T352 486T282 505Q244 505 212 487T162 436T143 366V200Q143 162 161 130T212 80T282 61Q320 61 352 79ZM129 644T125 648T121 658V745Q121 751 125 755T135 759H183Q189 759 193 755T197 745V658Q197 652 193 648T183 644H135Q129 644 125 648ZM371
644T367 648T363 658V745Q363 751 367 755T377 759H425Q431 759 435 755T439 745V658Q439 652 435 648T425 644H377Q371 644 367 648Z" />
<glyph unicode="&#xf7;" glyph-name="divide" horiz-adv-x="626" d="M289 407T271 425T253 468Q253 491 271 509T312 527Q337 527 355 509T373 468Q373 444 355 426T312 407Q289 407 271 425ZM73 254T69 257T65 268V310Q65 317 69 320T79 324H547Q553 324 557
321T561 310V268Q561 261 557 258T547 254H79Q73 254 69 257ZM289 51T271 69T253 112Q253 135 271 153T312 171Q337 171 355 153T373 112Q373 88 355 70T312 51Q289 51 271 69Z" />
<glyph unicode="&#xf8;" glyph-name="oslash" horiz-adv-x="564" d="M455 501T477 457T499 361V205Q499 146 470 96T391 16T282 -13Q240 -13 202 2L155 -112Q150 -124 137 -124H92Q88 -124 86 -121T85 -113L146 35Q108 65 87 109T65 205V361Q65 420 94 470T173
550T282 579Q324 579 362 564L409 678Q413 690 427 690H471Q475 690 477 687T478 679L418 531Q455 501 477 457ZM143 148T176 110L334 495Q307 505 282 505Q244 505 212 487T162 436T143 366V200Q143 148 176 110ZM421 366Q421 418 387 457L230 71Q257 61 282 61Q320
61 352 79T402 130T421 200V366Z" />
<glyph unicode="&#xf9;" glyph-name="ugrave" horiz-adv-x="594" d="M180 -13T128 39T75 176V552Q75 558 79 562T89 566H139Q145 566 149 562T153 552V191Q153 128 187 94T277 60Q344 60 385 104T426 225V552Q426 558 430 562T440 566H490Q496 566 500 562T504
552V14Q504 8 500 4T490 0H440Q434 0 430 4T426 14V70Q400 29 359 8T265 -13Q180 -13 128 39ZM271 631T261 643L180 736Q176 740 176 746Q176 752 179 755T190 759H257Q277 759 285 740L322 650Q324 644 324 643Q324 638 321 635T311 631H287Q271 631 261 643Z"
/>
<glyph unicode="&#xfa;" glyph-name="uacute" horiz-adv-x="594" d="M180 -13T128 39T75 176V552Q75 558 79 562T89 566H139Q145 566 149 562T153 552V191Q153 128 187 94T277 60Q344 60 385 104T426 225V552Q426 558 430 562T440 566H490Q496 566 500 562T504
552V14Q504 8 500 4T490 0H440Q434 0 430 4T426 14V70Q400 29 359 8T265 -13Q180 -13 128 39ZM266 631T263 636T263 650L300 740Q308 759 328 759H395Q401 759 405 756T409 746Q409 740 405 736L324 643Q314 631 298 631H274Q266 631 263 636Z" />
<glyph unicode="&#xfb;" glyph-name="ucircumflex" horiz-adv-x="594" d="M180 -13T128 39T75 176V552Q75 558 79 562T89 566H139Q145 566 149 562T153 552V191Q153 128 187 94T277 60Q344 60 385 104T426 225V552Q426 558 430 562T440 566H490Q496 566 500 562T504
552V14Q504 8 500 4T490 0H440Q434 0 430 4T426 14V70Q400 29 359 8T265 -13Q180 -13 128 39ZM159 631T156 637T157 650L238 750Q244 759 256 759H320Q332 759 338 750L419 650Q422 647 422 643Q422 638 419 635T409 631H376Q364 631 351 641L288 690L225 641Q212
631 201 631H167Q159 631 156 637Z" />
<glyph unicode="&#xfc;" glyph-name="udieresis" horiz-adv-x="594" d="M180 -13T128 39T75 176V552Q75 558 79 562T89 566H139Q145 566 149 562T153 552V191Q153 128 187 94T277 60Q344 60 385 104T426 225V552Q426 558 430 562T440 566H490Q496 566 500 562T504
552V14Q504 8 500 4T490 0H440Q434 0 430 4T426 14V70Q400 29 359 8T265 -13Q180 -13 128 39ZM137 644T133 648T129 658V745Q129 751 133 755T143 759H191Q197 759 201 755T205 745V658Q205 652 201 648T191 644H143Q137 644 133 648ZM379 644T375 648T371 658V745Q371
751 375 755T385 759H433Q439 759 443 755T447 745V658Q447 652 443 648T433 644H385Q379 644 375 648Z" />
<glyph unicode="&#xfd;" glyph-name="yacute" horiz-adv-x="533" d="M174 -193T169 -187T167 -172L225 -6L26 544Q25 546 25 551Q25 557 29 561T41 566H87Q93 566 98 563T106 553L263 105L419 553Q421 559 426 562T438 566H482Q491 566 495 560T497 544L241 -180Q239
-186 234 -189T222 -193H183Q174 -193 169 -187ZM245 631T242 636T242 650L279 740Q287 759 307 759H374Q380 759 384 756T388 746Q388 740 384 736L303 643Q293 631 277 631H253Q245 631 242 636Z" />
<glyph unicode="&#xfe;" glyph-name="thorn" horiz-adv-x="590" d="M98 -193T94 -189T90 -179V745Q90 751 94 755T104 759H150Q156 759 160 755T164 745V513Q193 544 232 561T316 579Q373 579 421 551T497 475T525 370V196Q525 139 497 91T421 15T316 -13Q273
-13 235 3T168 49V-179Q168 -185 164 -189T154 -193H104Q98 -193 94 -189ZM346 61T378 79T428 130T447 200V366Q447 404 429 436T378 486T308 505Q270 505 238 487T187 436T168 366V200Q168 162 186 130T237 80T308 61Q346 61 378 79Z" />
<glyph unicode="&#xff;" glyph-name="ydieresis" horiz-adv-x="533" d="M174 -193T169 -187T167 -172L225 -6L26 544Q25 546 25 551Q25 557 29 561T41 566H87Q93 566 98 563T106 553L263 105L419 553Q421 559 426 562T438 566H482Q491 566 495 560T497 544L241
-180Q239 -186 234 -189T222 -193H183Q174 -193 169 -187ZM116 644T112 648T108 658V745Q108 751 112 755T122 759H170Q176 759 180 755T184 745V658Q184 652 180 648T170 644H122Q116 644 112 648ZM358 644T354 648T350 658V745Q350 751 354 755T364 759H412Q418
759 422 755T426 745V658Q426 652 422 648T412 644H364Q358 644 354 648Z" />
<glyph unicode="&#x2013;" glyph-name="endash" horiz-adv-x="738" d="M108 270T104 274T100 284V332Q100 338 104 342T114 346H624Q630 346 634 342T638 332V284Q638 278 634 274T624 270H114Q108 270 104 274Z" />
<glyph unicode="&#x2014;" glyph-name="emdash" horiz-adv-x="1022" d="M108 270T104 274T100 284V332Q100 338 104 342T114 346H908Q914 346 918 342T922 332V284Q922 278 918 274T908 270H114Q108 270 104 274Z" />
<glyph unicode="&#x2018;" glyph-name="quoteleft" horiz-adv-x="258" d="M63 462T58 469T56 486L148 695H185Q195 695 200 688T202 670L155 472Q154 467 150 465T141 462H73Q63 462 58 469Z" />
<glyph unicode="&#x2019;" glyph-name="quoteright" horiz-adv-x="258" d="M63 462T58 469T56 487L103 685Q104 690 108 692T117 695H185Q195 695 200 688T202 671L110 462H73Q63 462 58 469Z" />
<glyph unicode="&#x201a;" glyph-name="quotesinglbase" horiz-adv-x="258" d="M63 -130T58 -123T56 -105L103 93Q104 98 108 100T117 103H185Q195 103 200 96T202 79L110 -130H73Q63 -130 58 -123Z" />
<glyph unicode="&#x201c;" glyph-name="quotedblleft" horiz-adv-x="427" d="M63 462T58 469T56 486L148 695H185Q195 695 200 688T202 670L155 472Q154 467 150 465T141 462H73Q63 462 58 469ZM232 462T227 469T225 486L317 695H354Q364 695 369 688T371 670L324
472Q323 467 319 465T310 462H242Q232 462 227 469Z" />
<glyph unicode="&#x201d;" glyph-name="quotedblright" horiz-adv-x="427" d="M63 462T58 469T56 487L103 685Q104 690 108 692T117 695H185Q195 695 200 688T202 671L110 462H73Q63 462 58 469ZM232 462T227 469T225 487L272 685Q273 690 277 692T286 695H354Q364
695 369 688T371 671L279 462H242Q232 462 227 469Z" />
<glyph unicode="&#x201e;" glyph-name="quotedblbase" horiz-adv-x="427" d="M63 -130T58 -123T56 -105L103 93Q104 98 108 100T117 103H185Q195 103 200 96T202 79L110 -130H73Q63 -130 58 -123ZM232 -130T227 -123T225 -105L272 93Q273 98 277 100T286 103H354Q364
103 369 96T371 79L279 -130H242Q232 -130 227 -123Z" />
<glyph unicode="&#x2022;" glyph-name="bullet" horiz-adv-x="428" d="M168 179T134 213T100 293Q100 340 133 373T214 407Q261 407 294 374T328 293Q328 246 295 213T214 179Q168 179 134 213Z" />
<glyph unicode="&#x2039;" glyph-name="guilsinglleft" horiz-adv-x="282" d="M55 241V319L205 433Q209 436 215 436Q220 436 223 433T227 423V373Q227 365 220 359L114 280L220 201Q227 195 227 187V137Q227 131 224 128T215 124Q209 124 205 127L55 241Z" />
<glyph unicode="&#x203a;" glyph-name="guilsinglright" horiz-adv-x="282" d="M73 124T67 124Q62 124 59 127T55 137V187Q55 195 62 201L168 280L62 359Q55 365 55 373V423Q55 429 58 432T67 436Q72 436 77 433L227 319V241L77 127Q73 124 67 124Z" />
</font>
</defs>
</svg>
