<?xml version="1.0" encoding="utf-8"?>
<!-- Generator: Adobe Illustrator 23.0.2, SVG Export Plug-In . SVG Version: 6.00 Build 0)  -->
<svg version="1.1" id="Layer_1" xmlns="http://www.w3.org/2000/svg" xmlns:xlink="http://www.w3.org/1999/xlink" x="0px" y="0px"
	 viewBox="0 0 1200 628" style="enable-background:new 0 0 1200 628;" xml:space="preserve">
<style type="text/css">
	.st0{fill:#FFFFFF;}
	.st1{opacity:0.99;fill:#FFFFFF;}
</style>
<path class="st0" d="M99.88,134.04v359.83h358.09V134.04H99.88z M220.31,186.76h69.62v115.76l-69.62,69.88V186.76z M407.81,443.28
	H150.41l69.55-69.95h187.86V443.28z"/>
<g>
	<path class="st0" d="M530.69,206.72v-0.43c0-11.5,7.88-19.53,18.48-19.53c8.73,0,15.49,4.39,16.35,13.38h-7.19
		c-0.8-5.08-3.62-7.71-9.11-7.71c-6.71,0-11.07,5.24-11.07,13.81v0.43c0,8.62,4.1,13.7,11.13,13.7c5.27,0,9-2.68,9.75-8.08h6.92
		c-1.12,9.2-7.61,13.86-16.67,13.86C537.35,226.14,530.69,218.49,530.69,206.72z"/>
	<path class="st0" d="M575.47,206.72v-0.43c0-11.18,7.99-19.48,19.28-19.48c11.34,0,19.17,8.08,19.17,19.32v0.43
		c0,11.18-7.62,19.58-19.17,19.58C583.08,226.14,575.47,217.74,575.47,206.72z M606.56,206.61v-0.43c0-7.87-4.37-13.7-11.82-13.7
		c-7.45,0-11.87,5.51-11.87,13.75v0.43c0,8.35,5.06,13.75,11.98,13.75C602.04,220.41,606.56,214.9,606.56,206.61z"/>
	<path class="st0" d="M626.04,187.35h8.46l16.03,27.66v-27.66h6.44v38.26h-7.35l-17.15-29.32v29.32h-6.44V187.35z"/>
	<path class="st0" d="M668.68,213.72h6.82c0.48,3.85,2.02,7.06,8.47,7.06c4.21,0,7.19-2.35,7.19-5.89s-1.76-4.87-7.93-5.89
		c-9.11-1.23-13.42-4.01-13.42-11.18c0-6.26,5.32-10.97,13.26-10.97c8.2,0,13.1,3.75,13.84,11.08h-6.49
		c-0.69-4.01-2.98-5.73-7.35-5.73c-4.32,0-6.55,2.09-6.55,5.03c0,3.1,1.28,4.65,7.88,5.62c8.94,1.23,13.58,3.8,13.58,11.45
		c0,6.63-5.59,11.82-14,11.82C673.58,226.14,669.21,220.95,668.68,213.72z"/>
	<path class="st0" d="M710.16,187.35h23.8v5.62h-16.72v10.49h13.42v5.35h-13.42v11.18h17.62v5.62h-24.71V187.35z"/>
	<path class="st0" d="M746.57,187.35h8.46l16.03,27.66v-27.66h6.44v38.26h-7.35l-17.15-29.32v29.32h-6.44V187.35z"/>
	<path class="st0" d="M789.21,213.72h6.82c0.48,3.85,2.02,7.06,8.47,7.06c4.21,0,7.19-2.35,7.19-5.89s-1.76-4.87-7.93-5.89
		c-9.11-1.23-13.42-4.01-13.42-11.18c0-6.26,5.32-10.97,13.26-10.97c8.2,0,13.1,3.75,13.84,11.08h-6.49
		c-0.69-4.01-2.98-5.73-7.35-5.73c-4.32,0-6.55,2.09-6.55,5.03c0,3.1,1.28,4.65,7.88,5.62c8.94,1.23,13.58,3.8,13.58,11.45
		c0,6.63-5.59,11.82-14,11.82C794.11,226.14,789.74,220.95,789.21,213.72z"/>
	<path class="st0" d="M837.71,209.02l-12.62-21.67h7.83l8.57,15.84l8.36-15.84h6.92l-11.93,21.72v16.53h-7.14V209.02z"/>
	<path class="st0" d="M861.29,213.72h6.82c0.48,3.85,2.02,7.06,8.47,7.06c4.21,0,7.19-2.35,7.19-5.89s-1.76-4.87-7.93-5.89
		c-9.11-1.23-13.42-4.01-13.42-11.18c0-6.26,5.33-10.97,13.26-10.97c8.2,0,13.1,3.75,13.84,11.08h-6.49
		c-0.69-4.01-2.98-5.73-7.35-5.73c-4.32,0-6.55,2.09-6.55,5.03c0,3.1,1.28,4.65,7.88,5.62c8.94,1.23,13.58,3.8,13.58,11.45
		c0,6.63-5.59,11.82-14,11.82C866.19,226.14,861.82,220.95,861.29,213.72z"/>
	<path class="st1" d="M635.44,402.7v38.45c0,0.58-0.47,1.05-1.05,1.05H531.34c-0.58,0-1.05-0.47-1.05-1.05V257.31
		c0-0.58,0.47-1.05,1.05-1.05h45.09c0.58,0,1.05,0.47,1.05,1.05v144.34h56.91C634.97,401.65,635.44,402.12,635.44,402.7z"/>
	<path class="st1" d="M797.69,303.62v137.53c0,0.58-0.47,1.05-1.05,1.05h-42.47c-0.58,0-1.05-0.47-1.05-1.05v-18.65
		c-6.7,12.75-24.76,23.18-42.82,23.18c-40.48,0-68.44-31.58-68.44-73.3c0-41.72,27.96-73.3,68.44-73.3
		c18.06,0,36.12,10.72,42.82,23.47v-18.94c0-0.58,0.47-1.05,1.05-1.05h42.47C797.23,302.57,797.69,303.04,797.69,303.62z
		 M753.13,372.39c0-19.12-13.4-35.64-33.49-35.64s-33.49,16.51-33.49,35.64c0,19.41,13.4,35.63,33.49,35.63
		S753.13,391.8,753.13,372.39z"/>
	<path class="st1" d="M854.54,442.21h-42.47c-0.58,0-1.05-0.47-1.05-1.05V248.89c0-0.58,0.47-1.05,1.05-1.05h42.47
		c0.58,0,1.05,0.47,1.05,1.05v73.67c6.7-12.75,24.76-23.47,43.11-23.47c40.48,0,68.44,31.58,68.44,73.3
		c0,41.72-27.96,73.3-68.44,73.3c-18.35,0-36.41-10.43-43.11-23.18v18.65C855.58,441.73,855.12,442.21,854.54,442.21z
		 M922.57,372.39c0-19.12-13.4-35.64-33.2-35.64c-20.39,0-33.79,16.51-33.79,35.64c0,19.41,13.4,35.63,33.79,35.63
		C909.17,408.02,922.57,391.8,922.57,372.39z"/>
	<path class="st1" d="M1099.88,401.07c0,33.03-28.54,44.9-63.49,44.9c-39.45,0-64.1-17.84-64.65-49.33
		c-0.01-0.59,0.47-1.08,1.06-1.08h41.6c0.57,0,1.02,0.47,1.04,1.04c0.43,14.01,9.62,19.53,22.41,19.53
		c10.77,0,18.35-3.77,18.35-13.04c0-10.72-11.07-12.17-37.57-20.86c-23.3-7.24-43.39-13.91-43.39-40.85
		c0-28.97,24.17-42.59,62.03-42.59c40.22,0,60.04,20.01,60.57,46.14c0.01,0.59-0.47,1.08-1.06,1.08h-41.89
		c-0.57,0-1.01-0.46-1.03-1.03c-0.36-10.95-6.47-17.22-18.33-17.22c-9.03,0-16.6,4.06-16.6,12.46c0,10.14,12.23,11.88,35.83,19.7
		C1079.49,367.17,1099.88,373.83,1099.88,401.07z"/>
</g>
</svg>
