<svg version="1.0" xmlns="http://www.w3.org/2000/svg" width="533.333" height="533.333" viewBox="0 0 400 400"><path d="M201.5 73.9c-9.7 5.9-12.2 17.8-5.5 26.4l1.9 2.4-9.9 9.8c-9.7 9.6-10 9.8-11.9 8.1-1.1-1-3.7-2.4-5.8-3.1l-3.8-1.3-.3-7.1c-.2-5.9 0-7.1 1.3-7.1 4.9 0 9.5-6.4 9.5-13.1 0-3.3-.6-4.7-3.3-7.4-6-6-13.4-5.9-18.6.1-2.4 2.7-3.1 4.4-3.1 7.8 0 5.5 3.4 10.8 7.8 12.1 3.2.9 3.2.9 3.2 7.6v6.7l-3.5 1.2c-4.4 1.4-9.1 5.3-11 9.1-1.7 3.3-2 12.1-.5 15 1 1.8.1 2.4-9.7 7-5.9 2.8-12.9 6-15.5 7.1l-4.7 2-2.6-2.8c-3.1-3.6-2.9-4.5 3.6-16.2 4.8-8.6 5.3-9.2 8.3-9.2 6.6 0 13.6-6.5 13.6-12.7 0-7.1-8.4-14.3-15-12.8-10.2 2.2-14.1 14.3-6.9 21.5l3.1 3-5.3 9.2c-6.9 12.2-6.7 12-9.2 10.7-2.9-1.6-10.9-1.4-14.3.4-5.8 3-10.4 10.4-10.4 16.4.1 4.5 3.5 10.8 7.5 13.8 2.8 2.2 5.1 3 10.1 3.4l6.5.6 6.8 13.2 6.9 13.2-2.3 2.1c-1.3 1.2-2.9 3.6-3.6 5.3-.7 1.8-1.3 3.3-1.4 3.4 0 .1-2.1-.4-4.5-1.1-4.2-1.2-4.5-1.6-5.2-5.4-.9-5.6-2.4-8-6.1-10.2-12.6-7.7-25.6 8.2-15.8 19.2 2.3 2.6 3.7 3.2 8.3 3.6 5.2.4 5.8.2 9.4-3l3.9-3.4 5 1.6c4.7 1.6 5 1.9 5.7 6 .4 2.5 2.1 6 3.9 8.2l3.1 3.9-2.8 4c-2.2 3.2-3.2 3.9-4.8 3.3-1.2-.4-4.4-.9-7.2-1.1-4.4-.4-5.5-.1-8.2 2.2-3.7 3.1-5.3 8-4.2 13 1 4.2 2.4 6.1 6.1 8.1 6.5 3.3 14.8.3 17.6-6.4 1.2-3 1.3-4.6.4-8.5-1-4.6-1-5 2.2-9.2 3-4.2 3.4-4.4 7.2-3.8 2.2.3 4.3.8 4.7 1.2 1 1 6 29.9 5.3 31.1-.3.5-1.2 1-1.9 1-2.3 0-8.4 7.7-9.6 11.9-1.3 4.8-.1 10.7 2.9 14.9 2.5 3.6 9.5 7.2 13.9 7.2 3.9 0 9.9-2.4 12.7-5 2-1.9 2.2-1.8 14.8 3.7 11.1 4.9 12.7 6 12.7 8 0 7.4 6 13.3 13.5 13.3 4 0 5.2-.5 8-3.3 4.3-4.3 5.2-7.9 3.4-13.1-3.3-9.4-16.6-11.6-22.2-3.5-1.5 2-1.6 2-14.1-3.6-6.9-3.2-12.6-5.8-12.6-6 0-.1.5-1.6 1.1-3.3 1.2-3.5.3-3.1 20.8-8.1l12.3-3.1 4.5 4c6.2 5.5 12.7 6.4 20.9 3 3.1-1.3 3.3-1.2 8.8 3.6 5 4.3 5.6 5.3 5.2 7.9-.6 4.2 1.3 10 4.1 12.7 2 1.9 3.6 2.3 8.3 2.3 5.1 0 6.3-.4 8.9-2.9 7.7-7.4 3.5-20.1-7.1-21.3-3.6-.4-5.5 0-8.6 1.7l-4 2.3-5.5-4.8-5.5-4.7 1.6-3.5 1.7-3.5 14.5.6c8 .4 19 .9 24.5 1.2l10 .7 2.1 4.6c3.4 7.6 11.4 10.2 18.2 6.1 6.6-4.1 7.9-13.6 2.6-19.1-7-7.4-15.2-5.7-21.9 4.3-.9 1.3-3.8 1.4-24.3.3-12.8-.7-23.4-1.4-23.6-1.6-.2-.2-.6-2-1-4l-.6-3.5 8.6-5.1 8.6-5.1 4.1 2.4c5.1 2.9 6.9 3 12.3.3 3.4-1.6 4.6-2.9 6-6.5 1.6-4.1 1.6-4.7 0-8.8-2.8-7.4-10.1-10.4-17-7.1-5.2 2.5-7.1 5.8-7.1 12.4v5.4l-7.3 4.4c-4.1 2.4-7.8 4.3-8.3 4.3-.6 0-2.2-1.4-3.6-3-3.6-4.3-7.4-6-13.6-6-10.5 0-18.6 8.7-17.4 18.9l.6 4.8-13.7 3.2c-7.5 1.8-14.7 3.5-15.9 3.8-1.6.4-2.3.1-2.3-.9 0-.8-1.1-3.5-2.4-6l-2.4-4.6 2.4-3.6c2.2-3.1 3-3.6 6.5-3.6 8.2 0 12.9-4.9 12.9-13.6 0-3.9-.5-5.1-3.4-8-3-3-4-3.4-8.5-3.4-11.4 0-16.9 12.1-9.6 20.8l2.3 2.8-2 3.2c-2.3 3.7-2.2 3.7-7.8 1.7-2.3-.8-5.2-1.5-6.5-1.5-2 0-2.3-.9-4.5-14.2-1.2-7.9-2.4-14.8-2.6-15.3-.3-.6 1.5-2 3.9-3.3 12.6-6.7 13-24.2.7-31.1-3.7-2.1-5.1-2.3-10.9-1.8l-6.7.5-6.5-13-6.6-13 3.8-3.5 3.9-3.6 5.3 1.5c4.8 1.3 5.2 1.7 5.8 4.9 1.1 7.1 5.3 11 11.7 11.1 8.3 0 13.2-4.7 13.2-12.7 0-4.2-.5-5.2-3.9-8.6-3.1-3.1-4.6-3.9-7.5-3.9-4.6 0-8.8 2.1-11.3 5.6-1.9 2.6-2.1 2.6-7 1.4l-5.1-1.3.4-6.1.3-6 10.8-4.8c5.9-2.7 12.6-5.7 14.8-6.8 5.2-2.5 5.7-2.5 10.1.5 6.9 4.7 15 4.3 21.5-1.2 5.4-4.6 7.5-13.1 4.9-19.9-1-2.7-.6-3.3 8.8-12.7l10-9.9 4.3 1.4c4.1 1.4 4.4 1.7 4.7 5.4.3 3.8.1 4.1-4.1 6.1-10 4.9-10.1 18-.1 22.8 4.7 2.2 9.8 1.4 13.6-2.2 7.1-6.8 4.8-17.7-4.4-21.2-2.5-.9-2.8-1.6-2.8-5.5 0-4.2.1-4.4 3.9-5.3l3.9-1 9.3 10.5c13.9 15.7 13.1 14.5 11.4 17.8-2.3 4.5-1.9 13.5.8 17.4 3.6 5.3 7 7.3 13.6 7.8 7.7.6 12.4-1.6 16.3-7.7 2.6-4 2.9-5.3 2.6-10.2-.4-5.5-.3-5.7 2.7-7.4 3.1-1.6 3.3-1.6 6.6.4 6.8 4.2 15.6 1.5 18.6-5.6 2.2-5.3 1.1-10.1-3.2-14.1-6.8-6.3-17.6-3.5-20.5 5.4-.8 2.5-.9 4.3-.1 6.5.9 2.8.8 3.1-2.2 4.9l-3.2 2-3.5-3.5c-6.1-5.9-13.8-7.2-21-3.5-2.2 1.1-4.1 2-4.4 2-.3 0-5.3-5.4-11.1-12.1l-10.5-12 2.7-3.4c1.9-2.4 3.4-3.3 4.8-3 1.1.2 5.3.9 9.3 1.6 6.1.9 7.5 1.5 8.2 3.3 2.8 7.4 13.8 10.1 19.9 5 6.4-5.3 6-15.6-.8-20.1-7-4.8-16.2-1.6-19.1 6.5-.8 2.3-1.9 4.1-2.5 3.8-.6-.2-4.6-1-8.9-1.6-7.7-1.3-7.7-1.3-7.1-4.1 1.4-6.1-3.3-15.2-9.6-18.4-4-2.1-12.7-1.9-16.4.4z" fill="#f60510"/></svg>