<svg xmlns="http://www.w3.org/2000/svg" width="25" height="34" fill="none"><g clip-path="url(#clip0)"><path fill="#000" d="M24.576 14.052l-4.892 2.18-12.978 6.606 12.978 6.24V18.764l4.892-2.204v15.237l-4.892 2.18L.576 24.834v-4.861l13.227-6.489L.576 7.127V2.196L5.546.015l19.03 9.16v4.877z"/><path fill="#157A8E" d="M.576 2.196l19.108 9.16 4.892-2.18L5.546.014l-4.97 2.18z"/><path fill="#2F8E96" d="M19.684 11.336l4.892-2.181v4.876l-4.892 2.181v-4.876z"/><path fill="#4FC1BE" d="M.576 2.2v4.93l13.227 6.357-13.227 6.49v4.86l19.108 9.145V29.09L6.706 22.843l12.978-6.606v-4.876L.576 2.2z"/><path fill="#2F8E96" d="M19.684 33.946l4.892-2.181V16.528l-4.892 2.204v15.214z"/></g><defs><clipPath id="clip0"><path fill="#fff" d="M0 0h24v33.975H0z" transform="translate(.576 .012)"/></clipPath></defs></svg>
