<svg width="182" height="60" viewBox="0 0 182 60" fill="none" xmlns="http://www.w3.org/2000/svg">
<g clip-path="url(#clip0)">
<rect width="159.116" height="54.4028" transform="translate(11.9392)" fill="white"/>
<path fill-rule="evenodd" clip-rule="evenodd" d="M128.871 14.6951H124.056L124.242 14.8082L123.474 16.1031H125.449C126.89 16.1031 128.063 17.2909 128.063 18.7508V24.9503C128.063 26.4104 126.89 27.5981 125.449 27.5981H122.679L122.601 29.8201L123.215 30.4423V39.7661C123.215 40.2062 123.569 40.5643 124.003 40.5643H124.122C124.556 40.5643 124.91 40.2062 124.91 39.7661V30.6826H128.821V40.0062C128.821 40.4463 129.174 40.8044 129.609 40.8044H130.49C130.924 40.8044 131.278 40.4463 131.278 40.0062V26.2847C129.883 24.7255 128.634 22.8432 128.664 21.1257L130.34 21.1555C130.314 22.6013 131.945 24.8875 134.7 27.271C134.828 27.3818 135.017 27.3823 135.149 27.2721L136.72 25.9559C136.822 25.8705 136.844 25.7652 136.845 25.6923C136.845 25.6279 136.829 25.5053 136.713 25.4041C134.371 23.3591 131.852 19.7274 131.797 17.0251C131.759 15.1763 128.883 14.9224 128.854 14.9202L128.871 14.6951ZM119.939 24.9503C119.939 25.9378 120.476 26.8008 121.269 27.256L121.015 27.2468L120.9 30.4981L121.539 31.1451V39.7661C121.539 41.1423 122.645 42.2617 124.003 42.2617H124.122C125.48 42.2617 126.585 41.1423 126.585 39.7661V32.3801H127.145V40.0062C127.145 41.3823 128.25 42.5018 129.609 42.5018H130.49C131.848 42.5018 132.953 41.3823 132.953 40.0062V27.9745C133.184 28.1868 133.406 28.3834 133.612 28.5618C133.99 28.8891 134.457 29.053 134.924 29.053C135.382 29.053 135.841 28.8955 136.217 28.58L137.788 27.2638C138.248 26.8787 138.515 26.312 138.521 25.7092C138.527 25.0991 138.267 24.5192 137.807 24.1183C135.456 22.0648 133.511 18.8668 133.472 16.9898C133.432 15.0573 131.945 14.0271 130.54 13.5528C131.47 12.5163 131.997 11.1625 131.997 9.71955C131.997 6.56581 129.464 4 126.351 4C123.237 4 120.704 6.56581 120.704 9.71955C120.704 11.427 121.443 13.0095 122.713 14.0893L121.341 16.4054C120.508 16.8487 119.939 17.7337 119.939 18.7508V24.9503ZM128.644 12.9976H124.058C123.003 12.2417 122.38 11.033 122.38 9.71955C122.38 7.50185 124.161 5.69746 126.351 5.69746C127.476 5.69746 128.494 6.17427 129.217 6.93893C129.101 7.87754 128.978 9.8591 129.839 11.6427C129.553 12.1724 129.148 12.6366 128.644 12.9976ZM122.553 17.8006C122.036 17.8006 121.615 18.2269 121.615 18.7508V24.9503C121.615 25.4744 122.036 25.9007 122.553 25.9007H125.449C125.966 25.9007 126.387 25.4744 126.387 24.9503V18.7508C126.387 18.2269 125.966 17.8006 125.449 17.8006H122.553ZM156.738 15.049H152.348L152.179 14.968C151.842 14.807 151.526 14.6137 151.233 14.3927L151.279 14.6521C151.252 14.657 148.561 15.174 148.621 16.8689C148.708 19.3251 145.405 22.641 143.303 24.1539C142.995 24.3755 142.873 24.7882 143.005 25.1574C143.085 25.3809 143.247 25.5574 143.46 25.6549C143.678 25.7541 143.923 25.7596 144.148 25.6699C145.354 25.1887 147.251 23.8391 148.337 22.4138V20.906H150.013V37.3088C150.013 37.7271 150.349 38.0675 150.762 38.0675H150.849C151.261 38.0675 151.597 37.7271 151.597 37.3088V29.1284H155.447V37.5729C155.447 37.9912 155.782 38.3316 156.195 38.3316H157.239C157.651 38.3316 157.987 37.9912 157.987 37.5729V19.849H159.663V27.7192H160.28C160.594 27.7192 160.847 27.4708 160.855 27.1533C160.915 24.742 160.998 18.895 160.488 16.6967C159.945 14.3599 158.204 14.2687 158.186 14.2681L158.192 14.1159C157.81 14.4545 157.379 14.7429 156.908 14.968L156.738 15.049ZM159.285 12.7997C159.805 11.9341 160.098 10.9275 160.098 9.88169C160.098 6.77934 157.606 4.25525 154.543 4.25525C151.481 4.25525 148.989 6.77934 148.989 9.88169C148.989 11.0998 149.386 12.2648 150.078 13.2157C148.603 13.7112 146.873 14.8532 146.946 16.9294C146.998 18.3774 144.556 21.1698 142.332 22.7703C141.412 23.4328 141.041 24.6529 141.43 25.7375C141.666 26.3948 142.143 26.9151 142.772 27.2024C143.107 27.3554 143.463 27.4323 143.82 27.4323C144.138 27.4323 144.456 27.3712 144.762 27.2491C145.889 26.7997 147.233 25.8916 148.337 24.8788V37.3088C148.337 38.6631 149.425 39.7649 150.762 39.7649H150.849C152.185 39.7649 153.273 38.6631 153.273 37.3088V30.8259H153.771V37.5729C153.771 38.9272 154.859 40.0291 156.195 40.0291H157.239C158.575 40.0291 159.663 38.9272 159.663 37.5729V29.4166H160.28C161.51 29.4166 162.499 28.4414 162.53 27.1962C162.606 24.1189 162.654 18.6124 162.119 16.3079C161.632 14.2131 160.349 13.2055 159.285 12.7997ZM152.734 13.3515H156.353C157.616 12.674 158.422 11.3316 158.422 9.88169C158.422 8.46834 157.681 7.22681 156.573 6.53449C157.357 11.2935 153.145 11.8423 151.19 11.8459C151.551 12.474 152.081 13.0015 152.734 13.3515ZM155.193 20.9748C155.193 21.8902 154.46 22.6322 153.557 22.6322C152.653 22.6322 151.92 21.8902 151.92 20.9748C151.92 20.0594 152.653 19.3174 153.557 19.3174C154.46 19.3174 155.193 20.0594 155.193 20.9748Z" fill="#F3587D"/>
<path d="M71.5984 28.5251H78.9178C78.9178 29.2505 78.8803 29.9215 78.8242 30.5199C78.768 31.1183 78.637 31.6624 78.4498 32.1701C78.1877 32.8955 77.832 33.5302 77.3828 34.0923C76.9335 34.6364 76.3906 35.1079 75.7916 35.4705C75.1926 35.8332 74.5187 36.1234 73.7886 36.3047C73.0585 36.5042 72.291 36.5949 71.4861 36.5949C70.3816 36.5949 69.3708 36.4135 68.4535 36.069C67.555 35.7244 66.7688 35.2167 66.1136 34.6001C65.4584 33.9473 64.953 33.1856 64.5973 32.2971C64.2416 31.3903 64.0544 30.4111 64.0544 29.323C64.0544 28.2531 64.2229 27.2739 64.5786 26.3853C64.9343 25.4786 65.4584 24.7169 66.0949 24.0822C66.7688 23.4475 67.555 22.9579 68.491 22.6134C69.427 22.2688 70.4565 22.0875 71.5984 22.0875C73.0773 22.0875 74.3689 22.3958 75.4921 23.0123C76.6153 23.6289 77.4951 24.59 78.1503 25.8957L74.6497 27.292C74.3315 26.5304 73.9009 26.0045 73.3768 25.6781C72.8713 25.3516 72.2723 25.1884 71.6171 25.1884C71.0743 25.1884 70.5688 25.2972 70.1196 25.4967C69.6703 25.6962 69.2772 25.9682 68.959 26.349C68.6407 26.7117 68.3974 27.1651 68.2102 27.6728C68.0417 28.1987 67.9481 28.779 67.9481 29.4137C67.9481 29.994 68.023 30.538 68.1727 31.0277C68.3412 31.5173 68.5659 31.9525 68.8841 32.3152C69.2023 32.6779 69.5954 32.968 70.0447 33.1675C70.5127 33.367 71.0555 33.4576 71.6546 33.4576C72.0102 33.4576 72.3659 33.4214 72.7029 33.3488C73.0398 33.2582 73.3393 33.1312 73.6014 32.968C73.8822 32.7867 74.1068 32.5509 74.2753 32.2789C74.4438 32.0069 74.5748 31.6624 74.631 31.2634H71.5984V28.5251V28.5251ZM97.1131 25.3516V36.5949H93.182V25.3516H89.9997V22.0875H100.295V25.3516H97.1131ZM113.961 27.0563C113.1 26.0407 112.051 25.533 110.797 25.533C110.236 25.533 109.73 25.6236 109.243 25.8231C108.775 26.0226 108.382 26.2946 108.027 26.621C107.69 26.9474 107.409 27.3464 107.222 27.8179C107.034 28.2894 106.941 28.779 106.941 29.323C106.941 29.8671 107.034 30.3748 107.222 30.8463C107.428 31.3178 107.69 31.7168 108.027 32.0613C108.382 32.4059 108.794 32.6779 109.262 32.8592C109.73 33.0587 110.236 33.1494 110.778 33.1494C111.958 33.1494 113.025 32.6597 113.961 31.6805V35.9239L113.586 36.0508C113.025 36.2503 112.501 36.3773 111.995 36.4679C111.508 36.5586 111.022 36.613 110.535 36.613C109.562 36.613 108.607 36.4317 107.708 36.0871C106.81 35.7244 106.024 35.2167 105.331 34.5638C104.657 33.911 104.096 33.1312 103.684 32.2427C103.272 31.3359 103.066 30.3567 103.066 29.3049C103.066 28.2531 103.272 27.2739 103.665 26.4034C104.077 25.5148 104.62 24.7532 105.312 24.1185C106.005 23.4657 106.81 22.976 107.708 22.6134C108.607 22.2507 109.562 22.0693 110.554 22.0693C111.115 22.0693 111.677 22.1237 112.22 22.2507C112.781 22.3595 113.362 22.5408 113.961 22.7766V27.0563V27.0563ZM121.673 29.3412C121.673 29.8852 121.785 30.393 121.991 30.8644C122.197 31.3359 122.497 31.7349 122.852 32.0794C123.208 32.424 123.639 32.696 124.125 32.8773C124.612 33.0587 125.136 33.1494 125.679 33.1494C126.222 33.1494 126.727 33.0587 127.214 32.8773C127.701 32.6779 128.131 32.4059 128.506 32.0794C128.88 31.7349 129.18 31.3359 129.386 30.8644C129.592 30.393 129.704 29.9033 129.704 29.3412C129.704 28.779 129.592 28.2894 129.386 27.8179C129.18 27.3464 128.88 26.9474 128.506 26.6029C128.15 26.2583 127.72 26.0045 127.214 25.8231C126.727 25.6236 126.222 25.533 125.679 25.533C125.136 25.533 124.631 25.6236 124.125 25.8231C123.639 26.0045 123.227 26.2765 122.852 26.6029C122.497 26.9474 122.197 27.3464 121.991 27.8179C121.785 28.2894 121.673 28.7971 121.673 29.3412ZM117.817 29.3412C117.817 28.3257 118.004 27.3645 118.397 26.4941C118.79 25.6055 119.333 24.8257 120.026 24.1729C120.718 23.5201 121.542 22.9942 122.497 22.6315C123.47 22.2507 124.537 22.0693 125.679 22.0693C126.821 22.0693 127.888 22.2507 128.843 22.6315C129.816 22.9942 130.64 23.5019 131.332 24.1729C132.044 24.8257 132.587 25.6055 132.98 26.4941C133.373 27.3645 133.56 28.3257 133.56 29.3412C133.56 30.3567 133.373 31.3178 132.98 32.2064C132.587 33.0768 132.044 33.8566 131.332 34.5094C130.64 35.1623 129.816 35.6882 128.843 36.069C127.869 36.4317 126.821 36.613 125.679 36.613C124.519 36.613 123.452 36.4317 122.497 36.069C121.542 35.6882 120.718 35.1804 120.026 34.5094C119.333 33.8566 118.79 33.0768 118.397 32.2064C118.004 31.3178 117.817 30.3748 117.817 29.3412ZM141.291 22.0875V36.5949H137.36V22.0875H141.291V22.0875ZM86.2558 22.0875V36.5949H82.3247V22.0875H86.2558V22.0875ZM145.41 36.5949V22.0875H149.153L156.454 30.9551V22.0875H160.385V36.5949H156.604L149.341 27.7272V36.5949H145.41Z" fill="#0E0333"/>
<path fill-rule="evenodd" clip-rule="evenodd" d="M48.9915 22.9283C50.2936 24.6965 51.0004 26.8434 50.9818 29.0085C50.9818 31.1374 50.275 33.2664 48.9915 34.9984L51.7073 37.0011C53.4372 34.6917 54.3859 31.8771 54.3859 29.0265C54.4045 26.0135 53.3814 23.0546 51.5027 20.6731L49.9452 22.0332L48.9915 22.9283Z" fill="#02E2AC"/>
<path fill-rule="evenodd" clip-rule="evenodd" d="M54.1254 38.7749L44.9921 32.0453C45.6432 31.2153 46.0152 30.205 46.071 29.1586C46.1082 28.1121 45.8292 27.0837 45.2525 26.1997L49.6239 22.3748L54.1998 18.2251C54.4975 17.9545 54.5161 17.4854 54.2184 17.1967L53.586 16.5833C50.3307 13.3899 45.9408 11.5316 41.3276 11.3872L41.3462 8.95156C41.3648 8.78918 41.3462 8.6268 41.309 8.46443C41.2532 8.30205 41.1788 8.15771 41.0672 8.03142C40.9556 7.90513 40.8254 7.81492 40.658 7.74275C40.5092 7.67058 40.3418 7.6345 40.1743 7.6345C40.0069 7.6345 39.8395 7.67058 39.6907 7.74275C39.5419 7.81492 39.3931 7.90513 39.2815 8.03142C39.1699 8.15771 39.0769 8.30205 39.0396 8.44638C38.9838 8.60876 38.9652 8.77114 39.0024 8.93352L38.9838 11.4413C37.8864 11.5496 36.7889 11.7481 35.7286 12.0548L35.7472 8.93352C35.7658 8.77114 35.7472 8.60876 35.71 8.44638C35.6542 8.28401 35.5798 8.13967 35.4682 8.01338C35.3566 7.88708 35.2263 7.79687 35.0589 7.72471C34.9101 7.65254 34.7427 7.61646 34.5753 7.61646C34.4079 7.61646 34.2405 7.65254 34.0917 7.72471C33.9428 7.79687 33.794 7.88708 33.6824 8.01338C33.5708 8.13967 33.4778 8.28401 33.4406 8.42834C33.3848 8.59072 33.3662 8.7531 33.4034 8.91548L33.3476 12.9027C29.5901 14.5265 26.5023 17.3591 24.6235 20.9134C22.7448 24.4676 22.1495 28.5451 22.968 32.4602C23.7864 36.3753 25.9628 39.9116 29.1251 42.4735C32.2873 45.0355 36.268 46.4788 40.379 46.551L53.679 46.6051C54.0882 46.6051 54.4231 46.2804 54.4231 45.8834V39.3703C54.4231 39.1358 54.3115 38.9192 54.1254 38.7749ZM40.6394 43.4117C37.3655 43.3937 34.1847 42.3292 31.5991 40.3987C29.0135 38.4502 27.1533 35.7258 26.3162 32.6587C25.4792 29.5916 25.721 26.326 26.9673 23.4032C28.2322 20.4804 30.4458 18.0267 33.2918 16.439L33.2732 21.184C33.2546 21.3464 33.2732 21.5088 33.3104 21.6711C33.3662 21.8335 33.4406 21.9779 33.5522 22.1041C33.6638 22.2304 33.794 22.3206 33.9614 22.3928C34.1103 22.465 34.2777 22.5011 34.4451 22.5011C34.6125 22.5011 34.7799 22.465 34.9287 22.3928C35.0775 22.3206 35.2263 22.2304 35.338 22.1041C35.4496 21.9779 35.5426 21.8335 35.5798 21.6892C35.6356 21.5268 35.6542 21.3644 35.617 21.202L35.6356 15.3745C37.2725 14.7972 39.0024 14.5265 40.751 14.5265C43.969 14.5265 47.0941 15.5549 49.6425 17.4313C49.8285 17.5756 49.8471 17.8282 49.6797 17.9906L42.7227 24.179C42.0903 23.9264 41.402 23.782 40.7138 23.782C39.9511 23.782 39.1885 23.9264 38.4816 24.2331C37.7747 24.5398 37.1609 24.9909 36.6587 25.5502C36.1564 26.1095 35.7844 26.777 35.5612 27.4807C35.338 28.2023 35.2822 28.942 35.3938 29.6818C35.5054 30.4215 35.7658 31.1251 36.175 31.7566C36.5843 32.3881 37.1423 32.9113 37.7747 33.3262C38.4258 33.7232 39.1513 33.9938 39.9139 34.102C40.6766 34.2103 41.4578 34.1562 42.1833 33.9397L51.0748 40.4889C51.1678 40.5611 51.2236 40.6693 51.2236 40.7776L51.205 43.0869C51.205 43.2854 51.0376 43.4478 50.833 43.4478L40.6394 43.4117ZM42.8157 28.9781C42.8157 29.3751 42.6855 29.772 42.4623 30.1148C42.2205 30.4576 41.9043 30.7102 41.5136 30.8725C41.123 31.0349 40.6952 31.071 40.3045 30.9808C39.9139 30.8906 39.5233 30.7102 39.2257 30.4215C38.928 30.1328 38.7234 29.772 38.649 29.3751C38.5746 28.9781 38.6118 28.5632 38.7792 28.2023C38.9466 27.8234 39.2071 27.5167 39.5605 27.2822C39.9139 27.0657 40.3232 26.9394 40.7324 26.9394C41.2904 26.9394 41.8299 27.1559 42.2205 27.5528C42.5925 27.9137 42.8157 28.4188 42.8157 28.9781Z" fill="#0E0333"/>
<path d="M145.421 1.125H136.458C136.356 1.125 136.259 1.17871 136.203 1.27001L133.657 5.22294C133.583 5.3411 133.59 5.49686 133.674 5.60427L140.702 14.7562C140.825 14.9146 141.054 14.9146 141.176 14.7562L148.204 5.60427C148.288 5.49417 148.296 5.3411 148.222 5.22294L145.678 1.27001C145.62 1.17871 145.525 1.125 145.421 1.125ZM144.929 2.414L146.541 4.992H144.8L143.483 2.414H144.929V2.414ZM139.783 2.414H142.093L143.409 4.992H138.469L139.783 2.414ZM136.949 2.414H138.395L137.079 4.992H135.337L136.949 2.414ZM135.854 6.281H137.163L138.902 10.5777L135.854 6.281V6.281ZM138.474 6.281H143.404L140.939 12.8146L138.474 6.281V6.281ZM142.976 10.5777L144.713 6.281H146.022L142.976 10.5777Z" fill="black"/>
<path d="M140.939 11.6667L138.955 6.85425L142.924 6.85425L140.939 11.6667Z" fill="#02E2AC"/>
<path d="M84.536 13.7512L83.8607 13.5549C83.7832 13.531 83.7058 13.5741 83.6757 13.6554L83.5553 13.957C83.5338 14.0096 83.5381 14.0671 83.5639 14.1149C83.5897 14.1628 83.6327 14.1963 83.6843 14.2011C83.8392 14.2202 83.951 14.3734 83.9381 14.5457L83.8693 15.4838L84.536 13.7512Z" fill="#E5FFF9"/>
<path fill-rule="evenodd" clip-rule="evenodd" d="M81.2298 16.9178C81.8754 17.8123 82.8724 18.3872 83.9888 18.3872C85.9294 18.3872 87.5094 16.65 87.5094 14.5162C87.5094 14.4149 87.5059 14.3145 87.4989 14.2151C87.5125 14.2036 87.5259 14.1921 87.5393 14.1806C88.2906 13.5382 88.6244 12.9646 88.4813 12.5647C88.3442 12.1812 87.8285 12.0107 86.9908 12.0763L86.9968 12.1746C87.7897 12.1123 88.2757 12.2598 88.3979 12.6007C88.5258 12.9508 88.1934 13.4969 87.4894 14.102C87.3007 12.1621 85.8022 10.6453 83.9888 10.6453C82.0481 10.6453 80.4681 12.3824 80.4681 14.5162C80.4681 14.6415 80.4735 14.7653 80.4842 14.8875C79.737 15.5094 79.4497 16.0195 79.6037 16.4488C79.7199 16.77 80.1373 16.9404 80.7961 16.9404C80.9292 16.9404 81.0738 16.9329 81.2298 16.9178ZM81.2712 16.8179C81.2777 16.8172 81.2843 16.8166 81.291 16.8159C82.2151 16.7208 83.3658 16.3832 84.5374 15.8719C85.6669 15.3789 86.6801 14.7793 87.4059 14.1729C87.2476 12.2547 85.7763 10.7436 83.9888 10.7436C82.0958 10.7436 80.5575 12.4349 80.5575 14.5162C80.5575 14.618 80.5612 14.7188 80.5684 14.8185C80.6055 14.7886 80.6437 14.7584 80.6828 14.728L80.7335 14.8099C80.6797 14.8515 80.628 14.8926 80.5783 14.9331C80.649 15.6377 80.8966 16.2843 81.2712 16.8179ZM81.3355 16.9067C82.2591 16.8033 83.4059 16.4679 84.5672 15.9604C85.6821 15.4744 86.6853 14.8831 87.4137 14.286C87.4179 14.3622 87.42 14.4389 87.42 14.5162C87.42 16.5943 85.8817 18.2889 83.9888 18.2889C82.9204 18.2889 81.9651 17.7502 81.3355 16.9067ZM80.4957 15.0016C80.5732 15.68 80.8112 16.3044 81.1664 16.8273C80.3425 16.8936 79.8064 16.7469 79.6871 16.4127C79.5528 16.0375 79.8157 15.5743 80.4957 15.0016Z" fill="#02E2AC"/>
<path fill-rule="evenodd" clip-rule="evenodd" d="M80.704 14.7565C80.7032 14.7566 80.7024 14.7567 80.7016 14.7568C80.6909 14.7579 80.6804 14.759 80.6698 14.76C80.6618 14.7608 80.6537 14.7616 80.6457 14.7624C80.6328 14.7636 80.62 14.7649 80.6072 14.766L80.5861 14.7679C80.5736 14.7521 80.5613 14.7362 80.5491 14.7202C80.5417 14.7105 80.5343 14.7007 80.527 14.6909C80.5225 14.685 80.5181 14.679 80.5137 14.6731C80.5135 14.6728 80.5133 14.6725 80.5131 14.6722C80.4956 14.6485 80.4784 14.6244 80.4615 14.6002C80.4581 14.5954 80.4547 14.5905 80.4513 14.5856C80.1472 14.146 79.9402 13.637 79.8605 13.0882C79.8605 13.0879 79.8604 13.0876 79.8604 13.0873C79.8604 13.0873 79.8604 13.0874 79.8604 13.0873C79.8576 13.0683 79.855 13.049 79.8525 13.0299C79.8503 13.0122 79.8482 12.9946 79.8462 12.9768C79.861 12.9661 79.8759 12.9553 79.891 12.9445C79.9046 12.9349 79.9182 12.9252 79.932 12.9155C79.9333 12.9145 79.9347 12.9135 79.9361 12.9126C79.9366 12.9122 79.9371 12.9119 79.9376 12.9115C79.96 12.8957 79.9828 12.8799 80.0059 12.8639C80.0079 12.8625 80.0099 12.8612 80.0119 12.8598L79.9578 12.7819C79.9481 12.7886 79.9384 12.7953 79.9288 12.802C79.9267 12.8035 79.9245 12.805 79.9224 12.8065C79.8929 12.8271 79.864 12.8476 79.8356 12.8679C79.8356 12.8674 79.8355 12.8668 79.8355 12.8662C79.8324 12.8286 79.83 12.7908 79.8281 12.7529C79.8281 12.7515 79.828 12.7501 79.8279 12.7486C79.8262 12.7125 79.8251 12.6763 79.8245 12.6399C79.8241 12.6202 79.824 12.6005 79.824 12.5807C79.824 10.6028 81.4667 8.99557 83.4882 8.99557C85.3194 8.99557 86.8398 10.317 87.1098 12.0337C87.1099 12.0345 87.11 12.0354 87.1102 12.0362C87.1154 12.0699 87.1202 12.1037 87.1245 12.1377C87.1246 12.138 87.1246 12.1384 87.1247 12.1387C87.1251 12.142 87.1255 12.1453 87.1259 12.1486C87.1279 12.1648 87.1298 12.1811 87.1316 12.1973C87.1336 12.2163 87.1356 12.2353 87.1373 12.2544C87.1221 12.2657 87.1069 12.277 87.0914 12.2882C87.0824 12.2948 87.0734 12.3014 87.0643 12.308C87.0585 12.3122 87.0526 12.3165 87.0468 12.3207C87.0462 12.3211 87.0456 12.3216 87.045 12.322C87.0216 12.3388 86.998 12.3556 86.9742 12.3724C86.9673 12.3773 86.9605 12.3821 86.9536 12.3869C86.1955 12.9175 85.1877 13.4364 84.074 13.869C84.0737 13.8691 84.0734 13.8692 84.0731 13.8693C84.0731 13.8693 84.0731 13.8693 84.0731 13.8693C82.909 14.3214 81.7641 14.6305 80.8156 14.744C80.8037 14.7454 80.7919 14.7468 80.78 14.7481C80.7546 14.7511 80.7292 14.7539 80.704 14.7565ZM80.6216 14.9579C80.6147 14.9499 80.6077 14.9418 80.6008 14.9337C80.5947 14.9266 80.5887 14.9195 80.5827 14.9123C80.5689 14.896 80.5553 14.8795 80.5419 14.8629C80.5213 14.8647 80.501 14.8663 80.4808 14.8679C80.4725 14.8685 80.4642 14.8691 80.4559 14.8697C80.4448 14.8705 80.4336 14.8713 80.4226 14.8721C80.4216 14.8721 80.4207 14.8722 80.4197 14.8723C80.3935 14.874 80.3676 14.8756 80.342 14.877C80.331 14.8776 80.3201 14.8781 80.3092 14.8786C80.2291 14.8825 80.1523 14.8844 80.0788 14.8844C79.3761 14.8844 78.9306 14.7228 78.8058 14.4183C78.8058 14.4183 78.8058 14.4183 78.8058 14.4183C78.8057 14.4179 78.8055 14.4175 78.8054 14.4172C78.6538 14.0413 78.9024 13.6001 79.5668 13.0707C79.569 13.069 79.5713 13.0672 79.5735 13.0654C79.5993 13.0449 79.6257 13.0243 79.6528 13.0035C79.6534 13.0031 79.654 13.0026 79.6546 13.0021C79.6566 13.0006 79.6585 12.9991 79.6605 12.9976C79.6739 12.9874 79.6874 12.9771 79.7011 12.9668C79.7158 12.9557 79.7306 12.9446 79.7456 12.9335C79.7438 12.9143 79.742 12.895 79.7405 12.8756C79.7391 12.8596 79.7379 12.8435 79.7368 12.8274C79.7366 12.8245 79.7364 12.8215 79.7363 12.8185C79.7362 12.8182 79.7362 12.8178 79.7362 12.8174C79.7341 12.7863 79.7325 12.7551 79.7313 12.7238C79.7311 12.7179 79.7308 12.712 79.7306 12.7061C79.7292 12.6645 79.7285 12.6227 79.7285 12.5807C79.7285 10.553 81.4157 8.90212 83.4882 8.90212C84.7245 8.90212 85.8237 9.48956 86.5094 10.394C86.549 10.4462 86.5872 10.4994 86.6239 10.5537C86.908 10.9729 87.1067 11.4519 87.1955 11.9669C87.2015 12.0014 87.2069 12.0361 87.2119 12.0709C87.2121 12.0722 87.2122 12.0734 87.2124 12.0747C87.2177 12.112 87.2224 12.1494 87.2265 12.187C87.2572 12.1636 87.2873 12.1402 87.3166 12.1169C87.319 12.115 87.3213 12.1131 87.3237 12.1113C87.3509 12.0896 87.3775 12.0681 87.4036 12.0466C88.0325 11.5287 88.3214 11.0669 88.1971 10.7615C88.1971 10.7615 88.1971 10.7615 88.1971 10.7615C88.197 10.7611 88.1968 10.7607 88.1967 10.7604C88.0676 10.44 87.5587 10.2994 86.7284 10.3536C86.7256 10.3538 86.7227 10.3539 86.7199 10.3541C86.7135 10.3546 86.7071 10.355 86.7006 10.3554C86.7006 10.3555 86.7005 10.3555 86.7004 10.3555L86.6941 10.262C86.7023 10.2614 86.7105 10.2609 86.7186 10.2604C86.7762 10.2566 86.8323 10.2538 86.887 10.2519C87.6666 10.2249 88.1485 10.3881 88.2851 10.7244C88.2852 10.7246 88.2853 10.7248 88.2853 10.725C88.2855 10.7253 88.2857 10.7257 88.2858 10.7261C88.4296 11.0837 88.1224 11.5874 87.4172 12.1543C87.4115 12.1589 87.4057 12.1636 87.3998 12.1683C87.3771 12.1863 87.3541 12.2045 87.3306 12.2227C87.3299 12.2232 87.3292 12.2238 87.3285 12.2243C87.3224 12.229 87.3163 12.2338 87.3102 12.2385C87.301 12.2456 87.2918 12.2526 87.2825 12.2597C87.2816 12.2604 87.2807 12.261 87.2798 12.2617C87.2655 12.2726 87.2511 12.2836 87.2366 12.2945C87.2382 12.315 87.2397 12.3355 87.241 12.3561C87.2418 12.3692 87.2425 12.3824 87.2432 12.3956C87.2435 12.4021 87.2438 12.4086 87.2441 12.4151C87.2441 12.4154 87.2442 12.4158 87.2442 12.4161C87.2454 12.4439 87.2464 12.4718 87.247 12.4997C87.2472 12.5085 87.2474 12.5173 87.2475 12.5261C87.2478 12.5443 87.2479 12.5625 87.2479 12.5807C87.2479 14.6084 85.5606 16.2592 83.4882 16.2592C82.3818 16.2592 81.3851 15.7887 80.6964 15.0416C80.6879 15.0323 80.6794 15.023 80.671 15.0137C80.6547 14.9956 80.6386 14.9775 80.6227 14.9592C80.6223 14.9587 80.622 14.9583 80.6216 14.9579ZM80.4572 15.0625C80.3238 15.072 80.1976 15.0768 80.0788 15.0768C79.7148 15.0768 79.4024 15.0353 79.1581 14.9458C78.9139 14.8564 78.7161 14.7103 78.6263 14.4894L78.6261 14.4888C78.5138 14.2104 78.5736 13.9216 78.7512 13.6413C78.9132 13.3856 79.1817 13.1212 79.5443 12.8439C79.5383 12.7569 79.5353 12.6691 79.5353 12.5807C79.5353 10.4435 81.3123 8.70972 83.4882 8.70972C84.695 8.70972 85.7788 9.24284 86.505 10.0823L86.6806 10.0701C87.1391 10.0382 87.5261 10.0621 87.8249 10.1494C88.1238 10.2368 88.3616 10.3968 88.4652 10.6546C88.5757 10.9296 88.4879 11.23 88.3028 11.5126C88.1216 11.7893 87.8264 12.0834 87.4361 12.3847C87.4394 12.4497 87.4411 12.515 87.4411 12.5807C87.4411 14.7179 85.6641 16.4517 83.4882 16.4517C82.2728 16.4517 81.183 15.9111 80.4572 15.0625ZM87.3657 11.8266C87.5999 11.6254 87.773 11.439 87.8848 11.2748C88.0396 11.0477 88.0485 10.9077 88.0178 10.8332L88.0174 10.832C87.9844 10.7502 87.8909 10.6606 87.6665 10.5999C87.4685 10.5464 87.1952 10.5236 86.8457 10.5397C87.0928 10.9282 87.2718 11.3625 87.3657 11.8266ZM80.7403 14.9507C80.7641 14.9771 80.7882 15.0031 80.8128 15.0287C81.4818 15.7282 82.4334 16.1658 83.4882 16.1658C85.5051 16.1658 87.1449 14.5628 87.1524 12.5942C87.1524 12.5897 87.1524 12.5852 87.1524 12.5807C87.1524 12.5495 87.152 12.5183 87.1512 12.4873C87.1511 12.4859 87.1511 12.4845 87.151 12.483C87.1499 12.4425 87.1481 12.4021 87.1456 12.3619C87.1169 12.3829 87.0877 12.4039 87.0581 12.4248C87.0559 12.4264 87.0536 12.428 87.0514 12.4296C87.0207 12.4513 86.9896 12.4731 86.9581 12.4947C86.2 13.0164 85.2041 13.527 84.1068 13.9527C84.1065 13.9528 84.1062 13.9529 84.1059 13.9531C82.9614 14.3981 81.8301 14.7039 80.8873 14.8257C80.8493 14.8306 80.8116 14.8352 80.7742 14.8395C80.7713 14.8399 80.7684 14.8402 80.7655 14.8405C80.7282 14.8448 80.6913 14.8487 80.6548 14.8524C80.6815 14.8842 80.7088 14.9156 80.7366 14.9466C80.7378 14.948 80.7391 14.9493 80.7403 14.9507ZM86.9559 12.7289C86.8762 14.5263 85.3551 15.9734 83.4882 15.9734C82.5399 15.9734 81.6801 15.6005 81.0534 14.9971C81.9859 14.8617 83.0775 14.5595 84.1761 14.1323C85.231 13.7231 86.1978 13.2344 86.9559 12.7289ZM79.7579 13.0419C79.7273 13.0649 79.6975 13.0876 79.6685 13.1102C79.6663 13.1119 79.6641 13.1136 79.6619 13.1153C79.6347 13.1365 79.6082 13.1576 79.5824 13.1785C78.988 13.6597 78.7639 14.0554 78.8939 14.3814C78.8939 14.3815 78.894 14.3816 78.894 14.3817C78.8942 14.3821 78.8943 14.3825 78.8945 14.3829C79.0017 14.65 79.4237 14.7911 80.0788 14.7917C80.1321 14.7917 80.1871 14.7908 80.2435 14.789C80.2772 14.7879 80.3115 14.7865 80.3463 14.7847C80.3495 14.7846 80.3527 14.7844 80.356 14.7842C80.3948 14.7822 80.4342 14.7797 80.4742 14.7769C80.4508 14.7462 80.4279 14.7152 80.4055 14.6838C80.4047 14.6827 80.4039 14.6816 80.4031 14.6805C80.3823 14.6514 80.362 14.622 80.3421 14.5923C80.0752 14.1941 79.885 13.7426 79.7924 13.2579C79.7858 13.2233 79.7796 13.1884 79.774 13.1534C79.7738 13.1522 79.7736 13.151 79.7734 13.1498C79.7677 13.114 79.7625 13.078 79.7579 13.0419ZM79.6233 13.3948C79.7183 13.8274 79.8874 14.2334 80.1166 14.5991C79.8456 14.6012 79.6218 14.5787 79.4488 14.5359C79.1996 14.4741 79.1025 14.3828 79.0739 14.3115L79.0738 14.3113C79.0331 14.2101 79.0402 14.0773 79.1629 13.8865C79.2555 13.7423 79.4063 13.5786 79.6233 13.3948ZM86.9332 12.165C86.7232 10.4938 85.2613 9.18798 83.4882 9.18798C81.5876 9.18798 80.0454 10.6847 80.0176 12.5298L80.2808 12.9085L80.1218 13.018C80.0983 13.0342 80.0752 13.0502 80.0526 13.0662C80.134 13.6202 80.3528 14.1316 80.6746 14.5661C81.6237 14.4677 82.7998 14.1573 84.0038 13.6897C85.1532 13.2433 86.1825 12.7063 86.9332 12.165Z" fill="#02E2AC"/>
</g>
<line y1="-0.5" x2="188.548" y2="-0.5" transform="matrix(0.954663 -0.29769 0.312773 0.949828 1 60)" stroke="#F3587D"/>
<line y1="-0.5" x2="184.569" y2="-0.5" transform="matrix(0.95908 0.283135 -0.297624 0.954683 3.9834 4.83862)" stroke="#F3587D"/>
<defs>
<clipPath id="clip0">
<rect width="159.116" height="54.4028" fill="white" transform="translate(11.9392)"/>
</clipPath>
</defs>
</svg>
