<svg width="182" height="60" viewBox="0 0 182 60" fill="none" xmlns="http://www.w3.org/2000/svg">
<rect width="159.116" height="54.4028" transform="translate(11.9395)" fill="white"/>
<g filter="url(#filter0_df_209_1361)">
<path d="M71.5987 28.5251H78.918C78.918 29.2505 78.8806 29.9215 78.8244 30.5199C78.7682 31.1183 78.6372 31.6624 78.45 32.1701C78.1879 32.8955 77.8323 33.5302 77.383 34.0923C76.9337 34.6364 76.3909 35.1079 75.7918 35.4705C75.1928 35.8332 74.5189 36.1234 73.7888 36.3047C73.0588 36.5042 72.2913 36.5949 71.4863 36.5949C70.3819 36.5949 69.371 36.4135 68.4538 36.069C67.5552 35.7244 66.769 35.2167 66.1138 34.6001C65.4587 33.9473 64.9532 33.1856 64.5976 32.2971C64.2419 31.3903 64.0547 30.4111 64.0547 29.323C64.0547 28.2531 64.2232 27.2739 64.5788 26.3853C64.9345 25.4786 65.4587 24.7169 66.0951 24.0822C66.769 23.4475 67.5552 22.9579 68.4912 22.6134C69.4272 22.2688 70.4568 22.0875 71.5987 22.0875C73.0775 22.0875 74.3692 22.3958 75.4923 23.0123C76.6155 23.6289 77.4953 24.59 78.1505 25.8957L74.6499 27.292C74.3317 26.5304 73.9012 26.0045 73.377 25.6781C72.8716 25.3516 72.2726 25.1884 71.6174 25.1884C71.0745 25.1884 70.5691 25.2972 70.1198 25.4967C69.6705 25.6962 69.2774 25.9682 68.9592 26.349C68.641 26.7117 68.3976 27.1651 68.2104 27.6728C68.042 28.1987 67.9484 28.779 67.9484 29.4137C67.9484 29.994 68.0232 30.538 68.173 31.0277C68.3415 31.5173 68.5661 31.9525 68.8843 32.3152C69.2026 32.6779 69.5957 32.968 70.0449 33.1675C70.5129 33.367 71.0558 33.4576 71.6548 33.4576C72.0105 33.4576 72.3662 33.4214 72.7031 33.3488C73.0401 33.2582 73.3396 33.1312 73.6016 32.968C73.8824 32.7867 74.1071 32.5509 74.2756 32.2789C74.444 32.0069 74.5751 31.6624 74.6312 31.2634H71.5987V28.5251V28.5251ZM97.1134 25.3516V36.5949H93.1823V25.3516H90V22.0875H100.296V25.3516H97.1134ZM113.961 27.0563C113.1 26.0407 112.052 25.533 110.797 25.533C110.236 25.533 109.73 25.6236 109.244 25.8231C108.776 26.0226 108.383 26.2946 108.027 26.621C107.69 26.9474 107.409 27.3464 107.222 27.8179C107.035 28.2894 106.941 28.779 106.941 29.323C106.941 29.8671 107.035 30.3748 107.222 30.8463C107.428 31.3178 107.69 31.7168 108.027 32.0613C108.383 32.4059 108.794 32.6779 109.262 32.8592C109.73 33.0587 110.236 33.1494 110.779 33.1494C111.958 33.1494 113.025 32.6597 113.961 31.6805V35.9239L113.587 36.0508C113.025 36.2503 112.501 36.3773 111.995 36.4679C111.509 36.5586 111.022 36.613 110.535 36.613C109.562 36.613 108.607 36.4317 107.709 36.0871C106.81 35.7244 106.024 35.2167 105.331 34.5638C104.657 33.911 104.096 33.1312 103.684 32.2427C103.272 31.3359 103.066 30.3567 103.066 29.3049C103.066 28.2531 103.272 27.2739 103.665 26.4034C104.077 25.5148 104.62 24.7532 105.313 24.1185C106.005 23.4657 106.81 22.976 107.709 22.6134C108.607 22.2507 109.562 22.0693 110.554 22.0693C111.116 22.0693 111.677 22.1237 112.22 22.2507C112.782 22.3595 113.362 22.5408 113.961 22.7766V27.0563V27.0563ZM121.673 29.3412C121.673 29.8852 121.786 30.393 121.992 30.8644C122.198 31.3359 122.497 31.7349 122.853 32.0794C123.208 32.424 123.639 32.696 124.126 32.8773C124.612 33.0587 125.137 33.1494 125.679 33.1494C126.222 33.1494 126.728 33.0587 127.214 32.8773C127.701 32.6779 128.132 32.4059 128.506 32.0794C128.88 31.7349 129.18 31.3359 129.386 30.8644C129.592 30.393 129.704 29.9033 129.704 29.3412C129.704 28.779 129.592 28.2894 129.386 27.8179C129.18 27.3464 128.88 26.9474 128.506 26.6029C128.15 26.2583 127.72 26.0045 127.214 25.8231C126.728 25.6236 126.222 25.533 125.679 25.533C125.137 25.533 124.631 25.6236 124.126 25.8231C123.639 26.0045 123.227 26.2765 122.853 26.6029C122.497 26.9474 122.198 27.3464 121.992 27.8179C121.786 28.2894 121.673 28.7971 121.673 29.3412ZM117.817 29.3412C117.817 28.3257 118.004 27.3645 118.397 26.4941C118.791 25.6055 119.333 24.8257 120.026 24.1729C120.719 23.5201 121.542 22.9942 122.497 22.6315C123.47 22.2507 124.537 22.0693 125.679 22.0693C126.821 22.0693 127.888 22.2507 128.843 22.6315C129.816 22.9942 130.64 23.5019 131.333 24.1729C132.044 24.8257 132.587 25.6055 132.98 26.4941C133.373 27.3645 133.56 28.3257 133.56 29.3412C133.56 30.3567 133.373 31.3178 132.98 32.2064C132.587 33.0768 132.044 33.8566 131.333 34.5094C130.64 35.1623 129.816 35.6882 128.843 36.069C127.87 36.4317 126.821 36.613 125.679 36.613C124.519 36.613 123.452 36.4317 122.497 36.069C121.542 35.6882 120.719 35.1804 120.026 34.5094C119.333 33.8566 118.791 33.0768 118.397 32.2064C118.004 31.3178 117.817 30.3748 117.817 29.3412ZM141.291 22.0875V36.5949H137.36V22.0875H141.291V22.0875ZM86.2561 22.0875V36.5949H82.325V22.0875H86.2561V22.0875ZM145.41 36.5949V22.0875H149.154L156.454 30.9551V22.0875H160.385V36.5949H156.604L149.341 27.7272V36.5949H145.41Z" fill="#0E0333"/>
</g>
<g filter="url(#filter1_df_209_1361)">
<path d="M51.4343 29.5234C51.4342 31.289 50.9176 33.016 49.9482 34.4909L52.0476 36.217C53.4212 34.2562 54.1559 31.9183 54.151 29.5234C54.1502 27.1965 53.4619 24.9219 52.1727 22.9858L49.99 24.6363C50.8888 26.0365 51.4343 27.7343 51.4343 29.5234Z" fill="#02E2AC"/>
<path d="M53.7527 37.4692C52.3219 36.2873 47.3686 32.3366 46.7113 31.812C47.0845 31.1073 47.2767 30.3211 47.2704 29.5238C47.2642 28.7266 47.0597 27.9434 46.6754 27.2447L52.1878 23.0796L53.7978 21.7739C54.1935 21.5104 54.2582 21.2185 53.9707 20.8403C53.5962 20.3476 53.1905 19.8793 52.7561 19.4383C50.4371 17.0823 47.3129 15.5188 43.8295 15.1898V12.4221C43.8295 11.6898 43.2763 11.0504 42.5448 11.003C42.3567 10.9905 42.1681 11.0167 41.9906 11.08C41.8131 11.1433 41.6504 11.2423 41.5128 11.371C41.3752 11.4996 41.2654 11.6551 41.1904 11.8278C41.1154 12.0005 41.0767 12.1868 41.0766 12.3751V15.1911C39.9028 15.3018 38.7471 15.5565 37.6356 15.9492V12.4221C37.6356 11.6898 37.0824 11.0504 36.3509 11.003C36.1628 10.9905 35.9742 11.0167 35.7967 11.08C35.6192 11.1433 35.4566 11.2423 35.3189 11.371C35.1813 11.4996 35.0716 11.6551 34.9966 11.8278C34.9216 12.0006 34.8829 12.1868 34.8829 12.3751V17.2636C30.7841 19.7858 28.0416 24.2937 28.0004 29.4453C27.9372 37.4501 34.6152 44 42.6287 44H53.3262C53.5213 43.9999 53.71 43.9308 53.859 43.8049C54.0079 43.6791 54.1074 43.5046 54.1398 43.3124L54.1509 38.3186C54.1515 38.1564 54.1161 37.9961 54.0472 37.8493C53.9783 37.7024 53.8778 37.5726 53.7527 37.4692V37.4692ZM51.4138 39.2313L51.3993 41.25H42.5971C36.1299 41.25 30.7213 35.9638 30.7531 29.5038C30.7704 25.9577 32.3708 22.7869 34.8823 20.6549V23.3279C34.8823 24.0604 35.4355 24.6998 36.167 24.7472C36.3551 24.7596 36.5437 24.7334 36.7212 24.6701C36.8987 24.6068 37.0613 24.5078 37.1989 24.3792C37.3365 24.2505 37.4462 24.095 37.5212 23.9223C37.5962 23.7496 37.635 23.5634 37.635 23.3751V18.9124C39.1484 18.2275 40.791 17.8737 42.4525 17.875C45.5305 17.875 48.1236 18.8949 50.2126 20.8356L44.5934 25.2513C43.9282 24.9208 43.1953 24.7493 42.4525 24.7501C39.7919 24.7501 37.635 26.9046 37.635 29.5626C37.635 32.2206 39.7919 34.3751 42.4525 34.3751C43.2069 34.3757 43.9509 34.1984 44.6239 33.8578L51.4138 39.2313ZM44.5172 29.5626C44.5172 29.9705 44.3961 30.3693 44.1693 30.7085C43.9424 31.0477 43.6199 31.3121 43.2426 31.4682C42.8653 31.6243 42.4502 31.6652 42.0496 31.5856C41.6491 31.506 41.2812 31.3096 40.9924 31.0211C40.7037 30.7326 40.507 30.3651 40.4274 29.965C40.3477 29.5649 40.3886 29.1501 40.5448 28.7732C40.7011 28.3963 40.9658 28.0742 41.3053 27.8476C41.6449 27.6209 42.0441 27.4999 42.4525 27.4999C43.0001 27.4999 43.5253 27.7173 43.9125 28.1041C44.2997 28.4909 44.5172 29.0155 44.5172 29.5626Z" fill="#0E0333"/>
</g>
<line y1="-0.5" x2="188.548" y2="-0.5" transform="matrix(0.954663 -0.29769 0.312773 0.949828 1 60)" stroke="#F3587D"/>
<line y1="-0.5" x2="184.569" y2="-0.5" transform="matrix(0.95908 0.283135 -0.297624 0.954683 3.9834 4.83862)" stroke="#F3587D"/>
<defs>
<filter id="filter0_df_209_1361" x="62.0547" y="20.0693" width="100.331" height="23.5437" filterUnits="userSpaceOnUse" color-interpolation-filters="sRGB">
<feFlood flood-opacity="0" result="BackgroundImageFix"/>
<feColorMatrix in="SourceAlpha" type="matrix" values="0 0 0 0 0 0 0 0 0 0 0 0 0 0 0 0 0 0 127 0" result="hardAlpha"/>
<feOffset dy="5"/>
<feGaussianBlur stdDeviation="1"/>
<feColorMatrix type="matrix" values="0 0 0 0 0 0 0 0 0 0 0 0 0 0 0 0 0 0 0.4 0"/>
<feBlend mode="normal" in2="BackgroundImageFix" result="effect1_dropShadow_209_1361"/>
<feBlend mode="normal" in="SourceGraphic" in2="effect1_dropShadow_209_1361" result="shape"/>
<feGaussianBlur stdDeviation="1" result="effect2_foregroundBlur_209_1361"/>
</filter>
<filter id="filter1_df_209_1361" x="24" y="7" width="34.1509" height="45" filterUnits="userSpaceOnUse" color-interpolation-filters="sRGB">
<feFlood flood-opacity="0" result="BackgroundImageFix"/>
<feColorMatrix in="SourceAlpha" type="matrix" values="0 0 0 0 0 0 0 0 0 0 0 0 0 0 0 0 0 0 127 0" result="hardAlpha"/>
<feOffset dy="4"/>
<feGaussianBlur stdDeviation="2"/>
<feComposite in2="hardAlpha" operator="out"/>
<feColorMatrix type="matrix" values="0 0 0 0 0 0 0 0 0 0 0 0 0 0 0 0 0 0 0.25 0"/>
<feBlend mode="normal" in2="BackgroundImageFix" result="effect1_dropShadow_209_1361"/>
<feBlend mode="normal" in="SourceGraphic" in2="effect1_dropShadow_209_1361" result="shape"/>
<feGaussianBlur stdDeviation="2" result="effect2_foregroundBlur_209_1361"/>
</filter>
</defs>
</svg>
