<svg viewBox="0 0 184 68" xmlns="http://www.w3.org/2000/svg" fill-rule="evenodd" clip-rule="evenodd" stroke-linejoin="round" stroke-miterlimit="1.414"><path d="M183.247 67.006v-.196H.392V.393h182.659v66.613h.196v-.196.196h.196V0H0v67.202h183.443v-.196h-.196z" fill="#d6d6d6" fill-rule="nonzero"/><path d="M60.761 36.979h6.308v.504c0 1.147-.135 2.163-.405 3.046-.264.817-.709 1.582-1.335 2.294-1.418 1.595-3.22 2.393-5.409 2.393-2.136 0-3.965-.771-5.488-2.314-1.523-1.549-2.284-3.408-2.284-5.577 0-2.215.774-4.094 2.324-5.637 1.549-1.548 3.434-2.323 5.656-2.323 1.193 0 2.307.243 3.342.728.989.486 1.961 1.275 2.917 2.367l-1.642 1.572c-1.252-1.668-2.778-2.502-4.578-2.502-1.615 0-2.969.557-4.064 1.672-1.094 1.094-1.641 2.465-1.641 4.113 0 1.701.61 3.102 1.829 4.203 1.14 1.022 2.377 1.532 3.708 1.532 1.134 0 2.153-.381 3.056-1.144.903-.769 1.407-1.689 1.513-2.761h-3.807v-2.166z" fill="#14003d" fill-rule="nonzero"/><path fill="#14003d" d="M75.232 29.661h2.304v15.268h-2.304z"/><path d="M90.683 31.827v13.102h-2.305V31.827h-3.509v-2.166h9.314v2.166h-3.5zm21.561-1.35v2.725c-1.332-1.115-2.709-1.672-4.133-1.672-1.569 0-2.891.564-3.966 1.692-1.081 1.12-1.621 2.491-1.621 4.113 0 1.602.54 2.953 1.621 4.054 1.081 1.101 2.407 1.651 3.975 1.651.811 0 1.5-.131 2.067-.396.317-.131.644-.309.984-.533.34-.224.697-.494 1.073-.811v2.783c-1.318.749-2.703 1.123-4.153 1.123-2.182 0-4.045-.761-5.587-2.284-1.536-1.536-2.304-3.388-2.304-5.557 0-1.945.643-3.679 1.928-5.202 1.582-1.865 3.629-2.798 6.141-2.798 1.371 0 2.696.371 3.975 1.112" fill="#14003d" fill-rule="nonzero"/><path d="M119.865 34.793c0-2.149.788-3.995 2.363-5.538 1.569-1.542 3.454-2.314 5.657-2.314 2.175 0 4.04.779 5.596 2.334 1.563 1.556 2.344 3.425 2.344 5.607 0 2.195-.785 4.057-2.354 5.587-1.575 1.536-3.478 2.303-5.705 2.303-1.972 0-3.741-.681-5.31-2.046-1.727-1.51-2.591-3.487-2.591-5.933m2.324.025c0 1.686.567 3.072 1.7 4.159 1.128 1.087 2.43 1.63 3.906 1.63 1.602 0 2.954-.553 4.055-1.66 1.1-1.119 1.651-2.483 1.651-4.09 0-1.627-.544-2.99-1.632-4.09-1.081-1.107-2.419-1.66-4.014-1.66-1.589 0-2.93.553-4.025 1.66-1.094 1.093-1.641 2.443-1.641 4.051" fill="#0fcf7d" fill-rule="nonzero"/><path fill="#14003d" d="M142.611 29.661h2.304v15.268h-2.304z"/><path d="M153.849 44.929V28.623l11.135 11.649V29.661h2.303v16.197L156.153 34.24v10.689h-2.304zM29.922 28.96a.936.936 0 0 1-.936-.936v-7.376a.937.937 0 0 1 1.872 0v7.376a.936.936 0 0 1-.936.936" fill="#14003d" fill-rule="nonzero"/><path d="M31.423 28.96h-2.892a.936.936 0 1 1 0-1.872h2.892a.936.936 0 1 1 0 1.872" fill="#14003d" fill-rule="nonzero"/><path d="M36.555 30.6l3.075-2.898a12.964 12.964 0 0 0-9.195-3.809c-7.18 0-13.002 5.822-13.002 13.003 0 7.182 5.822 13.003 13.002 13.003 2.677 0 5.032.977 7.099-.41l2.574.357-.074-4.178-7.369-5.836 1.584-7.462 2.306-1.77z" fill="#fff" fill-rule="nonzero"/><path d="M37.602 43.84l-1.833-1.775a7.39 7.39 0 0 0 2.093-5.169 7.369 7.369 0 0 0-2.253-5.327l-.956-.929 1.025-.968.874.926.835-.86a9.898 9.898 0 0 1 3.027 7.158 9.93 9.93 0 0 1-2.812 6.944" fill="#0fcf7d" fill-rule="nonzero"/><path d="M37.602 43.84l.136-.141-1.833-1.776-.136.142.141.136a7.592 7.592 0 0 0 2.148-5.305 7.568 7.568 0 0 0-2.312-5.469l-.81-.786.734-.692.879.932.979-1.006-.141-.137-.137.141a9.701 9.701 0 0 1 2.968 7.017 9.735 9.735 0 0 1-2.757 6.807l.141.137.136-.141-.136.141.141.136a10.126 10.126 0 0 0 2.867-7.08c0-2.772-1.097-5.368-3.086-7.299l-.141-.137-.829.854-.868-.919-1.317 1.242 1.104 1.072a7.174 7.174 0 0 1 2.193 5.187 7.196 7.196 0 0 1-2.038 5.032l-.136.141 2.114 2.048.137-.141-.141-.136z" fill="#0fcf7d" fill-rule="nonzero"/><path d="M27.499 36.896a2.936 2.936 0 1 1 5.872 0 2.936 2.936 0 0 1-5.872 0" fill="#fff" fill-rule="nonzero"/><path d="M31.82 39.485l5.334 4.014 2.879 2.169v5.506l-5.784-.278" fill="#fff" fill-rule="nonzero"/><path d="M34.647 36.896c0-.827-.24-1.598-.653-2.249l3.407-3.149.029.031 4.031-3.8-.929-.929a14.185 14.185 0 0 0-10.097-4.183c-7.873 0-14.278 6.406-14.278 14.279 0 7.796 6.28 14.148 14.046 14.273v.006H41.31v-6.144l-7.487-5.636a4.19 4.19 0 0 0 .824-2.499m-4.212 1.66c-.914 0-1.66-.744-1.66-1.66 0-.915.746-1.66 1.66-1.66a1.661 1.661 0 0 1 0 3.32m8.323 10.067h-8.323c-6.466 0-11.726-5.261-11.726-11.727s5.26-11.727 11.726-11.727c2.685 0 5.232.897 7.299 2.547l-5.713 5.279a4.186 4.186 0 0 0-1.586-.311 4.217 4.217 0 0 0-4.212 4.212 4.217 4.217 0 0 0 5.403 4.04l7.132 5.369v2.318z" fill="#14003d" fill-rule="nonzero"/><path d="M42.215 21.351l1.023-1.023 1.023 1.023-1.023 1.023-1.023-1.023zm-8.182.61l-.489-.489.489-.49.49.49-.49.489z" fill="#26e899"/><path d="M39.602 17.178a.737.737 0 1 0-1.475-.001.737.737 0 0 0 1.475.001" fill="#26e899" fill-rule="nonzero"/><path d="M25.493 31.536a.936.936 0 0 1-.936-.936v-9.952a.937.937 0 0 1 1.872 0V30.6c0 .517-.42.936-.936.936" fill="#14003d" fill-rule="nonzero"/><path d="M.146.335l183.05 66.81.101-.277L.247.059m158.107 33.815c-6.28 0-11.389-5.109-11.389-11.389 0-6.28 5.109-11.389 11.389-11.389 6.28 0 11.389 5.109 11.389 11.389 0 6.28-5.109 11.389-11.389 11.389m0-21.683c-5.676 0-10.294 4.618-10.294 10.294s4.618 10.294 10.294 10.294 10.294-4.618 10.294-10.294-4.618-10.294-10.294-10.294" fill="#fa006b" fill-rule="nonzero"/><path d="M149.176 11.386a2.082 2.082 0 0 1-2.08-2.079c0-1.146.934-2.078 2.079-2.078 1.146 0 2.079.932 2.079 2.078a2.082 2.082 0 0 1-2.079 2.079m0-3.5a1.423 1.423 0 0 0 0 2.843c.784 0 1.422-.637 1.422-1.422 0-.783-.638-1.421-1.422-1.421m15.667 1.421a.463.463 0 1 0-.925 0 .463.463 0 0 0 .925 0m3.471 3.295a.463.463 0 1 0-.927 0 .463.463 0 0 0 .927 0m-22.491.926a.463.463 0 1 0-.925 0 .463.463 0 0 0 .925 0" fill="#26e899" fill-rule="nonzero"/><path d="M154.397 21.066c-.13 0-.264-.005-.402-.016-1.09-.085-2.363-.496-3.585-1.159a10.426 10.426 0 0 1-2.251-1.62l.761-.788a9.317 9.317 0 0 0 2.012 1.445c1.09.591 2.208.957 3.148 1.03.752.059 1.32-.092 1.483-.392.163-.3-.022-.858-.481-1.457-.574-.747-1.491-1.484-2.581-2.075a9.586 9.586 0 0 0-1.871-.782l.309-1.052c.692.203 1.393.496 2.084.871 1.222.662 2.262 1.505 2.928 2.371.759.99.964 1.93.575 2.646-.345.637-1.094.978-2.129.978" fill="#fa006b" fill-rule="nonzero"/><path d="M149.265 26.072a14.24 14.24 0 0 1-1.392-.058l.113-1.089c.069.007 6.886.66 9.773-3.081 1.713-2.218 1.741-5.586.083-10.009l1.026-.384c1.8 4.803 1.718 8.527-.244 11.066-1.362 1.762-3.662 2.925-6.652 3.362a19.027 19.027 0 0 1-2.707.193" fill="#fa006b" fill-rule="nonzero"/><path d="M149.572 28.813c-.256 0-.407-.01-.434-.012l.074-1.092c.029.001 2.94.173 6.438-1.296 4.679-1.965 8.141-5.778 10.292-11.333l1.021.395c-2.827 7.306-7.51 10.542-10.94 11.969-2.956 1.231-5.472 1.369-6.451 1.369" fill="#fa006b" fill-rule="nonzero"/><path d="M147.393 30.097c-2.345 0-3.627-.474-3.904-1.437-.332-1.155.936-2.484 3.878-4.062l.517.966c-2.946 1.58-3.411 2.552-3.342 2.794.07.24.98.817 4.316.589 2.87-.196 6.562-.912 10.398-2.016 3.835-1.104 7.343-2.46 9.877-3.82 2.947-1.58 3.412-2.553 3.343-2.794-.078-.271-.97-.749-3.784-.62l-.051-1.094c2.976-.138 4.575.324 4.888 1.411.332 1.156-.936 2.485-3.878 4.062-2.601 1.396-6.185 2.783-10.092 3.908-3.908 1.125-7.681 1.855-10.626 2.056-.556.038-1.07.057-1.54.057m10.965 3.621a3.64 3.64 0 0 1 2.188-4.653 3.639 3.639 0 0 1 4.653 2.188l-1.03.371a2.544 2.544 0 0 0-3.252-1.529 2.543 2.543 0 0 0-1.528 3.252l-1.031.371z" fill="#fa006b" fill-rule="nonzero"/></svg>