<svg width="320" height="180" viewBox="0 0 320 180" fill="none" xmlns="http://www.w3.org/2000/svg">
<rect width="320" height="180" fill="white"/>
<path d="M86.29 118.612C87.6246 118.612 88.5626 118.617 89.104 118.626C92.7533 118.71 94.578 120.423 94.578 123.764C94.578 125.435 94.1066 126.727 93.164 127.642C92.2306 128.547 90.8446 129 89.006 129H86.304C86.1173 129 86.024 128.902 86.024 128.706V118.864C86.024 118.771 86.0426 118.705 86.08 118.668C86.1173 118.631 86.1873 118.612 86.29 118.612ZM88.222 120.096C88.138 120.096 88.096 120.161 88.096 120.292V127.348C88.096 127.413 88.11 127.46 88.138 127.488C88.166 127.507 88.2126 127.516 88.278 127.516H88.628C89.944 127.516 90.9006 127.227 91.498 126.648C92.1046 126.069 92.408 125.108 92.408 123.764C92.408 122.896 92.2866 122.205 92.044 121.692C91.8013 121.169 91.4373 120.787 90.952 120.544C90.476 120.301 89.8506 120.161 89.076 120.124L88.222 120.096ZM100.699 129.14C99.7376 129.14 98.9069 128.93 98.2069 128.51C97.5069 128.09 96.9656 127.483 96.5829 126.69C96.2096 125.887 96.0229 124.94 96.0229 123.848C96.0229 122.737 96.2143 121.781 96.5969 120.978C96.9796 120.166 97.5209 119.545 98.2209 119.116C98.9209 118.687 99.7469 118.472 100.699 118.472C101.642 118.472 102.463 118.687 103.163 119.116C103.863 119.545 104.404 120.166 104.787 120.978C105.17 121.781 105.361 122.733 105.361 123.834C105.361 124.926 105.17 125.873 104.787 126.676C104.414 127.469 103.877 128.081 103.177 128.51C102.477 128.93 101.651 129.14 100.699 129.14ZM100.713 127.656C101.562 127.656 102.188 127.353 102.589 126.746C102.99 126.139 103.191 125.178 103.191 123.862C103.191 122.518 102.986 121.529 102.575 120.894C102.174 120.259 101.548 119.942 100.699 119.942C99.8496 119.942 99.2149 120.259 98.7949 120.894C98.3843 121.529 98.1789 122.518 98.1789 123.862C98.1789 125.178 98.3843 126.139 98.7949 126.746C99.2056 127.353 99.8449 127.656 100.713 127.656ZM118.332 118.612C118.397 118.612 118.439 118.626 118.458 118.654C118.486 118.682 118.5 118.733 118.5 118.808V128.79C118.5 128.93 118.421 129 118.262 129H117.1C117.025 129 116.965 128.991 116.918 128.972C116.871 128.953 116.82 128.911 116.764 128.846L111.976 122.042C111.939 121.986 111.901 121.963 111.864 121.972C111.836 121.972 111.822 122 111.822 122.056V128.776V128.818C111.822 128.939 111.743 129 111.584 129H110.352C110.184 129 110.1 128.925 110.1 128.776V118.85C110.1 118.691 110.175 118.612 110.324 118.612H111.724C111.817 118.612 111.887 118.626 111.934 118.654C111.981 118.673 112.032 118.719 112.088 118.794L116.596 125.29C116.633 125.355 116.675 125.388 116.722 125.388C116.778 125.388 116.806 125.341 116.806 125.248V118.836C116.806 118.687 116.881 118.612 117.03 118.612H118.332ZM125.008 129.14C124.046 129.14 123.216 128.93 122.516 128.51C121.816 128.09 121.274 127.483 120.892 126.69C120.518 125.887 120.332 124.94 120.332 123.848C120.332 122.737 120.523 121.781 120.906 120.978C121.288 120.166 121.83 119.545 122.53 119.116C123.23 118.687 124.056 118.472 125.008 118.472C125.95 118.472 126.772 118.687 127.472 119.116C128.172 119.545 128.713 120.166 129.096 120.978C129.478 121.781 129.67 122.733 129.67 123.834C129.67 124.926 129.478 125.873 129.096 126.676C128.722 127.469 128.186 128.081 127.486 128.51C126.786 128.93 125.96 129.14 125.008 129.14ZM125.022 127.656C125.871 127.656 126.496 127.353 126.898 126.746C127.299 126.139 127.5 125.178 127.5 123.862C127.5 122.518 127.294 121.529 126.884 120.894C126.482 120.259 125.857 119.942 125.008 119.942C124.158 119.942 123.524 120.259 123.104 120.894C122.693 121.529 122.488 122.518 122.488 123.862C122.488 125.178 122.693 126.139 123.104 126.746C123.514 127.353 124.154 127.656 125.022 127.656ZM130.197 118.836C130.197 118.687 130.277 118.612 130.435 118.612H138.303C138.462 118.612 138.541 118.687 138.541 118.836V119.928C138.541 120.059 138.467 120.124 138.317 120.124H135.629C135.573 120.124 135.531 120.133 135.503 120.152C135.485 120.171 135.475 120.208 135.475 120.264V128.762C135.475 128.921 135.405 129 135.265 129H133.599C133.469 129 133.403 128.925 133.403 128.776V120.292C133.403 120.227 133.389 120.185 133.361 120.166C133.343 120.138 133.305 120.124 133.249 120.124H130.435C130.351 120.124 130.291 120.11 130.253 120.082C130.216 120.054 130.197 120.003 130.197 119.928V118.836Z" fill="#F3587D"/>
<path d="M148.34 129C148.21 129 148.144 128.935 148.144 128.804V128.202C148.144 128.118 148.121 128.076 148.074 128.076C148.046 128.076 148.009 128.099 147.962 128.146C147.682 128.426 147.374 128.664 147.038 128.86C146.712 129.047 146.287 129.14 145.764 129.14C145.167 129.14 144.635 129 144.168 128.72C143.702 128.44 143.333 128.02 143.062 127.46C142.792 126.891 142.656 126.205 142.656 125.402C142.656 124.618 142.796 123.927 143.076 123.33C143.356 122.733 143.744 122.271 144.238 121.944C144.733 121.608 145.298 121.44 145.932 121.44C146.352 121.44 146.716 121.505 147.024 121.636C147.332 121.767 147.622 121.949 147.892 122.182C147.967 122.238 148.018 122.266 148.046 122.266C148.093 122.266 148.116 122.205 148.116 122.084V118.794C148.116 118.673 148.168 118.612 148.27 118.612H149.124C149.227 118.612 149.278 118.673 149.278 118.794V128.776C149.278 128.86 149.264 128.921 149.236 128.958C149.208 128.986 149.148 129 149.054 129H148.34ZM148.102 123.218C147.804 122.919 147.5 122.695 147.192 122.546C146.894 122.387 146.567 122.308 146.212 122.308C145.503 122.308 144.934 122.574 144.504 123.106C144.075 123.638 143.86 124.389 143.86 125.36C143.86 126.34 144.07 127.073 144.49 127.558C144.92 128.043 145.466 128.286 146.128 128.286C146.492 128.286 146.824 128.202 147.122 128.034C147.43 127.857 147.668 127.637 147.836 127.376C148.014 127.115 148.102 126.853 148.102 126.592V123.218ZM152.675 119.984C152.675 120.077 152.657 120.147 152.619 120.194C152.582 120.231 152.517 120.25 152.423 120.25H151.611C151.471 120.25 151.401 120.171 151.401 120.012V118.836C151.401 118.687 151.467 118.612 151.597 118.612H152.479C152.535 118.612 152.582 118.631 152.619 118.668C152.657 118.705 152.675 118.757 152.675 118.822V119.984ZM152.619 128.762C152.619 128.855 152.601 128.921 152.563 128.958C152.526 128.986 152.461 129 152.367 129H151.653C151.569 129 151.513 128.986 151.485 128.958C151.457 128.93 151.443 128.879 151.443 128.804V121.776C151.443 121.645 151.499 121.58 151.611 121.58H152.465C152.568 121.58 152.619 121.641 152.619 121.762V128.762ZM159.245 123.218C159.049 122.929 158.778 122.7 158.433 122.532C158.097 122.355 157.705 122.266 157.257 122.266C156.744 122.266 156.324 122.378 155.997 122.602C155.67 122.817 155.507 123.101 155.507 123.456C155.507 123.671 155.586 123.867 155.745 124.044C155.913 124.212 156.212 124.361 156.641 124.492L158.419 125.024C159.035 125.192 159.492 125.444 159.791 125.78C160.09 126.107 160.239 126.499 160.239 126.956C160.239 127.385 160.108 127.768 159.847 128.104C159.586 128.431 159.226 128.687 158.769 128.874C158.312 129.051 157.794 129.14 157.215 129.14C156.496 129.14 155.857 129 155.297 128.72C154.737 128.431 154.34 128.057 154.107 127.6C154.079 127.553 154.065 127.516 154.065 127.488C154.065 127.441 154.088 127.404 154.135 127.376L154.681 127.068C154.774 127.012 154.844 127.017 154.891 127.082C155.395 127.885 156.174 128.286 157.229 128.286C157.78 128.277 158.232 128.165 158.587 127.95C158.951 127.726 159.133 127.437 159.133 127.082C159.133 126.821 159.026 126.601 158.811 126.424C158.596 126.247 158.246 126.088 157.761 125.948L156.319 125.542C155.638 125.365 155.148 125.117 154.849 124.8C154.56 124.483 154.415 124.095 154.415 123.638C154.415 123.209 154.532 122.826 154.765 122.49C155.008 122.154 155.344 121.897 155.773 121.72C156.212 121.533 156.711 121.44 157.271 121.44C157.887 121.44 158.438 121.557 158.923 121.79C159.418 122.023 159.796 122.341 160.057 122.742C160.122 122.835 160.118 122.901 160.043 122.938L159.455 123.26C159.418 123.279 159.39 123.288 159.371 123.288C159.334 123.288 159.292 123.265 159.245 123.218ZM163.917 122.448C163.842 122.448 163.805 122.49 163.805 122.574V127.012C163.805 127.432 163.875 127.721 164.015 127.88C164.155 128.039 164.384 128.118 164.701 128.118H165.667C165.77 128.118 165.821 128.169 165.821 128.272L165.807 128.748C165.807 128.841 165.751 128.902 165.639 128.93C165.396 128.977 164.958 129 164.323 129C163.735 129 163.306 128.865 163.035 128.594C162.764 128.314 162.629 127.875 162.629 127.278V122.602C162.629 122.499 162.582 122.448 162.489 122.448H161.369C161.266 122.448 161.215 122.401 161.215 122.308V121.72C161.215 121.627 161.262 121.58 161.355 121.58H162.545C162.61 121.58 162.643 121.543 162.643 121.468L162.797 119.242C162.797 119.121 162.848 119.06 162.951 119.06H163.651C163.763 119.06 163.819 119.125 163.819 119.256V121.468C163.819 121.543 163.856 121.58 163.931 121.58H165.695C165.798 121.58 165.849 121.622 165.849 121.706V122.308C165.849 122.401 165.798 122.448 165.695 122.448H163.917ZM170.301 129.14C169.601 129.14 168.981 128.981 168.439 128.664C167.907 128.337 167.492 127.885 167.193 127.306C166.904 126.727 166.759 126.069 166.759 125.332C166.759 124.576 166.909 123.904 167.207 123.316C167.515 122.728 167.935 122.271 168.467 121.944C169.009 121.608 169.625 121.44 170.315 121.44C171.006 121.44 171.617 121.608 172.149 121.944C172.691 122.271 173.106 122.728 173.395 123.316C173.694 123.904 173.843 124.571 173.843 125.318C173.843 126.055 173.694 126.713 173.395 127.292C173.097 127.871 172.677 128.323 172.135 128.65C171.603 128.977 170.992 129.14 170.301 129.14ZM170.329 128.258C171.057 128.258 171.622 127.997 172.023 127.474C172.434 126.942 172.639 126.214 172.639 125.29C172.639 124.375 172.429 123.652 172.009 123.12C171.599 122.579 171.034 122.308 170.315 122.308C169.587 122.308 169.013 122.579 168.593 123.12C168.173 123.652 167.963 124.375 167.963 125.29C167.963 126.205 168.173 126.928 168.593 127.46C169.013 127.992 169.592 128.258 170.329 128.258ZM175.77 129C175.639 129 175.574 128.939 175.574 128.818V121.762C175.574 121.641 175.625 121.58 175.728 121.58H176.54C176.643 121.58 176.694 121.631 176.694 121.734V122.644C176.694 122.7 176.708 122.733 176.736 122.742C176.773 122.751 176.811 122.733 176.848 122.686C177.557 121.855 178.281 121.44 179.018 121.44C179.345 121.44 179.508 121.501 179.508 121.622V122.462C179.508 122.555 179.466 122.593 179.382 122.574C179.214 122.546 179.004 122.532 178.752 122.532C178.481 122.532 178.187 122.611 177.87 122.77C177.553 122.929 177.287 123.134 177.072 123.386C176.857 123.638 176.75 123.895 176.75 124.156V128.79C176.75 128.93 176.68 129 176.54 129H175.77ZM182.893 122.448C182.819 122.448 182.781 122.49 182.781 122.574V127.012C182.781 127.432 182.851 127.721 182.991 127.88C183.131 128.039 183.36 128.118 183.677 128.118H184.643C184.746 128.118 184.797 128.169 184.797 128.272L184.783 128.748C184.783 128.841 184.727 128.902 184.615 128.93C184.373 128.977 183.934 129 183.299 129C182.711 129 182.282 128.865 182.011 128.594C181.741 128.314 181.605 127.875 181.605 127.278V122.602C181.605 122.499 181.559 122.448 181.465 122.448H180.345C180.243 122.448 180.191 122.401 180.191 122.308V121.72C180.191 121.627 180.238 121.58 180.331 121.58H181.521C181.587 121.58 181.619 121.543 181.619 121.468L181.773 119.242C181.773 119.121 181.825 119.06 181.927 119.06H182.627C182.739 119.06 182.795 119.125 182.795 119.256V121.468C182.795 121.543 182.833 121.58 182.907 121.58H184.671C184.774 121.58 184.825 121.622 184.825 121.706V122.308C184.825 122.401 184.774 122.448 184.671 122.448H182.893ZM192.463 129.14C191.763 129.14 191.143 128.981 190.601 128.664C190.069 128.337 189.654 127.885 189.355 127.306C189.066 126.727 188.921 126.069 188.921 125.332C188.921 124.576 189.071 123.904 189.369 123.316C189.677 122.728 190.097 122.271 190.629 121.944C191.171 121.608 191.787 121.44 192.477 121.44C193.168 121.44 193.779 121.608 194.311 121.944C194.853 122.271 195.268 122.728 195.557 123.316C195.856 123.904 196.005 124.571 196.005 125.318C196.005 126.055 195.856 126.713 195.557 127.292C195.259 127.871 194.839 128.323 194.297 128.65C193.765 128.977 193.154 129.14 192.463 129.14ZM192.491 128.258C193.219 128.258 193.784 127.997 194.185 127.474C194.596 126.942 194.801 126.214 194.801 125.29C194.801 124.375 194.591 123.652 194.171 123.12C193.761 122.579 193.196 122.308 192.477 122.308C191.749 122.308 191.175 122.579 190.755 123.12C190.335 123.652 190.125 124.375 190.125 125.29C190.125 126.205 190.335 126.928 190.755 127.46C191.175 127.992 191.754 128.258 192.491 128.258ZM197.932 129C197.802 129 197.736 128.939 197.736 128.818V121.762C197.736 121.641 197.788 121.58 197.89 121.58H198.702C198.805 121.58 198.856 121.631 198.856 121.734V122.644C198.856 122.7 198.87 122.733 198.898 122.742C198.936 122.751 198.973 122.733 199.01 122.686C199.72 121.855 200.443 121.44 201.18 121.44C201.507 121.44 201.67 121.501 201.67 121.622V122.462C201.67 122.555 201.628 122.593 201.544 122.574C201.376 122.546 201.166 122.532 200.914 122.532C200.644 122.532 200.35 122.611 200.032 122.77C199.715 122.929 199.449 123.134 199.234 123.386C199.02 123.638 198.912 123.895 198.912 124.156V128.79C198.912 128.93 198.842 129 198.702 129H197.932ZM209.183 121.44C209.865 121.44 210.443 121.599 210.919 121.916C211.405 122.233 211.792 122.653 212.081 123.176L212.109 123.288C212.109 123.344 212.077 123.377 212.011 123.386L211.241 123.568L211.199 123.582C211.153 123.582 211.106 123.545 211.059 123.47C210.761 123.069 210.471 122.775 210.191 122.588C209.921 122.401 209.608 122.308 209.253 122.308C208.525 122.308 207.947 122.579 207.517 123.12C207.088 123.652 206.873 124.375 206.873 125.29C206.873 126.214 207.088 126.942 207.517 127.474C207.956 128.006 208.544 128.272 209.281 128.272C209.72 128.272 210.103 128.165 210.429 127.95C210.765 127.735 211.069 127.404 211.339 126.956C211.367 126.909 211.395 126.886 211.423 126.886C211.451 126.877 211.484 126.881 211.521 126.9L212.123 127.124C212.189 127.152 212.207 127.213 212.179 127.306C211.89 127.847 211.493 128.291 210.989 128.636C210.485 128.972 209.883 129.14 209.183 129.14C208.502 129.14 207.895 128.981 207.363 128.664C206.831 128.337 206.416 127.885 206.117 127.306C205.819 126.727 205.669 126.065 205.669 125.318C205.669 124.571 205.819 123.904 206.117 123.316C206.416 122.719 206.831 122.257 207.363 121.93C207.905 121.603 208.511 121.44 209.183 121.44ZM213.887 129C213.766 129 213.705 128.939 213.705 128.818V118.794C213.705 118.673 213.757 118.612 213.859 118.612H214.685C214.788 118.612 214.839 118.668 214.839 118.78V122.518C214.839 122.621 214.881 122.635 214.965 122.56C215.497 122.149 215.95 121.86 216.323 121.692C216.697 121.524 217.107 121.44 217.555 121.44C218.274 121.44 218.825 121.631 219.207 122.014C219.599 122.397 219.795 122.915 219.795 123.568V128.776C219.795 128.925 219.725 129 219.585 129H218.801C218.68 129 218.619 128.939 218.619 128.818V123.82C218.619 123.353 218.498 122.994 218.255 122.742C218.022 122.49 217.658 122.364 217.163 122.364C216.771 122.364 216.412 122.453 216.085 122.63C215.768 122.798 215.367 123.087 214.881 123.498V128.79C214.881 128.93 214.807 129 214.657 129H213.887ZM226.179 128.104C225.46 128.795 224.63 129.14 223.687 129.14C222.959 129.14 222.385 128.958 221.965 128.594C221.554 128.221 221.349 127.726 221.349 127.11C221.349 126.363 221.662 125.775 222.287 125.346C222.922 124.917 223.836 124.665 225.031 124.59L226.123 124.506C226.282 124.487 226.361 124.417 226.361 124.296V123.918C226.361 123.414 226.202 123.017 225.885 122.728C225.577 122.429 225.157 122.28 224.625 122.28C223.804 122.28 223.132 122.653 222.609 123.4C222.581 123.447 222.553 123.479 222.525 123.498C222.497 123.507 222.46 123.503 222.413 123.484L221.657 123.232C221.61 123.213 221.587 123.181 221.587 123.134C221.587 123.106 221.601 123.064 221.629 123.008C221.909 122.513 222.306 122.131 222.819 121.86C223.342 121.58 223.958 121.44 224.667 121.44C225.582 121.44 226.282 121.655 226.767 122.084C227.252 122.504 227.495 123.087 227.495 123.834V128.79C227.495 128.874 227.481 128.93 227.453 128.958C227.425 128.986 227.374 129 227.299 129H226.599C226.487 129 226.422 128.925 226.403 128.776L226.375 128.132C226.366 128.067 226.342 128.034 226.305 128.034C226.268 128.034 226.226 128.057 226.179 128.104ZM226.361 125.444C226.361 125.295 226.291 125.22 226.151 125.22L225.241 125.304C224.373 125.36 223.701 125.528 223.225 125.808C222.758 126.088 222.525 126.475 222.525 126.97C222.525 127.371 222.665 127.689 222.945 127.922C223.234 128.155 223.617 128.272 224.093 128.272C224.382 128.272 224.667 128.221 224.947 128.118C225.227 128.015 225.474 127.875 225.689 127.698C225.904 127.53 226.067 127.353 226.179 127.166C226.3 126.97 226.361 126.783 226.361 126.606V125.444ZM229.733 129C229.602 129 229.537 128.939 229.537 128.818V121.762C229.537 121.641 229.588 121.58 229.691 121.58H230.531C230.634 121.58 230.685 121.631 230.685 121.734V122.546C230.685 122.649 230.727 122.663 230.811 122.588C231.334 122.177 231.777 121.883 232.141 121.706C232.514 121.529 232.93 121.44 233.387 121.44C234.096 121.44 234.647 121.631 235.039 122.014C235.44 122.397 235.641 122.91 235.641 123.554V128.776C235.641 128.925 235.571 129 235.431 129H234.647C234.526 129 234.465 128.939 234.465 128.818V123.82C234.465 123.353 234.344 122.994 234.101 122.742C233.868 122.49 233.504 122.364 233.009 122.364C232.617 122.364 232.253 122.453 231.917 122.63C231.59 122.798 231.189 123.087 230.713 123.498V128.79C230.713 128.865 230.694 128.921 230.657 128.958C230.629 128.986 230.578 129 230.503 129H229.733ZM244.419 121.454C244.596 121.454 244.685 121.529 244.685 121.678V122.168C244.685 122.261 244.661 122.331 244.615 122.378C244.577 122.415 244.507 122.429 244.405 122.42C244.097 122.42 243.854 122.462 243.677 122.546C243.453 122.639 243.359 122.747 243.397 122.868C243.406 122.905 243.434 122.975 243.481 123.078C243.527 123.181 243.565 123.297 243.593 123.428C243.621 123.549 243.635 123.68 243.635 123.82C243.635 124.483 243.373 125.024 242.851 125.444C242.337 125.864 241.586 126.074 240.597 126.074C239.934 126.074 239.458 126.13 239.169 126.242C238.879 126.354 238.735 126.499 238.735 126.676C238.735 126.816 238.833 126.923 239.029 126.998C239.225 127.063 239.551 127.11 240.009 127.138L241.815 127.236C242.617 127.283 243.215 127.474 243.607 127.81C243.999 128.146 244.195 128.603 244.195 129.182C244.195 129.891 243.882 130.447 243.257 130.848C242.641 131.249 241.759 131.45 240.611 131.45C239.425 131.45 238.52 131.277 237.895 130.932C237.279 130.596 236.971 130.111 236.971 129.476C236.971 128.851 237.409 128.323 238.287 127.894C238.389 127.847 238.389 127.796 238.287 127.74C237.857 127.553 237.643 127.278 237.643 126.914C237.643 126.709 237.736 126.513 237.923 126.326C238.119 126.139 238.394 125.985 238.749 125.864C238.795 125.855 238.819 125.831 238.819 125.794C238.819 125.747 238.795 125.715 238.749 125.696C238.338 125.481 238.035 125.225 237.839 124.926C237.643 124.618 237.545 124.249 237.545 123.82C237.545 123.092 237.82 122.518 238.371 122.098C238.921 121.678 239.701 121.468 240.709 121.468C241.595 121.468 242.295 121.678 242.809 122.098C242.874 122.145 242.921 122.168 242.949 122.168C242.986 122.168 243.037 122.145 243.103 122.098C243.28 121.921 243.485 121.771 243.719 121.65C243.961 121.519 244.195 121.454 244.419 121.454ZM240.597 125.332C241.241 125.332 241.721 125.201 242.039 124.94C242.365 124.679 242.529 124.301 242.529 123.806C242.529 123.302 242.365 122.91 242.039 122.63C241.712 122.35 241.231 122.21 240.597 122.21C239.981 122.21 239.5 122.355 239.155 122.644C238.809 122.924 238.637 123.311 238.637 123.806C238.637 124.291 238.805 124.669 239.141 124.94C239.486 125.201 239.971 125.332 240.597 125.332ZM239.365 128.09C239.197 128.081 239.005 128.132 238.791 128.244C238.576 128.347 238.394 128.496 238.245 128.692C238.095 128.888 238.021 129.103 238.021 129.336C238.021 129.784 238.249 130.125 238.707 130.358C239.164 130.601 239.841 130.722 240.737 130.722C242.314 130.722 243.103 130.255 243.103 129.322C243.103 128.995 242.991 128.739 242.767 128.552C242.552 128.365 242.197 128.258 241.703 128.23L239.365 128.09ZM246.809 125.752C246.809 126.2 246.917 126.615 247.131 126.998C247.355 127.381 247.654 127.684 248.027 127.908C248.401 128.132 248.811 128.244 249.259 128.244C250.193 128.244 250.921 127.857 251.443 127.082C251.481 127.045 251.513 127.026 251.541 127.026C251.569 127.017 251.602 127.021 251.639 127.04L252.227 127.334C252.302 127.381 252.311 127.446 252.255 127.53C251.891 128.09 251.457 128.501 250.953 128.762C250.449 129.014 249.847 129.14 249.147 129.14C248.466 129.14 247.855 128.981 247.313 128.664C246.772 128.347 246.347 127.903 246.039 127.334C245.741 126.755 245.591 126.097 245.591 125.36C245.591 124.567 245.745 123.876 246.053 123.288C246.361 122.691 246.781 122.233 247.313 121.916C247.855 121.599 248.461 121.44 249.133 121.44C249.805 121.44 250.393 121.589 250.897 121.888C251.411 122.187 251.807 122.625 252.087 123.204C252.367 123.773 252.507 124.45 252.507 125.234V125.29C252.507 125.374 252.493 125.439 252.465 125.486C252.437 125.523 252.381 125.542 252.297 125.542H246.935C246.851 125.542 246.809 125.612 246.809 125.752ZM251.093 124.772C251.196 124.772 251.261 124.763 251.289 124.744C251.317 124.716 251.331 124.66 251.331 124.576C251.331 124.165 251.243 123.787 251.065 123.442C250.897 123.087 250.645 122.807 250.309 122.602C249.983 122.387 249.6 122.28 249.161 122.28C248.685 122.28 248.27 122.401 247.915 122.644C247.561 122.877 247.29 123.185 247.103 123.568C246.917 123.941 246.828 124.343 246.837 124.772H251.093ZM96.4571 146.58C96.5878 146.58 96.6531 146.65 96.6531 146.79V147.378C96.6531 147.462 96.6764 147.504 96.7231 147.504C96.7511 147.504 96.7884 147.481 96.8351 147.434C97.0311 147.238 97.2038 147.079 97.3531 146.958C97.5024 146.837 97.7218 146.72 98.0111 146.608C98.3004 146.496 98.6411 146.44 99.0331 146.44C99.6211 146.44 100.144 146.58 100.601 146.86C101.068 147.14 101.432 147.56 101.693 148.12C101.964 148.68 102.099 149.366 102.099 150.178C102.099 150.999 101.964 151.709 101.693 152.306C101.432 152.903 101.058 153.361 100.573 153.678C100.088 153.986 99.5231 154.14 98.8791 154.14C98.1044 154.14 97.4418 153.907 96.8911 153.44C96.8258 153.375 96.7744 153.342 96.7371 153.342C96.6904 153.342 96.6671 153.403 96.6671 153.524V156.128C96.6671 156.249 96.6158 156.31 96.5131 156.31H95.6451C95.5424 156.31 95.4911 156.249 95.4911 156.128V146.804C95.4911 146.729 95.5051 146.673 95.5331 146.636C95.5704 146.599 95.6311 146.58 95.7151 146.58H96.4571ZM96.6671 152.362C96.9658 152.67 97.2644 152.903 97.5631 153.062C97.8711 153.211 98.2071 153.286 98.5711 153.286C99.2711 153.286 99.8311 153.02 100.251 152.488C100.68 151.956 100.895 151.191 100.895 150.192C100.895 149.221 100.685 148.498 100.265 148.022C99.8451 147.537 99.3038 147.294 98.6411 147.294C98.2678 147.294 97.9318 147.378 97.6331 147.546C97.3344 147.705 97.0964 147.91 96.9191 148.162C96.7511 148.414 96.6671 148.661 96.6671 148.904V152.362ZM104.041 154C103.91 154 103.845 153.939 103.845 153.818V146.762C103.845 146.641 103.896 146.58 103.999 146.58H104.811C104.913 146.58 104.965 146.631 104.965 146.734V147.644C104.965 147.7 104.979 147.733 105.007 147.742C105.044 147.751 105.081 147.733 105.119 147.686C105.828 146.855 106.551 146.44 107.289 146.44C107.615 146.44 107.779 146.501 107.779 146.622V147.462C107.779 147.555 107.737 147.593 107.653 147.574C107.485 147.546 107.275 147.532 107.023 147.532C106.752 147.532 106.458 147.611 106.141 147.77C105.823 147.929 105.557 148.134 105.343 148.386C105.128 148.638 105.021 148.895 105.021 149.156V153.79C105.021 153.93 104.951 154 104.811 154H104.041ZM112.134 154.14C111.434 154.14 110.814 153.981 110.272 153.664C109.74 153.337 109.325 152.885 109.026 152.306C108.737 151.727 108.592 151.069 108.592 150.332C108.592 149.576 108.742 148.904 109.04 148.316C109.348 147.728 109.768 147.271 110.3 146.944C110.842 146.608 111.458 146.44 112.148 146.44C112.839 146.44 113.45 146.608 113.982 146.944C114.524 147.271 114.939 147.728 115.228 148.316C115.527 148.904 115.676 149.571 115.676 150.318C115.676 151.055 115.527 151.713 115.228 152.292C114.93 152.871 114.51 153.323 113.968 153.65C113.436 153.977 112.825 154.14 112.134 154.14ZM112.162 153.258C112.89 153.258 113.455 152.997 113.856 152.474C114.267 151.942 114.472 151.214 114.472 150.29C114.472 149.375 114.262 148.652 113.842 148.12C113.432 147.579 112.867 147.308 112.148 147.308C111.42 147.308 110.846 147.579 110.426 148.12C110.006 148.652 109.796 149.375 109.796 150.29C109.796 151.205 110.006 151.928 110.426 152.46C110.846 152.992 111.425 153.258 112.162 153.258ZM118.373 146.58C118.504 146.58 118.569 146.65 118.569 146.79V147.378C118.569 147.462 118.592 147.504 118.639 147.504C118.667 147.504 118.704 147.481 118.751 147.434C118.947 147.238 119.12 147.079 119.269 146.958C119.418 146.837 119.638 146.72 119.927 146.608C120.216 146.496 120.557 146.44 120.949 146.44C121.537 146.44 122.06 146.58 122.517 146.86C122.984 147.14 123.348 147.56 123.609 148.12C123.88 148.68 124.015 149.366 124.015 150.178C124.015 150.999 123.88 151.709 123.609 152.306C123.348 152.903 122.974 153.361 122.489 153.678C122.004 153.986 121.439 154.14 120.795 154.14C120.02 154.14 119.358 153.907 118.807 153.44C118.742 153.375 118.69 153.342 118.653 153.342C118.606 153.342 118.583 153.403 118.583 153.524V156.128C118.583 156.249 118.532 156.31 118.429 156.31H117.561C117.458 156.31 117.407 156.249 117.407 156.128V146.804C117.407 146.729 117.421 146.673 117.449 146.636C117.486 146.599 117.547 146.58 117.631 146.58H118.373ZM118.583 152.362C118.882 152.67 119.18 152.903 119.479 153.062C119.787 153.211 120.123 153.286 120.487 153.286C121.187 153.286 121.747 153.02 122.167 152.488C122.596 151.956 122.811 151.191 122.811 150.192C122.811 149.221 122.601 148.498 122.181 148.022C121.761 147.537 121.22 147.294 120.557 147.294C120.184 147.294 119.848 147.378 119.549 147.546C119.25 147.705 119.012 147.91 118.835 148.162C118.667 148.414 118.583 148.661 118.583 148.904V152.362ZM128.869 154.14C128.169 154.14 127.548 153.981 127.007 153.664C126.475 153.337 126.059 152.885 125.761 152.306C125.471 151.727 125.327 151.069 125.327 150.332C125.327 149.576 125.476 148.904 125.775 148.316C126.083 147.728 126.503 147.271 127.035 146.944C127.576 146.608 128.192 146.44 128.883 146.44C129.573 146.44 130.185 146.608 130.717 146.944C131.258 147.271 131.673 147.728 131.963 148.316C132.261 148.904 132.411 149.571 132.411 150.318C132.411 151.055 132.261 151.713 131.963 152.292C131.664 152.871 131.244 153.323 130.703 153.65C130.171 153.977 129.559 154.14 128.869 154.14ZM128.897 153.258C129.625 153.258 130.189 152.997 130.591 152.474C131.001 151.942 131.207 151.214 131.207 150.29C131.207 149.375 130.997 148.652 130.577 148.12C130.166 147.579 129.601 147.308 128.883 147.308C128.155 147.308 127.581 147.579 127.161 148.12C126.741 148.652 126.531 149.375 126.531 150.29C126.531 151.205 126.741 151.928 127.161 152.46C127.581 152.992 128.159 153.258 128.897 153.258ZM134.337 154C134.207 154 134.141 153.939 134.141 153.818V146.762C134.141 146.641 134.193 146.58 134.295 146.58H135.107C135.21 146.58 135.261 146.631 135.261 146.734V147.644C135.261 147.7 135.275 147.733 135.303 147.742C135.341 147.751 135.378 147.733 135.415 147.686C136.125 146.855 136.848 146.44 137.585 146.44C137.912 146.44 138.075 146.501 138.075 146.622V147.462C138.075 147.555 138.033 147.593 137.949 147.574C137.781 147.546 137.571 147.532 137.319 147.532C137.049 147.532 136.755 147.611 136.437 147.77C136.12 147.929 135.854 148.134 135.639 148.386C135.425 148.638 135.317 148.895 135.317 149.156V153.79C135.317 153.93 135.247 154 135.107 154H134.337ZM141.461 147.448C141.386 147.448 141.349 147.49 141.349 147.574V152.012C141.349 152.432 141.419 152.721 141.559 152.88C141.699 153.039 141.928 153.118 142.245 153.118H143.211C143.314 153.118 143.365 153.169 143.365 153.272L143.351 153.748C143.351 153.841 143.295 153.902 143.183 153.93C142.94 153.977 142.502 154 141.867 154C141.279 154 140.85 153.865 140.579 153.594C140.308 153.314 140.173 152.875 140.173 152.278V147.602C140.173 147.499 140.126 147.448 140.033 147.448H138.913C138.81 147.448 138.759 147.401 138.759 147.308V146.72C138.759 146.627 138.806 146.58 138.899 146.58H140.089C140.154 146.58 140.187 146.543 140.187 146.468L140.341 144.242C140.341 144.121 140.392 144.06 140.495 144.06H141.195C141.307 144.06 141.363 144.125 141.363 144.256V146.468C141.363 146.543 141.4 146.58 141.475 146.58H143.239C143.342 146.58 143.393 146.622 143.393 146.706V147.308C143.393 147.401 143.342 147.448 143.239 147.448H141.461ZM146.147 144.984C146.147 145.077 146.128 145.147 146.091 145.194C146.054 145.231 145.988 145.25 145.895 145.25H145.083C144.943 145.25 144.873 145.171 144.873 145.012V143.836C144.873 143.687 144.938 143.612 145.069 143.612H145.951C146.007 143.612 146.054 143.631 146.091 143.668C146.128 143.705 146.147 143.757 146.147 143.822V144.984ZM146.091 153.762C146.091 153.855 146.072 153.921 146.035 153.958C145.998 153.986 145.932 154 145.839 154H145.125C145.041 154 144.985 153.986 144.957 153.958C144.929 153.93 144.915 153.879 144.915 153.804V146.776C144.915 146.645 144.971 146.58 145.083 146.58H145.937C146.04 146.58 146.091 146.641 146.091 146.762V153.762ZM151.373 154.14C150.673 154.14 150.052 153.981 149.511 153.664C148.979 153.337 148.563 152.885 148.265 152.306C147.975 151.727 147.831 151.069 147.831 150.332C147.831 149.576 147.98 148.904 148.279 148.316C148.587 147.728 149.007 147.271 149.539 146.944C150.08 146.608 150.696 146.44 151.387 146.44C152.077 146.44 152.689 146.608 153.221 146.944C153.762 147.271 154.177 147.728 154.467 148.316C154.765 148.904 154.915 149.571 154.915 150.318C154.915 151.055 154.765 151.713 154.467 152.292C154.168 152.871 153.748 153.323 153.207 153.65C152.675 153.977 152.063 154.14 151.373 154.14ZM151.401 153.258C152.129 153.258 152.693 152.997 153.095 152.474C153.505 151.942 153.711 151.214 153.711 150.29C153.711 149.375 153.501 148.652 153.081 148.12C152.67 147.579 152.105 147.308 151.387 147.308C150.659 147.308 150.085 147.579 149.665 148.12C149.245 148.652 149.035 149.375 149.035 150.29C149.035 151.205 149.245 151.928 149.665 152.46C150.085 152.992 150.663 153.258 151.401 153.258ZM156.841 154C156.711 154 156.645 153.939 156.645 153.818V146.762C156.645 146.641 156.697 146.58 156.799 146.58H157.639C157.742 146.58 157.793 146.631 157.793 146.734V147.546C157.793 147.649 157.835 147.663 157.919 147.588C158.442 147.177 158.885 146.883 159.249 146.706C159.623 146.529 160.038 146.44 160.495 146.44C161.205 146.44 161.755 146.631 162.147 147.014C162.549 147.397 162.749 147.91 162.749 148.554V153.776C162.749 153.925 162.679 154 162.539 154H161.755C161.634 154 161.573 153.939 161.573 153.818V148.82C161.573 148.353 161.452 147.994 161.209 147.742C160.976 147.49 160.612 147.364 160.117 147.364C159.725 147.364 159.361 147.453 159.025 147.63C158.699 147.798 158.297 148.087 157.821 148.498V153.79C157.821 153.865 157.803 153.921 157.765 153.958C157.737 153.986 157.686 154 157.611 154H156.841ZM169.273 148.218C169.077 147.929 168.806 147.7 168.461 147.532C168.125 147.355 167.733 147.266 167.285 147.266C166.772 147.266 166.352 147.378 166.025 147.602C165.698 147.817 165.535 148.101 165.535 148.456C165.535 148.671 165.614 148.867 165.773 149.044C165.941 149.212 166.24 149.361 166.669 149.492L168.447 150.024C169.063 150.192 169.52 150.444 169.819 150.78C170.118 151.107 170.267 151.499 170.267 151.956C170.267 152.385 170.136 152.768 169.875 153.104C169.614 153.431 169.254 153.687 168.797 153.874C168.34 154.051 167.822 154.14 167.243 154.14C166.524 154.14 165.885 154 165.325 153.72C164.765 153.431 164.368 153.057 164.135 152.6C164.107 152.553 164.093 152.516 164.093 152.488C164.093 152.441 164.116 152.404 164.163 152.376L164.709 152.068C164.802 152.012 164.872 152.017 164.919 152.082C165.423 152.885 166.202 153.286 167.257 153.286C167.808 153.277 168.26 153.165 168.615 152.95C168.979 152.726 169.161 152.437 169.161 152.082C169.161 151.821 169.054 151.601 168.839 151.424C168.624 151.247 168.274 151.088 167.789 150.948L166.347 150.542C165.666 150.365 165.176 150.117 164.877 149.8C164.588 149.483 164.443 149.095 164.443 148.638C164.443 148.209 164.56 147.826 164.793 147.49C165.036 147.154 165.372 146.897 165.801 146.72C166.24 146.533 166.739 146.44 167.299 146.44C167.915 146.44 168.466 146.557 168.951 146.79C169.446 147.023 169.824 147.341 170.085 147.742C170.15 147.835 170.146 147.901 170.071 147.938L169.483 148.26C169.446 148.279 169.418 148.288 169.399 148.288C169.362 148.288 169.32 148.265 169.273 148.218ZM178.101 154.14C177.401 154.14 176.78 153.981 176.239 153.664C175.707 153.337 175.292 152.885 174.993 152.306C174.704 151.727 174.559 151.069 174.559 150.332C174.559 149.576 174.708 148.904 175.007 148.316C175.315 147.728 175.735 147.271 176.267 146.944C176.808 146.608 177.424 146.44 178.115 146.44C178.806 146.44 179.417 146.608 179.949 146.944C180.49 147.271 180.906 147.728 181.195 148.316C181.494 148.904 181.643 149.571 181.643 150.318C181.643 151.055 181.494 151.713 181.195 152.292C180.896 152.871 180.476 153.323 179.935 153.65C179.403 153.977 178.792 154.14 178.101 154.14ZM178.129 153.258C178.857 153.258 179.422 152.997 179.823 152.474C180.234 151.942 180.439 151.214 180.439 150.29C180.439 149.375 180.229 148.652 179.809 148.12C179.398 147.579 178.834 147.308 178.115 147.308C177.387 147.308 176.813 147.579 176.393 148.12C175.973 148.652 175.763 149.375 175.763 150.29C175.763 151.205 175.973 151.928 176.393 152.46C176.813 152.992 177.392 153.258 178.129 153.258ZM186.948 146.58C187.041 146.58 187.088 146.627 187.088 146.72V147.322C187.088 147.406 187.041 147.448 186.948 147.448H185.352C185.277 147.448 185.24 147.49 185.24 147.574V153.804C185.24 153.935 185.184 154 185.072 154H184.218C184.115 154 184.064 153.939 184.064 153.818V147.56C184.064 147.485 184.031 147.448 183.966 147.448H182.594C182.501 147.448 182.454 147.406 182.454 147.322V146.72C182.454 146.627 182.505 146.58 182.608 146.58H183.938C184.022 146.58 184.064 146.533 184.064 146.44V145.418C184.064 144.214 184.647 143.612 185.814 143.612H186.976C187.097 143.612 187.158 143.668 187.158 143.78V144.326C187.158 144.419 187.107 144.466 187.004 144.466H186.024C185.483 144.466 185.212 144.802 185.212 145.474V146.454C185.212 146.538 185.254 146.58 185.338 146.58H186.948ZM193.469 147.448C193.394 147.448 193.357 147.49 193.357 147.574V152.012C193.357 152.432 193.427 152.721 193.567 152.88C193.707 153.039 193.935 153.118 194.253 153.118H195.219C195.321 153.118 195.373 153.169 195.373 153.272L195.359 153.748C195.359 153.841 195.303 153.902 195.191 153.93C194.948 153.977 194.509 154 193.875 154C193.287 154 192.857 153.865 192.587 153.594C192.316 153.314 192.181 152.875 192.181 152.278V147.602C192.181 147.499 192.134 147.448 192.041 147.448H190.921C190.818 147.448 190.767 147.401 190.767 147.308V146.72C190.767 146.627 190.813 146.58 190.907 146.58H192.097C192.162 146.58 192.195 146.543 192.195 146.468L192.349 144.242C192.349 144.121 192.4 144.06 192.503 144.06H193.203C193.315 144.06 193.371 144.125 193.371 144.256V146.468C193.371 146.543 193.408 146.58 193.483 146.58H195.247C195.349 146.58 195.401 146.622 195.401 146.706V147.308C195.401 147.401 195.349 147.448 195.247 147.448H193.469ZM197.119 154C196.997 154 196.937 153.939 196.937 153.818V143.794C196.937 143.673 196.988 143.612 197.091 143.612H197.917C198.019 143.612 198.071 143.668 198.071 143.78V147.518C198.071 147.621 198.113 147.635 198.197 147.56C198.729 147.149 199.181 146.86 199.555 146.692C199.928 146.524 200.339 146.44 200.787 146.44C201.505 146.44 202.056 146.631 202.439 147.014C202.831 147.397 203.027 147.915 203.027 148.568V153.776C203.027 153.925 202.957 154 202.817 154H202.033C201.911 154 201.851 153.939 201.851 153.818V148.82C201.851 148.353 201.729 147.994 201.487 147.742C201.253 147.49 200.889 147.364 200.395 147.364C200.003 147.364 199.643 147.453 199.317 147.63C198.999 147.798 198.598 148.087 198.113 148.498V153.79C198.113 153.93 198.038 154 197.889 154H197.119ZM205.883 150.752C205.883 151.2 205.99 151.615 206.205 151.998C206.429 152.381 206.727 152.684 207.101 152.908C207.474 153.132 207.885 153.244 208.333 153.244C209.266 153.244 209.994 152.857 210.517 152.082C210.554 152.045 210.587 152.026 210.615 152.026C210.643 152.017 210.675 152.021 210.713 152.04L211.301 152.334C211.375 152.381 211.385 152.446 211.329 152.53C210.965 153.09 210.531 153.501 210.027 153.762C209.523 154.014 208.921 154.14 208.221 154.14C207.539 154.14 206.928 153.981 206.387 153.664C205.845 153.347 205.421 152.903 205.113 152.334C204.814 151.755 204.665 151.097 204.665 150.36C204.665 149.567 204.819 148.876 205.127 148.288C205.435 147.691 205.855 147.233 206.387 146.916C206.928 146.599 207.535 146.44 208.207 146.44C208.879 146.44 209.467 146.589 209.971 146.888C210.484 147.187 210.881 147.625 211.161 148.204C211.441 148.773 211.581 149.45 211.581 150.234V150.29C211.581 150.374 211.567 150.439 211.539 150.486C211.511 150.523 211.455 150.542 211.371 150.542H206.009C205.925 150.542 205.883 150.612 205.883 150.752ZM210.167 149.772C210.269 149.772 210.335 149.763 210.363 149.744C210.391 149.716 210.405 149.66 210.405 149.576C210.405 149.165 210.316 148.787 210.139 148.442C209.971 148.087 209.719 147.807 209.383 147.602C209.056 147.387 208.673 147.28 208.235 147.28C207.759 147.28 207.343 147.401 206.989 147.644C206.634 147.877 206.363 148.185 206.177 148.568C205.99 148.941 205.901 149.343 205.911 149.772H210.167ZM217.431 153.762C217.431 153.855 217.412 153.921 217.375 153.958C217.338 153.986 217.272 154 217.179 154H216.451C216.367 154 216.311 153.986 216.283 153.958C216.255 153.93 216.241 153.879 216.241 153.804L216.255 143.808C216.255 143.677 216.311 143.612 216.423 143.612H217.263C217.375 143.612 217.431 143.673 217.431 143.794V153.762ZM222.699 154.14C221.999 154.14 221.378 153.981 220.837 153.664C220.305 153.337 219.889 152.885 219.591 152.306C219.301 151.727 219.157 151.069 219.157 150.332C219.157 149.576 219.306 148.904 219.605 148.316C219.913 147.728 220.333 147.271 220.865 146.944C221.406 146.608 222.022 146.44 222.713 146.44C223.403 146.44 224.015 146.608 224.547 146.944C225.088 147.271 225.503 147.728 225.793 148.316C226.091 148.904 226.241 149.571 226.241 150.318C226.241 151.055 226.091 151.713 225.793 152.292C225.494 152.871 225.074 153.323 224.533 153.65C224.001 153.977 223.389 154.14 222.699 154.14ZM222.727 153.258C223.455 153.258 224.019 152.997 224.421 152.474C224.831 151.942 225.037 151.214 225.037 150.29C225.037 149.375 224.827 148.652 224.407 148.12C223.996 147.579 223.431 147.308 222.713 147.308C221.985 147.308 221.411 147.579 220.991 148.12C220.571 148.652 220.361 149.375 220.361 150.29C220.361 151.205 220.571 151.928 220.991 152.46C221.411 152.992 221.989 153.258 222.727 153.258ZM234.678 146.454C234.855 146.454 234.944 146.529 234.944 146.678V147.168C234.944 147.261 234.92 147.331 234.874 147.378C234.836 147.415 234.766 147.429 234.664 147.42C234.356 147.42 234.113 147.462 233.936 147.546C233.712 147.639 233.618 147.747 233.656 147.868C233.665 147.905 233.693 147.975 233.74 148.078C233.786 148.181 233.824 148.297 233.852 148.428C233.88 148.549 233.894 148.68 233.894 148.82C233.894 149.483 233.632 150.024 233.11 150.444C232.596 150.864 231.845 151.074 230.856 151.074C230.193 151.074 229.717 151.13 229.428 151.242C229.138 151.354 228.994 151.499 228.994 151.676C228.994 151.816 229.092 151.923 229.288 151.998C229.484 152.063 229.81 152.11 230.268 152.138L232.074 152.236C232.876 152.283 233.474 152.474 233.866 152.81C234.258 153.146 234.454 153.603 234.454 154.182C234.454 154.891 234.141 155.447 233.516 155.848C232.9 156.249 232.018 156.45 230.87 156.45C229.684 156.45 228.779 156.277 228.154 155.932C227.538 155.596 227.23 155.111 227.23 154.476C227.23 153.851 227.668 153.323 228.546 152.894C228.648 152.847 228.648 152.796 228.546 152.74C228.116 152.553 227.902 152.278 227.902 151.914C227.902 151.709 227.995 151.513 228.182 151.326C228.378 151.139 228.653 150.985 229.008 150.864C229.054 150.855 229.078 150.831 229.078 150.794C229.078 150.747 229.054 150.715 229.008 150.696C228.597 150.481 228.294 150.225 228.098 149.926C227.902 149.618 227.804 149.249 227.804 148.82C227.804 148.092 228.079 147.518 228.63 147.098C229.18 146.678 229.96 146.468 230.968 146.468C231.854 146.468 232.554 146.678 233.068 147.098C233.133 147.145 233.18 147.168 233.208 147.168C233.245 147.168 233.296 147.145 233.362 147.098C233.539 146.921 233.744 146.771 233.978 146.65C234.22 146.519 234.454 146.454 234.678 146.454ZM230.856 150.332C231.5 150.332 231.98 150.201 232.298 149.94C232.624 149.679 232.788 149.301 232.788 148.806C232.788 148.302 232.624 147.91 232.298 147.63C231.971 147.35 231.49 147.21 230.856 147.21C230.24 147.21 229.759 147.355 229.414 147.644C229.068 147.924 228.896 148.311 228.896 148.806C228.896 149.291 229.064 149.669 229.4 149.94C229.745 150.201 230.23 150.332 230.856 150.332ZM229.624 153.09C229.456 153.081 229.264 153.132 229.05 153.244C228.835 153.347 228.653 153.496 228.504 153.692C228.354 153.888 228.28 154.103 228.28 154.336C228.28 154.784 228.508 155.125 228.966 155.358C229.423 155.601 230.1 155.722 230.996 155.722C232.573 155.722 233.362 155.255 233.362 154.322C233.362 153.995 233.25 153.739 233.026 153.552C232.811 153.365 232.456 153.258 231.962 153.23L229.624 153.09ZM239.392 154.14C238.692 154.14 238.071 153.981 237.53 153.664C236.998 153.337 236.583 152.885 236.284 152.306C235.995 151.727 235.85 151.069 235.85 150.332C235.85 149.576 235.999 148.904 236.298 148.316C236.606 147.728 237.026 147.271 237.558 146.944C238.099 146.608 238.715 146.44 239.406 146.44C240.097 146.44 240.708 146.608 241.24 146.944C241.781 147.271 242.197 147.728 242.486 148.316C242.785 148.904 242.934 149.571 242.934 150.318C242.934 151.055 242.785 151.713 242.486 152.292C242.187 152.871 241.767 153.323 241.226 153.65C240.694 153.977 240.083 154.14 239.392 154.14ZM239.42 153.258C240.148 153.258 240.713 152.997 241.114 152.474C241.525 151.942 241.73 151.214 241.73 150.29C241.73 149.375 241.52 148.652 241.1 148.12C240.689 147.579 240.125 147.308 239.406 147.308C238.678 147.308 238.104 147.579 237.684 148.12C237.264 148.652 237.054 149.375 237.054 150.29C237.054 151.205 237.264 151.928 237.684 152.46C238.104 152.992 238.683 153.258 239.42 153.258Z" fill="#333333"/>
<rect width="160" height="25" transform="translate(78 56)" fill="white"/>
<path d="M138.077 71.6457L145.423 71.1885C145.444 71.5211 145.425 71.8312 145.386 72.1092C145.347 72.3872 145.231 72.6449 145.058 72.8894C144.815 73.2385 144.476 73.5518 144.042 73.8377C143.606 74.1153 143.075 74.3655 142.484 74.5692C141.893 74.773 141.225 74.9482 140.498 75.077C139.771 75.2141 139.003 75.3036 138.195 75.3539C137.087 75.4229 136.067 75.4029 135.137 75.3021C134.225 75.2002 133.421 75.0165 132.746 74.7746C132.07 74.5161 131.541 74.1984 131.159 73.8131C130.776 73.4194 130.56 72.982 130.529 72.4829C130.498 71.9922 130.64 71.5326 130.971 71.1028C131.302 70.6647 131.806 70.2827 132.427 69.9518C133.085 69.6186 133.86 69.3449 134.79 69.1284C135.719 68.9119 136.748 68.7644 137.894 68.6931C139.378 68.6007 140.683 68.6614 141.828 68.874C142.973 69.0866 143.883 69.4725 144.578 70.0304L141.104 70.8895C140.763 70.5601 140.316 70.3458 139.781 70.2288C139.264 70.1107 138.658 70.0732 138.001 70.1142C137.456 70.1481 136.952 70.2296 136.507 70.3491C136.062 70.4687 135.675 70.618 135.366 70.8125C135.057 70.9988 134.826 71.2219 134.653 71.4665C134.499 71.7182 134.421 71.9902 134.439 72.2813C134.456 72.5474 134.547 72.7923 134.711 73.0075C134.894 73.2215 135.132 73.4071 135.461 73.5536C135.791 73.7 136.194 73.8086 136.651 73.872C137.126 73.9342 137.673 73.9419 138.275 73.9045C138.632 73.8823 138.987 73.8434 139.324 73.7891C139.659 73.7265 139.956 73.6495 140.214 73.5583C140.491 73.4576 140.71 73.3354 140.871 73.2001C141.032 73.0649 141.154 72.8986 141.199 72.7122L138.156 72.9016L138.077 71.6457ZM163.594 68.5962L163.915 73.7529L159.969 73.9985L159.648 68.8418L156.455 69.0406L156.361 67.5435L166.694 66.9003L166.788 68.3974L163.594 68.5962ZM180.551 68.3256C179.658 67.9136 178.591 67.7462 177.332 67.8245C176.769 67.8596 176.264 67.9328 175.781 68.0547C175.317 68.1754 174.93 68.3247 174.583 68.4967C174.254 68.6674 173.984 68.8679 173.809 69.0959C173.635 69.3238 173.555 69.5542 173.57 69.8038C173.586 70.0533 173.694 70.2803 173.896 70.4849C174.116 70.6882 174.39 70.8549 174.738 70.9918C175.105 71.1276 175.526 71.2267 176.001 71.2806C176.476 71.3429 176.986 71.3529 177.531 71.319C178.715 71.2453 179.771 70.9541 180.683 70.4465L180.804 72.3927L180.432 72.4743C179.874 72.6009 179.352 72.6918 178.847 72.765C178.361 72.837 177.874 72.8923 177.386 72.9227C176.409 72.9836 175.445 72.96 174.534 72.8581C173.622 72.7479 172.818 72.5642 172.104 72.308C171.409 72.0507 170.823 71.7281 170.385 71.3463C169.946 70.9562 169.711 70.5199 169.681 70.0375C169.651 69.5551 169.83 69.0931 170.199 68.6693C170.587 68.2361 171.11 67.8528 171.787 67.5184C172.464 67.1758 173.258 66.9009 174.149 66.6784C175.04 66.456 175.993 66.3131 176.989 66.2512C177.553 66.2161 178.118 66.2059 178.666 66.2303C179.233 66.2451 179.821 66.292 180.429 66.3627L180.551 68.3256ZM188.356 68.8917C188.372 69.1412 188.499 69.3671 188.719 69.5705C188.939 69.7739 189.251 69.9381 189.618 70.0739C189.985 70.2098 190.425 70.3076 190.918 70.3604C191.412 70.4131 191.941 70.422 192.486 70.3881C193.03 70.3542 193.535 70.281 194.018 70.1674C194.501 70.0455 194.925 69.8939 195.292 69.7208C195.658 69.5394 195.947 69.3377 196.14 69.1086C196.333 68.8794 196.432 68.6479 196.416 68.39C196.4 68.1322 196.273 67.9146 196.053 67.7113C195.833 67.5079 195.521 67.3436 195.135 67.209C194.769 67.0732 194.329 66.9836 193.817 66.932C193.323 66.8709 192.813 66.8609 192.268 66.8948C191.723 66.9288 191.219 67.0019 190.717 67.125C190.234 67.2386 189.828 67.389 189.462 67.5621C189.115 67.7424 188.825 67.9441 188.632 68.1732C188.439 68.4023 188.341 68.6422 188.356 68.8917ZM184.486 69.1326C184.457 68.6669 184.618 68.2144 184.987 67.7906C185.356 67.3585 185.879 66.9669 186.556 66.6242C187.232 66.2815 188.044 65.9889 188.991 65.7629C189.957 65.5274 191.023 65.3776 192.169 65.3062C193.315 65.2349 194.391 65.2514 195.36 65.3664C196.348 65.472 197.189 65.6534 197.903 65.9179C198.636 66.1729 199.203 66.4966 199.623 66.8796C200.042 67.2542 200.257 67.6834 200.286 68.1491C200.315 68.6149 200.155 69.0674 199.786 69.4995C199.416 69.9233 198.893 70.3148 198.198 70.6587C197.522 71.0014 196.71 71.294 195.744 71.5295C194.777 71.7567 193.73 71.9053 192.584 71.9767C191.42 72.0492 190.344 72.0327 189.375 71.926C188.406 71.8109 187.565 71.6295 186.851 71.365C186.137 71.1089 185.57 70.7852 185.15 70.4105C184.731 70.0275 184.516 69.6067 184.486 69.1326ZM207.652 61.345L208.252 70.993L204.307 71.2386L203.707 61.5906L207.652 61.345ZM152.604 67.7774L153.142 76.4273L149.197 76.6729L148.659 68.023L152.604 67.7774ZM212.386 70.7358L211.847 62.0858L215.605 61.8519L223.309 67.4591L221.555 61.5906L225.5 61.345L227.415 69.8002L223.62 70.0364L216.078 66.423L216.331 70.4902L212.386 70.7358Z" fill="#0E0333"/>
<path fill-rule="evenodd" clip-rule="evenodd" d="M115.258 66.5364C116.567 67.3489 117.278 68.3355 117.259 69.3304C117.259 70.3087 116.549 71.2871 115.258 72.083L117.989 73.0033C119.728 71.942 120.682 70.6487 120.682 69.3387C120.701 67.9541 119.672 66.5944 117.783 65.5L116.217 66.125L115.258 66.5364Z" fill="#02E2AC"/>
<path fill-rule="evenodd" clip-rule="evenodd" d="M120.421 73.8184L111.236 70.7259C111.891 70.3445 112.265 69.8802 112.321 69.3994C112.359 68.9185 112.078 68.4459 111.498 68.0396L115.894 66.282L120.495 64.3751C120.795 64.2507 120.813 64.0351 120.514 63.9025L119.878 63.6206C116.605 62.1531 112.19 61.2991 107.552 61.2328L107.57 60.1135C107.589 60.0389 107.57 59.9643 107.533 59.8897C107.477 59.8151 107.402 59.7487 107.29 59.6907C107.178 59.6327 107.047 59.5912 106.878 59.558C106.729 59.5249 106.56 59.5083 106.392 59.5083C106.224 59.5083 106.055 59.5249 105.906 59.558C105.756 59.5912 105.606 59.6327 105.494 59.6907C105.382 59.7487 105.288 59.8151 105.251 59.8814C105.195 59.956 105.176 60.0306 105.214 60.1052L105.195 61.2577C104.091 61.3074 102.988 61.3986 101.921 61.5396L101.94 60.1052C101.959 60.0306 101.94 59.956 101.903 59.8814C101.847 59.8068 101.772 59.7404 101.66 59.6824C101.547 59.6244 101.416 59.5829 101.248 59.5497C101.098 59.5166 100.93 59.5 100.762 59.5C100.593 59.5 100.425 59.5166 100.275 59.5497C100.126 59.5829 99.9762 59.6244 99.8639 59.6824C99.7517 59.7404 99.6582 59.8068 99.6208 59.8731C99.5647 59.9477 99.546 60.0223 99.5834 60.0969L99.5273 61.9292C95.7489 62.6754 92.6439 63.9771 90.7547 65.6104C88.8655 67.2437 88.267 69.1175 89.09 70.9166C89.913 72.7157 92.1014 74.3407 95.2813 75.518C98.4611 76.6954 102.464 77.3586 106.598 77.3918L119.972 77.4167C120.383 77.4167 120.72 77.2674 120.72 77.085V74.092C120.72 73.9842 120.608 73.8847 120.421 73.8184ZM106.86 75.9492C103.567 75.9409 100.369 75.4517 97.769 74.5646C95.169 73.6692 93.2986 72.4172 92.4568 71.0078C91.6151 69.5983 91.8583 68.0977 93.1115 66.7546C94.3834 65.4114 96.6093 64.2839 99.4711 63.5543L99.4524 65.7348C99.4337 65.8094 99.4524 65.884 99.4898 65.9586C99.546 66.0332 99.6208 66.0996 99.733 66.1576C99.8452 66.2156 99.9762 66.2571 100.145 66.2903C100.294 66.3234 100.462 66.34 100.631 66.34C100.799 66.34 100.968 66.3234 101.117 66.2903C101.267 66.2571 101.416 66.2156 101.529 66.1576C101.641 66.0996 101.734 66.0332 101.772 65.9669C101.828 65.8923 101.847 65.8177 101.809 65.7431L101.828 63.0651C103.474 62.7998 105.214 62.6754 106.972 62.6754C110.208 62.6754 113.35 63.148 115.913 64.0103C116.1 64.0766 116.118 64.1927 115.95 64.2673L108.954 67.1111C108.319 66.995 107.626 66.9287 106.934 66.9287C106.167 66.9287 105.401 66.995 104.69 67.1359C103.979 67.2769 103.362 67.4842 102.857 67.7412C102.352 67.9982 101.978 68.305 101.753 68.6283C101.529 68.9599 101.473 69.2999 101.585 69.6398C101.697 69.9797 101.959 70.3031 102.37 70.5932C102.782 70.8834 103.343 71.1239 103.979 71.3146C104.634 71.497 105.363 71.6213 106.13 71.6711C106.897 71.7208 107.683 71.6959 108.412 71.5964L117.353 74.606C117.446 74.6392 117.503 74.689 117.503 74.7387L117.484 75.7999C117.484 75.8911 117.316 75.9658 117.11 75.9658L106.86 75.9492ZM109.048 69.3164C109.048 69.4988 108.917 69.6812 108.693 69.8388C108.449 69.9963 108.131 70.1124 107.739 70.187C107.346 70.2616 106.916 70.2782 106.523 70.2367C106.13 70.1953 105.737 70.1124 105.438 69.9797C105.139 69.8471 104.933 69.6812 104.858 69.4988C104.783 69.3164 104.821 69.1258 104.989 68.9599C105.157 68.7858 105.419 68.6449 105.775 68.5371C106.13 68.4376 106.542 68.3796 106.953 68.3796C107.514 68.3796 108.057 68.4791 108.449 68.6615C108.824 68.8273 109.048 69.0594 109.048 69.3164Z" fill="#0E0333"/>
<line x1="77.8474" y1="96.5238" x2="258.847" y2="38.5238" stroke="#F3587D"/>
<line x1="81.1452" y1="39.5215" x2="259.145" y2="93.5215" stroke="#F3587D"/>
</svg>
