<svg width="182" height="60" viewBox="0 0 182 60" fill="none" xmlns="http://www.w3.org/2000/svg">
<g clip-path="url(#clip0_209_1353)">
<rect width="158.997" height="46.5153" transform="matrix(0.99622 0.0868689 -0.118403 0.992966 14.689 0)" fill="white"/>
<path d="M71.1903 29.3966L78.4765 30.0319C78.4031 30.6478 78.2979 31.2142 78.1814 31.7174C78.0649 32.2205 77.8794 32.6711 77.6416 33.0859C77.3073 33.679 76.889 34.187 76.3848 34.6252C75.8825 35.0481 75.2944 35.4013 74.6614 35.6572C74.0283 35.9132 73.3281 36.101 72.583 36.1916C71.836 36.2976 71.0628 36.3079 70.2615 36.238C69.1621 36.1422 68.1741 35.9005 67.2959 35.5283C66.4363 35.1578 65.7051 34.6585 65.1152 34.0781C64.5291 33.467 64.1031 32.7765 63.839 31.9912C63.5767 31.1905 63.4895 30.3429 63.5996 29.4191C63.708 28.5108 63.9748 27.694 64.4188 26.9705C64.8647 26.2316 65.4636 25.6304 66.1614 25.1468C66.8965 24.6665 67.7287 24.319 68.6954 24.1077C69.662 23.8965 70.7053 23.8319 71.842 23.931C73.3142 24.0594 74.5687 24.4332 75.6244 25.0542C76.6801 25.6751 77.4586 26.5675 77.9787 27.7329L74.3526 28.6145C74.1129 27.9402 73.7375 27.4564 73.2488 27.1338C72.7787 26.8128 72.1989 26.6222 71.5467 26.5653C71.0063 26.5182 70.4921 26.5667 70.0247 26.6971C69.5573 26.8274 69.1384 27.0242 68.7831 27.3199C68.4295 27.6002 68.1414 27.964 67.9036 28.3788C67.6827 28.8107 67.5308 29.2953 67.4665 29.8341C67.4078 30.3268 67.4272 30.7952 67.5267 31.2239C67.6449 31.6542 67.8245 32.0432 68.1045 32.3787C68.3846 32.7143 68.7466 32.9947 69.1736 33.2031C69.6193 33.4131 70.1505 33.5372 70.7468 33.5892C71.1009 33.62 71.4586 33.6201 71.8014 33.5878C72.146 33.54 72.457 33.4583 72.7344 33.3425C73.0323 33.2129 73.2798 33.0322 73.475 32.8159C73.6703 32.5996 73.8356 32.3184 73.9319 31.9846L70.9131 31.7214L71.1903 29.3966V29.3966ZM96.9109 28.9171L95.7726 38.4626L91.8593 38.1213L92.9975 28.5758L89.8296 28.2996L90.1601 25.5283L100.409 26.422L100.079 29.1933L96.9109 28.9171ZM113.51 31.8267C112.755 30.8898 111.763 30.3677 110.515 30.2588C109.956 30.2101 109.443 30.2432 108.939 30.3703C108.452 30.499 108.034 30.6959 107.646 30.9421C107.278 31.19 106.958 31.5043 106.724 31.8884C106.49 32.2724 106.347 32.68 106.292 33.1419C106.237 33.6037 106.279 34.043 106.417 34.4595C106.575 34.8777 106.795 35.2391 107.096 35.5609C107.415 35.8843 107.797 36.151 108.245 36.3456C108.691 36.5556 109.184 36.6764 109.725 36.7235C110.899 36.8259 112.011 36.5028 113.042 35.7527L112.612 39.3554L112.226 39.4306C111.647 39.5512 111.113 39.6135 110.6 39.6466C110.107 39.6814 109.616 39.6853 109.132 39.643C108.163 39.5586 107.231 39.3217 106.371 38.9512C105.514 38.5653 104.782 38.0659 104.159 37.4516C103.554 36.8388 103.074 36.128 102.754 35.3379C102.436 34.5323 102.33 33.6831 102.437 32.7901C102.543 31.8971 102.847 31.0836 103.327 30.3787C103.826 29.6601 104.444 29.0606 105.198 28.5818C105.953 28.0877 106.804 27.7419 107.735 27.512C108.667 27.282 109.635 27.211 110.623 27.2971C111.182 27.3458 111.736 27.4408 112.263 27.5957C112.811 27.7368 113.37 27.9411 113.943 28.1933L113.51 31.8267V31.8267ZM120.956 34.4361C120.901 34.898 120.961 35.3388 121.118 35.757C121.276 36.1751 121.533 36.5399 121.853 36.8633C122.172 37.1867 122.573 37.455 123.039 37.6512C123.505 37.8474 124.018 37.9699 124.558 38.017C125.099 38.0641 125.611 38.031 126.114 37.9193C126.619 37.7922 127.075 37.5986 127.48 37.354C127.888 37.094 128.227 36.7812 128.479 36.3988C128.732 36.0164 128.893 35.6105 128.95 35.1332C129.007 34.6559 128.945 34.2305 128.788 33.8123C128.63 33.3941 128.373 33.0294 128.035 32.7044C127.716 32.381 127.313 32.1281 126.828 31.9302C126.364 31.7186 125.87 31.5978 125.329 31.5507C124.789 31.5035 124.277 31.5366 123.753 31.6621C123.25 31.7738 122.813 31.969 122.407 32.2137C122.018 32.4753 121.68 32.788 121.427 33.1704C121.174 33.5529 121.011 33.9742 120.956 34.4361ZM117.117 34.1013C117.22 33.2392 117.504 32.4394 117.983 31.7345C118.464 31.0143 119.084 30.3994 119.839 29.9052C120.595 29.4111 121.468 29.0361 122.455 28.8111C123.463 28.5722 124.543 28.5109 125.68 28.61C126.817 28.7091 127.86 28.9557 128.772 29.3619C129.705 29.7543 130.473 30.2569 131.095 30.8867C131.737 31.5027 132.198 32.2118 132.5 33.0004C132.803 33.7735 132.892 34.6057 132.789 35.4679C132.686 36.3301 132.403 37.1298 131.921 37.8501C131.442 38.555 130.822 39.1699 130.048 39.6624C129.293 40.1565 128.42 40.5315 127.412 40.7704C126.406 40.9938 125.344 41.0567 124.208 40.9576C123.052 40.8569 122.008 40.6103 121.095 40.2195C120.183 39.8133 119.414 39.3107 118.793 38.681C118.169 38.0666 117.708 37.3574 117.405 36.5843C117.103 35.7958 117.012 34.9789 117.117 34.1013ZM141.22 29.9806L139.751 42.2974L135.838 41.9562L137.306 29.6394L141.22 29.9806V29.9806ZM86.4331 25.2033L84.9644 37.5201L81.0511 37.1789L82.5198 24.8621L86.4331 25.2033V25.2033ZM143.851 42.6549L145.319 30.3381L149.046 30.6631L155.416 38.8255L156.314 31.2968L160.227 31.638L158.758 43.9548L154.994 43.6266L148.662 35.4675L147.764 42.9961L143.851 42.6549Z" fill="#0E0333"/>
<path d="M47.502 17.4992C48.7701 18.8884 49.6091 20.6133 49.9156 22.4609L52.7856 22.3307C52.4441 19.8143 51.3356 17.4542 49.6119 15.5733C47.9401 13.7432 45.7719 12.4415 43.3803 11.8322L42.8706 14.6781C44.5742 15.1426 46.2172 16.0917 47.502 17.4992Z" fill="#02E2AC"/>
<path d="M55.0092 22.1073C53.0492 22.1917 46.3652 22.5948 45.4779 22.6481C45.2617 21.829 44.8463 21.0742 44.2688 20.4514C43.6914 19.8286 42.9702 19.3574 42.1699 19.0801L43.4595 11.8954L43.7721 9.72674C43.8901 9.23894 43.7308 8.96341 43.2358 8.86967C42.5911 8.74751 41.9397 8.66667 41.2857 8.62763C37.7927 8.41797 34.2436 9.40258 31.3022 11.6132L29.3144 9.43559C28.7885 8.85947 27.8997 8.74859 27.2976 9.2299C27.1425 9.35338 27.0149 9.50771 26.9225 9.68335C26.8301 9.85898 26.7749 10.0522 26.7604 10.251C26.7459 10.4497 26.7723 10.6499 26.8381 10.8389C26.9039 11.028 27.0076 11.202 27.1428 11.3502L29.1652 13.5657C28.3332 14.4849 27.6185 15.5045 27.0374 16.6015L24.5043 13.8265C23.9784 13.2504 23.0896 13.1395 22.4874 13.6208C22.3324 13.7443 22.2047 13.8986 22.1123 14.0742C22.0199 14.2498 21.9648 14.443 21.9503 14.6418C21.9358 14.8406 21.9623 15.0407 22.0281 15.2297C22.0939 15.4188 22.1976 15.5928 22.3328 15.7409L25.8437 19.587C24.472 24.477 25.5796 29.9679 29.2475 34.0501C34.9473 40.3928 44.8374 40.8121 51.0607 35.1313L59.3683 27.5478C59.5197 27.4094 59.6167 27.2213 59.6419 27.0167C59.6672 26.812 59.6191 26.6042 59.5063 26.4301L55.9285 22.4932C55.8124 22.3652 55.6698 22.2642 55.5108 22.1975C55.3519 22.1308 55.1806 22.1 55.0092 22.1073V22.1073ZM54.4584 25.1517L55.8968 26.7501L49.0611 32.99C44.0387 37.5746 36.042 37.2499 31.4272 32.1448C28.8939 29.3426 27.8595 25.7134 28.2788 22.2556L30.1985 24.3586C30.7245 24.9349 31.6133 25.0458 32.2155 24.5645C32.3705 24.441 32.4981 24.2867 32.5905 24.111C32.6829 23.9354 32.738 23.7422 32.7525 23.5435C32.767 23.3447 32.7405 23.1446 32.6748 22.9555C32.609 22.7665 32.5053 22.5925 32.3701 22.4444L29.1651 18.9333C29.8484 17.3215 30.87 15.8788 32.1612 14.702C34.5516 12.52 37.2979 11.4842 40.314 11.5301L39.1214 18.9877C38.3675 19.1992 37.6751 19.5838 37.0988 20.1111C35.0326 21.9971 34.9049 25.2212 36.8138 27.3125C38.7228 29.4037 41.9451 29.5697 44.0113 27.6836C44.5977 27.1493 45.0481 26.4824 45.3262 25.7373L54.4584 25.1517ZM42.1586 22.4336C42.4515 22.7546 42.6439 23.1542 42.7113 23.5819C42.7787 24.0096 42.7182 24.4462 42.5373 24.8365C42.3564 25.2268 42.0633 25.5532 41.6951 25.7745C41.3269 25.9959 40.9001 26.1021 40.4687 26.0799C40.0373 26.0576 39.6206 25.9079 39.2714 25.6495C38.9221 25.3912 38.656 25.036 38.5067 24.6286C38.3574 24.2213 38.3316 23.7803 38.4325 23.3612C38.5334 22.9422 38.7566 22.564 39.0737 22.2745C39.499 21.8863 40.0629 21.685 40.6414 21.7148C41.22 21.7447 41.7657 22.0032 42.1586 22.4336Z" fill="#0E0333"/>
</g>
<line y1="-0.5" x2="186.272" y2="-0.5" transform="matrix(0.966327 -0.257318 0.35979 0.933033 0.994629 53.7957)" stroke="#F3587D"/>
<line y1="-0.5" x2="182.555" y2="-0.5" transform="matrix(0.969662 0.244451 -0.342932 0.93936 3.97803 6.69067)" stroke="#F3587D"/>
<defs>
<clipPath id="clip0_209_1353">
<rect width="158.997" height="46.5153" fill="white" transform="matrix(0.99622 0.0868689 -0.118403 0.992966 14.689 0)"/>
</clipPath>
</defs>
</svg>
