<?xml version="1.0" encoding="UTF-8" standalone="no"?>
<!-- Generator: Adobe Illustrator 24.1.2, SVG Export Plug-In . SVG Version: 6.00 Build 0)  -->

<svg
   xmlns:dc="http://purl.org/dc/elements/1.1/"
   xmlns:cc="http://creativecommons.org/ns#"
   xmlns:rdf="http://www.w3.org/1999/02/22-rdf-syntax-ns#"
   xmlns:svg="http://www.w3.org/2000/svg"
   xmlns="http://www.w3.org/2000/svg"
   xmlns:sodipodi="http://sodipodi.sourceforge.net/DTD/sodipodi-0.dtd"
   xmlns:inkscape="http://www.inkscape.org/namespaces/inkscape"
   version="1.1"
   id="Layer_1"
   x="0px"
   y="0px"
   viewBox="0 0 531.85999 120.01"
   xml:space="preserve"
   sodipodi:docname="bounties.svg"
   width="531.85999"
   height="120.01"
   inkscape:version="0.92.1 r15371"><metadata
     id="metadata69"><rdf:RDF><cc:Work
         rdf:about=""><dc:format>image/svg+xml</dc:format><dc:type
           rdf:resource="http://purl.org/dc/dcmitype/StillImage" /><dc:title></dc:title></cc:Work></rdf:RDF></metadata><defs
     id="defs67" /><sodipodi:namedview
     pagecolor="#ffffff"
     bordercolor="#666666"
     borderopacity="1"
     objecttolerance="10"
     gridtolerance="10"
     guidetolerance="10"
     inkscape:pageopacity="0"
     inkscape:pageshadow="2"
     inkscape:window-width="1920"
     inkscape:window-height="987"
     id="namedview65"
     showgrid="false"
     fit-margin-top="0"
     fit-margin-left="0"
     fit-margin-right="0"
     fit-margin-bottom="0"
     inkscape:zoom="0.22152778"
     inkscape:cx="-575.99614"
     inkscape:cy="60"
     inkscape:window-x="0"
     inkscape:window-y="43"
     inkscape:window-maximized="1"
     inkscape:current-layer="Layer_1" /><style
     type="text/css"
     id="style2">
	.st0{fill:#FFFFFF;}
	.st1{fill:#0FCE7C;}
	.st2{fill-rule:evenodd;clip-rule:evenodd;fill:#0FCE7C;}
</style><g
     id="g52"
     transform="translate(-442.83,-439.99)"><g
       id="g8"><path
         class="st1"
         d="m 496.1,522.51 c 0,0 0,0 0,0 -12.41,0 -22.51,-10.1 -22.51,-22.51 0,-12.41 10.1,-22.51 22.51,-22.51 12.41,0 22.51,10.1 22.51,22.51 0,6.01 -2.34,11.66 -6.59,15.91 -4.26,4.25 -9.91,6.6 -15.92,6.6 z m 0,-35.12 c -6.95,0 -12.61,5.66 -12.61,12.61 0,6.95 5.66,12.61 12.61,12.61 v 0 c 3.37,0 6.54,-1.31 8.92,-3.69 2.38,-2.38 3.69,-5.55 3.69,-8.92 0,-6.96 -5.66,-12.61 -12.61,-12.61 z"
         id="path6"
         inkscape:connector-curvature="0"
         style="fill:#0fce7c" /></g><g
       id="g30"><g
         id="g18"><g
           id="g12"><path
             class="st0"
             d="m 512.73,553.67 c -2.73,0 -4.95,-2.21 -4.95,-4.95 v -11.83 c 0,-1.87 1.05,-3.58 2.72,-4.42 6.93,-3.49 12.72,-8.88 16.76,-15.57 1.41,-2.34 4.45,-3.09 6.79,-1.68 2.34,1.41 3.09,4.45 1.68,6.79 -4.46,7.4 -10.66,13.51 -18.06,17.82 v 8.89 c 0,2.73 -2.21,4.95 -4.94,4.95 z"
             id="path10"
             inkscape:connector-curvature="0"
             style="fill:#ffffff" /></g><g
           id="g16"><path
             class="st0"
             d="m 479.46,553.67 c -2.73,0 -4.95,-2.21 -4.95,-4.95 v -8.89 c -7.39,-4.31 -13.6,-10.42 -18.06,-17.82 -1.41,-2.34 -0.66,-5.38 1.68,-6.79 2.34,-1.41 5.38,-0.66 6.79,1.68 4.03,6.69 9.83,12.08 16.76,15.57 1.67,0.84 2.72,2.55 2.72,4.42 v 11.83 c 0.01,2.73 -2.2,4.95 -4.94,4.95 z"
             id="path14"
             inkscape:connector-curvature="0"
             style="fill:#ffffff" /></g></g><g
         id="g28"><g
           id="g22"><path
             class="st0"
             d="m 531.5,485.49 c -1.68,0 -3.31,-0.85 -4.24,-2.39 -4.03,-6.69 -9.83,-12.08 -16.76,-15.57 -1.67,-0.84 -2.72,-2.55 -2.72,-4.42 v -11.83 c 0,-2.73 2.21,-4.95 4.95,-4.95 2.74,0 4.95,2.21 4.95,4.95 v 8.89 c 7.39,4.31 13.6,10.42 18.06,17.82 1.41,2.34 0.66,5.38 -1.68,6.79 -0.81,0.48 -1.69,0.71 -2.56,0.71 z"
             id="path20"
             inkscape:connector-curvature="0"
             style="fill:#ffffff" /></g><g
           id="g26"><path
             class="st0"
             d="m 460.69,485.49 c -0.87,0 -1.75,-0.23 -2.55,-0.71 -2.34,-1.41 -3.09,-4.45 -1.68,-6.79 4.46,-7.4 10.66,-13.51 18.06,-17.82 v -8.89 c 0,-2.73 2.21,-4.95 4.95,-4.95 2.73,0 4.95,2.21 4.95,4.95 v 11.83 c 0,1.87 -1.05,3.58 -2.72,4.42 -6.93,3.49 -12.72,8.88 -16.76,15.57 -0.94,1.54 -2.57,2.39 -4.25,2.39 z"
             id="path24"
             inkscape:connector-curvature="0"
             style="fill:#ffffff" /></g></g></g><g
       id="g40"><g
         id="g34"><path
           class="st0"
           d="m 549.36,500 v 6.5 c 0,2.76 -2.99,4.49 -5.38,3.11 l -5.63,-3.25 -5.63,-3.25 c -2.39,-1.38 -2.39,-4.83 0,-6.21 l 5.63,-3.25 5.63,-3.25 c 2.39,-1.38 5.38,0.35 5.38,3.11 z"
           id="path32"
           inkscape:connector-curvature="0"
           style="fill:#ffffff" /></g><g
         id="g38"><path
           class="st0"
           d="m 442.83,500 v -6.5 c 0,-2.76 2.99,-4.49 5.38,-3.11 l 5.63,3.25 5.63,3.25 c 2.39,1.38 2.39,4.83 0,6.21 l -5.63,3.25 -5.63,3.25 c -2.39,1.38 -5.38,-0.35 -5.38,-3.11 z"
           id="path36"
           inkscape:connector-curvature="0"
           style="fill:#ffffff" /></g></g><g
       id="g50"><g
         id="g44"><path
           class="st0"
           d="m 496.1,560 c -2.73,0 -4.95,-2.21 -4.95,-4.95 v -14.67 c 0,-2.73 2.21,-4.95 4.95,-4.95 2.73,0 4.95,2.21 4.95,4.95 v 14.67 c -0.01,2.74 -2.22,4.95 -4.95,4.95 z"
           id="path42"
           inkscape:connector-curvature="0"
           style="fill:#ffffff" /></g><g
         id="g48"><path
           class="st0"
           d="m 496.1,464.56 c -2.73,0 -4.95,-2.21 -4.95,-4.95 v -14.67 c 0,-2.73 2.21,-4.95 4.95,-4.95 2.73,0 4.95,2.21 4.95,4.95 v 14.67 c -0.01,2.74 -2.22,4.95 -4.95,4.95 z"
           id="path46"
           inkscape:connector-curvature="0"
           style="fill:#ffffff" /></g></g></g><g
     id="g62"
     transform="translate(-442.83,-439.99)"><g
       id="g56"><path
         class="st0"
         d="m 644.13,500.05 c 0,5.87 1.97,10.71 5.92,14.49 3.92,3.79 8.46,5.68 13.6,5.68 5.58,0 10.28,-1.93 14.11,-5.78 3.83,-3.9 5.75,-8.65 5.75,-14.25 0,-5.67 -1.89,-10.42 -5.68,-14.25 -3.76,-3.86 -8.42,-5.78 -13.98,-5.78 -5.53,0 -10.2,1.93 -14.01,5.78 -3.8,3.81 -5.71,8.51 -5.71,14.11 z m -8.09,-0.1 c 0,-7.48 2.74,-13.91 8.23,-19.28 5.46,-5.37 12.03,-8.05 19.69,-8.05 7.57,0 14.07,2.71 19.48,8.12 5.44,5.42 8.16,11.92 8.16,19.52 0,7.64 -2.73,14.13 -8.19,19.45 -5.48,5.35 -12.11,8.02 -19.86,8.02 -6.86,0 -13.02,-2.38 -18.49,-7.13 -6.01,-5.25 -9.02,-12.14 -9.02,-20.65 z"
         id="path54"
         inkscape:connector-curvature="0"
         style="fill:#ffffff" /></g><g
       id="g60"><path
         class="st0"
         d="m 973.32,481.53 -6.51,3.86 c -1.22,-2.11 -2.38,-3.49 -3.48,-4.13 -1.15,-0.73 -2.63,-1.1 -4.44,-1.1 -2.23,0 -4.07,0.63 -5.54,1.89 -1.47,1.24 -2.2,2.8 -2.2,4.68 0,2.59 1.93,4.68 5.78,6.27 l 5.3,2.17 c 4.31,1.74 7.47,3.88 9.47,6.4 2,2.5 2.99,5.58 2.99,9.23 0,4.89 -1.63,8.93 -4.89,12.12 -3.28,3.21 -7.36,4.82 -12.22,4.82 -4.61,0 -8.42,-1.37 -11.43,-4.1 -2.96,-2.73 -4.81,-6.57 -5.54,-11.53 l 8.12,-1.79 c 0.37,3.12 1.01,5.28 1.93,6.47 1.65,2.29 4.06,3.44 7.23,3.44 2.5,0 4.58,-0.84 6.23,-2.51 1.65,-1.68 2.48,-3.8 2.48,-6.37 0,-1.03 -0.15,-1.97 -0.45,-2.82 -0.28,-0.87 -0.72,-1.66 -1.34,-2.38 -0.6,-0.73 -1.38,-1.41 -2.34,-2.03 -0.96,-0.64 -2.11,-1.25 -3.44,-1.82 l -5.13,-2.13 c -7.27,-3.08 -10.91,-7.57 -10.91,-13.49 0,-3.99 1.53,-7.33 4.58,-10.02 3.05,-2.71 6.85,-4.06 11.39,-4.06 6.14,-0.02 10.92,2.97 14.36,8.93 z m -46.46,-0.38 h -21.31 v 12.77 h 20.69 v 7.54 h -20.69 v 17.76 h 21.31 v 7.54 h -29.33 v -53.15 h 29.33 z m -47.97,-7.54 v 53.15 h -8.02 v -53.15 z m -33.24,7.54 v 45.61 h -8.02 v -45.61 h -12.22 v -7.54 h 32.43 v 7.54 z m -80.09,45.61 V 470 l 38.76,40.55 v -36.94 h 8.02 V 530 l -38.76,-40.45 v 37.21 z m -49.98,-53.15 v 32.01 c 0,4.57 0.75,7.91 2.24,10.02 2.23,3.05 5.36,4.58 9.4,4.58 4.06,0 7.21,-1.53 9.43,-4.58 1.49,-2.04 2.24,-5.38 2.24,-10.02 v -32.01 h 8.02 v 34.22 c 0,5.6 -1.74,10.21 -5.23,13.84 -3.92,4.04 -8.74,6.06 -14.46,6.06 -5.71,0 -10.52,-2.02 -14.42,-6.06 -3.49,-3.63 -5.23,-8.24 -5.23,-13.84 v -34.22 z m -116.46,45.62 h 4.96 c 3.63,0 6.29,-0.71 7.99,-2.13 1.79,-1.54 2.69,-3.49 2.69,-5.85 0,-2.29 -0.86,-4.22 -2.58,-5.78 -1.68,-1.54 -4.67,-2.31 -8.98,-2.31 h -4.06 v 16.07 z m 0,-22.79 h 2.51 c 2.98,0 5.16,-0.65 6.54,-1.96 1.4,-1.33 2.1,-3.28 2.1,-5.85 0,-2.5 -0.71,-4.39 -2.13,-5.68 -1.42,-1.31 -3.49,-1.96 -6.2,-1.96 h -2.82 z m -8.02,30.32 v -53.15 h 7.99 c 3.56,0 6.39,0.28 8.5,0.83 2.13,0.55 3.94,1.48 5.4,2.79 1.49,1.35 2.67,3.04 3.55,5.06 0.89,2.04 1.34,4.11 1.34,6.2 0,3.81 -1.46,7.03 -4.37,9.67 2.82,0.96 5.05,2.65 6.68,5.06 1.65,2.39 2.48,5.16 2.48,8.33 0,4.15 -1.47,7.66 -4.41,10.53 -1.77,1.77 -3.75,2.99 -5.96,3.68 -2.41,0.67 -5.43,1 -9.05,1 z"
         id="path58"
         inkscape:connector-curvature="0"
         style="fill:#ffffff" /></g></g></svg>