<?xml version="1.0" encoding="UTF-8" standalone="no"?>
<!-- Generator: Adobe Illustrator 24.1.2, SVG Export Plug-In . SVG Version: 6.00 Build 0)  -->

<svg
   xmlns:dc="http://purl.org/dc/elements/1.1/"
   xmlns:cc="http://creativecommons.org/ns#"
   xmlns:rdf="http://www.w3.org/1999/02/22-rdf-syntax-ns#"
   xmlns:svg="http://www.w3.org/2000/svg"
   xmlns="http://www.w3.org/2000/svg"
   xmlns:sodipodi="http://sodipodi.sourceforge.net/DTD/sodipodi-0.dtd"
   xmlns:inkscape="http://www.inkscape.org/namespaces/inkscape"
   version="1.1"
   id="Layer_1"
   x="0px"
   y="0px"
   viewBox="0 0 463.5275 110"
   xml:space="preserve"
   sodipodi:docname="grants.svg"
   width="463.5275"
   height="110"
   inkscape:version="0.92.1 r15371"><metadata
     id="metadata51"><rdf:RDF><cc:Work
         rdf:about=""><dc:format>image/svg+xml</dc:format><dc:type
           rdf:resource="http://purl.org/dc/dcmitype/StillImage" /><dc:title></dc:title></cc:Work></rdf:RDF></metadata><defs
     id="defs49" /><sodipodi:namedview
     pagecolor="#ffffff"
     bordercolor="#666666"
     borderopacity="1"
     objecttolerance="10"
     gridtolerance="10"
     guidetolerance="10"
     inkscape:pageopacity="0"
     inkscape:pageshadow="2"
     inkscape:window-width="1920"
     inkscape:window-height="987"
     id="namedview47"
     showgrid="false"
     fit-margin-top="0"
     fit-margin-left="0"
     fit-margin-right="0"
     fit-margin-bottom="0"
     inkscape:zoom="0.22152778"
     inkscape:cx="-634.67864"
     inkscape:cy="55"
     inkscape:window-x="0"
     inkscape:window-y="43"
     inkscape:window-maximized="1"
     inkscape:current-layer="Layer_1" /><style
     type="text/css"
     id="style2">
	.st0{fill:#FFFFFF;}
	.st1{fill:#0FCE7C;}
	.st2{fill-rule:evenodd;clip-rule:evenodd;fill:#0FCE7C;}
</style><g
     id="g18"
     transform="translate(-501.5125,-445)"><g
       id="g8"><path
         class="st0"
         d="m 562.01,555 c -1.79,0 -3.44,-0.95 -4.33,-2.5 l -27.75,-48.07 c -0.89,-1.55 -0.89,-3.45 0,-5 0.89,-1.55 2.54,-2.5 4.33,-2.5 h 55.51 c 1.79,0 3.44,0.95 4.33,2.5 0.89,1.55 0.89,3.45 0,5 l -27.75,48.07 c -0.9,1.55 -2.55,2.5 -4.34,2.5 z M 542.92,506.93 562.01,540 581.1,506.93 Z"
         id="path6"
         inkscape:connector-curvature="0"
         style="fill:#ffffff" /></g><g
       id="g12"><path
         class="st0"
         d="M 617.52,555 H 506.51 c -1.79,0 -3.44,-0.95 -4.33,-2.5 -0.89,-1.55 -0.89,-3.45 0,-5 l 36.29,-62.86 c 1.38,-2.39 4.44,-3.21 6.83,-1.83 2.39,1.38 3.21,4.44 1.83,6.83 L 515.17,545 h 93.69 l -32.08,-55.56 c -1.38,-2.39 -0.56,-5.45 1.83,-6.83 2.39,-1.38 5.45,-0.56 6.83,1.83 l 36.41,63.06 c 0.89,1.55 0.89,3.45 0,5 -0.89,1.55 -2.54,2.5 -4.33,2.5 z"
         id="path10"
         inkscape:connector-curvature="0"
         style="fill:#ffffff" /></g><g
       id="g16"><path
         class="st1"
         d="m 550.45,474.97 c -0.85,0 -1.71,-0.22 -2.5,-0.67 -2.39,-1.38 -3.21,-4.44 -1.83,-6.83 l 11.53,-19.97 c 0.89,-1.55 2.54,-2.5 4.33,-2.5 v 0 c 1.79,0 3.44,0.95 4.33,2.5 l 11.46,19.85 c 1.38,2.39 0.56,5.45 -1.83,6.83 -2.39,1.38 -5.45,0.56 -6.83,-1.83 l -7.12,-12.35 -7.2,12.47 c -0.93,1.61 -2.61,2.5 -4.34,2.5 z"
         id="path14"
         inkscape:connector-curvature="0"
         style="fill:#0fce7c" /></g></g><g
     id="g44"
     transform="translate(-501.5125,-445)"><g
       id="g22"><polygon
         class="st0"
         points="867.13,510.55 867.13,473.61 875.15,473.61 875.15,530 836.39,489.55 836.39,526.76 828.37,526.76 828.37,470 "
         id="polygon20"
         style="fill:#ffffff" /></g><g
       id="g26"><path
         class="st0"
         d="m 963.67,481.34 -6.51,3.86 c -1.22,-2.11 -2.38,-3.49 -3.48,-4.13 -1.15,-0.73 -2.63,-1.1 -4.44,-1.1 -2.23,0 -4.07,0.63 -5.54,1.89 -1.47,1.24 -2.2,2.8 -2.2,4.68 0,2.59 1.93,4.68 5.78,6.27 l 5.3,2.17 c 4.31,1.74 7.47,3.88 9.47,6.4 2,2.5 2.99,5.58 2.99,9.23 0,4.89 -1.63,8.93 -4.89,12.12 -3.28,3.21 -7.36,4.82 -12.22,4.82 -4.61,0 -8.42,-1.37 -11.43,-4.1 -2.96,-2.73 -4.81,-6.57 -5.54,-11.53 l 8.12,-1.79 c 0.37,3.12 1.01,5.28 1.93,6.47 1.65,2.29 4.06,3.44 7.23,3.44 2.5,0 4.58,-0.84 6.23,-2.51 1.65,-1.68 2.48,-3.8 2.48,-6.37 0,-1.03 -0.15,-1.97 -0.45,-2.82 -0.28,-0.87 -0.72,-1.66 -1.34,-2.38 -0.6,-0.73 -1.38,-1.41 -2.34,-2.03 -0.96,-0.64 -2.11,-1.25 -3.44,-1.82 l -5.13,-2.13 c -7.27,-3.08 -10.91,-7.57 -10.91,-13.49 0,-3.99 1.53,-7.33 4.58,-10.02 3.05,-2.71 6.85,-4.06 11.39,-4.06 6.13,-0.02 10.92,2.97 14.36,8.93 z"
         id="path24"
         inkscape:connector-curvature="0"
         style="fill:#ffffff" /></g><g
       id="g30"><polygon
         class="st0"
         points="900.44,527.54 900.44,481.93 888.22,481.93 888.22,474.39 920.65,474.39 920.65,481.93 908.47,481.93 908.47,527.54 "
         id="polygon28"
         style="fill:#ffffff" /></g><g
       id="g34"><path
         class="st0"
         d="m 798.2,507.09 -7.88,-18.07 -8.26,18.07 z m 3.27,7.54 h -22.75 l -5.92,12.91 h -8.64 l 26.3,-56.49 25.37,56.49 h -8.78 z"
         id="path32"
         inkscape:connector-curvature="0"
         style="fill:#ffffff" /></g><g
       id="g38"><path
         class="st0"
         d="m 729.91,498.79 h 2.55 c 7.6,0 11.39,-2.9 11.39,-8.71 0,-5.44 -3.69,-8.16 -11.08,-8.16 h -2.86 z m 9.98,6.1 16.45,22.65 h -9.81 l -15.18,-21.76 h -1.45 v 21.76 h -8.02 v -53.15 h 9.4 c 7.02,0 12.09,1.32 15.22,3.96 3.44,2.94 5.16,6.82 5.16,11.64 0,3.76 -1.08,7 -3.24,9.71 -2.16,2.71 -4.99,4.43 -8.53,5.19 z"
         id="path36"
         inkscape:connector-curvature="0"
         style="fill:#ffffff" /></g><g
       id="g42"><path
         class="st0"
         d="m 683.93,498.86 h 21.96 v 1.76 c 0,3.99 -0.47,7.53 -1.41,10.6 -0.92,2.85 -2.47,5.51 -4.65,7.99 -4.93,5.55 -11.21,8.33 -18.83,8.33 -7.44,0 -13.8,-2.68 -19.11,-8.05 -5.3,-5.39 -7.95,-11.86 -7.95,-19.41 0,-7.71 2.7,-14.25 8.09,-19.62 5.39,-5.39 11.96,-8.09 19.69,-8.09 4.15,0 8.03,0.85 11.64,2.55 3.44,1.7 6.83,4.45 10.15,8.26 l -5.71,5.47 c -4.36,-5.81 -9.67,-8.71 -15.94,-8.71 -5.62,0 -10.34,1.94 -14.15,5.82 -3.81,3.81 -5.71,8.58 -5.71,14.32 0,5.92 2.12,10.8 6.37,14.63 3.97,3.56 8.27,5.34 12.91,5.34 3.95,0 7.49,-1.33 10.64,-3.99 3.14,-2.69 4.9,-5.9 5.27,-9.64 h -13.25 v -7.56 z"
         id="path40"
         inkscape:connector-curvature="0"
         style="fill:#ffffff" /></g></g></svg>