<?xml version="1.0" encoding="UTF-8" standalone="no"?>
<!-- Generator: Adobe Illustrator 24.1.2, SVG Export Plug-In . SVG Version: 6.00 Build 0)  -->

<svg
   xmlns:dc="http://purl.org/dc/elements/1.1/"
   xmlns:cc="http://creativecommons.org/ns#"
   xmlns:rdf="http://www.w3.org/1999/02/22-rdf-syntax-ns#"
   xmlns:svg="http://www.w3.org/2000/svg"
   xmlns="http://www.w3.org/2000/svg"
   xmlns:sodipodi="http://sodipodi.sourceforge.net/DTD/sodipodi-0.dtd"
   xmlns:inkscape="http://www.inkscape.org/namespaces/inkscape"
   version="1.1"
   id="Layer_1"
   x="0px"
   y="0px"
   viewBox="0 0 450.34 119.99"
   xml:space="preserve"
   sodipodi:docname="kudos.svg"
   width="450.34"
   height="119.99"
   inkscape:version="0.92.1 r15371"><metadata
     id="metadata51"><rdf:RDF><cc:Work
         rdf:about=""><dc:format>image/svg+xml</dc:format><dc:type
           rdf:resource="http://purl.org/dc/dcmitype/StillImage" /><dc:title></dc:title></cc:Work></rdf:RDF></metadata><defs
     id="defs49" /><sodipodi:namedview
     pagecolor="#ffffff"
     bordercolor="#666666"
     borderopacity="1"
     objecttolerance="10"
     gridtolerance="10"
     guidetolerance="10"
     inkscape:pageopacity="0"
     inkscape:pageshadow="2"
     inkscape:window-width="1920"
     inkscape:window-height="987"
     id="namedview47"
     showgrid="false"
     fit-margin-top="0"
     fit-margin-left="0"
     fit-margin-right="0"
     fit-margin-bottom="0"
     inkscape:zoom="0.22152778"
     inkscape:cx="224.9"
     inkscape:cy="60"
     inkscape:window-x="0"
     inkscape:window-y="43"
     inkscape:window-maximized="1"
     inkscape:current-layer="Layer_1" /><style
     type="text/css"
     id="style2">
	.st0{fill:#FFFFFF;}
	.st1{fill:#0FCE7C;}
	.st2{fill-rule:evenodd;clip-rule:evenodd;fill:#0FCE7C;}
</style><g
     id="g34"
     transform="translate(-495.1,-440.01)"><g
       id="g8"><path
         class="st0"
         d="m 595.31,492.92 c -2.73,0 -4.94,-2.21 -4.94,-4.94 v -12.69 l -11.72,-6.77 c -2.36,-1.36 -3.17,-4.38 -1.81,-6.74 1.36,-2.36 4.38,-3.17 6.74,-1.81 l 14.19,8.19 c 1.53,0.88 2.47,2.51 2.47,4.28 v 15.54 c 0.01,2.73 -2.2,4.94 -4.93,4.94 z"
         id="path6"
         inkscape:connector-curvature="0"
         style="fill:#ffffff" /></g><g
       id="g12"><path
         class="st0"
         d="m 500.04,492.92 c -2.73,0 -4.94,-2.21 -4.94,-4.94 v -15.54 c 0,-1.76 0.94,-3.39 2.47,-4.28 l 14.3,-8.25 c 2.36,-1.36 5.38,-0.55 6.74,1.81 1.36,2.36 0.55,5.38 -1.81,6.74 l -11.83,6.83 v 12.69 c 0.01,2.73 -2.2,4.94 -4.93,4.94 z"
         id="path10"
         inkscape:connector-curvature="0"
         style="fill:#ffffff" /></g><g
       id="g16"><path
         class="st0"
         d="m 581.13,540.69 c -1.71,0 -3.37,-0.89 -4.28,-2.47 -1.36,-2.36 -0.55,-5.38 1.81,-6.74 l 11.72,-6.77 v -12.69 c 0,-2.73 2.21,-4.94 4.94,-4.94 2.73,0 4.94,2.21 4.94,4.94 v 15.54 c 0,1.76 -0.94,3.39 -2.47,4.28 l -14.19,8.19 c -0.79,0.45 -1.64,0.66 -2.47,0.66 z"
         id="path14"
         inkscape:connector-curvature="0"
         style="fill:#ffffff" /></g><g
       id="g20"><path
         class="st0"
         d="m 514.33,540.75 c -0.84,0 -1.69,-0.21 -2.46,-0.66 l -14.3,-8.25 c -1.53,-0.88 -2.47,-2.51 -2.47,-4.28 v -15.54 c 0,-2.73 2.21,-4.94 4.94,-4.94 2.73,0 4.94,2.21 4.94,4.94 v 12.69 l 11.83,6.83 c 2.36,1.36 3.17,4.38 1.81,6.74 -0.92,1.59 -2.58,2.47 -4.29,2.47 z"
         id="path18"
         inkscape:connector-curvature="0"
         style="fill:#ffffff" /></g><g
       id="g24"><path
         class="st0"
         d="m 547.67,560 c -0.85,0 -1.7,-0.22 -2.47,-0.66 l -14.1,-8.14 c -2.36,-1.36 -3.17,-4.38 -1.81,-6.74 1.36,-2.36 4.38,-3.17 6.74,-1.81 l 11.63,6.72 11.88,-6.86 c 2.36,-1.36 5.38,-0.55 6.74,1.81 1.36,2.36 0.55,5.38 -1.81,6.74 l -14.35,8.28 c -0.74,0.44 -1.59,0.66 -2.45,0.66 z"
         id="path22"
         inkscape:connector-curvature="0"
         style="fill:#ffffff" /></g><g
       id="g28"><path
         class="st0"
         d="m 562.02,458.16 c -0.84,0 -1.69,-0.21 -2.46,-0.66 l -11.88,-6.86 -11.63,6.72 c -2.36,1.36 -5.38,0.55 -6.74,-1.81 -1.36,-2.36 -0.55,-5.38 1.81,-6.74 l 14.1,-8.14 c 1.53,-0.88 3.41,-0.88 4.94,0 l 14.35,8.28 c 2.36,1.36 3.17,4.38 1.81,6.74 -0.94,1.58 -2.6,2.47 -4.3,2.47 z"
         id="path26"
         inkscape:connector-curvature="0"
         style="fill:#ffffff" /></g><g
       id="g32"><path
         class="st1"
         d="m 549.93,474.49 4.51,14.24 c 0.31,0.99 1.24,1.66 2.27,1.65 l 14.94,-0.12 c 2.31,-0.02 3.27,2.95 1.39,4.29 l -12.15,8.69 c -0.84,0.6 -1.2,1.69 -0.87,2.67 l 4.73,14.17 c 0.73,2.19 -1.79,4.02 -3.65,2.65 l -12.02,-8.87 c -0.84,-0.62 -1.98,-0.62 -2.81,0 l -12.02,8.87 c -1.86,1.37 -4.38,-0.46 -3.65,-2.65 l 4.73,-14.17 c 0.33,-0.99 -0.02,-2.07 -0.87,-2.67 l -12.15,-8.69 c -1.88,-1.34 -0.92,-4.31 1.39,-4.29 l 14.94,0.12 c 1.04,0.01 1.96,-0.66 2.27,-1.65 l 4.51,-14.24 c 0.7,-2.2 3.81,-2.2 4.51,0 z"
         id="path30"
         inkscape:connector-curvature="0"
         style="fill:#0fce7c" /></g></g><g
     id="g44"
     transform="translate(-495.1,-440.01)"><g
       id="g38"><path
         class="st0"
         d="m 719.82,471.12 v 34.83 c 0,4.97 0.81,8.6 2.43,10.9 2.42,3.32 5.83,4.98 10.22,4.98 4.42,0 7.84,-1.66 10.26,-4.98 1.62,-2.22 2.43,-5.86 2.43,-10.9 v -34.83 h 8.73 v 37.23 c 0,6.09 -1.9,11.11 -5.69,15.06 -4.27,4.39 -9.51,6.59 -15.73,6.59 -6.22,0 -11.45,-2.2 -15.69,-6.59 -3.8,-3.95 -5.69,-8.96 -5.69,-15.06 v -37.23 z"
         id="path36"
         inkscape:connector-curvature="0"
         style="fill:#ffffff" /></g><g
       id="g42"><path
         class="st0"
         d="m 943.94,479.74 -7.08,4.19 c -1.32,-2.3 -2.58,-3.8 -3.78,-4.49 -1.25,-0.8 -2.86,-1.2 -4.83,-1.2 -2.42,0 -4.43,0.69 -6.03,2.06 -1.6,1.35 -2.4,3.05 -2.4,5.09 0,2.82 2.1,5.09 6.29,6.82 l 5.77,2.36 c 4.69,1.9 8.13,4.22 10.3,6.97 2.17,2.72 3.26,6.07 3.26,10.04 0,5.32 -1.77,9.71 -5.32,13.18 -3.57,3.5 -8,5.24 -13.3,5.24 -5.02,0 -9.16,-1.49 -12.43,-4.46 -3.22,-2.97 -5.23,-7.15 -6.03,-12.55 l 8.84,-1.95 c 0.4,3.4 1.1,5.74 2.1,7.04 1.8,2.5 4.42,3.75 7.87,3.75 2.72,0 4.98,-0.91 6.78,-2.73 1.8,-1.82 2.7,-4.13 2.7,-6.93 0,-1.12 -0.16,-2.15 -0.49,-3.07 -0.3,-0.95 -0.79,-1.81 -1.46,-2.58 -0.65,-0.8 -1.5,-1.54 -2.55,-2.21 -1.05,-0.7 -2.3,-1.36 -3.75,-1.99 L 922.82,500 c -7.92,-3.35 -11.87,-8.24 -11.87,-14.68 0,-4.34 1.66,-7.98 4.98,-10.9 3.32,-2.95 7.45,-4.42 12.4,-4.42 6.66,0 11.87,3.25 15.61,9.74 z m -101.71,20.15 c 0,6.39 2.15,11.65 6.44,15.77 4.27,4.12 9.2,6.18 14.79,6.18 6.07,0 11.19,-2.1 15.36,-6.29 4.17,-4.24 6.25,-9.41 6.25,-15.51 0,-6.17 -2.06,-11.34 -6.18,-15.51 -4.09,-4.19 -9.16,-6.29 -15.21,-6.29 -6.02,0 -11.1,2.1 -15.24,6.29 -4.14,4.15 -6.21,9.27 -6.21,15.36 z m -8.8,-0.11 c 0,-8.14 2.98,-15.13 8.95,-20.97 5.94,-5.84 13.08,-8.76 21.42,-8.76 8.24,0 15.31,2.95 21.2,8.84 5.92,5.89 8.88,12.97 8.88,21.24 0,8.31 -2.97,15.37 -8.91,21.16 -5.97,5.82 -13.17,8.73 -21.61,8.73 -7.47,0 -14.17,-2.58 -20.11,-7.75 -6.55,-5.74 -9.82,-13.23 -9.82,-22.49 z m -50.51,20.97 h 3.93 c 3.92,0 7.18,-0.41 9.78,-1.24 2.6,-0.87 4.94,-2.26 7.04,-4.16 4.29,-3.92 6.44,-9.03 6.44,-15.32 0,-6.34 -2.12,-11.49 -6.37,-15.43 -3.82,-3.52 -9.45,-5.28 -16.89,-5.28 h -3.93 z m -8.73,8.2 v -57.83 h 12.13 c 5.82,0 10.41,0.57 13.78,1.72 3.62,1.12 6.9,3.03 9.85,5.73 5.97,5.44 8.95,12.6 8.95,21.46 0,8.89 -3.11,16.08 -9.33,21.57 -3.12,2.75 -6.39,4.66 -9.81,5.73 -3.2,1.07 -7.73,1.61 -13.6,1.61 h -11.97 z m -111.62,-34.76 22.51,-23.07 h 11.65 l -26.14,26.18 26.29,31.65 h -11.69 l -20.82,-25.73 -1.8,1.8 v 23.93 h -8.73 v -57.83 h 8.73 z"
         id="path40"
         inkscape:connector-curvature="0"
         style="fill:#ffffff" /></g></g></svg>