<svg width="899" height="1415" xmlns="http://www.w3.org/2000/svg"><g fill="none" fill-rule="evenodd"><path d="M163 774.9c-25.4-6.1-44.4-29-44.4-56.2v-37.5c0-27.3 19-50.2 44.4-56.2v149.9z" fill="#DBDBDB"/><path d="M149.5 645.9v108c-10.6-8.1-17.5-20.9-17.5-35.3v-37.5c.1-14.3 6.9-27.1 17.5-35.2zm26.9-36c-39.4 0-71.3 31.9-71.3 71.3v37.5c0 39.4 31.9 71.3 71.3 71.3V609.9z" fill="#333" fill-rule="nonzero"/><path d="M736.2 624.2c25.4 6.1 44.4 29 44.4 56.2v37.5c0 27.3-19 50.2-44.4 56.2V624.2z" fill="#8A2BE2"/><path d="M749.7 645.2c10.6 8.1 17.5 20.9 17.5 35.3V718c0 14.4-6.9 27.2-17.5 35.3V645.2zm-26.9-36v180c39.4 0 71.3-31.9 71.3-71.3v-37.5c-.1-39.3-32-71.2-71.3-71.2z" fill="#333" fill-rule="nonzero"/><path d="M163 774.2c-25.4-6.1-44.4-29-44.4-56.2v-37.5c0-27.3 19-50.2 44.4-56.2v149.9z" fill="#8A2BE2"/><path d="M149.5 645.2v108c-10.6-8.1-17.5-20.9-17.5-35.3v-37.5c.1-14.3 6.9-27.1 17.5-35.2zm26.9-36c-39.4 0-71.3 31.9-71.3 71.3V718c0 39.4 31.9 71.3 71.3 71.3V609.2z" fill="#333" fill-rule="nonzero"/><path d="M148 570.4h603.7v241.5H148z"/></g></svg>