<?xml version="1.0" encoding="UTF-8"?>
<svg width="899px" height="1415px" viewBox="0 0 899 1415" version="1.1" xmlns="http://www.w3.org/2000/svg" xmlns:xlink="http://www.w3.org/1999/xlink">
    <!-- Generator: Sketch 49.3 (51167) - http://www.bohemiancoding.com/sketch -->
    <title>0-D2946B</title>
    <desc>Created with Sketch.</desc>
    <defs></defs>
    <g id="0-D2946B" stroke="none" stroke-width="1" fill="none" fill-rule="evenodd">
        <g id="0-3F2918" transform="translate(105.000000, 570.000000)">
            <g id="Group" transform="translate(0.000000, 39.000000)">
                <path d="M58,165.9 C32.6,159.8 13.6,136.9 13.6,109.7 L13.6,72.2 C13.6,44.9 32.6,22 58,16 L58,165.9 Z" id="Shape" fill="#DBDBDB"></path>
                <path d="M44.5,36.9 L44.5,144.9 C33.9,136.8 27,124 27,109.6 L27,72.1 C27.1,57.8 33.9,45 44.5,36.9 Z M71.4,0.9 C32,0.9 0.1,32.8 0.1,72.2 L0.1,109.7 C0.1,149.1 32,181 71.4,181 L71.4,0.9 Z" id="Shape" fill="#333333" fill-rule="nonzero"></path>
            </g>
            <g id="Group" transform="translate(0.000000, 39.000000)">
                <g transform="translate(617.000000, 0.000000)" id="Shape">
                    <path d="M14.2,15.2 C39.6,21.3 58.6,44.2 58.6,71.4 L58.6,108.9 C58.6,136.2 39.6,159.1 14.2,165.1 L14.2,15.2 Z" fill="#D2946B"></path>
                    <path d="M27.7,36.2 C38.3,44.3 45.2,57.1 45.2,71.5 L45.2,109 C45.2,123.4 38.3,136.2 27.7,144.3 L27.7,36.2 Z M0.8,0.2 L0.8,180.2 C40.2,180.2 72.1,148.3 72.1,108.9 L72.1,71.4 C72,32.1 40.1,0.2 0.8,0.2 Z" fill="#333333" fill-rule="nonzero"></path>
                </g>
                <g id="Shape">
                    <path d="M58,165.2 C32.6,159.1 13.6,136.2 13.6,109 L13.6,71.5 C13.6,44.2 32.6,21.3 58,15.3 L58,165.2 Z" fill="#D2946B"></path>
                    <path d="M44.5,36.2 L44.5,144.2 C33.9,136.1 27,123.3 27,108.9 L27,71.4 C27.1,57.1 33.9,44.3 44.5,36.2 Z M71.4,0.2 C32,0.2 0.1,32.1 0.1,71.5 L0.1,109 C0.1,148.4 32,180.3 71.4,180.3 L71.4,0.2 Z" fill="#333333" fill-rule="nonzero"></path>
                </g>
            </g>
            <rect id="Rectangle-path" x="43" y="0.4" width="603.7" height="241.5"></rect>
        </g>
    </g>
</svg>