<?xml version="1.0" encoding="UTF-8"?>
<svg width="899px" height="1415px" viewBox="0 0 899 1415" version="1.1" xmlns="http://www.w3.org/2000/svg" xmlns:xlink="http://www.w3.org/1999/xlink">
    <!-- Generator: Sketch 49.3 (51167) - http://www.bohemiancoding.com/sketch -->
    <title>2-AE7242</title>
    <desc>Created with Sketch.</desc>
    <defs></defs>
    <g id="2-AE7242" stroke="none" stroke-width="1" fill="none" fill-rule="evenodd">
        <g id="2-3F2918" transform="translate(103.000000, 570.000000)">
            <g id="Group" transform="translate(0.000000, 39.000000)">
                <g id="Shape">
                    <path d="M58.3,166.3 C32.9,160.2 13.9,137.3 13.9,110.1 L13.9,31.5 C13.9,19.9 17.1,17.7 18.2,17 C22.3,14.2 31,13.9 37.2,13.9 C41.8,13.9 46.8,14.1 52.2,14.3 C54.2,14.4 56.2,14.5 58.3,14.5 L58.3,166.3 Z" fill="#AE7242"></path>
                    <path d="M37.2,27.3 C39.6,27.3 42.1,27.4 44.8,27.4 L44.8,145.3 C34.2,137.2 27.3,124.4 27.3,110 L27.3,31.4 C27.3,29.8 27.4,28.6 27.5,27.7 C29.3,27.6 32.3,27.3 37.2,27.3 Z M37.2,0.4 C15.3,0.4 0.4,4.7 0.4,31.5 L0.4,110.1 C0.4,149.5 32.3,181.4 71.7,181.4 L71.7,1.4 C59.2,1.3 47.4,0.4 37.2,0.4 Z" fill="#333333" fill-rule="nonzero"></path>
                </g>
                <g transform="translate(621.000000, 0.000000)" id="Shape">
                    <path d="M13.9,14.5 C16,14.4 18,14.3 20,14.3 C25.3,14.1 30.4,13.9 35,13.9 C41.2,13.9 49.9,14.2 54,17 C55.1,17.7 58.3,20 58.3,31.5 L58.3,110.1 C58.3,137.4 39.3,160.3 13.9,166.3 L13.9,14.5 Z" fill="#AE7242"></path>
                    <path d="M35,27.3 C39.9,27.3 42.9,27.6 44.7,27.9 C44.8,28.8 44.9,30 44.9,31.6 L44.9,110.2 C44.9,124.6 38,137.4 27.4,145.5 L27.4,27.6 C30.1,27.4 32.6,27.3 35,27.3 Z M35,0.4 C24.8,0.4 13,1.3 0.5,1.3 L0.5,181.3 C39.9,181.3 71.8,149.4 71.8,110 L71.8,31.4 C71.8,4.7 56.9,0.4 35,0.4 Z" fill="#333333" fill-rule="nonzero"></path>
                </g>
            </g>
            <rect id="Rectangle-path" x="46.7" y="0.4" width="603.7" height="241.5"></rect>
        </g>
    </g>
</svg>