<?xml version="1.0" encoding="UTF-8"?>
<svg width="899px" height="1415px" viewBox="0 0 899 1415" version="1.1" xmlns="http://www.w3.org/2000/svg" xmlns:xlink="http://www.w3.org/1999/xlink">
    <!-- Generator: Sketch 49.3 (51167) - http://www.bohemiancoding.com/sketch -->
    <title>3-D8BF82</title>
    <desc>Created with Sketch.</desc>
    <defs></defs>
    <g id="3-D8BF82" stroke="none" stroke-width="1" fill="none" fill-rule="evenodd">
        <g id="3F2918" transform="translate(103.000000, 570.000000)">
            <g id="Group" transform="translate(0.000000, 39.000000)">
                <g id="Shape">
                    <path d="M58.3,167.8 C50.6,167.7 43.1,167.2 41.2,165.7 C40.5,165.2 38.4,162 38.4,142.7 L38.4,141.2 L14,30 C14.2,19.6 17.3,17.6 18.3,16.9 C22.4,14.1 31.1,13.8 37.3,13.8 C41.9,13.8 46.9,14 52.3,14.2 C54.3,14.3 56.3,14.4 58.4,14.4 L58.3,167.8 Z" fill="#D8BF82"></path>
                    <path d="M37.2,27.3 C39.6,27.3 42.1,27.4 44.8,27.4 L44.8,108.2 L27.4,29 C27.4,28.6 27.5,28.2 27.5,27.9 C29.3,27.6 32.3,27.3 37.2,27.3 Z M37.2,0.4 C15.3,0.4 0.4,4.7 0.4,31.5 L24.8,142.7 C24.8,180.6 31.8,181.3 67.4,181.3 C68.8,181.3 70.2,181.3 71.7,181.3 L71.7,1.3 C59.2,1.3 47.4,0.4 37.2,0.4 Z" fill="#333333" fill-rule="nonzero"></path>
                </g>
                <g transform="translate(621.000000, 0.000000)" id="Shape">
                    <path d="M13.9,14.5 C16,14.4 18,14.3 20,14.3 C25.3,14.1 30.4,13.9 35,13.9 C41.2,13.9 49.9,14.2 54,17 C55,17.7 58.1,19.8 58.3,30.1 L33.9,141.3 L33.9,142.8 C33.9,162 31.7,165.2 31.1,165.8 C29.1,167.4 21.7,167.8 14,167.9 L14,14.5 L13.9,14.5 Z" fill="#D8BF82"></path>
                    <path d="M35,27.3 C39.9,27.3 42.9,27.6 44.7,27.9 C44.7,28.2 44.8,28.6 44.8,29 L27.4,108.3 L27.4,27.5 C30.1,27.4 32.6,27.3 35,27.3 Z M35,0.4 C24.8,0.4 13,1.3 0.5,1.3 L0.5,181.3 C2,181.3 3.4,181.3 4.8,181.3 C40.4,181.3 47.4,180.6 47.4,142.7 L71.8,31.5 C71.8,4.7 56.9,0.4 35,0.4 Z" fill="#333333" fill-rule="nonzero"></path>
                </g>
            </g>
            <rect id="Rectangle-path" x="44.6" y="0.4" width="603.7" height="241.5"></rect>
        </g>
    </g>
</svg>