<?xml version="1.0" encoding="UTF-8"?>
<svg width="100px" height="85px" viewBox="0 0 100 85" version="1.1" xmlns="http://www.w3.org/2000/svg" xmlns:xlink="http://www.w3.org/1999/xlink">
    <!-- Generator: Sketch 55.2 (78181) - https://sketchapp.com -->
    <title>meditation_park</title>
    <desc>Created with Sketch.</desc>
    <defs>
        <linearGradient x1="0.262251656%" y1="50.1291391%" x2="99.9764901%" y2="50.1291391%" id="linearGradient-1">
            <stop stop-color="#FFDE17" offset="0%"></stop>
            <stop stop-color="#FFF200" stop-opacity="0" offset="100%"></stop>
        </linearGradient>
        <linearGradient x1="-4.61576647%" y1="50.4533681%" x2="100.294146%" y2="50.4533681%" id="linearGradient-2">
            <stop stop-color="#FFF200" offset="0%"></stop>
            <stop stop-color="#FCCF0E" stop-opacity="0" offset="100%"></stop>
        </linearGradient>
        <linearGradient x1="1.375%" y1="49.29375%" x2="100.325%" y2="49.29375%" id="linearGradient-3">
            <stop stop-color="#2484C6" offset="0%"></stop>
            <stop stop-color="#2484C6" stop-opacity="0" offset="100%"></stop>
        </linearGradient>
        <linearGradient x1="-2.4125%" y1="52.08125%" x2="96.53125%" y2="52.08125%" id="linearGradient-4">
            <stop stop-color="#FFFFFF" offset="0%"></stop>
            <stop stop-color="#FFF200" stop-opacity="0" offset="100%"></stop>
        </linearGradient>
        <linearGradient x1="0%" y1="48.2357143%" x2="99.0928571%" y2="48.2357143%" id="linearGradient-5">
            <stop stop-color="#2484C6" offset="0%"></stop>
            <stop stop-color="#2484C6" stop-opacity="0" offset="100%"></stop>
        </linearGradient>
        <linearGradient x1="-6.97%" y1="53.63%" x2="100.78%" y2="53.63%" id="linearGradient-6">
            <stop stop-color="#2484C6" offset="0%"></stop>
            <stop stop-color="#2484C6" stop-opacity="0" offset="100%"></stop>
        </linearGradient>
        <linearGradient x1="1.3%" y1="45.71%" x2="106.04%" y2="45.71%" id="linearGradient-7">
            <stop stop-color="#2484C6" offset="0%"></stop>
            <stop stop-color="#2484C6" stop-opacity="0" offset="100%"></stop>
        </linearGradient>
        <linearGradient x1="1.73181818%" y1="50.9545455%" x2="102.295455%" y2="50.9545455%" id="linearGradient-8">
            <stop stop-color="#2484C6" offset="0%"></stop>
            <stop stop-color="#2484C6" stop-opacity="0" offset="100%"></stop>
        </linearGradient>
        <linearGradient x1="-1.9%" y1="47.9545455%" x2="98.6636364%" y2="47.9545455%" id="linearGradient-9">
            <stop stop-color="#FFFFFF" offset="0%"></stop>
            <stop stop-color="#FFF200" stop-opacity="0" offset="100%"></stop>
        </linearGradient>
        <linearGradient x1="-1.19545455%" y1="49.9454545%" x2="99.3681818%" y2="49.9454545%" id="linearGradient-10">
            <stop stop-color="#FFFFFF" offset="0%"></stop>
            <stop stop-color="#FFF200" stop-opacity="0" offset="100%"></stop>
        </linearGradient>
        <linearGradient x1="-2.46666667%" y1="49.2111111%" x2="97.8%" y2="49.2111111%" id="linearGradient-11">
            <stop stop-color="#2484C6" offset="0%"></stop>
            <stop stop-color="#2484C6" stop-opacity="0" offset="100%"></stop>
        </linearGradient>
        <linearGradient x1="11.4666667%" y1="49.2%" x2="98.75%" y2="49.2%" id="linearGradient-12">
            <stop stop-color="#2484C6" offset="0%"></stop>
            <stop stop-color="#2484C6" stop-opacity="0" offset="100%"></stop>
        </linearGradient>
        <linearGradient x1="-12.1333333%" y1="48.1166667%" x2="98.5833333%" y2="48.1166667%" id="linearGradient-13">
            <stop stop-color="#2484C6" offset="0%"></stop>
            <stop stop-color="#2484C6" stop-opacity="0" offset="100%"></stop>
        </linearGradient>
        <linearGradient x1="-3.575%" y1="50.6375%" x2="99.4125%" y2="50.6375%" id="linearGradient-14">
            <stop stop-color="#2484C6" offset="0%"></stop>
            <stop stop-color="#2484C6" stop-opacity="0" offset="100%"></stop>
        </linearGradient>
        <linearGradient x1="5.73333333%" y1="47.6833333%" x2="109.416667%" y2="47.6833333%" id="linearGradient-15">
            <stop stop-color="#FFFFFF" offset="0%"></stop>
            <stop stop-color="#FFF200" stop-opacity="0" offset="100%"></stop>
        </linearGradient>
        <linearGradient x1="6.83%" y1="52.08%" x2="101.1%" y2="52.08%" id="linearGradient-16">
            <stop stop-color="#2484C6" offset="0%"></stop>
            <stop stop-color="#2484C6" stop-opacity="0" offset="100%"></stop>
        </linearGradient>
        <linearGradient x1="1.07%" y1="50.2%" x2="94.79%" y2="50.2%" id="linearGradient-17">
            <stop stop-color="#2484C6" offset="0%"></stop>
            <stop stop-color="#2484C6" stop-opacity="0" offset="100%"></stop>
        </linearGradient>
        <linearGradient x1="2.4%" y1="56.35%" x2="107.666667%" y2="56.35%" id="linearGradient-18">
            <stop stop-color="#FFFFFF" offset="0%"></stop>
            <stop stop-color="#FFF200" stop-opacity="0" offset="100%"></stop>
        </linearGradient>
        <linearGradient x1="0%" y1="46.6125%" x2="92.85%" y2="46.6125%" id="linearGradient-19">
            <stop stop-color="#FFFFFF" offset="0%"></stop>
            <stop stop-color="#FFF200" stop-opacity="0" offset="100%"></stop>
        </linearGradient>
        <linearGradient x1="-7.55%" y1="49.1875%" x2="102.4125%" y2="49.1875%" id="linearGradient-20">
            <stop stop-color="#2484C6" offset="0%"></stop>
            <stop stop-color="#2484C6" stop-opacity="0" offset="100%"></stop>
        </linearGradient>
        <linearGradient x1="2.60555556%" y1="51.4%" x2="101.211111%" y2="51.4%" id="linearGradient-21">
            <stop stop-color="#2484C6" offset="0%"></stop>
            <stop stop-color="#2484C6" stop-opacity="0" offset="100%"></stop>
        </linearGradient>
        <linearGradient x1="-3.4625%" y1="46.3625%" x2="108.8875%" y2="46.3625%" id="linearGradient-22">
            <stop stop-color="#2484C6" offset="0%"></stop>
            <stop stop-color="#2484C6" stop-opacity="0" offset="100%"></stop>
        </linearGradient>
        <linearGradient x1="-5.6%" y1="56.3%" x2="95.45%" y2="56.3%" id="linearGradient-23">
            <stop stop-color="#2484C6" offset="0%"></stop>
            <stop stop-color="#2484C6" stop-opacity="0" offset="100%"></stop>
        </linearGradient>
        <linearGradient x1="-3.48333333%" y1="51.4%" x2="105.683333%" y2="51.4%" id="linearGradient-24">
            <stop stop-color="#2484C6" offset="0%"></stop>
            <stop stop-color="#2484C6" stop-opacity="0" offset="100%"></stop>
        </linearGradient>
    </defs>
    <g id="Page-1" stroke="none" stroke-width="1" fill="none" fill-rule="evenodd">
        <g id="meditation_park">
            <g id="Group" fill-rule="nonzero">
                <polygon id="Path" fill="#E3F8FF" points="99.8 34.8 50 84.6 0.2 34.8 10.6 24.4 49.5 0.1 90 25"></polygon>
                <path d="M79.8,37 L52.1,64.7 C50.9,65.9 49,65.9 47.9,64.7 L20.1,37 C18.9,35.8 18.9,33.9 20.1,32.8 L47.9,5 C49.1,3.8 51,3.8 52.1,5 L79.8,32.7 C81,33.9 81,35.8 79.8,37 Z" id="Path" fill="#FFFFFF"></path>
                <path d="M69.5,38 L53.2,54.3 C51.4,56.1 48.6,56.1 46.8,54.3 L30.5,38 C28.7,36.2 28.7,33.4 30.5,31.6 L46.8,15.3 C48.6,13.5 51.4,13.5 53.2,15.3 L69.5,31.6 C71.2,33.4 71.2,36.3 69.5,38 Z" id="Path" fill="#DEF7FF"></path>
                <g transform="translate(26.000000, 5.000000)">
                    <g opacity="0.39" fill="#FCCF0E" id="Path">
                        <path d="M37.1,24.4 C37.2,24 37.7,23.7 38.1,23.7 C38.6,23.6 39,23.8 39.4,23.9 C40.2,24.3 40.8,24.7 41.5,25 C42.2,25.3 42.9,25.6 43.6,25.8 C44.3,26 45.1,26.2 45.9,26.4 C44.3,26.9 42.6,26.6 41,25.9 C40.2,25.6 39.5,25 38.9,24.6 C38.6,24.4 38.3,24.2 38,24.2 C37.8,24.1 37.4,24.1 37.1,24.4 Z"></path>
                        <path d="M34.9,30.4 C35.7,29.9 36.8,30.1 37.6,30.6 C38.5,31.1 39.1,31.8 39.7,32.4 C40.3,33.1 40.8,33.7 41.4,34.2 C42,34.7 42.8,35.1 43.7,35.1 C42.9,35.6 41.8,35.3 41,34.9 C40.1,34.4 39.5,33.7 39,33 C38.4,32.3 37.9,31.7 37.3,31.2 C36.5,30.8 35.8,30.4 34.9,30.4 Z"></path>
                        <path d="M31.7,33.3 C32.4,33.2 33.1,33.6 33.4,34.3 C33.6,34.6 33.6,35.1 33.6,35.4 C33.6,35.7 33.5,36 33.5,36.3 C33.5,36.8 33.7,37.2 34,37.7 C34.3,38.1 34.8,38.5 35.3,39 C34.7,38.9 34,38.7 33.5,38.3 C32.9,37.9 32.5,37.1 32.6,36.3 C32.7,35.5 32.9,35.1 32.8,34.6 C32.6,34.1 32.3,33.6 31.7,33.3 Z"></path>
                        <path d="M25.6,35.9 C25.2,36.4 25.2,37 25.2,37.6 C25.3,38.1 25.5,38.7 25.7,39.3 C25.9,39.9 26.1,40.6 25.9,41.3 C25.8,42 25.3,42.8 24.6,42.9 C25.1,42.4 25.1,41.8 25.1,41.3 C25.1,40.8 24.9,40.2 24.7,39.6 C24.5,39 24.3,38.3 24.4,37.6 C24.5,36.9 25,36.1 25.6,35.9 Z"></path>
                        <path d="M19.7,36.5 C19,36.8 18.6,37.4 18.3,38 C18,38.6 17.9,39.3 17.7,40 C17.5,40.7 17.3,41.5 16.7,42.2 C16.2,42.8 15.3,43.4 14.5,43.1 C15.3,42.9 15.7,42.3 16,41.7 C16.3,41.1 16.5,40.4 16.6,39.7 C16.8,39 17,38.2 17.5,37.5 C18.1,36.9 18.9,36.3 19.7,36.5 Z"></path>
                        <path d="M14.2,34.7 C13.6,34.9 13.2,35.4 12.9,35.9 C12.6,36.4 12.2,37 11.6,37.5 C11,38 10.3,38.2 9.5,38.2 C8.8,38.2 8.1,37.9 7.6,37.4 C8.3,37.5 8.9,37.5 9.4,37.4 C10,37.3 10.5,37.1 10.9,36.7 C11.3,36.4 11.7,35.8 12.2,35.4 C12.8,34.9 13.5,34.5 14.2,34.7 Z"></path>
                        <path d="M11.7,31.5 C10.9,31.1 10,31 9.1,31.2 C8.3,31.3 7.4,31.6 6.6,31.9 C5.7,32.2 4.8,32.5 3.8,32.6 C2.8,32.7 1.8,32.5 1,31.9 C1.9,32.1 2.8,32 3.6,31.8 C4.4,31.6 5.3,31.2 6.1,30.9 C7,30.6 7.9,30.3 8.9,30.3 C10.1,30.4 11.1,30.8 11.7,31.5 Z"></path>
                        <path d="M9.1,26.7 C7.9,26 6.6,25.7 5.4,25.8 C4.8,25.8 4.2,26.1 3.4,26.2 C3,26.3 2.6,26.2 2.2,26 C1.9,25.8 1.5,25.5 1.6,25.1 C1.8,25.4 2.1,25.5 2.4,25.5 C2.7,25.5 3,25.5 3.3,25.4 C3.9,25.2 4.5,24.8 5.3,24.7 C6.1,24.6 6.8,24.7 7.5,25.1 C8.2,25.5 8.8,26.1 9.1,26.7 Z"></path>
                        <path d="M9.4,18.7 C8.7,18.3 8,17.8 7.3,17.5 C6.6,17.2 5.9,17.1 5.1,17.2 C4.3,17.3 3.4,17.4 2.5,17.2 C1.6,17 0.8,16.7 0.2,16.1 C1,16.3 1.8,16.4 2.6,16.4 C3.4,16.4 4.1,16.3 5,16.2 C5.4,16.2 5.9,16.1 6.4,16.2 C6.9,16.3 7.3,16.5 7.7,16.7 C8.4,17.3 8.9,17.9 9.4,18.7 Z"></path>
                        <path d="M12.5,13.1 C11.1,12.4 9.8,11.6 8.5,10.9 C7.8,10.5 7.2,10.2 6.5,9.7 C6.2,9.5 5.8,9.1 5.7,8.6 C5.7,8.1 6,7.6 6.4,7.6 C6.1,7.8 6.1,8.2 6.2,8.5 C6.3,8.8 6.6,8.9 6.9,9.1 L7.9,9.5 C8.3,9.7 8.6,9.9 8.9,10 C10.3,10.8 11.6,11.8 12.5,13.1 Z"></path>
                        <path d="M16.3,10.6 C15.2,9.8 14.3,8.8 13.3,8 C12.8,7.6 12.3,7.3 11.7,7 C11.4,6.8 11.1,6.7 10.8,6.4 C10.5,6.1 10.3,5.8 10.3,5.4 C10.7,6 11.3,6.1 12,6.3 C12.7,6.5 13.4,6.8 13.9,7.2 C15.1,8.2 15.9,9.3 16.3,10.6 Z"></path>
                        <path d="M21.2,8.8 C20.9,8 20.3,7.6 19.6,7.1 C19.3,6.9 18.9,6.6 18.6,6.2 C18.3,5.8 18.1,5.3 18.1,4.8 C18.2,3.7 18.8,3.1 18.6,2.5 C18.5,2.2 18.3,1.9 18.1,1.5 C17.9,1.1 17.7,0.7 17.8,0.2 C18,1.1 18.9,1.2 19.3,2.2 C19.6,2.7 19.4,3.3 19.3,3.7 C19.2,4.1 19,4.5 19,4.7 C19,5.3 19.5,5.9 20,6.4 C20.3,6.7 20.6,7 20.8,7.4 C21.2,7.9 21.3,8.4 21.2,8.8 Z"></path>
                        <path d="M24.1,8.5 C23.8,7.8 23.7,7 23.6,6.2 C23.6,5.4 23.7,4.6 24.1,3.8 C24.3,3.4 24.5,3.1 24.8,2.8 C25.1,2.5 25.4,2.3 25.8,2.1 C26.4,1.7 27,1.3 27.2,0.5 C27.5,1.3 26.9,2.2 26.3,2.7 C25.7,3.2 25.3,3.7 25,4.3 C24.7,4.9 24.5,5.6 24.4,6.3 C24.3,6.9 24.2,7.7 24.1,8.5 Z"></path>
                        <path d="M28.9,9.9 C29,9.1 29.2,8.3 29.6,7.5 C30,6.7 30.6,6 31.5,5.6 C32.3,5.2 33.1,5.1 33.8,4.8 C34.5,4.5 35.1,4.1 35.8,3.5 C35.5,4.3 34.9,5 34.2,5.5 C33.5,6 32.6,6.2 32,6.5 C31.3,6.8 30.8,7.3 30.4,7.9 C29.8,8.4 29.4,9.2 28.9,9.9 Z"></path>
                        <path d="M33.5,12.5 C34,11.9 34.6,11.3 35.4,10.9 C35.8,10.7 36.3,10.7 36.8,10.7 C37.3,10.8 37.7,11 38.1,11.1 C38.8,11.5 39.4,11.8 40.1,11.9 C40.8,12 41.6,11.9 42.3,11.5 C41.8,12.2 41,12.6 40.1,12.6 C39.7,12.6 39.2,12.6 38.8,12.4 C38.4,12.3 38,12.1 37.7,11.9 C37,11.5 36.4,11.4 35.7,11.5 C35,11.9 34.3,12.2 33.5,12.5 Z"></path>
                        <path d="M36.8,17.2 C37.3,16.4 38.4,16.2 39.2,16.2 C40.1,16.2 40.9,16.4 41.7,16.5 C43.3,16.6 44.9,16.4 46.6,16.1 C45.2,17.2 43.4,17.6 41.6,17.5 C40.7,17.4 39.8,17.2 39.1,17 C38.4,16.8 37.5,16.7 36.8,17.2 Z"></path>
                        <path d="M37.8,21.8 C38.3,21.1 39.2,20.8 40.1,20.8 C41,20.7 41.8,20.9 42.6,21.2 C44.2,21.7 45.5,22.4 47.2,22.5 C46.4,22.9 45.5,22.9 44.7,22.8 C43.9,22.7 43.1,22.4 42.3,22.2 C41.6,22 40.8,21.8 40.1,21.7 C39.3,21.4 38.5,21.4 37.8,21.8 Z"></path>
                    </g>
                    <circle id="Oval" fill="url(#linearGradient-1)" cx="23.2" cy="22.4" r="15.1"></circle>
                    <circle id="Oval" fill="#FCCF0E" cx="23.2" cy="22.4" r="13.2"></circle>
                    <path d="M12.9,14.6 C12.5,17.2 12.2,19.8 12.4,22.3 C12.6,24.8 13.3,27.3 14.9,29.2 C16.5,31.1 18.7,32.4 21,32.9 C23.3,33.4 25.8,33.2 27.8,32 C29.8,30.9 31.4,29 32.3,26.8 C33.2,24.6 33.4,22.2 32.8,20 C32.3,17.8 31.1,15.6 29.4,14.2 C27.7,12.8 25.4,12.2 23.2,12.6 C21.1,13 19.1,14.3 18.2,16.2 C17.3,18.1 17.6,20.5 18.4,22.8 C19.2,25 20.4,27.4 22.1,28.5 C23.7,29.6 26.2,29 27.4,27.3 C28.7,25.6 29.1,23 28.4,20.9 C28,19.8 27.4,18.9 26.5,18.1 C25.6,17.4 24.5,16.9 23.5,17 C23,17 22.5,17.2 22.2,17.6 C21.8,17.9 21.6,18.5 21.4,19 C21.1,20.1 21.1,21.4 21.7,22.4 C22,22.9 22.4,23.3 22.9,23.5 C23.4,23.7 24,23.5 24.3,23 C24.6,22.5 24.8,21.9 24.5,21.4 C24.2,20.9 23.4,20.6 22.9,21.1 L22.9,21.1 L22.9,21.1 L22.5,21.2 L22.9,21 L22.9,21 C23.1,20.7 23.5,20.6 23.8,20.7 C24.1,20.8 24.5,20.9 24.7,21.2 C25.1,21.8 25.1,22.6 24.7,23.3 C24.5,23.6 24.3,23.9 23.9,24.1 C23.5,24.3 23.1,24.3 22.8,24.2 C22,24.1 21.4,23.5 21,22.9 C20.2,21.6 20.1,20.2 20.3,18.7 C20.4,18 20.7,17.3 21.2,16.7 C21.7,16.1 22.5,15.7 23.3,15.5 C24.9,15.3 26.4,15.8 27.6,16.7 C28.8,17.6 29.7,18.8 30.3,20.1 C30.9,21.5 31.1,23 30.9,24.4 C30.7,25.9 30.3,27.3 29.4,28.6 C28.5,29.9 27.1,30.9 25.6,31.3 C24.1,31.7 22.3,31.5 20.9,30.7 C19.5,29.9 18.5,28.7 17.7,27.5 C16.9,26.3 16.3,25.1 15.8,23.7 C15.3,22.4 15,21 14.9,19.5 C14.8,18 15,16.5 15.6,15 C16.9,12 19.8,10.2 22.7,9.7 C25.7,9.2 28.9,10 31.2,11.9 C33.6,13.8 35,16.5 35.6,19.3 C36.9,25 34.2,31.3 28.9,34 C26.3,35.3 23.2,35.5 20.5,34.7 C17.8,33.9 15.4,32.2 13.8,30 C12.1,27.7 11.6,24.9 11.6,22.2 C11.6,19.7 12.2,17.1 12.9,14.6 Z" id="Path" fill="url(#linearGradient-2)"></path>
                </g>
            </g>
            <g id="Group" transform="translate(45.000000, 34.000000)"></g>
            <g id="Group" transform="translate(6.000000, 39.000000)">
                <path d="M2.1,25.3 C3.4,23.2 5.5,21.7 7.5,20.3 C11.4,17.6 15.3,14.8 19.8,13.2 C27.2,10.5 35.6,11.4 42.7,14.8 C49.8,18.2 55.6,24 59.6,30.7 C59.2,30 53.8,30 52.9,30 C50.5,29.8 48.1,29.6 45.7,29.5 C41,29.3 36.3,29.3 31.6,29.5 C22.2,29.9 12.8,31.2 3.6,33.2 C1.5,33.7 0.8,33.7 0.8,31.5 C0.8,29.5 1,27.1 2.1,25.3 Z" id="Path" fill="#39B54A" fill-rule="nonzero"></path>
                <path d="M85.3,26 C84,23.9 81.9,22.4 79.9,21 C76,18.3 72.1,15.5 67.6,13.9 C60.2,11.2 51.8,12.1 44.7,15.5 C37.6,18.9 31.8,24.7 27.8,31.4 C28.2,30.7 33.6,30.7 34.5,30.7 C36.9,30.5 39.3,30.3 41.7,30.2 C46.4,30 51.1,30 55.8,30.2 C65.2,30.6 74.3,31.7 83.5,33.7 C85.6,34.2 86.8,34.4 86.8,32.1 C86.9,30 86.4,27.8 85.3,26 Z" id="Path" fill="#39B54A" fill-rule="nonzero"></path>
                <path d="M61.3,13.2 C60.2,11.8 58.6,10.9 57,10 C54,8.3 51,6.6 47.6,5.8 C42,4.4 36,5.6 31.1,8.5 C26.2,11.5 22.4,16.1 20,21.2 C20.3,20.7 24.2,20.3 24.8,20.2 C26.5,19.9 28.2,19.6 29.9,19.3 C33.3,18.8 36.7,18.5 40.1,18.3 C47,17.9 53.8,18.2 60.6,19 C62.2,19.2 62.7,19.2 62.5,17.6 C62.5,16.1 62.2,14.5 61.3,13.2 Z" id="Path" fill="#39B54A" fill-rule="nonzero"></path>
                <path d="M44.8,45.9 C80.3,44.5 92.3,31.5 84.4,31.5 C64.8,33.4 45.3,33.9 25.6,33.1 C22.8,33 1.4,29.3 1.1,32.9 C0.9,34.9 13.1,47.2 44.8,45.9 Z" id="Path" fill="#A97C50" fill-rule="nonzero"></path>
                <ellipse id="Oval" fill="#39B54A" fill-rule="nonzero" cx="43.9" cy="32.8" rx="42.9" ry="6.1"></ellipse>
                <ellipse id="Oval" fill="#006838" fill-rule="nonzero" cx="43.2" cy="32.8" rx="23" ry="3.3"></ellipse>
                <path d="M40.5,16.1 C37.7,15.7 34.9,15.7 32.1,16 C32.3,15.5 31.8,14.9 31.3,14.8 C30.8,14.7 30.2,14.9 29.7,15 C29.2,15.2 28.6,15.3 28.1,15 C27.9,13.4 26.3,12.2 24.7,12.3 C26.7,10.8 29.4,12.3 31.6,12.8 C33.2,13.2 34.7,13.6 36.3,14.2 C37.4,14.7 39.1,15.9 40.5,16.1 Z" id="Path" fill="#006838" fill-rule="nonzero" opacity="0.43"></path>
                <path d="M34.4,7.2 C36.5,6.1 38.8,5.5 41.1,5.9 C40.2,6.8 38.9,7.4 37.7,7.6 C37.3,7.7 36.8,7.7 36.4,7.8 C36,8 35.6,8.3 35.5,8.7 C35.4,9 35.6,9.4 35.6,9.7 C35.8,10.7 35.6,11.9 36.3,12.7 C35.1,13.5 33.4,13 32,12.6 C31.3,12.4 29.8,12.2 29.2,11.7 C28.6,11.2 29.4,10.6 29.8,10.2 C31.4,9.1 32.8,8 34.4,7.2 Z" id="Path" fill="#8DC63F" fill-rule="nonzero"></path>
                <path d="M76.6,23.4 C77.5,23.2 79.4,23.3 79.6,22 C79.7,21.3 78.9,20.6 74.4,17.8 C69.6,14.8 68.5,14.3 66.9,14 C66.2,14.7 66.1,15.6 66.6,16.5 C67.1,17.4 67.9,18 68.8,18.5 C69.4,18.8 70,19 70.5,19.3 C71,19.7 71.4,20.2 71.4,20.9 C71.3,21.9 70.2,22.7 70.4,23.6 C70.5,24.1 71,24.4 71.5,24.5 C72,24.6 72.5,24.5 72.9,24.4 C74.2,24 75.2,23.7 76.6,23.4 Z" id="Path" fill="#006838" fill-rule="nonzero" opacity="0.35"></path>
                <path d="M60.3,25.1 C59.8,25 59.4,24.9 59,24.6 C58.6,24.4 58.3,24 58.2,23.5 C58.1,22.8 58.6,22.1 59.1,21.5 C59.8,20.8 60.5,20 60.9,19.1 C61.2,18.2 61.1,17 60.3,16.4 C59.4,15.8 58.3,16.1 57.2,16.2 C56.2,16.3 55.2,16.1 54.2,15.7 C53.9,15.6 53.7,15.4 53.5,15.1 C53.3,14.6 53.7,14.1 54.2,13.9 C55,13.4 55.9,13.1 56.8,12.9 C57.8,12.6 58.8,12.4 59.8,12.4 C61.1,12.4 62.3,12.7 63.6,13 C64.2,13.2 64.9,13.4 65.2,13.9 C65.5,14.4 65.4,14.9 65.3,15.5 C65.2,16 65,16.6 65.1,17.1 C65.2,18 65.8,18.7 66.6,19.3 C67.4,19.9 68.1,20.3 68.7,21 C69.3,21.7 69.6,22.7 69.2,23.5 C69,23.8 68.7,24.1 68.8,24.5 C68.9,24.8 69.4,25 69.4,25.3 C69.4,25.5 69.2,25.7 69,25.8 C68.8,25.9 68.6,25.9 68.4,25.8 C67.2,25.7 66,25.4 64.8,25.4 C63.3,25.5 61.8,25.4 60.3,25.1 Z" id="Path" fill="#8DC63F" fill-rule="nonzero" opacity="0.47"></path>
                <path d="M73.1,23.4 C74.1,23 75.2,22.7 76.2,22.3 C76.5,22.2 76.9,22 77.1,21.7 C77.3,21.4 77.2,21 76.9,20.7 C76.7,20.4 76.3,20.2 76,20 C74.3,19 72.6,18 70.9,17 C70,16.5 69,15.9 68,16.1 C68.9,17.3 69.9,18.2 71.2,19 C71.7,19.3 72.2,19.5 72.5,19.9 C72.8,20.3 73.1,20.9 72.8,21.4 C72.6,21.9 72,22.1 71.6,22.4 C71.2,22.7 70.8,23.3 71.1,23.7 C72.6,23.9 74.1,23.4 75.2,22.5" id="Path" fill="#8DC63F" fill-rule="nonzero" opacity="0.4"></path>
                <path d="M27.7,13.5 C27.9,13.8 28.1,14.1 28.4,14.3 C29,14.6 29.7,14.3 30.3,14.1 C30.9,13.9 31.5,13.9 32,14.1 C32.5,14.3 33,14.9 32.9,15.5 C35.3,15.3 37.7,15.4 40.1,16 C40.3,16 40.5,16.1 40.5,16.3 C40.5,16.5 40.3,16.6 40.1,16.6 C38.5,17 36.8,17.4 35.2,17.4 C33.7,17.4 32.2,16.9 30.7,16.4 C29.6,16.1 28.6,15.7 27.6,15.2 C27.1,14.9 23.8,12.7 24.2,12.1 C24.4,11.8 25.5,12 25.8,12.1 C26.5,12.4 27.2,12.8 27.7,13.5 Z" id="Path" fill="#8DC63F" fill-rule="nonzero" opacity="0.4"></path>
                <path d="M16.7,14.4 C17.5,14.2 18.3,14.2 19.2,14.2 C20.4,14.2 22,14.2 23,14.6 C30.8,18.2 34.1,18.5 39.6,16.9 L46.8,15.3 C48.1,15 49.7,14.5 49.9,13.1 C50.1,12.1 49.4,11.2 48.6,10.7 C47.1,9.9 45.5,10.2 43.9,9.9 C42.7,9.7 41.3,8.9 41.2,7.6 C41.1,6.4 42.3,5.3 43.5,5.2 C44.7,5.1 46.5,5.2 47.6,5.7 C46.9,5.3 45.4,6.7 45.6,7.5 C45.9,8.3 46.8,8.7 47.7,8.8 C49.3,9 51,8.4 52.4,10.7 C53.2,12 53.3,13.6 52.6,15 C51.5,17.2 49,18.4 46.6,18.9 C44.2,19.4 41.7,19.2 39.2,19.5 C36.5,19.8 33.8,20.6 31.1,20.3 C28.3,20 25.7,18.4 23.2,17.2 C20.6,16 15.3,15.5 13.5,16.3 L16.7,14.4 Z" id="Path" stroke="#F9CCA7" stroke-width="0.25" fill="#FFDAB8" fill-rule="nonzero" stroke-linecap="round" stroke-linejoin="round"></path>
                <g transform="translate(18.000000, 5.000000)" fill="#F2C8A5" fill-rule="nonzero">
                    <circle id="Oval" cx="26.8" cy="1.1" r="1"></circle>
                    <path d="M28.2,3.9 C28.2,4 28.1,4.1 28,4.1 C27.9,4.1 27.8,4 27.8,3.9 C27.8,3.8 27.9,3.7 28,3.7 C28.1,3.8 28.2,3.9 28.2,3.9 Z" id="Path"></path>
                    <path d="M30.9,5.3 C30.9,5.4 30.8,5.5 30.7,5.5 C30.6,5.5 30.5,5.4 30.5,5.3 C30.5,5.2 30.6,5.1 30.7,5.1 C30.8,5.1 30.9,5.2 30.9,5.3 Z" id="Path"></path>
                    <circle id="Oval" cx="25.3" cy="2.6" r="1"></circle>
                    <circle id="Oval" cx="33.6" cy="7.9" r="1"></circle>
                    <path d="M32.9,10.3 C32.9,10.5 32.9,10.6 33,10.6 C33,10.6 33.1,10.5 33.1,10.3 C33.1,10.1 33,10 33,10 C32.9,10 32.9,10.1 32.9,10.3 Z" id="Path"></path>
                    <path d="M29.3,12.9 C29.3,13 29.4,13.1 29.5,13.1 C29.6,13.1 29.7,13 29.7,12.9 C29.7,12.8 29.6,12.7 29.5,12.7 C29.4,12.7 29.3,12.8 29.3,12.9 Z" id="Path"></path>
                    <circle id="Oval" cx="25.2" cy="13.3" r="1"></circle>
                    <path d="M18.8,13.7 C18.8,13.9 19,14.1 19.2,14.1 C19.4,14.1 19.6,13.9 19.6,13.7 C19.6,13.5 19.4,13.3 19.2,13.3 C19,13.3 18.8,13.5 18.8,13.7 Z" id="Path"></path>
                    <path d="M11.3,13.8 C11.3,14 11.5,14.1 11.8,14.1 C12.1,14.1 12.3,14 12.3,13.8 C12.3,13.6 12.1,13.5 11.8,13.5 C11.5,13.5 11.3,13.7 11.3,13.8 Z" id="Path"></path>
                    <circle id="Oval" cx="8.7" cy="12.4" r="1"></circle>
                    <ellipse id="Oval" cx="5.7" cy="11.4" rx="1" ry="1"></ellipse>
                    <path d="M2.8,10.6 C2.8,10.6 2.9,10.6 3.1,10.6 C3.3,10.6 3.4,10.6 3.4,10.6 C3.4,10.6 3.3,10.6 3.1,10.6 C3,10.6 2.8,10.6 2.8,10.6 Z" id="Path"></path>
                    <path d="M1,10 C1,10 1.1,10 1.3,10 C1.5,10 1.6,10 1.6,10 C1.6,10 1.5,10 1.3,10 C1.2,10 1,10 1,10 Z" id="Path"></path>
                </g>
                <g transform="translate(52.000000, 0.000000)">
                    <path d="M4.4,10.7 L4.4,3" id="Path" stroke="#006838" stroke-width="0.5" stroke-linecap="round" stroke-linejoin="round"></path>
                    <path d="M4.4,6.7 L6.6,3.5" id="Path" stroke="#006838" stroke-width="0.5" stroke-linecap="round" stroke-linejoin="round"></path>
                    <path d="M4.3,8.1 L1.9,5.1" id="Path" stroke="#006838" stroke-width="0.5" stroke-linecap="round" stroke-linejoin="round"></path>
                    <path d="M2.6,2.2 L2.6,3.7 C2.6,3.9 2.7,4.1 2.9,4.1 L4.2,4.9 C4.4,5 4.6,5 4.7,4.9 L6,4.1 C6.2,4 6.3,3.8 6.3,3.7 L6.3,2.2 C6.3,2 6.2,1.8 6,1.8 L4.7,1 C4.5,0.9 4.3,0.9 4.2,1 L2.9,1.8 C2.7,1.9 2.6,2 2.6,2.2 Z" id="Path" fill="#8DC63F" fill-rule="nonzero"></path>
                    <path d="M0.7,5.5 L1.4,6.3 C1.5,6.4 1.6,6.4 1.7,6.4 L2.7,6.2 C2.8,6.2 2.9,6.1 2.9,6 L3.3,5 C3.3,4.9 3.3,4.8 3.3,4.7 L2.4,4 C2.3,3.9 2.2,3.9 2.1,3.9 L1.1,4.1 C1,4.1 0.9,4.2 0.9,4.3 L0.5,5.3 C0.6,5.3 0.6,5.4 0.7,5.5 Z" id="Path" fill="#8DC63F" fill-rule="nonzero"></path>
                    <path d="M5.1,3 L4.9,3.9 C4.9,4 4.9,4.1 5,4.1 L5.6,4.7 C5.7,4.8 5.7,4.8 5.8,4.8 L6.7,4.6 C6.8,4.6 6.8,4.5 6.9,4.4 L7.1,3.5 C7.1,3.4 7.1,3.3 7,3.3 L6.4,2.7 C6.3,2.6 6.3,2.6 6.2,2.6 L5.3,2.8 C5.2,2.9 5.2,2.9 5.1,3 Z" id="Path" fill="#006838" fill-rule="nonzero" opacity="0.27"></path>
                    <path d="M5.3,3.1 L5.1,4 C5.1,4.1 5.1,4.2 5.2,4.2 L5.8,4.8 C5.9,4.9 5.9,4.9 6,4.9 L6.9,4.7 C7,4.7 7,4.6 7.1,4.5 L7.3,3.6 C7.3,3.5 7.3,3.4 7.2,3.4 L6.6,2.8 C6.5,2.7 6.5,2.7 6.4,2.7 L5.5,2.9 C5.4,2.9 5.4,3 5.3,3.1 Z" id="Path" fill="#8DC63F" fill-rule="nonzero"></path>
                    <ellipse id="Oval" fill="#006838" fill-rule="nonzero" cx="4.4" cy="10.9" rx="1.6" ry="1"></ellipse>
                </g>
                <g transform="translate(18.000000, 4.000000)">
                    <path d="M4.6,9.9 L4.6,2.4" id="Path" stroke="#006838" stroke-width="0.5" stroke-linecap="round" stroke-linejoin="round"></path>
                    <path d="M4.6,6 L6.8,2.9" id="Path" stroke="#006838" stroke-width="0.5" stroke-linecap="round" stroke-linejoin="round"></path>
                    <path d="M4.5,7.3 L2.1,4.4" id="Path" stroke="#006838" stroke-width="0.5" stroke-linecap="round" stroke-linejoin="round"></path>
                    <path d="M2.8,1.6 L2.8,3.1 C2.8,3.3 2.9,3.5 3.1,3.5 L4.4,4.2 C4.6,4.3 4.8,4.3 4.9,4.2 L6.2,3.5 C6.4,3.4 6.5,3.2 6.5,3.1 L6.5,1.6 C6.5,1.4 6.4,1.2 6.2,1.2 L4.9,0.5 C4.7,0.4 4.5,0.4 4.4,0.5 L3.1,1.2 C2.9,1.3 2.8,1.4 2.8,1.6 Z" id="Path" fill="#8DC63F" fill-rule="nonzero"></path>
                    <path d="M1,4.8 L1.6,5.6 C1.7,5.7 1.8,5.7 1.9,5.7 L2.9,5.5 C3,5.5 3.1,5.4 3.1,5.3 L3.4,4.4 C3.4,4.3 3.4,4.2 3.4,4.1 L2.8,3.3 C2.7,3.2 2.6,3.2 2.5,3.2 L1.5,3.4 C1.4,3.4 1.3,3.5 1.3,3.6 L1,4.5 C0.9,4.6 0.9,4.7 1,4.8 Z" id="Path" fill="#8DC63F" fill-rule="nonzero"></path>
                    <path d="M5.3,2.4 L5.1,3.2 C5.1,3.3 5.1,3.4 5.2,3.4 L5.8,4 C5.9,4.1 5.9,4.1 6,4.1 L6.9,3.9 C7,3.9 7,3.8 7.1,3.7 L7.3,2.9 C7.3,2.8 7.3,2.7 7.2,2.7 L6.6,2 C6.5,2 6.4,2 6.3,2 L5.4,2.2 C5.4,2.2 5.3,2.3 5.3,2.4 Z" id="Path" fill="#006838" fill-rule="nonzero" opacity="0.27"></path>
                    <path d="M5.5,2.4 L5.3,3.2 C5.3,3.3 5.3,3.4 5.4,3.4 L6,4 C6.1,4.1 6.1,4.1 6.2,4.1 L7,4 C7.1,4 7.1,3.9 7.2,3.8 L7.4,3 C7.4,2.9 7.4,2.8 7.3,2.8 L6.7,2.2 C6.7,2 6.6,2 6.5,2 L5.6,2.2 C5.6,2.3 5.5,2.3 5.5,2.4 Z" id="Path" fill="#8DC63F" fill-rule="nonzero"></path>
                    <ellipse id="Oval" fill="#006838" fill-rule="nonzero" cx="4.6" cy="10" rx="1.5" ry="1"></ellipse>
                    <path d="M5.4,10.1 C5.5,10.2 5.6,10.2 5.6,10.2 C5.7,10.2 5.8,10.1 5.8,10.1 C5.8,10.1 5.9,10.1 5.9,10 C5.9,9.9 5.9,9.9 5.9,9.8 C5.9,9.8 5.8,9.7 5.9,9.6 C5.8,9.7 5.8,9.8 5.8,9.9 C5.7,9.8 5.7,9.7 5.6,9.6 C5.6,9.7 5.6,9.8 5.6,9.9 C5.5,9.8 5.5,9.8 5.4,9.7 C5.4,9.9 5.4,10 5.4,10.1 C5.4,10.1 5.4,10.1 5.4,10.1 Z" id="Path" fill="#D7DF23" fill-rule="nonzero"></path>
                    <path d="M5.4,10.3 C5.4,10.2 5.4,10.1 5.3,9.9 C5.4,9.9 5.5,10 5.6,10.1 C5.6,10 5.7,9.8 5.7,9.7 C5.8,9.8 5.8,10 5.9,10.1 C5.9,10 6,9.8 6.1,9.8 C6.1,9.9 6.1,9.9 6.1,10 C6.1,10.1 6.2,10.1 6.1,10.2 C6.1,10.2 6,10.3 6,10.3 C5.9,10.3 5.8,10.4 5.7,10.4 C5.5,10.3 5.4,10.3 5.4,10.3" id="Path" fill="#39B54A" fill-rule="nonzero"></path>
                    <path d="M4.1,9.9 C4.1,9.9 4.2,10 4.3,10 C4.4,10 4.4,10 4.5,9.9 C4.5,9.9 4.6,9.9 4.6,9.9 C4.6,9.9 4.6,9.8 4.6,9.8 C4.6,9.8 4.6,9.7 4.6,9.7 C4.5,9.7 4.5,9.8 4.5,9.9 C4.5,9.8 4.4,9.8 4.4,9.7 C4.4,9.8 4.4,9.8 4.4,9.9 C4.4,9.9 4.3,9.8 4.3,9.8 C4.1,9.8 4,9.9 4.1,9.9 C4,9.9 4.1,9.9 4.1,9.9 Z" id="Path" fill="#006838" fill-rule="nonzero"></path>
                    <path d="M3.9,10.2 C3.8,10.2 3.8,10.2 3.7,10.1 C3.7,10.1 3.6,10.1 3.6,10.1 C3.6,10.1 3.6,10.1 3.6,10.2 C3.6,10.2 3.7,10.3 3.7,10.3 C3.8,10.3 4,10.4 4.1,10.3 C4,10.4 4,10.3 4,10.3 C4,10.2 4,10.1 3.9,10.2 C3.9,10.1 3.9,10.2 3.9,10.2 Z" id="Path" fill="#39B54A" fill-rule="nonzero"></path>
                    <path d="M3.4,10.1 C3.3,10.1 3.2,10.1 3.1,10.1 C3.1,10.1 3,10.1 3,10.1 C3,10.1 3,10.1 3,10 C3,10 3,10 3,10 C3,10 3,10 3,10 C3,10 3,10 3,10 C3,10 3,10 3,10 C3,10 3,10 3,10 C3.1,10 3.1,10 3.2,10 C3.3,10 3.4,10.1 3.4,10.1 Z" id="Path" fill="#006838" fill-rule="nonzero"></path>
                    <g transform="translate(2.000000, 9.000000)" fill-rule="nonzero" id="Path">
                        <path d="M1.5,1 C1.5,1 1.5,0.9 1.5,0.9 C1.5,0.9 1.4,0.8 1.4,0.8 C1.3,0.8 1.2,0.9 1.2,0.9 C1.2,0.9 1.1,0.9 1.1,0.9 C1.1,0.9 1,0.9 1,0.9 C1,0.9 1,1 1,1 C1,1 1,1 1,1 C1,1 1,1.1 1,1.1 C1,1.1 1.1,1.2 1.1,1.1 C1.2,1.1 1.3,1.1 1.4,1 C1.5,1 1.5,1 1.5,1 Z" fill="#BCBEC0"></path>
                        <path d="M1,0.9 C1,1 1,1 1,0.9 C1,1 1,1 1,1.1 C1,1.1 1,1.1 1.1,1.1 C1.1,1.1 1.2,1.1 1.2,1.1 C1.3,1.1 1.3,1.1 1.4,1 C1.5,1 1.5,0.9 1.5,0.8 C1.4,0.9 1.3,1 1.2,1.1 C1.2,1.1 1.1,1.1 1.1,1.1 C1.1,1.1 1.1,1 1,0.9 C1,0.9 0.9,0.8 1,0.9 Z" fill="#808285"></path>
                        <path d="M1.3,0.8 C1.4,0.8 1.4,0.8 1.3,0.8 C1.4,0.8 1.4,0.8 1.4,0.9 C1.4,0.9 1.4,0.9 1.3,0.8 C1.3,0.9 1.2,0.9 1.2,0.9 C1.2,0.9 1,0.9 1.1,0.8 C1.1,0.8 1.2,0.8 1.2,0.8 C1.3,0.8 1.3,0.8 1.3,0.8 Z" fill="#D1D3D4"></path>
                    </g>
                </g>
                <path d="M54.7,10.9 C54.7,10.8 54.7,10.8 54.8,10.7 C54.8,10.7 54.8,10.7 54.8,10.7 C54.8,10.7 54.8,10.8 54.8,10.8 C54.8,10.8 54.8,10.7 54.9,10.7 C54.9,10.8 54.9,10.8 54.9,10.9 C54.9,10.9 55,10.9 55,10.8 C55,10.8 55,10.7 55,10.7 C55,10.8 55.1,10.9 55.1,10.9 C55.1,10.9 55.1,10.8 55.2,10.8 C55.2,10.8 55.2,10.9 55.2,10.9 C55.2,10.9 55.2,10.9 55.3,10.9 C55.3,10.9 55.3,10.9 55.3,11 C55.3,11 55.3,11 55.2,11 C55.1,11 55.2,11 55.1,11 C55,11 54.8,11 54.7,10.9 C54.7,10.9 54.7,10.9 54.7,10.9 Z" id="Path" fill="#39B54A" fill-rule="nonzero"></path>
                <path d="M55.6,10.7 C55.6,10.7 55.7,10.6 55.7,10.6 C55.7,10.6 55.7,10.7 55.6,10.7 C55.7,10.6 55.7,10.6 55.8,10.5 C55.8,10.6 55.8,10.6 55.8,10.7 C55.8,10.7 55.9,10.6 55.9,10.6 C55.9,10.6 55.9,10.7 55.9,10.7 C55.9,10.7 55.9,10.7 55.9,10.7 C55.9,10.7 55.9,10.7 56,10.7 C56,10.7 56.1,10.6 56.1,10.6 C56.1,10.5 56.1,10.5 56.1,10.4 C56.1,10.4 56,10.3 56,10.3 C56,10.3 55.9,10.2 55.9,10.2 C56,10.2 56.1,10.3 56.2,10.4 C56.1,10.3 56.1,10.2 56,10.2 C56.1,10.2 56.3,10.3 56.4,10.3 C56.3,10.4 56.4,10.5 56.4,10.6 C56.4,10.7 56.5,10.8 56.4,10.9 C56.4,11 56.3,11 56.2,11 C56.1,11 56,11.1 55.9,11 C55.7,10.8 55.6,10.8 55.6,10.7 C55.5,10.7 55.5,10.6 55.5,10.6 C55.6,10.6 55.6,10.7 55.6,10.7 Z" id="Path" fill="#006838" fill-rule="nonzero"></path>
                <path d="M57.1,10.9 C57.1,10.9 57,10.8 57,10.7 C57,10.6 57,10.6 57,10.5 C57,10.6 57.1,10.6 57.1,10.7 C57.1,10.6 57.1,10.6 57.1,10.5 C57.1,10.6 57.2,10.6 57.2,10.7 C57.2,10.7 57.2,10.6 57.2,10.6 C57.2,10.6 57.3,10.6 57.3,10.5 C57.3,10.4 57.3,10.4 57.3,10.4 C57.3,10.4 57.3,10.5 57.3,10.6 C57.3,10.7 57.3,10.7 57.3,10.8 C57.2,10.8 57.1,10.8 57.1,10.9" id="Path" fill="#006838" fill-rule="nonzero"></path>
                <path d="M56.6,10.9 C56.6,11 56.6,11 56.6,10.9 C56.7,11 56.7,11 56.6,10.9 C56.7,10.9 56.7,10.9 56.7,11 C56.7,10.9 56.7,10.9 56.7,10.8 C56.7,10.8 56.8,10.9 56.8,10.9 C56.8,10.9 56.8,10.8 56.8,10.8 C56.8,10.8 56.8,10.9 56.8,11 C56.8,11 56.8,10.9 56.9,10.9 C56.9,10.9 56.9,11 56.9,11 C56.9,11 56.9,11 57,10.9 C57,10.9 57,11 57,11 C57,11 57.1,11 57.1,11 C57.1,11.1 57.1,11.1 57,11.1 C56.9,11.1 56.9,11.1 56.8,11.1 C56.8,11.1 56.7,11.1 56.7,11.1 C56.7,11.1 56.6,11.1 56.6,11 C56.6,11 56.6,11 56.6,10.9 Z" id="Path" fill="#39B54A" fill-rule="nonzero"></path>
                <path d="M57,10.9 C57,11 57,11 57,10.9 C57.1,11 57.1,11 57,10.9 C57.1,10.9 57.1,10.9 57.1,11 C57.1,10.9 57.1,10.9 57.1,10.8 C57.1,10.8 57.2,10.9 57.2,10.9 C57.2,10.9 57.2,10.8 57.2,10.8 C57.2,10.8 57.2,10.9 57.2,11 C57.2,11 57.2,10.9 57.3,10.9 C57.3,10.9 57.3,11 57.3,11 C57.3,11 57.3,11 57.4,10.9 C57.4,10.9 57.4,11 57.4,11 C57.4,11 57.5,11 57.5,11 C57.5,11.1 57.5,11.1 57.4,11.1 C57.3,11.1 57.3,11.1 57.2,11.1 C57.2,11.1 57.1,11.1 57.1,11.1 C57.1,11.1 57,11.1 57,11 C57,11 57,11 57,10.9 Z" id="Path" fill="#39B54A" fill-rule="nonzero"></path>
            </g>
            <g id="Group" transform="translate(24.000000, 29.000000)">
                <g transform="translate(25.000000, 36.000000)" fill-rule="nonzero">
                    <polygon id="Path" stroke="#0E2947" stroke-width="0.5" fill="#E6E7E8" stroke-linecap="round" stroke-linejoin="round" points="1.2 4.6 2.8 4.5 2.8 3 6.4 3 5.2 0.1 3.3 0.4 1.2 1"></polygon>
                    <polygon id="Shape_16_" fill="#25E899" points="1.1 1 1.1 4.6 0.6 4.5 0.6 1.1"></polygon>
                    <path d="M1,0.9 L0.6,1 C0.5,1 0.5,1 0.5,1.1 L0.5,4.6 C0.5,4.6 0.5,4.7 0.6,4.7 L1,4.8 C1,4.8 1.1,4.8 1.1,4.8 C1.1,4.8 1.1,4.8 1.1,4.8 C1.1,4.8 1.1,4.8 1.1,4.8 C1.1,4.8 1.1,4.8 1.1,4.7 L1.1,1 C1.1,1 1.1,0.9 1.1,0.9 C1.1,0.9 1.1,0.9 1,0.9 C1.1,0.9 1.1,0.9 1,0.9 C1.1,0.9 1.1,0.9 1,0.9 Z M1,1.1 L1,4.5 L0.8,4.5 L0.8,1.2 L1,1.1 Z" id="Shape_15_" fill="#0E2947"></path>
                </g>
                <g transform="translate(19.000000, 36.000000)" fill-rule="nonzero">
                    <polygon id="Path" stroke="#0E2947" stroke-width="0.5" fill="#E6E7E8" stroke-linecap="round" stroke-linejoin="round" points="5.8 4.7 4.3 4.6 4.3 3.1 0.6 3 1.8 0.1 3.7 0.5 5.8 1"></polygon>
                    <polygon id="Shape_64_" fill="#25E899" points="5.9 1 5.9 4.7 6.4 4.6 6.4 1.1"></polygon>
                    <path d="M5.9,0.9 C5.9,0.9 5.9,0.9 5.9,0.9 C5.9,0.9 5.9,0.9 5.9,0.9 C5.8,1 5.8,1 5.9,0.9 L5.8,4.6 C5.8,4.6 5.8,4.7 5.8,4.7 C5.8,4.7 5.8,4.7 5.8,4.7 C5.8,4.7 5.8,4.7 5.8,4.7 C5.8,4.7 5.9,4.7 5.9,4.7 L6.3,4.6 C6.4,4.6 6.4,4.6 6.4,4.5 L6.4,1 C6.4,1 6.4,0.9 6.3,0.9 L5.9,0.9 C5.9,0.9 5.9,0.9 5.9,0.9 Z M6.3,1.2 L6.3,4.5 L6.1,4.5 L6.1,1.1 L6.3,1.2 Z" id="Shape_61_" fill="#0E2947"></path>
                </g>
                <path d="M19.8,32.8 C19.8,32.8 23.6,33.6 26,33.4 C28.4,33.3 30.8,32.6 32.5,32.2 C32.5,32.2 35.5,31.4 36.2,31.4 C37,31.4 39.5,30.8 39.3,34.2 C39.3,34.2 39.6,35.5 36.6,36.8 C33.6,38.1 32.3,39.4 29.2,39.8 L28.2,36.4 C28.2,36.4 28.6,36.7 25.6,37.1 L23.1,36.7 L22.3,36.6 L21.7,39.9 C21.7,39.9 13.8,38.6 11.9,35.7 C10.1,32.8 12.5,31.6 14.4,31.8 C16.4,32 19.2,32.6 19.8,32.8 Z" id="Path" fill="#0E2947" fill-rule="nonzero"></path>
                <g transform="translate(17.000000, 0.000000)" fill-rule="nonzero">
                    <path d="M0.8,8.1 C0.6,8.5 0.6,9 0.6,9.5 C0.6,10.2 0.6,10.9 0.9,11.4 C1.1,11.8 1.5,12.1 1.9,12.3 C2.4,12.6 2.8,12.9 3.3,13.1 C3.8,13.3 4.4,13.3 5,13.3 C6.3,13.3 7.7,13.3 9,13.4 C10.5,13.4 12.1,13.4 13.6,13.3 C13.9,13.3 14.3,13.2 14.6,13.1 C14.9,12.9 15.2,12.6 15.1,12.3 C15.7,12.6 16.4,12.3 16.8,11.7 C17.1,11.1 17.2,10.5 17.2,9.8 C17.2,9.2 17.2,8.6 16.9,8.2 C16.6,7.8 16.1,7.6 15.7,7.2 C15.4,6.9 15.2,6.5 15,6.2 C13.6,3.9 11,2.3 8.3,2.5 C6.9,2.6 5.4,3.1 4.3,4 C3.5,4.6 2.9,5.4 2.5,6.3 C2.3,6.6 2.2,7.3 1.9,7.5 C1.8,7.6 1.5,7.6 1.4,7.7 C1.1,7.7 0.9,7.9 0.8,8.1 Z" id="Path" fill="#D6D6EA"></path>
                    <polygon id="Shape_2_" fill="#25E899" points="2.8 13.3 13.7 13.3 14.6 13.7 13.9 16.1 3.4 16.1"></polygon>
                    <path d="M12.4,19.2 L4.9,19.2 C4.1,19.2 3.4,18.5 3.4,17.7 L3.4,16.1 L13.9,16.1 L13.9,17.7 C13.9,18.6 13.3,19.2 12.4,19.2" id="Shape_3_" fill="#D6D6EA"></path>
                    <path d="M12.4,19.6 L4.9,19.6 C3.9,19.6 3.1,18.8 3.1,17.8 L3.1,15.9 L14.3,15.9 L14.3,17.8 C14.3,18.7 13.4,19.6 12.4,19.6 Z M3.8,16.5 L3.8,17.8 C3.8,18.4 4.3,18.9 4.9,18.9 L12.4,18.9 C13,18.9 13.5,18.4 13.5,17.8 L13.5,16.5 L3.8,16.5 Z" id="Shape_4_" fill="#0E2947"></path>
                    <path d="M14.2,16.5 L3.2,16.5 L1.4,9.5 L1.4,9.5 C1.4,5.5 4.7,2.2 8.7,2.2 C12.7,2.2 16,5.5 16,9.5 L16,9.5 L16,9.5 L14.2,16.5 Z M3.7,15.8 L13.6,15.8 L15.2,9.3 C15.2,5.7 12.2,2.7 8.6,2.7 C5,2.7 2,5.6 2,9.3 L3.7,15.8 Z" id="Shape_8_" fill="#0E2947"></path>
                    <path d="M1.7,9.6 C1.5,9.6 1.4,9.4 1.4,9.3 L1.4,2.7 C1.4,2.5 1.6,2.4 1.7,2.4 C1.9,2.4 2,2.6 2,2.7 L2,9.3 C2.1,9.5 1.9,9.6 1.7,9.6" id="Shape_9_" fill="#0E2947"></path>
                    <path d="M15.6,9.6 C15.4,9.6 15.3,9.4 15.3,9.3 L15.3,0.8 C15.3,0.6 15.5,0.5 15.6,0.5 C15.8,0.5 15.9,0.7 15.9,0.8 L15.9,9.3 C16,9.5 15.8,9.6 15.6,9.6" id="Shape_10_" fill="#0E2947"></path>
                    <path d="M2.3,12.6 L1.6,12.6 C0.8,12.6 0.2,12 0.2,11.2 L0.2,8.5 C0.2,7.7 0.8,7.1 1.6,7.1 L1.9,7.1 C2.1,7.1 2.2,7.3 2.2,7.4 C2.2,7.6 2,7.7 1.9,7.7 L1.6,7.7 C1.2,7.7 0.9,8 0.9,8.4 L0.9,11.1 C0.9,11.5 1.2,11.8 1.6,11.8 L2.3,11.8 C2.5,11.8 2.6,12 2.6,12.1 C2.6,12.5 2.5,12.6 2.3,12.6" id="Shape_11_" fill="#0E2947"></path>
                    <path d="M15.8,12.6 L15.1,12.6 C14.9,12.6 14.8,12.4 14.8,12.3 C14.8,12.1 15,12 15.1,12 L15.8,12 C16.2,12 16.5,11.7 16.5,11.3 L16.5,8.6 C16.5,8.2 16.2,7.9 15.8,7.9 L15.5,7.9 C15.3,7.9 15.2,7.7 15.2,7.6 C15.2,7.4 15.4,7.3 15.5,7.3 L15.8,7.3 C16.6,7.3 17.2,7.9 17.2,8.7 L17.2,11.4 C17.2,12 16.6,12.6 15.8,12.6" id="Shape_12_" fill="#0E2947"></path>
                    <path d="M1.8,8.6 C1.7,8.6 1.6,8.6 1.6,8.5 C1.5,8.4 1.5,8.2 1.6,8 C3.5,6 6.1,4.9 8.8,4.9 C11.4,4.9 13.8,5.9 15.7,7.7 C15.8,7.8 15.8,8 15.7,8.2 C15.6,8.3 15.4,8.3 15.2,8.2 C13.4,6.5 11.1,5.6 8.7,5.6 C6.2,5.6 3.8,6.6 2,8.5 C2,8.5 1.9,8.6 1.8,8.6" id="Shape_13_" fill="#0E2947"></path>
                    <path d="M14.6,13.6 L2.8,13.6 C2.6,13.6 2.5,13.4 2.5,13.3 C2.5,13.1 2.7,13 2.8,13 L14.7,13 C14.9,13 15,13.2 15,13.3 C15,13.5 14.8,13.6 14.6,13.6" id="Shape_14_" fill="#0E2947"></path>
                </g>
                <path d="M26.7,10.5 C26.7,9.5 27.5,8.7 28.5,8.7 C29.5,8.7 30.3,9.5 30.3,10.5" id="Path" stroke="#0E2947" stroke-width="0.5" stroke-linecap="round" stroke-linejoin="round"></path>
                <path d="M21,10.5 C21,9.5 21.8,8.7 22.8,8.7 C23.8,8.7 24.6,9.5 24.6,10.5" id="Path" stroke="#0E2947" stroke-width="0.5" stroke-linecap="round" stroke-linejoin="round"></path>
                <path d="M23.9,14.7 L27.6,14.7" id="Path" stroke="#0E2947" stroke-width="0.5" stroke-linecap="round" stroke-linejoin="round"></path>
                <g transform="translate(30.000000, 24.000000)">
                    <polygon id="Path" fill="#0E2947" fill-rule="nonzero" points="3.1 0.2 0.8 0.9 3.8 3.7 5.3 2"></polygon>
                    <g transform="translate(3.000000, 1.000000)">
                        <path d="M12,4.7 L11.3,6.4 C11.2,6.7 10.8,6.9 10.5,6.8 L1.3,3.1 C0.6,2.8 0.2,2 0.5,1.2 L0.6,1 C0.9,0.3 1.7,-0.1 2.5,0.2 L11.7,3.9 C12,4.1 12.2,4.4 12,4.7 Z" id="Path" stroke="#0E2947" stroke-width="0.5" fill="#E6E7E8" fill-rule="nonzero"></path>
                        <path d="M0.6,1.1 L11.7,5.6" id="Path" stroke="#0E2947" stroke-width="0.25" stroke-linecap="round" stroke-linejoin="round"></path>
                        <g transform="translate(5.000000, 2.000000)" fill-rule="nonzero">
                            <path d="M1.3,1 C1.5,1.1 1.6,1.3 1.5,1.5 C1.4,1.7 1.2,1.8 1,1.7 C0.8,1.6 0.7,1.4 0.8,1.2 C0.9,1 1.1,0.9 1.3,1 Z" id="Shape_54_" fill="#FCCF0E"></path>
                            <path d="M0.6,1.1 C0.5,1.4 0.6,1.7 0.9,1.8 C1.2,1.9 1.5,1.8 1.7,1.5 C1.8,1.2 1.7,0.9 1.4,0.8 C1.1,0.7 0.7,0.9 0.6,1.1 Z M1.4,1.5 C1.3,1.6 1.2,1.7 1.1,1.6 C1,1.5 0.9,1.4 1,1.3 C1.1,1.2 1.2,1.1 1.3,1.2 C1.4,1.2 1.5,1.3 1.4,1.5 Z" id="Shape_17_" fill="#0E2947"></path>
                        </g>
                        <path d="M2.9,1.9 L3.4,0.6" id="Path" stroke="#0E2947" stroke-width="0.25" stroke-linecap="round" stroke-linejoin="round"></path>
                        <path d="M3.9,2.5 L3.4,3.8" id="Path" stroke="#0E2947" stroke-width="0.25" stroke-linecap="round" stroke-linejoin="round"></path>
                        <path d="M8.9,4.3 L9.4,3" id="Path" stroke="#0E2947" stroke-width="0.25" stroke-linecap="round" stroke-linejoin="round"></path>
                        <path d="M9.9,4.9 L9.4,6.2" id="Path" stroke="#0E2947" stroke-width="0.25" stroke-linecap="round" stroke-linejoin="round"></path>
                        <g transform="translate(10.000000, 4.000000)" fill-rule="nonzero">
                            <g fill="#0E2947">
                                <path d="M2.9,2.1 L0.5,1.1" id="Shape_60_"></path>
                                <path d="M3.1,2.2 C3.1,2.3 2.9,2.4 2.8,2.3 L0.4,1.3 C0.3,1.3 0.2,1.1 0.3,1 C0.3,0.9 0.5,0.8 0.6,0.9 L3,1.9 C3.1,1.9 3.2,2.1 3.1,2.2" id="Shape_59_"></path>
                            </g>
                            <circle id="Oval" stroke="#0E2947" stroke-width="0.25" fill="#25E899" cx="0.7" cy="1.2" r="1"></circle>
                        </g>
                        <path d="M3.9,5.6 L10.2,8.1" id="Path" stroke="#0E2947" stroke-width="0.25" stroke-linecap="round" stroke-linejoin="round"></path>
                    </g>
                    <path d="M19,9.2 L15.5,7 C15.2,6.8 15.1,6.4 15.3,6.1 L15.3,6.1 C15.5,5.8 15.9,5.7 16.2,5.9 L19.7,8.1 C20,8.3 20.1,8.7 19.9,9 L19.9,9 C19.7,9.3 19.3,9.4 19,9.2 Z" id="Path" stroke="#0E2947" stroke-width="0.75" fill="#EFF4EE" fill-rule="nonzero"></path>
                    <g transform="translate(15.000000, 4.000000)" fill-rule="nonzero">
                        <path d="M3,1.6 L1.5,3 C1.3,3.2 1,3.2 0.8,3 L0.5,2.7 C0.3,2.5 0.3,2.2 0.5,2 L2,0.6" id="Shape_20_" fill="#EFF4EE"></path>
                        <path d="M2.1,0.4 C2.2,0.5 2.2,0.6 2.1,0.7 L0.6,2 C0.5,2.1 0.5,2.3 0.6,2.4 L0.9,2.7 C1,2.8 1.2,2.8 1.3,2.7 L2.8,1.3 C2.9,1.2 3,1.2 3.1,1.3 C3.2,1.4 3.2,1.5 3.1,1.6 L1.6,3 C1.3,3.3 0.9,3.3 0.6,3 L0.3,2.7 C0,2.4 0,2 0.3,1.7 L1.8,0.3 C1.9,0.3 2.1,0.3 2.1,0.4" id="Shape_19_" fill="#0E2947"></path>
                        <path d="M2,0.5 C1.7,0.8 1.7,1.2 2,1.5 C2.3,1.8 2.7,1.8 3,1.5 C3.3,1.2 3.3,0.8 3,0.5 C2.8,0.2 2.3,0.2 2,0.5" id="Shape_18_" fill="#25E899"></path>
                        <path d="M3.2,0.4 C3.6,0.8 3.5,1.4 3.1,1.7 C2.7,2.1 2.1,2 1.8,1.6 C1.4,1.2 1.5,0.6 1.8,0.3 C2.2,0 2.8,0 3.2,0.4 M2.1,1.4 C2.3,1.6 2.6,1.6 2.8,1.4 C3,1.2 3,0.9 2.8,0.7 C2.6,0.5 2.3,0.5 2.1,0.7 C1.9,0.8 1.9,1.2 2.1,1.4" id="Shape_7_" fill="#0E2947"></path>
                    </g>
                    <g transform="translate(18.000000, 5.000000)" fill-rule="nonzero">
                        <path d="M2.4,1.6 L2.1,3.6 C2.1,3.9 1.8,4.1 1.5,4 L1,4 C0.7,4 0.5,3.7 0.6,3.4 L0.9,1.4" id="Shape_24_" fill="#EFF4EE"></path>
                        <path d="M1,1.2 C1.1,1.2 1.2,1.3 1.2,1.4 L0.9,3.4 C0.9,3.6 1,3.7 1.2,3.8 L1.6,3.9 C1.8,3.9 1.9,3.8 2,3.6 L2.3,1.6 C2.3,1.5 2.4,1.4 2.5,1.4 C2.6,1.4 2.7,1.5 2.7,1.6 L2.4,3.6 C2.3,4 2,4.3 1.6,4.2 L1,4.2 C0.6,4.1 0.3,3.8 0.4,3.4 L0.7,1.4 C0.8,1.3 0.9,1.2 1,1.2" id="Shape_23_" fill="#0E2947"></path>
                        <path d="M0.9,1.4 C0.8,1.8 1.1,2.2 1.5,2.2 C1.9,2.3 2.3,2 2.3,1.6 C2.4,1.2 2.1,0.8 1.7,0.8 C1.4,0.7 1,1 0.9,1.4" id="Shape_22_" fill="#25E899"></path>
                        <path d="M1.8,0.6 C2.3,0.7 2.7,1.2 2.6,1.7 C2.5,2.2 2,2.6 1.5,2.5 C1,2.4 0.6,1.9 0.7,1.4 C0.8,0.9 1.3,0.5 1.8,0.6 M1.6,2 C1.9,2 2.2,1.9 2.2,1.6 C2.2,1.3 2.1,1 1.8,1 C1.5,1 1.2,1.1 1.2,1.4 C1.1,1.7 1.3,2 1.6,2" id="Shape_21_" fill="#0E2947"></path>
                    </g>
                </g>
                <g transform="translate(0.000000, 24.000000)">
                    <polygon id="Path" fill="#0E2947" fill-rule="nonzero" points="18.4 0.7 20.7 1.6 17.5 4.1 16.1 2.3"></polygon>
                    <g transform="translate(4.000000, 1.000000)">
                        <path d="M2.1,4.2 L2.6,5.9 C2.7,6.2 3.1,6.4 3.4,6.3 L12.9,3.4 C13.7,3.2 14.1,2.4 13.9,1.6 L13.8,1.4 C13.6,0.6 12.8,0.2 12,0.4 L2.5,3.3 C2.2,3.5 2,3.9 2.1,4.2 Z" id="Path" stroke="#0E2947" stroke-width="0.5" fill="#E6E7E8" fill-rule="nonzero"></path>
                        <path d="M13.8,1.6 L2.3,5.1" id="Path" stroke="#0E2947" stroke-width="0.25" stroke-linecap="round" stroke-linejoin="round"></path>
                        <path d="M11.4,2.1 L11,0.8" id="Path" stroke="#0E2947" stroke-width="0.25" stroke-linecap="round" stroke-linejoin="round"></path>
                        <path d="M10.4,2.6 L10.8,4" id="Path" stroke="#0E2947" stroke-width="0.25" stroke-linecap="round" stroke-linejoin="round"></path>
                        <path d="M5.2,4 L4.8,2.7" id="Path" stroke="#0E2947" stroke-width="0.25" stroke-linecap="round" stroke-linejoin="round"></path>
                        <path d="M4.2,4.5 L4.6,5.8" id="Path" stroke="#0E2947" stroke-width="0.25" stroke-linecap="round" stroke-linejoin="round"></path>
                        <g transform="translate(0.000000, 4.000000)" fill-rule="nonzero">
                            <g fill="#0E2947">
                                <path d="M1.1,1.5 L3.6,0.7" id="Shape_35_"></path>
                                <path d="M0.9,1.5 C0.9,1.6 1,1.7 1.2,1.6 L3.7,0.8 C3.8,0.8 3.9,0.7 3.8,0.5 C3.8,0.4 3.7,0.3 3.5,0.4 L1,1.3 C0.9,1.3 0.8,1.4 0.9,1.5" id="Shape_34_"></path>
                            </g>
                            <circle id="Oval" stroke="#0E2947" stroke-width="0.25" fill="#25E899" cx="3.4" cy="0.7" r="1"></circle>
                        </g>
                        <path d="M10.2,5.7 L3.7,7.7" id="Path" stroke="#0E2947" stroke-width="0.25" stroke-linecap="round" stroke-linejoin="round"></path>
                        <g transform="translate(7.000000, 2.000000)" fill-rule="nonzero">
                            <path d="M1.2,0.9 C1.4,1 1.5,1.2 1.4,1.4 C1.3,1.6 1.1,1.7 0.9,1.6 C0.7,1.5 0.6,1.3 0.7,1.1 C0.7,0.9 1,0.8 1.2,0.9 Z" id="Shape_39_" fill="#FCCF0E"></path>
                            <path d="M0.5,1.1 C0.4,1.4 0.5,1.7 0.8,1.8 C1.1,1.9 1.4,1.8 1.6,1.5 C1.7,1.2 1.6,0.9 1.3,0.8 C0.9,0.6 0.6,0.8 0.5,1.1 Z M1.3,1.4 C1.2,1.5 1.1,1.6 1,1.5 C0.9,1.4 0.8,1.3 0.9,1.2 C1,1.1 1.1,1 1.2,1.1 C1.3,1.1 1.3,1.3 1.3,1.4 Z" id="Shape_38_" fill="#0E2947"></path>
                        </g>
                    </g>
                    <path d="M1.8,8.3 L5.5,6.4 C5.8,6.2 6,5.8 5.8,5.5 L5.8,5.5 C5.6,5.2 5.2,5 4.9,5.2 L1.2,7 C0.9,7.2 0.7,7.6 0.9,7.9 L0.9,7.9 C1.1,8.3 1.5,8.4 1.8,8.3 Z" id="Path" stroke="#0E2947" stroke-width="0.75" fill="#EFF4EE" fill-rule="nonzero"></path>
                    <g transform="translate(2.000000, 3.000000)" fill-rule="nonzero">
                        <path d="M1.2,1.8 L2.6,3.3 C2.8,3.5 3.1,3.5 3.3,3.3 L3.6,3 C3.8,2.8 3.8,2.5 3.6,2.3 L2.2,0.8" id="Shape_33_" fill="#EFF4EE"></path>
                        <path d="M2.1,0.6 C2,0.7 2,0.8 2.1,0.9 L3.5,2.4 C3.6,2.5 3.6,2.7 3.5,2.8 L3.2,3.1 C3.1,3.2 2.9,3.2 2.8,3.1 L1.4,1.6 C1.3,1.5 1.2,1.5 1.1,1.6 C1,1.7 1,1.8 1.1,1.9 L2.5,3.4 C2.8,3.7 3.2,3.7 3.5,3.4 L3.8,3.1 C4.1,2.8 4.1,2.4 3.8,2.1 L2.4,0.6 C2.3,0.6 2.2,0.6 2.1,0.6" id="Shape_32_" fill="#0E2947"></path>
                        <path d="M2.2,0.8 C2.5,1.1 2.4,1.6 2.2,1.8 C1.9,2.1 1.4,2 1.2,1.7 C0.9,1.4 1,0.9 1.3,0.7 C1.5,0.5 2,0.5 2.2,0.8" id="Shape_31_" fill="#25E899"></path>
                        <path d="M1.1,0.6 C1.5,0.3 2.1,0.3 2.4,0.7 C2.7,1.1 2.7,1.7 2.3,2 C1.9,2.3 1.3,2.3 1,1.9 C0.7,1.5 0.7,0.9 1.1,0.6 M2.1,1.7 C2.3,1.5 2.3,1.2 2.1,1 C1.9,0.8 1.6,0.8 1.4,1 C1.2,1.2 1.2,1.5 1.4,1.7 C1.5,1.8 1.8,1.9 2.1,1.7" id="Shape_30_" fill="#0E2947"></path>
                    </g>
                    <g transform="translate(0.000000, 4.000000)" fill-rule="nonzero">
                        <path d="M0.7,1.6 L0.9,3.6 C0.9,3.9 1.2,4.1 1.5,4.1 L1.9,4.1 C2.2,4.1 2.4,3.8 2.4,3.5 L2.2,1.5" id="Shape_29_" fill="#EFF4EE"></path>
                        <path d="M2.1,1.3 C2,1.3 1.9,1.4 1.9,1.5 L2.1,3.5 C2.1,3.7 2,3.8 1.8,3.8 L1.4,3.8 C1.2,3.8 1.1,3.7 1.1,3.5 L0.9,1.5 C0.9,1.4 0.8,1.3 0.7,1.3 C0.6,1.3 0.5,1.4 0.5,1.5 L0.7,3.5 C0.7,3.9 1.1,4.2 1.5,4.2 L1.9,4.2 C2.3,4.2 2.6,3.8 2.6,3.4 L2.4,1.4 C2.3,1.4 2.2,1.3 2.1,1.3" id="Shape_27_" fill="#0E2947"></path>
                        <path d="M2.1,1.5 C2.1,1.9 1.8,2.3 1.4,2.3 C1,2.3 0.6,2 0.6,1.6 C0.6,1.2 0.9,0.8 1.3,0.8 C1.7,0.8 2.1,1.1 2.1,1.5" id="Shape_26_" fill="#25E899"></path>
                        <path d="M1.3,0.6 C1.8,0.6 2.3,0.9 2.3,1.5 C2.3,2 2,2.5 1.4,2.5 C0.9,2.5 0.4,2.2 0.4,1.6 C0.4,1.1 0.8,0.7 1.3,0.6 M1.4,2.1 C1.7,2.1 1.9,1.8 1.9,1.5 C1.9,1.2 1.6,1 1.3,1 C1,1 0.8,1.3 0.8,1.6 C0.9,1.9 1.2,2.1 1.4,2.1" id="Shape_25_" fill="#0E2947"></path>
                    </g>
                </g>
                <g transform="translate(17.000000, 20.000000)" fill-rule="nonzero">
                    <path d="M15.6,8.3 L15.1,8.3 C14.8,8.3 14.6,8 14.6,7.7 L14.7,4.5 C14.7,4.2 15,4 15.3,4 L15.8,4 C16.1,4 16.3,4.3 16.3,4.6 L16.2,7.8 C16.1,8.1 15.9,8.3 15.6,8.3 Z" id="Path" stroke="#0E2947" stroke-width="0.25" fill="#D6D6EA"></path>
                    <path d="M1.5,8.5 L2,8.5 C2.3,8.5 2.6,8.3 2.6,7.9 L2.6,4.7 C2.6,4.4 2.4,4.1 2,4.1 L1.5,4.1 C1.2,4.1 0.9,4.3 0.9,4.7 L0.9,7.9 C1,8.2 1.2,8.5 1.5,8.5 Z" id="Path" stroke="#0E2947" stroke-width="0.25" fill="#D6D6EA"></path>
                    <g transform="translate(1.000000, 1.000000)">
                        <rect id="Rectangle-path" fill="#D6D6EA" transform="translate(7.700662, 4.300985) rotate(-0.328611) translate(-7.700662, -4.300985) " x="1.20055514" y="2.80096076" width="13.0002138" height="3.00004934"></rect>
                        <rect id="Rectangle-path_1_" fill="#D6D6EA" transform="translate(7.450637, 1.750719) rotate(-0.328611) translate(-7.450637, -1.750719) " x="3.00056356" y="0.800703664" width="8.90014638" height="1.90003125"></rect>
                        <path d="M1.1,6 L14.1,6" id="Shape_78_" fill="#25E899"></path>
                        <rect id="Rectangle-path_2_" fill="#0E2947" transform="translate(7.650812, 6.000572) rotate(-0.328611) translate(-7.650812, -6.000572) " x="1.10070452" y="5.70056727" width="13.1002155" height="1"></rect>
                        <polygon id="Shape_77_" fill="#0E2947" points="1.1 6 1.2 8 2.5 9.7 3.7 9.8 7.8 10.2 12.1 9.9 13.5 8.9 14.1 7 13.9 6"></polygon>
                        <path d="M11.1,10.3 L4.1,10.3 C2.3,10.3 0.8,8.8 0.8,7 L0.8,2.7 C0.8,2.5 0.9,2.4 1.1,2.4 L14.2,2.3 C14.4,2.3 14.5,2.4 14.5,2.6 L14.5,6.9 C14.4,8.8 13,10.3 11.1,10.3 Z M1.3,3.1 L1.3,7.1 C1.3,8.6 2.5,9.8 4.1,9.8 L11.1,9.8 C12.6,9.8 13.8,8.6 13.8,7 L13.8,3 L1.3,3.1 Z" id="Shape_76_" fill="#0E2947"></path>
                        <path d="M8.9,6.2 C8.9,5.5 8.3,4.9 7.5,4.9 C6.8,4.9 6.2,5.5 6.2,6.3 C6.2,7 6.8,7.6 7.6,7.6 C8.3,7.5 8.9,6.9 8.9,6.2" id="Shape_75_" fill="#25E899"></path>
                        <path d="M7.5,7.8 C6.6,7.8 5.9,7.1 5.9,6.2 C5.9,5.3 6.6,4.6 7.5,4.6 C8.4,4.6 9.1,5.3 9.1,6.2 C9.2,7.1 8.4,7.8 7.5,7.8 M7.5,5.1 C6.9,5.1 6.4,5.6 6.4,6.2 C6.4,6.8 6.9,7.3 7.5,7.3 C8.1,7.3 8.6,6.8 8.6,6.2 C8.6,5.6 8.1,5.1 7.5,5.1" id="Shape_74_" fill="#0E2947"></path>
                        <path d="M2.5,9.4 C2.5,9 2.2,8.7 1.8,8.7 C1.4,8.7 1.1,9 1.1,9.4 C1.1,9.8 1.4,10.1 1.8,10.1 C2.2,10.1 2.5,9.8 2.5,9.4" id="Shape_73_" fill="#0E2947"></path>
                        <path d="M14.1,9.4 C14.1,9 13.8,8.7 13.4,8.7 C13,8.7 12.7,9 12.7,9.4 C12.7,9.8 13,10.1 13.4,10.1 C13.8,10 14.1,9.7 14.1,9.4" id="Shape_72_" fill="#0E2947"></path>
                        <path d="M13.3,8.9 C13.3,8.7 13.1,8.5 12.9,8.5 C12.7,8.5 12.5,8.7 12.5,8.9 C12.5,9.1 12.7,9.3 12.9,9.3 C13.1,9.3 13.3,9.1 13.3,8.9" id="Shape_71_" fill="#EFF4EE"></path>
                        <path d="M2.6,9 C2.6,8.8 2.4,8.6 2.2,8.6 C2,8.6 1.8,8.8 1.8,9 C1.8,9.2 2,9.4 2.2,9.4 C2.5,9.4 2.6,9.2 2.6,9" id="Shape_70_" fill="#EFF4EE"></path>
                        <path d="M12.3,3 L2.4,3.1 L2.4,0.4 L12.3,0.3 L12.3,3 Z M3,2.5 L11.7,2.4 L11.7,0.9 L3,1 L3,2.5 Z" id="Shape_69_" fill="#0E2947"></path>
                        <rect id="Rectangle-path_5_" fill="#9393B5" transform="translate(12.250949, 4.350689) rotate(-0.328611) translate(-12.250949, -4.350689) " x="10.6009217" y="3.00066711" width="3.30005428" height="2.70004441"></rect>
                        <rect id="Rectangle-path_6_" fill="#9393B5" transform="translate(10.550663, 1.650440) rotate(-0.328611) translate(-10.550663, -1.650440) " x="9.30064265" y="0.900427176" width="2.50004112" height="1.50002467"></rect>
                    </g>
                    <g transform="translate(4.000000, 0.000000)" fill="#25E899" id="Shape_28_">
                        <path d="M8,0.9 L0.7,0.9 C0.5,0.9 0.4,0.8 0.4,0.6 C0.4,0.4 0.5,0.3 0.7,0.3 L8,0.3 C8.2,0.3 8.3,0.4 8.3,0.6 C8.3,0.7 8.2,0.9 8,0.9"></path>
                    </g>
                </g>
            </g>
            <g id="Group" transform="translate(80.000000, 62.000000)" fill-rule="nonzero">
                <g id="Path">
                    <path d="M6.3,6.9 C6.4,6.8 6.5,6.6 6.6,6.5 C6.7,6.4 6.9,6.4 7,6.4 C6.9,6.5 6.9,6.7 6.8,6.8 C6.6,7 6.3,7.2 6.2,7.4 C6,7.7 5.8,8.1 5.7,8.5 C5.8,8 5.8,7.5 5.6,7.1 C5.4,6.7 5,6.3 4.5,6.4 C4.5,6.8 4.9,6.9 5.2,7.1 C5.5,7.4 5.8,7.8 5.8,8.2 C6,7.7 6.1,7.3 6.3,6.9 Z" fill="#009444"></path>
                    <g transform="translate(5.000000, 5.000000)">
                        <path d="M1,1.1 C1,1.1 1.1,1 1,1.1 C1.1,1 1,1 1,1 C1,1 0.9,1 0.9,1.1 C0.8,1.2 1,1.4 1.1,1.4 C1.2,1.4 1.3,1.3 1.3,1.2 C1.3,1.1 1.2,1 1.1,0.9 C1,0.8 0.9,0.8 0.7,0.9 C0.5,1 0.5,1.2 0.5,1.3 C0.5,1.4 0.7,1.6 0.9,1.6 C1.1,1.6 1.3,1.6 1.4,1.4 C1.5,1.3 1.5,1.2 1.4,1.1 C1.4,1 1.3,0.8 1.2,0.7 C1.1,0.6 0.9,0.5 0.8,0.6 C0.7,0.7 0.5,0.7 0.5,0.9" fill="#FFC0DD"></path>
                        <path d="M1,1.1 C1.1,1.1 1.1,1 1,1 C1,0.9 0.9,0.9 1,1.1 C0.8,1.1 0.9,1.2 1,1.3 C1.2,1.4 1.4,1.1 1.3,1 C1.2,0.8 1,0.7 0.8,0.9 C0.7,1 0.6,1.3 0.8,1.4 C0.9,1.5 1.1,1.6 1.3,1.5 C1.5,1.4 1.6,1.2 1.5,1 C1.5,0.8 1.3,0.6 1.1,0.6 C0.9,0.5 0.7,0.6 0.6,0.9 C0.6,0.7 0.9,0.5 1.1,0.6 C1.3,0.7 1.5,0.9 1.5,1.1 C1.6,1.3 1.5,1.6 1.3,1.7 C1.1,1.8 0.8,1.7 0.7,1.5 C0.5,1.3 0.5,1 0.7,0.9 C0.9,0.8 1.2,0.9 1.3,1.1 C1.4,1.3 1.2,1.7 1,1.5 C0.9,1.4 0.9,1.3 0.9,1.2 C0.9,1.2 1,1.1 1.1,1.2 C1.1,1 1,1.1 1,1.1 Z" fill="#EC106C"></path>
                    </g>
                    <g>
                        <path d="M5.1,4.7 C5.3,4.4 5.5,4 5.8,3.8 C6.1,3.6 6.5,3.4 6.9,3.6 C6.6,3.9 6.7,4.3 6.5,4.6 C6.1,5 5.3,5.5 5,6 C4.5,6.9 4.1,7.8 3.8,8.8 C4.1,7.6 4.1,6.3 3.6,5.2 C3.1,4.1 2,3.2 0.8,3.3 C0.8,4.2 1.8,4.6 2.5,5.2 C3.3,5.9 3.9,6.9 3.9,8 C4.2,6.9 4.5,5.8 5.1,4.7 Z" fill="#009444"></path>
                        <g transform="translate(3.000000, 0.000000)">
                            <path d="M1.2,2.7 C1.3,2.7 1.4,2.6 1.4,2.5 C1.4,2.4 1.3,2.3 1.2,2.4 C1.1,2.4 1,2.5 1,2.6 C0.9,2.9 1.1,3.2 1.4,3.3 C1.7,3.4 2,3 2,2.7 C2,2.4 1.8,2.1 1.6,1.9 C1.3,1.7 1,1.7 0.7,1.8 C0.3,2 0.1,2.5 0.3,2.9 C0.4,3.3 0.8,3.6 1.2,3.7 C1.7,3.8 2.2,3.7 2.5,3.2 C2.6,3 2.6,2.7 2.6,2.4 C2.5,2 2.4,1.7 2.1,1.4 C1.8,1.1 1.5,1 1.1,1.1 C0.7,1.2 0.4,1.5 0.4,1.8" fill="#FFC0DD"></path>
                            <path d="M1.2,2.7 C1.3,2.7 1.4,2.5 1.3,2.4 C1.2,2.3 1.1,2.3 1,2.4 C0.8,2.6 1,2.9 1.2,3 C1.4,3.1 1.7,3 1.8,2.8 C1.9,2.6 1.9,2.3 1.8,2.1 C1.6,1.7 1,1.5 0.6,1.7 C0.2,2 0.2,2.6 0.5,2.9 C0.8,3.3 1.4,3.4 1.8,3.3 C2.3,3.2 2.4,2.6 2.3,2.1 C2.2,1.6 1.9,1.1 1.4,1 C0.9,0.8 0.3,1.1 0.2,1.7 C0.2,1.1 0.9,0.8 1.4,0.9 C2,1 2.3,1.6 2.5,2.1 C2.6,2.4 2.6,2.7 2.5,2.9 C2.4,3.2 2.2,3.4 1.9,3.5 C1.3,3.7 0.7,3.5 0.3,3.1 C-0.1,2.7 -0.1,1.9 0.4,1.5 C0.9,1.1 1.7,1.4 1.9,2 C2,2.3 2,2.6 1.8,2.8 C1.6,3 1.3,3.2 1,3 C0.8,2.8 0.6,2.5 0.9,2.2 C1,2.1 1.2,2.1 1.3,2.2 C1.4,2.5 1.3,2.7 1.2,2.7 Z" fill="#EC106C"></path>
                        </g>
                    </g>
                </g>
                <path d="M1.5,7 C1.9,7 2.3,7.4 2.3,7.8 C2.3,7.3 2.6,6.8 3,6.7 C2.8,7.1 2.8,7.5 3,7.9 C3.2,7.3 3.9,6.9 4.6,7 C4.1,7.2 3.8,7.7 3.8,8.2 C4.1,8 4.5,7.9 4.9,7.9 C4.5,8 4.3,8.4 4.4,8.8 C4.4,9.1 1.8,8.7 1.5,8.6 C0.5,8.2 1.4,7.5 2.1,7.9 C1.9,7.6 1.7,7.3 1.5,7 Z" id="Path" fill="#006838"></path>
                <path d="M4.2,7 C4.6,7 5,7.4 5,7.8 C5,7.3 5.3,6.8 5.7,6.7 C5.5,7.1 5.5,7.5 5.7,7.9 C5.9,7.3 6.6,6.9 7.3,7 C6.8,7.2 6.5,7.7 6.5,8.2 C6.8,8 7.2,7.9 7.6,7.9 C7.2,8 7,8.4 7.1,8.8 C7.1,9.1 4.5,8.7 4.2,8.6 C3.2,8.2 4.1,7.5 4.8,7.9 C4.6,7.6 4.4,7.3 4.2,7 Z" id="Path" fill="#8DC63F"></path>
                <path d="M3,7.5 C3.4,7.5 3.7,7.8 3.7,8.2 C3.7,7.8 3.9,7.3 4.4,7.2 C4.2,7.5 4.2,7.9 4.4,8.3 C4.6,7.7 5.2,7.4 5.8,7.5 C5.4,7.7 5.1,8.1 5.1,8.6 C5.4,8.4 5.7,8.3 6.1,8.4 C5.8,8.5 5.6,8.9 5.6,9.2 C5.6,9.4 3.3,9.1 3,9 C2.1,8.7 3,8 3.5,8.4 C3.4,8.1 3.2,7.8 3,7.5 Z" id="Path" fill="#39B54A"></path>
            </g>
            <g id="Group" transform="translate(16.000000, 62.000000)" fill-rule="nonzero">
                <g transform="translate(1.000000, 0.000000)" id="Path">
                    <path d="M2,3.4 C1.8,3.1 1.7,2.8 1.4,2.6 C1.1,2.4 0.8,2.3 0.4,2.4 C0.7,2.7 0.5,3 0.8,3.3 C1.1,3.7 1.8,4.1 2.1,4.6 C2.5,5.4 2.9,6.2 3.1,7 C2.9,6 2.8,4.9 3.2,3.9 C3.6,2.9 4.6,2.2 5.7,2.3 C5.7,3.1 4.8,3.5 4.2,3.9 C3.5,4.5 3,5.4 3,6.3 C2.8,5.2 2.5,4.3 2,3.4 Z" fill="#009444"></path>
                    <g transform="translate(1.000000, 0.000000)">
                        <path d="M1.8,1.6 C1.7,1.6 1.6,1.5 1.7,1.4 C1.7,1.3 1.8,1.3 1.9,1.3 C2,1.3 2.1,1.4 2.1,1.5 C2.2,1.7 2,2.1 1.7,2.1 C1.4,2.1 1.2,1.9 1.2,1.6 C1.2,1.3 1.3,1.1 1.6,0.9 C1.8,0.7 2.1,0.7 2.4,0.8 C2.7,1 2.9,1.4 2.8,1.8 C2.7,2.2 2.4,2.4 2,2.5 C1.6,2.6 1.1,2.5 0.9,2.1 C0.8,1.9 0.8,1.6 0.8,1.4 C0.9,1.1 1,0.8 1.2,0.6 C1.4,0.4 1.8,0.3 2.1,0.3 C2.4,0.4 2.7,0.6 2.7,0.9" fill="#FFC0DD"></path>
                        <path d="M1.8,1.6 C1.7,1.6 1.6,1.4 1.7,1.3 C1.8,1.2 2,1.2 2,1.3 C2.2,1.5 2.1,1.8 1.9,2 C1.7,2.2 1.3,2 1.2,1.8 C1,1.6 1,1.3 1.1,1.1 C1.3,0.6 2,0.4 2.4,0.7 C2.8,1 2.9,1.7 2.5,2.1 C2.2,2.5 1.6,2.6 1.1,2.5 C0.9,2.4 0.6,2.2 0.6,2 C0.5,1.7 0.5,1.5 0.6,1.3 C0.7,0.8 1,0.4 1.5,0.3 C2,0.2 2.5,0.5 2.6,1 C2.5,0.5 2,0.3 1.6,0.4 C1.2,0.5 0.9,0.9 0.8,1.4 C0.7,1.8 0.8,2.3 1.2,2.4 C1.6,2.5 2.1,2.4 2.3,2.1 C2.6,1.8 2.6,1.3 2.3,1 C2,0.8 1.5,0.9 1.3,1.3 C1.2,1.5 1.2,1.7 1.3,1.9 C1.4,2.1 1.6,2.2 1.8,2.1 C2,2 2.1,1.7 1.9,1.6 C1.8,1.5 1.7,1.5 1.6,1.6 C1.6,1.5 1.7,1.6 1.8,1.6 Z" fill="#EC106C"></path>
                    </g>
                </g>
                <g transform="translate(1.000000, 3.000000)" id="Path">
                    <path d="M0.9,2.2 C0.8,2.1 0.8,2 0.7,1.9 C0.6,1.8 0.4,1.8 0.3,1.8 C0.4,1.9 0.4,2 0.4,2.1 C0.5,2.3 0.8,2.4 0.9,2.6 C1.1,2.9 1.2,3.2 1.3,3.6 C1.2,3.2 1.2,2.7 1.4,2.4 C1.6,2.1 2,1.7 2.4,1.8 C2.4,2.1 2,2.3 1.8,2.5 C1.5,2.7 1.3,3.1 1.3,3.5 C1.2,3 1.1,2.6 0.9,2.2 Z" fill="#009444"></path>
                    <g>
                        <path d="M1.2,1.5 C1.2,1.5 1.2,1.5 1.2,1.5 C1.2,1.4 1.2,1.4 1.2,1.4 C1.2,1.4 1.3,1.4 1.3,1.5 C1.3,1.6 1.3,1.7 1.1,1.7 C1,1.7 0.9,1.6 0.9,1.5 C0.9,1.4 1,1.3 1,1.2 C1.1,1.1 1.2,1.1 1.3,1.2 C1.4,1.3 1.5,1.4 1.5,1.6 C1.5,1.8 1.3,1.8 1.2,1.9 C1,1.9 0.8,1.9 0.8,1.7 C0.8,1.6 0.8,1.5 0.8,1.4 C0.8,1.3 0.9,1.2 1,1.1 C1.1,1 1.2,1 1.3,1 C1.4,1 1.5,1.1 1.5,1.3" fill="#FFC0DD"></path>
                        <path d="M1.2,1.5 C1.2,1.5 1.1,1.4 1.2,1.4 C1.2,1.4 1.3,1.4 1.2,1.5 C1.4,1.5 1.3,1.6 1.2,1.7 C1,1.8 0.8,1.5 0.9,1.3 C1,1.1 1.2,1 1.4,1.1 C1.6,1.2 1.6,1.5 1.4,1.7 C1.3,1.9 1,1.9 0.8,1.8 C0.6,1.7 0.5,1.5 0.6,1.3 C0.6,1.1 0.8,0.9 1,0.9 C1.2,0.8 1.4,1 1.4,1.2 C1.4,1 1.2,0.9 1,1 C0.8,1.1 0.7,1.2 0.7,1.4 C0.7,1.6 0.7,1.8 0.9,1.8 C1.1,1.9 1.2,1.8 1.4,1.7 C1.5,1.6 1.5,1.4 1.4,1.3 C1.3,1.2 1.1,1.3 1,1.4 C0.9,1.5 1.1,1.8 1.2,1.7 C1.3,1.6 1.4,1.5 1.2,1.5 C1.3,1.4 1.2,1.4 1.2,1.5 C1.2,1.5 1.2,1.5 1.2,1.5 Z" fill="#EC106C"></path>
                    </g>
                </g>
                <path d="M0.4,6.1 C0.8,6 1.3,6.2 1.4,6.6 C1.2,6.1 1.4,5.6 1.8,5.3 C1.7,5.7 1.8,6.1 2.1,6.4 C2.1,5.7 2.7,5.2 3.4,5.1 C3,5.5 2.9,6 3,6.5 C3.3,6.2 3.6,6 4,5.9 C3.7,6.1 3.6,6.6 3.8,6.9 C3.9,7.1 1.3,7.6 1,7.5 C-0.1,7.4 0.6,6.5 1.3,6.7 C1,6.6 0.7,6.3 0.4,6.1 Z" id="Path" fill="#006838"></path>
                <path d="M3,5.3 C3.4,5.2 3.9,5.4 4,5.8 C3.8,5.3 4,4.8 4.4,4.5 C4.3,4.9 4.4,5.3 4.7,5.6 C4.7,4.9 5.3,4.4 6,4.3 C5.6,4.7 5.5,5.2 5.6,5.7 C5.9,5.4 6.2,5.2 6.6,5.1 C6.3,5.3 6.2,5.8 6.4,6.1 C6.5,6.3 3.9,6.8 3.6,6.7 C2.5,6.6 3.2,5.7 3.9,5.9 C3.6,5.8 3.3,5.5 3,5.3 Z" id="Path" fill="#8DC63F"></path>
                <path d="M2,6.1 C2.4,6 2.8,6.2 2.9,6.6 C2.7,6.2 2.9,5.7 3.2,5.4 C3.1,5.8 3.2,6.1 3.5,6.4 C3.5,5.8 4,5.3 4.6,5.2 C4.3,5.5 4.1,6 4.2,6.5 C4.4,6.2 4.7,6.1 5.1,6 C4.8,6.2 4.7,6.6 4.9,6.9 C5,7.1 2.6,7.5 2.4,7.5 C1.4,7.4 2.1,6.6 2.7,6.8 C2.5,6.6 2.3,6.3 2,6.1 Z" id="Path" fill="#39B54A"></path>
            </g>
            <path d="M92.2,64.6 C92,64.9 91.8,65.3 91.7,65.6 C92,65.3 92.4,65.2 92.8,65.2 C92.5,65.4 92.2,65.6 92,65.9 C92.3,66 92.6,66.2 92.8,66.5 C92.6,66.4 92.3,66.4 92.1,66.3 C92.4,66.6 92.7,66.9 93,67.2 C92.5,67 91.9,67.2 91.5,66.9 C91.4,66.8 91.3,66.7 91.2,66.5 C91,66.1 90.8,65.9 91.2,65.5 C91.3,65.3 91.5,65.2 91.7,65 C91.8,64.9 92.1,64.8 92.2,64.6 Z" id="Path" fill="#39B54A" fill-rule="nonzero"></path>
            <path d="M89.8,62.3 C89.7,62.6 89.7,62.8 89.6,63.1 C89.8,63 90,62.9 90.2,63 C90,63.1 89.9,63.3 89.8,63.4 C90,63.4 90.2,63.4 90.3,63.4 C90.1,63.5 89.8,63.6 89.6,63.7 C89.5,63.7 89.4,63 89.4,62.9 C89.5,62.7 89.6,62.4 89.8,62.3 Z" id="Path" fill="#39B54A" fill-rule="nonzero"></path>
            <g id="Group" opacity="0.5" transform="translate(10.000000, 37.000000)" fill-rule="nonzero">
                <circle id="Oval" fill="url(#linearGradient-3)" cx="57" cy="9.2" r="1"></circle>
                <circle id="Oval" fill="url(#linearGradient-4)" cx="55" cy="16.7" r="1"></circle>
                <circle id="Oval" fill="url(#linearGradient-5)" cx="64.4" cy="11.7" r="1"></circle>
                <circle id="Oval" fill="url(#linearGradient-6)" cx="69.5" cy="5.6" r="1"></circle>
                <circle id="Oval" fill="url(#linearGradient-7)" cx="23.1" cy="15.5" r="1"></circle>
                <circle id="Oval" fill="url(#linearGradient-8)" cx="3.1" cy="12.4" r="1.1"></circle>
                <circle id="Oval" fill="url(#linearGradient-9)" cx="17.1" cy="28.4" r="1.1"></circle>
                <circle id="Oval" fill="url(#linearGradient-10)" cx="58.7" cy="27.6" r="1.1"></circle>
                <circle id="Oval" fill="url(#linearGradient-11)" cx="22.8" cy="3.1" r="1"></circle>
                <circle id="Oval" fill="url(#linearGradient-12)" cx="71.7" cy="15.2" r="1"></circle>
                <circle id="Oval" fill="url(#linearGradient-13)" cx="74.6" cy="9.2" r="1"></circle>
                <circle id="Oval" fill="url(#linearGradient-14)" cx="77.7" cy="19.5" r="1"></circle>
                <circle id="Oval" fill="url(#linearGradient-15)" cx="65" cy="24.8" r="1"></circle>
                <circle id="Oval" fill="url(#linearGradient-16)" cx="24.5" cy="9.5" r="1"></circle>
                <circle id="Oval" fill="url(#linearGradient-17)" cx="10.2" cy="15.4" r="1"></circle>
                <circle id="Oval" fill="url(#linearGradient-18)" cx="24.1" cy="27.8" r="1"></circle>
                <circle id="Oval" fill="url(#linearGradient-19)" cx="18.9" cy="26.1" r="1"></circle>
                <circle id="Oval" fill="url(#linearGradient-20)" cx="1.1" cy="19.5" r="1"></circle>
                <circle id="Oval" fill="url(#linearGradient-21)" cx="64.7" cy="1" r="1"></circle>
                <circle id="Oval" fill="url(#linearGradient-22)" cx="12.7" cy="1.9" r="1"></circle>
                <circle id="Oval" fill="url(#linearGradient-23)" cx="43.4" cy="1" r="1"></circle>
                <circle id="Oval" fill="url(#linearGradient-24)" cx="10.7" cy="7.3" r="1"></circle>
            </g>
            <g id="Group" opacity="0.39" transform="translate(17.000000, 75.000000)" fill="#8B5E3C" fill-rule="nonzero">
                <ellipse id="Oval" cx="2.1" cy="2.5" rx="1.2" ry="1"></ellipse>
                <ellipse id="Oval" cx="19.5" cy="6.1" rx="1.2" ry="1"></ellipse>
                <ellipse id="Oval" cx="37.2" cy="7" rx="1.2" ry="1"></ellipse>
                <path d="M22.9,3.7 C22.9,3.8 22.7,3.9 22.6,3.9 C22.5,3.9 22.3,3.8 22.3,3.7 C22.3,3.6 22.5,3.5 22.6,3.5 C22.7,3.5 22.9,3.6 22.9,3.7 Z" id="Path"></path>
                <circle id="Oval" cx="23.5" cy="6" r="1"></circle>
                <path d="M28,6.8 C28,6.9 27.8,7 27.6,7 C27.4,7 27.2,6.9 27.2,6.8 C27.2,6.7 27.4,6.6 27.6,6.6 C27.8,6.6 28,6.7 28,6.8 Z" id="Path"></path>
                <ellipse id="Oval" cx="32.5" cy="5" rx="1.1" ry="1"></ellipse>
                <ellipse id="Oval" cx="10.4" cy="4.1" rx="1" ry="1"></ellipse>
                <path d="M6.8,4.9 C6.8,4.9 6.5,5 6.2,5 C5.9,5 5.6,5 5.6,4.9 C5.6,4.9 5.9,4.8 6.2,4.8 C6.5,4.8 6.8,4.9 6.8,4.9 Z" id="Path"></path>
                <ellipse id="Oval" cx="6.7" cy="3.4" rx="1" ry="1"></ellipse>
                <ellipse id="Oval" cx="5.8" cy="2.3" rx="1" ry="1"></ellipse>
                <path d="M49.7,6.8 C49.7,6.8 49.5,6.8 49.2,6.8 C48.9,6.8 48.7,6.8 48.7,6.8 C48.7,6.8 48.9,6.8 49.2,6.8 C49.5,6.8 49.7,6.8 49.7,6.8 Z" id="Path"></path>
                <ellipse id="Oval" cx="46.3" cy="7.7" rx="1" ry="1"></ellipse>
                <ellipse id="Oval" cx="43.9" cy="5.8" rx="1" ry="1"></ellipse>
                <ellipse id="Oval" cx="51.9" cy="4.5" rx="1" ry="1"></ellipse>
                <path d="M55,3.2 C55,3.2 54.8,3.2 54.5,3.2 C54.2,3.2 54,3.2 54,3.2 C54,3.2 54.2,3.2 54.5,3.2 C54.8,3.2 55,3.2 55,3.2 Z" id="Path"></path>
                <ellipse id="Oval" cx="42" cy="4.3" rx="1" ry="1"></ellipse>
                <path d="M31.2,9 C31.2,9 31,9 30.8,9 C30.6,9 30.4,9 30.4,9 C30.4,9 30.6,9 30.8,9 C31,9 31.2,9 31.2,9 Z" id="Path"></path>
                <ellipse id="Oval" cx="12.8" cy="6" rx="1" ry="1"></ellipse>
                <ellipse id="Oval" cx="15.6" cy="4" rx="1" ry="1"></ellipse>
                <ellipse id="Oval" cx="67.9" cy="2.1" rx="1.1" ry="1"></ellipse>
                <circle id="Oval" cx="70.9" cy="0.6" r="1"></circle>
                <path d="M60.3,4.1 C60.3,4.3 60.1,4.4 60,4.4 C59.9,4.4 59.7,4.2 59.7,4.1 C59.7,3.9 59.9,3.8 60,3.8 C60.1,3.8 60.3,3.9 60.3,4.1 Z" id="Path"></path>
                <ellipse id="Oval" cx="57.1" cy="3.4" rx="1" ry="1"></ellipse>
            </g>
            <g id="Group" transform="translate(10.000000, 75.000000)" fill="#8B5E3C" fill-rule="nonzero" opacity="0.39">
                <g transform="translate(66.000000, 0.000000)" id="Path">
                    <path d="M11.5,1.2 C11.1,0.9 10.6,0.9 10.1,1 C9.6,1.1 9.3,1.3 8.9,1.7 C8.6,2 8.2,2.4 7.9,2.7 C7.5,3.1 7.1,3.4 6.7,3.7 C5,4.9 2.8,5.5 0.7,5.1 C2.7,4.7 4.5,4 6.1,2.8 C6.9,2.3 7.5,1.5 8.4,0.9 C8.9,0.6 9.4,0.4 10,0.4 C10.7,0.5 11.3,0.8 11.5,1.2 Z"></path>
                </g>
                <g transform="translate(57.000000, 1.000000)" id="Path">
                    <path d="M15.3,0.8 C14.6,0.6 13.9,0.7 13.3,0.9 C12.7,1.1 12.1,1.5 11.6,1.9 C11.1,2.3 10.6,2.8 10.1,3.3 C9.6,3.8 9,4.2 8.4,4.6 C7.2,5.3 5.8,5.9 4.5,6.2 C3.1,6.5 1.7,6.6 0.3,6.4 C3.1,6 5.6,5.2 7.9,3.8 C9.1,3.1 10,2.2 11.2,1.4 C11.8,1 12.5,0.7 13.2,0.6 C14,0.4 14.8,0.4 15.3,0.8 Z"></path>
                </g>
                <g transform="translate(44.000000, 2.000000)" id="Path">
                    <path d="M21,0.4 C19.1,0.1 17.3,0.8 15.8,1.8 C14.2,2.8 12.8,4 11.2,5 C7.8,7 3.7,7.6 0.1,6.5 C3.9,6.7 7.6,5.9 10.7,4.1 C12.3,3.2 13.7,2 15.5,1.1 C17,0.2 19.1,-0.3 21,0.4 Z"></path>
                </g>
                <g transform="translate(34.000000, 3.000000)" id="Path">
                    <path d="M21.4,0.4 C17.7,0.8 14.5,2.4 11.2,3.8 C9.5,4.5 7.8,5.2 6,5.5 C4.2,5.9 2.3,6 0.5,5.5 C2.3,5.6 4.1,5.3 5.8,4.8 C7.5,4.3 9.2,3.6 10.8,2.9 C12.5,2.2 14.2,1.5 15.9,1 C17.7,0.5 19.6,0.2 21.4,0.4 Z"></path>
                </g>
                <g transform="translate(22.000000, 4.000000)" id="Path">
                    <path d="M21.9,0.4 C20.1,0.6 18.3,1.1 16.6,1.7 C14.9,2.3 13.2,3 11.5,3.7 C9.7,4.3 7.9,4.8 6,4.9 C4.1,5 2.2,4.7 0.6,3.7 C2.4,4.3 4.2,4.3 5.9,4.1 C7.7,3.8 9.4,3.3 11.1,2.7 C12.8,2.1 14.5,1.4 16.3,0.9 C18.2,0.4 20.1,0.1 21.9,0.4 Z"></path>
                </g>
                <g transform="translate(14.000000, 3.000000)" id="Path">
                    <path d="M21.3,1 C19.5,0.7 17.8,0.9 16.1,1.3 C14.4,1.7 12.8,2.4 11.1,3 C9.4,3.6 7.7,4.2 5.9,4.5 C4.1,4.8 2.2,4.7 0.6,4 C2.4,4.4 4.1,4.1 5.8,3.7 C7.5,3.3 9.1,2.6 10.8,2 C12.5,1.4 14.2,0.8 16,0.5 C17.8,0.2 19.7,0.2 21.3,1 Z"></path>
                </g>
                <g transform="translate(10.000000, 2.000000)" id="Path">
                    <path d="M15.6,0.6 C14.2,0.8 13,1.2 11.8,1.7 C10.6,2.2 9.4,2.8 8.1,3.3 C6.8,3.8 5.4,4.2 4,4.2 C2.6,4.3 1.1,3.9 0.1,2.9 C1.3,3.5 2.7,3.5 4,3.4 C5.3,3.2 6.5,2.8 7.8,2.3 C9,1.8 10.3,1.3 11.6,0.9 C12.9,0.5 14.3,0.3 15.6,0.6 Z"></path>
                </g>
                <g transform="translate(2.000000, 1.000000)" id="Path">
                    <path d="M15.7,2.1 C14.5,1.5 13.2,1.3 12,1.4 C10.7,1.5 9.5,1.7 8.2,2 C6.9,2.3 5.6,2.5 4.2,2.5 C2.8,2.5 1.4,2.2 0.4,1.3 C1.7,1.8 2.9,1.8 4.2,1.7 C5.5,1.6 6.7,1.3 8,1 C9.3,0.7 10.7,0.5 12,0.6 C13.3,0.7 14.8,1.2 15.7,2.1 Z"></path>
                </g>
                <g id="Path">
                    <path d="M6,1.3 C5.1,1.6 4.2,1.5 3.3,1.4 C2.4,1.3 1.6,1 0.8,0.5 C1.7,0.2 2.6,0.3 3.5,0.4 C4.3,0.6 5.2,0.8 6,1.3 Z"></path>
                </g>
            </g>
            <path d="M12.9,60.1 C15,58.5 17.7,57.5 20.4,57.3 C21.6,57.2 22,58.8 21,59.3 L17.8,60.9 C17.3,61.1 16.8,61.6 17,62 C17.1,62.3 17.4,62.4 17.6,62.6 C17.9,63 17.6,63.5 17.3,63.8 C16.9,64.1 16.5,64.2 16,64.4 C14.9,64.9 14.2,66.1 13.6,67.2 C13,68.3 12.6,69.5 11.8,70.4 C11,71.3 9.6,71.9 8.5,71.4 C8.5,71.4 8.6,71.1 8.5,71.4 C6.3,70.7 7.9,67.3 8.4,66 C9.4,63.6 10.9,61.6 12.9,60.1 Z" id="Path" fill="#329E3B" fill-rule="nonzero" opacity="0.42"></path>
            <path d="M14.7,60.8 C15,60.8 15.1,60.6 15.4,60.4 C15.9,60.1 16.5,60.1 17,59.9 C17.3,59.8 17.5,59.6 17.7,59.4 C17.9,59.2 18.2,59 18.4,58.8 C18.5,58.7 18.5,58.7 18.6,58.6 C18.7,58.5 18.5,58.3 18.4,58.2 C18.3,58.1 18.1,58.2 17.9,58.2 C17,58.4 16.1,59 15.2,59.1 C14.8,59.2 14.5,59.3 14.3,59.7 C14.1,60.1 14.2,60.8 14.7,60.8 Z" id="Path" fill="#8DC63F" fill-rule="nonzero"></path>
        </g>
    </g>
</svg>