<?xml version="1.0" encoding="UTF-8"?>
<svg width="81px" height="83px" viewBox="0 0 81 83" version="1.1" xmlns="http://www.w3.org/2000/svg" xmlns:xlink="http://www.w3.org/1999/xlink">
    <!-- Generator: Sketch 55.2 (78181) - https://sketchapp.com -->
    <title>c3po_bot 2</title>
    <desc>Created with Sketch.</desc>
    <g id="Page-1" stroke="none" stroke-width="1" fill="none" fill-rule="evenodd">
        <g id="c3po_bot-2" fill-rule="nonzero">
            <g id="c3po_bot">
                <path d="M60.4091,24.1118 L3.7656,24.1118 C2.6584,24.1118 1.7524,23.2059 1.7524,22.0986 C1.7524,20.9914 2.6583,20.0854 3.7656,20.0854 L60.4091,20.0854 C61.5163,20.0854 62.4223,20.9913 62.4223,22.0986 C62.4223,23.2059 61.5164,24.1118 60.4091,24.1118 Z" id="Shape" fill="#0098FF" opacity="0.49"></path>
                <path d="M78.3447,31.7985 L21.7012,31.7985 C20.594,31.7985 19.688,30.8926 19.688,29.7853 C19.688,28.6781 20.5939,27.7721 21.7012,27.7721 L78.3447,27.7721 C79.4519,27.7721 80.3579,28.678 80.3579,29.7853 C80.3579,30.8925 79.452,31.7985 78.3447,31.7985 Z" id="Shape" fill="#0098FF" opacity="0.49"></path>
                <path d="M69.2854,37.655 L12.6419,37.655 C11.5347,37.655 10.6287,36.7491 10.6287,35.6418 C10.6287,34.5346 11.5346,33.6286 12.6419,33.6286 L69.2854,33.6286 C70.3926,33.6286 71.2986,34.5345 71.2986,35.6418 C71.2986,36.7491 70.3927,37.655 69.2854,37.655 Z" id="Shape" fill="#0098FF" opacity="0.49"></path>
                <path d="M58.8535,44.8841 L2.21,44.8841 C1.1028,44.8841 0.1968,43.9782 0.1968,42.8709 C0.1968,41.7637 1.1027,40.8577 2.21,40.8577 L58.8535,40.8577 C59.9607,40.8577 60.8667,41.7636 60.8667,42.8709 C60.8667,43.9782 59.9607,44.8841 58.8535,44.8841 Z" id="Shape" fill="#0098FF" opacity="0.49"></path>
                <path d="M75.7271,51.3812 L19.0836,51.3812 C17.9764,51.3812 17.0704,50.4753 17.0704,49.368 C17.0704,48.2608 17.9763,47.3548 19.0836,47.3548 L75.7271,47.3548 C76.8343,47.3548 77.7403,48.2607 77.7403,49.368 C77.7403,50.4753 76.8343,51.3812 75.7271,51.3812 Z" id="Shape" fill="#0098FF" opacity="0.49"></path>
                <path d="M62.2393,58.5188 L5.5958,58.5188 C4.4886,58.5188 3.5826,57.6129 3.5826,56.5056 C3.5826,55.3984 4.4885,54.4924 5.5958,54.4924 L62.2393,54.4924 C63.3465,54.4924 64.2525,55.3983 64.2525,56.5056 C64.2525,57.6129 63.3465,58.5188 62.2393,58.5188 Z" id="Shape" fill="#0098FF" opacity="0.49"></path>
                <path d="M73.4948,65.6564 L16.8513,65.6564 C15.7441,65.6564 14.8381,64.7505 14.8381,63.6432 C14.8381,62.536 15.744,61.63 16.8513,61.63 L73.4948,61.63 C74.602,61.63 75.508,62.5359 75.508,63.6432 C75.508,64.7505 74.602,65.6564 73.4948,65.6564 Z" id="Shape" fill="#0098FF" opacity="0.49"></path>
                <g id="Group" transform="translate(15.000000, 0.000000)">
                    <g id="Shape" transform="translate(39.000000, 48.000000)">
                        <g id="Group" transform="translate(3.000000, 2.000000)">
                            <polygon id="Path" fill="#FFCE08" points="1.2297 3.706 0.5854 3.5604 1.1923 0.8726 1.8366 1.0181"></polygon>
                            <path d="M1.2297,3.9525 C1.2115,3.9525 1.1934,3.9505 1.1753,3.9464 L0.531,3.8008 C0.3982,3.7708 0.3149,3.6388 0.3449,3.506 L0.9518,0.8182 C0.9662,0.7544 1.0053,0.6989 1.0607,0.664 C1.1158,0.6291 1.1827,0.6175 1.2466,0.6319 L1.8909,0.7774 C2.0238,0.8073 2.1071,0.9394 2.0771,1.0722 L1.4702,3.7601 C1.4558,3.824 1.4167,3.8794 1.3613,3.9143 C1.3216,3.9395 1.2759,3.9525 1.2297,3.9525 Z M0.8802,3.3741 L1.0434,3.4111 L1.5417,1.2043 L1.3785,1.1674 L0.8802,3.3741 Z" id="Shape" fill="#15003E"></path>
                        </g>
                        <path d="M4.4131,5.0578 C4.4011,5.0578 4.3891,5.0565 4.3769,5.0537 L3.7326,4.9084 C3.6902,4.8989 3.6532,4.8728 3.63,4.836 C3.6067,4.7992 3.599,4.7547 3.6086,4.7123 L3.7948,3.8876 C3.8044,3.8451 3.8304,3.8082 3.8672,3.7849 C3.904,3.7616 3.9484,3.754 3.9909,3.7636 L4.6352,3.9091 C4.6777,3.9187 4.7146,3.9447 4.7379,3.9815 C4.7611,4.0183 4.7688,4.0628 4.7592,4.1052 L4.573,4.9297 C4.5558,5.0061 4.4881,5.0578 4.4131,5.0578 Z M3.9649,4.6244 L4.289,4.6975 L4.4029,4.1931 L4.0788,4.12 L3.9649,4.6244 Z" fill="#15003E"></path>
                        <g id="Group" transform="translate(1.000000, 2.000000)">
                            <polygon id="Path" fill="#FFCE08" points="1.8118 3.5007 1.1905 3.2762 2.1271 0.6846 2.7484 0.9091"></polygon>
                            <path d="M1.8117,3.7474 C1.7838,3.7474 1.7556,3.7426 1.7279,3.7327 L1.1067,3.5082 C1.0452,3.486 0.995,3.4403 0.9672,3.381 C0.9394,3.3218 0.9363,3.254 0.9585,3.1924 L1.8951,0.6008 C1.9173,0.5393 1.9632,0.489 2.0223,0.4613 C2.0817,0.4337 2.1494,0.4304 2.2109,0.4526 L2.8321,0.6772 C2.9601,0.7236 3.0264,0.8649 2.9802,0.993 L2.0436,3.5846 C2.0073,3.6849 1.9127,3.7474 1.8117,3.7474 Z M1.5062,3.1282 L1.6637,3.185 L2.4327,1.0572 L2.2752,1.0003 L1.5062,3.1282 Z" id="Shape" fill="#15003E"></path>
                        </g>
                        <path d="M3.094,4.8888 C3.0752,4.8888 3.0563,4.8856 3.0382,4.879 L2.4172,4.6544 C2.3319,4.6236 2.2878,4.5296 2.3187,4.4444 L2.606,3.6495 C2.6368,3.5643 2.7306,3.5196 2.816,3.551 L3.4371,3.7755 C3.478,3.7902 3.5115,3.8207 3.5299,3.8601 C3.5484,3.8995 3.5504,3.9446 3.5356,3.9855 L3.2482,4.7805 C3.2335,4.8214 3.203,4.8549 3.1636,4.8733 C3.1416,4.8836 3.1178,4.8888 3.094,4.8888 Z M2.683,4.4017 L2.9955,4.5146 L3.1713,4.0283 L2.8588,3.9154 L2.683,4.4017 Z" fill="#15003E"></path>
                        <g id="Group" transform="translate(0.000000, 1.000000)">
                            <polygon id="Path" fill="#FFCE08" points="1.486 3.6636 0.9204 3.3219 2.3454 0.9634 2.9108 1.3051"></polygon>
                            <path d="M1.486,3.9102 C1.4414,3.9102 1.3972,3.8981 1.3584,3.8746 L0.7928,3.5328 C0.6762,3.4624 0.6388,3.3108 0.7094,3.1942 L2.1344,0.8357 C2.1682,0.7797 2.2229,0.7395 2.2863,0.7238 C2.3501,0.7081 2.4171,0.7182 2.4729,0.7522 L3.0384,1.094 C3.155,1.1644 3.1923,1.316 3.1219,1.4325 L1.697,3.791 C1.6631,3.847 1.6084,3.8873 1.545,3.903 C1.5255,3.9079 1.5058,3.9102 1.486,3.9102 Z M1.259,3.2383 L1.4025,3.3251 L2.5724,1.3887 L2.429,1.302 L1.259,3.2383 Z" id="Shape" fill="#15003E"></path>
                        </g>
                        <path d="M1.9187,4.1138 C1.8898,4.1138 1.8605,4.1062 1.834,4.0902 L1.2686,3.7485 C1.2313,3.726 1.2045,3.6895 1.1941,3.6473 C1.1836,3.605 1.1905,3.5603 1.2129,3.5232 L1.6502,2.7996 C1.6727,2.7623 1.7092,2.7355 1.7514,2.7251 C1.7939,2.7147 1.8384,2.7215 1.8755,2.7439 L2.441,3.0857 C2.4783,3.1082 2.5051,3.1447 2.5155,3.1869 C2.526,3.2292 2.5191,3.2739 2.4966,3.3112 L2.0592,4.0347 C2.0284,4.0856 1.9741,4.1138 1.9187,4.1138 Z M1.5787,3.5524 L1.8632,3.7243 L2.1308,3.2817 L1.8462,3.1097 L1.5787,3.5524 Z" fill="#15003E"></path>
                        <g id="Group">
                            <g>
                                <polygon id="Path" fill="#FFCE08" points="0.5046 1.7369 0.8079 2.3238 2.202 1.5872 1.8987 1.0003"></polygon>
                                <path d="M0.8079,2.5704 C0.7831,2.5704 0.7582,2.5667 0.7341,2.5591 C0.6714,2.5394 0.619,2.4955 0.5888,2.4371 L0.2855,1.8501 C0.2234,1.7298 0.2698,1.582 0.3895,1.5188 L1.7836,0.7823 C1.8418,0.7517 1.9099,0.7455 1.9726,0.7651 C2.0353,0.7848 2.0877,0.8287 2.1178,0.8871 L2.4211,1.4739 C2.4833,1.5941 2.4369,1.742 2.3173,1.8052 L0.9232,2.5418 C0.8873,2.5608 0.8477,2.5704 0.8079,2.5704 Z M0.8359,1.8407 L0.9127,1.9895 L1.8707,1.4833 L1.7939,1.3346 L0.8359,1.8407 Z" id="Shape" fill="#15003E"></path>
                            </g>
                            <path d="M1.5476,2.1056 C1.4882,2.1056 1.4308,2.0732 1.4017,2.0168 L1.0985,1.43 C1.0569,1.3494 1.0885,1.2505 1.169,1.2088 C1.2491,1.1673 1.3485,1.1988 1.3902,1.2793 L1.6934,1.8662 C1.735,1.9468 1.7034,2.0457 1.6229,2.0873 C1.5988,2.0997 1.5731,2.1056 1.5476,2.1056 Z" id="Path" fill="#15003E"></path>
                        </g>
                        <g id="Group" transform="translate(4.000000, 2.000000)">
                            <g>
                                <polygon id="Path" fill="#FFCE08" points="1.6551 3.4352 0.997 3.3783 1.2346 0.6329 1.8927 0.6899"></polygon>
                                <path d="M1.6554,3.6818 C1.6482,3.6818 1.6411,3.6815 1.6338,3.6809 L0.9757,3.624 C0.9105,3.6183 0.8503,3.587 0.8082,3.5369 C0.7661,3.4869 0.7457,3.4222 0.7513,3.357 L0.9889,0.6116 C0.9946,0.5464 1.0259,0.4862 1.076,0.4441 C1.126,0.402 1.1906,0.382 1.2559,0.3872 L1.914,0.4443 C2.0497,0.4562 2.1501,0.5756 2.1385,0.7113 L1.9009,3.4565 C1.8896,3.5849 1.7819,3.6818 1.6554,3.6818 Z M1.2639,3.1538 L1.4306,3.1682 L1.6257,0.9143 L1.459,0.8999 L1.2639,3.1538 Z" id="Shape" fill="#15003E"></path>
                            </g>
                            <path d="M1.7263,2.7743 C1.7216,2.7743 1.7168,2.7741 1.7121,2.7737 L1.0541,2.7163 C0.9638,2.7084 0.8969,2.6289 0.9049,2.5386 L0.9783,1.6962 C0.982,1.6528 1.0029,1.6128 1.0362,1.5848 C1.0695,1.5569 1.1122,1.5435 1.1561,1.547 L1.8141,1.6045 C1.9044,1.6124 1.9712,1.6919 1.9632,1.7822 L1.8898,2.6245 C1.8861,2.6679 1.8652,2.7079 1.8319,2.7359 C1.8022,2.7608 1.7648,2.7743 1.7263,2.7743 Z M1.246,2.4036 L1.5771,2.4324 L1.6221,1.9171 L1.291,1.8881 L1.246,2.4036 Z" id="Shape" fill="#15003E"></path>
                        </g>
                    </g>
                    <g id="Shape" transform="translate(6.000000, 48.000000)">
                        <g id="Group" transform="translate(1.000000, 2.000000)">
                            <polygon id="Path" fill="#FFCE08" points="0.4317 1.0129 1.1284 0.8555 1.7353 3.5437 1.0385 3.7009"></polygon>
                            <path d="M1.0383,3.9477 C0.9256,3.9477 0.8239,3.8699 0.7979,3.7553 L0.1911,1.0672 C0.1612,0.9344 0.2445,0.8024 0.3774,0.7724 L1.0742,0.615 C1.1378,0.6007 1.2049,0.6121 1.2602,0.6469 C1.3154,0.6818 1.3546,0.7374 1.3691,0.8012 L1.9759,3.4895 C1.9902,3.5533 1.9787,3.6202 1.9437,3.6755 C1.9088,3.7307 1.8533,3.7699 1.7895,3.7844 L1.0927,3.9416 C1.0745,3.9457 1.0562,3.9477 1.0383,3.9477 Z M0.7266,1.1991 L1.2248,3.4062 L1.4405,3.3575 L0.9423,1.1504 L0.7266,1.1991 Z" id="Shape" fill="#15003E"></path>
                        </g>
                        <path d="M1.8551,5.0527 C1.78,5.0527 1.7124,5.001 1.6952,4.9247 L1.5091,4.1002 C1.4995,4.0578 1.5072,4.0132 1.5304,3.9765 C1.5537,3.9396 1.5905,3.9136 1.6331,3.9041 L2.3298,3.7468 C2.4188,3.727 2.506,3.7823 2.526,3.8707 L2.7122,4.6952 C2.7218,4.7376 2.7141,4.7822 2.6909,4.8189 C2.6676,4.8558 2.6307,4.8818 2.5882,4.8913 L1.8914,5.0486 C1.8791,5.0515 1.867,5.0527 1.8551,5.0527 Z M1.8653,4.1881 L1.9791,4.6924 L2.3557,4.6075 L2.2418,4.1032 L1.8653,4.1881 Z" fill="#15003E"></path>
                        <g id="Group" transform="translate(2.000000, 2.000000)">
                            <polygon id="Path" fill="#FFCE08" points="0.5276 0.913 1.1489 0.6885 2.0855 3.2801 1.4642 3.5046"></polygon>
                            <path d="M1.4642,3.7512 C1.4283,3.7512 1.3926,3.7434 1.3595,3.7279 C1.3003,3.7001 1.2545,3.6499 1.2323,3.5885 L0.2957,0.9969 C0.2494,0.8688 0.3158,0.7275 0.4438,0.6811 L1.0651,0.4565 C1.1267,0.4343 1.1945,0.4376 1.2537,0.4652 C1.3129,0.493 1.3587,0.5432 1.3809,0.6046 L2.3175,3.1962 C2.3638,3.3243 2.2974,3.4656 2.1694,3.512 L1.5482,3.7366 C1.521,3.7464 1.4925,3.7512 1.4642,3.7512 Z M0.8433,1.0611 L1.6123,3.1889 L1.7698,3.132 L1.0008,1.0042 L0.8433,1.0611 Z" id="Shape" fill="#15003E"></path>
                        </g>
                        <path d="M3.1765,4.8822 C3.1093,4.8822 3.0463,4.8406 3.0221,4.7739 L2.735,3.979 C2.7042,3.8937 2.7484,3.7997 2.8336,3.7688 L3.4545,3.5445 C3.5398,3.5137 3.6337,3.558 3.6645,3.6431 L3.9519,4.438 C3.9668,4.4789 3.9647,4.524 3.9462,4.5634 C3.9276,4.6028 3.8943,4.6333 3.8534,4.6481 L3.2323,4.8725 C3.2139,4.8791 3.195,4.8822 3.1765,4.8822 Z M3.0994,4.0219 L3.2751,4.5081 L3.5875,4.3952 L3.4118,3.909 L3.0994,4.0219 Z" fill="#15003E"></path>
                        <g id="Group" transform="translate(3.000000, 1.000000)">
                            <polygon id="Path" fill="#FFCE08" points="0.4445 1.3708 1.0231 1.0518 2.3529 3.4652 1.7741 3.784"></polygon>
                            <path d="M1.7744,4.0306 C1.6874,4.0306 1.6031,3.9845 1.5583,3.903 L0.2286,1.4898 C0.1629,1.3706 0.2063,1.2206 0.3255,1.1549 L0.9041,0.8359 C0.9615,0.8044 1.0289,0.7968 1.0917,0.815 C1.1545,0.8332 1.2075,0.8756 1.239,0.9328 L2.5688,3.3462 C2.6004,3.4035 2.6079,3.471 2.5897,3.5338 C2.5715,3.5966 2.5291,3.6496 2.4719,3.6812 L1.8932,4 C1.8554,4.0208 1.8146,4.0306 1.7744,4.0306 Z M0.7794,1.4677 L1.8712,3.4491 L2.018,3.3682 L0.9262,1.3868 L0.7794,1.4677 Z" id="Shape" fill="#15003E"></path>
                        </g>
                        <path d="M4.3723,4.219 C4.357,4.219 4.3416,4.2169 4.3267,4.2125 C4.2849,4.2004 4.2496,4.1722 4.2286,4.1341 L3.8207,3.3937 C3.7997,3.3556 3.7946,3.3107 3.8068,3.2689 C3.8189,3.227 3.8471,3.1918 3.8852,3.1708 L4.464,2.852 C4.5434,2.8083 4.6431,2.837 4.6869,2.9165 L5.0948,3.6568 C5.1158,3.6949 5.1209,3.7398 5.1087,3.7816 C5.0966,3.8234 5.0684,3.8587 5.0303,3.8797 L4.4515,4.1986 C4.427,4.212 4.3998,4.219 4.3723,4.219 Z M4.1874,3.3791 L4.4369,3.8321 L4.7282,3.6715 L4.4787,3.2186 L4.1874,3.3791 Z" fill="#15003E"></path>
                        <g id="Group" transform="translate(3.000000, 0.000000)">
                            <g>
                                <polygon id="Path" fill="#FFCE08" points="1.1671 1.6329 1.4705 1.0462 2.9611 1.8169 2.6577 2.4038"></polygon>
                                <path d="M2.6577,2.6503 C2.6186,2.6503 2.5798,2.641 2.5445,2.6227 L1.0539,1.8519 C0.9329,1.7894 0.8855,1.6406 0.9481,1.5196 L1.2515,0.9329 C1.314,0.812 1.4628,0.7643 1.5838,0.8271 L3.0744,1.5977 C3.1953,1.6602 3.2428,1.809 3.1802,1.93 L2.8768,2.517 C2.8468,2.5751 2.795,2.6189 2.7326,2.6387 C2.7081,2.6465 2.6828,2.6503 2.6577,2.6503 Z M1.4994,1.5272 L2.5519,2.0714 L2.6288,1.9226 L1.5763,1.3785 L1.4994,1.5272 Z" id="Shape" fill="#15003E"></path>
                            </g>
                            <path d="M1.9174,2.1836 C1.892,2.1836 1.8662,2.1777 1.8422,2.1653 C1.7616,2.1236 1.7301,2.0246 1.7717,1.9441 L2.075,1.3573 C2.1169,1.2767 2.2162,1.2455 2.2961,1.2868 C2.3767,1.3285 2.4082,1.4275 2.3666,1.5079 L2.0633,2.0948 C2.0342,2.1512 1.9768,2.1836 1.9174,2.1836 Z" id="Path" fill="#15003E"></path>
                        </g>
                        <g id="Group" transform="translate(0.000000, 2.000000)">
                            <g>
                                <polygon id="Path" fill="#FFCE08" points="0.4062 0.8396 1.0607 0.7494 1.4371 3.4793 0.7826 3.5694"></polygon>
                                <path d="M0.7823,3.8159 C0.661,3.8159 0.5554,3.7265 0.5384,3.603 L0.1619,0.8733 C0.1432,0.7385 0.2375,0.614 0.3725,0.5954 L1.027,0.5051 C1.0915,0.4955 1.1573,0.5133 1.2096,0.5527 C1.2617,0.5922 1.296,0.6508 1.3049,0.7156 L1.6814,3.4455 C1.6904,3.5102 1.6732,3.5759 1.6336,3.6281 C1.5942,3.6802 1.5355,3.7145 1.4708,3.7234 L0.8163,3.8135 C0.8049,3.8151 0.7936,3.8159 0.7823,3.8159 Z M0.6842,1.0502 L0.9933,3.2914 L1.1592,3.2685 L0.8501,1.0273 L0.6842,1.0502 Z" id="Shape" fill="#15003E"></path>
                            </g>
                            <path d="M0.6668,2.9128 C0.6312,2.9128 0.5964,2.9013 0.5678,2.8796 C0.5331,2.8533 0.5102,2.8143 0.5042,2.7712 L0.3886,1.9337 C0.3762,1.844 0.4389,1.7612 0.5288,1.7487 L1.183,1.6582 C1.2716,1.6468 1.3554,1.7086 1.368,1.7983 L1.4839,2.6357 C1.4898,2.6789 1.4785,2.7226 1.4522,2.7573 C1.4259,2.792 1.3869,2.8149 1.3439,2.8209 L0.6894,2.9115 C0.6818,2.9122 0.6743,2.9128 0.6668,2.9128 Z M0.7363,2.0513 L0.807,2.5637 L1.1363,2.5181 L1.0654,2.0058 L0.7363,2.0513 Z" id="Shape" fill="#15003E"></path>
                        </g>
                    </g>
                    <g id="Shape" transform="translate(15.000000, 39.000000)">
                        <g id="Group" transform="translate(0.000000, 1.000000)" fill="#231F20">
                            <polygon id="Path" points="20.6231 7.0687 10.6366 9.7265 0.4598 7.0687 0.4598 0.7333 20.6232 0.7333 20.6232 7.0687"></polygon>
                            <path d="M10.6366,10.0547 C10.6087,10.0547 10.5808,10.0512 10.5537,10.044 L0.3769,7.3861 C0.2324,7.3484 0.1316,7.2179 0.1316,7.0686 L0.1316,0.7332 C0.1316,0.5519 0.2785,0.405 0.4598,0.405 L20.6232,0.405 C20.8045,0.405 20.9514,0.5519 20.9514,0.7332 L20.9514,7.0686 C20.9514,7.2173 20.8514,7.3475 20.7076,7.3858 L10.721,10.0437 C10.6933,10.0511 10.665,10.0547 10.6366,10.0547 Z M0.7879,6.8151 L10.6358,9.3871 L20.2949,6.8164 L20.2949,1.0615 L0.7879,1.0615 L0.7879,6.8151 Z" id="Shape"></path>
                        </g>
                        <g id="Group">
                            <path d="M1.9981,7.5526 C1.8168,7.5526 1.6699,7.4057 1.6699,7.2244 L1.6699,4.5597 L0.8327,3.4632 C0.789,3.406 0.7654,3.3361 0.7654,3.2641 L0.7654,0.5081 C0.7654,0.3268 0.9123,0.1799 1.0936,0.1799 C1.2749,0.1799 1.4218,0.3268 1.4218,0.5081 L1.4218,3.1531 L2.259,4.2496 C2.3027,4.3068 2.3263,4.3767 2.3263,4.4487 L2.3263,7.2244 C2.3263,7.4057 2.1794,7.5526 1.9981,7.5526 Z" id="Path" fill="#8E2ABE"></path>
                            <path d="M2.6603,7.7272 C2.479,7.7272 2.3321,7.5803 2.3321,7.399 L2.3321,0.5081 C2.3321,0.3268 2.479,0.1799 2.6603,0.1799 C2.8416,0.1799 2.9885,0.3268 2.9885,0.5081 L2.9885,7.399 C2.9885,7.5803 2.8416,7.7272 2.6603,7.7272 Z" id="Path" fill="#EFF4EE"></path>
                            <path d="M3.5305,7.9567 C3.3615,7.9567 3.218,7.827 3.2038,7.6556 C3.1705,7.2539 3.0147,5.2214 3.2224,4.6506 C3.3277,4.3535 3.2519,2.3234 3.1176,0.5326 C3.104,0.3518 3.2395,0.1943 3.4203,0.1808 C3.5999,0.1653 3.7585,0.3027 3.7721,0.4835 C3.8389,1.3733 4.0409,4.3199 3.8394,4.875 C3.7228,5.1952 3.7801,6.662 3.858,7.6013 C3.873,7.782 3.7387,7.9405 3.558,7.9555 C3.5488,7.9564 3.5396,7.9567 3.5305,7.9567 Z" id="Path" fill="#25E899"></path>
                            <path d="M4.5124,8.2154 C4.3356,8.2154 4.1898,8.0747 4.1845,7.8967 L3.9878,1.147 C3.9826,0.9659 4.1252,0.8147 4.3064,0.8094 C4.4817,0.805 4.6387,0.9466 4.644,1.128 L4.8407,7.8777 C4.8459,8.0588 4.7033,8.21 4.5221,8.2153 C4.519,8.2154 4.5158,8.2154 4.5124,8.2154 Z" id="Path" fill="#FFCE08"></path>
                            <path d="M5.3196,8.4283 C5.1383,8.4283 4.9914,8.2814 4.9914,8.1001 L4.9914,5.5367 C4.9914,5.4679 5.0131,5.4008 5.0533,5.3449 L5.5485,4.6571 L5.5485,3.4323 C5.5485,3.251 5.6954,3.1041 5.8767,3.1041 C6.058,3.1041 6.2049,3.251 6.2049,3.4323 L6.2049,4.7629 C6.2049,4.8317 6.1832,4.8988 6.143,4.9547 L5.6478,5.6425 L5.6478,8.1 C5.6478,8.2814 5.5009,8.4283 5.3196,8.4283 Z" id="Path" fill="#F9006C"></path>
                            <path d="M8.3174,9.2184 C8.2804,9.2184 8.2429,9.2121 8.2061,9.1988 C8.0356,9.1374 7.9472,8.9493 8.0087,8.7787 C8.255,8.0954 8.0103,7.3922 7.8316,6.8788 L7.8234,6.8552 C7.6264,6.2889 7.6275,4.9464 7.6282,4.7951 C7.6292,4.6144 7.7758,4.4686 7.9564,4.4686 L7.958,4.4686 C8.1393,4.4696 8.2854,4.6172 8.2846,4.7984 C8.2827,5.1782 8.3076,6.2492 8.4434,6.6395 L8.4516,6.663 C8.6506,7.2349 8.9514,8.0991 8.6263,9.0013 C8.578,9.1352 8.4518,9.2184 8.3174,9.2184 Z" id="Path" fill="#8E2ABE"></path>
                            <path d="M9.2042,9.452 C9.0229,9.452 8.876,9.3051 8.876,9.1238 L8.876,5.1797 C8.876,4.9984 9.0229,4.8515 9.2042,4.8515 C9.3855,4.8515 9.5324,4.9984 9.5324,5.1797 L9.5324,9.1238 C9.5324,9.3051 9.3855,9.452 9.2042,9.452 Z" id="Path" fill="#0FCE7C"></path>
                            <path d="M19.9894,7.3312 C19.8081,7.3312 19.6612,7.1843 19.6612,7.003 L19.6612,0.5081 C19.6612,0.3268 19.8081,0.1799 19.9894,0.1799 C20.1707,0.1799 20.3176,0.3268 20.3176,0.5081 L20.3176,7.003 C20.3176,7.1843 20.1707,7.3312 19.9894,7.3312 Z" id="Path" fill="#EFF4EE"></path>
                            <path d="M19.0855,7.48 C19.0721,7.48 19.0588,7.4793 19.0452,7.4775 C18.8653,7.4555 18.7373,7.2918 18.7593,7.1119 C18.8496,6.373 18.9252,5.1906 18.8106,4.875 C18.6087,4.32 18.8109,1.3734 18.8777,0.4835 C18.8912,0.3028 19.0501,0.1664 19.2295,0.1808 C19.4103,0.1944 19.5457,0.3518 19.5322,0.5326 C19.3979,2.3233 19.3221,4.3533 19.4276,4.6507 C19.637,5.2275 19.4504,6.8685 19.4108,7.1916 C19.3905,7.358 19.2489,7.48 19.0855,7.48 Z" id="Path" fill="#25E899"></path>
                            <path d="M15.7633,8.4283 C15.582,8.4283 15.4351,8.2814 15.4351,8.1001 L15.4351,5.6426 L14.9401,4.9547 C14.8998,4.8989 14.8782,4.8318 14.8782,4.763 L14.8782,3.4324 C14.8782,3.2511 15.0251,3.1042 15.2064,3.1042 C15.3877,3.1042 15.5346,3.2511 15.5346,3.4324 L15.5346,4.6572 L16.0296,5.3451 C16.0699,5.4009 16.0915,5.468 16.0915,5.5368 L16.0915,8.1002 C16.0915,8.2814 15.9446,8.4283 15.7633,8.4283 Z" id="Path" fill="#15003E"></path>
                            <path d="M14.6739,8.7153 C14.4962,8.7153 14.3501,8.5734 14.3459,8.3949 L14.2438,4.0761 C14.2395,3.8948 14.3829,3.7445 14.5641,3.7402 C14.7484,3.735 14.8958,3.8794 14.9,4.0605 L15.0021,8.3793 C15.0064,8.5606 14.863,8.7109 14.6818,8.7152 C14.6791,8.7153 14.6765,8.7153 14.6739,8.7153 Z" id="Path" fill="#F9006C"></path>
                            <path d="M13.9503,8.906 C13.769,8.906 13.6221,8.7591 13.6221,8.5778 L13.6221,4.5123 C13.6221,4.331 13.769,4.1841 13.9503,4.1841 C14.1316,4.1841 14.2785,4.331 14.2785,4.5123 L14.2785,8.5778 C14.2785,8.7591 14.1316,8.906 13.9503,8.906 Z" id="Path" fill="#0FCE7C"></path>
                            <path d="M12.7657,9.2184 C12.6313,9.2184 12.5052,9.1352 12.4569,9.0014 C12.1317,8.0997 12.4324,7.2356 12.6314,6.6639 L12.6398,6.6397 C12.7758,6.2489 12.8004,5.1782 12.7985,4.7986 C12.7975,4.6173 12.9437,4.4697 13.125,4.4687 C13.1255,4.4687 13.1262,4.4687 13.1262,4.4687 C13.3073,4.4687 13.454,4.6145 13.4549,4.7952 C13.4556,4.9464 13.4568,6.2889 13.2599,6.8553 L13.2514,6.8797 C13.0728,7.3929 12.8281,8.0958 13.0745,8.7788 C13.1359,8.9493 13.0476,9.1373 12.8771,9.1989 C12.8403,9.2121 12.8027,9.2184 12.7657,9.2184 Z" id="Path" fill="#3E00FF"></path>
                            <path d="M11.7338,9.452 C11.5525,9.452 11.4056,9.3051 11.4056,9.1238 L11.4056,5.1797 C11.4056,4.9984 11.5525,4.8515 11.7338,4.8515 C11.9151,4.8515 12.062,4.9984 12.062,5.1797 L12.062,9.1238 C12.062,9.3051 11.9151,9.452 11.7338,9.452 Z" id="Path" fill="#FFCE08"></path>
                        </g>
                    </g>
                    <g id="Shape">
                        <g id="Group" transform="translate(14.000000, 22.000000)">
                            <path d="M21.9454,4.4346 L19.6643,3.3531 L3.4185,3.3531 L1.1891,4.4346 L1.1891,18.7334 L5.093,18.7334 C5.921,21.5119 8.4939,23.5382 11.5414,23.5382 C14.5889,23.5382 17.1619,21.5117 17.9898,18.7334 L21.9454,18.7334 L21.9454,4.4346 Z M6.709,0.3742 L16.4096,0.3742 L16.4096,3.3531 L6.709,3.3531 L6.709,0.3742 Z" id="Shape" fill="#FFCE08"></path>
                            <path d="M11.5414,23.7848 C8.5411,23.7848 5.8415,21.8183 4.9118,18.98 L1.1891,18.98 C1.0529,18.98 0.9425,18.8696 0.9425,18.7334 L0.9425,4.4346 C0.9425,4.3402 0.9965,4.2539 1.0815,4.2127 L3.3109,3.1312 C3.3444,3.115 3.3812,3.1065 3.4185,3.1065 L6.4624,3.1065 L6.4624,0.3742 C6.4624,0.238 6.5728,0.1276 6.709,0.1276 L16.4097,0.1276 C16.5459,0.1276 16.6563,0.238 16.6563,0.3742 L16.6563,3.1065 L19.6644,3.1065 C19.7009,3.1065 19.737,3.1146 19.7701,3.1302 L22.0513,4.2117 C22.1373,4.2525 22.1922,4.3393 22.1922,4.4346 L22.1922,18.7334 C22.1922,18.8696 22.0818,18.98 21.9456,18.98 L18.1712,18.98 C17.2414,21.8183 14.5417,23.7848 11.5414,23.7848 Z M1.4357,18.4868 L5.093,18.4868 C5.2021,18.4868 5.2981,18.5585 5.3293,18.663 C6.1415,21.3883 8.6959,23.2917 11.5414,23.2917 C14.3869,23.2917 16.9414,21.3883 17.7536,18.663 C17.7848,18.5585 17.8808,18.4868 17.9899,18.4868 L21.6989,18.4868 L21.6989,4.5906 L19.6089,3.5997 L3.4752,3.5997 L1.4357,4.5891 L1.4357,18.4868 Z M6.9556,3.1066 L16.1631,3.1066 L16.1631,0.6209 L6.9556,0.6209 L6.9556,3.1066 Z" id="Shape" fill="#15003E"></path>
                        </g>
                        <g id="Group" transform="translate(15.000000, 0.000000)">
                            <path d="M3.7198,21.0603 C1.9792,18.7453 -0.5035,11.1997 1.4492,7.0207 C2.8542,4.0139 5.7778,2.4677 8.0757,1.7446 C9.3379,1.3473 9.6228,0.8251 10.5416,0.8251 C11.4604,0.8251 11.7452,1.3473 13.0075,1.7446 C15.3054,2.4677 18.2291,4.0141 19.634,7.0207 C21.5867,11.1996 19.104,18.7452 17.3634,21.0603 L3.7198,21.0603 Z" id="Path" fill="#DDB40A"></path>
                            <path d="M17.3634,21.3069 L3.7198,21.3069 C3.6422,21.3069 3.5693,21.2705 3.5227,21.2085 C1.8319,18.9599 -0.7892,11.2284 1.2257,6.9163 C2.7867,3.5758 6.1411,2.0948 8.0016,1.5093 C8.5215,1.3457 8.8671,1.1608 9.172,0.9976 C9.5923,0.7727 9.9553,0.5785 10.5415,0.5785 C11.1277,0.5785 11.4907,0.7727 11.911,0.9976 C12.2159,1.1608 12.5615,1.3458 13.0814,1.5093 C14.9419,2.0948 18.2964,3.5757 19.8572,6.9163 C21.8721,11.2283 19.251,18.9598 17.5603,21.2085 C17.5139,21.2705 17.441,21.3069 17.3634,21.3069 Z M3.8449,20.8138 L17.2382,20.8138 C18.8757,18.5189 21.3191,11.2097 19.4105,7.1252 C17.9295,3.9557 14.7167,2.5411 12.9334,1.98 C12.3695,1.8024 11.9863,1.5974 11.6784,1.4327 C11.2723,1.2154 11.0042,1.0718 10.5416,1.0718 C10.079,1.0718 9.8108,1.2154 9.4048,1.4327 C9.0969,1.5974 8.7137,1.8025 8.1498,1.98 C6.3665,2.5411 3.1536,3.9557 1.6726,7.1252 C-0.2361,11.2099 2.2074,18.519 3.8449,20.8138 Z" id="Shape" fill="#15003E"></path>
                        </g>
                        <g id="Group" transform="translate(16.000000, 2.000000)">
                            <path d="M9.5415,22.4982 C8.3335,22.4982 5.8422,21.8791 4.3597,19.9665 C2.8772,18.0539 1.2556,15.913 0.6992,11.7151 C0.4097,9.5302 -0.0137,6.3789 1.9553,3.8236 C3.7341,1.5152 6.6921,0.3914 9.5415,0.3914 C12.3909,0.3914 15.3489,1.5153 17.1277,3.8236 C19.0968,6.379 18.6734,9.5304 18.3838,11.7151 C17.8274,15.913 16.2057,18.054 14.7233,19.9665 C13.2409,21.879 10.7494,22.4982 9.5415,22.4982 Z" id="Path" fill="#FFCE08"></path>
                            <path d="M9.5414,22.7448 C8.1988,22.7448 5.6589,22.0451 4.1648,20.1175 C2.7671,18.3143 1.0277,16.0702 0.4547,11.7475 C0.166,9.5693 -0.2668,6.303 1.7599,3.673 C3.4622,1.464 6.3711,0.1448 9.5414,0.1448 C12.7114,0.1448 15.6205,1.4638 17.323,3.673 C19.3498,6.3032 18.9169,9.5696 18.6305,11.731 C18.0553,16.0706 16.3159,18.3145 14.9182,20.1176 C13.4241,22.0451 10.8841,22.7448 9.5414,22.7448 Z M9.5414,0.6378 C6.5231,0.6378 3.7602,1.8852 2.1505,3.974 C0.249,6.4416 0.6492,9.4612 0.9413,11.666 C1.499,15.8734 3.1223,17.9677 4.5545,19.8154 C5.9401,21.6029 8.2959,22.2517 9.5414,22.2517 C10.787,22.2517 13.1429,21.6029 14.5284,19.8154 C15.9605,17.9678 17.5839,15.8736 18.1393,11.6827 C18.4336,9.4613 18.8338,6.4417 16.9324,3.974 C15.3226,1.885 12.5596,0.6378 9.5414,0.6378 Z" id="Shape" fill="#15003E"></path>
                        </g>
                        <path d="M35.347,16.119 C35.3333,16.119 35.3194,16.1179 35.3055,16.1156 L34.0425,15.902 C33.9082,15.8792 33.8178,15.752 33.8405,15.6177 L34.3865,12.3878 C34.3974,12.3234 34.4335,12.2658 34.4868,12.228 C34.54,12.19 34.6059,12.1749 34.6708,12.1858 L35.9339,12.3994 C35.9983,12.4103 36.0559,12.4464 36.0937,12.4997 C36.1316,12.553 36.1468,12.6191 36.1359,12.6837 L35.5897,15.9136 C35.5694,16.0339 35.465,16.119 35.347,16.119 Z M34.368,15.4568 L35.1447,15.5881 L35.6086,12.8446 L34.8318,12.7133 L34.368,15.4568 Z M15.7343,16.1186 C15.6162,16.1186 15.5119,16.0336 15.4915,15.9132 L14.9454,12.6833 C14.9345,12.6188 14.9497,12.5526 14.9876,12.4993 C15.0254,12.446 15.083,12.4099 15.1474,12.399 L16.4105,12.1854 C16.4755,12.1749 16.5413,12.1898 16.5945,12.2276 C16.6478,12.2654 16.6839,12.323 16.6948,12.3874 L17.2408,15.6173 C17.2634,15.7516 17.1731,15.8788 17.0388,15.9016 L15.7758,16.1152 C15.7619,16.1175 15.748,16.1186 15.7343,16.1186 Z M15.4728,12.8442 L15.9367,15.5877 L16.7134,15.4564 L16.2496,12.7129 L15.4728,12.8442 Z" fill="#15003E"></path>
                        <g id="Group" transform="translate(14.000000, 44.000000)">
                            <polygon id="Path" fill="#DDB40A" points="21.9454 6.2685 11.6366 8.9652 1.1891 6.2685 1.1891 1.0871 11.6366 3.8408 21.9454 1.0871"></polygon>
                            <path d="M11.6366,9.2118 C11.6159,9.2118 11.5951,9.2092 11.575,9.204 L1.1275,6.5073 C1.0186,6.4792 0.9426,6.381 0.9426,6.2685 L0.9426,1.0872 C0.9426,1.0107 0.9781,0.9386 1.0386,0.8919 C1.0993,0.8451 1.1781,0.8295 1.252,0.8487 L11.6362,3.5856 L21.8818,0.8489 C21.9558,0.8291 22.0348,0.8448 22.0957,0.8915 C22.1565,0.9382 22.1921,1.0105 22.1921,1.0871 L22.1921,6.2684 C22.1921,6.3806 22.1165,6.4785 22.0079,6.507 L11.699,9.2038 C11.6786,9.2091 11.6575,9.2118 11.6366,9.2118 Z M1.4357,6.0775 L11.6362,8.7105 L21.6989,6.0782 L21.6989,1.4084 L11.7003,4.0791 C11.6587,4.09 11.6152,4.0902 11.5738,4.0793 L1.4357,1.4072 L1.4357,6.0775 Z" id="Shape" fill="#15003E"></path>
                        </g>
                        <g id="Group" transform="translate(14.000000, 24.000000)">
                            <path d="M17.1931,1.335 C17.1943,1.3182 17.1957,1.3013 17.1957,1.2842 C17.1957,0.8501 16.8437,0.4982 16.4097,0.4982 L6.7249,0.4982 C6.2908,0.4983 5.9389,0.8502 5.9389,1.2842 C5.9389,1.3013 5.9405,1.3181 5.9415,1.335 L17.1931,1.335 Z M3.4185,1.335 C3.4185,1.335 11.0973,4.017 11.0973,5.7093 L11.0973,6.5937 C11.0973,6.7953 10.9451,6.8607 10.9451,6.8607 L0.7356,9.4915 C0.7356,9.4915 0.5898,9.4915 0.5898,9.3428 L0.5898,2.1314 C0.5898,2.1315 0.6143,1.335 3.4185,1.335 Z M19.6644,1.335 C19.6644,1.335 11.9856,4.017 11.9856,5.7093 L11.9856,6.6201 C11.9856,6.8111 12.1414,6.8616 12.1414,6.8616 L22.3404,9.4898 C22.3404,9.4898 22.4929,9.5127 22.4929,9.3481 L22.4929,2.1313 C22.4929,2.1313 22.4688,1.335 19.6644,1.335 Z" id="Shape" fill="#FFCE08"></path>
                            <path d="M0.7357,9.7381 C0.5454,9.7381 0.3433,9.5995 0.3433,9.3428 L0.3433,2.1314 C0.3509,1.881 0.5946,1.0884 3.4186,1.0884 C3.4463,1.0884 3.4737,1.0931 3.4999,1.1022 C4.8098,1.5597 11.3439,3.932 11.3439,5.7094 L11.3439,6.5938 C11.3439,6.8812 11.1545,7.0392 11.0425,7.0874 C11.031,7.0923 11.019,7.0965 11.0067,7.0996 L0.7973,9.7304 C0.7772,9.7356 0.7564,9.7381 0.7357,9.7381 Z M3.3768,1.5816 C1.122,1.5882 0.8366,2.1334 0.8364,2.139 L0.8364,9.2109 L10.8472,6.6314 C10.8475,6.6257 10.8507,6.6122 10.8507,6.5938 L10.8507,5.7094 C10.8507,4.6089 6.2838,2.6006 3.3768,1.5816 Z M22.3585,9.7376 C22.3391,9.7376 22.3207,9.7362 22.3039,9.7338 C22.2955,9.7325 22.2871,9.7308 22.2789,9.7287 L12.0798,7.1004 C11.9441,7.057 11.739,6.9126 11.739,6.6202 L11.739,5.7094 C11.739,3.932 18.2731,1.5597 19.583,1.1022 C19.6092,1.0931 19.6366,1.0884 19.6643,1.0884 C22.4885,1.0884 22.732,1.8809 22.7394,2.1239 L22.7394,9.3481 C22.7394,9.47 22.6939,9.5764 22.6112,9.6476 C22.5338,9.7142 22.4376,9.7376 22.3585,9.7376 Z M12.2287,6.6294 L22.2464,9.2109 L22.2464,2.1577 C22.2157,2.0951 21.8959,1.5879 19.7062,1.5816 C16.7992,2.6008 12.2323,4.6092 12.2323,5.7093 L12.2287,6.6294 Z M17.1931,1.5815 L5.9414,1.5815 C5.8107,1.5815 5.7027,1.4796 5.6952,1.349 C5.6932,1.3198 5.6922,1.3021 5.6922,1.2842 C5.6922,0.7148 6.1555,0.2516 6.7248,0.2516 L16.4097,0.2516 C16.979,0.2516 17.4423,0.7148 17.4423,1.2842 C17.4423,1.305 17.441,1.3257 17.4395,1.3462 C17.4303,1.4751 17.3225,1.5815 17.1931,1.5815 Z M6.2223,1.0884 L16.9124,1.0884 C16.8338,0.8874 16.6382,0.7448 16.4097,0.7448 L6.7248,0.7448 C6.4965,0.7448 6.3009,0.8874 6.2223,1.0884 Z" id="Shape" fill="#15003E"></path>
                        </g>
                        <path d="M27.275,55.896 C27.2294,55.896 27.1833,55.8834 27.1421,55.857 C27.0275,55.7835 26.9941,55.6309 27.0676,55.5163 L28.7427,52.9046 C28.7749,52.8545 28.8241,52.8176 28.8813,52.801 L36.8349,50.481 C36.9652,50.4428 37.1025,50.518 37.1407,50.6487 C37.1788,50.7794 37.1037,50.9163 36.973,50.9545 L29.1081,53.2487 L27.4829,55.7826 C27.4357,55.8559 27.3562,55.896 27.275,55.896 Z" id="Path" fill="#15003E"></path>
                        <g id="Group" transform="translate(26.000000, 51.000000)">
                            <path d="M9.9454,0.878 L3.6741,2.8603 L3.6229,5.3262 L9.405,7.6955 L9.9454,0.878 Z M2.949,5.0845 L1.2356,6.2449 L1.7772,10.8381 L2.9489,10.8381 L2.9489,5.0845 L2.949,5.0845 Z M3.6152,6.0515 L8.9894,8.179 L8.9894,10.8382 L3.5719,10.8382 L3.6152,6.0515 Z M7.9417,28.6917 L5.8866,27.4588 L5.8866,17.6678 L8.9894,17.6678 L7.9417,28.6917 Z M5.0739,27.4588 L3.0188,28.6917 L1.9711,17.6678 L5.0739,17.6678 L5.0739,27.4588 Z" id="Shape" fill="#FFCE08"></path>
                            <path d="M7.9417,28.9384 C7.8977,28.9384 7.8538,28.9266 7.8148,28.9034 L5.7597,27.6703 C5.6854,27.6256 5.64,27.5453 5.64,27.4588 L5.64,17.6679 C5.64,17.5318 5.7504,17.4213 5.8866,17.4213 L8.9894,17.4213 C9.0588,17.4213 9.1251,17.4506 9.1719,17.5021 C9.2186,17.5534 9.2414,17.6222 9.2349,17.6912 L8.1872,28.7151 C8.1792,28.7995 8.1284,28.8736 8.0529,28.9119 C8.0179,28.9296 7.9797,28.9384 7.9417,28.9384 Z M6.1332,27.3192 L7.7333,28.2792 L8.7183,17.9144 L6.1332,17.9144 L6.1332,27.3192 Z M3.0188,28.9384 C2.9808,28.9384 2.9426,28.9296 2.9076,28.9119 C2.8321,28.8737 2.7813,28.7995 2.7733,28.7151 L1.7256,17.6912 C1.7191,17.6222 1.7419,17.5534 1.7886,17.5021 C1.8354,17.4506 1.9016,17.4213 1.9711,17.4213 L5.0739,17.4213 C5.2101,17.4213 5.3205,17.5318 5.3205,17.6679 L5.3205,27.4588 C5.3205,27.5453 5.2751,27.6257 5.2008,27.6703 L3.1457,28.9034 C3.1067,28.9266 3.0628,28.9384 3.0188,28.9384 Z M2.2422,17.9144 L3.2272,28.2792 L4.8273,27.3192 L4.8273,17.9144 L2.2422,17.9144 Z M8.9894,11.0848 L3.5719,11.0848 C3.5061,11.0848 3.4431,11.0585 3.3968,11.0117 C3.3504,10.9651 3.3247,10.9017 3.32528973,10.8361 L3.3687,6.0492 C3.3694,5.9679 3.4102,5.8923 3.4776,5.8469 C3.5451,5.8016 3.6303,5.7923 3.7061,5.8222 L9.0803,7.9496 C9.1743,7.9868 9.2361,8.0777 9.2361,8.1789 L9.2361,10.8383 C9.236,10.9744 9.1256,11.0848 8.9894,11.0848 Z M3.8207,10.5917 L8.7428,10.5917 L8.7428,8.3464 L3.8586,6.413 L3.8207,10.5917 Z M2.949,11.0848 L1.7772,11.0848 C1.6522,11.0848 1.547,10.9912 1.5323,10.8671 L0.9908,6.2738 C0.98,6.1823 1.0211,6.0925 1.0974,6.0408 L2.8107,4.8803 C2.8862,4.8289 2.9839,4.8239 3.0645,4.8666 C3.1451,4.9093 3.19550007,4.9932 3.19550007,5.0844 L3.19550007,10.8381 C3.1956,10.9744 3.0852,11.0848 2.949,11.0848 Z M1.9965,10.5917 L2.7025,10.5917 L2.7025,5.5494 L1.4982,6.3651 L1.9965,10.5917 Z M9.405,7.9421 C9.3734,7.9421 9.3415,7.936 9.3115,7.9237 L3.5294,5.5544 C3.4351,5.5157 3.3743,5.423 3.37625211,5.3211 L3.4275,2.8552 C3.4297,2.7495 3.499,2.657 3.5997,2.6252 L9.8711,0.643 C9.9493,0.6181 10.0347,0.6339 10.099,0.6852 C10.1632,0.7363 10.1978,0.8159 10.1913,0.8976 L9.6508,7.715 C9.6446,7.7935 9.6012,7.8644 9.5341,7.9056 C9.4949,7.9298 9.45,7.9421 9.405,7.9421 Z M3.8729,5.1622 L9.1858,7.3392 L9.6706,1.2236 L3.9169,3.0422 L3.8729,5.1622 Z" id="Shape" fill="#15003E"></path>
                        </g>
                        <g id="Group" transform="translate(27.000000, 79.000000)">
                            <path d="M1.4711,3.1956 L7.3612,3.1956 C7.6626,2.9628 7.836,2.691 7.836,2.4009 C7.836,1.5373 6.3047,0.837 4.4161,0.837 C2.5275,0.837 0.9962,1.5373 0.9962,2.4009 C0.9962,2.6911 1.1696,2.9628 1.4711,3.1956 Z" id="Path" fill="#DDB40A"></path>
                            <path d="M7.3612,3.4422 L1.471,3.4422 C1.4165,3.4422 1.3635,3.424 1.3203,3.3907 C0.9469,3.1025 0.7496,2.7602 0.7496,2.401 C0.7496,1.3856 2.3601,0.5903 4.4161,0.5903 C6.4721,0.5903 8.0825,1.3856 8.0825,2.401 C8.0825,2.7604 7.8852,3.1027 7.512,3.3907 C7.4687,3.424 7.4157,3.4422 7.3612,3.4422 Z M1.5584,2.949 L7.2738,2.949 C7.4298,2.8155 7.5893,2.6242 7.5893,2.4009 C7.5893,1.7778 6.2861,1.0834 4.4161,1.0834 C2.5461,1.0834 1.24279995,1.7778 1.24279995,2.4009 C1.2427,2.6242 1.4024,2.8153 1.5584,2.949 Z" id="Shape" fill="#15003E"></path>
                        </g>
                        <path d="M23.9981,55.896 C23.9169,55.896 23.8374,55.8559 23.7903,55.7825 L22.165,53.2486 L14.3,50.9544 C14.1692,50.9163 14.0941,50.7793 14.1323,50.6486 C14.1703,50.5178 14.3069,50.4426 14.4381,50.4809 L22.3918,52.8009 C22.449,52.8176 22.4982,52.8544 22.5304,52.9045 L24.2056,55.5162 C24.2791,55.6308 24.2458,55.7834 24.1311,55.8569 C24.0897,55.8833 24.0437,55.896 23.9981,55.896 Z" id="Path" fill="#15003E"></path>
                        <g id="Group" transform="translate(15.000000, 51.000000)">
                            <path d="M7.3241,5.0845 L9.0373,6.2449 L8.4957,10.8381 L7.3241,10.8381 L7.3241,5.0845 Z M6.7011,10.8382 L6.599,2.8603 L0.3275,0.878 L1.2835,8.1789 L1.2835,10.8381 L6.7011,10.8381 L6.7011,10.8382 Z M2.3312,28.6917 L4.3863,27.4588 L4.3863,17.6678 L1.2835,17.6678 L2.3312,28.6917 Z M5.199,27.4588 L7.2541,28.6917 L8.3018,17.6678 L5.199,17.6678 L5.199,27.4588 Z" id="Shape" fill="#FFCE08"></path>
                            <path d="M7.2542,28.9384 C7.2102,28.9384 7.1663,28.9266 7.1273,28.9034 L5.0722,27.6703 C4.9979,27.6256 4.9525,27.5453 4.9525,27.4588 L4.9525,17.6679 C4.9525,17.5318 5.0629,17.4213 5.1991,17.4213 L8.3018,17.4213 C8.3712,17.4213 8.4375,17.4506 8.4843,17.5021 C8.531,17.5534 8.5538,17.6222 8.5473,17.6912 L7.4997,28.7151 C7.4917,28.7995 7.4409,28.8736 7.3654,28.9119 C7.3303,28.9296 7.2922,28.9384 7.2542,28.9384 Z M5.4457,27.3192 L7.0458,28.2792 L8.0307,17.9144 L5.4457,17.9144 L5.4457,27.3192 Z M2.3312,28.9384 C2.2932,28.9384 2.255,28.9296 2.22,28.9119 C2.1445,28.8737 2.0937,28.7995 2.0857,28.7151 L1.038,17.6911 C1.0315,17.6221 1.0543,17.5533 1.101,17.502 C1.1478,17.4505 1.214,17.4212 1.2835,17.4212 L4.3862,17.4212 C4.5224,17.4212 4.6328,17.5317 4.6328,17.6678 L4.6328,27.4587 C4.6328,27.5452 4.5874,27.6256 4.5131,27.6702 L2.458,28.9033 C2.4191,28.9266 2.3752,28.9384 2.3312,28.9384 Z M1.5547,17.9144 L2.5396,28.2792 L4.1397,27.3192 L4.1397,17.9144 L1.5547,17.9144 Z M8.4956,11.0848 L7.324,11.0848 C7.1878,11.0848 7.0774,10.9743 7.0774,10.8382 L7.0774,5.0845 C7.0774,4.9933 7.1278,4.9094 7.2084,4.8667 C7.2888,4.824 7.3867,4.829 7.4622,4.8804 L9.1754,6.0409 C9.2517,6.0926 9.2928,6.1825 9.282,6.2739 L8.7403,10.8672 C8.7258,10.9912 8.6206,11.0848 8.4956,11.0848 Z M7.5706,10.5917 L8.2764,10.5917 L8.7748,6.3651 L7.5707,5.5494 L7.5707,10.5917 L7.5706,10.5917 Z M6.7011,11.0848 L1.2836,11.0848 C1.1474,11.0848 1.037,10.9743 1.037,10.8382 L1.037,8.1949 L0.083,0.9101 C0.0721,0.8266 0.1046,0.7431 0.1692,0.6891 C0.2338,0.6351 0.3218,0.6176 0.4019,0.6429 L6.6734,2.6251 C6.7748,2.6572 6.8442,2.7507 6.8456,2.857 L6.94772287,10.835 C6.9486,10.901 6.9229,10.9645 6.8765,11.0115 C6.8302,11.0583 6.767,11.0848 6.7011,11.0848 Z M1.5301,10.5917 L6.4513,10.5917 L6.3546,3.0417 L0.6222,1.2299 L1.5281,8.1469 C1.5295,8.1576 1.5301,8.1683 1.5301,8.179 L1.5301,10.5917 Z" id="Shape" fill="#15003E"></path>
                        </g>
                        <g id="Group" transform="translate(9.000000, 26.000000)">
                            <path d="M13.8021,56.1956 L7.9117,56.1956 C7.6104,55.9628 7.4371,55.691 7.4371,55.4009 C7.4371,54.5373 8.9683,53.837 10.857,53.837 C12.7457,53.837 14.2769,54.5373 14.2769,55.4009 C14.2768,55.6911 14.1034,55.9628 13.8021,56.1956 Z M5.1704,0.4165 L5.1704,6.7405 L4.5146,7.0683 L1.1134,1.7002 C1.1134,1.7002 2.6297,0.4165 5.1704,0.4165 Z" id="Shape" fill="#DDB40A"></path>
                            <path d="M13.8021,56.4422 L7.9117,56.4422 C7.8571,56.4422 7.8041,56.424 7.761,56.3907 C7.3878,56.1025 7.1905,55.7602 7.1905,55.401 C7.1905,54.3856 8.801,53.5903 10.857,53.5903 C12.913,53.5903 14.5235,54.3856 14.5235,55.401 C14.5234,55.7604 14.3261,56.1025 13.9529,56.3907 C13.9097,56.424 13.8567,56.4422 13.8021,56.4422 Z M7.9992,55.949 L13.7146,55.949 C13.8707,55.8155 14.0302,55.6242 14.0303,55.4009 C14.0303,54.7778 12.727,54.0834 10.857,54.0834 C8.987,54.0834 7.6837,54.7778 7.6837,55.4009 C7.6837,55.6242 7.8432,55.8155 7.9992,55.949 Z M4.5147,7.3148 C4.4326,7.3148 4.3529,7.2738 4.3063,7.2002 L0.9052,1.8321 C0.8394,1.7281 0.8602,1.5915 0.9542,1.5119 C1.0188,1.4572 2.5692,0.1698 5.1705,0.1698 C5.3067,0.1698 5.4171,0.2802 5.4171,0.4164 L5.4171,6.7404 C5.4171,6.8338 5.3643,6.9192 5.2808,6.961 L4.6249,7.2888 C4.5896,7.3065 4.5519,7.3148 4.5147,7.3148 Z M1.4443,1.7617 L4.6036,6.748 L4.9238,6.588 L4.9238,0.6673 C3.1175,0.7296 1.8791,1.4616 1.4443,1.7617 Z" id="Shape" fill="#15003E"></path>
                        </g>
                        <g id="Group" transform="translate(0.000000, 27.000000)">
                            <path d="M9.8676,1.1647 L2.5215,9.3575 L5.2106,13.2434 L12.6938,5.8556 L9.8676,1.1647 Z M1.9183,9.285 L8.188,19.6315 L5.9342,21.1123 L0.689,12.9112 L1.9183,9.285 Z M5.9335,21.6123 L8.7816,19.7701 L10.4001,21.8029 L9.8673,23.3605 L8.5151,23.8933 L7.4496,24.3852 L6.2203,23.9754 L5.9335,21.6123 Z" id="Shape" fill="#FFCE08"></path>
                            <path d="M7.4495,24.6317 C7.4232,24.6317 7.3969,24.6275 7.3715,24.6191 L6.1423,24.2094 C6.0519,24.1793 5.987,24.0997 5.9755,24.0051 L5.6888,21.642 C5.6774,21.5484 5.7204,21.4564 5.7996,21.4053 L5.8805,21.3531 C5.8169,21.3389 5.7616,21.3001 5.7266,21.2453 L0.4814,13.0443 C0.441,12.9812 0.4315,12.9032 0.4555,12.8322 L1.6849,9.2059 C1.7157,9.1151 1.7963,9.0503 1.8916,9.04 C1.9857,9.0282 2.0795,9.0753 2.1293,9.1573 L2.2795,9.4052 C2.265,9.3311 2.2849,9.2521 2.3379,9.193 L9.684,1.0002 C9.736,0.942 9.8131,0.9117 9.8907,0.9193 C9.9686,0.9267 10.0383,0.9706 10.0787,1.0376 L12.9049,5.7285 C12.9637,5.826 12.948,5.9511 12.867,6.0313 L5.3838,13.4191 C5.332,13.4702 5.2604,13.4962 5.1875,13.4891 C5.115,13.4824 5.0491,13.4438 5.0077,13.3839 L2.4553,9.6956 L8.3989,19.5039 C8.4377,19.568 8.444,19.6429 8.4221,19.7091 L8.6475,19.5633 C8.7539,19.4943 8.8954,19.5174 8.9744,19.6167 L10.593,21.6495 C10.6454,21.7153 10.6606,21.8033 10.6334,21.8829 L10.1006,23.4405 C10.0772,23.5089 10.025,23.5636 9.9577,23.5901 L8.6055,24.1229 L7.5528,24.6093 C7.5201,24.6241 7.4849,24.6317 7.4495,24.6317 Z M6.4462,23.7908 L7.4349,24.1203 L8.4118,23.6693 L9.6709,23.1728 L10.1231,21.8508 L8.7278,20.0985 L6.1969,21.7355 L6.4462,23.7908 Z M0.9605,12.8783 L6.0073,20.7692 L7.854,19.556 L1.9819,9.8657 L0.9605,12.8783 Z M2.835,9.3773 L5.2463,12.8617 L12.3824,5.8165 L9.8285,1.5776 L2.835,9.3773 Z" id="Shape" fill="#15003E"></path>
                        </g>
                        <g id="Group" transform="translate(36.000000, 26.000000)">
                            <path d="M1.1025,0.4165 L1.1025,6.7405 L1.7583,7.0683 L5.1595,1.7002 C5.1595,1.7002 3.6432,0.4165 1.1025,0.4165 Z" id="Path" fill="#DDB40A"></path>
                            <path d="M1.7582,7.3148 C1.721,7.3148 1.6833,7.3065 1.648,7.2888 L0.9922,6.961 C0.9087,6.9192 0.8559,6.8338 0.8559,6.7404 L0.8559,0.4164 C0.8559,0.2802 0.9663,0.1698 1.1025,0.1698 C3.7037,0.1698 5.2541,1.4572 5.3188,1.5119 C5.4128,1.5915 5.4337,1.7281 5.3678,1.8321 L1.9666,7.2002 C1.9199,7.2738 1.8402,7.3148 1.7582,7.3148 Z M1.3491,6.588 L1.6693,6.748 L4.8286,1.7617 C4.3941,1.4618 3.1557,0.7296 1.3491,0.6673 L1.3491,6.588 Z" id="Shape" fill="#15003E"></path>
                        </g>
                        <g id="Group" transform="translate(38.000000, 27.000000)">
                            <path d="M3.4055,1.1647 L10.7515,9.3575 L8.8343,11.932 L1.8989,3.5949 L3.4055,1.1647 Z M1.7253,4.0605 L0.4551,6.0683 L7.8719,13.5673 L8.5275,12.2969 L1.7253,4.0605 Z M11.3546,9.285 L5.085,19.6315 L7.3388,21.1123 L12.5839,12.9112 L11.3546,9.285 Z M7.3396,21.6123 L4.4914,19.7701 L2.8731,21.8029 L3.4057,23.3605 L4.758,23.8933 L5.8234,24.3852 L7.0527,23.9754 L7.3396,21.6123 Z" id="Shape" fill="#FFCE08"></path>
                            <path d="M5.8233,24.6317 C5.7879,24.6317 5.7527,24.6241 5.72,24.6091 L4.6545,24.1172 L3.3152,23.5899 C3.2479,23.5634 3.1957,23.5087 3.1723,23.4403 L2.6396,21.8827 C2.6124,21.8031 2.6276,21.7151 2.68,21.6493 L4.2983,19.6165 C4.3775,19.517 4.5186,19.4941 4.6251,19.5631 L4.8508,19.709 C4.8289,19.6428 4.8351,19.5678 4.874,19.5037 L10.8627,9.621 L9.032,12.0794 C8.9869,12.14 8.9164,12.1765 8.8409,12.1785 C8.8013,12.1803 8.7637,12.1713 8.7293,12.1551 C8.7819,12.2298 8.789,12.3281 8.7467,12.4101 L8.0911,13.6804 C8.0549,13.7505 7.9873,13.7991 7.9093,13.8111 C7.8313,13.8224 7.7523,13.7969 7.6967,13.7407 L0.28,6.2417 C0.1992,6.1601 0.1856,6.0335 0.2469,5.9365 L1.5171,3.9287 C1.5594,3.8619 1.6311,3.8194 1.7099,3.8145 C1.7281,3.813 1.7457,3.8141 1.7629,3.8168 L1.7096,3.7526 C1.6417,3.671 1.6336,3.5552 1.6895,3.465 L3.196,1.0348 C3.2369,0.9688 3.3066,0.9259 3.3839,0.9191 C3.4619,0.9118 3.5374,0.9423 3.5891,1.0001 L10.9351,9.1929 C10.9883,9.2522 11.0081,9.3313 10.9934,9.4054 L11.1438,9.1572 C11.1935,9.0751 11.2867,9.028 11.3815,9.0399 C11.4768,9.0503 11.5575,9.115 11.5882,9.2058 L12.8175,12.8321 C12.8415,12.903 12.832,12.981 12.7916,13.0442 L7.5465,21.2452 C7.5115,21.3 7.4561,21.3388 7.3927,21.3529 L7.4735,21.4053 C7.5528,21.4565 7.5958,21.5485 7.5844,21.642 L7.2975,24.0051 C7.2861,24.0996 7.2211,24.1792 7.1307,24.2094 L5.9013,24.6191 C5.8759,24.6275 5.8496,24.6317 5.8233,24.6317 Z M3.6021,23.1729 L4.8483,23.6639 L5.8379,24.1203 L6.8267,23.7908 L7.0762,21.7356 L4.545,20.0986 L3.15,21.8509 L3.6021,23.1729 Z M5.4191,19.556 L7.2656,20.7692 L12.3123,12.8783 L11.2911,9.8656 L5.4191,19.556 Z M0.7684,6.0343 L7.8084,13.1525 L8.2337,12.3285 L1.7518,4.4798 L0.7684,6.0343 Z M2.2021,3.5739 L8.8236,11.5336 L10.4332,9.372 L3.4416,1.5745 L2.2021,3.5739 Z" id="Shape" fill="#15003E"></path>
                        </g>
                        <g id="Group" transform="translate(15.000000, 62.000000)">
                            <path d="M7.5471,0.4668 L7.5471,0.9503 L6.1246,0.9503 L6.1246,0.4668 L4.1776,0.4668 L4.1776,0.9503 L2.3866,0.9503 L2.3866,0.4668 L0.8679,0.4668 L0.8679,6.0513 L2.3866,6.0513 L2.3866,5.4952 L4.1776,5.4952 L4.1776,6.0513 L6.1246,6.0513 L6.1246,5.4952 L7.5471,5.4952 L7.5471,6.0513 L8.6688,6.0513 L8.6688,0.4668 L7.5471,0.4668 Z M13.7258,0.4306 L13.7258,0.9141 L15.1483,0.9141 L15.1483,0.4306 L17.0953,0.4306 L17.0953,0.9141 L18.8864,0.9141 L18.8864,0.4306 L20.4049,0.4306 L20.4049,6.0151 L18.8864,6.0151 L18.8864,5.459 L17.0953,5.459 L17.0953,6.0151 L15.1483,6.0151 L15.1483,5.459 L13.7258,5.459 L13.7258,6.0151 L12.6041,6.0151 L12.6041,0.4306 L13.7258,0.4306 Z" id="Shape" fill="#DDB40A"></path>
                            <path d="M8.6688,6.298 L7.5471,6.298 C7.4109,6.298 7.3005,6.1875 7.3005,6.0514 L7.3005,5.7418 L6.3711,5.7418 L6.3711,6.0514 C6.3711,6.1875 6.2607,6.298 6.1245,6.298 L4.1775,6.298 C4.0413,6.298 3.9309,6.1875 3.9309,6.0514 L3.9309,5.7418 L2.6331,5.7418 L2.6331,6.0514 C2.6331,6.1875 2.5227,6.298 2.3865,6.298 L0.868,6.298 C0.7318,6.298 0.6214,6.1875 0.6214,6.0514 L0.6214,0.4669 C0.6214,0.3308 0.7318,0.2203 0.868,0.2203 L2.3867,0.2203 C2.5229,0.2203 2.6333,0.3308 2.6333,0.4669 L2.6333,0.7037 L3.9311,0.7037 L3.9311,0.4669 C3.9311,0.3308 4.0415,0.2203 4.1777,0.2203 L6.1247,0.2203 C6.2609,0.2203 6.3713,0.3308 6.3713,0.4669 L6.3713,0.7037 L7.3007,0.7037 L7.3007,0.4669 C7.3007,0.3308 7.4111,0.2203 7.5473,0.2203 L8.669,0.2203 C8.8052,0.2203 8.9156,0.3308 8.9156,0.4669 L8.9156,6.0514 C8.9154,6.1875 8.805,6.298 8.6688,6.298 Z M7.7937,5.8048 L8.4222,5.8048 L8.4222,0.7134 L7.7937,0.7134 L7.7937,0.9501 C7.7937,1.0862 7.6833,1.1967 7.5471,1.1967 L6.1246,1.1967 C5.9884,1.1967 5.878,1.0862 5.878,0.9501 L5.878,0.7134 L4.4242,0.7134 L4.4242,0.9501 C4.4242,1.0862 4.3138,1.1967 4.1776,1.1967 L2.3866,1.1967 C2.2504,1.1967 2.14,1.0862 2.14,0.9501 L2.14,0.7134 L1.1145,0.7134 L1.1145,5.8048 L2.14,5.8048 L2.14,5.4952 C2.14,5.3591 2.2504,5.2486 2.3866,5.2486 L4.1776,5.2486 C4.3138,5.2486 4.4242,5.3591 4.4242,5.4952 L4.4242,5.8048 L5.878,5.8048 L5.878,5.4952 C5.878,5.3591 5.9884,5.2486 6.1246,5.2486 L7.5471,5.2486 C7.6833,5.2486 7.7937,5.3591 7.7937,5.4952 L7.7937,5.8048 Z M20.405,6.2617 L18.8864,6.2617 C18.7502,6.2617 18.6398,6.1512 18.6398,6.0151 L18.6398,5.7055 L17.3419,5.7055 L17.3419,6.0151 C17.3419,6.1512 17.2315,6.2617 17.0953,6.2617 L15.1482,6.2617 C15.012,6.2617 14.9016,6.1512 14.9016,6.0151 L14.9016,5.7055 L13.9722,5.7055 L13.9722,6.0151 C13.9722,6.1512 13.8618,6.2617 13.7256,6.2617 L12.6039,6.2617 C12.4677,6.2617 12.3573,6.1512 12.3573,6.0151 L12.3573,0.4306 C12.3573,0.2945 12.4677,0.184 12.6039,0.184 L13.7256,0.184 C13.8618,0.184 13.9722,0.2945 13.9722,0.4306 L13.9722,0.6676 L14.9016,0.6676 L14.9016,0.4306 C14.9016,0.2945 15.012,0.184 15.1482,0.184 L17.0953,0.184 C17.2315,0.184 17.3419,0.2945 17.3419,0.4306 L17.3419,0.6676 L18.6398,0.6676 L18.6398,0.4306 C18.6398,0.2945 18.7502,0.184 18.8864,0.184 L20.405,0.184 C20.5412,0.184 20.6516,0.2945 20.6516,0.4306 L20.6516,6.0151 C20.6516,6.1512 20.5412,6.2617 20.405,6.2617 Z M19.133,5.7685 L20.1584,5.7685 L20.1584,0.6771 L19.133,0.6771 L19.133,0.9141 C19.133,1.0502 19.0226,1.1607 18.8864,1.1607 L17.0953,1.1607 C16.9591,1.1607 16.8487,1.0502 16.8487,0.9141 L16.8487,0.6771 L15.3948,0.6771 L15.3948,0.9141 C15.3948,1.0502 15.2844,1.1607 15.1482,1.1607 L13.7257,1.1607 C13.5895,1.1607 13.4791,1.0502 13.4791,0.9141 L13.4791,0.6771 L12.8506,0.6771 L12.8506,5.7685 L13.4791,5.7685 L13.4791,5.4589 C13.4791,5.3228 13.5895,5.2123 13.7257,5.2123 L15.1482,5.2123 C15.2844,5.2123 15.3948,5.3228 15.3948,5.4589 L15.3948,5.7685 L16.8487,5.7685 L16.8487,5.4589 C16.8487,5.3228 16.9591,5.2123 17.0953,5.2123 L18.8864,5.2123 C19.0226,5.2123 19.133,5.3228 19.133,5.4589 L19.133,5.7685 Z" id="Shape" fill="#15003E"></path>
                        </g>
                    </g>
                    <path d="M44.6665,43.5686 L43.5052,38.5718 L44.1445,38.4233 L45.3058,43.4201 L44.6665,43.5686 Z M6.0178,42.6169 L5.3855,42.4402 L6.4549,38.6143 L7.0872,38.791 L6.0178,42.6169 Z" id="Shape" fill="#15003E"></path>
                    <g id="Shape" transform="translate(14.000000, 12.000000)">
                        <path d="M20.6297,0.429 L21.8928,0.6425 L21.3467,3.8724 L20.0837,3.6589 L20.6297,0.429 Z M2.9976,3.6584 L1.7346,3.8719 L1.1885,0.642 L2.4516,0.4285 L2.9976,3.6584 Z" fill="#DDB40A"></path>
                        <path d="M21.347,4.119 C21.3333,4.119 21.3194,4.1179 21.3055,4.1156 L20.0425,3.902 C19.9082,3.8792 19.8178,3.752 19.8405,3.6177 L20.3865,0.3878 C20.3974,0.3234 20.4335,0.2658 20.4868,0.228 C20.54,0.19 20.6059,0.1749 20.6708,0.1858 L21.9339,0.3994 C21.9983,0.4103 22.0559,0.4464 22.0937,0.4997 C22.1316,0.553 22.1468,0.6191 22.1359,0.6837 L21.5897,3.9136 C21.5694,4.0339 21.465,4.119 21.347,4.119 Z M20.368,3.4568 L21.1447,3.5881 L21.6086,0.8446 L20.8318,0.7133 L20.368,3.4568 Z M1.7343,4.1186 C1.6162,4.1186 1.5119,4.0336 1.4915,3.9132 L0.9454,0.6833 C0.9345,0.6188 0.9497,0.5526 0.9876,0.4993 C1.0254,0.446 1.083,0.4099 1.1474,0.399 L2.4105,0.1854 C2.4755,0.1749 2.5413,0.1898 2.5945,0.2276 C2.6478,0.2654 2.6839,0.323 2.6948,0.3874 L3.2408,3.6173 C3.2634,3.7516 3.1731,3.8788 3.0388,3.9016 L1.7758,4.1152 C1.7619,4.1175 1.748,4.1186 1.7343,4.1186 Z M1.4728,0.8442 L1.9367,3.5877 L2.7134,3.4564 L2.2496,0.7129 L1.4728,0.8442 Z" fill="#15003E"></path>
                    </g>
                    <g id="Shape" opacity="0.2" transform="translate(24.000000, 17.000000)" fill="#231F20">
                        <path d="M1.5415,0.3086 C1.5415,0.3086 1.0675,0.837 0.273,1.2501 L2.8063,1.2482 C2.0139,0.8354 1.5415,0.3086 1.5415,0.3086 Z" id="Path"></path>
                    </g>
                    <path d="M26.8188,18.4405 C26.781,18.4405 26.7425,18.4317 26.7065,18.4133 C26.2011,18.1541 25.7676,17.8209 25.5416,17.6338 C25.3155,17.8209 24.8821,18.1541 24.3766,18.4133 C24.255,18.4752 24.1067,18.4275 24.0447,18.3064 C23.9827,18.1853 24.0305,18.0366 24.1516,17.9745 C24.8191,17.6322 25.3696,17.1318 25.3751,17.1268 C25.4693,17.0405 25.614,17.0405 25.7082,17.1268 C25.7136,17.1318 26.2642,17.6322 26.9316,17.9745 C27.0529,18.0367 27.1006,18.1853 27.0385,18.3064 C26.9948,18.3915 26.9084,18.4405 26.8188,18.4405 Z" id="Shape" fill="#15003E"></path>
                    <g id="Shape" transform="translate(23.000000, 19.000000)">
                        <polygon id="Path" fill="#DDB40A" points="0.8078 1.0029 4.2751 1.0029 4.2751 2.5502 0.8078 2.5502"></polygon>
                        <path d="M4.2751,2.7968 L0.8077,2.7968 C0.6715,2.7968 0.5611,2.6864 0.5611,2.5502 L0.5611,1.0029 C0.5611,0.8667 0.6715,0.7563 0.8077,0.7563 L4.2751,0.7563 C4.4113,0.7563 4.5217,0.8667 4.5217,1.0029 L4.5217,2.5502 C4.5217,2.6864 4.4113,2.7968 4.2751,2.7968 Z M1.0544,2.3036 L4.0286,2.3036 L4.0286,1.2495 L1.0544,1.2495 L1.0544,2.3036 Z" fill="#15003E"></path>
                    </g>
                    <path d="M34.5654,9.9738 L33.2833,9.9738 C33.2179,9.9738 33.1552,9.9478 33.1089,9.9016 C32.2782,9.071 31.148,8.2218 29.0631,8.2218 C27.6025,8.2218 26.817,8.9398 26.2971,9.415 C26.0053,9.6817 25.7945,9.8744 25.5413,9.8744 C25.2881,9.8744 25.0773,9.6818 24.7857,9.415 C24.2658,8.9399 23.4804,8.2218 22.0197,8.2218 C19.9349,8.2218 18.8046,9.0709 17.9738,9.9016 C17.9275,9.9479 17.8648,9.9738 17.7994,9.9738 L16.5174,9.9738 C16.3812,9.9738 16.2708,9.8634 16.2708,9.7272 C16.2708,9.591 16.3812,9.4806 16.5174,9.4806 L17.6979,9.4806 C18.5935,8.6022 19.8153,7.7286 22.0196,7.7286 C23.6717,7.7286 24.5772,8.5565 25.1183,9.051 C25.2673,9.1872 25.4714,9.3738 25.5427,9.3812 C25.6112,9.3737 25.8153,9.1872 25.9644,9.051 C26.5054,8.5564 27.4111,7.7286 29.0631,7.7286 C31.2675,7.7286 32.4893,8.6022 33.3847,9.4806 L34.5653,9.4806 C34.7015,9.4806 34.8119,9.591 34.8119,9.7272 C34.8119,9.8634 34.7016,9.9738 34.5654,9.9738 Z" id="Shape" fill="#15003E"></path>
                    <g transform="translate(24.000000, 0.000000)">
                        <circle id="Oval" fill="#FFCE08" cx="1.5415" cy="1.5845" r="1"></circle>
                        <path d="M1.5414,2.2752 C1.1605,2.2752 0.8507,1.9654 0.8507,1.5845 C0.8507,1.2036 1.1605,0.8937 1.5414,0.8937 C1.9223,0.8937 2.2322,1.2036 2.2322,1.5845 C2.2322,1.9654 1.9223,2.2752 1.5414,2.2752 Z M1.5414,1.3869 C1.4325,1.3869 1.3439,1.4756 1.3439,1.5845 C1.3439,1.6934 1.4326,1.782 1.5414,1.782 C1.6504,1.782 1.739,1.6933 1.739,1.5845 C1.739,1.4756 1.6504,1.3869 1.5414,1.3869 Z" id="Shape" fill="#15003E"></path>
                    </g>
                    <path d="M27.766,17.1925 C27.7549,17.1925 27.7437,17.1918 27.7323,17.1903 C26.8392,17.0685 25.9124,16.3701 25.5413,16.0628 C25.1703,16.3702 24.2435,17.0686 23.3504,17.1903 C23.2155,17.2079 23.0911,17.1142 23.0727,16.9793 C23.0543,16.8444 23.1488,16.72 23.2837,16.7016 C24.2571,16.5688 25.3637,15.5654 25.3747,15.5554 C25.4689,15.4691 25.6136,15.4691 25.7078,15.5554 C25.7188,15.5654 26.8255,16.5688 27.7989,16.7016 C27.9338,16.72 28.0283,16.8443 28.0099,16.9793 C27.9932,17.1028 27.8874,17.1925 27.766,17.1925 Z" id="Shape" fill="#15003E"></path>
                    <g transform="translate(19.000000, 32.000000)">
                        <circle id="Oval" fill="#DDB40A" cx="6.5416" cy="6.9541" r="5.7198"></circle>
                        <path d="M6.5416,12.9205 C3.2517,12.9205 0.5751,10.2439 0.5751,6.9541 C0.5751,3.6643 3.2517,0.9876 6.5416,0.9876 C9.8315,0.9876 12.5079,3.6642 12.5079,6.9541 C12.5079,10.244 9.8315,12.9205 6.5416,12.9205 Z M6.5416,1.4808 C3.5236,1.4808 1.0683,3.9361 1.0683,6.9541 C1.0683,9.9721 3.5236,12.4274 6.5416,12.4274 C9.5595,12.4274 12.0148,9.9721 12.0148,6.9541 C12.0148,3.9361 9.5595,1.4808 6.5416,1.4808 Z" id="Shape" fill="#15003E"></path>
                    </g>
                    <g transform="translate(20.000000, 33.000000)">
                        <circle id="Oval" fill="#DDB40A" cx="5.5416" cy="5.9541" r="4.8618"></circle>
                        <path d="M5.5416,11.0625 C2.7248,11.0625 0.4331,8.7709 0.4331,5.954 C0.4331,3.1371 2.7247,0.8455 5.5416,0.8455 C8.3585,0.8455 10.6501,3.1371 10.6501,5.954 C10.6501,8.7709 8.3584,11.0625 5.5416,11.0625 Z M5.5416,1.3388 C2.9967,1.3388 0.9263,3.4092 0.9263,5.9541 C0.9263,8.499 2.9967,10.5694 5.5416,10.5694 C8.0865,10.5694 10.1569,8.499 10.1569,5.9541 C10.1569,3.4092 8.0865,1.3388 5.5416,1.3388 Z" id="Shape" fill="#15003E"></path>
                    </g>
                    <g transform="translate(21.000000, 34.000000)">
                        <circle id="Oval" fill="#FFCE08" cx="4.5416" cy="4.9541" r="4.1325"></circle>
                        <path d="M4.5416,9.3331 C2.127,9.3331 0.1625,7.3686 0.1625,4.954 C0.1625,2.5394 2.127,0.5749 4.5416,0.5749 C6.9562,0.5749 8.9207,2.5394 8.9207,4.954 C8.9207,7.3687 6.9562,9.3331 4.5416,9.3331 Z M4.5416,1.0681 C2.3989,1.0681 0.6557,2.8113 0.6557,4.954 C0.6557,7.0967 2.3989,8.8399 4.5416,8.8399 C6.6843,8.8399 8.4275,7.0967 8.4275,4.954 C8.4275,2.8113 6.6843,1.0681 4.5416,1.0681 Z" id="Shape" fill="#15003E"></path>
                    </g>
                    <g transform="translate(22.000000, 35.000000)">
                        <ellipse id="Oval" fill="#DDB40A" cx="3.5416" cy="3.9541" rx="3.1172" ry="3.1816"></ellipse>
                        <path d="M3.5416,7.3822 C1.6868,7.3822 0.1779,5.8443 0.1779,3.9541 C0.1779,2.0639 1.6868,0.526 3.5416,0.526 C5.3964,0.526 6.9053,2.0639 6.9053,3.9541 C6.9053,5.8443 5.3964,7.3822 3.5416,7.3822 Z M3.5416,1.0191 C1.9587,1.0191 0.671,2.3357 0.671,3.9541 C0.671,5.5725 1.9587,6.8891 3.5416,6.8891 C5.1245,6.8891 6.4122,5.5725 6.4122,3.9541 C6.4122,2.3357 5.1245,1.0191 3.5416,1.0191 Z" id="Shape" fill="#15003E"></path>
                    </g>
                    <g transform="translate(22.000000, 36.000000)">
                        <circle id="Oval" fill="#FFCE08" cx="3.5416" cy="2.9541" r="2.4083"></circle>
                        <path d="M3.5416,5.6089 C2.0777,5.6089 0.8867,4.4179 0.8867,2.954 C0.8867,1.4901 2.0777,0.2991 3.5416,0.2991 C5.0055,0.2991 6.1965,1.4901 6.1965,2.954 C6.1965,4.4179 5.0055,5.6089 3.5416,5.6089 Z M3.5416,0.7923 C2.3496,0.7923 1.3799,1.762 1.3799,2.954 C1.3799,4.146 2.3496,5.1157 3.5416,5.1157 C4.7336,5.1157 5.7033,4.146 5.7033,2.954 C5.7033,1.7621 4.7336,0.7923 3.5416,0.7923 Z" id="Shape" fill="#15003E"></path>
                    </g>
                    <g transform="translate(24.000000, 37.000000)">
                        <circle id="Oval" fill="#DDB40A" cx="1.5415" cy="1.9541" r="1.2894"></circle>
                        <path d="M1.5414,3.49 C0.6945,3.49 0.0055,2.801 0.0055,1.954 C0.0055,1.107 0.6945,0.418 1.5414,0.418 C2.3884,0.418 3.0774,1.107 3.0774,1.954 C3.0774,2.8011 2.3884,3.49 1.5414,3.49 Z M1.5414,0.9112 C0.9664,0.9112 0.4987,1.379 0.4987,1.954 C0.4987,2.529 0.9664,2.9968 1.5414,2.9968 C2.1164,2.9968 2.5842,2.529 2.5842,1.954 C2.5842,1.379 2.1164,0.9112 1.5414,0.9112 Z" id="Shape" fill="#15003E"></path>
                    </g>
                    <path d="M17.3866,70.5347 L16.4376,70.5347 C16.3014,70.5347 16.191,70.4242 16.191,70.2881 C16.191,70.152 16.3014,70.0415 16.4376,70.0415 L17.3866,70.0415 C17.5228,70.0415 17.6332,70.152 17.6332,70.2881 C17.6332,70.4242 17.5228,70.5347 17.3866,70.5347 Z M17.3866,69.8462 L16.3721,69.8462 C16.2359,69.8462 16.1255,69.7357 16.1255,69.5996 C16.1255,69.4635 16.2359,69.353 16.3721,69.353 L17.3866,69.353 C17.5228,69.353 17.6332,69.4635 17.6332,69.5996 C17.6332,69.7357 17.5228,69.8462 17.3866,69.8462 Z M16.2837,59.4255 C16.1856,59.4255 16.0928,59.3667 16.0544,59.27 C16.0041,59.1435 16.0659,59 16.1925,58.9498 L21.5486,56.8224 C21.6748,56.7722 21.8186,56.8339 21.8688,56.9605 C21.9191,57.0871 21.8573,57.2305 21.7307,57.2807 L16.3746,59.4082 C16.3448,59.4199 16.3139,59.4255 16.2837,59.4255 Z M25.5673,49.0495 C25.5444,49.0495 25.5216,49.0463 25.4995016,49.04 L15.6783,46.2283 C15.5473,46.1908 15.4716,46.0543 15.5091,45.9234 C15.5466,45.7926 15.6831,45.717 15.814,45.7542 L25.5687,48.5469 L35.1141,45.927 C35.2452,45.8913 35.381,45.9682 35.4172,46.0995 C35.4532,46.2308 35.376,46.3665 35.2447,46.4026 L25.6326,49.0408 C25.6112,49.0466 25.5892,49.0495 25.5673,49.0495 Z M45.721,47.7611 C45.6733,47.7611 45.6253,47.7474 45.5829,47.7187 L43.3346,46.1954 C43.2219,46.119 43.1924,45.9657 43.2688,45.8529 C43.3453,45.7404 43.4988,45.7108 43.6113,45.7871 L45.8596,47.3104 C45.9723,47.3868 46.0018,47.5401 45.9254,47.6529 C45.8777,47.7231 45.8,47.7611 45.721,47.7611 Z M46.0823,47.1962 C46.0344,47.1962 45.9862,47.1823 45.9436,47.1534 L44.8192,46.3869 C44.8161,46.3849 44.8131,46.3828 44.8101,46.3807 L43.686,45.6144 C43.5735,45.5377 43.5444,45.3843 43.6212,45.2718 C43.6979,45.1592 43.8512,45.1303 43.9638,45.207 L44.8843,45.8345 L46.4649,43.4044 C46.539,43.2901 46.6919,43.2576 46.806,43.3321 C46.9202,43.4063 46.9526,43.5591 46.8783,43.6732 L45.2919,46.1124 L46.2214,46.746 C46.3339,46.8227 46.363,46.9761 46.2862,47.0886 C46.2385,47.1585 46.161,47.1962 46.0823,47.1962 Z M6.7714,44.54 C6.7572,44.54 6.7428,44.5388 6.7283,44.5363 L5.5811,44.3344 C5.5183,44.3234 5.4623,44.2885 5.4247,44.237 L4.1192,42.4486 C4.0464,42.3489 4.0585,42.2109 4.1475,42.1254 L4.9354,41.368 C5.0335,41.2737 5.1896,41.2765 5.284,41.3749 C5.3783,41.4731 5.3753,41.6292 5.2772,41.7235 L4.6445,42.3316 L5.7645,43.8659 L6.8138,44.0506 C6.948,44.0742 7.0375,44.2021 7.0139,44.3362 C6.9929,44.4558 6.8889,44.54 6.7714,44.54 Z M1.536,41.4824 C1.5027,41.4824 1.4689,41.4756 1.4365,41.4614 C1.3119,41.4064 1.2555,41.2608 1.3104,41.1362 L1.8827,39.8395 C1.9377,39.7147 2.0836,39.6586 2.2079,39.7134 C2.3325,39.7684 2.3889,39.914 2.334,40.0386 L1.7617,41.3353 C1.721,41.4275 1.6306,41.4824 1.536,41.4824 Z M1.126,40.8413 C1.0937,40.8413 1.0609,40.8349 1.0294,40.8214 C0.9041,40.7681 0.8459,40.6232 0.8993,40.4979 L1.4581,39.1867 C1.5114,39.0613 1.6563,39.0028 1.7816,39.0566 C1.9069,39.1099 1.9651,39.2548 1.9117,39.3801 L1.3529,40.6913 C1.313,40.785 1.2219,40.8413 1.126,40.8413 Z M4.3183,39.2006 C4.2625,39.2006 4.2064,39.1818 4.1604,39.1433 C4.0558,39.056 4.0418,38.9005 4.1291,38.796 L12.247,29.0737 C12.3343,28.969 12.4899,28.9553 12.5943,29.0424 C12.6989,29.1297 12.7129,29.2852 12.6256,29.3897 L4.5077,39.112 C4.4589,39.1705 4.3888,39.2006 4.3183,39.2006 Z M35.9455,37.9114 L32.1413,37.9114 C32.0242,37.9114 31.9232,37.829 31.8997,37.7143 C31.278,34.6763 28.604,32.4713 25.5414,32.4713 C22.4432,32.4713 19.7669,34.6751 19.1778,37.7116 C19.1553,37.8275 19.0538,37.9112 18.9357,37.9112 L15.1891,37.9114 L15.1891,37.4182 L18.7354,37.4182 C19.4459,34.2539 22.2758,31.9781 25.5414,31.9781 C28.7706,31.9781 31.598,34.2538 32.3396,37.4182 L35.9455,37.4182 C36.0817,37.4182 36.1921,37.5286 36.1921,37.6648 C36.1921,37.801 36.0817,37.9114 35.9455,37.9114 Z" id="Shape" fill="#15003E"></path>
                    <g id="Shape" transform="translate(45.000000, 42.000000)">
                        <path d="M2.0976,1.555 C2.0976,1.7902 1.9069,1.9809 1.6717,1.9809 L1.6716,1.9809 C1.4364,1.9809 1.2457,1.7902 1.2457,1.555 C1.2456,1.3197 1.4363,1.1289 1.6716,1.1288 C1.9069,1.129 2.0975,1.3197 2.0976,1.555 Z" id="Path" fill="#FFCE08"></path>
                        <path d="M1.6717,2.2274 C1.3009,2.2274 0.999199901,1.9258 0.999199901,1.555 C0.999,1.1843 1.3006,0.8824 1.6715,0.8823 C2.0424,0.8826 2.3441,1.1843 2.3442,1.5549 L2.3442,1.555 C2.3442,1.9258 2.0425,2.2274 1.6717,2.2274 Z M1.6714,1.3753 C1.5728,1.3754 1.4923,1.4559 1.4923,1.5548 C1.4923,1.6537 1.5727,1.7342 1.6716,1.7342 C1.7705,1.7342 1.8511,1.6539 1.8511,1.555 C1.851,1.456 1.7704,1.3755 1.6714,1.3753 Z" fill="#15003E"></path>
                    </g>
                    <path d="M34.9894,61.2605 L33.5406,61.2605 C33.4044,61.2605 33.294,61.15 33.294,61.0139 C33.294,60.8778 33.4044,60.7673 33.5406,60.7673 L34.9894,60.7673 C35.1256,60.7673 35.236,60.8778 35.236,61.0139 C35.236,61.15 35.1256,61.2605 34.9894,61.2605 Z M34.9894,60.6372 L33.5406,60.6372 C33.4044,60.6372 33.294,60.5267 33.294,60.3906 C33.294,60.2545 33.4044,60.144 33.5406,60.144 L34.9894,60.144 C35.1256,60.144 35.236,60.2545 35.236,60.3906 C35.236,60.5267 35.1256,60.6372 34.9894,60.6372 Z M34.9894,59.9462 L33.5406,59.9462 C33.4044,59.9462 33.294,59.8357 33.294,59.6996 C33.294,59.5635 33.4044,59.453 33.5406,59.453 L34.9894,59.453 C35.1256,59.453 35.236,59.5635 35.236,59.6996 C35.236,59.8357 35.1256,59.9462 34.9894,59.9462 Z M16.0864,57.9194 C16.0212,57.9194 15.9562,57.8938 15.9077,57.8428 C15.8139,57.7441 15.8178,57.588 15.9165,57.4941 L16.8884,56.57 L16.6865,54.3067 L15.6743,54.4703 C15.5393,54.4926 15.4134,54.4006 15.3915,54.2661 C15.3698,54.1317 15.4612,54.0051 15.5957,53.9833 L16.8693,53.7775 C16.9369,53.7674 17.006,53.7844 17.06,53.8263 C17.114,53.8683 17.1481,53.9309 17.1542,53.9991 L17.3902,56.6448 C17.3969,56.7197 17.369,56.7935 17.3146,56.8454 L16.2565,57.8516 C16.2087,57.8969 16.1476,57.9194 16.0864,57.9194 Z M16.7231,30.4808 C16.3159,30.4808 15.9848,30.1495 15.9848,29.7424 L15.9848,27.482 C15.9848,27.0748 16.316,26.7437 16.7231,26.7437 C17.1302,26.7437 17.4615,27.0749 17.4615,27.482 L17.4615,29.7423 C17.4615,30.1495 17.1302,30.4808 16.7231,30.4808 Z M16.7231,27.2369 C16.588,27.2369 16.4779,27.3469 16.4779,27.4821 L16.4779,29.7424 C16.4779,29.8777 16.5879,29.9877 16.7231,29.9877 C16.8584,29.9877 16.9684,29.8777 16.9684,29.7424 L16.9684,27.482 C16.9684,27.3469 16.8583,27.2369 16.7231,27.2369 Z" id="Shape" fill="#15003E"></path>
                    <g transform="translate(15.000000, 26.000000)">
                        <circle id="Oval" fill="#25E899" cx="1.7232" cy="1.4821" r="1"></circle>
                        <path d="M1.7232,2.2204 C1.316,2.2204 0.9849,1.8892 0.9849,1.4821 C0.9849,1.0749 1.3161,0.7438 1.7232,0.7438 C2.1303,0.7438 2.4615,1.075 2.4615,1.4821 C2.4615,1.8892 2.1303,2.2204 1.7232,2.2204 Z M1.7232,1.2369 C1.5881,1.2369 1.478,1.3469 1.478,1.4821 C1.478,1.6173 1.588,1.7273 1.7232,1.7273 C1.8584,1.7273 1.9684,1.6173 1.9684,1.4821 C1.9684,1.3469 1.8583,1.2369 1.7232,1.2369 Z" id="Shape" fill="#15003E"></path>
                    </g>
                    <path d="M32.6442,55.4218 C32.6405,55.4218 32.6367,55.4217 32.633,55.4216 C32.4969,55.4155 32.3916,55.3002 32.3976,55.1642 L32.5,52.8781 C32.5061,52.7421 32.62,52.6381 32.7574,52.6427 C32.8935,52.6488 32.9988,52.7641 32.9928,52.9001 L32.8905,55.1862 C32.8843,55.3185 32.7752,55.4218 32.6442,55.4218 Z" id="Shape" fill="#15003E"></path>
                    <circle id="Oval" fill="#15003E" cx="32.6441" cy="55.1752" r="1"></circle>
                    <g id="Shape" transform="translate(29.000000, 4.000000)">
                        <path d="M1.7722,1.1814 C1.7722,1.5623 1.4634,1.8711 1.0825,1.8711 C0.7016,1.8711 0.3928,1.5623 0.3928,1.1814 C0.3928,0.8005 0.7015,0.4918 1.0824,0.4917" id="Path" fill="#DDB40A"></path>
                        <path d="M1.0825,2.1177 C0.5662,2.1177 0.1462,1.6977 0.1462,1.1814 C0.1462,0.6653 0.5662,0.2452 1.0823,0.2451 L1.0824,0.2451 C1.2186,0.2451 1.329,0.3555 1.329,0.4916 C1.329,0.6278 1.2186,0.7383 1.0825,0.7383 C0.8382,0.7384 0.6393,0.9371 0.6393,1.1815 C0.6393,1.4259 0.8381,1.6247 1.0825,1.6247 C1.3268,1.6247 1.5257,1.4259 1.5257,1.1815 C1.5257,1.0453 1.6361,0.9349 1.7723,0.9349 C1.9085,0.9349 2.0189,1.0453 2.0189,1.1815 C2.0188,1.6977 1.5988,2.1177 1.0825,2.1177 Z" id="Path" fill="#15003E"></path>
                    </g>
                    <path d="M44.6059,39.638 L42.722,37.7332 L42.8902,37.5598 C43.1419,37.3003 43.4889,37.1513 43.8548,37.1518982 C44.5966,37.1518982 45.2002004,37.7555 45.2002004,38.4975 C45.2005,38.8645 45.0477,39.2197 44.7812,39.4721 L44.6059,39.638 Z M43.437,37.7548 L44.5925,38.9232 C44.6667,38.7949 44.707,38.6479 44.7069002,38.4978 C44.7069002,38.0275 44.3245,37.6451 43.8545,37.6451 C43.7037,37.6531 43.5636,37.6837 43.437,37.7548 Z" id="Shape" fill="#15003E"></path>
                    <path d="M28.8059,77.6997 C28.749,77.6997 28.6917,77.68 28.6451,77.6401 C28.5419,77.5512 28.5303,77.3954 28.6191,77.2922 L29.3573,76.4345 L29.3573,75.4557 L28.5927,75.4557 C28.4565,75.4557 28.3461,75.3452 28.3461,75.2091 C28.3461,75.073 28.4565,74.9625 28.5927,74.9625 L29.6039,74.9625 C29.7401,74.9625 29.8505,75.073 29.8505,75.2091 L29.8505,76.526 C29.8505,76.585 29.8293,76.642 29.7908,76.6869 L28.9928,77.614 C28.9441,77.6707 28.8752,77.6997 28.8059,77.6997 Z M34.518,73.8737 C34.4689,73.8737 34.4192,73.859 34.3759,73.8284 L33.5885,73.272 C33.5231,73.2258 33.4842,73.1508 33.4842,73.0707 L33.4842,71.315 C33.4842,71.1789 33.5946,71.0684 33.7308,71.0684 L34.7379,71.0684 C34.8741,71.0684 34.9845,71.1789 34.9845,71.315 C34.9845,71.4511 34.8741,71.5616 34.7379,71.5616 L33.9773,71.5616 L33.9773,72.943 L34.6604,73.4259 C34.7716,73.5043 34.7981,73.6582 34.7195,73.7695 C34.6715,73.8374 34.5953,73.8737 34.518,73.8737 Z M44.0433,51.5584 C44.0322,51.5584 44.0211,51.5577 44.0099,51.5562 C43.8749,51.5379 43.7803,51.4137 43.7987,51.2787 L44.0049,49.7593 C44.0233,49.6243 44.1483,49.5296 44.2824,49.5481 C44.4174,49.5664 44.512,49.6906 44.4936,49.8256 L44.2874,51.345 C44.2706,51.4687 44.1648,51.5584 44.0433,51.5584 Z M7.1912,51.5457 C7.0669,51.5457 6.9601,51.4521 6.9463,51.3257 L6.7654,49.6584 C6.7508,49.523 6.8486,49.4014 6.984,49.3866 C7.1199,49.3717 7.2409,49.4697 7.2558,49.6052 L7.4367,51.2725 C7.4513,51.4079 7.3535,51.5295 7.2181,51.5443 C7.209,51.5453 7.2001,51.5457 7.1912,51.5457 Z M8.2671,51.2544 C8.1618,51.2544 8.0642,51.1863 8.0316,51.0805 L7.607,49.7047 C7.5668,49.5746 7.6397,49.4364 7.7698,49.3964 C7.9,49.3564 8.0381,49.4291 8.0781,49.5592 L8.5027,50.935 C8.5429,51.0651 8.47,51.2033 8.3399,51.2433 C8.3157,51.2507 8.2913,51.2544 8.2671,51.2544 Z M43.0024,51.2528 C42.9784,51.2528 42.9539,51.2493 42.9298,51.2418 C42.7996,51.2017 42.7266,51.0637 42.7667,50.9336 L43.1818,49.586 C43.2219,49.4558 43.3602,49.3825 43.49,49.4229 C43.6202,49.463 43.6932,49.601 43.6531,49.7311 L43.238,51.0787 C43.2053,51.1846 43.1077,51.2528 43.0024,51.2528 Z M41.856,50.7847 C41.8152,50.7847 41.7738,50.7746 41.7357,50.7532 C41.6169,50.6865 41.5745,50.5363 41.6411,50.4175 L42.3346,49.18 C42.4011,49.0612 42.5513,49.0185 42.6702,49.0853 C42.789,49.152 42.8314,49.3022 42.7649,49.421 L42.0713,50.6585 C42.026,50.7392 41.9423,50.7847 41.856,50.7847 Z M9.4306,50.7794 C9.3421,50.7794 9.2567,50.7316 9.2124,50.648 L8.5371,49.3715 C8.4734,49.2512 8.5194,49.102 8.6398,49.0383 C8.7601,48.9745 8.9095,49.0206 8.973,49.141 L9.6483,50.4175 C9.712,50.5378 9.666,50.687 9.5456,50.7507 C9.5089,50.7701 9.4695,50.7794 9.4306,50.7794 Z M10.0706,50.0128 C9.9996,50.0128 9.9289,49.9822 9.8802,49.9231 L8.8778,48.7063 C8.7912,48.6012 8.8062,48.4457 8.9112,48.3592 C9.0163,48.2723 9.1717,48.2873 9.2583,48.3926 L10.2607,49.6094 C10.3473,49.7145 10.3323,49.87 10.2273,49.9565 C10.1814,49.9945 10.1259,50.0128 10.0706,50.0128 Z M41.1894,49.9751 C41.1341,49.9751 41.0784,49.9566 41.0324,49.9186 C40.9275,49.8319 40.9127,49.6764 40.9995,49.5714 L41.9302,48.4457 C42.0172,48.3408 42.1726,48.3261 42.2774,48.4128 C42.3823,48.4995 42.3971,48.655 42.3103,48.76 L41.3795,49.8857 C41.3308,49.9447 41.2604,49.9751 41.1894,49.9751 Z M25.5673,49.7648 C25.5444,49.7648 25.5216,49.7616 25.4995016,49.7553 L15.6783,46.9436 C15.5473,46.9061 15.4716,46.7696 15.5091,46.6387 C15.5466,46.5079 15.6831,46.4322 15.814,46.4695 L25.5687,49.2622 L35.1141,46.6422 C35.2458,46.6065 35.381,46.6834 35.4172,46.8147 C35.4532,46.946 35.376,47.0817 35.2447,47.1178 L25.6326,49.7561 C25.6112,49.7619 25.5892,49.7648 25.5673,49.7648 Z M35.9455,35.7722 L34.7019,35.7722 C34.5657,35.7722 34.4553,35.6618 34.4553,35.5256 C34.4553,35.3894 34.5657,35.279 34.7019,35.279 L35.9455,35.279 C36.0817,35.279 36.1921,35.3894 36.1921,35.5256 C36.1921,35.6618 36.0817,35.7722 35.9455,35.7722 Z M46.6717,35.4934 C46.6127,35.4934 46.5553,35.4722 46.5102,35.4331 L45.1781,34.2784 C45.1256,34.233 45.0949,34.1675 45.0932,34.0982 C45.0915,34.0289 45.1191,33.962 45.1692,33.914 L45.9121,33.2027 C46.0103,33.1086 46.1666,33.1119 46.2607,33.2103 C46.3549,33.3087 46.3515,33.4648 46.2531,33.5589 L45.7057,34.083 L46.7504,34.9886 L47.6177,34.8817 C47.7542,34.8656 47.876,34.9612 47.8926,35.0963 C47.9093,35.2314 47.8132,35.3545 47.678,35.3712 L46.7019,35.4915 C46.6918,35.4928 46.6817,35.4934 46.6717,35.4934 Z M35.9455,35.1914 L34.7019,35.1914 C34.5657,35.1914 34.4553,35.081 34.4553,34.9448 C34.4553,34.8086 34.5657,34.6982 34.7019,34.6982 L35.9455,34.6982 C36.0817,34.6982 36.1921,34.8086 36.1921,34.9448 C36.1921,35.081 36.0817,35.1914 35.9455,35.1914 Z M35.9455,34.6086 L34.7019,34.6086 C34.5657,34.6086 34.4553,34.4982 34.4553,34.362 C34.4553,34.2258 34.5657,34.1154 34.7019,34.1154 L35.9455,34.1154 C36.0817,34.1154 36.1921,34.2258 36.1921,34.362 C36.1921,34.4982 36.0817,34.6086 35.9455,34.6086 Z" id="Shape" fill="#15003E"></path>
                    <path d="M34.6342,15.9839 C34.6187,15.9839 34.603,15.9824 34.5873,15.9794 C34.4535,15.9537 34.366,15.8244 34.3917,15.6906 L34.6543,14.3251 L34.3189,14.2669 C34.1847,14.2436 34.0948,14.116 34.118,13.9819 C34.1413,13.8477 34.2693,13.7579 34.403,13.781 L34.7473,13.8407 L35.0078,12.4857 C35.0335,12.3519 35.1638,12.2643 35.2966,12.2901 C35.4304,12.3158 35.5179,12.4451 35.4922,12.5789 L35.2333,13.925 L35.6651,13.9999 C35.7993,14.0232 35.8892,14.1508 35.866,14.2849 C35.8427,14.4192 35.715,14.5094 35.581,14.4858 L35.1402,14.4094 L34.876,15.7837 C34.8533,15.9017 34.75,15.9839 34.6342,15.9839 Z M16.4422,15.9839 C16.3262,15.9839 16.2228,15.9015 16.2003,15.7833 L15.9391,14.41 L15.5018,14.4859 C15.3678,14.5092 15.2401,14.4193 15.2168,14.285 C15.1935,14.1508 15.2835,14.0233 15.4177,14 L15.847,13.9255 L15.5909,12.5784 C15.5654,12.4446 15.6533,12.3156 15.787,12.2902 C15.9201,12.2643 16.0498,12.3525 16.0752,12.4863 L16.3329,13.8412 L16.6799,13.781 C16.8137,13.7576 16.9415,13.8477 16.9649,13.9819 C16.9882,14.1161 16.8982,14.2436 16.764,14.2669 L16.425,14.3258 L16.6846,15.6912 C16.7101,15.825 16.6223,15.954 16.4884,15.9794 C16.4731,15.9824 16.4575,15.9839 16.4422,15.9839 Z" id="Shape" fill="#15003E"></path>
                    <path d="M22.545,67.7418 C22.4088,67.7418 22.2984,67.6313 22.2984,67.4952 L22.2984,62.9502 C22.2984,62.8141 22.4088,62.7036 22.545,62.7036 C22.6812,62.7036 22.7916,62.8141 22.7916,62.9502 L22.7916,67.4952 C22.7916,67.6313 22.6812,67.7418 22.545,67.7418 Z M21.1268,67.7418 C20.9906,67.7418 20.8802,67.6313 20.8802,67.4952 L20.8802,62.9502 C20.8802,62.8141 20.9906,62.7036 21.1268,62.7036 C21.263,62.7036 21.3734,62.8141 21.3734,62.9502 L21.3734,67.4952 C21.3734,67.6313 21.2631,67.7418 21.1268,67.7418 Z M19.1756,67.7418 C19.0394,67.7418 18.929,67.6313 18.929,67.4952 L18.929,62.9502 C18.929,62.8141 19.0394,62.7036 19.1756,62.7036 C19.3118,62.7036 19.4222,62.8141 19.4222,62.9502 L19.4222,67.4952 C19.4222,67.6313 19.3118,67.7418 19.1756,67.7418 Z M17.3887,67.7418 C17.2525,67.7418 17.1421,67.6313 17.1421,67.4952 L17.1421,62.9502 C17.1421,62.8141 17.2525,62.7036 17.3887,62.7036 C17.5249,62.7036 17.6353,62.8141 17.6353,62.9502 L17.6353,67.4952 C17.6352,67.6313 17.5249,67.7418 17.3887,67.7418 Z M33.8842,67.7055 C33.748,67.7055 33.6376,67.595 33.6376,67.4589 L33.6376,62.9141 C33.6376,62.778 33.748,62.6675 33.8842,62.6675 C34.0204,62.6675 34.1308,62.778 34.1308,62.9141 L34.1308,67.4589 C34.1308,67.595 34.0204,67.7055 33.8842,67.7055 Z M32.0975,67.7055 C31.9613,67.7055 31.8509,67.595 31.8509,67.4589 L31.8509,62.9141 C31.8509,62.778 31.9613,62.6675 32.0975,62.6675 C32.2337,62.6675 32.3441,62.778 32.3441,62.9141 L32.3441,67.4589 C32.3441,67.595 32.2337,67.7055 32.0975,67.7055 Z M30.1461,67.7055 C30.0099,67.7055 29.8995,67.595 29.8995,67.4589 L29.8995,62.9141 C29.8995,62.778 30.0099,62.6675 30.1461,62.6675 C30.2823,62.6675 30.3927,62.778 30.3927,62.9141 L30.3927,67.4589 C30.3927,67.595 30.2823,67.7055 30.1461,67.7055 Z M28.728,67.7055 C28.5918,67.7055 28.4814,67.595 28.4814,67.4589 L28.4814,62.9141 C28.4814,62.778 28.5918,62.6675 28.728,62.6675 C28.8642,62.6675 28.9746,62.778 28.9746,62.9141 L28.9746,67.4589 C28.9746,67.595 28.8642,67.7055 28.728,67.7055 Z" id="Shape" fill="#15003E"></path>
                    <g transform="translate(17.000000, 9.000000)">
                        <circle id="Oval" fill="#0FCE7C" cx="4.511" cy="3.6695" r="3.2799"></circle>
                        <path d="M4.511,7.196 C2.5665,7.196 0.9846,5.614 0.9846,3.6695 C0.9846,1.725 2.5665,0.1431 4.511,0.1431 C6.4555,0.1431 8.0375,1.725 8.0375,3.6695 C8.0375,5.614 6.4555,7.196 4.511,7.196 Z M4.511,0.6362 C2.8385,0.6362 1.4777,1.997 1.4777,3.6695 C1.4777,5.3421 2.8385,6.7029 4.511,6.7029 C6.1836,6.7029 7.5444,5.3421 7.5444,3.6695 C7.5444,1.997 6.1836,0.6362 4.511,0.6362 Z" id="Shape" fill="#15003E"></path>
                    </g>
                    <path d="M22.8751,11.2312 C22.8751,11.6184 22.5612,11.9323 22.174,11.9323 C21.7868,11.9323 21.4729,11.6184 21.4729,11.2312 C21.4729,10.844 21.7868,10.5301 22.174,10.5301 C22.5612,10.5301 22.8751,10.844 22.8751,11.2312 M23.376,12.2792 C23.376,12.4358 23.2491,12.5627 23.0925,12.5627 C22.9359,12.5627 22.809,12.4358 22.809,12.2792 C22.809,12.1226 22.9359,11.9957 23.0925,11.9957 C23.2491,11.9957 23.376,12.1226 23.376,12.2792" id="Shape" fill="#FFFFFF"></path>
                    <g transform="translate(26.000000, 9.000000)">
                        <g>
                            <circle id="Oval" fill="#0FCE7C" cx="3.5719" cy="3.6695" r="3.2799"></circle>
                            <path d="M3.5719,7.196 C1.6274,7.196 0.0454,5.614 0.0454,3.6695 C0.0454,1.725 1.6274,0.1431 3.5719,0.1431 C5.5164,0.1431 7.0983,1.725 7.0983,3.6695 C7.0983,5.614 5.5164,7.196 3.5719,7.196 Z M3.5719,0.6362 C1.8993,0.6362 0.5385,1.997 0.5385,3.6695 C0.5385,5.3421 1.8993,6.7029 3.5719,6.7029 C5.2444,6.7029 6.6052,5.3421 6.6052,3.6695 C6.6052,1.997 5.2444,0.6362 3.5719,0.6362 Z" id="Shape" fill="#15003E"></path>
                        </g>
                        <path d="M5.2227,2.2312 C5.2227,2.6184 4.9088,2.9323 4.5216,2.9323 C4.1344,2.9323 3.8205,2.6184 3.8205,2.2312 C3.8205,1.844 4.1344,1.5301 4.5216,1.5301 C4.9088,1.5301 5.2227,1.844 5.2227,2.2312 M5.7236,3.2792 C5.7236,3.4358 5.5967,3.5627 5.4401,3.5627 C5.2835,3.5627 5.1566,3.4358 5.1566,3.2792 C5.1566,3.1226 5.2835,2.9957 5.4401,2.9957 C5.5967,2.9957 5.7236,3.1226 5.7236,3.2792" id="Shape" fill="#FFFFFF"></path>
                    </g>
                    <g transform="translate(12.000000, 20.000000)">
                        <path d="M9.9443,58.165 C9.9443,58.3433 9.7997,58.4879 9.6214,58.4879 C9.4431,58.4879 9.2985,58.3433 9.2985,58.165 C9.3039,57.9867 9.4528,57.8464 9.6311,57.8518 C9.8019,57.857 9.9392,57.9942 9.9443,58.165 Z M10.0894,57.2181 C10.0894,57.3964 9.9448,57.541 9.7665,57.541 C9.5882,57.541 9.4436,57.3964 9.4436,57.2181 C9.449,57.0398 9.5979,56.8995 9.7762,56.9049 C9.947,56.9101 10.0842,57.0473 10.0894,57.2181 Z" id="Shape" fill="#15003E"></path>
                        <path d="M23.5133,6.7817 C23.5133,6.9835 23.3497,7.147 23.148,7.147 C22.9462,7.147 22.7827,6.9834 22.7827,6.7817 C22.7827,6.5799 22.9463,6.4164 23.148,6.4164 C23.3498,6.4164 23.5133,6.58 23.5133,6.7817 Z M23.5133,7.7994 C23.5133,8.0012 23.3497,8.1647 23.148,8.1647 C22.9462,8.1647 22.7827,8.0011 22.7827,7.7994 C22.7827,7.5976 22.9463,7.4341 23.148,7.4341 C23.3498,7.4341 23.5133,7.5977 23.5133,7.7994 Z M23.5133,8.8336 C23.5133,9.0354 23.3497,9.1989 23.148,9.1989 C22.9462,9.1989 22.7827,9.0353 22.7827,8.8336 C22.7827,8.6318 22.9463,8.4683 23.148,8.4683 C23.3498,8.4683 23.5133,8.6319 23.5133,8.8336 Z" id="Shape" fill="#25E899"></path>
                        <path d="M32.294,18.932 C32.4135,18.819 32.4811,18.6617 32.4810001,18.4973 C32.4808,18.1656 32.2118,17.8969 31.8802,17.8970999 C31.7182,17.8972 31.5631,17.9627 31.4502,18.0788 L32.294,18.932 Z" id="Shape" fill="#15003E"></path>
                        <circle id="Oval" fill="#15003E" cx="27.7925" cy="7.9736" r="1"></circle>
                        <path d="M0.8227,9.2318 C0.8227,9.4452 0.6497,9.6182 0.436299978,9.6182 C0.2229,9.6182 0.0499,9.4452 0.0499,9.2318 C0.0498,9.0184 0.2228,8.8453 0.4362,8.8452 C0.4362,8.8452 0.436299978,8.8452 0.436299978,8.8452 C0.6497,8.8455 0.8226,9.0184 0.8227,9.2318 Z M11.8078,0.3668 L15.2751,0.3668 L15.2751,0.9912 L11.8078,0.9912 L11.8078,0.3668 Z" id="Shape" fill="#15003E"></path>
                        <path d="M4.4589,29.6322 C4.4589,29.834 4.2953,29.9975 4.0936,29.9975 C3.8918,29.9975 3.7283,29.8339 3.7283,29.6322 C3.7283,29.4304 3.8919,29.2669 4.0936,29.2669 C4.2953,29.2669 4.4589,29.4304 4.4589,29.6322 Z M5.5096,29.8833 C5.5096,30.0851 5.346,30.2486 5.1443,30.2486 C4.9425,30.2486 4.779,30.085 4.779,29.8833 C4.783,29.6815 4.9498,29.5212 5.1516,29.5253 C5.3477,29.5291 5.5057,29.6872 5.5096,29.8833 Z" id="Shape" fill="#25E899"></path>
                    </g>
                </g>
            </g>
        </g>
    </g>
</svg>