<?xml version="1.0" encoding="UTF-8"?>
<svg width="79px" height="62px" viewBox="0 0 79 62" version="1.1" xmlns="http://www.w3.org/2000/svg" xmlns:xlink="http://www.w3.org/1999/xlink">
    <!-- Generator: Sketch 55.2 (78181) - https://sketchapp.com -->
    <title>Group 2</title>
    <desc>Created with Sketch.</desc>
    <defs>
        <linearGradient x1="-7.20816327%" y1="53.75%" x2="106.736735%" y2="53.75%" id="linearGradient-1">
            <stop stop-color="#FF4746" offset="0%"></stop>
            <stop stop-color="#FF3E3E" offset="52.7%"></stop>
            <stop stop-color="#FF1559" offset="100%"></stop>
        </linearGradient>
        <linearGradient x1="40.8186858%" y1="43.1911009%" x2="57.8582976%" y2="54.8866905%" id="linearGradient-2">
            <stop stop-color="#9393B5" offset="0%"></stop>
            <stop stop-color="#DADAF2" stop-opacity="0" offset="100%"></stop>
        </linearGradient>
        <linearGradient x1="44.3843127%" y1="47.8553711%" x2="55.2810264%" y2="53.245218%" id="linearGradient-3">
            <stop stop-color="#B3A5CC" offset="0%"></stop>
            <stop stop-color="#DADAF2" stop-opacity="0" offset="100%"></stop>
        </linearGradient>
        <linearGradient x1="35.4800786%" y1="-2.55220799%" x2="56.9919202%" y2="82.399758%" id="linearGradient-4">
            <stop stop-color="#0E2947" offset="0%"></stop>
            <stop stop-color="#143954" stop-opacity="0" offset="100%"></stop>
        </linearGradient>
        <linearGradient x1="42.4535456%" y1="53.2489832%" x2="56.7883111%" y2="49.2169902%" id="linearGradient-5">
            <stop stop-color="#9393B5" offset="0%"></stop>
            <stop stop-color="#DADAF2" stop-opacity="0" offset="100%"></stop>
        </linearGradient>
        <linearGradient x1="45.0984245%" y1="53.572746%" x2="54.1623361%" y2="49.4232886%" id="linearGradient-6">
            <stop stop-color="#B3A5CC" offset="0%"></stop>
            <stop stop-color="#DADAF2" stop-opacity="0" offset="100%"></stop>
        </linearGradient>
        <linearGradient x1="-12.3019244%" y1="-28.7084326%" x2="77.4050232%" y2="93.8837741%" id="linearGradient-7">
            <stop stop-color="#0E2947" offset="0%"></stop>
            <stop stop-color="#143954" stop-opacity="0" offset="100%"></stop>
        </linearGradient>
        <radialGradient cx="50.5442308%" cy="61.8086538%" fx="50.5442308%" fy="61.8086538%" r="50.1846154%" id="radialGradient-8">
            <stop stop-color="#6152F5" offset="0%"></stop>
            <stop stop-color="#9393B5" stop-opacity="0" offset="100%"></stop>
        </radialGradient>
        <linearGradient x1="50.1781609%" y1="35.6391304%" x2="50.1781609%" y2="68.7637681%" id="linearGradient-9">
            <stop stop-color="#DADAF2" offset="0%"></stop>
            <stop stop-color="#F1F2F2" stop-opacity="0" offset="100%"></stop>
        </linearGradient>
        <linearGradient x1="2.08%" y1="51.2369231%" x2="99.5756522%" y2="51.2369231%" id="linearGradient-10">
            <stop stop-color="#FF0303" offset="0.5405406%"></stop>
            <stop stop-color="#FF3E3E" stop-opacity="0" offset="100%"></stop>
        </linearGradient>
        <linearGradient x1="120.58129%" y1="35.5725021%" x2="15.5167309%" y2="69.3270715%" id="linearGradient-11">
            <stop stop-color="#FFAB96" offset="0.5405406%"></stop>
            <stop stop-color="#FF6D96" stop-opacity="0" offset="100%"></stop>
        </linearGradient>
        <radialGradient cx="54.6884806%" cy="52.0590909%" fx="54.6884806%" fy="52.0590909%" r="56.1227273%" gradientTransform="translate(0.546885,0.520591),scale(0.802122,1.000000),translate(-0.546885,-0.520591)" id="radialGradient-12">
            <stop stop-color="#6A0000" offset="0%"></stop>
            <stop stop-color="#BE1E2D" stop-opacity="0" offset="100%"></stop>
        </radialGradient>
        <linearGradient x1="97.638786%" y1="32.0372523%" x2="23.0884431%" y2="60.1528829%" id="linearGradient-13">
            <stop stop-color="#FFC145" offset="0.5405406%"></stop>
            <stop stop-color="#FF6D96" stop-opacity="0" offset="100%"></stop>
        </linearGradient>
        <linearGradient x1="-3.01738343%" y1="50.5043452%" x2="97.9264209%" y2="50.5043452%" id="linearGradient-14">
            <stop stop-color="#FF0303" offset="0.5405406%"></stop>
            <stop stop-color="#FF3E3E" stop-opacity="0" offset="100%"></stop>
        </linearGradient>
        <radialGradient cx="60.6362668%" cy="56.8223611%" fx="60.6362668%" fy="56.8223611%" r="61.0942556%" gradientTransform="translate(0.606363,0.568224),scale(0.653078,1.000000),translate(-0.606363,-0.568224)" id="radialGradient-15">
            <stop stop-color="#6A0000" offset="0%"></stop>
            <stop stop-color="#BE1E2D" stop-opacity="0" offset="100%"></stop>
        </radialGradient>
        <radialGradient cx="51.3303234%" cy="67.1440565%" fx="51.3303234%" fy="67.1440565%" r="65.2245745%" gradientTransform="translate(0.513303,0.671441),scale(0.651702,1.000000),translate(-0.513303,-0.671441)" id="radialGradient-16">
            <stop stop-color="#6A0000" offset="0%"></stop>
            <stop stop-color="#BE1E2D" stop-opacity="0" offset="100%"></stop>
        </radialGradient>
        <linearGradient x1="-0.201697821%" y1="50.3850343%" x2="99.8423676%" y2="50.3850343%" id="linearGradient-17">
            <stop stop-color="#FF0303" offset="0.5405406%"></stop>
            <stop stop-color="#FF3E3E" stop-opacity="0" offset="100%"></stop>
        </linearGradient>
        <linearGradient x1="6.05620605%" y1="50.3258065%" x2="99.1844725%" y2="50.3258065%" id="linearGradient-18">
            <stop stop-color="#6A0000" offset="0%"></stop>
            <stop stop-color="#BE1E2D" stop-opacity="0" offset="100%"></stop>
        </linearGradient>
        <linearGradient x1="116.844158%" y1="16.1506571%" x2="26.2472934%" y2="93.6547476%" id="linearGradient-19">
            <stop stop-color="#FFAB96" offset="0.5405406%"></stop>
            <stop stop-color="#FF6D96" stop-opacity="0" offset="100%"></stop>
        </linearGradient>
        <linearGradient x1="87.0729596%" y1="19.4666055%" x2="40.0180285%" y2="70.635539%" id="linearGradient-20">
            <stop stop-color="#FFC145" offset="0.5405406%"></stop>
            <stop stop-color="#FF6D96" stop-opacity="0" offset="100%"></stop>
        </linearGradient>
        <linearGradient x1="53.798062%" y1="101.228649%" x2="46.0311522%" y2="2.92454598%" id="linearGradient-21">
            <stop stop-color="#EA6374" offset="0%"></stop>
            <stop stop-color="#FFE292" stop-opacity="0" offset="100%"></stop>
        </linearGradient>
        <linearGradient x1="24.6911547%" y1="22.4987789%" x2="60.4619731%" y2="74.0159483%" id="linearGradient-22">
            <stop stop-color="#FFC145" offset="0.5405406%"></stop>
            <stop stop-color="#FF6D96" stop-opacity="0" offset="100%"></stop>
        </linearGradient>
        <radialGradient cx="41.8709677%" cy="14.0064516%" fx="41.8709677%" fy="14.0064516%" r="77.3741935%" gradientTransform="translate(0.418710,0.140065),scale(0.500000,1.000000),translate(-0.418710,-0.140065)" id="radialGradient-23">
            <stop stop-color="#FFA9C4" offset="0%"></stop>
            <stop stop-color="#FFA9C4" stop-opacity="0" offset="99.46%"></stop>
        </radialGradient>
        <linearGradient x1="-0.50483871%" y1="50.6769231%" x2="99.4%" y2="50.6769231%" id="linearGradient-24">
            <stop stop-color="#143954" offset="0.5405406%"></stop>
            <stop stop-color="#143954" stop-opacity="0" offset="100%"></stop>
        </linearGradient>
        <linearGradient x1="110.810732%" y1="66.1492808%" x2="3.7910377%" y2="39.4619345%" id="linearGradient-25">
            <stop stop-color="#FFAB96" offset="0.5405406%"></stop>
            <stop stop-color="#FF6D96" stop-opacity="0" offset="100%"></stop>
        </linearGradient>
        <linearGradient x1="82.5134027%" y1="63.1494086%" x2="24.9734339%" y2="41.5225264%" id="linearGradient-26">
            <stop stop-color="#FFC145" offset="0.5405406%"></stop>
            <stop stop-color="#FF6D96" stop-opacity="0" offset="100%"></stop>
        </linearGradient>
        <linearGradient x1="1.3028982%" y1="68.3601141%" x2="72.670256%" y2="45.3536141%" id="linearGradient-27">
            <stop stop-color="#6A0000" offset="0%"></stop>
            <stop stop-color="#940F17" stop-opacity="0.4992" offset="50.08%"></stop>
            <stop stop-color="#BE1E2D" stop-opacity="0" offset="100%"></stop>
        </linearGradient>
        <linearGradient x1="0.547934482%" y1="49.0957728%" x2="100.592%" y2="49.0957728%" id="linearGradient-28">
            <stop stop-color="#BE1E2D" offset="0.5405406%"></stop>
            <stop stop-color="#FF3E3E" stop-opacity="0" offset="100%"></stop>
        </linearGradient>
        <linearGradient x1="44.425%" y1="6.86710372%" x2="52.9166667%" y2="60.2765174%" id="linearGradient-29">
            <stop stop-color="#FF6D96" offset="0.5405406%"></stop>
            <stop stop-color="#FF3E3E" stop-opacity="0" offset="100%"></stop>
        </linearGradient>
        <linearGradient x1="-5.33529412%" y1="47.9037607%" x2="98.7941176%" y2="47.9037607%" id="linearGradient-30">
            <stop stop-color="#FF0303" offset="0.5405406%"></stop>
            <stop stop-color="#FF3E3E" stop-opacity="0" offset="100%"></stop>
        </linearGradient>
        <linearGradient x1="-0.316129032%" y1="49.65%" x2="99.5887097%" y2="49.65%" id="linearGradient-31">
            <stop stop-color="#6A0000" offset="0%"></stop>
            <stop stop-color="#BE1E2D" stop-opacity="0" offset="100%"></stop>
        </linearGradient>
        <linearGradient x1="0.333220833%" y1="-11.2600375%" x2="65.1799696%" y2="70.0611921%" id="linearGradient-32">
            <stop stop-color="#D6D6EA" offset="0%"></stop>
            <stop stop-color="#6152F5" stop-opacity="0" offset="100%"></stop>
        </linearGradient>
        <linearGradient x1="-12.44367%" y1="97.9285317%" x2="68.8775596%" y2="33.0817829%" id="linearGradient-33">
            <stop stop-color="#D6D6EA" offset="0%"></stop>
            <stop stop-color="#6152F5" stop-opacity="0" offset="100%"></stop>
        </linearGradient>
        <linearGradient x1="82.832305%" y1="119.616712%" x2="12.0168439%" y2="23.5333998%" id="linearGradient-34">
            <stop stop-color="#FFAB96" offset="0.5405406%"></stop>
            <stop stop-color="#FF6D96" stop-opacity="0" offset="100%"></stop>
        </linearGradient>
        <linearGradient x1="76.8172291%" y1="86.3161311%" x2="32.3183093%" y2="40.1370118%" id="linearGradient-35">
            <stop stop-color="#FFC145" offset="0.5405406%"></stop>
            <stop stop-color="#FF6D96" stop-opacity="0" offset="100%"></stop>
        </linearGradient>
        <linearGradient x1="1.77080635%" y1="50.2095077%" x2="102.124715%" y2="50.2095077%" id="linearGradient-36">
            <stop stop-color="#EA6374" offset="0%"></stop>
            <stop stop-color="#FFE292" stop-opacity="0" offset="100%"></stop>
        </linearGradient>
        <linearGradient x1="84.1981178%" y1="27.47135%" x2="22.0662027%" y2="57.8449066%" id="linearGradient-37">
            <stop stop-color="#FFC145" offset="0.5405406%"></stop>
            <stop stop-color="#FF6D96" stop-opacity="0" offset="100%"></stop>
        </linearGradient>
        <linearGradient x1="107.900855%" y1="68.1097022%" x2="2.9966599%" y2="42.671944%" id="linearGradient-38">
            <stop stop-color="#EC106C" offset="0%"></stop>
            <stop stop-color="#FF157D" offset="100%"></stop>
        </linearGradient>
        <linearGradient x1="71.1222%" y1="63.9005504%" x2="29.5107672%" y2="45.6748429%" id="linearGradient-39">
            <stop stop-color="#FFA9C4" offset="0.5405406%"></stop>
            <stop stop-color="#EE2A7B" stop-opacity="0" offset="100%"></stop>
        </linearGradient>
        <linearGradient x1="11.24858%" y1="65.0376014%" x2="81.8796682%" y2="12.8906075%" id="linearGradient-40">
            <stop stop-color="#EA6374" offset="0%"></stop>
            <stop stop-color="#FFE292" stop-opacity="0" offset="100%"></stop>
        </linearGradient>
        <linearGradient x1="67.1887362%" y1="1.21970763%" x2="40.4211309%" y2="76.0396469%" id="linearGradient-41">
            <stop stop-color="#EE2A7B" offset="0.5405406%"></stop>
            <stop stop-color="#FF6D96" stop-opacity="0" offset="100%"></stop>
        </linearGradient>
        <linearGradient x1="-17.8288653%" y1="43.0987878%" x2="92.7860698%" y2="59.7010765%" id="linearGradient-42">
            <stop stop-color="#FFAB96" offset="0.5405406%"></stop>
            <stop stop-color="#FF6D96" stop-opacity="0" offset="100%"></stop>
        </linearGradient>
        <linearGradient x1="20.0449249%" y1="43.6067606%" x2="63.2058536%" y2="54.2189858%" id="linearGradient-43">
            <stop stop-color="#FFC145" offset="0.5405406%"></stop>
            <stop stop-color="#FF6D96" stop-opacity="0" offset="100%"></stop>
        </linearGradient>
        <linearGradient x1="74.839137%" y1="78.8537368%" x2="31.4191974%" y2="-0.874122819%" id="linearGradient-44">
            <stop stop-color="#EA6374" offset="0%"></stop>
            <stop stop-color="#FFE292" stop-opacity="0" offset="100%"></stop>
        </linearGradient>
        <linearGradient x1="39.8376175%" y1="-11.5680079%" x2="52.8265368%" y2="87.0564226%" id="linearGradient-45">
            <stop stop-color="#FFC145" offset="0.5405406%"></stop>
            <stop stop-color="#FF6D96" stop-opacity="0" offset="100%"></stop>
        </linearGradient>
        <linearGradient x1="89.0849468%" y1="44.0837017%" x2="45.8992153%" y2="49.3429692%" id="linearGradient-46">
            <stop stop-color="#FF0013" offset="0.5405406%"></stop>
            <stop stop-color="#FF6D96" stop-opacity="0" offset="100%"></stop>
        </linearGradient>
        <linearGradient x1="24.0350501%" y1="73.503024%" x2="72.6640809%" y2="1.56637479%" id="linearGradient-47">
            <stop stop-color="#EA6374" offset="0%"></stop>
            <stop stop-color="#EA6374" stop-opacity="0" offset="100%"></stop>
        </linearGradient>
        <linearGradient x1="62.6930449%" y1="-10.9875461%" x2="46.1247638%" y2="83.9033966%" id="linearGradient-48">
            <stop stop-color="#FF113E" offset="0%"></stop>
            <stop stop-color="#FF0013" stop-opacity="0" offset="100%"></stop>
        </linearGradient>
        <linearGradient x1="101.796957%" y1="89.1206654%" x2="41.6774605%" y2="49.3296526%" id="linearGradient-49">
            <stop stop-color="#FF0013" offset="0.5405406%"></stop>
            <stop stop-color="#FF6D96" stop-opacity="0" offset="100%"></stop>
        </linearGradient>
        <linearGradient x1="-0.341061992%" y1="59.4671222%" x2="86.0192982%" y2="22.6390347%" id="linearGradient-50">
            <stop stop-color="#EA6374" offset="0%"></stop>
            <stop stop-color="#EA6374" stop-opacity="0" offset="100%"></stop>
        </linearGradient>
        <linearGradient x1="69.2550003%" y1="11.2511967%" x2="35.026118%" y2="68.5432231%" id="linearGradient-51">
            <stop stop-color="#FF113E" offset="0%"></stop>
            <stop stop-color="#FF0013" stop-opacity="0" offset="100%"></stop>
        </linearGradient>
        <linearGradient x1="16.9501359%" y1="97.7633051%" x2="55.8561198%" y2="50.3311171%" id="linearGradient-52">
            <stop stop-color="#FF0013" offset="0.5405406%"></stop>
            <stop stop-color="#FF6D96" stop-opacity="0" offset="100%"></stop>
        </linearGradient>
        <linearGradient x1="92.5317267%" y1="46.6160312%" x2="-2.46183951%" y2="54.2423321%" id="linearGradient-53">
            <stop stop-color="#EA6374" offset="0%"></stop>
            <stop stop-color="#EA6374" stop-opacity="0" offset="100%"></stop>
        </linearGradient>
        <linearGradient x1="5.36476011%" y1="32.8471009%" x2="80.8977941%" y2="56.4436763%" id="linearGradient-54">
            <stop stop-color="#FF113E" offset="0%"></stop>
            <stop stop-color="#FF0013" stop-opacity="0" offset="100%"></stop>
        </linearGradient>
    </defs>
    <g id="Page-1" stroke="none" stroke-width="1" fill="none" fill-rule="evenodd">
        <g id="Group-2">
            <g id="Group" transform="translate(26.000000, 24.000000)"></g>
            <circle id="Oval" fill="#FFEBD4" fill-rule="nonzero" cx="41.3" cy="30.7" r="29"></circle>
            <g id="Group" transform="translate(0.000000, 2.000000)" fill-rule="nonzero">
                <circle id="Oval" fill="#FFEBD4" cx="40.9" cy="29.3" r="28.5"></circle>
                <path d="M18.1,27 L11.2,28.3 C10.4,28.5 9.6,27.9 9.4,27.1 L9.4,27.1 C9.2,26.3 9.8,25.5 10.6,25.3 L17.5,24 C18.3,23.8 19.1,24.4 19.3,25.2 L19.3,25.2 C19.4,26 18.9,26.8 18.1,27 Z" id="Path" fill="#FFEBD4"></path>
                <path d="M18.5,23.8 L2.8,26.8 C2,27 1.2,26.4 1,25.6 L1,25.6 C0.8,24.8 1.4,24 2.2,23.8 L17.9,20.8 C18.7,20.6 19.5,21.2 19.7,22 L19.7,22 C19.9,22.9 19.3,23.7 18.5,23.8 Z" id="Path" fill="#FFFFFF"></path>
                <path d="M26.5,28.5 L10.8,31.5 C10,31.7 9.2,31.1 9,30.3 L9,30.3 C8.8,29.5 9.4,28.7 10.2,28.5 L25.9,25.5 C26.7,25.3 27.5,25.9 27.7,26.7 L27.7,26.7 C27.9,27.5 27.3,28.3 26.5,28.5 Z" id="Path" fill="#FFFFFF"></path>
                <path d="M22.1,32.3 L6.4,35.3 C5.6,35.5 4.8,34.9 4.6,34.1 L4.6,34.1 C4.4,33.3 5,32.5 5.8,32.3 L21.5,29.3 C22.3,29.1 23.1,29.7 23.3,30.5 L23.3,30.5 C23.5,31.4 23,32.2 22.1,32.3 Z" id="Path" fill="#FFEBD4"></path>
                <path d="M18.3,39.2 L11.4,40.5 C10.6,40.7 9.8,40.1 9.6,39.3 L9.6,39.3 C9.4,38.5 10,37.7 10.8,37.5 L17.7,36.2 C18.5,36 19.3,36.6 19.5,37.4 L19.5,37.4 C19.7,38.2 19.2,39 18.3,39.2 Z" id="Path" fill="#FFEBD4"></path>
                <path d="M17.8,36.2 L2.1,39.2 C1.3,39.4 0.5,38.8 0.3,38 L0.3,38 C0.1,37.2 0.7,36.4 1.5,36.2 L17.2,33.2 C18,33 18.8,33.6 19,34.4 L19,34.4 C19.1,35.3 18.6,36.1 17.8,36.2 Z" id="Path" fill="#FFFFFF"></path>
                <path d="M26.9,40.6 L10.9,43.6 C10.2,43.7 9.5,43.3 9.3,42.5 L9.2,42.2 C9.1,41.5 9.5,40.8 10.3,40.6 L26.3,37.6 C27,37.5 27.7,37.9 27.9,38.7 L28,39 C28.1,39.8 27.6,40.5 26.9,40.6 Z" id="Path" fill="#FFFFFF"></path>
                <path d="M21.6,44.7 L5.6,47.7 C4.9,47.8 4.2,47.4 4,46.6 L3.9,46.3 C3.8,45.6 4.2,44.9 5,44.7 L21,41.7 C21.7,41.6 22.4,42 22.6,42.8 L22.7,43.1 C22.8,43.8 22.3,44.5 21.6,44.7 Z" id="Path" fill="#FFEBD4"></path>
                <path d="M70,34.5 L63.1,35.8 C62.3,36 61.5,35.4 61.3,34.6 L61.3,34.6 C61.1,33.8 61.7,33 62.5,32.8 L69.4,31.5 C70.2,31.3 71,31.9 71.2,32.7 L71.2,32.7 C71.4,33.6 70.8,34.4 70,34.5 Z" id="Path" fill="#FFEBD4"></path>
                <path d="M74.2,27.6 L61.4,30 C60.6,30.2 59.8,29.6 59.6,28.8 L59.6,28.8 C59.4,28 60,27.2 60.8,27 L73.6,24.6 C74.4,24.4 75.2,25 75.4,25.8 L75.4,25.8 C75.5,26.7 75,27.5 74.2,27.6 Z" id="Path" fill="#FFEBD4"></path>
                <path d="M70,31.5 L52,34.9 C51.3,35 50.6,34.6 50.4,33.8 L50.3,33.5 C50.2,32.8 50.6,32.1 51.4,31.9 L69.4,28.5 C70.1,28.4 70.8,28.8 71,29.6 L71.1,29.9 C71.2,30.6 70.7,31.3 70,31.5 Z" id="Path" fill="#FFFFFF"></path>
                <path d="M71.7,25 L61.9,26.9 C61.1,27.1 60.3,26.5 60.1,25.7 L60.1,25.7 C59.9,24.9 60.5,24.1 61.3,23.9 L71.1,22 C71.9,21.8 72.7,22.4 72.9,23.2 L72.9,23.2 C73,24.1 72.5,24.9 71.7,25 Z" id="Path" fill="#FFFFFF"></path>
                <path d="M73.2,37 L57.2,40 C56.5,40.1 55.8,39.7 55.6,38.9 L55.5,38.6 C55.4,37.9 55.8,37.2 56.6,37 L72.6,34 C73.3,33.9 74,34.3 74.2,35.1 L74.3,35.4 C74.4,36.1 73.9,36.9 73.2,37 Z" id="Path" fill="#FFFFFF"></path>
                <path d="M68.8,40.9 L53.1,43.9 C52.3,44.1 51.5,43.5 51.3,42.7 L51.3,42.7 C51.1,41.9 51.7,41.1 52.5,40.9 L68.2,37.9 C69,37.7 69.8,38.3 70,39.1 L70,39.1 C70.1,39.9 69.6,40.7 68.8,40.9 Z" id="Path" fill="#FFEBD4"></path>
                <path d="M67.6,44.2 L63.4,45 C62.6,45.2 61.8,44.6 61.6,43.8 L61.6,43.8 C61.4,43 62,42.2 62.8,42 L67,41.2 C67.8,41 68.6,41.6 68.8,42.4 L68.8,42.4 C68.9,43.2 68.4,44 67.6,44.2 Z" id="Path" fill="#FFFFFF"></path>
                <path d="M64.9,47.6 L53.3,49.8 C52.5,50 51.7,49.4 51.5,48.6 L51.5,48.6 C51.3,47.8 51.9,47 52.7,46.8 L64.3,44.6 C65.1,44.4 65.9,45 66.1,45.8 L66.1,45.8 C66.3,46.7 65.7,47.4 64.9,47.6 Z" id="Path" fill="#FFEBD4"></path>
                <path d="M5.9,38.9 C5.9,38.8 6,38.7 6,38.7 C6.2,38.3 6.6,38.1 7,38.1 C7.4,38.1 7.7,38.4 7.9,38.8 C8,39.2 8,39.5 7.8,39.8 C7.7,40.1 7.5,40.3 7.3,40.6 C7,41 6.7,41.3 6.5,41.8 C6.5,41.8 6.5,41.9 6.4,41.8 C6,41.4 5.5,41.1 5,40.8 C4.8,40.6 4.5,40.5 4.3,40.2 C4,39.9 3.9,39.5 4,39 C4.1,38.6 4.5,38.3 4.9,38.3 C5.4,38.4 5.6,38.5 5.9,38.9 Z" id="Path" fill="#FFEBD4"></path>
                <path d="M5.9,26.8 C5.9,26.7 6,26.6 6,26.6 C6.2,26.2 6.6,25.9 7,25.9 C7.4,25.9 7.8,26.2 7.9,26.6 C8,27 8,27.3 7.8,27.7 C7.7,28 7.5,28.3 7.3,28.5 C7,28.9 6.7,29.3 6.5,29.7 C6.5,29.8 6.5,29.8 6.4,29.7 C6,29.3 5.4,29 5,28.7 C4.7,28.5 4.5,28.4 4.3,28.1 C4,27.7 3.9,27.3 4,26.9 C4.1,26.5 4.5,26.2 4.9,26.2 C5.4,26.3 5.6,26.4 5.9,26.8 Z" id="Path" fill="#FFEBD4"></path>
                <path d="M73.8,31 C73.8,30.9 73.8,30.9 73.9,30.8 C74,30.5 74.4,30.3 74.7,30.3 C75,30.3 75.3,30.5 75.5,30.9 C75.6,31.2 75.6,31.5 75.5,31.7 C75.4,31.9 75.2,32.2 75.1,32.4 C74.9,32.7 74.6,33 74.4,33.4 C74.4,33.4 74.4,33.4 74.3,33.4 C73.9,33.1 73.5,32.9 73.1,32.6 C72.9,32.5 72.7,32.3 72.5,32.2 C72.3,31.9 72.2,31.6 72.3,31.2 C72.4,30.9 72.7,30.6 73,30.6 C73.4,30.6 73.5,30.7 73.8,31 Z" id="Path" fill="#FFEBD4"></path>
                <path d="M56,25.5 C56,25.4 56,25.3 56,25.3 C56.1,24.8 56.4,24.5 56.9,24.4 C57.3,24.3 57.7,24.5 58,24.9 C58.2,25.2 58.2,25.6 58.2,26 C58.1,26.3 58,26.6 57.8,27 C57.6,27.5 57.4,27.9 57.2,28.4 C57.2,28.5 57.2,28.5 57.1,28.4 C56.6,28.1 56,27.9 55.4,27.7 C55.1,27.6 54.8,27.5 54.6,27.3 C54.2,27 54,26.6 54,26.1 C54,25.7 54.3,25.3 54.8,25.2 C55.3,25.1 55.6,25.1 56,25.5 Z" id="Path" fill="#FFFFFF"></path>
                <path d="M21.6,21 C21.6,20.9 21.6,20.9 21.7,20.8 C21.8,20.5 22.1,20.4 22.4,20.4 C22.7,20.4 22.9,20.6 23,20.9 C23.1,21.1 23,21.4 22.9,21.6 C22.8,21.8 22.6,22 22.5,22.1 C22.3,22.4 22.1,22.6 21.9,22.9 C21.9,22.9 21.9,22.9 21.8,22.9 C21.5,22.6 21.2,22.4 20.9,22.2 C20.7,22.1 20.6,22 20.4,21.8 C20.2,21.6 20.1,21.3 20.2,21 C20.3,20.7 20.6,20.5 20.9,20.5 C21.3,20.6 21.4,20.7 21.6,21 Z" id="Path" fill="#FFFFFF"></path>
            </g>
            <path d="M18.4,52.4 L23.3,52.4" id="Path" stroke="url(#linearGradient-1)" stroke-width="0.75" stroke-linecap="round" stroke-linejoin="round"></path>
            <g id="Group" transform="translate(12.000000, 0.000000)">
                <g transform="translate(11.000000, 32.000000)">
                    <path d="M15.1,15.6 L13.8,21.2 L15.1,15.6 Z" id="Path" stroke="#0E2947" stroke-width="0.75" stroke-linecap="round" stroke-linejoin="round"></path>
                    <path d="M30.3,25.6 L30,27 C30,27.1 29.8,27.2 29.7,27.2 L28.3,26.9 C28.2,26.9 28.1,26.7 28.1,26.6 L28.4,25.2 C28.4,25.1 28.6,25 28.7,25 L30.1,25.3 C30.2,25.3 30.3,25.5 30.3,25.6 Z" id="Path" fill="#0E2947" fill-rule="nonzero"></path>
                    <path d="M31.3,21.1 L31,22.6 C31,22.7 30.8,22.8 30.7,22.8 L29.3,22.5 C29.2,22.5 29.1,22.3 29.1,22.2 L29.4,20.8 C29.4,20.7 29.6,20.6 29.7,20.6 L31.1,20.9 C31.3,20.9 31.3,21 31.3,21.1 Z" id="Path" fill="#0E2947" fill-rule="nonzero"></path>
                    <g transform="translate(14.000000, 16.000000)">
                        <g id="XMLID_20_-link" fill="#F1F2F2" fill-rule="nonzero">
                            <path d="M12.4,6.7 L0,4.4 L0.9,0.4 L13,3.8 C13.8,4 14.2,4.8 14,5.5 L14,5.5 C13.9,6.3 13.1,6.8 12.4,6.7 Z" id="XMLID_20_"></path>
                        </g>
                        <polygon id="Path" fill="#C0FFE4" fill-rule="nonzero" points="0.2 4.3 0.4 3.2 11.7 6.2 11.6 6.5"></polygon>
                        <polygon id="Path" fill="#9393B5" fill-rule="nonzero" points="0.5 4.5 1.2 1.2 11.9 4 12.2 3.5 1 0.4 0.1 3.2 0.2 4.5"></polygon>
                        <g id="XMLID_20_-link" stroke-linecap="round" stroke-linejoin="round" stroke="#0E2947" stroke-width="0.5">
                            <path d="M12.4,6.7 L0,4.4 L0.9,0.4 L13,3.8 C13.8,4 14.2,4.8 14,5.5 L14,5.5 C13.9,6.3 13.1,6.8 12.4,6.7 Z" id="XMLID_20_"></path>
                        </g>
                    </g>
                    <circle id="Oval" stroke="#0E2947" stroke-width="0.75" fill="#25E899" fill-rule="nonzero" cx="26.5" cy="21.2" r="1.1"></circle>
                    <g transform="translate(4.000000, 18.000000)">
                        <g id="XMLID_19_-link" transform="translate(21.000000, 0.000000)" fill="#DADAF2" fill-rule="nonzero">
                            <path d="M5.1,2.2 L3.3,10.2 C3.2,10.9 2.5,11.3 1.9,11.1 L1.5,11 C0.8,10.9 0.4,10.2 0.6,9.6 L2.4,1.6 C2.5,0.9 3.2,0.5 3.8,0.7 L4.1,0.8 C4.8,0.9 5.3,1.5 5.1,2.2 Z" id="XMLID_19_"></path>
                        </g>
                        <path d="M25.6,2 L23.8,10.1 C23.7,10.5 23.4,10.7 23,10.6 L22.7,10.5 C22.2,10.4 21.8,9.8 21.9,9.3 L23.6,1.9 C23.7,1.4 24.3,1 24.8,1.1 L25.1,1.2 C25.4,1.3 25.6,1.6 25.6,2 Z" id="Path" fill="url(#linearGradient-2)" fill-rule="nonzero"></path>
                        <path d="M24.9,3 L23.6,8.8 C23.5,9.2 23.2,9.4 22.8,9.3 L22.5,9.2 C22.1,9.1 21.9,8.8 22,8.4 L23.3,2.6 C23.4,2.2 23.7,2 24.1,2.1 L24.4,2.2 C24.8,2.3 25,2.7 24.9,3 Z" id="Path" fill="url(#linearGradient-3)" fill-rule="nonzero"></path>
                        <path d="M26.2,1.3 L24,11.1 L22.7,10.8 C22.7,10.8 23.4,7.9 23.9,5.9 C24.4,3.9 24.9,1 24.9,1 L26.2,1.3 Z" id="Path" stroke="#0E2947" stroke-width="0.1" fill="#F1F2F2" fill-rule="nonzero"></path>
                        <path d="M24.1,6 C24.1,6 24,6 24.1,6 L24.1,6 C24,6 24,6 24,6 L24,6 L24,6 L24,6 C24,5.9 24,5.9 24.1,6 L24.1,6 C24.1,5.9 24.1,5.9 24.1,6 L24.1,6 Z M23.8,7.2 C23.8,7.2 23.8,7.2 23.8,7.2 L23.8,7.2 C23.7,7.2 23.7,7.2 23.7,7.2 L23.7,7.2 C23.7,7.2 23.7,7.2 23.7,7.2 L23.7,7.2 C23.7,7.1 23.7,7.1 23.8,7.2 L23.8,7.2 C23.8,7.1 23.8,7.2 23.8,7.2 L23.8,7.2 C23.8,7.2 23.8,7.2 23.8,7.2 Z M23.4,8.5 C23.4,8.4 23.4,8.4 23.4,8.5 L23.4,8.5 C23.4,8.4 23.4,8.4 23.4,8.4 L23.4,8.4 C23.5,8.3 23.5,8.4 23.4,8.5 L23.4,8.5 C23.5,8.4 23.5,8.5 23.4,8.5 Z M24.8,2.3 C24.8,2.3 24.8,2.3 24.8,2.3 L24.8,2.3 C24.8,2.2 24.8,2.2 24.8,2.2 L24.8,2.2 C24.9,2.2 24.9,2.3 24.8,2.3 L24.8,2.3 C24.9,2.3 24.8,2.4 24.8,2.3 Z M22.9,10.9 C22.8,10.9 22.8,10.9 22.9,10.9 L22.9,10.9 L22.9,10.9 L22.9,10.9 C22.9,10.8 22.9,10.8 22.9,10.8 L22.9,10.8 C22.9,10.8 23,10.8 22.9,10.9 L22.9,10.9 C22.9,10.9 22.9,10.9 22.9,10.9 Z" id="Shape" fill="#0E2947" fill-rule="nonzero"></path>
                        <g id="XMLID_19_-link" transform="translate(21.000000, 0.000000)" stroke="#0E2947" stroke-width="0.75">
                            <path d="M5.1,2.2 L3.3,10.2 C3.2,10.9 2.5,11.3 1.9,11.1 L1.5,11 C0.8,10.9 0.4,10.2 0.6,9.6 L2.4,1.6 C2.5,0.9 3.2,0.5 3.8,0.7 L4.1,0.8 C4.8,0.9 5.3,1.5 5.1,2.2 Z" id="XMLID_19_"></path>
                        </g>
                    </g>
                    <g transform="translate(2.000000, 2.000000)">
                        <g id="XMLID_18_-link" transform="translate(1.000000, 0.000000)" fill="#F1F2F2" fill-rule="nonzero">
                            <path d="M4.9,17.7 L2,9.6 C1.1,7 0.5,4.3 0.3,1.5 L0.3,1.5 L5.5,0.7 L5.5,0.7 C6.5,3 7.1,5.5 7.5,8 L8.2,12.9 C8.5,15.1 7,17.2 4.9,17.7 L4.9,17.7 Z" id="XMLID_18_"></path>
                        </g>
                        <path d="M10.4,25.3 C10.8,19.8 7.5,1 7.5,1 L3.3,2 C3.3,2 10,23.6 10.4,25.3 Z" id="Path" fill="#9393B5" fill-rule="nonzero"></path>
                        <polygon id="Path" fill="#C0FFE4" fill-rule="nonzero" points="0.6 2.2 10.4 25.3 10.9 26 9.5 26.8 8.6 26"></polygon>
                        <g id="XMLID_18_-link" stroke-linecap="round" stroke-linejoin="round" transform="translate(1.000000, 0.000000)" stroke="#0E2947" stroke-width="0.75">
                            <path d="M4.9,17.7 L2,9.6 C1.1,7 0.5,4.3 0.3,1.5 L0.3,1.5 L5.5,0.7 L5.5,0.7 C6.5,3 7.1,5.5 7.5,8 L8.2,12.9 C8.5,15.1 7,17.2 4.9,17.7 L4.9,17.7 Z" id="XMLID_18_"></path>
                        </g>
                    </g>
                    <path d="M11.3,15.5 L6.8,16.6 C6.4,16.7 6.1,16.5 6,16.1 L6,15.9 C5.9,15.5 6.1,15.2 6.5,15.1 L11,14 C11.4,13.9 11.7,14.1 11.8,14.5 L11.8,14.7 C11.9,15.1 11.7,15.4 11.3,15.5 Z" id="Path" fill="#0E2947" fill-rule="nonzero"></path>
                    <path d="M4.2,9.3 C6.2,10.1 8.6,9.5 10.1,7.8" id="Path" stroke="#0E2947" stroke-width="0.75"></path>
                    <path d="M5.2,12.6 C7.1,13.1 9.2,12.5 10.6,11.2" id="Path" stroke="#0E2947" stroke-width="0.75"></path>
                    <polyline id="Path" stroke="#0E2947" stroke-width="0.5" points="25.5 20.9 12.1 17.9 9.9 18.9 8 12.7"></polyline>
                    <circle id="Oval" stroke="#0E2947" stroke-width="0.75" fill="#6152F5" fill-rule="nonzero" cx="12.1" cy="17.9" r="2"></circle>
                    <g transform="translate(7.000000, 13.000000)" fill-rule="nonzero">
                        <rect id="Rectangle" fill="#6152F5" transform="translate(1.900460, 2.351290) rotate(-62.514995) translate(-1.900460, -2.351290) " x="0.850497454" y="1.30132745" width="2.09992509" height="2.09992509"></rect>
                        <path d="M1.5,1.2 L2.9,1.9 L2.2,3.3 L0.8,2.6 L1.5,1.2 L1.5,1.2 Z M1.3,0.6 L1.1,1 L0.4,2.4 L0.2,2.8 L0.6,3 L2,3.7 L2.4,3.9 L2.6,3.5 L3.3,2.1 L3.5,1.7 L3.1,1.5 L1.7,0.8 L1.3,0.6 L1.3,0.6 Z" id="Shape" fill="#0E2947"></path>
                    </g>
                    <path d="M17.3,21 C17.5,21 18.2,20.2 18.1,19.3" id="Path" stroke="#0E2947" stroke-width="0.5"></path>
                    <path d="M15.6,20.7 C16,20.6 16.5,19.4 16.5,18.9" id="Path" stroke="#0E2947" stroke-width="0.5"></path>
                    <g transform="translate(16.000000, 18.000000)" fill-rule="nonzero" id="Shape">
                        <g>
                            <path d="M3.9,1.3 C3.8,1.3 3.8,1.2 3.8,1.1 L3.8,1.1 C3.8,1 3.9,1 4,1 L4,1 C4.1,1 4.1,1.1 4.1,1.2 L4.1,1.2 C4,1.3 4,1.3 3.9,1.3 Z M2.7,1 C2.6,1 2.6,0.9 2.6,0.8 L2.6,0.8 C2.6,0.7 2.7,0.7 2.8,0.7 L2.8,0.7 C2.9,0.7 2.9,0.8 2.9,0.9 L2.9,0.9 C2.8,1 2.7,1 2.7,1 Z M1.4,0.7 C1.3,0.7 1.3,0.6 1.3,0.5 L1.3,0.5 C1.3,0.4 1.4,0.4 1.5,0.4 L1.5,0.4 C1.6,0.4 1.6,0.5 1.6,0.6 L1.6,0.6 C1.6,0.7 1.5,0.8 1.4,0.7 Z M0.2,0.5 C0.1,0.5 0.1,0.4 0.1,0.3 L0.1,0.3 C0.1,0.2 0.2,0.2 0.3,0.2 L0.3,0.2 C0.4,0.2 0.4,0.3 0.4,0.4 L0.4,0.4 C0.4,0.5 0.3,0.5 0.2,0.5 Z" fill="#0E2947"></path>
                            <g fill="#9393B5">
                                <path d="M3.9,1.3 C3.8,1.3 3.8,1.2 3.8,1.1 C3.8,1 3.9,1 4,1 C4.1,1 4.1,1.1 4.1,1.2 C4,1.3 4,1.3 3.9,1.3 Z M3.9,1.3 C4,1.3 4.1,1.3 4.1,1.2 C4.1,1.1 4.1,1 4,1 C3.9,1 3.9,1 3.8,1.1 C3.7,1.2 3.8,1.3 3.9,1.3 Z"></path>
                                <path d="M2.7,1 C2.6,1 2.6,0.9 2.6,0.8 C2.6,0.7 2.7,0.7 2.8,0.7 C2.9,0.7 2.9,0.8 2.9,0.9 C2.8,1 2.7,1 2.7,1 Z M2.7,1 C2.8,1 2.9,1 2.9,0.9 C2.9,0.8 2.9,0.8 2.8,0.7 C2.7,0.7 2.7,0.7 2.6,0.8 C2.5,0.9 2.6,1 2.7,1 Z"></path>
                                <path d="M1.4,0.7 C1.3,0.7 1.3,0.6 1.3,0.5 C1.3,0.4 1.4,0.4 1.5,0.4 C1.6,0.4 1.6,0.5 1.6,0.6 C1.6,0.7 1.5,0.8 1.4,0.7 Z M1.4,0.7 C1.5,0.7 1.6,0.7 1.6,0.6 C1.6,0.5 1.6,0.5 1.5,0.4 C1.4,0.4 1.4,0.4 1.3,0.5 C1.3,0.6 1.4,0.7 1.4,0.7 Z"></path>
                                <path d="M0.2,0.5 C0.1,0.5 0.1,0.4 0.1,0.3 C0.1,0.2 0.2,0.2 0.3,0.2 C0.4,0.2 0.4,0.3 0.4,0.4 C0.4,0.5 0.3,0.5 0.2,0.5 Z M0.2,0.5 C0.3,0.5 0.4,0.5 0.4,0.4 C0.4,0.3 0.4,0.3 0.3,0.2 C0.2,0.2 0.2,0.2 0.1,0.3 C0.1,0.4 0.2,0.5 0.2,0.5 Z"></path>
                            </g>
                        </g>
                        <g transform="translate(5.000000, 1.000000)">
                            <path d="M3.7,1.4 C3.6,1.4 3.6,1.3 3.6,1.2 L3.6,1.2 C3.6,1.1 3.7,1.1 3.8,1.1 L3.8,1.1 C3.9,1.1 3.9,1.2 3.9,1.3 L3.9,1.3 C3.9,1.4 3.8,1.4 3.7,1.4 Z M2.5,1.1 C2.4,1.1 2.4,1 2.4,0.9 L2.4,0.9 C2.4,0.8 2.5,0.8 2.6,0.8 L2.6,0.8 C2.7,0.8 2.7,0.9 2.7,1 L2.7,1 C2.7,1.1 2.6,1.1 2.5,1.1 Z M1.3,0.9 C1.2,0.9 1.2,0.8 1.2,0.7 L1.2,0.7 C1.2,0.6 1.3,0.6 1.4,0.6 L1.4,0.6 C1.5,0.6 1.5,0.7 1.5,0.8 L1.5,0.8 C1.5,0.8 1.4,0.9 1.3,0.9 Z M0.1,0.6 C0,0.6 0,0.5 0,0.4 L0,0.4 C0,0.3 0.1,0.3 0.2,0.3 L0.2,0.3 C0.3,0.3 0.3,0.4 0.3,0.5 L0.3,0.5 C0.2,0.6 0.2,0.6 0.1,0.6 Z" fill="#0E2947"></path>
                            <g fill="#9393B5">
                                <path d="M3.7,1.4 C3.6,1.4 3.6,1.3 3.6,1.2 C3.6,1.1 3.7,1.1 3.8,1.1 C3.9,1.1 3.9,1.2 3.9,1.3 C3.9,1.4 3.8,1.4 3.7,1.4 Z M3.7,1.4 C3.8,1.4 3.9,1.4 3.9,1.3 C3.9,1.2 3.9,1.1 3.8,1.1 C3.7,1.1 3.7,1.1 3.6,1.2 C3.6,1.3 3.7,1.4 3.7,1.4 Z"></path>
                                <path d="M2.5,1.1 C2.4,1.1 2.4,1 2.4,0.9 C2.4,0.8 2.5,0.8 2.6,0.8 C2.7,0.8 2.7,0.9 2.7,1 C2.7,1.1 2.6,1.2 2.5,1.1 Z M2.5,1.1 C2.6,1.1 2.7,1.1 2.7,1 C2.7,0.9 2.7,0.9 2.6,0.8 C2.5,0.8 2.5,0.8 2.4,0.9 C2.4,1 2.5,1.1 2.5,1.1 Z"></path>
                                <path d="M1.3,0.9 C1.2,0.9 1.2,0.8 1.2,0.7 C1.2,0.6 1.3,0.6 1.4,0.6 C1.5,0.6 1.5,0.7 1.5,0.8 C1.5,0.8 1.4,0.9 1.3,0.9 Z M1.3,0.9 C1.4,0.9 1.5,0.9 1.5,0.8 C1.5,0.7 1.5,0.7 1.4,0.6 C1.3,0.6 1.3,0.6 1.2,0.7 C1.2,0.8 1.2,0.8 1.3,0.9 Z"></path>
                                <path d="M0.1,0.6 C0,0.6 0,0.5 0,0.4 C0,0.3 0.1,0.3 0.2,0.3 C0.3,0.3 0.3,0.4 0.3,0.5 C0.3,0.6 0.2,0.6 0.1,0.6 Z M0.1,0.6 C0.2,0.6 0.3,0.6 0.3,0.5 C0.3,0.4 0.3,0.4 0.2,0.3 C0.1,0.3 0.1,0.3 0,0.4 C0,0.5 0,0.6 0.1,0.6 Z"></path>
                            </g>
                        </g>
                    </g>
                    <path d="M0.4,5.3 L4,15.1" id="Path" stroke="#0E2947" stroke-width="0.5"></path>
                    <circle id="Oval" stroke="#0E2947" stroke-width="0.5" fill="#25E899" fill-rule="nonzero" cx="6" cy="3.4" r="2.9"></circle>
                    <circle id="Oval" stroke="#0E2947" stroke-width="0.5" fill="#DADAF2" fill-rule="nonzero" cx="6" cy="3.4" r="1.3"></circle>
                    <path d="M4.9,4.2 C5.6,4.2 6.2,4 6.9,3.9 C7.5,3.8 8.1,3.6 8.5,3.1 C8.9,2.5 8.6,1.5 8,1 C7.4,0.5 6.5,0.5 5.7,0.7 C5,0.9 4.4,1.2 3.9,1.7 C3.5,2.1 2.9,3 3,3.6 C3.2,4.2 4.3,4.3 4.9,4.2 Z" id="Path" fill="url(#linearGradient-4)" fill-rule="nonzero"></path>
                </g>
                <g transform="translate(24.000000, 33.000000)">
                    <path d="M17.7,10.7 L18.4,16.4 L17.7,10.7 Z" id="Path" stroke="#0E2947" stroke-width="0.75" stroke-linecap="round" stroke-linejoin="round"></path>
                    <path d="M35.5,14.9 L35.7,16.3 C35.7,16.4 35.6,16.6 35.5,16.6 L34,16.8 C33.9,16.8 33.7,16.7 33.7,16.6 L33.5,15.2 C33.5,15.1 33.6,14.9 33.7,14.9 L35.1,14.7 C35.3,14.6 35.4,14.7 35.5,14.9 Z" id="Path" fill="#0E2947" fill-rule="nonzero"></path>
                    <path d="M34.9,10.3 L35.1,11.7 C35.1,11.8 35,12 34.9,12 L33.5,12.2 C33.4,12.2 33.2,12.1 33.2,12 L33,10.6 C33,10.5 33.1,10.3 33.2,10.3 L34.6,10.1 C34.7,10.1 34.9,10.2 34.9,10.3 Z" id="Path" fill="#0E2947" fill-rule="nonzero"></path>
                    <g transform="translate(17.000000, 10.000000)">
                        <g id="XMLID_29_-link" fill="#F1F2F2" fill-rule="nonzero">
                            <path d="M13.8,3.5 L1.4,5.7 L0.9,1.7 L13.4,0.6 C14.2,0.5 14.9,1.1 15,1.9 L15,1.9 C15.1,2.6 14.5,3.3 13.8,3.5 Z" id="XMLID_29_"></path>
                        </g>
                        <polygon id="Path" fill="#C0FFE4" fill-rule="nonzero" points="1.5 5.4 1.4 4.3 13 3.2 13 3.6"></polygon>
                        <polygon id="Path" fill="#9393B5" fill-rule="nonzero" points="1.9 5.5 1.4 2.1 12.4 1.1 12.6 0.6 0.9 1.5 1.1 4.4 1.6 5.6"></polygon>
                        <g id="XMLID_29_-link" stroke-linecap="round" stroke-linejoin="round" stroke="#0E2947" stroke-width="0.5">
                            <path d="M13.8,3.5 L1.4,5.7 L0.9,1.7 L13.4,0.6 C14.2,0.5 14.9,1.1 15,1.9 L15,1.9 C15.1,2.6 14.5,3.3 13.8,3.5 Z" id="XMLID_29_"></path>
                        </g>
                    </g>
                    <circle id="Oval" stroke="#0E2947" stroke-width="0.75" fill="#25E899" fill-rule="nonzero" cx="30.4" cy="12" r="1.1"></circle>
                    <g transform="translate(5.000000, 8.000000)">
                        <g id="XMLID_28_-link" transform="translate(25.000000, 0.000000)" fill="#DADAF2" fill-rule="nonzero">
                            <path d="M3.4,1.8 L4.4,9.9 C4.5,10.6 4,11.2 3.4,11.3 L3.1,11.3 C2.4,11.4 1.8,10.9 1.7,10.3 L0.7,2.2 C0.6,1.5 1.1,0.9 1.7,0.8 L2,0.8 C2.7,0.7 3.3,1.2 3.4,1.8 Z" id="XMLID_28_"></path>
                        </g>
                        <path d="M27.8,1.8 L28.9,10 C28.9,10.4 28.7,10.7 28.3,10.7 L28,10.7 C27.4,10.8 26.9,10.4 26.9,9.8 L25.9,2.3 C25.8,1.7 26.2,1.2 26.8,1.2 L27.1,1.2 C27.5,1.2 27.8,1.5 27.8,1.8 Z" id="Path" fill="url(#linearGradient-5)" fill-rule="nonzero"></path>
                        <path d="M27.6,3 L28.4,8.9 C28.4,9.3 28.2,9.6 27.8,9.6 L27.5,9.6 C27.1,9.6 26.8,9.4 26.8,9 L26,3.1 C26,2.7 26.2,2.4 26.6,2.4 L26.9,2.4 C27.3,2.4 27.6,2.7 27.6,3 Z" id="Path" fill="url(#linearGradient-6)" fill-rule="nonzero"></path>
                        <path d="M28.2,1 L29.5,11 L28.1,11.2 C28.1,11.2 27.8,8.2 27.5,6.2 C27.2,4.2 26.8,1.3 26.8,1.3 L28.2,1 Z" id="Path" stroke="#0E2947" stroke-width="0.1" fill="#F1F2F2" fill-rule="nonzero"></path>
                        <path d="M28,7.3 C28,7.4 27.9,7.4 28,7.3 L28,7.3 C27.9,7.4 27.9,7.3 27.9,7.3 L27.9,7.3 C27.9,7.3 27.9,7.3 27.9,7.3 L27.9,7.3 C27.8,7.3 27.9,7.3 28,7.3 L28,7.3 C27.9,7.3 28,7.3 28,7.3 L28,7.3 C28,7.4 28,7.3 28,7.3 Z M28.1,8.6 C28,8.7 28,8.6 28.1,8.6 L28.1,8.6 C28,8.5 28.1,8.5 28.1,8.5 L28.1,8.5 C28.1,8.5 28.1,8.6 28.1,8.6 L28.1,8.6 C28.1,8.6 28.1,8.6 28.1,8.6 Z M28.2,9.9 C28.2,9.9 28.2,9.9 28.2,9.9 L28.2,9.9 C28.1,9.8 28.2,9.8 28.2,9.8 L28.2,9.8 C28.2,9.8 28.3,9.8 28.2,9.9 L28.2,9.9 C28.3,9.9 28.3,9.9 28.2,9.9 Z" id="Shape" fill="#0E2947" fill-rule="nonzero"></path>
                        <g id="XMLID_28_-link" transform="translate(25.000000, 0.000000)" stroke="#0E2947" stroke-width="0.75">
                            <path d="M3.4,1.8 L4.4,9.9 C4.5,10.6 4,11.2 3.4,11.3 L3.1,11.3 C2.4,11.4 1.8,10.9 1.7,10.3 L0.7,2.2 C0.6,1.5 1.1,0.9 1.7,0.8 L2,0.8 C2.7,0.7 3.3,1.2 3.4,1.8 Z" id="XMLID_28_"></path>
                        </g>
                    </g>
                    <g transform="translate(1.000000, 1.000000)">
                        <g id="XMLID_27_-link" transform="translate(0.000000, 1.000000)" fill="#F1F2F2" fill-rule="nonzero">
                            <path d="M11.7,15.5 L5.6,9.5 C3.6,7.6 1.9,5.4 0.5,3 L0.5,3 L4.8,0 L4.8,0 C6.7,1.7 8.4,3.6 9.8,5.7 L12.5,9.8 C13.8,11.6 13.4,14.1 11.7,15.5 L11.7,15.5 Z" id="XMLID_27_"></path>
                        </g>
                        <path d="M19.1,21.4 C17,16.3 5.8,0.8 5.8,0.8 L2.5,3.5 C2.5,3.5 18,20.1 19.1,21.4 Z" id="Path" fill="#9393B5" fill-rule="nonzero"></path>
                        <polygon id="Path" fill="#C0FFE4" fill-rule="nonzero" points="0.2 4.9 19.1 21.4 19.8 21.9 18.9 23.2 17.8 22.8"></polygon>
                        <g id="XMLID_27_-link" stroke-linecap="round" stroke-linejoin="round" transform="translate(0.000000, 1.000000)" stroke="#0E2947" stroke-width="0.75">
                            <path d="M11.7,15.5 L5.6,9.5 C3.6,7.6 1.9,5.4 0.5,3 L0.5,3 L4.8,0 L4.8,0 C6.7,1.7 8.4,3.6 9.8,5.7 L12.5,9.8 C13.8,11.6 13.4,14.1 11.7,15.5 L11.7,15.5 Z" id="XMLID_27_"></path>
                        </g>
                    </g>
                    <path d="M14,12.3 L10.4,15.3 C10.1,15.5 9.7,15.5 9.4,15.2 L9.3,15 C9.1,14.7 9.1,14.3 9.4,14 L13,11 C13.3,10.8 13.7,10.8 14,11.1 L14.1,11.3 C14.3,11.6 14.2,12 14,12.3 Z" id="Path" fill="#0E2947" fill-rule="nonzero"></path>
                    <path d="M4.8,9.7 C6.9,9.5 8.9,7.9 9.4,5.8" id="Path" stroke="#0E2947" stroke-width="0.75"></path>
                    <path d="M7.2,12.3 C9.1,11.9 10.7,10.5 11.4,8.7" id="Path" stroke="#0E2947" stroke-width="0.75"></path>
                    <polyline id="Path" stroke="#0E2947" stroke-width="0.5" points="29.3 12.1 15.7 13.9 14 15.6 9.8 10.9"></polyline>
                    <circle id="Oval" stroke="#0E2947" stroke-width="0.75" fill="#6152F5" fill-rule="nonzero" cx="15.7" cy="14.1" r="2"></circle>
                    <g transform="translate(10.000000, 11.000000)" fill-rule="nonzero">
                        <rect id="Rectangle" fill="#6152F5" transform="translate(1.671472, 2.141914) rotate(-88.378090) translate(-1.671472, -2.141914) " x="0.621470868" y="1.09191302" width="2.10000133" height="2.10000133"></rect>
                        <path d="M0.9,1.3 L2.5,1.3 L2.5,2.9 L0.9,2.9 L0.9,1.3 L0.9,1.3 Z M0.4,0.8 L0.4,1.3 L0.4,2.9 L0.4,3.4 L0.9,3.4 L2.5,3.4 L3,3.4 L3,2.9 L3,1.3 L3,0.8 L2.5,0.8 L0.9,0.8 L0.4,0.8 L0.4,0.8 Z" id="Shape" fill="#0E2947"></path>
                    </g>
                    <path d="M21.7,15 C21.9,15 22.2,14 21.8,13.1" id="Path" stroke="#0E2947" stroke-width="0.5"></path>
                    <path d="M20,15.4 C20.3,15.2 20.4,13.9 20.2,13.4" id="Path" stroke="#0E2947" stroke-width="0.5"></path>
                    <g transform="translate(19.000000, 11.000000)" fill-rule="nonzero" id="Shape">
                        <g transform="translate(0.000000, 1.000000)">
                            <path d="M4.5,0.5 C4.4,0.5 4.3,0.5 4.3,0.4 L4.3,0.4 C4.3,0.3 4.3,0.2 4.4,0.2 L4.4,0.2 C4.5,0.2 4.5,0.3 4.6,0.3 L4.6,0.3 C4.6,0.5 4.6,0.5 4.5,0.5 Z M3.3,0.7 C3.2,0.7 3.1,0.7 3.1,0.6 L3.1,0.6 C3.1,0.5 3.1,0.4 3.2,0.4 L3.2,0.4 C3.3,0.4 3.3,0.5 3.4,0.5 L3.4,0.5 C3.4,0.6 3.4,0.7 3.3,0.7 Z M2,0.8 C1.9,0.8 1.9,0.8 1.8,0.7 L1.8,0.7 C1.8,0.6 1.8,0.5 1.9,0.5 L1.9,0.5 C2,0.5 2.1,0.5 2.1,0.6 L2.1,0.6 C2.2,0.8 2.1,0.8 2,0.8 Z M0.8,1 C0.7,1 0.7,1 0.6,0.9 L0.6,0.9 C0.6,0.8 0.6,0.7 0.7,0.7 L0.7,0.7 C0.8,0.7 0.9,0.7 0.9,0.8 L0.9,0.8 C0.9,0.9 0.9,1 0.8,1 Z" fill="#0E2947"></path>
                            <g fill="#9393B5">
                                <path d="M4.5,0.5 C4.4,0.5 4.3,0.5 4.3,0.4 C4.3,0.3 4.3,0.2 4.4,0.2 C4.5,0.2 4.6,0.3 4.6,0.3 C4.7,0.4 4.6,0.5 4.5,0.5 Z M4.5,0.5 C4.6,0.5 4.6,0.4 4.6,0.3 C4.6,0.2 4.5,0.2 4.4,0.2 C4.3,0.2 4.3,0.3 4.3,0.4 C4.4,0.5 4.4,0.5 4.5,0.5 Z"></path>
                                <path d="M3.3,0.7 C3.2,0.7 3.1,0.7 3.1,0.6 C3.1,0.5 3.1,0.4 3.2,0.4 C3.3,0.4 3.4,0.5 3.4,0.5 C3.4,0.6 3.4,0.7 3.3,0.7 Z M3.3,0.7 C3.4,0.7 3.4,0.6 3.4,0.5 C3.4,0.4 3.3,0.4 3.2,0.4 C3.1,0.4 3.1,0.5 3.1,0.6 C3.1,0.6 3.2,0.7 3.3,0.7 Z"></path>
                                <path d="M2,0.8 C1.9,0.8 1.8,0.8 1.8,0.7 C1.8,0.6 1.8,0.5 1.9,0.5 C2,0.5 2.1,0.6 2.1,0.6 C2.2,0.8 2.1,0.8 2,0.8 Z M2,0.8 C2.1,0.8 2.1,0.7 2.1,0.6 C2.1,0.5 2,0.5 1.9,0.5 C1.8,0.5 1.8,0.6 1.8,0.6 C1.9,0.8 2,0.9 2,0.8 Z"></path>
                                <path d="M0.8,1 C0.7,1 0.6,1 0.6,0.9 C0.6,0.8 0.6,0.7 0.7,0.7 C0.8,0.7 0.9,0.8 0.9,0.8 C0.9,0.9 0.9,1 0.8,1 Z M0.8,1 C0.9,1 0.9,0.9 0.9,0.8 C0.9,0.7 0.8,0.7 0.7,0.7 C0.6,0.7 0.6,0.8 0.6,0.8 C0.7,0.9 0.7,1 0.8,1 Z"></path>
                            </g>
                        </g>
                        <g transform="translate(5.000000, 0.000000)">
                            <path d="M4.5,0.9 C4.4,0.9 4.3,0.9 4.3,0.8 L4.3,0.8 C4.3,0.7 4.3,0.6 4.4,0.6 L4.4,0.6 C4.5,0.6 4.5,0.7 4.6,0.7 L4.6,0.7 C4.6,0.8 4.5,0.9 4.5,0.9 Z M3.2,1.1 C3.1,1.1 3,1.1 3,1 L3,1 C3,0.9 3,0.8 3.1,0.8 L3.1,0.8 C3.2,0.8 3.2,0.9 3.3,0.9 L3.3,0.9 C3.4,1 3.3,1 3.2,1.1 Z M2,1.2 C1.9,1.2 1.9,1.2 1.8,1.1 L1.8,1.1 C1.8,1 1.8,0.9 1.9,0.9 L1.9,0.9 C2,0.9 2.1,0.9 2.1,1 L2.1,1 C2.1,1.1 2.1,1.2 2,1.2 Z M0.7,1.4 C0.6,1.4 0.6,1.4 0.5,1.3 L0.5,1.3 C0.5,1.2 0.5,1.1 0.6,1.1 L0.6,1.1 C0.7,1.1 0.8,1.1 0.8,1.2 L0.8,1.2 C0.9,1.3 0.8,1.4 0.7,1.4 Z" fill="#0E2947"></path>
                            <g fill="#9393B5">
                                <path d="M4.5,0.9 C4.4,0.9 4.3,0.9 4.3,0.8 C4.3,0.7 4.3,0.6 4.4,0.6 C4.5,0.6 4.6,0.7 4.6,0.7 C4.6,0.8 4.5,0.9 4.5,0.9 Z M4.5,0.9 C4.6,0.9 4.6,0.8 4.6,0.7 C4.6,0.6 4.5,0.6 4.4,0.6 C4.3,0.6 4.3,0.7 4.3,0.8 C4.3,0.9 4.4,0.9 4.5,0.9 Z"></path>
                                <path d="M3.2,1.1 C3.1,1.1 3,1.1 3,1 C3,0.9 3,0.8 3.1,0.8 C3.2,0.8 3.3,0.9 3.3,0.9 C3.4,1 3.3,1 3.2,1.1 Z M3.2,1.1 C3.3,1.1 3.3,1 3.3,0.9 C3.3,0.8 3.2,0.8 3.1,0.8 C3,0.8 3,0.9 3,1 C3.1,1 3.2,1.1 3.2,1.1 Z"></path>
                                <path d="M2,1.2 C1.9,1.2 1.8,1.2 1.8,1.1 C1.8,1 1.8,0.9 1.9,0.9 C2,0.9 2.1,1 2.1,1 C2.1,1.1 2.1,1.2 2,1.2 Z M2,1.2 C2.1,1.2 2.1,1.1 2.1,1 C2.1,0.9 2,0.9 1.9,0.9 C1.8,0.9 1.8,1 1.8,1 C1.8,1.2 1.9,1.2 2,1.2 Z"></path>
                                <path d="M0.7,1.4 C0.6,1.4 0.5,1.4 0.5,1.3 C0.5,1.2 0.5,1.1 0.6,1.1 C0.7,1.1 0.8,1.2 0.8,1.2 C0.9,1.3 0.8,1.4 0.7,1.4 Z M0.7,1.4 C0.8,1.4 0.8,1.3 0.8,1.2 C0.8,1.1 0.7,1.1 0.6,1.1 C0.5,1.1 0.5,1.2 0.5,1.2 C0.6,1.3 0.7,1.4 0.7,1.4 Z"></path>
                            </g>
                        </g>
                    </g>
                    <path d="M9.6,1.9 L15.8,10.3" id="Path" stroke="#0E2947" stroke-width="0.5"></path>
                    <circle id="Oval" stroke="#0E2947" stroke-width="0.5" fill="#25E899" fill-rule="nonzero" cx="3.8" cy="3.7" r="2.9"></circle>
                    <circle id="Oval" stroke="#0E2947" stroke-width="0.5" fill="#DADAF2" fill-rule="nonzero" cx="3.9" cy="3.7" r="1.3"></circle>
                    <path d="M3.3,4.9 C3.9,4.6 4.4,4.2 4.9,3.7 C5.4,3.3 5.9,2.9 6,2.3 C6.1,1.5 5.4,0.8 4.7,0.7 C3.9,0.6 3.1,0.9 2.5,1.4 C2,1.8 1.5,2.4 1.3,3.1 C1.1,3.6 1,4.7 1.4,5.2 C1.7,5.6 2.7,5.2 3.3,4.9 Z" id="Path" fill="url(#linearGradient-7)" fill-rule="nonzero"></path>
                </g>
                <polygon id="Rectangle-path_4_" fill="#0E2947" fill-rule="nonzero" points="4.7 31 14.6 28.4 12.5 23.6 1.6 30.2"></polygon>
                <path d="M8.5,26.6 L2.6,32.4 C2,33 1.9,34 2.5,34.5 C3,35 3.8,35.1 4.4,34.7 L11.3,30.1 C12.4,29.4 12.8,27.9 12.1,26.9 C11.5,25.8 10,25.6 9,26.3 C8.7,26.3 8.6,26.4 8.5,26.6 Z" id="Path" fill="#0E2947" fill-rule="nonzero"></path>
                <path d="M12.8,28.7 L11.2,28.7 C10.6,28.7 10,28.2 10,27.5 L10,25.9 C10,25.3 10.5,24.7 11.2,24.7 L12.8,24.7 C13.4,24.7 14,25.2 14,25.9 L14,27.5 C14,28.2 13.5,28.7 12.8,28.7 Z" id="Path" stroke="#0E2947" stroke-width="0.75" fill="#D6D6EA" fill-rule="nonzero"></path>
                <path d="M36.8,25.8 L41.1,30.4 C41.6,30.9 41.6,31.6 41.1,32 C40.7,32.4 40.1,32.4 39.7,32.1 L34.6,28.5 C33.8,27.9 33.5,26.8 34.1,26 C34.6,25.2 35.7,25 36.5,25.6 C36.6,25.6 36.7,25.7 36.8,25.8 Z" id="Path" fill="#0E2947" fill-rule="nonzero"></path>
                <path d="M32.5,28.8 L34.1,28.8 C34.7,28.8 35.3,28.3 35.3,27.6 L35.3,26 C35.3,25.4 34.8,24.8 34.1,24.8 L32.5,24.8 C31.9,24.8 31.3,25.3 31.3,26 L31.3,27.6 C31.3,28.3 31.8,28.8 32.5,28.8 Z" id="Path" stroke="#0E2947" stroke-width="0.75" fill="#D6D6EA" fill-rule="nonzero"></path>
                <g transform="translate(12.000000, 20.000000)" fill-rule="nonzero">
                    <rect id="Rectangle-path_11_" fill="#D6D6EA" x="0.7" y="4.2" width="20.7" height="4.8"></rect>
                    <rect id="Rectangle-path_10_" fill="#D6D6EA" x="3.5" y="1" width="14.2" height="3"></rect>
                    <path d="M0.5,9.3 L21.3,9.3" id="Shape_94_" fill="#25E899"></path>
                    <rect id="Rectangle-path_9_" fill="#0E2947" x="0.5" y="8.8" width="20.8" height="1"></rect>
                    <polygon id="Shape_93_" fill="#0E2947" points="0.5 9.3 0.7 12.3 2.7 15.1 4.6 15.3 11.2 16 18 15.5 20.2 13.9 21.3 10.9 20.8 9.3"></polygon>
                    <path d="M16.5,16.2 L5.3,16.2 C2.4,16.2 0,13.8 0,10.9 L0,4.1 C0,3.8 0.2,3.6 0.5,3.6 L21.3,3.6 C21.5,3.6 21.8,3.8 21.8,4.1 L21.8,10.9 C21.7,13.8 19.4,16.2 16.5,16.2 Z M0.9,4.5 L0.9,10.8 C0.9,13.2 2.9,15.2 5.3,15.2 L16.5,15.2 C18.9,15.2 20.9,13.2 20.9,10.8 L20.9,4.5 L0.9,4.5 L0.9,4.5 Z" id="Shape_92_" fill="#0E2947"></path>
                    <path d="M12.9,9.6 C12.9,8.4 11.9,7.5 10.7,7.5 C9.5,7.5 8.5,8.5 8.5,9.6 C8.5,10.8 9.5,11.8 10.7,11.8 C11.9,11.7 12.9,10.7 12.9,9.6" id="Shape_91_" fill="#25E899"></path>
                    <path d="M10.8,12.2 C9.4,12.2 8.2,11 8.2,9.6 C8.2,8.2 9.4,7 10.8,7 C12.2,7 13.4,8.2 13.4,9.6 C13.4,11 12.2,12.2 10.8,12.2 M10.8,7.9 C9.9,7.9 9.1,8.7 9.1,9.6 C9.1,10.5 9.9,11.3 10.8,11.3 C11.7,11.3 12.5,10.5 12.5,9.6 C12.5,8.6 11.7,7.9 10.8,7.9" id="Shape_90_" fill="#0E2947"></path>
                    <path d="M2.7,14.7 C2.7,14.1 2.2,13.7 1.6,13.7 C1,13.7 0.6,14.2 0.6,14.7 C0.6,15.3 1.1,15.8 1.6,15.8 C2.2,15.7 2.7,15.3 2.7,14.7" id="Shape_89_" fill="#0E2947"></path>
                    <path d="M21.1,14.7 C21.1,14.1 20.6,13.7 20,13.7 C19.4,13.7 18.9,14.2 18.9,14.7 C18.9,15.3 19.4,15.8 20,15.8 C20.7,15.7 21.1,15.3 21.1,14.7" id="Shape_88_" fill="#0E2947"></path>
                    <path d="M20,14 C20,13.6 19.7,13.3 19.3,13.3 C18.9,13.3 18.6,13.6 18.6,14 C18.6,14.4 18.9,14.7 19.3,14.7 C19.7,14.6 20,14.3 20,14" id="Shape_87_" fill="#EFF4EE"></path>
                    <path d="M2.9,14 C2.9,13.6 2.6,13.3 2.2,13.3 C1.8,13.3 1.5,13.6 1.5,14 C1.5,14.4 1.8,14.7 2.2,14.7 C2.7,14.6 2.9,14.3 2.9,14" id="Shape_86_" fill="#EFF4EE"></path>
                    <path d="M18.4,4.5 L2.7,4.5 L2.7,0.3 L18.4,0.3 L18.4,4.5 L18.4,4.5 Z M3.6,3.6 L17.5,3.6 L17.5,1.2 L3.6,1.2 L3.6,3.6 Z" id="Shape_84_" fill="#0E2947"></path>
                    <rect id="Rectangle-path_8_" fill="#9393B5" x="15.7" y="4.6" width="5.2" height="4.3"></rect>
                    <rect id="Rectangle-path_7_" fill="#9393B5" x="13.6" y="1.2" width="3.9" height="2.4"></rect>
                </g>
                <g transform="translate(11.000000, 0.000000)">
                    <path d="M20.9,14.9 L18,14.9 C17.6,14.9 17.3,14.6 17.3,14.2 L17.3,11.3 C17.3,10.9 17.6,10.6 18,10.6 L20.9,10.6 C21.3,10.6 21.6,10.9 21.6,11.3 L21.6,14.2 C21.6,14.6 21.2,14.9 20.9,14.9 Z" id="Path" fill="#143954" fill-rule="nonzero"></path>
                    <path d="M3.7,14.9 L0.8,14.9 C0.4,14.9 0.1,14.6 0.1,14.2 L0.1,11.3 C0.1,10.9 0.4,10.6 0.8,10.6 L3.7,10.6 C4.1,10.6 4.4,10.9 4.4,11.3 L4.4,14.2 C4.4,14.6 4.1,14.9 3.7,14.9 Z" id="Path" fill="#143954" fill-rule="nonzero"></path>
                    <path d="M13.6,19.2 L7.7,19.2 C6.3,19.2 5.1,18.1 5.1,16.6 L5.1,15.9 C5.1,14.5 6.2,13.3 7.7,13.3 L13.6,13.3 C15,13.3 16.2,14.4 16.2,15.9 L16.2,16.6 C16.2,18 15,19.2 13.6,19.2 Z" id="Path" stroke="#143954" fill="#D6D6EA" fill-rule="nonzero" stroke-linecap="round" stroke-linejoin="round"></path>
                    <g transform="translate(1.000000, 3.000000)">
                        <g id="XMLID_30_-link" transform="translate(0.000000, 2.000000)" fill="#D6D6EA" fill-rule="nonzero">
                            <path d="M19.4,12.1 L0.6,12.1 L0.6,3.9 C0.6,1.9 2.2,0.3 4.2,0.3 L15.9,0.3 C17.9,0.3 19.5,1.9 19.5,3.9 L19.5,12.1 L19.4,12.1 Z" id="XMLID_30_"></path>
                        </g>
                        <circle id="Oval" fill="url(#radialGradient-8)" fill-rule="nonzero" cx="9.6" cy="6" r="5.2"></circle>
                        <path d="M1.2,8.1 C1.2,8.1 10.5,18.3 18.6,7.5 L18.6,13.8 C18.6,13.8 18.1,14.4 8.1,14.4 C5,14.4 1.2,14.4 1.2,14.4 L1.2,8.1 Z" id="Path" fill="url(#linearGradient-9)" fill-rule="nonzero"></path>
                        <path d="M18.9,14.6 L16.6,14.6 L16.6,6.3 C16.6,5.5 16,4.9 15.3,4.9 L4.3,4.9 L4.3,2.6 L15.3,2.6 C17.3,2.6 18.9,4.3 18.9,6.3 L18.9,14.6 L18.9,14.6 Z" id="Path" fill="#9393B5" fill-rule="nonzero"></path>
                        <g transform="translate(1.000000, 3.000000)" id="Path" stroke="#0E2947" stroke-linecap="round" stroke-linejoin="round" stroke-width="0.25">
                            <path d="M0.6,10.3 L0.6,10.3"></path>
                            <path d="M0.6,9.3 C0.6,7.9 0.6,5.2 0.6,3.4 C0.7,0.7 2.8,0.5 2.8,0.5 L14.4,0.5 C14.4,0.5 17.3,0.5 17.3,3.4 L17.3,9.8" stroke-dasharray="0,1.0016"></path>
                            <path d="M17.3,10.3 L17.3,10.3"></path>
                        </g>
                        <g id="XMLID_30_-link" stroke-linecap="round" stroke-linejoin="round" transform="translate(0.000000, 2.000000)" stroke="#143954">
                            <path d="M19.4,12.1 L0.6,12.1 L0.6,3.9 C0.6,1.9 2.2,0.3 4.2,0.3 L15.9,0.3 C17.9,0.3 19.5,1.9 19.5,3.9 L19.5,12.1 L19.4,12.1 Z" id="XMLID_30_"></path>
                        </g>
                    </g>
                    <g transform="translate(5.000000, 2.000000)" fill-rule="nonzero" id="Oval">
                        <circle stroke="#143954" stroke-width="0.75" fill="#25E899" cx="5.6" cy="5.9" r="5.2"></circle>
                        <circle fill="#FFFFFF" cx="5.6" cy="4.1" r="2.3"></circle>
                        <circle fill="#FFFFFF" cx="8.9" cy="6.9" r="1"></circle>
                    </g>
                    <path d="M20.4,2.7 L20.4,12" id="Path" stroke="#143954" stroke-width="0.75" stroke-linecap="round" stroke-linejoin="round"></path>
                    <path d="M1.6,0.6 L1.6,12.2" id="Path" stroke="#143954" stroke-width="0.75" stroke-linecap="round" stroke-linejoin="round"></path>
                    <path d="M8.1,14.2 C8.8,15.1 9.9,15.6 11,15.6 C12.1,15.6 13.2,15 13.8,14.1" id="Path" stroke="#143954" stroke-width="0.5" stroke-linecap="round" stroke-linejoin="round"></path>
                </g>
                <g transform="translate(33.000000, 15.000000)" fill-rule="nonzero">
                    <g transform="translate(19.000000, 0.000000)">
                        <path d="M1.6,4.2 C1.7,4.2 1.8,4.4 1.8,4.5 L1.1,7.5 C1.1,7.6 0.9,7.7 0.8,7.7 C0.7,7.7 0.6,7.5 0.6,7.4 L1.3,4.4 C1.3,4.2 1.5,4.1 1.6,4.2" id="Shape_114_" fill="#0E2947"></path>
                        <path d="M3.1,1.7 L2.5,4 C2.4,4.3 2.1,4.5 1.8,4.5 L1.3,4.4 C1,4.3 0.8,4 0.8,3.7 L1.4,1.3" id="Shape_113_" fill="#EFF4EE"></path>
                        <path d="M1.5,1 C1.6,1 1.7,1.2 1.7,1.3 L1.1,3.7 C1.1,3.9 1.2,4.1 1.4,4.1 L1.9,4.2 C2.1,4.2 2.3,4.1 2.3,3.9 L2.9,1.5 C2.9,1.4 3.1,1.3 3.2,1.3 C3.3,1.3 3.4,1.5 3.4,1.6 L2.8,4 C2.7,4.5 2.2,4.7 1.8,4.6 L1.3,4.5 C0.8,4.4 0.6,3.9 0.7,3.5 L1.3,1.1 C1.2,1.1 1.3,1 1.5,1" id="Shape_112_" fill="#0E2947"></path>
                        <path d="M1.4,1.3 C1.3,1.8 1.6,2.2 2,2.4 C2.5,2.5 2.9,2.2 3.1,1.8 C3.2,1.3 2.9,0.9 2.5,0.7 C2,0.5 1.5,0.8 1.4,1.3" id="Shape_111_" fill="#6152F5"></path>
                        <path d="M2.5,0.4 C3.1,0.5 3.5,1.2 3.3,1.8 C3.2,2.4 2.5,2.8 1.9,2.6 C1.3,2.5 0.9,1.8 1.1,1.2 C1.3,0.6 1.9,0.2 2.5,0.4 M2.1,2.1 C2.4,2.2 2.8,2 2.9,1.6 C3,1.3 2.8,0.9 2.4,0.8 C2.1,0.7 1.7,0.9 1.6,1.3 C1.6,1.7 1.8,2 2.1,2.1" id="Shape_110_" fill="#0E2947"></path>
                    </g>
                    <g transform="translate(19.000000, 2.000000)">
                        <path d="M3,3.3 C3.1,3.4 3.1,3.6 3,3.6 L0.5,5.5 C0.4,5.6 0.2,5.6 0.2,5.5 C0.1,5.4 0.1,5.2 0.2,5.2 L2.7,3.3 C2.7,3.1 2.9,3.2 3,3.3" id="Shape_109_" fill="#0E2947"></path>
                        <path d="M5.7,2.3 L3.8,3.8 C3.5,4 3.1,4 2.9,3.7 L2.6,3.3 C2.4,3 2.4,2.6 2.7,2.4 L4.6,0.9" id="Shape_108_" fill="#EFF4EE"></path>
                        <path d="M4.9,0.7 C5,0.8 5,1 4.9,1 L3,2.5 C2.8,2.6 2.8,2.9 2.9,3 L3.2,3.4 C3.3,3.6 3.6,3.6 3.7,3.5 L5.6,2 C5.7,1.9 5.9,1.9 5.9,2 C6,2.1 6,2.3 5.9,2.3 L4,3.9 C3.6,4.2 3.1,4.1 2.8,3.7 L2.5,3.3 C2.2,2.9 2.3,2.4 2.7,2.1 L4.6,0.6 C4.6,0.6 4.8,0.6 4.9,0.7" id="Shape_107_" fill="#0E2947"></path>
                        <path d="M4.7,0.9 C4.3,1.2 4.2,1.7 4.5,2.1 C4.8,2.5 5.3,2.6 5.7,2.3 C6.1,2 6.2,1.5 5.9,1.1 C5.6,0.7 5.1,0.6 4.7,0.9" id="Shape_106_" fill="#6152F5"></path>
                        <path d="M6.1,0.9 C6.5,1.4 6.4,2.1 5.9,2.5 C5.4,2.9 4.7,2.8 4.3,2.3 C3.9,1.8 4,1.1 4.5,0.7 C5,0.3 5.7,0.4 6.1,0.9 M4.7,1.9 C4.9,2.2 5.3,2.2 5.6,2 C5.9,1.8 5.9,1.4 5.7,1.1 C5.5,0.8 5.1,0.8 4.8,1 C4.5,1.3 4.5,1.7 4.7,1.9" id="Shape_105_" fill="#0E2947"></path>
                    </g>
                    <g transform="translate(19.000000, 6.000000)">
                        <path d="M3.6,1.2 C3.6,1.3 3.5,1.4 3.3,1.4 L0.2,1.2 C0.1,1.2 0,1.1 0,0.9 C0,0.8 0.1,0.7 0.3,0.7 L3.4,0.9 C3.5,0.9 3.6,1 3.6,1.2" id="Shape_104_" fill="#0E2947"></path>
                        <path d="M6.3,2.2 L3.9,2 C3.6,2 3.3,1.7 3.3,1.3 L3.3,0.8 C3.3,0.5 3.6,0.2 4,0.2 L6.4,0.4" id="Shape_103_" fill="#EFF4EE"></path>
                        <path d="M6.7,0.5 C6.7,0.6 6.6,0.7 6.4,0.7 L4,0.6 C3.8,0.6 3.6,0.7 3.6,0.9 L3.6,1.4 C3.6,1.6 3.7,1.8 3.9,1.8 L6.3,2 C6.4,2 6.5,2.1 6.5,2.3 C6.5,2.4 6.4,2.5 6.2,2.5 L3.8,2.3 C3.3,2.3 3,1.9 3,1.4 L3,0.9 C3,0.4 3.4,0.1 3.9,0.1 L6.3,0.3 C6.6,0.2 6.7,0.4 6.7,0.5" id="Shape_102_" fill="#0E2947"></path>
                        <path d="M6.4,0.5 C5.9,0.5 5.5,0.8 5.5,1.3 C5.5,1.8 5.8,2.2 6.3,2.2 C6.8,2.2 7.2,1.9 7.2,1.4 C7.3,0.9 6.9,0.5 6.4,0.5" id="Shape_101_" fill="#6152F5"></path>
                        <path d="M7.5,1.4 C7.5,2 6.9,2.5 6.3,2.4 C5.7,2.4 5.2,1.8 5.3,1.2 C5.3,0.6 5.9,0.1 6.5,0.2 C7.1,0.3 7.5,0.8 7.5,1.4 M5.7,1.3 C5.7,1.6 5.9,1.9 6.3,2 C6.6,2 6.9,1.8 7,1.4 C7,1.1 6.8,0.8 6.4,0.7 C6.1,0.7 5.8,1 5.7,1.3" id="Shape_100_" fill="#0E2947"></path>
                    </g>
                    <path d="M11.9,8.7 C9.6,9.8 7.1,11 5.3,12.8 C4.8,13.3 4.7,14.2 4.9,14.8 C5.1,15.5 6.4,16 6.5,16.6 C6.5,16.9 6.9,17.2 7.2,17.3 C9,17.5 10.5,16.3 11.9,15.3 C13.2,14.5 14.4,13.7 15.7,12.8 C17.2,11.8 18.4,10.6 20,9.8 C20.2,9.8 20.4,9.7 20.6,9.6 C20.5,9.7 20.5,9.7 20.7,9.6 C20.8,9.5 20.9,9.4 21,9.3 C21.1,9.2 21.2,9 21.3,8.8 C21.5,8.5 21.6,8.2 21.6,7.8 C21.7,7.2 21.5,6.5 20.9,6.1 C20.8,6.1 20.7,6 20.7,6 C20.7,5.5 20.6,5 20.2,4.6 C19.9,4.4 19.6,4.3 19.3,4.2 C19.2,4.2 19.1,4.2 19,4.2 C18.9,4.2 18.7,4.2 18.5,4.2 C15.9,5.3 13.9,6.9 11.9,8.7 M10.1,13.3 C10.1,13.4 10.1,13.4 10.1,13.3 C9.8,13.5 9.5,13.7 9.2,13.8 C9.5,13.7 9.8,13.5 10.1,13.3" id="Shape_116_" fill="#D6D6EA"></path>
                    <path d="M10.2,12.7 L5.5,15.6" id="Shape_115_" fill="#25E899"></path>
                    <path d="M10.5,12.5 C10.6,12.7 10.6,12.9 10.4,13 L5.7,16 C5.5,16.1 5.3,16.1 5.2,15.9 C5.1,15.7 5.1,15.5 5.3,15.4 L10,12.5 C10.2,12.2 10.4,12.3 10.5,12.5" id="Shape_99_" fill="#0E2947"></path>
                    <path d="M20.7,4.9 L21.8,6.6 C22.5,7.7 22.2,9.1 21.1,9.8 L9,17.4 C7.9,18.1 6.5,17.7 5.8,16.7 L4.6,15 C3.9,13.9 4.2,12.5 5.3,11.8 L17.4,4.2 C18.5,3.5 20,3.8 20.7,4.9 Z M6.4,16.3 C6.8,17 7.8,17.2 8.5,16.8 L20.6,9.2 C21.3,8.8 21.5,7.8 21.1,7.1 L20,5.3 C19.6,4.6 18.6,4.4 17.9,4.8 L5.8,12.4 C5.1,12.8 4.9,13.8 5.3,14.5 L6.4,16.3 Z" id="Shape_98_" fill="#0E2947"></path>
                    <path d="M9,10 L12.1,15 C12.2,15.2 12.2,15.4 12,15.5 C11.8,15.6 11.6,15.6 11.5,15.4 L8.4,10.4 C8.3,10.2 8.3,10 8.5,9.9 C8.6,9.8 8.8,9.8 9,10" id="Shape_96_" fill="#0E2947"></path>
                    <path d="M12,8.1 L15.1,13.1 C15.2,13.3 15.2,13.5 15,13.6 C14.8,13.7 14.6,13.7 14.5,13.5 L11.4,8.5 C11.3,8.3 11.3,8.1 11.5,8 C11.6,7.9 11.8,7.9 12,8.1" id="Shape_95_" fill="#0E2947"></path>
                </g>
                <g transform="translate(10.000000, 20.000000)" fill-rule="nonzero" id="Path">
                    <path d="M2.5,2 C2.5,1.9 2.5,1.8 2.5,1.7 C2.6,1.2 2.9,0.9 3.4,0.8 C3.8,0.7 4.2,0.9 4.5,1.3 C4.7,1.6 4.7,2 4.7,2.4 C4.6,2.7 4.5,3.1 4.3,3.4 C4.1,3.9 3.8,4.3 3.7,4.8 C3.7,4.9 3.7,4.9 3.6,4.8 C3.1,4.5 2.5,4.3 1.9,4.1 C1.6,4 1.3,3.9 1,3.7 C0.6,3.4 0.4,3 0.4,2.5 C0.4,2 0.8,1.7 1.2,1.6 C1.8,1.6 2.1,1.7 2.5,2 Z" fill="#FF0000"></path>
                    <path d="M0.6,3 C0.5,2.6 0.6,2.3 0.9,2 C1.2,1.7 1.8,1.6 2,1.7 C2,1.7 1.8,1.8 1.8,1.8 C1.3,2.3 1.2,2.9 1.4,3.6 C1.4,3.7 1.6,4 1.6,4.1 C1.2,3.9 0.8,3.7 0.6,3 Z" fill="url(#linearGradient-10)"></path>
                </g>
                <path d="M10,22.3 C10,22.2 10,22.1 10,22 C10.1,21.4 10.5,21 11.1,20.9 C11.6,20.8 12.1,21 12.4,21.5 C12.7,21.9 12.7,22.3 12.6,22.8 C12.5,23.2 12.3,23.6 12.2,23.9 C11.9,24.5 11.7,25 11.5,25.6 C11.5,25.7 11.5,25.7 11.4,25.6 C10.8,25.3 10.1,25.1 9.4,24.8 C9,24.7 8.7,24.5 8.4,24.3 C7.9,24 7.7,23.5 7.7,22.9 C7.7,22.4 8.1,21.9 8.6,21.8 C9.2,21.8 9.5,21.9 10,22.3 Z" id="Path" fill="#EA6374" fill-rule="nonzero"></path>
                <path d="M10,22.3 C10,22.2 10,22.1 10,22 C10.1,21.4 10.5,21 11.1,20.9 C11.6,20.8 12.1,21 12.4,21.5 C12.7,21.9 12.7,22.3 12.6,22.8 C12.5,23.2 12.3,23.6 12.2,23.9 C11.9,24.5 11.7,25 11.5,25.6 C11.5,25.7 11.5,25.7 11.4,25.6 C10.8,25.3 10.1,25.1 9.4,24.8 C9,24.7 8.7,24.5 8.4,24.3 C7.9,24 7.7,23.5 7.7,22.9 C7.7,22.4 8.1,21.9 8.6,21.8 C9.2,21.8 9.5,21.9 10,22.3 Z" id="Path" fill="url(#linearGradient-11)" fill-rule="nonzero"></path>
                <path d="M8.7,22.5 C9.1,22.5 9.4,22.6 9.7,22.8 C10,23 10.2,23.2 10.3,23.5 C10.4,23.8 10.5,24.1 10.3,24.4 C10.2,24.6 10.1,24.7 9.9,24.7 C9.7,24.7 9.6,24.7 9.4,24.6 C8.9,24.4 8.4,24 8.1,23.5 C8,23.4 8,23.2 7.9,23.1 C7.8,23 7.6,22.9 7.7,22.8 C8,22.7 8.4,22.5 8.7,22.5 Z" id="Path" fill="url(#radialGradient-12)" fill-rule="nonzero"></path>
                <path d="M10.1,22.1 C10.1,22.1 10.2,21.1 11.3,21 C12.4,20.9 13.4,22.4 12.2,24 C12.2,24 12.3,22.6 11.7,22.1 C11.2,21.7 10.5,21.4 10.1,22.1 Z" id="Path" fill="url(#linearGradient-13)" fill-rule="nonzero"></path>
                <path d="M7,24.4 C7,24.3 7,24.1 7,24 C7.1,23.3 7.6,22.8 8.4,22.7 C9,22.6 9.6,22.9 10,23.5 C10.3,24 10.4,24.5 10.2,25.1 C10.1,25.6 9.9,26.1 9.7,26.5 C9.4,27.2 9,27.9 8.8,28.6 C8.8,28.7 8.7,28.7 8.7,28.7 C7.9,28.3 7.1,28 6.2,27.7 C5.8,27.5 5.3,27.4 5,27.1 C4.4,26.7 4.1,26.1 4.2,25.4 C4.2,24.7 4.7,24.2 5.4,24 C6,23.8 6.4,23.9 7,24.4 Z" id="Path" fill="#FF0000" fill-rule="nonzero"></path>
                <path d="M4.3,25.8 C4.2,25.2 4.4,24.7 4.8,24.3 C5.2,23.9 6,23.8 6.3,23.9 C6.3,24 6.1,24 6,24.1 C5.3,24.9 5.1,25.7 5.4,26.7 C5.4,26.9 5.7,27.3 5.7,27.4 C5.1,27.1 4.5,26.8 4.3,25.8 Z" id="Path" fill="url(#linearGradient-14)" fill-rule="nonzero"></path>
                <path d="M10.3,25.5 C10.2,25.5 10,25.4 10,25.4 C9.1,25.7 8.3,26 7.4,26.2 C7.1,26.3 6.8,26.4 6.6,26.5 C6.3,26.7 6.2,26.9 5.9,27.1 C5.8,27.2 5.7,27.4 5.6,27.3 C5.5,27.3 5.5,27.1 5.5,27 C5.5,26.5 5.7,25.9 6.1,25.5 C6.6,25.1 8.1,23.5 9.9,24.4 C10.4,24.8 10.5,25.4 10.3,25.5 Z" id="Path" fill="url(#radialGradient-15)" fill-rule="nonzero"></path>
                <path d="M10.4,25 C10.4,24.9 10.4,24.7 10.4,24.6 C10.5,23.9 11,23.4 11.8,23.3 C12.4,23.2 13,23.5 13.4,24.1 C13.7,24.6 13.8,25.1 13.6,25.7 C13.5,26.2 13.3,26.7 13.1,27.1 C12.8,27.8 12.4,28.5 12.2,29.2 C12.2,29.3 12.1,29.3 12.1,29.3 C11.3,28.9 10.5,28.6 9.6,28.3 C9.2,28.1 8.7,28 8.4,27.7 C7.8,27.3 7.5,26.7 7.6,26 C7.6,25.3 8.1,24.8 8.8,24.6 C9.4,24.4 9.7,24.5 10.4,25 Z" id="Path" fill="#DD0A24" fill-rule="nonzero"></path>
                <path d="M10,25.6 C10.3,25.4 10.6,24.5 11,24.3 C11.7,24.1 12.9,23.5 13.2,24.5 C13.2,24.6 13.5,24.5 13.6,24.6 C13.7,24.7 13.7,24.8 13.7,24.9 C13.7,25.1 13.7,25.3 13.7,25.4 C13.6,25.5 13.4,25.6 13.3,25.7 C12.5,26 11.7,26.3 10.9,26.5 C10.5,26.6 10.1,26.7 9.7,26.8 C9.6,26.8 9.3,27 9.2,26.8 C9.1,26.7 9.3,26.4 9.4,26.3 C9.4,26.2 9.6,25.9 10,25.6 Z" id="Path" fill="url(#radialGradient-16)" fill-rule="nonzero"></path>
                <path d="M10.4,25 C10.4,24.9 10.4,24.7 10.4,24.6 C10.5,23.9 11,23.4 11.8,23.3 C12.4,23.2 13,23.5 13.4,24.1 C13.7,24.6 13.8,25.1 13.6,25.7 C13.5,26.2 13.3,26.7 13.1,27.1 C12.8,27.8 12.4,28.5 12.2,29.2 C12.2,29.3 12.1,29.3 12.1,29.3 C11.3,28.9 10.5,28.6 9.6,28.3 C9.2,28.1 8.7,28 8.4,27.7 C7.8,27.3 7.5,26.7 7.6,26 C7.6,25.3 8.1,24.8 8.8,24.6 C9.4,24.4 9.7,24.5 10.4,25 Z" id="Path" fill="url(#linearGradient-17)" fill-rule="nonzero"></path>
                <path d="M9,25.7 C9.3,26 9.5,26.5 9.6,26.9 C9.7,27.3 9.6,27.8 9.4,28.3 C9.4,28.3 9.4,28.4 9.3,28.4 C9.3,28.4 9.2,28.4 9.2,28.3 C8.7,27.6 8.2,26.9 7.8,26.1 C7.7,25.9 7.6,25.7 7.6,25.5 C7.6,25.3 7.7,25.3 7.9,25.3 C8.4,25.3 8.7,25.5 9,25.7 Z" id="Path" fill="url(#linearGradient-18)" fill-rule="nonzero"></path>
                <path d="M5.6,28 C5.6,27.8 5.5,27.7 5.5,27.6 C5.3,26.8 5.6,26 6.3,25.6 C6.9,25.2 7.7,25.2 8.4,25.7 C9,26.1 9.2,26.6 9.4,27.3 C9.5,27.9 9.5,28.5 9.5,29.1 C9.5,30 9.4,30.9 9.6,31.7 C9.6,31.8 9.6,31.8 9.5,31.8 C8.5,31.7 7.5,31.8 6.4,31.9 C5.9,31.9 5.3,32 4.8,31.8 C4,31.6 3.4,31.1 3.1,30.4 C2.8,29.7 3.1,28.9 3.7,28.4 C4.3,27.9 4.7,27.8 5.6,28 Z" id="Path" fill="#FF6D96" fill-rule="nonzero"></path>
                <g transform="translate(2.000000, 25.000000)" fill-rule="nonzero" id="Path">
                    <path d="M3.5,2.8 C3.5,2.6 3.4,2.5 3.4,2.4 C3.2,1.6 3.6,0.8 4.3,0.4 C4.9,0 5.7,0 6.4,0.5 C7,0.9 7.2,1.5 7.4,2.1 C7.5,2.7 7.5,3.3 7.4,3.9 C7.4,4.8 7.3,5.7 7.4,6.6 C7.4,6.7 7.4,6.7 7.3,6.7 C6.3,6.6 5.2,6.7 4.2,6.7 C3.7,6.7 3.1,6.7 2.6,6.6 C1.8,6.4 1.2,5.9 0.9,5.1 C0.6,4.4 0.9,3.5 1.5,3.1 C2.2,2.7 2.6,2.6 3.5,2.8 Z" fill="url(#linearGradient-19)"></path>
                    <path d="M3.5,2.5 C3.5,2.5 3,1.1 4.4,0.3 C5.7,-0.4 7.6,0.7 7.4,3.2 C7.4,3.4 7.4,4.9 7.3,5.1 C7.3,5.1 7.2,3.9 7.1,3.4 C7,2.7 6.3,1.7 5.4,1.5 C4.8,1.4 3.7,1.3 3.5,2.5 Z" fill="url(#linearGradient-20)"></path>
                    <path d="M3.5,2.8 C3.5,2.6 3.4,2.5 3.4,2.4 C3.2,1.6 3.6,0.8 4.3,0.4 C4.9,0 5.7,0 6.4,0.5 C7,0.9 7.2,1.5 7.4,2.1 C7.5,2.7 7.5,3.3 7.4,3.9 C7.4,4.8 7.3,5.7 7.4,6.6 C7.4,6.7 7.4,6.7 7.3,6.7 C6.3,6.6 5.2,6.7 4.2,6.7 C3.7,6.7 3.1,6.7 2.6,6.6 C1.8,6.4 1.2,5.9 0.9,5.1 C0.6,4.4 0.9,3.5 1.5,3.1 C2.2,2.7 2.6,2.6 3.5,2.8 Z" fill="url(#linearGradient-21)"></path>
                    <path d="M3.5,2.8 C3.5,2.8 2.9,2.6 2.3,2.7 C1.7,2.8 0.6,3.5 0.8,4.7 C0.9,5.7 1.6,6.2 2.3,6.5 C3.5,7 6.2,6.3 7.4,6.6 C7.5,6.7 4.1,5.1 3.5,2.8 Z" fill="url(#linearGradient-22)"></path>
                </g>
                <path d="M6.8,25.9 C7.2,25.7 7.8,25.7 8.2,25.9 C8.6,26.1 9,26.5 9.1,27 C9,27 8.9,26.9 8.8,26.9 C8,26.5 7.1,26.6 6.3,27.1 C6.2,27.2 6.1,27.2 6,27.3 C6.1,26.7 6.3,26.2 6.8,25.9 Z" id="Path" fill="url(#radialGradient-23)" fill-rule="nonzero"></path>
                <path d="M11.7,24 C12.1,23.9 12.5,24.1 12.7,24.3 C13,24.6 13.1,24.9 13.1,25.3 C13.1,25.3 13,25.2 12.9,25.1 C12.4,24.6 11.7,24.5 11,24.6 C10.9,24.6 10.8,24.7 10.7,24.7 C11,24.4 11.3,24 11.7,24 Z" id="Path" fill="#DD314E" fill-rule="nonzero"></path>
                <path d="M3.2,30.5 C3.2,30.5 4.1,29.3 5.9,28.6 C7.6,27.9 9.4,27.9 9.4,27.9 L9.1,30.4 L3.2,30.5 Z" id="Path" fill="url(#linearGradient-24)" fill-rule="nonzero"></path>
                <g transform="translate(12.000000, 22.000000)" fill-rule="nonzero" id="Path">
                    <path d="M3.6,1.7 C3.7,1.6 3.7,1.5 3.8,1.4 C4.3,0.9 4.9,0.8 5.5,1.1 C6.1,1.3 6.4,1.9 6.4,2.5 C6.4,3 6.2,3.5 5.8,3.9 C5.5,4.2 5.1,4.5 4.7,4.7 C4.1,5.1 3.5,5.4 3,5.9 C2.9,6 2.9,5.9 2.9,5.9 C2.5,5.2 2,4.6 1.5,3.9 C1.2,3.6 1,3.2 0.8,2.8 C0.6,2.2 0.6,1.6 1,1.1 C1.4,0.6 2,0.4 2.6,0.6 C3.2,0.7 3.4,0.9 3.6,1.7 Z" fill="#EA6374"></path>
                    <path d="M3.6,1.7 C3.7,1.6 3.7,1.5 3.8,1.4 C4.3,0.9 4.9,0.8 5.5,1.1 C6.1,1.3 6.4,1.9 6.4,2.5 C6.4,3 6.2,3.5 5.8,3.9 C5.5,4.2 5.1,4.5 4.7,4.7 C4.1,5.1 3.5,5.4 3,5.9 C2.9,6 2.9,5.9 2.9,5.9 C2.5,5.2 2,4.6 1.5,3.9 C1.2,3.6 1,3.2 0.8,2.8 C0.6,2.2 0.6,1.6 1,1.1 C1.4,0.6 2,0.4 2.6,0.6 C3.2,0.7 3.4,0.9 3.6,1.7 Z" fill="url(#linearGradient-25)"></path>
                    <path d="M3.8,1.5 C3.8,1.5 4.5,0.6 5.6,1.1 C6.7,1.7 6.8,3.8 4.6,4.6 C4.6,4.6 5.6,3.3 5.3,2.4 C5.1,1.8 4.7,1.1 3.8,1.5 Z" fill="url(#linearGradient-26)"></path>
                </g>
                <path d="M14.1,24.3 C14.6,24.4 14.9,24.7 15.1,25.1 C15.3,25.5 15.4,25.9 15.4,26.4 C15.4,26.4 15.4,26.5 15.4,26.5 C15.4,26.5 15.3,26.5 15.3,26.5 C14.5,26.1 13.8,25.7 13.1,25.2 C13,25.1 12.8,24.9 12.7,24.8 C12.6,24.6 12.7,24.6 12.9,24.5 C13.3,24.2 13.8,24.2 14.1,24.3 Z" id="Path" fill="url(#linearGradient-27)" fill-rule="nonzero"></path>
                <path d="M11.9,26.2 C11.9,26.1 11.9,25.9 11.9,25.8 C12,25.1 12.5,24.6 13.3,24.5 C13.9,24.4 14.5,24.7 14.9,25.3 C15.2,25.8 15.3,26.3 15.1,26.9 C15,27.4 14.8,27.9 14.6,28.3 C14.3,29 13.9,29.7 13.7,30.4 C13.7,30.5 13.6,30.5 13.6,30.5 C12.8,30.1 12,29.8 11.1,29.5 C10.7,29.3 10.2,29.2 9.9,28.9 C9.3,28.5 9,27.9 9.1,27.2 C9.1,26.5 9.6,26 10.3,25.8 C10.9,25.6 11.3,25.7 11.9,26.2 Z" id="Path" fill="#DD0A24" fill-rule="nonzero"></path>
                <g transform="translate(9.000000, 21.000000)" fill-rule="nonzero" id="Path">
                    <path d="M2.9,5.2 C2.9,5.1 2.9,4.9 2.9,4.8 C3,4.1 3.5,3.6 4.3,3.5 C4.9,3.4 5.5,3.7 5.9,4.3 C6.2,4.8 6.3,5.3 6.1,5.9 C6,6.4 5.8,6.9 5.6,7.3 C5.3,8 4.9,8.7 4.7,9.4 C4.7,9.5 4.6,9.5 4.6,9.5 C3.8,9.1 3,8.8 2.1,8.5 C1.7,8.3 1.2,8.2 0.9,7.9 C0.3,7.5 0,6.9 0.1,6.2 C0.1,5.5 0.6,5 1.3,4.8 C1.9,4.6 2.3,4.7 2.9,5.2 Z" fill="url(#linearGradient-28)"></path>
                    <path d="M4.3,4.1 C4.7,4 5.1,4.2 5.3,4.4 C5.6,4.7 5.7,5 5.7,5.4 C5.7,5.4 5.6,5.3 5.5,5.2 C5,4.7 4.3,4.6 3.6,4.7 C3.5,4.7 3.4,4.8 3.3,4.8 C3.6,4.5 3.8,4.2 4.3,4.1 Z" fill="url(#linearGradient-29)"></path>
                    <path d="M4.5,0.1 C4.8,0 5.1,0.1 5.3,0.3 C5.5,0.5 5.6,0.8 5.6,1.1 C5.6,1.1 5.5,1 5.5,1 C5.1,0.6 4.6,0.5 4.1,0.6 C4,0.6 3.9,0.6 3.9,0.7 C3.9,0.4 4.1,0.1 4.5,0.1 Z" fill="url(#linearGradient-30)"></path>
                </g>
                <path d="M9.1,28.8 C9.1,28.8 10,27.6 11.8,26.9 C13.5,26.2 15.3,26.2 15.3,26.2 L15,28.6 L9.1,28.8 Z" id="Path" fill="url(#linearGradient-31)" fill-rule="nonzero"></path>
                <g transform="translate(0.000000, 23.000000)" fill-rule="nonzero">
                    <path d="M10.9,10.5 C13.5,10.2 16.1,9.8 18.5,8.4 C18.6,8.3 18.8,8.2 18.8,8.1 C18.9,8 19,8 19,7.9 C19.2,7.6 19.4,7.3 19.4,7 C19.4,6.5 19.2,6 18.8,5.7 C18.8,5.6 18.9,5.6 18.9,5.5 C19.1,4.8 18.7,4.2 18.1,3.9 C17.8,3.7 17.5,3.6 17.2,3.5 C17,3.5 16.8,3.4 16.6,3.4 C16.5,3.4 16.3,3.4 16.2,3.4 C16,3.4 16,3.5 16.1,3.4 C15.9,3.4 15.7,3.6 15.6,3.7 C14,4.3 12.2,4.4 10.5,4.8 C9,5.2 7.6,5.5 6.1,5.9 C4.4,6.3 2.5,6.5 1.4,8.1 C1.2,8.3 1.2,8.8 1.4,9.1 C1.8,9.6 1.3,10.9 1.6,11.5 C1.9,12.1 2.6,12.7 3.3,12.6 C6,12.4 8.6,11.5 10.9,10.5 M6.3,8.7 C6,8.8 5.7,8.9 5.3,9 C5.6,8.9 5.9,8.7 6.3,8.7 C6.2,8.7 6.3,8.7 6.3,8.7 M17.3,6.9 C16.4,7.4 15.4,7.8 14.4,8 C14.4,7.9 14.4,7.9 14.3,7.8 C13.9,7.3 13.8,6.7 13.6,6.1 C14.6,5.9 15.5,6 16.5,5.6 C16.4,6 16.5,5.6 16.5,5.6 C16.6,5.6 16.8,5.2 16.9,5.3 C16.9,5.3 16.9,5.3 16.9,5.3 C16.9,5.5 17,5.7 17.2,5.8 C17.2,6.2 17.1,6.6 17.3,6.9" id="Shape_68_" fill="#D6D6EA"></path>
                    <path d="M6.8,9 L1.5,10.4" id="Shape_67_" fill="#25E899"></path>
                    <g transform="translate(16.000000, 5.000000)">
                        <path d="M4.1,2.2 C4.2,2.1 4.1,1.9 4,1.9 L1.3,0.4 C1.2,0.3 1,0.4 1,0.5 C0.9,0.6 1,0.8 1.1,0.8 L3.8,2.3 C3.9,2.3 4.1,2.3 4.1,2.2" id="Shape_66_" fill="#0E2947"></path>
                        <path d="M7,2.8 L4.9,1.6 C4.6,1.4 4.2,1.5 4.1,1.8 L3.8,2.3 C3.6,2.6 3.7,3 4,3.1 L6.1,4.3" id="Shape_65_" fill="#EFF4EE"></path>
                        <path d="M6.4,4.4 C6.5,4.3 6.4,4.1 6.3,4.1 L4.2,2.9 C4,2.8 4,2.6 4.1,2.4 L4.4,1.9 C4.5,1.7 4.7,1.7 4.9,1.8 L7,3 C7.1,3.1 7.3,3 7.3,2.9 C7.4,2.8 7.3,2.6 7.2,2.6 L5,1.4 C4.6,1.2 4.1,1.3 3.8,1.7 L3.5,2.2 C3.3,2.6 3.4,3.1 3.8,3.4 L5.9,4.6 C6.2,4.6 6.3,4.5 6.4,4.4" id="Shape_64_" fill="#0E2947"></path>
                        <path d="M6.2,4.3 C5.8,4.1 5.6,3.5 5.9,3.1 C6.1,2.7 6.7,2.5 7.1,2.8 C7.5,3 7.7,3.6 7.4,4 C7.1,4.4 6.6,4.5 6.2,4.3" id="Shape_63_" fill="#6152F5"></path>
                        <path d="M7.6,4.1 C7.3,4.6 6.6,4.8 6.1,4.5 C5.6,4.2 5.4,3.5 5.7,3 C6,2.5 6.7,2.3 7.2,2.6 C7.7,2.9 7.9,3.5 7.6,4.1 M6,3.2 C5.8,3.5 5.9,3.9 6.2,4.1 C6.5,4.3 6.9,4.2 7.1,3.9 C7.3,3.6 7.2,3.2 6.9,3 C6.6,2.8 6.2,2.9 6,3.2" id="Shape_62_" fill="#0E2947"></path>
                    </g>
                    <g transform="translate(16.000000, 3.000000)">
                        <path d="M4.3,2.4 C4.3,2.3 4.1,2.2 4,2.2 L0.9,2.7 C0.8,2.7 0.7,2.8 0.7,3 C0.7,3.1 0.9,3.2 1,3.2 L4.1,2.7 C4.2,2.7 4.3,2.6 4.3,2.4" id="Shape_61_" fill="#0E2947"></path>
                        <path d="M6.9,1.1 L4.5,1.5 C4.2,1.6 3.9,1.9 4,2.2 L4.1,2.7 C4.2,3 4.5,3.3 4.8,3.2 L7.2,2.8" id="Shape_60_" fill="#EFF4EE"></path>
                        <path d="M7.4,2.8 C7.4,2.7 7.2,2.6 7.1,2.6 L4.8,3 C4.6,3 4.4,2.9 4.4,2.7 L4.3,2.2 C4.3,2 4.4,1.8 4.6,1.8 L7,1.4 C7.1,1.4 7.2,1.2 7.2,1.1 C7.2,1 7,0.9 6.9,0.9 L4.5,1.3 C4,1.4 3.7,1.8 3.8,2.3 L3.9,2.8 C4,3.3 4.4,3.6 4.9,3.5 L7.3,3.1 C7.4,3 7.5,2.9 7.4,2.8" id="Shape_59_" fill="#0E2947"></path>
                        <path d="M7.2,2.8 C6.7,2.9 6.3,2.6 6.2,2.1 C6.1,1.6 6.4,1.2 6.9,1.1 C7.4,1 7.8,1.3 7.9,1.8 C8,2.3 7.7,2.7 7.2,2.8" id="Shape_58_" fill="#6152F5"></path>
                        <path d="M8.1,1.8 C8.2,2.4 7.8,3 7.2,3.1 C6.6,3.2 6,2.8 5.9,2.2 C5.8,1.6 6.2,1 6.8,0.9 C7.5,0.7 8,1.1 8.1,1.8 M6.4,2.1 C6.5,2.4 6.8,2.7 7.1,2.6 C7.4,2.5 7.7,2.2 7.6,1.9 C7.5,1.6 7.2,1.3 6.9,1.4 C6.6,1.4 6.4,1.7 6.4,2.1" id="Shape_57_" fill="#0E2947"></path>
                    </g>
                    <g transform="translate(16.000000, 0.000000)">
                        <path d="M3.3,3.7 C3.2,3.6 3,3.6 3,3.7 L1,6.1 C0.9,6.2 0.9,6.4 1,6.4 C1.1,6.5 1.3,6.5 1.3,6.4 L3.3,4 C3.4,3.9 3.4,3.8 3.3,3.7" id="Shape_56_" fill="#0E2947"></path>
                        <path d="M4.4,1 L2.9,2.9 C2.7,3.2 2.7,3.5 3,3.8 L3.4,4.1 C3.7,4.3 4.1,4.3 4.3,4 L5.8,2.1" id="Shape_55_" fill="#EFF4EE"></path>
                        <path d="M5.9,1.9 C5.8,1.8 5.6,1.8 5.6,1.9 L4,3.8 C3.9,4 3.6,4 3.5,3.9 L3.1,3.6 C2.9,3.5 2.9,3.2 3,3.1 L4.5,1.2 C4.6,1.1 4.6,0.9 4.5,0.9 C4.4,0.8 4.2,0.8 4.2,0.9 L2.7,2.8 C2.4,3.2 2.5,3.7 2.8,4 L3.2,4.3 C3.6,4.6 4.1,4.5 4.4,4.2 L5.9,2.3 C6,2.1 6,2 5.9,1.9" id="Shape_54_" fill="#0E2947"></path>
                        <path d="M5.7,2.1 C5.4,2.5 4.8,2.5 4.5,2.2 C4.1,1.9 4.1,1.3 4.4,1 C4.7,0.6 5.3,0.6 5.6,0.9 C6,1.2 6,1.7 5.7,2.1" id="Shape_53_" fill="#6152F5"></path>
                        <path d="M5.8,0.7 C6.3,1.1 6.4,1.8 6,2.3 C5.6,2.8 4.9,2.9 4.4,2.5 C3.9,2.1 3.8,1.4 4.2,0.9 C4.6,0.3 5.3,0.3 5.8,0.7 M4.6,2 C4.9,2.2 5.3,2.2 5.5,1.9 C5.7,1.6 5.7,1.2 5.4,1 C5.1,0.8 4.7,0.8 4.5,1.1 C4.3,1.4 4.4,1.8 4.6,2" id="Shape_46_" fill="#0E2947"></path>
                    </g>
                    <path d="M7.2,8.9 C7.1,8.7 6.9,8.6 6.7,8.6 L1.4,10 C1.2,10.1 1.1,10.3 1.1,10.5 C1.2,10.7 1.4,10.8 1.6,10.8 L6.9,9.4 C7.1,9.4 7.2,9.2 7.2,8.9" id="Shape_42_" fill="#0E2947"></path>
                    <path d="M18,9.5 L4.2,13.2 C3,13.5 1.7,12.8 1.4,11.6 L0.9,9.7 C0.6,8.5 1.3,7.2 2.5,6.9 L16.3,3.2 C17.5,2.9 18.8,3.6 19.1,4.8 L19.6,6.7 C20,7.9 19.2,9.1 18,9.5 Z M2.1,11.4 C2.3,12.2 3.2,12.7 4,12.5 L17.8,8.8 C18.6,8.6 19.1,7.7 18.9,6.9 L18.4,5 C18.2,4.2 17.3,3.7 16.5,3.9 L2.7,7.6 C1.9,7.8 1.4,8.7 1.6,9.5 L2.1,11.4 Z" id="Shape_38_" fill="#0E2947"></path>
                    <path d="M15.4,8.4 C14.6,8.6 13.7,8.1 13.5,7.3 C13.3,6.5 13.8,5.6 14.6,5.4 C15.4,5.2 16.3,5.7 16.5,6.5 C16.7,7.3 16.2,8.2 15.4,8.4" id="Shape_37_" stroke="#0E2947" stroke-width="0.75" fill="#6152F5"></path>
                    <path d="M8,11.8 L6.5,6.1 C6.4,5.9 6.2,5.8 6,5.8 C5.8,5.9 5.7,6.1 5.7,6.3 L7.2,12 C7.3,12.2 7.5,12.3 7.7,12.3 C7.9,12.2 8,12 8,11.8" id="Shape_36_" fill="#0E2947"></path>
                    <path d="M11.4,10.8 L9.9,5.1 C9.8,4.9 9.6,4.8 9.4,4.8 C9.2,4.9 9.1,5.1 9.1,5.3 L10.6,11 C10.7,11.2 10.9,11.3 11.1,11.3 C11.3,11.3 11.4,11.1 11.4,10.8" id="Shape_35_" fill="#0E2947"></path>
                    <path d="M18.4,4.6 L14.8,6.3 C14.4,6.5 14.3,6.9 14.4,7.3 C14.6,7.6 14.9,7.8 15.2,7.7 L19.1,6.8 C19.7,6.7 20.1,6 20,5.4 C19.9,4.8 19.2,4.4 18.6,4.5 C18.5,4.5 18.5,4.6 18.4,4.6 Z" id="Path" fill="#0E2947"></path>
                    <circle id="Oval" fill="#6152F5" cx="18.8" cy="5.7" r="1"></circle>
                    <path d="M19.4,5.3 C19.2,5 18.8,4.8 18.5,4.9 C18.4,4.9 18.4,4.9 18.4,5 C18.4,5.1 18.5,5.1 18.5,5.1 C18.7,5.2 18.9,5.3 19,5.5 C19.2,5.8 19,6 19.1,6.3 C19.6,6.2 19.6,5.5 19.4,5.3 Z" id="Path" fill="#D6D6EA"></path>
                </g>
                <circle id="Oval" fill="url(#linearGradient-32)" fill-rule="nonzero" cx="23.1" cy="49.9" r="1.2"></circle>
                <circle id="Oval" fill="url(#linearGradient-33)" fill-rule="nonzero" cx="39.7" cy="47.1" r="1.2"></circle>
                <g transform="translate(61.000000, 9.000000)" fill-rule="nonzero" id="Path">
                    <path d="M3.3,2.6 C3.4,2.6 3.5,2.6 3.6,2.5 C4.2,2.4 4.8,2.7 5.1,3.3 C5.4,3.8 5.3,4.4 4.9,4.9 C4.6,5.3 4.1,5.5 3.6,5.6 C3.1,5.7 2.7,5.6 2.2,5.5 C1.5,5.4 0.8,5.3 0.1,5.4 C0,5.4 0,5.4 0,5.3 C0.1,4.5 0.1,3.7 0.2,2.9 C0.2,2.5 0.2,2 0.4,1.6 C0.6,1 1,0.6 1.7,0.4 C2.3,0.2 2.9,0.5 3.2,1 C3.6,1.5 3.6,1.9 3.3,2.6 Z" fill="url(#linearGradient-34)"></path>
                    <path d="M3.6,2.5 C3.6,2.5 4.8,2.2 5.3,3.4 C5.8,4.5 4.8,5.9 2.8,5.6 C2.6,5.6 1.5,5.5 1.3,5.4 C1.3,5.4 2.2,5.4 2.7,5.3 C3.2,5.2 4.1,4.7 4.3,4.1 C4.4,3.6 4.5,2.8 3.6,2.5 Z" fill="url(#linearGradient-35)"></path>
                    <path d="M3.3,2.6 C3.4,2.6 3.5,2.6 3.6,2.5 C4.2,2.4 4.8,2.7 5.1,3.3 C5.4,3.8 5.3,4.4 4.9,4.9 C4.6,5.3 4.1,5.5 3.6,5.6 C3.1,5.7 2.7,5.6 2.2,5.5 C1.5,5.4 0.8,5.3 0.1,5.4 C0,5.4 0,5.4 0,5.3 C0.1,4.5 0.1,3.7 0.2,2.9 C0.2,2.5 0.2,2 0.4,1.6 C0.6,1 1,0.6 1.7,0.4 C2.3,0.2 2.9,0.5 3.2,1 C3.6,1.5 3.6,1.9 3.3,2.6 Z" fill="url(#linearGradient-36)"></path>
                    <path d="M3.3,2.6 C3.3,2.6 3.5,2.1 3.5,1.7 C3.5,1.3 3,0.3 2,0.4 C1.2,0.4 0.8,0.9 0.5,1.4 C0,2.3 0.4,4.5 0.1,5.4 C0.1,5.4 1.5,2.9 3.3,2.6 Z" fill="url(#linearGradient-37)"></path>
                </g>
                <g transform="translate(55.000000, 13.000000)" fill-rule="nonzero" id="Path">
                    <path d="M2.4,1.5 C2.5,1.4 2.5,1.4 2.6,1.3 C2.9,1 3.4,0.9 3.8,1.1 C4.2,1.3 4.4,1.6 4.4,2.1 C4.4,2.5 4.2,2.8 4,3 C3.8,3.2 3.5,3.4 3.2,3.6 C2.8,3.9 2.4,4.1 2,4.4 C2,4.4 1.9,4.4 1.9,4.4 C1.6,3.9 1.3,3.5 0.9,3 C0.7,2.8 0.5,2.5 0.4,2.2 C0.2,1.8 0.3,1.4 0.6,1 C0.9,0.7 1.3,0.5 1.7,0.7 C2,0.9 2.2,1 2.4,1.5 Z" fill="url(#linearGradient-38)"></path>
                    <path d="M2.5,1.4 C2.5,1.4 3,0.7 3.8,1.1 C4.5,1.5 4.6,2.7 3.4,3.4 C3.3,3.5 2.6,3.9 2.5,4 C2.5,4 3,3.6 3.2,3.4 C3.5,3.1 3.7,2.5 3.5,2.1 C3.4,1.6 3.1,1.1 2.5,1.4 Z" fill="url(#linearGradient-39)"></path>
                    <path d="M2.4,1.5 C2.5,1.4 2.5,1.4 2.6,1.3 C2.9,1 3.4,0.9 3.8,1.1 C4.2,1.3 4.4,1.6 4.4,2.1 C4.4,2.5 4.2,2.8 4,3 C3.8,3.2 3.5,3.4 3.2,3.6 C2.8,3.9 2.4,4.1 2,4.4 C2,4.4 1.9,4.4 1.9,4.4 C1.6,3.9 1.3,3.5 0.9,3 C0.7,2.8 0.5,2.5 0.4,2.2 C0.2,1.8 0.3,1.4 0.6,1 C0.9,0.7 1.3,0.5 1.7,0.7 C2,0.9 2.2,1 2.4,1.5 Z" fill="url(#linearGradient-40)"></path>
                    <path d="M2.4,1.5 C2.4,1.5 2.3,1.2 2.1,0.9 C1.9,0.7 1.2,0.4 0.7,0.8 C0.3,1.2 0.3,1.6 0.3,2 C0.4,2.7 1.6,3.7 1.8,4.4 C1.8,4.5 1.5,2.5 2.4,1.5 Z" fill="url(#linearGradient-41)"></path>
                </g>
                <g transform="translate(54.000000, 2.000000)" fill-rule="nonzero" id="Path">
                    <path d="M2.2,1 C2.2,0.9 2.2,0.8 2.1,0.8 C1.9,0.4 1.6,0.1 1.1,0.1 C0.7,0.1 0.4,0.3 0.2,0.7 C0.1,1 0.1,1.4 0.2,1.7 C0.3,2 0.5,2.3 0.7,2.5 C1,2.9 1.2,3.3 1.4,3.7 C1.4,3.8 1.4,3.8 1.5,3.7 C1.9,3.4 2.4,3.1 2.9,2.8 C3.2,2.7 3.4,2.5 3.6,2.3 C3.9,2 4,1.6 3.9,1.2 C3.8,0.8 3.5,0.5 3,0.5 C2.8,0.6 2.6,0.6 2.2,1 Z" fill="url(#linearGradient-42)"></path>
                    <path d="M2.2,0.8 C2.2,0.8 2,0 1.2,0.1 C0.4,0.2 -0.1,1.2 0.7,2.3 C0.8,2.4 1.2,3.1 1.3,3.1 C1.3,3.1 1,2.5 0.9,2.3 C0.8,2 0.8,1.3 1.1,1 C1.2,0.7 1.7,0.4 2.2,0.8 Z" fill="url(#linearGradient-43)"></path>
                    <path d="M2.2,1 C2.2,0.9 2.2,0.8 2.1,0.8 C1.9,0.4 1.6,0.1 1.1,0.1 C0.7,0.1 0.4,0.3 0.2,0.7 C0.1,1 0.1,1.4 0.2,1.7 C0.3,2 0.5,2.3 0.7,2.5 C1,2.9 1.2,3.3 1.4,3.7 C1.4,3.8 1.4,3.8 1.5,3.7 C1.9,3.4 2.4,3.1 2.9,2.8 C3.2,2.7 3.4,2.5 3.6,2.3 C3.9,2 4,1.6 3.9,1.2 C3.8,0.8 3.5,0.5 3,0.5 C2.8,0.6 2.6,0.6 2.2,1 Z" fill="url(#linearGradient-44)"></path>
                    <path d="M2.2,1 C2.2,1 2.4,0.7 2.7,0.6 C3,0.5 3.7,0.5 4,1.1 C4.2,1.6 4.1,2 3.8,2.3 C3.4,2.9 2,3.3 1.5,3.8 C1.5,3.8 2.6,2.2 2.2,1 Z" fill="url(#linearGradient-45)"></path>
                </g>
                <g transform="translate(48.000000, 6.000000)" fill-rule="nonzero" id="Path">
                    <path d="M3.4,2 C3.4,1.9 3.5,1.8 3.5,1.7 C3.8,1.1 4.3,0.8 5,0.8 C5.6,0.8 6.1,1.2 6.3,1.8 C6.5,2.3 6.4,2.8 6.2,3.3 C6,3.7 5.7,4.1 5.4,4.4 C5,4.9 4.5,5.5 4.2,6.1 C4.2,6.2 4.1,6.2 4.1,6.1 C3.5,5.5 2.8,5.1 2.1,4.7 C1.7,4.5 1.4,4.2 1.1,3.9 C0.7,3.4 0.5,2.8 0.7,2.2 C0.9,1.6 1.4,1.2 2,1.2 C2.6,1.2 2.9,1.4 3.4,2 Z" fill="#FF0013"></path>
                    <path d="M3.5,1.7 C3.5,1.7 3.9,0.6 5.1,0.8 C6.3,1 7,2.6 5.6,4.1 C5.5,4.2 4.8,5.2 4.7,5.3 C4.7,5.3 5.2,4.5 5.4,4.1 C5.6,3.6 5.6,2.6 5.2,2.1 C4.9,1.6 4.2,1.1 3.5,1.7 Z" fill="url(#linearGradient-46)"></path>
                    <path d="M3.4,2 C3.4,1.9 3.5,1.8 3.5,1.7 C3.8,1.1 4.3,0.8 5,0.8 C5.6,0.8 6.1,1.2 6.3,1.8 C6.5,2.3 6.4,2.8 6.2,3.3 C6,3.7 5.7,4.1 5.4,4.4 C5,4.9 4.5,5.5 4.2,6.1 C4.2,6.2 4.1,6.2 4.1,6.1 C3.5,5.5 2.8,5.1 2.1,4.7 C1.7,4.5 1.4,4.2 1.1,3.9 C0.7,3.4 0.5,2.8 0.7,2.2 C0.9,1.6 1.4,1.2 2,1.2 C2.6,1.2 2.9,1.4 3.4,2 Z" fill="url(#linearGradient-47)"></path>
                    <path d="M3.4,2 C3.4,2 3.1,1.6 2.7,1.4 C2.3,1.2 1.3,1.1 0.8,1.9 C0.4,2.6 0.6,3.2 0.9,3.7 C1.4,4.6 3.5,5.4 4.1,6.2 C4.1,6.2 2.7,3.7 3.4,2 Z" fill="url(#linearGradient-48)"></path>
                </g>
                <g transform="translate(58.000000, 5.000000)" fill-rule="nonzero" id="Path">
                    <path d="M1.7,1.5 C1.8,1.5 1.8,1.4 1.9,1.4 C2.2,1.2 2.6,1.2 2.9,1.5 C3.2,1.7 3.3,2 3.2,2.4 C3.1,2.7 2.9,2.9 2.7,3 C2.5,3.1 2.2,3.2 2,3.3 C1.6,3.4 1.2,3.5 0.9,3.7 C0.9,3.7 0.8,3.7 0.8,3.7 C0.7,3.3 0.5,2.8 0.3,2.4 C0.2,2.2 0.1,2 0.1,1.7 C0.1,1.3 0.2,1 0.5,0.8 C0.8,0.6 1.1,0.6 1.4,0.8 C1.5,1 1.6,1.1 1.7,1.5 Z" fill="#FF0013"></path>
                    <path d="M1.8,1.5 C1.8,1.5 2.3,1.1 2.8,1.6 C3.3,2.1 3.1,3 2,3.3 C1.9,3.3 1.3,3.5 1.2,3.5 C1.2,3.5 1.7,3.3 1.9,3.2 C2.2,3.1 2.5,2.6 2.4,2.2 C2.5,1.8 2.3,1.4 1.8,1.5 Z" fill="url(#linearGradient-49)"></path>
                    <path d="M1.7,1.5 C1.8,1.5 1.8,1.4 1.9,1.4 C2.2,1.2 2.6,1.2 2.9,1.5 C3.2,1.7 3.3,2 3.2,2.4 C3.1,2.7 2.9,2.9 2.7,3 C2.5,3.1 2.2,3.2 2,3.3 C1.6,3.4 1.2,3.5 0.9,3.7 C0.9,3.7 0.8,3.7 0.8,3.7 C0.7,3.3 0.5,2.8 0.3,2.4 C0.2,2.2 0.1,2 0.1,1.7 C0.1,1.3 0.2,1 0.5,0.8 C0.8,0.6 1.1,0.6 1.4,0.8 C1.5,1 1.6,1.1 1.7,1.5 Z" fill="url(#linearGradient-50)"></path>
                    <path d="M1.7,1.5 C1.7,1.5 1.7,1.2 1.6,1 C1.5,0.8 1,0.4 0.5,0.6 C0.1,0.8 1.42108547e-14,1.2 1.42108547e-14,1.5 C1.42108547e-14,2.1 0.6,3.1 0.7,3.7 C0.6,3.7 0.8,2.1 1.7,1.5 Z" fill="url(#linearGradient-51)"></path>
                </g>
                <g transform="translate(49.000000, 1.000000)" fill-rule="nonzero" id="Path">
                    <path d="M1.4,1.6 C1.3,1.6 1.3,1.6 1.2,1.6 C0.8,1.6 0.5,1.8 0.4,2.1 C0.3,2.4 0.3,2.7 0.6,3 C0.8,3.2 1.1,3.3 1.4,3.3 C1.7,3.3 1.9,3.2 2.2,3.2 C2.6,3.1 3,3 3.4,3 C3.4,3 3.5,3 3.4,2.9 C3.3,2.5 3.3,2 3.2,1.6 C3.2,1.4 3.1,1.1 3,0.9 C2.9,0.6 2.6,0.3 2.2,0.3 C1.9,0.2 1.5,0.4 1.4,0.7 C1.2,1 1.2,1.2 1.4,1.6 Z" fill="#FF0013"></path>
                    <path d="M1.2,1.6 C1.2,1.6 0.5,1.5 0.3,2.2 C0.1,2.8 0.7,3.6 1.8,3.3 C1.9,3.3 2.5,3.2 2.6,3.1 C2.6,3.1 2.1,3.1 1.8,3.1 C1.5,3.1 1,2.8 0.9,2.5 C0.8,2.2 0.7,1.8 1.2,1.6 Z" fill="url(#linearGradient-52)"></path>
                    <path d="M1.4,1.6 C1.3,1.6 1.3,1.6 1.2,1.6 C0.8,1.6 0.5,1.8 0.4,2.1 C0.3,2.4 0.3,2.7 0.6,3 C0.8,3.2 1.1,3.3 1.4,3.3 C1.7,3.3 1.9,3.2 2.2,3.2 C2.6,3.1 3,3 3.4,3 C3.4,3 3.5,3 3.4,2.9 C3.3,2.5 3.3,2 3.2,1.6 C3.2,1.4 3.1,1.1 3,0.9 C2.9,0.6 2.6,0.3 2.2,0.3 C1.9,0.2 1.5,0.4 1.4,0.7 C1.2,1 1.2,1.2 1.4,1.6 Z" fill="url(#linearGradient-53)"></path>
                    <path d="M1.4,1.6 C1.4,1.6 1.3,1.3 1.3,1.1 C1.3,0.9 1.5,0.3 2.1,0.3 C2.6,0.3 2.8,0.5 3,0.8 C3.3,1.3 3.2,2.5 3.4,3 C3.3,3 2.4,1.7 1.4,1.6 Z" fill="url(#linearGradient-54)"></path>
                </g>
            </g>
        </g>
    </g>
</svg>