<?xml version="1.0" encoding="UTF-8"?>
<svg width="75px" height="84px" viewBox="0 0 75 84" version="1.1" xmlns="http://www.w3.org/2000/svg" xmlns:xlink="http://www.w3.org/1999/xlink">
    <!-- Generator: Sketch 55.2 (78181) - https://sketchapp.com -->
    <title>v</title>
    <desc>Created with Sketch.</desc>
    <g id="Page-1" stroke="none" stroke-width="1" fill="none" fill-rule="evenodd">
        <g id="v" fill-rule="nonzero">
            <g id="Group">
                <g>
                    <path d="M74.8327,38.1589 C74.8327,17.5764 58.1472,0.8903 37.5642,0.8903 C16.9812,0.8903 0.2956,17.5764 0.2956,38.1589 C0.2956,58.7419 16.9812,75.4274 37.5642,75.4274 C58.1472,75.4274 74.8327,58.7419 74.8327,38.1589" id="Shape" fill="#CBC9D1"></path>
                    <rect id="Rectangle-path" fill="#15003E" x="28.3659" y="29.0114" width="17.6758" height="15.7969"></rect>
                    <path d="M46.4812,45.2468 L27.9274,45.2468 L27.9274,28.5729 L46.4812,28.5729 L46.4812,45.2468 Z M28.8054,44.3688 L45.6032,44.3688 L45.6032,29.4499 L28.8054,29.4499 L28.8054,44.3688 Z" id="Shape" fill="#362B59"></path>
                    <path d="M53.6042,45.2419 L37.5642,41.0651 L21.5241,45.2419 C20.7116,45.4538 20.0905,46.112 19.9265,46.9372 L14.653,73.4753 L16.5046,74.6042 C29.4372,82.489 45.6921,82.489 58.6247,74.6042 L60.4763,73.4753 L55.2028,46.9372 C55.0378,46.112 54.4177,45.4538 53.6042,45.2419" id="Shape" fill="#362B59"></path>
                </g>
                <g id="Shape" transform="translate(22.000000, 42.000000)">
                    <polygon id="Path" fill="#362B59" points="0.5427 36.8737 2.4577 21.3815 15.5778 3.5124 28.7351 21.3815 30.6149 36.8737 17.2106 40.6677"></polygon>
                    <path d="M17.2106,41.1062 C17.1774,41.1062 17.1442,41.1032 17.113,41.0954 L0.445,37.3015 C0.2253,37.2517 0.0788,37.0427 0.1071,36.82 L2.0222,21.3278 C2.0319,21.2536 2.0593,21.1823 2.1042,21.1218 L15.2243,3.2536 C15.3073,3.1413 15.4392,3.0739 15.5778,3.0729 C15.7185,3.0729 15.8503,3.1403 15.9313,3.2526 L29.0876,21.1218 C29.1335,21.1823 29.1618,21.2536 29.1706,21.3288 L31.0495,36.821 C31.0778,37.0358 30.9431,37.238 30.7351,37.2966 L17.3308,41.0905 C17.2907,41.1013 17.2497,41.1062 17.2106,41.1062 Z M1.0271,36.5339 L17.1989,40.2155 L30.1335,36.5534 L28.3122,21.5485 L15.5788,4.2536 L2.8786,21.5485 L1.0271,36.5339 Z" fill="#15003E"></path>
                    <path d="M23.4411,2.0759 C23.4411,2.988 19.9206,3.7253 15.5778,3.7253 C11.236,3.7253 7.7165,2.988 7.7165,2.0759 C7.7165,1.1657 11.236,0.4274 15.5778,0.4274 C19.9206,0.4274 23.4411,1.1657 23.4411,2.0759" id="Path" fill="#15003E"></path>
                </g>
                <g id="Shape" transform="translate(14.000000, 25.000000)">
                    <path d="M23.5671,55.9567 C23.5651,55.9567 23.5651,55.9567 23.5651,55.9567 C16.0515,55.9558 8.6892,53.8894 2.2751,49.9792 L0.4245,48.8503 C0.2673,48.7546 0.1862,48.57 0.2214,48.3894 L5.4958,21.8522 C5.6911,20.8688 6.444,20.07 7.4147,19.8171 L23.4538,15.6403 C23.5271,15.6208 23.6022,15.6208 23.6755,15.6403 L39.7146,19.8171 C40.6853,20.07 41.4372,20.8688 41.6325,21.8522 L46.9069,48.3894 C46.9431,48.57 46.862,48.7546 46.7038,48.8503 L44.8532,49.9792 C38.4382,53.8894 31.0778,55.9567 23.5671,55.9567 Z M1.1433,48.2595 L2.7331,49.2292 C9.0085,53.0554 16.2126,55.0778 23.5642,55.0778 L23.5671,55.0778 C30.9167,55.0778 38.1188,53.0563 44.3962,49.2292 L45.986,48.2595 L40.7712,22.0231 C40.6423,21.3679 40.1394,20.8347 39.4938,20.6667 L23.5642,16.5183 L7.6355,20.6667 C6.989,20.8347 6.487,21.3679 6.3571,22.0231 L1.1433,48.2595 Z" fill="#15003E"></path>
                    <polygon id="Path" fill="#25E899" points="17.1667 12.697 28.947 12.697 29.945 13.0778 29.194 15.7653 17.9079 15.7653"></polygon>
                    <path d="M27.5993,19.0886 L19.5026,19.0886 C18.6228,19.0886 17.9079,18.3737 17.9079,17.4929 L17.9079,15.7653 L29.194,15.7653 L29.194,17.4929 C29.194,18.3737 28.4802,19.0886 27.5993,19.0886" id="Path" fill="#EFF4EE"></path>
                    <path d="M27.5993,19.4548 L19.5026,19.4548 C18.4216,19.4548 17.5417,18.5749 17.5417,17.4929 L17.5417,15.4001 L29.5603,15.4001 L29.5603,17.4929 C29.5603,18.5749 28.6804,19.4548 27.5993,19.4548 Z M18.2741,16.1325 L18.2741,17.4929 C18.2741,18.1706 18.8249,18.7224 19.5026,18.7224 L27.5993,18.7224 C28.2761,18.7224 28.8278,18.1706 28.8278,17.4929 L28.8278,16.1325 L18.2741,16.1325 Z" fill="#15003E"></path>
                    <path d="M21.4831,12.697 C19.7097,11.9187 18.4724,10.1481 18.4724,8.0886 C18.4724,6.8737 18.904,5.7595 19.6208,4.8894 C20.5437,3.7712 26.3483,3.7155 27.2683,4.7546 C28.0544,5.6433 28.5329,6.8103 28.5329,8.0886 C28.5329,10.1481 27.2956,11.9187 25.5241,12.697" id="Path" fill="#0FCE7C"></path>
                    <path d="M21.1638,13.0632 C21.1101,13.0632 21.0544,13.0505 21.0036,13.0261 C19.0495,12.0749 17.8366,10.1364 17.8366,7.9646 C17.8366,6.8854 18.1413,5.8376 18.7204,4.9343 C18.8298,4.7634 19.0573,4.7126 19.2272,4.822 C19.3972,4.9313 19.447,5.1589 19.3386,5.3298 C18.8347,6.114 18.569,7.0271 18.569,7.9646 C18.569,9.8532 19.6247,11.5407 21.3239,12.3669 C21.5065,12.4548 21.5827,12.6745 21.4929,12.8562 C21.4294,12.987 21.2995,13.0632 21.1638,13.0632" id="Path" fill="#15003E"></path>
                    <path d="M25.8161,13.0358 C25.6804,13.0358 25.5515,12.9626 25.488,12.8337 C25.3972,12.6521 25.4694,12.4323 25.6511,12.3425 C27.319,11.5056 28.3562,9.8288 28.3562,7.9646 C28.3562,6.9138 28.029,5.9147 27.4099,5.071 C27.2897,4.9079 27.3249,4.6794 27.489,4.5593 C27.6521,4.4392 27.8815,4.4743 28.0007,4.6384 C28.7116,5.6071 29.0886,6.7585 29.0886,7.9646 C29.0886,10.1081 27.8962,12.0368 25.9792,12.9978 C25.9265,13.0241 25.8698,13.0358 25.8161,13.0358" id="Path" fill="#15003E"></path>
                    <path d="M29.4792,16.1325 L17.6228,16.1325 L15.6931,8.5368 L15.6931,8.4919 C15.6931,4.1589 19.2185,0.6345 23.5505,0.6345 C27.8835,0.6345 31.4069,4.1589 31.4069,8.4919 L31.4069,8.5368 L31.3972,8.5817 L29.4792,16.1325 Z M18.1931,15.4001 L28.9099,15.4001 L30.6745,8.447 C30.6501,4.5397 27.4636,1.3679 23.5505,1.3679 C19.6374,1.3679 16.4519,4.5397 16.4265,8.447 L18.1931,15.4001 Z" fill="#15003E"></path>
                    <path d="M16.6442,11.9519 L15.8708,11.9519 C15.0417,11.9519 14.3659,11.278 14.3659,10.4489 L14.3659,7.5593 C14.3659,6.7302 15.0417,6.0563 15.8708,6.0563 L16.1989,6.0563 C16.4011,6.0563 16.5642,6.2194 16.5642,6.4216 C16.5642,6.6237 16.4011,6.7878 16.1989,6.7878 L15.8708,6.7878 C15.446,6.7878 15.0993,7.1335 15.0993,7.5593 L15.0993,10.4489 C15.0993,10.8737 15.446,11.2185 15.8708,11.2185 L16.6442,11.2185 C16.8454,11.2185 17.0105,11.3835 17.0105,11.5847 C17.0105,11.7878 16.8454,11.9519 16.6442,11.9519" id="Path" fill="#15003E"></path>
                    <path d="M31.2585,11.9519 L30.486,11.9519 C30.2829,11.9519 30.1179,11.7878 30.1179,11.5847 C30.1179,11.3835 30.2829,11.2185 30.486,11.2185 L31.2585,11.2185 C31.6833,11.2185 32.03,10.8737 32.03,10.4489 L32.03,7.5593 C32.03,7.1335 31.6833,6.7878 31.2585,6.7878 L30.9304,6.7878 C30.7272,6.7878 30.5642,6.6237 30.5642,6.4216 C30.5642,6.2194 30.7272,6.0563 30.9304,6.0563 L31.2585,6.0563 C32.0876,6.0563 32.7624,6.7302 32.7624,7.5593 L32.7624,10.4489 C32.7624,11.278 32.0876,11.9519 31.2585,11.9519" id="Path" fill="#15003E"></path>
                    <path d="M16.1403,7.6042 C16.0476,7.6042 15.9567,7.57 15.8845,7.5017 C15.7399,7.3591 15.737,7.1276 15.8776,6.9821 C17.9587,4.8513 20.7263,3.6784 23.6696,3.6784 C26.4421,3.6784 29.0915,4.736 31.1296,6.656 C31.2761,6.7956 31.2829,7.0271 31.1442,7.1745 C31.0046,7.321 30.7731,7.3288 30.6257,7.1901 C28.7243,5.3972 26.2546,4.4108 23.6696,4.4108 C20.9245,4.4108 18.3444,5.5065 16.403,7.4948 C16.3308,7.5681 16.236,7.6042 16.1403,7.6042" id="Path" fill="#15003E"></path>
                    <path d="M29.945,13.0632 L17.1667,13.0632 C16.9636,13.0632 16.7995,12.8991 16.7995,12.697 C16.7995,12.4929 16.9636,12.3298 17.1667,12.3298 L29.945,12.3298 C30.1481,12.3298 30.3112,12.4929 30.3112,12.697 C30.3112,12.8991 30.1481,13.0632 29.945,13.0632" id="Path" fill="#15003E"></path>
                    <path d="M26.1804,6.4216 C26.1804,7.1472 25.5925,7.7341 24.8679,7.7341 C24.1433,7.7341 23.5554,7.1472 23.5554,6.4216 C23.5554,5.697 24.1433,5.1101 24.8679,5.1101 C25.5925,5.1101 26.1804,5.697 26.1804,6.4216" id="Path" fill="#FFFFFF"></path>
                    <path d="M27.1179,8.3825 C27.1179,8.6765 26.8796,8.9138 26.5876,8.9138 C26.2946,8.9138 26.0573,8.6765 26.0573,8.3825 C26.0573,8.0905 26.2946,7.8532 26.5876,7.8532 C26.8796,7.8532 27.1179,8.0905 27.1179,8.3825" id="Path" fill="#FFFFFF"></path>
                    <path d="M28.0827,15.0866 C27.5612,15.0866 27.3015,14.694 27.1296,14.4333 C26.9675,14.1862 26.8981,14.1091 26.7897,14.1091 C26.6813,14.1091 26.612,14.1862 26.4489,14.4333 C26.278,14.694 26.0173,15.0866 25.4968,15.0866 C24.9753,15.0866 24.7165,14.694 24.5446,14.4333 C24.3806,14.1862 24.3132,14.1091 24.2038,14.1091 C24.0944,14.1091 24.0261,14.1862 23.863,14.4333 C23.6901,14.694 23.4304,15.0866 22.9108,15.0866 C22.3894,15.0866 22.1306,14.694 21.9577,14.4333 C21.7946,14.1862 21.7253,14.1091 21.6179,14.1091 C21.5085,14.1091 21.4392,14.1862 21.2751,14.4333 C21.1032,14.694 20.8435,15.0866 20.3239,15.0866 C19.8034,15.0866 19.5417,14.694 19.3698,14.4333 C19.2067,14.1862 19.1384,14.1091 19.029,14.1091 C18.8269,14.1091 18.6628,13.945 18.6628,13.7419 C18.6628,13.5407 18.8269,13.3757 19.029,13.3757 C19.5495,13.3757 19.8103,13.7683 19.9821,14.029 C20.1452,14.2761 20.2136,14.3542 20.3239,14.3542 C20.4323,14.3542 20.5007,14.2761 20.6647,14.029 C20.8356,13.7683 21.0974,13.3757 21.6179,13.3757 C22.1374,13.3757 22.3972,13.7683 22.569,14.029 C22.7341,14.2761 22.8015,14.3542 22.9108,14.3542 C23.0192,14.3542 23.0876,14.2761 23.2517,14.029 C23.4245,13.7683 23.6833,13.3757 24.2038,13.3757 C24.7243,13.3757 24.9841,13.7683 25.156,14.029 C25.32,14.2761 25.3874,14.3542 25.4968,14.3542 C25.6052,14.3542 25.6735,14.2761 25.8386,14.029 C26.0095,13.7683 26.2692,13.3757 26.7897,13.3757 C27.3103,13.3757 27.569,13.7683 27.7409,14.029 C27.905,14.2761 27.9733,14.3542 28.0827,14.3542 C28.2839,14.3542 28.4489,14.5173 28.4489,14.7204 C28.4489,14.9216 28.2839,15.0866 28.0827,15.0866" id="Path" fill="#15003E"></path>
                    <polygon id="Path" fill="#232133" points="33.8103 1.5124 23.3942 0.8171 12.9792 1.5124 11.4147 19.6892 16.3376 21.4421 16.5866 5.1237 17.3327 6.8591 29.4558 6.8591 30.2009 5.1237 30.4509 21.4421 35.3737 19.6892"></polygon>
                </g>
                <path d="M52.5661,28.7175 C52.5661,31.6374 45.5798,34.0036 36.9646,34.0036 C28.3474,34.0036 21.362,31.6374 21.362,28.7175 C21.362,25.7966 28.3474,23.4304 36.9646,23.4304 C45.5798,23.4304 52.5661,25.7966 52.5661,28.7175" id="Shape" fill="#15003E"></path>
                <g id="Shape" transform="translate(18.000000, 13.000000)">
                    <path d="M26.4509,33.8806756 C26.362,33.8806756 26.2751,33.8542 26.1999,33.8024 C26.0847,33.7224 26.0134,33.5896 26.0124,33.4479 L25.7937,19.1394 C25.7116,19.238 25.5886,19.2976 25.4558,19.2976 L13.3327,19.2976 C13.1999,19.2976 13.0769,19.238 12.9958,19.1394 L12.7761,33.4479 C12.7741,33.5896 12.7048,33.7224 12.5876,33.8024 C12.4714,33.8825 12.3239,33.903 12.1901,33.8552 L7.2683,32.1022 C7.0798,32.0358 6.9597,31.8503 6.9772,31.6511 L8.5407,13.4743 C8.5593,13.2575 8.7321,13.0876 8.9489,13.0739 L19.3659,12.3786 C19.3845,12.3786 19.404,12.3786 19.4245,12.3786 L29.8396,13.0739 C30.0554,13.0876 30.2282,13.2575 30.2478,13.4743 L31.8122,31.6511 C31.8288,31.8503 31.7097,32.0358 31.5222,32.1022 L26.5974,33.8552 C26.5495,33.8728 26.4997,33.8806756 26.4509,33.8806756 Z M26.2009,16.6843 C26.2292,16.6843 26.2585,16.6862 26.2868,16.6921 C26.4899,16.7312 26.6384,16.9089 26.6403,17.1159 L26.8806,32.8229 L30.9079,31.3894 L29.405,13.9245 L19.3942,13.2575 L9.3835,13.9245 L7.8806,31.3894 L11.9089,32.8229 L12.1481,17.1159 C12.1511,16.9089 12.2985,16.7312 12.5017,16.6921 C12.7067,16.6521 12.9079,16.7595 12.9899,16.9489 L13.6218,18.4196 L25.1667,18.4196 L25.7985,16.9489 C25.8688,16.7858 26.029,16.6843 26.2009,16.6843 Z" fill="#15003E"></path>
                    <path d="M37.7312,12.8718 C37.7312,15.2878 29.5974,17.2458 19.5642,17.2458 C9.531,17.2458 1.3981,15.2878 1.3981,12.8718 C1.3981,10.4567 9.531,8.4992 19.5642,8.4992 C29.5974,8.4992 37.7312,10.4567 37.7312,12.8718" id="Path" fill="#362B59"></path>
                    <path d="M19.5642,17.6843 C10.5456,17.6843 0.9597,15.9978 0.9597,12.8718 C0.9597,9.7463 10.5456,8.0598 19.5642,8.0598 C28.5847,8.0598 38.1706,9.7463 38.1706,12.8718 C38.1706,15.9978 28.5847,17.6843 19.5642,17.6843 Z M19.5642,8.9392 C14.7458,8.9392 10.2204,9.3898 6.822,10.2077 C3.1462,11.0905 1.8366,12.1638 1.8366,12.8718 C1.8366,13.5808 3.1462,14.653 6.822,15.5378 C10.2204,16.3552 14.7458,16.8073 19.5642,16.8073 C24.3835,16.8073 28.9089,16.3552 32.3063,15.5378 C35.9821,14.653 37.2917,13.5808 37.2917,12.8718 C37.2917,12.1638 35.9821,11.0905 32.3063,10.2077 C28.9089,9.3898 24.3835,8.9392 19.5642,8.9392 Z" fill="#15003E"></path>
                    <path d="M28.0183,11.1589 L26.7927,3.2531 C26.7927,2.2419 23.5563,1.4226 19.5642,1.4226 C15.572,1.4226 12.3356,2.2419 12.3356,3.2531 L11.1101,11.1589 C11.0964,11.2087 11.0866,11.2585 11.0866,11.3112 C11.0866,12.4968 14.8825,13.4577 19.5642,13.4577 C24.2458,13.4577 28.0417,12.4968 28.0417,11.3112 C28.0417,11.2585 28.0319,11.2087 28.0183,11.1589" id="Path" fill="#362B59"></path>
                    <path d="M19.5642,13.8972 C15.2702,13.8972 10.6481,13.0876 10.6481,11.3112 C10.6481,11.2331 10.6589,11.155 10.6804,11.0681 L11.8972,3.2146 C11.9694,1.4509 16.9313,0.9841 19.5642,0.9841 C22.197,0.9841 27.1599,1.4509 27.2312,3.2146 L28.448,11.07 C28.4704,11.155 28.4812,11.2341 28.4812,11.3112 C28.4812,13.0876 23.8581,13.8972 19.5642,13.8972 Z M19.5642,1.862 C15.0847,1.862 12.7741,2.8371 12.7741,3.2531 L12.7692,3.3205 L11.5407,11.2526 L11.5339,11.2761 C11.5261,11.3015 11.5251,11.3112 11.5251,11.3122 C11.5251,11.8903 14.363,13.0202 19.5642,13.0202 C24.7653,13.0202 27.6032,11.8903 27.6032,11.3112 C27.6032,11.3112 27.6022,11.3015 27.5944,11.2761 L27.5847,11.2263 L26.3542,3.2868 L26.3542,3.2531 C26.3542,2.8371 24.0437,1.862 19.5642,1.862 Z" fill="#15003E"></path>
                    <path d="M26.7937,3.2531 C26.7937,4.2648 23.5563,5.0842 19.5642,5.0842 C15.572,5.0842 12.3356,4.2648 12.3356,3.2531 C12.3356,2.2419 15.572,1.4226 19.5642,1.4226 C23.5563,1.4226 26.7937,2.2419 26.7937,3.2531" id="Path" fill="#362B59"></path>
                    <path d="M19.5642,5.5236 C16.9128,5.5236 11.8972,5.0485 11.8972,3.2531 C11.8972,1.4577 16.9128,0.9841 19.5642,0.9841 C22.2165,0.9841 27.2321,1.4577 27.2321,3.2531 C27.2321,5.0485 22.2165,5.5236 19.5642,5.5236 Z M19.5642,1.862 C15.0847,1.862 12.7741,2.8371 12.7741,3.2531 C12.7741,3.6696 15.0847,4.6447 19.5642,4.6447 C24.0437,4.6447 26.3542,3.6696 26.3542,3.2531 C26.3542,2.8371 24.0437,1.862 19.5642,1.862 Z" fill="#15003E"></path>
                    <polygon id="Path" fill="#362B59" points="33.6521 57.9411 27.4948 55.8229 28.2214 49.5329 32.7351 50.3815"></polygon>
                    <path d="M33.6521,58.3796 C33.6042,58.3796 33.5554,58.3728 33.5085,58.3571 L27.3522,56.238 C27.1569,56.1706 27.0349,55.9763 27.0583,55.7731 L27.7858,49.4821 C27.7995,49.362 27.862,49.2517 27.9606,49.1804 C28.0593,49.1071 28.1823,49.0788 28.3015,49.1022 L32.8151,49.9499 C33.0036,49.986 33.1472,50.1384 33.1706,50.3288 L34.0827,57.8386 C34.0896,57.8718 34.0944,57.905 34.0944,57.9411 C34.0944,58.1843 33.8972,58.3796 33.655,58.3796 L33.6521,58.3796 Z M27.9714,55.5222 L33.1315,57.2976 L32.3376,50.7536 L28.6032,50.0515 L27.9714,55.5222 Z" fill="#15003E"></path>
                    <polygon id="Path" fill="#362B59" points="5.5397 57.9411 11.698 55.8229 10.9714 49.5329 6.4577 50.3815"></polygon>
                    <path d="M5.5397,58.3796 C5.4411,58.3796 5.3435,58.3474 5.2634,58.2839 C5.1472,58.1882 5.0866,58.0388 5.1042,57.8884 L6.0222,50.3288 C6.0446,50.1384 6.1872,49.986 6.3767,49.9499 L10.8894,49.1022 C11.0095,49.0788 11.1325,49.1071 11.2312,49.1804 C11.3288,49.2517 11.3933,49.362 11.4079,49.4821 L12.1345,55.7731 C12.1569,55.9763 12.0358,56.1706 11.8405,56.238 L5.6833,58.3571 C5.6355,58.3728 5.5886,58.3796 5.5397,58.3796 Z M6.8542,50.7536 L6.0603,57.2976 L11.2214,55.5222 L10.5886,50.0515 L6.8542,50.7536 Z" fill="#15003E"></path>
                    <path d="M16.8464,42.5563 C16.2116,41.9724 15.2614,41.8005 14.4353,42.196 C13.6101,42.5925 13.1501,43.4411 13.2087,44.3015 C13.8444,44.8854 14.7946,45.0583 15.6188,44.6628 C16.445,44.2653 16.904,43.4167 16.8464,42.5563" id="Path" fill="#117248"></path>
                    <path d="M14.6823,45.3161 C14.0241,45.3161 13.3962,45.07 12.9118,44.6257 L12.7829,44.5065 L12.7702,44.3308 C12.698,43.2585 13.278,42.2644 14.2468,41.8005 C14.6013,41.6296 14.9802,41.5427 15.3718,41.5427 C16.03,41.5427 16.6599,41.7878 17.1433,42.2321 L17.2722,42.3513 L17.2839,42.5271 C17.3562,43.5993 16.7771,44.5925 15.8093,45.0583 C15.4528,45.2282 15.0739,45.3161 14.6823,45.3161 Z M13.6433,44.0935 C13.9431,44.3151 14.3054,44.4372 14.6823,44.4372 C14.9421,44.4372 15.1931,44.3796 15.4294,44.2663 C16.0173,43.9841 16.3884,43.4069 16.4108,42.7653 C15.9069,42.3884 15.2048,42.3142 14.6257,42.5925 C14.0378,42.8737 13.6657,43.4509 13.6433,44.0935 Z" fill="#054F38"></path>
                    <path d="M15.9567,41.7194 C19.3112,43.6833 28.2712,54.6364 31.5437,56.2722" id="Path" fill="#15003E"></path>
                    <path d="M31.5417,56.7116 C31.4772,56.7116 31.4089,56.696 31.3464,56.6647 C29.5827,55.7829 26.447,52.5241 23.1286,49.0729 C20.2624,46.0944 17.2985,43.0144 15.7341,42.0983 C15.5251,41.9763 15.4548,41.7067 15.5769,41.4978 C15.6999,41.2888 15.9694,41.2185 16.1784,41.3415 C17.8464,42.3171 20.7185,45.3044 23.7614,48.4646 C26.8825,51.7097 30.112,55.0651 31.7399,55.8796 C31.9558,55.987 32.0446,56.2517 31.9353,56.4685 C31.8581,56.6228 31.7038,56.7116 31.5417,56.7116 Z" id="Path" fill="#054F38"></path>
                    <path d="M16.6071,37.571 C16.239,36.2272 16.0192,34.5925 14.9938,34.737 C13.9694,34.8796 13.8591,35.8845 13.0524,36.0036 C12.2468,36.1218 12.0397,36.2565 12.1716,36.819 C12.3015,37.3815 13.5085,40.7849 14.488,40.3708 C15.4655,39.9548 16.9772,38.9138 16.6071,37.571" id="Path" fill="#C61443"></path>
                    <path d="M14.3171,40.8444 C12.8601,40.8435 11.7526,36.9577 11.7448,36.9177 C11.6901,36.6901 11.6413,36.3522 11.8356,36.0661 C12.0651,35.7292 12.5114,35.6384 12.989,35.569 C13.1989,35.5378 13.3386,35.3933 13.5671,35.1384 C13.862,34.8093 14.2302,34.4001 14.9323,34.3015 C14.9948,34.2927 15.0583,34.2888 15.1179,34.2888 C16.236,34.2888 16.5749,35.6442 16.8728,36.8415 C16.9245,37.0476 16.9763,37.2546 17.031,37.4558 C17.4509,38.9841 16.0163,40.1989 14.6589,40.7741 C14.5495,40.82 14.4343,40.8444 14.3171,40.8444 Z M12.573,36.5612 C12.5749,36.5876 12.5788,36.6374 12.5993,36.7194 C12.6491,36.9392 12.9343,37.7976 13.3288,38.6149 C13.9343,39.862 14.2897,39.9597 14.3151,39.9665 C15.0896,39.6374 16.4733,38.738 16.1833,37.6872 C16.1286,37.4812 16.0739,37.2673 16.0212,37.0544 C15.8112,36.2126 15.5505,35.1657 15.1179,35.1657 C15.0983,35.1657 15.0769,35.1677 15.0554,35.1706 C14.6687,35.2253 14.4714,35.446 14.2194,35.7253 C13.9538,36.0222 13.6511,36.3581 13.1169,36.4372 C12.7624,36.4899 12.6257,36.5349 12.573,36.5612 Z" fill="#AA0F38"></path>
                    <path d="M12.571,42.112 C11.3562,42.236 9.5144,42.2106 8.9694,41.737 C8.4245,41.2614 9.363,41.1208 8.9792,40.1931 C8.5944,39.2663 9.0222,38.8386 9.5788,38.6091 C10.1364,38.3786 10.7341,37.3991 11.1765,36.9929 C11.6179,36.5866 12.7644,37.1696 13.0788,37.7419 C13.3923,38.3151 12.571,42.112 12.571,42.112" id="Path" fill="#C61443"></path>
                    <path d="M11.2917,42.614 C9.9763,42.614 9.0974,42.4304 8.6813,42.0671 C8.1452,41.6013 8.4099,41.1354 8.5222,40.9372 C8.6247,40.7507 8.6892,40.6403 8.573,40.361 C8.3454,39.8132 8.3327,39.3356 8.5349,38.9392 C8.696,38.6237 8.9909,38.3767 9.4108,38.2019 C9.6687,38.0964 10.029,37.656 10.3181,37.3015 C10.5144,37.0612 10.6989,36.8347 10.8796,36.6696 C11.0583,36.5046 11.3005,36.4187 11.5798,36.4187 C12.2575,36.4187 13.1374,36.9382 13.4636,37.531 C13.8073,38.154 13.319,40.7263 12.9997,42.2038 L12.9323,42.5153 L12.6149,42.5476 C12.195,42.5915 11.737,42.614 11.2917,42.614 Z M9.2634,41.4099 C9.446,41.5612 10.0827,41.7351 11.2917,41.7351 C11.5964,41.7351 11.9099,41.7253 12.2087,41.7019 C12.5407,40.1042 12.8063,38.3015 12.6882,37.945 C12.5134,37.6394 11.9284,37.2966 11.5798,37.2966 C11.5105,37.2966 11.4792,37.3112 11.4733,37.3161 C11.3396,37.4382 11.1745,37.6423 10.9978,37.8581 C10.6101,38.3317 10.2097,38.8229 9.7468,39.0134 C9.5241,39.1052 9.3806,39.2155 9.3161,39.3386 C9.238,39.4948 9.2605,39.7253 9.3845,40.0261 C9.6638,40.6999 9.4187,41.1345 9.2868,41.3679 C9.278,41.3806 9.2712,41.3952 9.2634,41.4099 Z" fill="#AA0F38"></path>
                    <path d="M13.5876,36.9411 C12.4938,36.5407 12.2233,36.612 12.0896,37.4909 C11.9567,38.3688 11.2116,38.4919 11.2116,38.4919 C11.2116,38.4919 10.0515,38.8806 10.5583,39.3864 C11.0642,39.8933 10.8942,40.8522 11.6901,41.1462 C12.487,41.4392 13.7419,41.7399 14.6149,40.6394 C15.488,39.5407 15.7175,37.7233 13.5876,36.9411" id="Path" fill="#C61443"></path>
                    <path d="M13.0036,41.8581 C12.5642,41.8581 12.0847,41.7585 11.5368,41.5573 C10.8718,41.3122 10.6784,40.7263 10.5368,40.2995 C10.4567,40.0583 10.3815,39.8317 10.2478,39.6979 C9.9577,39.4089 9.9753,39.113 10.0105,38.9636 C10.1364,38.4274 10.8552,38.1491 11.072,38.0759 L11.1403,38.0583 C11.2058,38.0446 11.5769,37.944 11.655,37.4245 C11.7077,37.0788 11.8327,36.2692 12.6687,36.2692 C12.9235,36.2692 13.2331,36.3444 13.739,36.529 C14.9919,36.989 15.4421,37.7526 15.5993,38.3132 C15.8327,39.1433 15.5935,40.114 14.9597,40.9138 C14.4606,41.5388 13.8034,41.8581 13.0036,41.8581 Z M10.9187,39.1286 C11.1647,39.4011 11.2741,39.7312 11.3708,40.0241 C11.5026,40.4245 11.5837,40.6384 11.8425,40.7331 C12.2897,40.8991 12.6696,40.9792 13.0036,40.9792 C13.53,40.9792 13.945,40.779 14.2722,40.3679 C14.7243,39.7976 14.9089,39.1013 14.7546,38.5505 C14.6052,38.0222 14.1628,37.6198 13.4372,37.3542 C13.194,37.2653 12.8503,37.1462 12.6687,37.1462 C12.6511,37.1462 12.6403,37.1481 12.6325,37.1481 C12.6159,37.1745 12.5681,37.2663 12.5241,37.5563 C12.3855,38.4655 11.7253,38.8337 11.3249,38.9167 C11.1765,38.9724 11.0105,39.0593 10.9187,39.1286 Z" fill="#AA0F38"></path>
                    <path d="M16.6989,40.7077 C15.4694,41.9567 13.8708,41.0368 13.3444,41.1823 C12.82,41.3278 14.1325,38.9118 14.1218,38.5632 C14.0817,37.0622 14.9294,35.8532 16.3054,36.5944 C16.8913,36.9089 18.1843,39.197 16.6989,40.7077" id="Path" fill="#C61443"></path>
                    <path d="M15.0661,41.8122 C14.6491,41.8122 14.2634,41.737 13.9538,41.6774 C13.7653,41.6403 13.5876,41.6062 13.4851,41.6062 C13.4753,41.6062 13.4655,41.6062 13.4577,41.6071 C13.4089,41.6208 13.3552,41.6276 13.3044,41.6276 L13.3034,41.6276 C13.1296,41.6276 12.9685,41.5427 12.8747,41.3991 C12.6569,41.0671 12.821,40.612 13.3464,39.3903 C13.4772,39.0886 13.654,38.6794 13.6833,38.5495 C13.6647,37.6687 13.9187,36.8942 14.3786,36.4206 C14.9216,35.862 15.7116,35.7751 16.5144,36.2077 C17.0017,36.4694 17.6306,37.4509 17.7878,38.4938 C17.9362,39.4763 17.6687,40.3493 17.0124,41.0153 C16.4919,41.5446 15.8366,41.8122 15.0661,41.8122 Z M13.7438,40.7478 C13.861,40.7634 13.986,40.7878 14.1208,40.8151 C14.4079,40.8708 14.7341,40.9333 15.0661,40.9333 C15.6081,40.9333 16.028,40.7634 16.3855,40.3991 C16.8464,39.9313 17.0261,39.3347 16.9187,38.6247 C16.7917,37.7741 16.279,37.0778 16.0983,36.9792 C15.6472,36.738 15.2858,36.7468 15.0085,37.0329 C14.7116,37.3376 14.5437,37.906 14.5612,38.5515 C14.5671,38.7585 14.4606,39.0261 14.154,39.739 C14.0358,40.0104 13.8513,40.4411 13.7438,40.7478 Z" fill="#AA0F38"></path>
                    <path d="M16.1179,41.2282 C15.069,42.2019 12.8767,43.4831 11.4997,42.9079 C10.1237,42.3327 9.8239,41.8747 10.488,41.3552 C11.1521,40.8386 11.1921,39.9743 12.1062,40.0329 C13.0202,40.0905 17.4753,39.9675 16.1179,41.2282" id="Path" fill="#C61443"></path>
                    <path d="M12.2731,43.489 C11.9294,43.489 11.612,43.4304 11.3298,43.3132 C10.2663,42.8679 9.7849,42.4685 9.7175,41.9753 C9.6716,41.6306 9.8405,41.3054 10.2185,41.0104 C10.404,40.864 10.5349,40.6716 10.6735,40.4675 C10.9519,40.0573 11.2956,39.5417 12.1335,39.5944 C12.2575,39.6032 12.4685,39.6062 12.7116,39.612 C15.1843,39.6657 16.4909,39.8259 16.7653,40.5495 C16.8522,40.778 16.862,41.1354 16.4177,41.5495 C15.4108,42.4831 13.6862,43.489 12.2731,43.489 Z M10.5944,41.8669 C10.6296,41.9245 10.8073,42.1423 11.6687,42.5026 C11.8425,42.5749 12.0456,42.612 12.2731,42.612 C13.3845,42.612 14.9294,41.7331 15.819,40.906 C15.8483,40.8796 15.8708,40.8571 15.8864,40.8366 C15.5515,40.6462 14.4792,40.529 12.694,40.4899 C12.4294,40.4841 12.2204,40.4792 12.0778,40.4704 C11.7663,40.4509 11.6647,40.57 11.4001,40.9616 C11.238,41.1989 11.0534,41.4714 10.7585,41.7019 C10.6491,41.7868 10.6081,41.8425 10.5944,41.8669 Z" fill="#AA0F38"></path>
                    <path d="M21.3981,46.8327 C20.986,46.0749 20.1442,45.6032 19.2351,45.7106 C18.3259,45.8171 17.6149,46.4714 17.3913,47.3034 C17.8024,48.0622 18.6442,48.5339 19.5544,48.4265 C20.4626,48.32 21.1735,47.6657 21.3981,46.8327" id="Path" fill="#117248"></path>
                    <path d="M19.2976,48.8815 C18.3415,48.8815 17.4626,48.3571 17.0046,47.5134 L16.9206,47.3591 L16.9665,47.1892 C17.2458,46.1511 18.1169,45.4001 19.1833,45.2741 C19.2849,45.2624 19.3894,45.2565 19.4909,45.2565 C20.447,45.2565 21.3259,45.78 21.7839,46.6228 L21.8679,46.778 L21.822,46.947 C21.5417,47.986 20.6716,48.738 19.6042,48.863 C19.5036,48.8747 19.3991,48.8815 19.2976,48.8815 Z M17.8688,47.2478 C18.1911,47.7175 18.7233,48.0026 19.2976,48.0026 C19.3659,48.0026 19.4343,47.9987 19.5026,47.9909 C20.1501,47.9147 20.6901,47.4899 20.9187,46.8894 C20.5593,46.364 19.9294,46.071 19.2858,46.1462 C18.6384,46.2214 18.0993,46.6472 17.8688,47.2478 Z" fill="#054F38"></path>
                    <polygon id="Path" fill="#15003E" points="24.6647 47.1442 20.1491 50.2331 22.4069 54.0993 27.3679 56.5378 30.0905 52.1579 26.987 47.4147"></polygon>
                    <path d="M27.3679,56.9763 C27.3024,56.9763 27.237,56.9626 27.1745,56.9313 L22.2136,54.4929 C22.1364,54.4548 22.073,54.3942 22.029,54.321 L19.7702,50.4538 C19.655,50.2556 19.7116,50.0007 19.903,49.8708 L24.4177,46.7819 C24.5046,46.7233 24.612,46.696 24.7175,46.7077 L27.0368,46.9792 C27.1667,46.9938 27.2819,47.0651 27.3532,47.1745 L30.4587,51.9167 C30.5515,52.0603 30.5534,52.2438 30.4636,52.3884 L27.7409,56.7702 C27.6589,56.903 27.5163,56.9763 27.3679,56.9763 Z M22.7194,53.7634 L27.2048,55.9685 L29.57,52.1628 L26.7312,47.8269 L24.778,47.5993 L20.7351,50.364 L22.7194,53.7634 Z" fill="#15003E"></path>
                    <polygon id="Path" fill="#15003E" points="21.1901 51.5954 20.1491 53.0671 21.3542 54.944 23.2048 55.489 24.239 54.9997"></polygon>
                    <path d="M23.2048,55.9284 C23.1628,55.9284 23.1208,55.9226 23.0808,55.9108 L21.2292,55.3659 C21.1276,55.3347 21.0407,55.2702 20.9831,55.1823 L19.78,53.3024 C19.6843,53.153 19.6882,52.9587 19.7917,52.8132 L20.8308,51.3425 C20.9079,51.2331 21.031,51.1657 21.1647,51.1579 C21.2985,51.1521 21.4284,51.2038 21.5163,51.3024 L24.5661,54.7067 C24.6589,54.8093 24.697,54.9499 24.6696,55.0856 C24.6423,55.2214 24.5524,55.3366 24.4274,55.3952 L23.3933,55.8864 C23.3337,55.9138 23.2683,55.9284 23.2048,55.9284 Z M21.6345,54.569 L23.1677,55.0212 L23.5202,54.8552 L21.2302,52.2995 L20.6794,53.0778 L21.6345,54.569 Z" fill="#15003E"></path>
                    <path d="M18.7448,43.6511 C19.7956,43.5573 20.7312,42.8405 21.0524,41.7683 C21.3728,40.697 20.9821,39.5837 20.1569,38.9284 C19.1071,39.0231 18.1706,39.7399 17.8513,40.8112 C17.53,41.8835 17.9187,42.9958 18.7448,43.6511" id="Path" fill="#117248"></path>
                    <path d="M18.6091,44.1042 L18.4724,43.9958 C17.4743,43.2038 17.0651,41.904 17.4294,40.6862 C17.7946,39.4675 18.8493,38.6062 20.1179,38.4909 L20.2927,38.4763 L20.4294,38.5847 C21.4284,39.3757 21.8386,40.6755 21.4724,41.8942 C21.1091,43.113 20.0524,43.9743 18.7849,44.0876 L18.6091,44.1042 Z M20.0202,39.3884 C19.1911,39.53 18.5144,40.1228 18.2702,40.9372 C18.0271,41.7526 18.2673,42.6179 18.8835,43.1901 C19.7116,43.0505 20.3884,42.4577 20.6315,41.6423 C20.8757,40.8278 20.6355,39.9616 20.0202,39.3884 Z" fill="#054F38"></path>
                    <path d="M26.4929,36.6882 C26.6872,36.4079 26.8054,36.0876 26.8298,35.78 L26.8933,34.946 C26.9021,34.8308 26.8112,34.7644 26.7048,34.8093 L25.9323,35.1267 C25.6452,35.2438 25.3776,35.4558 25.1696,35.7263 L16.57,46.9733 C16.5017,47.0651 16.5017,47.1813 16.57,47.2331 L17.3874,47.8269 L18.2038,48.4187 C18.2731,48.4704 18.3835,48.4343 18.4489,48.3396 L26.4929,36.6882 Z" id="Path" fill="#C2E1EF"></path>
                </g>
                <rect id="Rectangle-path" fill="#819FAA" transform="translate(40.757796, 54.610045) rotate(-53.949458) translate(-40.757796, -54.610045) " x="32.5752772" y="53.9176436" width="16.3650368" height="1.38480312"></rect>
                <g id="Shape" transform="translate(26.000000, 47.000000)">
                    <path d="M10.2761,14.7341 C10.1862,14.7341 10.1022,14.7077 10.0319,14.656 L8.3981,13.4694 C8.3073,13.403 8.2478,13.3024 8.2312,13.1862 C8.2116,13.0534 8.2507,12.9118 8.3386,12.7966 L16.9382,1.5495 C17.1784,1.2341 17.4841,0.9948 17.821,0.8552 L18.5925,0.5368 C18.7663,0.4665 18.9558,0.5065 19.0739,0.6335 C19.156,0.7214 19.195,0.8405 19.1853,0.9685 L19.1208,1.8005 C19.0935,2.1647 18.9597,2.529 18.7341,2.8552 L10.6901,14.5046 C10.5905,14.6491 10.4353,14.7341 10.2761,14.7341 Z M8.8581,13.0798 L10.2585,14.0983 L18.2517,2.5231 C18.4167,2.2849 18.5173,2.0124 18.5378,1.7565 L18.5827,1.1755 L18.0427,1.3972 C17.8054,1.4948 17.5788,1.6755 17.4021,1.905 L8.8581,13.0798 Z" fill="#475E6B"></path>
                    <path d="M13.5856,15.1159 C12.4597,16.8562 10.3562,14.5456 10.3562,14.5456 L9.3562,13.8181 L8.3562,13.0915 C8.3562,13.0915 5.5095,11.8044 6.8181,10.196 C6.8181,10.196 4.3483,11.5642 8.698,14.7263 C13.0456,17.8864 13.5856,15.1159 13.5856,15.1159" id="Path" fill="#687B82"></path>
                    <path d="M12.0856,16.5329 C12.0847,16.5329 12.0847,16.5329 12.0847,16.5329 C11.155,16.5319 9.9577,16.0036 8.5241,14.9626 C6.6716,13.614 5.7644,12.3864 5.8298,11.3122 C5.8864,10.3874 6.6433,9.9587 6.6755,9.9401 C6.7985,9.8718 6.9519,9.9001 7.0427,10.0085 C7.1325,10.1159 7.1335,10.2722 7.0456,10.3796 C6.8044,10.6765 6.7204,10.9616 6.7897,11.2565 C6.9646,11.9968 8.0671,12.6403 8.4772,12.8249 C8.4948,12.8327 8.5124,12.8425 8.529,12.8542 L10.529,14.3073 C10.5446,14.319 10.5593,14.3327 10.572,14.3483 C10.8581,14.6608 11.7605,15.4714 12.5046,15.4714 C12.8415,15.4714 13.1149,15.3024 13.3386,14.9567 C13.4157,14.8386 13.5642,14.7917 13.695,14.8435 C13.8249,14.8962 13.8991,15.0329 13.8728,15.1706 C13.7819,15.6413 13.2897,16.5329 12.0856,16.5329 Z M6.5778,12.1062 C6.8454,12.696 7.488,13.4841 8.8698,14.488 C10.0681,15.3601 11.0642,15.8444 11.8366,15.9313 C11.0085,15.6364 10.2956,14.9089 10.1608,14.7644 L8.2077,13.3454 C8.029,13.2604 7.1149,12.8073 6.5778,12.1062 Z" fill="#475E6B"></path>
                    <polygon id="Path" fill="#15003E" points="6.1735 13.1442 10.6901 16.2331 8.4323 20.0993 3.4714 22.5378 0.7497 18.1579 3.8522 13.4147"></polygon>
                    <path d="M3.4724,22.9763 C3.3239,22.9763 3.1804,22.903 3.0983,22.7702 L0.3757,18.3884 C0.2858,18.2438 0.2888,18.0603 0.3806,17.9167 L3.486,13.1745 C3.5573,13.0651 3.6735,12.9938 3.8024,12.9792 L6.1218,12.7077 C6.2272,12.696 6.3337,12.7233 6.4216,12.7819 L10.9362,15.8708 C11.1276,16.0007 11.1853,16.2556 11.0681,16.4538 L8.8103,20.321 C8.7663,20.3942 8.7028,20.4548 8.6257,20.4929 L3.6647,22.9313 C3.6032,22.9626 3.5368,22.9763 3.4724,22.9763 Z M1.2702,18.1628 L3.6335,21.9685 L8.1198,19.7634 L10.1042,16.364 L6.0612,13.5993 L4.1071,13.8269 L1.2702,18.1628 Z" fill="#15003E"></path>
                    <polygon id="Path" fill="#15003E" points="9.6491 17.5954 10.6901 19.0671 9.486 20.944 7.6345 21.489 6.6003 20.9997"></polygon>
                    <path d="M7.6345,21.9284 C7.571,21.9284 7.5065,21.9138 7.447,21.8864 L6.4118,21.3952 C6.2868,21.3366 6.198,21.2214 6.1696,21.0856 C6.1423,20.9499 6.1804,20.8093 6.2731,20.7067 L9.323,17.3024 C9.4118,17.2038 9.5397,17.1521 9.6745,17.1579 C9.8083,17.1657 9.9304,17.2331 10.0085,17.3425 L11.0476,18.8132 C11.1511,18.9587 11.155,19.153 11.0583,19.3024 L9.8552,21.1823 C9.7976,21.2702 9.7116,21.3347 9.6101,21.3659 L7.7585,21.9108 C7.7185,21.9226 7.6774,21.9284 7.6345,21.9284 Z M7.319,20.8552 L7.6716,21.0212 L9.2058,20.569 L10.1599,19.0778 L9.6091,18.2995 L7.319,20.8552 Z" fill="#15003E"></path>
                    <path d="M4.3669,22.737 C4.0798,23.1589 3.4382,23.2233 2.9353,22.8806 C2.4313,22.5378 2.2575,21.9167 2.5437,21.4958 C2.8317,21.0729 3.4733,21.0085 3.9772,21.3503 C4.4802,21.6931 4.656,22.3132 4.3669,22.737" id="Path" fill="#687B82"></path>
                    <path d="M3.6257,23.3933 C3.3259,23.3933 3.031,23.2995 2.7702,23.1228 C2.4694,22.9187 2.2526,22.6257 2.1618,22.2976 C2.0642,21.9499 2.114,21.6071 2.3034,21.3298 C2.5163,21.0163 2.8747,20.8366 3.2868,20.8366 C3.5856,20.8366 3.8825,20.9313 4.1413,21.1091 C4.4421,21.3132 4.6579,21.6062 4.7497,21.9343 C4.8474,22.28 4.7976,22.6247 4.6091,22.9021 C4.3962,23.2136 4.0378,23.3933 3.6257,23.3933 Z M3.2868,21.4235 C3.071,21.4235 2.8894,21.5095 2.7858,21.6599 C2.697,21.7907 2.6745,21.9606 2.7243,22.1384 C2.78,22.3337 2.9128,22.5124 3.0993,22.6394 C3.2605,22.7487 3.447,22.8083 3.6257,22.8083 C3.8405,22.8083 4.0241,22.7224 4.1257,22.5729 C4.2155,22.4401 4.237,22.2702 4.1872,22.0925 C4.1315,21.8972 3.9987,21.7194 3.8122,21.5925 C3.6521,21.4831 3.4655,21.4235 3.2868,21.4235 Z" fill="#475E6B"></path>
                </g>
            </g>
        </g>
    </g>
</svg>