<?xml version="1.0" encoding="UTF-8"?>
<svg width="80px" height="84px" viewBox="0 0 80 84" version="1.1" xmlns="http://www.w3.org/2000/svg" xmlns:xlink="http://www.w3.org/1999/xlink">
    <!-- Generator: Sketch 55.2 (78181) - https://sketchapp.com -->
    <title>trek_bot</title>
    <desc>Created with Sketch.</desc>
    <g id="Page-1" stroke="none" stroke-width="1" fill="none" fill-rule="evenodd">
        <g id="trek_bot" fill-rule="nonzero">
            <path d="M74.7016,25.8213 C72.3921,21.4987 66.527,20.6776 63.0673,24.1488 C55.5627,31.6781 48.065,39.2144 40.5495,46.7329 C38.5384,48.7448 35.4188,45.6235 37.4291,43.6125 C44.8849,36.1537 52.3233,28.6775 59.7682,21.2078 C63.3614,17.6026 62.391,11.5608 57.8685,9.2253 C52.4332,6.4184 46.2658,4.832 39.7263,4.832 C17.841,4.832 0.0995,22.5736 0.0995,44.4588 C0.0995,44.4713 0.0995,44.4837 0.0995,44.4961 C0.1013,45.9086 1.8365,46.5964 2.8353,45.5976 L12.2818,36.1511 C14.2933,34.1396 17.4129,37.2608 15.4022,39.2715 L4.9112,49.7624 C2.4223,52.2513 1.6621,55.9892 2.9768,59.2543 C4.9776,64.2233 7.9536,68.6939 11.6709,72.4266 C15.1321,75.9021 20.736,75.9652 24.2044,72.4968 C27.323,69.3782 30.4417,66.2595 33.5603,63.1409 C35.5718,61.1294 38.6914,64.2506 36.6806,66.2613 C33.9999,68.9421 31.3191,71.6228 28.6384,74.3036 C25.7158,77.2262 27.1367,82.2691 31.173,83.1585 C34.9051,83.9808 38.8345,84.2769 42.8805,83.9631 C62.6239,82.4319 78.3843,66.139 79.3085,46.3579 C79.6564,38.9129 77.9469,31.8952 74.7016,25.8213 Z" id="Shape" fill="#192C63" opacity="0.4"></path>
            <path d="M49.2662,11.0489 C48.4987,11.8002 48.6898,12.6782 48.487,13.5366 C48.3918,13.3373 48.2878,13.143 48.1874,12.9466 C48.2358,12.7208 48.2736,12.4959 48.2946,12.2728 C48.3346,11.8488 48.3127,11.4164 48.2464,10.9836 C48.247,10.9166 48.2336,10.8566 48.2095,10.7985 C47.9882,9.5834 47.4359,8.3749 46.8927,7.3547 C46.7883,7.1585 46.5712,7.1063 46.3741,7.15 C45.9856,6.4446 45.4799,5.795 44.8297,5.3918 C43.4026,4.5067 41.3462,4.9432 39.7262,4.9573 C38.4765,4.9682 37.1646,4.9271 35.9138,5.1479 C33.5572,5.4238 31.9147,6.5582 31.1,9.2382 C31.0403,9.4344 31.1368,9.614 31.2859,9.7286 C30.8445,10.9386 30.8472,12.3805 31.1144,13.7413 C30.6864,12.3913 29.5929,9.2277 28.7431,11.335 C28.4744,12.0013 28.8621,14.5059 29.3344,15.1857 C29.9823,16.1183 30.9635,15.8479 31.8776,16.0955 C32.5357,17.3633 33.5681,17.1153 35.0854,17.1419 C35.5065,17.1493 35.7396,16.5499 35.4055,16.2802 C33.6665,14.8765 32.5262,11.8924 33.1842,9.7859 C33.5519,8.6087 34.5115,7.9434 35.6815,7.5353 C37.7183,7.0958 40.0636,7.1279 42.1916,7.1804 C42.9232,7.3811 43.6314,7.622 44.3277,7.9425 C44.4972,8.0205 44.6718,7.9872 44.8103,7.8999 C44.8121,7.903 44.8138,7.9059 44.8156,7.909 C44.7691,7.9561 44.7315,8.0097 44.7036,8.0708 C44.4877,8.1906 44.3491,8.4672 44.4909,8.7664 C45.1904,10.2424 45.05,12.3982 44.5763,13.87 C44.5657,13.903 44.5489,13.9534 44.5326,14.0023 C44.2186,14.6471 43.8604,15.24 43.7467,15.9519 C43.7277,15.9523 43.7055,15.9512 43.6869,15.9518 C43.048,15.975 43.079,16.9669 43.7174,16.9438 C44.2356,16.925 44.9564,16.9998 45.6116,16.9313 C45.4746,17.4879 46.2816,17.9011 46.5003,17.328 C46.6165,17.0236 46.7512,16.7092 46.8905,16.3907 C46.9752,16.296 47.053,16.1929 47.1089,16.0648 C47.1784,15.9059 47.2257,15.732 47.2603,15.5505 C47.435,15.1535 47.6049,14.7509 47.7583,14.3466 C47.7983,14.4408 47.8445,14.5314 47.8827,14.6267 C47.5528,14.832 47.5213,15.4316 48.0078,15.5311 C50.1409,15.9673 50.0476,12.7358 50.1279,11.3688 C50.1552,10.9055 49.5487,10.7724 49.2662,11.0489 Z" id="Shape" fill="#FFFFFF"></path>
            <path d="M47.0261,31.5739 L31.9582,31.5739 L31.9582,27.5136 L47.0261,27.5136 L47.0261,31.5739 Z M32.8243,30.7075 L46.1599,30.7075 L46.1599,28.3801 L32.8243,28.3801 L32.8243,30.7075 Z" id="Shape" fill="#15003E"></path>
            <path d="M45.1214,26.7841 L34.044,26.7841 C33.8049,26.7841 33.6109,26.5901 33.6109,26.3509 C33.6109,26.1117 33.8049,25.9177 34.044,25.9177 L45.1215,25.9177 C45.3606,25.9177 45.5546,26.1117 45.5546,26.3509 C45.5546,26.5901 45.3605,26.7841 45.1214,26.7841 Z" id="Shape" fill="#25E899"></path>
            <g id="Shape" transform="translate(16.000000, 25.000000)">
                <path d="M44.5282,6.8094 L42.2926,6.8094 C41.572,6.8094 40.9002,7.1739 40.5075,7.7782 L33.7814,7.7782 L30.8421,6.141 L30.8421,0.659 L26.5782,0.659 C26.5782,0.659 24.7864,3.1353 24.7864,6.141 L22.4468,6.141 C22.4468,3.1353 20.655,0.659 20.655,0.659 L16.3914,0.659 L16.3914,6.141 L13.8205,7.7782 L7.4114,7.7782 C7.0132,7.2089 6.3622,6.8697 5.6674,6.8698 L3.4318,6.8698 C2.2547,6.8696 1.3001,7.8237 1.3001,9.0008 L1.3001,20.0136 L7.7984,20.0136 L7.7984,11.2864 L13.8497,11.2864 L14.0451,23.9114 L14.3118,40.5028 L14.2704,52.7764 L17.005,53.9175 L20.3342,53.0171 L22.1886,40.4948 L23.8871,30.7155 L25.5403,40.5025 L26.9737,53.0171 L30.1463,54.4075 L33.0372,52.7764 L33.188,40.2618 C33.188,40.2618 33.5564,26.5381 33.5564,23.9113 C33.5564,20.9283 33.825,11.2863 33.825,11.2863 L40.1612,11.2863 L40.1612,19.9534 L46.6595001,19.9534 L46.6595001,8.9408 C46.6595001,7.7641 45.7062,6.8098 44.5294,6.8095 C44.5292,6.8094 44.5286,6.8094 44.5282,6.8094 Z" id="Path" fill="#231F20"></path>
                <path d="M42.2926,6.8094 C41.572,6.8094 40.9002,7.1739 40.5075,7.7782 L33.7814,7.7782 L30.8421,6.141 L30.8421,0.659 L26.5782,0.659 C26.5782,0.659 24.7864,3.1353 24.7864,6.141 L22.4468,6.141 C22.4468,3.1353 20.655,0.659 20.655,0.659 L16.3914,0.659 L16.3914,6.141 L13.8205,7.7782 L7.4114,7.7782 C7.0132,7.2089 6.3622,6.8697 5.6674,6.8698 L3.4318,6.8698 C2.2547,6.8696 1.3001,7.8237 1.3001,9.0008 L1.3001,20.0136 L7.7984,20.0136 L7.7984,11.2864 L13.8497,11.2864 L40.1612,11.2863 L40.1612,19.9534 L46.6595001,19.9534 L46.6595001,8.9408 C46.6595001,7.7641 45.7062,6.8098 44.5294,6.8095 L42.2926,6.8094 Z" id="Path" fill="#FFFFFF"></path>
                <path d="M30.1461,54.8406 C30.0869,54.8406 30.0276,54.8287 29.9722,54.8042 L26.7997,53.4138 C26.6584,53.3521 26.5609,53.2195 26.5434,53.0663 L25.1097,40.5517 L23.881,33.281 L22.6153,40.5693 L20.7624,53.0807 C20.7373,53.2509 20.6136,53.3903 20.4472,53.4351 L17.118,54.3354 C17.0246,54.3605 16.9265,54.3542 16.8382,54.3172 L14.1035,53.1762 C13.9415,53.1085 13.8365,52.9503 13.8371,52.7748 L13.8788,40.5012 L13.6121,23.9182 L13.4231,11.7195 L8.2313,11.7195 L8.2313,20.0137 C8.2313,20.2528 8.0373,20.4468 7.7982,20.4468 L1.2999,20.4468 C1.0608,20.4468 0.8668,20.2528 0.8668,20.0137 L0.8668,9.0008 C0.8668,7.5867 2.0178,6.4365 3.4314,6.4365 L3.4317,6.4365 L5.6672,6.4365 C6.4246,6.4365 7.1403,6.7724 7.6239,7.3451 L13.6941,7.3451 L15.9582,5.9033 L15.9582,0.659 C15.9582,0.4197 16.1522,0.2258 16.3913,0.2258 L20.655,0.2258 C20.7938,0.2258 20.9245,0.2925 21.006,0.405 C21.079,0.5059 22.7154,2.7999 22.8686,5.7078 L24.3646,5.7078 C24.5178,2.7999 26.1542,0.5059 26.2272,0.405 C26.3087,0.2925 26.4394,0.2258 26.5782,0.2258 L30.8422,0.2258 C31.0813,0.2258 31.2753,0.4198 31.2753,0.659 L31.2753,5.8864 L33.8941,7.3451 L40.2861,7.3451 C40.7696,6.7343 41.5032,6.3762 42.2926,6.3762 L44.5294,6.3762 C45.9433,6.3767 47.093,7.5272 47.0924002,8.9409 L47.0924002,19.9535 C47.0924002,20.1926 46.8984,20.3866 46.6593,20.3866 L40.161,20.3866 C39.9219,20.3866 39.7279,20.1926 39.7279,19.9535 L39.7279,11.7195 L34.2462,11.7195 C34.1948,13.61 33.9892,21.3239 33.9892,23.9113 C33.9892,26.5138 33.6244,40.1361 33.6207,40.2734 L33.47,52.7818 C33.4681,52.936 33.3845,53.0779 33.2497,53.1538 L30.3589,54.7849 C30.2931,54.8221 30.2198,54.8406 30.1461,54.8406 Z M27.3757,52.7203 L30.1217,53.9239 L32.6067,52.5216 L32.7546,40.2565 C32.7584,40.113 33.1231,26.5026 33.1231,23.9113 C33.1231,20.9566 33.3891,11.3707 33.3916,11.2745 C33.3982,11.0398 33.5903,10.8533 33.8247,10.8533 L40.161,10.8533 C40.4001,10.8533 40.5941,11.0473 40.5941,11.2864 L40.5941,19.5204 L46.2262,19.5204 L46.2262,8.9409 C46.2262,8.0046 45.465,7.2428 44.5293,7.2426 L44.5284,6.8094 L44.5284,7.2426 L42.2925,7.2426 C41.7162,7.2426 41.1848,7.5311 40.8708,8.0143 C40.7909,8.1374 40.6543,8.2114 40.5076,8.2114 L33.7815,8.2114 C33.7079,8.2114 33.6352,8.1926 33.5706,8.1569 L30.6312,6.5194 C30.4939,6.4429 30.409,6.2982 30.409,6.141 L30.409,1.0922 L26.8094,1.0922 C26.4205,1.6984 25.2194,3.7633 25.2194,6.141 C25.2194,6.3803 25.0254,6.5742 24.7863,6.5742 L22.4467,6.5742 C22.2076,6.5742 22.0136,6.3802 22.0136,6.141 C22.0136,3.7633 20.8125,1.6984 20.4236,1.0922 L16.8243,1.0922 L16.8243,6.141 C16.8243,6.2891 16.7488,6.4268 16.6241,6.5064 L14.0532,8.1437 C13.9836,8.1879 13.9028,8.2114 13.8204,8.2114 L7.4111,8.2114 C7.2695,8.2114 7.1369,8.1425 7.0561,8.0265 C6.7396,7.5734 6.2204,7.3029 5.6673,7.3029 L3.4318,7.3029 L3.4315,7.3029 C2.4952,7.3029 1.7331,8.0644 1.7331,9.0007 L1.7331,19.5806 L7.3652,19.5806 L7.3652,11.2864 C7.3652,11.0473 7.5592,10.8533 7.7983,10.8533 L13.8497,10.8533 C14.0863,10.8533 14.2793,11.0432 14.2828,11.2798 L14.4783,23.9047 L14.745,40.4959 L14.7046,52.4881 L17.0351,53.4605 L19.9472,52.673 L21.7603,40.4314 L23.4603,30.6412 C23.4963,30.4337 23.6765,30.2824 23.8871,30.2824 L23.888,30.2824 C24.0992,30.2827 24.2791,30.4353 24.3142,30.6434 L25.9672,40.4304 L27.3757,52.7203 Z" fill="#15003E"></path>
            </g>
            <path d="M17.7335,35.2317 L17.7335,44.5798 L23.3654,44.5798 L23.3654,36.2858 C23.3654,36.0464 23.5592,35.8526 23.7986,35.8526 L29.8499,35.8526 C30.0864,35.8526 30.2792,36.0426 30.2831,36.2791 L31.3125,48.9108 L43.065,46.2487 L48.1812,48.9108 L49.3922,36.2765 C49.3973,36.0409 49.5897,35.8526 49.8254,35.8526 L56.1616,35.8526 C56.401,35.8526 56.5948,36.0464 56.5948,36.2858 L56.5948,44.5198 L62.2267,44.5198 L62.2267,35.3386 C62.2267,35.3386 52.552,34.0005 39.5833,34.0005 C26.6146,34.0005 17.7335,35.2317 17.7335,35.2317 Z" id="Shape" fill="#C8DBE5"></path>
            <path d="M20.549,56.6637 L20.549,51.1541" id="Shape" fill="#15003E"></path>
            <path d="M20.5489,57.0968 C20.3098,57.0968 20.1158,56.9028 20.1158,56.6637 L20.1158,51.1541 C20.1158,50.915 20.3098,50.721 20.5489,50.721 C20.788,50.721 20.982,50.915 20.982,51.1541 L20.982,56.6637 C20.9819,56.9028 20.7879,57.0968 20.5489,57.0968 Z" id="Shape" fill="#15003E"></path>
            <path d="M22.2696,51.1541 C22.2825,50.2039 21.5227,49.4232 20.5725,49.4103 C19.6223,49.3974 18.8416,50.1572 18.8287,51.1074 C18.8285,51.1231 18.8285,51.1387 18.8287,51.1544 C18.8418,52.1046 19.6226,52.8642 20.5728,52.8512 C21.5047,52.8384 22.2569,52.086 22.2696,51.1541" id="Shape" fill="#25E899"></path>
            <path d="M20.5492,53.3079 C19.3619,53.3079 18.3957,52.3418 18.3957,51.1541 C18.3957,49.9664 19.3618,49.0003 20.5492,49.0003 C21.7369,49.0003 22.703,49.9664 22.703,51.1541 C22.7029,52.3418 21.7368,53.3079 20.5492,53.3079 Z M20.5492,49.8665 C19.8394,49.8665 19.2619,50.4443 19.2619,51.1541 C19.2619,51.8639 19.8394,52.4417 20.5492,52.4417 C21.259,52.4417 21.8368,51.8638 21.8368,51.1541 C21.8368,50.4443 21.2589,49.8665 20.5492,49.8665 Z" id="Shape" fill="#15003E"></path>
            <path d="M19.0103,62.0055 L19.0103,57.7428 C19.0105,57.1464 19.494,56.663 20.0904,56.663 L21.0075,56.663 C21.6039,56.663 22.0874,57.1464 22.0876,57.7428 L22.0876,62.0055" id="Shape" fill="#EFF4EE"></path>
            <path d="M22.0875,62.4387 C21.8484,62.4387 21.6544,62.2447 21.6544,62.0056 L21.6544,57.7429 C21.6544,57.3863 21.3642,57.0961 21.0076,57.0961 L20.0904,57.0961 C19.7338,57.0961 19.4436,57.3863 19.4433,57.7432 L19.4433,62.0056 C19.4433,62.2447 19.2493,62.4387 19.0102,62.4387 C18.7711,62.4387 18.5771,62.2447 18.5771,62.0056 L18.5771,57.7429 C18.5774,56.9084 19.2562,56.23 20.0903,56.23 L21.0075,56.23 C21.8417,56.23 22.5204,56.9087 22.5204,57.7429 L22.5204,62.0056 C22.5205,62.2448 22.3266,62.4387 22.0875,62.4387 Z" id="Shape" fill="#15003E"></path>
            <path d="M22.0879,62.0055 C22.088,61.1556 21.3991,60.4664 20.5492,60.4663 C19.6992,60.4662 19.0101,61.1551 19.01,62.005 L19.01,62.0061 C19.0105,62.8561 19.6999,63.5447 20.5499,63.5442003 C21.3994,63.5438 22.0878,62.855 22.0879,62.0055" id="Shape" fill="#25E899"></path>
            <path d="M20.5489,63.9774 C19.4615,63.9774 18.5772,63.0931 18.5772,62.0057 C18.5772,60.9183 19.4615,60.0337 20.5489,60.0337 C21.6363,60.0337 22.5206,60.9183 22.5206,62.0057 C22.5206,63.0931 21.6362,63.9774 20.5489,63.9774 Z M20.5489,60.8998 C19.9394,60.8998 19.4433,61.3959 19.4433,62.0057 C19.4433,62.6152 19.9394,63.1113 20.5489,63.1113 C21.1584,63.1113 21.6545,62.6152 21.6545,62.0057 C21.6544,61.3959 21.1583,60.8998 20.5489,60.8998 Z" id="Shape" fill="#15003E"></path>
            <path d="M62.6596,45.386 L56.1616,45.386 C55.9225,45.386 55.7285,45.192 55.7285,44.9529 C55.7285,44.7138 55.9225,44.5198 56.1616,44.5198 L62.6596,44.5198 C62.8987,44.5198 63.0927,44.7138 63.0927,44.9529 C63.0927,45.192 62.8987,45.386 62.6596,45.386 Z" id="Shape" fill="#15003E"></path>
            <path d="M60.9489,52.3702 L60.9489,48.1075 C60.9489,47.511 60.4653,47.0274 59.8688,47.0274 L58.9517,47.0274 C58.3552,47.0276 57.8718,47.5111 57.8716,48.1075 L57.8716,52.3702" id="Shape" fill="#EFF4EE"></path>
            <path d="M60.9489,52.8034 C60.7098,52.8034 60.5158,52.6094 60.5158,52.3703 L60.5158,48.1076 C60.5158,47.751 60.2253,47.4605 59.8687,47.4605 L58.9518,47.4605 C58.5952,47.4608 58.3047,47.751 58.3047,48.1076 L58.3047,52.3703 C58.3047,52.6094 58.1107,52.8034 57.8716,52.8034 C57.6325,52.8034 57.4385,52.6094 57.4385,52.3703 L57.4385,48.1076 C57.4385,47.2734 58.1172,46.5947 58.9514,46.5944 L59.8686,46.5944 C60.7031,46.5944 61.3818002,47.2732 61.3818002,48.1076 L61.3818002,52.3703 C61.382,52.6094 61.188,52.8034 60.9489,52.8034 Z" id="Shape" fill="#15003E"></path>
            <path d="M57.8715995,52.3702 C57.8709,51.5204 58.5591,50.8309 59.4089,50.8301995 C60.2587,50.8295 60.9482,51.5177 60.9489,52.3675 C60.9489,52.3684 60.9489,52.3693 60.9489,52.3702 C60.9482,53.22 60.2587,53.9082 59.4089,53.9075005 C58.5602,53.9068 57.8724,53.219 57.8715995,52.3702" id="Shape" fill="#25E899"></path>
            <path d="M59.4103,54.342 C58.3229,54.342 57.4386,53.4577 57.4386,52.3703 C57.4386,51.2829 58.3229,50.3986 59.4103,50.3986 C60.4977,50.3986 61.382,51.2829 61.382,52.3703 C61.382,53.4577 60.4977,54.342 59.4103,54.342 Z M59.4103,51.2647 C58.8008,51.2647 58.3047,51.7608 58.3047,52.3703 C58.3047,52.9798 58.8008,53.4759 59.4103,53.4759 C60.0198,53.4759 60.5159,52.9798 60.5159,52.3703 C60.5159,51.7608 60.0198,51.2647 59.4103,51.2647 Z" id="Shape" fill="#15003E"></path>
            <polygon id="Shape" fill="#25E899" points="31.9302 17.2052 45.8538 17.2052 47.0337 17.6554 46.1465 20.8325 32.8065 20.8325"></polygon>
            <path d="M44.2606,24.7602 L34.6924,24.7602 C33.6509,24.7602 32.8066,23.9159 32.8066,22.8743 L32.8066,20.8328 L46.1465,20.8328 L46.1465,22.8743 C46.1465,23.9159 45.3021,24.7602 44.2606,24.7602" id="Shape" fill="#EFF4EE"></path>
            <path d="M44.2606,25.1935 L34.6923,25.1935 C33.4135,25.1935 32.3734,24.1531 32.3734,22.8744 L32.3734,20.3996 L46.5795,20.3996 L46.5795,22.8744 C46.5795,24.1531 45.5395,25.1935 44.2606,25.1935 Z M33.2395,21.2661 L33.2395,22.8744 C33.2395,23.6754 33.8913,24.327 34.6923,24.327 L44.2606,24.327 C45.0616,24.327 45.7134,23.6754 45.7134,22.8744 L45.7134,21.2661 L33.2395,21.2661 Z" id="Shape" fill="#15003E"></path>
            <path d="M37.0307,17.2052 C34.9366,16.2855 33.474,14.1934 33.474,11.7591 C33.474,10.3228 33.9836,9.0052 34.8317,7.9778 C35.9221,6.6564 42.7813,6.589 43.8708,7.819 C44.8348,8.9049 45.3663,10.3071 45.3642062,11.7592 C45.3642062,14.1931 43.9019,16.2853 41.8081,17.205" id="Shape" fill="#0FCE7C"></path>
            <path d="M36.6546,17.6382 C36.591,17.6382 36.5264,17.6243 36.4653,17.5945 C34.1558,16.4709 32.7212,14.1783 32.7212,11.6112 C32.7212,10.3372 33.0828,9.0988 33.7669,8.0299 C33.8957,7.8281 34.1633,7.77 34.3651,7.8984 C34.5666,8.0274 34.6255,8.2953 34.4964,8.4968 C33.9019,9.4261 33.5873,10.5031 33.5873,11.6112 C33.5873,13.8439 34.8354,15.838 36.8444,16.8154 C37.0594,16.9201 37.149,17.1792 37.0443,17.3943 C36.9695,17.5486 36.815,17.6382 36.6546,17.6382 Z M42.1526,17.6064 C41.9937,17.6064 41.8408,17.5188 41.765,17.3671 C41.6578,17.1532 41.7443,16.893 41.9583,16.7858 C43.9303,15.7982 45.1553,13.8154 45.1553,11.6112 C45.1572,10.3725 44.7708,9.1908 44.0375,8.1928 C43.8959,8.0001 43.9372,7.7289 44.1299,7.5872 C44.3229,7.4454 44.594,7.4872 44.7356,7.6798 C45.5792,8.8278 46.0238,10.1875 46.0213105,11.6119 C46.0213105,14.1453 44.613,16.425 42.3461,17.5604 C42.2839,17.5917 42.2178,17.6064 42.1526,17.6064 Z" id="Shape" fill="#15003E"></path>
            <path d="M46.4833,21.2657 L32.4696,21.2657 L30.1896,12.235 C30.1896,12.2001 30.1896,12.1646 30.1899,12.1297 C30.1896,12.1222 30.1896,12.1147 30.1896,12.107 L30.1896,3.6809 C30.1896,3.4416 30.3836,3.2477 30.6227,3.2477 C30.8618,3.2477 31.0558,3.4417 31.0558,3.6809 L31.0558,8.3193 C32.5355,5.1494 35.7538,2.9479 39.4766,2.9479 C43.1991,2.9479 46.4167,5.149 47.8971,8.3181 L47.8971,1.3018 C47.8971,1.0625 48.0911,0.8686 48.3302,0.8686 C48.5693,0.8686 48.7633,1.0626 48.7633,1.3018 L48.7633,12.107 C48.7633,12.1103 48.7633,12.1136 48.7633,12.1169 C48.7639,12.1562 48.7639,12.1957 48.7639,12.235 L48.7507,12.3417 L46.4833,21.2657 Z M33.1433,20.3993 L45.8096,20.3993 L47.8972,12.1814 C47.8684,7.5629 44.102,3.8144 39.4764,3.8144 C34.8511,3.8144 31.0848,7.5629 31.0559,12.1814 L33.1433,20.3993 Z" id="Shape" fill="#15003E"></path>
            <path d="M48.5547,16.3247 L47.6406,16.3247 C47.4015,16.3247 47.2075,16.1307 47.2075,15.8915 C47.2075,15.6523 47.4015,15.4583 47.6406,15.4583 L48.5547,15.4583 C49.1341,15.4583 49.4318,14.5925 49.4854,14.4189 C49.5139,14.3266 49.5437,14.2397 49.5731,14.1525 C49.7198,13.7218 49.8583,13.315 49.8583,12.0954 C49.8583,11.4969 49.7941,11.0144 49.7207,10.6581 C48.9827,11.5047 48.6816,11.5047 48.5547,11.5047 C48.3156,11.5047 48.1216,11.3107 48.1216,11.0715 C48.1216,10.8542 48.2814,10.6742 48.4901,10.6431 C48.6668,10.5445 49.1522,10.0168 49.5533,9.4846 C49.6445,9.3638 49.7933,9.2994 49.9425,9.3143 C50.0932,9.3295 50.2248,9.4221 50.2903,9.5587 C50.3078,9.5958 50.7243,10.4869 50.7243,12.0954 C50.7243,13.4584 50.556,13.953 50.3934,14.4315 C50.3661,14.5111 50.3392,14.5905 50.3132,14.675 C49.9933,15.708 49.3359,16.3247 48.5547,16.3247 Z M31.312,16.3247 L30.3979,16.3247 C29.6167,16.3247 28.9592,15.708 28.6393,14.6751 C28.6133,14.5905 28.5863,14.5111 28.5591,14.4315 C28.3965,13.953 28.2282,13.4583 28.2282,12.0954 C28.2282,10.4869 28.6447,9.5958 28.6622,9.5587 C28.7277,9.4221 28.8593,9.3295 29.01,9.3143 C29.1607,9.2993 29.308,9.3638 29.3992,9.4846 C29.8003,10.0169 30.2857,10.5446 30.4625,10.6431 C30.6712,10.6741 30.831,10.8542 30.831,11.0715 C30.831,11.3108 30.637,11.5047 30.3979,11.5047 C30.271,11.5047 29.9698,11.5045 29.2319,10.6581 C29.1586,11.0142 29.0943,11.4967 29.0943,12.0954 C29.0943,13.315 29.2328,13.7218 29.3795,14.1525 C29.409,14.2396 29.4387,14.3266 29.4672,14.419 C29.5208,14.5925 29.8185,15.4583 30.3979,15.4583 L31.312,15.4583 C31.5511,15.4583 31.7451,15.6523 31.7451,15.8915 C31.7451,16.1307 31.5511,16.3247 31.312,16.3247 Z" id="Shape" fill="#15003E"></path>
            <path d="M47.0336,17.6377 L31.9303,17.6377 C31.6912,17.6377 31.4972,17.4437 31.4972,17.2045 C31.4972,16.9653 31.6912,16.7713 31.9303,16.7713 L47.0336,16.7713 C47.2727,16.7713 47.4667,16.9653 47.4667,17.2045 C47.4667,17.4437 47.2727,17.6377 47.0336,17.6377 Z M30.7179,11.1874 C30.6088,11.1874 30.4995,11.1464 30.4152,11.0641 C30.2441,10.8971 30.2407,10.6227 30.408,10.4516 C32.867,7.9328 36.1373,6.5456 39.6169,6.5456 C42.8941,6.5456 46.0249,7.7958 48.4331,10.066 C48.6073,10.2302 48.6155,10.5042 48.4513,10.6783 C48.2871,10.8524 48.0129,10.8604 47.839,10.6965 C45.5922,8.5785 42.6722,7.4121 39.6169,7.4121 C36.3729,7.4121 33.3226,8.7065 31.0279,11.0567 C30.9429,11.1437 30.8304,11.1874 30.7179,11.1874 Z" id="Shape" fill="#15003E"></path>
            <path d="M42.5836,9.7883 C42.5837,10.6448 41.8894,11.3392 41.0329,11.3393 C40.1764,11.3394 39.482,10.6451 39.4819,9.7886 L39.4819,9.7882 C39.482,8.9317 40.1764,8.2374 41.0329,8.2375 C41.8893,8.2377 42.5835,8.9319 42.5836,9.7883 M43.692,12.107 C43.692,12.4534 43.4112,12.7342 43.0648,12.7342 C42.7184,12.7342 42.4376,12.4534 42.4376,12.107 C42.4376,11.7606 42.7184,11.4798 43.0648,11.4798 C43.4112,11.4798 43.692,11.7606 43.692,12.107" id="Shape" fill="#FFFFFF"></path>
            <path d="M44.8322,20.0297 C44.2171,20.0297 43.9097,19.5651 43.7063,19.2577 C43.513,18.9655 43.4321,18.8745 43.3036,18.8745 C43.1751,18.8745 43.0946,18.9655 42.9012,19.2577 C42.6981,19.5651 42.3907,20.0297 41.7759,20.0297 C41.1611,20.0297 40.854,19.5651 40.6506,19.2579 C40.4573,18.9655 40.3764,18.8745 40.2479,18.8745 C40.1191,18.8745 40.0379,18.9655 39.8446,19.2579 C39.6412,19.5653 39.3338,20.0297 38.7187,20.0297 C38.1039,20.0297 37.7968,19.5651 37.5934,19.2579 C37.4001,18.9655 37.3192,18.8745 37.1907,18.8745 C37.0616,18.8745 36.9807,18.9655 36.7871,19.2581 C36.5837,19.5654 36.2763,20.0298 35.6612,20.0298 C35.0461,20.0298 34.7383,19.5654 34.535,19.258 C34.3413,18.9656 34.2605,18.8746 34.1317,18.8746 C33.8926,18.8746 33.6986,18.6806 33.6986,18.4414 C33.6986,18.2022 33.8926,18.0082 34.1317,18.0082 C34.7468,18.0082 35.0543,18.4726 35.2576,18.7799 C35.4513,19.0724 35.5321,19.1635 35.6612,19.1635 C35.79,19.1635 35.8712,19.0725 36.0645,18.7801 C36.2679,18.4727 36.5756,18.0083 37.1907,18.0083 C37.8055,18.0083 38.1126,18.4729 38.316,18.7801 C38.5093,19.0725 38.5902,19.1635 38.7187,19.1635 C38.8475,19.1635 38.9287,19.0725 39.122,18.7801 C39.3254,18.4727 39.6328,18.0083 40.2479,18.0083 C40.8627,18.0083 41.1698,18.4729 41.3732,18.7801 C41.5665,19.0725 41.6474,19.1635 41.7759,19.1635 C41.9044,19.1635 41.9852,19.0725 42.1786,18.7801 C42.3817,18.4728 42.6888,18.0083 43.3036,18.0083 C43.9184,18.0083 44.2255,18.4727 44.4289,18.78 C44.6222,19.0725 44.7034,19.1636 44.8322,19.1636 C45.0713,19.1636 45.2653,19.3576 45.2653,19.5968 C45.2653,19.836 45.0713,20.0297 44.8322,20.0297 Z" id="Shape" fill="#15003E"></path>
            <path d="M60.5287,55.4378 L58.2928,55.4378 C56.8786,55.4378 55.7282,54.2874 55.7282,52.8735 L55.7282,44.9529 C55.7282,44.7138 55.9222,44.5198 56.1613,44.5198 L62.6599,44.5198 C62.899,44.5198 63.093,44.7138 63.093,44.9529 L63.093,52.8735 C63.093,54.2875 61.9426,55.4378 60.5287,55.4378 Z M56.5944,45.386 L56.5944,52.8736 C56.5944,53.8099 57.3565,54.5717 58.2928,54.5717 L60.5287,54.5717 C61.465,54.5717 62.2268,53.8099 62.2268,52.8736 L62.2268,45.386 L56.5944,45.386 Z M21.6669,55.4378 L19.4314,55.4378 C18.0172,55.4378 16.8668,54.2874 16.8668,52.8735 L16.8668,45.0133 C16.8668,44.7742 17.0608,44.5802 17.2999,44.5802 L23.7982,44.5802 C24.0373,44.5802 24.2313,44.7742 24.2313,45.0133 L24.2313,52.8735 C24.2312,54.2875 23.0808,55.4378 21.6669,55.4378 Z M17.7329,45.4465 L17.7329,52.8736 C17.7329,53.8099 18.495,54.5717 19.4313,54.5717 L21.6668,54.5717 C22.6031,54.5717 23.3649,53.8099 23.3649,52.8736 L23.3649,45.4465 L17.7329,45.4465 Z" id="Shape" fill="#15003E"></path>
            <g id="Shape" transform="translate(28.000000, 76.000000)">
                <path d="M8.516,4.7369 L1.8063,4.7369 C1.4633,4.3775 1.2656,3.9584 1.2656,3.5105 C1.2656,2.1779 3.0099,1.0971 5.1612,1.0971 C7.3131,1.0971 9.0571,2.1778 9.0571,3.5105 C9.057,3.9585 8.8596,4.3776 8.516,4.7369 Z M14.7915,4.7369 L21.5012,4.7369 C21.8442,4.3775 22.0419,3.9584 22.0419,3.5105 C22.0419,2.1779 20.2976,1.0971 18.1463,1.0971 C15.9948,1.0971 14.2504,2.1778 14.2504,3.5105 C14.2505,3.9585 14.4482,4.3776 14.7915,4.7369 Z" fill="#231F20"></path>
                <path d="M21.5014,5.0984 L14.7916,5.0984 C14.6929,5.0984 14.5986,5.058 14.5303,4.9868 C14.1107,4.5478 13.8888,4.0373 13.8888,3.5105 C13.8888,1.9543 15.759,0.7353 18.1465,0.7353 C20.5337,0.7353 22.4036,1.9543 22.4036,3.5105 C22.4036,4.037 22.1821,4.5474 21.7631,4.9865 C21.6947,5.058 21.6001,5.0984 21.5014,5.0984 Z M14.9536,4.3752 L21.3391,4.3752 C21.5628,4.1029 21.6804,3.8064 21.6804,3.5106 C21.6804,2.3985 20.0622,1.4587 18.1466,1.4587 C16.2307,1.4587 14.6120999,2.3985 14.6120999,3.5106 C14.612,3.8067 14.7295,4.1032 14.9536,4.3752 Z M8.5161,5.0984 L1.8063,5.0984 C1.7076,5.0984 1.613,5.058 1.545,4.9865 C1.1254,4.5478 0.9039,4.0373 0.9039,3.5105 C0.9039,1.9543 2.7741,0.7353 5.1613,0.7353 C7.5485,0.7353 9.4187,1.9543 9.4187,3.5105 C9.4187,4.0376 9.1972,4.5481 8.7776,4.9868 C8.7091,5.058 8.6148,5.0984 8.5161,5.0984 Z M1.9686,4.3752 L8.3541,4.3752 C8.5778,4.1032 8.6954,3.8068 8.6954,3.5106 C8.6954,2.3985 7.0769,1.4587 5.1613,1.4587 C3.2457,1.4587 1.62719994,2.3985 1.62719994,3.5106 C1.6271,3.8064 1.7446,4.1029 1.9686,4.3752 Z" fill="#15003E"></path>
            </g>
            <path d="M39.8873,55.8753 C39.7996,55.8753 39.7281,55.8048 39.7269,55.7167 L39.4223,31.1427 C39.4214,31.054 39.4922,30.9813 39.5809,30.9802 C39.5815,30.9802 39.5822,30.9802 39.5828,30.9802 C39.6705,30.9802 39.742,31.0507 39.7432,31.1386 L40.0478,55.7129 C40.0487,55.8013 39.9779,55.874 39.8892,55.8753 C39.8892,55.8753 39.8879,55.8753 39.8873,55.8753 Z" id="Shape" fill="#15003E"></path>
            <path d="M35.9834,77.5066 C35.9279,77.5066 35.874,77.4778 35.8443,77.4264 L33.3812,73.1521 L30.8505,77.1823 C30.8029,77.2578 30.7035,77.2801 30.6293,77.2331 C30.5541,77.1858 30.5315,77.0868 30.5785,77.0119 L33.3932,72.5298 L36.1226,77.266 C36.1668,77.3428 36.1405,77.4409 36.0637,77.4854 C36.0382,77.4997 36.0106,77.5066 35.9834,77.5066 Z M43.3804,77.5066 C43.3528,77.5066 43.3252,77.4997 43.2999,77.485 C43.2231,77.4402 43.1971,77.3421 43.2416,77.2656 L45.9973,72.5284 L48.7581,77.013 C48.8045,77.0882 48.781,77.1872 48.7055,77.2336 C48.6309,77.2803 48.5319,77.2571 48.4849,77.181 L46.0049,73.1533 L43.5193,77.4267 C43.4894,77.4781 43.4355,77.5066 43.3804,77.5066 Z" id="Shape" fill="#396D87"></path>
            <g id="Shape" transform="translate(28.000000, 50.000000)">
                <path d="M4.2934,4.8988 L1.424,4.8988 C0.926,4.8988 0.8663,4.2814 0.8663,4.2814 L0.8663,1.1537 L5.0109,1.1537 L5.0109,4.2217 C5.0109,4.2218 4.9509,4.8988 4.2934,4.8988 Z" id="Path" fill="#231F20"></path>
                <path d="M4.2935,5.3319 L1.424,5.3319 C0.8117,5.3319 0.482,4.8092 0.435,4.3232 C0.4337,4.3094 0.4331,4.2956 0.4331,4.2815 L0.4331,1.1538 C0.4331,0.9147 0.6271,0.7207 0.8662,0.7207 L5.0108,0.7207 C5.2499,0.7207 5.4439,0.9147 5.4439,1.1538 L5.4439,4.2216 C5.4439,4.2404 5.443,4.2586 5.4405,4.2768 C5.3818,4.7867 4.9992,5.3319 4.2935,5.3319 Z M1.2993,4.2505 C1.3081,4.2956 1.346,4.4658 1.424,4.4658 L4.2935,4.4658 C4.4928,4.4658 4.5586,4.3223 4.5777,4.1941 L4.5777,1.5869 L1.2993,1.5869 L1.2993,4.2505 Z" fill="#15003E"></path>
            </g>
            <g id="Shape" transform="translate(28.000000, 49.000000)">
                <path d="M1.7132,0.7547 L4.186,0.7547 C4.727,0.7547 4.7119,1.2951 4.7119,1.2951 L4.7119,2.1541 L1.08559752,2.1541 L1.08559752,1.3474 C1.0855,1.3474 1.0855,0.7547 1.7132,0.7547 Z" id="Path" fill="#939598"></path>
                <path d="M4.7118,2.5872 L1.0855,2.5872 C0.8464,2.5872 0.6524,2.3932 0.6524,2.1541 L0.6524,1.3475 C0.6524,0.9351 0.9347,0.3215 1.7131,0.3215 L4.1859,0.3215 C4.5359,0.3215 4.7528,0.4688 4.8731,0.5929 C5.1429,0.8699 5.1467,1.2366 5.1448,1.3071 L5.1448,2.1541 C5.1449,2.3932 4.9509,2.5872 4.7118,2.5872 Z M1.5186,1.721 L4.2787,1.721 L4.2787,1.2951 C4.2778,1.2559 4.263,1.2077 4.2521,1.1967 C4.2521,1.1967 4.2346,1.1876 4.186,1.1876 L1.7132,1.1876 C1.6549,1.1876 1.5186,1.1876 1.5186,1.3474 L1.5186,1.721 Z" fill="#15003E"></path>
            </g>
            <g id="Shape" transform="translate(45.000000, 50.000000)">
                <path d="M4.3826,5.3125 L1.5845,4.6775 C1.0987,4.5674 1.1773,3.952 1.1773,3.952 L1.8695,0.902 L5.9111,1.8194 L5.2321,4.811 C5.2319,4.8109 5.0237,5.4581 4.3826,5.3125 Z" id="Path" fill="#231F20"></path>
                <path d="M4.5634,5.7672 C4.4757,5.7672 4.3835,5.7569 4.2867,5.7349 L1.4887,5.0997 C0.8911,4.9646 0.6855,4.3815 0.7476,3.897 C0.7492,3.8832 0.7517,3.8694 0.7548,3.8559 L1.447,0.8059 C1.4724,0.6937 1.5413,0.5966 1.6385,0.5352 C1.736,0.4741 1.8538,0.454 1.9653,0.4794 L6.0068,1.3969 C6.2403,1.4499 6.3863,1.6821 6.3333,1.9152 L5.6542,4.9066 C5.6514,4.9188 5.6479,4.931 5.6442,4.9433 C5.5289,5.3025 5.1563,5.7669 4.5634,5.7672 Z M1.6065,4.0176 C1.6049,4.0634 1.604,4.2376 1.6801,4.2548 L4.4785,4.89 C4.6725,4.9345 4.7687,4.8082 4.8154,4.6882 L5.3926,2.1459 L2.196,1.4201 L1.6065,4.0176 Z" fill="#15003E"></path>
            </g>
            <g id="Shape" transform="translate(46.000000, 46.000000)">
                <polygon id="Path" fill="#BCBEC0" points="4.9815 1.2547 2.7796 0.7551 1.333 5.0068 4.4373 5.7115"></polygon>
                <path d="M4.4374,6.1447 C4.4054,6.1447 4.3732,6.1413 4.3415,6.134 L1.2373,5.4292 C1.1176,5.4019 1.0151,5.3255 0.955,5.2183 C0.8951,5.1111 0.8836,4.9836 0.923,4.8673 L2.3695,0.6155 C2.4409,0.4055 2.66,0.2846 2.8756,0.3325 L5.0776,0.832 C5.2941,0.8812 5.4386,1.0865 5.4116,1.3071 L4.8673,5.7641 C4.8526,5.8857 4.7868,5.9954 4.6865,6.0659 C4.6129,6.1177 4.5257,6.1447 4.4374,6.1447 Z M1.8982,4.691 L4.0654,5.183 L4.5041,1.5906 L3.0642,1.2638 L1.8982,4.691 Z" fill="#15003E"></path>
            </g>
            <path d="M50.506,47.9449 C50.506,47.9449 49.8315,48.3807 49.6874,49.187 C49.5433,49.9934 50.1989,50.7834 50.1989,50.7834 L50.506,47.9449 Z" id="Shape" fill="#15003E"></path>
            <g id="Shape" transform="translate(44.000000, 33.000000)" fill="#EFF4EE">
                <path d="M2.5822,1.6977 C2.5212,1.5976 2.4619,1.4965 2.4019,1.3961 C2.2514,1.1448 2.1025,0.8929 1.9498,0.6433 C1.8879,0.5422 1.8365,0.4338 1.7602,0.3417 C1.7336,0.2923 1.7336,0.3475 1.731,0.352 C1.5734,0.6116 1.4172,0.8715 1.2615,1.1321 C1.1453,1.3269 1.0311,1.5226 0.9159,1.718 C0.8992,1.7501 0.9307,1.7498 0.9445,1.7581 C1.2015,1.9121 1.4595,2.0652 1.7162,2.2195 C1.7422,2.2352 1.7614,2.2371 1.7884,2.2211 C2.0474,2.0658 2.307,1.9114 2.5672,1.7584 C2.5979,1.7398 2.5992,1.7256 2.5822,1.6977 Z" id="Path"></path>
                <path d="M2.4833,2.0956 C2.2426,2.2371 2.0023,2.3799 1.7619,2.5221 C1.726,2.5211 1.7006,2.4964 1.6721,2.4797 C1.4481,2.3475 1.2245,2.214 1.0005,2.0818 C0.9812,2.0706 0.9642,2.0497 0.9296,2.0616 L1.1924,2.4348 C1.3647,2.6796 1.5367,2.9245 1.7106,3.168 C1.7202,3.1815 1.7209,3.2261 1.7597,3.1982 C1.7783,3.1976 1.786,3.1822 1.7947,3.1696 C2.0383,2.825 2.2815,2.4803 2.5244,2.1354 C2.5356,2.1197 2.5546,2.1023 2.5343,2.0821 C2.5132,2.061 2.4984,2.087 2.4833,2.0956 Z" id="Path"></path>
            </g>
            <path d="M55.8271,81.7078 L23.2021,81.7078 C23.0646,81.7078 22.9521,81.5953 22.9521,81.4578 L22.9521,81.3484 C22.9521,81.2109 23.0646,81.0984 23.2021,81.0984 L55.8271,81.0984 C55.9646,81.0984 56.0771,81.2109 56.0771,81.3484 L56.0771,81.4578 C56.0771,81.5953 55.9646,81.7078 55.8271,81.7078 Z" id="Shape" fill="#15003E"></path>
        </g>
    </g>
</svg>