<svg width="3000" height="1112" viewBox="0 0 3000 1112" fill="none" xmlns="http://www.w3.org/2000/svg">
<g clip-path="url(#clip0)">
<rect width="3000" height="1112" fill="white"/>
<path d="M2999.99 1137L-0.00580215 1137L-0.00590155 -9.22601e-05L2999.99 -0.000354528L2999.99 1137Z" fill="#F9006C"/>
<path fill-rule="evenodd" clip-rule="evenodd" d="M732.553 -20.9998C716.443 71.1766 708.044 166.004 708.044 262.793C708.044 575.519 795.729 867.765 947.856 1116.29L2999.63 1116.29V-21L732.553 -20.9998Z" fill="black" fill-opacity="0.15"/>
<path opacity="0.3" fill-rule="evenodd" clip-rule="evenodd" d="M1219.51 -20.9998C1196.68 69.8204 1184.56 164.891 1184.56 262.793C1184.56 600.331 1328.65 904.215 1558.68 1116.29L2999.63 1116.29L2999.63 -21L1219.51 -20.9998Z" fill="black" fill-opacity="0.35"/>
<path opacity="0.3" fill-rule="evenodd" clip-rule="evenodd" d="M1837.14 -20.9999C1786.92 74.5512 1758.5 183.355 1758.5 298.796C1758.5 678.934 2066.66 987.097 2446.8 987.097C2673.27 987.097 2874.2 877.719 2999.63 708.907L2999.63 -21L1837.14 -20.9999Z" fill="black" fill-opacity="0.35"/>
<path fill-rule="evenodd" clip-rule="evenodd" d="M1952.18 30.6216C1948.82 63.7548 1948.82 97.7346 1952.48 132.171C1981 400.385 2221.23 594.727 2489.03 566.247C2756.84 537.766 2950.82 297.248 2922.29 29.0345C2918.97 -2.27203 2912.75 -32.5721 2903.95 -61.6289C2907.72 -44.3871 2910.59 -26.764 2912.5 -8.80571C2940.67 256.055 2749.12 493.567 2484.66 521.691C2220.2 549.816 1982.98 357.903 1954.81 93.0417C1952.58 72.0326 1951.72 51.1956 1952.18 30.6216Z" fill="white"/>
<path d="M1672.4 339.774C1680.83 335.029 1688.12 337.765 1693.44 339.764C1698.36 341.613 1700.87 342.419 1704.2 340.545C1707.53 338.672 1708.14 336.107 1709.12 330.944C1710.17 325.36 1711.61 317.714 1720.04 312.97C1728.47 308.228 1735.76 310.965 1741.08 312.964C1746 314.812 1748.51 315.617 1751.84 313.744C1755.17 311.867 1755.79 309.302 1756.76 304.136L1756.77 304.122C1757.82 298.543 1759.27 290.901 1767.69 286.16C1776.12 281.419 1783.41 284.153 1788.72 286.15L1788.73 286.152C1793.65 288.003 1796.16 288.806 1799.49 286.933C1802.83 285.056 1803.45 282.492 1804.42 277.324C1805.48 271.739 1806.92 264.091 1815.36 259.346C1823.79 254.601 1831.08 257.336 1836.4 259.335C1841.32 261.183 1843.84 261.985 1847.17 260.109C1848.58 259.316 1850.25 259.115 1851.81 259.551C1853.37 259.987 1854.69 261.024 1855.48 262.434C1856.27 263.844 1856.47 265.511 1856.04 267.069C1855.6 268.626 1854.56 269.947 1853.15 270.74C1844.72 275.486 1837.43 272.75 1832.11 270.755C1827.19 268.906 1824.67 268.104 1821.34 269.979C1818 271.855 1817.38 274.42 1816.41 279.588C1815.35 285.174 1813.91 292.82 1805.47 297.566C1797.05 302.306 1789.77 299.573 1784.45 297.578L1784.44 297.574C1779.52 295.722 1777.01 294.919 1773.68 296.793C1770.34 298.669 1769.72 301.232 1768.75 306.4C1767.7 311.983 1766.25 319.63 1757.82 324.375C1749.39 329.117 1742.11 326.382 1736.79 324.385L1736.78 324.382C1731.86 322.531 1729.35 321.728 1726.02 323.601C1722.69 325.475 1722.07 328.039 1721.1 333.204L1721.1 333.212C1720.05 338.794 1718.6 346.436 1710.18 351.176C1710.05 351.25 1709.91 351.322 1709.78 351.393L1709.64 351.479C1701.2 356.225 1693.91 353.49 1688.59 351.494C1683.67 349.646 1681.15 348.843 1677.82 350.718C1674.49 352.595 1673.87 355.159 1672.89 360.328C1671.83 365.913 1670.39 373.56 1661.95 378.306C1653.53 383.045 1646.25 380.313 1640.93 378.317L1640.92 378.313C1636 376.461 1633.49 375.659 1630.16 377.532C1626.82 379.408 1626.21 381.972 1625.23 387.14C1624.18 392.723 1622.73 400.369 1614.3 405.114C1605.87 409.856 1598.59 407.122 1593.27 405.125L1593.26 405.122C1588.35 403.271 1585.83 402.467 1582.5 404.341C1579.17 406.215 1578.55 408.778 1577.58 413.943L1577.58 413.952C1576.53 419.534 1575.09 427.175 1566.66 431.915C1566.53 431.99 1566.4 432.062 1566.26 432.133C1566.22 432.162 1566.17 432.191 1566.12 432.219C1557.68 436.965 1550.39 434.229 1545.08 432.234C1540.15 430.386 1537.64 429.583 1534.3 431.458C1530.97 433.334 1530.35 435.899 1529.37 441.067C1528.31 446.653 1526.87 454.299 1518.43 459.045C1510.01 463.785 1502.73 461.052 1497.41 459.057L1497.4 459.053C1492.48 457.201 1489.97 456.398 1486.64 458.272C1483.3 460.148 1482.69 462.711 1481.71 467.88C1480.66 473.462 1479.22 481.109 1470.78 485.854C1462.35 490.596 1455.07 487.861 1449.75 485.864L1449.75 485.862C1444.83 484.01 1442.32 483.207 1438.98 485.081C1435.65 486.954 1435.04 489.518 1434.07 494.683L1434.06 494.691C1433.01 500.273 1431.57 507.915 1423.14 512.655C1423.01 512.729 1422.88 512.802 1422.74 512.872L1422.6 512.958C1414.16 517.704 1406.87 514.969 1401.56 512.974C1396.63 511.125 1394.12 510.322 1390.78 512.197C1387.45 514.074 1386.83 516.639 1385.85 521.807C1384.8 527.392 1383.35 535.039 1374.92 539.785C1366.49 544.524 1359.21 541.792 1353.89 539.796L1353.88 539.793C1348.96 537.94 1346.45 537.138 1343.12 539.012C1339.79 540.887 1339.17 543.451 1338.19 548.619C1337.14 554.202 1335.7 561.848 1327.26 566.593C1318.83 571.335 1311.55 568.601 1306.24 566.604L1306.23 566.601C1301.31 564.75 1298.8 563.946 1295.47 565.82C1292.14 567.694 1291.52 570.258 1290.55 575.422L1290.54 575.431C1289.49 581.013 1288.05 588.654 1279.62 593.394C1271.19 598.137 1263.91 595.401 1258.59 593.402C1253.67 591.551 1251.16 590.747 1247.82 592.623C1246.41 593.416 1244.75 593.616 1243.19 593.18C1241.63 592.744 1240.31 591.707 1239.52 590.298C1238.72 588.888 1238.52 587.22 1238.96 585.663C1239.4 584.105 1240.43 582.785 1241.84 581.993C1250.27 577.248 1257.56 579.983 1262.88 581.983C1267.8 583.832 1270.31 584.638 1273.64 582.763C1276.97 580.891 1277.59 578.325 1278.56 573.162C1279.61 567.579 1281.05 559.933 1289.49 555.189C1297.92 550.447 1305.2 553.184 1310.52 555.182C1315.44 557.031 1317.95 557.836 1321.28 555.962C1324.62 554.086 1325.23 551.521 1326.21 546.355L1326.21 546.341C1327.26 540.761 1328.71 533.12 1337.14 528.379C1345.57 523.638 1352.85 526.372 1358.17 528.369L1358.17 528.371C1363.09 530.221 1365.61 531.025 1368.93 529.152C1372.27 527.275 1372.89 524.71 1373.87 519.542C1374.92 513.958 1376.37 506.31 1384.8 501.564C1384.94 501.488 1385.07 501.414 1385.21 501.342L1385.36 501.253C1393.79 496.508 1401.08 499.244 1406.4 501.244C1411.32 503.092 1413.83 503.898 1417.16 502.024C1420.49 500.151 1421.11 497.586 1422.08 492.423C1423.13 486.839 1424.57 479.193 1433 474.45C1441.43 469.707 1448.72 472.444 1454.04 474.443C1458.96 476.291 1461.47 477.096 1464.8 475.223C1468.14 473.346 1468.75 470.781 1469.73 465.615L1469.73 465.601C1470.78 460.022 1472.23 452.38 1480.66 447.639C1489.08 442.898 1496.37 445.633 1501.68 447.629L1501.69 447.631C1506.61 449.482 1509.12 450.285 1512.45 448.412C1515.79 446.535 1516.41 443.971 1517.39 438.803C1518.44 433.218 1519.89 425.57 1528.32 420.825C1528.46 420.749 1528.59 420.675 1528.73 420.602C1528.78 420.572 1528.83 420.542 1528.88 420.514C1537.31 415.769 1544.6 418.504 1549.92 420.504C1554.84 422.353 1557.35 423.159 1560.68 421.284C1564.01 419.411 1564.62 416.846 1565.6 411.683C1566.65 406.1 1568.09 398.453 1576.52 393.71C1584.95 388.967 1592.24 391.705 1597.56 393.703C1602.48 395.552 1604.99 396.357 1608.32 394.483C1611.65 392.607 1612.27 390.042 1613.24 384.876L1613.25 384.862C1614.3 379.282 1615.75 371.641 1624.18 366.9C1632.6 362.159 1639.89 364.893 1645.2 366.89L1645.21 366.892C1650.13 368.742 1652.64 369.546 1655.97 367.673C1659.31 365.796 1659.93 363.231 1660.9 358.063C1661.96 352.479 1663.4 344.831 1671.84 340.085C1671.97 340.009 1672.11 339.935 1672.24 339.863L1672.4 339.774Z" fill="#FFCE08"/>
<g filter="url(#filter0_d)">
<path d="M2210.28 263.557L1528.33 1054.55L2271.5 287.672C2284.73 274.016 2273.65 251.283 2254.75 253.294L2223.53 256.614C2218.39 257.161 2213.65 259.643 2210.28 263.557Z" fill="#25E899"/>
</g>
<g filter="url(#filter1_d)">
<path d="M1873.18 -45.7916L2003.31 -16.7086C2004.08 -16.5365 2004.87 -16.4913 2005.66 -16.5748C2013.1 -17.3663 2014.57 -27.5154 2007.65 -30.348L1888.01 -79.3303C1883.38 -81.2259 1878.13 -80.8853 1873.78 -78.4076L1868.71 -75.5156C1855.87 -68.1998 1858.75 -49.0157 1873.18 -45.7916Z" fill="#25E899"/>
</g>
<path d="M2866.59 434.255L2687.31 289.354C2686.64 288.818 2685.91 288.371 2685.13 288.025C2675.44 283.724 2666.82 295.803 2674.04 303.572L2815.2 455.519C2817.96 458.486 2821.72 460.318 2825.76 460.657L2855.01 463.111C2870.98 464.451 2879.06 444.328 2866.59 434.255Z" fill="#25E899"/>
<g filter="url(#filter2_d)">
<path d="M1273.78 77.4566L1314.68 95.6626C1319.39 97.7573 1324.9 95.6406 1327 90.9347C1329.09 86.2288 1326.98 80.7158 1322.27 78.621L1281.37 60.415C1276.66 58.3202 1271.15 60.437 1269.06 65.1429C1266.96 69.8488 1269.08 75.3618 1273.78 77.4566Z" fill="#25E899"/>
<path d="M1188.58 39.5274L1229.48 57.7334C1234.18 59.8282 1239.7 57.7114 1241.79 53.0055C1243.89 48.2996 1241.77 42.7866 1237.06 40.6918L1196.16 22.4858C1191.46 20.3911 1185.94 22.5078 1183.85 27.2137C1181.75 31.9196 1183.87 37.4326 1188.58 39.5274Z" fill="#25E899"/>
<path d="M1273.81 40.713L1292.01 -0.186751C1294.11 -4.89265 1291.99 -10.4057 1287.28 -12.5005C1282.58 -14.5952 1277.07 -12.4785 1274.97 -7.77258L1256.76 33.1272C1254.67 37.8331 1256.79 43.3461 1261.49 45.4409C1266.2 47.5357 1271.71 45.4189 1273.81 40.713Z" fill="#25E899"/>
<path d="M1235.88 125.921L1254.08 85.0211C1256.18 80.3152 1254.06 74.8022 1249.35 72.7074C1244.65 70.6126 1239.14 72.7294 1237.04 77.4353L1218.84 118.335C1216.74 123.041 1218.86 128.554 1223.56 130.649C1228.27 132.744 1233.78 130.627 1235.88 125.921Z" fill="#25E899"/>
</g>
<g filter="url(#filter3_d)">
<path d="M2110.27 639.569L2143.49 647.691C2147.31 648.625 2151.17 646.284 2152.1 642.462C2153.04 638.639 2150.7 634.783 2146.88 633.849L2113.66 625.727C2109.83 624.793 2105.98 627.134 2105.04 630.956C2104.11 634.779 2106.45 638.635 2110.27 639.569Z" fill="white"/>
<path d="M2041.06 622.65L2074.28 630.771C2078.1 631.706 2081.96 629.364 2082.9 625.542C2083.83 621.72 2081.49 617.864 2077.67 616.929L2044.45 608.808C2040.62 607.874 2036.77 610.215 2035.83 614.037C2034.9 617.859 2037.24 621.715 2041.06 622.65Z" fill="white"/>
<path d="M2105.29 611.947L2113.41 578.726C2114.34 574.904 2112 571.048 2108.18 570.113C2104.36 569.179 2100.5 571.52 2099.57 575.342L2091.45 608.563C2090.51 612.385 2092.85 616.241 2096.68 617.176C2100.5 618.11 2104.35 615.769 2105.29 611.947Z" fill="white"/>
<path d="M2088.37 681.156L2096.49 647.936C2097.43 644.113 2095.08 640.257 2091.26 639.323C2087.44 638.388 2083.58 640.729 2082.65 644.552L2074.53 677.772C2073.59 681.595 2075.93 685.451 2079.76 686.385C2083.58 687.319 2087.43 684.978 2088.37 681.156Z" fill="white"/>
</g>
<g filter="url(#filter4_d)">
<path d="M1788.28 85.006L1817.7 92.1992C1821.09 93.0269 1824.51 90.9533 1825.33 87.5678C1826.16 84.1822 1824.09 80.7667 1820.7 79.9391L1791.28 72.7458C1787.89 71.9181 1784.48 73.9917 1783.65 77.3773C1782.82 80.7628 1784.89 84.1783 1788.28 85.006Z" fill="white"/>
<path d="M1726.98 70.0199L1756.4 77.2132C1759.79 78.0409 1763.2 75.9673 1764.03 72.5817C1764.86 69.1962 1762.79 65.7807 1759.4 64.9531L1729.98 57.7598C1726.59 56.9321 1723.18 59.0057 1722.35 62.3913C1721.52 65.7768 1723.59 69.1923 1726.98 70.0199Z" fill="white"/>
<path d="M1783.87 60.5398L1791.06 31.1154C1791.89 27.7299 1789.81 24.3144 1786.43 23.4868C1783.04 22.6591 1779.63 24.7327 1778.8 28.1182L1771.61 57.5426C1770.78 60.9282 1772.85 64.3437 1776.24 65.1713C1779.62 65.999 1783.04 63.9254 1783.87 60.5398Z" fill="white"/>
<path d="M1768.88 121.841L1776.07 92.4163C1776.9 89.0307 1774.83 85.6153 1771.44 84.7876C1768.06 83.96 1764.64 86.0335 1763.81 89.4191L1756.62 118.843C1755.79 122.229 1757.87 125.645 1761.25 126.472C1764.64 127.3 1768.05 125.226 1768.88 121.841Z" fill="white"/>
</g>
<path d="M2812.06 180.358L2838.41 186.8C2841.44 187.542 2844.5 185.684 2845.24 182.652C2845.98 179.62 2844.12 176.562 2841.09 175.82L2814.74 169.378C2811.71 168.637 2808.65 170.494 2807.91 173.526C2807.17 176.558 2809.02 179.617 2812.06 180.358Z" fill="white"/>
<path d="M2757.16 166.937L2783.51 173.379C2786.54 174.12 2789.6 172.263 2790.34 169.231C2791.08 166.199 2789.22 163.141 2786.19 162.399L2759.84 155.957C2756.81 155.216 2753.75 157.073 2753.01 160.105C2752.27 163.137 2754.12 166.196 2757.16 166.937Z" fill="white"/>
<path d="M2808.1 158.447L2814.54 132.095C2815.29 129.063 2813.43 126.004 2810.4 125.263C2807.37 124.522 2804.31 126.379 2803.57 129.411L2797.12 155.763C2796.38 158.795 2798.24 161.854 2801.27 162.595C2804.3 163.336 2807.36 161.479 2808.1 158.447Z" fill="white"/>
<path d="M2794.68 213.346L2801.12 186.995C2801.87 183.963 2800.01 180.904 2796.98 180.163C2793.94 179.421 2790.89 181.278 2790.14 184.31L2783.7 210.662C2782.96 213.694 2784.82 216.753 2787.85 217.494C2790.88 218.236 2793.94 216.379 2794.68 213.346Z" fill="white"/>
<g filter="url(#filter5_dd)">
<path fill-rule="evenodd" clip-rule="evenodd" d="M1085.06 644.422C1069.53 646.073 1058.27 659.885 1059.91 675.272C1061.54 690.659 1075.46 701.793 1090.98 700.142C1106.51 698.491 1117.77 684.679 1116.14 669.292C1114.5 653.905 1100.59 642.771 1085.06 644.422ZM1082.49 620.26C1053.49 623.343 1032.47 649.134 1035.52 677.865C1038.58 706.597 1064.56 727.388 1093.55 724.305C1122.55 721.221 1143.58 695.43 1140.52 666.699C1137.47 637.968 1111.48 617.176 1082.49 620.26Z" fill="#25E899"/>
</g>
<g filter="url(#filter6_d)">
<path fill-rule="evenodd" clip-rule="evenodd" d="M908.468 312.906C889.053 314.97 874.999 332.495 877.078 352.048C879.158 371.601 896.583 385.778 915.998 383.713C935.413 381.648 949.466 364.124 947.387 344.571C945.308 325.018 927.883 310.841 908.468 312.906ZM905.025 280.537C867.859 284.489 840.957 318.036 844.937 355.466C848.918 392.896 882.274 420.034 919.44 416.082C956.606 412.129 983.508 378.582 979.528 341.153C975.547 303.723 942.191 276.584 905.025 280.537Z" fill="white"/>
</g>
</g>
<defs>
<filter id="filter0_d" x="1442.19" y="251.139" width="918.95" height="833.411" filterUnits="userSpaceOnUse" color-interpolation-filters="sRGB">
<feFlood flood-opacity="0" result="BackgroundImageFix"/>
<feColorMatrix in="SourceAlpha" type="matrix" values="0 0 0 0 0 0 0 0 0 0 0 0 0 0 0 0 0 0 127 0"/>
<feOffset dy="20"/>
<feGaussianBlur stdDeviation="5"/>
<feColorMatrix type="matrix" values="0 0 0 0 0 0 0 0 0 0 0 0 0 0 0 0 0 0 0.1 0"/>
<feBlend mode="normal" in2="BackgroundImageFix" result="effect1_dropShadow"/>
<feBlend mode="normal" in="SourceGraphic" in2="effect1_dropShadow" result="shape"/>
</filter>
<filter id="filter1_d" x="1848.68" y="-93.7025" width="174.166" height="121.895" filterUnits="userSpaceOnUse" color-interpolation-filters="sRGB">
<feFlood flood-opacity="0" result="BackgroundImageFix"/>
<feColorMatrix in="SourceAlpha" type="matrix" values="0 0 0 0 0 0 0 0 0 0 0 0 0 0 0 0 0 0 127 0"/>
<feOffset dy="20"/>
<feGaussianBlur stdDeviation="5"/>
<feColorMatrix type="matrix" values="0 0 0 0 0 0 0 0 0 0 0 0 0 0 0 0 0 0 0.1 0"/>
<feBlend mode="normal" in2="BackgroundImageFix" result="effect1_dropShadow"/>
<feBlend mode="normal" in="SourceGraphic" in2="effect1_dropShadow" result="shape"/>
</filter>
<filter id="filter2_d" x="1141.99" y="-44.361" width="226.87" height="236.87" filterUnits="userSpaceOnUse" color-interpolation-filters="sRGB">
<feFlood flood-opacity="0" result="BackgroundImageFix"/>
<feColorMatrix in="SourceAlpha" type="matrix" values="0 0 0 0 0 0 0 0 0 0 0 0 0 0 0 0 0 0 127 0"/>
<feOffset dy="20"/>
<feGaussianBlur stdDeviation="5"/>
<feColorMatrix type="matrix" values="0 0 0 0 0 0 0 0 0 0 0 0 0 0 0 0 0 0 0.1 0"/>
<feBlend mode="normal" in2="BackgroundImageFix" result="effect1_dropShadow"/>
<feBlend mode="normal" in="SourceGraphic" in2="effect1_dropShadow" result="shape"/>
</filter>
<filter id="filter3_d" x="2011.62" y="555.901" width="164.696" height="174.696" filterUnits="userSpaceOnUse" color-interpolation-filters="sRGB">
<feFlood flood-opacity="0" result="BackgroundImageFix"/>
<feColorMatrix in="SourceAlpha" type="matrix" values="0 0 0 0 0 0 0 0 0 0 0 0 0 0 0 0 0 0 127 0"/>
<feOffset dy="20"/>
<feGaussianBlur stdDeviation="5"/>
<feColorMatrix type="matrix" values="0 0 0 0 0 0 0 0 0 0 0 0 0 0 0 0 0 0 0.1 0"/>
<feBlend mode="normal" in2="BackgroundImageFix" result="effect1_dropShadow"/>
<feBlend mode="normal" in="SourceGraphic" in2="effect1_dropShadow" result="shape"/>
</filter>
<filter id="filter4_d" x="1699.76" y="10.8985" width="148.162" height="158.162" filterUnits="userSpaceOnUse" color-interpolation-filters="sRGB">
<feFlood flood-opacity="0" result="BackgroundImageFix"/>
<feColorMatrix in="SourceAlpha" type="matrix" values="0 0 0 0 0 0 0 0 0 0 0 0 0 0 0 0 0 0 127 0"/>
<feOffset dy="20"/>
<feGaussianBlur stdDeviation="5"/>
<feColorMatrix type="matrix" values="0 0 0 0 0 0 0 0 0 0 0 0 0 0 0 0 0 0 0.1 0"/>
<feBlend mode="normal" in2="BackgroundImageFix" result="effect1_dropShadow"/>
<feBlend mode="normal" in="SourceGraphic" in2="effect1_dropShadow" result="shape"/>
</filter>
<filter id="filter5_dd" x="1019.99" y="614.676" width="136.065" height="145.212" filterUnits="userSpaceOnUse" color-interpolation-filters="sRGB">
<feFlood flood-opacity="0" result="BackgroundImageFix"/>
<feColorMatrix in="SourceAlpha" type="matrix" values="0 0 0 0 0 0 0 0 0 0 0 0 0 0 0 0 0 0 127 0"/>
<feOffset dy="20"/>
<feGaussianBlur stdDeviation="5"/>
<feColorMatrix type="matrix" values="0 0 0 0 0 0 0 0 0 0 0 0 0 0 0 0 0 0 0.1 0"/>
<feBlend mode="normal" in2="BackgroundImageFix" result="effect1_dropShadow"/>
<feColorMatrix in="SourceAlpha" type="matrix" values="0 0 0 0 0 0 0 0 0 0 0 0 0 0 0 0 0 0 127 0"/>
<feOffset dy="20"/>
<feGaussianBlur stdDeviation="5"/>
<feColorMatrix type="matrix" values="0 0 0 0 0 0 0 0 0 0 0 0 0 0 0 0 0 0 0.1 0"/>
<feBlend mode="normal" in2="effect1_dropShadow" result="effect2_dropShadow"/>
<feBlend mode="normal" in="SourceGraphic" in2="effect2_dropShadow" result="shape"/>
</filter>
<filter id="filter6_d" x="827.73" y="273.38" width="169.005" height="179.858" filterUnits="userSpaceOnUse" color-interpolation-filters="sRGB">
<feFlood flood-opacity="0" result="BackgroundImageFix"/>
<feColorMatrix in="SourceAlpha" type="matrix" values="0 0 0 0 0 0 0 0 0 0 0 0 0 0 0 0 0 0 127 0"/>
<feOffset dy="20"/>
<feGaussianBlur stdDeviation="5"/>
<feColorMatrix type="matrix" values="0 0 0 0 0 0 0 0 0 0 0 0 0 0 0 0 0 0 0.1 0"/>
<feBlend mode="normal" in2="BackgroundImageFix" result="effect1_dropShadow"/>
<feBlend mode="normal" in="SourceGraphic" in2="effect1_dropShadow" result="shape"/>
</filter>
<clipPath id="clip0">
<rect width="3000" height="1112" fill="white"/>
</clipPath>
</defs>
</svg>
