<svg width="3000" height="1112" viewBox="0 0 3000 1112" fill="none" xmlns="http://www.w3.org/2000/svg">
<g clip-path="url(#clip0)">
<rect width="3000" height="1112" fill="white"/>
<path d="M3000 1137L-0.00433731 1137L-0.00443671 0.000151881L3000 -0.000110388L3000 1137Z" fill="#FFCE08"/>
<path fill-rule="evenodd" clip-rule="evenodd" d="M732.553 -27.9998C716.443 64.1766 708.043 159.004 708.043 255.793C708.043 568.519 795.729 860.765 947.856 1109.29L2999.63 1109.29V-28L732.553 -27.9998Z" fill="white" fill-opacity="0.2"/>
<path opacity="0.3" fill-rule="evenodd" clip-rule="evenodd" d="M1219.51 -27.9998C1196.68 62.8204 1184.56 157.891 1184.56 255.793C1184.56 593.331 1328.65 897.215 1558.68 1109.29L2999.63 1109.29L2999.63 -28L1219.51 -27.9998Z" fill="white" fill-opacity="0.35"/>
<path opacity="0.3" fill-rule="evenodd" clip-rule="evenodd" d="M1837.14 -27.9999C1786.92 67.5512 1758.5 176.355 1758.5 291.796C1758.5 671.934 2066.66 980.097 2446.8 980.097C2673.27 980.097 2874.2 870.719 2999.63 701.907L2999.63 -28L1837.14 -27.9999Z" fill="white" fill-opacity="0.35"/>
<path fill-rule="evenodd" clip-rule="evenodd" d="M1902.18 180.622C1898.82 213.755 1898.82 247.735 1902.48 282.171C1931 550.385 2171.23 744.727 2439.03 716.247C2706.84 687.767 2900.82 447.248 2872.29 179.035C2868.97 147.728 2862.75 117.428 2853.95 88.3712C2857.72 105.613 2860.59 123.236 2862.5 141.194C2890.67 406.055 2699.12 643.567 2434.66 671.692C2170.2 699.816 1932.98 507.903 1904.81 243.042C1902.58 222.033 1901.72 201.196 1902.18 180.622Z" fill="#3E00FF"/>
<path d="M1622.4 489.774C1630.83 485.029 1638.12 487.765 1643.44 489.765C1648.36 491.613 1650.87 492.419 1654.2 490.545C1657.53 488.672 1658.14 486.107 1659.12 480.944C1660.17 475.36 1661.61 467.714 1670.04 462.971C1678.47 458.228 1685.76 460.965 1691.08 462.964C1696 464.812 1698.51 465.618 1701.84 463.744C1705.17 461.867 1705.79 459.302 1706.76 454.136L1706.77 454.122C1707.82 448.543 1709.27 440.901 1717.69 436.16C1726.12 431.419 1733.41 434.154 1738.72 436.15L1738.73 436.152C1743.65 438.003 1746.16 438.806 1749.49 436.933C1752.83 435.056 1753.45 432.492 1754.42 427.324C1755.48 421.739 1756.92 414.091 1765.36 409.346C1773.79 404.601 1781.08 407.336 1786.4 409.335C1791.32 411.184 1793.84 411.986 1797.17 410.109C1798.58 409.316 1800.25 409.115 1801.81 409.551C1803.37 409.987 1804.69 411.024 1805.48 412.434C1806.27 413.844 1806.47 415.511 1806.04 417.069C1805.6 418.626 1804.56 419.947 1803.15 420.74C1794.72 425.486 1787.43 422.75 1782.11 420.755C1777.19 418.907 1774.67 418.104 1771.34 419.979C1768 421.855 1767.38 424.42 1766.41 429.588C1765.35 435.174 1763.91 442.82 1755.47 447.566C1747.05 452.306 1739.77 449.573 1734.45 447.578L1734.44 447.574C1729.52 445.722 1727.01 444.919 1723.68 446.793C1720.34 448.669 1719.72 451.232 1718.75 456.401C1717.7 461.983 1716.25 469.63 1707.82 474.375C1699.39 479.117 1692.11 476.382 1686.79 474.386L1686.78 474.383C1681.86 472.531 1679.35 471.728 1676.02 473.602C1672.69 475.475 1672.07 478.039 1671.1 483.204L1671.1 483.213C1670.05 488.794 1668.6 496.436 1660.18 501.176C1660.05 501.25 1659.91 501.323 1659.78 501.394L1659.64 501.479C1651.2 506.225 1643.91 503.49 1638.59 501.495C1633.67 499.646 1631.15 498.843 1627.82 500.718C1624.49 502.595 1623.87 505.16 1622.89 510.328C1621.83 515.913 1620.39 523.56 1611.95 528.306C1603.53 533.045 1596.25 530.313 1590.93 528.317L1590.92 528.314C1586 526.461 1583.49 525.659 1580.16 527.533C1576.82 529.408 1576.21 531.972 1575.23 537.14C1574.18 542.723 1572.73 550.369 1564.3 555.114C1555.87 559.856 1548.59 557.122 1543.27 555.125L1543.26 555.122C1538.35 553.271 1535.83 552.467 1532.5 554.341C1529.17 556.215 1528.55 558.779 1527.58 563.943L1527.58 563.952C1526.53 569.534 1525.09 577.175 1516.66 581.915C1516.53 581.99 1516.4 582.062 1516.26 582.133C1516.22 582.162 1516.17 582.191 1516.12 582.219C1507.68 586.965 1500.39 584.229 1495.08 582.234C1490.15 580.386 1487.64 579.583 1484.3 581.458C1480.97 583.335 1480.35 585.899 1479.37 591.067C1478.31 596.653 1476.87 604.299 1468.43 609.045C1460.01 613.785 1452.73 611.053 1447.41 609.057L1447.4 609.053C1442.48 607.201 1439.97 606.398 1436.64 608.272C1433.3 610.148 1432.69 612.712 1431.71 617.88C1430.66 623.462 1429.22 631.109 1420.78 635.854C1412.35 640.596 1405.07 637.861 1399.75 635.865L1399.75 635.862C1394.83 634.01 1392.32 633.207 1388.98 635.081C1385.65 636.954 1385.04 639.518 1384.07 644.683L1384.06 644.692C1383.01 650.273 1381.57 657.915 1373.14 662.655C1373.01 662.729 1372.88 662.802 1372.74 662.873L1372.6 662.958C1364.16 667.704 1356.87 664.969 1351.56 662.974C1346.63 661.125 1344.12 660.322 1340.78 662.197C1337.45 664.074 1336.83 666.639 1335.85 671.807C1334.8 677.393 1333.35 685.039 1324.92 689.785C1316.49 694.524 1309.21 691.792 1303.89 689.796L1303.88 689.793C1298.96 687.941 1296.45 687.138 1293.12 689.012C1289.79 690.887 1289.17 693.451 1288.19 698.619C1287.14 704.202 1285.7 711.848 1277.26 716.593C1268.83 721.335 1261.55 718.601 1256.24 716.604L1256.23 716.601C1251.31 714.75 1248.8 713.946 1245.47 715.82C1242.14 717.694 1241.52 720.258 1240.55 725.422L1240.54 725.431C1239.49 731.013 1238.05 738.654 1229.62 743.395C1221.19 748.138 1213.91 745.401 1208.59 743.402C1203.67 741.551 1201.16 740.748 1197.82 742.623C1196.41 743.416 1194.75 743.617 1193.19 743.18C1191.63 742.744 1190.31 741.708 1189.52 740.298C1188.72 738.888 1188.52 737.221 1188.96 735.663C1189.4 734.105 1190.43 732.785 1191.84 731.993C1200.27 727.248 1207.56 729.984 1212.88 731.983C1217.8 733.832 1220.31 734.638 1223.64 732.764C1226.97 730.891 1227.59 728.326 1228.56 723.163C1229.61 717.579 1231.05 709.933 1239.49 705.189C1247.92 700.447 1255.2 703.184 1260.52 705.182C1265.44 707.031 1267.95 707.836 1271.28 705.962C1274.62 704.086 1275.23 701.521 1276.21 696.355L1276.21 696.341C1277.26 690.761 1278.71 683.12 1287.14 678.379C1295.57 673.638 1302.85 676.372 1308.17 678.369L1308.17 678.371C1313.09 680.221 1315.61 681.025 1318.93 679.152C1322.27 677.275 1322.89 674.71 1323.87 669.543C1324.92 663.958 1326.37 656.31 1334.8 651.565C1334.94 651.489 1335.07 651.414 1335.21 651.342L1335.36 651.253C1343.79 646.508 1351.08 649.244 1356.4 651.244C1361.32 653.092 1363.83 653.898 1367.16 652.024C1370.49 650.151 1371.11 647.586 1372.08 642.423C1373.13 636.839 1374.57 629.193 1383 624.45C1391.43 619.707 1398.72 622.444 1404.04 624.443C1408.96 626.291 1411.47 627.097 1414.8 625.223C1418.14 623.346 1418.75 620.781 1419.73 615.615L1419.73 615.601C1420.78 610.022 1422.23 602.38 1430.66 597.639C1439.08 592.898 1446.37 595.633 1451.68 597.629L1451.69 597.631C1456.61 599.482 1459.12 600.285 1462.45 598.412C1465.79 596.535 1466.41 593.971 1467.39 588.803C1468.44 583.218 1469.89 575.57 1478.32 570.825C1478.46 570.749 1478.59 570.675 1478.73 570.603C1478.78 570.572 1478.83 570.542 1478.88 570.514C1487.31 565.769 1494.6 568.504 1499.92 570.504C1504.84 572.353 1507.35 573.159 1510.68 571.284C1514.01 569.412 1514.62 566.846 1515.6 561.683C1516.65 556.1 1518.09 548.454 1526.52 543.71C1534.95 538.968 1542.24 541.705 1547.56 543.703C1552.48 545.552 1554.99 546.357 1558.32 544.483C1561.65 542.607 1562.27 540.042 1563.24 534.876L1563.25 534.862C1564.3 529.282 1565.75 521.641 1574.18 516.9C1582.6 512.159 1589.89 514.893 1595.2 516.89L1595.21 516.892C1600.13 518.742 1602.64 519.546 1605.97 517.673C1609.31 515.796 1609.93 513.231 1610.9 508.063C1611.96 502.479 1613.4 494.831 1621.84 490.085C1621.97 490.01 1622.11 489.935 1622.24 489.863L1622.4 489.774Z" fill="#F9006C"/>
<g filter="url(#filter0_d)">
<path d="M2160.28 413.557L1478.33 1204.55L2221.5 437.672C2234.73 424.016 2223.65 401.283 2204.75 403.294L2173.53 406.614C2168.39 407.161 2163.65 409.643 2160.28 413.557Z" fill="white"/>
</g>
<g filter="url(#filter1_d)">
<path d="M1823.18 104.209L1953.31 133.292C1954.08 133.464 1954.87 133.509 1955.66 133.425C1963.1 132.634 1964.57 122.485 1957.65 119.652L1838.01 70.6698C1833.38 68.7742 1828.13 69.1148 1823.78 71.5925L1818.71 74.4845C1805.87 81.8004 1808.75 100.984 1823.18 104.209Z" fill="white"/>
</g>
<path d="M2816.59 584.255L2637.31 439.354C2636.64 438.818 2635.91 438.371 2635.13 438.025C2625.44 433.724 2616.82 445.803 2624.04 453.572L2765.2 605.519C2767.96 608.486 2771.72 610.318 2775.76 610.657L2805.01 613.111C2820.98 614.451 2829.06 594.328 2816.59 584.255Z" fill="white"/>
<g filter="url(#filter2_d)">
<path d="M1223.78 227.457L1264.68 245.663C1269.39 247.757 1274.9 245.641 1277 240.935C1279.09 236.229 1276.98 230.716 1272.27 228.621L1231.37 210.415C1226.66 208.32 1221.15 210.437 1219.06 215.143C1216.96 219.849 1219.08 225.362 1223.78 227.457Z" fill="#3E00FF"/>
<path d="M1138.58 189.528L1179.48 207.734C1184.18 209.828 1189.7 207.712 1191.79 203.006C1193.89 198.3 1191.77 192.787 1187.06 190.692L1146.16 172.486C1141.46 170.391 1135.94 172.508 1133.85 177.214C1131.75 181.92 1133.87 187.433 1138.58 189.528Z" fill="#3E00FF"/>
<path d="M1223.81 190.713L1242.01 149.813C1244.11 145.107 1241.99 139.594 1237.28 137.5C1232.58 135.405 1227.07 137.522 1224.97 142.228L1206.76 183.127C1204.67 187.833 1206.79 193.346 1211.49 195.441C1216.2 197.536 1221.71 195.419 1223.81 190.713Z" fill="#3E00FF"/>
<path d="M1185.88 275.921L1204.08 235.021C1206.18 230.315 1204.06 224.802 1199.35 222.708C1194.65 220.613 1189.14 222.73 1187.04 227.435L1168.84 268.335C1166.74 273.041 1168.86 278.554 1173.56 280.649C1178.27 282.744 1183.78 280.627 1185.88 275.921Z" fill="#3E00FF"/>
</g>
<g filter="url(#filter3_d)">
<path d="M2060.27 789.569L2093.49 797.691C2097.31 798.625 2101.17 796.284 2102.1 792.462C2103.04 788.639 2100.7 784.783 2096.88 783.849L2063.66 775.727C2059.83 774.793 2055.98 777.134 2055.04 780.956C2054.11 784.779 2056.45 788.635 2060.27 789.569Z" fill="white"/>
<path d="M1991.06 772.65L2024.28 780.771C2028.1 781.706 2031.96 779.365 2032.9 775.542C2033.83 771.72 2031.49 767.864 2027.67 766.929L1994.45 758.808C1990.62 757.874 1986.77 760.215 1985.83 764.037C1984.9 767.859 1987.24 771.716 1991.06 772.65Z" fill="white"/>
<path d="M2055.29 761.947L2063.41 728.726C2064.34 724.904 2062 721.048 2058.18 720.113C2054.36 719.179 2050.5 721.52 2049.57 725.342L2041.45 758.563C2040.51 762.385 2042.85 766.241 2046.68 767.176C2050.5 768.11 2054.35 765.769 2055.29 761.947Z" fill="white"/>
<path d="M2038.37 831.156L2046.49 797.936C2047.43 794.113 2045.08 790.257 2041.26 789.323C2037.44 788.388 2033.58 790.729 2032.65 794.552L2024.53 827.772C2023.59 831.595 2025.93 835.451 2029.76 836.385C2033.58 837.32 2037.43 834.979 2038.37 831.156Z" fill="white"/>
</g>
<g filter="url(#filter4_d)">
<path d="M1738.28 235.006L1767.7 242.199C1771.09 243.027 1774.51 240.953 1775.33 237.568C1776.16 234.182 1774.09 230.767 1770.7 229.939L1741.28 222.746C1737.89 221.918 1734.48 223.992 1733.65 227.377C1732.82 230.763 1734.89 234.178 1738.28 235.006Z" fill="white"/>
<path d="M1676.98 220.02L1706.4 227.213C1709.79 228.041 1713.2 225.967 1714.03 222.582C1714.86 219.196 1712.79 215.781 1709.4 214.953L1679.98 207.76C1676.59 206.932 1673.18 209.006 1672.35 212.391C1671.52 215.777 1673.59 219.192 1676.98 220.02Z" fill="white"/>
<path d="M1733.87 210.54L1741.06 181.116C1741.89 177.73 1739.81 174.315 1736.43 173.487C1733.04 172.659 1729.63 174.733 1728.8 178.118L1721.61 207.543C1720.78 210.928 1722.85 214.344 1726.24 215.171C1729.62 215.999 1733.04 213.926 1733.87 210.54Z" fill="white"/>
<path d="M1718.88 271.841L1726.07 242.416C1726.9 239.031 1724.83 235.615 1721.44 234.788C1718.06 233.96 1714.64 236.034 1713.81 239.419L1706.62 268.844C1705.79 272.229 1707.87 275.645 1711.25 276.472C1714.64 277.3 1718.05 275.226 1718.88 271.841Z" fill="white"/>
</g>
<path d="M2762.06 330.358L2788.41 336.8C2791.44 337.542 2794.5 335.685 2795.24 332.653C2795.98 329.621 2794.12 326.562 2791.09 325.821L2764.74 319.378C2761.71 318.637 2758.65 320.494 2757.91 323.526C2757.17 326.558 2759.02 329.617 2762.06 330.358Z" fill="white"/>
<path d="M2707.16 316.937L2733.51 323.379C2736.54 324.121 2739.6 322.264 2740.34 319.231C2741.08 316.199 2739.22 313.141 2736.19 312.399L2709.84 305.957C2706.81 305.216 2703.75 307.073 2703.01 310.105C2702.27 313.137 2704.12 316.196 2707.16 316.937Z" fill="white"/>
<path d="M2758.1 308.447L2764.55 282.095C2765.29 279.063 2763.43 276.004 2760.4 275.263C2757.37 274.522 2754.31 276.379 2753.57 279.411L2747.12 305.763C2746.38 308.795 2748.24 311.854 2751.27 312.595C2754.3 313.336 2757.36 311.479 2758.1 308.447Z" fill="white"/>
<path d="M2744.68 363.347L2751.12 336.995C2751.87 333.963 2750.01 330.904 2746.98 330.163C2743.94 329.422 2740.89 331.279 2740.14 334.311L2733.7 360.662C2732.96 363.694 2734.82 366.753 2737.85 367.494C2740.88 368.236 2743.94 366.379 2744.68 363.347Z" fill="white"/>
<g filter="url(#filter5_dd)">
<path fill-rule="evenodd" clip-rule="evenodd" d="M1035.06 794.422C1019.53 796.074 1008.27 809.886 1009.91 825.272C1011.54 840.659 1025.46 851.794 1040.98 850.142C1056.51 848.491 1067.77 834.679 1066.14 819.292C1064.5 803.906 1050.59 792.771 1035.06 794.422ZM1032.49 770.26C1003.49 773.343 982.467 799.134 985.522 827.865C988.578 856.597 1014.56 877.388 1043.55 874.305C1072.55 871.221 1093.58 845.43 1090.52 816.699C1087.47 787.968 1061.48 767.176 1032.49 770.26Z" fill="#3E00FF"/>
</g>
<g filter="url(#filter6_d)">
<path fill-rule="evenodd" clip-rule="evenodd" d="M738.468 342.906C719.053 344.971 704.999 362.495 707.078 382.048C709.158 401.601 726.583 415.778 745.998 413.713C765.413 411.648 779.466 394.124 777.387 374.571C775.308 355.018 757.883 340.841 738.468 342.906ZM735.025 310.537C697.859 314.489 670.957 348.036 674.937 385.466C678.918 422.896 712.274 450.034 749.44 446.082C786.606 442.129 813.508 408.583 809.528 371.153C805.547 333.723 772.191 306.584 735.025 310.537Z" fill="white"/>
</g>
</g>
<defs>
<filter id="filter0_d" x="1392.19" y="401.14" width="918.95" height="833.411" filterUnits="userSpaceOnUse" color-interpolation-filters="sRGB">
<feFlood flood-opacity="0" result="BackgroundImageFix"/>
<feColorMatrix in="SourceAlpha" type="matrix" values="0 0 0 0 0 0 0 0 0 0 0 0 0 0 0 0 0 0 127 0"/>
<feOffset dy="20"/>
<feGaussianBlur stdDeviation="5"/>
<feColorMatrix type="matrix" values="0 0 0 0 0 0 0 0 0 0 0 0 0 0 0 0 0 0 0.1 0"/>
<feBlend mode="normal" in2="BackgroundImageFix" result="effect1_dropShadow"/>
<feBlend mode="normal" in="SourceGraphic" in2="effect1_dropShadow" result="shape"/>
</filter>
<filter id="filter1_d" x="1798.68" y="56.2977" width="174.166" height="121.895" filterUnits="userSpaceOnUse" color-interpolation-filters="sRGB">
<feFlood flood-opacity="0" result="BackgroundImageFix"/>
<feColorMatrix in="SourceAlpha" type="matrix" values="0 0 0 0 0 0 0 0 0 0 0 0 0 0 0 0 0 0 127 0"/>
<feOffset dy="20"/>
<feGaussianBlur stdDeviation="5"/>
<feColorMatrix type="matrix" values="0 0 0 0 0 0 0 0 0 0 0 0 0 0 0 0 0 0 0.1 0"/>
<feBlend mode="normal" in2="BackgroundImageFix" result="effect1_dropShadow"/>
<feBlend mode="normal" in="SourceGraphic" in2="effect1_dropShadow" result="shape"/>
</filter>
<filter id="filter2_d" x="1091.99" y="105.639" width="226.87" height="236.87" filterUnits="userSpaceOnUse" color-interpolation-filters="sRGB">
<feFlood flood-opacity="0" result="BackgroundImageFix"/>
<feColorMatrix in="SourceAlpha" type="matrix" values="0 0 0 0 0 0 0 0 0 0 0 0 0 0 0 0 0 0 127 0"/>
<feOffset dy="20"/>
<feGaussianBlur stdDeviation="5"/>
<feColorMatrix type="matrix" values="0 0 0 0 0 0 0 0 0 0 0 0 0 0 0 0 0 0 0.1 0"/>
<feBlend mode="normal" in2="BackgroundImageFix" result="effect1_dropShadow"/>
<feBlend mode="normal" in="SourceGraphic" in2="effect1_dropShadow" result="shape"/>
</filter>
<filter id="filter3_d" x="1961.62" y="705.901" width="164.696" height="174.696" filterUnits="userSpaceOnUse" color-interpolation-filters="sRGB">
<feFlood flood-opacity="0" result="BackgroundImageFix"/>
<feColorMatrix in="SourceAlpha" type="matrix" values="0 0 0 0 0 0 0 0 0 0 0 0 0 0 0 0 0 0 127 0"/>
<feOffset dy="20"/>
<feGaussianBlur stdDeviation="5"/>
<feColorMatrix type="matrix" values="0 0 0 0 0 0 0 0 0 0 0 0 0 0 0 0 0 0 0.1 0"/>
<feBlend mode="normal" in2="BackgroundImageFix" result="effect1_dropShadow"/>
<feBlend mode="normal" in="SourceGraphic" in2="effect1_dropShadow" result="shape"/>
</filter>
<filter id="filter4_d" x="1649.76" y="160.899" width="148.162" height="158.162" filterUnits="userSpaceOnUse" color-interpolation-filters="sRGB">
<feFlood flood-opacity="0" result="BackgroundImageFix"/>
<feColorMatrix in="SourceAlpha" type="matrix" values="0 0 0 0 0 0 0 0 0 0 0 0 0 0 0 0 0 0 127 0"/>
<feOffset dy="20"/>
<feGaussianBlur stdDeviation="5"/>
<feColorMatrix type="matrix" values="0 0 0 0 0 0 0 0 0 0 0 0 0 0 0 0 0 0 0.1 0"/>
<feBlend mode="normal" in2="BackgroundImageFix" result="effect1_dropShadow"/>
<feBlend mode="normal" in="SourceGraphic" in2="effect1_dropShadow" result="shape"/>
</filter>
<filter id="filter5_dd" x="969.99" y="764.677" width="136.065" height="145.212" filterUnits="userSpaceOnUse" color-interpolation-filters="sRGB">
<feFlood flood-opacity="0" result="BackgroundImageFix"/>
<feColorMatrix in="SourceAlpha" type="matrix" values="0 0 0 0 0 0 0 0 0 0 0 0 0 0 0 0 0 0 127 0"/>
<feOffset dy="20"/>
<feGaussianBlur stdDeviation="5"/>
<feColorMatrix type="matrix" values="0 0 0 0 0 0 0 0 0 0 0 0 0 0 0 0 0 0 0.1 0"/>
<feBlend mode="normal" in2="BackgroundImageFix" result="effect1_dropShadow"/>
<feColorMatrix in="SourceAlpha" type="matrix" values="0 0 0 0 0 0 0 0 0 0 0 0 0 0 0 0 0 0 127 0"/>
<feOffset dy="20"/>
<feGaussianBlur stdDeviation="5"/>
<feColorMatrix type="matrix" values="0 0 0 0 0 0 0 0 0 0 0 0 0 0 0 0 0 0 0.1 0"/>
<feBlend mode="normal" in2="effect1_dropShadow" result="effect2_dropShadow"/>
<feBlend mode="normal" in="SourceGraphic" in2="effect2_dropShadow" result="shape"/>
</filter>
<filter id="filter6_d" x="657.73" y="303.38" width="169.005" height="179.858" filterUnits="userSpaceOnUse" color-interpolation-filters="sRGB">
<feFlood flood-opacity="0" result="BackgroundImageFix"/>
<feColorMatrix in="SourceAlpha" type="matrix" values="0 0 0 0 0 0 0 0 0 0 0 0 0 0 0 0 0 0 127 0"/>
<feOffset dy="20"/>
<feGaussianBlur stdDeviation="5"/>
<feColorMatrix type="matrix" values="0 0 0 0 0 0 0 0 0 0 0 0 0 0 0 0 0 0 0.1 0"/>
<feBlend mode="normal" in2="BackgroundImageFix" result="effect1_dropShadow"/>
<feBlend mode="normal" in="SourceGraphic" in2="effect1_dropShadow" result="shape"/>
</filter>
<clipPath id="clip0">
<rect width="3000" height="1112" fill="white"/>
</clipPath>
</defs>
</svg>
