<svg id="Layer_1" data-name="Layer 1" xmlns="http://www.w3.org/2000/svg" xmlns:xlink="http://www.w3.org/1999/xlink" viewBox="0 0 3000 1112"><defs><linearGradient id="linear-gradient" x1="2266.8493" y1="16.0624" x2="2266.8493" y2="261.8787" gradientUnits="userSpaceOnUse"><stop offset="0" stop-color="#f2f2f2"/><stop offset="1" stop-color="#8e2abe"/></linearGradient><linearGradient id="linear-gradient-2" x1="2625.9582" y1="161.0075" x2="2612.4012" y2="728.1443" gradientUnits="userSpaceOnUse"><stop offset="0" stop-color="#f2f2f2"/><stop offset="1" stop-color="#15003e"/></linearGradient><linearGradient id="linear-gradient-3" x1="663.653" y1="-33.4373" x2="650.0959" y2="533.6995" gradientUnits="userSpaceOnUse"><stop offset="0" stop-color="#f2f2f2"/><stop offset="1" stop-color="#0fce7c"/></linearGradient><linearGradient id="linear-gradient-4" x1="1248.1153" y1="577.1649" x2="1827.0199" y2="577.1649" gradientUnits="userSpaceOnUse"><stop offset="0" stop-color="#f2f2f2"/><stop offset="1" stop-color="#ccc"/></linearGradient><linearGradient id="linear-gradient-5" x1="727.4827" y1="114.0668" x2="367.4807" y2="117.4791" gradientUnits="userSpaceOnUse"><stop offset="0" stop-color="#f2f2f2"/><stop offset="1" stop-color="#f9006c"/></linearGradient><linearGradient id="linear-gradient-6" x1="2603.7401" y1="1008.0384" x2="2618.8131" y2="492.2074" xlink:href="#linear-gradient-3"/><linearGradient id="linear-gradient-7" x1="218.2589" y1="185.0639" x2="586.7109" y2="185.0639" gradientUnits="userSpaceOnUse"><stop offset="0" stop-color="#f2f2f2"/><stop offset="1" stop-color="#3e00ff"/></linearGradient><linearGradient id="linear-gradient-8" x1="6696.915" y1="3868.576" x2="6696.915" y2="4017.2464" gradientTransform="translate(-5148.3694 -3438.5393)" gradientUnits="userSpaceOnUse"><stop offset="0" stop-color="#f2f2f2"/><stop offset="1" stop-color="#25e899"/></linearGradient><linearGradient id="linear-gradient-9" x1="6337.4556" y1="2635.766" x2="6337.4556" y2="2784.4363" gradientTransform="translate(-3556.0998 -2565.1887)" gradientUnits="userSpaceOnUse"><stop offset="0" stop-color="#f2f2f2"/><stop offset="1" stop-color="#ffce08"/></linearGradient><linearGradient id="linear-gradient-10" x1="7225.5707" y1="4834.8545" x2="7225.5707" y2="5312.6627" gradientTransform="translate(-6756.1299 -3988.9886)" xlink:href="#linear-gradient-9"/><linearGradient id="linear-gradient-11" x1="8786.1971" y1="-667.8601" x2="8786.1971" y2="-519.1703" gradientTransform="translate(-7912.631 1397.879)" xlink:href="#linear-gradient"/><linearGradient id="linear-gradient-12" x1="7715.5917" y1="-440.9636" x2="7715.5917" y2="-100.0347" gradientTransform="translate(-5771.4202 812.2893)" xlink:href="#linear-gradient-7"/><radialGradient id="radial-gradient" cx="1638.1226" cy="421.6095" r="501.2296" gradientTransform="translate(0.4755)" gradientUnits="userSpaceOnUse"><stop offset="0.0593" stop-color="#1c1d53"/><stop offset="0.8889" stop-color="#007ab1"/></radialGradient><radialGradient id="radial-gradient-2" cx="1638.1247" cy="421.6092" r="501.2288" xlink:href="#radial-gradient"/><radialGradient id="radial-gradient-3" cx="1638.1224" cy="421.6103" r="501.2309" xlink:href="#radial-gradient"/><radialGradient id="radial-gradient-4" cx="1638.1232" cy="421.6095" r="501.2316" xlink:href="#radial-gradient"/><radialGradient id="radial-gradient-5" cx="1638.1208" cy="421.6049" r="501.2227" xlink:href="#radial-gradient"/><radialGradient id="radial-gradient-6" cx="1426.7058" cy="170.7505" r="39.3343" xlink:href="#radial-gradient"/><radialGradient id="radial-gradient-7" cx="1802.4905" cy="41.2756" r="17.0879" xlink:href="#radial-gradient"/><radialGradient id="radial-gradient-8" cx="2632.4811" cy="999.874" r="501.2296" xlink:href="#radial-gradient"/><radialGradient id="radial-gradient-9" cx="2632.4809" cy="999.8749" r="501.2296" xlink:href="#radial-gradient"/><radialGradient id="radial-gradient-10" cx="2632.4823" cy="999.8738" r="501.2295" xlink:href="#radial-gradient"/><radialGradient id="radial-gradient-11" cx="2632.4809" cy="999.8748" r="501.2309" xlink:href="#radial-gradient"/><radialGradient id="radial-gradient-12" cx="2632.4817" cy="999.874" r="501.2316" xlink:href="#radial-gradient"/><radialGradient id="radial-gradient-13" cx="2632.4793" cy="999.8754" r="501.2299" xlink:href="#radial-gradient"/><radialGradient id="radial-gradient-14" cx="2421.0643" cy="749.015" r="39.3343" xlink:href="#radial-gradient"/><linearGradient id="linear-gradient-13" x1="2768.093" y1="603.4084" x2="2854.0809" y2="603.4084" gradientTransform="translate(0.4755)" gradientUnits="userSpaceOnUse"><stop offset="0" stop-color="#ffcd2d"/><stop offset="1" stop-color="#4753a3"/></linearGradient><radialGradient id="radial-gradient-15" cx="2132.5945" cy="930.4824" r="363.6893" xlink:href="#radial-gradient"/><radialGradient id="radial-gradient-16" cx="2132.5943" cy="930.4859" r="363.6917" xlink:href="#radial-gradient"/><radialGradient id="radial-gradient-17" cx="2132.5967" cy="930.4842" r="363.6898" xlink:href="#radial-gradient"/><radialGradient id="radial-gradient-18" cx="2132.5939" cy="930.4845" r="363.6926" xlink:href="#radial-gradient"/><radialGradient id="radial-gradient-19" cx="2132.5924" cy="930.483" r="363.6848" xlink:href="#radial-gradient"/><radialGradient id="radial-gradient-20" cx="2132.5944" cy="930.4838" r="363.6899" xlink:href="#radial-gradient"/><radialGradient id="radial-gradient-21" cx="1979.1922" cy="748.4611" r="28.5408" xlink:href="#radial-gradient"/><radialGradient id="radial-gradient-22" cx="2262.1901" cy="642.8098" r="29.2712" xlink:href="#radial-gradient"/><radialGradient id="radial-gradient-23" cx="7811.7367" cy="-3762.3725" r="363.6899" gradientTransform="matrix(-0.707, -0.7071, 0.707, -0.7071, 10451.3772, 2902.3069)" xlink:href="#radial-gradient"/><radialGradient id="radial-gradient-24" cx="7811.7355" cy="-3762.3657" r="363.6975" gradientTransform="matrix(-0.707, -0.7071, 0.707, -0.7071, 10451.3772, 2902.3069)" xlink:href="#radial-gradient"/><radialGradient id="radial-gradient-25" cx="7811.7347" cy="-3762.372" r="363.6935" gradientTransform="matrix(-0.707, -0.7071, 0.707, -0.7071, 10451.3772, 2902.3069)" xlink:href="#radial-gradient"/><radialGradient id="radial-gradient-26" cx="7811.7366" cy="-3762.371" r="363.6923" gradientTransform="matrix(-0.707, -0.7071, 0.707, -0.7071, 10451.3772, 2902.3069)" xlink:href="#radial-gradient"/><radialGradient id="radial-gradient-27" cx="7811.7392" cy="-3762.3704" r="363.699" gradientTransform="matrix(-0.707, -0.7071, 0.707, -0.7071, 10451.3772, 2902.3069)" xlink:href="#radial-gradient"/><radialGradient id="radial-gradient-28" cx="7811.7368" cy="-3762.3705" r="363.6927" gradientTransform="matrix(-0.707, -0.7071, 0.707, -0.7071, 10451.3772, 2902.3069)" xlink:href="#radial-gradient"/><radialGradient id="radial-gradient-29" cx="7658.2263" cy="-3944.442" r="28.5408" gradientTransform="matrix(-0.707, -0.7071, 0.707, -0.7071, 10451.4173, 2902.2243)" xlink:href="#radial-gradient"/><radialGradient id="radial-gradient-30" cx="7941.2242" cy="-4050.0933" r="29.2712" gradientTransform="matrix(-0.707, -0.7071, 0.707, -0.7071, 10451.4173, 2902.2243)" xlink:href="#radial-gradient"/><radialGradient id="radial-gradient-31" cx="7735.7043" cy="-3467.485" r="501.2367" gradientTransform="matrix(-0.707, -0.7071, 0.707, -0.7071, 10785.2615, 3071.474)" xlink:href="#radial-gradient"/><radialGradient id="radial-gradient-32" cx="7735.7055" cy="-3467.4901" r="501.229" gradientTransform="matrix(-0.707, -0.7071, 0.707, -0.7071, 10785.2615, 3071.474)" xlink:href="#radial-gradient"/><radialGradient id="radial-gradient-33" cx="7735.7044" cy="-3467.4857" r="501.236" gradientTransform="matrix(-0.707, -0.7071, 0.707, -0.7071, 10785.2615, 3071.474)" xlink:href="#radial-gradient"/><radialGradient id="radial-gradient-34" cx="7735.7044" cy="-3467.4848" r="501.2365" gradientTransform="matrix(-0.707, -0.7071, 0.707, -0.7071, 10785.2615, 3071.474)" xlink:href="#radial-gradient"/><radialGradient id="radial-gradient-35" cx="7735.7058" cy="-3467.4859" r="501.2372" gradientTransform="matrix(-0.707, -0.7071, 0.707, -0.7071, 10785.2615, 3071.474)" xlink:href="#radial-gradient"/><radialGradient id="radial-gradient-36" cx="7735.7033" cy="-3467.4909" r="501.2274" gradientTransform="matrix(-0.707, -0.7071, 0.707, -0.7071, 10785.2615, 3071.474)" xlink:href="#radial-gradient"/><radialGradient id="radial-gradient-37" cx="7524.1814" cy="-3718.3972" r="39.3343" gradientTransform="matrix(-0.707, -0.7071, 0.707, -0.7071, 10785.3015, 3071.3914)" xlink:href="#radial-gradient"/><radialGradient id="radial-gradient-38" cx="7914.2039" cy="-3864.004" r="40.341" gradientTransform="matrix(-0.707, -0.7071, 0.707, -0.7071, 10785.3015, 3071.3914)" xlink:href="#radial-gradient"/><radialGradient id="radial-gradient-39" cx="8110.7938" cy="-4593.9847" r="501.2359" gradientTransform="matrix(-0.707, -0.7071, 0.707, -0.7071, 10785.2615, 3071.474)" xlink:href="#radial-gradient"/><radialGradient id="radial-gradient-40" cx="8110.7945" cy="-4593.9826" r="501.2352" gradientTransform="matrix(-0.707, -0.7071, 0.707, -0.7071, 10785.2615, 3071.474)" xlink:href="#radial-gradient"/><radialGradient id="radial-gradient-41" cx="8110.7944" cy="-4593.9798" r="501.2399" gradientTransform="matrix(-0.707, -0.7071, 0.707, -0.7071, 10785.2615, 3071.474)" xlink:href="#radial-gradient"/><radialGradient id="radial-gradient-42" cx="8110.7944" cy="-4593.9831" r="501.2365" gradientTransform="matrix(-0.707, -0.7071, 0.707, -0.7071, 10785.2615, 3071.474)" xlink:href="#radial-gradient"/><radialGradient id="radial-gradient-43" cx="8110.7958" cy="-4593.9842" r="501.2372" gradientTransform="matrix(-0.707, -0.7071, 0.707, -0.7071, 10785.2615, 3071.474)" xlink:href="#radial-gradient"/><radialGradient id="radial-gradient-44" cx="8110.7952" cy="-4593.9841" r="501.2345" gradientTransform="matrix(-0.707, -0.7071, 0.707, -0.7071, 10785.2615, 3071.474)" xlink:href="#radial-gradient"/><radialGradient id="radial-gradient-45" cx="7899.2675" cy="-4844.8844" r="39.3343" gradientTransform="matrix(-0.707, -0.7071, 0.707, -0.7071, 10785.3015, 3071.3914)" xlink:href="#radial-gradient"/><radialGradient id="radial-gradient-46" cx="8289.2902" cy="-4990.491" r="40.3411" gradientTransform="matrix(-0.707, -0.7071, 0.707, -0.7071, 10785.3015, 3071.3914)" xlink:href="#radial-gradient"/><radialGradient id="radial-gradient-47" cx="2478.0797" cy="672.2815" r="6.4117" gradientTransform="translate(0.4755)" gradientUnits="userSpaceOnUse"><stop offset="0.0593" stop-color="#f27f99"/><stop offset="0.5259" stop-color="#ed4296"/><stop offset="0.9926" stop-color="#d01c5b"/></radialGradient><radialGradient id="radial-gradient-48" cx="2497.7725" cy="1038.1016" r="6.2065" xlink:href="#radial-gradient-47"/><radialGradient id="radial-gradient-49" cx="2354.8542" cy="877.8369" r="6.2064" xlink:href="#radial-gradient-47"/><radialGradient id="radial-gradient-50" cx="2460.5587" cy="813.4944" r="6.2065" xlink:href="#radial-gradient-47"/><radialGradient id="radial-gradient-51" cx="2893.2615" cy="716.3435" r="6.2064" xlink:href="#radial-gradient-47"/><radialGradient id="radial-gradient-52" cx="2754.1413" cy="979.8265" r="6.2064" xlink:href="#radial-gradient-47"/><radialGradient id="radial-gradient-53" cx="2828.8265" cy="890.0769" r="39.0219" xlink:href="#radial-gradient-47"/><radialGradient id="radial-gradient-54" cx="2403.127" cy="950.2571" r="39.1711" xlink:href="#radial-gradient-47"/><radialGradient id="radial-gradient-55" cx="1665.1897" cy="244.4114" r="6.2065" xlink:href="#radial-gradient-47"/><radialGradient id="radial-gradient-56" cx="1522.2713" cy="84.1467" r="6.2063" xlink:href="#radial-gradient-47"/><radialGradient id="radial-gradient-57" cx="1627.9758" cy="19.8042" r="6.2065" xlink:href="#radial-gradient-47"/><radialGradient id="radial-gradient-58" cx="1921.5585" cy="186.1362" r="6.2064" xlink:href="#radial-gradient-47"/><radialGradient id="radial-gradient-59" cx="1996.2436" cy="96.3867" r="39.0218" xlink:href="#radial-gradient-47"/><radialGradient id="radial-gradient-60" cx="1570.5441" cy="156.5668" r="39.1711" xlink:href="#radial-gradient-47"/><radialGradient id="radial-gradient-61" cx="2169.6603" cy="43.4508" r="4.6523" xlink:href="#radial-gradient-47"/><radialGradient id="radial-gradient-62" cx="2183.9493" cy="308.8876" r="4.5034" xlink:href="#radial-gradient-47"/><radialGradient id="radial-gradient-63" cx="2080.2485" cy="192.6005" r="4.5033" xlink:href="#radial-gradient-47"/><radialGradient id="radial-gradient-64" cx="2156.9471" cy="145.914" r="4.5034" xlink:href="#radial-gradient-47"/><radialGradient id="radial-gradient-65" cx="2470.9136" cy="75.422" r="4.5034" xlink:href="#radial-gradient-47"/><radialGradient id="radial-gradient-66" cx="2369.969" cy="266.6035" r="4.5033" xlink:href="#radial-gradient-47"/><radialGradient id="radial-gradient-67" cx="2424.16" cy="201.4818" r="28.314" xlink:href="#radial-gradient-47"/><radialGradient id="radial-gradient-68" cx="2115.275" cy="245.1481" r="28.4223" xlink:href="#radial-gradient-47"/><radialGradient id="radial-gradient-69" cx="2110.0791" cy="894.8246" r="4.6519" xlink:href="#radial-gradient-47"/><radialGradient id="radial-gradient-70" cx="2287.6674" cy="697.0285" r="3.9459" xlink:href="#radial-gradient-47"/><radialGradient id="radial-gradient-71" cx="2278.7675" cy="852.5834" r="3.9459" xlink:href="#radial-gradient-47"/><radialGradient id="radial-gradient-72" cx="2191.5211" cy="831.3616" r="3.9459" xlink:href="#radial-gradient-47"/><radialGradient id="radial-gradient-73" cx="1919.6679" cy="659.1994" r="3.9459" xlink:href="#radial-gradient-47"/><radialGradient id="radial-gradient-74" cx="2126.2322" cy="595.3924" r="3.9459" xlink:href="#radial-gradient-47"/><radialGradient id="radial-gradient-75" cx="2045.9529" cy="613.7463" r="30.6806" xlink:href="#radial-gradient-47"/><radialGradient id="radial-gradient-76" cx="2289.8093" cy="778.2955" r="30.4347" xlink:href="#radial-gradient-47"/><radialGradient id="radial-gradient-77" cx="1585.221" cy="767.0376" r="6.4111" xlink:href="#radial-gradient-47"/><radialGradient id="radial-gradient-78" cx="1829.97" cy="494.4388" r="5.4382" xlink:href="#radial-gradient-47"/><radialGradient id="radial-gradient-79" cx="1817.7042" cy="708.8216" r="5.4381" xlink:href="#radial-gradient-47"/><radialGradient id="radial-gradient-80" cx="1697.4628" cy="679.5743" r="5.4382" xlink:href="#radial-gradient-47"/><radialGradient id="radial-gradient-81" cx="1322.7997" cy="442.3032" r="5.4383" xlink:href="#radial-gradient-47"/><radialGradient id="radial-gradient-82" cx="1607.4831" cy="354.3655" r="5.4382" xlink:href="#radial-gradient-47"/><radialGradient id="radial-gradient-83" cx="1496.8435" cy="379.6605" r="42.2834" xlink:href="#radial-gradient-47"/><linearGradient id="linear-gradient-14" x1="1784.6402" y1="606.4394" x2="1881.2034" y2="606.4394" xlink:href="#linear-gradient-13"/><radialGradient id="radial-gradient-84" cx="2741.4569" cy="497.2558" r="6.4111" xlink:href="#radial-gradient-47"/><radialGradient id="radial-gradient-85" cx="2986.2058" cy="224.657" r="5.4382" xlink:href="#radial-gradient-47"/><radialGradient id="radial-gradient-86" cx="2973.9401" cy="439.0398" r="5.4381" xlink:href="#radial-gradient-47"/><radialGradient id="radial-gradient-87" cx="2853.6988" cy="409.7924" r="5.4382" xlink:href="#radial-gradient-47"/><radialGradient id="radial-gradient-88" cx="2479.0356" cy="172.5213" r="5.4382" xlink:href="#radial-gradient-47"/><radialGradient id="radial-gradient-89" cx="2763.7189" cy="84.5837" r="5.4382" xlink:href="#radial-gradient-47"/><radialGradient id="radial-gradient-90" cx="2653.0793" cy="109.8787" r="42.2834" xlink:href="#radial-gradient-47"/><radialGradient id="radial-gradient-91" cx="2967.0555" cy="328.4882" r="26.2357" xlink:href="#radial-gradient-47"/><radialGradient id="radial-gradient-92" cx="-74.8689" cy="483.1457" r="501.2296" xlink:href="#radial-gradient"/><radialGradient id="radial-gradient-93" cx="-74.8669" cy="483.1454" r="501.2288" xlink:href="#radial-gradient"/><radialGradient id="radial-gradient-94" cx="-74.8691" cy="483.1464" r="501.2309" xlink:href="#radial-gradient"/><radialGradient id="radial-gradient-95" cx="80.7635" cy="90.5167" r="27.6957" xlink:href="#radial-gradient"/><radialGradient id="radial-gradient-96" cx="919.4895" cy="1061.4102" r="501.2296" xlink:href="#radial-gradient"/><radialGradient id="radial-gradient-97" cx="919.4894" cy="1061.4111" r="501.2296" xlink:href="#radial-gradient"/><radialGradient id="radial-gradient-98" cx="919.4907" cy="1061.4099" r="501.2295" xlink:href="#radial-gradient"/><radialGradient id="radial-gradient-99" cx="919.4894" cy="1061.4109" r="501.2309" xlink:href="#radial-gradient"/><radialGradient id="radial-gradient-100" cx="919.4901" cy="1061.4102" r="501.2316" xlink:href="#radial-gradient"/><radialGradient id="radial-gradient-101" cx="919.4877" cy="1061.4115" r="501.2299" xlink:href="#radial-gradient"/><radialGradient id="radial-gradient-102" cx="708.0727" cy="810.5512" r="39.3343" xlink:href="#radial-gradient"/><radialGradient id="radial-gradient-103" cx="1098.0954" cy="664.9445" r="40.3411" xlink:href="#radial-gradient"/><radialGradient id="radial-gradient-104" cx="419.6029" cy="992.0185" r="363.6893" xlink:href="#radial-gradient"/><radialGradient id="radial-gradient-105" cx="419.6028" cy="992.022" r="363.6917" xlink:href="#radial-gradient"/><radialGradient id="radial-gradient-106" cx="419.6052" cy="992.0204" r="363.6898" xlink:href="#radial-gradient"/><radialGradient id="radial-gradient-107" cx="419.6023" cy="992.0207" r="363.6926" xlink:href="#radial-gradient"/><radialGradient id="radial-gradient-108" cx="419.6008" cy="992.0191" r="363.6848" xlink:href="#radial-gradient"/><radialGradient id="radial-gradient-109" cx="419.6028" cy="992.02" r="363.6899" xlink:href="#radial-gradient"/><radialGradient id="radial-gradient-110" cx="266.2006" cy="809.9973" r="28.5408" xlink:href="#radial-gradient"/><radialGradient id="radial-gradient-111" cx="549.1986" cy="704.3459" r="29.2712" xlink:href="#radial-gradient"/><radialGradient id="radial-gradient-112" cx="8979.5032" cy="-5017.1651" r="363.6899" gradientTransform="matrix(-0.707, -0.7071, 0.707, -0.7071, 10451.3772, 2902.3069)" xlink:href="#radial-gradient"/><radialGradient id="radial-gradient-113" cx="8979.502" cy="-5017.1583" r="363.6975" gradientTransform="matrix(-0.707, -0.7071, 0.707, -0.7071, 10451.3772, 2902.3069)" xlink:href="#radial-gradient"/><radialGradient id="radial-gradient-114" cx="8979.5012" cy="-5017.1646" r="363.6935" gradientTransform="matrix(-0.707, -0.7071, 0.707, -0.7071, 10451.3772, 2902.3069)" xlink:href="#radial-gradient"/><radialGradient id="radial-gradient-115" cx="8979.5031" cy="-5017.1636" r="363.6923" gradientTransform="matrix(-0.707, -0.7071, 0.707, -0.7071, 10451.3772, 2902.3069)" xlink:href="#radial-gradient"/><radialGradient id="radial-gradient-116" cx="8979.5057" cy="-5017.163" r="363.699" gradientTransform="matrix(-0.707, -0.7071, 0.707, -0.7071, 10451.3772, 2902.3069)" xlink:href="#radial-gradient"/><radialGradient id="radial-gradient-117" cx="8979.5034" cy="-5017.1631" r="363.6927" gradientTransform="matrix(-0.707, -0.7071, 0.707, -0.7071, 10451.3772, 2902.3069)" xlink:href="#radial-gradient"/><linearGradient id="linear-gradient-15" x1="8794.5136" y1="-5199.2222" x2="8857.4488" y2="-5199.2222" gradientTransform="matrix(-0.707, -0.7071, 0.707, -0.7071, 10451.4173, 2902.2243)" gradientUnits="userSpaceOnUse"><stop offset="0" stop-color="#ccc"/><stop offset="1" stop-color="#0e2947"/></linearGradient><radialGradient id="radial-gradient-118" cx="9108.9791" cy="-5304.8735" r="29.2712" gradientTransform="matrix(-0.707, -0.7071, 0.707, -0.7071, 10451.4173, 2902.2243)" xlink:href="#radial-gradient"/><radialGradient id="radial-gradient-119" cx="8903.4708" cy="-4722.2776" r="501.2367" gradientTransform="matrix(-0.707, -0.7071, 0.707, -0.7071, 10785.2615, 3071.474)" xlink:href="#radial-gradient"/><radialGradient id="radial-gradient-120" cx="8903.472" cy="-4722.2826" r="501.229" gradientTransform="matrix(-0.707, -0.7071, 0.707, -0.7071, 10785.2615, 3071.474)" xlink:href="#radial-gradient"/><radialGradient id="radial-gradient-121" cx="8903.4709" cy="-4722.2783" r="501.236" gradientTransform="matrix(-0.707, -0.7071, 0.707, -0.7071, 10785.2615, 3071.474)" xlink:href="#radial-gradient"/><radialGradient id="radial-gradient-122" cx="8903.4709" cy="-4722.2774" r="501.2365" gradientTransform="matrix(-0.707, -0.7071, 0.707, -0.7071, 10785.2615, 3071.474)" xlink:href="#radial-gradient"/><radialGradient id="radial-gradient-123" cx="8903.4723" cy="-4722.2785" r="501.2372" gradientTransform="matrix(-0.707, -0.7071, 0.707, -0.7071, 10785.2615, 3071.474)" xlink:href="#radial-gradient"/><radialGradient id="radial-gradient-124" cx="8903.4698" cy="-4722.2835" r="501.2274" gradientTransform="matrix(-0.707, -0.7071, 0.707, -0.7071, 10785.2615, 3071.474)" xlink:href="#radial-gradient"/><radialGradient id="radial-gradient-125" cx="8691.9364" cy="-4973.1774" r="39.3343" gradientTransform="matrix(-0.707, -0.7071, 0.707, -0.7071, 10785.3015, 3071.3914)" xlink:href="#radial-gradient"/><radialGradient id="radial-gradient-126" cx="9081.9589" cy="-5118.7841" r="40.341" gradientTransform="matrix(-0.707, -0.7071, 0.707, -0.7071, 10785.3015, 3071.3914)" xlink:href="#radial-gradient"/><radialGradient id="radial-gradient-127" cx="9278.5623" cy="-5848.7768" r="501.2372" gradientTransform="matrix(-0.707, -0.7071, 0.707, -0.7071, 10785.2615, 3071.474)" xlink:href="#radial-gradient"/><radialGradient id="radial-gradient-128" cx="9067.0225" cy="-6099.6646" r="39.3343" gradientTransform="matrix(-0.707, -0.7071, 0.707, -0.7071, 10785.3015, 3071.3914)" xlink:href="#radial-gradient"/><radialGradient id="radial-gradient-129" cx="765.0881" cy="733.8176" r="6.4117" xlink:href="#radial-gradient-47"/><radialGradient id="radial-gradient-130" cx="784.781" cy="1099.6378" r="6.2065" xlink:href="#radial-gradient-47"/><radialGradient id="radial-gradient-131" cx="641.8626" cy="939.373" r="6.2064" xlink:href="#radial-gradient-47"/><radialGradient id="radial-gradient-132" cx="747.5671" cy="875.0305" r="6.2065" xlink:href="#radial-gradient-47"/><radialGradient id="radial-gradient-133" cx="1180.27" cy="777.8796" r="6.2064" xlink:href="#radial-gradient-47"/><radialGradient id="radial-gradient-134" cx="1041.1498" cy="1041.3627" r="6.2064" xlink:href="#radial-gradient-47"/><radialGradient id="radial-gradient-135" cx="1115.835" cy="951.6131" r="39.0219" xlink:href="#radial-gradient-47"/><radialGradient id="radial-gradient-136" cx="690.1355" cy="1011.7932" r="39.1711" xlink:href="#radial-gradient-47"/><radialGradient id="radial-gradient-137" cx="208.5669" cy="247.6724" r="6.2064" xlink:href="#radial-gradient-47"/><radialGradient id="radial-gradient-138" cx="283.2521" cy="157.9229" r="39.0218" xlink:href="#radial-gradient-47"/><radialGradient id="radial-gradient-139" cx="456.6688" cy="104.9869" r="4.6523" xlink:href="#radial-gradient-47"/><radialGradient id="radial-gradient-140" cx="470.9578" cy="370.4237" r="4.5034" xlink:href="#radial-gradient-47"/><radialGradient id="radial-gradient-141" cx="367.257" cy="254.1366" r="4.5033" xlink:href="#radial-gradient-47"/><radialGradient id="radial-gradient-142" cx="443.9556" cy="207.4502" r="4.5034" xlink:href="#radial-gradient-47"/><radialGradient id="radial-gradient-143" cx="757.9221" cy="136.9581" r="4.5034" xlink:href="#radial-gradient-47"/><radialGradient id="radial-gradient-144" cx="656.9774" cy="328.1396" r="4.5033" xlink:href="#radial-gradient-47"/><radialGradient id="radial-gradient-145" cx="711.1684" cy="263.0179" r="28.314" xlink:href="#radial-gradient-47"/><linearGradient id="linear-gradient-16" x1="370.8078" y1="306.6842" x2="433.7592" y2="306.6842" gradientTransform="translate(0.4755)" gradientUnits="userSpaceOnUse"><stop offset="0" stop-color="#fccf0e"/><stop offset="1" stop-color="#4753a3"/></linearGradient><radialGradient id="radial-gradient-146" cx="397.0876" cy="956.3608" r="4.6519" xlink:href="#radial-gradient-47"/><radialGradient id="radial-gradient-147" cx="574.6759" cy="758.5647" r="3.9459" xlink:href="#radial-gradient-47"/><radialGradient id="radial-gradient-148" cx="565.7759" cy="914.1196" r="3.9459" xlink:href="#radial-gradient-47"/><radialGradient id="radial-gradient-149" cx="478.5296" cy="892.8978" r="3.9459" xlink:href="#radial-gradient-47"/><radialGradient id="radial-gradient-150" cx="206.6763" cy="720.7355" r="3.9459" xlink:href="#radial-gradient-47"/><radialGradient id="radial-gradient-151" cx="413.2407" cy="656.9285" r="3.9459" xlink:href="#radial-gradient-47"/><radialGradient id="radial-gradient-152" cx="332.9614" cy="675.2824" r="30.6806" xlink:href="#radial-gradient-47"/><radialGradient id="radial-gradient-153" cx="576.8177" cy="839.8317" r="30.4347" xlink:href="#radial-gradient-47"/><radialGradient id="radial-gradient-154" cx="116.9784" cy="555.975" r="5.4382" xlink:href="#radial-gradient-47"/><radialGradient id="radial-gradient-155" cx="104.7127" cy="770.3578" r="5.4381" xlink:href="#radial-gradient-47"/><radialGradient id="radial-gradient-156" cx="119.9302" cy="667.9755" r="41.9445" xlink:href="#radial-gradient-47"/><radialGradient id="radial-gradient-157" cx="1028.4654" cy="558.792" r="6.4111" xlink:href="#radial-gradient-47"/><radialGradient id="radial-gradient-158" cx="1273.2143" cy="286.1931" r="5.4382" xlink:href="#radial-gradient-47"/><radialGradient id="radial-gradient-159" cx="1260.9485" cy="500.5759" r="5.4381" xlink:href="#radial-gradient-47"/><radialGradient id="radial-gradient-160" cx="1140.7072" cy="471.3286" r="5.4382" xlink:href="#radial-gradient-47"/><radialGradient id="radial-gradient-161" cx="766.0441" cy="234.0575" r="5.4382" xlink:href="#radial-gradient-47"/><radialGradient id="radial-gradient-162" cx="1050.7274" cy="146.1198" r="5.4382" xlink:href="#radial-gradient-47"/><radialGradient id="radial-gradient-163" cx="940.0878" cy="171.4148" r="42.2834" xlink:href="#radial-gradient-47"/><radialGradient id="radial-gradient-164" cx="1276.1662" cy="398.1937" r="41.9445" xlink:href="#radial-gradient-47"/></defs><title>barnner1</title><g id="h5"><rect x="0.2474" width="2999.6093" height="1112" fill="#f2f2f2"/><rect x="2238.614" y="4" width="56.4706" height="229.1699" fill="url(#linear-gradient)"/><path d="M2818.88,643c0,112.76-91.728,204.5-204.4733,204.5S2409.9335,755.76,2409.9335,643h56.9926c0,81.33,66.1613,147.5,147.4808,147.5s147.4807-66.17,147.4807-147.5V198.01H2818.36V643Z" fill="url(#linear-gradient-2)"/><path d="M856.575,448.5552c0,112.76-91.7281,204.5-204.4734,204.5s-204.4734-91.74-204.4734-204.5h56.9926c0,81.33,66.1613,147.5,147.4808,147.5s147.4808-66.17,147.4808-147.5V3.5652H856.055v444.99Z" fill="url(#linear-gradient-3)"/><path d="M1827.02,519.66q0,8.82-.52,17.56V924.16h-56.4727V519.66c0-128.19-104.2864-232.49-232.46-232.49-128.1832,0-232.46,104.3-232.46,232.49a233.3618,233.3618,0,0,0,1.68,28.01h-57.3425q-1.32-13.875-1.33-28.01a289.4523,289.4523,0,1,1,578.9046,0Z" fill="url(#linear-gradient-4)"/><path d="M708.6451,0V68.23c0,1.52-.02,3.03-.06,4.54A164.9246,164.9246,0,0,1,378.798,68.23q0-5.025.3-10.01V0h32.1758V68.23c0,73.04,59.4223,132.46,132.4528,132.46S676.1693,141.27,676.1693,68.23c0-2.21.16-4.42.3-6.61a51.2389,51.2389,0,0,0,0-9.35V0Z" fill="url(#linear-gradient-5)"/><path d="M2245.9548,643a368.6315,368.6315,0,1,1,368.4521,368.5v-57c171.7393,0,311.4594-139.7383,311.4594-311.5s-139.72-311.5-311.4594-311.5S2302.9474,471.2383,2302.9474,643Z" fill="url(#linear-gradient-6)"/><path d="M275.2515.8139c0,171.7617,139.72,311.5,311.4594,311.5v57a366.1217,366.1217,0,0,1-143.4266-28.9707,367.1671,367.1671,0,0,1-117.1083-78.96,367.2476,367.2476,0,0,1-78.9506-117.1241A366.26,366.26,0,0,1,218.2589.8139Z" fill="url(#linear-gradient-7)"/><rect x="1520.3067" y="365.93" width="56.478" height="230.1399" transform="translate(2029.5457 -1067.5457) rotate(90)" fill="url(#linear-gradient-8)"/><rect x="2753.1167" y="6.4706" width="56.478" height="230.1399" transform="translate(2902.8963 -2659.8152) rotate(90)" fill="url(#linear-gradient-9)"/><rect x="441.2018" y="639.835" width="56.478" height="739.6413" transform="translate(1479.0964 540.2149) rotate(90)" fill="url(#linear-gradient-10)"/><rect x="845.3308" y="665.9039" width="56.4706" height="230.1699" transform="translate(1747.1322 1561.9776) rotate(180)" fill="url(#linear-gradient-11)"/><rect x="1915.9362" y="224.3171" width="56.4706" height="527.7538" transform="translate(3888.343 976.388) rotate(180)" fill="url(#linear-gradient-12)"/><g opacity="0.32"><path d="M1452.4927,271.8353s2.5657,5.9316,4.0623,7.4284,7.4271,4.0625,7.4271,4.0625-5.9308,2.566-7.4271,4.0626-4.0623,7.4283-4.0623,7.4283-2.5656-5.9315-4.062-7.4283-7.4274-4.0626-7.4274-4.0626,5.9308-2.566,7.4274-4.0625S1452.4927,271.8353,1452.4927,271.8353Z" fill="#fff"/><path d="M1484.4227,2.3121s2.5655,5.9316,4.0621,7.4284,7.4271,4.0625,7.4271,4.0625-5.9305,2.566-7.4271,4.0628-4.0621,7.4281-4.0621,7.4281-2.5656-5.9315-4.0622-7.4281-7.4272-4.0628-7.4272-4.0628,5.9306-2.5657,7.4272-4.0625S1484.4227,2.3121,1484.4227,2.3121Z" fill="#fff" opacity="0.5"/><path d="M1831.7735,230.533s2.5656,5.9316,4.062,7.4281,7.4274,4.0628,7.4274,4.0628-5.9308,2.5658-7.4274,4.0626-4.062,7.4283-4.062,7.4283-2.5657-5.9316-4.0623-7.4283-7.4271-4.0626-7.4271-4.0626,5.9308-2.566,7.4271-4.0628S1831.7735,230.533,1831.7735,230.533Z" fill="#fff"/><path d="M1858.6405,101.9462s4.2769,9.8879,6.7716,12.383,12.381,6.7722,12.381,6.7722-9.8863,4.2775-12.381,6.7722-6.7716,12.383-6.7716,12.383-4.2767-9.8879-6.7714-12.383-12.381-6.7722-12.381-6.7722,9.8863-4.2775,12.381-6.7722S1858.6405,101.9462,1858.6405,101.9462Z" fill="#fff"/><path d="M1872.69,329.3166s4.2768,9.8877,6.7715,12.3827,12.381,6.7723,12.381,6.7723-9.8864,4.2774-12.381,6.7724-6.7715,12.3827-6.7715,12.3827-4.2769-9.8879-6.7715-12.3827-12.3811-6.7724-12.3811-6.7724,9.8866-4.2773,12.3811-6.7723S1872.69,329.3166,1872.69,329.3166Z" fill="#fff"/><path d="M1382.2471,78.9539s4.2767,9.8877,6.7714,12.3827S1401.4,98.1089,1401.4,98.1089s-9.8864,4.2774-12.3811,6.7724-6.7714,12.3827-6.7714,12.3827-4.2769-9.8879-6.7716-12.3827-12.381-6.7724-12.381-6.7724,9.8866-4.2773,12.381-6.7723S1382.2471,78.9539,1382.2471,78.9539Z" fill="#fff"/><path d="M2446.7217,850.1s2.5656,5.9316,4.0622,7.4284,7.4272,4.0625,7.4272,4.0625-5.9308,2.566-7.4272,4.0626-4.0622,7.4284-4.0622,7.4284-2.5656-5.9316-4.062-7.4284-7.4274-4.0626-7.4274-4.0626,5.9308-2.5659,7.4274-4.0625S2446.7217,850.1,2446.7217,850.1Z" fill="#fff"/><path d="M2478.6517,580.5767s2.5654,5.9315,4.062,7.4283,7.4272,4.0626,7.4272,4.0626-5.9306,2.5659-7.4272,4.0627-4.062,7.4282-4.062,7.4282-2.5656-5.9316-4.0622-7.4282-7.4272-4.0627-7.4272-4.0627,5.9306-2.5658,7.4272-4.0626S2478.6517,580.5767,2478.6517,580.5767Z" fill="#fff"/><path d="M2826.0025,808.7975s2.5656,5.9316,4.062,7.4282,7.4274,4.0627,7.4274,4.0627-5.9308,2.5658-7.4274,4.0626-4.062,7.4283-4.062,7.4283-2.5657-5.9315-4.0623-7.4283-7.4271-4.0626-7.4271-4.0626,5.9308-2.5659,7.4271-4.0627S2826.0025,808.7975,2826.0025,808.7975Z" fill="#fff"/><path d="M2852.87,680.2108s4.2769,9.8879,6.7716,12.3829,12.381,6.7722,12.381,6.7722-9.8864,4.2775-12.381,6.7723-6.7716,12.3829-6.7716,12.3829-4.2767-9.8879-6.7714-12.3829-12.3811-6.7723-12.3811-6.7723,9.8864-4.2774,12.3811-6.7722S2852.87,680.2108,2852.87,680.2108Z" fill="#fff"/><path d="M2866.9187,907.5811s4.2767,9.8877,6.7714,12.3827,12.3811,6.7723,12.3811,6.7723-9.8864,4.2774-12.3811,6.7724-6.7714,12.3827-6.7714,12.3827-4.2769-9.8879-6.7716-12.3827-12.381-6.7724-12.381-6.7724,9.8866-4.2773,12.381-6.7723S2866.9187,907.5811,2866.9187,907.5811Z" fill="#fff" opacity="0.5"/><path d="M2376.4761,657.2185s4.2767,9.8876,6.7714,12.3827,12.381,6.7722,12.381,6.7722-9.8863,4.2775-12.381,6.7725-6.7714,12.3826-6.7714,12.3826-4.2769-9.8878-6.7716-12.3826-12.3811-6.7725-12.3811-6.7725,9.8866-4.2772,12.3811-6.7722S2376.4761,657.2185,2376.4761,657.2185Z" fill="#fff" opacity="0.5"/><path d="M1997.91,821.8075s1.8617,4.3038,2.9477,5.39,5.389,2.9478,5.389,2.9478-4.3032,1.8619-5.389,2.9476-2.9477,5.39-2.9477,5.39-1.8614-4.304-2.9472-5.39-5.3892-2.9476-5.3892-2.9476,4.3032-1.8619,5.3892-2.9478S1997.91,821.8075,1997.91,821.8075Z" fill="#fff"/><path d="M2021.0787,626.2432s1.8614,4.3038,2.9474,5.39,5.3891,2.9478,5.3891,2.9478-4.303,1.8619-5.3891,2.9478-2.9474,5.39-2.9474,5.39-1.8616-4.304-2.9474-5.39-5.3893-2.9478-5.3893-2.9478,4.3033-1.8617,5.3893-2.9478S2021.0787,626.2432,2021.0787,626.2432Z" fill="#fff"/><path d="M2273.1142,791.8388s1.8617,4.304,2.9475,5.39,5.3892,2.9479,5.3892,2.9479-4.3035,1.8616-5.3892,2.9478-2.9475,5.39-2.9475,5.39-1.8616-4.304-2.9474-5.39-5.3893-2.9478-5.3893-2.9478,4.3035-1.8619,5.3893-2.9479S2273.1142,791.8388,2273.1142,791.8388Z" fill="#fff"/><path d="M2292.6087,698.5371s3.1034,7.1746,4.9135,8.9849,8.9836,4.914,8.9836,4.914-7.1735,3.1035-8.9836,4.9139-4.9135,8.9849-4.9135,8.9849-3.1032-7.1746-4.9132-8.9849-8.9836-4.9139-8.9836-4.9139,7.1734-3.1036,8.9836-4.914S2292.6087,698.5371,2292.6087,698.5371Z" fill="#fff"/><path d="M2302.8028,863.5156s3.1032,7.1744,4.9133,8.9847,8.9836,4.9139,8.9836,4.9139-7.1735,3.1038-8.9836,4.9142-4.9133,8.9847-4.9133,8.9847-3.1032-7.1746-4.9135-8.9847-8.9836-4.9142-8.9836-4.9142,7.1737-3.1033,8.9836-4.9139S2302.8028,863.5156,2302.8028,863.5156Z" fill="#fff" opacity="0.5"/><path d="M1946.9409,681.8539s3.103,7.1747,4.9131,8.985,8.9838,4.9139,8.9838,4.9139-7.1735,3.1036-8.9838,4.914-4.9131,8.9847-4.9131,8.9847-3.1034-7.1744-4.9135-8.9847-8.9836-4.914-8.9836-4.914,7.1737-3.1036,8.9836-4.9139S1946.9409,681.8539,1946.9409,681.8539Z" fill="#fff"/><path d="M2286.933,211.2339s1.7264-4.36,1.7264-5.8956-1.7264-5.8957-1.7264-5.8957,4.3592,1.7269,5.8947,1.7269,5.895-1.7269,5.895-1.7269-1.7266,4.36-1.7266,5.8957,1.7266,5.8956,1.7266,5.8956-4.3592-1.7266-5.8949-1.7269S2286.933,211.2339,2286.933,211.2339Z" fill="#fff"/><path d="M2132.2836,333.1344s1.7267-4.36,1.7267-5.8959-1.7264-5.8954-1.7264-5.8954,4.359,1.7266,5.8948,1.7266,5.8947-1.7269,5.8947-1.7269-1.7264,4.36-1.7264,5.8957,1.7264,5.8959,1.7264,5.8959-4.359-1.7269-5.8947-1.7269S2132.2836,333.1344,2132.2836,333.1344Z" fill="#fff"/><path d="M2071.1462,37.8014s1.7265-4.36,1.7265-5.8957-1.7265-5.8958-1.7265-5.8958,4.3591,1.7268,5.8948,1.7268,5.8951-1.7268,5.8951-1.7268-1.7267,4.36-1.7267,5.8958,1.7267,5.8957,1.7267,5.8957-4.3594-1.7269-5.8951-1.7269S2071.1462,37.8014,2071.1462,37.8014Z" fill="#fff"/><path d="M1991.3957,89.9891s2.8783-7.2679,2.8783-9.828-2.8783-9.8279-2.8783-9.8279,7.2669,2.8784,9.8266,2.8784,9.8268-2.8784,9.8268-2.8784-2.8783,7.2677-2.8783,9.8279,2.8783,9.8278,2.8783,9.8278-7.2668-2.8784-9.8266-2.8786S1991.3957,89.9891,1991.3957,89.9891Z" fill="#fff" opacity="0.5"/><path d="M2224.0248,346.2417s2.8781-7.2675,2.8781-9.8279-2.8781-9.8279-2.8781-9.8279,7.2668,2.8787,9.8266,2.8787,9.8266-2.8787,9.8266-2.8787-2.878,7.2679-2.878,9.8279,2.878,9.8281,2.878,9.8281-7.2667-2.8787-9.8266-2.8787S2224.0248,346.2417,2224.0248,346.2417Z" fill="#fff" opacity="0.5"/><path d="M2890.07,290.7854s2.38-6.0086,2.38-8.1255-2.38-8.1251-2.38-8.1251,6.008,2.38,8.1243,2.38,8.1242-2.38,8.1242-2.38-2.38,6.0088-2.38,8.1253,2.38,8.1253,2.38,8.1253-6.0078-2.38-8.1242-2.38S2890.07,290.7854,2890.07,290.7854Z" fill="#fff" opacity="0.5"/><path d="M2676.9352,458.7862s2.38-6.0085,2.38-8.1253-2.3793-8.1251-2.3793-8.1251,6.0075,2.38,8.124,2.38,8.1243-2.38,8.1243-2.38-2.38,6.0086-2.3794,8.1253,2.3794,8.1253,2.3794,8.1253-6.0076-2.38-8.1243-2.38S2676.9352,458.7862,2676.9352,458.7862Z" fill="#fff"/><path d="M2592.6767,51.7636s2.3793-6.0087,2.3793-8.125-2.3793-8.1256-2.3793-8.1256,6.0075,2.38,8.124,2.38,8.1243-2.38,8.1243-2.38-2.3794,6.0086-2.3794,8.1256,2.3794,8.125,2.3794,8.125-6.0078-2.38-8.1243-2.38S2592.6767,51.7636,2592.6767,51.7636Z" fill="#fff"/><path d="M2482.766,123.6879s3.9667-10.0164,3.9667-13.5449-3.9667-13.5445-3.9667-13.5445,10.0149,3.967,13.5429,3.967,13.543-3.967,13.543-3.967-3.9668,10.0162-3.9668,13.5447,3.9668,13.5445,3.9668,13.5445-10.015-3.967-13.543-3.9673S2482.766,123.6879,2482.766,123.6879Z" fill="#fff" opacity="0.5"/><path d="M2803.3711,476.8508s3.9667-10.0162,3.9667-13.5447-3.9667-13.5445-3.9667-13.5445,10.0149,3.967,13.5429,3.967,13.543-3.9673,13.543-3.9673-3.9668,10.0165-3.9665,13.5448,3.9665,13.5447,3.9665,13.5447-10.0151-3.9673-13.543-3.9671S2803.3711,476.8508,2803.3711,476.8508Z" fill="#fff"/><path d="M1828.4351,822.1061s2.38-6.0085,2.38-8.1253-2.38-8.1251-2.38-8.1251,6.008,2.38,8.1243,2.38,8.1242-2.38,8.1242-2.38-2.38,6.0086-2.38,8.1253,2.38,8.1251,2.38,8.1251-6.0077-2.38-8.1242-2.38S1828.4351,822.1061,1828.4351,822.1061Z" fill="#fff" opacity="0.5"/><path d="M1615.3005,990.107s2.38-6.0086,2.38-8.1253-2.38-8.1251-2.38-8.1251,6.0077,2.38,8.1242,2.38,8.1243-2.38,8.1243-2.38-2.38,6.0088-2.38,8.1253,2.38,8.1253,2.38,8.1253-6.0078-2.38-8.1243-2.38S1615.3005,990.107,1615.3005,990.107Z" fill="#fff"/><path d="M1531.0418,583.0844s2.38-6.0086,2.38-8.1251-2.38-8.1255-2.38-8.1255,6.0077,2.38,8.1242,2.38,8.1243-2.38,8.1243-2.38-2.38,6.0088-2.38,8.1255,2.38,8.1251,2.38,8.1251-6.0078-2.38-8.1243-2.38S1531.0418,583.0844,1531.0418,583.0844Z" fill="#fff"/><path d="M1421.1313,655.0087s3.9667-10.0165,3.9667-13.545-3.9667-13.5445-3.9667-13.5445,10.0149,3.9671,13.5427,3.9673,13.5432-3.9673,13.5432-3.9673-3.9668,10.0162-3.9668,13.5447,3.9668,13.5448,3.9668,13.5448-10.0152-3.9671-13.543-3.9673S1421.1313,655.0087,1421.1313,655.0087Z" fill="#fff" opacity="0.5"/><path d="M1571.9511,484.2979s3.9667-10.016,3.9667-13.5445-3.9667-13.5445-3.9667-13.5445,10.0149,3.967,13.543,3.967,13.5429-3.9672,13.5429-3.9672-3.9667,10.0164-3.9665,13.5447,3.9665,13.5447,3.9665,13.5447-10.0151-3.9672-13.5429-3.9672S1571.9511,484.2979,1571.9511,484.2979Z" fill="#fff"/><path d="M1741.7364,1008.1715s3.9667-10.016,3.9667-13.5445-3.9667-13.5447-3.9667-13.5447,10.0149,3.967,13.5429,3.967,13.5428-3.967,13.5428-3.967-3.9666,10.0165-3.9666,13.5447,3.9666,13.5447,3.9666,13.5447-10.0149-3.9672-13.5428-3.9672S1741.7364,1008.1715,1741.7364,1008.1715Z" fill="#fff"/><path d="M1814.1853,315.1477a6.41,6.41,0,1,0-6.41-6.41A6.41,6.41,0,0,0,1814.1853,315.1477Z" opacity="0.5" fill="url(#radial-gradient)"/><path d="M1886.21,86.5394a21.6474,21.6474,0,0,1,2.2559-4.125,21.6355,21.6355,0,0,1,4.1248-2.2565,21.6416,21.6416,0,0,1-4.1248-2.2562,21.6626,21.6626,0,0,1-2.2559-4.1252,21.6532,21.6532,0,0,1-2.2557,4.1252,21.6385,21.6385,0,0,1-4.1247,2.2562,21.6324,21.6324,0,0,1,4.1247,2.2565A21.638,21.638,0,0,1,1886.21,86.5394Z" opacity="0.5" fill="url(#radial-gradient-2)"/><path d="M1798.3819,173.7038a21.63,21.63,0,0,1,2.2559-4.125,21.63,21.63,0,0,1,4.1248-2.2565,21.6356,21.6356,0,0,1-4.1248-2.2562,21.6393,21.6393,0,0,1-2.2559-4.1253,21.6393,21.6393,0,0,1-2.2559,4.1253,21.6355,21.6355,0,0,1-4.1247,2.2562,21.6294,21.6294,0,0,1,4.1247,2.2565A21.63,21.63,0,0,1,1798.3819,173.7038Z" opacity="0.5" fill="url(#radial-gradient-3)"/><path d="M1400.1957,368.8361a21.6586,21.6586,0,0,1,2.256-4.1251,21.6452,21.6452,0,0,1,4.1247-2.2564,21.6433,21.6433,0,0,1-4.1247-2.2563,21.65,21.65,0,0,1-2.256-4.1252,21.6363,21.6363,0,0,1-2.2559,4.1252,21.6373,21.6373,0,0,1-4.1247,2.2563,21.6391,21.6391,0,0,1,4.1247,2.2564A21.6452,21.6452,0,0,1,1400.1957,368.8361Z" opacity="0.5" fill="url(#radial-gradient-4)"/><path d="M1474.205,80.22a21.6626,21.6626,0,0,1,2.2559-4.1252,21.65,21.65,0,0,1,4.1248-2.256,21.655,21.655,0,0,1-4.1248-2.2563,21.6624,21.6624,0,0,1-2.2559-4.125,21.653,21.653,0,0,1-2.2557,4.125,21.6551,21.6551,0,0,1-4.1249,2.2563,21.65,21.65,0,0,1,4.1249,2.256A21.6532,21.6532,0,0,1,1474.205,80.22Z" opacity="0.5" fill="url(#radial-gradient-5)"/><path d="M1436.2366,175.0163a2.1325,2.1325,0,1,1-2.1325-2.1329A2.1328,2.1328,0,0,1,1436.2366,175.0163Zm17.0608-39.1024a4.2658,4.2658,0,1,0,4.265,4.2657A4.2655,4.2655,0,0,0,1453.2974,135.9139Zm8.53,51.1884a8.5315,8.5315,0,1,0,8.53,8.5315A8.5308,8.5308,0,0,0,1461.8275,187.1023Zm-73.9292,9.9536a4.2656,4.2656,0,1,0,4.2651,4.2656A4.2654,4.2654,0,0,0,1387.8983,197.0559Z" fill="url(#radial-gradient-6)"/><path d="M1809.7573,22.2205a2.1325,2.1325,0,1,1,2.3057,1.9442A2.1327,2.1327,0,0,1,1809.7573,22.2205Zm-13.6824,40.4087a4.2657,4.2657,0,1,0-4.6116-3.8884A4.2656,4.2656,0,0,0,1796.0749,62.6292Z" fill="url(#radial-gradient-7)"/><path d="M2808.4142,893.4122a6.41,6.41,0,1,0-6.4094-6.41A6.41,6.41,0,0,0,2808.4142,893.4122Z" opacity="0.5" fill="url(#radial-gradient-8)"/><path d="M2704.186,542.1773a8.3638,8.3638,0,0,1,6.3806-6.3815,21.6355,21.6355,0,0,1-4.1247-2.2562,21.6453,21.6453,0,0,1-2.2559-4.1252,21.6471,21.6471,0,0,1-2.256,4.1252,21.6325,21.6325,0,0,1-4.1247,2.2562,8.3641,8.3641,0,0,1,6.3807,6.3815Z" opacity="0.5" fill="url(#radial-gradient-9)"/><path d="M2880.4387,664.8039a8.3635,8.3635,0,0,1,6.3806-6.3814,8.3638,8.3638,0,0,1-6.3806-6.3815,8.3632,8.3632,0,0,1-6.38,6.3815,8.3629,8.3629,0,0,1,6.38,6.3814Z" opacity="0.5" fill="url(#radial-gradient-10)"/><path d="M2792.6109,751.9683a8.3638,8.3638,0,0,1,6.3806-6.3815,8.3635,8.3635,0,0,1-6.3806-6.3814,8.3634,8.3634,0,0,1-6.3807,6.3814,8.3638,8.3638,0,0,1,6.3807,6.3815Z" opacity="0.5" fill="url(#radial-gradient-11)"/><path d="M2394.4247,947.1006a8.3634,8.3634,0,0,1,6.3807-6.3815,8.3634,8.3634,0,0,1-6.3807-6.3815,8.3634,8.3634,0,0,1-6.3806,6.3815,8.3634,8.3634,0,0,1,6.3806,6.3815Z" opacity="0.5" fill="url(#radial-gradient-12)"/><path d="M2468.434,658.4849a8.3629,8.3629,0,0,1,6.3806-6.3812,8.3646,8.3646,0,0,1-6.3806-6.3815,8.3638,8.3638,0,0,1-6.3807,6.3815,8.3621,8.3621,0,0,1,6.3807,6.3812Z" opacity="0.5" fill="url(#radial-gradient-13)"/><path d="M2430.4656,753.2808a2.1326,2.1326,0,1,1-2.1325-2.1328A2.1327,2.1327,0,0,1,2430.4656,753.2808Zm17.0607-39.1023a4.2657,4.2657,0,1,0,4.2651,4.2656A4.2655,4.2655,0,0,0,2447.5263,714.1785Zm8.53,51.1884a8.5315,8.5315,0,1,0,8.53,8.5314A8.5308,8.5308,0,0,0,2456.0565,765.3669Zm-73.9292,9.9535a4.2656,4.2656,0,1,0,4.2651,4.2656A4.2653,4.2653,0,0,0,2382.1273,775.32Z" fill="url(#radial-gradient-14)"/><path d="M2803.9863,600.485a2.1325,2.1325,0,1,1,2.3057,1.9442A2.1328,2.1328,0,0,1,2803.9863,600.485Zm-13.6824,40.4088a4.2657,4.2657,0,1,0-4.6116-3.8885A4.2658,4.2658,0,0,0,2790.3039,640.8938Zm-12.8414-50.28a8.5314,8.5314,0,1,0-9.2233-7.7769A8.5312,8.5312,0,0,0,2777.4625,590.6134Zm72.8186-16.19a4.2657,4.2657,0,1,0-4.6116-3.8885A4.2652,4.2652,0,0,0,2850.2811,574.4237Z" fill="url(#linear-gradient-13)"/><path d="M2260.3525,853.2347a4.6512,4.6512,0,1,0-4.6509-4.6511A4.6508,4.6508,0,0,0,2260.3525,853.2347Z" opacity="0.5" fill="url(#radial-gradient-15)"/><path d="M2184.725,598.381a6.0686,6.0686,0,0,1,4.63-4.63,6.0683,6.0683,0,0,1-4.63-4.63,6.0682,6.0682,0,0,1-4.63,4.63,6.0684,6.0684,0,0,1,4.63,4.63Z" opacity="0.5" fill="url(#radial-gradient-16)"/><path d="M2312.6129,687.3579a6.0688,6.0688,0,0,1,4.63-4.63,6.0689,6.0689,0,0,1-4.63-4.6306,6.0682,6.0682,0,0,1-4.63,4.6306,6.0681,6.0681,0,0,1,4.63,4.63Z" opacity="0.5" fill="url(#radial-gradient-17)"/><path d="M2248.8856,750.6039a6.0683,6.0683,0,0,1,4.63-4.63,6.0682,6.0682,0,0,1-4.63-4.63,6.0688,6.0688,0,0,1-4.63,4.63,6.069,6.069,0,0,1,4.63,4.63Z" opacity="0.5" fill="url(#radial-gradient-18)"/><path d="M1959.9642,892.1906a6.0692,6.0692,0,0,1,4.63-4.63,6.0686,6.0686,0,0,1-4.63-4.63,6.0682,6.0682,0,0,1-4.63,4.63,6.0687,6.0687,0,0,1,4.63,4.63Z" opacity="0.5" fill="url(#radial-gradient-19)"/><path d="M2013.6647,682.773a6.0672,6.0672,0,0,1,4.63-4.63,6.07,6.07,0,0,1-4.63-4.6305,6.0682,6.0682,0,0,1-4.63,4.6305,6.0658,6.0658,0,0,1,4.63,4.63Z" opacity="0.5" fill="url(#radial-gradient-20)"/><path d="M1986.1151,751.5561a1.5473,1.5473,0,1,1-1.5472-1.5474A1.5474,1.5474,0,0,1,1986.1151,751.5561Zm12.3793-28.3722a3.0952,3.0952,0,1,0,3.0947,3.0951A3.095,3.095,0,0,0,1998.4944,723.1839Zm6.1894,37.1418a6.19,6.19,0,1,0,6.19,6.1905A6.19,6.19,0,0,0,2004.6838,760.3257Zm-53.6425,7.2224a3.0951,3.0951,0,1,0,3.0947,3.0951A3.0948,3.0948,0,0,0,1951.0413,767.5481Z" fill="url(#radial-gradient-21)"/><path d="M2257.14,640.6887a1.5474,1.5474,0,1,1,1.6729,1.4106A1.5477,1.5477,0,0,1,2257.14,640.6887Zm-9.9279,29.32a3.0951,3.0951,0,1,0-3.3462-2.8215A3.095,3.095,0,0,0,2247.2116,670.0089Zm-9.3176-36.483a6.19,6.19,0,1,0-6.6924-5.643A6.19,6.19,0,0,0,2237.894,633.5259Zm52.8366-11.7471a3.0953,3.0953,0,1,0-3.3462-2.8215A3.0951,3.0951,0,0,0,2290.7306,621.7788Z" fill="url(#radial-gradient-22)"/><path d="M2123.5779,3.413a4.6508,4.6508,0,1,0,0,6.5779A4.65,4.65,0,0,0,2123.5779,3.413Z" opacity="0.5" fill="url(#radial-gradient-23)"/><path d="M1996.8693,237.1055a6.0675,6.0675,0,0,1-6.5476,0,15.6958,15.6958,0,0,1,.9589,3.2741,15.705,15.705,0,0,1-.9589,3.2743,6.067,6.067,0,0,1,6.5476,0,15.6915,15.6915,0,0,1-.9588-3.2743A15.6908,15.6908,0,0,1,1996.8693,237.1055Z" opacity="0.5" fill="url(#radial-gradient-24)"/><path d="M1969.3469,83.7471a6.0684,6.0684,0,0,1-6.5475,0,15.7018,15.7018,0,0,1,.9591,3.2741,15.7225,15.7225,0,0,1-.9591,3.2741,6.0679,6.0679,0,0,1,6.5475,0,15.7063,15.7063,0,0,1-.9588-3.2743A15.7106,15.7106,0,0,1,1969.3469,83.7471Z" opacity="0.5" fill="url(#radial-gradient-25)"/><path d="M2059.1247,84.0933a6.0675,6.0675,0,0,1-6.5473,0,15.7063,15.7063,0,0,1,.9588,3.2743,15.7133,15.7133,0,0,1-.9588,3.2741,6.067,6.067,0,0,1,6.5473,0,15.7,15.7,0,0,1-.9588-3.2743A15.7075,15.7075,0,0,1,2059.1247,84.0933Z" opacity="0.5" fill="url(#radial-gradient-26)"/><path d="M2363.5269,188.3012a6.0673,6.0673,0,0,1-6.5475,0,15.7094,15.7094,0,0,1,.9588,3.2741,15.7121,15.7121,0,0,1-.9588,3.2743,6.0679,6.0679,0,0,1,6.5475,0,15.7121,15.7121,0,0,1-.9588-3.2743A15.7094,15.7094,0,0,1,2363.5269,188.3012Z" opacity="0.5" fill="url(#radial-gradient-27)"/><path d="M2177.4935,298.4048a6.0673,6.0673,0,0,1-6.5475,0,15.71,15.71,0,0,1,.9588,3.2743,15.7119,15.7119,0,0,1-.9586,3.2741,6.067,6.067,0,0,1,6.5473,0,15.7194,15.7194,0,0,1-.959-3.2741A15.7175,15.7175,0,0,1,2177.4935,298.4048Z" opacity="0.5" fill="url(#radial-gradient-28)"/><path d="M2245.6049,269.2508a1.5474,1.5474,0,1,1,0,2.1886A1.5472,1.5472,0,0,1,2245.6049,269.2508Zm-28.8133,11.3077a3.095,3.095,0,1,0,0-4.3772A3.0945,3.0945,0,0,0,2216.7916,280.5585Zm21.8834-30.64a6.19,6.19,0,1,0,0-8.7544A6.1889,6.1889,0,0,0,2238.675,249.918Zm43.0372,32.8291a3.095,3.095,0,1,0,0-4.3772A3.0944,3.0944,0,0,0,2281.7122,282.7471Z" fill="url(#radial-gradient-29)"/><path d="M1975.5767,155.978a1.5474,1.5474,0,1,1-.1856-2.1808A1.5474,1.5474,0,0,1,1975.5767,155.978Zm27.75-13.7116a3.095,3.095,0,1,0,.3713,4.3614A3.0948,3.0948,0,0,0,2003.3267,142.2664Zm-19.2056,32.3868a6.19,6.19,0,1,0,.7427,8.7229A6.1891,6.1891,0,0,0,1984.1211,174.6532Zm-45.6666-29.06a3.0951,3.0951,0,1,0,.3713,4.3616A3.0941,3.0941,0,0,0,1938.4545,145.5936Z" fill="url(#radial-gradient-30)"/><path d="M2664.9372,4.37a6.41,6.41,0,1,0,0,9.0653A6.4088,6.4088,0,0,0,2664.9372,4.37Z" opacity="0.5" fill="url(#radial-gradient-31)"/><path d="M2490.3094,326.4411a8.362,8.362,0,0,1-9.0235,0,21.65,21.65,0,0,1,1.3214,4.5122,21.6443,21.6443,0,0,1-1.3214,4.5125,8.362,8.362,0,0,1,9.0235,0,21.6364,21.6364,0,0,1-1.3215-4.5122A21.647,21.647,0,0,1,2490.3094,326.4411Z" opacity="0.5" fill="url(#radial-gradient-32)"/><path d="M2452.3787,115.0852a8.3624,8.3624,0,0,1-9.0237,0,21.6458,21.6458,0,0,1,1.3216,4.5125,21.66,21.66,0,0,1-1.3216,4.5122,8.362,8.362,0,0,1,9.0235,0,21.6388,21.6388,0,0,1-1.3212-4.5124A21.6553,21.6553,0,0,1,2452.3787,115.0852Z" opacity="0.5" fill="url(#radial-gradient-33)"/><path d="M2576.1089,115.5624a8.362,8.362,0,0,1-9.0235,0,21.6527,21.6527,0,0,1,1.3214,4.5124,21.64,21.64,0,0,1-1.3214,4.5125,8.362,8.362,0,0,1,9.0235,0,21.6385,21.6385,0,0,1-1.3215-4.5125A21.6391,21.6391,0,0,1,2576.1089,115.5624Z" opacity="0.5" fill="url(#radial-gradient-34)"/><path d="M2995.63,259.18a8.3624,8.3624,0,0,1-9.0237,0,21.6482,21.6482,0,0,1,1.3214,4.5125,21.6539,21.6539,0,0,1-1.3214,4.5122,8.3624,8.3624,0,0,1,9.0237,0,21.6527,21.6527,0,0,1-1.3214-4.5124A21.6455,21.6455,0,0,1,2995.63,259.18Z" opacity="0.5" fill="url(#radial-gradient-35)"/><path d="M2739.2424,410.9228a8.3615,8.3615,0,0,1-9.0235,0,21.6488,21.6488,0,0,1,1.3214,4.5124,21.6519,21.6519,0,0,1-1.3212,4.5123,8.362,8.362,0,0,1,9.0235,0,21.6557,21.6557,0,0,1-1.3219-4.5123A21.6588,21.6588,0,0,1,2739.2424,410.9228Z" opacity="0.5" fill="url(#radial-gradient-36)"/><path d="M2833.1121,370.743a2.1328,2.1328,0,1,1,0,3.0164A2.1327,2.1327,0,0,1,2833.1121,370.743Zm-39.7095,15.5843a4.2655,4.2655,0,1,0,0-6.0325A4.2649,4.2649,0,0,0,2793.4026,386.3273Zm30.1592-42.2283a8.5309,8.5309,0,1,0,0-12.0653A8.5294,8.5294,0,0,0,2823.5618,344.099Zm59.3131,45.2446a4.2654,4.2654,0,1,0,0-6.0327A4.2648,4.2648,0,0,0,2882.8749,389.3436Z" fill="url(#radial-gradient-37)"/><path d="M2460.9644,214.6325a2.1326,2.1326,0,1,1-.2559-3.0051A2.1323,2.1323,0,0,1,2460.9644,214.6325Zm38.2444-18.8969a4.2654,4.2654,0,1,0,.5117,6.0108A4.2648,4.2648,0,0,0,2499.2088,195.7356ZM2472.74,240.3705a8.5309,8.5309,0,1,0,1.0235,12.0218A8.53,8.53,0,0,0,2472.74,240.3705Zm-62.9369-40.0493a4.2655,4.2655,0,1,0,.5119,6.0108A4.2642,4.2642,0,0,0,2409.8032,200.3212Z" fill="url(#radial-gradient-38)"/><path d="M1603.3023,535.6912a6.41,6.41,0,1,0,0,9.0655A6.4087,6.4087,0,0,0,1603.3023,535.6912Z" opacity="0.5" fill="url(#radial-gradient-39)"/><path d="M1428.6747,857.7619a8.362,8.362,0,0,1-9.0235,0,8.3666,8.3666,0,0,1,0,9.0249,8.362,8.362,0,0,1,9.0235,0,8.3655,8.3655,0,0,1,0-9.0249Z" opacity="0.5" fill="url(#radial-gradient-40)"/><path d="M1390.744,646.406a8.3624,8.3624,0,0,1-9.0237,0,21.6488,21.6488,0,0,1,1.3214,4.5124,21.6482,21.6482,0,0,1-1.3214,4.5125,8.3615,8.3615,0,0,1,9.0235,0,21.6443,21.6443,0,0,1-1.3214-4.5125A21.6515,21.6515,0,0,1,1390.744,646.406Z" opacity="0.5" fill="url(#radial-gradient-41)"/><path d="M1514.4742,646.8834a8.3631,8.3631,0,0,1-9.0238,0,21.6452,21.6452,0,0,1,1.3217,4.5124,21.6339,21.6339,0,0,1-1.3217,4.5122,8.3625,8.3625,0,0,1,9.0238,0,21.6352,21.6352,0,0,1-1.3215-4.5124A21.6364,21.6364,0,0,1,1514.4742,646.8834Z" opacity="0.5" fill="url(#radial-gradient-42)"/><path d="M1933.9955,790.5007a8.362,8.362,0,0,1-9.0235,0,8.365,8.365,0,0,1,0,9.0249,8.362,8.362,0,0,1,9.0235,0,8.3666,8.3666,0,0,1,0-9.0249Z" opacity="0.5" fill="url(#radial-gradient-43)"/><path d="M1677.6077,942.2436a8.3618,8.3618,0,0,1-9.0235,0,8.366,8.366,0,0,1,0,9.0249,8.361,8.361,0,0,1,9.0235,0,8.3628,8.3628,0,0,1,0-9.0246Z" opacity="0.5" fill="url(#radial-gradient-44)"/><path d="M1771.4774,902.064a2.1327,2.1327,0,1,1,0,3.0161A2.1325,2.1325,0,0,1,1771.4774,902.064Zm-39.7095,15.5842a4.2654,4.2654,0,1,0,0-6.0326A4.2649,4.2649,0,0,0,1731.7679,917.6482Zm30.1592-42.2282a8.5309,8.5309,0,1,0,0-12.0653A8.5294,8.5294,0,0,0,1761.9271,875.42Zm59.3131,45.2444a4.2653,4.2653,0,1,0,0-6.0325A4.2648,4.2648,0,0,0,1821.24,920.6644Z" fill="url(#radial-gradient-45)"/><path d="M1399.33,745.9535a2.1326,2.1326,0,1,1-.2559-3.0054A2.1326,2.1326,0,0,1,1399.33,745.9535Zm38.2444-18.8972a4.2655,4.2655,0,1,0,.5117,6.0111A4.2648,4.2648,0,0,0,1437.5741,727.0563Zm-26.4687,44.6351a8.5309,8.5309,0,1,0,1.0233,12.0219A8.53,8.53,0,0,0,1411.1054,771.6914Zm-62.9369-40.0494a4.2655,4.2655,0,1,0,.5117,6.0108A4.2643,4.2643,0,0,0,1348.1685,731.642Z" opacity="0.32" fill="url(#radial-gradient-46)"/><path d="M2479.7231,666.0472a6.41,6.41,0,1,0,4.743,7.7251A6.4093,6.4093,0,0,0,2479.7231,666.0472Z" opacity="0.5" fill="url(#radial-gradient-47)"/><path d="M2499.4068,1031.8951a8.3627,8.3627,0,0,1-7.69,4.7222,8.3647,8.3647,0,0,1,4.7216,7.6908,8.3627,8.3627,0,0,1,7.69-4.7222,8.3642,8.3642,0,0,1-4.7216-7.6908Z" opacity="0.5" fill="url(#radial-gradient-48)"/><path d="M2356.5071,871.63a8.3635,8.3635,0,0,1-7.69,4.7222,8.364,8.364,0,0,1,4.7214,7.6908,8.3626,8.3626,0,0,1,7.69-4.7222,8.3649,8.3649,0,0,1-4.7214-7.6908Z" opacity="0.5" fill="url(#radial-gradient-49)"/><path d="M2462.1978,807.288a8.3636,8.3636,0,0,1-7.69,4.7222,8.3637,8.3637,0,0,1,4.7216,7.6906,8.3629,8.3629,0,0,1,7.69-4.722,8.3643,8.3643,0,0,1-4.7216-7.6908Z" opacity="0.5" fill="url(#radial-gradient-50)"/><path d="M2894.8444,710.1371a8.3636,8.3636,0,0,1-7.69,4.7222,8.3637,8.3637,0,0,1,4.7216,7.6906,8.3629,8.3629,0,0,1,7.69-4.722,8.3649,8.3649,0,0,1-4.7214-7.6908Z" opacity="0.5" fill="url(#radial-gradient-51)"/><path d="M2755.7422,973.62a8.3623,8.3623,0,0,1-7.69,4.7218,8.3643,8.3643,0,0,1,4.7216,7.6908,8.363,8.363,0,0,1,7.69-4.7222,8.3623,8.3623,0,0,1-4.7216-7.69Z" opacity="0.5" fill="url(#radial-gradient-52)"/><path d="M2814.7158,890.2568a2.1326,2.1326,0,1,1,1.578,2.57A2.1324,2.1324,0,0,1,2814.7158,890.2568Zm-25.6869,34.061a4.2657,4.2657,0,1,0-3.156-5.1409A4.2651,4.2651,0,0,0,2789.0289,924.3178Zm3.6086-51.7689a8.5314,8.5314,0,1,0-6.3121-10.2818A8.53,8.53,0,0,0,2792.6375,872.5489Zm74.2164,7.5176a4.2656,4.2656,0,1,0-3.1561-5.1408A4.2651,4.2651,0,0,0,2866.8539,880.0665Z" fill="url(#radial-gradient-53)"/><path d="M2415.9043,951.97a2.1325,2.1325,0,1,1-1.79-2.4274A2.1326,2.1326,0,0,1,2415.9043,951.97Zm22.7048-36.1175a4.2657,4.2657,0,1,0,3.581,4.8546A4.265,4.265,0,0,0,2438.6091,915.8528Zm.7958,51.8885a8.5314,8.5314,0,1,0,7.1616,9.7091A8.5307,8.5307,0,0,0,2439.4049,967.7413Zm-74.5868-1.1939a4.2656,4.2656,0,1,0,3.5809,4.8545A4.2648,4.2648,0,0,0,2364.8181,966.5474Z" fill="url(#radial-gradient-54)"/><path d="M1666.9324,238.205a21.6481,21.6481,0,0,1-3.1534,3.4873,21.6346,21.6346,0,0,1-4.5364,1.2347,21.63,21.63,0,0,1,3.4867,3.1538,21.6475,21.6475,0,0,1,1.2349,4.537,21.6514,21.6514,0,0,1,3.1534-3.4874,21.6442,21.6442,0,0,1,4.5364-1.2348,21.6293,21.6293,0,0,1-3.487-3.1538A21.6459,21.6459,0,0,1,1666.9324,238.205Z" opacity="0.5" fill="url(#radial-gradient-55)"/><path d="M1524.0328,77.94a21.6459,21.6459,0,0,1-3.1535,3.4872,21.63,21.63,0,0,1-4.5363,1.2348,21.6366,21.6366,0,0,1,3.4868,3.154,21.6509,21.6509,0,0,1,1.2347,4.5368,21.66,21.66,0,0,1,3.1533-3.4874,21.6417,21.6417,0,0,1,4.5362-1.2348,21.633,21.633,0,0,1-3.4868-3.1538A21.6614,21.6614,0,0,1,1524.0328,77.94Z" opacity="0.5" fill="url(#radial-gradient-56)"/><path d="M1629.7233,13.5977a21.6307,21.6307,0,0,1-3.1534,3.4872,21.632,21.632,0,0,1-4.5364,1.235,21.6379,21.6379,0,0,1,3.487,3.1538,21.6361,21.6361,0,0,1,1.2347,4.537,21.6331,21.6331,0,0,1,3.1533-3.4874,21.6274,21.6274,0,0,1,4.5365-1.2348,21.6231,21.6231,0,0,1-3.487-3.154A21.6477,21.6477,0,0,1,1629.7233,13.5977Z" opacity="0.5" fill="url(#radial-gradient-57)"/><path d="M1923.2678,179.93a21.654,21.654,0,0,1-3.1534,3.4872,21.6392,21.6392,0,0,1-4.5364,1.2346,21.6543,21.6543,0,0,1,3.487,3.154,21.6554,21.6554,0,0,1,1.2346,4.5368,21.6583,21.6583,0,0,1,3.1532-3.4872,21.6437,21.6437,0,0,1,4.5366-1.2348,21.66,21.66,0,0,1-3.4872-3.1538A21.6583,21.6583,0,0,1,1923.2678,179.93Z" opacity="0.5" fill="url(#radial-gradient-58)"/><path d="M1982.2413,96.5665a2.1326,2.1326,0,1,1,1.578,2.57A2.1326,2.1326,0,0,1,1982.2413,96.5665Zm-25.6868,34.061a4.2657,4.2657,0,1,0-3.1561-5.1407A4.265,4.265,0,0,0,1956.5545,130.6275Zm3.6086-51.7687a8.5314,8.5314,0,1,0-6.3122-10.282A8.53,8.53,0,0,0,1960.1631,78.8588Zm74.2163,7.5174a4.2655,4.2655,0,1,0-3.1558-5.1408A4.2651,4.2651,0,0,0,2034.3794,86.3762Z" fill="url(#radial-gradient-59)"/><path d="M1583.43,158.28a2.1325,2.1325,0,1,1-1.7905-2.4272A2.1327,2.1327,0,0,1,1583.43,158.28Zm22.7048-36.1175a4.2657,4.2657,0,1,0,3.5809,4.8546A4.2654,4.2654,0,0,0,1606.1347,122.1625Zm.7957,51.8885a8.5314,8.5314,0,1,0,7.1616,9.7094A8.5307,8.5307,0,0,0,1606.93,174.051Zm-74.5865-1.1939a4.2657,4.2657,0,1,0,3.5807,4.8545A4.2652,4.2652,0,0,0,1532.3439,172.8571Z" fill="url(#radial-gradient-60)"/><path d="M2170.9349,38.9272a4.6512,4.6512,0,1,0,3.4415,5.6053A4.65,4.65,0,0,0,2170.9349,38.9272Z" opacity="0.5" fill="url(#radial-gradient-61)"/><path d="M2185.2171,304.3843a6.0682,6.0682,0,0,1-5.58,3.4263,15.6983,15.6983,0,0,1,2.53,2.2884,15.6921,15.6921,0,0,1,.8959,3.2919,6.0688,6.0688,0,0,1,5.58-3.4263,15.6976,15.6976,0,0,1-2.53-2.2884A15.7047,15.7047,0,0,1,2185.2171,304.3843Z" opacity="0.5" fill="url(#radial-gradient-62)"/><path d="M2081.53,188.0972a15.7,15.7,0,0,1-2.2883,2.53,15.7044,15.7044,0,0,1-3.2915.896,15.7054,15.7054,0,0,1,2.53,2.2883,15.7226,15.7226,0,0,1,.8959,3.292,15.7159,15.7159,0,0,1,2.2879-2.53,15.7076,15.7076,0,0,1,3.2915-.896,15.7006,15.7006,0,0,1-2.53-2.2886A15.7142,15.7142,0,0,1,2081.53,188.0972Z" opacity="0.5" fill="url(#radial-gradient-63)"/><path d="M2158.2185,141.4107a15.6968,15.6968,0,0,1-2.2881,2.53,15.7044,15.7044,0,0,1-3.2915.896,15.7022,15.7022,0,0,1,2.53,2.2884,15.7028,15.7028,0,0,1,.8957,3.2919,15.6909,15.6909,0,0,1,2.2883-2.53,15.6825,15.6825,0,0,1,3.2915-.8961,15.6906,15.6906,0,0,1-2.53-2.2885A15.7026,15.7026,0,0,1,2158.2185,141.4107Z" opacity="0.5" fill="url(#radial-gradient-64)"/><path d="M2472.1442,70.9185a15.7152,15.7152,0,0,1-2.2881,2.53,15.7076,15.7076,0,0,1-3.2915.896,15.7006,15.7006,0,0,1,2.53,2.2886,15.7226,15.7226,0,0,1,.8959,3.292,15.6993,15.6993,0,0,1,2.288-2.53,15.6946,15.6946,0,0,1,3.2915-.8958,15.7071,15.7071,0,0,1-2.53-2.2886A15.7068,15.7068,0,0,1,2472.1442,70.9185Z" opacity="0.5" fill="url(#radial-gradient-65)"/><path d="M2371.2126,262.1a15.7093,15.7093,0,0,1-2.2883,2.53,15.7062,15.7062,0,0,1-3.2913.8958,15.7114,15.7114,0,0,1,2.53,2.2886,15.7052,15.7052,0,0,1,.8959,3.2917,15.7057,15.7057,0,0,1,2.2881-2.53,15.718,15.718,0,0,1,3.2917-.896,15.7127,15.7127,0,0,1-2.53-2.2882A15.7186,15.7186,0,0,1,2371.2126,262.1Z" opacity="0.5" fill="url(#radial-gradient-66)"/><path d="M2414.0034,201.6122a1.5473,1.5473,0,1,1,1.1449,1.865A1.5472,1.5472,0,0,1,2414.0034,201.6122Zm-18.6383,24.7145a3.0952,3.0952,0,1,0-2.29-3.73A3.095,3.095,0,0,0,2395.3651,226.3267Zm2.6185-37.5631a6.19,6.19,0,1,0-4.58-7.46A6.1894,6.1894,0,0,0,2397.9836,188.7636Zm53.851,5.4546a3.0951,3.0951,0,1,0-2.29-3.73A3.0945,3.0945,0,0,0,2451.8346,194.2182Z" fill="url(#radial-gradient-67)"/><path d="M2124.6283,246.3913a1.5474,1.5474,0,1,1-1.2991-1.7613A1.5477,1.5477,0,0,1,2124.6283,246.3913Zm16.4745-26.2068a3.0952,3.0952,0,1,0,2.5983,3.5224A3.095,3.095,0,0,0,2141.1028,220.1845Zm.5773,37.65a6.19,6.19,0,1,0,5.1964,7.045A6.19,6.19,0,0,0,2141.68,257.8346Zm-54.12-.8663a3.0951,3.0951,0,1,0,2.5982,3.5225A3.0945,3.0945,0,0,0,2087.5605,256.9683Z" fill="url(#radial-gradient-68)"/><path d="M2106.3166,897.2583a4.6508,4.6508,0,1,0,1.53-6.3974A4.65,4.65,0,0,0,2106.3166,897.2583Z" opacity="0.5" fill="url(#radial-gradient-69)"/><path d="M2283.9,699.4514a6.068,6.068,0,0,1,6.3679,1.5231,6.07,6.07,0,0,1,1.5229-6.3688,6.0673,6.0673,0,0,1-6.3679-1.5231,6.069,6.069,0,0,1-1.5229,6.3688Z" opacity="0.5" fill="url(#radial-gradient-70)"/><path d="M2275.0008,855.0062a6.0684,6.0684,0,0,1,6.3679,1.5231,6.0691,6.0691,0,0,1,1.5229-6.3688,6.0668,6.0668,0,0,1-6.368-1.5229,6.069,6.069,0,0,1-1.5228,6.3686Z" opacity="0.5" fill="url(#radial-gradient-71)"/><path d="M2187.7658,833.7845a6.0683,6.0683,0,0,1,6.3679,1.5231,6.0693,6.0693,0,0,1,1.5229-6.3686,6.0673,6.0673,0,0,1-6.3678-1.5233,6.0707,6.0707,0,0,1-1.523,6.3688Z" opacity="0.5" fill="url(#radial-gradient-72)"/><path d="M1915.9479,661.6222a6.0674,6.0674,0,0,1,6.368,1.5231,6.0687,6.0687,0,0,1,1.5229-6.3687,6.0675,6.0675,0,0,1-6.3679-1.5232,6.0691,6.0691,0,0,1-1.523,6.3688Z" opacity="0.5" fill="url(#radial-gradient-73)"/><path d="M2122.4855,597.815a6.0676,6.0676,0,0,1,6.3679,1.5233,6.07,6.07,0,0,1,1.5227-6.3687,6.0675,6.0675,0,0,1-6.3677-1.5231,6.0675,6.0675,0,0,1-1.5229,6.3685Z" opacity="0.5" fill="url(#radial-gradient-74)"/><path d="M2049.462,610.3249a1.5475,1.5475,0,1,1,.509-2.1286A1.5472,1.5472,0,0,1,2049.462,610.3249Zm30.6528-4.2949a3.095,3.095,0,1,0-1.018,4.2572A3.0945,3.0945,0,0,0,2080.1148,606.03Zm-28.4091,24.7094a6.19,6.19,0,1,0-2.0362,8.5145A6.1894,6.1894,0,0,0,2051.7057,630.7394Zm-34.2219-41.94a3.0948,3.0948,0,1,0-1.0179,4.2572A3.0945,3.0945,0,0,0,2017.4838,588.799Z" fill="url(#radial-gradient-75)"/><path d="M2285.74,783.3071a1.5475,1.5475,0,1,1-.3265,2.164A1.5474,1.5474,0,0,1,2285.74,783.3071Zm-30.1777,6.88a3.0949,3.0949,0,1,0,.6533-4.3283A3.0947,3.0947,0,0,0,2255.5627,790.1873Zm26.211-27.0309A6.19,6.19,0,1,0,2283.08,754.5,6.1889,6.1889,0,0,0,2281.7737,763.1564Zm37.6557,38.8858a3.095,3.095,0,1,0,.6534-4.3281A3.0943,3.0943,0,0,0,2319.4294,802.0422Z" fill="url(#radial-gradient-76)"/><path d="M1580.0281,770.3917a6.4095,6.4095,0,1,0,2.1083-8.8167A6.409,6.409,0,0,0,1580.0281,770.3917Z" opacity="0.5" fill="url(#radial-gradient-77)"/><path d="M1824.77,497.7778a8.3628,8.3628,0,0,1,8.776,2.0992,21.649,21.649,0,0,1-.2358-4.6959,21.6366,21.6366,0,0,1,2.3347-4.0813,8.3633,8.3633,0,0,1-8.7761-2.0991,21.6435,21.6435,0,0,1,.2357,4.6959A21.6357,21.6357,0,0,1,1824.77,497.7778Z" opacity="0.5" fill="url(#radial-gradient-78)"/><path d="M1812.5056,712.1605a8.3634,8.3634,0,0,1,8.776,2.0991,21.652,21.652,0,0,1-.2359-4.6958,21.66,21.66,0,0,1,2.3347-4.0813,8.3623,8.3623,0,0,1-8.776-2.0989,21.6388,21.6388,0,0,1,.2356,4.6961A21.6547,21.6547,0,0,1,1812.5056,712.1605Z" opacity="0.5" fill="url(#radial-gradient-79)"/><path d="M1692.28,682.9133a8.3628,8.3628,0,0,1,8.776,2.0991,21.64,21.64,0,0,1-.2356-4.6961,21.6374,21.6374,0,0,1,2.3345-4.0811,8.362,8.362,0,0,1-8.7761-2.0991,21.6252,21.6252,0,0,1,.2357,4.6961A21.6374,21.6374,0,0,1,1692.28,682.9133Z" opacity="0.5" fill="url(#radial-gradient-80)"/><path d="M1317.6653,445.6423a8.3624,8.3624,0,0,1,8.7763,2.0991,21.6537,21.6537,0,0,1-.2359-4.6961,21.6547,21.6547,0,0,1,2.3348-4.0813,8.362,8.362,0,0,1-8.7763-2.0991A21.6506,21.6506,0,0,1,1320,441.561,21.6478,21.6478,0,0,1,1317.6653,445.6423Z" opacity="0.5" fill="url(#radial-gradient-81)"/><path d="M1602.3119,357.7044a8.3614,8.3614,0,0,1,8.7758,2.0994,21.66,21.66,0,0,1-.2356-4.6962,21.6571,21.6571,0,0,1,2.3344-4.0813,8.36,8.36,0,0,1-8.776-2.0991,21.6651,21.6651,0,0,1,.2361,4.6961A21.6569,21.6569,0,0,1,1602.3119,357.7044Z" opacity="0.5" fill="url(#radial-gradient-82)"/><path d="M1501.6721,374.9452a2.1327,2.1327,0,1,1,.7016-2.9335A2.1323,2.1323,0,0,1,1501.6721,374.9452Zm42.2451-5.919a4.2654,4.2654,0,1,0-1.4031,5.867A4.265,4.265,0,0,0,1543.9172,369.0262Zm-39.153,34.054a8.5308,8.5308,0,1,0-2.806,11.7344A8.53,8.53,0,0,0,1504.7642,403.08ZM1457.6,345.2787a4.2652,4.2652,0,1,0-1.4031,5.867A4.2648,4.2648,0,0,0,1457.6,345.2787Z" fill="url(#radial-gradient-83)"/><path d="M1827.3068,613.3461a2.1328,2.1328,0,1,1-.45,2.9827A2.1325,2.1325,0,0,1,1827.3068,613.3461Zm-41.59,9.4822a4.2653,4.2653,0,1,0,.9-5.9651A4.2653,4.2653,0,0,0,1785.7164,622.8283Zm36.1233-37.2534a8.5307,8.5307,0,1,0,1.8007-11.93A8.53,8.53,0,0,0,1821.84,585.5749Zm51.8967,53.5917a4.2652,4.2652,0,1,0,.9-5.965A4.2642,4.2642,0,0,0,1873.7364,639.1666Z" fill="url(#linear-gradient-14)"/><path d="M2736.1134,500.61a6.41,6.41,0,1,0,2.1082-8.8166A6.409,6.409,0,0,0,2736.1134,500.61Z" opacity="0.5" fill="url(#radial-gradient-84)"/><path d="M2980.855,227.996a8.3625,8.3625,0,0,1,8.776,2.0991,21.6385,21.6385,0,0,1-.2356-4.6959,21.6393,21.6393,0,0,1,2.3344-4.0813,8.3629,8.3629,0,0,1-8.776-2.0991,21.641,21.641,0,0,1,.2359,4.6959A21.6489,21.6489,0,0,1,2980.855,227.996Z" opacity="0.5" fill="url(#radial-gradient-85)"/><path d="M2968.5908,442.3787a8.363,8.363,0,0,1,8.7761,2.0991,21.6426,21.6426,0,0,1-.2357-4.6959,21.6507,21.6507,0,0,1,2.3345-4.0813,8.3622,8.3622,0,0,1-8.776-2.0989,21.6476,21.6476,0,0,1,.2358,4.6959A21.6468,21.6468,0,0,1,2968.5908,442.3787Z" opacity="0.5" fill="url(#radial-gradient-86)"/><path d="M2848.3651,413.1315a8.363,8.363,0,0,1,8.7762,2.0991,21.6371,21.6371,0,0,1-.2358-4.6961,21.6357,21.6357,0,0,1,2.3347-4.0811,8.3627,8.3627,0,0,1-8.7761-2.0991,21.6447,21.6447,0,0,1,.2357,4.6961A21.6412,21.6412,0,0,1,2848.3651,413.1315Z" opacity="0.5" fill="url(#radial-gradient-87)"/><path d="M2473.7508,175.8605a8.3617,8.3617,0,0,1,8.776,2.0991,21.65,21.65,0,0,1-.2358-4.6961,21.65,21.65,0,0,1,2.3347-4.0813,21.6288,21.6288,0,0,1-4.6953.2359,21.635,21.635,0,0,1-4.0808-2.335,21.6586,21.6586,0,0,1,.2357,4.6961A21.644,21.644,0,0,1,2473.7508,175.8605Z" opacity="0.5" fill="url(#radial-gradient-88)"/><path d="M2758.3971,87.9226a21.6459,21.6459,0,0,1,4.6955-.2357,21.6452,21.6452,0,0,1,4.0806,2.335,21.6677,21.6677,0,0,1-.2359-4.6961,21.6619,21.6619,0,0,1,2.3345-4.0813,21.6483,21.6483,0,0,1-4.6951.2361,21.656,21.656,0,0,1-4.0809-2.3352,21.6466,21.6466,0,0,1,.236,4.6961A21.6468,21.6468,0,0,1,2758.3971,87.9226Z" opacity="0.5" fill="url(#radial-gradient-89)"/><path d="M2657.7576,105.1634a2.1328,2.1328,0,1,1,.7013-2.9335A2.1324,2.1324,0,0,1,2657.7576,105.1634Zm42.2448-5.9191a4.2653,4.2653,0,1,0-1.4028,5.8669A4.2649,4.2649,0,0,0,2700.0024,99.2443Zm-39.153,34.0541a8.5306,8.5306,0,1,0-2.806,11.7343A8.53,8.53,0,0,0,2660.8494,133.2984Zm-47.1639-57.8016a4.2652,4.2652,0,1,0-1.4029,5.8671A4.2648,4.2648,0,0,0,2613.6855,75.4968Z" fill="url(#radial-gradient-90)"/><path d="M2983.392,343.5643a2.1328,2.1328,0,1,1-.45,2.9826A2.1325,2.1325,0,0,1,2983.392,343.5643Zm-41.59,9.4822a4.2654,4.2654,0,1,0,.9-5.9651A4.2653,4.2653,0,0,0,2941.8017,353.0465Zm36.1234-37.2534a8.5307,8.5307,0,1,0,1.8006-11.93A8.53,8.53,0,0,0,2977.9251,315.7931Z" fill="url(#radial-gradient-91)"/></g><g opacity="0.32"><path d="M119.005,292.0692s2.5657,5.9315,4.062,7.4281,7.4274,4.0628,7.4274,4.0628-5.9308,2.5657-7.4274,4.0625-4.062,7.4284-4.062,7.4284-2.5656-5.9316-4.0622-7.4284-7.4272-4.0625-7.4272-4.0625,5.9308-2.566,7.4272-4.0628S119.005,292.0692,119.005,292.0692Z" fill="#fff"/><path d="M145.872,163.4824s4.2769,9.8879,6.7716,12.3829,12.3811,6.7722,12.3811,6.7722-9.8864,4.2775-12.3811,6.7723-6.7716,12.3829-6.7716,12.3829-4.2766-9.8879-6.7713-12.3829-12.3811-6.7723-12.3811-6.7723,9.8864-4.2774,12.3811-6.7722S145.872,163.4824,145.872,163.4824Z" fill="#fff"/><path d="M159.9213,390.8528s4.2767,9.8876,6.7714,12.3827,12.381,6.7722,12.381,6.7722-9.8863,4.2775-12.381,6.7725-6.7714,12.3827-6.7714,12.3827-4.2769-9.8879-6.7716-12.3827-12.3811-6.7725-12.3811-6.7725,9.8866-4.2772,12.3811-6.7722S159.9213,390.8528,159.9213,390.8528Z" fill="#fff"/><path d="M733.9533,911.636s2.5656,5.9316,4.0622,7.4284,7.4272,4.0625,7.4272,4.0625-5.9308,2.566-7.4272,4.0625-4.0622,7.4284-4.0622,7.4284-2.5657-5.9316-4.0621-7.4284-7.4274-4.0625-7.4274-4.0625,5.9308-2.566,7.4274-4.0625S733.9533,911.636,733.9533,911.636Z" fill="#fff"/><path d="M765.8833,642.1128s2.5654,5.9316,4.062,7.4284,7.4272,4.0625,7.4272,4.0625-5.9306,2.566-7.4272,4.0628-4.062,7.4281-4.062,7.4281-2.5657-5.9316-4.0623-7.4281-7.4271-4.0628-7.4271-4.0628,5.93-2.5657,7.4271-4.0625S765.8833,642.1128,765.8833,642.1128Z" fill="#fff"/><path d="M1113.234,870.3337s2.5657,5.9316,4.062,7.4281,7.4274,4.0628,7.4274,4.0628-5.9308,2.5657-7.4274,4.0625-4.062,7.4284-4.062,7.4284-2.5656-5.9316-4.0622-7.4284-7.4272-4.0625-7.4272-4.0625,5.9308-2.566,7.4272-4.0628S1113.234,870.3337,1113.234,870.3337Z" fill="#fff"/><path d="M1140.101,741.7469s4.2769,9.8879,6.7716,12.3829,12.3811,6.7723,12.3811,6.7723-9.8864,4.2774-12.3811,6.7722-6.7716,12.3829-6.7716,12.3829-4.2767-9.8879-6.7713-12.3829-12.3811-6.7722-12.3811-6.7722,9.8864-4.2775,12.3811-6.7723S1140.101,741.7469,1140.101,741.7469Z" fill="#fff"/><path d="M1154.15,969.1173s4.2767,9.8877,6.7713,12.3827,12.3811,6.7722,12.3811,6.7722-9.8864,4.2775-12.3811,6.7725-6.7713,12.3827-6.7713,12.3827-4.2769-9.8879-6.7716-12.3827-12.3811-6.7725-12.3811-6.7725,9.8866-4.2772,12.3811-6.7722S1154.15,969.1173,1154.15,969.1173Z" fill="#fff" opacity="0.5"/><path d="M663.7077,718.7546s4.2766,9.8877,6.7713,12.3827S682.86,737.91,682.86,737.91s-9.8864,4.2775-12.3811,6.7725-6.7713,12.3827-6.7713,12.3827-4.2769-9.8879-6.7716-12.3827S644.555,737.91,644.555,737.91s9.8866-4.2772,12.3811-6.7722S663.7077,718.7546,663.7077,718.7546Z" fill="#fff" opacity="0.5"/><path d="M285.142,883.3437s1.8616,4.3038,2.9477,5.39,5.389,2.9479,5.389,2.9479-4.3032,1.8618-5.389,2.9476-2.9477,5.39-2.9477,5.39-1.8614-4.304-2.9472-5.39-5.3893-2.9476-5.3893-2.9476,4.3033-1.8619,5.3893-2.9479S285.142,883.3437,285.142,883.3437Z" fill="#fff"/><path d="M308.31,687.7794s1.8614,4.3038,2.9474,5.39,5.389,2.9479,5.389,2.9479-4.303,1.8618-5.389,2.9478-2.9474,5.39-2.9474,5.39-1.8617-4.304-2.9475-5.39-5.3892-2.9478-5.3892-2.9478,4.3032-1.8617,5.3892-2.9479S308.31,687.7794,308.31,687.7794Z" fill="#fff"/><path d="M560.3458,853.3749s1.8616,4.3041,2.9474,5.39,5.3893,2.9478,5.3893,2.9478-4.3035,1.8617-5.3893,2.9478-2.9474,5.39-2.9474,5.39-1.8617-4.304-2.9475-5.39-5.3892-2.9478-5.3892-2.9478,4.3034-1.8619,5.3892-2.9478S560.3458,853.3749,560.3458,853.3749Z" fill="#fff"/><path d="M579.84,760.0732s3.1034,7.1746,4.9135,8.985,8.9835,4.9139,8.9835,4.9139-7.1734,3.1036-8.9835,4.9139-4.9135,8.985-4.9135,8.985-3.1032-7.1746-4.9133-8.985-8.9835-4.9139-8.9835-4.9139,7.1734-3.1036,8.9835-4.9139S579.84,760.0732,579.84,760.0732Z" fill="#fff"/><path d="M590.0344,925.0517s3.1032,7.1744,4.9133,8.9847,8.9835,4.914,8.9835,4.914-7.1734,3.1038-8.9835,4.9141-4.9133,8.9848-4.9133,8.9848-3.1032-7.1747-4.9135-8.9848-8.9836-4.9141-8.9836-4.9141,7.1737-3.1034,8.9836-4.914S590.0344,925.0517,590.0344,925.0517Z" fill="#fff" opacity="0.5"/><path d="M234.1725,743.39s3.1029,7.1746,4.9131,8.985,8.9837,4.9139,8.9837,4.9139-7.1735,3.1036-8.9837,4.9139-4.9131,8.9847-4.9131,8.9847-3.1035-7.1744-4.9136-8.9847-8.9835-4.9139-8.9835-4.9139,7.1737-3.1036,8.9835-4.9139S234.1725,743.39,234.1725,743.39Z" fill="#fff"/><path d="M574.1645,272.77s1.7265-4.36,1.7265-5.8957-1.7265-5.8956-1.7265-5.8956,4.3593,1.7268,5.8947,1.7268,5.8951-1.7268,5.8951-1.7268-1.7267,4.36-1.7267,5.8956,1.7267,5.8957,1.7267,5.8957-4.3593-1.7267-5.8949-1.7269S574.1645,272.77,574.1645,272.77Z" fill="#fff"/><path d="M419.5152,394.6705s1.7266-4.36,1.7266-5.8959-1.7263-5.8954-1.7263-5.8954,4.3589,1.7267,5.8948,1.7267,5.8946-1.7269,5.8946-1.7269-1.7264,4.36-1.7264,5.8956,1.7264,5.8959,1.7264,5.8959-4.3589-1.7269-5.8946-1.7269S419.5152,394.6705,419.5152,394.6705Z" fill="#fff"/><path d="M358.3777,99.3375s1.7266-4.36,1.7266-5.8956-1.7266-5.8959-1.7266-5.8959,4.3592,1.7269,5.8948,1.7269,5.8951-1.7269,5.8951-1.7269-1.7266,4.36-1.7266,5.8959,1.7266,5.8956,1.7266,5.8956-4.3594-1.7268-5.8951-1.7268S358.3777,99.3375,358.3777,99.3375Z" fill="#fff"/><path d="M278.6272,151.5253s2.8783-7.2679,2.8783-9.8281-2.8783-9.8278-2.8783-9.8278,7.267,2.8784,9.8266,2.8784,9.8268-2.8784,9.8268-2.8784-2.8782,7.2676-2.8782,9.8278,2.8782,9.8279,2.8782,9.8279-7.2667-2.8784-9.8266-2.8787S278.6272,151.5253,278.6272,151.5253Z" fill="#fff" opacity="0.5"/><path d="M388.0613,27.6585s2.8781-7.2677,2.8781-9.8278-2.8781-9.8279-2.8781-9.8279,7.2668,2.8784,9.8266,2.8784,9.8266-2.8784,9.8266-2.8784-2.878,7.2677-2.878,9.8279,2.878,9.828,2.878,9.828-7.2667-2.8786-9.8266-2.8786S388.0613,27.6585,388.0613,27.6585Z" fill="#fff"/><path d="M511.2564,407.7778s2.878-7.2674,2.878-9.8278-2.878-9.8279-2.878-9.8279,7.2667,2.8786,9.8266,2.8786,9.8265-2.8786,9.8265-2.8786-2.878,7.2679-2.878,9.8279,2.878,9.828,2.878,9.828-7.2667-2.8786-9.8265-2.8786S511.2564,407.7778,511.2564,407.7778Z" fill="#fff" opacity="0.5"/><path d="M1177.3014,352.3215s2.38-6.0085,2.38-8.1255-2.38-8.1251-2.38-8.1251,6.008,2.38,8.1242,2.38,8.1243-2.38,8.1243-2.38-2.38,6.0088-2.38,8.1253,2.38,8.1253,2.38,8.1253-6.0078-2.38-8.1243-2.38S1177.3014,352.3215,1177.3014,352.3215Z" fill="#fff" opacity="0.5"/><path d="M964.1667,520.3224s2.38-6.0086,2.38-8.1253-2.3794-8.1251-2.3794-8.1251,6.0076,2.38,8.1241,2.38,8.1242-2.38,8.1242-2.38-2.38,6.0085-2.3793,8.1253,2.3793,8.1253,2.3793,8.1253-6.0075-2.38-8.1242-2.38S964.1667,520.3224,964.1667,520.3224Z" fill="#fff"/><path d="M879.9082,113.3s2.3794-6.0088,2.3794-8.1251-2.3794-8.1255-2.3794-8.1255,6.0076,2.38,8.1241,2.38,8.1242-2.38,8.1242-2.38-2.3793,6.0085-2.3793,8.1255,2.3793,8.1251,2.3793,8.1251-6.0078-2.38-8.1242-2.38S879.9082,113.3,879.9082,113.3Z" fill="#fff"/><path d="M769.9975,185.2241s3.9667-10.0165,3.9667-13.545-3.9667-13.5445-3.9667-13.5445,10.0149,3.9671,13.543,3.9671,13.5429-3.9671,13.5429-3.9671-3.9667,10.0162-3.9667,13.5447,3.9667,13.5445,3.9667,13.5445-10.0149-3.967-13.5429-3.9672S769.9975,185.2241,769.9975,185.2241Z" fill="#fff" opacity="0.5"/><path d="M1090.6026,538.3869s3.9668-10.0162,3.9668-13.5447-3.9668-13.5445-3.9668-13.5445,10.0149,3.967,13.543,3.967,13.5429-3.9672,13.5429-3.9672-3.9667,10.0164-3.9665,13.5447,3.9665,13.5447,3.9665,13.5447-10.0151-3.9672-13.5429-3.967S1090.6026,538.3869,1090.6026,538.3869Z" fill="#fff"/><path d="M115.6667,883.6423s2.38-6.0086,2.38-8.1253-2.38-8.1251-2.38-8.1251,6.008,2.38,8.1242,2.38,8.1243-2.38,8.1243-2.38-2.38,6.0085-2.38,8.1253,2.38,8.1251,2.38,8.1251-6.0078-2.38-8.1243-2.38S115.6667,883.6423,115.6667,883.6423Z" fill="#fff" opacity="0.5"/><path d="M28.9679,1069.7077s3.9668-10.016,3.9668-13.5445-3.9668-13.5447-3.9668-13.5447,10.0149,3.967,13.543,3.967,13.5427-3.967,13.5427-3.967-3.9665,10.0164-3.9665,13.5447,3.9665,13.5447,3.9665,13.5447-10.0149-3.9673-13.5427-3.9673S28.9679,1069.7077,28.9679,1069.7077Z" fill="#fff"/><path d="M101.4168,376.6839a6.41,6.41,0,1,0-6.4094-6.41A6.41,6.41,0,0,0,101.4168,376.6839Z" opacity="0.5" fill="url(#radial-gradient-92)"/><path d="M173.4413,148.0756a21.65,21.65,0,0,1,2.2559-4.1251,21.6336,21.6336,0,0,1,4.1247-2.2564,21.6415,21.6415,0,0,1-4.1247-2.2562,21.6627,21.6627,0,0,1-2.2559-4.1253,21.6591,21.6591,0,0,1-2.2557,4.1253,21.6415,21.6415,0,0,1-4.1247,2.2562,21.6336,21.6336,0,0,1,4.1247,2.2564A21.6468,21.6468,0,0,1,173.4413,148.0756Z" opacity="0.5" fill="url(#radial-gradient-93)"/><path d="M85.6135,235.24a21.6332,21.6332,0,0,1,2.2559-4.1251,21.6276,21.6276,0,0,1,4.1247-2.2564,21.6373,21.6373,0,0,1-4.1247-2.2563,21.6363,21.6363,0,0,1-2.2559-4.1252,21.6381,21.6381,0,0,1-2.256,4.1252,21.6343,21.6343,0,0,1-4.1247,2.2563,21.6246,21.6246,0,0,1,4.1247,2.2564A21.635,21.635,0,0,1,85.6135,235.24Z" opacity="0.5" fill="url(#radial-gradient-94)"/><path d="M96.9888,83.7566a2.1325,2.1325,0,1,1,2.3057,1.9443A2.1329,2.1329,0,0,1,96.9888,83.7566ZM83.3064,124.1654a4.2657,4.2657,0,1,0-4.6116-3.8885A4.2657,4.2657,0,0,0,83.3064,124.1654ZM70.465,73.885a8.5314,8.5314,0,1,0-9.2231-7.7769A8.5312,8.5312,0,0,0,70.465,73.885Z" fill="url(#radial-gradient-95)"/><path d="M1095.6458,954.9484a6.41,6.41,0,1,0-6.4094-6.41A6.41,6.41,0,0,0,1095.6458,954.9484Z" opacity="0.5" fill="url(#radial-gradient-96)"/><path d="M991.4175,603.7135a8.3634,8.3634,0,0,1,6.3807-6.3815,8.3634,8.3634,0,0,1-6.3807-6.3815,8.3634,8.3634,0,0,1-6.3806,6.3815,8.3634,8.3634,0,0,1,6.3806,6.3815Z" opacity="0.5" fill="url(#radial-gradient-97)"/><path d="M1167.67,726.34a8.3638,8.3638,0,0,1,6.3807-6.3815,8.3638,8.3638,0,0,1-6.3807-6.3815,8.3628,8.3628,0,0,1-6.38,6.3815,8.3628,8.3628,0,0,1,6.38,6.3815Z" opacity="0.5" fill="url(#radial-gradient-98)"/><path d="M1079.8424,813.5045a8.3638,8.3638,0,0,1,6.3807-6.3815,8.3638,8.3638,0,0,1-6.3807-6.3815,8.3634,8.3634,0,0,1-6.3806,6.3815,8.3634,8.3634,0,0,1,6.3806,6.3815Z" opacity="0.5" fill="url(#radial-gradient-99)"/><path d="M681.6563,1008.6367a8.3638,8.3638,0,0,1,6.3806-6.3815,8.3635,8.3635,0,0,1-6.3806-6.3814,8.3638,8.3638,0,0,1-6.3807,6.3814,8.3641,8.3641,0,0,1,6.3807,6.3815Z" opacity="0.5" fill="url(#radial-gradient-100)"/><path d="M755.6655,720.0211a8.3631,8.3631,0,0,1,6.3807-6.3813,8.3646,8.3646,0,0,1-6.3807-6.3814,8.3635,8.3635,0,0,1-6.3806,6.3814,8.3621,8.3621,0,0,1,6.3806,6.3813Z" opacity="0.5" fill="url(#radial-gradient-101)"/><path d="M717.6972,814.8169a2.1326,2.1326,0,1,1-2.1326-2.1328A2.1328,2.1328,0,0,1,717.6972,814.8169Zm17.0607-39.1023a4.2658,4.2658,0,1,0,4.2651,4.2656A4.2655,4.2655,0,0,0,734.7579,775.7146Zm8.53,51.1884a8.5315,8.5315,0,1,0,8.53,8.5315A8.5308,8.5308,0,0,0,743.288,826.903Zm-73.9291,9.9535a4.2657,4.2657,0,1,0,4.265,4.2656A4.2654,4.2654,0,0,0,669.3589,836.8565Z" fill="url(#radial-gradient-102)"/><path d="M1091.2178,662.0212a2.1325,2.1325,0,1,1,2.3057,1.9442A2.1329,2.1329,0,0,1,1091.2178,662.0212ZM1077.5354,702.43a4.2657,4.2657,0,1,0-4.6116-3.8885A4.2657,4.2657,0,0,0,1077.5354,702.43Zm-12.8414-50.28a8.5314,8.5314,0,1,0-9.2232-7.777A8.5311,8.5311,0,0,0,1064.694,652.15Zm72.8186-16.19a4.2657,4.2657,0,1,0-4.6116-3.8885A4.2654,4.2654,0,0,0,1137.5126,635.96Z" fill="url(#radial-gradient-103)"/><path d="M547.584,914.7708a4.6512,4.6512,0,1,0-4.6509-4.651A4.6507,4.6507,0,0,0,547.584,914.7708Z" opacity="0.5" fill="url(#radial-gradient-104)"/><path d="M471.9565,659.9171a6.0693,6.0693,0,0,1,4.63-4.63,6.0683,6.0683,0,0,1-4.63-4.63,6.0675,6.0675,0,0,1-4.63,4.63,6.0684,6.0684,0,0,1,4.63,4.63Z" opacity="0.5" fill="url(#radial-gradient-105)"/><path d="M599.8444,748.8941a6.0695,6.0695,0,0,1,4.63-4.63,6.0693,6.0693,0,0,1-4.63-4.63,6.0683,6.0683,0,0,1-4.63,4.63,6.0684,6.0684,0,0,1,4.63,4.63Z" opacity="0.5" fill="url(#radial-gradient-106)"/><path d="M536.1172,812.14a6.0684,6.0684,0,0,1,4.63-4.63,6.0679,6.0679,0,0,1-4.63-4.63,6.0688,6.0688,0,0,1-4.63,4.63,6.0693,6.0693,0,0,1,4.63,4.63Z" opacity="0.5" fill="url(#radial-gradient-107)"/><path d="M247.1957,953.7268a15.7148,15.7148,0,0,1,1.637-2.9932,15.7019,15.7019,0,0,1,2.9927-1.6371,15.7037,15.7037,0,0,1-2.9927-1.6372,15.7149,15.7149,0,0,1-1.637-2.9933,15.7094,15.7094,0,0,1-1.6367,2.9933,15.707,15.707,0,0,1-2.993,1.6372,15.7052,15.7052,0,0,1,2.993,1.6371A15.7094,15.7094,0,0,1,247.1957,953.7268Z" opacity="0.5" fill="url(#radial-gradient-108)"/><path d="M300.8963,744.3091a15.7191,15.7191,0,0,1,1.6369-2.9933,15.7082,15.7082,0,0,1,2.993-1.6368,15.7058,15.7058,0,0,1-2.993-1.6373,15.713,15.713,0,0,1-1.6369-2.9932,15.7057,15.7057,0,0,1-1.6365,2.9932,15.709,15.709,0,0,1-2.9932,1.6373,15.7114,15.7114,0,0,1,2.9932,1.6368A15.7118,15.7118,0,0,1,300.8963,744.3091Z" opacity="0.5" fill="url(#radial-gradient-109)"/><path d="M273.3467,813.0923a1.5473,1.5473,0,1,1-1.5473-1.5475A1.5475,1.5475,0,0,1,273.3467,813.0923ZM285.726,784.72a3.0951,3.0951,0,1,0,3.0947,3.0951A3.095,3.095,0,0,0,285.726,784.72Zm6.1894,37.1418a6.19,6.19,0,1,0,6.19,6.19A6.19,6.19,0,0,0,291.9154,821.8619Zm-53.6426,7.2224a3.0951,3.0951,0,1,0,3.0948,3.0951A3.0948,3.0948,0,0,0,238.2728,829.0843Z" fill="url(#radial-gradient-110)"/><path d="M544.3711,702.2248a1.5473,1.5473,0,1,1,1.6729,1.4107A1.5474,1.5474,0,0,1,544.3711,702.2248Zm-9.9279,29.32a3.0951,3.0951,0,1,0-3.3462-2.8215A3.0951,3.0951,0,0,0,534.4432,731.545Zm-9.3176-36.483a6.19,6.19,0,1,0-6.6924-5.643A6.19,6.19,0,0,0,525.1256,695.062Zm52.8365-11.7471a3.0952,3.0952,0,1,0-3.3462-2.8215A3.0951,3.0951,0,0,0,577.9621,683.3149Z" fill="url(#radial-gradient-111)"/><path d="M410.8094,64.9492a4.6507,4.6507,0,1,0,0,6.5778A4.65,4.65,0,0,0,410.8094,64.9492Z" opacity="0.5" fill="url(#radial-gradient-112)"/><path d="M284.1008,298.6417a15.7016,15.7016,0,0,1-3.2739.9589,15.7034,15.7034,0,0,1-3.2736-.9589,15.6951,15.6951,0,0,1,.9588,3.2741,15.7082,15.7082,0,0,1-.9588,3.2743,15.6979,15.6979,0,0,1,3.2739-.9592,15.7036,15.7036,0,0,1,3.2736.9592,15.6947,15.6947,0,0,1-.9587-3.2743A15.69,15.69,0,0,1,284.1008,298.6417Z" opacity="0.5" fill="url(#radial-gradient-113)"/><path d="M256.5785,145.2833a15.6987,15.6987,0,0,1-3.2737.9587,15.6916,15.6916,0,0,1-3.2739-.9587,15.7,15.7,0,0,1,.9591,3.2741,15.7244,15.7244,0,0,1-.9591,3.2741,15.7074,15.7074,0,0,1,3.2737-.959,15.7023,15.7023,0,0,1,3.2739.959,15.707,15.707,0,0,1-.9589-3.2743A15.7075,15.7075,0,0,1,256.5785,145.2833Z" opacity="0.5" fill="url(#radial-gradient-114)"/><path d="M346.3563,145.6294a15.6892,15.6892,0,0,1-3.2737.959,15.69,15.69,0,0,1-3.2736-.959,15.7082,15.7082,0,0,1,.9588,3.2743,15.7114,15.7114,0,0,1-.9588,3.2741,15.691,15.691,0,0,1,3.2736-.9589,15.69,15.69,0,0,1,3.2737.9589,15.6915,15.6915,0,0,1-.9588-3.2743A15.7094,15.7094,0,0,1,346.3563,145.6294Z" opacity="0.5" fill="url(#radial-gradient-115)"/><path d="M650.7585,249.8374a6.068,6.068,0,0,1-6.5476,0,15.7081,15.7081,0,0,1,.9588,3.274,15.7115,15.7115,0,0,1-.9588,3.2744,6.0675,6.0675,0,0,1,6.5476,0,15.71,15.71,0,0,1-.9589-3.2744A15.7069,15.7069,0,0,1,650.7585,249.8374Z" opacity="0.5" fill="url(#radial-gradient-116)"/><path d="M464.7251,359.9409a15.7062,15.7062,0,0,1-3.2739.959,15.6991,15.6991,0,0,1-3.2737-.9592,15.7121,15.7121,0,0,1,.9588,3.2743,15.71,15.71,0,0,1-.9586,3.2741,15.7125,15.7125,0,0,1,3.2735-.9589,15.7075,15.7075,0,0,1,3.2739.9589,15.7112,15.7112,0,0,1-.959-3.2741A15.7132,15.7132,0,0,1,464.7251,359.9409Z" opacity="0.5" fill="url(#radial-gradient-117)"/><path d="M532.8364,330.787a1.5475,1.5475,0,1,1,0,2.1886A1.5471,1.5471,0,0,1,532.8364,330.787Zm-28.8133,11.3077a3.0951,3.0951,0,1,0,0-4.3773A3.0948,3.0948,0,0,0,504.0231,342.0947Zm21.8835-30.64a6.19,6.19,0,1,0,0-8.7544A6.189,6.189,0,0,0,525.9066,311.4542Zm43.0371,32.8291a3.095,3.095,0,1,0,0-4.3773A3.0944,3.0944,0,0,0,568.9437,344.2833Z" fill="url(#linear-gradient-15)"/><path d="M262.8083,217.5142a1.5474,1.5474,0,1,1-.1857-2.1808A1.5476,1.5476,0,0,1,262.8083,217.5142Zm27.75-13.7117a3.095,3.095,0,1,0,.3714,4.3614A3.0948,3.0948,0,0,0,290.5582,203.8025Zm-19.2055,32.3868a6.19,6.19,0,1,0,.7426,8.723A6.1893,6.1893,0,0,0,271.3527,236.1893Zm-45.6666-29.06a3.0951,3.0951,0,1,0,.3712,4.3615A3.0942,3.0942,0,0,0,225.6861,207.13Z" fill="url(#radial-gradient-118)"/><path d="M952.1688,65.9066a6.41,6.41,0,1,0,0,9.0653A6.409,6.409,0,0,0,952.1688,65.9066Z" opacity="0.5" fill="url(#radial-gradient-119)"/><path d="M777.5409,387.9773a8.362,8.362,0,0,1-9.0235,0,21.6488,21.6488,0,0,1,1.3215,4.5122,21.6417,21.6417,0,0,1-1.3215,4.5124,8.362,8.362,0,0,1,9.0235,0A21.6376,21.6376,0,0,1,776.22,392.49,21.6488,21.6488,0,0,1,777.5409,387.9773Z" opacity="0.5" fill="url(#radial-gradient-120)"/><path d="M739.61,176.6214a21.6467,21.6467,0,0,1-4.5117,1.3216,21.64,21.64,0,0,1-4.5121-1.3216,21.6452,21.6452,0,0,1,1.3217,4.5124,21.6582,21.6582,0,0,1-1.3217,4.5123,21.6579,21.6579,0,0,1,4.5119-1.3216,21.6376,21.6376,0,0,1,4.5116,1.3216,21.6382,21.6382,0,0,1-1.3212-4.5125A21.6527,21.6527,0,0,1,739.61,176.6214Z" opacity="0.5" fill="url(#radial-gradient-121)"/><path d="M863.34,177.0985a8.362,8.362,0,0,1-9.0235,0,21.6521,21.6521,0,0,1,1.3214,4.5125,21.6341,21.6341,0,0,1-1.3214,4.5124,8.362,8.362,0,0,1,9.0235,0,21.64,21.64,0,0,1-1.3214-4.5124A21.64,21.64,0,0,1,863.34,177.0985Z" opacity="0.5" fill="url(#radial-gradient-122)"/><path d="M1282.862,320.7161a8.3624,8.3624,0,0,1-9.0237,0,21.6488,21.6488,0,0,1,1.3214,4.5124,21.6553,21.6553,0,0,1-1.3214,4.5123,8.3624,8.3624,0,0,1,9.0237,0,21.6541,21.6541,0,0,1-1.3214-4.5125A21.6461,21.6461,0,0,1,1282.862,320.7161Z" opacity="0.5" fill="url(#radial-gradient-123)"/><path d="M1026.4739,472.4589a8.3615,8.3615,0,0,1-9.0235,0,21.647,21.647,0,0,1,1.3215,4.5125,21.6513,21.6513,0,0,1-1.3213,4.5122,8.3622,8.3622,0,0,1,9.0236,0,21.6563,21.6563,0,0,1-1.3219-4.5122A21.6614,21.6614,0,0,1,1026.4739,472.4589Z" opacity="0.5" fill="url(#radial-gradient-124)"/><path d="M1120.3437,432.2792a2.1327,2.1327,0,1,1,0,3.0163A2.1324,2.1324,0,0,1,1120.3437,432.2792Zm-39.71,15.5842a4.2655,4.2655,0,1,0,0-6.0324A4.2648,4.2648,0,0,0,1080.6341,447.8634Zm30.1592-42.2282a8.531,8.531,0,1,0,0-12.0654A8.53,8.53,0,0,0,1110.7933,405.6352Zm59.3132,45.2445a4.2653,4.2653,0,1,0,0-6.0326A4.2646,4.2646,0,0,0,1170.1065,450.88Z" fill="url(#radial-gradient-125)"/><path d="M748.196,276.1687a2.1326,2.1326,0,1,1-.256-3.0052A2.1325,2.1325,0,0,1,748.196,276.1687Zm38.2444-18.897a4.2655,4.2655,0,1,0,.5116,6.0108A4.2649,4.2649,0,0,0,786.44,257.2717Zm-26.4687,44.6349a8.531,8.531,0,1,0,1.0235,12.0218A8.53,8.53,0,0,0,759.9717,301.9066Zm-62.937-40.0492a4.2654,4.2654,0,1,0,.5119,6.0108A4.2641,4.2641,0,0,0,697.0347,261.8574Z" fill="url(#radial-gradient-126)"/><path d="M221.2271,852.0368a21.6552,21.6552,0,0,1-4.5117,1.3216,21.6461,21.6461,0,0,1-4.5118-1.3216,8.3655,8.3655,0,0,1,0,9.0249,21.6337,21.6337,0,0,1,4.5118-1.3216,21.63,21.63,0,0,1,4.5117,1.3216,8.3666,8.3666,0,0,1,0-9.0249Z" opacity="0.5" fill="url(#radial-gradient-127)"/><path d="M58.709,963.6a2.1327,2.1327,0,1,1,0,3.0162A2.1326,2.1326,0,0,1,58.709,963.6ZM19,979.1844a4.2654,4.2654,0,1,0,0-6.0327A4.265,4.265,0,0,0,19,979.1844Zm30.1591-42.2282a8.531,8.531,0,1,0,0-12.0654A8.53,8.53,0,0,0,49.1586,936.9562Zm59.3132,45.2443a4.2653,4.2653,0,1,0,0-6.0324A4.2647,4.2647,0,0,0,108.4718,982.2005Z" fill="url(#radial-gradient-128)"/><path d="M766.9547,727.5833a6.41,6.41,0,1,0,4.743,7.7252A6.4093,6.4093,0,0,0,766.9547,727.5833Z" opacity="0.5" fill="url(#radial-gradient-129)"/><path d="M786.6384,1093.4313a8.3627,8.3627,0,0,1-7.69,4.7222,8.3651,8.3651,0,0,1,4.7216,7.6908,8.3622,8.3622,0,0,1,7.69-4.7222,8.3637,8.3637,0,0,1-4.7216-7.6908Z" opacity="0.5" fill="url(#radial-gradient-130)"/><path d="M643.7386,933.1665a21.6307,21.6307,0,0,1-3.1534,3.4872,21.631,21.631,0,0,1-4.5362,1.235A8.364,8.364,0,0,1,640.77,945.58a8.3626,8.3626,0,0,1,7.69-4.7222,8.3646,8.3646,0,0,1-4.7214-7.6908Z" opacity="0.5" fill="url(#radial-gradient-131)"/><path d="M749.4293,868.8241a8.3634,8.3634,0,0,1-7.69,4.7223,8.364,8.364,0,0,1,4.7217,7.6905,8.3626,8.3626,0,0,1,7.69-4.722,8.3646,8.3646,0,0,1-4.7217-7.6908Z" opacity="0.5" fill="url(#radial-gradient-132)"/><path d="M1182.0759,771.6732a8.3636,8.3636,0,0,1-7.69,4.7222,8.3643,8.3643,0,0,1,4.7217,7.6906,8.3626,8.3626,0,0,1,7.6895-4.722,8.365,8.365,0,0,1-4.7214-7.6908Z" opacity="0.5" fill="url(#radial-gradient-133)"/><path d="M1042.9738,1035.1564a8.3623,8.3623,0,0,1-7.69,4.7218,8.3643,8.3643,0,0,1,4.7216,7.6908,8.3629,8.3629,0,0,1,7.69-4.7223,8.3622,8.3622,0,0,1-4.7216-7.69Z" opacity="0.5" fill="url(#radial-gradient-134)"/><path d="M1101.9473,951.793a2.1326,2.1326,0,1,1,1.578,2.57A2.1325,2.1325,0,0,1,1101.9473,951.793Zm-25.6868,34.0609a4.2656,4.2656,0,1,0-3.1561-5.1408A4.265,4.265,0,0,0,1076.2605,985.8539Zm3.6086-51.7688a8.5314,8.5314,0,1,0-6.3122-10.2818A8.53,8.53,0,0,0,1079.8691,934.0851Zm74.2163,7.5176a4.2657,4.2657,0,1,0-3.156-5.1409A4.2652,4.2652,0,0,0,1154.0854,941.6027Z" fill="url(#radial-gradient-135)"/><path d="M703.1359,1013.5064a2.1325,2.1325,0,1,1-1.79-2.4274A2.1325,2.1325,0,0,1,703.1359,1013.5064Zm22.7048-36.1174a4.2656,4.2656,0,1,0,3.5809,4.8545A4.265,4.265,0,0,0,725.8407,977.389Zm.7957,51.8885a8.5314,8.5314,0,1,0,7.1616,9.7091A8.5307,8.5307,0,0,0,726.6364,1029.2775Zm-74.5868-1.194a4.2657,4.2657,0,1,0,3.581,4.8546A4.2649,4.2649,0,0,0,652.05,1028.0835Z" fill="url(#radial-gradient-136)"/><path d="M210.4993,241.4661a21.6565,21.6565,0,0,1-3.1533,3.4872,21.6455,21.6455,0,0,1-4.5364,1.2346,21.65,21.65,0,0,1,3.4869,3.154,21.6509,21.6509,0,0,1,1.2347,4.5368,21.6611,21.6611,0,0,1,3.1531-3.4873,21.6483,21.6483,0,0,1,4.5366-1.2347,21.6616,21.6616,0,0,1-3.4872-3.1539A21.6625,21.6625,0,0,1,210.4993,241.4661Z" opacity="0.5" fill="url(#radial-gradient-137)"/><path d="M269.4728,158.1027a2.1326,2.1326,0,1,1,1.5781,2.57A2.1329,2.1329,0,0,1,269.4728,158.1027ZM243.786,192.1636a4.2656,4.2656,0,1,0-3.156-5.1406A4.2652,4.2652,0,0,0,243.786,192.1636Zm3.6086-51.7686a8.5314,8.5314,0,1,0-6.3121-10.282A8.5306,8.5306,0,0,0,247.3946,140.395Zm74.2164,7.5174a4.2656,4.2656,0,1,0-3.1559-5.1409A4.2649,4.2649,0,0,0,321.611,147.9124Z" fill="url(#radial-gradient-138)"/><path d="M458.1664,100.4634a4.6511,4.6511,0,1,0,3.4416,5.6053A4.65,4.65,0,0,0,458.1664,100.4634Z" opacity="0.5" fill="url(#radial-gradient-139)"/><path d="M472.4487,365.92a15.6968,15.6968,0,0,1-2.2881,2.53,15.6981,15.6981,0,0,1-3.2915.896,15.6944,15.6944,0,0,1,2.53,2.2884,15.6936,15.6936,0,0,1,.8959,3.2919,6.0689,6.0689,0,0,1,5.58-3.4262,15.6986,15.6986,0,0,1-2.53-2.2884A15.7068,15.7068,0,0,1,472.4487,365.92Z" opacity="0.5" fill="url(#radial-gradient-140)"/><path d="M368.7617,249.6333a15.7,15.7,0,0,1-2.2883,2.53,15.6965,15.6965,0,0,1-3.2915.896,15.7062,15.7062,0,0,1,2.53,2.2884,15.7221,15.7221,0,0,1,.8959,3.2919,15.7151,15.7151,0,0,1,2.2878-2.53,15.7035,15.7035,0,0,1,3.2916-.8961,15.7037,15.7037,0,0,1-2.53-2.2885A15.7117,15.7117,0,0,1,368.7617,249.6333Z" opacity="0.5" fill="url(#radial-gradient-141)"/><path d="M445.45,202.9469a15.7011,15.7011,0,0,1-2.2881,2.53,15.7028,15.7028,0,0,1-3.2915.896,15.7093,15.7093,0,0,1,2.53,2.2883,15.7033,15.7033,0,0,1,.8957,3.292,15.6906,15.6906,0,0,1,2.2883-2.53,15.687,15.687,0,0,1,3.2915-.896,15.6914,15.6914,0,0,1-2.53-2.2886A15.7,15.7,0,0,1,445.45,202.9469Z" opacity="0.5" fill="url(#radial-gradient-142)"/><path d="M759.3757,132.4547a15.7226,15.7226,0,0,1-2.288,2.53,15.7076,15.7076,0,0,1-3.2915.896,15.7009,15.7009,0,0,1,2.53,2.2886,15.7141,15.7141,0,0,1,.8959,3.2919,15.6962,15.6962,0,0,1,2.2881-2.53,15.6993,15.6993,0,0,1,3.2915-.8958,15.6979,15.6979,0,0,1-2.53-2.2886A15.7064,15.7064,0,0,1,759.3757,132.4547Z" opacity="0.5" fill="url(#radial-gradient-143)"/><path d="M658.4441,323.6364a6.0681,6.0681,0,0,1-5.58,3.4261,15.71,15.71,0,0,1,2.53,2.2886,15.7037,15.7037,0,0,1,.8959,3.2917,6.0682,6.0682,0,0,1,5.58-3.4263,15.7149,15.7149,0,0,1-2.53-2.2881A15.7191,15.7191,0,0,1,658.4441,323.6364Z" opacity="0.5" fill="url(#radial-gradient-144)"/><path d="M701.235,263.1484a1.5473,1.5473,0,1,1,1.1449,1.865A1.5472,1.5472,0,0,1,701.235,263.1484Zm-18.6384,24.7145a3.0952,3.0952,0,1,0-2.29-3.73A3.095,3.095,0,0,0,682.5966,287.8629ZM685.2152,250.3a6.19,6.19,0,1,0-4.58-7.46A6.1893,6.1893,0,0,0,685.2152,250.3Zm53.8509,5.4547a3.0951,3.0951,0,1,0-2.29-3.73A3.0946,3.0946,0,0,0,739.0661,255.7544Z" fill="url(#radial-gradient-145)"/><path d="M411.86,307.9274a1.5474,1.5474,0,1,1-1.2991-1.7612A1.5475,1.5475,0,0,1,411.86,307.9274Zm16.4746-26.2068a3.0952,3.0952,0,1,0,2.5982,3.5225A3.0952,3.0952,0,0,0,428.3344,281.7206Zm.5772,37.65a6.19,6.19,0,1,0,5.1965,7.0449A6.19,6.19,0,0,0,428.9116,319.3708Zm-54.12-.8663a3.0951,3.0951,0,1,0,2.5983,3.5224A3.0945,3.0945,0,0,0,374.792,318.5045Z" fill="url(#linear-gradient-16)"/><path d="M393.5482,958.7944a4.6507,4.6507,0,1,0,1.53-6.3973A4.65,4.65,0,0,0,393.5482,958.7944Z" opacity="0.5" fill="url(#radial-gradient-146)"/><path d="M571.1311,760.9875a6.0686,6.0686,0,0,1,6.3679,1.5231,6.069,6.069,0,0,1,1.5229-6.3687,6.0675,6.0675,0,0,1-6.3679-1.5232,6.0694,6.0694,0,0,1-1.5229,6.3688Z" opacity="0.5" fill="url(#radial-gradient-147)"/><path d="M562.2323,916.5423a6.0688,6.0688,0,0,1,6.3679,1.5231,6.07,6.07,0,0,1,1.5229-6.3687,6.0666,6.0666,0,0,1-6.3679-1.5229,6.069,6.069,0,0,1-1.5229,6.3685Z" opacity="0.5" fill="url(#radial-gradient-148)"/><path d="M474.9973,895.3206a15.6859,15.6859,0,0,1,3.4069-.1709,15.6847,15.6847,0,0,1,2.9611,1.694,6.0685,6.0685,0,0,1,1.5229-6.3685,15.6879,15.6879,0,0,1-3.4071.1709,15.6882,15.6882,0,0,1-2.9608-1.6942,6.07,6.07,0,0,1-1.523,6.3687Z" opacity="0.5" fill="url(#radial-gradient-149)"/><path d="M203.18,723.1583a15.7153,15.7153,0,0,1,3.4069-.1711,15.7184,15.7184,0,0,1,2.961,1.6943,6.0694,6.0694,0,0,1,1.5229-6.3688,15.7012,15.7012,0,0,1-3.4068.1712,15.6988,15.6988,0,0,1-2.9611-1.6943,6.0687,6.0687,0,0,1-1.5229,6.3687Z" opacity="0.5" fill="url(#radial-gradient-150)"/><path d="M409.7171,659.3511a15.7064,15.7064,0,0,1,3.407-.1709,15.7056,15.7056,0,0,1,2.9609,1.6943,6.0693,6.0693,0,0,1,1.5227-6.3688,15.7118,15.7118,0,0,1-3.4067.1712,15.7072,15.7072,0,0,1-2.961-1.6943,6.068,6.068,0,0,1-1.5229,6.3685Z" opacity="0.5" fill="url(#radial-gradient-151)"/><path d="M336.6936,671.861a1.5475,1.5475,0,1,1,.509-2.1285A1.5472,1.5472,0,0,1,336.6936,671.861Zm30.6528-4.2948a3.0949,3.0949,0,1,0-1.018,4.2571A3.0945,3.0945,0,0,0,367.3464,667.5662Zm-28.4092,24.7093a6.19,6.19,0,1,0-2.0361,8.5145A6.1894,6.1894,0,0,0,338.9372,692.2755Zm-34.2218-41.94a3.0949,3.0949,0,1,0-1.018,4.2571A3.0945,3.0945,0,0,0,304.7154,650.3352Z" fill="url(#radial-gradient-152)"/><path d="M572.972,844.8432a1.5476,1.5476,0,1,1-.3265,2.1641A1.5473,1.5473,0,0,1,572.972,844.8432Zm-30.1778,6.88a3.095,3.095,0,1,0,.6534-4.3284A3.095,3.095,0,0,0,542.7942,851.7235Zm26.211-27.031a6.19,6.19,0,1,0,1.3065-8.6564A6.1889,6.1889,0,0,0,569.0052,824.6925Zm37.6558,38.8859a3.0949,3.0949,0,1,0,.6533-4.3282A3.0942,3.0942,0,0,0,606.661,863.5784Z" fill="url(#radial-gradient-153)"/><path d="M112.0012,559.314a21.6326,21.6326,0,0,1,4.6956-.2357,21.6375,21.6375,0,0,1,4.0805,2.3348,21.6535,21.6535,0,0,1-.2359-4.6959,21.6422,21.6422,0,0,1,2.3347-4.0813,21.6316,21.6316,0,0,1-4.6955.2357,21.6375,21.6375,0,0,1-4.0805-2.3348,21.6385,21.6385,0,0,1,.2356,4.6959A21.6339,21.6339,0,0,1,112.0012,559.314Z" opacity="0.5" fill="url(#radial-gradient-154)"/><path d="M99.7371,773.6967a21.6448,21.6448,0,0,1,4.6953-.2357,21.6385,21.6385,0,0,1,4.0807,2.3348,21.6476,21.6476,0,0,1-.2358-4.6959,21.66,21.66,0,0,1,2.3347-4.0813,21.6418,21.6418,0,0,1-4.6953.2359,21.6367,21.6367,0,0,1-4.0808-2.3348,21.6437,21.6437,0,0,1,.2357,4.6961A21.6577,21.6577,0,0,1,99.7371,773.6967Z" opacity="0.5" fill="url(#radial-gradient-155)"/><path d="M114.5383,674.8823a2.1327,2.1327,0,1,1-.45,2.9826A2.1326,2.1326,0,0,1,114.5383,674.8823Zm-41.59,9.4821a4.2652,4.2652,0,1,0,.9-5.965A4.2651,4.2651,0,0,0,72.948,684.3644Zm36.1233-37.2533a8.5308,8.5308,0,1,0,1.8007-11.93A8.53,8.53,0,0,0,109.0713,647.1111Zm51.8966,53.5917a4.2653,4.2653,0,1,0,.9-5.9651A4.2644,4.2644,0,0,0,160.9679,700.7028Z" fill="url(#radial-gradient-156)"/><path d="M1023.3449,562.146a6.41,6.41,0,1,0,2.1083-8.8167A6.409,6.409,0,0,0,1023.3449,562.146Z" opacity="0.5" fill="url(#radial-gradient-157)"/><path d="M1268.0865,289.5322a8.3627,8.3627,0,0,1,8.7761,2.0991,21.6375,21.6375,0,0,1-.2357-4.6959,21.644,21.644,0,0,1,2.3345-4.0813,8.3633,8.3633,0,0,1-8.776-2.0991,21.6355,21.6355,0,0,1,.2358,4.6959A21.6433,21.6433,0,0,1,1268.0865,289.5322Z" opacity="0.5" fill="url(#radial-gradient-158)"/><path d="M1255.8224,503.9148a8.3632,8.3632,0,0,1,8.776,2.0992,21.6376,21.6376,0,0,1-.2356-4.6959,21.646,21.646,0,0,1,2.3344-4.0813,8.3623,8.3623,0,0,1-8.776-2.0989,21.6526,21.6526,0,0,1,.2359,4.6959A21.6542,21.6542,0,0,1,1255.8224,503.9148Z" opacity="0.5" fill="url(#radial-gradient-159)"/><path d="M1135.5966,474.6676a8.3632,8.3632,0,0,1,8.7763,2.0991,21.6417,21.6417,0,0,1-.2359-4.6961,21.6357,21.6357,0,0,1,2.3347-4.0811,8.3625,8.3625,0,0,1-8.776-2.0991,21.64,21.64,0,0,1,.2356,4.6961A21.6357,21.6357,0,0,1,1135.5966,474.6676Z" opacity="0.5" fill="url(#radial-gradient-160)"/><path d="M760.9823,237.3966a8.362,8.362,0,0,1,8.7761,2.0991,21.6546,21.6546,0,0,1-.2359-4.6961,21.6556,21.6556,0,0,1,2.3347-4.0813,8.3617,8.3617,0,0,1-8.776-2.0991,21.654,21.654,0,0,1,.2356,4.6961A21.6384,21.6384,0,0,1,760.9823,237.3966Z" opacity="0.5" fill="url(#radial-gradient-161)"/><path d="M1045.6287,149.4587a21.6474,21.6474,0,0,1,4.6955-.2356,21.6413,21.6413,0,0,1,4.0805,2.335,21.6637,21.6637,0,0,1-.2358-4.6962,21.6589,21.6589,0,0,1,2.3344-4.0812,21.6543,21.6543,0,0,1-4.695.2361,21.6534,21.6534,0,0,1-4.081-2.3353,21.6527,21.6527,0,0,1,.2361,4.6962A21.6542,21.6542,0,0,1,1045.6287,149.4587Z" opacity="0.5" fill="url(#radial-gradient-162)"/><path d="M944.9891,166.7a2.1328,2.1328,0,1,1,.7014-2.9335A2.1323,2.1323,0,0,1,944.9891,166.7Zm42.2449-5.919a4.2653,4.2653,0,1,0-1.4029,5.8668A4.2647,4.2647,0,0,0,987.234,160.7805Zm-39.153,34.054a8.5307,8.5307,0,1,0-2.806,11.7344A8.53,8.53,0,0,0,948.081,194.8345ZM900.917,137.033a4.2652,4.2652,0,1,0-1.4028,5.867A4.2647,4.2647,0,0,0,900.917,137.033Z" fill="url(#radial-gradient-163)"/><path d="M1270.6236,405.1a2.1328,2.1328,0,1,1-.45,2.9827A2.1324,2.1324,0,0,1,1270.6236,405.1Zm-41.59,9.4822a4.2655,4.2655,0,1,0,.9-5.965A4.2652,4.2652,0,0,0,1229.0332,414.5826Zm36.1235-37.2534a8.5307,8.5307,0,1,0,1.8005-11.93A8.53,8.53,0,0,0,1265.1567,377.3292Zm51.8965,53.5917a4.2653,4.2653,0,1,0,.9-5.965A4.2643,4.2643,0,0,0,1317.0532,430.9209Z" fill="url(#radial-gradient-164)"/></g></g></svg>