<svg id="Layer_1" data-name="Layer 1" xmlns="http://www.w3.org/2000/svg" viewBox="0 0 3000 1112"><title>h10</title><g id="v2"><rect x="1.2793" y="3.1938" width="2999.6099" height="1112" fill="#fff"/><path d="M763.4147,594.2525c-5.0971-6.2924-9.8177-13.2363-16.7944-17.3476s-17.1457-4.2964-22.1355,2.0816c-4.8713,6.2266-2.7266,15.2667.2272,22.6,18.2955,45.4285,60.5177,80.4076,108.5571,89.9336,10.5476,2.0914,21.8417,2.9565,31.7512-1.2185s17.8167-14.6659,15.9377-25.254c-1.5088-8.5-8.77-14.9842-16.7012-18.3923s-16.652-4.3806-25.1-6.15A133.6357,133.6357,0,0,1,763.4147,594.2525Z" fill="#f9006c"/><path d="M145.2089,104.6157c-11.24,16.4242-2.8962,40.1386,12.2,53.1071s35.038,18.34,53.724,25.1881C266.55,203.22,315.36,239.2325,355.7609,282.2589s72.78,92.9918,101.1555,144.7443c5.2829,9.6354,14.1884,20.985,24.6167,17.52,10.1395-3.37,10.8532-17.3392,9.0149-27.865-10.0153-57.3389-37.8067-109.9327-67.83-159.7992-26.96-44.7792-56.6568-88.9674-96.9566-122.2534S232.8562,79.8273,181.0644,86.8748C167.4475,88.7279,152.97,93.2753,145.2089,104.6157Z" fill="#3e00ff"/><path d="M396.9693,712.7437q-25.845-25.92-51.71-51.83-67.77-67.95-135.55-135.89c-5.59-5.6-11.35-11.47-13.96-18.94-5.64-16.18,6.54-34.59,22.64-40.45s34.25-1.81,49.78,5.43a142.2211,142.2211,0,0,1,25.82,15.7c26.28,19.94,46.59,48.13,64.77,76.14a1286.9417,1286.9417,0,0,1,79.7,141.67c8.59,17.81-13.87,34.11-28.47,20.77C405.4993,721.2437,401.1693,716.9637,396.9693,712.7437Zm767.19,402.45h106.47c-74.26-114.88-154.87-230.77-273.54-297.5-68.22-38.35-145.06-58.01-217.9-86.63-69.26-27.2-138.09-65.32-180.19-126.15q-3.27-4.71-6.31-9.61c-8.4-13.51-15.62-28.21-27.6-38.67-11.98-10.47-30.64-15.52-43.85-6.66a26.2983,26.2983,0,0,0-8.06,8.35c-10.24,16.91-.32,44.07,12.12,62.49,69.96,103.68,173.7,184.17,291.51,226.18,20.36,7.26,41.79,13.79,57.85,28.26,16.05,14.47,24.85,39.78,13.46,58.15-15.72,25.38-54,19.91-81.63,8.58-119.3-48.94-212.48-145.81-289.83-248.99-61.47-81.99-115.45-169.71-177.62-250.99-16.07-21-32.67-41.57-50.09-61.5a805.508,805.508,0,0,0-79.46-79.47c-29.17-25.22-60.32-47.99-93.29-67.05-36.19-20.94-74.57-37.41-114.92-47.75v289.74a382.0754,382.0754,0,0,1,51.51,15.26,418.0772,418.0772,0,0,1,74.96,37.21c78.1,48.71,141.94,120.72,201.05,195.33,18.42,23.26,36.39,46.77,54.18,69.91q12.255,15.93,24.43,31.58c20.36,26.07,40.02,53.25,65.91,73.84a212.9807,212.9807,0,0,0,37.53,23.56c14.92,7.27,30.13,12.13,41.39,10.85,5.46-.6,10.01-2.65,13.13-6.57,6.46-20.45-18.02-35.74-37.02-45.67-19-9.94-37.88-35.92-21.43-49.68,12.31-10.3,30.61-.27,43.22,9.66q169.68,133.575,339.38,267.14,4.32,3.39,8.69,6.8h265.95Z" fill="#3e00ff"/><path d="M762.7093,1115.1938a31.2331,31.2331,0,0,1-2.95,3.45,29.939,29.939,0,0,1-22.57,8.84c-.25,0-.51-.01-.77-.02-14.24-.5-27.65-5.3-40.15-12.27a193.3741,193.3741,0,0,1-28.63-20.11,394.6035,394.6035,0,0,1-60.53-62.5c-16.99-21.93,8.75-51.38,32.56-37.16q32.43,19.3651,64.43,39.43,25.185,15.765,50.09,31.97C771.9693,1078.3937,773.1093,1101.0738,762.7093,1115.1938Z" fill="#3e00ff"/><path d="M556.2593,1115.1938h-59.28a1032.2642,1032.2642,0,0,0-162.91-209.25,1021.2754,1021.2754,0,0,0-79.06-70.59q-10.395-8.355-21.09-16.44c-69.52-52.51-148.22-95.41-232.64-111.52v-94.18a1097.1024,1097.1024,0,0,1,192.99,103.42,1127.5617,1127.5617,0,0,1,225.32,199.65q8.79,10.1852,17.31,20.57a1091.3744,1091.3744,0,0,1,115.06,170.38Q554.1493,1111.2087,556.2593,1115.1938Z" fill="#8e2abe"/><path d="M445.8093,1115.1938h-247.88a796.7093,796.7093,0,0,0-196.65-150.25v-145.36a690.6221,690.6221,0,0,1,178.92,137.57q13.695,14.6852,26.52,30.18c9.97,12.05,20.36,25.05,35.17,30.09,14.8,5.04,34.96-2.52,36.64-18.07,2.13-19.69-24.41-33.19-29.46-50.63a19.4746,19.4746,0,0,1-.27-10.16c2.96-12.27,18.26-18.07,30.53-15.09,12.26,2.97,21.95,12.1,30.85,21.04A980.8642,980.8642,0,0,1,445.8093,1115.1938Z" fill="#15003e"/><path d="M410.6793,128.9737q-1.785-1.56-3.54-3.12a765.028,765.028,0,0,0-169.78-113.37,28.3339,28.3339,0,0,1-10.95-9.29h126.39a1103.4754,1103.4754,0,0,1,89.67,94.2C460.5093,118.7237,431.6793,147.4037,410.6793,128.9737Z" fill="#3e00ff"/><path d="M1536.7694,3.1938h-642.96c14.81,39.88,78.47,156.31,83.11,165.57a326.6177,326.6177,0,0,0,142.45,143.47c10.55,5.38,21.74,10.44,29.44,19.43,7.71,9,10.7,23.37,3.22,32.55-10.34,12.69-30.75,7.01-44.97-1.09-61.37-35.01-105.17-94.23-139.93-155.75-27.61-48.89-50.76-100.37-78.81-148.92-7.25-12.55-14.82-24.9-22.88-36.95q-6.195-9.27-12.86-18.31h-196.62l233.18,252.47,78.29,84.76,70.87,76.73c-7.05-1.97-14.99-1.34-20.29,3.41a15.2105,15.2105,0,0,0-3.96,5.41c-4.42,10.34,4.03,24.23,13.14,33.06,33.3,32.34,74.1,57.83,118.79,74.72a364.5435,364.5435,0,0,0,74.93,19.49c12.71,1.89,25.98,3.27,36.85,9.56,10.86,6.3,18.47,19.29,13.51,30.55-6.85,15.55-29.97,16.48-47.37,13.11q-6.795-1.32-13.49-2.96c-69.34-16.93-129.24-58.19-181.42-103.95-44.13-38.69-84.38-81.3-128.86-119.54-2.66-11.51-22.46-14.87-30.11-5.86-7.65,9-5.85,23.19.76,32.98,6.62,9.79,16.95,16.29,26.77,22.86,62.01,41.49,108.47,99.29,165.39,147.53,64.09,54.31,150.6,74.51,225.9,111.76.48.24,48.1247,51.2455,1.46.72l392.7,425.19h916.96Zm-629.88,214.23c-2.15-2.54-4.2-5.17-6.19-7.76q-12.21-15.915-24.44-31.82-32.04-41.7-64.07-83.4c-2.65-3.44-5.36-7.04-6.25-11.28-1.93-9.19,5.99-18.33,15.15-20.38,9.17-2.05,18.74,1.43,26.67,6.46a77.5886,77.5886,0,0,1,12.92,10.35c12.88,12.69,21.93,29.44,29.83,45.95a704.9074,704.9074,0,0,1,33.31,82.6C927.2393,218.4337,913.8793,225.7038,906.8893,217.4237Z" fill="#ffce08"/><polygon points="1357.597 503.683 1493.655 367.625 1509.585 360.496 1531.962 400.216 1401.609 530.569 1357.597 503.683" fill="#25e899"/><path d="M1480.4987,267.3025c8.5949,5.6979,15.1563,13.912,21.5691,21.9876,7.8564,9.8935,15.9993,23.5789,9.07,34.1426-3,4.5733-8.4285,7.4845-10.3026,12.6228-1.6,4.3859-.1793,9.2394-.35,13.9048-.3638,9.9475-7.77,18.0345-14.7351,25.1453l-86.4869,88.2886c-9.6729,9.8744-19.5034,19.873-31.4574,26.8135-9.99,5.8-21.13,9.2678-32.1635,12.6889-10.4259,3.2329-21.62,6.4788-32.0635,3.3045-9.263-2.8153-16.2948-10.2071-22.8753-17.3083-6.1706-6.659-12.5865-13.7761-14.4821-22.6545-1.9389-9.0808,1.1916-18.422,1.3347-27.7064.2069-13.43-5.7933-26.0653-9.0355-39.0992-11.4584-46.0648,14.4391-96.544,55.1245-120.9972,40.9437-24.6084,92.92-25.1737,137.2857-10.03C1452.4476,254.2769,1473.1961,262.4848,1480.4987,267.3025Z" fill="#f2f2f2"/><path d="M1551.9116,457.0192l-93.4995,93.4995a26.059,26.059,0,0,1-36.8532,0l-19.95-19.95,130.3527-130.3527,19.95,19.95A26.059,26.059,0,0,1,1551.9116,457.0192Z" fill="#eff4ee" stroke="#15003e" stroke-linecap="round" stroke-miterlimit="10" stroke-width="13"/><path d="M1407.4386,453.8414a82.183,82.183,0,0,1-111.6588-68.679c-2.2559-23.5664,64.118-91.2525,86.7758-89.8809a82.18,82.18,0,0,1,71.562,111.8764" fill="#0fce7c"/><path d="M1403.7642,457.51a85.96,85.96,0,0,1-112.0281-62.72" fill="none" stroke="#15003e" stroke-linecap="round" stroke-miterlimit="10" stroke-width="13"/><path d="M1388.7494,291.3888a85.9476,85.9476,0,0,1,68.4241,112.09" fill="none" stroke="#15003e" stroke-linecap="round" stroke-miterlimit="10" stroke-width="13"/><path d="M1296.2529,467.8952A122.3544,122.3544,0,0,1,1469.2881,294.86l62.6736,105.3561L1401.609,530.5688Z" fill="none" stroke="#15003e" stroke-linecap="round" stroke-miterlimit="10" stroke-width="13"/><line x1="1295.0015" y1="466.6438" x2="1212.6625" y2="384.3048" fill="none" stroke="#15003e" stroke-linecap="round" stroke-miterlimit="10" stroke-width="13"/><line x1="1468.0367" y1="293.6086" x2="1362.449" y2="188.0209" fill="none" stroke="#15003e" stroke-linecap="round" stroke-miterlimit="10" stroke-width="13"/><path d="M1338.7232,496.8872l-8.9312,8.9312a18.6337,18.6337,0,0,1-26.2748,0l-33.3644-33.3644a18.6337,18.6337,0,0,1,0-26.2748l3.7874-3.7874" fill="none" stroke="#15003e" stroke-linecap="round" stroke-miterlimit="10" stroke-width="13"/><path d="M1498.59,337.021l8.9312-8.9313a18.6337,18.6337,0,0,0,0-26.2748l-33.3644-33.3644a18.6337,18.6337,0,0,0-26.2748,0l-3.7874,3.7874" fill="none" stroke="#15003e" stroke-linecap="round" stroke-miterlimit="10" stroke-width="13"/><path d="M1282.7121,452.4926c-.539-45.0479,16.1071-89.89,50.0662-123.8493a171.0649,171.0649,0,0,1,116.4952-50.0014" fill="none" stroke="#15003e" stroke-linecap="round" stroke-miterlimit="10" stroke-width="13"/><line x1="1357.5917" y1="503.6773" x2="1505.1792" y2="356.0898" fill="none" stroke="#15003e" stroke-linecap="round" stroke-miterlimit="10" stroke-width="13"/><circle cx="1374.0718" cy="342.2601" r="21.4323" fill="#fff"/><circle cx="1416.5847" cy="345.0607" r="8.6656" fill="#fff"/><path d="M1504.2207,398.1622c-4.3553,4.3553-10.0121-1.3015-14.3674,3.0537s1.3011,10.0126-3.0547,14.3684-10.0133-1.3-14.37,3.056,1.3011,10.0126-3.0546,14.3683-10.012-1.3017-14.3671,3.0534,1.3017,10.012-3.0534,14.3672-10.0121-1.3017-14.3673,3.0535,1.3005,10.0132-3.0558,14.37c-4.3579,4.3578-10.0147-1.299-14.3726,3.0588s1.3,10.0133-3.0561,14.37c-4.3594,4.36-10.0163-1.2974-14.3758,3.0621s1.2974,10.0163-3.062,14.3758" fill="none" stroke="#15003e" stroke-linecap="round" stroke-miterlimit="10" stroke-width="6"/><line x1="1515.5491" y1="629.472" x2="1587.1943" y2="701.1173" fill="none" stroke="#8e2abe" stroke-linecap="round" stroke-miterlimit="10" stroke-width="15"/><line x1="1594.4003" y1="512.4203" x2="1822.5091" y2="740.5292" fill="none" stroke="#8e2abe" stroke-linecap="round" stroke-miterlimit="10" stroke-width="15"/><line x1="1553.6946" y1="634.1483" x2="1658.065" y2="738.5188" fill="none" stroke="#8e2abe" stroke-linecap="round" stroke-miterlimit="10" stroke-width="15"/><path d="M1615.4551,740.0556a61.2362,61.2362,0,1,0,0,86.601" fill="none" stroke="#8e2abe" stroke-linecap="round" stroke-miterlimit="10" stroke-width="15"/><path d="M1666.996,815.6171a57.2777,57.2777,0,1,0-81.0029,81.0029" fill="#ffce08" stroke="#8e2abe" stroke-linecap="round" stroke-miterlimit="10" stroke-width="15"/><path d="M1585.9931,896.62a37.0913,37.0913,0,1,0,52.455,0" fill="#ffce08" stroke="#8e2abe" stroke-linecap="round" stroke-miterlimit="10" stroke-width="15"/><path d="M1851.7464,650.9478a62.6942,62.6942,0,1,0,16.367-60.0494,63.39,63.39,0,0,0-4.6043,5.1329" fill="#ffce08" stroke="#8e2abe" stroke-linecap="round" stroke-miterlimit="10" stroke-width="15"/><path d="M1823.7818,665.2957c11.7617,6.4754,27.3814-.5482,37.5746-10.7413a40.2342,40.2342,0,0,0-55.378-58.344,11.0344,11.0344,0,0,1-3.8211,2.2329h0a11.282,11.282,0,0,1-10.4306-1.6582,40.1421,40.1421,0,0,0-52.4448,60.5168" fill="#ffce08" stroke="#8e2abe" stroke-linecap="round" stroke-miterlimit="10" stroke-width="15"/><path d="M1692.8992,803.4862a35.7988,35.7988,0,1,0,2.1444,71.5655" fill="#ffce08" stroke="#8e2abe" stroke-linecap="round" stroke-miterlimit="10" stroke-width="15"/><line x1="1725.7859" y1="748.1128" x2="1644.5769" y2="666.9038" fill="#eff4ee" stroke="#8e2abe" stroke-linecap="round" stroke-miterlimit="10" stroke-width="15"/><line x1="1818.2104" y1="840.5373" x2="1773.8842" y2="796.2111" fill="#eff4ee" stroke="#8e2abe" stroke-linecap="round" stroke-miterlimit="10" stroke-width="15"/><line x1="1598.9246" y1="576.4451" x2="1625.019" y2="602.5395" fill="#eff4ee" stroke="#8e2abe" stroke-linecap="round" stroke-miterlimit="10" stroke-width="15"/><line x1="1517.9394" y1="569.3727" x2="1560.696" y2="612.1294" fill="#eff4ee" stroke="#8e2abe" stroke-linecap="round" stroke-miterlimit="10" stroke-width="15"/><path d="M1108.1875,171.1239c-2.3259-3.7789-4.4012-7.8852-7.9023-10.6115s-9.0139-3.5443-12.1753-.4305c-3.0864,3.04-2.5587,8.1036-1.4709,12.2967a82.6453,82.6453,0,0,0,52.6455,56.5286c5.584,1.8806,11.66,3.1475,17.34,1.5779s10.7162-6.7126,10.4421-12.5987c-.22-4.7252-3.7086-8.7612-7.7779-11.1727s-8.74-3.5552-13.2057-5.1128A73.2264,73.2264,0,0,1,1108.1875,171.1239Z" fill="#fff"/><path d="M1458.5932,34.1549c-7.2666,8.132-4.4055,21.6071,2.8829,29.7192s17.7459,12.4377,27.4168,17.4774c28.6811,14.9456,52.6639,37.9583,71.5823,64.1892s32.9885,55.6665,44.7567,85.7907c2.191,5.6086,6.23,12.4042,12.1408,11.2571,5.7475-1.1157,7.1209-8.6565,6.8645-14.5059-1.3972-31.8647-12.7887-62.4049-25.5856-91.6206C1587.16,110.2269,1574.1407,84.12,1554.59,63.1892s-46.62-36.321-75.2611-36.1452C1471.7985,27.09,1463.61,28.54,1458.5932,34.1549Z" fill="#fff"/><path d="M2100.4133,827.5548c-7.2666,8.132-4.4055,21.6071,2.8829,29.7192s17.7459,12.4376,27.4168,17.4774c28.6811,14.9455,52.6639,37.9583,71.5823,64.1891s32.9886,55.6665,44.7568,85.7907c2.1909,5.6086,6.2295,12.4043,12.1407,11.2571,5.7475-1.1156,7.1209-8.6564,6.8645-14.5058-1.3972-31.8647-12.7887-62.4049-25.5856-91.6206-11.4913-26.2352-24.5109-52.3421-44.0617-73.2729s-46.62-36.321-75.2611-36.1451C2113.6186,820.49,2105.4305,821.94,2100.4133,827.5548Z" fill="#fff"/><path d="M2267.0494,589.34c-19.3566,17.67-50.1745,8.5862-73.8226-2.7121a723.74,723.74,0,0,1-268.2876-221.1971c-9.6731-13.06-19.0932-26.8559-22.9163-42.6528s-.9849-34.1583,10.98-45.1577c12.3049-11.3119,31.4566-12.3089,47.2456-6.8244s29.0144,16.385,41.8679,27.07q115.9528,96.4,231.9066,192.7989c15.2194,12.6519,30.8862,25.8661,39.4981,43.6851S2281.6663,575.9964,2267.0494,589.34Z" fill="#2c0096"/><path d="M3000.8892,483.7237v158.73c-41.4-73.56-99.17-137.96-168.4-186.3-83.03-57.98-179.76-92.33-273.68-130.21-95.96-38.71-190.74-82.02-276.17-140.4-72.19-49.33-137.78-110.01-186.45-182.35h122.52a597.4667,597.4667,0,0,0,208.38,199.98c91.24,52.09,194.26,78.92,293.63,113.08,99.37,34.15,199.25,78.28,270.1,155.87Q2995.9794,477.7788,3000.8892,483.7237Z" fill="#3e00ff"/><path d="M2643.7093,233.3637c-63.55,3.83-128.55-8.84-184.22-39.73-55.66-30.89-101.49-80.42-124.44-139.8-6.09-15.74-9.81-34.51-6.84-50.64h99.47c7.63,9.71,14.4,20.27,21.55,30.33a369.5454,369.5454,0,0,0,199.67,140.41c16.76,4.69,37.58,12.37,38.49,29.75C2688.4193,223.2937,2663.2994,232.1837,2643.7093,233.3637Z" fill="#15003e"/><path d="M3000.8892,332.2437v121.93a32.7524,32.7524,0,0,1-5.46-4.98c-5.88-6.7-9.32-15.14-13.02-23.25a300.4285,300.4285,0,0,0-141.34-144.48c-5.27-2.54-10.77-5.05-14.63-9.44-3.87-4.39-5.6-11.28-2.33-16.12,3.46-5.15,10.62-5.89,16.82-5.85a201.7533,201.7533,0,0,1,127.42,47.11A197.8812,197.8812,0,0,1,3000.8892,332.2437Z" fill="#fff"/><path d="M2998.7493,239.6238c-176.02-8.03-356.39-97.39-464.32-236.43h187.33c10.36,8.39,20.23,17.5,30.37,26.16,67.14,57.4,160.28,97.11,246.97,114.07C2999.3192,175.4937,2998.5394,207.5638,2998.7493,239.6238Z" fill="#3e00ff"/><path d="M2935.5994,871.5537c-39.52-14.92-82.26-29.7-107.39-63.64-25.14-33.94-18.99-93.66,21.4-106.02,12.64-3.87,26.73-2.62,38.61-8.41,27.6-13.45,26.03-54.02,13.05-81.84-29.3-62.85-92.15-104.06-157.35-127.69-65.19-23.62-134.62-32.81-201.53-51.04-164.42-44.78-312.9-146.06-414.59-282.81-22.87-30.75-56.2-94.79-89.6-146.91h-185.09c142.21,249.58,361.81,454.39,620.82,578.66,17.87,8.57,36.9,17.6,47.57,34.3,10.67,16.71,7.94,43.53-10.39,51.09-31.37,12.94-53.45-38.36-86.99-43.49-23.82-3.63-45.59,20.31-45.64,44.41-.05,24.09,16.51,45.67,36.78,58.7,20.26,13.03,44.04,19.19,67.14,26.05,201.9,59.95,381.77,190.41,503.22,362.28h15.27v-210.73C2981.5994,890.2137,2958.1893,880.0838,2935.5994,871.5537Zm-204.26-237.9c-5.24,13.01-20.47,19.74-34.49,19.23s-27.11-6.78-39.57-13.22c-44.71-23.12-88.52-51.22-117.79-92.16-8.41-11.77-14.99-29.38-4.55-39.38,6.14-5.88,16.05-6.11,23.95-2.98s14.34,9,20.84,14.48a307.3008,307.3008,0,0,0,95.65,54.89c14.43,5.1,29.62,9.32,41.63,18.81S2737.0594,619.4637,2731.3392,633.6537Z" fill="#f9006c"/><path d="M2514.2894,1115.1938h-864.93q-.81-2.2951-1.44-4.67c-6.17-23.24.82-48.53,14.09-68.59s32.26-35.62,51.84-49.59c51.76-36.94,110.35-65.23,172.76-77.43s128.76-7.73,187.03,17.74c72.42,31.65,127.24,92.37,189.42,141.17,8.91,7,18.48,13.98,29.66,15.83,11.18,1.86,24.32-3.12,28.05-13.82,8.13-23.35-31.27-39.8-29.91-64.49.71-12.91,13.37-22.64,26.19-24.34,12.83-1.69,25.61,2.74,37.6,7.58a478.7894,478.7894,0,0,1,84.84,44.71c20.34,13.47,65.85,38.84,75.55,62.14C2516.8294,1105.7438,2516.4393,1110.3637,2514.2894,1115.1938Z" fill="#fff"/><path d="M1691.1693,1016.6342c8.5672-9.9454,14.8176-23.1409,12.187-36.0012s-17.0216-23.4142-29.1488-18.39c-12.3186,5.103-15.092,21.1316-23.5892,31.4072-12.2312,14.7911-36.2184,15.3837-52.4413,5.127s-25.6559-28.6212-30.6756-47.1464c-4.6646-17.2144-7.6764-37.5059-22.9723-46.6782-10.3987-6.2356-23.434-5.1731-35.493-3.91-11.04,1.1561-24.35,4.0525-27.7544,14.6176-3.2,9.929,4.6645,19.6557,11.5588,27.4846a304.6176,304.6176,0,0,1,43.9744,65.374c7.9495,15.9539,14.52,32.6495,23.9441,47.78,12.3772,19.8721,53.0632,58.2168,77.3487,32.6929,7.6216-8.01,14.425-14.3177,20.0645-23.7969C1667.9538,1048.7523,1678.8875,1030.8916,1691.1693,1016.6342Z" fill="#fff"/><path d="M2518.04,1097.8211c-2.4508-8.619-8.4421-15.7351-14.5359-22.3045-30.2963-32.6612-66.8775-58.85-98.6493-90.0773s-59.53-69.66-64.9576-113.8771c10.6187-5.0556,23.7739-.3387,32.1456,7.9214s13.1267,19.39,18.1335,30.0314a426.3536,426.3536,0,0,0,97.9129,132.8469c11.4476,10.4581,23.61,20.4479,32.3719,33.24s13.7818,29.217,9.0759,43.9911c-5.2119,1.2806-9.05,2.7218-14.2189,2.24C2517.8468,1115.0206,2520.1452,1105.2446,2518.04,1097.8211Z" fill="#fff"/></g></svg>