<svg id="Layer_1" data-name="Layer 1" xmlns="http://www.w3.org/2000/svg" xmlns:xlink="http://www.w3.org/1999/xlink" viewBox="0 0 3000 1112"><defs><linearGradient id="New_Gradient_Swatch_1" x1="1780.436" y1="620.2538" x2="1064.1157" y2="642.7026" gradientTransform="translate(1734.4 740.79) rotate(180)" gradientUnits="userSpaceOnUse"><stop offset="0" stop-color="#0e2947"/><stop offset="1" stop-color="#4852a3"/></linearGradient><linearGradient id="New_Gradient_Swatch_1-2" x1="0.0001" y1="258.0753" x2="600.5001" y2="258.0753" gradientTransform="matrix(1, 0, 0, 1, 0, 0)" xlink:href="#New_Gradient_Swatch_1"/><linearGradient id="New_Gradient_Swatch_1-3" x1="0.0001" y1="245.0216" x2="600.5001" y2="245.0216" gradientTransform="matrix(1, 0, 0, 1, 0, 0)" xlink:href="#New_Gradient_Swatch_1"/><linearGradient id="New_Gradient_Swatch_1-4" x1="0.0001" y1="231.9679" x2="600.5001" y2="231.9679" gradientTransform="matrix(1, 0, 0, 1, 0, 0)" xlink:href="#New_Gradient_Swatch_1"/><linearGradient id="New_Gradient_Swatch_1-5" x1="0.0001" y1="218.9143" x2="600.5001" y2="218.9143" gradientTransform="matrix(1, 0, 0, 1, 0, 0)" xlink:href="#New_Gradient_Swatch_1"/><linearGradient id="New_Gradient_Swatch_1-6" x1="0.0001" y1="205.8606" x2="600.5001" y2="205.8606" gradientTransform="matrix(1, 0, 0, 1, 0, 0)" xlink:href="#New_Gradient_Swatch_1"/><linearGradient id="New_Gradient_Swatch_1-7" x1="0.0001" y1="192.807" x2="600.5001" y2="192.807" gradientTransform="matrix(1, 0, 0, 1, 0, 0)" xlink:href="#New_Gradient_Swatch_1"/><linearGradient id="New_Gradient_Swatch_1-8" x1="0.0001" y1="179.7533" x2="600.5001" y2="179.7533" gradientTransform="matrix(1, 0, 0, 1, 0, 0)" xlink:href="#New_Gradient_Swatch_1"/><linearGradient id="New_Gradient_Swatch_1-9" x1="0.0001" y1="166.6996" x2="600.5001" y2="166.6996" gradientTransform="matrix(1, 0, 0, 1, 0, 0)" xlink:href="#New_Gradient_Swatch_1"/><linearGradient id="New_Gradient_Swatch_1-10" x1="0.0001" y1="153.646" x2="600.5001" y2="153.646" gradientTransform="matrix(1, 0, 0, 1, 0, 0)" xlink:href="#New_Gradient_Swatch_1"/><linearGradient id="New_Gradient_Swatch_1-11" x1="0.0001" y1="140.5923" x2="600.5001" y2="140.5923" gradientTransform="matrix(1, 0, 0, 1, 0, 0)" xlink:href="#New_Gradient_Swatch_1"/><linearGradient id="New_Gradient_Swatch_1-12" x1="0.0001" y1="127.5386" x2="600.5001" y2="127.5386" gradientTransform="matrix(1, 0, 0, 1, 0, 0)" xlink:href="#New_Gradient_Swatch_1"/><linearGradient id="New_Gradient_Swatch_1-13" x1="0.0001" y1="114.485" x2="600.5001" y2="114.485" gradientTransform="matrix(1, 0, 0, 1, 0, 0)" xlink:href="#New_Gradient_Swatch_1"/><linearGradient id="New_Gradient_Swatch_2" x1="1180.436" y1="619.0634" x2="464.1157" y2="641.5122" gradientTransform="translate(1734.4 740.79) rotate(180)" gradientUnits="userSpaceOnUse"><stop offset="0" stop-color="#0e2947"/><stop offset="1" stop-color="#80459a"/></linearGradient><linearGradient id="New_Gradient_Swatch_2-2" x1="600.0001" y1="259.2656" x2="1200.5001" y2="259.2656" gradientTransform="matrix(1, 0, 0, 1, 0, 0)" xlink:href="#New_Gradient_Swatch_2"/><linearGradient id="New_Gradient_Swatch_2-3" x1="600.0001" y1="246.212" x2="1200.5001" y2="246.212" gradientTransform="matrix(1, 0, 0, 1, 0, 0)" xlink:href="#New_Gradient_Swatch_2"/><linearGradient id="New_Gradient_Swatch_2-4" x1="600.0001" y1="233.1583" x2="1200.5001" y2="233.1583" gradientTransform="matrix(1, 0, 0, 1, 0, 0)" xlink:href="#New_Gradient_Swatch_2"/><linearGradient id="New_Gradient_Swatch_2-5" x1="600.0001" y1="220.1046" x2="1200.5001" y2="220.1046" gradientTransform="matrix(1, 0, 0, 1, 0, 0)" xlink:href="#New_Gradient_Swatch_2"/><linearGradient id="New_Gradient_Swatch_2-6" x1="600.0001" y1="207.051" x2="1200.5001" y2="207.051" gradientTransform="matrix(1, 0, 0, 1, 0, 0)" xlink:href="#New_Gradient_Swatch_2"/><linearGradient id="New_Gradient_Swatch_2-7" x1="600.0001" y1="193.9973" x2="1200.5001" y2="193.9973" gradientTransform="matrix(1, 0, 0, 1, 0, 0)" xlink:href="#New_Gradient_Swatch_2"/><linearGradient id="New_Gradient_Swatch_2-8" x1="600.0001" y1="180.9436" x2="1200.5001" y2="180.9436" gradientTransform="matrix(1, 0, 0, 1, 0, 0)" xlink:href="#New_Gradient_Swatch_2"/><linearGradient id="New_Gradient_Swatch_2-9" x1="600.0001" y1="167.89" x2="1200.5001" y2="167.89" gradientTransform="matrix(1, 0, 0, 1, 0, 0)" xlink:href="#New_Gradient_Swatch_2"/><linearGradient id="New_Gradient_Swatch_2-10" x1="600.0001" y1="154.8363" x2="1200.5001" y2="154.8363" gradientTransform="matrix(1, 0, 0, 1, 0, 0)" xlink:href="#New_Gradient_Swatch_2"/><linearGradient id="New_Gradient_Swatch_2-11" x1="600.0001" y1="141.7827" x2="1200.5001" y2="141.7827" gradientTransform="matrix(1, 0, 0, 1, 0, 0)" xlink:href="#New_Gradient_Swatch_2"/><linearGradient id="New_Gradient_Swatch_2-12" x1="600.0001" y1="128.729" x2="1200.5001" y2="128.729" gradientTransform="matrix(1, 0, 0, 1, 0, 0)" xlink:href="#New_Gradient_Swatch_2"/><linearGradient id="New_Gradient_Swatch_2-13" x1="600.0001" y1="115.6753" x2="1200.5001" y2="115.6753" gradientTransform="matrix(1, 0, 0, 1, 0, 0)" xlink:href="#New_Gradient_Swatch_2"/><linearGradient id="New_Gradient_Swatch_1-14" x1="580.436" y1="619.0634" x2="-135.8843" y2="641.5122" xlink:href="#New_Gradient_Swatch_1"/><linearGradient id="New_Gradient_Swatch_1-15" x1="1200.0001" y1="259.2656" x2="1800.5001" y2="259.2656" gradientTransform="matrix(1, 0, 0, 1, 0, 0)" xlink:href="#New_Gradient_Swatch_1"/><linearGradient id="New_Gradient_Swatch_1-16" x1="1200.0001" y1="246.212" x2="1800.5001" y2="246.212" gradientTransform="matrix(1, 0, 0, 1, 0, 0)" xlink:href="#New_Gradient_Swatch_1"/><linearGradient id="New_Gradient_Swatch_1-17" x1="1200.0001" y1="233.1583" x2="1800.5001" y2="233.1583" gradientTransform="matrix(1, 0, 0, 1, 0, 0)" xlink:href="#New_Gradient_Swatch_1"/><linearGradient id="New_Gradient_Swatch_1-18" x1="1200.0001" y1="220.1046" x2="1800.5001" y2="220.1046" gradientTransform="matrix(1, 0, 0, 1, 0, 0)" xlink:href="#New_Gradient_Swatch_1"/><linearGradient id="New_Gradient_Swatch_1-19" x1="1200.0001" y1="207.051" x2="1800.5001" y2="207.051" gradientTransform="matrix(1, 0, 0, 1, 0, 0)" xlink:href="#New_Gradient_Swatch_1"/><linearGradient id="New_Gradient_Swatch_1-20" x1="1200.0001" y1="193.9973" x2="1800.5001" y2="193.9973" gradientTransform="matrix(1, 0, 0, 1, 0, 0)" xlink:href="#New_Gradient_Swatch_1"/><linearGradient id="New_Gradient_Swatch_1-21" x1="1200.0001" y1="180.9436" x2="1800.5001" y2="180.9436" gradientTransform="matrix(1, 0, 0, 1, 0, 0)" xlink:href="#New_Gradient_Swatch_1"/><linearGradient id="New_Gradient_Swatch_1-22" x1="1200.0001" y1="167.89" x2="1800.5001" y2="167.89" gradientTransform="matrix(1, 0, 0, 1, 0, 0)" xlink:href="#New_Gradient_Swatch_1"/><linearGradient id="New_Gradient_Swatch_1-23" x1="1200.0001" y1="154.8363" x2="1800.5001" y2="154.8363" gradientTransform="matrix(1, 0, 0, 1, 0, 0)" xlink:href="#New_Gradient_Swatch_1"/><linearGradient id="New_Gradient_Swatch_1-24" x1="1200.0001" y1="141.7827" x2="1800.5001" y2="141.7827" gradientTransform="matrix(1, 0, 0, 1, 0, 0)" xlink:href="#New_Gradient_Swatch_1"/><linearGradient id="New_Gradient_Swatch_1-25" x1="1200.0001" y1="128.729" x2="1800.5001" y2="128.729" gradientTransform="matrix(1, 0, 0, 1, 0, 0)" xlink:href="#New_Gradient_Swatch_1"/><linearGradient id="New_Gradient_Swatch_1-26" x1="1200.0001" y1="115.6753" x2="1800.5001" y2="115.6753" gradientTransform="matrix(1, 0, 0, 1, 0, 0)" xlink:href="#New_Gradient_Swatch_1"/><linearGradient id="New_Gradient_Swatch_2-14" x1="-19.6159" y1="620.2538" x2="-735.9362" y2="642.7026" xlink:href="#New_Gradient_Swatch_2"/><linearGradient id="New_Gradient_Swatch_2-15" x1="1800.052" y1="258.0753" x2="2400.552" y2="258.0753" gradientTransform="matrix(1, 0, 0, 1, 0, 0)" xlink:href="#New_Gradient_Swatch_2"/><linearGradient id="New_Gradient_Swatch_2-16" x1="1800.052" y1="245.0216" x2="2400.552" y2="245.0216" gradientTransform="matrix(1, 0, 0, 1, 0, 0)" xlink:href="#New_Gradient_Swatch_2"/><linearGradient id="New_Gradient_Swatch_2-17" x1="1800.052" y1="231.9679" x2="2400.552" y2="231.9679" gradientTransform="matrix(1, 0, 0, 1, 0, 0)" xlink:href="#New_Gradient_Swatch_2"/><linearGradient id="New_Gradient_Swatch_2-18" x1="1800.052" y1="218.9143" x2="2400.552" y2="218.9143" gradientTransform="matrix(1, 0, 0, 1, 0, 0)" xlink:href="#New_Gradient_Swatch_2"/><linearGradient id="New_Gradient_Swatch_2-19" x1="1800.052" y1="205.8606" x2="2400.552" y2="205.8606" gradientTransform="matrix(1, 0, 0, 1, 0, 0)" xlink:href="#New_Gradient_Swatch_2"/><linearGradient id="New_Gradient_Swatch_2-20" x1="1800.052" y1="192.807" x2="2400.552" y2="192.807" gradientTransform="matrix(1, 0, 0, 1, 0, 0)" xlink:href="#New_Gradient_Swatch_2"/><linearGradient id="New_Gradient_Swatch_2-21" x1="1800.052" y1="179.7533" x2="2400.552" y2="179.7533" gradientTransform="matrix(1, 0, 0, 1, 0, 0)" xlink:href="#New_Gradient_Swatch_2"/><linearGradient id="New_Gradient_Swatch_2-22" x1="1800.052" y1="166.6996" x2="2400.552" y2="166.6996" gradientTransform="matrix(1, 0, 0, 1, 0, 0)" xlink:href="#New_Gradient_Swatch_2"/><linearGradient id="New_Gradient_Swatch_2-23" x1="1800.052" y1="153.646" x2="2400.552" y2="153.646" gradientTransform="matrix(1, 0, 0, 1, 0, 0)" xlink:href="#New_Gradient_Swatch_2"/><linearGradient id="New_Gradient_Swatch_2-24" x1="1800.052" y1="140.5923" x2="2400.552" y2="140.5923" gradientTransform="matrix(1, 0, 0, 1, 0, 0)" xlink:href="#New_Gradient_Swatch_2"/><linearGradient id="New_Gradient_Swatch_2-25" x1="1800.052" y1="127.5386" x2="2400.552" y2="127.5386" gradientTransform="matrix(1, 0, 0, 1, 0, 0)" xlink:href="#New_Gradient_Swatch_2"/><linearGradient id="New_Gradient_Swatch_2-26" x1="1800.052" y1="114.485" x2="2400.552" y2="114.485" gradientTransform="matrix(1, 0, 0, 1, 0, 0)" xlink:href="#New_Gradient_Swatch_2"/><linearGradient id="New_Gradient_Swatch_1-27" x1="-619.564" y1="620.2538" x2="-1335.8843" y2="642.7026" xlink:href="#New_Gradient_Swatch_1"/><linearGradient id="New_Gradient_Swatch_1-28" x1="2400.0001" y1="258.0753" x2="3000.5001" y2="258.0753" gradientTransform="matrix(1, 0, 0, 1, 0, 0)" xlink:href="#New_Gradient_Swatch_1"/><linearGradient id="New_Gradient_Swatch_1-29" x1="2400.0001" y1="245.0216" x2="3000.5001" y2="245.0216" gradientTransform="matrix(1, 0, 0, 1, 0, 0)" xlink:href="#New_Gradient_Swatch_1"/><linearGradient id="New_Gradient_Swatch_1-30" x1="2400.0001" y1="231.9679" x2="3000.5001" y2="231.9679" gradientTransform="matrix(1, 0, 0, 1, 0, 0)" xlink:href="#New_Gradient_Swatch_1"/><linearGradient id="New_Gradient_Swatch_1-31" x1="2400.0001" y1="218.9143" x2="3000.5001" y2="218.9143" gradientTransform="matrix(1, 0, 0, 1, 0, 0)" xlink:href="#New_Gradient_Swatch_1"/><linearGradient id="New_Gradient_Swatch_1-32" x1="2400.0001" y1="205.8606" x2="3000.5001" y2="205.8606" gradientTransform="matrix(1, 0, 0, 1, 0, 0)" xlink:href="#New_Gradient_Swatch_1"/><linearGradient id="New_Gradient_Swatch_1-33" x1="2400.0001" y1="192.807" x2="3000.5001" y2="192.807" gradientTransform="matrix(1, 0, 0, 1, 0, 0)" xlink:href="#New_Gradient_Swatch_1"/><linearGradient id="New_Gradient_Swatch_1-34" x1="2400.0001" y1="179.7533" x2="3000.5001" y2="179.7533" gradientTransform="matrix(1, 0, 0, 1, 0, 0)" xlink:href="#New_Gradient_Swatch_1"/><linearGradient id="New_Gradient_Swatch_1-35" x1="2400.0001" y1="166.6996" x2="3000.5001" y2="166.6996" gradientTransform="matrix(1, 0, 0, 1, 0, 0)" xlink:href="#New_Gradient_Swatch_1"/><linearGradient id="New_Gradient_Swatch_1-36" x1="2400.0001" y1="153.646" x2="3000.5001" y2="153.646" gradientTransform="matrix(1, 0, 0, 1, 0, 0)" xlink:href="#New_Gradient_Swatch_1"/><linearGradient id="New_Gradient_Swatch_1-37" x1="2400.0001" y1="140.5923" x2="3000.5001" y2="140.5923" gradientTransform="matrix(1, 0, 0, 1, 0, 0)" xlink:href="#New_Gradient_Swatch_1"/><linearGradient id="New_Gradient_Swatch_1-38" x1="2400.0001" y1="127.5386" x2="3000.5001" y2="127.5386" gradientTransform="matrix(1, 0, 0, 1, 0, 0)" xlink:href="#New_Gradient_Swatch_1"/><linearGradient id="New_Gradient_Swatch_1-39" x1="2400.0001" y1="114.485" x2="3000.5001" y2="114.485" gradientTransform="matrix(1, 0, 0, 1, 0, 0)" xlink:href="#New_Gradient_Swatch_1"/><linearGradient id="New_Gradient_Swatch_1-40" x1="1780.436" y1="-119.9507" x2="1064.1157" y2="-97.5019" xlink:href="#New_Gradient_Swatch_1"/><linearGradient id="New_Gradient_Swatch_1-41" x1="0.0001" y1="998.2798" x2="600.5001" y2="998.2798" gradientTransform="matrix(1, 0, 0, 1, 0, 0)" xlink:href="#New_Gradient_Swatch_1"/><linearGradient id="New_Gradient_Swatch_1-42" x1="0.0001" y1="985.2261" x2="600.5001" y2="985.2261" gradientTransform="matrix(1, 0, 0, 1, 0, 0)" xlink:href="#New_Gradient_Swatch_1"/><linearGradient id="New_Gradient_Swatch_1-43" x1="0.0001" y1="972.1724" x2="600.5001" y2="972.1724" gradientTransform="matrix(1, 0, 0, 1, 0, 0)" xlink:href="#New_Gradient_Swatch_1"/><linearGradient id="New_Gradient_Swatch_1-44" x1="0.0001" y1="959.1188" x2="600.5001" y2="959.1188" gradientTransform="matrix(1, 0, 0, 1, 0, 0)" xlink:href="#New_Gradient_Swatch_1"/><linearGradient id="New_Gradient_Swatch_1-45" x1="0.0001" y1="946.0651" x2="600.5001" y2="946.0651" gradientTransform="matrix(1, 0, 0, 1, 0, 0)" xlink:href="#New_Gradient_Swatch_1"/><linearGradient id="New_Gradient_Swatch_1-46" x1="0.0001" y1="933.0115" x2="600.5001" y2="933.0115" gradientTransform="matrix(1, 0, 0, 1, 0, 0)" xlink:href="#New_Gradient_Swatch_1"/><linearGradient id="New_Gradient_Swatch_1-47" x1="0.0001" y1="919.9578" x2="600.5001" y2="919.9578" gradientTransform="matrix(1, 0, 0, 1, 0, 0)" xlink:href="#New_Gradient_Swatch_1"/><linearGradient id="New_Gradient_Swatch_1-48" x1="0.0001" y1="906.9041" x2="600.5001" y2="906.9041" gradientTransform="matrix(1, 0, 0, 1, 0, 0)" xlink:href="#New_Gradient_Swatch_1"/><linearGradient id="New_Gradient_Swatch_1-49" x1="0.0001" y1="893.8505" x2="600.5001" y2="893.8505" gradientTransform="matrix(1, 0, 0, 1, 0, 0)" xlink:href="#New_Gradient_Swatch_1"/><linearGradient id="New_Gradient_Swatch_1-50" x1="0.0001" y1="880.7968" x2="600.5001" y2="880.7968" gradientTransform="matrix(1, 0, 0, 1, 0, 0)" xlink:href="#New_Gradient_Swatch_1"/><linearGradient id="New_Gradient_Swatch_1-51" x1="0.0001" y1="867.7431" x2="600.5001" y2="867.7431" gradientTransform="matrix(1, 0, 0, 1, 0, 0)" xlink:href="#New_Gradient_Swatch_1"/><linearGradient id="New_Gradient_Swatch_1-52" x1="0.0001" y1="854.6895" x2="600.5001" y2="854.6895" gradientTransform="matrix(1, 0, 0, 1, 0, 0)" xlink:href="#New_Gradient_Swatch_1"/><linearGradient id="New_Gradient_Swatch_2-27" x1="1180.3841" y1="-119.9507" x2="464.0638" y2="-97.5019" xlink:href="#New_Gradient_Swatch_2"/><linearGradient id="New_Gradient_Swatch_2-28" x1="600.052" y1="998.2798" x2="1200.552" y2="998.2798" gradientTransform="matrix(1, 0, 0, 1, 0, 0)" xlink:href="#New_Gradient_Swatch_2"/><linearGradient id="New_Gradient_Swatch_2-29" x1="600.052" y1="985.2261" x2="1200.552" y2="985.2261" gradientTransform="matrix(1, 0, 0, 1, 0, 0)" xlink:href="#New_Gradient_Swatch_2"/><linearGradient id="New_Gradient_Swatch_2-30" x1="600.052" y1="972.1724" x2="1200.552" y2="972.1724" gradientTransform="matrix(1, 0, 0, 1, 0, 0)" xlink:href="#New_Gradient_Swatch_2"/><linearGradient id="New_Gradient_Swatch_2-31" x1="600.052" y1="959.1188" x2="1200.552" y2="959.1188" gradientTransform="matrix(1, 0, 0, 1, 0, 0)" xlink:href="#New_Gradient_Swatch_2"/><linearGradient id="New_Gradient_Swatch_2-32" x1="600.052" y1="946.0651" x2="1200.552" y2="946.0651" gradientTransform="matrix(1, 0, 0, 1, 0, 0)" xlink:href="#New_Gradient_Swatch_2"/><linearGradient id="New_Gradient_Swatch_2-33" x1="600.052" y1="933.0115" x2="1200.552" y2="933.0115" gradientTransform="matrix(1, 0, 0, 1, 0, 0)" xlink:href="#New_Gradient_Swatch_2"/><linearGradient id="New_Gradient_Swatch_2-34" x1="600.052" y1="919.9578" x2="1200.552" y2="919.9578" gradientTransform="matrix(1, 0, 0, 1, 0, 0)" xlink:href="#New_Gradient_Swatch_2"/><linearGradient id="New_Gradient_Swatch_2-35" x1="600.052" y1="906.9041" x2="1200.552" y2="906.9041" gradientTransform="matrix(1, 0, 0, 1, 0, 0)" xlink:href="#New_Gradient_Swatch_2"/><linearGradient id="New_Gradient_Swatch_2-36" x1="600.052" y1="893.8505" x2="1200.552" y2="893.8505" gradientTransform="matrix(1, 0, 0, 1, 0, 0)" xlink:href="#New_Gradient_Swatch_2"/><linearGradient id="New_Gradient_Swatch_2-37" x1="600.052" y1="880.7968" x2="1200.552" y2="880.7968" gradientTransform="matrix(1, 0, 0, 1, 0, 0)" xlink:href="#New_Gradient_Swatch_2"/><linearGradient id="New_Gradient_Swatch_2-38" x1="600.052" y1="867.7431" x2="1200.552" y2="867.7431" gradientTransform="matrix(1, 0, 0, 1, 0, 0)" xlink:href="#New_Gradient_Swatch_2"/><linearGradient id="New_Gradient_Swatch_2-39" x1="600.052" y1="854.6895" x2="1200.552" y2="854.6895" gradientTransform="matrix(1, 0, 0, 1, 0, 0)" xlink:href="#New_Gradient_Swatch_2"/><linearGradient id="New_Gradient_Swatch_1-53" x1="580.3841" y1="-119.9507" x2="-135.9362" y2="-97.5019" xlink:href="#New_Gradient_Swatch_1"/><linearGradient id="New_Gradient_Swatch_1-54" x1="1200.052" y1="998.2798" x2="1800.552" y2="998.2798" gradientTransform="matrix(1, 0, 0, 1, 0, 0)" xlink:href="#New_Gradient_Swatch_1"/><linearGradient id="New_Gradient_Swatch_1-55" x1="1200.052" y1="985.2261" x2="1800.552" y2="985.2261" gradientTransform="matrix(1, 0, 0, 1, 0, 0)" xlink:href="#New_Gradient_Swatch_1"/><linearGradient id="New_Gradient_Swatch_1-56" x1="1200.052" y1="972.1724" x2="1800.552" y2="972.1724" gradientTransform="matrix(1, 0, 0, 1, 0, 0)" xlink:href="#New_Gradient_Swatch_1"/><linearGradient id="New_Gradient_Swatch_1-57" x1="1200.052" y1="959.1188" x2="1800.552" y2="959.1188" gradientTransform="matrix(1, 0, 0, 1, 0, 0)" xlink:href="#New_Gradient_Swatch_1"/><linearGradient id="New_Gradient_Swatch_1-58" x1="1200.052" y1="946.0651" x2="1800.552" y2="946.0651" gradientTransform="matrix(1, 0, 0, 1, 0, 0)" xlink:href="#New_Gradient_Swatch_1"/><linearGradient id="New_Gradient_Swatch_1-59" x1="1200.052" y1="933.0115" x2="1800.552" y2="933.0115" gradientTransform="matrix(1, 0, 0, 1, 0, 0)" xlink:href="#New_Gradient_Swatch_1"/><linearGradient id="New_Gradient_Swatch_1-60" x1="1200.052" y1="919.9578" x2="1800.552" y2="919.9578" gradientTransform="matrix(1, 0, 0, 1, 0, 0)" xlink:href="#New_Gradient_Swatch_1"/><linearGradient id="New_Gradient_Swatch_1-61" x1="1200.052" y1="906.9041" x2="1800.552" y2="906.9041" gradientTransform="matrix(1, 0, 0, 1, 0, 0)" xlink:href="#New_Gradient_Swatch_1"/><linearGradient id="New_Gradient_Swatch_1-62" x1="1200.052" y1="893.8505" x2="1800.552" y2="893.8505" gradientTransform="matrix(1, 0, 0, 1, 0, 0)" xlink:href="#New_Gradient_Swatch_1"/><linearGradient id="New_Gradient_Swatch_1-63" x1="1200.052" y1="880.7968" x2="1800.552" y2="880.7968" gradientTransform="matrix(1, 0, 0, 1, 0, 0)" xlink:href="#New_Gradient_Swatch_1"/><linearGradient id="New_Gradient_Swatch_1-64" x1="1200.052" y1="867.7431" x2="1800.552" y2="867.7431" gradientTransform="matrix(1, 0, 0, 1, 0, 0)" xlink:href="#New_Gradient_Swatch_1"/><linearGradient id="New_Gradient_Swatch_1-65" x1="1200.052" y1="854.6895" x2="1800.552" y2="854.6895" gradientTransform="matrix(1, 0, 0, 1, 0, 0)" xlink:href="#New_Gradient_Swatch_1"/><linearGradient id="New_Gradient_Swatch_2-40" x1="-19.564" y1="-121.1411" x2="-735.8843" y2="-98.6923" xlink:href="#New_Gradient_Swatch_2"/><linearGradient id="New_Gradient_Swatch_2-41" x1="1800.0001" y1="999.4701" x2="2400.5001" y2="999.4701" gradientTransform="matrix(1, 0, 0, 1, 0, 0)" xlink:href="#New_Gradient_Swatch_2"/><linearGradient id="New_Gradient_Swatch_2-42" x1="1800.0001" y1="986.4165" x2="2400.5001" y2="986.4165" gradientTransform="matrix(1, 0, 0, 1, 0, 0)" xlink:href="#New_Gradient_Swatch_2"/><linearGradient id="New_Gradient_Swatch_2-43" x1="1800.0001" y1="973.3628" x2="2400.5001" y2="973.3628" gradientTransform="matrix(1, 0, 0, 1, 0, 0)" xlink:href="#New_Gradient_Swatch_2"/><linearGradient id="New_Gradient_Swatch_2-44" x1="1800.0001" y1="960.3091" x2="2400.5001" y2="960.3091" gradientTransform="matrix(1, 0, 0, 1, 0, 0)" xlink:href="#New_Gradient_Swatch_2"/><linearGradient id="New_Gradient_Swatch_2-45" x1="1800.0001" y1="947.2555" x2="2400.5001" y2="947.2555" gradientTransform="matrix(1, 0, 0, 1, 0, 0)" xlink:href="#New_Gradient_Swatch_2"/><linearGradient id="New_Gradient_Swatch_2-46" x1="1800.0001" y1="934.2018" x2="2400.5001" y2="934.2018" gradientTransform="matrix(1, 0, 0, 1, 0, 0)" xlink:href="#New_Gradient_Swatch_2"/><linearGradient id="New_Gradient_Swatch_2-47" x1="1800.0001" y1="921.1481" x2="2400.5001" y2="921.1481" gradientTransform="matrix(1, 0, 0, 1, 0, 0)" xlink:href="#New_Gradient_Swatch_2"/><linearGradient id="New_Gradient_Swatch_2-48" x1="1800.0001" y1="908.0945" x2="2400.5001" y2="908.0945" gradientTransform="matrix(1, 0, 0, 1, 0, 0)" xlink:href="#New_Gradient_Swatch_2"/><linearGradient id="New_Gradient_Swatch_2-49" x1="1800.0001" y1="895.0408" x2="2400.5001" y2="895.0408" gradientTransform="matrix(1, 0, 0, 1, 0, 0)" xlink:href="#New_Gradient_Swatch_2"/><linearGradient id="New_Gradient_Swatch_2-50" x1="1800.0001" y1="881.9872" x2="2400.5001" y2="881.9872" gradientTransform="matrix(1, 0, 0, 1, 0, 0)" xlink:href="#New_Gradient_Swatch_2"/><linearGradient id="New_Gradient_Swatch_2-51" x1="1800.0001" y1="868.9335" x2="2400.5001" y2="868.9335" gradientTransform="matrix(1, 0, 0, 1, 0, 0)" xlink:href="#New_Gradient_Swatch_2"/><linearGradient id="New_Gradient_Swatch_2-52" x1="1800.0001" y1="855.8798" x2="2400.5001" y2="855.8798" gradientTransform="matrix(1, 0, 0, 1, 0, 0)" xlink:href="#New_Gradient_Swatch_2"/><linearGradient id="New_Gradient_Swatch_1-66" x1="-619.6159" y1="-121.1411" x2="-1335.9363" y2="-98.6923" xlink:href="#New_Gradient_Swatch_1"/><linearGradient id="New_Gradient_Swatch_1-67" x1="2400.052" y1="999.4701" x2="3000.552" y2="999.4701" gradientTransform="matrix(1, 0, 0, 1, 0, 0)" xlink:href="#New_Gradient_Swatch_1"/><linearGradient id="New_Gradient_Swatch_1-68" x1="2400.052" y1="986.4165" x2="3000.552" y2="986.4165" gradientTransform="matrix(1, 0, 0, 1, 0, 0)" xlink:href="#New_Gradient_Swatch_1"/><linearGradient id="New_Gradient_Swatch_1-69" x1="2400.052" y1="973.3628" x2="3000.552" y2="973.3628" gradientTransform="matrix(1, 0, 0, 1, 0, 0)" xlink:href="#New_Gradient_Swatch_1"/><linearGradient id="New_Gradient_Swatch_1-70" x1="2400.052" y1="960.3091" x2="3000.552" y2="960.3091" gradientTransform="matrix(1, 0, 0, 1, 0, 0)" xlink:href="#New_Gradient_Swatch_1"/><linearGradient id="New_Gradient_Swatch_1-71" x1="2400.052" y1="947.2555" x2="3000.552" y2="947.2555" gradientTransform="matrix(1, 0, 0, 1, 0, 0)" xlink:href="#New_Gradient_Swatch_1"/><linearGradient id="New_Gradient_Swatch_1-72" x1="2400.052" y1="934.2018" x2="3000.552" y2="934.2018" gradientTransform="matrix(1, 0, 0, 1, 0, 0)" xlink:href="#New_Gradient_Swatch_1"/><linearGradient id="New_Gradient_Swatch_1-73" x1="2400.052" y1="921.1481" x2="3000.552" y2="921.1481" gradientTransform="matrix(1, 0, 0, 1, 0, 0)" xlink:href="#New_Gradient_Swatch_1"/><linearGradient id="New_Gradient_Swatch_1-74" x1="2400.052" y1="908.0945" x2="3000.552" y2="908.0945" gradientTransform="matrix(1, 0, 0, 1, 0, 0)" xlink:href="#New_Gradient_Swatch_1"/><linearGradient id="New_Gradient_Swatch_1-75" x1="2400.052" y1="895.0408" x2="3000.552" y2="895.0408" gradientTransform="matrix(1, 0, 0, 1, 0, 0)" xlink:href="#New_Gradient_Swatch_1"/><linearGradient id="New_Gradient_Swatch_1-76" x1="2400.052" y1="881.9872" x2="3000.552" y2="881.9872" gradientTransform="matrix(1, 0, 0, 1, 0, 0)" xlink:href="#New_Gradient_Swatch_1"/><linearGradient id="New_Gradient_Swatch_1-77" x1="2400.052" y1="868.9335" x2="3000.552" y2="868.9335" gradientTransform="matrix(1, 0, 0, 1, 0, 0)" xlink:href="#New_Gradient_Swatch_1"/><linearGradient id="New_Gradient_Swatch_1-78" x1="2400.052" y1="855.8798" x2="3000.552" y2="855.8798" gradientTransform="matrix(1, 0, 0, 1, 0, 0)" xlink:href="#New_Gradient_Swatch_1"/><linearGradient id="New_Gradient_Swatch_2-53" x1="1780.3841" y1="250.839" x2="1064.0638" y2="273.2878" xlink:href="#New_Gradient_Swatch_2"/><linearGradient id="New_Gradient_Swatch_2-54" x1="0.052" y1="627.4901" x2="600.552" y2="627.4901" gradientTransform="matrix(1, 0, 0, 1, 0, 0)" xlink:href="#New_Gradient_Swatch_2"/><linearGradient id="New_Gradient_Swatch_2-55" x1="0.052" y1="614.4364" x2="600.552" y2="614.4364" gradientTransform="matrix(1, 0, 0, 1, 0, 0)" xlink:href="#New_Gradient_Swatch_2"/><linearGradient id="New_Gradient_Swatch_2-56" x1="0.052" y1="601.3827" x2="600.552" y2="601.3827" gradientTransform="matrix(1, 0, 0, 1, 0, 0)" xlink:href="#New_Gradient_Swatch_2"/><linearGradient id="New_Gradient_Swatch_2-57" x1="0.052" y1="588.3291" x2="600.552" y2="588.3291" gradientTransform="matrix(1, 0, 0, 1, 0, 0)" xlink:href="#New_Gradient_Swatch_2"/><linearGradient id="New_Gradient_Swatch_2-58" x1="0.052" y1="575.2754" x2="600.552" y2="575.2754" gradientTransform="matrix(1, 0, 0, 1, 0, 0)" xlink:href="#New_Gradient_Swatch_2"/><linearGradient id="New_Gradient_Swatch_2-59" x1="0.052" y1="562.2217" x2="600.552" y2="562.2217" gradientTransform="matrix(1, 0, 0, 1, 0, 0)" xlink:href="#New_Gradient_Swatch_2"/><linearGradient id="New_Gradient_Swatch_2-60" x1="0.052" y1="549.1681" x2="600.552" y2="549.1681" gradientTransform="matrix(1, 0, 0, 1, 0, 0)" xlink:href="#New_Gradient_Swatch_2"/><linearGradient id="New_Gradient_Swatch_2-61" x1="0.052" y1="536.1144" x2="600.552" y2="536.1144" gradientTransform="matrix(1, 0, 0, 1, 0, 0)" xlink:href="#New_Gradient_Swatch_2"/><linearGradient id="New_Gradient_Swatch_2-62" x1="0.052" y1="523.0608" x2="600.552" y2="523.0608" gradientTransform="matrix(1, 0, 0, 1, 0, 0)" xlink:href="#New_Gradient_Swatch_2"/><linearGradient id="New_Gradient_Swatch_2-63" x1="0.052" y1="510.0071" x2="600.552" y2="510.0071" gradientTransform="matrix(1, 0, 0, 1, 0, 0)" xlink:href="#New_Gradient_Swatch_2"/><linearGradient id="New_Gradient_Swatch_2-64" x1="0.052" y1="496.9534" x2="600.552" y2="496.9534" gradientTransform="matrix(1, 0, 0, 1, 0, 0)" xlink:href="#New_Gradient_Swatch_2"/><linearGradient id="New_Gradient_Swatch_2-65" x1="0.052" y1="483.8998" x2="600.552" y2="483.8998" gradientTransform="matrix(1, 0, 0, 1, 0, 0)" xlink:href="#New_Gradient_Swatch_2"/><linearGradient id="New_Gradient_Swatch_1-79" x1="1180.3841" y1="250.839" x2="464.0638" y2="273.2878" xlink:href="#New_Gradient_Swatch_1"/><linearGradient id="New_Gradient_Swatch_1-80" x1="600.052" y1="627.4901" x2="1200.552" y2="627.4901" gradientTransform="matrix(1, 0, 0, 1, 0, 0)" xlink:href="#New_Gradient_Swatch_1"/><linearGradient id="New_Gradient_Swatch_1-81" x1="600.052" y1="614.4364" x2="1200.552" y2="614.4364" gradientTransform="matrix(1, 0, 0, 1, 0, 0)" xlink:href="#New_Gradient_Swatch_1"/><linearGradient id="New_Gradient_Swatch_1-82" x1="600.052" y1="601.3827" x2="1200.552" y2="601.3827" gradientTransform="matrix(1, 0, 0, 1, 0, 0)" xlink:href="#New_Gradient_Swatch_1"/><linearGradient id="New_Gradient_Swatch_1-83" x1="600.052" y1="588.3291" x2="1200.552" y2="588.3291" gradientTransform="matrix(1, 0, 0, 1, 0, 0)" xlink:href="#New_Gradient_Swatch_1"/><linearGradient id="New_Gradient_Swatch_1-84" x1="600.052" y1="575.2754" x2="1200.552" y2="575.2754" gradientTransform="matrix(1, 0, 0, 1, 0, 0)" xlink:href="#New_Gradient_Swatch_1"/><linearGradient id="New_Gradient_Swatch_1-85" x1="600.052" y1="562.2217" x2="1200.552" y2="562.2217" gradientTransform="matrix(1, 0, 0, 1, 0, 0)" xlink:href="#New_Gradient_Swatch_1"/><linearGradient id="New_Gradient_Swatch_1-86" x1="600.052" y1="549.1681" x2="1200.552" y2="549.1681" gradientTransform="matrix(1, 0, 0, 1, 0, 0)" xlink:href="#New_Gradient_Swatch_1"/><linearGradient id="New_Gradient_Swatch_1-87" x1="600.052" y1="536.1144" x2="1200.552" y2="536.1144" gradientTransform="matrix(1, 0, 0, 1, 0, 0)" xlink:href="#New_Gradient_Swatch_1"/><linearGradient id="New_Gradient_Swatch_1-88" x1="600.052" y1="523.0608" x2="1200.552" y2="523.0608" gradientTransform="matrix(1, 0, 0, 1, 0, 0)" xlink:href="#New_Gradient_Swatch_1"/><linearGradient id="New_Gradient_Swatch_1-89" x1="600.052" y1="510.0071" x2="1200.552" y2="510.0071" gradientTransform="matrix(1, 0, 0, 1, 0, 0)" xlink:href="#New_Gradient_Swatch_1"/><linearGradient id="New_Gradient_Swatch_1-90" x1="600.052" y1="496.9534" x2="1200.552" y2="496.9534" gradientTransform="matrix(1, 0, 0, 1, 0, 0)" xlink:href="#New_Gradient_Swatch_1"/><linearGradient id="New_Gradient_Swatch_1-91" x1="600.052" y1="483.8998" x2="1200.552" y2="483.8998" gradientTransform="matrix(1, 0, 0, 1, 0, 0)" xlink:href="#New_Gradient_Swatch_1"/><linearGradient id="New_Gradient_Swatch_2-66" x1="580.3841" y1="249.6486" x2="-135.9362" y2="272.0974" xlink:href="#New_Gradient_Swatch_2"/><linearGradient id="New_Gradient_Swatch_2-67" x1="1200.052" y1="628.6804" x2="1800.552" y2="628.6804" gradientTransform="matrix(1, 0, 0, 1, 0, 0)" xlink:href="#New_Gradient_Swatch_2"/><linearGradient id="New_Gradient_Swatch_2-68" x1="1200.052" y1="615.6268" x2="1800.552" y2="615.6268" gradientTransform="matrix(1, 0, 0, 1, 0, 0)" xlink:href="#New_Gradient_Swatch_2"/><linearGradient id="New_Gradient_Swatch_2-69" x1="1200.052" y1="602.5731" x2="1800.552" y2="602.5731" gradientTransform="matrix(1, 0, 0, 1, 0, 0)" xlink:href="#New_Gradient_Swatch_2"/><linearGradient id="New_Gradient_Swatch_2-70" x1="1200.052" y1="589.5194" x2="1800.552" y2="589.5194" gradientTransform="matrix(1, 0, 0, 1, 0, 0)" xlink:href="#New_Gradient_Swatch_2"/><linearGradient id="New_Gradient_Swatch_2-71" x1="1200.052" y1="576.4658" x2="1800.552" y2="576.4658" gradientTransform="matrix(1, 0, 0, 1, 0, 0)" xlink:href="#New_Gradient_Swatch_2"/><linearGradient id="New_Gradient_Swatch_2-72" x1="1200.052" y1="563.4121" x2="1800.552" y2="563.4121" gradientTransform="matrix(1, 0, 0, 1, 0, 0)" xlink:href="#New_Gradient_Swatch_2"/><linearGradient id="New_Gradient_Swatch_2-73" x1="1200.052" y1="550.3584" x2="1800.552" y2="550.3584" gradientTransform="matrix(1, 0, 0, 1, 0, 0)" xlink:href="#New_Gradient_Swatch_2"/><linearGradient id="New_Gradient_Swatch_2-74" x1="1200.052" y1="537.3048" x2="1800.552" y2="537.3048" gradientTransform="matrix(1, 0, 0, 1, 0, 0)" xlink:href="#New_Gradient_Swatch_2"/><linearGradient id="New_Gradient_Swatch_2-75" x1="1200.052" y1="524.2511" x2="1800.552" y2="524.2511" gradientTransform="matrix(1, 0, 0, 1, 0, 0)" xlink:href="#New_Gradient_Swatch_2"/><linearGradient id="New_Gradient_Swatch_2-76" x1="1200.052" y1="511.1974" x2="1800.552" y2="511.1974" gradientTransform="matrix(1, 0, 0, 1, 0, 0)" xlink:href="#New_Gradient_Swatch_2"/><linearGradient id="New_Gradient_Swatch_2-77" x1="1200.052" y1="498.1438" x2="1800.552" y2="498.1438" gradientTransform="matrix(1, 0, 0, 1, 0, 0)" xlink:href="#New_Gradient_Swatch_2"/><linearGradient id="New_Gradient_Swatch_2-78" x1="1200.052" y1="485.0901" x2="1800.552" y2="485.0901" gradientTransform="matrix(1, 0, 0, 1, 0, 0)" xlink:href="#New_Gradient_Swatch_2"/><linearGradient id="New_Gradient_Swatch_1-92" x1="-19.6159" y1="248.4583" x2="-735.9362" y2="270.9071" xlink:href="#New_Gradient_Swatch_1"/><linearGradient id="New_Gradient_Swatch_1-93" x1="1800.052" y1="629.8708" x2="2400.552" y2="629.8708" gradientTransform="matrix(1, 0, 0, 1, 0, 0)" xlink:href="#New_Gradient_Swatch_1"/><linearGradient id="New_Gradient_Swatch_1-94" x1="1800.052" y1="616.8171" x2="2400.552" y2="616.8171" gradientTransform="matrix(1, 0, 0, 1, 0, 0)" xlink:href="#New_Gradient_Swatch_1"/><linearGradient id="New_Gradient_Swatch_1-95" x1="1800.052" y1="603.7634" x2="2400.552" y2="603.7634" gradientTransform="matrix(1, 0, 0, 1, 0, 0)" xlink:href="#New_Gradient_Swatch_1"/><linearGradient id="New_Gradient_Swatch_1-96" x1="1800.052" y1="590.7098" x2="2400.552" y2="590.7098" gradientTransform="matrix(1, 0, 0, 1, 0, 0)" xlink:href="#New_Gradient_Swatch_1"/><linearGradient id="New_Gradient_Swatch_1-97" x1="1800.052" y1="577.6561" x2="2400.552" y2="577.6561" gradientTransform="matrix(1, 0, 0, 1, 0, 0)" xlink:href="#New_Gradient_Swatch_1"/><linearGradient id="New_Gradient_Swatch_1-98" x1="1800.052" y1="564.6025" x2="2400.552" y2="564.6025" gradientTransform="matrix(1, 0, 0, 1, 0, 0)" xlink:href="#New_Gradient_Swatch_1"/><linearGradient id="New_Gradient_Swatch_1-99" x1="1800.052" y1="551.5488" x2="2400.552" y2="551.5488" gradientTransform="matrix(1, 0, 0, 1, 0, 0)" xlink:href="#New_Gradient_Swatch_1"/><linearGradient id="New_Gradient_Swatch_1-100" x1="1800.052" y1="538.4951" x2="2400.552" y2="538.4951" gradientTransform="matrix(1, 0, 0, 1, 0, 0)" xlink:href="#New_Gradient_Swatch_1"/><linearGradient id="New_Gradient_Swatch_1-101" x1="1800.052" y1="525.4415" x2="2400.552" y2="525.4415" gradientTransform="matrix(1, 0, 0, 1, 0, 0)" xlink:href="#New_Gradient_Swatch_1"/><linearGradient id="New_Gradient_Swatch_1-102" x1="1800.052" y1="512.3878" x2="2400.552" y2="512.3878" gradientTransform="matrix(1, 0, 0, 1, 0, 0)" xlink:href="#New_Gradient_Swatch_1"/><linearGradient id="New_Gradient_Swatch_1-103" x1="1800.052" y1="499.3341" x2="2400.552" y2="499.3341" gradientTransform="matrix(1, 0, 0, 1, 0, 0)" xlink:href="#New_Gradient_Swatch_1"/><linearGradient id="New_Gradient_Swatch_1-104" x1="1800.052" y1="486.2805" x2="2400.552" y2="486.2805" gradientTransform="matrix(1, 0, 0, 1, 0, 0)" xlink:href="#New_Gradient_Swatch_1"/><linearGradient id="New_Gradient_Swatch_2-79" x1="-619.6159" y1="248.4583" x2="-1335.9363" y2="270.9071" xlink:href="#New_Gradient_Swatch_2"/><linearGradient id="New_Gradient_Swatch_2-80" x1="2400.052" y1="629.8708" x2="3000.552" y2="629.8708" gradientTransform="matrix(1, 0, 0, 1, 0, 0)" xlink:href="#New_Gradient_Swatch_2"/><linearGradient id="New_Gradient_Swatch_2-81" x1="2400.052" y1="616.8171" x2="3000.552" y2="616.8171" gradientTransform="matrix(1, 0, 0, 1, 0, 0)" xlink:href="#New_Gradient_Swatch_2"/><linearGradient id="New_Gradient_Swatch_2-82" x1="2400.052" y1="603.7634" x2="3000.552" y2="603.7634" gradientTransform="matrix(1, 0, 0, 1, 0, 0)" xlink:href="#New_Gradient_Swatch_2"/><linearGradient id="New_Gradient_Swatch_2-83" x1="2400.052" y1="590.7098" x2="3000.552" y2="590.7098" gradientTransform="matrix(1, 0, 0, 1, 0, 0)" xlink:href="#New_Gradient_Swatch_2"/><linearGradient id="New_Gradient_Swatch_2-84" x1="2400.052" y1="577.6561" x2="3000.552" y2="577.6561" gradientTransform="matrix(1, 0, 0, 1, 0, 0)" xlink:href="#New_Gradient_Swatch_2"/><linearGradient id="New_Gradient_Swatch_2-85" x1="2400.052" y1="564.6025" x2="3000.552" y2="564.6025" gradientTransform="matrix(1, 0, 0, 1, 0, 0)" xlink:href="#New_Gradient_Swatch_2"/><linearGradient id="New_Gradient_Swatch_2-86" x1="2400.052" y1="551.5488" x2="3000.552" y2="551.5488" gradientTransform="matrix(1, 0, 0, 1, 0, 0)" xlink:href="#New_Gradient_Swatch_2"/><linearGradient id="New_Gradient_Swatch_2-87" x1="2400.052" y1="538.4951" x2="3000.552" y2="538.4951" gradientTransform="matrix(1, 0, 0, 1, 0, 0)" xlink:href="#New_Gradient_Swatch_2"/><linearGradient id="New_Gradient_Swatch_2-88" x1="2400.052" y1="525.4415" x2="3000.552" y2="525.4415" gradientTransform="matrix(1, 0, 0, 1, 0, 0)" xlink:href="#New_Gradient_Swatch_2"/><linearGradient id="New_Gradient_Swatch_2-89" x1="2400.052" y1="512.3878" x2="3000.552" y2="512.3878" gradientTransform="matrix(1, 0, 0, 1, 0, 0)" xlink:href="#New_Gradient_Swatch_2"/><linearGradient id="New_Gradient_Swatch_2-90" x1="2400.052" y1="499.3341" x2="3000.552" y2="499.3341" gradientTransform="matrix(1, 0, 0, 1, 0, 0)" xlink:href="#New_Gradient_Swatch_2"/><linearGradient id="New_Gradient_Swatch_2-91" x1="2400.052" y1="486.2805" x2="3000.552" y2="486.2805" gradientTransform="matrix(1, 0, 0, 1, 0, 0)" xlink:href="#New_Gradient_Swatch_2"/></defs><title>h2</title><g id="v1"><rect x="0.2474" width="2999.6093" height="1112" fill="#0e2947"/><polygon points="0 58.768 0 0 234.851 0 234.851 67.612 388.586 158.126 542.351 67.612 542.351 0 600 0 600 101.554 571.175 118.524 417.41 209.049 388.586 226.009 359.761 209.038 206.027 118.524 177.202 101.543 177.202 58.768 0 58.768" fill="url(#New_Gradient_Swatch_1)"/><polyline points="600 144.781 600 246.334 571.175 263.305 417.41 353.829 388.586 370.79 359.761 353.819 206.027 263.305 177.202 246.324 177.202 203.549 0 203.549" fill="none" stroke-miterlimit="10" stroke="url(#New_Gradient_Swatch_1-2)"/><polyline points="600 131.727 600 233.281 571.175 250.251 417.41 340.776 388.586 357.736 359.761 340.765 206.027 250.251 177.202 233.27 177.202 190.495 0 190.495" fill="none" stroke-miterlimit="10" stroke="url(#New_Gradient_Swatch_1-3)"/><polyline points="600 118.673 600 220.227 571.175 237.198 417.41 327.722 388.586 344.682 359.761 327.712 206.027 237.198 177.202 220.217 177.202 177.441 0 177.441" fill="none" stroke-miterlimit="10" stroke="url(#New_Gradient_Swatch_1-4)"/><polyline points="600 105.62 600 207.173 571.175 224.144 417.41 314.668 388.586 331.629 359.761 314.658 206.027 224.144 177.202 207.163 177.202 164.388 0 164.388" fill="none" stroke-miterlimit="10" stroke="url(#New_Gradient_Swatch_1-5)"/><polyline points="600 92.566 600 194.12 571.175 211.09 417.41 301.615 388.586 318.575 359.761 301.604 206.027 211.09 177.202 194.109 177.202 151.334 0 151.334" fill="none" stroke-miterlimit="10" stroke="url(#New_Gradient_Swatch_1-6)"/><polyline points="600 79.512 600 181.066 571.175 198.037 417.41 288.561 388.586 305.521 359.761 288.551 206.027 198.037 177.202 181.056 177.202 138.28 0 138.28" fill="none" stroke-miterlimit="10" stroke="url(#New_Gradient_Swatch_1-7)"/><polyline points="600 66.459 600 168.012 571.175 184.983 417.41 275.507 388.586 292.468 359.761 275.497 206.027 184.983 177.202 168.002 177.202 125.227 0 125.227" fill="none" stroke-miterlimit="10" stroke="url(#New_Gradient_Swatch_1-8)"/><polyline points="600 53.405 600 154.959 571.175 171.929 417.41 262.454 388.586 279.414 359.761 262.443 206.027 171.929 177.202 154.948 177.202 112.173 0 112.173" fill="none" stroke-miterlimit="10" stroke="url(#New_Gradient_Swatch_1-9)"/><polyline points="600 40.351 600 141.905 571.175 158.876 417.41 249.4 388.586 266.36 359.761 249.39 206.027 158.876 177.202 141.895 177.202 99.119 0 99.119" fill="none" stroke-miterlimit="10" stroke="url(#New_Gradient_Swatch_1-10)"/><polyline points="600 27.298 600 128.851 571.175 145.822 417.41 236.346 388.586 253.307 359.761 236.336 206.027 145.822 177.202 128.841 177.202 86.066 0 86.066" fill="none" stroke-miterlimit="10" stroke="url(#New_Gradient_Swatch_1-11)"/><polyline points="600 14.244 600 115.798 571.175 132.768 417.41 223.293 388.586 240.253 359.761 223.282 206.027 132.768 177.202 115.787 177.202 73.012 0 73.012" fill="none" stroke-miterlimit="10" stroke="url(#New_Gradient_Swatch_1-12)"/><polyline points="600 1.19 600 102.744 571.175 119.715 417.41 210.239 388.586 227.199 359.761 210.229 206.027 119.715 177.202 102.734 177.202 59.958 0 59.958" fill="none" stroke-miterlimit="10" stroke="url(#New_Gradient_Swatch_1-13)"/><polygon points="600 59.958 600 1.19 834.851 1.19 834.851 68.803 988.586 159.317 1142.351 68.803 1142.351 1.19 1200 1.19 1200 102.744 1171.175 119.715 1017.41 210.239 988.586 227.199 959.761 210.229 806.027 119.715 777.202 102.734 777.202 59.958 600 59.958" fill="url(#New_Gradient_Swatch_2)"/><polyline points="1200 145.971 1200 247.525 1171.175 264.495 1017.41 355.02 988.586 371.98 959.761 355.009 806.027 264.495 777.202 247.514 777.202 204.739 600 204.739" fill="none" stroke-miterlimit="10" stroke="url(#New_Gradient_Swatch_2-2)"/><polyline points="1200 132.917 1200 234.471 1171.175 251.442 1017.41 341.966 988.586 358.926 959.761 341.956 806.027 251.442 777.202 234.461 777.202 191.685 600 191.685" fill="none" stroke-miterlimit="10" stroke="url(#New_Gradient_Swatch_2-3)"/><polyline points="1200 119.864 1200 221.417 1171.175 238.388 1017.41 328.912 988.586 345.873 959.761 328.902 806.027 238.388 777.202 221.407 777.202 178.632 600 178.632" fill="none" stroke-miterlimit="10" stroke="url(#New_Gradient_Swatch_2-4)"/><polyline points="1200 106.81 1200 208.364 1171.175 225.334 1017.41 315.859 988.586 332.819 959.761 315.848 806.027 225.334 777.202 208.353 777.202 165.578 600 165.578" fill="none" stroke-miterlimit="10" stroke="url(#New_Gradient_Swatch_2-5)"/><polyline points="1200 93.756 1200 195.31 1171.175 212.281 1017.41 302.805 988.586 319.765 959.761 302.795 806.027 212.281 777.202 195.3 777.202 152.524 600 152.524" fill="none" stroke-miterlimit="10" stroke="url(#New_Gradient_Swatch_2-6)"/><polyline points="1200 80.703 1200 182.256 1171.175 199.227 1017.41 289.751 988.586 306.712 959.761 289.741 806.027 199.227 777.202 182.246 777.202 139.471 600 139.471" fill="none" stroke-miterlimit="10" stroke="url(#New_Gradient_Swatch_2-7)"/><polyline points="1200 67.649 1200 169.203 1171.175 186.173 1017.41 276.698 988.586 293.658 959.761 276.687 806.027 186.173 777.202 169.192 777.202 126.417 600 126.417" fill="none" stroke-miterlimit="10" stroke="url(#New_Gradient_Swatch_2-8)"/><polyline points="1200 54.595 1200 156.149 1171.175 173.12 1017.41 263.644 988.586 280.604 959.761 263.634 806.027 173.12 777.202 156.139 777.202 113.363 600 113.363" fill="none" stroke-miterlimit="10" stroke="url(#New_Gradient_Swatch_2-9)"/><polyline points="1200 41.542 1200 143.095 1171.175 160.066 1017.41 250.59 988.586 267.551 959.761 250.58 806.027 160.066 777.202 143.085 777.202 100.31 600 100.31" fill="none" stroke-miterlimit="10" stroke="url(#New_Gradient_Swatch_2-10)"/><polyline points="1200 28.488 1200 130.042 1171.175 147.012 1017.41 237.537 988.586 254.497 959.761 237.526 806.027 147.012 777.202 130.031 777.202 87.256 600 87.256" fill="none" stroke-miterlimit="10" stroke="url(#New_Gradient_Swatch_2-11)"/><polyline points="1200 15.434 1200 116.988 1171.175 133.959 1017.41 224.483 988.586 241.443 959.761 224.473 806.027 133.959 777.202 116.978 777.202 74.202 600 74.202" fill="none" stroke-miterlimit="10" stroke="url(#New_Gradient_Swatch_2-12)"/><polyline points="1200 2.381 1200 103.934 1171.175 120.905 1017.41 211.429 988.586 228.39 959.761 211.419 806.027 120.905 777.202 103.924 777.202 61.149 600 61.149" fill="none" stroke-miterlimit="10" stroke="url(#New_Gradient_Swatch_2-13)"/><polygon points="1200 59.958 1200 1.19 1434.851 1.19 1434.851 68.803 1588.586 159.317 1742.351 68.803 1742.351 1.19 1800 1.19 1800 102.744 1771.175 119.715 1617.41 210.239 1588.586 227.199 1559.761 210.229 1406.027 119.715 1377.202 102.734 1377.202 59.958 1200 59.958" fill="url(#New_Gradient_Swatch_1-14)"/><polyline points="1800 145.971 1800 247.525 1771.175 264.495 1617.41 355.02 1588.586 371.98 1559.761 355.009 1406.027 264.495 1377.202 247.514 1377.202 204.739 1200 204.739" fill="none" stroke-miterlimit="10" stroke="url(#New_Gradient_Swatch_1-15)"/><polyline points="1800 132.917 1800 234.471 1771.175 251.442 1617.41 341.966 1588.586 358.926 1559.761 341.956 1406.027 251.442 1377.202 234.461 1377.202 191.685 1200 191.685" fill="none" stroke-miterlimit="10" stroke="url(#New_Gradient_Swatch_1-16)"/><polyline points="1800 119.864 1800 221.417 1771.175 238.388 1617.41 328.912 1588.586 345.873 1559.761 328.902 1406.027 238.388 1377.202 221.407 1377.202 178.632 1200 178.632" fill="none" stroke-miterlimit="10" stroke="url(#New_Gradient_Swatch_1-17)"/><polyline points="1800 106.81 1800 208.364 1771.175 225.334 1617.41 315.859 1588.586 332.819 1559.761 315.848 1406.027 225.334 1377.202 208.353 1377.202 165.578 1200 165.578" fill="none" stroke-miterlimit="10" stroke="url(#New_Gradient_Swatch_1-18)"/><polyline points="1800 93.756 1800 195.31 1771.175 212.281 1617.41 302.805 1588.586 319.765 1559.761 302.795 1406.027 212.281 1377.202 195.3 1377.202 152.524 1200 152.524" fill="none" stroke-miterlimit="10" stroke="url(#New_Gradient_Swatch_1-19)"/><polyline points="1800 80.703 1800 182.256 1771.175 199.227 1617.41 289.751 1588.586 306.712 1559.761 289.741 1406.027 199.227 1377.202 182.246 1377.202 139.471 1200 139.471" fill="none" stroke-miterlimit="10" stroke="url(#New_Gradient_Swatch_1-20)"/><polyline points="1800 67.649 1800 169.203 1771.175 186.173 1617.41 276.698 1588.586 293.658 1559.761 276.687 1406.027 186.173 1377.202 169.192 1377.202 126.417 1200 126.417" fill="none" stroke-miterlimit="10" stroke="url(#New_Gradient_Swatch_1-21)"/><polyline points="1800 54.595 1800 156.149 1771.175 173.12 1617.41 263.644 1588.586 280.604 1559.761 263.634 1406.027 173.12 1377.202 156.139 1377.202 113.363 1200 113.363" fill="none" stroke-miterlimit="10" stroke="url(#New_Gradient_Swatch_1-22)"/><polyline points="1800 41.542 1800 143.095 1771.175 160.066 1617.41 250.59 1588.586 267.551 1559.761 250.58 1406.027 160.066 1377.202 143.085 1377.202 100.31 1200 100.31" fill="none" stroke-miterlimit="10" stroke="url(#New_Gradient_Swatch_1-23)"/><polyline points="1800 28.488 1800 130.042 1771.175 147.012 1617.41 237.537 1588.586 254.497 1559.761 237.526 1406.027 147.012 1377.202 130.031 1377.202 87.256 1200 87.256" fill="none" stroke-miterlimit="10" stroke="url(#New_Gradient_Swatch_1-24)"/><polyline points="1800 15.434 1800 116.988 1771.175 133.959 1617.41 224.483 1588.586 241.443 1559.761 224.473 1406.027 133.959 1377.202 116.978 1377.202 74.202 1200 74.202" fill="none" stroke-miterlimit="10" stroke="url(#New_Gradient_Swatch_1-25)"/><polyline points="1800 2.381 1800 103.934 1771.175 120.905 1617.41 211.429 1588.586 228.39 1559.761 211.419 1406.027 120.905 1377.202 103.924 1377.202 61.149 1200 61.149" fill="none" stroke-miterlimit="10" stroke="url(#New_Gradient_Swatch_1-26)"/><polygon points="1800.052 58.768 1800.052 0 2034.903 0 2034.903 67.612 2188.638 158.126 2342.403 67.612 2342.403 0 2400.052 0 2400.052 101.554 2371.227 118.524 2217.462 209.049 2188.638 226.009 2159.813 209.038 2006.079 118.524 1977.254 101.543 1977.254 58.768 1800.052 58.768" fill="url(#New_Gradient_Swatch_2-14)"/><polyline points="2400.052 144.781 2400.052 246.334 2371.227 263.305 2217.462 353.829 2188.638 370.79 2159.813 353.819 2006.079 263.305 1977.254 246.324 1977.254 203.549 1800.052 203.549" fill="none" stroke-miterlimit="10" stroke="url(#New_Gradient_Swatch_2-15)"/><polyline points="2400.052 131.727 2400.052 233.281 2371.227 250.251 2217.462 340.776 2188.638 357.736 2159.813 340.765 2006.079 250.251 1977.254 233.27 1977.254 190.495 1800.052 190.495" fill="none" stroke-miterlimit="10" stroke="url(#New_Gradient_Swatch_2-16)"/><polyline points="2400.052 118.673 2400.052 220.227 2371.227 237.198 2217.462 327.722 2188.638 344.682 2159.813 327.712 2006.079 237.198 1977.254 220.217 1977.254 177.441 1800.052 177.441" fill="none" stroke-miterlimit="10" stroke="url(#New_Gradient_Swatch_2-17)"/><polyline points="2400.052 105.62 2400.052 207.173 2371.227 224.144 2217.462 314.668 2188.638 331.629 2159.813 314.658 2006.079 224.144 1977.254 207.163 1977.254 164.388 1800.052 164.388" fill="none" stroke-miterlimit="10" stroke="url(#New_Gradient_Swatch_2-18)"/><polyline points="2400.052 92.566 2400.052 194.12 2371.227 211.09 2217.462 301.615 2188.638 318.575 2159.813 301.604 2006.079 211.09 1977.254 194.109 1977.254 151.334 1800.052 151.334" fill="none" stroke-miterlimit="10" stroke="url(#New_Gradient_Swatch_2-19)"/><polyline points="2400.052 79.512 2400.052 181.066 2371.227 198.037 2217.462 288.561 2188.638 305.521 2159.813 288.551 2006.079 198.037 1977.254 181.056 1977.254 138.28 1800.052 138.28" fill="none" stroke-miterlimit="10" stroke="url(#New_Gradient_Swatch_2-20)"/><polyline points="2400.052 66.459 2400.052 168.012 2371.227 184.983 2217.462 275.507 2188.638 292.468 2159.813 275.497 2006.079 184.983 1977.254 168.002 1977.254 125.227 1800.052 125.227" fill="none" stroke-miterlimit="10" stroke="url(#New_Gradient_Swatch_2-21)"/><polyline points="2400.052 53.405 2400.052 154.959 2371.227 171.929 2217.462 262.454 2188.638 279.414 2159.813 262.443 2006.079 171.929 1977.254 154.948 1977.254 112.173 1800.052 112.173" fill="none" stroke-miterlimit="10" stroke="url(#New_Gradient_Swatch_2-22)"/><polyline points="2400.052 40.351 2400.052 141.905 2371.227 158.876 2217.462 249.4 2188.638 266.36 2159.813 249.39 2006.079 158.876 1977.254 141.895 1977.254 99.119 1800.052 99.119" fill="none" stroke-miterlimit="10" stroke="url(#New_Gradient_Swatch_2-23)"/><polyline points="2400.052 27.298 2400.052 128.851 2371.227 145.822 2217.462 236.346 2188.638 253.307 2159.813 236.336 2006.079 145.822 1977.254 128.841 1977.254 86.066 1800.052 86.066" fill="none" stroke-miterlimit="10" stroke="url(#New_Gradient_Swatch_2-24)"/><polyline points="2400.052 14.244 2400.052 115.798 2371.227 132.768 2217.462 223.293 2188.638 240.253 2159.813 223.282 2006.079 132.768 1977.254 115.787 1977.254 73.012 1800.052 73.012" fill="none" stroke-miterlimit="10" stroke="url(#New_Gradient_Swatch_2-25)"/><polyline points="2400.052 1.19 2400.052 102.744 2371.227 119.715 2217.462 210.239 2188.638 227.199 2159.813 210.229 2006.079 119.715 1977.254 102.734 1977.254 59.958 1800.052 59.958" fill="none" stroke-miterlimit="10" stroke="url(#New_Gradient_Swatch_2-26)"/><polygon points="2400 58.768 2400 0 2634.851 0 2634.851 67.612 2788.586 158.126 2942.351 67.612 2942.351 0 3000 0 3000 101.554 2971.176 118.524 2817.41 209.049 2788.586 226.009 2759.761 209.038 2606.027 118.524 2577.202 101.543 2577.202 58.768 2400 58.768" fill="url(#New_Gradient_Swatch_1-27)"/><polyline points="3000 144.781 3000 246.334 2971.176 263.305 2817.41 353.829 2788.586 370.79 2759.761 353.819 2606.027 263.305 2577.202 246.324 2577.202 203.549 2400 203.549" fill="none" stroke-miterlimit="10" stroke="url(#New_Gradient_Swatch_1-28)"/><polyline points="3000 131.727 3000 233.281 2971.176 250.251 2817.41 340.776 2788.586 357.736 2759.761 340.765 2606.027 250.251 2577.202 233.27 2577.202 190.495 2400 190.495" fill="none" stroke-miterlimit="10" stroke="url(#New_Gradient_Swatch_1-29)"/><polyline points="3000 118.673 3000 220.227 2971.176 237.198 2817.41 327.722 2788.586 344.682 2759.761 327.712 2606.027 237.198 2577.202 220.217 2577.202 177.441 2400 177.441" fill="none" stroke-miterlimit="10" stroke="url(#New_Gradient_Swatch_1-30)"/><polyline points="3000 105.62 3000 207.173 2971.176 224.144 2817.41 314.668 2788.586 331.629 2759.761 314.658 2606.027 224.144 2577.202 207.163 2577.202 164.388 2400 164.388" fill="none" stroke-miterlimit="10" stroke="url(#New_Gradient_Swatch_1-31)"/><polyline points="3000 92.566 3000 194.12 2971.176 211.09 2817.41 301.615 2788.586 318.575 2759.761 301.604 2606.027 211.09 2577.202 194.109 2577.202 151.334 2400 151.334" fill="none" stroke-miterlimit="10" stroke="url(#New_Gradient_Swatch_1-32)"/><polyline points="3000 79.512 3000 181.066 2971.176 198.037 2817.41 288.561 2788.586 305.521 2759.761 288.551 2606.027 198.037 2577.202 181.056 2577.202 138.28 2400 138.28" fill="none" stroke-miterlimit="10" stroke="url(#New_Gradient_Swatch_1-33)"/><polyline points="3000 66.459 3000 168.012 2971.176 184.983 2817.41 275.507 2788.586 292.468 2759.761 275.497 2606.027 184.983 2577.202 168.002 2577.202 125.227 2400 125.227" fill="none" stroke-miterlimit="10" stroke="url(#New_Gradient_Swatch_1-34)"/><polyline points="3000 53.405 3000 154.959 2971.176 171.929 2817.41 262.454 2788.586 279.414 2759.761 262.443 2606.027 171.929 2577.202 154.948 2577.202 112.173 2400 112.173" fill="none" stroke-miterlimit="10" stroke="url(#New_Gradient_Swatch_1-35)"/><polyline points="3000 40.351 3000 141.905 2971.176 158.876 2817.41 249.4 2788.586 266.36 2759.761 249.39 2606.027 158.876 2577.202 141.895 2577.202 99.119 2400 99.119" fill="none" stroke-miterlimit="10" stroke="url(#New_Gradient_Swatch_1-36)"/><polyline points="3000 27.298 3000 128.851 2971.176 145.822 2817.41 236.346 2788.586 253.307 2759.761 236.336 2606.027 145.822 2577.202 128.841 2577.202 86.066 2400 86.066" fill="none" stroke-miterlimit="10" stroke="url(#New_Gradient_Swatch_1-37)"/><polyline points="3000 14.244 3000 115.798 2971.176 132.768 2817.41 223.293 2788.586 240.253 2759.761 223.282 2606.027 132.768 2577.202 115.787 2577.202 73.012 2400 73.012" fill="none" stroke-miterlimit="10" stroke="url(#New_Gradient_Swatch_1-38)"/><polyline points="3000 1.19 3000 102.744 2971.176 119.715 2817.41 210.239 2788.586 227.199 2759.761 210.229 2606.027 119.715 2577.202 102.734 2577.202 59.958 2400 59.958" fill="none" stroke-miterlimit="10" stroke="url(#New_Gradient_Swatch_1-39)"/><polygon points="0 798.972 0 740.205 234.851 740.205 234.851 807.817 388.586 898.331 542.351 807.817 542.351 740.205 600 740.205 600 841.758 571.175 858.729 417.41 949.253 388.586 966.214 359.761 949.243 206.027 858.729 177.202 841.748 177.202 798.972 0 798.972" fill="url(#New_Gradient_Swatch_1-40)"/><polyline points="600 884.985 600 986.539 571.175 1003.51 417.41 1094.034 388.586 1110.994 359.761 1094.024 206.027 1003.51 177.202 986.528 177.202 943.753 0 943.753" fill="none" stroke-miterlimit="10" stroke="url(#New_Gradient_Swatch_1-41)"/><polyline points="600 871.931 600 973.485 571.175 990.456 417.41 1080.98 388.586 1097.941 359.761 1080.97 206.027 990.456 177.202 973.475 177.202 930.699 0 930.699" fill="none" stroke-miterlimit="10" stroke="url(#New_Gradient_Swatch_1-42)"/><polyline points="600 858.878 600 960.432 571.175 977.402 417.41 1067.927 388.586 1084.887 359.761 1067.916 206.027 977.402 177.202 960.421 177.202 917.646 0 917.646" fill="none" stroke-miterlimit="10" stroke="url(#New_Gradient_Swatch_1-43)"/><polyline points="600 845.824 600 947.378 571.175 964.349 417.41 1054.873 388.586 1071.833 359.761 1054.863 206.027 964.349 177.202 947.367 177.202 904.592 0 904.592" fill="none" stroke-miterlimit="10" stroke="url(#New_Gradient_Swatch_1-44)"/><polyline points="600 832.77 600 934.324 571.175 951.295 417.41 1041.819 388.586 1058.78 359.761 1041.809 206.027 951.295 177.202 934.314 177.202 891.538 0 891.538" fill="none" stroke-miterlimit="10" stroke="url(#New_Gradient_Swatch_1-45)"/><polyline points="600 819.717 600 921.271 571.175 938.241 417.41 1028.766 388.586 1045.726 359.761 1028.755 206.027 938.241 177.202 921.26 177.202 878.485 0 878.485" fill="none" stroke-miterlimit="10" stroke="url(#New_Gradient_Swatch_1-46)"/><polyline points="600 806.663 600 908.217 571.175 925.188 417.41 1015.712 388.586 1032.672 359.761 1015.702 206.027 925.188 177.202 908.207 177.202 865.431 0 865.431" fill="none" stroke-miterlimit="10" stroke="url(#New_Gradient_Swatch_1-47)"/><polyline points="600 793.61 600 895.163 571.175 912.134 417.41 1002.658 388.586 1019.619 359.761 1002.648 206.027 912.134 177.202 895.153 177.202 852.377 0 852.377" fill="none" stroke-miterlimit="10" stroke="url(#New_Gradient_Swatch_1-48)"/><polyline points="600 780.556 600 882.11 571.175 899.08 417.41 989.605 388.586 1006.565 359.761 989.594 206.027 899.08 177.202 882.099 177.202 839.324 0 839.324" fill="none" stroke-miterlimit="10" stroke="url(#New_Gradient_Swatch_1-49)"/><polyline points="600 767.502 600 869.056 571.175 886.027 417.41 976.551 388.586 993.511 359.761 976.541 206.027 886.027 177.202 869.046 177.202 826.27 0 826.27" fill="none" stroke-miterlimit="10" stroke="url(#New_Gradient_Swatch_1-50)"/><polyline points="600 754.449 600 856.002 571.175 872.973 417.41 963.497 388.586 980.458 359.761 963.487 206.027 872.973 177.202 855.992 177.202 813.216 0 813.216" fill="none" stroke-miterlimit="10" stroke="url(#New_Gradient_Swatch_1-51)"/><polyline points="600 741.395 600 842.949 571.175 859.919 417.41 950.444 388.586 967.404 359.761 950.433 206.027 859.919 177.202 842.938 177.202 800.163 0 800.163" fill="none" stroke-miterlimit="10" stroke="url(#New_Gradient_Swatch_1-52)"/><polygon points="600.052 798.972 600.052 740.205 834.903 740.205 834.903 807.817 988.638 898.331 1142.403 807.817 1142.403 740.205 1200.052 740.205 1200.052 841.758 1171.227 858.729 1017.462 949.253 988.638 966.214 959.813 949.243 806.079 858.729 777.254 841.748 777.254 798.972 600.052 798.972" fill="url(#New_Gradient_Swatch_2-27)"/><polyline points="1200.052 884.985 1200.052 986.539 1171.227 1003.51 1017.462 1094.034 988.638 1110.994 959.813 1094.024 806.079 1003.51 777.254 986.528 777.254 943.753 600.052 943.753" fill="none" stroke-miterlimit="10" stroke="url(#New_Gradient_Swatch_2-28)"/><polyline points="1200.052 871.931 1200.052 973.485 1171.227 990.456 1017.462 1080.98 988.638 1097.941 959.813 1080.97 806.079 990.456 777.254 973.475 777.254 930.699 600.052 930.699" fill="none" stroke-miterlimit="10" stroke="url(#New_Gradient_Swatch_2-29)"/><polyline points="1200.052 858.878 1200.052 960.432 1171.227 977.402 1017.462 1067.927 988.638 1084.887 959.813 1067.916 806.079 977.402 777.254 960.421 777.254 917.646 600.052 917.646" fill="none" stroke-miterlimit="10" stroke="url(#New_Gradient_Swatch_2-30)"/><polyline points="1200.052 845.824 1200.052 947.378 1171.227 964.349 1017.462 1054.873 988.638 1071.833 959.813 1054.863 806.079 964.349 777.254 947.367 777.254 904.592 600.052 904.592" fill="none" stroke-miterlimit="10" stroke="url(#New_Gradient_Swatch_2-31)"/><polyline points="1200.052 832.77 1200.052 934.324 1171.227 951.295 1017.462 1041.819 988.638 1058.78 959.813 1041.809 806.079 951.295 777.254 934.314 777.254 891.538 600.052 891.538" fill="none" stroke-miterlimit="10" stroke="url(#New_Gradient_Swatch_2-32)"/><polyline points="1200.052 819.717 1200.052 921.271 1171.227 938.241 1017.462 1028.766 988.638 1045.726 959.813 1028.755 806.079 938.241 777.254 921.26 777.254 878.485 600.052 878.485" fill="none" stroke-miterlimit="10" stroke="url(#New_Gradient_Swatch_2-33)"/><polyline points="1200.052 806.663 1200.052 908.217 1171.227 925.188 1017.462 1015.712 988.638 1032.672 959.813 1015.702 806.079 925.188 777.254 908.207 777.254 865.431 600.052 865.431" fill="none" stroke-miterlimit="10" stroke="url(#New_Gradient_Swatch_2-34)"/><polyline points="1200.052 793.61 1200.052 895.163 1171.227 912.134 1017.462 1002.658 988.638 1019.619 959.813 1002.648 806.079 912.134 777.254 895.153 777.254 852.377 600.052 852.377" fill="none" stroke-miterlimit="10" stroke="url(#New_Gradient_Swatch_2-35)"/><polyline points="1200.052 780.556 1200.052 882.11 1171.227 899.08 1017.462 989.605 988.638 1006.565 959.813 989.594 806.079 899.08 777.254 882.099 777.254 839.324 600.052 839.324" fill="none" stroke-miterlimit="10" stroke="url(#New_Gradient_Swatch_2-36)"/><polyline points="1200.052 767.502 1200.052 869.056 1171.227 886.027 1017.462 976.551 988.638 993.511 959.813 976.541 806.079 886.027 777.254 869.046 777.254 826.27 600.052 826.27" fill="none" stroke-miterlimit="10" stroke="url(#New_Gradient_Swatch_2-37)"/><polyline points="1200.052 754.449 1200.052 856.002 1171.227 872.973 1017.462 963.497 988.638 980.458 959.813 963.487 806.079 872.973 777.254 855.992 777.254 813.216 600.052 813.216" fill="none" stroke-miterlimit="10" stroke="url(#New_Gradient_Swatch_2-38)"/><polyline points="1200.052 741.395 1200.052 842.949 1171.227 859.919 1017.462 950.444 988.638 967.404 959.813 950.433 806.079 859.919 777.254 842.938 777.254 800.163 600.052 800.163" fill="none" stroke-miterlimit="10" stroke="url(#New_Gradient_Swatch_2-39)"/><polygon points="1200.052 798.972 1200.052 740.205 1434.903 740.205 1434.903 807.817 1588.638 898.331 1742.403 807.817 1742.403 740.205 1800.052 740.205 1800.052 841.758 1771.227 858.729 1617.462 949.253 1588.638 966.214 1559.813 949.243 1406.079 858.729 1377.254 841.748 1377.254 798.972 1200.052 798.972" fill="url(#New_Gradient_Swatch_1-53)"/><polyline points="1800.052 884.985 1800.052 986.539 1771.227 1003.51 1617.462 1094.034 1588.638 1110.994 1559.813 1094.024 1406.079 1003.51 1377.254 986.528 1377.254 943.753 1200.052 943.753" fill="none" stroke-miterlimit="10" stroke="url(#New_Gradient_Swatch_1-54)"/><polyline points="1800.052 871.931 1800.052 973.485 1771.227 990.456 1617.462 1080.98 1588.638 1097.941 1559.813 1080.97 1406.079 990.456 1377.254 973.475 1377.254 930.699 1200.052 930.699" fill="none" stroke-miterlimit="10" stroke="url(#New_Gradient_Swatch_1-55)"/><polyline points="1800.052 858.878 1800.052 960.432 1771.227 977.402 1617.462 1067.927 1588.638 1084.887 1559.813 1067.916 1406.079 977.402 1377.254 960.421 1377.254 917.646 1200.052 917.646" fill="none" stroke-miterlimit="10" stroke="url(#New_Gradient_Swatch_1-56)"/><polyline points="1800.052 845.824 1800.052 947.378 1771.227 964.349 1617.462 1054.873 1588.638 1071.833 1559.813 1054.863 1406.079 964.349 1377.254 947.367 1377.254 904.592 1200.052 904.592" fill="none" stroke-miterlimit="10" stroke="url(#New_Gradient_Swatch_1-57)"/><polyline points="1800.052 832.77 1800.052 934.324 1771.227 951.295 1617.462 1041.819 1588.638 1058.78 1559.813 1041.809 1406.079 951.295 1377.254 934.314 1377.254 891.538 1200.052 891.538" fill="none" stroke-miterlimit="10" stroke="url(#New_Gradient_Swatch_1-58)"/><polyline points="1800.052 819.717 1800.052 921.271 1771.227 938.241 1617.462 1028.766 1588.638 1045.726 1559.813 1028.755 1406.079 938.241 1377.254 921.26 1377.254 878.485 1200.052 878.485" fill="none" stroke-miterlimit="10" stroke="url(#New_Gradient_Swatch_1-59)"/><polyline points="1800.052 806.663 1800.052 908.217 1771.227 925.188 1617.462 1015.712 1588.638 1032.672 1559.813 1015.702 1406.079 925.188 1377.254 908.207 1377.254 865.431 1200.052 865.431" fill="none" stroke-miterlimit="10" stroke="url(#New_Gradient_Swatch_1-60)"/><polyline points="1800.052 793.61 1800.052 895.163 1771.227 912.134 1617.462 1002.658 1588.638 1019.619 1559.813 1002.648 1406.079 912.134 1377.254 895.153 1377.254 852.377 1200.052 852.377" fill="none" stroke-miterlimit="10" stroke="url(#New_Gradient_Swatch_1-61)"/><polyline points="1800.052 780.556 1800.052 882.11 1771.227 899.08 1617.462 989.605 1588.638 1006.565 1559.813 989.594 1406.079 899.08 1377.254 882.099 1377.254 839.324 1200.052 839.324" fill="none" stroke-miterlimit="10" stroke="url(#New_Gradient_Swatch_1-62)"/><polyline points="1800.052 767.502 1800.052 869.056 1771.227 886.027 1617.462 976.551 1588.638 993.511 1559.813 976.541 1406.079 886.027 1377.254 869.046 1377.254 826.27 1200.052 826.27" fill="none" stroke-miterlimit="10" stroke="url(#New_Gradient_Swatch_1-63)"/><polyline points="1800.052 754.449 1800.052 856.002 1771.227 872.973 1617.462 963.497 1588.638 980.458 1559.813 963.487 1406.079 872.973 1377.254 855.992 1377.254 813.216 1200.052 813.216" fill="none" stroke-miterlimit="10" stroke="url(#New_Gradient_Swatch_1-64)"/><polyline points="1800.052 741.395 1800.052 842.949 1771.227 859.919 1617.462 950.444 1588.638 967.404 1559.813 950.433 1406.079 859.919 1377.254 842.938 1377.254 800.163 1200.052 800.163" fill="none" stroke-miterlimit="10" stroke="url(#New_Gradient_Swatch_1-65)"/><polygon points="1800 800.163 1800 741.395 2034.851 741.395 2034.851 809.007 2188.586 899.521 2342.351 809.007 2342.351 741.395 2400 741.395 2400 842.949 2371.175 859.919 2217.41 950.444 2188.586 967.404 2159.761 950.433 2006.027 859.919 1977.202 842.938 1977.202 800.163 1800 800.163" fill="url(#New_Gradient_Swatch_2-40)"/><polyline points="2400 886.176 2400 987.729 2371.175 1004.7 2217.41 1095.224 2188.586 1112.185 2159.761 1095.214 2006.027 1004.7 1977.202 987.719 1977.202 944.943 1800 944.943" fill="none" stroke-miterlimit="10" stroke="url(#New_Gradient_Swatch_2-41)"/><polyline points="2400 873.122 2400 974.676 2371.175 991.646 2217.41 1082.171 2188.586 1099.131 2159.761 1082.16 2006.027 991.646 1977.202 974.665 1977.202 931.89 1800 931.89" fill="none" stroke-miterlimit="10" stroke="url(#New_Gradient_Swatch_2-42)"/><polyline points="2400 860.068 2400 961.622 2371.175 978.593 2217.41 1069.117 2188.586 1086.077 2159.761 1069.107 2006.027 978.593 1977.202 961.612 1977.202 918.836 1800 918.836" fill="none" stroke-miterlimit="10" stroke="url(#New_Gradient_Swatch_2-43)"/><polyline points="2400 847.015 2400 948.568 2371.175 965.539 2217.41 1056.063 2188.586 1073.024 2159.761 1056.053 2006.027 965.539 1977.202 948.558 1977.202 905.782 1800 905.782" fill="none" stroke-miterlimit="10" stroke="url(#New_Gradient_Swatch_2-44)"/><polyline points="2400 833.961 2400 935.515 2371.175 952.485 2217.41 1043.01 2188.586 1059.97 2159.761 1042.999 2006.027 952.485 1977.202 935.504 1977.202 892.729 1800 892.729" fill="none" stroke-miterlimit="10" stroke="url(#New_Gradient_Swatch_2-45)"/><polyline points="2400 820.907 2400 922.461 2371.175 939.432 2217.41 1029.956 2188.586 1046.916 2159.761 1029.946 2006.027 939.432 1977.202 922.451 1977.202 879.675 1800 879.675" fill="none" stroke-miterlimit="10" stroke="url(#New_Gradient_Swatch_2-46)"/><polyline points="2400 807.854 2400 909.407 2371.175 926.378 2217.41 1016.902 2188.586 1033.863 2159.761 1016.892 2006.027 926.378 1977.202 909.397 1977.202 866.621 1800 866.621" fill="none" stroke-miterlimit="10" stroke="url(#New_Gradient_Swatch_2-47)"/><polyline points="2400 794.8 2400 896.354 2371.175 913.324 2217.41 1003.849 2188.586 1020.809 2159.761 1003.838 2006.027 913.324 1977.202 896.343 1977.202 853.568 1800 853.568" fill="none" stroke-miterlimit="10" stroke="url(#New_Gradient_Swatch_2-48)"/><polyline points="2400 781.746 2400 883.3 2371.175 900.271 2217.41 990.795 2188.586 1007.755 2159.761 990.785 2006.027 900.271 1977.202 883.29 1977.202 840.514 1800 840.514" fill="none" stroke-miterlimit="10" stroke="url(#New_Gradient_Swatch_2-49)"/><polyline points="2400 768.693 2400 870.246 2371.175 887.217 2217.41 977.741 2188.586 994.702 2159.761 977.731 2006.027 887.217 1977.202 870.236 1977.202 827.46 1800 827.46" fill="none" stroke-miterlimit="10" stroke="url(#New_Gradient_Swatch_2-50)"/><polyline points="2400 755.639 2400 857.193 2371.175 874.163 2217.41 964.688 2188.586 981.648 2159.761 964.677 2006.027 874.163 1977.202 857.182 1977.202 814.407 1800 814.407" fill="none" stroke-miterlimit="10" stroke="url(#New_Gradient_Swatch_2-51)"/><polyline points="2400 742.585 2400 844.139 2371.175 861.11 2217.41 951.634 2188.586 968.594 2159.761 951.624 2006.027 861.11 1977.202 844.129 1977.202 801.353 1800 801.353" fill="none" stroke-miterlimit="10" stroke="url(#New_Gradient_Swatch_2-52)"/><polygon points="2400.052 800.163 2400.052 741.395 2634.903 741.395 2634.903 809.007 2788.638 899.521 2942.403 809.007 2942.403 741.395 3000.052 741.395 3000.052 842.949 2971.227 859.919 2817.462 950.444 2788.638 967.404 2759.813 950.433 2606.079 859.919 2577.254 842.938 2577.254 800.163 2400.052 800.163" fill="url(#New_Gradient_Swatch_1-66)"/><polyline points="3000.052 886.176 3000.052 987.729 2971.227 1004.7 2817.462 1095.224 2788.638 1112.185 2759.813 1095.214 2606.079 1004.7 2577.254 987.719 2577.254 944.943 2400.052 944.943" fill="none" stroke-miterlimit="10" stroke="url(#New_Gradient_Swatch_1-67)"/><polyline points="3000.052 873.122 3000.052 974.676 2971.227 991.646 2817.462 1082.171 2788.638 1099.131 2759.813 1082.16 2606.079 991.646 2577.254 974.665 2577.254 931.89 2400.052 931.89" fill="none" stroke-miterlimit="10" stroke="url(#New_Gradient_Swatch_1-68)"/><polyline points="3000.052 860.068 3000.052 961.622 2971.227 978.593 2817.462 1069.117 2788.638 1086.077 2759.813 1069.107 2606.079 978.593 2577.254 961.612 2577.254 918.836 2400.052 918.836" fill="none" stroke-miterlimit="10" stroke="url(#New_Gradient_Swatch_1-69)"/><polyline points="3000.052 847.015 3000.052 948.568 2971.227 965.539 2817.462 1056.063 2788.638 1073.024 2759.813 1056.053 2606.079 965.539 2577.254 948.558 2577.254 905.782 2400.052 905.782" fill="none" stroke-miterlimit="10" stroke="url(#New_Gradient_Swatch_1-70)"/><polyline points="3000.052 833.961 3000.052 935.515 2971.227 952.485 2817.462 1043.01 2788.638 1059.97 2759.813 1042.999 2606.079 952.485 2577.254 935.504 2577.254 892.729 2400.052 892.729" fill="none" stroke-miterlimit="10" stroke="url(#New_Gradient_Swatch_1-71)"/><polyline points="3000.052 820.907 3000.052 922.461 2971.227 939.432 2817.462 1029.956 2788.638 1046.916 2759.813 1029.946 2606.079 939.432 2577.254 922.451 2577.254 879.675 2400.052 879.675" fill="none" stroke-miterlimit="10" stroke="url(#New_Gradient_Swatch_1-72)"/><polyline points="3000.052 807.854 3000.052 909.407 2971.227 926.378 2817.462 1016.902 2788.638 1033.863 2759.813 1016.892 2606.079 926.378 2577.254 909.397 2577.254 866.621 2400.052 866.621" fill="none" stroke-miterlimit="10" stroke="url(#New_Gradient_Swatch_1-73)"/><polyline points="3000.052 794.8 3000.052 896.354 2971.227 913.324 2817.462 1003.849 2788.638 1020.809 2759.813 1003.838 2606.079 913.324 2577.254 896.343 2577.254 853.568 2400.052 853.568" fill="none" stroke-miterlimit="10" stroke="url(#New_Gradient_Swatch_1-74)"/><polyline points="3000.052 781.746 3000.052 883.3 2971.227 900.271 2817.462 990.795 2788.638 1007.755 2759.813 990.785 2606.079 900.271 2577.254 883.29 2577.254 840.514 2400.052 840.514" fill="none" stroke-miterlimit="10" stroke="url(#New_Gradient_Swatch_1-75)"/><polyline points="3000.052 768.693 3000.052 870.246 2971.227 887.217 2817.462 977.741 2788.638 994.702 2759.813 977.731 2606.079 887.217 2577.254 870.236 2577.254 827.46 2400.052 827.46" fill="none" stroke-miterlimit="10" stroke="url(#New_Gradient_Swatch_1-76)"/><polyline points="3000.052 755.639 3000.052 857.193 2971.227 874.163 2817.462 964.688 2788.638 981.648 2759.813 964.677 2606.079 874.163 2577.254 857.182 2577.254 814.407 2400.052 814.407" fill="none" stroke-miterlimit="10" stroke="url(#New_Gradient_Swatch_1-77)"/><polyline points="3000.052 742.585 3000.052 844.139 2971.227 861.11 2817.462 951.634 2788.638 968.594 2759.813 951.624 2606.079 861.11 2577.254 844.129 2577.254 801.353 2400.052 801.353" fill="none" stroke-miterlimit="10" stroke="url(#New_Gradient_Swatch_1-78)"/><polygon points="0.052 428.183 0.052 369.415 234.903 369.415 234.903 437.027 388.638 527.541 542.403 437.027 542.403 369.415 600.052 369.415 600.052 470.968 571.227 487.939 417.462 578.463 388.638 595.424 359.813 578.453 206.079 487.939 177.254 470.958 177.254 428.183 0.052 428.183" fill="url(#New_Gradient_Swatch_2-53)"/><polyline points="600.052 514.195 600.052 615.749 571.227 632.72 417.462 723.244 388.638 740.205 359.813 723.234 206.079 632.72 177.254 615.739 177.254 572.963 0.052 572.963" fill="none" stroke-miterlimit="10" stroke="url(#New_Gradient_Swatch_2-54)"/><polyline points="600.052 501.142 600.052 602.695 571.227 619.666 417.462 710.19 388.638 727.151 359.813 710.18 206.079 619.666 177.254 602.685 177.254 559.91 0.052 559.91" fill="none" stroke-miterlimit="10" stroke="url(#New_Gradient_Swatch_2-55)"/><polyline points="600.052 488.088 600.052 589.642 571.227 606.613 417.462 697.137 388.638 714.097 359.813 697.126 206.079 606.613 177.254 589.631 177.254 546.856 0.052 546.856" fill="none" stroke-miterlimit="10" stroke="url(#New_Gradient_Swatch_2-56)"/><polyline points="600.052 475.034 600.052 576.588 571.227 593.559 417.462 684.083 388.638 701.044 359.813 684.073 206.079 593.559 177.254 576.578 177.254 533.802 0.052 533.802" fill="none" stroke-miterlimit="10" stroke="url(#New_Gradient_Swatch_2-57)"/><polyline points="600.052 461.981 600.052 563.534 571.227 580.505 417.462 671.029 388.638 687.99 359.813 671.019 206.079 580.505 177.254 563.524 177.254 520.749 0.052 520.749" fill="none" stroke-miterlimit="10" stroke="url(#New_Gradient_Swatch_2-58)"/><polyline points="600.052 448.927 600.052 550.481 571.227 567.452 417.462 657.976 388.638 674.936 359.813 657.965 206.079 567.452 177.254 550.47 177.254 507.695 0.052 507.695" fill="none" stroke-miterlimit="10" stroke="url(#New_Gradient_Swatch_2-59)"/><polyline points="600.052 435.873 600.052 537.427 571.227 554.398 417.462 644.922 388.638 661.883 359.813 644.912 206.079 554.398 177.254 537.417 177.254 494.641 0.052 494.641" fill="none" stroke-miterlimit="10" stroke="url(#New_Gradient_Swatch_2-60)"/><polyline points="600.052 422.82 600.052 524.373 571.227 541.344 417.462 631.869 388.638 648.829 359.813 631.858 206.079 541.344 177.254 524.363 177.254 481.588 0.052 481.588" fill="none" stroke-miterlimit="10" stroke="url(#New_Gradient_Swatch_2-61)"/><polyline points="600.052 409.766 600.052 511.32 571.227 528.291 417.462 618.815 388.638 635.775 359.813 618.804 206.079 528.291 177.254 511.309 177.254 468.534 0.052 468.534" fill="none" stroke-miterlimit="10" stroke="url(#New_Gradient_Swatch_2-62)"/><polyline points="600.052 396.712 600.052 498.266 571.227 515.237 417.462 605.761 388.638 622.722 359.813 605.751 206.079 515.237 177.254 498.256 177.254 455.48 0.052 455.48" fill="none" stroke-miterlimit="10" stroke="url(#New_Gradient_Swatch_2-63)"/><polyline points="600.052 383.659 600.052 485.212 571.227 502.183 417.462 592.708 388.638 609.668 359.813 592.697 206.079 502.183 177.254 485.202 177.254 442.427 0.052 442.427" fill="none" stroke-miterlimit="10" stroke="url(#New_Gradient_Swatch_2-64)"/><polyline points="600.052 370.605 600.052 472.159 571.227 489.13 417.462 579.654 388.638 596.614 359.813 579.644 206.079 489.13 177.254 472.148 177.254 429.373 0.052 429.373" fill="none" stroke-miterlimit="10" stroke="url(#New_Gradient_Swatch_2-65)"/><polygon points="600.052 428.183 600.052 369.415 834.903 369.415 834.903 437.027 988.638 527.541 1142.403 437.027 1142.403 369.415 1200.052 369.415 1200.052 470.968 1171.227 487.939 1017.462 578.463 988.638 595.424 959.813 578.453 806.079 487.939 777.254 470.958 777.254 428.183 600.052 428.183" fill="url(#New_Gradient_Swatch_1-79)"/><polyline points="1200.052 514.195 1200.052 615.749 1171.227 632.72 1017.462 723.244 988.638 740.205 959.813 723.234 806.079 632.72 777.254 615.739 777.254 572.963 600.052 572.963" fill="none" stroke-miterlimit="10" stroke="url(#New_Gradient_Swatch_1-80)"/><polyline points="1200.052 501.142 1200.052 602.695 1171.227 619.666 1017.462 710.19 988.638 727.151 959.813 710.18 806.079 619.666 777.254 602.685 777.254 559.91 600.052 559.91" fill="none" stroke-miterlimit="10" stroke="url(#New_Gradient_Swatch_1-81)"/><polyline points="1200.052 488.088 1200.052 589.642 1171.227 606.613 1017.462 697.137 988.638 714.097 959.813 697.126 806.079 606.613 777.254 589.631 777.254 546.856 600.052 546.856" fill="none" stroke-miterlimit="10" stroke="url(#New_Gradient_Swatch_1-82)"/><polyline points="1200.052 475.034 1200.052 576.588 1171.227 593.559 1017.462 684.083 988.638 701.044 959.813 684.073 806.079 593.559 777.254 576.578 777.254 533.802 600.052 533.802" fill="none" stroke-miterlimit="10" stroke="url(#New_Gradient_Swatch_1-83)"/><polyline points="1200.052 461.981 1200.052 563.534 1171.227 580.505 1017.462 671.029 988.638 687.99 959.813 671.019 806.079 580.505 777.254 563.524 777.254 520.749 600.052 520.749" fill="none" stroke-miterlimit="10" stroke="url(#New_Gradient_Swatch_1-84)"/><polyline points="1200.052 448.927 1200.052 550.481 1171.227 567.452 1017.462 657.976 988.638 674.936 959.813 657.965 806.079 567.452 777.254 550.47 777.254 507.695 600.052 507.695" fill="none" stroke-miterlimit="10" stroke="url(#New_Gradient_Swatch_1-85)"/><polyline points="1200.052 435.873 1200.052 537.427 1171.227 554.398 1017.462 644.922 988.638 661.883 959.813 644.912 806.079 554.398 777.254 537.417 777.254 494.641 600.052 494.641" fill="none" stroke-miterlimit="10" stroke="url(#New_Gradient_Swatch_1-86)"/><polyline points="1200.052 422.82 1200.052 524.373 1171.227 541.344 1017.462 631.869 988.638 648.829 959.813 631.858 806.079 541.344 777.254 524.363 777.254 481.588 600.052 481.588" fill="none" stroke-miterlimit="10" stroke="url(#New_Gradient_Swatch_1-87)"/><polyline points="1200.052 409.766 1200.052 511.32 1171.227 528.291 1017.462 618.815 988.638 635.775 959.813 618.804 806.079 528.291 777.254 511.309 777.254 468.534 600.052 468.534" fill="none" stroke-miterlimit="10" stroke="url(#New_Gradient_Swatch_1-88)"/><polyline points="1200.052 396.712 1200.052 498.266 1171.227 515.237 1017.462 605.761 988.638 622.722 959.813 605.751 806.079 515.237 777.254 498.256 777.254 455.48 600.052 455.48" fill="none" stroke-miterlimit="10" stroke="url(#New_Gradient_Swatch_1-89)"/><polyline points="1200.052 383.659 1200.052 485.212 1171.227 502.183 1017.462 592.708 988.638 609.668 959.813 592.697 806.079 502.183 777.254 485.202 777.254 442.427 600.052 442.427" fill="none" stroke-miterlimit="10" stroke="url(#New_Gradient_Swatch_1-90)"/><polyline points="1200.052 370.605 1200.052 472.159 1171.227 489.13 1017.462 579.654 988.638 596.614 959.813 579.644 806.079 489.13 777.254 472.148 777.254 429.373 600.052 429.373" fill="none" stroke-miterlimit="10" stroke="url(#New_Gradient_Swatch_1-91)"/><polygon points="1200.052 429.373 1200.052 370.605 1434.903 370.605 1434.903 438.217 1588.638 528.731 1742.403 438.217 1742.403 370.605 1800.052 370.605 1800.052 472.159 1771.227 489.13 1617.462 579.654 1588.638 596.614 1559.813 579.644 1406.079 489.13 1377.254 472.148 1377.254 429.373 1200.052 429.373" fill="url(#New_Gradient_Swatch_2-66)"/><polyline points="1800.052 515.386 1800.052 616.939 1771.227 633.91 1617.462 724.435 1588.638 741.395 1559.813 724.424 1406.079 633.91 1377.254 616.929 1377.254 574.154 1200.052 574.154" fill="none" stroke-miterlimit="10" stroke="url(#New_Gradient_Swatch_2-67)"/><polyline points="1800.052 502.332 1800.052 603.886 1771.227 620.857 1617.462 711.381 1588.638 728.341 1559.813 711.37 1406.079 620.857 1377.254 603.875 1377.254 561.1 1200.052 561.1" fill="none" stroke-miterlimit="10" stroke="url(#New_Gradient_Swatch_2-68)"/><polyline points="1800.052 489.278 1800.052 590.832 1771.227 607.803 1617.462 698.327 1588.638 715.288 1559.813 698.317 1406.079 607.803 1377.254 590.822 1377.254 548.046 1200.052 548.046" fill="none" stroke-miterlimit="10" stroke="url(#New_Gradient_Swatch_2-69)"/><polyline points="1800.052 476.225 1800.052 577.778 1771.227 594.749 1617.462 685.274 1588.638 702.234 1559.813 685.263 1406.079 594.749 1377.254 577.768 1377.254 534.993 1200.052 534.993" fill="none" stroke-miterlimit="10" stroke="url(#New_Gradient_Swatch_2-70)"/><polyline points="1800.052 463.171 1800.052 564.725 1771.227 581.696 1617.462 672.22 1588.638 689.18 1559.813 672.209 1406.079 581.696 1377.254 564.714 1377.254 521.939 1200.052 521.939" fill="none" stroke-miterlimit="10" stroke="url(#New_Gradient_Swatch_2-71)"/><polyline points="1800.052 450.117 1800.052 551.671 1771.227 568.642 1617.462 659.166 1588.638 676.127 1559.813 659.156 1406.079 568.642 1377.254 551.661 1377.254 508.885 1200.052 508.885" fill="none" stroke-miterlimit="10" stroke="url(#New_Gradient_Swatch_2-72)"/><polyline points="1800.052 437.064 1800.052 538.618 1771.227 555.588 1617.462 646.113 1588.638 663.073 1559.813 646.102 1406.079 555.588 1377.254 538.607 1377.254 495.832 1200.052 495.832" fill="none" stroke-miterlimit="10" stroke="url(#New_Gradient_Swatch_2-73)"/><polyline points="1800.052 424.01 1800.052 525.564 1771.227 542.535 1617.462 633.059 1588.638 650.019 1559.813 633.049 1406.079 542.535 1377.254 525.553 1377.254 482.778 1200.052 482.778" fill="none" stroke-miterlimit="10" stroke="url(#New_Gradient_Swatch_2-74)"/><polyline points="1800.052 410.956 1800.052 512.51 1771.227 529.481 1617.462 620.005 1588.638 636.966 1559.813 619.995 1406.079 529.481 1377.254 512.5 1377.254 469.724 1200.052 469.724" fill="none" stroke-miterlimit="10" stroke="url(#New_Gradient_Swatch_2-75)"/><polyline points="1800.052 397.903 1800.052 499.457 1771.227 516.427 1617.462 606.952 1588.638 623.912 1559.813 606.941 1406.079 516.427 1377.254 499.446 1377.254 456.671 1200.052 456.671" fill="none" stroke-miterlimit="10" stroke="url(#New_Gradient_Swatch_2-76)"/><polyline points="1800.052 384.849 1800.052 486.403 1771.227 503.374 1617.462 593.898 1588.638 610.858 1559.813 593.888 1406.079 503.374 1377.254 486.393 1377.254 443.617 1200.052 443.617" fill="none" stroke-miterlimit="10" stroke="url(#New_Gradient_Swatch_2-77)"/><polyline points="1800.052 371.795 1800.052 473.349 1771.227 490.32 1617.462 580.844 1588.638 597.805 1559.813 580.834 1406.079 490.32 1377.254 473.339 1377.254 430.563 1200.052 430.563" fill="none" stroke-miterlimit="10" stroke="url(#New_Gradient_Swatch_2-78)"/><polygon points="1800.052 430.563 1800.052 371.795 2034.903 371.795 2034.903 439.408 2188.638 529.922 2342.403 439.408 2342.403 371.795 2400.052 371.795 2400.052 473.349 2371.227 490.32 2217.462 580.844 2188.638 597.805 2159.813 580.834 2006.079 490.32 1977.254 473.339 1977.254 430.563 1800.052 430.563" fill="url(#New_Gradient_Swatch_1-92)"/><polyline points="2400.052 516.576 2400.052 618.13 2371.227 635.101 2217.462 725.625 2188.638 742.585 2159.813 725.615 2006.079 635.101 1977.254 618.119 1977.254 575.344 1800.052 575.344" fill="none" stroke-miterlimit="10" stroke="url(#New_Gradient_Swatch_1-93)"/><polyline points="2400.052 503.522 2400.052 605.076 2371.227 622.047 2217.462 712.571 2188.638 729.532 2159.813 712.561 2006.079 622.047 1977.254 605.066 1977.254 562.29 1800.052 562.29" fill="none" stroke-miterlimit="10" stroke="url(#New_Gradient_Swatch_1-94)"/><polyline points="2400.052 490.469 2400.052 592.023 2371.227 608.993 2217.462 699.518 2188.638 716.478 2159.813 699.507 2006.079 608.993 1977.254 592.012 1977.254 549.237 1800.052 549.237" fill="none" stroke-miterlimit="10" stroke="url(#New_Gradient_Swatch_1-95)"/><polyline points="2400.052 477.415 2400.052 578.969 2371.227 595.94 2217.462 686.464 2188.638 703.424 2159.813 686.454 2006.079 595.94 1977.254 578.958 1977.254 536.183 1800.052 536.183" fill="none" stroke-miterlimit="10" stroke="url(#New_Gradient_Swatch_1-96)"/><polyline points="2400.052 464.361 2400.052 565.915 2371.227 582.886 2217.462 673.41 2188.638 690.371 2159.813 673.4 2006.079 582.886 1977.254 565.905 1977.254 523.129 1800.052 523.129" fill="none" stroke-miterlimit="10" stroke="url(#New_Gradient_Swatch_1-97)"/><polyline points="2400.052 451.308 2400.052 552.862 2371.227 569.832 2217.462 660.357 2188.638 677.317 2159.813 660.346 2006.079 569.832 1977.254 552.851 1977.254 510.076 1800.052 510.076" fill="none" stroke-miterlimit="10" stroke="url(#New_Gradient_Swatch_1-98)"/><polyline points="2400.052 438.254 2400.052 539.808 2371.227 556.779 2217.462 647.303 2188.638 664.263 2159.813 647.293 2006.079 556.779 1977.254 539.798 1977.254 497.022 1800.052 497.022" fill="none" stroke-miterlimit="10" stroke="url(#New_Gradient_Swatch_1-99)"/><polyline points="2400.052 425.201 2400.052 526.754 2371.227 543.725 2217.462 634.249 2188.638 651.21 2159.813 634.239 2006.079 543.725 1977.254 526.744 1977.254 483.968 1800.052 483.968" fill="none" stroke-miterlimit="10" stroke="url(#New_Gradient_Swatch_1-100)"/><polyline points="2400.052 412.147 2400.052 513.701 2371.227 530.671 2217.462 621.196 2188.638 638.156 2159.813 621.185 2006.079 530.671 1977.254 513.69 1977.254 470.915 1800.052 470.915" fill="none" stroke-miterlimit="10" stroke="url(#New_Gradient_Swatch_1-101)"/><polyline points="2400.052 399.093 2400.052 500.647 2371.227 517.618 2217.462 608.142 2188.638 625.102 2159.813 608.132 2006.079 517.618 1977.254 500.637 1977.254 457.861 1800.052 457.861" fill="none" stroke-miterlimit="10" stroke="url(#New_Gradient_Swatch_1-102)"/><polyline points="2400.052 386.04 2400.052 487.593 2371.227 504.564 2217.462 595.088 2188.638 612.049 2159.813 595.078 2006.079 504.564 1977.254 487.583 1977.254 444.807 1800.052 444.807" fill="none" stroke-miterlimit="10" stroke="url(#New_Gradient_Swatch_1-103)"/><polyline points="2400.052 372.986 2400.052 474.54 2371.227 491.51 2217.462 582.035 2188.638 598.995 2159.813 582.024 2006.079 491.51 1977.254 474.529 1977.254 431.754 1800.052 431.754" fill="none" stroke-miterlimit="10" stroke="url(#New_Gradient_Swatch_1-104)"/><polygon points="2400.052 430.563 2400.052 371.795 2634.903 371.795 2634.903 439.408 2788.638 529.922 2942.403 439.408 2942.403 371.795 3000.052 371.795 3000.052 473.349 2971.227 490.32 2817.462 580.844 2788.638 597.805 2759.813 580.834 2606.079 490.32 2577.254 473.339 2577.254 430.563 2400.052 430.563" fill="url(#New_Gradient_Swatch_2-79)"/><polyline points="3000.052 516.576 3000.052 618.13 2971.227 635.101 2817.462 725.625 2788.638 742.585 2759.813 725.615 2606.079 635.101 2577.254 618.119 2577.254 575.344 2400.052 575.344" fill="none" stroke-miterlimit="10" stroke="url(#New_Gradient_Swatch_2-80)"/><polyline points="3000.052 503.522 3000.052 605.076 2971.227 622.047 2817.462 712.571 2788.638 729.532 2759.813 712.561 2606.079 622.047 2577.254 605.066 2577.254 562.29 2400.052 562.29" fill="none" stroke-miterlimit="10" stroke="url(#New_Gradient_Swatch_2-81)"/><polyline points="3000.052 490.469 3000.052 592.023 2971.227 608.993 2817.462 699.518 2788.638 716.478 2759.813 699.507 2606.079 608.993 2577.254 592.012 2577.254 549.237 2400.052 549.237" fill="none" stroke-miterlimit="10" stroke="url(#New_Gradient_Swatch_2-82)"/><polyline points="3000.052 477.415 3000.052 578.969 2971.227 595.94 2817.462 686.464 2788.638 703.424 2759.813 686.454 2606.079 595.94 2577.254 578.958 2577.254 536.183 2400.052 536.183" fill="none" stroke-miterlimit="10" stroke="url(#New_Gradient_Swatch_2-83)"/><polyline points="3000.052 464.361 3000.052 565.915 2971.227 582.886 2817.462 673.41 2788.638 690.371 2759.813 673.4 2606.079 582.886 2577.254 565.905 2577.254 523.129 2400.052 523.129" fill="none" stroke-miterlimit="10" stroke="url(#New_Gradient_Swatch_2-84)"/><polyline points="3000.052 451.308 3000.052 552.862 2971.227 569.832 2817.462 660.357 2788.638 677.317 2759.813 660.346 2606.079 569.832 2577.254 552.851 2577.254 510.076 2400.052 510.076" fill="none" stroke-miterlimit="10" stroke="url(#New_Gradient_Swatch_2-85)"/><polyline points="3000.052 438.254 3000.052 539.808 2971.227 556.779 2817.462 647.303 2788.638 664.263 2759.813 647.293 2606.079 556.779 2577.254 539.798 2577.254 497.022 2400.052 497.022" fill="none" stroke-miterlimit="10" stroke="url(#New_Gradient_Swatch_2-86)"/><polyline points="3000.052 425.201 3000.052 526.754 2971.227 543.725 2817.462 634.249 2788.638 651.21 2759.813 634.239 2606.079 543.725 2577.254 526.744 2577.254 483.968 2400.052 483.968" fill="none" stroke-miterlimit="10" stroke="url(#New_Gradient_Swatch_2-87)"/><polyline points="3000.052 412.147 3000.052 513.701 2971.227 530.671 2817.462 621.196 2788.638 638.156 2759.813 621.185 2606.079 530.671 2577.254 513.69 2577.254 470.915 2400.052 470.915" fill="none" stroke-miterlimit="10" stroke="url(#New_Gradient_Swatch_2-88)"/><polyline points="3000.052 399.093 3000.052 500.647 2971.227 517.618 2817.462 608.142 2788.638 625.102 2759.813 608.132 2606.079 517.618 2577.254 500.637 2577.254 457.861 2400.052 457.861" fill="none" stroke-miterlimit="10" stroke="url(#New_Gradient_Swatch_2-89)"/><polyline points="3000.052 386.04 3000.052 487.593 2971.227 504.564 2817.462 595.088 2788.638 612.049 2759.813 595.078 2606.079 504.564 2577.254 487.583 2577.254 444.807 2400.052 444.807" fill="none" stroke-miterlimit="10" stroke="url(#New_Gradient_Swatch_2-90)"/><polyline points="3000.052 372.986 3000.052 474.54 2971.227 491.51 2817.462 582.035 2788.638 598.995 2759.813 582.024 2606.079 491.51 2577.254 474.529 2577.254 431.754 2400.052 431.754" fill="none" stroke-miterlimit="10" stroke="url(#New_Gradient_Swatch_2-91)"/></g></svg>