<svg width="60" height="60" xmlns="http://www.w3.org/2000/svg"><g fill="none" fill-rule="evenodd"><circle stroke="#D0021B" stroke-width="5" fill="#FFF" cx="30" cy="30" r="27.5"/><path d="M40 35.875v-15.75c0-.623-.502-1.125-1.125-1.125H23.5a4.501 4.501 0 00-4.5 4.5v15c0 2.484 2.016 4.5 4.5 4.5h15.375c.623 0 1.125-.502 1.125-1.125v-.75c0-.352-.164-.67-.417-.877-.197-.721-.197-2.78 0-3.501.253-.202.417-.52.417-.872zm-16-11.5c0-.206.133-.375.295-.375h10.41c.162 0 .295.169.295.375v1.25c0 .206-.133.375-.295.375h-10.41c-.162 0-.295-.169-.295-.375v-1.25zm0 3c0-.206.133-.375.295-.375h10.41c.162 0 .295.169.295.375v1.25c0 .206-.133.375-.295.375h-10.41c-.162 0-.295-.169-.295-.375v-1.25zM37 39H23.512C22.676 39 22 38.33 22 37.5c0-.825.68-1.5 1.512-1.5H37c-.09.802-.09 2.198 0 3z" fill="#000" fill-rule="nonzero"/><path fill="#D0021B" d="M40.527 3.737l5.393 2.63L21.37 56.7l-5.393-2.63z"/></g></svg>