<svg xmlns="http://www.w3.org/2000/svg" xmlns:xlink="http://www.w3.org/1999/xlink" width="71" height="71"><defs><path id="b" d="M555 801.5a35.5 35.5 0 1 1 71 0 35.5 35.5 0 0 1-71 0z"/><path id="a" d="M569 781h41.81v34.73H569z"/><path id="d" d="M606.43 815.73h-33.05a4.4 4.4 0 0 1-4.38-4.4V785.4a4.4 4.4 0 0 1 4.38-4.41h32.98a4.4 4.4 0 0 1 4.38 4.4l.07 25.92a4.4 4.4 0 0 1-4.38 4.41zm-33.05-33.28a2.95 2.95 0 0 0-2.94 2.96v25.9a2.95 2.95 0 0 0 2.94 2.96h33.05a2.95 2.95 0 0 0 2.94-2.95l-.07-25.91a2.96 2.96 0 0 0-2.94-2.96z"/><path id="e" d="M610.28 810.08h-40.56c-.4 0-.72-.37-.72-.81 0-.45.32-.81.72-.81h40.56c.4 0 .72.36.72.8 0 .45-.32.82-.72.82"/><path id="f" d="M605.35 813.3a.81.81 0 0 1-.81-.8c0-.45.35-.81.8-.81h.01a.8.8 0 0 1 0 1.62"/><path id="g" d="M588.39 820.58a.8.8 0 0 1-.81-.8v-4.85a.8.8 0 0 1 1.62 0v4.84a.8.8 0 0 1-.81.81"/><path id="h" d="M591.62 820.58a.8.8 0 0 1-.81-.8v-4.85a.8.8 0 0 1 1.62 0v4.84a.8.8 0 0 1-.81.81"/><path id="i" d="M603 823h-26c-.4 0-.73-.3-.73-.67 0-1.86 1.62-3.37 3.61-3.37h20.24c2 0 3.61 1.51 3.61 3.37 0 .37-.32.67-.72.67m-25.17-1.36h24.32a2.17 2.17 0 0 0-2.04-1.33h-20.24c-.94 0-1.74.55-2.04 1.33"/><path id="j" d="M590 807.65a.74.74 0 0 1-.31-.07c-1.3-.59-7.77-3.67-7.77-6.42v-10.1c0-.29.18-.55.46-.66l7.34-2.89a.74.74 0 0 1 .55 0l7.34 2.89c.28.1.46.37.46.67v10.1c0 2.74-6.47 5.82-7.76 6.41-.1.05-.2.07-.31.07zm-6.61-16.1v9.6c0 1.3 3.83 3.67 6.6 4.97 3.24-1.52 6.61-3.8 6.61-4.96v-9.6l-6.6-2.6z"/><clipPath id="c"><use xlink:href="#a"/></clipPath></defs><use fill="#0ecf7b" xlink:href="#b" transform="translate(-555 -766)"/><g clip-path="url(#c)" transform="translate(-555 -766)"><use xlink:href="#d"/></g><use xlink:href="#e" transform="translate(-555 -766)"/><use xlink:href="#f" transform="translate(-555 -766)"/><use xlink:href="#g" transform="translate(-555 -766)"/><use xlink:href="#h" transform="translate(-555 -766)"/><use xlink:href="#i" transform="translate(-555 -766)"/><g transform="translate(-555 -766)"><use xlink:href="#j"/></g></svg>