<svg width="53" height="53" xmlns="http://www.w3.org/2000/svg"><g fill="none" fill-rule="evenodd"><circle fill="#0D0764" cx="26.5" cy="26.5" r="26.5"/><path d="M27 11c-8.286 0-15 6.714-15 15s6.714 15 15 15 15-6.714 15-15-6.714-15-15-15zm0 27c-6.63 0-12-5.37-12-12s5.37-12 12-12 12 5.37 12 12-5.37 12-12 12zm2.625-6.147l-5.318-3.95A.78.78 0 0124 27.28V16.768c0-.422.338-.768.752-.768h2.004c.413 0 .752.346.752.768v9.073l4.184 3.112c.338.25.407.73.162 1.075l-1.177 1.659a.746.746 0 01-1.052.166z" fill="#FFF" fill-rule="nonzero"/></g></svg>