<svg id="e8irk56di8p71" xmlns="http://www.w3.org/2000/svg" xmlns:xlink="http://www.w3.org/1999/xlink" viewBox="0 0 700 700" shape-rendering="geometricPrecision" text-rendering="geometricPrecision" width="700" height="700"><style><![CDATA[#e8irk56di8p72 {animation: e8irk56di8p72_f_p 3000ms linear infinite normal forwards}@keyframes e8irk56di8p72_f_p { 0% {fill: rgb(111,63,245)} 33.333333% {fill: rgb(243,88,144)} 66.666667% {fill: rgb(2,226,172)} 100% {fill: rgb(111,63,245)} }#e8irk56di8p78 {animation: e8irk56di8p78_f_p 3000ms linear infinite normal forwards}@keyframes e8irk56di8p78_f_p { 0% {fill: rgb(111,63,245)} 33.333333% {fill: rgb(243,88,144)} 66.666667% {fill: rgb(2,226,172)} 100% {fill: rgb(111,63,245)} }#e8irk56di8p710 {animation: e8irk56di8p710_f_p 3000ms linear infinite normal forwards}@keyframes e8irk56di8p710_f_p { 0% {fill: rgb(111,63,245)} 33.333333% {fill: rgb(243,88,144)} 66.666667% {fill: rgb(2,226,172)} 100% {fill: rgb(111,63,245)} }#e8irk56di8p712 {animation: e8irk56di8p712_f_p 3000ms linear infinite normal forwards}@keyframes e8irk56di8p712_f_p { 0% {fill: rgb(111,63,245)} 33.333333% {fill: rgb(243,88,144)} 66.666667% {fill: rgb(2,226,172)} 100% {fill: rgb(111,63,245)} }#e8irk56di8p714 {animation: e8irk56di8p714_f_p 3000ms linear infinite normal forwards}@keyframes e8irk56di8p714_f_p { 0% {fill: rgb(111,63,245)} 33.333333% {fill: rgb(243,88,144)} 66.666667% {fill: rgb(2,226,172)} 100% {fill: rgb(111,63,245)} }]]></style><circle id="e8irk56di8p72" r="14.330000" transform="matrix(1 0 0 1 245.84999999999999 243.93000000000001)" fill="rgb(111,63,245)" stroke="none" stroke-width="1"/><circle id="e8irk56di8p73" r="14.330000" transform="matrix(1 0 0 1 298.48000000000002 296.56000000000000)" fill="none" stroke="rgb(243,88,144)" stroke-width="4" stroke-miterlimit="10"/><circle id="e8irk56di8p74" r="14.330000" transform="matrix(1 0 0 1 402.63000000000000 296.56000000000000)" fill="none" stroke="rgb(243,88,144)" stroke-width="4" stroke-miterlimit="10"/><circle id="e8irk56di8p75" r="14.330000" transform="matrix(1 0 0 1 298.48000000000002 404.58999999999997)" fill="none" stroke="rgb(243,88,144)" stroke-width="4" stroke-miterlimit="10"/><circle id="e8irk56di8p76" r="14.330000" transform="matrix(1 0 0 1 402.63000000000000 404.58999999999997)" fill="none" stroke="rgb(243,88,144)" stroke-width="4" stroke-miterlimit="10"/><circle id="e8irk56di8p77" r="14.330000" transform="matrix(1 0 0 1 350 243.93000000000001)" fill="rgb(111,63,245)" stroke="none" stroke-width="1"/><circle id="e8irk56di8p78" r="14.330000" transform="matrix(1 0 0 1 454.14999999999998 243.93000000000001)" fill="rgb(111,63,245)" stroke="none" stroke-width="1"/><circle id="e8irk56di8p79" r="14.330000" transform="matrix(1 0 0 1 245.84999999999999 350)" fill="rgb(111,63,245)" stroke="none" stroke-width="1"/><circle id="e8irk56di8p710" r="14.330000" transform="matrix(1 0 0 1 350 350)" fill="rgb(111,63,245)" stroke="none" stroke-width="1"/><circle id="e8irk56di8p711" r="14.330000" transform="matrix(1 0 0 1 454.14999999999998 350)" fill="rgb(111,63,245)" stroke="none" stroke-width="1"/><circle id="e8irk56di8p712" r="14.330000" transform="matrix(1 0 0 1 245.84999999999999 456.06999999999999)" fill="rgb(111,63,245)" stroke="none" stroke-width="1"/><circle id="e8irk56di8p713" r="14.330000" transform="matrix(1 0 0 1 350 456.06999999999999)" fill="rgb(111,63,245)" stroke="none" stroke-width="1"/><circle id="e8irk56di8p714" r="14.330000" transform="matrix(1 0 0 1 454.14999999999998 456.06999999999999)" fill="rgb(111,63,245)" stroke="none" stroke-width="1"/><path id="e8irk56di8p715" d="M486.170000,456.070000C486.170000,473.743112,471.843112,488.070000,454.170000,488.070000C436.496888,488.070000,422.170000,473.743112,422.170000,456.070000C422.170000,438.396888,436.496888,424.070000,454.170000,424.070000C471.843112,424.070000,486.170000,438.396888,486.170000,456.070000ZM454.170000,412.140000L454.170000,424.680000M454.170000,500L454.170000,487.460000M410.240000,456.070000L422.780000,456.070000M485.560000,456.070000L498.100000,456.070000" fill="none" stroke="rgb(2,226,172)" stroke-width="4" stroke-miterlimit="10"/><path id="e8irk56di8p716" d="M382,456.070000C382,473.743112,367.673112,488.070000,350,488.070000C332.326888,488.070000,318,473.743112,318,456.070000C318,438.396888,332.326888,424.070000,350,424.070000C367.673112,424.070000,382,438.396888,382,456.070000ZM350,412.140000L350,424.680000M350,487.460000L350,500M306.070000,456.070000L318.610000,456.070000M381.390000,456.070000L393.930000,456.070000" fill="none" stroke="rgb(2,226,172)" stroke-width="4" stroke-miterlimit="10"/><path id="e8irk56di8p717" d="M277.870000,456.070000C277.870000,473.743112,263.543112,488.070000,245.870000,488.070000C228.196888,488.070000,213.870000,473.743112,213.870000,456.070000C213.870000,438.396888,228.196888,424.070000,245.870000,424.070000C263.543112,424.070000,277.870000,438.396888,277.870000,456.070000ZM245.870000,412.140000L245.870000,424.680000M245.870000,487.460000L245.870000,500M201.940000,456.070000L214.480000,456.070000M277.260000,456.070000L289.800000,456.070000" fill="none" stroke="rgb(2,226,172)" stroke-width="4" stroke-miterlimit="10"/><path id="e8irk56di8p718" d="M486.170000,350C486.170000,367.673112,471.843112,382,454.170000,382C436.496888,382,422.170000,367.673112,422.170000,350C422.170000,332.326888,436.496888,318,454.170000,318C471.843112,318,486.170000,332.326888,486.170000,350ZM454.170000,306.070000L454.170000,318.610000M454.170000,381.390000L454.170000,393.930000M410.220000,350L422.760000,350M485.540000,350L498.080000,350" fill="none" stroke="rgb(2,226,172)" stroke-width="4" stroke-miterlimit="10"/><path id="e8irk56di8p719" d="M382,350C382,367.673112,367.673112,382,350,382C332.326888,382,318,367.673112,318,350C318,332.326888,332.326888,318,350,318C367.673112,318,382,332.326888,382,350ZM350,318.610000L350,306.070000M350,381.390000L350,393.930000M306.070000,350L318.610000,350M381.390000,350L393.930000,350" fill="none" stroke="rgb(2,226,172)" stroke-width="4" stroke-miterlimit="10"/><path id="e8irk56di8p720" d="M277.870000,350C277.870000,367.673112,263.543112,382,245.870000,382C228.196888,382,213.870000,367.673112,213.870000,350C213.870000,332.326888,228.196888,318,245.870000,318C263.543112,318,277.870000,332.326888,277.870000,350ZM245.870000,306.070000L245.870000,318.610000M245.870000,381.390000L245.870000,393.930000M201.920000,350L214.460000,350M277.240000,350L289.780000,350" fill="none" stroke="rgb(2,226,172)" stroke-width="4" stroke-miterlimit="10"/><path id="e8irk56di8p721" d="M486.170000,243.930000C486.170000,261.603112,471.843112,275.930000,454.170000,275.930000C436.496888,275.930000,422.170000,261.603112,422.170000,243.930000C422.170000,226.256888,436.496888,211.930000,454.170000,211.930000C471.843112,211.930000,486.170000,226.256888,486.170000,243.930000ZM454.170000,212.540000L454.170000,200M454.170000,275.320000L454.170000,287.860000M410.240000,243.930000L422.780000,243.930000M485.560000,243.930000L498.100000,243.930000" fill="none" stroke="rgb(2,226,172)" stroke-width="4" stroke-miterlimit="10"/><path id="e8irk56di8p722" d="M382,243.930000C382,261.603112,367.673112,275.930000,350,275.930000C332.326888,275.930000,318,261.603112,318,243.930000C318,226.256888,332.326888,211.930000,350,211.930000C367.673112,211.930000,382,226.256888,382,243.930000ZM350,212.540000L350,200M350,275.320000L350,287.860000M306.070000,243.930000L318.610000,243.930000M381.390000,243.930000L393.930000,243.930000" fill="none" stroke="rgb(2,226,172)" stroke-width="4" stroke-miterlimit="10"/><path id="e8irk56di8p723" d="M277.870000,243.930000C277.870000,261.603112,263.543112,275.930000,245.870000,275.930000C228.196888,275.930000,213.870000,261.603112,213.870000,243.930000C213.870000,226.256888,228.196888,211.930000,245.870000,211.930000C263.543112,211.930000,277.870000,226.256888,277.870000,243.930000ZM245.870000,200L245.870000,212.540000M245.870000,275.320000L245.870000,287.860000M201.940000,243.930000L214.480000,243.930000M277.260000,243.930000L289.800000,243.930000" fill="none" stroke="rgb(2,226,172)" stroke-width="4" stroke-miterlimit="10"/></svg>