<svg id="eaja0bcojy0c1" xmlns="http://www.w3.org/2000/svg" xmlns:xlink="http://www.w3.org/1999/xlink" viewBox="0 0 700 700" shape-rendering="geometricPrecision" text-rendering="geometricPrecision" width="700" height="700"><style><![CDATA[#eaja0bcojy0c29 {animation: eaja0bcojy0c29_f_p 2000ms linear infinite alternate forwards}@keyframes eaja0bcojy0c29_f_p { 0% {fill: rgb(111,63,245)} 13% {fill: rgb(243,88,125)} 26.500000% {fill: rgb(2,226,172)} 46.500000% {fill: rgb(243,88,125)} 72.500000% {fill: rgb(111,63,245)} 100% {fill: rgb(111,63,245)} }#eaja0bcojy0c30 {animation: eaja0bcojy0c30_f_p 2000ms linear infinite alternate forwards}@keyframes eaja0bcojy0c30_f_p { 0% {fill: rgb(111,63,245)} 13% {fill: rgb(243,88,125)} 26.500000% {fill: rgb(2,226,172)} 46.500000% {fill: rgb(243,88,125)} 72.500000% {fill: rgb(111,63,245)} 100% {fill: rgb(111,63,245)} }#eaja0bcojy0c31 {animation: eaja0bcojy0c31_f_p 2000ms linear infinite alternate forwards}@keyframes eaja0bcojy0c31_f_p { 0% {fill: rgb(111,63,245)} 13% {fill: rgb(243,88,125)} 26.500000% {fill: rgb(2,226,172)} 46.500000% {fill: rgb(243,88,125)} 72.500000% {fill: rgb(111,63,245)} 100% {fill: rgb(111,63,245)} }#eaja0bcojy0c32 {animation: eaja0bcojy0c32_f_p 2000ms linear infinite alternate forwards}@keyframes eaja0bcojy0c32_f_p { 0% {fill: rgb(111,63,245)} 13% {fill: rgb(243,88,125)} 26.500000% {fill: rgb(2,226,172)} 46.500000% {fill: rgb(243,88,125)} 72.500000% {fill: rgb(111,63,245)} 100% {fill: rgb(111,63,245)} }#eaja0bcojy0c33 {animation: eaja0bcojy0c33_f_p 2000ms linear infinite alternate forwards}@keyframes eaja0bcojy0c33_f_p { 0% {fill: rgb(111,63,245)} 13% {fill: rgb(243,88,125)} 26.500000% {fill: rgb(2,226,172)} 46.500000% {fill: rgb(243,88,125)} 72.500000% {fill: rgb(111,63,245)} 100% {fill: rgb(111,63,245)} }#eaja0bcojy0c35 {animation: eaja0bcojy0c35_f_p 2000ms linear infinite alternate forwards}@keyframes eaja0bcojy0c35_f_p { 0% {fill: rgb(111,63,245)} 20.500000% {fill: rgb(243,88,125)} 45.500000% {fill: rgb(2,226,172)} 72.500000% {fill: rgb(111,63,245)} 100% {fill: rgb(111,63,245)} }#eaja0bcojy0c36 {animation: eaja0bcojy0c36_f_p 2000ms linear infinite alternate forwards}@keyframes eaja0bcojy0c36_f_p { 0% {fill: rgb(111,63,245)} 20.500000% {fill: rgb(243,88,125)} 45.500000% {fill: rgb(2,226,172)} 72.500000% {fill: rgb(111,63,245)} 100% {fill: rgb(111,63,245)} }#eaja0bcojy0c37 {animation: eaja0bcojy0c37__m 2000ms linear infinite alternate forwards}@keyframes eaja0bcojy0c37__m { 0% {d: path('M213.380000,203L213.380000,219.520000C204,215.280000,209.720000,236.280000,209.750000,237.300000C210.660000,239.020000,211.750000,240.350000,213.600000,240.770000C214.530000,253.400000,223.600000,265.430000,231.490000,274.770000C233.570000,280.340000,225.750000,284.680000,219.820000,286.850000C189.170000,298.100000,158.210000,301.260000,159.200000,335.920000C162.800000,367.570000,187.810000,456.810000,187.810000,456.810000C188.383276,459.308503,190.606572,461.079674,193.170000,461.080000L223.900000,461.080000C225.950123,461.080000,227.916279,460.265592,229.365935,458.815935C230.815592,457.366279,231.630000,455.400123,231.630000,453.350000L231.630000,361C231.624820,358.688314,230.587955,356.499623,228.802430,355.031353C227.016905,353.563083,224.669147,352.968536,222.400000,353.410000C210.400000,355.890000,198.120000,346.850000,196.950000,334.640000C194.580000,306.540000,234.560000,301.880000,239.950000,328.710000L239.950000,454.300000C239.870000,459.660000,244.830000,462.300000,249.770000,462.300000L249.770000,178.880000C238.100000,178.910000,213.380000,189.190000,213.380000,203Z')} 13% {d: path('M213.380000,203L213.380000,219.520000C204,215.280000,209.720000,236.280000,209.750000,237.300000C210.660000,239.020000,211.750000,240.350000,213.600000,240.770000C214.530000,253.400000,223.600000,265.430000,231.490000,274.770000C233.570000,280.340000,225.750000,284.680000,219.820000,286.850000C189.170000,298.100000,158.210000,301.260000,159.200000,335.920000C162.800000,367.570000,187.810000,456.810000,187.810000,456.810000C188.383276,459.308503,190.606572,461.079674,193.170000,461.080000L223.900000,461.080000C225.950123,461.080000,227.916279,460.265592,229.365935,458.815935C230.815592,457.366279,231.630000,455.400123,231.630000,453.350000L231.630000,361C231.624820,358.688314,230.587955,356.499623,228.802430,355.031353C227.016905,353.563083,224.669147,352.968536,222.400000,353.410000C210.400000,355.890000,198.120000,346.850000,196.950000,334.640000C194.580000,306.540000,234.560000,301.880000,239.950000,328.710000L239.950000,454.300000C239.870000,459.660000,244.830000,462.300000,249.770000,462.300000L249.770000,178.880000C238.100000,178.910000,213.380000,189.190000,213.380000,203Z');animation-timing-function: cubic-bezier(0.770000,0,0.175000,1)} 65.500000% {d: path('M216.189616,206.230149L209.876964,207.808432C204.151619,209.334665,199.857574,210.524301,195.908062,212.681305C193.975553,213.345516,192.352557,214.454097,189.654542,215.523814C187.254745,216.621348,186.221544,216.837454,173.992781,223.913167C153.149646,238.603124,152.562910,243.187391,146.632910,248.561700C124.363411,285.692658,122.074848,300.466763,123.064848,335.126763C129.841519,390.328802,188.302971,437.337660,187.810000,456.810000C188.383276,459.308503,190.606572,461.079674,193.170000,461.080000L223.900000,461.080000C225.950123,461.080000,227.916279,460.265592,229.365935,458.815935C230.815592,457.366279,231.630000,455.400123,231.630000,453.350000L231.630000,361C231.624820,358.688314,230.587955,356.499623,228.802430,355.031353C227.016905,353.563083,224.669147,352.968536,222.400000,353.410000C210.400000,355.890000,198.120000,346.850000,196.950000,334.640000C194.580000,306.540000,234.560000,301.880000,239.950000,328.710000L239.950000,454.300000C239.870000,459.660000,244.830000,462.300000,249.770000,462.300000L250.221072,203.360026C238.551072,203.390026,230.950248,202.737898,216.189616,206.230149Z')} 100% {d: path('M216.189616,206.230149L209.876964,207.808432C204.151619,209.334665,199.857574,210.524301,195.908062,212.681305C193.975553,213.345516,192.352557,214.454097,189.654542,215.523814C187.254745,216.621348,186.221544,216.837454,173.992781,223.913167C153.149646,238.603124,152.562910,243.187391,146.632910,248.561700C124.363411,285.692658,122.074848,300.466763,123.064848,335.126763C129.841519,390.328802,188.302971,437.337660,187.810000,456.810000C188.383276,459.308503,190.606572,461.079674,193.170000,461.080000L223.900000,461.080000C225.950123,461.080000,227.916279,460.265592,229.365935,458.815935C230.815592,457.366279,231.630000,455.400123,231.630000,453.350000L231.630000,361C231.624820,358.688314,230.587955,356.499623,228.802430,355.031353C227.016905,353.563083,224.669147,352.968536,222.400000,353.410000C210.400000,355.890000,198.120000,346.850000,196.950000,334.640000C194.580000,306.540000,234.560000,301.880000,239.950000,328.710000L239.950000,454.300000C239.870000,459.660000,244.830000,462.300000,249.770000,462.300000L250.221072,203.360026C238.551072,203.390026,230.950248,202.737898,216.189616,206.230149Z')} }#eaja0bcojy0c38 {animation: eaja0bcojy0c38__m 2000ms linear infinite alternate forwards}@keyframes eaja0bcojy0c38__m { 0% {d: path('M213.380000,203L213.380000,219.520000C204,215.280000,209.720000,236.280000,209.750000,237.300000C210.660000,239.020000,211.750000,240.350000,213.600000,240.770000C214.530000,253.400000,223.600000,265.430000,231.490000,274.770000C233.570000,280.340000,225.750000,284.680000,219.820000,286.850000C189.170000,298.100000,158.210000,301.260000,159.200000,335.920000C162.800000,367.570000,187.810000,456.810000,187.810000,456.810000C188.383276,459.308503,190.606572,461.079674,193.170000,461.080000L223.900000,461.080000C225.950123,461.080000,227.916279,460.265592,229.365935,458.815935C230.815592,457.366279,231.630000,455.400123,231.630000,453.350000L231.630000,361C231.624820,358.688314,230.587955,356.499623,228.802430,355.031353C227.016905,353.563083,224.669147,352.968536,222.400000,353.410000C210.400000,355.890000,198.120000,346.850000,196.950000,334.640000C194.580000,306.540000,234.560000,301.880000,239.950000,328.710000L239.950000,454.300000C239.870000,459.660000,244.830000,462.300000,249.770000,462.300000L249.770000,178.880000C238.100000,178.910000,213.380000,189.190000,213.380000,203Z')} 13% {d: path('M213.380000,203L213.380000,219.520000C204,215.280000,209.720000,236.280000,209.750000,237.300000C210.660000,239.020000,211.750000,240.350000,213.600000,240.770000C214.530000,253.400000,223.600000,265.430000,231.490000,274.770000C233.570000,280.340000,225.750000,284.680000,219.820000,286.850000C189.170000,298.100000,158.210000,301.260000,159.200000,335.920000C162.800000,367.570000,187.810000,456.810000,187.810000,456.810000C188.383276,459.308503,190.606572,461.079674,193.170000,461.080000L223.900000,461.080000C225.950123,461.080000,227.916279,460.265592,229.365935,458.815935C230.815592,457.366279,231.630000,455.400123,231.630000,453.350000L231.630000,361C231.624820,358.688314,230.587955,356.499623,228.802430,355.031353C227.016905,353.563083,224.669147,352.968536,222.400000,353.410000C210.400000,355.890000,198.120000,346.850000,196.950000,334.640000C194.580000,306.540000,234.560000,301.880000,239.950000,328.710000L239.950000,454.300000C239.870000,459.660000,244.830000,462.300000,249.770000,462.300000L249.770000,178.880000C238.100000,178.910000,213.380000,189.190000,213.380000,203Z');animation-timing-function: cubic-bezier(0.770000,0,0.175000,1)} 65.500000% {d: path('M216.189616,206.230149L209.876964,207.808432C204.151619,209.334665,199.857574,210.524301,195.908062,212.681305C193.975553,213.345516,192.352557,214.454097,189.654542,215.523814C187.254745,216.621348,186.221544,216.837454,173.992781,223.913167C153.149646,238.603124,152.562910,243.187391,146.632910,248.561700C124.363411,285.692658,122.074848,300.466763,123.064848,335.126763C129.841519,390.328802,188.302971,437.337660,187.810000,456.810000C188.383276,459.308503,190.606572,461.079674,193.170000,461.080000L223.900000,461.080000C225.950123,461.080000,227.916279,460.265592,229.365935,458.815935C230.815592,457.366279,231.630000,455.400123,231.630000,453.350000L231.630000,361C231.624820,358.688314,230.587955,356.499623,228.802430,355.031353C227.016905,353.563083,224.669147,352.968536,222.400000,353.410000C210.400000,355.890000,198.120000,346.850000,196.950000,334.640000C194.580000,306.540000,234.560000,301.880000,239.950000,328.710000L239.950000,454.300000C239.870000,459.660000,244.830000,462.300000,249.770000,462.300000L250.221072,203.360026C238.551072,203.390026,230.950248,202.737898,216.189616,206.230149Z')} 100% {d: path('M216.189616,206.230149L209.876964,207.808432C204.151619,209.334665,199.857574,210.524301,195.908062,212.681305C193.975553,213.345516,192.352557,214.454097,189.654542,215.523814C187.254745,216.621348,186.221544,216.837454,173.992781,223.913167C153.149646,238.603124,152.562910,243.187391,146.632910,248.561700C124.363411,285.692658,122.074848,300.466763,123.064848,335.126763C129.841519,390.328802,188.302971,437.337660,187.810000,456.810000C188.383276,459.308503,190.606572,461.079674,193.170000,461.080000L223.900000,461.080000C225.950123,461.080000,227.916279,460.265592,229.365935,458.815935C230.815592,457.366279,231.630000,455.400123,231.630000,453.350000L231.630000,361C231.624820,358.688314,230.587955,356.499623,228.802430,355.031353C227.016905,353.563083,224.669147,352.968536,222.400000,353.410000C210.400000,355.890000,198.120000,346.850000,196.950000,334.640000C194.580000,306.540000,234.560000,301.880000,239.950000,328.710000L239.950000,454.300000C239.870000,459.660000,244.830000,462.300000,249.770000,462.300000L250.221072,203.360026C238.551072,203.390026,230.950248,202.737898,216.189616,206.230149Z')} }]]></style><g id="eaja0bcojy0c2" transform="matrix(1 0 0 1 -15.96000862500000 -0.77998447499999)"><path id="eaja0bcojy0c3" d="M462.390000,657.670000L466.320000,625.580000L492.910000,626.580000L468.560000,660.440000Z" fill="rgb(245,121,166)" stroke="none" stroke-width="1"/><path id="eaja0bcojy0c4" d="M322.200000,91.350000L336.490000,89.050000L345.630000,102.050000L340.110000,114.650000L325.110000,123.910000Z" fill="rgb(2,226,172)" stroke="none" stroke-width="1"/><path id="eaja0bcojy0c5" d="M644.740000,674.720000L674.140000,683.610000L668.840000,708.330000L641.100000,680Z" fill="rgb(111,63,245)" stroke="none" stroke-width="1"/><path id="eaja0bcojy0c6" d="M266.070000,674.250000L283.230000,677.560000L288.230000,696.130000L276.730000,708.130000L255.860000,712.420000Z" fill="rgb(245,121,166)" stroke="none" stroke-width="1"/><path id="eaja0bcojy0c7" d="M149.840000,557.790000L164.110000,556.180000L172.020000,559.590000L172.020000,572.530000L159.800000,573.180000Z" fill="rgb(111,63,245)" stroke="none" stroke-width="1"/><path id="eaja0bcojy0c8" d="M571.410000,225L578.210000,248.820000L574.650000,263.240000L552.650000,266.930000L548.090000,246.320000Z" fill="rgb(111,63,245)" stroke="none" stroke-width="1"/><path id="eaja0bcojy0c9" d="M588.600000,420L587.540000,390.060000L559.270000,433.540000Z" fill="rgb(245,121,166)" stroke="none" stroke-width="1"/><path id="eaja0bcojy0c10" d="M318.660000,500.770000L330.460000,496.840000L338.700000,528.460000L317.110000,526Z" transform="matrix(1 0 0 1 -124.00999999500002 -5.85999999000012)" fill="rgb(245,121,166)" stroke="none" stroke-width="1"/><path id="eaja0bcojy0c11" d="M30.740000,637.670000L47.210000,656.220000L50.210000,670.780000L32,683.660000L18.920000,667Z" fill="rgb(2,226,172)" stroke="none" stroke-width="1"/><path id="eaja0bcojy0c12" d="M713,533.060000L711.260000,549L690.260000,566L694.880000,536.660000L704.880000,529.890000Z" fill="rgb(245,121,166)" stroke="none" stroke-width="1"/><path id="eaja0bcojy0c13" d="M681.280000,339.240000L699.750000,348.240000L706.680000,358.430000L696.750000,374.070000L681.500000,365.470000Z" fill="rgb(2,226,172)" stroke="none" stroke-width="1"/><path id="eaja0bcojy0c14" d="M449.520000,494.100000L466,500.310000L472.730000,508.460000L465.500000,522.600000L451.790000,516.470000Z" fill="rgb(111,63,245)" stroke="none" stroke-width="1"/><path id="eaja0bcojy0c15" d="M102.220000,425.810000L100.440000,414.600000L110.670000,407.450000L120.550000,411.800000L127.790000,423.590000Z" fill="rgb(245,121,166)" stroke="none" stroke-width="1"/><path id="eaja0bcojy0c16" d="M76.330000,285.430000L62.140000,315.840000L37.640000,297.100000Z" fill="rgb(2,226,172)" stroke="none" stroke-width="1"/><path id="eaja0bcojy0c17" d="M589.250000,138.570000L597.050000,129.780000L616.830000,128.610000L601.580000,144.170000L592.720000,143.950000Z" fill="rgb(2,226,172)" stroke="none" stroke-width="1"/><path id="eaja0bcojy0c18" d="M464.370000,155.450000L476.830000,165.450000L472.880000,182.600000L458.440000,187.370000L439.730000,181.890000Z" fill="rgb(245,121,166)" stroke="none" stroke-width="1"/><path id="eaja0bcojy0c19" d="M386.050000,363.450000L353.250000,341.580000L352,368.210000Z" transform="matrix(1 0 0 1 145.41500000499991 -4.11501552999999)" fill="rgb(2,226,172)" stroke="none" stroke-width="1"/><path id="eaja0bcojy0c20" d="M133.380000,121.090000L103,99.470000L101,124.590000Z" fill="rgb(111,63,245)" stroke="none" stroke-width="1"/><path id="eaja0bcojy0c21" d="M216.360000,146.940000L224.860000,151.580000L224.360000,162.220000L216.260000,166.620000L204.520000,165.360000Z" fill="rgb(245,121,166)" stroke="none" stroke-width="1"/><path id="eaja0bcojy0c22" d="M207.410000,267.060000L232.150000,273.250000L228.750000,294L204.600000,271.620000Z" fill="rgb(245,121,166)" stroke="none" stroke-width="1"/><path id="eaja0bcojy0c23" d="M671.150000,11.900000L634.090000,-10.860000L633.190000,-4.100000L652.340000,26.280000Z" fill="rgb(2,226,172)" stroke="none" stroke-width="1"/><path id="eaja0bcojy0c24" d="M507.320000,39.160000L520.750000,48.740000L524.880000,57.740000L515,68.790000L504,60Z" fill="rgb(245,121,166)" stroke="none" stroke-width="1"/><path id="eaja0bcojy0c25" d="M40.770000,1.530000L39.440000,15.700000L21,31L24.710000,4.890000L33.520000,-1.240000Z" fill="rgb(245,121,166)" stroke="none" stroke-width="1"/><path id="eaja0bcojy0c26" d="M369.080000,-1.640000L393.170000,-10.470000L408.350000,-7.880000L413.830000,14.590000L392.880000,20.870000Z" fill="rgb(111,63,245)" stroke="none" stroke-width="1"/></g><g id="eaja0bcojy0c27" transform="matrix(0.80000000000000 0 0 0.80000000000000 70.00000305175780 70.00000457763673)"><g id="eaja0bcojy0c28" transform="matrix(1 0 0 1 -4.53382464000020 -100.20527210999995)"><path id="eaja0bcojy0c29" d="M393.300000,283.730000C391.861033,283.735999,390.598538,282.772016,390.225284,281.382289C389.852029,279.992561,390.461661,278.525760,391.710000,277.810000L411.240000,266.530000C412.758783,265.654629,414.699629,266.176217,415.575000,267.695000C416.450371,269.213783,415.928783,271.154629,414.410000,272.030000L394.880000,283.300000C394.400821,283.580998,393.855493,283.729410,393.300000,283.730000Z" fill="rgb(111,63,245)" stroke="none" stroke-width="1"/><path id="eaja0bcojy0c30" d="M376.780000,267.220000C375.649478,267.213005,374.607672,266.606313,374.043664,265.626504C373.479657,264.646696,373.478262,263.441111,374.040000,262.460000L385.310000,242.930000C386.185371,241.411217,388.126217,240.889629,389.645000,241.765000C391.163783,242.640371,391.685371,244.581217,390.810000,246.100000L379.530000,265.630000C378.964169,266.614182,377.915244,267.220651,376.780000,267.220000Z" fill="rgb(111,63,245)" stroke="none" stroke-width="1"/><path id="eaja0bcojy0c31" d="M354.230000,261.170000C353.389264,261.170000,352.582962,260.836019,351.988472,260.241528C351.393981,259.647038,351.060000,258.840736,351.060000,258L351.060000,230.440000C351.060000,229.307468,351.664198,228.260965,352.645000,227.694699C353.625801,227.128433,354.834199,227.128433,355.815000,227.694699C356.795802,228.260965,357.400000,229.307468,357.400000,230.440000L357.400000,258C357.400000,259.750743,355.980743,261.170000,354.230000,261.170000Z" fill="rgb(111,63,245)" stroke="none" stroke-width="1"/><path id="eaja0bcojy0c32" d="M331.680000,267.220000C330.544199,267.222734,329.494304,266.615703,328.930000,265.630000L317.650000,246.100000C317.066219,245.118242,317.055739,243.898336,317.622568,242.906694C318.189397,241.915052,319.245876,241.305026,320.388078,241.309851C321.530281,241.314676,322.581569,241.933604,323.140000,242.930000L334.420000,262.460000C334.981738,263.441111,334.980343,264.646696,334.416336,265.626504C333.852328,266.606313,332.810522,267.213005,331.680000,267.220000Z" fill="rgb(111,63,245)" stroke="none" stroke-width="1"/><path id="eaja0bcojy0c33" d="M315.160000,283.730000C314.604507,283.729410,314.059179,283.580998,313.580000,283.300000L294,272C292.481217,271.124629,291.959629,269.183783,292.835000,267.665000C293.710371,266.146217,295.651217,265.624629,297.170000,266.500000L316.710000,277.780000C317.958339,278.495760,318.567971,279.962561,318.194716,281.352289C317.821462,282.742016,316.558967,283.705999,315.120000,283.700000Z" fill="rgb(111,63,245)" stroke="none" stroke-width="1"/></g><path id="eaja0bcojy0c34" d="M158.360000,297.170000L158.360000,308.470000C158.360000,310.679139,156.569139,312.470000,154.360000,312.470000L78.260000,312.470000C76.050861,312.470000,74.260000,310.679139,74.260000,308.470000L74.260000,298.370000C74.260000,296.160861,72.469139,294.370000,70.260000,294.370000L58.260000,294.370000C56.050861,294.370000,54.260000,296.160861,54.260000,298.370000L54.260000,355.800000L54.320000,355.800000C54.602367,357.761462,56.278340,359.220495,58.260000,359.230000L64.310000,359.230000C66.519139,359.230000,68.310000,361.020861,68.310000,363.230000C68.310000,367.470000,68.220000,373.570000,68.240000,373.840000C70.509602,398.694529,91.352061,417.720467,116.310000,417.720467C141.267939,417.720467,162.110398,398.694529,164.380000,373.840000L164.380000,373.780000L164.380000,373.780000L164.380000,363.230000C164.380000,361.020861,166.170861,359.230000,168.380000,359.230000L174.380000,359.230000C176.361660,359.220495,178.037633,357.761462,178.320000,355.800000L178.380000,355.800000L178.380000,297.170000C178.380000,294.960861,176.589139,293.170000,174.380000,293.170000L162.380000,293.170000C161.315673,293.164678,160.293112,293.583755,159.538635,294.334478C158.784158,295.085201,158.359987,296.105660,158.360000,297.170000ZM78.260000,327.170000L154.360000,327.170000C156.569139,327.170000,158.360000,328.960861,158.360000,331.170000L158.360000,336.570000C158.360000,338.779139,156.569139,340.570000,154.360000,340.570000L78.260000,340.570000C76.050861,340.570000,74.260000,338.779139,74.260000,336.570000L74.260000,331.170000C74.254678,330.105673,74.673755,329.083112,75.424478,328.328635C76.175201,327.574158,77.195660,327.149987,78.260000,327.150000ZM140.390000,373.550000L92.390000,373.550000C90.180861,373.550000,88.390000,371.759139,88.390000,369.550000L88.390000,363.250000C88.390000,361.040861,90.180861,359.250000,92.390000,359.250000L140.390000,359.250000C142.599139,359.250000,144.390000,361.040861,144.390000,363.250000L144.390000,369.550000C144.378993,371.751325,142.591352,373.530028,140.390000,373.530000Z" transform="matrix(1 0 0 1 233.61657244500020 155.21480084999996)" fill="rgb(106,67,179)" stroke="none" stroke-width="1"/><path id="eaja0bcojy0c35" d="M227.400000,332.720000L219.400000,344.120000C219.212416,344.383833,218.908721,344.540539,218.585000,344.540539C218.261279,344.540539,217.957584,344.383833,217.770000,344.120000L209.770000,332.720000C209.527538,332.375007,209.527538,331.914993,209.770000,331.570000L217.770000,320.160000C217.957584,319.896167,218.261279,319.739461,218.585000,319.739461C218.908721,319.739461,219.212416,319.896167,219.400000,320.160000L227.400000,331.570000C227.642462,331.914993,227.642462,332.375007,227.400000,332.720000Z" transform="matrix(1 0 0 1 99.72465349000004 -4.71577318000129)" fill="rgb(111,63,245)" stroke="none" stroke-width="1"/><path id="eaja0bcojy0c36" d="M227.400000,332.720000L219.400000,344.120000C219.212416,344.383833,218.908721,344.540539,218.585000,344.540539C218.261279,344.540539,217.957584,344.383833,217.770000,344.120000L209.770000,332.720000C209.527538,332.375007,209.527538,331.914993,209.770000,331.570000L217.770000,320.160000C217.957584,319.896167,218.261279,319.739461,218.585000,319.739461C218.908721,319.739461,219.212416,319.896167,219.400000,320.160000L227.400000,331.570000C227.642462,331.914993,227.642462,332.375007,227.400000,332.720000Z" transform="matrix(1 0 0 1 163.72465349000004 -4.71577318000129)" fill="rgb(111,63,245)" stroke="none" stroke-width="1"/><path id="eaja0bcojy0c37" d="M213.380000,203L213.380000,219.520000C204,215.280000,209.720000,236.280000,209.750000,237.300000C210.660000,239.020000,211.750000,240.350000,213.600000,240.770000C214.530000,253.400000,223.600000,265.430000,231.490000,274.770000C233.570000,280.340000,225.750000,284.680000,219.820000,286.850000C189.170000,298.100000,158.210000,301.260000,159.200000,335.920000C162.800000,367.570000,187.810000,456.810000,187.810000,456.810000C188.383276,459.308503,190.606572,461.079674,193.170000,461.080000L223.900000,461.080000C225.950123,461.080000,227.916279,460.265592,229.365935,458.815935C230.815592,457.366279,231.630000,455.400123,231.630000,453.350000L231.630000,361C231.624820,358.688314,230.587955,356.499623,228.802430,355.031353C227.016905,353.563083,224.669147,352.968536,222.400000,353.410000C210.400000,355.890000,198.120000,346.850000,196.950000,334.640000C194.580000,306.540000,234.560000,301.880000,239.950000,328.710000L239.950000,454.300000C239.870000,459.660000,244.830000,462.300000,249.770000,462.300000L249.770000,178.880000C238.100000,178.910000,213.380000,189.190000,213.380000,203Z" transform="matrix(-1 0 0 1 599.77000000151293 -5.56631221999885)" fill="rgb(106,67,179)" stroke="rgb(106,67,179)" stroke-width="1"/><path id="eaja0bcojy0c38" d="M213.380000,203L213.380000,219.520000C204,215.280000,209.720000,236.280000,209.750000,237.300000C210.660000,239.020000,211.750000,240.350000,213.600000,240.770000C214.530000,253.400000,223.600000,265.430000,231.490000,274.770000C233.570000,280.340000,225.750000,284.680000,219.820000,286.850000C189.170000,298.100000,158.210000,301.260000,159.200000,335.920000C162.800000,367.570000,187.810000,456.810000,187.810000,456.810000C188.383276,459.308503,190.606572,461.079674,193.170000,461.080000L223.900000,461.080000C225.950123,461.080000,227.916279,460.265592,229.365935,458.815935C230.815592,457.366279,231.630000,455.400123,231.630000,453.350000L231.630000,361C231.624820,358.688314,230.587955,356.499623,228.802430,355.031353C227.016905,353.563083,224.669147,352.968536,222.400000,353.410000C210.400000,355.890000,198.120000,346.850000,196.950000,334.640000C194.580000,306.540000,234.560000,301.880000,239.950000,328.710000L239.950000,454.300000C239.870000,459.660000,244.830000,462.300000,249.770000,462.300000L249.770000,178.880000C238.100000,178.910000,213.380000,189.190000,213.380000,203Z" transform="matrix(1 0 0 1 100.22999999999996 -5.56631222000004)" fill="rgb(106,67,179)" stroke="rgb(106,67,179)" stroke-width="1"/></g></svg>