<svg width="94" height="127" xmlns="http://www.w3.org/2000/svg"><g fill="none" fill-rule="evenodd"><path d="M73.643 33.437c2.93 3.327 4.544 7.774 4.544 12.523 0 8.356-5.333 14.59-11.096 20.084-2.968 2.83-6.39 5.746-10.35 9.124a699.232 699.232 0 0 0-7.14 6.145 2.762 2.762 0 0 1-3.647 0c-2.504-2.193-4.86-4.202-7.14-6.146-6.167-5.259-11.494-9.8-15.208-14.22-4.255-5.064-6.238-9.826-6.238-14.987 0-4.749 1.614-9.197 4.545-12.524C25 29.931 29.28 28 33.965 28c5.229 0 9.761 2.498 13.107 7.223.251.354.486.708.706 1.06.22-.352.454-.706.705-1.06C51.83 30.498 56.362 28 61.591 28c4.684 0 8.965 1.93 12.052 5.437zM21.637 88.392V87.1c7.294-5.119 17.206-4.725 23.998 1.294 1.441 1.237 3.23 1.856 4.9 1.856h10.078c3.062 0 5.512 2.475 5.568 5.569v.056c0 3.094-2.506 5.625-5.568 5.625H43.63c-1.56 0-2.784 1.237-2.784 2.813 0 1.574 1.225 2.812 2.784 2.812h21.603c2.339 0 4.566-.956 6.125-2.7l.39-.45 12.639-14.737c2.013-2.204 5.467-2.375 7.516-.563.502.394.947.844 1.28 1.406 1.263 1.913 1.116 5.458-.834 8.044l-13.363 18c-3.675 4.95-9.466 7.875-15.59 7.875H38.564a63.655 63.655 0 0 1-16.927-2.306v-1.39a2.996 2.996 0 0 1-2.445 1.261H10a3 3 0 0 1-3-3V90.13a3 3 0 0 1 3-3h9.192c1.01 0 1.902.498 2.445 1.262z" fill="#25E899"/><path d="M69.643 33.437c2.93 3.327 4.544 7.774 4.544 12.523 0 8.356-5.333 14.59-11.096 20.084-2.968 2.83-6.39 5.746-10.35 9.124a699.232 699.232 0 0 0-7.14 6.145 2.762 2.762 0 0 1-3.647 0c-2.504-2.193-4.86-4.202-7.14-6.146-6.167-5.259-11.494-9.8-15.208-14.22-4.255-5.064-6.238-9.826-6.238-14.987 0-4.749 1.614-9.197 4.545-12.524C21 29.931 25.28 28 29.965 28c5.229 0 9.761 2.498 13.107 7.223.251.354.486.708.706 1.06.22-.352.454-.706.705-1.06C47.83 30.498 52.362 28 57.591 28c4.684 0 8.965 1.93 12.052 5.437zM17.637 88.392V87.1c7.294-5.119 17.206-4.725 23.998 1.294 1.441 1.237 3.23 1.856 4.9 1.856h10.078c3.062 0 5.512 2.475 5.568 5.569v.056c0 3.094-2.506 5.625-5.568 5.625H39.63c-1.56 0-2.784 1.237-2.784 2.813 0 1.574 1.225 2.812 2.784 2.812h21.603c2.339 0 4.566-.956 6.125-2.7l.39-.45 12.639-14.737c2.013-2.204 5.467-2.375 7.516-.563.502.394.947.844 1.28 1.406 1.263 1.913 1.116 5.458-.834 8.044l-13.363 18c-3.675 4.95-9.466 7.875-15.59 7.875H34.564a63.655 63.655 0 0 1-16.927-2.306v-1.39a2.996 2.996 0 0 1-2.445 1.261H6a3 3 0 0 1-3-3V90.13a3 3 0 0 1 3-3h9.192c1.01 0 1.902.498 2.445 1.262z" stroke="#000" stroke-width="5"/><g fill="#25E899" fill-rule="nonzero"><path d="M23.16 6.454l8.136 8.398c.756.78.756 2.019 0 2.799a1.888 1.888 0 0 1-2.711 0l-8.136-8.398a2.012 2.012 0 0 1 0-2.8 1.888 1.888 0 0 1 2.712 0zM60.83 16.596l8.075-8.25a1.883 1.883 0 0 1 2.691 0 1.966 1.966 0 0 1 0 2.75l-8.075 8.25a1.883 1.883 0 0 1-2.691 0 1.966 1.966 0 0 1 0-2.75zM44.573 2.536l.097 11.444a1.94 1.94 0 0 0 1.924 1.923 1.875 1.875 0 0 0 1.891-1.89l-.097-11.445A1.94 1.94 0 0 0 46.465.645a1.875 1.875 0 0 0-1.892 1.89z"/></g></g></svg>