<svg width="119" height="161" xmlns="http://www.w3.org/2000/svg" xmlns:xlink="http://www.w3.org/1999/xlink"><defs><rect id="b" x=".701" y="0" width="93" height="110" rx="3"/><filter x="-18.3%" y="-15.5%" width="136.6%" height="130.9%" filterUnits="objectBoundingBox" id="a"><feMorphology radius="5" operator="dilate" in="SourceAlpha" result="shadowSpreadOuter1"/><feOffset in="shadowSpreadOuter1" result="shadowOffsetOuter1"/><feGaussianBlur stdDeviation="4" in="shadowOffsetOuter1" result="shadowBlurOuter1"/><feComposite in="shadowBlurOuter1" in2="SourceAlpha" operator="out" result="shadowBlurOuter1"/><feColorMatrix values="0 0 0 0 0 0 0 0 0 0 0 0 0 0 0 0 0 0 0.12 0" in="shadowBlurOuter1"/></filter></defs><g fill="none" fill-rule="evenodd"><g fill-rule="nonzero" transform="translate(12 38)"><use fill="#000" filter="url(#a)" xlink:href="#b"/><rect stroke="#000" stroke-width="5" fill="#F2F6F9" fill-rule="evenodd" x="-1.799" y="-2.5" width="98" height="115" rx="3"/></g><g transform="translate(18.526 56.06)"><rect fill="#25E899" fill-rule="nonzero" x="3.701" y="58" width="78.272" height="13.943" rx="6.971"/><rect stroke="#000" stroke-width="5" x="3.201" y="61.5" width="74.374" height="8.943" rx="4.471"/><ellipse fill="#25E899" fill-rule="nonzero" cx="44.096" cy="20.635" rx="20.395" ry="20.635"/><ellipse stroke="#000" stroke-width="5" cx="40.096" cy="20.635" rx="20.395" ry="20.635"/><path d="M47.514 11.712L37.57 21.715l-3.757-3.78-3.898 3.922 3.757 3.78 3.898 3.922 3.899-3.922 9.943-10.004z" fill="#000"/></g><g fill="#25E899" fill-rule="nonzero"><path d="M36.391 9.09l11.495 11.148a2.588 2.588 0 0 1 0 3.716 2.752 2.752 0 0 1-3.832 0L32.56 12.806a2.588 2.588 0 0 1 0-3.716 2.752 2.752 0 0 1 3.832 0zM71.633 20.595l10.562-11.39a2.4 2.4 0 0 1 3.52 0 2.792 2.792 0 0 1 0 3.796L75.154 24.392a2.4 2.4 0 0 1-3.52 0 2.792 2.792 0 0 1 0-3.797zM57.494 3.323l-.071 15.66a2.587 2.587 0 0 0 2.598 2.599 2.634 2.634 0 0 0 2.622-2.622l.071-15.66A2.587 2.587 0 0 0 60.116.7a2.634 2.634 0 0 0-2.622 2.623z"/></g></g></svg>