<svg id="ewso58bKC2O1" xmlns="http://www.w3.org/2000/svg" xmlns:xlink="http://www.w3.org/1999/xlink" viewBox="0 0 700 700" shape-rendering="geometricPrecision" text-rendering="geometricPrecision" width="700" height="700"><style><![CDATA[#ewso58bKC2O63 {animation: ewso58bKC2O63_f_o 2000ms linear infinite normal forwards}@keyframes ewso58bKC2O63_f_o { 0% {fill-opacity: 0} 30% {fill-opacity: 0;animation-timing-function: cubic-bezier(0.470000,0,0.745000,0.715000)} 55% {fill-opacity: 1;animation-timing-function: cubic-bezier(0.470000,0,0.745000,0.715000)} 80% {fill-opacity: 0} 100% {fill-opacity: 0}} #ewso58bKC2O64 {animation: ewso58bKC2O64_f_o 2000ms linear infinite normal forwards}@keyframes ewso58bKC2O64_f_o { 0% {fill-opacity: 0} 15% {fill-opacity: 0;animation-timing-function: cubic-bezier(0.470000,0,0.745000,0.715000)} 40% {fill-opacity: 1;animation-timing-function: cubic-bezier(0.470000,0,0.745000,0.715000)} 65% {fill-opacity: 0} 100% {fill-opacity: 0}} #ewso58bKC2O65 {animation: ewso58bKC2O65_f_o 2000ms linear infinite normal forwards}@keyframes ewso58bKC2O65_f_o { 0% {fill-opacity: 0;animation-timing-function: cubic-bezier(0.470000,0,0.745000,0.715000)} 25% {fill-opacity: 1;animation-timing-function: cubic-bezier(0.470000,0,0.745000,0.715000)} 50% {fill-opacity: 0} 100% {fill-opacity: 0}}]]></style><g id="ewso58bKC2O2"><polygon id="ewso58bKC2O3" points="313.100000,232.700000 313.100000,232.800000 313,232.800000 266.700000,254 266.700000,253.900000 261,237.900000 303.700000,216" fill="rgb(111,63,245)" stroke="rgb(14,3,51)" stroke-width="3" stroke-linecap="round" stroke-linejoin="round" stroke-miterlimit="10"/><polygon id="ewso58bKC2O4" points="425.400000,279.500000 380.200000,258.600000 380.200000,258.600000 384.800000,232.900000 384.900000,233 431.200000,254.100000" fill="rgb(111,63,245)" stroke="rgb(14,3,51)" stroke-width="3" stroke-linecap="round" stroke-linejoin="round" stroke-miterlimit="10"/><polygon id="ewso58bKC2O5" points="359.600000,577.200000 359.300000,577.200000 360.500000,501.800000 372.200000,501.600000 372.200000,501.600000 383.500000,495.200000 383.400000,567.500000" fill="rgb(111,63,245)" stroke="rgb(14,3,51)" stroke-width="3" stroke-linecap="round" stroke-linejoin="round" stroke-miterlimit="10"/><polygon id="ewso58bKC2O6" points="349.100000,578.200000 349.100000,502 360.300000,501.800000 359.200000,577.200000" fill="rgb(111,63,245)" stroke="rgb(14,3,51)" stroke-width="3" stroke-linecap="round" stroke-linejoin="round" stroke-miterlimit="10"/><polygon id="ewso58bKC2O7" points="322,400 322.100000,399.900000 322.200000,400 348.800000,405.300000 348.800000,460.400000 324.400000,461.500000" fill="rgb(111,63,245)" stroke="rgb(14,3,51)" stroke-width="3" stroke-linecap="round" stroke-linejoin="round" stroke-miterlimit="10"/><polygon id="ewso58bKC2O8" points="321.900000,399.900000 321.900000,399.900000 321.900000,399.900000" fill="rgb(111,63,245)" stroke="rgb(14,3,51)" stroke-width="3" stroke-linecap="round" stroke-linejoin="round" stroke-miterlimit="10"/><polygon id="ewso58bKC2O9" points="330.700000,353.700000 330.800000,352.900000 340.300000,335.700000 334.400000,391.300000 322.300000,399.600000 322.400000,399.700000 334.500000,391.400000 348.800000,391.400000 348.800000,405.200000 322.300000,399.800000 322.100000,399.800000 330.600000,353.800000 330.700000,353.800000" fill="rgb(111,63,245)" stroke="rgb(14,3,51)" stroke-width="3" stroke-linecap="round" stroke-linejoin="round" stroke-miterlimit="10"/><polygon id="ewso58bKC2O10" points="367.300000,353.800000 375.800000,399.800000 375.600000,399.800000 349.100000,405.200000 349.100000,391.400000 363.400000,391.400000 375.600000,399.700000 375.600000,399.600000 363.500000,391.300000 357.600000,335.700000 367.100000,352.900000 367.200000,353.700000 367.200000,353.800000" fill="rgb(111,63,245)" stroke="rgb(14,3,51)" stroke-width="3" stroke-linecap="round" stroke-linejoin="round" stroke-miterlimit="10"/><polygon id="ewso58bKC2O11" points="376,399.900000 376,399.900000 376,399.900000" fill="rgb(111,63,245)" stroke="rgb(14,3,51)" stroke-width="3" stroke-linecap="round" stroke-linejoin="round" stroke-miterlimit="10"/><polygon id="ewso58bKC2O12" points="375.900000,400 373.600000,461.500000 349.100000,460.400000 349.100000,405.300000 375.700000,400 375.900000,399.900000" fill="rgb(111,63,245)" stroke="rgb(14,3,51)" stroke-width="3" stroke-linecap="round" stroke-linejoin="round" stroke-miterlimit="10"/><polygon id="ewso58bKC2O13" points="349.100000,501.900000 349.100000,473.600000 365,473.500000 372,501.500000" fill="rgb(111,63,245)" stroke="rgb(14,3,51)" stroke-width="3" stroke-linecap="round" stroke-linejoin="round" stroke-miterlimit="10"/><polygon id="ewso58bKC2O14" points="365,473.400000 349.100000,473.400000 349.100000,460.500000 373.500000,461.600000 371.600000,464.200000" fill="rgb(111,63,245)" stroke="rgb(14,3,51)" stroke-width="3" stroke-linecap="round" stroke-linejoin="round" stroke-miterlimit="10"/><polygon id="ewso58bKC2O15" points="376,399.700000 367.400000,353.900000 422.100000,360.600000 376.200000,399.700000" fill="rgb(111,63,245)" stroke="rgb(14,3,51)" stroke-width="3" stroke-linecap="round" stroke-linejoin="round" stroke-miterlimit="10"/><polygon id="ewso58bKC2O16" points="357.500000,335.500000 357.500000,335.500000 357.400000,335.500000 363.400000,391.300000 349.100000,391.200000 349.100000,312.400000 370.400000,312.100000" fill="rgb(111,63,245)" stroke="rgb(14,3,51)" stroke-width="3" stroke-linecap="round" stroke-linejoin="round" stroke-miterlimit="10"/><polygon id="ewso58bKC2O17" points="370.400000,312 349.100000,312.200000 349.100000,255.500000 380,258.700000 370.400000,312" fill="rgb(111,63,245)" stroke="rgb(14,3,51)" stroke-width="3" stroke-linecap="round" stroke-linejoin="round" stroke-miterlimit="10"/><polygon id="ewso58bKC2O18" points="348.800000,391.200000 334.500000,391.300000 340.500000,335.500000 340.400000,335.500000 327.500000,312.100000 348.800000,312.400000" fill="rgb(111,63,245)" stroke="rgb(14,3,51)" stroke-width="3" stroke-linecap="round" stroke-linejoin="round" stroke-miterlimit="10"/><polygon id="ewso58bKC2O19" points="322,399.700000 321.700000,399.700000 275.800000,360.600000 330.500000,353.900000" fill="rgb(111,63,245)" stroke="rgb(14,3,51)" stroke-width="3" stroke-linecap="round" stroke-linejoin="round" stroke-miterlimit="10"/><polygon id="ewso58bKC2O20" points="348.800000,460.500000 348.800000,473.400000 332.900000,473.400000 326.300000,464.200000 324.400000,461.600000" fill="rgb(111,63,245)" stroke="rgb(14,3,51)" stroke-width="3" stroke-linecap="round" stroke-linejoin="round" stroke-miterlimit="10"/><polygon id="ewso58bKC2O21" points="332.900000,473.500000 348.800000,473.600000 348.800000,501.900000 325.900000,501.500000" fill="rgb(111,63,245)" stroke="rgb(14,3,51)" stroke-width="3" stroke-linecap="round" stroke-linejoin="round" stroke-miterlimit="10"/><polygon id="ewso58bKC2O22" points="348.800000,502 348.900000,578.200000 338.700000,577.200000 338.700000,577.200000 337.600000,501.800000" fill="rgb(111,63,245)" stroke="rgb(14,3,51)" stroke-width="3" stroke-linecap="round" stroke-linejoin="round" stroke-miterlimit="10"/><polygon id="ewso58bKC2O23" points="365.100000,473.400000 371.700000,464.200000 373.500000,461.800000 372.100000,501.100000" fill="rgb(111,63,245)" stroke="rgb(14,3,51)" stroke-width="3" stroke-linecap="round" stroke-linejoin="round" stroke-miterlimit="10"/><polygon id="ewso58bKC2O24" points="376,400 376.300000,399.800000 430.900000,384.100000 373.700000,461.400000" fill="rgb(111,63,245)" stroke="rgb(14,3,51)" stroke-width="3" stroke-linecap="round" stroke-linejoin="round" stroke-miterlimit="10"/><polygon id="ewso58bKC2O25" points="376.500000,399.600000 422.200000,360.600000 422.900000,360.700000 423.700000,361 430.900000,383.900000" fill="rgb(111,63,245)" stroke="rgb(14,3,51)" stroke-width="3" stroke-linecap="round" stroke-linejoin="round" stroke-miterlimit="10"/><polygon id="ewso58bKC2O26" points="422.900000,360.600000 422.400000,360.500000 423.300000,359.700000 423.600000,360.800000" fill="rgb(111,63,245)" stroke="rgb(14,3,51)" stroke-width="3" stroke-linecap="round" stroke-linejoin="round" stroke-miterlimit="10"/><polygon id="ewso58bKC2O27" points="422.200000,360.500000 367.400000,353.700000 367.200000,352.900000 357.700000,335.500000 370.500000,312.200000 416.600000,318.500000 423.200000,359.600000" fill="rgb(111,63,245)" stroke="rgb(14,3,51)" stroke-width="3" stroke-linecap="round" stroke-linejoin="round" stroke-miterlimit="10"/><polygon id="ewso58bKC2O28" points="416.600000,318.400000 370.600000,312 380.100000,258.700000 380.200000,258.700000 425.300000,279.600000 425.400000,279.700000" fill="rgb(111,63,245)" stroke="rgb(14,3,51)" stroke-width="3" stroke-linecap="round" stroke-linejoin="round" stroke-miterlimit="10"/><polygon id="ewso58bKC2O29" points="380,258.600000 349.100000,255.400000 349.100000,227.700000 384.600000,232.900000" fill="rgb(111,63,245)" stroke="rgb(14,3,51)" stroke-width="3" stroke-linecap="round" stroke-linejoin="round" stroke-miterlimit="10"/><polygon id="ewso58bKC2O30" points="348.800000,312.200000 327.500000,312 327.500000,312 317.900000,258.700000 348.800000,255.500000" fill="rgb(111,63,245)" stroke="rgb(14,3,51)" stroke-width="3" stroke-linecap="round" stroke-linejoin="round" stroke-miterlimit="10"/><polygon id="ewso58bKC2O31" points="327.400000,312 281.300000,318.400000 272.600000,279.700000 272.600000,279.600000 317.700000,258.700000 317.800000,258.700000" fill="rgb(111,63,245)" stroke="rgb(14,3,51)" stroke-width="3" stroke-linecap="round" stroke-linejoin="round" stroke-miterlimit="10"/><polygon id="ewso58bKC2O32" points="281.300000,318.500000 327.400000,312.200000 340.300000,335.500000 330.700000,352.900000 330.500000,353.700000 275.700000,360.500000 274.700000,359.600000" fill="rgb(111,63,245)" stroke="rgb(14,3,51)" stroke-width="3" stroke-linecap="round" stroke-linejoin="round" stroke-miterlimit="10"/><polygon id="ewso58bKC2O33" points="274.600000,359.700000 275.500000,360.500000 275,360.600000 274.300000,360.800000" fill="rgb(111,63,245)" stroke="rgb(14,3,51)" stroke-width="3" stroke-linecap="round" stroke-linejoin="round" stroke-miterlimit="10"/><polygon id="ewso58bKC2O34" points="275,360.700000 275.700000,360.600000 321.400000,399.600000 267,383.900000 274.200000,361" fill="rgb(111,63,245)" stroke="rgb(14,3,51)" stroke-width="3" stroke-linecap="round" stroke-linejoin="round" stroke-miterlimit="10"/><polygon id="ewso58bKC2O35" points="321.600000,399.800000 321.900000,400 324.200000,461.400000 267,384.100000" fill="rgb(111,63,245)" stroke="rgb(14,3,51)" stroke-width="3" stroke-linecap="round" stroke-linejoin="round" stroke-miterlimit="10"/><polygon id="ewso58bKC2O36" points="326.200000,464.200000 332.800000,473.400000 325.800000,501.100000 324.400000,461.800000" fill="rgb(111,63,245)" stroke="rgb(14,3,51)" stroke-width="3" stroke-linecap="round" stroke-linejoin="round" stroke-miterlimit="10"/><polygon id="ewso58bKC2O37" points="337.500000,501.800000 338.600000,577.200000 338.600000,577.200000 338.300000,577.200000 314.500000,567.500000 314.400000,495.200000 325.700000,501.600000" fill="rgb(111,63,245)" stroke="rgb(14,3,51)" stroke-width="3" stroke-linecap="round" stroke-linejoin="round" stroke-miterlimit="10"/><polygon id="ewso58bKC2O38" points="408.700000,557.300000 408.700000,557.300000 407.700000,529 431.500000,562.200000" fill="rgb(111,63,245)" stroke="rgb(14,3,51)" stroke-width="3" stroke-linecap="round" stroke-linejoin="round" stroke-miterlimit="10"/><polygon id="ewso58bKC2O39" points="408.600000,557.300000 383.500000,567.500000 383.600000,495.400000 407.600000,528.800000" fill="rgb(111,63,245)" stroke="rgb(14,3,51)" stroke-width="3" stroke-linecap="round" stroke-linejoin="round" stroke-miterlimit="10"/><polygon id="ewso58bKC2O40" points="383.600000,495.200000 405.900000,482.600000 407.600000,528.500000" fill="rgb(111,63,245)" stroke="rgb(14,3,51)" stroke-width="3" stroke-linecap="round" stroke-linejoin="round" stroke-miterlimit="10"/><polygon id="ewso58bKC2O41" points="383.500000,495.100000 383.500000,495 383.500000,495.100000 372.200000,501.500000 373.700000,461.600000 431,384.200000 425.500000,471.400000" fill="rgb(111,63,245)" stroke="rgb(14,3,51)" stroke-width="3" stroke-linecap="round" stroke-linejoin="round" stroke-miterlimit="10"/><polygon id="ewso58bKC2O42" points="431.100000,384.400000 442.800000,421.400000 425.600000,471.100000" fill="rgb(111,63,245)" stroke="rgb(14,3,51)" stroke-width="3" stroke-linecap="round" stroke-linejoin="round" stroke-miterlimit="10"/><polygon id="ewso58bKC2O43" points="431.100000,384 431.100000,384 431.100000,384 431.100000,384 431.100000,384 431.100000,384 423.800000,361 450.500000,370.100000 442.800000,421.100000" fill="rgb(111,63,245)" stroke="rgb(14,3,51)" stroke-width="3" stroke-linecap="round" stroke-linejoin="round" stroke-miterlimit="10"/><polygon id="ewso58bKC2O44" points="423.800000,360.900000 423.400000,359.600000 416.700000,318.500000 425.400000,280.100000 437.800000,365.400000 437.900000,365.400000 425.500000,279.700000 431.300000,254.300000 442,304.100000 450.500000,370" fill="rgb(111,63,245)" stroke="rgb(14,3,51)" stroke-width="3" stroke-linecap="round" stroke-linejoin="round" stroke-miterlimit="10"/><polygon id="ewso58bKC2O45" points="431.200000,253.900000 431.200000,254 384.900000,232.800000 384.800000,232.800000 384.800000,232.700000 394.200000,216 436.900000,237.900000" fill="rgb(111,63,245)" stroke="rgb(14,3,51)" stroke-width="3" stroke-linecap="round" stroke-linejoin="round" stroke-miterlimit="10"/><polygon id="ewso58bKC2O46" points="384.700000,232.600000 384.700000,232.600000 384.700000,232.800000 349.100000,227.600000 349.100000,208.400000 394,215.900000" fill="rgb(111,63,245)" stroke="rgb(14,3,51)" stroke-width="3" stroke-linecap="round" stroke-linejoin="round" stroke-miterlimit="10"/><polygon id="ewso58bKC2O47" points="348.800000,255.400000 317.900000,258.600000 313.300000,232.900000 348.800000,227.700000" fill="rgb(111,63,245)" stroke="rgb(14,3,51)" stroke-width="3" stroke-linecap="round" stroke-linejoin="round" stroke-miterlimit="10"/><polygon id="ewso58bKC2O48" points="317.700000,258.600000 317.700000,258.600000 272.500000,279.500000 266.700000,254.100000 313,233 313.100000,232.900000" fill="rgb(111,63,245)" stroke="rgb(14,3,51)" stroke-width="3" stroke-linecap="round" stroke-linejoin="round" stroke-miterlimit="10"/><polygon id="ewso58bKC2O49" points="266.600000,254 266.600000,254 266.600000,254 255.800000,304.100000 255.500000,306.300000 246.300000,283.100000 260.900000,238.100000" fill="rgb(111,63,245)" stroke="rgb(14,3,51)" stroke-width="3" stroke-linecap="round" stroke-linejoin="round" stroke-miterlimit="10"/><polygon id="ewso58bKC2O50" points="255.900000,304.100000 266.700000,254.300000 272.400000,279.700000 260,365.400000 260.100000,365.400000 272.500000,280.100000 281.200000,318.500000 274.500000,359.600000 274.100000,360.900000 247.400000,370" fill="rgb(111,63,245)" stroke="rgb(14,3,51)" stroke-width="3" stroke-linecap="round" stroke-linejoin="round" stroke-miterlimit="10"/><polygon id="ewso58bKC2O51" points="274.100000,361 266.800000,384 266.800000,384 266.800000,384 266.800000,384 266.800000,384 266.800000,384 255.100000,421.100000 247.400000,370.100000" fill="rgb(111,63,245)" stroke="rgb(14,3,51)" stroke-width="3" stroke-linecap="round" stroke-linejoin="round" stroke-miterlimit="10"/><polygon id="ewso58bKC2O52" points="266.800000,384.400000 272.300000,471.100000 255.100000,421.400000" fill="rgb(111,63,245)" stroke="rgb(14,3,51)" stroke-width="3" stroke-linecap="round" stroke-linejoin="round" stroke-miterlimit="10"/><polygon id="ewso58bKC2O53" points="272.500000,471.400000 266.900000,384.200000 324.200000,461.600000 325.700000,501.500000 314.400000,495.100000 314.400000,495 314.400000,495.100000" fill="rgb(111,63,245)" stroke="rgb(14,3,51)" stroke-width="3" stroke-linecap="round" stroke-linejoin="round" stroke-miterlimit="10"/><polygon id="ewso58bKC2O54" points="314.300000,495.200000 290.400000,528.500000 292,482.600000" fill="rgb(111,63,245)" stroke="rgb(14,3,51)" stroke-width="3" stroke-linecap="round" stroke-linejoin="round" stroke-miterlimit="10"/><polygon id="ewso58bKC2O55" points="314.300000,495.400000 314.400000,567.500000 289.300000,557.300000 290.300000,528.800000" fill="rgb(111,63,245)" stroke="rgb(14,3,51)" stroke-width="3" stroke-linecap="round" stroke-linejoin="round" stroke-miterlimit="10"/><polygon id="ewso58bKC2O56" points="289.200000,557.300000 266.400000,562.200000 290.200000,529" fill="rgb(111,63,245)" stroke="rgb(14,3,51)" stroke-width="3" stroke-linecap="round" stroke-linejoin="round" stroke-miterlimit="10"/><polygon id="ewso58bKC2O57" points="429.800000,483.200000 423,516.800000 423,516.800000 431.500000,562 407.700000,528.700000 406,482.600000 425.600000,471.500000 425.600000,471.500000 442.700000,422 442.600000,422.500000" fill="rgb(111,63,245)" stroke="rgb(14,3,51)" stroke-width="3" stroke-linecap="round" stroke-linejoin="round" stroke-miterlimit="10"/><polygon id="ewso58bKC2O58" points="454.500000,346.700000 450.800000,368.700000 450.600000,369.700000 442.400000,306.400000 442.500000,306.400000 451.600000,283.400000" fill="rgb(111,63,245)" stroke="rgb(14,3,51)" stroke-width="3" stroke-linecap="round" stroke-linejoin="round" stroke-miterlimit="10"/><polygon id="ewso58bKC2O59" points="451.600000,283.100000 442.400000,306.300000 442.100000,304.100000 431.300000,254 431.300000,254 437,238.100000" fill="rgb(111,63,245)" stroke="rgb(14,3,51)" stroke-width="3" stroke-linecap="round" stroke-linejoin="round" stroke-miterlimit="10"/><polygon id="ewso58bKC2O60" points="348.800000,227.600000 313.200000,232.800000 313.200000,232.600000 303.900000,215.900000 348.800000,208.400000" fill="rgb(111,63,245)" stroke="rgb(14,3,51)" stroke-width="3" stroke-linecap="round" stroke-linejoin="round" stroke-miterlimit="10"/><polygon id="ewso58bKC2O61" points="243.400000,346.700000 246.300000,283.400000 255.400000,306.400000 255.500000,306.400000 247.300000,369.700000 247.200000,368.700000" fill="rgb(111,63,245)" stroke="rgb(14,3,51)" stroke-width="3" stroke-linecap="round" stroke-linejoin="round" stroke-miterlimit="10"/><polygon id="ewso58bKC2O62" points="268.100000,483.200000 255.300000,422.500000 255.200000,422 272.300000,471.500000 272.300000,471.500000 291.900000,482.600000 290.200000,528.700000 266.400000,562 274.900000,516.800000 274.900000,516.800000" fill="rgb(111,63,245)" stroke="rgb(14,3,51)" stroke-width="3" stroke-linecap="round" stroke-linejoin="round" stroke-miterlimit="10"/></g><path id="ewso58bKC2O63" d="M548.100000,211.700000C567.200000,245.300000,577.400000,283.500000,577.800000,322.300000L553,322.300000C552.900000,309.100000,551.500000,296,548.900000,283.200000C546.200000,270.100000,542.200000,257.200000,537,244.900000C534,237.800000,530.600000,230.800000,526.800000,224.100000L548.100000,211.700000ZM390.100000,124.500000C403.200000,127.200000,416.100000,131.200000,428.400000,136.400000C435.500000,139.400000,442.500000,142.800000,449.200000,146.600000L461.500000,125.200000C427.900000,106.100000,389.700000,95.900000,350.900000,95.500000L350.900000,120.300000C364.200000,120.500000,377.300000,121.800000,390.100000,124.500000ZM524.700000,220.500000L546.100000,208.200000C526.400000,174.900000,498.500000,147,465.100000,127.200000L452.800000,148.600000C456.300000,150.700000,459.800000,152.900000,463.100000,155.100000C473.900000,162.400000,484.100000,170.800000,493.300000,180C502.500000,189.200000,510.900000,199.400000,518.200000,210.200000L518.200000,210.200000C520.400000,213.600000,522.600000,217,524.700000,220.500000ZM553,326.400000C552.900000,339.600000,551.500000,352.700000,548.900000,365.500000C546.200000,378.600000,542.200000,391.500000,537,403.800000C534,410.900000,530.600000,417.900000,526.800000,424.600000L548.200000,436.900000C567.300000,403.300000,577.500000,365.100000,577.900000,326.300000L553,326.300000ZM234.800000,155.100000L234.800000,155.100000C238.100000,152.800000,241.600000,150.700000,245.100000,148.600000L232.800000,127.200000C199.500000,146.900000,171.600000,174.800000,151.800000,208.200000L173.200000,220.500000C175.300000,217,177.500000,213.500000,179.700000,210.200000C187,199.400000,195.400000,189.200000,204.600000,180C213.900000,170.800000,224,162.400000,234.800000,155.100000ZM171.200000,424.700000C167.400000,417.900000,163.900000,411,161,403.900000C155.800000,391.600000,151.800000,378.700000,149.100000,365.600000C146.500000,352.800000,145.100000,339.700000,145,326.500000L120.200000,326.500000C120.500000,365.300000,130.800000,403.400000,149.900000,437.100000L171.200000,424.700000ZM269.500000,136.300000C281.800000,131.100000,294.700000,127.100000,307.800000,124.400000C320.600000,121.800000,333.700000,120.400000,346.900000,120.300000L346.900000,95.500000C308.100000,95.800000,270,106.100000,236.300000,125.200000L248.600000,146.600000C255.400000,142.800000,262.400000,139.300000,269.500000,136.300000ZM144.900000,322.300000C145,309.100000,146.400000,296,149,283.200000C151.700000,270.100000,155.700000,257.200000,160.900000,244.900000C163.900000,237.800000,167.300000,230.800000,171.100000,224.100000L149.700000,211.800000C130.600000,245.400000,120.400000,283.600000,120,322.400000L144.900000,322.400000Z" fill="rgb(2,226,172)" fill-opacity="0" stroke="none" stroke-width="1"/><path id="ewso58bKC2O64" d="M523.100000,226.200000C539.700000,255.500000,548.600000,288.600000,548.900000,322.400000L524.100000,322.400000C524,311.200000,522.800000,300,520.600000,289.100000C518.300000,277.800000,514.900000,266.800000,510.400000,256.200000C507.900000,250.200000,505,244.300000,501.700000,238.600000L523.100000,226.200000ZM384.300000,152.700000C395.600000,155,406.600000,158.400000,417.200000,162.900000C423.200000,165.400000,429.100000,168.300000,434.800000,171.600000L447.100000,150.200000C417.800000,133.600000,384.700000,124.700000,350.900000,124.400000L350.900000,149.200000C362.200000,149.300000,373.400000,150.500000,384.300000,152.700000ZM524.100000,326.400000C524,337.600000,522.800000,348.800000,520.600000,359.700000C518.300000,371,514.900000,382,510.400000,392.600000C507.900000,398.600000,505,404.500000,501.700000,410.200000L523.100000,422.500000C539.700000,393.200000,548.600000,360.100000,548.900000,326.300000L524.100000,326.300000ZM450.700000,152.300000L438.400000,173.700000C441.300000,175.400000,444.200000,177.300000,447,179.100000C456.300000,185.400000,465,192.600000,472.900000,200.500000C480.800000,208.400000,488,217.100000,494.300000,226.400000C496.200000,229.200000,498,232.100000,499.700000,235L521.100000,222.700000C503.900000,193.700000,479.600000,169.400000,450.700000,152.300000ZM196.200000,410.200000C193,404.500000,190.100000,398.600000,187.500000,392.600000C183,382,179.600000,371,177.300000,359.700000C175.100000,348.800000,173.900000,337.600000,173.800000,326.400000L149,326.400000C149.300000,360.100000,158.200000,393.300000,174.800000,422.600000L196.200000,410.200000ZM280.700000,162.900000C291.300000,158.400000,302.300000,155,313.600000,152.700000C324.500000,150.500000,335.700000,149.300000,346.900000,149.200000L346.900000,124.400000C313.200000,124.700000,280,133.600000,250.700000,150.200000L263,171.600000C268.800000,168.400000,274.700000,165.500000,280.700000,162.900000ZM251,179.100000C253.800000,177.200000,256.700000,175.400000,259.600000,173.700000L247.300000,152.300000C218.400000,169.500000,194.100000,193.700000,176.900000,222.700000L198.300000,235C200,232.100000,201.900000,229.200000,203.700000,226.400000C210,217.100000,217.200000,208.400000,225.100000,200.500000C233,192.500000,241.700000,185.300000,251,179.100000ZM173.800000,322.300000C173.900000,311.100000,175.100000,299.900000,177.300000,289C179.600000,277.700000,183,266.700000,187.500000,256.100000C190,250.100000,192.900000,244.200000,196.200000,238.500000L174.800000,226.200000C158.200000,255.500000,149.300000,288.600000,149,322.400000L173.800000,322.400000Z" fill="rgb(243,88,144)" fill-opacity="0" stroke="none" stroke-width="1"/><path id="ewso58bKC2O65" d="M520.100000,326.400000C519.800000,355.100000,512.200000,383.200000,498.200000,408.100000L476.800000,395.700000C479.400000,391,481.800000,386.200000,483.900000,381.300000C491.300000,363.900000,495.100000,345.400000,495.400000,326.400000L520.100000,326.400000ZM476.700000,252.900000C479.300000,257.600000,481.700000,262.400000,483.800000,267.300000C491.200000,284.700000,495,303.200000,495.300000,322.200000L520.100000,322.200000C519.800000,293.500000,512.200000,265.400000,498.200000,240.500000L476.700000,252.900000ZM405.900000,189.500000C410.800000,191.600000,415.600000,193.900000,420.300000,196.600000L432.700000,175.200000C407.800000,161.200000,379.600000,153.600000,351,153.300000L351,178C370,178.300000,388.500000,182.200000,405.900000,189.500000ZM436.300000,177.200000L424,198.600000C426.400000,200,428.700000,201.500000,430.900000,203C438.600000,208.200000,445.900000,214.200000,452.600000,220.900000C459.200000,227.500000,465.200000,234.800000,470.500000,242.600000C472,244.800000,473.500000,247.100000,474.900000,249.500000L496.300000,237.200000C481.400000,212.500000,460.800000,191.900000,436.300000,177.200000ZM221.200000,395.800000C218.600000,391.100000,216.200000,386.300000,214.100000,381.400000C206.700000,364,202.900000,345.500000,202.600000,326.500000L177.800000,326.500000C178.100000,355.200000,185.700000,383.300000,199.700000,408.200000L221.200000,395.800000ZM267.100000,203C269.300000,201.500000,271.600000,200,274,198.600000L261.700000,177.200000C237.100000,191.800000,216.500000,212.500000,201.900000,237L223.300000,249.300000C224.700000,246.900000,226.200000,244.600000,227.700000,242.400000C232.900000,234.700000,238.900000,227.400000,245.600000,220.700000C252.100000,214.200000,259.400000,208.200000,267.100000,203ZM292,189.500000C309.400000,182.100000,327.900000,178.300000,346.900000,178L346.900000,153.200000C318.200000,153.500000,290.100000,161.100000,265.200000,175.100000L277.600000,196.500000C282.200000,194,287.100000,191.600000,292,189.500000ZM202.600000,322.300000C202.900000,303.200000,206.700000,284.800000,214.100000,267.400000C216.200000,262.500000,218.500000,257.700000,221.200000,253L199.800000,240.600000C185.800000,265.500000,178.200000,293.700000,177.900000,322.300000L202.600000,322.300000Z" fill="rgb(111,63,245)" fill-opacity="0" stroke="none" stroke-width="1"/></svg>