<svg xmlns="http://www.w3.org/2000/svg" width="346" height="346"><g fill="none" fill-rule="evenodd"><circle cx="173" cy="173" r="173" fill="#FFF" fill-rule="nonzero"/><path fill="#62C08D" d="M128.715 179.644h86.434"/><path fill="#484748" d="M128.715 177.768h86.434v3.752h-86.434z"/><path fill="#484748" fill-rule="nonzero" d="M212.173 198.619h-80.48c-.65 0-1.254-.337-1.595-.89a21.8 21.8 0 0 1-3.258-11.478v-28.169c0-1.036.84-1.876 1.876-1.876h86.434c1.036 0 1.876.84 1.876 1.876v28.169c0 4.063-1.127 8.032-3.259 11.478-.341.553-.946.89-1.594.89zm-79.401-3.751h78.321a18.077 18.077 0 0 0 2.181-8.616V159.96h-82.682v26.292a18.064 18.064 0 0 0 2.18 8.616z"/><path fill="#62C08D" d="M180.377 180.749a8.925 8.925 0 1 0-8.925 8.925 8.925 8.925 0 0 0 8.925-8.925"/><path fill="#484748" fill-rule="nonzero" d="M171.452 191.55c-5.954 0-10.798-4.846-10.798-10.801 0-5.953 4.844-10.799 10.798-10.799 5.955 0 10.8 4.846 10.8 10.799 0 5.955-4.845 10.801-10.8 10.801zm0-17.848c-3.885 0-7.047 3.162-7.047 7.047 0 3.887 3.162 7.049 7.047 7.049 3.887 0 7.048-3.162 7.048-7.049 0-3.885-3.161-7.047-7.048-7.047z"/><path fill="#484748" d="M116.862 178.563a6.97 6.97 0 0 1-.884 3.981c-2.196 3.866-7.386 6.259-11.775 5.908a8.86 8.86 0 0 1-1.565-.274v4.222h27.076v-13.837h-12.852z"/><path fill="#62C08D" d="M101.045 163.358l5.506 25.959"/><path fill="#484748" d="M106.549 191.193a1.876 1.876 0 0 1-1.833-1.487l-5.506-25.959a1.877 1.877 0 0 1 1.446-2.225 1.875 1.875 0 0 1 2.224 1.446l5.506 25.96a1.877 1.877 0 0 1-1.837 2.265zM87 97.134l4.949 23.338M91.947 122.349a1.876 1.876 0 0 1-1.833-1.488l-4.95-23.338a1.876 1.876 0 1 1 3.67-.778l4.95 23.338a1.876 1.876 0 0 1-1.837 2.266z"/><path fill="#484748" fill-rule="nonzero" d="M99.892 192.4c-5.208 0-9.772-3.703-10.854-8.804l-14.231-67.1a11.03 11.03 0 0 1 1.553-8.357 11.037 11.037 0 0 1 7.007-4.81l9.469-2.008c.762-.162 1.54-.243 2.313-.243 5.207 0 9.771 3.701 10.853 8.802l14.231 67.101c1.271 5.99-2.569 11.896-8.558 13.167l-9.47 2.008c-.762.161-1.54.244-2.313.244zm-4.743-87.57c-.512 0-1.029.055-1.535.161L84.145 107a7.302 7.302 0 0 0-4.64 3.185 7.307 7.307 0 0 0-1.028 5.534l14.231 67.1c.717 3.378 3.738 5.83 7.185 5.83.512 0 1.028-.055 1.535-.162l9.47-2.008c3.966-.842 6.508-4.752 5.667-8.72l-14.231-67.101c-.719-3.378-3.74-5.828-7.185-5.828z"/><path fill="#62C08D" d="M84.662 122.017a7.45 7.45 0 1 0 14.577-3.091 7.45 7.45 0 0 0-14.577 3.091"/><path fill="#484748" fill-rule="nonzero" d="M91.942 129.799c-4.374 0-8.207-3.109-9.115-7.394a9.263 9.263 0 0 1 1.304-7.017 9.262 9.262 0 0 1 5.884-4.039 9.291 9.291 0 0 1 1.942-.205c4.374 0 8.207 3.109 9.116 7.393a9.26 9.26 0 0 1-1.304 7.017 9.259 9.259 0 0 1-5.884 4.041 9.513 9.513 0 0 1-1.943.204zm.015-14.903c-.388 0-.78.041-1.164.122a5.546 5.546 0 0 0-3.517 2.415 5.535 5.535 0 0 0-.779 4.194c.543 2.561 2.833 4.42 5.445 4.42.389 0 .78-.042 1.164-.123a5.542 5.542 0 0 0 3.518-2.415 5.534 5.534 0 0 0 .779-4.194c-.544-2.56-2.834-4.419-5.446-4.419z"/><path fill="#484748" d="M87.28 168.153a1.876 1.876 0 0 1-.387-3.711l27.526-5.84a1.876 1.876 0 0 1 .778 3.671l-27.525 5.838a1.822 1.822 0 0 1-.392.042zM83.756 151.534a1.877 1.877 0 0 1-.387-3.712l27.525-5.837a1.875 1.875 0 1 1 .779 3.669l-27.525 5.839a1.885 1.885 0 0 1-.392.041z"/><path fill="#EFF4EE" d="M88.718 73.122l3.83 18.058a4.677 4.677 0 0 1-3.605 5.545l-3.885.824a4.678 4.678 0 0 1-5.546-3.605l-3.83-18.057"/><path fill="#484748" d="M84.087 99.527c-3.029 0-5.757-2.117-6.41-5.194l-3.831-18.058a1.875 1.875 0 0 1 3.67-.778l3.83 18.057a2.808 2.808 0 0 0 3.322 2.159l3.884-.824a2.785 2.785 0 0 0 1.768-1.214 2.782 2.782 0 0 0 .392-2.107L86.883 73.51a1.875 1.875 0 1 1 3.669-.779l3.83 18.058a6.515 6.515 0 0 1-.917 4.932 6.502 6.502 0 0 1-4.134 2.838l-3.885.824c-.454.097-.91.143-1.359.144z"/><path fill="#62C08D" d="M75.682 75.887a6.664 6.664 0 0 0 13.036-2.764 6.663 6.663 0 0 0-13.036 2.764"/><path fill="#484748" fill-rule="nonzero" d="M82.194 83.045c-4.004 0-7.515-2.848-8.347-6.77a8.55 8.55 0 0 1 8.361-10.311c4.004 0 7.514 2.846 8.346 6.767a8.49 8.49 0 0 1-1.194 6.428 8.487 8.487 0 0 1-5.389 3.699 8.657 8.657 0 0 1-1.777.187zm.014-13.329a4.792 4.792 0 0 0-4.69 5.782 4.81 4.81 0 0 0 4.677 3.796c.333 0 .669-.036.999-.105a4.765 4.765 0 0 0 3.021-2.075 4.759 4.759 0 0 0 .67-3.603c-.468-2.198-2.435-3.795-4.677-3.795z"/><path fill="#62C08D" d="M256.845 200.905v-26.538"/><path fill="#484748" d="M238.501 191.266c-2.878-2.132-6.376-3.088-9.379-5.003-2.63-1.677-3.938-4.783-3.172-7.699h-10.251V192.4h27.077v-.214c-1.489.244-3.021.006-4.275-.92z"/><path fill="#484748" fill-rule="nonzero" d="M243.286 193.543c-1.058 0-2.113-.151-3.136-.452l-9.288-2.73a11.032 11.032 0 0 1-6.615-5.336 11.03 11.03 0 0 1-.906-8.45l19.346-65.809c1.38-4.695 5.76-7.975 10.649-7.975 1.058 0 2.112.151 3.136.453l9.286 2.729a11.035 11.035 0 0 1 6.617 5.336 11.022 11.022 0 0 1 .905 8.45l-19.345 65.809c-1.379 4.696-5.758 7.975-10.649 7.975zm10.05-87.001c-3.236 0-6.137 2.172-7.051 5.281l-19.344 65.809a7.302 7.302 0 0 0 .599 5.597 7.3 7.3 0 0 0 4.381 3.532l9.287 2.73c.68.199 1.378.301 2.078.301 3.236 0 6.138-2.172 7.051-5.282l19.346-65.809a7.3 7.3 0 0 0-.602-5.596 7.3 7.3 0 0 0-4.38-3.533l-9.287-2.729a7.397 7.397 0 0 0-2.078-.301z"/><path fill="#484748" d="M257.018 170.31c-.174 0-.354-.025-.529-.077l-26.995-7.935a1.876 1.876 0 1 1 1.058-3.599l26.995 7.936a1.875 1.875 0 0 1-.529 3.675zM261.809 154.011a1.83 1.83 0 0 1-.529-.077l-26.995-7.935a1.877 1.877 0 0 1 1.058-3.6l26.995 7.937a1.875 1.875 0 0 1-.529 3.675z"/><path fill="#484748" d="M236.035 191.802a1.876 1.876 0 0 1-1.799-2.404l7.485-25.46a1.876 1.876 0 0 1 3.599 1.057l-7.485 25.46a1.879 1.879 0 0 1-1.8 1.347z"/><path fill="#EFF4EE" d="M250.976 115.474l-5.204 17.708a4.677 4.677 0 0 0 3.168 5.808l3.811 1.12a4.675 4.675 0 0 0 5.806-3.169l5.206-17.708"/><path fill="#484748" d="M254.064 142.177c-.61 0-1.229-.087-1.845-.268l-3.81-1.12a6.496 6.496 0 0 1-3.904-3.148 6.506 6.506 0 0 1-.535-4.987l5.205-17.708a1.876 1.876 0 0 1 3.599 1.057l-5.204 17.708a2.79 2.79 0 0 0 .228 2.134 2.787 2.787 0 0 0 1.67 1.346l3.81 1.12a2.806 2.806 0 0 0 3.479-1.899l5.205-17.707a1.876 1.876 0 0 1 3.599 1.057l-5.205 17.709c-.838 2.851-3.46 4.705-6.292 4.706z"/><path fill="#62C08D" d="M263.762 119.232a6.662 6.662 0 0 1-8.271 4.513 6.663 6.663 0 1 1 8.271-4.513"/><path fill="#484748" fill-rule="nonzero" d="M257.371 125.894a8.48 8.48 0 0 1-2.41-.349 8.482 8.482 0 0 1-5.088-4.102 8.48 8.48 0 0 1-.697-6.499c1.062-3.61 4.431-6.131 8.191-6.131.813 0 1.624.116 2.41.348a8.486 8.486 0 0 1 5.087 4.103 8.477 8.477 0 0 1 .696 6.498c-1.061 3.61-4.428 6.132-8.189 6.132zm-.004-13.33a4.817 4.817 0 0 0-4.593 3.438 4.756 4.756 0 0 0 .392 3.643 4.764 4.764 0 0 0 2.852 2.301c.443.13.898.195 1.354.195a4.813 4.813 0 0 0 4.59-3.438 4.751 4.751 0 0 0-.391-3.643 4.76 4.76 0 0 0-2.85-2.301 4.898 4.898 0 0 0-1.354-.195zM203.22 159.96h-65.25v-17.581h65.25v17.581zm-61.498-3.753h57.747v-10.076h-57.747v10.076z"/><path fill="#62C08D" d="M194.97 139.218h-47.967a1.876 1.876 0 0 1 0-3.752h47.967a1.877 1.877 0 1 1 0 3.752zM137.851 97.74h60.291l5.109 1.95-3.843 13.759h-57.763z"/><path fill="#EFF4EE" d="M191.242 130.455H149.81a8.165 8.165 0 0 1-8.165-8.166v-8.839h57.763v8.839a8.165 8.165 0 0 1-8.166 8.166"/><path fill="#484748" fill-rule="nonzero" d="M191.242 132.331H149.81c-5.536 0-10.041-4.505-10.041-10.042v-10.715h61.515v10.715c0 5.537-4.504 10.042-10.042 10.042zm-47.721-17.005v6.963a6.296 6.296 0 0 0 6.289 6.29h41.432a6.296 6.296 0 0 0 6.291-6.29v-6.963h-54.012z"/><path fill="#48BA78" d="M159.937 97.74c-9.068-3.982-15.401-13.042-15.401-23.581a25.626 25.626 0 0 1 5.879-16.375c4.721-5.722 34.424-6.013 39.141-.688a25.644 25.644 0 0 1 6.466 17.063c0 10.539-6.332 19.598-15.399 23.581"/><path fill="#484748" d="M158.308 99.615c-.275 0-.555-.061-.819-.189-10-4.864-16.213-14.792-16.213-25.907 0-5.52 1.566-10.882 4.529-15.51a1.875 1.875 0 1 1 3.159 2.025 24.956 24.956 0 0 0-3.936 13.485c0 9.667 5.403 18.302 14.102 22.533a1.877 1.877 0 0 1-.822 3.563zM182.116 99.479a1.875 1.875 0 0 1-.842-3.554c8.538-4.277 13.843-12.863 13.843-22.407a24.858 24.858 0 0 0-4.84-14.803 1.876 1.876 0 0 1 3.025-2.219c3.642 4.963 5.566 10.849 5.566 17.021 0 10.973-6.098 20.844-15.914 25.761a1.852 1.852 0 0 1-.838.201z"/><path fill="#484748" fill-rule="nonzero" d="M200.867 115.325h-60.681l-9.874-38.871v-.234c0-22.174 18.04-40.215 40.214-40.215s40.215 18.041 40.215 40.215v.234l-9.874 38.871zm-57.763-3.751h54.845l9.04-35.586c-.125-19.999-16.434-36.23-36.463-36.23-20.028 0-36.336 16.231-36.461 36.23l9.039 35.586z"/><path fill="#484748" d="M132.188 77.54a1.876 1.876 0 0 1-1.876-1.874V39.178a1.876 1.876 0 0 1 3.751 0v36.488a1.874 1.874 0 0 1-1.875 1.874zM208.866 77.54a1.876 1.876 0 0 1-1.877-1.874v-46.79a1.877 1.877 0 1 1 3.752 0v46.79c0 1.034-.84 1.874-1.875 1.874z"/><path fill="#484748" d="M135.174 93.929h-3.957c-4.245 0-7.698-3.453-7.698-7.698V71.446c0-4.244 3.453-7.698 7.698-7.698h1.677a1.876 1.876 0 0 1 0 3.753h-1.677a3.95 3.95 0 0 0-3.947 3.945V86.23a3.95 3.95 0 0 0 3.947 3.946h3.957a1.876 1.876 0 0 1 0 3.753zM209.974 93.929h-3.958a1.875 1.875 0 0 1 0-3.752h3.958a3.95 3.95 0 0 0 3.946-3.946V71.446a3.95 3.95 0 0 0-3.946-3.945h-1.677a1.876 1.876 0 1 1 0-3.753h1.677c4.244 0 7.698 3.454 7.698 7.698V86.23c0 4.246-3.454 7.699-7.698 7.699z"/><path fill="#484748" d="M132.6 71.683a1.876 1.876 0 0 1-1.342-3.186c10.649-10.907 24.81-16.913 39.876-16.913 14.188 0 27.747 5.414 38.176 15.243a1.876 1.876 0 0 1-2.573 2.731c-9.73-9.172-22.375-14.224-35.603-14.224-14.046 0-27.255 5.605-37.192 15.783a1.866 1.866 0 0 1-1.342.566zM203.251 99.613h-65.4a1.875 1.875 0 0 1 0-3.751h65.4a1.876 1.876 0 0 1 0 3.751z"/><path fill="#FFF" d="M183.983 65.625a6.717 6.717 0 1 1-13.434-.002 6.717 6.717 0 0 1 13.434.002M188.781 75.666a2.716 2.716 0 1 1-5.431-.003 2.716 2.716 0 0 1 5.431.003"/><path fill="#484748" d="M193.718 109.971c-2.664 0-3.994-2.011-4.874-3.342-.837-1.266-1.187-1.66-1.742-1.66-.557 0-.907.395-1.743 1.66-.881 1.331-2.211 3.342-4.873 3.342-2.663 0-3.994-2.011-4.874-3.342-.837-1.266-1.187-1.66-1.744-1.66-.558 0-.908.395-1.746 1.66-.881 1.331-2.211 3.342-4.875 3.342-2.663 0-3.993-2.011-4.873-3.342-.837-1.266-1.188-1.66-1.745-1.66-.558 0-.909.395-1.747 1.66-.881 1.331-2.212 3.342-4.875 3.342-2.664 0-3.995-2.011-4.875-3.342-.839-1.266-1.189-1.66-1.747-1.66a1.876 1.876 0 0 1 0-3.751c2.663 0 3.994 2.011 4.875 3.341.839 1.267 1.189 1.661 1.748 1.661.558 0 .909-.395 1.747-1.661.88-1.33 2.212-3.341 4.875-3.341s3.993 2.012 4.874 3.342c.837 1.266 1.188 1.66 1.744 1.66.558 0 .908-.395 1.746-1.66.881-1.331 2.212-3.342 4.875-3.342 2.664 0 3.994 2.012 4.874 3.342.837 1.266 1.187 1.66 1.744 1.66.557 0 .906-.395 1.743-1.66.881-1.33 2.21-3.342 4.873-3.342 2.661 0 3.991 2.012 4.872 3.342.837 1.266 1.187 1.66 1.744 1.66a1.876 1.876 0 0 1-.001 3.751z"/><path fill="#484748" fill-rule="nonzero" d="M244.839 309.956H102.307c-6.379 0-11.569-5.189-11.569-11.569v-92.083c0-6.379 5.19-11.568 11.569-11.568h142.532c6.38 0 11.569 5.189 11.569 11.568v92.083c0 6.38-5.189 11.569-11.569 11.569zM102.307 199.362a6.949 6.949 0 0 0-6.941 6.941v92.083a6.949 6.949 0 0 0 6.941 6.941h142.532a6.948 6.948 0 0 0 6.941-6.941v-92.083a6.949 6.949 0 0 0-6.941-6.941H102.307z"/><path fill="#484748" fill-rule="nonzero" d="M312.007 207.075h-57.434a2.315 2.315 0 0 1-2.307-2.133c-.17-2.164-1.38-4.718-4.266-5.396a2.315 2.315 0 0 1-.427-4.359 4.818 4.818 0 0 1 2.003-.452h62.431c2.977 0 5.399 2.768 5.399 6.17s-2.423 6.17-5.399 6.17zm-55.489-4.627h55.489c.266 0 .771-.602.771-1.543s-.506-1.543-.771-1.543h-56.843a10.867 10.867 0 0 1 1.354 3.086zM92.821 207.075H34.775c-2.977 0-5.399-2.768-5.399-6.17s2.422-6.17 5.399-6.17h62.431c.48 0 .964.082 1.479.254a2.312 2.312 0 0 1 .066 4.369c-2.546.93-3.539 3.448-3.619 5.493a2.313 2.313 0 0 1-2.311 2.224zm-.819-7.716l-57.227.003c-.265 0-.771.602-.771 1.543s.506 1.543.771 1.543h56.024a10.964 10.964 0 0 1 1.203-3.089z"/><path fill="#48BA78" d="M228.733 110.76a.604.604 0 0 1 0 .854l-6.741 6.741a.605.605 0 0 1-.855.002l-6.741-6.742a.604.604 0 0 1 0-.854l6.742-6.742a.604.604 0 0 1 .854.001l6.741 6.74zM246.947 75.238a.605.605 0 0 1 0 .854l-6.742 6.741a.605.605 0 0 1-.854.002l-6.741-6.742a.603.603 0 0 1 0-.854l6.741-6.742a.603.603 0 0 1 .854.001l6.742 6.74zM115.596 84.959a.605.605 0 0 1 0 .854l-6.742 6.741a.607.607 0 0 1-.855.002l-6.741-6.742a.606.606 0 0 1 0-.855L108 78.218a.604.604 0 0 1 .854 0l6.742 6.741zM153.866 26.593a.39.39 0 0 1 0 .55l-4.334 4.333a.388.388 0 0 1-.549.001l-4.333-4.333a.39.39 0 0 1 0-.551l4.333-4.333a.388.388 0 0 1 .549.001l4.334 4.332zM128.127 127.648a.39.39 0 0 1 0 .55l-4.334 4.333a.39.39 0 0 1-.549 0l-4.333-4.333a.39.39 0 0 1 0-.55l4.334-4.333a.387.387 0 0 1 .549 0l4.333 4.333zM185.955 13.409a.311.311 0 0 1 0 .441l-3.482 3.482a.314.314 0 0 1-.442 0l-3.48-3.482a.31.31 0 0 1 0-.441l3.481-3.482a.311.311 0 0 1 .441 0l3.482 3.482z"/></g></svg>
