<svg xmlns="http://www.w3.org/2000/svg" width="206" height="44"><g fill="none" fill-rule="nonzero"><path fill="#FFF" d="M72.573 25.601l-1.23 3.5h-.102c-.205-.789-.58-1.99-1.195-3.431L63.455 9.025H57v26.529h4.269v-16.37c0-1.03 0-2.197-.034-3.638-.034-.721-.103-1.27-.137-1.682h.103c.204 1.03.444 1.785.614 2.265l7.923 19.356h3.006l7.854-19.528c.171-.446.342-1.338.512-2.093h.103a248.77 248.77 0 0 0-.205 4.77v16.817h4.542V8.956h-6.215l-6.762 16.645zm17.28-9.163h4.44V35.45h-4.44V16.438zm2.254-8.03c-.751 0-1.366.274-1.878.754-.513.48-.786 1.098-.786 1.853 0 .721.273 1.339.786 1.82.512.48 1.127.72 1.878.72.751 0 1.4-.275 1.878-.72a2.42 2.42 0 0 0 .786-1.82c0-.72-.273-1.338-.786-1.853-.444-.48-1.092-.755-1.878-.755zm17.93 7.858a12.325 12.325 0 0 0-2.494-.274c-2.015 0-3.859.446-5.396 1.338-1.536.892-2.766 2.128-3.551 3.672-.82 1.58-1.23 3.398-1.23 5.491 0 1.82.41 3.432 1.196 4.908.785 1.442 1.878 2.608 3.346 3.398 1.4.79 3.04 1.201 4.884 1.201 2.117 0 3.927-.446 5.362-1.27l.034-.034v-4.118l-.171.137c-.649.48-1.4.892-2.152 1.132-.785.275-1.502.412-2.117.412-1.776 0-3.176-.515-4.166-1.647-1.025-1.098-1.537-2.608-1.537-4.496 0-1.956.512-3.5 1.57-4.633 1.06-1.133 2.46-1.716 4.167-1.716 1.435 0 2.903.48 4.235 1.441l.17.138v-4.359l-.033-.034c-.581-.24-1.23-.515-2.118-.687zm14.65-.137a4.67 4.67 0 0 0-3.005 1.064c-.752.618-1.264 1.51-1.708 2.574h-.034v-3.33h-4.44v19.014h4.44v-9.713c0-1.647.341-3.02 1.093-4.015.751-1.03 1.707-1.544 2.868-1.544.41 0 .82.103 1.332.171.478.138.82.275 1.059.446l.17.138v-4.462l-.102-.034c-.307-.206-.922-.309-1.673-.309zm12.09-.103c-3.108 0-5.601.927-7.343 2.746-1.776 1.819-2.63 4.324-2.63 7.481 0 2.952.888 5.354 2.596 7.104 1.707 1.716 4.03 2.609 6.932 2.609 3.04 0 5.464-.927 7.206-2.78 1.776-1.853 2.63-4.324 2.63-7.379 0-3.02-.82-5.422-2.493-7.173-1.605-1.75-3.962-2.608-6.899-2.608zm3.551 14.62c-.82 1.064-2.117 1.579-3.722 1.579-1.606 0-2.903-.515-3.825-1.647-.922-1.064-1.366-2.609-1.366-4.565 0-2.025.478-3.57 1.366-4.667.922-1.099 2.185-1.648 3.79-1.648 1.571 0 2.8.515 3.689 1.579.888 1.064 1.366 2.608 1.366 4.633-.069 2.06-.444 3.672-1.298 4.736zm15.744-6.315c-1.4-.583-2.289-1.03-2.698-1.407-.342-.343-.513-.823-.513-1.441 0-.515.205-1.03.718-1.373.512-.343 1.092-.515 1.946-.515.751 0 1.537.138 2.288.343.752.206 1.435.515 1.98.927l.172.137v-4.187l-.103-.034a12.276 12.276 0 0 0-2.015-.583c-.82-.138-1.57-.206-2.185-.206-2.118 0-3.86.515-5.225 1.647-1.366 1.064-2.015 2.505-2.015 4.187 0 .892.136 1.682.444 2.334.307.652.751 1.27 1.366 1.784.614.48 1.502 1.03 2.732 1.545 1.024.446 1.81.79 2.288 1.064.478.274.785.583 1.024.823.171.275.274.618.274 1.064 0 1.27-.957 1.888-2.903 1.888-.752 0-1.537-.137-2.46-.446a9.483 9.483 0 0 1-2.492-1.27l-.17-.137v4.358l.102.034c.648.31 1.434.515 2.39.755.956.172 1.81.31 2.562.31 2.288 0 4.166-.515 5.498-1.648 1.366-1.098 2.083-2.505 2.083-4.324 0-1.27-.342-2.403-1.093-3.26-.99-.824-2.22-1.682-3.995-2.369zm16.802-8.305c-3.108 0-5.601.927-7.343 2.746-1.741 1.819-2.63 4.324-2.63 7.481 0 2.952.889 5.354 2.596 7.104 1.708 1.716 4.03 2.609 6.933 2.609 3.04 0 5.464-.927 7.206-2.78 1.775-1.853 2.63-4.324 2.63-7.379 0-3.02-.82-5.422-2.494-7.173-1.605-1.75-3.961-2.608-6.898-2.608zm3.517 14.62c-.82 1.064-2.117 1.579-3.722 1.579-1.64 0-2.903-.515-3.825-1.647-.922-1.064-1.366-2.609-1.366-4.565 0-2.025.478-3.57 1.366-4.667.922-1.099 2.186-1.648 3.79-1.648 1.537 0 2.801.515 3.689 1.579.888 1.064 1.366 2.608 1.366 4.633 0 2.06-.444 3.672-1.298 4.736zM206 20.11v-3.672h-4.474v-5.629l-.136.035-4.235 1.27-.103.034v4.29h-6.693v-2.402c0-1.099.273-1.957.751-2.506.478-.549 1.196-.823 2.083-.823.615 0 1.264.137 1.981.446l.17.103V7.378l-.102-.035c-.614-.206-1.434-.343-2.493-.343a7.966 7.966 0 0 0-3.551.824 5.938 5.938 0 0 0-2.425 2.436c-.58 1.03-.888 2.197-.888 3.535v2.643h-3.108v3.638h3.108V35.45h4.474V20.11h6.693v9.78c0 4.016 1.879 6.04 5.635 6.04.615 0 1.264-.103 1.879-.206.649-.137 1.127-.308 1.4-.446l.034-.034v-3.672l-.17.137a2.88 2.88 0 0 1-.923.412 3.112 3.112 0 0 1-.888.137c-.888 0-1.502-.206-1.946-.72-.41-.481-.615-1.27-.615-2.437V20.11H206z"/><path fill="#F25022" d="M0 0h21v21H0z"/><path fill="#7FBA00" d="M23 0h21v21H23z"/><path fill="#00A4EF" d="M0 23h21v21H0z"/><path fill="#FFB900" d="M23 23h21v21H23z"/></g></svg>
