<svg viewBox="0 0 110.9 128" xmlns="http://www.w3.org/2000/svg"><path d="m55.4 0-55.4 32v64l55.4 32 55.5-32v-64z" fill="#766a68"/><path d="m9.4 90.6v-53.2l46-26.6 46 26.6v53.1l-46 26.6zm-9.4-58.6v64l55.4 32 55.4-32v-64l-55.4-32z" fill="#df9079" opacity=".38"/><path d="m11.8 89.2v-50.4l43.7-25.2 43.7 25.2v50.4l-43.7 25.2zm43.6-78.3-46 26.6v53.1l46 26.6 46-26.6v-53.2z" fill="#df9079" opacity=".13"/><g fill="#e6d9a5"><path d="m45.6 89.5c-.8 0-1.4-.6-1.5-1.4 0-.8.6-1.5 1.4-1.6 4.8-.3 9.4-3 11.7-6.8 1.3-2.1 2.4-5.6.5-9.7-.8-1.6-1.9-3.2-3-4.9-3.6-5.3-7.6-11.3-3.2-18.7 3.2-5.3 9.9-7.2 13.6-7.8.8-.1 1.6.4 1.7 1.2s-.4 1.6-1.2 1.7c-3.2.6-8.9 2.2-11.5 6.4-3.4 5.7-.2 10.4 3.1 15.4 1.1 1.7 2.3 3.5 3.2 5.3 1.9 4.2 1.7 8.7-.6 12.6-2.8 4.7-8.4 8-14.2 8.3z"/><path d="m79.4 75.3c-.7 0-1.4-.5-1.5-1.3-.7-5.4-2.8-8.9-6.3-10.6-5.2-2.6-13.6-.9-23 4.6-3.7 2.2-7.6 2.3-11.1.4-4.5-2.5-7.6-8.2-7.7-14.1 0-.8.7-1.5 1.5-1.5s1.5.7 1.5 1.5c.1 4.8 2.6 9.5 6.1 11.5 2.5 1.4 5.4 1.3 8.1-.4 10.5-6.1 19.6-7.8 25.8-4.7 4.4 2.2 7.1 6.5 7.9 12.9.1.8-.5 1.6-1.3 1.7z"/><path d="m41.9 80c-4 0-8.1-1.7-11.3-4.6-.5-.4-.7-1-.5-1.6.3-.8 1-1.2 1.8-1h.1c.2.1.4.2.5.3 3 2.8 7 4.2 10.6 3.8 3.1-.4 5.8-2.1 7.7-4.9 1.5-2.3 2.3-4.9 3.1-7.7.9-3.1 1.8-6.3 3.9-9.1 2.8-3.8 6.3-6 10.2-6.4 4.1-.5 8.4 1 12.2 4.2.6.5.7 1.5.2 2.1s-1.5.7-2.1.2c-3.1-2.7-6.7-3.9-9.9-3.5-3.1.4-5.9 2.2-8.2 5.2-1.8 2.4-2.6 5.2-3.4 8.2-.8 2.9-1.7 5.9-3.5 8.5-2.4 3.6-5.8 5.8-9.8 6.3-.5-.1-1 0-1.6 0z"/><path d="m65.4 89.5c-.4 0-.8-.1-1.1-.4s-.4-.7-.4-1.1.2-.8.5-1.1c3.8-3.7 5.1-10 2.9-14.3-2.4-4.8-7.1-5.9-12-6.9-4.8-1-9.7-2.1-12.9-6.6-4.9-6-2.8-14.5 1.9-19.9.5-.6 1.5-.7 2.1-.1.6.5.7 1.5.1 2.1-3.8 4.3-5.7 11.4-1.8 16.1l.1.1c2.5 3.6 6.7 4.5 11.1 5.5 5.2 1.1 11 2.4 14.1 8.5 2.8 5.5 1.3 13.1-3.5 17.7-.4.2-.7.4-1.1.4z"/><path d="m43.1 85c-2.1 0-4.3-.4-6.3-1.1-.8-.3-1.2-1.2-.9-1.9.3-.8 1.2-1.2 1.9-.9 5.5 2.1 11.8.7 14.9-3.2 2.8-4.4 2.1-8.7 1.4-13.3s-1.5-9.4 1.3-14.5c3.8-6.7 12.4-9.3 19.1-5.9.7.4 1 1.3.6 2s-1.3 1-2 .6c-5.3-2.7-12-.6-15.1 4.7-2.3 4.1-1.6 8.2-.9 12.6.8 4.9 1.6 10-1.9 15.4l-.1.1c-2.7 3.6-7.3 5.4-12 5.4z"/><path d="m73.8 83.8c-.2 0-.4 0-.6-.1-.8-.3-1.1-1.2-.8-2 1.5-3.4 1.4-7.5-.4-10.9-1.7-3.2-4.5-5.4-8.1-6.1-3.2-.7-6-.3-8.9.1-4.1.6-8.3 1.2-13.8-.8h-.1c-7.6-3.5-6.8-9.4-6.1-14.6.2-1.2.3-2.5.4-3.6 0-.8.7-1.5 1.6-1.4.8 0 1.5.7 1.4 1.6-.1 1.3-.2 2.6-.4 3.9-.6 5-1.2 8.9 4.4 11.5 4.8 1.7 8.4 1.2 12.3.6 3.1-.5 6.3-.9 10-.1 4.3.9 8 3.7 10.1 7.7 2.2 4.2 2.3 9.1.4 13.5-.3.4-.8.7-1.4.7z"/><path d="m41.7 74.7c-6.3 0-11.9-3.8-13.7-10-.2-.8.2-1.6 1-1.9.8-.2 1.6.2 1.9 1 1.7 5.8 7.7 9 13.9 7.4 4.3-1.6 6.9-4.5 9.6-7.6 2.9-3.2 5.8-6.6 10.9-8.5h.1c7.4-1.9 14.5 1.5 17.2 8.2.3.8-.1 1.6-.8 2-.8.3-1.6-.1-2-.8-2.2-5.3-7.6-7.9-13.7-6.4-4.3 1.6-6.9 4.5-9.6 7.6-2.9 3.2-5.8 6.6-10.9 8.5h-.1c-1.2.4-2.5.5-3.8.5z"/><path d="m55.5 91.4c-.4 0-.9-.2-1.2-.6-.5-.6-.4-1.6.2-2.1 4.7-3.8 11.9-11.3 7.7-18.8-1.6-2.8-4.4-3.9-7.4-5-2.9-1.1-5.9-2.3-8.2-5-2.3-3.1-3-7-1.9-11.1 1.3-5.2 5.3-10 10-12.2.8-.3 1.6 0 2 .7.3.8 0 1.6-.7 2-3.9 1.8-7.2 5.8-8.3 10.2-.6 2.3-.8 5.5 1.4 8.5 1.7 2 4.2 3 6.9 4 3.4 1.3 6.9 2.6 9 6.3 3.8 6.9.7 15.1-8.4 22.6-.4.3-.7.5-1.1.5z"/></g><path d="m43.4 39c.1.3.2.5.3.8.1.2.1.3.1.4.1.8.7 1.4 1.5 1.4h.1c.8-.1 1.4-.8 1.4-1.6 0-.5-.2-.9-.3-1.3-.1-.3-.2-.6-.3-.8l-6.3-15.3-2.6 1.5zm-8.6 6.5.6.6.1.1c.2.7.8 1.1 1.5 1.1h.3c.8-.2 1.3-.9 1.2-1.8-.2-.8-.6-1.3-.8-1.5s-.4-.4-.6-.7l-12.3-12-2.7 1.6zm-7.1 20h.8c.3.2.6.3.9.3.4 0 .8-.1 1.1-.4.6-.6.6-1.5 0-2.1-.7-.7-1.5-.7-1.9-.7h-16.9v3h16zm1.6-10.7c.3.1.5.2.8.3.3.5.8.7 1.3.7.2 0 .4 0 .6-.1.7-.4 1.1-1.3.7-2-.4-.9-1.1-1.2-1.4-1.3s-.6-.2-.8-.4l-18.7-7.7v3.2zm44.6-11.4-.6.6-.6.6c-.6.6-.6 1.5-.1 2.1.3.3.7.5 1.1.5s.7-.1 1-.4l.6-.6.6-.6 12.7-12.7-2.6-1.6zm-9.3-5.5c-.1.3-.2.5-.3.8s-.2.5-.3.8c-.3.8 0 1.6.8 2 .2.1.4.1.6.1.6 0 1.1-.3 1.4-.9.1-.3.2-.5.4-.8.1-.3.2-.5.3-.8l6.2-14.9-2.7-1.6zm-10.7.1c0 .8.6 1.5 1.5 1.5.8 0 1.5-.6 1.5-1.5v-23.6l-1.5-.9-1.5.9zm24.9 14.7c-.8.3-1.2 1.2-.9 1.9.2.6.8 1 1.4 1 .2 0 .4 0 .5-.1.3-.1.6-.2.8-.3.3-.1.5-.2.8-.3l17.5-7.3v-3.2l-18.5 7.6-.8.3c-.2.2-.5.3-.8.4zm-2.7 29.8-.6-.6-.6-.6c-.6-.6-1.5-.6-2.1-.1-.6.6-.6 1.5-.1 2.1l.6.6.6.6 12.1 12.2 2.7-1.6zm5.5-9.3-.8-.3c-.2-.1-.3-.1-.5-.2-.3-.2-.7-.4-1.1-.3-.8.1-1.4.9-1.3 1.7.1.5.4 1 .9 1.2.3.1.5.2.8.4l19.5 8.1v-3.2zm1.5-10.7h-1.8c-.8 0-1.5.6-1.5 1.5 0 .8.6 1.5 1.5 1.5h17.8v-3zm-52.7 13.5c.3-.1.5-.2.8-.3.8.1 1.5-.3 1.7-1.1s-.2-1.6-1-1.9c-.8-.2-1.5 0-1.8.1l-.9.3-17.5 7.3v3.2zm37 13c-.1-.3-.2-.5-.3-.8s-.2-.5-.3-.8c-.3-.8-1.2-1.2-1.9-.9-.8.3-1.2 1.2-.9 1.9.1.3.2.6.3.8.1.3.2.6.3.8l6.3 15.3 2.6-1.5zm-30.5-4.4.6-.6.1-.1c.8-.2 1.3-1 1.1-1.8s-1-1.3-1.8-1.2c-.8.2-1.3.6-1.5.8s-.4.4-.7.6l-12.6 12.9 2.7 1.6zm20 29v-23.1c.2-.5.1-1-.3-1.5-.5-.6-1.5-.7-2.2-.2-.3.3-.5.7-.5 1.1v23.7l1.5.9zm-10.7-23.4c.1-.3.2-.5.3-.8.1-.2.1-.3.2-.4.5-.6.4-1.6-.2-2.1s-1.6-.4-2.1.2c-.3.4-.5.8-.7 1.1-.1.3-.2.6-.4.8l-6.2 14.9 2.6 1.5z" fill="#df9079"/></svg>