<?xml version="1.0" encoding="utf-8"?>
<!-- Generator: Adobe Illustrator 22.1.0, SVG Export Plug-In . SVG Version: 6.00 Build 0)  -->
<svg version="1.1" id="Layer_1" xmlns="http://www.w3.org/2000/svg" xmlns:xlink="http://www.w3.org/1999/xlink" x="0px" y="0px"
	 viewBox="0 0 110.9 128" style="enable-background:new 0 0 110.9 128;" xml:space="preserve">
<style type="text/css">
	.st0{fill:#766A68;}
	.st1{opacity:0.38;fill:#DF9079;}
	.st2{opacity:0.13;}
	.st3{fill:#DF9079;}
	.st4{fill:#E6D9A5;}
	.st5{fill:none;stroke:#DF9079;stroke-width:3;stroke-miterlimit:10;}
</style>
<g>
	<polygon class="st0" points="55.4,128 110.9,96 110.9,32 55.4,0 55.4,0 0,32 0,96 	"/>
	<path class="st1" d="M101.4,37.4l0,53.1l-46,26.6l-46-26.6l0-53.1l46-26.6L101.4,37.4z M110.9,96l0-64L55.4,0l0,0L0,32l0,64
		l55.4,32L110.9,96z"/>
	<g class="st2">
		<path class="st3" d="M99.1,38.8l0,50.4l-43.7,25.2L11.8,89.2l0-50.4l43.7-25.2L99.1,38.8z M55.4,117.1l46-26.6l0-53.1l-46-26.6
			l-46,26.6l0,53.1L55.4,117.1z"/>
	</g>
	<path class="st4" d="M36.6,89.3l1.4,0.2c0.3,0,0.5,0,0.5,0h0.5c8.9-2.5,10.2-11.2,11-13.8c1.3-4.4,3.1-17.1-2.2-22.4
		c-3-3-5.2-2-6.5-0.5c0,0,0.1,0,0.1,0s3,3.6,3,11.3s-4.2,11.5-4.2,11.5s0,0,0,0c-0.5,0.7-2.1,2.2-4.9,0.8c-3.5-1.6-6.1-9-4.7-20
		c0.8-6.4,2.7-13.6,12.1-17.8l-4.8,0H37c0,0-14.1,1.2-14.1,26.6C22.9,84.9,32.4,88.6,36.6,89.3z"/>
	<path class="st3" d="M30.7,56.3c-1.4,11,1.2,18.4,4.7,20c2.8,1.3,4.4-0.2,4.9-0.8c-0.1-0.1-3.3-3.1-3.3-11.4c0-7.8,3.8-11,4.4-11.4
		c1.3-1.4,3.5-2.5,6.5,0.5c5.3,5.3,3.5,17.9,2.2,22.4c-0.8,2.7-2.1,11.4-11,13.8l6.2-0.2C49.5,88.6,59,84.9,59,65.1
		C59,39.7,45,38.5,45,38.5h-1.1h-1C33.4,42.7,31.6,49.9,30.7,56.3z"/>
	<g>
		<path class="st4" d="M74.2,38.7l-1.4-0.2c-0.3,0-0.5,0-0.5,0h-0.5c-8.9,2.5-10.2,11.2-11,13.8c-1.3,4.4-3.1,17.1,2.2,22.4
			c3,3,5.2,2,6.5,0.5c0,0-0.1,0-0.1,0s-3-3.6-3-11.3c0-7.7,4.2-11.5,4.2-11.5s0,0,0,0c0.5-0.7,2.1-2.2,4.9-0.8c3.5,1.6,6.1,9,4.7,20
			c-0.8,6.4-2.7,13.6-12.1,17.8h4.8h1.1c0,0,14.1-1.2,14.1-26.6C87.9,43.1,78.4,39.4,74.2,38.7z"/>
		<path class="st3" d="M80.1,71.7c1.4-11-1.2-18.4-4.7-20c-2.8-1.3-4.4,0.2-4.9,0.8c0.1,0.1,3.3,3.1,3.3,11.4c0,7.8-3.8,11-4.4,11.4
			c-1.3,1.4-3.5,2.5-6.5-0.5c-5.3-5.3-3.5-17.9-2.2-22.4c0.8-2.7,2.1-11.4,11-13.8l-6.2,0.2c-4.2,0.7-13.7,4.5-13.7,24.3
			c0,25.4,14.1,26.6,14.1,26.6H67h1C77.4,85.3,79.3,78.1,80.1,71.7z"/>
	</g>
</g>
</svg>
