<svg id="Layer_1" xmlns="http://www.w3.org/2000/svg" viewBox="0 0 110.9 128"><style>.st3{fill:#df9079}.st4{fill:#e6d9a5}</style><path fill="#766a68" d="M55.4 128l55.5-32V32L55.4 0 0 32v64z"/><path d="M101.4 37.4v53.1l-46 26.6-46-26.6V37.4l46-26.6 46 26.6zm9.5 58.6V32L55.4 0 0 32v64l55.4 32 55.5-32z" opacity=".38" fill="#df9079"/><path class="st3" d="M99.1 38.8v50.4l-43.7 25.2-43.6-25.2V38.8l43.7-25.2 43.6 25.2zm-43.7 78.3l46-26.6V37.4l-46-26.6-46 26.6v53.1l46 26.6z" opacity=".13"/><path class="st4" d="M36.6 89.3l1.4.2h1c8.9-2.5 10.2-11.2 11-13.8 1.3-4.4 3.1-17.1-2.2-22.4-3-3-5.2-2-6.5-.5h.1s3 3.6 3 11.3-4.2 11.5-4.2 11.5c-.5.7-2.1 2.2-4.9.8-3.5-1.6-6.1-9-4.7-20 .8-6.4 2.7-13.6 12.1-17.8H37s-14.1 1.2-14.1 26.6c0 19.7 9.5 23.4 13.7 24.1z"/><path class="st3" d="M30.7 56.3c-1.4 11 1.2 18.4 4.7 20 2.8 1.3 4.4-.2 4.9-.8-.1-.1-3.3-3.1-3.3-11.4 0-7.8 3.8-11 4.4-11.4 1.3-1.4 3.5-2.5 6.5.5 5.3 5.3 3.5 17.9 2.2 22.4-.8 2.7-2.1 11.4-11 13.8l6.2-.2c4.2-.6 13.7-4.3 13.7-24.1 0-25.4-14-26.6-14-26.6h-2.1c-9.5 4.2-11.3 11.4-12.2 17.8z"/><path class="st4" d="M74.2 38.7l-1.4-.2h-1c-8.9 2.5-10.2 11.2-11 13.8-1.3 4.4-3.1 17.1 2.2 22.4 3 3 5.2 2 6.5.5h-.1s-3-3.6-3-11.3c0-7.7 4.2-11.5 4.2-11.5.5-.7 2.1-2.2 4.9-.8 3.5 1.6 6.1 9 4.7 20-.8 6.4-2.7 13.6-12.1 17.8H74s14.1-1.2 14.1-26.6c-.2-19.7-9.7-23.4-13.9-24.1z"/><path class="st3" d="M80.1 71.7c1.4-11-1.2-18.4-4.7-20-2.8-1.3-4.4.2-4.9.8.1.1 3.3 3.1 3.3 11.4 0 7.8-3.8 11-4.4 11.4-1.3 1.4-3.5 2.5-6.5-.5-5.3-5.3-3.5-17.9-2.2-22.4.8-2.7 2.1-11.4 11-13.8l-6.2.2c-4.2.7-13.7 4.5-13.7 24.3 0 25.4 14.1 26.6 14.1 26.6H68c9.4-4.4 11.3-11.6 12.1-18z"/></svg>