<svg id="ey201l4ys95f1" xmlns="http://www.w3.org/2000/svg" xmlns:xlink="http://www.w3.org/1999/xlink" viewBox="0 0 32 32" shape-rendering="geometricPrecision" text-rendering="geometricPrecision" width="32" height="32"><style><![CDATA[#ey201l4ys95f1{pointer-events: all}#ey201l4ys95f1:hover #ey201l4ys95f4 {animation: ey201l4ys95f4_s_p 500ms linear infinite normal forwards}@keyframes ey201l4ys95f4_s_p { 0% {stroke: rgb(250,114,175)} 30% {stroke: rgb(151,96,255)} 58% {stroke: rgb(122,255,247)} 98% {stroke: rgb(250,114,175)} 100% {stroke: rgb(250,114,175)} }#ey201l4ys95f1:hover #ey201l4ys95f5 {animation: ey201l4ys95f5_s_p 500ms linear infinite normal forwards}@keyframes ey201l4ys95f5_s_p { 0% {stroke: rgb(250,114,175)} 44% {stroke: rgb(151,96,255)} 76% {stroke: rgb(122,255,247)} 98% {stroke: rgb(250,114,175)} 100% {stroke: rgb(250,114,175)} }#ey201l4ys95f1:hover #ey201l4ys95f6 {animation: ey201l4ys95f6_s_p 500ms linear infinite normal forwards}@keyframes ey201l4ys95f6_s_p { 0% {stroke: rgb(250,114,175)} 20% {stroke: rgb(151,96,255)} 66% {stroke: rgb(122,255,247)} 98% {stroke: rgb(250,114,175)} 100% {stroke: rgb(250,114,175)} }]]></style><path id="ey201l4ys95f2" d="M13.350000,24.590000L8.350000,20.300000C8.127862,20.109997,7.999981,19.832312,8,19.540000L8,12.460000C7.999981,12.167688,8.127862,11.890003,8.350000,11.700000L13.350000,7.410000C13.646643,7.156271,14.063810,7.098345,14.418360,7.261653C14.772910,7.424961,15.000026,7.779647,15,8.170000L15,23.830000C15.000026,24.220353,14.772910,24.575039,14.418360,24.738347C14.063810,24.901655,13.646643,24.843729,13.350000,24.590000Z" fill="none" stroke="rgb(151,96,255)" stroke-width="2" stroke-linecap="round" stroke-linejoin="round"/><rect id="ey201l4ys95f3" width="4" height="8" rx="0" ry="0" transform="matrix(1 0 0 1 4 12)" fill="none" stroke="rgb(151,96,255)" stroke-width="2" stroke-linecap="round" stroke-linejoin="round"/><line id="ey201l4ys95f4" x1="28" y1="8" x2="28" y2="24" fill="none" stroke="rgb(250,114,175)" stroke-width="2" stroke-linecap="round" stroke-linejoin="round"/><line id="ey201l4ys95f5" x1="24" y1="10" x2="24" y2="22" fill="none" stroke="rgb(250,114,175)" stroke-width="2" stroke-linecap="round" stroke-linejoin="round"/><line id="ey201l4ys95f6" x1="20" y1="12" x2="20" y2="20" fill="none" stroke="rgb(250,114,175)" stroke-width="2" stroke-linecap="round" stroke-linejoin="round"/></svg>