<svg xmlns="http://www.w3.org/2000/svg" width="64" height="64" viewBox="0 0 64 64"><path d="M14.55,40.17c3.53,2.67,8.86,5.46,17.45,5.46s13.92-2.79,17.45-5.46" fill="none" stroke-miterlimit="10"/><path d="M48,22.18c-4.31-2.2-8.57-4.26-16-4.26S20.33,20,16,22.18" fill="none" stroke-miterlimit="10"/><path d="M27.32,18.23l-1.87-3.68a22.75,22.75,0,0,0-10.9,4.36S9,27,8,42.91c5.63,6.49,14.18,6.54,14.18,6.54L25.5,45" fill="none" stroke-miterlimit="10"/><path d="M38.5,45l3.32,4.42S50.37,49.4,56,42.91c-1-15.9-6.55-24-6.55-24s-5-3.92-10.9-4.36l-1.82,3.69" fill="none" stroke-miterlimit="10"/><ellipse cx="24.91" cy="34.18" rx="3.82" ry="4.36" fill="none" stroke-miterlimit="10"/><ellipse cx="39.09" cy="34.18" rx="3.82" ry="4.36" fill="none" stroke-miterlimit="10"/></svg>