<?xml version="1.0" encoding="UTF-8"?>
<svg width="350px" height="350px" viewBox="0 0 350 350" version="1.1" xmlns="http://www.w3.org/2000/svg" xmlns:xlink="http://www.w3.org/1999/xlink">
    <title>greenpill_hasssan04</title>
            <rect id="interface_x5f_1" fill="#FCC7FF" x="0" y="0" width="350" height="350"></rect>
            <rect id="interface_x5f_2" fill="#FFF7CA" x="0" y="0" width="350" height="350"></rect>
            <rect id="interface_x5f_3" fill="#FFCCCC" x="0" y="0" width="350" height="350"></rect>
            <rect id="interface_x5f_4" fill="#CFCFFF" x="0" y="0" width="350" height="350"></rect>
            <rect id="interface_x5f_5" fill="#CECECE" x="0" y="0" width="350" height="350"></rect>
            <g id="body_x5f_4" transform="translate(115.529910, 77.670000)">
                <path d="M115.240134,103.23 L115.240134,150.62 C115.258668,165.424168 109.391439,179.628502 98.9308089,190.104138 C88.4701786,200.579774 74.2742691,206.467358 59.4700898,206.47 L55.9000898,206.47 C55.0000898,206.47 54.1200898,206.47 53.2700898,206.39 C52.4200898,206.31 51.5500898,206.28 50.6700898,206.19 C46.912194,205.877055 43.1999807,205.15272 39.6000898,204.03 C16.1020638,196.866673 0.0472985527,175.185636 0.0500898075,150.62 L0.0500898075,103.23 L115.240134,103.23 Z" id="Path" fill="#5932C4"></path>
                <path d="M0,103.59 L0,56.21 C-0.0264844469,41.3902377 5.84545401,27.1690797 16.3199339,16.6852191 C26.7944138,6.20135856 41.0103096,0.316692034 55.8300898,0.329977477 L59.3900898,0.329977477 C60.2900898,0.329977477 61.1700898,0.329977477 62.0200898,0.41 C62.8700898,0.49 63.7500898,0.52 64.6200898,0.6 C68.3776653,0.921169408 72.0893497,1.64875343 75.6900898,2.77 C99.1881158,9.93332702 115.242881,31.614364 115.24009,56.18 L115.24009,103.56 L0,103.59 Z" id="Path" fill="#886EE5"></path>
                <path d="M115.240134,55.82 L115.240134,150.62 C115.258668,165.424168 109.391439,179.628502 98.9308089,190.104138 C88.4701786,200.579774 74.2742691,206.467358 59.4700898,206.47 L55.9000898,206.47 C55.0000898,206.47 54.1200898,206.47 53.2700898,206.39 C52.4200898,206.31 51.5500898,206.28 50.6700898,206.19 C59.5565907,205.417645 68.1555212,202.656144 75.8300898,198.11 C92.0000898,188.55 102.71009,171.64 102.71009,152.37 L102.71009,54.1 C102.71009,25.98 79.8800898,2.9 50.7100898,0.27 C51.5900898,0.19 52.4300898,0.13 53.3100898,0.08 C54.1900898,0.03 55.0400898,0 55.9400898,0 L59.4700898,0 C90.2790965,0.0275967566 115.240134,25.0109809 115.240134,55.82 L115.240134,55.82 Z" id="Path" fill="#F1F2F2" style="mix-blend-mode: multiply;"></path>
                <path d="M29.9000898,184.990009 C29.505278,184.991013 29.1154203,184.902098 28.7600898,184.73 C20.645191,181.02588 14.9029984,173.529545 13.4400898,164.73 C13.2681038,163.233349 14.3366353,161.878584 15.8321693,161.69714 C17.3277033,161.515697 18.6891962,162.575643 18.8800898,164.07 C20.1091993,170.976142 24.6612982,176.833649 31.0500898,179.73 C32.2214645,180.26791 32.859532,181.549532 32.5827175,182.808436 C32.305903,184.06734 31.1890647,184.963085 29.9000898,184.96 L29.9000898,184.990009 Z" id="Path" fill="#FFFFFF"></path>
            </g>
            <g id="body_x5f_3" transform="translate(115.529910, 77.670000)">
                <path d="M115.240134,103.23 L115.240134,150.62 C115.258668,165.424168 109.391439,179.628502 98.9308089,190.104138 C88.4701786,200.579774 74.2742691,206.467358 59.4700898,206.47 L55.9000898,206.47 C55.0000898,206.47 54.1200898,206.47 53.2700898,206.39 C52.4200898,206.31 51.5500898,206.28 50.6700898,206.19 C46.912194,205.877055 43.1999807,205.15272 39.6000898,204.03 C16.1020638,196.866673 0.0472985527,175.185636 0.0500898075,150.62 L0.0500898075,103.23 L115.240134,103.23 Z" id="Path" fill="#00A076"></path>
                <path d="M0,103.59 L0,56.21 C-0.0264844469,41.3902377 5.84545401,27.1690797 16.3199339,16.6852191 C26.7944138,6.20135856 41.0103096,0.316692034 55.8300898,0.329977477 L59.3900898,0.329977477 C60.2900898,0.329977477 61.1700898,0.329977477 62.0200898,0.41 C62.8700898,0.49 63.7500898,0.52 64.6200898,0.6 C68.3776653,0.921169408 72.0893497,1.64875343 75.6900898,2.77 C99.1881158,9.93332702 115.242881,31.614364 115.24009,56.18 L115.24009,103.56 L0,103.59 Z" id="Path" fill="#8FEAD2"></path>
                <path d="M115.240134,55.82 L115.240134,150.62 C115.258668,165.424168 109.391439,179.628502 98.9308089,190.104138 C88.4701786,200.579774 74.2742691,206.467358 59.4700898,206.47 L55.9000898,206.47 C55.0000898,206.47 54.1200898,206.47 53.2700898,206.39 C52.4200898,206.31 51.5500898,206.28 50.6700898,206.19 C59.5565907,205.417645 68.1555212,202.656144 75.8300898,198.11 C92.0000898,188.55 102.71009,171.64 102.71009,152.37 L102.71009,54.1 C102.71009,25.98 79.8800898,2.9 50.7100898,0.27 C51.5900898,0.19 52.4300898,0.13 53.3100898,0.08 C54.1900898,0.03 55.0400898,0 55.9400898,0 L59.4700898,0 C90.2790965,0.0275967566 115.240134,25.0109809 115.240134,55.82 L115.240134,55.82 Z" id="Path" fill="#F1F2F2" style="mix-blend-mode: multiply;"></path>
                <path d="M29.9000898,184.990009 C29.505278,184.991013 29.1154203,184.902098 28.7600898,184.73 C20.645191,181.02588 14.9029984,173.529545 13.4400898,164.73 C13.2681038,163.233349 14.3366353,161.878584 15.8321693,161.69714 C17.3277033,161.515697 18.6891962,162.575643 18.8800898,164.07 C20.1091993,170.976142 24.6612982,176.833649 31.0500898,179.73 C32.2214645,180.26791 32.859532,181.549532 32.5827175,182.808436 C32.305903,184.06734 31.1890647,184.963085 29.9000898,184.96 L29.9000898,184.990009 Z" id="Path" fill="#FFFFFF"></path>
            </g>
            <g id="body_x5f_2" transform="translate(115.529910, 77.670000)">
                <path d="M115.240134,103.23 L115.240134,150.62 C115.258668,165.424168 109.391439,179.628502 98.9308089,190.104138 C88.4701786,200.579774 74.2742691,206.467358 59.4700898,206.47 L55.9000898,206.47 C55.0000898,206.47 54.1200898,206.47 53.2700898,206.39 C52.4200898,206.31 51.5500898,206.28 50.6700898,206.19 C46.912194,205.877055 43.1999807,205.15272 39.6000898,204.03 C16.1020638,196.866673 0.0472985527,175.185636 0.0500898075,150.62 L0.0500898075,103.23 L115.240134,103.23 Z" id="Path" fill="#02E2AC"></path>
                <path d="M0,103.59 L0,56.21 C-0.0264844469,41.3902377 5.84545401,27.1690797 16.3199339,16.6852191 C26.7944138,6.20135856 41.0103096,0.316692034 55.8300898,0.329977477 L59.3900898,0.329977477 C60.2900898,0.329977477 61.1700898,0.329977477 62.0200898,0.41 C62.8700898,0.49 63.7500898,0.52 64.6200898,0.6 C68.3776653,0.921169408 72.0893497,1.64875343 75.6900898,2.77 C99.1881158,9.93332702 115.242881,31.614364 115.24009,56.18 L115.24009,103.56 L0,103.59 Z" id="Path" fill="#B3FFED"></path>
                <path d="M115.240134,55.82 L115.240134,150.62 C115.258668,165.424168 109.391439,179.628502 98.9308089,190.104138 C88.4701786,200.579774 74.2742691,206.467358 59.4700898,206.47 L55.9000898,206.47 C55.0000898,206.47 54.1200898,206.47 53.2700898,206.39 C52.4200898,206.31 51.5500898,206.28 50.6700898,206.19 C59.5565907,205.417645 68.1555212,202.656144 75.8300898,198.11 C92.0000898,188.55 102.71009,171.64 102.71009,152.37 L102.71009,54.1 C102.71009,25.98 79.8800898,2.9 50.7100898,0.27 C51.5900898,0.19 52.4300898,0.13 53.3100898,0.08 C54.1900898,0.03 55.0400898,0 55.9400898,0 L59.4700898,0 C90.2790965,0.0275967566 115.240134,25.0109809 115.240134,55.82 L115.240134,55.82 Z" id="Path" fill="#F1F2F2" style="mix-blend-mode: multiply;"></path>
                <path d="M29.9000898,184.990009 C29.505278,184.991013 29.1154203,184.902098 28.7600898,184.73 C20.645191,181.02588 14.9029984,173.529545 13.4400898,164.73 C13.2681038,163.233349 14.3366353,161.878584 15.8321693,161.69714 C17.3277033,161.515697 18.6891962,162.575643 18.8800898,164.07 C20.1091993,170.976142 24.6612982,176.833649 31.0500898,179.73 C32.2214645,180.26791 32.859532,181.549532 32.5827175,182.808436 C32.305903,184.06734 31.1890647,184.963085 29.9000898,184.96 L29.9000898,184.990009 Z" id="Path" fill="#FFFFFF"></path>
            </g>
            <g id="body_x5f_1" transform="translate(115.529910, 77.670000)">
                <path d="M115.240134,103.23 L115.240134,150.62 C115.258668,165.424168 109.391439,179.628502 98.9308089,190.104138 C88.4701786,200.579774 74.2742691,206.467358 59.4700898,206.47 L55.9000898,206.47 C55.0000898,206.47 54.1200898,206.47 53.2700898,206.39 C52.4200898,206.31 51.5500898,206.28 50.6700898,206.19 C46.912194,205.877055 43.1999807,205.15272 39.6000898,204.03 C16.1020638,196.866673 0.0472985527,175.185636 0.0500898075,150.62 L0.0500898075,103.23 L115.240134,103.23 Z" id="Path" fill="#00FFBC"></path>
                <path d="M0,103.59 L0,56.21 C-0.0264844469,41.3902377 5.84545401,27.1690797 16.3199339,16.6852191 C26.7944138,6.20135856 41.0103096,0.316692034 55.8300898,0.329977477 L59.3900898,0.329977477 C60.2900898,0.329977477 61.1700898,0.329977477 62.0200898,0.41 C62.8700898,0.49 63.7500898,0.52 64.6200898,0.6 C68.3776653,0.921169408 72.0893497,1.64875343 75.6900898,2.77 C99.1881158,9.93332702 115.242881,31.614364 115.24009,56.18 L115.24009,103.56 L0,103.59 Z" id="Path" fill="#C5FFF0"></path>
                <path d="M115.240134,55.82 L115.240134,150.62 C115.258668,165.424168 109.391439,179.628502 98.9308089,190.104138 C88.4701786,200.579774 74.2742691,206.467358 59.4700898,206.47 L55.9000898,206.47 C55.0000898,206.47 54.1200898,206.47 53.2700898,206.39 C52.4200898,206.31 51.5500898,206.28 50.6700898,206.19 C59.5565907,205.417645 68.1555212,202.656144 75.8300898,198.11 C92.0000898,188.55 102.71009,171.64 102.71009,152.37 L102.71009,54.1 C102.71009,25.98 79.8800898,2.9 50.7100898,0.27 C51.5900898,0.19 52.4300898,0.13 53.3100898,0.08 C54.1900898,0.03 55.0400898,0 55.9400898,0 L59.4700898,0 C90.2790965,0.0275967566 115.240134,25.0109809 115.240134,55.82 L115.240134,55.82 Z" id="Path" fill="#F1F2F2" style="mix-blend-mode: multiply;"></path>
                <path d="M29.9000898,184.990009 C29.505278,184.991013 29.1154203,184.902098 28.7600898,184.73 C20.645191,181.02588 14.9029984,173.529545 13.4400898,164.73 C13.2681038,163.233349 14.3366353,161.878584 15.8321693,161.69714 C17.3277033,161.515697 18.6891962,162.575643 18.8800898,164.07 C20.1091993,170.976142 24.6612982,176.833649 31.0500898,179.73 C32.2214645,180.26791 32.859532,181.549532 32.5827175,182.808436 C32.305903,184.06734 31.1890647,184.963085 29.9000898,184.96 L29.9000898,184.990009 Z" id="Path" fill="#FFFFFF"></path>
            </g>
            <g id="face_x5f_1" transform="translate(129.130000, 134.160000)">
                <circle id="Oval" fill="#603913" cx="18.56" cy="5.77" r="5.77"></circle>
                <ellipse id="Oval" fill="#FCB9B9" cx="11.83" cy="17.3" rx="11.83" ry="6.69"></ellipse>
                <ellipse id="Oval" fill="#FCB9B9" cx="76.19" cy="17.3" rx="11.83" ry="6.69"></ellipse>
                <circle id="Oval" fill="#603913" cx="69.46" cy="5.77" r="5.77"></circle>
                <path d="M44.01,34.74 C22.33,34.74 16.88,20.65 16.65,20.04 C16.3981278,19.3576227 16.5294322,18.5927079 16.9944521,18.0333915 C17.459472,17.4740751 18.1875599,17.2053306 18.9044521,17.3283915 C19.6213443,17.4514524 20.2181278,17.9476227 20.47,18.63 C20.67,19.14 25.31,30.63 44.01,30.63 C62.71,30.63 67.36,19.08 67.55,18.63 C67.9393608,17.5751362 69.1101361,17.0356394 70.1649999,17.4250002 C71.2198637,17.8143609 71.7593606,18.9851362 71.37,20.04 C71.15,20.65 65.69,34.74 44.01,34.74 Z" id="Path" fill="#603913"></path>
                <path d="M23.1500245,3.73 C23.1500245,2.59229342 22.2277066,1.67 21.09,1.67 C19.9522934,1.67 19.03,2.59229342 19.03,3.73 C19.03,4.86770658 19.9522934,5.79002455 21.09,5.79002455 C21.6371618,5.79267566 22.1626869,5.57649988 22.5495934,5.18959341 C22.9364999,4.80268694 23.1526757,4.27716184 23.1500245,3.73 Z" id="Path" fill="#FFFFFF"></path>
                <path d="M73.56,3.73 C73.5544835,2.59913443 72.6342389,1.68633764 71.5033658,1.68999977 C70.3724928,1.69368399 69.4581972,2.61243954 69.4600243,3.74331709 C69.4618569,4.87419463 70.379121,5.78998655 71.51,5.79 C72.0596149,5.80399767 72.5907546,5.59112397 72.97857,5.20141679 C73.3663854,4.81170961 73.576672,4.27954027 73.56,3.73 Z" id="Path" fill="#FFFFFF"></path>
            </g>
            <g id="face_x5f_2" transform="translate(129.150000, 134.160000)">
                <circle id="Oval" fill="#603913" cx="18.56" cy="5.77" r="5.77"></circle>
                <ellipse id="Oval" fill="#FCB9B9" cx="11.83" cy="17.3" rx="11.83" ry="6.69"></ellipse>
                <ellipse id="Oval" fill="#FCB9B9" cx="76.19" cy="17.3" rx="11.83" ry="6.69"></ellipse>
                <circle id="Oval" fill="#603913" cx="69.45" cy="5.77" r="5.77"></circle>
                <path d="M18.56,19.34 C18.56,19.34 23.49,43.67 44.01,43.67 C64.53,43.67 69.45,19.34 69.45,19.34 L18.56,19.34 Z" id="Path" fill="#603913"></path>
                <path d="M23.140028,3.73 C23.1396442,2.8914236 22.6310001,2.13675675 21.8538397,1.82174528 C21.0766793,1.5067338 20.1861312,1.69425696 19.6019949,2.29591738 C19.0178586,2.8975778 18.8567332,3.79327835 19.1945723,4.56079071 C19.5324115,5.32830306 20.3017793,5.81442448 21.14,5.79 C22.256508,5.76277496 23.1457799,4.84682491 23.140028,3.73 L23.140028,3.73 Z" id="Path" fill="#FFFFFF"></path>
                <path d="M73.5600244,3.73 C73.5600244,2.89589988 73.0569984,2.14412422 72.2860008,1.82587018 C71.5150031,1.50761614 70.6281813,1.68570161 70.0398202,2.27693274 C69.4514591,2.86816387 69.2776912,3.75584178 69.5996933,4.52528162 C69.9216953,5.29472147 70.6759097,5.79404903 71.51,5.79002444 C72.0554309,5.79002444 72.5783776,5.57265279 72.9631159,5.18603769 C73.3478543,4.79942259 73.5626606,4.27542437 73.5600244,3.73 Z" id="Path" fill="#FFFFFF"></path>
                <path d="M26.36,19.34 L26.36,21.5 C26.36,23.9963271 28.3836729,26.02 30.88,26.02 L57.13,26.02 C58.3287785,26.02 59.4784582,25.5437871 60.3261227,24.6961227 C61.1737871,23.8484582 61.65,22.6987785 61.65,21.5 L61.65,19.34 L26.36,19.34 Z" id="Path" fill="#F1F2F2"></path>
                <path d="M30.85,39.45 C39.0204889,34.7160351 49.0995111,34.7160351 57.27,39.45 C49.3616641,45.0754066 38.7583359,45.0754066 30.85,39.45 L30.85,39.45 Z" id="Path" fill="#FFAEB8"></path>
            </g>
            <g id="face_x5f_3" transform="translate(129.160000, 108.751726)">
                <ellipse id="Oval" fill="#FCB9B9" cx="11.83" cy="20.7782743" rx="11.83" ry="6.69"></ellipse>
                <ellipse id="Oval" fill="#FCB9B9" cx="76.19" cy="20.7782743" rx="11.83" ry="6.69"></ellipse>
                <path d="M69.46,22.8382743 C69.46,22.8382743 66.61,46.4082743 56.2,57.6982743 C52.93,61.2582743 48.91,63.5882743 44,63.5882743 C39.09,63.5882743 35.07,61.2482743 31.84,57.6982743 C21.43,46.4082743 18.58,22.8382743 18.58,22.8382743 L69.46,22.8382743 Z" id="Path" fill="#603913"></path>
                <path d="M26.36,22.8282743 L26.36,24.9882743 C26.36,26.1870528 26.8362129,27.3367325 27.6838773,28.1843969 C28.5315418,29.0320614 29.6812215,29.5082743 30.88,29.5082743 L57.13,29.5082743 C58.3287785,29.5082743 59.4784582,29.0320614 60.3261227,28.1843969 C61.1737871,27.3367325 61.65,26.1870528 61.65,24.9882743 L61.65,22.8282743 L26.36,22.8282743 Z" id="Path" fill="#F1F2F2"></path>
                <path d="M56.2,57.6982743 C52.93,61.2582743 48.91,63.5882743 44,63.5882743 C39.09,63.5882743 35.07,61.2482743 31.84,57.6982743 C38.9987693,52.0998906 49.0512307,52.0998906 56.21,57.6982743 L56.2,57.6982743 Z" id="Path" fill="#FFAEB8"></path>
                <path d="M15.25,17.0582743 C14.3393543,17.118308 13.503565,16.5542725 13.2185046,15.6873122 C12.9334443,14.8203518 13.2714205,13.8703771 14.04,13.3782743 L19.86,9.08827428 L13.86,3.53827428 C13.3241016,3.04524777 13.0919376,2.3037741 13.2509619,1.59315922 C13.4099862,0.882544351 13.9360392,0.310747582 14.6309619,0.0931592234 C15.3258846,-0.124429135 16.0841016,0.0452477666 16.62,0.538274281 L24.43,7.75827428 C24.8862182,8.16449527 25.1317765,8.75693798 25.0967051,9.36679087 C25.0616337,9.97664375 24.7497785,10.5370307 24.25,10.8882743 L16.45,16.6382743 C16.1063302,16.9050696 15.6850352,17.0525229 15.25,17.0582743 L15.25,17.0582743 Z" id="Path" fill="#603913"></path>
                <path d="M72.75,17.0582743 C72.3172596,17.0582743 71.8961923,16.9179185 71.55,16.6582743 L63.75,10.9082743 C63.2502215,10.5570307 62.9383663,9.99664375 62.9032949,9.38679087 C62.8682235,8.77693798 63.1137818,8.18449527 63.57,7.77827428 L71.37,0.558274281 C71.9058984,0.0634614257 72.6650684,-0.10786612 73.3615381,0.108829073 C74.0580078,0.325524266 74.5859668,0.897321042 74.7465381,1.60882909 C74.9071094,2.32033713 74.6758984,3.06346144 74.14,3.55827428 L68.14,9.10827428 L73.96,13.3982743 C74.7285795,13.8903771 75.0665557,14.8403518 74.7814954,15.7073122 C74.496435,16.5742725 73.6606457,17.138308 72.75,17.0782743 L72.75,17.0582743 Z" id="Path" fill="#603913"></path>
            </g>
            <g id="face_x5f_4" transform="translate(129.170000, 143.388619)">
                <ellipse id="Oval" fill="#FCB9B9" cx="11.83" cy="13.5513813" rx="11.83" ry="6.69"></ellipse>
                <ellipse id="Oval" fill="#FCB9B9" cx="76.19" cy="13.5513813" rx="11.83" ry="6.69"></ellipse>
                <path d="M69.45,31.0013813 C68.5980279,31.0080023 67.8353936,30.4741582 67.55,29.6713813 C67.35,29.1413813 62.7,17.6713813 44.01,17.6713813 C25.32,17.6713813 20.66,29.2213813 20.47,29.6713813 C20.0806392,30.726245 18.9098639,31.2657418 17.8550001,30.8763811 C16.8001363,30.4870203 16.2606394,29.3162451 16.65,28.2613813 C16.87,27.6513813 22.33,13.5513813 44.01,13.5513813 C65.69,13.5513813 71.14,27.6513813 71.37,28.2613813 C71.5654136,28.7673669 71.5469331,29.331023 71.3187954,29.8231217 C71.0906576,30.3152204 70.6724306,30.6935533 70.16,30.8713813 C69.9335495,30.9587482 69.6927152,31.0028923 69.45,31.0013813 L69.45,31.0013813 Z" id="Path" fill="#603913"></path>
                <path d="M18.83,8.04138127 L18.28,8.04138127 C13.37,7.74138127 10.28,3.39138127 10.17,3.20138127 C9.52658827,2.27906574 9.75268447,1.00979301 10.675,0.366381275 C11.5973155,-0.277030459 12.8665883,-0.0509342574 13.51,0.871381275 C13.51,0.941381275 15.64,3.81138127 18.56,3.98138127 C20.4,4.10138127 22.48,2.98138127 24.56,0.701381275 C25.0458812,0.165482841 25.7807523,-0.0704931899 26.4877946,0.0823430743 C27.1948368,0.235179339 27.7666336,0.753608432 27.9877946,1.44234312 C28.2089556,2.13107781 28.0458813,2.8854829 27.56,3.42138127 C24.83,6.48138127 21.83,8.04138127 18.83,8.04138127 Z" id="Path" fill="#603913"></path>
                <path d="M69.34,8.04138127 L68.8,8.04138127 C63.89,7.74138127 60.8,3.39138127 60.68,3.20138127 C60.0365883,2.27906574 60.2626845,1.00979301 61.185,0.366381275 C62.1073155,-0.277030459 63.3765883,-0.0509342574 64.02,0.871381275 C64.07,0.941381275 66.16,3.81138127 69.07,3.98138127 C70.91,4.10138127 72.99,2.98138127 75.07,0.701381275 C75.8211073,-0.127045773 77.1015728,-0.189725868 77.9299999,0.561381361 C78.758427,1.31248859 78.8211072,2.59295414 78.07,3.42138127 C75.32,6.48138127 72.38,8.04138127 69.34,8.04138127 Z" id="Path" fill="#603913"></path>
            </g>
            <g id="face_x5f_5" transform="translate(125.440000, 65.859342)">
                <ellipse id="Oval" fill="#FCB9B9" cx="11.83" cy="96.610658" rx="11.83" ry="6.69"></ellipse>
                <ellipse id="Oval" fill="#FCB9B9" cx="76.19" cy="96.610658" rx="11.83" ry="6.69"></ellipse>
                <path d="M44.01,114.050658 C22.32,114.050658 16.87,99.950658 16.65,99.350658 C16.257878,98.2985556 16.7928977,97.1277803 17.8450001,96.7356582 C18.8971024,96.343536 20.0678778,96.8785556 20.46,97.930658 C20.66,98.450658 25.3,109.980658 44.01,109.980658 C62.72,109.980658 67.36,98.420658 67.56,97.930658 C67.8136586,97.250067 68.4111397,96.7565003 69.127378,96.6358796 C69.8436164,96.5152589 70.5697983,96.7859093 71.032378,97.3458796 C71.4949578,97.9058498 71.6236586,98.670067 71.37,99.350658 C71.14,99.950658 65.69,114.050658 44.01,114.050658 Z" id="Path" fill="#603913"></path>
                <path d="M29.86,71.460658 C25.03,65.910658 18.56,72.890658 18.56,72.890658 C18.56,72.890658 12.08,65.890658 7.25,71.460658 C-0.56,80.460658 18.56,92.660658 18.56,92.660658 C18.56,92.660658 37.68,80.450658 29.86,71.460658 Z" id="Path" fill="#DA1C5C"></path>
                <path d="M80.28,71.460658 C75.45,65.910658 68.98,72.890658 68.98,72.890658 C68.98,72.890658 62.5,65.890658 57.67,71.460658 C49.86,80.460658 68.98,92.660658 68.98,92.660658 C68.98,92.660658 88.09,80.450658 80.28,71.460658 Z" id="Path" fill="#DA1C5C"></path>
                <path d="M108.93,29.790658 C108.1,25.510658 102.71,27.180658 102.71,27.180658 C102.71,27.180658 101.45,21.690658 97.33,23.110658 C90.67,25.410658 96.87,37.320658 96.87,37.320658 C96.87,37.320658 110.29,36.710658 108.93,29.790658 Z" id="Path" fill="#FC889C"></path>
                <path d="M107.13,3.37065797 C104.21,-1.07934203 98.89,3.28065797 98.89,3.28065797 C98.89,3.28065797 94.89,-2.35934203 90.89,1.15065797 C84.4,6.82065797 96.89,17.450658 96.89,17.450658 C96.89,17.450658 111.84,10.580658 107.13,3.37065797 Z" id="Path" fill="#FC889C"></path>
            </g>
            <g id="face_x5f_6" transform="translate(129.140000, 133.350000)">
                <ellipse id="Oval" fill="#FCB9B9" cx="11.83" cy="17.3" rx="11.83" ry="6.69"></ellipse>
                <ellipse id="Oval" fill="#FCB9B9" cx="76.19" cy="17.3" rx="11.83" ry="6.69"></ellipse>
                <circle id="Oval" fill="#603913" cx="69.46" cy="5.77" r="5.77"></circle>
                <path d="M44.01,34.75 C22.33,34.75 16.88,20.65 16.65,20.05 C16.2578778,18.9951361 16.7951361,17.8221222 17.85,17.43 C18.9048639,17.0378778 20.0778778,17.5751361 20.47,18.63 C20.67,19.15 25.32,30.63 44.01,30.63 C62.7,30.63 67.37,19.08 67.55,18.63 C67.9421222,17.5751361 69.1151361,17.0378778 70.17,17.43 C71.2248639,17.8221222 71.7621222,18.9951361 71.37,20.05 C71.15,20.65 65.69,34.75 44.01,34.75 Z" id="Path" fill="#603913"></path>
                <path d="M73.57,3.74 C73.5944245,2.90177929 73.1083031,2.13241148 72.3407907,1.79457233 C71.5732783,1.45673317 70.6775778,1.61785858 70.0759174,2.20199491 C69.474257,2.78613124 69.2867338,3.67667934 69.6017453,4.45383973 C69.9167568,5.23100013 70.6714236,5.73964423 71.51,5.74000019 C72.6246811,5.74047291 73.5375337,4.85420833 73.57,3.74 L73.57,3.74 Z" id="Path" fill="#FFFFFF"></path>
                <path d="M34.02,29.41 L34.02,36.25 C34.02,40.9775575 37.8524425,44.81 42.58,44.81 L42.58,44.81 C47.3075575,44.81 51.14,40.9775575 51.14,36.25 L51.14,30.05 C51.14,30.05 41.26,31.51 34.02,29.41 Z" id="Path" fill="#FC889C"></path>
                <path d="M25.67,9.82 C25.0056067,9.81627803 24.3837956,9.49234051 24,8.95 C24,8.88 21.87,6.01 19,5.84 C17,5.72 15.06,6.84 13,9.12 C12.2516542,9.94842712 10.9734271,10.0133458 10.145,9.265 C9.31657288,8.51665416 9.25165416,7.23842712 10,6.41 C12.93,3.13 16.06,1.59 19.29,1.78 C24.2,2.08 27.29,6.43 27.4,6.62 C27.7167024,7.05996422 27.8412432,7.60964225 27.7450995,8.14314515 C27.6489559,8.67664805 27.3403646,9.14827046 26.89,9.45 C26.5345822,9.70311348 26.1061398,9.8330509 25.67,9.82 Z" id="Path" fill="#603913"></path>
            </g>
            <g id="face_x5f_7" transform="translate(129.160000, 76.370000)">
                <ellipse id="Oval" fill="#FCB9B9" cx="11.83" cy="75.59" rx="11.83" ry="6.69"></ellipse>
                <ellipse id="Oval" fill="#FCB9B9" cx="76.19" cy="75.59" rx="11.83" ry="6.69"></ellipse>
                <path d="M76.37,68.1100003 C75.7056067,68.106278 75.0837956,67.7823405 74.7,67.24 L74.7,67.24 C74.7,67.24 72.59,64.3 69.65,64.13 C67.74,64.01 65.72,65.13 63.65,67.41 C62.9016542,68.2384271 61.6234271,68.3033458 60.795,67.555 C59.9665729,66.8066542 59.9016542,65.5284271 60.65,64.7 C63.57,61.4333333 66.6633333,59.89 69.93,60.07 C74.84,60.37 77.93,64.72 78.04,64.91 C78.3567024,65.3499642 78.4812432,65.8996422 78.3850995,66.4331451 C78.2889559,66.966648 77.9803646,67.4382705 77.53,67.74 C77.1911852,67.9808958 76.7857237,68.110224 76.37,68.1100003 Z" id="Path" fill="#603913"></path>
                <path d="M25.84,68.11 C25.1756067,68.106278 24.5537956,67.7823405 24.17,67.24 C24.12,67.17 22.03,64.3 19.12,64.13 C17.12,64.01 15.19,65.13 13.12,67.41 C12.3716542,68.2384271 11.0934271,68.3033458 10.265,67.555 C9.43657288,66.8066542 9.37165416,65.5284271 10.12,64.7 C13.05,61.42 16.19,59.88 19.4,60.07 C24.31,60.37 27.4,64.72 27.52,64.91 C27.9828603,65.5261364 28.0505538,66.3533932 27.6940157,67.0365801 C27.3374775,67.7197669 26.6201406,68.1373359 25.85,68.11 L25.84,68.11 Z" id="Path" fill="#603913"></path>
                <path d="M18.56,77.63 C18.56,77.63 23.49,96.48 44.01,96.48 C64.53,96.48 69.45,77.63 69.45,77.63 L18.56,77.63 Z" id="Path" fill="#603913"></path>
                <path d="M26.36,77.63 L26.36,79.8 C26.3654996,82.2940455 28.3859545,84.3145004 30.88,84.32 L57.13,84.32 C59.6263271,84.32 61.65,82.2963271 61.65,79.8 L61.65,77.63 L26.36,77.63 Z" id="Path" fill="#F1F2F2"></path>
                <path d="M76.37,0 C76.37,0 55.94,33.63 76.37,33.63 C96.8,33.63 76.37,0 76.37,0 Z" id="Path" fill="#62D8F4"></path>
            </g>
            <g id="face_x5f_8" transform="translate(129.170000, 133.350000)">
                <circle id="Oval" fill="#603913" cx="18.56" cy="5.77" r="5.77"></circle>
                <ellipse id="Oval" fill="#FCB9B9" cx="11.83" cy="17.3" rx="11.83" ry="6.69"></ellipse>
                <ellipse id="Oval" fill="#FCB9B9" cx="76.19" cy="17.3" rx="11.83" ry="6.69"></ellipse>
                <circle id="Oval" fill="#603913" cx="69.46" cy="5.77" r="5.77"></circle>
                <path d="M69.45,34.75 C68.6629182,34.7540712 67.9466328,34.2961182 67.62,33.58 C67.41,33.17 62.75,24.12 44.01,24.12 C25.27,24.12 20.59,33.2 20.4,33.58 C20.182424,34.0800765 19.7700728,34.4696163 19.2584362,34.6584121 C18.7467996,34.8472079 18.1802552,34.8188842 17.69,34.58 C17.195165,34.3621444 16.8096145,33.9532266 16.621219,33.4464427 C16.4328235,32.9396589 16.4576355,32.37819 16.69,31.89 C16.91,31.41 22.42,20.09 43.98,20.09 C65.54,20.09 71.05,31.41 71.27,31.89 C71.5088842,32.3802552 71.5372079,32.9467996 71.3484121,33.4584362 C71.1596163,33.9700728 70.7700765,34.382424 70.27,34.6 C70.0090702,34.7030176 69.7305017,34.7539752 69.45,34.75 Z" id="Path" fill="#603913"></path>
                <path d="M23.14,3.74 C23.1603328,2.90660331 22.6739639,2.14389096 21.9097663,1.81077612 C21.1455687,1.47766129 20.2557538,1.64049313 19.6590459,2.2226471 C19.0623381,2.80480106 18.8775885,3.69032486 19.1917356,4.46251335 C19.5058827,5.23470183 20.2563554,5.739752 21.09,5.74000009 C22.2029415,5.74033108 23.1128551,4.85261048 23.14,3.74 Z" id="Path" fill="#FFFFFF"></path>
                <path d="M73.56,3.74 C73.56,2.6354305 72.6645695,1.74 71.56,1.74 C70.4554305,1.74 69.56,2.6354305 69.56,3.74 C69.56,4.8445695 70.4554305,5.74 71.56,5.74 C72.6534648,5.71364006 73.5336401,4.83346476 73.56,3.74 Z" id="Path" fill="#FFFFFF"></path>
                <path d="M77.21,13.17 C77.21,13.17 65.93,31.71 77.21,31.71 C88.49,31.71 77.21,13.17 77.21,13.17 Z" id="Path" fill="#62D8F4"></path>
            </g>
            <g id="face_x5f_9" transform="translate(129.130000, 136.270000)">
                <ellipse id="Oval" fill="#FCB9B9" cx="11.83" cy="13.57" rx="11.83" ry="6.69"></ellipse>
                <ellipse id="Oval" fill="#FCB9B9" cx="76.19" cy="13.57" rx="11.83" ry="6.69"></ellipse>
                <path d="M69.46,28.98 C69.46,28.98 64.52,15.61 44.01,15.61 C23.5,15.61 18.56,28.98 18.56,28.98 L69.46,28.98 Z" id="Path" fill="#603913"></path>
                <path d="M21.57,2.04 L21.57,143.89 C18.1971416,142.564693 14.9727914,140.888836 11.95,138.89 L11.95,2.04 L21.57,2.04 Z" id="Path" fill="#62D8F4"></path>
                <path d="M76.08,2.04 L76.08,138.93 C73.0548799,140.924875 69.8309547,142.600511 66.46,143.93 L66.46,2.04 L76.08,2.04 Z" id="Path" fill="#62D8F4"></path>
                <path d="M24.33,4.08 L10.06,4.08 C8.93333911,4.08 8.02,3.16666089 8.02,2.04 C8.02,0.91333911 8.93333911,0 10.06,0 L24.33,0 C25.4566609,0 26.37,0.91333911 26.37,2.04 C26.37,3.16666089 25.4566609,4.08 24.33,4.08 Z" id="Path" fill="#603913"></path>
                <path d="M78.29,4.08 L64.01,4.08 C62.8833391,4.08 61.97,3.16666089 61.97,2.04 C61.97,0.91333911 62.8833391,0 64.01,0 L78.29,0 C79.4166609,0 80.33,0.91333911 80.33,2.04 C80.33,3.16666089 79.4166609,4.08 78.29,4.08 Z" id="Path" fill="#603913"></path>
            </g>
            <g id="face_x5f_10" transform="translate(129.140000, 130.090000)">
                <ellipse id="Oval" fill="#FCB9B9" cx="11.83" cy="19.75" rx="11.83" ry="6.69"></ellipse>
                <ellipse id="Oval" fill="#FCB9B9" cx="76.19" cy="19.75" rx="11.83" ry="6.69"></ellipse>
                <circle id="Oval" fill="#603913" cx="18.57" cy="8.22" r="8.22"></circle>
                <path d="M25.1,5.32 C25.1,3.70180568 23.7881943,2.39 22.17,2.39 C20.5518057,2.39 19.24,3.70180568 19.24,5.32 C19.24,6.93819432 20.5518057,8.25 22.17,8.25 C22.9470843,8.25 23.6923413,7.94130446 24.2418229,7.39182287 C24.7913045,6.84234128 25.1,6.09708432 25.1,5.32 Z" id="Path" fill="#FFFFFF"></path>
                <circle id="Oval" fill="#603913" cx="69.46" cy="8.22" r="8.22"></circle>
                <path d="M75.31,5.32 C75.31,4.1340171 74.5950347,3.06500557 73.4989405,2.61208942 C72.4028464,2.15917327 71.1418204,2.41168994 70.3046386,3.2517388 C69.4674568,4.09178765 69.2192528,5.35366956 69.6759136,6.44820889 C70.1325744,7.54274821 71.204024,8.25404772 72.39,8.25001719 C74.0042877,8.24449045 75.31,6.9342971 75.31,5.32 L75.31,5.32 Z" id="Path" fill="#FFFFFF"></path>
                <path d="M44.01,40.64 L44.01,40.64 C38.4871525,40.64 34.01,36.1628475 34.01,30.64 L34.01,28.71 C34.01,23.1871525 38.4871525,18.71 44.01,18.71 L44.01,18.71 C49.5328475,18.71 54.01,23.1871525 54.01,28.71 L54.01,30.64 C54.01,36.1628475 49.5328475,40.64 44.01,40.64 L44.01,40.64 Z" id="Path" fill="#603913"></path>
            </g>
            <g id="face_x5f_11" transform="translate(129.160000, 132.540000)">
                <circle id="Oval" fill="#603913" cx="18.56" cy="5.77" r="5.77"></circle>
                <ellipse id="Oval" fill="#FCB9B9" cx="11.83" cy="17.3" rx="11.83" ry="6.69"></ellipse>
                <ellipse id="Oval" fill="#FCB9B9" cx="76.19" cy="17.3" rx="11.83" ry="6.69"></ellipse>
                <circle id="Oval" fill="#603913" cx="69.45" cy="5.77" r="5.77"></circle>
                <path d="M23.14,3.74 C23.14,2.60781626 22.2221837,1.69 21.09,1.69 C19.9578163,1.69 19.04,2.60781626 19.04,3.74 C19.04,4.87218374 19.9578163,5.79 21.09,5.79 C21.6336938,5.79 22.1551193,5.57401848 22.5395689,5.1895689 C22.9240185,4.80511933 23.14,4.2836938 23.14,3.74 Z" id="Path" fill="#FFFFFF"></path>
                <path d="M73.5600243,3.74 C73.5640436,2.90500159 73.063629,2.15015749 72.292958,1.8287467 C71.522287,1.5073359 70.6338241,1.68294422 70.0433842,2.27338419 C69.4529442,2.86382415 69.2773359,3.75228696 69.5987467,4.52295797 C69.9201575,5.29362897 70.6750016,5.79404365 71.51,5.79002432 C72.0536938,5.79002432 72.5751193,5.57401848 72.9595689,5.1895689 C73.3440185,4.80511933 73.5600243,4.2836938 73.5600243,3.74 Z" id="Path" fill="#FFFFFF"></path>
                <path d="M22.17,60.02 L22.17,60.02 C17.7910035,55.6323158 17.7910035,48.5276842 22.17,44.14 L49.95,16.36 C52.0563733,14.2514016 54.9145645,13.0666161 57.895,13.0666161 C60.8754355,13.0666161 63.7336267,14.2514016 65.84,16.36 L65.84,16.36 C70.2189965,20.7476842 70.2189965,27.8523158 65.84,32.24 L38.05,60.02 C35.9453348,62.1279915 33.088799,63.3125288 30.11,63.3125288 C27.131201,63.3125288 24.2746652,62.1279915 22.17,60.02 L22.17,60.02 Z" id="Path" fill="#E6E7E8"></path>
                <path d="M22.17,16.36 L22.17,16.36 C24.2746652,14.2520085 27.131201,13.0674712 30.11,13.0674712 C33.088799,13.0674712 35.9453348,14.2520085 38.05,16.36 L65.84,44.14 C70.2189965,48.5276842 70.2189965,55.6323158 65.84,60.02 L65.84,60.02 C63.7336267,62.1285984 60.8754355,63.3133839 57.895,63.3133839 C54.9145645,63.3133839 52.0563733,62.1285984 49.95,60.02 L22.17,32.24 C17.7910035,27.8523158 17.7910035,20.7476842 22.17,16.36 L22.17,16.36 Z" id="Path" fill="#E6E7E8"></path>
                <path d="M28.12,38.19 L44.01,54.08 C40.5468,52.2429731 37.350619,49.9417227 34.51,47.24 C31.9250612,44.5717255 29.7694573,41.5187967 28.12,38.19 Z" id="Path" fill="#BCBEC0"></path>
                <path d="M44.01,22.31 L59.89,38.19 C58.1232469,34.900256 55.9088228,31.8714085 53.31,29.19 C50.5118683,26.5144512 47.3871655,24.2028432 44.01,22.31 Z" id="Path" fill="#BCBEC0"></path>
                <path d="M24.54,20.83 C24.8008039,21.0908039 24.9026595,21.4709338 24.8071987,21.8271986 C24.7117378,22.1834634 24.4334634,22.4617378 24.0771986,22.5571987 C23.7209338,22.6526595 23.3408039,22.5508039 23.08,22.29 C22.6768322,21.8868321 22.6768323,21.2331679 23.0800001,20.8300001 C23.4831679,20.4268323 24.1368321,20.4268322 24.54,20.83 L24.54,20.83 Z" id="Path" fill="#BCBEC0"></path>
                <path d="M28.28,17.08 C28.6831678,17.4831679 28.6831678,18.1368321 28.28,18.54 C27.8768321,18.9431678 27.2231679,18.9431678 26.82,18.54 C26.4168322,18.1368321 26.4168322,17.4831679 26.82,17.08 C27.2231679,16.6768322 27.8768321,16.6768322 28.28,17.08 Z" id="Path" fill="#BCBEC0"></path>
                <circle id="Oval" fill="#BCBEC0" cx="29.89" cy="27.64" r="1.03"></circle>
                <path d="M34.37,23.16 C34.7702,23.5682857 34.7702,24.2217143 34.37,24.63 C33.9717551,24.9973969 33.3533531,24.9807915 32.9753987,24.592552 C32.5974443,24.2043124 32.5974443,23.5856876 32.9753987,23.197448 C33.3533531,22.8092085 33.9717551,22.7926031 34.37,23.16 Z" id="Path" fill="#BCBEC0"></path>
                <circle id="Oval" fill="#BCBEC0" cx="24.24" cy="26.7" r="1.03"></circle>
                <circle id="Oval" fill="#BCBEC0" cx="28.47" cy="22.47" r="1.03"></circle>
                <circle id="Oval" fill="#BCBEC0" cx="32.7" cy="18.25" r="1.03"></circle>
                <path d="M54.97,51.25 C55.3373969,51.6482449 55.3207915,52.2666469 54.932552,52.6446013 C54.5443124,53.0225557 53.9256876,53.0225557 53.537448,52.6446013 C53.1492085,52.2666469 53.1326031,51.6482449 53.5,51.25 C53.9082857,50.8498 54.5617143,50.8498 54.97,51.25 Z" id="Path" fill="#BCBEC0"></path>
                <path d="M58.71,47.51 C58.9119503,47.6990717 59.0265529,47.9633557 59.0265529,48.24 C59.0265529,48.5166443 58.9119503,48.7809283 58.71,48.97 C58.4491961,49.2308039 58.0690662,49.3326594 57.7128014,49.2371986 C57.3565367,49.1417378 57.0782622,48.8634633 56.9828014,48.5071986 C56.8873406,48.1509338 56.9891961,47.7708039 57.25,47.51 C57.4390717,47.3080497 57.7033557,47.1934471 57.98,47.1934471 C58.2566443,47.1934471 58.5209283,47.3080497 58.71,47.51 Z" id="Path" fill="#BCBEC0"></path>
                <path d="M61.05,57.34 C61.2519503,57.5290717 61.3665529,57.7933557 61.3665529,58.07 C61.3665529,58.3466443 61.2519503,58.6109283 61.05,58.8 C60.8609283,59.0019503 60.5966443,59.1165529 60.32,59.1165529 C60.0433557,59.1165529 59.7790717,59.0019503 59.59,58.8 C59.1868321,58.3968321 59.1868321,57.7431679 59.59,57.34 C59.9931679,56.9368321 60.6468321,56.9368321 61.05,57.34 L61.05,57.34 Z" id="Path" fill="#BCBEC0"></path>
                <circle id="Oval" fill="#BCBEC0" cx="64.07" cy="54.32" r="1.03"></circle>
                <circle id="Oval" fill="#BCBEC0" cx="54.67" cy="57.13" r="1.03"></circle>
                <circle id="Oval" fill="#BCBEC0" cx="58.9" cy="52.9" r="1.03"></circle>
                <path d="M63.84,47.94 C64.2402,48.3482857 64.2402,49.0017143 63.84,49.41 C63.4417551,49.7773969 62.8233531,49.7607915 62.4453987,49.372552 C62.0674443,48.9843124 62.0674443,48.3656876 62.4453987,47.977448 C62.8233531,47.5892085 63.4417551,47.5726031 63.84,47.94 Z" id="Path" fill="#BCBEC0"></path>
            </g>
            <g id="face_x5f_12" transform="translate(119.670000, 81.210000)">
                <ellipse id="Oval" fill="#FCB9B9" cx="21.33" cy="68.63" rx="11.83" ry="6.69"></ellipse>
                <ellipse id="Oval" fill="#FCB9B9" cx="85.69" cy="68.63" rx="11.83" ry="6.69"></ellipse>
                <path d="M53.51,86.08 C31.83,86.08 26.37,71.98 26.15,71.38 C25.7578778,70.3251361 26.2951361,69.1521222 27.35,68.76 C28.4048639,68.3678778 29.5778778,68.9051361 29.97,69.96 C30.17,70.47 34.81,81.96 53.51,81.96 C72.21,81.96 76.86,70.41 77.05,69.96 C77.4421222,68.9051361 78.6151361,68.3678778 79.67,68.76 C80.7248639,69.1521222 81.2621222,70.3251361 80.87,71.38 C80.64,71.98 75.19,86.08 53.51,86.08 Z" id="Path" fill="#603913"></path>
                <path d="M53.51,20.79 C40.95,20.79 0,20.04 0,10.38 C0.0134692656,8.99983321 1.05142234,7.84514013 2.42235641,7.68519782 C3.79329049,7.52525551 5.069178,8.41000053 5.4,9.75 C8.16,12.08 26.4,15.31 53.51,15.31 C80.62,15.31 98.85,12.08 101.61,9.75 C101.923511,8.38935562 103.21005,7.48209576 104.596974,7.64360442 C105.983898,7.80511308 107.027535,8.9837245 107.020041,10.38 C107.020041,20.07 66.06,20.79 53.51,20.79 Z" id="Path" fill="#FFDE17"></path>
                <path d="M85.88,61.13 C85.2130943,61.1365865 84.5867876,60.8103069 84.21,60.26 C84.21,60.2 82.07,57.32 79.21,57.15 C77.31,57.05 75.28,58.15 73.21,60.43 C72.4616542,61.2584271 71.1834272,61.3233458 70.3550001,60.5749999 C69.526573,59.8266541 69.4616542,58.5484271 70.21,57.72 C73.13,54.45 76.28,52.9 79.49,53.09 C84.4,53.39 87.49,57.75 87.61,57.93 C87.9299771,58.370635 88.0564438,58.9226936 87.9601929,59.458679 C87.863942,59.9946644 87.5532968,60.4682275 87.1,60.77 C86.7409036,61.0144534 86.3142819,61.1403418 85.88,61.13 L85.88,61.13 Z" id="Path" fill="#603913"></path>
                <path d="M35.33,61.13 C34.6630943,61.1365865 34.0367876,60.8103069 33.66,60.26 L33.66,60.26 C33.66,60.26 31.55,57.32 28.66,57.15 C26.76,57.01 24.73,58.15 22.66,60.43 C21.9116542,61.2584271 20.6334272,61.3233458 19.8050001,60.5749999 C18.976573,59.8266541 18.9116542,58.5484271 19.66,57.72 C22.58,54.45 25.79,52.93 28.94,53.09 C33.85,53.39 36.94,57.75 37.05,57.93 C37.5128603,58.5461364 37.5805538,59.3733932 37.2240157,60.0565801 C36.8674775,60.7397669 36.1501406,61.1573359 35.38,61.13 L35.33,61.13 Z" id="Path" fill="#603913"></path>
                <path d="M104.33,13.15 C103.05943,13.1479248 101.955695,12.2756848 101.66,11.04 C98.9,8.71 80.71,5.48 53.56,5.48 C26.41,5.48 8.21,8.71 5.45,11.04 C5.119178,12.3799995 3.84329049,13.2647445 2.47235641,13.1048022 C1.10142234,12.9448599 0.0634692656,11.7901668 0.05,10.41 C0.05,0.75 41.05,0 53.56,0 C66.07,0 107.07,0.75 107.07,10.41 C107.07,11.9232602 105.84326,13.15 104.33,13.15 Z" id="Path" fill="#FFDE17"></path>
            </g>
            <g id="face_x5f_13" transform="translate(124.416371, 130.569987)">
                <ellipse id="Oval" fill="#FCB9B9" cx="16.5436291" cy="18.4600127" rx="11.83" ry="6.69"></ellipse>
                <ellipse id="Oval" fill="#FCB9B9" cx="80.9036291" cy="18.4600127" rx="11.83" ry="6.69"></ellipse>
                <path d="M54.0236291,46.5500127 C52.9024911,46.6190483 51.9376648,45.7661507 51.8686292,44.6450127 C51.7995936,43.5238747 52.6524911,42.5590484 53.7736291,42.4900127 C68.3236291,40.6500127 72.1136291,31.1500127 72.2636291,30.7500127 C72.5172877,30.0676355 73.1157218,29.5724181 73.8335071,29.4509042 C74.5512925,29.3293903 75.2793804,29.6000408 75.7435071,30.1609042 C76.2076339,30.7217676 76.3372877,31.4876355 76.0836291,32.1700127 C75.8936291,32.6700127 71.3936291,44.3700127 54.2836291,46.5300127 L54.0236291,46.5500127 Z" id="Path" fill="#603913"></path>
                <path d="M98.2336291,7.53001273 C98.2931978,5.55171282 97.5480379,3.63380813 96.1684635,2.21465577 C94.7888891,0.79550341 92.8928224,-0.00359142027 90.9136291,-2.84217094e-14 L7.31362909,-2.84217094e-14 C5.3352974,-0.00367959483 3.44018117,0.79572652 2.06217672,2.21520306 C0.684172269,3.6346796 -0.0587054617,5.55265988 0.00362909106,7.53001273 C0.303629091,17.0600127 3.58362909,32.2400127 21.3036291,32.2400127 C47.1236291,32.2400127 44.3036291,7.29001273 44.3036291,7.29001273 L53.9236291,7.29001273 C53.9236291,7.29001273 51.1136291,32.2400127 76.9236291,32.2400127 C94.6536291,32.2400127 97.9236291,17.0600127 98.2336291,7.53001273 Z" id="Path" fill="#231F20"></path>
                <path d="M11.5836291,21.8700174 C11.2395924,21.8700174 10.9079171,21.7417429 10.6536291,21.5100127 C5.24362909,16.5100127 5.65362909,7.26001273 5.65362909,6.87001273 C5.64857722,6.50045163 5.80228206,6.1464744 6.07576067,5.89785748 C6.34923929,5.64924055 6.71622025,5.52986705 7.08362909,5.57001273 C7.44626641,5.58552771 7.78765548,5.74535938 8.03181489,6.01393474 C8.2759743,6.28251009 8.40264306,6.63754204 8.38362909,7.00001273 C8.38362909,7.08001273 8.04362909,15.3500127 12.5236291,19.5000127 C12.9345507,19.884808 13.0682491,20.4818126 12.8606947,21.0051147 C12.6531402,21.5284168 12.1465871,21.871482 11.5836291,21.8700174 L11.5836291,21.8700174 Z" id="Path" fill="#FFFFFF"></path>
                <path d="M63.2936291,21.8701519 C62.9495924,21.8701519 62.6179171,21.7417429 62.3636291,21.5100127 C56.9436291,16.5100127 57.3636291,7.26001273 57.3636291,6.87001273 C57.3648892,6.50249273 57.5204757,6.15240493 57.79242,5.90518277 C58.0643644,5.6579606 58.4276523,5.53634442 58.7936291,5.57001273 C59.1562664,5.58552771 59.4976555,5.74535938 59.7418149,6.01393474 C59.9859743,6.28251009 60.1126431,6.63754204 60.0936291,7.00001273 C60.0936291,7.08001273 59.7536291,15.3500127 64.2236291,19.5000127 C64.6443605,19.8792922 64.7859481,20.4796351 64.5790301,21.0069423 C64.3721121,21.5342494 63.8600236,21.8780865 63.2936291,21.8701519 L63.2936291,21.8701519 Z" id="Path" fill="#FFFFFF"></path>
            </g>
            <g id="face_x5f_14" transform="translate(129.140000, 133.472945)">
                <ellipse id="Oval" fill="#FCB9B9" cx="11.83" cy="15.5570546" rx="11.83" ry="6.69"></ellipse>
                <ellipse id="Oval" fill="#FCB9B9" cx="76.19" cy="15.5570546" rx="11.83" ry="6.69"></ellipse>
                <path d="M73.35,19.1470546 C71.35,14.6570546 65.83,17.8870546 65.83,17.8870546 C65.83,17.8870546 63.03,12.1570546 58.83,14.7870546 C52.08,19.0370546 61.98,30.5570546 61.98,30.5570546 C61.98,30.5570546 76.63,26.4170546 73.35,19.1470546 Z" id="Path" fill="#DA1C5C"></path>
                <path d="M45.86,35.7770546 L45.51,35.7770546 C44.3861005,35.7632475 43.4861929,34.8409541 43.5,33.7170546 C43.5138071,32.5931552 44.4361005,31.6932475 45.56,31.7070546 L45.86,31.7070546 C47.4114533,31.7846265 48.9428015,31.3294562 50.2,30.4170546 C51.1827155,29.6423012 51.5812977,28.3389375 51.2,27.1470546 C51.131119,26.9763159 51.0212097,26.8251906 50.88,26.7070546 C50.4869131,26.4906486 50.0346145,26.4065 49.59,26.4670546 C49.0656764,26.5085869 48.5502332,26.6264987 48.06,26.8170546 C47.7155183,27.0417557 47.3464499,27.22629 46.96,27.3670546 C45.9576032,27.8613495 44.7442949,27.4494515 44.25,26.4470546 C43.7557051,25.4446578 44.1676032,24.2313495 45.17,23.7370546 C45.4488718,23.5576655 45.7395323,23.3973012 46.04,23.2570546 C46.8149933,22.6403841 47.158897,21.6282129 46.92,20.6670546 C45.7270161,20.8309581 44.6683444,21.515981 44.03,22.5370546 C43.6727344,23.1658421 43.0071533,23.5562668 42.2839746,23.5612595 C41.5607958,23.5662521 40.8898876,23.1850543 40.5239745,22.5612594 C40.1580614,21.9374646 40.1527343,21.1658421 40.51,20.5370546 C41.8670605,18.2352315 44.3091962,16.7895777 46.98,16.7070546 C47.7082424,16.6586341 48.4355414,16.8144839 49.08,17.1570546 C49.8883004,17.6462597 50.4840921,18.4204323 50.75,19.3270546 C51.1055744,20.3553861 51.1814985,21.4597369 50.97,22.5270546 C51.8488773,22.6480738 52.6820611,22.9923646 53.39,23.5270546 C54.0369328,24.0373085 54.5514433,24.6958819 54.89,25.4470546 C56.0641976,28.2937148 55.240218,31.5733974 52.86,33.5270546 C50.8644738,35.0780551 48.3855019,35.8748675 45.86,35.7770546 Z" id="Path" fill="#603913"></path>
                <path d="M76.38,8.05705464 C75.714966,8.06589639 75.0890441,7.74356538 74.71,7.19705464 L74.71,7.19705464 C74.71,7.19705464 72.59,4.24705464 69.71,4.08705464 C67.79,3.95705464 65.78,5.08705464 63.71,7.36705464 C63.2241188,7.90295307 62.4892477,8.1389291 61.7822054,7.98609284 C61.0751632,7.83325657 60.5033664,7.31482748 60.2822054,6.62609279 C60.0610444,5.9373581 60.2241187,5.18295301 60.71,4.64705464 C63.64,1.37705464 66.83,-0.182945363 69.99,0.017054637 C74.9,0.327054637 77.99,4.67705464 78.11,4.86705464 C78.4267024,5.30701886 78.5512432,5.85669688 78.4550995,6.39019978 C78.3589559,6.92370268 78.0503646,7.3953251 77.6,7.69705464 C77.2433466,7.94662364 76.8150074,8.0730188 76.38,8.05705464 Z" id="Path" fill="#603913"></path>
                <path d="M25.86,8.05705464 C25.194966,8.06589639 24.5690441,7.74356538 24.19,7.19705464 L24.19,7.19705464 C24.19,7.19705464 22.07,4.24705464 19.14,4.08705464 C17.22,3.95705464 15.21,5.08705464 13.14,7.36705464 C12.6541188,7.90295307 11.9192477,8.1389291 11.2122054,7.98609284 C10.5051632,7.83325657 9.93336637,7.31482748 9.71220536,6.62609279 C9.49104435,5.9373581 9.65411875,5.18295301 10.14,4.64705464 C13.07,1.37705464 16.25,-0.182945363 19.42,0.017054637 C24.33,0.327054637 27.42,4.67705464 27.54,4.86705464 C27.85574,5.30826004 27.9786859,5.85880833 27.8806373,6.39241909 C27.7825887,6.92602984 27.4719597,7.39691067 27.02,7.69705464 C26.6800005,7.93440121 26.2746361,8.06020395 25.86,8.05705464 Z" id="Path" fill="#603913"></path>
            </g>
            <g id="face_x5f_15" transform="translate(129.160000, 130.403533)">
                <ellipse id="Oval" fill="#FCB9B9" cx="11.83" cy="18.6264674" rx="11.83" ry="6.69"></ellipse>
                <ellipse id="Oval" fill="#FCB9B9" cx="76.19" cy="18.6264674" rx="11.83" ry="6.69"></ellipse>
                <path d="M74.5,14.1865016 C73.9585724,14.1896297 73.4389966,13.9731398 73.06,13.5864674 L62.97,3.49646744 C62.1691871,2.70393882 62.1624714,1.41228033 62.955,0.611467439 C63.7475286,-0.189345448 65.0391871,-0.196061177 65.84,0.596467439 L75.93,10.6864674 C76.556147,11.2535742 76.7584425,12.152944 76.4354355,12.9335442 C76.1124286,13.7141444 75.3337876,14.2076095 74.49,14.1664674 L74.5,14.1865016 Z" id="Path" fill="#603913"></path>
                <path d="M64.41,14.1864674 C63.5662124,14.2276095 62.7875714,13.7341444 62.4645645,12.9535442 C62.1415575,12.172944 62.343853,11.2735742 62.97,10.7064674 L73.06,0.596467439 C73.8552901,-0.198822515 75.1447099,-0.198822474 75.9399999,0.59646753 C76.7352899,1.39175753 76.73529,2.68117738 75.94,3.47646744 L65.84,13.5964674 C65.4617645,13.976978 64.9465079,14.1895664 64.41,14.1864674 Z" id="Path" fill="#603913"></path>
                <path d="M23.61,14.1864674 C23.0685724,14.1896297 22.5489966,13.9731398 22.17,13.5864674 L12.07,3.49646744 C11.27471,2.70117738 11.2747101,1.41175753 12.0700001,0.61646753 C12.8652901,-0.178822474 14.1547099,-0.178822515 14.95,0.616467439 L25.05,10.7064674 C25.676147,11.2735742 25.8784425,12.172944 25.5554355,12.9535442 C25.2324286,13.7341444 24.4537876,14.2276095 23.61,14.1864674 Z" id="Path" fill="#603913"></path>
                <path d="M13.51,14.1864674 C12.6662124,14.2276095 11.8875714,13.7341444 11.5645645,12.9535442 C11.2415575,12.172944 11.443853,11.2735742 12.07,10.7064674 L22.17,0.596467439 C22.9652901,-0.198822515 24.2547099,-0.198822474 25.0499999,0.59646753 C25.8452899,1.39175753 25.84529,2.68117738 25.05,3.47646744 L14.95,13.5964674 C14.5693326,13.9794689 14.0499668,14.1922645 13.51,14.1864674 L13.51,14.1864674 Z" id="Path" fill="#603913"></path>
                <path d="M48.84,33.5964674 L39.14,33.5964674 C34.5986022,33.5909493 30.9199939,29.9078685 30.9199939,25.3664674 L30.9199939,25.3664674 C30.9173457,23.1846558 31.7822071,21.0912967 33.3240439,19.5475842 C34.8658807,18.0038716 36.9581867,17.1364613 39.14,17.1364613 L48.84,17.1364613 C51.0235455,17.1338094 53.1184229,18.0000427 54.6624238,19.5440436 C56.2064248,21.0880446 57.072658,23.182922 57.0700061,25.3664674 L57.0700061,25.3664674 C57.0700061,29.9117709 53.3853035,33.5964674 48.84,33.5964674 L48.84,33.5964674 Z" id="Path" fill="#603913"></path>
            </g>
            <g id="face_x5f_16" transform="translate(129.170000, 134.948337)">
                <ellipse id="Oval" fill="#FCB9B9" cx="11.83" cy="14.0816634" rx="11.83" ry="6.69"></ellipse>
                <ellipse id="Oval" fill="#FCB9B9" cx="76.19" cy="14.0816634" rx="11.83" ry="6.69"></ellipse>
                <path d="M18.57,21.6016634 C18.57,21.6016634 23.5,34.9716634 44.01,34.9716634 C64.52,34.9716634 69.46,21.6016634 69.46,21.6016634 L18.57,21.6016634 Z" id="Path" fill="#603913"></path>
                <path d="M62.14,29.4816634 L62.14,146.751663 C56.8548526,148.371242 51.3577313,149.193619 45.83,149.191667 L42.26,149.191667 C41.36,149.191667 40.48,149.191667 39.63,149.111663 C38.78,149.031663 37.91,149.001663 37.03,148.911663 C33.2721042,148.598718 29.5598909,147.874384 25.96,146.751663 L25.96,29.4816634 L62.14,29.4816634 Z" id="Path" fill="#91910F"></path>
                <path d="M15.27,17.0516634 C14.3658276,17.1035094 13.53966,16.5412999 13.2560798,15.6811848 C12.9724996,14.8210696 13.3022906,13.8777403 14.06,13.3816634 L19.88,9.08166341 L13.88,3.54166341 C13.3441016,3.04685058 13.1128905,2.30372625 13.2734618,1.59221817 C13.4340331,0.880710096 13.9619921,0.308913295 14.6584618,0.0922181076 C15.3549316,-0.12447708 16.1141016,0.0468505025 16.65,0.541663408 L24.45,7.76166341 C24.9062182,8.1678844 25.1517765,8.76032711 25.1167051,9.37017999 C25.0816337,9.98003288 24.7697785,10.5404199 24.27,10.8916634 L16.47,16.6416634 C16.125064,16.90488 15.7038843,17.0487831 15.27,17.0516634 L15.27,17.0516634 Z" id="Path" fill="#603913"></path>
                <path d="M72.76,17.0516634 C72.3272596,17.0516634 71.9061923,16.9113077 71.56,16.6516634 L63.76,10.9016634 C63.2602215,10.5504199 62.9483663,9.99003288 62.9132949,9.38017999 C62.8782235,8.77032711 63.1237818,8.1778844 63.58,7.77166341 L71.38,0.551663408 C71.9158984,0.0568505657 72.6750684,-0.114476971 73.3715381,0.102218223 C74.0680078,0.318913418 74.5959668,0.890710187 74.7565381,1.60221822 C74.9171094,2.31372626 74.6858984,3.05685057 74.15,3.55166341 L68.15,9.10166341 L73.97,13.3916634 C74.7277094,13.8877403 75.0575004,14.8310696 74.7739202,15.6911848 C74.49034,16.5512999 73.6641724,17.1135094 72.76,17.0616634 L72.76,17.0516634 Z" id="Path" fill="#603913"></path>
            </g>
</svg>