<?xml version="1.0" encoding="UTF-8"?>
<svg width="350px" height="350px" viewBox="0 0 350 350" version="1.1" xmlns="http://www.w3.org/2000/svg" xmlns:xlink="http://www.w3.org/1999/xlink">
    <title>greenpill_Amaxist</title>
    <defs>
        <linearGradient x1="-6.70728952%" y1="-6.24102667%" x2="151.942988%" y2="151.104662%" id="linearGradient-1">
            <stop stop-color="#006633" offset="0%"></stop>
            <stop stop-color="#02092E" offset="40%"></stop>
            <stop stop-color="#00FF80" offset="100%"></stop>
        </linearGradient>
        <linearGradient x1="20.5330373%" y1="49.969044%" x2="117.592505%" y2="49.7999236%" id="linearGradient-2">
            <stop stop-color="#00A859" offset="0%"></stop>
            <stop stop-color="#00A859" offset="43.14%"></stop>
            <stop stop-color="#00A859" offset="100%"></stop>
        </linearGradient>
    </defs>
            <rect id="background" fill="url(#linearGradient-1)" x="0" y="0" width="350" height="350"></rect>
            <g id="body_x5F_2" transform="translate(96.000000, 144.000000)">
                <g id="Group" transform="translate(33.865023, 116.829837)" stroke="#000000" stroke-width="0.216">
                    <g transform="translate(60.035971, 0.834499)" id="Path">
                        <polygon points="20.8458233 0 42.1085631 34.6317016 20.8458233 23.3659674 0.416916466 34.6317016"></polygon>
                        <polygon points="20.8458233 61.3356643 42.1085631 36.3006993 21.2627398 44.2284382 0 36.3006993"></polygon>
                        <polygon fill="#FDBD2F" points="20.8458233 23.3659674 42.1085631 34.6317016 20.8458233 41.7249417"></polygon>
                        <polygon fill="#3CB877" points="20.8458233 23.3659674 0.416916466 34.6317016 20.8458233 41.7249417"></polygon>
                        <polygon fill="#FDBD2F" points="20.8458233 0 42.1085631 34.6317016 20.8458233 23.3659674"></polygon>
                        <polygon fill="#41BA8E" points="20.8458233 0.417249417 0.416916466 34.6317016 20.8458233 23.3659674"></polygon>
                        <polygon fill="#00A859" points="0 36.3006993 21.2627398 44.2284382 20.8458233 61.3356643"></polygon>
                        <polygon fill="#FDBD2F" points="41.6916466 36.3006993 21.2627398 44.2284382 20.8458233 61.3356643"></polygon>
                    </g>
                    <g id="Path">
                        <polygon points="20.8458233 0 41.6916466 34.6317016 20.4289069 23.3659674 0 34.6317016"></polygon>
                        <polygon points="20.4289069 61.3356643 41.6916466 36.3006993 20.8458233 44.2284382 0 36.3006993"></polygon>
                        <polygon fill="#FDBD2F" points="20.4289069 23.3659674 41.6916466 34.6317016 20.4289069 41.7249417"></polygon>
                        <polygon fill="#3CB877" points="20.4289069 23.3659674 0 34.6317016 20.4289069 41.7249417"></polygon>
                        <polygon fill="#FDBD2F" points="20.4289069 0 41.6916466 34.6317016 20.4289069 23.3659674"></polygon>
                        <polygon fill="#41BA8E" points="20.4289069 0.417249417 0 34.6317016 20.4289069 23.3659674"></polygon>
                        <polygon fill="#00A859" points="0 36.3006993 20.8458233 44.2284382 20.4289069 61.3356643"></polygon>
                        <polygon fill="#FDBD2F" points="41.6916466 36.3006993 20.8458233 44.2284382 20.4289069 61.3356643"></polygon>
                    </g>
                </g>
                <g id="Group" transform="translate(122.251314, 2.051016)">
                    <path d="M25.014988,69.2986347 L39.6070643,72.63663 C38.3563149,76.8091242 37.1055655,80.9816183 34.6040667,84.7368631 L21.6796563,78.4781218 L25.014988,69.2986347 L25.014988,69.2986347 Z" id="Path" fill="#00A859"></path>
                    <path d="M35.8548161,17.9769563 L46.6946442,62.2053946 C47.9453936,77.643623 27.0995703,74.3056277 24.1811551,68.0468864 L22.5134892,35.0841825 L22.5134892,32.9979354 C23.7642386,24.2356976 30.4349021,22.1494505 35.8548161,17.9769563 L35.8548161,17.9769563 Z" id="Path" stroke="#00A859" stroke-width="0.2837" fill="#FDBD2F" stroke-linecap="round" stroke-linejoin="round"></path>
                    <path d="M17.9274081,83.0678654 C18.761241,80.5643689 19.5950739,78.8953713 22.0965727,78.0608724 L35.0209832,84.3196137 C35.4378996,86.8231102 35.4378996,88.9093573 32.5194844,90.9956044 C34.6040667,105.182085 25.014988,107.268332 21.2627398,107.685581 C18.761241,107.685581 17.5104916,104.347586 20.0119904,102.678588 C23.7642386,102.261339 27.0995703,100.592341 27.9334033,95.585348 C27.5164868,89.3266067 23.7642386,87.657609 20.4289069,87.2403596 C17.0935751,86.8231102 10.8398281,89.3266067 12.0905775,96.4198468 C11.2567446,98.5060939 8.7552458,98.5060939 7.08757993,96.8370962 C6.253747,87.2403596 12.9244105,83.4851149 17.9274081,83.0678654 L17.9274081,83.0678654 Z" id="Path" fill="#20B471"></path>
                    <path d="M6.253747,18.3942058 L0,0.0352314013 C5.83683053,-0.799267433 28.3503197,13.3872128 31.6856515,21.7322011 L22.0965727,32.9979354 C18.3443245,24.652947 11.2567446,21.7322011 6.253747,18.3942058 L6.253747,18.3942058 Z" id="Path" fill="#00A859"></path>
                    <path d="M22.0965727,35.0841825 C25.014988,34.666933 27.9334033,34.666933 30.8518185,39.2566766 L33.3533173,58.0329004 C31.6856515,63.4571428 27.0995703,64.2916417 23.7642386,63.8743922" id="Path" stroke="#00A859" stroke-width="0.2837" stroke-linecap="round" stroke-linejoin="round"></path>
                </g>
                <g id="Group" transform="translate(0.000000, 2.048927)">
                    <path d="M21.7744454,69.3007229 L7.18236905,72.2214688 C8.01620198,76.393963 9.26695138,80.9837066 11.7684502,84.3217019 L24.6928606,78.0629607 L21.7744454,69.3007229 L21.7744454,69.3007229 Z" id="Path" fill="#00A859"></path>
                    <path d="M12.6022831,17.1445457 L0.0947891158,61.372984 C-1.57287675,76.8112124 19.2729466,74.3077159 22.6082783,68.0489747 L25.5266936,34.6690213 L25.5266936,32.5827742 C24.2759442,23.8205364 17.6052807,21.7342893 12.6022831,17.1445457 Z" id="Path" stroke="#00A859" stroke-width="0.2837" fill="#FDBD2F" stroke-linecap="round" stroke-linejoin="round"></path>
                    <path d="M28.4451088,83.0699537 C27.6112759,80.5664572 26.777443,78.8974595 24.2759442,78.0629607 L11.3515337,84.3217019 C10.9346172,86.8251984 10.5177008,88.9114455 13.436116,90.9976926 C10.9346172,105.184173 20.523696,107.687669 24.2759442,108.104919 C26.777443,108.104919 28.4451088,104.766923 25.5266936,103.097926 C21.7744454,102.680676 18.4391136,100.594429 17.6052807,96.0046856 C18.4391136,89.7459443 22.1913618,88.0769467 25.1097771,87.6596973 C28.4451088,87.6596973 34.6988558,89.7459443 33.03119,97.2564339 C33.8650229,99.3426809 36.3665217,99.7599304 38.0341876,98.0909327 C40.1187699,88.0769467 33.03119,83.4872031 28.4451088,83.0699537 L28.4451088,83.0699537 Z" id="Path" fill="#20B471"></path>
                    <path d="M41.7864358,18.396294 L48.4570992,0.0373196412 C42.6202687,-0.797179193 19.689863,12.5548022 16.3545313,20.8997905 L25.5266936,32.5827742 C29.2789418,24.2377858 36.7834382,21.7342893 41.7864358,18.396294 L41.7864358,18.396294 Z" id="Path" fill="#00A859"></path>
                    <path d="M25.5266936,34.6690213 C22.6082783,34.2517719 19.689863,34.2517719 16.7714478,38.424266 L13.8530325,57.6177392 C15.5206984,63.0419816 19.689863,63.8764805 23.4421112,63.4592311" id="Path" stroke="#00A859" stroke-width="0.2837" stroke-linecap="round" stroke-linejoin="round"></path>
                </g>
                <g id="Group" transform="translate(38.451104, 0.000000)">
                    <path d="M15.4259093,0 L78.3802957,0 C87.1355415,0 93.806205,8.76223776 93.806205,19.1934732 L93.806205,23.3659674 C93.806205,34.2144522 86.718625,42.5594406 78.3802957,42.5594406 L15.4259093,42.5594406 C6.67066346,42.5594406 0,33.7972028 0,23.3659674 L0,19.1934732 C0,8.34498834 6.67066346,0 15.4259093,0 Z" id="Path" fill="#00A859"></path>
                    <path d="M15.4259093,5.00699301 L78.3802957,5.00699301 C87.1355415,5.00699301 93.806205,13.7692308 93.806205,24.2004662 L93.806205,28.3729604 C93.806205,39.2214452 86.718625,47.5664336 78.3802957,47.5664336 L15.4259093,47.5664336 C6.67066346,47.5664336 0,38.8041958 0,28.3729604 L0,24.2004662 C0,13.7692308 6.67066346,5.00699301 15.4259093,5.00699301 Z" id="Path" fill="#20B471"></path>
                </g>
                <path d="M58.046178,80.9463869 L111.411486,80.1118881 C120.583648,80.1118881 119.332899,89.2913753 119.332899,99.3053613 L110.577653,99.3053613 L110.160736,91.7948718 L59.2969274,91.7948718 L59.2969274,99.7226107 L50.1247651,99.7226107 C48.8740157,84.7016317 49.7078486,80.9463869 58.046178,80.9463869 L58.046178,80.9463869 Z" id="Path" stroke="#00A859" stroke-width="0.5666" fill="#00A859"></path>
                <g id="Group" transform="translate(30.529691, 99.722611)">
                    <path d="M10.4229117,0 L35.8548161,0 C38.7732314,0 40.8578137,2.08624709 40.8578137,4.17249417 L40.8578137,5.00699301 C40.8578137,7.51048951 38.3563149,9.17948718 35.8548161,9.17948718 L10.4229117,9.17948718 C7.5044964,9.17948718 5.41991406,7.09324009 5.41991406,5.00699301 L5.41991406,4.17249417 C5.41991406,1.66899767 7.5044964,0 10.4229117,0 Z" id="Path" stroke="#41BA8E" stroke-width="0.216" fill="#41BA8E"></path>
                    <polygon id="Path" stroke="#00A859" stroke-width="0.5666" fill="#00A859" points="6.253747 7.09324009 40.4408972 7.09324009 47.9453936 24.6177156 0 24.6177156"></polygon>
                </g>
                <g id="Group" transform="translate(90.148746, 99.722611)">
                    <path d="M10.8398281,0 L36.2717326,0 C39.1901478,0 41.2747302,2.08624709 41.2747302,4.17249417 L41.2747302,5.00699301 C41.2747302,7.51048951 38.7732314,9.17948718 36.2717326,9.17948718 L10.8398281,9.17948718 C7.92141286,9.17948718 5.83683053,7.09324009 5.83683053,5.00699301 L5.83683053,4.17249417 C5.41991406,1.66899767 7.92141286,0 10.8398281,0 Z" id="Path" stroke="#41BA8E" stroke-width="0.216" fill="#41BA8E"></path>
                    <polygon id="Path" stroke="#00A859" stroke-width="0.5666" fill="#00A859" points="6.253747 7.09324009 40.8578137 7.09324009 47.9453936 24.6177156 0 24.6177156"></polygon>
                </g>
                <rect id="Rectangle" fill="#00A859" x="70.1367555" y="58.4149184" width="27.0995703" height="22.1142191"></rect>
                <path d="M70.1367555,57.997669 C65.9675908,55.9114219 61.3815097,50.9044289 60.1307603,47.1491841 C63.466092,46.7319347 66.8014237,45.0629371 69.719839,42.1421911 C73.4720872,14.6037296 90.9825788,3.33799534 99.7378246,40.0559441 C101.40549,43.8111888 104.740822,45.4801865 108.076154,46.3146853 C106.825405,50.4871795 103.073156,55.4941725 98.0701587,57.997669 L70.1367555,57.997669 Z" id="Path" stroke="#00A859" stroke-width="0.216" fill="#00A859"></path>
                <path d="M70.1367555,59.6666667 C65.9675908,57.5804196 61.7984262,52.990676 60.5476768,49.2354312 C63.8830085,48.8181818 67.2183402,47.1491841 69.719839,44.2284382 C73.4720872,17.5244755 90.5656623,6.25874126 98.9039917,42.1421911 C100.571658,45.8974359 103.906989,47.5664336 107.242321,48.4009324 C105.991572,52.1561772 102.239323,57.5804196 97.2363258,60.0839161 L70.1367555,60.0839161 L70.1367555,59.6666667 Z" id="Path" fill="#FDBB13"></path>
            </g>
            <g id="body_x5F_1" transform="translate(74.000000, 146.000000)">
                <g id="Group" transform="translate(0.000000, 7.515464)">
                    <path d="M41.25,0 L41.25,37.9948454 L32.5,37.9948454 L9.58333333,37.9948454 L0,37.9948454 C3.75,9.18556701 19.1666667,4.17525773 41.25,0 L41.25,0 Z" id="Path" fill="#20B471"></path>
                    <path d="M7.91666667,38.4123711 L32.5,38.4123711 C32.5,40.9175258 30.8333333,42.1701031 28.3333333,42.5876289 L12.0833333,42.5876289 C9.16666667,41.7525773 7.91666667,40.0824742 7.91666667,38.4123711 L7.91666667,38.4123711 Z" id="Path" fill="#00FF00"></path>
                    <rect id="Rectangle" fill="#00A859" x="13.3333333" y="42.5876289" width="15.8333333" height="15.0309278"></rect>
                    <ellipse id="Oval" fill="#1BB35D" cx="20.8333333" cy="93.5257732" rx="12.5" ry="3.34020619"></ellipse>
                    <path d="M36.6666667,66.3865979 L36.6666667,92.2731959 L5,92.2731959 L5,65.9690722 C9.16666667,50.9381443 32.0833333,49.685567 36.6666667,66.3865979 L36.6666667,66.3865979 Z" id="Path" fill="#00FF00"></path>
                    <path d="M20.4166667,70.9793814 L20.4166667,91.8556701 L5.41666667,91.8556701 L5.41666667,70.9793814 C7.08333333,58.4536082 18.3333333,57.6185567 20.4166667,70.9793814 Z" id="Path" fill="#20B471"></path>
                    <path d="M7.5,94.7783505 L35.4166667,94.7783505 C37.9166667,95.1958763 40,96.4484536 41.25,100.206186 L41.25,114.402062 C40,116.907216 38.75,119.412371 35,119.412371 L0,119.412371 L0,102.293814 C1.25,98.1185567 3.33333333,96.0309278 7.5,94.7783505 Z" id="Path" stroke="#00A859" stroke-width="0.5666" fill="#20B471"></path>
                    <path d="M34.5833333,94.7783505 C37.5,95.1958763 41.25,96.4484536 41.25,100.206186 L41.25,114.402062 C40,118.994845 37.5,119.412371 34.1666667,119.412371 L34.1666667,94.7783505 L34.5833333,94.7783505 Z" id="Path" stroke="#00FF00" stroke-width="0.5666" fill="#00FF00"></path>
                    <path d="M0.416666667,116.907216 L40.4166667,116.907216 L40.4166667,123.170103 C37.9166667,129.850515 30.4166667,128.597938 27.5,123.170103 C23.75,131.938144 14.5833333,127.345361 13.75,123.170103 C10.8333333,130.268041 3.33333333,129.015464 0.416666667,123.170103 L0.416666667,116.907216 Z" id="Path" stroke="#00FF00" stroke-width="0.5666" fill="#00FF00"></path>
                    <rect id="Rectangle" fill="#00FF00" x="41.25" y="2.92268041" width="2.5" height="33.4020619"></rect>
                    <rect id="Rectangle" fill="#00FF00" x="49.5833333" y="2.92268041" width="2.5" height="33.4020619"></rect>
                    <rect id="Rectangle" stroke="#00A859" stroke-width="0.216" fill="#00A859" x="43.75" y="4.59278351" width="5.83333333" height="30.0618557"></rect>
                </g>
                <g id="Group" transform="translate(153.333333, 7.097938)">
                    <path d="M10.4166667,0 L10.4166667,38.4123711 L19.1666667,38.4123711 L42.0833333,38.4123711 L51.6666667,38.4123711 C47.9166667,9.18556701 32.5,4.17525773 10.4166667,0 Z" id="Path" fill="#20B471"></path>
                    <path d="M43.75,38.4123711 L19.1666667,38.4123711 C19.1666667,40.9175258 20.8333333,42.1701031 23.3333333,42.5876289 L39.5833333,42.5876289 C42.5,41.7525773 43.75,39.6649485 43.75,38.4123711 Z" id="Path" fill="#00FF00"></path>
                    <rect id="Rectangle" fill="#00A859" x="22.9166667" y="42.1701031" width="15.8333333" height="15.0309278"></rect>
                    <ellipse id="Oval" fill="#1BB35D" cx="31.25" cy="93.1082474" rx="12.5" ry="3.34020619"></ellipse>
                    <path d="M15.4166667,66.3865979 L15.4166667,92.2731959 L47.0833333,92.2731959 L47.0833333,65.9690722 C42.9166667,50.9381443 19.5833333,49.2680412 15.4166667,66.3865979 L15.4166667,66.3865979 Z" id="Path" fill="#00FF00"></path>
                    <path d="M31.25,70.9793814 L31.25,91.8556701 L46.25,91.8556701 L46.25,70.9793814 C44.5833333,58.4536082 33.3333333,57.2010309 31.25,70.9793814 L31.25,70.9793814 Z" id="Path" fill="#20B471"></path>
                    <path d="M44.1666667,94.7783505 L16.25,94.7783505 C13.75,95.1958763 11.6666667,96.4484536 10.4166667,100.206186 L10.4166667,114.402062 C11.6666667,116.907216 12.9166667,119.412371 16.6666667,119.412371 L51.6666667,119.412371 L51.6666667,102.293814 C50.4166667,98.1185567 48.75,96.0309278 44.1666667,94.7783505 L44.1666667,94.7783505 Z" id="Path" stroke="#00A859" stroke-width="0.5666" fill="#20B471"></path>
                    <path d="M17.0833333,94.7783505 C14.1666667,95.1958763 10.4166667,96.4484536 10.4166667,100.206186 L10.4166667,114.402062 C11.6666667,118.994845 14.1666667,119.412371 17.5,119.412371 L17.0833333,94.7783505 L17.0833333,94.7783505 Z" id="Path" stroke="#00FF00" stroke-width="0.5666" fill="#00FF00"></path>
                    <path d="M51.25,116.907216 L11.25,116.907216 L11.25,123.170103 C13.75,129.850515 21.25,128.597938 24.1666667,123.170103 C27.9166667,131.938144 37.0833333,127.345361 37.9166667,123.170103 C40.8333333,130.268041 48.3333333,129.015464 51.25,123.170103 L51.25,116.907216 L51.25,116.907216 Z" id="Path" stroke="#00FF00" stroke-width="0.5666" fill="#00FF00"></path>
                    <rect id="Rectangle" fill="#00FF00" x="8.33333333" y="2.92268041" width="2.5" height="33.4020619"></rect>
                    <rect id="Rectangle" fill="#00FF00" x="0" y="2.92268041" width="2.5" height="33.4020619"></rect>
                    <rect id="Rectangle" stroke="#00A859" stroke-width="0.216" fill="#00A859" x="2.5" y="4.59278351" width="5.83333333" height="30.0618557"></rect>
                </g>
                <g id="Group" transform="translate(58.319938, 68.891753)">
                    <path d="M30.8467286,2.92268041 L30.8467286,14.1958763 C28.3467286,14.6134021 26.2633953,15.0309278 24.5967286,18.371134 L24.5967286,24.6340206 L12.5133953,24.6340206 L12.9300619,15.4484536 C15.0133953,11.2731959 17.0967286,3.75773196 30.8467286,2.92268041 L30.8467286,2.92268041 Z" id="Path" fill="#00A859"></path>
                    <ellipse id="Oval" stroke="#00A859" stroke-width="0.5666" fill="#00A859" cx="18.3467286" cy="28.8092784" rx="12.9166667" ry="3.75773196"></ellipse>
                    <path d="M9.59672861,24.2164948 L26.6800619,24.2164948 C27.5133953,24.2164948 28.3467286,24.6340206 28.3467286,25.4690722 L28.3467286,32.9845361 C28.3467286,33.8195876 27.5133953,34.2371134 26.6800619,34.2371134 L9.59672861,34.2371134 C8.76339528,34.2371134 7.93006194,33.8195876 7.93006194,32.9845361 L7.93006194,25.4690722 C8.34672861,24.6340206 8.76339528,24.2164948 9.59672861,24.2164948 Z" id="Path" fill="#00FF00"></path>
                    <path d="M9.59672861,34.2371134 L27.5133953,34.2371134 L27.5133953,41.3350515 C30.0133953,42.1701031 32.5133953,42.5876289 32.9300619,46.3453608 L4.59672861,45.9278351 C4.59672861,44.257732 5.43006194,41.7525773 9.59672861,41.3350515 L9.59672861,34.2371134 L9.59672861,34.2371134 Z" id="Path" fill="#00A859"></path>
                    <path d="M0.0133952763,52.1907216 C-0.819938057,39.2474227 37.5133953,38.8298969 35.4300619,51.7731959 L35.4300619,88.5154639 L0.0133952763,88.5154639 C0.0133952763,88.5154639 0.0133952763,52.1907216 0.0133952763,52.1907216 Z" id="Path" fill="#00FF00"></path>
                    <path d="M23.7633953,77.242268 L23.7633953,88.5154639 L0.0133952763,88.5154639 L0.0133952763,77.6597938 C4.18006194,57.2010309 18.7633953,57.6185567 23.7633953,77.242268 Z" id="Path" fill="#00A859"></path>
                    <path d="M1.26339528,88.5154639 L35.4300619,88.5154639 L35.4300619,93.1082474 L34.5967286,93.1082474 C33.7633953,90.185567 31.6800619,90.185567 31.2633953,93.1082474 L29.5967286,93.1082474 C29.1800619,89.7680412 27.0967286,90.185567 26.6800619,93.1082474 L24.5967286,93.1082474 C24.1800619,89.3505155 21.6800619,91.0206186 21.6800619,93.1082474 L20.0133953,93.1082474 C19.1800619,88.5154639 16.6800619,91.4381443 16.6800619,93.1082474 L15.0133953,93.1082474 C14.1800619,89.3505155 12.0967286,91.0206186 12.0967286,93.1082474 L10.4300619,93.1082474 C10.0133953,90.185567 7.51339528,90.185567 7.09672861,93.1082474 L5.43006194,93.1082474 C5.01339528,89.7680412 2.93006194,90.6030928 2.09672861,93.1082474 L0.84672861,93.1082474 L1.26339528,88.5154639 L1.26339528,88.5154639 Z" id="Path" fill="#00A859"></path>
                    <path d="M35.4300619,75.5721649 L35.4300619,88.5154639 L26.6800619,88.5154639 C27.0967286,82.6701031 30.4300619,77.6597938 35.4300619,75.5721649 Z" id="Path" fill="#00A859"></path>
                    <path d="M36.2633953,0 L36.2633953,16.2835052 C32.9300619,16.7010309 31.2633953,15.8659794 30.8467286,14.1958763 L30.8467286,4.17525773 C31.2633953,2.08762887 32.0967286,0 36.2633953,0 Z" id="Path" fill="#00FF00"></path>
                </g>
                <g id="Group" transform="translate(113.958333, 67.639175)">
                    <g transform="translate(4.293042, 4.175258)">
                        <path d="M4.6652917,0 L4.6652917,11.2731959 C7.1652917,11.6907216 9.24862503,12.1082474 10.9152917,15.4484536 L10.9152917,21.7113402 L22.998625,21.7113402 L22.5819584,12.5257732 C20.498625,8.35051546 18.4152917,0.835051546 4.6652917,0 L4.6652917,0 Z" id="Path" fill="#00A859"></path>
                        <ellipse id="Oval" stroke="#00A859" stroke-width="0.5666" fill="#00A859" cx="17.1652917" cy="25.8865979" rx="12.9166667" ry="3.75773196"></ellipse>
                        <path d="M8.4152917,21.2938144 L25.498625,21.2938144 C26.3319584,21.2938144 27.1652917,21.7113402 27.1652917,22.5463918 L27.1652917,30.0618557 C27.1652917,30.8969072 26.3319584,31.314433 25.498625,31.314433 L8.4152917,31.314433 C7.58195836,31.314433 6.74862503,30.8969072 6.74862503,30.0618557 L6.74862503,22.5463918 C7.1652917,21.7113402 7.58195836,21.2938144 8.4152917,21.2938144 Z" id="Path" fill="#00FF00"></path>
                        <path d="M25.9152917,31.314433 L7.99862503,31.314433 L7.99862503,38.4123711 C5.49862503,39.2474227 2.99862503,39.6649485 2.58195836,43.4226804 L30.9152917,43.0051546 C30.9152917,41.3350515 30.0819584,38.8298969 25.9152917,38.4123711 L25.9152917,31.314433 L25.9152917,31.314433 Z" id="Path" fill="#00A859"></path>
                        <path d="M35.498625,49.2680412 C36.3319584,36.3247423 -2.00137497,35.9072165 0.0819583639,48.8505155 L0.0819583639,85.5927835 L35.498625,85.5927835 C35.498625,85.5927835 35.498625,49.2680412 35.498625,49.2680412 Z" id="Path" fill="#00FF00"></path>
                        <path d="M11.748625,74.3195876 L11.748625,85.5927835 L35.498625,85.5927835 L35.498625,74.7371134 C30.9152917,54.2783505 16.748625,54.6958763 11.748625,74.3195876 Z" id="Path" fill="#00A859"></path>
                        <path d="M34.248625,85.5927835 L0.0819583639,85.5927835 L0.0819583639,90.185567 L0.915291697,90.185567 C1.74862503,87.2628866 3.83195836,87.2628866 4.24862503,90.185567 L5.9152917,90.185567 C6.33195836,86.8453608 8.4152917,87.2628866 8.83195836,90.185567 L10.9152917,90.185567 C11.3319584,86.4278351 13.8319584,88.0979381 13.8319584,90.185567 L15.498625,90.185567 C16.3319584,85.5927835 18.8319584,88.5154639 18.8319584,90.185567 L20.0819584,90.185567 C20.9152917,86.4278351 22.998625,88.0979381 22.998625,90.185567 L24.6652917,90.185567 C25.0819584,87.2628866 27.5819584,87.2628866 27.998625,90.185567 L29.6652917,90.185567 C30.0819584,86.8453608 32.1652917,87.6804124 32.998625,90.185567 L34.248625,90.185567 L34.248625,85.5927835 L34.248625,85.5927835 Z" id="Path" fill="#00A859"></path>
                        <path d="M0.0819583639,72.6494845 L0.0819583639,85.5927835 L8.83195836,85.5927835 C8.4152917,79.7474227 4.6652917,74.7371134 0.0819583639,72.6494845 Z" id="Path" fill="#00A859"></path>
                    </g>
                    <path d="M3.125,1.25257732 L3.125,17.5360825 C6.45833333,17.9536082 8.125,17.1185567 8.54166667,15.4484536 L8.54166667,5.42783505 C8.54166667,3.34020619 7.70833333,1.25257732 3.125,1.25257732 Z" id="Path" fill="#00FF00"></path>
                    <path d="M1.04166667,0 L1.04166667,18.7886598 C1.875,18.7886598 3.125,18.7886598 3.125,17.5360825 L3.125,0.835051546 C3.125,0 1.875,0.417525773 1.04166667,0 Z" id="Path" fill="#00A859"></path>
                </g>
                <path d="M97.0833333,67.6391753 L97.0833333,86.4278351 C96.25,86.4278351 95,86.4278351 95,85.1752577 L95,68.4742268 C95,67.6391753 96.25,68.056701 97.0833333,67.6391753 Z" id="Path" fill="#00A859"></path>
                <path d="M97.0833333,63.8814433 L115,63.8814433 L115,86.8453608 C111.666667,94.3608247 97.9166667,91.0206186 97.0833333,86.8453608 L97.0833333,63.8814433 Z" id="Path" fill="#00FF00"></path>
                <path d="M90.4166667,60.9587629 L122.5,60.9587629 C122.5,62.2113402 122.5,64.2989691 119.583333,64.7164948 L93.75,64.7164948 C90.4166667,64.7164948 90,62.628866 90.4166667,60.9587629 Z" id="Path" fill="#00A859"></path>
                <g id="Group" transform="translate(51.250000, 0.000000)">
                    <path d="M93.75,2.92268041 L8.33333333,2.92268041 L8.33333333,0.835051546 L93.75,0.835051546 L93.75,0.835051546 L93.75,2.92268041 Z M102.5,9.18556701 L100.416667,9.18556701 L100.416667,9.18556701 L100.416667,8.76804124 L100.416667,8.35051546 L100.416667,7.93298969 L100.416667,7.51546392 L100.416667,7.09793814 L100.416667,6.68041237 L100.416667,6.2628866 L100.416667,5.84536082 L100.416667,5.42783505 L100.416667,5.01030928 L100.416667,4.59278351 L100.416667,4.17525773 L100.416667,3.75773196 L100.416667,3.34020619 L100.416667,2.92268041 L100,2.50515464 L99.5833333,2.08762887 L99.1666667,2.08762887 L98.75,2.08762887 L98.3333333,2.08762887 L97.9166667,2.08762887 L97.5,2.08762887 L97.0833333,2.08762887 L96.6666667,2.08762887 L96.25,2.08762887 L95.8333333,2.08762887 L95.4166667,2.08762887 L95,2.08762887 L94.5833333,2.08762887 L94.1666667,2.08762887 L93.75,2.08762887 L93.3333333,2.08762887 L93.3333333,0 L93.75,0 L94.1666667,0 L94.5833333,0 L95,0 L95.4166667,0 L95.8333333,0 L96.25,0 L96.6666667,0 L97.0833333,0 L97.5,0 L97.9166667,0 L98.3333333,0.417525773 L98.75,0.835051546 L99.1666667,1.25257732 L99.5833333,1.67010309 L100,2.08762887 L100.416667,2.50515464 L100.833333,2.92268041 L101.25,3.34020619 L101.666667,3.75773196 L102.083333,4.17525773 L102.083333,4.59278351 L102.083333,5.01030928 L102.083333,5.42783505 L102.083333,5.84536082 L102.083333,6.2628866 L102.083333,6.68041237 L102.083333,7.09793814 L102.083333,7.51546392 L102.083333,7.93298969 L102.083333,8.35051546 L102.5,9.18556701 L102.5,9.18556701 L102.5,9.18556701 Z M100.416667,53.0257732 L100.416667,9.18556701 L102.5,9.18556701 L102.5,52.6082474 L102.5,52.6082474 L100.416667,52.6082474 L100.416667,53.0257732 Z M93.75,61.3762887 L93.75,59.2886598 L93.75,59.2886598 L94.1666667,59.2886598 L94.5833333,59.2886598 L95,59.2886598 L95.4166667,59.2886598 L95.8333333,59.2886598 L96.25,59.2886598 L96.6666667,59.2886598 L97.0833333,59.2886598 L97.5,59.2886598 L97.9166667,59.2886598 L98.3333333,59.2886598 L98.75,59.2886598 L99.1666667,59.2886598 L99.5833333,59.2886598 L100,59.2886598 L100.416667,58.871134 L100.833333,58.4536082 L100.833333,58.0360825 L100.833333,57.6185567 L100.833333,57.2010309 L100.833333,56.7835052 L100.833333,56.3659794 L100.833333,55.9484536 L100.833333,55.5309278 L100.833333,55.1134021 L100.833333,54.6958763 L100.833333,54.2783505 L100.833333,53.8608247 L100.833333,53.443299 L100.833333,53.0257732 L100.833333,52.6082474 L100.833333,52.1907216 L102.916667,52.1907216 L102.916667,52.6082474 L102.916667,53.0257732 L102.916667,53.443299 L102.916667,53.8608247 L102.916667,54.2783505 L102.916667,54.6958763 L102.916667,55.1134021 L102.916667,55.5309278 L102.916667,55.9484536 L102.916667,56.3659794 L102.916667,56.7835052 L102.5,57.2010309 L100.833333,58.0360825 L100.416667,58.0360825 L100,58.4536082 L99.5833333,58.871134 L99.5833333,58.871134 L99.1666667,59.2886598 L98.75,59.7061856 L98.3333333,60.1237113 L97.9166667,60.5412371 L97.5,60.5412371 L97.0833333,60.5412371 L96.6666667,60.5412371 L96.25,60.5412371 L95.8333333,60.5412371 L95.4166667,60.5412371 L95,60.5412371 L94.5833333,60.5412371 L94.1666667,60.5412371 L93.75,60.5412371 L93.75,61.3762887 L93.75,61.3762887 L93.75,61.3762887 Z M8.33333333,59.2886598 L93.75,59.2886598 L93.75,61.3762887 L8.33333333,61.3762887 L8.33333333,61.3762887 L8.33333333,59.2886598 Z M0,53.0257732 L2.08333333,53.0257732 L2.08333333,53.0257732 L2.08333333,53.443299 L2.08333333,53.8608247 L2.08333333,54.2783505 L2.08333333,54.6958763 L2.08333333,55.1134021 L2.08333333,55.5309278 L2.08333333,55.9484536 L2.08333333,56.3659794 L2.08333333,56.7835052 L2.08333333,57.2010309 L2.08333333,57.6185567 L2.08333333,58.0360825 L2.08333333,58.4536082 L2.08333333,58.871134 L2.08333333,59.2886598 L2.5,59.7061856 L2.91666667,60.1237113 L3.33333333,60.1237113 L3.75,60.1237113 L4.16666667,60.1237113 L4.58333333,60.1237113 L5,60.1237113 L5.41666667,60.1237113 L5.83333333,60.1237113 L6.25,60.1237113 L6.66666667,60.1237113 L7.08333333,60.1237113 L7.5,60.1237113 L7.91666667,60.1237113 L8.33333333,60.1237113 L8.75,60.1237113 L9.16666667,60.1237113 L9.16666667,62.2113402 L8.75,62.2113402 L8.33333333,62.2113402 L7.91666667,62.2113402 L7.5,62.2113402 L7.08333333,62.2113402 L6.66666667,62.2113402 L6.25,62.2113402 L5.83333333,62.2113402 L5.41666667,62.2113402 L5,62.2113402 L4.58333333,62.2113402 L3.75,59.7061856 L3.33333333,59.2886598 L2.91666667,58.871134 L2.5,58.4536082 L2.08333333,58.0360825 L1.66666667,57.6185567 L2.08333333,58.0360825 L1.66666667,58.0360825 L1.25,57.6185567 L0.833333333,57.2010309 L0.833333333,56.7835052 L0.833333333,56.3659794 L0.833333333,55.9484536 L0.833333333,55.5309278 L0.833333333,55.1134021 L0.833333333,54.6958763 L0.833333333,54.2783505 L0.833333333,53.8608247 L0.833333333,53.443299 L0.833333333,53.0257732 L0.833333333,53.0257732 L0,53.0257732 L0,53.0257732 Z M2.08333333,9.18556701 L2.08333333,52.6082474 L0,52.6082474 L0,9.18556701 L0,9.18556701 L2.08333333,9.18556701 Z M8.33333333,0.835051546 L8.33333333,2.92268041 L8.33333333,2.92268041 L7.91666667,2.92268041 L7.5,2.92268041 L7.08333333,2.92268041 L6.66666667,2.92268041 L6.25,2.92268041 L5.83333333,2.92268041 L5.41666667,2.92268041 L5,2.92268041 L4.58333333,2.92268041 L4.16666667,2.92268041 L3.75,2.92268041 L3.33333333,2.92268041 L2.91666667,2.92268041 L2.5,2.92268041 L2.08333333,2.92268041 L1.66666667,3.34020619 L3.75,5.01030928 L3.75,5.42783505 L3.75,5.84536082 L3.75,6.2628866 L3.75,6.68041237 L3.75,7.09793814 L3.75,7.51546392 L3.75,7.93298969 L3.75,8.35051546 L3.75,8.76804124 L3.75,9.18556701 L3.75,9.60309278 L3.75,10.0206186 L3.75,10.4381443 L3.75,10.8556701 L3.75,11.2731959 L1.66666667,11.2731959 L1.66666667,10.8556701 L1.66666667,10.4381443 L1.66666667,10.0206186 L1.66666667,9.60309278 L1.66666667,9.18556701 L1.66666667,8.76804124 L1.66666667,8.35051546 L1.66666667,7.93298969 L1.66666667,7.51546392 L1.66666667,7.09793814 L1.66666667,6.68041237 L2.08333333,6.2628866 L2.5,5.84536082 L2.91666667,5.42783505 L3.33333333,5.01030928 L3.75,4.59278351 L4.16666667,4.17525773 L4.58333333,3.75773196 L5,3.34020619 L5.41666667,2.92268041 L5.83333333,2.50515464 L6.25,2.50515464 L6.66666667,2.50515464 L7.08333333,2.50515464 L7.5,2.50515464 L7.91666667,2.50515464 L8.33333333,2.50515464 L8.75,2.50515464 L9.16666667,2.50515464 L9.58333333,2.50515464 L10,2.50515464 L8.33333333,0.835051546 L8.33333333,0.835051546 L8.33333333,0.835051546 Z" id="Shape" fill="#00A859" fill-rule="nonzero"></path>
                    <path d="M8.33333333,2.08762887 L93.75,2.08762887 C97.9166667,2.08762887 101.25,5.42783505 101.25,9.60309278 L101.25,53.0257732 C101.25,57.2010309 97.9166667,60.5412371 93.75,60.5412371 L8.33333333,60.5412371 C4.16666667,60.5412371 0.833333333,57.2010309 0.833333333,53.0257732 L0.833333333,9.18556701 C1.25,5.42783505 4.58333333,2.08762887 8.33333333,2.08762887 Z" id="_1_0" fill="#FFD908"></path>
                </g>
                <path d="M90.4166667,12.5257732 L114.166667,12.5257732 C124.583333,12.5257732 132.916667,18.371134 132.916667,25.8865979 L132.916667,27.1391753 C132.916667,34.6546392 124.583333,40.5 114.166667,40.5 L90.4166667,40.5 C80,40.5 71.6666667,34.6546392 71.6666667,27.1391753 L71.6666667,25.8865979 C71.6666667,18.371134 80,12.5257732 90.4166667,12.5257732 Z" id="Path" fill="#00FF00"></path>
                <path d="M90.8333333,12.5257732 L114.583333,12.5257732 C125,12.5257732 133.333333,18.371134 133.333333,25.8865979 L133.333333,27.1391753 C133.333333,34.6546392 125,40.5 114.583333,40.5 L90.8333333,40.5 C80.4166667,40.5 72.0833333,34.6546392 72.0833333,27.1391753 L72.0833333,25.8865979 C72.0833333,18.371134 80.4166667,12.5257732 90.8333333,12.5257732 Z" id="Path" fill="#20B471"></path>
                <path d="M77.0833333,45.9278351 L80.8333333,45.9278351 C82.5,45.9278351 83.75,46.7628866 83.75,48.0154639 L83.75,48.0154639 C83.75,49.2680412 82.5,50.1030928 80.8333333,50.1030928 L77.0833333,50.1030928 C75.4166667,50.1030928 74.1666667,49.2680412 74.1666667,48.0154639 L74.1666667,48.0154639 C74.5833333,46.7628866 75.8333333,45.9278351 77.0833333,45.9278351 Z" id="Path" fill="#FFFFFF"></path>
                <path d="M77.0833333,46.3453608 L80.8333333,46.3453608 C82.5,46.3453608 83.75,47.1804124 83.75,48.4329897 L83.75,48.4329897 C83.75,49.685567 82.5,50.5206186 80.8333333,50.5206186 L77.0833333,50.5206186 C75.4166667,50.5206186 74.1666667,49.685567 74.1666667,48.4329897 L74.1666667,48.4329897 C74.5833333,47.1804124 75.8333333,46.3453608 77.0833333,46.3453608 Z" id="Path" fill="#9900CC"></path>
                <path d="M92.9166667,45.9278351 L96.6666667,45.9278351 C98.3333333,45.9278351 99.5833333,46.7628866 99.5833333,48.0154639 L99.5833333,48.0154639 C99.5833333,49.2680412 98.3333333,50.1030928 96.6666667,50.1030928 L92.9166667,50.1030928 C91.25,50.1030928 90,49.2680412 90,48.0154639 L90,48.0154639 C90,46.7628866 91.25,45.9278351 92.9166667,45.9278351 Z" id="Path" fill="#FFFFFF"></path>
                <path d="M92.9166667,46.3453608 L96.6666667,46.3453608 C98.3333333,46.3453608 99.5833333,47.1804124 99.5833333,48.4329897 L99.5833333,48.4329897 C99.5833333,49.685567 98.3333333,50.5206186 96.6666667,50.5206186 L92.9166667,50.5206186 C91.25,50.5206186 90,49.685567 90,48.4329897 L90,48.4329897 C90,47.1804124 91.25,46.3453608 92.9166667,46.3453608 Z" id="Path" fill="#9900CC"></path>
                <path d="M108.75,45.9278351 L112.5,45.9278351 C114.166667,45.9278351 115.416667,46.7628866 115.416667,48.0154639 L115.416667,48.0154639 C115.416667,49.2680412 114.166667,50.1030928 112.5,50.1030928 L108.75,50.1030928 C107.083333,50.1030928 105.833333,49.2680412 105.833333,48.0154639 L105.833333,48.0154639 C105.833333,46.7628866 107.083333,45.9278351 108.75,45.9278351 Z" id="Path" fill="#FFFFFF"></path>
                <path d="M108.75,46.3453608 L112.5,46.3453608 C114.166667,46.3453608 115.416667,47.1804124 115.416667,48.4329897 L115.416667,48.4329897 C115.416667,49.685567 114.166667,50.5206186 112.5,50.5206186 L108.75,50.5206186 C107.083333,50.5206186 105.833333,49.685567 105.833333,48.4329897 L105.833333,48.4329897 C105.833333,47.1804124 107.083333,46.3453608 108.75,46.3453608 Z" id="Path" fill="#9900CC"></path>
                <path d="M124.166667,45.9278351 L127.916667,45.9278351 C129.583333,45.9278351 130.833333,46.7628866 130.833333,48.0154639 L130.833333,48.0154639 C130.833333,49.2680412 129.583333,50.1030928 127.916667,50.1030928 L124.166667,50.1030928 C122.5,50.1030928 121.25,49.2680412 121.25,48.0154639 L121.25,48.0154639 C121.25,46.7628866 122.5,45.9278351 124.166667,45.9278351 Z" id="Path" fill="#FFFFFF"></path>
                <path d="M124.166667,46.3453608 L127.916667,46.3453608 C129.583333,46.3453608 130.833333,47.1804124 130.833333,48.4329897 L130.833333,48.4329897 C130.833333,49.685567 129.583333,50.5206186 127.916667,50.5206186 L124.166667,50.5206186 C122.5,50.5206186 121.25,49.685567 121.25,48.4329897 L121.25,48.4329897 C121.25,47.1804124 122.5,46.3453608 124.166667,46.3453608 Z" id="Path" fill="#9900CC"></path>
                <polygon id="Path" points="105 22.5463918 109.583333 30.0618557 105 27.556701 100.416667 30.0618557"></polygon>
                <polygon id="Path" points="104.583333 35.9072165 109.583333 30.4793814 105 32.1494845 100 30.4793814"></polygon>
                <polygon id="Path" fill="#FDBD2F" points="102.083333 24.6340206 110 28.8092784 102.083333 31.7319588"></polygon>
                <polygon id="Path" fill="#FFE400" points="102.083333 24.6340206 94.1666667 28.8092784 102.083333 31.7319588"></polygon>
                <polygon id="Path" fill="#FDBD2F" points="102.083333 15.8659794 110 28.8092784 102.083333 24.6340206"></polygon>
                <polygon id="Path" fill="#FFFF00" points="102.083333 15.8659794 94.1666667 28.8092784 102.083333 24.6340206"></polygon>
                <polygon id="Path" fill="#FFCC00" points="94.1666667 29.6443299 102.083333 32.5670103 102.083333 39.2474227"></polygon>
                <polygon id="Path" fill="#FDBD2F" points="110 29.6443299 102.083333 32.5670103 102.083333 39.2474227"></polygon>
            </g>
            <g id="head_x5F_3" transform="translate(145.000000, 55.000000)">
                <path d="M0,13.8850024 C15.0810811,0.948530544 40.6351351,-9.48410802 62,13.8850024 L62,59.788612 L32.6756757,89 L0,59.788612 L0,13.8850024 L0,13.8850024 Z" id="Path" fill="#20B471"></path>
                <g id="Group" transform="translate(17.594595, 63.127056)">
                    <g>
                        <path d="M4.60810811,0.417305542 L4.60810811,1.25191663 L4.60810811,1.25191663 L4.18918919,1.66922217 L3.77027027,1.66922217 L3.35135135,2.08652771 L2.93243243,2.50383325 L2.51351351,2.9211388 L2.09459459,2.9211388 L1.67567568,3.33844434 L1.25675676,3.75574988 L1.25675676,4.17305542 L1.25675676,4.59036097 L1.25675676,5.00766651 L1.25675676,5.42497205 L1.25675676,5.84227759 L1.25675676,6.25958314 L1.25675676,6.67688868 L1.25675676,7.09419422 L1.25675676,7.51149976 L1.25675676,7.92880531 L1.25675676,8.34611085 L1.25675676,8.76341639 L1.25675676,9.18072193 L1.25675676,9.59802748 L1.67567568,10.015333 L2.09459459,10.4326386 L2.51351351,10.8499441 L2.93243243,11.2672496 L3.35135135,11.2672496 L3.77027027,11.2672496 L4.18918919,11.2672496 L4.60810811,11.2672496 L5.02702703,11.2672496 L5.44594595,11.2672496 L5.02702703,12.1018607 L4.60810811,12.1018607 L4.18918919,12.1018607 L3.77027027,12.1018607 L3.35135135,12.1018607 L2.93243243,12.1018607 L2.51351351,11.6845552 L2.09459459,11.2672496 L1.67567568,10.8499441 L1.25675676,10.4326386 L0.837837838,10.015333 L0.418918919,9.59802748 L0,9.18072193 L0,8.76341639 L0,8.34611085 L0,7.92880531 L0,7.51149976 L0,7.09419422 L0,6.67688868 L0,6.25958314 L0,5.84227759 L0,5.42497205 L0,5.00766651 L0,4.59036097 L0.418918919,4.17305542 L0.837837838,3.75574988 L1.25675676,3.33844434 L1.67567568,2.9211388 L2.09459459,2.50383325 L2.51351351,2.08652771 L2.93243243,1.66922217 L3.35135135,1.25191663 L4.60810811,0.417305542 L4.60810811,0.417305542 L4.60810811,0.417305542 Z M4.60810811,0.417305542 C4.60810811,0.417305542 5.02702703,0.417305542 5.02702703,0.417305542 C5.02702703,0.417305542 5.02702703,0.834611085 5.02702703,0.834611085 L4.60810811,0.417305542 Z M25.1351351,1.25191663 L5.02702703,1.25191663 L5.02702703,0.417305542 L25.1351351,0.417305542 L25.1351351,0.417305542 L25.1351351,1.25191663 Z M25.1351351,0.417305542 C25.5540541,0.417305542 25.5540541,0.417305542 25.5540541,0.834611085 C25.5540541,1.25191663 25.5540541,1.25191663 25.1351351,1.25191663 L25.1351351,0.417305542 L25.1351351,0.417305542 Z M25.1351351,10.8499441 L25.1351351,10.015333 L25.1351351,10.015333 L25.5540541,10.015333 L25.972973,10.015333 L26.3918919,10.015333 L26.8108108,10.015333 L27.2297297,10.015333 L27.6486486,10.015333 L28.0675676,10.015333 L28.4864865,9.59802748 L28.9054054,9.18072193 L29.3243243,8.76341639 L29.7432432,8.34611085 L30.1621622,7.92880531 L30.1621622,7.51149976 L30.1621622,7.09419422 L30.1621622,6.67688868 L30.1621622,6.25958314 L30.1621622,5.84227759 L30.1621622,5.42497205 L30.1621622,5.00766651 L30.1621622,4.59036097 L30.1621622,4.17305542 L30.1621622,3.75574988 L30.1621622,3.33844434 L30.1621622,2.9211388 L29.7432432,2.50383325 L29.3243243,2.08652771 L27.6486486,2.9211388 L27.2297297,2.50383325 L26.8108108,2.08652771 L26.3918919,1.66922217 L25.972973,1.25191663 L24.7162162,0.834611085 L25.1351351,0 L25.972973,0.417305542 L26.8108108,0.834611085 L27.2297297,1.25191663 L27.6486486,1.66922217 L28.0675676,2.08652771 L28.4864865,2.50383325 L28.9054054,2.9211388 L29.3243243,3.33844434 L29.7432432,3.75574988 L29.7432432,4.17305542 L29.7432432,4.59036097 L29.7432432,5.00766651 L29.7432432,5.42497205 L29.7432432,5.84227759 L29.7432432,6.25958314 L29.7432432,6.67688868 L29.7432432,7.09419422 L29.7432432,7.51149976 L29.7432432,7.92880531 L29.3243243,8.34611085 L28.9054054,8.76341639 L28.4864865,9.18072193 L28.0675676,9.59802748 L27.6486486,10.015333 L27.2297297,10.4326386 L26.8108108,10.8499441 L26.3918919,11.2672496 L25.972973,11.2672496 L25.5540541,11.2672496 L25.1351351,11.2672496 L24.7162162,11.2672496 L25.1351351,10.8499441 L25.1351351,10.8499441 L25.1351351,10.8499441 Z M25.1351351,10.8499441 C24.7162162,10.8499441 24.7162162,10.8499441 24.7162162,10.4326386 C24.7162162,10.015333 24.7162162,10.015333 25.1351351,10.015333 L25.1351351,10.8499441 Z M4.60810811,10.015333 L24.7162162,10.015333 L24.7162162,10.8499441 L4.60810811,10.8499441 L4.60810811,10.8499441 L4.60810811,10.015333 Z M4.60810811,10.8499441 C4.18918919,10.8499441 4.18918919,10.8499441 4.18918919,10.4326386 C4.18918919,10.015333 4.18918919,10.015333 4.60810811,10.015333 L4.60810811,10.8499441 L4.60810811,10.8499441 Z" id="Shape" fill="#00A859" fill-rule="nonzero"></path>
                        <path d="M4.60810811,10.4326386 C0.837837838,9.59802748 -2.09459459,4.17305542 4.60810811,0.417305542 L24.7162162,0.417305542 C32.6756757,4.17305542 27.6486486,9.59802748 24.7162162,10.4326386 L4.60810811,10.4326386 Z" id="_1_1" fill="#FDBD2F"></path>
                    </g>
                    <line x1="5.86486486" y1="2.08652771" x2="5.86486486" y2="8.76341639" id="Path" stroke="#FFFFFF" stroke-width="0.2052" stroke-linecap="round" stroke-linejoin="round"></line>
                    <line x1="7.12162162" y1="2.08652771" x2="7.12162162" y2="8.76341639" id="Path" stroke="#FFFFFF" stroke-width="0.2052" stroke-linecap="round" stroke-linejoin="round"></line>
                    <line x1="8.7972973" y1="2.08652771" x2="8.7972973" y2="8.76341639" id="Path" stroke="#FFFFFF" stroke-width="0.2052" stroke-linecap="round" stroke-linejoin="round"></line>
                    <line x1="10.472973" y1="2.08652771" x2="10.472973" y2="8.76341639" id="Path" stroke="#FFFFFF" stroke-width="0.2052" stroke-linecap="round" stroke-linejoin="round"></line>
                    <line x1="11.7297297" y1="2.08652771" x2="11.7297297" y2="8.76341639" id="Path" stroke="#FFFFFF" stroke-width="0.2052" stroke-linecap="round" stroke-linejoin="round"></line>
                    <line x1="12.9864865" y1="2.08652771" x2="12.9864865" y2="8.76341639" id="Path" stroke="#FFFFFF" stroke-width="0.2052" stroke-linecap="round" stroke-linejoin="round"></line>
                    <line x1="14.6621622" y1="2.08652771" x2="14.6621622" y2="8.76341639" id="Path" stroke="#FFFFFF" stroke-width="0.2052" stroke-linecap="round" stroke-linejoin="round"></line>
                    <line x1="16.3378378" y1="2.08652771" x2="16.3378378" y2="8.76341639" id="Path" stroke="#FFFFFF" stroke-width="0.2052" stroke-linecap="round" stroke-linejoin="round"></line>
                    <line x1="17.5945946" y1="2.08652771" x2="17.5945946" y2="8.76341639" id="Path" stroke="#FFFFFF" stroke-width="0.2052" stroke-linecap="round" stroke-linejoin="round"></line>
                    <line x1="19.2702703" y1="2.08652771" x2="19.2702703" y2="8.76341639" id="Path" stroke="#FFFFFF" stroke-width="0.2052" stroke-linecap="round" stroke-linejoin="round"></line>
                    <line x1="20.527027" y1="2.08652771" x2="20.527027" y2="8.76341639" id="Path" stroke="#FFFFFF" stroke-width="0.2052" stroke-linecap="round" stroke-linejoin="round"></line>
                    <line x1="22.2027027" y1="2.08652771" x2="22.2027027" y2="8.76341639" id="Path" stroke="#FFFFFF" stroke-width="0.2052" stroke-linecap="round" stroke-linejoin="round"></line>
                    <line x1="23.4594595" y1="2.08652771" x2="23.4594595" y2="8.76341639" id="Path" stroke="#FFFFFF" stroke-width="0.2052" stroke-linecap="round" stroke-linejoin="round"></line>
                </g>
            </g>
            <g id="head_x5F_2" transform="translate(131.000000, 52.000000)">
                <path d="M43.7105306,82.4396975 L49.1270739,82.4396975 L49.5437311,86.6244537 L54.9602744,89.553783 C49.9603883,100.434149 40.7939304,95.4124417 38.2939873,89.9722587 L43.2938734,86.6244537 L43.7105306,82.4396975 L43.7105306,82.4396975 Z" id="Path" fill="#FDBD2F"></path>
                <g id="Group" transform="translate(0.000000, -0.000000)">
                    <path d="M15.3778426,0 C32.4607869,3.34780497 36.2107014,36.8258547 72.0432186,1.25542687 C97.8759636,19.2498786 85.3762483,61.5159164 82.0429909,65.7006726 C57.8768746,95.8309174 22.8776718,88.2983562 1.62815577,59.4235383 C-1.28844447,44.7768915 -2.12175882,13.3912199 15.3778426,0 L15.3778426,0 Z" id="Path" fill="#20B471"></path>
                    <path d="M12.4612424,71.1408557 C24.9609577,79.5103681 47.8771024,94.5754905 74.5431617,73.6517094 C52.4603313,59.8420139 26.6275864,65.7006726 12.4612424,71.1408557 Z" id="Path" fill="#FDBD2F"></path>
                    <g transform="translate(31.627472, 68.630002)">
                        <g>
                            <path d="M4.16657177,0 L4.16657177,0.836951243 L4.58322894,0.836951243 L4.16657177,1.25542687 L3.74991459,1.67390249 L3.33325741,2.09237811 L2.91660024,2.51085373 L2.49994306,2.92932935 L2.08328588,3.34780497 L1.66662871,3.7662806 L1.24997153,4.18475622 L1.24997153,4.60323184 L1.24997153,5.02170746 L1.24997153,5.44018308 L1.24997153,5.8586587 L1.24997153,6.27713433 L1.24997153,6.69560995 L1.24997153,7.11408557 L1.24997153,7.53256119 L1.24997153,7.95103681 L1.24997153,8.36951243 L1.24997153,8.78798806 L1.24997153,9.20646368 L1.24997153,9.6249393 L1.24997153,10.0434149 L1.66662871,10.4618905 L2.08328588,10.8803662 L2.49994306,11.2988418 L2.91660024,11.7173174 L3.33325741,12.135793 L3.74991459,12.5542687 L4.16657177,12.5542687 L4.58322894,12.5542687 L4.99988612,12.5542687 L5.4165433,12.5542687 L4.99988612,13.3912199 L4.58322894,13.3912199 L4.16657177,13.3912199 L3.74991459,13.3912199 L3.33325741,12.9727443 L2.91660024,12.5542687 L2.49994306,12.135793 L2.08328588,11.7173174 L1.66662871,11.2988418 L1.24997153,10.8803662 L0.833314354,10.4618905 L0.416657177,10.0434149 L0,9.20646368 L0,8.78798806 L0,8.36951243 L0,7.95103681 L0,7.53256119 L0,7.11408557 L0,6.69560995 L0,6.27713433 L0,5.8586587 L0,5.44018308 L0,5.02170746 L0,4.60323184 L0.416657177,4.18475622 L0.833314354,3.7662806 L1.24997153,3.34780497 L1.66662871,2.92932935 L2.08328588,2.51085373 L2.49994306,2.09237811 L2.91660024,1.67390249 L3.33325741,1.25542687 L4.16657177,0 L4.16657177,0 L4.16657177,0 Z M3.74991459,0.418475622 C4.16657177,0.418475622 4.16657177,0.418475622 4.58322894,0.418475622 C4.58322894,0.836951243 4.58322894,0.836951243 4.58322894,1.25542687 L3.74991459,0.418475622 Z M24.9994306,1.25542687 L4.16657177,1.25542687 L4.16657177,0.418475622 L24.9994306,0.418475622 L25.4160878,0.418475622 L24.9994306,1.25542687 Z M24.9994306,2.22044605e-16 C25.4160878,2.22044605e-16 25.4160878,0.418475622 25.4160878,0.418475622 C25.4160878,0.836951243 24.9994306,0.836951243 24.9994306,0.836951243 L24.9994306,2.22044605e-16 L24.9994306,2.22044605e-16 Z M24.9994306,12.5542687 L24.9994306,11.7173174 L24.9994306,11.7173174 L25.4160878,11.7173174 L25.832745,11.7173174 L26.2494021,11.7173174 L26.6660593,11.7173174 L27.0827165,11.7173174 L27.4993737,11.2988418 L27.9160308,10.8803662 L28.332688,10.4618905 L28.7493452,10.0434149 L29.1660024,9.6249393 L29.5826596,9.20646368 L29.9993167,8.78798806 L29.9993167,8.36951243 L29.9993167,7.95103681 L29.9993167,7.53256119 L29.9993167,7.11408557 L29.9993167,6.69560995 L29.9993167,6.27713433 L29.9993167,5.8586587 L29.9993167,5.44018308 L29.9993167,5.02170746 L29.9993167,4.60323184 L29.9993167,4.18475622 L29.9993167,3.7662806 L29.5826596,3.34780497 L29.1660024,2.92932935 L28.7493452,2.51085373 L28.332688,2.09237811 L27.9160308,1.67390249 L27.4993737,1.25542687 L26.6660593,0.836951243 L25.832745,0.418475622 L24.9994306,0.418475622 L25.832745,0.836951243 L26.6660593,1.25542687 L27.0827165,1.67390249 L27.4993737,2.09237811 L27.9160308,2.51085373 L28.332688,2.92932935 L28.7493452,3.34780497 L29.1660024,3.7662806 L29.5826596,4.18475622 L29.5826596,4.60323184 L29.5826596,5.02170746 L29.5826596,5.44018308 L29.5826596,5.8586587 L29.5826596,6.27713433 L29.5826596,6.69560995 L29.5826596,7.11408557 L29.5826596,7.53256119 L29.5826596,7.95103681 L29.1660024,9.20646368 L28.7493452,9.6249393 L28.332688,10.0434149 L27.9160308,10.4618905 L27.4993737,10.8803662 L27.0827165,11.2988418 L26.6660593,11.7173174 L26.2494021,12.135793 L25.832745,12.5542687 L25.4160878,12.9727443 L24.9994306,12.9727443 L24.5827734,12.9727443 L24.1661163,12.9727443 L24.9994306,12.5542687 L24.9994306,12.5542687 L24.9994306,12.5542687 Z M24.9994306,12.5542687 C24.5827734,12.5542687 24.5827734,12.5542687 24.1661163,12.135793 C24.1661163,11.7173174 24.1661163,11.7173174 24.5827734,11.2988418 L24.9994306,12.5542687 Z M4.16657177,11.7173174 L24.9994306,11.7173174 L24.9994306,12.5542687 L4.16657177,12.5542687 L4.16657177,12.5542687 L4.16657177,11.7173174 L4.16657177,11.7173174 Z M4.16657177,12.5542687 C3.74991459,12.5542687 3.74991459,12.135793 3.74991459,12.135793 C3.74991459,11.7173174 4.16657177,11.7173174 4.16657177,11.7173174 L4.16657177,12.5542687 L4.16657177,12.5542687 Z" id="Shape" fill="#00A859" fill-rule="nonzero"></path>
                            <path d="M4.16657177,12.135793 C0.416657177,10.8803662 -2.91660024,5.02170746 4.16657177,0.836951243 L24.9994306,0.836951243 C33.3325741,5.44018308 27.9160308,11.2988418 24.9994306,12.135793 L4.16657177,12.135793 Z" id="_1_2" fill="url(#linearGradient-2)"></path>
                        </g>
                        <path d="M4.58322894,2.51085373 C4.58322894,2.09237811 4.99988612,2.09237811 4.99988612,2.09237811 C4.99988612,2.09237811 5.4165433,2.51085373 5.4165433,2.51085373 L4.58322894,2.51085373 L4.58322894,2.51085373 Z M4.58322894,10.0434149 L4.58322894,2.09237811 L5.4165433,2.09237811 L5.4165433,10.0434149 L4.58322894,10.0434149 Z M5.4165433,10.0434149 C5.4165433,10.4618905 4.99988612,10.4618905 4.99988612,10.4618905 C4.99988612,10.4618905 4.58322894,10.0434149 4.58322894,10.0434149 L5.4165433,10.0434149 L5.4165433,10.0434149 Z" id="Shape" fill="#EAF1C9" fill-rule="nonzero"></path>
                        <path d="M6.24985765,2.51085373 C6.24985765,2.09237811 6.66651483,2.09237811 6.66651483,2.09237811 C6.66651483,2.09237811 7.08317201,2.51085373 7.08317201,2.51085373 L6.24985765,2.51085373 L6.24985765,2.51085373 Z M6.24985765,10.0434149 L6.24985765,2.09237811 L7.08317201,2.09237811 L7.08317201,10.0434149 L6.24985765,10.0434149 Z M7.08317201,10.0434149 C7.08317201,10.4618905 6.66651483,10.4618905 6.66651483,10.4618905 C6.24985765,10.4618905 6.24985765,10.0434149 6.24985765,10.0434149 L7.08317201,10.0434149 L7.08317201,10.0434149 Z" id="Shape" fill="#EAF1C9" fill-rule="nonzero"></path>
                        <path d="M7.91648636,2.51085373 C7.91648636,2.09237811 8.33314354,2.09237811 8.33314354,2.09237811 C8.74980071,2.09237811 8.74980071,2.51085373 8.74980071,2.51085373 L7.91648636,2.51085373 L7.91648636,2.51085373 Z M7.91648636,10.0434149 L7.91648636,2.09237811 L8.74980071,2.09237811 L8.74980071,10.0434149 L7.91648636,10.0434149 Z M8.74980071,10.0434149 C8.74980071,10.4618905 8.33314354,10.4618905 8.33314354,10.4618905 C8.33314354,10.4618905 7.91648636,10.0434149 7.91648636,10.0434149 L8.74980071,10.0434149 L8.74980071,10.0434149 Z" id="Shape" fill="#EAF1C9" fill-rule="nonzero"></path>
                        <path d="M9.58311507,2.51085373 C9.58311507,2.09237811 9.99977224,2.09237811 9.99977224,2.09237811 C9.99977224,2.09237811 10.4164294,2.51085373 10.4164294,2.51085373 L9.58311507,2.51085373 L9.58311507,2.51085373 Z M9.58311507,10.0434149 L9.58311507,2.09237811 L10.4164294,2.09237811 L10.4164294,10.0434149 L9.58311507,10.0434149 Z M10.4164294,10.0434149 C10.4164294,10.4618905 9.99977224,10.4618905 9.99977224,10.4618905 C9.58311507,10.4618905 9.58311507,10.0434149 9.58311507,10.0434149 L10.4164294,10.0434149 L10.4164294,10.0434149 Z" id="Shape" fill="#EAF1C9" fill-rule="nonzero"></path>
                        <path d="M10.8330866,2.51085373 C10.8330866,2.09237811 11.2497438,2.09237811 11.2497438,2.09237811 C11.2497438,2.09237811 11.6664009,2.51085373 11.6664009,2.51085373 L10.8330866,2.51085373 L10.8330866,2.51085373 Z M10.8330866,10.0434149 L10.8330866,2.09237811 L11.6664009,2.09237811 L11.6664009,10.0434149 L10.8330866,10.0434149 Z M12.0830581,10.0434149 C12.0830581,10.4618905 11.6664009,10.4618905 11.6664009,10.4618905 C11.6664009,10.4618905 11.2497438,10.0434149 11.2497438,10.0434149 L12.0830581,10.0434149 L12.0830581,10.0434149 Z" id="Shape" fill="#EAF1C9" fill-rule="nonzero"></path>
                        <path d="M12.4997153,2.51085373 C12.4997153,2.09237811 12.9163725,2.09237811 12.9163725,2.09237811 C12.9163725,2.09237811 13.3330297,2.51085373 13.3330297,2.51085373 L12.4997153,2.51085373 L12.4997153,2.51085373 Z M12.4997153,10.0434149 L12.4997153,2.09237811 L13.3330297,2.09237811 L13.3330297,10.0434149 L12.4997153,10.0434149 Z M13.3330297,10.0434149 C13.3330297,10.4618905 12.9163725,10.4618905 12.9163725,10.4618905 C12.4997153,10.4618905 12.4997153,10.0434149 12.4997153,10.0434149 L13.3330297,10.0434149 L13.3330297,10.0434149 Z" id="Shape" fill="#EAF1C9" fill-rule="nonzero"></path>
                        <path d="M14.166344,2.51085373 C14.166344,2.09237811 14.5830012,2.09237811 14.5830012,2.09237811 C14.5830012,2.09237811 14.9996584,2.51085373 14.9996584,2.51085373 L14.166344,2.51085373 L14.166344,2.51085373 Z M14.166344,10.0434149 L14.166344,2.09237811 L14.9996584,2.09237811 L14.9996584,10.0434149 L14.166344,10.0434149 Z M14.9996584,10.0434149 C14.9996584,10.4618905 14.5830012,10.4618905 14.5830012,10.4618905 C14.5830012,10.4618905 14.166344,10.0434149 14.166344,10.0434149 L14.9996584,10.0434149 L14.9996584,10.0434149 Z" id="Shape" fill="#EAF1C9" fill-rule="nonzero"></path>
                        <path d="M15.4163155,2.51085373 C15.4163155,2.09237811 15.8329727,2.09237811 15.8329727,2.09237811 C15.8329727,2.09237811 16.2496299,2.51085373 16.2496299,2.51085373 L15.4163155,2.51085373 L15.4163155,2.51085373 Z M15.4163155,10.0434149 L15.4163155,2.09237811 L16.2496299,2.09237811 L16.2496299,10.0434149 L15.4163155,10.0434149 Z M16.2496299,10.0434149 C16.2496299,10.4618905 15.8329727,10.4618905 15.8329727,10.4618905 C15.8329727,10.4618905 15.4163155,10.0434149 15.4163155,10.0434149 L16.2496299,10.0434149 L16.2496299,10.0434149 Z" id="Shape" fill="#EAF1C9" fill-rule="nonzero"></path>
                        <path d="M17.0829442,2.51085373 C17.0829442,2.09237811 17.4996014,2.09237811 17.4996014,2.09237811 C17.4996014,2.09237811 17.9162586,2.51085373 17.9162586,2.51085373 L17.0829442,2.51085373 L17.0829442,2.51085373 Z M17.0829442,10.0434149 L17.0829442,2.09237811 L17.9162586,2.09237811 L17.9162586,10.0434149 L17.0829442,10.0434149 Z M17.9162586,10.0434149 C17.9162586,10.4618905 17.4996014,10.4618905 17.4996014,10.4618905 C17.4996014,10.4618905 16.6662871,10.4618905 16.6662871,10.0434149 L17.9162586,10.0434149 L17.9162586,10.0434149 Z" id="Shape" fill="#EAF1C9" fill-rule="nonzero"></path>
                        <path d="M18.3329158,2.51085373 C18.3329158,2.09237811 18.749573,2.09237811 18.749573,2.09237811 C18.749573,2.09237811 19.1662301,2.51085373 19.1662301,2.51085373 L18.3329158,2.51085373 L18.3329158,2.51085373 Z M18.3329158,10.0434149 L18.3329158,2.09237811 L19.1662301,2.09237811 L19.1662301,10.0434149 L18.3329158,10.0434149 Z M19.5828873,10.0434149 C19.5828873,10.4618905 19.1662301,10.4618905 19.1662301,10.4618905 C19.1662301,10.4618905 18.749573,10.0434149 18.749573,10.0434149 L19.5828873,10.0434149 L19.5828873,10.0434149 Z" id="Shape" fill="#EAF1C9" fill-rule="nonzero"></path>
                        <path d="M19.9995445,2.51085373 C19.9995445,2.09237811 20.4162017,2.09237811 20.4162017,2.09237811 C20.4162017,2.09237811 20.8328588,2.51085373 20.8328588,2.51085373 L19.9995445,2.51085373 L19.9995445,2.51085373 Z M19.9995445,10.0434149 L19.9995445,2.09237811 L20.8328588,2.09237811 L20.8328588,10.0434149 L19.9995445,10.0434149 Z M21.249516,10.0434149 C21.249516,10.4618905 20.8328588,10.4618905 20.8328588,10.4618905 C20.8328588,10.4618905 20.4162017,10.0434149 20.4162017,10.0434149 L21.249516,10.0434149 L21.249516,10.0434149 Z" id="Shape" fill="#EAF1C9" fill-rule="nonzero"></path>
                        <path d="M21.6661732,2.51085373 C21.6661732,2.09237811 22.0828304,2.09237811 22.0828304,2.09237811 C22.4994875,2.09237811 22.4994875,2.51085373 22.4994875,2.51085373 L21.6661732,2.51085373 L21.6661732,2.51085373 Z M21.6661732,10.0434149 L21.6661732,2.09237811 L22.4994875,2.09237811 L22.4994875,10.0434149 L21.6661732,10.0434149 Z M22.4994875,10.0434149 C22.4994875,10.4618905 22.0828304,10.4618905 22.0828304,10.4618905 C22.0828304,10.4618905 21.6661732,10.0434149 21.6661732,10.0434149 L22.4994875,10.0434149 L22.4994875,10.0434149 Z" id="Shape" fill="#EAF1C9" fill-rule="nonzero"></path>
                        <path d="M22.9161447,2.51085373 C22.9161447,2.09237811 23.3328019,2.09237811 23.3328019,2.09237811 C23.3328019,2.09237811 23.7494591,2.51085373 23.7494591,2.51085373 L22.9161447,2.51085373 L22.9161447,2.51085373 Z M22.9161447,10.0434149 L22.9161447,2.09237811 L23.7494591,2.09237811 L23.7494591,10.0434149 L22.9161447,10.0434149 Z M24.1661163,10.0434149 C24.1661163,10.4618905 23.7494591,10.4618905 23.7494591,10.4618905 C23.7494591,10.4618905 23.3328019,10.0434149 23.3328019,10.0434149 L24.1661163,10.0434149 L24.1661163,10.0434149 Z" id="Shape" fill="#EAF1C9" fill-rule="nonzero"></path>
                    </g>
                </g>
            </g>
            <g id="head_x5F_1" transform="translate(135.000000, 58.000000)">
                <g id="Group">
                    <path d="M2.0923913,19.409302 C16.3206522,-2.59838624 52.7282609,-10.0726954 74.4891304,19.409302 C75.326087,27.71409 73.6521739,36.4341174 77,44.7389054 C67.375,90 28.0380435,102.457182 0,53.0436934 C0,52.2132146 0,50.9674964 0,49.7217782 C0,41.8322296 2.51086957,28.5445688 2.0923913,19.409302 Z" id="Path" fill="#20B471"></path>
                    <path d="M28.875,69.23803 C24.2717391,67.9923118 20.923913,62.5941996 28.875,58.857045 L52.3097826,58.857045 C61.5163043,63.009439 55.6576087,68.4075512 52.3097826,69.23803 L28.875,69.23803 Z" id="Path" fill="#FFD908"></path>
                    <g transform="translate(27.619565, 60.518003)" id="Path" stroke="#006633" stroke-linecap="round" stroke-linejoin="round" stroke-width="0.2837">
                        <line x1="2.0923913" y1="0" x2="2.0923913" y2="7.0590698"></line>
                        <line x1="3.76630435" y1="0" x2="3.76630435" y2="7.0590698"></line>
                        <line x1="5.85869565" y1="0" x2="5.85869565" y2="7.0590698"></line>
                        <line x1="7.5326087" y1="0" x2="7.5326087" y2="7.0590698"></line>
                        <line x1="9.20652174" y1="0" x2="9.20652174" y2="7.0590698"></line>
                        <line x1="10.8804348" y1="0" x2="10.8804348" y2="7.0590698"></line>
                        <line x1="12.9728261" y1="0" x2="12.9728261" y2="7.0590698"></line>
                        <line x1="14.6467391" y1="0" x2="14.6467391" y2="7.0590698"></line>
                        <line x1="16.3206522" y1="0" x2="16.3206522" y2="7.0590698"></line>
                        <line x1="17.9945652" y1="0" x2="17.9945652" y2="7.0590698"></line>
                        <line x1="19.6684783" y1="0" x2="19.6684783" y2="7.0590698"></line>
                        <line x1="21.3423913" y1="0" x2="21.3423913" y2="7.0590698"></line>
                        <line x1="23.0163043" y1="0" x2="23.0163043" y2="7.0590698"></line>
                    </g>
                </g>
                <rect id="Rectangle" fill="#FFD908" x="30.9673913" y="83.3561696" width="18.4130435" height="6.6438304"></rect>
            </g>
            <g id="eyes_x5F_2" transform="translate(118.000000, 70.000000)">
                <path d="M18.6939949,37 C0.408125976,33.2159091 -13.3062758,10.0909091 21.6031105,0 L93.4998225,0 C131.318324,14.2954545 108.0454,34.0568182 93.0842346,37 L18.6939949,37 Z" id="Path" fill="#FFD908"></path>
                <g id="Group" transform="translate(41.551331, 2.522727)" stroke="#FEFEFE" stroke-width="0.5666">
                    <ellipse id="Oval" fill="#FEFEFE" cx="15.7923414" cy="16.3977273" rx="15.7923414" ry="16.3977273"></ellipse>
                    <ellipse id="Oval" fill="#650086" cx="15.7923414" cy="16.3977273" rx="7.89617069" ry="8.40909091"></ellipse>
                    <ellipse id="Oval" fill="#FFFFFF" cx="15.7923414" cy="16.3977273" rx="1" ry="1"></ellipse>
                </g>
            </g>
            <g id="eyes_x5F_1" transform="translate(117.000000, 72.000000)">
                <path d="M18.6939949,37 C0.408125976,33.2159091 -13.3062758,10.0909091 21.6031105,0 L93.4998225,0 C131.318324,14.2954545 108.0454,34.0568182 93.0842346,37 C93.4998225,37 18.6939949,37 18.6939949,37 Z" id="Path" fill="#FFD908"></path>
                <g id="Group" transform="translate(67.291532, 6.306818)">
                    <g>
                        <path d="M10.0003617,0 C15.4030048,0 19.9744721,4.625 19.9744721,10.0909091 C19.9744721,15.5568182 15.4030048,20.1818182 10.0003617,20.1818182 C4.5977186,20.1818182 0.0262513578,15.5568182 0.0262513578,10.0909091 C-0.389336573,4.625 4.18213067,0 10.0003617,0 Z" id="Path" stroke="#FFFFFF" stroke-width="0.8366" stroke-linecap="round" stroke-linejoin="round"></path>
                        <path d="M10.0003617,0 C15.4030048,0 19.9744721,4.625 19.9744721,10.0909091 C19.9744721,15.5568182 15.4030048,20.1818182 10.0003617,20.1818182 C4.5977186,20.1818182 0.0262513578,15.5568182 0.0262513578,10.0909091 C-0.389336573,4.625 4.18213067,0 10.0003617,0 Z" id="_1_3" fill="#700095"></path>
                    </g>
                    <g transform="translate(5.013307, 3.363636)" id="Path">
                        <polygon points="4.57146724 0 9.55852242 7.56818182 4.57146724 5.04545455 0 7.56818182"></polygon>
                        <polygon points="4.57146724 13.875 9.55852242 7.98863636 4.98705517 10.0909091 0 7.98863636"></polygon>
                        <polygon fill="#FDBD2F" points="4.57146724 5.04545455 9.55852242 7.56818182 4.57146724 9.25"></polygon>
                        <polygon fill="#3CB877" points="4.57146724 5.04545455 0 7.56818182 4.57146724 9.25"></polygon>
                        <polygon fill="#FDBD2F" points="4.57146724 0 9.55852242 7.56818182 4.57146724 5.04545455"></polygon>
                        <polygon fill="#41BA8E" points="4.57146724 0 0 7.56818182 4.57146724 5.04545455"></polygon>
                        <polygon fill="#00A859" points="0 7.98863636 4.98705517 9.67045455 4.57146724 13.875"></polygon>
                        <polygon fill="#FDBD2F" points="9.55852242 7.98863636 4.98705517 9.67045455 4.57146724 13.875"></polygon>
                    </g>
                </g>
                <g id="Group" transform="translate(25.758990, 6.306818)">
                    <g>
                        <path d="M9.97411035,0 C15.3767535,0 19.9482207,4.625 19.9482207,10.0909091 C19.9482207,15.5568182 15.3767535,20.1818182 9.97411035,20.1818182 C4.57146724,20.1818182 0,15.5568182 0,10.0909091 C0,4.625 4.57146724,0 9.97411035,0 Z" id="Path" stroke="#FFFFFF" stroke-width="0.8366" stroke-linecap="round" stroke-linejoin="round"></path>
                        <path d="M9.97411035,0 C15.3767535,0 19.9482207,4.625 19.9482207,10.0909091 C19.9482207,15.5568182 15.3767535,20.1818182 9.97411035,20.1818182 C4.57146724,20.1818182 0,15.5568182 0,10.0909091 C0,4.625 4.57146724,0 9.97411035,0 Z" id="_1_4" fill="#700095"></path>
                    </g>
                    <g transform="translate(5.402643, 3.363636)" id="Path">
                        <polygon points="4.57146724 0 9.14293448 7.56818182 4.57146724 5.04545455 0 7.56818182"></polygon>
                        <polygon points="4.57146724 13.875 9.14293448 7.98863636 4.57146724 10.0909091 0 7.98863636"></polygon>
                        <polygon fill="#FDBD2F" points="4.57146724 5.04545455 9.14293448 7.56818182 4.57146724 9.25"></polygon>
                        <polygon fill="#3CB877" points="4.57146724 5.04545455 0 7.56818182 4.57146724 9.25"></polygon>
                        <polygon fill="#FDBD2F" points="4.57146724 0 9.14293448 7.56818182 4.57146724 5.04545455"></polygon>
                        <polygon fill="#41BA8E" points="4.57146724 0 0 7.56818182 4.57146724 5.04545455"></polygon>
                        <polygon fill="#00A859" points="0 7.98863636 4.57146724 9.67045455 4.57146724 13.875"></polygon>
                        <polygon fill="#FDBD2F" points="9.14293448 7.98863636 4.57146724 9.67045455 4.57146724 13.875"></polygon>
                    </g>
                </g>
            </g>
</svg>