<svg xmlns="http://www.w3.org/2000/svg" viewBox="0 0 261.75 317"><defs><style>.cls-1,.cls-3,.cls-4,.cls-5,.cls-6,.cls-7{fill:none;}.cls-1,.cls-2,.cls-3,.cls-4,.cls-5,.cls-6,.cls-7,.cls-8{stroke:#000;stroke-miterlimit:10;}.cls-1,.cls-2{stroke-width:2px;}.cls-4,.cls-8{stroke-width:0.5px;}.cls-5{stroke-width:3px;}.cls-6{stroke-width:4px;}.cls-7{stroke-width:5px;}</style></defs><title>bounty avatar</title><g id="head_5" data-name="head 5"><path class="cls-1" d="M144.13,71.82h63.43l7.52,18.27H200S193.58,78.27,185,86.87c0,0-15-29-33.33,3.22H135.53Z" transform="translate(-48.99 -9)"/><path class="cls-1" d="M144.13,110.52h63.43l7.52-18.28H200s-6.45,11.83-15.05,3.23c0,0-15,29-33.33-3.23H135.53Z" transform="translate(-48.99 -9)"/><circle class="cls-1" cx="120.4" cy="81.63" r="12.36"/><circle class="cls-2" cx="119.87" cy="81.09" r="4.3"/><circle class="cls-2" cx="142.44" cy="82.17" r="3.23"/><polygon class="cls-1" points="109.12 102.06 143.52 102.06 134.92 112.81 118.79 112.81 109.12 102.06"/><rect class="cls-1" x="162.87" y="55.29" width="1.08" height="18.28" rx="0.5"/><rect class="cls-1" x="157.49" y="15.51" width="1.08" height="47.3" rx="0.5"/></g><g id="head_4" data-name="head 4"><rect class="cls-1" x="84.93" y="76.26" width="84.93" height="37.63" rx="12"/><circle class="cls-1" cx="143.52" cy="76.79" r="13.44"/><circle class="cls-1" cx="111.27" cy="76.79" r="13.44"/><circle class="cls-2" cx="143.52" cy="76.79" r="6.99"/><circle class="cls-2" cx="111.27" cy="76.79" r="6.99"/><line class="cls-1" x1="162.33" y1="76.26" x2="178.46" y2="55.83"/><ellipse class="cls-1" cx="180.61" cy="53.68" rx="3.23" ry="4.3"/><rect class="cls-1" x="108.58" y="97.76" width="39.78" height="10.75"/><line class="cls-1" x1="116.1" y1="100.98" x2="116.1" y2="105.28"/><line class="cls-1" x1="140.83" y1="100.98" x2="140.83" y2="105.28"/><line class="cls-1" x1="124.7" y1="100.98" x2="124.7" y2="105.28"/><line class="cls-1" x1="133.31" y1="100.98" x2="133.31" y2="105.28"/></g><g id="head_3" data-name="head 3"><rect class="cls-1" x="151.58" y="84.86" width="1.08" height="27.95"/><rect class="cls-1" x="103.2" y="84.86" width="1.08" height="27.95"/><rect class="cls-1" x="138.68" y="56.9" width="26.88" height="26.88"/><circle class="cls-1" cx="152.12" cy="70.34" r="12.36"/><circle class="cls-2" cx="152.12" cy="70.34" r="4.84"/><rect class="cls-1" x="90.3" y="56.9" width="26.88" height="26.88"/><circle class="cls-1" cx="103.74" cy="70.34" r="12.36"/><circle class="cls-2" cx="103.74" cy="70.34" r="4.84"/><line class="cls-1" x1="104.28" y1="112.81" x2="151.58" y2="112.81"/></g><g id="head_2" data-name="head 2"><circle class="cls-1" cx="125.93" cy="82.78" r="30.1"/><circle class="cls-1" cx="125.93" cy="82.78" r="12.9"/><path d="M172,83a11.1,11.1,0,0,0-2.46,1.61,10.46,10.46,0,0,0-3.4,5.08,10.87,10.87,0,0,0-.2,4.68,1.49,1.49,0,0,0,1.84,1,1.56,1.56,0,0,0,1.05-1.85s0-.25,0-.08,0-.1,0-.14l0-.4c0-.32,0-.65,0-1l0-.36,0-.24s-.06.27,0,.1.1-.52.17-.78a6.18,6.18,0,0,1,.23-.73c0-.05.13-.37.06-.17s.08-.18.11-.25a8.49,8.49,0,0,1,.71-1.19c.05-.08.11-.15.17-.23s-.2.23-.07.08l.09-.1c.14-.16.27-.32.42-.48a10.58,10.58,0,0,1,.84-.8l.18-.15c.25-.2-.08.06,0,0l.42-.3q.33-.23.66-.42a6.83,6.83,0,0,1,.75-.4,1.5,1.5,0,0,0,.54-2A1.54,1.54,0,0,0,172,83Z" transform="translate(-48.99 -9)"/><rect class="cls-3" x="191.58" y="39.64" width="2.15" height="27.95" rx="1" transform="translate(336.33 98.23) rotate(-180)"/><rect class="cls-3" x="149.04" y="52.14" width="2.15" height="12.9" rx="1"/><rect class="cls-3" x="156.57" y="74.72" width="5.38" height="13.98" rx="2.5"/><rect class="cls-3" x="89.91" y="74.72" width="5.38" height="13.98" rx="2.5"/></g><g id="head_1" data-name="head 1"><rect class="cls-1" x="91.38" y="46.15" width="70.96" height="66.66" rx="12"/><circle class="cls-1" cx="104.28" cy="74.11" r="16.13"/><circle class="cls-1" cx="149.43" cy="74.11" r="16.13"/><circle class="cls-1" cx="105.35" cy="74.11" r="5.38"/><circle class="cls-1" cx="148.36" cy="74.11" r="5.38"/><path class="cls-1" d="M102.48,36.48h16.31a1.61,1.61,0,0,1,1.61,1.61v8.07a0,0,0,0,1,0,0H101.05a0,0,0,0,1,0,0V37.91A1.43,1.43,0,0,1,102.48,36.48Z"/><path class="cls-1" d="M132.59,36.48H148.9a1.61,1.61,0,0,1,1.61,1.61v8.07a0,0,0,0,1,0,0H131.16a0,0,0,0,1,0,0V37.91A1.43,1.43,0,0,1,132.59,36.48Z"/><line class="cls-1" x1="111.8" y1="5.3" x2="111.8" y2="35.4"/><line class="cls-1" x1="140.83" y1="5.3" x2="140.83" y2="35.4"/><ellipse class="cls-1" cx="111.8" cy="3.15" rx="3.23" ry="2.15"/><ellipse class="cls-1" cx="140.83" cy="3.15" rx="3.23" ry="2.15"/><rect class="cls-1" x="104.28" y="96.68" width="47.3" height="10.75"/><line class="cls-1" x1="106.43" y1="102.06" x2="149.43" y2="102.06"/></g><g id="body_6" data-name="body 6"><g id="Layer_14" data-name="Layer 14"><path class="cls-1" d="M80.17,123.56h91.51a12,12,0,0,1,12,12v52.31a30.2,30.2,0,0,1-30.2,30.2H98.39a30.22,30.22,0,0,1-30.22-30.22V135.56A12,12,0,0,1,80.17,123.56Z"/><path class="cls-1" d="M84.84,128.23h81.53a12,12,0,0,1,12,12v44.14a30.2,30.2,0,0,1-30.2,30.2H103.06a30.22,30.22,0,0,1-30.22-30.22V140.23A12,12,0,0,1,84.84,128.23Z"/><circle class="cls-1" cx="125.35" cy="179.56" r="24.5"/><circle class="cls-4" cx="125.35" cy="179.56" r="22.17"/><circle class="cls-4" cx="125.64" cy="179.86" r="20.13"/><circle class="cls-4" cx="125.35" cy="180.15" r="18.08"/><rect class="cls-1" x="153.93" y="135.81" width="15.17" height="30.34" rx="6.5"/><circle class="cls-1" cx="161.52" cy="144.56" r="3.5"/><circle class="cls-1" cx="161.52" cy="157.4" r="3.5"/><circle class="cls-1" cx="125.35" cy="179.56" r="4.67"/><rect class="cls-3" x="82.18" y="132.89" width="47.84" height="8.17" rx="3.5"/><line class="cls-3" x1="93.26" y1="150.98" x2="93.26" y2="150.98"/><line class="cls-3" x1="87.43" y1="136.98" x2="123.6" y2="136.98"/><ellipse class="cls-1" cx="187.77" cy="158.95" rx="4.67" ry="19.54"/><ellipse class="cls-1" cx="188.06" cy="158.57" rx="2.63" ry="10.99"/><ellipse class="cls-1" cx="64.09" cy="158.99" rx="4.67" ry="19.54"/><ellipse class="cls-1" cx="64.38" cy="158.6" rx="2.63" ry="10.99"/><rect class="cls-1" x="110.73" y="112.81" width="32.25" height="10.75"/></g></g><g id="body_5" data-name="body 5"><rect class="cls-1" x="83.76" y="145.06" width="85.49" height="59.41"/><path class="cls-1" d="M83.76,204.47h85.49a0,0,0,0,1,0,0v3a11.74,11.74,0,0,1-11.74,11.74h-62A11.74,11.74,0,0,1,83.76,207.5v-3a0,0,0,0,1,0,0Z"/><path class="cls-1" d="M71.44,113.18H178.8a13.64,13.64,0,0,1,13.64,13.64v18.24a0,0,0,0,1,0,0H59.12a0,0,0,0,1,0,0V125.5A12.32,12.32,0,0,1,71.44,113.18Z"/><rect class="cls-1" x="62.35" y="146.51" width="21.41" height="23.18" rx="2.5"/><rect class="cls-1" x="169.25" y="146.51" width="23.18" height="23.18" rx="2.5"/><rect class="cls-5" x="99.7" y="209.68" width="52.17" height="2.61" rx="1.04"/><rect class="cls-6" x="96.07" y="157.38" width="5.8" height="28.98" rx="2"/><rect class="cls-6" x="112.01" y="157.38" width="5.8" height="28.98" rx="2"/><rect class="cls-6" x="128.68" y="158.1" width="28.98" height="27.53"/><path d="M115.36,138.12c1.23-.32,2.47-.58,3.71-.87l3.71-.78c2.48-.51,5-1,7.43-1.38,4.95.06,9.9,0,14.85,0h74.26c5,.91,9.91,1.8,14.86,3-5,1.21-9.9,2.09-14.86,3H145.06c-4.95,0-9.9,0-14.85,0-2.48-.42-5-.87-7.43-1.38l-3.71-.77C117.83,138.7,116.59,138.44,115.36,138.12Z" transform="translate(-48.99 -9)"/><circle class="cls-1" cx="73.64" cy="157.42" r="4.84"/><circle class="cls-1" cx="181.15" cy="157.42" r="4.84"/></g><g id="body_4" data-name="body 4"><rect class="cls-1" x="71.64" y="124.34" width="110.42" height="65.6"/><rect class="cls-6" x="89.14" y="134.18" width="73.25" height="44.83"/><circle class="cls-3" cx="78.75" cy="131.45" r="3.83"/><line class="cls-3" x1="76.56" y1="128.17" x2="80.94" y2="133.64"/><circle class="cls-3" cx="78.75" cy="182.84" r="3.83"/><line class="cls-3" x1="74.88" y1="182.06" x2="81.84" y2="182.84"/><circle class="cls-3" cx="174.95" cy="182.82" r="3.83"/><line class="cls-3" x1="171.67" y1="185.01" x2="177.14" y2="180.63"/><circle class="cls-3" cx="176.05" cy="130.34" r="3.83"/><line class="cls-3" x1="174" y1="133.71" x2="177.11" y2="127.44"/><rect class="cls-1" x="62.35" y="140.2" width="8.75" height="37.17" rx="3.88"/><rect class="cls-1" x="182.61" y="139.1" width="8.75" height="37.17" rx="3.88"/><g id="Layer_12" data-name="Layer 12"><path d="M150.13,174l-.29-.74-.54,1.21.37.33,2.16-.49.53.79-1.47,1.6.05.42,2.09.65v1l-2.06.68-.09.41,1.45,1.57-.46.86-2.21-.54-.24.28.5,2.16-.79.5-1.66-1.47-.38.11-.63,2h-1l-.65-2-.4-.15-1.58,1.49-.87-.49.52-2.08-.33-.36-2.06.53-.53-.82,1.48-1.63-.11-.42-2-.6-.07-1,2.1-.67.14-.37-1.52-1.63.48-.8,2.16.45.32-.3-.55-2.05.81-.56,1.64,1.45.4-.05.66-2.08h.86l.47.85.25-1.29-.48-.39-1.79,1.11-.8-.6.75-2-.39-.42-2,.64-.61-.78,1.2-1.74-.22-.51-2.13.1-.38-.9,1.63-1.41-.2-.51-2-.46-.12-1,1.86-.93v-.59l-1.83-.89.05-1,2.07-.5.2-.5-1.61-1.36.34-1,2.11.11.29-.48-1.22-1.72.56-.83,2,.63.42-.4-.75-2,.73-.66,1.82,1.1.47-.28-.19-2.1.73-.39.21-.15,1.4,1.58.5-.12.35-2.14.95-.13,1,1.74h.59l.83-1.92,1,.07.56,2,.54.18,1.28-1.72.92.29V150l.56.3,1.64-1.32.85.5-.48,2.07.41.38,2-.94.6.76-1,1.89.3.45,2.09-.37.5.86-1.42,1.58.22.52,2.11.16.21,1L164.51,159l.14.54,2,.7v.95l-2,.7-.14.54,1.76,1.15-.13.95-2.16.23-.23.49,1.08,1,.05-.63.72-.41,1.61,1.42.47-.16.33-2.13.95-.16,1,1.83.5,0,1-1.84,1,.11.32,2.1.5.19,1.6-1.4.83.5-.43,2.06.39.36,2-.81.66.73-1.09,1.83.2.44h2.18l.32.87-1.7,1.34.14.49,2,.68v1l-2,.63-.13.53,1.7,1.32-.31.86h-2.14l-.3.44,1.12,1.8-.57.78-2-.79-.42.32.46,2.08-.83.51-1.62-1.43-.52.21-.24,2-.94.29-1.07-1.91-.51,0-1,1.86L168,184l-.32-2.08-.46-.19-1.6,1.44-.83-.49.41-2.11-.39-.34-2,.81-.63-.75,1.11-1.82-.25-.43h-2.13l-.34-.83,1.6-1.35v-.54l-2-.64v-1l2-.69,0-.52-1.61-1.27.24-.84,1.12-.22-1.22-.72-.52.34.49,2.1-.83.53-1.66-1.31-.55.26v2.07l-.88.35-1.33-1.72-.55.13-.51,2-1,.16-.87-1.94-.55-.07-1,1.77Zm-1.33-1.88,1.08-.14c-.51-.3-.86-.46-1.08.15Zm3-.18,1.09.1c.53,1.82.53,1.82,1.27,1.84l.48-2,1.11-.14c.42.68.57,1.5,1.58,1.6V171.2l1-.46,1.75,1.46c.5-1-.09-1.66-.26-2.4l.87-.71c.75.22,1.26,1.15,2.27.54l-1.08-1.84.67-.89c.77.16,1.47.7,2.47-.1l-1.69-1.38.49-1.1c.8,0,1.62.41,2.21-.55l-1.81-1.11.13-1,2.14-.74c-.6-.9-1.42-.81-2.15-1l-.12-1.1,1.84-1.12c-.64-1-1.51-.48-2.28-.57l-.41-1c.48-.61,1.36-.87,1.32-2l-2.18.42-.62-.84,1.08-1.87c-1-.55-1.55.37-2.3.58l-.83-.72c.13-.77.81-1.42.18-2.36l-1.69,1.43-1-.51V148c-1,.22-1.14,1.07-1.57,1.67l-1.08-.2-.51-2.11c-1.11.32-.87,1.29-1.29,2l-1,.07-1.07-2c-.88.71-.53,1.57-.69,2.33l-1,.3-1.42-1.61c-.88.82-.13,1.61-.18,2.4l-.87.52-1.86-1.09-.3.27.76,2.08-.7.67c-.83-.08-1.44-1-2.36-.23l1.3,1.69-.54.9-2.14-.13c0,1.16,1,1.23,1.51,1.82l-.28,1c-.72.38-1.73-.18-2.15,1l1.93.85v1l-2,.93c.58,1,1.49.57,2.23.84l.26,1.06c-.55.59-1.55.67-1.44,1.81l2.12-.16.48.92-1.29,1.74c1,.63,1.57-.17,2.32-.3l.8.71c-.25.82-1,1.42-.47,2.42l1.8-1.22.91.58c0,.79-.75,1.59.2,2.36l1.4-1.61,1,.34c.17.77-.21,1.63.71,2.27Zm13,7.89.88.76c-.27.74-.78,1.35-.26,2.33l1.67-1.56.95.36.23,2.15c1.14-.26,1-1.23,1.39-1.85h1.15c.34.67.27,1.6,1.39,1.85l.23-2.17,1.08-.37c.47.65.8,1.36,1.88,1.36l-.53-2.18.89-.74c.68.45,1.24,1.05,2.24.56l-1.27-1.78.53-.87h2.22c-.19-1-1-1.13-1.65-1.53l.2-1,2.11-.77,0-.4-2.07-.61-.2-1.13c.7-.36,1.45-.56,1.66-1.61l-2.26.11-.46-.87L178,168c-1-.38-1.58.23-2.26.63l-.94-.81c.25-.77.82-1.42-.11-2.4L173.24,167l-1-.41a2.29,2.29,0,0,0-.51-2.27l-1,2h-1l-1-2c-.9.71-.53,1.56-.66,2.32l-1.1.36.2-.26-1.52-1.43c-.91,1.07-.12,1.75,0,2.51l-.92.73c-.7-.36-1.22-1.06-2.23-.54l1.22,1.77-.52.92-2.14-.15c.06,1.14,1,1.23,1.59,1.68l-.22,1.1-2.13.6c.55,1,1.44.8,2.15,1.05l.19,1.16c-.7.34-1.46.55-1.67,1.61l2.25-.12.57,1c-.55.58-1.27,1-1,2.1Zm-19.46,3.28c0,.8-.08,1.53.83,2.09l.57-2.16,1.07-.29c.41.65.7,1.35,1.58,1.43.38-.82-.14-1.41-.49-2.11l.86-.88c.72.39,1.31.89,2.3.31L150.48,180l.33-1.1a2.06,2.06,0,0,0,2.13-.8l-2.22-.59-.2-.9,1.57-1.6c-1-.54-1.61,0-2.21.28l-1-.8c.38-.73.86-1.32.38-2.34l-1.61,1.61-.91-.24-.58-2.09h-.44l-.55,2.07-.92.25-1.57-1.57c-.55,1,0,1.6.32,2.28l-.93.86c-.72-.38-1.32-.91-2.25-.25l1.61,1.49-.31,1.09c-.76,0-1.53-.08-2.12.85l2.16.58.25.92-1.61,1.59a2,2,0,0,0,2.14-.25l1.13.75c-.52.76-.92,1.37-.37,2.32l1.55-1.61ZM164,167.76l.8.53.47-1Zm-1.36,2.54.17.19.49-.57-.12-.12Zm-15,3.09.05-.21L147,173l-.06.23Zm15.18-6-.13-.09-.39.49.1.09Zm.62.16,0,0h.07Z" transform="translate(-48.99 -9)"/><path d="M162.65,157.62l-6.05,1.29-3.35-2.19-1.28-6C155.9,149.93,161.3,152.74,162.65,157.62ZM152.34,151l1.19,5.5,3.15,2.08,5.55-1.21C161.13,153.44,156.05,150.2,152.34,151Z" transform="translate(-48.99 -9)"/><path d="M150,151.15l1.31,6-2.21,3.34-5.92,1.27C142.12,158.09,145.15,152.35,150,151.15Zm1,5.93-1.19-5.51c-4.12,1.12-7.13,6.16-6.35,9.86l5.48-1.18Z" transform="translate(-48.99 -9)"/><path d="M149.48,162.53l3.38,2.16,1.28,5.95c-3.35,1-9.24-1.64-10.67-6.82Zm-5.58,1.52c1.2,4.38,6.56,7.15,9.87,6.31L152.59,165l-3.13-2.13Z" transform="translate(-48.99 -9)"/><path d="M163.05,159.62c.8,4-2.09,9.39-6.88,10.67l-1.3-6,2.18-3.34Zm-6.62,10.26c4.32-1.28,7-6.37,6.3-9.88l-5.45,1.18-2.07,3.14c.3,1.43.65,3.14,1,4.84C156.27,169.39,156.35,169.6,156.43,169.88Z" transform="translate(-48.99 -9)"/><path d="M154.65,160.76a1.56,1.56,0,0,1-1.59,1.57,1.61,1.61,0,1,1,0-3.22A1.56,1.56,0,0,1,154.65,160.76Zm-.27,0a1.36,1.36,0,0,0-1.27-1.33,1.26,1.26,0,0,0-1.32,1.23,1.28,1.28,0,0,0,1.26,1.38A1.38,1.38,0,0,0,154.38,160.75Z" transform="translate(-48.99 -9)"/><path d="M173.29,175.53a3.57,3.57,0,0,0-.94-3.86l1.86-3c2.71,1.27,3.9,6.18,2.08,8.71Zm-.46-4a10.24,10.24,0,0,1,.86,1.92,9.86,9.86,0,0,1,0,2l2.45,1.49c1.48-2.23.39-6.75-1.89-7.8Z" transform="translate(-48.99 -9)"/><path d="M164.67,170.21c1.49-2.74,5.88-3.8,8.75-2.11l-1.85,3a3.69,3.69,0,0,0-3.89.94Zm3,1.48a4,4,0,0,1,3.79-.91l1.57-2.53c-2.46-1.41-6.61-.41-7.85,1.88Z" transform="translate(-48.99 -9)"/><path d="M168.88,177.31c1.85.28,2,.25,4-.92l2.92,1.8c-1.23,2.68-6.31,3.89-8.72,2.07Zm.18.32-1.57,2.53c2.78,1.66,6.91.06,7.81-1.9l-2.46-1.52A3.94,3.94,0,0,1,169.06,177.63Z" transform="translate(-48.99 -9)"/><path d="M164.15,171l3,1.86a3.71,3.71,0,0,0,.94,3.87l-1.85,3C163.59,178.55,162.4,173.72,164.15,171Zm.11.43a6.37,6.37,0,0,0,1.88,7.9l1.56-2.55a3.93,3.93,0,0,1-.91-3.79Z" transform="translate(-48.99 -9)"/><path d="M170.25,172.52a1.68,1.68,0,0,1,1.66,1.72,1.72,1.72,0,0,1-1.71,1.68,1.8,1.8,0,0,1-1.68-1.73A1.73,1.73,0,0,1,170.25,172.52Zm0,3a1.31,1.31,0,0,0,1.37-1.29,1.41,1.41,0,0,0-1.41-1.45,1.35,1.35,0,0,0-1.31,1.37A1.28,1.28,0,0,0,170.23,175.56Z" transform="translate(-48.99 -9)"/><path d="M146,179.72a1.39,1.39,0,0,1-1.44-1.42,1.44,1.44,0,0,1,1.48-1.49,1.51,1.51,0,0,1,1.42,1.49A1.44,1.44,0,0,1,146,179.72Zm1.11-1.43a1,1,0,0,0-1.12-1.12,1.14,1.14,0,0,0-1.15,1.11,1.26,1.26,0,0,0,1.15,1.17A1.17,1.17,0,0,0,147.07,178.29Z" transform="translate(-48.99 -9)"/><path d="M200.46,158.69l.29.74.54-1.21-.36-.33-2.17.49-.52-.78L199.7,156l0-.42-2.09-.65V154l2.06-.67.09-.41-1.45-1.57.46-.87,2.22.54.23-.28-.49-2.16.78-.5,1.66,1.47.38-.1.63-2h1l.65,2,.4.15,1.59-1.49.86.49-.52,2.09.33.35,2.06-.53.53.82-1.48,1.63.12.42,2,.6.07,1-2.1.67-.13.37,1.51,1.63-.48.8-2.15-.45-.32.3.54,2.05-.81.56-1.64-1.45-.4.05-.66,2.08h-.86l-.47-.85-.25,1.29.48.4,1.79-1.12.8.6-.75,2,.39.41,2-.63.61.77-1.2,1.75.22.5,2.13-.1.38.91-1.62,1.41.19.5,2,.46.12,1-1.86.93v.6l1.83.89-.05,1-2.07.5-.2.51,1.61,1.35-.34,1-2.11-.11-.29.48,1.22,1.72-.56.83-2-.63-.42.4.76,2-.74.66-1.82-1.1-.47.27.19,2.1-.73.39-.21.15-1.4-1.58-.5.13-.35,2.13-.95.13-1-1.73H198l-.83,1.92-1-.08-.56-2-.54-.19-1.27,1.73-.93-.3v-2.08l-.55-.3-1.65,1.32-.85-.5.48-2.07-.41-.38-2,.94-.6-.76,1-1.88-.29-.46-2.1.37-.5-.86,1.42-1.57-.22-.53-2.11-.16-.2-1,1.77-1.16-.14-.55-2-.7v-.95l2-.7.14-.54-1.76-1.15.13-.95,2.16-.22.23-.5-1.08-1-.05.63-.72.42-1.61-1.43-.47.16-.33,2.13-.94.17-1-1.84-.5,0-1,1.84-1-.11-.31-2.11-.51-.19-1.6,1.4-.83-.5.43-2.06-.39-.36-2,.81-.66-.73,1.09-1.83-.2-.44H171l-.32-.87,1.7-1.33-.14-.5-2-.68v-1l2-.63.13-.53-1.7-1.31.32-.87h2.13l.3-.44-1.12-1.79.57-.78,2,.79.43-.32-.47-2.08.83-.52,1.63,1.43.51-.2.24-2,.94-.28,1.07,1.9.51,0,1-1.85.94.21.32,2.08.46.2,1.6-1.45.83.49-.4,2.11.38.34,2-.81.63.75-1.11,1.82.25.43h2.13l.34.83-1.6,1.36v.54l2,.63v1l-2,.7,0,.51,1.61,1.27-.24.85-1.12.21,1.22.72.52-.34-.49-2.1.83-.53,1.66,1.31.55-.26v-2.07l.88-.35,1.33,1.72.55-.13.51-2,1-.16.87,1.94.56.08,1-1.78Zm1.33,1.88-1.08.15c.51.29.86.45,1.08-.16Zm-3,.19-1.09-.11c-.53-1.82-.53-1.82-1.27-1.84l-.47,2-1.12.14c-.42-.68-.57-1.49-1.58-1.6v2.16l-1,.46-1.75-1.46c-.5,1,.1,1.66.26,2.41l-.86.7c-.76-.22-1.27-1.14-2.28-.53l1.08,1.83-.67.9c-.77-.17-1.47-.7-2.46.09l1.68,1.38-.49,1.1c-.8,0-1.62-.41-2.21.56l1.82,1.1-.14,1-2.14.74c.6.91,1.43.81,2.15,1l.12,1.1-1.84,1.12c.64,1,1.52.48,2.28.57l.42,1c-.49.61-1.37.88-1.33,2l2.19-.42.61.84L187.64,181c1,.55,1.55-.38,2.3-.59l.83.72c-.13.77-.81,1.42-.17,2.37l1.69-1.44,1,.52v2.15c1-.22,1.14-1.07,1.58-1.67l1.07.2.51,2.11c1.11-.31.87-1.29,1.29-2l1-.07,1.07,2c.88-.71.53-1.56.7-2.33l1-.3,1.42,1.61c.88-.81.13-1.61.18-2.4l.87-.52,1.86,1.09.3-.27-.76-2.08.7-.67c.83.09,1.45,1,2.36.23l-1.3-1.69.54-.9,2.14.13c0-1.16-1-1.22-1.51-1.82l.28-1c.72-.37,1.73.19,2.15-.94l-1.93-.86v-1l2-.92c-.58-1-1.49-.58-2.23-.84l-.26-1.07c.55-.59,1.55-.67,1.44-1.81l-2.12.16-.48-.92,1.29-1.74c-1-.63-1.57.17-2.32.3l-.8-.7c.25-.83,1-1.43.47-2.43l-1.8,1.23-.91-.59c0-.79.75-1.59-.2-2.36l-1.4,1.61-1-.33c-.17-.78.21-1.64-.71-2.28Zm-13-7.9-.87-.75c.27-.75.77-1.36.25-2.34l-1.67,1.57-.95-.37-.23-2.15c-1.14.26-1,1.24-1.39,1.86h-1.15c-.34-.68-.26-1.6-1.39-1.86l-.22,2.17-1.09.37c-.47-.65-.8-1.36-1.88-1.35l.53,2.17-.89.74c-.68-.44-1.24-1-2.23-.55l1.26,1.77-.53.87h-2.22c.19,1,1,1.13,1.65,1.53l-.2,1-2.11.77,0,.4,2.07.61.2,1.13c-.7.37-1.45.56-1.66,1.61l2.26-.1.47.86-1.23,1.87c1,.39,1.58-.23,2.26-.63l.94.82c-.25.76-.82,1.41.11,2.4l1.44-1.6,1,.41a2.28,2.28,0,0,0,.51,2.27l1-2h1l1,2c.91-.71.53-1.56.66-2.31l1.1-.37-.19.27,1.51,1.42c.91-1.06.12-1.74,0-2.51l.92-.73c.7.36,1.22,1.06,2.23.54l-1.22-1.77.52-.92,2.14.15c-.06-1.14-1-1.23-1.59-1.68l.22-1.1,2.13-.6c-.55-1-1.44-.8-2.15-1l-.19-1.16c.7-.34,1.46-.55,1.67-1.61l-2.24.12-.58-1c.55-.58,1.27-1,1-2.1Zm19.46-3.27c0-.8.08-1.53-.83-2.1l-.57,2.16-1.07.29c-.41-.65-.7-1.35-1.58-1.42-.38.81.14,1.41.49,2.11l-.86.88c-.71-.4-1.31-.9-2.3-.32l1.58,1.54-.33,1.11a2,2,0,0,0-2.13.79l2.22.59.2.91-1.56,1.6c1,.54,1.6,0,2.2-.29l1,.8c-.37.73-.86,1.33-.38,2.34l1.61-1.61.91.24.58,2.09h.44l.56-2.07.91-.25,1.57,1.57c.55-1,0-1.6-.32-2.27l.93-.87c.72.38,1.32.91,2.25.25l-1.61-1.49.31-1.09c.76,0,1.53.08,2.12-.85l-2.16-.58-.25-.92,1.61-1.59a1.94,1.94,0,0,0-2.13.26l-1.14-.75c.52-.77.92-1.37.37-2.32l-1.55,1.6ZM186.56,165l-.8-.52-.47,1Zm1.36-2.54-.17-.18-.49.56.12.12Zm15-3.09-.05.21.68.19.06-.22Zm-15.18,6,.13.09.39-.48-.1-.1Zm-.62-.15,0,0h-.07Z" transform="translate(-48.99 -9)"/><path d="M187.94,175.09,194,173.8l3.35,2.19,1.28,6C194.69,182.79,189.29,180,187.94,175.09Zm10.31,6.61-1.19-5.49-3.15-2.08-5.55,1.2C189.47,179.27,194.54,182.51,198.25,181.7Z" transform="translate(-48.99 -9)"/><path d="M200.64,181.56l-1.31-6,2.21-3.34,5.92-1.27C208.47,174.62,205.44,180.36,200.64,181.56Zm-1-5.93,1.2,5.51C205,180,208,175,207.21,171.28l-5.48,1.18Z" transform="translate(-48.99 -9)"/><path d="M201.11,170.18,197.73,168l-1.28-5.94c3.35-1,9.24,1.63,10.67,6.81Zm5.58-1.51c-1.2-4.39-6.56-7.16-9.87-6.32l1.18,5.4,3.13,2.12Z" transform="translate(-48.99 -9)"/><path d="M187.54,173.09c-.8-4,2.09-9.39,6.88-10.66l1.3,6-2.18,3.34Zm6.62-10.25c-4.32,1.27-7,6.37-6.3,9.87l5.45-1.18,2.07-3.14c-.3-1.43-.65-3.13-1-4.84C194.32,163.33,194.24,163.11,194.16,162.84Z" transform="translate(-48.99 -9)"/><path d="M195.94,172a1.55,1.55,0,0,1,1.59-1.57,1.61,1.61,0,1,1,0,3.21A1.56,1.56,0,0,1,195.94,172Zm.27,0a1.35,1.35,0,0,0,1.27,1.33,1.25,1.25,0,0,0,1.32-1.23,1.28,1.28,0,0,0-1.26-1.38A1.39,1.39,0,0,0,196.21,172Z" transform="translate(-48.99 -9)"/><path d="M177.3,157.18a3.56,3.56,0,0,0,.94,3.86l-1.85,3c-2.72-1.27-3.9-6.18-2.09-8.71Zm.46,4a9.7,9.7,0,0,1-.86-1.92,9.86,9.86,0,0,1,0-2l-2.44-1.49c-1.49,2.23-.4,6.75,1.88,7.8Z" transform="translate(-48.99 -9)"/><path d="M185.92,162.5c-1.49,2.74-5.88,3.8-8.75,2.11l1.86-3a3.63,3.63,0,0,0,3.88-.94ZM183,161a4,4,0,0,1-3.79.91l-1.57,2.54c2.47,1.4,6.61.4,7.85-1.89Z" transform="translate(-48.99 -9)"/><path d="M181.71,155.41c-1.85-.29-2-.26-4,.91l-2.92-1.8c1.24-2.68,6.31-3.89,8.72-2.07Zm-.18-.33,1.57-2.53c-2.78-1.66-6.91-.06-7.81,1.91l2.46,1.51A3.94,3.94,0,0,1,181.53,155.08Z" transform="translate(-48.99 -9)"/><path d="M186.45,161.69l-3-1.86a3.73,3.73,0,0,0-.95-3.87l1.85-3C187,154.16,188.19,159,186.45,161.69Zm-.12-.43a6.37,6.37,0,0,0-1.88-7.9l-1.56,2.55a3.93,3.93,0,0,1,.91,3.79Z" transform="translate(-48.99 -9)"/><path d="M180.34,160.19a1.67,1.67,0,0,1-1.66-1.71,1.72,1.72,0,0,1,1.71-1.69,1.8,1.8,0,0,1,1.68,1.74A1.72,1.72,0,0,1,180.34,160.19Zm0-3a1.32,1.32,0,0,0-1.37,1.29,1.4,1.4,0,0,0,1.41,1.45,1.35,1.35,0,0,0,1.32-1.36A1.29,1.29,0,0,0,180.36,157.15Z" transform="translate(-48.99 -9)"/><path d="M204.64,153a1.37,1.37,0,0,1,1.43,1.42,1.44,1.44,0,0,1-1.48,1.48,1.51,1.51,0,0,1-1.42-1.49A1.43,1.43,0,0,1,204.64,153Zm-1.12,1.42a1,1,0,0,0,1.12,1.12,1.14,1.14,0,0,0,1.16-1.11,1.26,1.26,0,0,0-1.16-1.16A1.15,1.15,0,0,0,203.52,154.42Z" transform="translate(-48.99 -9)"/></g><rect class="cls-1" x="79.55" y="190.22" width="95.68" height="13.98"/><rect class="cls-1" x="72.03" y="190.22" width="109.66" height="30.1"/><rect class="cls-1" x="115.03" y="112.81" width="22.58" height="10.75"/></g><g id="body_3" data-name="body 3"><path class="cls-1" d="M85.64,121h83a12,12,0,0,1,12,12v70.57a16.76,16.76,0,0,1-16.76,16.76H90.11a16.47,16.47,0,0,1-16.47-16.47V133A12,12,0,0,1,85.64,121Z"/><circle class="cls-1" cx="127.39" cy="188.6" r="13.44"/><circle class="cls-1" cx="127.39" cy="188.6" r="8.06"/><line class="cls-1" x1="156.96" y1="121.41" x2="156.96" y2="220.32"/><line class="cls-1" x1="163.41" y1="121.41" x2="163.41" y2="220.32"/><circle class="cls-1" cx="172.55" cy="135.92" r="3.76"/><circle class="cls-1" cx="172.55" cy="150.97" r="3.76"/><circle class="cls-1" cx="172.55" cy="167.1" r="3.76"/><rect class="cls-1" x="81.7" y="132.16" width="13.98" height="26.88"/><line class="cls-1" x1="101.05" y1="133.24" x2="125.78" y2="133.24"/><line class="cls-1" x1="101.05" y1="156.89" x2="125.78" y2="156.89"/><ellipse class="cls-3" cx="68.26" cy="157.42" rx="4.3" ry="15.05"/><ellipse class="cls-3" cx="65.58" cy="156.89" rx="4.84" ry="13.44"/><ellipse class="cls-3" cx="62.89" cy="156.35" rx="4.3" ry="10.75"/><rect class="cls-1" x="70.95" y="140.76" width="1.61" height="33.33"/><ellipse class="cls-3" cx="185.45" cy="157.42" rx="4.3" ry="15.05"/><ellipse class="cls-3" cx="188.13" cy="156.89" rx="4.84" ry="13.44"/><ellipse class="cls-3" cx="190.82" cy="156.35" rx="4.3" ry="10.75"/><rect class="cls-1" x="230.13" y="149.76" width="1.61" height="33.33" transform="translate(412.89 323.85) rotate(-180)"/><rect class="cls-1" x="112.88" y="112.81" width="27.95" height="7.53"/></g><g id="body_2" data-name="body 2"><g id="i"><circle class="cls-1" cx="70.95" cy="131.09" r="13.98"/><circle class="cls-1" cx="70.95" cy="131.09" r="6.45"/><circle class="cls-1" cx="184.91" cy="131.09" r="13.98"/><circle class="cls-1" cx="184.91" cy="131.09" r="6.45"/><line class="cls-1" x1="70.95" y1="117.11" x2="184.91" y2="117.11"/><polygon class="cls-1" points="152.93 142.91 104.01 142.91 79.55 154.2 104.01 165.49 152.93 165.49 177.38 154.2 152.93 142.91"/><rect class="cls-1" x="104.28" y="124.63" width="47.3" height="18.28" rx="8.5"/><rect class="cls-1" x="104.28" y="165.49" width="47.3" height="18.28" rx="8.5"/><path class="cls-1" d="M209.17,192.76l0,18.52c0,2.83-2.27,5.14-5.1-.24H153.11c-2.88,5.38-5.22,3-5.22.15V193.84" transform="translate(-48.99 -9)"/><path class="cls-1" d="M110.18,150.08,159,206.58a9.75,9.75,0,0,0,7.39,3.39h24.17a9.76,9.76,0,0,0,7.61-3.66L219.19,180l23-28.71" transform="translate(-48.99 -9)"/><polygon class="cls-1" points="189.21 147.21 192.44 152.59 192.44 165.49 181.68 175.16 175.23 164.41 181.68 156.89 189.21 147.21"/><polygon class="cls-1" points="65.23 145.32 62.35 151.51 62.35 164.41 73.1 174.09 80.63 163.34 73.1 154.74 65.23 145.32"/><rect class="cls-1" x="110.73" y="203.12" width="35.48" height="15.05" rx="6"/></g></g><g id="body_1" data-name="body 1"><g id="Layer_4" data-name="Layer 4"><rect class="cls-1" x="64.5" y="113.88" width="127.94" height="22.58" rx="10.5"/><path class="cls-1" d="M85.1,136.46h84.58a12,12,0,0,1,12,12v44.41a27.45,27.45,0,0,1-27.45,27.45H104A30.86,30.86,0,0,1,73.1,189.46v-41A12,12,0,0,1,85.1,136.46Z"/><ellipse class="cls-1" cx="154.27" cy="173.01" rx="11.29" ry="8.6"/><ellipse class="cls-1" cx="127.39" cy="173.01" rx="11.29" ry="8.6"/><ellipse class="cls-1" cx="100.52" cy="173.01" rx="11.29" ry="8.6"/><line class="cls-1" x1="73.1" y1="184.84" x2="181.68" y2="184.84"/><line class="cls-1" x1="73.1" y1="161.19" x2="181.68" y2="161.19"/><line class="cls-7" x1="79.55" y1="125.71" x2="175.23" y2="125.71"/><rect class="cls-1" x="181.68" y="143.99" width="10.75" height="26.88"/><rect class="cls-1" x="111.34" y="151.91" width="10.75" height="26.88" transform="translate(184.44 321.7) rotate(-180)"/></g></g><g id="feet_4" data-name="feet 4"><rect class="cls-2" x="144.06" y="220.32" width="3.23" height="30.1"/><circle class="cls-1" cx="145.67" cy="260.63" r="10.21"/><circle class="cls-1" cx="145.13" cy="261.17" r="5.38"/><line class="cls-1" x1="149.43" y1="270.85" x2="149.43" y2="307.4"/><line class="cls-1" x1="141.91" y1="270.85" x2="141.91" y2="307.4"/><path class="cls-1" d="M135.46,307.4h31.61a4.94,4.94,0,0,1,4.94,4.94V316a0,0,0,0,1,0,0H135.46a0,0,0,0,1,0,0v-8.6A0,0,0,0,1,135.46,307.4Z"/><rect class="cls-2" x="158.64" y="229.32" width="3.23" height="30.1" transform="translate(271.52 479.74) rotate(-180)"/><circle class="cls-1" cx="111.27" cy="260.63" r="10.21"/><circle class="cls-1" cx="111.8" cy="261.17" r="5.38"/><line class="cls-1" x1="107.5" y1="270.85" x2="107.5" y2="307.4"/><line class="cls-1" x1="115.03" y1="270.85" x2="115.03" y2="307.4"/><path class="cls-1" d="M133.91,316.4h36.55a0,0,0,0,1,0,0v3.66a4.94,4.94,0,0,1-4.94,4.94H133.91a0,0,0,0,1,0,0v-8.6A0,0,0,0,1,133.91,316.4Z" transform="translate(255.39 632.4) rotate(-180)"/></g><g id="feet_3" data-name="feet 3"><path class="cls-1" d="M159.72,229.32h36.55l-10.75,17.2s-8.6-11.83-15.05,0Z" transform="translate(-48.99 -9)"/><rect class="cls-1" x="114.49" y="259.56" width="29.03" height="9.68"/><rect class="cls-1" x="89.76" y="269.23" width="79.56" height="26.88" rx="12"/><rect class="cls-1" x="96.22" y="273.53" width="65.58" height="17.2" rx="8"/><circle class="cls-1" cx="115.03" cy="282.67" r="3.76"/><circle class="cls-1" cx="124.7" cy="282.67" r="3.76"/><circle class="cls-1" cx="134.38" cy="282.67" r="3.76"/><circle class="cls-1" cx="144.06" cy="282.67" r="3.76"/><circle class="cls-1" cx="153.73" cy="282.67" r="3.76"/><circle class="cls-1" cx="105.35" cy="282.67" r="3.76"/><polygon class="cls-1" points="138.14 259.56 118.79 259.56 118.79 254.18 120.94 254.18 138.14 254.18 138.14 259.56"/><line class="cls-1" x1="120.94" y1="254.18" x2="136.51" y2="254.18"/><path class="cls-1" d="M186.06,264.26" transform="translate(-48.99 -9)"/><line class="cls-1" x1="120.94" y1="254.18" x2="120.94" y2="236.44"/><line class="cls-1" x1="137.07" y1="254.18" x2="137.07" y2="236.44"/><rect class="cls-2" x="117.72" y="262.78" width="22.58" height="3.23"/></g><g id="feet_2" data-name="feet 2"><g id="feet_2-2" data-name="feet 2"><polygon class="cls-1" points="161.26 263.32 148.36 265.47 147.81 259.59 144.06 219.24 156.96 219.24 161.26 263.32"/><path class="cls-1" d="M190.89,272.32l-1.07,22.58s20.42,6.45,29,16.12c0,0,9.67,0,14-5.37s-14-36.55-22.58-33.33l2.16,8.6-15.06-6.45Z" transform="translate(-48.99 -9)"/><path class="cls-1" d="M218.85,311s-4.3-25.8-21.51-36.55" transform="translate(-48.99 -9)"/><polygon class="cls-1" points="148.36 284.82 144.06 283.75 144.06 278.37 148.36 279.45 148.36 284.82"/><line class="cls-1" x1="141.91" y1="263.32" x2="148.36" y2="263.32"/><line class="cls-1" x1="145.13" y1="229.99" x2="158.03" y2="229.99"/><line class="cls-1" x1="146.21" y1="241.82" x2="159.11" y2="242.89"/><line class="cls-1" x1="147.28" y1="251.49" x2="160.18" y2="253.65"/></g><g id="Layer_39" data-name="Layer 39"><polygon class="cls-1" points="99.55 263.32 112.45 265.47 113 259.59 116.75 219.24 103.85 219.24 99.55 263.32"/><path class="cls-1" d="M167.89,272.32,169,294.9s-20.42,6.45-29,16.12c0,0-9.67,0-14-5.37s14-36.55,22.58-33.33l-2.15,8.6,15.05-6.45Z" transform="translate(-48.99 -9)"/><path class="cls-1" d="M139.93,311s4.31-25.8,21.51-36.55" transform="translate(-48.99 -9)"/><polygon class="cls-1" points="112.45 284.82 116.75 283.75 116.75 278.37 112.45 279.45 112.45 284.82"/><line class="cls-1" x1="118.9" y1="263.32" x2="112.45" y2="263.32"/><line class="cls-1" x1="115.67" y1="229.99" x2="102.77" y2="229.99"/><line class="cls-1" x1="114.6" y1="241.82" x2="101.7" y2="242.89"/><line class="cls-1" x1="113.52" y1="251.49" x2="100.62" y2="253.65"/></g></g><g id="feet_1" data-name="feet 1"><g id="Layer_35" data-name="Layer 35"><polygon class="cls-1" points="162.92 253.65 145.44 253.65 145.44 223.54 153.78 214.4 162.92 223.54 162.92 253.65"/><ellipse class="cls-1" cx="154.18" cy="226.77" rx="5.17" ry="6.99"/><path class="cls-1" d="M218.66,263.18h-29.4v30.1s13.51-26.87,29.4-9.67Z" transform="translate(-48.99 -9)"/><path class="cls-1" d="M189.26,308.34h35V292.21s-14.3-33.33-35,1.07Z" transform="translate(-48.99 -9)"/><line class="cls-1" x1="140.27" y1="288.59" x2="175.23" y2="288.59"/></g><g id="Layer_36" data-name="Layer 36"><polygon class="cls-1" points="96.17 253.65 113.65 253.65 113.65 223.54 105.31 214.4 96.17 223.54 96.17 253.65"/><ellipse class="cls-1" cx="104.91" cy="226.77" rx="5.17" ry="6.99"/><path class="cls-1" d="M138.4,263.18h29.4v30.1s-13.51-26.87-29.4-9.67Z" transform="translate(-48.99 -9)"/><path class="cls-1" d="M167.8,308.34h-35V292.21s14.3-33.33,35,1.07Z" transform="translate(-48.99 -9)"/><line class="cls-1" x1="118.82" y1="288.59" x2="83.85" y2="288.59"/></g></g><g id="hand_1" data-name="hand 1"><g id="hand_1-2" data-name="hand 1"><path class="cls-1" d="M241.42,162s30.1-14.41,26.88-40.21h10.75s2.15,41.84-37.63,51.56Z" transform="translate(-48.99 -9)"/><rect class="cls-1" x="215.01" y="105.28" width="19.35" height="7.53" rx="3.5"/><path class="cls-1" d="M278.39,110.75a6,6,0,0,1-10.35.4l-1.17-1.87L257,94.91l10.18,8.22a8.13,8.13,0,0,0,10.74,0l9.69-13.54-8.23,19.24Z" transform="translate(-48.99 -9)"/></g><g id="Layer_18" data-name="Layer 18"><path class="cls-1" d="M111.34,173s-30.11,14.41-26.88,40.21H73.71s-2.15-41.84,37.63-51.56Z" transform="translate(-48.99 -9)"/><rect class="cls-1" x="69.41" y="213.19" width="19.35" height="7.53" rx="3.5" transform="translate(109.18 424.91) rotate(-180)"/><path class="cls-1" d="M74.37,224.25a6,6,0,0,1,10.35-.4l1.17,1.87,9.83,14.37-10.18-8.22a8.13,8.13,0,0,0-10.74,0l-9.69,13.54,8.23-19.24Z" transform="translate(-48.99 -9)"/></g></g><g id="hand_2" data-name="hand 2"><g id="Layer_20" data-name="Layer 20"><path class="cls-6" d="M252.17,167.5c0,3.27-2.16,5.91-4.83,5.91a4.2,4.2,0,0,1-2.78-1.07,6.36,6.36,0,0,1-2.06-4.84c0-3.27,2.16-5.91,4.84-5.91S252.17,164.23,252.17,167.5Z" transform="translate(-48.99 -9)"/><ellipse class="cls-1" cx="205.34" cy="191.83" rx="5.38" ry="5.91"/><line class="cls-1" x1="202.11" y1="162.26" x2="207.49" y2="185.91"/><line class="cls-1" x1="198.89" y1="164.41" x2="203.19" y2="185.91"/><ellipse class="cls-1" cx="205.34" cy="191.83" rx="1.08" ry="1.61"/><line class="cls-1" x1="208.56" y1="196.67" x2="204.26" y2="209.57"/><line class="cls-1" x1="198.89" y1="208.49" x2="203.19" y2="197.74"/><rect class="cls-1" x="243.57" y="217.49" width="10.75" height="8.6" transform="translate(33.92 -76.34) rotate(18.43)"/><path d="M253.67,237.92v-9.68a1.5,1.5,0,0,0-3,0v9.68a1.5,1.5,0,0,0,3,0Z" transform="translate(-48.99 -9)"/><path d="M245.5,225.34l-2.82,6.59-.4.93a1.61,1.61,0,0,0-.15,1.16,1.49,1.49,0,0,0,.69.89,1.52,1.52,0,0,0,2.05-.54l2.83-6.59.39-.93a1.61,1.61,0,0,0,.15-1.16,1.49,1.49,0,0,0-.69-.89,1.52,1.52,0,0,0-2.05.54Z" transform="translate(-48.99 -9)"/><path d="M241.61,223.78l-6,5.95-.85.85a1.5,1.5,0,0,0,2.12,2.12l6-5.95.84-.85a1.51,1.51,0,0,0,0-2.12,1.53,1.53,0,0,0-2.12,0Z" transform="translate(-48.99 -9)"/></g><g id="Layer_21" data-name="Layer 21"><path class="cls-6" d="M100.41,166.42c0,3.27,2.17,5.92,4.84,5.92a4.29,4.29,0,0,0,2.78-1.07,6.4,6.4,0,0,0,2.06-4.85c0-3.26-2.17-5.91-4.84-5.91S100.41,163.16,100.41,166.42Z" transform="translate(-48.99 -9)"/><ellipse class="cls-1" cx="49.27" cy="190.75" rx="5.38" ry="5.91"/><line class="cls-1" x1="52.5" y1="161.19" x2="47.12" y2="184.84"/><line class="cls-1" x1="55.72" y1="163.34" x2="51.42" y2="184.84"/><ellipse class="cls-1" cx="49.27" cy="190.75" rx="1.08" ry="1.61"/><line class="cls-1" x1="46.05" y1="195.59" x2="50.35" y2="208.49"/><line class="cls-1" x1="55.72" y1="207.42" x2="51.42" y2="196.67"/><rect class="cls-1" x="98.26" y="216.42" width="10.75" height="8.6" transform="translate(222.77 388.33) rotate(161.57)"/><path d="M101.91,236.84v-9.67a1.5,1.5,0,0,0-3,0v9.67a1.5,1.5,0,0,0,3,0Z" transform="translate(-48.99 -9)"/><path d="M104.49,225.77l2.83,6.6.4.93a1.51,1.51,0,0,0,2,.54,1.55,1.55,0,0,0,.54-2.05l-2.83-6.6-.4-.93a1.51,1.51,0,0,0-2-.54,1.55,1.55,0,0,0-.54,2.05Z" transform="translate(-48.99 -9)"/><path d="M108.85,224.83l6,5.95.85.85a1.5,1.5,0,1,0,2.12-2.12l-6-6-.85-.84a1.51,1.51,0,0,0-2.12,0,1.53,1.53,0,0,0,0,2.12Z" transform="translate(-48.99 -9)"/></g></g><g id="hand_4" data-name="hand 4"><g id="Layer_26" data-name="Layer 26"><path class="cls-8" d="M116.8,110.5c-.94-1.21-1.89-2.4-2.85-3.59-.08-.11-.27-.14-.53-.25l-2,1.55c-.26-2-.5-3.81-.75-5.68l-5.24-2,2-1.74a32.84,32.84,0,0,0-3.48-4.5c-.72.43-1.38.79-2,1.2l-13.46,9c-1.17.77-2.32,1.57-3.52,2.28a2.13,2.13,0,0,0-1.13,1.67c-.54,3.55-1.16,7.1-1.69,10.65a2.65,2.65,0,0,1-1.11,1.84c-6.93,5.4-13.82,10.85-20.77,16.24a4,4,0,0,0-1.63,2.77c-.78,5.16-1.65,10.32-2.49,15.48-.05.32-.08.64-.09.68a38.6,38.6,0,0,0-4,3,15.5,15.5,0,0,0-2.1,3.1c-.33.52-.3,1,.36,1.25.73,0,.82-.64,1-1.11,2.24-4.64,7.78-6.51,11.94-4a7.24,7.24,0,0,1,3,8.66,8.56,8.56,0,0,1-8.66,6,7.14,7.14,0,0,1-7-6.73c0-.32,0-.65,0-1-.06-.67-.11-.7-1.19-.67a7.59,7.59,0,0,0-.21,1.25,8.51,8.51,0,0,0,9.56,8.47,7.44,7.44,0,0,0,4-1.33,2.48,2.48,0,0,1,2.1-.36c5.59.91,11.2,1.78,16.79,2.66.07,0,.12.09.27.2l-.07.06a1.44,1.44,0,0,1,.51.53,1.61,1.61,0,0,1,.3.58l.07.08,0,0A14.25,14.25,0,0,0,95,183.54a16.65,16.65,0,0,0,11.32-4.12c5.73-4.75,8.75-14.59,2.15-22.22a4.41,4.41,0,0,1-.91-1,1.48,1.48,0,0,1-.46-.35l-.06,0-.08,0A15.47,15.47,0,0,0,95.7,153c-4.36.54-7.69,2.84-11,5.94l-18.28-.19c1.06-.55,1.85-.94,2.62-1.37s1.38-.82,2-1.27c3.65-2.44,4.28-5.39,2.1-9.17a13.09,13.09,0,0,0-4.7-4.53c-.37-.22-.73-.45-1.18-.74A7.75,7.75,0,0,1,68,141q9-7.05,17.93-14.09a2.41,2.41,0,0,1,1.82-.57c3.58.32,7.17.56,10.74.89a2.56,2.56,0,0,0,2.21-.84c3.2-3,6.47-6,9.71-9l6.07-5.62C116.89,111.37,117.18,111,116.8,110.5ZM88,157.65c6.63-5.28,15.51-4.34,20.08,1.37,4.69,5.88,3.35,14.67-3.06,19.76s-15.28,4.4-19.9-1.42S81.77,162.59,88,157.65Zm-4.21,2.62a16.21,16.21,0,0,0-2.21,13.54l-16.23-2.56c.43-.63.73-1.07,1-1.51a8.83,8.83,0,0,0,1.15-8.66c-.11-.27-.18-.55-.3-.94Zm25.65-56.71c.23,1.93.46,3.78.68,5.63l-4.58,3.59-5.31-2c-.23-1.87-.44-3.64-.65-5.36l4.47-3.9Zm-5.23,10.25-6.32,5-7.24-.56c.35-2.23.72-4.55,1.07-6.77l6.52-5.11c.19,1.54.43,2.83.5,4.13a1.82,1.82,0,0,0,1.46,1.85C101.48,112.73,102.75,113.27,104.17,113.81Zm-33,32.74a7.11,7.11,0,0,1,1.81,4.14,3.69,3.69,0,0,1-1.11,3c-1.89,1.94-4.28,2.94-6.7,4.05l-1-.71c.77-4.77,1.52-9.39,2.28-14.13A14.24,14.24,0,0,1,71.12,146.55Zm-6.26-4.81c-.74,4.73-1.52,9.65-2.26,14.39l-4.94-.4c.9-5.54,1.81-11.2,2.74-16.9l5.39-4.23,3.11,4Zm5.25-4.2L67,133.61l1.73-1.36,3.09,3.93ZM79.77,130c-.26-.34-.49-.64-.73-.93s-.6-.85-1.18-.42-.23.86,0,1.24.48.67.74,1.05l-2.83,2.21-2.65,2.09-3.17-4L72.74,129,75.38,127c.59.24.83,1.08,1.53.53s-.17-1.06-.1-1.59l1.64-1.29,3.11,4Zm19.48-4.15c-3.89-.31-7.75-.6-11.61-.95a2.62,2.62,0,0,0-2.16.66c-.84.74-1.76,1.4-2.64,2.09l-3.17-4a22,22,0,0,1,2.17-1.68,3.68,3.68,0,0,0,1.76-3c.51-3.63,1.14-7.25,1.72-10.89l18.18-12,2.06,2.62c-.45.35-.8.65-1.17.92-1.93,1.36-3.91,2.64-5.77,4.08-2.7,2.09-5.55,4-7.82,6.6a2.91,2.91,0,0,0-.66,1.28c-.41,2.29-.77,4.59-1.13,6.88-.05.35,0,.71-.06,1.14.46.09.84.19,1.23.23,2.16.18,4.32.31,6.47.54a2.89,2.89,0,0,0,2.28-.69c4.28-3.41,8.6-6.78,12.91-10.16l1.38-1.08,2.06,2.63Z" transform="translate(-48.99 -9)"/><path class="cls-8" d="M55.45,167.69a4,4,0,0,0,5.59.41,4,4,0,0,0,.94-5.64,4.1,4.1,0,0,0-5.73-.42A4,4,0,0,0,55.45,167.69Zm1.13-.9a2.63,2.63,0,0,1,.49-3.68,2.54,2.54,0,1,1,3.22,3.9A2.63,2.63,0,0,1,56.58,166.79Z" transform="translate(-48.99 -9)"/><path class="cls-8" d="M99,171.18a3.93,3.93,0,0,0,.84-5.62,4,4,0,0,0-5.62-.44,4.11,4.11,0,0,0-.92,5.67A4,4,0,0,0,99,171.18Zm-.23-4.64a2.61,2.61,0,0,1-.65,3.66,2.65,2.65,0,0,1-3.71-.35,2.71,2.71,0,0,1,.66-3.69A2.65,2.65,0,0,1,98.74,166.54Z" transform="translate(-48.99 -9)"/><path class="cls-8" d="M106.17,108.81a2.16,2.16,0,1,0-2.8-3.27,2.16,2.16,0,0,0-.36,3.12A2.2,2.2,0,0,0,106.17,108.81Zm-.68-.73a4.8,4.8,0,0,1-1.4-.38c-.35-.24-.16-1,.25-1.25s.94-.25,1.14.21A4.29,4.29,0,0,1,105.49,108.08Z" transform="translate(-48.99 -9)"/></g><g id="Layer_27" data-name="Layer 27"><path class="cls-8" d="M286.09,114.33c-.09,2.76-.21,5.51-.31,8.27-.16,4.4-.28,8.81-.49,13.22a2.59,2.59,0,0,0,.81,2.22c2.58,2.5,5.1,5.06,7.67,7.57a2.37,2.37,0,0,1,.75,1.75q.48,11.4,1,22.78c0,.32,0,.64-.06,1l-1.33-.4a13.12,13.12,0,0,0-6.5-.63c-4.29.81-6.12,3.21-5.59,7.57.09.8.21,1.59.37,2.38s.39,1.71.66,2.88L271,169.2c.17-4.56-.26-8.59-2.69-12.24a15.38,15.38,0,0,0-9.51-6.68v-.11l-.06,0a1.46,1.46,0,0,1-.57-.12,4.51,4.51,0,0,1-1.37,0c-10.09,0-15.58,8.66-15.46,16.11a16.72,16.72,0,0,0,4.25,11.28,14.28,14.28,0,0,0,13.16,4.79v0h.11a1.57,1.57,0,0,1,.64-.14,1.39,1.39,0,0,1,.73,0V182c.18,0,.27,0,.33.08,4.32,3.66,8.62,7.35,13,11a2.48,2.48,0,0,1,1.09,1.83,7.47,7.47,0,0,0,1.6,3.9,8.52,8.52,0,0,0,12.66,1.74,9.15,9.15,0,0,0,.8-1c-.68-.84-.73-.86-1.28-.47-.26.19-.5.42-.75.61a7.15,7.15,0,0,1-9.69-.95,8.55,8.55,0,0,1-1.09-10.47,7.21,7.21,0,0,1,8.54-3.34c4.6,1.52,6.79,6.95,4.72,11.67-.21.48-.6.94-.16,1.52.61.36,1,.05,1.19-.54a15.6,15.6,0,0,0,1-3.61,39.35,39.35,0,0,0-.29-5l.45-.52c3.37-4,6.72-8,10.13-12a4,4,0,0,0,1-3c-.44-8.78-.79-17.56-1.2-26.34a2.64,2.64,0,0,1,.67-2c2.35-2.72,4.63-5.5,7-8.22a2.15,2.15,0,0,0,.54-2c-.24-1.37-.39-2.77-.56-4.16q-1-8-2-16c-.09-.75-.25-1.48-.4-2.31a34.43,34.43,0,0,0-5.68.29c0,1,0,1.73,0,2.66l-4.95-2.65-4.8,3.13c-.05-1-.08-1.77-.11-2.52-.26-.12-.41-.25-.54-.24-1.53,0-3.06.1-4.58.18C286.21,113.3,286.11,113.77,286.09,114.33Zm-29.33,66.56c-7.42.29-13.73-6.09-14-14.17s5.48-14.93,13-15.19c7.31-.26,13.81,5.86,14.12,14.34C270.13,173.78,264.31,180.59,256.76,180.89Zm24.72,2.35c-.38.16-.64.29-.91.39a8.78,8.78,0,0,0-5.82,6.5l-.48,1.78-12.51-10.64a16.27,16.27,0,0,0,8.84-10.51ZM302,117.12c0,2,0,3.89-.05,5.92l-4.49,3-5-2.71c-.09-2-.17-3.84-.26-5.82l4.72-3.15Zm-5.7,9.95a1.83,1.83,0,0,0,2.36-.09c1-.8,2.16-1.46,3.46-2.32.13,2.89.25,5.57.37,8.28L298,138.16,292.9,133c-.11-2.44-.23-5.14-.36-8C293.88,125.73,295.11,126.34,296.29,127.07ZM295,172.59l-9.24,10.94-1.15-.26c-.73-2.55-1.54-5-1.3-7.72a3.69,3.69,0,0,1,1.58-2.81,7.06,7.06,0,0,1,4.32-1.33A14.63,14.63,0,0,1,295,172.59Zm1.71-4.7,5-.22c.1,2.31.2,4.63.3,6.85L291,187.6l-3.52-3.48c3.11-3.66,6.35-7.45,9.45-11.09C296.88,171.09,296.81,169.53,296.73,167.89Zm-.1-3.79,5-.22c0,.73.06,1.42.09,2.21l-5,.22C296.69,165.56,296.66,164.87,296.63,164.1Zm-.57-12.31,5-.22c0,.71.06,1.38.09,2.07-.37.41-1.32,0-1.28,1s.84.52,1.4.81c.05,1.08.1,2.22.15,3.35s.1,2.28.15,3.49l-5.13.23-.15-3.37c-.05-1.15-.1-2.29-.16-3.59l1.28-.12c.47,0,1,0,1-.77s-.62-.64-1.08-.63l-1.18.05C296.12,153.23,296.09,152.56,296.06,151.79Zm-8.66-37,3.34-.15c0,.59.05,1.17.08,1.75.24,5.47.5,10.94.7,16.41a2.9,2.9,0,0,0,1,2.18c1.57,1.48,3.08,3,4.62,4.55.29.28.61.5,1,.8a10.56,10.56,0,0,0,.82-.79c1.51-1.77,3-3.54,4.49-5.35a2.92,2.92,0,0,0,.54-1.32c.49-3.41.08-6.83-.09-10.24-.11-2.35-.43-4.69-.65-7-.05-.45-.05-.92-.07-1.48l3.33-.15c.9,7.23,1.8,14.41,2.71,21.63-2.38,2.82-4.72,5.65-7.14,8.4a3.69,3.69,0,0,0-1.09,3.26,23.67,23.67,0,0,1,.14,2.74l-5.13.23c-.05-1.12-.15-2.25-.14-3.37a2.63,2.63,0,0,0-.9-2.07c-2.78-2.7-5.52-5.44-8.29-8.18C286.88,129.32,287.14,122.09,287.4,114.78Z" transform="translate(-48.99 -9)"/><path class="cls-8" d="M287.17,192.78a4.12,4.12,0,0,0-4.06-4.07,4,4,0,0,0-3.67,4.39,4,4,0,0,0,4,4A4,4,0,0,0,287.17,192.78Zm-6.41.17a2.54,2.54,0,1,1,5.06-.1,2.54,2.54,0,1,1-5.06.1Z" transform="translate(-48.99 -9)"/><path class="cls-8" d="M256.41,170.4a4.12,4.12,0,0,0,3.7-4.4,4,4,0,0,0-4-4,3.92,3.92,0,0,0-3.72,4.3A4,4,0,0,0,256.41,170.4Zm2.36-4.36a2.72,2.72,0,0,1-2.37,2.9,2.65,2.65,0,0,1-2.68-2.58,2.6,2.6,0,0,1,2.35-2.88A2.63,2.63,0,0,1,258.77,166Z" transform="translate(-48.99 -9)"/><path class="cls-8" d="M297.21,122.53a2.15,2.15,0,0,0,2.13-2.3,2.19,2.19,0,0,0-2.23-2.36,2.34,2.34,0,0,0,.1,4.66Zm-.09-3.18c.47-.14.79.24.9.74s-.38,1.1-.79,1a5.09,5.09,0,0,1-1.2-.82C296.53,119.83,296.79,119.45,297.12,119.35Z" transform="translate(-48.99 -9)"/></g></g><g id="hand_5" data-name="hand 5"><g id="Layer_29" data-name="Layer 29"><path d="M264.65,186.31A9.54,9.54,0,0,0,266.87,175a9.68,9.68,0,0,0-10.55-5.2L243.54,160V155c0-.58,0-1.15,0-1.73a3.25,3.25,0,0,0-3.75-3.46,4.65,4.65,0,0,0-.09,1.58c0,.55,0,1.09,0,1.67l.37.31V179l-.34.27v3.14a3,3,0,0,0,3.8-3c0-1.63,0-3.26,0-4.9v-1.16c1.88,1.34,3.55,2.7,5.32,4A9.72,9.72,0,0,0,254,187.68v9.55l-1.89,2.25a.94.94,0,0,0-.16.23,12,12,0,0,1-2.3,3.1,9.84,9.84,0,0,0-1.94,3.67,16.75,16.75,0,0,0-.65,7.44,1.71,1.71,0,0,0,1.64,1.62c1.39.17,2.78.35,4.18.5a1.68,1.68,0,0,0,1.91-1.72c0-.42,0-.84,0-1.38l1.44.71a8.34,8.34,0,0,1-.09,4.43,7.1,7.1,0,0,1-2.72,3.76,1.77,1.77,0,0,0-.57,2.73c.94,1.59,1.89,3.17,2.85,4.76a1.73,1.73,0,0,0,2.38.88,21.31,21.31,0,0,0,3.69-1.79c4.32-2.8,6.48-6.92,7.12-11.91a17.62,17.62,0,0,0-.34-6.67,1.4,1.4,0,0,1,.09-1,9.61,9.61,0,0,0-3.94-12.37Zm-14.33-3.8.18.18.18.18.19.18,0,0,0-.05-.18-.18-.18-.18-.2-.18h0Zm1.46,1.41,0,0,0,0,.2.2.18.18.18.19,0,0,0,0-.19-.18-.18-.18Zm-2.56,30.92.21-.2,0,0,0,0-.21.19L249,215l-.18.18,0,0,0,0L249,215Zm4-29.43.18.18.18.19.19.15,0,0,0,0-.17-.16-.18-.18-.2-.18-.05,0Zm1.46,1.46.19.18.18.18.18.18.05,0,0,0-.19-.19-.18-.18-.19-.18h-.05Zm1.47,1.45.18.18.19.18.18.18,0,0,0,0-.18-.19-.18-.18-.2-.17-.05,0Zm5.86,5.81.18.18.18.19.19.18,0,0,0-.05-.18-.18-.18-.18-.2-.18-.05,0Zm1.46,1.46.19.18.18.18.18.18.05,0,0,0-.19-.19-.18-.18-.19-.18h-.05Zm2,3.07,0,0,0,0-.18.18-.18.19-.19.18,0,0,.05,0,.18-.17.18-.19Zm-11.72,11.63,0-.06,0,.05-.18.18-.18.19-.19.17,0,.05.05,0,.18-.18.19-.18ZM252,212.1l0,0,0,0,0,0Zm-1.1,1.09,0-.05,0,.05-.18.18-.16.17-.21.19,0,.05,0,0,.2-.2.17-.16Zm13.19-13.08,0-.05,0,.05a6.16,6.16,0,0,0,.44.65,6.18,6.18,0,0,1-.55,8.72,5.86,5.86,0,0,1-4.82,1.44,6,6,0,0,1-3.92-2.29,5.84,5.84,0,0,1-1.32-4,6.17,6.17,0,0,1,2.26-4.5,5.8,5.8,0,0,1,4-1.37,6,6,0,0,1,3.41,1.15A2.5,2.5,0,0,0,264.05,200.11Zm-5.77-14.88a6.1,6.1,0,1,1,0-12.19,6.1,6.1,0,1,1,0,12.19Zm-1.83,38.69a2.11,2.11,0,0,1,.23-.35,10.83,10.83,0,0,0,3.19-8.41,5.58,5.58,0,0,1,0-.7,11.64,11.64,0,0,0,5.5-1.7c.64,6.06-2.45,11.93-7.45,13.68Zm-6.36-50-6.5-4.94v-4.66l9,6.93Zm7.4,21.53c0-1.14,0-2.25,0-3.36s0-2.27,0-3.37l3.65-.34v6.77Zm-6.64,12.58c1.19,1.39.66,2.85.36,4.35l-.87-.18A11.16,11.16,0,0,1,250.85,208.06Z" transform="translate(-48.99 -9)"/></g><g id="Layer_30" data-name="Layer 30"><path d="M86.49,196.51a9.59,9.59,0,0,0-3.94,12.37,1.4,1.4,0,0,1,.09,1,17.83,17.83,0,0,0-.35,6.67c.65,5,2.81,9.11,7.13,11.91a21.22,21.22,0,0,0,3.68,1.79,1.74,1.74,0,0,0,2.39-.88c1-1.59,1.91-3.17,2.85-4.76a1.77,1.77,0,0,0-.57-2.73,7.1,7.1,0,0,1-2.72-3.76,8.34,8.34,0,0,1-.09-4.43l1.44-.71c0,.54,0,1,0,1.38A1.68,1.68,0,0,0,98.31,216c1.39-.15,2.78-.33,4.17-.5a1.72,1.72,0,0,0,1.65-1.62,16.89,16.89,0,0,0-.65-7.44,9.84,9.84,0,0,0-1.94-3.67,12.05,12.05,0,0,1-2.31-3.1.91.91,0,0,0-.15-.23l-1.9-2.25v-9.55a9.75,9.75,0,0,0,5.1-10.34c1.76-1.29,3.44-2.65,5.31-4v1.16c0,1.64,0,3.27,0,4.9a3,3,0,0,0,3.8,3v-3.14l-.33-.27V153.39l.36-.31c0-.58,0-1.12,0-1.67a4.65,4.65,0,0,0-.09-1.58,3.24,3.24,0,0,0-3.75,3.46c0,.58,0,1.15,0,1.73V160l-12.77,9.79A9.67,9.67,0,0,0,84.27,175a9.54,9.54,0,0,0,2.22,11.36Zm14.37-14h0l-.19.18-.18.18-.19.18,0,.05,0,0,.18-.18.18-.18.19-.18Zm-1.71,1.65-.18.18-.18.18,0,0,0,0,.19-.19.18-.18.2-.2,0,0-.05,0ZM102.1,215l.18.18,0,0,0,0-.18-.18-.19-.19-.2-.19,0,0,0,0,.21.2Zm-4.17-29.64-.05,0-.19.18-.18.18-.18.16,0,0,0,0,.18-.15.18-.19.19-.18Zm-1.46,1.46h0l-.2.18-.18.18-.18.19,0,0,0,0,.19-.18.18-.18.18-.18ZM95,188.29l0,0-.19.17-.19.18-.18.19,0,0,0,0,.18-.18.18-.18.19-.18Zm-5.86,5.81,0,0-.19.18-.18.18-.19.18,0,.05,0,0,.18-.18.18-.19.19-.18Zm-1.46,1.46h-.05l-.2.18-.18.18-.18.19,0,0,0,0,.19-.18.18-.18.18-.18Zm-1.88,3.29L86,199l.19.17,0,0,0,0L86,199l-.18-.19-.18-.18,0,0v0Zm11.72,11.63.18.18.19.18,0,0,0-.05-.19-.17-.18-.19-.18-.18,0-.05,0,.06Zm1.69,1.66,0,0,0,0v0Zm1.24,1.25.16.16.21.2,0,0,0-.05-.2-.19-.16-.17-.18-.18,0-.05,0,.05ZM87.64,199.86a6,6,0,0,1,3.41-1.15,5.77,5.77,0,0,1,4,1.37,6.14,6.14,0,0,1,2.26,4.5,5.84,5.84,0,0,1-1.32,4,6,6,0,0,1-8.74.85,6.18,6.18,0,0,1-.55-8.72,4.12,4.12,0,0,0,.44-.65l0-.05,0,.05A2.73,2.73,0,0,0,87.64,199.86Zm-.9-20.68A6.14,6.14,0,0,1,92.86,173a6.1,6.1,0,1,1,0,12.19A6.12,6.12,0,0,1,86.74,179.18Zm6.43,47.26c-5-1.75-8.09-7.62-7.45-13.68a11.68,11.68,0,0,0,5.5,1.7,5.62,5.62,0,0,1,0,.7,10.79,10.79,0,0,0,3.18,8.41,2.05,2.05,0,0,1,.24.35Zm5.34-55.16,9-6.93V169L101,174ZM90,195.18v-6.77l3.66.34c0,1.1,0,2.23,0,3.37s0,2.22,0,3.36Zm10.76,17-.87.18c-.3-1.5-.82-3,.37-4.35A11,11,0,0,1,100.79,212.23Z" transform="translate(-48.99 -9)"/></g></g><g id="hand_6" data-name="hand 6"><g id="Layer_32" data-name="Layer 32"><path d="M263.3,155.92a11.33,11.33,0,0,0-13.57,4.76c-.63,1-1.14,2-1.78,3.18h-7.56a34.44,34.44,0,0,1,.19,6.49h7.87c3.54,6.18,9.1,8.57,17.4,5.54,0,6.56.67,12.73-.32,18.63-.43,2.57-4.27,4.57-6.56,6.83l-1.64-.92v14.35H246.42l-4.25-9.17,7.36-1.67c0-.48,0-.95,0-1.42l-8.51-.7c-3,6.9,1.37,11.27,4.19,16,16.47,3.06,25.83-.91,19.77-16.69,4.15-3,3.93-7.5,4-12.15.11-6.89.67-13.78,1.34-20.65C270.94,162.55,268.38,157.72,263.3,155.92ZM259,174.52a8.45,8.45,0,0,1-8-8.14,8.31,8.31,0,1,1,16.61,0A8.51,8.51,0,0,1,259,174.52Z" transform="translate(-48.99 -9)"/><path d="M259.58,160.22c-3.82-.12-6.4,2.34-6.35,6.13s2.26,5.86,5.9,5.94,6.06-1.63,6.36-5.5A5.77,5.77,0,0,0,259.58,160.22Z" transform="translate(-48.99 -9)"/></g><g id="Layer_33" data-name="Layer 33"><path d="M88.1,178.29a11.33,11.33,0,0,0,13.57-4.77c.63-1,1.14-2,1.78-3.17H111a35.32,35.32,0,0,1-.19-6.49H103c-3.54-6.18-9.1-8.57-17.39-5.54,0-6.56-.68-12.74.31-18.63.43-2.57,4.27-4.57,6.56-6.83l1.64.92V119.42H105c1.23,2.68,2.64,5.71,4.24,9.18l-7.36,1.67c0,.47,0,.95,0,1.42l8.52.7c3-6.9-1.38-11.27-4.2-16-16.47-3.06-25.83.91-19.77,16.69-4.15,3-3.93,7.49-4,12.14C82.26,152.13,81.7,159,81,165.9,80.47,171.66,83,176.49,88.1,178.29Zm4.27-18.6a8.46,8.46,0,0,1,8,8.13,8.31,8.31,0,1,1-16.61,0A8.49,8.49,0,0,1,92.37,159.69Z" transform="translate(-48.99 -9)"/><path d="M91.82,174c3.82.12,6.4-2.34,6.36-6.13s-2.27-5.86-5.91-6-6.06,1.64-6.36,5.51A5.78,5.78,0,0,0,91.82,174Z" transform="translate(-48.99 -9)"/></g></g></svg>