<svg xmlns="http://www.w3.org/2000/svg" width="827.79" height="827.79" viewBox="0 0 827.79 827.79"><rect x="15.19" y="13.9" width="800" height="800" fill="#29235c"/><circle cx="419.23" cy="417.14" r="320.47" fill="#2d2e83"/><circle cx="418.36" cy="417.14" r="222.19" fill="#3868b0"/><rect x="15.19" y="13.9" width="800" height="800" fill="#ed6d12"/><circle cx="419.23" cy="417.14" r="320.47" fill="#f39200"/><circle cx="418.36" cy="417.14" r="222.19" fill="#f9b233"/><rect x="14.68" y="13.9" width="800" height="800" fill="#7b2170"/><circle cx="418.72" cy="417.14" r="320.47" fill="#951b81"/><circle cx="417.85" cy="417.14" r="222.19" fill="#b04291"/><rect x="14.68" y="13.9" width="800" height="800" fill="#be1622"/><circle cx="418.72" cy="417.14" r="320.47" fill="#e62c2b"/><circle cx="417.85" cy="417.14" r="222.19" fill="#eb5e59"/><rect x="14.68" y="13.9" width="800" height="800" fill="#063"/><circle cx="418.72" cy="417.14" r="320.47" fill="#008d36"/><circle cx="417.85" cy="417.14" r="222.19" fill="#3aaa35"/><rect x="14.68" y="13.9" width="800" height="800" fill="#e6332a"/><rect x="370.93" y="13.9" width="443.75" height="666.55" fill="#f9b233"/><rect x="15.69" y="161.96" width="535.99" height="423.36" fill="#00a19a"/><rect x="124.11" y="537.32" width="549.69" height="276.58" fill="#2d2e83"/><rect x="11.93" y="12.39" width="406.28" height="799.82" fill="#ee6f5b"/><rect x="418.23" y="12.39" width="407.29" height="799.82" fill="#ea5642"/><polygon points="418.72 812.22 11.93 412.31 418.72 12.39 825.52 412.31 418.72 812.22" fill="#ffd25f"/><polygon points="825.52 412.31 418.72 12.39 418.21 12.89 418.21 811.71 418.72 812.21 825.52 412.31" fill="#fab64d"/><polygon points="11.93 12.39 11.93 246.68 250.25 12.39 11.93 12.39" fill="#334b5e"/><polygon points="825.52 12.39 587.19 12.39 825.52 246.68 825.52 12.39" fill="#2b3b4e"/><polygon points="825.52 812.21 825.52 577.92 587.19 812.21 825.52 812.21" fill="#2b3b4e"/><polygon points="13.69 813.81 247.98 813.81 13.69 579.52 13.69 813.81" fill="#334b5e"/><polygon points="668.6 31.84 541.25 31.84 413.9 31.84 222.87 31.84 31.84 31.84 31.84 159.19 31.84 286.54 31.84 413.9 31.84 604.93 31.84 795.96 159.19 795.96 286.54 795.96 413.9 795.96 604.93 795.96 795.96 795.96 795.96 668.6 795.96 541.25 795.96 413.9 795.96 222.87 795.96 31.84 668.6 31.84" fill="#b66d38"/><polygon points="668.6 31.84 541.25 31.84 413.9 31.84 413.9 795.96 604.93 795.96 795.96 795.96 795.96 668.6 795.96 541.25 795.96 413.9 795.96 222.87 795.96 31.84 668.6 31.84" fill="#ab3828"/><path d="M781.28-13.9H17.16A31.85,31.85,0,0,0-14.68,17.94V782.06A31.85,31.85,0,0,0,17.16,813.9H781.28a31.84,31.84,0,0,0,31.83-31.84V17.94A31.84,31.84,0,0,0,781.28-13.9ZM271.86,368.16H49V304.49H367.38v63.67Zm254.71,63.68H749.44v63.67H431.05V431.84Zm-159.19-191H49V177.13H367.38Zm63.67,318.38H749.44v63.68H431.05Zm318.39-191H685.76V49.78h63.68Zm-127.36,0H558.41V49.78h63.67Zm-127.35,0H431.05V49.78h63.68ZM49,49.78H367.38v63.68H49Zm0,382.06h63.67V750.22H49Zm127.35,0H240V750.22H176.35Zm127.35,0h63.68V750.22H303.7ZM749.44,750.22H431.05V686.54H749.44Z" transform="translate(14.68 13.9)" fill="#ab3828"/><path d="M781.28-13.9H399.22V813.9H781.28a31.84,31.84,0,0,0,31.83-31.84V17.94A31.84,31.84,0,0,0,781.28-13.9ZM558.41,49.78h63.68V368.16H558.41ZM431.05,272.65V49.78h63.68V368.16H431.05ZM749.44,750.22H431.05V686.54H749.44Zm0-127.35H431.05V559.19H749.44Zm0-127.36H431.05V431.84H749.44v63.67Zm0-127.35H685.76V49.78h63.68Z" transform="translate(14.68 13.9)" fill="#672415"/><path d="M783.76,809.25H14.67a26.83,26.83,0,0,1-26.83-26.82V13.33A26.83,26.83,0,0,1,14.67-13.5h769.1a26.83,26.83,0,0,1,26.82,26.83v769.1A26.83,26.83,0,0,1,783.76,809.25Z" transform="translate(14.68 13.9)" fill="#f0be44"/><path d="M783.76-13.5H399.22V809.25H783.76a26.83,26.83,0,0,0,26.83-26.82V13.33A26.83,26.83,0,0,0,783.76-13.5Z" transform="translate(14.68 13.9)" fill="#e4a739"/><path d="M41.5,755.42H756.94V40.16H41.5Z" transform="translate(14.68 13.9)" fill="#f5df5a"/><rect x="413.91" y="54.05" width="357.72" height="715.26" fill="#f0ca45"/><path d="M802.72,209a26.67,26.67,0,0,0-37.92,0l-43.64,43.64-69.39-69.39,151-151a26.65,26.65,0,0,0,0-37.92,26.66,26.66,0,0,0-37.91,0L506.53,252.65l-69.4-69.4,151-151a26.67,26.67,0,0,0,0-37.92,26.67,26.67,0,0,0-37.92,0l-150.95,151-151-151a26.67,26.67,0,0,0-37.92,0,26.67,26.67,0,0,0,0,37.92L254,75.93l-69.4,69.4-151-151a26.67,26.67,0,0,0-37.92,0,26.67,26.67,0,0,0,0,37.92L254,290.56,184.59,360l-151-151a26.67,26.67,0,0,0-37.92,0,26.67,26.67,0,0,0,0,37.92l151,151-151,151a26.66,26.66,0,0,0,0,37.91,26.65,26.65,0,0,0,37.92,0l43.64-43.64,69.4,69.4-151,151a26.66,26.66,0,0,0,0,37.91,26.65,26.65,0,0,0,37.92,0L291.9,543.11l69.4,69.4-151,151a26.81,26.81,0,0,0,37.92,37.91l151-151,150.95,151a26.81,26.81,0,1,0,37.92-37.92l-43.64-43.64,69.4-69.4,151,151a26.81,26.81,0,1,0,37.91-37.92L544.45,505.19l69.4-69.39,150.95,151a26.81,26.81,0,1,0,37.92-37.91l-151-151,151-151A26.65,26.65,0,0,0,802.72,209ZM222.5,183.25l69.4-69.4L468.61,290.56,399.22,360ZM184.58,574.59,115.19,505.2,291.9,328.48l69.4,69.4Zm391.35,37.92-69.4,69.4L329.82,505.19l69.4-69.39Zm-69.4-145.23-69.4-69.4L613.85,221.16l69.4,69.4Z" transform="translate(14.68 13.9)" fill="#f0be44"/><path d="M802.72,209a26.67,26.67,0,0,0-37.92,0l-43.64,43.64-69.39-69.39,151-151a26.65,26.65,0,0,0,0-37.92,26.66,26.66,0,0,0-37.91,0L506.53,252.65l-69.4-69.4,151-151a26.67,26.67,0,0,0,0-37.92,26.67,26.67,0,0,0-37.92,0l-150.95,151v75.83l69.39,69.4L399.22,360V435.8L575.93,612.51l-69.4,69.4L399.22,574.59v75.84l150.95,151a26.81,26.81,0,1,0,37.92-37.92l-43.64-43.64,69.4-69.4,151,151a26.81,26.81,0,1,0,37.91-37.92L544.45,505.19l69.4-69.39,150.95,151a26.81,26.81,0,1,0,37.92-37.91l-151-151,151-151A26.65,26.65,0,0,0,802.72,209ZM506.53,467.28l-69.4-69.4L613.85,221.16l69.4,69.4Z" transform="translate(14.68 13.9)" fill="#e4a739"/><path d="M413.82,252.29a6.29,6.29,0,0,1-6.65,6.66h0a6.29,6.29,0,0,1-6.66-6.66V212.34a6.29,6.29,0,0,1,6.66-6.66h0a6.29,6.29,0,0,1,6.65,6.66Z" transform="translate(14.68 13.9)" fill="#1d71b8"/><path d="M800,800c-5.33-40-45.28-79.9-93.21-79.9H94.23C46.29,720.1,7.67,760.05,1,800Z" transform="translate(14.68 13.9)" fill="#4490ce"/><path d="M800,800c-5.33-46.61-45.28-79.9-93.21-79.9H94.23" transform="translate(14.68 13.9)" fill="#1d71b8"/><circle cx="296" cy="458.61" r="49.27" fill="#4490ce"/><path d="M329.26,444.71a49.27,49.27,0,1,1-98.54,0" transform="translate(14.68 13.9)" fill="#1d71b8"/><path d="M266.68,464.69a2.86,2.86,0,0,1-2.67,2.66h-9.32a2.86,2.86,0,0,1-2.66-2.66h0a2.87,2.87,0,0,1,2.66-2.67H264c1.34,1.34,2.67,1.34,2.67,2.67Z" transform="translate(14.68 13.9)" fill="#6cc5cf"/><circle cx="534.37" cy="458.61" r="49.27" fill="#4490ce"/><path d="M471.75,444.71a49.27,49.27,0,1,0,98.54,0" transform="translate(14.68 13.9)" fill="#1d71b8"/><path d="M534.34,423.41a2.86,2.86,0,0,0,2.66,2.66h9.32a2.87,2.87,0,0,0,2.67-2.66h0a2.87,2.87,0,0,0-2.67-2.67H537a2.86,2.86,0,0,0-2.66,2.67Z" transform="translate(14.68 13.9)" fill="#7fb9e6"/><path d="M534.34,464.69a2.86,2.86,0,0,0,2.66,2.66h9.32a2.87,2.87,0,0,0,2.67-2.66h0a2.88,2.88,0,0,0-2.67-2.67H537c-1.33,1.34-2.66,1.34-2.66,2.67Z" transform="translate(14.68 13.9)" fill="#6cc5cf"/><path d="M534.34,435.39a2.86,2.86,0,0,0,2.66,2.66h9.32a2.87,2.87,0,0,0,2.67-2.66h0a2.87,2.87,0,0,0-2.67-2.66H537a2.86,2.86,0,0,0-2.66,2.66Z" transform="translate(14.68 13.9)" fill="#7fb9e6"/><path d="M520.35,739.51c0,43.08-57.26,60.49-119.84,60.49h0c-62.59,0-119.85-16.5-119.85-60.49V341.76c0-43.07,57.26-78.82,119.85-78.82h0c62.58,0,119.84,34.83,119.84,78.82Z" transform="translate(14.68 13.9)" fill="#4490ce"/><path d="M403.17,262.94h0c62.59,0,117.18,34.83,117.18,78.82V739.51c0,43.08-51.93,60.49-115.85,60.49h0" transform="translate(14.68 13.9)" fill="#1d71b8"/><path d="M266.68,423.41a2.86,2.86,0,0,1-2.67,2.66h-9.32a2.86,2.86,0,0,1-2.66-2.66h0a2.86,2.86,0,0,1,2.66-2.67H264a2.86,2.86,0,0,1,2.67,2.67Z" transform="translate(14.68 13.9)" fill="#7fb9e6"/><path d="M266.68,435.39a2.86,2.86,0,0,1-2.67,2.66h-9.32a2.86,2.86,0,0,1-2.66-2.66h0a2.86,2.86,0,0,1,2.66-2.66H264a2.86,2.86,0,0,1,2.67,2.66Z" transform="translate(14.68 13.9)" fill="#7fb9e6"/><ellipse cx="343.59" cy="304.57" rx="42.61" ry="14.65" transform="translate(-99.57 283.84) rotate(-37.23)" fill="#7fb9e6"/><circle cx="320.64" cy="366.06" r="5.33" fill="#7fb9e6"/><circle cx="317.98" cy="384.7" r="3.99" fill="#7fb9e6"/><path d="M307.29,569.22c0,2.66-4,5.33-6.66,5.33h0c-2.66,0-6.65-2.67-6.65-5.33V418.75c0-2.67,4-5.33,6.65-5.33h0c2.67,0,6.66,2.66,6.66,5.33Z" transform="translate(14.68 13.9)" fill="#7fb9e6"/><circle cx="415.19" cy="312.79" r="7.99" fill="#7fb9e6"/><path d="M582.94,720.1c0,43.95-9.32,79.9-53.26,79.9H271.34c-43.95,0-53.27-36-53.27-79.9h0c0-43.94,36-79.9,81.23-79.9H504.38c42.61,0,78.56,36,78.56,79.9Z" transform="translate(14.68 13.9)" fill="#1d71b8"/><path d="M582.94,720.1h0c0,43.95-9.32,79.9-53.26,79.9H271.34c-43.95,0-53.27-36-53.27-79.9h0" transform="translate(14.68 13.9)" fill="#1b588f"/><path d="M433.8,249.63c0,6.65-5.33,13.31-10.66,13.31H391.19c-6.66,0-10.66-6.66-10.66-13.31h0c0-6.66,5.33-13.32,10.66-13.32h31.95c6.66,0,10.66,6.66,10.66,13.32Z" transform="translate(14.68 13.9)" fill="#6cc5cf"/><path d="M393.85,236.31h29.29c6.66,0,10.66,6.66,10.66,12h0c0,6.65-4,10.65-9.32,10.65" transform="translate(14.68 13.9)" fill="#5ec0c0"/><ellipse cx="265.66" cy="675.98" rx="33.29" ry="14.65" transform="translate(-331.64 298.72) rotate(-35.96)" fill="#4490ce"/><circle cx="400.51" cy="725.43" r="23.97" transform="translate(-365.03 1018.46) rotate(-80.78)" fill="#4490ce"/><path d="M413.33,251.6a6.29,6.29,0,0,1-6.66,6.66h0A6.3,6.3,0,0,1,400,251.6v-40a6.3,6.3,0,0,1,6.67-6.67h0a6.3,6.3,0,0,1,6.66,6.67Z" transform="translate(14.68 13.9)" fill="#771610"/><path d="M800,800c-5.33-40-45.33-80-93.33-80H93.33c-48,0-86.66,40-93.33,80Z" transform="translate(14.68 13.9)" fill="#cf1d17"/><path d="M800,800c-5.33-46.67-45.33-80-93.33-80H93.33" transform="translate(14.68 13.9)" fill="#771610"/><circle cx="295.35" cy="458.16" r="49.33" fill="#cf1d17"/><path d="M328.67,444.26a49.34,49.34,0,1,1-98.67,0" transform="translate(14.68 13.9)" fill="#771610"/><path d="M266,422.93a2.87,2.87,0,0,1-2.67,2.67H254a2.88,2.88,0,0,1-2.67-2.67h0a2.88,2.88,0,0,1,2.67-2.67h9.33a2.87,2.87,0,0,1,2.67,2.67Z" transform="translate(14.68 13.9)" fill="#e9473d"/><path d="M266,464.26a2.86,2.86,0,0,1-2.67,2.67H254a2.87,2.87,0,0,1-2.67-2.67h0A2.87,2.87,0,0,1,254,461.6h9.33c1.34,1.33,2.67,1.33,2.67,2.66Z" transform="translate(14.68 13.9)" fill="#6cc5cf"/><path d="M266,434.93a2.87,2.87,0,0,1-2.67,2.67H254a2.88,2.88,0,0,1-2.67-2.67h0a2.88,2.88,0,0,1,2.67-2.67h9.33a2.87,2.87,0,0,1,2.67,2.67Z" transform="translate(14.68 13.9)" fill="#e9473d"/><circle cx="534.01" cy="458.16" r="49.33" fill="#cf1d17"/><path d="M471.33,444.26a49.34,49.34,0,1,0,98.67,0" transform="translate(14.68 13.9)" fill="#771610"/><path d="M534,422.93a2.87,2.87,0,0,0,2.67,2.67H546a2.88,2.88,0,0,0,2.67-2.67h0a2.88,2.88,0,0,0-2.67-2.67h-9.33a2.87,2.87,0,0,0-2.67,2.67Z" transform="translate(14.68 13.9)" fill="#e9473d"/><path d="M534,464.26a2.86,2.86,0,0,0,2.67,2.67H546a2.87,2.87,0,0,0,2.67-2.67h0A2.87,2.87,0,0,0,546,461.6h-9.33c-1.34,1.33-2.67,1.33-2.67,2.66Z" transform="translate(14.68 13.9)" fill="#6cc5cf"/><path d="M534,434.93a2.87,2.87,0,0,0,2.67,2.67H546a2.88,2.88,0,0,0,2.67-2.67h0a2.88,2.88,0,0,0-2.67-2.67h-9.33a2.87,2.87,0,0,0-2.67,2.67Z" transform="translate(14.68 13.9)" fill="#e9473d"/><path d="M520,739.44C520,782.56,462.67,800,400,800h0c-62.67,0-120-16.52-120-60.56V341.18c0-43.13,57.33-78.92,120-78.92h0c62.67,0,120,34.87,120,78.92Z" transform="translate(14.68 13.9)" fill="#cf1d17"/><path d="M402.67,262.26h0c62.66,0,117.33,34.87,117.33,78.92V739.44C520,782.56,468,800,404,800h0" transform="translate(14.68 13.9)" fill="#771610"/><ellipse cx="343.01" cy="303.94" rx="42.66" ry="14.67" transform="translate(-99.31 283.36) rotate(-37.23)" fill="#e9473d"/><circle cx="320.01" cy="365.49" r="5.33" fill="#e9473d"/><circle cx="317.35" cy="384.16" r="4" fill="#e9473d"/><path d="M306.67,568.93c0,2.67-4,5.33-6.67,5.33h0c-2.67,0-6.67-2.66-6.67-5.33V418.26c0-2.66,4-5.33,6.67-5.33h0c2.67,0,6.67,2.67,6.67,5.33Z" transform="translate(14.68 13.9)" fill="#e9473d"/><circle cx="414.68" cy="312.16" r="8" fill="#e9473d"/><path d="M582.67,720c0,44-9.34,80-53.34,80H270.67c-44,0-53.34-36-53.34-80h0c0-44,36-80,81.34-80H504c42.67,0,78.67,36,78.67,80Z" transform="translate(14.68 13.9)" fill="#771610"/><path d="M582.67,720h0c0,44-9.34,80-53.34,80H270.67c-44,0-53.34-36-53.34-80h0" transform="translate(14.68 13.9)" fill="#581110"/><path d="M433.33,248.93c0,6.67-5.33,13.33-10.66,13.33h-32c-6.67,0-10.67-6.66-10.67-13.33h0c0-6.67,5.33-13.33,10.67-13.33h32c6.66,0,10.66,6.66,10.66,13.33Z" transform="translate(14.68 13.9)" fill="#6cc5cf"/><path d="M393.33,235.6h29.34c6.66,0,10.66,6.66,10.66,12h0c0,6.66-4,10.66-9.33,10.66" transform="translate(14.68 13.9)" fill="#5ec0c0"/><ellipse cx="264.98" cy="675.82" rx="33.33" ry="14.67" transform="translate(-331.68 298.29) rotate(-35.96)" fill="#cf1d17"/><circle cx="400" cy="725.33" r="24" transform="translate(-365.36 1017.88) rotate(-80.78)" fill="#cf1d17"/><path d="M413,252a6.3,6.3,0,0,1-6.67,6.66h0A6.29,6.29,0,0,1,399.7,252V212a6.29,6.29,0,0,1,6.66-6.66h0A6.3,6.3,0,0,1,413,212Z" transform="translate(14.68 13.9)" fill="#c09209"/><path d="M799.41,800c-5.33-40-45.3-79.94-93.27-79.94H93.26c-48,0-86.6,40-93.26,79.94Z" transform="translate(14.68 13.9)" fill="#fab71f"/><path d="M799.41,800c-5.33-46.63-45.3-79.94-93.27-79.94H93.26" transform="translate(14.68 13.9)" fill="#c09209"/><circle cx="295.14" cy="458.42" r="49.3" fill="#fab71f"/><path d="M328.42,444.53a49.3,49.3,0,0,1-98.59,0" transform="translate(14.68 13.9)" fill="#c09209"/><path d="M265.8,464.51a2.87,2.87,0,0,1-2.66,2.67h-9.33a2.87,2.87,0,0,1-2.66-2.67h0a2.86,2.86,0,0,1,2.66-2.66h9.33c1.33,1.33,2.66,1.33,2.66,2.66Z" transform="translate(14.68 13.9)" fill="#6cc5cf"/><circle cx="533.63" cy="458.42" r="49.3" fill="#fab71f"/><path d="M471,444.53a49.3,49.3,0,0,0,98.6,0" transform="translate(14.68 13.9)" fill="#c09209"/><path d="M533.6,423.21a2.87,2.87,0,0,0,2.67,2.66h9.32a2.86,2.86,0,0,0,2.67-2.66h0a2.87,2.87,0,0,0-2.67-2.67h-9.32a2.88,2.88,0,0,0-2.67,2.67Z" transform="translate(14.68 13.9)" fill="#ffd156"/><path d="M533.6,464.51a2.88,2.88,0,0,0,2.67,2.67h9.32a2.87,2.87,0,0,0,2.67-2.67h0a2.86,2.86,0,0,0-2.67-2.66h-9.32c-1.33,1.33-2.67,1.33-2.67,2.66Z" transform="translate(14.68 13.9)" fill="#6cc5cf"/><path d="M533.6,435.2a2.87,2.87,0,0,0,2.67,2.66h9.32a2.86,2.86,0,0,0,2.67-2.66h0a2.87,2.87,0,0,0-2.67-2.67h-9.32a2.88,2.88,0,0,0-2.67,2.67Z" transform="translate(14.68 13.9)" fill="#ffd156"/><path d="M519.61,739.48c0,43.1-57.29,60.52-119.91,60.52h0c-62.62,0-119.91-16.51-119.91-60.52v-398c0-43.1,57.29-78.86,119.91-78.86h0c62.62,0,119.91,34.85,119.91,78.86Z" transform="translate(14.68 13.9)" fill="#fab71f"/><path d="M402.37,262.66h0c62.62,0,117.24,34.85,117.24,78.86v398c0,43.1-52,60.52-115.91,60.52h0" transform="translate(14.68 13.9)" fill="#c09209"/><path d="M265.8,423.21a2.86,2.86,0,0,1-2.66,2.66h-9.33a2.86,2.86,0,0,1-2.66-2.66h0a2.87,2.87,0,0,1,2.66-2.67h9.33a2.87,2.87,0,0,1,2.66,2.67Z" transform="translate(14.68 13.9)" fill="#ffd156"/><path d="M265.8,435.2a2.86,2.86,0,0,1-2.66,2.66h-9.33a2.86,2.86,0,0,1-2.66-2.66h0a2.87,2.87,0,0,1,2.66-2.67h9.33a2.87,2.87,0,0,1,2.66,2.67Z" transform="translate(14.68 13.9)" fill="#ffd156"/><ellipse cx="342.75" cy="304.31" rx="42.63" ry="14.66" transform="translate(-99.58 283.28) rotate(-37.23)" fill="#ffd156"/><circle cx="319.79" cy="365.82" r="5.33" fill="#ffd156"/><circle cx="317.12" cy="384.48" r="4" fill="#ffd156"/><path d="M306.44,569.1c0,2.66-4,5.33-6.66,5.33h0c-2.67,0-6.66-2.67-6.66-5.33V418.55c0-2.67,4-5.33,6.66-5.33h0c2.66,0,6.66,2.66,6.66,5.33Z" transform="translate(14.68 13.9)" fill="#ffd156"/><circle cx="414.38" cy="312.53" r="7.99" fill="#ffd156"/><path d="M582.23,720.06c0,44-9.32,79.94-53.29,79.94H270.47c-44,0-53.3-36-53.3-79.94h0c0-44,36-79.94,81.28-79.94H503.63c42.63,0,78.6,36,78.6,79.94Z" transform="translate(14.68 13.9)" fill="#c09209"/><path d="M582.23,720.06h0c0,44-9.32,79.94-53.29,79.94H270.47c-44,0-53.3-36-53.3-79.94h0" transform="translate(14.68 13.9)" fill="#947e18"/><path d="M433,249.34c0,6.66-5.33,13.32-10.66,13.32h-32c-6.66,0-10.66-6.66-10.66-13.32h0c0-6.66,5.33-13.33,10.66-13.33h32C429,236,433,242.68,433,249.34Z" transform="translate(14.68 13.9)" fill="#6cc5cf"/><path d="M393,236h29.31C429,236,433,242.68,433,248h0c0,6.66-4,10.65-9.32,10.65" transform="translate(14.68 13.9)" fill="#5ec0c0"/><ellipse cx="264.78" cy="675.92" rx="33.31" ry="14.66" transform="translate(-331.77 298.19) rotate(-35.96)" fill="#fab71f"/><circle cx="399.7" cy="725.39" r="23.98" transform="translate(-365.66 1017.63) rotate(-80.78)" fill="#fab71f"/><path d="M413.25,251.47a6.3,6.3,0,0,1-6.67,6.67h0a6.3,6.3,0,0,1-6.67-6.67v-40a6.3,6.3,0,0,1,6.67-6.66h0a6.3,6.3,0,0,1,6.67,6.66Z" transform="translate(14.68 13.9)" fill="#662483"/><path d="M800,800c-5.33-40-45.34-80-93.35-80H93.18c-48,0-86.69,40-93.36,80Z" transform="translate(14.68 13.9)" fill="#951b81"/><path d="M800,800c-5.33-46.68-45.34-80-93.35-80H93.18" transform="translate(14.68 13.9)" fill="#662483"/><circle cx="295.23" cy="458.08" r="49.34" fill="#951b81"/><path d="M328.56,444.18a49.35,49.35,0,1,1-98.69,0" transform="translate(14.68 13.9)" fill="#662483"/><path d="M265.88,464.19a2.86,2.86,0,0,1-2.67,2.66h-9.33a2.86,2.86,0,0,1-2.67-2.66h0a2.86,2.86,0,0,1,2.67-2.67h9.33c1.34,1.33,2.67,1.33,2.67,2.67Z" transform="translate(14.68 13.9)" fill="#6cc5cf"/><circle cx="533.95" cy="458.08" r="49.34" fill="#951b81"/><path d="M471.26,444.18a49.35,49.35,0,1,0,98.69,0" transform="translate(14.68 13.9)" fill="#662483"/><path d="M533.94,422.84a2.86,2.86,0,0,0,2.67,2.67h9.33a2.86,2.86,0,0,0,2.67-2.67h0a2.86,2.86,0,0,0-2.67-2.66h-9.33a2.86,2.86,0,0,0-2.67,2.66Z" transform="translate(14.68 13.9)" fill="#bb5fa1"/><path d="M533.94,464.19a2.86,2.86,0,0,0,2.67,2.66h9.33a2.86,2.86,0,0,0,2.67-2.66h0a2.86,2.86,0,0,0-2.67-2.67h-9.33c-1.34,1.33-2.67,1.33-2.67,2.67Z" transform="translate(14.68 13.9)" fill="#6cc5cf"/><path d="M533.94,434.85a2.86,2.86,0,0,0,2.67,2.66h9.33a2.86,2.86,0,0,0,2.67-2.66h0a2.86,2.86,0,0,0-2.67-2.67h-9.33a2.86,2.86,0,0,0-2.67,2.67Z" transform="translate(14.68 13.9)" fill="#bb5fa1"/><path d="M519.94,739.42c0,43.14-57.35,60.58-120,60.58h0c-62.68,0-120-16.52-120-60.58V341.08c0-43.14,57.35-78.94,120-78.94h0c62.68,0,120,34.88,120,78.94Z" transform="translate(14.68 13.9)" fill="#951b81"/><path d="M402.58,262.14h0c62.68,0,117.36,34.88,117.36,78.94V739.42c0,43.14-52,60.58-116,60.58h0" transform="translate(14.68 13.9)" fill="#662483"/><path d="M265.88,422.84a2.86,2.86,0,0,1-2.67,2.67h-9.33a2.86,2.86,0,0,1-2.67-2.67h0a2.86,2.86,0,0,1,2.67-2.66h9.33a2.86,2.86,0,0,1,2.67,2.66Z" transform="translate(14.68 13.9)" fill="#bb5fa1"/><path d="M265.88,434.85a2.86,2.86,0,0,1-2.67,2.66h-9.33a2.86,2.86,0,0,1-2.67-2.66h0a2.86,2.86,0,0,1,2.67-2.67h9.33a2.86,2.86,0,0,1,2.67,2.67Z" transform="translate(14.68 13.9)" fill="#bb5fa1"/><ellipse cx="342.9" cy="303.83" rx="42.67" ry="14.67" transform="translate(-99.26 283.27) rotate(-37.23)" fill="#bb5fa1"/><circle cx="319.9" cy="365.39" r="5.33" fill="#bb5fa1"/><circle cx="317.24" cy="384.06" r="4" fill="#bb5fa1"/><path d="M306.56,568.88c0,2.66-4,5.33-6.67,5.33h0c-2.67,0-6.67-2.67-6.67-5.33V418.18c0-2.67,4-5.34,6.67-5.34h0c2.67,0,6.67,2.67,6.67,5.34Z" transform="translate(14.68 13.9)" fill="#bb5fa1"/><circle cx="414.59" cy="312.05" r="8" fill="#bb5fa1"/><path d="M582.62,720c0,44-9.34,80-53.35,80H270.55c-44,0-53.35-36-53.35-80h0c0-44,36-80,81.36-80H503.93c42.68,0,78.69,36,78.69,80Z" transform="translate(14.68 13.9)" fill="#662483"/><path d="M582.62,720h0c0,44-9.34,80-53.35,80H270.55c-44,0-53.35-36-53.35-80h0" transform="translate(14.68 13.9)" fill="#472564"/><path d="M433.25,248.81c0,6.66-5.33,13.33-10.67,13.33h-32c-6.67,0-10.67-6.67-10.67-13.33h0c0-6.67,5.33-13.34,10.67-13.34h32c6.67,0,10.67,6.67,10.67,13.34Z" transform="translate(14.68 13.9)" fill="#6cc5cf"/><path d="M393.24,235.47h29.34c6.67,0,10.67,6.67,10.67,12h0c0,6.67-4,10.67-9.33,10.67" transform="translate(14.68 13.9)" fill="#5ec0c0"/><ellipse cx="264.86" cy="675.8" rx="33.34" ry="14.67" transform="translate(-331.69 298.22) rotate(-35.96)" fill="#951b81"/><circle cx="399.91" cy="725.32" r="24.01" transform="translate(-365.42 1017.78) rotate(-80.78)" fill="#951b81"/><path d="M413.25,251.7a6.29,6.29,0,0,1-6.66,6.66h0a6.3,6.3,0,0,1-6.67-6.66v-40a6.3,6.3,0,0,1,6.67-6.67h0a6.3,6.3,0,0,1,6.66,6.67Z" transform="translate(14.68 13.9)" fill="#008d36"/><path d="M799.85,800c-5.33-40-45.33-80-93.32-80H93.32c-48,0-86.65,40-93.32,80Z" transform="translate(14.68 13.9)" fill="#3aaa35"/><path d="M799.85,800c-5.33-46.66-45.33-80-93.32-80H93.32" transform="translate(14.68 13.9)" fill="#008d36"/><circle cx="295.29" cy="458.23" r="49.32" fill="#3aaa35"/><path d="M328.6,444.33a49.32,49.32,0,0,1-98.64,0" transform="translate(14.68 13.9)" fill="#008d36"/><path d="M266,464.33a2.86,2.86,0,0,1-2.67,2.66H254a2.86,2.86,0,0,1-2.66-2.66h0a2.86,2.86,0,0,1,2.66-2.67h9.33C264.62,463,266,463,266,464.33Z" transform="translate(14.68 13.9)" fill="#6cc5cf"/><circle cx="533.91" cy="458.23" r="49.32" fill="#3aaa35"/><path d="M471.24,444.33a49.33,49.33,0,0,0,98.65,0" transform="translate(14.68 13.9)" fill="#008d36"/><path d="M533.9,423a2.87,2.87,0,0,0,2.66,2.67h9.34a2.87,2.87,0,0,0,2.66-2.67h0a2.87,2.87,0,0,0-2.66-2.67h-9.34A2.87,2.87,0,0,0,533.9,423Z" transform="translate(14.68 13.9)" fill="#89bf53"/><path d="M533.9,464.33a2.86,2.86,0,0,0,2.66,2.66h9.34a2.86,2.86,0,0,0,2.66-2.66h0a2.86,2.86,0,0,0-2.66-2.67h-9.34c-1.33,1.33-2.66,1.33-2.66,2.67Z" transform="translate(14.68 13.9)" fill="#6cc5cf"/><path d="M533.9,435a2.86,2.86,0,0,0,2.66,2.66h9.34a2.86,2.86,0,0,0,2.66-2.66h0a2.86,2.86,0,0,0-2.66-2.67h-9.34A2.86,2.86,0,0,0,533.9,435Z" transform="translate(14.68 13.9)" fill="#89bf53"/><path d="M519.9,739.45c0,43.12-57.32,60.55-120,60.55h0c-62.65,0-120-16.51-120-60.55V341.27c0-43.12,57.32-78.91,120-78.91h0c62.66,0,120,34.87,120,78.91Z" transform="translate(14.68 13.9)" fill="#3aaa35"/><path d="M402.59,262.36h0c62.65,0,117.31,34.87,117.31,78.91V739.45c0,43.12-52,60.55-116,60.55h0" transform="translate(14.68 13.9)" fill="#008d36"/><path d="M266,423a2.87,2.87,0,0,1-2.67,2.67H254a2.87,2.87,0,0,1-2.66-2.67h0a2.87,2.87,0,0,1,2.66-2.67h9.33A2.87,2.87,0,0,1,266,423Z" transform="translate(14.68 13.9)" fill="#89bf53"/><path d="M266,435a2.86,2.86,0,0,1-2.67,2.66H254a2.86,2.86,0,0,1-2.66-2.66h0a2.86,2.86,0,0,1,2.66-2.67h9.33A2.86,2.86,0,0,1,266,435Z" transform="translate(14.68 13.9)" fill="#89bf53"/><ellipse cx="342.94" cy="304.03" rx="42.66" ry="14.66" transform="translate(-99.38 283.34) rotate(-37.23)" fill="#89bf53"/><circle cx="319.96" cy="365.58" r="5.33" fill="#89bf53"/><circle cx="317.29" cy="384.24" r="4" fill="#89bf53"/><path d="M306.61,569c0,2.67-4,5.33-6.67,5.33h0c-2.66,0-6.66-2.66-6.66-5.33V418.33c0-2.66,4-5.33,6.66-5.33h0c2.67,0,6.67,2.67,6.67,5.33Z" transform="translate(14.68 13.9)" fill="#89bf53"/><circle cx="414.6" cy="312.25" r="8" fill="#89bf53"/><path d="M582.56,720c0,44-9.34,80-53.33,80H270.62c-44,0-53.33-36-53.33-80h0c0-44,36-80,81.32-80H503.9c42.66,0,78.66,36,78.66,80Z" transform="translate(14.68 13.9)" fill="#008d36"/><path d="M582.56,720h0c0,44-9.34,80-53.33,80H270.62c-44,0-53.33-36-53.33-80h0" transform="translate(14.68 13.9)" fill="#063"/><path d="M433.25,249c0,6.67-5.33,13.33-10.66,13.33h-32c-6.66,0-10.66-6.66-10.66-13.33h0c0-6.66,5.33-13.33,10.66-13.33h32c6.66,0,10.66,6.67,10.66,13.33Z" transform="translate(14.68 13.9)" fill="#6cc5cf"/><path d="M393.26,235.7h29.33c6.66,0,10.66,6.67,10.66,12h0c0,6.67-4,10.66-9.33,10.66" transform="translate(14.68 13.9)" fill="#5ec0c0"/><ellipse cx="264.93" cy="675.85" rx="33.32" ry="14.66" transform="translate(-331.7 298.27) rotate(-35.96)" fill="#3aaa35"/><circle cx="399.92" cy="725.35" r="24" transform="matrix(0.16, -0.99, 0.99, 0.16, -365.44, 1017.82)" fill="#3aaa35"/><path d="M320.92,494.57l30.66,28.58,25.7-28.58,26.5,28.58,21.27-28.58,29.29,28.58,25.76-28.33" transform="translate(14.68 13.9)" fill="none" stroke="#000" stroke-linecap="round" stroke-miterlimit="10" stroke-width="8"/><path d="M323.62,493.53l80.09,46.62,73.69-46.62-73.28,20.29Z" transform="translate(14.68 13.9)" fill="#1d1d1b"/><path d="M358.17,521.22s18.91-2.89,25.86-.58,13.89,6.76,23.74,4.44,14.86-6.37,25.47-4.44,17.37,3.67,17.37,3.67S441.16,539.94,428,544s-26.25,9.85-40.53,1.74S358.17,521.22,358.17,521.22Z" transform="translate(14.68 13.9)" fill="#3b3a3c"/><path d="M436.42,523.66a38.13,38.13,0,0,1-33.73,20.66c-14.4,0-27.28-8.72-33.79-20.49L334,519.09a71,71,0,0,0,69.25,53c32.75,0,60.43-21,69.28-50.88Z" transform="translate(14.68 13.9)" fill="#e52c12"/><path d="M461.74,522.18c-10.95,25.84-36.61,43.43-66.55,43.43a71.55,71.55,0,0,1-41.25-12.89A71.29,71.29,0,0,0,403.2,572.1c32.75,0,60.43-21,69.28-50.89Z" transform="translate(14.68 13.9)" fill="#dd1614"/><polygon points="374.26 536.08 384.93 595.47 395.57 534.63 374.26 536.08" fill="#f9f9f9"/><polygon points="440.65 536.08 451.32 595.47 461.66 536.62 440.65 536.08" fill="#f9f9f9"/><path d="M334,519.09c25.5-16.24,46.55-25.44,56.29-27.53A73.89,73.89,0,0,1,405.93,490a72.1,72.1,0,0,1,11.33,1.38c9.7,2,30.43,12.28,55.22,29.84a49.2,49.2,0,0,1-21.25,4.9c-9.34.14-11.35-2.72-21.23-2.71-12.6,0-13.2,4.66-25.28,4.83-11.33.16-11.73-3.91-25.29-4.44-10.77-.42-13,2.05-22.58,1.54A57.53,57.53,0,0,1,334,519.09Z" transform="translate(14.68 13.9)" fill="#e95228"/><path d="M368.84,524.34c2.37-2.43-3.79-8.87-3.43-14.76.32-5.18,5.78-11.46,24.83-18A194,194,0,0,0,334,519.09c10.22,4.06,18.57,6,22.91,6.22,1,.05,3,.07,5.1,0C366.08,525.13,368.15,525.05,368.84,524.34Z" transform="translate(14.68 13.9)" fill="#ef7857"/><path d="M485.55,552.33a4.72,4.72,0,0,1-3-1.1L454,527.5a4.74,4.74,0,0,1,0-7.29l28.47-23.73a4.75,4.75,0,0,1,6.08,7.29l-24.1,20.08,24.1,20.09a4.75,4.75,0,0,1-3,8.39Z" transform="translate(14.68 13.9)" fill="#a1a7af"/><path d="M428.6,542.84a4.75,4.75,0,0,1-4.75-4.75V523.85a4.75,4.75,0,0,1,9.5,0v14.24A4.75,4.75,0,0,1,428.6,542.84Z" transform="translate(14.68 13.9)" fill="#1d1d1b"/><path d="M457.07,519.11h-9.49v-9.49a4.75,4.75,0,1,0-9.49,0v9.49h-19v-9.49a4.75,4.75,0,1,0-9.49,0v9.49h-19v-9.49a4.75,4.75,0,0,0-9.5,0v9.49h-19v-9.49a4.75,4.75,0,1,0-9.49,0v9.49h-9.49a4.75,4.75,0,1,0,0,9.49h23.73v9.49a4.75,4.75,0,1,0,9.49,0V528.6h19v9.49a4.75,4.75,0,1,0,9.49,0V528.6h52.21a4.75,4.75,0,0,0,0-9.49Z" transform="translate(14.68 13.9)" fill="#1d1d1b"/><path d="M457.07,561.52a4.45,4.45,0,0,1-4.45-4.45V523.85a4.45,4.45,0,1,1,8.9,0v33.22A4.45,4.45,0,0,1,457.07,561.52Z" transform="translate(14.68 13.9)" fill="#1d1d1b"/><path d="M439.48,569.92l14.24-14.24a4.75,4.75,0,0,1,6.71,0l14.24,14.24a4.75,4.75,0,0,1,1.39,3.36v50.23a4.75,4.75,0,0,1-4.75,4.75H442.84a4.75,4.75,0,0,1-4.75-4.75V573.28A4.75,4.75,0,0,1,439.48,569.92Z" transform="translate(14.68 13.9)" fill="#f59f4e"/><polygon points="457.52 637.41 457.52 587.17 471.75 572.93 485.99 587.17 485.99 637.41 457.52 637.41" fill="#fcc34f"/><path d="M457.07,618.47a4.45,4.45,0,0,1-4.45-4.45v-9.49a4.45,4.45,0,0,1,8.9,0V614A4.45,4.45,0,0,1,457.07,618.47Z" transform="translate(14.68 13.9)" fill="#bf7328"/><path d="M457.07,590a4.46,4.46,0,0,1-4.45-4.45v-9.49a4.45,4.45,0,0,1,8.9,0v9.49A4.45,4.45,0,0,1,457.07,590Z" transform="translate(14.68 13.9)" fill="#bf7328"/><path d="M324.48,537.75V483.62a14.76,14.76,0,0,1,14.76-14.77h128A14.77,14.77,0,0,1,482,483.62v54.13a78.74,78.74,0,1,1-157.48,0Z" transform="translate(14.68 13.9)" fill="#dfdfe1"/><path d="M467.19,468.85h-64V616.49A78.74,78.74,0,0,0,482,537.75V483.62A14.77,14.77,0,0,0,467.19,468.85Z" transform="translate(14.68 13.9)" fill="#cfcdd2"/><path d="M455.71,514.79a26.24,26.24,0,0,1-26.24-26.25,26.25,26.25,0,0,1-52.5,0,26.25,26.25,0,1,1-52.49,0v49.21a78.74,78.74,0,1,0,157.48,0V488.54A26.25,26.25,0,0,1,455.71,514.79Z" transform="translate(14.68 13.9)" fill="#e95228"/><path d="M455.71,514.79a26.24,26.24,0,0,1-26.24-26.25,26.25,26.25,0,0,1-26.25,26.25v101.7A78.74,78.74,0,0,0,482,537.75V488.54A26.25,26.25,0,0,1,455.71,514.79Z" transform="translate(14.68 13.9)" fill="#e52330"/><rect x="410.52" y="556.57" width="14.76" height="29.53" fill="#f4971b"/><path d="M482,488.54a26.25,26.25,0,1,1-52.49,0,26.25,26.25,0,0,1-52.5,0,26.25,26.25,0,1,1-52.49,0v49.21a78.34,78.34,0,0,0,10.92,40,83.07,83.07,0,0,1,135.64,0,78.43,78.43,0,0,0,10.92-40Z" transform="translate(14.68 13.9)" fill="#57555b"/><path d="M455.71,514.79a26.24,26.24,0,0,1-26.24-26.25,26.25,26.25,0,0,1-26.25,26.25h0v27.88h0A83,83,0,0,1,471,577.77a78.43,78.43,0,0,0,10.92-40V488.54A26.25,26.25,0,0,1,455.71,514.79Z" transform="translate(14.68 13.9)" fill="#272729"/><path d="M475.65,542.12c0,21.88-7.95,39.78-28.84,39.78H361.28c-21.88,0-28.85-17.9-28.85-39.78h0a39.9,39.9,0,0,1,39.79-39.78h65.64c20.88,0,37.79,17.9,37.79,39.78Z" transform="translate(14.68 13.9)" fill="#c4d9d8"/><path d="M475.65,547.09c0,18.9-7.95,34.81-28.84,34.81H361.28c-21.88,0-28.85-15.91-28.85-34.81h0c0-19.89,17.91-34.81,39.79-34.81h65.64c20.88,0,37.79,14.92,37.79,34.81Z" transform="translate(14.68 13.9)" fill="#edf7f8"/><path d="M339.24,532.94c2.25,22.59,30.49,51.95,64.37,51.95,35,0,63.24-29.36,64.37-51.95Z" transform="translate(14.68 13.9)" fill="#971914"/><path d="M423.94,497.93c-7.91,0-14.68,3.39-20.33,9-5.65-5.64-12.42-9-20.33-9-18.07,0-37.27,12.42-45.17,35h131C461.21,510.35,442,497.93,423.94,497.93Z" transform="translate(14.68 13.9)" fill="#cf1d17"/><path d="M377.63,503.58c1.13,2.26-2.25,6.77-9,11.29s-12.42,5.65-13.55,4.52c-1.13-2.26,2.26-6.78,9-11.3C369.73,503.58,376.5,502.45,377.63,503.58Z" transform="translate(14.68 13.9)" fill="#e55245"/><path d="M355.05,548.75c2.26-2.26,9,2.26,15.81,9s10.16,13.55,7.9,15.81-9-2.26-15.81-9S352.79,549.88,355.05,548.75Z" transform="translate(14.68 13.9)" fill="#cf1d17"/><path d="M428.46,532.94c-3.39,0-10.17-6.78-16.94-6.78a16.33,16.33,0,0,0-7.91,2.26,16.33,16.33,0,0,0-7.91-2.26c-6.77,0-13.55,6.78-16.94,6.78h0c1.13,11.29,11.3,11.29,24.85,11.29,12.42,0,23.72,0,24.85-11.29Z" transform="translate(14.68 13.9)" fill="#51100f"/><path d="M503,401.6a47.85,47.85,0,0,1-47.82,47.82H351.27a47.85,47.85,0,0,1-47.83-47.82v-5a47.85,47.85,0,0,1,47.83-47.82h103.9A47.85,47.85,0,0,1,503,396.65Z" transform="translate(14.68 13.9)" fill="#f6f6f6"/><path d="M501.34,403.25h0c0,26.38-21.44,46.17-47.82,46.17H354.57c-26.39,0-47.83-19.79-47.83-46.17h0" transform="translate(14.68 13.9)" fill="#ededed"/><path d="M502,403a47.81,47.81,0,0,1-47.77,47.77H350.43A47.8,47.8,0,0,1,302.67,403v-4.94a47.79,47.79,0,0,1,47.76-47.76H454.2A47.8,47.8,0,0,1,502,398.08Z" transform="translate(14.68 13.9)" fill="#951b81"/><path d="M500.32,404.67h0c0,26.35-21.41,46.12-47.77,46.12H353.73C327.37,450.79,306,431,306,404.67h0" transform="translate(14.68 13.9)" fill="#662483"/><path d="M500.93,402.86a47.55,47.55,0,0,1-47.52,47.51H350.18a47.55,47.55,0,0,1-47.51-47.51v-4.92a47.55,47.55,0,0,1,47.51-47.52H453.41a47.55,47.55,0,0,1,47.52,47.52Z" transform="translate(14.68 13.9)" fill="#e94e1b"/><path d="M499.29,404.5h0c0,26.21-21.3,45.87-47.52,45.87H353.46c-26.22,0-47.52-19.66-47.52-45.87h0" transform="translate(14.68 13.9)" fill="#e6332a"/><path d="M501.85,403.24a47.58,47.58,0,0,1-47.54,47.55H351a47.58,47.58,0,0,1-47.54-47.55v-4.92A47.57,47.57,0,0,1,351,350.78H454.31a47.57,47.57,0,0,1,47.54,47.54Z" transform="translate(14.68 13.9)" fill="#f9b233"/><path d="M500.22,404.88h0c0,26.23-21.32,45.91-47.55,45.91H354.3c-26.23,0-47.54-19.68-47.54-45.91h0" transform="translate(14.68 13.9)" fill="#f39200"/><path d="M502,401.71a47.76,47.76,0,0,1-47.74,47.73H350.54a47.76,47.76,0,0,1-47.73-47.73v-4.93A47.77,47.77,0,0,1,350.54,349H454.23A47.77,47.77,0,0,1,502,396.78Z" transform="translate(14.68 13.9)" fill="#3aaa35"/><path d="M500.32,403.36h0c0,26.33-21.4,46.08-47.73,46.08H353.84c-26.34,0-47.73-19.75-47.73-46.08h0" transform="translate(14.68 13.9)" fill="#008d36"/><path d="M502.93,401.86a48,48,0,0,1-48,48H350.64a48,48,0,0,1-48-48v-5a48,48,0,0,1,48-48H454.93a48,48,0,0,1,48,48Z" transform="translate(14.68 13.9)" fill="#6cc5cf"/><path d="M501.27,403.52h0c0,26.49-21.51,46.35-48,46.35H354c-26.49,0-48-19.86-48-46.35h0" transform="translate(14.68 13.9)" fill="#5ec0c0"/><path d="M349,366.71c-2.17.11-16.47,1.12-25.87,12.92-.69.87-11.94,15.51-4.65,31.83,5.09,11.4,17.12,18.88,30.52,19,1.05.19,14.68,2.43,24.74-7.45,10.3-10.11,7.29-23.54,7.08-24.42A23.12,23.12,0,0,0,371,384.65c-9.14-5.93-19-3.18-20.36-2.79-1.51.33-7.8,1.88-11.64,7.63-3.58,5.38-4.24,13.23.2,19,3.95,5.13,10,6.13,11.44,6.33A11.38,11.38,0,0,0,361.33,410c2.57-4.05,2-10.06-1.94-12.84-3-2.12-6.67-1.48-7.56-1.31" transform="translate(14.68 13.9)" fill="none" stroke="#000" stroke-linecap="round" stroke-miterlimit="10" stroke-width="7"/><path d="M426.14,420.06c1.45,1.55,11.22,11.62,26.69,11.27,1.15,0,20.08-.78,28.76-16.45,6.07-10.95,4.62-24.63-3.69-34.73-.5-.91-7.22-12.52-21.54-13.86-14.66-1.38-23.68,9.28-24.27,10a22.6,22.6,0,0,0-5.17,16c.9,10.56,9.34,16.25,10.48,17a19.5,19.5,0,0,0,13.48,3.93c6.61-.68,13.4-5.11,15.3-12a16.37,16.37,0,0,0-2-12.52,11.38,11.38,0,0,0-10.61-4.95c-4.9.61-9.43,4.78-9.22,9.49.16,3.57,3,5.92,3.68,6.48" transform="translate(14.68 13.9)" fill="none" stroke="#000" stroke-linecap="round" stroke-miterlimit="10" stroke-width="7"/><circle cx="364.1" cy="416.4" r="24.46" fill="#f6f6f6"/><circle cx="476.54" cy="417.29" r="24.46" fill="#f6f6f6"/><circle cx="364.1" cy="401.01" r="8.56" fill="#010101"/><circle cx="476.54" cy="401.01" r="8.56" fill="#010101"/><circle cx="471.86" cy="416.61" r="16.16" fill="#010101"/><path d="M358.3,407.35h0a15.61,15.61,0,0,1,13.34,7.17l13.67-8.41a31.5,31.5,0,0,0-27-14.5h0a31.48,31.48,0,0,0-27,14.5L345,414.62A15.69,15.69,0,0,1,358.3,407.35Z" transform="translate(14.68 13.9)" fill="#010101"/><path d="M358.86,405.23h0a14.12,14.12,0,0,1,12.07,6.49l12.37-7.61A28.49,28.49,0,0,0,358.86,391h0a28.49,28.49,0,0,0-24.44,13.12l12.37,7.71A14.2,14.2,0,0,1,358.86,405.23Z" transform="translate(14.68 13.9)" fill="#010101"/><path d="M448.36,405.23h0a14.12,14.12,0,0,1,12.07,6.49l12.37-7.61A28.5,28.5,0,0,0,448.36,391h0a28.52,28.52,0,0,0-24.45,13.12l12.37,7.71A14.21,14.21,0,0,1,448.36,405.23Z" transform="translate(14.68 13.9)" fill="#010101"/><path d="M352.28,399.19l0-6.91c1.95,0,8.08-.6,8.08,3.49C360.37,399.67,354.24,399.19,352.28,399.19Zm9.67,7.32h0c0-4.48-7.35-3.83-9.69-3.83l0,7.62C354.58,410.3,362,410.81,362,406.51Zm-35.41-5a26.95,26.95,0,1,1,26.92,26.89A27,27,0,0,1,326.54,401.48Zm20.1-1.47h-.37l0,9.07a1.23,1.23,0,0,1-1.31,1.15s-2.52,0-2.52,0l-.71,4.13,4.5,0,2.48,0,0,5.74,3.47,0,0-5.69c.94,0,1.86,0,2.76,0l0,5.67,3.46,0,0-5.74c5.81-.32,9.89-1.77,10.42-7.23.41-4.41-1.63-6.36-4.94-7.17,2-1,3.26-2.8,3-5.81h0c-.39-4.11-3.9-5.48-8.38-5.9l0-5.69-3.47,0v5.54l-2.75,0,0-5.58-3.47,0,0,5.69c-.76,0-1.49,0-2.2,0v0l-4.78,0V392s2.55-.05,2.5,0a1.77,1.77,0,0,1,2,1.51l0,6.48Z" transform="translate(14.68 13.9)" fill="#010101"/><path d="M451.83,398.58l0-6.91c1.95,0,8.08-.6,8.08,3.49C459.91,399.07,453.78,398.58,451.83,398.58Zm9.67,7.33h0c0-4.48-7.35-3.84-9.69-3.84l0,7.63C454.13,409.7,461.5,410.2,461.5,405.91Zm-35.41-5A26.95,26.95,0,1,1,453,427.77,27,27,0,0,1,426.09,400.88Zm20.09-1.47h-.37l0,9.07a1.23,1.23,0,0,1-1.31,1.15s-2.53,0-2.53,0l-.71,4.13,4.5,0c.85,0,1.65,0,2.48,0l0,5.74,3.47,0,0-5.69,2.75,0,0,5.67,3.47,0,0-5.74c5.81-.33,9.9-1.77,10.43-7.24.41-4.41-1.63-6.36-4.94-7.16,2-1,3.26-2.8,3-5.81h0c-.39-4.11-3.9-5.49-8.38-5.9l0-5.7-3.47,0v5.53l-2.76,0,0-5.58-3.47,0,0,5.7c-.76,0-1.5,0-2.21,0v0l-4.77,0v3.69s2.54,0,2.5,0a1.76,1.76,0,0,1,2,1.52l0,6.47C445.91,399.39,446,399.39,446.18,399.41Z" transform="translate(14.68 13.9)" fill="#010101"/><path d="M378.94,375.83a17.14,17.14,0,0,0-23.31,6.8l-.64,1.16-1.19-.65a17.16,17.16,0,1,0-16.52,30.08l29,15.92a2.63,2.63,0,0,0,2,.22,2.69,2.69,0,0,0,1.57-1.26l15.86-28.93a17.18,17.18,0,0,0-6.76-23.34Zm-35.2,16.94a5.56,5.56,0,0,0-3.78,6.89,2.55,2.55,0,1,1-4.89,1.42,10.64,10.64,0,0,1,7.24-13.18,2.54,2.54,0,0,1,1.43,4.87Z" transform="translate(14.68 13.9)" fill="#e6332a"/><path d="M475.93,386.78a17.14,17.14,0,0,0-23.83-4.63l-1.1.74-.76-1.13a17.16,17.16,0,1,0-28.46,19.18l18.49,27.43a2.63,2.63,0,0,0,1.67,1.11,2.69,2.69,0,0,0,2-.4l27.36-18.46a17.17,17.17,0,0,0,4.66-23.84Zm-39-1.06a5.58,5.58,0,0,0-6.52,4.39,2.55,2.55,0,0,1-5-1,10.65,10.65,0,0,1,12.47-8.41,2.54,2.54,0,0,1,2,3A2.52,2.52,0,0,1,436.89,385.72Z" transform="translate(14.68 13.9)" fill="#e6332a"/><circle cx="367.11" cy="417.14" r="12.9" fill="#0a998c"/><circle cx="363.88" cy="412.31" r="4.84" fill="#d8edeb"/><circle cx="470.34" cy="417.14" r="12.9" fill="#0a998c"/><circle cx="465.5" cy="412.31" r="4.84" fill="#d8edeb"/><circle cx="417.9" cy="412.64" r="46.39" fill="#0a998c"/><path d="M403.22,363.17A56.72,56.72,0,0,0,405,431.81a54,54,0,0,0-1.81-68.64Z" transform="translate(14.68 13.9)" fill="#d8edeb"/><path d="M333.19,359.57a30.82,30.82,0,0,1,15.86-10.68,30.23,30.23,0,0,1,14.25-.42" transform="translate(14.68 13.9)" fill="none" stroke="#000" stroke-linecap="round" stroke-miterlimit="10" stroke-width="9"/><path d="M444.16,337.45c1.93-.28,13.12-1.71,22.68,6.06a29,29,0,0,1,9.57,14.95" transform="translate(14.68 13.9)" fill="none" stroke="#000" stroke-linecap="round" stroke-miterlimit="10" stroke-width="9"/><path d="M340.93,340.76A142.64,142.64,0,0,1,374.5,357" transform="translate(14.68 13.9)" fill="none" stroke="#000" stroke-linecap="round" stroke-miterlimit="10" stroke-width="9"/><path d="M432.18,359.4a143.25,143.25,0,0,1,33.32-16.69" transform="translate(14.68 13.9)" fill="none" stroke="#000" stroke-linecap="round" stroke-miterlimit="10" stroke-width="9"/><path d="M328.05,349.63a167.74,167.74,0,0,1,24.05-2.34,163.69,163.69,0,0,1,20,.68" transform="translate(14.68 13.9)" fill="none" stroke="#000" stroke-linecap="round" stroke-miterlimit="10" stroke-width="9"/><path d="M435.16,350a168.47,168.47,0,0,1,44,2.71" transform="translate(14.68 13.9)" fill="none" stroke="#000" stroke-linecap="round" stroke-miterlimit="10" stroke-width="9"/><path d="M329.17,349.89a296.9,296.9,0,0,1,147.07,0" transform="translate(14.68 13.9)" fill="none" stroke="#000" stroke-linecap="round" stroke-miterlimit="10" stroke-width="9"/><path d="M472.31,323.17c-18.53,2.3-12,13.95-12,13.95-3.32-7.61,13.23-9.89,10.59,2.12s-30.9,1.25-30.9,1.25l0,.05c-1.17-.56-2.34-1.11-3.58-1.59-11.4-4.37-23.25-4-32.8.11-9.55-4.1-21.4-4.48-32.81-.11-1.21.47-2.38,1-3.53,1.57l0,0s-28.25,10.75-30.9-1.26,13.9-9.73,10.59-2.11c0,0,6.53-11.65-12-13.95s-27.72,16.59-15.18,34.77c11,15.92,41.86,11.7,55.88,7.84.29-.07.57-.17.85-.25,1.59-.46,3-.91,4-1.31a44.24,44.24,0,0,0,23.1-19.71,44.2,44.2,0,0,0,23.1,19.71c.26.1.52.16.78.26.76.27,1.64.56,2.65.86.6.18,1.21.37,1.81.53,14.16,3.83,44.66,7.87,55.56-7.93C500,339.77,490.84,320.88,472.31,323.17Z" transform="translate(14.68 13.9)" fill="#010101"/><path d="M328.7,349.45a5.72,5.72,0,0,1,0,7.54h0a5.71,5.71,0,0,1-7.53,0l-18.85-18.85a5.72,5.72,0,0,1,0-7.54h0a5.75,5.75,0,0,1,7.54,0Z" transform="translate(14.68 13.9)" fill="#1d1d1b"/><path d="M368.32,344.58c0,1.89-1.89,5.66-3.77,5.66h0c-3.77,0-5.66,0-5.66-3.77l-7.53-32c0-1.89,0-5.66,3.77-5.66h0c1.88,0,5.65,0,5.65,3.77Z" transform="translate(14.68 13.9)" fill="#1d1d1b"/><path d="M470.1,346.39c-1.88,1.88,0,3.77,1.88,5.65h0c1.89,1.89,3.77,3.77,5.66,1.89l18.85-18.85a5.75,5.75,0,0,0,0-7.54h0a5.72,5.72,0,0,0-7.54,0Z" transform="translate(14.68 13.9)" fill="#1d1d1b"/><path d="M438.32,344.58c0,1.89,1.88,5.66,3.77,5.66h0c3.77,0,5.65,0,5.65-3.77l7.54-32c0-1.89,0-5.66-3.77-5.66h0c-1.88,0-5.65,0-5.65,3.77Z" transform="translate(14.68 13.9)" fill="#1d1d1b"/><path d="M398.48,344.58q0,5.66,5.65,5.66h0q5.65,0,5.66-5.66v-32q0-5.66-5.66-5.65h0q-5.65,0-5.65,5.65Z" transform="translate(14.68 13.9)" fill="#1d1d1b"/><path d="M342.84,349.44a48.94,48.94,0,0,0-40.93,22.13H281.12a5.15,5.15,0,0,0,0,10.3h15.63a49,49,0,1,0,46.09-32.43Zm0,87.64a38.67,38.67,0,1,1,38.67-38.67A38.71,38.71,0,0,1,342.84,437.08Z" transform="translate(14.68 13.9)" fill="#010101"/><path d="M522.48,371.57H499.26a48.93,48.93,0,0,0-82.53,1,20.49,20.49,0,0,0-26-5.39,5.15,5.15,0,1,0,4.95,9,10.21,10.21,0,0,1,15.09,9,5.8,5.8,0,0,0,.1,1,49,49,0,0,0,93.27,29.44,5.15,5.15,0,0,0-9.63-3.63,38.67,38.67,0,1,1-36.2-52.3,38.46,38.46,0,0,1,38.2,32.61,5.15,5.15,0,0,0,10.17-1.6,48.83,48.83,0,0,0-2.28-8.88h18.07a5.15,5.15,0,0,0,0-10.3Z" transform="translate(14.68 13.9)" fill="#010101"/><path d="M487.21,246.66a100,100,0,0,0-31.08,15.65A100.73,100.73,0,0,1,439.07,321a43.44,43.44,0,0,1,7.29,15.37,100.27,100.27,0,0,0,44.69-87A3,3,0,0,0,487.21,246.66Z" transform="translate(14.68 13.9)" fill="#53b04a"/><path d="M444.32,226.24a99.79,99.79,0,0,0-18.87,18.38,101,101,0,0,1,1.77,18.85,99.79,99.79,0,0,1-9.29,42.18A43.79,43.79,0,0,1,439.07,321a100.35,100.35,0,0,0,9.79-93.48A3,3,0,0,0,444.32,226.24Z" transform="translate(14.68 13.9)" fill="#ffdb6d"/><path d="M404,303.37a43.51,43.51,0,0,1,13.9,2.28,100.28,100.28,0,0,0-11.54-103.34,3,3,0,0,0-4.72,0,100.28,100.28,0,0,0-11.54,103.34A43.51,43.51,0,0,1,404,303.37Z" transform="translate(14.68 13.9)" fill="#53b04a"/><path d="M390.13,305.65a99.65,99.65,0,0,1-9.3-42.18,101,101,0,0,1,1.78-18.85,100.08,100.08,0,0,0-18.87-18.38,3,3,0,0,0-4.54,1.27A100.27,100.27,0,0,0,369,321,43.68,43.68,0,0,1,390.13,305.65Z" transform="translate(14.68 13.9)" fill="#ffdb6d"/><path d="M369,321a100.53,100.53,0,0,1-17.06-58.68,100,100,0,0,0-31.09-15.65,3,3,0,0,0-3.84,2.75,100.32,100.32,0,0,0,44.69,87A43.59,43.59,0,0,1,369,321Z" transform="translate(14.68 13.9)" fill="#53b04a"/><path d="M453.09,289.55c-.21.82-.43,1.65-.66,2.47a99.74,99.74,0,0,1-13.36,29,43.36,43.36,0,0,1,7.29,15.37,99.64,99.64,0,0,0,25.85-24.92A79.56,79.56,0,0,0,453.09,289.55Z" transform="translate(14.68 13.9)" fill="#2ca860"/><path d="M439.07,321a99.74,99.74,0,0,0,13.36-29c.23-.82.45-1.65.66-2.47a78.83,78.83,0,0,0-26.62-13.8,99.32,99.32,0,0,1-8.54,29.9A43.73,43.73,0,0,1,439.07,321Z" transform="translate(14.68 13.9)" fill="#f9b86a"/><path d="M426.47,275.75a79.56,79.56,0,0,0-44.88,0,99.61,99.61,0,0,0,8.54,29.9,43.51,43.51,0,0,1,27.8,0A99.32,99.32,0,0,0,426.47,275.75Z" transform="translate(14.68 13.9)" fill="#2ca860"/><path d="M355.62,292A100,100,0,0,0,369,321a43.74,43.74,0,0,1,21.14-15.34,99.32,99.32,0,0,1-8.54-29.9A78.85,78.85,0,0,0,355,289.56C355.17,290.38,355.39,291.2,355.62,292Z" transform="translate(14.68 13.9)" fill="#f9b86a"/><path d="M361.69,336.37A43.59,43.59,0,0,1,369,321a100,100,0,0,1-13.37-29c-.23-.82-.44-1.64-.65-2.47a79.81,79.81,0,0,0-19.13,21.9A100.12,100.12,0,0,0,361.69,336.37Z" transform="translate(14.68 13.9)" fill="#2ca860"/><path d="M364.35,374.89l-3.85-25.78c-.08-1.09-.12-2.2-.12-3.32a43.65,43.65,0,0,1,87.3,0c0,1.12,0,2.23-.13,3.32l-3.48,27.7" transform="translate(14.68 13.9)" fill="#c763a3"/><path d="M444.89,370.33l2.66-21.22c.09-1.09.13-2.2.13-3.32s-.06-2.33-.15-3.48a41.34,41.34,0,0,0-11-.24,55.13,55.13,0,0,0-21.63,7.14,22.36,22.36,0,0,1-21.9,0,55.12,55.12,0,0,0-21.64-7.14,41.72,41.72,0,0,0-10.82.21c-.09,1.16-.15,2.33-.15,3.51s0,2.22.12,3.32l3.1,20.76a43.18,43.18,0,0,1,11.89,5.29l57.08,1.37A43.12,43.12,0,0,1,444.89,370.33Z" transform="translate(14.68 13.9)" fill="#d25198"/><circle cx="418.71" cy="359.69" r="22.38" fill="#ffdb6d"/><path d="M426.41,345.79c0-.54,0-1.07-.07-1.59a59.38,59.38,0,0,0-11.45,5,22.36,22.36,0,0,1-21.9,0,60.45,60.45,0,0,0-11.28-5c0,.51-.06,1-.06,1.54a22.38,22.38,0,0,0,44.76,0Z" transform="translate(14.68 13.9)" fill="#f9b86a"/><path d="M539.89,355.92a6.86,6.86,0,0,0-11.19-5.5,59,59,0,0,1-20,10.78c-9.8,3-18,2.54-30.25,1.87-23.46-1.29-28.29-6.31-41.9-4.89a55.47,55.47,0,0,0-21.63,7.14,22.36,22.36,0,0,1-21.9,0,55.45,55.45,0,0,0-21.64-7.14c-13.61-1.42-18.44,3.6-41.89,4.89-12.29.67-20.46,1.12-30.26-1.87a59,59,0,0,1-20-10.78,6.87,6.87,0,0,0-11.2,5.5c0,1.2.12,2.39.27,3.54,1,8.13,1.6,35.25,21.64,58.65,5.77,6.74,19.29,22.52,41.37,26.88,26.41,5.22,54.27-7.3,59.35-11.87.71-.63,4.38-4.16,8.9-4.71.6-.07,8.34-.08,9,0,4.49.55,8,4,8.76,4.71,5.06,4.61,32.82,17.11,59.35,11.87,22.09-4.36,35.6-20.14,41.37-26.88,20-23.4,20.61-50.52,21.65-58.65A34.07,34.07,0,0,0,539.89,355.92Zm-161,53.45A43.13,43.13,0,0,1,319,397.9h0l8.89-6a43.14,43.14,0,0,1,59.92,11.47h0ZM491,397.9a43.13,43.13,0,0,1-59.91,11.47l-8.9-6h0a43.13,43.13,0,0,1,59.91-11.47l8.9,6Z" transform="translate(14.68 13.9)" fill="#7055a0"/><path d="M528.7,350.42a59,59,0,0,1-20,10.78,49.17,49.17,0,0,1-4.95,1.25c-1,10.54-3.29,34.6-21.33,55.66-5.45,6.37-17.82,20.8-37.79,26.05,9.74,2.12,21,3,32,.83,22.09-4.36,35.6-20.14,41.37-26.88,20-23.4,20.61-50.52,21.65-58.65a34.07,34.07,0,0,0,.26-3.54A6.86,6.86,0,0,0,528.7,350.42Z" transform="translate(14.68 13.9)" fill="#674897"/><path d="M381.67,433.12c-.72-.66-4.28-4.16-8.76-4.71-.65-.08-8.39-.07-9,0-4.52.55-8.19,4.08-8.9,4.71-3,2.67-13.72,8.05-27.41,11,1.19.32,2.41.61,3.65.85,21.9,4.33,44.78-3.54,54.86-8.95A24.08,24.08,0,0,1,381.67,433.12Z" transform="translate(14.68 13.9)" fill="#674897"/><circle cx="418.71" cy="359.69" r="4.64" fill="#7055a0"/><circle cx="418.62" cy="403.98" r="4.64" fill="#ffdb6d"/><circle cx="401.49" cy="395.34" r="4.64" fill="#ffdb6d"/><circle cx="383.67" cy="386.7" r="4.64" fill="#ffdb6d"/><circle cx="365.22" cy="386.07" r="4.64" fill="#ffdb6d"/><circle cx="348.39" cy="388.79" r="4.64" fill="#ffdb6d"/><circle cx="331.62" cy="393.43" r="4.64" fill="#ffdb6d"/><circle cx="437.25" cy="395.34" r="4.64" fill="#ffdb6d"/><circle cx="455.07" cy="386.7" r="4.64" fill="#ffdb6d"/><circle cx="473.52" cy="386.07" r="4.64" fill="#ffdb6d"/><circle cx="490.35" cy="388.79" r="4.64" fill="#ffdb6d"/><circle cx="507.12" cy="393.43" r="4.64" fill="#ffdb6d"/><path d="M537,353.46a8.34,8.34,0,0,0-6.69-1.91l-32.61,5-90.88-5.12a7.22,7.22,0,0,0-.93,0L315,356.59l-32.61-5a8.33,8.33,0,0,0-9.59,8.23,89.5,89.5,0,0,0,81.35,89.13,59.22,59.22,0,0,1,15.23,3.54l34.07,12.62a8.32,8.32,0,0,0,5.79,0l34.06-12.62a59.39,59.39,0,0,1,15.24-3.54,89.5,89.5,0,0,0,81.35-89.13A8.33,8.33,0,0,0,537,353.46Z" transform="translate(14.68 13.9)" fill="#185067"/><path d="M405.9,351.47,315,356.59l-32.61-5a8.32,8.32,0,0,0-9.59,8.23,89.5,89.5,0,0,0,81.35,89.13,59.22,59.22,0,0,1,15.23,3.54l34.07,12.62a8.52,8.52,0,0,0,2.89.52V351.47C406.21,351.47,406.05,351.46,405.9,351.47Z" transform="translate(14.68 13.9)" fill="#f9b03d"/><path d="M348.61,318.61a8.33,8.33,0,0,0-7,5.86A49.22,49.22,0,0,0,388.69,388a50.85,50.85,0,0,0,5.89-.35,8.3,8.3,0,0,0,7-5.86,49.22,49.22,0,0,0-52.95-63.16Z" transform="translate(14.68 13.9)" fill="#3ab7b6"/><path d="M348.61,318.61a8.33,8.33,0,0,0-7,5.86,49.24,49.24,0,0,0,30,60.44V321.32A49.34,49.34,0,0,0,348.61,318.61Z" transform="translate(14.68 13.9)" fill="#6dc3bf"/><path d="M464.12,318.61a8.33,8.33,0,0,1,7,5.86A49.22,49.22,0,0,1,424,388a50.72,50.72,0,0,1-5.89-.35,8.33,8.33,0,0,1-7-5.86,49.23,49.23,0,0,1,53-63.16Z" transform="translate(14.68 13.9)" fill="#6dc3bf"/><path d="M464.12,318.61a8.33,8.33,0,0,1,7,5.86,49.24,49.24,0,0,1-30,60.44V321.32A49.34,49.34,0,0,1,464.12,318.61Z" transform="translate(14.68 13.9)" fill="#3ab7b6"/><path d="M367.05,392.29c-10.24-6.08-23.39-7-39.07-2.73a8.31,8.31,0,0,0-4.82,12.53c.54.85,13.77,20.79,51.45,20.79a8.32,8.32,0,0,0,8.09-10.26A34.46,34.46,0,0,0,367.05,392.29Z" transform="translate(14.68 13.9)" fill="#dee1e7"/><path d="M352.38,387.33c-7.25-1-15.41-.22-24.4,2.23a8.31,8.31,0,0,0-4.82,12.53c.42.65,8.37,12.64,29.23,18.11Z" transform="translate(14.68 13.9)" fill="#fff"/><path d="M410.92,285.38a8.28,8.28,0,0,0-9.11,0,49.22,49.22,0,0,0,0,82.42,8.31,8.31,0,0,0,9.11,0,49.22,49.22,0,0,0,0-82.42Z" transform="translate(14.68 13.9)" fill="#bd2d47"/><path d="M406.37,284a8.27,8.27,0,0,0-4.56,1.36,49.22,49.22,0,0,0,0,82.42,8.27,8.27,0,0,0,4.56,1.36Z" transform="translate(14.68 13.9)" fill="#d72e47"/><path d="M445.68,392.29c10.24-6.08,23.39-7,39.07-2.73a8.31,8.31,0,0,1,4.82,12.53c-.54.85-13.77,20.79-51.45,20.79A8.32,8.32,0,0,1,430,412.62,34.46,34.46,0,0,1,445.68,392.29Z" transform="translate(14.68 13.9)" fill="#fff"/><path d="M460.35,387.33c7.25-1,15.41-.22,24.4,2.23a8.31,8.31,0,0,1,4.82,12.53c-.42.65-8.37,12.64-29.23,18.11Z" transform="translate(14.68 13.9)" fill="#dee1e7"/><path d="M433.79,359.83v50.24a43.6,43.6,0,0,0,43.6,43.6h20.22a43.6,43.6,0,0,0,43.6-43.6V359.83Z" transform="translate(14.68 13.9)" fill="#21272e"/><path d="M446,466H361.24a47.15,47.15,0,0,0-47.15,47.15h0a18.18,18.18,0,0,0,16.3,18.26,17.9,17.9,0,0,0,19.51-17.83,17.9,17.9,0,1,0,35.8,0,17.91,17.91,0,0,0,35.81,0,17.91,17.91,0,0,0,35.81,0,17.9,17.9,0,0,0,18.55,17.89,18.18,18.18,0,0,0,17.26-18.32h0A47.15,47.15,0,0,0,446,466Z" transform="translate(14.68 13.9)" fill="#59432d"/><path d="M523.31,319.86a17.9,17.9,0,0,0-17.91,17.9,17.9,17.9,0,0,0-35.8,0,17.91,17.91,0,0,0-35.81,0V373.2H541.21V337.76A17.9,17.9,0,0,0,523.31,319.86Z" transform="translate(14.68 13.9)" fill="#59432d"/><path d="M477.39,433.81a23.77,23.77,0,0,1-23.74-23.74v-17h67.7v17a23.77,23.77,0,0,1-23.74,23.74Z" transform="translate(14.68 13.9)" fill="#eee5de"/><path d="M373.43,359.83v50.24a43.6,43.6,0,0,1-43.6,43.6H309.61a43.6,43.6,0,0,1-43.6-43.6V359.83Z" transform="translate(14.68 13.9)" fill="#21272e"/><path d="M283.91,319.86a17.89,17.89,0,0,1,17.9,17.9,17.91,17.91,0,0,1,35.81,0,17.91,17.91,0,0,1,35.81,0V373.2H266V337.76A17.89,17.89,0,0,1,283.91,319.86Z" transform="translate(14.68 13.9)" fill="#59432d"/><path d="M329.83,433.81a23.77,23.77,0,0,0,23.74-23.74v-17h-67.7v17a23.77,23.77,0,0,0,23.74,23.74Z" transform="translate(14.68 13.9)" fill="#eee5de"/><path d="M446,466H361.24a47.22,47.22,0,0,0-8.8.83A55.71,55.71,0,0,0,361,482a54.39,54.39,0,0,0,40.67,20.54c.63,0,1.26,0,1.9,0s1.27,0,1.9,0A54.41,54.41,0,0,0,446.18,482a56,56,0,0,0,8.6-15.16A47.22,47.22,0,0,0,446,466Z" transform="translate(14.68 13.9)" fill="#21272e" opacity="0.3" style="isolation:isolate"/><path d="M541.21,337.76a17.91,17.91,0,0,0-35.81,0,17.9,17.9,0,0,0-35.8,0,17.91,17.91,0,0,0-35.81,0v72.31A43.43,43.43,0,0,0,446,440.26l95.26-67.06V337.76Z" transform="translate(14.68 13.9)" fill="#21272e" opacity="0.3" style="isolation:isolate"/><path d="M446.42,438.72c5.1,26.45-14.36,51.76-41.29,52.67l-1.52,0-1.53,0c-26.92-.91-46.38-26.22-41.28-52.67l12-62.32a53.89,53.89,0,0,0,.72-5.67,30.18,30.18,0,0,1,60.16,0,51.36,51.36,0,0,0,.71,5.67Z" transform="translate(14.68 13.9)" fill="#f3a2b6"/><path d="M446.42,438.72l-12-62.32a51.36,51.36,0,0,1-.71-5.67A30.19,30.19,0,0,0,403.61,343h0V491.41h0l1.52,0C432.06,490.48,451.52,465.17,446.42,438.72Z" transform="translate(14.68 13.9)" fill="#21272e" opacity="0.3" style="isolation:isolate"/><path d="M373.43,337.76a17.91,17.91,0,0,0-35.81,0,17.91,17.91,0,0,0-35.81,0,17.9,17.9,0,1,0-35.8,0v72.31a43.43,43.43,0,0,0,12.16,30.19l95.26-67.06V337.76Z" transform="translate(14.68 13.9)" fill="#21272e" opacity="0.3" style="isolation:isolate"/><polygon points="493.55 513.69 445.91 567.87 508.7 630.66 559.61 579.75 493.55 513.69" fill="#434342"/><polygon points="469.73 540.78 445.91 567.87 508.7 630.66 534.16 605.21 469.73 540.78" fill="#717171"/><polygon points="339.18 513.69 386.82 567.87 324.03 630.66 273.12 579.75 339.18 513.69" fill="#434342"/><polygon points="362.85 540.61 339.18 513.69 273.12 579.75 298.41 605.05 362.85 540.61" fill="#717171"/><path d="M304.37,358.71a105.41,105.41,0,0,1,194.31,0l8.21,105.44v18.19a105.37,105.37,0,1,1-210.74,0V464.15Z" transform="translate(14.68 13.9)" fill="#c3c2c2"/><path d="M401.52,294.2a105.4,105.4,0,0,0-97.15,64.51l-8.22,105.44v18.19A105.37,105.37,0,0,0,401.52,587.71V294.2Z" transform="translate(14.68 13.9)" fill="#eaeaea"/><path d="M478.84,355.23H324.2a58.07,58.07,0,1,0,56.71,70.59h41.23a58.07,58.07,0,1,0,56.7-70.59Z" transform="translate(14.68 13.9)" fill="#db6e10"/><path d="M401.52,469.72a64.3,64.3,0,1,0,64.3,64.3A64.37,64.37,0,0,0,401.52,469.72ZM444.61,534a43.1,43.1,0,0,1-1.62,11.7L422.73,534,443,522.32A43.1,43.1,0,0,1,444.61,534Zm-86.18,0a43.1,43.1,0,0,1,1.63-11.7L380.32,534l-20.26,11.69A43,43,0,0,1,358.43,534Zm73.94-30-20.24,11.68v-23.4A43.19,43.19,0,0,1,432.37,504Zm-41.45-11.72v23.4L370.68,504A43.19,43.19,0,0,1,390.92,492.25Zm-20.24,71.82,20.24-11.68v23.4A43.19,43.19,0,0,1,370.68,564.07Zm41.45,11.72v-23.4l20.24,11.68A43.19,43.19,0,0,1,412.13,575.79Z" transform="translate(14.68 13.9)" fill="#434342"/><path d="M505.72,361.83l-78.34,78.35A58.35,58.35,0,0,0,440.58,457L522.51,375A58.38,58.38,0,0,0,505.72,361.83Z" transform="translate(14.68 13.9)" fill="#fed68c"/><rect x="262.13" y="542.96" width="42.88" height="96.71" transform="translate(-320.38 387.6) rotate(-45)" fill="#099046"/><rect x="245.04" y="550.04" width="42.88" height="48.36" transform="translate(-313.31 370.51) rotate(-45)" fill="#64b97e"/><rect x="245.04" y="550.04" width="42.88" height="48.36" transform="translate(-313.31 370.51) rotate(-45)" fill="#64b97e"/><rect x="471.12" y="569.87" width="96.71" height="42.88" transform="translate(-251.29 554.41) rotate(-45)" fill="#099046"/><rect x="478.2" y="586.97" width="48.36" height="42.88" transform="translate(-268.39 547.33) rotate(-45)" fill="#64b97e"/><path d="M401.52,355.23H324.2a58.07,58.07,0,1,0,56.71,70.59h20.61Z" transform="translate(14.68 13.9)" fill="#f8ab14"/><path d="M384.37,355.23,284.21,455.39a58.3,58.3,0,0,0,18.24,11.76L414.36,355.23Z" transform="translate(14.68 13.9)" fill="#fed68c"/><path d="M470.74,221.86a48.58,48.58,0,0,0-36.6,52.35c22.9,16,57.57,1.27,57.57,1.27S493.65,237.87,470.74,221.86Z" transform="translate(14.68 13.9)" fill="#b02869"/><path d="M549.27,276.76c-22.9-16-57.56-1.28-57.56-1.28s-1.95,37.62,21,53.63a48.58,48.58,0,0,0,36.6-52.35Z" transform="translate(14.68 13.9)" fill="#e8368c"/><circle cx="506.38" cy="289.38" r="15.97" fill="#751b47"/><ellipse cx="554.71" cy="237.27" rx="67.99" ry="59.5" fill="#ffda45"/><ellipse cx="554.71" cy="237.27" rx="27.2" ry="23.8" fill="#e8368c"/><ellipse cx="282.74" cy="237.27" rx="67.99" ry="59.5" fill="#f49723"/><ellipse cx="282.74" cy="237.27" rx="27.2" ry="23.8" fill="#b02869"/><path d="M404,199.58c-58.43-2-119.07,21.8-117.68,37.75,1.85,21.21,111,1,181.6,56.25,95.49,74.66,44.84,227.84,64.37,229.84S636,376.27,557,274.79C525,233.73,467.21,201.68,404,199.58Z" transform="translate(14.68 13.9)" fill="#ffda45"/><path d="M213.66,401.86c.07,75.42,38.15,145.41,55.76,143,26.29-3.54-25.87-163.71,68-247.75,51.75-46.34,130.07-53.57,188.76-52.3-13.51-10.88-45.88-34-95.36-42.58C417.26,199.92,362,191,310.21,215,212.85,260.25,213.65,382.18,213.66,401.86Z" transform="translate(14.68 13.9)" fill="#f49723"/><ellipse cx="547.91" cy="552.6" rx="34" ry="29.75" fill="#e8368c"/><path d="M533.23,509c-18.78,0-34,13.31-34,29.74s15.22,29.75,34,29.75" transform="translate(14.68 13.9)" fill="#b02869"/><ellipse cx="289.54" cy="552.6" rx="34" ry="29.75" fill="#e8368c"/><path d="M274.86,509c-18.78,0-34,13.31-34,29.74s15.22,29.75,34,29.75" transform="translate(14.68 13.9)" fill="#b02869"/><path d="M358.9,148.24c-15.47,0-29.83,12.55-31.9,27.89l-10.3,76.22,93.55,7-7-111.15Z" transform="translate(14.68 13.9)" fill="#edbf8c"/><path d="M479.44,176.13c-2.07-15.34-16.43-27.89-31.91-27.89H403.22V259.39l86.52-7Z" transform="translate(14.68 13.9)" fill="#edaa61"/><path d="M269.57,252.35c0,12.87,12.84,26.37,35.24,37,26.05,12.4,61,19.24,98.41,19.24l7-28.14-7-28.14Z" transform="translate(14.68 13.9)" fill="#edaa61"/><path d="M325.72,267.75c-15.09-5.79-23.06-11.85-26.49-15.4H255.5c0,38.85,66.13,70.34,147.72,70.34l7-21.1-7-21.1C374.65,280.49,347.13,276,325.72,267.75Z" transform="translate(14.68 13.9)" fill="#ed9432"/><path d="M310.86,276.69c-18.71-8.91-27.23-18.86-27.23-24.34H269.57c0,12.87,12.84,26.37,35.24,37,26.05,12.4,61,19.24,98.41,19.24l7-7-7-7C368.37,294.56,334.71,288,310.86,276.69Z" transform="translate(14.68 13.9)" fill="#edaa61"/><path d="M403.22,252.35v56.28c37.41,0,72.35-6.84,98.4-19.24l5.59-37Z" transform="translate(14.68 13.9)" fill="#ed9432"/><path d="M507.21,252.35c-3.43,3.55-11.4,9.61-26.49,15.4-21.41,8.22-48.93,12.74-77.5,12.74V322.7c81.58,0,147.72-31.5,147.72-70.35Z" transform="translate(14.68 13.9)" fill="#ec673e"/><path d="M522.8,252.35c0,5.48-8.52,15.43-27.22,24.34-23.85,11.35-57.52,17.87-92.36,17.87v14.07c37.41,0,72.35-6.84,98.4-19.24,22.4-10.67,35.25-24.17,35.25-37Z" transform="translate(14.68 13.9)" fill="#ed9432"/><path d="M401.8,161.12a9.47,9.47,0,0,1,0,18.94v82.08h65.66L417.92,138.28,401.8,129.8Zm22.1,50.51a9.47,9.47,0,1,1-9.47,9.47A9.47,9.47,0,0,1,423.9,211.63Z" transform="translate(14.68 13.9)" fill="#f49723"/><path d="M401.8,180.06a9.47,9.47,0,0,1,0-18.94V129.8l-16.12,8.48L336.13,262.14H401.8Zm-28.41,69.45a9.47,9.47,0,1,1,9.47-9.47A9.48,9.48,0,0,1,373.39,249.51Z" transform="translate(14.68 13.9)" fill="#ffda45"/><polygon points="416.48 111.88 416.48 73.99 402.82 101.67 372.28 106.1 394.38 127.64 389.16 158.06 400.36 152.18 416.48 143.7 416.48 111.88" fill="#e8368c"/><polygon points="416.48 143.7 432.6 152.17 443.8 158.06 438.58 127.64 460.68 106.1 430.14 101.67 416.48 73.99 416.48 111.88 416.48 143.7" fill="#b12869"/><polygon points="350.81 276.04 340.71 276.04 340.71 301.29 416.48 301.29 416.48 276.04 350.81 276.04" fill="#e8368c"/><polygon points="482.14 276.04 416.48 276.04 416.48 301.29 492.25 301.29 492.25 276.04 482.14 276.04" fill="#b12869"/><circle cx="388.07" cy="253.94" r="9.47" fill="#fff"/><circle cx="438.58" cy="235" r="9.47" fill="#fff"/><circle cx="416.48" cy="184.49" r="9.47" fill="#fff"/></svg>