<?xml version="1.0" encoding="utf-8"?>
<!-- Generator: Adobe Illustrator 25.0.0, SVG Export Plug-In . SVG Version: 6.00 Build 0)  -->
<svg version="1.1" xmlns="http://www.w3.org/2000/svg" xmlns:xlink="http://www.w3.org/1999/xlink" x="0px" y="0px"
	 viewBox="0 0 350 350" style="enable-background:new 0 0 350 350;" xml:space="preserve">
<style type="text/css">
	.st0{fill:#F79A6C;}
	.st1{fill:#F05354;}
	.st2{fill:#202153;}
	.st3{fill:#91D6E7;}
	.st4{fill:#7F7F7F;}
	.st5{opacity:0.1;fill:#010101;}
	.st6{fill:#3B3B3B;}
	.st7{fill:#595A5A;}
	.st8{fill:#B5B5B6;}
	.st9{fill:#868686;}
	.st10{fill:#00A5BA;}
	.st11{fill:#00BAD3;}
	.st12{fill:#00BFDC;}
	.st13{fill:#0381AA;}
	.st14{fill:#D44F53;}
	.st15{fill:#F16067;}
	.st16{fill:#E1555A;}
	.st17{fill:#E5555B;}
	.st18{fill:#E6A656;}
	.st19{fill:#C79048;}
	.st20{fill:#D4994F;}
	.st21{fill:#E6A657;}
	.st22{fill:#FCB862;}
	.st23{fill:#B98644;}
	.st24{fill:#579FA3;}
	.st25{fill:#A1DBE9;}
	.st26{opacity:0.4;}
	.st27{fill:#FFFFFF;}
	.st28{fill:#E1565A;}
	.st29{fill:#F15E61;}
	.st30{fill:#F1666D;}
	.st31{fill:#D0EDF3;}
	.st32{fill:#90D5DF;}
	.st33{fill:#C6494D;}
	.st34{fill:#B1B1B1;}
	.st35{fill:#C2C0C0;}
	.st36{fill:#5E5F5F;}
	.st37{fill:#979797;}
	.st38{fill:#919090;}
	.st39{fill:#C79049;}
	.st40{fill:#B68342;}
	.st41{opacity:0.2;}
	.st42{fill:#EE2828;}
	.st43{opacity:0.4;fill:#010101;}
	.st44{fill:#A1743B;}
	.st45{fill:#EC5A5E;}
	.st46{fill:#FCB02B;}
	.st47{fill:#E19325;}
	.st48{fill:#B2B2B2;}
	.st49{fill:#9BD5C5;}
	.st50{fill:#545454;}
	.st51{opacity:0.3;}
	.st52{fill:#F15C61;}
	.st53{fill:#52C4D5;}
	.st54{fill:#A5A5A5;}
	.st55{fill:#676767;}
	.st56{fill:#848384;}
	.st57{fill:#F79334;}
	.st58{fill:#00B9D1;}
	.st59{fill:#936933;}
	.st60{fill:#BB8745;}
	.st61{fill:#A6783C;}
	.st62{display:none;}
	.st63{display:inline;}
</style>
<g id="bck">
	<g id="Background_-_1">
		<g>
			<path class="st0" d="M283.6,194.6c-4.3-4.3-11.3-4.3-15.6,0l-4.3,4.3c-4.3,4.3-11.3,4.3-15.6,0c-4.3-4.3-4.3-11.3,0-15.6
				l29.9-29.9c4.3-4.3,4.3-11.3,0-15.6v0c-4.3-4.3-11.3-4.3-15.6,0l-18.7,18.7c-4.3,4.3-11.3,4.3-15.6,0c-4.3-4.3-4.3-11.3,0-15.6
				l6.4-6.4l48.6-48.6c4.3-4.3,4.3-11.3,0-15.6c-4.3-4.3-11.3-4.3-15.6,0l-48.6,48.6l-6.4,6.4c-4.3,4.3-11.3,4.3-15.6,0
				c-4.3-4.3-4.3-11.3,0-15.6l18.7-18.7c4.3-4.3,4.3-11.3,0-15.6v0c-4.3-4.3-11.3-4.3-15.6,0l-29.9,29.9c-4.3,4.3-11.3,4.3-15.6,0
				c-4.3-4.3-4.3-11.3,0-15.6l4.3-4.3c0,0,0,0,0,0l48.3-48.3c4.3-4.3,4.3-11.3,0-15.6c-4.3-4.3-11.3-4.3-15.6,0L94,119.5l0,0
				l-48.3,48.3c-4.3,4.3-4.3,11.3,0,15.6c4.3,4.3,11.3,4.3,15.6,0L76,168.6c4.3-4.3,11.3-4.3,15.6,0c4.3,4.3,4.3,11.3,0,15.6
				l-40.9,40.9c-4.3,4.3-4.3,11.3,0,15.6c4.3,4.3,11.3,4.3,15.6,0L79,227.9c4.3-4.3,11.3-4.3,15.6,0c4.3,4.3,4.3,11.3,0,15.6
				l-54.4,54.4c-4.3,4.3-4.3,11.3,0,15.6l0,0c4.3,4.3,11.3,4.3,15.6,0l81.1-81.1l0,0L110.2,259c4.3-4.3,11.3-4.3,15.6,0
				c4.3,4.3,4.3,11.3,0,15.6l-12.8,12.8l-25.2,25.2c-4.3,4.3-4.3,11.3,0,15.6c4.3,4.3,11.3,4.3,15.6,0l25.2-25.2l40.9-40.9
				c4.3-4.3,11.3-4.3,15.6,0c4.3,4.3,4.3,11.3,0,15.6v0l-14.7,14.7c-4.3,4.3-4.3,11.3,0,15.6c4.3,4.3,11.3,4.3,15.6,0l97.7-97.7
				C287.9,205.9,287.9,198.9,283.6,194.6L283.6,194.6z M122.8,153l6.9-6.9l2.7-2.7c4.3-4.3,11.3-4.3,15.6,0c4.3,4.3,4.3,11.3,0,15.6
				l-9.5,9.5c-4.3,4.3-11.3,4.3-15.6,0C118.5,164.3,118.5,157.3,122.8,153L122.8,153z M133.6,220.1c-4.3-4.3-4.3-11.3,0-15.6
				l0.4-0.4l4-4l25.5-25.5c1.1-1.1,2.5-2,3.9-2.5c3.9-1.5,8.5-0.7,11.7,2.5l0,0c3.2,3.2,4,7.7,2.5,11.7c-0.5,1.4-1.4,2.8-2.5,3.9
				l-29.9,29.9C144.8,224.4,137.9,224.4,133.6,220.1z"/>
			<path class="st0" d="M332.8,83.1L332.8,83.1c-4.3-4.3-11.3-4.3-15.6,0L287.3,113c-4.3,4.3-4.3,11.3,0,15.6
				c4.3,4.3,11.3,4.3,15.6,0l29.9-29.9C337.1,94.4,337.1,87.4,332.8,83.1z"/>
			<path class="st0" d="M309.2,60l9.5-9.5c4.3-4.3,4.3-11.3,0-15.6c-4.3-4.3-11.3-4.3-15.6,0l-9.5,9.5c-4.3,4.3-4.3,11.3,0,15.6
				C297.9,64.3,304.9,64.3,309.2,60z"/>
			<path class="st0" d="M42.3,249c-4.3-4.3-11.3-4.3-15.6,0l-9.5,9.5c-4.3,4.3-4.3,11.3,0,15.6c4.3,4.3,11.3,4.3,15.6,0l9.5-9.5
				C46.6,260.3,46.6,253.3,42.3,249z"/>
		</g>
	</g>
	<g id="Background_-_2">
		<g>
			<path class="st1" d="M270.2,192.2c-3.8-3.8-9.9-3.8-13.7,0l-3.8,3.8c-3.8,3.8-9.9,3.8-13.7,0c-3.8-3.8-3.8-9.9,0-13.7l26.2-26.2
				c3.8-3.8,3.8-9.9,0-13.7v0c-3.8-3.8-9.9-3.8-13.7,0l-16.4,16.4c-3.8,3.8-9.9,3.8-13.7,0s-3.8-9.9,0-13.7l5.6-5.6L269.8,97
				c3.8-3.8,3.8-9.9,0-13.7c-3.8-3.8-9.9-3.8-13.7,0L213.6,126l-5.6,5.6c-3.8,3.8-9.9,3.8-13.7,0c-3.8-3.8-3.8-9.9,0-13.7l16.4-16.4
				c3.8-3.8,3.8-9.9,0-13.7v0c-3.8-3.8-9.9-3.8-13.7,0l-26.2,26.2c-3.8,3.8-9.9,3.8-13.7,0c-3.8-3.8-3.8-9.9,0-13.7l3.8-3.8
				c0,0,0,0,0,0l42.3-42.3c3.8-3.8,3.8-9.9,0-13.7c-3.8-3.8-9.9-3.8-13.7,0L104,126.3l0,0l-42.3,42.3c-3.8,3.8-3.8,9.9,0,13.7
				c3.8,3.8,9.9,3.8,13.7,0l12.9-12.9c3.8-3.8,9.9-3.8,13.7,0c3.8,3.8,3.8,9.9,0,13.7L65.9,219c-3.8,3.8-3.8,9.9,0,13.7
				c3.8,3.8,9.9,3.8,13.7,0l11.2-11.2c3.8-3.8,9.9-3.8,13.7,0c3.8,3.8,3.8,9.9,0,13.7l-47.7,47.7c-3.8,3.8-3.8,9.9,0,13.7l0,0
				c3.8,3.8,9.9,3.8,13.7,0l71.1-71.1l0,0l-23.4,23.4c3.8-3.8,9.9-3.8,13.7,0c3.8,3.8,3.8,9.9,0,13.7l-11.2,11.2l-22.1,22.1
				c-3.8,3.8-3.8,9.9,0,13.7c3.8,3.8,9.9,3.8,13.7,0l22.1-22.1l35.9-35.9c3.8-3.8,9.9-3.8,13.7,0c3.8,3.8,3.8,9.9,0,13.7v0
				l-12.9,12.9c-3.8,3.8-3.8,9.9,0,13.7c3.8,3.8,9.9,3.8,13.7,0l85.7-85.7C274,202.1,274,196,270.2,192.2L270.2,192.2z M129.2,155.7
				l6-6l2.3-2.3c3.8-3.8,9.9-3.8,13.7,0c3.8,3.8,3.8,9.9,0,13.7l-8.4,8.4c-3.8,3.8-9.9,3.8-13.7,0
				C125.4,165.6,125.4,159.5,129.2,155.7L129.2,155.7z M138.7,214.5c-3.8-3.8-3.8-9.9,0-13.7l0.3-0.3l3.5-3.5l22.4-22.4
				c1-1,2.2-1.7,3.4-2.2c3.4-1.3,7.5-0.6,10.2,2.2l0,0c2.8,2.8,3.5,6.8,2.2,10.2c-0.5,1.3-1.2,2.4-2.2,3.4l-26.2,26.2
				C148.5,218.3,142.4,218.3,138.7,214.5z"/>
			<path class="st1" d="M313.4,94.4L313.4,94.4c-3.8-3.8-9.9-3.8-13.7,0l-26.2,26.2c-3.8,3.8-3.8,9.9,0,13.7c3.8,3.8,9.9,3.8,13.7,0
				l26.2-26.2C317.2,104.3,317.2,98.2,313.4,94.4z"/>
			<path class="st1" d="M292.7,74.1l8.4-8.4c3.8-3.8,3.8-9.9,0-13.7c-3.8-3.8-9.9-3.8-13.7,0l-8.4,8.4c-3.8,3.8-3.8,9.9,0,13.7
				C282.8,77.9,288.9,77.9,292.7,74.1z"/>
			<path class="st1" d="M58.6,240c-3.8-3.8-9.9-3.8-13.7,0l-8.4,8.4c-3.8,3.8-3.8,9.9,0,13.7c3.8,3.8,9.9,3.8,13.7,0l8.4-8.4
				C62.4,249.8,62.4,243.7,58.6,240z"/>
		</g>
	</g>
	<g id="background_-_3">
		<g>
			<path class="st2" d="M258.3,190.1c-3.3-3.3-8.7-3.3-12,0l-3.3,3.3c-3.3,3.3-8.7,3.3-12,0c-3.3-3.3-3.3-8.7,0-12l22.9-22.9
				c3.3-3.3,3.3-8.7,0-12v0c-3.3-3.3-8.7-3.3-12,0l-14.3,14.3c-3.3,3.3-8.7,3.3-12,0c-3.3-3.3-3.3-8.7,0-12l4.9-4.9l37.3-37.3
				c3.3-3.3,3.3-8.7,0-12c-3.3-3.3-8.7-3.3-12,0l-37.3,37.3l-4.9,4.9c-3.3,3.3-8.7,3.3-12,0c-3.3-3.3-3.3-8.7,0-12l14.3-14.3
				c3.3-3.3,3.3-8.7,0-12v0c-3.3-3.3-8.7-3.3-12,0l-22.9,22.9c-3.3,3.3-8.7,3.3-12,0c-3.3-3.3-3.3-8.7,0-12l3.3-3.3l0,0l37-37
				c3.3-3.3,3.3-8.7,0-12c-3.3-3.3-8.7-3.3-12,0l-75,75c0,0,0,0,0,0l-37,37c-3.3,3.3-3.3,8.7,0,12s8.7,3.3,12,0L99,170.1
				c3.3-3.3,8.7-3.3,12,0c3.3,3.3,3.3,8.7,0,12l-31.4,31.4c-3.3,3.3-3.3,8.7,0,12c3.3,3.3,8.7,3.3,12,0l9.8-9.8
				c3.3-3.3,8.7-3.3,12,0c3.3,3.3,3.3,8.7,0,12l-41.8,41.8c-3.3,3.3-3.3,8.7,0,12l0,0c3.3,3.3,8.7,3.3,12,0l62.2-62.2l0,0
				l-20.5,20.5c3.3-3.3,8.7-3.3,12,0c3.3,3.3,3.3,8.7,0,12l-9.8,9.8L108,280.6c-3.3,3.3-3.3,8.7,0,12c3.3,3.3,8.7,3.3,12,0
				l19.3-19.3l31.4-31.4c3.3-3.3,8.7-3.3,12,0c3.3,3.3,3.3,8.7,0,12v0l-11.3,11.3c-3.3,3.3-3.3,8.7,0,12c3.3,3.3,8.7,3.3,12,0l75-75
				C261.6,198.7,261.6,193.4,258.3,190.1L258.3,190.1z M134.9,158.1l5.3-5.3l2-2c3.3-3.3,8.7-3.3,12,0c3.3,3.3,3.3,8.7,0,12
				l-7.3,7.3c-3.3,3.3-8.7,3.3-12,0C131.6,166.8,131.6,161.4,134.9,158.1L134.9,158.1z M143.2,209.6c-3.3-3.3-3.3-8.7,0-12l0.3-0.3
				l3-3l19.6-19.6c0.9-0.9,1.9-1.5,3-1.9c3-1.1,6.5-0.5,8.9,1.9l0,0c2.4,2.4,3,5.9,1.9,8.9c-0.4,1.1-1,2.1-1.9,3l-22.9,22.9
				C151.9,212.9,146.5,212.9,143.2,209.6z"/>
			<path class="st2" d="M296.1,104.5L296.1,104.5c-3.3-3.3-8.7-3.3-12,0l-22.9,22.9c-3.3,3.3-3.3,8.7,0,12c3.3,3.3,8.7,3.3,12,0
				l22.9-22.9C299.4,113.1,299.4,107.8,296.1,104.5z"/>
			<path class="st2" d="M278,86.7l7.3-7.3c3.3-3.3,3.3-8.7,0-12c-3.3-3.3-8.7-3.3-12,0l-7.3,7.3c-3.3,3.3-3.3,8.7,0,12
				C269.3,90,274.7,90,278,86.7z"/>
			<path class="st2" d="M73.1,231.8c-3.3-3.3-8.7-3.3-12,0l-7.3,7.3c-3.3,3.3-3.3,8.7,0,12c3.3,3.3,8.7,3.3,12,0l7.3-7.3
				C76.4,240.5,76.4,235.1,73.1,231.8z"/>
		</g>
	</g>
	<g id="Background_-_4">
		<g>
			<path class="st3" d="M250.2,188.6c-3-3-7.8-3-10.8,0l-3,3c-3,3-7.8,3-10.8,0c-3-3-3-7.8,0-10.8l20.7-20.7c3-3,3-7.8,0-10.8v0
				c-3-3-7.8-3-10.8,0l-13,13c-3,3-7.8,3-10.8,0c-3-3-3-7.8,0-10.8l4.4-4.4l33.7-33.7c3-3,3-7.8,0-10.8c-3-3-7.8-3-10.8,0
				l-33.7,33.7l-4.4,4.4c-3,3-7.8,3-10.8,0c-3-3-3-7.8,0-10.8l13-13c3-3,3-7.8,0-10.8v0c-3-3-7.8-3-10.8,0l-20.7,20.7
				c-3,3-7.8,3-10.8,0c-3-3-3-7.8,0-10.8l3-3c0,0,0,0,0,0l33.4-33.4c3-3,3-7.8,0-10.8c-3-3-7.8-3-10.8,0l-67.7,67.7c0,0,0,0,0,0
				L85.4,170c-3,3-3,7.8,0,10.8c3,3,7.8,3,10.8,0l10.2-10.2c3-3,7.8-3,10.8,0c3,3,3,7.8,0,10.8l-28.4,28.4c-3,3-3,7.8,0,10.8
				c3,3,7.8,3,10.8,0l8.9-8.9c3-3,7.8-3,10.8,0c3,3,3,7.8,0,10.8l-37.7,37.7c-3,3-3,7.8,0,10.8l0,0c3,3,7.8,3,10.8,0l56.2-56.2l0,0
				l-18.5,18.5c3-3,7.8-3,10.8,0c3,3,3,7.8,0,10.8l-8.9,8.9l-17.5,17.5c-3,3-3,7.8,0,10.8c3,3,7.8,3,10.8,0l17.5-17.5l28.4-28.4
				c3-3,7.8-3,10.8,0c3,3,3,7.8,0,10.8v0l-10.2,10.2c-3,3-3,7.8,0,10.8c3,3,7.8,3,10.8,0l67.7-67.7
				C253.2,196.4,253.2,191.6,250.2,188.6L250.2,188.6z M138.8,159.8l4.8-4.8l1.8-1.8c3-3,7.8-3,10.8,0c3,3,3,7.8,0,10.8l-6.6,6.6
				c-3,3-7.8,3-10.8,0C135.8,167.6,135.8,162.7,138.8,159.8L138.8,159.8z M146.3,206.2c-3-3-3-7.8,0-10.8l0.2-0.2l2.8-2.8l17.7-17.7
				c0.8-0.8,1.7-1.4,2.7-1.7c2.7-1,5.9-0.5,8.1,1.7l0,0c2.2,2.2,2.8,5.4,1.7,8.1c-0.4,1-0.9,1.9-1.7,2.7l-20.7,20.7
				C154.1,209.2,149.3,209.2,146.3,206.2z"/>
			<path class="st3" d="M284.4,111.3L284.4,111.3c-3-3-7.8-3-10.8,0L252.9,132c-3,3-3,7.8,0,10.8c3,3,7.8,3,10.8,0l20.7-20.7
				C287.3,119.1,287.3,114.3,284.4,111.3z"/>
			<path class="st3" d="M268,95.3l6.6-6.6c3-3,3-7.8,0-10.8c-3-3-7.8-3-10.8,0l-6.6,6.6c-3,3-3,7.8,0,10.8
				C260.2,98.3,265,98.3,268,95.3z"/>
			<path class="st3" d="M83,226.3c-3-3-7.8-3-10.8,0l-6.6,6.6c-3,3-3,7.8,0,10.8s7.8,3,10.8,0l6.6-6.6C86,234.1,86,229.3,83,226.3z"
				/>
		</g>
	</g>
</g>
<g id="feet">
	<g id="LegsRobot_-_4">
		<path class="st4" d="M178.5,261.4v-3.1l-4.6,1.6l-4.6-1.6v3.1l-22.6,7.7V308c0,4.4,2.1,8.4,5.7,10.9l3.9,2.7h13h9.2h13l3.9-2.7
			c3.6-2.5,5.7-6.5,5.7-10.9v-38.9L178.5,261.4z M194.3,311.2l-17,4.7v1.9l-3.5-1l-3.5,1v-1.9l-17-4.7v-23.6c0-2.6,1.6-5.1,4.3-6.6
			l0,0c1.9-1.1,4.1-1.6,6.3-1.6h6.4h6.9h6.4c2.2,0,4.4,0.6,6.3,1.6l0,0c2.7,1.5,4.3,4,4.3,6.6V311.2z"/>
		<path class="st5" d="M178.5,261.4v-3.1l-4.6,1.6l-4.6-1.6v3.1l-0.4,0.1l22.3,7.6v12.7c2,1.5,3.1,3.6,3.1,5.8v23.6l-3.8,1.1
			c-0.9,2.7-2.6,5-5,6.6l-3.9,2.7h10l3.9-2.7c3.6-2.5,5.7-6.5,5.7-10.9v-38.9L178.5,261.4z"/>
		<path class="st6" d="M193,331h-38.3c-2.2,0-4-1.8-4-4v-32.1c0-2.2,1.8-4,4-4H193c2.2,0,4,1.8,4,4V327C197,329.2,195.2,331,193,331
			z"/>
		<path class="st7" d="M187,339.4h-26.2c-3.1,0-5.6-2.5-5.6-5.6v-45.6c0-3.1,2.5-5.6,5.6-5.6H187c3.1,0,5.6,2.5,5.6,5.6v45.6
			C192.6,336.9,190.1,339.4,187,339.4z"/>
		<path class="st5" d="M187,282.5h-10.9c3.1,0,5.6,2.5,5.6,5.6v45.6c0,3.1-2.5,5.6-5.6,5.6H187c3.1,0,5.6-2.5,5.6-5.6v-45.6
			C192.6,285.1,190.1,282.5,187,282.5z"/>
		<g>
			
				<rect x="134.9" y="213.3" transform="matrix(-1.836970e-16 1 -1 -1.836970e-16 396.4732 46.5853)" class="st8" width="80.1" height="16.4"/>
			<g>
				
					<rect x="172.5" y="175.7" transform="matrix(-1.836970e-16 1 -1 -1.836970e-16 358.8364 8.9484)" class="st9" width="4.8" height="16.4"/>
				<rect x="166.7" y="190.9" class="st9" width="16.4" height="4.8"/>
				<rect x="166.7" y="200.3" class="st9" width="16.4" height="4.8"/>
				<rect x="166.7" y="209.7" class="st9" width="16.4" height="4.8"/>
				<rect x="166.7" y="219.1" class="st9" width="16.4" height="4.8"/>
				<rect x="166.7" y="228.5" class="st9" width="16.4" height="4.8"/>
				<rect x="166.7" y="237.9" class="st9" width="16.4" height="4.8"/>
				<rect x="166.7" y="247.4" class="st9" width="16.4" height="4.8"/>
				
					<rect x="172.5" y="251" transform="matrix(-1.836970e-16 1 -1 -1.836970e-16 434.1101 84.2221)" class="st9" width="4.8" height="16.4"/>
			</g>
			
				<rect x="130.1" y="218.2" transform="matrix(-1.836970e-16 1 -1 -1.836970e-16 391.6271 51.4314)" class="st5" width="80.1" height="6.7"/>
		</g>
	</g>
	<g id="LegsRobot_-_3">
		<g>
			<g>
				
					<rect x="166" y="201.9" transform="matrix(-1.836970e-16 1 -1 -1.836970e-16 414.8283 5.1674)" class="st8" width="77.6" height="16.2"/>
				<g>
					
						<rect x="202.5" y="165.4" transform="matrix(-1.836970e-16 1 -1 -1.836970e-16 378.3326 -31.3283)" class="st9" width="4.7" height="16.2"/>
					<rect x="196.7" y="180.3" class="st9" width="16.2" height="4.7"/>
					<rect x="196.7" y="189.4" class="st9" width="16.2" height="4.7"/>
					<rect x="196.7" y="198.5" class="st9" width="16.2" height="4.7"/>
					<rect x="196.7" y="207.7" class="st9" width="16.2" height="4.7"/>
					<rect x="196.7" y="216.8" class="st9" width="16.2" height="4.7"/>
					<rect x="196.7" y="225.9" class="st9" width="16.2" height="4.7"/>
					<rect x="196.7" y="235" class="st9" width="16.2" height="4.7"/>
					
						<rect x="202.5" y="238.4" transform="matrix(-1.836970e-16 1 -1 -1.836970e-16 451.3239 41.663)" class="st9" width="4.7" height="16.2"/>
				</g>
				
					<rect x="161.2" y="206.7" transform="matrix(-1.836970e-16 1 -1 -1.836970e-16 410.0443 9.9514)" class="st5" width="77.6" height="6.7"/>
			</g>
			<g>
				
					<rect x="189.1" y="255.8" transform="matrix(-1 -1.224647e-16 1.224647e-16 -1 411.7143 567.6546)" class="st10" width="33.5" height="56"/>
				<path class="st10" d="M205.9,233.8L205.9,233.8c4.2,0,8,2.5,9.8,6.3l7,15.7h-33.5l7-15.7C197.8,236.3,201.6,233.8,205.9,233.8z"
					/>
				
					<rect x="194.7" y="255.8" transform="matrix(-1 -1.224647e-16 1.224647e-16 -1 411.7143 567.6546)" class="st11" width="22.3" height="56"/>
				<g>
					<path class="st12" d="M185.5,329.2h45.3v-19.4c0-8.2-6.7-14.9-14.9-14.9h-15.5c-8.2,0-14.9,6.7-14.9,14.9V329.2z"/>
					<rect x="185.5" y="321.7" class="st13" width="45.3" height="7.5"/>
				</g>
				<path class="st5" d="M207.5,295h1.3c1.5,0,2.9,0.1,4.3,0.4c-10.1,2-17.7,10.9-17.7,21.6v4.8h-9.9V317
					C185.5,304.8,195.3,295,207.5,295z"/>
			</g>
		</g>
		<g>
			<g>
				
					<rect x="108.7" y="201.9" transform="matrix(-4.489938e-11 1 -1 -4.489938e-11 357.5595 62.4362)" class="st8" width="77.6" height="16.2"/>
				<g>
					
						<rect x="145.2" y="165.4" transform="matrix(-4.477681e-11 1 -1 -4.477681e-11 321.0638 25.9406)" class="st9" width="4.7" height="16.2"/>
					<rect x="139.5" y="180.3" class="st9" width="16.2" height="4.7"/>
					<rect x="139.5" y="189.4" class="st9" width="16.2" height="4.7"/>
					<rect x="139.5" y="198.5" class="st9" width="16.2" height="4.7"/>
					<rect x="139.5" y="207.7" class="st9" width="16.2" height="4.7"/>
					<rect x="139.5" y="216.8" class="st9" width="16.2" height="4.7"/>
					<rect x="139.5" y="225.9" class="st9" width="16.2" height="4.7"/>
					<rect x="139.5" y="235" class="st9" width="16.2" height="4.7"/>
					
						<rect x="145.2" y="238.4" transform="matrix(-4.497221e-11 1 -1 -4.497221e-11 394.0551 98.9318)" class="st9" width="4.7" height="16.2"/>
				</g>
				
					<rect x="113.5" y="206.7" transform="matrix(-4.488783e-11 1 -1 -4.488783e-11 362.3435 57.6522)" class="st5" width="77.6" height="6.7"/>
			</g>
			<g>
				<rect x="129.8" y="255.8" class="st10" width="33.5" height="56"/>
				<path class="st10" d="M146.5,233.8L146.5,233.8c-4.2,0-8,2.5-9.8,6.3l-7,15.7h33.5l-7-15.7C154.6,236.3,150.8,233.8,146.5,233.8
					z"/>
				<rect x="135.4" y="255.8" class="st11" width="22.3" height="56"/>
				<g>
					<path class="st12" d="M166.9,329.2h-45.3v-19.4c0-8.2,6.7-14.9,14.9-14.9H152c8.2,0,14.9,6.7,14.9,14.9V329.2z"/>
					<rect x="121.6" y="321.7" class="st13" width="45.3" height="7.5"/>
				</g>
				<path class="st5" d="M144.9,295h-1.3c-1.5,0-2.9,0.1-4.3,0.4c10.1,2,17.7,10.9,17.7,21.6v4.8h9.9V317
					C166.9,304.8,157,295,144.9,295z"/>
			</g>
		</g>
	</g>
	<g id="LegsRobot2">
		<g>
			<g>
				
					<rect x="137" y="229.6" transform="matrix(-1.836970e-16 1 -1 -1.836970e-16 442.5142 32.9512)" class="st8" width="135.6" height="16.2"/>
				<g>
					
						<rect x="200.7" y="165.9" transform="matrix(-1.836970e-16 1 -1 -1.836970e-16 378.7669 -30.796)" class="st9" width="8.1" height="16.2"/>
					<rect x="196.7" y="185.9" class="st9" width="16.2" height="8.1"/>
					<rect x="196.7" y="201.8" class="st9" width="16.2" height="8.1"/>
					<rect x="196.7" y="217.7" class="st9" width="16.2" height="8.1"/>
					<rect x="196.7" y="233.7" class="st9" width="16.2" height="8.1"/>
					<rect x="196.7" y="249.6" class="st9" width="16.2" height="8.1"/>
					<rect x="196.7" y="265.5" class="st9" width="16.2" height="8.1"/>
					<rect x="196.7" y="281.5" class="st9" width="16.2" height="8.1"/>
					
						<rect x="200.7" y="293.4" transform="matrix(-1.836970e-16 1 -1 -1.836970e-16 506.2614 96.6985)" class="st9" width="8.1" height="16.2"/>
				</g>
				
					<rect x="132.2" y="234.4" transform="matrix(-1.836970e-16 1 -1 -1.836970e-16 437.722 37.7435)" class="st5" width="135.6" height="6.7"/>
			</g>
			<g>
				
					<rect x="189" y="250.9" transform="matrix(-1 -4.492774e-11 4.492774e-11 -1 410.814 556.6299)" class="st14" width="32.8" height="54.8"/>
				<polygon class="st15" points="189,305.7 221.8,305.7 233.3,325.6 184.1,325.6 				"/>
				<path class="st14" d="M205.4,229.4L205.4,229.4c4.1,0,7.9,2.4,9.6,6.2l6.8,15.3H189l6.8-15.3
					C197.5,231.9,201.3,229.4,205.4,229.4z"/>
				
					<rect x="194.5" y="250.9" transform="matrix(-1 -4.494239e-11 4.494239e-11 -1 410.814 556.6299)" class="st16" width="21.8" height="54.8"/>
				
					<rect x="184.1" y="325.6" transform="matrix(-1 -4.486335e-11 4.486335e-11 -1 417.3918 659.335)" class="st17" width="49.1" height="8.1"/>
			</g>
		</g>
		<g>
			<g>
				
					<rect x="79.6" y="229.6" transform="matrix(-4.487806e-11 1 -1 -4.487806e-11 385.1666 90.2988)" class="st8" width="135.6" height="16.2"/>
				<g>
					
						<rect x="143.4" y="165.9" transform="matrix(-4.477681e-11 1 -1 -4.477681e-11 321.4194 26.5516)" class="st9" width="8.1" height="16.2"/>
					<rect x="139.3" y="185.9" class="st9" width="16.2" height="8.1"/>
					<rect x="139.3" y="201.8" class="st9" width="16.2" height="8.1"/>
					<rect x="139.3" y="217.7" class="st9" width="16.2" height="8.1"/>
					<rect x="139.3" y="233.7" class="st9" width="16.2" height="8.1"/>
					<rect x="139.3" y="249.6" class="st9" width="16.2" height="8.1"/>
					<rect x="139.3" y="265.5" class="st9" width="16.2" height="8.1"/>
					<rect x="139.3" y="281.5" class="st9" width="16.2" height="8.1"/>
					
						<rect x="143.4" y="293.4" transform="matrix(-4.477681e-11 1 -1 -4.477681e-11 448.9138 154.0461)" class="st9" width="8.1" height="16.2"/>
				</g>
				
					<rect x="84.4" y="234.4" transform="matrix(-4.487806e-11 1 -1 -4.487806e-11 389.9588 85.5066)" class="st5" width="135.6" height="6.7"/>
			</g>
			<g>
				<rect x="130.4" y="250.9" class="st14" width="32.8" height="54.8"/>
				<polygon class="st15" points="163.2,305.7 130.4,305.7 118.9,325.6 168.1,325.6 				"/>
				<path class="st14" d="M146.8,229.4L146.8,229.4c-4.1,0-7.9,2.4-9.6,6.2l-6.8,15.3h32.8l-6.8-15.3
					C154.7,231.9,150.9,229.4,146.8,229.4z"/>
				<rect x="135.9" y="250.9" class="st16" width="21.8" height="54.8"/>
				<rect x="118.9" y="325.6" class="st17" width="49.1" height="8.1"/>
			</g>
		</g>
	</g>
	<g id="LegsRobot1">
		<g>
			
				<rect x="79.5" y="228.9" transform="matrix(-1.836970e-16 1 -1 -1.836970e-16 384.6383 89.4091)" class="st8" width="136.2" height="16.3"/>
			<g>
				
					<rect x="143.5" y="164.8" transform="matrix(-1.836970e-16 1 -1 -1.836970e-16 320.5967 25.3674)" class="st9" width="8.2" height="16.3"/>
				<rect x="139.5" y="184.9" class="st9" width="16.3" height="8.2"/>
				<rect x="139.5" y="200.9" class="st9" width="16.3" height="8.2"/>
				<rect x="139.5" y="216.9" class="st9" width="16.3" height="8.2"/>
				<rect x="139.5" y="232.9" class="st9" width="16.3" height="8.2"/>
				<rect x="139.5" y="249" class="st9" width="16.3" height="8.2"/>
				<rect x="139.5" y="265" class="st9" width="16.3" height="8.2"/>
				<rect x="139.5" y="281" class="st9" width="16.3" height="8.2"/>
				
					<rect x="143.5" y="292.9" transform="matrix(-1.836970e-16 1 -1 -1.836970e-16 448.68 153.4507)" class="st9" width="8.2" height="16.3"/>
			</g>
			
				<rect x="84.3" y="233.7" transform="matrix(-1.836970e-16 1 -1 -1.836970e-16 389.4527 84.5947)" class="st5" width="136.2" height="6.7"/>
		</g>
		<g>
			<path class="st18" d="M170.6,338.1h-53.2v-21c0-8.2,6.7-14.9,14.9-14.9h23.4c8.2,0,14.9,6.7,14.9,14.9V338.1z"/>
			<rect x="117.4" y="329.3" class="st19" width="53.2" height="8.8"/>
		</g>
		<g>
			
				<rect x="136.7" y="228.9" transform="matrix(-1.836970e-16 1 -1 -1.836970e-16 441.8285 32.2189)" class="st8" width="136.2" height="16.3"/>
			<g>
				
					<rect x="200.7" y="164.8" transform="matrix(-1.836970e-16 1 -1 -1.836970e-16 377.7869 -31.8228)" class="st9" width="8.2" height="16.3"/>
				<rect x="196.6" y="184.9" class="st9" width="16.3" height="8.2"/>
				<rect x="196.6" y="200.9" class="st9" width="16.3" height="8.2"/>
				<rect x="196.6" y="216.9" class="st9" width="16.3" height="8.2"/>
				<rect x="196.6" y="232.9" class="st9" width="16.3" height="8.2"/>
				<rect x="196.6" y="249" class="st9" width="16.3" height="8.2"/>
				<rect x="196.6" y="265" class="st9" width="16.3" height="8.2"/>
				<rect x="196.6" y="281" class="st9" width="16.3" height="8.2"/>
				
					<rect x="200.7" y="292.9" transform="matrix(-1.836970e-16 1 -1 -1.836970e-16 505.8701 96.2605)" class="st9" width="8.2" height="16.3"/>
			</g>
			
				<rect x="131.9" y="233.7" transform="matrix(-1.836970e-16 1 -1 -1.836970e-16 437.0142 37.0332)" class="st5" width="136.2" height="6.7"/>
		</g>
		<g>
			<path class="st18" d="M181.9,338.1H235v-21c0-8.2-6.7-14.9-14.9-14.9h-23.4c-8.2,0-14.9,6.7-14.9,14.9V338.1z"/>
			<rect x="181.9" y="329.3" class="st19" width="53.2" height="8.8"/>
		</g>
	</g>
</g>
<g id="h">
	<g id="HeadRobot1">
		<rect x="211.2" y="14.6" class="st19" width="1.4" height="38.3"/>
		<g>
			<g>
				<rect x="207.5" y="49.3" class="st20" width="3.6" height="14.2"/>
				<polygon class="st21" points="211.1,63.5 213.8,60.9 213.8,51.8 211.1,49.3 				"/>
			</g>
			<g>
				
					<rect x="141.2" y="49.3" transform="matrix(-1 -1.224647e-16 1.224647e-16 -1 286.0868 112.7713)" class="st20" width="3.6" height="14.2"/>
				<polygon class="st21" points="141.2,63.5 138.5,60.9 138.5,51.8 141.2,49.3 				"/>
			</g>
		</g>
		<path class="st22" d="M208.8,68.5h-65.2V39.7c0-10.4,8.4-18.8,18.8-18.8H190c10.4,0,18.8,8.4,18.8,18.8V68.5z"/>
		<path class="st5" d="M176.2,20.9L176.2,20.9c-1.4,0-2.8,0.1-4.2,0.3c16,2.1,28.4,15.7,28.4,32.3v14.9h8.4V53.5
			C208.8,35.5,194.2,20.9,176.2,20.9z"/>
		<path class="st23" d="M187,64.7c-6.8,3.3-14.8,3.3-21.7,0c0.4-0.8,0.8-1.6,1.2-2.4c6.1,3,13.2,3,19.3,0
			C186.3,63.1,186.6,63.9,187,64.7z"/>
		<path class="st24" d="M209.3,59.3h-67.1c-1.9,0-3.4-1.5-3.4-3.4V42.7c0-1.9,1.5-3.4,3.4-3.4h67.1c1.9,0,3.4,1.5,3.4,3.4v13.1
			C212.7,57.8,211.2,59.3,209.3,59.3z"/>
		<path class="st25" d="M206.8,41.6h-62c-2,0-3.7,1.7-3.7,3.7v8.1c0,2,1.7,3.7,3.7,3.7h62c2,0,3.7-1.7,3.7-3.7v-8.1
			C210.5,43.2,208.8,41.6,206.8,41.6z"/>
		<g class="st26">
			<polygon class="st27" points="175,57 190.5,41.6 179.4,41.6 164,57 			"/>
			<polygon class="st27" points="197.2,41.6 192.8,41.6 177.4,57 181.7,57 			"/>
		</g>
		<path class="st19" d="M213.5,14.7c-0.5,0.9-1.6,1.3-2.5,0.8c-0.9-0.5-1.3-1.6-0.8-2.5c0.5-0.9,1.6-1.3,2.5-0.8
			C213.6,12.6,214,13.7,213.5,14.7z"/>
	</g>
	<g id="HeadRobot2">
		<g>
			<g>
				<rect x="207.1" y="47.6" class="st28" width="3.8" height="15.6"/>
				<polygon class="st29" points="210.9,63.2 213.8,60.4 213.8,50.4 210.9,47.6 				"/>
			</g>
			<g>
				
					<rect x="137.6" y="47.6" transform="matrix(-1 -1.224647e-16 1.224647e-16 -1 278.883 110.7851)" class="st28" width="3.8" height="15.6"/>
				<polygon class="st29" points="137.6,63.2 134.7,60.4 134.7,50.4 137.6,47.6 				"/>
			</g>
		</g>
		<path class="st30" d="M208.5,68.7H140V52.2c0-19.9,15.3-35.9,34.2-35.9l0,0c18.9,0,34.2,16.1,34.2,35.9V68.7z"/>
		<path class="st5" d="M174.3,16.3L174.3,16.3c-1.5,0-3,0.1-4.4,0.3c16.8,2.3,29.8,17.4,29.8,35.6v16.5h8.8V52.2
			C208.5,32.4,193.2,16.3,174.3,16.3z"/>
		<g>
			<path class="st28" d="M174.3,22.1c-10,0-18.1,8.5-18.1,19c0,10.5,8.1,19,18.1,19c10,0,18.1-8.5,18.1-19
				C192.4,30.6,184.3,22.1,174.3,22.1z M174.3,56.7c-8.2,0-14.8-7-14.8-15.6s6.6-15.6,14.8-15.6c8.2,0,14.8,7,14.8,15.6
				S182.4,56.7,174.3,56.7z"/>
			<ellipse class="st25" cx="174.3" cy="41.1" rx="16.6" ry="17.5"/>
			<path class="st31" d="M162.5,41.1c0,0,0-0.3-0.1-0.8c0-0.3,0-0.6,0-1c0-0.4,0-0.8,0.1-1.3c0-0.2,0.1-0.5,0.1-0.7
				c0.1-0.2,0.1-0.5,0.2-0.8c0.1-0.5,0.4-1,0.6-1.6c0.3-0.5,0.5-1.1,0.9-1.6c0.3-0.5,0.8-1,1.2-1.5c0.5-0.4,0.9-0.9,1.4-1.2
				c0.5-0.4,1-0.7,1.5-1c0.5-0.2,1-0.5,1.5-0.6c0.2-0.1,0.5-0.2,0.7-0.2c0.2,0,0.5-0.1,0.7-0.1c0.4-0.1,0.9-0.1,1.2-0.1
				c0.4,0,0.7,0,0.9,0c0.5,0,0.8,0.1,0.8,0.1s-0.3,0.1-0.8,0.2c-0.2,0-0.5,0.1-0.9,0.2c-0.3,0.1-0.7,0.2-1.1,0.4
				c-0.4,0.1-0.8,0.3-1.3,0.5c-0.4,0.2-0.9,0.5-1.3,0.7c-0.4,0.3-0.9,0.6-1.3,1c-0.4,0.3-0.8,0.7-1.2,1.1c-0.4,0.4-0.8,0.8-1.1,1.3
				c-0.3,0.4-0.6,0.9-0.9,1.4c-0.2,0.5-0.5,0.9-0.7,1.4c-0.2,0.5-0.4,0.9-0.5,1.3c-0.2,0.4-0.2,0.8-0.3,1.2
				c-0.1,0.3-0.2,0.7-0.2,0.9C162.5,40.8,162.5,41.1,162.5,41.1z"/>
			<path class="st32" d="M184.7,27.5c1,2.3,1.6,4.8,1.6,7.4c0,9.6-7.4,17.5-16.6,17.5c-4,0-7.6-1.5-10.4-3.9
				c2.7,5.9,8.4,10.1,15,10.1c9.2,0,16.6-7.8,16.6-17.5C190.9,35.6,188.5,30.7,184.7,27.5z"/>
			<path class="st24" d="M174.3,23.6c-9.2,0-16.6,7.8-16.6,17.5c0,9.6,7.4,17.5,16.6,17.5c9.2,0,16.6-7.8,16.6-17.5
				C190.9,31.4,183.4,23.6,174.3,23.6z M174.3,55.4c-7.5,0-13.6-6.4-13.6-14.3c0-7.9,6.1-14.3,13.6-14.3c7.5,0,13.6,6.4,13.6,14.3
				C187.9,49,181.8,55.4,174.3,55.4z"/>
		</g>
		<rect x="164.1" y="61.9" class="st33" width="20.3" height="3"/>
	</g>
	<g id="HeadRobot_-_3_1_">
		<g>
			<g>
				<rect x="212.9" y="37.9" class="st34" width="4.3" height="18.3"/>
				<polygon class="st35" points="217.2,56.2 220.5,52.9 220.5,41.2 217.2,37.9 				"/>
			</g>
			<g>
				
					<rect x="132.8" y="37.9" transform="matrix(-1 -1.224647e-16 1.224647e-16 -1 269.8727 94.0335)" class="st34" width="4.3" height="18.3"/>
				<polygon class="st35" points="132.8,56.2 129.5,52.9 129.5,41.2 132.8,37.9 				"/>
			</g>
		</g>
		<path class="st11" d="M208.6,68.5h-67.3c-3.4,0-6.1-2.7-6.1-6.1V31.6c0-3.4,2.7-6.1,6.1-6.1h67.3c3.4,0,6.1,2.7,6.1,6.1v30.8
			C214.7,65.8,212,68.5,208.6,68.5z"/>
		<g>
			<g>
				<g>
					<ellipse class="st25" cx="156.6" cy="41.3" rx="9.2" ry="9.8"/>
					<path class="st31" d="M150,41.3c0,0,0-0.2,0-0.5c0-0.2,0-0.3,0-0.5c0-0.2,0-0.5,0.1-0.7c0-0.1,0-0.3,0.1-0.4
						c0-0.1,0.1-0.3,0.1-0.4c0.1-0.3,0.2-0.6,0.3-0.9c0.2-0.3,0.3-0.6,0.5-0.9c0.2-0.3,0.4-0.6,0.6-0.8c0.3-0.2,0.5-0.5,0.8-0.7
						c0.3-0.2,0.6-0.4,0.8-0.5c0.3-0.1,0.6-0.3,0.8-0.4c0.1,0,0.3-0.1,0.4-0.1c0.1,0,0.3,0,0.4-0.1c0.2-0.1,0.5-0.1,0.7-0.1
						c0.2,0,0.4,0,0.5,0c0.3,0,0.4,0,0.4,0s-0.2,0-0.4,0.1c-0.1,0-0.3,0.1-0.5,0.1c-0.2,0.1-0.4,0.1-0.6,0.2
						c-0.2,0.1-0.5,0.2-0.7,0.3c-0.2,0.1-0.5,0.3-0.7,0.4c-0.2,0.2-0.5,0.3-0.7,0.5c-0.2,0.2-0.5,0.4-0.7,0.6
						c-0.2,0.2-0.4,0.5-0.6,0.7c-0.2,0.2-0.3,0.5-0.5,0.8c-0.1,0.3-0.3,0.5-0.4,0.8c-0.1,0.3-0.2,0.5-0.3,0.7
						c-0.1,0.2-0.1,0.5-0.2,0.7c-0.1,0.2-0.1,0.4-0.1,0.5C150.1,41.2,150,41.3,150,41.3z"/>
					<path class="st32" d="M162.4,33.7c0.6,1.3,0.9,2.7,0.9,4.2c0,5.4-4.1,9.8-9.2,9.8c-2.2,0-4.2-0.8-5.8-2.2
						c1.5,3.3,4.6,5.7,8.3,5.7c5.1,0,9.2-4.4,9.2-9.8C165.8,38.3,164.5,35.5,162.4,33.7z"/>
					<path class="st36" d="M156.6,31.5c-5.1,0-9.2,4.4-9.2,9.8s4.1,9.8,9.2,9.8c5.1,0,9.2-4.4,9.2-9.8S161.7,31.5,156.6,31.5z
						 M156.6,49.4c-4.2,0-7.5-3.6-7.5-8.1c0-4.4,3.4-8.1,7.5-8.1c4.2,0,7.5,3.6,7.5,8.1C164.1,45.8,160.7,49.4,156.6,49.4z"/>
				</g>
			</g>
			<g>
				<g>
					<path class="st25" d="M202.6,41.3c0,5.4-4.1,9.8-9.2,9.8c-5.1,0-9.2-4.4-9.2-9.8s4.1-9.8,9.2-9.8
						C198.5,31.5,202.6,35.9,202.6,41.3z"/>
					<path class="st31" d="M186.9,41.3c0,0,0-0.2,0-0.5c0-0.2,0-0.3,0-0.5c0-0.2,0-0.5,0.1-0.7c0-0.1,0-0.3,0.1-0.4
						c0-0.1,0.1-0.3,0.1-0.4c0.1-0.3,0.2-0.6,0.3-0.9c0.2-0.3,0.3-0.6,0.5-0.9c0.2-0.3,0.4-0.6,0.6-0.8c0.3-0.2,0.5-0.5,0.8-0.7
						c0.3-0.2,0.6-0.4,0.8-0.5c0.3-0.1,0.6-0.3,0.8-0.4c0.1,0,0.3-0.1,0.4-0.1c0.1,0,0.3,0,0.4-0.1c0.2-0.1,0.5-0.1,0.7-0.1
						c0.2,0,0.4,0,0.5,0c0.3,0,0.4,0,0.4,0s-0.2,0-0.4,0.1c-0.1,0-0.3,0.1-0.5,0.1c-0.2,0.1-0.4,0.1-0.6,0.2
						c-0.2,0.1-0.5,0.2-0.7,0.3c-0.2,0.1-0.5,0.3-0.7,0.4c-0.2,0.2-0.5,0.3-0.7,0.5c-0.2,0.2-0.5,0.4-0.7,0.6
						c-0.2,0.2-0.4,0.5-0.6,0.7c-0.2,0.2-0.3,0.5-0.5,0.8c-0.1,0.3-0.3,0.5-0.4,0.8c-0.1,0.3-0.2,0.5-0.3,0.7
						c-0.1,0.2-0.1,0.5-0.2,0.7c-0.1,0.2-0.1,0.4-0.1,0.5C186.9,41.2,186.9,41.3,186.9,41.3z"/>
					<path class="st32" d="M199.2,33.7c0.6,1.3,0.9,2.7,0.9,4.2c0,5.4-4.1,9.8-9.2,9.8c-2.2,0-4.2-0.8-5.8-2.2
						c1.5,3.3,4.6,5.7,8.3,5.7c5.1,0,9.2-4.4,9.2-9.8C202.6,38.3,201.3,35.5,199.2,33.7z"/>
					<path class="st36" d="M193.4,31.5c-5.1,0-9.2,4.4-9.2,9.8s4.1,9.8,9.2,9.8c5.1,0,9.2-4.4,9.2-9.8S198.5,31.5,193.4,31.5z
						 M193.4,49.4c-4.2,0-7.5-3.6-7.5-8.1c0-4.4,3.4-8.1,7.5-8.1c4.2,0,7.5,3.6,7.5,8.1C201,45.8,197.6,49.4,193.4,49.4z"/>
				</g>
			</g>
		</g>
		<rect x="160.1" y="56.8" class="st36" width="29.8" height="5.8"/>
	</g>
	<g id="HeadRobot_-_4">
		<g>
			<g>
				<rect x="205.7" y="40.4" class="st34" width="3.5" height="13.6"/>
				<polygon class="st35" points="209.1,54 211.8,51.5 211.8,42.8 209.1,40.4 				"/>
			</g>
			<g>
				
					<rect x="141.8" y="40.4" transform="matrix(-1 -1.224647e-16 1.224647e-16 -1 287.0671 94.3482)" class="st34" width="3.5" height="13.6"/>
				<polygon class="st35" points="141.8,54 139.2,51.5 139.2,42.8 141.8,40.4 				"/>
			</g>
		</g>
		<path class="st37" d="M206.8,66.3h-62.7v-47c0-3.6,2.9-6.6,6.6-6.6h49.5c3.6,0,6.6,2.9,6.6,6.6V66.3z"/>
		<path class="st38" d="M193.7,12.7h-11.8c7.2,0,13.1,5.9,13.1,13.1v40.5h11.8V25.8C206.7,18.6,200.9,12.7,193.7,12.7z"/>
		<g>
			<g>
				<g>
					<path class="st25" d="M166.3,33.3c0,5.1-4.1,9.2-9.2,9.2c-5.1,0-9.2-4.1-9.2-9.2c0-5.1,4.1-9.2,9.2-9.2
						C162.2,24.1,166.3,28.2,166.3,33.3z"/>
					<path class="st31" d="M150.6,33.3c0,0,0-0.2,0-0.4c0-0.1,0-0.3,0-0.5c0-0.2,0-0.4,0.1-0.7c0-0.1,0-0.3,0.1-0.4
						c0-0.1,0.1-0.3,0.1-0.4c0.1-0.3,0.2-0.6,0.3-0.8c0.2-0.3,0.3-0.6,0.5-0.8c0.2-0.3,0.4-0.5,0.6-0.8c0.3-0.2,0.5-0.5,0.8-0.6
						c0.3-0.2,0.6-0.3,0.8-0.5c0.3-0.1,0.6-0.3,0.8-0.3c0.1,0,0.3-0.1,0.4-0.1c0.1,0,0.3,0,0.4-0.1c0.2-0.1,0.5-0.1,0.7-0.1
						c0.2,0,0.4,0,0.5,0c0.3,0,0.4,0,0.4,0s-0.2,0-0.4,0.1c-0.1,0-0.3,0.1-0.5,0.1c-0.2,0.1-0.4,0.1-0.6,0.2
						c-0.2,0.1-0.5,0.2-0.7,0.3c-0.2,0.1-0.5,0.3-0.7,0.4c-0.2,0.2-0.5,0.3-0.7,0.5c-0.2,0.2-0.5,0.4-0.7,0.6
						c-0.2,0.2-0.4,0.4-0.6,0.7c-0.2,0.2-0.3,0.5-0.5,0.7c-0.1,0.3-0.3,0.5-0.4,0.7c-0.1,0.2-0.2,0.5-0.3,0.7
						c-0.1,0.2-0.1,0.4-0.2,0.6c-0.1,0.2-0.1,0.4-0.1,0.5C150.6,33.1,150.6,33.3,150.6,33.3z"/>
					<path class="st32" d="M162.9,26.1c0.6,1.2,0.9,2.5,0.9,3.9c0,5.1-4.1,9.2-9.2,9.2c-2.2,0-4.2-0.8-5.8-2
						c1.5,3.1,4.6,5.3,8.3,5.3c5.1,0,9.2-4.1,9.2-9.2C166.3,30.4,164.9,27.8,162.9,26.1z"/>
					<path class="st36" d="M157.1,24.1c-5.1,0-9.2,4.1-9.2,9.2c0,5.1,4.1,9.2,9.2,9.2c5.1,0,9.2-4.1,9.2-9.2
						C166.3,28.2,162.2,24.1,157.1,24.1z M157.1,40.8c-4.2,0-7.5-3.4-7.5-7.5s3.4-7.5,7.5-7.5c4.2,0,7.5,3.4,7.5,7.5
						S161.2,40.8,157.1,40.8z"/>
				</g>
			</g>
			<g>
				<g>
					<path class="st25" d="M203.1,33.3c0,5.1-4.1,9.2-9.2,9.2s-9.2-4.1-9.2-9.2c0-5.1,4.1-9.2,9.2-9.2S203.1,28.2,203.1,33.3z"/>
					<path class="st31" d="M187.3,33.3c0,0,0-0.2,0-0.4c0-0.1,0-0.3,0-0.5c0-0.2,0-0.4,0.1-0.7c0-0.1,0-0.3,0.1-0.4
						c0-0.1,0.1-0.3,0.1-0.4c0.1-0.3,0.2-0.6,0.3-0.8c0.2-0.3,0.3-0.6,0.5-0.8c0.2-0.3,0.4-0.5,0.6-0.8c0.3-0.2,0.5-0.5,0.8-0.6
						c0.3-0.2,0.6-0.3,0.8-0.5c0.3-0.1,0.6-0.3,0.8-0.3c0.1,0,0.3-0.1,0.4-0.1c0.1,0,0.3,0,0.4-0.1c0.2-0.1,0.5-0.1,0.7-0.1
						c0.2,0,0.4,0,0.5,0c0.3,0,0.4,0,0.4,0s-0.2,0-0.4,0.1c-0.1,0-0.3,0.1-0.5,0.1c-0.2,0.1-0.4,0.1-0.6,0.2
						c-0.2,0.1-0.5,0.2-0.7,0.3c-0.2,0.1-0.5,0.3-0.7,0.4c-0.2,0.2-0.5,0.3-0.7,0.5c-0.2,0.2-0.5,0.4-0.7,0.6
						c-0.2,0.2-0.4,0.4-0.6,0.7c-0.2,0.2-0.3,0.5-0.5,0.7c-0.1,0.3-0.3,0.5-0.4,0.7c-0.1,0.2-0.2,0.5-0.3,0.7
						c-0.1,0.2-0.1,0.4-0.2,0.6c-0.1,0.2-0.1,0.4-0.1,0.5C187.4,33.1,187.3,33.3,187.3,33.3z"/>
					<path class="st32" d="M199.6,26.1c0.6,1.2,0.9,2.5,0.9,3.9c0,5.1-4.1,9.2-9.2,9.2c-2.2,0-4.2-0.8-5.8-2
						c1.5,3.1,4.6,5.3,8.3,5.3c5.1,0,9.2-4.1,9.2-9.2C203.1,30.4,201.7,27.8,199.6,26.1z"/>
					<path class="st36" d="M193.9,24.1c-5.1,0-9.2,4.1-9.2,9.2c0,5.1,4.1,9.2,9.2,9.2s9.2-4.1,9.2-9.2
						C203.1,28.2,198.9,24.1,193.9,24.1z M193.9,40.8c-4.2,0-7.5-3.4-7.5-7.5s3.4-7.5,7.5-7.5c4.2,0,7.5,3.4,7.5,7.5
						S198,40.8,193.9,40.8z"/>
				</g>
			</g>
		</g>
		<rect x="160.6" y="47.7" class="st36" width="29.7" height="5.4"/>
	</g>
</g>
<g id="med">
	<g id="BodyRobot1">
		<polygon class="st39" points="216.7,166.2 135.7,166.2 130.3,82.2 222.1,82.2 		"/>
		<path class="st18" d="M216.7,166.2h-81.1l5.1,8.8c7.3,12.7,20.8,20.6,35.5,20.6h0c14.7,0,28.2-7.9,35.5-20.6L216.7,166.2z"/>
		<polygon class="st18" points="216.7,68.5 135.7,68.5 130.3,82.2 222.1,82.2 		"/>
		<polygon class="st5" points="204.9,82.2 199.5,166.2 216.7,166.2 222.1,82.2 		"/>
		<path class="st5" d="M199.5,166.2l-5.1,8.8c-5.8,10.2-15.7,17.2-26.9,19.6c2.8,0.6,5.7,0.9,8.6,0.9c14.7,0,28.2-7.9,35.5-20.6
			l5.1-8.8H199.5z"/>
		<polygon class="st5" points="216.7,68.5 199.5,68.5 204.9,82.2 222.1,82.2 		"/>
		<g>
			<g>
				<path class="st40" d="M176.2,90c-9.5,0-17.2,7.7-17.2,17.2c0,9.5,7.7,17.2,17.2,17.2c9.5,0,17.2-7.7,17.2-17.2
					C193.5,97.7,185.7,90,176.2,90z M176.2,121.4c-7.8,0-14.1-6.3-14.1-14.1s6.3-14.1,14.1-14.1c7.8,0,14.1,6.3,14.1,14.1
					S184,121.4,176.2,121.4z"/>
				<circle class="st25" cx="176.2" cy="107.2" r="15.8"/>
				<path class="st31" d="M165,107.2c0,0,0-0.3-0.1-0.8c0-0.2,0-0.5,0-0.9c0-0.3,0-0.7,0.1-1.2c0-0.2,0.1-0.4,0.1-0.7
					c0.1-0.2,0.1-0.5,0.2-0.7c0.1-0.5,0.4-0.9,0.6-1.4c0.3-0.5,0.5-1,0.9-1.4c0.3-0.5,0.7-0.9,1.1-1.3c0.4-0.4,0.9-0.8,1.3-1.1
					c0.4-0.4,1-0.6,1.4-0.9c0.5-0.2,1-0.4,1.4-0.6c0.2-0.1,0.5-0.1,0.7-0.2c0.2,0,0.4-0.1,0.7-0.1c0.4-0.1,0.8-0.1,1.2-0.1
					c0.3,0,0.6,0,0.9,0c0.5,0,0.8,0.1,0.8,0.1s-0.3,0.1-0.7,0.1c-0.2,0-0.5,0.1-0.8,0.2c-0.3,0.1-0.7,0.2-1.1,0.3
					c-0.4,0.1-0.8,0.3-1.2,0.5c-0.4,0.2-0.8,0.4-1.3,0.7c-0.4,0.3-0.8,0.5-1.2,0.9c-0.4,0.3-0.8,0.7-1.2,1c-0.4,0.4-0.7,0.8-1,1.2
					c-0.3,0.4-0.6,0.8-0.9,1.2c-0.2,0.4-0.5,0.8-0.7,1.3c-0.2,0.4-0.4,0.8-0.5,1.2c-0.1,0.4-0.2,0.7-0.3,1.1
					c-0.1,0.3-0.2,0.6-0.2,0.8C165,107,165,107.2,165,107.2z"/>
				<path class="st32" d="M186.2,94.9c1,2,1.5,4.3,1.5,6.7c0,8.7-7.1,15.8-15.8,15.8c-3.8,0-7.2-1.3-9.9-3.5c2.5,5.4,8,9.1,14.3,9.1
					c8.7,0,15.8-7.1,15.8-15.8C192,102.3,189.7,97.8,186.2,94.9z"/>
				<path class="st24" d="M176.2,91.4c-8.7,0-15.8,7.1-15.8,15.8c0,8.7,7.1,15.8,15.8,15.8c8.7,0,15.8-7.1,15.8-15.8
					C192,98.5,185,91.4,176.2,91.4z M176.2,120.2c-7.1,0-13-5.8-13-13s5.8-13,13-13c7.1,0,13,5.8,13,13S183.4,120.2,176.2,120.2z"/>
			</g>
			<g>
				<path class="st40" d="M175.8,90.6L175.8,90.6c-0.3,0-0.6-0.3-0.6-0.6v-2.9c0-0.3,0.3-0.6,0.6-0.6l0,0c0.3,0,0.6,0.3,0.6,0.6V90
					C176.4,90.4,176.1,90.6,175.8,90.6z"/>
				<path class="st40" d="M161.6,99.3L161.6,99.3c-0.2,0.3-0.6,0.4-0.9,0.2l-2.5-1.4c-0.3-0.2-0.4-0.6-0.2-0.9l0,0
					c0.2-0.3,0.6-0.4,0.9-0.2l2.5,1.4C161.7,98.6,161.8,99,161.6,99.3z"/>
				<path class="st40" d="M162.1,115.9L162.1,115.9c0.2,0.3,0.1,0.7-0.2,0.9l-2.5,1.4c-0.3,0.2-0.7,0.1-0.9-0.2l0,0
					c-0.2-0.3-0.1-0.7,0.2-0.9l2.5-1.4C161.5,115.5,161.9,115.6,162.1,115.9z"/>
				<path class="st40" d="M176.6,123.8L176.6,123.8c0.3,0,0.6,0.3,0.6,0.6v2.9c0,0.3-0.3,0.6-0.6,0.6l0,0c-0.3,0-0.6-0.3-0.6-0.6
					v-2.9C176,124.1,176.3,123.8,176.6,123.8z"/>
				<path class="st40" d="M190.8,115.2L190.8,115.2c0.2-0.3,0.6-0.4,0.9-0.2l2.5,1.4c0.3,0.2,0.4,0.6,0.2,0.9l0,0
					c-0.2,0.3-0.6,0.4-0.9,0.2L191,116C190.7,115.8,190.6,115.5,190.8,115.2z"/>
				<path class="st40" d="M190.4,98.6L190.4,98.6c-0.2-0.3-0.1-0.7,0.2-0.9l2.5-1.4c0.3-0.2,0.7-0.1,0.9,0.2l0,0
					c0.2,0.3,0.1,0.7-0.2,0.9l-2.5,1.4C190.9,99,190.5,98.9,190.4,98.6z"/>
			</g>
		</g>
		<g class="st41">
			<path class="st42" d="M148.2,94.3c0,2.8-2.3,5.1-5.1,5.1s-5.1-2.3-5.1-5.1c0-2.8,2.3-5.1,5.1-5.1S148.2,91.4,148.2,94.3z"/>
			<path class="st43" d="M146.3,90.3c0.3,0.7,0.5,1.4,0.5,2.2c0,2.8-2.3,5.1-5.1,5.1c-1.2,0-2.3-0.4-3.2-1.1
				c0.8,1.7,2.6,2.9,4.6,2.9c2.8,0,5.1-2.3,5.1-5.1C148.2,92.7,147.4,91.2,146.3,90.3z"/>
		</g>
		<g class="st41">
			<circle class="st42" cx="143" cy="109.2" r="5.1"/>
			<path class="st43" d="M146.3,105.2c0.3,0.7,0.5,1.4,0.5,2.2c0,2.8-2.3,5.1-5.1,5.1c-1.2,0-2.3-0.4-3.2-1.1
				c0.8,1.7,2.6,2.9,4.6,2.9c2.8,0,5.1-2.3,5.1-5.1C148.2,107.6,147.4,106.1,146.3,105.2z"/>
		</g>
		<rect x="201.6" y="95.5" class="st44" width="15.1" height="2.2"/>
		<rect x="168.7" y="146" class="st44" width="15.1" height="2.2"/>
		<rect x="168.7" y="150.9" class="st44" width="15.1" height="2.2"/>
		<rect x="168.7" y="155.8" class="st44" width="15.1" height="2.2"/>
		<rect x="201.6" y="100.8" class="st44" width="15.1" height="2.2"/>
		<rect x="201.6" y="106.2" class="st44" width="15.1" height="2.2"/>
		<rect x="201.6" y="90.1" class="st44" width="15.1" height="2.2"/>
	</g>
	<g id="BodyRobot2">
		<g>
			<polygon class="st14" points="216.8,165.6 135.6,165.6 130.3,80 222.1,80 			"/>
			<path class="st45" d="M216.8,165.6h-81.1l5.1,9c7.3,13,20.8,21,35.5,21h0c14.7,0,28.2-8,35.5-21L216.8,165.6z"/>
			<path class="st5" d="M199.5,165.6l-5.1,9c-5.8,10.4-15.7,17.6-26.9,20c2.8,0.6,5.7,1,8.6,1c14.7,0,28.2-8,35.5-21l5.1-9H199.5z"
				/>
			<g>
				<g>
					<g>
						<path class="st46" d="M159.8,143.7c0,2.8-2.3,5.1-5,5.1s-5-2.3-5-5.1c0-2.8,2.3-5.1,5-5.1S159.8,140.8,159.8,143.7z"/>
						<path class="st47" d="M157.9,139.7c0.3,0.7,0.5,1.4,0.5,2.2c0,2.8-2.3,5.1-5,5.1c-1.2,0-2.3-0.4-3.2-1.1c0.8,1.7,2.5,3,4.6,3
							c2.8,0,5-2.3,5-5.1C159.8,142.1,159.1,140.6,157.9,139.7z"/>
					</g>
					<g>
						<path class="st46" d="M175.4,143.7c0,2.8-2.3,5.1-5,5.1s-5-2.3-5-5.1c0-2.8,2.3-5.1,5-5.1S175.4,140.8,175.4,143.7z"/>
						<path class="st47" d="M173.5,139.7c0.3,0.7,0.5,1.4,0.5,2.2c0,2.8-2.3,5.1-5,5.1c-1.2,0-2.3-0.4-3.2-1.1c0.8,1.7,2.5,3,4.6,3
							c2.8,0,5-2.3,5-5.1C175.4,142.1,174.6,140.6,173.5,139.7z"/>
					</g>
					<g>
						<ellipse class="st46" cx="185.9" cy="143.7" rx="5" ry="5.1"/>
						<path class="st47" d="M189.1,139.7c0.3,0.7,0.5,1.4,0.5,2.2c0,2.8-2.3,5.1-5,5.1c-1.2,0-2.3-0.4-3.2-1.1c0.8,1.7,2.5,3,4.6,3
							c2.8,0,5-2.3,5-5.1C191,142.1,190.2,140.6,189.1,139.7z"/>
					</g>
					<g>
						<path class="st46" d="M206.6,143.7c0,2.8-2.3,5.1-5,5.1s-5-2.3-5-5.1c0-2.8,2.3-5.1,5-5.1S206.6,140.8,206.6,143.7z"/>
						<path class="st47" d="M204.7,139.7c0.3,0.7,0.5,1.4,0.5,2.2c0,2.8-2.3,5.1-5,5.1c-1.2,0-2.3-0.4-3.2-1.1c0.8,1.7,2.5,3,4.6,3
							c2.8,0,5-2.3,5-5.1C206.6,142.1,205.8,140.6,204.7,139.7z"/>
					</g>
				</g>
				<path class="st48" d="M206,120.7h-48.8c-1.2,0-2.2-1-2.2-2.2V92c0-1.2,1-2.2,2.2-2.2H206c1.2,0,2.2,1,2.2,2.2v26.5
					C208.2,119.7,207.2,120.7,206,120.7z"/>
				<rect x="158.5" y="91.8" class="st49" width="46.3" height="13.4"/>
				<g>
					<g>
						<path class="st50" d="M160.3,109.8h-1.5c-0.2,0-0.4-0.2-0.4-0.4v-1.5c0-0.2,0.2-0.4,0.4-0.4h1.5c0.2,0,0.4,0.2,0.4,0.4v1.5
							C160.7,109.6,160.5,109.8,160.3,109.8z"/>
						<path class="st50" d="M163.4,109.8H162c-0.2,0-0.4-0.2-0.4-0.4v-1.5c0-0.2,0.2-0.4,0.4-0.4h1.5c0.2,0,0.4,0.2,0.4,0.4v1.5
							C163.8,109.6,163.6,109.8,163.4,109.8z"/>
						<path class="st50" d="M166.6,109.8h-1.5c-0.2,0-0.4-0.2-0.4-0.4v-1.5c0-0.2,0.2-0.4,0.4-0.4h1.5c0.2,0,0.4,0.2,0.4,0.4v1.5
							C166.9,109.6,166.8,109.8,166.6,109.8z"/>
						<path class="st50" d="M160.3,113.4h-1.5c-0.2,0-0.4-0.2-0.4-0.4v-1.5c0-0.2,0.2-0.4,0.4-0.4h1.5c0.2,0,0.4,0.2,0.4,0.4v1.5
							C160.7,113.2,160.5,113.4,160.3,113.4z"/>
						<path class="st50" d="M163.4,113.4H162c-0.2,0-0.4-0.2-0.4-0.4v-1.5c0-0.2,0.2-0.4,0.4-0.4h1.5c0.2,0,0.4,0.2,0.4,0.4v1.5
							C163.8,113.2,163.6,113.4,163.4,113.4z"/>
						<path class="st50" d="M166.6,113.4h-1.5c-0.2,0-0.4-0.2-0.4-0.4v-1.5c0-0.2,0.2-0.4,0.4-0.4h1.5c0.2,0,0.4,0.2,0.4,0.4v1.5
							C166.9,113.2,166.8,113.4,166.6,113.4z"/>
						<path class="st50" d="M160.3,117.1h-1.5c-0.2,0-0.4-0.2-0.4-0.4v-1.5c0-0.2,0.2-0.4,0.4-0.4h1.5c0.2,0,0.4,0.2,0.4,0.4v1.5
							C160.7,116.9,160.5,117.1,160.3,117.1z"/>
						<path class="st50" d="M163.4,117.1H162c-0.2,0-0.4-0.2-0.4-0.4v-1.5c0-0.2,0.2-0.4,0.4-0.4h1.5c0.2,0,0.4,0.2,0.4,0.4v1.5
							C163.8,116.9,163.6,117.1,163.4,117.1z"/>
						<path class="st50" d="M166.6,117.1h-1.5c-0.2,0-0.4-0.2-0.4-0.4v-1.5c0-0.2,0.2-0.4,0.4-0.4h1.5c0.2,0,0.4,0.2,0.4,0.4v1.5
							C166.9,116.9,166.8,117.1,166.6,117.1z"/>
					</g>
					<g>
						<path class="st50" d="M176.3,109.8h-1.5c-0.2,0-0.4-0.2-0.4-0.4v-1.5c0-0.2,0.2-0.4,0.4-0.4h1.5c0.2,0,0.4,0.2,0.4,0.4v1.5
							C176.7,109.6,176.5,109.8,176.3,109.8z"/>
						<path class="st50" d="M179.4,109.8H178c-0.2,0-0.4-0.2-0.4-0.4v-1.5c0-0.2,0.2-0.4,0.4-0.4h1.5c0.2,0,0.4,0.2,0.4,0.4v1.5
							C179.8,109.6,179.6,109.8,179.4,109.8z"/>
						<path class="st50" d="M182.5,109.8h-1.5c-0.2,0-0.4-0.2-0.4-0.4v-1.5c0-0.2,0.2-0.4,0.4-0.4h1.5c0.2,0,0.4,0.2,0.4,0.4v1.5
							C182.9,109.6,182.7,109.8,182.5,109.8z"/>
						<path class="st50" d="M176.3,113.4h-1.5c-0.2,0-0.4-0.2-0.4-0.4v-1.5c0-0.2,0.2-0.4,0.4-0.4h1.5c0.2,0,0.4,0.2,0.4,0.4v1.5
							C176.7,113.2,176.5,113.4,176.3,113.4z"/>
						<path class="st50" d="M179.4,113.4H178c-0.2,0-0.4-0.2-0.4-0.4v-1.5c0-0.2,0.2-0.4,0.4-0.4h1.5c0.2,0,0.4,0.2,0.4,0.4v1.5
							C179.8,113.2,179.6,113.4,179.4,113.4z"/>
						<path class="st50" d="M182.5,113.4h-1.5c-0.2,0-0.4-0.2-0.4-0.4v-1.5c0-0.2,0.2-0.4,0.4-0.4h1.5c0.2,0,0.4,0.2,0.4,0.4v1.5
							C182.9,113.2,182.7,113.4,182.5,113.4z"/>
						<path class="st50" d="M176.3,117.1h-1.5c-0.2,0-0.4-0.2-0.4-0.4v-1.5c0-0.2,0.2-0.4,0.4-0.4h1.5c0.2,0,0.4,0.2,0.4,0.4v1.5
							C176.7,116.9,176.5,117.1,176.3,117.1z"/>
						<path class="st50" d="M179.4,117.1H178c-0.2,0-0.4-0.2-0.4-0.4v-1.5c0-0.2,0.2-0.4,0.4-0.4h1.5c0.2,0,0.4,0.2,0.4,0.4v1.5
							C179.8,116.9,179.6,117.1,179.4,117.1z"/>
						<path class="st50" d="M182.5,117.1h-1.5c-0.2,0-0.4-0.2-0.4-0.4v-1.5c0-0.2,0.2-0.4,0.4-0.4h1.5c0.2,0,0.4,0.2,0.4,0.4v1.5
							C182.9,116.9,182.7,117.1,182.5,117.1z"/>
					</g>
					<g>
						<path class="st50" d="M192.3,109.8h-1.5c-0.2,0-0.4-0.2-0.4-0.4v-1.5c0-0.2,0.2-0.4,0.4-0.4h1.5c0.2,0,0.4,0.2,0.4,0.4v1.5
							C192.6,109.6,192.5,109.8,192.3,109.8z"/>
						<path class="st50" d="M195.4,109.8h-1.5c-0.2,0-0.4-0.2-0.4-0.4v-1.5c0-0.2,0.2-0.4,0.4-0.4h1.5c0.2,0,0.4,0.2,0.4,0.4v1.5
							C195.8,109.6,195.6,109.8,195.4,109.8z"/>
						<path class="st50" d="M198.5,109.8h-1.5c-0.2,0-0.4-0.2-0.4-0.4v-1.5c0-0.2,0.2-0.4,0.4-0.4h1.5c0.2,0,0.4,0.2,0.4,0.4v1.5
							C198.9,109.6,198.7,109.8,198.5,109.8z"/>
						<path class="st50" d="M192.3,113.4h-1.5c-0.2,0-0.4-0.2-0.4-0.4v-1.5c0-0.2,0.2-0.4,0.4-0.4h1.5c0.2,0,0.4,0.2,0.4,0.4v1.5
							C192.6,113.2,192.5,113.4,192.3,113.4z"/>
						<path class="st50" d="M195.4,113.4h-1.5c-0.2,0-0.4-0.2-0.4-0.4v-1.5c0-0.2,0.2-0.4,0.4-0.4h1.5c0.2,0,0.4,0.2,0.4,0.4v1.5
							C195.8,113.2,195.6,113.4,195.4,113.4z"/>
						<path class="st50" d="M198.5,113.4h-1.5c-0.2,0-0.4-0.2-0.4-0.4v-1.5c0-0.2,0.2-0.4,0.4-0.4h1.5c0.2,0,0.4,0.2,0.4,0.4v1.5
							C198.9,113.2,198.7,113.4,198.5,113.4z"/>
						<path class="st50" d="M192.3,117.1h-1.5c-0.2,0-0.4-0.2-0.4-0.4v-1.5c0-0.2,0.2-0.4,0.4-0.4h1.5c0.2,0,0.4,0.2,0.4,0.4v1.5
							C192.6,116.9,192.5,117.1,192.3,117.1z"/>
						<path class="st50" d="M195.4,117.1h-1.5c-0.2,0-0.4-0.2-0.4-0.4v-1.5c0-0.2,0.2-0.4,0.4-0.4h1.5c0.2,0,0.4,0.2,0.4,0.4v1.5
							C195.8,116.9,195.6,117.1,195.4,117.1z"/>
						<path class="st50" d="M198.5,117.1h-1.5c-0.2,0-0.4-0.2-0.4-0.4v-1.5c0-0.2,0.2-0.4,0.4-0.4h1.5c0.2,0,0.4,0.2,0.4,0.4v1.5
							C198.9,116.9,198.7,117.1,198.5,117.1z"/>
					</g>
				</g>
				<g class="st51">
					<polygon class="st27" points="181,105.2 194.2,91.8 183.3,91.8 170.1,105.2 					"/>
					<polygon class="st27" points="200.8,91.8 196.5,91.8 183.3,105.2 187.6,105.2 					"/>
				</g>
				<rect x="138.7" y="90.8" class="st5" width="10.7" height="2.1"/>
				<rect x="138.7" y="96.4" class="st5" width="10.7" height="2.1"/>
				<rect x="138.7" y="101.9" class="st5" width="10.7" height="2.1"/>
				<rect x="138.7" y="107.4" class="st5" width="10.7" height="2.1"/>
			</g>
		</g>
		<polygon class="st5" points="204.9,79.9 199.5,165.5 216.7,165.5 222,79.9 		"/>
		<g>
			<polygon class="st52" points="216.8,66 135.6,66 130.2,80.1 222.1,80.1 			"/>
			<polygon class="st5" points="216.8,66 199.5,66 204.8,80.1 222.1,80.1 			"/>
		</g>
	</g>
	<g id="BodyRobot_-_3">
		<polygon class="st10" points="216.7,165.5 135.5,165.5 130.1,79.8 222.1,79.8 		"/>
		<path class="st11" d="M216.7,165.5h-81.3l5.1,9c7.3,13,20.9,21,35.6,21h0c14.7,0,28.3-8,35.6-21L216.7,165.5z"/>
		<polygon class="st5" points="204.8,79.8 199.5,165.5 216.7,165.5 222.1,79.8 		"/>
		<path class="st5" d="M199.5,165.5l-5.1,9c-5.8,10.4-15.7,17.6-26.9,20.1c2.8,0.6,5.7,1,8.6,1c14.7,0,28.3-8,35.6-21l5.1-9H199.5z"
			/>
		<g>
			<g>
				<path class="st5" d="M209.9,153.2h-48.6c-0.8,0-1.4-0.7-1.4-1.5l0,0c0-0.8,0.6-1.5,1.4-1.5h48.6c0.8,0,1.4,0.7,1.4,1.5l0,0
					C211.4,152.5,210.7,153.2,209.9,153.2z"/>
				<path class="st5" d="M209.9,146.1h-48.6c-0.8,0-1.4-0.7-1.4-1.5l0,0c0-0.8,0.6-1.5,1.4-1.5h48.6c0.8,0,1.4,0.7,1.4,1.5l0,0
					C211.4,145.5,210.7,146.1,209.9,146.1z"/>
				<path class="st5" d="M209.9,139h-48.6c-0.8,0-1.4-0.7-1.4-1.5l0,0c0-0.8,0.6-1.5,1.4-1.5h48.6c0.8,0,1.4,0.7,1.4,1.5l0,0
					C211.4,138.4,210.7,139,209.9,139z"/>
				<path class="st5" d="M209.9,131.9h-48.6c-0.8,0-1.4-0.7-1.4-1.5l0,0c0-0.8,0.6-1.5,1.4-1.5h48.6c0.8,0,1.4,0.7,1.4,1.5l0,0
					C211.4,131.3,210.7,131.9,209.9,131.9z"/>
			</g>
			<rect x="135.6" y="94.8" class="st53" width="40" height="28.7"/>
			<g>
				<rect x="185.2" y="94.8" class="st53" width="7" height="7.2"/>
				<rect x="195.7" y="94.8" class="st53" width="7" height="7.2"/>
				<rect x="206.3" y="94.8" class="st53" width="7" height="7.2"/>
				<rect x="185.2" y="105.5" class="st53" width="7" height="7.2"/>
				<rect x="195.7" y="105.5" class="st53" width="7" height="7.2"/>
				<rect x="206.3" y="105.5" class="st53" width="7" height="7.2"/>
				<rect x="185.2" y="116.3" class="st53" width="7" height="7.2"/>
				<rect x="195.7" y="116.3" class="st53" width="7" height="7.2"/>
				<rect x="206.3" y="116.3" class="st53" width="7" height="7.2"/>
			</g>
			<g class="st51">
				<polygon class="st27" points="175.6,106.4 175.6,101.5 154.1,123.5 158.9,123.5 				"/>
				<polygon class="st27" points="151.6,123.5 175.6,99 175.6,94.8 167.7,94.8 139.6,123.5 				"/>
			</g>
		</g>
		<g>
			<polygon class="st11" points="216.7,65.8 135.6,65.8 130.3,79.6 222.1,79.6 			"/>
			<polygon class="st5" points="216.7,65.8 199.5,65.8 204.8,79.6 222.1,79.6 			"/>
		</g>
	</g>
	<g id="BodyRobot_-_4">
		<polygon class="st54" points="216.8,165.6 135.5,165.6 130.2,80 222.1,80 		"/>
		<path class="st54" d="M216.8,165.6h-81.2l5.1,9c7.3,13,20.9,21,35.5,21h0c14.7,0,28.2-8,35.5-21L216.8,165.6z"/>
		<polygon class="st5" points="204.8,80 199.5,165.6 216.8,165.6 222.1,80 		"/>
		<path class="st5" d="M199.5,165.6l-5.1,9c-5.8,10.4-15.7,17.6-26.9,20c2.8,0.6,5.7,1,8.6,1c14.7,0,28.2-8,35.5-21l5.1-9H199.5z"/>
		<g>
			<rect x="204.6" y="89.3" class="st55" width="13.7" height="2.5"/>
			<rect x="204.6" y="94.7" class="st55" width="13.7" height="2.5"/>
			<rect x="204.6" y="100" class="st55" width="13.7" height="2.5"/>
			<path class="st56" d="M186.7,127.8h-40.8c-2.3,0-4.1-1.8-4.1-4.1V92.3c0-2.3,1.8-4.1,4.1-4.1h40.8c2.3,0,4.1,1.8,4.1,4.1v31.4
				C190.8,126,189,127.8,186.7,127.8z"/>
			<rect x="147" y="93.7" class="st25" width="38.6" height="16.6"/>
			<g>
				<rect x="148.3" y="115.2" class="st57" width="3.9" height="4"/>
				<rect x="156.7" y="115.2" class="st57" width="3.9" height="4"/>
				<rect x="165" y="115.2" class="st57" width="3.9" height="4"/>
				<rect x="173.3" y="115.2" class="st57" width="3.9" height="4"/>
				<rect x="181.7" y="115.2" class="st57" width="3.9" height="4"/>
			</g>
			<rect x="147" y="136.6" class="st55" width="38" height="2.8"/>
			<rect x="147" y="143.3" class="st55" width="38" height="2.8"/>
			<rect x="147" y="150" class="st55" width="38" height="2.8"/>
			<rect x="147" y="156.7" class="st55" width="38" height="2.8"/>
			<g class="st26">
				<polygon class="st27" points="156,110.3 172.3,93.7 163.6,93.7 147.3,110.3 				"/>
				<polygon class="st27" points="177.6,93.7 174.1,93.7 157.8,110.3 161.3,110.3 				"/>
			</g>
		</g>
		<g>
			<polygon class="st35" points="216.8,66 135.7,66 130.3,79.9 222.1,79.9 			"/>
			<polygon class="st5" points="216.8,66 199.5,66 204.9,79.9 222.1,79.9 			"/>
		</g>
	</g>
</g>
<g id="arm">
	<g id="HandRobot_-_4">
		<g>
			<g>
				<path class="st8" d="M252.4,183.2c7-33.6,1-70.6-16.3-100.2c-2.3,2-4.6,4-6.8,6c15.6,26.8,21,60.3,14.7,90.7
					C246.8,180.8,249.6,182,252.4,183.2z"/>
				<g>
					<path class="st9" d="M239.2,88.4c-1-1.8-1.9-3.6-3-5.4c-2.3,2-4.6,4-6.8,6c0.9,1.6,1.8,3.2,2.7,4.9
						C234.4,92.1,236.8,90.2,239.2,88.4z"/>
					<path class="st9" d="M244.3,99.4c-0.8-1.9-1.6-3.8-2.5-5.7c-2.5,1.7-4.9,3.3-7.4,5c0.8,1.7,1.5,3.4,2.3,5.1
						C239.2,102.4,241.7,100.9,244.3,99.4z"/>
					<path class="st9" d="M248.4,110.9c-0.6-2-1.3-3.9-2-5.9c-2.6,1.3-5.2,2.6-7.8,3.9c0.6,1.8,1.2,3.5,1.8,5.3
						C243.1,113.1,245.8,112,248.4,110.9z"/>
					<path class="st9" d="M251.6,122.7c-0.5-2-1-4-1.5-6.1c-2.7,0.9-5.4,1.9-8.2,2.8c0.5,1.8,0.9,3.6,1.4,5.5
						C246.1,124.2,248.9,123.4,251.6,122.7z"/>
					<path class="st9" d="M253.8,134.7c-0.3-2.1-0.6-4.1-1-6.2c-2.8,0.6-5.6,1.1-8.4,1.7c0.3,1.9,0.6,3.7,0.9,5.6
						C248.2,135.4,251,135.1,253.8,134.7z"/>
					<path class="st9" d="M255,146.9c-0.1-2.1-0.3-4.1-0.5-6.2c-2.9,0.2-5.7,0.3-8.6,0.5c0.2,1.9,0.3,3.7,0.4,5.6
						C249.3,146.8,252.2,146.9,255,146.9z"/>
					<path class="st9" d="M255.2,159.1c0.1-2.1,0.1-4.1,0-6.2c-2.9-0.2-5.8-0.4-8.7-0.7c0,1.9,0,3.8,0,5.6
						C249.5,158.3,252.3,158.7,255.2,159.1z"/>
					<path class="st9" d="M254.4,171.2c0.2-2.1,0.4-4.1,0.6-6.2c-2.9-0.6-5.8-1.2-8.6-1.8c-0.1,1.9-0.3,3.7-0.5,5.6
						C248.6,169.6,251.5,170.4,254.4,171.2z"/>
					<path class="st9" d="M252.4,183.2c0.4-2,0.8-4,1.1-6.1c-2.8-1-5.7-2-8.5-3c-0.3,1.8-0.6,3.7-1,5.5
						C246.8,180.8,249.6,182,252.4,183.2z"/>
				</g>
				<path class="st5" d="M247.5,181.1c6.6-31.7,0.9-66.6-15.3-94.6c-0.9,0.8-1.9,1.6-2.8,2.5c15.6,26.8,21,60.3,14.7,90.7
					C245.2,180.1,246.3,180.6,247.5,181.1z"/>
			</g>
			<polygon class="st55" points="240.9,176.4 252.5,180.3 254.1,180.9 260,182.8 262.4,204 245.4,220.5 240.7,218.9 242.6,213.3 
				243.8,213.7 256.1,201.7 254.5,187.3 252.2,186.5 250.6,186 242.6,183.3 232.5,193.8 235.1,210.7 236.3,211.1 234.4,216.8 
				229.7,215.2 226.2,191.8 			"/>
		</g>
		<g>
			<g>
				<path class="st8" d="M101.3,183.2c-7-33.6-1-70.6,16.3-100.2c2.3,2,4.6,4,6.8,6c-15.6,26.8-21,60.3-14.7,90.7
					C106.9,180.8,104.1,182,101.3,183.2z"/>
				<g>
					<path class="st9" d="M114.5,88.4c1-1.8,1.9-3.6,3-5.4c2.3,2,4.6,4,6.8,6c-0.9,1.6-1.8,3.2-2.7,4.9
						C119.3,92.1,116.9,90.2,114.5,88.4z"/>
					<path class="st9" d="M109.4,99.4c0.8-1.9,1.6-3.8,2.5-5.7c2.5,1.7,4.9,3.3,7.4,5c-0.8,1.7-1.5,3.4-2.3,5.1
						C114.5,102.4,112,100.9,109.4,99.4z"/>
					<path class="st9" d="M105.2,110.9c0.6-2,1.3-3.9,2-5.9c2.6,1.3,5.2,2.6,7.8,3.9c-0.6,1.8-1.2,3.5-1.8,5.3
						C110.6,113.1,107.9,112,105.2,110.9z"/>
					<path class="st9" d="M102.1,122.7c0.5-2,1-4,1.5-6.1c2.7,0.9,5.4,1.9,8.2,2.8c-0.5,1.8-0.9,3.6-1.4,5.5
						C107.6,124.2,104.8,123.4,102.1,122.7z"/>
					<path class="st9" d="M99.8,134.7c0.3-2.1,0.6-4.1,1-6.2c2.8,0.6,5.6,1.1,8.4,1.7c-0.3,1.9-0.6,3.7-0.9,5.6
						C105.5,135.4,102.7,135.1,99.8,134.7z"/>
					<path class="st9" d="M98.6,146.9c0.1-2.1,0.3-4.1,0.5-6.2c2.9,0.2,5.7,0.3,8.6,0.5c-0.2,1.9-0.3,3.7-0.4,5.6
						C104.4,146.8,101.5,146.9,98.6,146.9z"/>
					<path class="st9" d="M98.5,159.1c-0.1-2.1-0.1-4.1,0-6.2c2.9-0.2,5.8-0.4,8.7-0.7c0,1.9,0,3.8,0,5.6
						C104.2,158.3,101.4,158.7,98.5,159.1z"/>
					<path class="st9" d="M99.3,171.2c-0.2-2.1-0.4-4.1-0.6-6.2c2.9-0.6,5.8-1.2,8.6-1.8c0.1,1.9,0.3,3.7,0.5,5.6
						C105.1,169.6,102.2,170.4,99.3,171.2z"/>
					<path class="st9" d="M101.3,183.2c-0.4-2-0.8-4-1.1-6.1c2.8-1,5.7-2,8.5-3c0.3,1.8,0.6,3.7,1,5.5
						C106.9,180.8,104.1,182,101.3,183.2z"/>
				</g>
				<path class="st5" d="M106.2,181.1c-6.6-31.7-0.9-66.6,15.3-94.6c0.9,0.8,1.9,1.6,2.8,2.5c-15.6,26.8-21,60.3-14.7,90.7
					C108.5,180.1,107.4,180.6,106.2,181.1z"/>
			</g>
			<polygon class="st55" points="112.8,176.4 101.2,180.3 99.6,180.9 93.7,182.8 91.3,204 108.3,220.5 113,218.9 111.1,213.3 
				109.9,213.7 97.6,201.7 99.2,187.3 101.5,186.5 103.1,186 111.1,183.3 121.2,193.8 118.6,210.7 117.4,211.1 119.3,216.8 
				124,215.2 127.5,191.8 			"/>
		</g>
		<g>
			<path class="st54" d="M139.9,69.6c-4.2-4.9-11.1-6.8-17.4-5.3c-6.3,1.5-11.9,6-15.5,11.7c-3.6,5.7-5.2,12.6-5.3,19.3
				c2.8,1.3,5,2.3,7.8,3.6c4.2-6.4,13.2-10,19.9-7.5C136.2,86.2,140,78.4,139.9,69.6z"/>
			<path class="st5" d="M107.5,95.7c5.3-8,16.6-12.6,25.1-9.5c1.7-1.3,3.2-2.7,4.6-4.2c-1.8,3.6-4.4,6.8-7.8,9.4
				c-6.7-2.5-15.7,1.2-19.9,7.5c-2.8-1.3-5-2.3-7.8-3.6c0-0.8,0-1.6,0.1-2.3C103.6,93.9,105.5,94.7,107.5,95.7z"/>
		</g>
		<g>
			<path class="st54" d="M210.3,69.6c4.2-4.9,11.1-6.8,17.4-5.3c6.3,1.5,11.9,6,15.5,11.7c3.6,5.7,5.2,12.6,5.3,19.3
				c-2.8,1.3-5,2.3-7.8,3.6c-4.2-6.4-13.2-10-19.9-7.5C213.9,86.2,210.2,78.4,210.3,69.6z"/>
			<path class="st5" d="M242.7,95.7c-5.3-8-16.6-12.6-25.1-9.5c-1.7-1.3-3.2-2.7-4.6-4.2c1.8,3.6,4.4,6.8,7.8,9.4
				c6.7-2.5,15.7,1.2,19.9,7.5c2.8-1.3,5-2.3,7.8-3.6c0-0.8,0-1.6-0.1-2.3C246.5,93.9,244.7,94.7,242.7,95.7z"/>
		</g>
	</g>
	<g id="HandRobot_-_3">
		<g>
			<g>
				<path class="st8" d="M252.6,190.7c10.5-37,3.7-77.6-18.4-109.2c-3,2.3-5.9,4.7-8.9,7c19.9,28.5,26,65.1,16.6,98.5
					C245.5,188.2,249.1,189.4,252.6,190.7z"/>
				<g>
					<path class="st9" d="M238.1,87.3c-1.2-2-2.5-3.9-3.8-5.8c-3,2.3-5.9,4.7-8.9,7c1.2,1.7,2.3,3.4,3.4,5.2
						C231.9,91.6,235,89.4,238.1,87.3z"/>
					<path class="st9" d="M244.6,99.1c-1-2.1-2-4.1-3.1-6.1c-3.2,2-6.4,3.9-9.6,5.9c1,1.8,1.9,3.6,2.8,5.5
						C238,102.6,241.3,100.8,244.6,99.1z"/>
					<path class="st9" d="M249.8,111.4c-0.8-2.1-1.6-4.3-2.5-6.4c-3.4,1.6-6.8,3.1-10.2,4.7c0.8,1.9,1.5,3.8,2.2,5.7
						C242.8,114.2,246.3,112.8,249.8,111.4z"/>
					<path class="st9" d="M253.6,124.3c-0.5-2.2-1.2-4.4-1.8-6.6c-3.5,1.2-7.1,2.3-10.6,3.5c0.6,2,1.1,3.9,1.6,5.9
						C246.4,126.1,250,125.2,253.6,124.3z"/>
					<path class="st9" d="M256.2,137.4c-0.3-2.3-0.7-4.5-1.1-6.7c-3.6,0.7-7.3,1.5-10.9,2.2c0.4,2,0.7,4,1,6.1
						C248.8,138.4,252.5,137.9,256.2,137.4z"/>
					<path class="st9" d="M257.4,150.7c-0.1-2.3-0.2-4.5-0.4-6.8c-3.7,0.3-7.4,0.6-11.1,0.9c0.2,2,0.3,4.1,0.4,6.1
						C249.9,150.9,253.7,150.8,257.4,150.7z"/>
					<path class="st9" d="M257.2,164.1c0.1-2.3,0.2-4.6,0.3-6.8c-3.7-0.1-7.4-0.3-11.2-0.4c0,2.1-0.1,4.1-0.2,6.2
						C249.8,163.4,253.5,163.8,257.2,164.1z"/>
					<path class="st9" d="M255.6,177.5c0.4-2.3,0.7-4.5,1-6.8c-3.7-0.6-7.4-1.2-11.1-1.7c-0.2,2-0.5,4.1-0.9,6.1
						C248.3,175.9,252,176.7,255.6,177.5z"/>
					<path class="st9" d="M252.6,190.7c0.6-2.2,1.2-4.5,1.7-6.7c-3.6-1-7.2-2-10.9-3.1c-0.5,2-1,4-1.5,6
						C245.5,188.2,249.1,189.4,252.6,190.7z"/>
				</g>
				<path class="st5" d="M246.3,188.5c9.9-34.9,3.5-73.1-17.3-102.9c-1.2,1-2.4,1.9-3.6,2.9c19.9,28.5,26,65.1,16.6,98.5
					C243.4,187.5,244.9,188,246.3,188.5z"/>
			</g>
			<g>
				<g>
					<g>
						<path class="st58" d="M236.7,208.7l2.9-4.4c-2.7-1.8-3.9-5.1-2.8-8.2c1.3-3.7,5.3-5.6,8.9-4.4c3.7,1.3,5.6,5.3,4.4,8.9
							c-1,3-4,5-7.2,4.7l-0.4,5.3c5.6,0.5,10.8-2.9,12.7-8.3c2.2-6.4-1.3-13.4-7.7-15.6s-13.4,1.3-15.6,7.7
							C229.9,199.7,232,205.6,236.7,208.7z"/>
					</g>
					
						<rect x="241.6" y="205" transform="matrix(-0.9885 0.1511 -0.1511 -0.9885 515.4402 377.795)" class="st10" width="3.6" height="7"/>
				</g>
				
					<rect x="235.3" y="202.8" transform="matrix(0.69 0.7238 -0.7238 0.69 222.8721 -107.6568)" class="st10" width="3.6" height="7"/>
			</g>
		</g>
		<g>
			<g>
				<path class="st8" d="M98,190.7c-10.5-37-3.7-77.6,18.4-109.2c3,2.3,5.9,4.7,8.9,7c-19.9,28.5-26,65.1-16.6,98.5
					C105.1,188.2,101.5,189.4,98,190.7z"/>
				<g>
					<path class="st9" d="M112.6,87.3c1.2-2,2.5-3.9,3.8-5.8c3,2.3,5.9,4.7,8.9,7c-1.2,1.7-2.3,3.4-3.4,5.2
						C118.7,91.6,115.6,89.4,112.6,87.3z"/>
					<path class="st9" d="M106.1,99.1c1-2.1,2-4.1,3.1-6.1c3.2,2,6.4,3.9,9.6,5.9c-1,1.8-1.9,3.6-2.8,5.5
						C112.7,102.6,109.4,100.8,106.1,99.1z"/>
					<path class="st9" d="M100.9,111.4c0.8-2.1,1.6-4.3,2.5-6.4c3.4,1.6,6.8,3.1,10.2,4.7c-0.8,1.9-1.5,3.8-2.2,5.7
						C107.8,114.2,104.3,112.8,100.9,111.4z"/>
					<path class="st9" d="M97,124.3c0.5-2.2,1.2-4.4,1.8-6.6c3.5,1.2,7.1,2.3,10.6,3.5c-0.6,2-1.1,3.9-1.6,5.9
						C104.2,126.1,100.6,125.2,97,124.3z"/>
					<path class="st9" d="M94.4,137.4c0.3-2.3,0.7-4.5,1.1-6.7c3.6,0.7,7.3,1.5,10.9,2.2c-0.4,2-0.7,4-1,6.1
						C101.8,138.4,98.1,137.9,94.4,137.4z"/>
					<path class="st9" d="M93.2,150.7c0.1-2.3,0.2-4.5,0.4-6.8c3.7,0.3,7.4,0.6,11.1,0.9c-0.2,2-0.3,4.1-0.4,6.1
						C100.7,150.9,97,150.8,93.2,150.7z"/>
					<path class="st9" d="M93.4,164.1c-0.1-2.3-0.2-4.6-0.3-6.8c3.7-0.1,7.4-0.3,11.2-0.4c0,2.1,0.1,4.1,0.2,6.2
						C100.8,163.4,97.1,163.8,93.4,164.1z"/>
					<path class="st9" d="M95,177.5c-0.4-2.3-0.7-4.5-1-6.8c3.7-0.6,7.4-1.2,11.1-1.7c0.2,2,0.5,4.1,0.9,6.1
						C102.3,175.9,98.7,176.7,95,177.5z"/>
					<path class="st9" d="M98,190.7c-0.6-2.2-1.2-4.5-1.7-6.7c3.6-1,7.2-2,10.9-3.1c0.5,2,1,4,1.5,6
						C105.1,188.2,101.5,189.4,98,190.7z"/>
				</g>
				<path class="st5" d="M104.3,188.5c-9.9-34.9-3.5-73.1,17.3-102.9c1.2,1,2.4,1.9,3.6,2.9c-19.9,28.5-26,65.1-16.6,98.5
					C107.2,187.5,105.8,188,104.3,188.5z"/>
			</g>
			<g>
				<g>
					<g>
						<path class="st58" d="M113.9,208.7l-2.9-4.4c2.7-1.8,3.9-5.1,2.8-8.2c-1.3-3.7-5.3-5.6-8.9-4.4c-3.7,1.3-5.6,5.3-4.4,8.9
							c1,3,4,5,7.2,4.7l0.4,5.3c-5.6,0.5-10.8-2.9-12.7-8.3c-2.2-6.4,1.3-13.4,7.7-15.6c6.4-2.2,13.4,1.3,15.6,7.7
							C120.7,199.7,118.7,205.6,113.9,208.7z"/>
					</g>
					
						<rect x="105.4" y="205" transform="matrix(0.9885 0.1511 -0.1511 0.9885 32.7354 -13.8138)" class="st10" width="3.6" height="7"/>
				</g>
				
					<rect x="111.7" y="202.8" transform="matrix(-0.69 0.7238 -0.7238 -0.69 341.1925 266.5612)" class="st10" width="3.6" height="7"/>
			</g>
		</g>
		<g>
			<g>
				<path class="st11" d="M140.1,69.8c-4.2-4.9-11.2-6.8-17.6-5.4c-6.3,1.4-12,5.9-15.5,11.6c-3.6,5.7-5.2,12.5-5.2,19.2
					c2.8,1.3,5.1,2.3,7.9,3.6c4.2-6.3,13.2-9.9,20-7.4C136.5,86.3,140.3,78.5,140.1,69.8z"/>
				<path class="st5" d="M107.6,95.5c5.3-7.9,16.6-12.5,25.2-9.3c1.7-1.3,3.2-2.6,4.6-4.1c-1.8,3.6-4.4,6.8-7.8,9.3
					c-6.8-2.5-15.8,1.1-20,7.4c-2.8-1.3-5.1-2.3-7.9-3.6c0-0.8,0-1.6,0.1-2.3C103.7,93.7,105.6,94.6,107.6,95.5z"/>
			</g>
			<g>
				<path class="st11" d="M209.9,69.8c4.2-4.9,11.2-6.8,17.6-5.4c6.3,1.4,12,5.9,15.5,11.6c3.6,5.7,5.2,12.5,5.2,19.2
					c-2.8,1.3-5.1,2.3-7.9,3.6c-4.2-6.3-13.2-9.9-20-7.4C213.5,86.3,209.7,78.5,209.9,69.8z"/>
				<path class="st5" d="M242.4,95.5c-5.3-7.9-16.6-12.5-25.2-9.3c-1.7-1.3-3.2-2.6-4.6-4.1c1.8,3.6,4.4,6.8,7.8,9.3
					c6.8-2.5,15.8,1.1,20,7.4c2.8-1.3,5.1-2.3,7.9-3.6c0-0.8,0-1.6-0.1-2.3C246.3,93.7,244.4,94.6,242.4,95.5z"/>
			</g>
		</g>
	</g>
	<g>
		<g id="HandRobot2">
			<g>
				<g>
					<g>
						<path class="st8" d="M252.1,197.1c11.4-39.3,5.1-82-17.1-115.7c-3.3,2.4-6.5,4.9-9.8,7.3c20.1,30.5,25.8,69.1,15.5,104.6
							C244.5,194.6,248.3,195.9,252.1,197.1z"/>
						<g>
							<path class="st9" d="M238.8,87.6c-1.2-2.1-2.5-4.1-3.8-6.1c-3.3,2.4-6.5,4.9-9.8,7.3c1.2,1.8,2.4,3.7,3.5,5.6
								C232,92.1,235.4,89.9,238.8,87.6z"/>
							<path class="st9" d="M245.3,100.2c-1-2.2-2-4.3-3.1-6.5c-3.5,2-7,4.1-10.4,6.1c1,1.9,1.9,3.9,2.8,5.9
								C238.1,103.9,241.7,102,245.3,100.2z"/>
							<path class="st9" d="M250.4,113.3c-0.8-2.3-1.6-4.5-2.5-6.8c-3.7,1.6-7.3,3.3-11,4.9c0.8,2,1.5,4.1,2.2,6.1
								C242.9,116.1,246.7,114.7,250.4,113.3z"/>
							<path class="st9" d="M254.2,126.9c-0.5-2.3-1.1-4.7-1.8-7c-3.8,1.2-7.6,2.4-11.4,3.6c0.6,2.1,1.1,4.2,1.6,6.3
								C246.5,128.9,250.3,127.9,254.2,126.9z"/>
							<path class="st9" d="M256.6,140.8c-0.3-2.4-0.6-4.8-1.1-7.1c-3.9,0.8-7.8,1.5-11.7,2.3c0.4,2.1,0.7,4.3,1,6.4
								C248.7,141.9,252.7,141.3,256.6,140.8z"/>
							<path class="st9" d="M257.6,154.9c-0.1-2.4-0.2-4.8-0.3-7.2c-4,0.3-7.9,0.7-11.9,1c0.2,2.2,0.3,4.3,0.3,6.5
								C249.7,155.1,253.6,155,257.6,154.9z"/>
							<path class="st9" d="M257.2,169c0.2-2.4,0.3-4.8,0.4-7.2c-4-0.1-7.9-0.2-11.9-0.4c-0.1,2.2-0.2,4.4-0.3,6.5
								C249.3,168.3,253.2,168.7,257.2,169z"/>
							<path class="st9" d="M255.4,183.2c0.4-2.4,0.8-4.8,1.1-7.2c-3.9-0.6-7.9-1.2-11.8-1.7c-0.3,2.2-0.6,4.3-1,6.5
								C247.5,181.6,251.5,182.4,255.4,183.2z"/>
							<path class="st9" d="M252.1,197.1c0.7-2.4,1.3-4.7,1.9-7.1c-3.9-1-7.7-2-11.6-3.1c-0.5,2.1-1.1,4.3-1.7,6.4
								C244.5,194.6,248.3,195.9,252.1,197.1z"/>
						</g>
						<path class="st5" d="M245.3,194.9c10.8-37.1,4.8-77.4-16.1-109.1c-1.3,1-2.7,2-4,3c20.1,30.5,25.8,69.1,15.5,104.6
							C242.2,193.9,243.8,194.4,245.3,194.9z"/>
					</g>
				</g>
				<g>
					<path class="st52" d="M210.8,69.8c4.1-4.8,10.8-6.8,16.8-5.5c6,1.3,11.3,5.5,14.5,11c3.3,5.5,4.7,12.1,4.7,18.6
						c-2.7,1.3-4.8,2.3-7.5,3.6c-3.9-6.1-12.4-9.4-18.9-6.9C213.9,85.8,210.5,78.3,210.8,69.8z"/>
					<path class="st5" d="M241.2,94.3c-4.9-7.7-15.6-11.9-23.8-8.6c-1.6-1.2-3-2.5-4.3-4c1.6,3.5,4.1,6.5,7.3,9
						c6.5-2.6,14.9,0.8,18.9,6.9c2.7-1.3,4.8-2.3,7.5-3.6c0-0.8,0-1.5-0.1-2.3C244.9,92.5,243.2,93.4,241.2,94.3z"/>
				</g>
				<g>
					<path class="st52" d="M232.5,216l4.1-5c-2.8-2.7-3.6-7.1-1.8-10.7c2.1-4.3,7.1-6,11.2-3.7c4,2.3,5.6,7.6,3.5,11.9
						c-1.8,3.6-5.6,5.4-9.3,4.5l-1.5,6.5c6.5,1.7,13.2-1.6,16.3-7.8c3.7-7.5,1-16.9-6.1-20.8c-7.1-3.9-15.9-1-19.6,6.5
						C226.2,203.6,227.5,211.2,232.5,216z"/>
				</g>
			</g>
			<g>
				<g>
					<g>
						<path class="st8" d="M97.9,197.1c-11.4-39.3-5.1-82,17.1-115.7c3.3,2.4,6.5,4.9,9.8,7.3c-20.1,30.5-25.8,69.1-15.5,104.6
							C105.5,194.6,101.7,195.9,97.9,197.1z"/>
						<g>
							<path class="st9" d="M111.2,87.6c1.2-2.1,2.5-4.1,3.8-6.1c3.3,2.4,6.5,4.9,9.8,7.3c-1.2,1.8-2.4,3.7-3.5,5.6
								C118,92.1,114.6,89.9,111.2,87.6z"/>
							<path class="st9" d="M104.7,100.2c1-2.2,2-4.3,3.1-6.5c3.5,2,7,4.1,10.4,6.1c-1,1.9-1.9,3.9-2.8,5.9
								C111.9,103.9,108.3,102,104.7,100.2z"/>
							<path class="st9" d="M99.6,113.3c0.8-2.3,1.6-4.5,2.5-6.8c3.7,1.6,7.3,3.3,11,4.9c-0.8,2-1.5,4.1-2.2,6.1
								C107.1,116.1,103.3,114.7,99.6,113.3z"/>
							<path class="st9" d="M95.8,126.9c0.5-2.3,1.1-4.7,1.8-7c3.8,1.2,7.6,2.4,11.4,3.6c-0.6,2.1-1.1,4.2-1.6,6.3
								C103.5,128.9,99.7,127.9,95.8,126.9z"/>
							<path class="st9" d="M93.4,140.8c0.3-2.4,0.6-4.8,1.1-7.1c3.9,0.8,7.8,1.5,11.7,2.3c-0.4,2.1-0.7,4.3-1,6.4
								C101.3,141.9,97.3,141.3,93.4,140.8z"/>
							<path class="st9" d="M92.4,154.9c0.1-2.4,0.2-4.8,0.3-7.2c4,0.3,7.9,0.7,11.9,1c-0.2,2.2-0.3,4.3-0.3,6.5
								C100.3,155.1,96.4,155,92.4,154.9z"/>
							<path class="st9" d="M92.8,169c-0.2-2.4-0.3-4.8-0.4-7.2c4-0.1,7.9-0.2,11.9-0.4c0.1,2.2,0.2,4.4,0.3,6.5
								C100.7,168.3,96.8,168.7,92.8,169z"/>
							<path class="st9" d="M94.6,183.2c-0.4-2.4-0.8-4.8-1.1-7.2c3.9-0.6,7.9-1.2,11.8-1.7c0.3,2.2,0.6,4.3,1,6.5
								C102.5,181.6,98.5,182.4,94.6,183.2z"/>
							<path class="st9" d="M97.9,197.1c-0.7-2.4-1.3-4.7-1.9-7.1c3.9-1,7.7-2,11.6-3.1c0.5,2.1,1.1,4.3,1.7,6.4
								C105.5,194.6,101.7,195.9,97.9,197.1z"/>
						</g>
						<path class="st5" d="M104.7,194.9c-10.8-37.1-4.8-77.4,16.1-109.1c1.3,1,2.7,2,4,3c-20.1,30.5-25.8,69.1-15.5,104.6
							C107.8,193.9,106.2,194.4,104.7,194.9z"/>
					</g>
				</g>
				<g>
					<path class="st52" d="M139.2,69.8c-4.1-4.8-10.8-6.8-16.8-5.5c-6,1.3-11.3,5.5-14.5,11c-3.3,5.5-4.7,12.1-4.7,18.6
						c2.7,1.3,4.8,2.3,7.5,3.6c3.9-6.1,12.4-9.4,18.9-6.9C136.1,85.8,139.5,78.3,139.2,69.8z"/>
					<path class="st5" d="M108.8,94.3c4.9-7.7,15.6-11.9,23.8-8.6c1.6-1.2,3-2.5,4.3-4c-1.6,3.5-4.1,6.5-7.3,9
						c-6.5-2.6-14.9,0.8-18.9,6.9c-2.7-1.3-4.8-2.3-7.5-3.6c0-0.8,0-1.5,0.1-2.3C105.1,92.5,106.8,93.4,108.8,94.3z"/>
				</g>
				<g>
					<path class="st52" d="M117.5,216l-4.1-5c2.8-2.7,3.6-7.1,1.8-10.7c-2.1-4.3-7.1-6-11.2-3.7c-4,2.3-5.6,7.6-3.5,11.9
						c1.8,3.6,5.6,5.4,9.3,4.5l1.5,6.5c-6.5,1.7-13.2-1.6-16.3-7.8c-3.7-7.5-1-16.9,6.1-20.8c7.1-3.9,15.9-1,19.6,6.5
						C123.8,203.6,122.5,211.2,117.5,216z"/>
				</g>
			</g>
		</g>
	</g>
	<g id="HandRobot1">
		<g>
			<g>
				<path class="st8" d="M247.2,182.1c11.5-37.1,5.1-77.4-17.2-109.2c-3.3,2.3-6.5,4.6-9.8,6.9c20.2,28.8,25.9,65.2,15.5,98.8
					C239.6,179.7,243.4,180.9,247.2,182.1z"/>
				<g>
					<path class="st9" d="M233.9,78.7c-1.2-2-2.5-3.9-3.8-5.8c-3.3,2.3-6.5,4.6-9.8,6.9c1.2,1.7,2.4,3.5,3.5,5.3
						C227.1,82.9,230.5,80.8,233.9,78.7z"/>
					<path class="st9" d="M240.4,90.5c-1-2.1-2-4.1-3.2-6.1c-3.5,1.9-7,3.9-10.5,5.8c1,1.8,2,3.7,2.9,5.5
						C233.2,94,236.8,92.3,240.4,90.5z"/>
					<path class="st9" d="M245.5,102.9c-0.8-2.1-1.6-4.3-2.5-6.4c-3.7,1.5-7.4,3.1-11.1,4.6c0.8,1.9,1.5,3.8,2.2,5.8
						C238,105.6,241.8,104.3,245.5,102.9z"/>
					<path class="st9" d="M249.3,115.7c-0.5-2.2-1.1-4.4-1.8-6.6c-3.8,1.1-7.7,2.3-11.5,3.4c0.6,2,1.1,4,1.6,5.9
						C241.6,117.6,245.4,116.7,249.3,115.7z"/>
					<path class="st9" d="M251.7,128.9c-0.3-2.2-0.6-4.5-1.1-6.7c-3.9,0.7-7.9,1.5-11.8,2.2c0.4,2,0.7,4,1,6.1
						C243.8,129.9,247.8,129.4,251.7,128.9z"/>
					<path class="st9" d="M252.8,142.2c-0.1-2.3-0.2-4.5-0.3-6.8c-4,0.3-8,0.6-11.9,0.9c0.2,2,0.3,4.1,0.3,6.2
						C244.8,142.4,248.8,142.3,252.8,142.2z"/>
					<path class="st9" d="M252.4,155.6c0.2-2.3,0.3-4.6,0.4-6.8c-4-0.1-8-0.2-12-0.4c-0.1,2.1-0.2,4.1-0.4,6.2
						C244.4,154.9,248.4,155.2,252.4,155.6z"/>
					<path class="st9" d="M250.5,168.9c0.4-2.3,0.8-4.5,1.1-6.8c-4-0.5-7.9-1.1-11.9-1.6c-0.3,2.1-0.6,4.1-1,6.1
						C242.7,167.4,246.6,168.1,250.5,168.9z"/>
					<path class="st9" d="M247.2,182.1c0.7-2.2,1.3-4.5,1.9-6.7c-3.9-1-7.8-1.9-11.6-2.9c-0.5,2-1.1,4.1-1.7,6.1
						C239.6,179.7,243.4,180.9,247.2,182.1z"/>
				</g>
				<path class="st5" d="M240.4,180c10.8-35,4.8-73.1-16.2-103.1c-1.3,0.9-2.7,1.9-4,2.8c20.2,28.8,25.9,65.2,15.5,98.8
					C237.3,179,238.9,179.5,240.4,180z"/>
			</g>
			<path class="st59" d="M251.5,181.6l-12.4-2.6l-1.7-0.4l-6.3-1.3l-6.5,8.5c-4.4,5.7-5.8,13.2-3.9,20.1l3.5,12.8l5,1.1l1.3-6.1
				l-1.3-0.3l-1.7-6.2c-1.9-7-0.4-14.4,3.9-20.1l2.3-3l2.5,0.5l1.7,0.4l8.6,1.8l0.8,3.6c1.6,7-0.1,14.4-4.6,20l-4.1,5l-1.3-0.3
				l-1.3,6.1l5,1.1l8.4-10.3c4.5-5.6,6.3-13,4.6-20L251.5,181.6z"/>
			<path class="st39" d="M252.5,179.9c-1.3,6-7.1,9.8-13.1,8.5c-6-1.3-9.8-7.1-8.5-13.1c1.3-6,7.1-9.8,13.1-8.5
				S253.7,174,252.5,179.9z"/>
			<path class="st59" d="M246.9,178.7c-0.6,2.9-3.4,4.7-6.3,4.1c-2.9-0.6-4.7-3.4-4.1-6.3c0.6-2.9,3.4-4.7,6.3-4.1
				C245.7,173,247.5,175.9,246.9,178.7z"/>
		</g>
		<g>
			<path class="st60" d="M210.7,71.9c4.1-4.6,10.8-6.4,16.8-5.2c6,1.2,11.3,5.2,14.6,10.4c3.3,5.2,4.8,11.4,4.7,17.6
				c-2.7,1.2-4.9,2.2-7.5,3.4c-3.9-5.7-12.4-8.9-18.9-6.5C213.9,87,210.4,79.9,210.7,71.9z"/>
			<path class="st61" d="M241.3,95.1c-5-7.2-15.7-11.2-23.9-8.2c-1.6-1.1-3-2.4-4.3-3.7c1.6,3.3,4.1,6.2,7.3,8.5
				c6.5-2.4,15,0.7,18.9,6.5c2.7-1.2,4.9-2.2,7.5-3.4c0-0.7,0-1.4-0.1-2.1C245,93.4,243.2,94.2,241.3,95.1z"/>
		</g>
		<g>
			<g>
				<path class="st8" d="M102.8,182.1C91.3,145,97.7,104.7,120,72.9c3.3,2.3,6.5,4.6,9.8,6.9c-20.2,28.8-25.9,65.2-15.5,98.8
					C110.4,179.7,106.6,180.9,102.8,182.1z"/>
				<g>
					<path class="st9" d="M116.1,78.7c1.2-2,2.5-3.9,3.8-5.8c3.3,2.3,6.5,4.6,9.8,6.9c-1.2,1.7-2.4,3.5-3.5,5.3
						C122.9,82.9,119.5,80.8,116.1,78.7z"/>
					<path class="st9" d="M109.6,90.5c1-2.1,2-4.1,3.2-6.1c3.5,1.9,7,3.9,10.5,5.8c-1,1.8-2,3.7-2.9,5.5
						C116.8,94,113.2,92.3,109.6,90.5z"/>
					<path class="st9" d="M104.5,102.9c0.8-2.1,1.6-4.3,2.5-6.4c3.7,1.5,7.4,3.1,11.1,4.6c-0.8,1.9-1.5,3.8-2.2,5.8
						C112,105.6,108.2,104.3,104.5,102.9z"/>
					<path class="st9" d="M100.7,115.7c0.5-2.2,1.1-4.4,1.8-6.6c3.8,1.1,7.7,2.3,11.5,3.4c-0.6,2-1.1,4-1.6,5.9
						C108.4,117.6,104.6,116.7,100.7,115.7z"/>
					<path class="st9" d="M98.3,128.9c0.3-2.2,0.6-4.5,1.1-6.7c3.9,0.7,7.9,1.5,11.8,2.2c-0.4,2-0.7,4-1,6.1
						C106.2,129.9,102.2,129.4,98.3,128.9z"/>
					<path class="st9" d="M97.2,142.2c0.1-2.3,0.2-4.5,0.3-6.8c4,0.3,8,0.6,11.9,0.9c-0.2,2-0.3,4.1-0.3,6.2
						C105.2,142.4,101.2,142.3,97.2,142.2z"/>
					<path class="st9" d="M97.6,155.6c-0.2-2.3-0.3-4.6-0.4-6.8c4-0.1,8-0.2,12-0.4c0.1,2.1,0.2,4.1,0.4,6.2
						C105.6,154.9,101.6,155.2,97.6,155.6z"/>
					<path class="st9" d="M99.5,168.9c-0.4-2.3-0.8-4.5-1.1-6.8c4-0.5,7.9-1.1,11.9-1.6c0.3,2.1,0.6,4.1,1,6.1
						C107.3,167.4,103.4,168.1,99.5,168.9z"/>
					<path class="st9" d="M102.8,182.1c-0.7-2.2-1.3-4.5-1.9-6.7c3.9-1,7.8-1.9,11.6-2.9c0.5,2,1.1,4.1,1.7,6.1
						C110.4,179.7,106.6,180.9,102.8,182.1z"/>
				</g>
				<path class="st5" d="M109.6,180c-10.8-35-4.8-73.1,16.2-103.1c1.3,0.9,2.7,1.9,4,2.8c-20.2,28.8-25.9,65.2-15.5,98.8
					C112.7,179,111.1,179.5,109.6,180z"/>
			</g>
			<path class="st59" d="M98.5,181.6l12.4-2.6l1.7-0.4l6.3-1.3l6.5,8.5c4.4,5.7,5.8,13.2,3.9,20.1l-3.5,12.8l-5,1.1l-1.3-6.1
				l1.3-0.3l1.7-6.2c1.9-7,0.4-14.4-3.9-20.1l-2.3-3l-2.5,0.5l-1.7,0.4l-8.6,1.8l-0.8,3.6c-1.6,7,0.1,14.4,4.6,20l4.1,5l1.3-0.3
				l1.3,6.1l-5,1.1l-8.4-10.3c-4.5-5.6-6.3-13-4.6-20L98.5,181.6z"/>
			<path class="st39" d="M97.5,179.9c1.3,6,7.1,9.8,13.1,8.5c6-1.3,9.8-7.1,8.5-13.1c-1.3-6-7.1-9.8-13.1-8.5
				C100.1,168.1,96.3,174,97.5,179.9z"/>
			
				<ellipse transform="matrix(0.8034 -0.5954 0.5954 0.8034 -84.4694 99.4287)" class="st59" cx="108.3" cy="177.6" rx="5.3" ry="5.3"/>
		</g>
		<g>
			<path class="st60" d="M139.3,71.9c-4.1-4.6-10.8-6.4-16.8-5.2c-6,1.2-11.3,5.2-14.6,10.4c-3.3,5.2-4.8,11.4-4.7,17.6
				c2.7,1.2,4.9,2.2,7.5,3.4c3.9-5.7,12.4-8.9,18.9-6.5C136.1,87,139.6,79.9,139.3,71.9z"/>
			<path class="st61" d="M108.7,95.1c5-7.2,15.7-11.2,23.9-8.2c1.6-1.1,3-2.4,4.3-3.7c-1.6,3.3-4.1,6.2-7.3,8.5
				c-6.5-2.4-15,0.7-18.9,6.5c-2.7-1.2-4.9-2.2-7.5-3.4c0-0.7,0-1.4,0.1-2.1C105,93.4,106.8,94.2,108.7,95.1z"/>
		</g>
	</g>
</g>
<g id="Robot_-_4" class="st62">
	<g id="Robot_-_1" class="st63">
	</g>
	<g id="Robot_-_2" class="st63">
	</g>
	<g id="Robot_-_3" class="st63">
	</g>
</g>
</svg>
