<svg height="154" width="523" xmlns="http://www.w3.org/2000/svg" xmlns:xlink="http://www.w3.org/1999/xlink"><linearGradient id="a" x1=".258%" x2="94.647%" y1="49.75%" y2="49.75%"><stop offset="0" stop-color="#3023ae"/><stop offset=".47577" stop-color="#53a0fd"/><stop offset="1" stop-color="#5184ec"/></linearGradient><g fill="none" fill-rule="evenodd"><path d="m66 29h84v69h-84zm86 0h77v69h-77zm-152 0h64v69h-64zm231 0h69v69h-69zm71 0h69v69h-69zm71 0h79v69h-79zm81 0h69v69h-69z" fill="#0d0764" fill-rule="nonzero"/><g font-family="Muli" font-style="italic"><text fill="#fff" font-size="12" letter-spacing=".154" transform="translate(0 29)"><tspan x="75.524" y="22">Contributor</tspan> <tspan x="86.291" y="37">Express</tspan> <tspan x="86.46" y="52">Interest</tspan></text><text fill="#fff" font-size="12" letter-spacing=".154" transform="translate(0 29)"><tspan x="17.598" y="23">Fund</tspan> <tspan x="24.636" y="38">an</tspan> <tspan x="16.982" y="53">Issue</tspan></text><text fill="#fff" font-size="12" letter-spacing=".154" transform="translate(0 29)"><tspan x="244.888" y="38">BUIDL!</tspan></text><text fill="#fff" font-size="12" letter-spacing=".154" transform="translate(0 29)"><tspan x="321.719" y="30">Work</tspan> <tspan x="307.131" y="45">Submitted</tspan></text><text fill="#fff" font-size="12" letter-spacing=".154" transform="translate(0 29)"><tspan x="397.219" y="22">Work</tspan> <tspan x="384.551" y="37">Reviewed</tspan> <tspan x="391.583" y="52">/Revise</tspan></text><text fill="#fff" font-size="12" letter-spacing=".154" transform="translate(0 29)"><tspan x="477.954" y="29">Pay</tspan> <tspan x="468.052" y="44">Bounty</tspan></text><text fill="#fff" font-size="12" letter-spacing=".154" transform="translate(0 29)"><tspan x="168.745" y="29">Review</tspan> <tspan x="168.589" y="44">Worker</tspan></text><text fill="#4a4a4a" font-size="14" letter-spacing=".179" transform="translate(-721 -3129)"><tspan x="720" y="3140">Example Traditional Project Flow</tspan></text></g><g fill="#3e00ff" fill-rule="nonzero" stroke="#3e00ff"><path d="m193.5 153c-7.995 0-14.5-6.505-14.5-14.5s6.505-14.5 14.5-14.5 14.5 6.505 14.5 14.5-6.505 14.5-14.5 14.5zm0-28c-7.444 0-13.5 6.056-13.5 13.5s6.056 13.5 13.5 13.5 13.5-6.056 13.5-13.5-6.056-13.5-13.5-13.5z"/><path d="m201 147a.5.5 0 0 1 -.5-.5c0-4.136-3.14-7.5-7-7.5s-7 3.364-7 7.5a.5.5 0 0 1 -1 0c0-4.687 3.589-8.5 8-8.5s8 3.813 8 8.5a.5.5 0 0 1 -.5.5zm-7.5-11c-2.206 0-4-1.794-4-4s1.794-4 4-4 4 1.794 4 4-1.794 4-4 4zm0-7c-1.654 0-3 1.346-3 3s1.346 3 3 3 3-1.346 3-3-1.346-3-3-3z"/></g><g fill="#3e00ff" fill-rule="nonzero" stroke="#3e00ff"><path d="m495.5 153c-7.995 0-14.5-6.505-14.5-14.5s6.505-14.5 14.5-14.5 14.5 6.505 14.5 14.5-6.505 14.5-14.5 14.5zm0-28c-7.444 0-13.5 6.056-13.5 13.5s6.056 13.5 13.5 13.5 13.5-6.056 13.5-13.5-6.056-13.5-13.5-13.5z"/><path d="m503 147a.5.5 0 0 1 -.5-.5c0-4.136-3.14-7.5-7-7.5s-7 3.364-7 7.5a.5.5 0 0 1 -1 0c0-4.687 3.589-8.5 8-8.5s8 3.813 8 8.5a.5.5 0 0 1 -.5.5zm-7.5-11c-2.206 0-4-1.794-4-4s1.794-4 4-4 4 1.794 4 4-1.794 4-4 4zm0-7c-1.654 0-3 1.346-3 3s1.346 3 3 3 3-1.346 3-3-1.346-3-3-3z"/></g><path d="m1244 3241.201-14-7v14zm-521.5 1h509.5v-2h-510.5v2z" fill="url(#a)" fill-rule="nonzero" transform="translate(-721 -3129)"/></g></svg>