<svg xmlns="http://www.w3.org/2000/svg" width="110.86" height="128"><path fill="#A952C6" d="M9.416 37.44L55.42 10.88l46.003 26.561v53.12L55.42 117.12 9.416 90.561z"/><path fill="#6E14E2" d="M0 32L55.43 0l55.431 32v64L55.43 128 0 96V32zm9.416 58.561l46.004 26.56 46.003-26.56v-53.12L55.42 10.88 9.416 37.44v53.121z"/><path opacity=".13" fill="#FFF" d="M9.416 37.44L55.42 10.88l46.003 26.561v53.12L55.42 117.12 9.416 90.561V37.44zm2.549 51.649l43.455 25.089 43.454-25.089V38.912L55.42 13.822 11.965 38.911v50.178z"/><g fill="none" stroke-linecap="square" stroke-linejoin="round" stroke-miterlimit="10"><path stroke="#3E00FF" d="M42.986 78.72s-1.105 3.747-2.284 6.065c-1.618 3.188-4.478 6.828-4.478 6.828"/><path stroke="#15003E" d="M41.482 79.189s-4.375 2.758-5.004 6.384c-.748 4.326-5.168 6.556-5.168 6.556"/><path stroke="#EFF4EE" d="M40.238 76.532s-2.705 4.42-5.936 6.87c-3.23 2.448-2.835 4.049-2.835 4.049"/></g><path fill="none" stroke="#15003E" stroke-width="5" stroke-linejoin="round" stroke-miterlimit="10" d="M39.219 75.606l20.453-23.754 5.209 3.918-20.295 24.013z"/><path fill="#FFE67B" d="M43.012 78.332l-2.065-1.718 18.055-21.612 2.061 1.726z"/><path fill="#FFE67B" d="M40.232 68.92l11.37-13.537 10.537 8.85L50.768 77.77z"/><path fill="#15003E" d="M51.375 79.343a1.54 1.54 0 0 1-.462.107c-.444.042-.887-.1-1.229-.385l-10.537-8.853a1.684 1.684 0 0 1-.206-2.372l11.371-13.539a1.685 1.685 0 0 1 2.374-.206l10.536 8.851c.712.6.805 1.661.207 2.373L52.057 78.856c-.184.222-.42.385-.682.487zm-8.772-10.626l7.959 6.687 9.205-10.96-7.958-6.686-9.206 10.959z"/><circle fill="#15003E" cx="51.546" cy="65.801" r="2.368"/><path fill="#15003E" d="M50.309 64.816l2.579 2.168-6.307 7.502-2.579-2.168z"/><g><path fill="#FFE67B" d="M72.408 56.303c-2.815 3.684-6.658 1.896-10.716-1.206-4.059-3.101-6.796-6.34-3.981-10.024 2.816-3.684 8.389-4.156 12.447-1.055 4.057 3.101 5.065 8.6 2.25 12.285z"/><path fill="#15003E" d="M70.79 59.651c-3.479 1.347-7.235-1.011-10.12-3.216-2.376-1.815-8.687-6.637-4.297-12.384a9.496 9.496 0 0 1 4.119-3.079c3.46-1.341 7.557-.687 10.688 1.707 4.787 3.661 5.939 10.229 2.565 14.645-.849 1.113-1.845 1.896-2.955 2.327zm-9.082-15.538a6.127 6.127 0 0 0-2.659 1.983c-1.187 1.554-1.881 3.425 3.664 7.664 3.205 2.448 5.385 3.322 6.859 2.75.533-.207 1.023-.609 1.498-1.231 2.246-2.939 1.378-7.391-1.935-9.923-2.205-1.687-5.052-2.163-7.427-1.243z"/><circle fill="#FFE67B" cx="59.709" cy="37.6" r="4.481"/><path fill="#15003E" d="M61.941 43.348a6.134 6.134 0 0 1-5.977-.848 6.134 6.134 0 0 1-2.367-4.083 6.125 6.125 0 0 1 1.214-4.561 6.138 6.138 0 0 1 2.667-2.004 6.126 6.126 0 0 1 5.974.849 6.12 6.12 0 0 1 2.368 4.083 6.125 6.125 0 0 1-1.213 4.56 6.148 6.148 0 0 1-2.666 2.004zm-3.246-8.355a2.792 2.792 0 0 0-1.209.909 2.788 2.788 0 0 0-.55 2.07c.099.741.48 1.398 1.074 1.852a2.782 2.782 0 0 0 2.714.385 2.789 2.789 0 0 0 1.206-.908c.455-.595.65-1.331.552-2.07a2.782 2.782 0 0 0-1.073-1.853 2.78 2.78 0 0 0-2.714-.385z"/><circle fill="#FFE67B" cx="69.159" cy="38.219" r="4.481"/><path fill="#15003E" d="M71.391 43.968a6.133 6.133 0 0 1-5.976-.849 6.123 6.123 0 0 1-2.367-4.082 6.12 6.12 0 0 1 1.214-4.562 6.143 6.143 0 0 1 2.665-2.004 6.132 6.132 0 0 1 5.977.848 6.134 6.134 0 0 1 2.367 4.083 6.12 6.12 0 0 1-1.214 4.561 6.16 6.16 0 0 1-2.666 2.005zm-3.248-8.356a2.766 2.766 0 0 0-1.205.908 2.785 2.785 0 0 0-.553 2.071c.1.74.481 1.398 1.075 1.852.78.597 1.795.74 2.713.385a2.791 2.791 0 0 0 1.209-.908c.454-.595.649-1.33.551-2.07a2.776 2.776 0 0 0-1.075-1.852 2.781 2.781 0 0 0-2.715-.386z"/><g><circle fill="#FFE67B" cx="78.573" cy="52.541" r="4.482"/><path fill="#15003E" d="M80.804 58.288a6.13 6.13 0 0 1-5.975-.846 6.123 6.123 0 0 1-2.367-4.084 6.13 6.13 0 0 1 1.212-4.56 6.156 6.156 0 0 1 2.668-2.005 6.131 6.131 0 0 1 5.975.85 6.13 6.13 0 0 1 2.367 4.081 6.161 6.161 0 0 1-3.88 6.564zm-3.246-8.355a2.77 2.77 0 0 0-1.207.909 2.788 2.788 0 0 0-.552 2.071c.1.741.481 1.398 1.074 1.852.781.597 1.796.74 2.715.384.478-.185.895-.5 1.208-.91.453-.592.648-1.328.55-2.069s-.479-1.399-1.073-1.852a2.784 2.784 0 0 0-2.715-.385z"/></g><g><circle fill="#FFE67B" cx="76.281" cy="43.662" r="4.482"/><path fill="#15003E" d="M78.513 49.41a6.125 6.125 0 0 1-5.975-.85 6.127 6.127 0 0 1-2.368-4.081 6.12 6.12 0 0 1 1.212-4.56 6.144 6.144 0 0 1 2.667-2.005 6.13 6.13 0 0 1 5.976.848 6.173 6.173 0 0 1 1.156 8.643 6.158 6.158 0 0 1-2.668 2.005zm-3.247-8.356a2.8 2.8 0 0 0 2.03 5.216 2.802 2.802 0 0 0 .685-4.831 2.786 2.786 0 0 0-2.715-.385z"/></g></g></svg>