<svg xmlns="http://www.w3.org/2000/svg" width="215.05" height="215"><path fill="#25E798" d="M114.087 79.466c7.874 0 24.376 9.937 24.376 28.002 0 12.848-3.883 17.724-10.538 24.454l10.724 36.338c22.493-8.785 35.831-36.596 35.831-62.202 0-33.354-27.039-58.705-60.393-58.705v32.113z"/><path fill="none" stroke="#15003E" stroke-width="6" stroke-linecap="round" stroke-linejoin="round" stroke-miterlimit="10" d="M107.525 42.277c-37.279 0-67.5 30.222-67.5 67.5 0 28.619 17.819 53.061 42.961 62.88l11.984-40.614c-7.763-4.388-13.008-12.713-13.008-22.266 0-14.118 11.443-25.563 25.563-25.563 14.117 0 25.563 11.444 25.563 25.563 0 9.553-5.245 17.878-13.01 22.266l11.986 40.614c25.142-9.819 42.961-34.261 42.961-62.88 0-37.278-30.22-67.5-67.5-67.5z"/></svg>