<svg fill="none" height="60" width="60" xmlns="http://www.w3.org/2000/svg" xmlns:xlink="http://www.w3.org/1999/xlink"><linearGradient id="a" gradientUnits="userSpaceOnUse" x1="10.93" x2="39.388" y1="7.98" y2="40.453"><stop offset="0" stop-color="#a5edfa"/><stop offset="1" stop-color="#4fadff"/></linearGradient><path d="m0 0h60v60h-60z"/><g clip-rule="evenodd" fill-rule="evenodd"><path d="m14.69 54.733-1.24.267-1.162-1.628h-.026c-.565 0-1.052-.109-1.461-.327a2.81 2.81 0 0 1 -1.018-.927c-.27-.4-.468-.88-.594-1.442a8.469 8.469 0 0 1 -.189-1.854c0-.658.067-1.261.202-1.808a4.334 4.334 0 0 1 .607-1.415 2.871 2.871 0 0 1 1.024-.927c.414-.223.899-.334 1.455-.334.557 0 1.04.111 1.449.334.406.22.755.536 1.018.92.27.392.472.86.606 1.408.135.547.203 1.146.203 1.795 0 .978-.12 1.804-.36 2.475-.239.672-.619 1.195-1.141 1.568l-.992.12zm-2.402-2.175c.349 0 .655-.064.92-.193.265-.13.487-.339.666-.628.178-.289.313-.665.404-1.127.091-.463.137-1.028.137-1.695v-.373c0-1.184-.178-2.029-.534-2.536-.357-.507-.892-.76-1.606-.76-.713 0-1.246.262-1.598.787s-.529 1.379-.529 2.562v.36c0 .667.046 1.23.137 1.688.092.459.229.83.411 1.114.183.285.407.49.673.614.264.125.571.187.92.187zm8.56-6.338h1.005v6.965h-.574l-.404-.827-.575.694a2.967 2.967 0 0 1 -1.305.28c-.539 0-.976-.171-1.311-.514-.335-.342-.502-.905-.502-1.688v-4.91h1.005v5.07c0 .472.098.797.293.975.196.177.45.266.764.266.356 0 .654-.05.893-.153.255-.112.495-.258.712-.434v-5.724zm5.311 7.152c-.817 0-1.47-.311-1.957-.934s-.73-1.526-.73-2.709c0-.596.064-1.12.195-1.575.13-.453.313-.833.548-1.14.223-.298.514-.536.848-.694.33-.156.696-.234 1.096-.234s.764.078 1.09.234c.33.159.619.394.842.687.235.303.415.678.541 1.128.126.449.19.967.19 1.554 0 1.201-.24 2.115-.718 2.743-.479.627-1.127.94-1.945.94zm0-.8c.244 0 .466-.05.666-.147.2-.098.37-.254.509-.467.14-.214.248-.494.326-.841a5.92 5.92 0 0 0 .118-1.281v-.187c0-.534-.037-.976-.111-1.328-.074-.351-.179-.631-.314-.84a1.11 1.11 0 0 0 -.502-.44c-.2-.085-.43-.127-.692-.127-.26 0-.491.042-.691.126-.2.085-.37.23-.51.434-.138.205-.245.478-.318.82-.075.343-.111.773-.111 1.288v.2c0 .517.038.953.117 1.308.078.356.187.643.326.861.14.218.311.376.515.474.205.097.429.147.672.147zm5.938-6.245a3.35 3.35 0 0 1 .47-.174c.161-.045.328-.067.495-.067.21 0 .387.02.535.06s.262.083.34.127l-.196.948a2.513 2.513 0 0 0 -.404-.127 2.514 2.514 0 0 0 -.536-.047 1.58 1.58 0 0 0 -.73.16 4.11 4.11 0 0 0 -.627.4v5.578h-1.004v-6.965h.575l.404.907.679-.8zm6.746-.107h1.005v6.965h-.574l-.405-.827-.574.694a2.968 2.968 0 0 1 -1.305.28c-.54 0-.976-.171-1.311-.514-.335-.342-.503-.905-.503-1.688v-4.91h1.005v5.07c0 .472.098.797.294.975.196.177.45.266.763.266.357 0 .655-.05.894-.153.255-.112.494-.258.71-.434v-5.724zm8.143.173c.13-.07.3-.14.509-.207.208-.066.448-.1.717-.1.557 0 .994.17 1.312.507.317.339.476.899.476 1.682v4.91h-1.005v-5.07c0-.454-.089-.765-.267-.934-.179-.17-.433-.254-.764-.254-.322 0-.593.056-.815.167a4.928 4.928 0 0 0 -.698.434v5.657h-1.005v-5.07c0-.454-.096-.765-.287-.934-.191-.17-.44-.254-.744-.254a2 2 0 0 0 -.816.154c-.23.102-.467.242-.71.42v5.684h-1.006v-6.965h.575l.391.854.587-.681c.167-.082.339-.151.516-.207.204-.066.446-.1.724-.1.252 0 .472.027.66.08.186.054.362.13.527.227l.47.734z" fill="#fff"/><path d="m49.274 25.018v14.54a.74.74 0 0 1 -.212.52.721.721 0 0 1 -.513.216h-20.235a.721.721 0 0 1 -.514-.215.74.74 0 0 1 -.212-.52v-30.345h-14.458v10.536h10.634a.72.72 0 0 1 .513.215.74.74 0 0 1 .212.52v2.744a.74.74 0 0 1 -.212.52.72.72 0 0 1 -.513.215h-14.039a.72.72 0 0 1 -.512-.215.74.74 0 0 1 -.213-.52v-17.494a.74.74 0 0 1 .213-.52.72.72 0 0 1 .513-.215h21.267c.193 0 .377.077.513.215a.74.74 0 0 1 .213.52v30.345h13.425v-10.535h-10.634a.72.72 0 0 1 -.513-.216.74.74 0 0 1 -.213-.52v-2.744a.74.74 0 0 1 .213-.52.72.72 0 0 1 .513-.215h14.039c.192 0 .377.078.513.216a.74.74 0 0 1 .212.52z" fill="url(#a)"/></g></svg>