<svg width="59" height="61" xmlns="http://www.w3.org/2000/svg"><g fill="none"><path fill="#0D0764" opacity=".5" d="M3.592 14.368h30.531V26H3.592zm2.694 17h26.041v2.684H6.286zm0 8.053h26.041v2.684H6.286zm0 8.947h26.041v2.684H6.286z"/><path stroke="#0D0764" stroke-width="2" d="M36.647 11.7v47.39H1.067V11.7z"/><path fill="#FFF" d="M31.429 9H44v9.842H31.429z"/><g fill="#0D0764"><path d="M56.65 19h-24.3c-.744 0-1.35-.606-1.35-1.35V2.35c0-.744.606-1.35 1.35-1.35h24.3c.744 0 1.35.606 1.35 1.35v15.3c0 .744-.606 1.35-1.35 1.35zM32.35 1.9a.45.45 0 0 0-.45.45v15.3c0 .248.202.45.45.45h24.3a.45.45 0 0 0 .45-.45V2.35a.45.45 0 0 0-.45-.45h-24.3z" stroke="#0D0764"/><path d="M44.05 10.9a2.666 2.666 0 0 1-1.62-.556l-.179-.13L31.18 1.817a.46.46 0 0 1-.092-.636.442.442 0 0 1 .623-.093L42.955 9.61c.658.5 1.527.503 2.17.008l.198-.144L56.389 1.09a.44.44 0 0 1 .623.093.46.46 0 0 1-.092.636l-11.269 8.532a2.613 2.613 0 0 1-1.6.549z"/><path d="M31.436 18.1a.44.44 0 0 1-.26-.79l10.827-8.123a.434.434 0 0 1 .61.09.44.44 0 0 1-.089.613l-10.827 8.123a.433.433 0 0 1-.26.087zm26.127 0a.43.43 0 0 1-.26-.087L46.476 9.89a.44.44 0 0 1-.088-.614.434.434 0 0 1 .61-.089l10.828 8.123a.44.44 0 0 1-.262.79z"/></g></g></svg>