<svg width="26" height="24" xmlns="http://www.w3.org/2000/svg"><g fill="#3E00FF"><path d="M25.62 16.959l-1.306-.193a4.344 4.344 0 0 0-.444-.783l.496-1.27a.45.45 0 0 0-.194-.556l-1.838-1.093a.442.442 0 0 0-.581.111l-.814 1.07a3.479 3.479 0 0 0-.878 0l-.814-1.07a.445.445 0 0 0-.58-.112l-1.835 1.091a.465.465 0 0 0-.198.56l.495 1.267a4.24 4.24 0 0 0-.443.785l-1.303.192a.45.45 0 0 0-.383.45v2.186c0 .229.165.422.38.45l1.306.192c.114.263.26.52.444.783l-.497 1.27a.45.45 0 0 0 .195.556l1.844 1.096a.46.46 0 0 0 .224.059.44.44 0 0 0 .351-.173l.814-1.07c.254.029.623.029.877 0l.815 1.07a.447.447 0 0 0 .579.112l.532-.316a.183.183 0 0 0-.187-.315l-.528.313c-.038.022-.081.014-.105-.016l-.877-1.153a.184.184 0 0 0-.17-.071 4.518 4.518 0 0 1-.995 0 .185.185 0 0 0-.169.07l-.877 1.153a.08.08 0 0 1-.1.02l-1.844-1.096a.086.086 0 0 1-.036-.106l.531-1.362a.183.183 0 0 0-.022-.174 4.043 4.043 0 0 1-.5-.884.183.183 0 0 0-.143-.114l-1.412-.208c-.035-.004-.063-.042-.063-.086v-2.186c0-.044.028-.082.066-.087l1.409-.207a.183.183 0 0 0 .143-.114 3.82 3.82 0 0 1 .498-.881.184.184 0 0 0 .024-.177l-.53-1.355c-.013-.038-.003-.092.038-.115l1.836-1.091c.038-.022.08-.014.105.017l.877 1.153c.04.052.103.077.17.07.387-.05.607-.05.995 0a.183.183 0 0 0 .169-.07l.877-1.153a.075.075 0 0 1 .1-.02l1.844 1.096c.036.02.051.066.036.107l-.532 1.36a.183.183 0 0 0 .023.176c.218.298.38.587.499.883.024.06.079.104.143.114l1.413.208c.035.004.063.042.063.086v2.186c0 .044-.028.082-.066.087l-.904.133a.183.183 0 0 0-.154.208.18.18 0 0 0 .208.154l.9-.132a.448.448 0 0 0 .383-.45v-2.186a.448.448 0 0 0-.38-.45zm-2.435 2.59c-.283-.282-.433-.612-.486-1.07l-.007-.06c-.045-.405-.102-.907-.618-1.416-.466-.46-1.026-.707-1.556-.703a2.22 2.22 0 0 0-1.376.504.184.184 0 0 0 .021.3l1.425.856a1.292 1.292 0 0 1-.715 1.06l-.006.004-1.276-.765a.202.202 0 0 0-.19 0 .184.184 0 0 0-.097.151 2.228 2.228 0 0 0 .608 1.676 2.256 2.256 0 0 0 1.634.705c.172 0 .345-.024.537-.074l2.944 2.944c.219.218.509.339.817.339h.001a1.156 1.156 0 0 0 .817-1.973l-2.477-2.477zm1.66 4.084a.795.795 0 0 1-.558-.231l-3.02-3.02a.184.184 0 0 0-.183-.046c-.2.06-.372.089-.538.089-.523 0-1.008-.21-1.367-.59a1.86 1.86 0 0 1-.502-1.097l1.087.652c.054.033.12.035.177.007l.096-.048c.569-.285.922-.856.922-1.491a.184.184 0 0 0-.09-.157l-1.276-.766a1.83 1.83 0 0 1 .93-.268c.44-.013.898.206 1.294.597.424.418.468.813.51 1.195l.008.062c.062.545.245.943.59 1.288l2.477 2.477a.789.789 0 0 1-.557 1.347z"/><path d="M.5 24a.498.498 0 0 1-.5-.5c0-3.123 1.066-4.907 3.258-5.455l3.83-.958.348-1.393a6.938 6.938 0 0 1-1.839-3.722 1.505 1.505 0 0 1-1.203-1.287l-.25-2A1.504 1.504 0 0 1 5.181 7.07C5.109 6.46 5 5.449 5 5c0-1.93.58-3.909 4.84-3.998C11.332 0 12.935 0 13.63 0c1.764 0 3.038.581 3.788 1.726.976 1.49.509 2.517-.054 3.116l-.374.375-.092 1.883a1.496 1.496 0 0 1 .957 1.586l-.25 2a1.503 1.503 0 0 1-1.089 1.26l-.016.1a.5.5 0 0 1-.986-.162c.023-.141.044-.282.056-.423a.5.5 0 0 1 .498-.461c.3 0 .514-.188.545-.438l.25-2a.486.486 0 0 0-.119-.388.492.492 0 0 0-.372-.171.503.503 0 0 1-.494-.524L16 4.976a.499.499 0 0 1 .146-.329l.5-.5c.313-.333.599-.858-.065-1.873C16.028 1.429 15.036 1 13.63 1c-1.025 0-2.223.108-3.339.907a.505.505 0 0 1-.286.093C6.306 2.037 6 3.44 6 5c0 .489.168 1.925.232 2.438A.5.5 0 0 1 5.736 8h-.103a.493.493 0 0 0-.375.169.494.494 0 0 0-.121.393l.25 2a.5.5 0 0 0 .496.438h.163a.5.5 0 0 1 .499.46 5.863 5.863 0 0 0 1.788 3.714c.132.124.188.31.143.486l-.49 1.961a.505.505 0 0 1-.365.364L3.5 19.015c-1.594.399-2.393 1.67-2.49 3.985l12.594-.001a.5.5 0 0 1 0 1L.5 24z"/></g></svg>