<svg width="86" height="38" xmlns="http://www.w3.org/2000/svg"><g fill="none" fill-rule="evenodd"><text font-family=".AppleSystemUIFont" font-size="12" letter-spacing=".154" fill="#3E00FF" transform="translate(-185 -5307)"><tspan x="223" y="5324">System </tspan> <tspan x="223" y="5339">Approve</tspan></text><g stroke="#3E00FF" stroke-width="2"><path d="M20.243 12.678C24.212 14.282 27 18.068 27 22.484c0 5.867-4.925 10.624-11 10.624S5 28.351 5 22.484c0-4.418 2.791-8.206 6.763-9.808M15.2 3.919H12V1h8v2.919h-3.2"/><path d="M14.333 5.865v1.734C6.834 8.415 1 14.661 1 22.252 1 30.397 7.716 37 16 37c8.284 0 15-6.603 15-14.748 0-7.59-5.834-13.837-13.333-14.653V5.865M30 9.757l-3-2.92m-2 4.866l2-2.92M3 9.757l3-2.92m1 4.866l-3-2.92"/></g><text font-family=".AppleSystemUIFont" font-size="14" letter-spacing="-1.385" fill="#3E00FF" transform="translate(-185 -5307)"><tspan x="194" y="5334">72</tspan></text></g></svg>