<svg id="Layer_2" data-name="Layer 2" xmlns="http://www.w3.org/2000/svg" viewBox="0 0 562.04 940.49"><defs><style>.cls-1,.cls-7{fill:#ffd107;}.cls-2,.cls-4{fill:none;}.cls-2,.cls-3,.cls-5,.cls-6,.cls-7{stroke:#180041;}.cls-2,.cls-3,.cls-4,.cls-5,.cls-6,.cls-7,.cls-9{stroke-linecap:round;stroke-linejoin:round;stroke-width:2.41px;}.cls-10,.cls-3{fill:#180041;}.cls-4,.cls-9{stroke:#fff;}.cls-5{fill:#fff;}.cls-6,.cls-8,.cls-9{fill:#00ed92;}</style></defs><title>falcon_1</title><circle class="cls-1" cx="413.93" cy="83.55" r="24.4"/><line class="cls-2" x1="209.82" y1="545.83" x2="209.82" y2="764.7"/><path class="cls-3" d="M228.27,834.69s1.9-1.12,2.76-8.87,6.81-60.74,6.81-60.74.17-13.19,2.76-13.19,5.17,10.52,5.25,12.5S248,847.1,248,847.1l-2.24,1.38v5.08l-1.28,1.28H211.36l-1.28-1.28v-5.08l-2.24-1.38s2.07-80.73,2.15-82.71,2.68-12.5,5.26-12.5S218,765.08,218,765.08s5.94,53,6.8,60.74,2.76,8.87,2.76,8.87Z"/><path class="cls-4" d="M248.13,857.5s-2-26.4-6.85-26.4a8.71,8.71,0,0,0-7,3s-2,7.12-2.65,11.49a3.74,3.74,0,0,1-7.42,0,117.2,117.2,0,0,0-2.64-11.49,8.72,8.72,0,0,0-7-3c-4.82,0-7.24,25.59-7.24,25.59"/><path class="cls-2" d="M223.44,865.88l-.1-3.82a8.15,8.15,0,0,0-4.34-7.12h-.24a8.15,8.15,0,0,0-4.34,7.12l-.1,3.82Z"/><line class="cls-2" x1="214.27" y1="862.03" x2="223.17" y2="862.03"/><path class="cls-2" d="M232.47,865.88l-.11-3.82a8.15,8.15,0,0,0-4.33-7.12h-.25a8.15,8.15,0,0,0-4.33,7.12l-.11,3.82Z"/><line class="cls-2" x1="223.29" y1="862.03" x2="232.2" y2="862.03"/><path class="cls-2" d="M241.51,865.88l-.1-3.82a8.15,8.15,0,0,0-4.34-7.12h-.24a8.15,8.15,0,0,0-4.34,7.12l-.1,3.82Z"/><line class="cls-2" x1="232.34" y1="862.03" x2="241.24" y2="862.03"/><polygon class="cls-2" points="213.36 518.89 210.95 523.72 210.95 527.48 208 530.43 208 545.32 219.4 545.32 219.4 530.46 216.78 527.68 216.78 523.99 218.53 518.96 213.36 518.89"/><line class="cls-2" x1="211.33" y1="526.23" x2="216.37" y2="526.58"/><line class="cls-2" x1="208.42" y1="540.73" x2="212.75" y2="545.06"/><line class="cls-2" x1="208.42" y1="535.09" x2="217.92" y2="544.59"/><line class="cls-2" x1="209.41" y1="530.43" x2="218.91" y2="539.93"/><line class="cls-2" x1="211.61" y1="526.99" x2="218.78" y2="534.16"/><line class="cls-2" x1="218.91" y1="540.73" x2="214.58" y2="545.06"/><line class="cls-2" x1="218.91" y1="535.09" x2="209.41" y2="544.59"/><line class="cls-2" x1="217.92" y1="530.43" x2="208.42" y2="539.93"/><line class="cls-2" x1="215.72" y1="526.99" x2="208.55" y2="534.16"/><line class="cls-2" x1="245.13" y1="545.83" x2="245.13" y2="760.22"/><path class="cls-2" d="M245.13,527.83v-9.57s1-9.47-6.29-22.66-11.37-11.93-11.37-11.93h0s-4.13-1.25-11.37,11.93-6.29,22.66-6.29,22.66v9.57"/><polygon class="cls-2" points="241.59 518.89 244.01 523.72 244.01 527.48 246.96 530.43 246.96 545.32 235.56 545.32 235.56 530.46 238.17 527.68 238.17 523.99 236.43 518.96 241.59 518.89"/><line class="cls-2" x1="243.63" y1="526.23" x2="238.59" y2="526.58"/><line class="cls-2" x1="246.53" y1="540.73" x2="242.2" y2="545.06"/><line class="cls-2" x1="246.53" y1="535.09" x2="237.03" y2="544.59"/><line class="cls-2" x1="245.54" y1="530.43" x2="236.04" y2="539.93"/><line class="cls-2" x1="243.35" y1="526.99" x2="236.17" y2="534.16"/><line class="cls-2" x1="236.04" y1="540.73" x2="240.37" y2="545.06"/><line class="cls-2" x1="236.04" y1="535.09" x2="245.54" y2="544.59"/><line class="cls-2" x1="237.03" y1="530.43" x2="246.53" y2="539.93"/><line class="cls-2" x1="239.23" y1="526.99" x2="246.4" y2="534.16"/><line class="cls-2" x1="303.03" y1="545.83" x2="303.03" y2="764.7"/><polygon class="cls-2" points="306.58 518.89 304.16 523.72 304.16 527.48 301.21 530.43 301.21 545.32 312.61 545.32 312.61 530.46 310 527.68 310 523.99 311.74 518.96 306.58 518.89"/><line class="cls-2" x1="304.54" y1="526.23" x2="309.58" y2="526.58"/><line class="cls-2" x1="301.63" y1="540.73" x2="305.96" y2="545.06"/><line class="cls-2" x1="301.63" y1="535.09" x2="311.13" y2="544.59"/><line class="cls-2" x1="302.62" y1="530.43" x2="312.12" y2="539.93"/><line class="cls-2" x1="304.82" y1="526.99" x2="311.99" y2="534.16"/><line class="cls-2" x1="312.12" y1="540.73" x2="307.79" y2="545.06"/><line class="cls-2" x1="312.12" y1="535.09" x2="302.62" y2="544.59"/><line class="cls-2" x1="311.13" y1="530.43" x2="301.63" y2="539.93"/><line class="cls-2" x1="308.94" y1="526.99" x2="301.76" y2="534.16"/><line class="cls-2" x1="338.35" y1="545.83" x2="338.35" y2="760.22"/><path class="cls-2" d="M338.35,527.83v-9.57s.94-9.47-6.29-22.66-11.38-11.93-11.38-11.93h0s-4.14-1.25-11.38,11.93S303,518.26,303,518.26v9.57"/><polygon class="cls-2" points="334.8 518.89 337.22 523.72 337.22 527.48 340.17 530.43 340.17 545.32 328.77 545.32 328.77 530.46 331.38 527.68 331.38 523.99 329.64 518.96 334.8 518.89"/><line class="cls-2" x1="336.84" y1="526.23" x2="331.8" y2="526.58"/><line class="cls-2" x1="339.75" y1="540.73" x2="335.42" y2="545.06"/><line class="cls-2" x1="339.75" y1="535.09" x2="330.25" y2="544.59"/><line class="cls-2" x1="338.75" y1="530.43" x2="329.26" y2="539.93"/><line class="cls-2" x1="336.56" y1="526.99" x2="329.39" y2="534.16"/><line class="cls-2" x1="329.26" y1="540.73" x2="333.59" y2="545.06"/><line class="cls-2" x1="329.26" y1="535.09" x2="338.75" y2="544.59"/><line class="cls-2" x1="330.25" y1="530.43" x2="339.75" y2="539.93"/><line class="cls-2" x1="332.44" y1="526.99" x2="339.62" y2="534.16"/><path class="cls-3" d="M321.17,834.69s1.9-1.12,2.76-8.87,6.8-60.74,6.8-60.74.18-13.19,2.76-13.19,5.17,10.52,5.26,12.5,2.15,82.71,2.15,82.71l-2.24,1.38v5.08l-1.28,1.28H304.25L303,853.56v-5.08l-2.24-1.38s2.06-80.73,2.15-82.71,2.67-12.5,5.26-12.5,2.75,13.19,2.75,13.19,6,53,6.81,60.74,2.76,8.87,2.76,8.87Z"/><path class="cls-4" d="M341,857.5s-2-26.4-6.85-26.4a8.74,8.74,0,0,0-7,3,117.2,117.2,0,0,0-2.64,11.49,3.74,3.74,0,0,1-7.42,0c-.64-4.37-2.65-11.49-2.65-11.49a8.71,8.71,0,0,0-7-3c-4.83,0-7.24,25.59-7.24,25.59"/><path class="cls-2" d="M316.34,865.88l-.11-3.82a8.15,8.15,0,0,0-4.33-7.12h-.25a8.15,8.15,0,0,0-4.33,7.12l-.11,3.82Z"/><line class="cls-2" x1="307.16" y1="862.03" x2="316.07" y2="862.03"/><path class="cls-2" d="M325.36,865.88l-.1-3.82a8.15,8.15,0,0,0-4.34-7.12h-.24a8.15,8.15,0,0,0-4.34,7.12l-.1,3.82Z"/><line class="cls-2" x1="316.19" y1="862.03" x2="325.09" y2="862.03"/><path class="cls-2" d="M334.41,865.88l-.1-3.82a8.15,8.15,0,0,0-4.34-7.12h-.25a8.15,8.15,0,0,0-4.33,7.12l-.1,3.82Z"/><line class="cls-2" x1="325.23" y1="862.03" x2="334.14" y2="862.03"/><path class="cls-5" d="M291.59,761.2v-378c8.33-5.57,7.89-12,7.89-12l-.12-67.95s.52-15.22-9.53-31.53-15.57-14.48-15.57-14.48h-.17s-5.51-1.84-15.56,14.48S249,303.22,249,303.22l-.11,67.95s-.45,6.44,7.88,12v378"/><line class="cls-2" x1="256.57" y1="383" x2="291.84" y2="383"/><polygon class="cls-2" points="259.74 518.89 257.33 523.72 257.33 527.48 254.38 530.43 254.38 545.32 265.78 545.32 265.78 530.46 263.16 527.68 263.16 523.99 264.9 518.96 259.74 518.89"/><line class="cls-2" x1="257.71" y1="526.23" x2="262.75" y2="526.58"/><line class="cls-2" x1="254.8" y1="540.73" x2="259.13" y2="545.06"/><line class="cls-2" x1="254.8" y1="535.09" x2="264.3" y2="544.59"/><line class="cls-2" x1="255.79" y1="530.43" x2="265.29" y2="539.93"/><line class="cls-2" x1="257.99" y1="526.99" x2="265.16" y2="534.16"/><line class="cls-2" x1="265.29" y1="540.73" x2="260.96" y2="545.06"/><line class="cls-2" x1="265.29" y1="535.09" x2="255.79" y2="544.59"/><line class="cls-2" x1="264.3" y1="530.43" x2="254.8" y2="539.93"/><line class="cls-2" x1="262.1" y1="526.99" x2="254.93" y2="534.16"/><polygon class="cls-2" points="287.97 518.89 290.38 523.72 290.38 527.48 293.33 530.43 293.33 545.32 281.93 545.32 281.93 530.46 284.55 527.68 284.55 523.99 282.81 518.96 287.97 518.89"/><line class="cls-2" x1="290" y1="526.23" x2="284.96" y2="526.58"/><line class="cls-2" x1="292.91" y1="540.73" x2="288.58" y2="545.06"/><line class="cls-2" x1="292.91" y1="535.09" x2="283.41" y2="544.59"/><line class="cls-2" x1="291.92" y1="530.43" x2="282.42" y2="539.93"/><line class="cls-2" x1="289.72" y1="526.99" x2="282.55" y2="534.16"/><line class="cls-2" x1="282.42" y1="540.73" x2="286.75" y2="545.06"/><line class="cls-2" x1="282.42" y1="535.09" x2="291.92" y2="544.59"/><line class="cls-2" x1="283.41" y1="530.43" x2="292.91" y2="539.93"/><line class="cls-2" x1="285.61" y1="526.99" x2="292.78" y2="534.16"/><path class="cls-2" d="M273.37,382.66v62.89s-2.76,3.79-2.76,6.54,1,14.48,2.93,16.37,4-16.8,4-16.8-.34-4.56-4.18-6.11"/><path class="cls-3" d="M274.34,834.69s1.89-1.12,2.75-8.87l6.81-60.74s.17-13.19,2.76-13.19,5.17,10.52,5.25,12.5,2.16,82.71,2.16,82.71l-2.24,1.38v5.08l-1.28,1.28H257.42l-1.28-1.28v-5.08l-2.24-1.38s2.07-80.73,2.16-82.71,2.67-12.5,5.25-12.5,2.76,13.19,2.76,13.19,5.95,53,6.81,60.74,2.75,8.87,2.75,8.87Z"/><path class="cls-4" d="M294.2,857.5s-2-26.4-6.85-26.4a8.72,8.72,0,0,0-7,3,117.2,117.2,0,0,0-2.64,11.49,3.75,3.75,0,0,1-7.43,0,117.2,117.2,0,0,0-2.64-11.49,8.72,8.72,0,0,0-7-3c-4.82,0-7.24,25.59-7.24,25.59"/><path class="cls-2" d="M269.5,865.88l-.1-3.82a8.15,8.15,0,0,0-4.33-7.12h-.25a8.15,8.15,0,0,0-4.34,7.12l-.1,3.82Z"/><line class="cls-2" x1="260.33" y1="862.03" x2="269.23" y2="862.03"/><path class="cls-2" d="M278.53,865.88l-.1-3.82a8.15,8.15,0,0,0-4.34-7.12h-.24a8.15,8.15,0,0,0-4.34,7.12l-.1,3.82Z"/><line class="cls-2" x1="269.35" y1="862.03" x2="278.26" y2="862.03"/><path class="cls-2" d="M287.58,865.88l-.11-3.82a8.15,8.15,0,0,0-4.33-7.12h-.25a8.15,8.15,0,0,0-4.33,7.12l-.11,3.82Z"/><line class="cls-2" x1="278.4" y1="862.03" x2="287.31" y2="862.03"/><line class="cls-2" x1="218.5" y1="518.79" x2="334.4" y2="518.79"/><ellipse class="cls-2" cx="264.57" cy="304.66" rx="2.99" ry="2.18"/><ellipse class="cls-2" cx="264.57" cy="345.44" rx="2.99" ry="2.18"/><polygon class="cls-2" points="144.03 557.33 147.23 551.49 150.42 557.33 156.26 560.53 150.42 563.72 147.23 569.56 144.03 563.72 138.19 560.53 144.03 557.33"/><polygon class="cls-6" points="83.65 372.62 86.84 366.77 90.04 372.62 95.88 375.81 90.04 379.01 86.84 384.85 83.65 379.01 77.81 375.81 83.65 372.62"/><polygon class="cls-2" points="414.21 216.72 417.41 210.88 420.6 216.72 426.45 219.92 420.6 223.11 417.41 228.96 414.21 223.11 408.37 219.92 414.21 216.72"/><polygon class="cls-7" points="149.37 193.34 152.57 187.5 155.76 193.34 161.61 196.54 155.76 199.73 152.57 205.57 149.37 199.73 143.53 196.54 149.37 193.34"/><circle class="cls-1" cx="166.04" cy="533.01" r="2.92"/><circle class="cls-8" cx="343.37" cy="330.34" r="2.92"/><circle class="cls-1" cx="171.71" cy="226.26" r="2.92"/><circle class="cls-2" cx="157.04" cy="292.76" r="2.92"/><circle class="cls-2" cx="124.54" cy="389.01" r="2.92"/><polygon class="cls-6" points="438.04 582.01 441.24 576.16 444.43 582.01 450.27 585.2 444.43 588.4 441.24 594.24 438.04 588.4 432.2 585.2 438.04 582.01"/><circle class="cls-9" cx="501.43" cy="451.15" r="2.92"/><circle class="cls-2" cx="467.93" cy="618.4" r="2.92"/><circle class="cls-2" cx="417.59" cy="303.29" r="2.92"/><circle class="cls-2" cx="163.04" cy="602.93" r="2.92"/><circle class="cls-1" cx="439.72" cy="249.18" r="2.92"/><circle class="cls-1" cx="430.18" cy="425.44" r="2.92"/><path class="cls-10" d="M387.35,88.84a27.11,27.11,0,1,1,31.87,21.3A27.14,27.14,0,0,1,387.35,88.84Zm50.51-10a24.39,24.39,0,1,0-19.17,28.68A24.42,24.42,0,0,0,437.86,78.8Z"/><path class="cls-10" d="M423,59.64a1.33,1.33,0,0,1,.14-.91L429,48a1.32,1.32,0,0,1,.81-.65,1.37,1.37,0,0,1,1,.11L438,51.4a1.32,1.32,0,0,1,.65.81,1.29,1.29,0,0,1-.11,1L435.91,58a1.37,1.37,0,0,1-1.85.54l-5.94-3.25L425.52,60a1.36,1.36,0,0,1-2.52-.39Zm7.72-9.12-1.3,2.38,4.75,2.6,1.31-2.38Z"/><path class="cls-10" d="M407.84,66.8A4.07,4.07,0,1,1,412.62,70,4.07,4.07,0,0,1,407.84,66.8Zm5.32-1.06a1.36,1.36,0,1,0-1.07,1.6A1.36,1.36,0,0,0,413.16,65.74Z"/><path class="cls-10" d="M418.73,72.93a5.42,5.42,0,1,1,6.38,4.26A5.44,5.44,0,0,1,418.73,72.93Zm8-1.59a2.71,2.71,0,1,0-2.13,3.19A2.72,2.72,0,0,0,426.71,71.34Z"/><path class="cls-10" d="M394,80.6a9.49,9.49,0,1,1,11.16,7.46A9.5,9.5,0,0,1,394,80.6ZM410,77.43a6.78,6.78,0,1,0-5.32,8A6.77,6.77,0,0,0,410,77.43Z"/><rect class="cls-8" x="431.1" y="50.32" width="2.71" height="5.42" transform="translate(178.06 406.74) rotate(-61.27)"/><rect class="cls-6" x="115.58" y="868" width="315.5" height="16"/><rect class="cls-10" x="115.58" y="876.37" width="315.5" height="7.63"/><line class="cls-2" x1="96.5" y1="884" x2="450.16" y2="884"/></svg>