<svg xmlns="http://www.w3.org/2000/svg" viewBox="0 0 75.56 75.56"><defs><style>.cls-2{fill:#180041}</style></defs><g id="Layer_2" data-name="Layer 2"><g id="Layer_2-2" data-name="Layer 2"><path d="M43.3 9.56c17.6 0 26.44 5.65 26.44 8.81 0 2.6-5.44 7.05-15.59 9l-5.25-2v-.13a6.63 6.63 0 0 0 4-4.24 2.79 2.79 0 0 0 1.33-1.14 2.24 2.24 0 0 0 .22-1.79l-.24-.78a3.35 3.35 0 0 0-2-1.94c-1.86-3.16-6.11-3.53-9.22-3.53h-.65a9.6 9.6 0 0 1-3.59-.43 2.62 2.62 0 0 1-.75-.29 1.55 1.55 0 0 0-.9-.28 1.41 1.41 0 0 0-1.48 1.37 4.54 4.54 0 0 0 .07.85v.05l-.07.06a6.5 6.5 0 0 0-.56.54 7.23 7.23 0 0 0-1.29 1.73 3.33 3.33 0 0 0-2 1.93l-.24.78a2.16 2.16 0 0 0 .22 1.79 2.81 2.81 0 0 0 1.33 1.13 6.62 6.62 0 0 0 4 4.25v.12l-5.18 1.87c-9.81-2-15-6.37-15-8.92-.05-3.16 8.79-8.81 26.4-8.81z" fill="#00ed92"/><path class="cls-2" d="M24.68 26.82l-.32.12 4.34.9A54.69 54.69 0 0 0 40 29a58.2 58.2 0 0 0 6-.3 52.43 52.43 0 0 0 9.12-1.6l.34-.06c8.54-2.46 13.8-6.71 13.8-10.67C69.26 10.81 58.43 5 40.3 5s-29 5.77-29 11.33c.03 3.92 5.12 8.06 13.38 10.49zm11.16-5.55c-2-.67-3.21-1.81-3.46-3.39l-.14-.88-.84-.18a1.21 1.21 0 0 1-.4-.12l.18-.58a1.53 1.53 0 0 1 .83-.47l.56-.16.24-.54a5.11 5.11 0 0 1 1-1.5l.47-.45a2.73 2.73 0 0 0 .82-1.11 12.86 12.86 0 0 0 4.33.5H40c5.37 0 6.68 1.47 7.19 2.58l.24.52.56.15a1.85 1.85 0 0 1 .83.44l.19.6a1.1 1.1 0 0 1-.42.15l-.84.18-.14.86c-.25 1.58-1.41 2.72-3.46 3.38l-1 .32.27 2.34A2.31 2.31 0 0 0 45 25.75l.92.34c-.3 0-.61.05-.92.08-1.5.11-3.06.19-4.71.19a66.3 66.3 0 0 1-6.18-.3l.83-.31a2.31 2.31 0 0 0 1.6-1.86l.27-2.33zM40.3 7.56c17.6 0 26.44 5.65 26.44 8.81 0 2.6-5.44 7.05-15.59 9l-5.25-2v-.13a6.63 6.63 0 0 0 4-4.24 2.79 2.79 0 0 0 1.33-1.14 2.24 2.24 0 0 0 .22-1.79l-.24-.78a3.35 3.35 0 0 0-2-1.94c-1.87-3.09-6.12-3.46-9.21-3.46h-.65a9.6 9.6 0 0 1-3.59-.43A2.62 2.62 0 0 1 35 9.1a1.55 1.55 0 0 0-.9-.28 1.41 1.41 0 0 0-1.48 1.37 4.54 4.54 0 0 0 .07.85v.05l-.07.06a6.5 6.5 0 0 0-.56.54 7.23 7.23 0 0 0-1.29 1.73 3.33 3.33 0 0 0-2 1.93l-.24.78a2.16 2.16 0 0 0 .22 1.79 2.81 2.81 0 0 0 1.33 1.13 6.62 6.62 0 0 0 4 4.25v.12l-5.18 1.87c-9.81-2-15-6.37-15-8.92-.05-3.16 8.79-8.81 26.4-8.81z"/><path class="cls-2" d="M68 37.34V37c4-2.79 6.3-6.23 6.3-10V16.37C74.3 7 59.68 0 40.3 0s-34 7-34 16.37v2.86C2.19 22 0 25.34 0 29v10.61c0 4.15 2.82 7.9 7.56 10.84v8c0 9.57 14.93 17.06 34 17.06s34-7.49 34-17.06v-10.6c0-4-2.63-7.63-7.56-10.51zm5 10.51C73 55.9 58.33 63 41.56 63H38.76c-.63 0-1.24-.06-1.86-.11-.4 0-.79-.08-1.2-.11h-.53c-10.36-1.12-19.16-4.85-23-9.57l-.17-.34-.16-.23a43.66 43.66 0 0 0 5.76 2c5.59 3.67 14.3 5.78 24 5.78 17.06 0 29-6.61 29-12.56 0-1.75-1.06-3.49-3.09-5.07a2.29 2.29 0 0 0 .09-.28c0-.13.09-.26.13-.39l.11-.45c0-.14.07-.27.09-.41a3.62 3.62 0 0 0 .06-.46v-.41-.11C70.59 42 73 44.57 73 47.85zM46.76 65.28h.11c.72-.06 1.44-.14 2.14-.21l.54-.07c.7-.08 1.4-.18 2.08-.29v7.55c-1.62.26-3.31.46-5 .6V65.3a.44.44 0 0 1 .13-.02zm7.39-1h.22c.68-.14 1.34-.29 2-.47a1.14 1.14 0 0 1 .25-.06c.44-.12.88-.23 1.31-.36v7.55c-1.21.35-2.47.65-3.78.93zm6.3-1.73l.2-.07.28-.11c.51-.18 1-.37 1.52-.59l.43-.17a.19.19 0 0 1 .09 0V69c-.81.36-1.64.68-2.52 1zm5-2.13l.63-.34.36-.2c.49-.28 1-.55 1.41-.84a1.05 1.05 0 0 0 .11-.07v7.35a25 25 0 0 1-2.51 1.56zm-50.34-1.5c.78.51 1.64 1 2.52 1.44v7.47a25.21 25.21 0 0 1-2.52-1.56zM7.56 40a1.05 1.05 0 0 0 .11.07c.45.29.92.56 1.41.84.13.06.24.13.37.2l.62.34v6.37H8.26c-.24-.16-.48-.32-.7-.49zm5.54 2.83c.5.2 1 .4 1.52.59l.28.1.2.07v7.53a33.9 33.9 0 0 1-2.52-1v-7.47h.09a3.2 3.2 0 0 1 .43.21zm6.09 2c.66.17 1.32.32 2 .47l.22.05v7.54a.87.87 0 0 1-.22 0c-.68-.14-1.33-.29-2-.46L17.63 52v-7.6c.43.13.87.24 1.31.36zm7.36 1.34c.7.09 1.42.15 2.14.21h.27v7.53c-.86-.07-1.72-.14-2.58-.24-.41-.05-.82-.1-1.22-.17s-.83-.12-1.23-.2v-7.5c.68.12 1.37.2 2.08.29zm7.45.43c.85 0 1.69 0 2.52-.07v7.57H34c-.82 0-1.67 0-2.52-.07v-7.49h.17c.78.03 1.56.06 2.35.06zM8.82 23l.06.08c.28.35.58.69.91 1l.22.23c.29.29.58.56.9.85l.22.21.22.18v7A8.27 8.27 0 0 1 8.83 27v-4zm5 4.41l.12.06c.45.29.92.57 1.41.85a3.24 3.24 0 0 1 .36.2l.63.34v7.45a25.21 25.21 0 0 1-2.52-1.56zm5 2.62h.09l.43.17c.5.21 1 .41 1.52.6l.28.1.2.07v7.53a33.9 33.9 0 0 1-2.52-1zm5 1.76c.43.13.87.24 1.31.36a2.27 2.27 0 0 0 .25.06c.65.16 1.32.31 2 .46l.22.06v7.57c-1.31-.28-2.57-.58-3.78-.93zm6.29 1.39c.68.11 1.38.2 2.08.29l.54.06c.71.09 1.43.15 2.14.22h.28v7.56c-1.72-.14-3.41-.34-5-.61zM40.3 34h2.52v7.53c-.85 0-1.68.08-2.52.08s-1.69 0-2.52-.05V34h2.52zm5.31-.21l2.14-.22c.18 0 .37 0 .55-.06l2.07-.29v7.53c-.48.08-.93.17-1.42.23l-.76.1c-.94.11-1.9.2-2.85.28v-7.53h.16a.23.23 0 0 1 .11-.04zm9.5-1.55a1.14 1.14 0 0 1 .25-.06c.44-.12.88-.23 1.31-.36v7.55c-.16.05-.33.08-.49.14l-.86.22c-.69.18-1.4.34-2.11.49l-.32.08v-7.56l.22-.05c.66-.14 1.34-.29 2-.45zm4.56-1.39c.51-.19 1-.37 1.52-.59l.43-.17a.19.19 0 0 1 .09 0v7.5c-.81.36-1.64.68-2.52 1V31l.2-.08a2.29 2.29 0 0 0 .28-.07zm5.55-2.5c.49-.28 1-.56 1.41-.85a.39.39 0 0 0 .11-.06v7.34a25 25 0 0 1-2.51 1.56v-7.45l.63-.34c.14-.08.25-.14.36-.2zM30.89 56.59h.62c.82 0 1.65.06 2.49.06H38.17l1-.06c.25 0 .49 0 .74-.06l.94-.08.73-.08.9-.1c.25 0 .49-.06.73-.1s.58-.07.87-.12l.73-.12.85-.13.71-.14c.28 0 .55-.1.82-.17l.71-.15.78-.17c.24 0 .46-.12.69-.18l.77-.19.67-.19.74-.21.65-.2.72-.23.63-.21.69-.24.62-.24.66-.27c.2-.07.39-.16.59-.25l.64-.28.55-.26.61-.29.54-.28.58-.3c.18-.09.34-.19.52-.29l.55-.31.48-.31.52-.34.45-.3.49-.35.43-.32.45-.36.39-.33.43-.38.37-.34q.2-.18.39-.39a3.59 3.59 0 0 0 .32-.35c.13-.13.24-.26.36-.39s.2-.24.3-.37.21-.26.31-.4l.27-.36.2-.31a4.31 4.31 0 0 1 1.74 2.7c0 3.4-9.33 10-26.44 10a54.58 54.58 0 0 1-12.82-1.41c.7.09 1.42.13 2.15.15zm22-5.45v-7.58l.24-.09c.47-.16.93-.31 1.39-.5.3-.13.59-.27.89-.39v7.57c-.81.36-1.64.69-2.52.99zm-5.31-6.06c.53-.12 1.06-.22 1.57-.36s.81-.24 1.21-.35V52c-1.21.35-2.47.65-3.78.93v-7.61c.36-.07.67-.16 1-.24zm10.35 3.86v-7.26c.87-.26 1.7-.54 2.52-.83v6.53a29.52 29.52 0 0 1-2.52 1.56zm-17.64-2.65c.41 0 .81-.1 1.23-.15l1.81-.22.75-.13v7.57h-.32l-1.13.16c-.3 0-.59.09-.9.12-.65.07-1.31.15-2 .2H39v-7.47c.45-.03.87-.04 1.29-.08zm25.2-6.68a6.91 6.91 0 0 1-.62 2.8l-.12.24a9.91 9.91 0 0 1-1.52 2.25l-.23.26v-5.33c.88-.39 1.72-.8 2.52-1.24zM20.15 61.53c.81.34 1.65.67 2.52 1V70a33.9 33.9 0 0 1-2.52-1zm5 1.76c1.22.36 2.46.67 3.77.95v7.54c-1.31-.28-2.56-.58-3.77-.93zm6.29 1.4c.2 0 .41 0 .61.09l.9.13 1.44.17 1.45.15.64.07v7.55c-1.72-.14-3.41-.34-5-.6zM71.78 23v4a8.27 8.27 0 0 1-2.52 5.61v-7l.22-.19.22-.2c.32-.28.62-.56.9-.85l.22-.23c.32-.34.62-.68.91-1 0-.06.03-.08.05-.14zM40.3 2.52c17.7 0 31.48 6.08 31.48 13.85 0 8.05-14.71 15.11-31.48 15.11S8.82 24.42 8.82 16.37C8.82 8.6 22.64 2.52 40.3 2.52zm-34 19.81v5.54a2.89 2.89 0 0 1 0 .29c0 .19 0 .38.09.57l.08.34a4.54 4.54 0 0 0 .12.5l.12.35c0 .17.1.32.16.47l.15.36c.06.15.13.31.2.46l.19.36c.08.15.15.29.24.44s.15.24.23.35a4.94 4.94 0 0 0 .27.42c.09.11.17.24.26.35s.2.28.31.41l.29.35c.11.14.23.26.35.39l.32.34q.18.2.39.39l.34.33c.14.12.27.25.43.37s.24.22.37.32.31.24.47.36l.39.31.5.35.42.29a6.37 6.37 0 0 0 .55.35L14 38l.62.35c.14.07.28.16.41.24l.8.41.29.15c.36.19.74.37 1.13.55l.42.17.78.34.5.2c.24.1.49.21.74.29l.56.21.73.26.59.19c.25.07.49.16.74.24l.62.19c.25.07.5.15.76.21l.64.18.78.2.67.15.79.18c.23 0 .45.1.68.13l.82.17.69.12c.28 0 .57.11.84.14l.71.12.88.12c.24 0 .47.07.71.09s.6.08.9.1l.71.08.94.08.71.07 1 .06H37c-1 0-2 .08-3 .08C17.23 44.08 2.52 37 2.52 29c0-2.81 1.79-5 3.78-6.67zM2.52 39.61v-4l.06.07c.28.35.58.69.91 1l.23.23c.28.29.57.57.89.86l.23.2c.07.06.13.13.21.19v7a8.34 8.34 0 0 1-2.53-5.55zm7.55 18.89v-4a19.51 19.51 0 0 0 2.52 2.55v7a8.33 8.33 0 0 1-2.52-5.55zM39 73v-7.57h.19c.77 0 1.55.06 2.33.06s1.57 0 2.35-.06h.17V73c-.83 0-1.68.05-2.52.05S39.87 73 39 73zm34-18.48v4a8.31 8.31 0 0 1-2.52 5.6v-7l.22-.19.22-.2c.32-.28.62-.57.9-.86l.22-.23c.32-.34.62-.68.91-1z"/></g></g></svg>