<svg id="e3y8fh6npmnl1" xmlns="http://www.w3.org/2000/svg" xmlns:xlink="http://www.w3.org/1999/xlink" viewBox="0 0 1400 900" shape-rendering="geometricPrecision" text-rendering="geometricPrecision" width="1400" height="900"><style><![CDATA[#e3y8fh6npmnl4_to {animation: e3y8fh6npmnl4_to__to 2000ms linear infinite normal forwards}@keyframes e3y8fh6npmnl4_to__to { 0% {transform: translate(206.270000px,184.330000px)} 16.500000% {transform: translate(206.270000px,184.330000px);animation-timing-function: cubic-bezier(0.420000,0,0.580000,1)} 41.500000% {transform: translate(437.270000px,184.330000px);animation-timing-function: cubic-bezier(0.420000,0,0.580000,1)} 77.500000% {transform: translate(437.270000px,184.330000px);animation-timing-function: cubic-bezier(0.420000,0,0.580000,1)} 97.500000% {transform: translate(206.270000px,184.330000px)} 100% {transform: translate(206.270000px,184.330000px)} }#e3y8fh6npmnl4_tr {animation: e3y8fh6npmnl4_tr__tr 2000ms linear infinite normal forwards}@keyframes e3y8fh6npmnl4_tr__tr { 0% {transform: rotate(0deg)} 16.500000% {transform: rotate(0deg)} 41.500000% {transform: rotate(45deg)} 77.500000% {transform: rotate(45deg)} 97.500000% {transform: rotate(0deg)} 100% {transform: rotate(0deg)} }#e3y8fh6npmnl4 {
           animation-name: e3y8fh6npmnl4_s_p, e3y8fh6npmnl4_s_w;
           animation-duration: 2000ms;
           animation-fill-mode: forwards;
           animation-timing-function: linear;
           animation-direction: normal;
           animation-iteration-count: infinite;  
        }@keyframes e3y8fh6npmnl4_s_p { 0% {stroke: rgb(250,114,175)} 15% {stroke: rgb(127,81,214)} 30% {stroke: rgb(122,255,247)} 50% {stroke: rgb(250,114,175)} 100% {stroke: rgb(250,114,175)} }@keyframes e3y8fh6npmnl4_s_w { 0% {stroke-width: 3} 30% {stroke-width: 3} 50% {stroke-width: 100} 75% {stroke-width: 3} 100% {stroke-width: 3} }#e3y8fh6npmnl5_to {animation: e3y8fh6npmnl5_to__to 2000ms linear infinite normal forwards}@keyframes e3y8fh6npmnl5_to__to { 0% {transform: translate(206.270000px,184.330000px)} 18% {transform: translate(206.270000px,184.330000px);animation-timing-function: cubic-bezier(0.420000,0,0.580000,1)} 43% {transform: translate(-24.730000px,184.330000px);animation-timing-function: cubic-bezier(0.420000,0,0.580000,1)} 77.500000% {transform: translate(-24.730000px,184.330000px);animation-timing-function: cubic-bezier(0.420000,0,0.580000,1)} 97.500000% {transform: translate(206.270000px,184.330000px)} 100% {transform: translate(206.270000px,184.330000px)} }#e3y8fh6npmnl5_tr {animation: e3y8fh6npmnl5_tr__tr 2000ms linear infinite normal forwards}@keyframes e3y8fh6npmnl5_tr__tr { 0% {transform: rotate(0deg)} 18% {transform: rotate(0deg)} 43% {transform: rotate(45deg)} 77.500000% {transform: rotate(45deg)} 97.500000% {transform: rotate(0deg)} 100% {transform: rotate(0deg)} }#e3y8fh6npmnl5 {
           animation-name: e3y8fh6npmnl5_s_p, e3y8fh6npmnl5_s_w;
           animation-duration: 2000ms;
           animation-fill-mode: forwards;
           animation-timing-function: linear;
           animation-direction: normal;
           animation-iteration-count: infinite;  
        }@keyframes e3y8fh6npmnl5_s_p { 0% {stroke: rgb(250,114,175)} 25% {stroke: rgb(122,255,247)} 40% {stroke: rgb(127,81,214)} 50% {stroke: rgb(250,114,175)} 100% {stroke: rgb(250,114,175)} }@keyframes e3y8fh6npmnl5_s_w { 0% {stroke-width: 3} 30% {stroke-width: 3} 50% {stroke-width: 100} 75% {stroke-width: 3} 100% {stroke-width: 3} }#e3y8fh6npmnl7_to {animation: e3y8fh6npmnl7_to__to 2000ms linear infinite normal forwards}@keyframes e3y8fh6npmnl7_to__to { 0% {transform: translate(206.270000px,184.330000px)} 15.500000% {transform: translate(206.270000px,184.330000px);animation-timing-function: cubic-bezier(0.420000,0,0.580000,1)} 40.500000% {transform: translate(437.270000px,184.330000px);animation-timing-function: cubic-bezier(0.420000,0,0.580000,1)} 77.500000% {transform: translate(437.270000px,184.330000px);animation-timing-function: cubic-bezier(0.420000,0,0.580000,1)} 97.500000% {transform: translate(206.270000px,184.330000px)} 100% {transform: translate(206.270000px,184.330000px)} }#e3y8fh6npmnl7_tr {animation: e3y8fh6npmnl7_tr__tr 2000ms linear infinite normal forwards}@keyframes e3y8fh6npmnl7_tr__tr { 0% {transform: rotate(0deg)} 15.500000% {transform: rotate(0deg)} 40.500000% {transform: rotate(45deg)} 77.500000% {transform: rotate(45deg)} 97.500000% {transform: rotate(0deg)} 100% {transform: rotate(0deg)} }#e3y8fh6npmnl7 {
           animation-name: e3y8fh6npmnl7_s_p, e3y8fh6npmnl7_s_w;
           animation-duration: 2000ms;
           animation-fill-mode: forwards;
           animation-timing-function: linear;
           animation-direction: normal;
           animation-iteration-count: infinite;  
        }@keyframes e3y8fh6npmnl7_s_p { 0% {stroke: rgb(250,114,175)} 10% {stroke: rgb(250,114,175)} 25% {stroke: rgb(122,255,247)} 50% {stroke: rgb(250,114,175)} 100% {stroke: rgb(250,114,175)} }@keyframes e3y8fh6npmnl7_s_w { 0% {stroke-width: 3} 30% {stroke-width: 3} 50% {stroke-width: 100} 75% {stroke-width: 3} 100% {stroke-width: 3} }#e3y8fh6npmnl8_to {animation: e3y8fh6npmnl8_to__to 2000ms linear infinite normal forwards}@keyframes e3y8fh6npmnl8_to__to { 0% {transform: translate(206.270000px,184.330000px)} 17% {transform: translate(206.270000px,184.330000px);animation-timing-function: cubic-bezier(0.420000,0,0.580000,1)} 42% {transform: translate(-24.730000px,184.330000px);animation-timing-function: cubic-bezier(0.420000,0,0.580000,1)} 77.500000% {transform: translate(-24.730000px,184.330000px);animation-timing-function: cubic-bezier(0.420000,0,0.580000,1)} 97.500000% {transform: translate(206.270000px,184.330000px)} 100% {transform: translate(206.270000px,184.330000px)} }#e3y8fh6npmnl8_tr {animation: e3y8fh6npmnl8_tr__tr 2000ms linear infinite normal forwards}@keyframes e3y8fh6npmnl8_tr__tr { 0% {transform: rotate(0deg)} 17% {transform: rotate(0deg)} 42% {transform: rotate(45deg)} 77.500000% {transform: rotate(45deg)} 97.500000% {transform: rotate(0deg)} 100% {transform: rotate(0deg)} }#e3y8fh6npmnl8 {
           animation-name: e3y8fh6npmnl8_s_p, e3y8fh6npmnl8_s_w;
           animation-duration: 2000ms;
           animation-fill-mode: forwards;
           animation-timing-function: linear;
           animation-direction: normal;
           animation-iteration-count: infinite;  
        }@keyframes e3y8fh6npmnl8_s_p { 0% {stroke: rgb(250,114,175)} 25% {stroke: rgb(127,81,214)} 35% {stroke: rgb(122,255,247)} 50% {stroke: rgb(250,114,175)} 100% {stroke: rgb(250,114,175)} }@keyframes e3y8fh6npmnl8_s_w { 0% {stroke-width: 3} 30% {stroke-width: 3} 50% {stroke-width: 100} 80% {stroke-width: 100} 100% {stroke-width: 3} }#e3y8fh6npmnl10_to {animation: e3y8fh6npmnl10_to__to 2000ms linear infinite normal forwards}@keyframes e3y8fh6npmnl10_to__to { 0% {transform: translate(206.270000px,184.330000px)} 14.500000% {transform: translate(206.270000px,184.330000px);animation-timing-function: cubic-bezier(0.420000,0,0.580000,1)} 39.500000% {transform: translate(437.270000px,184.330000px);animation-timing-function: cubic-bezier(0.420000,0,0.580000,1)} 77.500000% {transform: translate(437.270000px,184.330000px);animation-timing-function: cubic-bezier(0.420000,0,0.580000,1)} 97.500000% {transform: translate(206.270000px,184.330000px)} 100% {transform: translate(206.270000px,184.330000px)} }#e3y8fh6npmnl10_tr {animation: e3y8fh6npmnl10_tr__tr 2000ms linear infinite normal forwards}@keyframes e3y8fh6npmnl10_tr__tr { 0% {transform: rotate(0deg)} 14.500000% {transform: rotate(0deg)} 39.500000% {transform: rotate(45deg)} 77.500000% {transform: rotate(45deg)} 97.500000% {transform: rotate(0deg)} 100% {transform: rotate(0deg)} }#e3y8fh6npmnl10 {
           animation-name: e3y8fh6npmnl10_s_p, e3y8fh6npmnl10_s_w;
           animation-duration: 2000ms;
           animation-fill-mode: forwards;
           animation-timing-function: linear;
           animation-direction: normal;
           animation-iteration-count: infinite;  
        }@keyframes e3y8fh6npmnl10_s_p { 0% {stroke: rgb(250,114,175)} 15% {stroke: rgb(127,81,214)} 35% {stroke: rgb(122,255,247)} 45% {stroke: rgb(250,114,175)} 100% {stroke: rgb(250,114,175)} }@keyframes e3y8fh6npmnl10_s_w { 0% {stroke-width: 3} 30% {stroke-width: 3} 50% {stroke-width: 100} 80% {stroke-width: 100} 100% {stroke-width: 3} }#e3y8fh6npmnl11_to {animation: e3y8fh6npmnl11_to__to 2000ms linear infinite normal forwards}@keyframes e3y8fh6npmnl11_to__to { 0% {transform: translate(206.270000px,184.330000px)} 13.500000% {transform: translate(206.270000px,184.330000px);animation-timing-function: cubic-bezier(0.420000,0,0.580000,1)} 38.500000% {transform: translate(-24.730000px,184.330000px);animation-timing-function: cubic-bezier(0.420000,0,0.580000,1)} 77.500000% {transform: translate(-24.730000px,184.330000px);animation-timing-function: cubic-bezier(0.420000,0,0.580000,1)} 97.500000% {transform: translate(206.270000px,184.330000px)} 100% {transform: translate(206.270000px,184.330000px)} }#e3y8fh6npmnl11_tr {animation: e3y8fh6npmnl11_tr__tr 2000ms linear infinite normal forwards}@keyframes e3y8fh6npmnl11_tr__tr { 0% {transform: rotate(0deg)} 13.500000% {transform: rotate(0deg)} 38.500000% {transform: rotate(45deg)} 77.500000% {transform: rotate(45deg)} 97.500000% {transform: rotate(0deg)} 100% {transform: rotate(0deg)} }#e3y8fh6npmnl11 {
           animation-name: e3y8fh6npmnl11_s_p, e3y8fh6npmnl11_s_w;
           animation-duration: 2000ms;
           animation-fill-mode: forwards;
           animation-timing-function: linear;
           animation-direction: normal;
           animation-iteration-count: infinite;  
        }@keyframes e3y8fh6npmnl11_s_p { 0% {stroke: rgb(250,114,175)} 25% {stroke: rgb(127,81,214)} 40% {stroke: rgb(122,255,247)} 50% {stroke: rgb(250,114,175)} 100% {stroke: rgb(250,114,175)} }@keyframes e3y8fh6npmnl11_s_w { 0% {stroke-width: 3} 30% {stroke-width: 3} 50% {stroke-width: 100} 80% {stroke-width: 100} 100% {stroke-width: 3} }]]></style><rect id="e3y8fh6npmnl2" width="1400" height="900" rx="0" ry="0" fill="rgb(14,3,51)" stroke="none" stroke-width="1"/><g id="e3y8fh6npmnl3" transform="matrix(1 0 0 1 493.72999953999999 265.67000008000002)"><g id="e3y8fh6npmnl4_to" transform="translate(206.270000,184.330000)"><g id="e3y8fh6npmnl4_tr" transform="rotate(0)"><polyline id="e3y8fh6npmnl4" points="369.380000,347.440000 43.160000,347.440000 43.160000,21.220000" transform="translate(-206.270000,-184.330000)" fill="none" stroke="rgb(250,114,175)" stroke-width="3"/></g></g><g id="e3y8fh6npmnl5_to" transform="translate(206.270000,184.330000)"><g id="e3y8fh6npmnl5_tr" transform="rotate(0)"><polyline id="e3y8fh6npmnl5" points="43.160000,21.220000 369.380000,21.220000 369.380000,347.440000" transform="translate(-206.270000,-184.330000)" fill="none" stroke="rgb(250,114,175)" stroke-width="3"/></g></g></g><g id="e3y8fh6npmnl6" transform="matrix(1.20000000000000 0 0 1.20000000000000 452.47599944800004 228.80400009600001)"><g id="e3y8fh6npmnl7_to" transform="translate(206.270000,184.330000)"><g id="e3y8fh6npmnl7_tr" transform="rotate(0)"><polyline id="e3y8fh6npmnl7" points="369.380000,347.440000 43.160000,347.440000 43.160000,21.220000" transform="translate(-206.270000,-184.330000)" fill="none" stroke="rgb(250,114,175)" stroke-width="3"/></g></g><g id="e3y8fh6npmnl8_to" transform="translate(206.270000,184.330000)"><g id="e3y8fh6npmnl8_tr" transform="rotate(0)"><polyline id="e3y8fh6npmnl8" points="43.160000,21.220000 369.380000,21.220000 369.380000,347.440000" transform="translate(-206.270000,-184.330000)" fill="none" stroke="rgb(250,114,175)" stroke-width="3"/></g></g></g><g id="e3y8fh6npmnl9" transform="matrix(1.40000000000000 0 0 1.40000000000000 411.22199935599997 191.93800011200000)"><g id="e3y8fh6npmnl10_to" transform="translate(206.270000,184.330000)"><g id="e3y8fh6npmnl10_tr" transform="rotate(0)"><polyline id="e3y8fh6npmnl10" points="369.380000,347.440000 43.160000,347.440000 43.160000,21.220000" transform="translate(-206.270000,-184.330000)" fill="none" stroke="rgb(250,114,175)" stroke-width="3"/></g></g><g id="e3y8fh6npmnl11_to" transform="translate(206.270000,184.330000)"><g id="e3y8fh6npmnl11_tr" transform="rotate(0)"><polyline id="e3y8fh6npmnl11" points="43.160000,21.220000 369.380000,21.220000 369.380000,347.440000" transform="translate(-206.270000,-184.330000)" fill="none" stroke="rgb(250,114,175)" stroke-width="3"/></g></g></g><g id="e3y8fh6npmnl12" transform="matrix(1 0 0 1 633.47966003500005 430.18426323000000)"><path id="e3y8fh6npmnl13" d="M22.840000,30.800000L16.100000,30.800000L13.240000,1.580000L12.720000,1.580000L9.860000,30.800000L3.120000,30.800000L0,0L3.340000,0L6.340000,29.220000L6.870000,29.220000L9.590000,0L16.370000,0L19.140000,29.220000L19.670000,29.220000L22.620000,0L26,0Z" fill="rgb(255,255,255)" stroke="none" stroke-width="1"/><path id="e3y8fh6npmnl14" d="M29,9L37,9L37,11.900000L37.530000,11.900000C38.011236,10.780164,38.842891,9.846745,39.900000,9.240000C40.979861,8.655417,42.192236,8.359212,43.420000,8.380000C45.424058,8.303223,47.364791,9.089711,48.750000,10.540000C50.221295,12.297834,50.987476,14.539359,50.900000,16.830000L47.300000,17.360000C47.300000,15.360000,46.810000,13.870000,45.840000,12.980000C44.876217,12.081760,43.596863,11.600205,42.280000,11.640000C41.465775,11.616938,40.658482,11.795573,39.930000,12.160000C39.274658,12.512753,38.709906,13.012473,38.280000,13.620000C37.809914,14.264753,37.470226,14.995080,37.280000,15.770000C37.078267,16.628324,36.984210,17.508430,37,18.390000L37,27.630000L42.500000,27.630000L42.500000,30.800000L28.500000,30.800000L28.500000,27.630000L33.500000,27.630000L33.500000,12.140000L29,12.140000Z" fill="rgb(255,255,255)" stroke="none" stroke-width="1"/><path id="e3y8fh6npmnl15" d="M77.790000,20.150000C77.822658,21.801298,77.516349,23.441753,76.890000,24.970000C76.337451,26.294200,75.520835,27.491904,74.490000,28.490000C73.487019,29.446438,72.299476,30.188226,71,30.670000C68.313366,31.669984,65.356634,31.669984,62.670000,30.670000C61.375435,30.184279,60.191918,29.442881,59.190000,28.490000C58.158912,27.501621,57.339046,26.314345,56.780000,25C56.153651,23.471753,55.847342,21.831298,55.880000,20.180000L55.880000,19.650000C55.850221,18.015148,56.156551,16.391602,56.780000,14.880000C57.340744,13.549454,58.163783,12.345505,59.200000,11.340000C60.204794,10.376123,61.395774,9.627507,62.700000,9.140000C65.365915,8.139654,68.304085,8.139654,70.970000,9.140000C72.274226,9.627507,73.465206,10.376123,74.470000,11.340000C75.506217,12.345505,76.329256,13.549454,76.890000,14.880000C77.513449,16.391602,77.819779,18.015148,77.790000,19.650000ZM66.790000,28.150000C67.790156,28.161898,68.782708,27.974945,69.710000,27.600000C70.618790,27.245689,71.440719,26.700010,72.120000,26C72.810964,25.271127,73.348284,24.410735,73.700000,23.470000C74.094053,22.408206,74.287335,21.282424,74.270000,20.150000L74.270000,19.620000C74.282212,18.517280,74.088915,17.421933,73.700000,16.390000C73.345862,15.450461,72.808827,14.590524,72.120000,13.860000C71.441897,13.160011,70.633372,12.599480,69.740000,12.210000C67.883142,11.423710,65.786858,11.423710,63.930000,12.210000C63.038272,12.597166,62.232596,13.158080,61.560000,13.860000C60.875559,14.590155,60.345030,15.450564,60,16.390000C59.611085,17.421933,59.417788,18.517280,59.430000,19.620000L59.430000,20.150000C59.412665,21.282424,59.605947,22.408206,60,23.470000C60.342529,24.410649,60.873352,25.271535,61.560000,26C62.220084,26.697494,63.021202,27.246344,63.910000,27.610000C64.840555,27.985735,65.836532,28.172693,66.840000,28.160000Z" fill="rgb(255,255,255)" stroke="none" stroke-width="1"/><path id="e3y8fh6npmnl16" d="M87.560000,30.800000L84.130000,30.800000L84.130000,9L87.560000,9L87.560000,12.690000L88.090000,12.690000C89.284014,9.923555,92.082222,8.200658,95.090000,8.380000C97.330997,8.287611,99.507855,9.140213,101.090000,10.730000Q103.330000,13.080000,103.330000,17.800000L103.330000,30.800000L100,30.800000L100,18.480000C100.135845,16.632539,99.587746,14.799611,98.460000,13.330000C97.387331,12.171016,95.857422,11.545144,94.280000,11.620000C92.401767,11.531179,90.588413,12.317827,89.370000,13.750000C88.114102,15.375992,87.482583,17.398271,87.590000,19.450000Z" fill="rgb(255,255,255)" stroke="none" stroke-width="1"/><path id="e3y8fh6npmnl17" d="M127.640000,27.460000L127.120000,27.460000C126.479298,28.727180,125.472373,29.772431,124.230000,30.460000C123.003762,31.128992,121.626794,31.473234,120.230000,31.460000C118.818575,31.470129,117.417744,31.215741,116.100000,30.710000C113.471053,29.698620,111.390566,27.625395,110.370000,25C109.778029,23.480725,109.489263,21.860240,109.520000,20.230000L109.520000,19.530000C109.491018,17.910094,109.790367,16.301094,110.400000,14.800000C110.929128,13.480382,111.721968,12.282615,112.730000,11.280000C113.694527,10.323528,114.849560,9.580764,116.120000,9.100000C117.395654,8.605399,118.751818,8.351118,120.120000,8.350000C121.570577,8.310760,123.005742,8.655752,124.280000,9.350000C125.484948,10.056764,126.457916,11.099230,127.080000,12.350000L127.600000,12.350000L127.600000,9L131.040000,9L131.040000,36.170000C131.058585,37.092523,130.696971,37.982093,130.040000,38.630000C129.405235,39.294204,128.518328,39.657691,127.600000,39.630000L113.480000,39.630000L113.480000,36.430000L126.480000,36.430000C127.270000,36.430000,127.660000,35.990000,127.660000,35.110000ZM120.340000,28.160000C121.322450,28.169362,122.296205,27.975292,123.200000,27.590000C124.070310,27.222962,124.856403,26.681885,125.510000,26C126.189174,25.265831,126.719018,24.406532,127.070000,23.470000C127.462322,22.421627,127.655628,21.309267,127.640000,20.190000L127.640000,19.660000C127.652212,18.557280,127.458915,17.461933,127.070000,16.430000C126.719018,15.493468,126.189174,14.634169,125.510000,13.900000C124.850202,13.201200,124.058223,12.640357,123.180000,12.250000C122.286019,11.853741,121.317838,11.652605,120.340000,11.660000C119.351200,11.651885,118.371164,11.845850,117.460000,12.230000C116.575351,12.599814,115.780682,13.155741,115.130000,13.860000C114.455046,14.582267,113.931435,15.432285,113.590000,16.360000C113.211783,17.390797,113.025379,18.482103,113.040000,19.580000L113.040000,20.280000C113.020334,21.404353,113.206742,22.522801,113.590000,23.580000C113.935087,24.482163,114.458901,25.305299,115.130000,26C115.782119,26.681137,116.568777,27.219198,117.440000,27.580000C118.357630,27.967026,119.344101,28.164320,120.340000,28.160000Z" fill="rgb(255,255,255)" stroke="none" stroke-width="1"/></g></svg>