<?xml version="1.0" encoding="UTF-8"?>
<svg width="1650px" height="1073px" viewBox="0 0 1650 1073" version="1.1" xmlns="http://www.w3.org/2000/svg" xmlns:xlink="http://www.w3.org/1999/xlink">
    <!-- Generator: Sketch 51.3 (57544) - http://www.bohemiancoding.com/sketch -->
    <title>kiss</title>
    <desc>Created with Sketch.</desc>
    <defs></defs>
    <g id="Page-1" stroke="none" stroke-width="1" fill="none" fill-rule="evenodd">
        <g id="kiss">
            <rect id="Rectangle" stroke="#FFFFFF" opacity="0.00613839286" x="0.5" y="299.5" width="1649" height="773"></rect>
            <g id="Group-2" transform="translate(503.000000, 0.000000)">
                <g id="Kiss_Mask_01">
                    <g id="_500812016" transform="translate(146.000000, 398.000000)" fill="#FDFDFB">
                        <path d="M235.816481,25.4726667 C235.655852,34.8264944 251.185936,40.5265556 258.830439,42.64635 C269.981681,45.7385222 282.880411,46.8470111 295.438181,46.7403 C356.283067,46.2238944 368.065878,17.6974556 329.685748,4.93649444 C317.621084,0.9253 307.556205,0.402361111 294.647625,3.53400556 C281.143049,6.8102 244.888854,18.7161111 235.816481,25.4726667 Z" id="_500812232"></path>
                        <path d="M116.841798,24.1523889 C111.025781,22.0456611 99.973324,16.3355278 88.6568008,12.2154444 C67.1027302,4.36755 45.5992837,-4.19628889 22.6769961,3.88517222 C-16.0865085,17.5512722 -2.2127876,45.6669278 57.9575674,45.5977833 C76.604724,45.5762778 114.261615,41.4085556 116.841798,24.1523889 Z" id="_500798312"></path>
                    </g>
                    <path d="M250.443265,436.556954 C230.09001,462.177936 228.770352,467.585096 178.629078,466.585644 C128.487531,465.585918 92.5119385,425.581573 129.134234,405.85695 C165.75653,386.132328 205.54535,433.952362 250.443265,436.556954 Z M450.646315,0 L187.557143,0 C257.450634,56.3863393 292.588383,171.836347 323.201393,308.285245 C336.799671,171.393088 407.641752,32.7590672 450.646315,0 Z M394.556735,436.556954 C414.90999,462.177936 416.229648,467.585096 466.370922,466.585644 C516.512469,465.585918 552.488062,425.581573 515.865766,405.85695 C479.24347,386.132328 439.45465,433.952362 394.556735,436.556954 Z M364.042986,716.999727 C364.027947,667.685846 360.522348,616.815499 360.523442,567.039217 C360.523988,546.351785 359.381798,550.644918 354.093594,534.896775 C342.964822,501.756522 350.339978,468.07074 358.828066,435.610824 C333.722838,410.185085 321.259368,353.01477 346.563119,328.934942 L382.838957,364.317469 C395.978389,358.203446 396.799006,356.031995 404.557809,347.475808 C428.099737,321.514111 426.116148,272.731266 419.334099,238.770668 C417.419692,229.183582 408.989302,205.926012 406.215996,195.260174 C430.628854,217.916979 457.997408,258.586896 459.028306,291.986652 L461.282335,291.986652 C473.292702,231.123969 476.501884,150.255286 458.952561,91.0751288 C524.720821,150.103522 507.413773,245.622181 533.772485,261.189574 C555.528799,175.855485 537.874199,92.3286143 507.679564,11.1919521 C637.426368,160.098046 564.79594,360.004921 576.296327,391.156114 C578.978302,398.42108 596.627706,418.064488 616.84287,394.52554 C630.601662,378.504497 627.420099,374.629192 634.610951,366.737757 C650.189263,411.927769 623.445811,426.674818 632.506772,439.180141 C648.803704,461.671237 648.995664,507.079734 634.024953,535.022562 C631.170433,509.625534 625.572413,494.463664 594.525168,513.988943 C554.661423,539.060568 557.800602,581.727202 536.301875,611.541781 C527.430413,623.845026 509.136493,643.951655 496.429654,649.574566 C517.231363,569.172932 438.97475,542.942709 406.270685,564.73241 C392.593108,573.845064 381.430154,613.238253 377.520947,633.153195 C375.764319,642.100139 364.860595,710.278102 364.042986,717 L364.042986,716.999727 Z M280.957014,716.999727 C280.972053,667.685846 284.477652,616.815499 284.476558,567.039217 C284.476012,546.351785 285.618202,550.644918 290.906406,534.896775 C302.035178,501.756522 294.660022,468.07074 286.171934,435.610824 C311.277162,410.185085 323.740632,353.01477 298.436881,328.934942 L262.161043,364.317469 C249.021611,358.203446 248.200994,356.031995 240.442191,347.475808 C216.900263,321.514111 218.883852,272.731266 225.665901,238.770668 C227.580308,229.183582 236.010698,205.926012 238.784004,195.260174 C214.371146,217.916979 187.002592,258.586896 185.971694,291.986652 L183.717665,291.986652 C171.707298,231.123969 168.498116,150.255286 186.047439,91.0751288 C120.279179,150.103522 137.586227,245.622181 111.227515,261.189574 C89.4712007,175.855485 107.125801,92.3286143 137.320436,11.1919521 C7.57363187,160.098046 80.2040601,360.004921 68.7036726,391.156114 C66.0216981,398.42108 48.3722935,418.064488 28.1571297,394.52554 C14.3983381,378.504497 17.5799014,374.629192 10.3890488,366.737757 C-5.18926338,411.927769 21.5541895,426.674818 12.4932284,439.180141 C-3.80370418,461.671237 -3.99566442,507.079734 10.9750471,535.022562 C13.829567,509.625534 19.4275872,494.463664 50.4748325,513.988943 C90.3385766,539.060568 87.1993977,581.727202 108.698125,611.541781 C117.569587,623.845026 135.863507,643.951655 148.570346,649.574566 C127.768637,569.172932 206.02525,542.942709 238.729315,564.73241 C252.406892,573.845064 263.569846,613.238253 267.479053,633.153195 C269.235681,642.100139 280.139405,710.278102 280.957014,717 L280.957014,716.999727 Z" id="Shape" fill="#000000"></path>
                </g>
            </g>
        </g>
    </g>
</svg>