<svg width="93" height="50" fill="none" xmlns="http://www.w3.org/2000/svg"><path d="M89.02 12.851c-2.102-.04-3.823 1.757-3.823 3.903v8.347h-.75V8.237c0-2.147-1.72-3.944-3.823-3.903-2.037.04-3.677 1.738-3.677 3.827v16.94h-.75V4.504c0-2.146-1.72-3.944-3.823-3.903-2.037.04-3.677 1.738-3.677 3.828V25.1h-.75V8.332c0-2.146-1.72-3.944-3.823-3.903-2.037.04-3.677 1.739-3.677 3.828v22.585l-2.967-4.165a3.7 3.7 0 00-5.238-.844c-1.675 1.243-2.045 3.637-.827 5.347L63.19 47.71a4.526 4.526 0 001.597 1.391c.633.33 1.332.5 2.042.5h18.524c2.088 0 3.902-1.466 4.38-3.541l2.486-10.782c.318-1.38.478-2.791.478-4.209v-14.39c0-2.089-1.64-3.787-3.676-3.827z" fill="#fff"/><path d="M3.754 12.851c2.102-.04 3.823 1.757 3.823 3.903v8.347h.75V8.237c0-2.147 1.721-3.944 3.823-3.903 2.038.04 3.677 1.738 3.677 3.827v16.94h.75V4.504c0-2.146 1.721-3.944 3.823-3.903 2.038.04 3.677 1.738 3.677 3.828V25.1h.75V8.332c0-2.146 1.721-3.944 3.823-3.903 2.038.04 3.677 1.739 3.677 3.828v22.585l2.967-4.165a3.7 3.7 0 015.239-.844c1.675 1.243 2.045 3.637.827 5.347L29.585 47.71a4.527 4.527 0 01-1.598 1.391c-.632.33-1.332.5-2.042.5H7.421c-2.088 0-3.902-1.466-4.38-3.541L.556 35.277a18.742 18.742 0 01-.479-4.209v-14.39c0-2.089 1.64-3.787 3.677-3.827z" fill="#0FCE7C"/></svg>