<svg width="73" height="74" viewBox="0 0 73 74" fill="none" xmlns="http://www.w3.org/2000/svg">
<path fill-rule="evenodd" clip-rule="evenodd" d="M36.7736 65.7046C20.9388 65.7046 8.10115 52.8839 8.10115 37.0671C8.10115 21.2517 20.9388 8.42969 36.7736 8.42969C52.6084 8.42969 65.4461 21.2517 65.4461 37.0671C65.4461 52.8839 52.6084 65.7046 36.7736 65.7046Z" fill="#F9006C"/>
<path fill-rule="evenodd" clip-rule="evenodd" d="M22.936 45.774L37.4043 54.211L51.8713 45.774V28.8658L37.4043 20.4288L22.936 28.8644V45.774ZM37.4046 59.4938L18.3719 48.3963V26.2409L37.4046 15.146L56.436 26.2409V48.3963L37.4046 59.4938Z" fill="white"/>
<path fill-rule="evenodd" clip-rule="evenodd" d="M71.2572 37.067C71.2572 56.2914 55.6547 71.8761 36.4068 71.8761C17.159 71.8761 1.55652 56.2914 1.55652 37.067C1.55652 17.844 17.159 2.25928 36.4068 2.25928C55.6547 2.25928 71.2572 17.844 71.2572 37.067Z" stroke="#170640" stroke-width="3"/>
</svg>
