<svg width="73" height="73" viewBox="0 0 73 73" fill="none" xmlns="http://www.w3.org/2000/svg">
<path fill-rule="evenodd" clip-rule="evenodd" d="M36.5442 65.499C20.7094 65.499 7.87173 52.677 7.87173 36.8616C7.87173 21.0461 20.7094 8.22412 36.5442 8.22412C52.379 8.22412 65.2167 21.0461 65.2167 36.8616C65.2167 52.677 52.379 65.499 36.5442 65.499Z" fill="#3E00FF"/>
<path fill-rule="evenodd" clip-rule="evenodd" d="M38.9946 43.998L37.7099 43.9874C34.9213 43.9782 33.6419 41.7175 33.0676 39.6799L41.3831 39.7221C41.358 37.9405 40.035 36.4241 38.7754 36.4901L33.3224 36.4637C30.5735 36.4228 29.3059 34.1727 28.7329 32.1522L40.9144 32.2155C40.8985 30.4339 39.7591 28.9954 38.1087 28.9928L28.8517 28.944C28.4873 28.9413 28.1493 28.8978 27.8417 28.8146C25.8242 28.3316 25.1007 26.3969 24.5963 24.6272L27.4997 24.6417L40.068 24.7063L41.5521 24.7169C42.1476 24.7195 42.7457 24.771 43.328 24.8898C43.4125 24.9056 43.4983 24.9307 43.5828 24.9452C43.7214 24.9795 43.8706 25.031 44.0093 25.0825C44.2245 25.1696 44.4199 25.2883 44.5981 25.4454C44.8662 25.7067 45.0655 26.0393 45.1632 26.4141C45.3019 26.9142 45.3666 27.4263 45.36 27.9436L45.3943 32.8503C45.4128 34.2321 45.5805 35.3248 45.9171 36.1378C46.0149 36.3661 46.1337 36.5851 46.2736 36.7923C46.3687 36.9639 46.4941 37.1236 46.6182 37.274C46.9021 37.6119 47.2348 37.9088 47.6059 38.1437C47.5966 38.1543 47.5861 38.1556 47.5768 38.1648C46.8559 38.6373 46.2855 39.3341 45.966 40.1669C45.6452 40.9904 45.4867 42.0778 45.4933 43.4213L45.5409 48.3663C45.5488 49.5817 45.3111 50.392 44.8265 50.813C44.6483 50.9569 44.4582 51.073 44.2443 51.1509C43.8455 51.296 43.4336 51.3831 43.0177 51.4016C42.8922 51.3977 42.4262 51.4491 41.8465 51.3765C40.5513 51.2116 38.6302 50.4422 38.1747 47.2102L41.6841 47.226C41.5138 44.196 39.2877 44.0152 38.9946 43.998ZM49.7124 35.5664C49.2397 34.8973 48.9968 34.079 49.0047 33.2503L48.9598 28.1984C48.969 27.235 48.8634 26.2755 48.6535 25.3293C48.4766 24.5507 48.1253 23.8261 47.6157 23.2349C47.0427 22.6278 46.3442 22.1831 45.5678 21.9548C45.0556 21.7925 44.5248 21.6803 43.9887 21.6169C43.3985 21.5457 42.8123 21.5048 42.2274 21.5114L22.7431 21.4111L21.5614 21.3952L20.1302 21.3926C20.1302 21.3926 20.4959 24.9888 22.0103 28.1245C22.821 29.7913 23.9473 31.3274 25.5251 32.1338C25.8644 34.24 26.6949 37.1342 28.6675 38.8472C29.0121 39.1626 29.4069 39.4371 29.8492 39.6601C30.2902 42.3576 31.5273 45.8747 34.9074 46.9001L34.9167 47.036C34.9246 47.1614 35.4527 54.6178 42.609 54.6535C43.2256 54.6548 43.788 54.6389 44.2766 54.598C44.7862 54.565 45.2813 54.474 45.7633 54.3354C46.5436 54.1348 47.2671 53.7033 47.8428 53.1015C48.3577 52.534 48.7182 51.8161 48.874 51.0295C49.072 50.0859 49.1539 49.1186 49.142 48.1459L49.0945 43.0637C49.072 42.2468 49.3005 41.447 49.7573 40.7832C50.2049 40.1405 50.9258 39.8159 51.8962 39.8198L51.8672 36.5588C50.8954 36.5548 50.1745 36.2262 49.7124 35.5664Z" fill="white"/>
<path fill-rule="evenodd" clip-rule="evenodd" d="M71.2548 36.5861C71.2548 55.8105 55.6511 71.3952 36.4032 71.3952C17.1566 71.3952 1.55286 55.8105 1.55286 36.5861C1.55286 17.363 17.1566 1.77832 36.4032 1.77832C55.6511 1.77832 71.2548 17.363 71.2548 36.5861Z" stroke="#170640" stroke-width="3"/>
</svg>
