<svg width="73" height="65" fill="none" xmlns="http://www.w3.org/2000/svg"><path d="M49.597 12.84l10.888 10.887a1.18 1.18 0 010 1.666L34.12 51.757 22.92 53a2.348 2.348 0 01-2.595-2.595l1.243-11.202 26.364-26.364a1.18 1.18 0 011.666 0zm19.555-2.765l-5.89-5.89c-1.836-1.836-4.817-1.836-6.664 0l-4.273 4.272a1.18 1.18 0 000 1.666l10.888 10.889a1.18 1.18 0 001.666 0l4.273-4.274c1.835-1.847 1.835-4.828 0-6.663zm-21.8 34.511v12.289H8.724V18.247h27.74c.386 0 .748-.157 1.025-.422l4.829-4.829c.917-.917.265-2.474-1.026-2.474h-34.5a5.796 5.796 0 00-5.794 5.794v42.49a5.796 5.796 0 005.794 5.795h42.49a5.796 5.796 0 005.795-5.795V39.758c0-1.292-1.557-1.931-2.475-1.026l-4.828 4.828c-.266.278-.422.64-.422 1.026z" fill="#fff"/><path d="M47.479 12.757L21.766 38.625a1.99 1.99 0 00-.547 1.045c-.577 3.168-1.548 8.887-1.548 10.538-.095 2.029 1.871 2.94 3.069 3.194.165.035.334.037.502.02l10.264-1.066a2 2 0 001.218-.586L60.397 25.7a2 2 0 00-.007-2.814l-10.075-10.13a2 2 0 00-2.836 0z" fill="#0FCE7C"/><rect x="58.739" y="-.088" width="19.333" height="12.365" rx="2" transform="rotate(43.184 58.74 -.088)" fill="#0FCE7C"/></svg>