<svg height="20" width="20" xmlns="http://www.w3.org/2000/svg" xmlns:xlink="http://www.w3.org/1999/xlink"><mask id="a" fill="#fff"><path d="m.042.037h.5v.5h-.5z" fill="none"/></mask><mask id="b" fill="#fff"><path d="m0 .042h.5v.5h-.5z" fill="none"/></mask><mask id="c" fill="#fff"><path d="m0 .018h.5v.5h-.5z" fill="none"/></mask><g fill="none" fill-rule="evenodd"><path d="m.292.037a.25.25 0 1 0 0 .5.25.25 0 0 0 0-.5" fill="#2a2a2a" mask="url(#a)" transform="translate(9.08 19.923)"/><path d="m8.357 19.595a.25.25 0 1 0 0 .5.25.25 0 0 0 0-.5m-.947-.42a.25.25 0 1 0 0 .5.25.25 0 0 0 0-.5m-.893-.52a.25.25 0 1 0 0 .5.25.25 0 0 0 0-.5m-.847-.614a.25.25 0 1 0 0 .5.25.25 0 0 0 0-.5m-.78-.693a.25.25 0 1 0 0 .5.25.25 0 0 0 0-.5m-.7-.76a.25.25 0 1 0 0 .5.25.25 0 0 0 0-.5m-.597-.833a.273.273 0 1 0 0 .546.273.273 0 0 0 0-.546m-.18-.594a.307.307 0 1 0 -.613 0 .307.307 0 0 0 .613 0m-.326-.92a.34.34 0 1 0 -.68 0 .34.34 0 0 0 .68 0m-.207-.96a.373.373 0 1 0 -.747 0 .373.373 0 0 0 .747 0m-.08-.986a.407.407 0 1 0 -.813 0 .407.407 0 0 0 .813 0m-.387-.547a.447.447 0 1 0 0-.893.447.447 0 0 0 0 .893m14.23 5.893a.25.25 0 1 0 0 .5.25.25 0 0 0 0-.5m-1.86.767a.255.255 0 0 0 -.25.25c0 .143.107.25.25.25s.25-.107.25-.25c-.018-.143-.125-.25-.25-.25m.954-.333c-.14 0-.25.11-.25.25s.11.25.25.25c.139 0 .25-.111.25-.25s-.111-.25-.25-.25m-1.934.573a.25.25 0 1 0 0 .5.25.25 0 0 0 0-.5m-1.013.133a.246.246 0 0 0 -.25.25c0 .13.109.25.25.25.13 0 .25-.108.25-.25a.246.246 0 0 0 -.25-.25m-1.013.034a.25.25 0 1 0 0 .5.25.25 0 0 0 0-.5m-1.027-.08a.25.25 0 1 0 0 .5.25.25 0 0 0 0-.5m-1.007-.174a.25.25 0 1 0 0 .5.25.25 0 0 0 0-.5m-.963-.306a.273.273 0 1 0 0 .546.273.273 0 0 0 0-.546m-.907-.42a.3.3 0 1 0 0 .6.3.3 0 0 0 0-.6m-.52-.207a.333.333 0 1 0 -.666 0 .333.333 0 0 0 .666 0m-1.106-.98a.36.36 0 1 0 0 .72.36.36 0 0 0 0-.72m-.687-.747a.393.393 0 1 0 0 .787.393.393 0 0 0 0-.787m-.587.02a.42.42 0 1 0 0-.84.42.42 0 0 0 0 .84m-.026-1.286a.453.453 0 1 0 -.907 0 .453.453 0 0 0 .907 0m15.25-3.774a.25.25 0 1 0 0 .5.25.25 0 0 0 0-.5m-.32.92a.25.25 0 1 0 0 .5.25.25 0 0 0 0-.5m-.934 1.72c-.14 0-.25.11-.25.25s.11.25.25.25c.141 0 .25-.11.25-.25s-.109-.25-.25-.25m.514-.833a.24.24 0 0 0 -.25.25c0 .146.104.25.25.25s.25-.104.25-.25a.24.24 0 0 0 -.25-.25m-1.114 1.62a.25.25 0 1 0 0 .5.25.25 0 0 0 0-.5m-.68.713a.25.25 0 1 0 0 .5.25.25 0 0 0 0-.5m-.76.647a.25.25 0 1 0 0 .5.25.25 0 0 0 0-.5m-.826.56a.25.25 0 1 0 0 .5.25.25 0 0 0 0-.5m-1.824.787a.275.275 0 0 0 -.273.273c0 .153.12.273.273.273.147 0 .274-.12.274-.273a.275.275 0 0 0 -.274-.273m.93-.334a.249.249 0 0 0 -.25.25c0 .14.111.25.25.25s.25-.11.25-.25c.007-.139-.111-.25-.25-.25m-1.89.547a.3.3 0 1 0 0 .6.3.3 0 0 0 0-.6m-.986.08a.327.327 0 1 0 0 .653.327.327 0 0 0 0-.653m-.634.313a.353.353 0 1 0 -.706 0 .353.353 0 0 0 .706 0m-.96-.146a.38.38 0 1 0 -.38.38.384.384 0 0 0 .38-.38m-.92-.274a.407.407 0 1 0 -.813 0 .407.407 0 0 0 .813 0m-.886-.4a.433.433 0 1 0 -.867 0 .433.433 0 0 0 .867 0m9.776-10.973c.146 0 .25-.104.25-.25s-.104-.25-.25-.25a.24.24 0 0 0 -.25.25c0 .125.104.25.25.25m-.773-1.747c.125 0 .25-.125.25-.25s-.125-.25-.25-.25-.25.125-.25.25.125.25.25.25m.433.847c.125 0 .25-.125.25-.25a.269.269 0 0 0 -.25-.25.269.269 0 0 0 -.25.25c0 .156.125.25.25.25m.58 1.827c.14 0 .25-.11.25-.25 0-.141-.11-.25-.25-.25s-.25.109-.25.25c0 .14.11.25.25.25m-.11.696a.25.25 0 1 0 .5 0 .25.25 0 0 0 -.5 0m.284.71a.25.25 0 1 0 0 .5.25.25 0 0 0 0-.5m-.067.967a.25.25 0 1 0 0 .5.25.25 0 1 0 0-.5m-.18.953c-.14 0-.25.117-.25.25 0 .14.11.25.25.25s.25-.11.25-.25c.007-.14-.11-.25-.25-.25m-.043 1.177a.25.25 0 1 0 -.5 0 .25.25 0 0 0 .5 0m-.654.623a.273.273 0 1 0 0 .547.273.273 0 0 0 0-.547m-.513.827a.3.3 0 1 0 0 .6.3.3 0 0 0 0-.6m-.62.747a.327.327 0 1 0 .001.654.327.327 0 0 0 -.001-.654m-.713.66a.353.353 0 1 0 0 .706.353.353 0 0 0 0-.706m-.794.566a.38.38 0 1 0 0 .76.38.38 0 0 0 0-.76m-.866.454a.407.407 0 1 0 0 .813.407.407 0 0 0 0-.813m-1.354.766a.432.432 0 1 0 .865.002.432.432 0 0 0 -.865-.002" fill="#15ef91"/><path d="m.25.542c.125 0 .25-.125.25-.25a.269.269 0 0 0 -.25-.25.269.269 0 0 0 -.25.25c0 .187.063.25.25.25" fill="#2a2a2a" mask="url(#b)" transform="translate(10.88 .003)"/><g fill="#15ef91"><path d="m12.05.781a.25.25 0 1 0 0-.5.25.25 0 0 0 0 .5m2.5 1.374a.25.25 0 0 0 .25-.25.25.25 0 0 0 -.25-.25.25.25 0 0 0 -.25.25c0 .137.113.25.25.25m-.78-.554c.14 0 .25-.11.25-.25s-.11-.25-.25-.25-.25.11-.25.25.11.25.25.25m-.84-.453c.146 0 .25-.104.25-.25s-.104-.25-.25-.25a.24.24 0 0 0 -.25.25c0 .125.104.25.25.25m2.333 1.633a.25.25 0 1 0 0-.5.25.25 0 0 0 0 .5m1.207 1.474c.14 0 .25-.118.25-.25 0-.141-.11-.25-.25-.25s-.25.109-.25.25.11.25.25.25m-.56-.767a.25.25 0 1 0 0-.5.25.25 0 0 0 -.25.25c-.009.134.107.25.25.25m1.013 1.607a.25.25 0 1 0 0-.5.25.25 0 0 0 0 .5m.297 1.62c0 .166.133.3.3.3s.3-.134.3-.3-.133-.3-.3-.3a.308.308 0 0 0 -.3.3m-.207-.96c0 .146.12.273.274.273.146 0 .273-.12.273-.273a.275.275 0 0 0 -.273-.274.279.279 0 0 0 -.274.274m.294 1.946a.327.327 0 1 0 .654 0 .327.327 0 0 0 -.654 0m.66.994a.353.353 0 1 0 -.707 0 .353.353 0 0 0 .707 0m-.12.98a.38.38 0 1 0 -.76 0 .38.38 0 0 0 .76 0m-.247.953a.407.407 0 1 0 -.813 0 .407.407 0 0 0 .813 0m-.8.473a.433.433 0 1 0 0 .867.433.433 0 0 0 0-.867m-12.977-8.306a.25.25 0 1 0 0-.5.25.25 0 0 0 0 .5m.854-.487a.25.25 0 1 0 0-.5.25.25 0 0 0 0 .5m.893-.393a.25.25 0 1 0 0-.5.25.25 0 0 0 0 .5m.927-.294a.25.25 0 1 0 0-.5.25.25 0 0 0 0 .5m.946-.193a.25.25 0 1 0 0-.5.25.25 0 0 0 0 .5m.967-.087a.25.25 0 1 0 0-.5.25.25 0 0 0 0 .5m.96.02a.25.25 0 1 0 0-.5.25.25 0 0 0 0 .5m.953.12a.25.25 0 1 0 0-.5.25.25 0 0 0 0 .5m.927.24a.25.25 0 1 0 0-.5.25.25 0 0 0 0 .5m2.523 1.587a.327.327 0 1 0 -.326-.327c0 .18.153.327.326.327m-1.62-1.18c.147 0 .267-.12.267-.273a.273.273 0 0 0 -.267-.274.275.275 0 0 0 -.273.274c0 .153.12.273.273.273m.554.24c0 .167.133.3.3.3.166 0 .3-.133.3-.3s-.134-.3-.3-.3a.308.308 0 0 0 -.3.3m1.76 1.687c.193 0 .353-.16.353-.354a.356.356 0 0 0 -.353-.353.356.356 0 0 0 -.354.353c0 .194.154.354.354.354m.586.06a.38.38 0 1 0 0 .76.38.38 0 0 0 0-.76m.074 1.246a.407.407 0 1 0 .813 0 .407.407 0 0 0 -.813 0m.333.927a.432.432 0 1 0 .867 0 .432.432 0 1 0 -.867 0m.673.5a.46.46 0 1 0 0 .92.46.46 0 0 0 0-.92"/><path d="m.25.018a.25.25 0 1 0 0 .5.25.25 0 0 0 0-.5" mask="url(#c)" transform="translate(0 9.05)"/><path d="m.497 8.061a.25.25 0 1 0 0 .5.25.25 0 0 0 0-.5m.59-.716a.25.25 0 1 0 -.5 0 .25.25 0 0 0 .5 0m.183-.664a.25.25 0 1 0 0-.5.25.25 0 0 0 0 .5m.53-.853a.253.253 0 1 0 0-.507.253.253 0 0 0 0 .507m.653-.687a.307.307 0 1 0 0-.613.307.307 0 0 0 0 .613m.734-.62a.36.36 0 1 0 0-.72.36.36 0 0 0 0 .72m.793-.54a.407.407 0 1 0 0-.813.407.407 0 0 0 0 .813m.86-.433a.46.46 0 1 0 0-.92.46.46 0 0 0 0 .92"/><path d="m5.76 3.221a.504.504 0 0 0 .5-.433.565.565 0 0 0 .96-.06.615.615 0 0 0 .487.247c.18 0 .34-.08.453-.2a.663.663 0 0 0 .92.16c.027.04.053.073.087.106a.77.77 0 0 0 -.434.2.718.718 0 0 0 -.48-.186.701.701 0 0 0 -.573.293.672.672 0 0 0 -1.02.247.632.632 0 0 0 -.353-.107c-.3 0-.554.207-.614.487a.595.595 0 0 0 -.9.507.552.552 0 0 0 -.807.633.516.516 0 0 0 -.78.44.514.514 0 0 0 1.027 0 .388.388 0 0 0 -.02-.127c.087.06.194.093.3.093.3 0 .54-.24.554-.533.093.06.2.093.313.093h.033a.669.669 0 0 0 -.22.447.647.647 0 0 0 -.767.633c0 .027 0 .054.007.074-.026 0-.046-.007-.073-.007a.612.612 0 0 0 -.58.807h-.033a.58.58 0 0 0 -.58.58c0 .113.033.213.086.3h-.02a.55.55 0 0 0 -.373.946h-.02a.514.514 0 0 0 -.202.987.48.48 0 1 0 .11.032.514.514 0 0 0 .451-.872h.034c.16 0 .3-.067.4-.173v.02c0 .14.047.266.127.373a.606.606 0 0 0 -.4.567c0 .186.08.346.213.46a.573.573 0 1 0 -.027 1.027.549.549 0 0 0 -.3.486c0 .26.18.473.42.527a.508.508 0 0 0 -.28.453c0 .28.227.513.514.513.033 0 .06-.006.093-.006a.482.482 0 0 0 -.34.46c0 .266.214.48.48.48s.48-.214.48-.48a.478.478 0 0 0 -.48-.48c-.026 0-.06.006-.086.006a.516.516 0 0 0 .36-.486c0-.014 0-.027-.007-.034a.66.66 0 0 0 .3.18.566.566 0 0 0 .433.933h.014c-.067.087-.1.2-.1.314 0 .3.24.54.54.54a.657.657 0 0 0 .16-.02.52.52 0 0 0 -.087.287.51.51 0 0 0 .833.4.482.482 0 0 0 -.12.313c0 .267.22.487.487.487a.486.486 0 1 0 .353-.82.578.578 0 0 0 .187-.034v.007c0 .233.133.433.327.527-.027-.007-.06-.007-.087-.007a.46.46 0 0 0 0 .92.46.46 0 0 0 .46-.46c0-.173-.1-.327-.24-.4.047.013.093.02.14.02.113 0 .22-.033.313-.093a.567.567 0 0 0 .974.346.538.538 0 0 0 1.006.167.514.514 0 0 0 .5.413c.267 0 .48-.2.507-.46.02.254.227.454.48.454a.487.487 0 1 0 .013-.973c.047-.047.08-.1.114-.154.106.113.26.18.426.18.06 0 .127-.007.18-.027a.46.46 0 1 0 .72.38.46.46 0 0 0 -.593-.44.605.605 0 0 0 .273-.373c.1.087.227.133.367.133a.566.566 0 0 0 .567-.566v-.014c.086.067.2.1.313.1.3 0 .54-.24.54-.54a.658.658 0 0 0 -.02-.16.52.52 0 0 0 .287.087.51.51 0 0 0 .4-.833c.086.073.193.12.313.12a.49.49 0 0 0 .487-.487.486.486 0 1 0 -.82-.353.579.579 0 0 0 -.034-.187h.007a.582.582 0 0 0 .527-.327c-.007.027-.007.06-.007.087a.46.46 0 0 0 .92 0 .46.46 0 0 0 -.46-.46c-.173 0-.327.1-.4.24a.507.507 0 0 0 .02-.14.575.575 0 0 0 -.093-.313.567.567 0 0 0 .346-.974.538.538 0 0 0 .167-1.006.514.514 0 0 0 .413-.5c0-.267-.2-.48-.46-.507a.486.486 0 0 0 .454-.48.49.49 0 0 0 -.487-.487.49.49 0 0 0 -.487.487c0 .253.187.453.434.48a.515.515 0 0 0 -.48.507c0 .193.106.36.266.446a.544.544 0 0 0 -.446.534c0 .146.06.28.16.38a.568.568 0 0 0 -.494.56c0 .106.027.2.08.286a.593.593 0 0 0 -.533.767h-.027c-.34 0-.62.28-.62.62v.047c-.033-.007-.066-.007-.1-.007a.647.647 0 0 0 -.64.553.677.677 0 0 0 -.793.36.598.598 0 0 0 -.92.22.594.594 0 0 0 -.96.12.589.589 0 0 0 -.46-.22.62.62 0 0 0 -.44.187.59.59 0 0 0 -.887-.24.597.597 0 0 0 -.32-.407.596.596 0 0 0 -.5-.006.589.589 0 0 0 -.226-.447.602.602 0 0 0 -.467-.12.6.6 0 0 0 -.1-.493.61.61 0 0 0 -.467-.24.604.604 0 0 0 -.02-.514.572.572 0 0 0 -.366-.293.61.61 0 0 0 .113-.46.573.573 0 0 0 -.293-.42.6.6 0 0 0 .233-.48.578.578 0 0 0 -.207-.44c.147-.073.267-.213.314-.387s.006-.346-.094-.486a.592.592 0 0 0 .427-.78.603.603 0 0 0 .62-.687.592.592 0 0 0 .733-.52c.154.08.34.093.507.02a.577.577 0 0 0 .327-.347c.12.107.286.167.46.154a.6.6 0 0 0 .446-.274c.1.14.26.24.44.254.18.013.34-.054.46-.167a.61.61 0 0 0 .367.347.6.6 0 0 0 .513-.067.59.59 0 0 0 .727.467c.013.02.033.046.053.066.007.127.06.254.147.354l.013.013c.3.32 1.007 1.087.874 2.12-.034.26.113.387.293.187 1.12-1.207.947-2.687.92-2.86a1.02 1.02 0 0 0 -.073-.32.938.938 0 0 0 -.36-.953.727.727 0 0 0 .02-.174.928.928 0 0 0 -.574-.853.867.867 0 0 0 -.74-.847.843.843 0 0 0 -.82-.687h-.046a.785.785 0 0 0 -.954-.52.751.751 0 0 0 -1.006-.366.703.703 0 0 0 -.614-.347c-.166 0-.32.06-.44.153a.654.654 0 0 0 -.533-.273c-.207 0-.393.1-.513.247a.6.6 0 0 0 -.474-.227.603.603 0 0 0 -.553.36.555.555 0 0 0 -.98.3.515.515 0 0 0 -.407-.2.506.506 0 0 0 -.506.507c-.014.26.213.486.493.486m-3.21 13.147a.25.25 0 1 0 0 .5.25.25 0 0 0 0-.5m-.5-.913a.25.25 0 1 0 0 .5.25.25 0 0 0 0-.5m-.407-.96a.25.25 0 1 0 0 .5.25.25 0 0 0 0-.5m-.313-1a.25.25 0 1 0 0 .5.25.25 0 0 0 0-.5m.05-.764a.25.25 0 1 0 -.5 0 .25.25 0 0 0 .5 0m-.1-1.026a.25.25 0 1 0 -.5 0 .25.25 0 0 0 .5 0m-.493-1.004a.273.273 0 1 0 .546 0 .273.273 0 0 0 -.546 0m.42-.666a.313.313 0 1 0 0-.627.313.313 0 0 0 0 .627m.273-1.62a.353.353 0 1 0 0 .706.353.353 0 0 0 0-.706m.393-.16a.393.393 0 1 0 0-.787.393.393 0 0 0 0 .787"/><path d="m2.387 7.441a.433.433 0 1 0 0-.866.433.433 0 0 0 0 .866m1.086-1.206a.473.473 0 1 0 -.946 0 .473.473 0 0 0 .946 0"/></g></g></svg>