<svg height="17" width="17" xmlns="http://www.w3.org/2000/svg" xmlns:xlink="http://www.w3.org/1999/xlink"><mask id="a" fill="#fff"><path d="m0 0h16.82v16.82h-16.82z" fill="#fff" fill-rule="evenodd"/></mask><path d="m11.973 8.464a.28.28 0 0 1 -.023.044.288.288 0 0 1 -.138.111l-3.218 1.883a.29.29 0 0 1 -.365-.001l-3.197-1.869a.29.29 0 0 1 -.211-.282.292.292 0 0 1 .076-.203l3.253-5.37a.29.29 0 0 1 .525-.001l3.256 5.383c.037.044.06.099.066.157.002.028.001.034.001.04a.303.303 0 0 1 -.025.108zm-.254 1.36-3.054 4.239a.29.29 0 0 1 -.506-.001l-3.049-4.226a.279.279 0 0 1 -.036-.056l-.01-.023a.29.29 0 0 1 .439-.342l2.908 1.7 2.91-1.702c.258-.179.576.124.41.391a.61.61 0 0 1 -.013.02zm-11.719-1.414c0 4.639 3.77 8.41 8.41 8.41s8.41-3.771 8.41-8.41c0-4.64-3.77-8.41-8.41-8.41s-8.41 3.77-8.41 8.41z" fill="#15ef91" fill-rule="evenodd" mask="url(#a)"/></svg>