<svg width="277" height="369" viewBox="0 0 277 369" xmlns="http://www.w3.org/2000/svg"><style>@-webkit-keyframes colors{0%{stroke:#0cc67f;fill:rgba(#0cc67f,.6)}15%{stroke:#1e6ee2;fill:rgba(#1e6ee2,.6)}30%{stroke:#662d91;fill:rgba(#662d91,.6)}50%{stroke:#018cb2;fill:rgba(#018cb2,.6)}65%{stroke:#e57418;fill:rgba(#e57418,.6)}85%{stroke:#4d4d4d;fill:rgba(#4d4d4d,.6)}}@keyframes colors{0%{stroke:#0cc67f;fill:rgba(#0cc67f,.6)}15%{stroke:#1e6ee2;fill:rgba(#1e6ee2,.6)}30%{stroke:#662d91;fill:rgba(#662d91,.6)}50%{stroke:#018cb2;fill:rgba(#018cb2,.6)}65%{stroke:#e57418;fill:rgba(#e57418,.6)}85%{stroke:#4d4d4d;fill:rgba(#4d4d4d,.6)}}@-webkit-keyframes opacity{0%{opacity:.1}}@keyframes opacity{0%{opacity:.1}}.animate-colors,.animate-opacity{-webkit-animation:colors 3s linear infinite;animation:colors 3s linear infinite;-webkit-animation-direction:alternate;animation-direction:alternate}.animate-opacity{-webkit-animation:opacity 2s linear infinite;animation:opacity 2s linear infinite}.animate-opacity:nth-of-type(1){-webkit-animation-delay:1s;animation-delay:1s}</style><g id="Page-1" fill="none" fill-rule="evenodd"><g id="Updated-Landing" transform="translate(-229 -4947)"><g id="erc-721" transform="translate(192 4928)"><path id="Stroke-2-Copy-3" class="animate-opacity" stroke="#05B66A" stroke-width="8.6" opacity=".179" d="M124.706 24L41.568 72l.683 97.18 83.817 49.179 83.138-48-.678-97.179z"/><path id="Stroke-2-Copy-4" class="animate-opacity" stroke="#05B66A" stroke-width="8.6" opacity=".179" d="M224.706 188l-83.138 48 .683 97.18 83.817 49.179 83.138-48-.678-97.179z"/><path id="Stroke-2-Copy-5" class="animate-colors" stroke="#405366" stroke-width="4" d="M226.56 274.572l-12.373 7.144.101 14.464 12.475 7.32 12.374-7.145-.1-14.463z"/><g id="eth-symbol" class="animate-colors" transform="translate(100 79)" stroke="#405366" stroke-linejoin="round" stroke-width="3.293"><path id="Stroke-3" d="M25 87L0 52l25 14.785z"/><path id="Stroke-5" d="M26 87l25-35-25 14.785z"/><path id="Stroke-7" d="M25 30.58L0 42 25 0v30.58V0z"/><path id="Stroke-9" d="M26 30.58L51 42 26 0v30.58V0z"/><path id="Stroke-11" d="M26 57l25-14.711L26 31z"/><path id="Stroke-13" d="M25 57L0 42.289 25 31z"/></g><path id="Rectangle-18" stroke="#405366" stroke-width="4" fill-rule="nonzero" d="M199 265h55v49h-55z"/><path id="Rectangle-18-Copy" stroke="#405366" stroke-width="4" fill-rule="nonzero" d="M191 254h71v11h-71z"/></g></g></g></svg>