<?xml version="1.0" encoding="UTF-8"?>
<svg width="277px" height="369px" viewBox="0 0 277 369" version="1.1" xmlns="http://www.w3.org/2000/svg" xmlns:xlink="http://www.w3.org/1999/xlink">
    <!-- Generator: Sketch 51.2 (57519) - http://www.bohemiancoding.com/sketch -->
    <title>how-get</title>
    <desc>Created with Sketch.</desc>
    <style>
        .animate-colors {
            -webkit-animation: colors 3s linear infinite;
                    animation: colors 3s linear infinite;
            -webkit-animation-direction: alternate;
                    animation-direction: alternate;
        }
        @-webkit-keyframes colors {
            0% {
                stroke:#0cc67f;
                fill:rgba(#0cc67f,0.6);
            }
            15% {
                stroke:#1e6ee2;
                fill:rgba(#1e6ee2,0.6);
            }
            30% {
                stroke:#662d91;
                fill:rgba(#662d91,0.6);
            }
            50% {
                stroke:#018cb2;
                fill:rgba(#018cb2,0.6);
            }
            65% {
                stroke:#e57418;
                fill:rgba(#e57418,0.6);
            }
            85% {
                stroke:#4d4d4d;
                fill:rgba(#4d4d4d,0.6);
            }
            100% {
                stroke:#0044e0;
                fill:rgba(#0044e0,0.6);
            }                               
    
        }
        @keyframes colors {
            0% {
                stroke:#0cc67f;
                fill:rgba(#0cc67f,0.6);
            }
            15% {
                stroke:#1e6ee2;
                fill:rgba(#1e6ee2,0.6);
            }
            30% {
                stroke:#662d91;
                fill:rgba(#662d91,0.6);
            }
            50% {
                stroke:#018cb2;
                fill:rgba(#018cb2,0.6);
            }
            65% {
                stroke:#e57418;
                fill:rgba(#e57418,0.6);
            }
            85% {
                stroke:#4d4d4d;
                fill:rgba(#4d4d4d,0.6);
            }
            100% {
                stroke:#0044e0;
                fill:rgba(#0044e0,0.6);
            }                               
    
        }
        .animate-opacity {
            -webkit-animation: opacity 2s linear infinite;
            animation: opacity 2s linear infinite;
            -webkit-animation-direction: alternate;
            animation-direction: alternate;
        }
        .animate-opacity:nth-of-type(1) {
        -webkit-animation-delay: 1s;
          animation-delay: 1s;
        }

        @-webkit-keyframes opacity {
            0% {
                opacity: 0.1;
            }
            
            100% {
                opacity: 0.4;
            }                               
        }
        @keyframes opacity {
            0% {
                opacity: 0.1;
            }
            
            100% {
                opacity: 0.4;
            }                               
        }
    </style>
    <defs></defs>
    <g id="Page-1" stroke="none" stroke-width="1" fill="none" fill-rule="evenodd">
        <g id="Updated-Landing" transform="translate(-868.000000, -4422.000000)">
            <g id="how-get" transform="translate(831.000000, 4403.000000)">
                <g id="Group-39" transform="translate(62.000000, 84.000000)" stroke-linecap="round" stroke-width="4.644">
                    <g id="arrow-right" class="animate-colors" stroke="#405366">
                        <path d="M61.785015,44.9118557 L67.428565,39.5103093 C67.482815,39.4561856 67.482815,39.3664948 67.428565,39.3139175 L61.785015,33.9108247" id="Stroke-1"></path>
                        <path d="M67.458325,39.4119588 L47.584225,39.4119588" id="Stroke-3" ></path>
                    </g>
                    <g id="arrow-left" class="animate-colors" stroke="#405366">
                        <path d="M53.26761,19.7256186 L47.62561,25.1287113 C47.56981,25.1812887 47.56981,25.2709794 47.62561,25.3251031 L53.26761,30.7266495" id="Stroke-5" ></path>
                        <path d="M47.594455,25.2270619 L67.468555,25.2270619" id="Stroke-7" ></path>
                    </g>
                    <path d="M82.13791,60.5072165 L82.13791,74.6829897" id="Stroke-9" stroke="#405366"></path>
                    <path d="M102.433145,45.851134 L100.483245,47.2026804 C97.615745,49.1897938 93.810495,49.1897938 90.941445,47.2026804 L88.993095,45.8526804" id="Stroke-11" stroke="#405366"></path>
                    <path d="M109.28709,60.5072165 L109.28709,74.6829897" id="Stroke-13" stroke="#405366"></path>
                    <path d="M109.08435,20.3780412 C109.08435,28.5646392 103.09825,39.474433 95.7125,39.474433 C88.32675,39.474433 82.34065,28.5646392 82.34065,20.3780412" id="Stroke-15" stroke="#405366"></path>
                    <path d="M80.25187,19.897732 C88.42657,19.897732 93.53692,12.2601031 93.53692,12.2601031 C93.53692,12.2601031 100.69327,19.897732 111.93387,19.897732" id="Stroke-17" stroke="#405366" stroke-linejoin="round"></path>
                    <path d="M95.7125,1.96778351 C86.4745,-4.80541237 68.5689,5.77190722 77.6085,35.8322165 C81.003,47.1224227 67.425,51.6378866 67.425,51.6378866 C67.425,51.6378866 88.9235,58.4110825 91.1865,38.0914948" id="Stroke-19" stroke="#405366" stroke-linejoin="round"></path>
                    <path d="M95.7125,1.96778351 C104.9505,-4.80541237 122.8561,5.77190722 113.8165,35.8322165 C110.422,47.1224227 124,51.6378866 124,51.6378866 C124,51.6378866 102.5015,58.4110825 100.2385,38.0914948" id="Stroke-21" stroke="#405366" stroke-linejoin="round"></path>
                    <path d="M74.042725,52.6982474 C73.270825,53.683299 72.622925,54.761134 72.095925,55.9425773 C70.888475,58.6487629 70.313425,61.8930928 70.313425,65.7606186 L70.313425,70.518866 C70.313425,72.8198969 72.182725,74.683299 74.486025,74.683299 L116.938975,74.683299 C119.242275,74.683299 121.111575,72.8198969 121.111575,70.518866 L121.111575,65.7606186 C121.111575,61.8930928 120.536525,58.6487629 119.329075,55.9425773 C118.802075,54.761134 118.154175,53.683299 117.382275,52.6982474" id="Stroke-23" stroke="#405366"></path>
                    <path d="M38.706135,25.4310309 C36.801185,32.315567 31.402535,39.2001031 25.039785,39.2001031 C18.650685,39.2001031 13.231885,32.2614433 11.350185,25.3475258" id="Stroke-25" stroke="#405366"></path>
                    <path d="M11.656775,60.7080928 L11.656775,74.6828351" id="Stroke-27" stroke="#405366"></path>
                    <path d="M45.964165,74.6829897 C48.236465,74.6829897 50.077865,72.8458763 50.077865,70.578866 L50.077865,65.8886598 C50.077865,54.1948454 44.745865,48.2860825 32.465215,45.7051546 L25.039165,50.8515464 L17.613115,45.7051546 C5.330915,48.2860825 0.000465,54.1948454 0.000465,65.8886598 L0.000465,70.578866 C0.000465,72.8458763 1.841865,74.6829897 4.114165,74.6829897 L45.964165,74.6829897 Z" id="Stroke-29" stroke="#405366"></path>
                    <path d="M38.421555,60.7080928 L38.421555,74.6828351" id="Stroke-31" stroke="#405366"></path>
                    <path d="M17.611565,45.7046907 C19.460715,44.1753093 19.460715,37.4964433 19.460715,37.4964433" id="Stroke-33" stroke="#405366"></path>
                    <path d="M32.465215,45.7046907 C30.617615,44.1753093 30.617615,37.4964433 30.617615,37.4964433" id="Stroke-35" stroke="#405366"></path>
                    <path d="M24.60935,-1.42108547e-14 C38.2168,-1.42108547e-14 44.0045,5.0628866 39.6676,24.8505155 C39.49555,25.6360825 38.378,25.6685567 38.1641,24.892268 C37.36585,21.9865979 36.26225,16.0948454 36.26225,16.0948454 C36.2266,15.3664948 35.5973,14.885567 34.8657,14.8778351 C30.0886,14.8268041 24.80155,11.8113402 24.80155,11.8113402 C24.118,11.6721649 23.50265,12.2195876 23.6406,12.8489691 L25.62615,18.1639175 L16.78185,13.4984536 C15.9402,13.0592784 14.8738,13.2417526 14.2631,13.9329897 L11.91485,24.7994845 C11.71025,25.5835052 10.5803,25.5618557 10.40825,24.7731959 C6.09615,5.05051546 11.80015,-1.42108547e-14 25.389,-1.42108547e-14" id="Stroke-37" stroke="#405366" stroke-linejoin="round"></path>
                </g>
                <g id="Group-7" transform="translate(194.000000, 235.000000)" stroke="#405366" stroke-width="5.16">
                    <polygon id="Stroke-1" points="0 86.4326923 49.0632911 86.4326923 49.0632911 24.8173077 0 24.8173077"></polygon>
                    <polyline id="Stroke-3" points="49.0632911 85.9436813 49.0632911 24.8173077 68 24.8173077 68 89"></polyline>
                    <polyline id="Stroke-4" points="49.0632911 85.5769231 52.2194093 85.5769231 58.5316456 79.5865385 64.8438819 85.5769231 68 85.5769231"></polyline>
                    <path d="M24.9620253,0 C16.4064203,0 9.46835443,6.94264183 9.46835443,15.5108173 L9.46835443,24.8173077 L40.4556962,24.8173077 L40.4556962,15.5108173 C40.4556962,6.94264183 33.5176304,0 24.9620253,0 Z" id="Stroke-5"></path>
                    <path d="M43.0379747,0 C34.4823696,0 27.5443038,6.94264183 27.5443038,15.5108173 L27.5443038,24.8173077 L58.5316456,24.8173077 L58.5316456,15.5108173 C58.5316456,6.94264183 51.5935797,0 43.0379747,0 Z" id="Stroke-6"></path>
                </g>
                <polygon id="Stroke-2" class="animate-opacity" stroke="#3E00FF" stroke-width="8.6" opacity="0.117745536" transform="translate(125.388439, 121.179147) rotate(-30.000000) translate(-125.388439, -121.179147) " points="173.38708 36.6791466 77.3870803 36.6791466 29.3884388 121.180527 77.3870803 205.679147 173.38708 205.679147 221.388439 121.180527"></polygon>
                <polygon id="Stroke-2-Copy-2" class="animate-opacity" stroke="#3E00FF" stroke-width="8.6" opacity="0.117745536" transform="translate(225.388439, 285.179147) rotate(-30.000000) translate(-225.388439, -285.179147) " points="273.38708 200.679147 177.38708 200.679147 129.388439 285.180527 177.38708 369.679147 273.38708 369.679147 321.388439 285.180527"></polygon>
                <g id="Group-15-Copy-6" class="animate-colors" transform="translate(205.000000, 266.000000)" stroke="#405366" stroke-linejoin="round" stroke-width="3.2928">
                    <polygon id="Stroke-3" points="14 49 0 29 14 37.448653"></polygon>
                    <polygon id="Stroke-5" points="15 49 29 29 15 37.448653"></polygon>
                    <polygon id="Stroke-7" points="14 17.4745095 0 24 14 0 14 17.4745095 14 0"></polygon>
                    <polygon id="Stroke-9" points="15 17.4745095 29 24 15 0 15 17.4745095 15 0"></polygon>
                    <polygon id="Stroke-11" points="15 32 29 23.5128824 15 17"></polygon>
                    <polygon id="Stroke-13" points="14 32 0 23.5128824 14 17"></polygon>
                </g>
            </g>
        </g>
    </g>
</svg>