<svg width="103" height="64" fill="none" xmlns="http://www.w3.org/2000/svg">
  <path opacity=".86"
        d="M50.29 36.85A1.5 1.5 0 1 0 52.37 39l-2.08-2.16zm5.54-3.24l1.04 1.08.01-.01.01-.01-1.06-1.06zm0-.16l1.06-1.06v-.01l-.02-.01-1.04 1.08zm-3.46-5.4a1.5 1.5 0 1 0-2.08 2.16l2.08-2.16zm-6.8-9.19a1.5 1.5 0 0 0-2.08-2.16l2.08 2.16zm-5.55 3.24L39 21.02h-.01v.01l1.04 1.07zm-.03.08h-1.5H40zm.03.08l-1.05 1.07.02.01 1.03-1.08zm3.47 5.4a1.5 1.5 0 0 0 2.08-2.16l-2.08 2.16zm12.37 7.37a1.5 1.5 0 1 0 0-3v3zm-15.87-3a1.5 1.5 0 0 0 0 3v-3zm0-11.35a1.5 1.5 0 0 0 0 3v-3zm15.88 3a1.5 1.5 0 1 0 0-3v3zm-3.5 15.33l4.5-4.32-2.07-2.16-4.51 4.32L52.37 39zm4.52-4.34c.15-.15.27-.33.35-.52L54.47 33c.07-.17.17-.32.3-.45l2.12 2.12zm.35-.52c.08-.2.13-.4.13-.62h-3c0-.18.03-.36.1-.53l2.77 1.15zm.13-.62c0-.21-.05-.42-.13-.62l-2.77 1.15c-.07-.17-.1-.35-.1-.53h3zm-.13-.62c-.08-.2-.2-.37-.35-.52l-2.12 2.12a1.39 1.39 0 0 1-.3-.45l2.77-1.15zm-.37-.54l-4.5-4.32-2.08 2.16 4.5 4.32 2.08-2.16zM43.5 16.7l-4.5 4.32 2.07 2.17 4.5-4.33-2.07-2.16zm-4.52 4.33a1.6 1.6 0 0 0-.35.53l2.76 1.16a1.4 1.4 0 0 1-.3.45l-2.1-2.14zm-.35.53c-.09.2-.13.4-.13.62h3c0 .19-.04.37-.1.54l-2.77-1.16zm-.13.62c0 .22.04.43.13.62l2.76-1.16c.07.17.11.36.11.54h-3zm.13.62c.08.2.2.38.35.53l2.1-2.14c.14.13.24.28.31.45l-2.76 1.16zm.37.54l4.5 4.32 2.08-2.16-4.5-4.32-2.08 2.16zm16.87 8.69H39.99v3h15.87v-3zM40 23.68h15.87v-3H40v3z"
        class="animated-fill"/>
  <path opacity=".86"
        d="M69.08 50.4a1.5 1.5 0 0 0-3 0h3zm-3 11.35a1.5 1.5 0 0 0 3 0h-3zM84.64 39.9a1.5 1.5 0 1 0-1.72-2.46l1.72 2.46zm-2.42-.15l.86 1.23-.86-1.23zm-3.8 1.2v-1.5 1.5zm-3.81-1.2L73.75 41l.86-1.23zm-.7-2.31a1.5 1.5 0 0 0-1.71 2.46l1.7-2.46zm16.84 12.96a1.5 1.5 0 0 0-3 0h3zm-3 11.34a1.5 1.5 0 0 0 3 0h-3zM90.6 18.3a1.5 1.5 0 0 0-3 0h3zm-21.35 0a1.5 1.5 0 0 0-3 0h3zm-3.17-1.88a1.5 1.5 0 0 0 0 3v-3zm10.6-4.61l1.1-1.03a1.5 1.5 0 0 0-2.34.2l1.25.83zm14.7 7.6a1.5 1.5 0 0 0 0-3v3zM78.42 3.58l-.9 1.21a1.5 1.5 0 0 0 1.78 0l-.88-1.2zm-14.46 27.1l1.44-.44-1.44.44zM55.83 43.3l-.47-1.42a1.5 1.5 0 0 0 .02 2.85l.45-1.43zM76.3 32.64a1.5 1.5 0 1 0-2.98-.33l2.98.33zm16.58-1.97l-1.44-.44 1.44.44zM101 43.3l.45 1.43a1.5 1.5 0 0 0 .02-2.85L101 43.3zm-17.48-11a1.5 1.5 0 1 0-2.98.33l2.98-.33zM62.3 45.08a1.5 1.5 0 1 0-2.37-1.84l2.37 1.84zm-2.74 1.67l1.37.61-1.37-.6zm-1.42 11.66h1.5-1.5zm3.33 3.34v-1.5 1.5zm33.9 0v1.5-1.5zm3.32-3.34h-1.5 1.5zm-1.42-11.66l-1.37.61 1.37-.6zm-.37-3.51a1.5 1.5 0 1 0-2.37 1.84l2.37-1.84zm-62.55-20.5a1.5 1.5 0 1 0-2.9-.8l2.9.8zM12.5 21.9a1.5 1.5 0 0 0-2.9.78l2.9-.79zm.3 28.68a1.5 1.5 0 0 0-3 0h3zm-3 11.18a1.5 1.5 0 0 0 3 0h-3zm28.89 0v-1.5 1.5zm3.28-3.29h-1.5 1.5zM22 42.68l-.86 1.23.86.6.86-.6-.86-1.23zm-5.93-4.12l.86-1.23-.53-.37-.64.14.31 1.46zM2 58.46h1.5H2zm3.29 3.29v-1.5 1.5zm28.88-11.18a1.5 1.5 0 0 0-3 0h3zm-3 11.18a1.5 1.5 0 0 0 3 0h-3zM15.1 37.4a1.5 1.5 0 1 0 1.92 2.3l-1.92-2.3zM19.04 32a1.5 1.5 0 0 0-3 0h3zm8.9 0a1.5 1.5 0 0 0-3 0h3zM21.64.5a1.5 1.5 0 0 0 0 3v-3zm12.03 21.38l-1.47-.32 1.47.32zm-1.2.03l1.45-.4-1.45.4zm-1.52-7.03l-1.5.07c0 .07.01.13.03.2l1.47-.27zm-1.11-.98l-.02 1.5.02-1.5zm-8.04-2.45l.75-1.3a1.5 1.5 0 0 0-.45-.17l-.3 1.47zm-.93.83l-1.46.32c.01.07.03.14.06.2l1.4-.52zm1.59 4.25l-.7 1.33a1.5 1.5 0 0 0 2.1-1.85l-1.4.52zM15.4 12.8l.7-1.33-.7 1.33zm-2.01.35l-1.13-1c-.17.2-.28.43-.34.68l1.47.32zm-1.88 8.69l1.45.38.02-.06-1.47-.32zm-1.2-.02l1.46-.32-1.46.32zM22.27 3.5a1.5 1.5 0 0 0 0-3v3zm43.8 46.9v11.35h3V50.4h-3zm16.85-12.95l-1.55 1.08L83.08 41l1.56-1.08-1.72-2.46zm-1.55 1.08c-.87.6-1.9.92-2.95.92v3c1.66 0 3.3-.5 4.66-1.46l-1.71-2.46zm-2.95.92a5.18 5.18 0 0 1-2.96-.92l-1.7 2.46c1.36.96 2.99 1.46 4.66 1.46v-3zm-2.96-.92l-1.55-1.08-1.71 2.46L73.75 41l1.71-2.46zm12.3 11.88v11.34h3V50.4h-3zm-.17-32.1c0 2.95-1.1 6.49-2.89 9.28-1.82 2.83-4.1 4.49-6.28 4.49v3c3.7 0 6.77-2.7 8.8-5.87a21.17 21.17 0 0 0 3.37-10.9h-3zm-9.17 13.77c-2.2 0-4.46-1.66-6.3-4.5a18.19 18.19 0 0 1-2.88-9.28h-3c0 3.6 1.3 7.7 3.37 10.9 2.03 3.17 5.1 5.88 8.8 5.88v-3zM66.07 19.42c3.75 0 6.73-1.75 8.71-3.4a18.77 18.77 0 0 0 3.12-3.35l.02-.02a187.84 187.84 0 0 0-2.49-1.68 2.97 2.97 0 0 1-.14.2l-.5.62c-.44.53-1.09 1.22-1.93 1.92-1.68 1.4-4 2.7-6.79 2.7v3zm10.6-7.61l-1.09 1.02.01.01a2.63 2.63 0 0 0 .09.09 11.53 11.53 0 0 0 1.06.98c.73.61 1.79 1.43 3.15 2.24a22.35 22.35 0 0 0 11.48 3.27v-3c-4.14 0-7.55-1.41-9.94-2.84a20.86 20.86 0 0 1-3.62-2.76l-.03-.03-1.1 1.02zm2.63-9.44C74.86-.9 68.56.17 64.55 5.13c-4.02 4.97-5.71 13.67-2.02 25.97l2.87-.87c-3.53-11.75-1.69-19.3 1.48-23.22 3.18-3.93 7.71-4.38 10.65-2.23l1.77-2.41zM62.53 31.1a7.12 7.12 0 0 1-.09 4.8 8.68 8.68 0 0 1-2.5 3.34 15.13 15.13 0 0 1-4.57 2.64h-.01l.47 1.43.48 1.42h.01l.04-.01a8.26 8.26 0 0 0 .49-.19 18.53 18.53 0 0 0 5.04-3.02c1.3-1.12 2.59-2.6 3.34-4.5.76-1.94.94-4.2.17-6.78l-2.87.87zm-6.7 12.21l-.45 1.43h.02l.05.02a10.87 10.87 0 0 0 .76.2c.51.13 1.23.29 2.1.42 1.73.27 4.1.46 6.55.1 2.47-.38 5.1-1.32 7.25-3.37 2.17-2.07 3.7-5.13 4.18-9.47l-2.98-.33c-.42 3.78-1.7 6.14-3.27 7.63a10.14 10.14 0 0 1-5.62 2.56c-2.06.31-4.1.16-5.65-.08a21.7 21.7 0 0 1-2.48-.54l-.46 1.43zM79.3 4.78c2.94-2.15 7.47-1.7 10.65 2.23 3.17 3.92 5.01 11.47 1.48 23.22l2.88.87c3.69-12.3 1.99-21-2.03-25.97-4-4.96-10.31-6.03-14.75-2.76l1.77 2.41zm12.13 25.45A10.1 10.1 0 0 0 91.6 37c.75 1.9 2.03 3.4 3.34 4.51a18.13 18.13 0 0 0 5.57 3.22h.01a288.04 288.04 0 0 0 .95-2.84l-.08-.03a11.47 11.47 0 0 1-1.38-.6c-.9-.45-2.05-1.11-3.12-2.02a8.68 8.68 0 0 1-2.5-3.34 7.12 7.12 0 0 1-.08-4.8l-2.88-.87zM101 43.31l-.45-1.43h-.03l-.12.04-.5.13c-.44.11-1.07.25-1.84.37-1.55.24-3.59.4-5.65.08a10.14 10.14 0 0 1-5.62-2.56c-1.56-1.49-2.85-3.85-3.27-7.63l-2.98.33c.48 4.34 2.02 7.4 4.18 9.47 2.15 2.05 4.79 3 7.25 3.36 2.46.37 4.82.18 6.55-.08a24.72 24.72 0 0 0 2.86-.63l.05-.01h.02L101 43.3zm-41.07-.07c-.7.9-1.28 1.87-1.74 2.9l2.74 1.22c.36-.81.82-1.58 1.37-2.28l-2.37-1.84zm-1.74 2.9a20.66 20.66 0 0 0-1.55 8.47h3c0-2.95.44-5.33 1.29-7.25l-2.74-1.22zm-1.55 8.47v3.8h3v-3.8h-3zm0 3.8c0 .64.12 1.27.36 1.85l2.78-1.14c-.1-.23-.14-.46-.14-.7h-3zm.36 1.85c.25.59.6 1.12 1.05 1.57l2.12-2.12c-.17-.17-.3-.37-.4-.6L57 60.27zm1.05 1.57c.45.45.98.8 1.57 1.05l1.15-2.77c-.22-.1-.43-.23-.6-.4l-2.12 2.12zm1.57 1.05c.59.24 1.21.37 1.85.37v-3c-.24 0-.48-.05-.7-.14l-1.15 2.77zm1.85.37h33.9v-3h-33.9v3zm33.9 0c.63 0 1.26-.13 1.84-.37l-1.15-2.77c-.22.09-.46.14-.7.14v3zm1.84-.37c.59-.24 1.12-.6 1.57-1.05l-2.12-2.12c-.17.17-.37.3-.6.4l1.15 2.77zm1.57-1.05c.45-.45.8-.98 1.05-1.57l-2.78-1.14c-.09.22-.22.42-.4.59l2.13 2.12zm1.05-1.57c.24-.58.36-1.21.36-1.85h-3c0 .25-.04.48-.14.7l2.78 1.15zm.36-1.84V54.6h-3v3.8h3zm0-3.81c0-3.24-.47-6.05-1.55-8.47l-2.74 1.22c.85 1.92 1.3 4.3 1.3 7.25h3zm-1.55-8.46a13.82 13.82 0 0 0-1.74-2.91l-2.37 1.84c.55.7 1.01 1.47 1.37 2.28l2.74-1.21zm-67.18-24.2a17.35 17.35 0 0 1-3.78 6.95c-1.74 1.88-3.71 2.96-5.69 2.96v3c3.1 0 5.82-1.68 7.9-3.93a20.34 20.34 0 0 0 4.46-8.19l-2.9-.8zm-9.47 9.91c-1.98 0-3.97-1.08-5.7-2.98a17.34 17.34 0 0 1-3.78-7l-2.9.8c.81 2.97 2.38 5.96 4.46 8.23 2.08 2.26 4.8 3.95 7.92 3.95v-3zM9.81 50.56v11.19h3V50.57h-3zM38.7 63.26c.62 0 1.25-.13 1.83-.37l-1.15-2.77c-.22.09-.45.14-.68.14v3zm1.83-.37c.58-.24 1.1-.59 1.55-1.03l-2.12-2.13c-.17.17-.36.3-.58.4l1.15 2.76zm1.55-1.03c.44-.45.8-.98 1.04-1.56l-2.77-1.14c-.1.21-.22.4-.4.57l2.13 2.13zm1.04-1.56c.24-.58.36-1.2.36-1.83h-3c0 .24-.04.47-.13.69l2.77 1.14zm.36-1.83v-3.75h-3v3.75h3zm0-3.75c0-4.9-1.12-8.82-3.72-11.8-2.6-2.95-6.47-4.75-11.53-5.81l-.62 2.93c4.74 1 7.9 2.6 9.9 4.86 1.96 2.25 2.97 5.37 2.97 9.82h3zM27.06 37.33l-5.93 4.12 1.72 2.46 5.93-4.11-1.72-2.47zm-4.21 4.12l-5.93-4.12-1.71 2.47 5.92 4.11 1.72-2.46zm-7.1-4.35c-5.06 1.06-8.93 2.86-11.52 5.81C1.62 45.9.5 49.81.5 54.71h3c0-4.45 1.01-7.57 2.98-9.82 1.99-2.26 5.15-3.86 9.9-4.86l-.63-2.93zM.5 54.7v3.75h3v-3.75h-3zm0 3.75c0 .63.12 1.25.36 1.83l2.78-1.14a1.78 1.78 0 0 1-.14-.69h-3zm.36 1.83c.24.58.6 1.11 1.04 1.56l2.12-2.13c-.16-.16-.3-.36-.38-.57L.86 60.29zm1.04 1.56c.45.44.97.8 1.55 1.03l1.15-2.77a1.79 1.79 0 0 1-.58-.39L1.9 61.85zm1.55 1.03c.59.24 1.2.37 1.84.37v-3c-.24 0-.47-.05-.69-.14l-1.15 2.77zm1.83.37H38.7v-3H5.28v3zm25.9-12.68v11.18h3V50.57h-3zM17.02 39.72a4.7 4.7 0 0 0 1.33-2.26c.24-.79.4-1.67.5-2.45a27.03 27.03 0 0 0 .19-3V32h-3v.04a15.95 15.95 0 0 1-.02.74 24 24 0 0 1-.16 1.86c-.08.7-.2 1.38-.38 1.94-.08.27-.17.49-.25.64-.09.16-.14.2-.13.19l1.92 2.3zm11.86-2.31c.01.01-.04-.03-.12-.19a3.68 3.68 0 0 1-.26-.64c-.17-.55-.3-1.24-.38-1.94a24.05 24.05 0 0 1-.17-2.6v-.03V32h-3a.87.87 0 0 0 0 .07 17.07 17.07 0 0 0 .02.85c.02.54.07 1.3.17 2.09.1.78.25 1.66.5 2.45.22.73.6 1.66 1.32 2.26l1.92-2.31zM21.65 3.5c5.36 0 8.53 1.03 10.15 3.36 1.69 2.43 2.13 6.81.4 14.7l2.94.64c1.73-7.94 1.6-13.5-.88-17.05C31.73 1.5 27.15.5 21.65.5v3zM32.2 21.56c.2-.88 1.47-.95 1.72-.04l-2.9.79c.6 2.15 3.65 2.03 4.12-.11l-2.94-.64zm1.72-.04c-.3-1.11-.68-2.83-.98-4.3a186.82 186.82 0 0 1-.48-2.42l-.02-.15-.01-.04v-.01l-1.48.28-1.47.27v.02a7.08 7.08 0 0 0 .04.2 172.94 172.94 0 0 0 .48 2.45c.3 1.47.69 3.27 1.02 4.5l2.9-.8zm-1.47-6.72c-.08-1.55-1.41-2.39-2.6-2.4l-.03 3a.3.3 0 0 1-.18-.08.54.54 0 0 1-.19-.37l3-.15zm-2.6-2.4a14.5 14.5 0 0 1-4.9-1.13 23.08 23.08 0 0 1-2.37-1.1l-.03-.02a456.16 456.16 0 0 1-1.49 2.6l.02.01.04.03a13.7 13.7 0 0 0 .73.38c.49.24 1.17.56 1.98.88 1.6.64 3.81 1.33 5.99 1.35l.03-3zM22.1 9.98c-1.38-.28-3.08.84-2.7 2.62l2.94-.64a.84.84 0 0 1-.25.8.68.68 0 0 1-.59.16l.6-2.94zm-2.63 2.82l1.58 4.26L23.87 16l-1.6-4.26-2.8 1.05zm3.7 2.4l-7.07-3.73-1.4 2.66 7.06 3.73 1.4-2.66zm-7.08-3.73a3.17 3.17 0 0 0-3.83.68l2.25 1.99.02-.01.05-.02c.05 0 .1 0 .12.02l1.4-2.66zm-4.17 1.36l-1.87 8.7 2.93.63 1.87-8.7-2.93-.63zm-1.86 8.63c.23-.87 1.51-.9 1.71.04l-2.93.64c.48 2.2 3.57 2.2 4.12.08l-2.9-.76zm1.71.04c-1.71-7.86-1.28-12.24.4-14.65 1.6-2.33 4.74-3.35 10.1-3.35v-3c-5.49 0-10.05 1-12.57 4.64-2.46 3.55-2.58 9.08-.86 17l2.93-.64z"
        fill="#405366"/>
</svg>
