<svg width="58" height="73" fill="none" xmlns="http://www.w3.org/2000/svg">
  <path
    d="M2 70.95H.5v1.5H2v-1.5zm38.96 0v1.5h1.5v-1.5h-1.5zM2 21.8v-1.5H.5v1.5H2zm54 0h1.5v-1.5H56v1.5zM43.47 70.27v1.5h.6l.43-.41-1.03-1.09zm5.01-4.78l1.04-1.09-1.04-.98-1.03.98 1.03 1.09zm5.01 4.78l-1.03 1.09.43.41h.6v-1.5zM9.52 21.8h-1.5v1.5h1.5v-1.5zm24.6 0v1.5h1.5v-1.5h-1.5zm-10.25 0h-1.5v1.5h1.5v-1.5zm24.61 0v1.5h1.5v-1.5h-1.5zm0-7.43h-1.5 1.5zM2 72.45h38.96v-3H2v3zm40.46-1.5V21.8h-3v49.15h3zm-1.5-50.65H2v3h38.96v-3zM.5 21.8v49.15h3V21.8h-3zm41.96 48.76V21.8h-3v48.76h3zm-1.5-47.26H56v-3H40.96v3zm13.54-1.5V73h3V21.8h-3zM40.96 71.77h2.5v-3h-2.5v3zm3.54-.41l5.02-4.78-2.07-2.18-5.02 4.78 2.07 2.18zm2.95-4.78l5 4.78 2.08-2.18-5.01-4.78-2.07 2.18zm6.04 5.19H56v-3h-2.5v3zM21.82.5C14.2.5 8.02 6.72 8.02 14.37h3c0-6.01 4.85-10.87 10.8-10.87v-3zM8.02 14.37v7.43h3v-7.43h-3zm1.5 8.93h24.6v-3H9.53v3zm26.1-1.5v-7.43h-3v7.43h3zm0-7.43C35.63 6.72 29.46.5 21.83.5v3c5.96 0 10.8 4.86 10.8 10.87h3zM36.19.5c-7.63 0-13.8 6.22-13.8 13.87h3c0-6.01 4.84-10.87 10.8-10.87v-3zm-13.8 13.87v7.43h3v-7.43h-3zm1.5 8.93h24.6v-3h-24.6v3zm26.1-1.5v-7.43h-3v7.43h3zm0-7.43C49.98 6.72 43.81.5 36.18.5v3c5.95 0 10.8 4.86 10.8 10.87h3z"
    fill="#405366"/>
  <path class="animated" clip-rule="evenodd" d="M22.01 35.52l-9.52 5.5L12.47 52 22 57.48l9.52-5.5.02-10.98L22 35.52z"/>
</svg>
