<svg width="66" height="100" fill="none" xmlns="http://www.w3.org/2000/svg">
  <g transform="translate(0, 10)">
    <path
      d="M0.232056 62.6081H7.84806V64.2401H2.24806V67.3921H7.51206V69.0241H2.24806V72.3681H7.84806V74.0001H0.232056V62.6081Z"
      fill="black"
    />
    <path
      d="M19.1237 74.0001H16.9477L15.4917 70.2081C15.3637 69.8561 15.1663 69.6108 14.8997 69.4721C14.633 69.3334 14.2863 69.2641 13.8597 69.2641H11.7957V74.0001H9.74768V62.6081H14.6277C15.9183 62.6081 16.8997 62.8908 17.5717 63.4561C18.2437 64.0214 18.5797 64.8321 18.5797 65.8881C18.5797 66.6454 18.377 67.2908 17.9717 67.8241C17.577 68.3468 17.0117 68.7201 16.2757 68.9441C16.9477 69.0828 17.433 69.5521 17.7317 70.3521L19.1237 74.0001ZM14.3397 67.6641C15.1183 67.6641 15.6943 67.5201 16.0677 67.2321C16.441 66.9441 16.6277 66.5068 16.6277 65.9201C16.6277 65.3441 16.441 64.9174 16.0677 64.6401C15.705 64.3521 15.129 64.2081 14.3397 64.2081H11.7637V67.6641H14.3397Z"
      fill="black"
    />
    <path
      d="M26.0719 74.1441C24.9519 74.1441 23.9706 73.9041 23.1279 73.4241C22.2959 72.9441 21.6559 72.2668 21.2079 71.3921C20.7599 70.5068 20.5359 69.4721 20.5359 68.2881C20.5359 67.1148 20.7599 66.0908 21.2079 65.2161C21.6559 64.3308 22.2959 63.6534 23.1279 63.1841C23.9706 62.7041 24.9519 62.4641 26.0719 62.4641C26.8399 62.4641 27.5599 62.5868 28.2319 62.8321C28.9146 63.0668 29.4799 63.3974 29.9279 63.8241L29.2559 65.3281C28.7439 64.9121 28.2319 64.6134 27.7199 64.4321C27.2186 64.2401 26.6799 64.1441 26.1039 64.1441C25.0053 64.1441 24.1519 64.5014 23.5439 65.2161C22.9466 65.9308 22.6479 66.9548 22.6479 68.2881C22.6479 69.6321 22.9466 70.6668 23.5439 71.3921C24.1413 72.1068 24.9946 72.4641 26.1039 72.4641C26.6799 72.4641 27.2186 72.3734 27.7199 72.1921C28.2319 72.0001 28.7439 71.6961 29.2559 71.2801L29.9279 72.7841C29.4799 73.2108 28.9146 73.5468 28.2319 73.7921C27.5599 74.0268 26.8399 74.1441 26.0719 74.1441Z"
      fill="black"
    />
    <path
      d="M31.4322 68.8801H36.2482V70.4801H31.4322V68.8801Z"
      fill="black"
    />
    <path
      d="M46.1118 62.6081V64.1441L40.9438 74.0001H38.7358L43.8878 64.2881H38.1758V62.6081H46.1118Z"
      fill="black"
    />
    <path
      d="M55.7216 72.3201V74.0001H48.0736V72.4801L51.9456 68.3041C52.4042 67.8028 52.7402 67.3441 52.9536 66.9281C53.1669 66.5121 53.2736 66.1014 53.2736 65.6961C53.2736 65.1734 53.1189 64.7788 52.8096 64.5121C52.5109 64.2454 52.0789 64.1121 51.5136 64.1121C50.5109 64.1121 49.4816 64.5068 48.4256 65.2961L47.7376 63.7921C48.1856 63.3868 48.7616 63.0668 49.4656 62.8321C50.1696 62.5868 50.8789 62.4641 51.5936 62.4641C52.7349 62.4641 53.6362 62.7468 54.2976 63.3121C54.9696 63.8668 55.3056 64.6188 55.3056 65.5681C55.3056 66.2188 55.1616 66.8321 54.8736 67.4081C54.5962 67.9841 54.1269 68.6294 53.4656 69.3441L50.6656 72.3201H55.7216Z"
      fill="black"
    />
    <path
      d="M65.3629 72.3201V74.0001H58.3389V72.3201H60.8349V64.9761L58.5149 66.3681V64.5281L61.6829 62.6081H62.8829V72.3201H65.3629Z"
      fill="black"
    />
  </g>
  <g class="animated-fill">
    <path
      fill-rule="evenodd"
      clip-rule="evenodd"
      d="M29.9651 1.79458C31.3072 -0.610673 34.7731 -0.594909 36.0933 1.82246L48.3517 24.2691C49.2169 25.8534 48.7353 27.8358 47.2396 28.8465L34.9881 37.1258C33.8146 37.9188 32.2789 37.9264 31.0976 37.1451L18.5696 28.8592C17.0427 27.8492 16.552 25.8332 17.444 24.2345L29.9651 1.79458ZM33.4603 3.26035C33.2718 2.91502 32.7766 2.91276 32.5849 3.25637L20.0638 25.6963C19.9363 25.9247 20.0064 26.2127 20.2246 26.3569L32.7526 34.6429C32.9213 34.7545 33.1407 34.7534 33.3083 34.6401L45.5598 26.3609C45.7735 26.2165 45.8423 25.9333 45.7187 25.707L33.4603 3.26035Z"
    />
    <path
      fill-rule="evenodd"
      clip-rule="evenodd"
      d="M33.2769 20.6328C33.1313 20.5529 32.9555 20.5506 32.8079 20.6266L20.0364 27.1957C19.2997 27.5746 18.3953 27.2845 18.0164 26.5479C17.6374 25.8112 17.9275 24.9068 18.6642 24.5279L31.4357 17.9588C32.4693 17.4271 33.6995 17.4433 34.7188 18.002L47.5712 25.0464C48.2977 25.4446 48.5638 26.3563 48.1656 27.0827C47.7675 27.8092 46.8558 28.0753 46.1293 27.6771L33.2769 20.6328Z"
    />
    <path
      fill-rule="evenodd"
      clip-rule="evenodd"
      d="M43.6855 34.5207C46.0081 33.2323 48.4718 35.9761 46.9417 38.1471L34.9803 55.1179C34.5336 55.7516 33.8026 56.1236 33.0274 56.1117C32.2521 56.0998 31.5329 55.7055 31.1059 55.0584L19.9596 38.1659C18.4985 35.9515 21.0383 33.2859 23.3208 34.6383L33.0649 40.4121L43.6855 34.5207ZM31.5403 42.9958L23.6596 38.3262L31.5403 50.2697V42.9958ZM34.5403 50.5347V43.0243L43.2321 38.2029L34.5403 50.5347Z"
    />
    <path
      fill-rule="evenodd"
      clip-rule="evenodd"
      d="M33.0403 1.36159C33.8688 1.36159 34.5403 2.03316 34.5403 2.86159V36.3076C34.5403 37.136 33.8688 37.8076 33.0403 37.8076C32.2119 37.8076 31.5403 37.136 31.5403 36.3076V2.86159C31.5403 2.03316 32.2119 1.36159 33.0403 1.36159Z"
    />
  </g>
</svg>
