<svg xmlns="http://www.w3.org/2000/svg" width="899" height="1415"><path d="M437.417 1203.98c8.017 3.912 17.256 3.912 25.271 0 73.43-35.842 78.045-104.127 78.045-104.127h-181.36s4.615 68.285 78.044 104.127z" fill="#707487"/><path d="M395.14 1099.853h-35.767s4.615 68.287 78.046 104.127c8.017 3.912 17.256 3.912 25.27 0a166.654 166.654 0 0 0 5.249-2.69c-68.393-36.453-72.798-101.437-72.798-101.437z" fill="#5e6377"/><path d="M145.175 1409.498c10.746-53.975 41.962-84.892 41.962-84.892L95.961 1207.24C39.792 1262 22.922 1333.417 18.185 1379.506c-.91 8.857 4.81 17.037 13.456 19.168l94.019 23.185c8.832 2.178 17.737-3.437 19.515-12.36z" fill="#d8dce5"/><path d="M52.95 1390.805c4.31-41.943 18.682-104.857 63.561-157.108L95.96 1207.24C39.79 1262 22.92 1333.417 18.183 1379.506c-.909 8.856 4.81 17.037 13.457 19.168l26.345 6.496a17.865 17.865 0 0 1-5.034-14.365z" fill="#c3c8d1"/><path d="M95.96 1207.239c-44.763 43.638-64.553 97.842-73.15 141.388 92.385-15.681 117.091-84.823 117.091-84.823z" fill="#e4eaf8"/><path d="M95.96 1207.239c-39.152 38.167-62.6 87.96-73.15 141.388 15.13-2.567 28.432-6.576 40.122-11.47 9.173-33.452 25.329-70.568 53.58-103.46z" fill="#d8dce5"/><path d="M614.932 1269.156l-3.477-160.177-70.72-9.124s-4.615 64.62-78.045 98.54a30.136 30.136 0 0 1-25.271 0c-73.43-33.918-78.046-98.54-78.046-98.54l-70.72 9.124-3.477 160.177-29.6 59.314v203.807h388.959V1328.47z" fill="#e4eaf8"/><path d="M288.653 1108.977l-3.477 160.178-29.602 59.313V1532.275h34.357v-188.818l31.19-55.927a18.141 18.141 0 0 0 2.298-8.838v-174.201z" fill="#d8dce5"/><path d="M666.269 1558.629l-21.734-26.352h-388.96l-21.733 26.352a18.614 18.614 0 0 0-6.781 14.37v74.656c0 4.956 2.17 9.661 5.94 12.877l18.625 24.642a14.084 14.084 0 0 0 9.14 3.369H639.34c3.35 0 6.591-1.194 9.14-3.37l18.624-24.64a16.926 16.926 0 0 0 5.941-12.878v-74.656a18.61 18.61 0 0 0-6.777-14.37z" fill="#707487"/><path d="M267.768 1660.534a16.926 16.926 0 0 1-5.942-12.877V1573a18.62 18.62 0 0 1 6.781-14.37l21.734-26.353h-34.767l-21.734 26.353a18.614 18.614 0 0 0-6.781 14.37v74.656c0 4.956 2.17 9.661 5.941 12.877l18.624 24.642a14.087 14.087 0 0 0 9.142 3.369h34.767a14.09 14.09 0 0 1-9.141-3.37z" fill="#5e6377"/><path d="M754.933 1409.498c-10.746-53.975-41.962-84.892-41.962-84.892l91.175-117.364c56.169 54.76 73.039 126.177 77.775 172.266.911 8.856-4.81 17.037-13.456 19.168l-94.018 23.185c-8.834 2.176-17.737-3.438-19.514-12.363z" fill="#d8dce5"/><path d="M737.283 1293.308l-24.312 31.294s31.213 30.917 41.962 84.893c1.777 8.924 10.682 14.54 19.52 12.359l21.048-5.19c-7.836-38.04-24.278-83.744-58.218-123.356z" fill="#c3c8d1"/><path d="M804.147 1207.239c44.763 43.638 64.553 97.842 73.149 141.388-92.385-15.681-117.09-84.823-117.09-84.823z" fill="#e4eaf8"/><path d="M227.057 1610.41v37.245c0 4.956 2.171 9.661 5.941 12.877l18.624 24.642a14.085 14.085 0 0 0 9.14 3.369h378.575c3.35 0 6.592-1.194 9.14-3.37l18.624-24.64a16.926 16.926 0 0 0 5.942-12.878v-37.245z" fill="#5e6377"/><path d="M231.726 1659.32c5.44 5.716 18.327 25.03 21.56 27.059a14.08 14.08 0 0 0 7.478 2.164h34.767a14.09 14.09 0 0 1-9.141-3.37l-18.624-24.64a16.926 16.926 0 0 1-5.942-12.878v-37.244h-34.767v37.244c0 4.521 1.92 8.8 4.67 11.666z" fill="#505668"/><path d="M547.556 1449.946v-138.061a30.468 30.468 0 0 1 4.89-16.554l60.45-93.36-1.444-51.463-93.775 144.823a30.46 30.46 0 0 0-4.89 16.554v138.061c0 9.843 7.979 17.823 17.823 17.823h34.767c-9.842 0-17.82-7.979-17.82-17.823z" fill="#ed9d0f"/><g fill="#ffcc3b"><path d="M614.932 1274.371l-3.477-123.86-93.775 144.824a30.447 30.447 0 0 0-4.891 16.554v138.06c0 9.843 7.979 17.823 17.822 17.823h113.922v-134.084zM288.653 1150.512l-3.477 123.86-29.6 59.313v134.084h115.061c9.213 0 16.683-7.468 16.683-16.682v-139.202a30.455 30.455 0 0 0-4.892-16.554z"/><path d="M288.653 1150.512l-3.477 123.86-29.602 59.313v134.084h34.357v-114.113a39.218 39.218 0 0 1 4.966-19.104l26.224-47.022a18.148 18.148 0 0 0 2.298-8.84v-74.486z"/></g><path d="M243.946 1111.727c.132.855.223 1.72.223 2.597v119.088c0 30.948-37.803 43.071-55.469 20.616l-71.706-90.922c-.104-.134-.19-.277-.292-.412-7.014 5.689-12.733 11.126-17.26 15.886-8.567 9.006-9.316 22.893-1.69 32.707l88.761 114.257a21.06 21.06 0 0 0 16.636 8.14h52.425l33.077-59.313v-165.394c-15.999 0-30.866.998-44.705 2.75z" fill="#707487"/><path d="M221.283 1325.543l-88.762-114.257c-6.785-8.735-6.922-20.684-.838-29.558l-14.689-18.624c-.104-.134-.19-.277-.292-.412-7.015 5.69-12.733 11.127-17.26 15.886-8.567 9.006-9.316 22.893-1.69 32.707l88.761 114.258a21.063 21.063 0 0 0 16.636 8.14h34.767a21.06 21.06 0 0 1-16.633-8.14z" fill="#5e6377"/><path d="M656.162 1111.727a16.99 16.99 0 0 0-.222 2.597v119.088c0 13.023 7.641 25.111 19.754 29.893 12.586 4.97 26.519 1.504 35.288-8.757.146-.17.287-.344.426-.52l71.706-90.92c.105-.135.191-.277.292-.413 7.014 5.69 12.735 11.127 17.261 15.886 8.566 9.007 9.316 22.894 1.69 32.708l-88.472 113.884a22.033 22.033 0 0 1-17.398 8.514h-51.952l-30.898-55.403a17.214 17.214 0 0 1-2.182-8.387v-160.92c16 0 30.867.998 44.707 2.75z" fill="#707487"/><path d="M646.223 1269.893v-159.271c-10.958-1.057-22.53-1.645-34.768-1.645v160.915c0 2.935.751 5.823 2.182 8.387l30.898 55.402h34.767l-30.898-55.402a17.202 17.202 0 0 1-2.181-8.386z" fill="#5e6377"/><path d="M238.575 1100.519a17.955 17.955 0 0 0-14.739-3.885c-39.217 7.14-74.049 20.94-103.528 41.015-8.605 5.857-10.448 17.815-3.997 25.994l71.708 90.924c18.393 23.234 57.019 10.209 57.019-20.334v-119.91c0-5.35-2.357-10.38-6.463-13.804zM787.45 1149.775a18.054 18.054 0 0 0-7.65-12.128c-29.48-20.074-64.312-33.87-103.531-41.015a17.955 17.955 0 0 0-14.737 3.885 17.926 17.926 0 0 0-6.461 13.804v119.91c0 13.607 8.246 25.441 21.012 30.15 13.119 4.841 26.997.75 35.558-9.268.153-.18.303-.363.45-.548l71.706-90.922a18.045 18.045 0 0 0 3.652-13.868z" fill="#e4eaf8"/><path d="M222.51 1255.111c-.151-.179-.301-.362-.445-.544l-71.708-90.924c-6.445-8.172-4.613-20.133 3.996-25.995 24.608-16.755 52.955-29.12 84.455-36.908-.082-.07-.151-.15-.235-.218a17.955 17.955 0 0 0-14.739-3.885c-39.217 7.141-74.049 20.941-103.528 41.015-8.605 5.858-10.447 17.816-3.997 25.994l71.708 90.924c9.42 11.899 27.263 15.968 41.903 6.924a32.631 32.631 0 0 1-7.41-6.383zM689.384 1234.23v-119.908a17.917 17.917 0 0 1 6.171-13.534 312.618 312.618 0 0 0-19.288-4.156 17.955 17.955 0 0 0-14.737 3.885 17.926 17.926 0 0 0-6.461 13.804v119.91c0 13.607 8.246 25.441 21.012 30.15 9.571 3.532 19.818 2.406 28.277-2.977-9.258-5.787-14.974-15.859-14.974-27.173z" fill="#d8dce5"/><path d="M819.303 1205.93c3.41-12.512.268-26.238-9.244-36.238-3.443-3.621-7.15-7.17-11.03-10.638.79-3.597.962-7.334.394-11.03a30.247 30.247 0 0 0-12.832-20.332c-30.893-21.037-67.296-35.477-108.208-42.929-8.817-1.594-17.823.773-24.698 6.512-2.282 1.901-4.207 4.121-5.806 6.536a376.116 376.116 0 0 0-35.525-1.754l-70.006-9.032a34.471 34.471 0 0 0-1.668-.108H359.316a32.3 32.3 0 0 0-1.669.108l-70.004 9.032a375.956 375.956 0 0 0-35.527 1.754c-1.6-2.415-3.523-4.633-5.804-6.536a30.077 30.077 0 0 0-24.711-6.512c-40.9 7.448-77.303 21.892-108.2 42.927a30.256 30.256 0 0 0-12.828 20.336c-.569 3.696-.395 7.431.394 11.026-3.883 3.471-7.589 7.023-11.029 10.64-9.51 9.999-12.653 23.726-9.244 36.238-44.923 46.878-68.847 108.981-75.539 174.08-1.564 15.246 8.452 29.5 23.302 33.16l94.02 23.186c16.1 3.965 32.21-6.344 35.424-22.474 6.399-32.13 20.757-55.597 29.975-68.04 1.54.626 3.197.979 4.904.979h49.697v180.87l-18.06 21.899a31.541 31.541 0 0 0-10.458 23.507v74.655c0 8.245 3.376 16.07 9.316 21.715l17.886 23.667c2.909 3.841 10.496 8.545 19.544 8.545h378.58c8.71 0 16.451-4.459 19.544-8.545l17.887-23.667a29.912 29.912 0 0 0 9.313-21.715v-74.655a31.535 31.535 0 0 0-10.457-23.507l-18.06-21.897v-98.264c0-7.201-5.835-13.037-13.036-13.037-7.202 0-13.037 5.836-13.037 13.037v25.4H530.554a4.788 4.788 0 0 1-4.784-4.784v-138.06c0-3.366.968-6.64 2.797-9.466l69.792-107.784v79.735c0 2.222.569 4.408 1.652 6.35l31.426 56.353v31.411c0 7.202 5.835 13.037 13.037 13.037 7.202 0 13.037-5.835 13.037-13.037v-21.765h49.698c1.705 0 3.36-.35 4.9-.977 9.227 12.452 23.581 35.915 29.978 68.038 3.21 16.132 19.332 26.438 35.425 22.475l94.016-23.187c14.852-3.66 24.872-17.917 23.305-33.16-6.654-64.772-30.338-126.8-75.53-174.078zm-294.576-92.937c-10.023 33.722-35.499 58.854-67.565 73.665a17.056 17.056 0 0 1-14.334 0c-31.969-14.769-57.549-40.056-67.57-73.665h149.47zm-224.744 167.829a13.039 13.039 0 0 0 1.652-6.35v-79.735l69.792 107.784a17.38 17.38 0 0 1 2.796 9.466v139.2a3.649 3.649 0 0 1-3.645 3.644H268.557v-117.657zm-171.905-131.581c27.864-18.971 60.902-32.035 98.183-38.823 2.583-.464 4.812 1.547 4.812 4.005v119.91c0 7.718-4.678 14.433-11.918 17.105-7.122 2.628-14.97.83-20.189-5.276l-71.582-90.762c-1.84-2.665-1.046-4.972.694-6.159zm-33.224 79.739l29.902 38.49c-7.397 14.555-30.486 50.233-84.651 65.73 11.137-42.087 30.093-76.808 54.749-104.22zm37.477 179.81c-.325 1.63-1.97 2.653-3.608 2.248l-94.02-23.187c-2.339-.575-3.854-2.753-3.604-5.176a333.005 333.005 0 0 1 2.85-21.079c61.93-13.235 93.687-49.16 108.068-71.907l28.196 36.295c-10.739 13.482-29.752 41.981-37.882 82.807zm66.834-88.043l-1.786-2.298v-.01l-89.389-115.057c-3.671-4.734-3.318-11.343.847-15.721a158.095 158.095 0 0 1 6.042-6.017l63.565 80.601c.242.304.487.607.713.87 26.664 31.203 77.993 12.423 77.993-28.785v-110.824c6.055-.544 12.205-.93 18.41-1.156v148.731l-27.7 49.666zm439.166 224.666l17.822 21.612c1.586 1.93 3.804 2.788 3.804 6.073v24.374H480.42c-7.201 0-13.039 5.836-13.039 13.04 0 7.203 5.836 13.036 13.04 13.036h179.534v24.208c0 2.438-1.611 2.777-3.304 5.016l-17.255 22.831H260.598l-17.253-22.83c-1.523-2.012-3.306-2.618-3.306-5.017v-24.208h179.536c7.202 0 13.04-5.835 13.04-13.037 0-7.201-5.836-13.039-13.04-13.039H240.04v-24.374c0-3.268 2.185-4.11 3.803-6.073l17.824-21.612zm-39.97-398.654l-91.68 141.588a43.422 43.422 0 0 0-6.985 23.64v138.06c0 17.016 13.845 30.86 30.86 30.86H631.44v38.428H268.557v-38.428H370.58c16.388 0 29.721-13.331 29.721-29.72v-139.2a43.422 43.422 0 0 0-6.984-23.64l-91.682-141.588v-26.215l47.055-6.072c9.654 39.193 37.802 74.803 82.956 95.74.084.037.162.08.245.117a43.075 43.075 0 0 0 36.208 0c.042-.02.082-.04.124-.058 45.54-21.072 73.652-57.035 83.08-95.799l47.056 6.072v26.215zm206.78 82.22c27.012 30.027 44.593 65.845 54.75 104.22-54.204-15.503-77.284-51.216-84.655-65.725 18.445-23.74 13.823-17.792 29.906-38.495zm-136.218-114.556c0-2.527 2.294-4.462 4.8-4.007 37.292 6.79 70.33 19.855 98.191 38.825 1.739 1.18 2.549 3.482.692 6.16l-71.454 90.603-.137.169c-11.08 12.964-32.094 4.982-32.094-11.843v-119.907zm31.908 206.324h-48.696l-27.7-49.666V1122.35c6.204.226 12.35.612 18.41 1.156v110.824c0 18.76 11.37 35.075 28.963 41.566 18.835 6.956 38.653.304 49.781-13.698l63.53-80.555a160.658 160.658 0 0 1 6.043 6.017c4.165 4.38 4.518 10.99.84 15.725-24.612 31.685-68.76 88.51-91.171 117.362zm164.459 67.104l-94.017 23.187c-1.643.407-3.285-.62-3.609-2.246-8.128-40.827-27.145-69.322-37.882-82.804l28.197-36.296c14.38 22.747 46.137 58.673 108.067 71.91a333.17 333.17 0 0 1 2.85 21.078c.25 2.42-1.267 4.598-3.606 5.173z" fill="#333"/><path fill="#fff" stroke="#fff" stroke-width="10" stroke-linejoin="round" d="M-209.852 1426.975H1145.19v311.78H-209.852z"/></svg>