<svg height="1415" width="899" xmlns="http://www.w3.org/2000/svg"><path d="m875.564 1150.804v204.832h-186.484v384.933h-481.25v-384.933h-186.484v-204.832c0-49.56 50.495-89.727 112.8-89.727h628.619c62.304 0 112.8 40.166 112.8 89.727zm0 0" fill="#ebebeb"/><path d="m279.3 1061.077 169.155 191.027 169.156-190.77zm0 0" fill="#bfbdbb"/><path d="m637.518 1316.057v424.512h51.562v-465.527c-28.48 0-51.562 18.36-51.562 41.015zm-429.688 39.649h-51.562v-45.117c0-22.655 23.082-41.016 51.562-41.016zm554.942-294.629h-51.563c62.291 0 112.793 40.172 112.793 89.722v204.837h51.562v-204.836c0-49.55-50.501-89.722-112.792-89.722zm0 0" fill="#dedcda"/><g fill="#ccc"><path d="m419.19 1241.86 160.031-180.783h76.344l-159.12 180.816c-6.062 6.894-9.318 15.103-9.318 23.52v475.156h-77.344v-475.092c0-8.454 3.283-16.706 9.406-23.616zm0 0"/><path d="m477.721 1241.86-160.032-180.783h-76.343l159.118 180.816c6.063 6.894 9.32 15.103 9.32 23.52v475.156h77.343v-475.092c0-8.454-3.283-16.706-9.406-23.616zm-456.375 113.782h186.484v43.75h-186.484zm0 0"/><path d="m156.268 1355.642h51.562v43.75h-51.562zm532.812 0h186.485v43.75h-186.485zm0 0"/><path d="m824.002 1355.642h51.563v43.75h-51.563zm0 0"/></g><path d="m207.83 1525.467c7.117 0 12.89-4.593 12.89-10.254v-27.344c0-5.666-5.773-10.254-12.89-10.254s-12.89 4.588-12.89 10.254v27.344c0 5.66 5.773 10.254 12.89 10.254zm0 0"/><path d="m762.772 1061.077h-39.357c-7.124 0-12.89 4.593-12.89 10.254 0 5.66 5.766 10.254 12.89 10.254h39.357c55.087 0 99.902 35.648 99.902 79.467v194.584h-160.704v-79.227c0-5.661-5.767-10.254-12.89-10.254-7.124 0-12.892 4.593-12.892 10.254v464.16h-176.17v-464.902c0-6.345 2.417-12.444 6.989-17.64l155.271-176.442h5.78c7.124 0 12.892-4.593 12.892-10.254s-5.768-10.254-12.891-10.254h-533.92c-69.3 0-125.684 44.85-125.684 99.975v248.588c0 5.667 5.774 10.254 12.89 10.254h173.595v34.057c0 5.661 5.774 10.254 12.891 10.254s12.89-4.593 12.89-10.254v-177.542c0-5.661-5.773-10.254-12.89-10.254s-12.89 4.593-12.89 10.254v79.233h-160.706v-194.59c0-43.819 44.815-79.467 99.903-79.467h100.493l155.271 176.442c4.573 5.196 6.99 11.295 6.99 17.64v464.902h-176.172v-171.075c0-5.66-5.774-10.253-12.89-10.253-7.118 0-12.892 4.592-12.892 10.253v181.329c0 5.661 5.774 10.254 12.891 10.254h481.25c7.124 0 12.89-4.593 12.89-10.254v-330.923h173.594c7.124 0 12.891-4.593 12.891-10.254v-248.594c0-55.125-56.383-99.975-125.683-99.975zm-567.833 315.073v23.242h-160.703v-23.243zm435.865-294.565-143.71 163.31-22.875-25.844 121.69-137.466zm-182.349 119.655-105.925-119.655h211.85zm-182.349-119.655h44.896l121.689 137.466-22.874 25.843zm156.568 658.984v-464.838c0-6.377 2.437-12.503 7.05-17.715l18.731-21.154 18.725 21.16c4.62 5.212 7.056 11.332 7.056 17.709v464.838zm440-341.177h-160.704v-23.243h160.703zm0 0" fill="#333"/><path d="m449.314 1291.448c-7.116 0-12.89 4.593-12.89 10.254v6.836c0 5.66 5.774 10.254 12.89 10.254 7.124 0 12.891-4.593 12.891-10.254v-6.836c0-5.661-5.767-10.254-12.89-10.254zm0 99.805c-7.116 0-12.89 4.593-12.89 10.254v6.835c0 5.661 5.774 10.254 12.89 10.254 7.124 0 12.891-4.593 12.891-10.254v-6.835c0-5.662-5.767-10.254-12.89-10.254zm0 99.804c-7.116 0-12.89 4.593-12.89 10.254v6.836c0 5.661 5.774 10.254 12.89 10.254 7.124 0 12.891-4.593 12.891-10.254v-6.836c0-5.66-5.767-10.254-12.89-10.254zm0 99.805c-7.116 0-12.89 4.593-12.89 10.254v6.836c0 5.66 5.774 10.254 12.89 10.254 7.124 0 12.891-4.593 12.891-10.254v-6.836c0-5.661-5.767-10.254-12.89-10.254zm0 0"/><path d="m-398.527 1433h1623.784v775.855h-1623.784z" fill="#fff" stroke="#fff" stroke-linejoin="round" stroke-width="20"/></svg>