<?xml version="1.0" encoding="UTF-8"?>
<svg width="899px" height="1415px" viewBox="0 0 899 1415" version="1.1" xmlns="http://www.w3.org/2000/svg" xmlns:xlink="http://www.w3.org/1999/xlink">
    <!-- Generator: Sketch 49.3 (51167) - http://www.bohemiancoding.com/sketch -->
    <title>cardigan-F48914</title>
    <desc>Created with Sketch.</desc>
    <defs></defs>
    <g id="cardigan-F48914" stroke="none" stroke-width="1" fill="none" fill-rule="evenodd">
        <g id="3F2918" transform="translate(27.000000, 1052.000000)">
            <g id="Group">
                <g>
                    <g>
                        <path d="M845.2,258.4 L845.2,258 C845.2,184.8 801.5,118.6 734.2,89.8 L617.6,40 C556,13.6 489.7,0.1 422.6,0.1 C355.6,0.1 289.3,13.7 227.6,40 L111,89.8 C43.7,118.6 0,184.8 0,258 L0,363.6 L845.2,363.6 L845.2,258.4 Z" id="Shape" fill="#F48914"></path>
                        <rect id="Rectangle-path" fill="#FFFFFF" x="287.9" y="21.9" width="263.6" height="337.5"></rect>
                        <path d="M181.1,202.1 L172.2,344.5" id="Shape" stroke="#333333" stroke-width="12.5228" stroke-linecap="round"></path>
                        <path d="M664.1,202.1 L669.5,344.5" id="Shape" stroke="#333333" stroke-width="12.5228" stroke-linecap="round"></path>
                        <path d="M422.6,27 C454.1,27 485.8,30.2 516.7,36.5 C547.6,42.8 578,52.3 607,64.7 L723.6,114.6 C781.1,139.2 818.2,195.5 818.2,258 L818.2,258.4 L818.2,336.6 L27,336.6 L27,258 C27,195.5 64.1,139.2 121.6,114.6 L238.2,64.7 C267.2,52.3 297.6,42.8 328.5,36.5 C359.4,30.2 391.1,27 422.6,27 Z M422.6,0 C355.6,0 289.3,13.6 227.6,39.9 L111,89.8 C43.7,118.6 0,184.8 0,258 L0,363.6 L845.2,363.6 L845.2,258.4 L845.2,258 C845.2,184.8 801.5,118.6 734.2,89.8 L617.6,40 C555.9,13.6 489.6,0 422.6,0 Z" id="Shape" fill="#333333" fill-rule="nonzero"></path>
                    </g>
                    <path d="M287.9,30.7 L287.9,356.7" id="Shape" stroke="#333333" stroke-width="12.5228" stroke-linecap="round"></path>
                    <path d="M551.5,30.7 L551.5,356.7" id="Shape" stroke="#333333" stroke-width="12.5228" stroke-linecap="round"></path>
                </g>
                <path d="M521.2,31.7 C521.2,32.8 521.3,51.3 521.3,52.4 C521.3,106.1 475.8,149.7 419.7,149.7 C363.6,149.7 318.1,106.1 318.1,52.4 L318.1,31.7" id="Shape" stroke="#333333" stroke-width="11.0453" opacity="0.15"></path>
            </g>
        </g>
    </g>
</svg>