<svg height="1415" width="899" xmlns="http://www.w3.org/2000/svg"><g fill="none" fill-rule="evenodd"><path d="m872.2 1310.4v-.4c0-73.2-43.7-139.4-111-168.2l-116.6-49.8c-61.6-26.4-127.9-39.9-195-39.9-67 0-133.3 13.6-195 39.9l-116.6 49.8c-67.3 28.8-111 95-111 168.2v105.6h845.2z" fill="#f48914"/><path d="m314.9 1073.9h263.6v337.5h-263.6z" fill="#fff"/><path d="m208.1 1254.1-8.9 142.4m491.9-142.4 5.4 142.4" stroke="#333" stroke-linecap="round" stroke-width="12.523"/><path d="m449.6 1079c31.5 0 63.2 3.2 94.1 9.5s61.3 15.8 90.3 28.2l116.6 49.9c57.5 24.6 94.6 80.9 94.6 143.4v78.6h-791.2v-78.6c0-62.5 37.1-118.8 94.6-143.4l116.6-49.9c29-12.4 59.4-21.9 90.3-28.2s62.6-9.5 94.1-9.5zm0-27c-67 0-133.3 13.6-195 39.9l-116.6 49.9c-67.3 28.8-111 95-111 168.2v105.6h845.2v-105.6c0-73.2-43.7-139.4-111-168.2l-116.6-49.8c-61.7-26.4-128-40-195-40z" fill="#333" fill-rule="nonzero"/><g stroke="#333"><path d="m314.9 1082.7v326m263.6-326v326" stroke-linecap="round" stroke-width="12.523"/><path d="m548.2 1083.7c0 1.1.1 19.6.1 20.7 0 53.7-45.5 97.3-101.6 97.3s-101.6-43.6-101.6-97.3v-20.7" opacity=".15" stroke-width="11.045"/></g></g></svg>