<?xml version="1.0" encoding="UTF-8"?>
<svg width="899px" height="1415px" viewBox="0 0 899 1415" version="1.1" xmlns="http://www.w3.org/2000/svg" xmlns:xlink="http://www.w3.org/1999/xlink">
    <!-- Generator: Sketch 49.3 (51167) - http://www.bohemiancoding.com/sketch -->
    <title>cardigan-AE7242</title>
    <desc>Created with Sketch.</desc>
    <defs></defs>
    <g id="cardigan-AE7242" stroke="none" stroke-width="1" fill="none" fill-rule="evenodd">
        <g id="3F2918" transform="translate(27.000000, 930.000000)">
            <g id="Group" transform="translate(0.000000, 122.000000)">
                <g>
                    <g>
                        <path d="M845.2,258.4 L845.2,258 C845.2,184.8 801.5,118.6 734.2,89.8 L617.6,40 C556,13.6 489.7,0.1 422.6,0.1 C355.6,0.1 289.3,13.7 227.6,40 L111,89.8 C43.7,118.6 0,184.8 0,258 L0,363.6 L845.2,363.6 L845.2,258.4 Z" id="Shape" fill="#CCCCCC"></path>
                        <rect id="Rectangle-path" fill="#FFFFFF" x="287.9" y="21.9" width="263.6" height="337.5"></rect>
                        <path d="M181.1,202.1 L172.2,344.5" id="Shape" stroke="#333333" stroke-width="12.5228" stroke-linecap="round"></path>
                        <path d="M664.1,202.1 L669.5,344.5" id="Shape" stroke="#333333" stroke-width="12.5228" stroke-linecap="round"></path>
                        <path d="M422.6,27 C454.1,27 485.8,30.2 516.7,36.5 C547.6,42.8 578,52.3 607,64.7 L723.6,114.6 C781.1,139.2 818.2,195.5 818.2,258 L818.2,258.4 L818.2,336.6 L27,336.6 L27,258 C27,195.5 64.1,139.2 121.6,114.6 L238.2,64.7 C267.2,52.3 297.6,42.8 328.5,36.5 C359.4,30.2 391.1,27 422.6,27 Z M422.6,0 C355.6,0 289.3,13.6 227.6,39.9 L111,89.8 C43.7,118.6 0,184.8 0,258 L0,363.6 L845.2,363.6 L845.2,258.4 L845.2,258 C845.2,184.8 801.5,118.6 734.2,89.8 L617.6,40 C555.9,13.6 489.6,0 422.6,0 Z" id="Shape" fill="#333333" fill-rule="nonzero"></path>
                    </g>
                    <path d="M287.9,30.7 L287.9,356.7" id="Shape" stroke="#333333" stroke-width="12.5228" stroke-linecap="round"></path>
                    <path d="M551.5,30.7 L551.5,356.7" id="Shape" stroke="#333333" stroke-width="12.5228" stroke-linecap="round"></path>
                </g>
                <path d="M521.2,31.7 C521.2,32.8 521.3,51.3 521.3,52.4 C521.3,106.1 475.8,149.7 419.7,149.7 C363.6,149.7 318.1,106.1 318.1,52.4 L318.1,31.7" id="Shape" stroke="#333333" stroke-width="11.0453" opacity="0.15"></path>
            </g>
            <g id="Group" transform="translate(318.000000, 0.000000)" fill-rule="nonzero">
                <path d="M101.6,240.7 C68.6,240.7 39.5,219.6 29.4,188.1 L14.1,140.6 L51.9,14 L152.8,14.3 L189.2,140.4 L173.6,188.3 C163.4,219.5 134.5,240.6 101.6,240.6 L101.6,240.7 Z" id="Shape" fill="#AE7242"></path>
                <path d="M62,27.6 L142.7,27.8 L175.2,140.2 L160.9,184.1 C152.5,209.8 128.8,227.1 101.8,227.1 L101.7,227.1 C74.5,227.1 50.7,209.7 42.4,183.9 L28.4,140.4 L62,27.6 Z M41.9,0.5 L0,140.7 L16.6,192.2 C28.5,229.1 62.9,254.2 101.7,254.2 C101.8,254.2 101.8,254.2 101.9,254.2 C140.5,254.1 174.7,229.3 186.7,192.5 L203.6,140.7 L163,0.8 L41.9,0.5 Z" id="Shape" fill="#333333"></path>
            </g>
        </g>
    </g>
</svg>