<svg xmlns="http://www.w3.org/2000/svg" width="899.21" height="1415"><path fill="none" d="M0 0h76.054v104.914H0z"/><path fill="#694A23" d="M76.204 1403.3c-4.743-19.368-15.771-68.836-18.804-121.202-3.423-59.104 2.747-134.189 51.581-156.246 89.674-40.504 217.406-54.238 253.176-57.409 7.304 24.963 31.12 87.194 87.073 87.517h.135c56.002-.323 72.419-61.298 76.886-87.468 38.953 3.256 174.123 17.052 263.363 57.36 48.834 22.057 55.004 97.142 51.581 156.246-3.033 52.362-14.06 101.83-18.804 121.202H76.204z"/><path fill="#343333" d="M353.919 1080.967c3.032 8.786 7.368 19.522 13.277 30.288 25.458 46.375 58.625 56.27 81.967 56.404h.27c34.1-.197 61.555-21.018 77.308-58.625 4.116-9.826 6.943-19.618 8.865-27.968 48.027 4.498 168.237 18.882 249.192 55.448 17.844 8.059 30.174 25.008 37.695 51.813 6.807 24.258 9.176 55.469 7.041 92.763-2.568 44.847-11.146 87.64-16.394 110.511H85.447c-5.221-22.721-13.728-65.127-16.347-109.852-2.193-37.447.138-68.79 6.929-93.158 7.512-26.957 19.866-43.99 37.769-52.076 81.542-36.832 195.763-51.159 240.121-55.548m162.208-24.98s-6.977 87.927-66.829 88.271c-59.853-.345-78.289-88.271-78.289-88.271s-158.933 10.46-266.844 59.201C-2.237 1163.248 67.117 1415 67.117 1415h764.361s69.354-251.752-37.048-299.812c-107.91-48.741-278.303-59.201-278.303-59.201z"/><g fill="none" stroke="#343333" stroke-width="9" stroke-miterlimit="10"><path d="M449.604 1156.9V1415M167.998 1107.527s103.285 84.766 246.054 97.407l35.552-39.44"/><path d="M730.598 1107.527s-103.285 84.766-246.053 97.407l-35.553-39.44"/></g><g fill="#F0F4EE"><path d="M482.717 1209.588l-19.294-21.34v203.279h4.212v-1.432l1.48 1.432h11.367l1.48-1.432v1.432h4.212v-182.2l-3.457.261zm-3.733 25.082l-4.186 4.048-4.186-4.048 4.186-4.048 4.186 4.048zm-8.371-13.857l4.186-4.049 4.186 4.049-4.186 4.048-4.186-4.048zm8.371 27.714l-4.186 4.048-4.186-4.048 4.186-4.048 4.186 4.048zm0 13.858l-4.186 4.048-4.186-4.048 4.186-4.048 4.186 4.048zm0 13.856l-4.186 4.049-4.186-4.049 4.186-4.048 4.186 4.048zm0 13.858l-4.186 4.048-4.186-4.048 4.186-4.048 4.186 4.048zm0 13.857l-4.186 4.048-4.186-4.048 4.186-4.048 4.186 4.048zm0 13.857l-4.186 4.048-4.186-4.048 4.186-4.049 4.186 4.049zm2.979 2.88v8.097l-4.186-4.049 4.186-4.048zm-4.186-9.808l4.186-4.049v8.097l-4.186-4.048zm0-13.858l4.186-4.048v8.096l-4.186-4.048zm0-13.857l4.186-4.048v8.097l-4.186-4.049zm0-13.857l4.186-4.049v8.097l-4.186-4.048zm0-13.857l4.186-4.048v8.096l-4.186-4.048zm0-13.857l4.186-4.048v8.096l-4.186-4.048zm0-13.858l4.186-4.048v8.097l-4.186-4.049zm0-13.856l4.186-4.049v8.097l-4.186-4.048zm1.207-6.929l-4.186 4.048-4.186-4.048 4.186-4.048 4.186 4.048zm-11.349-10.977l4.186 4.048-4.186 4.048v-8.096zm0 13.857l4.186 4.049-4.186 4.048v-8.097zm0 13.857l4.186 4.048-4.186 4.049v-8.097zm0 13.858l4.186 4.048-4.186 4.048v-8.096zm0 13.857l4.186 4.048-4.186 4.048v-8.096zm0 13.857l4.186 4.049-4.186 4.048v-8.097zm0 13.857l4.186 4.048-4.186 4.049v-8.097zm0 13.857l4.186 4.048-4.186 4.048v-8.096zm0 13.857l4.186 4.049-4.186 4.048v-8.097zm0 13.857l4.186 4.048-4.186 4.049v-8.097zm7.164 48.618l4.186 4.048-4.186 4.048-4.186-4.048 4.186-4.048zm-7.164 1.167v-8.096l4.186 4.048-4.186 4.048zm2.978-10.977l4.186-4.048 4.186 4.048-4.186 4.048-4.186-4.048zm-2.978-2.88v-8.097l4.186 4.048-4.186 4.049zm2.978-10.977l4.186-4.048 4.186 4.048-4.186 4.049-4.186-4.049zm-2.978-2.88v-8.097l4.186 4.049-4.186 4.048zm0 41.571v-8.097l4.186 4.049-4.186 4.048zm7.164 6.929l-4.186-4.048 4.186-4.049 4.186 4.049-4.186 4.048zm7.164-6.929l-4.186-4.048 4.186-4.049v8.097zm0-13.857l-4.186-4.048 4.186-4.048v8.096zm0-13.857l-4.186-4.049 4.186-4.048v8.097zm0-13.857l-4.186-4.048 4.186-4.049v8.097zm-3.039-11.035l-1.934 1.87h.121l-2.313 2.236-2.313-2.236h.121l-1.934-1.87 1.415-1.368h-.121l2.831-2.738 2.831 2.738h-.121l1.417 1.368zM722.083 1375.929c-.03-1.381-.052-2.301-.052-2.301l-.054-2.301c-.04-1.381-.051-3.223-.139-5.061l-.391-7.353-.034-.63a38.722 38.722 0 0 0-.114-1.664l-.416-5.042c-.152-1.834-.291-3.668-.464-5.036l-.254-2.284-.255-2.284c-.149-1.371-.344-3.199-.616-5.018-.253-1.82-.508-3.641-.696-5.005-.184-1.368-.333-2.273-.333-2.273l-.495-2.986c-.189-1.244-.394-2.73-.686-4.215l-1.358-7.244-.117-.623c-.075-.396-.173-.964-.33-1.637l-1.093-4.946c-.409-1.795-.771-3.603-1.121-4.938l-.566-2.23-.567-2.23c-.35-1.336-.772-3.129-1.271-4.9l-2.029-7.077-.175-.607c-.108-.388-.27-.94-.484-1.596l-1.536-4.819c-.56-1.753-1.106-3.51-1.581-4.805-.455-1.302-.76-2.169-.76-2.169l-.76-2.169c-.454-1.303-1.054-3.041-1.727-4.751-.655-1.718-1.311-3.435-1.801-4.723-.485-1.291-.834-2.141-.834-2.141l-2.798-6.796c-1.476-3.363-2.95-6.727-2.95-6.727l-.938-2.096-2.152-4.567a133.126 133.126 0 0 0-2.2-4.543l-1.026-2.052s-1.62-3.295-3.365-6.524c-1.688-3.259-3.5-6.451-3.5-6.451s-1.755-3.224-3.636-6.375c-1.828-3.183-3.77-6.298-3.77-6.298s-1.901-3.14-3.902-6.219a175.243 175.243 0 0 0-2.76-4.228l-1.272-1.911s-.496-.771-1.288-1.9l-2.878-4.154-2.949-4.108-1.368-1.85s-2.186-2.963-4.451-5.876l-3.154-3.983-1.466-1.794c.001 0-2.215-2.722-4.614-5.469a374.51 374.51 0 0 1-3.963 1.869l.598.681c1.413 1.617 2.783 3.255 2.784 3.255l-2.971-.271-2.965-.229.128-2.306c-1.393.646-2.864 1.327-4.326 2.002l-.003.056-.109-.004c-5.507 2.541-10.805 4.967-10.805 4.967.14.139 2.248 2.353 4.306 4.73 2.209 2.52 4.356 5.156 4.356 5.156l1.342 1.644 2.906 3.67c2.093 2.692 4.122 5.444 4.123 5.443l1.271 1.718 2.744 3.822 2.682 3.871a55.092 55.092 0 0 1 1.201 1.773l1.187 1.782a156.204 156.204 0 0 1 2.577 3.947c1.869 2.875 3.645 5.81 3.645 5.81s1.815 2.91 3.523 5.886c1.76 2.945 3.398 5.96 3.398 5.96s1.694 2.982 3.271 6.029c1.633 3.018 3.144 6.096 3.144 6.096l.96 1.917a122.074 122.074 0 0 1 2.055 4.242l2.011 4.264.873 1.956 2.754 6.276 2.609 6.336s.324.792.774 1.994l1.678 4.399c.629 1.594 1.186 3.212 1.607 4.424a6452.85 6452.85 0 0 1 1.415 4.039c.444 1.205.949 2.84 1.47 4.469l1.43 4.481c.201.609.351 1.123.45 1.483l.162.564 1.886 6.574c.464 1.646.853 3.31 1.178 4.549l.527 2.07.526 2.07c.327 1.239.658 2.916 1.038 4.581l.726 3.273h-.02l.281 1.287.412 2.102 1.276 6.733.613 3.694c.05.33.098.647.146.938a7221.57 7221.57 0 0 1 .409 2.666h.038c.056.372.136.915.224 1.579.178 1.272.414 2.969.648 4.664.256 1.694.436 3.396.574 4.672l.237 2.126.237 2.126c.163 1.274.288 2.98.431 4.685l.388 4.688c.06.639.09 1.173.106 1.547a26839.32 26839.32 0 0 0 .394 7.415c.083 1.708.089 3.417.129 4.697a3263.323 3263.323 0 0 0 .097 4.272c.042 1.281-.012 2.989-.015 4.697-.013 1.708-.027 3.416-.039 4.697.004.641-.027 1.174-.042 1.547l-.023.587-.157 3.84h4.215l.034-.837.787.837h5.719l-3.41-3.628s1.104-.988 2.158-1.996l2.109-2.025 2.076 2.12a99.15 99.15 0 0 1 2.022 2.15l-3.658 3.379h6.22l.294-.271-.011.271h4.214l.129-3.167s.011-.23.025-.634c.016-.401.048-.978.046-1.668.012-1.382.027-3.224.044-5.065.004-1.842.058-3.683.016-5.064zm-90.801-198.848l-.292 2.896s-1.292-1.543-2.608-3.051a188.878 188.878 0 0 0-2.649-2.965c0-.001 1.438.014 2.889.075l2.912.136-.252 2.909zm8.321 13.71l-2.464-3.21-2.506-3.171 2.897.286 2.911.314-.838 5.781zm1.696-12.863l-.335 2.937-2.921-.307-2.92-.266.308-2.913.271-2.929 2.942.246 2.949.284-.294 2.948zm56.775 143.757l4.852 3.248-3.455 4.727-1.397-7.975zm1.862-15.583l-2.539-1.491 3.04-5.03 5.085 3.011-1.517 2.529c-.747 1.255-1.557 2.509-1.557 2.509s-1.228-.779-2.512-1.528zm.243 5.059l-3.209 4.869-1.752-7.908 4.961 3.039zm-20.073-62.169l1.019-2.747 2.787 1.005 2.757 1.048-2.14 5.513-5.494-2.077 1.071-2.742zm-1.504-8.085l-5.597-1.83.948-2.783c.479-1.4.918-2.797.918-2.797s1.418.433 2.81.895l2.805.927-1.884 5.588zm8.226 18.34l5.469 2.286c-.001 0-.578 1.361-1.188 2.72l-1.209 2.701-2.688-1.176c-1.336-.584-2.692-1.145-2.692-1.145l2.308-5.386zm5.152 13.232l5.325 2.539-1.286 2.658-1.305 2.636-2.657-1.285-2.658-1.257 2.581-5.291zm2.189 17.814c.272-.482.629-1.127.968-1.77l1.371-2.587 2.632 1.364a74.4 74.4 0 0 1 1.794.96c.484.267.808.443.808.443l-2.868 5.184-5.154-2.792c-.001.001.178-.32.449-.802zm9.554 23.101l2.498 1.602c.736.476 1.449.955 1.917 1.273h-.012c.261.174.437.291.492.329l.025.018-3.32 4.892-4.688-3.121-.17-.114s.854-1.212 1.656-2.43l1.602-2.449zm9.192 9.767l.695 4.182-4.79-3.435 3.323-4.869c.046.226.432 2.157.772 4.122zm-8.635 6.984l2.083-2.801 4.765 3.478-.252.345-1.587 2.132-1.68 2.223-2.356-1.748c-1.17-.869-2.367-1.72-2.367-1.72l1.394-1.909zm4.118 11.226l4.621 3.668-1.851 2.303-1.862 2.275-2.302-1.848-2.309-1.821 3.703-4.577zm6.031 8.65c.966-1.148 1.884-2.307 1.885-2.307 0 0 .071.525.133 1.32l.241 2.907.35 4.229-4.52-3.869 1.911-2.28zm-6.552 7.694l1.916-2.214 2.259 1.92c.57.483 1.123.971 1.533 1.338.412.369.688.613.688.613l-3.957 4.408-4.397-3.877.618-.681c.374-.409.865-.956 1.34-1.507zm9.528 4.483s.111 2.12.225 4.239c.07 1.059.063 2.121.09 2.917.02.796.031 1.326.031 1.326l-2.141-2.051c-1.059-1.021-2.161-2.022-2.161-2.022l3.956-4.409zm-2.286-24.691c.314 2.098.526 4.209.526 4.209l-2.312-1.848c-1.183-.906-2.364-1.814-2.364-1.814l3.278-4.365h.055l.231-.318.047.318h.007c.099.698.314 2.256.532 3.818zm-5.964-32.706l1.838 8.293-5.001-3.233 3.163-5.06zm-3.727-14.045l1.17 4.081c.306 1.016.536 2.054.742 2.822l.327 1.286-2.546-1.52c-1.261-.757-2.561-1.485-2.561-1.485l2.868-5.184zm-4.312-13.869s.188.496.426 1.256l.887 2.779 1.289 4.042-5.272-2.756 1.352-2.651c.682-1.335 1.317-2.67 1.318-2.67zm-3.453-9.681c.777 1.974 1.457 3.983 1.457 3.983l-2.667-1.282-2.711-1.237 2.41-5.427 1.511 3.963zm-8.124-14.603l1.065-2.768s.874 1.931 1.694 3.885l1.615 3.92-5.468-2.285c.001-.001.569-1.377 1.094-2.752zm-5.993-13.113c.498-1.41.95-2.813.95-2.813s.236.475.592 1.185l1.246 2.634 1.807 3.834-5.586-2.034.991-2.806zm-6.558-12.836l.844-2.858 3.965 7.489-2.839-.909-2.835-.882.865-2.84zm-7.086-12.55l.721-2.89.679 1.137 1.471 2.514 1.471 2.515c.404.684.653 1.151.653 1.151l-2.867-.792-2.87-.762.742-2.873zm-7.602-12.247l.583-2.909s1.183 1.759 2.312 3.552l2.28 3.572-5.801-1.309.626-2.906zm-7.676-14.845l2.474 3.447 2.416 3.485-5.835-1.071.945-5.861zm-9.136-8.604l.32-2.965s1.318 1.67 2.638 3.339l2.588 3.371-5.892-.801c.001.001.173-1.471.346-2.944zm2.215 23.648l-2.311-3.334-2.364-3.293 5.784.88-1.109 5.747zm2.302-12.783l-.48 2.919-2.9-.451-2.908-.409.453-2.898.421-2.911 2.926.397 2.928.431-.44 2.922zm5.321 24.396l-2.185-3.422c-1.081-1.718-2.214-3.401-2.213-3.401l2.874.549 2.86.59-1.336 5.684zm-3.528-10.891l.582-2.876.548-2.886 2.908.525c1.453.279 2.905.56 2.905.56l-1.172 5.791-5.771-1.114zm11.443 20.025l-.802 2.806s-.239-.448-.626-1.104l-1.41-2.409-1.41-2.41-.649-1.089 2.834.679 2.839.708-.776 2.819zm-1.007-7.564l-2.861-.663.708-2.852.678-2.864 2.877.653 2.874.687-.694 2.873a162.975 162.975 0 0 1-.719 2.858c0 .002-1.423-.358-2.863-.692zm7.731 19.826l-.913 2.766-3.8-7.176 2.802.799 2.805.827-.894 2.784zm-.686-7.599l-2.832-.782.825-2.818.806-2.838 2.84.779 2.844.805-.813 2.841c-.402 1.412-.839 2.826-.839 2.826s-1.405-.421-2.831-.813zm5.85 22.86l-1.731-3.672-1.192-2.522-.568-1.135s1.406.439 2.779.91l2.761.948-2.049 5.471zm5.525 12.741l-1.545-3.751c-.785-1.871-1.623-3.72-1.623-3.72l2.742 1.026c1.381.516 2.733 1.059 2.734 1.059l-2.308 5.386zm4.979 12.959s-.647-1.922-1.393-3.809l-1.445-3.79 5.366 2.326-1.232 2.64-1.296 2.633zm4.393 13.162l-1.231-3.862-.847-2.655c-.228-.726-.407-1.199-.407-1.199s1.332.619 2.625 1.267l2.611 1.301-2.751 5.148zm1.633 5.531l5.155 2.792s-.725 1.263-1.495 2.522l-1.523 2.501-.312-1.227c-.197-.733-.415-1.724-.707-2.693l-1.118-3.895zm9.255 44.663l-.559-4.019 4.708 3.471-1.794 2.296c-.925 1.138-1.853 2.275-1.853 2.275s-.199-2.018-.502-4.023zm1.499 13.795l-.229-2.776c-.06-.759-.128-1.261-.128-1.261s1.159.901 2.274 1.822c1.126.928 2.253 1.854 2.253 1.854l-3.836 4.402-.334-4.041zm.987 16.626c-.028-.758-.019-1.772-.086-2.782l-.216-4.048 4.398 3.877s-.989 1.068-2.023 2.123l-2.045 2.096-.028-1.266zm.095 15.13l.066-8.1 4.153 4.073-4.219 4.027zm7.224-6.959s-1.023-1.034-2.106-2.052c-1.07-1.012-2.141-2.022-2.141-2.022l4.09-4.221 4.281 4.074-2.045 2.125c-1.01 1.056-2.079 2.096-2.079 2.096zm7.1 7.241l-4.148-4.271 4.217-4.222-.069 8.493zM412.222 1209.327v182.2h4.212v-1.432l1.48 1.432h11.367l1.48-1.432v1.432h4.212v-203.279l-19.294 21.34-3.457-.261zm11.376 21.295l4.186 4.048-4.186 4.048-4.186-4.048 4.186-4.048zm0-5.761l-4.186-4.048 4.186-4.049 4.186 4.049-4.186 4.048zm0 19.618l4.186 4.048-4.186 4.048-4.186-4.048 4.186-4.048zm0 13.858l4.186 4.048-4.186 4.048-4.186-4.048 4.186-4.048zm0 13.856l4.186 4.048-4.186 4.049-4.186-4.049 4.186-4.048zm0 13.858l4.186 4.048-4.186 4.048-4.186-4.048 4.186-4.048zm0 13.857l4.186 4.048-4.186 4.048-4.186-4.048 4.186-4.048zm0 13.857l4.186 4.049-4.186 4.048-4.186-4.048 4.186-4.049zm-2.979 10.976l-4.186 4.049v-8.097l4.186 4.048zm-4.185-9.808v-8.097l4.186 4.049-4.186 4.048zm0-13.858v-8.096l4.186 4.048-4.186 4.048zm0-13.856v-8.097l4.186 4.048-4.186 4.049zm0-13.858v-8.097l4.186 4.049-4.186 4.048zm0-13.857v-8.096l4.186 4.048-4.186 4.048zm0-13.858v-8.096l4.186 4.048-4.186 4.048zm0-13.856v-8.097l4.186 4.048-4.186 4.049zm0-13.857v-8.097l4.186 4.049-4.186 4.048zm7.164-15.025l4.186 4.048-4.186 4.048-4.186-4.048 4.186-4.048zm7.164 1.167l-4.186-4.048 4.186-4.048v8.096zm0 13.858l-4.186-4.048 4.186-4.049v8.097zm0 13.857l-4.186-4.049 4.186-4.048v8.097zm0 13.856l-4.186-4.048 4.186-4.048v8.096zm0 13.858l-4.186-4.048 4.186-4.048v8.096zm0 13.857l-4.186-4.048 4.186-4.049v8.097zm0 13.858l-4.186-4.049 4.186-4.048v8.097zm0 13.856l-4.186-4.048 4.186-4.048v8.096zm0 13.858l-4.186-4.048 4.186-4.049v8.097zm0 13.857l-4.186-4.049 4.186-4.048v8.097zm-2.979 44.568l-4.186 4.048-4.186-4.048 4.186-4.048 4.186 4.048zm-1.207-6.928l4.186-4.048v8.096l-4.186-4.048zm-2.978-2.881l-4.186-4.048 4.186-4.048 4.186 4.048-4.186 4.048zm2.978-10.977l4.186-4.048v8.097l-4.186-4.049zm-2.978-2.88l-4.186-4.049 4.186-4.048 4.186 4.048-4.186 4.049zm2.978-10.976l4.186-4.049v8.097l-4.186-4.048zm0 41.571l4.186-4.049v8.097l-4.186-4.048zm-7.164 6.929l4.186-4.049 4.186 4.049-4.186 4.048-4.186-4.048zm-2.978-10.978l4.186 4.049-4.186 4.048v-8.097zm0-13.856l4.186 4.048-4.186 4.048v-8.096zm0-13.858l4.186 4.048-4.186 4.049v-8.097zm0-13.857l4.186 4.049-4.186 4.048v-8.097zm4.454-4.307h-.121l2.831-2.738 2.831 2.738h-.121l1.415 1.368-1.934 1.87h.121l-2.313 2.236-2.313-2.236h.121l-1.934-1.87 1.417-1.368zM176.328 1380.993l.044 5.065c-.002.69.03 1.267.046 1.668l.025.634.129 3.167h4.214l-.011-.271.294.271h6.22l-3.658-3.379a99.15 99.15 0 0 1 2.022-2.15l2.076-2.12 2.109 2.025a104.975 104.975 0 0 0 2.158 1.996l-3.41 3.628h5.719l.787-.837.034.837h4.215l-.157-3.84s-.01-.213-.023-.587c-.015-.373-.046-.906-.042-1.547-.012-1.281-.026-2.989-.039-4.697-.003-1.708-.057-3.416-.015-4.697l.048-2.135.049-2.137c.04-1.28.046-2.989.129-4.697l.363-6.83.031-.585c.017-.374.047-.908.106-1.547l.388-4.688c.143-1.704.268-3.41.431-4.685l.237-2.126.237-2.126c.139-1.276.318-2.978.574-4.672.234-1.695.471-3.392.648-4.664.088-.664.168-1.207.224-1.579h.038l.086-.558.323-2.108c.048-.29.096-.607.146-.938l.613-3.694c.639-3.366 1.276-6.733 1.276-6.733l.412-2.102.281-1.287h-.02l.726-3.273c.38-1.665.711-3.342 1.038-4.581l.526-2.07.527-2.07c.325-1.239.714-2.903 1.178-4.549l1.886-6.574.162-.564c.1-.36.249-.874.45-1.483.39-1.222.909-2.852 1.43-4.481.521-1.629 1.025-3.264 1.47-4.469l.707-2.019.708-2.02c.422-1.212.979-2.83 1.607-4.424.609-1.6 1.22-3.199 1.678-4.399.45-1.202.774-1.994.774-1.994l2.609-6.336 2.754-6.276.873-1.956 2.011-4.264c.72-1.556 1.467-3.099 2.055-4.242l.96-1.917s1.511-3.078 3.144-6.096c1.577-3.047 3.271-6.029 3.271-6.029s1.639-3.015 3.398-5.96c1.708-2.976 3.523-5.886 3.523-5.886s1.775-2.935 3.645-5.81a156.204 156.204 0 0 1 2.577-3.947l1.187-1.782c0-.001.463-.723 1.201-1.773l2.682-3.871 2.744-3.822 1.271-1.718c.001.001 2.03-2.751 4.123-5.443l2.906-3.67 1.342-1.644s2.147-2.637 4.356-5.156a134.01 134.01 0 0 1 4.306-4.73s-5.298-2.426-10.805-4.967l-.109.004-.003-.056c-1.462-.675-2.934-1.355-4.326-2.002l.128 2.306-2.965.229-2.971.271c.001 0 1.371-1.638 2.784-3.255.2-.229.399-.456.598-.681a374.51 374.51 0 0 1-3.963-1.869 231.24 231.24 0 0 0-4.614 5.469l-1.466 1.794-3.154 3.983c-2.266 2.913-4.451 5.876-4.451 5.876l-1.368 1.85-2.949 4.108-2.878 4.154c-.792 1.129-1.288 1.9-1.288 1.9l-1.272 1.911a175.243 175.243 0 0 0-2.76 4.228c-2.001 3.079-3.902 6.219-3.902 6.219s-1.941 3.115-3.77 6.298c-1.881 3.151-3.636 6.375-3.636 6.375s-1.812 3.192-3.5 6.451c-1.745 3.229-3.365 6.524-3.365 6.524l-1.026 2.052a133.126 133.126 0 0 0-2.2 4.543l-2.152 4.567-.938 2.096-2.95 6.727-2.798 6.796s-.349.85-.834 2.141c-.49 1.288-1.146 3.005-1.801 4.723-.673 1.71-1.272 3.448-1.727 4.751l-.76 2.169s-.305.867-.76 2.169c-.475 1.295-1.021 3.052-1.581 4.805l-1.536 4.819a36.607 36.607 0 0 0-.484 1.596l-.175.607-2.029 7.077c-.498 1.771-.921 3.564-1.271 4.9l-.567 2.23-.566 2.23c-.351 1.336-.712 3.144-1.121 4.938l-1.093 4.946c-.157.673-.255 1.241-.33 1.637l-.117.623-1.358 7.244c-.292 1.484-.496 2.971-.686 4.215l-.495 2.986s-.149.905-.333 2.273c-.188 1.364-.443 3.185-.696 5.005-.272 1.818-.467 3.646-.616 5.018l-.255 2.284-.254 2.284c-.173 1.368-.312 3.202-.464 5.036l-.416 5.042a35.79 35.79 0 0 0-.114 1.664l-.034.63-.391 7.353c-.088 1.838-.099 3.68-.139 5.061l-.054 2.301-.052 2.301c-.041 1.381.013 3.222.016 5.064zm90.535-206.82l2.912-.136a94.257 94.257 0 0 1 2.889-.075s-1.332 1.455-2.649 2.965c-1.316 1.508-2.608 3.051-2.608 3.051l-.292-2.896-.252-2.909zm-8.908 10.838l2.911-.314 2.897-.286-2.506 3.171-2.464 3.21-.838-5.781zm-1.152-10.031l2.949-.284 2.942-.246.271 2.929c.153 1.457.308 2.913.308 2.913l-2.92.266-2.921.307-.335-2.937-.294-2.948zm-57.877 154.679l-3.455-4.727 4.852-3.248-1.397 7.975zm-2.978-22.03s-.81-1.254-1.557-2.509l-1.517-2.529 5.085-3.011 3.04 5.03-2.539 1.491c-1.283.75-2.512 1.528-2.512 1.528zm7.231.493l-1.752 7.908-3.209-4.869 4.961-3.039zm16.182-56.389l-5.494 2.077-2.14-5.513 2.757-1.048 2.787-1.005 1.019 2.747 1.071 2.742zm-1.45-16.415l2.805-.927c1.392-.462 2.81-.895 2.81-.895s.439 1.396.918 2.797l.948 2.783-5.597 1.83-1.884-5.588zm-4.034 29.316s-1.356.561-2.692 1.145l-2.688 1.176-1.209-2.701c-.609-1.358-1.187-2.72-1.188-2.72l5.469-2.286 2.308 5.386zm-4.88 13.136l-2.658 1.257-2.657 1.285-1.305-2.636-1.286-2.658 5.325-2.539 2.581 5.291zm-4.319 13.326l-5.154 2.792-2.868-5.184.808-.443a74.4 74.4 0 0 1 1.794-.96l2.632-1.364 1.371 2.587c.339.643.695 1.287.968 1.77l.449.802zm-8.403 24.746a107.18 107.18 0 0 0 1.656 2.43l-.17.114-4.688 3.121-3.32-4.892.025-.018.492-.329h-.012c.468-.318 1.181-.798 1.917-1.273l2.498-1.602s.802 1.224 1.602 2.449zm-10.022 3.197l3.323 4.869-4.79 3.435.695-4.182c.34-1.965.726-3.896.772-4.122zm9.258 13.014s-1.197.851-2.367 1.72l-2.356 1.748-1.68-2.223-1.587-2.132-.252-.345 4.765-3.478 2.083 2.801 1.394 1.909zm-1.811 13.895l-2.309 1.821-2.302 1.848-1.862-2.275-1.851-2.303 4.621-3.668 3.703 4.577zm-7.821 6.354l-4.52 3.869.35-4.229.241-2.907c.062-.795.133-1.32.133-1.32.001 0 .919 1.158 1.885 2.307l1.911 2.28zm5.981 6.921l.618.681-4.397 3.877-3.957-4.408.688-.613c.41-.367.963-.854 1.533-1.338l2.259-1.92 1.916 2.214c.474.55.965 1.097 1.34 1.507zm-6.913 7.384s-1.103 1.002-2.161 2.022l-2.141 2.051.031-1.326c.027-.796.02-1.858.09-2.917l.225-4.239 3.956 4.409zm-1.138-32.919h.007l.047-.318.231.318h.055l3.278 4.365-2.364 1.814-2.312 1.848s.212-2.111.526-4.209l.532-3.818zm8.595-23.828l-5.001 3.233 1.838-8.293 3.163 5.06zm3.432-13.92s-1.3.729-2.561 1.485l-2.546 1.52.327-1.286c.206-.769.437-1.807.742-2.822l1.17-4.081 2.868 5.184zm2.764-16.383l1.352 2.651-5.272 2.756 1.289-4.042.887-2.779c.238-.76.426-1.256.426-1.256-.001 0 .634 1.335 1.318 2.67zm3.644-16.314l2.41 5.427-2.711 1.237-2.667 1.282s.68-2.01 1.457-3.983l1.511-3.963zm7.706-7.889l-5.468 2.285 1.615-3.92c.82-1.954 1.694-3.885 1.694-3.885l1.065 2.768c.527 1.376 1.094 2.752 1.094 2.752zm5.892-13.059l-5.586 2.034 1.807-3.834 1.246-2.634.592-1.185s.452 1.403.95 2.813l.991 2.806zm6.431-12.801l-2.835.882-2.839.909 3.965-7.489.844 2.858.865 2.84zm6.964-12.517l-2.87.762-2.867.792s.249-.468.653-1.151l1.471-2.515 1.471-2.514.679-1.137.721 2.89.742 2.873zm7.486-12.213l-5.801 1.309 2.28-3.572c1.129-1.793 2.312-3.552 2.312-3.552l.583 2.909.626 2.906zm7.995-11.891l-5.835 1.071 2.416-3.485c1.236-1.724 2.474-3.447 2.474-3.447l.945 5.861zm8.536-11.52l-5.892.801 2.588-3.371 2.638-3.339.32 2.965.346 2.944zm-3.67 14.956l5.784-.88s-1.183 1.646-2.364 3.293l-2.311 3.334-1.109-5.747zm-1.631-9.958l2.928-.431 2.926-.397.421 2.911.453 2.898-2.908.409-2.9.451-.48-2.919-.44-2.922zm-6.22 21.633l2.86-.59 2.874-.549c.001 0-1.132 1.684-2.213 3.401l-2.185 3.422-1.336-5.684zm-.906-4.091l-1.172-5.791 2.905-.56 2.908-.525.548 2.886.582 2.876-5.771 1.114zm-6.447 16.09l2.839-.708 2.834-.679-.649 1.089-1.41 2.41-1.41 2.409c-.387.655-.626 1.104-.626 1.104l-.802-2.806-.776-2.819zm-1.08-4.051c0 .001-.375-1.43-.719-2.858l-.694-2.873 2.874-.687 2.877-.653.678 2.864.708 2.852-2.861.663c-1.44.333-2.863.693-2.863.692zm-5.762 16.349l2.805-.827 2.802-.799-3.8 7.176-.913-2.766c-.448-1.391-.894-2.784-.894-2.784zm-1.252-4.003s-.437-1.414-.839-2.826l-.813-2.841 2.844-.805 2.84-.779.806 2.838.825 2.818-2.832.782a156.34 156.34 0 0 0-2.831.813zm-5.066 16.577s1.38-.475 2.761-.948c1.373-.471 2.779-.91 2.779-.91l-.568 1.135-1.192 2.522-1.731 3.672-2.049-5.471zm-5.786 12.827c.001 0 1.354-.543 2.734-1.059l2.742-1.026s-.838 1.849-1.623 3.72l-1.545 3.751-2.308-5.386zm-3.966 15.712l-1.232-2.64 5.366-2.326-1.445 3.79c-.745 1.887-1.393 3.809-1.393 3.809l-1.296-2.633zm-5.849 10.645l2.611-1.301c1.293-.647 2.625-1.267 2.625-1.267s-.18.474-.407 1.199c-.23.725-.538 1.689-.847 2.655l-1.231 3.862-2.751-5.148zm0 14.575c-.292.97-.51 1.96-.707 2.693l-.312 1.227-1.523-2.501c-.771-1.26-1.495-2.522-1.495-2.522l5.155-2.792-1.118 3.895zm-8.64 44.791l-1.853-2.275-1.794-2.296 4.708-3.471s-.278 2.01-.559 4.019c-.301 2.005-.502 4.023-.502 4.023zm-1.33 13.813l-3.836-4.402s1.127-.926 2.253-1.854c1.115-.921 2.274-1.822 2.274-1.822s-.068.502-.128 1.261l-.229 2.776-.334 4.041zm-.681 13.85l-2.045-2.096c-1.034-1.055-2.023-2.123-2.023-2.123l4.398-3.877-.216 4.048c-.067 1.01-.058 2.024-.086 2.782a512.64 512.64 0 0 1-.028 1.266zm-4.286 9.838l4.153-4.073.066 8.1-4.219-4.027zm-5.083-5.028c-1.021-1.063-2.045-2.125-2.045-2.125l4.281-4.074 4.09 4.221-2.141 2.022c-1.083 1.018-2.106 2.052-2.106 2.052s-1.07-1.04-2.079-2.096zm-5.09.844l4.217 4.222-4.148 4.271-.069-8.493z"/></g></svg>