<svg xmlns="http://www.w3.org/2000/svg" width="899" height="1415"><g stroke="#333"><path d="M864.9 1404.232v-59.392c0-98.415-79.766-178.178-178.178-178.178H211.573c-98.386 0-178.178 79.766-178.178 178.178v59.392z" fill="#ce9e5d" stroke-width="18.489"/><path d="M330.36 1136.962h237.573s-30.233 207.875-118.787 207.875-118.786-207.875-118.786-207.875" fill="#292f33" stroke-width="18.489"/><path d="M36.062 1315.14c-1.634 9.68-2.672 19.57-2.672 29.697v59.392h831.505v-59.392c0-10.127-1.039-20.014-2.673-29.697z" fill="#fff35f" stroke-width="18.489"/><path d="M864.9 1374.535H33.395v-29.698H864.9z" fill="#ccd6dd" stroke-width="18.489"/><g stroke-width="7.084" fill="#292f33"><path d="M716.417 1404.232v-267.27c0-16.334-13.364-29.698-29.698-29.698h-29.697c-16.334 0-29.697 13.364-29.697 29.698v267.27zM270.968 1404.232v-267.27c0-16.334-13.364-29.698-29.697-29.698h-29.698c-16.334 0-29.697 13.364-29.697 29.698v267.27z" stroke-width="18.48966504"/></g><path d="M478.844 1344.837h-59.392v-59.392h59.392z" fill="#292f33" stroke-width="18.489"/><g stroke-width="7.084" fill="#ce9e5d"><path d="M449.783 1344.837l-.624 59.392H270.981v-207.875s-.475-43.447 0-59.392c.446-15.948-12.059-48.169 0-59.392 12.058-11.226 72.875 10.808 89.09 29.697 16.153 18.889 18.62 51.583 29.696 89.09 11.046 37.506 60.016 148.48 60.016 148.48" stroke-width="18.48966504"/><path d="M443.887 1344.837l.624 59.392h182.814v-207.875s.446-43.447 0-59.392c-.415-15.948 8.582-48.169-3.474-59.392-12.059-11.226-73.468 10.808-89.625 29.697-16.242 18.889-18.975 51.583-30.023 89.09-11.051 37.506-60.316 148.48-60.316 148.48" stroke-width="18.48966504"/></g></g></svg>