<?xml version="1.0" encoding="UTF-8"?>
<svg width="899px" height="1415px" viewBox="0 0 899 1415" version="1.1" xmlns="http://www.w3.org/2000/svg" xmlns:xlink="http://www.w3.org/1999/xlink">
    <!-- Generator: Sketch 49.3 (51167) - http://www.bohemiancoding.com/sketch -->
    <title>knitsweater-CCCCCC</title>
    <desc>Created with Sketch.</desc>
    <defs></defs>
    <g id="knitsweater-CCCCCC" stroke="none" stroke-width="1" fill="none" fill-rule="evenodd">
        <g id="3F2918" transform="translate(27.000000, 1052.000000)">
            <g id="Group">
                <path d="M845.2,258.4 L845.2,258 C845.2,184.8 801.5,118.6 734.2,89.8 L617.6,40 C556,13.6 489.7,0.1 422.6,0.1 C355.6,0.1 289.3,13.7 227.6,40 L111,89.8 C43.7,118.6 0,184.8 0,258 L0,363.6 L845.2,363.6 L845.2,258.4 Z" id="Shape" fill="#CCCCCC"></path>
                <g transform="translate(65.000000, 36.000000)" id="Shape" opacity="0.15">
                    <g transform="translate(0.000000, 54.000000)" fill="#333333" fill-rule="nonzero">
                        <g transform="translate(117.000000, 24.000000)">
                            <path d="M6.7,40.8 C5.1,40.8 3.5,40.2 2.3,39 C-0.1,36.6 -0.1,32.6 2.3,30.1 L30,2.4 C32.4,-1.12132525e-13 36.4,-1.12132525e-13 38.9,2.4 C41.3,4.8 41.3,8.8 38.9,11.3 L11.2,39 C9.9,40.2 8.3,40.8 6.7,40.8 Z"></path>
                        </g>
                        <g transform="translate(559.000000, 24.000000)">
                            <path d="M6.7,40.8 C5.1,40.8 3.5,40.2 2.3,39 C-0.1,36.6 -0.1,32.6 2.3,30.1 L30,2.4 C32.4,-1.12132525e-13 36.4,-1.12132525e-13 38.9,2.4 C41.3,4.8 41.3,8.8 38.9,11.3 L11.2,39 C9.9,40.2 8.3,40.8 6.7,40.8 Z"></path>
                        </g>
                        <g transform="translate(162.000000, 74.000000)">
                            <path d="M30.8,37.3 C29.2,37.3 27.6,36.7 26.4,35.5 L2.5,11.6 C0.1,9.2 0.1,5.2 2.5,2.7 C4.9,0.3 8.9,0.3 11.4,2.7 L35.3,26.6 C37.7,29 37.7,33 35.3,35.5 C34,36.7 32.4,37.3 30.8,37.3 Z"></path>
                        </g>
                        <g transform="translate(173.000000, 6.000000)">
                            <path d="M30.8,36.8 C29.2,36.8 27.6,36.2 26.4,35 L2.5,11.1 C0.1,8.7 0.1,4.7 2.5,2.2 C4.9,-0.2 8.9,-0.2 11.4,2.2 L35.3,26.1 C37.7,28.5 37.7,32.5 35.3,35 C34,36.2 32.4,36.8 30.8,36.8 Z"></path>
                        </g>
                        <g transform="translate(141.000000, 163.000000)">
                            <path d="M7.1,32.2 C5.5,32.2 3.9,31.6 2.7,30.4 C0.3,28 0.3,24 2.7,21.5 L22,2.2 C24.4,-0.2 28.4,-0.2 30.9,2.2 C33.3,4.6 33.3,8.6 30.9,11.1 L11.6,30.4 C10.3,31.6 8.7,32.2 7.1,32.2 Z"></path>
                        </g>
                        <g transform="translate(533.000000, 138.000000)">
                            <path d="M31.7,38.5 C30.1,38.5 28.5,37.9 27.3,36.7 L2.1,11.5 C-0.3,9.1 -0.3,5.1 2.1,2.6 C4.5,0.2 8.5,0.2 11,2.6 L36.2,27.8 C38.6,30.2 38.6,34.2 36.2,36.7 C34.9,37.8 33.3,38.5 31.7,38.5 Z"></path>
                        </g>
                        <g transform="translate(505.000000, 194.000000)">
                            <path d="M6.6,33.5 C5,33.5 3.4,32.9 2.2,31.7 C-0.2,29.3 -0.2,25.3 2.2,22.8 L23.1,1.9 C25.5,-0.5 29.5,-0.5 32,1.9 C34.4,4.3 34.4,8.3 32,10.8 L11.1,31.7 C9.8,32.9 8.2,33.5 6.6,33.5 Z"></path>
                        </g>
                        <g transform="translate(641.000000, 78.000000)">
                            <path d="M6.2,30 C4.6,30 3,29.4 1.8,28.2 C-0.6,25.8 -0.6,21.8 1.8,19.3 L19.2,1.9 C21.6,-0.5 25.6,-0.5 28.1,1.9 C30.5,4.3 30.5,8.3 28.1,10.8 L10.7,28.2 C9.4,29.4 7.8,30 6.2,30 Z"></path>
                        </g>
                        <g transform="translate(479.000000, 82.000000)">
                            <path d="M28.7,35.1 C27.1,35.1 25.5,34.5 24.3,33.3 L2.2,11.2 C-0.2,8.8 -0.2,4.8 2.2,2.3 C4.6,-0.1 8.6,-0.1 11.1,2.3 L33.2,24.4 C35.6,26.8 35.6,30.8 33.2,33.3 C31.9,34.5 30.3,35.1 28.7,35.1 Z"></path>
                        </g>
                        <g transform="translate(432.000000, 139.000000)">
                            <path d="M38.3,13.2 L7,13.2 C3.5,13.2 0.7,10.4 0.7,6.9 C0.7,3.4 3.5,0.6 7,0.6 L38.3,0.6 C41.8,0.6 44.6,3.4 44.6,6.9 C44.5,10.4 41.7,13.2 38.3,13.2 Z"></path>
                        </g>
                        <g transform="translate(530.000000, 0.000000)">
                            <path d="M37.7,12.6 L6.4,12.6 C2.9,12.6 0.1,9.8 0.1,6.3 C0.1,2.8 2.9,0 6.4,0 L37.7,0 C41.2,0 44,2.8 44,6.3 C44,9.8 41.2,12.6 37.7,12.6 Z"></path>
                        </g>
                        <g transform="translate(137.000000, 132.000000)">
                            <path d="M44.9,13.3 L6.4,13.3 C2.9,13.3 0.1,10.5 0.1,7 C0.1,3.5 2.9,0.7 6.4,0.7 L44.9,0.7 C48.4,0.7 51.2,3.5 51.2,7 C51.1,10.5 48.3,13.3 44.9,13.3 Z"></path>
                        </g>
                        <g transform="translate(28.000000, 159.000000)">
                            <path d="M6.4,40.2 C4.8,40.2 3.2,39.6 2,38.4 C-0.4,36 -0.4,32 2,29.5 L29.2,2.3 C31.6,-0.1 35.6,-0.1 38.1,2.3 C40.5,4.7 40.5,8.7 38.1,11.2 L10.9,38.4 C9.6,39.6 8,40.2 6.4,40.2 Z"></path>
                        </g>
                        <g transform="translate(0.000000, 126.000000)">
                            <path d="M46.5,13 L6.8,13 C3.3,13 0.5,10.2 0.5,6.7 C0.5,3.2 3.3,0.4 6.8,0.4 L46.6,0.4 C50.1,0.4 52.9,3.2 52.9,6.7 C52.8,10.2 50,13 46.5,13 Z"></path>
                        </g>
                        <g transform="translate(214.000000, 64.000000)">
                            <path d="M6.6,30.5 C5,30.5 3.4,29.9 2.2,28.7 C-0.2,26.3 -0.2,22.3 2.2,19.8 L19.3,2.7 C21.7,0.3 25.7,0.3 28.2,2.7 C30.6,5.1 30.6,9.1 28.2,11.6 L11.1,28.7 C9.8,29.8 8.2,30.5 6.6,30.5 Z"></path>
                        </g>
                        <g transform="translate(43.000000, 58.000000)">
                            <path d="M6.3,29.9 C4.7,29.9 3.1,29.3 1.9,28.1 C-0.5,25.7 -0.5,21.7 1.9,19.2 L19,2.1 C21.4,-0.3 25.4,-0.3 27.9,2.1 C30.3,4.5 30.3,8.5 27.9,11 L10.8,28.1 C9.5,29.3 7.9,29.9 6.3,29.9 Z"></path>
                        </g>
                        <g transform="translate(248.000000, 105.000000)">
                            <path d="M34,40.3 C32.4,40.3 30.8,39.7 29.6,38.5 L2.7,11.6 C0.3,9.2 0.3,5.2 2.7,2.7 C5.1,0.3 9.1,0.3 11.6,2.7 L38.5,29.6 C40.9,32 40.9,36 38.5,38.5 C37.2,39.6 35.6,40.3 34,40.3 Z"></path>
                        </g>
                        <g transform="translate(377.000000, 160.000000)">
                            <path d="M33.4,40.2 C31.8,40.2 30.2,39.6 29,38.4 L2.1,11.5 C-0.3,9.1 -0.3,5.1 2.1,2.6 C4.5,0.2 8.5,0.2 11,2.6 L37.9,29.5 C40.3,31.9 40.3,35.9 37.9,38.4 C36.6,39.6 35,40.2 33.4,40.2 Z"></path>
                        </g>
                        <g transform="translate(227.000000, 181.000000)">
                            <path d="M7,43 C5.4,43 3.8,42.4 2.6,41.2 C0.2,38.8 0.2,34.8 2.6,32.3 L32.3,2.6 C34.7,0.2 38.7,0.2 41.2,2.6 C43.6,5 43.6,9 41.2,11.5 L11.5,41.2 C10.2,42.4 8.6,43 7,43 Z"></path>
                        </g>
                        <g transform="translate(198.000000, 170.000000)">
                            <path d="M43.4,12.7 L7.1,12.7 C3.6,12.7 0.8,9.9 0.8,6.4 C0.8,2.9 3.6,0.1 7.1,0.1 L43.4,0.1 C46.9,0.1 49.7,2.9 49.7,6.4 C49.7,9.9 46.9,12.7 43.4,12.7 Z"></path>
                        </g>
                        <g transform="translate(637.000000, 179.000000)">
                            <path d="M54.8,12.8 L6.3,12.8 C2.8,12.8 0,10 0,6.5 C0,3 2.8,0.2 6.3,0.2 L54.8,0.2 C58.3,0.2 61.1,3 61.1,6.5 C61.1,10 58.3,12.8 54.8,12.8 Z"></path>
                        </g>
                        <g transform="translate(677.000000, 120.000000)">
                            <path d="M35.9,42.4 C34.3,42.4 32.7,41.8 31.5,40.6 L1.9,11 C-0.5,8.6 -0.5,4.6 1.9,2.1 C4.3,-0.3 8.3,-0.3 10.8,2.1 L40.4,31.7 C42.8,34.1 42.8,38.1 40.4,40.6 C39.1,41.8 37.5,42.4 35.9,42.4 Z"></path>
                        </g>
                        <g transform="translate(559.000000, 87.000000)">
                            <path d="M6.7,30.9 C5.1,30.9 3.5,30.3 2.3,29.1 C-0.1,26.7 -0.1,22.7 2.3,20.2 L19.8,2.7 C22.2,0.3 26.2,0.3 28.7,2.7 C31.1,5.1 31.1,9.1 28.7,11.6 L11.2,29.1 C9.9,30.3 8.3,30.9 6.7,30.9 Z"></path>
                        </g>
                        <g transform="translate(507.000000, 35.000000)">
                            <path d="M6.3,30.1 C4.7,30.1 3.1,29.5 1.9,28.3 C-0.5,25.9 -0.5,21.9 1.9,19.4 L19.4,1.9 C21.8,-0.5 25.8,-0.5 28.3,1.9 C30.7,4.3 30.7,8.3 28.3,10.8 L10.8,28.3 C9.5,29.5 7.9,30.1 6.3,30.1 Z"></path>
                        </g>
                        <g transform="translate(455.000000, 185.000000)">
                            <path d="M6.2,35.3 C4.6,35.3 3,34.7 1.8,33.5 C-0.6,31.1 -0.6,27.1 1.8,24.6 L23.9,2.5 C26.3,0.1 30.3,0.1 32.8,2.5 C35.3,4.9 35.2,8.9 32.8,11.4 L10.7,33.5 C9.4,34.6 7.8,35.3 6.2,35.3 Z"></path>
                        </g>
                        <g transform="translate(295.000000, 159.000000)">
                            <path d="M6.3,35.5 C4.7,35.5 3.1,34.9 1.9,33.7 C-0.5,31.3 -0.5,27.3 1.9,24.8 L24,2.7 C26.4,0.3 30.4,0.3 32.9,2.7 C35.4,5.1 35.3,9.1 32.9,11.6 L10.8,33.7 C9.5,34.8 7.9,35.5 6.3,35.5 Z"></path>
                        </g>
                        <g transform="translate(339.000000, 210.000000)">
                            <path d="M38,13.3 L6.4,13.3 C2.9,13.3 0.1,10.5 0.1,7 C0.1,3.5 2.9,0.7 6.4,0.7 L38,0.7 C41.5,0.7 44.3,3.5 44.3,7 C44.2,10.5 41.4,13.3 38,13.3 Z"></path>
                        </g>
                        <g transform="translate(355.000000, 126.000000)">
                            <path d="M38.1,13 L6.5,13 C3,13 0.2,10.2 0.2,6.7 C0.2,3.2 3,0.4 6.5,0.4 L38.1,0.4 C41.6,0.4 44.4,3.2 44.4,6.7 C44.4,10.2 41.6,13 38.1,13 Z"></path>
                        </g>
                    </g>
                    <path d="M220.5,4.8 C220.5,80.5 281.9,141.9 357.6,141.9 C433.3,141.9 494.7,80.5 494.7,4.8 C494.7,3.2 494.7,1.7 494.6,0.1" stroke="#333333" stroke-width="11.0453"></path>
                </g>
                <path d="M181.1,202.1 L172.2,344.5" id="Shape" stroke="#333333" stroke-width="12.5228" stroke-linecap="round"></path>
                <path d="M664.1,202.1 L669.5,344.5" id="Shape" stroke="#333333" stroke-width="12.5228" stroke-linecap="round"></path>
                <path d="M422.6,27 C454.1,27 485.8,30.2 516.7,36.5 C547.6,42.8 578,52.3 607,64.7 L723.6,114.6 C781.1,139.2 818.2,195.5 818.2,258 L818.2,258.4 L818.2,336.6 L27,336.6 L27,258 C27,195.5 64.1,139.2 121.6,114.6 L238.2,64.7 C267.2,52.3 297.6,42.8 328.5,36.5 C359.4,30.2 391.1,27 422.6,27 Z M422.6,0 C355.6,0 289.3,13.6 227.6,39.9 L111,89.8 C43.7,118.6 0,184.8 0,258 L0,363.6 L845.2,363.6 L845.2,258.4 L845.2,258 C845.2,184.8 801.5,118.6 734.2,89.8 L617.6,40 C555.9,13.6 489.6,0 422.6,0 Z" id="Shape" fill="#333333" fill-rule="nonzero"></path>
            </g>
        </g>
    </g>
</svg>