<svg height="1415" width="899" xmlns="http://www.w3.org/2000/svg"><path d="m295.328 431.083-37.749-76.47-.128-.053.085.053-37.749 76.47 30.101 84.074h15.339z" fill="#cdd6e0" stroke="#000" stroke-width="4.763" transform="matrix(1.68015 0 0 1.63938 17.173 570.376)"/><g fill="#f48914" stroke="#000" stroke-width="4.763"><path d="m257.579 354.645 32.522 65.91-6.944 10.133-9.365 13.867 21.643 70.602h-75.627l21.547-70.602-9.376-13.771-6.944-10.229z" transform="matrix(1.68015 0 0 1.63938 17.173 566.472)"/><path d="m290.101 420.555-6.922 10.133-25.6-51.947-25.6 52.043-6.944-10.229 32.544-65.92z" transform="matrix(1.68015 0 0 1.63938 17.173 568.424)"/></g><g stroke="#333"><path d="m337.248 314.037-41.813 117.27-37.856-76.694 75.52-42.57h.106l.107-.096z" fill="#f2f2f2" stroke-width="11.907" transform="matrix(1.68015 0 0 1.63938 17.173 570.376)"/><path d="m337.248 314.037 8.939 4.459 31.765 68.245-24.331 13.44 38.603 45.312-83.936 69.654h-43.061z" fill="#334a5e" stroke-width="11.907" transform="matrix(1.68015 0 0 1.63938 17.173 570.376)"/><path d="m177.867 314.037 41.813 117.27 37.856-76.694-75.52-42.57h-.107l-.106-.096z" fill="#f2f2f2" stroke-width="11.907" transform="matrix(1.68015 0 0 1.63938 17.173 570.376)"/><path d="m177.867 314.037-8.95 4.459-31.754 68.245 24.33 13.44-38.602 45.312 83.936 69.654h43.061z" fill="#334a5e" stroke-width="11.907" transform="matrix(1.68015 0 0 1.63938 17.173 570.376)"/><path d="m161.493 400.181-24.331-13.44 31.755-68.245-135.882 62.667c-18.976 7.371-31.456 36.373-31.456 56.747v77.248h205.248l-83.936-69.664zm320.715-19.018-136.021-62.667 31.776 68.245-24.352 13.44 38.624 45.312-83.936 69.653h205.28v-77.237c0-20.373-12.48-49.269-31.371-56.746" fill="#40596b" stroke-width="11.907" transform="matrix(1.68015 0 0 1.63938 17.173 570.376)"/><path d="m278.908-1153.675h156.579v51.113h-156.579z" fill="#334a5e" stroke-width="19.763" transform="matrix(-.91116 .41204 -.42905 -.90328 0 0)"/></g><g fill="#ffd15c" stroke="#000" stroke-width="4.763"><path d="m51.079 361.219h8.683v31.05h-8.683z" transform="matrix(-1.5239 .69034 -.70751 -1.48692 461.299 1709.937)"/><path d="m67.09 353.802h8.704v31.041h-8.704z" transform="matrix(-1.5239 .6905 -.70768 -1.48692 507.43 1675.64)"/><path d="m83.127 346.447h8.683v31.063h-8.683z" transform="matrix(-1.52323 .69198 -.7092 -1.48626 554.064 1641.242)"/></g><path d="m1091.958 731.84h156.601v51.109h-156.601z" fill="#334a5e" stroke="#333" stroke-width="19.763" transform="matrix(.9112 .41196 -.42897 .90332 0 0)"/><g fill="#ffd15c" stroke="#000" stroke-width="4.763"><path d="m455.527 361.277h8.683v31.05h-8.683z" transform="matrix(1.5239 .69034 -.70751 1.48692 355.616 310.346)"/><path d="m439.447 353.791h8.683v31.052h-8.683z" transform="matrix(1.52323 .69198 -.7092 1.48626 348.751 319.87)"/><path d="m423.462 346.333h8.704v31.052h-8.704z" transform="matrix(1.52389186 .69051827 -.70769035 1.48691467 340.116615 330.168528)"/><path d="m460.992 483.456h-23.957c-1.227-4.576-3.413-7.648-5.92-7.648-2.517 0-4.683 3.072-5.92 7.648h-23.979v5.707h6.763v5.6h6.208v5.728h11.04c1.227 4.512 3.392 7.52 5.899 7.52 2.475 0 4.651-3.008 5.877-7.52h11.04v-5.728h6.208v-5.6h6.752v-5.707z" transform="matrix(1.68015 0 0 1.63938 17.173 570.376)"/></g></svg>