<svg xmlns="http://www.w3.org/2000/svg" width="899" height="1415"><path transform="matrix(1.68015 0 0 1.63938 17.173 570.376)" fill="#cdd6e0" stroke="#000" stroke-width="4.763" d="M295.328 431.083l-37.749-76.47-.128-.053.085.053-37.749 76.47 30.101 84.074h15.339z"/><g fill="#f48914" stroke="#000" stroke-width="4.763"><path transform="matrix(1.68015 0 0 1.63938 17.173 566.472)" d="M257.579 354.645l32.522 65.91-6.944 10.133-9.365 13.867 21.643 70.602h-75.627l21.547-70.602-9.376-13.771-6.944-10.229z"/><path transform="matrix(1.68015 0 0 1.63938 17.173 568.424)" d="M290.101 420.555l-6.922 10.133-25.6-51.947-25.6 52.043-6.944-10.229 32.544-65.92z"/></g><path transform="matrix(1.68015 0 0 1.63938 17.173 570.376)" fill="#f2f2f2" stroke="#333" stroke-width="11.907" d="M337.248 314.037l-41.813 117.27-37.856-76.694 75.52-42.57h.106l.107-.096z"/><path transform="matrix(1.68015 0 0 1.63938 17.173 570.376)" fill="#334a5e" stroke="#333" stroke-width="11.907" d="M337.248 314.037l8.939 4.459 31.765 68.245-24.331 13.44 38.603 45.312-83.936 69.654h-43.061z"/><path transform="matrix(1.68015 0 0 1.63938 17.173 570.376)" fill="#f2f2f2" stroke="#333" stroke-width="11.907" d="M177.867 314.037l41.813 117.27 37.856-76.694-75.52-42.57h-.107l-.106-.096z"/><path transform="matrix(1.68015 0 0 1.63938 17.173 570.376)" fill="#334a5e" stroke="#333" stroke-width="11.907" d="M177.867 314.037l-8.95 4.459-31.754 68.245 24.33 13.44-38.602 45.312 83.936 69.654h43.061z"/><g stroke="#333" stroke-width="11.907" fill="#40596b"><path d="M161.493 400.181l-24.331-13.44 31.755-68.245-135.882 62.667c-18.976 7.371-31.456 36.373-31.456 56.747v77.248h205.248l-83.936-69.664zM482.208 381.163l-136.021-62.667 31.776 68.245-24.352 13.44 38.624 45.312-83.936 69.653h205.28v-77.237c0-20.373-12.48-49.269-31.371-56.746" transform="matrix(1.68015 0 0 1.63938 17.173 570.376)"/></g><path transform="matrix(-.91116 .41204 -.42905 -.90328 0 0)" fill="#334a5e" stroke="#333" stroke-width="19.763" d="M278.908-1153.675h156.579v51.113H278.908z"/><g stroke="#000" stroke-width="4.763" fill="#ffd15c"><path transform="matrix(-1.5239 .69034 -.70751 -1.48692 461.299 1709.937)" d="M51.079 361.219h8.683v31.05h-8.683z"/><path transform="matrix(-1.5239 .6905 -.70768 -1.48692 507.43 1675.64)" d="M67.09 353.802h8.704v31.041H67.09z"/><path transform="matrix(-1.52323 .69198 -.7092 -1.48626 554.064 1641.242)" d="M83.127 346.447h8.683v31.063h-8.683z"/></g><path transform="matrix(.9112 .41196 -.42897 .90332 0 0)" fill="#334a5e" stroke="#333" stroke-width="19.763" d="M1091.958 731.84h156.601v51.109h-156.601z"/><g stroke="#000" stroke-width="4.763" fill="#ffd15c"><path transform="matrix(1.5239 .69034 -.70751 1.48692 355.616 310.346)" d="M455.527 361.277h8.683v31.05h-8.683z"/><path transform="matrix(1.52323 .69198 -.7092 1.48626 348.751 319.87)" d="M439.447 353.791h8.683v31.052h-8.683z"/><path transform="scale(1.6802 1.63943) rotate(24.91 -354.692 558.942)" d="M423.462 346.333h8.704v31.052h-8.704z"/><path d="M460.992 483.456h-23.957c-1.227-4.576-3.413-7.648-5.92-7.648-2.517 0-4.683 3.072-5.92 7.648h-23.979v5.707h6.763v5.6h6.208v5.728h11.04c1.227 4.512 3.392 7.52 5.899 7.52 2.475 0 4.651-3.008 5.877-7.52h11.04v-5.728h6.208v-5.6h6.752v-5.707z" transform="matrix(1.68015 0 0 1.63938 17.173 570.376)"/></g></svg>