<svg width="901" height="1418" xmlns="http://www.w3.org/2000/svg"><g transform="translate(1 1)" fill="none" fill-rule="evenodd"><path d="M727.177 1146.814c-8.388-5.563-19.503-6.301-29.589-6.733-19.257-10.056-36.456-24.519-57.657-30.029-11.75-3.056-22.86-5.607-33.858-10.923-11.557-5.585-22.83-11.168-35.729-12.624-5.258-.593-9.713 4.57-10.12 9.443-.373.014-.748.009-1.12.027-3.493-4.837-10.938-7.183-15.585-1.754-12.613 14.738-27.611 28.669-35.451 46.755-1.331 3.073-1.735 6.283-.544 9.155a211.523 211.523 0 0 0-2.127 4.129c-2.795 2.804-5.594 5.604-8.444 8.358a171.628 171.628 0 0 1-6.758 6.198 8.94 8.94 0 0 0-3.215-.441c-1.314-1.785-3.167-3.146-5.366-3.623-11.857-2.569-25.915 3.394-35.255 12.714-12.672-4.987-25.789-8.533-39.347-6.855a42.673 42.673 0 0 1-3.16-2.361 125.865 125.865 0 0 1-10.327-9.562c-1.995-2.069-2.798-3.001-4-4.778-.264-.394-.51-.8-.737-1.216.513-5.795-3.889-9.735-8.74-10.589-3.208-6.863-6.434-13.68-10.339-20.156-1.681-6.092-3.577-12.11-6.456-17.653.515-1.235.734-2.65.526-4.245a39.973 39.973 0 0 0-.449-2.689l.086-.012c-.642-3.79-.8-7.699-1.354-11.513-.639-4.396-5.706-7.459-9.796-7.459a9.706 9.706 0 0 0-6.415 2.366c-3.844-.188-7.884.716-11.55 1.891-1.814.354-3.483 1.037-5.096 1.852-6.396 2.537-12.538 5.688-18.731 8.667-1.446.695-2.9 1.37-4.363 2.03l-.522.237-.354.144a57.57 57.57 0 0 1-2.346.88c-3.682-4.434-10.455-6.307-14.696-.868a94.685 94.685 0 0 0-1.57 2.07.077.077 0 0 1-.019-.014l-.157.256c-3.188 4.345-5.975 8.869-8.541 13.516a64.683 64.683 0 0 0-2.548 4.788c-2.148 4.171-4.171 8.42-6.185 12.714-5.924-1.108-12.178-1.085-18.073-.75-8.601.49-17.437 1.875-25.191 5.79-3.809 1.923-5.502 6.684-4.811 10.872-1.116 1.252-2.083 2.637-2.814 4.202-2.918 6.259-2.409 13.993 3.203 18.646 3.74 3.101 8.295 4.412 12.938 4.35 9.769 13.54 19.325 27.231 29.537 40.442a510.122 510.122 0 0 0 5.535 7.015c2.027 16.076 4.483 32.092 7.581 48.001 1.719 8.829 3.244 18.537 7.156 26.891-.325 7.715-.286 15.464-.25 23.206-.413 4.901-.713 9.809-.766 14.726-3.851 13.584-4.971 28.218-4.099 41.368.189 2.843 1.386 5.156 3.112 6.84.021 6.295.121 12.593.275 18.896.135 5.534 4.519 10.158 10.159 10.158 5.742 0 9.192-4.246 10.047-9.413.125-.037.246-.088.369-.133.438 2.683 1.967 5.188 4.773 6.804 9.965 5.739 21.207 7.289 32.548 6.431 11.489-.867 22.45-4.484 33.828-5.84 2.237-.262 4.481-.457 6.73-.585a8.76 8.76 0 0 0 2.465 1.019c10.935 2.581 24.374 3.338 36.145.228 2.652.15 5.303.277 7.955.358 15.215 10.04 35.68 4.005 52.327-.38 25.306-1.186 50.394-5.891 75.754-6.529 10.532.977 21.035 1.354 31.443-1.555 2.03 3.944 6.483 6.857 11.729 5.847.491-.095.984-.2 1.479-.308 4.11 2.67 10.238 2.166 13.641-1.514.613.116 1.224.264 1.829.466 4.819 1.617 11.667-1.824 12.497-7.095 6.896-43.838 3.199-88.002 1.04-132.057-.075-1.522-.418-2.86-.952-4.031-.219-7.562-.57-15.12-1.057-22.67 4.928-7.465 9.866-14.914 15.078-22.132 11.578-11.303 23.856-22.296 32.274-36.116 2.094-3.438 1.729-7.922-.579-11.118.117-.122.229-.247.346-.37a11.173 11.173 0 0 0 1.708-2.447c1.869-.323 3.741-.615 5.612-.846 7.063-.869 14.183-1.066 21.302-.909l.098.041c1.723.679 3.534.648 5.237.142 4.585.208 9.163.527 13.718.899 10.782.878 12.886-13.789 5.128-18.933zM370.496 1356.09c-9.731-11.081-19.105-22.464-27.516-34.534a231.06 231.06 0 0 1 9.97 3.659 7.793 7.793 0 0 0 2.271.528c5.835 7.919 11.685 15.826 17.901 23.459a53.821 53.821 0 0 0-2.626 6.888z" fill-opacity="1" fill="#FFCC3B" fill-rule="nonzero"/><path d="M370.962 1068.63c-.583.456-1.172.899-1.763 1.341.608.936 1.199 1.729 1.763 2.292 3.557 3.557 4.37-7.051 0-3.633z" fill="#54361F" fill-rule="nonzero"/><path d="M852.048 1376.753c.63-1.152 1.347-2.229 2.035-3.38 2.337-3.908 1.769-7.77-.323-10.602 1.658-22.561-.527-45.03-5.618-67.036 3.241-3.143 4.679-8.694 1.878-12.533a286.046 286.046 0 0 1-3.94-5.546c.523-1.236.752-2.649.587-4.225-1.258-11.877-5.37-22.292-10.999-31.928-1.768-6.559-3.445-13.149-5.618-19.537-1.828-5.368-7.436-7.658-12.25-6.932a37.572 37.572 0 0 0-1.876-1.614 11.856 11.856 0 0 0-2.252-1.413c-3.611-4.293-7.234-8.575-10.72-12.925-.112-.181-.211-.367-.34-.538a54.333 54.333 0 0 0-2.352-2.88 190.848 190.848 0 0 1-4.421-5.924c-1.933-2.706-4.6-4.6-7.695-4.968-7.048-5.023-15.161-8.94-23.155-10.457.041-.37.067-.743.067-1.122-.003-4.454-.181-8.965-.979-13.23a1406.338 1406.338 0 0 0 15.152 7.104c1.704.786 3.48 1.239 5.22 1.272a130.913 130.913 0 0 1 4.438 3.536c2.112 1.759 4.154 3.6 6.12 5.52.206.757.493 1.52.896 2.281 3.05 5.779 7.181 10.949 11.747 15.602 5.727 5.837 17.064 1.574 17.638-5.938 6.193-1.092 10.236-8.445 7.122-15.177a65.191 65.191 0 0 0-.992-2.021c.129-2.533-.64-5.186-2.627-7.484-1.537-1.775-3.271-3.326-5.115-4.742a118.816 118.816 0 0 0-4.366-5.417c-.176-.2-.36-.393-.55-.579.683-4.04-1.413-7.943-4.894-10.492-19.795-14.508-36.489-33.924-60.252-41.851a147.947 147.947 0 0 0-7.771-3.519c-4.226-1.766-8.546-3.264-12.832-4.842a32.302 32.302 0 0 1-5.679 1.116c-11.654 1.234-24.086-2.066-35.177-6.813-6.53 2.864-14.325 2.584-21.098-.993a113.423 113.423 0 0 0-4.495-2.248c-.939-.351-3.873-1.536-4.539-1.764-3.927-1.337-7.895-2.548-11.919-3.56-8.627-2.17-17.427-4.073-26.22-5.443-13.393-2.087-26.313-6.133-39.345-9.745-5.306 3.249-11.992 4.31-18.655 3.079-7.92-1.464-15.413-4.537-23.333-6-2.789-.516-5.293-1.671-7.469-3.274-.905 1.429-1.442 3.092-1.598 4.8-.255.332-.49.672-.7 1.027-2.336 3.99-1.542 6.761 1.433 10.126 1.013 1.456 1.99 2.931 3.204 4.249 3.679 3.992 9.781 3.663 13.765.505 1.162-.734 2.396-1.348 3.626-1.965a8.029 8.029 0 0 0 1.285-.817c11.611 3.435 22.861 8.047 34.51 11.406 2.575 1.516 5.293 2.778 8.188 3.98 2.077.863 4.301.645 6.305-.23 6.102 1.774 12.331 3.034 18.573 4.252a185.471 185.471 0 0 1 14.021 8.011c10.166 6.43 21.994 10.181 33.155 14.467 11.288 4.336 21.963 9.722 33.564 13.3 3.471 1.07 6.96 2.074 10.45 3.072.355.219.719.447 1.073.664 7.444 4.533 15.046 8.791 22.75 12.86-1.356 3.555-.999 7.783 2.116 10.86-.009.845.07 1.69.234 2.519.4 2.004.819 3.996 1.289 5.973-.087-.055-.164-.124-.252-.175-5.089-2.981-10.708-.866-13.898 3.646-.717 1.013-1.445 2.153-2.206 3.322-11.427-4.696-24.087 1.276-33.862 8.503-2.522-3.021-6.75-5.112-10.687-3.626-22.269 8.406-29.199 35.861-33.358 56.88-6.057 30.599-12.386 61.919-6.923 93.101.445 2.548 1.848 4.414 3.709 5.625-4.838 10.18-4.102 22.342-2.887 33.255.79 7.076 2.147 14.016 3.117 20.975-3.715 6.864-.609 14.715 2.504 21.134 3.999 8.249 15.066 5.493 18.131-1.558 3.634.802 7.664-.25 10.154-3.44 4.844 1.05 9.761 1.592 14.34.186.569-.18 1.123-.403 1.658-.668 1.284.668 2.771 1.054 4.445 1.03 7.666-.104 15.179-1.376 22.667-2.793 4.537-.1 9.068-.316 13.566-.781 6.534 6.084 16.241 8.69 24.729 10.322 9.521 1.832 19.506 2.753 29.104 1.016 5.265-.952 8.243-7.076 7.21-11.971 3.65.412 7.325.704 11.01.882 13.594 3.042 27.452 5.032 40.702.932 5.927-1.834 8.848-8.319 6.692-13.654a10.4 10.4 0 0 0-.183-1.056c1.103-2.554 1.092-5.4-.122-8.093.09-.714.176-1.429.269-2.144.042-.301.071-.529.094-.727zM358.5 1068.5c-7.455.14-14.899.013-22.34-.252-1.417.134-2.834.273-4.247.444-.484.059-.846.101-1.124.133-2.796.408-5.589.833-8.381 1.271-8.115 1.271-16.242 2.509-24.409 3.404l-.644.069-.586.102c-1.794.308-3.587.623-5.375.972-2.98.582-5.954 1.201-8.938 1.763-15.222 2.863-30.26 3.89-45.68 4.695-3.508.183-7.026.297-10.528.587-1.164.097-7.038.98-.934-.044-1.708.286-3.551.49-5.202 1.035-7.337 2.421-13.117 4.899-21.112 5.321-3.135.165-6.142-.438-8.887-1.625a199.777 199.777 0 0 0-11.935 7.986c-1.627-1.026-3.503-1.668-5.388-1.76-9.32-.456-22.271 3.679-29.64 11.396-7.135 3.005-13.743 8.256-19.533 13.375-7.017 2.07-13.664 6.888-19.099 11.744-10.655 1.069-19.298 10.269-24.962 20.171-6.558 11.464-13.497 29.613-8.67 42.862l.07-.03c.279.815.596 1.634.954 2.457 4.587 10.542 22.492 2.945 18.567-7.828-.638-1.753-.719-3.915-.498-6.123.062.006.122.016.184.02 9.133.612 15.945-5.412 20.921-13.334 1.671-.703 3.3-1.52 4.88-2.441-2.886 4.831-5.064 10.009-5.494 15.616-11.161 11.452-20.654 24.594-31.555 36.32-.26.279-.499.564-.722.854-1.385.467-2.749 1.284-4.02 2.533-4.468 4.396-7.787 9.777-10.459 15.54-2.779 1.18-5.06 3.489-5.698 6.552-4.219 20.276-13.342 39.167-16.931 59.6-.351 1.994-.254 3.991.283 5.8-1.525 4.914-2.685 9.962-3.355 15.187-.566 4.403 3.519 8.713 7.458 9.796.794.218 1.557.327 2.297.36-.735 6.348-1.316 12.708-1.366 19.108-.028 3.551.111 7.439.75 11.222a9.044 9.044 0 0 0-1.012 4.213c.077 12.487 1.507 24.966 3.75 37.24.802 4.392 5.581 7.459 9.796 7.459 6.008 0 9.538-4.657 10.159-10.158.061-.537.107-1.074.156-1.608a10.148 10.148 0 0 0 4.599-4.273c.174-.1.34-.21.508-.319 2.227 3.512 5.102 6.563 8.596 7.868 4.139 2.608 9.936 3.501 14.432 3.927 22.103 2.084 43.801-3.389 65.849-3.563 3.604-.028 6.209-1.583 7.828-3.814.105.02.201.049.307.064 20.919 3.198 42.787 1.027 62.985 8.127 2.782.978 5.257.676 7.257-.415 5.954 2.921 14.875.103 15.071-8.456 4.956 1.057 10.516-1.233 11.841-7.027a98.61 98.61 0 0 0 1.183-6.181c1.59-1.797 2.573-4.139 2.567-6.679-.035-13.211-.742-26.396-1.395-39.583 1.981-1.715 3.347-4.143 3.426-7.148.54-20.467-2.669-40.656-4.741-60.955-.354-3.459-1.92-6.579-4.515-8.422-.234-1.99-.471-3.98-.71-5.97.316-.245.621-.5.895-.773 6.692-6.697 3.128-20.387 1.258-28.631-2.129-9.387-5.982-18.535-10.729-26.886-8.271-14.551-21.485-27.824-37.721-32.906-8.987-5.402-18.765-9.391-29.072-10.19-2.259-.176-4.552.77-6.353 2.244l-1.101-.498c10.021-7.243 18.632-17.139 28.416-24.243 3.406-2.473 7.004-4.669 10.823-6.444 3.477-1.616 11.327-.711 16.233-1.484 5.325-.84 9.519-3.196 13.213-7.098.985-1.04 1.892-2.145 2.878-3.182-.282.351.102.13.343-.096.707-.05 1.764-.186 1.919-.175 6.481.383 9.73-4.403 9.787-9.427a58.466 58.466 0 0 1 2.159-1.643 824.207 824.207 0 0 1 17.92-7.409c5.215-.973 10.527-1.429 15.765-2.307 8.345-1.399 16.24-5.213 24.042-8.319 3.805-1.517 7.952-3.209 12.178-4.227 5.438.321 10.879.583 16.345-.557 4.09-.855 6.469-4.166 7.113-7.839.317-.242.956-.747 1.132-.872 2.247-1.573 4.476-3.119 6.665-4.752-.632-.973-1.285-2.103-1.951-3.307a23.97 23.97 0 0 1-8.746 1.836z" fill="#FFCC3B" fill-rule="nonzero"/><circle stroke="#333" stroke-width="5" fill="#6EE80F" fill-rule="nonzero" cx="449.841" cy="1224.663" r="19.397"/><path d="M452.314 1221.534c9.372-5.669 17.445-13.632 25.024-21.448 10.226-10.548 19.591-21.947 28.267-33.796 8.179-11.17 15.779-23 21.296-35.731 3.834-8.848 7.591-19.569 4.587-29.221-1.909-6.137-11.564-3.517-9.643 2.658 2.383 7.656-1.537 17.098-4.787 24.232-5.507 12.092-12.98 23.308-20.81 34-7.933 10.834-16.676 21.108-25.981 30.786-6.953 7.231-14.362 14.66-23 19.885-5.508 3.332-.485 11.982 5.047 8.635zm-11.924-15.129c-11.24-28.979-28.632-56.572-48.017-80.768-4.033-5.033-11.061 2.091-7.071 7.07 9.302 11.61 17.526 24.089 25.214 36.813 7.633 12.634 14.884 25.759 20.231 39.543 2.306 5.946 11.978 3.363 9.643-2.658zm431.007 185.861c-.255-27.135-.337-54.289-3.12-81.313-2.985-28.994-8.422-58.709-21.597-84.949-9.422-18.77-22.726-34.701-38.18-48.486-6.442 3.634-13.339 6.988-20.337 9.24 13.384 11.003 25.295 23.606 34.702 38.444 15.148 23.872 21.091 52.612 24.484 80.326 3.516 28.75 3.495 57.794 3.729 86.737.03 3.615.07 7.232.11 10.839.072 5.323 3.455 8.482 7.459 9.478 1.848.468 3.818.458 5.646 0 3.973-.995 7.274-4.154 7.213-9.478-.038-3.616-.079-7.223-.109-10.838z" fill="#333" fill-rule="nonzero"/><path d="M871.508 1406.152c.062 5.324-3.24 8.482-7.213 9.479H35.389c-3.972-.996-7.274-4.154-7.213-9.479.041-3.606.081-7.224.112-10.84h843.11c.029 3.617.07 7.224.11 10.84z" fill="#333" fill-rule="nonzero"/><path d="M687.147 1240.899v151.009c0 13.103 20.318 13.103 20.318 0v-2.01c0-13.104-20.318-13.104-20.318 0v2.01c0 13.103 20.318 13.103 20.318 0v-151.009c.001-13.102-20.318-13.102-20.318 0zm-491.014 0v151.009c0 13.103 20.318 13.103 20.318 0v-2.01c0-13.104-20.318-13.104-20.318 0v2.01c0 13.103 20.318 13.103 20.318 0v-151.009c0-13.102-20.318-13.102-20.318 0zm-75.256-85.88c-21.755 14.394-41.527 31.446-56.952 52.954-18.418 25.682-26.19 56.757-30.609 87.621-4.591 32.04-4.724 64.376-5.028 96.672-.031 3.615-.071 7.232-.112 10.839-.061 5.323 3.241 8.482 7.213 9.478 1.828.458 3.799.468 5.648 0 4.002-.995 7.385-4.154 7.457-9.478.041-3.616.082-7.224.111-10.839.244-27.135.335-54.289 3.119-81.313 2.794-27.155 8.137-55.601 21.496-79.697 16.91-30.539 44.909-52.079 74.937-69.372-9.176-1.774-18.362-3.955-27.28-6.865zM626.002 1103.723c-45.902 40.037-86.063 85.765-128.315 129.485-21.89 22.649-43.663 45.214-64.864 68.531-19.432 21.372-38.771 42.834-58.547 63.889-7.333 7.808-14.716 15.586-22.41 23.042-2.441 2.364-4.922 4.697-7.54 6.867-1.995 1.652 1.112-.82.358-.258-.376.281-.764.545-1.158.799-2.06 1.324 2.622-.664 3.079-.606-5.422-.686-10 5.067-10 10 0 5.969 4.593 9.316 10 10 7.621.964 16.012-9.342 20.773-13.995 10.28-10.047 20.067-20.606 29.843-31.141 24.409-26.303 48.297-53.083 72.604-79.479 20.088-21.814 41.289-42.529 61.638-64.1 35.215-37.329 69.953-75.114 108.681-108.892 4.11-3.585 3.656-10.486 0-14.143-4.048-4.048-10.038-3.578-14.142.001z" fill="#333" fill-rule="nonzero"/><path d="M266.393 1120.913c25.639 31.306 55.244 59.136 83.579 87.938 28.045 28.507 56.302 58.027 76.376 92.89 6.432 11.171 23.717 1.103 17.27-10.094-20.345-35.332-48.79-65.554-77.143-94.532-29.044-29.684-59.585-58.163-85.939-90.344-3.458-4.223-10.576-3.566-14.143 0-4.138 4.138-3.451 9.929 0 14.142zm432.749 20.904c-78.308 79.915-150.052 165.845-225.518 248.374-8.683 9.496 5.422 23.68 14.143 14.143 75.466-82.529 147.209-168.46 225.518-248.374 9.028-9.215-5.105-23.366-14.143-14.143z" fill="#333" fill-rule="nonzero"/><path d="M599.05 1252.894c-9.287 23.451-15.158 48.039-21.127 72.49-5.618 23.015-10.967 46.586-20.531 68.355-2.192 4.99-1.513 10.694 3.588 13.682 4.291 2.514 11.488 1.405 13.682-3.588 20.491-46.641 24.955-98.352 43.674-145.623 2.01-5.075-2.158-10.974-6.984-12.301-5.689-1.564-10.297 1.921-12.302 6.985zm-332.657 3.458c17.71 17.294 35.838 34.294 52.526 52.596 16.782 18.406 32.194 38.094 48.043 57.292 3.475 4.208 10.564 3.577 14.143 0 4.126-4.127 3.467-9.943 0-14.143-15.854-19.202-31.295-38.85-48.044-57.291-16.649-18.332-34.82-35.307-52.525-52.597-9.23-9.012-23.383 5.119-14.143 14.143z" fill="#333" fill-rule="nonzero"/><path d="M283.464 1398.787V1249.28c0-12.897-20-12.897-20 0v149.507c0 12.898 20 12.898 20 0z" fill="#333" fill-rule="nonzero"/><path d="M283.464 1252.511c-2.041-39.425-26.73-74.567-60.228-94.349-37.394-22.082-83.281-20.406-119.385 3.426-10.71 7.07-.704 24.397 10.095 17.27 15.436-10.189 32.641-16.371 51.23-16.631 16.886-.236 33.374 4.813 47.966 13.205 27.554 15.846 48.695 45.638 50.323 77.079.663 12.831 20.666 12.895 19.999 0zm362.895 149.225v-138.233c0-12.897-20-12.897-20 0v138.233c0 12.898 20 12.898 20 0z" fill="#333" fill-rule="nonzero"/><path d="M646.359 1266.734c1.643-31.715 22.857-60.86 50.323-77.08 14.146-8.354 30.232-12.976 46.613-13.204 18.97-.266 36.892 6.273 52.583 16.631 10.799 7.128 20.805-10.199 10.094-17.27-18.289-12.073-39.356-19.055-61.324-19.361-20.336-.285-40.529 5.853-58.06 15.935-33.604 19.325-58.205 55.26-60.229 94.35-.668 12.895 19.336 12.829 20-.001zm-283.715-207.005c4.78-.646.593-.093-.592.045-1.456.17-2.914.328-4.372.484-3.757.404-7.516.787-11.275 1.174-10.643 1.095-21.284 2.205-31.918 3.391-29.258 3.262-58.476 7.041-87.521 11.859-28.838 4.783-57.766 10.436-85.634 19.392-19.638 6.311-43.276 14.552-55.499 32.372-13.264 19.34 2.86 38.777 18.018 50.412 4.336 3.328 11.187.672 13.682-3.588 3.017-5.149.728-10.369-3.587-13.682 2.133 1.638-1.289-1.076-1.831-1.534a74.858 74.858 0 0 1-2.911-2.607 53.79 53.79 0 0 1-5.099-5.498c2.147 2.666-.062-.162-.519-.852a31.051 31.051 0 0 1-1.427-2.419c-.21-.392-.402-.792-.592-1.193-.769-1.615.983 2.451.342.814a21.213 21.213 0 0 1-.833-2.711c-.649-2.667-.042.221-.062.004a17.09 17.09 0 0 1-.039-2.229c.105-2.851-.462 2.321-.041.108.162-.849.414-1.679.696-2.494.728-2.104-1.238 2.516.054-.051.356-.706.768-1.383 1.194-2.049.22-.343.457-.676.692-1.009 1.002-1.414-1.642 2.063-.544.693a33.303 33.303 0 0 1 2.044-2.286c1.318-1.367 2.76-2.611 4.241-3.798-2.76 2.212.18-.102.86-.581a73.203 73.203 0 0 1 3.17-2.094c4.296-2.705 8.856-4.98 13.479-7.068.669-.302 4.688-2.007 1.938-.858a194.105 194.105 0 0 1 3.883-1.562 234.036 234.036 0 0 1 8.929-3.265c6.234-2.153 12.554-4.055 18.906-5.829 28.908-8.077 58.603-13.347 88.247-17.869 16.011-2.442 26.59-3.848 42.108-5.76 12.562-1.547 25.14-2.961 37.726-4.302 13.133-1.398 26.313-2.508 39.403-4.276 5.413-.731 8.282-7.586 6.984-12.301-1.589-5.776-6.903-7.713-12.3-6.983z" fill="#333" fill-rule="nonzero"/><path d="M93.185 1115.413c-14.907 11.168-27.139 25.057-32.65 43.157-5.301 17.41-1.71 35.74 6.095 51.744 2.388 4.897 9.249 6.185 13.682 3.588 4.961-2.906 5.977-8.782 3.587-13.682-5.591-11.464-7.52-23.959-4.079-36.333 3.543-12.745 13.074-23.426 23.459-31.205 4.353-3.262 6.58-8.574 3.587-13.682-2.518-4.3-9.308-6.863-13.681-3.587zm439.113-41.039c17.201 2.33 34.499 3.969 51.729 6.08 6.435.789 12.866 1.608 19.294 2.457l2.44.324c2.768.369-2.154-.291.632.085 5.38.727 10.756 1.48 16.128 2.258 15.015 2.171 29.998 4.561 44.932 7.23 28.944 5.177 57.947 11.248 85.886 20.533 5.892 1.958 11.721 4.108 17.452 6.498-2.688-1.12 1.371.616 2.037.915 1.213.544 2.416 1.11 3.615 1.685a126.192 126.192 0 0 1 7.234 3.768 91.403 91.403 0 0 1 5.895 3.62 75.834 75.834 0 0 1 2.646 1.863c.551.404 2.099 1.645-.377-.303.526.414 1.04.845 1.551 1.277a43.43 43.43 0 0 1 4.054 3.926c.598.657 2.608 3.306.368.333.58.77 1.104 1.579 1.599 2.406.34.566.642 1.155.931 1.749 1.039 2.125-.917-2.458-.13-.257.211.591.376 1.197.527 1.806.661 2.654.029-.403.061-.088.119 1.207-.328 5.588.23 1.484-.199 1.463-.615 2.888-1.124 4.271-.353.959 1.184-2.493-.042-.006-.346.686-.72 1.359-1.118 2.016-.417.7-.877 1.375-1.343 2.043-1.372 1.964 1.4-1.621-.704.881-1.395 1.656-2.927 3.191-4.503 4.673a71.543 71.543 0 0 1-2.437 2.168c-.539.464-3.957 3.168-1.808 1.519-4.315 3.313-6.604 8.532-3.588 13.682 2.495 4.26 9.346 6.916 13.682 3.588 15.585-11.964 30.68-30.911 17.991-50.659-11.643-18.122-35.847-26.754-55.164-33.393-27.692-9.516-56.601-15.544-85.36-20.787-29.111-5.307-58.43-9.449-87.79-13.107-10.97-1.366-21.951-2.641-32.937-3.88-3.959-.446-7.919-.887-11.877-1.339a731.44 731.44 0 0 1-4.429-.516c-1.212-.146-5.7-.743-.867-.088-5.397-.731-10.712 1.208-12.301 6.984-1.297 4.716 1.572 11.569 6.985 12.301z" fill="#333" fill-rule="nonzero"/><path d="M798.62 1132.683c10.577 7.925 19.564 18.416 23.458 31.205 3.706 12.171 1.409 25.079-4.079 36.333-2.39 4.899-1.374 10.775 3.588 13.682 4.434 2.597 11.293 1.31 13.682-3.588 7.949-16.3 11.018-34.04 6.096-51.744-5.019-18.049-18.004-32.185-32.65-43.157-4.373-3.276-11.162-.713-13.682 3.588-2.993 5.106-.766 10.419 3.587 13.681zm-592.345 28.789c17.211-16.813 42.475-23.983 64.009-33.485 4.989-2.201 6.104-9.385 3.587-13.682-2.984-5.095-8.695-5.788-13.682-3.588-22.984 10.143-49.368 18.355-68.057 36.612-9.237 9.025 4.915 23.156 14.143 14.143z" fill="#333" fill-rule="nonzero"/><path d="M279.263 1124.721c21.214-16.66 50.159-28.848 77.248-30.089 12.842-.588 12.899-20.591 0-20-32.828 1.504-65.757 15.817-91.39 35.946-4.294 3.373-3.507 10.635 0 14.143 4.197 4.196 9.859 3.363 14.142 0zm245.693-59.99c.183 3.957.426 7.948.184 11.908-.11 1.15-.048.715.188-1.306l-.071.3a8.732 8.732 0 0 1 2.236-3.751c-4.787 5.399 10.729-8.438 1.375-1.215-7.174 5.541-5.578 14.518-5.097 22.611.762 12.814 20.767 12.889 20 0-.231-3.896-.525-7.822-.365-11.728.091-1.146.018-.7-.221 1.339-.148.984-2.811 3.956-4.134 4.979-1.078.832-3.004 1.25-2.015.851 2.93-1.18 2.035-.694 4.506-2.622 5.531-4.316 3.684-15.511 3.413-21.366-.593-12.84-20.596-12.898-19.999 0z" fill="#333" fill-rule="nonzero"/><path d="M525.145 1082.492c-7.643 21.576-14.504 44.998-29.502 62.838-6.538 7.777-14.153 12.689-23.352 16.769-4.698 2.084-9.818 3.624-14.852 4.797-2.571.599-3.217.667-5.415.801-1.025.063-2.05.021-3.073-.029 1.982.098-1.189-.353-1.72-.532-12.245-4.164-17.457 15.158-5.316 19.285 11.001 3.74 24.167-.522 34.492-4.548 11.552-4.504 21.808-10.296 30.521-19.238 19.735-20.256 28.294-48.83 37.501-74.825 1.821-5.142-2.015-10.934-6.984-12.301-5.541-1.526-10.482 1.849-12.3 6.983zm-169.843-10.229c-.317 6.697-1.952 16.136 4.975 20.214 4.66 2.744 11.81 1.082 14.058-4.124.46-1.066.914-2.098 1.305-3.179.056-.156.114-.312.174-.466-.597 1.547-.906 2.72-2.265 3.859l-4.413 2.571.042-.01-7.706-1.008.04.021-3.588-3.587c-.818-2.328-1.121-3.031-.91-2.111-.265-2.359-.364-3.025-.295-1.998.043.718.016 1.441.002 2.159-.054 2.747-.238 5.494-.404 8.236-.33 5.446 4.798 10 10 10 5.701 0 9.67-4.562 10-10 .387-6.39 2.273-16.271-4.75-19.989-4.707-2.492-11.631-1.286-13.976 4.014-.463 1.048-.91 2.084-1.297 3.155-.058.161-.117.32-.178.479.958-2.501 1.131-3.246 4.209-5.297l5.047-1.365-.048.004 5.047 1.366a.535.535 0 0 0-.045-.027l3.587 3.588c.839 2.309 1.136 3.005.89 2.091.276 2.344.367 3.002.271 1.973-.065-.732-.053-1.475-.053-2.21-.001-2.787.149-5.576.281-8.359.258-5.449-4.744-10-10-10-5.647 0-9.742 4.556-10 10z" fill="#333" fill-rule="nonzero"/><path d="M355.659 1087.371c9.313 26.288 18.009 54.038 37.501 74.825 8.711 9.29 19.52 14.778 31.195 19.408 9.942 3.941 23.501 8.571 34.127 4.815 5.135-1.814 8.508-6.763 6.984-12.301-1.367-4.973-7.158-8.802-12.301-6.984-.729.258-1.436.444-2.193.598 2.426-.491-.423-.118-.868-.116-2.714.012-2.439-.087-4.766-.529-5.361-1.021-10.583-2.814-15.666-4.769-8.844-3.4-16.695-8.213-23.339-15.299-16.496-17.592-23.529-42.78-31.389-64.965-1.818-5.133-6.759-8.509-12.301-6.984-4.969 1.368-8.806 7.159-6.984 12.301zm188.22 7.421c2.801-.843-2.181.023.497-.135 1.234-.072 2.477-.008 3.709.065.732.043 5.196.572 2.661.222 2.076.287 4.14.661 6.198 1.052 8.851 1.675 17.581 4.014 26.232 6.501a417.345 417.345 0 0 1 25.646 8.262c1.688.606 3.369 1.234 5.045 1.875.858.328 5.87 2.396 3.242 1.271 1.964.841 3.97 1.717 5.753 2.906 10.763 7.181 20.765-10.15 10.094-17.27-5.081-3.391-11.377-5.328-17.066-7.432-9.006-3.328-18.178-6.223-27.396-8.899-9.25-2.685-18.604-5.109-28.082-6.846-6.837-1.252-14.972-2.929-21.85-.858-12.317 3.708-7.065 23.013 5.317 19.286z" fill="#333" fill-rule="nonzero"/><path d="M634.733 1123.237c18.431 5.497 36.675 11.748 54.548 18.854 8.709 3.463 17.567 7.361 26.076 12.011 1.673.914 3.313 1.885 4.935 2.886.742.459 1.47.94 2.196 1.424.396.264 3.27 2.391 1.188.772 1.072.84 2.087 1.75 3.038 2.724.478.484 1.75 2.166-.083-.268.398.528.717 1.107 1.007 1.7 2.397 4.893 9.242 6.188 13.682 3.588 4.955-2.902 5.986-8.787 3.588-13.682-3.294-6.722-10.696-11.3-16.902-14.966-9.481-5.601-19.755-9.888-29.919-14.065-18.938-7.784-38.417-14.413-58.036-20.264-12.392-3.694-17.647 15.61-5.318 19.286z" fill="#333" fill-rule="nonzero"/><path d="M717.5 1150.5c-.359 0-.704.021-1.044.051-1.448-.962-3.261-1.551-5.456-1.551-12.897 0-12.897 20 0 20 .359 0 .704-.021 1.044-.051 1.448.962 3.261 1.551 5.456 1.551 12.897 0 12.897-20 0-20z" fill="#333" fill-rule="nonzero"/><path d="M0 0h899v1416H0z"/></g></svg>