<svg xmlns="http://www.w3.org/2000/svg" width="899" height="1415"><ellipse cx="452.18" cy="1085.223" rx="229.361" ry="91.831" fill="#888" stroke="#333" stroke-width="14.911" stroke-linejoin="round"/><path d="M249.979 1088.796l-.012.013h-.012l-53.055.01-94.971 43.604c-47.935 22.014-78.144 66.6-78.144 115.347v166.15h854.956v-166.147c0-48.748-30.21-93.333-78.144-115.347l-94.971-43.603h-69.591c.62 3.109.286 5.928-2.506 8.29-.588 1.42-1.186 2.532-1.835 3.43-.04.15-.093.277-.144.408.117 2.622-.875 5.412-1.508 8.185l1.924-1.252c-.79 2.025-2.119 8.213-2.37 6.077-.184-1.576.073-3.198.446-4.825l-3.286 2.14c.057.599.138 1.16.237 1.687l.089-.043c1.19-.556-.068 2.548-.788 3.572-.773 1.1-1.804 2.018-2.85 2.928-.12.219-.25.422-.383.62 8.918 1.431-2.831 4.776-10.44 5.846 0 0 0 0 0 0-.621.187-1.243.375-1.863.564l-.684.393c5.32 8.78 4.99 15.47-12.844 6.51.396-.257.782-.525 1.168-.795-.42.262-.842.513-1.265.752l.09.043c-.237.154-.472.315-.713.464-.664.41-1.722.98-2.564 1.08-5.38 2.347-11.022 3.28-17.216 4.538-.507.103-1.95.737-2.564.997-5.56 2.695-10.61 3.11-16.946 2.284-.021.043-.042.086-.066.125-.581.918-1.6.95-2.786.643-1.997 1.463-2.352 1.667-5.06 1.675l-2.507 2.498c-2.472 0-4.953.227-7.412-.119-3.86 1.254-7.297 1.994-6.145.595-.137-.028-1.002-.195-1.484-.283-.854.754-1.71 1.505-2.58 2.242-2.725.488-5.451.847-8.176.638-.741.833-1.599 1.495-2.718 1.715-.296.058-1.132.087-2.17.1-.777.796-1.082.963-2.671.576-2.342 2.046-4.478 3.048-8.894 3.032-1.317-.01-2.948.338-4.231.12-.051 2.251 2.893 2.216-1.473 2.216H474.485c-3.161 1.725-6.62 2.98-10.431 2.661-4.358-.023-8.72.212-13.08.055-1.078-.083-4.049-.284-4.708-.515-.725-.253 1.552.204 2.325.143.416-.033.821-.124 1.225-.223l-3.046-.798c-.1-.016-.201-.022-.3-.043-.397.143-.797.283-1.192.431-5.954 2.532-12.096.58-18.22.861-2.698.098-5.392.125-8.094.098-1.785-.023-3.194-.01-4.417 0-3.524 1.64-8.285 2.668-14.327 2.668h-8.829c-2.207 0-4.44.317-6.62 0-1.938-.281-6.24-1.143-9.795-2.536-3.511-.106-6.892-1.206-10.021-2.784-2.043.194-4.106.14-6.162.038l-2.593-2.301c-1.024.259-2.034.421-2.98.084a45.448 45.448 0 0 1-7.039-3.194c-2.558-.669-5.35-2.234-8.61-4.838-2.522.193-4.973.085-5.715-.65-1.17-1.16-2.174-2.429-3.087-3.758-6.246 3.818-10.276.504-12.439-4.953.488.102.98.185 1.474.257-.325-.202-.633-.404-.952-.607-.24-.034-.48-.068-.698-.113.057.153.11.309.17.46a24.567 24.567 0 0 1-10.011-4.648c.297 1.152.167.816-.12-.096-.285-.226-.57-.45-.845-.687-.704-.61-1.285-1.321-1.846-2.048.88.448 1.563.796 2.209 1.12-.062-.207-.134-.472-.2-.695-.074-.096-.15-.18-.224-.287.082.059.102.077.18.134-.01-.032-.02-.067-.028-.1-.055-.022-.113-.042-.167-.065-.01-.01-.019-.014-.029-.021a24.367 24.367 0 0 1-2.718-1.347c-.272-.342-.55-.68-.85-1-.04-.043-.047-.045-.068-.068-.01 0-.014.01-.021.01.1.142.388.501.729.925-.865-.518-1.685-1.093-2.43-1.767a6.14 6.14 0 0 1-.398-.398l-.52-.437c-.463.198-.902.403-1.271.627a27.636 27.636 0 0 0-1.894-.868c-.207.466-.425.929-.63 1.396-.01-.01-.013-.01-.022-.016-.01.038-.014.08-.022.117.013-.03.031-.06.046-.09.052.033.108.065.159.099.059.04-.082.032-.205 0v-.01c-.078-.023-.147-.051-.134-.092l.03-.104c.041.025.085.048.127.075.075-.36.138-.739.19-1.13-.105.35-.217.7-.32 1.052-2.999-1.837-7.388-2.744-9.464-5.17 2.222 1.405 5.248 2.537 5.77 2.204-2.08-.73-4.144-1.47-5.98-2.44.06.079.128.15.193.226a12.339 12.339 0 0 1-.94-.654c.246.145.492.293.748.428a4.666 4.666 0 0 1-.711-1.326c-.056-.164-.11-.371-.165-.55a14.243 14.243 0 0 1-.794-1.1c-.283-.102-.57-.205-.85-.303.108.525.259 1.034.503 1.508.215.418.658.861 1.215 1.3-1.42-.842-2.674-1.846-3.633-3.14-.097-.131-.187-.296-.278-.449-3.645-1.331-7.092-2.987-10.253-7.324l-1.306-2.946c-7.792-2.112-10.676-5.025-10.882-8.12-5.164-.781-6.356-3.417-5.416-6.753-1.106-1.59-1.936-3.373-2.793-5.112zm362.64 37.09c2.945-.883 5.845-1.81 8.061-3.414-.273.127-.457.184-.299-.026.478-.631 1.043-1.2 1.636-1.75a32.115 32.115 0 0 0-.884-1.476c-.346.588-1.046.928-1.9 1.115.673 2.42-.118 3.487-3.426 2.715-1.564 1.148-3.213 2.145-4.92 3.042a41.165 41.165 0 0 0 1.731-.205zm6.614-5.551l-.044-.15c-.109.074-.21.144-.324.22.125-.021.248-.043.368-.07zm-.368.069c-.182.03-.37.049-.56.068l-.598.671c.407-.252.795-.5 1.158-.739zm-.56.068l.719-.807c-.15-.431-.363-.926-.589-1.433-.446.46-1.035.8-1.83.948-.114.021-.225.033-.338.051a4.51 4.51 0 0 1-.729.83c-.16.139-.328.249-.494.365 1.017.087 2.139.154 3.26.045zm3.712.223c.075.133.152.266.224.4a8.78 8.78 0 0 0 .727-.909c.031-.044.059-.099.09-.146-.082-.014-.183-.026-.269-.038-.26.229-.52.458-.772.693zm.772-.693c.22-.192.432-.39.652-.582.634-1.15 1.105-2.556 1.363-4.025-.717.503-1.445.985-2.224 1.382-.05.26-.324.626-.676.994.147-.289.295-.577.435-.868-.281.134-.568.26-.865.367-.01 0-.014 0-.019.01.3.2.322.48.13.822.119-.106.212-.215.315-.323-.1.196-.204.391-.308.586.099.54.175 1.054.193 1.5.37.042.685.09 1.005.138zm-.45-3.1c.081-.04.16-.083.241-.125.022-.111 0-.196-.065-.259-.06.128-.116.258-.177.385zm-.098 4.193c-.467.511-.992.966-1.56 1.377.485-.224 1.354-.746 1.803-.941-.075-.146-.164-.29-.243-.436zm-359.365-20.147c.094 1.02.548 1.659 1.447 1.703a21.548 21.548 0 0 1-.838-1.51 19.342 19.342 0 0 1-.61-.193zm363.703 6.987a7.069 7.069 0 0 1-1.4 1.337c-.128.439-.243.88-.38 1.317.117.584.19 1.192.212 1.82l1.74-1.135a44.488 44.488 0 0 1-.172-3.34zm-1.568 4.473l-1.068.696c-.208.563-.432 1.12-.661 1.675.564-.287 1.128-.573 1.696-.85.039-.511.051-1.02.033-1.52zm-1.068.696c.307-.831.588-1.671.855-2.515a8.993 8.993 0 0 0-.236-.903c-.359.222-.733.435-1.136.628-.433.643-.86 1.25-1.277 1.818.387.661.528 1.266.485 1.824l1.31-.852zm-3.322-1.738c-.264.077-.535.146-.806.216.043.16.095.332.138.494.23-.232.45-.47.668-.71zm-.666.719c.066.243.138.495.207.742.208-.233.416-.474.62-.727a1.63 1.63 0 0 1-.595.026c-.074-.012-.156-.029-.232-.043zm2.157 0c-.01.034 0 .073-.01.108a.535.535 0 0 1 .044-.057l-.034-.05zm-.01.108a36.46 36.46 0 0 1-1.568 1.965c.094.33.183.655.274.983l.276-.181c.49-.83.84-1.754 1.018-2.767zm-5.264 1.066c.103.429.189.85.249 1.264.075-.055.155-.104.23-.16.037-.11.069-.218.105-.329-.195-.258-.388-.517-.584-.775zm.703.934c-.073.058-.147.116-.222.172-.053.16-.127.313-.186.473.01.093.028.19.036.282.067-.03.13-.063.196-.094.105-.228.201-.449.299-.67l-.123-.163zm4.212 2.243c-.186.023-.381.06-.58.112.04.156.077.31.114.464.156-.191.314-.382.466-.576zm-1.67 1.204c-.17.035-.342.07-.517.098-.41.479-.647.943-.374 1.231.082.087.19.128.31.148.302-.34.599-.682.894-1.026-.103-.15-.208-.3-.313-.45zm-5.019 1.85c-.137.089-.272.18-.408.269-.144.2-.29.408-.432.594.085.01.188.014.277.022.18-.264.37-.563.563-.885zm-2.337 2.573c-.311.306-.62.588-.928.823-.288.454-.588.85-.897 1.156-.477.474-1.06.958-1.687 1.44.102.157.205.313.305.469 1.67-1.01 3.541-2.081 5.38-3.145a31.867 31.867 0 0 1-2.173-.743zm-4.271 2.319c-.011.01-.021.014-.03.023-.362.307-.732.606-1.084.921-.225.202-.29.36-.247.49.253.032.511.067.759.095.259.014.508.026.732.04-.014.01-.027.021-.042.03l.796.077c.034-.02.073-.04.107-.062-.245-.015-.597-.036-.86-.05.215-.154.424-.307.626-.462-.24-.366-.503-.732-.757-1.1zm-1.337 1.497c.125.176.539.268 1.126.304.096-.067.203-.13.297-.198-.228-.023-.444-.043-.69-.069-.26-.014-.506-.024-.733-.037zm-304.803 4.206c.065.04.128.08.194.118.327.412.645.83.966 1.245l-.119-.059c-.227-.293-.66-.83-1.04-1.304zm299.24.052c-1.167.35-2.35.663-3.382 1.252-.643.366 1.228-.113 2.166-.278.41-.318.812-.648 1.215-.974zm-295.952 1.558l.048.174c1.28.93 1.966 1.47 1.904 1.532h.01l.01.01c.369.165.878.365 1.407.574.093-.142.293-.346.234-.954a61.423 61.423 0 0 1-3.612-1.338zm1.952 1.706h-.01s.01 0 .012.01c0 0 0 0 0 0zm-.01 0c-.836-.375-1.357-.72-1.814-1.228l.133.486c.897.449 1.562.762 1.68.742zm14.9 3.516c.108.412.234.812.382 1.195l.226.306c.642-.091 1.313-.201 2.023-.332-.211-.275-.419-.552-.629-.827-.796-.138-1.383-.237-2.002-.342zm2.63 1.169c.284.367.563.736.846 1.104-.206-.381-.407-.766-.61-1.15-.077.014-.158.032-.235.045zm.846 1.104c.107.197.222.39.33.586h.123l-.453-.59zm2.92-.515c-.167.011-.33.014-.489.01.506.4 1.02.791 1.56 1.155h.55a12.78 12.78 0 0 1-.15-.435c-.493-.205-.983-.449-1.47-.73zm-11.058.532c.28.175.536.35.826.524.964.58 2.24.107 3.444-.12-.315-.046-.628-.1-.942-.153-1.12 0-2.232-.091-3.328-.25zm5.636.136c-.337.033-.674.066-1.012.084.46.034.734.065.414.082a5.618 5.618 0 0 0-.759.103c.03.01.059.012.088.016.203.01 1.014.037 1.482.057-.076-.111-.143-.227-.213-.341zm216.065 8.164c-.022.01-.043.015-.065.023.246.01.264 0 .065-.023zm-16.616.021c-1.1.623-2.05 1.202-2.817 1.719.348.108.696.204 1.045.297.744-.761 1.365-1.421 1.898-1.993-.045-.01-.08-.013-.126-.021zm.371.064c-.455.66-.901 1.355-1.376 2.03 1.562-.54 3.156-1.013 4.703-1.585-.23.01-.46.013-.69-.02a69.607 69.607 0 0 1-2.637-.426zm-4.771 2.787c-1.182.925-1.841 1.618-2.309 2.1 1.07-.114 2.063-.398 2.834-.975.276-.207.62-.516.985-.86a17.022 17.022 0 0 1-1.51-.265zm-9.9 1.41v0l.081.023-.08-.024zm.081.037l.507.152c.022 0 .052.01.074.01-.228-.061-.362-.102-.58-.161zm-5.876.178c-.788.817-1.349 1.532-1.731 2.157.409.343.828.68 1.265.998 1.293.941 5.688-.81 8.175-2.701a156.343 156.343 0 0 1-7.709-.454z" fill="#ececec" stroke="#333" stroke-width="14.024"/><path d="M626.219 1088.822c-2.617 5.558-13.44 14.657-15.917 15.748-.5.22-1.036.497-1.586.788l151.49 78.53c12.254 6.36 19.82 18.175 19.82 30.985v199.05h99.745v-166.15c0-48.749-30.21-93.334-78.144-115.348l-94.971-43.603z" fill="#b6c1ce" stroke="#333" stroke-width="14.024"/><path transform="matrix(1.78116 0 0 1.61587 10.566 625.377)" fill="#fcd770" stroke="#333" stroke-width="8.267" d="M488 408h-96l-8 80h104z"/><path fill="#ffc729" stroke="#333" stroke-width="14.024" d="M780.026 1284.654h99.745v129.27h-99.745z"/><path transform="matrix(1.78116 0 0 1.61587 10.566 625.377)" fill="#fcd770" stroke="#333" stroke-width="8.267" d="M8 408h96l8 80H8z"/><path d="M238.554 1051.968l-40.624 36.854c56.925 71.615 149.602 118.27 254.363 118.27 104.76 0 197.437-46.655 254.363-118.27l-40.624-36.854h-.685c-17.389 23.536-39.367 44.046-64.775 60.462-1.276 2.766-4.942 5.99-7.471 7.536-5.331 3.26-8.753 4.086-11.488 3.61-37.946 20.209-82.122 31.808-129.32 31.808-88.873 0-167.03-41.121-213.055-103.416z" fill="#4242f4" stroke="#333" stroke-width="14.024"/><g stroke="#333" stroke-width="8.267" fill="#afb8c9"><path d="M112 488h40l-21.12-176L104 288l-13.704 8zM384 488h-40l21.12-176L392 288l13.704 8z" transform="matrix(1.78116 0 0 1.61587 10.566 625.377)"/></g><path d="M552.038 1258.8h-199.49c-15.745 0-28.498 11.57-28.498 25.854v129.27h256.486v-129.27c0-14.285-12.753-25.854-28.498-25.854z" fill="#fcd770" stroke="#333" stroke-width="14.024"/><path fill="#ffc729" stroke="#333" stroke-width="14.024" d="M324.05 1375.143h256.487v38.781H324.05z"/><circle cx="232" cy="440" r="16" fill="#ececec" transform="matrix(1.78116 0 0 1.61587 10.566 625.377)" stroke="#333" stroke-width="8.267"/><path stroke="#333" stroke-width="14.024" d="M495.041 1297.581h28.499v25.854h-28.499zM495.041 1349.289h28.499v25.854h-28.499zM423.794 1297.58c-23.568 0-42.747 17.4-42.747 38.782 0 21.38 19.18 38.78 42.747 38.78 23.569 0 42.748-17.4 42.748-38.78 0-21.382-19.18-38.781-42.748-38.781zm0 51.709c-7.851 0-14.249-5.805-14.249-12.927 0-7.123 6.398-12.927 14.25-12.927 7.85 0 14.249 5.804 14.249 12.927 0 7.122-6.398 12.927-14.25 12.927zM67.563 1207.092h28.499v25.854H67.563zM808.524 1207.092h28.499v25.854h-28.499z"/></svg>