<svg width="899" height="1415" fill="none" xmlns="http://www.w3.org/2000/svg"><path fill="none" d="M26 1051h845.2v363.6H26z"/><path fill-rule="evenodd" clip-rule="evenodd" d="M871.2 1309.4v-.4c0-73.2-43.7-139.4-111-168.2L643.6 1091c-61.6-26.4-127.9-39.9-195-39.9-67 0-133.3 13.6-195 39.9L137 1140.8c-67.3 28.8-111 95-111 168.2v105.6h845.2v-105.2z" fill="#684A23"/><rect x="45" y="1300" width="41" height="61" rx="8" fill="#fff"/><g opacity=".15"><path fill="none" d="M274 1087h353v314.5H274z"/><path d="M337 1090.84c0 61.93 50.159 112.16 112 112.16s112-50.23 112-112.16c0-1.3 0-2.53-.082-3.84" stroke="#000" stroke-width="11.045"/><path d="M274 1101v295.5M627 1106v295.5" stroke="#000" stroke-width="30"/><rect x="274" y="1325" width="176" height="71" rx="10" fill="#000"/><circle cx="427" cy="1347" r="8" fill="#C4C4C4"/><circle cx="402" cy="1347" r="8" fill="#C4C4C4"/></g><path d="M448.6 1078c31.5 0 63.2 3.2 94.1 9.5 30.9 6.3 61.3 15.8 90.3 28.2l116.6 49.9c57.5 24.6 94.6 80.9 94.6 143.4v78.6H53V1309c0-62.5 37.1-118.8 94.6-143.4l116.6-49.9c29-12.4 59.4-21.9 90.3-28.2 30.9-6.3 62.6-9.5 94.1-9.5zm0-27c-67 0-133.3 13.6-195 39.9L137 1140.8c-67.3 28.8-111 95-111 168.2v105.6h845.2V1309c0-73.2-43.7-139.4-111-168.2L643.6 1091c-61.7-26.4-128-40-195-40z" fill="#333"/><path d="M317.297 1079.34c-.338 79.01 58.503 143.35 131.387 143.66 72.883.31 132.272-63.52 132.61-142.53.007-1.67.014-3.24-.075-4.91" stroke="#333" stroke-width="60" stroke-linecap="round"/><path d="M317.297 1079.34c-.338 79.01 58.503 143.35 131.387 143.66 72.883.31 132.272-63.52 132.61-142.53.007-1.67.014-3.24-.075-4.91" stroke="#fff" stroke-width="30" stroke-linecap="round"/><path d="M181.271 1103.05c-7.866.68-13.941 7.48-13.213 15.47l24.385 267.59c.726 7.97 7.899 13.6 15.747 12.93 7.866-.68 13.941-7.48 13.212-15.47l-24.384-267.59c-.726-7.96-7.899-13.6-15.747-12.93zm547.671 17.38c.728-7.99-5.347-14.79-13.213-15.47-7.847-.67-15.021 4.96-15.747 12.93l-24.384 267.59c-.729 7.99 5.346 14.79 13.212 15.47 7.848.67 15.021-4.97 15.747-12.93l24.385-267.59z" fill="#fff" stroke="#333" stroke-width="10"/></svg>