<svg xmlns="http://www.w3.org/2000/svg" xmlns:xlink="http://www.w3.org/1999/xlink" width="899" height="1415"><defs><path d="M872.1 1309.4c0-73.2-43.7-139.4-111-168.2l-116.6-49.8c-61.6-26.4-127.9-39.9-195-39.9-67 0-133.3 13.6-195 39.9l-116.6 49.8c-67.3 28.8-111 95-111 168.2V1415h845.2v-105.2-.4z" id="a"/><path d="M299.4 1076.44v352.26l-61.09-2.74v-327.65l61.09-21.87z" id="b"/><path d="M615.79 1080.93v347.77l61.09-2.74v-319.43l-61.09-25.6z" id="c"/><path d="M551.88 1063.29l19.71 63.8 36.57 118.37-155.19-57.75-148.27 57.75 37.73-182.17" id="d"/><path d="M425.79 1195.08h56.61v51.49h-56.61v-51.49z" id="e"/><path d="M479.4 1232.68l64.66 28.57 8.47-33.79v-31.98l-9.43-34.21-63.7 52.09v19.32z" id="f"/><path d="M432.6 1231.68l-64.66 28.57-8.47-33.79v-31.98l9.43-34.21 63.7 52.09v19.32z" id="g"/></defs><use xlink:href="#a" fill="#684a23"/><use xlink:href="#a" fill-opacity="0" stroke="#000" stroke-opacity="0"/><use xlink:href="#b" fill="#060606"/><use xlink:href="#b" fill-opacity="0" stroke="#000"/><use xlink:href="#c" fill="#060606"/><use xlink:href="#c" fill-opacity="0" stroke="#000"/><use xlink:href="#d" fill="#fff"/><use xlink:href="#d" fill-opacity="0" stroke="#000"/><g><use xlink:href="#e"/></g><g><use xlink:href="#f" fill="#090909"/><use xlink:href="#f" fill-opacity="0" stroke="#000"/></g><g><use xlink:href="#g" fill="#090909"/><use xlink:href="#g" fill-opacity="0" stroke="#000"/></g></svg>