<svg height="92" width="97" xmlns="http://www.w3.org/2000/svg" xmlns:xlink="http://www.w3.org/1999/xlink"><mask id="a" fill="#fff"><path d="m0 0h11v23h-11z" fill="#fff" fill-rule="evenodd"/></mask><mask id="b" fill="#fff"><path d="m0 0h11v23h-11z" fill="#fff" fill-rule="evenodd"/></mask><mask id="c" fill="#fff"><path d="m0 0h14v29h-14z" fill="#fff" fill-rule="evenodd"/></mask><mask id="d" fill="#fff"><path d="m0 .132h34v15.868h-34z" fill="#fff" fill-rule="evenodd"/></mask><mask id="e" fill="#fff"><path d="m0 .116h34v16.264h-34z" fill="#fff" fill-rule="evenodd"/></mask><g fill="none" fill-rule="evenodd"><path d="m.832 10.664 5.033 10.997 4.314-10.997-4.314-9.326zm5.06 12.336a.392.392 0 0 1 -.35-.22l-5.5-11.938a.403.403 0 0 1 0-.355l5.499-10.268a.388.388 0 0 1 .362-.219c.153.005.29.099.35.24l4.714 10.268a.4.4 0 0 1 0 .313l-4.713 11.939a.394.394 0 0 1 -.35.24h-.011z" fill="#fefefe" mask="url(#a)" transform="translate(19 15)"/><path d="m24 35.421v-19.421c0 .418.224.084.5.084s.5.334.5-.084v19.421c0 1.244-.224 1.579-.5 1.579s-.5-.335-.5-1.579" fill="#fefefe"/><path d="m20 25.523 5.2 2.477 4.8-2.477-4.8-2.523z" stroke="#fefefe" stroke-linecap="round" stroke-linejoin="round"/><path d="m.832 10.664 5.033 10.997 4.314-10.997-4.314-9.326zm5.06 12.336a.392.392 0 0 1 -.35-.22l-5.5-11.938a.403.403 0 0 1 0-.355l5.499-10.268a.388.388 0 0 1 .362-.219c.153.005.29.099.35.24l4.714 10.268a.4.4 0 0 1 0 .313l-4.713 11.939a.394.394 0 0 1 -.35.24h-.011z" fill="#fefefe" mask="url(#b)" transform="translate(62 24)"/><path d="m67 44.421v-19.421c0 .418.224.084.5.084s.5.334.5-.084v19.421c0 1.244-.224 1.579-.5 1.579s-.5-.335-.5-1.579" fill="#fefefe"/><path d="m63 34.523 5.2 2.477 4.8-2.477-4.8-2.523z" stroke="#fefefe" stroke-linecap="round" stroke-linejoin="round"/><path d="m1.059 13.446 6.406 13.866 5.49-13.866-5.49-11.759-6.406 11.76zm6.44 15.554a.5.5 0 0 1 -.446-.277l-7-15.053a.504.504 0 0 1 0-.448l7-12.946a.502.502 0 0 1 .907.026l6 12.947a.5.5 0 0 1 0 .394l-6 15.054a.502.502 0 0 1 -.445.303h-.015z" fill="#fefefe" mask="url(#c)" transform="translate(42 3)"/><path d="m48.999 29v-24.607c0 .53.224.107.5.107s.5.423.5-.107v24.607c0 1.576-.224 2-.5 2s-.5-.424-.5-2" fill="#fefefe"/><path d="m43 16.5 6.5 2.946 6-2.946-6-3z" stroke="#fefefe" stroke-linecap="round" stroke-linejoin="round"/><g fill="#fefefe"><path d="m48 90c-.552 0-1-.501-1-1.119v-44.762c0-.618.448-1.119 1-1.119s1 .501 1 1.119v44.762c0 .618-.448 1.119-1 1.119"/><path d="m48.864 90c-.137 0-.273-.024-.405-.073l-22.727-8.401a1.098 1.098 0 0 1 -.732-1.026v-22.4c0-.607.51-1.1 1.136-1.1.628 0 1.137.493 1.137 1.1v21.641l21.995 8.132c.589.217.88.851.657 1.42a1.136 1.136 0 0 1 -1.061.707"/><path d="m10.385 5.059-6.653 8.359 19.883-2.344 6.65-8.36zm-9.253 10.94a1.133 1.133 0 0 1 -.886-1.837l8.656-10.88c.186-.234.456-.386.753-.42l23.08-2.72c.457-.063.899.172 1.121.574.224.4.184.895-.102 1.258l-8.656 10.876a1.126 1.126 0 0 1 -.753.42l-23.08 2.72a.864.864 0 0 1 -.133.009z" mask="url(#d)" transform="translate(16 43)"/><path d="m48 90c-.552 0-1-.501-1-1.119v-44.762c0-.618.448-1.119 1-1.119s1 .501 1 1.119v44.762c0 .618-.448 1.119-1 1.119"/><path d="m48.136 89c-.468 0-.904-.276-1.07-.72-.21-.564.097-1.185.688-1.387l21.973-7.484v-21.324c0-.599.51-1.085 1.137-1.085s1.136.486 1.136 1.085v22.09c0 .457-.302.865-.755 1.02l-22.727 7.742a1.174 1.174 0 0 1 -.382.063"/><path d="m10.4 11.4 19.93 2.422-6.73-8.724-19.93-2.422 6.73 8.723zm22.466 4.98a.975.975 0 0 1 -.138-.008l-23.078-2.804a1.143 1.143 0 0 1 -.762-.433l-8.655-11.215a1.108 1.108 0 0 1 -.081-1.238c.224-.39.662-.624 1.12-.554l23.078 2.804c.301.035.578.192.761.43l8.657 11.215c.276.36.308.848.081 1.24a1.14 1.14 0 0 1 -.984.564z" mask="url(#e)" transform="translate(47 43)"/></g></g></svg>