<svg width="31" height="30" xmlns="http://www.w3.org/2000/svg"><g fill="none" fill-rule="evenodd"><path d="M15.5 1C7.506 1 1 7.28 1 14.998 1 22.72 7.506 29 15.5 29S30 22.72 30 14.998C30 7.281 23.494 1 15.5 1z" stroke-opacity=".87" stroke="#FFF" stroke-width="2" stroke-linecap="round" stroke-linejoin="round"/><path d="M21.387 8.334l-4.93 4.931a.518.518 0 0 1-.731 0l-5.114-5.114a.518.518 0 0 0-.73 0l-.73.731a.517.517 0 0 0 0 .73l5.112 5.114a.516.516 0 0 1 0 .73l-4.93 4.932a.515.515 0 0 0 0 .73l.73.73a.518.518 0 0 0 .731 0l4.93-4.93a.517.517 0 0 1 .732 0l4.747 4.748a.517.517 0 0 0 .731 0l.73-.73a.516.516 0 0 0 0-.73l-4.747-4.75a.518.518 0 0 1 0-.73l4.93-4.931a.516.516 0 0 0 0-.73l-.73-.731a.516.516 0 0 0-.73 0" fill-opacity=".96" fill="#FFF"/></g></svg>