<svg height="2498" viewBox="100 100.1 300 299.7" width="2500" xmlns="http://www.w3.org/2000/svg"><g fill="#2a2a2a"><circle cx="236.8" cy="399.4" r=".5"/><circle cx="222.6" cy="394.9" r="1"/><circle cx="208.9" cy="389.1" r="1.5"/><circle cx="196" cy="381.8" r="2"/><circle cx="183.9" cy="373.2" r="2.6"/><circle cx="172.7" cy="363.3" r="3.1"/><circle cx="162.7" cy="352.4" r="3.6"/><circle cx="153.9" cy="340.4" r="4.1"/><circle cx="146.6" cy="327.4" r="4.6"/><circle cx="141.2" cy="313.6" r="5.1"/><circle cx="137.6" cy="299.2" r="5.6"/><circle cx="135.9" cy="284.4" r="6.1"/><circle cx="136.2" cy="269.5" r="6.7"/><circle cx="138.4" cy="254.8" r="7.2"/><circle cx="346.4" cy="365.1" r=".5"/><path d="m333.2 371.1c-.5 0-.9.4-.9.9s.4.9.9.9.9-.4.9-.9-.4-.9-.9-.9zm-13.8 5c-.7 0-1.4.6-1.4 1.4s.6 1.4 1.4 1.4 1.4-.6 1.4-1.4c-.1-.8-.7-1.4-1.4-1.4z"/><circle cx="305.1" cy="381.5" r="1.8"/><path d="m290.4 381.7c-1.3 0-2.3 1-2.3 2.3 0 1.2 1 2.3 2.3 2.3 1.2 0 2.3-1 2.3-2.3s-1-2.3-2.3-2.3z"/><circle cx="275.6" cy="384.9" r="2.7"/><circle cx="260.7" cy="384.2" r="3.2"/><circle cx="246" cy="382" r="3.6"/><circle cx="231.7" cy="377.9" r="4.1"/><circle cx="218.1" cy="372" r="4.5"/><circle cx="205.3" cy="364.4" r="5"/><circle cx="193.7" cy="355.1" r="5.4"/><circle cx="183.4" cy="344.4" r="5.9"/><circle cx="174.6" cy="332.5" r="6.3"/><circle cx="167.4" cy="319.5" r="6.8"/><circle cx="399.6" cy="263.3" r=".4"/><circle cx="395.2" cy="277.5" r=".8"/><path d="m389.3 290c-.7 0-1.2.5-1.2 1.2s.5 1.2 1.2 1.2 1.2-.5 1.2-1.2-.5-1.2-1.2-1.2zm-7.3 12.5c-.9 0-1.6.7-1.6 1.6s.7 1.6 1.6 1.6 1.6-.7 1.6-1.6-.7-1.6-1.6-1.6z"/><circle cx="373.4" cy="316.3" r="2"/><circle cx="363.6" cy="327.4" r="2.4"/><circle cx="352.6" cy="337.5" r="2.8"/><circle cx="340.6" cy="346.3" r="3.2"/><path d="m327.6 349.9c-2 0-3.6 1.6-3.6 3.6s1.6 3.6 3.6 3.6 3.6-1.6 3.6-3.6c.1-2-1.6-3.6-3.6-3.6zm-13.8 5c-2.2 0-4.1 1.8-4.1 4.1s1.8 4.1 4.1 4.1c2.2 0 4.1-1.8 4.1-4.1s-1.9-4.1-4.1-4.1z"/><circle cx="299.4" cy="362.6" r="4.5"/><circle cx="284.6" cy="364.2" r="4.9"/><circle cx="269.8" cy="364" r="5.3"/><path d="m260.7 361.8c0-3.1-2.5-5.7-5.7-5.7-3.1 0-5.7 2.5-5.7 5.7 0 3.1 2.5 5.7 5.7 5.7 3.2-.1 5.7-2.6 5.7-5.7z"/><circle cx="240.8" cy="357.7" r="6.1"/><circle cx="227.1" cy="351.7" r="6.5"/><path d="m365.3 154.2c.2 0 .4-.2.4-.4s-.2-.4-.4-.4-.4.2-.4.4.2.4.4.4zm6.9 13.5c.4 0 .8-.4.8-.8s-.4-.8-.8-.8-.8.4-.8.8c0 .5.4.8.8.8zm5.5 14.3c.7 0 1.2-.5 1.2-1.2s-.5-1.2-1.2-1.2-1.2.5-1.2 1.2c0 .6.5 1.2 1.2 1.2zm4 14.7c.9 0 1.6-.7 1.6-1.6s-.7-1.6-1.6-1.6-1.6.7-1.6 1.6.7 1.6 1.6 1.6z"/><circle cx="384.2" cy="209.7" r="2"/><circle cx="385.1" cy="224.5" r="2.4"/><path d="m384.5 236.6c-1.6 0-2.8 1.3-2.8 2.8 0 1.6 1.3 2.8 2.8 2.8 1.6 0 2.8-1.3 2.8-2.8 0-1.6-1.3-2.8-2.8-2.8zm-2.3 14.3c-1.8 0-3.2 1.5-3.2 3.2 0 1.8 1.4 3.2 3.2 3.2s3.2-1.4 3.2-3.2c.1-1.8-1.4-3.2-3.2-3.2z"/><circle cx="378.2" cy="268.4" r="3.6"/><circle cx="372.3" cy="282" r="4.1"/><circle cx="364.6" cy="294.8" r="4.5"/><path d="m355.3 301.5c-2.7 0-4.9 2.2-4.9 4.9s2.2 4.9 4.9 4.9 4.9-2.2 4.9-4.9-2.2-4.9-4.9-4.9z"/><circle cx="344.6" cy="316.7" r="5.3"/><circle cx="332.7" cy="325.6" r="5.7"/><circle cx="319.7" cy="332.8" r="6.1"/><path d="m305.9 331.7c-3.6 0-6.5 2.9-6.5 6.5s2.9 6.5 6.5 6.5 6.5-2.9 6.5-6.5c-.1-3.6-3-6.5-6.5-6.5zm-42.3-230.8c.2 0 .4-.2.4-.4s-.2-.4-.4-.4-.4.2-.4.4c0 .3.1.4.4.4z"/><circle cx="277.8" cy="105" r=".8"/><path d="m291.4 112.1c.7 0 1.2-.5 1.2-1.2s-.5-1.2-1.2-1.2-1.2.5-1.2 1.2c0 .6.5 1.2 1.2 1.2zm13 7.6c.9 0 1.6-.7 1.6-1.6s-.7-1.6-1.6-1.6-1.6.7-1.6 1.6.7 1.6 1.6 1.6zm12.1 9.1c1.1 0 2-.9 2-2s-.9-2-2-2-2 .9-2 2 .9 2 2 2z"/><circle cx="327.6" cy="136.6" r="2.4"/><path d="m337.7 150.4c1.6 0 2.8-1.3 2.8-2.8 0-1.6-1.3-2.8-2.8-2.8-1.6 0-2.8 1.3-2.8 2.8-.1 1.5 1.2 2.8 2.8 2.8zm8.8 12.3c1.8 0 3.2-1.5 3.2-3.2 0-1.8-1.4-3.2-3.2-3.2s-3.2 1.4-3.2 3.2 1.4 3.2 3.2 3.2z"/><circle cx="353.7" cy="172.5" r="3.6"/><path d="m355.2 186.3c0 2.2 1.8 4.1 4.1 4.1 2.2 0 4.1-1.8 4.1-4.1 0-2.2-1.8-4.1-4.1-4.1-2.3.1-4.1 1.9-4.1 4.1zm3.1 14.4c0 2.5 2 4.5 4.5 4.5s4.5-2 4.5-4.5-2-4.5-4.5-4.5c-2.5.1-4.5 2.1-4.5 4.5zm1.3 14.8c0 2.7 2.2 4.9 4.9 4.9s4.9-2.2 4.9-4.9-2.2-4.9-4.9-4.9-4.9 2.2-4.9 4.9z"/><circle cx="364.2" cy="230.4" r="5.3"/><circle cx="362" cy="245.1" r="5.7"/><circle cx="357.9" cy="259.4" r="6.1"/><circle cx="352" cy="273" r="6.5"/><circle cx="154" cy="134.8" r=".4"/><circle cx="167.2" cy="127.9" r=".8"/><circle cx="181" cy="122.4" r="1.2"/><circle cx="195.3" cy="118.4" r="1.6"/><circle cx="209.9" cy="115.9" r="2"/><circle cx="224.8" cy="115" r="2.4"/><circle cx="239.6" cy="115.7" r="2.8"/><circle cx="254.3" cy="117.9" r="3.2"/><circle cx="268.6" cy="121.9" r="3.6"/><path d="m282.3 131.9c2.2 0 4-1.8 4-4.1 0-2.2-1.8-4.1-4-4.1s-4.1 1.8-4.1 4.1 1.8 4.1 4.1 4.1zm8.3 3.6c0 2.5 2 4.5 4.5 4.5s4.5-2 4.5-4.5-2-4.5-4.5-4.5c-2.5.1-4.5 2.1-4.5 4.5zm16 14.1c2.7 0 4.9-2.2 4.9-4.9s-2.2-4.9-4.9-4.9-4.9 2.2-4.9 4.9 2.3 4.9 4.9 4.9zm10.4 11.2c2.9 0 5.3-2.4 5.3-5.3s-2.4-5.3-5.3-5.3-5.3 2.4-5.3 5.3 2.3 5.3 5.3 5.3z"/><circle cx="325.8" cy="167.4" r="5.7"/><circle cx="333" cy="180.4" r="6.1"/><path d="m331.9 194.3c0 3.6 2.9 6.5 6.5 6.5s6.5-2.9 6.5-6.5-2.9-6.5-6.5-6.5c-3.5 0-6.5 2.9-6.5 6.5z"/><circle cx="342" cy="208.7" r="6.9"/><circle cx="100.8" cy="236.6" r=".8"/><circle cx="105.2" cy="222.4" r="1.5"/><circle cx="111.1" cy="208.7" r="2.3"/><circle cx="118.4" cy="195.8" r="3.1"/><circle cx="127" cy="183.6" r="3.8"/><circle cx="136.8" cy="172.5" r="4.6"/><circle cx="147.8" cy="162.4" r="5.4"/><circle cx="159.7" cy="153.6" r="6.1"/><circle cx="172.6" cy="146.3" r="6.9"/><path d="m186.4 148.3c3.8 0 7-2.8 7.5-6.5 1.5 2.2 4 3.6 6.9 3.6 3.2 0 6.1-1.8 7.5-4.5 1.7 2.2 4.3 3.7 7.3 3.7 2.7 0 5.1-1.2 6.8-3 1.8 2.5 4.7 4.2 8.1 4.2 2.1 0 4.1-.7 5.7-1.8.4.6.8 1.1 1.3 1.6-2.5.3-4.8 1.4-6.5 3-1.9-1.7-4.4-2.8-7.2-2.8-3.5 0-6.7 1.7-8.6 4.4-1.7-1.3-3.8-2.1-6.2-2.1-4 0-7.5 2.4-9.1 5.8-1.5-1-3.3-1.6-5.3-1.6-4.5 0-8.3 3.1-9.2 7.3-1.3-.8-2.9-1.3-4.6-1.3-4.9 0-8.9 4-8.9 8.9-1.2-.7-2.6-1.1-4.1-1.1-4.6 0-8.3 3.7-8.3 8.3 0 .8.1 1.6.3 2.3-1.2-.7-2.5-1.1-4-1.1-4.2 0-7.7 3.4-7.7 7.7 0 4.2 3.4 7.7 7.7 7.7s7.7-3.4 7.7-7.7c0-.7-.1-1.3-.3-1.9 1.3.9 2.9 1.4 4.5 1.4 4.5 0 8.1-3.6 8.3-8 1.4.9 3 1.4 4.7 1.4h.5c-1.9 1.7-3.1 4.1-3.3 6.7-.6-.1-1.2-.2-1.8-.2-5.4 0-9.7 4.4-9.7 9.7 0 .4 0 .8.1 1.1-.4 0-.7-.1-1.1-.1-5.1 0-9.2 4.1-9.2 9.2 0 1 .2 2 .5 2.9h-.5c-4.8 0-8.7 3.9-8.7 8.7 0 1.7.5 3.2 1.3 4.5h-.3c-4.5 0-8.2 3.7-8.2 8.2 0 2.4 1 4.5 2.6 6h-.3c-4.2 0-7.7 3.4-7.7 7.7s3.4 7.7 7.7 7.7c4.2 0 7.7-3.4 7.7-7.7 0-2.1-.9-4.1-2.3-5.5h.5c2.4 0 4.5-1 6-2.6v.3c0 2.1.7 4 1.9 5.6-3.5 1.3-6 4.6-6 8.5 0 2.8 1.2 5.2 3.2 6.9-3 1.4-5 4.3-5 7.8 0 3.3 1.9 6.2 4.6 7.6-2.6 1.3-4.5 4.1-4.5 7.3 0 3.9 2.7 7.1 6.3 7.9-2.5 1.3-4.2 3.8-4.2 6.8 0 4.2 3.4 7.7 7.7 7.7.5 0 .9-.1 1.4-.1-2.9.9-5.1 3.6-5.1 6.9 0 4 3.2 7.2 7.2 7.2s7.2-3.2 7.2-7.2-3.2-7.2-7.2-7.2c-.4 0-.9.1-1.3.1 3.1-1 5.4-3.9 5.4-7.3 0-.2 0-.4-.1-.5 1.2 1.3 2.8 2.2 4.5 2.7-1.3 1.5-2 3.4-2 5.5 0 4.7 3.8 8.5 8.5 8.5h.2c-1 1.3-1.5 3-1.5 4.7 0 4.5 3.6 8.1 8.1 8.1.8 0 1.6-.1 2.4-.3-.8 1.2-1.3 2.7-1.3 4.3 0 4.3 3.4 7.7 7.7 7.7 1.8 0 3.5-.7 4.8-1.7-1.1 1.3-1.8 2.9-1.8 4.7 0 4 3.3 7.3 7.3 7.3s7.3-3.3 7.3-7.3c0-2-.8-3.7-2-5 1 0 1.9-.2 2.8-.5v.1c0 3.5 2 6.5 4.9 7.9-.4-.1-.9-.1-1.3-.1-3.8 0-6.9 3.1-6.9 6.9s3.1 6.9 6.9 6.9 6.9-3.1 6.9-6.9c0-2.6-1.5-4.9-3.6-6 .7.2 1.4.3 2.1.3 1.7 0 3.3-.5 4.7-1.4.4 4.4 4 7.8 8.5 7.8 2.4 0 4.6-1 6.1-2.6.6 3.9 4 6.8 8 6.8 3.1 0 5.8-1.7 7.1-4.3.7 3.5 3.8 6.2 7.5 6.2 4 0 7.2-3 7.6-6.9.3 3.8 3.4 6.8 7.2 6.8 4 0 7.3-3.3 7.3-7.3s-3.2-7.2-7.1-7.3c.7-.7 1.2-1.5 1.7-2.3 1.6 1.7 3.9 2.7 6.4 2.7.9 0 1.9-.1 2.7-.4-1.8 1.2-3 3.3-3 5.7 0 3.8 3.1 6.9 6.9 6.9s6.9-3.1 6.9-6.9-3.1-6.9-6.9-6.9c-.7 0-1.4.1-2 .3 2-1.2 3.5-3.2 4.1-5.6 1.5 1.3 3.4 2 5.5 2 4.7 0 8.5-3.8 8.5-8.5v-.2c1.3 1 3 1.5 4.7 1.5 4.5 0 8.1-3.6 8.1-8.1 0-.8-.1-1.6-.3-2.4 1.2.8 2.7 1.3 4.3 1.3 4.3 0 7.7-3.4 7.7-7.7 0-1.8-.7-3.5-1.7-4.8 1.3 1.1 2.9 1.8 4.7 1.8 4 0 7.3-3.3 7.3-7.3s-3.3-7.3-7.3-7.3c-2 0-3.7.8-5 2 0-1-.2-1.9-.5-2.8h.1c3.5 0 6.5-2 7.9-4.9-.1.4-.1.9-.1 1.3 0 3.8 3.1 6.9 6.9 6.9s6.9-3.1 6.9-6.9-3.1-6.9-6.9-6.9c-2.6 0-4.9 1.5-6 3.6.2-.7.3-1.4.3-2.1 0-1.7-.5-3.3-1.4-4.7 4.4-.4 7.8-4 7.8-8.5 0-2.4-1-4.6-2.6-6.1 3.9-.6 6.8-4 6.8-8 0-3.1-1.7-5.8-4.3-7.1 3.5-.7 6.2-3.8 6.2-7.5 0-4-3-7.2-6.9-7.6 3.8-.3 6.8-3.4 6.8-7.2 0-4-3.3-7.3-7.3-7.3s-7.3 3.3-7.3 7.3c0 3.8 2.8 6.8 6.5 7.2-4 .3-7.2 3.6-7.2 7.6 0 2.9 1.6 5.4 4 6.7-3.8.7-6.7 4-6.7 8 0 2.2.9 4.2 2.4 5.7-4.2.6-7.4 4.1-7.4 8.4 0 1.6.4 3 1.2 4.3-4.7.3-8.4 4.1-8.4 8.9 0 .9.1 1.8.4 2.6h-.4c-5.1 0-9.3 4.2-9.3 9.3v.7c-.5-.1-1-.1-1.5-.1-4.9 0-8.9 3.6-9.6 8.3-.8-.2-1.7-.4-2.7-.4-4.1 0-7.6 2.4-9.2 5.8-2-1.6-4.6-2.3-7.3-1.8-3 .6-5.3 2.5-6.5 5.1-1.9-2.1-4.8-3.2-7.8-2.8-2.9.4-5.3 2.2-6.6 4.6-1.6-2-4.1-3.3-6.9-3.3-2.6 0-4.9 1.1-6.6 2.8-1-2.3-3-4.1-5.6-4.9-2.7-.8-5.5-.3-7.7 1.3-.6-2.6-2.3-4.9-4.8-6.1s-5.2-1.1-7.5-.1c-.1-2.5-1.2-5-3.4-6.7-2.1-1.6-4.6-2.2-7-1.8.6-2.5.1-5.2-1.5-7.4-1.7-2.3-4.4-3.5-7-3.6 1-2.4 1-5.2-.3-7.7-1.2-2.3-3.2-3.8-5.5-4.4 1.4-1.9 2.1-4.3 1.7-6.9-.4-2.8-2.1-5-4.4-6.3 2.2-1.7 3.5-4.3 3.5-7.2 0-2.6-1.2-5-3.1-6.6 2.2-1.1 4-3.2 4.7-5.8s.1-5.2-1.4-7.3c2.3-.5 4.4-2 5.7-4.2 1.4-2.4 1.5-5.1.7-7.5 2.6.1 5.2-.9 7.1-3s2.6-4.7 2.2-7.3c2.4.6 5 .2 7.2-1.3 2.3-1.6 3.6-4 3.8-6.5 2.3 1.2 5.1 1.4 7.6.3 2.4-1 4.1-2.9 4.9-5.2 1.8 1.6 4.3 2.5 6.9 2.3 2.9-.3 5.3-1.9 6.7-4.1 1.5 2.1 3.9 3.6 6.6 3.8s5.1-.8 6.9-2.5c.9 2.3 2.9 4.3 5.5 5.2 2.7.9 5.5.4 7.7-1 .5 2.5 2 4.9 4.5 6.2 2 1.1 4.3 1.3 6.4.8.2.3.5.7.8 1 .1 1.9.9 3.8 2.2 5.3l.2.2c4.5 4.8 15.1 16.3 13.1 31.8-.5 3.9 1.7 5.8 4.4 2.8 16.8-18.1 14.2-40.3 13.8-42.9-.1-1.7-.5-3.3-1.1-4.8.2-.9.3-1.9.3-2.9 0-4.7-2.2-8.8-5.7-11.4.2-.8.3-1.7.3-2.6 0-5.8-3.6-10.7-8.6-12.8-.1-6.5-4.9-11.8-11.1-12.7-1.1-5.8-6.2-10.3-12.3-10.3h-.7c-1.5-4.8-6-8.2-11.3-8.2-1 0-2 .1-3 .4-1.8-3.9-5.7-6.6-10.2-6.6-1.8 0-3.4.4-4.9 1.1-1.8-3.1-5.2-5.2-9.2-5.2-2.5 0-4.8.9-6.6 2.3-1.8-2.5-4.7-4.1-8-4.1-3.1 0-5.9 1.5-7.7 3.7-1.7-2.1-4.2-3.4-7.1-3.4-3.7 0-6.9 2.2-8.3 5.4-1.5-1.8-3.8-3-6.4-3-4.3 0-7.9 3.3-8.3 7.5-1.4-1.8-3.6-3-6.1-3-4.2 0-7.6 3.4-7.6 7.6-.2 3.9 3.2 7.3 7.4 7.3z"/><circle cx="135.1" cy="346.1" r=".6"/><circle cx="128.2" cy="333" r="1.2"/><circle cx="122.7" cy="319.2" r="1.8"/><circle cx="118.6" cy="304.8" r="2.4"/><circle cx="116.2" cy="290.2" r="3"/><circle cx="115.2" cy="275.3" r="3.5"/><circle cx="115.9" cy="260.5" r="4.1"/><circle cx="118.1" cy="245.8" r="4.7"/><circle cx="122.2" cy="231.5" r="5.3"/><circle cx="128.1" cy="217.9" r="5.9"/><circle cx="135.8" cy="205.1" r="6.5"/><circle cx="145" cy="193.5" r="7.1"/></g></svg>