<svg height="55" viewBox="0 0 81 55" width="81" xmlns="http://www.w3.org/2000/svg"><g fill="none" fill-rule="evenodd"><g stroke-width="2" transform="translate(1 5)"><path d="m48.0889569 44.9387755h-48.0889569v-44.9387755h46.3078844" stroke="#3e00ff"/><path d="m41.590227 0h37.3098814v44.9763497h-37.6876807" stroke="#9573ff"/><path d="m46.0928468 6.97001911h-33.8363398c0 2.86917111-2.39169497 5.19463689-5.34257998 5.19463689v20.8547355c3.56171998 0 5.34257998 2.2492778 5.34257998 5.1184489h33.8363398" stroke="#3e00ff"/><g stroke="#9573ff"><path d="m41.3035773 6.97001911h25.0791599c0 3.44847909 2.3870974 5.27444869 5.3323098 5.27444869v10.2437071"/><path d="m48.5725624 14.863846h10.3454371c0 3.5548732 2.3156537 5.4371785 5.1727186 5.4371785v25.329635" transform="matrix(0 1 -1 0 86.578893 -26.084387)"/></g></g><g fill-rule="nonzero"><path d="m39 0h4v55h-4z" fill="#fff"/><ellipse cx="40" cy="28" fill="#dfd4ff" rx="13" ry="12"/><circle cx="61.5" cy="27.5" fill="#a2f8d3" r="2.5"/><circle cx="17.5" cy="27.5" fill="#a2f8d3" r="2.5"/></g><g transform="translate(27 15)"><path d="m9.11317707 8.01648255c.00120908-.00078663.00241816-.00196657.00362724-.0027532.35869291-.25722712.46630078-.70835788.20473708-1.05998029l-3.26531459-4.38623384c-.26156371-.35044246-.76453984-.42910519-1.12605394-.17384463-.35990199.25565387-.44010411.74729594-.17813738 1.09931165l3.2685388 4.3905603c.26156371.35122909.73350686.39016714 1.09260279.13294001" fill="#fff"/><path d="m5.87603536 11.5777832c.42598897.1307847.83414396-.1027868.97316795-.5051128.00040532-.0015342.00081064-.0030683.00162127-.0042189.13983463-.4027096-.04499027-.8180757-.47097924-.9488604l-5.31857968-1.63538439c-.42639429-.1304012-.88359272.09013023-1.02140076.49245626-.13821336.40309309.09443904.83571822.520428.96650295z" fill="#fff"/><g transform="translate(19.067807 8.446701)"><path d="m.04197752.03143725h6.83007487v3.22309116h-6.83007487z"/><path d="m1.05276471 3.2174592 5.26442564-1.66329895c.42187658-.13307952.65228301-.57329567.51540393-.9834616-.13647768-.4093854-.58845963-.63378636-1.01154042-.5010971l-5.26723548 1.66407947c-.42187658.13307953-.60491723.55612412-.46603112.96550953.0004014.00117078.00080281.00273183.00120421.00429288.13768189.40938541.54189666.6470553.96377324.51397577" fill="#fff"/></g><path d="m17.8085888 7.88324961 3.2687127-4.39061662c.2619484-.35162691.1821549-.8436686-.1781249-1.09932576-.3610857-.25447719-.8644296-.17660009-1.125975.17424019l-3.2654888 4.38629011c-.2611424.35123359-.153945.80276346.2047227 1.05999388.001209.00039332.002418.00157328.00403.00235992.3586678.25762374.8305779.21868519 1.0921233-.13294172" fill="#fff"/><path d="m13.793733 6.11290831v-5.3388775c0-.42765202-.3635054-.77403081-.811396-.77403081-.4478907 0-.8113961.34637879-.8113961.77403081v5.3388775c0 .42765202.3622883.75003585.810179.75003585h.0020285c.4482963 0 .8105846-.32238383.8105846-.75003585" fill="#fff"/><g transform="translate(19.067807 14.253807)"><path d="m.0417884.03587765h6.83026399v3.25233319h-6.83026399z"/><path d="m1.05276471.07328385c-.42187658-.13428934-.82609135.10554119-.96377324.51864828-.0004014.00157524-.00080281.00315048-.00160562.00472572-.1384847.41310709.04455595.83960374.46643253.97389308l5.26723548 1.67881365c.42308079.13468315.87506274-.09215163 1.01154042-.50565253.13687908-.4135009-.09352735-.85771901-.51540393-.99240216z" fill="#fff"/></g><g fill="#fff"><path d="m16.7162349 17.9836428c-.0012089.0007867-.0024179.0019666-.0036269.0027532-.3586632.2572291-.4662622.7083633-.2047201 1.0599883l3.2654473 4.3858737c.261542.3512317.7648795.4291084 1.1259607.1738459.3598722-.2552624.4400677-.7473015.1781226-1.0989266l-3.2686712-4.3905935c-.2615421-.351625-.7334462-.39017-1.0925124-.132941"/><path d="m5.87603536 14.4222504-5.31574246 1.6342461c-.42598896.1311693-.65864136.5637977-.520428.9665103.13780804.4027126.59500647.6236292 1.02140076.4924599l5.31857968-1.6350131c.42598897-.1311693.61081387-.5465385.47097924-.9488676-.00081063-.0015341-.00121595-.0030683-.00162127-.0042189-.13902399-.4027126-.54717898-.6359024-.97316795-.5051167"/><path d="m8.02060844 18.1167388-3.26846157 4.3904467c-.26196055.35122-.18216333.843636.17813317 1.0988899.36150555.2556473.86487281.1769866 1.12602733-.1742334l3.26523744-4.3857271c.26155752-.35122.15395219-.8027324-.20473225-1.0599529-.00120904-.0003933-.00241809-.0015732-.00362714-.0023598-.35908746-.2576137-.83101945-.2186767-1.09257698.1329366"/><path d="m12.1709409 19.8870494v5.3389634c0 .427241.3635054.7739872.8113961.7739872.4478906 0 .811396-.3467462.811396-.7739872v-5.3389634c0-.4272409-.3622883-.7499936-.8105846-.7499936h-.0020285c-.4478907 0-.810179.3227527-.810179.7499936"/></g></g><g fill-rule="nonzero" stroke-width="2" transform="translate(35 18)"><path d="m1.40091365 9.23190678-.9062826-.51579098.00001763.0000699-.98923349 1.7381746 1.9662912 1.1190597.98925806-1.73820843-1.06005381-.60329998zm-.90626497-.51572108.35298469 1.3996155.55327727-.88388961-.90624143-.51576197zm5.50529864-6.83147809.84762471-1.35412523-1.69526187.0000078zm4.59912758 7.34719889.5532966.8839025.3530024-1.39969601zm-4.59905798 2.6174189-.49462193.2814996.9892459-.0000036z" stroke="#9c7cff"/><path d="m3.66774166 14.1531982 2.33071296 3.0504077 2.33264411-3.051123-2.33302276 1.2794052zm2.33071296 3.0504077.81015144 1.0603159v.2042289l-.48295769.3690116-.44180723.1628377-.77131268-.5896839v-.0479095z" stroke="#9472ff"/></g></g></svg>