<?xml version="1.0" encoding="UTF-8" standalone="no"?><!DOCTYPE svg PUBLIC "-//W3C//DTD SVG 1.1//EN" "http://www.w3.org/Graphics/SVG/1.1/DTD/svg11.dtd"><svg width="100%" height="100%" viewBox="0 0 158 224" version="1.1" xmlns="http://www.w3.org/2000/svg" xmlns:xlink="http://www.w3.org/1999/xlink" xml:space="preserve" xmlns:serif="http://www.serif.com/" style="fill-rule:evenodd;clip-rule:evenodd;stroke-linejoin:round;stroke-miterlimit:1.41421;"><g><path d="M114.569,107.903l13.954,27.492l-10.588,44.961l-25.216,-20.601l4.419,-32.979l17.431,-18.873Z" style="fill:#fff;fill-rule:nonzero;"/><path d="M77.318,98.691c-2.902,0 -5.256,-2.354 -5.256,-5.257l0,-41.426c0,-2.902 2.354,-5.255 5.256,-5.255c2.902,0 5.256,2.353 5.256,5.255l0,41.426c0,2.903 -2.354,5.257 -5.256,5.257" style="fill:#15003e;fill-rule:nonzero;"/><path d="M85.75,98.691l-16.246,0c-2.902,0 -5.256,-2.354 -5.256,-5.257c0,-2.902 2.354,-5.256 5.256,-5.256l16.246,0c2.902,0 5.256,2.354 5.256,5.256c0,2.903 -2.354,5.257 -5.256,5.257" style="fill:#15003e;fill-rule:nonzero;"/><path d="M114.569,107.903l17.271,-16.278c-13.216,-13.216 -31.474,-21.391 -51.641,-21.391c-40.334,0 -73.031,32.697 -73.031,73.031c0,40.334 32.697,73.032 73.031,73.032c15.034,0 28.256,5.488 39.87,-2.299l14.454,2l-0.413,-23.466l-41.391,-32.777l8.899,-41.911l12.951,-9.941" style="fill:#fff;fill-rule:nonzero;"/><path d="M80.199,223.463c-44.222,0 -80.199,-35.977 -80.199,-80.197c0,-44.222 35.977,-80.199 80.199,-80.199c21.422,0 41.562,8.342 56.709,23.49l5.22,5.219l-22.643,21.342l-9.832,-10.431l11.602,-10.935c-11.623,-9.301 -25.952,-14.351 -41.056,-14.351c-36.318,0 -65.864,29.546 -65.864,65.865c0,36.316 29.546,65.863 65.864,65.863" style="fill:#15003e;fill-rule:nonzero;"/><path d="M120.454,182.267l-10.295,-9.975c7.58,-7.823 11.755,-18.131 11.755,-29.026c0,-11.373 -4.494,-22.001 -12.653,-29.926l-5.37,-5.216l5.759,-5.434l4.906,5.198l4.692,-4.83c10.963,10.648 17,24.928 17,40.208c0,14.639 -5.609,28.488 -15.794,39.001" style="fill:#0fce7c;fill-rule:nonzero;"/><path d="M63.71,143.265c0,-9.106 7.382,-16.489 16.489,-16.489c9.107,0 16.49,7.383 16.49,16.489c0,9.107 -7.383,16.489 -16.49,16.489c-9.107,0 -16.489,-7.382 -16.489,-16.489" style="fill:#eff4ee;fill-rule:nonzero;"/><path d="M80.199,133.944c-5.141,0 -9.322,4.182 -9.322,9.322c0,5.139 4.181,9.322 9.322,9.322c5.14,0 9.322,-4.183 9.322,-9.322c0,-5.14 -4.182,-9.322 -9.322,-9.322m0,32.978c-13.044,0 -23.657,-10.612 -23.657,-23.656c0,-13.044 10.613,-23.657 23.657,-23.657c13.044,0 23.656,10.613 23.656,23.657c0,13.044 -10.612,23.656 -23.656,23.656" style="fill:#15003e;fill-rule:nonzero;"/><path d="M131.84,91.624l-41.675,38.506" style="fill:#15003e;fill-rule:nonzero;"/><path d="M126.974,86.359l9.73,10.53l-41.674,38.507l-9.73,-10.53l41.674,-38.507Z" style="fill:#15003e;"/><path d="M87.979,157.806l29.956,22.55l16.175,12.176l0,30.932l-32.492,-1.565" style="fill:#fff;fill-rule:nonzero;"/><path d="M141.277,223.464l-62.381,0l0,-14.335l48.047,0l0,-13.021l-43.274,-32.576l8.621,-11.452l48.987,36.875l0,34.509Z" style="fill:#15003e;fill-rule:nonzero;"/><path d="M146.363,55.952l5.745,-5.745l5.745,5.745l-5.745,5.745l-5.745,-5.745Z" style="fill:#25e899;"/><path d="M121.667,28.258l2.747,-2.747l2.747,2.746l-2.747,2.747l-2.747,-2.746Z" style="fill:#25e899;"/><path d="M155.69,4.141c0,-2.287 -1.854,-4.141 -4.141,-4.141c-2.287,0 -4.141,1.854 -4.141,4.141c0,2.287 1.854,4.142 4.141,4.142c2.287,0 4.141,-1.855 4.141,-4.142" style="fill:#25e899;fill-rule:nonzero;"/><path d="M52.438,113.159c-2.902,0 -5.256,-2.354 -5.256,-5.256l0,-55.894c0,-2.903 2.354,-5.256 5.256,-5.256c2.902,0 5.257,2.353 5.257,5.256l0,55.894c0,2.902 -2.355,5.256 -5.257,5.256" style="fill:#15003e;fill-rule:nonzero;"/></g></svg>