<?xml version="1.0" encoding="UTF-8"?>
<svg width="97px" height="92px" viewBox="0 0 97 92" version="1.1" xmlns="http://www.w3.org/2000/svg" xmlns:xlink="http://www.w3.org/1999/xlink">
    <!-- Generator: Sketch 49 (51002) - http://www.bohemiancoding.com/sketch -->
    <title>Metamask Copy 2</title>
    <desc>Created with Sketch.</desc>
    <defs></defs>
    <g id="Metamask-Copy-2" stroke="none" stroke-width="1" fill="none" fill-rule="evenodd" stroke-linecap="round">
        <g id="Page-1" transform="translate(8.000000, 8.000000)" stroke="#FEFEFE">
            <path d="M54.1864931,27.6810012 C51.2483129,24.6194871 46.9052651,23 41.624301,23 L41.580148,23 C35.7907556,23.0105161 31.4048929,24.647092 28.5443149,27.8676628 C25.6061347,31.1736774 24.9946828,35.3038953 25.0000347,38.1866348 C25.0080625,43.8338073 27.1287436,46.2065136 28.5336111,47.7760489 C28.7864873,48.0586705 29.0273217,48.2887112 29.2882257,48.5371553 C31.1560306,50.3249007 33.9497101,52.9973173 33.3717075,61.9123833 L34.7377739,72 L47.1220161,71.9776532 L48.7021577,61.8860929 C48.4867446,59.5133866 48.4372398,53.4245359 52.8083849,48.9196802 C52.8980288,48.835551 57.5488095,44.5817684 57.9809735,37.6148192 C58.1482196,34.8990235 57.2397386,30.8647655 54.1864931,27.6810012 Z" id="Stroke-1" stroke-width="2"></path>
            <path d="M39,16 L39,0" id="Stroke-3" stroke-width="1.5"></path>
            <path d="M22,21 L11,12" id="Stroke-5" stroke-width="1.5"></path>
            <path d="M16,34.931 C15.9759398,34.931 15.954553,34.931 15.9304929,34.93 L0,34" id="Stroke-7" stroke-width="1.5"></path>
            <path d="M56,19 L68,10" id="Stroke-9" stroke-width="1.5"></path>
            <path d="M64,33 L81,32" id="Stroke-11" stroke-width="1.5"></path>
            <path d="M34,67 L48,67" id="Stroke-13" stroke-width="1.5"></path>
            <path d="M33,63 L48,63" id="Stroke-15" stroke-width="1.5"></path>
        </g>
    </g>
</svg>