<svg height="231" width="138" xmlns="http://www.w3.org/2000/svg" xmlns:xlink="http://www.w3.org/1999/xlink"><defs><path id="a" d="m318 545c-1.1 0-2-1.03-2-2.31v-92.38c0-1.28.9-2.31 2-2.31s2 1.03 2 2.31v92.38c0 1.28-.9 2.31-2 2.31"/><clipPath id="b"><path d="m248 365h36v73h-36z"/></clipPath><clipPath id="c"><path d="m309 314h30v61h-30z"/></clipPath><clipPath id="d"><path d="m347 375h36v73h-36z"/></clipPath><clipPath id="e"><path d="m252 448.27h70v32.73h-70z"/></clipPath><clipPath id="f"><path d="m316 448.24h70v33.34h-70z"/></clipPath></defs><g transform="translate(-248 -314)"><g clip-path="url(#b)"><path d="m267.28 438c-.48 0-.93-.27-1.14-.7l-18-37.89a1.25 1.25 0 0 1 0-1.13l18-32.58a1.3 1.3 0 0 1 2.33.07l15.43 32.58c.13.32.13.68 0 1l-15.43 37.89c-.2.45-.65.75-1.15.76zm-16.56-39.15 16.47 34.9 14.12-34.9-14.12-29.6z" fill="#3e00ff"/></g><path d="m265.45 430.95v-61.89c0 1.33.49.27 1.1.27.6 0 1.08 1.06 1.08-.27v61.89c0 3.96-.49 5.03-1.09 5.03s-1.09-1.07-1.09-5.03" fill="#3e00ff"/><path d="m250.18 399.03 17.02 7.54 15.7-7.54-15.7-7.67z" style="stroke:#3e00ff;stroke-linecap:round;stroke-linejoin:round;stroke-miterlimit:50;stroke-width:2.4;fill:none"/><g><g clip-path="url(#c)"><path d="m325.07 375c-.4 0-.78-.22-.96-.58l-15-31.67c-.15-.3-.15-.64 0-.94l15-27.23c.19-.37.56-.59 1-.58.4.01.78.26.95.64l12.85 27.23c.12.26.12.56 0 .83l-12.85 31.66c-.17.38-.54.63-.96.64zm-13.8-32.72 13.73 29.17 11.76-29.17-11.76-24.73z" fill="#3e00ff"/></g><path d="m324 368.8v-51.8c0 1.12.45.23 1 .23s1 .89 1-.23v51.8c0 3.3-.45 4.2-1 4.2s-1-.9-1-4.2" fill="#3e00ff"/><path d="m311 342.56 14.04 6.44 12.96-6.44-12.96-6.56z" style="stroke:#3e00ff;stroke-linecap:round;stroke-linejoin:round;stroke-miterlimit:50;stroke-width:2.4;fill:none"/></g><g><g clip-path="url(#d)"><path d="m366.28 448c-.48 0-.93-.27-1.14-.7l-18-37.89a1.25 1.25 0 0 1 0-1.13l18-32.58a1.3 1.3 0 0 1 2.33.07l15.43 32.58c.13.32.13.68 0 1l-15.43 37.89c-.2.45-.65.75-1.15.76zm-16.56-39.15 16.47 34.9 14.12-34.9-14.12-29.6z" fill="#3e00ff"/></g><path d="m364.45 440.95v-61.89c0 1.33.49.27 1.1.27.6 0 1.08 1.06 1.08-.27v61.89c0 3.96-.49 5.03-1.09 5.03s-1.09-1.07-1.09-5.03" fill="#3e00ff"/><path d="m349.18 409.03 17.02 7.54 15.7-7.54-15.7-7.67z" style="stroke:#3e00ff;stroke-linecap:round;stroke-linejoin:round;stroke-miterlimit:50;stroke-width:2.4;fill:none"/></g><use fill="#fdfdfd" xlink:href="#a"/><path d="m319.8 544.85-47.28-17.31a2.26 2.26 0 0 1 -1.52-2.11v-46.16a2.32 2.32 0 0 1 2.36-2.27c1.3 0 2.37 1.02 2.37 2.27v44.6l45.75 16.75a2.24 2.24 0 0 1 1.36 2.92 2.36 2.36 0 0 1 -2.2 1.46 2.4 2.4 0 0 1 -.84-.15z" fill="#0ecf7b"/><g clip-path="url(#e)"><path d="m254.33 481a2.33 2.33 0 0 1 -1.82-3.8l17.82-22.43c.38-.49.94-.8 1.55-.87l47.51-5.6a2.34 2.34 0 0 1 2.1 3.78l-17.82 22.42c-.38.49-.94.8-1.55.87l-47.51 5.6c-.1.02-.18.03-.28.03zm19.05-22.57-13.7 17.23 40.94-4.83 13.7-17.23z" fill="#0ecf7b"/></g><use fill="#f9006c" xlink:href="#a"/><path d="m322.36 544c-.97 0-1.88-.57-2.22-1.49a2.21 2.21 0 0 1 1.43-2.85l45.7-15.44v-43.98a2.3 2.3 0 0 1 2.37-2.24c1.3 0 2.36 1 2.36 2.24v45.56c0 .94-.63 1.78-1.57 2.1l-47.27 15.97c-.27.09-.53.13-.8.13" fill="#3e00ff"/><g clip-path="url(#f)"><path d="m383.67 481.58-.29-.01-47.52-5.75a2.36 2.36 0 0 1 -1.56-.89l-17.82-23a2.26 2.26 0 0 1 -.17-2.53 2.28 2.28 0 0 1 2.3-1.13l47.52 5.74c.62.08 1.2.4 1.57.89l17.82 22.99c.57.73.64 1.74.17 2.54a2.35 2.35 0 0 1 -2.02 1.15zm-46.26-10.2 41.03 4.96-13.85-17.89-41.04-4.96z" fill="#f9006c"/></g></g></svg>