<svg width="60" height="69" xmlns="http://www.w3.org/2000/svg" xmlns:xlink="http://www.w3.org/1999/xlink"><defs><path id="a" d="M.014.026h.735V2.42H.014z"/><path id="c" d="M.037.026h.736V2.42H.037z"/><path id="e" d="M.06.026h.716V2.42H.06z"/><path id="g" d="M.016.026h.717V2.42H.016z"/><path id="i" d="M.02.026h.735V2.42H.019z"/><path id="k" d="M.042.026h.736V2.42H.042z"/><path id="m" d="M.007.026h.735V2.42H.007z"/><path id="o" d="M.03.026h.736V2.42H.03z"/><path id="q" d="M.053.026H.79V2.42H.053z"/></defs><g fill="none" fill-rule="evenodd"><circle fill="#D6FBEB" cx="31" cy="35" r="27"/><path d="M21.925 6.718c-.327-.35-.834.193-.507.543l6.108 6.548v3.216l-5.122-5.49c-.327-.352-.834.192-.507.542l6.308 6.762c.327.35.834-.193.507-.543l-.519-.556a.39.39 0 0 0 .05-.197v-6.298a.347.347 0 0 0 .119.022h2.772c.462 0 .462-.768 0-.768h-.569l1.788-1.917a.348.348 0 0 0 .119.021h4.778c.463 0 .463-.768 0-.768h-4.2l1.109-1.188c.327-.35-.18-.894-.507-.543l-2.459 2.635a.38.38 0 0 0-.094-.177l-.997-1.068a.392.392 0 0 0 .05-.197V1.253c0-.496-.717-.496-.717 0v5.526l-.344-.368c-.327-.351-.833.192-.506.543l2.007 2.151a.343.343 0 0 0 .165.102l-1.12 1.2a.403.403 0 0 0-.063.092h-1.212a.347.347 0 0 0-.119.021v-2.3c0-.495-.717-.495-.717 0v4.502l-2.935-3.147a.424.424 0 0 0 .02-.126v-3.1h2.89c.462 0 .462-.769 0-.769H26.14V.842c0-.495-.717-.495-.717 0V5.58h-.811v-.844c0-.495-.717-.495-.717 0v4.092l-1.969-2.11z" fill="#15003E"/><path d="M43.618 31.539l-2.695 2.9-.447-.481 1.364-1.468c.326-.35-.179-.892-.504-.542l-6.238 6.709v-3.063c0-.495-.714-.495-.714 0v6.673h-.95v-9.531a3461.36 3461.36 0 0 1 3.214-3.457c.056.09.149.153.28.153h3.139c.46 0 .46-.767 0-.767h-2.848l1.618-1.74c.05.032.11.053.184.053h7.703c.014 0 .026-.003.04-.005l2.119 2.28-3.553 3.82a.406.406 0 0 0-.063.092h-2.152l1.008-1.084c.325-.35-.18-.892-.505-.542zM33.41 46.767c-.231 0-.346.194-.345.386a.436.436 0 0 0-.012.1v13.699l-.732-.787a.424.424 0 0 0 .019-.122V43.032l.024.002h2.02v3.733h-.974zm-2.45 18.09h4.316a.317.317 0 0 0 .27-.139l.664.714h-5.25v-.576zm-.712-5.48v2.373H28.04l2.207-2.373zm-2.891 3.11c.042.018.09.03.145.03h2.746v.805h-3.669l.778-.836zm.68 2.945a.348.348 0 0 0-.12.021.344.344 0 0 0-.119-.022h-3.18l1.39-1.495c.057.09.15.153.281.153h3.959v1.343h-2.212zm6.925-1.343H30.96v-.728h2.995c.102 0 .18-.04.237-.098l.769.826zm-3.34-3.55c.07.075.128.12.2.174l1.749 1.88h-2.61v-2.679c.213.23.449.396.662.625zm1.098-27.016v8.744h-.356c-.009 0-.016.002-.024.003v-8.747h.38zm-6.562 14.164v-2.07c0-.495-.713-.495-.713 0v.536h-1.858l.002-.026v-4.935h1.831a.324.324 0 0 0 .183-.054l1.943 2.09c.197.211.456.098.562-.102v2.312h-.404c-.231 0-.346.193-.345.385a.437.437 0 0 0-.012.1v1.764h-1.189zm-5.683 1.682l-3.933-4.23c-.012-.012-.024-.021-.036-.031l3.64-3.916h2.73v4.935l.002.026h-1.356c-.46 0-.46.767 0 .767h1.23l-2.277 2.449zm34.687-10.682v-2.685l-.002-.024h2.12c.46 0 .46-.768 0-.768h-8.084a.328.328 0 0 0-.183.054l-1.238-1.332h4.56c.46 0 .46-.767 0-.767h-6.082l3.665-3.941c.013.001.025.004.039.004h5.04c.46 0 .46-.767 0-.767h-4.37l1.864-2.005c.326-.35-.178-.892-.504-.542l-2.6 2.796-3.61-3.883h4.844c.46 0 .46-.767 0-.767h-1.897l2.045-2.199h6.129c.46 0 .46-.767 0-.767h-6.372c-.2 0-.312.145-.338.308l-2.196 2.362a.366.366 0 0 0-.102.296h-2.5a.319.319 0 0 0-.26.122c-.309-.12-.656.33-.372.635l1.296 1.394H39.5l.818-.88c.325-.35-.179-.892-.504-.542l-6.382 6.862v-.25c0-.495-.713-.495-.713 0v1.035a.364.364 0 0 0-.019.32h-1.027v-7.357a.378.378 0 0 0 .086-.068l1.317-1.417 1.792 1.928c.326.35.83-.192.505-.542l-.628-.675h4.085c.46 0 .46-.767 0-.767h-4.755c-.014 0-.026.003-.04.004l-.455-.49 4.204-4.52 3.076 3.308c.325.35.83-.192.504-.542l-1.579-1.698h11.027c.46 0 .46-.767 0-.767h-6.416a.422.422 0 0 0 .02-.127v-2.96c.337.36.673.722 1.009 1.083.12.13.264.136.382.077a.339.339 0 0 0 .155.035h6.277c.46 0 .46-.767 0-.767h-1.806l1.381-1.485h3.276c.46 0 .46-.767 0-.767h-3.105c-.127-.12-.321-.156-.476.01l-2.085 2.242h-3.462a.347.347 0 0 0-.118.022l-1.342-1.443a.373.373 0 0 0-.085-.068v-1.016H49.1c.46 0 .46-.767 0-.767h-2.329a.424.424 0 0 0 .02-.129V7.775c0-.495-.713-.495-.713 0v5.318c0 .048.009.09.021.129h-1.682v-1.253c0-.495-.713-.495-.713 0v7.057c0 .047.008.089.02.127H39.4c-.102 0-.18.04-.237.098l-.875-.941 1.554-1.672c.326-.35-.178-.893-.504-.543l-4.812 5.175v-2.212a.378.378 0 0 0 .086-.068l2.663-2.864c.325-.35-.18-.892-.505-.542l-1.103 1.186v-2.403a.307.307 0 0 0 .371-.082l3.1-3.332a.368.368 0 0 0 .103.262l1.427 1.534c.325.35.83-.192.504-.542l-.461-.496 4.075-4.382c.326-.35-.179-.892-.504-.542l-4.075 4.382-.461-.496a.318.318 0 0 0-.245-.112l3.004-3.23c.326-.35-.179-.892-.504-.542l-.936 1.007-3.317-3.566c-.325-.35-.83.192-.504.542l3.316 3.566-4.893 5.262v-1.53c0-.494-.713-.494-.713 0v5.466l-.428.46V17.9c0-.495-.713-.495-.713 0v3.681c0 .142.06.241.142.302l-2.282 2.454v-7.05c0-.496-.713-.496-.713 0v15.749c0 .215.135.336.287.364a.319.319 0 0 0 .26.122h.119v4.367a.345.345 0 0 0-.12-.023h-.857c-.46 0-.46.767 0 .767h.856a.346.346 0 0 0 .12-.022v20.934l-.665-.716V47.252c0-.494-.713-.494-.713 0V58.3a.296.296 0 0 0-.039.034l-.627.675V47.15c0-.495-.713-.495-.713 0v12.477c0 .047.008.089.02.127l-.829.89v-14.44h1.355c.289 0 .396-.3.323-.526a.41.41 0 0 0 .033-.166v-4.909c0-.495-.714-.495-.714 0v4.835h-.236v-5.779h.785c.345 0 .431-.433.257-.648.002-.014.004-.027.004-.042V20.15c0-.495-.713-.495-.713 0v1.324l-4.241-4.561-.006-.005c.014-.202-.1-.415-.342-.415h-5.35v-3.298c0-.495-.713-.495-.713 0v1.46c-.008-.001-.015-.003-.024-.003H13.32V12.25h3.543c.46 0 .46-.767 0-.767h-.88V9.487h1.925c.46 0 .46-.767 0-.767h-.28l4.812-5.175c.325-.35-.18-.892-.505-.542l-2.661 2.862a.396.396 0 0 0-.068-.1l-.95-1.023c-.326-.35-.83.192-.505.542l.95 1.023c.03.032.063.054.095.072L16.8 8.526a.378.378 0 0 0-.099.194h-.718V6.548c0-.495-.713-.495-.713 0v4.935h-1.95v-1.458c0-.494-.713-.494-.713 0v4.628H9.254c-.46 0-.46.767 0 .767h5.888l-1.654 1.78c-.03-.16-.141-.298-.336-.298H4.878c-.46 0-.46.767 0 .767h8.274c.009 0 .016-.002.025-.003-.011.3.352.574.607.3l2.092-2.25a.366.366 0 0 0 .103-.296h2.5c.008 0 .015-.002.023-.003v1.201c-.168.217-.081.643.262.643h5.546a.378.378 0 0 0 .098.195l4.746 5.104v9.993c-.009-.001-.016-.003-.025-.003H27.96c.001-.009.003-.017.003-.026v-2.148c0-.494-.713-.494-.713 0v2.148l.002.026h-.597c-.46 0-.46.767 0 .767h2.473c.009 0 .016-.002.025-.003v5.578h-.333v-.434c0-.495-.713-.495-.713 0v4.307a.41.41 0 0 0-.057-.079l-3.32-3.57V32.29a.337.337 0 0 0 .182-.106l2.567-2.761c.326-.35-.179-.893-.504-.542l-2.244 2.413v-1.426c0-.495-.714-.495-.714 0v2.582h-1a.366.366 0 0 0-.103-.297l-4.598-4.944 4.109-4.418 1.887 2.03c.326.35.83-.193.504-.543l-1.887-2.03c.63-.676 1.258-1.353 1.887-2.03.326-.35-.178-.892-.504-.542l-3.84 4.13-.031-.04-1.902-2.045c-.326-.35-.83.192-.505.542l1.902 2.045c.013.013.025.023.038.034l-2.162 2.324-3.633-3.907 2.648-2.848c.326-.35-.179-.893-.504-.543l-.106.114a.343.343 0 0 0-.117-.021H7.446c-.46 0-.46.767 0 .767h8.079l-1.85 1.989-.84-.904c-.326-.35-.83.192-.504.542l2.457 2.642-1.898 2.042a.342.342 0 0 0-.118-.022h-2.23L8.27 24.072c-.325-.35-.83.192-.504.542l.247.266H4.308c-.46 0-.46.767 0 .767h3.994a.318.318 0 0 0 .28-.153l.952 1.022H4.118c-.46 0-.46.767 0 .767h8.078l-1.198 1.289c-.325.35.18.892.504.542l3.79-4.075 6.89 7.41h-.85c-.46 0-.46.767 0 .767h2.686v5.134l-6.048-6.504c-.325-.35-.83.192-.504.542l1.103 1.186h-4.873c0-.01.003-.018.003-.027V30.58c0-.495-.714-.495-.714 0v.946H8.278V29.25c0-.439-.56-.487-.687-.148a.34.34 0 0 0-.145-.031H.694c-.46 0-.46.767 0 .767h6.752a.345.345 0 0 0 .119-.022v1.71H6.4c-.46 0-.46.767 0 .767h6.585v1.253c0 .01.002.018.003.027h-2.117c-.46 0-.46.767 0 .767H16l-1.589 1.709a.346.346 0 0 0-.117-.022H6.81a.398.398 0 0 0-.064-.094l-3.143-3.38c.013-.201-.1-.414-.343-.414H.408c-.46 0-.46.767 0 .767h2.515l2.903 3.121H3.263c-.46 0-.46.767 0 .767h10.456l-2.378 2.557a.317.317 0 0 0-.281-.155H4.118c-.46 0-.46.767 0 .767h6.654l-.629.677c-.325.35.179.892.505.542l6.181-6.647a.378.378 0 0 0 .099-.195h1.836a.324.324 0 0 0 .314-.22l2.724 2.93h-2.087c-.46 0-.46.767 0 .767h2.473c.102 0 .18-.039.237-.098l2.514 2.704h-9.505c-.46 0-.46.768 0 .768h3.704l-1.97 2.118a.346.346 0 0 0-.117-.022H9.283a.399.399 0 0 0-.063-.092l-1.617-1.739c-.155-.166-.349-.13-.476-.01H.504c-.46 0-.46.767 0 .767H7.16a.346.346 0 0 0 .117-.021l1.02 1.095H2.975c-.46 0-.46.767 0 .767h8.487v2.71H6.4c-.46 0-.46.768 0 .768h5.136c.014 0 .026-.003.039-.004.2.187.603.094.603-.277v-3.197h4.299l-1.77 1.902c-.325.35.18.893.505.543l.797-.857c.01.013.018.026.03.04l3.86 4.151h-5.89c-.46 0-.46.767 0 .767h6.276c.2 0 .312-.144.339-.307l3.052-3.282a.405.405 0 0 0 .063-.092h1.707v.767h-1.07c-.46 0-.46.767 0 .767h2.972v12.503c0 .142.06.241.143.302l-3.938 4.234c-.274.294.04.723.34.643a.324.324 0 0 0 .197.062h3.71a.348.348 0 0 0 .118-.021.349.349 0 0 0 .12.022h8.737c.246 0 .36-.22.342-.425a.375.375 0 0 0-.03-.486l-3.41-3.667a.37.37 0 0 0 .09-.255V47.534h3.281v2.173c0 .495.714.495.714 0v-.741h8.012c.46 0 .46-.767 0-.767H37.76v-.665h4.398c.46 0 .46-.767 0-.767h-7.061v-1.196L38.51 41.9l1.327-1.427c.013.002.025.005.038.005h1.754a.426.426 0 0 0-.02.126v4.091c0 .495.713.495.713 0v-4.09a.426.426 0 0 0-.02-.127h1.538a.406.406 0 0 0 .063.092l3.328 3.58c.326.35.83-.193.505-.543l-1.008-1.084h2.686a.378.378 0 0 0 .098.193l.733.789a.34.34 0 0 0-.163.1c-.982 1.058-1.965 2.114-2.948 3.171a.37.37 0 0 0-.066.424c-.08.226.025.538.318.538h5.136c.46 0 .46-.767 0-.767h-4.56l2.625-2.823a.38.38 0 0 0 .094-.175L51.7 45.07c.155.166.349.13.476.01h5.863c.46 0 .46-.767 0-.767h-5.992c-.013 0-.025.002-.038.004l-1.667-1.793h2.373c.46 0 .46-.767 0-.767h-6.467a.327.327 0 0 0-.183.053l-1.238-1.331h3.894c.46 0 .46-.767 0-.767h-8.174l1.388-1.493c.326-.35-.178-.893-.504-.543l-6.333 6.811v-4.745l4.874-5.24c.454.488.91.977 1.364 1.467.325.35.83-.193.504-.543l-.413-.445.978-1.052c.013.001.025.004.04.004h4.495c-.01.1.016.205.102.297l4.184 4.5c.326.35.83-.192.505-.543l-2.054-2.208h4.774l-.002.024v3.17c0 .37.395.463.597.282h4.514c.46 0 .46-.767 0-.767h-4.398z" fill="#15003E"/><g transform="translate(23.365 65.392)"><mask id="b" fill="#fff"><use xlink:href="#a"/></mask><path d="M.75 2.03V.415c0-.52-.736-.52-.736 0V2.03c0 .52.735.52.735 0" fill="#24E899" mask="url(#b)"/></g><g transform="translate(24.887 65.392)"><mask id="d" fill="#fff"><use xlink:href="#c"/></mask><path d="M.773 2.03V.415c0-.52-.736-.52-.736 0V2.03c0 .52.736.52.736 0" fill="#24E899" mask="url(#d)"/></g><g transform="translate(26.675 65.392)"><mask id="f" fill="#fff"><use xlink:href="#e"/></mask><path d="M.776 2.03V.415a.36.36 0 0 0-.717 0V2.03c0 .52.717.52.717 0" fill="#24E899" mask="url(#f)"/></g><g transform="translate(28.263 65.392)"><mask id="h" fill="#fff"><use xlink:href="#g"/></mask><path d="M.733 2.03V.415a.36.36 0 0 0-.717 0V2.03c0 .52.717.52.717 0" fill="#24E899" mask="url(#h)"/></g><g transform="translate(29.852 65.392)"><mask id="j" fill="#fff"><use xlink:href="#i"/></mask><path d="M.755 2.03V.415c0-.52-.736-.52-.736 0V2.03c0 .52.736.52.736 0" fill="#24E899" mask="url(#j)"/></g><g transform="translate(31.375 65.392)"><mask id="l" fill="#fff"><use xlink:href="#k"/></mask><path d="M.778 2.03V.415c0-.52-.736-.52-.736 0V2.03c0 .52.736.52.736 0" fill="#24E899" mask="url(#l)"/></g><g transform="translate(33.03 65.392)"><mask id="n" fill="#fff"><use xlink:href="#m"/></mask><path d="M.742 2.03V.415c0-.52-.735-.52-.735 0V2.03c0 .52.735.52.735 0" fill="#24E899" mask="url(#n)"/></g><g transform="translate(34.552 65.392)"><mask id="p" fill="#fff"><use xlink:href="#o"/></mask><path d="M.766 2.03V.415c0-.52-.736-.52-.736 0V2.03c0 .52.736.52.736 0" fill="#24E899" mask="url(#p)"/></g><g transform="translate(36.14 65.392)"><mask id="r" fill="#fff"><use xlink:href="#q"/></mask><path d="M.789 2.03V.415c0-.52-.736-.52-.736 0V2.03c0 .52.736.52.736 0" fill="#24E899" mask="url(#r)"/></g><path d="M8.206 19.994c0 .538-.4.975-.894.975s-.894-.437-.894-.975.4-.974.894-.974.894.436.894.974m5.759 7.124c0 .538-.4.974-.894.974-.493 0-.894-.436-.894-.974s.4-.975.894-.975.894.437.894.975m3.045-7.124c0 .538-.4.975-.894.975-.493 0-.893-.437-.893-.975s.4-.974.893-.974c.494 0 .894.436.894.974m19.13-6.116c0 .538-.4.975-.893.975-.494 0-.894-.437-.894-.975s.4-.974.894-.974.894.436.894.974m-6.223 8.065c0 .538-.4.975-.893.975-.494 0-.894-.437-.894-.975s.4-.974.894-.974c.493 0 .893.436.893.974M10.125 14.82c0 .537-.4.974-.893.974-.494 0-.894-.437-.894-.975s.4-.974.894-.974c.493 0 .893.436.893.974M23.166 3.058c0 .538-.4.974-.894.974-.493 0-.893-.436-.893-.974s.4-.975.893-.975c.494 0 .894.437.894.975m-.463 3.763c0 .539-.4.975-.894.975-.493 0-.894-.436-.894-.975 0-.538.4-.974.894-.974s.894.436.894.974M19.592 12.4c0 .538-.4.974-.894.974s-.894-.436-.894-.974c0-.539.4-.975.894-.975.493 0 .894.436.894.975m18.733-4.033c0 .538-.4.975-.893.975-.494 0-.894-.437-.894-.975s.4-.974.894-.974c.493 0 .893.436.893.974m3.707 13.307c0 .538-.4.975-.893.975-.494 0-.894-.437-.894-.975s.4-.974.894-.974c.493 0 .893.436.893.974m-1.059 7.191c0 .539-.4.975-.894.975-.493 0-.893-.436-.893-.975 0-.538.4-.974.893-.974.494 0 .894.436.894.974m-15.821 0c0 .539-.4.975-.894.975-.493 0-.893-.436-.893-.975 0-.538.4-.974.893-.974.494 0 .894.436.894.974m.198-4.167c0 .539-.4.975-.893.975-.494 0-.894-.436-.894-.975 0-.538.4-.974.894-.974s.894.436.894.974m-8.738 15.996c0 .538-.4.974-.894.974s-.894-.436-.894-.974.4-.975.894-.975.894.437.894.975m-9.268 6.25c0 .538-.4.974-.894.974-.493 0-.893-.436-.893-.974s.4-.975.893-.975c.494 0 .894.437.894.975m7.48 3.091c0 .539-.4.975-.893.975-.494 0-.894-.436-.894-.975 0-.538.4-.974.894-.974.493 0 .893.436.893.974M30.646.974c0 .539-.4.975-.893.975-.494 0-.894-.436-.894-.975 0-.538.4-.974.894-.974.493 0 .893.436.893.974M8.206 41.769c0 .538-.4.975-.894.975s-.894-.437-.894-.975.4-.974.894-.974.894.436.894.974m.728-12.433c0 .538-.4.974-.894.974-.493 0-.893-.436-.893-.974s.4-.975.893-.975c.494 0 .894.437.894.975m-3.111-12.03c0 .538-.4.974-.894.974s-.894-.436-.894-.974.4-.975.894-.975c.493 0 .894.437.894.975M38.325 4.335c0 .538-.4.974-.893.974-.494 0-.894-.436-.894-.974s.4-.975.894-.975c.493 0 .893.437.893.975M16.613 6.351c0 .538-.4.975-.894.975s-.894-.437-.894-.975.4-.974.894-.974.894.436.894.974" fill="#24E899"/></g></svg>