<svg width="79" height="62" xmlns="http://www.w3.org/2000/svg" xmlns:xlink="http://www.w3.org/1999/xlink"><defs><path d="M5 4.5v16l-3.575 2.824L.5 27.887v5.578L13.447 36l6.935-8.113 2.118-8.62s-.998-6.59-1.193-9.126c-.194-2.535-1.85-7.099-3.699-8.113C15.758 1.014 11.135 0 9.748 0H5.586L5 4.5z" id="a"/><path id="c" d="M0 0h19v32H0z"/><path d="M5 4v17l-3.617 2.324L.5 27.887v5.578L12.858 36l6.62-8.113 2.022-8.62s-.953-6.59-1.139-9.126c-.185-2.535-1.765-7.099-3.53-8.113C15.065 1.014 10.65 0 9.327 0H5.355L5 4z" id="e"/><path id="g" d="M0 0h19v32H0z"/></defs><g fill="none" fill-rule="evenodd"><circle fill="#D6FBEB" cx="40" cy="35" r="27"/><path d="M26.75 5.533l5.52 6.106a1.367 1.367 0 0 1-.102 1.934 1.378 1.378 0 0 1-1.942-.101l-5.52-6.106a1.367 1.367 0 0 1 .102-1.935 1.378 1.378 0 0 1 1.942.102zm27.476 0l-5.52 6.106a1.367 1.367 0 0 0 .102 1.934 1.378 1.378 0 0 0 1.942-.101l5.52-6.106a1.367 1.367 0 0 0-.102-1.935 1.378 1.378 0 0 0-1.942.102zM38.79 2v7a1.5 1.5 0 0 0 3 0V2a1.5 1.5 0 1 0-3 0z" fill="#15003E"/><g transform="translate(15.5 17)"><mask id="b" fill="#fff"><use xlink:href="#a"/></mask><rect stroke="#15003E" stroke-width="2" mask="url(#b)" x="2.5" y="11" width="17" height="7" rx="3.5"/><rect stroke="#15003E" stroke-width="2" mask="url(#b)" x="2.5" y="4" width="15" height="7" rx="3.5"/><rect stroke="#15003E" stroke-width="2" mask="url(#b)" x="2.5" y="18" width="15" height="7" rx="3.5"/><rect stroke="#15003E" stroke-width="2" mask="url(#b)" x="2.5" y="25" width="13" height="7" rx="3.5"/></g><path d="M14 35.5a3.5 3.5 0 0 0 7 0v-12a3.5 3.5 0 0 0-7 0v12z" stroke="#15003E" stroke-width="2"/><g transform="translate(0 19)"><mask id="d" fill="#fff"><use xlink:href="#c"/></mask><ellipse stroke="#15003E" stroke-width="2" mask="url(#d)" cx="16.5" cy="15" rx="11.5" ry="14"/></g><g transform="matrix(-1 0 0 1 63.5 17)"><mask id="f" fill="#fff"><use xlink:href="#e"/></mask><rect stroke="#170047" stroke-width="2" mask="url(#f)" x="2.5" y="11" width="16" height="7" rx="3.5"/><rect stroke="#170047" stroke-width="2" mask="url(#f)" x="2.5" y="4" width="14" height="7" rx="3.5"/><rect stroke="#170047" stroke-width="2" mask="url(#f)" x="2.5" y="18" width="15" height="7" rx="3.5"/><rect stroke="#170047" stroke-width="2" mask="url(#f)" x="2.5" y="25" width="12" height="7" rx="3.5"/></g><path d="M65 35.5a3.5 3.5 0 0 1-7 0v-12a3.5 3.5 0 0 1 7 0v12z" stroke="#170047" stroke-width="2"/><g transform="matrix(-1 0 0 1 79 19)"><mask id="h" fill="#fff"><use xlink:href="#g"/></mask><ellipse stroke="#15003E" stroke-width="2" mask="url(#h)" cx="16.5" cy="15" rx="11.5" ry="14"/></g></g></svg>