<svg width="400" height="200" viewBox="0 0 400 200" fill="none" xmlns="http://www.w3.org/2000/svg">
<rect width="400" height="200" fill="#1A103D"/>
<path fill-rule="evenodd" clip-rule="evenodd" d="M155.26 93.7587C155.26 88.8331 151.484 86.2061 147.215 86.2061H136.543V110.177H141.961V101.968H146.558C152.141 101.968 155.26 98.1917 155.26 93.7587ZM149.514 94.0871C149.514 96.2215 148.2 97.5349 146.394 97.5349H141.961V90.8033H146.394C148.2 90.6391 149.514 91.7885 149.514 94.0871ZM169.38 96.5499V91.2959H167.738C165.932 91.2959 163.962 92.1169 163.141 93.7587V91.2959H158.051V110.177H163.141V100.162C163.141 97.5349 164.619 96.5499 167.246 96.5499C168.067 96.3857 169.38 96.5499 169.38 96.5499ZM180.052 110.342C185.471 110.342 189.411 107.058 189.411 100.655C189.411 94.2513 185.471 90.9675 180.052 90.9675C174.634 90.9675 170.694 94.2513 170.694 100.655C170.694 107.058 174.634 110.342 180.052 110.342ZM180.052 95.2363C182.351 95.2363 183.993 96.7141 183.993 100.655C183.993 104.595 182.351 106.073 180.052 106.073C177.754 106.073 176.112 104.595 176.112 100.655C176.112 96.7141 177.754 95.2363 180.052 95.2363ZM202.381 110.013V105.58C202.381 105.58 201.233 105.744 200.083 105.744C198.934 105.744 198.606 105.416 198.606 104.267V95.4005H202.545V91.1317H198.606V86.0419H193.352V91.1317H190.56V95.4005H193.352V104.595C193.352 108.207 193.844 110.342 198.277 110.342C200.739 110.342 202.381 110.013 202.381 110.013ZM213.383 110.342C218.801 110.342 222.741 107.058 222.741 100.655C222.741 94.2513 218.801 90.9675 213.383 90.9675C207.963 90.9675 204.023 94.2513 204.023 100.655C204.023 107.058 207.963 110.342 213.383 110.342ZM213.383 95.2363C215.681 95.2363 217.323 96.7141 217.323 100.655C217.323 104.595 215.681 106.073 213.383 106.073C211.083 106.073 209.441 104.595 209.441 100.655C209.441 96.7141 211.247 95.2363 213.383 95.2363ZM237.353 102.953C237.025 105.252 235.547 106.073 233.741 106.073C231.607 106.073 229.801 104.595 229.801 100.655C229.801 96.7141 231.443 95.2363 233.741 95.2363C235.547 95.2363 236.861 96.0573 237.189 98.5201H242.443C241.951 93.5945 238.503 90.9675 233.741 90.9675C228.323 90.9675 224.383 94.4155 224.383 100.819C224.383 107.222 228.323 110.506 233.905 110.506C238.831 110.506 242.115 108.043 242.607 103.117H237.353V102.953ZM253.607 110.342C259.027 110.342 262.967 107.058 262.967 100.655C262.967 94.2513 259.027 90.9675 253.607 90.9675C248.189 90.9675 244.249 94.2513 244.249 100.655C244.249 107.058 248.189 110.342 253.607 110.342ZM253.607 95.2363C255.907 95.2363 257.549 96.7141 257.549 100.655C257.549 104.595 255.907 106.073 253.607 106.073C251.309 106.073 249.667 104.595 249.667 100.655C249.667 96.7141 251.309 95.2363 253.607 95.2363ZM270.847 110.177V84.7285H265.593V110.013H270.847V110.177ZM299.087 110.177V105.416H287.431V86.2061H282.013V110.177H299.087ZM313.371 102.953C313.371 104.595 312.223 106.565 309.103 106.565C307.133 106.565 306.477 105.252 306.477 104.431C306.477 103.282 307.461 102.461 308.611 102.296C309.923 101.968 313.207 101.64 313.207 101.64V102.953H313.371ZM301.879 97.3707H306.969C306.969 96.5499 307.133 95.0721 310.253 95.0721C312.715 95.0721 313.371 95.8931 313.371 97.2067V97.8633L307.133 98.6843C305.327 98.8485 301.223 99.9977 301.223 104.267C301.223 108.043 304.177 110.177 308.117 110.177C311.401 110.177 312.879 109.028 313.701 108.207V109.849H319.283C319.283 109.849 318.791 108.371 318.791 107.058V96.8783C318.791 94.0871 317.313 90.6391 310.253 90.6391C303.029 90.9675 301.879 94.5797 301.879 97.3707ZM327.491 110.177V108.371C328.477 109.521 330.119 110.506 332.253 110.506C337.343 110.506 340.955 107.222 340.955 100.819C340.955 94.4155 337.343 91.1317 332.581 91.1317C330.447 91.1317 328.477 91.9527 327.491 93.2661V85.0567H322.237V110.342H327.491V110.177ZM331.433 95.2363C333.731 95.2363 335.373 96.7141 335.373 100.655C335.373 104.595 333.731 106.073 331.433 106.073C328.805 106.073 327.491 104.923 327.491 100.655C327.491 96.3857 328.805 95.2363 331.433 95.2363ZM354.091 96.8783H359.345C359.345 95.4005 358.523 90.9675 351.135 90.9675C346.537 90.9675 343.089 92.9377 343.089 96.8783C343.089 101.311 346.701 102.296 350.807 102.789L351.791 102.953C353.269 103.117 354.583 103.446 354.583 104.595C354.583 105.909 353.105 106.565 351.463 106.565C349.657 106.565 348.015 106.073 348.015 104.267H342.761C342.761 105.252 343.253 110.506 351.135 110.506C358.195 110.506 360.001 107.058 360.001 104.103C360.001 96.3857 348.343 99.5053 348.343 96.5499C348.343 95.2363 349.821 94.9079 351.135 94.9079C352.777 94.7439 354.091 95.5647 354.091 96.8783Z" fill="white"/>
<path fill-rule="evenodd" clip-rule="evenodd" d="M73.9866 117.402C74.8076 117.894 75.4644 118.879 75.4644 119.865V135.298C75.4644 136.119 74.8076 136.612 73.9866 136.119L60.5234 128.402C59.7024 127.91 59.0456 126.925 59.0456 125.939V110.506C59.0456 109.685 59.7024 109.192 60.5234 109.685L73.9866 117.402ZM94.6742 103.774C94.6742 104.595 94.0174 105.744 93.1966 106.237L79.7332 113.954C78.9122 114.446 78.2556 113.954 78.2556 113.133V97.6995C78.2556 96.8785 78.9122 95.7291 79.7332 95.2367L93.1966 87.5198C94.0174 87.0272 94.6742 87.5198 94.6742 88.3406V103.774ZM91.7188 83.2509C92.5398 83.7435 92.5398 84.4002 91.7188 84.8928L78.2556 92.6096C77.4346 93.102 76.121 93.102 75.4644 92.6096L42.9554 73.728C42.1344 73.2356 42.1344 72.5788 42.9554 72.0862L56.4186 64.3695C57.2396 63.8769 58.5532 63.8769 59.2098 64.3695L91.7188 83.2509ZM56.2544 124.133C56.2544 124.954 55.5978 125.447 54.7768 124.954L41.3134 117.238C40.6568 116.745 40 115.76 40 114.775V77.1761C40 76.1909 40.6568 75.8625 41.4776 76.3551L73.9866 95.2367C74.8076 95.7291 75.4644 96.8785 75.4644 97.6995V113.133C75.4644 113.954 74.8076 114.446 73.9866 113.954L57.568 104.431C56.747 103.938 56.0904 104.431 56.0904 105.252V124.133H56.2544ZM97.6296 86.5346C97.6296 85.7136 98.2862 84.5644 99.1072 84.0718L112.571 76.3551C113.227 75.8625 113.884 76.3551 113.884 77.1761V114.775C113.884 115.76 113.227 116.745 112.406 117.238L79.8974 136.119C79.0764 136.612 78.4196 136.283 78.4196 135.298V119.865C78.4196 119.044 79.0764 117.894 79.8974 117.402L96.316 107.879C97.137 107.386 97.7938 106.401 97.7938 105.416L97.6296 86.5346ZM81.375 73.728C80.5542 73.2356 80.5542 72.5788 81.375 72.0862L94.8384 64.3695C95.6594 63.8769 96.8086 63.8769 97.6296 64.3695L111.093 72.0862C111.914 72.5788 111.914 73.2356 111.093 73.728L97.6296 81.4449C96.8086 81.9375 95.6594 81.9375 94.8384 81.4449L81.375 73.728Z" fill="white"/>
</svg>
