<svg width="1000" height="967" xmlns="http://www.w3.org/2000/svg"><path fill="none" d="M-1-1h1002v969H-1z"/><g stroke="null" fill-rule="evenodd" fill="none"><path fill-rule="nonzero" fill="#FFF" d="M671.2 512.6l45.2 89L682 747.4l-81.7-66.7 14.3-106.9 56.5-61.1z"/><path fill-rule="nonzero" fill="#15003E" d="M550.5 482.7a17 17 0 0 1-17-17V331.5a17 17 0 0 1 34 0v134.2a17 17 0 0 1-17 17"/><path fill-rule="nonzero" fill="#15003E" d="M577.8 482.7h-52.6a17 17 0 0 1 0-34h52.6a17 17 0 0 1 0 34"/><path fill-rule="nonzero" fill="#FFF" d="M671.2 512.6l56-52.7a236.6 236.6 0 1 0-167.4 403.9c48.7 0 91.6 17.7 129.2-7.5l46.8 6.5-1.3-76-134.1-106.2 28.8-135.8 42-32.2"/><path fill-rule="nonzero" fill="#15003E" d="M559.8 887A260.1 260.1 0 0 1 300 627a260.2 260.2 0 0 1 259.8-259.8 258.1 258.1 0 0 1 183.7 76.1l17 17-73.4 69-31.9-33.7 37.6-35.5a211.7 211.7 0 0 0-133-46.4 213.6 213.6 0 0 0-213.3 213.4 213.6 213.6 0 0 0 213.3 213.3"/><path fill-rule="nonzero" fill="#0FCE7C" d="M690.2 753.5L657 721.2a134.4 134.4 0 0 0 38-94 134 134 0 0 0-41-97l-17.3-17 18.6-17.5 16 16.8 15.1-15.6a180.1 180.1 0 0 1 55 130.1 180.7 180.7 0 0 1-51.2 126.4"/><path fill-rule="nonzero" fill="#EFF4EE" d="M506.4 627.2a53.4 53.4 0 1 1 106.8 0 53.4 53.4 0 0 1-106.8 0"/><path fill-rule="nonzero" fill="#15003E" d="M559.8 597a30.2 30.2 0 0 0 0 60.3 30.2 30.2 0 0 0 0-60.4m0 106.9a76.7 76.7 0 1 1 .2-153.5 76.7 76.7 0 0 1-.2 153.5m167.3-244l-135 124.8"/><path fill="#15003E" d="M711.4 442.8l31.5 34.1-135 124.7-31.6-34 135-124.8z"/><path fill-rule="nonzero" fill="#FFF" d="M585 674.2l97 73.1 52.5 39.4V887l-105.3-5.1"/><path fill-rule="nonzero" fill="#15003E" d="M757.7 887h-202v-46.5h155.6v-42.2L571 692.8l27.9-37.1 158.7 119.5v111.7z"/><path fill="#25E899" d="M774.2 344.3l18.6-18.6 18.6 18.6-18.6 18.6-18.6-18.6zm-80-89.7l8.9-9 8.9 9-9 8.8-8.8-8.8z"/><path fill-rule="nonzero" fill="#25E899" d="M804.4 176.4a13.4 13.4 0 1 0-26.8 0 13.4 13.4 0 0 0 26.8 0"/><path fill-rule="nonzero" fill="#15003E" d="M469.9 529.6a17 17 0 0 1-17-17V331.5a17 17 0 0 1 34 0v181a17 17 0 0 1-17 17.1"/></g></svg>