<svg width="1000" height="967" xmlns="http://www.w3.org/2000/svg">
 <!-- Generator: Sketch 48.2 (47327) - http://www.bohemiancoding.com/sketch -->
 <title>GitcoinLogo.min</title>
 <desc>Created with Sketch.</desc>

 <g>
  <title>background</title>
  <rect fill="none" id="canvas_background" height="969" width="1002" y="-1" x="-1"/>
 </g>
 <g>
  <title>Layer 1</title>
  <g stroke="null" fill-rule="evenodd" fill="none" id="Page-1">
   <g stroke="null" id="GitcoinLogo.min">
    <polygon stroke="null" points="671.1752992383117,512.5662812331284 716.3694186720386,601.6586833595356 682.093110983842,747.3167807829741 600.3872978768777,680.5783614283137 614.7068347193272,573.7323075900786 671.1752992383117,512.5662812331284 " fill-rule="nonzero" fill="#FFFFFF" id="Shape"/>
    <path stroke="null" fill-rule="nonzero" fill="#15003E" id="Shape" d="m550.495511,482.728426c-9.411465,0 -17.040952,-7.629487 -17.040952,-17.040952l0,-134.189395c0.397676,-9.113896 7.902207,-16.298115 17.024753,-16.298115c9.122546,0 16.627077,7.184219 17.024753,16.298115l0,134.189395c0,9.395202 -7.613353,17.040952 -17.008554,17.040952"/>
    <path stroke="null" fill-rule="nonzero" fill="#15003E" id="Shape" d="m577.806389,482.728426l-52.645526,0c-9.113896,-0.397676 -16.298115,-7.902207 -16.298115,-17.024753c0,-9.122546 7.184219,-16.627077 16.298115,-17.024753l52.645526,0c9.113896,0.397676 16.298115,7.902207 16.298115,17.024753c0,9.122546 -7.184219,16.627077 -16.298115,17.024753"/>
    <path stroke="null" fill-rule="nonzero" fill="#FFFFFF" id="Shape" d="m671.175254,512.566291l55.950045,-52.71032c-75.720659,-75.720691 -192.859481,-91.142299 -285.59796,-37.599726c-92.738511,53.542605 -137.9524,162.698616 -110.236718,266.134957c27.715715,103.436374 121.450085,175.361274 228.535296,175.361242c48.693062,0 91.554619,17.786088 129.167822,-7.451367l46.814021,6.479449l-1.328287,-76.036338l-134.124601,-106.165777l28.833549,-135.809258l41.986832,-32.202863"/>
    <path stroke="null" fill-rule="nonzero" fill="#15003E" id="Shape" d="m559.825918,886.948872c-143.260624,0 -259.825918,-116.532896 -259.825918,-259.825918c0,-143.228227 116.565293,-259.825918 259.825918,-259.825918c68.941276,-0.172937 135.086572,27.241776 183.692388,76.133529l16.94376,16.911363l-73.347366,69.135724l-31.878891,-33.790328l37.580806,-35.442588c-37.72452,-30.221804 -84.653584,-46.62696 -132.990697,-46.490049c-117.793473,0.142839 -213.24331,95.60719 -213.368266,213.400663c0.142807,117.780838 95.587428,213.225459 213.368266,213.368266"/>
    <path stroke="null" fill-rule="nonzero" fill="#0FCE7C" id="Shape" d="m690.224835,753.504613l-33.369164,-32.332452c24.488884,-25.16184 38.163017,-58.905289 38.099162,-94.01681c0,-36.868067 -14.546364,-71.273942 -40.982517,-96.964959l-17.397321,-16.911363l18.660814,-17.591705l15.874651,16.846568l15.226706,-15.64787c35.342934,34.090521 55.236236,81.132327 55.075319,130.236931c0.090162,47.184581 -18.281507,92.5324 -51.18765,126.349262"/>
    <path stroke="null" fill-rule="nonzero" fill="#EFF4EE" id="Shape" d="m506.402858,627.155352c0,-29.504756 23.918304,-53.42306 53.42306,-53.42306c29.504756,0 53.42306,23.918304 53.42306,53.42306c0,29.504756 -23.918304,53.42306 -53.42306,53.42306c-29.504756,0 -53.42306,-23.918304 -53.42306,-53.42306"/>
    <path stroke="null" fill-rule="nonzero" fill="#15003E" id="Shape" d="m559.825918,596.928721c-16.2998,0.533842 -29.237187,13.901885 -29.237187,30.210432c0,16.308547 12.937387,29.676591 29.237187,30.210432c16.2998,-0.533842 29.237187,-13.901885 29.237187,-30.210432c0,-16.308547 -12.937387,-29.676591 -29.237187,-30.210432m0,106.846119c-42.306236,-0.035702 -76.5983,-34.313285 -76.651885,-76.619488c0.035734,-42.318871 34.333014,-76.616151 76.651885,-76.651885c42.318871,0.035734 76.616151,34.333014 76.651885,76.651885c-0.053585,42.306204 -34.345649,76.583786 -76.651885,76.619488m167.299381,-243.951267l-134.999326,124.761797"/>
    <polygon stroke="null" points="711.3802259606018,442.78267012127617 742.9026654617337,476.8968752955043 607.8710562136985,601.6262935870764 576.3486167125666,567.5443859943043 711.3802259606018,442.78267012127617 " fill="#15003E" id="Shape"/>
    <polyline stroke="null" points="585.031042473056,674.228490970243 682.093110983842,747.3167807829741 734.4794808022561,786.744168584235 734.4794808022561,886.9489054729347 629.1883818847418,881.894748834573 " fill-rule="nonzero" fill="#FFFFFF" id="Shape"/>
    <polygon stroke="null" points="757.7082332730788,886.9489054729347 555.6142454851215,886.9489054729347 555.6142454851215,840.5236673824111 711.2506668707647,840.5236673824111 711.2506668707647,798.3424113940855 571.0677931276587,692.7921942968969 598.9942303577845,655.6973617980548 757.7082332730788,775.1783155468438 757.7082332730788,886.9489054729347 " fill-rule="nonzero" fill="#15003E" id="Shape"/>
    <path stroke="null" fill="#25E899" id="Shape" d="m774.166101,344.262595l18.628417,-18.59602l18.59602,18.59602l-18.59602,18.628417l-18.628417,-18.628417zm-79.988802,-89.707976l8.876846,-8.909243l8.909243,8.909243l-8.909243,8.876846l-8.876846,-8.876846z"/>
    <path stroke="null" fill-rule="nonzero" fill="#25E899" id="Shape" d="m804.392732,176.41246c0,-7.407501 -6.004959,-13.41246 -13.41246,-13.41246c-7.407501,0 -13.41246,6.004959 -13.41246,13.41246c0,7.407501 6.004959,13.41246 13.41246,13.41246c7.407501,0 13.41246,-6.004959 13.41246,-13.41246"/>
    <path stroke="null" fill-rule="nonzero" fill="#15003E" id="Shape" d="m469.891161,529.607242c-9.411465,0 -17.040952,-7.629487 -17.040952,-17.040952l0,-181.100608c0.397676,-9.113896 7.902207,-16.298115 17.024753,-16.298115c9.122546,0 16.627077,7.184219 17.024753,16.298115l0,181.100608c0,9.395202 -7.613353,17.040952 -17.008554,17.040952"/>
   </g>
  </g>
 </g>
</svg>