<svg width="1000" height="967" xmlns="http://www.w3.org/2000/svg"><path fill="none" d="M-1-1h1002v969H-1z"/><g><g stroke="null" fill-rule="evenodd" fill="none"><path fill-rule="nonzero" fill="#FFF" d="M671.175 512.566l45.194 89.093-34.276 145.658-81.706-66.739 14.32-106.846 56.468-61.166z"/><path fill-rule="nonzero" fill="#15003E" d="M550.496 482.728c-9.412 0-17.041-7.63-17.041-17.04v-134.19c.397-9.114 7.902-16.298 17.024-16.298 9.123 0 16.627 7.184 17.025 16.298v134.19c0 9.395-7.613 17.04-17.008 17.04"/><path fill-rule="nonzero" fill="#15003E" d="M577.806 482.728h-52.645c-9.114-.397-16.298-7.902-16.298-17.024 0-9.123 7.184-16.627 16.298-17.025h52.645c9.114.398 16.299 7.902 16.299 17.025 0 9.122-7.185 16.627-16.299 17.024"/><path fill-rule="nonzero" fill="#FFF" d="M671.175 512.566l55.95-52.71c-75.72-75.72-192.86-91.142-285.598-37.6C348.79 475.8 303.575 584.955 331.291 688.391c27.715 103.437 121.45 175.361 228.535 175.361 48.693 0 91.555 17.787 129.168-7.45l46.814 6.479-1.329-76.037-134.124-106.166 28.833-135.809 41.987-32.203"/><path fill-rule="nonzero" fill="#15003E" d="M559.826 886.949C416.566 886.949 300 770.416 300 627.123c0-143.228 116.565-259.826 259.826-259.826a258.109 258.109 0 0 1 183.692 76.134l16.944 16.91-73.347 69.137-31.88-33.79 37.582-35.443a211.749 211.749 0 0 0-132.991-46.49c-117.794.143-213.243 95.607-213.368 213.4.142 117.781 95.587 213.226 213.368 213.369"/><path fill-rule="nonzero" fill="#0FCE7C" d="M690.225 753.505l-33.37-32.333a134.449 134.449 0 0 0 38.1-94.017c0-36.868-14.547-71.274-40.983-96.965l-17.397-16.911 18.66-17.592 15.875 16.847 15.227-15.648a180.129 180.129 0 0 1 55.075 130.237 180.68 180.68 0 0 1-51.187 126.35"/><path fill-rule="nonzero" fill="#EFF4EE" d="M506.403 627.155c0-29.504 23.918-53.423 53.423-53.423 29.505 0 53.423 23.919 53.423 53.423 0 29.505-23.918 53.423-53.423 53.423-29.505 0-53.423-23.918-53.423-53.423"/><path fill-rule="nonzero" fill="#15003E" d="M559.826 596.929c-16.3.534-29.237 13.902-29.237 30.21 0 16.309 12.937 29.677 29.237 30.21 16.3-.533 29.237-13.901 29.237-30.21 0-16.308-12.937-29.676-29.237-30.21m0 106.846c-42.306-.036-76.598-34.313-76.652-76.62.036-42.319 34.333-76.616 76.652-76.652 42.319.036 76.616 34.333 76.652 76.652-.054 42.307-34.346 76.584-76.652 76.62m167.3-243.951l-135 124.761"/><path fill="#15003E" d="M711.38 442.783l31.523 34.114-135.032 124.73-31.522-34.083L711.38 442.783z"/><path fill-rule="nonzero" fill="#FFF" d="M585.031 674.228l97.062 73.089 52.386 39.427V886.95l-105.29-5.054"/><path fill-rule="nonzero" fill="#15003E" d="M757.708 886.949H555.614v-46.425h155.637v-42.182l-140.183-105.55 27.926-37.095 158.714 119.481v111.77z"/><path fill="#25E899" d="M774.166 344.263l18.629-18.596 18.596 18.596-18.596 18.628-18.629-18.628zm-79.989-89.708l8.877-8.91 8.91 8.91-8.91 8.876-8.877-8.876z"/><path fill-rule="nonzero" fill="#25E899" d="M804.393 176.412c0-7.407-6.005-13.412-13.413-13.412-7.407 0-13.412 6.005-13.412 13.412 0 7.408 6.005 13.413 13.412 13.413 7.408 0 13.413-6.005 13.413-13.413"/><path fill-rule="nonzero" fill="#15003E" d="M469.891 529.607c-9.411 0-17.04-7.63-17.04-17.04V331.465c.397-9.114 7.901-16.298 17.024-16.298 9.123 0 16.627 7.184 17.025 16.298v181.1c0 9.395-7.614 17.041-17.009 17.041"/></g></g></svg>