<svg id="e8ai0rees0us1" xmlns="http://www.w3.org/2000/svg" xmlns:xlink="http://www.w3.org/1999/xlink" viewBox="0 0 900 700" shape-rendering="geometricPrecision" text-rendering="geometricPrecision" width="900" height="700"><style><![CDATA[#e8ai0rees0us1{pointer-events: all}#e8ai0rees0us1:hover #e8ai0rees0us47 {animation: e8ai0rees0us47_f_p 3000ms linear infinite normal forwards}@keyframes e8ai0rees0us47_f_p { 0% {fill: rgb(106,67,179)} 13.333333% {fill: rgb(250,114,175)} 30% {fill: rgb(106,67,179)} 50% {fill: rgb(250,114,175)} 70% {fill: rgb(106,67,179)} 100% {fill: rgb(106,67,179)} }#e8ai0rees0us1:hover #e8ai0rees0us48_to {animation: e8ai0rees0us48_to__to 3000ms linear infinite normal forwards}@keyframes e8ai0rees0us48_to__to { 0% {transform: translate(312.764910px,303.544998px);animation-timing-function: cubic-bezier(0.420000,0,0.580000,1)} 16.666667% {transform: translate(287.764910px,303.544998px);animation-timing-function: cubic-bezier(0.420000,0,0.580000,1)} 66.666667% {transform: translate(287.764910px,303.544998px);animation-timing-function: cubic-bezier(0.420000,0,0.580000,1)} 83.333333% {transform: translate(312.764910px,303.544998px)} 100% {transform: translate(312.764910px,303.544998px)} }#e8ai0rees0us1:hover #e8ai0rees0us49_to {animation: e8ai0rees0us49_to__to 3000ms linear infinite normal forwards}@keyframes e8ai0rees0us49_to__to { 0% {transform: translate(312.764910px,303.544998px);animation-timing-function: cubic-bezier(0.420000,0,0.580000,1)} 16.666667% {transform: translate(337.764910px,303.544998px);animation-timing-function: cubic-bezier(0.420000,0,0.580000,1)} 66.666667% {transform: translate(337.764910px,303.544998px);animation-timing-function: cubic-bezier(0.420000,0,0.580000,1)} 83.333333% {transform: translate(312.764910px,303.544998px)} 100% {transform: translate(312.764910px,303.544998px)} }#e8ai0rees0us1:hover #e8ai0rees0us50_tr {animation: e8ai0rees0us50_tr__tr 3000ms linear infinite normal forwards}@keyframes e8ai0rees0us50_tr__tr { 0% {transform: translate(469.354139px,227.177049px) rotate(0deg)} 100% {transform: translate(469.354139px,227.177049px) rotate(360deg)} }#e8ai0rees0us1:hover #e8ai0rees0us51_to {animation: e8ai0rees0us51_to__to 3000ms linear infinite normal forwards}@keyframes e8ai0rees0us51_to__to { 0% {offset-distance: 0%} 6.666667% {offset-distance: 14.285714%} 13.333333% {offset-distance: 28.571429%} 16.666667% {offset-distance: 42.857143%} 20% {offset-distance: 57.142857%} 23.333333% {offset-distance: 71.428571%} 26.666667% {offset-distance: 85.714286%} 33.333333% {offset-distance: 100%} 100% {offset-distance: 100%} }#e8ai0rees0us1:hover #e8ai0rees0us51 {animation: e8ai0rees0us51_f_o 3000ms linear infinite normal forwards}@keyframes e8ai0rees0us51_f_o { 0% {fill-opacity: 0} 0.666667% {fill-opacity: 1} 31.333333% {fill-opacity: 1} 33.333333% {fill-opacity: 0} 100% {fill-opacity: 0} }]]></style><g id="e8ai0rees0us2" transform="matrix(0 1.30000000000000 -1.30000000000000 0 904.99996776279045 28.95794220289065)"><path id="e8ai0rees0us3" d="M110.400000,317.310000C113.620000,317.310000,113.620000,312.310000,110.400000,312.310000C107.180000,312.310000,107.180000,317.310000,110.400000,317.310000Z" transform="matrix(1 0 0 1 -1.34415538461536 251.35705846153837)" fill="rgb(122,255,247)" stroke="none" stroke-width="1"/><path id="e8ai0rees0us4" d="M122.130000,59.220000C118.910000,59.220000,118.910000,54.220000,122.130000,54.220000C125.350000,54.220000,125.350000,59.220000,122.130000,59.220000Z" fill="rgb(106,67,179)" stroke="none" stroke-width="1"/><path id="e8ai0rees0us5" d="M451.770000,454.560000C454.990000,454.560000,455,449.560000,451.770000,449.560000C448.540000,449.560000,448.550000,454.560000,451.770000,454.560000Z" transform="matrix(1 0 0 1 -309.69340230769228 77.42335076923086)" fill="rgb(106,67,179)" stroke="none" stroke-width="1"/><path id="e8ai0rees0us6" d="M192.220000,614.240000C195.430000,614.240000,195.440000,609.240000,192.220000,609.240000C189,609.240000,188.990000,614.240000,192.220000,614.240000Z" transform="matrix(1 0 0 1 38.46153846153840 0)" fill="rgb(122,255,247)" stroke="none" stroke-width="1"/><path id="e8ai0rees0us7" d="M360.270000,425.230000C363.490000,425.230000,363.490000,420.230000,360.270000,420.230000C357.050000,420.230000,357.050000,425.230000,360.270000,425.230000Z" transform="matrix(1 0 0 1 46.15384615384608 76.92307692307679)" fill="rgb(122,255,247)" stroke="none" stroke-width="1"/><path id="e8ai0rees0us8" d="M461.160000,655.160000C464.380000,655.160000,464.380000,650.160000,461.160000,650.160000C457.940000,650.160000,457.940000,655.160000,461.160000,655.160000Z" fill="rgb(106,67,179)" stroke="none" stroke-width="1"/><path id="e8ai0rees0us9" d="M377.870000,563.660000C381.090000,563.660000,381.090000,558.660000,377.870000,558.660000C374.650000,558.660000,374.650000,563.660000,377.870000,563.660000Z" transform="matrix(1 0 0 1 38.46153846153840 46.15384615384642)" fill="rgb(122,255,247)" stroke="none" stroke-width="1"/><path id="e8ai0rees0us10" d="M84.410000,481.540000C87.630000,481.540000,87.640000,476.540000,84.410000,476.540000C81.180000,476.540000,81.190000,481.540000,84.410000,481.540000Z" transform="matrix(1 0 0 1 -26.92307692307694 15.38461538461536)" fill="rgb(122,255,247)" stroke="none" stroke-width="1"/><path id="e8ai0rees0us11" d="M153.810000,263.340000C157.020000,263.340000,157.030000,258.340000,153.810000,258.340000C150.590000,258.340000,150.580000,263.340000,153.810000,263.340000Z" transform="matrix(1 0 0 1 -138.46153846153848 220.76923076923032)" fill="rgb(122,255,247)" stroke="none" stroke-width="1"/><path id="e8ai0rees0us12" d="M342.680000,96.760000C345.890000,96.760000,345.900000,91.760000,342.680000,91.760000C339.460000,91.760000,339.450000,96.760000,342.680000,96.760000Z" fill="rgb(250,114,175)" stroke="none" stroke-width="1"/><path id="e8ai0rees0us13" d="M413.060000,255.130000C416.280000,255.130000,416.280000,250.130000,413.060000,250.130000C409.840000,250.130000,409.840000,255.130000,413.060000,255.130000Z" fill="rgb(106,67,179)" stroke="none" stroke-width="1"/><path id="e8ai0rees0us14" d="M452.410000,98.760000C455.630000,98.760000,455.640000,93.760000,452.410000,93.760000C449.180000,93.760000,449.190000,98.760000,452.410000,98.760000Z" fill="rgb(122,255,247)" stroke="none" stroke-width="1"/><path id="e8ai0rees0us15" d="M240.620000,94.420000C243.830000,94.420000,243.840000,89.420000,240.620000,89.420000C237.400000,89.420000,237.390000,94.420000,240.620000,94.420000Z" transform="matrix(1 0 0 1 30.76923076923072 15.38461538461539)" fill="rgb(106,67,179)" stroke="none" stroke-width="1"/><path id="e8ai0rees0us16" d="M44.710000,422.890000C47.920000,422.890000,47.930000,417.890000,44.710000,417.890000C41.490000,417.890000,41.480000,422.890000,44.710000,422.890000Z" fill="rgb(122,255,247)" stroke="none" stroke-width="1"/><path id="e8ai0rees0us17" d="M48.230000,615.280000C51.440000,615.280000,51.450000,610.280000,48.230000,610.280000C45.010000,610.280000,45,615.280000,48.230000,615.280000Z" fill="rgb(122,255,247)" stroke="none" stroke-width="1"/><path id="e8ai0rees0us18" d="M282.850000,659.850000C286.060000,659.850000,286.070000,654.850000,282.850000,654.850000C279.630000,654.850000,279.620000,659.850000,282.850000,659.850000Z" fill="rgb(122,255,247)" stroke="none" stroke-width="1"/><path id="e8ai0rees0us19" d="M147.940000,166C151.160000,166,151.160000,161,147.940000,161C144.720000,161,144.720000,166,147.940000,166Z" transform="matrix(1 0 0 1 38.46153846153840 -46.15384615384610)" fill="rgb(122,255,247)" stroke="none" stroke-width="1"/><path id="e8ai0rees0us20" d="M56.440000,95.590000C59.650000,95.590000,59.660000,90.590000,56.440000,90.590000C53.220000,90.590000,53.210000,95.590000,56.440000,95.590000Z" fill="rgb(122,255,247)" stroke="none" stroke-width="1"/><path id="e8ai0rees0us21" d="M51.740000,299.710000C54.960000,299.710000,54.970000,294.710000,51.740000,294.710000C48.510000,294.710000,48.520000,299.710000,51.740000,299.710000Z" transform="matrix(1 0 0 1 -7.69230769230769 -38.46153846153840)" fill="rgb(250,114,175)" stroke="none" stroke-width="1"/><path id="e8ai0rees0us22" d="M336.810000,216.420000C340.030000,216.420000,340.030000,211.420000,336.810000,211.420000C333.590000,211.420000,333.590000,216.420000,336.810000,216.420000Z" transform="matrix(1 0 0 1 -330.76923076923043 -84.61538461538447)" fill="rgb(122,255,247)" stroke="none" stroke-width="1"/><path id="e8ai0rees0us23" d="M404.410000,34.760000C407.630000,34.760000,407.640000,29.760000,404.410000,29.760000C401.180000,29.760000,401.190000,34.760000,404.410000,34.760000Z" fill="rgb(250,114,175)" stroke="none" stroke-width="1"/><path id="e8ai0rees0us24" d="M451.770000,168.320000C454.990000,168.320000,455,163.320000,451.770000,163.320000C448.540000,163.320000,448.550000,168.320000,451.770000,168.320000Z" transform="matrix(1 0 0 1 -136.56618769230755 2.15064846153854)" fill="rgb(122,255,247)" stroke="none" stroke-width="1"/><path id="e8ai0rees0us25" d="M443.560000,337.250000C446.780000,337.250000,446.790000,332.250000,443.560000,332.250000C440.330000,332.250000,440.340000,337.250000,443.560000,337.250000Z" transform="matrix(1 0 0 1 36.12251384615371 78.97973461538436)" fill="rgb(122,255,247)" stroke="none" stroke-width="1"/><path id="e8ai0rees0us26" d="M389.600000,136.650000C392.820000,136.650000,392.820000,131.650000,389.600000,131.650000C386.380000,131.650000,386.380000,136.650000,389.600000,136.650000Z" fill="rgb(106,67,179)" stroke="none" stroke-width="1"/><path id="e8ai0rees0us27" d="M124.410000,136.650000C127.630000,136.650000,127.640000,131.650000,124.410000,131.650000C121.180000,131.650000,121.190000,136.650000,124.410000,136.650000Z" transform="matrix(1 0 0 1 7.83865076923075 33.60388538461532)" fill="rgb(106,67,179)" stroke="none" stroke-width="1"/><path id="e8ai0rees0us28" d="M363.790000,651.640000C367.010000,651.640000,367.010000,646.640000,363.790000,646.640000C360.570000,646.640000,360.570000,651.640000,363.790000,651.640000Z" fill="rgb(122,255,247)" stroke="none" stroke-width="1"/><path id="e8ai0rees0us29" d="M434.180000,559C437.400000,559,437.400000,554,434.180000,554C430.960000,554,430.960000,559,434.180000,559Z" fill="rgb(106,67,179)" stroke="none" stroke-width="1"/><path id="e8ai0rees0us30" d="M119.590000,637.760000C122.800000,637.760000,122.810000,632.760000,119.590000,632.760000C116.370000,632.760000,116.360000,637.760000,119.590000,637.760000Z" fill="rgb(122,255,247)" stroke="none" stroke-width="1"/><path id="e8ai0rees0us31" d="M70.510000,675.100000C73.730000,675.100000,73.740000,670.100000,70.510000,670.100000C67.280000,670.100000,67.290000,675.100000,70.510000,675.100000Z" fill="rgb(106,67,179)" stroke="none" stroke-width="1"/><path id="e8ai0rees0us32" d="M41.190000,536.680000C44.400000,536.680000,44.410000,531.680000,41.190000,531.680000C37.970000,531.680000,37.960000,536.680000,41.190000,536.680000Z" transform="matrix(1 0 0 1 -7.69230769230769 0)" fill="rgb(106,67,179)" stroke="none" stroke-width="1"/><path id="e8ai0rees0us33" d="M112.750000,401.770000C115.960000,401.770000,115.970000,396.770000,112.750000,396.770000C109.530000,396.770000,109.520000,401.770000,112.750000,401.770000Z" transform="matrix(1 0 0 1 -96.92307692307693 -59.23076923076911)" fill="rgb(122,255,247)" stroke="none" stroke-width="1"/><path id="e8ai0rees0us34" d="M28.280000,183.570000C31.500000,183.570000,31.510000,178.570000,28.280000,178.570000C25.050000,178.570000,25.060000,183.570000,28.280000,183.570000Z" fill="rgb(106,67,179)" stroke="none" stroke-width="1"/><path id="e8ai0rees0us35" d="M38.840000,38.110000C42.060000,38.110000,42.060000,33.110000,38.840000,33.110000C35.620000,33.110000,35.620000,38.110000,38.840000,38.110000Z" fill="rgb(250,114,175)" stroke="none" stroke-width="1"/><path id="e8ai0rees0us36" d="M203.080000,52.180000C206.290000,52.180000,206.300000,47.180000,203.080000,47.180000C199.860000,47.180000,199.850000,52.180000,203.080000,52.180000Z" fill="rgb(122,255,247)" stroke="none" stroke-width="1"/><path id="e8ai0rees0us37" d="M323.910000,276.250000C327.120000,276.250000,327.130000,271.250000,323.910000,271.250000C320.690000,271.250000,320.680000,276.250000,323.910000,276.250000Z" transform="matrix(1 0 0 1 107.69230769230751 0)" fill="rgb(122,255,247)" stroke="none" stroke-width="1"/><path id="e8ai0rees0us38" d="M399.590000,453.760000C402.800000,453.760000,402.810000,448.760000,399.590000,448.760000C396.370000,448.760000,396.360000,453.760000,399.590000,453.760000Z" transform="matrix(1 0 0 1 -194.38872461538486 50.29526692307707)" fill="rgb(250,114,175)" stroke="none" stroke-width="1"/><path id="e8ai0rees0us39" d="M471.720000,264.520000C474.930000,264.520000,474.940000,259.520000,471.720000,259.520000C468.500000,259.520000,468.490000,264.520000,471.720000,264.520000Z" transform="matrix(1 0 0 1 16.15384615384613 0)" fill="rgb(122,255,247)" stroke="none" stroke-width="1"/><path id="e8ai0rees0us40" d="M199.560000,665.720000C202.770000,665.720000,202.780000,660.720000,199.560000,660.720000C196.340000,660.720000,196.330000,665.720000,199.560000,665.720000Z" fill="rgb(106,67,179)" stroke="none" stroke-width="1"/><path id="e8ai0rees0us41" d="M300.440000,600C303.660000,600,303.670000,595,300.440000,595C297.210000,595,297.220000,600,300.440000,600Z" transform="matrix(1 0 0 1 38.46153846153840 -15.38461538461547)" fill="rgb(250,114,175)" stroke="none" stroke-width="1"/><path id="e8ai0rees0us42" d="M251.290000,550.880000C254.510000,550.880000,254.520000,545.880000,251.290000,545.880000C248.060000,545.880000,248.070000,550.880000,251.290000,550.880000Z" fill="rgb(250,114,175)" stroke="none" stroke-width="1"/><path id="e8ai0rees0us43" d="M329.770000,521.430000C332.990000,521.430000,332.990000,516.430000,329.770000,516.430000C326.550000,516.430000,326.550000,521.430000,329.770000,521.430000Z" fill="rgb(106,67,179)" stroke="none" stroke-width="1"/><path id="e8ai0rees0us44" d="M426,508.520000C429.210000,508.520000,429.220000,503.520000,426,503.520000C422.780000,503.520000,422.770000,508.520000,426,508.520000Z" transform="matrix(1 0 0 1 46.15384615384608 0)" fill="rgb(122,255,247)" stroke="none" stroke-width="1"/><path id="e8ai0rees0us45" d="M304,29.900000C307.220000,29.900000,307.230000,24.900000,304,24.900000C300.770000,24.900000,300.780000,29.900000,304,29.900000Z" fill="rgb(122,255,247)" stroke="none" stroke-width="1"/></g><g id="e8ai0rees0us46" transform="matrix(1.20000000000000 0 0 1.20000000000000 135.57589834630863 -61.18078605777345)"><path id="e8ai0rees0us47" d="M421.450000,328L402.140000,297.820000C400.630000,295.550000,399.820000,288.880000,399.820000,286.150000L399.820000,239.450000C399.820000,178.450000,352.190000,128.910000,260.610000,128.910000C258.920000,128.910000,257.260000,128.910000,255.610000,128.980000C343.610000,130.980000,389.290000,179.640000,389.290000,239.450000L389.290000,286.100000C389.290000,288.830000,390.100000,295.500000,391.610000,297.770000L410.920000,328C420.140000,341.840000,425.780000,360.620000,410.920000,368.050000L396.920000,373.870000C392.238131,376.210702,389.280466,380.995615,389.280000,386.230000L389.280000,422.900000C389.280000,478.180000,334.010000,478.180000,334.010000,478.180000L344.550000,478.180000C344.550000,478.180000,399.820000,478.180000,399.820000,422.900000L399.820000,386.180000C399.820466,380.945615,402.778131,376.160702,407.460000,373.820000L421.460000,368C436.320000,360.570000,430.670000,341.790000,421.450000,328Z" transform="matrix(1 0 0 1 -30.16666666666669 0)" fill="rgb(106,67,179)" stroke="none" stroke-width="1"/><g id="e8ai0rees0us48_to" transform="translate(312.764910,303.544998)"><path id="e8ai0rees0us48" d="M404.440000,328L385.130000,297.820000C383.620000,295.550000,382.810000,288.880000,382.810000,286.150000L382.810000,239.450000C382.810000,178.450000,335.180000,128.910000,243.600000,128.910000C241.910000,128.910000,240.250000,128.910000,238.600000,128.980000C326.600000,130.980000,372.280000,179.640000,372.280000,239.450000L372.280000,286.100000C372.280000,288.830000,373.090000,295.500000,374.600000,297.770000L393.910000,328C403.130000,341.840000,408.770000,360.620000,393.910000,368.050000L379.910000,373.870000C375.228131,376.210702,372.270466,380.995615,372.270000,386.230000L372.270000,422.900000C372.270000,478.180000,317,478.180000,317,478.180000L327.540000,478.180000C327.540000,478.180000,382.810000,478.180000,382.810000,422.900000L382.810000,386.180000C382.810466,380.945615,385.768131,376.160702,390.450000,373.820000L404.450000,368C419.310000,360.570000,413.660000,341.790000,404.440000,328Z" transform="translate(-326.098244,-303.544998)" fill="rgb(106,67,179)" stroke="none" stroke-width="1"/></g><g id="e8ai0rees0us49_to" transform="translate(312.764910,303.544998)"><path id="e8ai0rees0us49" d="M404.440000,328L385.130000,297.820000C383.620000,295.550000,382.810000,288.880000,382.810000,286.150000L382.810000,239.450000C382.810000,178.450000,335.180000,128.910000,243.600000,128.910000C241.910000,128.910000,240.250000,128.910000,238.600000,128.980000C326.600000,130.980000,372.280000,179.640000,372.280000,239.450000L372.280000,286.100000C372.280000,288.830000,373.090000,295.500000,374.600000,297.770000L393.910000,328C403.130000,341.840000,408.770000,360.620000,393.910000,368.050000L379.910000,373.870000C375.228131,376.210702,372.270466,380.995615,372.270000,386.230000L372.270000,422.900000C372.270000,478.180000,317,478.180000,317,478.180000L327.540000,478.180000C327.540000,478.180000,382.810000,478.180000,382.810000,422.900000L382.810000,386.180000C382.810466,380.945615,385.768131,376.160702,390.450000,373.820000L404.450000,368C419.310000,360.570000,413.660000,341.790000,404.440000,328Z" transform="translate(-326.098244,-303.544998)" fill="rgb(106,67,179)" stroke="none" stroke-width="1"/></g></g><g id="e8ai0rees0us50_tr" transform="translate(469.354139,227.177049) rotate(0)"><path id="e8ai0rees0us50" d="M246.450000,191.210000L260.810000,205.560000L245.710000,220.670000C245.522233,220.859313,245.266638,220.965798,245,220.965798C244.733362,220.965798,244.477767,220.859313,244.290000,220.670000L243.340000,219.670000C241.927702,218.263771,241.741470,216.041689,242.900000,214.420000C243.422552,213.659114,244.204821,213.115082,245.100000,212.890000L247.100000,212.370000C247.476681,212.277349,247.835040,212.121835,248.160000,211.910000C250.125042,210.654714,251.057765,208.276472,250.470000,206.020000ZM221.090000,191.660000L235.720000,195.580000C237.069146,195.941168,238.217788,196.826955,238.910000,198.040000C239.603691,199.275054,239.783308,200.733543,239.410000,202.100000L238.840000,204.250000C238.765079,204.545322,238.765079,204.854678,238.840000,205.150000C239.028184,206.313210,239.696351,207.343869,240.681440,207.990453C241.666529,208.637037,242.877926,208.840069,244.020000,208.550000L245.570000,208.140000C245.965727,208.032556,246.201805,207.627215,246.100000,207.230000C245.998195,206.832785,240.320000,185.470000,240.310000,185.040000L234,178.760000ZM247.160000,235.850000L232.540000,231.930000C231.188142,231.569179,230.036241,230.683656,229.340000,229.470000C228.646309,228.234946,228.466692,226.776457,228.840000,225.410000L229.410000,223.270000C229.484932,222.971294,229.484932,222.658706,229.410000,222.360000C229.216454,221.197494,228.545611,220.168884,227.559805,219.523076C226.574000,218.877269,225.363054,218.673109,224.220000,218.960000L222.670000,219.380000C222.480957,219.429204,222.319521,219.552121,222.221796,219.721260C222.124071,219.890399,222.098211,220.091649,222.150000,220.280000C222.201789,220.468351,228,242.050000,228,242.470000L234.280000,248.760000ZM269,213.760000L264,208.760000L248.480000,224.290000C248.188727,224.580936,247.850701,224.820935,247.480000,225C245.413233,226.064922,242.896220,225.681723,241.240000,224.050000L240.100000,222.910000C239.347621,222.147785,238.321002,221.719126,237.250000,221.720000C236.376311,221.726072,235.525202,221.998148,234.810000,222.500000C234.069214,223.019307,233.543057,223.790768,233.330000,224.670000L232.900000,226.250000C232.850294,226.440069,232.867962,226.641488,232.950000,226.820000C233.045370,227.001803,233.211980,227.135816,233.410000,227.190000L250.860000,231.860000ZM203.780000,218.540000C203.830000,218.540000,219.280000,203.090000,219.280000,203.090000C220.926145,201.436790,223.450212,201.032939,225.530000,202.090000C225.882878,202.273896,226.203687,202.513659,226.480000,202.800000L228.350000,204.670000C228.561294,204.888485,228.821921,205.053092,229.110000,205.150000C230.212813,205.567145,231.440016,205.502714,232.493084,204.972378C233.546152,204.442042,234.328566,203.494411,234.650000,202.360000L235.060000,200.840000C235.109706,200.649931,235.092038,200.448512,235.010000,200.270000C234.914630,200.088197,234.748020,199.954184,234.550000,199.900000L217.400000,195.310000L199,213.760000ZM217.570000,221.080000C216.979393,218.818160,217.916983,216.433771,219.890000,215.180000C220.216653,214.973626,220.574643,214.821649,220.950000,214.730000L222.950000,214.200000C223.847179,213.985309,224.631798,213.443209,225.150000,212.680000C226.308530,211.058311,226.122298,208.836229,224.710000,207.430000L223.570000,206.290000C223.289000,206.025845,222.851000,206.025845,222.570000,206.290000L207,221.760000L221.690000,236.450000ZM234,208.750000C231.238576,208.750000,229,210.988576,229,213.750000C229,216.511424,231.238576,218.750000,234,218.750000C236.761424,218.750000,239,216.511424,239,213.750000C239,210.988576,236.761424,208.750000,234,208.750000Z" transform="translate(-234,-213.759995)" fill="rgb(106,67,179)" stroke="none" stroke-width="1"/></g><g id="e8ai0rees0us51_to" style="offset-path:path('M506.884475,512.324985C528.796113,513.014256,558.389215,497.795179,565.434981,480.179609Q573.960629,472.188856,573.739735,399.208262Q574.306661,390.525445,603.844467,376.370189Q616.522492,364.573090,604.190499,340.728955Q566.347938,291.214434,572.701641,268.754424Q579.961328,189.460494,541.467452,143.794469Q494.126650,93.679307,413.636407,94.430319');offset-rotate:0deg"><path id="e8ai0rees0us51" d="M324.588868,-1.800198C327.090974,-1.800198,327.098744,-5.685454,324.588868,-5.685454C322.078993,-5.685454,322.086763,-1.800198,324.588868,-1.800198Z" transform="scale(3,3) translate(-324.588868,3.742826)" fill="rgb(122,255,247)" fill-opacity="0" stroke="none" stroke-width="1"/></g></svg>