<svg id="ez88p59tvgdi1" xmlns="http://www.w3.org/2000/svg" xmlns:xlink="http://www.w3.org/1999/xlink" viewBox="0 0 700 900" shape-rendering="geometricPrecision" text-rendering="geometricPrecision" width="700" height="900"><style><![CDATA[#ez88p59tvgdi48 {animation: ez88p59tvgdi48_f_p 2000ms linear infinite normal forwards}@keyframes ez88p59tvgdi48_f_p { 0% {fill: rgb(106,67,179)} 11% {fill: rgb(250,114,175);animation-timing-function: cubic-bezier(0.445000,0.050000,0.550000,0.950000)} 26.500000% {fill: rgb(122,255,247);animation-timing-function: cubic-bezier(0.445000,0.050000,0.550000,0.950000)} 49% {fill: rgb(250,114,175);animation-timing-function: cubic-bezier(0.445000,0.050000,0.550000,0.950000)} 71.500000% {fill: rgb(151,96,255);animation-timing-function: cubic-bezier(0.445000,0.050000,0.550000,0.950000)} 100% {fill: rgb(106,67,179)} }#ez88p59tvgdi49 {animation: ez88p59tvgdi49_f_p 2000ms linear infinite normal forwards}@keyframes ez88p59tvgdi49_f_p { 0% {fill: rgb(106,67,179)} 14.500000% {fill: rgb(250,114,175);animation-timing-function: cubic-bezier(0.445000,0.050000,0.550000,0.950000)} 26.500000% {fill: rgb(122,255,247);animation-timing-function: cubic-bezier(0.445000,0.050000,0.550000,0.950000)} 44% {fill: rgb(250,114,175);animation-timing-function: cubic-bezier(0.445000,0.050000,0.550000,0.950000)} 67% {fill: rgb(151,96,255);animation-timing-function: cubic-bezier(0.445000,0.050000,0.550000,0.950000)} 100% {fill: rgb(106,67,179)} }#ez88p59tvgdi50 {animation: ez88p59tvgdi50_f_p 2000ms linear infinite normal forwards}@keyframes ez88p59tvgdi50_f_p { 0% {fill: rgb(106,67,179)} 12% {fill: rgb(250,114,175);animation-timing-function: cubic-bezier(0.445000,0.050000,0.550000,0.950000)} 29% {fill: rgb(122,255,247);animation-timing-function: cubic-bezier(0.445000,0.050000,0.550000,0.950000)} 47.500000% {fill: rgb(250,114,175);animation-timing-function: cubic-bezier(0.445000,0.050000,0.550000,0.950000)} 73.500000% {fill: rgb(151,96,255);animation-timing-function: cubic-bezier(0.445000,0.050000,0.550000,0.950000)} 100% {fill: rgb(106,67,179)} }#ez88p59tvgdi51 {animation: ez88p59tvgdi51_f_p 2000ms linear infinite normal forwards}@keyframes ez88p59tvgdi51_f_p { 0% {fill: rgb(106,67,179)} 15.500000% {fill: rgb(250,114,175);animation-timing-function: cubic-bezier(0.445000,0.050000,0.550000,0.950000)} 26.500000% {fill: rgb(122,255,247);animation-timing-function: cubic-bezier(0.445000,0.050000,0.550000,0.950000)} 45% {fill: rgb(250,114,175);animation-timing-function: cubic-bezier(0.445000,0.050000,0.550000,0.950000)} 77% {fill: rgb(151,96,255);animation-timing-function: cubic-bezier(0.445000,0.050000,0.550000,0.950000)} 100% {fill: rgb(106,67,179)} }#ez88p59tvgdi52 {animation: ez88p59tvgdi52_f_p 2000ms linear infinite normal forwards}@keyframes ez88p59tvgdi52_f_p { 0% {fill: rgb(106,67,179)} 13% {fill: rgb(250,114,175);animation-timing-function: cubic-bezier(0.445000,0.050000,0.550000,0.950000)} 26.500000% {fill: rgb(122,255,247);animation-timing-function: cubic-bezier(0.445000,0.050000,0.550000,0.950000)} 46.500000% {fill: rgb(250,114,175);animation-timing-function: cubic-bezier(0.445000,0.050000,0.550000,0.950000)} 72.500000% {fill: rgb(151,96,255);animation-timing-function: cubic-bezier(0.445000,0.050000,0.550000,0.950000)} 100% {fill: rgb(106,67,179)} }#ez88p59tvgdi54 {animation: ez88p59tvgdi54_f_p 2000ms linear infinite normal forwards}@keyframes ez88p59tvgdi54_f_p { 0% {fill: rgb(106,67,179)} 20.500000% {fill: rgb(250,114,175);animation-timing-function: cubic-bezier(0.445000,0.050000,0.550000,0.950000)} 45.500000% {fill: rgb(122,255,247);animation-timing-function: cubic-bezier(0.445000,0.050000,0.550000,0.950000)} 77.500000% {fill: rgb(151,96,255);animation-timing-function: cubic-bezier(0.445000,0.050000,0.550000,0.950000)} 100% {fill: rgb(106,67,179)} }#ez88p59tvgdi55 {animation: ez88p59tvgdi55_f_p 2000ms linear infinite normal forwards}@keyframes ez88p59tvgdi55_f_p { 0% {fill: rgb(106,67,179)} 20.500000% {fill: rgb(250,114,175);animation-timing-function: cubic-bezier(0.445000,0.050000,0.550000,0.950000)} 45.500000% {fill: rgb(122,255,247);animation-timing-function: cubic-bezier(0.445000,0.050000,0.550000,0.950000)} 72.500000% {fill: rgb(151,96,255);animation-timing-function: cubic-bezier(0.445000,0.050000,0.550000,0.950000)} 100% {fill: rgb(106,67,179)} }]]></style><rect id="ez88p59tvgdi2" width="698" height="898" rx="0" ry="0" transform="matrix(1 0 0 1 1 1)" fill="none" stroke="rgb(250,114,175)" stroke-width="2"/><g id="ez88p59tvgdi3" transform="matrix(1.30000000000000 0 0 1.30000000000000 67.76155951049998 28.46849670450001)"><path id="ez88p59tvgdi4" d="M96.260000,34.330000C93.040000,34.330000,93.050000,29.330000,96.260000,29.330000C99.470000,29.330000,99.480000,34.330000,96.260000,34.330000Z" fill="rgb(106,67,179)" stroke="none" stroke-width="1"/><path id="ez88p59tvgdi5" d="M55.200000,181C58.420000,181,58.430000,176,55.200000,176C51.970000,176,51.980000,181,55.200000,181Z" fill="rgb(122,255,247)" stroke="none" stroke-width="1"/><path id="ez88p59tvgdi6" d="M425.910000,429.670000C429.120000,429.670000,429.130000,424.670000,425.910000,424.670000C422.690000,424.670000,422.680000,429.670000,425.910000,429.670000Z" transform="matrix(1 0 0 1 9.38375144615401 -36.67000000000002)" fill="rgb(106,67,179)" stroke="none" stroke-width="1"/><path id="ez88p59tvgdi7" d="M166.350000,589.340000C169.560000,589.340000,169.570000,584.340000,166.350000,584.340000C163.130000,584.340000,163.120000,589.340000,166.350000,589.340000Z" fill="rgb(122,255,247)" stroke="none" stroke-width="1"/><path id="ez88p59tvgdi8" d="M334.400000,400.340000C337.620000,400.340000,337.630000,395.340000,334.400000,395.340000C331.170000,395.340000,331.180000,400.340000,334.400000,400.340000Z" fill="rgb(122,255,247)" stroke="none" stroke-width="1"/><path id="ez88p59tvgdi9" d="M435.290000,630.270000C438.510000,630.270000,438.510000,625.270000,435.290000,625.270000C432.070000,625.270000,432.070000,630.270000,435.290000,630.270000Z" fill="rgb(106,67,179)" stroke="none" stroke-width="1"/><path id="ez88p59tvgdi10" d="M352,538.760000C355.220000,538.760000,355.220000,533.760000,352,533.760000C348.780000,533.760000,348.780000,538.760000,352,538.760000Z" fill="rgb(122,255,247)" stroke="none" stroke-width="1"/><path id="ez88p59tvgdi11" d="M58.550000,456.650000C61.760000,456.650000,61.770000,451.650000,58.550000,451.650000C55.330000,451.650000,55.320000,456.650000,58.550000,456.650000Z" transform="matrix(1 0 0 1 44.83000290769226 71.84999999615388)" fill="rgb(122,255,247)" stroke="none" stroke-width="1"/><path id="ez88p59tvgdi12" d="M127.940000,238.450000C131.150000,238.450000,131.160000,233.450000,127.940000,233.450000C124.720000,233.450000,124.710000,238.450000,127.940000,238.450000Z" fill="rgb(122,255,247)" stroke="none" stroke-width="1"/><path id="ez88p59tvgdi13" d="M316.810000,71.870000C320.030000,71.870000,320.030000,66.870000,316.810000,66.870000C313.590000,66.870000,313.590000,71.870000,316.810000,71.870000Z" transform="matrix(1 0 0 1 -131.80515620384617 34.88000000000035)" fill="rgb(250,114,175)" stroke="none" stroke-width="1"/><path id="ez88p59tvgdi14" d="M387.190000,230.240000C390.410000,230.240000,390.420000,225.240000,387.190000,225.240000C383.960000,225.240000,383.970000,230.240000,387.190000,230.240000Z" fill="rgb(106,67,179)" stroke="none" stroke-width="1"/><path id="ez88p59tvgdi15" d="M426.550000,73.860000C429.760000,73.860000,429.770000,68.860000,426.550000,68.860000C423.330000,68.860000,423.320000,73.860000,426.550000,73.860000Z" transform="matrix(1 0 0 1 21.71875144615410 -34.53000000000659)" fill="rgb(122,255,247)" stroke="none" stroke-width="1"/><path id="ez88p59tvgdi16" d="M214.750000,69.520000C217.960000,69.520000,217.970000,64.520000,214.750000,64.520000C211.530000,64.520000,211.520000,69.520000,214.750000,69.520000Z" transform="matrix(1 0 0 1 110.52561661538459 -3.83000000000000)" fill="rgb(106,67,179)" stroke="none" stroke-width="1"/><path id="ez88p59tvgdi17" d="M18.840000,398C22.060000,398,22.060000,393,18.840000,393C15.620000,393,15.620000,398,18.840000,398Z" fill="rgb(122,255,247)" stroke="none" stroke-width="1"/><path id="ez88p59tvgdi18" d="M22.360000,590.380000C25.580000,590.380000,25.580000,585.380000,22.360000,585.380000C19.140000,585.380000,19.140000,590.380000,22.360000,590.380000Z" fill="rgb(122,255,247)" stroke="none" stroke-width="1"/><path id="ez88p59tvgdi19" d="M257,635C260.220000,635,260.220000,630,257,630C253.780000,630,253.780000,635,257,635Z" transform="matrix(1 0 0 1 -173.01940309231179 -300.30140877619550)" fill="rgb(122,255,247)" stroke="none" stroke-width="1"/><path id="ez88p59tvgdi20" d="M122.070000,141.080000C125.290000,141.080000,125.290000,136.080000,122.070000,136.080000C118.850000,136.080000,118.850000,141.080000,122.070000,141.080000Z" fill="rgb(122,255,247)" stroke="none" stroke-width="1"/><path id="ez88p59tvgdi21" d="M30.570000,70.690000C33.790000,70.690000,33.790000,65.690000,30.570000,65.690000C27.350000,65.690000,27.350000,70.690000,30.570000,70.690000Z" fill="rgb(122,255,247)" stroke="none" stroke-width="1"/><path id="ez88p59tvgdi22" d="M25.880000,274.810000C29.090000,274.810000,29.100000,269.810000,25.880000,269.810000C22.660000,269.810000,22.650000,274.810000,25.880000,274.810000Z" fill="rgb(250,114,175)" stroke="none" stroke-width="1"/><path id="ez88p59tvgdi23" d="M310.940000,191.520000C314.160000,191.520000,314.170000,186.520000,310.940000,186.520000C307.710000,186.520000,307.720000,191.520000,310.940000,191.520000Z" fill="rgb(122,255,247)" stroke="none" stroke-width="1"/><path id="ez88p59tvgdi24" d="M378.550000,9.860000C381.760000,9.860000,381.770000,4.860000,378.550000,4.860000C375.330000,4.860000,375.320000,9.860000,378.550000,9.860000Z" fill="rgb(250,114,175)" stroke="none" stroke-width="1"/><path id="ez88p59tvgdi25" d="M425.910000,143.430000C429.120000,143.430000,429.130000,138.430000,425.910000,138.430000C422.690000,138.430000,422.680000,143.430000,425.910000,143.430000Z" fill="rgb(122,255,247)" stroke="none" stroke-width="1"/><path id="ez88p59tvgdi26" d="M417.700000,312.350000C420.910000,312.350000,420.920000,307.350000,417.700000,307.350000C414.480000,307.350000,414.470000,312.350000,417.700000,312.350000Z" transform="matrix(1 0 0 1 -30.50250000769245 -2.86504592307716)" fill="rgb(122,255,247)" stroke="none" stroke-width="1"/><path id="ez88p59tvgdi27" d="M363.730000,111.750000C366.950000,111.750000,366.950000,106.750000,363.730000,106.750000C360.510000,106.750000,360.510000,111.750000,363.730000,111.750000Z" fill="rgb(106,67,179)" stroke="none" stroke-width="1"/><path id="ez88p59tvgdi28" d="M98.550000,111.750000C101.760000,111.750000,101.770000,106.750000,98.550000,106.750000C95.330000,106.750000,95.320000,111.750000,98.550000,111.750000Z" transform="matrix(1 0 0 1 -119.48122908846189 227.94859123076878)" fill="rgb(106,67,179)" stroke="none" stroke-width="1"/><path id="ez88p59tvgdi29" d="M337.920000,626.750000C341.140000,626.750000,341.150000,621.750000,337.920000,621.750000C334.690000,621.750000,334.700000,626.750000,337.920000,626.750000Z" fill="rgb(122,255,247)" stroke="none" stroke-width="1"/><path id="ez88p59tvgdi30" d="M408.310000,534.070000C411.530000,534.070000,411.530000,529.070000,408.310000,529.070000C405.090000,529.070000,405.090000,534.070000,408.310000,534.070000Z" transform="matrix(1 0 0 1 26.98000000000013 -0.57000000000005)" fill="rgb(106,67,179)" stroke="none" stroke-width="1"/><path id="ez88p59tvgdi31" d="M93.720000,612.860000C96.930000,612.860000,96.940000,607.860000,93.720000,607.860000C90.500000,607.860000,90.490000,612.860000,93.720000,612.860000Z" fill="rgb(122,255,247)" stroke="none" stroke-width="1"/><path id="ez88p59tvgdi32" d="M44.650000,650.210000C47.860000,650.210000,47.870000,645.210000,44.650000,645.210000C41.430000,645.210000,41.420000,650.210000,44.650000,650.210000Z" transform="matrix(1 0 0 1 -60.75122618461958 -4.38999999999999)" fill="rgb(106,67,179)" stroke="none" stroke-width="1"/><path id="ez88p59tvgdi33" d="M15.320000,511.780000C18.540000,511.780000,18.540000,506.780000,15.320000,506.780000C12.100000,506.780000,12.100000,511.780000,15.320000,511.780000Z" fill="rgb(106,67,179)" stroke="none" stroke-width="1"/><path id="ez88p59tvgdi34" d="M86.880000,376.880000C90.100000,376.880000,90.100000,371.880000,86.880000,371.880000C83.660000,371.880000,83.660000,376.880000,86.880000,376.880000Z" transform="matrix(1 0 0 1 14.08125000769225 57.78999999999996)" fill="rgb(122,255,247)" stroke="none" stroke-width="1"/><path id="ez88p59tvgdi35" d="M2.410000,158.680000C5.630000,158.680000,5.640000,153.680000,2.410000,153.680000C-0.820000,153.680000,-0.810000,158.680000,2.410000,158.680000Z" fill="rgb(106,67,179)" stroke="none" stroke-width="1"/><path id="ez88p59tvgdi36" d="M13,13.210000C16.220000,13.210000,16.230000,8.210000,13,8.210000C9.770000,8.210000,9.780000,13.210000,13,13.210000Z" fill="rgb(250,114,175)" stroke="none" stroke-width="1"/><path id="ez88p59tvgdi37" d="M177.210000,27.290000C180.430000,27.290000,180.430000,22.290000,177.210000,22.290000C173.990000,22.290000,173.990000,27.290000,177.210000,27.290000Z" fill="rgb(122,255,247)" stroke="none" stroke-width="1"/><path id="ez88p59tvgdi38" d="M298,251.350000C301.220000,251.350000,301.220000,246.350000,298,246.350000C294.780000,246.350000,294.780000,251.350000,298,251.350000Z" fill="rgb(122,255,247)" stroke="none" stroke-width="1"/><path id="ez88p59tvgdi39" d="M373.720000,428.860000C376.930000,428.860000,376.940000,423.860000,373.720000,423.860000C370.500000,423.860000,370.490000,428.860000,373.720000,428.860000Z" transform="matrix(1 0 0 1 11.06249853846185 10.80999999905868)" fill="rgb(250,114,175)" stroke="none" stroke-width="1"/><path id="ez88p59tvgdi40" d="M445.850000,239.620000C449.070000,239.620000,449.070000,234.620000,445.850000,234.620000C442.630000,234.620000,442.630000,239.620000,445.850000,239.620000Z" fill="rgb(122,255,247)" stroke="none" stroke-width="1"/><path id="ez88p59tvgdi41" d="M173.690000,640.820000C176.910000,640.820000,176.910000,635.820000,173.690000,635.820000C170.470000,635.820000,170.470000,640.820000,173.690000,640.820000Z" fill="rgb(106,67,179)" stroke="none" stroke-width="1"/><path id="ez88p59tvgdi42" d="M274.580000,575.130000C277.790000,575.130000,277.800000,570.130000,274.580000,570.130000C271.360000,570.130000,271.350000,575.130000,274.580000,575.130000Z" transform="matrix(1 0 0 1 -285.85122327692540 -120.15556782307760)" fill="rgb(250,114,175)" stroke="none" stroke-width="1"/><path id="ez88p59tvgdi43" d="M225.430000,526C228.640000,526,228.650000,521,225.430000,521C222.210000,521,222.200000,526,225.430000,526Z" transform="matrix(1 0 0 1 30.46832664615374 41.58911661547972)" fill="rgb(250,114,175)" stroke="none" stroke-width="1"/><path id="ez88p59tvgdi44" d="M303.900000,496.530000C307.120000,496.530000,307.130000,491.530000,303.900000,491.530000C300.670000,491.530000,300.680000,496.530000,303.900000,496.530000Z" fill="rgb(106,67,179)" stroke="none" stroke-width="1"/><path id="ez88p59tvgdi45" d="M400.100000,483.630000C403.320000,483.630000,403.320000,478.630000,400.100000,478.630000C396.880000,478.630000,396.880000,483.630000,400.100000,483.630000Z" transform="matrix(1 0 0 1 -117.17374854230769 -347.54999999999779)" fill="rgb(122,255,247)" stroke="none" stroke-width="1"/><path id="ez88p59tvgdi46" d="M278.100000,5C281.310000,5,281.320000,0,278.100000,0C274.880000,0,274.870000,5,278.100000,5Z" fill="rgb(122,255,247)" stroke="none" stroke-width="1"/></g><g id="ez88p59tvgdi47" transform="matrix(1 0 0 1 6.05040435999979 9.06997711000002)"><path id="ez88p59tvgdi48" d="M393.300000,283.730000C391.861033,283.735999,390.598538,282.772016,390.225284,281.382289C389.852029,279.992561,390.461661,278.525760,391.710000,277.810000L411.240000,266.530000C412.758783,265.654629,414.699629,266.176217,415.575000,267.695000C416.450371,269.213783,415.928783,271.154629,414.410000,272.030000L394.880000,283.300000C394.400821,283.580998,393.855493,283.729410,393.300000,283.730000Z" fill="rgb(106,67,179)" stroke="none" stroke-width="1"/><path id="ez88p59tvgdi49" d="M376.780000,267.220000C375.649478,267.213005,374.607672,266.606313,374.043664,265.626504C373.479657,264.646696,373.478262,263.441111,374.040000,262.460000L385.310000,242.930000C386.185371,241.411217,388.126217,240.889629,389.645000,241.765000C391.163783,242.640371,391.685371,244.581217,390.810000,246.100000L379.530000,265.630000C378.964169,266.614182,377.915244,267.220651,376.780000,267.220000Z" fill="rgb(106,67,179)" stroke="none" stroke-width="1"/><path id="ez88p59tvgdi50" d="M354.230000,261.170000C353.389264,261.170000,352.582962,260.836019,351.988472,260.241528C351.393981,259.647038,351.060000,258.840736,351.060000,258L351.060000,230.440000C351.060000,229.307468,351.664198,228.260965,352.645000,227.694699C353.625801,227.128433,354.834199,227.128433,355.815000,227.694699C356.795802,228.260965,357.400000,229.307468,357.400000,230.440000L357.400000,258C357.400000,259.750743,355.980743,261.170000,354.230000,261.170000Z" fill="rgb(106,67,179)" stroke="none" stroke-width="1"/><path id="ez88p59tvgdi51" d="M331.680000,267.220000C330.544199,267.222734,329.494304,266.615703,328.930000,265.630000L317.650000,246.100000C317.066219,245.118242,317.055739,243.898336,317.622568,242.906694C318.189397,241.915052,319.245876,241.305026,320.388078,241.309851C321.530281,241.314676,322.581569,241.933604,323.140000,242.930000L334.420000,262.460000C334.981738,263.441111,334.980343,264.646696,334.416336,265.626504C333.852328,266.606313,332.810522,267.213005,331.680000,267.220000Z" fill="rgb(106,67,179)" stroke="none" stroke-width="1"/><path id="ez88p59tvgdi52" d="M315.160000,283.730000C314.604507,283.729410,314.059179,283.580998,313.580000,283.300000L294,272C292.481217,271.124629,291.959629,269.183783,292.835000,267.665000C293.710371,266.146217,295.651217,265.624629,297.170000,266.500000L316.710000,277.780000C317.958339,278.495760,318.567971,279.962561,318.194716,281.352289C317.821462,282.742016,316.558967,283.705999,315.120000,283.700000Z" fill="rgb(106,67,179)" stroke="none" stroke-width="1"/></g><path id="ez88p59tvgdi53" d="M158.360000,297.170000L158.360000,308.470000C158.360000,310.679139,156.569139,312.470000,154.360000,312.470000L78.260000,312.470000C76.050861,312.470000,74.260000,310.679139,74.260000,308.470000L74.260000,298.370000C74.260000,296.160861,72.469139,294.370000,70.260000,294.370000L58.260000,294.370000C56.050861,294.370000,54.260000,296.160861,54.260000,298.370000L54.260000,355.800000L54.320000,355.800000C54.602367,357.761462,56.278340,359.220495,58.260000,359.230000L64.310000,359.230000C66.519139,359.230000,68.310000,361.020861,68.310000,363.230000C68.310000,367.470000,68.220000,373.570000,68.240000,373.840000C70.509602,398.694529,91.352061,417.720467,116.310000,417.720467C141.267939,417.720467,162.110398,398.694529,164.380000,373.840000L164.380000,373.780000L164.380000,373.780000L164.380000,363.230000C164.380000,361.020861,166.170861,359.230000,168.380000,359.230000L174.380000,359.230000C176.361660,359.220495,178.037633,357.761462,178.320000,355.800000L178.380000,355.800000L178.380000,297.170000C178.380000,294.960861,176.589139,293.170000,174.380000,293.170000L162.380000,293.170000C161.315673,293.164678,160.293112,293.583755,159.538635,294.334478C158.784158,295.085201,158.359987,296.105660,158.360000,297.170000ZM78.260000,327.170000L154.360000,327.170000C156.569139,327.170000,158.360000,328.960861,158.360000,331.170000L158.360000,336.570000C158.360000,338.779139,156.569139,340.570000,154.360000,340.570000L78.260000,340.570000C76.050861,340.570000,74.260000,338.779139,74.260000,336.570000L74.260000,331.170000C74.254678,330.105673,74.673755,329.083112,75.424478,328.328635C76.175201,327.574158,77.195660,327.149987,78.260000,327.150000ZM140.390000,373.550000L92.390000,373.550000C90.180861,373.550000,88.390000,371.759139,88.390000,369.550000L88.390000,363.250000C88.390000,361.040861,90.180861,359.250000,92.390000,359.250000L140.390000,359.250000C142.599139,359.250000,144.390000,361.040861,144.390000,363.250000L144.390000,369.550000C144.378993,371.751325,142.591352,373.530028,140.390000,373.530000Z" transform="matrix(1 0 0 1 244.20080144500020 264.49005007000017)" fill="rgb(106,67,179)" stroke="rgb(106,67,179)" stroke-width="1"/><path id="ez88p59tvgdi54" d="M227.400000,332.720000L219.400000,344.120000C219.212416,344.383833,218.908721,344.540539,218.585000,344.540539C218.261279,344.540539,217.957584,344.383833,217.770000,344.120000L209.770000,332.720000C209.527538,332.375007,209.527538,331.914993,209.770000,331.570000L217.770000,320.160000C217.957584,319.896167,218.261279,319.739461,218.585000,319.739461C218.908721,319.739461,219.212416,319.896167,219.400000,320.160000L227.400000,331.570000C227.642462,331.914993,227.642462,332.375007,227.400000,332.720000Z" transform="matrix(1 0 0 1 110.30888249000003 104.55947603999869)" fill="rgb(106,67,179)" stroke="none" stroke-width="1"/><path id="ez88p59tvgdi55" d="M227.400000,332.720000L219.400000,344.120000C219.212416,344.383833,218.908721,344.540539,218.585000,344.540539C218.261279,344.540539,217.957584,344.383833,217.770000,344.120000L209.770000,332.720000C209.527538,332.375007,209.527538,331.914993,209.770000,331.570000L217.770000,320.160000C217.957584,319.896167,218.261279,319.739461,218.585000,319.739461C218.908721,319.739461,219.212416,319.896167,219.400000,320.160000L227.400000,331.570000C227.642462,331.914993,227.642462,332.375007,227.400000,332.720000Z" transform="matrix(1 0 0 1 174.30888249000003 104.55947603999869)" fill="rgb(106,67,179)" stroke="none" stroke-width="1"/><path id="ez88p59tvgdi56" d="M216.189616,206.230149L209.876964,207.808432C204.151619,209.334665,199.857574,210.524301,195.908062,212.681305C193.975553,213.345516,192.352557,214.454097,189.654542,215.523814C187.254745,216.621348,186.221544,216.837454,173.992781,223.913167C153.149646,238.603124,152.562910,243.187391,146.632910,248.561700C124.363411,285.692658,122.074848,300.466763,123.064848,335.126763C129.841519,390.328802,188.302971,437.337660,187.810000,456.810000C188.383276,459.308503,190.606572,461.079674,193.170000,461.080000L223.900000,461.080000C225.950123,461.080000,227.916279,460.265592,229.365935,458.815935C230.815592,457.366279,231.630000,455.400123,231.630000,453.350000L231.630000,361C231.624820,358.688314,230.587955,356.499623,228.802430,355.031353C227.016905,353.563083,224.669147,352.968536,222.400000,353.410000C210.400000,355.890000,198.120000,346.850000,196.950000,334.640000C194.580000,306.540000,234.560000,301.880000,239.950000,328.710000L239.950000,454.300000C239.870000,459.660000,244.830000,462.300000,249.770000,462.300000L250.221072,203.360026C238.551072,203.390026,230.950248,202.737898,216.189616,206.230149Z" transform="matrix(-1 0 0 1 610.35422900151298 103.70893700000113)" fill="rgb(106,67,179)" stroke="rgb(106,67,179)" stroke-width="1"/><path id="ez88p59tvgdi57" d="M216.189616,206.230149L209.876964,207.808432C204.151619,209.334665,199.857574,210.524301,195.908062,212.681305C193.975553,213.345516,192.352557,214.454097,189.654542,215.523814C187.254745,216.621348,186.221544,216.837454,173.992781,223.913167C153.149646,238.603124,152.562910,243.187391,146.632910,248.561700C124.363411,285.692658,122.074848,300.466763,123.064848,335.126763C129.841519,390.328802,188.302971,437.337660,187.810000,456.810000C188.383276,459.308503,190.606572,461.079674,193.170000,461.080000L223.900000,461.080000C225.950123,461.080000,227.916279,460.265592,229.365935,458.815935C230.815592,457.366279,231.630000,455.400123,231.630000,453.350000L231.630000,361C231.624820,358.688314,230.587955,356.499623,228.802430,355.031353C227.016905,353.563083,224.669147,352.968536,222.400000,353.410000C210.400000,355.890000,198.120000,346.850000,196.950000,334.640000C194.580000,306.540000,234.560000,301.880000,239.950000,328.710000L239.950000,454.300000C239.870000,459.660000,244.830000,462.300000,249.770000,462.300000L250.221072,203.360026C238.551072,203.390026,230.950248,202.737898,216.189616,206.230149Z" transform="matrix(1 0 0 1 110.81422899999995 103.70893699999993)" fill="rgb(106,67,179)" stroke="rgb(106,67,179)" stroke-width="1"/></svg>