<svg id="edoevmx86ew51" xmlns="http://www.w3.org/2000/svg" xmlns:xlink="http://www.w3.org/1999/xlink" viewBox="0 0 700 900" shape-rendering="geometricPrecision" text-rendering="geometricPrecision" width="700" height="900"><style><![CDATA[#edoevmx86ew549 {animation: edoevmx86ew549_f_p 2000ms linear infinite normal forwards}@keyframes edoevmx86ew549_f_p { 0% {fill: rgb(106,67,179)} 20% {fill: rgb(250,114,175)} 45% {fill: rgb(106,67,179)} 70% {fill: rgb(250,114,175)} 100% {fill: rgb(106,67,179)} }#edoevmx86ew550 {animation: edoevmx86ew550_f_p 2000ms linear infinite normal forwards}@keyframes edoevmx86ew550_f_p { 0% {fill: rgb(106,67,179)} 25% {fill: rgb(250,114,175)} 50% {fill: rgb(106,67,179)} 75% {fill: rgb(250,114,175)} 100% {fill: rgb(106,67,179)} }#edoevmx86ew580_tr {animation: edoevmx86ew580_tr__tr 2000ms linear infinite normal forwards}@keyframes edoevmx86ew580_tr__tr { 0% {transform: translate(308.514391px,314.759995px) rotate(0deg)} 100% {transform: translate(308.514391px,314.759995px) rotate(360deg)} }#edoevmx86ew581_to {animation: edoevmx86ew581_to__to 2000ms linear infinite normal forwards}@keyframes edoevmx86ew581_to__to { 0% {offset-distance: 0%} 20% {offset-distance: 25%} 40% {offset-distance: 50%} 60% {offset-distance: 75%} 85% {offset-distance: 100%} 100% {offset-distance: 100%} }#edoevmx86ew581 {animation: edoevmx86ew581_f_p 2000ms linear infinite normal forwards}@keyframes edoevmx86ew581_f_p { 0% {fill: rgb(122,255,247)} 6.500000% {fill: rgb(122,255,247)} 24% {fill: rgb(106,67,179)} 44% {fill: rgb(250,114,175)} 63.500000% {fill: rgb(122,255,247)} 100% {fill: rgb(122,255,247)} }#edoevmx86ew582_to {animation: edoevmx86ew582_to__to 2000ms linear infinite normal forwards}@keyframes edoevmx86ew582_to__to { 0% {offset-distance: 0%} 25% {offset-distance: 25%} 40% {offset-distance: 50%} 55% {offset-distance: 75%} 75% {offset-distance: 100%} 100% {offset-distance: 100%} }#edoevmx86ew582 {animation: edoevmx86ew582_f_p 2000ms linear infinite normal forwards}@keyframes edoevmx86ew582_f_p { 0% {fill: rgb(122,255,247)} 15% {fill: rgb(122,255,247)} 22.500000% {fill: rgb(106,67,179)} 32.500000% {fill: rgb(250,114,175)} 47% {fill: rgb(122,255,247)} 100% {fill: rgb(122,255,247)} }#edoevmx86ew583_to {animation: edoevmx86ew583_to__to 2000ms linear infinite normal forwards}@keyframes edoevmx86ew583_to__to { 0% {offset-distance: 0%} 20% {offset-distance: 25%} 40% {offset-distance: 50%} 55% {offset-distance: 75%} 70% {offset-distance: 100%} 100% {offset-distance: 100%} }#edoevmx86ew583 {animation: edoevmx86ew583_f_p 2000ms linear infinite normal forwards}@keyframes edoevmx86ew583_f_p { 0% {fill: rgb(122,255,247)} 15% {fill: rgb(122,255,247)} 32.500000% {fill: rgb(106,67,179)} 47.500000% {fill: rgb(250,114,175)} 62% {fill: rgb(122,255,247)} 100% {fill: rgb(122,255,247)} }]]></style><rect id="edoevmx86ew52" width="700" height="900" rx="0" ry="0" fill="rgb(14,3,51)" stroke="none" stroke-width="3"/><g id="edoevmx86ew53" transform="matrix(1.30000000000000 0 0 1.30000000000000 25.00486488040525 -4.99996776634032)"><path id="edoevmx86ew54" d="M110.400000,317.310000C113.620000,317.310000,113.620000,312.310000,110.400000,312.310000C107.180000,312.310000,107.180000,317.310000,110.400000,317.310000Z" fill="rgb(122,255,247)" stroke="none" stroke-width="1"/><path id="edoevmx86ew55" d="M122.130000,59.220000C118.910000,59.220000,118.910000,54.220000,122.130000,54.220000C125.350000,54.220000,125.350000,59.220000,122.130000,59.220000Z" fill="rgb(106,67,179)" stroke="none" stroke-width="1"/><path id="edoevmx86ew56" d="M451.770000,454.560000C454.990000,454.560000,455,449.560000,451.770000,449.560000C448.540000,449.560000,448.550000,454.560000,451.770000,454.560000Z" fill="rgb(106,67,179)" stroke="none" stroke-width="1"/><path id="edoevmx86ew57" d="M192.220000,614.240000C195.430000,614.240000,195.440000,609.240000,192.220000,609.240000C189,609.240000,188.990000,614.240000,192.220000,614.240000Z" transform="matrix(1 0 0 1 38.46153846153840 0)" fill="rgb(122,255,247)" stroke="none" stroke-width="1"/><path id="edoevmx86ew58" d="M360.270000,425.230000C363.490000,425.230000,363.490000,420.230000,360.270000,420.230000C357.050000,420.230000,357.050000,425.230000,360.270000,425.230000Z" transform="matrix(1 0 0 1 46.15384615384608 76.92307692307679)" fill="rgb(122,255,247)" stroke="none" stroke-width="1"/><path id="edoevmx86ew59" d="M461.160000,655.160000C464.380000,655.160000,464.380000,650.160000,461.160000,650.160000C457.940000,650.160000,457.940000,655.160000,461.160000,655.160000Z" fill="rgb(106,67,179)" stroke="none" stroke-width="1"/><path id="edoevmx86ew510" d="M377.870000,563.660000C381.090000,563.660000,381.090000,558.660000,377.870000,558.660000C374.650000,558.660000,374.650000,563.660000,377.870000,563.660000Z" transform="matrix(1 0 0 1 38.46153846153840 46.15384615384642)" fill="rgb(122,255,247)" stroke="none" stroke-width="1"/><path id="edoevmx86ew511" d="M84.410000,481.540000C87.630000,481.540000,87.640000,476.540000,84.410000,476.540000C81.180000,476.540000,81.190000,481.540000,84.410000,481.540000Z" transform="matrix(1 0 0 1 -26.92307692307694 15.38461538461536)" fill="rgb(122,255,247)" stroke="none" stroke-width="1"/><path id="edoevmx86ew512" d="M153.810000,263.340000C157.020000,263.340000,157.030000,258.340000,153.810000,258.340000C150.590000,258.340000,150.580000,263.340000,153.810000,263.340000Z" transform="matrix(1 0 0 1 -138.46153846153848 220.76923076923032)" fill="rgb(122,255,247)" stroke="none" stroke-width="1"/><path id="edoevmx86ew513" d="M342.680000,96.760000C345.890000,96.760000,345.900000,91.760000,342.680000,91.760000C339.460000,91.760000,339.450000,96.760000,342.680000,96.760000Z" fill="rgb(250,114,175)" stroke="none" stroke-width="1"/><path id="edoevmx86ew514" d="M413.060000,255.130000C416.280000,255.130000,416.280000,250.130000,413.060000,250.130000C409.840000,250.130000,409.840000,255.130000,413.060000,255.130000Z" fill="rgb(106,67,179)" stroke="none" stroke-width="1"/><path id="edoevmx86ew515" d="M452.410000,98.760000C455.630000,98.760000,455.640000,93.760000,452.410000,93.760000C449.180000,93.760000,449.190000,98.760000,452.410000,98.760000Z" fill="rgb(122,255,247)" stroke="none" stroke-width="1"/><path id="edoevmx86ew516" d="M240.620000,94.420000C243.830000,94.420000,243.840000,89.420000,240.620000,89.420000C237.400000,89.420000,237.390000,94.420000,240.620000,94.420000Z" transform="matrix(1 0 0 1 30.76923076923072 15.38461538461539)" fill="rgb(106,67,179)" stroke="none" stroke-width="1"/><path id="edoevmx86ew517" d="M44.710000,422.890000C47.920000,422.890000,47.930000,417.890000,44.710000,417.890000C41.490000,417.890000,41.480000,422.890000,44.710000,422.890000Z" fill="rgb(122,255,247)" stroke="none" stroke-width="1"/><path id="edoevmx86ew518" d="M48.230000,615.280000C51.440000,615.280000,51.450000,610.280000,48.230000,610.280000C45.010000,610.280000,45,615.280000,48.230000,615.280000Z" fill="rgb(122,255,247)" stroke="none" stroke-width="1"/><path id="edoevmx86ew519" d="M282.850000,659.850000C286.060000,659.850000,286.070000,654.850000,282.850000,654.850000C279.630000,654.850000,279.620000,659.850000,282.850000,659.850000Z" fill="rgb(122,255,247)" stroke="none" stroke-width="1"/><path id="edoevmx86ew520" d="M147.940000,166C151.160000,166,151.160000,161,147.940000,161C144.720000,161,144.720000,166,147.940000,166Z" transform="matrix(1 0 0 1 38.46153846153840 -46.15384615384610)" fill="rgb(122,255,247)" stroke="none" stroke-width="1"/><path id="edoevmx86ew521" d="M56.440000,95.590000C59.650000,95.590000,59.660000,90.590000,56.440000,90.590000C53.220000,90.590000,53.210000,95.590000,56.440000,95.590000Z" fill="rgb(122,255,247)" stroke="none" stroke-width="1"/><path id="edoevmx86ew522" d="M51.740000,299.710000C54.960000,299.710000,54.970000,294.710000,51.740000,294.710000C48.510000,294.710000,48.520000,299.710000,51.740000,299.710000Z" transform="matrix(1 0 0 1 -7.69230769230769 -38.46153846153840)" fill="rgb(250,114,175)" stroke="none" stroke-width="1"/><path id="edoevmx86ew523" d="M336.810000,216.420000C340.030000,216.420000,340.030000,211.420000,336.810000,211.420000C333.590000,211.420000,333.590000,216.420000,336.810000,216.420000Z" transform="matrix(1 0 0 1 -330.76923076923043 -84.61538461538447)" fill="rgb(122,255,247)" stroke="none" stroke-width="1"/><path id="edoevmx86ew524" d="M404.410000,34.760000C407.630000,34.760000,407.640000,29.760000,404.410000,29.760000C401.180000,29.760000,401.190000,34.760000,404.410000,34.760000Z" fill="rgb(250,114,175)" stroke="none" stroke-width="1"/><path id="edoevmx86ew525" d="M451.770000,168.320000C454.990000,168.320000,455,163.320000,451.770000,163.320000C448.540000,163.320000,448.550000,168.320000,451.770000,168.320000Z" fill="rgb(122,255,247)" stroke="none" stroke-width="1"/><path id="edoevmx86ew526" d="M443.560000,337.250000C446.780000,337.250000,446.790000,332.250000,443.560000,332.250000C440.330000,332.250000,440.340000,337.250000,443.560000,337.250000Z" fill="rgb(122,255,247)" stroke="none" stroke-width="1"/><path id="edoevmx86ew527" d="M389.600000,136.650000C392.820000,136.650000,392.820000,131.650000,389.600000,131.650000C386.380000,131.650000,386.380000,136.650000,389.600000,136.650000Z" fill="rgb(106,67,179)" stroke="none" stroke-width="1"/><path id="edoevmx86ew528" d="M124.410000,136.650000C127.630000,136.650000,127.640000,131.650000,124.410000,131.650000C121.180000,131.650000,121.190000,136.650000,124.410000,136.650000Z" transform="matrix(1 0 0 1 -23.07692307692308 0)" fill="rgb(106,67,179)" stroke="none" stroke-width="1"/><path id="edoevmx86ew529" d="M363.790000,651.640000C367.010000,651.640000,367.010000,646.640000,363.790000,646.640000C360.570000,646.640000,360.570000,651.640000,363.790000,651.640000Z" fill="rgb(122,255,247)" stroke="none" stroke-width="1"/><path id="edoevmx86ew530" d="M434.180000,559C437.400000,559,437.400000,554,434.180000,554C430.960000,554,430.960000,559,434.180000,559Z" fill="rgb(106,67,179)" stroke="none" stroke-width="1"/><path id="edoevmx86ew531" d="M119.590000,637.760000C122.800000,637.760000,122.810000,632.760000,119.590000,632.760000C116.370000,632.760000,116.360000,637.760000,119.590000,637.760000Z" fill="rgb(122,255,247)" stroke="none" stroke-width="1"/><path id="edoevmx86ew532" d="M70.510000,675.100000C73.730000,675.100000,73.740000,670.100000,70.510000,670.100000C67.280000,670.100000,67.290000,675.100000,70.510000,675.100000Z" fill="rgb(106,67,179)" stroke="none" stroke-width="1"/><path id="edoevmx86ew533" d="M41.190000,536.680000C44.400000,536.680000,44.410000,531.680000,41.190000,531.680000C37.970000,531.680000,37.960000,536.680000,41.190000,536.680000Z" transform="matrix(1 0 0 1 -7.69230769230769 0)" fill="rgb(106,67,179)" stroke="none" stroke-width="1"/><path id="edoevmx86ew534" d="M112.750000,401.770000C115.960000,401.770000,115.970000,396.770000,112.750000,396.770000C109.530000,396.770000,109.520000,401.770000,112.750000,401.770000Z" transform="matrix(1 0 0 1 -96.92307692307693 -59.23076923076911)" fill="rgb(122,255,247)" stroke="none" stroke-width="1"/><path id="edoevmx86ew535" d="M28.280000,183.570000C31.500000,183.570000,31.510000,178.570000,28.280000,178.570000C25.050000,178.570000,25.060000,183.570000,28.280000,183.570000Z" fill="rgb(106,67,179)" stroke="none" stroke-width="1"/><path id="edoevmx86ew536" d="M38.840000,38.110000C42.060000,38.110000,42.060000,33.110000,38.840000,33.110000C35.620000,33.110000,35.620000,38.110000,38.840000,38.110000Z" fill="rgb(250,114,175)" stroke="none" stroke-width="1"/><path id="edoevmx86ew537" d="M203.080000,52.180000C206.290000,52.180000,206.300000,47.180000,203.080000,47.180000C199.860000,47.180000,199.850000,52.180000,203.080000,52.180000Z" fill="rgb(122,255,247)" stroke="none" stroke-width="1"/><path id="edoevmx86ew538" d="M323.910000,276.250000C327.120000,276.250000,327.130000,271.250000,323.910000,271.250000C320.690000,271.250000,320.680000,276.250000,323.910000,276.250000Z" transform="matrix(1 0 0 1 107.69230769230751 0)" fill="rgb(122,255,247)" stroke="none" stroke-width="1"/><path id="edoevmx86ew539" d="M399.590000,453.760000C402.800000,453.760000,402.810000,448.760000,399.590000,448.760000C396.370000,448.760000,396.360000,453.760000,399.590000,453.760000Z" transform="matrix(1 0 0 1 61.53846153846143 -61.53846153846143)" fill="rgb(250,114,175)" stroke="none" stroke-width="1"/><path id="edoevmx86ew540" d="M471.720000,264.520000C474.930000,264.520000,474.940000,259.520000,471.720000,259.520000C468.500000,259.520000,468.490000,264.520000,471.720000,264.520000Z" transform="matrix(1 0 0 1 16.15384615384613 0)" fill="rgb(122,255,247)" stroke="none" stroke-width="1"/><path id="edoevmx86ew541" d="M199.560000,665.720000C202.770000,665.720000,202.780000,660.720000,199.560000,660.720000C196.340000,660.720000,196.330000,665.720000,199.560000,665.720000Z" fill="rgb(106,67,179)" stroke="none" stroke-width="1"/><path id="edoevmx86ew542" d="M300.440000,600C303.660000,600,303.670000,595,300.440000,595C297.210000,595,297.220000,600,300.440000,600Z" transform="matrix(1 0 0 1 38.46153846153840 -15.38461538461547)" fill="rgb(250,114,175)" stroke="none" stroke-width="1"/><path id="edoevmx86ew543" d="M251.290000,550.880000C254.510000,550.880000,254.520000,545.880000,251.290000,545.880000C248.060000,545.880000,248.070000,550.880000,251.290000,550.880000Z" fill="rgb(250,114,175)" stroke="none" stroke-width="1"/><path id="edoevmx86ew544" d="M329.770000,521.430000C332.990000,521.430000,332.990000,516.430000,329.770000,516.430000C326.550000,516.430000,326.550000,521.430000,329.770000,521.430000Z" fill="rgb(106,67,179)" stroke="none" stroke-width="1"/><path id="edoevmx86ew545" d="M426,508.520000C429.210000,508.520000,429.220000,503.520000,426,503.520000C422.780000,503.520000,422.770000,508.520000,426,508.520000Z" transform="matrix(1 0 0 1 46.15384615384608 0)" fill="rgb(122,255,247)" stroke="none" stroke-width="1"/><path id="edoevmx86ew546" d="M304,29.900000C307.220000,29.900000,307.230000,24.900000,304,24.900000C300.770000,24.900000,300.780000,29.900000,304,29.900000Z" fill="rgb(122,255,247)" stroke="none" stroke-width="1"/></g><g id="edoevmx86ew547" transform="matrix(1.20000000000000 0 0 1.20000000000000 31.03610534630866 37.99799194222658)"><path id="edoevmx86ew548" d="M208.550000,557.760000L209.910000,533.450000C209.910000,533.450000,208.550000,478.180000,263.820000,478.180000L309.940000,478.180000C309.940000,478.180000,365.210000,478.180000,365.210000,422.900000L365.210000,386.180000C365.210466,380.945615,368.168131,376.160702,372.850000,373.820000L386.850000,368C401.720000,360.570000,396.070000,341.790000,386.850000,327.950000L367.540000,297.770000C366.030000,295.500000,365.220000,288.830000,365.220000,286.100000L365.220000,239.450000C365.220000,178.450000,317.590000,128.910000,226.010000,128.910000C143.100000,128.910000,98.010000,178.400000,98.010000,239.450000L98.010000,557.760000Z" fill="rgb(106,67,179)" stroke="none" stroke-width="1"/><path id="edoevmx86ew549" d="M234,533.450000L232.640000,557.760000L243.180000,557.760000L244.540000,533.450000C244.540000,533.450000,243.180000,478.180000,298.450000,478.180000L287.890000,478.180000C232.620000,478.180000,234,533.450000,234,533.450000Z" transform="matrix(1 0 0 1 -16 0)" fill="rgb(106,67,179)" stroke="none" stroke-width="1"/><path id="edoevmx86ew550" d="M421.450000,328L402.140000,297.820000C400.630000,295.550000,399.820000,288.880000,399.820000,286.150000L399.820000,239.450000C399.820000,178.450000,352.190000,128.910000,260.610000,128.910000C258.920000,128.910000,257.260000,128.910000,255.610000,128.980000C343.610000,130.980000,389.290000,179.640000,389.290000,239.450000L389.290000,286.100000C389.290000,288.830000,390.100000,295.500000,391.610000,297.770000L410.920000,328C420.140000,341.840000,425.780000,360.620000,410.920000,368.050000L396.920000,373.870000C392.238131,376.210702,389.280466,380.995615,389.280000,386.230000L389.280000,422.900000C389.280000,478.180000,334.010000,478.180000,334.010000,478.180000L344.550000,478.180000C344.550000,478.180000,399.820000,478.180000,399.820000,422.900000L399.820000,386.180000C399.820466,380.945615,402.778131,376.160702,407.460000,373.820000L421.460000,368C436.320000,360.570000,430.670000,341.790000,421.450000,328Z" transform="matrix(1 0 0 1 -16 0)" fill="rgb(106,67,179)" stroke="none" stroke-width="1"/><path id="edoevmx86ew551" d="M217,533.450000L215.640000,557.760000L226.180000,557.760000L227.540000,533.450000C227.540000,533.450000,226.180000,478.180000,281.450000,478.180000L270.880000,478.180000C215.610000,478.180000,217,533.450000,217,533.450000Z" transform="matrix(1 0 0 1 20 0)" fill="rgb(106,67,179)" stroke="none" stroke-width="1"/><path id="edoevmx86ew552" d="M404.440000,328L385.130000,297.820000C383.620000,295.550000,382.810000,288.880000,382.810000,286.150000L382.810000,239.450000C382.810000,178.450000,335.180000,128.910000,243.600000,128.910000C241.910000,128.910000,240.250000,128.910000,238.600000,128.980000C326.600000,130.980000,372.280000,179.640000,372.280000,239.450000L372.280000,286.100000C372.280000,288.830000,373.090000,295.500000,374.600000,297.770000L393.910000,328C403.130000,341.840000,408.770000,360.620000,393.910000,368.050000L379.910000,373.870000C375.228131,376.210702,372.270466,380.995615,372.270000,386.230000L372.270000,422.900000C372.270000,478.180000,317,478.180000,317,478.180000L327.540000,478.180000C327.540000,478.180000,382.810000,478.180000,382.810000,422.900000L382.810000,386.180000C382.810466,380.945615,385.768131,376.160702,390.450000,373.820000L404.450000,368C419.310000,360.570000,413.660000,341.790000,404.440000,328Z" transform="matrix(1 0 0 1 20 0)" fill="rgb(106,67,179)" stroke="none" stroke-width="1"/></g><g id="edoevmx86ew553"><path id="edoevmx86ew554" d="M154,787.760000L154,405.260000C154,396.423444,161.163444,389.260000,170,389.260000L170,389.260000C203.493547,391.810723,200.449904,382.050792,200.449904,373.214236L200.449904,293.214236" transform="matrix(1 0 0 1 62 111)" fill="none" stroke="rgb(250,114,175)" stroke-width="3" stroke-miterlimit="10"/><path id="edoevmx86ew555" d="M-70.500000,149.760000L66,149.760000C74.836556,149.760000,82,156.923444,82,165.760000L82,165.760000C82,174.596556,89.163444,181.760000,98,181.760000L178,181.760000" transform="matrix(1 0 0 1 72 101)" fill="none" stroke="rgb(250,114,175)" stroke-width="3" stroke-miterlimit="10"/><path id="edoevmx86ew556" d="M354,253.760000L362,253.760000C370.836556,253.760000,378,246.596556,378,237.760000L378,237.760000C378,228.923444,385.163444,221.760000,394,221.760000L588.500000,221.760000M282,253.760000L330,253.760000" transform="matrix(1 0 0 1 110 66)" fill="none" stroke="rgb(250,114,175)" stroke-width="3" stroke-miterlimit="10"/><line id="edoevmx86ew557" x1="364" y1="413.760000" x2="328" y2="413.760000" transform="matrix(1 0 0 1 110 120)" fill="none" stroke="rgb(250,114,175)" stroke-width="3" stroke-miterlimit="10"/><ellipse id="edoevmx86ew558" rx="8.020000" ry="11.310000" transform="matrix(0.00774960113839 -1.19997497627334 1.19997497627334 0.00774960113839 451.86136079323694 319.52711416576807)" fill="none" stroke="rgb(250,114,175)" stroke-width="3" stroke-miterlimit="10"/><path id="edoevmx86ew559" d="M278,317.760000C300.091390,317.760000,318,335.668610,318,357.760000C318,379.851390,300.091390,397.760000,278,397.760000" transform="matrix(1.20000000000000 0 0 1.20000000000000 30.40000000000003 57.44799804687500)" fill="none" stroke="rgb(250,114,175)" stroke-width="3" stroke-miterlimit="10"/><circle id="edoevmx86ew560" r="56" transform="matrix(1.20000000000000 0 0 1.20000000000000 215.89081999999996 707.09939704687508)" fill="none" stroke="rgb(250,114,175)" stroke-width="3" stroke-miterlimit="10"/><g id="edoevmx86ew561" transform="matrix(1.20000000000000 0 0 1.20000000000000 -100.87263799999999 -56.01328795312497)"><line id="edoevmx86ew562" x1="82" y1="317.760000" x2="114" y2="317.760000" transform="matrix(1 0 0 1 110 101)" fill="none" stroke="rgb(250,114,175)" stroke-width="3" stroke-miterlimit="10"/><line id="edoevmx86ew563" x1="82" y1="301.760000" x2="114" y2="301.760000" transform="matrix(1 0 0 1 110 101)" fill="none" stroke="rgb(250,114,175)" stroke-width="3" stroke-miterlimit="10"/><line id="edoevmx86ew564" x1="82" y1="285.760000" x2="114" y2="285.760000" transform="matrix(1 0 0 1 110 101)" fill="none" stroke="rgb(250,114,175)" stroke-width="3" stroke-miterlimit="10"/></g><polygon id="edoevmx86ew565" points="186,365.760000 170,341.760000 186,317.760000 202,341.760000 186,365.760000" transform="matrix(1.20000000000000 0 0 1.20000000000000 39.26000000000005 42.60799804687497)" fill="none" stroke="rgb(250,114,175)" stroke-width="3" stroke-miterlimit="10"/><line id="edoevmx86ew566" x1="98" y1="557.760000" x2="230" y2="557.760000" transform="matrix(1 0 0 1 52.95797999999999 148.84169399999996)" fill="none" stroke="rgb(250,114,175)" stroke-width="3" stroke-miterlimit="10"/><rect id="edoevmx86ew567" width="16" height="37.579337" rx="0" ry="0" transform="matrix(1.20000000000000 0 0 1.20000000000000 188.40000000000001 260.21239900032867)" fill="none" stroke="rgb(250,114,175)" stroke-width="3" stroke-miterlimit="10"/><g id="edoevmx86ew568" transform="matrix(1 0 0 1 79 129)"><rect id="edoevmx86ew569" width="8" height="8" rx="0" ry="0" transform="matrix(1 0 0 1 234 437.75999999999999)" fill="rgb(250,114,175)" stroke="none" stroke-width="1"/><rect id="edoevmx86ew570" width="8" height="8" rx="0" ry="0" transform="matrix(1 0 0 1 218 437.75999999999999)" fill="rgb(250,114,175)" stroke="none" stroke-width="1"/><rect id="edoevmx86ew571" width="8" height="8" rx="0" ry="0" transform="matrix(1 0 0 1 202 437.75999999999999)" fill="rgb(250,114,175)" stroke="none" stroke-width="1"/><rect id="edoevmx86ew572" width="8" height="8" rx="0" ry="0" transform="matrix(1 0 0 1 234 421.75999999999999)" fill="rgb(250,114,175)" stroke="none" stroke-width="1"/><rect id="edoevmx86ew573" width="8" height="8" rx="0" ry="0" transform="matrix(1 0 0 1 218 421.75999999999999)" fill="rgb(250,114,175)" stroke="none" stroke-width="1"/><rect id="edoevmx86ew574" width="8" height="8" rx="0" ry="0" transform="matrix(1 0 0 1 202 421.75999999999999)" fill="rgb(250,114,175)" stroke="none" stroke-width="1"/><rect id="edoevmx86ew575" width="8" height="8" rx="0" ry="0" transform="matrix(1 0 0 1 234 405.75999999999999)" fill="rgb(250,114,175)" stroke="none" stroke-width="1"/><rect id="edoevmx86ew576" width="8" height="8" rx="0" ry="0" transform="matrix(1 0 0 1 218 405.75999999999999)" fill="rgb(250,114,175)" stroke="none" stroke-width="1"/><rect id="edoevmx86ew577" width="8" height="8" rx="0" ry="0" transform="matrix(1 0 0 1 202 405.75999999999999)" fill="rgb(250,114,175)" stroke="none" stroke-width="1"/></g></g><path id="edoevmx86ew578" d="M-88,0C-88,-28.796127,-48.601058,-52.140000,0,-52.140000C48.601058,-52.140000,88,-28.796127,88,0C88,28.796127,48.601058,52.140000,0,52.140000C-48.601058,52.140000,-88,28.796127,-88,0Z" transform="matrix(1 0 0 1 308.51439099999999 313.16086999999999)" fill="rgb(122,255,247)" stroke="none" stroke-width="1"/><path id="edoevmx86ew579" d="M205.520000,258.190000C180.970000,271.680000,197.520000,308.900000,187.710000,308.900000C177.900000,308.900000,168.230000,277.140000,168.230000,249.130000C168.230000,221.120000,177.880000,207.480000,187.710000,207.480000C197.540000,207.480000,247.300000,235.220000,205.520000,258.190000Z" transform="matrix(1 0 0 1 76 101)" fill="rgb(122,255,247)" stroke="none" stroke-width="1"/><g id="edoevmx86ew580_tr" transform="translate(308.514391,314.759995) rotate(0)"><path id="edoevmx86ew580" d="M246.450000,191.210000L260.810000,205.560000L245.710000,220.670000C245.522233,220.859313,245.266638,220.965798,245,220.965798C244.733362,220.965798,244.477767,220.859313,244.290000,220.670000L243.340000,219.670000C241.927702,218.263771,241.741470,216.041689,242.900000,214.420000C243.422552,213.659114,244.204821,213.115082,245.100000,212.890000L247.100000,212.370000C247.476681,212.277349,247.835040,212.121835,248.160000,211.910000C250.125042,210.654714,251.057765,208.276472,250.470000,206.020000ZM221.090000,191.660000L235.720000,195.580000C237.069146,195.941168,238.217788,196.826955,238.910000,198.040000C239.603691,199.275054,239.783308,200.733543,239.410000,202.100000L238.840000,204.250000C238.765079,204.545322,238.765079,204.854678,238.840000,205.150000C239.028184,206.313210,239.696351,207.343869,240.681440,207.990453C241.666529,208.637037,242.877926,208.840069,244.020000,208.550000L245.570000,208.140000C245.965727,208.032556,246.201805,207.627215,246.100000,207.230000C245.998195,206.832785,240.320000,185.470000,240.310000,185.040000L234,178.760000ZM247.160000,235.850000L232.540000,231.930000C231.188142,231.569179,230.036241,230.683656,229.340000,229.470000C228.646309,228.234946,228.466692,226.776457,228.840000,225.410000L229.410000,223.270000C229.484932,222.971294,229.484932,222.658706,229.410000,222.360000C229.216454,221.197494,228.545611,220.168884,227.559805,219.523076C226.574000,218.877269,225.363054,218.673109,224.220000,218.960000L222.670000,219.380000C222.480957,219.429204,222.319521,219.552121,222.221796,219.721260C222.124071,219.890399,222.098211,220.091649,222.150000,220.280000C222.201789,220.468351,228,242.050000,228,242.470000L234.280000,248.760000ZM269,213.760000L264,208.760000L248.480000,224.290000C248.188727,224.580936,247.850701,224.820935,247.480000,225C245.413233,226.064922,242.896220,225.681723,241.240000,224.050000L240.100000,222.910000C239.347621,222.147785,238.321002,221.719126,237.250000,221.720000C236.376311,221.726072,235.525202,221.998148,234.810000,222.500000C234.069214,223.019307,233.543057,223.790768,233.330000,224.670000L232.900000,226.250000C232.850294,226.440069,232.867962,226.641488,232.950000,226.820000C233.045370,227.001803,233.211980,227.135816,233.410000,227.190000L250.860000,231.860000ZM203.780000,218.540000C203.830000,218.540000,219.280000,203.090000,219.280000,203.090000C220.926145,201.436790,223.450212,201.032939,225.530000,202.090000C225.882878,202.273896,226.203687,202.513659,226.480000,202.800000L228.350000,204.670000C228.561294,204.888485,228.821921,205.053092,229.110000,205.150000C230.212813,205.567145,231.440016,205.502714,232.493084,204.972378C233.546152,204.442042,234.328566,203.494411,234.650000,202.360000L235.060000,200.840000C235.109706,200.649931,235.092038,200.448512,235.010000,200.270000C234.914630,200.088197,234.748020,199.954184,234.550000,199.900000L217.400000,195.310000L199,213.760000ZM217.570000,221.080000C216.979393,218.818160,217.916983,216.433771,219.890000,215.180000C220.216653,214.973626,220.574643,214.821649,220.950000,214.730000L222.950000,214.200000C223.847179,213.985309,224.631798,213.443209,225.150000,212.680000C226.308530,211.058311,226.122298,208.836229,224.710000,207.430000L223.570000,206.290000C223.289000,206.025845,222.851000,206.025845,222.570000,206.290000L207,221.760000L221.690000,236.450000ZM234,208.750000C231.238576,208.750000,229,210.988576,229,213.750000C229,216.511424,231.238576,218.750000,234,218.750000C236.761424,218.750000,239,216.511424,239,213.750000C239,210.988576,236.761424,208.750000,234,208.750000Z" transform="translate(-234,-213.759995)" fill="rgb(106,67,179)" stroke="none" stroke-width="1"/></g><g id="edoevmx86ew581_to" style="offset-path:path('M-5.135600,250.780748Q99.247612,250.779311,127.880955,250.840253C136.627613,250.729543,153.221786,247.943610,154.258608,269.533660C156.333880,280.828885,166.279946,283.131419,174.895783,282.694146L254.248939,282.694146');offset-rotate:0deg"><path id="edoevmx86ew581" d="M81.070000,205.860000C84.290000,205.860000,84.300000,200.860000,81.070000,200.860000C77.840000,200.860000,77.850000,205.860000,81.070000,205.860000Z" transform="scale(3,3) translate(-81.070000,-203.466325)" fill="rgb(122,255,247)" stroke="none" stroke-width="1"/></g><g id="edoevmx86ew582_to" style="offset-path:path('M704.920860,288.112665Q499.318714,288.096039,503.517989,287.911747C495.233013,288.175870,486.706651,295.139660,487.720175,307.935247C483.894486,315.536953,482.190300,320.713831,465.262829,320.114756L383.423356,319.618760');offset-rotate:0deg"><path id="edoevmx86ew582" d="M81.070000,205.860000C84.290000,205.860000,84.300000,200.860000,81.070000,200.860000C77.840000,200.860000,77.850000,205.860000,81.070000,205.860000Z" transform="scale(3,3) translate(-81.070000,-203.466325)" fill="rgb(122,255,247)" stroke="none" stroke-width="1"/></g><g id="edoevmx86ew583_to" style="offset-path:path('M216.006408,905.198470L216.006408,519.198470C214.864012,503.761679,227.783709,498.321996,237.519470,500.833661C257.652061,500.343098,263.596866,498.891594,262.458399,483.387092L262.458399,363.387092');offset-rotate:0deg"><path id="edoevmx86ew583" d="M81.070000,205.860000C84.290000,205.860000,84.300000,200.860000,81.070000,200.860000C77.840000,200.860000,77.850000,205.860000,81.070000,205.860000Z" transform="scale(3,3) translate(-81.070000,-203.466325)" fill="rgb(122,255,247)" stroke="none" stroke-width="1"/></g><rect id="edoevmx86ew584" width="697" height="897" rx="0" ry="0" transform="matrix(1 0 0 1 1.50000000000000 1.50000000000000)" fill="none" stroke="rgb(250,114,175)" stroke-width="3"/></svg>