<svg id="enjxc45u46nd1" xmlns="http://www.w3.org/2000/svg" xmlns:xlink="http://www.w3.org/1999/xlink" viewBox="0 0 70 70" shape-rendering="geometricPrecision" text-rendering="geometricPrecision" width="70" height="70"><style><![CDATA[#enjxc45u46nd1{pointer-events: all}#enjxc45u46nd1:hover #enjxc45u46nd2 {
           animation-name: enjxc45u46nd2_f_p, enjxc45u46nd2_f_o;
           animation-duration: 1500ms;
           animation-fill-mode: forwards;
           animation-timing-function: linear;
           animation-direction: normal;
           animation-iteration-count: infinite;  
        }@keyframes enjxc45u46nd2_f_p { 0% {fill: rgb(255,255,255)} 26% {fill: rgb(151,96,255)} 66.666667% {fill: rgb(122,255,247)} 72.666667% {fill: rgb(250,115,175)} 100% {fill: rgb(255,255,255)} }@keyframes enjxc45u46nd2_f_o { 0% {fill-opacity: 1} 14% {fill-opacity: 1} 26.666667% {fill-opacity: 0} 96.666667% {fill-opacity: 1} 100% {fill-opacity: 1} }#enjxc45u46nd1:hover #enjxc45u46nd3 {
           animation-name: enjxc45u46nd3_f_p, enjxc45u46nd3_f_o;
           animation-duration: 1500ms;
           animation-fill-mode: forwards;
           animation-timing-function: linear;
           animation-direction: normal;
           animation-iteration-count: infinite;  
        }@keyframes enjxc45u46nd3_f_p { 0% {fill: rgb(255,255,255)} 26% {fill: rgb(151,96,255)} 59.333333% {fill: rgb(122,255,247)} 72.666667% {fill: rgb(250,115,175)} 100% {fill: rgb(255,255,255)} }@keyframes enjxc45u46nd3_f_o { 0% {fill-opacity: 1} 11.333333% {fill-opacity: 1} 33.333333% {fill-opacity: 0} 84% {fill-opacity: 1} 100% {fill-opacity: 1} }#enjxc45u46nd1:hover #enjxc45u46nd4 {
           animation-name: enjxc45u46nd4_f_p, enjxc45u46nd4_f_o;
           animation-duration: 1500ms;
           animation-fill-mode: forwards;
           animation-timing-function: linear;
           animation-direction: normal;
           animation-iteration-count: infinite;  
        }@keyframes enjxc45u46nd4_f_p { 0% {fill: rgb(255,255,255)} 26% {fill: rgb(151,96,255)} 59.333333% {fill: rgb(122,255,247)} 72.666667% {fill: rgb(250,115,175)} 100% {fill: rgb(255,255,255)} }@keyframes enjxc45u46nd4_f_o { 0% {fill-opacity: 1} 9.333333% {fill-opacity: 1} 40% {fill-opacity: 0} 79.333333% {fill-opacity: 1} 100% {fill-opacity: 1} }#enjxc45u46nd1:hover #enjxc45u46nd5 {
           animation-name: enjxc45u46nd5_f_p, enjxc45u46nd5_f_o;
           animation-duration: 1500ms;
           animation-fill-mode: forwards;
           animation-timing-function: linear;
           animation-direction: normal;
           animation-iteration-count: infinite;  
        }@keyframes enjxc45u46nd5_f_p { 0% {fill: rgb(255,255,255)} 26% {fill: rgb(151,96,255)} 59.333333% {fill: rgb(122,255,247)} 72.666667% {fill: rgb(250,115,175)} 100% {fill: rgb(255,255,255)} }@keyframes enjxc45u46nd5_f_o { 0% {fill-opacity: 1} 7.333333% {fill-opacity: 1} 46.666667% {fill-opacity: 0} 74.666667% {fill-opacity: 1} 100% {fill-opacity: 1} }#enjxc45u46nd1:hover #enjxc45u46nd6 {
           animation-name: enjxc45u46nd6_f_p, enjxc45u46nd6_f_o;
           animation-duration: 1500ms;
           animation-fill-mode: forwards;
           animation-timing-function: linear;
           animation-direction: normal;
           animation-iteration-count: infinite;  
        }@keyframes enjxc45u46nd6_f_p { 0% {fill: rgb(255,255,255)} 26% {fill: rgb(151,96,255)} 59.333333% {fill: rgb(122,255,247)} 72.666667% {fill: rgb(250,115,175)} 100% {fill: rgb(255,255,255)} }@keyframes enjxc45u46nd6_f_o { 0% {fill-opacity: 1} 4% {fill-opacity: 1} 53.333333% {fill-opacity: 0} 89.333333% {fill-opacity: 1} 100% {fill-opacity: 1} }#enjxc45u46nd1:hover #enjxc45u46nd7 {
           animation-name: enjxc45u46nd7_f_p, enjxc45u46nd7_f_o;
           animation-duration: 1500ms;
           animation-fill-mode: forwards;
           animation-timing-function: linear;
           animation-direction: normal;
           animation-iteration-count: infinite;  
        }@keyframes enjxc45u46nd7_f_p { 0% {fill: rgb(255,255,255)} 26% {fill: rgb(151,96,255)} 59.333333% {fill: rgb(122,255,247)} 72.666667% {fill: rgb(250,115,175)} 100% {fill: rgb(255,255,255)} }@keyframes enjxc45u46nd7_f_o { 0% {fill-opacity: 1} 2.666667% {fill-opacity: 1} 60% {fill-opacity: 0} 82.666667% {fill-opacity: 1} 100% {fill-opacity: 1} }#enjxc45u46nd1:hover #enjxc45u46nd8 {
           animation-name: enjxc45u46nd8_f_p, enjxc45u46nd8_f_o;
           animation-duration: 1500ms;
           animation-fill-mode: forwards;
           animation-timing-function: linear;
           animation-direction: normal;
           animation-iteration-count: infinite;  
        }@keyframes enjxc45u46nd8_f_p { 0% {fill: rgb(255,255,255)} 26% {fill: rgb(151,96,255)} 59.333333% {fill: rgb(122,255,247)} 72.666667% {fill: rgb(250,115,175)} 100% {fill: rgb(255,255,255)} }@keyframes enjxc45u46nd8_f_o { 0% {fill-opacity: 1} 4.666667% {fill-opacity: 1} 20% {fill-opacity: 0} 76% {fill-opacity: 1} 100% {fill-opacity: 1} }]]></style><path id="enjxc45u46nd2" d="M47.450000,12.460000L61.810000,26.810000L46.710000,41.910000C46.522233,42.099313,46.266638,42.205798,46,42.205798C45.733362,42.205798,45.477767,42.099313,45.290000,41.910000L44.340000,41C42.930171,39.588604,42.744251,37.366008,43.900000,35.740000C44.428176,34.986758,45.208616,34.447545,46.100000,34.220000L48.100000,33.700000C48.475190,33.602970,48.832860,33.447754,49.160000,33.240000C51.125042,31.984714,52.057765,29.606472,51.470000,27.350000Z" fill="rgb(255,255,255)" stroke="none" stroke-width="1"/><path id="enjxc45u46nd3" d="M22.090000,12.910000L36.720000,16.830000C38.071175,17.187055,39.221250,18.073946,39.910000,19.290000C40.604737,20.524710,40.784406,21.983622,40.410000,23.350000L39.840000,25.490000C39.765068,25.788706,39.765068,26.101294,39.840000,26.400000C40.028848,27.558746,40.694074,28.585556,41.674423,29.231522C42.654772,29.877489,43.860743,30.083639,45,29.800000L46.560000,29.380000C46.950315,29.272718,47.181998,28.871730,47.080000,28.480000C46.978002,28.088270,41.290000,6.710000,41.280000,6.280000L35,0Z" fill="rgb(255,255,255)" stroke="none" stroke-width="1"/><path id="enjxc45u46nd4" d="M48.160000,57.090000L33.540000,53.170000C32.184594,52.816400,31.030175,51.928941,30.340000,50.710000C29.645263,49.475290,29.465594,48.016378,29.840000,46.650000L30.420000,44.510000C30.489925,44.210696,30.489925,43.899304,30.420000,43.600000C30.226454,42.437494,29.555611,41.408884,28.569805,40.763076C27.584000,40.117269,26.373054,39.913109,25.230000,40.200000L23.680000,40.620000C23.289685,40.727282,23.058002,41.128270,23.160000,41.520000C23.261998,41.911730,29,63.290000,29,63.720000L35.250000,70Z" fill="rgb(255,255,255)" stroke="none" stroke-width="1"/><path id="enjxc45u46nd5" d="M70,35L65,30L49.480000,45.530000C49.191465,45.824162,48.852844,46.064583,48.480000,46.240000C46.403275,47.295420,43.882921,46.891517,42.240000,45.240000L41.100000,44.110000C40.344458,43.386882,39.335758,42.988428,38.290000,43C37.416311,43.006072,36.565202,43.278148,35.850000,43.780000C35.109209,44.303718,34.583393,45.078232,34.370000,45.960000L33.940000,47.530000C33.889447,47.719997,33.907141,47.921706,33.990000,48.100000C34.082361,48.284254,34.250231,48.419280,34.450000,48.470000L51.900000,53.110000Z" fill="rgb(255,255,255)" stroke="none" stroke-width="1"/><path id="enjxc45u46nd6" d="M4.780000,39.790000C4.840000,39.790000,20.280000,24.340000,20.280000,24.340000C21.933468,22.694701,24.462334,22.310313,26.530000,23.390000C26.884622,23.566872,27.206017,23.803689,27.480000,24.090000L29.350000,26C29.558382,26.222039,29.819963,26.387248,30.110000,26.480000C31.212813,26.897145,32.440016,26.832714,33.493084,26.302378C34.546152,25.772042,35.328566,24.824411,35.650000,23.690000L36.060000,22.180000C36.110553,21.990003,36.092859,21.788294,36.010000,21.610000C35.917639,21.425746,35.749769,21.290720,35.550000,21.240000L18.400000,16.600000L0,35Z" fill="rgb(255,255,255)" stroke="none" stroke-width="1"/><path id="enjxc45u46nd7" d="M18.570000,42.320000C17.980865,40.061097,18.918615,37.680345,20.890000,36.430000C21.231363,36.221552,21.607297,36.075920,22,36L23.950000,35.480000C24.846350,35.257496,25.629458,34.712881,26.150000,33.950000C27.304276,32.327144,27.118298,30.108088,25.710000,28.700000L24.570000,27.560000C24.289000,27.295845,23.851000,27.295845,23.570000,27.560000L8,43L22.690000,57.690000Z" fill="rgb(255,255,255)" stroke="none" stroke-width="1"/><circle id="enjxc45u46nd8" r="5" transform="matrix(1 0 0 1 35 35)" fill="rgb(255,255,255)" stroke="none" stroke-width="1"/><rect id="enjxc45u46nd9" width="70" height="70" rx="0" ry="0" fill="rgb(35,32,40)" fill-opacity="0" stroke="none" stroke-width="1"/></svg>