<svg xmlns="http://www.w3.org/2000/svg" viewBox="0 0 700 900"><style>
@keyframes a0_o { 0% { opacity: 1; animation-timing-function: cubic-bezier(.8,0,.2,1); } 50% { opacity: .5; animation-timing-function: cubic-bezier(.8,0,.2,1); } 100% { opacity: 1; } }
@keyframes a1_t { 0% { transform: translate(355.6px,618.4px) rotate(0deg) translate(-355.6px,-618.4px); animation-timing-function: cubic-bezier(.9,0,.7,.2); } 100% { transform: translate(355.6px,618.4px) rotate(-180deg) translate(-355.6px,-618.4px); } }
@keyframes a2_f { 0% { fill: #7548cc; animation-timing-function: cubic-bezier(.4,0,1,1); } 25% { fill: #de4e86; animation-timing-function: cubic-bezier(.4,0,1,1); } 50% { fill: #2ad2c9; animation-timing-function: cubic-bezier(.4,0,1,1); } 75% { fill: #7548cc; } 100% { fill: #7548cc; } }
@keyframes a3_f { 0% { fill: #7548cc; animation-timing-function: cubic-bezier(.4,0,1,1); } 25% { fill: #de4e86; animation-timing-function: cubic-bezier(.4,0,1,1); } 50% { fill: #2ad2c9; animation-timing-function: cubic-bezier(.4,0,1,1); } 75% { fill: #7548cc; } 100% { fill: #7548cc; } }
@keyframes a4_f { 0% { fill: #7548cc; animation-timing-function: cubic-bezier(.4,0,1,1); } 25% { fill: #de4e86; animation-timing-function: cubic-bezier(.4,0,1,1); } 50% { fill: #2ad2c9; animation-timing-function: cubic-bezier(.4,0,1,1); } 75% { fill: #7548cc; } 100% { fill: #7548cc; } }
@keyframes a5_f { 0% { fill: #7548cc; animation-timing-function: cubic-bezier(.4,0,1,1); } 25% { fill: #de4e86; animation-timing-function: cubic-bezier(.4,0,1,1); } 50% { fill: #2ad2c9; animation-timing-function: cubic-bezier(.4,0,1,1); } 75% { fill: #7548cc; } 100% { fill: #7548cc; } }
@keyframes a6_f { 0% { fill: #7548cc; animation-timing-function: cubic-bezier(.4,0,1,1); } 25% { fill: #de4e86; animation-timing-function: cubic-bezier(.4,0,1,1); } 50% { fill: #2ad2c9; animation-timing-function: cubic-bezier(.4,0,1,1); } 75% { fill: #7548cc; } 100% { fill: #7548cc; } }
@keyframes a7_f { 0% { fill: #7548cc; animation-timing-function: cubic-bezier(.4,0,1,1); } 25% { fill: #de4e86; animation-timing-function: cubic-bezier(.4,0,1,1); } 50% { fill: #2ad2c9; animation-timing-function: cubic-bezier(.4,0,1,1); } 75% { fill: #7548cc; } 100% { fill: #7548cc; } }
@keyframes a8_s { 0% { stroke: #7548cc; } 25% { stroke: #de4e86; } 50% { stroke: #2ad2c9; } 75% { stroke: #7548cc; } 100% { stroke: #7548cc; } }
</style><g data-name="ArtBoard - Portal"><g><g><rect class="cls-1" width="700" height="900" fill="#100135"/></g></g><g style="animation: 2s linear infinite both a0_o;"><rect class="cls-2" width="1.9" height="1.9" fill="#2ad2c9" transform="translate(-199.8,245.3) rotate(-45) translate(195.3,362.8)"/><rect class="cls-2" width="1.9" height="1.9" fill="#2ad2c9" transform="translate(-196.1,272.7) rotate(-45) translate(230.2,372.2)"/><rect class="cls-2" width="1.9" height="1.9" fill="#2ad2c9" transform="translate(-167.5,253.4) rotate(-45) translate(221.1,328)"/><rect class="cls-2" width="1.9" height="1.9" fill="#2ad2c9" transform="translate(-235.6,251.6) rotate(-45) translate(185,409.3)"/><rect class="cls-2" width="1.9" height="1.9" fill="#2ad2c9" transform="translate(-262.5,277) rotate(-45) translate(202.1,454.4)"/><rect class="cls-2" width="1.9" height="1.9" fill="#2ad2c9" transform="translate(-234.1,289.3) rotate(-45) translate(231.2,426.3)"/><rect class="cls-2" width="1.9" height="1.9" fill="#2ad2c9" transform="translate(-166.4,303.1) rotate(-45) translate(281.7,351.4)"/><rect class="cls-2" width="1.9" height="1.9" fill="#2ad2c9" transform="translate(-188.4,329.4) rotate(-45) translate(302.4,391.2)"/><rect class="cls-2" width="1.9" height="1.9" fill="#2ad2c9" transform="translate(-194.1,369.9) rotate(-45) translate(348.6,418.3)"/><rect class="cls-2" width="1.9" height="1.9" fill="#2ad2c9" transform="translate(-199,303.8) rotate(-45) translate(266.3,391.2)"/><rect class="cls-2" width="1.9" height="1.9" fill="#2ad2c9" transform="translate(-134.5,329.5) rotate(-45) translate(329.5,326.2)"/><rect class="cls-2" width="1.9" height="1.9" fill="#2ad2c9" transform="translate(-213.8,333.2) rotate(-45) translate(294.4,423.7)"/><rect class="cls-2" width="1.9" height="1.9" fill="#2ad2c9" transform="translate(-250.8,323.7) rotate(-45) translate(264.4,463.7)"/><rect class="cls-2" width="1.9" height="1.9" fill="#2ad2c9" transform="translate(-149.1,276.9) rotate(-45) translate(258.7,317.5)"/><rect class="cls-2" width="1.9" height="1.9" fill="#2ad2c9" transform="translate(-120.6,288.7) rotate(-45) translate(287.3,288.9)"/><rect class="cls-2" width="1.9" height="1.9" fill="#2ad2c9" transform="translate(-73.8,329.2) rotate(-45) translate(359.5,252.8)"/><rect class="cls-2" width="1.9" height="1.9" fill="#2ad2c9" transform="translate(267.6,606.6) rotate(-135) translate(258.4,246.9)"/><rect class="cls-2" width="1.9" height="1.9" fill="#2ad2c9" transform="translate(239,537.7) rotate(-135) translate(229.9,218.4)"/><rect class="cls-2" width="1.9" height="1.9" fill="#2ad2c9" transform="translate(210.5,468.8) rotate(-135) translate(201.4,189.8)"/><rect class="cls-2" width="1.9" height="1.9" fill="#2ad2c9" transform="translate(279.6,389) rotate(-135) translate(219.4,135.6)"/><rect class="cls-2" width="1.9" height="1.9" fill="#2ad2c9" transform="translate(-92,300.5) rotate(-45) translate(315.8,260.4)"/><rect class="cls-2" width="1.9" height="1.9" fill="#2ad2c9" transform="translate(-66.5,289.9) rotate(-45) translate(315.8,224.2)"/><rect class="cls-2" width="1.9" height="1.9" fill="#2ad2c9" transform="translate(43.4,335.5) rotate(-45) translate(425.7,114.4)"/><rect class="cls-2" width="1.9" height="1.9" fill="#2ad2c9" transform="translate(-34.9,324.2) rotate(-45) translate(372.9,203.3)"/><rect class="cls-2" width="1.9" height="1.9" fill="#2ad2c9" transform="translate(311,550.2) rotate(-105.4) translate(364,155.7)"/><rect class="cls-2" width="1.9" height="1.9" fill="#2ad2c9" transform="translate(335,490.5) rotate(-105.4) translate(353.3,116.8)"/><rect class="cls-2" width="1.9" height="1.9" fill="#2ad2c9" transform="translate(209.2,394.8) rotate(-105.4) translate(253.9,116.8)"/><rect class="cls-2" width="1.9" height="1.9" fill="#2ad2c9" transform="translate(145.5,454.7) rotate(-105.4) translate(244.9,171)"/><rect class="cls-2" width="1.9" height="1.9" fill="#2ad2c9" transform="translate(71.4,362.1) rotate(-105.4) translate(172.6,152.9)"/><rect class="cls-2" width="1.9" height="1.9" fill="#2ad2c9" transform="translate(109.5,264.7) rotate(-105.4) translate(154.5,89.7)"/><rect class="cls-2" width="1.9" height="1.9" fill="#2ad2c9" transform="translate(121.4,201.5) rotate(-105.4) translate(136.5,53.6)"/><rect class="cls-2" width="1.9" height="1.9" fill="#2ad2c9" transform="translate(190.1,253.7) rotate(-105.4) translate(190.7,53.6)"/><rect class="cls-2" width="1.9" height="1.9" fill="#2ad2c9" transform="translate(181,186.8) rotate(-105.7) scale(.997,.997) translate(160.7,23.6)"/><rect class="cls-2" width="1.9" height="1.9" fill="#2ad2c9" transform="translate(269.6,254.3) rotate(-105.4) translate(230.7,23.6)"/><rect class="cls-2" width="1.9" height="1.9" fill="#2ad2c9" transform="translate(361.2,344.1) rotate(-105.4) translate(310.7,33.6)"/><rect class="cls-2" width="1.9" height="1.9" fill="#2ad2c9" transform="translate(459.5,398.9) rotate(-105.4) translate(380.7,23.6)"/><rect class="cls-2" width="1.9" height="1.9" fill="#2ad2c9" transform="translate(636.8,533.9) rotate(-105.4) translate(520.7,23.6)"/><rect class="cls-2" width="1.9" height="1.9" fill="#2ad2c9" transform="translate(712.7,591.7) rotate(-105.4) translate(580.7,23.6)"/><rect class="cls-2" width="1.9" height="1.9" fill="#2ad2c9" transform="translate(548.1,466.4) rotate(-105.4) translate(450.7,23.6)"/><rect class="cls-2" width="1.9" height="1.9" fill="#2ad2c9" transform="translate(137.8,322.4) rotate(-105.4) translate(190.7,107.8)"/><rect class="cls-2" width="1.9" height="1.9" fill="#2ad2c9" transform="translate(229.8,320.2) rotate(-105.4) translate(235.8,71.6)"/><rect class="cls-2" width="1.9" height="1.9" fill="#2ad2c9" transform="translate(298.4,372.4) rotate(-105.4) translate(290,71.6)"/><rect class="cls-2" width="1.9" height="1.9" fill="#2ad2c9" transform="translate(228.8,463.9) rotate(-105.4) translate(290,143.9)"/><rect class="cls-2" width="1.9" height="1.9" fill="#2ad2c9" transform="translate(176.5,532.5) rotate(-105.4) translate(290,198.1)"/><rect class="cls-2" width="1.9" height="1.9" fill="#2ad2c9" transform="translate(239.7,544.5) rotate(-105.4) translate(326.2,180)"/><rect class="cls-2" width="1.9" height="1.9" fill="#2ad2c9" transform="translate(335.5,418.7) rotate(-105.4) translate(326.2,80.7)"/><rect class="cls-2" width="1.9" height="1.9" fill="#2ad2c9" transform="translate(275,426.9) rotate(-105.4) translate(299.1,107.8)"/><rect class="cls-2" width="1.9" height="1.9" fill="#2ad2c9" transform="translate(438.4,497) rotate(-105.4) translate(407.5,80.7)"/><rect class="cls-2" width="1.9" height="1.9" fill="#2ad2c9" transform="translate(497,467.6) rotate(-105.4) translate(425.5,43.6)"/><rect class="cls-2" width="1.9" height="1.9" fill="#2ad2c9" transform="translate(368.8,588.5) rotate(-105.4) translate(407.5,152.9)"/><rect class="cls-2" width="1.9" height="1.9" fill="#2ad2c9" transform="translate(281.7,702.9) rotate(-105.4) translate(407.5,243.3)"/><rect class="cls-2" width="1.9" height="1.9" fill="#2ad2c9" transform="translate(192.4,725.3) rotate(-105.4) translate(371.3,288.4)"/><rect class="cls-2" width="1.9" height="1.9" fill="#2ad2c9" transform="translate(140.1,793.9) rotate(-105.4) translate(371.3,342.6)"/><rect class="cls-2" width="1.9" height="1.9" fill="#2ad2c9" transform="translate(71,813.5) rotate(-105.4) translate(344.2,378.8)"/><rect class="cls-2" width="1.9" height="1.9" fill="#2ad2c9" transform="translate(162.5,883.2) rotate(-105.4) translate(416.5,378.8)"/><rect class="cls-2" width="1.9" height="1.9" fill="#2ad2c9" transform="translate(101.3,894.9) rotate(-105.4) translate(390.4,407.9)"/><rect class="cls-2" width="1.9" height="1.9" fill="#2ad2c9" transform="translate(53,932.1) rotate(-105.4) translate(380.4,444.9)"/><rect class="cls-2" width="1.9" height="1.9" fill="#2ad2c9" transform="translate(134,968.1) rotate(-105.4) translate(434.6,432.1)"/><rect class="cls-2" width="1.9" height="1.9" fill="#2ad2c9" transform="translate(226.2,823.3) rotate(-105.4) translate(425.5,324.6)"/><rect class="cls-2" width="1.9" height="1.9" fill="#2ad2c9" transform="translate(228.6,879.3) rotate(-105.4) translate(448.1,351.7)"/><rect class="cls-2" width="1.9" height="1.9" fill="#2ad2c9" transform="translate(292.3,819.4) rotate(-105.4) translate(457.2,297.5)"/><rect class="cls-2" width="1.9" height="1.9" fill="#2ad2c9" transform="translate(269.7,766.1) rotate(-105.4) translate(425.5,279.4)"/><rect class="cls-2" width="1.9" height="1.9" fill="#2ad2c9" transform="translate(359,743.7) rotate(-105.4) translate(461.7,234.2)"/><rect class="cls-2" width="1.9" height="1.9" fill="#2ad2c9" transform="translate(356.8,651.7) rotate(-105.4) translate(425.5,189.1)"/><rect class="cls-2" width="1.9" height="1.9" fill="#2ad2c9" transform="translate(445.6,701.2) rotate(-105.4) translate(488.8,180)"/><rect class="cls-2" width="1.9" height="1.9" fill="#2ad2c9" transform="translate(502.8,744.8) rotate(-105.4) translate(533.9,180)"/><rect class="cls-2" width="1.9" height="1.9" fill="#2ad2c9" transform="translate(510.2,822.7) rotate(-105.4) translate(567.4,216.2)"/><rect class="cls-2" width="1.9" height="1.9" fill="#2ad2c9" transform="translate(571.2,742.7) rotate(-105.4) translate(567.4,152.9)"/><rect class="cls-2" width="1.9" height="1.9" fill="#2ad2c9" transform="translate(614.7,685.5) rotate(-105.4) translate(567.4,107.8)"/><rect class="cls-2" width="1.9" height="1.9" fill="#2ad2c9" transform="translate(563,682.2) rotate(-105.4) translate(540.3,125.8)"/><rect class="cls-2" width="1.9" height="1.9" fill="#2ad2c9" transform="translate(441.8,627.9) rotate(-105.4) translate(459,144.8)"/><rect class="cls-2" width="1.9" height="1.9" fill="#2ad2c9" transform="translate(518.4,648.3) rotate(-105.4) translate(505,125.8)"/><rect class="cls-2" width="1.9" height="1.9" fill="#2ad2c9" transform="translate(492.2,538) rotate(-105.4) translate(449.9,80.7)"/><rect class="cls-2" width="1.9" height="1.9" fill="#2ad2c9" transform="translate(560.8,590.2) rotate(-105.4) translate(504.1,80.7)"/><rect class="cls-2" width="1.9" height="1.9" fill="#2ad2c9" transform="translate(635.4,610.9) rotate(-105.4) translate(549.3,62.6)"/><rect class="cls-2" width="1.9" height="1.9" fill="#2ad2c9" transform="translate(552.6,529.8) rotate(-105.4) translate(477,53.6)"/><rect class="cls-2" width="1.9" height="1.9" fill="#2ad2c9" transform="translate(397.2,427.7) rotate(-105.4) translate(360.5,61.7)"/><rect class="cls-2" width="1.9" height="1.9" fill="#2ad2c9" transform="translate(289.1,311.1) rotate(-105.4) translate(262,44.5)"/><rect class="cls-2" width="1.9" height="1.9" fill="#2ad2c9" transform="translate(289.1,311.1) rotate(-105.4) translate(262,44.5)"/><rect class="cls-2" width="1.9" height="1.9" fill="#2ad2c9" transform="translate(164.6,543) rotate(-135) translate(193.8,236.4)"/><rect class="cls-2" width="1.9" height="1.9" fill="#2ad2c9" transform="translate(194.3,645.6) rotate(-135) translate(229.9,281.6)"/><rect class="cls-2" width="1.9" height="1.9" fill="#2ad2c9" transform="translate(154.6,466.6) rotate(-135) translate(173,200.3)"/><rect class="cls-2" width="1.9" height="1.9" fill="#2ad2c9" transform="translate(100.5,610.4) rotate(-135) translate(175.7,283.4)"/><rect class="cls-2" width="1.9" height="1.9" fill="#2ad2c9" transform="translate(90.4,678.4) rotate(-135) translate(184.7,319.6)"/><rect class="cls-2" width="1.9" height="1.9" fill="#2ad2c9" transform="translate(24.9,705.5) rotate(-135) translate(157.6,346.7)"/><rect class="cls-2" width="1.9" height="1.9" fill="#2ad2c9" transform="translate(95.2,535.9) rotate(-135) translate(157.6,247.3)"/></g><g><path class="cls-1" d="M222.1 666v-183.9h68.8v-23.5h47v-14.4l15-0.1v15.1h8.5v20.5h27.1l-0.1 15l14-0.2v-46.8h49.4v21.1h73l.6 191.1Z" fill="#100135"/><path class="cls-3" d="M222.1 725.8v-233.4h68.8v-29.9h47v-18.3h15v19.1h8.5v26h27.1v7.4l13.9-0.1v-47.9h49.4v26.8h73l.5 242.7Z" opacity=".5" fill="#40267f"/></g><g><path class="cls-4" d="M149.5 697.8l-58.8 13.6v-711.4h3.9l54.9 129.7Z" fill="#40267f"/><rect class="cls-1" width="90.7" height="658.2" fill="#100135"/><rect x="11.6" y="10.5" class="cls-4" width="66.8" height="9.9" fill="#40267f"/><rect x="11.6" y="31.9" class="cls-4" width="66.8" height="9.9" fill="#40267f"/><rect x="11.2" y="53.2" class="cls-2" width="19.7" height="9.9" fill="#2ad2c9"/><rect x="58.1" y="96" class="cls-2" width="20.3" height="9.9" fill="#2ad2c9"/><rect x="11.6" y="117.3" class="cls-4" width="66.8" height="9.9" fill="#40267f"/><rect x="11.6" y="160.1" class="cls-4" width="66.8" height="9.9" fill="#40267f"/><rect x="11.6" y="202.8" class="cls-5" width="66.8" height="9.9" fill="#40ccc2"/><rect x="11.6" y="329.5" class="cls-5" width="66.8" height="9.9" fill="#40ccc2"/><rect x="11.6" y="224.2" class="cls-4" width="66.8" height="9.9" fill="#40267f"/><rect x="11.6" y="288.3" class="cls-4" width="66.8" height="9.9" fill="#40267f"/><path class="cls-4" d="M273.8 689.3l-8.9 3.9v-161.2l8.9 9.8v147.5Z" fill="#40267f"/><rect x="237.5" y="532" class="cls-1" width="27.5" height="144.3" fill="#100135"/><path class="cls-6" d="M249 700.1l-11.5 5.1v-229.7l11.5 15.1v209.5Z" fill="#de4e86"/><rect x="204.7" y="475.6" class="cls-7" width="32.8" height="210.9" fill="#b23f6c"/><path class="cls-6" d="M228.3 688.4l-33.6 9.8v-216.5l33.6 31.9v174.8Z" fill="#de4e86"/><rect x="149.7" y="481.7" class="cls-7" width="45" height="220.3" fill="#b23f6c"/><path class="cls-4" d="M176.4 702.2l-16.8 4.7v-345l16.8 22.8v317.5Z" fill="#40267f"/><rect x="71.9" y="361.9" class="cls-1" width="87.8" height="347.8" fill="#100135"/><rect x="79.8" y="370.7" class="cls-2" width="7.8" height="8.9" fill="#2ad2c9"/><rect x="108.9" y="370.7" class="cls-4" width="7.8" height="8.9" fill="#40267f"/><rect x="123.5" y="370.7" class="cls-4" width="7.8" height="8.9" fill="#40267f"/><rect x="138.1" y="370.7" class="cls-4" width="7.8" height="8.9" fill="#40267f"/><rect x="79.8" y="385.5" class="cls-4" width="7.8" height="8.9" fill="#40267f"/><rect x="108.9" y="385.5" class="cls-4" width="7.8" height="8.9" fill="#40267f"/><rect x="94.3" y="400.3" class="cls-4" width="7.8" height="8.9" fill="#40267f"/><rect x="123.5" y="400.3" class="cls-2" width="7.8" height="8.9" fill="#2ad2c9"/><rect x="138.1" y="400.3" class="cls-4" width="7.8" height="8.9" fill="#40267f"/><rect x="79.8" y="415.1" class="cls-4" width="7.8" height="8.9" fill="#40267f"/><rect x="108.9" y="415.1" class="cls-4" width="7.8" height="8.9" fill="#40267f"/><rect x="79.8" y="519" class="cls-4" width="7.8" height="8.9" fill="#40267f"/><rect x="94.3" y="519" class="cls-4" width="7.8" height="8.9" fill="#40267f"/><rect x="123.5" y="519" class="cls-4" width="7.8" height="8.9" fill="#40267f"/><rect x="123.5" y="533.8" class="cls-4" width="7.8" height="8.9" fill="#40267f"/><rect x="138.1" y="533.8" class="cls-2" width="7.8" height="8.9" fill="#2ad2c9"/><rect x="79.8" y="444.2" class="cls-4" width="7.8" height="8.9" fill="#40267f"/><rect x="108.9" y="444.2" class="cls-4" width="7.8" height="8.9" fill="#40267f"/><rect x="138.1" y="459" class="cls-2" width="7.8" height="8.9" fill="#2ad2c9"/><rect x="79.8" y="475.5" class="cls-4" width="7.8" height="8.9" fill="#40267f"/><rect x="108.9" y="475.5" class="cls-2" width="7.8" height="8.9" fill="#2ad2c9"/><rect x="138.1" y="475.5" class="cls-4" width="7.8" height="8.9" fill="#40267f"/><rect x="94.3" y="490.4" class="cls-4" width="7.8" height="8.9" fill="#40267f"/><rect x="123.5" y="490.4" class="cls-4" width="7.8" height="8.9" fill="#40267f"/><rect x="108.9" y="609.7" class="cls-4" width="7.8" height="8.9" fill="#40267f"/><rect x="94.3" y="624.5" class="cls-4" width="7.8" height="8.9" fill="#40267f"/><rect x="123.5" y="624.5" class="cls-4" width="7.8" height="8.9" fill="#40267f"/><rect x="138.1" y="624.5" class="cls-4" width="7.8" height="8.9" fill="#40267f"/><rect x="138.1" y="550" class="cls-4" width="7.8" height="8.9" fill="#40267f"/><rect x="138.1" y="579.6" class="cls-2" width="7.8" height="8.9" fill="#2ad2c9"/><rect x="79.8" y="638.7" class="cls-4" width="7.8" height="8.9" fill="#40267f"/><rect x="108.9" y="638.7" class="cls-4" width="7.8" height="8.9" fill="#40267f"/><rect x="138.1" y="638.7" class="cls-2" width="7.8" height="8.9" fill="#2ad2c9"/><rect y="357.3" class="cls-7" width="49.7" height="386.3" fill="#b23f6c"/><path class="cls-6" d="M101.6 687.7l-51.8 7.8v-338.2l51.8 47.1v283.3Z" fill="#de4e86"/><rect x="260.2" y="541.7" class="cls-1" width="28.6" height="127" fill="#100135"/><rect x="288.8" y="563" class="cls-1" width="41.9" height="105.8" fill="#100135"/><rect x="327.9" y="477.9" class="cls-1" width="33.3" height="189.7" fill="#100135"/><rect x="350.9" y="614.7" class="cls-1" width="30.5" height="53.4" fill="#100135"/><rect x="367.6" y="511.3" class="cls-1" width="32.2" height="156.3" fill="#100135"/><rect x="384.8" y="590.6" class="cls-1" width="29.9" height="77" fill="#100135"/><rect x="411.2" y="563.6" class="cls-1" width="31.6" height="102.9" fill="#100135"/><rect x="435.9" y="572.8" class="cls-1" width="27.6" height="93.1" fill="#100135"/><rect x="264.6" y="552.6" class="cls-2" width="2.6" height="2.3" fill="#2ad2c9"/><rect x="269.1" y="552.6" class="cls-2" width="2.6" height="2.3" fill="#2ad2c9"/><rect x="278.1" y="552.6" class="cls-2" width="2.6" height="2.3" fill="#2ad2c9"/><rect x="273.6" y="555.9" class="cls-2" width="2.6" height="2.3" fill="#2ad2c9"/><rect x="278.1" y="555.9" class="cls-2" width="2.6" height="2.3" fill="#2ad2c9"/><rect x="282.6" y="555.9" class="cls-2" width="2.6" height="2.3" fill="#2ad2c9"/><rect x="269.1" y="562.4" class="cls-2" width="2.6" height="2.3" fill="#2ad2c9"/><rect x="273.6" y="562.4" class="cls-2" width="2.6" height="2.3" fill="#2ad2c9"/><rect x="282.6" y="562.4" class="cls-2" width="2.6" height="2.3" fill="#2ad2c9"/><rect x="264.6" y="568.9" class="cls-2" width="2.6" height="2.3" fill="#2ad2c9"/><rect x="278.1" y="568.9" class="cls-2" width="2.6" height="2.3" fill="#2ad2c9"/><rect x="282.6" y="568.9" class="cls-2" width="2.6" height="2.3" fill="#2ad2c9"/><rect x="269.1" y="572.2" class="cls-2" width="2.6" height="2.3" fill="#2ad2c9"/><rect x="273.6" y="572.2" class="cls-2" width="2.6" height="2.3" fill="#2ad2c9"/><rect x="278.1" y="572.2" class="cls-2" width="2.6" height="2.3" fill="#2ad2c9"/><rect x="264.6" y="575.5" class="cls-2" width="2.6" height="2.3" fill="#2ad2c9"/><rect x="269.1" y="578.7" class="cls-2" width="2.6" height="2.3" fill="#2ad2c9"/><rect x="273.6" y="578.7" class="cls-2" width="2.6" height="2.3" fill="#2ad2c9"/><rect x="282.6" y="578.7" class="cls-2" width="2.6" height="2.3" fill="#2ad2c9"/><rect x="278.1" y="582" class="cls-2" width="2.6" height="2.3" fill="#2ad2c9"/><rect x="273.6" y="585.3" class="cls-2" width="2.6" height="2.3" fill="#2ad2c9"/><rect x="278.1" y="585.3" class="cls-2" width="2.6" height="2.3" fill="#2ad2c9"/><rect x="264.6" y="588.5" class="cls-2" width="2.6" height="2.3" fill="#2ad2c9"/><rect x="269.1" y="588.5" class="cls-2" width="2.6" height="2.3" fill="#2ad2c9"/><rect x="273.6" y="591.8" class="cls-2" width="2.6" height="2.3" fill="#2ad2c9"/><rect x="278.1" y="591.8" class="cls-2" width="2.6" height="2.3" fill="#2ad2c9"/><rect x="282.6" y="591.8" class="cls-2" width="2.6" height="2.3" fill="#2ad2c9"/><rect x="269.1" y="595.1" class="cls-2" width="2.6" height="2.3" fill="#2ad2c9"/><rect x="273.6" y="631.4" class="cls-2" width="2.6" height="2.3" fill="#2ad2c9"/><rect x="278.1" y="631.4" class="cls-2" width="2.6" height="2.3" fill="#2ad2c9"/><rect x="264.6" y="634.7" class="cls-2" width="2.6" height="2.3" fill="#2ad2c9"/><rect x="282.6" y="634.7" class="cls-2" width="2.6" height="2.3" fill="#2ad2c9"/><rect x="282.6" y="638" class="cls-2" width="2.6" height="2.3" fill="#2ad2c9"/><rect x="264.6" y="598.3" class="cls-2" width="2.6" height="2.3" fill="#2ad2c9"/><rect x="273.6" y="598.3" class="cls-2" width="2.6" height="2.3" fill="#2ad2c9"/><rect x="282.6" y="598.3" class="cls-2" width="2.6" height="2.3" fill="#2ad2c9"/><rect x="278.1" y="601.6" class="cls-2" width="2.6" height="2.3" fill="#2ad2c9"/><rect x="269.1" y="604.9" class="cls-2" width="2.6" height="2.3" fill="#2ad2c9"/><rect x="273.6" y="604.9" class="cls-2" width="2.6" height="2.3" fill="#2ad2c9"/><rect x="282.6" y="608.1" class="cls-2" width="2.6" height="2.3" fill="#2ad2c9"/><rect x="269.1" y="611.4" class="cls-2" width="2.6" height="2.3" fill="#2ad2c9"/><rect x="278.1" y="611.4" class="cls-2" width="2.6" height="2.3" fill="#2ad2c9"/><rect x="264.6" y="614.7" class="cls-2" width="2.6" height="2.3" fill="#2ad2c9"/><rect x="273.6" y="614.7" class="cls-2" width="2.6" height="2.3" fill="#2ad2c9"/><rect x="278.1" y="614.7" class="cls-2" width="2.6" height="2.3" fill="#2ad2c9"/><rect x="269.1" y="617.9" class="cls-2" width="2.6" height="2.3" fill="#2ad2c9"/><rect x="282.6" y="617.9" class="cls-2" width="2.6" height="2.3" fill="#2ad2c9"/><rect x="269.1" y="621.2" class="cls-2" width="2.6" height="2.3" fill="#2ad2c9"/><rect x="273.6" y="621.2" class="cls-2" width="2.6" height="2.3" fill="#2ad2c9"/><rect x="278.1" y="621.2" class="cls-2" width="2.6" height="2.3" fill="#2ad2c9"/><rect x="264.6" y="624.5" class="cls-2" width="2.6" height="2.3" fill="#2ad2c9"/><rect x="269.1" y="627.7" class="cls-2" width="2.6" height="2.3" fill="#2ad2c9"/><rect x="273.6" y="627.7" class="cls-2" width="2.6" height="2.3" fill="#2ad2c9"/><rect x="282.6" y="627.7" class="cls-2" width="2.6" height="2.3" fill="#2ad2c9"/><rect x="417" y="631.1" class="cls-2" width="2.6" height="2.3" fill="#2ad2c9"/><rect x="421.5" y="631.1" class="cls-2" width="2.6" height="2.3" fill="#2ad2c9"/><rect x="426" y="627.8" class="cls-2" width="2.6" height="2.3" fill="#2ad2c9"/><rect x="430.5" y="627.8" class="cls-2" width="2.6" height="2.3" fill="#2ad2c9"/><rect x="435" y="627.8" class="cls-2" width="2.6" height="2.3" fill="#2ad2c9"/><rect x="417" y="621.3" class="cls-2" width="2.6" height="2.3" fill="#2ad2c9"/><rect x="421.5" y="621.3" class="cls-2" width="2.6" height="2.3" fill="#2ad2c9"/><rect x="426" y="621.3" class="cls-2" width="2.6" height="2.3" fill="#2ad2c9"/><rect x="430.5" y="621.3" class="cls-2" width="2.6" height="2.3" fill="#2ad2c9"/><rect x="435" y="621.3" class="cls-2" width="2.6" height="2.3" fill="#2ad2c9"/><rect x="421.5" y="618" class="cls-2" width="2.6" height="2.3" fill="#2ad2c9"/><rect x="417" y="614.8" class="cls-2" width="2.6" height="2.3" fill="#2ad2c9"/><rect x="435" y="614.8" class="cls-2" width="2.6" height="2.3" fill="#2ad2c9"/><rect x="421.5" y="611.5" class="cls-2" width="2.6" height="2.3" fill="#2ad2c9"/><rect x="426" y="611.5" class="cls-2" width="2.6" height="2.3" fill="#2ad2c9"/><rect x="430.5" y="611.5" class="cls-2" width="2.6" height="2.3" fill="#2ad2c9"/><rect x="417" y="637.4" class="cls-2" width="2.6" height="2.3" fill="#2ad2c9"/><rect x="435" y="637.4" class="cls-2" width="2.6" height="2.3" fill="#2ad2c9"/><rect x="426" y="634.2" class="cls-2" width="2.6" height="2.3" fill="#2ad2c9"/><rect x="430.5" y="634.2" class="cls-2" width="2.6" height="2.3" fill="#2ad2c9"/><rect x="417" y="608.2" class="cls-2" width="2.6" height="2.3" fill="#2ad2c9"/><rect x="426" y="605" class="cls-2" width="2.6" height="2.3" fill="#2ad2c9"/><rect x="435" y="605" class="cls-2" width="2.6" height="2.3" fill="#2ad2c9"/><rect x="417" y="601.7" class="cls-2" width="2.6" height="2.3" fill="#2ad2c9"/><rect x="421.5" y="601.7" class="cls-2" width="2.6" height="2.3" fill="#2ad2c9"/><rect x="430.5" y="601.7" class="cls-2" width="2.6" height="2.3" fill="#2ad2c9"/><rect x="426" y="598.4" class="cls-2" width="2.6" height="2.3" fill="#2ad2c9"/><rect x="417" y="595.2" class="cls-2" width="2.6" height="2.3" fill="#2ad2c9"/><rect x="421.5" y="595.2" class="cls-2" width="2.6" height="2.3" fill="#2ad2c9"/><rect x="435" y="595.2" class="cls-2" width="2.6" height="2.3" fill="#2ad2c9"/><rect x="417" y="591.9" class="cls-2" width="2.6" height="2.3" fill="#2ad2c9"/><rect x="426" y="591.9" class="cls-2" width="2.6" height="2.3" fill="#2ad2c9"/><rect x="435" y="591.9" class="cls-2" width="2.6" height="2.3" fill="#2ad2c9"/><rect x="430.5" y="588.6" class="cls-2" width="2.6" height="2.3" fill="#2ad2c9"/><rect x="417" y="585.4" class="cls-2" width="2.6" height="2.3" fill="#2ad2c9"/><rect x="426" y="585.4" class="cls-2" width="2.6" height="2.3" fill="#2ad2c9"/><rect x="435" y="585.4" class="cls-2" width="2.6" height="2.3" fill="#2ad2c9"/><rect x="417" y="582.1" class="cls-2" width="2.6" height="2.3" fill="#2ad2c9"/><rect x="430.5" y="582.1" class="cls-2" width="2.6" height="2.3" fill="#2ad2c9"/><rect x="421.5" y="578.9" class="cls-2" width="2.6" height="2.3" fill="#2ad2c9"/><rect x="426" y="578.9" class="cls-2" width="2.6" height="2.3" fill="#2ad2c9"/><rect x="426" y="575.6" class="cls-2" width="2.6" height="2.3" fill="#2ad2c9"/><rect x="417" y="572.3" class="cls-2" width="2.6" height="2.3" fill="#2ad2c9"/><rect x="421.5" y="572.3" class="cls-2" width="2.6" height="2.3" fill="#2ad2c9"/><rect x="435" y="572.3" class="cls-2" width="2.6" height="2.3" fill="#2ad2c9"/><rect class="cls-2" width="2.6" height="2.3" fill="#2ad2c9" transform="translate(701.1,971.7) rotate(-180) translate(349.3,484.7)"/><rect class="cls-2" width="2.6" height="2.3" fill="#2ad2c9" transform="translate(692.1,971.7) rotate(-180) translate(344.8,484.7)"/><rect class="cls-2" width="2.6" height="2.3" fill="#2ad2c9" transform="translate(674.1,971.7) rotate(-180) translate(335.8,484.7)"/><rect class="cls-2" width="2.6" height="2.3" fill="#2ad2c9" transform="translate(665.1,971.7) rotate(-180) translate(331.3,484.7)"/><rect class="cls-2" width="2.6" height="2.3" fill="#2ad2c9" transform="translate(683.1,978.2) rotate(-180) translate(340.3,488)"/><rect class="cls-2" width="2.6" height="2.3" fill="#2ad2c9" transform="translate(674.1,978.2) rotate(-180) translate(335.8,488)"/><rect class="cls-2" width="2.6" height="2.3" fill="#2ad2c9" transform="translate(683.1,991.3) rotate(-180) translate(340.3,494.5)"/><rect class="cls-2" width="2.6" height="2.3" fill="#2ad2c9" transform="translate(674.1,991.3) rotate(-180) translate(335.8,494.5)"/><rect class="cls-2" width="2.6" height="2.3" fill="#2ad2c9" transform="translate(665.1,991.3) rotate(-180) translate(331.3,494.5)"/><rect class="cls-2" width="2.6" height="2.3" fill="#2ad2c9" transform="translate(692.1,997.8) rotate(-180) translate(344.8,497.8)"/><rect class="cls-2" width="2.6" height="2.3" fill="#2ad2c9" transform="translate(701.1,1004.3) rotate(-180) translate(349.3,501)"/><rect class="cls-2" width="2.6" height="2.3" fill="#2ad2c9" transform="translate(674.1,1004.3) rotate(-180) translate(335.8,501)"/><rect class="cls-2" width="2.6" height="2.3" fill="#2ad2c9" transform="translate(692.1,1010.9) rotate(-180) translate(344.8,504.3)"/><rect class="cls-2" width="2.6" height="2.3" fill="#2ad2c9" transform="translate(683.1,1010.9) rotate(-180) translate(340.3,504.3)"/><rect class="cls-2" width="2.6" height="2.3" fill="#2ad2c9" transform="translate(701.1,1017.4) rotate(-180) translate(349.3,507.6)"/><rect class="cls-2" width="2.6" height="2.3" fill="#2ad2c9" transform="translate(665.1,1017.4) rotate(-180) translate(331.3,507.6)"/><rect class="cls-2" width="2.6" height="2.3" fill="#2ad2c9" transform="translate(692.1,1023.9) rotate(-180) translate(344.8,510.8)"/><rect class="cls-2" width="2.6" height="2.3" fill="#2ad2c9" transform="translate(683.1,1023.9) rotate(-180) translate(340.3,510.8)"/><rect class="cls-2" width="2.6" height="2.3" fill="#2ad2c9" transform="translate(665.1,1023.9) rotate(-180) translate(331.3,510.8)"/><rect class="cls-2" width="2.6" height="2.3" fill="#2ad2c9" transform="translate(701.1,1030.5) rotate(-180) translate(349.3,514.1)"/><rect class="cls-2" width="2.6" height="2.3" fill="#2ad2c9" transform="translate(692.1,1030.5) rotate(-180) translate(344.8,514.1)"/><rect class="cls-2" width="2.6" height="2.3" fill="#2ad2c9" transform="translate(674.1,1030.5) rotate(-180) translate(335.8,514.1)"/><rect class="cls-2" width="2.6" height="2.3" fill="#2ad2c9" transform="translate(683.1,1037) rotate(-180) translate(340.3,517.3)"/><rect class="cls-2" width="2.6" height="2.3" fill="#2ad2c9" transform="translate(674.1,1037) rotate(-180) translate(335.8,517.3)"/><rect class="cls-2" width="2.6" height="2.3" fill="#2ad2c9" transform="translate(701.1,1043.5) rotate(-180) translate(349.3,520.6)"/><rect class="cls-2" width="2.6" height="2.3" fill="#2ad2c9" transform="translate(692.1,1043.5) rotate(-180) translate(344.8,520.6)"/><rect class="cls-2" width="2.6" height="2.3" fill="#2ad2c9" transform="translate(665.1,1043.5) rotate(-180) translate(331.3,520.6)"/><rect class="cls-2" width="2.6" height="2.3" fill="#2ad2c9" transform="translate(701.1,1050.1) rotate(-180) translate(349.3,523.9)"/><rect class="cls-2" width="2.6" height="2.3" fill="#2ad2c9" transform="translate(683.1,1050.1) rotate(-180) translate(340.3,523.9)"/><rect class="cls-2" width="2.6" height="2.3" fill="#2ad2c9" transform="translate(674.1,1050.1) rotate(-180) translate(335.8,523.9)"/><rect class="cls-2" width="2.6" height="2.3" fill="#2ad2c9" transform="translate(665.1,1050.1) rotate(-180) translate(331.3,523.9)"/><rect class="cls-2" width="2.6" height="2.3" fill="#2ad2c9" transform="translate(692.1,1056.6) rotate(-180) translate(344.8,527.1)"/><rect class="cls-2" width="2.6" height="2.3" fill="#2ad2c9" transform="translate(674.1,1056.6) rotate(-180) translate(335.8,527.1)"/><rect class="cls-2" width="2.6" height="2.3" fill="#2ad2c9" transform="translate(701.1,1063.1) rotate(-180) translate(349.3,530.4)"/><rect class="cls-2" width="2.6" height="2.3" fill="#2ad2c9" transform="translate(683.1,1063.1) rotate(-180) translate(340.3,530.4)"/><rect class="cls-2" width="2.6" height="2.3" fill="#2ad2c9" transform="translate(665.1,1063.1) rotate(-180) translate(331.3,530.4)"/><rect class="cls-2" width="2.6" height="2.3" fill="#2ad2c9" transform="translate(701.1,1069.7) rotate(-180) translate(349.3,533.7)"/><rect class="cls-2" width="2.6" height="2.3" fill="#2ad2c9" transform="translate(674.1,1069.7) rotate(-180) translate(335.8,533.7)"/><rect class="cls-2" width="2.6" height="2.3" fill="#2ad2c9" transform="translate(692.1,1076.2) rotate(-180) translate(344.8,536.9)"/><rect class="cls-2" width="2.6" height="2.3" fill="#2ad2c9" transform="translate(683.1,1076.2) rotate(-180) translate(340.3,536.9)"/><rect class="cls-2" width="2.6" height="2.3" fill="#2ad2c9" transform="translate(683.1,1082.7) rotate(-180) translate(340.3,540.2)"/><rect class="cls-2" width="2.6" height="2.3" fill="#2ad2c9" transform="translate(665.1,1082.7) rotate(-180) translate(331.3,540.2)"/><rect class="cls-2" width="2.6" height="2.3" fill="#2ad2c9" transform="translate(701.1,1089.3) rotate(-180) translate(349.3,543.5)"/><rect class="cls-2" width="2.6" height="2.3" fill="#2ad2c9" transform="translate(692.1,1089.3) rotate(-180) translate(344.8,543.5)"/><rect class="cls-2" width="2.6" height="2.3" fill="#2ad2c9" transform="translate(674.1,1089.3) rotate(-180) translate(335.8,543.5)"/><rect class="cls-2" width="2.6" height="2.3" fill="#2ad2c9" transform="translate(665.1,1089.3) rotate(-180) translate(331.3,543.5)"/><rect class="cls-2" width="2.6" height="2.3" fill="#2ad2c9" transform="translate(701.1,1095.8) rotate(-180) translate(349.3,546.8)"/><rect class="cls-2" width="2.6" height="2.3" fill="#2ad2c9" transform="translate(683.1,1095.8) rotate(-180) translate(340.3,546.8)"/><rect class="cls-2" width="2.6" height="2.3" fill="#2ad2c9" transform="translate(674.1,1095.8) rotate(-180) translate(335.8,546.8)"/><rect class="cls-2" width="2.6" height="2.3" fill="#2ad2c9" transform="translate(701.1,1102.3) rotate(-180) translate(349.3,550)"/><rect class="cls-2" width="2.6" height="2.3" fill="#2ad2c9" transform="translate(692.1,1102.3) rotate(-180) translate(344.8,550)"/><rect class="cls-2" width="2.6" height="2.3" fill="#2ad2c9" transform="translate(665.1,1102.3) rotate(-180) translate(331.3,550)"/><rect class="cls-2" width="2.6" height="2.3" fill="#2ad2c9" transform="translate(692.1,1108.9) rotate(-180) translate(344.8,553.3)"/><rect class="cls-2" width="2.6" height="2.3" fill="#2ad2c9" transform="translate(683.1,1108.9) rotate(-180) translate(340.3,553.3)"/><rect class="cls-2" width="2.6" height="2.3" fill="#2ad2c9" transform="translate(674.1,1108.9) rotate(-180) translate(335.8,553.3)"/><rect class="cls-2" width="2.6" height="2.3" fill="#2ad2c9" transform="translate(701.1,1115.4) rotate(-180) translate(349.3,556.5)"/><rect class="cls-2" width="2.6" height="2.3" fill="#2ad2c9" transform="translate(674.1,1115.4) rotate(-180) translate(335.8,556.5)"/><rect class="cls-2" width="2.6" height="2.3" fill="#2ad2c9" transform="translate(692.1,1121.9) rotate(-180) translate(344.8,559.8)"/><rect class="cls-2" width="2.6" height="2.3" fill="#2ad2c9" transform="translate(683.1,1121.9) rotate(-180) translate(340.3,559.8)"/><rect class="cls-2" width="2.6" height="2.3" fill="#2ad2c9" transform="translate(674.1,1121.9) rotate(-180) translate(335.8,559.8)"/><rect class="cls-2" width="2.6" height="2.3" fill="#2ad2c9" transform="translate(665.1,1121.9) rotate(-180) translate(331.3,559.8)"/><path class="cls-6" d="M491.3 710.1l-19.3-10v-425.5l19.3-70.2v505.7Z" fill="#de4e86"/><rect x="491.3" y="204.4" class="cls-7" width="67.1" height="457.9" fill="#b23f6c"/><rect x="495.7" y="209.5" class="cls-8" width="44.1" height="5.1" fill="#eda9c5"/><rect x="532" y="239.2" class="cls-8" width="22.4" height="5.1" fill="#eda9c5"/><rect x="497" y="271.4" class="cls-8" width="28.4" height="5.1" fill="#eda9c5"/><rect x="482.2" y="286.9" class="cls-1" width="91.6" height="404" fill="#100135"/><path class="cls-4" d="M482.2 683.3l-30.6-7.5v-289.1l30.6-99.8v396.4Z" fill="#40267f"/><rect x="489.3" y="293.4" class="cls-2" width="4.1" height="364.7" fill="#2ad2c9"/><rect x="498.1" y="293.4" class="cls-2" width="4.1" height="364.7" fill="#2ad2c9"/><rect x="506.9" y="293.4" class="cls-2" width="4.1" height="364.7" fill="#2ad2c9"/><rect x="515.7" y="293.4" class="cls-2" width="4.1" height="364.7" fill="#2ad2c9"/><rect x="524.6" y="293.4" class="cls-2" width="4.1" height="364.7" fill="#2ad2c9"/><rect x="533.4" y="293.4" class="cls-2" width="4.1" height="364.7" fill="#2ad2c9"/><rect x="542.2" y="293.4" class="cls-2" width="4.1" height="364.7" fill="#2ad2c9"/><rect x="551" y="293.4" class="cls-2" width="4.1" height="364.7" fill="#2ad2c9"/><path class="cls-6" d="M630.7 756.9l-52.9-22.2v-637.1l37-97.6h15.9Z" fill="#de4e86"/><rect x="630.7" class="cls-7" width="69.3" height="717.2" fill="#b23f6c"/><rect x="547.3" y="300.5" class="cls-7" width="69.4" height="356.7" fill="#b23f6c"/><path class="cls-6" d="M547.3 716.7l-49.9-12.7v-299.6l49.9-103.9v416.2Z" fill="#de4e86"/><path class="cls-4" d="M616.5 706l-46.8-11.1v-452.8l46.8-94.8v558.7Z" fill="#40267f"/><rect x="616.5" y="147.3" class="cls-1" width="83.5" height="593.3" fill="#100135"/><g><rect x="633.5" y="157.6" class="cls-2" width="11.3" height="6.6" fill="#2ad2c9"/><rect x="633.5" y="201.9" class="cls-2" width="11.3" height="6.6" fill="#2ad2c9"/><rect x="648.6" y="186.6" class="cls-2" width="11.3" height="6.6" fill="#2ad2c9"/><rect x="663.8" y="157.6" class="cls-2" width="11.3" height="6.6" fill="#2ad2c9"/><rect x="663.8" y="171.6" class="cls-2" width="11.3" height="6.6" fill="#2ad2c9"/><rect x="678.9" y="157.6" class="cls-6" width="11.3" height="6.6" fill="#de4e86"/></g><rect x="597.1" y="445.5" class="cls-1" width="47.8" height="334.5" fill="#100135"/><path class="cls-4" d="M543.2 769.6l53.9 16.7v-340.8l-54 49.4c.1 91.6 .1 183.2 .1 274.7Z" fill="#40267f"/><path class="cls-6" d="M655.6 815.3l-45.2-27.6v-530.4l45.2-77v635Z" fill="#de4e86"/><path class="cls-7" d="M700 815.3l-44.4-0.1v-634.9h44.4c0 211.7 0 423.4 0 635Z" fill="#b23f6c"/><rect x="669.5" y="250.3" class="cls-6" width="15.5" height="55.2" fill="#de4e86"/><rect x="669.5" y="481.8" class="cls-6" width="15.5" height="55.2" fill="#de4e86"/><rect x="669.5" y="401.4" class="cls-8" width="15.5" height="57.6" fill="#eda9c5"/><rect x="669.5" y="324.2" class="cls-8" width="15.5" height="57.6" fill="#eda9c5"/><rect x="669.5" y="564.7" class="cls-6" width="15.5" height="21.6" fill="#de4e86"/><rect x="669.5" y="595.4" class="cls-6" width="15.5" height="21.6" fill="#de4e86"/><rect x="669.5" y="626.1" class="cls-8" width="15.5" height="21.6" fill="#eda9c5"/><path class="cls-6" d="M141.3 778.2l-49.8 28.6v-295.1l49.8 24.3v242.2Z" fill="#de4e86"/><rect x="1" y="511.7" class="cls-7" width="90.5" height="219.7" fill="#b23f6c"/><rect x=".9" y="521.3" class="cls-6" width="80.9" height="6.7" fill="#de4e86"/><rect x=".9" y="532.2" class="cls-8" width="80.9" height="6.7" fill="#eda9c5"/><rect x=".9" y="543" class="cls-6" width="80.9" height="6.7" fill="#de4e86"/><rect x=".9" y="553.8" class="cls-6" width="80.9" height="6.7" fill="#de4e86"/><rect x=".9" y="564.7" class="cls-6" width="80.9" height="6.7" fill="#de4e86"/><rect x=".9" y="575.5" class="cls-6" width="80.9" height="6.7" fill="#de4e86"/><rect x=".9" y="586.3" class="cls-8" width="80.9" height="6.7" fill="#eda9c5"/><rect x=".9" y="597.2" class="cls-6" width="80.9" height="6.7" fill="#de4e86"/><rect x=".9" y="608" class="cls-8" width="80.9" height="6.7" fill="#eda9c5"/><rect x=".9" y="618.8" class="cls-6" width="80.9" height="6.7" fill="#de4e86"/><rect x=".9" y="629.7" class="cls-6" width="80.9" height="6.7" fill="#de4e86"/><rect x=".9" y="640.5" class="cls-6" width="80.9" height="6.7" fill="#de4e86"/><rect x=".9" y="652.2" class="cls-6" width="80.9" height="6.7" fill="#de4e86"/><rect x=".9" y="663.1" class="cls-8" width="80.9" height="6.7" fill="#eda9c5"/><rect x=".9" y="673.9" class="cls-6" width="80.9" height="6.7" fill="#de4e86"/><rect x=".9" y="684.5" class="cls-6" width="80.9" height="6.7" fill="#de4e86"/><rect x=".9" y="695.3" class="cls-8" width="80.9" height="6.7" fill="#eda9c5"/><rect x=".9" y="706.1" class="cls-6" width="80.9" height="6.7" fill="#de4e86"/><rect x=".9" y="717.3" class="cls-6" width="80.9" height="6.7" fill="#de4e86"/></g><g transform="translate(355.6,618.4) translate(-355.6,-618.4)" style="animation: 2s linear infinite both a1_t;"><path class="cls-9" d="M417.1 733.8l-69-18.6c-7.3-2-13.5-6.7-17.2-13.2c-3.8-6.6-4.8-14.3-2.7-21.6l3-11.4c.4-1.5 .4-3.1 .1-4.7c-3.3-14.4-15.8-21.3-27.7-18l-8.2 2.1c-2.1 .6-3.3 2.7-2.9 4.8c0 0 26 97.6 30.3 115.6c.4 1.9 1.4 3.7 2.9 5l27.5 27.6c1 1 2.3 1.6 3.8 1.6c1.4 0 2.7-0.6 3.7-1.6l58.7-58.7c1.3-1.3 1.9-3.3 1.4-5.1c-0.5-1.9-1.9-3.3-3.7-3.8Z" opacity=".85" fill="#7548cc" style="animation: 2s linear infinite both a2_f;"/><path class="cls-9" d="M310.5 556.3c1.9 .9 3.6 2.2 5 3.8l10 9.9c1.1 1.2 2.5 2.1 4 2.6c14.1 4.3 26.4-3 29.5-14.8l2.2-8.1c.3-1 .2-2.1-0.3-3c-0.5-1-1.4-1.8-2.4-2l-88.4-23.8c-1.8-0.4-3.8 0-5.2 1.3l-92.2 92.3c-1.1 .9-1.7 2.3-1.7 3.7c0 1.4 .6 2.8 1.7 3.8l18 18.1c.9 1.1 2.3 1.6 3.7 1.6c1.4 0 2.8-0.5 3.7-1.6c16.3-16.1 79.1-78.7 79.1-78.7c8.5-8.5 21.4-10.8 33.3-5.1Z" opacity=".85" fill="#7548cc" style="animation: 2s linear infinite both a3_f;"/><path class="cls-9" d="M280.4 625.9c1.8-1 3.7-1.9 5.6-2.4l10.6-2.9c4.7-1.2 8.9-4.1 11.8-8.1c6.3-9.5 4.9-20.6-2.3-28.1l-6.1-6c-1.5-1.4-3.9-1.4-5.4 0l-78.9 78.8c-1 1-1.6 2.4-1.6 3.8c0 1.4 .6 2.7 1.6 3.7l60.3 60.6c3.8 3.7 10.4 .1 8.9-5.2l-16.9-62.7c-3-11.6 1.3-24 12.4-31.5Z" opacity=".85" fill="#7548cc" style="animation: 2s linear infinite both a4_f;"/><path class="cls-9" d="M431.3 608.5c-1.7 1.2-3.6 2-5.6 2.4l-10.5 2.9c-4.8 1.2-9 4.1-11.8 8.1c-6.4 9.5-4.9 20.9 2.3 28.1l5 5c1 1 2.3 1.6 3.8 1.6c1.4 0 2.7-0.6 3.7-1.6l76.7-76.8c1-1 1.6-2.3 1.6-3.8c0-1.4-0.6-2.7-1.6-3.7l-58.7-58.7c-1.7-1.7-4.3-2-6.4-0.8c-2.1 1.2-3.1 3.7-2.5 6l16.3 59.8c3.1 11.6-1.2 24-12.3 31.5Z" opacity=".85" fill="#7548cc" style="animation: 2s linear infinite both a5_f;"/><path class="cls-9" d="M295.7 502.9l69 18.5c7.3 2 13.5 6.7 17.2 13.3c3.7 6.5 4.7 14.2 2.7 21.5l-3 11.4c-0.4 1.5-0.5 3.1-0.1 4.7c3.3 14.4 15.8 21.4 27.6 18l8.2-2.1c2.1-0.6 3.4-2.7 2.9-4.8c0 0-25.9-97.6-30.2-115.6c-0.4-1.9-1.4-3.7-2.9-5l-27.5-27.4c-1-1-2.4-1.6-3.8-1.6c-1.4 0-2.8 .6-3.7 1.6l-58.7 58.5c-1.3 1.4-1.9 3.3-1.4 5.1c.5 1.9 1.9 3.3 3.7 3.9Z" opacity=".85" fill="#7548cc" style="animation: 2s linear infinite both a6_f;"/><path class="cls-9" d="M538.6 614.6l-19-19c-1-1.1-2.4-1.7-3.8-1.7c-1.4 0-2.7 .6-3.7 1.7l-79.2 79.1c-1.4 1.5-3.2 2.8-5.1 3.7c-12.1 5.8-24.8 3.3-33.2-5l-6.1-6c-4-4.1-9.5-6.4-15.3-6.4c-4.6 0-9.2 1.5-13 4.2c-3.8 2.8-6.6 6.9-7.9 11.5l-2.1 8.3c-0.4 1-0.3 2.1 .3 3c.4 1 1.3 1.8 2.4 2l90.1 24.1c1.8 .5 3.8 0 5.2-1.2l90.6-90.7c2-2.2 1.9-5.6-0.2-7.6Z" opacity=".85" fill="#7548cc" style="animation: 2s linear infinite both a7_f;"/><path class="cls-6" d="M355.9 591.4c-14.8 0-26.8 12-26.8 26.8c0 14.8 12 26.8 26.8 26.8c14.8 0 26.8-12 26.8-26.8c0-14.8-12-26.8-26.8-26.8Z" fill="#de4e86"/></g><g><path class="cls-4" d="M273.8 655.2h155.5l270.7 116c0 43 0 85.9 0 128.8h-700c.1-42.7 .2-85.3 .3-128Z" fill="#40267f"/><path class="cls-10" d="M428.3 643l271.7 47.6v80.6l-271.5-115.2c-0.1-4.3-0.1-8.7-0.2-13Z" fill="#7548cc"/><path class="cls-10" d="M274.2 642.6l-274.1 47.4c-0.1 27.5-0.1 55.1-0.1 82.6l274-117c.1-4.3 .1-8.7 .2-13Z" fill="#7548cc"/><path class="cls-10" d="M413.9 655.3h14.6l271.5 116.3c0 11.5 0 23 0 34.5Z" fill="#7548cc"/><path class="cls-1" d="M411 655.3l289 161.9v-11.1l-286.1-150.8Z" fill="#100135"/><path class="cls-10" d="M288.3 655.2h-14.5l-273.8 117.1l.1 34.8Z" fill="#7548cc"/><path class="cls-1" d="M291.7 655.3l-291.7 163v-11l288.3-152Z" fill="#100135"/><path class="cls-4" d="M677.8 761.3l-6.9-2.9v-74.8l6.9 1.3v76.4Z" fill="#40267f"/><path class="cls-4" d="M618.3 735.9l-4.7-1.8v-57l4.7 .8v58Z" fill="#40267f"/><path class="cls-4" d="M577.1 718.4l-3.3-1.5v-52l3.3 .6v52.9Z" fill="#40267f"/><path class="cls-4" d="M546.9 705.5l-2.5-1.1v-45.1l2.5 .4v45.8Z" fill="#40267f"/><path class="cls-4" d="M523.9 695.6l-2-0.7v-34.1l2 .4v34.5Z" fill="#40267f"/><path class="cls-4" d="M505.7 687.9l-1.6-0.6v-29.8l1.6 .2v30.2Z" fill="#40267f"/><path class="cls-4" d="M491 681.6l-1.3-0.4v-27l1.3 .2v27.2Z" fill="#40267f"/><path class="cls-4" d="M478.9 675.4l-1.1-0.4v-23l1.1 .1v23.3Z" fill="#40267f"/><path class="cls-4" d="M468.6 672l-0.9-0.3v-21.2l.9 .1v21.4Z" fill="#40267f"/><path class="cls-4" d="M460 668.4l-0.8-0.3v-19.2l.8 .1v19.4Z" fill="#40267f"/><path class="cls-4" d="M452.5 665.2l-0.7-0.2v-17.1l.7 .1v17.2Z" fill="#40267f"/><path class="cls-4" d="M445.9 662.4l-0.5-0.2v-15.9l.6 .1l-0.1 16Z" fill="#40267f"/><path class="cls-4" d="M440.2 659.9l-0.5-0.1v-14.6l.5 .1v14.6Z" fill="#40267f"/><path class="cls-4" d="M435.2 657.8l-0.5-0.2v-13.4h.5v13.6Z" fill="#40267f"/><path class="cls-4" d="M23.7 761.9l6.9-2.8v-71.5l-6.9 1.3v73Z" fill="#40267f"/><path class="cls-4" d="M83.2 736.5l4.7-1.9v-57.3l-4.7 .9v58.3Z" fill="#40267f"/><path class="cls-4" d="M124.4 718.9l3.4-1.3v-48l-3.4 .6v48.7Z" fill="#40267f"/><path class="cls-4" d="M154.6 706l2.5-0.9v-40.8l-2.5 .4v41.3Z" fill="#40267f"/><path class="cls-4" d="M177.6 696.2l2-0.7v-35.6l-2 .3v36Z" fill="#40267f"/><path class="cls-4" d="M195.8 688.5l1.6-0.6v-31.1l-1.6 .3v31.4Z" fill="#40267f"/><path class="cls-4" d="M210.5 682.2l1.3-0.5v-28l-1.3 .2v28.3Z" fill="#40267f"/><path class="cls-4" d="M222.7 677l1.1-0.4v-24.4l-1.1 .2v24.6Z" fill="#40267f"/><path class="cls-4" d="M232.9 672.6l.9-0.3v-22.3l-0.9 .1v22.5Z" fill="#40267f"/><path class="cls-4" d="M241.6 668.9l.7-0.2v-20.3l-0.7 .1v20.4Z" fill="#40267f"/><path class="cls-4" d="M249.1 665.7l.6-0.2v-18.5l-0.6 .1v18.6Z" fill="#40267f"/><path class="cls-4" d="M255.6 662.9l.6-0.1v-16.9l-0.6 .1v16.9Z" fill="#40267f"/><path class="cls-4" d="M261.3 660.5l.5-0.2v-15.6l-0.5 .1v15.7Z" fill="#40267f"/><path class="cls-4" d="M266.4 658.3l.4-0.1v-14.4l-0.4 .1v14.4Z" fill="#40267f"/><path class="cls-4" d="M428.3 642.8v.7l271.7 55.6v-11Z" fill="#40267f"/><path class="cls-4" d="M428.5 654.6v.7l271.5 116.3v-11.9Z" fill="#40267f"/><path class="cls-4" d="M274 654.6v.6l-274 117.4v-12Z" fill="#40267f"/><path class="cls-4" d="M274.2 642.2v.6l-274.1 56.2v-11.2Z" fill="#40267f"/></g><g><path class="cls-8" d="M347.1 621.3c.3 2.5 .8 3.4 .4 3.5c-0.3 .2-1.1-0.5-1.6-1.2c-0.8-1.3-1-3.2-0.3-3.5c.4-0.2 .8-0.1 1 .1c.3 .3 .5 .7 .5 1.1Z" fill="#eda9c5"/><path class="cls-8" d="M364.8 621.3c-0.3 2.5-0.8 3.4-0.4 3.5c.3 .2 1.1-0.5 1.6-1.2c.9-1.3 1-3.2 .3-3.5c-0.4-0.2-0.8-0.1-1 .1c-0.3 .3-0.5 .7-0.5 1.1Z" fill="#eda9c5"/><path class="cls-10" d="M364.3 630.5c-2.9 .2-5.9 .3-9 .3c-2.6 0-5.1 0-7.5-0.2c-0.1-2.7-0.4-5.5-1-8.3c-0.2-0.9-0.3-1.8-0.3-2.8c0-1.4 .3-1.4 .3-2.5c0-2.3-1.3-3.1-0.8-4.9c.1-0.3 .2-0.5 .4-0.8c1.7-2.6 5.3-1.4 8-4.2c.6-0.6 .5-0.7 .9-1c2.9-1.9 10.2 1.7 10.8 5.7c.1 1.5-0.7 2.1-0.5 5c.1 1 .2 2.1 .2 3.2c-0.1 1.1-0.3 2.1-0.7 3.2c-0.8 2.3-1 4.8-0.8 7.3Z" fill="#7548cc"/><path class="cls-8" d="M363.5 635.1h-14.8v-4.4l14.8-0.2c0 1.5 0 3.1 0 4.6Z" fill="#eda9c5"/><path class="cls-4" d="M374.6 717.1c-0.2-1.3-0.5-3.3-0.8-5.7c-1.2-11-0.7-22.1 1.6-33c1.1-5.3 2.6-10.6 4.5-15.7l-4.6 15.7c.9 5 1.6 10.3 2.2 15.8c1.2 11.1 1.8 22.3 1.7 33.4l7.3 1c2.3-10.6 3.8-21.5 4.3-32.4c1.3-28.3-4.3-43.2-9.4-46.6c-4.3-2.5-8.4-5.4-12.1-8.7c-2-1.8-4-3.7-5.8-5.7h-14.8c-2 1.6-4.1 3-6.3 4.3c-2.4 1.3-4.8 2.5-7.4 3.6c-5.7 2.6-8.5 4-9 4.4c-3.9 2.8-5 7.1-6.3 11.7c-5.2 17.9-5.8 14-8 24.5c-2.6 12.4-3.2 25.2-1.8 37.8h12.1c-0.3-3.7-0.3-7.6 0-11.3c.4-4.5 .7-8.9 2.7-14c1.2-3.3 1.8-3.4 3.1-6.9c1.4-3.6 2.3-7.3 2.7-11l-2.6-20.6c1.3 6.8 2.1 13.7 2.6 20.6c.6 9.3 .1 17.3-0.4 28.5c-0.2 4.5-0.4 8.2-0.6 10.8c14.5 6 30.8 5.9 45.2-0.4Z" fill="#40267f"/><path class="cls-10" d="M329 716.8c-0.2 1.7-0.4 4-0.4 6.7c0 0 0 2 0 4.1c.4 8.1 3.3 29.8 3 38c0 2.5-0.2 4.6-0.2 4.6c-0.1 2-0.3 3.4-0.6 5.8c.1 0-0.1 1.9-0.3 5c-0.2 3.8 0 17.7 1.3 36.5c1.4-2.2 3.5-3.7 5.9-4.4c2.3-0.5 4.7-0.3 6.8 .7c3.2-13.4 4.5-27.2 4-41c-0.1-3.8-1.3-13.9 2-26.3c.8-3 1.8-6.1 3.1-9c2.1 10.8 3 21.7 2.4 32.7c-0.5 8.7-1.5 10.6-1.9 22.5c-0.3 8.4 0 13.1-0.8 22.2c-0.4 5.9-1.1 10.6-1.7 13.8l11.2-0.7c7.6-32 11.6-64.8 11.9-97.7c.1-4.5 0-8.8-0.1-13.2c-1.1 .3-2.9 .8-5 1.2c-6.2 1.4-11.3 2.5-17 2.2c-3.6-0.1-3.3-0.6-12.2-2.1c-4.8-0.8-8.8-1.3-11.4-1.6Z" fill="#7548cc"/><path class="cls-8" d="M386.4 728.8c-1.2 10.1-2.7 12.6-3.8 12.7c-0.8 0-1.4-1-2.9-1.1c-1.4 .1-2.6 .7-3.5 1.7c-1.7-5.2-1-11 2-15.6Z" fill="#eda9c5"/><path class="cls-8" d="M310 721.1c2.4 3 2.8 5.2 2.7 6.8c-0.2 1.2-0.6 1.7-0.4 3c.4 2 1.6 3.7 3.3 4.8c.8 .6 2.8 1.9 4.5 1.2c2.5-1 2.5-5.6 2.5-7c-0.1-3.1-1.1-6.2-2.9-8.7" fill="#eda9c5"/><path class="cls-6" d="M344.5 813.9c.9 10.5-0.1 14.8-1.4 16.7c-0.7 .9-1.2 1.9-1.6 3c-1 2.6-0.5 3.9-1.1 5.1c-1.6 3.6-10.6 5.4-13.4 1.6c-2-2.8 .2-7.6 .4-7.9c.7-1.3 1.6-2.5 2.6-3.5c1.5-2 2.8-5.3 1.9-11.6c1.5-2.2 3.9-3.8 6.6-4.3c2-0.4 4.1 0 6 .9Z" fill="#de4e86"/><path class="cls-10" d="M326.1 838.3c0 .8 .3 1.6 .8 2.2c.7 1 1.7 1.7 2.8 2c3.4 1.2 9.3 .3 10.9-3c.8-1.6-0.1-2.5 1-5.6c0-0.1 .2-0.5 .4-1c.3-0.7 .8-1.5 1.3-2.1l.3-0.4c.5-0.6 1-1.7 1.2-4c-0.2-0.9-0.8-1.7-1.6-2.2c-2.1-1.1-5 1-5.5 1.3c-3.2 2.4-2.6 5.2-5.5 8.6c-1.7 1.8-3.8 3.2-6.1 4.2Z" fill="#7548cc"/><path class="cls-6" d="M362.8 828c.4 1.1 4.3 10.9 1.1 13.2c-0.3 .3-0.7 .5-5.9 .8c-4.7 .3-5.1 .2-5.4 0c-3.5-1.9-1.3-11.9-1-13.3Z" fill="#de4e86"/><ellipse cx="354.9" cy="660.2" class="cls-11" rx="3.8" ry="6.5" fill="#20a59f"/><path class="cls-1" d="M363.5 635.1c-2.4 1.8-4.1 4.3-4.9 7.2c-1.3 5.3 2.2 8.2 3.6 14.4c2.3 9.9-4.5 12.1-3 22.1c1.1 7.6 5.1 7.4 10.2 19.2c4.4 10.3 4.8 19.1 5.2 19.1c.4-0.1-1-6.7-1.1-14.6c-0.1-6.9 .4-13.8 1.6-20.7c1.3 15.3 2.7 30.6 4 45.8l7.3 1.2c1.5-6.8 2.6-13.6 3.4-20.5c.7-6.6 1.1-12.8 1.2-18.5c0-6.2-0.3-11.6-0.6-15.7c-1.1-13.8-2.7-19-6.5-22.6c-1.1-0.9-2.1-1.7-2.1-1.7c-1.2-0.8-2.5-1.6-3.7-2.5c-5.2-3.6-10.1-7.7-14.6-12.2Z" fill="#100135"/><path class="cls-1" d="M348.1 635.5c1.8 1.9 4.1 4.9 4.4 8.8c.3 5.2-3.2 6.8-4.8 12.5c-2.2 8.4 3.7 11.8 2.6 20.2c-0.9 6.7-5.4 9.6-9.8 15.2c-5.1 6.4-10.6 16.7-12 33.8c0-0.7 0-1.7 0-2.9c0-0.6 0-0.8 .1-2c.1-2 0-2 .2-4.5c.2-4.3 .2-5.5 .3-8c.4-8.1 .9-16 1.6-23.6c-2.7 4.2-4.8 8.7-6.2 13.5c-1.4 4.7-2.2 9.6-2.4 14.5c-0.2 3.4-0.2 6.3-0.2 8.4h-12.1c-0.4-3.5-0.7-7-0.7-10.6c-0.1-3.1 0-6 .2-8.7c0 0 .1-10.3 1.7-15.9c0-0.1 .3-1 .6-2.2c.4-1.7 .7-3 .7-3.4c.5-2.2 1.2-4.3 2.1-6.3c1.3-3.1 2.7-7.9 5.5-17.5c1-3.4 2-7 5.3-9.3c.6-0.5 1.2-0.8 1.8-1.1c1.6-0.7 3.2-1.4 4.8-2l2-0.9c1.3-0.6 2.6-1.2 4-1.9c3.6-1.8 7-3.8 10.3-6.1Z" fill="#100135"/><path class="cls-4" d="M370.7 721.3c-2.1 .7-4.2 1.3-6.4 1.8c-3 .8-6.1 1.2-9.2 1.2c-1.4 0-2.8-0.1-4.3-0.3c-2.9-0.4-5.9-1-8.8-1.7c-3.2-0.7-6-1.4-8.3-1.9c-0.2 1.4-0.4 3.4-0.4 5.8c-0.1 4.7 .1 9.4 .6 14.1c1.2 12.6 1.4 12.9 1.5 17.6c.1 3.7 0 6.9 0 9.4c-0.2 5.8-0.6 10.2-0.7 11.9c-0.3 3.8-0.7 6.4-0.8 7.2c-0.5 4.8-0.7 12.4 1.1 25.1c2.2-1.1 4.7-1.3 7-0.8c.7-3.4 1.6-8.3 2.2-14.2c.4-3.5 .6-6.4 .8-8.6c0 0 0-1.5 .1-2.9c.3-8.3-1.4-25.6 .3-36.3c.8-5.3 3-12.6 9.3-20.9c3 6.7 4.9 13.7 5.7 21c0 0 1.2 10.4-0.8 27.4l-0.4 3.9c-0.4 3.4-0.5 3.9-0.6 5c-0.1 1.9-0.1 3.8-0.1 5.7c.1 3.7-0.3 8.7-1 18.6c-0.3 4.5-0.8 10-1.4 16.4h3.1c2.4-12 6.3-33.1 9.5-56.8c1.5-11.2 3.1-23.5 2.5-39.4c-0.2-3.5-0.3-6.4-0.5-8.3Z" fill="#40267f"/></g><g><path class="cls-12" d="M348.7 635.1l-0.5 .4c-1.9 1.5-3.8 2.7-5.8 3.9c-2.4 1.3-4.8 2.5-7.3 3.6c-5.7 2.7-8.6 4-9.1 4.4c-3.9 2.9-5 7.2-6.3 11.7c-3.7 12.9-5.1 14.5-6.4 18.3c-0.6 2-1.2 4.1-1.6 6.2c-0.9 4.4-1.8 18.6-1.7 37.8l.4 .2c2.1 2.9 2.4 5.2 2.3 6.6c-0.1 1.4-0.6 1.8-0.4 3c.4 2 1.6 3.8 3.3 4.9c.8 .6 2.8 1.9 4.5 1.2c2.4-1 2.5-5.3 2.5-7c0-3-0.8-6-2.3-8.6h1.7c-0.3-3.9-0.3-7.8 0-11.6c.4-4.5 .7-8.9 2.7-14.1c.6-1.6 1.4-3.2 2.2-4.7c.5-1 .6-1.3 .9-2.2c.6-1.3 1.3-2.6 2-3.8c.9-1.4 1.1-7.6-1.8-27.6l.1 1c1.2 6.4 2 12.9 2.4 19.4c.2 3.2 .5 10-0.4 28.6c-0.8 16.9-1.2 14-1.2 20.3c0 17.2 3.1 21.3 2.8 38.5c-0.2 7-0.7 7.1-1.2 15.4c-0.7 12.1-0.3 24.2 1.3 36.2c1.1 6.4-0.3 9.8-1.8 11.7c-1 1.1-1.9 2.3-2.6 3.5c-0.1 .4-2.4 5.2-0.4 7.9c2.8 3.9 11.8 2 13.4-1.5c.6-1.3 0-2.5 1.1-5.2c.4-1.1 1-2.1 1.6-3c1.3-1.8 2.3-6.2 1.4-16.7c3.2-13.4 4.5-27.2 4-41c-0.1-3.8-1.3-13.9 2-26.3c.8-3.1 1.9-6.1 3.1-9c2.1 10.7 3 21.7 2.4 32.6c-0.5 8.8-1.5 10.7-1.9 22.6c-0.3 8.4 0 13-0.8 22.2c-0.4 5.9-1.1 10.6-1.7 13.8c-0.3 1.4-2.5 11.4 1 13.3c.3 .2 .7 .3 5.4 0c5.2-0.3 5.6-0.5 5.9-0.7c3.2-2.4-0.7-12.2-1.1-13.3c10-51.1 13-80.8 12.7-98.4v.2c0-3-0.2-7.4-0.9-12.7c-0.3-2.8-0.6-4.8-0.7-5.7c-1.2-8.1-1.1-20.4 1.5-33c1.1-5.4 2.6-10.6 4.6-15.7l-4.6 15.7c.8 5 1.6 10.3 2.1 15.8c1.2 10.9 1.6 21.8 1.2 32.8c-0.5 .6-0.9 1.3-1.3 2c-1.9 3.8-2.4 8.2-1.6 12.4c1-1 2.2-1.5 3.6-1.5c1.5 .1 2.1 1.1 2.9 1.1c1.2-0.1 2.8-2.5 4.2-12.5c2.5-10.6 3.9-21.4 4.3-32.3c.6-16.4 1.4-39.5-9.4-46.6c-4.3-2.5-8.3-5.4-12.1-8.7c-2-1.8-4-3.8-5.8-5.8v-4.3c-0.2-1.6-0.2-3.6 1-4.9c.5-0.4 .7-0.4 1.2-0.9c1.6-1.5 2.1-4.4 1.1-5.2c-0.4-0.4-0.9 0-1.3-0.4c-0.7-0.6-0.2-1.9 .2-4.2c.2-1.1 .4-2.2 .4-3.4c-0.5-3.8-7.2-7.4-10.2-5.6c-0.3 .2-0.6 .5-0.8 .8c-3.6 3.7-8.4 2.5-9.2 4.8c-0.6 1.6 .6 4.8 .8 5.5c.2 .4 .6 1.3 .2 1.9c-0.4 .5-1.1 .1-1.7 .6c-0.7 .6-0.5 2.1-0.2 3c.4 .9 .9 1.8 1.7 2.5c1.2 1.6 1.9 3.5 2 5.5" stroke-width="2.6px" stroke="#7548cc" stroke-miterlimit="10" fill="none" opacity=".5" style="animation: 2s linear infinite both a8_s;"/></g><g><path class="cls-13" d="M287.5 899.5l37.4-61.9c0 1.4 .5 2.7 1.3 3.9c.5 .6 1.1 1.2 1.8 1.6c.7 .3 1.6 .5 2.4 .5c1.5 .2 2.9 .2 4.4 0c1.2-0.1 2.3-0.5 3.4-1c.9-0.3 1.6-0.8 2.3-1.5c.5-0.4 .9-1 1.2-1.6l7.9 .3c.2 .7 .4 1.3 .8 1.9c.3 .6 .8 1.2 1.4 1.5c.5 .2 1 .4 1.5 .4c1.3 0 2.7 0 4 0c1.6-0.2 1.5-0.2 3-0.3c.7 0 1.1 0 1.8-0.2c.7-0.1 1.4-0.2 2-0.4c1.2-0.6 2-1.7 2.3-3.1l37.8 59.9Z" opacity=".25" fill="#100135"/></g></g></svg>