<svg fill="none" height="215" viewBox="0 0 215 215" width="215" xmlns="http://www.w3.org/2000/svg"><g fill="#bbafd0"><path clip-rule="evenodd" d="m121.004 83.4427c.421 24.1293-18.798 44.0313-42.9274 44.4523-24.1292.421-44.0312-18.798-44.4524-42.9271-.4212-24.1292 18.798-44.0312 42.9271-44.4523 24.1297-.4212 44.0317 18.7979 44.4527 42.9271zm-43.0671 36.4533c19.7116-.344 35.4121-16.602 35.0681-36.3137-.344-19.7116-16.6025-35.412-36.314-35.068-19.7116.3441-35.4121 16.6024-35.068 36.314.3441 19.7117 16.6024 35.4117 36.3139 35.0677z" fill-rule="evenodd"/><path d="m89.4508 84.2473-10.225 8.0152c-.8531.6687-1.983.6948-2.8646.066l-10.7369-7.659c-1.1442-.8162-1.5362-2.4822-.8987-3.8186l10.2205-21.4217c.9563-2.0043 3.5092-2.0358 4.5188-.0558l10.7414 21.0656c.6638 1.3018.3363 2.9525-.7555 3.8083z"/><path d="m68.1894 89.9237c3.8839 2.7505 8.6131 5.9403 9.7282 5.9926 1.1353.0534 6.2397-3.4496 10.349-6.4181 1.1889-.8589 2.6341.7634 1.8536 2.0862l-10.8579 18.4026c-.5078.86-1.6347.861-2.1492.001l-10.7511-17.9766c-.788-1.3175.6316-2.9346 1.8274-2.0877z"/></g><path clip-rule="evenodd" d="m96 148.486v-.349c0-5.523 4.477-10 10-10h10v-1c0-5.523 4.477-10 10-10h12c5.523 0 10 4.477 10 10v7h12c4.838 0 8.873 3.436 9.8 8h12.2c5.523 0 10 4.477 10 10v14c0 .338-.019.672-.055 1h.055c2.209 0 4 1.791 4 4s-1.791 4-4 4h-168c-2.2091 0-4-1.791-4-4s1.7909-4 4-4h12.0549c-.0363-.328-.0549-.662-.0549-1v-8.394c0-5.522 4.4772-10 10-10h10.9706c1.6084-3.369 5.0471-5.697 9.0294-5.697h12c.1152 0 .2299.002.3441.006 1.8344-2.18 4.5833-3.566 7.6559-3.566zm10-2.349c-1.105 0-2 .896-2 2v28c0 .553.448 1 1 1h14c.552 0 1-.447 1-1v-28c0-1.104-.895-2-2-2zm-20 10.349c-1.1046 0-2 .895-2 2v17.651c0 .553.4477 1 1 1h14c.5523 0 1-.447 1-1v-17.651c0-1.105-.8954-2-2-2zm-22 5.56c0-1.104.8954-2 2-2h12c1.1046 0 2 .896 2 2v14.091c0 .553-.4477 1-1 1h-14c-.5523 0-1-.447-1-1zm-18 3.697c-1.1046 0-2 .896-2 2v8.394c0 .553.4477 1 1 1h14c.5523 0 1-.447 1-1v-8.394c0-1.104-.8954-2-2-2zm98-11.606c0-1.104.895-2 2-2h14c1.105 0 2 .896 2 2v22c0 .553-.448 1-1 1h-16c-.552 0-1-.447-1-1zm24 6c-1.105 0-2 .896-2 2v14c0 .553.448 1 1 1h16c.552 0 1-.447 1-1v-14c0-1.104-.895-2-2-2z" fill="#180041" fill-rule="evenodd"/><path d="m124 137.137c0-1.104.895-2 2-2h12c1.105 0 2 .896 2 2v39c0 .553-.448 1-1 1h-14c-.552 0-1-.447-1-1z" fill="#00ed92"/></svg>