<?xml version="1.0" encoding="UTF-8"?>
<svg width="34px" height="41px" viewBox="0 0 34 41" version="1.1" xmlns="http://www.w3.org/2000/svg" xmlns:xlink="http://www.w3.org/1999/xlink">
    <!-- Generator: Sketch 51.3 (57544) - http://www.bohemiancoding.com/sketch -->
    <title>Group</title>
    <desc>Created with Sketch.</desc>
    <defs></defs>
    <g id="Page-1" stroke="none" stroke-width="1" fill="none" fill-rule="evenodd">
        <g id="Group" transform="translate(16.669826, 19.668769) rotate(41.000000) translate(-16.669826, -19.668769) translate(5.669826, -5.331231)" fill-rule="nonzero">
            <path d="M13.9802956,46.0533333 L13.9802956,49.0755556 C13.9802956,49.6444444 13.7832512,50 13.5073892,50 C13.2118227,50 13.0147783,49.6444444 13.0147783,49.1111111 C12.9950739,47.0488889 12.9950739,44.9866667 13.0147783,42.9244444 C13.0147783,42.3911111 13.2118227,42 13.5073892,42 C13.862069,42 14,42.4622222 14,43.0666667 C14,44.0622222 14,45.0577778 13.9802956,46.0533333 C14,46.0533333 13.9802956,46.0533333 13.9802956,46.0533333 Z" id="Shape" fill="#F9006C"></path>
            <path d="M9,44.6033217 C8.80156734,45.4015133 9.34274732,47.0673044 8.47685935,46.9978965 C7.75528604,46.9631925 8.0619547,45.4362173 8.07999403,44.6033217 C8.09803336,43.6663142 7.70116804,41.9658191 8.54901668,42.0005231 C9.28862932,42.0352271 8.81960667,43.7010182 9,44.6033217 Z" id="Shape" fill="#F9006C"></path>
            <path d="M5.07299548,19.0929452 C4.73994429,12.0224364 6.23867463,6.30513498 9.7690172,1.19677693 C10.834781,-0.393241806 11.2011373,-0.393241806 12.2669011,1.16294674 C15.4308874,5.763852 17.2626689,10.8722101 16.9629228,16.4880209 C16.6964819,21.0212658 17.6623303,25.0132277 20.0269937,28.7683783 C20.6930961,29.8171141 21.1593678,30.9673404 21.7255548,32.0499063 C22.3250469,33.2001327 21.9253855,33.7752458 20.6930961,33.7752458 C19.0278402,33.809076 17.3625842,33.8429062 15.6973283,33.7752458 C14.8313952,33.7414156 14.5316492,34.0458873 14.5649543,34.9254721 C14.6315645,36.2110192 14.5982594,37.5303964 14.5649543,38.8159435 C14.5649543,39.4248868 14.4317338,40 13.6990212,40 C12.9330035,40 12.9330035,39.3910567 12.8330881,38.8159435 C12.7664779,38.2408303 13.1994444,37.3612455 12.4334267,37.1920946 C11.5008834,36.9891135 10.4351196,37.0567738 9.46927114,37.2259248 C9.00299947,37.2935851 9.23613531,38.004019 9.20283019,38.4438115 C9.13621995,39.086585 9.30274554,39.9661698 8.3368971,39.9661698 C7.23782819,39.9661698 7.4376589,39.0189246 7.4376589,38.3423209 C7.40435378,37.3274153 7.33774354,36.3125098 7.4376589,35.2976042 C7.60418449,33.9443967 7.00469236,33.6737553 5.83901321,33.7752458 C4.50680846,33.8767364 3.17460372,33.809076 1.84239897,33.809076 C-0.155908144,33.809076 -0.389043974,33.436944 0.47688911,31.6777743 C1.24290684,30.1215858 1.97561945,28.531567 2.84155253,27.0430389 C4.50680846,24.3027938 5.60587738,21.4948884 5.07299548,19.0929452 Z" id="Shape" fill="#3E00FF"></path>
            <path d="M11.0180425,5 C13.5297388,8.45293188 14.8468478,12.0770835 14.9387391,15.9866014 C15.0612609,20.2670955 14.9387391,24.5475896 15,28.799547 C15,29.7412557 14.7549565,30.026622 13.7441519,29.9980853 C11.8756948,29.9124755 9.9766074,29.9695487 8.07751995,29.9695487 C7.4649111,29.9695487 7.00545446,29.9410121 7.0360849,29.1705232 C7.18923712,24.0339303 6.69915003,18.8973374 7.34238933,13.7892811 C7.70995464,10.6787888 8.93517235,7.79658946 11.0180425,5 Z" id="Shape" fill="#25E899"></path>
            <path d="M5.09865055,27.5892314 L5.09865055,29.519489 C5.09865055,31.6802252 5.09865055,31.6802252 3.09865055,31.5361761 C3.56018901,30.0956853 4.27813773,28.8568633 5.09865055,27.5892314 Z" id="Shape" fill="#25E899"></path>
            <path d="M17.4504657,26.1784628 C18.0327441,27.7285929 18.6150226,29.2442756 19.1973011,30.7944058 C17.3238834,31.5177998 17.1973011,31.3800105 17.1973011,28.968697 L17.1973011,26.2818048 C17.2732505,26.2473575 17.3745163,26.2129101 17.4504657,26.1784628 Z" id="Shape" fill="#25E899"></path>
            <path d="M10.9920625,33 C10.3763906,32.9790383 9.83315069,33 9.32612675,32.9161533 C8.9277508,32.8532682 8.9639668,32.5598047 9.07261478,32.3711495 C9.32612675,31.8261458 10.1953106,32.0567243 10.7023346,32.077686 C11.4628705,32.1196093 12.4044864,31.7422991 12.9115103,32.3501878 C13.0563743,32.5178813 13.0563743,32.8323065 12.6579983,32.8951916 C12.1509744,33 11.5353025,32.9790383 10.9920625,33 Z" id="Shape" fill="#25E899"></path>
            <path d="M14,19 C14,20.6285714 12.6285714,22 11,22 C9.4,22 8,20.6 8,19 C8,17.3714286 9.37142857,16 11,16 C12.6285714,16 14,17.3714286 14,19 Z" id="Shape" fill="#25E899"></path>
            <path d="M13,18.960716 C12.84485,20.136375 12.2242502,20.9593362 11.0606255,20.9985249 C9.89700074,21.0377135 9.08246343,20.2931295 9.00488845,19.1174705 C8.92731347,17.8242457 9.78063827,17.0012844 11.021838,17.0012844 C12.1854627,16.9620958 12.8060625,17.8242457 13,18.960716 Z" id="Shape" fill="#3E00FF"></path>
        </g>
    </g>
</svg>