<svg width="1400" height="900" viewBox="0 0 1400 900" preserveAspectRatio="xMidYMid slice" fill="none" xmlns="http://www.w3.org/2000/svg">
<g clip-path="url(#clip0)">
<rect width="1400" height="900" fill="#0E0333"/>
<path d="M1280 100L1400.49 610.884" stroke="#3B3058"/>
<path d="M1280 100L1000.49 900.108" stroke="#3B3058"/>
<path d="M1405 601L142 915" stroke="#3B3058"/>
<path d="M1420 455L2.99995 915" stroke="#3B3058"/>
<path d="M1413 375L-9.00002 904" stroke="#3B3058"/>
<path d="M1411 316L-5.99997 886" stroke="#3B3058"/>
<path d="M1412 277L-9.99998 876" stroke="#3B3058"/>
<path d="M1280 99.9999L1257 -7" stroke="#3B3058"/>
<path d="M1280 99.9999L1408 178" stroke="#3B3058"/>
<path d="M1280 100L-3.99996 458" stroke="#3B3058"/>
<path d="M1280 100L-5.00006 370" stroke="#3B3058"/>
<path d="M1280 100L-8.99997 232" stroke="#3B3058"/>
<path d="M299 -5L-11 490" stroke="#3B3058"/>
<path d="M615 -7L-119 789" stroke="#3B3058"/>
<path d="M800 -11L-95 800" stroke="#3B3058"/>
<path d="M914 -8L-82 808" stroke="#3B3058"/>
<path d="M993 -9L-72 816" stroke="#3B3058"/>
<path d="M1280 100L205 -5.00001" stroke="#3B3058"/>
<path d="M1280 99.9999L1083 -9.00007" stroke="#3B3058"/>
<path d="M1280 100L283 903" stroke="#3B3058"/>
<path d="M1280 100L332 901" stroke="#3B3058"/>
<path d="M1280 100L397 901" stroke="#3B3058"/>
<path d="M1280 100L473 902" stroke="#3B3058"/>
<path d="M1280 100L583 904" stroke="#3B3058"/>
<path d="M1280 100L743 903" stroke="#3B3058"/>
</g>
<defs>
<clipPath id="clip0">
<rect width="1400" height="900" fill="white"/>
</clipPath>
</defs>
</svg>
