<svg xmlns="http://www.w3.org/2000/svg" preserveAspectRatio="xMidYMid slice" width="1400" height="900" viewBox="0 0 1400 900">
<g id="hero">
<polygon points="382.4,670.6 367.8,639.6 448.7,639.6 460.1,670.6 "/>
<polygon points="480.2,725.8 408.3,725.8 395.8,699.1 470.5,699.1 "/>
<polygon points="470.5,699.1 395.8,699.1 382.4,670.6 460.1,670.6 "/>
<polygon points="436.4,606 352,606 334.7,569 422.9,569 "/>
<polygon points="334.7,569 315.7,528.8 408.2,528.8 422.9,569 "/>
<polygon points="448.7,639.6 367.8,639.6 352,606 436.4,606 "/>
<polygon points="306.9,251.9 185.5,251.9 149,174.2 278.5,174.2 "/>
<polygon points="331.9,320.4 217.6,320.4 185.5,251.9 306.9,251.9 "/>
<polygon points="374.1,435.6 271.9,435.6 246.3,381.2 354.2,381.2 "/>
<polygon points="392,484.6 294.9,484.6 271.9,435.6 374.1,435.6 "/>
<polygon points="408.2,528.8 315.7,528.8 294.9,484.6 392,484.6 "/>
<polygon points="246.3,381.2 217.6,320.4 331.9,320.4 354.2,381.2 "/>
<polygon points="190.4,850.6 167.5,819.6 294.5,819.6 312.4,850.6 "/>
<polygon points="344,905.8 231.1,905.8 211.4,879.1 328.8,879.1 "/>
<polygon points="328.8,879.1 211.4,879.1 190.4,850.6 312.4,850.6 "/>
<polygon points="275.2,786 142.6,786 115.5,749 254,749 "/>
<polygon points="115.5,749 85.6,708.8 230.9,708.8 254,749 "/>
<polygon points="294.5,819.6 167.5,819.6 142.6,786 275.2,786 "/>
<polygon points="71.8,431.9 -118.9,431.9 -176.2,354.2 27.2,354.2 "/>
<polygon points="111.1,500.4 -68.5,500.4 -118.9,431.9 71.8,431.9 "/>
<polygon points="177.4,615.6 16.8,615.6 -23.4,561.2 146.1,561.2 "/>
<polygon points="205.5,664.6 53,664.6 16.8,615.6 177.4,615.6 "/>
<polygon points="230.9,708.8 85.6,708.8 53,664.6 205.5,664.6 "/>
<polygon points="-23.4,561.2 -68.5,500.4 111.1,500.4 146.1,561.2 "/>
<polygon points="1087.6,850.6 1105.5,819.6 1232.5,819.6 1209.6,850.6 "/>
<polygon points="1071.2,879.1 1188.6,879.1 1168.9,905.8 1056,905.8 "/>
<polygon points="1087.6,850.6 1209.6,850.6 1188.6,879.1 1071.2,879.1 "/>
<polygon points="1146,749 1284.5,749 1257.4,786 1124.8,786 "/>
<polygon points="1146,749 1169.1,708.8 1314.4,708.8 1284.5,749 "/>
<polygon points="1124.8,786 1257.4,786 1232.5,819.6 1105.5,819.6 "/>
<polygon points="1372.8,354.2 1576.2,354.2 1518.9,431.9 1328.2,431.9 "/>
<polygon points="1328.2,431.9 1518.9,431.9 1468.5,500.4 1288.9,500.4 "/>
<polygon points="1253.9,561.2 1423.4,561.2 1383.2,615.6 1222.6,615.6 "/>
<polygon points="1222.6,615.6 1383.2,615.6 1347,664.6 1194.5,664.6 "/>
<polygon points="1194.5,664.6 1347,664.6 1314.4,708.8 1169.1,708.8 "/>
<polygon points="1253.9,561.2 1288.9,500.4 1468.5,500.4 1423.4,561.2 "/>
<polygon points="450.1,670.6 461.5,639.6 542.4,639.6 527.8,670.6 "/>
<polygon points="439.7,699.1 514.4,699.1 501.9,725.8 430,725.8 "/>
<polygon points="450.1,670.6 527.8,670.6 514.4,699.1 439.7,699.1 "/>
<polygon points="326.1,41.6 300.2,-13.4 443.7,-13.4 464,41.6 "/>
<polygon points="499.6,139.6 372.1,139.6 349.9,92.2 482.4,92.2 "/>
<polygon points="482.4,92.2 349.9,92.2 326.1,41.6 464,41.6 "/>
<polygon points="446.2,41.6 466.5,-13.4 610,-13.4 584.1,41.6 "/>
<polygon points="920.8,92.2 1053.3,92.2 1031.1,139.6 903.6,139.6 "/>
<polygon points="446.2,41.6 584.1,41.6 560.3,92.2 427.8,92.2 "/>
<polygon points="819.1,41.6 793.2,-13.4 936.7,-13.4 957,41.6 "/>
<polygon points="992.6,139.6 865.1,139.6 842.9,92.2 975.4,92.2 "/>
<polygon points="975.4,92.2 842.9,92.2 819.1,41.6 957,41.6 "/>
<polygon points="939.2,41.6 959.5,-13.4 1103,-13.4 1077.1,41.6 "/>
<polygon points="427.8,92.2 560.3,92.2 538.1,139.6 410.6,139.6 "/>
<polygon points="939.2,41.6 1077.1,41.6 1053.3,92.2 920.8,92.2 "/>
<polygon points="487.3,569 575.5,569 558.2,606 473.8,606 "/>
<polygon points="487.3,569 502,528.8 594.5,528.8 575.5,569 "/>
<polygon points="473.8,606 558.2,606 542.4,639.6 461.5,639.6 "/>
<polygon points="631.7,174.2 761.2,174.2 724.7,251.9 603.3,251.9 "/>
<polygon points="603.3,251.9 724.7,251.9 692.6,320.4 578.3,320.4 "/>
<polygon points="556,381.2 663.9,381.2 638.3,435.6 536.1,435.6 "/>
<polygon points="536.1,435.6 638.3,435.6 615.3,484.6 518.2,484.6 "/>
<polygon points="518.2,484.6 615.3,484.6 594.5,528.8 502,528.8 "/>
<polygon points="556,381.2 578.3,320.4 692.6,320.4 663.9,381.2 "/>
<polygon points="939.9,670.6 951.3,639.6 1032.2,639.6 1017.6,670.6 "/>
<polygon points="929.5,699.1 1004.2,699.1 991.7,725.8 919.8,725.8 "/>
<polygon points="939.9,670.6 1017.6,670.6 1004.2,699.1 929.5,699.1 "/>
<polygon points="977.1,569 1065.3,569 1048,606 963.6,606 "/>
<polygon points="977.1,569 991.8,528.8 1084.3,528.8 1065.3,569 "/>
<polygon points="963.6,606 1048,606 1032.2,639.6 951.3,639.6 "/>
<polygon points="1121.5,174.2 1251,174.2 1214.5,251.9 1093.1,251.9 "/>
<polygon points="1093.1,251.9 1214.5,251.9 1182.4,320.4 1068.1,320.4 "/>
<polygon points="1045.8,381.2 1153.7,381.2 1128.1,435.6 1025.9,435.6 "/>
<polygon points="1025.9,435.6 1128.1,435.6 1105.1,484.6 1008,484.6 "/>
<polygon points="1008,484.6 1105.1,484.6 1084.3,528.8 991.8,528.8 "/>
<polygon points="1045.8,381.2 1068.1,320.4 1182.4,320.4 1153.7,381.2 "/>
<polygon points="871.9,670.6 857.3,639.6 938.2,639.6 949.6,670.6 "/>
<polygon points="969.7,725.8 897.8,725.8 885.3,699.1 960,699.1 "/>
<polygon points="960,699.1 885.3,699.1 871.9,670.6 949.6,670.6 "/>
<polygon points="925.9,606 841.5,606 824.2,569 912.4,569 "/>
<polygon points="824.2,569 805.2,528.8 897.7,528.8 912.4,569 "/>
<polygon points="938.2,639.6 857.3,639.6 841.5,606 925.9,606 "/>
<polygon points="796.4,251.9 675,251.9 638.5,174.2 768,174.2 "/>
<polygon points="821.4,320.4 707.1,320.4 675,251.9 796.4,251.9 "/>
<polygon points="863.6,435.6 761.4,435.6 735.8,381.2 843.7,381.2 "/>
<polygon points="881.5,484.6 784.4,484.6 761.4,435.6 863.6,435.6 "/>
<polygon points="897.7,528.8 805.2,528.8 784.4,484.6 881.5,484.6 "/>
<polygon points="735.8,381.2 707.1,320.4 821.4,320.4 843.7,381.2 "/>
<polygon points="631.7,703.8 761.2,703.8 724.7,781.5 603.3,781.5 "/>
<polygon points="603.3,781.5 724.7,781.5 692.6,850 578.3,850 "/>
<polygon points="556,910.8 578.3,850 692.6,850 663.9,910.8 "/>
<polygon points="796.4,781.5 675,781.5 638.5,703.8 768,703.8 "/>
<polygon points="821.4,850 707.1,850 675,781.5 796.4,781.5 "/>
<polygon points="735.8,910.8 707.1,850 821.4,850 843.7,910.8 "/>
</g>
</svg>
