<svg id="epgpdn1kuio1" xmlns="http://www.w3.org/2000/svg" xmlns:xlink="http://www.w3.org/1999/xlink" viewBox="0 0 70 70" shape-rendering="geometricPrecision" text-rendering="geometricPrecision" width="70" height="70"><style><![CDATA[#epgpdn1kuio1{pointer-events: all}#epgpdn1kuio1:hover #epgpdn1kuio2 {
           animation-name: epgpdn1kuio2_f_p, epgpdn1kuio2_f_o;
           animation-duration: 2500ms;
           animation-fill-mode: forwards;
           animation-timing-function: linear;
           animation-direction: normal;
           animation-iteration-count: infinite;  
        }@keyframes epgpdn1kuio2_f_p { 0% {fill: rgb(255,255,255)} 28% {fill: rgb(2,226,172)} 52% {fill: rgb(243,88,144)} 92% {fill: rgb(111,63,245)} 100% {fill: rgb(255,255,255)} }@keyframes epgpdn1kuio2_f_o { 0% {fill-opacity: 1} 20.400000% {fill-opacity: 1;animation-timing-function: cubic-bezier(0.420000,0,0.580000,1)} 30.800000% {fill-opacity: 0;animation-timing-function: cubic-bezier(0.420000,0,0.580000,1)} 80% {fill-opacity: 1} 100% {fill-opacity: 1} }#epgpdn1kuio1:hover #epgpdn1kuio3 {
           animation-name: epgpdn1kuio3_f_p, epgpdn1kuio3_f_o;
           animation-duration: 2500ms;
           animation-fill-mode: forwards;
           animation-timing-function: linear;
           animation-direction: normal;
           animation-iteration-count: infinite;  
        }@keyframes epgpdn1kuio3_f_p { 0% {fill: rgb(255,255,255)} 28% {fill: rgb(2,226,172)} 52% {fill: rgb(243,88,144)} 90.400000% {fill: rgb(111,63,245)} 100% {fill: rgb(255,255,255)} }@keyframes epgpdn1kuio3_f_o { 0% {fill-opacity: 1} 17.600000% {fill-opacity: 1;animation-timing-function: cubic-bezier(0.420000,0,0.580000,1)} 28% {fill-opacity: 0;animation-timing-function: cubic-bezier(0.420000,0,0.580000,1)} 76.800000% {fill-opacity: 1} 100% {fill-opacity: 1} }#epgpdn1kuio1:hover #epgpdn1kuio4 {
           animation-name: epgpdn1kuio4_f_p, epgpdn1kuio4_f_o;
           animation-duration: 2500ms;
           animation-fill-mode: forwards;
           animation-timing-function: linear;
           animation-direction: normal;
           animation-iteration-count: infinite;  
        }@keyframes epgpdn1kuio4_f_p { 0% {fill: rgb(255,255,255)} 28% {fill: rgb(2,226,172)} 52% {fill: rgb(243,88,144)} 88.800000% {fill: rgb(111,63,245)} 100% {fill: rgb(255,255,255)} }@keyframes epgpdn1kuio4_f_o { 0% {fill-opacity: 1} 14% {fill-opacity: 1;animation-timing-function: cubic-bezier(0.420000,0,0.580000,1)} 24.400000% {fill-opacity: 0;animation-timing-function: cubic-bezier(0.420000,0,0.580000,1)} 73.200000% {fill-opacity: 1} 100% {fill-opacity: 1} }#epgpdn1kuio1:hover #epgpdn1kuio5 {
           animation-name: epgpdn1kuio5_f_p, epgpdn1kuio5_f_o;
           animation-duration: 2500ms;
           animation-fill-mode: forwards;
           animation-timing-function: linear;
           animation-direction: normal;
           animation-iteration-count: infinite;  
        }@keyframes epgpdn1kuio5_f_p { 0% {fill: rgb(255,255,255)} 28% {fill: rgb(2,226,172)} 52% {fill: rgb(243,88,144)} 86.400000% {fill: rgb(111,63,245)} 100% {fill: rgb(255,255,255)} }@keyframes epgpdn1kuio5_f_o { 0% {fill-opacity: 1} 10.800000% {fill-opacity: 1;animation-timing-function: cubic-bezier(0.420000,0,0.580000,1)} 21.200000% {fill-opacity: 0;animation-timing-function: cubic-bezier(0.420000,0,0.580000,1)} 70% {fill-opacity: 1} 100% {fill-opacity: 1} }#epgpdn1kuio1:hover #epgpdn1kuio6 {
           animation-name: epgpdn1kuio6_f_p, epgpdn1kuio6_f_o;
           animation-duration: 2500ms;
           animation-fill-mode: forwards;
           animation-timing-function: linear;
           animation-direction: normal;
           animation-iteration-count: infinite;  
        }@keyframes epgpdn1kuio6_f_p { 0% {fill: rgb(255,255,255)} 28% {fill: rgb(2,226,172)} 52% {fill: rgb(243,88,144)} 84% {fill: rgb(111,63,245)} 100% {fill: rgb(255,255,255)} }@keyframes epgpdn1kuio6_f_o { 0% {fill-opacity: 1} 6.800000% {fill-opacity: 1;animation-timing-function: cubic-bezier(0.420000,0,0.580000,1)} 17.200000% {fill-opacity: 0;animation-timing-function: cubic-bezier(0.420000,0,0.580000,1)} 66% {fill-opacity: 1} 100% {fill-opacity: 1} }#epgpdn1kuio1:hover #epgpdn1kuio7 {
           animation-name: epgpdn1kuio7_f_p, epgpdn1kuio7_f_o;
           animation-duration: 2500ms;
           animation-fill-mode: forwards;
           animation-timing-function: linear;
           animation-direction: normal;
           animation-iteration-count: infinite;  
        }@keyframes epgpdn1kuio7_f_p { 0% {fill: rgb(255,255,255)} 28% {fill: rgb(2,226,172)} 52% {fill: rgb(243,88,144)} 81.600000% {fill: rgb(111,63,245)} 100% {fill: rgb(255,255,255)} }@keyframes epgpdn1kuio7_f_o { 0% {fill-opacity: 1} 4% {fill-opacity: 1;animation-timing-function: cubic-bezier(0.420000,0,0.580000,1)} 14.400000% {fill-opacity: 0;animation-timing-function: cubic-bezier(0.420000,0,0.580000,1)} 62.400000% {fill-opacity: 1} 100% {fill-opacity: 1} }#epgpdn1kuio1:hover #epgpdn1kuio8 {
           animation-name: epgpdn1kuio8_f_p, epgpdn1kuio8_f_o;
           animation-duration: 2500ms;
           animation-fill-mode: forwards;
           animation-timing-function: linear;
           animation-direction: normal;
           animation-iteration-count: infinite;  
        }@keyframes epgpdn1kuio8_f_p { 0% {fill: rgb(255,255,255)} 28% {fill: rgb(2,226,172)} 52% {fill: rgb(243,88,144)} 79.200000% {fill: rgb(111,63,245)} 100% {fill: rgb(255,255,255)} }@keyframes epgpdn1kuio8_f_o { 0% {fill-opacity: 1;animation-timing-function: cubic-bezier(0.420000,0,0.580000,1)} 10.400000% {fill-opacity: 0;animation-timing-function: cubic-bezier(0.420000,0,0.580000,1)} 58.400000% {fill-opacity: 1} 100% {fill-opacity: 1} }]]></style><path id="epgpdn1kuio2" d="M35,29.900000C32.200000,29.900000,29.900000,32.200000,29.900000,35C29.900000,37.800000,32.200000,40.100000,35,40.100000C37.800000,40.100000,40.100000,37.800000,40.100000,35C40.100000,32.200000,37.800000,29.900000,35,29.900000Z" fill="rgb(255,255,255)" stroke="none" stroke-width="1"/><path id="epgpdn1kuio3" d="M3.700000,39.100000C4.100000,39.500000,4.700000,39.500000,5.100000,39.100000C8.200000,36,20.100000,24.200000,20.100000,24.200000C21.700000,22.600000,24.100000,22.100000,26.400000,23.200000C26.700000,23.400000,27.100000,23.600000,27.400000,23.900000L29.300000,25.800000C29.500000,26,29.800000,26.200000,30.100000,26.300000C32.800000,27.100000,35.100000,25.700000,35.700000,23.500000L36.100000,22C36.100000,21.800000,36.100000,21.600000,36.100000,21.400000C36,21.200000,35.800000,21.100000,35.600000,21L18.800000,16.500000C18.500000,16.400000,18.100000,16.500000,17.800000,16.800000L0.300000,34.300000C-0.100000,34.700000,-0.100000,35.300000,0.300000,35.700000L3.700000,39.100000Z" fill="rgb(255,255,255)" stroke="none" stroke-width="1"/><path id="epgpdn1kuio4" d="M18.400000,42.400000C17.800000,40.200000,18.600000,37.800000,20.800000,36.400000C21.100000,36.200000,21.500000,36,21.900000,35.900000L23.900000,35.400000C24.800000,35.200000,25.600000,34.600000,26.100000,33.900000C27.300000,32.100000,27,30,25.700000,28.600000L24.600000,27.500000C24.300000,27.200000,23.800000,27.200000,23.600000,27.500000C23.600000,27.500000,11.700000,39.400000,8.600000,42.500000C8.200000,42.900000,8.200000,43.500000,8.600000,43.900000L20,55.400000C20.700000,56.100000,22,55.400000,21.700000,54.400000L18.400000,42.400000Z" fill="rgb(255,255,255)" stroke="none" stroke-width="1"/><path id="epgpdn1kuio5" d="M47.100000,58.600000C47.700000,58,47.400000,57.100000,46.700000,56.900000L33.600000,53.400000C32.200000,53,31.100000,52.100000,30.400000,50.900000C29.700000,49.700000,29.500000,48.200000,29.900000,46.800000L30.500000,44.600000C30.600000,44.300000,30.600000,44,30.500000,43.700000C29.900000,41,27.500000,39.700000,25.300000,40.300000L23.700000,40.700000C23.300000,40.800000,23.100000,41.200000,23.200000,41.600000C23.200000,41.600000,28.100000,60.100000,28.900000,63.500000C29,63.800000,29.200000,64.200000,29.400000,64.500000L34.600000,69.700000C35,70.100000,35.600000,70.100000,36,69.700000L47.100000,58.600000Z" fill="rgb(255,255,255)" stroke="none" stroke-width="1"/><path id="epgpdn1kuio6" d="M69.700000,34.300000L66.100000,30.700000C65.700000,30.300000,65.100000,30.300000,64.700000,30.700000L49.700000,45.700000C49.400000,46,49.100000,46.200000,48.700000,46.400000C46.400000,47.500000,44,47,42.400000,45.400000L41.300000,44.300000C40.500000,43.500000,39.500000,43.100000,38.400000,43.100000C37.600000,43.100000,36.700000,43.400000,35.900000,43.900000C35.200000,44.400000,34.600000,45.200000,34.400000,46.100000L34,47.700000C34,47.900000,34,48.100000,34,48.300000C34.100000,48.500000,34.300000,48.600000,34.500000,48.700000L51.600000,53.300000C51.900000,53.400000,52.300000,53.300000,52.600000,53L69.800000,35.800000C70.100000,35.300000,70.100000,34.700000,69.700000,34.300000Z" fill="rgb(255,255,255)" stroke="none" stroke-width="1"/><path id="epgpdn1kuio7" d="M48.600000,15.800000C48.300000,14.800000,49.600000,14.100000,50.300000,14.800000L61.400000,26C61.800000,26.400000,61.800000,27,61.400000,27.400000L46.900000,42C46.500000,42.400000,45.900000,42.400000,45.500000,42L44.500000,41C43.100000,39.600000,42.900000,37.500000,44.100000,35.700000C44.600000,34.900000,45.400000,34.400000,46.300000,34.200000L48.300000,33.700000C48.700000,33.600000,49,33.500000,49.400000,33.200000C51.500000,31.800000,52.300000,29.400000,51.700000,27.200000L48.600000,15.800000Z" fill="rgb(255,255,255)" stroke="none" stroke-width="1"/><path id="epgpdn1kuio8" d="M23.200000,11.400000C22.600000,12,22.900000,12.900000,23.600000,13.100000L36.700000,16.600000C38.100000,17,39.200000,17.900000,39.900000,19.100000C40.600000,20.300000,40.800000,21.800000,40.400000,23.200000L39.800000,25.400000C39.700000,25.700000,39.700000,26,39.800000,26.300000C40.400000,29,42.800000,30.300000,45,29.700000L46.600000,29.300000C47,29.200000,47.200000,28.800000,47.100000,28.400000C47.100000,28.400000,42.200000,9.900000,41.400000,6.500000C41.300000,6.100000,41.100000,5.800000,40.900000,5.500000L35.700000,0.300000C35.300000,-0.100000,34.700000,-0.100000,34.300000,0.300000L23.200000,11.400000Z" fill="rgb(255,255,255)" stroke="none" stroke-width="1"/></svg>