<svg xmlns="http://www.w3.org/2000/svg" preserveAspectRatio="xMidYMid slice" width="1400" height="900" viewBox="0 0 1400 900">
<g id="floor">
<path d="M648.9,734.8H546.6l-8.5,21.2H646L648.9,734.8z"/>
<path d="M538.1,756l-9.5,23.7h114.3L646,756H538.1z"/>
<path d="M651.4,715.7h-97.1l-7.7,19.1h102.3L651.4,715.7z"/>
<path d="M853.3,734.8l8.6,21.2h107.9l-14.2-21.2H853.3z"/>
<path d="M754,756l3.1,23.7h114.3l-9.5-23.7H754z"/>
<path d="M871.4,779.7h114.3L969.8,756H861.9L871.4,779.7z"/>
<path d="M646,756l-3.1,23.7h114.2L754,756H646z"/>
<path d="M497.7,655.3h-80.9l-12.3,13.1h84.4L497.7,655.3z"/>
<path d="M457.2,715.7l-12.8,19.1h102.2l7.7-19.1H457.2z"/>
<path d="M505.8,643.2h-77.6l-11.4,12.1h80.9L505.8,643.2z"/>
<path d="M404.5,668.4L391,682.8h88.3l9.6-14.4L404.5,668.4z"/>
<path d="M561.3,698.5h-92.5l-11.6,17.2h97.1L561.3,698.5z"/>
<path d="M567.6,682.8h-88.3l-10.5,15.7h92.5L567.6,682.8z"/>
<path d="M1135.1,603.2h67l-16.8-8.3h-64.7L1135.1,603.2z"/>
<path d="M1110.7,632.1h74.7l-18-10.4h-71.9L1110.7,632.1z"/>
<path d="M1023.6,621.7l12.4,10.4h74.7l-15.2-10.4H1023.6z"/>
<path d="M350.5,643.2l-14.6,12.1h80.9l11.4-12.1H350.5z"/>
<path d="M1064.1,655.3h80.9l-17.8-12.1h-77.7L1064.1,655.3z"/>
<path d="M1049.5,643.2h77.7l-16.5-11.1H1036L1049.5,643.2z"/>
<path d="M1055.9,594.9l12.3,8.3h66.9l-14.5-8.3H1055.9z"/>
<path d="M1095.5,621.7h71.9l-16.7-9.6h-69.3L1095.5,621.7z"/>
<path d="M1081.4,612.1h69.3l-15.6-8.9h-66.9L1081.4,612.1z"/>
<path d="M1023.7,698.5h92.5l-19-15.7h-88.3L1023.7,698.5z"/>
<path d="M920.7,682.8l10.5,15.7h92.5l-14.8-15.7H920.7z"/>
<path d="M942.8,715.7h97.1l-16.2-17.2h-92.5L942.8,715.7z"/>
<path d="M955.6,734.8h102.2l-17.9-19.1h-97.1L955.6,734.8z"/>
<path d="M1008.9,682.8h88.3l-17.3-14.4h-84.4L1008.9,682.8z"/>
<path d="M983.2,655.3l12.3,13.1h84.4l-15.8-13.1H983.2z"/>
<path d="M1079.9,668.4h84.5l-19.4-13.1h-80.9L1079.9,668.4z"/>
<path d="M969.8,756h107.9l-19.9-21.2H955.6L969.8,756z"/>
<path d="M573.3,668.4h-84.4l-9.6,14.4h88.3L573.3,668.4z"/>
<path d="M318.6,612.1l-14.1,9.6h71.9l11.6-9.6H318.6z"/>
<path d="M398.7,603.2h-66.9l-13.2,8.9H388L398.7,603.2z"/>
<path d="M408.8,594.9h-64.7l-12.3,8.3h66.9L408.8,594.9z"/>
<path d="M418.2,587.1h-62.6l-11.5,7.8h64.7L418.2,587.1z"/>
<path d="M448.3,621.7h-71.9l-12.5,10.4h74.7L448.3,621.7z"/>
<path d="M438.6,632.1h-74.7l-13.4,11.1h77.7L438.6,632.1z"/>
<path d="M292.9,587.1l-13.5,7.8h64.7l11.5-7.8H292.9z"/>
<path d="M457.3,612.1H388l-11.6,9.6h71.9L457.3,612.1z"/>
<path d="M468.8,698.5h-92.5l-16.2,17.2h97.1L468.8,698.5z"/>
<path d="M255,655.3l-19.4,13.1h84.5l15.8-13.1H255z"/>
<path d="M350.5,643.2h-77.7L255,655.3h80.9L350.5,643.2z"/>
<path d="M479.3,682.8H391l-14.7,15.7h92.5L479.3,682.8z"/>
<path d="M363.9,632.1h-74.6l-16.5,11.1h77.7L363.9,632.1z"/>
<path d="M404.5,668.4h-84.4l-17.3,14.4H391L404.5,668.4z"/>
<path d="M302.8,682.8l-19,15.7h92.5l14.7-15.7H302.8z"/>
<path d="M416.8,655.3h-80.9l-15.8,13.1h84.4L416.8,655.3z"/>
<path d="M292.9,587.1h-62.6l-15.6,7.8h64.7L292.9,587.1z"/>
<path d="M344.1,594.9h-64.7l-14.5,8.3h66.9L344.1,594.9z"/>
<path d="M214.7,594.9l-16.8,8.3h67l14.5-8.3H214.7z"/>
<path d="M232.6,621.7l-18,10.4h74.7l15.2-10.4H232.6z"/>
<path d="M318.6,612.1h-69.3l-16.7,9.6h71.9L318.6,612.1z"/>
<path d="M331.8,603.2h-66.9l-15.6,8.9h69.3L331.8,603.2z"/>
<path d="M376.4,621.7h-71.9l-15.2,10.4h74.6L376.4,621.7z"/>
<path d="M1003.6,806.4H1125l-25-26.7H985.7L1003.6,806.4z"/>
<path d="M457.2,715.7h-97.1l-17.9,19.1h102.2L457.2,715.7z"/>
<path d="M969.8,756l15.9,23.7H1100l-22.3-23.7H969.8z"/>
<path d="M1100,779.7h114.2l-28.6-23.7h-107.9L1100,779.7z"/>
<path d="M1057.8,734.8H1160l-23-19.1h-97.1L1057.8,734.8z"/>
<path d="M757.1,779.7l3.6,26.7h121.4l-10.7-26.7H757.1z"/>
<path d="M1077.7,756h107.9l-25.6-21.2h-102.2L1077.7,756z"/>
<path d="M871.4,779.7l10.7,26.7h121.5l-17.9-26.7H871.4z"/>
<path d="M538.1,756H430.2l-15.9,23.7h114.3L538.1,756z"/>
<path d="M546.6,734.8H444.4L430.2,756h107.9L546.6,734.8z"/>
<path d="M342.2,734.8L322.3,756h107.9l14.2-21.2H342.2z"/>
<path d="M414.3,779.7l-17.9,26.7h121.4l10.8-26.7H414.3z"/>
<path d="M642.9,779.7l-3.6,26.7h121.4l-3.6-26.7H642.9z"/>
<path d="M528.6,779.7l-10.8,26.7h121.5l3.6-26.7H528.6z"/>
<path d="M1120.6,594.9h64.7l-15.6-7.8H1107L1120.6,594.9z"/>
<path d="M543.4,587.1h-62.6l-7.3,7.8h64.7L543.4,587.1z"/>
<path d="M826.6,668.4h84.5l-8.8-13.1h-80.9L826.6,668.4z"/>
<path d="M804,612.1h69.3l-5.9-8.9h-67L804,612.1z"/>
<path d="M867.4,603.2h66.9l-7.8-8.3h-64.7L867.4,603.2z"/>
<path d="M797.1,594.9l3.3,8.3h67l-5.6-8.3H797.1z"/>
<path d="M473.5,594.9l-7.8,8.3h66.9l5.6-8.3H473.5z"/>
<path d="M861.8,594.9h64.7l-7.3-7.8h-62.7L861.8,594.9z"/>
<path d="M740.4,655.3h-80.9l-1.7,13.1h84.4L740.4,655.3z"/>
<path d="M742.2,668.4h-84.4l-1.9,14.4h88.2L742.2,668.4z"/>
<path d="M602.9,594.9h-64.7l-5.6,8.3h67L602.9,594.9z"/>
<path d="M655.9,682.8l-2.1,15.7h92.4l-2.1-15.7H655.9z"/>
<path d="M746.2,698.5h92.5l-6.3-15.7h-88.3L746.2,698.5z"/>
<path d="M740.4,655.3l1.8,13.1h84.4l-5.2-13.1H740.4z"/>
<path d="M744.1,682.8h88.3l-5.8-14.4h-84.4L744.1,682.8z"/>
<path d="M738.8,643.2h-77.6l-1.7,12.1h80.9L738.8,643.2z"/>
<path d="M807.9,621.7h71.9l-6.5-9.6H804L807.9,621.7z"/>
<path d="M583.5,643.2l-4.9,12.1h80.9l1.7-12.1H583.5z"/>
<path d="M599.6,603.2h-67l-6,8.9H596L599.6,603.2z"/>
<path d="M520.2,621.7l-6.9,10.4H588l4.1-10.4H520.2z"/>
<path d="M596,612.1h-69.4l-6.4,9.6h71.9L596,612.1z"/>
<path d="M662.7,632.1H588l-4.5,11.1h77.7L662.7,632.1z"/>
<path d="M664,621.7h-71.9l-4.1,10.4h74.7L664,621.7z"/>
<path d="M734.7,612.1H804l-3.6-8.9h-66.9L734.7,612.1z"/>
<path d="M666.5,603.2l-1.2,8.9h69.4l-1.2-8.9H666.5z"/>
<path d="M731.3,587.1h-62.6l-1.1,7.8h64.8L731.3,587.1z"/>
<path d="M732.4,594.9h-64.8l-1.1,8.3h67L732.4,594.9z"/>
<path d="M733.5,603.2h66.9l-3.3-8.3h-64.7L733.5,603.2z"/>
<path d="M797.1,594.9h64.7l-5.3-7.8h-62.6L797.1,594.9z"/>
<path d="M731.3,587.1l1.1,7.8h64.7l-3.2-7.8H731.3z"/>
<path d="M1023.7,698.5l16.2,17.2h97.1l-20.8-17.2H1023.7z"/>
<path d="M735.9,621.7h72l-3.9-9.6h-69.3L735.9,621.7z"/>
<path d="M748.6,715.7h97.1l-7-17.2h-92.5L748.6,715.7z"/>
<path d="M812,632.1h74.7l-6.9-10.4h-71.9L812,632.1z"/>
<path d="M740.4,655.3h81l-4.9-12.1h-77.7L740.4,655.3z"/>
<path d="M666.5,603.2h-66.9l-3.6,8.9h69.3L666.5,603.2z"/>
<path d="M596,612.1l-3.9,9.6H664l1.3-9.6H596z"/>
<path d="M734.7,612.1h-69.4l-1.3,9.6h71.9L734.7,612.1z"/>
<path d="M735.9,621.7l1.4,10.4H812l-4.1-10.4H735.9z"/>
<path d="M662.7,632.1l-1.5,11.1h77.6l-1.5-11.1H662.7z"/>
<path d="M738.8,643.2h77.7l-4.5-11.1h-74.7L738.8,643.2z"/>
<path d="M735.9,621.7H664l-1.3,10.4h74.6L735.9,621.7z"/>
<path d="M667.6,594.9h-64.7l-3.3,8.3h66.9L667.6,594.9z"/>
<path d="M668.7,587.1h-62.6l-3.2,7.8h64.7L668.7,587.1z"/>
<path d="M543.4,587.1l-5.2,7.8h64.7l3.2-7.8H543.4z"/>
<path d="M886.7,632.1h74.7l-9.7-10.4h-71.9L886.7,632.1z"/>
<path d="M746.2,698.5h-92.4l-2.4,17.2h97.2L746.2,698.5z"/>
<path d="M655.9,682.8h-88.3l-6.3,15.7h92.5L655.9,682.8z"/>
<path d="M561.3,698.5l-7,17.2h97.1l2.4-17.2H561.3z"/>
<path d="M748.6,715.7h-97.2l-2.5,19.1h102.2L748.6,715.7z"/>
<path d="M748.6,715.7l2.5,19.1h102.2l-7.6-19.1H748.6z"/>
<path d="M648.9,734.8L646,756h108l-2.9-21.2H648.9z"/>
<path d="M754,756h107.9l-8.6-21.2H751.1L754,756z"/>
<path d="M588,632.1h-74.7l-7.5,11.1h77.7L588,632.1z"/>
<path d="M853.3,734.8h102.3l-12.8-19.1h-97.1L853.3,734.8z"/>
<path d="M438.6,632.1l-10.4,11.1h77.6l7.5-11.1H438.6z"/>
<path d="M520.2,621.7h-71.9l-9.7,10.4h74.7L520.2,621.7z"/>
<path d="M657.8,668.4h-84.5l-5.7,14.4h88.3L657.8,668.4z"/>
<path d="M659.5,655.3h-80.9l-5.3,13.1h84.5L659.5,655.3z"/>
<path d="M497.7,655.3l-8.8,13.1h84.4l5.3-13.1H497.7z"/>
<path d="M583.5,643.2h-77.7l-8.1,12.1h80.9L583.5,643.2z"/>
<path d="M838.7,698.5h92.5l-10.5-15.7h-88.3L838.7,698.5z"/>
<path d="M942.7,612.1l9,9.6h71.9l-11.6-9.6H942.7z"/>
<path d="M961.4,632.1h74.6l-12.4-10.4h-71.9L961.4,632.1z"/>
<path d="M1023.6,621.7h71.9l-14.1-9.6H1012L1023.6,621.7z"/>
<path d="M1012,612.1h69.4l-13.2-8.9h-67L1012,612.1z"/>
<path d="M981.8,587.1l9.4,7.8h64.7l-11.5-7.8H981.8z"/>
<path d="M1001.2,603.2h67l-12.3-8.3h-64.7L1001.2,603.2z"/>
<path d="M971.8,643.2h77.7l-13.5-11.1h-74.6L971.8,643.2z"/>
<path d="M920.7,682.8h88.2l-13.4-14.4h-84.4L920.7,682.8z"/>
<path d="M826.6,668.4l5.8,14.4h88.3l-9.6-14.4H826.6z"/>
<path d="M983.2,655.3h80.9l-14.6-12.1h-77.7L983.2,655.3z"/>
<path d="M845.7,715.7h97.1l-11.6-17.2h-92.5L845.7,715.7z"/>
<path d="M526.6,612.1h-69.3l-9,9.6h71.9L526.6,612.1z"/>
<path d="M894.2,643.2l8.1,12.1h80.9l-11.4-12.1H894.2z"/>
<path d="M911.1,668.4h84.4l-12.3-13.1h-80.9L911.1,668.4z"/>
<path d="M480.8,587.1h-62.6l-9.4,7.8h64.7L480.8,587.1z"/>
<path d="M926.5,594.9h64.7l-9.4-7.8h-62.6L926.5,594.9z"/>
<path d="M934.3,603.2h66.9l-10-8.3h-64.7L934.3,603.2z"/>
<path d="M894.2,643.2h77.6l-10.4-11.1h-74.7L894.2,643.2z"/>
<path d="M812,632.1l4.5,11.1h77.7l-7.5-11.1H812z"/>
<path d="M942.7,612.1h69.3l-10.8-8.9h-66.9L942.7,612.1z"/>
<path d="M1055.9,594.9h64.7l-13.6-7.8h-62.6L1055.9,594.9z"/>
<path d="M867.4,603.2l5.9,8.9h69.4l-8.4-8.9H867.4z"/>
<path d="M879.8,621.7h71.9l-9-9.6h-69.4L879.8,621.7z"/>
<path d="M821.4,655.3h80.9l-8.1-12.1h-77.7L821.4,655.3z"/>
<path d="M532.6,603.2h-66.9l-8.4,8.9h69.3L532.6,603.2z"/>
<path d="M473.5,594.9h-64.7l-10.1,8.3h67L473.5,594.9z"/>
<path d="M398.7,603.2l-10.7,8.9h69.3l8.4-8.9L398.7,603.2z"/>
<path d="M66.8,668.4H0v14.4h38L66.8,668.4z"/>
<path d="M246.6,836.7l-32.5,34.6H353l23.1-34.6H246.6z"/>
<path d="M635.2,836.7l-4.6,34.6h138.8l-4.6-34.6H635.2z"/>
<path d="M376.1,836.7L353,871.3h138.8l13.9-34.6H376.1z"/>
<path d="M505.7,836.7l-13.9,34.6h138.8l4.6-34.6H505.7z"/>
<path d="M1023.8,836.7l23.2,34.6h138.8l-32.4-34.6H1023.8z"/>
<path d="M764.8,836.7l4.6,34.6h138.8l-13.9-34.6H764.8z"/>
<path d="M894.3,836.7l13.9,34.6H1047l-23.2-34.6H894.3z"/>
<path d="M1153.4,836.7l32.4,34.6h138.9l-41.8-34.6H1153.4z"/>
<path d="M240,734.8H137.7L106.4,756h108L240,734.8z"/>
<path d="M214.4,756h-108l-34.9,23.7h114.2L214.4,756z"/>
<path d="M263,715.7h-97.1l-28.2,19.1H240L263,715.7z"/>
<path d="M117.1,836.7l-41.8,34.6h138.8l32.5-34.6H117.1z"/>
<path d="M275,806.4H153.6l-36.5,30.3h129.5L275,806.4z"/>
<path d="M300,779.7H185.7l-32.1,26.7H275L300,779.7z"/>
<path d="M71.5,779.7l-39.4,26.7h121.5l32.1-26.7H71.5z"/>
<path d="M1362,682.8h38v-14.4h-66.8L1362,682.8z"/>
<path d="M1393.6,698.5h6.4v-15.7h-38L1393.6,698.5z"/>
<path d="M1400,701.6v-3.1h-6.4L1400,701.6z"/>
<path d="M1324.7,871.3h75.3v-34.6h-117.1L1324.7,871.3z"/>
<path d="M1364.5,734.8h35.5v-19.1h-68.8L1364.5,734.8z"/>
<path d="M1400,660.7v-5.4h-12.3L1400,660.7z"/>
<path d="M68.8,715.7l-33.3,19.1h102.2l28.2-19.1H68.8z"/>
<path d="M1306.8,655.3l26.4,13.1h66.8v-7.7l-12.3-5.4L1306.8,655.3z"/>
<path d="M1301.1,698.5l30.1,17.2h68.8v-14.1l-6.4-3.1H1301.1z"/>
<path d="M1400,755.2v-20.4h-35.5L1400,755.2z"/>
<path d="M1367.9,806.4h32.1v-26.7h-71.5L1367.9,806.4z"/>
<path d="M1246.4,806.4l36.5,30.3H1400v-8.5l-32.1-21.8H1246.4z"/>
<path d="M1400,828.2v-21.8h-32.1L1400,828.2z"/>
<path d="M1262.3,734.8l31.2,21.2H1400v-0.8l-35.5-20.4H1262.3z"/>
<path d="M1328.5,779.7h71.5V756h-106.5L1328.5,779.7z"/>
<path d="M131,603.2H64l-22.7,8.9h69.3L131,603.2z"/>
<path d="M1137,715.7h97.1l-25.5-17.2h-92.4L1137,715.7z"/>
<path d="M41.3,612.1l-24.4,9.6h71.9l21.8-9.6H41.3z"/>
<path d="M174.1,655.3H93.2l-26.4,13.1h84.4L174.1,655.3z"/>
<path d="M195.2,643.2h-77.7l-24.3,12.1h80.9L195.2,643.2z"/>
<path d="M39.8,643.2l-27.5,12.1h80.9l24.3-12.1H39.8z"/>
<path d="M214.5,682.8h-88.3l-27.3,15.7h92.4L214.5,682.8z"/>
<path d="M151.2,668.4H66.8L38,682.8h88.2L151.2,668.4z"/>
<path d="M139.9,632.1H65.2l-25.4,11.1h77.7L139.9,632.1z"/>
<path d="M38,682.8L6.4,698.5h92.5l27.3-15.7H38z"/>
<path d="M160.7,621.7H88.8l-23.6,10.4h74.7L160.7,621.7z"/>
<path d="M1387.7,655.3h12.3v-12.1h-39.8L1387.7,655.3z"/>
<path d="M149.9,594.9H85.2L64,603.2h67L149.9,594.9z"/>
<path d="M42.5,587.1l-22,7.8h64.7l19.9-7.8H42.5z"/>
<path d="M167.7,587.1h-62.6l-19.9,7.8h64.7L167.7,587.1z"/>
<path d="M191.3,698.5H98.9l-30.1,17.2h97.1L191.3,698.5z"/>
<path d="M180,612.1h-69.4l-21.8,9.6h71.9L180,612.1z"/>
<path d="M0,579.8v0.8l2.4-0.8H0z"/>
<path d="M98.9,698.5H6.4L0,701.6v14.1h68.8L98.9,698.5z"/>
<path d="M68.8,715.7H0v19.1h35.5L68.8,715.7z"/>
<path d="M38,682.8H0v15.7h6.4L38,682.8z"/>
<path d="M0,698.5v3.1l6.4-3.1H0z"/>
<path d="M71.5,779.7H0v26.7h32.1L71.5,779.7z"/>
<path d="M0,734.8v20.4l35.5-20.4H0z"/>
<path d="M137.7,734.8H35.5L0,755.2v0.8h106.4L137.7,734.8z"/>
<path d="M106.4,756H0v23.7h71.5L106.4,756z"/>
<path d="M0,621.7v6.7l16.9-6.7H0z"/>
<path d="M41.3,612.1H0v9.6h16.9L41.3,612.1z"/>
<path d="M88.8,621.7H16.9L0,628.4v3.7h65.2L88.8,621.7z"/>
<path d="M93.2,655.3H12.3L0,660.7v7.7h66.8L93.2,655.3z"/>
<path d="M65.2,632.1H0v11.1h39.8L65.2,632.1z"/>
<path d="M0,655.3v5.4l12.3-5.4H0z"/>
<path d="M39.8,643.2H0v12.1h12.3L39.8,643.2z"/>
<path d="M0,871.3V900h40.6l34.7-28.7H0z"/>
<path d="M769.4,871.3l3.9,28.7h146.5l-11.6-28.7H769.4z"/>
<path d="M908.2,871.3l11.6,28.7h146.5l-19.3-28.7H908.2z"/>
<path d="M630.6,871.3l-3.9,28.7h146.6l-3.9-28.7H630.6z"/>
<path d="M1185.8,871.3l27,28.7h146.6l-34.7-28.7H1185.8z"/>
<path d="M1047,871.3l19.3,28.7h146.5l-27-28.7H1047z"/>
<path d="M1324.7,871.3l34.7,28.7h40.6v-28.7H1324.7z"/>
<path d="M491.8,871.3L480.2,900h146.5l3.9-28.7H491.8z"/>
<path d="M214.1,871.3L187.2,900h146.5l19.3-28.7H214.1z"/>
<path d="M64,603.2H0v8.9h41.3L64,603.2z"/>
<path d="M117.1,836.7H0v34.6h75.3L117.1,836.7z"/>
<path d="M353,871.3L333.7,900h146.5l11.6-28.7H353z"/>
<path d="M153.6,806.4H32.1L0,828.2v8.5h117.1L153.6,806.4z"/>
<path d="M0,806.4v21.8l32.1-21.8H0z"/>
<path d="M75.3,871.3L40.6,900h146.6l26.9-28.7H75.3z"/>
<path d="M1358.7,612.1h41.3v-8.9h-64L1358.7,612.1z"/>
<path d="M85.2,594.9H20.5L0,602.2v1h64L85.2,594.9z"/>
<path d="M1400,628.4v-6.7h-16.9L1400,628.4z"/>
<path d="M1379.5,594.9h20.5v-7.8h-42.5L1379.5,594.9z"/>
<path d="M1383.1,621.7h16.9v-9.6h-41.3L1383.1,621.7z"/>
<path d="M1311.2,621.7l23.6,10.4h65.2v-3.7l-16.9-6.7H1311.2z"/>
<path d="M1400,602.2v-7.3h-20.5L1400,602.2z"/>
<path d="M1314.8,594.9l21.2,8.3h64v-1l-20.5-7.3H1314.8z"/>
<path d="M1360.2,643.2h39.8v-11.1h-65.2L1360.2,643.2z"/>
<path d="M0,594.9v7.3l20.5-7.3H0z"/>
<path d="M42.5,587.1H0v7.8h20.5L42.5,587.1z"/>
<path d="M302.8,682.8h-88.3l-23.2,15.7h92.5L302.8,682.8z"/>
<path d="M232.6,621.7h-71.9l-20.8,10.4h74.7L232.6,621.7z"/>
<path d="M289.3,632.1h-74.7l-19.4,11.1h77.6L289.3,632.1z"/>
<path d="M139.9,632.1l-22.4,11.1h77.7l19.4-11.1H139.9z"/>
<path d="M272.8,643.2h-77.6l-21.1,12.1H255L272.8,643.2z"/>
<path d="M320.1,668.4h-84.5l-21.1,14.4h88.3L320.1,668.4z"/>
<path d="M151.2,668.4l-25,14.4h88.3l21.1-14.4H151.2z"/>
<path d="M255,655.3h-80.9l-22.9,13.1h84.4L255,655.3z"/>
<path d="M214.7,594.9h-64.8l-18.9,8.3h66.9L214.7,594.9z"/>
<path d="M230.3,587.1h-62.6l-17.8,7.8h64.8L230.3,587.1z"/>
<path d="M131,603.2l-20.4,8.9H180l17.9-8.9H131z"/>
<path d="M249.3,612.1H180l-19.3,9.6h71.9L249.3,612.1z"/>
<path d="M264.9,603.2h-67l-17.9,8.9h69.3L264.9,603.2z"/>
<path d="M1185.4,632.1h74.7l-20.8-10.4h-71.9L1185.4,632.1z"/>
<path d="M1167.4,621.7h71.9l-19.3-9.6h-69.3L1167.4,621.7z"/>
<path d="M1220,612.1h69.4l-20.4-8.9h-66.9L1220,612.1z"/>
<path d="M1135.1,603.2l15.6,8.9h69.3l-17.9-8.9H1135.1z"/>
<path d="M1202.1,603.2h66.9l-19-8.3h-64.7L1202.1,603.2z"/>
<path d="M1185.3,594.9h64.7l-17.7-7.8h-62.6L1185.3,594.9z"/>
<path d="M1164.4,668.4h84.4l-22.9-13.1H1145L1164.4,668.4z"/>
<path d="M1204.8,643.2h77.7l-22.4-11.1h-74.7L1204.8,643.2z"/>
<path d="M1185.5,682.8h88.3l-25-14.4h-84.4L1185.5,682.8z"/>
<path d="M1116.2,698.5h92.4l-23.1-15.7h-88.3L1116.2,698.5z"/>
<path d="M1079.9,668.4l17.3,14.4h88.3l-21.1-14.4H1079.9z"/>
<path d="M1110.7,632.1l16.5,11.1h77.6l-19.4-11.1H1110.7z"/>
<path d="M1145,655.3h80.9l-21.1-12.1h-77.6L1145,655.3z"/>
<path d="M1289.4,612.1h69.3l-22.7-8.9h-67L1289.4,612.1z"/>
<path d="M1311.2,621.7h71.9l-24.4-9.6h-69.3L1311.2,621.7z"/>
<path d="M1269,603.2h67l-21.2-8.3H1250L1269,603.2z"/>
<path d="M1232.3,587.1l17.7,7.8h64.8l-19.9-7.8H1232.3z"/>
<path d="M1314.8,594.9h64.7l-22-7.8h-62.6L1314.8,594.9z"/>
<path d="M1220,612.1l19.3,9.6h71.9l-21.8-9.6H1220z"/>
<path d="M191.3,698.5l-25.4,17.2H263l20.8-17.2H191.3z"/>
<path d="M275,806.4l-28.4,30.3h129.5l20.3-30.3H275z"/>
<path d="M1153.4,836.7h129.5l-36.5-30.3H1125L1153.4,836.7z"/>
<path d="M396.4,806.4l-20.3,30.3h129.6l12.1-30.3H396.4z"/>
<path d="M639.3,806.4l-4.1,30.3h129.6l-4.1-30.3H639.3z"/>
<path d="M1003.6,806.4l20.2,30.3h129.6l-28.4-30.3H1003.6z"/>
<path d="M760.7,806.4l4.1,30.3h129.5l-12.2-30.3H760.7z"/>
<path d="M1260.1,632.1h74.7l-23.6-10.4h-71.9L1260.1,632.1z"/>
<path d="M517.8,806.4l-12.1,30.3h129.5l4.1-30.3H517.8z"/>
<path d="M342.2,734.8H240L214.4,756h107.9L342.2,734.8z"/>
<path d="M360.1,715.7H263l-23,19.1h102.2L360.1,715.7z"/>
<path d="M414.3,779.7H300l-25,26.7h121.4L414.3,779.7z"/>
<path d="M376.3,698.5h-92.5L263,715.7h97.1L376.3,698.5z"/>
<path d="M430.2,756H322.3L300,779.7h114.3L430.2,756z"/>
<path d="M214.4,756l-28.7,23.7H300l22.3-23.7H214.4z"/>
<path d="M882.1,806.4l12.2,30.3h129.5l-20.2-30.3H882.1z"/>
<path d="M1273.8,682.8h88.2l-28.8-14.4h-84.4L1273.8,682.8z"/>
<path d="M1301.1,698.5h92.5l-31.6-15.7h-88.2L1301.1,698.5z"/>
<path d="M1248.8,668.4h84.4l-26.4-13.1h-80.9L1248.8,668.4z"/>
<path d="M1306.8,655.3h80.9l-27.5-12.1h-77.7L1306.8,655.3z"/>
<path d="M1204.8,643.2l21.1,12.1h80.9l-24.3-12.1H1204.8z"/>
<path d="M1100,779.7l25,26.7h121.4l-32.2-26.7H1100z"/>
<path d="M1185.5,682.8l23.1,15.7h92.5l-27.3-15.7H1185.5z"/>
<path d="M1282.5,643.2h77.7l-25.4-11.1h-74.7L1282.5,643.2z"/>
<path d="M1234.1,715.7h97.1l-30.1-17.2h-92.5L1234.1,715.7z"/>
<path d="M1246.4,806.4h121.5l-39.4-26.7h-114.3L1246.4,806.4z"/>
<path d="M1185.6,756h107.9l-31.2-21.2H1160L1185.6,756z"/>
<path d="M1214.2,779.7h114.3l-35-23.7h-107.9L1214.2,779.7z"/>
<path d="M1262.3,734.8h102.2l-33.3-19.1h-97.1L1262.3,734.8z"/>
<path d="M1137,715.7l23,19.1h102.3l-28.2-19.1H1137z"/>
<path d="M751.1,165.2h102.3l8.5-21.2H754L751.1,165.2z"/>
<path d="M861.9,144l9.5-23.7H757.1L754,144H861.9z"/>
<path d="M748.6,184.3h97.1l7.7-19.1H751.1L748.6,184.3z"/>
<path d="M546.7,165.2l-8.6-21.2H430.2l14.2,21.2H546.7z"/>
<path d="M646,144l-3.1-23.7H528.6l9.5,23.7H646z"/>
<path d="M528.6,120.3H414.3l15.9,23.7h107.9L528.6,120.3z"/>
<path d="M754,144l3.1-23.7H642.9L646,144H754z"/>
<path d="M902.3,244.7h80.9l12.3-13.1h-84.4L902.3,244.7z"/>
<path d="M942.8,184.3l12.8-19.1H853.4l-7.7,19.1H942.8z"/>
<path d="M894.2,256.8h77.6l11.4-12.1h-80.9L894.2,256.8z"/>
<path d="M995.5,231.6l13.5-14.4h-88.3l-9.6,14.4L995.5,231.6z"/>
<path d="M838.7,201.5h92.5l11.6-17.2h-97.1L838.7,201.5z"/>
<path d="M832.4,217.2h88.3l10.5-15.7h-92.5L832.4,217.2z"/>
<path d="M264.9,296.8h-67l16.8,8.3h64.7L264.9,296.8z"/>
<path d="M289.3,267.9h-74.7l18,10.4h71.9L289.3,267.9z"/>
<path d="M376.4,278.3L364,267.9h-74.7l15.2,10.4H376.4z"/>
<path d="M1049.5,256.8l14.6-12.1h-80.9l-11.4,12.1H1049.5z"/>
<path d="M335.9,244.7H255l17.8,12.1h77.7L335.9,244.7z"/>
<path d="M350.5,256.8h-77.7l16.5,11.1H364L350.5,256.8z"/>
<path d="M344.1,305.1l-12.3-8.3h-66.9l14.5,8.3H344.1z"/>
<path d="M304.5,278.3h-71.9l16.7,9.6h69.3L304.5,278.3z"/>
<path d="M318.6,287.9h-69.3l15.6,8.9h66.9L318.6,287.9z"/>
<path d="M376.3,201.5h-92.5l19,15.7h88.3L376.3,201.5z"/>
<path d="M479.3,217.2l-10.5-15.7h-92.5l14.8,15.7H479.3z"/>
<path d="M457.2,184.3h-97.1l16.2,17.2h92.5L457.2,184.3z"/>
<path d="M444.4,165.2H342.2l17.9,19.1h97.1L444.4,165.2z"/>
<path d="M391.1,217.2h-88.3l17.3,14.4h84.4L391.1,217.2z"/>
<path d="M416.8,244.7l-12.3-13.1h-84.4l15.8,13.1H416.8z"/>
<path d="M320.1,231.6h-84.5l19.4,13.1h80.9L320.1,231.6z"/>
<path d="M430.2,144H322.3l19.9,21.2h102.2L430.2,144z"/>
<path d="M826.7,231.6h84.4l9.6-14.4h-88.3L826.7,231.6z"/>
<path d="M1081.4,287.9l14.1-9.6h-71.9l-11.6,9.6H1081.4z"/>
<path d="M1001.3,296.8h66.9l13.2-8.9H1012L1001.3,296.8z"/>
<path d="M991.2,305.1h64.7l12.3-8.3h-66.9L991.2,305.1z"/>
<path d="M981.8,312.9h62.6l11.5-7.8h-64.7L981.8,312.9z"/>
<path d="M951.7,278.3h71.9l12.5-10.4h-74.7L951.7,278.3z"/>
<path d="M961.4,267.9h74.7l13.4-11.1h-77.7L961.4,267.9z"/>
<path d="M1107.1,312.9l13.5-7.8h-64.7l-11.5,7.8H1107.1z"/>
<path d="M942.7,287.9h69.3l11.6-9.6h-71.9L942.7,287.9z"/>
<path d="M931.2,201.5h92.5l16.2-17.2h-97.1L931.2,201.5z"/>
<path d="M1145,244.7l19.4-13.1h-84.5l-15.8,13.1H1145z"/>
<path d="M1049.5,256.8h77.7l17.8-12.1h-80.9L1049.5,256.8z"/>
<path d="M920.7,217.2h88.3l14.7-15.7h-92.5L920.7,217.2z"/>
<path d="M1036.1,267.9h74.6l16.5-11.1h-77.7L1036.1,267.9z"/>
<path d="M995.5,231.6h84.4l17.3-14.4H1009L995.5,231.6z"/>
<path d="M1097.2,217.2l19-15.7h-92.5l-14.7,15.7H1097.2z"/>
<path d="M983.2,244.7h80.9l15.8-13.1h-84.4L983.2,244.7z"/>
<path d="M1107.1,312.9h62.6l15.6-7.8h-64.7L1107.1,312.9z"/>
<path d="M1055.9,305.1h64.7l14.5-8.3h-66.9L1055.9,305.1z"/>
<path d="M1185.3,305.1l16.8-8.3h-67l-14.5,8.3H1185.3z"/>
<path d="M1167.4,278.3l18-10.4h-74.7l-15.2,10.4H1167.4z"/>
<path d="M1081.4,287.9h69.3l16.7-9.6h-71.9L1081.4,287.9z"/>
<path d="M1068.2,296.8h66.9l15.6-8.9h-69.3L1068.2,296.8z"/>
<path d="M1023.6,278.3h71.9l15.2-10.4h-74.6L1023.6,278.3z"/>
<path d="M396.4,93.6H275l25,26.7h114.3L396.4,93.6z"/>
<path d="M942.8,184.3h97.1l17.9-19.1H955.6L942.8,184.3z"/>
<path d="M430.2,144l-15.9-23.7H300l22.3,23.7H430.2z"/>
<path d="M300,120.3H185.8l28.6,23.7h107.9L300,120.3z"/>
<path d="M342.2,165.2H240l23,19.1h97.1L342.2,165.2z"/>
<path d="M642.9,120.3l-3.6-26.7H517.9l10.7,26.7H642.9z"/>
<path d="M322.3,144H214.4l25.6,21.2h102.2L322.3,144z"/>
<path d="M528.6,120.3l-10.7-26.7H396.4l17.9,26.7H528.6z"/>
<path d="M861.9,144h107.9l15.9-23.7H871.4L861.9,144z"/>
<path d="M853.4,165.2h102.2l14.2-21.2H861.9L853.4,165.2z"/>
<path d="M1057.8,165.2l19.9-21.2H969.8l-14.2,21.2H1057.8z"/>
<path d="M985.7,120.3l17.9-26.7H882.2l-10.8,26.7H985.7z"/>
<path d="M757.1,120.3l3.6-26.7H639.3l3.6,26.7H757.1z"/>
<path d="M871.4,120.3l10.8-26.7H760.7l-3.6,26.7H871.4z"/>
<path d="M279.4,305.1h-64.7l15.6,7.8H293L279.4,305.1z"/>
<path d="M856.6,312.9h62.6l7.3-7.8h-64.7L856.6,312.9z"/>
<path d="M573.4,231.6h-84.5l8.8,13.1h80.9L573.4,231.6z"/>
<path d="M596,287.9h-69.3l5.9,8.9h67L596,287.9z"/>
<path d="M532.6,296.8h-66.9l7.8,8.3h64.7L532.6,296.8z"/>
<path d="M602.9,305.1l-3.3-8.3h-67l5.6,8.3H602.9z"/>
<path d="M926.5,305.1l7.8-8.3h-66.9l-5.6,8.3H926.5z"/>
<path d="M538.2,305.1h-64.7l7.3,7.8h62.7L538.2,305.1z"/>
<path d="M659.6,244.7h80.9l1.7-13.1h-84.4L659.6,244.7z"/>
<path d="M657.8,231.6h84.4l1.9-14.4h-88.2L657.8,231.6z"/>
<path d="M797.1,305.1h64.7l5.6-8.3h-67L797.1,305.1z"/>
<path d="M744.1,217.2l2.1-15.7h-92.4l2.1,15.7H744.1z"/>
<path d="M653.8,201.5h-92.5l6.3,15.7h88.3L653.8,201.5z"/>
<path d="M659.6,244.7l-1.8-13.1h-84.4l5.2,13.1H659.6z"/>
<path d="M655.9,217.2h-88.3l5.8,14.4h84.4L655.9,217.2z"/>
<path d="M661.2,256.8h77.6l1.7-12.1h-80.9L661.2,256.8z"/>
<path d="M592.1,278.3h-71.9l6.5,9.6H596L592.1,278.3z"/>
<path d="M816.5,256.8l4.9-12.1h-80.9l-1.7,12.1H816.5z"/>
<path d="M800.4,296.8h67l6-8.9H804L800.4,296.8z"/>
<path d="M879.8,278.3l6.9-10.4H812l-4.1,10.4H879.8z"/>
<path d="M804,287.9h69.4l6.4-9.6h-71.9L804,287.9z"/>
<path d="M737.3,267.9H812l4.5-11.1h-77.7L737.3,267.9z"/>
<path d="M736,278.3h71.9l4.1-10.4h-74.7L736,278.3z"/>
<path d="M665.3,287.9H596l3.6,8.9h66.9L665.3,287.9z"/>
<path d="M733.5,296.8l1.2-8.9h-69.4l1.2,8.9H733.5z"/>
<path d="M668.7,312.9h62.6l1.1-7.8h-64.8L668.7,312.9z"/>
<path d="M667.6,305.1h64.8l1.1-8.3h-67L667.6,305.1z"/>
<path d="M666.5,296.8h-66.9l3.3,8.3h64.7L666.5,296.8z"/>
<path d="M602.9,305.1h-64.7l5.3,7.8h62.6L602.9,305.1z"/>
<path d="M668.7,312.9l-1.1-7.8h-64.7l3.2,7.8H668.7z"/>
<path d="M376.3,201.5l-16.2-17.2H263l20.8,17.2H376.3z"/>
<path d="M664.1,278.3h-72l3.9,9.6h69.3L664.1,278.3z"/>
<path d="M651.4,184.3h-97.1l7,17.2h92.5L651.4,184.3z"/>
<path d="M588,267.9h-74.7l6.9,10.4h71.9L588,267.9z"/>
<path d="M659.6,244.7h-81l4.9,12.1h77.7L659.6,244.7z"/>
<path d="M733.5,296.8h66.9l3.6-8.9h-69.3L733.5,296.8z"/>
<path d="M804,287.9l3.9-9.6H736l-1.3,9.6H804z"/>
<path d="M665.3,287.9h69.4l1.3-9.6h-71.9L665.3,287.9z"/>
<path d="M664.1,278.3l-1.4-10.4H588l4.1,10.4H664.1z"/>
<path d="M737.3,267.9l1.5-11.1h-77.6l1.5,11.1H737.3z"/>
<path d="M661.2,256.8h-77.7l4.5,11.1h74.7L661.2,256.8z"/>
<path d="M664.1,278.3H736l1.3-10.4h-74.6L664.1,278.3z"/>
<path d="M732.4,305.1h64.7l3.3-8.3h-66.9L732.4,305.1z"/>
<path d="M731.3,312.9h62.6l3.2-7.8h-64.7L731.3,312.9z"/>
<path d="M856.6,312.9l5.2-7.8h-64.7l-3.2,7.8H856.6z"/>
<path d="M513.3,267.9h-74.7l9.7,10.4h71.9L513.3,267.9z"/>
<path d="M653.8,201.5h92.4l2.4-17.2h-97.2L653.8,201.5z"/>
<path d="M744.1,217.2h88.3l6.3-15.7h-92.5L744.1,217.2z"/>
<path d="M838.7,201.5l7-17.2h-97.1l-2.4,17.2H838.7z"/>
<path d="M651.4,184.3h97.2l2.5-19.1H648.9L651.4,184.3z"/>
<path d="M651.4,184.3l-2.5-19.1H546.7l7.6,19.1H651.4z"/>
<path d="M751.1,165.2L754,144H646l2.9,21.2H751.1z"/>
<path d="M646,144H538.1l8.6,21.2h102.2L646,144z"/>
<path d="M812,267.9h74.7l7.5-11.1h-77.7L812,267.9z"/>
<path d="M546.7,165.2H444.4l12.8,19.1h97.1L546.7,165.2z"/>
<path d="M961.4,267.9l10.4-11.1h-77.6l-7.5,11.1H961.4z"/>
<path d="M879.8,278.3h71.9l9.7-10.4h-74.7L879.8,278.3z"/>
<path d="M742.2,231.6h84.5l5.7-14.4h-88.3L742.2,231.6z"/>
<path d="M740.5,244.7h80.9l5.3-13.1h-84.5L740.5,244.7z"/>
<path d="M902.3,244.7l8.8-13.1h-84.4l-5.3,13.1H902.3z"/>
<path d="M816.5,256.8h77.7l8.1-12.1h-80.9L816.5,256.8z"/>
<path d="M561.3,201.5h-92.5l10.5,15.7h88.3L561.3,201.5z"/>
<path d="M457.3,287.9l-9-9.6h-71.9l11.6,9.6H457.3z"/>
<path d="M438.6,267.9H364l12.4,10.4h71.9L438.6,267.9z"/>
<path d="M376.4,278.3h-71.9l14.1,9.6H388L376.4,278.3z"/>
<path d="M388,287.9h-69.4l13.2,8.9h67L388,287.9z"/>
<path d="M418.2,312.9l-9.4-7.8h-64.7l11.5,7.8H418.2z"/>
<path d="M398.8,296.8h-67l12.3,8.3h64.7L398.8,296.8z"/>
<path d="M428.2,256.8h-77.7l13.5,11.1h74.6L428.2,256.8z"/>
<path d="M479.3,217.2h-88.2l13.4,14.4h84.4L479.3,217.2z"/>
<path d="M573.4,231.6l-5.8-14.4h-88.3l9.6,14.4H573.4z"/>
<path d="M416.8,244.7h-80.9l14.6,12.1h77.7L416.8,244.7z"/>
<path d="M554.3,184.3h-97.1l11.6,17.2h92.5L554.3,184.3z"/>
<path d="M873.4,287.9h69.3l9-9.6h-71.9L873.4,287.9z"/>
<path d="M505.8,256.8l-8.1-12.1h-80.9l11.4,12.1H505.8z"/>
<path d="M488.9,231.6h-84.4l12.3,13.1h80.9L488.9,231.6z"/>
<path d="M919.2,312.9h62.6l9.4-7.8h-64.7L919.2,312.9z"/>
<path d="M473.5,305.1h-64.7l9.4,7.8h62.6L473.5,305.1z"/>
<path d="M465.7,296.8h-66.9l10,8.3h64.7L465.7,296.8z"/>
<path d="M505.8,256.8h-77.6l10.4,11.1h74.7L505.8,256.8z"/>
<path d="M588,267.9l-4.5-11.1h-77.7l7.5,11.1H588z"/>
<path d="M457.3,287.9H388l10.8,8.9h66.9L457.3,287.9z"/>
<path d="M344.1,305.1h-64.7l13.6,7.8h62.6L344.1,305.1z"/>
<path d="M532.6,296.8l-5.9-8.9h-69.4l8.4,8.9H532.6z"/>
<path d="M520.2,278.3h-71.9l9,9.6h69.4L520.2,278.3z"/>
<path d="M578.6,244.7h-80.9l8.1,12.1h77.7L578.6,244.7z"/>
<path d="M867.4,296.8h66.9l8.4-8.9h-69.3L867.4,296.8z"/>
<path d="M926.5,305.1h64.7l10.1-8.3h-67L926.5,305.1z"/>
<path d="M1001.3,296.8l10.7-8.9h-69.3l-8.4,8.9L1001.3,296.8z"/>
<path d="M1333.2,231.6h66.8v-14.4h-38L1333.2,231.6z"/>
<path d="M1153.4,63.3l32.5-34.6H1047l-23.1,34.6H1153.4z"/>
<path d="M764.8,63.3l4.6-34.6H630.6l4.6,34.6H764.8z"/>
<path d="M1023.9,63.3l23.1-34.6H908.2l-13.9,34.6H1023.9z"/>
<path d="M894.3,63.3l13.9-34.6H769.4l-4.6,34.6H894.3z"/>
<path d="M376.2,63.3L353,28.7H214.2l32.4,34.6H376.2z"/>
<path d="M635.2,63.3l-4.6-34.6H491.8l13.9,34.6H635.2z"/>
<path d="M505.7,63.3l-13.9-34.6H353l23.2,34.6H505.7z"/>
<path d="M246.6,63.3l-32.4-34.6H75.3l41.8,34.6H246.6z"/>
<path d="M1160,165.2h102.3l31.3-21.2h-108L1160,165.2z"/>
<path d="M1185.6,144h108l34.9-23.7h-114.2L1185.6,144z"/>
<path d="M1137,184.3h97.1l28.2-19.1H1160L1137,184.3z"/>
<path d="M1282.9,63.3l41.8-34.6h-138.8l-32.5,34.6H1282.9z"/>
<path d="M1125,93.6h121.4l36.5-30.3h-129.5L1125,93.6z"/>
<path d="M1100,120.3h114.3l32.1-26.7H1125L1100,120.3z"/>
<path d="M1328.5,120.3l39.4-26.7h-121.5l-32.1,26.7H1328.5z"/>
<path d="M38,217.2H0v14.4h66.8L38,217.2z"/>
<path d="M6.4,201.5H0v15.7h38L6.4,201.5z"/>
<path d="M0,198.4v3.1h6.4L0,198.4z"/>
<path d="M75.3,28.7H0v34.6h117.1L75.3,28.7z"/>
<path d="M35.5,165.2H0v19.1h68.8L35.5,165.2z"/>
<path d="M0,239.3v5.4h12.3L0,239.3z"/>
<path d="M1331.2,184.3l33.3-19.1h-102.2l-28.2,19.1H1331.2z"/>
<path d="M93.2,244.7l-26.4-13.1H0v7.7l12.3,5.4L93.2,244.7z"/>
<path d="M98.9,201.5l-30.1-17.2H0v14.1l6.4,3.1H98.9z"/>
<path d="M0,144.8v20.4h35.5L0,144.8z"/>
<path d="M32.1,93.6H0v26.7h71.5L32.1,93.6z"/>
<path d="M153.6,93.6l-36.5-30.3H0v8.5l32.1,21.8H153.6z"/>
<path d="M0,71.8v21.8h32.1L0,71.8z"/>
<path d="M137.7,165.2L106.5,144H0v0.8l35.5,20.4H137.7z"/>
<path d="M71.5,120.3H0V144h106.5L71.5,120.3z"/>
<path d="M1269,296.8h67l22.7-8.9h-69.3L1269,296.8z"/>
<path d="M263,184.3h-97.1l25.5,17.2h92.4L263,184.3z"/>
<path d="M1358.7,287.9l24.4-9.6h-71.9l-21.8,9.6H1358.7z"/>
<path d="M1225.9,244.7h80.9l26.4-13.1h-84.4L1225.9,244.7z"/>
<path d="M1204.8,256.8h77.7l24.3-12.1h-80.9L1204.8,256.8z"/>
<path d="M1360.2,256.8l27.5-12.1h-80.9l-24.3,12.1H1360.2z"/>
<path d="M1185.5,217.2h88.3l27.3-15.7h-92.4L1185.5,217.2z"/>
<path d="M1248.8,231.6h84.4l28.8-14.4h-88.2L1248.8,231.6z"/>
<path d="M1260.1,267.9h74.7l25.4-11.1h-77.7L1260.1,267.9z"/>
<path d="M1362,217.2l31.6-15.7h-92.5l-27.3,15.7H1362z"/>
<path d="M1239.3,278.3h71.9l23.6-10.4h-74.7L1239.3,278.3z"/>
<path d="M12.3,244.7H0v12.1h39.8L12.3,244.7z"/>
<path d="M1250.1,305.1h64.7l21.2-8.3h-67L1250.1,305.1z"/>
<path d="M1357.5,312.9l22-7.8h-64.7l-19.9,7.8H1357.5z"/>
<path d="M1232.3,312.9h62.6l19.9-7.8h-64.7L1232.3,312.9z"/>
<path d="M1208.7,201.5h92.4l30.1-17.2h-97.1L1208.7,201.5z"/>
<path d="M1220,287.9h69.4l21.8-9.6h-71.9L1220,287.9z"/>
<path d="M1400,320.2v-0.8l-2.4,0.8H1400z"/>
<path d="M1301.1,201.5h92.5l6.4-3.1v-14.1h-68.8L1301.1,201.5z"/>
<path d="M1331.2,184.3h68.8v-19.1h-35.5L1331.2,184.3z"/>
<path d="M1362,217.2h38v-15.7h-6.4L1362,217.2z"/>
<path d="M1400,201.5v-3.1l-6.4,3.1H1400z"/>
<path d="M1328.5,120.3h71.5V93.6h-32.1L1328.5,120.3z"/>
<path d="M1400,165.2v-20.4l-35.5,20.4H1400z"/>
<path d="M1262.3,165.2h102.2l35.5-20.4V144h-106.4L1262.3,165.2z"/>
<path d="M1293.6,144H1400v-23.7h-71.5L1293.6,144z"/>
<path d="M1400,278.3v-6.7l-16.9,6.7H1400z"/>
<path d="M1358.7,287.9h41.3v-9.6h-16.9L1358.7,287.9z"/>
<path d="M1311.2,278.3h71.9l16.9-6.7v-3.7h-65.2L1311.2,278.3z"/>
<path d="M1306.8,244.7h80.9l12.3-5.4v-7.7h-66.8L1306.8,244.7z"/>
<path d="M1334.8,267.9h65.2v-11.1h-39.8L1334.8,267.9z"/>
<path d="M1400,244.7v-5.4l-12.3,5.4H1400z"/>
<path d="M1360.2,256.8h39.8v-12.1h-12.3L1360.2,256.8z"/>
<path d="M1400,28.7V0h-40.6l-34.7,28.7H1400z"/>
<path d="M630.6,28.7L626.7,0H480.2l11.6,28.7H630.6z"/>
<path d="M491.8,28.7L480.2,0H333.7L353,28.7H491.8z"/>
<path d="M769.4,28.7L773.3,0H626.7l3.9,28.7H769.4z"/>
<path d="M214.2,28.7L187.2,0H40.6l34.7,28.7H214.2z"/>
<path d="M353,28.7L333.7,0H187.2l27,28.7H353z"/>
<path d="M75.3,28.7L40.6,0H0v28.7H75.3z"/>
<path d="M908.2,28.7L919.8,0H773.3l-3.9,28.7H908.2z"/>
<path d="M1185.9,28.7L1212.8,0h-146.5L1047,28.7H1185.9z"/>
<path d="M1336,296.8h64v-8.9h-41.3L1336,296.8z"/>
<path d="M1282.9,63.3H1400V28.7h-75.3L1282.9,63.3z"/>
<path d="M1047,28.7L1066.3,0H919.8l-11.6,28.7H1047z"/>
<path d="M1246.4,93.6h121.5l32.1-21.8v-8.5h-117.1L1246.4,93.6z"/>
<path d="M1400,93.6V71.8l-32.1,21.8H1400z"/>
<path d="M1324.7,28.7L1359.4,0h-146.6l-26.9,28.7H1324.7z"/>
<path d="M41.3,287.9H0v8.9h64L41.3,287.9z"/>
<path d="M1314.8,305.1h64.7l20.5-7.3v-1h-64L1314.8,305.1z"/>
<path d="M0,271.6v6.7h16.9L0,271.6z"/>
<path d="M20.5,305.1H0v7.8h42.5L20.5,305.1z"/>
<path d="M16.9,278.3H0v9.6h41.3L16.9,278.3z"/>
<path d="M88.8,278.3l-23.6-10.4H0v3.7l16.9,6.7H88.8z"/>
<path d="M0,297.8v7.3h20.5L0,297.8z"/>
<path d="M85.2,305.1L64,296.8H0v1l20.5,7.3H85.2z"/>
<path d="M39.8,256.8H0v11.1h65.2L39.8,256.8z"/>
<path d="M1400,305.1v-7.3l-20.5,7.3H1400z"/>
<path d="M1357.5,312.9h42.5v-7.8h-20.5L1357.5,312.9z"/>
<path d="M1400,339.6v-2l-6.7,2H1400z"/>
<path d="M1097.2,217.2h88.3l23.2-15.7h-92.5L1097.2,217.2z"/>
<path d="M1167.4,278.3h71.9l20.8-10.4h-74.7L1167.4,278.3z"/>
<path d="M1110.7,267.9h74.7l19.4-11.1h-77.6L1110.7,267.9z"/>
<path d="M1260.1,267.9l22.4-11.1h-77.7l-19.4,11.1H1260.1z"/>
<path d="M1127.2,256.8h77.6l21.1-12.1H1145L1127.2,256.8z"/>
<path d="M1079.9,231.6h84.5l21.1-14.4h-88.3L1079.9,231.6z"/>
<path d="M1248.8,231.6l25-14.4h-88.3l-21.1,14.4H1248.8z"/>
<path d="M1145,244.7h80.9l22.9-13.1h-84.4L1145,244.7z"/>
<path d="M1185.3,305.1h64.8l18.9-8.3h-66.9L1185.3,305.1z"/>
<path d="M1169.7,312.9h62.6l17.8-7.8h-64.8L1169.7,312.9z"/>
<path d="M1269,296.8l20.4-8.9H1220l-17.9,8.9H1269z"/>
<path d="M1150.7,287.9h69.3l19.3-9.6h-71.9L1150.7,287.9z"/>
<path d="M1135.1,296.8h67l17.9-8.9h-69.3L1135.1,296.8z"/>
<path d="M214.6,267.9h-74.7l20.8,10.4h71.9L214.6,267.9z"/>
<path d="M232.6,278.3h-71.9l19.3,9.6h69.3L232.6,278.3z"/>
<path d="M180,287.9h-69.4l20.4,8.9h66.9L180,287.9z"/>
<path d="M264.9,296.8l-15.6-8.9H180l17.9,8.9H264.9z"/>
<path d="M197.9,296.8H131l19,8.3h64.7L197.9,296.8z"/>
<path d="M214.7,305.1H150l17.7,7.8h62.6L214.7,305.1z"/>
<path d="M235.6,231.6h-84.4l22.9,13.1H255L235.6,231.6z"/>
<path d="M195.2,256.8h-77.7l22.4,11.1h74.7L195.2,256.8z"/>
<path d="M214.5,217.2h-88.3l25,14.4h84.4L214.5,217.2z"/>
<path d="M283.8,201.5h-92.4l23.1,15.7h88.3L283.8,201.5z"/>
<path d="M320.1,231.6l-17.3-14.4h-88.3l21.1,14.4H320.1z"/>
<path d="M289.3,267.9l-16.5-11.1h-77.6l19.4,11.1H289.3z"/>
<path d="M255,244.7h-80.9l21.1,12.1h77.6L255,244.7z"/>
<path d="M110.6,287.9H41.3l22.7,8.9h67L110.6,287.9z"/>
<path d="M88.8,278.3H16.9l24.4,9.6h69.3L88.8,278.3z"/>
<path d="M131,296.8H64l21.2,8.3H150L131,296.8z"/>
<path d="M167.7,312.9l-17.7-7.8H85.2l19.9,7.8H167.7z"/>
<path d="M85.2,305.1H20.5l22,7.8h62.6L85.2,305.1z"/>
<path d="M180,287.9l-19.3-9.6H88.8l21.8,9.6H180z"/>
<path d="M1208.7,201.5l25.4-17.2H1137l-20.8,17.2H1208.7z"/>
<path d="M1125,93.6l28.4-30.3h-129.5l-20.3,30.3H1125z"/>
<path d="M246.6,63.3H117.1l36.5,30.3H275L246.6,63.3z"/>
<path d="M1003.6,93.6l20.3-30.3H894.3l-12.1,30.3H1003.6z"/>
<path d="M760.7,93.6l4.1-30.3H635.2l4.1,30.3H760.7z"/>
<path d="M396.4,93.6l-20.2-30.3H246.6L275,93.6H396.4z"/>
<path d="M639.3,93.6l-4.1-30.3H505.7l12.2,30.3H639.3z"/>
<path d="M139.9,267.9H65.2l23.6,10.4h71.9L139.9,267.9z"/>
<path d="M882.2,93.6l12.1-30.3H764.8l-4.1,30.3H882.2z"/>
<path d="M1057.8,165.2H1160l25.6-21.2h-107.9L1057.8,165.2z"/>
<path d="M1039.9,184.3h97.1l23-19.1h-102.2L1039.9,184.3z"/>
<path d="M985.7,120.3H1100l25-26.7h-121.4L985.7,120.3z"/>
<path d="M1023.7,201.5h92.5l20.8-17.2h-97.1L1023.7,201.5z"/>
<path d="M969.8,144h107.9l22.3-23.7H985.7L969.8,144z"/>
<path d="M1185.6,144l28.7-23.7H1100l-22.3,23.7H1185.6z"/>
<path d="M517.9,93.6l-12.2-30.3H376.2l20.2,30.3H517.9z"/>
<path d="M126.2,217.2H38l28.8,14.4h84.4L126.2,217.2z"/>
<path d="M98.9,201.5H6.4L38,217.2h88.2L98.9,201.5z"/>
<path d="M151.2,231.6H66.8l26.4,13.1h80.9L151.2,231.6z"/>
<path d="M93.2,244.7H12.3l27.5,12.1h77.7L93.2,244.7z"/>
<path d="M195.2,256.8l-21.1-12.1H93.2l24.3,12.1H195.2z"/>
<path d="M300,120.3l-25-26.7H153.6l32.2,26.7H300z"/>
<path d="M214.5,217.2l-23.1-15.7H98.9l27.3,15.7H214.5z"/>
<path d="M117.5,256.8H39.8l25.4,11.1h74.7L117.5,256.8z"/>
<path d="M165.9,184.3H68.8l30.1,17.2h92.5L165.9,184.3z"/>
<path d="M153.6,93.6H32.1l39.4,26.7h114.3L153.6,93.6z"/>
<path d="M214.4,144H106.5l31.2,21.2H240L214.4,144z"/>
<path d="M185.8,120.3H71.5l35,23.7h107.9L185.8,120.3z"/>
<path d="M137.7,165.2H35.5l33.3,19.1h97.1L137.7,165.2z"/>
<path d="M263,184.3l-23-19.1H137.7l28.2,19.1H263z"/>
</g>


</svg>
