<svg xmlns="http://www.w3.org/2000/svg" preserveAspectRatio="xMidYMid slice" width="1400" height="900" viewBox="0 0 1400 900">
<g id="floor">
	<path d="M648.9,734.8H546.6L538.1,756H646Z"/><path d="M538.1,756l-9.5,23.7H642.9L646,756Z"/><path d="M651.4,715.7H554.3l-7.7,19.1H648.9Z"/><path d="M853.3,734.8l8.6,21.2H969.8l-14.2-21.2Z"/><path d="M754,756l3.1,23.7H871.4L861.9,756Z"/><path d="M871.4,779.7H985.7L969.8,756H861.9Z"/><path d="M646,756l-3.1,23.7H757.1L754,756Z"/><path d="M497.7,655.3H416.8l-12.3,13.1h84.4Z"/><path d="M457.2,715.7l-12.8,19.1H546.6l7.7-19.1Z"/><path d="M505.8,643.2H428.2l-11.4,12.1h80.9Z"/><path d="M404.5,668.4,391,682.8h88.3l9.6-14.4Z"/><path d="M561.3,698.5H468.8l-11.6,17.2h97.1Z"/><path d="M567.6,682.8H479.3l-10.5,15.7h92.5Z"/><path d="M1135.1,603.2h67l-16.8-8.3h-64.7Z"/><path d="M1110.7,632.1h74.7l-18-10.4h-71.9Z"/><path d="M1023.6,621.7l12.4,10.4h74.7l-15.2-10.4Z"/><path d="M350.5,643.2l-14.6,12.1h80.9l11.4-12.1Z"/><path d="M1064.1,655.3H1145l-17.8-12.1h-77.7Z"/><path d="M1049.5,643.2h77.7l-16.5-11.1H1036Z"/><path d="M1055.9,594.9l12.3,8.3h66.9l-14.5-8.3Z"/><path d="M1095.5,621.7h71.9l-16.7-9.6h-69.3Z"/><path d="M1081.4,612.1h69.3l-15.6-8.9h-66.9Z"/><path d="M1023.7,698.5h92.5l-19-15.7h-88.3Z"/><path d="M920.7,682.8l10.5,15.7h92.5l-14.8-15.7Z"/><path d="M942.8,715.7h97.1l-16.2-17.2H931.2Z"/><path d="M955.6,734.8h102.2l-17.9-19.1H942.8Z"/><path d="M1008.9,682.8h88.3l-17.3-14.4H995.5Z"/><path d="M983.2,655.3l12.3,13.1h84.4l-15.8-13.1Z"/><path d="M1079.9,668.4h84.5L1145,655.3h-80.9Z"/><path d="M969.8,756h107.9l-19.9-21.2H955.6Z"/><path d="M573.3,668.4H488.9l-9.6,14.4h88.3Z"/><path d="M728.5,566.5l-.8-6.1H672.3l-.9,6.1Z"/><path d="M899.8,566.5l-5.7-6.1H838.6l4.1,6.1Z"/><path d="M842.7,566.5l-4.1-6.1H783.2l2.4,6.1Z"/><path d="M785.6,566.5l-2.4-6.1H727.7l.8,6.1Z"/><path d="M671.4,566.5l.9-6.1H616.8l-2.4,6.1Z"/><path d="M557.3,566.5l4-6.1H505.9l-5.7,6.1Z"/><path d="M614.4,566.5l2.4-6.1H561.3l-4,6.1Z"/><path d="M1033.6,579.8h60.7l-12-6.9h-58.8Z"/><path d="M956.9,566.5l-7.3-6.1H894.1l5.7,6.1Z"/><path d="M500.2,566.5l5.7-6.1H450.4l-7.3,6.1Z"/><path d="M1082.3,572.9h58.9l-13-6.4h-57.1Z"/><path d="M1014,566.5l9.5,6.4h58.8l-11.2-6.4Z"/><path d="M1128.2,566.5l-12.3-6.1h-55.4l10.6,6.1Z"/><path d="M1014,566.5l-9-6.1H949.6l7.3,6.1Z"/><path d="M1071.1,566.5l-10.6-6.1H1005l9,6.1Z"/><path d="M318.6,612.1l-14.1,9.6h71.9l11.6-9.6Z"/><path d="M398.7,603.2H331.8l-13.2,8.9H388Z"/><path d="M408.8,594.9H344.1l-12.3,8.3h66.9Z"/><path d="M418.2,587.1H355.6l-11.5,7.8h64.7Z"/><path d="M448.3,621.7H376.4l-12.5,10.4h74.7Z"/><path d="M438.6,632.1H363.9l-13.4,11.1h77.7Z"/><path d="M292.9,587.1l-13.5,7.8h64.7l11.5-7.8Z"/><path d="M457.3,612.1H388l-11.6,9.6h71.9Z"/><path d="M339.5,560.4H284l-12.2,6.1h57.1Z"/><path d="M1044.4,587.1H1107l-12.7-7.3h-60.7Z"/><path d="M271.8,566.5l-13,6.4h58.8l11.3-6.4Z"/><path d="M386,566.5l9-6.1H339.5l-10.6,6.1Z"/><path d="M386,566.5H328.9l-11.3,6.4h58.9Z"/><path d="M366.3,579.8H305.7l-12.8,7.3h62.7Z"/><path d="M376.5,572.9H317.6l-11.9,6.9h60.6Z"/><path d="M443.1,566.5l7.3-6.1H395l-9,6.1Z"/><path d="M468.8,698.5H376.3l-16.2,17.2h97.1Z"/><path d="M255,655.3l-19.4,13.1h84.5l15.8-13.1Z"/><path d="M350.5,643.2H272.8L255,655.3h80.9Z"/><path d="M479.3,682.8H391l-14.7,15.7h92.5Z"/><path d="M363.9,632.1H289.3l-16.5,11.1h77.7Z"/><path d="M404.5,668.4H320.1l-17.3,14.4H391Z"/><path d="M302.8,682.8l-19,15.7h92.5L391,682.8Z"/><path d="M416.8,655.3H335.9l-15.8,13.1h84.4Z"/><path d="M305.7,579.8H245l-14.7,7.3h62.6Z"/><path d="M292.9,587.1H230.3l-15.6,7.8h64.7Z"/><path d="M344.1,594.9H279.4l-14.5,8.3h66.9Z"/><path d="M214.7,594.9l-16.8,8.3h67l14.5-8.3Z"/><path d="M232.6,621.7l-18,10.4h74.7l15.2-10.4Z"/><path d="M318.6,612.1H249.3l-16.7,9.6h71.9Z"/><path d="M331.8,603.2H264.9l-15.6,8.9h69.3Z"/><path d="M376.4,621.7H304.5l-15.2,10.4h74.6Z"/><path d="M1003.6,806.4H1125l-25-26.7H985.7Z"/><path d="M457.2,715.7H360.1l-17.9,19.1H444.4Z"/><path d="M969.8,756l15.9,23.7H1100L1077.7,756Z"/><path d="M1100,779.7h114.2L1185.6,756H1077.7Z"/><path d="M1057.8,734.8H1160l-23-19.1h-97.1Z"/><path d="M757.1,779.7l3.6,26.7H882.1l-10.7-26.7Z"/><path d="M1077.7,756h107.9L1160,734.8H1057.8Z"/><path d="M871.4,779.7l10.7,26.7h121.5l-17.9-26.7Z"/><path d="M538.1,756H430.2l-15.9,23.7H528.6Z"/><path d="M546.6,734.8H444.4L430.2,756H538.1Z"/><path d="M342.2,734.8,322.3,756H430.2l14.2-21.2Z"/><path d="M414.3,779.7l-17.9,26.7H517.8l10.8-26.7Z"/><path d="M642.9,779.7l-3.6,26.7H760.7l-3.6-26.7Z"/><path d="M528.6,779.7l-10.8,26.7H639.3l3.6-26.7Z"/><path d="M505.9,560.4l5.4-5.8H457.4l-7,5.8Z"/><path d="M1060.5,560.4l-10-5.8h-54l8.5,5.8Z"/><path d="M1115.9,560.4l-11.5-5.8h-53.9l10,5.8Z"/><path d="M1005,560.4l-8.5-5.8H942.6l7,5.8Z"/><path d="M317.6,572.9H258.8L245,579.8h60.7Z"/><path d="M838.6,560.4l-3.8-5.8H780.9l2.3,5.8Z"/><path d="M949.6,560.4l-7-5.8H888.7l5.4,5.8Z"/><path d="M1171.4,560.4l-13.1-5.8h-53.9l11.5,5.8Z"/><path d="M1115.9,560.4l12.3,6.1h57.1l-13.9-6.1Z"/><path d="M1226.9,560.4l-14.7-5.8h-53.9l13.1,5.8Z"/><path d="M1107,587.1h62.7l-14.7-7.3h-60.7Z"/><path d="M1155,579.8h60.6l-15.6-6.9h-58.8Z"/><path d="M1082.3,572.9l12,6.9H1155l-13.8-6.9Z"/><path d="M1185.3,566.5h57.1l-15.5-6.1h-55.5Z"/><path d="M1141.2,572.9H1200l-14.7-6.4h-57.1Z"/><path d="M783.2,560.4l-2.3-5.8H727l.7,5.8Z"/><path d="M894.1,560.4l-5.4-5.8H834.8l3.8,5.8Z"/><path d="M173.1,560.4l-15.5,6.1h57.1l13.9-6.1Z"/><path d="M241.7,554.6H187.8l-14.7,5.8h55.5Z"/><path d="M284,560.4l11.6-5.8H241.7l-13.1,5.8Z"/><path d="M200,572.9l-15.6,6.9H245l13.8-6.9Z"/><path d="M339.5,560.4l10-5.8H295.6L284,560.4Z"/><path d="M271.8,566.5H214.7L200,572.9h58.8Z"/><path d="M284,560.4H228.6l-13.9,6.1h57.1Z"/><path d="M561.3,560.4l3.9-5.8H511.3l-5.4,5.8Z"/><path d="M395,560.4l8.4-5.8H349.5l-10,5.8Z"/><path d="M616.8,560.4l2.3-5.8H565.2l-3.9,5.8Z"/><path d="M672.3,560.4l.7-5.8H619.1l-2.3,5.8Z"/><path d="M727.7,560.4l-.7-5.8H673l-.7,5.8Z"/><path d="M1120.6,594.9h64.7l-15.6-7.8H1107Z"/><path d="M450.4,560.4l7-5.8h-54l-8.4,5.8Z"/><path d="M856.5,587.1l-4.8-7.3H791l2.9,7.3Z"/><path d="M609,579.8l2.8-6.9H552.9l-4.6,6.9Z"/><path d="M669.7,579.8l.9-6.9H611.8l-2.8,6.9Z"/><path d="M730.3,579.8l-.9-6.9H670.6l-.9,6.9Z"/><path d="M791,579.8l-2.8-6.9H729.4l.9,6.9Z"/><path d="M543.4,587.1H480.8l-7.3,7.8h64.7Z"/><path d="M826.6,668.4h84.5l-8.8-13.1H821.4Z"/><path d="M552.9,572.9H494.1l-6.4,6.9h60.6Z"/><path d="M912.3,579.8l-6.4-6.9H847.1l4.6,6.9Z"/><path d="M851.7,579.8l-4.6-6.9H788.2l2.8,6.9Z"/><path d="M804,612.1h69.3l-5.9-8.9h-67Z"/><path d="M867.4,603.2h66.9l-7.8-8.3H861.8Z"/><path d="M797.1,594.9l3.3,8.3h67l-5.6-8.3Z"/><path d="M473.5,594.9l-7.8,8.3h66.9l5.6-8.3Z"/><path d="M856.5,587.1h62.7l-6.9-7.3H851.7Z"/><path d="M861.8,594.9h64.7l-7.3-7.8H856.5Z"/><path d="M740.4,655.3H659.5l-1.7,13.1h84.4Z"/><path d="M742.2,668.4H657.8l-1.9,14.4h88.2Z"/><path d="M602.9,594.9H538.2l-5.6,8.3h67Z"/><path d="M655.9,682.8l-2.1,15.7h92.4l-2.1-15.7Z"/><path d="M746.2,698.5h92.5l-6.3-15.7H744.1Z"/><path d="M740.4,655.3l1.8,13.1h84.4l-5.2-13.1Z"/><path d="M744.1,682.8h88.3l-5.8-14.4H742.2Z"/><path d="M738.8,643.2H661.2l-1.7,12.1h80.9Z"/><path d="M807.9,621.7h71.9l-6.5-9.6H804Z"/><path d="M583.5,643.2l-4.9,12.1h80.9l1.7-12.1Z"/><path d="M599.6,603.2h-67l-6,8.9H596Z"/><path d="M520.2,621.7l-6.9,10.4H588l4.1-10.4Z"/><path d="M596,612.1H526.6l-6.4,9.6h71.9Z"/><path d="M662.7,632.1H588l-4.5,11.1h77.7Z"/><path d="M664,621.7H592.1L588,632.1h74.7Z"/><path d="M548.3,579.8H487.7l-6.9,7.3h62.6Z"/><path d="M734.7,612.1H804l-3.6-8.9H733.5Z"/><path d="M666.5,603.2l-1.2,8.9h69.4l-1.2-8.9Z"/><path d="M731.3,587.1H668.7l-1.1,7.8h64.8Z"/><path d="M732.4,594.9H667.6l-1.1,8.3h67Z"/><path d="M733.5,603.2h66.9l-3.3-8.3H732.4Z"/><path d="M797.1,594.9h64.7l-5.3-7.8H793.9Z"/><path d="M731.3,587.1l1.1,7.8h64.7l-3.2-7.8Z"/><path d="M1023.7,698.5l16.2,17.2H1137l-20.8-17.2Z"/><path d="M735.9,621.7h72l-3.9-9.6H734.7Z"/><path d="M1320.1,554.6l-16.8-5.4h-52.5l15.3,5.4Z"/><path d="M96.7,549.2l-16.8,5.4h54l15.3-5.4Z"/><path d="M748.6,715.7h97.1l-7-17.2H746.2Z"/><path d="M812,632.1h74.7l-6.9-10.4H807.9Z"/><path d="M435.3,572.9l-8.3,6.9h60.7l6.4-6.9Z"/><path d="M973,579.8l-8.3-6.9H905.9l6.4,6.9Z"/><path d="M740.4,655.3h81l-4.9-12.1H738.8Z"/><path d="M793.9,587.1l-2.9-7.3H730.3l1,7.3Z"/><path d="M666.5,603.2H599.6l-3.6,8.9h69.3Z"/><path d="M596,612.1l-3.9,9.6H664l1.3-9.6Z"/><path d="M734.7,612.1H665.3l-1.3,9.6h71.9Z"/><path d="M735.9,621.7l1.4,10.4H812l-4.1-10.4Z"/><path d="M662.7,632.1l-1.5,11.1h77.6l-1.5-11.1Z"/><path d="M738.8,643.2h77.7L812,632.1H737.3Z"/><path d="M735.9,621.7H664l-1.3,10.4h74.6Z"/><path d="M668.7,587.1l1-7.3H609l-2.9,7.3Z"/><path d="M609,579.8H548.3l-4.9,7.3h62.7Z"/><path d="M731.3,587.1l-1-7.3H669.7l-1,7.3Z"/><path d="M667.6,594.9H602.9l-3.3,8.3h66.9Z"/><path d="M668.7,587.1H606.1l-3.2,7.8h64.7Z"/><path d="M543.4,587.1l-5.2,7.8h64.7l3.2-7.8Z"/><path d="M886.7,632.1h74.7l-9.7-10.4H879.8Z"/><path d="M746.2,698.5H653.8l-2.4,17.2h97.2Z"/><path d="M655.9,682.8H567.6l-6.3,15.7h92.5Z"/><path d="M561.3,698.5l-7,17.2h97.1l2.4-17.2Z"/><path d="M748.6,715.7H651.4l-2.5,19.1H751.1Z"/><path d="M748.6,715.7l2.5,19.1H853.3l-7.6-19.1Z"/><path d="M648.9,734.8,646,756H754l-2.9-21.2Z"/><path d="M754,756H861.9l-8.6-21.2H751.1Z"/><path d="M588,632.1H513.3l-7.5,11.1h77.7Z"/><path d="M853.3,734.8H955.6l-12.8-19.1H845.7Z"/><path d="M438.6,632.1l-10.4,11.1h77.6l7.5-11.1Z"/><path d="M520.2,621.7H448.3l-9.7,10.4h74.7Z"/><path d="M657.8,668.4H573.3l-5.7,14.4h88.3Z"/><path d="M659.5,655.3H578.6l-5.3,13.1h84.5Z"/><path d="M497.7,655.3l-8.8,13.1h84.4l5.3-13.1Z"/><path d="M583.5,643.2H505.8l-8.1,12.1h80.9Z"/><path d="M838.7,698.5h92.5l-10.5-15.7H832.4Z"/><path d="M942.7,612.1l9,9.6h71.9l-11.6-9.6Z"/><path d="M961.4,632.1H1036l-12.4-10.4H951.7Z"/><path d="M1023.6,621.7h71.9l-14.1-9.6H1012Z"/><path d="M1012,612.1h69.4l-13.2-8.9h-67Z"/><path d="M981.8,587.1l9.4,7.8h64.7l-11.5-7.8Z"/><path d="M1001.2,603.2h67l-12.3-8.3H991.2Z"/><path d="M971.8,643.2h77.7L1036,632.1H961.4Z"/><path d="M920.7,682.8h88.2l-13.4-14.4H911.1Z"/><path d="M826.6,668.4l5.8,14.4h88.3l-9.6-14.4Z"/><path d="M983.2,655.3h80.9l-14.6-12.1H971.8Z"/><path d="M845.7,715.7h97.1l-11.6-17.2H838.7Z"/><path d="M526.6,612.1H457.3l-9,9.6h71.9Z"/><path d="M894.2,643.2l8.1,12.1h80.9l-11.4-12.1Z"/><path d="M911.1,668.4h84.4l-12.3-13.1H902.3Z"/><path d="M480.8,587.1H418.2l-9.4,7.8h64.7Z"/><path d="M912.3,579.8l6.9,7.3h62.6l-8.8-7.3Z"/><path d="M926.5,594.9h64.7l-9.4-7.8H919.2Z"/><path d="M981.8,587.1h62.6l-10.8-7.3H973Z"/><path d="M973,579.8h60.6l-10.1-6.9H964.7Z"/><path d="M905.9,572.9l-6.1-6.4H842.7l4.4,6.4Z"/><path d="M934.3,603.2h66.9l-10-8.3H926.5Z"/><path d="M1023.5,572.9l-9.5-6.4H956.9l7.8,6.4Z"/><path d="M964.7,572.9l-7.8-6.4H899.8l6.1,6.4Z"/><path d="M894.2,643.2h77.6l-10.4-11.1H886.7Z"/><path d="M812,632.1l4.5,11.1h77.7l-7.5-11.1Z"/><path d="M942.7,612.1H1012l-10.8-8.9H934.3Z"/><path d="M1055.9,594.9h64.7l-13.6-7.8h-62.6Z"/><path d="M867.4,603.2l5.9,8.9h69.4l-8.4-8.9Z"/><path d="M879.8,621.7h71.9l-9-9.6H873.3Z"/><path d="M821.4,655.3h80.9l-8.1-12.1H816.5Z"/><path d="M487.7,579.8H427l-8.8,7.3h62.6Z"/><path d="M366.3,579.8l-10.7,7.3h62.6l8.8-7.3Z"/><path d="M435.3,572.9H376.5l-10.2,6.9H427Z"/><path d="M532.6,603.2H465.7l-8.4,8.9h69.3Z"/><path d="M443.1,566.5H386l-9.5,6.4h58.8Z"/><path d="M847.1,572.9l-4.4-6.4H785.6l2.6,6.4Z"/><path d="M473.5,594.9H408.8l-10.1,8.3h67Z"/><path d="M398.7,603.2,388,612.1h69.3l8.4-8.9Z"/><path d="M729.4,572.9l-.9-6.4H671.4l-.8,6.4Z"/><path d="M494.1,572.9l6.1-6.4H443.1l-7.8,6.4Z"/><path d="M788.2,572.9l-2.6-6.4H728.5l.9,6.4Z"/><path d="M670.6,572.9l.8-6.4h-57l-2.6,6.4Z"/><path d="M552.9,572.9l4.4-6.4H500.2l-6.1,6.4Z"/><path d="M611.8,572.9l2.6-6.4H557.3l-4.4,6.4Z"/><path d="M66.8,668.4H0v14.4H38Z"/><path d="M246.6,836.7l-32.5,34.6H353l23.1-34.6Z"/><path d="M635.2,836.7l-4.6,34.6H769.4l-4.6-34.6Z"/><path d="M376.1,836.7,353,871.3H491.8l13.9-34.6Z"/><path d="M505.7,836.7l-13.9,34.6H630.6l4.6-34.6Z"/><path d="M1023.8,836.7l23.2,34.6h138.8l-32.4-34.6Z"/><path d="M764.8,836.7l4.6,34.6H908.2l-13.9-34.6Z"/><path d="M894.3,836.7l13.9,34.6H1047l-23.2-34.6Z"/><path d="M1153.4,836.7l32.4,34.6h138.9l-41.8-34.6Z"/><path d="M240,734.8H137.7L106.4,756h108Z"/><path d="M214.4,756h-108L71.5,779.7H185.7Z"/><path d="M263,715.7H165.9l-28.2,19.1H240Z"/><path d="M117.1,836.7,75.3,871.3H214.1l32.5-34.6Z"/><path d="M275,806.4H153.6l-36.5,30.3H246.6Z"/><path d="M300,779.7H185.7l-32.1,26.7H275Z"/><path d="M71.5,779.7,32.1,806.4H153.6l32.1-26.7Z"/><path d="M1362,682.8h38V668.4h-66.8Z"/><path d="M1393.6,698.5h6.4V682.8h-38Z"/><path d="M1400,701.6v-3.1h-6.4Z"/><path d="M1324.7,871.3H1400V836.7H1282.9Z"/><path d="M1364.5,734.8H1400V715.7h-68.8Z"/><path d="M1400,660.7v-5.4h-12.3Z"/><path d="M68.8,715.7,35.5,734.8H137.7l28.2-19.1Z"/><path d="M1306.8,655.3l26.4,13.1H1400v-7.7l-12.3-5.4Z"/><path d="M1301.1,698.5l30.1,17.2H1400V701.6l-6.4-3.1Z"/><path d="M1400,755.2V734.8h-35.5Z"/><path d="M1367.9,806.4H1400V779.7h-71.5Z"/><path d="M1246.4,806.4l36.5,30.3H1400v-8.5l-32.1-21.8Z"/><path d="M1400,828.2V806.4h-32.1Z"/><path d="M1262.3,734.8l31.2,21.2H1400v-.8l-35.5-20.4Z"/><path d="M1328.5,779.7H1400V756H1293.5Z"/><path d="M131,603.2H64l-22.7,8.9h69.3Z"/><path d="M117.7,560.4H62.2l-18.8,6.1h57.1Z"/><path d="M1137,715.7h97.1l-25.5-17.2h-92.4Z"/><path d="M26,554.6,6.7,560.4H62.2l17.7-5.8Z"/><path d="M133.9,554.6h-54l-17.7,5.8h55.5Z"/><path d="M141.2,572.9H82.3L63,579.8h60.7Z"/><path d="M100.5,566.5H43.4l-19.9,6.4H82.3Z"/><path d="M123.7,579.8H63l-20.5,7.3h62.6Z"/><path d="M23.5,572.9,2.4,579.8H63l19.3-6.9Z"/><path d="M41.3,612.1l-24.4,9.6H88.8l21.8-9.6Z"/><path d="M174.1,655.3H93.2L66.8,668.4h84.4Z"/><path d="M195.2,643.2H117.5L93.2,655.3h80.9Z"/><path d="M39.8,643.2,12.3,655.3H93.2l24.3-12.1Z"/><path d="M214.5,682.8H126.2L98.9,698.5h92.4Z"/><path d="M151.2,668.4H66.8L38,682.8h88.2Z"/><path d="M139.9,632.1H65.2L39.8,643.2h77.7Z"/><path d="M38,682.8,6.4,698.5H98.9l27.3-15.7Z"/><path d="M160.7,621.7H88.8L65.2,632.1h74.7Z"/><path d="M1387.7,655.3H1400V643.2h-39.8Z"/><path d="M149.9,594.9H85.2L64,603.2h67Z"/><path d="M42.5,587.1l-22,7.8H85.2l19.9-7.8Z"/><path d="M167.7,587.1H105.1l-19.9,7.8h64.7Z"/><path d="M191.3,698.5H98.9L68.8,715.7h97.1Z"/><path d="M180,612.1H110.6l-21.8,9.6h71.9Z"/><path d="M0,579.8v.8l2.4-.8Z"/><path d="M98.9,698.5H6.4L0,701.6v14.1H68.8Z"/><path d="M68.8,715.7H0v19.1H35.5Z"/><path d="M38,682.8H0v15.7H6.4Z"/><path d="M0,698.5v3.1l6.4-3.1Z"/><path d="M71.5,779.7H0v26.7H32.1Z"/><path d="M0,734.8v20.4l35.5-20.4Z"/><path d="M137.7,734.8H35.5L0,755.2v.8H106.4Z"/><path d="M106.4,756H0v23.7H71.5Z"/><path d="M0,621.7v6.7l16.9-6.7Z"/><path d="M41.3,612.1H0v9.6H16.9Z"/><path d="M88.8,621.7H16.9L0,628.4v3.7H65.2Z"/><path d="M93.2,655.3H12.3L0,660.7v7.7H66.8Z"/><path d="M65.2,632.1H0v11.1H39.8Z"/><path d="M0,655.3v5.4l12.3-5.4Z"/><path d="M39.8,643.2H0v12.1H12.3Z"/><path d="M0,871.3V900H40.6l34.7-28.7Z"/><path d="M769.4,871.3l3.9,28.7H919.8l-11.6-28.7Z"/><path d="M908.2,871.3,919.8,900h146.5L1047,871.3Z"/><path d="M630.6,871.3,626.7,900H773.3l-3.9-28.7Z"/><path d="M1185.8,871.3l27,28.7h146.6l-34.7-28.7Z"/><path d="M1047,871.3l19.3,28.7h146.5l-27-28.7Z"/><path d="M1324.7,871.3l34.7,28.7H1400V871.3Z"/><path d="M491.8,871.3,480.2,900H626.7l3.9-28.7Z"/><path d="M214.1,871.3,187.2,900H333.7L353,871.3Z"/><path d="M64,603.2H0v8.9H41.3Z"/><path d="M117.1,836.7H0v34.6H75.3Z"/><path d="M353,871.3,333.7,900H480.2l11.6-28.7Z"/><path d="M153.6,806.4H32.1L0,828.2v8.5H117.1Z"/><path d="M0,806.4v21.8l32.1-21.8Z"/><path d="M75.3,871.3,40.6,900H187.2l26.9-28.7Z"/><path d="M1358.7,612.1H1400v-8.9h-64Z"/><path d="M1376.5,572.9H1400v-6.4h-43.4Z"/><path d="M1397.6,579.8h2.4v-6.9h-23.5Z"/><path d="M1400,580.6v-.8h-2.4Z"/><path d="M85.2,594.9H20.5L0,602.2v1H64Z"/><path d="M1393.2,560.4h6.8v-5.8h-26Z"/><path d="M1337,579.8l20.5,7.3H1400v-6.5l-2.4-.8Z"/><path d="M1374,554.6h26v-5.4h-44.3Z"/><path d="M1337.8,560.4l18.8,6.1H1400v-4.1l-6.8-2Z"/><path d="M1400,628.4v-6.7h-16.9Z"/><path d="M1379.5,594.9H1400v-7.8h-42.5Z"/><path d="M1383.1,621.7H1400v-9.6h-41.3Z"/><path d="M1311.2,621.7l23.6,10.4H1400v-3.7l-16.9-6.7Z"/><path d="M1400,602.2v-7.3h-20.5Z"/><path d="M1314.8,594.9l21.2,8.3h64v-1l-20.5-7.3Z"/><path d="M1360.2,643.2H1400V632.1h-65.2Z"/><path d="M1400,562.4v-2h-6.8Z"/><path d="M43.4,566.5H0v6.4H23.5Z"/><path d="M23.5,572.9H0v6.9H2.4Z"/><path d="M63,579.8H2.4l-2.4.8v6.5H42.5Z"/><path d="M0,594.9v7.3l20.5-7.3Z"/><path d="M42.5,587.1H0v7.8H20.5Z"/><path d="M62.2,560.4H6.7l-6.7,2v4.1H43.4Z"/><path d="M0,560.4v2l6.7-2Z"/><path d="M44.2,549.2H0v5.4H26Z"/><path d="M26,554.6H0v5.8H6.7Z"/><path d="M96.7,549.2H44.2L26,554.6H79.9Z"/><path d="M201.6,549.2H149.2l-15.3,5.4h53.9Z"/><path d="M727,554.6l-.8-5.4H673.8l-.8,5.4Z"/><path d="M187.8,554.6H133.9l-16.2,5.8h55.4Z"/><path d="M295.6,554.6l10.9-5.4H254.1l-12.4,5.4Z"/><path d="M214.7,566.5H157.6l-16.4,6.4H200Z"/><path d="M173.1,560.4H117.7l-17.2,6.1h57.1Z"/><path d="M100.5,566.5l-18.2,6.4h58.9l16.4-6.4Z"/><path d="M457.4,554.6l6.5-5.4H411.5l-8.1,5.4Z"/><path d="M565.2,554.6l3.6-5.4H516.4l-5.1,5.4Z"/><path d="M619.1,554.6l2.2-5.4H568.8l-3.6,5.4Z"/><path d="M673,554.6l.8-5.4H621.3l-2.2,5.4Z"/><path d="M349.5,554.6l9.5-5.4H306.5l-10.9,5.4Z"/><path d="M403.4,554.6l8.1-5.4H359l-9.5,5.4Z"/><path d="M511.3,554.6l5.1-5.4H463.9l-6.5,5.4Z"/><path d="M302.8,682.8H214.5l-23.2,15.7h92.5Z"/><path d="M241.7,554.6l12.4-5.4H201.6l-13.8,5.4Z"/><path d="M232.6,621.7H160.7l-20.8,10.4h74.7Z"/><path d="M289.3,632.1H214.6l-19.4,11.1h77.6Z"/><path d="M139.9,632.1l-22.4,11.1h77.7l19.4-11.1Z"/><path d="M272.8,643.2H195.2l-21.1,12.1H255Z"/><path d="M320.1,668.4H235.6l-21.1,14.4h88.3Z"/><path d="M151.2,668.4l-25,14.4h88.3l21.1-14.4Z"/><path d="M255,655.3H174.1l-22.9,13.1h84.4Z"/><path d="M214.7,594.9H149.9L131,603.2h66.9Z"/><path d="M230.3,587.1H167.7l-17.8,7.8h64.8Z"/><path d="M245,579.8H184.4l-16.7,7.3h62.6Z"/><path d="M123.7,579.8l-18.6,7.3h62.6l16.7-7.3Z"/><path d="M131,603.2l-20.4,8.9H180l17.9-8.9Z"/><path d="M249.3,612.1H180l-19.3,9.6h71.9Z"/><path d="M264.9,603.2h-67L180,612.1h69.3Z"/><path d="M200,572.9H141.2l-17.5,6.9h60.7Z"/><path d="M1185.4,632.1h74.7l-20.8-10.4h-71.9Z"/><path d="M1167.4,621.7h71.9l-19.3-9.6h-69.3Z"/><path d="M1220,612.1h69.4l-20.4-8.9h-66.9Z"/><path d="M1135.1,603.2l15.6,8.9H1220l-17.9-8.9Z"/><path d="M1155,579.8l14.7,7.3h62.6l-16.7-7.3Z"/><path d="M1202.1,603.2H1269l-19-8.3h-64.7Z"/><path d="M1185.3,594.9H1250l-17.7-7.8h-62.6Z"/><path d="M1164.4,668.4h84.4l-22.9-13.1H1145Z"/><path d="M1204.8,643.2h77.7l-22.4-11.1h-74.7Z"/><path d="M1185.5,682.8h88.3l-25-14.4h-84.4Z"/><path d="M1116.2,698.5h92.4l-23.1-15.7h-88.3Z"/><path d="M1079.9,668.4l17.3,14.4h88.3l-21.1-14.4Z"/><path d="M1110.7,632.1l16.5,11.1h77.6l-19.4-11.1Z"/><path d="M1145,655.3h80.9l-21.1-12.1h-77.6Z"/><path d="M1232.3,587.1h62.6l-18.6-7.3h-60.7Z"/><path d="M834.8,554.6l-3.7-5.4H778.7l2.2,5.4Z"/><path d="M1050.5,554.6l-9.5-5.4H988.5l8,5.4Z"/><path d="M1104.4,554.6l-11-5.4H1041l9.5,5.4Z"/><path d="M1158.3,554.6l-12.4-5.4h-52.5l11,5.4Z"/><path d="M996.5,554.6l-8-5.4H936.1l6.5,5.4Z"/><path d="M780.9,554.6l-2.2-5.4H726.2l.8,5.4Z"/><path d="M888.7,554.6l-5.1-5.4H831.1l3.7,5.4Z"/><path d="M942.6,554.6l-6.5-5.4H883.6l5.1,5.4Z"/><path d="M1215.6,579.8h60.7l-17.5-6.9H1200Z"/><path d="M1212.2,554.6l-13.8-5.4h-52.5l12.4,5.4Z"/><path d="M1185.3,566.5l14.7,6.4h58.8l-16.4-6.4Z"/><path d="M1242.4,566.5h57.1l-17.2-6.1h-55.4Z"/><path d="M1258.8,572.9h58.8l-18.1-6.4h-57.1Z"/><path d="M1226.9,560.4h55.4l-16.2-5.8h-53.9Z"/><path d="M1266.1,554.6l-15.3-5.4h-52.4l13.8,5.4Z"/><path d="M1320.1,554.6H1374l-18.3-5.4h-52.4Z"/><path d="M1299.5,566.5h57.1l-18.8-6.1h-55.5Z"/><path d="M1266.1,554.6l16.2,5.8h55.5l-17.7-5.8Z"/><path d="M1337,579.8h60.6l-21.1-6.9h-58.9Z"/><path d="M1317.6,572.9h58.9l-19.9-6.4h-57.1Z"/><path d="M1337.8,560.4h55.4l-19.2-5.8h-53.9Z"/><path d="M1289.4,612.1h69.3l-22.7-8.9h-67Z"/><path d="M1311.2,621.7h71.9l-24.4-9.6h-69.3Z"/><path d="M1269,603.2h67l-21.2-8.3H1250Z"/><path d="M1258.8,572.9l17.5,6.9H1337l-19.4-6.9Z"/><path d="M1294.9,587.1h62.6l-20.5-7.3h-60.7Z"/><path d="M1232.3,587.1l17.7,7.8h64.8l-19.9-7.8Z"/><path d="M1314.8,594.9h64.7l-22-7.8h-62.6Z"/><path d="M1220,612.1l19.3,9.6h71.9l-21.8-9.6Z"/><path d="M191.3,698.5l-25.4,17.2H263l20.8-17.2Z"/><path d="M275,806.4l-28.4,30.3H376.1l20.3-30.3Z"/><path d="M1153.4,836.7h129.5l-36.5-30.3H1125Z"/><path d="M396.4,806.4l-20.3,30.3H505.7l12.1-30.3Z"/><path d="M639.3,806.4l-4.1,30.3H764.8l-4.1-30.3Z"/><path d="M1003.6,806.4l20.2,30.3h129.6L1125,806.4Z"/><path d="M760.7,806.4l4.1,30.3H894.3l-12.2-30.3Z"/><path d="M1260.1,632.1h74.7l-23.6-10.4h-71.9Z"/><path d="M517.8,806.4l-12.1,30.3H635.2l4.1-30.3Z"/><path d="M342.2,734.8H240L214.4,756H322.3Z"/><path d="M360.1,715.7H263l-23,19.1H342.2Z"/><path d="M414.3,779.7H300l-25,26.7H396.4Z"/><path d="M376.3,698.5H283.8L263,715.7h97.1Z"/><path d="M430.2,756H322.3L300,779.7H414.3Z"/><path d="M214.4,756l-28.7,23.7H300L322.3,756Z"/><path d="M882.1,806.4l12.2,30.3h129.5l-20.2-30.3Z"/><path d="M1273.8,682.8H1362l-28.8-14.4h-84.4Z"/><path d="M1301.1,698.5h92.5L1362,682.8h-88.2Z"/><path d="M1248.8,668.4h84.4l-26.4-13.1h-80.9Z"/><path d="M1306.8,655.3h80.9l-27.5-12.1h-77.7Z"/><path d="M1204.8,643.2l21.1,12.1h80.9l-24.3-12.1Z"/><path d="M1100,779.7l25,26.7h121.4l-32.2-26.7Z"/><path d="M1185.5,682.8l23.1,15.7h92.5l-27.3-15.7Z"/><path d="M1282.5,643.2h77.7l-25.4-11.1h-74.7Z"/><path d="M1234.1,715.7h97.1l-30.1-17.2h-92.5Z"/><path d="M1246.4,806.4h121.5l-39.4-26.7H1214.2Z"/><path d="M1185.6,756h107.9l-31.2-21.2H1160Z"/><path d="M1214.2,779.7h114.3l-35-23.7H1185.6Z"/><path d="M1262.3,734.8h102.2l-33.3-19.1h-97.1Z"/><path d="M1137,715.7l23,19.1h102.3l-28.2-19.1Z"/>
</g>


</svg>