<svg id="ewe3a0hr06xm1" xmlns="http://www.w3.org/2000/svg" xmlns:xlink="http://www.w3.org/1999/xlink" viewBox="0 0 32 32" shape-rendering="geometricPrecision" text-rendering="geometricPrecision" width="32" height="32"><style><![CDATA[#ewe3a0hr06xm1{pointer-events: all}#ewe3a0hr06xm1:hover #ewe3a0hr06xm2 {animation: ewe3a0hr06xm2_f_p 1000ms linear infinite normal forwards}@keyframes ewe3a0hr06xm2_f_p { 0% {fill: rgb(243,88,144)} 34% {fill: rgb(111,63,245)} 66% {fill: rgb(2,226,172)} 100% {fill: rgb(243,88,144)} }]]></style><circle id="ewe3a0hr06xm2" r="3" transform="matrix(1 0 0 1 24 16)" fill="rgb(243,88,144)" stroke="none" stroke-width="1"/><path id="ewe3a0hr06xm3" d="M17,14L17,21C17,21.552285,17.447715,22,18,22L28,22C28.552285,22,29,22.447715,29,23L29,28C29,28.552285,28.552285,29,28,29L4,29C3.447715,29,3,28.552285,3,28L3,4C3,3.447715,3.447715,3,4,3L28,3C28.552285,3,29,3.447715,29,4L29,9C29,9.552285,28.552285,10,28,10L18,10C17.447715,10,17,10.447715,17,11L17,16" fill="none" stroke="rgb(111,63,245)" stroke-width="2" stroke-linecap="round" stroke-linejoin="round"/></svg>