<svg width="320" height="180" viewBox="0 0 320 180" fill="none" xmlns="http://www.w3.org/2000/svg">
<rect width="320" height="180" fill="white"/>
<path d="M88.4804 125.612C89.8151 125.612 90.7531 125.617 91.2944 125.626C94.9437 125.71 96.7684 127.423 96.7684 130.764C96.7684 132.435 96.2971 133.727 95.3544 134.642C94.4211 135.547 93.0351 136 91.1964 136H88.4944C88.3077 136 88.2144 135.902 88.2144 135.706V125.864C88.2144 125.771 88.2331 125.705 88.2704 125.668C88.3077 125.631 88.3777 125.612 88.4804 125.612ZM90.4124 127.096C90.3284 127.096 90.2864 127.161 90.2864 127.292V134.348C90.2864 134.413 90.3004 134.46 90.3284 134.488C90.3564 134.507 90.4031 134.516 90.4684 134.516H90.8184C92.1344 134.516 93.0911 134.227 93.6884 133.648C94.2951 133.069 94.5984 132.108 94.5984 130.764C94.5984 129.896 94.4771 129.205 94.2344 128.692C93.9917 128.169 93.6277 127.787 93.1424 127.544C92.6664 127.301 92.0411 127.161 91.2664 127.124L90.4124 127.096ZM102.889 136.14C101.928 136.14 101.097 135.93 100.397 135.51C99.6974 135.09 99.156 134.483 98.7734 133.69C98.4 132.887 98.2134 131.94 98.2134 130.848C98.2134 129.737 98.4047 128.781 98.7874 127.978C99.17 127.166 99.7114 126.545 100.411 126.116C101.111 125.687 101.937 125.472 102.889 125.472C103.832 125.472 104.653 125.687 105.353 126.116C106.053 126.545 106.595 127.166 106.977 127.978C107.36 128.781 107.551 129.733 107.551 130.834C107.551 131.926 107.36 132.873 106.977 133.676C106.604 134.469 106.067 135.081 105.367 135.51C104.667 135.93 103.841 136.14 102.889 136.14ZM102.903 134.656C103.753 134.656 104.378 134.353 104.779 133.746C105.181 133.139 105.381 132.178 105.381 130.862C105.381 129.518 105.176 128.529 104.765 127.894C104.364 127.259 103.739 126.942 102.889 126.942C102.04 126.942 101.405 127.259 100.985 127.894C100.575 128.529 100.369 129.518 100.369 130.862C100.369 132.178 100.575 133.139 100.985 133.746C101.396 134.353 102.035 134.656 102.903 134.656ZM120.523 125.612C120.588 125.612 120.63 125.626 120.649 125.654C120.677 125.682 120.691 125.733 120.691 125.808V135.79C120.691 135.93 120.611 136 120.453 136H119.291C119.216 136 119.155 135.991 119.109 135.972C119.062 135.953 119.011 135.911 118.955 135.846L114.167 129.042C114.129 128.986 114.092 128.963 114.055 128.972C114.027 128.972 114.013 129 114.013 129.056V135.776V135.818C114.013 135.939 113.933 136 113.775 136H112.543C112.375 136 112.291 135.925 112.291 135.776V125.85C112.291 125.691 112.365 125.612 112.515 125.612H113.915C114.008 125.612 114.078 125.626 114.125 125.654C114.171 125.673 114.223 125.719 114.279 125.794L118.787 132.29C118.824 132.355 118.866 132.388 118.913 132.388C118.969 132.388 118.997 132.341 118.997 132.248V125.836C118.997 125.687 119.071 125.612 119.221 125.612H120.523ZM127.198 136.14C126.237 136.14 125.406 135.93 124.706 135.51C124.006 135.09 123.465 134.483 123.082 133.69C122.709 132.887 122.522 131.94 122.522 130.848C122.522 129.737 122.713 128.781 123.096 127.978C123.479 127.166 124.02 126.545 124.72 126.116C125.42 125.687 126.246 125.472 127.198 125.472C128.141 125.472 128.962 125.687 129.662 126.116C130.362 126.545 130.903 127.166 131.286 127.978C131.669 128.781 131.86 129.733 131.86 130.834C131.86 131.926 131.669 132.873 131.286 133.676C130.913 134.469 130.376 135.081 129.676 135.51C128.976 135.93 128.15 136.14 127.198 136.14ZM127.212 134.656C128.061 134.656 128.687 134.353 129.088 133.746C129.489 133.139 129.69 132.178 129.69 130.862C129.69 129.518 129.485 128.529 129.074 127.894C128.673 127.259 128.047 126.942 127.198 126.942C126.349 126.942 125.714 127.259 125.294 127.894C124.883 128.529 124.678 129.518 124.678 130.862C124.678 132.178 124.883 133.139 125.294 133.746C125.705 134.353 126.344 134.656 127.212 134.656ZM132.388 125.836C132.388 125.687 132.467 125.612 132.626 125.612H140.494C140.652 125.612 140.732 125.687 140.732 125.836V126.928C140.732 127.059 140.657 127.124 140.508 127.124H137.82C137.764 127.124 137.722 127.133 137.694 127.152C137.675 127.171 137.666 127.208 137.666 127.264V135.762C137.666 135.921 137.596 136 137.456 136H135.79C135.659 136 135.594 135.925 135.594 135.776V127.292C135.594 127.227 135.58 127.185 135.552 127.166C135.533 127.138 135.496 127.124 135.44 127.124H132.626C132.542 127.124 132.481 127.11 132.444 127.082C132.406 127.054 132.388 127.003 132.388 126.928V125.836Z" fill="#F3587D"/>
<path d="M149.647 135.104C148.928 135.795 148.098 136.14 147.155 136.14C146.427 136.14 145.853 135.958 145.433 135.594C145.022 135.221 144.817 134.726 144.817 134.11C144.817 133.363 145.13 132.775 145.755 132.346C146.39 131.917 147.304 131.665 148.499 131.59L149.591 131.506C149.75 131.487 149.829 131.417 149.829 131.296V130.918C149.829 130.414 149.67 130.017 149.353 129.728C149.045 129.429 148.625 129.28 148.093 129.28C147.272 129.28 146.6 129.653 146.077 130.4C146.049 130.447 146.021 130.479 145.993 130.498C145.965 130.507 145.928 130.503 145.881 130.484L145.125 130.232C145.078 130.213 145.055 130.181 145.055 130.134C145.055 130.106 145.069 130.064 145.097 130.008C145.377 129.513 145.774 129.131 146.287 128.86C146.81 128.58 147.426 128.44 148.135 128.44C149.05 128.44 149.75 128.655 150.235 129.084C150.72 129.504 150.963 130.087 150.963 130.834V135.79C150.963 135.874 150.949 135.93 150.921 135.958C150.893 135.986 150.842 136 150.767 136H150.067C149.955 136 149.89 135.925 149.871 135.776L149.843 135.132C149.834 135.067 149.81 135.034 149.773 135.034C149.736 135.034 149.694 135.057 149.647 135.104ZM149.829 132.444C149.829 132.295 149.759 132.22 149.619 132.22L148.709 132.304C147.841 132.36 147.169 132.528 146.693 132.808C146.226 133.088 145.993 133.475 145.993 133.97C145.993 134.371 146.133 134.689 146.413 134.922C146.702 135.155 147.085 135.272 147.561 135.272C147.85 135.272 148.135 135.221 148.415 135.118C148.695 135.015 148.942 134.875 149.157 134.698C149.372 134.53 149.535 134.353 149.647 134.166C149.768 133.97 149.829 133.783 149.829 133.606V132.444ZM158.283 136C158.152 136 158.087 135.935 158.087 135.804V135.202C158.087 135.118 158.063 135.076 158.017 135.076C157.989 135.076 157.951 135.099 157.905 135.146C157.625 135.426 157.317 135.664 156.981 135.86C156.654 136.047 156.229 136.14 155.707 136.14C155.109 136.14 154.577 136 154.111 135.72C153.644 135.44 153.275 135.02 153.005 134.46C152.734 133.891 152.599 133.205 152.599 132.402C152.599 131.618 152.739 130.927 153.019 130.33C153.299 129.733 153.686 129.271 154.181 128.944C154.675 128.608 155.24 128.44 155.875 128.44C156.295 128.44 156.659 128.505 156.967 128.636C157.275 128.767 157.564 128.949 157.835 129.182C157.909 129.238 157.961 129.266 157.989 129.266C158.035 129.266 158.059 129.205 158.059 129.084V125.794C158.059 125.673 158.11 125.612 158.213 125.612H159.067C159.169 125.612 159.221 125.673 159.221 125.794V135.776C159.221 135.86 159.207 135.921 159.179 135.958C159.151 135.986 159.09 136 158.997 136H158.283ZM158.045 130.218C157.746 129.919 157.443 129.695 157.135 129.546C156.836 129.387 156.509 129.308 156.155 129.308C155.445 129.308 154.876 129.574 154.447 130.106C154.017 130.638 153.803 131.389 153.803 132.36C153.803 133.34 154.013 134.073 154.433 134.558C154.862 135.043 155.408 135.286 156.071 135.286C156.435 135.286 156.766 135.202 157.065 135.034C157.373 134.857 157.611 134.637 157.779 134.376C157.956 134.115 158.045 133.853 158.045 133.592V130.218ZM166.664 136C166.533 136 166.468 135.935 166.468 135.804V135.202C166.468 135.118 166.444 135.076 166.398 135.076C166.37 135.076 166.332 135.099 166.286 135.146C166.006 135.426 165.698 135.664 165.362 135.86C165.035 136.047 164.61 136.14 164.088 136.14C163.49 136.14 162.958 136 162.492 135.72C162.025 135.44 161.656 135.02 161.386 134.46C161.115 133.891 160.98 133.205 160.98 132.402C160.98 131.618 161.12 130.927 161.4 130.33C161.68 129.733 162.067 129.271 162.562 128.944C163.056 128.608 163.621 128.44 164.256 128.44C164.676 128.44 165.04 128.505 165.348 128.636C165.656 128.767 165.945 128.949 166.216 129.182C166.29 129.238 166.342 129.266 166.37 129.266C166.416 129.266 166.44 129.205 166.44 129.084V125.794C166.44 125.673 166.491 125.612 166.594 125.612H167.448C167.55 125.612 167.602 125.673 167.602 125.794V135.776C167.602 135.86 167.588 135.921 167.56 135.958C167.532 135.986 167.471 136 167.378 136H166.664ZM166.426 130.218C166.127 129.919 165.824 129.695 165.516 129.546C165.217 129.387 164.89 129.308 164.536 129.308C163.826 129.308 163.257 129.574 162.828 130.106C162.398 130.638 162.184 131.389 162.184 132.36C162.184 133.34 162.394 134.073 162.814 134.558C163.243 135.043 163.789 135.286 164.452 135.286C164.816 135.286 165.147 135.202 165.446 135.034C165.754 134.857 165.992 134.637 166.16 134.376C166.337 134.115 166.426 133.853 166.426 133.592V130.218ZM173.558 132.752C173.558 133.2 173.666 133.615 173.88 133.998C174.104 134.381 174.403 134.684 174.776 134.908C175.15 135.132 175.56 135.244 176.008 135.244C176.942 135.244 177.67 134.857 178.192 134.082C178.23 134.045 178.262 134.026 178.29 134.026C178.318 134.017 178.351 134.021 178.388 134.04L178.976 134.334C179.051 134.381 179.06 134.446 179.004 134.53C178.64 135.09 178.206 135.501 177.702 135.762C177.198 136.014 176.596 136.14 175.896 136.14C175.215 136.14 174.604 135.981 174.062 135.664C173.521 135.347 173.096 134.903 172.788 134.334C172.49 133.755 172.34 133.097 172.34 132.36C172.34 131.567 172.494 130.876 172.802 130.288C173.11 129.691 173.53 129.233 174.062 128.916C174.604 128.599 175.21 128.44 175.882 128.44C176.554 128.44 177.142 128.589 177.646 128.888C178.16 129.187 178.556 129.625 178.836 130.204C179.116 130.773 179.256 131.45 179.256 132.234V132.29C179.256 132.374 179.242 132.439 179.214 132.486C179.186 132.523 179.13 132.542 179.046 132.542H173.684C173.6 132.542 173.558 132.612 173.558 132.752ZM177.842 131.772C177.945 131.772 178.01 131.763 178.038 131.744C178.066 131.716 178.08 131.66 178.08 131.576C178.08 131.165 177.992 130.787 177.814 130.442C177.646 130.087 177.394 129.807 177.058 129.602C176.732 129.387 176.349 129.28 175.91 129.28C175.434 129.28 175.019 129.401 174.664 129.644C174.31 129.877 174.039 130.185 173.852 130.568C173.666 130.941 173.577 131.343 173.586 131.772H177.842ZM182.099 135.762C182.099 135.855 182.08 135.921 182.043 135.958C182.006 135.986 181.94 136 181.847 136H181.119C181.035 136 180.979 135.986 180.951 135.958C180.923 135.93 180.909 135.879 180.909 135.804L180.923 125.808C180.923 125.677 180.979 125.612 181.091 125.612H181.931C182.043 125.612 182.099 125.673 182.099 125.794V135.762ZM185.043 132.752C185.043 133.2 185.15 133.615 185.365 133.998C185.589 134.381 185.887 134.684 186.261 134.908C186.634 135.132 187.045 135.244 187.493 135.244C188.426 135.244 189.154 134.857 189.677 134.082C189.714 134.045 189.747 134.026 189.775 134.026C189.803 134.017 189.835 134.021 189.873 134.04L190.461 134.334C190.535 134.381 190.545 134.446 190.489 134.53C190.125 135.09 189.691 135.501 189.187 135.762C188.683 136.014 188.081 136.14 187.381 136.14C186.699 136.14 186.088 135.981 185.547 135.664C185.005 135.347 184.581 134.903 184.273 134.334C183.974 133.755 183.825 133.097 183.825 132.36C183.825 131.567 183.979 130.876 184.287 130.288C184.595 129.691 185.015 129.233 185.547 128.916C186.088 128.599 186.695 128.44 187.367 128.44C188.039 128.44 188.627 128.589 189.131 128.888C189.644 129.187 190.041 129.625 190.321 130.204C190.601 130.773 190.741 131.45 190.741 132.234V132.29C190.741 132.374 190.727 132.439 190.699 132.486C190.671 132.523 190.615 132.542 190.531 132.542H185.169C185.085 132.542 185.043 132.612 185.043 132.752ZM189.327 131.772C189.429 131.772 189.495 131.763 189.523 131.744C189.551 131.716 189.565 131.66 189.565 131.576C189.565 131.165 189.476 130.787 189.299 130.442C189.131 130.087 188.879 129.807 188.543 129.602C188.216 129.387 187.833 129.28 187.395 129.28C186.919 129.28 186.503 129.401 186.149 129.644C185.794 129.877 185.523 130.185 185.337 130.568C185.15 130.941 185.061 131.343 185.071 131.772H189.327ZM192.589 136C192.459 136 192.393 135.939 192.393 135.818V128.762C192.393 128.641 192.445 128.58 192.547 128.58H193.387C193.481 128.58 193.527 128.631 193.527 128.734V129.546C193.527 129.658 193.574 129.672 193.667 129.588C194.171 129.177 194.601 128.883 194.955 128.706C195.31 128.529 195.707 128.44 196.145 128.44C196.668 128.44 197.097 128.557 197.433 128.79C197.779 129.023 198.012 129.317 198.133 129.672C198.152 129.7 198.171 129.714 198.189 129.714C198.217 129.714 198.264 129.691 198.329 129.644C198.815 129.233 199.249 128.93 199.631 128.734C200.023 128.538 200.434 128.44 200.863 128.44C201.535 128.44 202.058 128.631 202.431 129.014C202.814 129.397 203.005 129.915 203.005 130.568V135.776C203.005 135.925 202.935 136 202.795 136H202.011C201.89 136 201.829 135.939 201.829 135.818V130.82C201.829 130.353 201.717 129.994 201.493 129.742C201.269 129.49 200.933 129.364 200.485 129.364C200.112 129.364 199.762 129.457 199.435 129.644C199.109 129.821 198.791 130.045 198.483 130.316C198.409 130.391 198.357 130.456 198.329 130.512C198.301 130.568 198.287 130.638 198.287 130.722V135.776C198.287 135.925 198.217 136 198.077 136H197.293C197.172 136 197.111 135.939 197.111 135.818V130.82C197.111 129.849 196.663 129.364 195.767 129.364C195.394 129.364 195.049 129.453 194.731 129.63C194.423 129.798 194.036 130.087 193.569 130.498V135.79C193.569 135.865 193.551 135.921 193.513 135.958C193.485 135.986 193.434 136 193.359 136H192.589ZM205.865 132.752C205.865 133.2 205.972 133.615 206.187 133.998C206.411 134.381 206.71 134.684 207.083 134.908C207.456 135.132 207.867 135.244 208.315 135.244C209.248 135.244 209.976 134.857 210.499 134.082C210.536 134.045 210.569 134.026 210.597 134.026C210.625 134.017 210.658 134.021 210.695 134.04L211.283 134.334C211.358 134.381 211.367 134.446 211.311 134.53C210.947 135.09 210.513 135.501 210.009 135.762C209.505 136.014 208.903 136.14 208.203 136.14C207.522 136.14 206.91 135.981 206.369 135.664C205.828 135.347 205.403 134.903 205.095 134.334C204.796 133.755 204.647 133.097 204.647 132.36C204.647 131.567 204.801 130.876 205.109 130.288C205.417 129.691 205.837 129.233 206.369 128.916C206.91 128.599 207.517 128.44 208.189 128.44C208.861 128.44 209.449 128.589 209.953 128.888C210.466 129.187 210.863 129.625 211.143 130.204C211.423 130.773 211.563 131.45 211.563 132.234V132.29C211.563 132.374 211.549 132.439 211.521 132.486C211.493 132.523 211.437 132.542 211.353 132.542H205.991C205.907 132.542 205.865 132.612 205.865 132.752ZM210.149 131.772C210.252 131.772 210.317 131.763 210.345 131.744C210.373 131.716 210.387 131.66 210.387 131.576C210.387 131.165 210.298 130.787 210.121 130.442C209.953 130.087 209.701 129.807 209.365 129.602C209.038 129.387 208.656 129.28 208.217 129.28C207.741 129.28 207.326 129.401 206.971 129.644C206.616 129.877 206.346 130.185 206.159 130.568C205.972 130.941 205.884 131.343 205.893 131.772H210.149ZM213.412 136C213.281 136 213.216 135.939 213.216 135.818V128.762C213.216 128.641 213.267 128.58 213.37 128.58H214.21C214.312 128.58 214.364 128.631 214.364 128.734V129.546C214.364 129.649 214.406 129.663 214.49 129.588C215.012 129.177 215.456 128.883 215.82 128.706C216.193 128.529 216.608 128.44 217.066 128.44C217.775 128.44 218.326 128.631 218.718 129.014C219.119 129.397 219.32 129.91 219.32 130.554V135.776C219.32 135.925 219.25 136 219.11 136H218.326C218.204 136 218.144 135.939 218.144 135.818V130.82C218.144 130.353 218.022 129.994 217.78 129.742C217.546 129.49 217.182 129.364 216.688 129.364C216.296 129.364 215.932 129.453 215.596 129.63C215.269 129.798 214.868 130.087 214.392 130.498V135.79C214.392 135.865 214.373 135.921 214.336 135.958C214.308 135.986 214.256 136 214.182 136H213.412ZM223.351 129.448C223.277 129.448 223.239 129.49 223.239 129.574V134.012C223.239 134.432 223.309 134.721 223.449 134.88C223.589 135.039 223.818 135.118 224.135 135.118H225.101C225.204 135.118 225.255 135.169 225.255 135.272L225.241 135.748C225.241 135.841 225.185 135.902 225.073 135.93C224.831 135.977 224.392 136 223.757 136C223.169 136 222.74 135.865 222.469 135.594C222.199 135.314 222.063 134.875 222.063 134.278V129.602C222.063 129.499 222.017 129.448 221.923 129.448H220.803C220.701 129.448 220.649 129.401 220.649 129.308V128.72C220.649 128.627 220.696 128.58 220.789 128.58H221.979C222.045 128.58 222.077 128.543 222.077 128.468L222.231 126.242C222.231 126.121 222.283 126.06 222.385 126.06H223.085C223.197 126.06 223.253 126.125 223.253 126.256V128.468C223.253 128.543 223.291 128.58 223.365 128.58H225.129C225.232 128.58 225.283 128.622 225.283 128.706V129.308C225.283 129.401 225.232 129.448 225.129 129.448H223.351ZM231.258 130.218C231.062 129.929 230.791 129.7 230.446 129.532C230.11 129.355 229.718 129.266 229.27 129.266C228.756 129.266 228.336 129.378 228.01 129.602C227.683 129.817 227.52 130.101 227.52 130.456C227.52 130.671 227.599 130.867 227.758 131.044C227.926 131.212 228.224 131.361 228.654 131.492L230.432 132.024C231.048 132.192 231.505 132.444 231.804 132.78C232.102 133.107 232.252 133.499 232.252 133.956C232.252 134.385 232.121 134.768 231.86 135.104C231.598 135.431 231.239 135.687 230.782 135.874C230.324 136.051 229.806 136.14 229.228 136.14C228.509 136.14 227.87 136 227.31 135.72C226.75 135.431 226.353 135.057 226.12 134.6C226.092 134.553 226.078 134.516 226.078 134.488C226.078 134.441 226.101 134.404 226.148 134.376L226.694 134.068C226.787 134.012 226.857 134.017 226.904 134.082C227.408 134.885 228.187 135.286 229.242 135.286C229.792 135.277 230.245 135.165 230.6 134.95C230.964 134.726 231.146 134.437 231.146 134.082C231.146 133.821 231.038 133.601 230.824 133.424C230.609 133.247 230.259 133.088 229.774 132.948L228.332 132.542C227.65 132.365 227.16 132.117 226.862 131.8C226.572 131.483 226.428 131.095 226.428 130.638C226.428 130.209 226.544 129.826 226.778 129.49C227.02 129.154 227.356 128.897 227.786 128.72C228.224 128.533 228.724 128.44 229.284 128.44C229.9 128.44 230.45 128.557 230.936 128.79C231.43 129.023 231.808 129.341 232.07 129.742C232.135 129.835 232.13 129.901 232.056 129.938L231.468 130.26C231.43 130.279 231.402 130.288 231.384 130.288C231.346 130.288 231.304 130.265 231.258 130.218Z" fill="#333333"/>
<g clip-path="url(#clip0)">
<rect width="160" height="56.2162" transform="translate(80 40)" fill="white"/>
<path fill-rule="evenodd" clip-rule="evenodd" d="M196.932 54.6951H192.116L192.303 54.8082L191.535 56.1031H193.51C194.951 56.1031 196.124 57.2909 196.124 58.7508V64.9503C196.124 66.4104 194.951 67.5981 193.51 67.5981H190.74L190.662 69.8201L191.276 70.4423V79.7661C191.276 80.2062 191.629 80.5643 192.064 80.5643H192.182C192.617 80.5643 192.97 80.2062 192.97 79.7661V70.6826H196.882V80.0062C196.882 80.4463 197.235 80.8044 197.67 80.8044H198.55C198.985 80.8044 199.338 80.4463 199.338 80.0062V66.2847C197.944 64.7255 196.695 62.8432 196.725 61.1257L198.4 61.1555C198.375 62.6013 200.005 64.8875 202.761 67.271C202.889 67.3818 203.078 67.3823 203.21 67.2721L204.781 65.9559C204.883 65.8705 204.905 65.7652 204.906 65.6923C204.906 65.6279 204.89 65.5053 204.774 65.4041C202.432 63.3591 199.913 59.7274 199.858 57.0251C199.82 55.1763 196.944 54.9224 196.915 54.9202L196.932 54.6951ZM188 64.9503C188 65.9378 188.536 66.8008 189.33 67.256L189.076 67.2468L188.961 70.4981L189.6 71.1451V79.7661C189.6 81.1423 190.705 82.2617 192.064 82.2617H192.182C193.541 82.2617 194.646 81.1423 194.646 79.7661V72.3801H195.206V80.0062C195.206 81.3823 196.311 82.5018 197.67 82.5018H198.55C199.909 82.5018 201.014 81.3823 201.014 80.0062V67.9745C201.245 68.1868 201.466 68.3834 201.673 68.5618C202.051 68.8891 202.518 69.053 202.985 69.053C203.443 69.053 203.902 68.8955 204.278 68.58L205.849 67.2638C206.308 66.8787 206.575 66.312 206.581 65.7092C206.587 65.0991 206.328 64.5192 205.868 64.1183C203.516 62.0648 201.572 58.8668 201.533 56.9898C201.493 55.0573 200.005 54.0271 198.6 53.5528C199.531 52.5163 200.058 51.1625 200.058 49.7195C200.058 46.5658 197.525 44 194.412 44C191.298 44 188.765 46.5658 188.765 49.7195C188.765 51.427 189.504 53.0095 190.774 54.0893L189.402 56.4054C188.569 56.8487 188 57.7337 188 58.7508V64.9503ZM196.705 52.9976H192.118C191.064 52.2417 190.441 51.033 190.441 49.7195C190.441 47.5018 192.222 45.6975 194.412 45.6975C195.537 45.6975 196.555 46.1743 197.278 46.9389C197.162 47.8775 197.039 49.8591 197.9 51.6427C197.614 52.1724 197.209 52.6366 196.705 52.9976ZM190.614 57.8006C190.097 57.8006 189.676 58.2269 189.676 58.7508V64.9503C189.676 65.4744 190.097 65.9007 190.614 65.9007H193.51C194.027 65.9007 194.448 65.4744 194.448 64.9503V58.7508C194.448 58.2269 194.027 57.8006 193.51 57.8006H190.614ZM224.799 55.049H220.409L220.24 54.968C219.903 54.807 219.586 54.6137 219.294 54.3927L219.34 54.6521C219.313 54.657 216.622 55.174 216.682 56.8689C216.769 59.3251 213.466 62.641 211.363 64.1539C211.056 64.3755 210.933 64.7882 211.066 65.1574C211.146 65.3809 211.308 65.5574 211.521 65.6549C211.739 65.7541 211.984 65.7596 212.209 65.6699C213.415 65.1887 215.312 63.8391 216.398 62.4138V60.906H218.074V77.3088C218.074 77.7271 218.409 78.0675 218.822 78.0675H218.909C219.322 78.0675 219.658 77.7271 219.658 77.3088V69.1284H223.507V77.5729C223.507 77.9912 223.843 78.3316 224.256 78.3316H225.299C225.712 78.3316 226.048 77.9912 226.048 77.5729V59.849H227.724V67.7192H228.34C228.655 67.7192 228.908 67.4708 228.916 67.1533C228.975 64.742 229.059 58.895 228.548 56.6967C228.005 54.3599 226.265 54.2687 226.247 54.2681L226.252 54.1159C225.87 54.4545 225.44 54.7429 224.969 54.968L224.799 55.049ZM227.345 52.7997C227.866 51.9341 228.159 50.9275 228.159 49.8817C228.159 46.7793 225.667 44.2552 222.604 44.2552C219.541 44.2552 217.05 46.7793 217.05 49.8817C217.05 51.0998 217.446 52.2648 218.139 53.2157C216.664 53.7112 214.934 54.8532 215.007 56.9294C215.059 58.3774 212.616 61.1698 210.393 62.7703C209.473 63.4328 209.102 64.6529 209.491 65.7375C209.727 66.3948 210.203 66.9151 210.833 67.2024C211.168 67.3554 211.524 67.4323 211.881 67.4323C212.198 67.4323 212.517 67.3712 212.823 67.2491C213.95 66.7997 215.293 65.8916 216.398 64.8788V77.3088C216.398 78.6631 217.486 79.7649 218.822 79.7649H218.909C220.246 79.7649 221.334 78.6631 221.334 77.3088V70.8259H221.832V77.5729C221.832 78.9272 222.919 80.0291 224.256 80.0291H225.299C226.636 80.0291 227.724 78.9272 227.724 77.5729V69.4166H228.34C229.571 69.4166 230.56 68.4414 230.591 67.1962C230.667 64.1189 230.715 58.6124 230.179 56.3079C229.693 54.2131 228.41 53.2055 227.345 52.7997ZM220.794 53.3515H224.414C225.676 52.674 226.483 51.3316 226.483 49.8817C226.483 48.4683 225.742 47.2268 224.633 46.5345C225.418 51.2935 221.206 51.8423 219.251 51.8459C219.612 52.474 220.142 53.0015 220.794 53.3515ZM223.254 60.9748C223.254 61.8902 222.521 62.6322 221.617 62.6322C220.714 62.6322 219.981 61.8902 219.981 60.9748C219.981 60.0594 220.714 59.3174 221.617 59.3174C222.521 59.3174 223.254 60.0594 223.254 60.9748Z" fill="#F3587D"/>
<path d="M139.991 69.4759H147.351C147.351 70.2255 147.313 70.9188 147.256 71.5372C147.2 72.1556 147.068 72.7177 146.88 73.2424C146.616 73.9919 146.259 74.6478 145.807 75.2287C145.355 75.7909 144.809 76.2781 144.207 76.6529C143.605 77.0276 142.927 77.3274 142.193 77.5148C141.459 77.721 140.687 77.8147 139.878 77.8147C138.767 77.8147 137.751 77.6273 136.828 77.2712C135.925 76.9152 135.134 76.3905 134.475 75.7534C133.816 75.0788 133.308 74.2918 132.951 73.3736C132.593 72.4366 132.405 71.4247 132.405 70.3004C132.405 69.1948 132.574 68.1829 132.932 67.2647C133.289 66.3278 133.816 65.5408 134.456 64.8849C135.134 64.2291 135.925 63.7231 136.866 63.3671C137.807 63.0111 138.842 62.8237 139.991 62.8237C141.478 62.8237 142.776 63.1422 143.906 63.7793C145.035 64.4165 145.92 65.4096 146.579 66.7588L143.059 68.2017C142.739 67.4147 142.306 66.8712 141.779 66.5339C141.271 66.1966 140.668 66.028 140.009 66.028C139.463 66.028 138.955 66.1404 138.503 66.3466C138.052 66.5527 137.656 66.8338 137.336 67.2273C137.016 67.602 136.772 68.0705 136.583 68.5952C136.414 69.1386 136.32 69.7383 136.32 70.3941C136.32 70.9938 136.395 71.5559 136.546 72.0619C136.715 72.5678 136.941 73.0175 137.261 73.3923C137.581 73.7671 137.976 74.0669 138.428 74.273C138.899 74.4792 139.445 74.5729 140.047 74.5729C140.405 74.5729 140.762 74.5354 141.101 74.4604C141.44 74.3667 141.741 74.2356 142.005 74.0669C142.287 73.8795 142.513 73.6359 142.682 73.3548C142.852 73.0738 142.983 72.7177 143.04 72.3055H139.991V69.4759ZM165.647 66.1966V77.8147H161.694V66.1966H158.494V62.8237H168.847V66.1966H165.647ZM182.588 67.9581C181.722 66.9087 180.668 66.384 179.407 66.384C178.842 66.384 178.334 66.4777 177.845 66.6838C177.374 66.89 176.979 67.1711 176.621 67.5084C176.282 67.8456 176 68.2579 175.812 68.7451C175.623 69.2323 175.529 69.7383 175.529 70.3004C175.529 70.8626 175.623 71.3873 175.812 71.8745C176.019 72.3617 176.282 72.7739 176.621 73.13C176.979 73.486 177.393 73.7671 177.863 73.9545C178.334 74.1606 178.842 74.2543 179.388 74.2543C180.574 74.2543 181.647 73.7483 182.588 72.7365V77.1213L182.212 77.2525C181.647 77.4586 181.12 77.5898 180.612 77.6835C180.122 77.7772 179.633 77.8334 179.143 77.8334C178.165 77.8334 177.205 77.646 176.301 77.29C175.398 76.9152 174.607 76.3905 173.911 75.7159C173.233 75.0413 172.668 74.2356 172.254 73.3174C171.84 72.3804 171.633 71.3685 171.633 70.2817C171.633 69.1948 171.84 68.1829 172.235 67.2835C172.649 66.3653 173.195 65.5783 173.892 64.9224C174.588 64.2478 175.398 63.7419 176.301 63.3671C177.205 62.9923 178.165 62.8049 179.162 62.8049C179.727 62.8049 180.292 62.8611 180.838 62.9923C181.402 63.1048 181.986 63.2921 182.588 63.5357V67.9581ZM190.343 70.3192C190.343 70.8813 190.456 71.406 190.663 71.8932C190.871 72.3804 191.172 72.7927 191.529 73.1487C191.887 73.5047 192.32 73.7858 192.809 73.9732C193.299 74.1606 193.826 74.2543 194.372 74.2543C194.918 74.2543 195.426 74.1606 195.915 73.9732C196.405 73.7671 196.838 73.486 197.214 73.1487C197.591 72.7927 197.892 72.3804 198.099 71.8932C198.306 71.406 198.419 70.9001 198.419 70.3192C198.419 69.7383 198.306 69.2323 198.099 68.7451C197.892 68.2579 197.591 67.8456 197.214 67.4896C196.856 67.1336 196.423 66.8712 195.915 66.6838C195.426 66.4777 194.918 66.384 194.372 66.384C193.826 66.384 193.318 66.4777 192.809 66.6838C192.32 66.8712 191.906 67.1523 191.529 67.4896C191.172 67.8456 190.871 68.2579 190.663 68.7451C190.456 69.2323 190.343 69.757 190.343 70.3192ZM186.466 70.3192C186.466 69.2698 186.654 68.2766 187.049 67.3772C187.445 66.459 187.991 65.6532 188.687 64.9786C189.383 64.304 190.212 63.7606 191.172 63.3858C192.151 62.9923 193.223 62.8049 194.372 62.8049C195.52 62.8049 196.593 62.9923 197.553 63.3858C198.532 63.7606 199.36 64.2853 200.056 64.9786C200.772 65.6532 201.318 66.459 201.713 67.3772C202.108 68.2766 202.296 69.2698 202.296 70.3192C202.296 71.3685 202.108 72.3617 201.713 73.2799C201.318 74.1793 200.772 74.9851 200.056 75.6597C199.36 76.3343 198.532 76.8777 197.553 77.2712C196.574 77.646 195.52 77.8334 194.372 77.8334C193.205 77.8334 192.132 77.646 191.172 77.2712C190.212 76.8777 189.383 76.353 188.687 75.6597C187.991 74.9851 187.445 74.1793 187.049 73.2799C186.654 72.3617 186.466 71.3873 186.466 70.3192ZM210.071 62.8237V77.8147H206.118V62.8237H210.071ZM154.729 62.8237V77.8147H150.776V62.8237H154.729ZM214.212 77.8147V62.8237H217.976L225.318 71.9869V62.8237H229.271V77.8147H225.468L218.165 68.6514V77.8147H214.212Z" fill="#0E0333"/>
<path fill-rule="evenodd" clip-rule="evenodd" d="M117.258 63.6926C118.567 65.5197 119.278 67.7382 119.259 69.9754C119.259 72.1753 118.549 74.3752 117.258 76.165L119.989 78.2344C121.728 75.8481 122.682 72.9397 122.682 69.9941C122.701 66.8806 121.672 63.8231 119.783 61.3622L118.217 62.7676L117.258 63.6926Z" fill="#02E2AC"/>
<path fill-rule="evenodd" clip-rule="evenodd" d="M122.421 80.0673L113.237 73.1133C113.891 72.2558 114.265 71.2117 114.321 70.1304C114.359 69.0491 114.078 67.9864 113.498 67.0729L117.894 63.1205L122.495 58.8325C122.795 58.5529 122.813 58.0682 122.514 57.7699L121.878 57.136C118.605 53.8361 114.19 51.9158 109.552 51.7667L109.57 49.2498C109.589 49.0821 109.57 48.9143 109.533 48.7465C109.477 48.5787 109.402 48.4295 109.29 48.299C109.178 48.1685 109.047 48.0753 108.878 48.0007C108.729 47.9262 108.56 47.8889 108.392 47.8889C108.224 47.8889 108.055 47.9262 107.906 48.0007C107.756 48.0753 107.606 48.1685 107.494 48.299C107.382 48.4295 107.288 48.5787 107.251 48.7278C107.195 48.8956 107.176 49.0634 107.214 49.2312L107.195 51.8226C106.091 51.9345 104.988 52.1396 103.922 52.4565L103.94 49.2312C103.959 49.0634 103.94 48.8956 103.903 48.7278C103.847 48.56 103.772 48.4109 103.66 48.2804C103.547 48.1499 103.417 48.0567 103.248 47.9821C103.099 47.9075 102.93 47.8702 102.762 47.8702C102.593 47.8702 102.425 47.9075 102.276 47.9821C102.126 48.0567 101.976 48.1499 101.864 48.2804C101.752 48.4109 101.658 48.56 101.621 48.7092C101.565 48.877 101.546 49.0448 101.583 49.2126L101.527 53.3327C97.7489 55.0106 94.6439 57.9377 92.7548 61.6104C90.8656 65.2831 90.267 69.4965 91.09 73.5421C91.913 77.5877 94.1015 81.2418 97.2813 83.8892C100.461 86.5366 104.464 88.028 108.598 88.1026L121.972 88.1585C122.383 88.1585 122.72 87.823 122.72 87.4128V80.6825C122.72 80.4402 122.608 80.2165 122.421 80.0673ZM108.86 84.8587C105.568 84.84 102.369 83.7401 99.7691 81.7452C97.1691 79.7317 95.2986 76.9166 94.4569 73.7472C93.6152 70.5778 93.8583 67.2034 95.1116 64.1832C96.3835 61.163 98.6094 58.6275 101.471 56.9868L101.452 61.89C101.434 62.0578 101.452 62.2256 101.49 62.3934C101.546 62.5612 101.621 62.7104 101.733 62.8409C101.845 62.9714 101.976 63.0646 102.145 63.1391C102.294 63.2137 102.463 63.251 102.631 63.251C102.799 63.251 102.968 63.2137 103.117 63.1391C103.267 63.0646 103.417 62.9714 103.529 62.8409C103.641 62.7104 103.734 62.5612 103.772 62.4121C103.828 62.2443 103.847 62.0765 103.809 61.9087L103.828 55.8869C105.474 55.2903 107.214 55.0106 108.972 55.0106C112.208 55.0106 115.35 56.0733 117.913 58.0122C118.1 58.1614 118.118 58.4224 117.95 58.5902L110.955 64.9848C110.319 64.7238 109.626 64.5747 108.934 64.5747C108.168 64.5747 107.401 64.7238 106.69 65.0408C105.979 65.3577 105.362 65.8238 104.857 66.4017C104.352 66.9797 103.978 67.6695 103.753 68.3966C103.529 69.1423 103.473 69.9067 103.585 70.6711C103.697 71.4354 103.959 72.1625 104.37 72.8151C104.782 73.4676 105.343 74.0082 105.979 74.437C106.634 74.8472 107.363 75.1268 108.13 75.2387C108.897 75.3505 109.683 75.2946 110.412 75.0709L119.353 81.8384C119.447 81.913 119.503 82.0249 119.503 82.1367L119.484 84.5231C119.484 84.7282 119.316 84.8959 119.11 84.8959L108.86 84.8587ZM111.048 69.944C111.048 70.3541 110.917 70.7643 110.693 71.1185C110.45 71.4727 110.132 71.7337 109.739 71.9015C109.346 72.0693 108.916 72.1066 108.523 72.0134C108.13 71.9202 107.737 71.7337 107.438 71.4354C107.139 71.1371 106.933 70.7643 106.858 70.3541C106.783 69.944 106.821 69.5152 106.989 69.1423C107.157 68.7508 107.419 68.4339 107.775 68.1915C108.13 67.9678 108.542 67.8373 108.953 67.8373C109.514 67.8373 110.057 68.061 110.45 68.4711C110.824 68.844 111.048 69.366 111.048 69.944Z" fill="#0E0333"/>
<path d="M213.482 41.125H204.518C204.417 41.125 204.32 41.1787 204.264 41.27L201.717 45.2229C201.644 45.3411 201.651 45.4969 201.735 45.6043L208.763 54.7562C208.885 54.9146 209.115 54.9146 209.237 54.7562L216.265 45.6043C216.349 45.4942 216.357 45.3411 216.283 45.2229L213.739 41.27C213.68 41.1787 213.586 41.125 213.482 41.125ZM212.99 42.414L214.602 44.992H212.86L211.544 42.414H212.99ZM207.844 42.414H210.154L211.47 44.992H206.53L207.844 42.414ZM205.01 42.414H206.456L205.14 44.992H203.398L205.01 42.414ZM203.915 46.281H205.224L206.963 50.5777L203.915 46.281ZM206.535 46.281H211.465L209 52.8146L206.535 46.281ZM211.037 50.5777L212.774 46.281H214.083L211.037 50.5777Z" fill="black"/>
<path d="M209 51.6666L207.015 46.8541L210.985 46.8541L209 51.6666Z" fill="#02E2AC"/>
<path d="M153 54.2096L152.321 54.0068C152.243 53.9821 152.165 54.0266 152.135 54.1107L152.014 54.4223C151.992 54.4767 151.997 54.536 152.022 54.5855C152.048 54.6349 152.092 54.6696 152.144 54.6745C152.299 54.6943 152.412 54.8526 152.399 55.0306L152.33 56L153 54.2096Z" fill="#E5FFF9"/>
<path fill-rule="evenodd" clip-rule="evenodd" d="M149.676 57.4816C150.325 58.406 151.327 59 152.45 59C154.401 59 155.99 57.2049 155.99 55C155.99 54.8953 155.987 54.7915 155.979 54.6888C155.993 54.6769 156.007 54.665 156.02 54.6532C156.776 53.9893 157.111 53.3966 156.967 52.9834C156.83 52.5871 156.311 52.411 155.469 52.4787L155.475 52.5803C156.272 52.516 156.761 52.6684 156.883 53.0206C157.012 53.3824 156.678 53.9467 155.97 54.572C155.78 52.5674 154.273 51 152.45 51C150.498 51 148.91 52.7951 148.91 55C148.91 55.1294 148.915 55.2574 148.926 55.3837C148.174 56.0262 147.886 56.5534 148.04 56.997C148.157 57.3289 148.577 57.505 149.239 57.505C149.373 57.505 149.519 57.4972 149.676 57.4816ZM149.717 57.3784C149.724 57.3777 149.73 57.377 149.737 57.3763C150.666 57.2781 151.823 56.9292 153.002 56.4009C154.137 55.8914 155.156 55.2718 155.886 54.6452C155.727 52.6631 154.247 51.1016 152.45 51.1016C150.546 51.1016 149 52.8493 149 55C149 55.1051 149.003 55.2093 149.011 55.3124C149.048 55.2814 149.086 55.2502 149.126 55.2188L149.177 55.3035C149.122 55.3465 149.07 55.3889 149.02 55.4308C149.092 56.1589 149.341 56.827 149.717 57.3784ZM149.782 57.4702C150.711 57.3633 151.864 57.0167 153.032 56.4923C154.153 55.9901 155.161 55.3791 155.894 54.7621C155.898 54.8408 155.9 54.9201 155.9 55C155.9 57.1473 154.353 58.8984 152.45 58.8984C151.376 58.8984 150.415 58.3418 149.782 57.4702ZM148.937 55.5015C149.015 56.2025 149.255 56.8478 149.612 57.3881C148.783 57.4566 148.244 57.305 148.124 56.9597C147.989 56.5719 148.254 56.0933 148.937 55.5015Z" fill="#02E2AC"/>
<path fill-rule="evenodd" clip-rule="evenodd" d="M149.147 55.2484C149.146 55.2484 149.145 55.2485 149.144 55.2486C149.134 55.2498 149.123 55.2509 149.112 55.252C149.104 55.2528 149.096 55.2536 149.088 55.2544C149.075 55.2557 149.062 55.257 149.049 55.2582L149.028 55.2602C149.016 55.2438 149.003 55.2274 148.991 55.2109C148.984 55.2008 148.976 55.1907 148.969 55.1806C148.964 55.1745 148.96 55.1683 148.955 55.1621C148.955 55.1618 148.955 55.1616 148.955 55.1613C148.937 55.1367 148.92 55.1119 148.903 55.0869C148.899 55.0818 148.896 55.0768 148.893 55.0718C148.587 54.6174 148.379 54.0915 148.299 53.5245C148.299 53.5242 148.299 53.5238 148.298 53.5235C148.298 53.5235 148.298 53.5236 148.298 53.5235C148.296 53.5039 148.293 53.4839 148.291 53.4641C148.288 53.4459 148.286 53.4277 148.284 53.4094C148.299 53.3983 148.314 53.3871 148.329 53.376C148.343 53.366 148.357 53.356 148.37 53.3459C148.372 53.3449 148.373 53.3439 148.375 53.343C148.375 53.3426 148.376 53.3422 148.376 53.3418C148.399 53.3255 148.422 53.3092 148.445 53.2927C148.447 53.2912 148.449 53.2898 148.451 53.2884L148.396 53.2079C148.387 53.2149 148.377 53.2218 148.367 53.2287C148.365 53.2303 148.363 53.2318 148.361 53.2333C148.331 53.2546 148.302 53.2758 148.274 53.2968C148.274 53.2962 148.273 53.2956 148.273 53.295C148.27 53.2562 148.268 53.2172 148.266 53.178C148.266 53.1765 148.266 53.175 148.266 53.1735C148.264 53.1362 148.263 53.0988 148.262 53.0612C148.262 53.0408 148.262 53.0204 148.262 53C148.262 50.9562 149.914 49.2954 151.946 49.2954C153.788 49.2954 155.317 50.6609 155.588 52.4348C155.588 52.4357 155.588 52.4365 155.589 52.4374C155.594 52.4722 155.599 52.5071 155.603 52.5422C155.603 52.5426 155.603 52.5429 155.603 52.5433C155.604 52.5467 155.604 52.5501 155.604 52.5535C155.606 52.5703 155.608 52.5871 155.61 52.6039C155.612 52.6235 155.614 52.6431 155.616 52.6628C155.601 52.6745 155.585 52.6862 155.57 52.6978C155.561 52.7046 155.552 52.7114 155.542 52.7182C155.537 52.7226 155.531 52.727 155.525 52.7314C155.524 52.7318 155.524 52.7322 155.523 52.7327C155.499 52.7501 155.476 52.7674 155.452 52.7848C155.445 52.7898 155.438 52.7948 155.431 52.7997C154.669 53.348 153.655 53.8843 152.536 54.3312C152.535 54.3313 152.535 54.3315 152.535 54.3316C152.535 54.3316 152.535 54.3316 152.535 54.3316C151.364 54.7987 150.213 55.1181 149.259 55.2354C149.247 55.2369 149.235 55.2383 149.223 55.2397C149.198 55.2427 149.172 55.2456 149.147 55.2484ZM149.064 55.4565C149.057 55.4482 149.05 55.4399 149.043 55.4315C149.037 55.4241 149.031 55.4168 149.025 55.4094C149.011 55.3925 148.997 55.3754 148.984 55.3583C148.963 55.3601 148.943 55.3618 148.922 55.3634C148.914 55.3641 148.906 55.3647 148.897 55.3653C148.886 55.3662 148.875 55.367 148.864 55.3678C148.863 55.3678 148.862 55.3679 148.861 55.368C148.835 55.3698 148.808 55.3714 148.783 55.3728C148.772 55.3734 148.761 55.374 148.75 55.3745C148.669 55.3785 148.592 55.3805 148.518 55.3805C147.811 55.3805 147.364 55.2135 147.238 54.8989C147.238 54.8988 147.238 54.8989 147.238 54.8989C147.238 54.8985 147.238 54.8981 147.238 54.8977C147.085 54.5093 147.335 54.0534 148.003 53.5064C148.006 53.5045 148.008 53.5027 148.01 53.5009C148.036 53.4797 148.063 53.4584 148.09 53.4369C148.09 53.4364 148.091 53.436 148.092 53.4355C148.094 53.4339 148.095 53.4324 148.097 53.4308C148.111 53.4202 148.125 53.4096 148.138 53.399C148.153 53.3875 148.168 53.3761 148.183 53.3646C148.181 53.3447 148.179 53.3248 148.178 53.3048C148.177 53.2882 148.175 53.2716 148.174 53.255C148.174 53.2519 148.174 53.2489 148.174 53.2458C148.174 53.2454 148.174 53.245 148.174 53.2446C148.172 53.2125 148.17 53.1802 148.169 53.1479C148.168 53.1418 148.168 53.1357 148.168 53.1296C148.167 53.0866 148.166 53.0434 148.166 53C148.166 50.9047 149.862 49.1988 151.946 49.1988C153.19 49.1988 154.295 49.8058 154.984 50.7404C155.024 50.7944 155.063 50.8494 155.1 50.9054C155.385 51.3386 155.585 51.8336 155.674 52.3658C155.68 52.4015 155.686 52.4373 155.691 52.4732C155.691 52.4745 155.691 52.4758 155.691 52.4771C155.697 52.5156 155.701 52.5544 155.706 52.5932C155.736 52.569 155.767 52.5448 155.796 52.5207C155.799 52.5188 155.801 52.5169 155.803 52.5149C155.831 52.4926 155.857 52.4703 155.884 52.4481C156.516 51.9129 156.806 51.4357 156.682 51.1202C156.682 51.1202 156.682 51.1202 156.682 51.1202C156.681 51.1198 156.681 51.1194 156.681 51.119C156.551 50.788 156.04 50.6427 155.205 50.6987C155.202 50.6988 155.199 50.699 155.196 50.6992C155.19 50.6997 155.183 50.7001 155.177 50.7006C155.177 50.7006 155.177 50.7006 155.177 50.7006L155.17 50.604C155.178 50.6035 155.187 50.6029 155.195 50.6023C155.253 50.5984 155.309 50.5955 155.364 50.5936C156.148 50.5656 156.633 50.7343 156.77 51.0818C156.77 51.082 156.77 51.0822 156.77 51.0824C156.77 51.0828 156.771 51.0832 156.771 51.0836C156.915 51.4531 156.606 51.9736 155.897 52.5594C155.891 52.5642 155.886 52.569 155.88 52.5738C155.857 52.5925 155.834 52.6113 155.81 52.6301C155.809 52.6306 155.809 52.6312 155.808 52.6317C155.802 52.6366 155.796 52.6415 155.79 52.6464C155.78 52.6537 155.771 52.661 155.762 52.6683C155.761 52.669 155.76 52.6697 155.759 52.6704C155.745 52.6817 155.73 52.693 155.716 52.7043C155.717 52.7254 155.719 52.7466 155.72 52.7679C155.721 52.7815 155.722 52.7951 155.722 52.8088C155.723 52.8155 155.723 52.8222 155.723 52.8289C155.723 52.8293 155.723 52.8296 155.723 52.83C155.725 52.8587 155.725 52.8875 155.726 52.9163C155.726 52.9254 155.726 52.9345 155.727 52.9436C155.727 52.9624 155.727 52.9812 155.727 53C155.727 55.0953 154.03 56.8012 151.946 56.8012C150.834 56.8012 149.832 56.315 149.139 55.5429C149.131 55.5333 149.122 55.5237 149.114 55.5141C149.097 55.4955 149.081 55.4767 149.065 55.4578C149.065 55.4573 149.064 55.4569 149.064 55.4565ZM148.899 55.5646C148.764 55.5744 148.638 55.5793 148.518 55.5793C148.152 55.5793 147.838 55.5364 147.592 55.444C147.347 55.3516 147.148 55.2006 147.058 54.9723L147.057 54.9718C146.944 54.684 147.005 54.3857 147.183 54.096C147.346 53.8318 147.616 53.5585 147.981 53.2719C147.975 53.182 147.972 53.0914 147.972 53C147.972 50.7916 149.758 49 151.946 49C153.16 49 154.25 49.5509 154.98 50.4183L155.157 50.4057C155.618 50.3727 156.007 50.3975 156.307 50.4877C156.608 50.5779 156.847 50.7433 156.951 51.0097C157.062 51.2938 156.974 51.6043 156.788 51.8963C156.606 52.1823 156.309 52.4862 155.916 52.7975C155.92 52.8646 155.921 52.9321 155.921 53C155.921 55.2084 154.134 57 151.946 57C150.724 57 149.628 56.4414 148.899 55.5646ZM155.846 52.2208C156.081 52.0128 156.255 51.8203 156.368 51.6506C156.523 51.4159 156.532 51.2713 156.501 51.1943L156.501 51.1931C156.468 51.1085 156.374 51.0159 156.148 50.9532C155.949 50.8979 155.674 50.8744 155.323 50.891C155.571 51.2924 155.751 51.7412 155.846 52.2208ZM149.183 55.4491C149.207 55.4763 149.231 55.5032 149.256 55.5297C149.929 56.2525 150.886 56.7046 151.946 56.7046C153.975 56.7046 155.623 55.0482 155.631 53.014C155.631 53.0093 155.631 53.0047 155.631 53C155.631 52.9677 155.631 52.9356 155.63 52.9035C155.63 52.902 155.63 52.9006 155.63 52.8991C155.629 52.8572 155.627 52.8155 155.624 52.7739C155.595 52.7956 155.566 52.8173 155.536 52.839C155.534 52.8406 155.532 52.8423 155.529 52.8439C155.499 52.8664 155.467 52.8888 155.436 52.9112C154.673 53.4502 153.672 53.9779 152.569 54.4177C152.568 54.4179 152.568 54.418 152.568 54.4181C151.417 54.878 150.279 55.194 149.331 55.3198C149.293 55.3249 149.255 55.3297 149.217 55.3341C149.214 55.3345 149.212 55.3348 149.209 55.3352C149.171 55.3396 149.134 55.3436 149.097 55.3474C149.124 55.3803 149.152 55.4128 149.18 55.4447C149.181 55.4462 149.182 55.4476 149.183 55.4491ZM155.433 53.1531C155.353 55.0105 153.824 56.5058 151.946 56.5058C150.993 56.5058 150.128 56.1205 149.498 55.497C150.436 55.357 151.533 55.0448 152.638 54.6034C153.699 54.1805 154.671 53.6755 155.433 53.1531ZM148.195 53.4766C148.165 53.5003 148.135 53.5238 148.106 53.5471C148.103 53.5489 148.101 53.5507 148.099 53.5525C148.072 53.5744 148.045 53.5961 148.019 53.6177C147.421 54.1149 147.196 54.5239 147.327 54.8608C147.327 54.8609 147.327 54.861 147.327 54.8611C147.327 54.8615 147.327 54.8619 147.327 54.8623C147.435 55.1383 147.859 55.2841 148.518 55.2847C148.572 55.2847 148.627 55.2838 148.684 55.2819C148.718 55.2808 148.752 55.2793 148.787 55.2775C148.79 55.2773 148.794 55.2772 148.797 55.277C148.836 55.2749 148.875 55.2724 148.916 55.2694C148.892 55.2377 148.869 55.2057 148.847 55.1733C148.846 55.1721 148.845 55.171 148.844 55.1698C148.823 55.1398 148.803 55.1094 148.783 55.0786C148.514 54.6672 148.323 54.2006 148.23 53.6998C148.223 53.664 148.217 53.628 148.212 53.5918C148.211 53.5906 148.211 53.5893 148.211 53.5881C148.205 53.5511 148.2 53.5139 148.195 53.4766ZM148.06 53.8412C148.156 54.2883 148.326 54.7078 148.556 55.0857C148.284 55.0878 148.059 55.0647 147.885 55.0204C147.634 54.9565 147.536 54.8622 147.508 54.7885L147.508 54.7883C147.467 54.6837 147.474 54.5465 147.597 54.3493C147.69 54.2003 147.842 54.0312 148.06 53.8412ZM155.411 52.5705C155.199 50.8435 153.729 49.4942 151.946 49.4942C150.035 49.4942 148.485 51.0408 148.457 52.9475L148.721 53.3388L148.561 53.4519C148.538 53.4686 148.515 53.4852 148.492 53.5017C148.574 54.0742 148.794 54.6026 149.117 55.0516C150.072 54.9499 151.254 54.6292 152.465 54.146C153.621 53.6847 154.656 53.1298 155.411 52.5705Z" fill="#02E2AC"/>
</g>
<line x1="68.8474" y1="101.524" x2="249.847" y2="43.5238" stroke="#F3587D"/>
<line x1="72.1452" y1="44.5215" x2="250.145" y2="98.5215" stroke="#F3587D"/>
<defs>
<clipPath id="clip0">
<rect width="160" height="56.2162" fill="white" transform="translate(80 40)"/>
</clipPath>
</defs>
</svg>
