<svg viewBox="0 0 899.2 1415.7" xmlns="http://www.w3.org/2000/svg"><path d="m498 908.8c-2.6-3.4-6.3-5.8-10.2-7.8s-8-3.5-12.1-4.6c-8.4-2.3-17.1-3.1-25.7-2.8s-17.2 1.6-25.5 4.4c-4.1 1.4-8.1 3.2-11.8 5.4-1.9 1.1-3.7 2.3-5.3 3.7-1.7 1.3-3.2 2.9-4.3 4.7 5 1 9.1 1.7 13.2 2.3s8 1.1 11.8 1.5c7.7.7 15.1.9 22.6.6 5-.2 9.9-.5 14.9-1.1 2.5-.3 5.1-.6 7.7-1 3.8-.6 7.7-1.3 11.7-2.2 4-.8 8.1-1.8 13-3.1z" fill="#333" opacity=".2"/><g fill="none"><path d="m326.5 818.9c12.6 17.4 67.9 38.2 123.1 38.2 55 0 113.2-20.8 123.1-38.2" stroke="#333" stroke-linecap="round" stroke-miterlimit="10" stroke-width="16.163"/><path d="m147.7 570.5h603.7v241.5h-603.7z"/></g></svg>