<svg viewBox="0 0 899.2 1415.7" xmlns="http://www.w3.org/2000/svg"><path d="m445.8 921.5c-60.4 0-110.1-38.5-115.1-87.4h230.2c-5 48.8-54.7 87.4-115.1 87.4z" fill="#fff"/><path d="m551.4 842.1c-9.3 40.5-53.1 71.3-105.6 71.3s-96.3-30.8-105.6-71.3zm18-16.1h-247.2c0 57.2 55.3 103.6 123.6 103.6s123.6-46.4 123.6-103.6z" fill="#333"/><path d="m497.2 966.2c-2.7-3.8-6.7-6.6-10.7-9-4.1-2.3-8.5-4.2-13-5.5-9-2.8-18.4-4-27.7-4s-18.7 1.2-27.7 4c-4.5 1.4-8.9 3.2-13 5.5-2 1.2-4 2.5-5.9 4-1.8 1.4-3.5 3.2-4.9 5.1 5.4 1.3 9.8 2.2 14.2 3.1 4.4.8 8.6 1.5 12.8 2.1 8.3 1.1 16.3 1.5 24.4 1.5 5.4 0 10.7-.2 16.1-.7 2.8-.2 5.5-.5 8.3-.9 4.1-.5 8.4-1.2 12.8-2.1 4.5-.9 9-1.8 14.3-3.1z" fill="#333" opacity=".2"/><path d="m147.7 570.5h603.7v241.5h-603.7z" fill="none"/></svg>