<svg xmlns="http://www.w3.org/2000/svg" viewBox="0 0 899.2 1415.7"><path d="M501.6 918.2c-2.8-3.6-6.8-6.2-10.8-8.3-4.1-2.1-8.5-3.7-13-4.9-8.9-2.4-18.2-3.3-27.4-3-9.2.3-18.4 1.7-27.2 4.7-4.4 1.5-8.7 3.4-12.6 5.7-2 1.2-3.9 2.5-5.7 4-1.8 1.4-3.4 3.1-4.6 5 5.3 1 9.7 1.8 14.1 2.5s8.5 1.2 12.6 1.6c8.2.8 16.2 1 24.1.7 5.3-.2 10.5-.5 15.9-1.1 2.7-.3 5.4-.7 8.2-1.1 4.1-.6 8.2-1.4 12.5-2.4 4.3-1 8.7-2.1 13.9-3.4z" fill="#333" opacity=".2"/><path d="M333.6 860.1c39.5 25.3 95.1 0 114 0 29.9 0 72.8 25.3 114 0" fill="none" stroke="#333" stroke-width="16.163" stroke-miterlimit="10"/><path fill="none" d="M147.7 570.5h603.7V812H147.7z"/></svg>