<svg id="elqk59z6yip1" xmlns="http://www.w3.org/2000/svg" xmlns:xlink="http://www.w3.org/1999/xlink" viewBox="0 0 1400 900" shape-rendering="geometricPrecision" text-rendering="geometricPrecision" width="1400" height="900"><style><![CDATA[#elqk59z6yip6 {
           animation-name: elqk59z6yip6_s_p, elqk59z6yip6_s_o, elqk59z6yip6_s_w;
           animation-duration: 1100ms;
           animation-fill-mode: forwards;
           animation-timing-function: linear;
           animation-direction: normal;
           animation-iteration-count: infinite;  
        }@keyframes elqk59z6yip6_s_p { 0% {stroke: rgb(218,88,146)} 5.454545% {stroke: rgb(218,88,146)} 35.454545% {stroke: rgb(106,67,179)} 67.272727% {stroke: rgb(66,175,169)} 73.636364% {stroke: rgb(180,72,120)} 100% {stroke: rgb(180,72,120)} }@keyframes elqk59z6yip6_s_o { 0% {stroke-opacity: 0} 35.454545% {stroke-opacity: 0} 38.181818% {stroke-opacity: 1} 50.909091% {stroke-opacity: 1} 54.545455% {stroke-opacity: 0} 100% {stroke-opacity: 0} }@keyframes elqk59z6yip6_s_w { 0% {stroke-width: 3} 90.909091% {stroke-width: 44} 100% {stroke-width: 44} }#elqk59z6yip7 {
           animation-name: elqk59z6yip7_s_p, elqk59z6yip7_s_o, elqk59z6yip7_s_w;
           animation-duration: 1100ms;
           animation-fill-mode: forwards;
           animation-timing-function: linear;
           animation-direction: normal;
           animation-iteration-count: infinite;  
        }@keyframes elqk59z6yip7_s_p { 0% {stroke: rgb(218,88,146)} 14.545455% {stroke: rgb(218,88,146)} 44.545455% {stroke: rgb(66,175,169)} 58.181818% {stroke: rgb(106,67,179)} 82.727273% {stroke: rgb(180,72,120)} 100% {stroke: rgb(180,72,120)} }@keyframes elqk59z6yip7_s_o { 0% {stroke-opacity: 0} 32.727273% {stroke-opacity: 0} 35.454545% {stroke-opacity: 1} 54.545455% {stroke-opacity: 1} 58.181818% {stroke-opacity: 0} 100% {stroke-opacity: 0} }@keyframes elqk59z6yip7_s_w { 0% {stroke-width: 3} 90.909091% {stroke-width: 44} 100% {stroke-width: 44} }#elqk59z6yip8 {
           animation-name: elqk59z6yip8_s_p, elqk59z6yip8_s_o, elqk59z6yip8_s_w;
           animation-duration: 1100ms;
           animation-fill-mode: forwards;
           animation-timing-function: linear;
           animation-direction: normal;
           animation-iteration-count: infinite;  
        }@keyframes elqk59z6yip8_s_p { 0% {stroke: rgb(218,88,146)} 14.545455% {stroke: rgb(218,88,146)} 35.454545% {stroke: rgb(106,67,179)} 49.090909% {stroke: rgb(66,175,169)} 73.636364% {stroke: rgb(180,72,120)} 100% {stroke: rgb(180,72,120)} }@keyframes elqk59z6yip8_s_o { 0% {stroke-opacity: 0} 30% {stroke-opacity: 0} 32.727273% {stroke-opacity: 1} 58.181818% {stroke-opacity: 1} 61.818182% {stroke-opacity: 0} 100% {stroke-opacity: 0} }@keyframes elqk59z6yip8_s_w { 0% {stroke-width: 3} 90.909091% {stroke-width: 44} 100% {stroke-width: 44} }#elqk59z6yip9 {
           animation-name: elqk59z6yip9_s_p, elqk59z6yip9_s_o, elqk59z6yip9_s_w;
           animation-duration: 1100ms;
           animation-fill-mode: forwards;
           animation-timing-function: linear;
           animation-direction: normal;
           animation-iteration-count: infinite;  
        }@keyframes elqk59z6yip9_s_p { 0% {stroke: rgb(218,88,146)} 5.454545% {stroke: rgb(218,88,146)} 17.272727% {stroke: rgb(66,175,169)} 49.090909% {stroke: rgb(106,67,179)} 73.636364% {stroke: rgb(180,72,120)} 100% {stroke: rgb(180,72,120)} }@keyframes elqk59z6yip9_s_o { 0% {stroke-opacity: 0} 27.272727% {stroke-opacity: 0} 30% {stroke-opacity: 1} 61.818182% {stroke-opacity: 1} 65.454545% {stroke-opacity: 0} 100% {stroke-opacity: 0} }@keyframes elqk59z6yip9_s_w { 0% {stroke-width: 3} 90.909091% {stroke-width: 44} 100% {stroke-width: 44} }#elqk59z6yip10 {
           animation-name: elqk59z6yip10_s_p, elqk59z6yip10_s_o, elqk59z6yip10_s_w;
           animation-duration: 1100ms;
           animation-fill-mode: forwards;
           animation-timing-function: linear;
           animation-direction: normal;
           animation-iteration-count: infinite;  
        }@keyframes elqk59z6yip10_s_p { 0% {stroke: rgb(218,88,146)} 5.454545% {stroke: rgb(218,88,146)} 26.363636% {stroke: rgb(106,67,179)} 85.454545% {stroke: rgb(66,175,169)} 91.818182% {stroke: rgb(180,72,120)} 100% {stroke: rgb(180,72,120)} }@keyframes elqk59z6yip10_s_o { 0% {stroke-opacity: 0} 24.545455% {stroke-opacity: 0} 27.272727% {stroke-opacity: 1} 65.454545% {stroke-opacity: 1} 69.090909% {stroke-opacity: 0} 100% {stroke-opacity: 0} }@keyframes elqk59z6yip10_s_w { 0% {stroke-width: 3} 90.909091% {stroke-width: 44} 100% {stroke-width: 44} }#elqk59z6yip11 {
           animation-name: elqk59z6yip11_s_p, elqk59z6yip11_s_o, elqk59z6yip11_s_w;
           animation-duration: 1100ms;
           animation-fill-mode: forwards;
           animation-timing-function: linear;
           animation-direction: normal;
           animation-iteration-count: infinite;  
        }@keyframes elqk59z6yip11_s_p { 0% {stroke: rgb(218,88,146)} 5.454545% {stroke: rgb(218,88,146)} 53.636364% {stroke: rgb(66,175,169)} 76.363636% {stroke: rgb(106,67,179)} 82.727273% {stroke: rgb(180,72,120)} 100% {stroke: rgb(180,72,120)} }@keyframes elqk59z6yip11_s_o { 0% {stroke-opacity: 0} 21.818182% {stroke-opacity: 0} 24.545455% {stroke-opacity: 1} 69.090909% {stroke-opacity: 1} 72.727273% {stroke-opacity: 0} 100% {stroke-opacity: 0} }@keyframes elqk59z6yip11_s_w { 0% {stroke-width: 3} 90.909091% {stroke-width: 44} 100% {stroke-width: 44} }#elqk59z6yip12 {
           animation-name: elqk59z6yip12_s_p, elqk59z6yip12_s_o, elqk59z6yip12_s_w;
           animation-duration: 1100ms;
           animation-fill-mode: forwards;
           animation-timing-function: linear;
           animation-direction: normal;
           animation-iteration-count: infinite;  
        }@keyframes elqk59z6yip12_s_p { 0% {stroke: rgb(218,88,146)} 5.454545% {stroke: rgb(218,88,146)} 44.545455% {stroke: rgb(106,67,179)} 76.363636% {stroke: rgb(66,175,169)} 100% {stroke: rgb(176,76,122)} }@keyframes elqk59z6yip12_s_o { 0% {stroke-opacity: 0} 19.090909% {stroke-opacity: 0;animation-timing-function: cubic-bezier(0.455000,0.030000,0.515000,0.955000)} 21.818182% {stroke-opacity: 1;animation-timing-function: cubic-bezier(0.455000,0.030000,0.515000,0.955000)} 72.727273% {stroke-opacity: 1;animation-timing-function: cubic-bezier(0.455000,0.030000,0.515000,0.955000)} 76.363636% {stroke-opacity: 0} 100% {stroke-opacity: 0} }@keyframes elqk59z6yip12_s_w { 0% {stroke-width: 3} 90.909091% {stroke-width: 44} 100% {stroke-width: 44} }#elqk59z6yip13 {
           animation-name: elqk59z6yip13_s_p, elqk59z6yip13_s_o, elqk59z6yip13_s_w;
           animation-duration: 1100ms;
           animation-fill-mode: forwards;
           animation-timing-function: linear;
           animation-direction: normal;
           animation-iteration-count: infinite;  
        }@keyframes elqk59z6yip13_s_p { 0% {stroke: rgb(218,88,146)} 5.454545% {stroke: rgb(218,88,146)} 35.454545% {stroke: rgb(66,175,169)} 49.090909% {stroke: rgb(106,67,179)} 82.727273% {stroke: rgb(180,72,120)} 100% {stroke: rgb(180,72,120)} }@keyframes elqk59z6yip13_s_o { 0% {stroke-opacity: 0} 16.363636% {stroke-opacity: 0;animation-timing-function: cubic-bezier(0.455000,0.030000,0.515000,0.955000)} 19.090909% {stroke-opacity: 1;animation-timing-function: cubic-bezier(0.455000,0.030000,0.515000,0.955000)} 76.363636% {stroke-opacity: 1;animation-timing-function: cubic-bezier(0.455000,0.030000,0.515000,0.955000)} 80% {stroke-opacity: 0} 100% {stroke-opacity: 0} }@keyframes elqk59z6yip13_s_w { 0% {stroke-width: 3} 90.909091% {stroke-width: 44} 100% {stroke-width: 44} }#elqk59z6yip14 {
           animation-name: elqk59z6yip14_s_p, elqk59z6yip14_s_o, elqk59z6yip14_s_w;
           animation-duration: 1100ms;
           animation-fill-mode: forwards;
           animation-timing-function: linear;
           animation-direction: normal;
           animation-iteration-count: infinite;  
        }@keyframes elqk59z6yip14_s_p { 0% {stroke: rgb(218,88,146)} 5.454545% {stroke: rgb(218,88,146)} 35.454545% {stroke: rgb(66,175,169)} 58.181818% {stroke: rgb(106,67,179)} 91.818182% {stroke: rgb(180,72,120)} 100% {stroke: rgb(180,72,120)} }@keyframes elqk59z6yip14_s_o { 0% {stroke-opacity: 0} 13.636364% {stroke-opacity: 0;animation-timing-function: cubic-bezier(0.455000,0.030000,0.515000,0.955000)} 16.363636% {stroke-opacity: 1;animation-timing-function: cubic-bezier(0.455000,0.030000,0.515000,0.955000)} 80% {stroke-opacity: 1;animation-timing-function: cubic-bezier(0.455000,0.030000,0.515000,0.955000)} 83.636364% {stroke-opacity: 0} 100% {stroke-opacity: 0} }@keyframes elqk59z6yip14_s_w { 0% {stroke-width: 3} 90.909091% {stroke-width: 44} 100% {stroke-width: 44} }#elqk59z6yip15 {
           animation-name: elqk59z6yip15_s_p, elqk59z6yip15_s_o, elqk59z6yip15_s_w;
           animation-duration: 1100ms;
           animation-fill-mode: forwards;
           animation-timing-function: linear;
           animation-direction: normal;
           animation-iteration-count: infinite;  
        }@keyframes elqk59z6yip15_s_p { 0% {stroke: rgb(218,88,146)} 5.454545% {stroke: rgb(218,88,146)} 44.545455% {stroke: rgb(106,67,179)} 67.272727% {stroke: rgb(66,175,169)} 91.818182% {stroke: rgb(180,72,120)} 100% {stroke: rgb(180,72,120)} }@keyframes elqk59z6yip15_s_o { 0% {stroke-opacity: 0} 10.909091% {stroke-opacity: 0;animation-timing-function: cubic-bezier(0.455000,0.030000,0.515000,0.955000)} 13.636364% {stroke-opacity: 1;animation-timing-function: cubic-bezier(0.455000,0.030000,0.515000,0.955000)} 83.636364% {stroke-opacity: 1;animation-timing-function: cubic-bezier(0.455000,0.030000,0.515000,0.955000)} 87.272727% {stroke-opacity: 0} 100% {stroke-opacity: 0} }@keyframes elqk59z6yip15_s_w { 0% {stroke-width: 3} 90.909091% {stroke-width: 44} 100% {stroke-width: 44} }#elqk59z6yip16 {
           animation-name: elqk59z6yip16_s_p, elqk59z6yip16_s_o, elqk59z6yip16_s_w;
           animation-duration: 1100ms;
           animation-fill-mode: forwards;
           animation-timing-function: linear;
           animation-direction: normal;
           animation-iteration-count: infinite;  
        }@keyframes elqk59z6yip16_s_p { 0% {stroke: rgb(218,88,146)} 5.454545% {stroke: rgb(218,88,146)} 44.545455% {stroke: rgb(106,67,179)} 67.272727% {stroke: rgb(66,175,169)} 91.818182% {stroke: rgb(180,72,120)} 100% {stroke: rgb(180,72,120)} }@keyframes elqk59z6yip16_s_o { 0% {stroke-opacity: 0} 8.181818% {stroke-opacity: 0;animation-timing-function: cubic-bezier(0.445000,0.050000,0.550000,0.950000)} 10.909091% {stroke-opacity: 1;animation-timing-function: cubic-bezier(0.445000,0.050000,0.550000,0.950000)} 87.272727% {stroke-opacity: 1;animation-timing-function: cubic-bezier(0.445000,0.050000,0.550000,0.950000)} 90.909091% {stroke-opacity: 0} 100% {stroke-opacity: 0} }@keyframes elqk59z6yip16_s_w { 0% {stroke-width: 3} 90.909091% {stroke-width: 44} 100% {stroke-width: 44} }#elqk59z6yip17 {
           animation-name: elqk59z6yip17_s_p, elqk59z6yip17_s_o, elqk59z6yip17_s_w;
           animation-duration: 1100ms;
           animation-fill-mode: forwards;
           animation-timing-function: linear;
           animation-direction: normal;
           animation-iteration-count: infinite;  
        }@keyframes elqk59z6yip17_s_p { 0% {stroke: rgb(218,88,146)} 5.454545% {stroke: rgb(218,88,146)} 35.454545% {stroke: rgb(66,175,169)} 76.363636% {stroke: rgb(106,67,179)} 91.818182% {stroke: rgb(180,72,120)} 100% {stroke: rgb(180,72,120)} }@keyframes elqk59z6yip17_s_o { 0% {stroke-opacity: 0} 5.454545% {stroke-opacity: 0;animation-timing-function: cubic-bezier(0.445000,0.050000,0.550000,0.950000)} 8.181818% {stroke-opacity: 1;animation-timing-function: cubic-bezier(0.445000,0.050000,0.550000,0.950000)} 90.909091% {stroke-opacity: 1;animation-timing-function: cubic-bezier(0.445000,0.050000,0.550000,0.950000)} 94.545455% {stroke-opacity: 0} 100% {stroke-opacity: 0} }@keyframes elqk59z6yip17_s_w { 0% {stroke-width: 3} 90.909091% {stroke-width: 44} 100% {stroke-width: 44} }#elqk59z6yip18 {
           animation-name: elqk59z6yip18_s_p, elqk59z6yip18_s_o, elqk59z6yip18_s_w;
           animation-duration: 1100ms;
           animation-fill-mode: forwards;
           animation-timing-function: linear;
           animation-direction: normal;
           animation-iteration-count: infinite;  
        }@keyframes elqk59z6yip18_s_p { 0% {stroke: rgb(218,88,146)} 5.454545% {stroke: rgb(218,88,146)} 35.454545% {stroke: rgb(106,67,179)} 67.272727% {stroke: rgb(66,175,169)} 100% {stroke: rgb(177,75,121)} }@keyframes elqk59z6yip18_s_o { 0% {stroke-opacity: 0} 2.727273% {stroke-opacity: 0;animation-timing-function: cubic-bezier(0.445000,0.050000,0.550000,0.950000)} 5.454545% {stroke-opacity: 1;animation-timing-function: cubic-bezier(0.445000,0.050000,0.550000,0.950000)} 94.545455% {stroke-opacity: 1;animation-timing-function: cubic-bezier(0.445000,0.050000,0.550000,0.950000)} 98.181818% {stroke-opacity: 0} 100% {stroke-opacity: 0} }@keyframes elqk59z6yip18_s_w { 0% {stroke-width: 3} 90.909091% {stroke-width: 44} 100% {stroke-width: 44} }#elqk59z6yip19 {
           animation-name: elqk59z6yip19_s_p, elqk59z6yip19_s_w;
           animation-duration: 1100ms;
           animation-fill-mode: forwards;
           animation-timing-function: linear;
           animation-direction: normal;
           animation-iteration-count: infinite;  
        }@keyframes elqk59z6yip19_s_p { 0% {stroke: rgb(218,88,146)} 5.454545% {stroke: rgb(218,88,146)} 35.454545% {stroke: rgb(66,175,169)} 76.363636% {stroke: rgb(106,67,179)} 100% {stroke: rgb(177,72,122)} }@keyframes elqk59z6yip19_s_w { 0% {stroke-width: 3} 90.909091% {stroke-width: 44} 100% {stroke-width: 44} }]]></style><rect id="elqk59z6yip2" width="1400" height="900" rx="0" ry="0" fill="rgb(14,3,51)" stroke="none" stroke-width="1"/><path id="elqk59z6yip3" d="M656.460000,461.310000L652.760000,461.310000L652.760000,451.010000C652.760000,450.250000,652.580000,449.660000,652.230000,449.250000C651.880000,448.840000,651.260000,448.630000,650.380000,448.630000L640.790000,448.630000L640.790000,461.300000L637.090000,461.300000L637.090000,430.500000L648.090000,430.500000C649.670000,430.500000,651.050000,430.730000,652.230000,431.180000C653.400000,431.640000,654.380000,432.240000,655.160000,433.010000C655.940000,433.770000,656.520000,434.660000,656.920000,435.670000C657.320000,436.680000,657.510000,437.750000,657.510000,438.860000L657.510000,440.180000C657.510000,441.320000,657.190000,442.470000,656.560000,443.610000C655.930000,444.750000,654.950000,445.630000,653.630000,446.250000L653.630000,446.780000C654.510000,446.930000,655.200000,447.280000,655.700000,447.840000C656.200000,448.400000,656.450000,449.190000,656.450000,450.220000L656.450000,461.310000ZM640.800000,445.200000L647.660000,445.200000C649.740000,445.200000,651.290000,444.750000,652.300000,443.860000C653.310000,442.970000,653.820000,441.650000,653.820000,439.920000L653.820000,439.130000C653.820000,437.580000,653.310000,436.320000,652.300000,435.370000C651.290000,434.420000,649.740000,433.940000,647.660000,433.940000L640.800000,433.940000L640.800000,445.200000ZM664.650000,458.140000L672.310000,458.140000L672.310000,442.650000L665.450000,442.650000L665.450000,439.480000L675.750000,439.480000L675.750000,458.140000L682.880000,458.140000L682.880000,461.310000L664.660000,461.310000L664.660000,458.140000ZM670.890000,432.970000C670.890000,432.120000,671.190000,431.390000,671.790000,430.790000C672.390000,430.190000,673.120000,429.890000,673.970000,429.890000C674.820000,429.890000,675.550000,430.190000,676.150000,430.790000C676.750000,431.390000,677.050000,432.120000,677.050000,432.970000C677.050000,433.820000,676.750000,434.550000,676.150000,435.150000C675.550000,435.750000,674.820000,436.050000,673.970000,436.050000C673.120000,436.050000,672.390000,435.750000,671.790000,435.150000C671.190000,434.550000,670.890000,433.820000,670.890000,432.970000ZM707.630000,457.960000L707.100000,457.960000C706.390000,459.280000,705.430000,460.270000,704.220000,460.930000C703.010000,461.590000,701.680000,461.920000,700.240000,461.920000C698.770000,461.920000,697.390000,461.670000,696.100000,461.170000C694.810000,460.670000,693.670000,459.950000,692.690000,459.010000C691.710000,458.070000,690.930000,456.910000,690.360000,455.510000C689.790000,454.120000,689.500000,452.530000,689.500000,450.740000L689.500000,450.040000C689.500000,448.280000,689.790000,446.700000,690.380000,445.310000C690.970000,443.920000,691.740000,442.740000,692.710000,441.790000C693.680000,440.840000,694.810000,440.110000,696.100000,439.610000C697.390000,439.110000,698.740000,438.860000,700.150000,438.860000C701.730000,438.860000,703.120000,439.210000,704.310000,439.890000C705.500000,440.580000,706.430000,441.580000,707.100000,442.900000L707.630000,442.900000L707.630000,439.470000L711.060000,439.470000L711.060000,466.660000C711.060000,467.660000,710.750000,468.480000,710.110000,469.120000C709.480000,469.770000,708.660000,470.090000,707.670000,470.090000L693.460000,470.090000L693.460000,466.920000L706.440000,466.920000C707.230000,466.920000,707.630000,466.480000,707.630000,465.600000L707.630000,457.960000ZM700.330000,458.670000C701.360000,458.670000,702.310000,458.480000,703.190000,458.100000C704.070000,457.720000,704.840000,457.180000,705.500000,456.470000C706.160000,455.770000,706.680000,454.920000,707.060000,453.940000C707.440000,452.960000,707.630000,451.870000,707.630000,450.660000L707.630000,450.130000C707.630000,448.960000,707.440000,447.880000,707.060000,446.900000C706.680000,445.920000,706.160000,445.070000,705.500000,444.370000C704.840000,443.670000,704.060000,443.120000,703.170000,442.720000C702.270000,442.320000,701.330000,442.130000,700.330000,442.130000C699.300000,442.130000,698.340000,442.320000,697.450000,442.700000C696.550000,443.080000,695.780000,443.620000,695.120000,444.330000C694.460000,445.030000,693.950000,445.870000,693.580000,446.840000C693.210000,447.810000,693.030000,448.880000,693.030000,450.050000L693.030000,450.750000C693.030000,451.980000,693.210000,453.080000,693.580000,454.050000C693.950000,455.020000,694.460000,455.850000,695.120000,456.540000C695.780000,457.230000,696.550000,457.760000,697.430000,458.120000C698.300000,458.490000,699.270000,458.670000,700.330000,458.670000ZM721.410000,461.310000L717.980000,461.310000L717.980000,430.510000L721.410000,430.510000L721.410000,443.450000L721.940000,443.450000C722.620000,442.040000,723.560000,440.930000,724.780000,440.110000C726,439.290000,727.490000,438.880000,729.250000,438.880000C731.630000,438.880000,733.550000,439.670000,735.040000,441.230000C736.520000,442.800000,737.260000,445.150000,737.260000,448.290000L737.260000,461.310000L733.830000,461.310000L733.830000,448.990000C733.830000,446.700000,733.320000,444.990000,732.290000,443.840000C731.260000,442.700000,729.870000,442.120000,728.110000,442.120000C726.030000,442.120000,724.390000,442.830000,723.200000,444.250000C722.010000,445.670000,721.420000,447.570000,721.420000,449.950000L721.420000,461.310000ZM744.150000,439.480000L751.010000,439.480000L751.010000,430.500000L754.440000,430.500000L754.440000,439.480000L762.890000,439.480000L762.890000,442.650000L754.440000,442.650000L754.440000,456.820000C754.440000,457.700000,754.840000,458.140000,755.630000,458.140000L761.830000,458.140000L761.830000,461.310000L754.390000,461.310000C753.390000,461.310000,752.580000,460.990000,751.950000,460.340000C751.320000,459.690000,751,458.870000,751,457.880000L751,442.660000L744.140000,442.660000L744.140000,439.480000Z" fill="rgb(255,255,255)" stroke="none" stroke-width="1"/><g id="elqk59z6yip4" mask="url(#elqk59z6yip20)"><g id="elqk59z6yip5"><rect id="elqk59z6yip6" width="1501.990000" height="1501.990000" rx="0" ry="0" transform="matrix(0.70710000000000 -0.70710000000000 0.70710000000000 0.70710000000000 -362.05805799999996 450.00200000000007)" fill="none" stroke="rgb(218,88,146)" stroke-width="3" stroke-opacity="0" stroke-miterlimit="10"/><rect id="elqk59z6yip7" width="1404.860000" height="1404.860000" rx="0" ry="0" transform="matrix(0.70710000000000 -0.70710000000000 0.70710000000000 0.70710000000000 -293.38450599999999 450.00200000000007)" fill="none" stroke="rgb(218,88,146)" stroke-width="3" stroke-opacity="0" stroke-miterlimit="10"/><rect id="elqk59z6yip8" width="1307.730000" height="1307.730000" rx="0" ry="0" transform="matrix(0.70710000000000 -0.70710000000000 0.70710000000000 0.70710000000000 -224.69681200000002 450.00200000000007)" fill="none" stroke="rgb(218,88,146)" stroke-width="3" stroke-opacity="0" stroke-miterlimit="10"/><rect id="elqk59z6yip9" width="1210.600000" height="1210.600000" rx="0" ry="0" transform="matrix(0.70710000000000 -0.70710000000000 0.70710000000000 0.70710000000000 -156.02325999999999 450.00200000000007)" fill="none" stroke="rgb(218,88,146)" stroke-width="3" stroke-opacity="0" stroke-miterlimit="10"/><rect id="elqk59z6yip10" width="1113.470000" height="1113.470000" rx="0" ry="0" transform="matrix(0.70710000000000 -0.70710000000000 0.70710000000000 0.70710000000000 -87.33556600000001 450.00200000000007)" fill="none" stroke="rgb(218,88,146)" stroke-width="3" stroke-opacity="0" stroke-miterlimit="10"/><rect id="elqk59z6yip11" width="1016.340000" height="1016.340000" rx="0" ry="0" transform="matrix(0.70710000000000 -0.70710000000000 0.70710000000000 0.70710000000000 -18.66201400000001 450.00200000000007)" fill="none" stroke="rgb(218,88,146)" stroke-width="3" stroke-opacity="0" stroke-miterlimit="10"/><rect id="elqk59z6yip12" width="919.210000" height="919.210000" rx="0" ry="0" transform="matrix(0.70710000000000 -0.70710000000000 0.70710000000000 0.70710000000000 50.02567999999997 450.00200000000007)" fill="none" stroke="rgb(218,88,146)" stroke-width="3" stroke-opacity="0" stroke-miterlimit="10"/><rect id="elqk59z6yip13" width="822.080000" height="822.080000" rx="0" ry="0" transform="matrix(0.70710000000000 -0.70710000000000 0.70710000000000 0.70710000000000 118.69923199999994 450.00200000000007)" fill="none" stroke="rgb(218,88,146)" stroke-width="3" stroke-opacity="0" stroke-miterlimit="10"/><rect id="elqk59z6yip14" width="724.950000" height="724.950000" rx="0" ry="0" transform="matrix(0.70710000000000 -0.70710000000000 0.70710000000000 0.70710000000000 187.38692599999990 450.00200000000007)" fill="none" stroke="rgb(218,88,146)" stroke-width="3" stroke-opacity="0" stroke-miterlimit="10"/><rect id="elqk59z6yip15" width="627.820000" height="627.820000" rx="0" ry="0" transform="matrix(0.70710000000000 -0.70710000000000 0.70710000000000 0.70710000000000 256.06047799999993 450.00200000000007)" fill="none" stroke="rgb(218,88,146)" stroke-width="3" stroke-opacity="0" stroke-miterlimit="10"/><rect id="elqk59z6yip16" width="530.690000" height="530.690000" rx="0" ry="0" transform="matrix(0.70710000000000 -0.70710000000000 0.70710000000000 0.70710000000000 324.74817199999995 450.00199999999995)" fill="none" stroke="rgb(218,88,146)" stroke-width="3" stroke-opacity="0" stroke-miterlimit="10"/><rect id="elqk59z6yip17" width="433.560000" height="433.560000" rx="0" ry="0" transform="matrix(0.70710000000000 -0.70710000000000 0.70710000000000 0.70710000000000 393.42172399999993 450.00200000000001)" fill="none" stroke="rgb(218,88,146)" stroke-width="3" stroke-opacity="0" stroke-miterlimit="10"/><rect id="elqk59z6yip18" width="336.430000" height="336.430000" rx="0" ry="0" transform="matrix(0.70710000000000 -0.70710000000000 0.70710000000000 0.70710000000000 462.10941799999989 450.00200000000007)" fill="none" stroke="rgb(218,88,146)" stroke-width="3" stroke-opacity="0" stroke-miterlimit="10"/><rect id="elqk59z6yip19" width="239.300000" height="239.300000" rx="0" ry="0" transform="matrix(0.70710000000000 -0.70710000000000 0.70710000000000 0.70710000000000 530.78296999999998 450.00200000000007)" fill="none" stroke="rgb(218,88,146)" stroke-width="3" stroke-miterlimit="10"/></g><mask id="elqk59z6yip20" mask-type="alpha"><rect id="elqk59z6yip21" width="1400" height="900" rx="0" ry="0" fill="rgb(14,3,51)" stroke="none" stroke-width="1"/></mask></g></svg>