<?xml version="1.0" encoding="utf-8"?>
<!-- Generator: Adobe Illustrator 22.1.0, SVG Export Plug-In . SVG Version: 6.00 Build 0)  -->
<svg version="1.1" id="Layer_1" xmlns="http://www.w3.org/2000/svg" xmlns:xlink="http://www.w3.org/1999/xlink" x="0px" y="0px"
	 viewBox="0 0 110.9 128" style="enable-background:new 0 0 110.9 128;" xml:space="preserve">
<style type="text/css">
	.st0{fill:#766A68;}
	.st1{opacity:0.38;fill:#DF9079;}
	.st2{opacity:0.13;}
	.st3{fill:#DF9079;}
	.st4{fill:#E6D9A5;}
	.st5{fill:none;stroke:#DF9079;stroke-width:3;stroke-miterlimit:10;}
</style>
<g>
	<g>
		<polygon class="st0" points="55.4,0 0,32 0,96 55.4,128 55.4,128 110.9,96 110.9,32 		"/>
		<path class="st1" d="M9.4,90.6V37.4l46-26.6l46,26.6v53.1l-46,26.6L9.4,90.6z M0,32v64l55.4,32h0l55.4-32V32L55.4,0L0,32z"/>
		<g class="st2">
			<path class="st3" d="M11.8,89.2V38.8l43.7-25.2l43.7,25.2v50.4l-43.7,25.2L11.8,89.2z M55.4,10.9l-46,26.6v53.1l46,26.6l46-26.6
				V37.4L55.4,10.9z"/>
		</g>
	</g>
	<path class="st3" d="M55.4,72c-4.4,0-8-3.6-8-8s3.6-8,8-8s8,3.6,8,8S59.8,72,55.4,72z M55.4,59c-2.8,0-5,2.2-5,5s2.2,5,5,5
		s5-2.2,5-5S58.2,59,55.4,59z"/>
	<g>
		<path class="st4" d="M31.7,57.7c1,0.2,1.9,0.7,2.7,1.4l5.5-5.5l-2.1-2.1l-6.1,6.1v-9.6c0-1.5,0.5-2.9,1.2-4.1l13.8,13.8
			c0.6-0.8,1.3-1.5,2.1-2.1L35.2,41.6c1.2-0.8,2.6-1.2,4.1-1.2h9.6l-6.1,6.1l2.1,2.1l5.5-5.5c-0.7-0.8-1.1-1.7-1.3-2.7
			c-0.2-1-0.2-2,0-3h-9.9c-5.7,0-10.4,4.7-10.4,10.4v9.9C29.8,57.5,30.8,57.5,31.7,57.7z"/>
		<path class="st4" d="M79.1,70.3c-1-0.2-1.9-0.7-2.7-1.4l-5.6,5.6l2.1,2.1l6.1-6.1v9.6c0,1.5-0.5,2.9-1.2,4.1L64,70.4
			c-0.6,0.8-1.3,1.5-2.1,2.1l13.9,13.8c-1.2,0.8-2.6,1.2-4.1,1.2H62l6.1-6.1l-2.1-2.1L60.4,85c0.7,0.8,1.1,1.7,1.3,2.7
			c0.2,1,0.2,2,0,2.9h9.9c5.7,0,10.4-4.7,10.4-10.4v-9.9C81.1,70.6,80.1,70.5,79.1,70.3z"/>
		<path class="st4" d="M71.6,37.4h-9.9c0.2,1,0.2,2,0,3c-0.2,1-0.7,1.9-1.3,2.7l5.5,5.5l2.1-2.1l-6-6h9.6c1.5,0,2.9,0.5,4.1,1.2
			L61.8,55.5c0.8,0.6,1.5,1.3,2.1,2.1l13.8-13.8c0.8,1.2,1.2,2.6,1.2,4.1v9.6L73,51.4l-2.1,2.1l5.6,5.6c0.8-0.7,1.7-1.1,2.7-1.4
			c1-0.2,2-0.2,2.9,0v-9.9C82,42.1,77.4,37.4,71.6,37.4z"/>
		<path class="st4" d="M50.5,85l-5.5-5.5l-2.1,2.1l6.1,6.1h-9.6c-1.5,0-2.9-0.5-4.1-1.2L49,72.5c-0.8-0.6-1.5-1.3-2.1-2.1L33,84.3
			c-0.8-1.2-1.2-2.6-1.2-4.1v-9.6l6.1,6.1l2.1-2.1L34.5,69c-0.8,0.7-1.7,1.1-2.7,1.4c-1,0.2-2,0.2-2.9,0v9.9
			c0,5.7,4.7,10.4,10.4,10.4h9.9c-0.2-1-0.2-2,0-2.9C49.3,86.7,49.8,85.8,50.5,85z"/>
	</g>
	<path class="st3" d="M30.3,72c-2,0-4.1-0.8-5.7-2.3c-3.1-3.1-3.1-8.2,0-11.3c3.1-3.1,8.2-3.1,11.3,0c3.1,3.1,3.1,8.2,0,11.3
		C34.4,71.2,32.3,72,30.3,72z M30.3,59c-1.3,0-2.6,0.5-3.5,1.5c-1.9,1.9-1.9,5.1,0,7.1c2,2,5.1,1.9,7.1,0c1.9-1.9,1.9-5.1,0-7.1
		C32.8,59.5,31.6,59,30.3,59z"/>
	<path class="st3" d="M80.6,72c-2,0-4.1-0.8-5.7-2.3c-3.1-3.1-3.1-8.2,0-11.3s8.2-3.1,11.3,0c1.5,1.5,2.3,3.5,2.3,5.7
		c0,2.1-0.8,4.1-2.3,5.7l0,0l0,0C84.7,71.2,82.7,72,80.6,72z M80.6,59c-1.3,0-2.6,0.5-3.5,1.5c-1.9,1.9-1.9,5.1,0,7.1s5.1,1.9,7.1,0
		l0,0c0.9-0.9,1.5-2.2,1.5-3.5c0-1.3-0.5-2.6-1.5-3.5C83.2,59.5,81.9,59,80.6,59z"/>
	<path class="st3" d="M55.4,46.9c-2.1,0-4.1-0.8-5.7-2.3c-1.5-1.5-2.3-3.5-2.3-5.7s0.8-4.1,2.3-5.7c3.1-3.1,8.2-3.1,11.3,0
		c3.1,3.1,3.1,8.2,0,11.3C59.6,46.1,57.6,46.9,55.4,46.9z M55.4,33.9c-1.3,0-2.6,0.5-3.5,1.5c-0.9,0.9-1.5,2.2-1.5,3.5
		c0,1.3,0.5,2.6,1.5,3.5s2.2,1.5,3.5,1.5c1.3,0,2.6-0.5,3.5-1.5c1.9-1.9,1.9-5.1,0-7.1C58,34.4,56.7,33.9,55.4,33.9z"/>
	<path class="st3" d="M55.4,97.1c-2,0-4.1-0.8-5.7-2.3c-1.5-1.5-2.3-3.5-2.3-5.7s0.8-4.1,2.3-5.7c1.5-1.5,3.5-2.3,5.7-2.3
		s4.1,0.8,5.7,2.3c3.1,3.1,3.1,8.2,0,11.3l0,0C59.5,96.4,57.5,97.1,55.4,97.1z M55.4,84.1c-1.3,0-2.6,0.5-3.5,1.5s-1.5,2.2-1.5,3.5
		c0,1.3,0.5,2.6,1.5,3.5c1.9,1.9,5.1,1.9,7.1,0c1.9-2,1.9-5.1,0-7.1C58,84.7,56.8,84.1,55.4,84.1z"/>
</g>
</svg>
