<svg id="Layer_1" xmlns="http://www.w3.org/2000/svg" viewBox="0 0 110.9 128"><style>.st3{fill:#df9079}.st4{fill:#e6d9a5}</style><path fill="#766a68" d="M55.4 0L0 32v64l55.4 32 55.5-32V32z"/><path d="M9.4 90.6V37.4l46-26.6 46 26.6v53.1l-46 26.6-46-26.5zM0 32v64l55.4 32 55.4-32V32L55.4 0 0 32z" opacity=".38" fill="#df9079"/><path class="st3" d="M11.8 89.2V38.8l43.7-25.2 43.7 25.2v50.4l-43.7 25.2-43.7-25.2zm43.6-78.3l-46 26.6v53.1l46 26.6 46-26.6V37.4l-46-26.5z" opacity=".13"/><path class="st4" d="M55.4 79.7l-3.6 4.6.2-.2.4 28.6 2.6 1.5zm-8.3 10.7l.3 19.4 3.6 2.1-1-.6.3-25.1zm18.5-23.7l-4.5 5.8.7-.9.6 38.8 2.6-1.5zm5.1-6.5L66.2 66l.6-.7.5 42.2 2.8-1.5zm6.6 41.6l-1 .6 8.9-5.1.9-65.9.1.1-9.7-5.6-.3.5 1.1 75.4zm3.8-73.4L82.2 99l-2.1 1.2 1-71.8zM60 111.8l.5-38.6-4.2 5.5.6-.9.5 35.5 4.5-2.6zm-13.8-2.7l-1.2-.7.3-15.7-3.1 4 .1 10.1-2.2-1.3.1-6.3-2.9 3.7v1l-.6-.3zm45.1-74.8l.8 58.9-1.9 1.1.9-60.1-4.8-2.8.9 64.7 8.1-4.7L96 37l.4.2.7 53.2-.6.3 2.6-1.5V38.8zM65.8 54.6l.2-12.5-8.1 12.5h8.4-.5zm-5 0l.1-4.7.7-1 .1 5.7h-.9zm10.3-20.4l-5 7.6.3-.4.2 13.2h4.2z"/><path class="st4" d="M75.1 103.1l1.1-76.8-4.9 7.5.3 20.8h3.5l-4 5.2.6-.8.6 45.7-2.2 1.2z"/><path class="st3" d="M19.6 93.7l-.8-59 1.4-.8-4.6 2.7-.7 54.4-.2-.1zm5.2 3l4.9 2.8-1-70.5.3-.2-8.3 4.9-.9 60.2 4.8 2.7-.9-64.7 2-1.2zm36-75.9l1.8-3.1-6.7-3.8-.2 15.9-2 3.5-.2-18.6-2.6 1.5-.3 22.7-1.5 2.6 11.3-19.8-1.8 3-.1-9.4 2.4 1.4zM45.5 47.9l3.4-6-.4-24.3-2.6 1.5zM13.8 37.6l-2 1.2v50.4l2.7 1.6zm26.1 47.1l4.4-7.8-.1-11.9h1l-.1 10.6 4.1-7.3V65h1v1.6l.9-1.6H40.2z"/><path class="st3" d="M39.2 65h-3.4l3.3-5.8-.5-35.9 2.2-1.3-.5 35-1 1.8 4.7-8.2-.4-30.2-9 5.2 1.2-.7-1 68.9-.2.5-1-68.1-2.9 1.6-1 71.8 1.4.8 8.4-14.8z"/></svg>