<svg id="Layer_1" xmlns="http://www.w3.org/2000/svg" viewBox="0 0 110.9 128"><style>.st3{fill:#df9079}.st4{fill:#e6d9a5}</style><path fill="#766a68" d="M55.4 128l55.5-32V32L55.4 0 0 32v64z"/><path d="M101.4 37.4v53.1l-46 26.6-46-26.6V37.4l46-26.6 46 26.6zm9.5 58.6V32L55.4 0 0 32v64l55.4 32 55.5-32z" opacity=".38" fill="#df9079"/><path class="st3" d="M99.1 38.8v50.4l-43.7 25.2-43.6-25.2V38.8l43.7-25.2 43.6 25.2zm-43.7 78.3l46-26.6V37.4l-46-26.6-46 26.6v53.1l46 26.6z" opacity=".13"/><path class="st4" d="M74.5 44.5l.2 30.8 3.3 2-.1-38.9-21.1 12.3 3.5 2z"/><path class="st4" d="M72.9 51v-3.9l-11.1 6.5 3.4 1.9z"/><path class="st3" d="M57.6 63.6L31.2 48.1l.1 41.5-4-2.1V41.8l33.8 19.8z"/><path class="st3" d="M45.7 72.4L37.9 77v3.9l11.2-6.5v-.1z"/><path class="st3" d="M50.6 75.2l-14.3 8.3-.1-30.8-3.4-2 .1 38.9 21.2-12.4z"/><path class="st4" d="M44.3 57.9l-5.9 3.5v4.1l9.4-5.5zm34.8 31.7l3.6-2.1-28.2-16.6-7.8-4.5 6-3.5-3.4-2-10.1 5.8 11.1 6.4z"/><path class="st4" d="M83.6 86.2V40.5l-4-2.1v41.5L60.8 68.8l-7.6-4.4-3.4 2 6 3.5z"/><path class="st3" d="M66 70.3l6.4-3.7v-4.1l-9.9 5.8zm-5.2-3l.2.1 10.6-6.1-39.8-22.9-3.7 2.1 36 21.1-6.4 3.8z"/></svg>