<?xml version="1.0" encoding="utf-8"?>
<!-- Generator: Adobe Illustrator 22.1.0, SVG Export Plug-In . SVG Version: 6.00 Build 0)  -->
<svg version="1.1" id="Layer_1" xmlns="http://www.w3.org/2000/svg" xmlns:xlink="http://www.w3.org/1999/xlink" x="0px" y="0px"
	 viewBox="0 0 110.9 128" style="enable-background:new 0 0 110.9 128;" xml:space="preserve">
<style type="text/css">
	.st0{fill:#766A68;}
	.st1{opacity:0.38;fill:#DF9079;}
	.st2{opacity:0.13;}
	.st3{fill:#DF9079;}
	.st4{fill:#E6D9A5;}
	.st5{fill:none;stroke:#DF9079;stroke-width:3;stroke-miterlimit:10;}
</style>
<g>
	<polygon class="st0" points="55.4,128 110.9,96 110.9,32 55.4,0 55.4,0 0,32 0,96 	"/>
	<path class="st1" d="M101.4,37.4l0,53.1l-46,26.6l-46-26.6l0-53.1l46-26.6L101.4,37.4z M110.9,96l0-64L55.4,0l0,0L0,32l0,64
		l55.4,32L110.9,96z"/>
	<g class="st2">
		<path class="st3" d="M99.1,38.8l0,50.4l-43.7,25.2L11.8,89.2l0-50.4l43.7-25.2L99.1,38.8z M55.4,117.1l46-26.6l0-53.1l-46-26.6
			l-46,26.6l0,53.1L55.4,117.1z"/>
	</g>
	<g>
		<polygon class="st3" points="52.5,46 27.7,88.2 84.8,88.2 87.5,83.2 35.5,83.3 54.9,50.3 		"/>
		<polygon class="st3" points="26,87.2 52.5,42.1 71.7,74.9 76.5,74.9 52,32.7 23.4,82.6 		"/>
		<polygon class="st4" points="87.4,81.2 58.7,31.8 53.6,31.8 79.9,76.9 41.3,77.1 38.7,81.3 		"/>
	</g>
</g>
</svg>
