<?xml version="1.0" encoding="UTF-8"?>
<svg width="57px" height="55px" viewBox="0 0 57 55" version="1.1" xmlns="http://www.w3.org/2000/svg" xmlns:xlink="http://www.w3.org/1999/xlink">
    <!-- Generator: Sketch 61 (89581) - https://sketch.com -->
    <title>Group 3</title>
    <desc>Created with Sketch.</desc>
    <defs>
        <linearGradient x1="-0.0138669405%" y1="50.0155727%" x2="100.072455%" y2="50.0155727%" id="linearGradient-1">
            <stop stop-color="#FF6D96" offset="0%"></stop>
            <stop stop-color="#FD8073" offset="100%"></stop>
        </linearGradient>
        <radialGradient cx="64.1765807%" cy="49.9843872%" fx="64.1765807%" fy="49.9843872%" r="69.2590328%" id="radialGradient-2">
            <stop stop-color="#FFFFFF" offset="0%"></stop>
            <stop stop-color="#F1F2F2" offset="100%"></stop>
        </radialGradient>
    </defs>
    <g id="Page-1" stroke="none" stroke-width="1" fill="none" fill-rule="evenodd">
        <g id="Group-3" transform="translate(-1.000000, 0.000000)">
            <g id="Group-2" transform="translate(14.000000, 0.000000)">
                <path d="M23.4096115,38 L8.59038853,38 C6.60844843,37.9967627 5.00280146,36.4828129 5,34.6146555 L5,31 L27,31 L27,34.6146555 C26.9971592,36.4827975 25.3915352,37.9967256 23.4096115,38 Z M6,31 L6,33.6277621 C6.00139743,34.9368194 6.99017592,35.9978334 8.21073218,36 L22.7881397,36 C24.0090883,35.9983751 24.9984849,34.9372392 25,33.6277621 L25,31 L6,31 Z" id="Shape-3" fill="#FFFFFF" fill-rule="nonzero"></path>
                <path d="M15.5015926,14.4246563 C15.6839895,14.1582466 15.8297333,13.9161298 16.0066582,13.6918819 C17.027341,12.3673216 18.9181377,11.7322179 20.7281315,12.1059762 C22.4406786,12.4389442 23.7237144,13.6491237 23.9359712,15.131661 C24.1635426,16.3930981 23.7789669,17.6790314 22.8703392,18.6948909 C22.04192,19.6188427 21.0903855,20.4580992 20.0347628,21.1958785 C18.4727056,22.3229918 17.0207833,23.5559813 15.693283,24.8827142 C15.544673,25.0430917 15.4613785,25.035191 15.318414,24.8822712 C13.7655938,23.3594397 12.0748753,21.9423286 10.2617649,20.6439349 C9.304898,19.9578534 8.47808923,19.1505314 7.81043781,18.2503825 C6.82997732,16.9465363 6.73251885,15.2993994 7.55412678,13.9184926 C8.35579002,12.561506 10.1012853,11.8044108 11.8641648,12.0490467 C13.6515672,12.2969229 14.3686475,12.7599648 15.5015926,14.4246563 Z" id="Path" fill="url(#linearGradient-1)" fill-rule="nonzero"></path>
                <path d="M11.4683065,12.0002817 C11.64851,12.0002517 11.8284199,12.0141374 12.0062707,12.0418025 C13.478108,12.2706783 14.0686454,12.6982267 15.0016603,14.2353148 C15.1518696,13.989258 15.2718941,13.7658365 15.4175256,13.5587097 C16.0833179,12.583956 17.2229066,11.9982175 18.4431717,12.0035543 C18.7332167,12.0040624 19.0223509,12.0345112 19.3055166,12.0943683 C20.7158513,12.4018133 21.7724704,13.519229 21.9472704,14.8881255 C22.1346823,16.0528698 21.8179725,17.2402326 21.06969,18.1782235 C20.3874443,19.0313581 19.6038287,19.806304 18.7345064,20.4875714 C17.4480886,21.5282468 16.2523848,22.6667028 15.1591655,23.8917323 C15.0987957,23.9647516 15.0515155,24 15.0049506,24 C14.9570981,24 14.9101041,23.9628426 14.8504495,23.8913232 C13.5716547,22.4852211 12.1792965,21.1767357 10.6861448,19.9778677 C9.89813558,19.3443959 9.21725406,18.5989538 8.66747384,17.7677879 C7.85996363,16.563907 7.77970169,15.0429915 8.4563939,13.76795 C9.02706988,12.681875 10.193383,11.9971391 11.4677343,12 M11.9367588,11 L11.9367588,11 C10.10219,11 8.42514672,11.9985006 7.60525626,13.5789559 C6.71449231,15.2927641 6.81225104,17.3291602 7.86341,18.9565144 C8.4894795,19.9269207 9.26852312,20.7976114 10.172588,21.5373453 C10.4628307,21.7942826 10.7559578,22.0484422 11.0490849,22.3026018 C12.1914689,23.2370252 13.2512832,24.2612121 14.2175976,25.3645998 C14.5151171,25.7641927 14.9946972,26.0008383 15.5052796,26 C16.0158619,25.9991572 16.494599,25.760934 16.7906982,25.3603638 C17.6736716,24.3440912 18.6427981,23.4002227 19.6880773,22.538498 L20.2365459,22.0575391 L20.5833228,21.7542143 C21.4181237,21.0803649 22.1649865,20.3115097 22.8075552,19.4644864 C23.7811224,18.2138521 24.1835416,16.6352098 23.922015,15.0925943 C23.6529598,13.1390505 22.1451881,11.5554854 20.14749,11.1283298 C19.7603368,11.0458939 19.3650673,11.0039852 18.9685639,11.0033332 C17.6816855,10.9956808 16.4409464,11.4644739 15.5028138,12.3128106 C14.7475762,11.6013245 13.7627187,11.1594869 12.71122,11.060415 C12.455196,11.0202663 12.1962272,11 11.9368309,11 L11.9367588,11 Z" id="Shape" fill="#FFFFFF" fill-rule="nonzero"></path>
                <path d="M26.5628199,33 L5.43718007,33 L2,18.7886815 L2,18.7018462 C2,10.5822407 8.26801364,4 16,4 C23.7319864,4 30,10.5822407 30,18.7018462 L30,18.7886815 L29.9798334,18.8719995 L26.5628199,33 Z M6.09962674,31 L24.9002358,31 L28,18.114984 C27.9544327,10.8577522 22.3713605,5 15.5,5 C8.62863953,5 3.04556732,10.8577522 3,18.114984 L6.09962674,31 Z" id="Shape-4" fill="#FFFFFF" fill-rule="nonzero"></path>
                <path d="M2.49957265,19 C2.22382135,18.999517 2.00035322,18.6661387 2,18.2547185 L2,3.74599877 C2,3.33399503 2.22385763,3 2.5,3 C2.77614237,3 3,3.33399503 3,3.74599877 L3,18.2545591 C2.9995579,18.6664223 2.77562113,19 2.49957265,19" id="Shape-5" fill="#FFFFFF" fill-rule="nonzero"></path>
                <path d="M29.5000535,19 C29.2239531,19 29.0001369,18.6847321 29.0001074,18.2958679 L29.0001074,0.718770518 C28.9963622,0.463763927 29.0908137,0.225838048 29.2470211,0.0967877349 C29.4032284,-0.0322625783 29.5967716,-0.0322625783 29.7529789,0.0967877349 C29.9091863,0.225838048 30.0036378,0.463763927 29.9998926,0.718770518 L29.9998926,18.2957173 C29.9995391,18.6844217 29.77588,18.9993931 29.4998931,19" id="Shape-6" fill="#FFFFFF" fill-rule="nonzero"></path>
                <path d="M2.58330741,22 L1.70516866,22 C0.763132693,21.9973644 0.000389986717,20.970035 0,19.7033279 L0,15.2957159 C0.000439737428,14.0291916 0.763267946,13.0021748 1.70516866,13 L2.07808542,13 C2.30423119,13.0062899 2.48511617,13.2545991 2.48511617,13.5587501 C2.48511617,13.8629011 2.30423119,14.1112103 2.07808542,14.1175002 L1.70516866,14.1175002 C1.22221951,14.1193114 0.831377057,14.6461387 0.831207502,15.2955366 L0.831207502,19.7031487 C0.831256378,20.3522939 1.22240576,20.8786524 1.70516866,20.879213 L2.58330741,20.879213 C2.81344037,20.879213 3,21.1300696 3,21.4395169 C3,21.7489641 2.81344037,21.9998207 2.58330741,21.9998207" id="Shape-7" fill="#FFFFFF" fill-rule="nonzero"></path>
                <path d="M30.293226,21.9998207 L29.4163903,21.9998207 C29.1864243,21.9998207 29,21.7489641 29,21.4395169 C29,21.1300696 29.1864243,20.879213 29.4163903,20.879213 L30.293226,20.879213 C30.7761568,20.8792139 31.1678764,20.3529899 31.1686849,19.7031487 L31.1686849,15.2955366 C31.1677563,14.6454434 30.7763434,14.1187497 30.293226,14.1175002 L29.9220452,14.1175002 C29.6960635,14.1112103 29.5153097,13.8629011 29.5153097,13.5587501 C29.5153097,13.2545991 29.6960635,13.0062899 29.9220452,13 L30.293226,13 C31.2350975,13.0015464 31.9984586,14.028314 32,15.2957159 L32,19.7033279 C31.998484,20.9708989 31.2352226,21.99796 30.293226,22" id="Shape-8" fill="#FFFFFF" fill-rule="nonzero"></path>
                <path d="M2.66270195,15 C2.48994672,15.0003687 2.32400231,14.933678 2.20083228,14.8143796 C2.07463714,14.693455 2.00241244,14.5280957 2,14.3547077 C1.99770624,14.1813197 2.06541766,14.0141184 2.1882861,13.8899154 C9.66811787,6.26966191 21.986161,6.0097517 29.790528,13.3075092 C30.0578842,13.554793 30.0710702,13.9687054 29.8199796,14.2320083 C29.5688891,14.4953113 29.1486049,14.5082973 28.8812486,14.2610135 C21.6050313,7.44791964 10.1109639,7.69002793 3.13718869,14.8032802 C3.01251191,14.9292978 2.84135627,15.0002575 2.66270195,15" id="Shape-9" fill="#FFFFFF" fill-rule="nonzero"></path>
                <path d="M28.29582,24.9996249 L3.70417997,24.9996249 C3.45589474,25.0067078 3.2222469,24.9130593 3.09524867,24.7555588 C2.96825044,24.5980583 2.96825044,24.4019417 3.09524867,24.2444412 C3.2222469,24.0869407 3.45589474,23.9932922 3.70417997,24.0003751 L28.29582,24.0003751 C28.5441053,23.9932922 28.7777531,24.0869407 28.9047513,24.2444412 C29.0317496,24.4019417 29.0317496,24.5980583 28.9047513,24.7555588 C28.7777531,24.9130593 28.5441053,25.0067078 28.29582,24.9996249" id="Shape-10" fill="#FFFFFF" fill-rule="nonzero"></path>
                <path d="M20,13.4995954 C20.0001547,14.1062857 19.6348295,14.6533294 19.0743775,14.8856368 C18.5139256,15.1179442 17.8687206,14.9897653 17.4396254,14.5608709 C17.0105303,14.1319764 16.8820497,13.4868313 17.1140948,12.9262708 C17.34614,12.3657102 17.8930127,12.000129 18.499703,12 C19.3279619,12.0001407 19.9994718,12.6713366 20,13.4995954" id="Shape-11" fill="url(#radialGradient-2)" fill-rule="nonzero"></path>
                <path d="M22,16.000106 C21.99994,16.5523765 21.5521995,17.0000387 20.999929,17 C20.4476584,16.9999613 20,16.5522365 20,15.9999659 C20,15.4476953 20.4477285,15 21,15 C21.2653874,14.9994984 21.5200496,15.104708 21.707698,15.2923761 C21.8953465,15.4800443 22.0005293,15.7347176 22,16.000106" id="Shape-12" fill="#FFFFFF" fill-rule="nonzero"></path>
                <path d="M10,27.5046792 C11.224917,29.1652742 13.1353013,30.0929575 15.1234345,29.9926205 C17.1115676,29.8922836 18.9299015,28.7764197 20,27" id="Path" stroke="#FFFFFF" stroke-width="0.4" stroke-linecap="round" stroke-linejoin="round"></path>
            </g>
            <g id="Group" transform="translate(0.000000, 38.000000)" fill="#FFFFFF" font-family="Muli" font-size="14" font-weight="normal">
                <text id="Bounties">
                    <tspan x="0" y="16">Bounties</tspan>
                </text>
            </g>
        </g>
    </g>
</svg>