<?xml version="1.0" encoding="UTF-8"?>
<svg width="94px" height="23px" viewBox="0 0 94 23" version="1.1" xmlns="http://www.w3.org/2000/svg" xmlns:xlink="http://www.w3.org/1999/xlink">
    <!-- Generator: Sketch 61 (89581) - https://sketch.com -->
    <title>Group</title>
    <desc>Created with Sketch.</desc>
    <defs>
        <linearGradient x1="-0.0138669405%" y1="50.0155727%" x2="100.072455%" y2="50.0155727%" id="linearGradient-1">
            <stop stop-color="#FF6D96" offset="0%"></stop>
            <stop stop-color="#FD8073" offset="100%"></stop>
        </linearGradient>
        <radialGradient cx="64.1765807%" cy="49.9843872%" fx="64.1765807%" fy="49.9843872%" r="69.2590328%" id="radialGradient-2">
            <stop stop-color="#FFFFFF" offset="0%"></stop>
            <stop stop-color="#F1F2F2" offset="100%"></stop>
        </radialGradient>
    </defs>
    <g id="Page-1" stroke="none" stroke-width="1" fill="none" fill-rule="evenodd">
        <g id="Group">
            <path d="M24.988,20.867 L25.897,20.867 C26.561,20.867 27.049,20.736 27.36,20.474 C27.69,20.191 27.853,19.832 27.853,19.396 C27.853,18.973 27.694,18.619 27.379,18.332 C27.073,18.048 26.524,17.906 25.733,17.906 L24.988,17.906 L24.988,20.867 Z M24.988,16.67 L25.448,16.67 C25.996,16.67 26.396,16.549 26.651,16.306 C26.905,16.063 27.032,15.705 27.032,15.231 C27.032,14.771 26.902,14.421 26.642,14.181 C26.38,13.943 26.002,13.824 25.506,13.824 L24.988,13.824 L24.988,16.67 Z M23.518,22.255 L23.518,12.467 L24.982,12.467 C25.634,12.467 26.152,12.519 26.541,12.619 C26.931,12.721 27.261,12.892 27.531,13.133 C27.805,13.383 28.021,13.693 28.181,14.065 C28.345,14.441 28.427,14.822 28.427,15.206 C28.427,15.908 28.16,16.501 27.626,16.987 C28.143,17.164 28.551,17.475 28.85,17.92 C29.153,18.359 29.304,18.87 29.304,19.453 C29.304,20.218 29.036,20.865 28.497,21.393 C28.1940265,21.7050299 27.8190379,21.9378525 27.405,22.071 C26.963,22.194 26.41,22.255 25.745,22.255 L23.518,22.255 Z M33.156,17.336 C33.156,18.418 33.518,19.307 34.242,20.004 C34.962,20.702 35.792,21.05 36.734,21.05 C37.756,21.05 38.619,20.696 39.321,19.986 C40.024,19.267 40.375,18.393 40.375,17.361 C40.375,16.318 40.028,15.442 39.334,14.737 C38.644,14.027 37.79,13.672 36.772,13.672 C35.758,13.672 34.902,14.027 34.203,14.737 C33.506,15.439 33.156,16.305 33.156,17.336 M31.674,17.317 C31.674,15.939 32.176,14.756 33.181,13.767 C34.183,12.778 35.385,12.283 36.791,12.283 C38.178,12.283 39.37,12.782 40.362,13.779 C41.359,14.777 41.857,15.975 41.857,17.374 C41.857,18.781 41.357,19.976 40.356,20.956 C39.351,21.94 38.137,22.433 36.716,22.433 C35.456,22.433 34.328,21.995 33.326,21.12 C32.225,20.153 31.674,18.885 31.674,17.317 M46.177,12.467 L46.177,18.363 C46.177,19.203 46.313,19.818 46.587,20.208 C46.995,20.77 47.569,21.051 48.309,21.051 C49.054,21.051 49.629,20.77 50.039,20.208 C50.312,19.832 50.449,19.216 50.449,18.363 L50.449,12.467 L51.919,12.467 L51.919,18.768 C51.919,19.8 51.599,20.649 50.96,21.317 C50.24,22.06 49.357,22.433 48.31,22.433 C47.262,22.433 46.38,22.06 45.666,21.317 C45.026,20.649 44.706,19.8 44.706,18.768 L44.706,12.468 L46.177,12.468 L46.177,12.467 Z M55.254,22.255 L55.254,11.802 L62.359,19.27 L62.359,12.468 L63.829,12.468 L63.829,22.85 L56.725,15.402 L56.725,22.254 L55.254,22.255 Z M69.851,13.856 L69.851,22.256 L68.381,22.256 L68.381,13.856 L66.141,13.856 L66.141,12.468 L72.086,12.468 L72.086,13.856 L69.851,13.856 Z M74.398,22.255 L75.868,22.255 L75.868,12.468 L74.398,12.468 L74.398,22.255 Z M84.585,13.856 L80.68,13.856 L80.68,16.207 L84.472,16.207 L84.472,17.596 L80.68,17.596 L80.68,20.867 L84.585,20.867 L84.585,22.255 L79.209,22.255 L79.209,12.468 L84.585,12.468 L84.585,13.856 Z M93.024,13.925 L91.832,14.635 C91.609,14.247 91.397,13.993 91.195,13.875 C90.985,13.739 90.713,13.672 90.381,13.672 C89.973,13.672 89.634,13.788 89.365,14.02 C89.095,14.249 88.961,14.537 88.961,14.882 C88.961,15.36 89.314,15.744 90.021,16.037 L90.993,16.437 C91.783,16.757 92.363,17.149 92.728,17.612 C93.094,18.074 93.277,18.642 93.277,19.314 C93.277,20.214 92.977,20.958 92.38,21.546 C91.78,22.137 91.033,22.433 90.14,22.433 C89.295,22.433 88.597,22.181 88.045,21.678 C87.503,21.176 87.165,20.468 87.03,19.555 L88.52,19.225 C88.586,19.8 88.705,20.198 88.872,20.417 C89.176,20.84 89.617,21.051 90.198,21.051 C90.656,21.051 91.036,20.897 91.339,20.588 C91.643,20.279 91.794,19.888 91.794,19.415 C91.794,19.225 91.768,19.051 91.715,18.893 C91.6612789,18.7328268 91.5778191,18.5842277 91.469,18.455 C91.3436664,18.3098957 91.1977902,18.1838964 91.036,18.081 C90.8358739,17.9522486 90.6251063,17.8408429 90.406,17.748 L89.466,17.355 C88.132,16.789 87.466,15.96 87.466,14.87 C87.466,14.134 87.746,13.52 88.304,13.025 C88.864,12.527 89.56,12.2779986 90.394,12.2779986 C91.516,12.277 92.394,12.827 93.024,13.925" id="Shape" fill="#FEFEFE" fill-rule="nonzero"></path>
            <path d="M13.7513068,22.4463 L4.99449322,22.4463 C3.8233468,22.4444501 2.87455541,21.5793359 2.8729,20.5118174 L2.8729,18.4463 L15.8729,18.4463 L15.8729,20.5118174 C15.8712213,21.5793271 14.9224435,22.4444289 13.7513068,22.4463 Z M3.8729,18.4463 L3.8729,20.0229572 C3.87370904,20.8083916 4.44615974,21.445 5.15279758,21.4463 L13.5923493,21.4463 C14.2992143,21.445325 14.8720228,20.8086435 14.8729,20.0229572 L14.8729,18.4463 L3.8729,18.4463 Z" id="Shape-3" fill="#FFFFFF" fill-rule="nonzero"></path>
            <path d="M9.00093683,8.49209619 C9.10822911,8.32815176 9.19396075,8.1791568 9.29803425,8.04115811 C9.89843589,7.22604405 11.0106692,6.83521099 12.0753714,7.06521614 C13.0827521,7.27011951 13.8374791,8.01484535 13.962336,8.92717601 C14.0962015,9.70344499 13.8699805,10.4947885 13.3354937,11.1199329 C12.8481882,11.6885186 12.2884621,12.2049842 11.6675075,12.6590022 C10.7486504,13.3526103 9.89457839,14.1113731 9.11369591,14.9278241 C9.02627825,15.026518 8.97728144,15.021656 8.89318473,14.9275515 C7.97976106,13.9904244 6.98522075,13.1183561 5.91868521,12.3193445 C5.35582235,11.8971405 4.86946425,11.400327 4.47672812,10.8463892 C3.89998666,10.0440223 3.84265815,9.03039961 4.32595693,8.18061085 C4.79752354,7.34554212 5.82428544,6.87963739 6.8612734,7.03018256 C7.91268661,7.18272177 8.33449853,7.46767066 9.00093683,8.49209619 Z" id="Path" fill="url(#linearGradient-1)" fill-rule="nonzero"></path>
            <path d="M6.85478944,7.44646433 C6.95776287,7.4464468 7.06056852,7.45454679 7.16219753,7.4706848 C8.00324742,7.60419567 8.34069739,7.85359892 8.87384872,8.75023363 C8.95968265,8.60670049 9.02826805,8.47637129 9.11148608,8.35554732 C9.49193877,7.78694101 10.1431323,7.44526018 10.8404267,7.44837333 C11.0061667,7.44866971 11.1713862,7.46643155 11.3331952,7.50134815 C12.1391008,7.68069108 12.7428831,8.33251692 12.8427688,9.1310399 C12.9498613,9.81047407 12.7688843,10.5031023 12.3412943,11.0502637 C11.9514396,11.5479256 11.5036593,11.9999773 11.0069036,12.3973833 C10.2718078,13.004444 9.58854843,13.6685433 8.96385172,14.3831438 C8.92935466,14.4257385 8.90233741,14.4463 8.87572889,14.4463 C8.84838465,14.4463 8.82153089,14.4246249 8.78744256,14.3829052 C8.05670269,13.562679 7.26106942,12.7993958 6.4078399,12.1000561 C5.9575489,11.730531 5.56847375,11.2956897 5.25431362,10.810843 C4.79287922,10.1085791 4.74701525,9.22137837 5.13369652,8.47760418 C5.45979707,7.84406044 6.12626174,7.44463116 6.85446245,7.4463 M6.77687576,6.4463 L6.77687576,6.4463 C5.69771766,6.4463 4.7112216,7.04540035 4.22893309,7.99367355 C3.7049543,9.02195849 3.76245943,10.2437961 4.38078824,11.2202087 C4.74906441,11.8024524 5.20732537,12.3248668 5.73912825,12.7687072 C5.90985924,12.9228696 6.08228694,13.0753653 6.25471464,13.2278611 C6.92670523,13.7885151 7.5501254,14.4030272 8.11854564,15.0650599 C8.29355713,15.3048156 8.57566308,15.446803 8.87600563,15.4463 C9.17634818,15.4457943 9.45795826,15.3028604 9.63213421,15.0625183 C10.1515304,14.4527547 10.7216048,13.8864336 11.3364749,13.3693988 L11.6591034,13.0808235 L11.8630899,12.8988286 C12.3541492,12.4945189 12.7934803,12.0332058 13.1714619,11.5249918 C13.7441485,10.7746113 13.9808657,9.82742588 13.8270265,8.90185658 C13.6687587,7.72973031 12.7818342,6.77959126 11.6067177,6.52329785 C11.3789805,6.47383635 11.146469,6.44869111 10.9132317,6.44829994 C10.1562444,6.44370849 9.42639789,6.72498436 8.8745552,7.23398639 C8.43029778,6.80709471 7.85096983,6.54199211 7.23244119,6.48254899 C7.08183881,6.45845976 6.92950423,6.4463 6.77691818,6.4463 L6.77687576,6.4463 Z" id="Shape" fill="#FFFFFF" fill-rule="nonzero"></path>
            <path d="M15.7860407,19.4463 L2.95975933,19.4463 L0.8729,11.1155271 L0.8729,11.0646236 C0.8729,6.30485488 4.67847971,2.4463 9.3729,2.4463 C14.0673203,2.4463 17.8729,6.30485488 17.8729,11.0646236 L17.8729,11.1155271 L17.860656,11.1643687 L15.7860407,19.4463 Z M3.73267604,18.4463 L15.0130415,18.4463 L16.8729,11.0126369 C16.8455596,6.82577244 13.4957163,3.4463 9.3729,3.4463 C5.25008372,3.4463 1.90024039,6.82577244 1.8729,11.0126369 L3.73267604,18.4463 Z" id="Shape-4" fill="#FFFFFF" fill-rule="nonzero"></path>
            <path d="M1.49957265,11 C1.22382135,10.9997283 1.00035322,10.812203 1,10.5807792 L1,2.41962431 C1,2.1878722 1.22385763,2 1.5,2 C1.77614237,2 2,2.1878722 2,2.41962431 L2,10.5806895 C1.9995579,10.8123625 1.77562113,11 1.49957265,11" id="Shape-5" fill="#FFFFFF" fill-rule="nonzero"></path>
            <path d="M17.5000535,11 C17.2239531,11 17.0001369,10.8174765 17.0001074,10.5923446 L17.0001074,0.4161303 C16.9963622,0.268494905 17.0908137,0.130748344 17.2470211,0.0560350044 C17.4032284,-0.0186783348 17.5967716,-0.0186783348 17.7529789,0.0560350044 C17.9091863,0.130748344 18.0036378,0.268494905 17.9998926,0.4161303 L17.9998926,10.5922574 C17.9995391,10.8172968 17.77588,10.9996486 17.4998931,11" id="Shape-6" fill="#FFFFFF" fill-rule="nonzero"></path>
            <path d="M1.72220494,13 L1.13677911,13 C0.508755128,12.9985358 0.000259991145,12.4277972 0,11.7240711 L0,9.27539773 C0.000293158286,8.5717731 0.508845297,8.00120821 1.13677911,8 L1.38539028,8 C1.53615413,8.00349439 1.65674411,8.14144397 1.65674411,8.31041672 C1.65674411,8.47938948 1.53615413,8.61733906 1.38539028,8.62083344 L1.13677911,8.62083344 C0.814813008,8.62183964 0.554251371,8.91452152 0.554138335,9.27529813 L0.554138335,11.7239715 C0.554170919,12.0846077 0.814937171,12.3770291 1.13677911,12.3773406 L1.72220494,12.3773406 C1.87562691,12.3773406 2,12.5167053 2,12.6886205 C2,12.8605356 1.87562691,12.9999004 1.72220494,12.9999004" id="Shape-7" fill="#FFFFFF" fill-rule="nonzero"></path>
            <path d="M17.8621506,12.9999004 L17.2775936,12.9999004 C17.1242829,12.9999004 17,12.8605356 17,12.6886205 C17,12.5167053 17.1242829,12.3773406 17.2775936,12.3773406 L17.8621506,12.3773406 C18.1841045,12.3773411 18.445251,12.0849944 18.4457899,11.7239715 L18.4457899,9.27529813 C18.4451708,8.9141352 18.1842289,8.62152764 17.8621506,8.62083344 L17.6146968,8.62083344 C17.4640423,8.61733906 17.3435398,8.47938948 17.3435398,8.31041672 C17.3435398,8.14144397 17.4640423,8.00349439 17.6146968,8 L17.8621506,8 C18.490065,8.00085909 18.9989724,8.57128553 19,9.27539773 L19,11.7240711 C18.9989893,12.4282772 18.4901484,12.9988667 17.8621506,13" id="Shape-8" fill="#FFFFFF" fill-rule="nonzero"></path>
            <path d="M1.40235476,9 C1.29746765,9.00021067 1.19671569,8.9621017 1.12193388,8.89393121 C1.04531541,8.8248314 1.0014647,8.73034039 1,8.63126153 C0.998607361,8.53218267 1.03971786,8.43663911 1.11431656,8.36566593 C5.65564299,4.01123538 13.1344549,3.86271526 17.8728206,8.03286239 C18.035144,8.17416744 18.0431497,8.4106888 17.8907019,8.56114762 C17.7382541,8.71160644 17.4830815,8.71902703 17.3207581,8.57772198 C12.9030547,4.68452551 5.92451377,4.8228731 1.69043599,8.88758868 C1.61473937,8.95959874 1.51082345,9.00014715 1.40235476,9" id="Shape-9" fill="#FFFFFF" fill-rule="nonzero"></path>
            <path d="M16.5937423,14.9996249 L2.40625767,14.9996249 C2.2630162,15.0067078 2.12821937,14.9130593 2.05495116,14.7555588 C1.98168295,14.5980583 1.98168295,14.4019417 2.05495116,14.2444412 C2.12821937,14.0869407 2.2630162,13.9932922 2.40625767,14.0003751 L16.5937423,14.0003751 C16.7369838,13.9932922 16.8717806,14.0869407 16.9450488,14.2444412 C17.0183171,14.4019417 17.0183171,14.5980583 16.9450488,14.7555588 C16.8717806,14.9130593 16.7369838,15.0067078 16.5937423,14.9996249" id="Shape-10" fill="#FFFFFF" fill-rule="nonzero"></path>
            <path d="M12,7.99973027 C12.0001032,8.40419047 11.756553,8.76888628 11.3829184,8.92375787 C11.0092837,9.07862945 10.579147,8.9931769 10.2930836,8.70724724 C10.0070202,8.42131758 9.92136644,7.9912209 10.0760632,7.61751384 C10.23076,7.24380677 10.5953418,7.00008601 10.999802,7 C11.5519746,7.00009378 11.9996479,7.44755773 12,7.99973027" id="Shape-11" fill="url(#radialGradient-2)" fill-rule="nonzero"></path>
            <path d="M13,9.50005298 C12.99997,9.77618827 12.7760997,10.0000193 12.4999645,10 C12.2238292,9.99998066 12,9.77611823 12,9.49998294 C12,9.22384765 12.2238642,9 12.5,9 C12.6326937,8.99974921 12.7600248,9.05235398 12.853849,9.14618806 C12.9476732,9.24002215 13.0002646,9.36735878 13,9.50005298" id="Shape-12" fill="#FFFFFF" fill-rule="nonzero"></path>
            <path d="M6,16.3364528 C6.7349502,17.4435161 7.88118081,18.0619716 9.07406068,17.9950803 C10.2669406,17.9281891 11.3579409,17.1842798 12,16" id="Path" stroke="#FFFFFF" stroke-width="0.4" stroke-linecap="round" stroke-linejoin="round"></path>
        </g>
    </g>
</svg>