<?xml version="1.0" encoding="UTF-8"?>
<svg width="55px" height="55px" viewBox="0 0 55 55" version="1.1" xmlns="http://www.w3.org/2000/svg" xmlns:xlink="http://www.w3.org/1999/xlink">
    <!-- Generator: Sketch 60 (88103) - https://sketch.com -->
    <title>codefund_symbol_dark</title>
    <desc>Created with Sketch.</desc>
    <g id="codefund_symbol_dark" stroke="none" stroke-width="1" fill="none" fill-rule="evenodd">
        <g id="codefund-symbol" transform="translate(11.000000, 11.000000)" fill-rule="nonzero">
            <path d="M29,15.4736544 C28.1659526,14.9842345 27.5744081,14.3610601 27.2243517,13.6051444 C26.87531,12.8492288 26.7018038,11.8318839 26.7018038,10.554123 L26.7018038,5.98417716 C26.7018038,5.40964073 26.6388952,4.93643349 26.5151071,4.56354212 C26.4071472,4.21518292 26.2019399,3.90479803 25.9235626,3.6688055 C25.653664,3.44588132 25.2904171,3.29895401 24.8419391,3.20573117 C24.1343868,3.06719318 23.4149334,2.99829726 22.6939121,3 L20,3 C20.7210225,2.99827119 21.4404785,3.06716735 22.1480271,3.20573117 C22.5965051,3.29895401 22.959752,3.44486803 23.2296505,3.6688055 C23.499549,3.89172969 23.6963923,4.19065076 23.821195,4.56354212 C23.9449831,4.93643349 24.0068771,5.40964073 24.0068771,5.98519045 L24.0068771,10.6047875 C24.0068771,11.8622826 24.0322435,12.9860232 24.3822999,13.7520717 C24.7252537,14.5059608 25.2366404,15.01362 26.0483653,15.5 C25.2366404,15.98638 24.7252537,16.5193715 24.3812852,17.2732606 C24.0322435,18.0393091 24.0068771,19.1377174 24.0068771,20.3941992 L24.0068771,25.0158228 C24.0068771,25.5903593 23.9449831,26.0635665 23.821195,26.4364579 C23.7133379,26.7848656 23.5081129,27.0952773 23.2296505,27.3311945 C22.9587373,27.5541187 22.5965051,27.701046 22.1480271,27.7942688 C21.4404785,27.9328326 20.7210225,28.0017288 20,28 L22.6939121,28 C23.4149334,28.0017027 24.1343868,27.9328068 24.8419391,27.7942688 C25.2904171,27.701046 25.653664,27.555132 25.9235626,27.3311945 C26.1944758,27.1082703 26.3903044,26.8093492 26.5151071,26.4364579 C26.6388952,26.0635665 26.7018038,25.5903593 26.7018038,25.0148096 L26.7018038,20.445877 C26.7018038,19.1691294 26.87531,18.1507712 27.2253664,17.3958689 C27.5744081,16.6389399 28.1659526,16.0157655 29,15.5263456 L28.9594138,15.5 L29,15.4736544 Z" id="Path" fill="#0FCE7C"></path>
            <g id="Group" fill="#000000">
                <path d="M26.4113438,18.162375 C26.0730938,18.9564375 25.9039688,20.0031562 25.9039688,21.3035625 L25.9039688,26.065875 C25.9039688,27.2342812 25.653375,28.0221562 25.1511563,28.4305312 C24.9681534,28.5720051 24.7633533,28.6827643 24.5447813,28.7584687 C24.2034375,28.8853125 23.7837188,28.969875 23.2835625,29.011125 C22.86075,29.01525 18.9729375,29.5185 18.3387188,24.9871875 L21.9429375,24.9871875 C21.7985625,22.0739062 19.5009375,21.90375 19.2080625,21.8934375 L17.8849688,21.8934375 C15.0119063,21.8934375 13.7207813,19.7195625 13.1412188,17.7570937 L21.6954375,17.7570937 C21.6954375,16.0483125 20.3424375,14.5890938 19.045125,14.6633438 L13.435125,14.6633438 C10.605375,14.6324063 9.32765625,12.4770938 8.75221875,10.5280313 L21.2901563,10.5280313 C21.2901563,8.82028125 20.1248438,7.4353125 18.4335938,7.4353125 L8.90071875,7.4353125 C6.02765625,7.4353125 5.1500625,5.26246875 4.56946875,3.29995945 L22.023375,3.29995945 C22.7222334,3.2980108 23.4193789,3.36921158 24.1034063,3.5124375 C24.26325,3.54853125 24.407625,3.5949375 24.5447813,3.6465 C24.7799063,3.73415625 24.985125,3.84553125 25.1511563,3.99196875 C25.4130938,4.224 25.6049063,4.533375 25.7245313,4.91803125 C25.8441563,5.30371875 25.9039688,5.79459375 25.9039688,6.389625 L25.9039688,11.1189375 C25.9039688,12.441 26.0730938,13.4949375 26.4113438,14.276625 C26.7495938,15.060375 27.3229688,15.703875 28.1304375,16.21125 C27.3229688,16.718625 26.7495938,17.3683125 26.4113438,18.162375 M30.3084375,13.715625 C29.8392187,13.0865625 29.605125,12.3440625 29.605125,11.4829687 L29.605125,6.62165625 C29.605125,5.58525 29.506125,4.665375 29.3101875,3.85996875 C29.11425,3.05559375 28.763625,2.38321875 28.2624375,1.84284375 C27.7602187,1.30246875 27.0620625,0.895125 26.1669375,0.61875 C25.6375242,0.462639225 25.0948569,0.355624667 24.5458125,0.2990625 C23.942332,0.234235054 23.335695,0.203249056 22.72875,0.206051257 L0,0.206051257 C0,0.206051257 0.804375,8.3263125 5.45325,10.527 C5.85440625,12.9256875 6.93515625,16.380375 9.84225,17.7560625 C10.275375,20.3496562 11.5066875,23.7331875 14.9799375,24.70875 C14.9733685,24.7507181 14.9699216,24.7931157 14.969625,24.8355937 C14.969625,24.8355937 15.3831563,32.1409687 22.8225937,32.1409687 C23.3972552,32.1392994 23.9716775,32.1172856 24.5447812,32.0749687 C25.0596945,32.0408165 25.5699291,31.9554895 26.0679375,31.82025 C26.9847188,31.5552187 27.7045313,31.1530312 28.2284063,30.6126562 C28.7522812,30.0722812 29.1121875,29.4060937 29.3091563,28.6120312 C29.5050938,27.8179687 29.6040938,26.8929375 29.6040938,25.834875 L29.6040938,20.9395312 C29.6040938,20.1021562 29.8381875,19.3689375 30.3074063,18.7409062 C30.776625,18.1118437 31.5139688,17.7983437 32.517375,17.7983437 L32.517375,14.6571562 C31.5129375,14.6571562 30.776625,14.342625 30.3074063,13.7145937" id="Shape"></path>
            </g>
        </g>
    </g>
</svg>