
<svg width="39px" height="58px" viewBox="0 0 39 58" version="1.1" xmlns="http://www.w3.org/2000/svg" xmlns:xlink="http://www.w3.org/1999/xlink">
    <!-- Generator: Sketch 51.2 (57519) - http://www.bohemiancoding.com/sketch -->
    <desc>Created with Sketch.</desc>
    <defs></defs>
    <g id="Page-1" stroke="none" stroke-width="1" fill="none" fill-rule="evenodd">
        <g id="logo-small">
            <g id="symbol" transform="translate(4.000000, 0.000000)">
                <path d="M27.3026733,32.7272727 L24.993407,30.676041 C26.6937492,29.0673836 27.6302307,26.9476727 27.6302307,24.7072156 C27.6302307,22.3687582 26.6222197,20.1834717 24.7920159,18.5537624 L23.5876289,17.4810822 L24.8793822,16.3636364 L25.9797744,17.4326869 L27.0323923,16.4393749 C29.4913162,18.629017 30.8453608,21.5653974 30.8453608,24.7072156 C30.8453608,27.7176407 29.5871287,30.5656999 27.3026733,32.7272727" id="Fill-10" fill="#0FCE7C"></path>
                <path d="M27.3026733,32.7272727 L24.993407,30.676041 C26.6937492,29.0673836 27.6302307,26.9476727 27.6302307,24.7072156 C27.6302307,22.3687582 26.6222197,20.1834717 24.7920159,18.5537624 L23.5876289,17.4810822 L24.8793822,16.3636364 L25.9797744,17.4326869 L27.0323923,16.4393749 C29.4913162,18.629017 30.8453608,21.5653974 30.8453608,24.7072156 C30.8453608,27.7176407 29.5871287,30.5656999 27.3026733,32.7272727 Z" id="Stroke-11" stroke="#0FCE7C" stroke-width="0.904999971"></path>
                <path d="M25.9293217,37.0751052 L16.3812588,37.0751052 C8.96302646,37.0751052 2.92782583,31.0464413 2.92782583,23.6362436 C2.92782583,16.2260459 8.96302646,10.1976221 16.3812588,10.1976221 C19.4609922,10.1976221 22.3828091,11.2245286 24.7546821,13.1160342 L18.2000634,19.1655868 C17.6381016,18.9367717 17.0244624,18.8095189 16.3812588,18.8095189 C13.7168676,18.8095189 11.5493007,20.9747382 11.5493007,23.6362436 C11.5493007,26.297749 13.7168676,28.4632084 16.3812588,28.4632084 C16.8557296,28.4632084 17.3136155,28.3933394 17.7469847,28.2656063 L25.9293217,34.4184018 L25.9293217,37.0751052 Z M16.3812588,25.5383136 C15.3313661,25.5383136 14.4771265,24.6849992 14.4771265,23.6362436 C14.4771265,22.587488 15.3313661,21.7341736 16.3812588,21.7341736 C17.4313919,21.7341736 18.2856316,22.587488 18.2856316,23.6362436 C18.2856316,24.6849992 17.4313919,25.5383136 16.3812588,25.5383136 Z M21.2134574,23.6362436 C21.2134574,22.6888101 20.9375241,21.805003 20.463534,21.058533 L24.3732307,17.4503144 L24.40616,17.4851288 L29.0309278,13.1304402 L27.964931,12.065838 C24.870776,8.9747942 20.757254,7.27272727 16.3812588,7.27272727 C7.34852797,7.27272727 0,14.6135362 0,23.6362436 C0,32.5701141 7.20527338,39.8501778 16.1154206,39.9930371 L16.1154206,40 L28.8573879,40 L28.8573879,32.9588356 L20.2678809,26.5003932 C20.8618106,25.6984601 21.2134574,24.7078086 21.2134574,23.6362436 Z" id="Fill-13" fill="#FFFFFF"></path>
                <polygon id="Fill-14" fill="#25E899" points="32.6597938 4.54554764 31.7526702 5.45454545 30.8453608 4.54554764 31.7526702 3.63636364"></polygon>
                <polygon id="Fill-15" fill="#25E899" points="23.5876289 4.54545455 22.6804124 5.45454545 21.7731959 4.54545455 22.6804124 3.63636364"></polygon>
                <path d="M27.2164948,0.90922006 C27.2164948,0.407340919 26.8102516,0 26.3091495,0 C25.8083051,0 25.4020619,0.407340919 25.4020619,0.90922006 C25.4020619,1.4110992 25.8083051,1.81818182 26.3091495,1.81818182 C26.8102516,1.81818182 27.2164948,1.4110992 27.2164948,0.90922006" id="Fill-16" fill="#25E899"></path>
                <path d="M11.793916,18.1818182 C11.2928294,18.1818182 10.8865979,17.6663327 10.8865979,17.0304813 L10.8865979,4.78770052 C10.8865979,4.15210689 11.2928294,3.63636364 11.793916,3.63636364 C12.2947994,3.63636364 12.7010309,4.15210689 12.7010309,4.78770052 L12.7010309,17.0304813 C12.7010309,17.6663327 12.2947994,18.1818182 11.793916,18.1818182" id="Fill-17" fill="#FFFFFF"></path>
                <path d="M18.1443299,10.9090909 L18.1443299,4.87246716 C18.1443299,4.18980152 17.7380984,3.63636364 17.237215,3.63636364 C16.7361284,3.63636364 16.3298969,4.18980152 16.3298969,4.87246716 L16.3298969,10.7829071 C16.8478421,10.750531 17.4817663,10.7649203 18.1443299,10.9090909" id="Fill-18" fill="#FFFFFF"></path>
            </g>
            <text id="Gitcoin" font-family="Muli-SemiBold, Muli, sans-serif" font-size="12" font-weight="500" fill="#FFFFFF">
                <tspan x="0" y="57">Gitcoin</tspan>
            </text>
        </g>
    </g>
</svg>
