<svg width="44" height="58" viewBox="0 0 39 58" xmlns="http://www.w3.org/2000/svg"><g fill="none" fill-rule="evenodd"><path d="M31.303 32.727l-2.31-2.051c1.7-1.609 2.637-3.728 2.637-5.969 0-2.338-1.008-4.524-2.838-6.153l-1.204-1.073 1.291-1.117 1.1 1.069 1.053-.994c2.46 2.19 3.813 5.126 3.813 8.268 0 3.01-1.258 5.859-3.542 8.02" fill="#0FCE7C"/><path d="M31.303 32.727l-2.31-2.051c1.7-1.609 2.637-3.728 2.637-5.969 0-2.338-1.008-4.524-2.838-6.153l-1.204-1.073 1.291-1.117 1.1 1.069 1.053-.994c2.46 2.19 3.813 5.126 3.813 8.268 0 3.01-1.258 5.859-3.542 8.02z" stroke="#0FCE7C" stroke-width=".905"/><path d="M29.93 37.075h-9.55c-7.418 0-13.453-6.029-13.453-13.439s6.035-13.438 13.453-13.438a13.36 13.36 0 0 1 8.374 2.918l-6.555 6.05a4.835 4.835 0 0 0-6.65 4.47 4.835 4.835 0 0 0 6.197 4.63l8.182 6.152v2.657zm-9.55-11.537a1.905 1.905 0 0 1-1.904-1.902 1.905 1.905 0 0 1 3.809 0 1.905 1.905 0 0 1-1.905 1.902zm4.832-1.902c0-.947-.275-1.831-.75-2.577l3.91-3.609.033.035 4.625-4.355-1.066-1.064A16.282 16.282 0 0 0 20.38 7.273C11.35 7.273 4 14.613 4 23.636c0 8.934 7.205 16.214 16.115 16.357V40h12.742v-7.041l-8.59-6.459a4.796 4.796 0 0 0 .946-2.864z" fill="#FFF"/><path fill="#25E899" d="M36.66 4.546l-.907.909-.908-.91.908-.909zm-9.072-.001l-.908.91-.907-.91.907-.909zM31.216.91A.908.908 0 1 0 29.4.907a.908.908 0 0 0 1.816.001"/><path d="M15.794 18.182c-.501 0-.907-.516-.907-1.152V4.788c0-.636.406-1.152.907-1.152.5 0 .907.516.907 1.152V17.03c0 .636-.406 1.152-.907 1.152m6.35-7.272V4.871c0-.682-.406-1.236-.907-1.236-.5 0-.907.554-.907 1.236v5.91a6.643 6.643 0 0 1 1.814.127" fill="#FFF"/><text font-family="Muli-SemiBold, Muli, sans-serif" font-size="12" font-weight="500" fill="#FFF"><tspan x="0" y="57">Gitcoin</tspan></text></g></svg>