<svg width="122" height="110" viewBox="0 0 122 110" fill="none" xmlns="http://www.w3.org/2000/svg">
<path d="M61.0102 110C59.2202 110 57.5702 109.05 56.6802 107.5L28.9302 59.4299C28.0402 57.8799 28.0402 55.9799 28.9302 54.4299C29.8202 52.8799 31.4702 51.9299 33.2602 51.9299H88.7702C90.5602 51.9299 92.2102 52.8799 93.1002 54.4299C93.9902 55.9799 93.9902 57.8799 93.1002 59.4299L65.3502 107.5C64.4502 109.05 62.8002 110 61.0102 110ZM41.9202 61.9299L61.0102 94.9999L80.1002 61.9299H41.9202Z" fill="black"/>
<path d="M116.52 110H5.51021C3.72021 110 2.0702 109.05 1.1802 107.5C0.290195 105.95 0.290195 104.05 1.1802 102.5L37.4702 39.6401C38.8502 37.2501 41.9102 36.4301 44.3002 37.8101C46.6902 39.1901 47.5102 42.2501 46.1302 44.6401L14.1702 100H107.86L75.7802 44.4401C74.4002 42.0501 75.2202 38.99 77.6102 37.61C80.0002 36.23 83.0602 37.0501 84.4402 39.4401L120.85 102.5C121.74 104.05 121.74 105.95 120.85 107.5C119.96 109.05 118.31 110 116.52 110Z" fill="black"/>
<path d="M49.4503 29.97C48.6003 29.97 47.7403 29.75 46.9503 29.3C44.5603 27.92 43.7403 24.86 45.1203 22.47L56.6503 2.5C57.5403 0.95 59.1903 0 60.9803 0C62.7703 0 64.4203 0.95 65.3103 2.5L76.7703 22.35C78.1503 24.74 77.3303 27.8 74.9403 29.18C72.5503 30.56 69.4903 29.74 68.1103 27.35L60.9903 15L53.7903 27.47C52.8603 29.08 51.1803 29.97 49.4503 29.97Z" fill="#0FCE7C"/>
</svg>
