<?xml version="1.0" encoding="UTF-8"?>
<svg width="55px" height="55px" viewBox="0 0 55 55" version="1.1" xmlns="http://www.w3.org/2000/svg" xmlns:xlink="http://www.w3.org/1999/xlink">
    <!-- Generator: Sketch 60 (88103) - https://sketch.com -->
    <title>grants_symbol_dark</title>
    <desc>Created with Sketch.</desc>
    <g id="grants_symbol_dark" stroke="none" stroke-width="1" fill="none" fill-rule="evenodd">
        <g id="grants-logo" transform="translate(11.000000, 11.000000)" fill-rule="nonzero">
            <g id="Group" transform="translate(13.000000, 8.000000)" fill="#000000">
                <path d="M4.34666667,5.96666667 C3.64537999,5.97110528 2.9712917,5.69562631 2.47383535,5.20129861 C1.97637899,4.70697091 1.69666667,4.03463406 1.69666667,3.33333333 C1.70166667,1.89166667 2.89666667,0.726666667 4.36166667,0.733304863 C5.05991772,0.730232811 5.7307774,1.00475574 6.22654799,1.49646263 C6.72231858,1.98816953 7.00235359,2.65674707 7.005,3.355 C6.99884046,4.05370352 6.71524523,4.72131433 6.2166562,5.2108381 C5.71806717,5.70036188 5.04536559,5.97166067 4.34666667,5.965 M0.178333333,9.71666667 C0.178333333,9.63666667 0.175,9.56166667 0.178333333,9.48666667 C0.217942475,8.85695338 0.479554128,8.26168352 0.916666667,7.80666667 C1.22833333,7.46666667 1.59833333,7.19833333 2.01,6.98666667 C2.81728197,6.58001062 3.71763023,6.39373167 4.62,6.44666667 C5.46666667,6.48666667 6.265,6.705 6.98666667,7.15333333 C7.53,7.48666667 7.97,7.91833333 8.25666667,8.49166667 C8.44166667,8.85666667 8.53166667,9.245 8.52833333,9.65333333 C8.52833333,9.70666667 8.51166667,9.71833333 8.46,9.71833333 L0.178333333,9.71833333 L0.178333333,9.71666667 Z" id="Shape"></path>
                <polyline id="Path" points="1.54 10.72 4.35666667 6.29 6.91 10.485"></polyline>
                <path d="M4.26,7.56333333 C4.31833333,7.55 4.31666667,7.60333333 4.33,7.62833333 C4.85166667,8.47666667 5.36833333,9.32333333 5.88666667,10.17 C6.22833333,10.7333333 6.57,11.295 6.92,11.8533333 C6.95833333,11.92 6.94833333,11.9466667 6.885,11.9833333 C6.04166667,12.4716667 5.20166667,12.9616667 4.36,13.455 C4.29833333,13.4916667 4.25166667,13.4866667 4.19166667,13.45 C3.35166667,12.9566667 2.505,12.47 1.66333333,11.9766667 C1.64166667,11.9616667 1.56,11.9583333 1.62333333,11.8933333 C1.65333333,11.9083333 1.67666667,11.8883333 1.70166667,11.8766667 L4.19333333,10.7633333 C4.26,10.7333333 4.275,10.6933333 4.275,10.6266667 L4.27333333,7.66666667 C4.27333333,7.63333333 4.28,7.59833333 4.26,7.56666667" id="Path"></path>
            </g>
            <path d="M16.9837047,16 C17.0063371,16.0307548 16.9987929,16.0615096 16.9987929,16.0938022 L16.9987929,18.8263666 C16.9987929,18.8878762 16.9837047,18.9247819 16.9082633,18.9524613 L14.0886436,19.9796718 C14.0603531,19.9904359 14.0339486,20.0088888 14,19.9950492 C14.0678972,19.8458883 14.1886033,19.7213314 14.2923352,19.5829348 L16.9327818,16.0553586 C16.9516421,16.035368 16.9705024,16.0199906 16.9837047,16" id="Path" fill="#24E899"></path>
            <path d="M17.0132768,22.6590476 L19.9948568,21 C20.0138236,21.0600313 19.97589,21.0818609 19.9531299,21.1091479 C18.9991001,22.3879971 18.0374837,23.6650271 17.0796605,24.9420572 C17.0606937,24.9638867 17.0550037,25.0166415 17,24.994812 C17.0227602,24.9475146 17.0132768,24.9002172 17.0132768,24.8492815 L17.0132768,22.6590476 Z" id="Path" fill="#000000"></path>
            <path d="M17.4688279,22.0438757 L17.4688279,23.8781231 C17.4688279,23.92078 17.4766209,23.96039 17.4579177,24 C17.2755611,23.7836685 17.1197007,23.5521024 16.9529302,23.3266301 C16.3061097,22.4536868 15.6639651,21.5807434 15.0202618,20.7062767 C15.0124688,20.6956124 15.007793,20.6834247 15,20.674284 C15.0031172,20.6666667 15.0109102,20.6590494 15.015586,20.6514321 L17.4688279,22.0438757 Z M17.4610349,21.6173065 L17.3706359,19 L20,20.1502133" id="Shape" fill="#24E899"></path>
            <path d="M16.5008319,4.03973471 C9.62974012,4.03973471 4.03969939,9.62918145 4.03969939,16.4991564 C4.03969939,23.3708185 9.62974012,28.9602653 16.5008319,28.9602653 C23.3719236,28.9602653 28.9619643,23.3708185 28.9619643,16.4991564 C28.9619643,9.62918145 23.3719236,4.03973471 16.5008319,4.03973471 M16.5008319,31 C8.50507716,31 2,24.4944441 2,16.4991564 C2,8.50386875 8.50507716,2 16.5008319,2 C24.4949228,2 31,8.50386875 31,16.4991564 C31,24.4944441 24.4949228,31 16.5008319,31" id="Shape" fill="#24E899"></path>
            <path d="M16.5,2.53163079 C8.79768699,2.53163079 2.53109042,8.79787774 2.53109042,16.5 C2.53109042,24.2021223 8.79768699,30.4683692 16.5,30.4683692 C24.202313,30.4683692 30.4689096,24.2021223 30.4689096,16.5 C30.4689096,8.79787774 24.202313,2.53163079 16.5,2.53163079 M16.5,33 C7.40162211,33 0,25.5977864 0,16.5 C0,7.40221365 7.40162211,0 16.5,0 C25.5983779,0 33,7.40053818 33,16.5 C33,25.5977864 25.5983779,33 16.5,33" id="Shape" fill="#000000"></path>
        </g>
    </g>
</svg>