<svg width="131" height="21" xmlns="http://www.w3.org/2000/svg"><g fill="none" fill-rule="evenodd"><g fill-rule="nonzero"><path d="M24.857 9.574h4.553V5.445h1.593V16H29.41v-4.929h-4.553V16h-1.592V5.445h1.592v4.13zM40.9 13.437h-4.518L35.205 16h-1.716l5.223-11.218L43.75 16h-1.743l-1.108-2.563zm-.65-1.498l-1.565-3.588-1.64 3.588h3.206zm13.294-5.926v1.886c-.92-.77-1.873-1.155-2.857-1.155-1.085 0-1.998.39-2.741 1.17-.748.774-1.121 1.722-1.121 2.843 0 1.107.373 2.041 1.12 2.803.748.76 1.664 1.141 2.749 1.141.56 0 1.036-.091 1.428-.273a4.12 4.12 0 00.68-.37 8.04 8.04 0 00.742-.56v1.92a5.753 5.753 0 01-2.87.773c-1.51 0-2.797-.526-3.863-1.579-1.062-1.062-1.593-2.342-1.593-3.841 0-1.345.444-2.543 1.333-3.596 1.094-1.29 2.509-1.935 4.245-1.935.948 0 1.864.258 2.748.773zm5.063 3.643l4.109-4.21h2.126l-4.772 4.778L64.87 16h-2.134l-3.8-4.696-.329.328V16h-1.592V5.445h1.592v4.211zm15.05 3.78h-4.518L67.963 16h-1.716l5.222-11.218L76.507 16h-1.743l-1.107-2.563zm-.649-1.497l-1.565-3.588-1.64 3.588h3.205zm8.31-4.997V16h-1.592V6.942h-2.427V5.445h6.44v1.497h-2.42zm6.602 2.632h4.553V5.445h1.592V16h-1.592v-4.929h-4.553V16h-1.593V5.445h1.593v4.13z" fill="#FFF"/><path d="M102.778 5.247c1.504 0 2.794.538 3.87 1.613 1.08 1.076 1.62 2.368 1.62 3.876 0 1.518-.543 2.805-1.627 3.863-1.09 1.061-2.404 1.592-3.945 1.592-1.362 0-2.586-.471-3.67-1.415-1.195-1.043-1.792-2.41-1.792-4.101 0-1.486.545-2.762 1.634-3.828 1.085-1.067 2.388-1.6 3.91-1.6zm-.02 1.497c-1.098 0-2.026.383-2.782 1.149-.757.756-1.135 1.69-1.135 2.802 0 1.167.392 2.126 1.176 2.878.779.752 1.679 1.128 2.7 1.128 1.107 0 2.042-.383 2.803-1.148.76-.775 1.141-1.718 1.141-2.83 0-1.126-.376-2.07-1.128-2.83-.747-.766-1.672-1.149-2.775-1.149z" fill="#25E899"/><path d="M111.438 16V4.728l7.697 8.052V5.445h1.593v11.198L113.03 8.61V16h-1.592zm18.953-8.982l-1.292.765c-.241-.42-.471-.693-.69-.82-.228-.146-.522-.219-.882-.219-.442 0-.809.125-1.1.376a1.165 1.165 0 00-.438.93c0 .515.383.93 1.149 1.244l1.052.43c.857.347 1.484.77 1.88 1.269.397.499.595 1.11.595 1.835 0 .97-.324 1.773-.97 2.406-.653.638-1.461.957-2.428.957-.916 0-1.672-.27-2.27-.813-.587-.542-.954-1.306-1.1-2.29l1.614-.356c.072.62.2 1.049.382 1.286.329.455.807.683 1.436.683.497 0 .91-.166 1.237-.499.328-.333.492-.754.492-1.265 0-.205-.028-.393-.085-.563a1.431 1.431 0 00-.267-.472 2.13 2.13 0 00-.468-.403 4.511 4.511 0 00-.683-.36l-1.019-.423c-1.445-.61-2.167-1.504-2.167-2.68 0-.793.303-1.456.91-1.99.605-.537 1.36-.806 2.262-.806 1.217 0 2.167.593 2.85 1.778z" fill="#FFF"/></g><g transform="translate(1 1)"><rect fill="#FFF" x="3" y="18" width="8" height="2" rx="1"/><path d="M7 0a7 7 0 014.001 12.744L11 15a1 1 0 01-1 1H4a1 1 0 01-1-1v-2.255A7 7 0 017 0z" stroke="#FFF" stroke-width="1.4"/><path d="M8.422 2.76a.139.139 0 01.055.142l-.834 3.791h2.513a.139.139 0 01.112.22l-4.4 6.16a.139.139 0 01-.248-.11l.833-3.793H3.942a.139.139 0 01-.113-.219l4.4-6.16a.139.139 0 01.193-.032z" fill="#25E899"/></g></g></svg>