<svg version="1.1" viewBox="0.0 0.0 48.0 48.0" fill="none" stroke="none" stroke-linecap="square" stroke-miterlimit="10" xmlns:xlink="http://www.w3.org/1999/xlink" xmlns="http://www.w3.org/2000/svg"><clipPath id="p.0"><path d="m0 0l48.0 0l0 48.0l-48.0 0l0 -48.0z" clip-rule="nonzero"/></clipPath><g clip-path="url(#p.0)"><path fill="#000000" fill-opacity="0.0" d="m0 0l48.0 0l0 48.0l-48.0 0z" fill-rule="evenodd"/><path fill="#000000" fill-opacity="0.0" d="m1.042048 12.3149605l46.677162 0l0 23.370079l-46.677162 0z" fill-rule="evenodd"/><path fill="#15003e" d="m9.797463 27.178123l7.015624 4.109375l0 2.71875l-11.78125 -6.828125l11.78125 -6.796875l0 2.71875l-7.015624 4.078125z" fill-rule="nonzero"/><path fill="#0fce7c" d="m22.114677 34.1l-2.265625 0q3.359375 -9.0625 5.015625 -13.59375l2.5 -6.796875l2.265625 0l-7.515625 20.390625z" fill-rule="nonzero"/><path fill="#15003e" d="m39.174175 27.178123l-7.031254 -4.109375l0 -2.6875l11.796879 6.796875l-11.796879 6.828125l0 -2.75l7.031254 -4.078125z" fill-rule="nonzero"/></g></svg>