<?xml version="1.0" encoding="UTF-8"?>
<svg width="62px" height="83px" viewBox="0 0 62 83" version="1.1" xmlns="http://www.w3.org/2000/svg" xmlns:xlink="http://www.w3.org/1999/xlink">
    <!-- Generator: Sketch 55.2 (78181) - https://sketchapp.com -->
    <title>Group 3</title>
    <desc>Created with Sketch.</desc>
    <defs>
        <linearGradient x1="9.00256207%" y1="29.4130704%" x2="78.2253802%" y2="107.123965%" id="linearGradient-1">
            <stop stop-color="#F2C2FF" offset="0%"></stop>
            <stop stop-color="#8E2ABE" offset="100%"></stop>
        </linearGradient>
    </defs>
    <g id="Page-1" stroke="none" stroke-width="1" fill="none" fill-rule="evenodd">
        <g id="Group-3" transform="translate(0.355463, 0.258812)">
            <g id="Group-2" fill-rule="nonzero">
                <path d="M60.313917,41.488396 C60.12422,39.386406 59.266676,37.505303 58.01631,35.816033 C56.780836,33.003411 54.918532,30.563164 52.284498,29.114373 C52.23982,28.686272 51.970533,28.264947 51.418772,28.034234 C50.464426,27.635186 49.525584,27.321343 48.582468,27.07763 C48.491037,26.645074 48.210886,26.264459 47.729074,26.181756 C45.822092,25.854302 43.984445,25.724786 42.114328,25.781671 C39.217599,25.363092 36.55134,25.915826 34.031808,27.596307 C33.754464,27.781305 33.579171,28.029046 33.48298,28.296746 C32.996652,28.561089 32.522653,28.84179 32.074289,29.148858 C28.741281,30.406365 25.343088,33.383111 24.488596,36.94378 C24.349924,37.521844 24.338205,38.137261 24.42634,38.733575 C23.433298,40.895074 23.013254,43.240106 23.788156,45.691156 C24.002023,46.367914 24.286203,47.034662 24.615793,47.692377 C24.61799,47.81872 24.628977,47.943231 24.633493,48.069147 C23.99299,55.078546 29.671457,60.169245 36.07551,61.327387 C38.452219,62.588801 41.779489,64.028742 44.359201,63.298212 C44.552805,63.243463 44.689767,63.110285 44.77131,62.950251 C48.970895,62.817011 52.833814,60.538569 55.177198,56.928522 C60.275831,53.674797 62.670485,47.350212 60.313917,41.488396 Z" id="Path" fill="#15003E"></path>
                <path d="M60.233961,44.602348 C61.087477,40.780937 61.012281,36.369377 58.80525,33.368827 C58.377027,32.786491 57.201246,32.884513 57.276686,33.782828 C57.633864,38.040335 58.778151,41.659476 57.398024,45.947379 C56.002272,50.284354 52.796584,53.800956 48.702708,55.760123 C44.649485,57.699759 40.003489,57.843253 35.753367,56.468192 C31.795481,55.187613 29.060618,52.580619 26.276194,49.742301 C26.236399,49.684867 26.190745,49.62725 26.152171,49.569938 C25.415599,48.480155 25.101146,46.791435 24.056468,45.979362 C23.61201,45.633964 23.09553,45.767997 22.881175,46.289604 C22.26887,47.779472 23.551829,49.680351 24.40095,50.838188 C24.970286,51.614616 25.599558,52.217644 26.305247,52.723503 C26.39387,52.839043 26.473216,52.96215 26.564524,53.075371 C26.315989,53.402458 26.239817,53.833489 26.534739,54.226921 C26.591624,54.30291 26.6551,54.372063 26.712962,54.447075 L26.708323,54.451714 C26.7176,54.45971 26.726878,54.467583 26.736155,54.475579 C29.290598,57.773919 32.749949,60.128533 36.57844,61.305474 C37.28303,61.596612 38.003611,61.862359 38.76301,62.067376 C42.588694,63.100152 47.662912,63.229974 50.745188,60.396966 C50.87678,60.276116 50.940012,60.135613 50.958567,59.994012 C56.617018,57.028862 62.577833,50.851799 60.233961,44.602348 Z" id="Path" fill="#3E00FF"></path>
                <path d="M57.340162,33.147026 C53.582594,26.141777 43.317941,24.679863 36.447336,27.051079 C35.445139,27.397026 34.344553,27.901177 33.217356,28.530388 C32.237376,28.981804 31.333933,29.562554 30.586008,30.207695 C25.764963,33.675102 21.445017,39.088066 23.150217,44.289055 C23.329172,44.835014 24.289865,44.965813 24.393137,44.289055 C25.420725,37.561943 31.859324,31.045891 38.300119,29.174248 C45.506662,27.08001 50.720895,30.281731 56.650831,33.836479 C57.096266,34.103569 57.572584,33.580254 57.340162,33.147026 Z" id="Path" fill="#B8AAE2"></path>
                <g id="Group" transform="translate(33.644537, 32.741188)">
                    <path d="M7.765804,0.769897 C7.515377,1.21376 7.262516,1.65628 7.015102,2.101821 C6.667789,2.727248 6.321994,3.353561 5.980278,3.98207 C5.670597,4.55165 5.371944,5.127257 5.059753,5.695449 C4.760582,6.239944 4.446796,6.776397 4.145622,7.319823 C3.669876,8.178206 3.19862,9.039107 2.726719,9.899626 C2.241005,10.785353 1.756794,11.671889 1.271916,12.558073 C1.364396,12.698484 1.466122,12.626997 1.570687,12.57411 C2.062401,12.325422 2.555516,12.079512 3.04728,11.830915 C3.781388,11.459821 4.514252,11.086286 5.248681,10.715833 C5.674107,10.501249 6.101327,10.290204 6.528157,10.078412 C7.084645,9.802289 7.641549,9.52699 8.198273,9.25134 C8.1931,9.182126 8.185826,9.112989 8.183064,9.043683 C8.076905,6.380734 7.97147,3.717755 7.864159,1.054868 C7.860039,0.952637 7.895702,0.831085 7.765804,0.769897 Z" id="Path" fill="#3E00FF"></path>
                    <path d="M7.765804,0.769897 C7.895702,0.831085 7.860038,0.952636 7.864158,1.05487 C7.971469,3.717758 8.076904,6.380737 8.183063,9.043685 C8.185825,9.11299 8.193099,9.182128 8.198272,9.251342 L8.199283,9.252273 C8.251163,9.266036 8.305297,9.274276 8.354595,9.294387 C10.334049,10.101394 12.311703,10.912871 14.293361,11.714416 C14.662387,11.863693 15.016506,12.057464 15.414535,12.129959 C15.148334,11.636078 14.821613,11.180389 14.506156,10.718704 C14.33171,10.463394 14.171222,10.19899 13.992946,9.945511 C13.596881,9.38237 13.236949,8.793686 12.867076,8.212357 C12.745956,8.021988 12.582469,7.859894 12.493587,7.648468 C12.371047,7.642929 12.345302,7.565659 12.355308,7.461884 C12.355308,7.461884 12.356975,7.462052 12.356952,7.462067 C12.210944,7.450302 12.208614,7.342881 12.206107,7.235566 C12.206107,7.235566 12.207949,7.238221 12.207923,7.238206 C12.193301,7.220216 12.17871,7.202241 12.164119,7.184251 C12.164119,7.184251 12.168525,7.184953 12.168411,7.185014 C12.083572,7.174882 12.045299,7.134797 12.07991,7.047776 C12.07991,7.047776 12.072479,7.042008 12.072334,7.042176 C11.923633,7.015168 11.913559,6.90091 11.909141,6.783097 C11.909141,6.783097 11.910598,6.783707 11.910579,6.783723 C11.787547,6.775376 11.763118,6.699464 11.780959,6.59459 C11.780959,6.59459 11.775596,6.592042 11.775454,6.592164 C11.713248,6.5925 11.712614,6.552903 11.720538,6.507768 L11.707652,6.511079 C11.707652,6.511079 11.720683,6.50879 11.720603,6.508821 C11.665771,6.500123 11.661208,6.462099 11.66735,6.417818 C11.66735,6.417818 11.668597,6.418932 11.668533,6.418932 C11.638214,6.414797 11.622215,6.398897 11.625621,6.366991 L11.61214,6.374788 C11.61214,6.374788 11.626575,6.368944 11.626449,6.36899 C11.561702,6.361452 11.564666,6.313555 11.565479,6.266954 C11.274364,5.820207 10.983246,5.37346 10.692081,4.926683 C10.636489,4.919969 10.622615,4.883211 10.625423,4.834398 C10.625423,4.834398 10.627143,4.833742 10.627117,4.833772 C10.454067,4.840852 10.475647,4.717592 10.476162,4.60843 C10.476162,4.60843 10.478092,4.608873 10.478069,4.608888 C10.331981,4.596834 10.32872,4.490281 10.327953,4.382066 C10.327953,4.382066 10.329734,4.382005 10.329708,4.38202 C10.182846,4.370683 10.180763,4.263154 10.179081,4.155351 C10.179081,4.155351 10.180851,4.158922 10.180821,4.158906 C10.163956,4.136781 10.147118,4.114686 10.130284,4.092576 C9.892056,3.637834 9.582223,3.228242 9.295838,2.805436 C8.930272,2.265733 8.620816,1.688569 8.207657,1.1801 C8.103352,1.051728 8.037254,0.892411 7.952831,0.747757 C7.874191,0.613037 7.807758,0.590378 7.765804,0.769897 Z" id="Path" fill="#70668F"></path>
                    <path d="M6.528157,10.078415 C6.101327,10.290207 5.674107,10.501251 5.248681,10.715836 C4.514253,11.086289 3.781388,11.459824 3.04728,11.830918 C2.555516,12.079514 2.062401,12.325425 1.570687,12.574113 C1.466122,12.627 1.364396,12.698487 1.271916,12.558076 C1.12991,12.721131 1.177018,12.80539 1.366028,12.903871 C2.196888,13.336793 3.009503,13.80533 3.846363,14.225862 C4.28545,14.446504 4.717926,14.684877 5.148708,14.915788 C5.692379,15.207216 6.237346,15.504228 6.775016,15.810746 C7.27692,16.096894 7.794524,16.355424 8.297717,16.639405 C8.45724,16.729432 8.575583,16.718796 8.693095,16.58902 C8.530333,16.640702 8.476615,16.592423 8.470378,16.411881 C8.416743,14.859238 8.351096,13.306992 8.290855,11.754563 C8.258491,10.920548 8.22969,10.086381 8.199283,9.252274 C7.641548,9.526993 7.084645,9.802292 6.528157,10.078415 Z" id="Path" fill="#70668F"></path>
                    <path d="M8.199284,9.252274 C8.229691,10.08638 8.258492,10.920548 8.290856,11.754563 C8.351098,13.306992 8.416745,14.859238 8.470379,16.411881 C8.476616,16.592423 8.530335,16.640702 8.693096,16.58902 C9.411381,16.103699 10.156586,15.660416 10.874515,15.17305 C11.260124,14.911285 11.657405,14.653351 12.062755,14.413223 C12.844463,13.950119 13.598426,13.439941 14.360492,12.944046 C14.693446,12.727386 15.01884,12.499039 15.345424,12.272751 C15.390014,12.241867 15.465751,12.213028 15.414558,12.12999 C15.016506,12.057465 14.662387,11.863694 14.293361,11.714417 C12.311702,10.912873 10.334049,10.101395 8.354595,9.294388 C8.305298,9.274277 8.251163,9.266037 8.199284,9.252274 Z" id="Path" fill="#693CF4"></path>
                    <path d="M8.900036,23.734238 C9.318501,23.105378 9.738495,22.477539 10.154934,21.847351 C10.463142,21.380951 10.767002,20.911667 11.0723,20.443329 C11.462685,19.844467 11.852371,19.245148 12.242714,18.646271 C12.861214,17.697327 13.479866,16.748474 14.098728,15.799759 C14.501633,15.182114 14.906502,14.565735 15.305988,13.945892 C15.347301,13.881775 15.458954,13.803161 15.378658,13.730392 C15.305477,13.664047 15.231964,13.77655 15.165668,13.818512 C14.77322,14.066849 14.380935,14.315704 13.994285,14.572937 C13.500007,14.901779 13.024909,15.261795 12.516117,15.565811 C11.985569,15.882828 11.455143,16.200332 10.94379,16.545807 C10.393848,16.917343 9.810947,17.238144 9.27531,17.628403 C9.039325,17.800324 8.779689,17.924164 8.539493,18.083649 C8.569503,18.817704 8.601055,19.551697 8.629203,20.285843 C8.67335,21.437134 8.715202,22.588516 8.758022,23.739868 C8.771923,23.774353 8.753128,23.832138 8.820968,23.828171 C8.820968,23.828171 8.813148,23.830185 8.813182,23.830185 C8.860126,23.814484 8.881126,23.775299 8.900036,23.734238 Z" id="Path" fill="#70668F"></path>
                    <path d="M8.758022,23.739868 C8.715202,22.588516 8.673351,21.437134 8.629203,20.285843 C8.601054,19.551697 8.569503,18.817703 8.539493,18.083649 C8.418376,18.013153 8.263828,18.013871 8.160304,17.905808 C8.008704,17.902558 7.861422,17.891831 7.814616,17.706666 C7.814616,17.706666 7.80131,17.700486 7.801238,17.700578 C7.691016,17.748399 7.622477,17.713578 7.595241,17.596849 L7.598899,17.599474 C7.556323,17.600267 7.514846,17.599108 7.502166,17.545916 C7.502166,17.545916 7.509498,17.551684 7.509471,17.551684 C7.460708,17.561083 7.421538,17.55411 7.412776,17.49515 C7.412776,17.49515 7.419803,17.501757 7.419726,17.501803 C7.370028,17.514941 7.327151,17.516635 7.326548,17.44681 C7.326548,17.44681 7.328864,17.455736 7.32873,17.455797 C7.295847,17.463518 7.274821,17.450426 7.263968,17.419328 C7.263968,17.419328 7.270175,17.423784 7.270152,17.423799 C7.22446,17.428911 7.183547,17.425508 7.172088,17.369203 C7.172088,17.369203 7.180305,17.375688 7.180263,17.375703 C7.122283,17.392656 7.083881,17.37613 7.072696,17.312959 C6.722839,17.119935 6.374194,16.924653 6.022865,16.734346 C5.303234,16.344514 4.583038,15.955721 3.861419,15.569582 C3.22908,15.231234 2.594161,14.897707 1.961173,14.560564 C1.850825,14.501802 1.74414,14.436113 1.636256,14.372774 C1.556613,14.326006 1.479289,14.314653 1.404853,14.382463 L1.406287,14.379243 C1.699866,14.76674 1.985839,15.159074 2.29946,15.532304 C2.621531,15.915574 2.888838,16.344453 3.203593,16.734422 C3.483451,17.081163 3.746909,17.440355 4.026541,17.78737 C4.539194,18.42357 5.010779,19.092164 5.530691,19.724 C5.820276,20.075913 6.090307,20.445634 6.365442,20.808641 C6.589502,21.104234 6.802599,21.415987 7.040861,21.697877 C7.262266,21.959809 7.460623,22.239442 7.674749,22.505784 C7.773492,22.628602 7.877233,22.758439 7.96195,22.89737 C8.086347,23.101365 8.253671,23.270539 8.420957,23.439026 L8.418779,23.437058 C8.420892,23.45224 8.429178,23.462372 8.443636,23.467454 C8.590338,23.505067 8.636133,23.60785 8.624571,23.747666 L8.621885,23.744691 C8.667267,23.743088 8.712646,23.74147 8.758022,23.739868 Z" id="Path" fill="#3E00FF"></path>
                    <path d="M7.814617,17.706665 C7.861423,17.89183 8.008705,17.902557 8.160305,17.905807 C8.06181,17.810379 7.943157,17.749939 7.814617,17.706665 Z" id="Path" fill="#00FF91"></path>
                    <path d="M8.624573,23.747665 C8.636135,23.607849 8.59034,23.505066 8.443638,23.467453 C8.456108,23.591751 8.548275,23.664581 8.624573,23.747665 Z" id="Path" fill="#00FF91"></path>
                    <path d="M8.758022,23.739868 C8.712646,23.74147 8.667267,23.743088 8.621887,23.74469 C8.65086,23.788544 8.677276,23.834381 8.709286,23.875885 C8.80497,24 8.804928,23.894028 8.820961,23.828186 C8.753128,23.832138 8.771923,23.774353 8.758022,23.739868 Z" id="Path" fill="#00FF91"></path>
                    <path d="M10.476162,4.608429 C10.475647,4.71759 10.454067,4.840851 10.627117,4.833771 C10.590942,4.749176 10.550797,4.667236 10.476162,4.608429 Z" id="Path" fill="#00FF91"></path>
                    <path d="M11.909142,6.783096 C11.913559,6.900909 11.923634,7.015167 12.072335,7.042175 C12.035801,6.944489 11.992626,6.851074 11.909142,6.783096 Z" id="Path" fill="#00FF91"></path>
                    <path d="M10.179081,4.15535 C10.180763,4.263153 10.182846,4.370682 10.329708,4.382019 C10.297428,4.294556 10.250347,4.216919 10.179081,4.15535 Z" id="Path" fill="#00FF91"></path>
                    <path d="M10.327953,4.382065 C10.32872,4.49028 10.331981,4.596832 10.478069,4.608887 C10.464977,4.50882 10.391418,4.448792 10.327953,4.382065 Z" id="Path" fill="#00FF91"></path>
                    <path d="M12.206108,7.235565 C12.208614,7.34288 12.210945,7.450302 12.356953,7.462066 C12.323978,7.375046 12.280827,7.2948 12.206108,7.235565 Z" id="Path" fill="#00FF91"></path>
                    <path d="M7.595242,17.596848 C7.622479,17.713578 7.691018,17.748398 7.801239,17.700577 C7.73262,17.665939 7.663933,17.631393 7.595242,17.596848 Z" id="Path" fill="#00FF91"></path>
                    <path d="M11.78096,6.594589 C11.763119,6.699463 11.787548,6.775375 11.91058,6.783722 C11.881756,6.710815 11.850914,6.639297 11.78096,6.594589 Z" id="Path" fill="#00FF91"></path>
                    <path d="M12.355309,7.461884 C12.345303,7.565659 12.371048,7.64293 12.493588,7.648468 C12.447495,7.586273 12.401398,7.524078 12.355309,7.461884 Z" id="Path" fill="#00FF91"></path>
                    <path d="M1.404854,14.382462 C1.402077,14.348481 1.399304,14.314499 1.396527,14.280518 C1.384732,14.28685 1.372937,14.293183 1.361142,14.29953 C1.376519,14.325745 1.391896,14.351974 1.406781,14.378723 C1.406288,14.379242 1.404854,14.382462 1.404854,14.382462 Z" id="Path" fill="#00FF91"></path>
                    <path d="M12.07991,7.047775 C12.045299,7.134796 12.083572,7.174881 12.168411,7.185013 C12.159466,7.125992 12.13303,7.078262 12.07991,7.047775 Z" id="Path" fill="#00FF91"></path>
                    <path d="M7.072697,17.312958 C7.083882,17.376129 7.122284,17.392655 7.180264,17.375702 C7.14444,17.354782 7.108566,17.333878 7.072697,17.312958 Z" id="Path" fill="#00FF91"></path>
                    <path d="M8.900036,23.734238 C8.881127,23.775299 8.860127,23.814484 8.813183,23.830185 C8.866249,23.820038 8.882206,23.776291 8.900036,23.734238 Z" id="Path" fill="#00FF91"></path>
                    <path d="M10.625423,4.834396 C10.622615,4.883209 10.636489,4.919967 10.692081,4.926681 C10.669895,4.895935 10.647659,4.865158 10.625423,4.834396 Z" id="Path" fill="#00FF91"></path>
                    <path d="M11.565479,6.266953 C11.564666,6.313553 11.561702,6.361451 11.626449,6.368989 C11.622993,6.32489 11.606285,6.288712 11.565479,6.266953 Z" id="Path" fill="#00FF91"></path>
                    <path d="M11.667351,6.417816 C11.661209,6.462097 11.665772,6.500122 11.720604,6.508819 C11.716305,6.470612 11.707497,6.435028 11.667351,6.417816 Z" id="Path" fill="#00FF91"></path>
                    <path d="M11.720539,6.507767 C11.712616,6.552902 11.713249,6.592499 11.775455,6.592163 C11.77158,6.554581 11.759438,6.52243 11.720539,6.507767 Z" id="Path" fill="#00FF91"></path>
                    <path d="M7.172089,17.369202 C7.183548,17.425507 7.224461,17.42891 7.270153,17.423798 C7.250324,17.382507 7.209835,17.378326 7.172089,17.369202 Z" id="Path" fill="#00FF91"></path>
                    <path d="M7.32655,17.446808 C7.327153,17.516632 7.37003,17.514938 7.419728,17.501801 C7.388718,17.483444 7.357635,17.465118 7.32655,17.446808 Z" id="Path" fill="#00FF91"></path>
                    <path d="M7.412777,17.495148 C7.421539,17.554108 7.460709,17.561081 7.509472,17.551682 C7.477257,17.532837 7.445015,17.513992 7.412777,17.495148 Z" id="Path" fill="#00FF91"></path>
                    <path d="M7.502167,17.545914 C7.514847,17.599106 7.556324,17.600266 7.5989,17.599472 C7.566666,17.581619 7.534416,17.563766 7.502167,17.545914 Z" id="Path" fill="#00FF91"></path>
                    <path d="M10.130283,4.092575 C10.147117,4.114685 10.163955,4.13678 10.18082,4.158905 C10.163998,4.13681 10.147141,4.114685 10.130283,4.092575 Z" id="Path" fill="#00FF91"></path>
                    <path d="M11.625626,6.366989 C11.622216,6.398895 11.638215,6.414795 11.668534,6.41893 C11.654274,6.401611 11.63995,6.384308 11.625626,6.366989 Z" id="Path" fill="#00FF91"></path>
                    <path d="M12.16412,7.18425 C12.178711,7.20224 12.193302,7.220215 12.207924,7.238205 C12.19334,7.22023 12.17873,7.20224 12.16412,7.18425 Z" id="Path" fill="#00FF91"></path>
                    <path d="M7.263969,17.419327 C7.274822,17.450424 7.295848,17.463516 7.328731,17.455796 C7.307232,17.443604 7.285599,17.431473 7.263969,17.419327 Z" id="Path" fill="#00FF91"></path>
                    <path d="M8.418781,23.437057 L8.420959,23.439025 L8.418781,23.437057 Z" id="Path" fill="#00FF91"></path>
                </g>
                <path d="M42.144774,63.741188 C31.3923019,63.741188 22.644537,54.9934222 22.644537,44.241425 C22.644537,33.4889529 31.3923028,24.741188 42.144774,24.741188 C52.8967712,24.741188 61.644537,33.4889538 61.644537,44.241425 C61.644537,54.9934222 52.8967712,63.741188 42.144774,63.741188 Z M42.1447732,26.741188 C32.4953224,26.741188 24.644537,34.5919734 24.644537,44.2414242 C24.644537,53.8908751 32.4953224,61.741188 42.1447732,61.741188 C51.7942241,61.741188 59.644537,53.8908751 59.644537,44.2414242 C59.644537,34.5919734 51.7942241,26.741188 42.1447732,26.741188 Z" id="Shape" fill="url(#linearGradient-1)"></path>
                <ellipse id="Oval" fill="#B8AAE2" transform="translate(39.587880, 30.009783) rotate(-2.950087) translate(-39.587880, -30.009783) " cx="39.5878802" cy="30.0097825" rx="6.04505053" ry="3.1647618"></ellipse>
                <polygon id="Path" fill="#3E00FF" points="22.542486 35.934318 0.107411 25.186775 12.349787 23.044075 0 9.758842 21.814764 23.411552 13.609888 26.25367"></polygon>
                <polygon id="Path" fill="#3E00FF" points="35.543142 22.864082 36.071894 5.465248 30.730825 12.156761 26.372152 -1.77635684e-15 27.878626 18.038628 32.34543 14.046104"></polygon>
                <polygon id="Path" fill="#3E00FF" points="49.140303 21.971474 57.414648 15.458717 52.236815 15.580803 56.181715 8.837547 48.401171 16.542656 51.987738 17.063454"></polygon>
            </g>
            <g id="Group" transform="translate(20.644537, 65.741188)" fill="#FFFFFF" font-family="Muli" font-size="12" font-weight="normal">
                <text id="Quests">
                    <tspan x="0" y="14">Quests</tspan>
                </text>
            </g>
        </g>
    </g>
</svg>