<svg id="Layer_3" data-name="Layer 2" xmlns="http://www.w3.org/2000/svg" viewBox="0 0 562.04 940.49"><defs><style>.cls-1,.cls-8{fill:#ffd107;}.cls-2,.cls-7,.cls-9{fill:#00ed92;}.cls-2,.cls-3{stroke:#fff;}.cls-2,.cls-3,.cls-4,.cls-5,.cls-6,.cls-7,.cls-8{stroke-linecap:round;stroke-linejoin:round;stroke-width:2.41px;}.cls-3,.cls-4{fill:none;}.cls-4,.cls-5,.cls-6,.cls-7,.cls-8{stroke:#180041;}.cls-10,.cls-5{fill:#180041;}.cls-6{fill:#fff;}</style></defs><title>falcon_2</title><circle class="cls-1" cx="413.93" cy="82.54" r="24.4"/><path class="cls-2" d="M389.21,887.91c0-28.66-24.67-38-24.67-38,0-14-22.67-43.33-52-43.33s-38,10.67-38,10.67c-17-17-34.67-54-34.67-54H217.21s-17.67,37-34.67,54c0,0-8.67-10.67-38-10.67s-52,29.33-52,43.33c0,0-24.67,9.34-24.67,38Z"/><path class="cls-3" d="M144.62,835.24s1.75-5.5,10-5.5,9.25,6.25,9.25,6.25"/><path class="cls-3" d="M138.37,864.49S121,842.08,92.54,849.91"/><path class="cls-3" d="M222.12,788.74s-5.5,33-33,57.25"/><path class="cls-3" d="M182.54,817.25s7.08,7,7.58,11.74"/><path class="cls-3" d="M312.29,835.24s-1.75-5.5-10-5.5S293,836,293,836"/><path class="cls-3" d="M318.54,864.49s17.42-22.41,45.83-14.58"/><path class="cls-3" d="M234.79,788.74s5.5,33,33,57.25"/><path class="cls-3" d="M274.37,817.25s-7.08,7-7.58,11.74"/><path class="cls-2" d="M482.54,887.91c0-28.66-24.67-38-24.67-38,0-14-22.66-43.33-52-43.33s-38,10.67-38,10.67c-17-17-34.66-54-34.66-54H310.54s-17.67,37-34.67,54c0,0-8.66-10.67-38-10.67s-52,29.33-52,43.33c0,0-24.66,9.34-24.66,38Z"/><path class="cls-3" d="M238,835.24s1.75-5.5,10-5.5,9.25,6.25,9.25,6.25"/><path class="cls-3" d="M231.71,864.49s-17.42-22.41-45.84-14.58"/><path class="cls-3" d="M315.46,788.74s-5.5,33-33,57.25"/><path class="cls-3" d="M275.87,817.25s7.09,7,7.59,11.74"/><path class="cls-3" d="M405.62,835.24s-1.75-5.5-10-5.5-9.25,6.25-9.25,6.25"/><path class="cls-3" d="M411.87,864.49s17.42-22.41,45.84-14.58"/><path class="cls-3" d="M328.12,788.74s5.5,33,33,57.25"/><path class="cls-3" d="M367.71,817.25s-7.09,7-7.59,11.74"/><path class="cls-2" d="M184,864.49s-17.42-22.41-45.83-14.58"/><path class="cls-2" d="M267.79,788.74s-5.5,33-33,57.25"/><path class="cls-2" d="M228.21,817.25s7.08,7,7.58,11.74"/><path class="cls-2" d="M434.87,887.91c0-28.66-24.66-38-24.66-38,0-14-22.67-43.33-52-43.33s-38,10.67-38,10.67c-17-17-34.67-54-34.67-54H262.87s-17.66,37-34.66,54c0,0-8.67-10.67-38-10.67s-52,29.33-52,43.33c0,0-24.67,9.34-24.67,38Z"/><path class="cls-3" d="M190.29,835.24s1.75-5.5,10-5.5,9.25,6.25,9.25,6.25"/><path class="cls-3" d="M184,864.49s-17.42-22.41-45.83-14.58"/><path class="cls-3" d="M267.79,788.74s-5.5,33-33,57.25"/><path class="cls-3" d="M228.21,817.25s7.08,7,7.58,11.74"/><path class="cls-3" d="M358,835.24s-1.75-5.5-10-5.5-9.25,6.25-9.25,6.25"/><path class="cls-3" d="M364.21,864.49s17.41-22.41,45.83-14.58"/><path class="cls-3" d="M280.46,788.74s5.5,33,33,57.25"/><path class="cls-3" d="M320,817.25s-7.08,7-7.58,11.74"/><line class="cls-4" x1="209.82" y1="443.33" x2="209.82" y2="662.2"/><path class="cls-5" d="M228.27,732.19s1.9-1.12,2.76-8.88,6.81-60.74,6.81-60.74.17-13.18,2.76-13.18,5.17,10.51,5.25,12.49S248,744.6,248,744.6L245.77,746v5.09l-1.28,1.28H211.36l-1.28-1.28V746l-2.24-1.37s2.07-80.74,2.15-82.72,2.68-12.49,5.26-12.49S218,662.57,218,662.57s5.94,53,6.8,60.74,2.76,8.88,2.76,8.88Z"/><path class="cls-3" d="M248.13,755s-2-26.4-6.85-26.4a8.72,8.72,0,0,0-7,3s-2,7.13-2.65,11.49a3.74,3.74,0,0,1-7.42,0c-.63-4.36-2.64-11.49-2.64-11.49a8.73,8.73,0,0,0-7-3c-4.82,0-7.24,25.58-7.24,25.58"/><path class="cls-4" d="M223.44,763.38l-.1-3.82a8.13,8.13,0,0,0-4.34-7.12h-.24a8.13,8.13,0,0,0-4.34,7.12l-.1,3.82Z"/><line class="cls-4" x1="214.27" y1="759.52" x2="223.17" y2="759.52"/><path class="cls-4" d="M232.47,763.38l-.11-3.82a8.13,8.13,0,0,0-4.33-7.12h-.25a8.13,8.13,0,0,0-4.33,7.12l-.11,3.82Z"/><line class="cls-4" x1="223.29" y1="759.52" x2="232.2" y2="759.52"/><path class="cls-4" d="M241.51,763.38l-.1-3.82a8.13,8.13,0,0,0-4.34-7.12h-.24a8.13,8.13,0,0,0-4.34,7.12l-.1,3.82Z"/><line class="cls-4" x1="232.34" y1="759.52" x2="241.24" y2="759.52"/><polygon class="cls-4" points="213.36 416.39 210.95 421.22 210.95 424.98 208 427.93 208 442.81 219.4 442.81 219.4 427.96 216.78 425.18 216.78 421.49 218.53 416.46 213.36 416.39"/><line class="cls-4" x1="211.33" y1="423.73" x2="216.37" y2="424.07"/><line class="cls-4" x1="208.42" y1="438.23" x2="212.75" y2="442.55"/><line class="cls-4" x1="208.42" y1="432.58" x2="217.92" y2="442.08"/><line class="cls-4" x1="209.41" y1="427.93" x2="218.91" y2="437.43"/><line class="cls-4" x1="211.61" y1="424.48" x2="218.78" y2="431.66"/><line class="cls-4" x1="218.91" y1="438.23" x2="214.58" y2="442.55"/><line class="cls-4" x1="218.91" y1="432.58" x2="209.41" y2="442.08"/><line class="cls-4" x1="217.92" y1="427.93" x2="208.42" y2="437.43"/><line class="cls-4" x1="215.72" y1="424.48" x2="208.55" y2="431.66"/><line class="cls-4" x1="245.13" y1="443.33" x2="245.13" y2="657.72"/><path class="cls-4" d="M245.13,425.32v-9.56s1-9.48-6.29-22.66-11.37-11.93-11.37-11.93h0s-4.13-1.25-11.37,11.93-6.29,22.66-6.29,22.66v9.56"/><polygon class="cls-4" points="241.59 416.39 244.01 421.22 244.01 424.98 246.96 427.93 246.96 442.81 235.56 442.81 235.56 427.96 238.17 425.18 238.17 421.49 236.43 416.46 241.59 416.39"/><line class="cls-4" x1="243.63" y1="423.73" x2="238.59" y2="424.07"/><line class="cls-4" x1="246.53" y1="438.23" x2="242.2" y2="442.55"/><line class="cls-4" x1="246.53" y1="432.58" x2="237.03" y2="442.08"/><line class="cls-4" x1="245.54" y1="427.93" x2="236.04" y2="437.43"/><line class="cls-4" x1="243.35" y1="424.48" x2="236.17" y2="431.66"/><line class="cls-4" x1="236.04" y1="438.23" x2="240.37" y2="442.55"/><line class="cls-4" x1="236.04" y1="432.58" x2="245.54" y2="442.08"/><line class="cls-4" x1="237.03" y1="427.93" x2="246.53" y2="437.43"/><line class="cls-4" x1="239.23" y1="424.48" x2="246.4" y2="431.66"/><line class="cls-4" x1="303.03" y1="443.33" x2="303.03" y2="662.2"/><polygon class="cls-4" points="306.58 416.39 304.16 421.22 304.16 424.98 301.21 427.93 301.21 442.81 312.61 442.81 312.61 427.96 310 425.18 310 421.49 311.74 416.46 306.58 416.39"/><line class="cls-4" x1="304.54" y1="423.73" x2="309.58" y2="424.07"/><line class="cls-4" x1="301.63" y1="438.23" x2="305.96" y2="442.55"/><line class="cls-4" x1="301.63" y1="432.58" x2="311.13" y2="442.08"/><line class="cls-4" x1="302.62" y1="427.93" x2="312.12" y2="437.43"/><line class="cls-4" x1="304.82" y1="424.48" x2="311.99" y2="431.66"/><line class="cls-4" x1="312.12" y1="438.23" x2="307.79" y2="442.55"/><line class="cls-4" x1="312.12" y1="432.58" x2="302.62" y2="442.08"/><line class="cls-4" x1="311.13" y1="427.93" x2="301.63" y2="437.43"/><line class="cls-4" x1="308.94" y1="424.48" x2="301.76" y2="431.66"/><line class="cls-4" x1="338.35" y1="443.33" x2="338.35" y2="657.72"/><path class="cls-4" d="M338.35,425.32v-9.56s.94-9.48-6.29-22.66-11.38-11.93-11.38-11.93h0s-4.14-1.25-11.38,11.93S303,415.76,303,415.76v9.56"/><polygon class="cls-4" points="334.8 416.39 337.22 421.22 337.22 424.98 340.17 427.93 340.17 442.81 328.77 442.81 328.77 427.96 331.38 425.18 331.38 421.49 329.64 416.46 334.8 416.39"/><line class="cls-4" x1="336.84" y1="423.73" x2="331.8" y2="424.07"/><line class="cls-4" x1="339.75" y1="438.23" x2="335.42" y2="442.55"/><line class="cls-4" x1="339.75" y1="432.58" x2="330.25" y2="442.08"/><line class="cls-4" x1="338.75" y1="427.93" x2="329.26" y2="437.43"/><line class="cls-4" x1="336.56" y1="424.48" x2="329.39" y2="431.66"/><line class="cls-4" x1="329.26" y1="438.23" x2="333.59" y2="442.55"/><line class="cls-4" x1="329.26" y1="432.58" x2="338.75" y2="442.08"/><line class="cls-4" x1="330.25" y1="427.93" x2="339.75" y2="437.43"/><line class="cls-4" x1="332.44" y1="424.48" x2="339.62" y2="431.66"/><path class="cls-5" d="M321.17,732.19s1.9-1.12,2.76-8.88,6.8-60.74,6.8-60.74.18-13.18,2.76-13.18,5.17,10.51,5.26,12.49,2.15,82.72,2.15,82.72L338.66,746v5.09l-1.28,1.28H304.25L303,751.06V746l-2.24-1.37s2.06-80.74,2.15-82.72,2.67-12.49,5.26-12.49,2.75,13.18,2.75,13.18,6,53,6.81,60.74,2.76,8.88,2.76,8.88Z"/><path class="cls-3" d="M341,755s-2-26.4-6.85-26.4a8.75,8.75,0,0,0-7,3s-2,7.13-2.64,11.49a3.74,3.74,0,0,1-7.42,0c-.64-4.36-2.65-11.49-2.65-11.49a8.72,8.72,0,0,0-7-3c-4.83,0-7.24,25.58-7.24,25.58"/><path class="cls-4" d="M316.34,763.38l-.11-3.82a8.13,8.13,0,0,0-4.33-7.12h-.25a8.13,8.13,0,0,0-4.33,7.12l-.11,3.82Z"/><line class="cls-4" x1="307.16" y1="759.52" x2="316.07" y2="759.52"/><path class="cls-4" d="M325.36,763.38l-.1-3.82a8.13,8.13,0,0,0-4.34-7.12h-.24a8.13,8.13,0,0,0-4.34,7.12l-.1,3.82Z"/><line class="cls-4" x1="316.19" y1="759.52" x2="325.09" y2="759.52"/><path class="cls-4" d="M334.41,763.38l-.1-3.82a8.13,8.13,0,0,0-4.34-7.12h-.25a8.13,8.13,0,0,0-4.33,7.12l-.1,3.82Z"/><line class="cls-4" x1="325.23" y1="759.52" x2="334.14" y2="759.52"/><path class="cls-6" d="M291.59,658.7v-378c8.33-5.57,7.89-12,7.89-12l-.12-68s.52-15.23-9.53-31.54-15.57-14.47-15.57-14.47h-.17s-5.51-1.84-15.56,14.47S249,200.72,249,200.72l-.11,68s-.45,6.43,7.88,12v378"/><line class="cls-4" x1="256.57" y1="280.5" x2="291.84" y2="280.5"/><polygon class="cls-4" points="259.74 416.39 257.33 421.22 257.33 424.98 254.38 427.93 254.38 442.81 265.78 442.81 265.78 427.96 263.16 425.18 263.16 421.49 264.9 416.46 259.74 416.39"/><line class="cls-4" x1="257.71" y1="423.73" x2="262.75" y2="424.07"/><line class="cls-4" x1="254.8" y1="438.23" x2="259.13" y2="442.55"/><line class="cls-4" x1="254.8" y1="432.58" x2="264.3" y2="442.08"/><line class="cls-4" x1="255.79" y1="427.93" x2="265.29" y2="437.43"/><line class="cls-4" x1="257.99" y1="424.48" x2="265.16" y2="431.66"/><line class="cls-4" x1="265.29" y1="438.23" x2="260.96" y2="442.55"/><line class="cls-4" x1="265.29" y1="432.58" x2="255.79" y2="442.08"/><line class="cls-4" x1="264.3" y1="427.93" x2="254.8" y2="437.43"/><line class="cls-4" x1="262.1" y1="424.48" x2="254.93" y2="431.66"/><polygon class="cls-4" points="287.97 416.39 290.38 421.22 290.38 424.98 293.33 427.93 293.33 442.81 281.93 442.81 281.93 427.96 284.55 425.18 284.55 421.49 282.81 416.46 287.97 416.39"/><line class="cls-4" x1="290" y1="423.73" x2="284.96" y2="424.07"/><line class="cls-4" x1="292.91" y1="438.23" x2="288.58" y2="442.55"/><line class="cls-4" x1="292.91" y1="432.58" x2="283.41" y2="442.08"/><line class="cls-4" x1="291.92" y1="427.93" x2="282.42" y2="437.43"/><line class="cls-4" x1="289.72" y1="424.48" x2="282.55" y2="431.66"/><line class="cls-4" x1="282.42" y1="438.23" x2="286.75" y2="442.55"/><line class="cls-4" x1="282.42" y1="432.58" x2="291.92" y2="442.08"/><line class="cls-4" x1="283.41" y1="427.93" x2="292.91" y2="437.43"/><line class="cls-4" x1="285.61" y1="424.48" x2="292.78" y2="431.66"/><path class="cls-4" d="M273.37,280.16V343s-2.76,3.79-2.76,6.55,1,14.47,2.93,16.37,4-16.8,4-16.8-.34-4.57-4.18-6.12"/><path class="cls-5" d="M274.34,732.19s1.89-1.12,2.75-8.88l6.81-60.74s.17-13.18,2.76-13.18,5.17,10.51,5.25,12.49,2.16,82.72,2.16,82.72L291.83,746v5.09l-1.28,1.28H257.42l-1.28-1.28V746l-2.24-1.37s2.07-80.74,2.16-82.72,2.67-12.49,5.25-12.49,2.76,13.18,2.76,13.18,5.95,53,6.81,60.74,2.75,8.88,2.75,8.88Z"/><path class="cls-3" d="M294.2,755s-2-26.4-6.85-26.4a8.73,8.73,0,0,0-7,3s-2,7.13-2.64,11.49a3.74,3.74,0,0,1-7.43,0c-.63-4.36-2.64-11.49-2.64-11.49a8.73,8.73,0,0,0-7-3c-4.82,0-7.24,25.58-7.24,25.58"/><path class="cls-4" d="M269.5,763.38l-.1-3.82a8.13,8.13,0,0,0-4.33-7.12h-.25a8.13,8.13,0,0,0-4.34,7.12l-.1,3.82Z"/><line class="cls-4" x1="260.33" y1="759.52" x2="269.23" y2="759.52"/><path class="cls-4" d="M278.53,763.38l-.1-3.82a8.13,8.13,0,0,0-4.34-7.12h-.24a8.13,8.13,0,0,0-4.34,7.12l-.1,3.82Z"/><line class="cls-4" x1="269.35" y1="759.52" x2="278.26" y2="759.52"/><path class="cls-4" d="M287.58,763.38l-.11-3.82a8.13,8.13,0,0,0-4.33-7.12h-.25a8.13,8.13,0,0,0-4.33,7.12l-.11,3.82Z"/><line class="cls-4" x1="278.4" y1="759.52" x2="287.31" y2="759.52"/><line class="cls-4" x1="218.5" y1="416.29" x2="334.4" y2="416.29"/><ellipse class="cls-4" cx="264.57" cy="202.15" rx="2.99" ry="2.18"/><ellipse class="cls-4" cx="264.57" cy="242.93" rx="2.99" ry="2.18"/><polygon class="cls-4" points="144.03 556.32 147.23 550.47 150.42 556.32 156.26 559.51 150.42 562.71 147.23 568.55 144.03 562.71 138.19 559.51 144.03 556.32"/><polygon class="cls-7" points="83.65 371.6 86.84 365.76 90.04 371.6 95.88 374.8 90.04 377.99 86.84 383.83 83.65 377.99 77.81 374.8 83.65 371.6"/><polygon class="cls-8" points="55.32 737.6 58.51 731.76 61.71 737.6 67.55 740.8 61.71 743.99 58.51 749.84 55.32 743.99 49.47 740.8 55.32 737.6"/><polygon class="cls-4" points="414.21 215.71 417.41 209.87 420.6 215.71 426.45 218.9 420.6 222.1 417.41 227.94 414.21 222.1 408.37 218.9 414.21 215.71"/><polygon class="cls-8" points="149.37 192.33 152.57 186.48 155.76 192.33 161.61 195.52 155.76 198.72 152.57 204.56 149.37 198.72 143.53 195.52 149.37 192.33"/><circle class="cls-1" cx="166.04" cy="531.99" r="2.92"/><circle class="cls-9" cx="343.37" cy="329.33" r="2.92"/><circle class="cls-1" cx="171.71" cy="225.24" r="2.92"/><circle class="cls-4" cx="157.04" cy="291.74" r="2.92"/><circle class="cls-4" cx="124.54" cy="387.99" r="2.92"/><polygon class="cls-7" points="438.04 580.99 441.24 575.15 444.43 580.99 450.27 584.19 444.43 587.38 441.24 593.23 438.04 587.38 432.2 584.19 438.04 580.99"/><circle class="cls-1" cx="459.43" cy="751.38" r="2.92"/><circle class="cls-2" cx="501.43" cy="450.13" r="2.92"/><circle class="cls-4" cx="467.93" cy="617.38" r="2.92"/><circle class="cls-4" cx="417.59" cy="302.28" r="2.92"/><circle class="cls-4" cx="163.04" cy="601.91" r="2.92"/><circle class="cls-1" cx="439.72" cy="248.17" r="2.92"/><circle class="cls-1" cx="430.18" cy="424.43" r="2.92"/><path class="cls-10" d="M387.35,87.82a27.11,27.11,0,1,1,31.87,21.3A27.14,27.14,0,0,1,387.35,87.82Zm50.51-10a24.39,24.39,0,1,0-19.17,28.68A24.42,24.42,0,0,0,437.86,77.78Z"/><path class="cls-10" d="M423,58.63a1.36,1.36,0,0,1,.14-.92L429,47a1.37,1.37,0,0,1,.81-.66,1.33,1.33,0,0,1,1,.12l7.13,3.9a1.35,1.35,0,0,1,.65.81,1.28,1.28,0,0,1-.11,1L435.91,57a1.38,1.38,0,0,1-1.85.54l-5.94-3.26L425.52,59a1.36,1.36,0,0,1-1.84.54A1.39,1.39,0,0,1,423,58.63Zm7.72-9.13-1.3,2.38,4.75,2.61,1.31-2.38Z"/><path class="cls-10" d="M407.84,65.79A4.07,4.07,0,1,1,412.62,69,4.08,4.08,0,0,1,407.84,65.79Zm5.32-1.06a1.36,1.36,0,1,0-1.07,1.59A1.36,1.36,0,0,0,413.16,64.73Z"/><path class="cls-10" d="M418.73,71.91a5.42,5.42,0,1,1,6.38,4.26A5.43,5.43,0,0,1,418.73,71.91Zm8-1.58a2.71,2.71,0,1,0-2.13,3.18A2.72,2.72,0,0,0,426.71,70.33Z"/><path class="cls-10" d="M394,79.59a9.49,9.49,0,1,1,11.16,7.46A9.5,9.5,0,0,1,394,79.59ZM410,76.42a6.77,6.77,0,1,0-5.32,8A6.79,6.79,0,0,0,410,76.42Z"/><rect class="cls-9" x="431.09" y="49.28" width="2.71" height="5.42" transform="translate(178.96 406.2) rotate(-61.27)"/></svg>