<svg xmlns="http://www.w3.org/2000/svg" viewBox="0 0 44.49 54.43"><defs><style>.cls-1{fill:#00ed92}</style></defs><g id="Layer_2" data-name="Layer 2"><g id="Layer_2-2" data-name="Layer 2"><path class="cls-1" d="M36.06 21.89a2.22 2.22 0 0 1 2.07 1.23l.57 1.2a2.26 2.26 0 0 1-.52 2.53l-.32.26-9.06 3.64a2.11 2.11 0 0 1-.82.17 2.19 2.19 0 0 1-1-4.12l6.8-3.58-5-1.33zM28.33 15.13A8.7 8.7 0 0 0 30 10a9.06 9.06 0 0 0-.72-3.5c-.09-.21-.16-.36-.24-.51l-.26-.51.55-.18a5.94 5.94 0 0 1 2-.33 6.12 6.12 0 0 1 3.17 11.36l-8 4.94-.2-.05a25.28 25.28 0 0 0-3.23-.62h-.16l-.19-.12-1.59-1.54 1-.13a10.11 10.11 0 0 0 2.15-.54l.12-.05a8.59 8.59 0 0 0 3.93-3.09zM19.85 43.26a35.31 35.31 0 0 0-.67 6.62v3H4.5v-6a26.87 26.87 0 0 1 4.92-15.61l.37-.5.35.12a7.5 7.5 0 0 0 2.27.44h.33c2.94.1 5.42 1.61 7.39 4.49l.11.15a9.06 9.06 0 0 1 .69 1l.1.17z"/><path d="M44.49 54.43v-8.51a26.16 26.16 0 0 0-6.6-17.57l-.32-.35.34-.33a4.81 4.81 0 0 0 1.47-3.19 6 6 0 0 0 0-.73 5 5 0 0 0-.38-1.46l-.55-1.16a4.7 4.7 0 0 0-4.37-2.74h-1.77l1.49-.92a8.61 8.61 0 0 0 .65-14.29L34 2.86l-.27-.16-.5-.28-.34-.16-.49-.2-.35-.13-.54-.16h-.11l-.23-.05a6.17 6.17 0 0 0-.62-.11h-.29a8.63 8.63 0 0 0-4.74.81l-.3.16-.22-.3a8.87 8.87 0 0 0-12.24.35c-.2.2-.39.41-.58.64a9 9 0 0 0-1.94 4.47 9.19 9.19 0 0 0-.09 1.2 9.6 9.6 0 0 0 .09 1.22v.29a8.81 8.81 0 0 0 .26 1.16 9.38 9.38 0 0 0 .68 1.6 8.66 8.66 0 0 0 1.55 2l.89.86H9.93a7 7 0 0 0-4.12 1.41c-.16.13-.32.26-.47.4l-.15.13a7.41 7.41 0 0 0-.54.58l-.09.12c-.13.17-.26.35-.38.53l-.12.2a6.54 6.54 0 0 0-.3.59l-.07.13q-.15.36-.27.75v.11c-.07.29-.11.5-.15.7v.23a5.93 5.93 0 0 0-.06.84 6.79 6.79 0 0 0 0 .78v.29c0 .14 0 .28.07.42a7.27 7.27 0 0 0 1.11 2.69c.08.12.16.24.25.35a6 6 0 0 0 .67.75l.27.25-.27.47c-.28.39-.62.91-1 1.53l-.22.35c-.34.58-.64 1.12-.92 1.67l-.14.29c-.26.52-.51 1.06-.74 1.61l-.13.3c-.24.61-.47 1.22-.67 1.85l-.14.41a30.45 30.45 0 0 0-1.38 9v8.51h19.71v-5.43a32.8 32.8 0 0 1 .62-6.15l.43-2.17.55 2.15a25.42 25.42 0 0 1 .72 6.17v5.55zM34.06 20.89a2.22 2.22 0 0 1 2.07 1.23l.57 1.2a2.26 2.26 0 0 1-.52 2.53l-.32.26-9.06 3.64a2.11 2.11 0 0 1-.82.17 2.19 2.19 0 0 1-1-4.12l6.8-3.58-5-1.33zm-7.73-6.76A8.7 8.7 0 0 0 28 9a9.06 9.06 0 0 0-.72-3.5c-.09-.21-.16-.36-.24-.51l-.26-.51.55-.18a5.94 5.94 0 0 1 2-.33 6.12 6.12 0 0 1 3.17 11.36l-8 4.94-.2-.05a25.28 25.28 0 0 0-3.23-.62h-.16l-.19-.12-1.59-1.54 1-.13a10.11 10.11 0 0 0 2.15-.54l.12-.05a8.59 8.59 0 0 0 3.93-3.09zM12.64 8.94a6.4 6.4 0 0 1 6.43-6.36 6.27 6.27 0 0 1 3 .77 3.87 3.87 0 0 1 .61.38A6.34 6.34 0 0 1 25 6.46 6.5 6.5 0 0 1 25.49 9a6.3 6.3 0 0 1-1.21 3.7 5.77 5.77 0 0 1-2 1.8 8.86 8.86 0 0 1-.82.4l-.57.19a6.4 6.4 0 0 1-8.27-6.15zm5.21 33.32a35.31 35.31 0 0 0-.67 6.62v3H2.5v-6a26.87 26.87 0 0 1 4.92-15.61l.37-.5.35.12a7.5 7.5 0 0 0 2.27.44h.33c2.94.1 5.42 1.61 7.39 4.49l.11.15a9.06 9.06 0 0 1 .69 1l.1.17zm2.36-8.81A12.14 12.14 0 0 0 12.14 28a9.07 9.07 0 0 0-1.3-.13h-.28a5.51 5.51 0 0 1-.92-.13A5.29 5.29 0 0 1 8 27a4.67 4.67 0 0 1-.51-.36 5.8 5.8 0 0 1-.56-.52A5.34 5.34 0 0 1 6 24.63a5 5 0 0 1-.33-1.8 4.11 4.11 0 0 1 4.14-4.08h2.53l.06.43a4.88 4.88 0 0 0 .12.55 2.86 2.86 0 0 0 .83 1.27 2.94 2.94 0 0 0 2.07.86h2.47a20.84 20.84 0 0 1 2.84.19c.51.06 1 .14 1.51.23s1 .21 1.46.34l1.24.33-1.14.59a4.68 4.68 0 0 0 4 8.48l7.2-2.87.24.25a23.78 23.78 0 0 1 6.62 16.52v5.93H24.68v-3a28.17 28.17 0 0 0-.15-2.85 32.87 32.87 0 0 0-.79-4.52c-.16-.6-.34-1.26-.59-2L23 39c-.26-.77-.5-1.39-.74-2a16.1 16.1 0 0 0-2.05-3.55z" fill="#180041"/></g></g></svg>