<svg height="173" viewBox="0 0 168 173" width="168" xmlns="http://www.w3.org/2000/svg"><g><path d="m56 27v2h-7.75c2.3-1.27 4.94-2 7.75-2zm-26 2c0-1.1045695-.8954305-2-2-2s-2 .8954305-2 2h-4.09c-4.7748228-7.4791728-13.03661609-12.0041167-21.91-12v-2c.67 0 1.34.02 2 .07v-.07c0-1.1045695-.8954305-2-2-2v-2c2.05426131-.0000258 3.77457387 1.5560358 3.98 3.6.82223536-1.3637061 1.75894309-2.6550246 2.8-3.86-1.46595349-2.33019508-4.02703431-3.74294468-6.78-3.74v-2c3.24917585-.00251646 6.29660173 1.57528176 8.17 4.23.94-.95 1.96-1.83 3.03-2.63-2.64188507-3.52776872-6.79265399-5.60315317-11.2-5.6h7.75c2 1.1 3.73 2.63 5.1 4.45 1.12-.72 2.3-1.37 3.53-1.93-.6301727-.89581218-1.332511-1.7386181-2.1-2.52h2.7c.45.56.88 1.14 1.29 1.74 1.3-.48 2.63-.87 4-1.15-.11-.2-.23-.4-.36-.59h4.09v.07c1.3316761-.09401342 2.6683239-.09401342 4 0v-.07h4.09l-.37.59c1.38.28 2.72.67 4.01 1.15.4-.6.84-1.18 1.3-1.74h2.69c-.767489.7813819-1.4698273 1.62418782-2.1 2.52 1.23.56 2.41 1.2 3.54 1.93 1.3621307-1.82729042 3.0971426-3.3441476 5.09-4.45h7.75c-4.58 0-8.65 2.2-11.2 5.6 1.07.8 2.09 1.68 3.03 2.63 1.8733983-2.65471824 4.9208242-4.23251646 8.17-4.23v2c-2.7494113.00049493-5.3059385 1.41281575-6.77 3.74 1.03 1.2 1.97 2.5 2.79 3.86.2054261-2.0439642 1.9257387-3.6000258 3.98-3.6v2c-.542787-.0003326-1.0623978.2199628-1.4395493.6103147-.3771516.3903518-.5794484.9172307-.5604507 1.4596853.6656373-.0468219 1.332718-.0701698 2-.07v2c-9.2 0-17.3 4.78-21.91 12zm-22.25 0h-7.75v-2c2.81 0 5.46.73 7.75 2zm48.25-8v2c-5.6 0-10.65 2.3-14.28 6h-2.7c4.04-4.89 10.15-8 16.98-8zm-39.03 8h-2.69c-3.63-3.7-8.68-6-14.28-6v-2c6.83 0 12.94 3.11 16.97 8zm15.01-.4c.8222354-1.3637061 1.7589431-2.6550246 2.8-3.86-1.4636519-2.3308553-4.0226985-3.745664-6.775-3.745664s-5.3113481 1.4148087-6.775 3.745664c1.03 1.2 1.97 2.5 2.79 3.86.2051865-2.0441624 1.9255655-3.6005003 3.98-3.6005003s3.7748135 1.5563379 3.98 3.6005003zm14.29-11.86c1.3-.48 2.63-.87 4-1.15-4.6995622-7.81770992-13.153461-12.59953791-22.275-12.59953791s-17.5754378 4.78182799-22.275 12.59953791c1.38.28 2.72.67 4.01 1.15 4.0792346-6.0988414 10.9326966-9.76003682 18.27-9.76003682s14.1907654 3.66119542 18.27 9.76003682zm-5.43 2.71c1.13-.72 2.3-1.37 3.54-1.93-3.7374964-5.3509574-9.853008-8.53902102-16.38-8.53902102s-12.6425036 3.18806362-16.38 8.53902102c1.23.56 2.41 1.2 3.54 1.93 3.0138832-4.0679877 7.7771929-6.4671245 12.84-6.4671245s9.8261168 2.3991368 12.84 6.4671245zm-4.67 3.78c.94-.95 1.96-1.83 3.03-2.63-2.6390801-3.5328104-6.7902956-5.6133758-11.2-5.6133758s-8.5609199 2.0805654-11.2 5.6133758c1.07.8 2.09 1.68 3.03 2.63 1.8709847-2.6588796 4.9188119-4.2409827 8.17-4.2409827s6.2990153 1.5821031 8.17 4.2409827z" transform="translate(0 -1)"/><path d="m56 27v2h-7.75c2.3-1.27 4.94-2 7.75-2zm-26 2c0-1.1045695-.8954305-2-2-2s-2 .8954305-2 2h-4.09c-4.7748228-7.4791728-13.03661609-12.0041167-21.91-12v-2c.67 0 1.34.02 2 .07v-.07c0-1.1045695-.8954305-2-2-2v-2c2.05426131-.0000258 3.77457387 1.5560358 3.98 3.6.82223536-1.3637061 1.75894309-2.6550246 2.8-3.86-1.46595349-2.33019508-4.02703431-3.74294468-6.78-3.74v-2c3.24917585-.00251646 6.29660173 1.57528176 8.17 4.23.94-.95 1.96-1.83 3.03-2.63-2.64188507-3.52776872-6.79265399-5.60315317-11.2-5.6h7.75c2 1.1 3.73 2.63 5.1 4.45 1.12-.72 2.3-1.37 3.53-1.93-.6301727-.89581218-1.332511-1.7386181-2.1-2.52h2.7c.45.56.88 1.14 1.29 1.74 1.3-.48 2.63-.87 4-1.15-.11-.2-.23-.4-.36-.59h4.09v.07c1.3316761-.09401342 2.6683239-.09401342 4 0v-.07h4.09l-.37.59c1.38.28 2.72.67 4.01 1.15.4-.6.84-1.18 1.3-1.74h2.69c-.767489.7813819-1.4698273 1.62418782-2.1 2.52 1.23.56 2.41 1.2 3.54 1.93 1.3621307-1.82729042 3.0971426-3.3441476 5.09-4.45h7.75c-4.58 0-8.65 2.2-11.2 5.6 1.07.8 2.09 1.68 3.03 2.63 1.8733983-2.65471824 4.9208242-4.23251646 8.17-4.23v2c-2.7494113.00049493-5.3059385 1.41281575-6.77 3.74 1.03 1.2 1.97 2.5 2.79 3.86.2054261-2.0439642 1.9257387-3.6000258 3.98-3.6v2c-.542787-.0003326-1.0623978.2199628-1.4395493.6103147-.3771516.3903518-.5794484.9172307-.5604507 1.4596853.6656373-.0468219 1.332718-.0701698 2-.07v2c-9.2 0-17.3 4.78-21.91 12zm-22.25 0h-7.75v-2c2.81 0 5.46.73 7.75 2zm48.25-8v2c-5.6 0-10.65 2.3-14.28 6h-2.7c4.04-4.89 10.15-8 16.98-8zm-39.03 8h-2.69c-3.63-3.7-8.68-6-14.28-6v-2c6.83 0 12.94 3.11 16.97 8zm15.01-.4c.8222354-1.3637061 1.7589431-2.6550246 2.8-3.86-1.4636519-2.3308553-4.0226985-3.745664-6.775-3.745664s-5.3113481 1.4148087-6.775 3.745664c1.03 1.2 1.97 2.5 2.79 3.86.2051865-2.0441624 1.9255655-3.6005003 3.98-3.6005003s3.7748135 1.5563379 3.98 3.6005003zm14.29-11.86c1.3-.48 2.63-.87 4-1.15-4.6995622-7.81770992-13.153461-12.59953791-22.275-12.59953791s-17.5754378 4.78182799-22.275 12.59953791c1.38.28 2.72.67 4.01 1.15 4.0792346-6.0988414 10.9326966-9.76003682 18.27-9.76003682s14.1907654 3.66119542 18.27 9.76003682zm-5.43 2.71c1.13-.72 2.3-1.37 3.54-1.93-3.7374964-5.3509574-9.853008-8.53902102-16.38-8.53902102s-12.6425036 3.18806362-16.38 8.53902102c1.23.56 2.41 1.2 3.54 1.93 3.0138832-4.0679877 7.7771929-6.4671245 12.84-6.4671245s9.8261168 2.3991368 12.84 6.4671245zm-4.67 3.78c.94-.95 1.96-1.83 3.03-2.63-2.6390801-3.5328104-6.7902956-5.6133758-11.2-5.6133758s-8.5609199 2.0805654-11.2 5.6133758c1.07.8 2.09 1.68 3.03 2.63 1.8709847-2.6588796 4.9188119-4.2409827 8.17-4.2409827s6.2990153 1.5821031 8.17 4.2409827z" transform="translate(56 -1)"/><path d="m56 27v2h-7.75c2.3-1.27 4.94-2 7.75-2zm-26 2c0-1.1045695-.8954305-2-2-2s-2 .8954305-2 2h-4.09c-4.7748228-7.4791728-13.03661609-12.0041167-21.91-12v-2c.67 0 1.34.02 2 .07v-.07c0-1.1045695-.8954305-2-2-2v-2c2.05426131-.0000258 3.77457387 1.5560358 3.98 3.6.82223536-1.3637061 1.75894309-2.6550246 2.8-3.86-1.46595349-2.33019508-4.02703431-3.74294468-6.78-3.74v-2c3.24917585-.00251646 6.29660173 1.57528176 8.17 4.23.94-.95 1.96-1.83 3.03-2.63-2.64188507-3.52776872-6.79265399-5.60315317-11.2-5.6h7.75c2 1.1 3.73 2.63 5.1 4.45 1.12-.72 2.3-1.37 3.53-1.93-.6301727-.89581218-1.332511-1.7386181-2.1-2.52h2.7c.45.56.88 1.14 1.29 1.74 1.3-.48 2.63-.87 4-1.15-.11-.2-.23-.4-.36-.59h4.09v.07c1.3316761-.09401342 2.6683239-.09401342 4 0v-.07h4.09l-.37.59c1.38.28 2.72.67 4.01 1.15.4-.6.84-1.18 1.3-1.74h2.69c-.767489.7813819-1.4698273 1.62418782-2.1 2.52 1.23.56 2.41 1.2 3.54 1.93 1.3621307-1.82729042 3.0971426-3.3441476 5.09-4.45h7.75c-4.58 0-8.65 2.2-11.2 5.6 1.07.8 2.09 1.68 3.03 2.63 1.8733983-2.65471824 4.9208242-4.23251646 8.17-4.23v2c-2.7494113.00049493-5.3059385 1.41281575-6.77 3.74 1.03 1.2 1.97 2.5 2.79 3.86.2054261-2.0439642 1.9257387-3.6000258 3.98-3.6v2c-.542787-.0003326-1.0623978.2199628-1.4395493.6103147-.3771516.3903518-.5794484.9172307-.5604507 1.4596853.6656373-.0468219 1.332718-.0701698 2-.07v2c-9.2 0-17.3 4.78-21.91 12zm-22.25 0h-7.75v-2c2.81 0 5.46.73 7.75 2zm48.25-8v2c-5.6 0-10.65 2.3-14.28 6h-2.7c4.04-4.89 10.15-8 16.98-8zm-39.03 8h-2.69c-3.63-3.7-8.68-6-14.28-6v-2c6.83 0 12.94 3.11 16.97 8zm15.01-.4c.8222354-1.3637061 1.7589431-2.6550246 2.8-3.86-1.4636519-2.3308553-4.0226985-3.745664-6.775-3.745664s-5.3113481 1.4148087-6.775 3.745664c1.03 1.2 1.97 2.5 2.79 3.86.2051865-2.0441624 1.9255655-3.6005003 3.98-3.6005003s3.7748135 1.5563379 3.98 3.6005003zm14.29-11.86c1.3-.48 2.63-.87 4-1.15-4.6995622-7.81770992-13.153461-12.59953791-22.275-12.59953791s-17.5754378 4.78182799-22.275 12.59953791c1.38.28 2.72.67 4.01 1.15 4.0792346-6.0988414 10.9326966-9.76003682 18.27-9.76003682s14.1907654 3.66119542 18.27 9.76003682zm-5.43 2.71c1.13-.72 2.3-1.37 3.54-1.93-3.7374964-5.3509574-9.853008-8.53902102-16.38-8.53902102s-12.6425036 3.18806362-16.38 8.53902102c1.23.56 2.41 1.2 3.54 1.93 3.0138832-4.0679877 7.7771929-6.4671245 12.84-6.4671245s9.8261168 2.3991368 12.84 6.4671245zm-4.67 3.78c.94-.95 1.96-1.83 3.03-2.63-2.6390801-3.5328104-6.7902956-5.6133758-11.2-5.6133758s-8.5609199 2.0805654-11.2 5.6133758c1.07.8 2.09 1.68 3.03 2.63 1.8709847-2.6588796 4.9188119-4.2409827 8.17-4.2409827s6.2990153 1.5821031 8.17 4.2409827z" transform="translate(112 -1)"/><path d="m56 27v2h-7.75c2.3-1.27 4.94-2 7.75-2zm-26 2c0-1.1045695-.8954305-2-2-2s-2 .8954305-2 2h-4.09c-4.7748228-7.4791728-13.03661609-12.0041167-21.91-12v-2c.67 0 1.34.02 2 .07v-.07c0-1.1045695-.8954305-2-2-2v-2c2.05426131-.0000258 3.77457387 1.5560358 3.98 3.6.82223536-1.3637061 1.75894309-2.6550246 2.8-3.86-1.46595349-2.33019508-4.02703431-3.74294468-6.78-3.74v-2c3.24917585-.00251646 6.29660173 1.57528176 8.17 4.23.94-.95 1.96-1.83 3.03-2.63-2.64188507-3.52776872-6.79265399-5.60315317-11.2-5.6h7.75c2 1.1 3.73 2.63 5.1 4.45 1.12-.72 2.3-1.37 3.53-1.93-.6301727-.89581218-1.332511-1.7386181-2.1-2.52h2.7c.45.56.88 1.14 1.29 1.74 1.3-.48 2.63-.87 4-1.15-.11-.2-.23-.4-.36-.59h4.09v.07c1.3316761-.09401342 2.6683239-.09401342 4 0v-.07h4.09l-.37.59c1.38.28 2.72.67 4.01 1.15.4-.6.84-1.18 1.3-1.74h2.69c-.767489.7813819-1.4698273 1.62418782-2.1 2.52 1.23.56 2.41 1.2 3.54 1.93 1.3621307-1.82729042 3.0971426-3.3441476 5.09-4.45h7.75c-4.58 0-8.65 2.2-11.2 5.6 1.07.8 2.09 1.68 3.03 2.63 1.8733983-2.65471824 4.9208242-4.23251646 8.17-4.23v2c-2.7494113.00049493-5.3059385 1.41281575-6.77 3.74 1.03 1.2 1.97 2.5 2.79 3.86.2054261-2.0439642 1.9257387-3.6000258 3.98-3.6v2c-.542787-.0003326-1.0623978.2199628-1.4395493.6103147-.3771516.3903518-.5794484.9172307-.5604507 1.4596853.6656373-.0468219 1.332718-.0701698 2-.07v2c-9.2 0-17.3 4.78-21.91 12zm-22.25 0h-7.75v-2c2.81 0 5.46.73 7.75 2zm48.25-8v2c-5.6 0-10.65 2.3-14.28 6h-2.7c4.04-4.89 10.15-8 16.98-8zm-39.03 8h-2.69c-3.63-3.7-8.68-6-14.28-6v-2c6.83 0 12.94 3.11 16.97 8zm15.01-.4c.8222354-1.3637061 1.7589431-2.6550246 2.8-3.86-1.4636519-2.3308553-4.0226985-3.745664-6.775-3.745664s-5.3113481 1.4148087-6.775 3.745664c1.03 1.2 1.97 2.5 2.79 3.86.2051865-2.0441624 1.9255655-3.6005003 3.98-3.6005003s3.7748135 1.5563379 3.98 3.6005003zm14.29-11.86c1.3-.48 2.63-.87 4-1.15-4.6995622-7.81770992-13.153461-12.59953791-22.275-12.59953791s-17.5754378 4.78182799-22.275 12.59953791c1.38.28 2.72.67 4.01 1.15 4.0792346-6.0988414 10.9326966-9.76003682 18.27-9.76003682s14.1907654 3.66119542 18.27 9.76003682zm-5.43 2.71c1.13-.72 2.3-1.37 3.54-1.93-3.7374964-5.3509574-9.853008-8.53902102-16.38-8.53902102s-12.6425036 3.18806362-16.38 8.53902102c1.23.56 2.41 1.2 3.54 1.93 3.0138832-4.0679877 7.7771929-6.4671245 12.84-6.4671245s9.8261168 2.3991368 12.84 6.4671245zm-4.67 3.78c.94-.95 1.96-1.83 3.03-2.63-2.6390801-3.5328104-6.7902956-5.6133758-11.2-5.6133758s-8.5609199 2.0805654-11.2 5.6133758c1.07.8 2.09 1.68 3.03 2.63 1.8709847-2.6588796 4.9188119-4.2409827 8.17-4.2409827s6.2990153 1.5821031 8.17 4.2409827z" transform="translate(0 28)"/><path d="m56 27v2h-7.75c2.3-1.27 4.94-2 7.75-2zm-26 2c0-1.1045695-.8954305-2-2-2s-2 .8954305-2 2h-4.09c-4.7748228-7.4791728-13.03661609-12.0041167-21.91-12v-2c.67 0 1.34.02 2 .07v-.07c0-1.1045695-.8954305-2-2-2v-2c2.05426131-.0000258 3.77457387 1.5560358 3.98 3.6.82223536-1.3637061 1.75894309-2.6550246 2.8-3.86-1.46595349-2.33019508-4.02703431-3.74294468-6.78-3.74v-2c3.24917585-.00251646 6.29660173 1.57528176 8.17 4.23.94-.95 1.96-1.83 3.03-2.63-2.64188507-3.52776872-6.79265399-5.60315317-11.2-5.6h7.75c2 1.1 3.73 2.63 5.1 4.45 1.12-.72 2.3-1.37 3.53-1.93-.6301727-.89581218-1.332511-1.7386181-2.1-2.52h2.7c.45.56.88 1.14 1.29 1.74 1.3-.48 2.63-.87 4-1.15-.11-.2-.23-.4-.36-.59h4.09v.07c1.3316761-.09401342 2.6683239-.09401342 4 0v-.07h4.09l-.37.59c1.38.28 2.72.67 4.01 1.15.4-.6.84-1.18 1.3-1.74h2.69c-.767489.7813819-1.4698273 1.62418782-2.1 2.52 1.23.56 2.41 1.2 3.54 1.93 1.3621307-1.82729042 3.0971426-3.3441476 5.09-4.45h7.75c-4.58 0-8.65 2.2-11.2 5.6 1.07.8 2.09 1.68 3.03 2.63 1.8733983-2.65471824 4.9208242-4.23251646 8.17-4.23v2c-2.7494113.00049493-5.3059385 1.41281575-6.77 3.74 1.03 1.2 1.97 2.5 2.79 3.86.2054261-2.0439642 1.9257387-3.6000258 3.98-3.6v2c-.542787-.0003326-1.0623978.2199628-1.4395493.6103147-.3771516.3903518-.5794484.9172307-.5604507 1.4596853.6656373-.0468219 1.332718-.0701698 2-.07v2c-9.2 0-17.3 4.78-21.91 12zm-22.25 0h-7.75v-2c2.81 0 5.46.73 7.75 2zm48.25-8v2c-5.6 0-10.65 2.3-14.28 6h-2.7c4.04-4.89 10.15-8 16.98-8zm-39.03 8h-2.69c-3.63-3.7-8.68-6-14.28-6v-2c6.83 0 12.94 3.11 16.97 8zm15.01-.4c.8222354-1.3637061 1.7589431-2.6550246 2.8-3.86-1.4636519-2.3308553-4.0226985-3.745664-6.775-3.745664s-5.3113481 1.4148087-6.775 3.745664c1.03 1.2 1.97 2.5 2.79 3.86.2051865-2.0441624 1.9255655-3.6005003 3.98-3.6005003s3.7748135 1.5563379 3.98 3.6005003zm14.29-11.86c1.3-.48 2.63-.87 4-1.15-4.6995622-7.81770992-13.153461-12.59953791-22.275-12.59953791s-17.5754378 4.78182799-22.275 12.59953791c1.38.28 2.72.67 4.01 1.15 4.0792346-6.0988414 10.9326966-9.76003682 18.27-9.76003682s14.1907654 3.66119542 18.27 9.76003682zm-5.43 2.71c1.13-.72 2.3-1.37 3.54-1.93-3.7374964-5.3509574-9.853008-8.53902102-16.38-8.53902102s-12.6425036 3.18806362-16.38 8.53902102c1.23.56 2.41 1.2 3.54 1.93 3.0138832-4.0679877 7.7771929-6.4671245 12.84-6.4671245s9.8261168 2.3991368 12.84 6.4671245zm-4.67 3.78c.94-.95 1.96-1.83 3.03-2.63-2.6390801-3.5328104-6.7902956-5.6133758-11.2-5.6133758s-8.5609199 2.0805654-11.2 5.6133758c1.07.8 2.09 1.68 3.03 2.63 1.8709847-2.6588796 4.9188119-4.2409827 8.17-4.2409827s6.2990153 1.5821031 8.17 4.2409827z" transform="translate(56 28)"/><path d="m56 27v2h-7.75c2.3-1.27 4.94-2 7.75-2zm-26 2c0-1.1045695-.8954305-2-2-2s-2 .8954305-2 2h-4.09c-4.7748228-7.4791728-13.03661609-12.0041167-21.91-12v-2c.67 0 1.34.02 2 .07v-.07c0-1.1045695-.8954305-2-2-2v-2c2.05426131-.0000258 3.77457387 1.5560358 3.98 3.6.82223536-1.3637061 1.75894309-2.6550246 2.8-3.86-1.46595349-2.33019508-4.02703431-3.74294468-6.78-3.74v-2c3.24917585-.00251646 6.29660173 1.57528176 8.17 4.23.94-.95 1.96-1.83 3.03-2.63-2.64188507-3.52776872-6.79265399-5.60315317-11.2-5.6h7.75c2 1.1 3.73 2.63 5.1 4.45 1.12-.72 2.3-1.37 3.53-1.93-.6301727-.89581218-1.332511-1.7386181-2.1-2.52h2.7c.45.56.88 1.14 1.29 1.74 1.3-.48 2.63-.87 4-1.15-.11-.2-.23-.4-.36-.59h4.09v.07c1.3316761-.09401342 2.6683239-.09401342 4 0v-.07h4.09l-.37.59c1.38.28 2.72.67 4.01 1.15.4-.6.84-1.18 1.3-1.74h2.69c-.767489.7813819-1.4698273 1.62418782-2.1 2.52 1.23.56 2.41 1.2 3.54 1.93 1.3621307-1.82729042 3.0971426-3.3441476 5.09-4.45h7.75c-4.58 0-8.65 2.2-11.2 5.6 1.07.8 2.09 1.68 3.03 2.63 1.8733983-2.65471824 4.9208242-4.23251646 8.17-4.23v2c-2.7494113.00049493-5.3059385 1.41281575-6.77 3.74 1.03 1.2 1.97 2.5 2.79 3.86.2054261-2.0439642 1.9257387-3.6000258 3.98-3.6v2c-.542787-.0003326-1.0623978.2199628-1.4395493.6103147-.3771516.3903518-.5794484.9172307-.5604507 1.4596853.6656373-.0468219 1.332718-.0701698 2-.07v2c-9.2 0-17.3 4.78-21.91 12zm-22.25 0h-7.75v-2c2.81 0 5.46.73 7.75 2zm48.25-8v2c-5.6 0-10.65 2.3-14.28 6h-2.7c4.04-4.89 10.15-8 16.98-8zm-39.03 8h-2.69c-3.63-3.7-8.68-6-14.28-6v-2c6.83 0 12.94 3.11 16.97 8zm15.01-.4c.8222354-1.3637061 1.7589431-2.6550246 2.8-3.86-1.4636519-2.3308553-4.0226985-3.745664-6.775-3.745664s-5.3113481 1.4148087-6.775 3.745664c1.03 1.2 1.97 2.5 2.79 3.86.2051865-2.0441624 1.9255655-3.6005003 3.98-3.6005003s3.7748135 1.5563379 3.98 3.6005003zm14.29-11.86c1.3-.48 2.63-.87 4-1.15-4.6995622-7.81770992-13.153461-12.59953791-22.275-12.59953791s-17.5754378 4.78182799-22.275 12.59953791c1.38.28 2.72.67 4.01 1.15 4.0792346-6.0988414 10.9326966-9.76003682 18.27-9.76003682s14.1907654 3.66119542 18.27 9.76003682zm-5.43 2.71c1.13-.72 2.3-1.37 3.54-1.93-3.7374964-5.3509574-9.853008-8.53902102-16.38-8.53902102s-12.6425036 3.18806362-16.38 8.53902102c1.23.56 2.41 1.2 3.54 1.93 3.0138832-4.0679877 7.7771929-6.4671245 12.84-6.4671245s9.8261168 2.3991368 12.84 6.4671245zm-4.67 3.78c.94-.95 1.96-1.83 3.03-2.63-2.6390801-3.5328104-6.7902956-5.6133758-11.2-5.6133758s-8.5609199 2.0805654-11.2 5.6133758c1.07.8 2.09 1.68 3.03 2.63 1.8709847-2.6588796 4.9188119-4.2409827 8.17-4.2409827s6.2990153 1.5821031 8.17 4.2409827z" transform="translate(112 28)"/><path d="m56 27v2h-7.75c2.3-1.27 4.94-2 7.75-2zm-26 2c0-1.1045695-.8954305-2-2-2s-2 .8954305-2 2h-4.09c-4.7748228-7.4791728-13.03661609-12.0041167-21.91-12v-2c.67 0 1.34.02 2 .07v-.07c0-1.1045695-.8954305-2-2-2v-2c2.05426131-.0000258 3.77457387 1.5560358 3.98 3.6.82223536-1.3637061 1.75894309-2.6550246 2.8-3.86-1.46595349-2.33019508-4.02703431-3.74294468-6.78-3.74v-2c3.24917585-.00251646 6.29660173 1.57528176 8.17 4.23.94-.95 1.96-1.83 3.03-2.63-2.64188507-3.52776872-6.79265399-5.60315317-11.2-5.6h7.75c2 1.1 3.73 2.63 5.1 4.45 1.12-.72 2.3-1.37 3.53-1.93-.6301727-.89581218-1.332511-1.7386181-2.1-2.52h2.7c.45.56.88 1.14 1.29 1.74 1.3-.48 2.63-.87 4-1.15-.11-.2-.23-.4-.36-.59h4.09v.07c1.3316761-.09401342 2.6683239-.09401342 4 0v-.07h4.09l-.37.59c1.38.28 2.72.67 4.01 1.15.4-.6.84-1.18 1.3-1.74h2.69c-.767489.7813819-1.4698273 1.62418782-2.1 2.52 1.23.56 2.41 1.2 3.54 1.93 1.3621307-1.82729042 3.0971426-3.3441476 5.09-4.45h7.75c-4.58 0-8.65 2.2-11.2 5.6 1.07.8 2.09 1.68 3.03 2.63 1.8733983-2.65471824 4.9208242-4.23251646 8.17-4.23v2c-2.7494113.00049493-5.3059385 1.41281575-6.77 3.74 1.03 1.2 1.97 2.5 2.79 3.86.2054261-2.0439642 1.9257387-3.6000258 3.98-3.6v2c-.542787-.0003326-1.0623978.2199628-1.4395493.6103147-.3771516.3903518-.5794484.9172307-.5604507 1.4596853.6656373-.0468219 1.332718-.0701698 2-.07v2c-9.2 0-17.3 4.78-21.91 12zm-22.25 0h-7.75v-2c2.81 0 5.46.73 7.75 2zm48.25-8v2c-5.6 0-10.65 2.3-14.28 6h-2.7c4.04-4.89 10.15-8 16.98-8zm-39.03 8h-2.69c-3.63-3.7-8.68-6-14.28-6v-2c6.83 0 12.94 3.11 16.97 8zm15.01-.4c.8222354-1.3637061 1.7589431-2.6550246 2.8-3.86-1.4636519-2.3308553-4.0226985-3.745664-6.775-3.745664s-5.3113481 1.4148087-6.775 3.745664c1.03 1.2 1.97 2.5 2.79 3.86.2051865-2.0441624 1.9255655-3.6005003 3.98-3.6005003s3.7748135 1.5563379 3.98 3.6005003zm14.29-11.86c1.3-.48 2.63-.87 4-1.15-4.6995622-7.81770992-13.153461-12.59953791-22.275-12.59953791s-17.5754378 4.78182799-22.275 12.59953791c1.38.28 2.72.67 4.01 1.15 4.0792346-6.0988414 10.9326966-9.76003682 18.27-9.76003682s14.1907654 3.66119542 18.27 9.76003682zm-5.43 2.71c1.13-.72 2.3-1.37 3.54-1.93-3.7374964-5.3509574-9.853008-8.53902102-16.38-8.53902102s-12.6425036 3.18806362-16.38 8.53902102c1.23.56 2.41 1.2 3.54 1.93 3.0138832-4.0679877 7.7771929-6.4671245 12.84-6.4671245s9.8261168 2.3991368 12.84 6.4671245zm-4.67 3.78c.94-.95 1.96-1.83 3.03-2.63-2.6390801-3.5328104-6.7902956-5.6133758-11.2-5.6133758s-8.5609199 2.0805654-11.2 5.6133758c1.07.8 2.09 1.68 3.03 2.63 1.8709847-2.6588796 4.9188119-4.2409827 8.17-4.2409827s6.2990153 1.5821031 8.17 4.2409827z" transform="translate(0 57)"/><path d="m56 27v2h-7.75c2.3-1.27 4.94-2 7.75-2zm-26 2c0-1.1045695-.8954305-2-2-2s-2 .8954305-2 2h-4.09c-4.7748228-7.4791728-13.03661609-12.0041167-21.91-12v-2c.67 0 1.34.02 2 .07v-.07c0-1.1045695-.8954305-2-2-2v-2c2.05426131-.0000258 3.77457387 1.5560358 3.98 3.6.82223536-1.3637061 1.75894309-2.6550246 2.8-3.86-1.46595349-2.33019508-4.02703431-3.74294468-6.78-3.74v-2c3.24917585-.00251646 6.29660173 1.57528176 8.17 4.23.94-.95 1.96-1.83 3.03-2.63-2.64188507-3.52776872-6.79265399-5.60315317-11.2-5.6h7.75c2 1.1 3.73 2.63 5.1 4.45 1.12-.72 2.3-1.37 3.53-1.93-.6301727-.89581218-1.332511-1.7386181-2.1-2.52h2.7c.45.56.88 1.14 1.29 1.74 1.3-.48 2.63-.87 4-1.15-.11-.2-.23-.4-.36-.59h4.09v.07c1.3316761-.09401342 2.6683239-.09401342 4 0v-.07h4.09l-.37.59c1.38.28 2.72.67 4.01 1.15.4-.6.84-1.18 1.3-1.74h2.69c-.767489.7813819-1.4698273 1.62418782-2.1 2.52 1.23.56 2.41 1.2 3.54 1.93 1.3621307-1.82729042 3.0971426-3.3441476 5.09-4.45h7.75c-4.58 0-8.65 2.2-11.2 5.6 1.07.8 2.09 1.68 3.03 2.63 1.8733983-2.65471824 4.9208242-4.23251646 8.17-4.23v2c-2.7494113.00049493-5.3059385 1.41281575-6.77 3.74 1.03 1.2 1.97 2.5 2.79 3.86.2054261-2.0439642 1.9257387-3.6000258 3.98-3.6v2c-.542787-.0003326-1.0623978.2199628-1.4395493.6103147-.3771516.3903518-.5794484.9172307-.5604507 1.4596853.6656373-.0468219 1.332718-.0701698 2-.07v2c-9.2 0-17.3 4.78-21.91 12zm-22.25 0h-7.75v-2c2.81 0 5.46.73 7.75 2zm48.25-8v2c-5.6 0-10.65 2.3-14.28 6h-2.7c4.04-4.89 10.15-8 16.98-8zm-39.03 8h-2.69c-3.63-3.7-8.68-6-14.28-6v-2c6.83 0 12.94 3.11 16.97 8zm15.01-.4c.8222354-1.3637061 1.7589431-2.6550246 2.8-3.86-1.4636519-2.3308553-4.0226985-3.745664-6.775-3.745664s-5.3113481 1.4148087-6.775 3.745664c1.03 1.2 1.97 2.5 2.79 3.86.2051865-2.0441624 1.9255655-3.6005003 3.98-3.6005003s3.7748135 1.5563379 3.98 3.6005003zm14.29-11.86c1.3-.48 2.63-.87 4-1.15-4.6995622-7.81770992-13.153461-12.59953791-22.275-12.59953791s-17.5754378 4.78182799-22.275 12.59953791c1.38.28 2.72.67 4.01 1.15 4.0792346-6.0988414 10.9326966-9.76003682 18.27-9.76003682s14.1907654 3.66119542 18.27 9.76003682zm-5.43 2.71c1.13-.72 2.3-1.37 3.54-1.93-3.7374964-5.3509574-9.853008-8.53902102-16.38-8.53902102s-12.6425036 3.18806362-16.38 8.53902102c1.23.56 2.41 1.2 3.54 1.93 3.0138832-4.0679877 7.7771929-6.4671245 12.84-6.4671245s9.8261168 2.3991368 12.84 6.4671245zm-4.67 3.78c.94-.95 1.96-1.83 3.03-2.63-2.6390801-3.5328104-6.7902956-5.6133758-11.2-5.6133758s-8.5609199 2.0805654-11.2 5.6133758c1.07.8 2.09 1.68 3.03 2.63 1.8709847-2.6588796 4.9188119-4.2409827 8.17-4.2409827s6.2990153 1.5821031 8.17 4.2409827z" transform="translate(56 57)"/><path d="m56 27v2h-7.75c2.3-1.27 4.94-2 7.75-2zm-26 2c0-1.1045695-.8954305-2-2-2s-2 .8954305-2 2h-4.09c-4.7748228-7.4791728-13.03661609-12.0041167-21.91-12v-2c.67 0 1.34.02 2 .07v-.07c0-1.1045695-.8954305-2-2-2v-2c2.05426131-.0000258 3.77457387 1.5560358 3.98 3.6.82223536-1.3637061 1.75894309-2.6550246 2.8-3.86-1.46595349-2.33019508-4.02703431-3.74294468-6.78-3.74v-2c3.24917585-.00251646 6.29660173 1.57528176 8.17 4.23.94-.95 1.96-1.83 3.03-2.63-2.64188507-3.52776872-6.79265399-5.60315317-11.2-5.6h7.75c2 1.1 3.73 2.63 5.1 4.45 1.12-.72 2.3-1.37 3.53-1.93-.6301727-.89581218-1.332511-1.7386181-2.1-2.52h2.7c.45.56.88 1.14 1.29 1.74 1.3-.48 2.63-.87 4-1.15-.11-.2-.23-.4-.36-.59h4.09v.07c1.3316761-.09401342 2.6683239-.09401342 4 0v-.07h4.09l-.37.59c1.38.28 2.72.67 4.01 1.15.4-.6.84-1.18 1.3-1.74h2.69c-.767489.7813819-1.4698273 1.62418782-2.1 2.52 1.23.56 2.41 1.2 3.54 1.93 1.3621307-1.82729042 3.0971426-3.3441476 5.09-4.45h7.75c-4.58 0-8.65 2.2-11.2 5.6 1.07.8 2.09 1.68 3.03 2.63 1.8733983-2.65471824 4.9208242-4.23251646 8.17-4.23v2c-2.7494113.00049493-5.3059385 1.41281575-6.77 3.74 1.03 1.2 1.97 2.5 2.79 3.86.2054261-2.0439642 1.9257387-3.6000258 3.98-3.6v2c-.542787-.0003326-1.0623978.2199628-1.4395493.6103147-.3771516.3903518-.5794484.9172307-.5604507 1.4596853.6656373-.0468219 1.332718-.0701698 2-.07v2c-9.2 0-17.3 4.78-21.91 12zm-22.25 0h-7.75v-2c2.81 0 5.46.73 7.75 2zm48.25-8v2c-5.6 0-10.65 2.3-14.28 6h-2.7c4.04-4.89 10.15-8 16.98-8zm-39.03 8h-2.69c-3.63-3.7-8.68-6-14.28-6v-2c6.83 0 12.94 3.11 16.97 8zm15.01-.4c.8222354-1.3637061 1.7589431-2.6550246 2.8-3.86-1.4636519-2.3308553-4.0226985-3.745664-6.775-3.745664s-5.3113481 1.4148087-6.775 3.745664c1.03 1.2 1.97 2.5 2.79 3.86.2051865-2.0441624 1.9255655-3.6005003 3.98-3.6005003s3.7748135 1.5563379 3.98 3.6005003zm14.29-11.86c1.3-.48 2.63-.87 4-1.15-4.6995622-7.81770992-13.153461-12.59953791-22.275-12.59953791s-17.5754378 4.78182799-22.275 12.59953791c1.38.28 2.72.67 4.01 1.15 4.0792346-6.0988414 10.9326966-9.76003682 18.27-9.76003682s14.1907654 3.66119542 18.27 9.76003682zm-5.43 2.71c1.13-.72 2.3-1.37 3.54-1.93-3.7374964-5.3509574-9.853008-8.53902102-16.38-8.53902102s-12.6425036 3.18806362-16.38 8.53902102c1.23.56 2.41 1.2 3.54 1.93 3.0138832-4.0679877 7.7771929-6.4671245 12.84-6.4671245s9.8261168 2.3991368 12.84 6.4671245zm-4.67 3.78c.94-.95 1.96-1.83 3.03-2.63-2.6390801-3.5328104-6.7902956-5.6133758-11.2-5.6133758s-8.5609199 2.0805654-11.2 5.6133758c1.07.8 2.09 1.68 3.03 2.63 1.8709847-2.6588796 4.9188119-4.2409827 8.17-4.2409827s6.2990153 1.5821031 8.17 4.2409827z" transform="translate(112 57)"/><path d="m56 27v2h-7.75c2.3-1.27 4.94-2 7.75-2zm-26 2c0-1.1045695-.8954305-2-2-2s-2 .8954305-2 2h-4.09c-4.7748228-7.4791728-13.03661609-12.0041167-21.91-12v-2c.67 0 1.34.02 2 .07v-.07c0-1.1045695-.8954305-2-2-2v-2c2.05426131-.0000258 3.77457387 1.5560358 3.98 3.6.82223536-1.3637061 1.75894309-2.6550246 2.8-3.86-1.46595349-2.33019508-4.02703431-3.74294468-6.78-3.74v-2c3.24917585-.00251646 6.29660173 1.57528176 8.17 4.23.94-.95 1.96-1.83 3.03-2.63-2.64188507-3.52776872-6.79265399-5.60315317-11.2-5.6h7.75c2 1.1 3.73 2.63 5.1 4.45 1.12-.72 2.3-1.37 3.53-1.93-.6301727-.89581218-1.332511-1.7386181-2.1-2.52h2.7c.45.56.88 1.14 1.29 1.74 1.3-.48 2.63-.87 4-1.15-.11-.2-.23-.4-.36-.59h4.09v.07c1.3316761-.09401342 2.6683239-.09401342 4 0v-.07h4.09l-.37.59c1.38.28 2.72.67 4.01 1.15.4-.6.84-1.18 1.3-1.74h2.69c-.767489.7813819-1.4698273 1.62418782-2.1 2.52 1.23.56 2.41 1.2 3.54 1.93 1.3621307-1.82729042 3.0971426-3.3441476 5.09-4.45h7.75c-4.58 0-8.65 2.2-11.2 5.6 1.07.8 2.09 1.68 3.03 2.63 1.8733983-2.65471824 4.9208242-4.23251646 8.17-4.23v2c-2.7494113.00049493-5.3059385 1.41281575-6.77 3.74 1.03 1.2 1.97 2.5 2.79 3.86.2054261-2.0439642 1.9257387-3.6000258 3.98-3.6v2c-.542787-.0003326-1.0623978.2199628-1.4395493.6103147-.3771516.3903518-.5794484.9172307-.5604507 1.4596853.6656373-.0468219 1.332718-.0701698 2-.07v2c-9.2 0-17.3 4.78-21.91 12zm-22.25 0h-7.75v-2c2.81 0 5.46.73 7.75 2zm48.25-8v2c-5.6 0-10.65 2.3-14.28 6h-2.7c4.04-4.89 10.15-8 16.98-8zm-39.03 8h-2.69c-3.63-3.7-8.68-6-14.28-6v-2c6.83 0 12.94 3.11 16.97 8zm15.01-.4c.8222354-1.3637061 1.7589431-2.6550246 2.8-3.86-1.4636519-2.3308553-4.0226985-3.745664-6.775-3.745664s-5.3113481 1.4148087-6.775 3.745664c1.03 1.2 1.97 2.5 2.79 3.86.2051865-2.0441624 1.9255655-3.6005003 3.98-3.6005003s3.7748135 1.5563379 3.98 3.6005003zm14.29-11.86c1.3-.48 2.63-.87 4-1.15-4.6995622-7.81770992-13.153461-12.59953791-22.275-12.59953791s-17.5754378 4.78182799-22.275 12.59953791c1.38.28 2.72.67 4.01 1.15 4.0792346-6.0988414 10.9326966-9.76003682 18.27-9.76003682s14.1907654 3.66119542 18.27 9.76003682zm-5.43 2.71c1.13-.72 2.3-1.37 3.54-1.93-3.7374964-5.3509574-9.853008-8.53902102-16.38-8.53902102s-12.6425036 3.18806362-16.38 8.53902102c1.23.56 2.41 1.2 3.54 1.93 3.0138832-4.0679877 7.7771929-6.4671245 12.84-6.4671245s9.8261168 2.3991368 12.84 6.4671245zm-4.67 3.78c.94-.95 1.96-1.83 3.03-2.63-2.6390801-3.5328104-6.7902956-5.6133758-11.2-5.6133758s-8.5609199 2.0805654-11.2 5.6133758c1.07.8 2.09 1.68 3.03 2.63 1.8709847-2.6588796 4.9188119-4.2409827 8.17-4.2409827s6.2990153 1.5821031 8.17 4.2409827z" transform="translate(0 86)"/><path d="m56 27v2h-7.75c2.3-1.27 4.94-2 7.75-2zm-26 2c0-1.1045695-.8954305-2-2-2s-2 .8954305-2 2h-4.09c-4.7748228-7.4791728-13.03661609-12.0041167-21.91-12v-2c.67 0 1.34.02 2 .07v-.07c0-1.1045695-.8954305-2-2-2v-2c2.05426131-.0000258 3.77457387 1.5560358 3.98 3.6.82223536-1.3637061 1.75894309-2.6550246 2.8-3.86-1.46595349-2.33019508-4.02703431-3.74294468-6.78-3.74v-2c3.24917585-.00251646 6.29660173 1.57528176 8.17 4.23.94-.95 1.96-1.83 3.03-2.63-2.64188507-3.52776872-6.79265399-5.60315317-11.2-5.6h7.75c2 1.1 3.73 2.63 5.1 4.45 1.12-.72 2.3-1.37 3.53-1.93-.6301727-.89581218-1.332511-1.7386181-2.1-2.52h2.7c.45.56.88 1.14 1.29 1.74 1.3-.48 2.63-.87 4-1.15-.11-.2-.23-.4-.36-.59h4.09v.07c1.3316761-.09401342 2.6683239-.09401342 4 0v-.07h4.09l-.37.59c1.38.28 2.72.67 4.01 1.15.4-.6.84-1.18 1.3-1.74h2.69c-.767489.7813819-1.4698273 1.62418782-2.1 2.52 1.23.56 2.41 1.2 3.54 1.93 1.3621307-1.82729042 3.0971426-3.3441476 5.09-4.45h7.75c-4.58 0-8.65 2.2-11.2 5.6 1.07.8 2.09 1.68 3.03 2.63 1.8733983-2.65471824 4.9208242-4.23251646 8.17-4.23v2c-2.7494113.00049493-5.3059385 1.41281575-6.77 3.74 1.03 1.2 1.97 2.5 2.79 3.86.2054261-2.0439642 1.9257387-3.6000258 3.98-3.6v2c-.542787-.0003326-1.0623978.2199628-1.4395493.6103147-.3771516.3903518-.5794484.9172307-.5604507 1.4596853.6656373-.0468219 1.332718-.0701698 2-.07v2c-9.2 0-17.3 4.78-21.91 12zm-22.25 0h-7.75v-2c2.81 0 5.46.73 7.75 2zm48.25-8v2c-5.6 0-10.65 2.3-14.28 6h-2.7c4.04-4.89 10.15-8 16.98-8zm-39.03 8h-2.69c-3.63-3.7-8.68-6-14.28-6v-2c6.83 0 12.94 3.11 16.97 8zm15.01-.4c.8222354-1.3637061 1.7589431-2.6550246 2.8-3.86-1.4636519-2.3308553-4.0226985-3.745664-6.775-3.745664s-5.3113481 1.4148087-6.775 3.745664c1.03 1.2 1.97 2.5 2.79 3.86.2051865-2.0441624 1.9255655-3.6005003 3.98-3.6005003s3.7748135 1.5563379 3.98 3.6005003zm14.29-11.86c1.3-.48 2.63-.87 4-1.15-4.6995622-7.81770992-13.153461-12.59953791-22.275-12.59953791s-17.5754378 4.78182799-22.275 12.59953791c1.38.28 2.72.67 4.01 1.15 4.0792346-6.0988414 10.9326966-9.76003682 18.27-9.76003682s14.1907654 3.66119542 18.27 9.76003682zm-5.43 2.71c1.13-.72 2.3-1.37 3.54-1.93-3.7374964-5.3509574-9.853008-8.53902102-16.38-8.53902102s-12.6425036 3.18806362-16.38 8.53902102c1.23.56 2.41 1.2 3.54 1.93 3.0138832-4.0679877 7.7771929-6.4671245 12.84-6.4671245s9.8261168 2.3991368 12.84 6.4671245zm-4.67 3.78c.94-.95 1.96-1.83 3.03-2.63-2.6390801-3.5328104-6.7902956-5.6133758-11.2-5.6133758s-8.5609199 2.0805654-11.2 5.6133758c1.07.8 2.09 1.68 3.03 2.63 1.8709847-2.6588796 4.9188119-4.2409827 8.17-4.2409827s6.2990153 1.5821031 8.17 4.2409827z" transform="translate(56 86)"/><path d="m56 27v2h-7.75c2.3-1.27 4.94-2 7.75-2zm-26 2c0-1.1045695-.8954305-2-2-2s-2 .8954305-2 2h-4.09c-4.7748228-7.4791728-13.03661609-12.0041167-21.91-12v-2c.67 0 1.34.02 2 .07v-.07c0-1.1045695-.8954305-2-2-2v-2c2.05426131-.0000258 3.77457387 1.5560358 3.98 3.6.82223536-1.3637061 1.75894309-2.6550246 2.8-3.86-1.46595349-2.33019508-4.02703431-3.74294468-6.78-3.74v-2c3.24917585-.00251646 6.29660173 1.57528176 8.17 4.23.94-.95 1.96-1.83 3.03-2.63-2.64188507-3.52776872-6.79265399-5.60315317-11.2-5.6h7.75c2 1.1 3.73 2.63 5.1 4.45 1.12-.72 2.3-1.37 3.53-1.93-.6301727-.89581218-1.332511-1.7386181-2.1-2.52h2.7c.45.56.88 1.14 1.29 1.74 1.3-.48 2.63-.87 4-1.15-.11-.2-.23-.4-.36-.59h4.09v.07c1.3316761-.09401342 2.6683239-.09401342 4 0v-.07h4.09l-.37.59c1.38.28 2.72.67 4.01 1.15.4-.6.84-1.18 1.3-1.74h2.69c-.767489.7813819-1.4698273 1.62418782-2.1 2.52 1.23.56 2.41 1.2 3.54 1.93 1.3621307-1.82729042 3.0971426-3.3441476 5.09-4.45h7.75c-4.58 0-8.65 2.2-11.2 5.6 1.07.8 2.09 1.68 3.03 2.63 1.8733983-2.65471824 4.9208242-4.23251646 8.17-4.23v2c-2.7494113.00049493-5.3059385 1.41281575-6.77 3.74 1.03 1.2 1.97 2.5 2.79 3.86.2054261-2.0439642 1.9257387-3.6000258 3.98-3.6v2c-.542787-.0003326-1.0623978.2199628-1.4395493.6103147-.3771516.3903518-.5794484.9172307-.5604507 1.4596853.6656373-.0468219 1.332718-.0701698 2-.07v2c-9.2 0-17.3 4.78-21.91 12zm-22.25 0h-7.75v-2c2.81 0 5.46.73 7.75 2zm48.25-8v2c-5.6 0-10.65 2.3-14.28 6h-2.7c4.04-4.89 10.15-8 16.98-8zm-39.03 8h-2.69c-3.63-3.7-8.68-6-14.28-6v-2c6.83 0 12.94 3.11 16.97 8zm15.01-.4c.8222354-1.3637061 1.7589431-2.6550246 2.8-3.86-1.4636519-2.3308553-4.0226985-3.745664-6.775-3.745664s-5.3113481 1.4148087-6.775 3.745664c1.03 1.2 1.97 2.5 2.79 3.86.2051865-2.0441624 1.9255655-3.6005003 3.98-3.6005003s3.7748135 1.5563379 3.98 3.6005003zm14.29-11.86c1.3-.48 2.63-.87 4-1.15-4.6995622-7.81770992-13.153461-12.59953791-22.275-12.59953791s-17.5754378 4.78182799-22.275 12.59953791c1.38.28 2.72.67 4.01 1.15 4.0792346-6.0988414 10.9326966-9.76003682 18.27-9.76003682s14.1907654 3.66119542 18.27 9.76003682zm-5.43 2.71c1.13-.72 2.3-1.37 3.54-1.93-3.7374964-5.3509574-9.853008-8.53902102-16.38-8.53902102s-12.6425036 3.18806362-16.38 8.53902102c1.23.56 2.41 1.2 3.54 1.93 3.0138832-4.0679877 7.7771929-6.4671245 12.84-6.4671245s9.8261168 2.3991368 12.84 6.4671245zm-4.67 3.78c.94-.95 1.96-1.83 3.03-2.63-2.6390801-3.5328104-6.7902956-5.6133758-11.2-5.6133758s-8.5609199 2.0805654-11.2 5.6133758c1.07.8 2.09 1.68 3.03 2.63 1.8709847-2.6588796 4.9188119-4.2409827 8.17-4.2409827s6.2990153 1.5821031 8.17 4.2409827z" transform="translate(112 86)"/><path d="m56 27v2h-7.75c2.3-1.27 4.94-2 7.75-2zm-26 2c0-1.1045695-.8954305-2-2-2s-2 .8954305-2 2h-4.09c-4.7748228-7.4791728-13.03661609-12.0041167-21.91-12v-2c.67 0 1.34.02 2 .07v-.07c0-1.1045695-.8954305-2-2-2v-2c2.05426131-.0000258 3.77457387 1.5560358 3.98 3.6.82223536-1.3637061 1.75894309-2.6550246 2.8-3.86-1.46595349-2.33019508-4.02703431-3.74294468-6.78-3.74v-2c3.24917585-.00251646 6.29660173 1.57528176 8.17 4.23.94-.95 1.96-1.83 3.03-2.63-2.64188507-3.52776872-6.79265399-5.60315317-11.2-5.6h7.75c2 1.1 3.73 2.63 5.1 4.45 1.12-.72 2.3-1.37 3.53-1.93-.6301727-.89581218-1.332511-1.7386181-2.1-2.52h2.7c.45.56.88 1.14 1.29 1.74 1.3-.48 2.63-.87 4-1.15-.11-.2-.23-.4-.36-.59h4.09v.07c1.3316761-.09401342 2.6683239-.09401342 4 0v-.07h4.09l-.37.59c1.38.28 2.72.67 4.01 1.15.4-.6.84-1.18 1.3-1.74h2.69c-.767489.7813819-1.4698273 1.62418782-2.1 2.52 1.23.56 2.41 1.2 3.54 1.93 1.3621307-1.82729042 3.0971426-3.3441476 5.09-4.45h7.75c-4.58 0-8.65 2.2-11.2 5.6 1.07.8 2.09 1.68 3.03 2.63 1.8733983-2.65471824 4.9208242-4.23251646 8.17-4.23v2c-2.7494113.00049493-5.3059385 1.41281575-6.77 3.74 1.03 1.2 1.97 2.5 2.79 3.86.2054261-2.0439642 1.9257387-3.6000258 3.98-3.6v2c-.542787-.0003326-1.0623978.2199628-1.4395493.6103147-.3771516.3903518-.5794484.9172307-.5604507 1.4596853.6656373-.0468219 1.332718-.0701698 2-.07v2c-9.2 0-17.3 4.78-21.91 12zm-22.25 0h-7.75v-2c2.81 0 5.46.73 7.75 2zm48.25-8v2c-5.6 0-10.65 2.3-14.28 6h-2.7c4.04-4.89 10.15-8 16.98-8zm-39.03 8h-2.69c-3.63-3.7-8.68-6-14.28-6v-2c6.83 0 12.94 3.11 16.97 8zm15.01-.4c.8222354-1.3637061 1.7589431-2.6550246 2.8-3.86-1.4636519-2.3308553-4.0226985-3.745664-6.775-3.745664s-5.3113481 1.4148087-6.775 3.745664c1.03 1.2 1.97 2.5 2.79 3.86.2051865-2.0441624 1.9255655-3.6005003 3.98-3.6005003s3.7748135 1.5563379 3.98 3.6005003zm14.29-11.86c1.3-.48 2.63-.87 4-1.15-4.6995622-7.81770992-13.153461-12.59953791-22.275-12.59953791s-17.5754378 4.78182799-22.275 12.59953791c1.38.28 2.72.67 4.01 1.15 4.0792346-6.0988414 10.9326966-9.76003682 18.27-9.76003682s14.1907654 3.66119542 18.27 9.76003682zm-5.43 2.71c1.13-.72 2.3-1.37 3.54-1.93-3.7374964-5.3509574-9.853008-8.53902102-16.38-8.53902102s-12.6425036 3.18806362-16.38 8.53902102c1.23.56 2.41 1.2 3.54 1.93 3.0138832-4.0679877 7.7771929-6.4671245 12.84-6.4671245s9.8261168 2.3991368 12.84 6.4671245zm-4.67 3.78c.94-.95 1.96-1.83 3.03-2.63-2.6390801-3.5328104-6.7902956-5.6133758-11.2-5.6133758s-8.5609199 2.0805654-11.2 5.6133758c1.07.8 2.09 1.68 3.03 2.63 1.8709847-2.6588796 4.9188119-4.2409827 8.17-4.2409827s6.2990153 1.5821031 8.17 4.2409827z" transform="translate(0 115)"/><path d="m56 27v2h-7.75c2.3-1.27 4.94-2 7.75-2zm-26 2c0-1.1045695-.8954305-2-2-2s-2 .8954305-2 2h-4.09c-4.7748228-7.4791728-13.03661609-12.0041167-21.91-12v-2c.67 0 1.34.02 2 .07v-.07c0-1.1045695-.8954305-2-2-2v-2c2.05426131-.0000258 3.77457387 1.5560358 3.98 3.6.82223536-1.3637061 1.75894309-2.6550246 2.8-3.86-1.46595349-2.33019508-4.02703431-3.74294468-6.78-3.74v-2c3.24917585-.00251646 6.29660173 1.57528176 8.17 4.23.94-.95 1.96-1.83 3.03-2.63-2.64188507-3.52776872-6.79265399-5.60315317-11.2-5.6h7.75c2 1.1 3.73 2.63 5.1 4.45 1.12-.72 2.3-1.37 3.53-1.93-.6301727-.89581218-1.332511-1.7386181-2.1-2.52h2.7c.45.56.88 1.14 1.29 1.74 1.3-.48 2.63-.87 4-1.15-.11-.2-.23-.4-.36-.59h4.09v.07c1.3316761-.09401342 2.6683239-.09401342 4 0v-.07h4.09l-.37.59c1.38.28 2.72.67 4.01 1.15.4-.6.84-1.18 1.3-1.74h2.69c-.767489.7813819-1.4698273 1.62418782-2.1 2.52 1.23.56 2.41 1.2 3.54 1.93 1.3621307-1.82729042 3.0971426-3.3441476 5.09-4.45h7.75c-4.58 0-8.65 2.2-11.2 5.6 1.07.8 2.09 1.68 3.03 2.63 1.8733983-2.65471824 4.9208242-4.23251646 8.17-4.23v2c-2.7494113.00049493-5.3059385 1.41281575-6.77 3.74 1.03 1.2 1.97 2.5 2.79 3.86.2054261-2.0439642 1.9257387-3.6000258 3.98-3.6v2c-.542787-.0003326-1.0623978.2199628-1.4395493.6103147-.3771516.3903518-.5794484.9172307-.5604507 1.4596853.6656373-.0468219 1.332718-.0701698 2-.07v2c-9.2 0-17.3 4.78-21.91 12zm-22.25 0h-7.75v-2c2.81 0 5.46.73 7.75 2zm48.25-8v2c-5.6 0-10.65 2.3-14.28 6h-2.7c4.04-4.89 10.15-8 16.98-8zm-39.03 8h-2.69c-3.63-3.7-8.68-6-14.28-6v-2c6.83 0 12.94 3.11 16.97 8zm15.01-.4c.8222354-1.3637061 1.7589431-2.6550246 2.8-3.86-1.4636519-2.3308553-4.0226985-3.745664-6.775-3.745664s-5.3113481 1.4148087-6.775 3.745664c1.03 1.2 1.97 2.5 2.79 3.86.2051865-2.0441624 1.9255655-3.6005003 3.98-3.6005003s3.7748135 1.5563379 3.98 3.6005003zm14.29-11.86c1.3-.48 2.63-.87 4-1.15-4.6995622-7.81770992-13.153461-12.59953791-22.275-12.59953791s-17.5754378 4.78182799-22.275 12.59953791c1.38.28 2.72.67 4.01 1.15 4.0792346-6.0988414 10.9326966-9.76003682 18.27-9.76003682s14.1907654 3.66119542 18.27 9.76003682zm-5.43 2.71c1.13-.72 2.3-1.37 3.54-1.93-3.7374964-5.3509574-9.853008-8.53902102-16.38-8.53902102s-12.6425036 3.18806362-16.38 8.53902102c1.23.56 2.41 1.2 3.54 1.93 3.0138832-4.0679877 7.7771929-6.4671245 12.84-6.4671245s9.8261168 2.3991368 12.84 6.4671245zm-4.67 3.78c.94-.95 1.96-1.83 3.03-2.63-2.6390801-3.5328104-6.7902956-5.6133758-11.2-5.6133758s-8.5609199 2.0805654-11.2 5.6133758c1.07.8 2.09 1.68 3.03 2.63 1.8709847-2.6588796 4.9188119-4.2409827 8.17-4.2409827s6.2990153 1.5821031 8.17 4.2409827z" transform="translate(56 115)"/><path d="m56 27v2h-7.75c2.3-1.27 4.94-2 7.75-2zm-26 2c0-1.1045695-.8954305-2-2-2s-2 .8954305-2 2h-4.09c-4.7748228-7.4791728-13.03661609-12.0041167-21.91-12v-2c.67 0 1.34.02 2 .07v-.07c0-1.1045695-.8954305-2-2-2v-2c2.05426131-.0000258 3.77457387 1.5560358 3.98 3.6.82223536-1.3637061 1.75894309-2.6550246 2.8-3.86-1.46595349-2.33019508-4.02703431-3.74294468-6.78-3.74v-2c3.24917585-.00251646 6.29660173 1.57528176 8.17 4.23.94-.95 1.96-1.83 3.03-2.63-2.64188507-3.52776872-6.79265399-5.60315317-11.2-5.6h7.75c2 1.1 3.73 2.63 5.1 4.45 1.12-.72 2.3-1.37 3.53-1.93-.6301727-.89581218-1.332511-1.7386181-2.1-2.52h2.7c.45.56.88 1.14 1.29 1.74 1.3-.48 2.63-.87 4-1.15-.11-.2-.23-.4-.36-.59h4.09v.07c1.3316761-.09401342 2.6683239-.09401342 4 0v-.07h4.09l-.37.59c1.38.28 2.72.67 4.01 1.15.4-.6.84-1.18 1.3-1.74h2.69c-.767489.7813819-1.4698273 1.62418782-2.1 2.52 1.23.56 2.41 1.2 3.54 1.93 1.3621307-1.82729042 3.0971426-3.3441476 5.09-4.45h7.75c-4.58 0-8.65 2.2-11.2 5.6 1.07.8 2.09 1.68 3.03 2.63 1.8733983-2.65471824 4.9208242-4.23251646 8.17-4.23v2c-2.7494113.00049493-5.3059385 1.41281575-6.77 3.74 1.03 1.2 1.97 2.5 2.79 3.86.2054261-2.0439642 1.9257387-3.6000258 3.98-3.6v2c-.542787-.0003326-1.0623978.2199628-1.4395493.6103147-.3771516.3903518-.5794484.9172307-.5604507 1.4596853.6656373-.0468219 1.332718-.0701698 2-.07v2c-9.2 0-17.3 4.78-21.91 12zm-22.25 0h-7.75v-2c2.81 0 5.46.73 7.75 2zm48.25-8v2c-5.6 0-10.65 2.3-14.28 6h-2.7c4.04-4.89 10.15-8 16.98-8zm-39.03 8h-2.69c-3.63-3.7-8.68-6-14.28-6v-2c6.83 0 12.94 3.11 16.97 8zm15.01-.4c.8222354-1.3637061 1.7589431-2.6550246 2.8-3.86-1.4636519-2.3308553-4.0226985-3.745664-6.775-3.745664s-5.3113481 1.4148087-6.775 3.745664c1.03 1.2 1.97 2.5 2.79 3.86.2051865-2.0441624 1.9255655-3.6005003 3.98-3.6005003s3.7748135 1.5563379 3.98 3.6005003zm14.29-11.86c1.3-.48 2.63-.87 4-1.15-4.6995622-7.81770992-13.153461-12.59953791-22.275-12.59953791s-17.5754378 4.78182799-22.275 12.59953791c1.38.28 2.72.67 4.01 1.15 4.0792346-6.0988414 10.9326966-9.76003682 18.27-9.76003682s14.1907654 3.66119542 18.27 9.76003682zm-5.43 2.71c1.13-.72 2.3-1.37 3.54-1.93-3.7374964-5.3509574-9.853008-8.53902102-16.38-8.53902102s-12.6425036 3.18806362-16.38 8.53902102c1.23.56 2.41 1.2 3.54 1.93 3.0138832-4.0679877 7.7771929-6.4671245 12.84-6.4671245s9.8261168 2.3991368 12.84 6.4671245zm-4.67 3.78c.94-.95 1.96-1.83 3.03-2.63-2.6390801-3.5328104-6.7902956-5.6133758-11.2-5.6133758s-8.5609199 2.0805654-11.2 5.6133758c1.07.8 2.09 1.68 3.03 2.63 1.8709847-2.6588796 4.9188119-4.2409827 8.17-4.2409827s6.2990153 1.5821031 8.17 4.2409827z" transform="translate(112 115)"/><path d="m56 27v2h-7.75c2.3-1.27 4.94-2 7.75-2zm-26 2c0-1.1045695-.8954305-2-2-2s-2 .8954305-2 2h-4.09c-4.7748228-7.4791728-13.03661609-12.0041167-21.91-12v-2c.67 0 1.34.02 2 .07v-.07c0-1.1045695-.8954305-2-2-2v-2c2.05426131-.0000258 3.77457387 1.5560358 3.98 3.6.82223536-1.3637061 1.75894309-2.6550246 2.8-3.86-1.46595349-2.33019508-4.02703431-3.74294468-6.78-3.74v-2c3.24917585-.00251646 6.29660173 1.57528176 8.17 4.23.94-.95 1.96-1.83 3.03-2.63-2.64188507-3.52776872-6.79265399-5.60315317-11.2-5.6h7.75c2 1.1 3.73 2.63 5.1 4.45 1.12-.72 2.3-1.37 3.53-1.93-.6301727-.89581218-1.332511-1.7386181-2.1-2.52h2.7c.45.56.88 1.14 1.29 1.74 1.3-.48 2.63-.87 4-1.15-.11-.2-.23-.4-.36-.59h4.09v.07c1.3316761-.09401342 2.6683239-.09401342 4 0v-.07h4.09l-.37.59c1.38.28 2.72.67 4.01 1.15.4-.6.84-1.18 1.3-1.74h2.69c-.767489.7813819-1.4698273 1.62418782-2.1 2.52 1.23.56 2.41 1.2 3.54 1.93 1.3621307-1.82729042 3.0971426-3.3441476 5.09-4.45h7.75c-4.58 0-8.65 2.2-11.2 5.6 1.07.8 2.09 1.68 3.03 2.63 1.8733983-2.65471824 4.9208242-4.23251646 8.17-4.23v2c-2.7494113.00049493-5.3059385 1.41281575-6.77 3.74 1.03 1.2 1.97 2.5 2.79 3.86.2054261-2.0439642 1.9257387-3.6000258 3.98-3.6v2c-.542787-.0003326-1.0623978.2199628-1.4395493.6103147-.3771516.3903518-.5794484.9172307-.5604507 1.4596853.6656373-.0468219 1.332718-.0701698 2-.07v2c-9.2 0-17.3 4.78-21.91 12zm-22.25 0h-7.75v-2c2.81 0 5.46.73 7.75 2zm48.25-8v2c-5.6 0-10.65 2.3-14.28 6h-2.7c4.04-4.89 10.15-8 16.98-8zm-39.03 8h-2.69c-3.63-3.7-8.68-6-14.28-6v-2c6.83 0 12.94 3.11 16.97 8zm15.01-.4c.8222354-1.3637061 1.7589431-2.6550246 2.8-3.86-1.4636519-2.3308553-4.0226985-3.745664-6.775-3.745664s-5.3113481 1.4148087-6.775 3.745664c1.03 1.2 1.97 2.5 2.79 3.86.2051865-2.0441624 1.9255655-3.6005003 3.98-3.6005003s3.7748135 1.5563379 3.98 3.6005003zm14.29-11.86c1.3-.48 2.63-.87 4-1.15-4.6995622-7.81770992-13.153461-12.59953791-22.275-12.59953791s-17.5754378 4.78182799-22.275 12.59953791c1.38.28 2.72.67 4.01 1.15 4.0792346-6.0988414 10.9326966-9.76003682 18.27-9.76003682s14.1907654 3.66119542 18.27 9.76003682zm-5.43 2.71c1.13-.72 2.3-1.37 3.54-1.93-3.7374964-5.3509574-9.853008-8.53902102-16.38-8.53902102s-12.6425036 3.18806362-16.38 8.53902102c1.23.56 2.41 1.2 3.54 1.93 3.0138832-4.0679877 7.7771929-6.4671245 12.84-6.4671245s9.8261168 2.3991368 12.84 6.4671245zm-4.67 3.78c.94-.95 1.96-1.83 3.03-2.63-2.6390801-3.5328104-6.7902956-5.6133758-11.2-5.6133758s-8.5609199 2.0805654-11.2 5.6133758c1.07.8 2.09 1.68 3.03 2.63 1.8709847-2.6588796 4.9188119-4.2409827 8.17-4.2409827s6.2990153 1.5821031 8.17 4.2409827z" transform="translate(0 144)"/><path d="m56 27v2h-7.75c2.3-1.27 4.94-2 7.75-2zm-26 2c0-1.1045695-.8954305-2-2-2s-2 .8954305-2 2h-4.09c-4.7748228-7.4791728-13.03661609-12.0041167-21.91-12v-2c.67 0 1.34.02 2 .07v-.07c0-1.1045695-.8954305-2-2-2v-2c2.05426131-.0000258 3.77457387 1.5560358 3.98 3.6.82223536-1.3637061 1.75894309-2.6550246 2.8-3.86-1.46595349-2.33019508-4.02703431-3.74294468-6.78-3.74v-2c3.24917585-.00251646 6.29660173 1.57528176 8.17 4.23.94-.95 1.96-1.83 3.03-2.63-2.64188507-3.52776872-6.79265399-5.60315317-11.2-5.6h7.75c2 1.1 3.73 2.63 5.1 4.45 1.12-.72 2.3-1.37 3.53-1.93-.6301727-.89581218-1.332511-1.7386181-2.1-2.52h2.7c.45.56.88 1.14 1.29 1.74 1.3-.48 2.63-.87 4-1.15-.11-.2-.23-.4-.36-.59h4.09v.07c1.3316761-.09401342 2.6683239-.09401342 4 0v-.07h4.09l-.37.59c1.38.28 2.72.67 4.01 1.15.4-.6.84-1.18 1.3-1.74h2.69c-.767489.7813819-1.4698273 1.62418782-2.1 2.52 1.23.56 2.41 1.2 3.54 1.93 1.3621307-1.82729042 3.0971426-3.3441476 5.09-4.45h7.75c-4.58 0-8.65 2.2-11.2 5.6 1.07.8 2.09 1.68 3.03 2.63 1.8733983-2.65471824 4.9208242-4.23251646 8.17-4.23v2c-2.7494113.00049493-5.3059385 1.41281575-6.77 3.74 1.03 1.2 1.97 2.5 2.79 3.86.2054261-2.0439642 1.9257387-3.6000258 3.98-3.6v2c-.542787-.0003326-1.0623978.2199628-1.4395493.6103147-.3771516.3903518-.5794484.9172307-.5604507 1.4596853.6656373-.0468219 1.332718-.0701698 2-.07v2c-9.2 0-17.3 4.78-21.91 12zm-22.25 0h-7.75v-2c2.81 0 5.46.73 7.75 2zm48.25-8v2c-5.6 0-10.65 2.3-14.28 6h-2.7c4.04-4.89 10.15-8 16.98-8zm-39.03 8h-2.69c-3.63-3.7-8.68-6-14.28-6v-2c6.83 0 12.94 3.11 16.97 8zm15.01-.4c.8222354-1.3637061 1.7589431-2.6550246 2.8-3.86-1.4636519-2.3308553-4.0226985-3.745664-6.775-3.745664s-5.3113481 1.4148087-6.775 3.745664c1.03 1.2 1.97 2.5 2.79 3.86.2051865-2.0441624 1.9255655-3.6005003 3.98-3.6005003s3.7748135 1.5563379 3.98 3.6005003zm14.29-11.86c1.3-.48 2.63-.87 4-1.15-4.6995622-7.81770992-13.153461-12.59953791-22.275-12.59953791s-17.5754378 4.78182799-22.275 12.59953791c1.38.28 2.72.67 4.01 1.15 4.0792346-6.0988414 10.9326966-9.76003682 18.27-9.76003682s14.1907654 3.66119542 18.27 9.76003682zm-5.43 2.71c1.13-.72 2.3-1.37 3.54-1.93-3.7374964-5.3509574-9.853008-8.53902102-16.38-8.53902102s-12.6425036 3.18806362-16.38 8.53902102c1.23.56 2.41 1.2 3.54 1.93 3.0138832-4.0679877 7.7771929-6.4671245 12.84-6.4671245s9.8261168 2.3991368 12.84 6.4671245zm-4.67 3.78c.94-.95 1.96-1.83 3.03-2.63-2.6390801-3.5328104-6.7902956-5.6133758-11.2-5.6133758s-8.5609199 2.0805654-11.2 5.6133758c1.07.8 2.09 1.68 3.03 2.63 1.8709847-2.6588796 4.9188119-4.2409827 8.17-4.2409827s6.2990153 1.5821031 8.17 4.2409827z" transform="translate(56 144)"/><path d="m56 27v2h-7.75c2.3-1.27 4.94-2 7.75-2zm-26 2c0-1.1045695-.8954305-2-2-2s-2 .8954305-2 2h-4.09c-4.7748228-7.4791728-13.03661609-12.0041167-21.91-12v-2c.67 0 1.34.02 2 .07v-.07c0-1.1045695-.8954305-2-2-2v-2c2.05426131-.0000258 3.77457387 1.5560358 3.98 3.6.82223536-1.3637061 1.75894309-2.6550246 2.8-3.86-1.46595349-2.33019508-4.02703431-3.74294468-6.78-3.74v-2c3.24917585-.00251646 6.29660173 1.57528176 8.17 4.23.94-.95 1.96-1.83 3.03-2.63-2.64188507-3.52776872-6.79265399-5.60315317-11.2-5.6h7.75c2 1.1 3.73 2.63 5.1 4.45 1.12-.72 2.3-1.37 3.53-1.93-.6301727-.89581218-1.332511-1.7386181-2.1-2.52h2.7c.45.56.88 1.14 1.29 1.74 1.3-.48 2.63-.87 4-1.15-.11-.2-.23-.4-.36-.59h4.09v.07c1.3316761-.09401342 2.6683239-.09401342 4 0v-.07h4.09l-.37.59c1.38.28 2.72.67 4.01 1.15.4-.6.84-1.18 1.3-1.74h2.69c-.767489.7813819-1.4698273 1.62418782-2.1 2.52 1.23.56 2.41 1.2 3.54 1.93 1.3621307-1.82729042 3.0971426-3.3441476 5.09-4.45h7.75c-4.58 0-8.65 2.2-11.2 5.6 1.07.8 2.09 1.68 3.03 2.63 1.8733983-2.65471824 4.9208242-4.23251646 8.17-4.23v2c-2.7494113.00049493-5.3059385 1.41281575-6.77 3.74 1.03 1.2 1.97 2.5 2.79 3.86.2054261-2.0439642 1.9257387-3.6000258 3.98-3.6v2c-.542787-.0003326-1.0623978.2199628-1.4395493.6103147-.3771516.3903518-.5794484.9172307-.5604507 1.4596853.6656373-.0468219 1.332718-.0701698 2-.07v2c-9.2 0-17.3 4.78-21.91 12zm-22.25 0h-7.75v-2c2.81 0 5.46.73 7.75 2zm48.25-8v2c-5.6 0-10.65 2.3-14.28 6h-2.7c4.04-4.89 10.15-8 16.98-8zm-39.03 8h-2.69c-3.63-3.7-8.68-6-14.28-6v-2c6.83 0 12.94 3.11 16.97 8zm15.01-.4c.8222354-1.3637061 1.7589431-2.6550246 2.8-3.86-1.4636519-2.3308553-4.0226985-3.745664-6.775-3.745664s-5.3113481 1.4148087-6.775 3.745664c1.03 1.2 1.97 2.5 2.79 3.86.2051865-2.0441624 1.9255655-3.6005003 3.98-3.6005003s3.7748135 1.5563379 3.98 3.6005003zm14.29-11.86c1.3-.48 2.63-.87 4-1.15-4.6995622-7.81770992-13.153461-12.59953791-22.275-12.59953791s-17.5754378 4.78182799-22.275 12.59953791c1.38.28 2.72.67 4.01 1.15 4.0792346-6.0988414 10.9326966-9.76003682 18.27-9.76003682s14.1907654 3.66119542 18.27 9.76003682zm-5.43 2.71c1.13-.72 2.3-1.37 3.54-1.93-3.7374964-5.3509574-9.853008-8.53902102-16.38-8.53902102s-12.6425036 3.18806362-16.38 8.53902102c1.23.56 2.41 1.2 3.54 1.93 3.0138832-4.0679877 7.7771929-6.4671245 12.84-6.4671245s9.8261168 2.3991368 12.84 6.4671245zm-4.67 3.78c.94-.95 1.96-1.83 3.03-2.63-2.6390801-3.5328104-6.7902956-5.6133758-11.2-5.6133758s-8.5609199 2.0805654-11.2 5.6133758c1.07.8 2.09 1.68 3.03 2.63 1.8709847-2.6588796 4.9188119-4.2409827 8.17-4.2409827s6.2990153 1.5821031 8.17 4.2409827z" transform="translate(112 144)"/></g></svg>