<?xml version="1.0" encoding="UTF-8"?>
<svg width="168px" height="173px" viewBox="0 0 168 173" version="1.1" xmlns="http://www.w3.org/2000/svg" xmlns:xlink="http://www.w3.org/1999/xlink">
    <!-- Generator: Sketch 51.3 (57544) - http://www.bohemiancoding.com/sketch -->
    <title>Group</title>
    <desc>Created with Sketch.</desc>
    <defs></defs>
    <g id="Page-1" stroke="none" stroke-width="1" fill="none" fill-rule="evenodd">
        <g id="Group" transform="translate(0.000000, -1.000000)" fill="#000000" fill-rule="nonzero">
            <g id="Group-2">
                <g id="endless-clouds">
                    <path d="M56,27 L56,29 L48.25,29 C50.55,27.73 53.19,27 56,27 Z M30,29 C30,27.8954305 29.1045695,27 28,27 C26.8954305,27 26,27.8954305 26,29 L21.91,29 C17.1351772,21.5208272 8.87338391,16.9958833 6.2391173e-16,17 L6.2391173e-16,15 C0.67,15 1.34,15.02 2,15.07 L2,15 C2,13.8954305 1.1045695,13 5.6655389e-16,13 L5.6655389e-16,11 C2.05426131,10.9999742 3.77457387,12.5560358 3.98,14.6 C4.80223536,13.2362939 5.73894309,11.9449754 6.78,10.74 C5.31404651,8.40980492 2.75296569,6.99705532 -5.89805982e-16,7 L-5.89805982e-16,5 C3.24917585,4.99748354 6.29660173,6.57528176 8.17,9.23 C9.11,8.28 10.13,7.4 11.2,6.6 C8.55811493,3.07223128 4.40734601,0.996846827 7.19964453e-16,1 L7.75,1 C9.75,2.1 11.48,3.63 12.85,5.45 C13.97,4.73 15.15,4.08 16.38,3.52 C15.7498273,2.62418782 15.047489,1.7813819 14.28,1 L16.98,1 C17.43,1.56 17.86,2.14 18.27,2.74 C19.57,2.26 20.9,1.87 22.27,1.59 C22.16,1.39 22.04,1.19 21.91,1 L26,1 L26,1.07 C27.3316761,0.975986581 28.6683239,0.975986581 30,1.07 L30,1 L34.09,1 L33.72,1.59 C35.1,1.87 36.44,2.26 37.73,2.74 C38.13,2.14 38.57,1.56 39.03,1 L41.72,1 C40.952511,1.7813819 40.2501727,2.62418782 39.62,3.52 C40.85,4.08 42.03,4.72 43.16,5.45 C44.5221307,3.62270958 46.2571426,2.1058524 48.25,1 L56,1 C51.42,1 47.35,3.2 44.8,6.6 C45.87,7.4 46.89,8.28 47.83,9.23 C49.7033983,6.57528176 52.7508242,4.99748354 56,5 L56,7 C53.2505887,7.00049493 50.6940615,8.41281575 49.23,10.74 C50.26,11.94 51.2,13.24 52.02,14.6 C52.2254261,12.5560358 53.9457387,10.9999742 56,11 L56,13 C55.457213,12.9996674 54.9376022,13.2199628 54.5604507,13.6103147 C54.1832991,14.0006665 53.9810023,14.5275454 54,15.07 C54.6656373,15.0231781 55.332718,14.9998302 56,15 L56,17 C46.8,17 38.7,21.78 34.09,29 L30,29 Z M7.75,29 L-1.45716772e-16,29 L-1.45716772e-16,27 C2.81,27 5.46,27.73 7.75,29 Z M56,21 L56,23 C50.4,23 45.35,25.3 41.72,29 L39.02,29 C43.06,24.11 49.17,21 56,21 Z M16.97,29 L14.28,29 C10.65,25.3 5.6,23 -5.89805982e-16,23 L-5.89805982e-16,21 C6.83,21 12.94,24.11 16.97,29 Z M31.98,28.6 C32.8022354,27.2362939 33.7389431,25.9449754 34.78,24.74 C33.3163481,22.4091447 30.7573015,20.994336 28.005,20.994336 C25.2526985,20.994336 22.6936519,22.4091447 21.23,24.74 C22.26,25.94 23.2,27.24 24.02,28.6 C24.2251865,26.5558376 25.9455655,24.9994997 28,24.9994997 C30.0544345,24.9994997 31.7748135,26.5558376 31.98,28.6 Z M46.27,16.74 C47.57,16.26 48.9,15.87 50.27,15.59 C45.5704378,7.77229008 37.116539,2.99046209 27.995,2.99046209 C18.873461,2.99046209 10.4195622,7.77229008 5.72,15.59 C7.1,15.87 8.44,16.26 9.73,16.74 C13.8092346,10.6411586 20.6626966,6.97996318 28,6.97996318 C35.3373034,6.97996318 42.1907654,10.6411586 46.27,16.74 Z M40.84,19.45 C41.97,18.73 43.14,18.08 44.38,17.52 C40.6425036,12.1690426 34.526992,8.98097898 28,8.98097898 C21.473008,8.98097898 15.3574964,12.1690426 11.62,17.52 C12.85,18.08 14.03,18.72 15.16,19.45 C18.1738832,15.3820123 22.9371929,12.9828755 28,12.9828755 C33.0628071,12.9828755 37.8261168,15.3820123 40.84,19.45 Z M36.17,23.23 C37.11,22.28 38.13,21.4 39.2,20.6 C36.5609199,17.0671896 32.4097044,14.9866242 28,14.9866242 C23.5902956,14.9866242 19.4390801,17.0671896 16.8,20.6 C17.87,21.4 18.89,22.28 19.83,23.23 C21.7009847,20.5711204 24.7488119,18.9890173 28,18.9890173 C31.2511881,18.9890173 34.2990153,20.5711204 36.17,23.23 Z" id="Shape"></path>
                </g>
                <g id="endless-clouds" transform="translate(56.000000, 0.000000)">
                    <path d="M56,27 L56,29 L48.25,29 C50.55,27.73 53.19,27 56,27 Z M30,29 C30,27.8954305 29.1045695,27 28,27 C26.8954305,27 26,27.8954305 26,29 L21.91,29 C17.1351772,21.5208272 8.87338391,16.9958833 6.2391173e-16,17 L6.2391173e-16,15 C0.67,15 1.34,15.02 2,15.07 L2,15 C2,13.8954305 1.1045695,13 5.6655389e-16,13 L5.6655389e-16,11 C2.05426131,10.9999742 3.77457387,12.5560358 3.98,14.6 C4.80223536,13.2362939 5.73894309,11.9449754 6.78,10.74 C5.31404651,8.40980492 2.75296569,6.99705532 -5.89805982e-16,7 L-5.89805982e-16,5 C3.24917585,4.99748354 6.29660173,6.57528176 8.17,9.23 C9.11,8.28 10.13,7.4 11.2,6.6 C8.55811493,3.07223128 4.40734601,0.996846827 7.19964453e-16,1 L7.75,1 C9.75,2.1 11.48,3.63 12.85,5.45 C13.97,4.73 15.15,4.08 16.38,3.52 C15.7498273,2.62418782 15.047489,1.7813819 14.28,1 L16.98,1 C17.43,1.56 17.86,2.14 18.27,2.74 C19.57,2.26 20.9,1.87 22.27,1.59 C22.16,1.39 22.04,1.19 21.91,1 L26,1 L26,1.07 C27.3316761,0.975986581 28.6683239,0.975986581 30,1.07 L30,1 L34.09,1 L33.72,1.59 C35.1,1.87 36.44,2.26 37.73,2.74 C38.13,2.14 38.57,1.56 39.03,1 L41.72,1 C40.952511,1.7813819 40.2501727,2.62418782 39.62,3.52 C40.85,4.08 42.03,4.72 43.16,5.45 C44.5221307,3.62270958 46.2571426,2.1058524 48.25,1 L56,1 C51.42,1 47.35,3.2 44.8,6.6 C45.87,7.4 46.89,8.28 47.83,9.23 C49.7033983,6.57528176 52.7508242,4.99748354 56,5 L56,7 C53.2505887,7.00049493 50.6940615,8.41281575 49.23,10.74 C50.26,11.94 51.2,13.24 52.02,14.6 C52.2254261,12.5560358 53.9457387,10.9999742 56,11 L56,13 C55.457213,12.9996674 54.9376022,13.2199628 54.5604507,13.6103147 C54.1832991,14.0006665 53.9810023,14.5275454 54,15.07 C54.6656373,15.0231781 55.332718,14.9998302 56,15 L56,17 C46.8,17 38.7,21.78 34.09,29 L30,29 Z M7.75,29 L-1.45716772e-16,29 L-1.45716772e-16,27 C2.81,27 5.46,27.73 7.75,29 Z M56,21 L56,23 C50.4,23 45.35,25.3 41.72,29 L39.02,29 C43.06,24.11 49.17,21 56,21 Z M16.97,29 L14.28,29 C10.65,25.3 5.6,23 -5.89805982e-16,23 L-5.89805982e-16,21 C6.83,21 12.94,24.11 16.97,29 Z M31.98,28.6 C32.8022354,27.2362939 33.7389431,25.9449754 34.78,24.74 C33.3163481,22.4091447 30.7573015,20.994336 28.005,20.994336 C25.2526985,20.994336 22.6936519,22.4091447 21.23,24.74 C22.26,25.94 23.2,27.24 24.02,28.6 C24.2251865,26.5558376 25.9455655,24.9994997 28,24.9994997 C30.0544345,24.9994997 31.7748135,26.5558376 31.98,28.6 Z M46.27,16.74 C47.57,16.26 48.9,15.87 50.27,15.59 C45.5704378,7.77229008 37.116539,2.99046209 27.995,2.99046209 C18.873461,2.99046209 10.4195622,7.77229008 5.72,15.59 C7.1,15.87 8.44,16.26 9.73,16.74 C13.8092346,10.6411586 20.6626966,6.97996318 28,6.97996318 C35.3373034,6.97996318 42.1907654,10.6411586 46.27,16.74 Z M40.84,19.45 C41.97,18.73 43.14,18.08 44.38,17.52 C40.6425036,12.1690426 34.526992,8.98097898 28,8.98097898 C21.473008,8.98097898 15.3574964,12.1690426 11.62,17.52 C12.85,18.08 14.03,18.72 15.16,19.45 C18.1738832,15.3820123 22.9371929,12.9828755 28,12.9828755 C33.0628071,12.9828755 37.8261168,15.3820123 40.84,19.45 Z M36.17,23.23 C37.11,22.28 38.13,21.4 39.2,20.6 C36.5609199,17.0671896 32.4097044,14.9866242 28,14.9866242 C23.5902956,14.9866242 19.4390801,17.0671896 16.8,20.6 C17.87,21.4 18.89,22.28 19.83,23.23 C21.7009847,20.5711204 24.7488119,18.9890173 28,18.9890173 C31.2511881,18.9890173 34.2990153,20.5711204 36.17,23.23 Z" id="Shape"></path>
                </g>
                <g id="endless-clouds" transform="translate(112.000000, 0.000000)">
                    <path d="M56,27 L56,29 L48.25,29 C50.55,27.73 53.19,27 56,27 Z M30,29 C30,27.8954305 29.1045695,27 28,27 C26.8954305,27 26,27.8954305 26,29 L21.91,29 C17.1351772,21.5208272 8.87338391,16.9958833 6.2391173e-16,17 L6.2391173e-16,15 C0.67,15 1.34,15.02 2,15.07 L2,15 C2,13.8954305 1.1045695,13 5.6655389e-16,13 L5.6655389e-16,11 C2.05426131,10.9999742 3.77457387,12.5560358 3.98,14.6 C4.80223536,13.2362939 5.73894309,11.9449754 6.78,10.74 C5.31404651,8.40980492 2.75296569,6.99705532 -5.89805982e-16,7 L-5.89805982e-16,5 C3.24917585,4.99748354 6.29660173,6.57528176 8.17,9.23 C9.11,8.28 10.13,7.4 11.2,6.6 C8.55811493,3.07223128 4.40734601,0.996846827 7.19964453e-16,1 L7.75,1 C9.75,2.1 11.48,3.63 12.85,5.45 C13.97,4.73 15.15,4.08 16.38,3.52 C15.7498273,2.62418782 15.047489,1.7813819 14.28,1 L16.98,1 C17.43,1.56 17.86,2.14 18.27,2.74 C19.57,2.26 20.9,1.87 22.27,1.59 C22.16,1.39 22.04,1.19 21.91,1 L26,1 L26,1.07 C27.3316761,0.975986581 28.6683239,0.975986581 30,1.07 L30,1 L34.09,1 L33.72,1.59 C35.1,1.87 36.44,2.26 37.73,2.74 C38.13,2.14 38.57,1.56 39.03,1 L41.72,1 C40.952511,1.7813819 40.2501727,2.62418782 39.62,3.52 C40.85,4.08 42.03,4.72 43.16,5.45 C44.5221307,3.62270958 46.2571426,2.1058524 48.25,1 L56,1 C51.42,1 47.35,3.2 44.8,6.6 C45.87,7.4 46.89,8.28 47.83,9.23 C49.7033983,6.57528176 52.7508242,4.99748354 56,5 L56,7 C53.2505887,7.00049493 50.6940615,8.41281575 49.23,10.74 C50.26,11.94 51.2,13.24 52.02,14.6 C52.2254261,12.5560358 53.9457387,10.9999742 56,11 L56,13 C55.457213,12.9996674 54.9376022,13.2199628 54.5604507,13.6103147 C54.1832991,14.0006665 53.9810023,14.5275454 54,15.07 C54.6656373,15.0231781 55.332718,14.9998302 56,15 L56,17 C46.8,17 38.7,21.78 34.09,29 L30,29 Z M7.75,29 L-1.45716772e-16,29 L-1.45716772e-16,27 C2.81,27 5.46,27.73 7.75,29 Z M56,21 L56,23 C50.4,23 45.35,25.3 41.72,29 L39.02,29 C43.06,24.11 49.17,21 56,21 Z M16.97,29 L14.28,29 C10.65,25.3 5.6,23 -5.89805982e-16,23 L-5.89805982e-16,21 C6.83,21 12.94,24.11 16.97,29 Z M31.98,28.6 C32.8022354,27.2362939 33.7389431,25.9449754 34.78,24.74 C33.3163481,22.4091447 30.7573015,20.994336 28.005,20.994336 C25.2526985,20.994336 22.6936519,22.4091447 21.23,24.74 C22.26,25.94 23.2,27.24 24.02,28.6 C24.2251865,26.5558376 25.9455655,24.9994997 28,24.9994997 C30.0544345,24.9994997 31.7748135,26.5558376 31.98,28.6 Z M46.27,16.74 C47.57,16.26 48.9,15.87 50.27,15.59 C45.5704378,7.77229008 37.116539,2.99046209 27.995,2.99046209 C18.873461,2.99046209 10.4195622,7.77229008 5.72,15.59 C7.1,15.87 8.44,16.26 9.73,16.74 C13.8092346,10.6411586 20.6626966,6.97996318 28,6.97996318 C35.3373034,6.97996318 42.1907654,10.6411586 46.27,16.74 Z M40.84,19.45 C41.97,18.73 43.14,18.08 44.38,17.52 C40.6425036,12.1690426 34.526992,8.98097898 28,8.98097898 C21.473008,8.98097898 15.3574964,12.1690426 11.62,17.52 C12.85,18.08 14.03,18.72 15.16,19.45 C18.1738832,15.3820123 22.9371929,12.9828755 28,12.9828755 C33.0628071,12.9828755 37.8261168,15.3820123 40.84,19.45 Z M36.17,23.23 C37.11,22.28 38.13,21.4 39.2,20.6 C36.5609199,17.0671896 32.4097044,14.9866242 28,14.9866242 C23.5902956,14.9866242 19.4390801,17.0671896 16.8,20.6 C17.87,21.4 18.89,22.28 19.83,23.23 C21.7009847,20.5711204 24.7488119,18.9890173 28,18.9890173 C31.2511881,18.9890173 34.2990153,20.5711204 36.17,23.23 Z" id="Shape"></path>
                </g>
            </g>
            <g id="Group-2" transform="translate(0.000000, 29.000000)">
                <g id="endless-clouds">
                    <path d="M56,27 L56,29 L48.25,29 C50.55,27.73 53.19,27 56,27 Z M30,29 C30,27.8954305 29.1045695,27 28,27 C26.8954305,27 26,27.8954305 26,29 L21.91,29 C17.1351772,21.5208272 8.87338391,16.9958833 6.2391173e-16,17 L6.2391173e-16,15 C0.67,15 1.34,15.02 2,15.07 L2,15 C2,13.8954305 1.1045695,13 5.6655389e-16,13 L5.6655389e-16,11 C2.05426131,10.9999742 3.77457387,12.5560358 3.98,14.6 C4.80223536,13.2362939 5.73894309,11.9449754 6.78,10.74 C5.31404651,8.40980492 2.75296569,6.99705532 -5.89805982e-16,7 L-5.89805982e-16,5 C3.24917585,4.99748354 6.29660173,6.57528176 8.17,9.23 C9.11,8.28 10.13,7.4 11.2,6.6 C8.55811493,3.07223128 4.40734601,0.996846827 7.19964453e-16,1 L7.75,1 C9.75,2.1 11.48,3.63 12.85,5.45 C13.97,4.73 15.15,4.08 16.38,3.52 C15.7498273,2.62418782 15.047489,1.7813819 14.28,1 L16.98,1 C17.43,1.56 17.86,2.14 18.27,2.74 C19.57,2.26 20.9,1.87 22.27,1.59 C22.16,1.39 22.04,1.19 21.91,1 L26,1 L26,1.07 C27.3316761,0.975986581 28.6683239,0.975986581 30,1.07 L30,1 L34.09,1 L33.72,1.59 C35.1,1.87 36.44,2.26 37.73,2.74 C38.13,2.14 38.57,1.56 39.03,1 L41.72,1 C40.952511,1.7813819 40.2501727,2.62418782 39.62,3.52 C40.85,4.08 42.03,4.72 43.16,5.45 C44.5221307,3.62270958 46.2571426,2.1058524 48.25,1 L56,1 C51.42,1 47.35,3.2 44.8,6.6 C45.87,7.4 46.89,8.28 47.83,9.23 C49.7033983,6.57528176 52.7508242,4.99748354 56,5 L56,7 C53.2505887,7.00049493 50.6940615,8.41281575 49.23,10.74 C50.26,11.94 51.2,13.24 52.02,14.6 C52.2254261,12.5560358 53.9457387,10.9999742 56,11 L56,13 C55.457213,12.9996674 54.9376022,13.2199628 54.5604507,13.6103147 C54.1832991,14.0006665 53.9810023,14.5275454 54,15.07 C54.6656373,15.0231781 55.332718,14.9998302 56,15 L56,17 C46.8,17 38.7,21.78 34.09,29 L30,29 Z M7.75,29 L-1.45716772e-16,29 L-1.45716772e-16,27 C2.81,27 5.46,27.73 7.75,29 Z M56,21 L56,23 C50.4,23 45.35,25.3 41.72,29 L39.02,29 C43.06,24.11 49.17,21 56,21 Z M16.97,29 L14.28,29 C10.65,25.3 5.6,23 -5.89805982e-16,23 L-5.89805982e-16,21 C6.83,21 12.94,24.11 16.97,29 Z M31.98,28.6 C32.8022354,27.2362939 33.7389431,25.9449754 34.78,24.74 C33.3163481,22.4091447 30.7573015,20.994336 28.005,20.994336 C25.2526985,20.994336 22.6936519,22.4091447 21.23,24.74 C22.26,25.94 23.2,27.24 24.02,28.6 C24.2251865,26.5558376 25.9455655,24.9994997 28,24.9994997 C30.0544345,24.9994997 31.7748135,26.5558376 31.98,28.6 Z M46.27,16.74 C47.57,16.26 48.9,15.87 50.27,15.59 C45.5704378,7.77229008 37.116539,2.99046209 27.995,2.99046209 C18.873461,2.99046209 10.4195622,7.77229008 5.72,15.59 C7.1,15.87 8.44,16.26 9.73,16.74 C13.8092346,10.6411586 20.6626966,6.97996318 28,6.97996318 C35.3373034,6.97996318 42.1907654,10.6411586 46.27,16.74 Z M40.84,19.45 C41.97,18.73 43.14,18.08 44.38,17.52 C40.6425036,12.1690426 34.526992,8.98097898 28,8.98097898 C21.473008,8.98097898 15.3574964,12.1690426 11.62,17.52 C12.85,18.08 14.03,18.72 15.16,19.45 C18.1738832,15.3820123 22.9371929,12.9828755 28,12.9828755 C33.0628071,12.9828755 37.8261168,15.3820123 40.84,19.45 Z M36.17,23.23 C37.11,22.28 38.13,21.4 39.2,20.6 C36.5609199,17.0671896 32.4097044,14.9866242 28,14.9866242 C23.5902956,14.9866242 19.4390801,17.0671896 16.8,20.6 C17.87,21.4 18.89,22.28 19.83,23.23 C21.7009847,20.5711204 24.7488119,18.9890173 28,18.9890173 C31.2511881,18.9890173 34.2990153,20.5711204 36.17,23.23 Z" id="Shape"></path>
                </g>
                <g id="endless-clouds" transform="translate(56.000000, 0.000000)">
                    <path d="M56,27 L56,29 L48.25,29 C50.55,27.73 53.19,27 56,27 Z M30,29 C30,27.8954305 29.1045695,27 28,27 C26.8954305,27 26,27.8954305 26,29 L21.91,29 C17.1351772,21.5208272 8.87338391,16.9958833 6.2391173e-16,17 L6.2391173e-16,15 C0.67,15 1.34,15.02 2,15.07 L2,15 C2,13.8954305 1.1045695,13 5.6655389e-16,13 L5.6655389e-16,11 C2.05426131,10.9999742 3.77457387,12.5560358 3.98,14.6 C4.80223536,13.2362939 5.73894309,11.9449754 6.78,10.74 C5.31404651,8.40980492 2.75296569,6.99705532 -5.89805982e-16,7 L-5.89805982e-16,5 C3.24917585,4.99748354 6.29660173,6.57528176 8.17,9.23 C9.11,8.28 10.13,7.4 11.2,6.6 C8.55811493,3.07223128 4.40734601,0.996846827 7.19964453e-16,1 L7.75,1 C9.75,2.1 11.48,3.63 12.85,5.45 C13.97,4.73 15.15,4.08 16.38,3.52 C15.7498273,2.62418782 15.047489,1.7813819 14.28,1 L16.98,1 C17.43,1.56 17.86,2.14 18.27,2.74 C19.57,2.26 20.9,1.87 22.27,1.59 C22.16,1.39 22.04,1.19 21.91,1 L26,1 L26,1.07 C27.3316761,0.975986581 28.6683239,0.975986581 30,1.07 L30,1 L34.09,1 L33.72,1.59 C35.1,1.87 36.44,2.26 37.73,2.74 C38.13,2.14 38.57,1.56 39.03,1 L41.72,1 C40.952511,1.7813819 40.2501727,2.62418782 39.62,3.52 C40.85,4.08 42.03,4.72 43.16,5.45 C44.5221307,3.62270958 46.2571426,2.1058524 48.25,1 L56,1 C51.42,1 47.35,3.2 44.8,6.6 C45.87,7.4 46.89,8.28 47.83,9.23 C49.7033983,6.57528176 52.7508242,4.99748354 56,5 L56,7 C53.2505887,7.00049493 50.6940615,8.41281575 49.23,10.74 C50.26,11.94 51.2,13.24 52.02,14.6 C52.2254261,12.5560358 53.9457387,10.9999742 56,11 L56,13 C55.457213,12.9996674 54.9376022,13.2199628 54.5604507,13.6103147 C54.1832991,14.0006665 53.9810023,14.5275454 54,15.07 C54.6656373,15.0231781 55.332718,14.9998302 56,15 L56,17 C46.8,17 38.7,21.78 34.09,29 L30,29 Z M7.75,29 L-1.45716772e-16,29 L-1.45716772e-16,27 C2.81,27 5.46,27.73 7.75,29 Z M56,21 L56,23 C50.4,23 45.35,25.3 41.72,29 L39.02,29 C43.06,24.11 49.17,21 56,21 Z M16.97,29 L14.28,29 C10.65,25.3 5.6,23 -5.89805982e-16,23 L-5.89805982e-16,21 C6.83,21 12.94,24.11 16.97,29 Z M31.98,28.6 C32.8022354,27.2362939 33.7389431,25.9449754 34.78,24.74 C33.3163481,22.4091447 30.7573015,20.994336 28.005,20.994336 C25.2526985,20.994336 22.6936519,22.4091447 21.23,24.74 C22.26,25.94 23.2,27.24 24.02,28.6 C24.2251865,26.5558376 25.9455655,24.9994997 28,24.9994997 C30.0544345,24.9994997 31.7748135,26.5558376 31.98,28.6 Z M46.27,16.74 C47.57,16.26 48.9,15.87 50.27,15.59 C45.5704378,7.77229008 37.116539,2.99046209 27.995,2.99046209 C18.873461,2.99046209 10.4195622,7.77229008 5.72,15.59 C7.1,15.87 8.44,16.26 9.73,16.74 C13.8092346,10.6411586 20.6626966,6.97996318 28,6.97996318 C35.3373034,6.97996318 42.1907654,10.6411586 46.27,16.74 Z M40.84,19.45 C41.97,18.73 43.14,18.08 44.38,17.52 C40.6425036,12.1690426 34.526992,8.98097898 28,8.98097898 C21.473008,8.98097898 15.3574964,12.1690426 11.62,17.52 C12.85,18.08 14.03,18.72 15.16,19.45 C18.1738832,15.3820123 22.9371929,12.9828755 28,12.9828755 C33.0628071,12.9828755 37.8261168,15.3820123 40.84,19.45 Z M36.17,23.23 C37.11,22.28 38.13,21.4 39.2,20.6 C36.5609199,17.0671896 32.4097044,14.9866242 28,14.9866242 C23.5902956,14.9866242 19.4390801,17.0671896 16.8,20.6 C17.87,21.4 18.89,22.28 19.83,23.23 C21.7009847,20.5711204 24.7488119,18.9890173 28,18.9890173 C31.2511881,18.9890173 34.2990153,20.5711204 36.17,23.23 Z" id="Shape"></path>
                </g>
                <g id="endless-clouds" transform="translate(112.000000, 0.000000)">
                    <path d="M56,27 L56,29 L48.25,29 C50.55,27.73 53.19,27 56,27 Z M30,29 C30,27.8954305 29.1045695,27 28,27 C26.8954305,27 26,27.8954305 26,29 L21.91,29 C17.1351772,21.5208272 8.87338391,16.9958833 6.2391173e-16,17 L6.2391173e-16,15 C0.67,15 1.34,15.02 2,15.07 L2,15 C2,13.8954305 1.1045695,13 5.6655389e-16,13 L5.6655389e-16,11 C2.05426131,10.9999742 3.77457387,12.5560358 3.98,14.6 C4.80223536,13.2362939 5.73894309,11.9449754 6.78,10.74 C5.31404651,8.40980492 2.75296569,6.99705532 -5.89805982e-16,7 L-5.89805982e-16,5 C3.24917585,4.99748354 6.29660173,6.57528176 8.17,9.23 C9.11,8.28 10.13,7.4 11.2,6.6 C8.55811493,3.07223128 4.40734601,0.996846827 7.19964453e-16,1 L7.75,1 C9.75,2.1 11.48,3.63 12.85,5.45 C13.97,4.73 15.15,4.08 16.38,3.52 C15.7498273,2.62418782 15.047489,1.7813819 14.28,1 L16.98,1 C17.43,1.56 17.86,2.14 18.27,2.74 C19.57,2.26 20.9,1.87 22.27,1.59 C22.16,1.39 22.04,1.19 21.91,1 L26,1 L26,1.07 C27.3316761,0.975986581 28.6683239,0.975986581 30,1.07 L30,1 L34.09,1 L33.72,1.59 C35.1,1.87 36.44,2.26 37.73,2.74 C38.13,2.14 38.57,1.56 39.03,1 L41.72,1 C40.952511,1.7813819 40.2501727,2.62418782 39.62,3.52 C40.85,4.08 42.03,4.72 43.16,5.45 C44.5221307,3.62270958 46.2571426,2.1058524 48.25,1 L56,1 C51.42,1 47.35,3.2 44.8,6.6 C45.87,7.4 46.89,8.28 47.83,9.23 C49.7033983,6.57528176 52.7508242,4.99748354 56,5 L56,7 C53.2505887,7.00049493 50.6940615,8.41281575 49.23,10.74 C50.26,11.94 51.2,13.24 52.02,14.6 C52.2254261,12.5560358 53.9457387,10.9999742 56,11 L56,13 C55.457213,12.9996674 54.9376022,13.2199628 54.5604507,13.6103147 C54.1832991,14.0006665 53.9810023,14.5275454 54,15.07 C54.6656373,15.0231781 55.332718,14.9998302 56,15 L56,17 C46.8,17 38.7,21.78 34.09,29 L30,29 Z M7.75,29 L-1.45716772e-16,29 L-1.45716772e-16,27 C2.81,27 5.46,27.73 7.75,29 Z M56,21 L56,23 C50.4,23 45.35,25.3 41.72,29 L39.02,29 C43.06,24.11 49.17,21 56,21 Z M16.97,29 L14.28,29 C10.65,25.3 5.6,23 -5.89805982e-16,23 L-5.89805982e-16,21 C6.83,21 12.94,24.11 16.97,29 Z M31.98,28.6 C32.8022354,27.2362939 33.7389431,25.9449754 34.78,24.74 C33.3163481,22.4091447 30.7573015,20.994336 28.005,20.994336 C25.2526985,20.994336 22.6936519,22.4091447 21.23,24.74 C22.26,25.94 23.2,27.24 24.02,28.6 C24.2251865,26.5558376 25.9455655,24.9994997 28,24.9994997 C30.0544345,24.9994997 31.7748135,26.5558376 31.98,28.6 Z M46.27,16.74 C47.57,16.26 48.9,15.87 50.27,15.59 C45.5704378,7.77229008 37.116539,2.99046209 27.995,2.99046209 C18.873461,2.99046209 10.4195622,7.77229008 5.72,15.59 C7.1,15.87 8.44,16.26 9.73,16.74 C13.8092346,10.6411586 20.6626966,6.97996318 28,6.97996318 C35.3373034,6.97996318 42.1907654,10.6411586 46.27,16.74 Z M40.84,19.45 C41.97,18.73 43.14,18.08 44.38,17.52 C40.6425036,12.1690426 34.526992,8.98097898 28,8.98097898 C21.473008,8.98097898 15.3574964,12.1690426 11.62,17.52 C12.85,18.08 14.03,18.72 15.16,19.45 C18.1738832,15.3820123 22.9371929,12.9828755 28,12.9828755 C33.0628071,12.9828755 37.8261168,15.3820123 40.84,19.45 Z M36.17,23.23 C37.11,22.28 38.13,21.4 39.2,20.6 C36.5609199,17.0671896 32.4097044,14.9866242 28,14.9866242 C23.5902956,14.9866242 19.4390801,17.0671896 16.8,20.6 C17.87,21.4 18.89,22.28 19.83,23.23 C21.7009847,20.5711204 24.7488119,18.9890173 28,18.9890173 C31.2511881,18.9890173 34.2990153,20.5711204 36.17,23.23 Z" id="Shape"></path>
                </g>
            </g>
            <g id="Group-2" transform="translate(0.000000, 58.000000)">
                <g id="endless-clouds">
                    <path d="M56,27 L56,29 L48.25,29 C50.55,27.73 53.19,27 56,27 Z M30,29 C30,27.8954305 29.1045695,27 28,27 C26.8954305,27 26,27.8954305 26,29 L21.91,29 C17.1351772,21.5208272 8.87338391,16.9958833 6.2391173e-16,17 L6.2391173e-16,15 C0.67,15 1.34,15.02 2,15.07 L2,15 C2,13.8954305 1.1045695,13 5.6655389e-16,13 L5.6655389e-16,11 C2.05426131,10.9999742 3.77457387,12.5560358 3.98,14.6 C4.80223536,13.2362939 5.73894309,11.9449754 6.78,10.74 C5.31404651,8.40980492 2.75296569,6.99705532 -5.89805982e-16,7 L-5.89805982e-16,5 C3.24917585,4.99748354 6.29660173,6.57528176 8.17,9.23 C9.11,8.28 10.13,7.4 11.2,6.6 C8.55811493,3.07223128 4.40734601,0.996846827 7.19964453e-16,1 L7.75,1 C9.75,2.1 11.48,3.63 12.85,5.45 C13.97,4.73 15.15,4.08 16.38,3.52 C15.7498273,2.62418782 15.047489,1.7813819 14.28,1 L16.98,1 C17.43,1.56 17.86,2.14 18.27,2.74 C19.57,2.26 20.9,1.87 22.27,1.59 C22.16,1.39 22.04,1.19 21.91,1 L26,1 L26,1.07 C27.3316761,0.975986581 28.6683239,0.975986581 30,1.07 L30,1 L34.09,1 L33.72,1.59 C35.1,1.87 36.44,2.26 37.73,2.74 C38.13,2.14 38.57,1.56 39.03,1 L41.72,1 C40.952511,1.7813819 40.2501727,2.62418782 39.62,3.52 C40.85,4.08 42.03,4.72 43.16,5.45 C44.5221307,3.62270958 46.2571426,2.1058524 48.25,1 L56,1 C51.42,1 47.35,3.2 44.8,6.6 C45.87,7.4 46.89,8.28 47.83,9.23 C49.7033983,6.57528176 52.7508242,4.99748354 56,5 L56,7 C53.2505887,7.00049493 50.6940615,8.41281575 49.23,10.74 C50.26,11.94 51.2,13.24 52.02,14.6 C52.2254261,12.5560358 53.9457387,10.9999742 56,11 L56,13 C55.457213,12.9996674 54.9376022,13.2199628 54.5604507,13.6103147 C54.1832991,14.0006665 53.9810023,14.5275454 54,15.07 C54.6656373,15.0231781 55.332718,14.9998302 56,15 L56,17 C46.8,17 38.7,21.78 34.09,29 L30,29 Z M7.75,29 L-1.45716772e-16,29 L-1.45716772e-16,27 C2.81,27 5.46,27.73 7.75,29 Z M56,21 L56,23 C50.4,23 45.35,25.3 41.72,29 L39.02,29 C43.06,24.11 49.17,21 56,21 Z M16.97,29 L14.28,29 C10.65,25.3 5.6,23 -5.89805982e-16,23 L-5.89805982e-16,21 C6.83,21 12.94,24.11 16.97,29 Z M31.98,28.6 C32.8022354,27.2362939 33.7389431,25.9449754 34.78,24.74 C33.3163481,22.4091447 30.7573015,20.994336 28.005,20.994336 C25.2526985,20.994336 22.6936519,22.4091447 21.23,24.74 C22.26,25.94 23.2,27.24 24.02,28.6 C24.2251865,26.5558376 25.9455655,24.9994997 28,24.9994997 C30.0544345,24.9994997 31.7748135,26.5558376 31.98,28.6 Z M46.27,16.74 C47.57,16.26 48.9,15.87 50.27,15.59 C45.5704378,7.77229008 37.116539,2.99046209 27.995,2.99046209 C18.873461,2.99046209 10.4195622,7.77229008 5.72,15.59 C7.1,15.87 8.44,16.26 9.73,16.74 C13.8092346,10.6411586 20.6626966,6.97996318 28,6.97996318 C35.3373034,6.97996318 42.1907654,10.6411586 46.27,16.74 Z M40.84,19.45 C41.97,18.73 43.14,18.08 44.38,17.52 C40.6425036,12.1690426 34.526992,8.98097898 28,8.98097898 C21.473008,8.98097898 15.3574964,12.1690426 11.62,17.52 C12.85,18.08 14.03,18.72 15.16,19.45 C18.1738832,15.3820123 22.9371929,12.9828755 28,12.9828755 C33.0628071,12.9828755 37.8261168,15.3820123 40.84,19.45 Z M36.17,23.23 C37.11,22.28 38.13,21.4 39.2,20.6 C36.5609199,17.0671896 32.4097044,14.9866242 28,14.9866242 C23.5902956,14.9866242 19.4390801,17.0671896 16.8,20.6 C17.87,21.4 18.89,22.28 19.83,23.23 C21.7009847,20.5711204 24.7488119,18.9890173 28,18.9890173 C31.2511881,18.9890173 34.2990153,20.5711204 36.17,23.23 Z" id="Shape"></path>
                </g>
                <g id="endless-clouds" transform="translate(56.000000, 0.000000)">
                    <path d="M56,27 L56,29 L48.25,29 C50.55,27.73 53.19,27 56,27 Z M30,29 C30,27.8954305 29.1045695,27 28,27 C26.8954305,27 26,27.8954305 26,29 L21.91,29 C17.1351772,21.5208272 8.87338391,16.9958833 6.2391173e-16,17 L6.2391173e-16,15 C0.67,15 1.34,15.02 2,15.07 L2,15 C2,13.8954305 1.1045695,13 5.6655389e-16,13 L5.6655389e-16,11 C2.05426131,10.9999742 3.77457387,12.5560358 3.98,14.6 C4.80223536,13.2362939 5.73894309,11.9449754 6.78,10.74 C5.31404651,8.40980492 2.75296569,6.99705532 -5.89805982e-16,7 L-5.89805982e-16,5 C3.24917585,4.99748354 6.29660173,6.57528176 8.17,9.23 C9.11,8.28 10.13,7.4 11.2,6.6 C8.55811493,3.07223128 4.40734601,0.996846827 7.19964453e-16,1 L7.75,1 C9.75,2.1 11.48,3.63 12.85,5.45 C13.97,4.73 15.15,4.08 16.38,3.52 C15.7498273,2.62418782 15.047489,1.7813819 14.28,1 L16.98,1 C17.43,1.56 17.86,2.14 18.27,2.74 C19.57,2.26 20.9,1.87 22.27,1.59 C22.16,1.39 22.04,1.19 21.91,1 L26,1 L26,1.07 C27.3316761,0.975986581 28.6683239,0.975986581 30,1.07 L30,1 L34.09,1 L33.72,1.59 C35.1,1.87 36.44,2.26 37.73,2.74 C38.13,2.14 38.57,1.56 39.03,1 L41.72,1 C40.952511,1.7813819 40.2501727,2.62418782 39.62,3.52 C40.85,4.08 42.03,4.72 43.16,5.45 C44.5221307,3.62270958 46.2571426,2.1058524 48.25,1 L56,1 C51.42,1 47.35,3.2 44.8,6.6 C45.87,7.4 46.89,8.28 47.83,9.23 C49.7033983,6.57528176 52.7508242,4.99748354 56,5 L56,7 C53.2505887,7.00049493 50.6940615,8.41281575 49.23,10.74 C50.26,11.94 51.2,13.24 52.02,14.6 C52.2254261,12.5560358 53.9457387,10.9999742 56,11 L56,13 C55.457213,12.9996674 54.9376022,13.2199628 54.5604507,13.6103147 C54.1832991,14.0006665 53.9810023,14.5275454 54,15.07 C54.6656373,15.0231781 55.332718,14.9998302 56,15 L56,17 C46.8,17 38.7,21.78 34.09,29 L30,29 Z M7.75,29 L-1.45716772e-16,29 L-1.45716772e-16,27 C2.81,27 5.46,27.73 7.75,29 Z M56,21 L56,23 C50.4,23 45.35,25.3 41.72,29 L39.02,29 C43.06,24.11 49.17,21 56,21 Z M16.97,29 L14.28,29 C10.65,25.3 5.6,23 -5.89805982e-16,23 L-5.89805982e-16,21 C6.83,21 12.94,24.11 16.97,29 Z M31.98,28.6 C32.8022354,27.2362939 33.7389431,25.9449754 34.78,24.74 C33.3163481,22.4091447 30.7573015,20.994336 28.005,20.994336 C25.2526985,20.994336 22.6936519,22.4091447 21.23,24.74 C22.26,25.94 23.2,27.24 24.02,28.6 C24.2251865,26.5558376 25.9455655,24.9994997 28,24.9994997 C30.0544345,24.9994997 31.7748135,26.5558376 31.98,28.6 Z M46.27,16.74 C47.57,16.26 48.9,15.87 50.27,15.59 C45.5704378,7.77229008 37.116539,2.99046209 27.995,2.99046209 C18.873461,2.99046209 10.4195622,7.77229008 5.72,15.59 C7.1,15.87 8.44,16.26 9.73,16.74 C13.8092346,10.6411586 20.6626966,6.97996318 28,6.97996318 C35.3373034,6.97996318 42.1907654,10.6411586 46.27,16.74 Z M40.84,19.45 C41.97,18.73 43.14,18.08 44.38,17.52 C40.6425036,12.1690426 34.526992,8.98097898 28,8.98097898 C21.473008,8.98097898 15.3574964,12.1690426 11.62,17.52 C12.85,18.08 14.03,18.72 15.16,19.45 C18.1738832,15.3820123 22.9371929,12.9828755 28,12.9828755 C33.0628071,12.9828755 37.8261168,15.3820123 40.84,19.45 Z M36.17,23.23 C37.11,22.28 38.13,21.4 39.2,20.6 C36.5609199,17.0671896 32.4097044,14.9866242 28,14.9866242 C23.5902956,14.9866242 19.4390801,17.0671896 16.8,20.6 C17.87,21.4 18.89,22.28 19.83,23.23 C21.7009847,20.5711204 24.7488119,18.9890173 28,18.9890173 C31.2511881,18.9890173 34.2990153,20.5711204 36.17,23.23 Z" id="Shape"></path>
                </g>
                <g id="endless-clouds" transform="translate(112.000000, 0.000000)">
                    <path d="M56,27 L56,29 L48.25,29 C50.55,27.73 53.19,27 56,27 Z M30,29 C30,27.8954305 29.1045695,27 28,27 C26.8954305,27 26,27.8954305 26,29 L21.91,29 C17.1351772,21.5208272 8.87338391,16.9958833 6.2391173e-16,17 L6.2391173e-16,15 C0.67,15 1.34,15.02 2,15.07 L2,15 C2,13.8954305 1.1045695,13 5.6655389e-16,13 L5.6655389e-16,11 C2.05426131,10.9999742 3.77457387,12.5560358 3.98,14.6 C4.80223536,13.2362939 5.73894309,11.9449754 6.78,10.74 C5.31404651,8.40980492 2.75296569,6.99705532 -5.89805982e-16,7 L-5.89805982e-16,5 C3.24917585,4.99748354 6.29660173,6.57528176 8.17,9.23 C9.11,8.28 10.13,7.4 11.2,6.6 C8.55811493,3.07223128 4.40734601,0.996846827 7.19964453e-16,1 L7.75,1 C9.75,2.1 11.48,3.63 12.85,5.45 C13.97,4.73 15.15,4.08 16.38,3.52 C15.7498273,2.62418782 15.047489,1.7813819 14.28,1 L16.98,1 C17.43,1.56 17.86,2.14 18.27,2.74 C19.57,2.26 20.9,1.87 22.27,1.59 C22.16,1.39 22.04,1.19 21.91,1 L26,1 L26,1.07 C27.3316761,0.975986581 28.6683239,0.975986581 30,1.07 L30,1 L34.09,1 L33.72,1.59 C35.1,1.87 36.44,2.26 37.73,2.74 C38.13,2.14 38.57,1.56 39.03,1 L41.72,1 C40.952511,1.7813819 40.2501727,2.62418782 39.62,3.52 C40.85,4.08 42.03,4.72 43.16,5.45 C44.5221307,3.62270958 46.2571426,2.1058524 48.25,1 L56,1 C51.42,1 47.35,3.2 44.8,6.6 C45.87,7.4 46.89,8.28 47.83,9.23 C49.7033983,6.57528176 52.7508242,4.99748354 56,5 L56,7 C53.2505887,7.00049493 50.6940615,8.41281575 49.23,10.74 C50.26,11.94 51.2,13.24 52.02,14.6 C52.2254261,12.5560358 53.9457387,10.9999742 56,11 L56,13 C55.457213,12.9996674 54.9376022,13.2199628 54.5604507,13.6103147 C54.1832991,14.0006665 53.9810023,14.5275454 54,15.07 C54.6656373,15.0231781 55.332718,14.9998302 56,15 L56,17 C46.8,17 38.7,21.78 34.09,29 L30,29 Z M7.75,29 L-1.45716772e-16,29 L-1.45716772e-16,27 C2.81,27 5.46,27.73 7.75,29 Z M56,21 L56,23 C50.4,23 45.35,25.3 41.72,29 L39.02,29 C43.06,24.11 49.17,21 56,21 Z M16.97,29 L14.28,29 C10.65,25.3 5.6,23 -5.89805982e-16,23 L-5.89805982e-16,21 C6.83,21 12.94,24.11 16.97,29 Z M31.98,28.6 C32.8022354,27.2362939 33.7389431,25.9449754 34.78,24.74 C33.3163481,22.4091447 30.7573015,20.994336 28.005,20.994336 C25.2526985,20.994336 22.6936519,22.4091447 21.23,24.74 C22.26,25.94 23.2,27.24 24.02,28.6 C24.2251865,26.5558376 25.9455655,24.9994997 28,24.9994997 C30.0544345,24.9994997 31.7748135,26.5558376 31.98,28.6 Z M46.27,16.74 C47.57,16.26 48.9,15.87 50.27,15.59 C45.5704378,7.77229008 37.116539,2.99046209 27.995,2.99046209 C18.873461,2.99046209 10.4195622,7.77229008 5.72,15.59 C7.1,15.87 8.44,16.26 9.73,16.74 C13.8092346,10.6411586 20.6626966,6.97996318 28,6.97996318 C35.3373034,6.97996318 42.1907654,10.6411586 46.27,16.74 Z M40.84,19.45 C41.97,18.73 43.14,18.08 44.38,17.52 C40.6425036,12.1690426 34.526992,8.98097898 28,8.98097898 C21.473008,8.98097898 15.3574964,12.1690426 11.62,17.52 C12.85,18.08 14.03,18.72 15.16,19.45 C18.1738832,15.3820123 22.9371929,12.9828755 28,12.9828755 C33.0628071,12.9828755 37.8261168,15.3820123 40.84,19.45 Z M36.17,23.23 C37.11,22.28 38.13,21.4 39.2,20.6 C36.5609199,17.0671896 32.4097044,14.9866242 28,14.9866242 C23.5902956,14.9866242 19.4390801,17.0671896 16.8,20.6 C17.87,21.4 18.89,22.28 19.83,23.23 C21.7009847,20.5711204 24.7488119,18.9890173 28,18.9890173 C31.2511881,18.9890173 34.2990153,20.5711204 36.17,23.23 Z" id="Shape"></path>
                </g>
            </g>
            <g id="Group-2" transform="translate(0.000000, 87.000000)">
                <g id="endless-clouds">
                    <path d="M56,27 L56,29 L48.25,29 C50.55,27.73 53.19,27 56,27 Z M30,29 C30,27.8954305 29.1045695,27 28,27 C26.8954305,27 26,27.8954305 26,29 L21.91,29 C17.1351772,21.5208272 8.87338391,16.9958833 6.2391173e-16,17 L6.2391173e-16,15 C0.67,15 1.34,15.02 2,15.07 L2,15 C2,13.8954305 1.1045695,13 5.6655389e-16,13 L5.6655389e-16,11 C2.05426131,10.9999742 3.77457387,12.5560358 3.98,14.6 C4.80223536,13.2362939 5.73894309,11.9449754 6.78,10.74 C5.31404651,8.40980492 2.75296569,6.99705532 -5.89805982e-16,7 L-5.89805982e-16,5 C3.24917585,4.99748354 6.29660173,6.57528176 8.17,9.23 C9.11,8.28 10.13,7.4 11.2,6.6 C8.55811493,3.07223128 4.40734601,0.996846827 7.19964453e-16,1 L7.75,1 C9.75,2.1 11.48,3.63 12.85,5.45 C13.97,4.73 15.15,4.08 16.38,3.52 C15.7498273,2.62418782 15.047489,1.7813819 14.28,1 L16.98,1 C17.43,1.56 17.86,2.14 18.27,2.74 C19.57,2.26 20.9,1.87 22.27,1.59 C22.16,1.39 22.04,1.19 21.91,1 L26,1 L26,1.07 C27.3316761,0.975986581 28.6683239,0.975986581 30,1.07 L30,1 L34.09,1 L33.72,1.59 C35.1,1.87 36.44,2.26 37.73,2.74 C38.13,2.14 38.57,1.56 39.03,1 L41.72,1 C40.952511,1.7813819 40.2501727,2.62418782 39.62,3.52 C40.85,4.08 42.03,4.72 43.16,5.45 C44.5221307,3.62270958 46.2571426,2.1058524 48.25,1 L56,1 C51.42,1 47.35,3.2 44.8,6.6 C45.87,7.4 46.89,8.28 47.83,9.23 C49.7033983,6.57528176 52.7508242,4.99748354 56,5 L56,7 C53.2505887,7.00049493 50.6940615,8.41281575 49.23,10.74 C50.26,11.94 51.2,13.24 52.02,14.6 C52.2254261,12.5560358 53.9457387,10.9999742 56,11 L56,13 C55.457213,12.9996674 54.9376022,13.2199628 54.5604507,13.6103147 C54.1832991,14.0006665 53.9810023,14.5275454 54,15.07 C54.6656373,15.0231781 55.332718,14.9998302 56,15 L56,17 C46.8,17 38.7,21.78 34.09,29 L30,29 Z M7.75,29 L-1.45716772e-16,29 L-1.45716772e-16,27 C2.81,27 5.46,27.73 7.75,29 Z M56,21 L56,23 C50.4,23 45.35,25.3 41.72,29 L39.02,29 C43.06,24.11 49.17,21 56,21 Z M16.97,29 L14.28,29 C10.65,25.3 5.6,23 -5.89805982e-16,23 L-5.89805982e-16,21 C6.83,21 12.94,24.11 16.97,29 Z M31.98,28.6 C32.8022354,27.2362939 33.7389431,25.9449754 34.78,24.74 C33.3163481,22.4091447 30.7573015,20.994336 28.005,20.994336 C25.2526985,20.994336 22.6936519,22.4091447 21.23,24.74 C22.26,25.94 23.2,27.24 24.02,28.6 C24.2251865,26.5558376 25.9455655,24.9994997 28,24.9994997 C30.0544345,24.9994997 31.7748135,26.5558376 31.98,28.6 Z M46.27,16.74 C47.57,16.26 48.9,15.87 50.27,15.59 C45.5704378,7.77229008 37.116539,2.99046209 27.995,2.99046209 C18.873461,2.99046209 10.4195622,7.77229008 5.72,15.59 C7.1,15.87 8.44,16.26 9.73,16.74 C13.8092346,10.6411586 20.6626966,6.97996318 28,6.97996318 C35.3373034,6.97996318 42.1907654,10.6411586 46.27,16.74 Z M40.84,19.45 C41.97,18.73 43.14,18.08 44.38,17.52 C40.6425036,12.1690426 34.526992,8.98097898 28,8.98097898 C21.473008,8.98097898 15.3574964,12.1690426 11.62,17.52 C12.85,18.08 14.03,18.72 15.16,19.45 C18.1738832,15.3820123 22.9371929,12.9828755 28,12.9828755 C33.0628071,12.9828755 37.8261168,15.3820123 40.84,19.45 Z M36.17,23.23 C37.11,22.28 38.13,21.4 39.2,20.6 C36.5609199,17.0671896 32.4097044,14.9866242 28,14.9866242 C23.5902956,14.9866242 19.4390801,17.0671896 16.8,20.6 C17.87,21.4 18.89,22.28 19.83,23.23 C21.7009847,20.5711204 24.7488119,18.9890173 28,18.9890173 C31.2511881,18.9890173 34.2990153,20.5711204 36.17,23.23 Z" id="Shape"></path>
                </g>
                <g id="endless-clouds" transform="translate(56.000000, 0.000000)">
                    <path d="M56,27 L56,29 L48.25,29 C50.55,27.73 53.19,27 56,27 Z M30,29 C30,27.8954305 29.1045695,27 28,27 C26.8954305,27 26,27.8954305 26,29 L21.91,29 C17.1351772,21.5208272 8.87338391,16.9958833 6.2391173e-16,17 L6.2391173e-16,15 C0.67,15 1.34,15.02 2,15.07 L2,15 C2,13.8954305 1.1045695,13 5.6655389e-16,13 L5.6655389e-16,11 C2.05426131,10.9999742 3.77457387,12.5560358 3.98,14.6 C4.80223536,13.2362939 5.73894309,11.9449754 6.78,10.74 C5.31404651,8.40980492 2.75296569,6.99705532 -5.89805982e-16,7 L-5.89805982e-16,5 C3.24917585,4.99748354 6.29660173,6.57528176 8.17,9.23 C9.11,8.28 10.13,7.4 11.2,6.6 C8.55811493,3.07223128 4.40734601,0.996846827 7.19964453e-16,1 L7.75,1 C9.75,2.1 11.48,3.63 12.85,5.45 C13.97,4.73 15.15,4.08 16.38,3.52 C15.7498273,2.62418782 15.047489,1.7813819 14.28,1 L16.98,1 C17.43,1.56 17.86,2.14 18.27,2.74 C19.57,2.26 20.9,1.87 22.27,1.59 C22.16,1.39 22.04,1.19 21.91,1 L26,1 L26,1.07 C27.3316761,0.975986581 28.6683239,0.975986581 30,1.07 L30,1 L34.09,1 L33.72,1.59 C35.1,1.87 36.44,2.26 37.73,2.74 C38.13,2.14 38.57,1.56 39.03,1 L41.72,1 C40.952511,1.7813819 40.2501727,2.62418782 39.62,3.52 C40.85,4.08 42.03,4.72 43.16,5.45 C44.5221307,3.62270958 46.2571426,2.1058524 48.25,1 L56,1 C51.42,1 47.35,3.2 44.8,6.6 C45.87,7.4 46.89,8.28 47.83,9.23 C49.7033983,6.57528176 52.7508242,4.99748354 56,5 L56,7 C53.2505887,7.00049493 50.6940615,8.41281575 49.23,10.74 C50.26,11.94 51.2,13.24 52.02,14.6 C52.2254261,12.5560358 53.9457387,10.9999742 56,11 L56,13 C55.457213,12.9996674 54.9376022,13.2199628 54.5604507,13.6103147 C54.1832991,14.0006665 53.9810023,14.5275454 54,15.07 C54.6656373,15.0231781 55.332718,14.9998302 56,15 L56,17 C46.8,17 38.7,21.78 34.09,29 L30,29 Z M7.75,29 L-1.45716772e-16,29 L-1.45716772e-16,27 C2.81,27 5.46,27.73 7.75,29 Z M56,21 L56,23 C50.4,23 45.35,25.3 41.72,29 L39.02,29 C43.06,24.11 49.17,21 56,21 Z M16.97,29 L14.28,29 C10.65,25.3 5.6,23 -5.89805982e-16,23 L-5.89805982e-16,21 C6.83,21 12.94,24.11 16.97,29 Z M31.98,28.6 C32.8022354,27.2362939 33.7389431,25.9449754 34.78,24.74 C33.3163481,22.4091447 30.7573015,20.994336 28.005,20.994336 C25.2526985,20.994336 22.6936519,22.4091447 21.23,24.74 C22.26,25.94 23.2,27.24 24.02,28.6 C24.2251865,26.5558376 25.9455655,24.9994997 28,24.9994997 C30.0544345,24.9994997 31.7748135,26.5558376 31.98,28.6 Z M46.27,16.74 C47.57,16.26 48.9,15.87 50.27,15.59 C45.5704378,7.77229008 37.116539,2.99046209 27.995,2.99046209 C18.873461,2.99046209 10.4195622,7.77229008 5.72,15.59 C7.1,15.87 8.44,16.26 9.73,16.74 C13.8092346,10.6411586 20.6626966,6.97996318 28,6.97996318 C35.3373034,6.97996318 42.1907654,10.6411586 46.27,16.74 Z M40.84,19.45 C41.97,18.73 43.14,18.08 44.38,17.52 C40.6425036,12.1690426 34.526992,8.98097898 28,8.98097898 C21.473008,8.98097898 15.3574964,12.1690426 11.62,17.52 C12.85,18.08 14.03,18.72 15.16,19.45 C18.1738832,15.3820123 22.9371929,12.9828755 28,12.9828755 C33.0628071,12.9828755 37.8261168,15.3820123 40.84,19.45 Z M36.17,23.23 C37.11,22.28 38.13,21.4 39.2,20.6 C36.5609199,17.0671896 32.4097044,14.9866242 28,14.9866242 C23.5902956,14.9866242 19.4390801,17.0671896 16.8,20.6 C17.87,21.4 18.89,22.28 19.83,23.23 C21.7009847,20.5711204 24.7488119,18.9890173 28,18.9890173 C31.2511881,18.9890173 34.2990153,20.5711204 36.17,23.23 Z" id="Shape"></path>
                </g>
                <g id="endless-clouds" transform="translate(112.000000, 0.000000)">
                    <path d="M56,27 L56,29 L48.25,29 C50.55,27.73 53.19,27 56,27 Z M30,29 C30,27.8954305 29.1045695,27 28,27 C26.8954305,27 26,27.8954305 26,29 L21.91,29 C17.1351772,21.5208272 8.87338391,16.9958833 6.2391173e-16,17 L6.2391173e-16,15 C0.67,15 1.34,15.02 2,15.07 L2,15 C2,13.8954305 1.1045695,13 5.6655389e-16,13 L5.6655389e-16,11 C2.05426131,10.9999742 3.77457387,12.5560358 3.98,14.6 C4.80223536,13.2362939 5.73894309,11.9449754 6.78,10.74 C5.31404651,8.40980492 2.75296569,6.99705532 -5.89805982e-16,7 L-5.89805982e-16,5 C3.24917585,4.99748354 6.29660173,6.57528176 8.17,9.23 C9.11,8.28 10.13,7.4 11.2,6.6 C8.55811493,3.07223128 4.40734601,0.996846827 7.19964453e-16,1 L7.75,1 C9.75,2.1 11.48,3.63 12.85,5.45 C13.97,4.73 15.15,4.08 16.38,3.52 C15.7498273,2.62418782 15.047489,1.7813819 14.28,1 L16.98,1 C17.43,1.56 17.86,2.14 18.27,2.74 C19.57,2.26 20.9,1.87 22.27,1.59 C22.16,1.39 22.04,1.19 21.91,1 L26,1 L26,1.07 C27.3316761,0.975986581 28.6683239,0.975986581 30,1.07 L30,1 L34.09,1 L33.72,1.59 C35.1,1.87 36.44,2.26 37.73,2.74 C38.13,2.14 38.57,1.56 39.03,1 L41.72,1 C40.952511,1.7813819 40.2501727,2.62418782 39.62,3.52 C40.85,4.08 42.03,4.72 43.16,5.45 C44.5221307,3.62270958 46.2571426,2.1058524 48.25,1 L56,1 C51.42,1 47.35,3.2 44.8,6.6 C45.87,7.4 46.89,8.28 47.83,9.23 C49.7033983,6.57528176 52.7508242,4.99748354 56,5 L56,7 C53.2505887,7.00049493 50.6940615,8.41281575 49.23,10.74 C50.26,11.94 51.2,13.24 52.02,14.6 C52.2254261,12.5560358 53.9457387,10.9999742 56,11 L56,13 C55.457213,12.9996674 54.9376022,13.2199628 54.5604507,13.6103147 C54.1832991,14.0006665 53.9810023,14.5275454 54,15.07 C54.6656373,15.0231781 55.332718,14.9998302 56,15 L56,17 C46.8,17 38.7,21.78 34.09,29 L30,29 Z M7.75,29 L-1.45716772e-16,29 L-1.45716772e-16,27 C2.81,27 5.46,27.73 7.75,29 Z M56,21 L56,23 C50.4,23 45.35,25.3 41.72,29 L39.02,29 C43.06,24.11 49.17,21 56,21 Z M16.97,29 L14.28,29 C10.65,25.3 5.6,23 -5.89805982e-16,23 L-5.89805982e-16,21 C6.83,21 12.94,24.11 16.97,29 Z M31.98,28.6 C32.8022354,27.2362939 33.7389431,25.9449754 34.78,24.74 C33.3163481,22.4091447 30.7573015,20.994336 28.005,20.994336 C25.2526985,20.994336 22.6936519,22.4091447 21.23,24.74 C22.26,25.94 23.2,27.24 24.02,28.6 C24.2251865,26.5558376 25.9455655,24.9994997 28,24.9994997 C30.0544345,24.9994997 31.7748135,26.5558376 31.98,28.6 Z M46.27,16.74 C47.57,16.26 48.9,15.87 50.27,15.59 C45.5704378,7.77229008 37.116539,2.99046209 27.995,2.99046209 C18.873461,2.99046209 10.4195622,7.77229008 5.72,15.59 C7.1,15.87 8.44,16.26 9.73,16.74 C13.8092346,10.6411586 20.6626966,6.97996318 28,6.97996318 C35.3373034,6.97996318 42.1907654,10.6411586 46.27,16.74 Z M40.84,19.45 C41.97,18.73 43.14,18.08 44.38,17.52 C40.6425036,12.1690426 34.526992,8.98097898 28,8.98097898 C21.473008,8.98097898 15.3574964,12.1690426 11.62,17.52 C12.85,18.08 14.03,18.72 15.16,19.45 C18.1738832,15.3820123 22.9371929,12.9828755 28,12.9828755 C33.0628071,12.9828755 37.8261168,15.3820123 40.84,19.45 Z M36.17,23.23 C37.11,22.28 38.13,21.4 39.2,20.6 C36.5609199,17.0671896 32.4097044,14.9866242 28,14.9866242 C23.5902956,14.9866242 19.4390801,17.0671896 16.8,20.6 C17.87,21.4 18.89,22.28 19.83,23.23 C21.7009847,20.5711204 24.7488119,18.9890173 28,18.9890173 C31.2511881,18.9890173 34.2990153,20.5711204 36.17,23.23 Z" id="Shape"></path>
                </g>
            </g>
            <g id="Group-2" transform="translate(0.000000, 116.000000)">
                <g id="endless-clouds">
                    <path d="M56,27 L56,29 L48.25,29 C50.55,27.73 53.19,27 56,27 Z M30,29 C30,27.8954305 29.1045695,27 28,27 C26.8954305,27 26,27.8954305 26,29 L21.91,29 C17.1351772,21.5208272 8.87338391,16.9958833 6.2391173e-16,17 L6.2391173e-16,15 C0.67,15 1.34,15.02 2,15.07 L2,15 C2,13.8954305 1.1045695,13 5.6655389e-16,13 L5.6655389e-16,11 C2.05426131,10.9999742 3.77457387,12.5560358 3.98,14.6 C4.80223536,13.2362939 5.73894309,11.9449754 6.78,10.74 C5.31404651,8.40980492 2.75296569,6.99705532 -5.89805982e-16,7 L-5.89805982e-16,5 C3.24917585,4.99748354 6.29660173,6.57528176 8.17,9.23 C9.11,8.28 10.13,7.4 11.2,6.6 C8.55811493,3.07223128 4.40734601,0.996846827 7.19964453e-16,1 L7.75,1 C9.75,2.1 11.48,3.63 12.85,5.45 C13.97,4.73 15.15,4.08 16.38,3.52 C15.7498273,2.62418782 15.047489,1.7813819 14.28,1 L16.98,1 C17.43,1.56 17.86,2.14 18.27,2.74 C19.57,2.26 20.9,1.87 22.27,1.59 C22.16,1.39 22.04,1.19 21.91,1 L26,1 L26,1.07 C27.3316761,0.975986581 28.6683239,0.975986581 30,1.07 L30,1 L34.09,1 L33.72,1.59 C35.1,1.87 36.44,2.26 37.73,2.74 C38.13,2.14 38.57,1.56 39.03,1 L41.72,1 C40.952511,1.7813819 40.2501727,2.62418782 39.62,3.52 C40.85,4.08 42.03,4.72 43.16,5.45 C44.5221307,3.62270958 46.2571426,2.1058524 48.25,1 L56,1 C51.42,1 47.35,3.2 44.8,6.6 C45.87,7.4 46.89,8.28 47.83,9.23 C49.7033983,6.57528176 52.7508242,4.99748354 56,5 L56,7 C53.2505887,7.00049493 50.6940615,8.41281575 49.23,10.74 C50.26,11.94 51.2,13.24 52.02,14.6 C52.2254261,12.5560358 53.9457387,10.9999742 56,11 L56,13 C55.457213,12.9996674 54.9376022,13.2199628 54.5604507,13.6103147 C54.1832991,14.0006665 53.9810023,14.5275454 54,15.07 C54.6656373,15.0231781 55.332718,14.9998302 56,15 L56,17 C46.8,17 38.7,21.78 34.09,29 L30,29 Z M7.75,29 L-1.45716772e-16,29 L-1.45716772e-16,27 C2.81,27 5.46,27.73 7.75,29 Z M56,21 L56,23 C50.4,23 45.35,25.3 41.72,29 L39.02,29 C43.06,24.11 49.17,21 56,21 Z M16.97,29 L14.28,29 C10.65,25.3 5.6,23 -5.89805982e-16,23 L-5.89805982e-16,21 C6.83,21 12.94,24.11 16.97,29 Z M31.98,28.6 C32.8022354,27.2362939 33.7389431,25.9449754 34.78,24.74 C33.3163481,22.4091447 30.7573015,20.994336 28.005,20.994336 C25.2526985,20.994336 22.6936519,22.4091447 21.23,24.74 C22.26,25.94 23.2,27.24 24.02,28.6 C24.2251865,26.5558376 25.9455655,24.9994997 28,24.9994997 C30.0544345,24.9994997 31.7748135,26.5558376 31.98,28.6 Z M46.27,16.74 C47.57,16.26 48.9,15.87 50.27,15.59 C45.5704378,7.77229008 37.116539,2.99046209 27.995,2.99046209 C18.873461,2.99046209 10.4195622,7.77229008 5.72,15.59 C7.1,15.87 8.44,16.26 9.73,16.74 C13.8092346,10.6411586 20.6626966,6.97996318 28,6.97996318 C35.3373034,6.97996318 42.1907654,10.6411586 46.27,16.74 Z M40.84,19.45 C41.97,18.73 43.14,18.08 44.38,17.52 C40.6425036,12.1690426 34.526992,8.98097898 28,8.98097898 C21.473008,8.98097898 15.3574964,12.1690426 11.62,17.52 C12.85,18.08 14.03,18.72 15.16,19.45 C18.1738832,15.3820123 22.9371929,12.9828755 28,12.9828755 C33.0628071,12.9828755 37.8261168,15.3820123 40.84,19.45 Z M36.17,23.23 C37.11,22.28 38.13,21.4 39.2,20.6 C36.5609199,17.0671896 32.4097044,14.9866242 28,14.9866242 C23.5902956,14.9866242 19.4390801,17.0671896 16.8,20.6 C17.87,21.4 18.89,22.28 19.83,23.23 C21.7009847,20.5711204 24.7488119,18.9890173 28,18.9890173 C31.2511881,18.9890173 34.2990153,20.5711204 36.17,23.23 Z" id="Shape"></path>
                </g>
                <g id="endless-clouds" transform="translate(56.000000, 0.000000)">
                    <path d="M56,27 L56,29 L48.25,29 C50.55,27.73 53.19,27 56,27 Z M30,29 C30,27.8954305 29.1045695,27 28,27 C26.8954305,27 26,27.8954305 26,29 L21.91,29 C17.1351772,21.5208272 8.87338391,16.9958833 6.2391173e-16,17 L6.2391173e-16,15 C0.67,15 1.34,15.02 2,15.07 L2,15 C2,13.8954305 1.1045695,13 5.6655389e-16,13 L5.6655389e-16,11 C2.05426131,10.9999742 3.77457387,12.5560358 3.98,14.6 C4.80223536,13.2362939 5.73894309,11.9449754 6.78,10.74 C5.31404651,8.40980492 2.75296569,6.99705532 -5.89805982e-16,7 L-5.89805982e-16,5 C3.24917585,4.99748354 6.29660173,6.57528176 8.17,9.23 C9.11,8.28 10.13,7.4 11.2,6.6 C8.55811493,3.07223128 4.40734601,0.996846827 7.19964453e-16,1 L7.75,1 C9.75,2.1 11.48,3.63 12.85,5.45 C13.97,4.73 15.15,4.08 16.38,3.52 C15.7498273,2.62418782 15.047489,1.7813819 14.28,1 L16.98,1 C17.43,1.56 17.86,2.14 18.27,2.74 C19.57,2.26 20.9,1.87 22.27,1.59 C22.16,1.39 22.04,1.19 21.91,1 L26,1 L26,1.07 C27.3316761,0.975986581 28.6683239,0.975986581 30,1.07 L30,1 L34.09,1 L33.72,1.59 C35.1,1.87 36.44,2.26 37.73,2.74 C38.13,2.14 38.57,1.56 39.03,1 L41.72,1 C40.952511,1.7813819 40.2501727,2.62418782 39.62,3.52 C40.85,4.08 42.03,4.72 43.16,5.45 C44.5221307,3.62270958 46.2571426,2.1058524 48.25,1 L56,1 C51.42,1 47.35,3.2 44.8,6.6 C45.87,7.4 46.89,8.28 47.83,9.23 C49.7033983,6.57528176 52.7508242,4.99748354 56,5 L56,7 C53.2505887,7.00049493 50.6940615,8.41281575 49.23,10.74 C50.26,11.94 51.2,13.24 52.02,14.6 C52.2254261,12.5560358 53.9457387,10.9999742 56,11 L56,13 C55.457213,12.9996674 54.9376022,13.2199628 54.5604507,13.6103147 C54.1832991,14.0006665 53.9810023,14.5275454 54,15.07 C54.6656373,15.0231781 55.332718,14.9998302 56,15 L56,17 C46.8,17 38.7,21.78 34.09,29 L30,29 Z M7.75,29 L-1.45716772e-16,29 L-1.45716772e-16,27 C2.81,27 5.46,27.73 7.75,29 Z M56,21 L56,23 C50.4,23 45.35,25.3 41.72,29 L39.02,29 C43.06,24.11 49.17,21 56,21 Z M16.97,29 L14.28,29 C10.65,25.3 5.6,23 -5.89805982e-16,23 L-5.89805982e-16,21 C6.83,21 12.94,24.11 16.97,29 Z M31.98,28.6 C32.8022354,27.2362939 33.7389431,25.9449754 34.78,24.74 C33.3163481,22.4091447 30.7573015,20.994336 28.005,20.994336 C25.2526985,20.994336 22.6936519,22.4091447 21.23,24.74 C22.26,25.94 23.2,27.24 24.02,28.6 C24.2251865,26.5558376 25.9455655,24.9994997 28,24.9994997 C30.0544345,24.9994997 31.7748135,26.5558376 31.98,28.6 Z M46.27,16.74 C47.57,16.26 48.9,15.87 50.27,15.59 C45.5704378,7.77229008 37.116539,2.99046209 27.995,2.99046209 C18.873461,2.99046209 10.4195622,7.77229008 5.72,15.59 C7.1,15.87 8.44,16.26 9.73,16.74 C13.8092346,10.6411586 20.6626966,6.97996318 28,6.97996318 C35.3373034,6.97996318 42.1907654,10.6411586 46.27,16.74 Z M40.84,19.45 C41.97,18.73 43.14,18.08 44.38,17.52 C40.6425036,12.1690426 34.526992,8.98097898 28,8.98097898 C21.473008,8.98097898 15.3574964,12.1690426 11.62,17.52 C12.85,18.08 14.03,18.72 15.16,19.45 C18.1738832,15.3820123 22.9371929,12.9828755 28,12.9828755 C33.0628071,12.9828755 37.8261168,15.3820123 40.84,19.45 Z M36.17,23.23 C37.11,22.28 38.13,21.4 39.2,20.6 C36.5609199,17.0671896 32.4097044,14.9866242 28,14.9866242 C23.5902956,14.9866242 19.4390801,17.0671896 16.8,20.6 C17.87,21.4 18.89,22.28 19.83,23.23 C21.7009847,20.5711204 24.7488119,18.9890173 28,18.9890173 C31.2511881,18.9890173 34.2990153,20.5711204 36.17,23.23 Z" id="Shape"></path>
                </g>
                <g id="endless-clouds" transform="translate(112.000000, 0.000000)">
                    <path d="M56,27 L56,29 L48.25,29 C50.55,27.73 53.19,27 56,27 Z M30,29 C30,27.8954305 29.1045695,27 28,27 C26.8954305,27 26,27.8954305 26,29 L21.91,29 C17.1351772,21.5208272 8.87338391,16.9958833 6.2391173e-16,17 L6.2391173e-16,15 C0.67,15 1.34,15.02 2,15.07 L2,15 C2,13.8954305 1.1045695,13 5.6655389e-16,13 L5.6655389e-16,11 C2.05426131,10.9999742 3.77457387,12.5560358 3.98,14.6 C4.80223536,13.2362939 5.73894309,11.9449754 6.78,10.74 C5.31404651,8.40980492 2.75296569,6.99705532 -5.89805982e-16,7 L-5.89805982e-16,5 C3.24917585,4.99748354 6.29660173,6.57528176 8.17,9.23 C9.11,8.28 10.13,7.4 11.2,6.6 C8.55811493,3.07223128 4.40734601,0.996846827 7.19964453e-16,1 L7.75,1 C9.75,2.1 11.48,3.63 12.85,5.45 C13.97,4.73 15.15,4.08 16.38,3.52 C15.7498273,2.62418782 15.047489,1.7813819 14.28,1 L16.98,1 C17.43,1.56 17.86,2.14 18.27,2.74 C19.57,2.26 20.9,1.87 22.27,1.59 C22.16,1.39 22.04,1.19 21.91,1 L26,1 L26,1.07 C27.3316761,0.975986581 28.6683239,0.975986581 30,1.07 L30,1 L34.09,1 L33.72,1.59 C35.1,1.87 36.44,2.26 37.73,2.74 C38.13,2.14 38.57,1.56 39.03,1 L41.72,1 C40.952511,1.7813819 40.2501727,2.62418782 39.62,3.52 C40.85,4.08 42.03,4.72 43.16,5.45 C44.5221307,3.62270958 46.2571426,2.1058524 48.25,1 L56,1 C51.42,1 47.35,3.2 44.8,6.6 C45.87,7.4 46.89,8.28 47.83,9.23 C49.7033983,6.57528176 52.7508242,4.99748354 56,5 L56,7 C53.2505887,7.00049493 50.6940615,8.41281575 49.23,10.74 C50.26,11.94 51.2,13.24 52.02,14.6 C52.2254261,12.5560358 53.9457387,10.9999742 56,11 L56,13 C55.457213,12.9996674 54.9376022,13.2199628 54.5604507,13.6103147 C54.1832991,14.0006665 53.9810023,14.5275454 54,15.07 C54.6656373,15.0231781 55.332718,14.9998302 56,15 L56,17 C46.8,17 38.7,21.78 34.09,29 L30,29 Z M7.75,29 L-1.45716772e-16,29 L-1.45716772e-16,27 C2.81,27 5.46,27.73 7.75,29 Z M56,21 L56,23 C50.4,23 45.35,25.3 41.72,29 L39.02,29 C43.06,24.11 49.17,21 56,21 Z M16.97,29 L14.28,29 C10.65,25.3 5.6,23 -5.89805982e-16,23 L-5.89805982e-16,21 C6.83,21 12.94,24.11 16.97,29 Z M31.98,28.6 C32.8022354,27.2362939 33.7389431,25.9449754 34.78,24.74 C33.3163481,22.4091447 30.7573015,20.994336 28.005,20.994336 C25.2526985,20.994336 22.6936519,22.4091447 21.23,24.74 C22.26,25.94 23.2,27.24 24.02,28.6 C24.2251865,26.5558376 25.9455655,24.9994997 28,24.9994997 C30.0544345,24.9994997 31.7748135,26.5558376 31.98,28.6 Z M46.27,16.74 C47.57,16.26 48.9,15.87 50.27,15.59 C45.5704378,7.77229008 37.116539,2.99046209 27.995,2.99046209 C18.873461,2.99046209 10.4195622,7.77229008 5.72,15.59 C7.1,15.87 8.44,16.26 9.73,16.74 C13.8092346,10.6411586 20.6626966,6.97996318 28,6.97996318 C35.3373034,6.97996318 42.1907654,10.6411586 46.27,16.74 Z M40.84,19.45 C41.97,18.73 43.14,18.08 44.38,17.52 C40.6425036,12.1690426 34.526992,8.98097898 28,8.98097898 C21.473008,8.98097898 15.3574964,12.1690426 11.62,17.52 C12.85,18.08 14.03,18.72 15.16,19.45 C18.1738832,15.3820123 22.9371929,12.9828755 28,12.9828755 C33.0628071,12.9828755 37.8261168,15.3820123 40.84,19.45 Z M36.17,23.23 C37.11,22.28 38.13,21.4 39.2,20.6 C36.5609199,17.0671896 32.4097044,14.9866242 28,14.9866242 C23.5902956,14.9866242 19.4390801,17.0671896 16.8,20.6 C17.87,21.4 18.89,22.28 19.83,23.23 C21.7009847,20.5711204 24.7488119,18.9890173 28,18.9890173 C31.2511881,18.9890173 34.2990153,20.5711204 36.17,23.23 Z" id="Shape"></path>
                </g>
            </g>
            <g id="Group-2" transform="translate(0.000000, 145.000000)">
                <g id="endless-clouds">
                    <path d="M56,27 L56,29 L48.25,29 C50.55,27.73 53.19,27 56,27 Z M30,29 C30,27.8954305 29.1045695,27 28,27 C26.8954305,27 26,27.8954305 26,29 L21.91,29 C17.1351772,21.5208272 8.87338391,16.9958833 6.2391173e-16,17 L6.2391173e-16,15 C0.67,15 1.34,15.02 2,15.07 L2,15 C2,13.8954305 1.1045695,13 5.6655389e-16,13 L5.6655389e-16,11 C2.05426131,10.9999742 3.77457387,12.5560358 3.98,14.6 C4.80223536,13.2362939 5.73894309,11.9449754 6.78,10.74 C5.31404651,8.40980492 2.75296569,6.99705532 -5.89805982e-16,7 L-5.89805982e-16,5 C3.24917585,4.99748354 6.29660173,6.57528176 8.17,9.23 C9.11,8.28 10.13,7.4 11.2,6.6 C8.55811493,3.07223128 4.40734601,0.996846827 7.19964453e-16,1 L7.75,1 C9.75,2.1 11.48,3.63 12.85,5.45 C13.97,4.73 15.15,4.08 16.38,3.52 C15.7498273,2.62418782 15.047489,1.7813819 14.28,1 L16.98,1 C17.43,1.56 17.86,2.14 18.27,2.74 C19.57,2.26 20.9,1.87 22.27,1.59 C22.16,1.39 22.04,1.19 21.91,1 L26,1 L26,1.07 C27.3316761,0.975986581 28.6683239,0.975986581 30,1.07 L30,1 L34.09,1 L33.72,1.59 C35.1,1.87 36.44,2.26 37.73,2.74 C38.13,2.14 38.57,1.56 39.03,1 L41.72,1 C40.952511,1.7813819 40.2501727,2.62418782 39.62,3.52 C40.85,4.08 42.03,4.72 43.16,5.45 C44.5221307,3.62270958 46.2571426,2.1058524 48.25,1 L56,1 C51.42,1 47.35,3.2 44.8,6.6 C45.87,7.4 46.89,8.28 47.83,9.23 C49.7033983,6.57528176 52.7508242,4.99748354 56,5 L56,7 C53.2505887,7.00049493 50.6940615,8.41281575 49.23,10.74 C50.26,11.94 51.2,13.24 52.02,14.6 C52.2254261,12.5560358 53.9457387,10.9999742 56,11 L56,13 C55.457213,12.9996674 54.9376022,13.2199628 54.5604507,13.6103147 C54.1832991,14.0006665 53.9810023,14.5275454 54,15.07 C54.6656373,15.0231781 55.332718,14.9998302 56,15 L56,17 C46.8,17 38.7,21.78 34.09,29 L30,29 Z M7.75,29 L-1.45716772e-16,29 L-1.45716772e-16,27 C2.81,27 5.46,27.73 7.75,29 Z M56,21 L56,23 C50.4,23 45.35,25.3 41.72,29 L39.02,29 C43.06,24.11 49.17,21 56,21 Z M16.97,29 L14.28,29 C10.65,25.3 5.6,23 -5.89805982e-16,23 L-5.89805982e-16,21 C6.83,21 12.94,24.11 16.97,29 Z M31.98,28.6 C32.8022354,27.2362939 33.7389431,25.9449754 34.78,24.74 C33.3163481,22.4091447 30.7573015,20.994336 28.005,20.994336 C25.2526985,20.994336 22.6936519,22.4091447 21.23,24.74 C22.26,25.94 23.2,27.24 24.02,28.6 C24.2251865,26.5558376 25.9455655,24.9994997 28,24.9994997 C30.0544345,24.9994997 31.7748135,26.5558376 31.98,28.6 Z M46.27,16.74 C47.57,16.26 48.9,15.87 50.27,15.59 C45.5704378,7.77229008 37.116539,2.99046209 27.995,2.99046209 C18.873461,2.99046209 10.4195622,7.77229008 5.72,15.59 C7.1,15.87 8.44,16.26 9.73,16.74 C13.8092346,10.6411586 20.6626966,6.97996318 28,6.97996318 C35.3373034,6.97996318 42.1907654,10.6411586 46.27,16.74 Z M40.84,19.45 C41.97,18.73 43.14,18.08 44.38,17.52 C40.6425036,12.1690426 34.526992,8.98097898 28,8.98097898 C21.473008,8.98097898 15.3574964,12.1690426 11.62,17.52 C12.85,18.08 14.03,18.72 15.16,19.45 C18.1738832,15.3820123 22.9371929,12.9828755 28,12.9828755 C33.0628071,12.9828755 37.8261168,15.3820123 40.84,19.45 Z M36.17,23.23 C37.11,22.28 38.13,21.4 39.2,20.6 C36.5609199,17.0671896 32.4097044,14.9866242 28,14.9866242 C23.5902956,14.9866242 19.4390801,17.0671896 16.8,20.6 C17.87,21.4 18.89,22.28 19.83,23.23 C21.7009847,20.5711204 24.7488119,18.9890173 28,18.9890173 C31.2511881,18.9890173 34.2990153,20.5711204 36.17,23.23 Z" id="Shape"></path>
                </g>
                <g id="endless-clouds" transform="translate(56.000000, 0.000000)">
                    <path d="M56,27 L56,29 L48.25,29 C50.55,27.73 53.19,27 56,27 Z M30,29 C30,27.8954305 29.1045695,27 28,27 C26.8954305,27 26,27.8954305 26,29 L21.91,29 C17.1351772,21.5208272 8.87338391,16.9958833 6.2391173e-16,17 L6.2391173e-16,15 C0.67,15 1.34,15.02 2,15.07 L2,15 C2,13.8954305 1.1045695,13 5.6655389e-16,13 L5.6655389e-16,11 C2.05426131,10.9999742 3.77457387,12.5560358 3.98,14.6 C4.80223536,13.2362939 5.73894309,11.9449754 6.78,10.74 C5.31404651,8.40980492 2.75296569,6.99705532 -5.89805982e-16,7 L-5.89805982e-16,5 C3.24917585,4.99748354 6.29660173,6.57528176 8.17,9.23 C9.11,8.28 10.13,7.4 11.2,6.6 C8.55811493,3.07223128 4.40734601,0.996846827 7.19964453e-16,1 L7.75,1 C9.75,2.1 11.48,3.63 12.85,5.45 C13.97,4.73 15.15,4.08 16.38,3.52 C15.7498273,2.62418782 15.047489,1.7813819 14.28,1 L16.98,1 C17.43,1.56 17.86,2.14 18.27,2.74 C19.57,2.26 20.9,1.87 22.27,1.59 C22.16,1.39 22.04,1.19 21.91,1 L26,1 L26,1.07 C27.3316761,0.975986581 28.6683239,0.975986581 30,1.07 L30,1 L34.09,1 L33.72,1.59 C35.1,1.87 36.44,2.26 37.73,2.74 C38.13,2.14 38.57,1.56 39.03,1 L41.72,1 C40.952511,1.7813819 40.2501727,2.62418782 39.62,3.52 C40.85,4.08 42.03,4.72 43.16,5.45 C44.5221307,3.62270958 46.2571426,2.1058524 48.25,1 L56,1 C51.42,1 47.35,3.2 44.8,6.6 C45.87,7.4 46.89,8.28 47.83,9.23 C49.7033983,6.57528176 52.7508242,4.99748354 56,5 L56,7 C53.2505887,7.00049493 50.6940615,8.41281575 49.23,10.74 C50.26,11.94 51.2,13.24 52.02,14.6 C52.2254261,12.5560358 53.9457387,10.9999742 56,11 L56,13 C55.457213,12.9996674 54.9376022,13.2199628 54.5604507,13.6103147 C54.1832991,14.0006665 53.9810023,14.5275454 54,15.07 C54.6656373,15.0231781 55.332718,14.9998302 56,15 L56,17 C46.8,17 38.7,21.78 34.09,29 L30,29 Z M7.75,29 L-1.45716772e-16,29 L-1.45716772e-16,27 C2.81,27 5.46,27.73 7.75,29 Z M56,21 L56,23 C50.4,23 45.35,25.3 41.72,29 L39.02,29 C43.06,24.11 49.17,21 56,21 Z M16.97,29 L14.28,29 C10.65,25.3 5.6,23 -5.89805982e-16,23 L-5.89805982e-16,21 C6.83,21 12.94,24.11 16.97,29 Z M31.98,28.6 C32.8022354,27.2362939 33.7389431,25.9449754 34.78,24.74 C33.3163481,22.4091447 30.7573015,20.994336 28.005,20.994336 C25.2526985,20.994336 22.6936519,22.4091447 21.23,24.74 C22.26,25.94 23.2,27.24 24.02,28.6 C24.2251865,26.5558376 25.9455655,24.9994997 28,24.9994997 C30.0544345,24.9994997 31.7748135,26.5558376 31.98,28.6 Z M46.27,16.74 C47.57,16.26 48.9,15.87 50.27,15.59 C45.5704378,7.77229008 37.116539,2.99046209 27.995,2.99046209 C18.873461,2.99046209 10.4195622,7.77229008 5.72,15.59 C7.1,15.87 8.44,16.26 9.73,16.74 C13.8092346,10.6411586 20.6626966,6.97996318 28,6.97996318 C35.3373034,6.97996318 42.1907654,10.6411586 46.27,16.74 Z M40.84,19.45 C41.97,18.73 43.14,18.08 44.38,17.52 C40.6425036,12.1690426 34.526992,8.98097898 28,8.98097898 C21.473008,8.98097898 15.3574964,12.1690426 11.62,17.52 C12.85,18.08 14.03,18.72 15.16,19.45 C18.1738832,15.3820123 22.9371929,12.9828755 28,12.9828755 C33.0628071,12.9828755 37.8261168,15.3820123 40.84,19.45 Z M36.17,23.23 C37.11,22.28 38.13,21.4 39.2,20.6 C36.5609199,17.0671896 32.4097044,14.9866242 28,14.9866242 C23.5902956,14.9866242 19.4390801,17.0671896 16.8,20.6 C17.87,21.4 18.89,22.28 19.83,23.23 C21.7009847,20.5711204 24.7488119,18.9890173 28,18.9890173 C31.2511881,18.9890173 34.2990153,20.5711204 36.17,23.23 Z" id="Shape"></path>
                </g>
                <g id="endless-clouds" transform="translate(112.000000, 0.000000)">
                    <path d="M56,27 L56,29 L48.25,29 C50.55,27.73 53.19,27 56,27 Z M30,29 C30,27.8954305 29.1045695,27 28,27 C26.8954305,27 26,27.8954305 26,29 L21.91,29 C17.1351772,21.5208272 8.87338391,16.9958833 6.2391173e-16,17 L6.2391173e-16,15 C0.67,15 1.34,15.02 2,15.07 L2,15 C2,13.8954305 1.1045695,13 5.6655389e-16,13 L5.6655389e-16,11 C2.05426131,10.9999742 3.77457387,12.5560358 3.98,14.6 C4.80223536,13.2362939 5.73894309,11.9449754 6.78,10.74 C5.31404651,8.40980492 2.75296569,6.99705532 -5.89805982e-16,7 L-5.89805982e-16,5 C3.24917585,4.99748354 6.29660173,6.57528176 8.17,9.23 C9.11,8.28 10.13,7.4 11.2,6.6 C8.55811493,3.07223128 4.40734601,0.996846827 7.19964453e-16,1 L7.75,1 C9.75,2.1 11.48,3.63 12.85,5.45 C13.97,4.73 15.15,4.08 16.38,3.52 C15.7498273,2.62418782 15.047489,1.7813819 14.28,1 L16.98,1 C17.43,1.56 17.86,2.14 18.27,2.74 C19.57,2.26 20.9,1.87 22.27,1.59 C22.16,1.39 22.04,1.19 21.91,1 L26,1 L26,1.07 C27.3316761,0.975986581 28.6683239,0.975986581 30,1.07 L30,1 L34.09,1 L33.72,1.59 C35.1,1.87 36.44,2.26 37.73,2.74 C38.13,2.14 38.57,1.56 39.03,1 L41.72,1 C40.952511,1.7813819 40.2501727,2.62418782 39.62,3.52 C40.85,4.08 42.03,4.72 43.16,5.45 C44.5221307,3.62270958 46.2571426,2.1058524 48.25,1 L56,1 C51.42,1 47.35,3.2 44.8,6.6 C45.87,7.4 46.89,8.28 47.83,9.23 C49.7033983,6.57528176 52.7508242,4.99748354 56,5 L56,7 C53.2505887,7.00049493 50.6940615,8.41281575 49.23,10.74 C50.26,11.94 51.2,13.24 52.02,14.6 C52.2254261,12.5560358 53.9457387,10.9999742 56,11 L56,13 C55.457213,12.9996674 54.9376022,13.2199628 54.5604507,13.6103147 C54.1832991,14.0006665 53.9810023,14.5275454 54,15.07 C54.6656373,15.0231781 55.332718,14.9998302 56,15 L56,17 C46.8,17 38.7,21.78 34.09,29 L30,29 Z M7.75,29 L-1.45716772e-16,29 L-1.45716772e-16,27 C2.81,27 5.46,27.73 7.75,29 Z M56,21 L56,23 C50.4,23 45.35,25.3 41.72,29 L39.02,29 C43.06,24.11 49.17,21 56,21 Z M16.97,29 L14.28,29 C10.65,25.3 5.6,23 -5.89805982e-16,23 L-5.89805982e-16,21 C6.83,21 12.94,24.11 16.97,29 Z M31.98,28.6 C32.8022354,27.2362939 33.7389431,25.9449754 34.78,24.74 C33.3163481,22.4091447 30.7573015,20.994336 28.005,20.994336 C25.2526985,20.994336 22.6936519,22.4091447 21.23,24.74 C22.26,25.94 23.2,27.24 24.02,28.6 C24.2251865,26.5558376 25.9455655,24.9994997 28,24.9994997 C30.0544345,24.9994997 31.7748135,26.5558376 31.98,28.6 Z M46.27,16.74 C47.57,16.26 48.9,15.87 50.27,15.59 C45.5704378,7.77229008 37.116539,2.99046209 27.995,2.99046209 C18.873461,2.99046209 10.4195622,7.77229008 5.72,15.59 C7.1,15.87 8.44,16.26 9.73,16.74 C13.8092346,10.6411586 20.6626966,6.97996318 28,6.97996318 C35.3373034,6.97996318 42.1907654,10.6411586 46.27,16.74 Z M40.84,19.45 C41.97,18.73 43.14,18.08 44.38,17.52 C40.6425036,12.1690426 34.526992,8.98097898 28,8.98097898 C21.473008,8.98097898 15.3574964,12.1690426 11.62,17.52 C12.85,18.08 14.03,18.72 15.16,19.45 C18.1738832,15.3820123 22.9371929,12.9828755 28,12.9828755 C33.0628071,12.9828755 37.8261168,15.3820123 40.84,19.45 Z M36.17,23.23 C37.11,22.28 38.13,21.4 39.2,20.6 C36.5609199,17.0671896 32.4097044,14.9866242 28,14.9866242 C23.5902956,14.9866242 19.4390801,17.0671896 16.8,20.6 C17.87,21.4 18.89,22.28 19.83,23.23 C21.7009847,20.5711204 24.7488119,18.9890173 28,18.9890173 C31.2511881,18.9890173 34.2990153,20.5711204 36.17,23.23 Z" id="Shape"></path>
                </g>
            </g>
        </g>
    </g>
</svg>