<svg height="3486" viewBox="0 0 3302 3486" width="3302" xmlns="http://www.w3.org/2000/svg"><g fill="#fff" stroke="#fff"><ellipse cx="1758.5" cy="2230.5" rx="28.5" ry="30.5"/><ellipse cx="1938.5" cy="2230.5" rx="28.5" ry="30.5"/><ellipse cx="2157.5" cy="2230.5" rx="28.5" ry="30.5"/><ellipse cx="2350.5" cy="2230.5" rx="28.5" ry="30.5"/><ellipse cx="2543.5" cy="2230.5" rx="28.5" ry="30.5"/><ellipse cx="2762.5" cy="2230.5" rx="28.5" ry="30.5"/><ellipse cx="2955.5" cy="2230.5" rx="28.5" ry="30.5"/><ellipse cx="3174.5" cy="2230.5" rx="28.5" ry="30.5"/><ellipse cx="1856.5" cy="2355.5" rx="28.5" ry="30.5"/><ellipse cx="2036.5" cy="2355.5" rx="28.5" ry="30.5"/><ellipse cx="2255.5" cy="2355.5" rx="28.5" ry="30.5"/><ellipse cx="2448.5" cy="2355.5" rx="28.5" ry="30.5"/><ellipse cx="2641.5" cy="2355.5" rx="28.5" ry="30.5"/><ellipse cx="2860.5" cy="2355.5" rx="28.5" ry="30.5"/><ellipse cx="3053.5" cy="2355.5" rx="28.5" ry="30.5"/><ellipse cx="3272.5" cy="2355.5" rx="28.5" ry="30.5"/><ellipse cx="1758.5" cy="1963.5" rx="28.5" ry="30.5"/><ellipse cx="1938.5" cy="1963.5" rx="28.5" ry="30.5"/><ellipse cx="2157.5" cy="1963.5" rx="28.5" ry="30.5"/><ellipse cx="2350.5" cy="1963.5" rx="28.5" ry="30.5"/><ellipse cx="2543.5" cy="1963.5" rx="28.5" ry="30.5"/><ellipse cx="2762.5" cy="1963.5" rx="28.5" ry="30.5"/><ellipse cx="2955.5" cy="1963.5" rx="28.5" ry="30.5"/><ellipse cx="3174.5" cy="1963.5" rx="28.5" ry="30.5"/><ellipse cx="1856.5" cy="2088.5" rx="28.5" ry="30.5"/><ellipse cx="2036.5" cy="2088.5" rx="28.5" ry="30.5"/><ellipse cx="2255.5" cy="2088.5" rx="28.5" ry="30.5"/><ellipse cx="2448.5" cy="2088.5" rx="28.5" ry="30.5"/><ellipse cx="2641.5" cy="2088.5" rx="28.5" ry="30.5"/><ellipse cx="2860.5" cy="2088.5" rx="28.5" ry="30.5"/><ellipse cx="3053.5" cy="2088.5" rx="28.5" ry="30.5"/><ellipse cx="3272.5" cy="2088.5" rx="28.5" ry="30.5"/><ellipse cx="1727.5" cy="2501.5" rx="28.5" ry="30.5"/><ellipse cx="1907.5" cy="2501.5" rx="28.5" ry="30.5"/><ellipse cx="2126.5" cy="2501.5" rx="28.5" ry="30.5"/><ellipse cx="2319.5" cy="2501.5" rx="28.5" ry="30.5"/><ellipse cx="2512.5" cy="2501.5" rx="28.5" ry="30.5"/><ellipse cx="2731.5" cy="2501.5" rx="28.5" ry="30.5"/><ellipse cx="2924.5" cy="2501.5" rx="28.5" ry="30.5"/><ellipse cx="3143.5" cy="2501.5" rx="28.5" ry="30.5"/><ellipse cx="1824.5" cy="2647.5" rx="28.5" ry="30.5"/><ellipse cx="2004.5" cy="2647.5" rx="28.5" ry="30.5"/><ellipse cx="2223.5" cy="2647.5" rx="28.5" ry="30.5"/><ellipse cx="2416.5" cy="2647.5" rx="28.5" ry="30.5"/><ellipse cx="2609.5" cy="2647.5" rx="28.5" ry="30.5"/><ellipse cx="2828.5" cy="2647.5" rx="28.5" ry="30.5"/><ellipse cx="3021.5" cy="2647.5" rx="28.5" ry="30.5"/><ellipse cx="3240.5" cy="2647.5" rx="28.5" ry="30.5"/><ellipse cx="1715.5" cy="2808.5" rx="28.5" ry="30.5"/><ellipse cx="1895.5" cy="2808.5" rx="28.5" ry="30.5"/><ellipse cx="2114.5" cy="2808.5" rx="28.5" ry="30.5"/><ellipse cx="2307.5" cy="2808.5" rx="28.5" ry="30.5"/><ellipse cx="2500.5" cy="2808.5" rx="28.5" ry="30.5"/><ellipse cx="2719.5" cy="2808.5" rx="28.5" ry="30.5"/><ellipse cx="2912.5" cy="2808.5" rx="28.5" ry="30.5"/><ellipse cx="3131.5" cy="2808.5" rx="28.5" ry="30.5"/><ellipse cx="1824.5" cy="2954.5" rx="28.5" ry="30.5"/><ellipse cx="2004.5" cy="2954.5" rx="28.5" ry="30.5"/><ellipse cx="2223.5" cy="2954.5" rx="28.5" ry="30.5"/><ellipse cx="2416.5" cy="2954.5" rx="28.5" ry="30.5"/><ellipse cx="2609.5" cy="2954.5" rx="28.5" ry="30.5"/><ellipse cx="2828.5" cy="2954.5" rx="28.5" ry="30.5"/><ellipse cx="3021.5" cy="2954.5" rx="28.5" ry="30.5"/><ellipse cx="3240.5" cy="2954.5" rx="28.5" ry="30.5"/><ellipse cx="1704.5" cy="3131.5" rx="28.5" ry="30.5"/><ellipse cx="1884.5" cy="3131.5" rx="28.5" ry="30.5"/><ellipse cx="2103.5" cy="3131.5" rx="28.5" ry="30.5"/><ellipse cx="2296.5" cy="3131.5" rx="28.5" ry="30.5"/><ellipse cx="2489.5" cy="3131.5" rx="28.5" ry="30.5"/><ellipse cx="2708.5" cy="3131.5" rx="28.5" ry="30.5"/><ellipse cx="2901.5" cy="3131.5" rx="28.5" ry="30.5"/><ellipse cx="3120.5" cy="3131.5" rx="28.5" ry="30.5"/><ellipse cx="1824.5" cy="3308.5" rx="28.5" ry="30.5"/><ellipse cx="2004.5" cy="3308.5" rx="28.5" ry="30.5"/><ellipse cx="2223.5" cy="3308.5" rx="28.5" ry="30.5"/><ellipse cx="2416.5" cy="3308.5" rx="28.5" ry="30.5"/><ellipse cx="2609.5" cy="3308.5" rx="28.5" ry="30.5"/><ellipse cx="2828.5" cy="3308.5" rx="28.5" ry="30.5"/><ellipse cx="3021.5" cy="3308.5" rx="28.5" ry="30.5"/><ellipse cx="3240.5" cy="3308.5" rx="28.5" ry="30.5"/><ellipse cx="1715.5" cy="3454.5" rx="28.5" ry="30.5"/><ellipse cx="1895.5" cy="3454.5" rx="28.5" ry="30.5"/><ellipse cx="2114.5" cy="3454.5" rx="28.5" ry="30.5"/><ellipse cx="2307.5" cy="3454.5" rx="28.5" ry="30.5"/><ellipse cx="2500.5" cy="3454.5" rx="28.5" ry="30.5"/><ellipse cx="2719.5" cy="3454.5" rx="28.5" ry="30.5"/><ellipse cx="2912.5" cy="3454.5" rx="28.5" ry="30.5"/><ellipse cx="3131.5" cy="3454.5" rx="28.5" ry="30.5"/><ellipse cx="108.5" cy="2230.5" rx="28.5" ry="30.5"/><ellipse cx="288.5" cy="2230.5" rx="28.5" ry="30.5"/><ellipse cx="507.5" cy="2230.5" rx="28.5" ry="30.5"/><ellipse cx="700.5" cy="2230.5" rx="28.5" ry="30.5"/><ellipse cx="893.5" cy="2230.5" rx="28.5" ry="30.5"/><ellipse cx="1112.5" cy="2230.5" rx="28.5" ry="30.5"/><ellipse cx="1305.5" cy="2230.5" rx="28.5" ry="30.5"/><ellipse cx="1524.5" cy="2230.5" rx="28.5" ry="30.5"/><ellipse cx="206.5" cy="2355.5" rx="28.5" ry="30.5"/><ellipse cx="386.5" cy="2355.5" rx="28.5" ry="30.5"/><ellipse cx="605.5" cy="2355.5" rx="28.5" ry="30.5"/><ellipse cx="798.5" cy="2355.5" rx="28.5" ry="30.5"/><ellipse cx="991.5" cy="2355.5" rx="28.5" ry="30.5"/><ellipse cx="1210.5" cy="2355.5" rx="28.5" ry="30.5"/><ellipse cx="1403.5" cy="2355.5" rx="28.5" ry="30.5"/><ellipse cx="1622.5" cy="2355.5" rx="28.5" ry="30.5"/><ellipse cx="108.5" cy="1963.5" rx="28.5" ry="30.5"/><ellipse cx="288.5" cy="1963.5" rx="28.5" ry="30.5"/><ellipse cx="507.5" cy="1963.5" rx="28.5" ry="30.5"/><ellipse cx="700.5" cy="1963.5" rx="28.5" ry="30.5"/><ellipse cx="893.5" cy="1963.5" rx="28.5" ry="30.5"/><ellipse cx="1112.5" cy="1963.5" rx="28.5" ry="30.5"/><ellipse cx="1305.5" cy="1963.5" rx="28.5" ry="30.5"/><ellipse cx="1524.5" cy="1963.5" rx="28.5" ry="30.5"/><ellipse cx="206.5" cy="2088.5" rx="28.5" ry="30.5"/><ellipse cx="386.5" cy="2088.5" rx="28.5" ry="30.5"/><ellipse cx="605.5" cy="2088.5" rx="28.5" ry="30.5"/><ellipse cx="798.5" cy="2088.5" rx="28.5" ry="30.5"/><ellipse cx="991.5" cy="2088.5" rx="28.5" ry="30.5"/><ellipse cx="1210.5" cy="2088.5" rx="28.5" ry="30.5"/><ellipse cx="1403.5" cy="2088.5" rx="28.5" ry="30.5"/><ellipse cx="1622.5" cy="2088.5" rx="28.5" ry="30.5"/><ellipse cx="77.5" cy="2501.5" rx="28.5" ry="30.5"/><ellipse cx="257.5" cy="2501.5" rx="28.5" ry="30.5"/><ellipse cx="476.5" cy="2501.5" rx="28.5" ry="30.5"/><ellipse cx="669.5" cy="2501.5" rx="28.5" ry="30.5"/><ellipse cx="862.5" cy="2501.5" rx="28.5" ry="30.5"/><ellipse cx="1081.5" cy="2501.5" rx="28.5" ry="30.5"/><ellipse cx="1274.5" cy="2501.5" rx="28.5" ry="30.5"/><ellipse cx="1493.5" cy="2501.5" rx="28.5" ry="30.5"/><ellipse cx="174.5" cy="2647.5" rx="28.5" ry="30.5"/><ellipse cx="354.5" cy="2647.5" rx="28.5" ry="30.5"/><ellipse cx="573.5" cy="2647.5" rx="28.5" ry="30.5"/><ellipse cx="766.5" cy="2647.5" rx="28.5" ry="30.5"/><ellipse cx="959.5" cy="2647.5" rx="28.5" ry="30.5"/><ellipse cx="1178.5" cy="2647.5" rx="28.5" ry="30.5"/><ellipse cx="1371.5" cy="2647.5" rx="28.5" ry="30.5"/><ellipse cx="1590.5" cy="2647.5" rx="28.5" ry="30.5"/><ellipse cx="65.5" cy="2808.5" rx="28.5" ry="30.5"/><ellipse cx="245.5" cy="2808.5" rx="28.5" ry="30.5"/><ellipse cx="464.5" cy="2808.5" rx="28.5" ry="30.5"/><ellipse cx="657.5" cy="2808.5" rx="28.5" ry="30.5"/><ellipse cx="850.5" cy="2808.5" rx="28.5" ry="30.5"/><ellipse cx="1069.5" cy="2808.5" rx="28.5" ry="30.5"/><ellipse cx="1262.5" cy="2808.5" rx="28.5" ry="30.5"/><ellipse cx="1481.5" cy="2808.5" rx="28.5" ry="30.5"/><ellipse cx="174.5" cy="2954.5" rx="28.5" ry="30.5"/><ellipse cx="354.5" cy="2954.5" rx="28.5" ry="30.5"/><ellipse cx="573.5" cy="2954.5" rx="28.5" ry="30.5"/><ellipse cx="766.5" cy="2954.5" rx="28.5" ry="30.5"/><ellipse cx="959.5" cy="2954.5" rx="28.5" ry="30.5"/><ellipse cx="1178.5" cy="2954.5" rx="28.5" ry="30.5"/><ellipse cx="1371.5" cy="2954.5" rx="28.5" ry="30.5"/><ellipse cx="1590.5" cy="2954.5" rx="28.5" ry="30.5"/><ellipse cx="54.5" cy="3131.5" rx="28.5" ry="30.5"/><ellipse cx="234.5" cy="3131.5" rx="28.5" ry="30.5"/><ellipse cx="453.5" cy="3131.5" rx="28.5" ry="30.5"/><ellipse cx="646.5" cy="3131.5" rx="28.5" ry="30.5"/><ellipse cx="839.5" cy="3131.5" rx="28.5" ry="30.5"/><ellipse cx="1058.5" cy="3131.5" rx="28.5" ry="30.5"/><ellipse cx="1251.5" cy="3131.5" rx="28.5" ry="30.5"/><ellipse cx="1470.5" cy="3131.5" rx="28.5" ry="30.5"/><ellipse cx="174.5" cy="3308.5" rx="28.5" ry="30.5"/><ellipse cx="354.5" cy="3308.5" rx="28.5" ry="30.5"/><ellipse cx="573.5" cy="3308.5" rx="28.5" ry="30.5"/><ellipse cx="766.5" cy="3308.5" rx="28.5" ry="30.5"/><ellipse cx="959.5" cy="3308.5" rx="28.5" ry="30.5"/><ellipse cx="1178.5" cy="3308.5" rx="28.5" ry="30.5"/><ellipse cx="1371.5" cy="3308.5" rx="28.5" ry="30.5"/><ellipse cx="1590.5" cy="3308.5" rx="28.5" ry="30.5"/><ellipse cx="65.5" cy="3454.5" rx="28.5" ry="30.5"/><ellipse cx="245.5" cy="3454.5" rx="28.5" ry="30.5"/><ellipse cx="464.5" cy="3454.5" rx="28.5" ry="30.5"/><ellipse cx="657.5" cy="3454.5" rx="28.5" ry="30.5"/><ellipse cx="850.5" cy="3454.5" rx="28.5" ry="30.5"/><ellipse cx="1069.5" cy="3454.5" rx="28.5" ry="30.5"/><ellipse cx="1262.5" cy="3454.5" rx="28.5" ry="30.5"/><ellipse cx="1481.5" cy="3454.5" rx="28.5" ry="30.5"/><ellipse cx="1758.5" cy="298.5" rx="28.5" ry="30.5"/><ellipse cx="1938.5" cy="298.5" rx="28.5" ry="30.5"/><ellipse cx="2157.5" cy="298.5" rx="28.5" ry="30.5"/><ellipse cx="2350.5" cy="298.5" rx="28.5" ry="30.5"/><ellipse cx="2543.5" cy="298.5" rx="28.5" ry="30.5"/><ellipse cx="2762.5" cy="298.5" rx="28.5" ry="30.5"/><ellipse cx="2955.5" cy="298.5" rx="28.5" ry="30.5"/><ellipse cx="3174.5" cy="298.5" rx="28.5" ry="30.5"/><ellipse cx="1856.5" cy="423.5" rx="28.5" ry="30.5"/><ellipse cx="2036.5" cy="423.5" rx="28.5" ry="30.5"/><ellipse cx="2255.5" cy="423.5" rx="28.5" ry="30.5"/><ellipse cx="2448.5" cy="423.5" rx="28.5" ry="30.5"/><ellipse cx="2641.5" cy="423.5" rx="28.5" ry="30.5"/><ellipse cx="2860.5" cy="423.5" rx="28.5" ry="30.5"/><ellipse cx="3053.5" cy="423.5" rx="28.5" ry="30.5"/><ellipse cx="3272.5" cy="423.5" rx="28.5" ry="30.5"/><ellipse cx="1758.5" cy="31.5" rx="28.5" ry="30.5"/><ellipse cx="1938.5" cy="31.5" rx="28.5" ry="30.5"/><ellipse cx="2157.5" cy="31.5" rx="28.5" ry="30.5"/><ellipse cx="2350.5" cy="31.5" rx="28.5" ry="30.5"/><ellipse cx="2543.5" cy="31.5" rx="28.5" ry="30.5"/><ellipse cx="2762.5" cy="31.5" rx="28.5" ry="30.5"/><ellipse cx="2955.5" cy="31.5" rx="28.5" ry="30.5"/><ellipse cx="3174.5" cy="31.5" rx="28.5" ry="30.5"/><ellipse cx="1856.5" cy="156.5" rx="28.5" ry="30.5"/><ellipse cx="2036.5" cy="156.5" rx="28.5" ry="30.5"/><ellipse cx="2255.5" cy="156.5" rx="28.5" ry="30.5"/><ellipse cx="2448.5" cy="156.5" rx="28.5" ry="30.5"/><ellipse cx="2641.5" cy="156.5" rx="28.5" ry="30.5"/><ellipse cx="2860.5" cy="156.5" rx="28.5" ry="30.5"/><ellipse cx="3053.5" cy="156.5" rx="28.5" ry="30.5"/><ellipse cx="3272.5" cy="156.5" rx="28.5" ry="30.5"/><ellipse cx="1727.5" cy="569.5" rx="28.5" ry="30.5"/><ellipse cx="1907.5" cy="569.5" rx="28.5" ry="30.5"/><ellipse cx="2126.5" cy="569.5" rx="28.5" ry="30.5"/><ellipse cx="2319.5" cy="569.5" rx="28.5" ry="30.5"/><ellipse cx="2512.5" cy="569.5" rx="28.5" ry="30.5"/><ellipse cx="2731.5" cy="569.5" rx="28.5" ry="30.5"/><ellipse cx="2924.5" cy="569.5" rx="28.5" ry="30.5"/><ellipse cx="3143.5" cy="569.5" rx="28.5" ry="30.5"/><ellipse cx="1824.5" cy="715.5" rx="28.5" ry="30.5"/><ellipse cx="2004.5" cy="715.5" rx="28.5" ry="30.5"/><ellipse cx="2223.5" cy="715.5" rx="28.5" ry="30.5"/><ellipse cx="2416.5" cy="715.5" rx="28.5" ry="30.5"/><ellipse cx="2609.5" cy="715.5" rx="28.5" ry="30.5"/><ellipse cx="2828.5" cy="715.5" rx="28.5" ry="30.5"/><ellipse cx="3021.5" cy="715.5" rx="28.5" ry="30.5"/><ellipse cx="3240.5" cy="715.5" rx="28.5" ry="30.5"/><ellipse cx="1715.5" cy="876.5" rx="28.5" ry="30.5"/><ellipse cx="1895.5" cy="876.5" rx="28.5" ry="30.5"/><ellipse cx="2114.5" cy="876.5" rx="28.5" ry="30.5"/><ellipse cx="2307.5" cy="876.5" rx="28.5" ry="30.5"/><ellipse cx="2500.5" cy="876.5" rx="28.5" ry="30.5"/><ellipse cx="2719.5" cy="876.5" rx="28.5" ry="30.5"/><ellipse cx="2912.5" cy="876.5" rx="28.5" ry="30.5"/><ellipse cx="3131.5" cy="876.5" rx="28.5" ry="30.5"/><ellipse cx="1824.5" cy="1022.5" rx="28.5" ry="30.5"/><ellipse cx="2004.5" cy="1022.5" rx="28.5" ry="30.5"/><ellipse cx="2223.5" cy="1022.5" rx="28.5" ry="30.5"/><ellipse cx="2416.5" cy="1022.5" rx="28.5" ry="30.5"/><ellipse cx="2609.5" cy="1022.5" rx="28.5" ry="30.5"/><ellipse cx="2828.5" cy="1022.5" rx="28.5" ry="30.5"/><ellipse cx="3021.5" cy="1022.5" rx="28.5" ry="30.5"/><ellipse cx="3240.5" cy="1022.5" rx="28.5" ry="30.5"/><ellipse cx="1704.5" cy="1199.5" rx="28.5" ry="30.5"/><ellipse cx="1884.5" cy="1199.5" rx="28.5" ry="30.5"/><ellipse cx="2103.5" cy="1199.5" rx="28.5" ry="30.5"/><ellipse cx="2296.5" cy="1199.5" rx="28.5" ry="30.5"/><ellipse cx="2489.5" cy="1199.5" rx="28.5" ry="30.5"/><ellipse cx="2708.5" cy="1199.5" rx="28.5" ry="30.5"/><ellipse cx="2901.5" cy="1199.5" rx="28.5" ry="30.5"/><ellipse cx="3120.5" cy="1199.5" rx="28.5" ry="30.5"/><ellipse cx="1824.5" cy="1376.5" rx="28.5" ry="30.5"/><ellipse cx="2004.5" cy="1376.5" rx="28.5" ry="30.5"/><ellipse cx="2223.5" cy="1376.5" rx="28.5" ry="30.5"/><ellipse cx="2416.5" cy="1376.5" rx="28.5" ry="30.5"/><ellipse cx="2609.5" cy="1376.5" rx="28.5" ry="30.5"/><ellipse cx="2828.5" cy="1376.5" rx="28.5" ry="30.5"/><ellipse cx="3021.5" cy="1376.5" rx="28.5" ry="30.5"/><ellipse cx="3240.5" cy="1376.5" rx="28.5" ry="30.5"/><ellipse cx="1715.5" cy="1522.5" rx="28.5" ry="30.5"/><ellipse cx="1895.5" cy="1522.5" rx="28.5" ry="30.5"/><ellipse cx="2114.5" cy="1522.5" rx="28.5" ry="30.5"/><ellipse cx="2307.5" cy="1522.5" rx="28.5" ry="30.5"/><ellipse cx="2500.5" cy="1522.5" rx="28.5" ry="30.5"/><ellipse cx="2719.5" cy="1522.5" rx="28.5" ry="30.5"/><ellipse cx="2912.5" cy="1522.5" rx="28.5" ry="30.5"/><ellipse cx="3131.5" cy="1522.5" rx="28.5" ry="30.5"/><ellipse cx="1788.5" cy="1671.5" rx="28.5" ry="30.5"/><ellipse cx="1968.5" cy="1671.5" rx="28.5" ry="30.5"/><ellipse cx="2187.5" cy="1671.5" rx="28.5" ry="30.5"/><ellipse cx="2380.5" cy="1671.5" rx="28.5" ry="30.5"/><ellipse cx="2573.5" cy="1671.5" rx="28.5" ry="30.5"/><ellipse cx="2792.5" cy="1671.5" rx="28.5" ry="30.5"/><ellipse cx="2985.5" cy="1671.5" rx="28.5" ry="30.5"/><ellipse cx="3204.5" cy="1671.5" rx="28.5" ry="30.5"/><ellipse cx="1679.5" cy="1817.5" rx="28.5" ry="30.5"/><ellipse cx="1859.5" cy="1817.5" rx="28.5" ry="30.5"/><ellipse cx="2078.5" cy="1817.5" rx="28.5" ry="30.5"/><ellipse cx="2271.5" cy="1817.5" rx="28.5" ry="30.5"/><ellipse cx="2464.5" cy="1817.5" rx="28.5" ry="30.5"/><ellipse cx="2683.5" cy="1817.5" rx="28.5" ry="30.5"/><ellipse cx="2876.5" cy="1817.5" rx="28.5" ry="30.5"/><ellipse cx="3095.5" cy="1817.5" rx="28.5" ry="30.5"/><ellipse cx="108.5" cy="298.5" rx="28.5" ry="30.5"/><ellipse cx="288.5" cy="298.5" rx="28.5" ry="30.5"/><ellipse cx="507.5" cy="298.5" rx="28.5" ry="30.5"/><ellipse cx="700.5" cy="298.5" rx="28.5" ry="30.5"/><ellipse cx="893.5" cy="298.5" rx="28.5" ry="30.5"/><ellipse cx="1112.5" cy="298.5" rx="28.5" ry="30.5"/><ellipse cx="1305.5" cy="298.5" rx="28.5" ry="30.5"/><ellipse cx="1524.5" cy="298.5" rx="28.5" ry="30.5"/><ellipse cx="206.5" cy="423.5" rx="28.5" ry="30.5"/><ellipse cx="386.5" cy="423.5" rx="28.5" ry="30.5"/><ellipse cx="605.5" cy="423.5" rx="28.5" ry="30.5"/><ellipse cx="798.5" cy="423.5" rx="28.5" ry="30.5"/><ellipse cx="991.5" cy="423.5" rx="28.5" ry="30.5"/><ellipse cx="1210.5" cy="423.5" rx="28.5" ry="30.5"/><ellipse cx="1403.5" cy="423.5" rx="28.5" ry="30.5"/><ellipse cx="1622.5" cy="423.5" rx="28.5" ry="30.5"/><ellipse cx="108.5" cy="31.5" rx="28.5" ry="30.5"/><ellipse cx="288.5" cy="31.5" rx="28.5" ry="30.5"/><ellipse cx="507.5" cy="31.5" rx="28.5" ry="30.5"/><ellipse cx="700.5" cy="31.5" rx="28.5" ry="30.5"/><ellipse cx="893.5" cy="31.5" rx="28.5" ry="30.5"/><ellipse cx="1112.5" cy="31.5" rx="28.5" ry="30.5"/><ellipse cx="1305.5" cy="31.5" rx="28.5" ry="30.5"/><ellipse cx="1524.5" cy="31.5" rx="28.5" ry="30.5"/><ellipse cx="206.5" cy="156.5" rx="28.5" ry="30.5"/><ellipse cx="386.5" cy="156.5" rx="28.5" ry="30.5"/><ellipse cx="605.5" cy="156.5" rx="28.5" ry="30.5"/><ellipse cx="798.5" cy="156.5" rx="28.5" ry="30.5"/><ellipse cx="991.5" cy="156.5" rx="28.5" ry="30.5"/><ellipse cx="1210.5" cy="156.5" rx="28.5" ry="30.5"/><ellipse cx="1403.5" cy="156.5" rx="28.5" ry="30.5"/><ellipse cx="1622.5" cy="156.5" rx="28.5" ry="30.5"/><ellipse cx="77.5" cy="569.5" rx="28.5" ry="30.5"/><ellipse cx="257.5" cy="569.5" rx="28.5" ry="30.5"/><ellipse cx="476.5" cy="569.5" rx="28.5" ry="30.5"/><ellipse cx="669.5" cy="569.5" rx="28.5" ry="30.5"/><ellipse cx="862.5" cy="569.5" rx="28.5" ry="30.5"/><ellipse cx="1081.5" cy="569.5" rx="28.5" ry="30.5"/><ellipse cx="1274.5" cy="569.5" rx="28.5" ry="30.5"/><ellipse cx="1493.5" cy="569.5" rx="28.5" ry="30.5"/><ellipse cx="174.5" cy="715.5" rx="28.5" ry="30.5"/><ellipse cx="354.5" cy="715.5" rx="28.5" ry="30.5"/><ellipse cx="573.5" cy="715.5" rx="28.5" ry="30.5"/><ellipse cx="766.5" cy="715.5" rx="28.5" ry="30.5"/><ellipse cx="959.5" cy="715.5" rx="28.5" ry="30.5"/><ellipse cx="1178.5" cy="715.5" rx="28.5" ry="30.5"/><ellipse cx="1371.5" cy="715.5" rx="28.5" ry="30.5"/><ellipse cx="1590.5" cy="715.5" rx="28.5" ry="30.5"/><ellipse cx="65.5" cy="876.5" rx="28.5" ry="30.5"/><ellipse cx="245.5" cy="876.5" rx="28.5" ry="30.5"/><ellipse cx="464.5" cy="876.5" rx="28.5" ry="30.5"/><ellipse cx="657.5" cy="876.5" rx="28.5" ry="30.5"/><ellipse cx="850.5" cy="876.5" rx="28.5" ry="30.5"/><ellipse cx="1069.5" cy="876.5" rx="28.5" ry="30.5"/><ellipse cx="1262.5" cy="876.5" rx="28.5" ry="30.5"/><ellipse cx="1481.5" cy="876.5" rx="28.5" ry="30.5"/><ellipse cx="174.5" cy="1022.5" rx="28.5" ry="30.5"/><ellipse cx="354.5" cy="1022.5" rx="28.5" ry="30.5"/><ellipse cx="573.5" cy="1022.5" rx="28.5" ry="30.5"/><ellipse cx="766.5" cy="1022.5" rx="28.5" ry="30.5"/><ellipse cx="959.5" cy="1022.5" rx="28.5" ry="30.5"/><ellipse cx="1178.5" cy="1022.5" rx="28.5" ry="30.5"/><ellipse cx="1371.5" cy="1022.5" rx="28.5" ry="30.5"/><ellipse cx="1590.5" cy="1022.5" rx="28.5" ry="30.5"/><ellipse cx="54.5" cy="1199.5" rx="28.5" ry="30.5"/><ellipse cx="234.5" cy="1199.5" rx="28.5" ry="30.5"/><ellipse cx="453.5" cy="1199.5" rx="28.5" ry="30.5"/><ellipse cx="646.5" cy="1199.5" rx="28.5" ry="30.5"/><ellipse cx="839.5" cy="1199.5" rx="28.5" ry="30.5"/><ellipse cx="1058.5" cy="1199.5" rx="28.5" ry="30.5"/><ellipse cx="1251.5" cy="1199.5" rx="28.5" ry="30.5"/><ellipse cx="1470.5" cy="1199.5" rx="28.5" ry="30.5"/><ellipse cx="174.5" cy="1376.5" rx="28.5" ry="30.5"/><ellipse cx="354.5" cy="1376.5" rx="28.5" ry="30.5"/><ellipse cx="573.5" cy="1376.5" rx="28.5" ry="30.5"/><ellipse cx="766.5" cy="1376.5" rx="28.5" ry="30.5"/><ellipse cx="959.5" cy="1376.5" rx="28.5" ry="30.5"/><ellipse cx="1178.5" cy="1376.5" rx="28.5" ry="30.5"/><ellipse cx="1371.5" cy="1376.5" rx="28.5" ry="30.5"/><ellipse cx="1590.5" cy="1376.5" rx="28.5" ry="30.5"/><ellipse cx="65.5" cy="1522.5" rx="28.5" ry="30.5"/><ellipse cx="245.5" cy="1522.5" rx="28.5" ry="30.5"/><ellipse cx="464.5" cy="1522.5" rx="28.5" ry="30.5"/><ellipse cx="657.5" cy="1522.5" rx="28.5" ry="30.5"/><ellipse cx="850.5" cy="1522.5" rx="28.5" ry="30.5"/><ellipse cx="1069.5" cy="1522.5" rx="28.5" ry="30.5"/><ellipse cx="1262.5" cy="1522.5" rx="28.5" ry="30.5"/><ellipse cx="1481.5" cy="1522.5" rx="28.5" ry="30.5"/><ellipse cx="138.5" cy="1671.5" rx="28.5" ry="30.5"/><ellipse cx="318.5" cy="1671.5" rx="28.5" ry="30.5"/><ellipse cx="537.5" cy="1671.5" rx="28.5" ry="30.5"/><ellipse cx="730.5" cy="1671.5" rx="28.5" ry="30.5"/><ellipse cx="923.5" cy="1671.5" rx="28.5" ry="30.5"/><ellipse cx="1142.5" cy="1671.5" rx="28.5" ry="30.5"/><ellipse cx="1335.5" cy="1671.5" rx="28.5" ry="30.5"/><ellipse cx="1554.5" cy="1671.5" rx="28.5" ry="30.5"/><ellipse cx="29.5" cy="1817.5" rx="28.5" ry="30.5"/><ellipse cx="209.5" cy="1817.5" rx="28.5" ry="30.5"/><ellipse cx="428.5" cy="1817.5" rx="28.5" ry="30.5"/><ellipse cx="621.5" cy="1817.5" rx="28.5" ry="30.5"/><ellipse cx="814.5" cy="1817.5" rx="28.5" ry="30.5"/><ellipse cx="1033.5" cy="1817.5" rx="28.5" ry="30.5"/><ellipse cx="1226.5" cy="1817.5" rx="28.5" ry="30.5"/><ellipse cx="1445.5" cy="1817.5" rx="28.5" ry="30.5"/></g></svg>