<?xml version="1.0" encoding="UTF-8"?>
<svg width="304px" height="304px" viewBox="0 0 304 304" version="1.1" xmlns="http://www.w3.org/2000/svg" xmlns:xlink="http://www.w3.org/1999/xlink">
    <!-- Generator: Sketch 51.3 (57544) - http://www.bohemiancoding.com/sketch -->
    <title>Group</title>
    <desc>Created with Sketch.</desc>
    <defs></defs>
    <g id="Page-1" stroke="none" stroke-width="1" fill="none" fill-rule="evenodd">
        <g id="Group" fill="#000000">
            <g id="random-shapes" transform="translate(228.000000, 228.000000)">
                <path d="M11,0 L16,20 L6,20 L11,0 Z M53,31 C54.6568542,31 56,29.6568542 56,28 C56,26.3431458 54.6568542,25 53,25 C51.3431458,25 50,26.3431458 50,28 C50,29.6568542 51.3431458,31 53,31 Z M0,72 L40,72 L40,76 L0,76 L0,72 Z M0,64 L31,64 L31,68 L0,68 L0,64 Z M20,48 L40,48 L40,52 L20,52 L20,48 Z M0,56 L40,56 L40,60 L0,60 L0,56 Z M63,31 C64.6568542,31 66,29.6568542 66,28 C66,26.3431458 64.6568542,25 63,25 C61.3431458,25 60,26.3431458 60,28 C60,29.6568542 61.3431458,31 63,31 Z M73,31 C74.6568542,31 76,29.6568542 76,28 C76,26.3431458 74.6568542,25 73,25 C71.3431458,25 70,26.3431458 70,28 C70,29.6568542 71.3431458,31 73,31 Z M53,41 C54.6568542,41 56,39.6568542 56,38 C56,36.3431458 54.6568542,35 53,35 C51.3431458,35 50,36.3431458 50,38 C50,39.6568542 51.3431458,41 53,41 Z M63,41 C64.6568542,41 66,39.6568542 66,38 C66,36.3431458 64.6568542,35 63,35 C61.3431458,35 60,36.3431458 60,38 C60,39.6568542 61.3431458,41 63,41 Z M73,41 C74.6568542,41 76,39.6568542 76,38 C76,36.3431458 74.6568542,35 73,35 C71.3431458,35 70,36.3431458 70,38 C70,39.6568542 71.3431458,41 73,41 Z M43,41 C44.6568542,41 46,39.6568542 46,38 C46,36.3431458 44.6568542,35 43,35 C41.3431458,35 40,36.3431458 40,38 C40,39.6568542 41.3431458,41 43,41 Z M15,33 C15,30.2385763 12.7614237,28 10,28 C7.23857625,28 5,30.2385763 5,33 L15,33 Z M25,33 C25,35.7614237 22.7614237,38 20,38 C17.2385763,38 15,35.7614237 15,33 L25,33 Z M56,5 C56,2.23857625 53.7614237,1.69088438e-16 51,0 C48.2385763,-1.69088438e-16 46,2.23857625 46,5 L56,5 Z M66,5 C66,7.76142375 63.7614237,10 61,10 C58.2385763,10 56,7.76142375 56,5 L66,5 Z M63,51 C64.6568542,51 66,49.6568542 66,48 C66,46.3431458 64.6568542,45 63,45 C61.3431458,45 60,46.3431458 60,48 C60,49.6568542 61.3431458,51 63,51 Z M73,51 C74.6568542,51 76,49.6568542 76,48 C76,46.3431458 74.6568542,45 73,45 C71.3431458,45 70,46.3431458 70,48 C70,49.6568542 71.3431458,51 73,51 Z M21,0 L26,20 L16,20 L21,0 Z M64,64 L64,60 L60,60 L60,64 L56,64 L56,68 L60,68 L60,72 L64,72 L64,68 L68,68 L68,64 L64,64 Z M36,13 L40,13 L40,17 L36,17 L36,13 Z M40,17 L44,17 L44,21 L40,21 L40,17 Z M36,21 L40,21 L40,25 L36,25 L36,21 Z M44,13 L48,13 L48,17 L44,17 L44,13 Z" id="Shape"></path>
            </g>
            <g id="random-shapes" transform="translate(228.000000, 152.000000)">
                <path d="M11,0 L16,20 L6,20 L11,0 Z M53,31 C54.6568542,31 56,29.6568542 56,28 C56,26.3431458 54.6568542,25 53,25 C51.3431458,25 50,26.3431458 50,28 C50,29.6568542 51.3431458,31 53,31 Z M0,72 L40,72 L40,76 L0,76 L0,72 Z M0,64 L31,64 L31,68 L0,68 L0,64 Z M20,48 L40,48 L40,52 L20,52 L20,48 Z M0,56 L40,56 L40,60 L0,60 L0,56 Z M63,31 C64.6568542,31 66,29.6568542 66,28 C66,26.3431458 64.6568542,25 63,25 C61.3431458,25 60,26.3431458 60,28 C60,29.6568542 61.3431458,31 63,31 Z M73,31 C74.6568542,31 76,29.6568542 76,28 C76,26.3431458 74.6568542,25 73,25 C71.3431458,25 70,26.3431458 70,28 C70,29.6568542 71.3431458,31 73,31 Z M53,41 C54.6568542,41 56,39.6568542 56,38 C56,36.3431458 54.6568542,35 53,35 C51.3431458,35 50,36.3431458 50,38 C50,39.6568542 51.3431458,41 53,41 Z M63,41 C64.6568542,41 66,39.6568542 66,38 C66,36.3431458 64.6568542,35 63,35 C61.3431458,35 60,36.3431458 60,38 C60,39.6568542 61.3431458,41 63,41 Z M73,41 C74.6568542,41 76,39.6568542 76,38 C76,36.3431458 74.6568542,35 73,35 C71.3431458,35 70,36.3431458 70,38 C70,39.6568542 71.3431458,41 73,41 Z M43,41 C44.6568542,41 46,39.6568542 46,38 C46,36.3431458 44.6568542,35 43,35 C41.3431458,35 40,36.3431458 40,38 C40,39.6568542 41.3431458,41 43,41 Z M15,33 C15,30.2385763 12.7614237,28 10,28 C7.23857625,28 5,30.2385763 5,33 L15,33 Z M25,33 C25,35.7614237 22.7614237,38 20,38 C17.2385763,38 15,35.7614237 15,33 L25,33 Z M56,5 C56,2.23857625 53.7614237,1.69088438e-16 51,0 C48.2385763,-1.69088438e-16 46,2.23857625 46,5 L56,5 Z M66,5 C66,7.76142375 63.7614237,10 61,10 C58.2385763,10 56,7.76142375 56,5 L66,5 Z M63,51 C64.6568542,51 66,49.6568542 66,48 C66,46.3431458 64.6568542,45 63,45 C61.3431458,45 60,46.3431458 60,48 C60,49.6568542 61.3431458,51 63,51 Z M73,51 C74.6568542,51 76,49.6568542 76,48 C76,46.3431458 74.6568542,45 73,45 C71.3431458,45 70,46.3431458 70,48 C70,49.6568542 71.3431458,51 73,51 Z M21,0 L26,20 L16,20 L21,0 Z M64,64 L64,60 L60,60 L60,64 L56,64 L56,68 L60,68 L60,72 L64,72 L64,68 L68,68 L68,64 L64,64 Z M36,13 L40,13 L40,17 L36,17 L36,13 Z M40,17 L44,17 L44,21 L40,21 L40,17 Z M36,21 L40,21 L40,25 L36,25 L36,21 Z M44,13 L48,13 L48,17 L44,17 L44,13 Z" id="Shape"></path>
            </g>
            <g id="random-shapes" transform="translate(152.000000, 228.000000)">
                <path d="M11,0 L16,20 L6,20 L11,0 Z M53,31 C54.6568542,31 56,29.6568542 56,28 C56,26.3431458 54.6568542,25 53,25 C51.3431458,25 50,26.3431458 50,28 C50,29.6568542 51.3431458,31 53,31 Z M0,72 L40,72 L40,76 L0,76 L0,72 Z M0,64 L31,64 L31,68 L0,68 L0,64 Z M20,48 L40,48 L40,52 L20,52 L20,48 Z M0,56 L40,56 L40,60 L0,60 L0,56 Z M63,31 C64.6568542,31 66,29.6568542 66,28 C66,26.3431458 64.6568542,25 63,25 C61.3431458,25 60,26.3431458 60,28 C60,29.6568542 61.3431458,31 63,31 Z M73,31 C74.6568542,31 76,29.6568542 76,28 C76,26.3431458 74.6568542,25 73,25 C71.3431458,25 70,26.3431458 70,28 C70,29.6568542 71.3431458,31 73,31 Z M53,41 C54.6568542,41 56,39.6568542 56,38 C56,36.3431458 54.6568542,35 53,35 C51.3431458,35 50,36.3431458 50,38 C50,39.6568542 51.3431458,41 53,41 Z M63,41 C64.6568542,41 66,39.6568542 66,38 C66,36.3431458 64.6568542,35 63,35 C61.3431458,35 60,36.3431458 60,38 C60,39.6568542 61.3431458,41 63,41 Z M73,41 C74.6568542,41 76,39.6568542 76,38 C76,36.3431458 74.6568542,35 73,35 C71.3431458,35 70,36.3431458 70,38 C70,39.6568542 71.3431458,41 73,41 Z M43,41 C44.6568542,41 46,39.6568542 46,38 C46,36.3431458 44.6568542,35 43,35 C41.3431458,35 40,36.3431458 40,38 C40,39.6568542 41.3431458,41 43,41 Z M15,33 C15,30.2385763 12.7614237,28 10,28 C7.23857625,28 5,30.2385763 5,33 L15,33 Z M25,33 C25,35.7614237 22.7614237,38 20,38 C17.2385763,38 15,35.7614237 15,33 L25,33 Z M56,5 C56,2.23857625 53.7614237,1.69088438e-16 51,0 C48.2385763,-1.69088438e-16 46,2.23857625 46,5 L56,5 Z M66,5 C66,7.76142375 63.7614237,10 61,10 C58.2385763,10 56,7.76142375 56,5 L66,5 Z M63,51 C64.6568542,51 66,49.6568542 66,48 C66,46.3431458 64.6568542,45 63,45 C61.3431458,45 60,46.3431458 60,48 C60,49.6568542 61.3431458,51 63,51 Z M73,51 C74.6568542,51 76,49.6568542 76,48 C76,46.3431458 74.6568542,45 73,45 C71.3431458,45 70,46.3431458 70,48 C70,49.6568542 71.3431458,51 73,51 Z M21,0 L26,20 L16,20 L21,0 Z M64,64 L64,60 L60,60 L60,64 L56,64 L56,68 L60,68 L60,72 L64,72 L64,68 L68,68 L68,64 L64,64 Z M36,13 L40,13 L40,17 L36,17 L36,13 Z M40,17 L44,17 L44,21 L40,21 L40,17 Z M36,21 L40,21 L40,25 L36,25 L36,21 Z M44,13 L48,13 L48,17 L44,17 L44,13 Z" id="Shape"></path>
            </g>
            <g id="random-shapes" transform="translate(152.000000, 152.000000)">
                <path d="M11,0 L16,20 L6,20 L11,0 Z M53,31 C54.6568542,31 56,29.6568542 56,28 C56,26.3431458 54.6568542,25 53,25 C51.3431458,25 50,26.3431458 50,28 C50,29.6568542 51.3431458,31 53,31 Z M0,72 L40,72 L40,76 L0,76 L0,72 Z M0,64 L31,64 L31,68 L0,68 L0,64 Z M20,48 L40,48 L40,52 L20,52 L20,48 Z M0,56 L40,56 L40,60 L0,60 L0,56 Z M63,31 C64.6568542,31 66,29.6568542 66,28 C66,26.3431458 64.6568542,25 63,25 C61.3431458,25 60,26.3431458 60,28 C60,29.6568542 61.3431458,31 63,31 Z M73,31 C74.6568542,31 76,29.6568542 76,28 C76,26.3431458 74.6568542,25 73,25 C71.3431458,25 70,26.3431458 70,28 C70,29.6568542 71.3431458,31 73,31 Z M53,41 C54.6568542,41 56,39.6568542 56,38 C56,36.3431458 54.6568542,35 53,35 C51.3431458,35 50,36.3431458 50,38 C50,39.6568542 51.3431458,41 53,41 Z M63,41 C64.6568542,41 66,39.6568542 66,38 C66,36.3431458 64.6568542,35 63,35 C61.3431458,35 60,36.3431458 60,38 C60,39.6568542 61.3431458,41 63,41 Z M73,41 C74.6568542,41 76,39.6568542 76,38 C76,36.3431458 74.6568542,35 73,35 C71.3431458,35 70,36.3431458 70,38 C70,39.6568542 71.3431458,41 73,41 Z M43,41 C44.6568542,41 46,39.6568542 46,38 C46,36.3431458 44.6568542,35 43,35 C41.3431458,35 40,36.3431458 40,38 C40,39.6568542 41.3431458,41 43,41 Z M15,33 C15,30.2385763 12.7614237,28 10,28 C7.23857625,28 5,30.2385763 5,33 L15,33 Z M25,33 C25,35.7614237 22.7614237,38 20,38 C17.2385763,38 15,35.7614237 15,33 L25,33 Z M56,5 C56,2.23857625 53.7614237,1.69088438e-16 51,0 C48.2385763,-1.69088438e-16 46,2.23857625 46,5 L56,5 Z M66,5 C66,7.76142375 63.7614237,10 61,10 C58.2385763,10 56,7.76142375 56,5 L66,5 Z M63,51 C64.6568542,51 66,49.6568542 66,48 C66,46.3431458 64.6568542,45 63,45 C61.3431458,45 60,46.3431458 60,48 C60,49.6568542 61.3431458,51 63,51 Z M73,51 C74.6568542,51 76,49.6568542 76,48 C76,46.3431458 74.6568542,45 73,45 C71.3431458,45 70,46.3431458 70,48 C70,49.6568542 71.3431458,51 73,51 Z M21,0 L26,20 L16,20 L21,0 Z M64,64 L64,60 L60,60 L60,64 L56,64 L56,68 L60,68 L60,72 L64,72 L64,68 L68,68 L68,64 L64,64 Z M36,13 L40,13 L40,17 L36,17 L36,13 Z M40,17 L44,17 L44,21 L40,21 L40,17 Z M36,21 L40,21 L40,25 L36,25 L36,21 Z M44,13 L48,13 L48,17 L44,17 L44,13 Z" id="Shape"></path>
            </g>
            <g id="random-shapes" transform="translate(76.000000, 228.000000)">
                <path d="M11,0 L16,20 L6,20 L11,0 Z M53,31 C54.6568542,31 56,29.6568542 56,28 C56,26.3431458 54.6568542,25 53,25 C51.3431458,25 50,26.3431458 50,28 C50,29.6568542 51.3431458,31 53,31 Z M0,72 L40,72 L40,76 L0,76 L0,72 Z M0,64 L31,64 L31,68 L0,68 L0,64 Z M20,48 L40,48 L40,52 L20,52 L20,48 Z M0,56 L40,56 L40,60 L0,60 L0,56 Z M63,31 C64.6568542,31 66,29.6568542 66,28 C66,26.3431458 64.6568542,25 63,25 C61.3431458,25 60,26.3431458 60,28 C60,29.6568542 61.3431458,31 63,31 Z M73,31 C74.6568542,31 76,29.6568542 76,28 C76,26.3431458 74.6568542,25 73,25 C71.3431458,25 70,26.3431458 70,28 C70,29.6568542 71.3431458,31 73,31 Z M53,41 C54.6568542,41 56,39.6568542 56,38 C56,36.3431458 54.6568542,35 53,35 C51.3431458,35 50,36.3431458 50,38 C50,39.6568542 51.3431458,41 53,41 Z M63,41 C64.6568542,41 66,39.6568542 66,38 C66,36.3431458 64.6568542,35 63,35 C61.3431458,35 60,36.3431458 60,38 C60,39.6568542 61.3431458,41 63,41 Z M73,41 C74.6568542,41 76,39.6568542 76,38 C76,36.3431458 74.6568542,35 73,35 C71.3431458,35 70,36.3431458 70,38 C70,39.6568542 71.3431458,41 73,41 Z M43,41 C44.6568542,41 46,39.6568542 46,38 C46,36.3431458 44.6568542,35 43,35 C41.3431458,35 40,36.3431458 40,38 C40,39.6568542 41.3431458,41 43,41 Z M15,33 C15,30.2385763 12.7614237,28 10,28 C7.23857625,28 5,30.2385763 5,33 L15,33 Z M25,33 C25,35.7614237 22.7614237,38 20,38 C17.2385763,38 15,35.7614237 15,33 L25,33 Z M56,5 C56,2.23857625 53.7614237,1.69088438e-16 51,0 C48.2385763,-1.69088438e-16 46,2.23857625 46,5 L56,5 Z M66,5 C66,7.76142375 63.7614237,10 61,10 C58.2385763,10 56,7.76142375 56,5 L66,5 Z M63,51 C64.6568542,51 66,49.6568542 66,48 C66,46.3431458 64.6568542,45 63,45 C61.3431458,45 60,46.3431458 60,48 C60,49.6568542 61.3431458,51 63,51 Z M73,51 C74.6568542,51 76,49.6568542 76,48 C76,46.3431458 74.6568542,45 73,45 C71.3431458,45 70,46.3431458 70,48 C70,49.6568542 71.3431458,51 73,51 Z M21,0 L26,20 L16,20 L21,0 Z M64,64 L64,60 L60,60 L60,64 L56,64 L56,68 L60,68 L60,72 L64,72 L64,68 L68,68 L68,64 L64,64 Z M36,13 L40,13 L40,17 L36,17 L36,13 Z M40,17 L44,17 L44,21 L40,21 L40,17 Z M36,21 L40,21 L40,25 L36,25 L36,21 Z M44,13 L48,13 L48,17 L44,17 L44,13 Z" id="Shape"></path>
            </g>
            <g id="random-shapes" transform="translate(76.000000, 152.000000)">
                <path d="M11,0 L16,20 L6,20 L11,0 Z M53,31 C54.6568542,31 56,29.6568542 56,28 C56,26.3431458 54.6568542,25 53,25 C51.3431458,25 50,26.3431458 50,28 C50,29.6568542 51.3431458,31 53,31 Z M0,72 L40,72 L40,76 L0,76 L0,72 Z M0,64 L31,64 L31,68 L0,68 L0,64 Z M20,48 L40,48 L40,52 L20,52 L20,48 Z M0,56 L40,56 L40,60 L0,60 L0,56 Z M63,31 C64.6568542,31 66,29.6568542 66,28 C66,26.3431458 64.6568542,25 63,25 C61.3431458,25 60,26.3431458 60,28 C60,29.6568542 61.3431458,31 63,31 Z M73,31 C74.6568542,31 76,29.6568542 76,28 C76,26.3431458 74.6568542,25 73,25 C71.3431458,25 70,26.3431458 70,28 C70,29.6568542 71.3431458,31 73,31 Z M53,41 C54.6568542,41 56,39.6568542 56,38 C56,36.3431458 54.6568542,35 53,35 C51.3431458,35 50,36.3431458 50,38 C50,39.6568542 51.3431458,41 53,41 Z M63,41 C64.6568542,41 66,39.6568542 66,38 C66,36.3431458 64.6568542,35 63,35 C61.3431458,35 60,36.3431458 60,38 C60,39.6568542 61.3431458,41 63,41 Z M73,41 C74.6568542,41 76,39.6568542 76,38 C76,36.3431458 74.6568542,35 73,35 C71.3431458,35 70,36.3431458 70,38 C70,39.6568542 71.3431458,41 73,41 Z M43,41 C44.6568542,41 46,39.6568542 46,38 C46,36.3431458 44.6568542,35 43,35 C41.3431458,35 40,36.3431458 40,38 C40,39.6568542 41.3431458,41 43,41 Z M15,33 C15,30.2385763 12.7614237,28 10,28 C7.23857625,28 5,30.2385763 5,33 L15,33 Z M25,33 C25,35.7614237 22.7614237,38 20,38 C17.2385763,38 15,35.7614237 15,33 L25,33 Z M56,5 C56,2.23857625 53.7614237,1.69088438e-16 51,0 C48.2385763,-1.69088438e-16 46,2.23857625 46,5 L56,5 Z M66,5 C66,7.76142375 63.7614237,10 61,10 C58.2385763,10 56,7.76142375 56,5 L66,5 Z M63,51 C64.6568542,51 66,49.6568542 66,48 C66,46.3431458 64.6568542,45 63,45 C61.3431458,45 60,46.3431458 60,48 C60,49.6568542 61.3431458,51 63,51 Z M73,51 C74.6568542,51 76,49.6568542 76,48 C76,46.3431458 74.6568542,45 73,45 C71.3431458,45 70,46.3431458 70,48 C70,49.6568542 71.3431458,51 73,51 Z M21,0 L26,20 L16,20 L21,0 Z M64,64 L64,60 L60,60 L60,64 L56,64 L56,68 L60,68 L60,72 L64,72 L64,68 L68,68 L68,64 L64,64 Z M36,13 L40,13 L40,17 L36,17 L36,13 Z M40,17 L44,17 L44,21 L40,21 L40,17 Z M36,21 L40,21 L40,25 L36,25 L36,21 Z M44,13 L48,13 L48,17 L44,17 L44,13 Z" id="Shape"></path>
            </g>
            <g id="random-shapes" transform="translate(0.000000, 228.000000)">
                <path d="M11,0 L16,20 L6,20 L11,0 Z M53,31 C54.6568542,31 56,29.6568542 56,28 C56,26.3431458 54.6568542,25 53,25 C51.3431458,25 50,26.3431458 50,28 C50,29.6568542 51.3431458,31 53,31 Z M0,72 L40,72 L40,76 L0,76 L0,72 Z M0,64 L31,64 L31,68 L0,68 L0,64 Z M20,48 L40,48 L40,52 L20,52 L20,48 Z M0,56 L40,56 L40,60 L0,60 L0,56 Z M63,31 C64.6568542,31 66,29.6568542 66,28 C66,26.3431458 64.6568542,25 63,25 C61.3431458,25 60,26.3431458 60,28 C60,29.6568542 61.3431458,31 63,31 Z M73,31 C74.6568542,31 76,29.6568542 76,28 C76,26.3431458 74.6568542,25 73,25 C71.3431458,25 70,26.3431458 70,28 C70,29.6568542 71.3431458,31 73,31 Z M53,41 C54.6568542,41 56,39.6568542 56,38 C56,36.3431458 54.6568542,35 53,35 C51.3431458,35 50,36.3431458 50,38 C50,39.6568542 51.3431458,41 53,41 Z M63,41 C64.6568542,41 66,39.6568542 66,38 C66,36.3431458 64.6568542,35 63,35 C61.3431458,35 60,36.3431458 60,38 C60,39.6568542 61.3431458,41 63,41 Z M73,41 C74.6568542,41 76,39.6568542 76,38 C76,36.3431458 74.6568542,35 73,35 C71.3431458,35 70,36.3431458 70,38 C70,39.6568542 71.3431458,41 73,41 Z M43,41 C44.6568542,41 46,39.6568542 46,38 C46,36.3431458 44.6568542,35 43,35 C41.3431458,35 40,36.3431458 40,38 C40,39.6568542 41.3431458,41 43,41 Z M15,33 C15,30.2385763 12.7614237,28 10,28 C7.23857625,28 5,30.2385763 5,33 L15,33 Z M25,33 C25,35.7614237 22.7614237,38 20,38 C17.2385763,38 15,35.7614237 15,33 L25,33 Z M56,5 C56,2.23857625 53.7614237,1.69088438e-16 51,0 C48.2385763,-1.69088438e-16 46,2.23857625 46,5 L56,5 Z M66,5 C66,7.76142375 63.7614237,10 61,10 C58.2385763,10 56,7.76142375 56,5 L66,5 Z M63,51 C64.6568542,51 66,49.6568542 66,48 C66,46.3431458 64.6568542,45 63,45 C61.3431458,45 60,46.3431458 60,48 C60,49.6568542 61.3431458,51 63,51 Z M73,51 C74.6568542,51 76,49.6568542 76,48 C76,46.3431458 74.6568542,45 73,45 C71.3431458,45 70,46.3431458 70,48 C70,49.6568542 71.3431458,51 73,51 Z M21,0 L26,20 L16,20 L21,0 Z M64,64 L64,60 L60,60 L60,64 L56,64 L56,68 L60,68 L60,72 L64,72 L64,68 L68,68 L68,64 L64,64 Z M36,13 L40,13 L40,17 L36,17 L36,13 Z M40,17 L44,17 L44,21 L40,21 L40,17 Z M36,21 L40,21 L40,25 L36,25 L36,21 Z M44,13 L48,13 L48,17 L44,17 L44,13 Z" id="Shape"></path>
            </g>
            <g id="random-shapes" transform="translate(0.000000, 152.000000)">
                <path d="M11,0 L16,20 L6,20 L11,0 Z M53,31 C54.6568542,31 56,29.6568542 56,28 C56,26.3431458 54.6568542,25 53,25 C51.3431458,25 50,26.3431458 50,28 C50,29.6568542 51.3431458,31 53,31 Z M0,72 L40,72 L40,76 L0,76 L0,72 Z M0,64 L31,64 L31,68 L0,68 L0,64 Z M20,48 L40,48 L40,52 L20,52 L20,48 Z M0,56 L40,56 L40,60 L0,60 L0,56 Z M63,31 C64.6568542,31 66,29.6568542 66,28 C66,26.3431458 64.6568542,25 63,25 C61.3431458,25 60,26.3431458 60,28 C60,29.6568542 61.3431458,31 63,31 Z M73,31 C74.6568542,31 76,29.6568542 76,28 C76,26.3431458 74.6568542,25 73,25 C71.3431458,25 70,26.3431458 70,28 C70,29.6568542 71.3431458,31 73,31 Z M53,41 C54.6568542,41 56,39.6568542 56,38 C56,36.3431458 54.6568542,35 53,35 C51.3431458,35 50,36.3431458 50,38 C50,39.6568542 51.3431458,41 53,41 Z M63,41 C64.6568542,41 66,39.6568542 66,38 C66,36.3431458 64.6568542,35 63,35 C61.3431458,35 60,36.3431458 60,38 C60,39.6568542 61.3431458,41 63,41 Z M73,41 C74.6568542,41 76,39.6568542 76,38 C76,36.3431458 74.6568542,35 73,35 C71.3431458,35 70,36.3431458 70,38 C70,39.6568542 71.3431458,41 73,41 Z M43,41 C44.6568542,41 46,39.6568542 46,38 C46,36.3431458 44.6568542,35 43,35 C41.3431458,35 40,36.3431458 40,38 C40,39.6568542 41.3431458,41 43,41 Z M15,33 C15,30.2385763 12.7614237,28 10,28 C7.23857625,28 5,30.2385763 5,33 L15,33 Z M25,33 C25,35.7614237 22.7614237,38 20,38 C17.2385763,38 15,35.7614237 15,33 L25,33 Z M56,5 C56,2.23857625 53.7614237,1.69088438e-16 51,0 C48.2385763,-1.69088438e-16 46,2.23857625 46,5 L56,5 Z M66,5 C66,7.76142375 63.7614237,10 61,10 C58.2385763,10 56,7.76142375 56,5 L66,5 Z M63,51 C64.6568542,51 66,49.6568542 66,48 C66,46.3431458 64.6568542,45 63,45 C61.3431458,45 60,46.3431458 60,48 C60,49.6568542 61.3431458,51 63,51 Z M73,51 C74.6568542,51 76,49.6568542 76,48 C76,46.3431458 74.6568542,45 73,45 C71.3431458,45 70,46.3431458 70,48 C70,49.6568542 71.3431458,51 73,51 Z M21,0 L26,20 L16,20 L21,0 Z M64,64 L64,60 L60,60 L60,64 L56,64 L56,68 L60,68 L60,72 L64,72 L64,68 L68,68 L68,64 L64,64 Z M36,13 L40,13 L40,17 L36,17 L36,13 Z M40,17 L44,17 L44,21 L40,21 L40,17 Z M36,21 L40,21 L40,25 L36,25 L36,21 Z M44,13 L48,13 L48,17 L44,17 L44,13 Z" id="Shape"></path>
            </g>
            <g id="random-shapes" transform="translate(76.000000, 76.000000)">
                <path d="M11,0 L16,20 L6,20 L11,0 Z M53,31 C54.6568542,31 56,29.6568542 56,28 C56,26.3431458 54.6568542,25 53,25 C51.3431458,25 50,26.3431458 50,28 C50,29.6568542 51.3431458,31 53,31 Z M0,72 L40,72 L40,76 L0,76 L0,72 Z M0,64 L31,64 L31,68 L0,68 L0,64 Z M20,48 L40,48 L40,52 L20,52 L20,48 Z M0,56 L40,56 L40,60 L0,60 L0,56 Z M63,31 C64.6568542,31 66,29.6568542 66,28 C66,26.3431458 64.6568542,25 63,25 C61.3431458,25 60,26.3431458 60,28 C60,29.6568542 61.3431458,31 63,31 Z M73,31 C74.6568542,31 76,29.6568542 76,28 C76,26.3431458 74.6568542,25 73,25 C71.3431458,25 70,26.3431458 70,28 C70,29.6568542 71.3431458,31 73,31 Z M53,41 C54.6568542,41 56,39.6568542 56,38 C56,36.3431458 54.6568542,35 53,35 C51.3431458,35 50,36.3431458 50,38 C50,39.6568542 51.3431458,41 53,41 Z M63,41 C64.6568542,41 66,39.6568542 66,38 C66,36.3431458 64.6568542,35 63,35 C61.3431458,35 60,36.3431458 60,38 C60,39.6568542 61.3431458,41 63,41 Z M73,41 C74.6568542,41 76,39.6568542 76,38 C76,36.3431458 74.6568542,35 73,35 C71.3431458,35 70,36.3431458 70,38 C70,39.6568542 71.3431458,41 73,41 Z M43,41 C44.6568542,41 46,39.6568542 46,38 C46,36.3431458 44.6568542,35 43,35 C41.3431458,35 40,36.3431458 40,38 C40,39.6568542 41.3431458,41 43,41 Z M15,33 C15,30.2385763 12.7614237,28 10,28 C7.23857625,28 5,30.2385763 5,33 L15,33 Z M25,33 C25,35.7614237 22.7614237,38 20,38 C17.2385763,38 15,35.7614237 15,33 L25,33 Z M56,5 C56,2.23857625 53.7614237,1.69088438e-16 51,0 C48.2385763,-1.69088438e-16 46,2.23857625 46,5 L56,5 Z M66,5 C66,7.76142375 63.7614237,10 61,10 C58.2385763,10 56,7.76142375 56,5 L66,5 Z M63,51 C64.6568542,51 66,49.6568542 66,48 C66,46.3431458 64.6568542,45 63,45 C61.3431458,45 60,46.3431458 60,48 C60,49.6568542 61.3431458,51 63,51 Z M73,51 C74.6568542,51 76,49.6568542 76,48 C76,46.3431458 74.6568542,45 73,45 C71.3431458,45 70,46.3431458 70,48 C70,49.6568542 71.3431458,51 73,51 Z M21,0 L26,20 L16,20 L21,0 Z M64,64 L64,60 L60,60 L60,64 L56,64 L56,68 L60,68 L60,72 L64,72 L64,68 L68,68 L68,64 L64,64 Z M36,13 L40,13 L40,17 L36,17 L36,13 Z M40,17 L44,17 L44,21 L40,21 L40,17 Z M36,21 L40,21 L40,25 L36,25 L36,21 Z M44,13 L48,13 L48,17 L44,17 L44,13 Z" id="Shape"></path>
            </g>
            <g id="random-shapes" transform="translate(76.000000, 0.000000)">
                <path d="M11,0 L16,20 L6,20 L11,0 Z M53,31 C54.6568542,31 56,29.6568542 56,28 C56,26.3431458 54.6568542,25 53,25 C51.3431458,25 50,26.3431458 50,28 C50,29.6568542 51.3431458,31 53,31 Z M0,72 L40,72 L40,76 L0,76 L0,72 Z M0,64 L31,64 L31,68 L0,68 L0,64 Z M20,48 L40,48 L40,52 L20,52 L20,48 Z M0,56 L40,56 L40,60 L0,60 L0,56 Z M63,31 C64.6568542,31 66,29.6568542 66,28 C66,26.3431458 64.6568542,25 63,25 C61.3431458,25 60,26.3431458 60,28 C60,29.6568542 61.3431458,31 63,31 Z M73,31 C74.6568542,31 76,29.6568542 76,28 C76,26.3431458 74.6568542,25 73,25 C71.3431458,25 70,26.3431458 70,28 C70,29.6568542 71.3431458,31 73,31 Z M53,41 C54.6568542,41 56,39.6568542 56,38 C56,36.3431458 54.6568542,35 53,35 C51.3431458,35 50,36.3431458 50,38 C50,39.6568542 51.3431458,41 53,41 Z M63,41 C64.6568542,41 66,39.6568542 66,38 C66,36.3431458 64.6568542,35 63,35 C61.3431458,35 60,36.3431458 60,38 C60,39.6568542 61.3431458,41 63,41 Z M73,41 C74.6568542,41 76,39.6568542 76,38 C76,36.3431458 74.6568542,35 73,35 C71.3431458,35 70,36.3431458 70,38 C70,39.6568542 71.3431458,41 73,41 Z M43,41 C44.6568542,41 46,39.6568542 46,38 C46,36.3431458 44.6568542,35 43,35 C41.3431458,35 40,36.3431458 40,38 C40,39.6568542 41.3431458,41 43,41 Z M15,33 C15,30.2385763 12.7614237,28 10,28 C7.23857625,28 5,30.2385763 5,33 L15,33 Z M25,33 C25,35.7614237 22.7614237,38 20,38 C17.2385763,38 15,35.7614237 15,33 L25,33 Z M56,5 C56,2.23857625 53.7614237,1.69088438e-16 51,0 C48.2385763,-1.69088438e-16 46,2.23857625 46,5 L56,5 Z M66,5 C66,7.76142375 63.7614237,10 61,10 C58.2385763,10 56,7.76142375 56,5 L66,5 Z M63,51 C64.6568542,51 66,49.6568542 66,48 C66,46.3431458 64.6568542,45 63,45 C61.3431458,45 60,46.3431458 60,48 C60,49.6568542 61.3431458,51 63,51 Z M73,51 C74.6568542,51 76,49.6568542 76,48 C76,46.3431458 74.6568542,45 73,45 C71.3431458,45 70,46.3431458 70,48 C70,49.6568542 71.3431458,51 73,51 Z M21,0 L26,20 L16,20 L21,0 Z M64,64 L64,60 L60,60 L60,64 L56,64 L56,68 L60,68 L60,72 L64,72 L64,68 L68,68 L68,64 L64,64 Z M36,13 L40,13 L40,17 L36,17 L36,13 Z M40,17 L44,17 L44,21 L40,21 L40,17 Z M36,21 L40,21 L40,25 L36,25 L36,21 Z M44,13 L48,13 L48,17 L44,17 L44,13 Z" id="Shape"></path>
            </g>
            <g id="random-shapes" transform="translate(0.000000, 76.000000)">
                <path d="M11,0 L16,20 L6,20 L11,0 Z M53,31 C54.6568542,31 56,29.6568542 56,28 C56,26.3431458 54.6568542,25 53,25 C51.3431458,25 50,26.3431458 50,28 C50,29.6568542 51.3431458,31 53,31 Z M0,72 L40,72 L40,76 L0,76 L0,72 Z M0,64 L31,64 L31,68 L0,68 L0,64 Z M20,48 L40,48 L40,52 L20,52 L20,48 Z M0,56 L40,56 L40,60 L0,60 L0,56 Z M63,31 C64.6568542,31 66,29.6568542 66,28 C66,26.3431458 64.6568542,25 63,25 C61.3431458,25 60,26.3431458 60,28 C60,29.6568542 61.3431458,31 63,31 Z M73,31 C74.6568542,31 76,29.6568542 76,28 C76,26.3431458 74.6568542,25 73,25 C71.3431458,25 70,26.3431458 70,28 C70,29.6568542 71.3431458,31 73,31 Z M53,41 C54.6568542,41 56,39.6568542 56,38 C56,36.3431458 54.6568542,35 53,35 C51.3431458,35 50,36.3431458 50,38 C50,39.6568542 51.3431458,41 53,41 Z M63,41 C64.6568542,41 66,39.6568542 66,38 C66,36.3431458 64.6568542,35 63,35 C61.3431458,35 60,36.3431458 60,38 C60,39.6568542 61.3431458,41 63,41 Z M73,41 C74.6568542,41 76,39.6568542 76,38 C76,36.3431458 74.6568542,35 73,35 C71.3431458,35 70,36.3431458 70,38 C70,39.6568542 71.3431458,41 73,41 Z M43,41 C44.6568542,41 46,39.6568542 46,38 C46,36.3431458 44.6568542,35 43,35 C41.3431458,35 40,36.3431458 40,38 C40,39.6568542 41.3431458,41 43,41 Z M15,33 C15,30.2385763 12.7614237,28 10,28 C7.23857625,28 5,30.2385763 5,33 L15,33 Z M25,33 C25,35.7614237 22.7614237,38 20,38 C17.2385763,38 15,35.7614237 15,33 L25,33 Z M56,5 C56,2.23857625 53.7614237,1.69088438e-16 51,0 C48.2385763,-1.69088438e-16 46,2.23857625 46,5 L56,5 Z M66,5 C66,7.76142375 63.7614237,10 61,10 C58.2385763,10 56,7.76142375 56,5 L66,5 Z M63,51 C64.6568542,51 66,49.6568542 66,48 C66,46.3431458 64.6568542,45 63,45 C61.3431458,45 60,46.3431458 60,48 C60,49.6568542 61.3431458,51 63,51 Z M73,51 C74.6568542,51 76,49.6568542 76,48 C76,46.3431458 74.6568542,45 73,45 C71.3431458,45 70,46.3431458 70,48 C70,49.6568542 71.3431458,51 73,51 Z M21,0 L26,20 L16,20 L21,0 Z M64,64 L64,60 L60,60 L60,64 L56,64 L56,68 L60,68 L60,72 L64,72 L64,68 L68,68 L68,64 L64,64 Z M36,13 L40,13 L40,17 L36,17 L36,13 Z M40,17 L44,17 L44,21 L40,21 L40,17 Z M36,21 L40,21 L40,25 L36,25 L36,21 Z M44,13 L48,13 L48,17 L44,17 L44,13 Z" id="Shape"></path>
            </g>
            <g id="random-shapes">
                <path d="M11,0 L16,20 L6,20 L11,0 Z M53,31 C54.6568542,31 56,29.6568542 56,28 C56,26.3431458 54.6568542,25 53,25 C51.3431458,25 50,26.3431458 50,28 C50,29.6568542 51.3431458,31 53,31 Z M0,72 L40,72 L40,76 L0,76 L0,72 Z M0,64 L31,64 L31,68 L0,68 L0,64 Z M20,48 L40,48 L40,52 L20,52 L20,48 Z M0,56 L40,56 L40,60 L0,60 L0,56 Z M63,31 C64.6568542,31 66,29.6568542 66,28 C66,26.3431458 64.6568542,25 63,25 C61.3431458,25 60,26.3431458 60,28 C60,29.6568542 61.3431458,31 63,31 Z M73,31 C74.6568542,31 76,29.6568542 76,28 C76,26.3431458 74.6568542,25 73,25 C71.3431458,25 70,26.3431458 70,28 C70,29.6568542 71.3431458,31 73,31 Z M53,41 C54.6568542,41 56,39.6568542 56,38 C56,36.3431458 54.6568542,35 53,35 C51.3431458,35 50,36.3431458 50,38 C50,39.6568542 51.3431458,41 53,41 Z M63,41 C64.6568542,41 66,39.6568542 66,38 C66,36.3431458 64.6568542,35 63,35 C61.3431458,35 60,36.3431458 60,38 C60,39.6568542 61.3431458,41 63,41 Z M73,41 C74.6568542,41 76,39.6568542 76,38 C76,36.3431458 74.6568542,35 73,35 C71.3431458,35 70,36.3431458 70,38 C70,39.6568542 71.3431458,41 73,41 Z M43,41 C44.6568542,41 46,39.6568542 46,38 C46,36.3431458 44.6568542,35 43,35 C41.3431458,35 40,36.3431458 40,38 C40,39.6568542 41.3431458,41 43,41 Z M15,33 C15,30.2385763 12.7614237,28 10,28 C7.23857625,28 5,30.2385763 5,33 L15,33 Z M25,33 C25,35.7614237 22.7614237,38 20,38 C17.2385763,38 15,35.7614237 15,33 L25,33 Z M56,5 C56,2.23857625 53.7614237,1.69088438e-16 51,0 C48.2385763,-1.69088438e-16 46,2.23857625 46,5 L56,5 Z M66,5 C66,7.76142375 63.7614237,10 61,10 C58.2385763,10 56,7.76142375 56,5 L66,5 Z M63,51 C64.6568542,51 66,49.6568542 66,48 C66,46.3431458 64.6568542,45 63,45 C61.3431458,45 60,46.3431458 60,48 C60,49.6568542 61.3431458,51 63,51 Z M73,51 C74.6568542,51 76,49.6568542 76,48 C76,46.3431458 74.6568542,45 73,45 C71.3431458,45 70,46.3431458 70,48 C70,49.6568542 71.3431458,51 73,51 Z M21,0 L26,20 L16,20 L21,0 Z M64,64 L64,60 L60,60 L60,64 L56,64 L56,68 L60,68 L60,72 L64,72 L64,68 L68,68 L68,64 L64,64 Z M36,13 L40,13 L40,17 L36,17 L36,13 Z M40,17 L44,17 L44,21 L40,21 L40,17 Z M36,21 L40,21 L40,25 L36,25 L36,21 Z M44,13 L48,13 L48,17 L44,17 L44,13 Z" id="Shape"></path>
            </g>
            <g id="random-shapes" transform="translate(76.000000, 76.000000)">
                <path d="M11,0 L16,20 L6,20 L11,0 Z M53,31 C54.6568542,31 56,29.6568542 56,28 C56,26.3431458 54.6568542,25 53,25 C51.3431458,25 50,26.3431458 50,28 C50,29.6568542 51.3431458,31 53,31 Z M0,72 L40,72 L40,76 L0,76 L0,72 Z M0,64 L31,64 L31,68 L0,68 L0,64 Z M20,48 L40,48 L40,52 L20,52 L20,48 Z M0,56 L40,56 L40,60 L0,60 L0,56 Z M63,31 C64.6568542,31 66,29.6568542 66,28 C66,26.3431458 64.6568542,25 63,25 C61.3431458,25 60,26.3431458 60,28 C60,29.6568542 61.3431458,31 63,31 Z M73,31 C74.6568542,31 76,29.6568542 76,28 C76,26.3431458 74.6568542,25 73,25 C71.3431458,25 70,26.3431458 70,28 C70,29.6568542 71.3431458,31 73,31 Z M53,41 C54.6568542,41 56,39.6568542 56,38 C56,36.3431458 54.6568542,35 53,35 C51.3431458,35 50,36.3431458 50,38 C50,39.6568542 51.3431458,41 53,41 Z M63,41 C64.6568542,41 66,39.6568542 66,38 C66,36.3431458 64.6568542,35 63,35 C61.3431458,35 60,36.3431458 60,38 C60,39.6568542 61.3431458,41 63,41 Z M73,41 C74.6568542,41 76,39.6568542 76,38 C76,36.3431458 74.6568542,35 73,35 C71.3431458,35 70,36.3431458 70,38 C70,39.6568542 71.3431458,41 73,41 Z M43,41 C44.6568542,41 46,39.6568542 46,38 C46,36.3431458 44.6568542,35 43,35 C41.3431458,35 40,36.3431458 40,38 C40,39.6568542 41.3431458,41 43,41 Z M15,33 C15,30.2385763 12.7614237,28 10,28 C7.23857625,28 5,30.2385763 5,33 L15,33 Z M25,33 C25,35.7614237 22.7614237,38 20,38 C17.2385763,38 15,35.7614237 15,33 L25,33 Z M56,5 C56,2.23857625 53.7614237,1.69088438e-16 51,0 C48.2385763,-1.69088438e-16 46,2.23857625 46,5 L56,5 Z M66,5 C66,7.76142375 63.7614237,10 61,10 C58.2385763,10 56,7.76142375 56,5 L66,5 Z M63,51 C64.6568542,51 66,49.6568542 66,48 C66,46.3431458 64.6568542,45 63,45 C61.3431458,45 60,46.3431458 60,48 C60,49.6568542 61.3431458,51 63,51 Z M73,51 C74.6568542,51 76,49.6568542 76,48 C76,46.3431458 74.6568542,45 73,45 C71.3431458,45 70,46.3431458 70,48 C70,49.6568542 71.3431458,51 73,51 Z M21,0 L26,20 L16,20 L21,0 Z M64,64 L64,60 L60,60 L60,64 L56,64 L56,68 L60,68 L60,72 L64,72 L64,68 L68,68 L68,64 L64,64 Z M36,13 L40,13 L40,17 L36,17 L36,13 Z M40,17 L44,17 L44,21 L40,21 L40,17 Z M36,21 L40,21 L40,25 L36,25 L36,21 Z M44,13 L48,13 L48,17 L44,17 L44,13 Z" id="Shape"></path>
            </g>
            <g id="random-shapes" transform="translate(76.000000, 0.000000)">
                <path d="M11,0 L16,20 L6,20 L11,0 Z M53,31 C54.6568542,31 56,29.6568542 56,28 C56,26.3431458 54.6568542,25 53,25 C51.3431458,25 50,26.3431458 50,28 C50,29.6568542 51.3431458,31 53,31 Z M0,72 L40,72 L40,76 L0,76 L0,72 Z M0,64 L31,64 L31,68 L0,68 L0,64 Z M20,48 L40,48 L40,52 L20,52 L20,48 Z M0,56 L40,56 L40,60 L0,60 L0,56 Z M63,31 C64.6568542,31 66,29.6568542 66,28 C66,26.3431458 64.6568542,25 63,25 C61.3431458,25 60,26.3431458 60,28 C60,29.6568542 61.3431458,31 63,31 Z M73,31 C74.6568542,31 76,29.6568542 76,28 C76,26.3431458 74.6568542,25 73,25 C71.3431458,25 70,26.3431458 70,28 C70,29.6568542 71.3431458,31 73,31 Z M53,41 C54.6568542,41 56,39.6568542 56,38 C56,36.3431458 54.6568542,35 53,35 C51.3431458,35 50,36.3431458 50,38 C50,39.6568542 51.3431458,41 53,41 Z M63,41 C64.6568542,41 66,39.6568542 66,38 C66,36.3431458 64.6568542,35 63,35 C61.3431458,35 60,36.3431458 60,38 C60,39.6568542 61.3431458,41 63,41 Z M73,41 C74.6568542,41 76,39.6568542 76,38 C76,36.3431458 74.6568542,35 73,35 C71.3431458,35 70,36.3431458 70,38 C70,39.6568542 71.3431458,41 73,41 Z M43,41 C44.6568542,41 46,39.6568542 46,38 C46,36.3431458 44.6568542,35 43,35 C41.3431458,35 40,36.3431458 40,38 C40,39.6568542 41.3431458,41 43,41 Z M15,33 C15,30.2385763 12.7614237,28 10,28 C7.23857625,28 5,30.2385763 5,33 L15,33 Z M25,33 C25,35.7614237 22.7614237,38 20,38 C17.2385763,38 15,35.7614237 15,33 L25,33 Z M56,5 C56,2.23857625 53.7614237,1.69088438e-16 51,0 C48.2385763,-1.69088438e-16 46,2.23857625 46,5 L56,5 Z M66,5 C66,7.76142375 63.7614237,10 61,10 C58.2385763,10 56,7.76142375 56,5 L66,5 Z M63,51 C64.6568542,51 66,49.6568542 66,48 C66,46.3431458 64.6568542,45 63,45 C61.3431458,45 60,46.3431458 60,48 C60,49.6568542 61.3431458,51 63,51 Z M73,51 C74.6568542,51 76,49.6568542 76,48 C76,46.3431458 74.6568542,45 73,45 C71.3431458,45 70,46.3431458 70,48 C70,49.6568542 71.3431458,51 73,51 Z M21,0 L26,20 L16,20 L21,0 Z M64,64 L64,60 L60,60 L60,64 L56,64 L56,68 L60,68 L60,72 L64,72 L64,68 L68,68 L68,64 L64,64 Z M36,13 L40,13 L40,17 L36,17 L36,13 Z M40,17 L44,17 L44,21 L40,21 L40,17 Z M36,21 L40,21 L40,25 L36,25 L36,21 Z M44,13 L48,13 L48,17 L44,17 L44,13 Z" id="Shape"></path>
            </g>
            <g id="random-shapes" transform="translate(0.000000, 76.000000)">
                <path d="M11,0 L16,20 L6,20 L11,0 Z M53,31 C54.6568542,31 56,29.6568542 56,28 C56,26.3431458 54.6568542,25 53,25 C51.3431458,25 50,26.3431458 50,28 C50,29.6568542 51.3431458,31 53,31 Z M0,72 L40,72 L40,76 L0,76 L0,72 Z M0,64 L31,64 L31,68 L0,68 L0,64 Z M20,48 L40,48 L40,52 L20,52 L20,48 Z M0,56 L40,56 L40,60 L0,60 L0,56 Z M63,31 C64.6568542,31 66,29.6568542 66,28 C66,26.3431458 64.6568542,25 63,25 C61.3431458,25 60,26.3431458 60,28 C60,29.6568542 61.3431458,31 63,31 Z M73,31 C74.6568542,31 76,29.6568542 76,28 C76,26.3431458 74.6568542,25 73,25 C71.3431458,25 70,26.3431458 70,28 C70,29.6568542 71.3431458,31 73,31 Z M53,41 C54.6568542,41 56,39.6568542 56,38 C56,36.3431458 54.6568542,35 53,35 C51.3431458,35 50,36.3431458 50,38 C50,39.6568542 51.3431458,41 53,41 Z M63,41 C64.6568542,41 66,39.6568542 66,38 C66,36.3431458 64.6568542,35 63,35 C61.3431458,35 60,36.3431458 60,38 C60,39.6568542 61.3431458,41 63,41 Z M73,41 C74.6568542,41 76,39.6568542 76,38 C76,36.3431458 74.6568542,35 73,35 C71.3431458,35 70,36.3431458 70,38 C70,39.6568542 71.3431458,41 73,41 Z M43,41 C44.6568542,41 46,39.6568542 46,38 C46,36.3431458 44.6568542,35 43,35 C41.3431458,35 40,36.3431458 40,38 C40,39.6568542 41.3431458,41 43,41 Z M15,33 C15,30.2385763 12.7614237,28 10,28 C7.23857625,28 5,30.2385763 5,33 L15,33 Z M25,33 C25,35.7614237 22.7614237,38 20,38 C17.2385763,38 15,35.7614237 15,33 L25,33 Z M56,5 C56,2.23857625 53.7614237,1.69088438e-16 51,0 C48.2385763,-1.69088438e-16 46,2.23857625 46,5 L56,5 Z M66,5 C66,7.76142375 63.7614237,10 61,10 C58.2385763,10 56,7.76142375 56,5 L66,5 Z M63,51 C64.6568542,51 66,49.6568542 66,48 C66,46.3431458 64.6568542,45 63,45 C61.3431458,45 60,46.3431458 60,48 C60,49.6568542 61.3431458,51 63,51 Z M73,51 C74.6568542,51 76,49.6568542 76,48 C76,46.3431458 74.6568542,45 73,45 C71.3431458,45 70,46.3431458 70,48 C70,49.6568542 71.3431458,51 73,51 Z M21,0 L26,20 L16,20 L21,0 Z M64,64 L64,60 L60,60 L60,64 L56,64 L56,68 L60,68 L60,72 L64,72 L64,68 L68,68 L68,64 L64,64 Z M36,13 L40,13 L40,17 L36,17 L36,13 Z M40,17 L44,17 L44,21 L40,21 L40,17 Z M36,21 L40,21 L40,25 L36,25 L36,21 Z M44,13 L48,13 L48,17 L44,17 L44,13 Z" id="Shape"></path>
            </g>
            <g id="random-shapes">
                <path d="M11,0 L16,20 L6,20 L11,0 Z M53,31 C54.6568542,31 56,29.6568542 56,28 C56,26.3431458 54.6568542,25 53,25 C51.3431458,25 50,26.3431458 50,28 C50,29.6568542 51.3431458,31 53,31 Z M0,72 L40,72 L40,76 L0,76 L0,72 Z M0,64 L31,64 L31,68 L0,68 L0,64 Z M20,48 L40,48 L40,52 L20,52 L20,48 Z M0,56 L40,56 L40,60 L0,60 L0,56 Z M63,31 C64.6568542,31 66,29.6568542 66,28 C66,26.3431458 64.6568542,25 63,25 C61.3431458,25 60,26.3431458 60,28 C60,29.6568542 61.3431458,31 63,31 Z M73,31 C74.6568542,31 76,29.6568542 76,28 C76,26.3431458 74.6568542,25 73,25 C71.3431458,25 70,26.3431458 70,28 C70,29.6568542 71.3431458,31 73,31 Z M53,41 C54.6568542,41 56,39.6568542 56,38 C56,36.3431458 54.6568542,35 53,35 C51.3431458,35 50,36.3431458 50,38 C50,39.6568542 51.3431458,41 53,41 Z M63,41 C64.6568542,41 66,39.6568542 66,38 C66,36.3431458 64.6568542,35 63,35 C61.3431458,35 60,36.3431458 60,38 C60,39.6568542 61.3431458,41 63,41 Z M73,41 C74.6568542,41 76,39.6568542 76,38 C76,36.3431458 74.6568542,35 73,35 C71.3431458,35 70,36.3431458 70,38 C70,39.6568542 71.3431458,41 73,41 Z M43,41 C44.6568542,41 46,39.6568542 46,38 C46,36.3431458 44.6568542,35 43,35 C41.3431458,35 40,36.3431458 40,38 C40,39.6568542 41.3431458,41 43,41 Z M15,33 C15,30.2385763 12.7614237,28 10,28 C7.23857625,28 5,30.2385763 5,33 L15,33 Z M25,33 C25,35.7614237 22.7614237,38 20,38 C17.2385763,38 15,35.7614237 15,33 L25,33 Z M56,5 C56,2.23857625 53.7614237,1.69088438e-16 51,0 C48.2385763,-1.69088438e-16 46,2.23857625 46,5 L56,5 Z M66,5 C66,7.76142375 63.7614237,10 61,10 C58.2385763,10 56,7.76142375 56,5 L66,5 Z M63,51 C64.6568542,51 66,49.6568542 66,48 C66,46.3431458 64.6568542,45 63,45 C61.3431458,45 60,46.3431458 60,48 C60,49.6568542 61.3431458,51 63,51 Z M73,51 C74.6568542,51 76,49.6568542 76,48 C76,46.3431458 74.6568542,45 73,45 C71.3431458,45 70,46.3431458 70,48 C70,49.6568542 71.3431458,51 73,51 Z M21,0 L26,20 L16,20 L21,0 Z M64,64 L64,60 L60,60 L60,64 L56,64 L56,68 L60,68 L60,72 L64,72 L64,68 L68,68 L68,64 L64,64 Z M36,13 L40,13 L40,17 L36,17 L36,13 Z M40,17 L44,17 L44,21 L40,21 L40,17 Z M36,21 L40,21 L40,25 L36,25 L36,21 Z M44,13 L48,13 L48,17 L44,17 L44,13 Z" id="Shape"></path>
            </g>
            <g id="random-shapes" transform="translate(228.000000, 76.000000)">
                <path d="M11,0 L16,20 L6,20 L11,0 Z M53,31 C54.6568542,31 56,29.6568542 56,28 C56,26.3431458 54.6568542,25 53,25 C51.3431458,25 50,26.3431458 50,28 C50,29.6568542 51.3431458,31 53,31 Z M0,72 L40,72 L40,76 L0,76 L0,72 Z M0,64 L31,64 L31,68 L0,68 L0,64 Z M20,48 L40,48 L40,52 L20,52 L20,48 Z M0,56 L40,56 L40,60 L0,60 L0,56 Z M63,31 C64.6568542,31 66,29.6568542 66,28 C66,26.3431458 64.6568542,25 63,25 C61.3431458,25 60,26.3431458 60,28 C60,29.6568542 61.3431458,31 63,31 Z M73,31 C74.6568542,31 76,29.6568542 76,28 C76,26.3431458 74.6568542,25 73,25 C71.3431458,25 70,26.3431458 70,28 C70,29.6568542 71.3431458,31 73,31 Z M53,41 C54.6568542,41 56,39.6568542 56,38 C56,36.3431458 54.6568542,35 53,35 C51.3431458,35 50,36.3431458 50,38 C50,39.6568542 51.3431458,41 53,41 Z M63,41 C64.6568542,41 66,39.6568542 66,38 C66,36.3431458 64.6568542,35 63,35 C61.3431458,35 60,36.3431458 60,38 C60,39.6568542 61.3431458,41 63,41 Z M73,41 C74.6568542,41 76,39.6568542 76,38 C76,36.3431458 74.6568542,35 73,35 C71.3431458,35 70,36.3431458 70,38 C70,39.6568542 71.3431458,41 73,41 Z M43,41 C44.6568542,41 46,39.6568542 46,38 C46,36.3431458 44.6568542,35 43,35 C41.3431458,35 40,36.3431458 40,38 C40,39.6568542 41.3431458,41 43,41 Z M15,33 C15,30.2385763 12.7614237,28 10,28 C7.23857625,28 5,30.2385763 5,33 L15,33 Z M25,33 C25,35.7614237 22.7614237,38 20,38 C17.2385763,38 15,35.7614237 15,33 L25,33 Z M56,5 C56,2.23857625 53.7614237,1.69088438e-16 51,0 C48.2385763,-1.69088438e-16 46,2.23857625 46,5 L56,5 Z M66,5 C66,7.76142375 63.7614237,10 61,10 C58.2385763,10 56,7.76142375 56,5 L66,5 Z M63,51 C64.6568542,51 66,49.6568542 66,48 C66,46.3431458 64.6568542,45 63,45 C61.3431458,45 60,46.3431458 60,48 C60,49.6568542 61.3431458,51 63,51 Z M73,51 C74.6568542,51 76,49.6568542 76,48 C76,46.3431458 74.6568542,45 73,45 C71.3431458,45 70,46.3431458 70,48 C70,49.6568542 71.3431458,51 73,51 Z M21,0 L26,20 L16,20 L21,0 Z M64,64 L64,60 L60,60 L60,64 L56,64 L56,68 L60,68 L60,72 L64,72 L64,68 L68,68 L68,64 L64,64 Z M36,13 L40,13 L40,17 L36,17 L36,13 Z M40,17 L44,17 L44,21 L40,21 L40,17 Z M36,21 L40,21 L40,25 L36,25 L36,21 Z M44,13 L48,13 L48,17 L44,17 L44,13 Z" id="Shape"></path>
            </g>
            <g id="random-shapes" transform="translate(228.000000, 0.000000)">
                <path d="M11,0 L16,20 L6,20 L11,0 Z M53,31 C54.6568542,31 56,29.6568542 56,28 C56,26.3431458 54.6568542,25 53,25 C51.3431458,25 50,26.3431458 50,28 C50,29.6568542 51.3431458,31 53,31 Z M0,72 L40,72 L40,76 L0,76 L0,72 Z M0,64 L31,64 L31,68 L0,68 L0,64 Z M20,48 L40,48 L40,52 L20,52 L20,48 Z M0,56 L40,56 L40,60 L0,60 L0,56 Z M63,31 C64.6568542,31 66,29.6568542 66,28 C66,26.3431458 64.6568542,25 63,25 C61.3431458,25 60,26.3431458 60,28 C60,29.6568542 61.3431458,31 63,31 Z M73,31 C74.6568542,31 76,29.6568542 76,28 C76,26.3431458 74.6568542,25 73,25 C71.3431458,25 70,26.3431458 70,28 C70,29.6568542 71.3431458,31 73,31 Z M53,41 C54.6568542,41 56,39.6568542 56,38 C56,36.3431458 54.6568542,35 53,35 C51.3431458,35 50,36.3431458 50,38 C50,39.6568542 51.3431458,41 53,41 Z M63,41 C64.6568542,41 66,39.6568542 66,38 C66,36.3431458 64.6568542,35 63,35 C61.3431458,35 60,36.3431458 60,38 C60,39.6568542 61.3431458,41 63,41 Z M73,41 C74.6568542,41 76,39.6568542 76,38 C76,36.3431458 74.6568542,35 73,35 C71.3431458,35 70,36.3431458 70,38 C70,39.6568542 71.3431458,41 73,41 Z M43,41 C44.6568542,41 46,39.6568542 46,38 C46,36.3431458 44.6568542,35 43,35 C41.3431458,35 40,36.3431458 40,38 C40,39.6568542 41.3431458,41 43,41 Z M15,33 C15,30.2385763 12.7614237,28 10,28 C7.23857625,28 5,30.2385763 5,33 L15,33 Z M25,33 C25,35.7614237 22.7614237,38 20,38 C17.2385763,38 15,35.7614237 15,33 L25,33 Z M56,5 C56,2.23857625 53.7614237,1.69088438e-16 51,0 C48.2385763,-1.69088438e-16 46,2.23857625 46,5 L56,5 Z M66,5 C66,7.76142375 63.7614237,10 61,10 C58.2385763,10 56,7.76142375 56,5 L66,5 Z M63,51 C64.6568542,51 66,49.6568542 66,48 C66,46.3431458 64.6568542,45 63,45 C61.3431458,45 60,46.3431458 60,48 C60,49.6568542 61.3431458,51 63,51 Z M73,51 C74.6568542,51 76,49.6568542 76,48 C76,46.3431458 74.6568542,45 73,45 C71.3431458,45 70,46.3431458 70,48 C70,49.6568542 71.3431458,51 73,51 Z M21,0 L26,20 L16,20 L21,0 Z M64,64 L64,60 L60,60 L60,64 L56,64 L56,68 L60,68 L60,72 L64,72 L64,68 L68,68 L68,64 L64,64 Z M36,13 L40,13 L40,17 L36,17 L36,13 Z M40,17 L44,17 L44,21 L40,21 L40,17 Z M36,21 L40,21 L40,25 L36,25 L36,21 Z M44,13 L48,13 L48,17 L44,17 L44,13 Z" id="Shape"></path>
            </g>
            <g id="random-shapes" transform="translate(152.000000, 76.000000)">
                <path d="M11,0 L16,20 L6,20 L11,0 Z M53,31 C54.6568542,31 56,29.6568542 56,28 C56,26.3431458 54.6568542,25 53,25 C51.3431458,25 50,26.3431458 50,28 C50,29.6568542 51.3431458,31 53,31 Z M0,72 L40,72 L40,76 L0,76 L0,72 Z M0,64 L31,64 L31,68 L0,68 L0,64 Z M20,48 L40,48 L40,52 L20,52 L20,48 Z M0,56 L40,56 L40,60 L0,60 L0,56 Z M63,31 C64.6568542,31 66,29.6568542 66,28 C66,26.3431458 64.6568542,25 63,25 C61.3431458,25 60,26.3431458 60,28 C60,29.6568542 61.3431458,31 63,31 Z M73,31 C74.6568542,31 76,29.6568542 76,28 C76,26.3431458 74.6568542,25 73,25 C71.3431458,25 70,26.3431458 70,28 C70,29.6568542 71.3431458,31 73,31 Z M53,41 C54.6568542,41 56,39.6568542 56,38 C56,36.3431458 54.6568542,35 53,35 C51.3431458,35 50,36.3431458 50,38 C50,39.6568542 51.3431458,41 53,41 Z M63,41 C64.6568542,41 66,39.6568542 66,38 C66,36.3431458 64.6568542,35 63,35 C61.3431458,35 60,36.3431458 60,38 C60,39.6568542 61.3431458,41 63,41 Z M73,41 C74.6568542,41 76,39.6568542 76,38 C76,36.3431458 74.6568542,35 73,35 C71.3431458,35 70,36.3431458 70,38 C70,39.6568542 71.3431458,41 73,41 Z M43,41 C44.6568542,41 46,39.6568542 46,38 C46,36.3431458 44.6568542,35 43,35 C41.3431458,35 40,36.3431458 40,38 C40,39.6568542 41.3431458,41 43,41 Z M15,33 C15,30.2385763 12.7614237,28 10,28 C7.23857625,28 5,30.2385763 5,33 L15,33 Z M25,33 C25,35.7614237 22.7614237,38 20,38 C17.2385763,38 15,35.7614237 15,33 L25,33 Z M56,5 C56,2.23857625 53.7614237,1.69088438e-16 51,0 C48.2385763,-1.69088438e-16 46,2.23857625 46,5 L56,5 Z M66,5 C66,7.76142375 63.7614237,10 61,10 C58.2385763,10 56,7.76142375 56,5 L66,5 Z M63,51 C64.6568542,51 66,49.6568542 66,48 C66,46.3431458 64.6568542,45 63,45 C61.3431458,45 60,46.3431458 60,48 C60,49.6568542 61.3431458,51 63,51 Z M73,51 C74.6568542,51 76,49.6568542 76,48 C76,46.3431458 74.6568542,45 73,45 C71.3431458,45 70,46.3431458 70,48 C70,49.6568542 71.3431458,51 73,51 Z M21,0 L26,20 L16,20 L21,0 Z M64,64 L64,60 L60,60 L60,64 L56,64 L56,68 L60,68 L60,72 L64,72 L64,68 L68,68 L68,64 L64,64 Z M36,13 L40,13 L40,17 L36,17 L36,13 Z M40,17 L44,17 L44,21 L40,21 L40,17 Z M36,21 L40,21 L40,25 L36,25 L36,21 Z M44,13 L48,13 L48,17 L44,17 L44,13 Z" id="Shape"></path>
            </g>
            <g id="random-shapes" transform="translate(152.000000, 0.000000)">
                <path d="M11,0 L16,20 L6,20 L11,0 Z M53,31 C54.6568542,31 56,29.6568542 56,28 C56,26.3431458 54.6568542,25 53,25 C51.3431458,25 50,26.3431458 50,28 C50,29.6568542 51.3431458,31 53,31 Z M0,72 L40,72 L40,76 L0,76 L0,72 Z M0,64 L31,64 L31,68 L0,68 L0,64 Z M20,48 L40,48 L40,52 L20,52 L20,48 Z M0,56 L40,56 L40,60 L0,60 L0,56 Z M63,31 C64.6568542,31 66,29.6568542 66,28 C66,26.3431458 64.6568542,25 63,25 C61.3431458,25 60,26.3431458 60,28 C60,29.6568542 61.3431458,31 63,31 Z M73,31 C74.6568542,31 76,29.6568542 76,28 C76,26.3431458 74.6568542,25 73,25 C71.3431458,25 70,26.3431458 70,28 C70,29.6568542 71.3431458,31 73,31 Z M53,41 C54.6568542,41 56,39.6568542 56,38 C56,36.3431458 54.6568542,35 53,35 C51.3431458,35 50,36.3431458 50,38 C50,39.6568542 51.3431458,41 53,41 Z M63,41 C64.6568542,41 66,39.6568542 66,38 C66,36.3431458 64.6568542,35 63,35 C61.3431458,35 60,36.3431458 60,38 C60,39.6568542 61.3431458,41 63,41 Z M73,41 C74.6568542,41 76,39.6568542 76,38 C76,36.3431458 74.6568542,35 73,35 C71.3431458,35 70,36.3431458 70,38 C70,39.6568542 71.3431458,41 73,41 Z M43,41 C44.6568542,41 46,39.6568542 46,38 C46,36.3431458 44.6568542,35 43,35 C41.3431458,35 40,36.3431458 40,38 C40,39.6568542 41.3431458,41 43,41 Z M15,33 C15,30.2385763 12.7614237,28 10,28 C7.23857625,28 5,30.2385763 5,33 L15,33 Z M25,33 C25,35.7614237 22.7614237,38 20,38 C17.2385763,38 15,35.7614237 15,33 L25,33 Z M56,5 C56,2.23857625 53.7614237,1.69088438e-16 51,0 C48.2385763,-1.69088438e-16 46,2.23857625 46,5 L56,5 Z M66,5 C66,7.76142375 63.7614237,10 61,10 C58.2385763,10 56,7.76142375 56,5 L66,5 Z M63,51 C64.6568542,51 66,49.6568542 66,48 C66,46.3431458 64.6568542,45 63,45 C61.3431458,45 60,46.3431458 60,48 C60,49.6568542 61.3431458,51 63,51 Z M73,51 C74.6568542,51 76,49.6568542 76,48 C76,46.3431458 74.6568542,45 73,45 C71.3431458,45 70,46.3431458 70,48 C70,49.6568542 71.3431458,51 73,51 Z M21,0 L26,20 L16,20 L21,0 Z M64,64 L64,60 L60,60 L60,64 L56,64 L56,68 L60,68 L60,72 L64,72 L64,68 L68,68 L68,64 L64,64 Z M36,13 L40,13 L40,17 L36,17 L36,13 Z M40,17 L44,17 L44,21 L40,21 L40,17 Z M36,21 L40,21 L40,25 L36,25 L36,21 Z M44,13 L48,13 L48,17 L44,17 L44,13 Z" id="Shape"></path>
            </g>
        </g>
    </g>
</svg>