<svg height="490" viewBox="0 0 511 490" width="511" xmlns="http://www.w3.org/2000/svg"><g><path d="m0 0h12v6h-12zm28 8h12v6h-12zm14-8h12v6h-12zm14 0h12v6h-12zm0 8h12v6h-12zm-14 0h12v6h-12zm0 16h12v6h-12zm14-8h12v6h-12zm14 0h12v6h-12zm0-16h12v6h-12zm-42 32h12v6h-12zm-14-16h12v6h-12zm-14 8h12v6h-12zm0 8h12v6h-12zm14 0h12v6h-12zm14 8h12v6h-12zm-14 0h12v6h-12zm28 0h12v6h-12zm14-8h12v6h-12zm0-8h12v6h-12zm14 8h12v6h-12zm0 8h12v6h-12zm-56-16h12v6h-12zm14-8h12v6h-12zm-14-8h12v6h-12zm-14 0h12v6h-12z" transform="translate(341)"/><path d="m0 0h12v6h-12zm28 8h12v6h-12zm14-8h12v6h-12zm14 0h12v6h-12zm0 8h12v6h-12zm-14 0h12v6h-12zm0 16h12v6h-12zm14-8h12v6h-12zm14 0h12v6h-12zm0-16h12v6h-12zm-42 32h12v6h-12zm-14-16h12v6h-12zm-14 8h12v6h-12zm0 8h12v6h-12zm14 0h12v6h-12zm14 8h12v6h-12zm-14 0h12v6h-12zm28 0h12v6h-12zm14-8h12v6h-12zm0-8h12v6h-12zm14 8h12v6h-12zm0 8h12v6h-12zm-56-16h12v6h-12zm14-8h12v6h-12zm-14-8h12v6h-12zm-14 0h12v6h-12z" transform="translate(426)"/><path d="m0 0h12v6h-12zm28 8h12v6h-12zm14-8h12v6h-12zm14 0h12v6h-12zm0 8h12v6h-12zm-14 0h12v6h-12zm0 16h12v6h-12zm14-8h12v6h-12zm14 0h12v6h-12zm0-16h12v6h-12zm-42 32h12v6h-12zm-14-16h12v6h-12zm-14 8h12v6h-12zm0 8h12v6h-12zm14 0h12v6h-12zm14 8h12v6h-12zm-14 0h12v6h-12zm28 0h12v6h-12zm14-8h12v6h-12zm0-8h12v6h-12zm14 8h12v6h-12zm0 8h12v6h-12zm-56-16h12v6h-12zm14-8h12v6h-12zm-14-8h12v6h-12zm-14 0h12v6h-12z" transform="translate(426 50)"/><path d="m0 0h12v6h-12zm28 8h12v6h-12zm14-8h12v6h-12zm14 0h12v6h-12zm0 8h12v6h-12zm-14 0h12v6h-12zm0 16h12v6h-12zm14-8h12v6h-12zm14 0h12v6h-12zm0-16h12v6h-12zm-42 32h12v6h-12zm-14-16h12v6h-12zm-14 8h12v6h-12zm0 8h12v6h-12zm14 0h12v6h-12zm14 8h12v6h-12zm-14 0h12v6h-12zm28 0h12v6h-12zm14-8h12v6h-12zm0-8h12v6h-12zm14 8h12v6h-12zm0 8h12v6h-12zm-56-16h12v6h-12zm14-8h12v6h-12zm-14-8h12v6h-12zm-14 0h12v6h-12z" transform="translate(341 50)"/><path d="m0 0h12v6h-12zm28 8h12v6h-12zm14-8h12v6h-12zm14 0h12v6h-12zm0 8h12v6h-12zm-14 0h12v6h-12zm0 16h12v6h-12zm14-8h12v6h-12zm14 0h12v6h-12zm0-16h12v6h-12zm-42 32h12v6h-12zm-14-16h12v6h-12zm-14 8h12v6h-12zm0 8h12v6h-12zm14 0h12v6h-12zm14 8h12v6h-12zm-14 0h12v6h-12zm28 0h12v6h-12zm14-8h12v6h-12zm0-8h12v6h-12zm14 8h12v6h-12zm0 8h12v6h-12zm-56-16h12v6h-12zm14-8h12v6h-12zm-14-8h12v6h-12zm-14 0h12v6h-12z" transform="translate(428 100)"/><path d="m0 0h12v6h-12zm28 8h12v6h-12zm14-8h12v6h-12zm14 0h12v6h-12zm0 8h12v6h-12zm-14 0h12v6h-12zm0 16h12v6h-12zm14-8h12v6h-12zm14 0h12v6h-12zm0-16h12v6h-12zm-42 32h12v6h-12zm-14-16h12v6h-12zm-14 8h12v6h-12zm0 8h12v6h-12zm14 0h12v6h-12zm14 8h12v6h-12zm-14 0h12v6h-12zm28 0h12v6h-12zm14-8h12v6h-12zm0-8h12v6h-12zm14 8h12v6h-12zm0 8h12v6h-12zm-56-16h12v6h-12zm14-8h12v6h-12zm-14-8h12v6h-12zm-14 0h12v6h-12z" transform="translate(343 100)"/><path d="m0 0h12v6h-12zm28 8h12v6h-12zm14-8h12v6h-12zm14 0h12v6h-12zm0 8h12v6h-12zm-14 0h12v6h-12zm0 16h12v6h-12zm14-8h12v6h-12zm14 0h12v6h-12zm0-16h12v6h-12zm-42 32h12v6h-12zm-14-16h12v6h-12zm-14 8h12v6h-12zm0 8h12v6h-12zm14 0h12v6h-12zm14 8h12v6h-12zm-14 0h12v6h-12zm28 0h12v6h-12zm14-8h12v6h-12zm0-8h12v6h-12zm14 8h12v6h-12zm0 8h12v6h-12zm-56-16h12v6h-12zm14-8h12v6h-12zm-14-8h12v6h-12zm-14 0h12v6h-12z" transform="translate(170)"/><path d="m0 0h12v6h-12zm28 8h12v6h-12zm14-8h12v6h-12zm14 0h12v6h-12zm0 8h12v6h-12zm-14 0h12v6h-12zm0 16h12v6h-12zm14-8h12v6h-12zm14 0h12v6h-12zm0-16h12v6h-12zm-42 32h12v6h-12zm-14-16h12v6h-12zm-14 8h12v6h-12zm0 8h12v6h-12zm14 0h12v6h-12zm14 8h12v6h-12zm-14 0h12v6h-12zm28 0h12v6h-12zm14-8h12v6h-12zm0-8h12v6h-12zm14 8h12v6h-12zm0 8h12v6h-12zm-56-16h12v6h-12zm14-8h12v6h-12zm-14-8h12v6h-12zm-14 0h12v6h-12z" transform="translate(255)"/><path d="m0 0h12v6h-12zm28 8h12v6h-12zm14-8h12v6h-12zm14 0h12v6h-12zm0 8h12v6h-12zm-14 0h12v6h-12zm0 16h12v6h-12zm14-8h12v6h-12zm14 0h12v6h-12zm0-16h12v6h-12zm-42 32h12v6h-12zm-14-16h12v6h-12zm-14 8h12v6h-12zm0 8h12v6h-12zm14 0h12v6h-12zm14 8h12v6h-12zm-14 0h12v6h-12zm28 0h12v6h-12zm14-8h12v6h-12zm0-8h12v6h-12zm14 8h12v6h-12zm0 8h12v6h-12zm-56-16h12v6h-12zm14-8h12v6h-12zm-14-8h12v6h-12zm-14 0h12v6h-12z" transform="translate(255 50)"/><path d="m0 0h12v6h-12zm28 8h12v6h-12zm14-8h12v6h-12zm14 0h12v6h-12zm0 8h12v6h-12zm-14 0h12v6h-12zm0 16h12v6h-12zm14-8h12v6h-12zm14 0h12v6h-12zm0-16h12v6h-12zm-42 32h12v6h-12zm-14-16h12v6h-12zm-14 8h12v6h-12zm0 8h12v6h-12zm14 0h12v6h-12zm14 8h12v6h-12zm-14 0h12v6h-12zm28 0h12v6h-12zm14-8h12v6h-12zm0-8h12v6h-12zm14 8h12v6h-12zm0 8h12v6h-12zm-56-16h12v6h-12zm14-8h12v6h-12zm-14-8h12v6h-12zm-14 0h12v6h-12z" transform="translate(170 50)"/><path d="m0 0h12v6h-12zm28 8h12v6h-12zm14-8h12v6h-12zm14 0h12v6h-12zm0 8h12v6h-12zm-14 0h12v6h-12zm0 16h12v6h-12zm14-8h12v6h-12zm14 0h12v6h-12zm0-16h12v6h-12zm-42 32h12v6h-12zm-14-16h12v6h-12zm-14 8h12v6h-12zm0 8h12v6h-12zm14 0h12v6h-12zm14 8h12v6h-12zm-14 0h12v6h-12zm28 0h12v6h-12zm14-8h12v6h-12zm0-8h12v6h-12zm14 8h12v6h-12zm0 8h12v6h-12zm-56-16h12v6h-12zm14-8h12v6h-12zm-14-8h12v6h-12zm-14 0h12v6h-12z" transform="translate(257 100)"/><path d="m0 0h12v6h-12zm28 8h12v6h-12zm14-8h12v6h-12zm14 0h12v6h-12zm0 8h12v6h-12zm-14 0h12v6h-12zm0 16h12v6h-12zm14-8h12v6h-12zm14 0h12v6h-12zm0-16h12v6h-12zm-42 32h12v6h-12zm-14-16h12v6h-12zm-14 8h12v6h-12zm0 8h12v6h-12zm14 0h12v6h-12zm14 8h12v6h-12zm-14 0h12v6h-12zm28 0h12v6h-12zm14-8h12v6h-12zm0-8h12v6h-12zm14 8h12v6h-12zm0 8h12v6h-12zm-56-16h12v6h-12zm14-8h12v6h-12zm-14-8h12v6h-12zm-14 0h12v6h-12z" transform="translate(172 100)"/><path d="m0 0h12v6h-12zm28 8h12v6h-12zm14-8h12v6h-12zm14 0h12v6h-12zm0 8h12v6h-12zm-14 0h12v6h-12zm0 16h12v6h-12zm14-8h12v6h-12zm14 0h12v6h-12zm0-16h12v6h-12zm-42 32h12v6h-12zm-14-16h12v6h-12zm-14 8h12v6h-12zm0 8h12v6h-12zm14 0h12v6h-12zm14 8h12v6h-12zm-14 0h12v6h-12zm28 0h12v6h-12zm14-8h12v6h-12zm0-8h12v6h-12zm14 8h12v6h-12zm0 8h12v6h-12zm-56-16h12v6h-12zm14-8h12v6h-12zm-14-8h12v6h-12zm-14 0h12v6h-12z"/><path d="m0 0h12v6h-12zm28 8h12v6h-12zm14-8h12v6h-12zm14 0h12v6h-12zm0 8h12v6h-12zm-14 0h12v6h-12zm0 16h12v6h-12zm14-8h12v6h-12zm14 0h12v6h-12zm0-16h12v6h-12zm-42 32h12v6h-12zm-14-16h12v6h-12zm-14 8h12v6h-12zm0 8h12v6h-12zm14 0h12v6h-12zm14 8h12v6h-12zm-14 0h12v6h-12zm28 0h12v6h-12zm14-8h12v6h-12zm0-8h12v6h-12zm14 8h12v6h-12zm0 8h12v6h-12zm-56-16h12v6h-12zm14-8h12v6h-12zm-14-8h12v6h-12zm-14 0h12v6h-12z" transform="translate(85)"/><path d="m0 0h12v6h-12zm28 8h12v6h-12zm14-8h12v6h-12zm14 0h12v6h-12zm0 8h12v6h-12zm-14 0h12v6h-12zm0 16h12v6h-12zm14-8h12v6h-12zm14 0h12v6h-12zm0-16h12v6h-12zm-42 32h12v6h-12zm-14-16h12v6h-12zm-14 8h12v6h-12zm0 8h12v6h-12zm14 0h12v6h-12zm14 8h12v6h-12zm-14 0h12v6h-12zm28 0h12v6h-12zm14-8h12v6h-12zm0-8h12v6h-12zm14 8h12v6h-12zm0 8h12v6h-12zm-56-16h12v6h-12zm14-8h12v6h-12zm-14-8h12v6h-12zm-14 0h12v6h-12z" transform="translate(85 50)"/><path d="m0 0h12v6h-12zm28 8h12v6h-12zm14-8h12v6h-12zm14 0h12v6h-12zm0 8h12v6h-12zm-14 0h12v6h-12zm0 16h12v6h-12zm14-8h12v6h-12zm14 0h12v6h-12zm0-16h12v6h-12zm-42 32h12v6h-12zm-14-16h12v6h-12zm-14 8h12v6h-12zm0 8h12v6h-12zm14 0h12v6h-12zm14 8h12v6h-12zm-14 0h12v6h-12zm28 0h12v6h-12zm14-8h12v6h-12zm0-8h12v6h-12zm14 8h12v6h-12zm0 8h12v6h-12zm-56-16h12v6h-12zm14-8h12v6h-12zm-14-8h12v6h-12zm-14 0h12v6h-12z" transform="translate(0 50)"/><path d="m0 0h12v6h-12zm28 8h12v6h-12zm14-8h12v6h-12zm14 0h12v6h-12zm0 8h12v6h-12zm-14 0h12v6h-12zm0 16h12v6h-12zm14-8h12v6h-12zm14 0h12v6h-12zm0-16h12v6h-12zm-42 32h12v6h-12zm-14-16h12v6h-12zm-14 8h12v6h-12zm0 8h12v6h-12zm14 0h12v6h-12zm14 8h12v6h-12zm-14 0h12v6h-12zm28 0h12v6h-12zm14-8h12v6h-12zm0-8h12v6h-12zm14 8h12v6h-12zm0 8h12v6h-12zm-56-16h12v6h-12zm14-8h12v6h-12zm-14-8h12v6h-12zm-14 0h12v6h-12z" transform="translate(87 100)"/><path d="m0 0h12v6h-12zm28 8h12v6h-12zm14-8h12v6h-12zm14 0h12v6h-12zm0 8h12v6h-12zm-14 0h12v6h-12zm0 16h12v6h-12zm14-8h12v6h-12zm14 0h12v6h-12zm0-16h12v6h-12zm-42 32h12v6h-12zm-14-16h12v6h-12zm-14 8h12v6h-12zm0 8h12v6h-12zm14 0h12v6h-12zm14 8h12v6h-12zm-14 0h12v6h-12zm28 0h12v6h-12zm14-8h12v6h-12zm0-8h12v6h-12zm14 8h12v6h-12zm0 8h12v6h-12zm-56-16h12v6h-12zm14-8h12v6h-12zm-14-8h12v6h-12zm-14 0h12v6h-12z" transform="translate(2 100)"/><path d="m0 0h12v6h-12zm28 8h12v6h-12zm14-8h12v6h-12zm14 0h12v6h-12zm0 8h12v6h-12zm-14 0h12v6h-12zm0 16h12v6h-12zm14-8h12v6h-12zm14 0h12v6h-12zm0-16h12v6h-12zm-42 32h12v6h-12zm-14-16h12v6h-12zm-14 8h12v6h-12zm0 8h12v6h-12zm14 0h12v6h-12zm14 8h12v6h-12zm-14 0h12v6h-12zm28 0h12v6h-12zm14-8h12v6h-12zm0-8h12v6h-12zm14 8h12v6h-12zm0 8h12v6h-12zm-56-16h12v6h-12zm14-8h12v6h-12zm-14-8h12v6h-12zm-14 0h12v6h-12z" transform="translate(341 149)"/><path d="m0 0h12v6h-12zm28 8h12v6h-12zm14-8h12v6h-12zm14 0h12v6h-12zm0 8h12v6h-12zm-14 0h12v6h-12zm0 16h12v6h-12zm14-8h12v6h-12zm14 0h12v6h-12zm0-16h12v6h-12zm-42 32h12v6h-12zm-14-16h12v6h-12zm-14 8h12v6h-12zm0 8h12v6h-12zm14 0h12v6h-12zm14 8h12v6h-12zm-14 0h12v6h-12zm28 0h12v6h-12zm14-8h12v6h-12zm0-8h12v6h-12zm14 8h12v6h-12zm0 8h12v6h-12zm-56-16h12v6h-12zm14-8h12v6h-12zm-14-8h12v6h-12zm-14 0h12v6h-12z" transform="translate(426 149)"/><path d="m0 0h12v6h-12zm28 8h12v6h-12zm14-8h12v6h-12zm14 0h12v6h-12zm0 8h12v6h-12zm-14 0h12v6h-12zm0 16h12v6h-12zm14-8h12v6h-12zm14 0h12v6h-12zm0-16h12v6h-12zm-42 32h12v6h-12zm-14-16h12v6h-12zm-14 8h12v6h-12zm0 8h12v6h-12zm14 0h12v6h-12zm14 8h12v6h-12zm-14 0h12v6h-12zm28 0h12v6h-12zm14-8h12v6h-12zm0-8h12v6h-12zm14 8h12v6h-12zm0 8h12v6h-12zm-56-16h12v6h-12zm14-8h12v6h-12zm-14-8h12v6h-12zm-14 0h12v6h-12z" transform="translate(426 199)"/><path d="m0 0h12v6h-12zm28 8h12v6h-12zm14-8h12v6h-12zm14 0h12v6h-12zm0 8h12v6h-12zm-14 0h12v6h-12zm0 16h12v6h-12zm14-8h12v6h-12zm14 0h12v6h-12zm0-16h12v6h-12zm-42 32h12v6h-12zm-14-16h12v6h-12zm-14 8h12v6h-12zm0 8h12v6h-12zm14 0h12v6h-12zm14 8h12v6h-12zm-14 0h12v6h-12zm28 0h12v6h-12zm14-8h12v6h-12zm0-8h12v6h-12zm14 8h12v6h-12zm0 8h12v6h-12zm-56-16h12v6h-12zm14-8h12v6h-12zm-14-8h12v6h-12zm-14 0h12v6h-12z" transform="translate(341 199)"/><path d="m0 0h12v6h-12zm28 8h12v6h-12zm14-8h12v6h-12zm14 0h12v6h-12zm0 8h12v6h-12zm-14 0h12v6h-12zm0 16h12v6h-12zm14-8h12v6h-12zm14 0h12v6h-12zm0-16h12v6h-12zm-42 32h12v6h-12zm-14-16h12v6h-12zm-14 8h12v6h-12zm0 8h12v6h-12zm14 0h12v6h-12zm14 8h12v6h-12zm-14 0h12v6h-12zm28 0h12v6h-12zm14-8h12v6h-12zm0-8h12v6h-12zm14 8h12v6h-12zm0 8h12v6h-12zm-56-16h12v6h-12zm14-8h12v6h-12zm-14-8h12v6h-12zm-14 0h12v6h-12z" transform="translate(428 249)"/><path d="m0 0h12v6h-12zm28 8h12v6h-12zm14-8h12v6h-12zm14 0h12v6h-12zm0 8h12v6h-12zm-14 0h12v6h-12zm0 16h12v6h-12zm14-8h12v6h-12zm14 0h12v6h-12zm0-16h12v6h-12zm-42 32h12v6h-12zm-14-16h12v6h-12zm-14 8h12v6h-12zm0 8h12v6h-12zm14 0h12v6h-12zm14 8h12v6h-12zm-14 0h12v6h-12zm28 0h12v6h-12zm14-8h12v6h-12zm0-8h12v6h-12zm14 8h12v6h-12zm0 8h12v6h-12zm-56-16h12v6h-12zm14-8h12v6h-12zm-14-8h12v6h-12zm-14 0h12v6h-12z" transform="translate(343 249)"/><path d="m0 0h12v6h-12zm28 8h12v6h-12zm14-8h12v6h-12zm14 0h12v6h-12zm0 8h12v6h-12zm-14 0h12v6h-12zm0 16h12v6h-12zm14-8h12v6h-12zm14 0h12v6h-12zm0-16h12v6h-12zm-42 32h12v6h-12zm-14-16h12v6h-12zm-14 8h12v6h-12zm0 8h12v6h-12zm14 0h12v6h-12zm14 8h12v6h-12zm-14 0h12v6h-12zm28 0h12v6h-12zm14-8h12v6h-12zm0-8h12v6h-12zm14 8h12v6h-12zm0 8h12v6h-12zm-56-16h12v6h-12zm14-8h12v6h-12zm-14-8h12v6h-12zm-14 0h12v6h-12z" transform="translate(170 149)"/><path d="m0 0h12v6h-12zm28 8h12v6h-12zm14-8h12v6h-12zm14 0h12v6h-12zm0 8h12v6h-12zm-14 0h12v6h-12zm0 16h12v6h-12zm14-8h12v6h-12zm14 0h12v6h-12zm0-16h12v6h-12zm-42 32h12v6h-12zm-14-16h12v6h-12zm-14 8h12v6h-12zm0 8h12v6h-12zm14 0h12v6h-12zm14 8h12v6h-12zm-14 0h12v6h-12zm28 0h12v6h-12zm14-8h12v6h-12zm0-8h12v6h-12zm14 8h12v6h-12zm0 8h12v6h-12zm-56-16h12v6h-12zm14-8h12v6h-12zm-14-8h12v6h-12zm-14 0h12v6h-12z" transform="translate(255 149)"/><path d="m0 0h12v6h-12zm28 8h12v6h-12zm14-8h12v6h-12zm14 0h12v6h-12zm0 8h12v6h-12zm-14 0h12v6h-12zm0 16h12v6h-12zm14-8h12v6h-12zm14 0h12v6h-12zm0-16h12v6h-12zm-42 32h12v6h-12zm-14-16h12v6h-12zm-14 8h12v6h-12zm0 8h12v6h-12zm14 0h12v6h-12zm14 8h12v6h-12zm-14 0h12v6h-12zm28 0h12v6h-12zm14-8h12v6h-12zm0-8h12v6h-12zm14 8h12v6h-12zm0 8h12v6h-12zm-56-16h12v6h-12zm14-8h12v6h-12zm-14-8h12v6h-12zm-14 0h12v6h-12z" transform="translate(255 199)"/><path d="m0 0h12v6h-12zm28 8h12v6h-12zm14-8h12v6h-12zm14 0h12v6h-12zm0 8h12v6h-12zm-14 0h12v6h-12zm0 16h12v6h-12zm14-8h12v6h-12zm14 0h12v6h-12zm0-16h12v6h-12zm-42 32h12v6h-12zm-14-16h12v6h-12zm-14 8h12v6h-12zm0 8h12v6h-12zm14 0h12v6h-12zm14 8h12v6h-12zm-14 0h12v6h-12zm28 0h12v6h-12zm14-8h12v6h-12zm0-8h12v6h-12zm14 8h12v6h-12zm0 8h12v6h-12zm-56-16h12v6h-12zm14-8h12v6h-12zm-14-8h12v6h-12zm-14 0h12v6h-12z" transform="translate(170 199)"/><path d="m0 0h12v6h-12zm28 8h12v6h-12zm14-8h12v6h-12zm14 0h12v6h-12zm0 8h12v6h-12zm-14 0h12v6h-12zm0 16h12v6h-12zm14-8h12v6h-12zm14 0h12v6h-12zm0-16h12v6h-12zm-42 32h12v6h-12zm-14-16h12v6h-12zm-14 8h12v6h-12zm0 8h12v6h-12zm14 0h12v6h-12zm14 8h12v6h-12zm-14 0h12v6h-12zm28 0h12v6h-12zm14-8h12v6h-12zm0-8h12v6h-12zm14 8h12v6h-12zm0 8h12v6h-12zm-56-16h12v6h-12zm14-8h12v6h-12zm-14-8h12v6h-12zm-14 0h12v6h-12z" transform="translate(257 249)"/><path d="m0 0h12v6h-12zm28 8h12v6h-12zm14-8h12v6h-12zm14 0h12v6h-12zm0 8h12v6h-12zm-14 0h12v6h-12zm0 16h12v6h-12zm14-8h12v6h-12zm14 0h12v6h-12zm0-16h12v6h-12zm-42 32h12v6h-12zm-14-16h12v6h-12zm-14 8h12v6h-12zm0 8h12v6h-12zm14 0h12v6h-12zm14 8h12v6h-12zm-14 0h12v6h-12zm28 0h12v6h-12zm14-8h12v6h-12zm0-8h12v6h-12zm14 8h12v6h-12zm0 8h12v6h-12zm-56-16h12v6h-12zm14-8h12v6h-12zm-14-8h12v6h-12zm-14 0h12v6h-12z" transform="translate(172 249)"/><path d="m0 0h12v6h-12zm28 8h12v6h-12zm14-8h12v6h-12zm14 0h12v6h-12zm0 8h12v6h-12zm-14 0h12v6h-12zm0 16h12v6h-12zm14-8h12v6h-12zm14 0h12v6h-12zm0-16h12v6h-12zm-42 32h12v6h-12zm-14-16h12v6h-12zm-14 8h12v6h-12zm0 8h12v6h-12zm14 0h12v6h-12zm14 8h12v6h-12zm-14 0h12v6h-12zm28 0h12v6h-12zm14-8h12v6h-12zm0-8h12v6h-12zm14 8h12v6h-12zm0 8h12v6h-12zm-56-16h12v6h-12zm14-8h12v6h-12zm-14-8h12v6h-12zm-14 0h12v6h-12z" transform="translate(0 149)"/><path d="m0 0h12v6h-12zm28 8h12v6h-12zm14-8h12v6h-12zm14 0h12v6h-12zm0 8h12v6h-12zm-14 0h12v6h-12zm0 16h12v6h-12zm14-8h12v6h-12zm14 0h12v6h-12zm0-16h12v6h-12zm-42 32h12v6h-12zm-14-16h12v6h-12zm-14 8h12v6h-12zm0 8h12v6h-12zm14 0h12v6h-12zm14 8h12v6h-12zm-14 0h12v6h-12zm28 0h12v6h-12zm14-8h12v6h-12zm0-8h12v6h-12zm14 8h12v6h-12zm0 8h12v6h-12zm-56-16h12v6h-12zm14-8h12v6h-12zm-14-8h12v6h-12zm-14 0h12v6h-12z" transform="translate(85 149)"/><path d="m0 0h12v6h-12zm28 8h12v6h-12zm14-8h12v6h-12zm14 0h12v6h-12zm0 8h12v6h-12zm-14 0h12v6h-12zm0 16h12v6h-12zm14-8h12v6h-12zm14 0h12v6h-12zm0-16h12v6h-12zm-42 32h12v6h-12zm-14-16h12v6h-12zm-14 8h12v6h-12zm0 8h12v6h-12zm14 0h12v6h-12zm14 8h12v6h-12zm-14 0h12v6h-12zm28 0h12v6h-12zm14-8h12v6h-12zm0-8h12v6h-12zm14 8h12v6h-12zm0 8h12v6h-12zm-56-16h12v6h-12zm14-8h12v6h-12zm-14-8h12v6h-12zm-14 0h12v6h-12z" transform="translate(85 199)"/><path d="m0 0h12v6h-12zm28 8h12v6h-12zm14-8h12v6h-12zm14 0h12v6h-12zm0 8h12v6h-12zm-14 0h12v6h-12zm0 16h12v6h-12zm14-8h12v6h-12zm14 0h12v6h-12zm0-16h12v6h-12zm-42 32h12v6h-12zm-14-16h12v6h-12zm-14 8h12v6h-12zm0 8h12v6h-12zm14 0h12v6h-12zm14 8h12v6h-12zm-14 0h12v6h-12zm28 0h12v6h-12zm14-8h12v6h-12zm0-8h12v6h-12zm14 8h12v6h-12zm0 8h12v6h-12zm-56-16h12v6h-12zm14-8h12v6h-12zm-14-8h12v6h-12zm-14 0h12v6h-12z" transform="translate(0 199)"/><path d="m0 0h12v6h-12zm28 8h12v6h-12zm14-8h12v6h-12zm14 0h12v6h-12zm0 8h12v6h-12zm-14 0h12v6h-12zm0 16h12v6h-12zm14-8h12v6h-12zm14 0h12v6h-12zm0-16h12v6h-12zm-42 32h12v6h-12zm-14-16h12v6h-12zm-14 8h12v6h-12zm0 8h12v6h-12zm14 0h12v6h-12zm14 8h12v6h-12zm-14 0h12v6h-12zm28 0h12v6h-12zm14-8h12v6h-12zm0-8h12v6h-12zm14 8h12v6h-12zm0 8h12v6h-12zm-56-16h12v6h-12zm14-8h12v6h-12zm-14-8h12v6h-12zm-14 0h12v6h-12z" transform="translate(87 249)"/><path d="m0 0h12v6h-12zm28 8h12v6h-12zm14-8h12v6h-12zm14 0h12v6h-12zm0 8h12v6h-12zm-14 0h12v6h-12zm0 16h12v6h-12zm14-8h12v6h-12zm14 0h12v6h-12zm0-16h12v6h-12zm-42 32h12v6h-12zm-14-16h12v6h-12zm-14 8h12v6h-12zm0 8h12v6h-12zm14 0h12v6h-12zm14 8h12v6h-12zm-14 0h12v6h-12zm28 0h12v6h-12zm14-8h12v6h-12zm0-8h12v6h-12zm14 8h12v6h-12zm0 8h12v6h-12zm-56-16h12v6h-12zm14-8h12v6h-12zm-14-8h12v6h-12zm-14 0h12v6h-12z" transform="translate(2 249)"/><path d="m0 0h12v6h-12zm28 8h12v6h-12zm14-8h12v6h-12zm14 0h12v6h-12zm0 8h12v6h-12zm-14 0h12v6h-12zm0 16h12v6h-12zm14-8h12v6h-12zm14 0h12v6h-12zm0-16h12v6h-12zm-42 32h12v6h-12zm-14-16h12v6h-12zm-14 8h12v6h-12zm0 8h12v6h-12zm14 0h12v6h-12zm14 8h12v6h-12zm-14 0h12v6h-12zm28 0h12v6h-12zm14-8h12v6h-12zm0-8h12v6h-12zm14 8h12v6h-12zm0 8h12v6h-12zm-56-16h12v6h-12zm14-8h12v6h-12zm-14-8h12v6h-12zm-14 0h12v6h-12z" transform="translate(342 298)"/><path d="m0 0h12v6h-12zm28 8h12v6h-12zm14-8h12v6h-12zm14 0h12v6h-12zm0 8h12v6h-12zm-14 0h12v6h-12zm0 16h12v6h-12zm14-8h12v6h-12zm14 0h12v6h-12zm0-16h12v6h-12zm-42 32h12v6h-12zm-14-16h12v6h-12zm-14 8h12v6h-12zm0 8h12v6h-12zm14 0h12v6h-12zm14 8h12v6h-12zm-14 0h12v6h-12zm28 0h12v6h-12zm14-8h12v6h-12zm0-8h12v6h-12zm14 8h12v6h-12zm0 8h12v6h-12zm-56-16h12v6h-12zm14-8h12v6h-12zm-14-8h12v6h-12zm-14 0h12v6h-12z" transform="translate(427 298)"/><path d="m0 0h12v6h-12zm28 8h12v6h-12zm14-8h12v6h-12zm14 0h12v6h-12zm0 8h12v6h-12zm-14 0h12v6h-12zm0 16h12v6h-12zm14-8h12v6h-12zm14 0h12v6h-12zm0-16h12v6h-12zm-42 32h12v6h-12zm-14-16h12v6h-12zm-14 8h12v6h-12zm0 8h12v6h-12zm14 0h12v6h-12zm14 8h12v6h-12zm-14 0h12v6h-12zm28 0h12v6h-12zm14-8h12v6h-12zm0-8h12v6h-12zm14 8h12v6h-12zm0 8h12v6h-12zm-56-16h12v6h-12zm14-8h12v6h-12zm-14-8h12v6h-12zm-14 0h12v6h-12z" transform="translate(427 348)"/><path d="m0 0h12v6h-12zm28 8h12v6h-12zm14-8h12v6h-12zm14 0h12v6h-12zm0 8h12v6h-12zm-14 0h12v6h-12zm0 16h12v6h-12zm14-8h12v6h-12zm14 0h12v6h-12zm0-16h12v6h-12zm-42 32h12v6h-12zm-14-16h12v6h-12zm-14 8h12v6h-12zm0 8h12v6h-12zm14 0h12v6h-12zm14 8h12v6h-12zm-14 0h12v6h-12zm28 0h12v6h-12zm14-8h12v6h-12zm0-8h12v6h-12zm14 8h12v6h-12zm0 8h12v6h-12zm-56-16h12v6h-12zm14-8h12v6h-12zm-14-8h12v6h-12zm-14 0h12v6h-12z" transform="translate(342 348)"/><path d="m0 0h12v6h-12zm28 8h12v6h-12zm14-8h12v6h-12zm14 0h12v6h-12zm0 8h12v6h-12zm-14 0h12v6h-12zm0 16h12v6h-12zm14-8h12v6h-12zm14 0h12v6h-12zm0-16h12v6h-12zm-42 32h12v6h-12zm-14-16h12v6h-12zm-14 8h12v6h-12zm0 8h12v6h-12zm14 0h12v6h-12zm14 8h12v6h-12zm-14 0h12v6h-12zm28 0h12v6h-12zm14-8h12v6h-12zm0-8h12v6h-12zm14 8h12v6h-12zm0 8h12v6h-12zm-56-16h12v6h-12zm14-8h12v6h-12zm-14-8h12v6h-12zm-14 0h12v6h-12z" transform="translate(429 398)"/><path d="m0 0h12v6h-12zm28 8h12v6h-12zm14-8h12v6h-12zm14 0h12v6h-12zm0 8h12v6h-12zm-14 0h12v6h-12zm0 16h12v6h-12zm14-8h12v6h-12zm14 0h12v6h-12zm0-16h12v6h-12zm-42 32h12v6h-12zm-14-16h12v6h-12zm-14 8h12v6h-12zm0 8h12v6h-12zm14 0h12v6h-12zm14 8h12v6h-12zm-14 0h12v6h-12zm28 0h12v6h-12zm14-8h12v6h-12zm0-8h12v6h-12zm14 8h12v6h-12zm0 8h12v6h-12zm-56-16h12v6h-12zm14-8h12v6h-12zm-14-8h12v6h-12zm-14 0h12v6h-12z" transform="translate(344 398)"/><path d="m0 0h12v6h-12zm28 8h12v6h-12zm14-8h12v6h-12zm14 0h12v6h-12zm0 8h12v6h-12zm-14 0h12v6h-12zm0 16h12v6h-12zm14-8h12v6h-12zm14 0h12v6h-12zm0-16h12v6h-12zm-42 32h12v6h-12zm-14-16h12v6h-12zm-14 8h12v6h-12zm0 8h12v6h-12zm14 0h12v6h-12zm14 8h12v6h-12zm-14 0h12v6h-12zm28 0h12v6h-12zm14-8h12v6h-12zm0-8h12v6h-12zm14 8h12v6h-12zm0 8h12v6h-12zm-56-16h12v6h-12zm14-8h12v6h-12zm-14-8h12v6h-12zm-14 0h12v6h-12z" transform="translate(171 298)"/><path d="m0 0h12v6h-12zm28 8h12v6h-12zm14-8h12v6h-12zm14 0h12v6h-12zm0 8h12v6h-12zm-14 0h12v6h-12zm0 16h12v6h-12zm14-8h12v6h-12zm14 0h12v6h-12zm0-16h12v6h-12zm-42 32h12v6h-12zm-14-16h12v6h-12zm-14 8h12v6h-12zm0 8h12v6h-12zm14 0h12v6h-12zm14 8h12v6h-12zm-14 0h12v6h-12zm28 0h12v6h-12zm14-8h12v6h-12zm0-8h12v6h-12zm14 8h12v6h-12zm0 8h12v6h-12zm-56-16h12v6h-12zm14-8h12v6h-12zm-14-8h12v6h-12zm-14 0h12v6h-12z" transform="translate(256 298)"/><path d="m0 0h12v6h-12zm28 8h12v6h-12zm14-8h12v6h-12zm14 0h12v6h-12zm0 8h12v6h-12zm-14 0h12v6h-12zm0 16h12v6h-12zm14-8h12v6h-12zm14 0h12v6h-12zm0-16h12v6h-12zm-42 32h12v6h-12zm-14-16h12v6h-12zm-14 8h12v6h-12zm0 8h12v6h-12zm14 0h12v6h-12zm14 8h12v6h-12zm-14 0h12v6h-12zm28 0h12v6h-12zm14-8h12v6h-12zm0-8h12v6h-12zm14 8h12v6h-12zm0 8h12v6h-12zm-56-16h12v6h-12zm14-8h12v6h-12zm-14-8h12v6h-12zm-14 0h12v6h-12z" transform="translate(256 348)"/><path d="m0 0h12v6h-12zm28 8h12v6h-12zm14-8h12v6h-12zm14 0h12v6h-12zm0 8h12v6h-12zm-14 0h12v6h-12zm0 16h12v6h-12zm14-8h12v6h-12zm14 0h12v6h-12zm0-16h12v6h-12zm-42 32h12v6h-12zm-14-16h12v6h-12zm-14 8h12v6h-12zm0 8h12v6h-12zm14 0h12v6h-12zm14 8h12v6h-12zm-14 0h12v6h-12zm28 0h12v6h-12zm14-8h12v6h-12zm0-8h12v6h-12zm14 8h12v6h-12zm0 8h12v6h-12zm-56-16h12v6h-12zm14-8h12v6h-12zm-14-8h12v6h-12zm-14 0h12v6h-12z" transform="translate(171 348)"/><path d="m0 0h12v6h-12zm28 8h12v6h-12zm14-8h12v6h-12zm14 0h12v6h-12zm0 8h12v6h-12zm-14 0h12v6h-12zm0 16h12v6h-12zm14-8h12v6h-12zm14 0h12v6h-12zm0-16h12v6h-12zm-42 32h12v6h-12zm-14-16h12v6h-12zm-14 8h12v6h-12zm0 8h12v6h-12zm14 0h12v6h-12zm14 8h12v6h-12zm-14 0h12v6h-12zm28 0h12v6h-12zm14-8h12v6h-12zm0-8h12v6h-12zm14 8h12v6h-12zm0 8h12v6h-12zm-56-16h12v6h-12zm14-8h12v6h-12zm-14-8h12v6h-12zm-14 0h12v6h-12z" transform="translate(258 398)"/><path d="m0 0h12v6h-12zm28 8h12v6h-12zm14-8h12v6h-12zm14 0h12v6h-12zm0 8h12v6h-12zm-14 0h12v6h-12zm0 16h12v6h-12zm14-8h12v6h-12zm14 0h12v6h-12zm0-16h12v6h-12zm-42 32h12v6h-12zm-14-16h12v6h-12zm-14 8h12v6h-12zm0 8h12v6h-12zm14 0h12v6h-12zm14 8h12v6h-12zm-14 0h12v6h-12zm28 0h12v6h-12zm14-8h12v6h-12zm0-8h12v6h-12zm14 8h12v6h-12zm0 8h12v6h-12zm-56-16h12v6h-12zm14-8h12v6h-12zm-14-8h12v6h-12zm-14 0h12v6h-12z" transform="translate(173 398)"/><path d="m0 0h12v6h-12zm28 8h12v6h-12zm14-8h12v6h-12zm14 0h12v6h-12zm0 8h12v6h-12zm-14 0h12v6h-12zm0 16h12v6h-12zm14-8h12v6h-12zm14 0h12v6h-12zm0-16h12v6h-12zm-42 32h12v6h-12zm-14-16h12v6h-12zm-14 8h12v6h-12zm0 8h12v6h-12zm14 0h12v6h-12zm14 8h12v6h-12zm-14 0h12v6h-12zm28 0h12v6h-12zm14-8h12v6h-12zm0-8h12v6h-12zm14 8h12v6h-12zm0 8h12v6h-12zm-56-16h12v6h-12zm14-8h12v6h-12zm-14-8h12v6h-12zm-14 0h12v6h-12z" transform="translate(1 298)"/><path d="m0 0h12v6h-12zm28 8h12v6h-12zm14-8h12v6h-12zm14 0h12v6h-12zm0 8h12v6h-12zm-14 0h12v6h-12zm0 16h12v6h-12zm14-8h12v6h-12zm14 0h12v6h-12zm0-16h12v6h-12zm-42 32h12v6h-12zm-14-16h12v6h-12zm-14 8h12v6h-12zm0 8h12v6h-12zm14 0h12v6h-12zm14 8h12v6h-12zm-14 0h12v6h-12zm28 0h12v6h-12zm14-8h12v6h-12zm0-8h12v6h-12zm14 8h12v6h-12zm0 8h12v6h-12zm-56-16h12v6h-12zm14-8h12v6h-12zm-14-8h12v6h-12zm-14 0h12v6h-12z" transform="translate(86 298)"/><path d="m0 0h12v6h-12zm28 8h12v6h-12zm14-8h12v6h-12zm14 0h12v6h-12zm0 8h12v6h-12zm-14 0h12v6h-12zm0 16h12v6h-12zm14-8h12v6h-12zm14 0h12v6h-12zm0-16h12v6h-12zm-42 32h12v6h-12zm-14-16h12v6h-12zm-14 8h12v6h-12zm0 8h12v6h-12zm14 0h12v6h-12zm14 8h12v6h-12zm-14 0h12v6h-12zm28 0h12v6h-12zm14-8h12v6h-12zm0-8h12v6h-12zm14 8h12v6h-12zm0 8h12v6h-12zm-56-16h12v6h-12zm14-8h12v6h-12zm-14-8h12v6h-12zm-14 0h12v6h-12z" transform="translate(86 348)"/><path d="m0 0h12v6h-12zm28 8h12v6h-12zm14-8h12v6h-12zm14 0h12v6h-12zm0 8h12v6h-12zm-14 0h12v6h-12zm0 16h12v6h-12zm14-8h12v6h-12zm14 0h12v6h-12zm0-16h12v6h-12zm-42 32h12v6h-12zm-14-16h12v6h-12zm-14 8h12v6h-12zm0 8h12v6h-12zm14 0h12v6h-12zm14 8h12v6h-12zm-14 0h12v6h-12zm28 0h12v6h-12zm14-8h12v6h-12zm0-8h12v6h-12zm14 8h12v6h-12zm0 8h12v6h-12zm-56-16h12v6h-12zm14-8h12v6h-12zm-14-8h12v6h-12zm-14 0h12v6h-12z" transform="translate(1 348)"/><path d="m0 0h12v6h-12zm28 8h12v6h-12zm14-8h12v6h-12zm14 0h12v6h-12zm0 8h12v6h-12zm-14 0h12v6h-12zm0 16h12v6h-12zm14-8h12v6h-12zm14 0h12v6h-12zm0-16h12v6h-12zm-42 32h12v6h-12zm-14-16h12v6h-12zm-14 8h12v6h-12zm0 8h12v6h-12zm14 0h12v6h-12zm14 8h12v6h-12zm-14 0h12v6h-12zm28 0h12v6h-12zm14-8h12v6h-12zm0-8h12v6h-12zm14 8h12v6h-12zm0 8h12v6h-12zm-56-16h12v6h-12zm14-8h12v6h-12zm-14-8h12v6h-12zm-14 0h12v6h-12z" transform="translate(88 398)"/><path d="m0 0h12v6h-12zm28 8h12v6h-12zm14-8h12v6h-12zm14 0h12v6h-12zm0 8h12v6h-12zm-14 0h12v6h-12zm0 16h12v6h-12zm14-8h12v6h-12zm14 0h12v6h-12zm0-16h12v6h-12zm-42 32h12v6h-12zm-14-16h12v6h-12zm-14 8h12v6h-12zm0 8h12v6h-12zm14 0h12v6h-12zm14 8h12v6h-12zm-14 0h12v6h-12zm28 0h12v6h-12zm14-8h12v6h-12zm0-8h12v6h-12zm14 8h12v6h-12zm0 8h12v6h-12zm-56-16h12v6h-12zm14-8h12v6h-12zm-14-8h12v6h-12zm-14 0h12v6h-12z" transform="translate(3 398)"/><path d="m0 0h12v6h-12zm28 8h12v6h-12zm14-8h12v6h-12zm14 0h12v6h-12zm0 8h12v6h-12zm-14 0h12v6h-12zm0 16h12v6h-12zm14-8h12v6h-12zm14 0h12v6h-12zm0-16h12v6h-12zm-42 32h12v6h-12zm-14-16h12v6h-12zm-14 8h12v6h-12zm0 8h12v6h-12zm14 0h12v6h-12zm14 8h12v6h-12zm-14 0h12v6h-12zm28 0h12v6h-12zm14-8h12v6h-12zm0-8h12v6h-12zm14 8h12v6h-12zm0 8h12v6h-12zm-56-16h12v6h-12zm14-8h12v6h-12zm-14-8h12v6h-12zm-14 0h12v6h-12z" transform="translate(429 444)"/><path d="m0 0h12v6h-12zm28 8h12v6h-12zm14-8h12v6h-12zm14 0h12v6h-12zm0 8h12v6h-12zm-14 0h12v6h-12zm0 16h12v6h-12zm14-8h12v6h-12zm14 0h12v6h-12zm0-16h12v6h-12zm-42 32h12v6h-12zm-14-16h12v6h-12zm-14 8h12v6h-12zm0 8h12v6h-12zm14 0h12v6h-12zm14 8h12v6h-12zm-14 0h12v6h-12zm28 0h12v6h-12zm14-8h12v6h-12zm0-8h12v6h-12zm14 8h12v6h-12zm0 8h12v6h-12zm-56-16h12v6h-12zm14-8h12v6h-12zm-14-8h12v6h-12zm-14 0h12v6h-12z" transform="translate(344 444)"/><path d="m0 0h12v6h-12zm28 8h12v6h-12zm14-8h12v6h-12zm14 0h12v6h-12zm0 8h12v6h-12zm-14 0h12v6h-12zm0 16h12v6h-12zm14-8h12v6h-12zm14 0h12v6h-12zm0-16h12v6h-12zm-42 32h12v6h-12zm-14-16h12v6h-12zm-14 8h12v6h-12zm0 8h12v6h-12zm14 0h12v6h-12zm14 8h12v6h-12zm-14 0h12v6h-12zm28 0h12v6h-12zm14-8h12v6h-12zm0-8h12v6h-12zm14 8h12v6h-12zm0 8h12v6h-12zm-56-16h12v6h-12zm14-8h12v6h-12zm-14-8h12v6h-12zm-14 0h12v6h-12z" transform="translate(258 444)"/><path d="m0 0h12v6h-12zm28 8h12v6h-12zm14-8h12v6h-12zm14 0h12v6h-12zm0 8h12v6h-12zm-14 0h12v6h-12zm0 16h12v6h-12zm14-8h12v6h-12zm14 0h12v6h-12zm0-16h12v6h-12zm-42 32h12v6h-12zm-14-16h12v6h-12zm-14 8h12v6h-12zm0 8h12v6h-12zm14 0h12v6h-12zm14 8h12v6h-12zm-14 0h12v6h-12zm28 0h12v6h-12zm14-8h12v6h-12zm0-8h12v6h-12zm14 8h12v6h-12zm0 8h12v6h-12zm-56-16h12v6h-12zm14-8h12v6h-12zm-14-8h12v6h-12zm-14 0h12v6h-12z" transform="translate(173 444)"/><path d="m0 0h12v6h-12zm28 8h12v6h-12zm14-8h12v6h-12zm14 0h12v6h-12zm0 8h12v6h-12zm-14 0h12v6h-12zm0 16h12v6h-12zm14-8h12v6h-12zm14 0h12v6h-12zm0-16h12v6h-12zm-42 32h12v6h-12zm-14-16h12v6h-12zm-14 8h12v6h-12zm0 8h12v6h-12zm14 0h12v6h-12zm14 8h12v6h-12zm-14 0h12v6h-12zm28 0h12v6h-12zm14-8h12v6h-12zm0-8h12v6h-12zm14 8h12v6h-12zm0 8h12v6h-12zm-56-16h12v6h-12zm14-8h12v6h-12zm-14-8h12v6h-12zm-14 0h12v6h-12z" transform="translate(88 444)"/><path d="m0 0h12v6h-12zm28 8h12v6h-12zm14-8h12v6h-12zm14 0h12v6h-12zm0 8h12v6h-12zm-14 0h12v6h-12zm0 16h12v6h-12zm14-8h12v6h-12zm14 0h12v6h-12zm0-16h12v6h-12zm-42 32h12v6h-12zm-14-16h12v6h-12zm-14 8h12v6h-12zm0 8h12v6h-12zm14 0h12v6h-12zm14 8h12v6h-12zm-14 0h12v6h-12zm28 0h12v6h-12zm14-8h12v6h-12zm0-8h12v6h-12zm14 8h12v6h-12zm0 8h12v6h-12zm-56-16h12v6h-12zm14-8h12v6h-12zm-14-8h12v6h-12zm-14 0h12v6h-12z" transform="translate(3 444)"/></g></svg>