<?xml version="1.0" encoding="UTF-8"?>
<svg width="899px" height="1415px" viewBox="0 0 899 1415" version="1.1" xmlns="http://www.w3.org/2000/svg" xmlns:xlink="http://www.w3.org/1999/xlink">
    <!-- Generator: Sketch 49.3 (51167) - http://www.bohemiancoding.com/sketch -->
    <title>2-715031</title>
    <desc>Created with Sketch.</desc>
    <defs></defs>
    <g id="2-715031" stroke="none" stroke-width="1" fill="none" fill-rule="evenodd">
        <g id="3F2918" transform="translate(148.000000, 280.000000)">
            <rect id="Rectangle-path" x="0.5" y="0.2" width="602.6" height="241.5"></rect>
            <g id="Group">
                <g transform="translate(0.000000, 21.000000)" fill-rule="nonzero" id="Shape">
                    <path d="M303.7,700.3 C295,700.3 286.5,698.7 278.4,695.4 L218.2,671.2 C184.2,657.5 152.7,638.6 124.7,615 C96.6,591.4 72.6,563.6 53.3,532.5 C27.3,490.5 13.5,442.2 13.5,392.8 L13.5,146.1 C13.5,117.2 23.9,89.3 42.8,67.4 C61.7,45.6 87.9,31.2 116.4,27.1 C177.5,18.2 239.8,13.7 301.5,13.7 C363.2,13.7 425.5,18.2 486.6,27.1 C515.2,31.2 541.3,45.6 560.2,67.4 C579.1,89.2 589.5,117.2 589.5,146.1 L589.5,392.8 C589.5,440.8 576.5,487.9 551.8,529.1 L551,530.5 C531.6,562.9 507.2,591.7 478.5,616.1 C449.8,640.6 417.5,660 382.5,674 L328.6,695.5 C320.8,698.7 312.4,700.3 303.7,700.3 C303.7,700.3 303.7,700.3 303.7,700.3 Z" fill="#715031"></path>
                    <path d="M301.6,27.3 C362.7,27.3 424.3,31.7 484.8,40.5 L485,40.5 C510.3,44.2 533.5,56.9 550.2,76.3 C567,95.7 576.2,120.5 576.2,146.1 L576.2,392.8 C576.2,438.3 563.8,483.1 540.4,522.1 L539.6,523.5 C521,554.6 497.6,582.3 470,605.8 C442.4,629.3 411.4,648 377.7,661.5 L323.8,683 C317.4,685.6 310.6,686.9 303.7,686.9 C296.7,686.9 289.9,685.6 283.5,683 L223.3,658.8 C190.6,645.7 160.4,627.5 133.4,604.8 C106.4,582.1 83.4,555.4 64.8,525.5 C40.1,485.6 27.1,439.8 27.1,392.9 L27.1,146.1 C27.1,120.5 36.3,95.6 53.1,76.3 C69.9,56.9 93.1,44.2 118.5,40.5 C178.9,31.7 240.5,27.3 301.6,27.3 Z M301.6,0.3 C239.1,0.3 176.6,4.8 114.5,13.8 C48.8,23.3 0,79.7 0,146.1 L0,392.8 C0,444.7 14.5,495.5 41.8,539.6 C82.1,604.7 142.1,655.2 213.2,683.7 L273.4,707.9 C283.1,711.8 293.4,713.8 303.7,713.8 C313.9,713.8 324.1,711.9 333.8,708 L387.7,686.5 C460.8,657.3 522.3,604.9 562.8,537.4 L563.6,536 C589.5,492.7 603.2,443.2 603.2,392.8 L603.2,146.1 C603.2,79.7 554.4,23.3 488.7,13.8 C426.6,4.8 364.1,0.3 301.6,0.3 Z" fill="#333333"></path>
                </g>
                <rect id="Rectangle-path" x="0.5" y="0.2" width="602.6" height="241.5"></rect>
            </g>
        </g>
    </g>
</svg>